<svg version="1.1" xmlns="http://www.w3.org/2000/svg" xmlns:xlink="http://www.w3.org/1999/xlink" viewBox="0 0 23.3203 22.959">
 <g>
  <rect height="22.959" opacity="0" width="23.3203" x="0" y="0"/>
  <path d="M3.79883 22.959L19.1504 22.959C21.6797 22.959 22.959 21.6797 22.959 19.1992L22.959 3.76953C22.959 1.2793 21.6797 0 19.1504 0L3.79883 0C1.2793 0 0 1.26953 0 3.76953L0 19.1992C0 21.6992 1.2793 22.959 3.79883 22.959Z" fill="var(--color-tertiary)"/>
  <path d="M7.49023 16.9434C4.95117 16.9434 4.23828 13.9941 4.23828 11.4746C4.23828 8.95508 4.95117 6.00586 7.49023 6.00586C10.0098 6.00586 10.7227 8.95508 10.7227 11.4746C10.7227 13.9941 10.0098 16.9434 7.49023 16.9434ZM7.49023 15.5859C8.69141 15.5859 9.07227 13.623 9.07227 11.4746C9.07227 9.31641 8.69141 7.36328 7.49023 7.36328C6.2793 7.36328 5.9082 9.31641 5.9082 11.4746C5.9082 13.623 6.2793 15.5859 7.49023 15.5859ZM15.4883 16.9434C12.959 16.9434 12.2461 13.9941 12.2461 11.4746C12.2461 8.95508 12.959 6.00586 15.4883 6.00586C18.0176 6.00586 18.7305 8.95508 18.7305 11.4746C18.7305 13.9941 18.0176 16.9434 15.4883 16.9434ZM15.4883 15.5859C16.6895 15.5859 17.0703 13.623 17.0703 11.4746C17.0703 9.31641 16.6895 7.36328 15.4883 7.36328C14.2773 7.36328 13.9062 9.31641 13.9062 11.4746C13.9062 13.623 14.2773 15.5859 15.4883 15.5859Z" fill="var(--color-primary)"/>
 </g>
</svg>
