<svg version="1.1" xmlns="http://www.w3.org/2000/svg" xmlns:xlink="http://www.w3.org/1999/xlink" viewBox="0 0 23.3203 22.959">
 <g>
  <rect height="22.959" opacity="0" width="23.3203" x="0" y="0"/>
  <path d="M3.79883 22.959L19.1504 22.959C21.6797 22.959 22.959 21.6797 22.959 19.1992L22.959 3.76953C22.959 1.2793 21.6797 0 19.1504 0L3.79883 0C1.2793 0 0 1.26953 0 3.76953L0 19.1992C0 21.6992 1.2793 22.959 3.79883 22.959Z" fill="var(--color-tertiary)"/>
  <path d="M5.41992 16.6992C4.90234 16.6992 4.6582 16.416 4.6582 16.0352C4.6582 15.6738 4.84375 15.3906 5.05859 15.127L7.44141 12.0117C8.1543 11.084 8.78906 10.0781 8.78906 9.05273C8.78906 8.125 8.33984 7.33398 7.4707 7.33398C6.66016 7.33398 6.29883 7.94922 6.07422 8.89648C5.9668 9.26758 5.73242 9.43359 5.36133 9.43359C4.91211 9.43359 4.67773 9.13086 4.67773 8.7207C4.67773 7.37305 5.85938 6.00586 7.48047 6.00586C9.21875 6.00586 10.332 7.27539 10.332 8.98438C10.332 10.1074 9.92188 11.0547 8.70117 12.6172L6.67969 15.2539L6.67969 15.3418L9.89258 15.3418C10.2832 15.3418 10.5469 15.5957 10.5469 16.0254C10.5469 16.4258 10.293 16.6992 9.89258 16.6992ZM15.2441 16.9434C12.6953 16.9434 11.9336 14.0527 11.9336 11.6211C11.9336 9.07227 12.666 6.02539 15.2637 6.02539C16.5234 6.02539 17.5977 6.71875 17.8711 7.8418C17.9199 8.00781 17.9492 8.17383 17.9492 8.31055C17.9492 8.69141 17.7344 8.98438 17.2852 8.98438C16.8945 8.98438 16.6992 8.80859 16.5332 8.45703C16.3086 7.8418 15.8789 7.36328 15.2246 7.36328C13.6816 7.36328 13.4863 10.0977 13.4863 11.6016C13.4863 11.6504 13.4863 11.709 13.4863 11.7578L13.5352 11.7578C13.8184 10.6348 14.6094 9.87305 15.6934 9.87305C17.4121 9.87305 18.252 11.543 18.252 13.2812C18.252 15.2832 17.168 16.9434 15.2441 16.9434ZM15.2246 15.6055C16.2109 15.6055 16.6699 14.3848 16.6699 13.3594C16.6895 12.3242 16.25 11.1328 15.2148 11.1328C14.2188 11.1328 13.7207 12.2754 13.7207 13.3008C13.7207 14.3164 14.1699 15.6055 15.2246 15.6055Z" fill="var(--color-primary)"/>
 </g>
</svg>
