<svg version="1.1" xmlns="http://www.w3.org/2000/svg" xmlns:xlink="http://www.w3.org/1999/xlink" viewBox="0 0 25.8008 25.459">
 <g>
  <rect height="25.459" opacity="0" width="25.8008" x="0" y="0"/>
  <path d="M12.7148 25.4395C19.7266 25.4395 25.4395 19.7266 25.4395 12.7246C25.4395 5.71289 19.7266 0 12.7148 0C5.71289 0 0 5.71289 0 12.7246C0 19.7266 5.71289 25.4395 12.7148 25.4395Z" fill="var(--color-tertiary)"/>
  <path d="M6.12305 17.9492C5.60547 17.9492 5.36133 17.666 5.36133 17.2852C5.36133 16.9336 5.54688 16.6504 5.76172 16.377L8.13477 13.2715C8.85742 12.334 9.50195 11.3281 9.50195 10.3027C9.50195 9.375 9.05273 8.58398 8.17383 8.58398C7.36328 8.58398 7.00195 9.19922 6.77734 10.1465C6.66992 10.5176 6.43555 10.6934 6.05469 10.6934C5.60547 10.6934 5.37109 10.3809 5.37109 9.9707C5.37109 8.62305 6.5625 7.25586 8.18359 7.25586C9.92188 7.25586 11.0449 8.52539 11.0449 10.2344C11.0449 11.3574 10.6348 12.3047 9.4043 13.8672L7.38281 16.5039L7.38281 16.6016L10.5957 16.6016C10.9863 16.6016 11.25 16.8457 11.25 17.2754C11.25 17.6758 10.9961 17.9492 10.5957 17.9492ZM13.7402 18.0957C13.2812 18.0957 12.9102 17.7246 12.9102 17.2656L12.9102 8.16406C12.9102 7.71484 13.2812 7.34375 13.7402 7.34375C14.1895 7.34375 14.5703 7.71484 14.5703 8.16406L14.5703 11.9336L17.9883 11.9336L17.9883 8.16406C17.9883 7.71484 18.3691 7.34375 18.8281 7.34375C19.2773 7.34375 19.6484 7.71484 19.6484 8.16406L19.6484 17.2656C19.6484 17.7246 19.2773 18.0957 18.8281 18.0957C18.3691 18.0957 17.9883 17.7246 17.9883 17.2656L17.9883 13.3203L14.5703 13.3203L14.5703 17.2656C14.5703 17.7246 14.1895 18.0957 13.7402 18.0957Z" fill="var(--color-primary)"/>
 </g>
</svg>
