<svg version="1.1" xmlns="http://www.w3.org/2000/svg" xmlns:xlink="http://www.w3.org/1999/xlink" viewBox="0 0 23.3203 22.959">
 <g>
  <rect height="22.959" opacity="0" width="23.3203" x="0" y="0"/>
  <path d="M3.79883 22.959L19.1504 22.959C21.6797 22.959 22.959 21.6797 22.959 19.1992L22.959 3.76953C22.959 1.2793 21.6797 0 19.1504 0L3.79883 0C1.2793 0 0 1.26953 0 3.76953L0 19.1992C0 21.6992 1.2793 22.959 3.79883 22.959Z" fill="var(--color-tertiary)"/>
  <path d="M8.62305 16.8555C8.25195 16.8555 7.83203 16.6211 7.83203 16.0352L7.83203 14.5508L4.83398 14.5508C4.26758 14.5508 3.87695 14.1699 3.87695 13.6133C3.87695 13.252 3.95508 12.959 4.14062 12.5195L6.64062 7.2168C6.96289 6.50391 7.34375 6.09375 8.14453 6.09375C8.86719 6.09375 9.4043 6.50391 9.4043 7.32422L9.4043 13.2227L9.95117 13.2227C10.3906 13.2227 10.5957 13.5059 10.5957 13.877C10.5957 14.2676 10.3809 14.5508 9.95117 14.5508L9.4043 14.5508L9.4043 16.0352C9.4043 16.5723 9.05273 16.8555 8.62305 16.8555ZM7.86133 13.252L7.86133 7.57812L7.82227 7.57812L5.29297 13.1836L5.29297 13.252ZM15.1953 16.9434C12.6758 16.9434 11.9629 13.9941 11.9629 11.4746C11.9629 8.95508 12.6758 6.00586 15.1953 6.00586C17.7246 6.00586 18.4473 8.95508 18.4473 11.4746C18.4473 13.9941 17.7246 16.9434 15.1953 16.9434ZM15.1953 15.5859C16.4062 15.5859 16.7773 13.623 16.7773 11.4746C16.7773 9.31641 16.4062 7.36328 15.1953 7.36328C13.9941 7.36328 13.6133 9.31641 13.6133 11.4746C13.6133 13.623 13.9941 15.5859 15.1953 15.5859Z" fill="var(--color-primary)"/>
 </g>
</svg>
