<svg version="1.1" xmlns="http://www.w3.org/2000/svg" xmlns:xlink="http://www.w3.org/1999/xlink" viewBox="0 0 23.3203 22.959">
 <g>
  <rect height="22.959" opacity="0" width="23.3203" x="0" y="0"/>
  <path d="M3.79883 22.959L19.1504 22.959C21.6797 22.959 22.959 21.6797 22.959 19.1992L22.959 3.76953C22.959 1.2793 21.6797 0 19.1504 0L3.79883 0C1.2793 0 0 1.26953 0 3.76953L0 19.1992C0 21.6992 1.2793 22.959 3.79883 22.959Z" fill="var(--color-tertiary)"/>
  <path d="M8.85742 16.8555C8.47656 16.8555 8.05664 16.6211 8.05664 16.0254L8.05664 14.5508L5.05859 14.5508C4.49219 14.5508 4.11133 14.1699 4.11133 13.6133C4.11133 13.252 4.17969 12.959 4.375 12.5195L6.875 7.2168C7.19727 6.50391 7.57812 6.09375 8.36914 6.09375C9.10156 6.09375 9.61914 6.50391 9.61914 7.32422L9.61914 13.2227L10.166 13.2227C10.625 13.2227 10.8203 13.5059 10.8203 13.877C10.8203 14.2676 10.6152 14.5508 10.166 14.5508L9.61914 14.5508L9.61914 16.0254C9.61914 16.5723 9.27734 16.8555 8.85742 16.8555ZM8.08594 13.252L8.08594 7.57812L8.03711 7.57812L5.51758 13.1836L5.51758 13.252ZM15.2539 16.9434C14.0723 16.9434 12.9688 16.2109 12.5391 15.127C12.4512 14.9023 12.3828 14.6289 12.3828 14.375C12.3828 13.9551 12.6465 13.6816 13.0664 13.6816C13.3789 13.6816 13.6328 13.8477 13.7598 14.2383C13.9844 15.0098 14.4629 15.6055 15.2344 15.6055C16.2598 15.6055 16.6992 14.4434 16.6992 13.291C16.6992 12.2754 16.2793 11.0547 15.2637 11.0547C14.6973 11.0547 14.3359 11.3867 14.0234 11.8652C13.7891 12.1875 13.6133 12.334 13.2812 12.334C12.7539 12.334 12.5195 11.9531 12.5195 11.5137C12.5195 11.3477 12.5195 11.1426 12.5391 10.9375L12.7734 7.25586C12.8223 6.65039 13.0957 6.25 13.7109 6.25L17.2266 6.25C17.6074 6.25 17.8711 6.54297 17.8711 6.92383C17.8711 7.33398 17.627 7.60742 17.2266 7.60742L14.1406 7.60742L13.9062 10.9668L13.9648 10.9668C14.3066 10.1855 15.0293 9.83398 15.7715 9.83398C17.4414 9.83398 18.291 11.4844 18.291 13.252C18.291 15.2441 17.2168 16.9434 15.2539 16.9434Z" fill="var(--color-primary)"/>
 </g>
</svg>
