<svg version="1.1" xmlns="http://www.w3.org/2000/svg" xmlns:xlink="http://www.w3.org/1999/xlink" viewBox="0 0 44.7461 20.0293">
 <g>
  <rect height="20.0293" opacity="0" width="44.7461" x="0" y="0"/>
  <path d="M3.83789 17.3047L4.6582 17.3047C4.58008 16.9238 4.53125 16.543 4.53125 16.1426C4.53125 13.2812 6.78711 11.0254 9.66797 11.0254C12.5391 11.0254 14.7949 13.2812 14.7949 16.1426C14.7949 16.543 14.7461 16.9238 14.6582 17.3047L29.7168 17.3047C29.6387 16.9238 29.5898 16.543 29.5898 16.1426C29.5898 13.2812 31.8457 11.0254 34.7168 11.0254C37.5879 11.0254 39.8535 13.2812 39.8535 16.1426C39.8535 16.543 39.8047 16.9238 39.7168 17.3047L40.5371 17.3047C43.1738 17.3047 44.3848 16.0254 44.3848 13.2422L44.3848 9.75586C44.3848 7.49023 43.3105 6.11328 40.9668 5.3418L38.9551 4.66797C36.25 2.42188 32.9297 0 28.2227 0L26.4062 0C21.3672 0 19.1602 0.517578 16.1328 2.42188L11.0254 5.61523L5.38086 6.30859C2.03125 6.72852 0 8.78906 0 11.6602L0 13.3008C0 16.0449 1.23047 17.3047 3.83789 17.3047ZM9.66797 19.9121C11.7773 19.9121 13.4277 18.252 13.4277 16.1426C13.4277 14.0332 11.7773 12.3828 9.66797 12.3828C7.54883 12.3828 5.89844 14.0332 5.89844 16.1426C5.89844 18.252 7.54883 19.9121 9.66797 19.9121ZM34.7168 19.9121C36.8359 19.9121 38.4863 18.252 38.4863 16.1426C38.4863 14.0332 36.8359 12.3828 34.7168 12.3828C32.6074 12.3828 30.9473 14.0332 30.9473 16.1426C30.9473 18.252 32.6074 19.9121 34.7168 19.9121Z" fill="var(--color-tertiary)"/>
  <path d="M16.6016 12.5293C16.25 12.5293 15.9375 12.3242 15.9375 11.8555C15.9375 11.709 15.9668 11.5723 16.0156 11.3965L17.3242 5.99609C17.4512 5.41016 17.832 5.12695 18.3984 5.12695C18.9941 5.12695 19.3652 5.40039 19.502 5.99609L20.8398 11.3965C20.8691 11.5723 20.9082 11.6992 20.9082 11.8555C20.9082 12.2461 20.6348 12.5293 20.2148 12.5293C19.834 12.5293 19.6191 12.3242 19.5215 11.9043L19.2676 10.8594L17.5488 10.8594L17.3145 11.8848C17.2266 12.3145 17.0215 12.5293 16.6016 12.5293ZM17.7344 9.79492L19.082 9.79492L18.418 6.76758L18.3594 6.76758ZM22.5879 12.5293C22.1484 12.5293 21.8652 12.2461 21.8652 11.7871L21.8652 5.86914C21.8652 5.41992 22.1484 5.12695 22.5879 5.12695C23.0371 5.12695 23.3105 5.41992 23.3105 5.86914L23.3105 11.7871C23.3105 12.2461 23.0371 12.5293 22.5879 12.5293ZM25.2637 12.5293C24.8145 12.5293 24.5508 12.2363 24.5508 11.7871L24.5508 5.97656C24.5508 5.50781 24.8047 5.22461 25.2637 5.22461L26.6699 5.22461C28.1934 5.22461 28.916 6.14258 28.916 7.49023C28.916 8.24219 28.6523 9.0332 27.9785 9.41406L28.7598 11.4062C28.8184 11.582 28.877 11.7676 28.877 11.8945C28.877 12.2656 28.5938 12.5293 28.1738 12.5293C27.8027 12.5293 27.5977 12.3145 27.4707 11.9531L26.6602 9.7168L25.9766 9.7168L25.9766 11.7871C25.9766 12.2461 25.6934 12.5293 25.2637 12.5293ZM25.9766 8.71094L26.5527 8.70117C27.168 8.69141 27.4609 8.14453 27.4609 7.50977C27.4609 6.89453 27.1484 6.32812 26.543 6.32812L25.9766 6.32812Z" fill="var(--color-primary)"/>
 </g>
</svg>
