<svg version="1.1" xmlns="http://www.w3.org/2000/svg" xmlns:xlink="http://www.w3.org/1999/xlink" viewBox="0 0 25.8008 25.459">
 <g>
  <rect height="25.459" opacity="0" width="25.8008" x="0" y="0"/>
  <path d="M12.7148 25.4395C19.7266 25.4395 25.4395 19.7266 25.4395 12.7246C25.4395 5.71289 19.7266 0 12.7148 0C5.71289 0 0 5.71289 0 12.7246C0 19.7266 5.71289 25.4395 12.7148 25.4395Z" fill="var(--color-tertiary)"/>
  <path d="M7.49023 19.0625C6.79688 18.8477 6.60156 18.6426 6.37695 17.9492C6.01562 16.709 5.97656 15.3125 6.25977 13.9355L11.5039 19.1797C10.127 19.4629 8.73047 19.4336 7.49023 19.0625ZM16.4453 16.4551C15.3418 17.5781 14.043 18.3691 12.6953 18.8379L6.60156 12.7441C7.07031 11.3965 7.86133 10.1074 8.98438 8.99414C10.0879 7.87109 11.3867 7.08008 12.7441 6.61133L18.8281 12.7051C18.3594 14.0527 17.5684 15.3516 16.4453 16.4551ZM11.7871 15.4883C11.8848 15.3711 11.8848 15.1855 11.7871 15.0684L11.2891 14.5703L11.7969 14.0723L12.2754 14.5508C12.4023 14.6973 12.5977 14.6777 12.7051 14.5605C12.832 14.4531 12.832 14.2383 12.7051 14.1309L12.207 13.6426L12.7246 13.1543L13.2227 13.623C13.3301 13.7402 13.5254 13.75 13.6328 13.623C13.7695 13.5156 13.75 13.3105 13.6328 13.1934L13.1445 12.7051L13.6523 12.207L14.1406 12.6855C14.2676 12.8027 14.4531 12.8125 14.5703 12.6953C14.6973 12.5684 14.6973 12.373 14.5703 12.2656L14.0918 11.7773L14.5898 11.2793L15.0684 11.7578C15.2051 11.875 15.3906 11.8848 15.5078 11.7676C15.625 11.6309 15.6348 11.4453 15.5078 11.3184L14.1016 9.92188C13.9844 9.80469 13.7988 9.81445 13.6719 9.92188C13.5645 10.0488 13.5742 10.2344 13.6816 10.3613L14.1699 10.8496L13.6523 11.3477L13.1641 10.8594C13.0664 10.7422 12.8711 10.7422 12.7441 10.8594C12.627 10.9766 12.627 11.1914 12.7441 11.2891L13.2422 11.7773L12.7246 12.2949L12.2266 11.7969C12.1191 11.6699 11.9238 11.6699 11.8164 11.8066C11.6895 11.9043 11.6992 12.1191 11.8164 12.2168L12.2949 12.7051L11.7969 13.2227L11.3086 12.7246C11.1914 12.6074 10.9961 12.6074 10.8789 12.7344C10.752 12.8418 10.752 13.0566 10.8789 13.1738L11.3672 13.6426L10.8691 14.1504L10.3809 13.6621C10.2637 13.5547 10.0781 13.5449 9.94141 13.6621C9.81445 13.7891 9.82422 13.9844 9.94141 14.1016L11.3477 15.4785C11.4746 15.5957 11.6504 15.6152 11.7871 15.4883ZM19.0625 7.5C19.4238 8.74023 19.4629 10.127 19.1699 11.5137L13.9355 6.2793C15.3223 5.98633 16.709 6.01562 17.9492 6.38672C18.6328 6.61133 18.8281 6.80664 19.0625 7.5Z" fill="var(--color-primary)"/>
 </g>
</svg>
