<svg version="1.1" xmlns="http://www.w3.org/2000/svg" xmlns:xlink="http://www.w3.org/1999/xlink" viewBox="0 0 25.8008 25.459">
 <g>
  <rect height="25.459" opacity="0" width="25.8008" x="0" y="0"/>
  <path d="M12.7148 25.4395C19.7266 25.4395 25.4395 19.7266 25.4395 12.7246C25.4395 5.71289 19.7266 0 12.7148 0C5.71289 0 0 5.71289 0 12.7246C0 19.7266 5.71289 25.4395 12.7148 25.4395Z" fill="var(--color-tertiary)"/>
  <path d="M19.2188 12.7148C19.2188 12.9395 19.1406 13.125 18.9258 13.3496L14.7559 17.6367C14.5898 17.8125 14.4141 17.9004 14.1699 17.9004C13.7207 17.9004 13.3887 17.5684 13.3887 17.1094C13.3887 16.8848 13.4766 16.6406 13.6621 16.4941L15.8789 14.3652L16.7578 13.5352L14.8535 13.5938L7.1582 13.5938C6.67969 13.5938 6.28906 13.1934 6.28906 12.7148C6.28906 12.2266 6.67969 11.8262 7.1582 11.8262L14.8535 11.8262L16.748 11.8945L15.8789 11.0645L13.6621 8.93555C13.4766 8.78906 13.3887 8.55469 13.3887 8.33008C13.3887 7.88086 13.7207 7.5293 14.1699 7.5293C14.4141 7.5293 14.5898 7.61719 14.7559 7.79297L18.9258 12.0703C19.1406 12.2949 19.2188 12.4805 19.2188 12.7148Z" fill="var(--color-primary)"/>
 </g>
</svg>
