<svg version="1.1" xmlns="http://www.w3.org/2000/svg" xmlns:xlink="http://www.w3.org/1999/xlink" viewBox="0 0 23.3203 22.959">
 <g>
  <rect height="22.959" opacity="0" width="23.3203" x="0" y="0"/>
  <path d="M3.79883 22.959L19.1504 22.959C21.6797 22.959 22.959 21.6797 22.959 19.1992L22.959 3.76953C22.959 1.2793 21.6797 0 19.1504 0L3.79883 0C1.2793 0 0 1.26953 0 3.76953L0 19.1992C0 21.6992 1.2793 22.959 3.79883 22.959Z" fill="var(--color-tertiary)"/>
  <path d="M11.5039 3.63281C11.7383 3.63281 11.9238 3.74023 12.1484 3.95508L15.918 7.71484C16.0742 7.85156 16.1523 8.05664 16.1523 8.30078C16.1523 8.75 15.8105 9.0918 15.3516 9.0918C15.0977 9.0918 14.9023 8.99414 14.7461 8.84766L13.6328 7.72461L12.2461 6.14258L12.3438 8.66211L12.3438 14.2676L12.2461 16.7871L13.6328 15.2051L14.7461 14.0918C14.9023 13.9355 15.0977 13.8379 15.3516 13.8379C15.8105 13.8379 16.1523 14.1797 16.1523 14.6387C16.1523 14.873 16.0742 15.0781 15.918 15.2246L12.1484 18.9844C11.9238 19.1992 11.7383 19.2969 11.5039 19.2969C11.2598 19.2969 11.0645 19.1992 10.8594 18.9844L7.08984 15.2246C6.93359 15.0781 6.8457 14.873 6.8457 14.6387C6.8457 14.1797 7.20703 13.8379 7.65625 13.8379C7.91016 13.8379 8.10547 13.9258 8.26172 14.0918L9.36523 15.2051L10.7617 16.7969L10.6641 14.2676L10.6641 8.66211L10.7617 6.13281L9.36523 7.72461L8.26172 8.84766C8.10547 9.00391 7.91016 9.0918 7.65625 9.0918C7.20703 9.0918 6.8457 8.75 6.8457 8.30078C6.8457 8.05664 6.93359 7.85156 7.08984 7.71484L10.8594 3.95508C11.0645 3.74023 11.2598 3.63281 11.5039 3.63281Z" fill="var(--color-primary)"/>
 </g>
</svg>
