<svg version="1.1" xmlns="http://www.w3.org/2000/svg" xmlns:xlink="http://www.w3.org/1999/xlink" viewBox="0 0 23.3203 22.959">
 <g>
  <rect height="22.959" opacity="0" width="23.3203" x="0" y="0"/>
  <path d="M3.79883 22.959L19.1504 22.959C21.6797 22.959 22.959 21.6797 22.959 19.1992L22.959 3.76953C22.959 1.2793 21.6797 0 19.1504 0L3.79883 0C1.2793 0 0 1.26953 0 3.76953L0 19.1992C0 21.6992 1.2793 22.959 3.79883 22.959Z" fill="var(--color-tertiary)"/>
  <path d="M5.80078 11.2793C5.3418 11.2793 4.98047 10.918 4.98047 10.4688L4.98047 5.91797C4.98047 5.25391 5.33203 4.9707 5.92773 4.9707L10.459 4.9707C10.918 4.9707 11.2793 5.33203 11.2793 5.79102C11.2793 6.24023 10.918 6.60156 10.459 6.60156L9.6875 6.60156L7.61719 6.49414L10.7715 9.52148C11.1035 9.85352 11.1133 10.4199 10.7812 10.752C10.4395 11.0938 9.88281 11.1035 9.54102 10.7422L6.51367 7.56836L6.61133 9.73633L6.61133 10.4688C6.61133 10.918 6.25 11.2793 5.80078 11.2793ZM12.5098 17.9785C12.0508 17.9785 11.6895 17.6172 11.6895 17.168C11.6895 16.709 12.0508 16.3477 12.5098 16.3477L13.2812 16.3574L15.3516 16.4551L12.1973 13.4277C11.8652 13.1055 11.8555 12.5391 12.1875 12.1973C12.5293 11.8555 13.0859 11.8457 13.4277 12.207L16.4648 15.3809L16.3574 13.2227L16.3574 12.4902C16.3574 12.0312 16.7188 11.6699 17.168 11.6699C17.627 11.6699 17.9883 12.0312 17.9883 12.4902L17.9883 17.041C17.9883 17.7051 17.6367 17.9785 17.041 17.9785Z" fill="var(--color-primary)"/>
 </g>
</svg>
