<svg version="1.1" xmlns="http://www.w3.org/2000/svg" xmlns:xlink="http://www.w3.org/1999/xlink" viewBox="0 0 25.8008 25.459">
 <g>
  <rect height="25.459" opacity="0" width="25.8008" x="0" y="0"/>
  <path d="M12.7148 25.4395C19.7266 25.4395 25.4395 19.7266 25.4395 12.7246C25.4395 5.71289 19.7266 0 12.7148 0C5.71289 0 0 5.71289 0 12.7246C0 19.7266 5.71289 25.4395 12.7148 25.4395Z" fill="var(--color-tertiary)"/>
  <path d="M7.11914 18.291C6.66992 18.291 6.35742 17.9883 6.35742 17.5586L6.35742 7.88086C6.35742 7.44141 6.66992 7.13867 7.11914 7.13867C7.54883 7.13867 7.86133 7.44141 7.86133 7.88086L7.86133 17.5586C7.86133 17.9883 7.54883 18.291 7.11914 18.291ZM20.5176 12.7246C20.5176 13.1836 20.2051 13.4961 19.7656 13.4961L13.5449 13.4961L11.1621 13.3594L13.7402 15.7031L14.7559 16.6699C14.9219 16.8066 14.9902 16.9922 14.9902 17.2266C14.9902 17.666 14.6777 17.959 14.248 17.959C14.043 17.959 13.8086 17.8516 13.6523 17.6953L9.17969 13.291C9.00391 13.125 8.92578 12.9297 8.92578 12.7246C8.92578 12.5195 9.02344 12.3242 9.17969 12.1582L13.6816 7.71484C13.8379 7.53906 14.043 7.4707 14.2383 7.4707C14.6582 7.4707 14.9902 7.76367 14.9902 8.19336C14.9902 8.4082 14.9219 8.61328 14.7559 8.75977L13.7598 9.73633L11.1719 12.0898L13.5449 11.9824L19.7656 11.9824C20.2051 11.9824 20.5176 12.2949 20.5176 12.7246Z" fill="var(--color-primary)"/>
 </g>
</svg>
