<svg version="1.1" xmlns="http://www.w3.org/2000/svg" xmlns:xlink="http://www.w3.org/1999/xlink" viewBox="0 0 23.3203 22.959">
 <g>
  <rect height="22.959" opacity="0" width="23.3203" x="0" y="0"/>
  <path d="M3.79883 22.959L19.1504 22.959C21.6797 22.959 22.959 21.6797 22.959 19.1992L22.959 3.76953C22.959 1.2793 21.6797 0 19.1504 0L3.79883 0C1.2793 0 0 1.26953 0 3.76953L0 19.1992C0 21.6992 1.2793 22.959 3.79883 22.959Z" fill="var(--color-tertiary)"/>
  <path d="M4.04297 12.6855L4.08203 8.00781C4.08203 7.8125 4.16992 7.58789 4.30664 7.46094C4.59961 7.1582 5.0293 7.1582 5.32227 7.46094C5.46875 7.59766 5.55664 7.79297 5.54688 7.99805L5.52734 10.0684L5.49805 11.0059L5.98633 10.4688L12.207 4.25781C12.5098 3.96484 12.9492 3.97461 13.2422 4.26758C13.5352 4.56055 13.5352 5 13.2422 5.30273L7.03125 11.5137L6.48438 12.0117L7.44141 11.9922L9.51172 11.9629C9.72656 11.9629 9.90234 12.0312 10.0488 12.1875C10.3418 12.4805 10.3418 12.9102 10.0391 13.1934C9.90234 13.3301 9.7168 13.418 9.51172 13.4277L4.81445 13.457C4.4043 13.4668 4.04297 13.1055 4.04297 12.6855ZM18.9355 10.2832L18.8965 14.9707C18.8867 15.1855 18.8184 15.4004 18.6914 15.5273C18.3887 15.8203 17.959 15.8203 17.666 15.5273C17.5195 15.3711 17.4512 15.1953 17.4512 14.9805L17.4805 12.9004L17.5098 11.9629L17.002 12.5098L10.7812 18.7109C10.4883 19.0137 10.0488 19.0039 9.75586 18.7109C9.45312 18.4082 9.45312 17.9785 9.74609 17.6758L15.9668 11.4648L16.5137 10.9668L15.5566 10.9863L13.4668 11.0156C13.2715 11.0156 13.0957 10.9375 12.9395 10.8008C12.6465 10.498 12.6465 10.0879 12.9492 9.78516C13.0859 9.64844 13.3008 9.55078 13.4863 9.55078L18.1836 9.53125C18.5938 9.53125 18.9355 9.84375 18.9355 10.2832Z" fill="var(--color-primary)"/>
 </g>
</svg>
