<svg version="1.1" xmlns="http://www.w3.org/2000/svg" xmlns:xlink="http://www.w3.org/1999/xlink" viewBox="0 0 23.3203 22.959">
 <g>
  <rect height="22.959" opacity="0" width="23.3203" x="0" y="0"/>
  <path d="M3.79883 22.959L19.1504 22.959C21.6797 22.959 22.959 21.6797 22.959 19.1992L22.959 3.76953C22.959 1.2793 21.6797 0 19.1504 0L3.79883 0C1.2793 0 0 1.26953 0 3.76953L0 19.1992C0 21.6992 1.2793 22.959 3.79883 22.959Z" fill="var(--color-tertiary)"/>
  <path d="M15.625 14.6191C15.127 14.6191 14.7949 14.2871 14.7949 13.75L14.7949 11.1621L14.9414 9.07227L13.2227 10.9082L7.98828 16.1523C7.82227 16.3184 7.61719 16.416 7.33398 16.416C6.8457 16.416 6.52344 16.084 6.52344 15.5762C6.52344 15.3516 6.63086 15.1367 6.79688 14.9707L12.0508 9.72656L13.8965 7.98828L12.0117 8.1543L9.19922 8.1543C8.66211 8.1543 8.32031 7.82227 8.32031 7.33398C8.32031 6.8457 8.65234 6.52344 9.17969 6.52344L15.5176 6.52344C16.0742 6.52344 16.4355 6.78711 16.4355 7.43164L16.4355 13.7305C16.4355 14.2578 16.1035 14.6191 15.625 14.6191Z" fill="var(--color-primary)"/>
 </g>
</svg>
