<svg version="1.1" xmlns="http://www.w3.org/2000/svg" xmlns:xlink="http://www.w3.org/1999/xlink" viewBox="0 0 25.8008 25.459">
 <g>
  <rect height="25.459" opacity="0" width="25.8008" x="0" y="0"/>
  <path d="M12.7148 25.4395C19.7266 25.4395 25.4395 19.7266 25.4395 12.7246C25.4395 5.71289 19.7266 0 12.7148 0C5.71289 0 0 5.71289 0 12.7246C0 19.7266 5.71289 25.4395 12.7148 25.4395Z" fill="var(--color-tertiary)"/>
  <path d="M7.2168 16.6406L7.2168 13.0371C7.2168 10.6055 8.34961 9.47266 10.7617 9.47266L14.502 9.47266L14.502 7.74414C14.502 6.96289 15.3027 6.65039 15.8984 7.12891L18.877 9.45312C19.5801 10.0195 19.5801 10.7129 18.877 11.2695L15.8984 13.6133C15.3027 14.0723 14.502 13.7695 14.502 12.9883L14.502 11.25L10.791 11.2598C9.56055 11.2598 8.99414 11.8262 8.99414 13.1152L8.99414 16.6406C8.99414 17.2656 8.66211 17.627 8.10547 17.6367C7.53906 17.6465 7.2168 17.2656 7.2168 16.6406Z" fill="var(--color-primary)"/>
 </g>
</svg>
