<svg version="1.1" xmlns="http://www.w3.org/2000/svg" xmlns:xlink="http://www.w3.org/1999/xlink" viewBox="0 0 25.8008 25.459">
 <g>
  <rect height="25.459" opacity="0" width="25.8008" x="0" y="0"/>
  <path d="M12.7148 25.4395C19.7266 25.4395 25.4395 19.7266 25.4395 12.7246C25.4395 5.71289 19.7266 0 12.7148 0C5.71289 0 0 5.71289 0 12.7246C0 19.7266 5.71289 25.4395 12.7148 25.4395Z" fill="var(--color-tertiary)"/>
  <path d="M18.4082 12.5293C17.9492 12.5293 17.5879 12.168 17.5879 11.7188L17.5879 10.9863L17.6953 8.81836L14.6582 11.9922C14.3164 12.3535 13.7598 12.3438 13.4277 12.002C13.0859 11.6699 13.0957 11.1035 13.4375 10.7715L16.582 7.74414L14.5215 7.85156L13.7402 7.85156C13.2812 7.85156 12.9199 7.49023 12.9199 7.04102C12.9199 6.58203 13.2812 6.2207 13.7402 6.2207L18.2715 6.2207C18.8672 6.2207 19.2188 6.50391 19.2188 7.16797L19.2188 11.7188C19.2188 12.168 18.8574 12.5293 18.4082 12.5293ZM11.6992 19.2285L7.1582 19.2285C6.5625 19.2285 6.21094 18.9551 6.21094 18.291L6.21094 13.7402C6.21094 13.2812 6.57227 12.9199 7.03125 12.9199C7.48047 12.9199 7.8418 13.2812 7.8418 13.7402L7.8418 14.4727L7.74414 16.6309L10.7812 13.457C11.123 13.0957 11.6699 13.1055 12.0117 13.4473C12.3438 13.7891 12.334 14.3555 12.002 14.6777L8.84766 17.7051L10.918 17.6074L11.6992 17.5977C12.1484 17.5977 12.5098 17.959 12.5098 18.418C12.5098 18.8672 12.1484 19.2285 11.6992 19.2285Z" fill="var(--color-primary)"/>
 </g>
</svg>
