<svg version="1.1" xmlns="http://www.w3.org/2000/svg" xmlns:xlink="http://www.w3.org/1999/xlink" viewBox="0 0 23.3203 22.959">
 <g>
  <rect height="22.959" opacity="0" width="23.3203" x="0" y="0"/>
  <path d="M3.79883 22.959L19.1504 22.959C21.6797 22.959 22.959 21.6797 22.959 19.1992L22.959 3.76953C22.959 1.2793 21.6797 0 19.1504 0L3.79883 0C1.2793 0 0 1.26953 0 3.76953L0 19.1992C0 21.6992 1.2793 22.959 3.79883 22.959Z" fill="var(--color-tertiary)"/>
  <path d="M5.05859 11.4648C5.05859 11.2305 5.12695 11.0449 5.35156 10.8203L9.52148 6.54297C9.67773 6.36719 9.86328 6.2793 10.0977 6.2793C10.5469 6.2793 10.8789 6.63086 10.8789 7.08008C10.8789 7.30469 10.791 7.53906 10.6152 7.68555L8.38867 9.81445L7.51953 10.6445L9.42383 10.5762L17.1191 10.5762C17.5977 10.5762 17.9883 10.9766 17.9883 11.4648C17.9883 11.9434 17.5977 12.3438 17.1191 12.3438L9.42383 12.3438L7.51953 12.2852L8.38867 13.1152L10.6152 15.2441C10.791 15.3906 10.8789 15.6348 10.8789 15.8594C10.8789 16.3184 10.5469 16.6504 10.0977 16.6504C9.86328 16.6504 9.67773 16.5625 9.52148 16.3867L5.35156 12.0996C5.12695 11.875 5.05859 11.6895 5.05859 11.4648Z" fill="var(--color-primary)"/>
 </g>
</svg>
