<svg version="1.1" xmlns="http://www.w3.org/2000/svg" xmlns:xlink="http://www.w3.org/1999/xlink" viewBox="0 0 23.3203 22.959">
 <g>
  <rect height="22.959" opacity="0" width="23.3203" x="0" y="0"/>
  <path d="M3.79883 22.959L19.1504 22.959C21.6797 22.959 22.959 21.6797 22.959 19.1992L22.959 3.76953C22.959 1.2793 21.6797 0 19.1504 0L3.79883 0C1.2793 0 0 1.26953 0 3.76953L0 19.1992C0 21.6992 1.2793 22.959 3.79883 22.959Z" fill="var(--color-tertiary)"/>
  <path d="M7.33398 14.6191C6.8457 14.6191 6.52344 14.2578 6.52344 13.7305L6.52344 7.43164C6.52344 6.78711 6.875 6.52344 7.44141 6.52344L13.7695 6.52344C14.2969 6.52344 14.6289 6.8457 14.6289 7.33398C14.6289 7.82227 14.2871 8.1543 13.75 8.1543L10.9473 8.1543L9.0625 7.98828L10.9082 9.72656L16.1621 14.9707C16.3281 15.1367 16.4355 15.3516 16.4355 15.5762C16.4355 16.084 16.1035 16.416 15.6152 16.416C15.3418 16.416 15.127 16.3184 14.9707 16.1523L9.72656 10.9082L8.00781 9.07227L8.1543 11.1621L8.1543 13.75C8.1543 14.2871 7.83203 14.6191 7.33398 14.6191Z" fill="var(--color-primary)"/>
 </g>
</svg>
