<svg version="1.1" xmlns="http://www.w3.org/2000/svg" xmlns:xlink="http://www.w3.org/1999/xlink" viewBox="0 0 27.9395 26.5527">
 <g>
  <rect height="26.5527" opacity="0" width="27.9395" x="0" y="0"/>
  <path d="M1.5332 25.3223L26.0449 25.3223L26.0449 23.9258C26.0449 23.5059 25.791 23.252 25.3613 23.252L24.5605 23.252L24.5605 8.33984L25.6934 8.33984C26.2891 8.33984 26.6211 7.91992 26.6211 7.48047C26.6211 7.1582 26.4453 6.875 26.0547 6.65039L15.2637 0.419922C14.7852 0.146484 14.2773 0 13.7891 0C13.3008 0 12.7832 0.146484 12.3145 0.419922L1.52344 6.65039C1.12305 6.875 0.957031 7.1582 0.957031 7.48047C0.957031 7.91992 1.28906 8.33984 1.88477 8.33984L3.02734 8.33984L3.02734 23.252L2.22656 23.252C1.78711 23.252 1.5332 23.5059 1.5332 23.9258ZM0.869141 26.5332L26.709 26.5332C27.1875 26.5332 27.5781 26.1426 27.5781 25.6738C27.5781 25.1953 27.1875 24.8047 26.709 24.8047L0.869141 24.8047C0.390625 24.8047 0 25.1953 0 25.6738C0 26.1426 0.390625 26.5332 0.869141 26.5332Z" fill="var(--color-tertiary)"/>
  <path d="M11.1133 19.9414C10.6055 19.9414 10.2637 19.5996 10.2637 19.0918L10.2637 9.60938C10.2637 9.10156 10.6055 8.75977 11.1133 8.75977L11.9043 8.75977L11.9043 7.50977C11.9043 7.26562 12.0703 7.10938 12.3047 7.10938C12.5293 7.10938 12.6953 7.26562 12.6953 7.50977L12.6953 8.75977L13.9355 8.75977L13.9355 7.50977C13.9355 7.26562 14.1113 7.10938 14.3262 7.10938C14.5605 7.10938 14.7363 7.26562 14.7363 7.50977L14.7363 8.7793C16.3672 8.93555 17.5977 9.90234 17.5977 11.5234C17.5977 12.6855 16.7676 13.7988 15.5078 13.9941L15.5078 14.082C17.0898 14.2578 18.1738 15.3125 18.1738 16.8359C18.1738 18.7793 16.7383 19.8047 14.7363 19.9316L14.7363 21.2402C14.7363 21.4746 14.5605 21.6309 14.3262 21.6309C14.1113 21.6309 13.9355 21.4746 13.9355 21.2402L13.9355 19.9414L12.6953 19.9414L12.6953 21.2402C12.6953 21.4746 12.5293 21.6309 12.3047 21.6309C12.0703 21.6309 11.9043 21.4746 11.9043 21.2402L11.9043 19.9414ZM11.6113 18.8086L14.0723 18.8086C15.5664 18.8086 16.8066 18.2617 16.8066 16.7676C16.8066 15.2441 15.4785 14.7266 13.9258 14.7266L11.6113 14.7266ZM11.6113 13.623L13.6133 13.623C15.0488 13.623 16.2402 13.1055 16.2402 11.6895C16.2402 10.4102 15.2148 9.87305 13.9453 9.87305L11.6113 9.87305Z" fill="var(--color-primary)"/>
 </g>
</svg>
