<svg version="1.1" xmlns="http://www.w3.org/2000/svg" xmlns:xlink="http://www.w3.org/1999/xlink" viewBox="0 0 29.8535 23.1543">
 <g>
  <rect height="23.1543" opacity="0" width="29.8535" x="0" y="0"/>
  <path d="M14.7461 19.7461C18.9258 19.7461 24.541 19.5312 26.9238 19.2578C28.5645 19.0723 29.4922 18.1934 29.4922 16.6113L29.4922 14.3945C29.4922 12.2363 29.0332 11.084 27.9199 9.63867L26.8457 8.24219C26.3867 5.97656 25.5469 3.58398 25.1074 2.65625C24.4434 1.24023 23.1445 0.449219 21.543 0.234375C20.6934 0.117188 17.9004 0.0488281 14.7461 0.0488281C11.5918 0.0488281 8.79883 0.126953 7.94922 0.234375C6.34766 0.429688 5.04883 1.24023 4.38477 2.65625C3.94531 3.58398 3.11523 5.97656 2.64648 8.24219L1.57227 9.63867C0.458984 11.084 0 12.2363 0 14.3945L0 16.6113C0 18.1934 0.927734 19.0723 2.56836 19.2578C4.95117 19.5312 10.5664 19.7461 14.7461 19.7461ZM1.64062 23.1543L3.10547 23.1543C4.0332 23.1543 4.74609 22.4414 4.74609 21.5234L4.74609 18.4375L0 16.1621L0 21.5234C0 22.4414 0.712891 23.1543 1.64062 23.1543ZM26.3867 23.1543L27.8516 23.1543C28.7793 23.1543 29.4922 22.4414 29.4922 21.5234L29.4922 16.1621L24.7461 18.4375L24.7461 21.5234C24.7461 22.4414 25.459 23.1543 26.3867 23.1543Z" fill="var(--color-tertiary)"/>
  <path d="M10.6738 10.6836C10.6738 10.5664 10.7227 10.4492 10.8301 10.332L16.084 3.7207C16.4453 3.26172 17.0508 3.57422 16.8359 4.14062L15.0879 8.81836L18.3496 8.81836C18.5645 8.81836 18.75 8.98438 18.75 9.18945C18.75 9.31641 18.6914 9.43359 18.584 9.55078L13.3398 16.1523C12.9785 16.6113 12.3633 16.2988 12.5879 15.7422L14.3359 11.0449L11.0742 11.0449C10.8594 11.0449 10.6738 10.8887 10.6738 10.6836Z" fill="var(--color-primary)"/>
 </g>
</svg>
