<svg version="1.1" xmlns="http://www.w3.org/2000/svg" xmlns:xlink="http://www.w3.org/1999/xlink" viewBox="0 0 25.8008 25.459">
 <g>
  <rect height="25.459" opacity="0" width="25.8008" x="0" y="0"/>
  <path d="M12.7148 25.459C19.7266 25.459 25.4395 19.7461 25.4395 12.7344C25.4395 5.73242 19.7266 0.0195312 12.7148 0.0195312C5.71289 0.0195312 0 5.73242 0 12.7344C0 19.7461 5.71289 25.459 12.7148 25.459Z" fill="var(--color-tertiary)"/>
  <path d="M9.35547 20.166C9.04297 20.166 8.85742 19.9414 8.85742 19.5898L8.85742 17.7246L8.4668 17.7246C6.67969 17.7246 5.6543 16.6895 5.6543 14.8926L5.6543 9.77539C5.6543 8.00781 6.67969 6.97266 8.4668 6.97266L16.9629 6.97266C18.7598 6.97266 19.7754 8.00781 19.7754 9.77539L19.7754 14.8926C19.7754 16.6797 18.7598 17.7246 16.9629 17.7246L12.334 17.7246L9.99023 19.8242C9.73633 20.0684 9.58008 20.166 9.35547 20.166Z" fill="var(--color-primary)"/>
 </g>
</svg>
