<svg version="1.1" xmlns="http://www.w3.org/2000/svg" xmlns:xlink="http://www.w3.org/1999/xlink" viewBox="0 0 25.8008 25.459">
 <g>
  <rect height="25.459" opacity="0" width="25.8008" x="0" y="0"/>
  <path d="M12.7148 25.459C19.7266 25.459 25.4395 19.7461 25.4395 12.7344C25.4395 5.73242 19.7266 0.0195312 12.7148 0.0195312C5.71289 0.0195312 0 5.73242 0 12.7344C0 19.7461 5.71289 25.459 12.7148 25.459Z" fill="var(--color-tertiary)"/>
  <path d="M12.7148 23.6328C9.54102 23.6328 6.71875 22.3047 4.73633 20.166L4.73633 8.51562C4.73633 7.59766 5.24414 7.05078 6.11328 7.05078L14.5215 7.05078C15.4102 7.05078 15.8984 7.59766 15.8984 8.51562L15.8984 23.1641C14.8926 23.4766 13.8281 23.6328 12.7148 23.6328ZM7.71484 21.0156L9.12109 21.0156C9.27734 21.0156 9.39453 20.8984 9.39453 20.7324L9.39453 19.375C9.39453 19.209 9.27734 19.0918 9.12109 19.0918L7.71484 19.0918C7.55859 19.0918 7.45117 19.209 7.45117 19.375L7.45117 20.7324C7.45117 20.8984 7.55859 21.0156 7.71484 21.0156ZM11.4648 21.0156L12.8711 21.0156C13.0273 21.0156 13.1348 20.8984 13.1348 20.7324L13.1348 19.375C13.1348 19.209 13.0273 19.0918 12.8711 19.0918L11.4648 19.0918C11.3086 19.0918 11.2012 19.209 11.2012 19.375L11.2012 20.7324C11.2012 20.8984 11.3086 21.0156 11.4648 21.0156ZM7.71484 17.7441L9.12109 17.7441C9.27734 17.7441 9.39453 17.6172 9.39453 17.4707L9.39453 16.1035C9.39453 15.9473 9.27734 15.8203 9.12109 15.8203L7.71484 15.8203C7.55859 15.8203 7.45117 15.9473 7.45117 16.1035L7.45117 17.4707C7.45117 17.6172 7.55859 17.7441 7.71484 17.7441ZM11.4648 17.7441L12.8711 17.7441C13.0273 17.7441 13.1348 17.6172 13.1348 17.4707L13.1348 16.1035C13.1348 15.9473 13.0273 15.8203 12.8711 15.8203L11.4648 15.8203C11.3086 15.8203 11.2012 15.9473 11.2012 16.1035L11.2012 17.4707C11.2012 17.6172 11.3086 17.7441 11.4648 17.7441ZM7.71484 14.4727L9.12109 14.4727C9.27734 14.4727 9.39453 14.3457 9.39453 14.1992L9.39453 12.8223C9.39453 12.6758 9.27734 12.5488 9.12109 12.5488L7.71484 12.5488C7.55859 12.5488 7.45117 12.6758 7.45117 12.8223L7.45117 14.1992C7.45117 14.3457 7.55859 14.4727 7.71484 14.4727ZM11.4648 14.4727L12.8711 14.4727C13.0273 14.4727 13.1348 14.3457 13.1348 14.1992L13.1348 12.8223C13.1348 12.6758 13.0273 12.5488 12.8711 12.5488L11.4648 12.5488C11.3086 12.5488 11.2012 12.6758 11.2012 12.8223L11.2012 14.1992C11.2012 14.3457 11.3086 14.4727 11.4648 14.4727ZM7.71484 11.2207L9.12109 11.2207C9.27734 11.2207 9.39453 11.1035 9.39453 10.9473L9.39453 9.58008C9.39453 9.41406 9.27734 9.30664 9.12109 9.30664L7.71484 9.30664C7.55859 9.30664 7.45117 9.41406 7.45117 9.58008L7.45117 10.9473C7.45117 11.1035 7.55859 11.2207 7.71484 11.2207ZM11.4648 11.2207L12.8711 11.2207C13.0273 11.2207 13.1348 11.1035 13.1348 10.9473L13.1348 9.58008C13.1348 9.41406 13.0273 9.30664 12.8711 9.30664L11.4648 9.30664C11.3086 9.30664 11.2012 9.41406 11.2012 9.58008L11.2012 10.9473C11.2012 11.1035 11.3086 11.2207 11.4648 11.2207ZM16.8164 22.8418L16.8164 10.293L20.4297 10.293C21.3086 10.293 21.8066 10.8398 21.8066 11.7578L21.8066 18.7109C20.625 20.5566 18.877 22.0117 16.8164 22.8418ZM18.6914 19.9609L19.9121 19.9609C20.0391 19.9609 20.127 19.8633 20.127 19.7363L20.127 18.5547C20.127 18.4277 20.0391 18.3203 19.9121 18.3203L18.6914 18.3203C18.5645 18.3203 18.457 18.4277 18.457 18.5547L18.457 19.7363C18.457 19.8633 18.5645 19.9609 18.6914 19.9609ZM18.6914 17.0117L19.9121 17.0117C20.0391 17.0117 20.127 16.9141 20.127 16.7773L20.127 15.5957C20.127 15.4688 20.0391 15.3809 19.9121 15.3809L18.6914 15.3809C18.5645 15.3809 18.457 15.4688 18.457 15.5957L18.457 16.7773C18.457 16.9141 18.5645 17.0117 18.6914 17.0117ZM18.6914 14.0625L19.9121 14.0625C20.0391 14.0625 20.127 13.9648 20.127 13.8379L20.127 12.6465C20.127 12.5293 20.0391 12.4219 19.9121 12.4219L18.6914 12.4219C18.5645 12.4219 18.457 12.5293 18.457 12.6465L18.457 13.8379C18.457 13.9648 18.5645 14.0625 18.6914 14.0625Z" fill="var(--color-primary)"/>
 </g>
</svg>
