<svg version="1.1" xmlns="http://www.w3.org/2000/svg" xmlns:xlink="http://www.w3.org/1999/xlink" viewBox="0 0 23.3203 22.959">
 <g>
  <rect height="22.959" opacity="0" width="23.3203" x="0" y="0"/>
  <path d="M3.79883 22.959L19.1504 22.959C21.6797 22.959 22.959 21.6797 22.959 19.1992L22.959 3.76953C22.959 1.2793 21.6797 0 19.1504 0L3.79883 0C1.2793 0 0 1.26953 0 3.76953L0 19.1992C0 21.6992 1.2793 22.959 3.79883 22.959Z" fill="var(--color-tertiary)"/>
  <path d="M11.4746 18.7402C7.48047 18.7402 4.23828 15.4883 4.23828 11.4941C4.23828 7.49023 7.48047 4.24805 11.4746 4.24805C15.4785 4.24805 18.7207 7.49023 18.7207 11.4941C18.7207 15.4883 15.4785 18.7402 11.4746 18.7402ZM11.4746 17.168C14.6094 17.168 17.1484 14.6289 17.1484 11.4941C17.1484 8.35938 14.6094 5.82031 11.4746 5.82031C8.34961 5.82031 5.81055 8.35938 5.81055 11.4941C5.81055 14.6289 8.34961 17.168 11.4746 17.168ZM11.4746 15.8984C9.05273 15.8984 7.08008 13.916 7.08008 11.4941C7.08008 9.0625 9.05273 7.08984 11.4746 7.08984C13.9062 7.08984 15.8789 9.0625 15.8789 11.4941C15.8789 13.916 13.9062 15.8984 11.4746 15.8984Z" fill="var(--color-primary)"/>
 </g>
</svg>
