<svg version="1.1" xmlns="http://www.w3.org/2000/svg" xmlns:xlink="http://www.w3.org/1999/xlink" viewBox="0 0 27.8711 27.3926">
 <g>
  <rect height="27.3926" opacity="0" width="27.8711" x="0" y="0"/>
  <path d="M7.2168 27.3926C7.64648 27.3926 7.96875 27.168 8.4668 26.709L13.0273 22.5977L22.002 22.5977C25.5371 22.5977 27.5098 20.5859 27.5098 17.1094L27.5098 7.14844C27.5098 3.66211 25.5371 1.64062 22.002 1.64062L5.50781 1.64062C1.96289 1.64062 0 3.65234 0 7.14844L0 17.1094C0 20.6055 1.96289 22.5977 5.50781 22.5977L6.23047 22.5977L6.23047 26.2598C6.23047 26.9434 6.5918 27.3926 7.2168 27.3926Z" fill="var(--color-tertiary)"/>
  <path d="M5.3418 13.5449C4.9707 13.5449 4.67773 13.252 4.67773 12.8809C4.67773 12.5293 4.9707 12.2266 5.3418 12.2266L10.8398 12.2266C11.2012 12.2266 11.4941 12.5293 11.4941 12.8809C11.4941 13.252 11.2012 13.5449 10.8398 13.5449ZM13.5938 13.5449C13.2324 13.5449 12.9395 13.252 12.9395 12.8809C12.9395 12.5293 13.2324 12.2266 13.5938 12.2266L22.1875 12.2266C22.5488 12.2266 22.8418 12.5293 22.8418 12.8809C22.8418 13.252 22.5488 13.5449 22.1875 13.5449ZM5.3418 16.8066C4.9707 16.8066 4.67773 16.5137 4.67773 16.1523C4.67773 15.7715 4.9707 15.4785 5.3418 15.4785L7.56836 15.4785C7.92969 15.4785 8.22266 15.7715 8.22266 16.1523C8.22266 16.5137 7.92969 16.8066 7.56836 16.8066ZM10.3223 16.8066C9.96094 16.8066 9.66797 16.5137 9.66797 16.1523C9.66797 15.7715 9.96094 15.4785 10.3223 15.4785L16.9336 15.4785C17.2949 15.4785 17.5879 15.7715 17.5879 16.1523C17.5879 16.5137 17.2949 16.8066 16.9336 16.8066ZM19.6875 16.8066C19.3262 16.8066 19.0332 16.5137 19.0332 16.1523C19.0332 15.7715 19.3262 15.4785 19.6875 15.4785L22.1875 15.4785C22.5488 15.4785 22.8418 15.7715 22.8418 16.1523C22.8418 16.5137 22.5488 16.8066 22.1875 16.8066Z" fill="var(--color-primary)"/>
 </g>
</svg>
