<svg version="1.1" xmlns="http://www.w3.org/2000/svg" xmlns:xlink="http://www.w3.org/1999/xlink" viewBox="0 0 28.0948 26.2988">
 <g>
  <rect height="26.2988" opacity="0" width="28.0948" x="0" y="0"/>
  <path d="M27.5484 4.23828L22.8218 23.457C22.3726 25.2832 21.1519 26.2891 19.355 26.2891L4.95074 26.2891C2.45074 26.2891 1.24957 25.0684 0.194886 21.0742C-0.550247 18.2819 0.833558 16.7135 4.49033 16.1454C4.16756 16.683 3.87653 17.2765 3.87653 18.0078C3.87653 18.8672 4.12067 19.5312 4.69684 20.2637C5.23395 20.9375 6.22028 20.2246 5.69293 19.5215C5.28278 18.9648 5.10699 18.6035 5.10699 17.9395C5.10699 17.2575 5.6097 16.6648 6.02934 15.9682C6.73414 15.9145 7.50476 15.8887 8.33942 15.8887C8.42968 15.8887 8.52001 15.8889 8.61069 15.8919C8.23272 16.497 7.84137 17.1598 7.84137 18.0078C7.84137 18.8672 8.08551 19.5312 8.67145 20.2637C9.19879 20.9375 10.1949 20.2246 9.65778 19.5215C9.24762 18.9648 9.07184 18.6035 9.07184 17.9395C9.07184 17.2416 9.59823 16.6372 10.0233 15.9192C10.8502 15.9426 11.6726 15.9883 12.4751 16.0551C12.1311 16.6163 11.8062 17.2352 11.8062 18.0078C11.8062 18.8672 12.0504 19.5312 12.6363 20.2637C13.1636 20.9375 14.1597 20.2246 13.6226 19.5215C13.2125 18.9648 13.0367 18.6035 13.0367 17.9395C13.0367 17.3278 13.441 16.788 13.8274 16.1805C14.9912 16.3012 16.0976 16.4627 17.1009 16.6606C16.6629 11.6237 18.2161 7.35527 21.3884 5.3462C20.7597 1.95971 22.9873 0 25.0679 0C26.7867 0 28.2711 1.31836 27.5484 4.23828Z" fill="var(--color-primary)"/>
  <path d="M6.59137 14.2383C6.59137 15.8594 5.10699 16.7676 5.10699 17.9395C5.10699 18.6035 5.28278 18.9648 5.69293 19.5215C6.22028 20.2246 5.23395 20.9375 4.69684 20.2637C4.12067 19.5312 3.87653 18.8672 3.87653 18.0078C3.87653 16.3672 5.34137 15.4199 5.34137 14.2383C5.34137 13.0371 3.87653 12.1094 3.87653 10.4395C3.87653 9.60938 4.12067 8.94531 4.71637 8.19336C5.25348 7.50977 6.23981 8.22266 5.71246 8.92578C5.28278 9.51172 5.10699 9.88281 5.10699 10.5176C5.10699 11.709 6.59137 12.6465 6.59137 14.2383ZM10.5562 14.2383C10.5562 15.8594 9.07184 16.7676 9.07184 17.9395C9.07184 18.6035 9.24762 18.9648 9.65778 19.5215C10.1949 20.2246 9.19879 20.9375 8.67145 20.2637C8.08551 19.5312 7.84137 18.8672 7.84137 18.0078C7.84137 16.3672 9.30621 15.4199 9.30621 14.2383C9.30621 13.0371 7.84137 12.1094 7.84137 10.4395C7.84137 9.60938 8.08551 8.94531 8.68121 8.19336C9.21832 7.50977 10.2047 8.22266 9.67731 8.92578C9.24762 9.51172 9.07184 9.88281 9.07184 10.5176C9.07184 11.709 10.5562 12.6465 10.5562 14.2383ZM14.5211 14.2383C14.5211 15.8594 13.0367 16.7676 13.0367 17.9395C13.0367 18.6035 13.2125 18.9648 13.6226 19.5215C14.1597 20.2246 13.1636 20.9375 12.6363 20.2637C12.0504 19.5312 11.8062 18.8672 11.8062 18.0078C11.8062 16.3672 13.2711 15.4199 13.2711 14.2383C13.2711 13.0371 11.8062 12.1094 11.8062 10.4395C11.8062 9.60938 12.0504 8.94531 12.6461 8.19336C13.1929 7.50977 14.1793 8.22266 13.6422 8.92578C13.2125 9.51172 13.0367 9.88281 13.0367 10.5176C13.0367 11.709 14.5211 12.6465 14.5211 14.2383Z" fill="var(--color-secondary)"/>
 </g>
</svg>
