<svg version="1.1" xmlns="http://www.w3.org/2000/svg" xmlns:xlink="http://www.w3.org/1999/xlink" viewBox="0 0 28.6523 25.8887">
 <g>
  <rect height="25.8887" opacity="0" width="28.6523" x="0" y="0"/>
  <path d="M5.00977 25.8789C6.46484 25.8789 9.94141 24.375 12.1289 22.9102C12.3438 22.7539 12.5195 22.7051 12.6953 22.7051C12.9688 22.7344 13.2324 22.7539 13.5059 22.7539C22.2656 22.7539 28.291 17.627 28.291 11.377C28.291 5.08789 22.0117 0 14.1504 0C6.2793 0 0 5.08789 0 11.377C0 15.3906 2.4707 18.9355 6.43555 21.0254C6.64062 21.1328 6.69922 21.3184 6.5918 21.5234C5.94727 22.6074 4.81445 23.8965 4.32617 24.5117C3.83789 25.1367 4.07227 25.8789 5.00977 25.8789Z" fill="var(--color-tertiary)"/>
  <path d="M12.7539 17.5977C12.3828 17.5977 12.0898 17.4512 11.8066 17.0801L8.47656 13.0566C8.32031 12.8418 8.22266 12.5977 8.22266 12.3535C8.22266 11.8652 8.59375 11.4648 9.08203 11.4648C9.39453 11.4648 9.63867 11.5723 9.89258 11.9238L12.7051 15.4297L18.3496 6.45508C18.5547 6.13281 18.8281 5.95703 19.1211 5.95703C19.5898 5.95703 20.0293 6.28906 20.0293 6.78711C20.0293 7.02148 19.8926 7.27539 19.7656 7.49023L13.6426 17.0801C13.418 17.4219 13.1152 17.5977 12.7539 17.5977Z" fill="var(--color-primary)"/>
 </g>
</svg>
