<svg version="1.1" xmlns="http://www.w3.org/2000/svg" xmlns:xlink="http://www.w3.org/1999/xlink" viewBox="0 0 25.8008 25.459">
 <g>
  <rect height="25.459" opacity="0" width="25.8008" x="0" y="0"/>
  <path d="M12.7148 25.459C19.7266 25.459 25.4395 19.7461 25.4395 12.7344C25.4395 5.73242 19.7266 0.0195312 12.7148 0.0195312C5.71289 0.0195312 0 5.73242 0 12.7344C0 19.7461 5.71289 25.459 12.7148 25.459Z" fill="var(--color-tertiary)"/>
  <path d="M8.51562 14.4531C6.67969 14.4531 5.625 13.2617 5.625 11.8262C5.625 10.5176 6.50391 9.55078 7.63672 9.22852C7.85156 6.9043 9.76562 5.05859 12.0898 5.05859C13.9258 5.05859 15.3418 6.07422 16.123 7.62695C18.2129 7.62695 19.834 9.05273 19.834 11.0156C19.834 12.9199 18.291 14.4531 16.2891 14.4531ZM8.84766 18.2031C8.70117 18.457 8.37891 18.5449 8.13477 18.4082C7.86133 18.252 7.77344 17.9199 7.91992 17.666L8.89648 15.9863C9.05273 15.7324 9.375 15.6445 9.62891 15.7812C9.89258 15.9375 9.98047 16.2695 9.82422 16.5137ZM11.0254 20.1367C10.8789 20.3906 10.5566 20.4883 10.3027 20.332C10.0391 20.1855 9.95117 19.8535 10.1074 19.5996L11.084 17.9102C11.2305 17.666 11.5527 17.5684 11.8066 17.7148C12.0703 17.8613 12.1582 18.1934 12.002 18.457ZM14.3555 18.1934C14.209 18.4473 13.8867 18.5352 13.6328 18.3984C13.3594 18.2422 13.2812 17.9102 13.4375 17.6562L14.4141 15.9766C14.5605 15.7227 14.8828 15.6348 15.1367 15.7715C15.4004 15.9277 15.4883 16.2598 15.332 16.5039ZM16.5332 20.1367C16.3965 20.3906 16.0645 20.4883 15.8105 20.332C15.5566 20.1855 15.4688 19.8535 15.6152 19.5996L16.5918 17.9102C16.7285 17.666 17.0605 17.5684 17.3145 17.7148C17.5781 17.8613 17.6562 18.1934 17.5195 18.457Z" fill="var(--color-primary)"/>
 </g>
</svg>
