<svg version="1.1" xmlns="http://www.w3.org/2000/svg" xmlns:xlink="http://www.w3.org/1999/xlink" viewBox="0 0 25.8008 25.459">
 <g>
  <rect height="25.459" opacity="0" width="25.8008" x="0" y="0"/>
  <path d="M12.7148 25.459C19.7266 25.459 25.4395 19.7461 25.4395 12.7344C25.4395 5.73242 19.7266 0.0195312 12.7148 0.0195312C5.71289 0.0195312 0 5.73242 0 12.7344C0 19.7461 5.71289 25.459 12.7148 25.459Z" fill="var(--color-tertiary)"/>
  <path d="M8.58398 13.9941C6.74805 13.9941 5.69336 12.8223 5.69336 11.377C5.69336 10.0684 6.57227 9.10156 7.70508 8.7793C7.91992 6.44531 9.83398 4.59961 12.1582 4.59961C13.9941 4.59961 15.4102 5.61523 16.1914 7.17773C18.291 7.17773 19.9023 8.60352 19.9023 10.5664C19.9023 12.4707 18.3691 13.9941 16.3574 13.9941ZM10.332 19.5996C10.1855 19.8633 9.86328 19.9609 9.60938 19.8047C9.3457 19.6582 9.25781 19.3262 9.41406 19.0723L11.4648 15.5273C11.6309 15.2539 11.9434 15.1758 12.1875 15.3125C12.4512 15.4688 12.5586 15.791 12.3926 16.0645ZM16.0742 19.5996C15.9277 19.8633 15.6152 19.9609 15.3613 19.8047C15.0879 19.6582 15 19.3262 15.1465 19.0723L17.2168 15.5273C17.3633 15.2539 17.6758 15.1758 17.9297 15.3125C18.2031 15.4688 18.3008 15.791 18.1445 16.0645ZM13.2031 19.5996C13.0469 19.8633 12.7246 19.9609 12.4805 19.8047C12.2168 19.6582 12.1289 19.3262 12.2754 19.0723L14.3359 15.5273C14.4922 15.2539 14.8047 15.1758 15.0586 15.3125C15.332 15.4688 15.4199 15.791 15.2539 16.0645ZM7.46094 19.5996C7.31445 19.8633 6.99219 19.9609 6.73828 19.8047C6.46484 19.6582 6.38672 19.3262 6.5332 19.0723L8.59375 15.5273C8.75 15.2539 9.0625 15.1758 9.31641 15.3125C9.58008 15.4688 9.67773 15.791 9.52148 16.0645Z" fill="var(--color-primary)"/>
 </g>
</svg>
