<svg version="1.1" xmlns="http://www.w3.org/2000/svg" xmlns:xlink="http://www.w3.org/1999/xlink" viewBox="0 0 23.3203 22.959">
 <g>
  <rect height="22.959" opacity="0" width="23.3203" x="0" y="0"/>
  <path d="M3.79883 22.959L19.1504 22.959C21.6797 22.959 22.959 21.6797 22.959 19.1992L22.959 3.76953C22.959 1.2793 21.6797 0 19.1504 0L3.79883 0C1.2793 0 0 1.26953 0 3.76953L0 19.1992C0 21.6992 1.2793 22.959 3.79883 22.959Z" fill="var(--color-tertiary)"/>
  <path d="M11.0254 18.8281C10.791 18.8281 10.6152 18.6719 10.6152 18.4473C10.6152 18.3887 10.625 18.3105 10.6543 18.2324L10.957 17.041C10.4004 16.9824 9.89258 16.8359 9.45312 16.6309L8.96484 18.5156C8.89648 18.7402 8.76953 18.8281 8.56445 18.8281C8.33008 18.8281 8.1543 18.6719 8.1543 18.4473C8.1543 18.3887 8.16406 18.3105 8.19336 18.2324L8.71094 16.2012C7.34375 15.1953 6.65039 13.4277 6.65039 11.377C6.65039 8.19336 8.33984 5.82031 11.3867 5.70312L11.6992 4.48242C11.7578 4.26758 11.8848 4.16992 12.1191 4.16992C12.3535 4.16992 12.5098 4.32617 12.5098 4.54102C12.5098 4.58008 12.5 4.64844 12.4707 4.75586L12.2266 5.73242C12.7539 5.79102 13.2617 5.9375 13.7305 6.16211L14.1602 4.48242C14.2188 4.26758 14.3457 4.16992 14.5801 4.16992C14.8145 4.16992 14.9707 4.32617 14.9707 4.54102C14.9707 4.58008 14.9609 4.64844 14.9316 4.75586L14.4629 6.5918C15.0391 7.03125 15.5078 7.60742 15.7812 8.33008C15.8496 8.52539 15.9082 8.75 15.9082 8.93555C15.9082 9.30664 15.6738 9.55078 15.2832 9.55078C14.873 9.55078 14.7266 9.33594 14.6289 9.01367C14.5508 8.63281 14.3555 8.30078 14.1113 8.02734L12.0996 15.8496C13.3301 15.7129 14.3555 14.9805 14.707 13.7891C14.8242 13.4668 15.0098 13.252 15.3613 13.252C15.6836 13.252 15.9863 13.4473 15.9863 13.877C15.9863 14.0723 15.9473 14.2773 15.8789 14.4727C15.3027 16.1035 13.6914 17.0801 11.8066 17.0801L11.7969 17.0801L11.4258 18.5156C11.3574 18.7402 11.2305 18.8281 11.0254 18.8281ZM8.05664 11.377C8.05664 12.666 8.38867 13.8672 9.08203 14.7168L11.0742 6.94336C9.05273 7.24609 8.05664 9.16016 8.05664 11.377ZM9.76562 15.3613C10.1758 15.6348 10.6738 15.8203 11.25 15.8691L13.4082 7.40234C12.9883 7.13867 12.4707 6.95312 11.9238 6.9043Z" fill="var(--color-primary)"/>
 </g>
</svg>
