<svg version="1.1" xmlns="http://www.w3.org/2000/svg" xmlns:xlink="http://www.w3.org/1999/xlink" viewBox="0 0 27.9395 26.5527">
 <g>
  <rect height="26.5527" opacity="0" width="27.9395" x="0" y="0"/>
  <path d="M1.5332 25.3223L26.0449 25.3223L26.0449 23.9258C26.0449 23.5059 25.791 23.252 25.3613 23.252L24.5605 23.252L24.5605 8.33984L25.6934 8.33984C26.2891 8.33984 26.6211 7.91992 26.6211 7.48047C26.6211 7.1582 26.4453 6.875 26.0547 6.65039L15.2637 0.419922C14.7852 0.146484 14.2773 0 13.7891 0C13.3008 0 12.7832 0.146484 12.3145 0.419922L1.52344 6.65039C1.12305 6.875 0.957031 7.1582 0.957031 7.48047C0.957031 7.91992 1.28906 8.33984 1.88477 8.33984L3.02734 8.33984L3.02734 23.252L2.22656 23.252C1.78711 23.252 1.5332 23.5059 1.5332 23.9258ZM0.869141 26.5332L26.709 26.5332C27.1875 26.5332 27.5781 26.1426 27.5781 25.6738C27.5781 25.1953 27.1875 24.8047 26.709 24.8047L0.869141 24.8047C0.390625 24.8047 0 25.1953 0 25.6738C0 26.1426 0.390625 26.5332 0.869141 26.5332Z" fill="var(--color-tertiary)"/>
  <path d="M13.8965 20.0488C10.6055 20.0488 8.93555 17.5098 8.93555 14.3457C8.93555 11.0742 10.7422 8.67188 13.8965 8.67188C15.8105 8.67188 17.5 9.7168 18.0566 11.3965C18.125 11.5625 18.1641 11.7578 18.1641 11.8945C18.1641 12.2559 17.8906 12.4805 17.5391 12.4805C17.1973 12.4805 17.0215 12.2949 16.9043 11.9531C16.5332 10.6934 15.332 9.86328 13.9062 9.86328C11.4941 9.86328 10.3516 11.9336 10.3516 14.3457C10.3516 16.5137 11.2598 18.4668 13.2324 18.8184L13.2324 14.3457C13.2324 14.1016 13.3887 13.9355 13.6328 13.9355C13.8672 13.9355 14.0234 14.1016 14.0234 14.3457L14.0234 15.3906L14.0527 15.3906C14.3066 14.5801 15.0879 13.9062 16.123 13.9062C16.3574 13.9062 16.6797 13.9551 16.8555 14.0723C17.002 14.1602 17.0898 14.3066 17.0898 14.4531C17.0898 14.7266 16.9238 14.8438 16.6895 14.8438C16.5723 14.8438 16.3867 14.7852 16.1328 14.7852C14.8828 14.7852 14.043 15.6641 14.043 16.9336L14.043 18.877C15.3906 18.8477 16.582 18.1348 16.9727 16.8066C17.0801 16.4746 17.2754 16.2891 17.627 16.2891C17.998 16.2891 18.2422 16.5039 18.2422 16.8652C18.2422 17.041 18.2227 17.1973 18.1543 17.3828C17.6074 19.082 15.8594 20.0488 13.8965 20.0488Z" fill="var(--color-primary)"/>
 </g>
</svg>
