<svg version="1.1" xmlns="http://www.w3.org/2000/svg" xmlns:xlink="http://www.w3.org/1999/xlink" viewBox="0 0 27.9395 26.5527">
 <g>
  <rect height="26.5527" opacity="0" width="27.9395" x="0" y="0"/>
  <path d="M1.5332 25.3223L26.0449 25.3223L26.0449 23.9258C26.0449 23.5059 25.791 23.252 25.3613 23.252L24.5605 23.252L24.5605 8.33984L25.6934 8.33984C26.2891 8.33984 26.6211 7.91992 26.6211 7.48047C26.6211 7.1582 26.4453 6.875 26.0547 6.65039L15.2637 0.419922C14.7852 0.146484 14.2773 0 13.7891 0C13.3008 0 12.7832 0.146484 12.3145 0.419922L1.52344 6.65039C1.12305 6.875 0.957031 7.1582 0.957031 7.48047C0.957031 7.91992 1.28906 8.33984 1.88477 8.33984L3.02734 8.33984L3.02734 23.252L2.22656 23.252C1.78711 23.252 1.5332 23.5059 1.5332 23.9258ZM0.869141 26.5332L26.709 26.5332C27.1875 26.5332 27.5781 26.1426 27.5781 25.6738C27.5781 25.1953 27.1875 24.8047 26.709 24.8047L0.869141 24.8047C0.390625 24.8047 0 25.1953 0 25.6738C0 26.1426 0.390625 26.5332 0.869141 26.5332Z" fill="var(--color-tertiary)"/>
  <path d="M9.31641 19.3555C8.96484 19.3555 8.7207 19.1016 8.7207 18.7207L8.7207 9.43359C8.7207 9.05273 8.96484 8.80859 9.31641 8.80859C9.66797 8.80859 9.91211 9.0625 9.91211 9.44336L9.91211 15.2539L9.95117 15.2539L12.9785 11.9336C13.0859 11.8066 13.2715 11.709 13.4277 11.709C13.7305 11.709 13.9648 11.9531 13.9648 12.2266C13.9648 12.4121 13.8965 12.5 13.75 12.6465L11.4941 15.0488L13.9062 18.4082C14.0039 18.5449 14.0625 18.6816 14.0625 18.8281C14.0625 19.1309 13.8184 19.3555 13.4961 19.3555C13.2812 19.3555 13.1055 19.2383 12.9785 19.0527L10.6445 15.791L9.91211 16.5332L9.91211 18.7207C9.91211 19.1016 9.66797 19.3555 9.31641 19.3555ZM16.0645 19.3555C15.6934 19.3555 15.4883 19.1113 15.4883 18.7207L15.4883 12.3047C15.4883 11.9629 15.7227 11.709 16.0449 11.709C16.3477 11.709 16.5723 11.9629 16.5723 12.3047L16.5723 13.1934L16.6504 13.1934C16.8359 12.3828 17.3633 11.709 18.1641 11.709C18.584 11.709 18.9258 11.9238 18.9258 12.334C18.9258 12.5293 18.8379 12.6758 18.6816 12.7441C18.4961 12.832 18.2812 12.8516 18.0469 12.8516C16.9727 12.8516 16.6211 13.8867 16.6211 14.7852L16.6211 18.7207C16.6211 19.1895 16.3281 19.3555 16.0645 19.3555ZM19.3848 19.2383C18.916 19.2383 18.584 18.9062 18.584 18.4473C18.584 17.9883 18.916 17.6562 19.3848 17.6562C19.8438 17.6562 20.1758 17.9883 20.1758 18.4473C20.1758 18.9062 19.8438 19.2383 19.3848 19.2383Z" fill="var(--color-primary)"/>
 </g>
</svg>
