<svg version="1.1" xmlns="http://www.w3.org/2000/svg" xmlns:xlink="http://www.w3.org/1999/xlink" viewBox="0 0 23.3203 22.959">
 <g>
  <rect height="22.959" opacity="0" width="23.3203" x="0" y="0"/>
  <path d="M3.79883 22.959L19.1504 22.959C21.6797 22.959 22.959 21.6797 22.959 19.1992L22.959 3.76953C22.959 1.2793 21.6797 0 19.1504 0L3.79883 0C1.2793 0 0 1.26953 0 3.76953L0 19.1992C0 21.6992 1.2793 22.959 3.79883 22.959Z" fill="var(--color-tertiary)"/>
  <path d="M5.57617 7.62695C4.44336 7.60742 3.51562 6.70898 3.51562 5.55664C3.51562 4.41406 4.44336 3.50586 5.57617 3.50586C6.69922 3.50586 7.63672 4.41406 7.63672 5.55664C7.63672 6.70898 6.69922 7.64648 5.57617 7.62695ZM17.3926 7.62695C16.2598 7.60742 15.3223 6.70898 15.3223 5.55664C15.3223 4.41406 16.2598 3.50586 17.3926 3.50586C18.5156 3.50586 19.4434 4.41406 19.4434 5.55664C19.4434 6.70898 18.5156 7.64648 17.3926 7.62695ZM5.57617 13.5547C4.44336 13.5547 3.52539 12.627 3.52539 11.4746C3.52539 10.3516 4.44336 9.43359 5.57617 9.43359C6.69922 9.43359 7.63672 10.3516 7.63672 11.4746C7.63672 12.627 6.69922 13.5547 5.57617 13.5547ZM17.3926 13.5547C16.25 13.5547 15.332 12.627 15.332 11.4746C15.332 10.3516 16.25 9.43359 17.3926 9.43359C18.5156 9.43359 19.4434 10.3516 19.4434 11.4746C19.4434 12.627 18.5156 13.5547 17.3926 13.5547ZM5.57617 19.4629C4.44336 19.4629 3.52539 18.5352 3.52539 17.4023C3.52539 16.2598 4.44336 15.3516 5.57617 15.3516C6.69922 15.3516 7.62695 16.2598 7.62695 17.4023C7.62695 18.5352 6.69922 19.4629 5.57617 19.4629ZM17.3926 19.4629C16.2598 19.4629 15.3418 18.5352 15.3418 17.4023C15.3418 16.2598 16.2598 15.3516 17.3926 15.3516C18.5156 15.3516 19.4434 16.2598 19.4434 17.4023C19.4434 18.5352 18.5156 19.4629 17.3926 19.4629Z" fill="var(--color-primary)"/>
 </g>
</svg>
