<svg version="1.1" xmlns="http://www.w3.org/2000/svg" xmlns:xlink="http://www.w3.org/1999/xlink" viewBox="0 0 19.6777 27.1973">
 <g>
  <rect height="27.1973" opacity="0" width="19.6777" x="0" y="0"/>
  <path d="M0.595703 21.0156C0.595703 24.4043 2.72461 26.582 6.04492 26.582C8.54492 26.582 10.4395 25.4199 11.5918 23.252L12.6172 21.3867C15.293 16.3184 19.6777 15.8887 19.6777 9.70703C19.6777 3.87695 15.9277 0 10.2734 0C4.50195 0 0.595703 3.93555 0.595703 9.77539ZM3.98438 15.5957L3.98438 9.36523C3.98438 5.85938 6.43555 3.49609 10.2441 3.49609C13.9648 3.49609 16.3086 5.83984 16.3086 9.36523C16.3086 9.80469 15.9375 10.1758 15.498 10.1758C15.0586 10.1758 14.6777 9.80469 14.6777 9.36523C14.6777 6.79688 13.0176 5.12695 10.2441 5.12695C7.38281 5.12695 5.61523 6.81641 5.61523 9.36523L5.61523 10.957L9.58008 10.957C11.5527 10.957 12.8418 12.1387 12.8418 13.916C12.8418 14.668 12.5195 15.5957 12.0117 16.2305L10.3711 18.3008C10.1855 18.5449 9.95117 18.6719 9.69727 18.6719C9.24805 18.6719 8.87695 18.3105 8.87695 17.8613C8.87695 17.6562 8.94531 17.4512 9.0918 17.2754L10.6152 15.3613C10.9277 14.9805 11.1523 14.4141 11.1523 13.9941C11.1523 13.1543 10.5371 12.5879 9.61914 12.5879L5.61523 12.5879L5.61523 15.5957C5.61523 16.0352 5.24414 16.416 4.79492 16.416C4.35547 16.416 3.98438 16.0352 3.98438 15.5957Z" fill="var(--color-primary)"/>
 </g>
</svg>
