<svg version="1.1" xmlns="http://www.w3.org/2000/svg" xmlns:xlink="http://www.w3.org/1999/xlink" viewBox="0 0 25.8008 25.459">
 <g>
  <rect height="25.459" opacity="0" width="25.8008" x="0" y="0"/>
  <path d="M12.7148 25.4395C19.7266 25.4395 25.4395 19.7266 25.4395 12.7246C25.4395 5.71289 19.7266 0 12.7148 0C5.71289 0 0 5.71289 0 12.7246C0 19.7266 5.71289 25.4395 12.7148 25.4395Z" fill="var(--color-tertiary)"/>
  <path d="M14.7754 7.01172C13.9648 7.01172 13.3105 6.35742 13.3105 5.54688C13.3105 4.73633 13.9648 4.0918 14.7754 4.0918C15.5859 4.0918 16.2305 4.73633 16.2305 5.54688C16.2305 6.35742 15.5859 7.01172 14.7754 7.01172ZM8.06641 11.8848C7.69531 11.709 7.56836 11.3086 7.74414 10.9473L9.17969 8.0957C9.28711 7.88086 9.53125 7.70508 9.80469 7.70508L14.248 7.70508C15.127 7.70508 15.7031 7.99805 16.2402 8.54492L17.041 9.3457L18.0371 7.40234C18.2227 7.05078 18.6426 6.89453 18.9941 7.07031C19.3555 7.23633 19.4727 7.66602 19.2871 8.02734L17.8809 10.8691C17.666 11.3184 17.0898 11.3672 16.748 11.0449L15.1172 9.47266C15.0098 9.375 14.873 9.41406 14.8047 9.54102L13.4277 12.3145L16.5527 12.3145C17.0996 12.3145 17.373 12.8906 17.1777 13.3203L15.4004 17.2266C15.2344 17.6074 14.873 17.7344 14.4824 17.5684C14.1113 17.4512 13.9648 17.002 14.1211 16.6504L15.4004 13.8086L11.9434 14.0234C10.7031 14.1016 10.1074 12.9102 10.5859 11.9629L11.875 9.41406C11.9434 9.27734 11.8555 9.13086 11.6992 9.13086L10.2344 9.13086L9.01367 11.5723C8.84766 11.8848 8.48633 12.0703 8.06641 11.8848ZM6.16211 18.7598C5.9668 18.3789 6.16211 17.959 6.51367 17.8027L9.76562 16.4062L10.5859 14.209C10.957 14.4824 11.416 14.6484 11.9824 14.6094L12.2852 14.5996L10.9668 17.2559C10.8984 17.4023 10.7617 17.5195 10.625 17.5781L7.08008 19.1211C6.85547 19.2285 6.37695 19.209 6.16211 18.7598ZM17.8223 19.4238C17.0215 19.4238 16.3867 18.7695 16.3867 17.9492C16.3867 17.1387 17.0215 16.4941 17.8223 16.4941C18.6426 16.4941 19.2871 17.1387 19.2871 17.9492C19.2871 18.7695 18.6426 19.4238 17.8223 19.4238ZM7.43164 4.48242C7.43164 4.31641 7.56836 4.16016 7.76367 4.16016C8.50586 4.16016 8.98438 4.33594 9.54102 4.86328C10.1074 4.33594 10.5859 4.16016 11.3379 4.16016C11.5137 4.16016 11.6699 4.31641 11.6699 4.48242C11.6699 4.66797 11.5234 4.80469 11.3379 4.80469C10.7422 4.80469 10.3516 4.93164 9.95117 5.36133C9.80469 5.51758 9.67773 5.57617 9.54102 5.57617C9.4043 5.57617 9.27734 5.51758 9.14062 5.36133C8.75 4.93164 8.35938 4.80469 7.75391 4.80469C7.56836 4.80469 7.43164 4.66797 7.43164 4.48242ZM7.11914 21.1328C6.92383 21.1328 6.75781 20.9766 6.75781 20.7715C6.75781 20.5566 6.92383 20.4004 7.11914 20.4004C7.33398 20.4004 7.49023 20.5566 7.49023 20.7715C7.49023 20.9766 7.33398 21.1328 7.11914 21.1328ZM8.36914 21.1328C8.1543 21.1328 7.99805 20.9766 7.99805 20.7715C7.99805 20.5566 8.1543 20.4004 8.36914 20.4004C8.57422 20.4004 8.73047 20.5566 8.73047 20.7715C8.73047 20.9766 8.57422 21.1328 8.36914 21.1328ZM9.59961 21.1328C9.39453 21.1328 9.22852 20.9766 9.22852 20.7715C9.22852 20.5566 9.39453 20.4004 9.59961 20.4004C9.81445 20.4004 9.9707 20.5566 9.9707 20.7715C9.9707 20.9766 9.81445 21.1328 9.59961 21.1328ZM10.8398 21.1328C10.6348 21.1328 10.4785 20.9766 10.4785 20.7715C10.4785 20.5566 10.6348 20.4004 10.8398 20.4004C11.0449 20.4004 11.2109 20.5566 11.2109 20.7715C11.2109 20.9766 11.0449 21.1328 10.8398 21.1328ZM12.0898 21.1328C11.875 21.1328 11.7188 20.9766 11.7188 20.7715C11.7188 20.5566 11.875 20.4004 12.0898 20.4004C12.2852 20.4004 12.4512 20.5566 12.4512 20.7715C12.4512 20.9766 12.2852 21.1328 12.0898 21.1328ZM13.3203 21.1328C13.1152 21.1328 12.9492 20.9766 12.9492 20.7715C12.9492 20.5566 13.1152 20.4004 13.3203 20.4004C13.5254 20.4004 13.6914 20.5566 13.6914 20.7715C13.6914 20.9766 13.5254 21.1328 13.3203 21.1328ZM14.5605 21.1328C14.3652 21.1328 14.1895 20.9766 14.1895 20.7715C14.1895 20.5566 14.3652 20.4004 14.5605 20.4004C14.7754 20.4004 14.9316 20.5566 14.9316 20.7715C14.9316 20.9766 14.7754 21.1328 14.5605 21.1328ZM15.8008 21.1328C15.5859 21.1328 15.4395 20.9766 15.4395 20.7715C15.4395 20.5566 15.5859 20.4004 15.8008 20.4004C16.0156 20.4004 16.1719 20.5566 16.1719 20.7715C16.1719 20.9766 16.0156 21.1328 15.8008 21.1328ZM17.041 21.1328C16.8262 21.1328 16.6699 20.9766 16.6699 20.7715C16.6699 20.5566 16.8262 20.4004 17.041 20.4004C17.2461 20.4004 17.4121 20.5566 17.4121 20.7715C17.4121 20.9766 17.2461 21.1328 17.041 21.1328ZM18.2812 21.1328C18.0762 21.1328 17.9102 20.9766 17.9102 20.7715C17.9102 20.5566 18.0762 20.4004 18.2812 20.4004C18.4863 20.4004 18.6523 20.5566 18.6523 20.7715C18.6523 20.9766 18.4863 21.1328 18.2812 21.1328Z" fill="var(--color-primary)"/>
 </g>
</svg>
