<svg version="1.1" xmlns="http://www.w3.org/2000/svg" xmlns:xlink="http://www.w3.org/1999/xlink" viewBox="0 0 25.8008 25.459">
 <g>
  <rect height="25.459" opacity="0" width="25.8008" x="0" y="0"/>
  <path d="M12.7148 25.4395C19.7266 25.4395 25.4395 19.7266 25.4395 12.7246C25.4395 5.71289 19.7266 0 12.7148 0C5.71289 0 0 5.71289 0 12.7246C0 19.7266 5.71289 25.4395 12.7148 25.4395Z" fill="var(--color-tertiary)"/>
  <path d="M11.2402 10.5762C10.4102 10.5762 9.7168 9.89258 9.7168 9.04297C9.7168 8.21289 10.4102 7.5293 11.2402 7.5293C12.0801 7.5293 12.7637 8.21289 12.7637 9.04297C12.7637 9.89258 12.0801 10.5762 11.2402 10.5762ZM7.54883 19.7168C7.17773 19.6191 6.95312 19.248 7.04102 18.8672C7.12891 18.4961 7.50977 18.252 7.89062 18.3496L10.8691 19.1113L8.67188 12.5C8.56445 12.168 8.51562 12.0312 8.17383 11.6992L6.55273 10.0781C6.34766 9.87305 6.30859 9.70703 6.30859 9.41406L6.30859 6.01562C6.30859 5.60547 6.62109 5.30273 7.02148 5.30273C7.40234 5.30273 7.72461 5.60547 7.72461 6.01562L7.72461 9.24805L9.16992 10.6836C9.47266 10.9766 9.83398 11.0742 10.5078 11.2012L18.0762 12.7148C18.4375 12.793 18.6816 13.1641 18.6133 13.5449C18.5352 13.9648 18.1543 14.1602 17.793 14.0918L12.3047 12.998C12.1484 12.9492 12.0117 13.1152 12.0703 13.2715L12.8223 15.5664L15.8203 15.8594C16.1328 15.9082 16.2109 15.957 16.3965 16.1426L19.1309 18.8867C19.4043 19.1699 19.4238 19.6191 19.1309 19.8926C18.8574 20.166 18.4082 20.166 18.1348 19.8926L15.5566 17.2754L12.2363 17.2754L12.627 19.9414C12.7051 20.4883 12.3047 20.9277 11.7285 20.7812ZM9.0625 6.23047C8.56445 6.23047 8.19336 5.84961 8.19336 5.36133C8.19336 4.88281 8.56445 4.49219 9.0625 4.49219C9.53125 4.49219 9.93164 4.88281 9.93164 5.36133C9.93164 5.84961 9.53125 6.23047 9.0625 6.23047Z" fill="var(--color-primary)"/>
 </g>
</svg>
