<svg version="1.1" xmlns="http://www.w3.org/2000/svg" xmlns:xlink="http://www.w3.org/1999/xlink" viewBox="0 0 25.8008 25.459">
 <g>
  <rect height="25.459" opacity="0" width="25.8008" x="0" y="0"/>
  <path d="M12.7148 25.4395C19.7266 25.4395 25.4395 19.7266 25.4395 12.7246C25.4395 5.71289 19.7266 0 12.7148 0C5.71289 0 0 5.71289 0 12.7246C0 19.7266 5.71289 25.4395 12.7148 25.4395Z" fill="var(--color-tertiary)"/>
  <path d="M14.9512 8.54492C14.0918 8.54492 13.3984 7.85156 13.3984 7.00195C13.3984 6.14258 14.0918 5.45898 14.9512 5.45898C15.8105 5.45898 16.4941 6.14258 16.4941 7.00195C16.4941 7.85156 15.8105 8.54492 14.9512 8.54492ZM4.79492 17.4609C4.79492 17.0801 5.10742 16.748 5.52734 16.748L8.08594 16.748L8.26172 14.4336C8.59375 14.6484 9.02344 14.7949 9.52148 14.7949L9.99023 14.7949L9.46289 17.5488C9.39453 17.9199 9.11133 18.1934 8.75977 18.1934L5.52734 18.1934C5.10742 18.1934 4.79492 17.8711 4.79492 17.4609ZM6.05469 11.4355C5.77148 11.1426 5.76172 10.6934 6.05469 10.4004L8.22266 8.22266C8.35938 8.07617 8.55469 8.00781 8.75977 8.00781L11.9336 8.00781C12.4316 8.00781 12.8809 8.20312 13.2129 8.53516L18.291 13.6133C18.5742 13.9062 18.5645 14.3457 18.291 14.6387C18.0078 14.9316 17.5391 14.9219 17.2559 14.6387L13.5449 10.9277C13.3887 10.7715 13.1934 10.7812 13.0566 10.9277L11.5527 12.4023L13.9551 12.7441C14.3848 12.8125 14.6289 13.2129 14.5605 13.584L13.8281 17.5879C13.6523 18.5645 12.2168 18.3301 12.3926 17.373L12.9688 14.1992L9.52148 14.1992C8.01758 14.1992 7.51953 12.5684 8.4668 11.6309L10.4395 9.67773C10.5273 9.58984 10.4785 9.45312 10.332 9.45312L9.05273 9.45312L7.08008 11.4355C6.79688 11.7188 6.33789 11.7188 6.05469 11.4355ZM17.2754 17.3242C17.2754 16.8359 17.6562 16.4453 18.1445 16.4453L19.6777 16.4453L19.6777 16.1328C19.6777 15.8887 19.502 15.7422 19.2773 15.7422L18.5059 15.7422C18.3398 15.7422 18.2031 15.6055 18.2031 15.4297C18.2031 15.2539 18.3398 15.127 18.5059 15.127L19.2773 15.127C19.8438 15.127 20.2734 15.5566 20.2734 16.1328L20.2734 16.4453L20.3223 16.4453C20.8105 16.4453 21.1914 16.8359 21.1914 17.3242C21.1914 17.8027 20.8105 18.1934 20.3223 18.1934L18.1445 18.1934C17.6562 18.1934 17.2754 17.8027 17.2754 17.3242Z" fill="var(--color-primary)"/>
 </g>
</svg>
