<svg version="1.1" xmlns="http://www.w3.org/2000/svg" xmlns:xlink="http://www.w3.org/1999/xlink" viewBox="0 0 25.8008 25.459">
 <g>
  <rect height="25.459" opacity="0" width="25.8008" x="0" y="0"/>
  <path d="M12.7148 25.4395C19.7266 25.4395 25.4395 19.7266 25.4395 12.7246C25.4395 5.71289 19.7266 0 12.7148 0C5.71289 0 0 5.71289 0 12.7246C0 19.7266 5.71289 25.4395 12.7148 25.4395Z" fill="var(--color-tertiary)"/>
  <path d="M14.5605 7.12891C13.7109 7.12891 13.0273 6.42578 13.0273 5.56641C13.0273 4.70703 13.7109 4.01367 14.5605 4.01367C15.4492 4.01367 16.123 4.70703 16.123 5.56641C16.123 6.42578 15.4492 7.12891 14.5605 7.12891ZM7.44141 12.3047C7.04102 12.1191 6.91406 11.6895 7.08984 11.3086L8.61328 8.29102C8.74023 8.03711 8.99414 7.86133 9.28711 7.86133L14.0039 7.86133C14.9512 7.86133 15.5762 8.16406 16.1523 8.75977L17.002 9.60938L18.0566 7.53906C18.252 7.1582 18.6816 7.00195 19.0625 7.1875C19.4629 7.36328 19.5898 7.8125 19.3848 8.18359L17.9004 11.2305C17.666 11.6992 17.0312 11.748 16.6797 11.416L14.9316 9.74609C14.8242 9.64844 14.6875 9.67773 14.6191 9.80469L13.1445 12.7637L16.4746 12.7637C17.0605 12.7637 17.3438 13.3789 17.1387 13.8379L15.2441 17.9883C15.0684 18.3984 14.6875 18.5254 14.2578 18.3594C13.877 18.2324 13.7207 17.7539 13.8965 17.3828L15.2441 14.3457L11.5723 14.5801C10.2441 14.6582 9.60938 13.3984 10.127 12.3926L11.4941 9.67773C11.5723 9.53125 11.4746 9.36523 11.2988 9.36523L9.74609 9.36523L8.4375 11.9727C8.26172 12.3047 7.87109 12.5 7.44141 12.3047ZM6.08398 19.3164C5.87891 18.916 6.08398 18.4668 6.46484 18.3105L9.25781 17.1191L10.1172 14.7754C10.459 15.0781 11.0156 15.2441 11.6016 15.2051L11.9238 15.1855L10.5273 18.0176C10.4395 18.1934 10.3027 18.3105 10.1562 18.3789L7.07031 19.707C6.83594 19.8145 6.31836 19.8145 6.08398 19.3164ZM17.8223 20.3223C16.9629 20.3223 16.2793 19.6484 16.2793 18.7793C16.2793 17.9102 16.9629 17.207 17.8223 17.207C18.7012 17.207 19.3848 17.9102 19.3848 18.7793C19.3848 19.6484 18.7012 20.3223 17.8223 20.3223Z" fill="var(--color-primary)"/>
 </g>
</svg>
