<svg version="1.1" xmlns="http://www.w3.org/2000/svg" xmlns:xlink="http://www.w3.org/1999/xlink" viewBox="0 0 25.8008 25.459">
 <g>
  <rect height="25.459" opacity="0" width="25.8008" x="0" y="0"/>
  <path d="M12.7148 25.4395C19.7266 25.4395 25.4395 19.7266 25.4395 12.7246C25.4395 5.71289 19.7266 0 12.7148 0C5.71289 0 0 5.71289 0 12.7246C0 19.7266 5.71289 25.4395 12.7148 25.4395Z" fill="var(--color-tertiary)"/>
  <path d="M4.55078 15.4395C4.33594 15.4395 4.15039 15.2539 4.15039 15.0391C4.15039 14.8145 4.33594 14.6387 4.55078 14.6387L5.26367 14.6387C6.65039 14.6387 7.12891 13.4473 8.97461 13.4473C10.8301 13.4473 11.3184 14.6387 12.7051 14.6387C14.0918 14.6387 14.5801 13.4473 16.4355 13.4473C18.291 13.4473 18.7695 14.6387 20.1465 14.6387L20.8594 14.6387C21.0742 14.6387 21.2598 14.8145 21.2598 15.0391C21.2598 15.2539 21.0742 15.4395 20.8594 15.4395L20.1465 15.4395C18.2227 15.4395 17.7734 14.2383 16.4355 14.2383C15.0977 14.2383 14.6484 15.4395 12.7051 15.4395C10.7715 15.4395 10.3223 14.2383 8.97461 14.2383C7.64648 14.2383 7.19727 15.4395 5.26367 15.4395ZM4.75586 17.3926C4.54102 17.3926 4.36523 17.2168 4.36523 16.9922C4.36523 16.7871 4.54102 16.6113 4.75586 16.6113C4.9707 16.6113 5.13672 16.7871 5.13672 16.9922C5.13672 17.2168 4.9707 17.3926 4.75586 17.3926ZM6.10352 17.1387C5.88867 17.1387 5.71289 16.9629 5.71289 16.7578C5.71289 16.5332 5.88867 16.3672 6.10352 16.3672C6.31836 16.3672 6.49414 16.5332 6.49414 16.7578C6.49414 16.9629 6.31836 17.1387 6.10352 17.1387ZM7.38281 16.5527C7.16797 16.5527 6.99219 16.377 6.99219 16.1523C6.99219 15.9473 7.16797 15.7715 7.38281 15.7715C7.59766 15.7715 7.77344 15.9473 7.77344 16.1523C7.77344 16.377 7.59766 16.5527 7.38281 16.5527ZM8.74023 16.2402C8.51562 16.2402 8.34961 16.0645 8.34961 15.8496C8.34961 15.6348 8.51562 15.459 8.74023 15.459C8.95508 15.459 9.13086 15.6348 9.13086 15.8496C9.13086 16.0645 8.95508 16.2402 8.74023 16.2402ZM10.0879 16.5527C9.87305 16.5527 9.70703 16.377 9.70703 16.1523C9.70703 15.9473 9.87305 15.7715 10.0879 15.7715C10.3125 15.7715 10.4785 15.9473 10.4785 16.1523C10.4785 16.377 10.3125 16.5527 10.0879 16.5527ZM11.3672 17.1387C11.1426 17.1387 10.9766 16.9629 10.9766 16.7578C10.9766 16.5332 11.1426 16.3672 11.3672 16.3672C11.582 16.3672 11.748 16.5332 11.748 16.7578C11.748 16.9629 11.582 17.1387 11.3672 17.1387ZM20.6836 17.3926C20.459 17.3926 20.293 17.2168 20.293 16.9922C20.293 16.7871 20.459 16.6113 20.6836 16.6113C20.8887 16.6113 21.0645 16.7871 21.0645 16.9922C21.0645 17.2168 20.8887 17.3926 20.6836 17.3926ZM19.3359 17.1387C19.1113 17.1387 18.9453 16.9629 18.9453 16.7578C18.9453 16.5332 19.1113 16.3672 19.3359 16.3672C19.541 16.3672 19.7168 16.5332 19.7168 16.7578C19.7168 16.9629 19.541 17.1387 19.3359 17.1387ZM18.0566 16.5527C17.832 16.5527 17.666 16.377 17.666 16.1523C17.666 15.9473 17.832 15.7715 18.0566 15.7715C18.2617 15.7715 18.4473 15.9473 18.4473 16.1523C18.4473 16.377 18.2617 16.5527 18.0566 16.5527ZM16.6895 16.2402C16.4844 16.2402 16.3086 16.0645 16.3086 15.8496C16.3086 15.6348 16.4844 15.459 16.6895 15.459C16.9141 15.459 17.0801 15.6348 17.0801 15.8496C17.0801 16.0645 16.9141 16.2402 16.6895 16.2402ZM15.3418 16.5527C15.1367 16.5527 14.9512 16.377 14.9512 16.1523C14.9512 15.9473 15.1367 15.7715 15.3418 15.7715C15.5664 15.7715 15.7324 15.9473 15.7324 16.1523C15.7324 16.377 15.5664 16.5527 15.3418 16.5527ZM14.0723 17.1387C13.8574 17.1387 13.6816 16.9629 13.6816 16.7578C13.6816 16.5332 13.8574 16.3672 14.0723 16.3672C14.2871 16.3672 14.4531 16.5332 14.4531 16.7578C14.4531 16.9629 14.2871 17.1387 14.0723 17.1387ZM12.7148 17.3926C12.5 17.3926 12.3242 17.2168 12.3242 16.9922C12.3242 16.7871 12.5 16.6113 12.7148 16.6113C12.9395 16.6113 13.1055 16.7871 13.1055 16.9922C13.1055 17.2168 12.9395 17.3926 12.7148 17.3926ZM16.4648 11.709C15.5957 11.709 14.9023 11.0254 14.9023 10.1465C14.9023 9.28711 15.5957 8.60352 16.4648 8.60352C17.3145 8.60352 18.0078 9.28711 18.0078 10.1465C18.0078 11.0254 17.3145 11.709 16.4648 11.709ZM10.4297 12.6953L11.8359 11.7676C12.0508 11.6211 12.0117 11.3867 11.8652 11.2402L10.5859 9.93164L8.31055 11.5332C7.91016 11.8066 7.5 11.6992 7.27539 11.4551C6.99219 11.1523 6.94336 10.6348 7.42188 10.3027L10.2148 8.32031C10.6055 8.04688 11.0742 8.08594 11.3965 8.4082L15.3613 12.5391C14.2773 12.8418 13.8867 13.584 12.7051 13.584C11.6797 13.584 11.2207 13.0371 10.4297 12.6953Z" fill="var(--color-primary)"/>
 </g>
</svg>
