<svg version="1.1" xmlns="http://www.w3.org/2000/svg" xmlns:xlink="http://www.w3.org/1999/xlink" viewBox="0 0 25.8008 25.459">
 <g>
  <rect height="25.459" opacity="0" width="25.8008" x="0" y="0"/>
  <path d="M12.7148 25.4395C19.7266 25.4395 25.4395 19.7266 25.4395 12.7246C25.4395 5.71289 19.7266 0 12.7148 0C5.71289 0 0 5.71289 0 12.7246C0 19.7266 5.71289 25.4395 12.7148 25.4395Z" fill="var(--color-tertiary)"/>
  <path d="M12.7344 7.67578C11.875 7.67578 11.1719 6.97266 11.1719 6.11328C11.1719 5.27344 11.875 4.57031 12.7344 4.57031C13.584 4.57031 14.2871 5.27344 14.2871 6.11328C14.2871 6.97266 13.584 7.67578 12.7344 7.67578ZM7.92969 9.80469C7.32422 9.80469 7.07031 9.33594 7.2168 8.86719L8.32031 5.20508C8.42773 4.81445 8.84766 4.58008 9.23828 4.70703C9.61914 4.81445 9.85352 5.22461 9.72656 5.625L8.91602 8.33008L12.5977 8.33008C13.1836 8.33008 13.5449 8.52539 13.9355 8.85742L15.5371 10.1758L18.5645 10.1758C18.9746 10.1758 19.2969 10.498 19.2969 10.9082C19.2969 11.3184 18.9746 11.6406 18.5645 11.6406L15.2637 11.6406C15.0781 11.6406 14.9219 11.582 14.7949 11.4648L13.7012 10.5566C13.5449 10.4297 13.3301 10.5078 13.3203 10.7227L13.125 13.5059L15.4199 14.2188C15.6934 14.2969 15.9473 14.5117 15.9961 14.7949L16.709 18.4668C16.7969 18.8574 16.5332 19.2578 16.1328 19.3359C15.8105 19.3945 15.3613 19.1895 15.2832 18.7598L14.6387 15.5664L11.6602 14.9414C10.752 14.7363 10.1172 14.082 10.2051 13.0176L10.4199 10.0098C10.4297 9.89258 10.3516 9.80469 10.2441 9.80469ZM11.0254 21.4844C10.6445 21.3672 10.4102 20.957 10.5176 20.5762L11.5918 17.0508L11.4258 15.498C11.4551 15.498 11.4551 15.498 11.543 15.5176L13.0664 15.8398L13.0664 17.0508C13.0664 17.1582 13.0664 17.2559 13.0273 17.3535L11.9434 20.9961C11.8164 21.4355 11.3574 21.5918 11.0254 21.4844Z" fill="var(--color-primary)"/>
 </g>
</svg>
