<svg version="1.1" xmlns="http://www.w3.org/2000/svg" xmlns:xlink="http://www.w3.org/1999/xlink" viewBox="0 0 25.8008 25.459">
 <g>
  <rect height="25.459" opacity="0" width="25.8008" x="0" y="0"/>
  <path d="M12.7148 25.4395C19.7266 25.4395 25.4395 19.7266 25.4395 12.7246C25.4395 5.71289 19.7266 0 12.7148 0C5.71289 0 0 5.71289 0 12.7246C0 19.7266 5.71289 25.4395 12.7148 25.4395Z" fill="var(--color-tertiary)"/>
  <path d="M12.7051 8.37891C11.8457 8.37891 11.1621 7.68555 11.1621 6.83594C11.1621 5.98633 11.8457 5.29297 12.7051 5.29297C13.5449 5.29297 14.2383 5.98633 14.2383 6.83594C14.2383 7.68555 13.5449 8.37891 12.7051 8.37891ZM7.91016 15.3223L7.91016 10.3223C7.91016 5.77148 9.61914 3.1543 12.7051 3.1543C15.8008 3.1543 17.5 5.77148 17.5 10.3223L17.5 15.3223C17.5 15.6055 17.3145 15.8887 17.041 15.9766C16.6895 16.0938 16.2988 15.8984 16.1621 15.5371C15.957 14.9121 15.4492 13.4863 14.5801 11.8652C14.5312 11.7969 14.4238 11.8164 14.4238 11.8945L14.4238 21.7285C14.4238 22.1094 14.1016 22.4121 13.75 22.4121C13.3789 22.4121 13.0566 22.1094 13.0566 21.7285L13.0566 18.1055L12.7051 15.3223L12.3633 18.1055L12.3633 21.7285C12.3633 22.1094 12.041 22.4121 11.6602 22.4121C11.3086 22.4121 10.9863 22.1094 10.9863 21.7285L10.9863 11.8945C10.9863 11.8164 10.8789 11.7969 10.8301 11.8652C9.9707 13.4863 9.46289 14.9121 9.24805 15.5371C9.11133 15.8984 8.7207 16.0938 8.36914 15.9766C8.0957 15.8887 7.91016 15.6055 7.91016 15.3223ZM8.7207 13.1152C9.18945 12.002 9.88281 10.5859 10.6641 9.7168C10.9766 9.36523 11.4355 9.15039 11.9434 9.15039L13.4766 9.15039C13.9746 9.15039 14.4336 9.36523 14.7461 9.7168C15.5273 10.5859 16.2207 12.002 16.6895 13.1152L16.6895 10.3223C16.6895 6.2793 15.2734 3.95508 12.7051 3.95508C10.1367 3.95508 8.7207 6.2793 8.7207 10.3223Z" fill="var(--color-primary)"/>
 </g>
</svg>
