<svg version="1.1" xmlns="http://www.w3.org/2000/svg" xmlns:xlink="http://www.w3.org/1999/xlink" viewBox="0 0 23.3203 22.959">
 <g>
  <rect height="22.959" opacity="0" width="23.3203" x="0" y="0"/>
  <path d="M3.79883 22.959L19.1504 22.959C21.6797 22.959 22.959 21.6797 22.959 19.1992L22.959 3.76953C22.959 1.2793 21.6797 0 19.1504 0L3.79883 0C1.2793 0 0 1.26953 0 3.76953L0 19.1992C0 21.6992 1.2793 22.959 3.79883 22.959Z" fill="var(--color-tertiary)"/>
  <path d="M11.5234 18.6133C11.2793 18.6133 11.1133 18.4473 11.1133 18.2227L11.1133 17.0898C8.24219 16.8652 6.63086 14.541 6.63086 11.4062C6.63086 8.35938 8.18359 5.97656 11.1133 5.76172L11.1133 4.66797C11.1133 4.43359 11.2793 4.26758 11.5234 4.26758C11.748 4.26758 11.9238 4.43359 11.9238 4.66797L11.9238 5.75195C13.5156 5.86914 15.1172 6.70898 15.6934 8.31055C15.7812 8.52539 15.8105 8.7207 15.8105 8.88672C15.8105 9.23828 15.5762 9.46289 15.2246 9.46289C14.8438 9.46289 14.6875 9.31641 14.5605 8.97461C14.2578 7.8418 13.1934 7.05078 11.9238 6.93359L11.9238 11.2402L15.3418 11.2402C15.7422 11.2402 16.0156 11.5137 16.0156 11.9434L16.0156 12.5391C16.0156 15.332 14.4727 16.9629 11.9238 17.0996L11.9238 18.2227C11.9238 18.4473 11.748 18.6133 11.5234 18.6133ZM8.01758 11.3965C8.01758 13.7207 9.05273 15.6445 11.1133 15.8984L11.1133 6.94336C8.97461 7.19727 8.01758 9.21875 8.01758 11.3965ZM11.9238 15.918C13.7012 15.8008 14.7168 14.5605 14.7168 12.832L14.7168 12.334L11.9238 12.334Z" fill="var(--color-primary)"/>
 </g>
</svg>
