<svg version="1.1" xmlns="http://www.w3.org/2000/svg" xmlns:xlink="http://www.w3.org/1999/xlink" viewBox="0 0 31.5625 29.9902">
 <g>
  <rect height="29.9902" opacity="0" width="31.5625" x="0" y="0"/>
  <path d="M27.2559 11.8359C29.7363 12.7637 31.2012 14.834 31.2012 17.3145C31.2012 20.293 28.9941 22.5586 25.2441 22.5586L16.4551 22.5586L16.4551 14.707C16.4551 14.248 16.0645 13.8672 15.6055 13.8672C15.1367 13.8672 14.7461 14.248 14.7461 14.707L14.7461 22.5586L6.40625 22.5586C2.37305 22.5586 0 19.9902 0 16.7676C0 13.8477 1.78711 11.582 4.58984 11.2012C4.62891 7.71484 8.17383 5.52734 11.0352 6.34766C12.4805 4.11133 14.873 2.25586 18.3008 2.25586C23.3594 2.25586 27.3242 6.28906 27.2559 11.8359Z" fill="var(--color-tertiary)"/>
  <path d="M15.6055 29.9902C15.3809 29.9902 15.2051 29.9023 14.9805 29.707L10.6055 25.5469C10.4395 25.3906 10.3516 25.2148 10.3516 24.9805C10.3516 24.541 10.6836 24.2188 11.123 24.2188C11.3379 24.2188 11.5625 24.3164 11.7285 24.4824L13.7793 26.543L14.8145 27.6074L14.7461 25.752L14.7461 14.707C14.7461 14.248 15.1367 13.8672 15.6055 13.8672C16.0645 13.8672 16.4551 14.248 16.4551 14.707L16.4551 25.752L16.3867 27.5977L17.4121 26.543L19.4727 24.4824C19.6387 24.3164 19.8535 24.2188 20.0586 24.2188C20.498 24.2188 20.8398 24.541 20.8398 24.9805C20.8398 25.2148 20.7617 25.3906 20.5859 25.5469L16.2207 29.707C15.9961 29.9023 15.8203 29.9902 15.6055 29.9902Z" fill="var(--color-primary)"/>
 </g>
</svg>
