<svg version="1.1" xmlns="http://www.w3.org/2000/svg" xmlns:xlink="http://www.w3.org/1999/xlink" viewBox="0 0 31.8164 19.7168">
 <g>
  <rect height="19.7168" opacity="0" width="31.8164" x="0" y="0"/>
  <path d="M3.79883 19.6875L27.6562 19.6875C30.1758 19.6875 31.4551 18.4082 31.4551 15.918L31.4551 3.76953C31.4551 1.2793 30.1758 0 27.6562 0L3.79883 0C1.26953 0 0 1.26953 0 3.76953L0 15.918C0 18.418 1.26953 19.6875 3.79883 19.6875Z" fill="var(--color-tertiary)"/>
  <path d="M4.59961 6.73828C4.36523 6.73828 4.23828 6.5918 4.23828 6.33789L4.23828 5C4.23828 4.73633 4.36523 4.59961 4.59961 4.59961L5.48828 4.59961C5.72266 4.59961 5.83984 4.73633 5.83984 5L5.83984 6.33789C5.83984 6.5918 5.72266 6.73828 5.48828 6.73828ZM7.43164 6.73828C7.19727 6.73828 7.07031 6.5918 7.07031 6.33789L7.07031 5C7.07031 4.73633 7.19727 4.59961 7.43164 4.59961L8.32031 4.59961C8.55469 4.59961 8.68164 4.73633 8.68164 5L8.68164 6.33789C8.68164 6.5918 8.55469 6.73828 8.32031 6.73828ZM10.2637 6.73828C10.0391 6.73828 9.90234 6.5918 9.90234 6.33789L9.90234 5C9.90234 4.73633 10.0391 4.59961 10.2637 4.59961L11.1621 4.59961C11.3867 4.59961 11.5137 4.73633 11.5137 5L11.5137 6.33789C11.5137 6.5918 11.3867 6.73828 11.1621 6.73828ZM13.0957 6.73828C12.8613 6.73828 12.7344 6.5918 12.7344 6.33789L12.7344 5C12.7344 4.73633 12.8613 4.59961 13.0957 4.59961L13.9844 4.59961C14.209 4.59961 14.3457 4.73633 14.3457 5L14.3457 6.33789C14.3457 6.5918 14.209 6.73828 13.9844 6.73828ZM15.9082 6.73828C15.6934 6.73828 15.5566 6.5918 15.5566 6.33789L15.5566 5C15.5566 4.73633 15.6934 4.59961 15.9082 4.59961L16.8262 4.59961C17.041 4.59961 17.1777 4.73633 17.1777 5L17.1777 6.33789C17.1777 6.5918 17.041 6.73828 16.8262 6.73828ZM18.7598 6.73828C18.5254 6.73828 18.3984 6.5918 18.3984 6.33789L18.3984 5C18.3984 4.73633 18.5254 4.59961 18.7598 4.59961L19.6484 4.59961C19.873 4.59961 20.0098 4.73633 20.0098 5L20.0098 6.33789C20.0098 6.5918 19.873 6.73828 19.6484 6.73828ZM4.59961 10.8887C4.36523 10.8887 4.23828 10.752 4.23828 10.4883L4.23828 9.15039C4.23828 8.88672 4.36523 8.75 4.59961 8.75L5.48828 8.75C5.72266 8.75 5.83984 8.88672 5.83984 9.15039L5.83984 10.4883C5.83984 10.752 5.72266 10.8887 5.48828 10.8887ZM7.43164 10.8887C7.19727 10.8887 7.07031 10.752 7.07031 10.4883L7.07031 9.15039C7.07031 8.88672 7.19727 8.75 7.43164 8.75L8.32031 8.75C8.55469 8.75 8.68164 8.88672 8.68164 9.15039L8.68164 10.4883C8.68164 10.752 8.55469 10.8887 8.32031 10.8887ZM10.2637 10.8887C10.0391 10.8887 9.90234 10.752 9.90234 10.4883L9.90234 9.15039C9.90234 8.88672 10.0391 8.75 10.2637 8.75L11.1621 8.75C11.3867 8.75 11.5137 8.88672 11.5137 9.15039L11.5137 10.4883C11.5137 10.752 11.3867 10.8887 11.1621 10.8887ZM13.0957 10.8887C12.8613 10.8887 12.7344 10.752 12.7344 10.4883L12.7344 9.15039C12.7344 8.88672 12.8613 8.75 13.0957 8.75L13.9844 8.75C14.209 8.75 14.3457 8.88672 14.3457 9.15039L14.3457 10.4883C14.3457 10.752 14.209 10.8887 13.9844 10.8887ZM15.9082 10.8887C15.6934 10.8887 15.5566 10.752 15.5566 10.4883L15.5566 9.15039C15.5566 8.88672 15.6934 8.75 15.9082 8.75L16.8262 8.75C17.041 8.75 17.1777 8.88672 17.1777 9.15039L17.1777 10.4883C17.1777 10.752 17.041 10.8887 16.8262 10.8887ZM18.7598 10.8887C18.5254 10.8887 18.3984 10.752 18.3984 10.4883L18.3984 9.15039C18.3984 8.88672 18.5254 8.75 18.7598 8.75L19.6484 8.75C19.873 8.75 20.0098 8.88672 20.0098 9.15039L20.0098 10.4883C20.0098 10.752 19.873 10.8887 19.6484 10.8887ZM4.59961 15.0391C4.36523 15.0391 4.23828 14.9023 4.23828 14.6387L4.23828 13.3008C4.23828 13.0469 4.36523 12.9004 4.59961 12.9004L5.48828 12.9004C5.72266 12.9004 5.83984 13.0469 5.83984 13.3008L5.83984 14.6387C5.83984 14.9023 5.72266 15.0391 5.48828 15.0391ZM7.43164 15.0391C7.19727 15.0391 7.07031 14.9023 7.07031 14.6387L7.07031 13.3008C7.07031 13.0469 7.19727 12.9004 7.43164 12.9004L16.8262 12.9004C17.041 12.9004 17.1777 13.0469 17.1777 13.3008L17.1777 14.6387C17.1777 14.9023 17.041 15.0391 16.8262 15.0391ZM18.7598 15.0391C18.5254 15.0391 18.3984 14.9023 18.3984 14.6387L18.3984 13.3008C18.3984 13.0469 18.5254 12.9004 18.7598 12.9004L19.6484 12.9004C19.873 12.9004 20.0098 13.0469 20.0098 13.3008L20.0098 14.6387C20.0098 14.9023 19.873 15.0391 19.6484 15.0391ZM22.168 9.18945L26.084 5.43945C26.4941 5.04883 27.168 5.22461 27.168 5.84961L27.168 13.8477C27.168 14.4727 26.4941 14.6387 26.084 14.248L22.168 10.498C21.7383 10.0781 21.7383 9.60938 22.168 9.18945Z" fill="var(--color-primary)"/>
 </g>
</svg>
