<svg version="1.1" xmlns="http://www.w3.org/2000/svg" xmlns:xlink="http://www.w3.org/1999/xlink" viewBox="0 0 25.8008 25.459">
 <g>
  <rect height="25.459" opacity="0" width="25.8008" x="0" y="0"/>
  <path d="M12.7148 25.459C19.7266 25.459 25.4395 19.7461 25.4395 12.7344C25.4395 5.73242 19.7266 0.0195312 12.7148 0.0195312C5.71289 0.0195312 0 5.73242 0 12.7344C0 19.7461 5.71289 25.459 12.7148 25.459Z" fill="var(--color-tertiary)"/>
  <path d="M14.3528 16.3352C14.3354 16.415 14.3262 16.4976 14.3262 16.582C14.3262 17.2461 14.9121 17.793 15.5664 17.793C15.6423 17.793 15.7168 17.7858 15.7889 17.7713L17.0549 19.0373C16.2153 19.8723 15.1133 20.4146 13.8184 20.5566C13.3398 20.5957 13.1152 20.4297 13.1152 20.0781L13.1152 15.0977ZM6.7518 8.73422L9.91743 11.8999C9.84607 11.8835 9.77233 11.875 9.69727 11.875C9.10156 11.875 8.61328 12.3633 8.61328 12.959C8.61328 13.5352 9.10156 14.0332 9.69727 14.0332C10.2734 14.0332 10.7715 13.5352 10.7715 12.959C10.7715 12.8795 10.7623 12.8017 10.7443 12.7268L12.3145 14.2969L12.3145 20.0781C12.3145 20.4297 12.0898 20.5957 11.6113 20.5566C10.0977 20.3906 8.84766 19.6777 7.96875 18.5938L6.92383 19.4434C6.66992 19.6582 6.34766 19.6777 6.15234 19.4238C5.95703 19.1992 6.01562 18.877 6.26953 18.6719L7.39258 17.7344C6.86523 16.8066 6.5625 15.6641 6.54297 14.3945L5.25391 14.3945C4.92188 14.3945 4.7168 14.1895 4.7168 13.8867C4.7168 13.5742 4.92188 13.3887 5.25391 13.3887L6.60156 13.3789C6.71875 12.3828 7.02148 11.3672 7.46094 10.5957L6.30859 9.63867C6.06445 9.44336 6.00586 9.12109 6.19141 8.86719C6.33533 8.68728 6.54819 8.65586 6.7518 8.73422ZM7.04102 6.29883L19.1602 18.418C19.3652 18.623 19.3652 18.9453 19.1602 19.1699C18.9551 19.375 18.6035 19.375 18.4082 19.1699L6.2793 7.05078C6.08398 6.85547 6.07422 6.51367 6.2793 6.29883C6.50391 6.08398 6.83594 6.08398 7.04102 6.29883ZM8.64258 16.582C8.64258 17.2461 9.19922 17.793 9.87305 17.793C10.5273 17.793 11.1035 17.2461 11.1035 16.582C11.1035 15.9082 10.5273 15.3516 9.87305 15.3516C9.19922 15.3516 8.64258 15.9082 8.64258 16.582ZM19.2383 8.86719C19.4238 9.12109 19.3555 9.44336 19.1211 9.63867L17.9785 10.5957C18.4082 11.3672 18.7109 12.3828 18.8281 13.3789L20.1855 13.3887C20.5176 13.3887 20.7129 13.5742 20.7129 13.8867C20.7129 14.1895 20.5078 14.3945 20.1758 14.3945L18.8867 14.3945C18.8746 15.1802 18.7541 15.9172 18.5384 16.5843L15.9648 14.0086C16.449 13.9026 16.8262 13.4604 16.8262 12.959C16.8262 12.3633 16.3281 11.875 15.7422 11.875C15.2327 11.875 14.797 12.2516 14.6924 12.7352L12.3304 10.3712C12.4587 10.3784 12.5869 10.3809 12.7148 10.3809C14.043 10.3809 15.3809 10.1172 16.5039 9.57031C16.7188 9.46289 16.9922 9.49219 17.3438 9.79492L18.4668 8.85742C18.7305 8.65234 19.0332 8.62305 19.2383 8.86719ZM15.9375 4.89258L15.3418 5.12695C15.0488 5.22461 14.9609 5.39062 15.0098 5.63477L15.0391 5.9082C15.9375 6.42578 16.4453 7.24609 16.4453 8.17383C16.4453 8.55469 16.3086 8.82812 15.8594 9.0332C15.0879 9.39453 13.916 9.60938 12.7148 9.60938C12.2969 9.60938 11.8849 9.58379 11.4936 9.53378L9.17948 7.21782C9.40339 6.69168 9.81754 6.23835 10.3906 5.9082L10.4199 5.63477C10.459 5.39062 10.3711 5.22461 10.0781 5.12695L9.49219 4.89258C8.86719 4.70703 9.19922 3.73047 9.83398 3.97461L10.4883 4.25781C11.0645 4.49219 11.4062 4.89258 11.3574 5.42969L11.3477 5.51758C11.7676 5.39062 12.2266 5.32227 12.7148 5.32227C13.2031 5.32227 13.6621 5.39062 14.082 5.51758L14.0625 5.42969C14.0234 4.88281 14.3652 4.49219 14.9414 4.25781L15.5957 3.97461C16.2305 3.73047 16.5625 4.70703 15.9375 4.89258Z" fill="var(--color-primary)"/>
 </g>
</svg>
