<svg version="1.1" xmlns="http://www.w3.org/2000/svg" xmlns:xlink="http://www.w3.org/1999/xlink" viewBox="0 0 21.3281 34.3262">
 <g>
  <rect height="34.3262" opacity="0" width="21.3281" x="0" y="0"/>
  <path d="M20.9668 8.49609L20.9668 27.8125C20.9668 30.3418 19.707 31.6113 17.207 31.6113L3.75977 31.6113C1.25977 31.6113 0 30.3418 0 27.8125L0 8.49609C0 5.9668 1.25977 4.6875 3.75977 4.6875L4.17413 4.6875C4.16466 4.77973 4.16016 4.87429 4.16016 4.9707L4.16016 6.2793C4.16016 7.74414 5.18555 8.7793 6.62109 8.7793L14.3457 8.7793C15.7812 8.7793 16.8066 7.74414 16.8066 6.2793L16.8066 4.9707C16.8066 4.87429 16.8021 4.77973 16.7927 4.6875L17.207 4.6875C19.707 4.6875 20.9668 5.9668 20.9668 8.49609Z" fill="var(--color-tertiary)"/>
  <path d="M6.62109 7.41211L14.3457 7.41211C15.0293 7.41211 15.4492 6.99219 15.4492 6.2793L15.4492 4.9707C15.4492 4.25781 15.0293 3.83789 14.3457 3.83789L13.0859 3.83789C13.0176 2.4707 11.875 1.35742 10.4883 1.35742C9.0918 1.35742 7.94922 2.4707 7.88086 3.83789L6.62109 3.83789C5.9375 3.83789 5.51758 4.25781 5.51758 4.9707L5.51758 6.2793C5.51758 6.99219 5.9375 7.41211 6.62109 7.41211ZM10.4883 5.0293C9.86328 5.0293 9.36523 4.51172 9.36523 3.91602C9.36523 3.29102 9.86328 2.79297 10.4883 2.79297C11.1035 2.79297 11.6016 3.29102 11.6016 3.91602C11.6016 4.51172 11.1035 5.0293 10.4883 5.0293Z" fill="var(--color-tertiary)"/>
  <path d="M4.6875 24.668C4.29688 24.668 3.97461 24.3359 3.97461 23.9551C3.97461 23.5645 4.28711 23.252 4.6875 23.252L10.7031 23.252C11.0938 23.252 11.4062 23.5645 11.4062 23.9551C11.4062 24.3359 11.084 24.668 10.7031 24.668Z" fill="var(--color-primary)"/>
  <path d="M4.6875 19.7754C4.28711 19.7754 3.97461 19.4629 3.97461 19.0723C3.97461 18.6816 4.28711 18.3691 4.6875 18.3691L16.2793 18.3691C16.6797 18.3691 16.9922 18.6816 16.9922 19.0723C16.9922 19.4629 16.6797 19.7754 16.2793 19.7754Z" fill="var(--color-primary)"/>
  <path d="M4.6875 15.1562C4.29688 15.1562 3.97461 14.834 3.97461 14.4531C3.97461 14.0527 4.29688 13.7305 4.6875 13.7305L16.2793 13.7305C16.6699 13.7305 16.9922 14.0527 16.9922 14.4531C16.9922 14.834 16.6699 15.1562 16.2793 15.1562Z" fill="var(--color-primary)"/>
 </g>
</svg>
