<svg version="1.1" xmlns="http://www.w3.org/2000/svg" xmlns:xlink="http://www.w3.org/1999/xlink" viewBox="0 0 27.9395 26.5527">
 <g>
  <rect height="26.5527" opacity="0" width="27.9395" x="0" y="0"/>
  <path d="M1.5332 25.3223L26.0449 25.3223L26.0449 23.9258C26.0449 23.5059 25.791 23.252 25.3613 23.252L24.5605 23.252L24.5605 8.33984L25.6934 8.33984C26.2891 8.33984 26.6211 7.91992 26.6211 7.48047C26.6211 7.1582 26.4453 6.875 26.0547 6.65039L15.2637 0.419922C14.7852 0.146484 14.2773 0 13.7891 0C13.3008 0 12.7832 0.146484 12.3145 0.419922L1.52344 6.65039C1.12305 6.875 0.957031 7.1582 0.957031 7.48047C0.957031 7.91992 1.28906 8.33984 1.88477 8.33984L3.02734 8.33984L3.02734 23.252L2.22656 23.252C1.78711 23.252 1.5332 23.5059 1.5332 23.9258ZM0.869141 26.5332L26.709 26.5332C27.1875 26.5332 27.5781 26.1426 27.5781 25.6738C27.5781 25.1953 27.1875 24.8047 26.709 24.8047L0.869141 24.8047C0.390625 24.8047 0 25.1953 0 25.6738C0 26.1426 0.390625 26.5332 0.869141 26.5332Z" fill="var(--color-tertiary)"/>
  <path d="M10.0977 19.8828C9.67773 19.8828 9.43359 19.6191 9.43359 19.1992L9.43359 15.1465C9.43359 12.2852 10.6641 10.0879 13.3008 9.84375L13.3008 8.34961C13.3008 8.05664 13.4863 7.87109 13.7988 7.87109C14.082 7.87109 14.2676 8.05664 14.2676 8.34961L14.2676 9.84375C16.9238 10.0586 18.2031 12.2461 18.2031 15.1465L18.2031 19.1992C18.2031 19.6191 17.9492 19.8828 17.5293 19.8828C17.1094 19.8828 16.8555 19.6191 16.8555 19.1992L16.8555 15.2344C16.8555 13.0859 16.1621 11.2988 14.2676 11.0645L14.2676 19.4043C14.2676 19.707 14.082 19.8828 13.7988 19.8828C13.4863 19.8828 13.3008 19.707 13.3008 19.4043L13.3008 11.0742C11.4941 11.3477 10.7715 13.0957 10.7715 15.2344L10.7715 19.1992C10.7715 19.6191 10.5176 19.8828 10.0977 19.8828Z" fill="var(--color-primary)"/>
 </g>
</svg>
