<svg version="1.1" xmlns="http://www.w3.org/2000/svg" xmlns:xlink="http://www.w3.org/1999/xlink" viewBox="0 0 25.8008 25.459">
 <g>
  <rect height="25.459" opacity="0" width="25.8008" x="0" y="0"/>
  <path d="M12.7148 25.459C19.7266 25.459 25.4395 19.7461 25.4395 12.7344C25.4395 5.73242 19.7266 0.0195312 12.7148 0.0195312C5.71289 0.0195312 0 5.73242 0 12.7344C0 19.7461 5.71289 25.459 12.7148 25.459Z" fill="var(--color-tertiary)"/>
  <path d="M12.7148 18.2324C12.4121 18.2324 12.1289 18.2227 11.8652 18.2129C11.7285 18.2031 11.6504 18.2324 11.5234 18.3203C10.2539 19.082 8.94531 19.6094 8.24219 19.6094C7.70508 19.6094 7.60742 19.1797 7.95898 18.7891C8.22266 18.4766 8.58398 18.0566 8.81836 17.627C8.88672 17.4902 8.88672 17.3438 8.7207 17.2656C6.80664 16.1914 5.53711 14.4043 5.53711 12.373C5.53711 9.13086 8.68164 6.50391 12.7148 6.50391C16.748 6.50391 19.9023 9.13086 19.9023 12.373C19.9023 15.6055 16.748 18.2324 12.7148 18.2324Z" fill="var(--color-primary)"/>
 </g>
</svg>
