<svg version="1.1" xmlns="http://www.w3.org/2000/svg" xmlns:xlink="http://www.w3.org/1999/xlink" viewBox="0 0 29.6387 22.2949">
 <g>
  <rect height="22.2949" opacity="0" width="29.6387" x="0" y="0"/>
  <path d="M9.59961 22.2754L19.6777 22.2754C26.8164 22.2754 29.2773 19.6094 29.2773 13.0371L29.2773 9.23828C29.2773 2.66602 26.8164 0 19.6777 0L9.59961 0C2.46094 0 0 2.66602 0 9.23828L0 13.0371C0 19.6094 2.46094 22.2754 9.59961 22.2754Z" fill="var(--color-tertiary)"/>
  <path d="M9.57031 16.4844C9.0332 16.4844 8.74023 16.1621 8.74023 15.625L8.74023 6.77734C8.74023 6.21094 9.0918 5.89844 9.56055 5.89844L11.9434 5.89844C13.7891 5.89844 14.8926 7.41211 14.8926 9.3457C14.8926 11.2988 13.7793 12.7832 11.8555 12.7832L10.4004 12.7832L10.4004 15.625C10.4004 16.1523 10.127 16.4844 9.57031 16.4844ZM10.4004 11.4551L11.5234 11.4551C12.7246 11.4551 13.2422 10.5566 13.2422 9.3457C13.2422 8.08594 12.6855 7.26562 11.5332 7.26562L10.4004 7.26562ZM19.1211 16.4941C18.6719 16.4941 18.2812 16.123 18.2812 15.6543L18.2812 7.5293L17.002 8.55469C16.8945 8.65234 16.7773 8.71094 16.6016 8.71094C16.25 8.71094 16.0059 8.45703 16.0059 8.0957C16.0059 7.80273 16.1523 7.58789 16.3574 7.43164L17.8613 6.23047C18.1348 6.02539 18.5254 5.76172 19.0039 5.76172C19.5801 5.76172 19.9512 6.11328 19.9512 6.68945L19.9512 15.6543C19.9512 16.123 19.5703 16.4941 19.1211 16.4941Z" fill="var(--color-primary)"/>
 </g>
</svg>
