<svg version="1.1" xmlns="http://www.w3.org/2000/svg" xmlns:xlink="http://www.w3.org/1999/xlink" viewBox="0 0 23.3203 22.959">
 <g>
  <rect height="22.959" opacity="0" width="23.3203" x="0" y="0"/>
  <path d="M3.79883 22.959L19.1504 22.959C21.6797 22.959 22.959 21.6797 22.959 19.1992L22.959 3.76953C22.959 1.2793 21.6797 0 19.1504 0L3.79883 0C1.2793 0 0 1.26953 0 3.76953L0 19.1992C0 21.6992 1.2793 22.959 3.79883 22.959Z" fill="var(--color-tertiary)"/>
  <path d="M5.46875 11.4844C5.46875 10.918 5.85938 10.5371 6.42578 10.5371L10.5566 10.5371L10.5566 6.39648C10.5566 5.84961 10.9375 5.44922 11.4648 5.44922C12.0312 5.44922 12.4121 5.83984 12.4121 6.39648L12.4121 10.5371L16.5625 10.5371C17.1094 10.5371 17.5 10.918 17.5 11.4844C17.5 12.0215 17.0996 12.3926 16.5625 12.3926L12.4121 12.3926L12.4121 16.543C12.4121 17.0898 12.0312 17.4805 11.4648 17.4805C10.9375 17.4805 10.5566 17.0801 10.5566 16.543L10.5566 12.3926L6.42578 12.3926C5.86914 12.3926 5.46875 12.0215 5.46875 11.4844Z" fill="var(--color-primary)"/>
 </g>
</svg>
