<svg version="1.1" xmlns="http://www.w3.org/2000/svg" xmlns:xlink="http://www.w3.org/1999/xlink" viewBox="0 0 27.9395 26.5527">
 <g>
  <rect height="26.5527" opacity="0" width="27.9395" x="0" y="0"/>
  <path d="M1.5332 25.3223L26.0449 25.3223L26.0449 23.9258C26.0449 23.5059 25.791 23.252 25.3613 23.252L24.5605 23.252L24.5605 8.33984L25.6934 8.33984C26.2891 8.33984 26.6211 7.91992 26.6211 7.48047C26.6211 7.1582 26.4453 6.875 26.0547 6.65039L15.2637 0.419922C14.7852 0.146484 14.2773 0 13.7891 0C13.3008 0 12.7832 0.146484 12.3145 0.419922L1.52344 6.65039C1.12305 6.875 0.957031 7.1582 0.957031 7.48047C0.957031 7.91992 1.28906 8.33984 1.88477 8.33984L3.02734 8.33984L3.02734 23.252L2.22656 23.252C1.78711 23.252 1.5332 23.5059 1.5332 23.9258ZM0.869141 26.5332L26.709 26.5332C27.1875 26.5332 27.5781 26.1426 27.5781 25.6738C27.5781 25.1953 27.1875 24.8047 26.709 24.8047L0.869141 24.8047C0.390625 24.8047 0 25.1953 0 25.6738C0 26.1426 0.390625 26.5332 0.869141 26.5332Z" fill="var(--color-tertiary)"/>
  <path d="M9.54102 19.668C9.18945 19.668 8.94531 19.4238 8.94531 19.0723C8.94531 18.8867 9.04297 18.7109 9.15039 18.5352L12.666 12.9395L12.666 12.8125L9.48242 12.8125C9.17969 12.8125 8.94531 12.5977 8.94531 12.2949C8.94531 12.002 9.17969 11.7773 9.48242 11.7773L13.5352 11.7773C14.0137 11.7773 14.1895 12.0898 14.1895 12.4023C14.1895 12.6465 14.0918 12.8027 13.9551 13.0371L10.5762 18.5156L10.5762 18.6426L13.7012 18.6426C14.0137 18.6426 14.248 18.8574 14.248 19.1406C14.248 19.4434 14.0137 19.668 13.7012 19.668ZM14.7461 14.7363C14.7461 14.5508 14.8535 14.3555 15.0879 14.2285L16.1426 13.6621L16.1426 9.22852C16.1426 8.79883 16.3867 8.54492 16.7871 8.54492C17.1777 8.54492 17.4316 8.79883 17.4316 9.23828L17.4316 12.959L18.1152 12.5781C18.5352 12.3633 18.9062 12.6953 18.9062 13.0469C18.9062 13.2227 18.8086 13.4082 18.5742 13.5352L17.4316 14.1504L17.4316 19.1211C17.4316 19.5508 17.1777 19.8047 16.7871 19.8047C16.3867 19.8047 16.1426 19.5508 16.1426 19.1211L16.1426 14.834L15.5664 15.1562C15.1172 15.4004 14.7461 15.0879 14.7461 14.7363Z" fill="var(--color-primary)"/>
 </g>
</svg>
