<svg version="1.1" xmlns="http://www.w3.org/2000/svg" xmlns:xlink="http://www.w3.org/1999/xlink" viewBox="0 0 23.3203 22.959">
 <g>
  <rect height="22.959" opacity="0" width="23.3203" x="0" y="0"/>
  <path d="M3.79883 22.959L19.1504 22.959C21.6797 22.959 22.959 21.6797 22.959 19.1992L22.959 3.76953C22.959 1.2793 21.6797 0 19.1504 0L3.79883 0C1.2793 0 0 1.26953 0 3.76953L0 19.1992C0 21.6992 1.2793 22.959 3.79883 22.959Z" fill="var(--color-tertiary)"/>
  <path d="M6.62109 17.4902C5.95703 17.4902 5.46875 17.002 5.46875 16.3379L5.46875 6.62109C5.46875 5.95703 5.95703 5.47852 6.62109 5.47852L16.4551 5.47852C17.1289 5.47852 17.6074 5.95703 17.6074 6.62109L17.6074 16.3379C17.6074 17.002 17.1289 17.4902 16.4551 17.4902ZM11.2598 10.6055L11.8066 10.6055C12.0898 10.6055 12.2949 10.4199 12.2949 10.127L12.2949 7.96875C12.2949 7.68555 12.0898 7.5 11.8066 7.5L11.2598 7.5C10.9766 7.5 10.7812 7.68555 10.7812 7.96875L10.7812 10.127C10.7812 10.4199 10.9766 10.6055 11.2598 10.6055ZM7.83203 15.3125L9.88281 15.3125C10.166 15.3125 10.3613 15.1172 10.3613 14.834L10.3613 14.2773C10.3613 13.9941 10.166 13.7988 9.88281 13.7988L7.83203 13.7988C7.53906 13.7988 7.34375 13.9941 7.34375 14.2773L7.34375 14.834C7.34375 15.1172 7.53906 15.3125 7.83203 15.3125ZM13.2227 15.3125L15.2539 15.3125C15.5469 15.3125 15.752 15.1172 15.752 14.834L15.752 14.2773C15.752 13.9941 15.5469 13.7988 15.2539 13.7988L13.2227 13.7988C12.9297 13.7988 12.7246 13.9941 12.7246 14.2773L12.7246 14.834C12.7246 15.1172 12.9297 15.3125 13.2227 15.3125Z" fill="var(--color-primary)"/>
 </g>
</svg>
