<svg version="1.1" xmlns="http://www.w3.org/2000/svg" xmlns:xlink="http://www.w3.org/1999/xlink" viewBox="0 0 23.3203 22.959">
 <g>
  <rect height="22.959" opacity="0" width="23.3203" x="0" y="0"/>
  <path d="M3.79883 22.959L19.1504 22.959C21.6797 22.959 22.959 21.6797 22.959 19.1992L22.959 3.76953C22.959 1.2793 21.6797 0 19.1504 0L3.79883 0C1.2793 0 0 1.26953 0 3.76953L0 19.1992C0 21.6992 1.2793 22.959 3.79883 22.959Z" fill="var(--color-tertiary)"/>
  <path d="M6.43555 17.4805C5.76172 17.4805 5.2832 16.9922 5.2832 16.3281L5.2832 6.61133C5.2832 5.94727 5.76172 5.46875 6.43555 5.46875L16.5234 5.46875C17.1875 5.46875 17.6758 5.94727 17.6758 6.61133L17.6758 16.3281C17.6758 16.9922 17.1875 17.4805 16.5234 17.4805ZM11.4844 10.1562C12.1973 10.1562 12.7637 9.58984 12.7637 8.87695C12.7637 8.17383 12.1973 7.60742 11.4844 7.60742C10.7812 7.60742 10.2148 8.17383 10.2148 8.87695C10.2148 9.58984 10.7812 10.1562 11.4844 10.1562ZM8.71094 15.332C9.41406 15.332 9.98047 14.7656 9.98047 14.0625C9.98047 13.3594 9.41406 12.7832 8.71094 12.7832C7.99805 12.7832 7.43164 13.3594 7.43164 14.0625C7.43164 14.7656 7.99805 15.332 8.71094 15.332ZM14.2676 15.332C14.9707 15.332 15.5469 14.7656 15.5469 14.0625C15.5469 13.3594 14.9707 12.7832 14.2676 12.7832C13.5645 12.7832 12.998 13.3594 12.998 14.0625C12.998 14.7656 13.5645 15.332 14.2676 15.332Z" fill="var(--color-primary)"/>
 </g>
</svg>
