<svg version="1.1" xmlns="http://www.w3.org/2000/svg" xmlns:xlink="http://www.w3.org/1999/xlink" viewBox="0 0 25.8008 25.459">
 <g>
  <rect height="25.459" opacity="0" width="25.8008" x="0" y="0"/>
  <path d="M12.7148 25.4395C19.7266 25.4395 25.4395 19.7266 25.4395 12.7246C25.4395 5.71289 19.7266 0 12.7148 0C5.71289 0 0 5.71289 0 12.7246C0 19.7266 5.71289 25.4395 12.7148 25.4395Z" fill="var(--color-tertiary)"/>
  <path d="M6.98242 17.832C6.48438 17.832 6.19141 17.5 6.19141 17.002L6.19141 8.58398C6.19141 8.06641 6.46484 7.76367 6.97266 7.76367L9.04297 7.76367C10.918 7.76367 12.0605 8.84766 12.0605 10.7715C12.0605 11.9531 11.5723 12.9883 10.5762 13.457L11.8652 16.4844C11.9629 16.7285 12.0312 16.9434 12.0312 17.0605C12.0312 17.5977 11.6504 17.832 11.2891 17.832C10.8594 17.832 10.625 17.5977 10.4688 17.1973L9.08203 13.7891L7.76367 13.7891L7.76367 17.002C7.76367 17.5098 7.4707 17.832 6.98242 17.832ZM7.76367 12.6074L8.89648 12.6074C9.9707 12.6074 10.459 11.8457 10.459 10.8008C10.459 9.73633 9.88281 9.02344 8.88672 9.02344L7.76367 9.02344ZM14.5215 17.6953C14.0332 17.6953 13.75 17.3633 13.75 16.8848L13.75 8.60352C13.75 8.125 14.0234 7.77344 14.5215 7.77344L17.0117 7.77344C18.457 7.77344 19.4727 8.70117 19.4727 10.2344C19.4727 11.2305 18.8379 12.2754 17.9199 12.4414L17.9199 12.4902C19.082 12.6172 19.7852 13.7109 19.7852 14.9219C19.7852 16.5527 18.7988 17.6953 17.0801 17.6953ZM15.293 12.041L16.4355 12.041C17.3926 12.041 17.9492 11.4355 17.9492 10.4688C17.9492 9.60938 17.5391 8.99414 16.582 8.99414L15.293 8.99414ZM15.293 16.4844L16.6309 16.4844C17.6758 16.4844 18.2031 15.8496 18.2031 14.8047C18.2031 13.6719 17.5586 13.1348 16.5723 13.1348L15.293 13.1348Z" fill="var(--color-primary)"/>
 </g>
</svg>
