<svg version="1.1" xmlns="http://www.w3.org/2000/svg" xmlns:xlink="http://www.w3.org/1999/xlink" viewBox="0 0 25.8008 25.459">
 <g>
  <rect height="25.459" opacity="0" width="25.8008" x="0" y="0"/>
  <path d="M12.7148 25.4395C19.7266 25.4395 25.4395 19.7266 25.4395 12.7246C25.4395 5.71289 19.7266 0 12.7148 0C5.71289 0 0 5.71289 0 12.7246C0 19.7266 5.71289 25.4395 12.7148 25.4395Z" fill="var(--color-tertiary)"/>
  <path d="M4.76562 14.834L4.76562 10.6445L6.21094 10.6445C6.70898 10.6445 6.93359 10.8887 6.93359 11.377L6.93359 14.1016C6.93359 14.5801 6.70898 14.834 6.21094 14.834ZM6.91406 18.1543C5.51758 18.1543 4.76562 17.3926 4.76562 16.0059L4.76562 15.6836L6.20117 15.6836C7.22656 15.6836 7.79297 15.1074 7.79297 14.0918L7.79297 11.3867C7.79297 10.3613 7.22656 9.78516 6.20117 9.78516L4.76562 9.78516L4.76562 9.46289C4.76562 8.07617 5.51758 7.29492 6.91406 7.29492L12.2754 7.29492L12.2754 9.82422C10.8496 10.0293 9.76562 11.25 9.76562 12.7246C9.76562 14.209 10.8496 15.4102 12.2754 15.6348L12.2754 18.1543ZM12.2754 14.7949C11.3086 14.5996 10.5957 13.7598 10.5957 12.7246C10.5957 11.6992 11.3086 10.8496 12.2754 10.6543ZM13.1543 14.7949L13.1543 10.6543C14.1309 10.8496 14.834 11.6992 14.834 12.7246C14.834 13.7598 14.1309 14.5996 13.1543 14.7949ZM13.1543 18.1543L13.1543 15.6348C14.5801 15.4102 15.6641 14.209 15.6641 12.7246C15.6641 11.25 14.5801 10.0293 13.1543 9.82422L13.1543 7.29492L18.5254 7.29492C19.9121 7.29492 20.6738 8.07617 20.6738 9.46289L20.6738 9.78516L19.2285 9.78516C18.2031 9.78516 17.6367 10.3613 17.6367 11.3867L17.6367 14.0918C17.6367 15.1074 18.2031 15.6836 19.2285 15.6836L20.6738 15.6836L20.6738 16.0059C20.6738 17.3926 19.9121 18.1543 18.5254 18.1543ZM20.6738 14.834L19.2285 14.834C18.7305 14.834 18.4961 14.5801 18.4961 14.1016L18.4961 11.377C18.4961 10.8887 18.7305 10.6445 19.2285 10.6445L20.6738 10.6445Z" fill="var(--color-primary)"/>
 </g>
</svg>
