<svg version="1.1" xmlns="http://www.w3.org/2000/svg" xmlns:xlink="http://www.w3.org/1999/xlink" viewBox="0 0 22.4512 29.2285">
 <g>
  <rect height="29.2285" opacity="0" width="22.4512" x="0" y="0"/>
  <path d="M22.0898 11.6504L22.0898 24.1699C22.0898 26.6504 20.8203 27.9297 18.291 27.9297L3.79883 27.9297C1.2793 27.9297 0 26.6699 0 24.1699L0 11.6504C0 9.15039 1.2793 7.88086 3.79883 7.88086L10.1855 7.88086L10.1855 17.334C10.1855 17.793 10.5859 18.1738 11.0449 18.1738C11.5039 18.1738 11.9043 17.793 11.9043 17.334L11.9043 7.88086L18.291 7.88086C20.8203 7.88086 22.0898 9.16016 22.0898 11.6504Z" fill="var(--color-tertiary)"/>
  <path d="M11.0449 18.1738C10.5859 18.1738 10.1855 17.793 10.1855 17.334L10.1855 4.22852L10.2539 2.37305L9.48242 3.18359L7.35352 5.41016C7.19727 5.58594 6.96289 5.67383 6.75781 5.67383C6.30859 5.67383 5.98633 5.35156 5.98633 4.91211C5.98633 4.6875 6.07422 4.51172 6.24023 4.3457L10.4199 0.283203C10.6348 0.0683594 10.8301 0 11.0449 0C11.2598 0 11.4551 0.0683594 11.6699 0.283203L15.8496 4.3457C16.0059 4.51172 16.1035 4.6875 16.1035 4.91211C16.1035 5.35156 15.7617 5.67383 15.3125 5.67383C15.1074 5.67383 14.8828 5.58594 14.7266 5.41016L12.6074 3.18359L11.8359 2.38281L11.9043 4.22852L11.9043 17.334C11.9043 17.793 11.5039 18.1738 11.0449 18.1738Z" fill="var(--color-primary)"/>
 </g>
</svg>
