<svg version="1.1" xmlns="http://www.w3.org/2000/svg" xmlns:xlink="http://www.w3.org/1999/xlink" viewBox="0 0 31.748 32.9199">
 <g>
  <rect height="32.9199" opacity="0" width="31.748" x="0" y="0"/>
  <path d="M29.834 16.6211L29.834 29.1504C29.834 31.6406 28.5547 32.9199 26.0254 32.9199L11.543 32.9199C9.02344 32.9199 7.74414 31.6504 7.74414 29.1504L7.74414 28.8477L19.8438 28.8477C23.2324 28.8477 25.2051 26.875 25.2051 23.5254L25.2051 12.8613L26.0254 12.8613C28.5547 12.8613 29.834 14.1406 29.834 16.6211Z" fill="var(--color-tertiary)"/>
  <path d="M23.6426 10.9961L23.6426 23.5254C23.6426 26.0156 22.373 27.2852 19.8438 27.2852L5.36133 27.2852C2.8418 27.2852 1.55273 26.0254 1.55273 23.5254L1.55273 10.9961C1.55273 8.49609 2.8418 7.23633 5.36133 7.23633L11.748 7.23633L11.748 14.7168L11.8164 16.5723L11.0449 15.7715L8.91602 13.5352C8.75977 13.3691 8.52539 13.2812 8.32031 13.2812C7.87109 13.2812 7.54883 13.6035 7.54883 14.043C7.54883 14.2676 7.63672 14.4434 7.80273 14.5996L11.9922 18.6719C12.1973 18.8867 12.3926 18.9551 12.6074 18.9551C12.8223 18.9551 13.0176 18.8867 13.2324 18.6719L17.4121 14.5996C17.5684 14.4434 17.666 14.2676 17.666 14.043C17.666 13.6035 17.3242 13.2812 16.875 13.2812C16.6699 13.2812 16.4453 13.3691 16.2891 13.5352L14.1699 15.7715L13.3984 16.5723L13.4668 14.7168L13.4668 7.23633L19.8438 7.23633C22.373 7.23633 23.6426 8.51562 23.6426 10.9961Z" fill="var(--color-tertiary)"/>
  <path d="M12.6074 0.78125C13.0762 0.78125 13.4668 1.16211 13.4668 1.61133L13.4668 14.7168L13.3984 16.5723L14.1699 15.7715L16.2891 13.5352C16.4453 13.3691 16.6699 13.2812 16.875 13.2812C17.3242 13.2812 17.666 13.6035 17.666 14.043C17.666 14.2676 17.5684 14.4434 17.4121 14.5996L13.2324 18.6719C13.0176 18.8867 12.8223 18.9551 12.6074 18.9551C12.3926 18.9551 12.1973 18.8867 11.9922 18.6719L7.80273 14.5996C7.63672 14.4434 7.54883 14.2676 7.54883 14.043C7.54883 13.6035 7.87109 13.2812 8.32031 13.2812C8.52539 13.2812 8.75977 13.3691 8.91602 13.5352L11.0449 15.7715L11.8164 16.5723L11.748 14.7168L11.748 1.61133C11.748 1.16211 12.1484 0.78125 12.6074 0.78125Z" fill="var(--color-primary)"/>
 </g>
</svg>
