<svg version="1.1" xmlns="http://www.w3.org/2000/svg" xmlns:xlink="http://www.w3.org/1999/xlink" viewBox="0 0 25.8008 25.459">
 <g>
  <rect height="25.459" opacity="0" width="25.8008" x="0" y="0"/>
  <path d="M12.7148 25.4395C19.7266 25.4395 25.4395 19.7266 25.4395 12.7246C25.4395 5.71289 19.7266 0 12.7148 0C5.71289 0 0 5.71289 0 12.7246C0 19.7266 5.71289 25.4395 12.7148 25.4395Z" fill="var(--color-tertiary)"/>
  <path d="M8.47656 18.0859C8.10547 18.0859 7.8418 17.8223 7.8418 17.4121L7.8418 7.51953C7.8418 7.10938 8.10547 6.8457 8.47656 6.8457C8.84766 6.8457 9.10156 7.11914 9.10156 7.5293L9.10156 13.7207L9.15039 13.7207L12.373 10.1758C12.5 10.0391 12.6855 9.94141 12.8711 9.94141C13.1836 9.94141 13.4375 10.1953 13.4375 10.4883C13.4375 10.6836 13.3496 10.7812 13.2031 10.9375L10.8008 13.4961L13.3594 17.0703C13.4766 17.2266 13.5352 17.3633 13.5352 17.5293C13.5352 17.8516 13.2715 18.0859 12.9395 18.0859C12.6953 18.0859 12.5195 17.9688 12.373 17.7637L9.89258 14.2871L9.10156 15.0684L9.10156 17.4121C9.10156 17.8223 8.84766 18.0859 8.47656 18.0859ZM15.6641 18.0859C15.2734 18.0859 15.0488 17.8223 15.0488 17.4121L15.0488 10.5762C15.0488 10.2148 15.3027 9.94141 15.6348 9.94141C15.9668 9.94141 16.2109 10.2148 16.2109 10.5762L16.2109 11.5137L16.2988 11.5137C16.4844 10.6641 17.0605 9.94141 17.9102 9.94141C18.3496 9.94141 18.7207 10.166 18.7207 10.6055C18.7207 10.8203 18.623 10.9668 18.4473 11.0449C18.2715 11.1426 18.0273 11.1523 17.7734 11.1523C16.6406 11.1523 16.2695 12.2656 16.2695 13.2129L16.2695 17.4121C16.2695 17.9004 15.957 18.0859 15.6641 18.0859Z" fill="var(--color-primary)"/>
 </g>
</svg>
