<svg version="1.1" xmlns="http://www.w3.org/2000/svg" xmlns:xlink="http://www.w3.org/1999/xlink" viewBox="0 0 23.3203 22.959">
 <g>
  <rect height="22.959" opacity="0" width="23.3203" x="0" y="0"/>
  <path d="M3.79883 22.959L19.1504 22.959C21.6797 22.959 22.959 21.6797 22.959 19.1992L22.959 3.76953C22.959 1.2793 21.6797 0 19.1504 0L3.79883 0C1.2793 0 0 1.26953 0 3.76953L0 19.1992C0 21.6992 1.2793 22.959 3.79883 22.959Z" fill="var(--color-tertiary)"/>
  <path d="M8.04688 18.1543C7.51953 18.1543 7.14844 17.7734 7.14844 17.2461L7.14844 5.72266C7.14844 5.19531 7.51953 4.82422 8.04688 4.82422L14.9023 4.82422C15.4297 4.82422 15.8105 5.19531 15.8105 5.72266L15.8105 17.2461C15.8105 17.7734 15.4297 18.1543 14.9023 18.1543ZM8.90625 10.3125L14.043 10.3125C14.2871 10.3125 14.4531 10.1465 14.4531 9.89258L14.4531 6.60156C14.4531 6.34766 14.2871 6.18164 14.043 6.18164L8.90625 6.18164C8.67188 6.18164 8.50586 6.34766 8.50586 6.60156L8.50586 9.89258C8.50586 10.1465 8.67188 10.3125 8.90625 10.3125ZM8.90625 16.7969L14.043 16.7969C14.2871 16.7969 14.4531 16.6309 14.4531 16.377L14.4531 13.0859C14.4531 12.832 14.2871 12.666 14.043 12.666L8.90625 12.666C8.67188 12.666 8.50586 12.832 8.50586 13.0859L8.50586 16.377C8.50586 16.6309 8.67188 16.7969 8.90625 16.7969Z" fill="var(--color-primary)"/>
 </g>
</svg>
