<svg version="1.1" xmlns="http://www.w3.org/2000/svg" xmlns:xlink="http://www.w3.org/1999/xlink" viewBox="0 0 25.8008 25.459">
 <g>
  <rect height="25.459" opacity="0" width="25.8008" x="0" y="0"/>
  <path d="M12.7148 25.4395C19.7266 25.4395 25.4395 19.7266 25.4395 12.7246C25.4395 5.71289 19.7266 0 12.7148 0C5.71289 0 0 5.71289 0 12.7246C0 19.7266 5.71289 25.4395 12.7148 25.4395Z" fill="var(--color-tertiary)"/>
  <path d="M8.61328 6.35742L10.3809 6.35742C10.8594 6.35742 11.1914 6.67969 11.1914 7.16797C11.1914 7.63672 10.8594 7.97852 10.3809 7.97852L8.82812 7.97852C8.18359 7.97852 7.88086 8.28125 7.88086 8.93555L7.88086 10.4395C7.88086 10.9473 7.55859 11.2695 7.07031 11.2695C6.58203 11.2695 6.25977 10.9375 6.25977 10.4395L6.25977 8.68164C6.25977 7.14844 7.07031 6.35742 8.61328 6.35742ZM16.6504 6.35742C18.2031 6.35742 19.0137 7.14844 19.0137 8.68164L19.0137 10.4395C19.0137 10.9375 18.6816 11.2695 18.1934 11.2695C17.7051 11.2695 17.3926 10.9473 17.3926 10.4395L17.3926 8.93555C17.3926 8.28125 17.0898 7.97852 16.4355 7.97852L14.8926 7.97852C14.4043 7.97852 14.0723 7.63672 14.0723 7.16797C14.0723 6.67969 14.4043 6.35742 14.8926 6.35742ZM8.61328 19.1113C7.07031 19.1113 6.25977 18.3105 6.25977 16.7773L6.25977 15.0195C6.25977 14.5215 6.58203 14.1895 7.07031 14.1895C7.55859 14.1895 7.88086 14.5117 7.88086 15.0195L7.88086 16.5234C7.88086 17.1777 8.18359 17.4902 8.82812 17.4902L10.3809 17.4902C10.8594 17.4902 11.1914 17.8223 11.1914 18.291C11.1914 18.7793 10.8594 19.1113 10.3809 19.1113ZM16.6504 19.1113L14.8926 19.1113C14.4043 19.1113 14.0723 18.7793 14.0723 18.291C14.0723 17.8223 14.4043 17.4902 14.8926 17.4902L16.4355 17.4902C17.0898 17.4902 17.3926 17.1777 17.3926 16.5234L17.3926 15.0195C17.3926 14.5117 17.7051 14.1895 18.1934 14.1895C18.6816 14.1895 19.0137 14.5215 19.0137 15.0195L19.0137 16.7773C19.0137 18.3105 18.2031 19.1113 16.6504 19.1113Z" fill="var(--color-primary)"/>
 </g>
</svg>
