<?xml version="1.0" encoding="UTF-8"?>
<svg width="24px" height="22px" viewBox="0 0 24 22" version="1.1" xmlns="http://www.w3.org/2000/svg" xmlns:xlink="http://www.w3.org/1999/xlink">
    <title>Regular-S</title>
    <g id="Page-1" stroke="none" stroke-width="1" fill="none" fill-rule="evenodd">
        <g id="Regular-S" fill="#868686" fill-rule="nonzero">
            <path d="M3.90306479,22 L20.0969603,22 C21.4030831,22 22.3801152,21.6831273 23.0280566,21.049382 C23.6760189,20.4156377 24,19.4650171 24,18.1975203 L24,3.802472 C24,2.53499163 23.6760189,1.58437621 23.0280566,0.950625725 C22.3801152,0.316875242 21.4030831,0 20.0969603,0 L3.90306479,0 C2.60714021,0 1.63264722,0.316875242 0.979585823,0.950625725 C0.326528608,1.58437621 0,2.53499163 0,3.802472 L0,18.1975203 C0,19.4650171 0.326528608,20.4156377 0.979585823,21.049382 C1.63264722,21.6831273 2.60714021,22 3.90306479,22 Z M3.68877706,19.8120729 C3.21938788,19.8120729 2.85459301,19.6888446 2.59439245,19.4423882 C2.33419189,19.1959317 2.20409161,18.8262481 2.20409161,18.3333372 L2.20409161,6.98627398 C2.20409161,6.49337754 2.33419189,6.12370006 2.59439245,5.87724154 C2.85459301,5.63078301 3.21938788,5.50755375 3.68877706,5.50755375 L20.2959194,5.50755375 C20.7755067,5.50755375 21.1454112,5.63078301 21.4056326,5.87724154 C21.6658332,6.12370006 21.7959335,6.49337754 21.7959335,6.98627398 L21.7959335,18.3333372 C21.7959335,18.8262481 21.6658332,19.1959317 21.4056326,19.4423882 C21.1454112,19.6888446 20.7755067,19.8120729 20.2959194,19.8120729 L3.68877706,19.8120729 Z M9.67347348,13.5953508 L10.3775573,13.5953508 C10.6020432,13.5953508 10.7602094,13.5525919 10.852056,13.4670742 C10.9438817,13.381577 10.9897945,13.2281765 10.9897945,13.0068727 L10.9897945,12.3127694 C10.9897945,12.0914656 10.9438817,11.9380548 10.852056,11.852537 C10.7602094,11.7670398 10.6020432,11.7242912 10.3775573,11.7242912 L9.67347348,11.7242912 C9.44898755,11.7242912 9.2908213,11.7670398 9.19897475,11.852537 C9.10714909,11.9380548 9.06123626,12.0914656 9.06123626,12.3127694 L9.06123626,13.0068727 C9.06123626,13.2281765 9.10714909,13.381577 9.19897475,13.4670742 C9.2908213,13.5525919 9.44898755,13.5953508 9.67347348,13.5953508 Z M9.67347348,9.77776748 L10.3775573,9.77776748 C10.6020432,9.77776748 10.7602094,9.73501888 10.852056,9.64952169 C10.9438817,9.56402451 10.9897945,9.41061371 10.9897945,9.1892893 L10.9897945,8.49521695 C10.9897945,8.27389254 10.9438817,8.12048174 10.852056,8.03498455 C10.7602094,7.94948736 10.6020432,7.90673877 10.3775573,7.90673877 L9.67347348,7.90673877 C9.44898755,7.90673877 9.2908213,7.94948736 9.19897475,8.03498455 C9.10714909,8.12048174 9.06123626,8.27389254 9.06123626,8.49521695 L9.06123626,9.1892893 C9.06123626,9.41061371 9.10714909,9.56402451 9.19897475,9.64952169 C9.2908213,9.73501888 9.44898755,9.77776748 9.67347348,9.77776748 Z M9.67347348,17.4129033 L10.3775573,17.4129033 C10.6020432,17.4129033 10.7602094,17.3701444 10.852056,17.2846266 C10.9438817,17.1991294 10.9897945,17.0457289 10.9897945,16.8244251 L10.9897945,16.1303219 C10.9897945,15.9090181 10.9438817,15.7556073 10.852056,15.6700895 C10.7602094,15.5845923 10.6020432,15.5418437 10.3775573,15.5418437 L9.67347348,15.5418437 C9.44898755,15.5418437 9.2908213,15.5845923 9.19897475,15.6700895 C9.10714909,15.7556073 9.06123626,15.9090181 9.06123626,16.1303219 L9.06123626,16.8244251 C9.06123626,17.0457289 9.10714909,17.1991294 9.19897475,17.2846266 C9.2908213,17.3701444 9.44898755,17.4129033 9.67347348,17.4129033 Z M17.5408362,9.77776748 L18.24492,9.77776748 C18.4694059,9.77776748 18.6275617,9.73501888 18.7193874,9.64952169 C18.8112339,9.56402451 18.8571572,9.41061371 18.8571572,9.1892893 L18.8571572,8.49521695 C18.8571572,8.27389254 18.8112339,8.12048174 18.7193874,8.03498455 C18.6275617,7.94948736 18.4694059,7.90673877 18.24492,7.90673877 L17.5408362,7.90673877 C17.3163294,7.90673877 17.1581631,7.94948736 17.0663375,8.03498455 C16.9744909,8.12048174 16.9285676,8.27389254 16.9285676,8.49521695 L16.9285676,9.1892893 C16.9285676,9.41061371 16.9744909,9.56402451 17.0663375,9.64952169 C17.1581631,9.73501888 17.3163294,9.77776748 17.5408362,9.77776748 Z M17.5408362,13.5953508 L18.24492,13.5953508 C18.4694059,13.5953508 18.6275617,13.5525919 18.7193874,13.4670742 C18.8112339,13.381577 18.8571572,13.2281765 18.8571572,13.0068727 L18.8571572,12.3127694 C18.8571572,12.0914656 18.8112339,11.9380548 18.7193874,11.852537 C18.6275617,11.7670398 18.4694059,11.7242912 18.24492,11.7242912 L17.5408362,11.7242912 C17.3163294,11.7242912 17.1581631,11.7670398 17.0663375,11.852537 C16.9744909,11.9380548 16.9285676,12.0914656 16.9285676,12.3127694 L16.9285676,13.0068727 C16.9285676,13.2281765 16.9744909,13.381577 17.0663375,13.4670742 C17.1581631,13.5525919 17.3163294,13.5953508 17.5408362,13.5953508 Z M13.6071392,9.77776748 L14.3112229,9.77776748 C14.5357089,9.77776748 14.6938751,9.73501888 14.7857217,9.64952169 C14.8775473,9.56402451 14.9234602,9.41061371 14.9234602,9.1892893 L14.9234602,8.49521695 C14.9234602,8.27389254 14.8775473,8.12048174 14.7857217,8.03498455 C14.6938751,7.94948736 14.5357089,7.90673877 14.3112229,7.90673877 L13.6071392,7.90673877 C13.3826532,7.90673877 13.2244974,7.94948736 13.1326718,8.03498455 C13.0408252,8.12048174 12.9949019,8.27389254 12.9949019,8.49521695 L12.9949019,9.1892893 C12.9949019,9.41061371 13.0408252,9.56402451 13.1326718,9.64952169 C13.2244974,9.73501888 13.3826532,9.77776748 13.6071392,9.77776748 Z M13.6071392,13.5953508 L14.3112229,13.5953508 C14.5357089,13.5953508 14.6938751,13.5525919 14.7857217,13.4670742 C14.8775473,13.381577 14.9234602,13.2281765 14.9234602,13.0068727 L14.9234602,12.3127694 C14.9234602,12.0914656 14.8775473,11.9380548 14.7857217,11.852537 C14.6938751,11.7670398 14.5357089,11.7242912 14.3112229,11.7242912 L13.6071392,11.7242912 C13.3826532,11.7242912 13.2244974,11.7670398 13.1326718,11.852537 C13.0408252,11.9380548 12.9949019,12.0914656 12.9949019,12.3127694 L12.9949019,13.0068727 C12.9949019,13.2281765 13.0408252,13.381577 13.1326718,13.4670742 C13.2244974,13.5525919 13.3826532,13.5953508 13.6071392,13.5953508 Z M5.7398078,13.5953508 L6.44389158,13.5953508 C6.66837751,13.5953508 6.82653331,13.5525919 6.91835897,13.4670742 C7.01020552,13.381577 7.0561288,13.2281765 7.0561288,13.0068727 L7.0561288,12.3127694 C7.0561288,12.0914656 7.01020552,11.9380548 6.91835897,11.852537 C6.82653331,11.7670398 6.66837751,11.7242912 6.44389158,11.7242912 L5.7398078,11.7242912 C5.51532187,11.7242912 5.35715562,11.7670398 5.26530907,11.852537 C5.17346251,11.9380548 5.12753923,12.0914656 5.12753923,12.3127694 L5.12753923,13.0068727 C5.12753923,13.2281765 5.17346251,13.381577 5.26530907,13.4670742 C5.35715562,13.5525919 5.51532187,13.5953508 5.7398078,13.5953508 Z M5.7398078,17.4129033 L6.44389158,17.4129033 C6.66837751,17.4129033 6.82653331,17.3701444 6.91835897,17.2846266 C7.01020552,17.1991294 7.0561288,17.0457289 7.0561288,16.8244251 L7.0561288,16.1303219 C7.0561288,15.9090181 7.01020552,15.7556073 6.91835897,15.6700895 C6.82653331,15.5845923 6.66837751,15.5418437 6.44389158,15.5418437 L5.7398078,15.5418437 C5.51532187,15.5418437 5.35715562,15.5845923 5.26530907,15.6700895 C5.17346251,15.7556073 5.12753923,15.9090181 5.12753923,16.1303219 L5.12753923,16.8244251 C5.12753923,17.0457289 5.17346251,17.1991294 5.26530907,17.2846266 C5.35715562,17.3701444 5.51532187,17.4129033 5.7398078,17.4129033 Z M13.6071392,17.4129033 L14.3112229,17.4129033 C14.5357089,17.4129033 14.6938751,17.3701444 14.7857217,17.2846266 C14.8775473,17.1991294 14.9234602,17.0457289 14.9234602,16.8244251 L14.9234602,16.1303219 C14.9234602,15.9090181 14.8775473,15.7556073 14.7857217,15.6700895 C14.6938751,15.5845923 14.5357089,15.5418437 14.3112229,15.5418437 L13.6071392,15.5418437 C13.3826532,15.5418437 13.2244974,15.5845923 13.1326718,15.6700895 C13.0408252,15.7556073 12.9949019,15.9090181 12.9949019,16.1303219 L12.9949019,16.8244251 C12.9949019,17.0457289 13.0408252,17.1991294 13.1326718,17.2846266 C13.2244974,17.3701444 13.3826532,17.4129033 13.6071392,17.4129033 Z" id="Shape"></path>
        </g>
    </g>
</svg>