<svg version="1.1" xmlns="http://www.w3.org/2000/svg" xmlns:xlink="http://www.w3.org/1999/xlink" width="25.8008" height="25.459" viewBox="0 0 25.8008 25.459">
 <g>
  <rect height="25.459" opacity="0" width="25.8008" x="0" y="0"/>
  <path d="M25.4395 12.7246C25.4395 19.6777 19.6777 25.4395 12.7148 25.4395C5.76172 25.4395 0 19.6777 0 12.7246C0 5.76172 5.75195 0 12.7051 0C19.668 0 25.4395 5.76172 25.4395 12.7246ZM8.28125 12.7246C8.28125 16.3574 10.0586 18.8086 12.7148 18.8086C15.3711 18.8086 17.1582 16.3574 17.1582 12.7246C17.1582 9.08203 15.3711 6.64062 12.7148 6.64062C10.0586 6.64062 8.28125 9.08203 8.28125 12.7246ZM15.4395 12.7246C15.4395 15.4883 14.3359 17.3535 12.7148 17.3535C11.0938 17.3535 9.99023 15.4883 9.99023 12.7246C9.99023 9.95117 11.0938 8.08594 12.7148 8.08594C14.3359 8.08594 15.4395 9.95117 15.4395 12.7246Z" fill="currentColor"/>
 </g>
</svg>
