<svg version="1.1" xmlns="http://www.w3.org/2000/svg" xmlns:xlink="http://www.w3.org/1999/xlink" width="23.3203" height="22.9785" viewBox="0 0 23.3203 22.9785">
 <g>
  <rect height="22.9785" opacity="0" width="23.3203" x="0" y="0"/>
  <path d="M22.959 3.78906L22.959 19.2188C22.959 21.709 21.6797 22.9785 19.1504 22.9785L3.79883 22.9785C1.2793 22.9785 0 21.7188 0 19.2188L0 3.78906C0 1.28906 1.2793 0.0292969 3.79883 0.0292969L19.1504 0.0292969C21.6797 0.0292969 22.959 1.29883 22.959 3.78906ZM6.91406 6.58203L5.41016 7.77344C5.20508 7.92969 5.04883 8.14453 5.04883 8.4375C5.04883 8.79883 5.29297 9.05273 5.64453 9.05273C5.83008 9.05273 5.9375 8.99414 6.05469 8.90625L7.33398 7.87109L7.33398 16.0059C7.33398 16.4648 7.70508 16.8359 8.17383 16.8359C8.61328 16.8359 8.99414 16.4648 8.99414 16.0059L8.99414 7.03125C8.99414 6.45508 8.62305 6.10352 8.04688 6.10352C7.56836 6.10352 7.1875 6.36719 6.91406 6.58203ZM10.9863 8.73047C10.9863 9.14062 11.2305 9.45312 11.6699 9.45312C12.0508 9.45312 12.2754 9.27734 12.3926 8.90625C12.6172 7.95898 12.9785 7.34375 13.7891 7.34375C14.6582 7.34375 15.1074 8.13477 15.1074 9.0625C15.1074 10.0879 14.4727 11.0938 13.7598 12.0312L11.377 15.1367C11.1621 15.4102 10.9668 15.6934 10.9668 16.0449C10.9668 16.4258 11.2305 16.709 11.7383 16.709L16.2109 16.709C16.6113 16.709 16.8652 16.4355 16.8652 16.0352C16.8652 15.6055 16.6016 15.3613 16.2109 15.3613L12.998 15.3613L12.998 15.2637L15.0195 12.627C16.25 11.0645 16.6504 10.1172 16.6504 8.99414C16.6504 7.28516 15.5371 6.01562 13.7988 6.01562C12.168 6.01562 10.9863 7.38281 10.9863 8.73047Z" fill="currentColor"/>
 </g>
</svg>
