<svg version="1.1" xmlns="http://www.w3.org/2000/svg" xmlns:xlink="http://www.w3.org/1999/xlink" width="23.3203" height="22.9785" viewBox="0 0 23.3203 22.9785">
 <g>
  <rect height="22.9785" opacity="0" width="23.3203" x="0" y="0"/>
  <path d="M22.959 3.78906L22.959 19.2188C22.959 21.709 21.6797 22.9785 19.1504 22.9785L3.79883 22.9785C1.2793 22.9785 0 21.7188 0 19.2188L0 3.78906C0 1.28906 1.2793 0.0292969 3.79883 0.0292969L19.1504 0.0292969C21.6797 0.0292969 22.959 1.29883 22.959 3.78906ZM13.3301 7.22656L10.8301 12.5293C10.6348 12.9688 10.5664 13.2617 10.5664 13.623C10.5664 14.1797 10.9473 14.5605 11.5234 14.5605L14.5215 14.5605L14.5215 16.0449C14.5215 16.6309 14.9316 16.8652 15.3125 16.8652C15.7422 16.8652 16.084 16.582 16.084 16.0449L16.084 14.5605L16.6309 14.5605C17.0703 14.5605 17.2852 14.2773 17.2852 13.8867C17.2852 13.5156 17.0801 13.2324 16.6309 13.2324L16.084 13.2324L16.084 7.33398C16.084 6.51367 15.5566 6.10352 14.834 6.10352C14.0332 6.10352 13.6523 6.51367 13.3301 7.22656ZM6.5625 6.57227L5.05859 7.77344C4.85352 7.92969 4.69727 8.14453 4.69727 8.4375C4.69727 8.79883 4.94141 9.05273 5.29297 9.05273C5.47852 9.05273 5.58594 8.99414 5.70312 8.89648L6.98242 7.87109L6.98242 15.9961C6.98242 16.4648 7.36328 16.8359 7.82227 16.8359C8.26172 16.8359 8.64258 16.4648 8.64258 15.9961L8.64258 7.03125C8.64258 6.45508 8.27148 6.10352 7.69531 6.10352C7.22656 6.10352 6.83594 6.36719 6.5625 6.57227ZM14.5508 13.2617L11.9824 13.2617L11.9824 13.1934L14.502 7.58789L14.5508 7.58789Z" fill="currentColor"/>
 </g>
</svg>
