<?xml version="1.0" encoding="UTF-8"?>
<!--Generator: Apple Native CoreSVG 232.5-->
<!DOCTYPE svg
PUBLIC "-//W3C//DTD SVG 1.1//EN"
       "http://www.w3.org/Graphics/SVG/1.1/DTD/svg11.dtd">
<svg version="1.1" xmlns="http://www.w3.org/2000/svg" xmlns:xlink="http://www.w3.org/1999/xlink" width="23.3203" height="22.9785">
 <g>
  <rect height="22.9785" opacity="0" width="23.3203" x="0" y="0"/>
  <path d="M3.79883 22.9785L19.1504 22.9785C21.6797 22.9785 22.959 21.709 22.959 19.2188L22.959 3.78906C22.959 1.29883 21.6797 0.0292969 19.1504 0.0292969L3.79883 0.0292969C1.2793 0.0292969 0 1.28906 0 3.78906L0 19.2188C0 21.7188 1.2793 22.9785 3.79883 22.9785ZM3.83789 21.25C2.4707 21.25 1.72852 20.5273 1.72852 19.1309L1.72852 3.87695C1.72852 2.48047 2.4707 1.75781 3.83789 1.75781L19.1211 1.75781C20.459 1.75781 21.2305 2.48047 21.2305 3.87695L21.2305 19.1309C21.2305 20.5273 20.459 21.25 19.1211 21.25Z" fill="#ffffff" fill-opacity="0.85"/>
  <path d="M8.14453 16.709C8.57422 16.709 8.93555 16.3477 8.93555 15.8984L8.93555 7.12891C8.93555 6.57227 8.58398 6.24023 8.02734 6.24023C7.55859 6.24023 7.1875 6.48438 6.92383 6.69922L5.44922 7.86133C5.25391 8.01758 5.10742 8.22266 5.10742 8.50586C5.10742 8.85742 5.3418 9.10156 5.67383 9.10156C5.84961 9.10156 5.95703 9.04297 6.07422 8.95508L7.33398 7.94922L7.33398 15.8984C7.33398 16.3477 7.69531 16.709 8.14453 16.709ZM13.916 16.8262C15.8301 16.8262 16.8652 15.166 16.8652 13.2227C16.8652 11.4941 16.0352 9.88281 14.4141 9.88281C13.6914 9.88281 12.9785 10.2246 12.6465 10.9961L12.5879 10.9961L12.8223 7.70508L15.8398 7.70508C16.2305 7.70508 16.4648 7.43164 16.4648 7.05078C16.4648 6.67969 16.2109 6.39648 15.8398 6.39648L12.4023 6.39648C11.8066 6.39648 11.543 6.77734 11.4941 7.36328L11.2695 10.9668C11.25 11.1621 11.25 11.3672 11.25 11.5234C11.25 11.9531 11.4746 12.3242 11.9824 12.3242C12.3047 12.3242 12.4805 12.1777 12.7051 11.8652C13.0078 11.3965 13.3691 11.0645 13.9258 11.0645C14.9219 11.0645 15.332 12.2656 15.332 13.2617C15.332 14.3848 14.9023 15.5273 13.8965 15.5273C13.1348 15.5273 12.666 14.9414 12.4512 14.1895C12.3242 13.8086 12.0801 13.6426 11.7773 13.6426C11.3672 13.6426 11.1133 13.9062 11.1133 14.3164C11.1133 14.5605 11.1816 14.8242 11.2695 15.0488C11.6797 16.1035 12.7539 16.8262 13.916 16.8262Z" fill="#ffffff" fill-opacity="0.85"/>
 </g>
</svg>
