<?xml version="1.0" encoding="UTF-8"?>
<!--Generator: Apple Native CoreSVG 232.5-->
<!DOCTYPE svg
PUBLIC "-//W3C//DTD SVG 1.1//EN"
       "http://www.w3.org/Graphics/SVG/1.1/DTD/svg11.dtd">
<svg version="1.1" xmlns="http://www.w3.org/2000/svg" xmlns:xlink="http://www.w3.org/1999/xlink" width="23.3203" height="22.9785">
 <g>
  <rect height="22.9785" opacity="0" width="23.3203" x="0" y="0"/>
  <path d="M22.959 3.78906L22.959 19.2188C22.959 21.709 21.6797 22.9785 19.1504 22.9785L3.79883 22.9785C1.2793 22.9785 0 21.7188 0 19.2188L0 3.78906C0 1.28906 1.2793 0.0292969 3.79883 0.0292969L19.1504 0.0292969C21.6797 0.0292969 22.959 1.29883 22.959 3.78906ZM11.9727 6.25977C11.582 6.25977 11.3086 6.54297 11.3086 6.93359C11.3086 7.33398 11.582 7.61719 11.9727 7.61719L15.4395 7.61719L15.4395 7.72461L12.4609 15.4785C12.3633 15.7422 12.3242 15.8887 12.3242 16.1523C12.3242 16.5039 12.5488 16.8652 13.0664 16.8652C13.4961 16.8652 13.6816 16.6992 13.8379 16.2793L16.8945 8.11523C17.0117 7.77344 17.0996 7.49023 17.0996 7.14844C17.0996 6.61133 16.6992 6.25977 16.1621 6.25977ZM7.36328 6.57227L5.85938 7.77344C5.6543 7.92969 5.50781 8.14453 5.50781 8.4375C5.50781 8.79883 5.74219 9.05273 6.09375 9.05273C6.26953 9.05273 6.38672 8.99414 6.50391 8.89648L7.79297 7.87109L7.79297 15.9961C7.79297 16.4648 8.16406 16.8359 8.62305 16.8359C9.07227 16.8359 9.44336 16.4648 9.44336 15.9961L9.44336 7.03125C9.44336 6.45508 9.08203 6.10352 8.49609 6.10352C8.01758 6.10352 7.63672 6.36719 7.36328 6.57227Z" fill="#ffffff" fill-opacity="0.85"/>
 </g>
</svg>
