<?xml version="1.0" encoding="UTF-8"?>
<!--Generator: Apple Native CoreSVG 232.5-->
<!DOCTYPE svg
PUBLIC "-//W3C//DTD SVG 1.1//EN"
       "http://www.w3.org/Graphics/SVG/1.1/DTD/svg11.dtd">
<svg version="1.1" xmlns="http://www.w3.org/2000/svg" xmlns:xlink="http://www.w3.org/1999/xlink" width="23.3203" height="22.9785">
 <g>
  <rect height="22.9785" opacity="0" width="23.3203" x="0" y="0"/>
  <path d="M22.959 3.78906L22.959 19.2188C22.959 21.709 21.6797 22.9785 19.1504 22.9785L3.79883 22.9785C1.2793 22.9785 0 21.7188 0 19.2188L0 3.78906C0 1.28906 1.2793 0.0292969 3.79883 0.0292969L19.1504 0.0292969C21.6797 0.0292969 22.959 1.29883 22.959 3.78906ZM11.2012 8.83789C11.2012 10.1074 11.9629 10.9082 12.832 11.1719L12.832 11.2109C11.7383 11.4648 10.9082 12.5098 10.9082 13.8867C10.9082 15.7422 12.2754 16.9141 14.1504 16.9141C16.123 16.9141 17.3926 15.6348 17.3926 13.8867C17.3926 12.5 16.5332 11.4551 15.498 11.2109L15.498 11.1719C16.3867 10.8984 17.1094 10.0293 17.1094 8.84766C17.1094 7.2168 15.918 6.06445 14.1504 6.06445C12.5586 6.06445 11.2012 7.08008 11.2012 8.83789ZM6.79688 6.57227L5.29297 7.77344C5.08789 7.92969 4.94141 8.14453 4.94141 8.4375C4.94141 8.79883 5.17578 9.05273 5.52734 9.05273C5.71289 9.05273 5.82031 8.99414 5.9375 8.89648L7.2168 7.87109L7.2168 15.9961C7.2168 16.4648 7.59766 16.8359 8.05664 16.8359C8.50586 16.8359 8.88672 16.4648 8.88672 15.9961L8.88672 7.03125C8.88672 6.45508 8.51562 6.10352 7.93945 6.10352C7.46094 6.10352 7.07031 6.36719 6.79688 6.57227ZM15.7031 13.7598C15.7031 14.7754 15.166 15.6641 14.1504 15.6641C13.1445 15.6641 12.6074 14.7754 12.6074 13.7598C12.6074 12.7441 13.1543 11.8945 14.1504 11.8945C15.1172 11.8945 15.7031 12.6855 15.7031 13.7598ZM15.5176 9.00391C15.5176 9.91211 15.0098 10.6445 14.1504 10.6445C13.3008 10.6445 12.793 9.87305 12.793 9.00391C12.793 8.0957 13.291 7.30469 14.1504 7.30469C15.0684 7.30469 15.5176 8.125 15.5176 9.00391Z" fill="#ffffff" fill-opacity="0.85"/>
 </g>
</svg>
