<?xml version="1.0" encoding="UTF-8"?>
<!--Generator: Apple Native CoreSVG 232.5-->
<!DOCTYPE svg
PUBLIC "-//W3C//DTD SVG 1.1//EN"
       "http://www.w3.org/Graphics/SVG/1.1/DTD/svg11.dtd">
<svg version="1.1" xmlns="http://www.w3.org/2000/svg" xmlns:xlink="http://www.w3.org/1999/xlink" width="23.3203" height="22.9785">
 <g>
  <rect height="22.9785" opacity="0" width="23.3203" x="0" y="0"/>
  <path d="M22.959 3.78906L22.959 19.2188C22.959 21.709 21.6797 22.9785 19.1504 22.9785L3.79883 22.9785C1.2793 22.9785 0 21.7188 0 19.2188L0 3.78906C0 1.28906 1.2793 0.0292969 3.79883 0.0292969L19.1504 0.0292969C21.6797 0.0292969 22.959 1.29883 22.959 3.78906ZM4.85352 7.94922C4.77539 8.20312 4.75586 8.42773 4.75586 8.64258C4.75586 9.01367 4.99023 9.31641 5.44922 9.31641C5.84961 9.31641 6.06445 9.15039 6.17188 8.75977C6.37695 7.94922 6.80664 7.38281 7.61719 7.38281C8.52539 7.38281 8.97461 8.0957 8.97461 9.01367C8.97461 10 8.4082 10.7422 7.38281 10.7422L7.02148 10.7422C6.63086 10.7422 6.39648 10.9863 6.39648 11.3574C6.39648 11.7285 6.65039 11.9629 7.02148 11.9629L7.40234 11.9629C8.56445 11.9629 9.20898 12.5977 9.20898 13.7891C9.20898 14.7461 8.70117 15.5762 7.66602 15.5762C6.66992 15.5762 6.19141 14.8828 6.04492 14.2383C5.92773 13.8477 5.70312 13.6523 5.32227 13.6523C4.87305 13.6523 4.58008 13.9258 4.58008 14.3652C4.58008 14.5898 4.61914 14.834 4.67773 15.0391C5.04883 16.2207 6.28906 16.9141 7.66602 16.9141C9.46289 16.9141 10.8301 15.752 10.8301 13.8379C10.8301 12.2852 9.93164 11.4355 8.7793 11.3184L8.7793 11.2793C9.95117 10.9668 10.5273 9.92188 10.5273 8.82812C10.5273 7.08984 9.25781 6.06445 7.61719 6.06445C6.29883 6.06445 5.21484 6.81641 4.85352 7.94922ZM12.5098 7.94922C12.4414 8.20312 12.4121 8.42773 12.4121 8.64258C12.4121 9.01367 12.666 9.31641 13.1152 9.31641C13.5156 9.31641 13.7305 9.15039 13.8477 8.75977C14.0332 7.94922 14.4824 7.38281 15.2734 7.38281C16.1816 7.38281 16.6406 8.0957 16.6406 9.01367C16.6406 10 16.0645 10.7422 15.0586 10.7422L14.6875 10.7422C14.2969 10.7422 14.0527 10.9863 14.0527 11.3574C14.0527 11.7285 14.3066 11.9629 14.6875 11.9629L15.0781 11.9629C16.2207 11.9629 16.875 12.5977 16.875 13.7891C16.875 14.7461 16.377 15.5762 15.3418 15.5762C14.3359 15.5762 13.8574 14.8828 13.7012 14.2383C13.6035 13.8477 13.3594 13.6523 12.9883 13.6523C12.5391 13.6523 12.2461 13.9258 12.2461 14.3652C12.2461 14.5898 12.2852 14.834 12.3535 15.0391C12.7148 16.2207 13.9551 16.9141 15.332 16.9141C17.1191 16.9141 18.4961 15.752 18.4961 13.8379C18.4961 12.2852 17.5879 11.4355 16.4551 11.3184L16.4551 11.2793C17.627 10.9668 18.1836 9.92188 18.1836 8.82812C18.1836 7.08984 16.9336 6.06445 15.2734 6.06445C13.9551 6.06445 12.8809 6.81641 12.5098 7.94922Z" fill="#ffffff" fill-opacity="0.85"/>
 </g>
</svg>
