<?xml version="1.0" encoding="UTF-8"?>
<!--Generator: Apple Native CoreSVG 232.5-->
<!DOCTYPE svg
PUBLIC "-//W3C//DTD SVG 1.1//EN"
       "http://www.w3.org/Graphics/SVG/1.1/DTD/svg11.dtd">
<svg version="1.1" xmlns="http://www.w3.org/2000/svg" xmlns:xlink="http://www.w3.org/1999/xlink" width="23.3203" height="22.9785">
 <g>
  <rect height="22.9785" opacity="0" width="23.3203" x="0" y="0"/>
  <path d="M3.79883 22.9785L19.1504 22.9785C21.6797 22.9785 22.959 21.709 22.959 19.2188L22.959 3.78906C22.959 1.29883 21.6797 0.0292969 19.1504 0.0292969L3.79883 0.0292969C1.2793 0.0292969 0 1.28906 0 3.78906L0 19.2188C0 21.7188 1.2793 22.9785 3.79883 22.9785ZM3.83789 21.25C2.4707 21.25 1.72852 20.5273 1.72852 19.1309L1.72852 3.87695C1.72852 2.48047 2.4707 1.75781 3.83789 1.75781L19.1211 1.75781C20.459 1.75781 21.2305 2.48047 21.2305 3.87695L21.2305 19.1309C21.2305 20.5273 20.459 21.25 19.1211 21.25Z" fill="#ffffff" fill-opacity="0.85"/>
  <path d="M8.16406 16.7871C9.92188 16.7871 11.25 15.6543 11.25 13.7793C11.25 12.2656 10.3711 11.4355 9.25781 11.3184L9.25781 11.2793C10.4004 10.9766 10.9473 9.96094 10.9473 8.88672C10.9473 7.19727 9.72656 6.19141 8.11523 6.19141C6.82617 6.19141 5.78125 6.92383 5.41992 8.03711C5.35156 8.28125 5.33203 8.50586 5.33203 8.71094C5.33203 9.07227 5.56641 9.36523 6.00586 9.36523C6.39648 9.36523 6.60156 9.20898 6.70898 8.81836C6.89453 8.02734 7.33398 7.4707 8.11523 7.4707C9.01367 7.4707 9.45312 8.17383 9.45312 9.07227C9.45312 10.0391 8.88672 10.7617 7.90039 10.7617L7.53906 10.7617C7.1582 10.7617 6.92383 10.9961 6.92383 11.3574C6.92383 11.7188 7.17773 11.9434 7.53906 11.9434L7.91992 11.9434C9.04297 11.9434 9.67773 12.5684 9.67773 13.7402C9.67773 14.6777 9.18945 15.4883 8.17383 15.4883C7.19727 15.4883 6.72852 14.8047 6.57227 14.1699C6.47461 13.7988 6.25 13.6035 5.87891 13.6035C5.44922 13.6035 5.15625 13.8672 5.15625 14.2969C5.15625 14.5117 5.19531 14.7559 5.26367 14.9512C5.625 16.1035 6.82617 16.7871 8.16406 16.7871ZM14.0918 16.7383C14.502 16.7383 14.6875 16.5625 14.834 16.1719L17.8125 8.18359C17.9297 7.85156 18.0176 7.57812 18.0176 7.24609C18.0176 6.73828 17.627 6.39648 17.1191 6.39648L13.0176 6.39648C12.6367 6.39648 12.3828 6.66992 12.3828 7.05078C12.3828 7.43164 12.6367 7.70508 13.0176 7.70508L16.416 7.70508L16.416 7.80273L13.5059 15.3906C13.4082 15.6348 13.3691 15.791 13.3691 16.0449C13.3691 16.3867 13.584 16.7383 14.0918 16.7383Z" fill="#ffffff" fill-opacity="0.85"/>
 </g>
</svg>
