<svg version="1.1" xmlns="http://www.w3.org/2000/svg" xmlns:xlink="http://www.w3.org/1999/xlink" width="23.3203" height="22.9785" viewBox="0 0 23.3203 22.9785">
 <g>
  <rect height="22.9785" opacity="0" width="23.3203" x="0" y="0"/>
  <path d="M22.959 3.78906L22.959 19.2188C22.959 21.709 21.6797 22.9785 19.1504 22.9785L3.79883 22.9785C1.2793 22.9785 0 21.7188 0 19.2188L0 3.78906C0 1.28906 1.2793 0.0292969 3.79883 0.0292969L19.1504 0.0292969C21.6797 0.0292969 22.959 1.29883 22.959 3.78906ZM10.6543 5.80078L10.6543 12.8711L10.7422 15.3906L9.375 13.8184L7.64648 12.0801C7.48047 11.9238 7.28516 11.8359 7.05078 11.8359C6.58203 11.8359 6.24023 12.1777 6.24023 12.6367C6.24023 12.8711 6.30859 13.0664 6.46484 13.2129L10.8594 17.5977C11.0742 17.8125 11.2598 17.9102 11.4941 17.9102C11.748 17.9102 11.9336 17.8027 12.1484 17.5977L16.5332 13.2129C16.6895 13.0664 16.7676 12.8711 16.7676 12.6367C16.7676 12.1777 16.416 11.8359 15.9473 11.8359C15.7129 11.8359 15.5078 11.9141 15.3516 12.0801L13.6328 13.8184L12.2461 15.4102L12.334 12.8711L12.334 5.80078C12.334 5.30273 11.9922 4.96094 11.4941 4.96094C11.0059 4.96094 10.6543 5.30273 10.6543 5.80078Z" fill="currentColor"/>
 </g>
</svg>
