<?xml version="1.0" encoding="UTF-8"?>
<!--Generator: Apple Native CoreSVG 232.5-->
<!DOCTYPE svg
PUBLIC "-//W3C//DTD SVG 1.1//EN"
       "http://www.w3.org/Graphics/SVG/1.1/DTD/svg11.dtd">
<svg version="1.1" xmlns="http://www.w3.org/2000/svg" xmlns:xlink="http://www.w3.org/1999/xlink" width="29.9512" height="22.959">
 <g>
  <rect height="22.959" opacity="0" width="29.9512" x="0" y="0"/>
  <path d="M3.79883 22.959L25.7812 22.959C28.3105 22.959 29.5898 21.6797 29.5898 19.1992L29.5898 3.76953C29.5898 1.2793 28.3105 0 25.7812 0L3.79883 0C1.2793 0 0 1.26953 0 3.76953L0 19.1992C0 21.6992 1.2793 22.959 3.79883 22.959ZM3.83789 21.2305C2.4707 21.2305 1.72852 20.5078 1.72852 19.1016L1.72852 3.85742C1.72852 2.46094 2.4707 1.72852 3.83789 1.72852L25.752 1.72852C27.0898 1.72852 27.8516 2.46094 27.8516 3.85742L27.8516 19.1016C27.8516 20.5078 27.0898 21.2305 25.752 21.2305Z" fill="#ffffff" fill-opacity="0.85"/>
  <path d="M4.66797 13.3594C4.66797 13.7695 5.01953 14.1309 5.44922 14.1309C5.63477 14.1309 5.82031 14.0527 6.02539 13.8477L11.3965 8.47656L12.5 7.29492L12.4023 10.4199L12.4023 11.709C12.4023 12.1777 12.7051 12.4902 13.1641 12.4902C13.6133 12.4902 13.9355 12.1777 13.9355 11.709L13.9355 5.66406C13.9355 5.19531 13.6035 4.88281 13.1348 4.88281L6.77734 4.88281C6.30859 4.88281 5.99609 5.18555 5.99609 5.64453C5.99609 6.10352 6.32812 6.41602 6.77734 6.41602L8.07617 6.41602L11.4941 6.29883L10.3223 7.40234L4.95117 12.7734C4.74609 12.9785 4.66797 13.1641 4.66797 13.3594ZM25.2344 9.58984C25.2344 9.17969 24.873 8.81836 24.4531 8.81836C24.2578 8.81836 24.0723 8.89648 23.8672 9.10156L18.4961 14.4727L17.3926 15.6543L17.5 12.5293L17.5 11.2402C17.5 10.7715 17.1875 10.459 16.7285 10.459C16.2793 10.459 15.9668 10.7715 15.9668 11.2402L15.9668 17.2852C15.9668 17.7539 16.2891 18.0664 16.7578 18.0664L23.1152 18.0664C23.584 18.0664 23.9062 17.7637 23.9062 17.3047C23.9062 16.8457 23.5645 16.5332 23.1152 16.5332L21.8262 16.5332L18.3984 16.6504L19.5801 15.5469L24.9512 10.1758C25.1465 9.9707 25.2344 9.78516 25.2344 9.58984Z" fill="#ffffff" fill-opacity="0.85"/>
 </g>
</svg>
