<?xml version="1.0" encoding="UTF-8"?>
<!--Generator: Apple Native CoreSVG 232.5-->
<!DOCTYPE svg
PUBLIC "-//W3C//DTD SVG 1.1//EN"
       "http://www.w3.org/Graphics/SVG/1.1/DTD/svg11.dtd">
<svg version="1.1" xmlns="http://www.w3.org/2000/svg" xmlns:xlink="http://www.w3.org/1999/xlink" width="23.3203" height="22.9785">
 <g>
  <rect height="22.9785" opacity="0" width="23.3203" x="0" y="0"/>
  <path d="M22.959 3.78906L22.959 19.2188C22.959 21.709 21.6797 22.9785 19.1504 22.9785L3.79883 22.9785C1.2793 22.9785 0 21.7188 0 19.2188L0 3.78906C0 1.28906 1.2793 0.0292969 3.79883 0.0292969L19.1504 0.0292969C21.6797 0.0292969 22.959 1.29883 22.959 3.78906ZM8.75977 5.07812L5.48828 8.38867C5.29297 8.59375 5.19531 8.84766 5.19531 9.10156C5.19531 9.35547 5.2832 9.58984 5.48828 9.80469L8.76953 13.1543C8.92578 13.3008 9.12109 13.3887 9.36523 13.3887C9.82422 13.3887 10.166 13.0273 10.166 12.5586C10.166 12.3242 10.0684 12.1191 9.91211 11.9531L8.19336 10.2832L7.60742 9.86328L8.88672 9.91211L12.832 9.91211C14.8145 9.91211 16.123 11.1035 16.123 12.9004C16.123 14.7852 14.7949 16.0547 12.8223 16.0547L11.0449 16.0547C10.5371 16.0547 10.1953 16.377 10.1953 16.8555C10.1953 17.3438 10.5469 17.666 11.0645 17.666L12.8223 17.666C15.7617 17.666 17.7441 15.7715 17.7441 12.9004C17.7441 10.1367 15.7715 8.30078 12.832 8.30078L8.88672 8.30078L7.59766 8.34961L8.38867 7.73438L9.91211 6.25C10.0684 6.10352 10.166 5.88867 10.166 5.66406C10.166 5.19531 9.83398 4.83398 9.35547 4.83398C9.11133 4.83398 8.92578 4.91211 8.75977 5.07812Z" fill="#ffffff" fill-opacity="0.85"/>
 </g>
</svg>
