<svg version="1.1" xmlns="http://www.w3.org/2000/svg" xmlns:xlink="http://www.w3.org/1999/xlink" width="23.3203" height="23.252" viewBox="0 0 23.3203 23.252">
 <g>
  <rect height="23.252" opacity="0" width="23.3203" x="0" y="0"/>
  <path d="M3.79883 22.959L19.1504 22.959C21.6797 22.959 22.959 21.6797 22.959 19.1992L22.959 3.75977C22.959 1.2793 21.6797 0 19.1504 0L3.79883 0C1.2793 0 0 1.26953 0 3.75977L0 19.1992C0 21.6895 1.2793 22.959 3.79883 22.959ZM3.83789 21.2305C2.4707 21.2305 1.72852 20.5078 1.72852 19.1016L1.72852 3.85742C1.72852 2.45117 2.4707 1.72852 3.83789 1.72852L19.1211 1.72852C20.459 1.72852 21.2305 2.45117 21.2305 3.85742L21.2305 19.1016C21.2305 20.5078 20.459 21.2305 19.1211 21.2305Z" fill="currentColor"/>
  <path d="M12.7344 5.13672C9.81445 5.13672 8.00781 7.23633 8.00781 10.1367L8.00781 14.1895L8.05664 15.6445L7.33398 14.7363L5.80078 13.1641C5.66406 13.0176 5.46875 12.9199 5.23438 12.9199C4.78516 12.9199 4.44336 13.252 4.44336 13.7012C4.44336 13.9258 4.52148 14.1113 4.6875 14.2578L8.08594 17.6074C8.27148 17.793 8.50586 17.9102 8.76953 17.9102C9.0332 17.9102 9.25781 17.793 9.44336 17.6074L12.8711 14.248C13.0273 14.1016 13.1055 13.916 13.1055 13.6914C13.1055 13.252 12.7637 12.9199 12.3145 12.9199C12.0996 12.9199 11.8945 12.998 11.748 13.1543L10.0195 14.9414L9.48242 15.6445L9.53125 14.1895L9.53125 10.1367C9.53125 8.18359 10.6738 6.72852 12.6562 6.72852C14.6777 6.72852 15.9473 8.1543 15.9473 10.1465C15.9473 10.3418 15.9473 11.9141 15.9473 11.9727C15.9473 12.4316 16.2207 12.7832 16.7188 12.7832C17.2168 12.7832 17.4902 12.4316 17.4902 11.9531C17.4902 11.8848 17.4902 10.3418 17.4902 10.1465C17.4902 7.24609 15.6543 5.13672 12.7344 5.13672Z" fill="currentColor"/>
 </g>
</svg>
