<svg version="1.1" xmlns="http://www.w3.org/2000/svg" xmlns:xlink="http://www.w3.org/1999/xlink" width="25.8008" height="25.459" viewBox="0 0 25.8008 25.459">
 <g>
  <rect height="25.459" opacity="0" width="25.8008" x="0" y="0"/>
  <path d="M12.7148 25.4395C19.6777 25.4395 25.4395 19.6777 25.4395 12.7246C25.4395 5.76172 19.668 0 12.7051 0C5.75195 0 0 5.76172 0 12.7246C0 19.6777 5.76172 25.4395 12.7148 25.4395ZM12.7148 23.623C6.67969 23.623 1.82617 18.7598 1.82617 12.7246C1.82617 6.67969 6.66992 1.82617 12.7051 1.82617C18.75 1.82617 23.6133 6.67969 23.6133 12.7246C23.6133 18.7598 18.7598 23.623 12.7148 23.623Z" fill="currentColor"/>
  <path d="M16.748 9.63867C16.2695 9.63867 15.9473 9.9707 15.9473 10.4785L15.9473 13.0371L16.0938 15.0684L14.4238 13.291L9.27734 8.14453C9.12109 7.98828 8.92578 7.89062 8.66211 7.89062C8.17383 7.89062 7.86133 8.20312 7.86133 8.69141C7.86133 8.91602 7.96875 9.13086 8.125 9.27734L13.2812 14.4336L15.0781 16.123L13.2422 15.9668L10.4688 15.9668C9.96094 15.9668 9.61914 16.2793 9.61914 16.7578C9.61914 17.2363 9.95117 17.5391 10.4492 17.5391L16.6504 17.5391C17.1875 17.5391 17.5391 17.2852 17.5391 16.6602L17.5391 10.498C17.5391 10 17.2168 9.63867 16.748 9.63867Z" fill="currentColor"/>
 </g>
</svg>
