<svg version="1.1" xmlns="http://www.w3.org/2000/svg" xmlns:xlink="http://www.w3.org/1999/xlink" width="23.3203" height="22.9785" viewBox="0 0 23.3203 22.9785">
 <g>
  <rect height="22.9785" opacity="0" width="23.3203" x="0" y="0"/>
  <path d="M22.959 3.78906L22.959 19.2188C22.959 21.709 21.6797 22.9785 19.1504 22.9785L3.79883 22.9785C1.2793 22.9785 0 21.7188 0 19.2188L0 3.78906C0 1.28906 1.2793 0.0292969 3.79883 0.0292969L19.1504 0.0292969C21.6797 0.0292969 22.959 1.29883 22.959 3.78906ZM6.65039 16.7969C6.21094 16.7969 5.9082 17.1094 5.9082 17.5293C5.9082 17.9883 6.21094 18.3008 6.65039 18.3008L16.3281 18.3008C16.7578 18.3008 17.0605 17.9883 17.0605 17.5293C17.0605 17.1094 16.7578 16.7969 16.3281 16.7969ZM10.7129 4.89258L10.7129 11.1133L10.8398 13.4961L8.4668 10.8984L7.5293 9.90234C7.39258 9.73633 7.20703 9.66797 6.97266 9.66797C6.5332 9.66797 6.24023 9.9707 6.24023 10.4004C6.24023 10.5957 6.33789 10.8301 6.48438 10.9766L10.9082 15.4688C11.0742 15.6543 11.2695 15.7324 11.4746 15.7324C11.6797 15.7324 11.875 15.6348 12.041 15.4688L16.4648 10.9961C16.6504 10.8203 16.7285 10.625 16.7285 10.4004C16.7285 9.99023 16.4355 9.66797 16.0059 9.66797C15.791 9.66797 15.5859 9.73633 15.4395 9.90234L14.4336 10.918L12.1094 13.4863L12.2266 11.1133L12.2266 4.89258C12.2266 4.45312 11.9043 4.13086 11.4746 4.13086C11.0156 4.13086 10.7129 4.45312 10.7129 4.89258Z" fill="currentColor"/>
 </g>
</svg>
