<svg version="1.1" xmlns="http://www.w3.org/2000/svg" xmlns:xlink="http://www.w3.org/1999/xlink" width="23.3203" height="22.9785" viewBox="0 0 23.3203 22.9785">
 <g>
  <rect height="22.9785" opacity="0" width="23.3203" x="0" y="0"/>
  <path d="M3.79883 22.9785L19.1504 22.9785C21.6797 22.9785 22.959 21.709 22.959 19.2188L22.959 3.78906C22.959 1.29883 21.6797 0.0292969 19.1504 0.0292969L3.79883 0.0292969C1.2793 0.0292969 0 1.28906 0 3.78906L0 19.2188C0 21.7188 1.2793 22.9785 3.79883 22.9785ZM3.83789 21.25C2.4707 21.25 1.72852 20.5273 1.72852 19.1309L1.72852 3.87695C1.72852 2.48047 2.4707 1.75781 3.83789 1.75781L19.1211 1.75781C20.459 1.75781 21.2305 2.48047 21.2305 3.87695L21.2305 19.1309C21.2305 20.5273 20.459 21.25 19.1211 21.25Z" fill="currentColor"/>
  <path d="M6.55273 13.9844C6.55273 14.2969 6.76758 14.541 7.09961 14.541L7.82227 14.541L7.11914 16.5625C7.08008 16.7285 7.06055 16.8359 7.06055 16.9238C7.06055 17.3047 7.35352 17.5781 7.76367 17.5781C8.11523 17.5781 8.34961 17.4121 8.45703 17.0508L9.27734 14.541L13.6719 14.541L14.4922 17.0605C14.5996 17.4219 14.8145 17.5781 15.1758 17.5781C15.5957 17.5781 15.8887 17.3047 15.8887 16.9238C15.8887 16.8359 15.8691 16.7285 15.8105 16.5625L15.1172 14.541L15.8398 14.541C16.1816 14.541 16.3965 14.2969 16.3965 13.9844C16.3965 13.6719 16.1816 13.4277 15.8398 13.4277L14.7559 13.4277L14.3848 12.3145L15.8398 12.3145C16.1816 12.3145 16.3965 12.0703 16.3965 11.7578C16.3965 11.4453 16.1816 11.2012 15.8398 11.2012L14.0039 11.2012L12.3145 6.19141C12.1777 5.80078 11.9141 5.55664 11.4746 5.55664C11.0254 5.55664 10.7617 5.79102 10.625 6.19141L8.93555 11.2012L7.09961 11.2012C6.76758 11.2012 6.55273 11.4453 6.55273 11.7578C6.55273 12.0703 6.76758 12.3145 7.09961 12.3145L8.55469 12.3145L8.18359 13.4277L7.09961 13.4277C6.76758 13.4277 6.55273 13.6719 6.55273 13.9844ZM9.61914 13.4277L9.98047 12.3145L12.9688 12.3145L13.3301 13.4277ZM10.332 11.2012L11.4746 7.68555L12.6172 11.2012Z" fill="currentColor"/>
 </g>
</svg>
