<svg version="1.1" xmlns="http://www.w3.org/2000/svg" xmlns:xlink="http://www.w3.org/1999/xlink" width="23.3203" height="22.9785" viewBox="0 0 23.3203 22.9785">
 <g>
  <rect height="22.9785" opacity="0" width="23.3203" x="0" y="0"/>
  <path d="M22.959 3.78906L22.959 19.2188C22.959 21.709 21.6797 22.9785 19.1504 22.9785L3.79883 22.9785C1.2793 22.9785 0 21.7188 0 19.2188L0 3.78906C0 1.28906 1.2793 0.0292969 3.79883 0.0292969L19.1504 0.0292969C21.6797 0.0292969 22.959 1.29883 22.959 3.78906ZM11.5332 4.94141L11.5332 5.9375L10.7031 5.9375L10.7031 4.94141C10.7031 4.61914 10.4688 4.39453 10.166 4.39453C9.85352 4.39453 9.60938 4.61914 9.60938 4.94141L9.60938 5.9375L8.93555 5.9375C8.42773 5.9375 8.07617 6.28906 8.07617 6.79688L8.07617 16.5234C8.07617 17.041 8.41797 17.3828 8.93555 17.3828L9.60938 17.3828L9.60938 18.4277C9.60938 18.7598 9.85352 18.9844 10.166 18.9844C10.4688 18.9844 10.7031 18.7598 10.7031 18.4277L10.7031 17.3828L11.5332 17.3828L11.5332 18.4277C11.5332 18.7598 11.7773 18.9844 12.0801 18.9844C12.3926 18.9844 12.627 18.7598 12.627 18.4277L12.627 17.3535C14.7168 17.1582 15.9473 15.9766 15.9473 14.1602C15.9473 12.7734 15.0977 11.7383 13.8086 11.3477C14.7559 10.9082 15.3906 9.92188 15.3906 8.84766C15.3906 7.31445 14.3066 6.21094 12.627 5.97656L12.627 4.94141C12.627 4.61914 12.3926 4.39453 12.0801 4.39453C11.7773 4.39453 11.5332 4.61914 11.5332 4.94141ZM14.541 14.1113C14.541 15.3809 13.584 16.0742 11.8652 16.084L9.47266 16.0938L9.47266 12.1289L11.7188 12.1289C13.5449 12.1289 14.541 12.8223 14.541 14.1113ZM13.9648 8.94531C13.9648 10.1562 13.0469 10.8594 11.4551 10.8496L9.47266 10.8398L9.47266 7.20703L11.7578 7.20703C13.1445 7.20703 13.9648 7.85156 13.9648 8.94531Z" fill="currentColor"/>
 </g>
</svg>
