<svg version="1.1" xmlns="http://www.w3.org/2000/svg" xmlns:xlink="http://www.w3.org/1999/xlink" width="23.3203" height="22.9785" viewBox="0 0 23.3203 22.9785">
 <g>
  <rect height="22.9785" opacity="0" width="23.3203" x="0" y="0"/>
  <path d="M22.959 3.78906L22.959 19.2188C22.959 21.709 21.6797 22.9785 19.1504 22.9785L3.79883 22.9785C1.2793 22.9785 0 21.7188 0 19.2188L0 3.78906C0 1.28906 1.2793 0.0292969 3.79883 0.0292969L19.1504 0.0292969C21.6797 0.0292969 22.959 1.29883 22.959 3.78906ZM8.83789 4.76562C7.61719 4.76562 6.98242 5.41016 6.98242 6.64062L6.98242 17.5684C6.98242 18.0371 7.23633 18.3203 7.63672 18.3203C7.92969 18.3203 8.10547 18.1543 8.61328 17.6562L11.4258 14.8535C11.4551 14.8145 11.5137 14.8145 11.543 14.8535L14.3555 17.6562C14.8633 18.1543 15.0391 18.3203 15.3418 18.3203C15.7324 18.3203 15.9863 18.0371 15.9863 17.5684L15.9863 6.64062C15.9863 5.41016 15.3516 4.76562 14.1309 4.76562Z" fill="currentColor"/>
 </g>
</svg>
