<?xml version="1.0" encoding="UTF-8"?>
<!--Generator: Apple Native CoreSVG 232.5-->
<!DOCTYPE svg
PUBLIC "-//W3C//DTD SVG 1.1//EN"
       "http://www.w3.org/Graphics/SVG/1.1/DTD/svg11.dtd">
<svg version="1.1" xmlns="http://www.w3.org/2000/svg" xmlns:xlink="http://www.w3.org/1999/xlink" width="19.8926" height="26.6699">
 <g>
  <rect height="26.6699" opacity="0" width="19.8926" x="0" y="0"/>
  <path d="M0 24.5312C0 25.8594 0.742188 26.6699 1.98242 26.6699L17.5488 26.6699C18.7891 26.6699 19.5312 25.8594 19.5312 24.5312L19.5312 2.1582C19.5312 0.830078 18.7891 0.0195312 17.5488 0.0195312L1.98242 0.0195312C0.742188 0.0195312 0 0.830078 0 2.1582ZM1.72852 24.1602L1.72852 2.51953C1.72852 1.98242 1.97266 1.74805 2.50977 1.74805L17.0215 1.74805C17.5684 1.74805 17.8027 1.98242 17.8027 2.51953L17.8027 24.1602C17.8027 24.707 17.5684 24.9414 17.0215 24.9414L2.50977 24.9414C1.97266 24.9414 1.72852 24.707 1.72852 24.1602ZM5.41016 25.7715L6.8457 25.7715L6.8457 21.6504C6.8457 21.3477 6.99219 21.2012 7.30469 21.2012L12.2363 21.2012C12.5391 21.2012 12.6953 21.3477 12.6953 21.6504L12.6953 25.7715L14.1309 25.7715L14.1309 21.2891C14.1309 20.2441 13.6621 19.7656 12.666 19.7656L6.875 19.7656C5.86914 19.7656 5.41016 20.2441 5.41016 21.2891ZM5.5957 7.43164L8.1543 7.43164C8.4375 7.43164 8.62305 7.23633 8.62305 6.94336L8.62305 4.45312C8.62305 4.16992 8.4375 3.97461 8.1543 3.97461L5.5957 3.97461C5.3125 3.97461 5.13672 4.16992 5.13672 4.45312L5.13672 6.94336C5.13672 7.23633 5.3125 7.43164 5.5957 7.43164ZM11.3672 7.43164L13.9258 7.43164C14.209 7.43164 14.3945 7.23633 14.3945 6.94336L14.3945 4.45312C14.3945 4.16992 14.209 3.97461 13.9258 3.97461L11.3672 3.97461C11.084 3.97461 10.9082 4.16992 10.9082 4.45312L10.9082 6.94336C10.9082 7.23633 11.084 7.43164 11.3672 7.43164ZM5.5957 12.5586L8.1543 12.5586C8.4375 12.5586 8.62305 12.3633 8.62305 12.0703L8.62305 9.58008C8.62305 9.29688 8.4375 9.10156 8.1543 9.10156L5.5957 9.10156C5.3125 9.10156 5.13672 9.29688 5.13672 9.58008L5.13672 12.0703C5.13672 12.3633 5.3125 12.5586 5.5957 12.5586ZM11.3672 12.5586L13.9258 12.5586C14.209 12.5586 14.3945 12.3633 14.3945 12.0703L14.3945 9.58008C14.3945 9.29688 14.209 9.10156 13.9258 9.10156L11.3672 9.10156C11.084 9.10156 10.9082 9.29688 10.9082 9.58008L10.9082 12.0703C10.9082 12.3633 11.084 12.5586 11.3672 12.5586ZM5.5957 17.6758L8.1543 17.6758C8.4375 17.6758 8.62305 17.4902 8.62305 17.1973L8.62305 14.707C8.62305 14.4238 8.4375 14.2285 8.1543 14.2285L5.5957 14.2285C5.3125 14.2285 5.13672 14.4238 5.13672 14.707L5.13672 17.1973C5.13672 17.4902 5.3125 17.6758 5.5957 17.6758ZM11.3672 17.6758L13.9258 17.6758C14.209 17.6758 14.3945 17.4902 14.3945 17.1973L14.3945 14.707C14.3945 14.4238 14.209 14.2285 13.9258 14.2285L11.3672 14.2285C11.084 14.2285 10.9082 14.4238 10.9082 14.707L10.9082 17.1973C10.9082 17.4902 11.084 17.6758 11.3672 17.6758Z" fill="#ffffff" fill-opacity="0.85"/>
 </g>
</svg>
