<svg version="1.1" xmlns="http://www.w3.org/2000/svg" xmlns:xlink="http://www.w3.org/1999/xlink" width="23.3203" height="22.9785" viewBox="0 0 23.3203 22.9785">
 <g>
  <rect height="22.9785" opacity="0" width="23.3203" x="0" y="0"/>
  <path d="M22.959 3.78906L22.959 19.2188C22.959 21.709 21.6797 22.9785 19.1504 22.9785L3.79883 22.9785C1.2793 22.9785 0 21.7188 0 19.2188L0 3.78906C0 1.28906 1.2793 0.0292969 3.79883 0.0292969L19.1504 0.0292969C21.6797 0.0292969 22.959 1.29883 22.959 3.78906ZM6.14258 11.3965C6.14258 15.0977 8.25195 17.5 11.5332 17.5C13.7891 17.5 15.625 16.3672 16.1816 14.6191C16.25 14.3848 16.2695 14.2383 16.2695 14.0723C16.2695 13.584 15.9766 13.291 15.498 13.291C15.1465 13.291 14.9219 13.4668 14.7461 13.8672C14.2773 15.2246 13.1152 16.0059 11.5527 16.0059C9.4043 16.0059 7.94922 14.1504 7.94922 11.3965C7.94922 8.65234 9.4043 6.77734 11.5527 6.77734C13.1152 6.77734 14.2871 7.56836 14.7461 8.91602C14.9219 9.31641 15.1465 9.49219 15.498 9.49219C15.9766 9.49219 16.2695 9.19922 16.2695 8.71094C16.2695 8.52539 16.25 8.39844 16.1816 8.16406C15.6152 6.43555 13.7793 5.2832 11.5332 5.2832C8.26172 5.2832 6.14258 7.69531 6.14258 11.3965Z" fill="currentColor"/>
 </g>
</svg>
