<svg version="1.1" xmlns="http://www.w3.org/2000/svg" xmlns:xlink="http://www.w3.org/1999/xlink" width="44.3945" height="30.3882" viewBox="0 0 44.3945 30.3882">
 <g>
  <rect height="30.3882" opacity="0" width="44.3945" x="0" y="0"/>
  <path d="M13.1641 21.4295C13.1641 23.3435 11.6602 24.8474 9.74609 24.8474C7.8418 24.8474 6.32812 23.3337 6.32812 21.4295C6.32812 19.5252 7.8418 18.0115 9.74609 18.0115C11.6504 18.0115 13.1641 19.5252 13.1641 21.4295ZM38.3984 21.4295C38.3984 23.3337 36.8848 24.8474 34.9805 24.8474C33.0859 24.8474 31.5625 23.3337 31.5625 21.4295C31.5625 19.5349 33.0957 18.0115 34.9805 18.0115C36.8848 18.0115 38.3984 19.5252 38.3984 21.4295ZM38.7109 10.0916L41.3086 10.8533C43.457 11.5173 44.0332 12.8943 44.0332 14.6228L44.0332 19.6716C44.0332 21.4587 42.9883 22.5427 41.25 22.5427L39.6289 22.5427C39.707 22.1912 39.7656 21.8201 39.7656 21.4295C39.7656 18.7634 37.6562 16.6541 34.9805 16.6541C32.3145 16.6541 30.2051 18.7634 30.2051 21.4295C30.2051 21.8201 30.2539 22.1912 30.332 22.5427L14.3945 22.5427C14.4727 22.1912 14.5215 21.8201 14.5215 21.4295C14.5215 18.7634 12.4121 16.6541 9.74609 16.6541C7.08008 16.6541 4.9707 18.7634 4.9707 21.4295C4.9707 21.8201 5.01953 22.1912 5.09766 22.5427L3.17383 22.5427C1.10352 22.5427 0 21.4099 0 19.2908L0 16.8396C0 13.9685 1.95312 12.0447 5.2832 11.6443L10.9473 10.9412L16.0059 7.76734C19.0527 5.86305 21.0645 5.37476 26.2012 5.37476L29.1309 5.37476C34.3066 5.37476 37.1094 8.1775 38.7109 10.0916ZM21.8164 13.5486L19.082 18.0408C18.7598 18.5681 19.0039 19.0759 19.6289 19.0759L25.2539 19.0759C25.8691 19.0759 26.1426 18.5681 25.8203 18.0408L23.0664 13.5486C22.7539 13.0408 22.1289 13.031 21.8164 13.5486Z" fill="currentColor"/>
  <path d="M25.8203 25.5115L23.0664 30.0037C22.7539 30.5115 22.1289 30.5212 21.8164 30.0037L19.082 25.5115C18.7598 24.9841 19.0039 24.4763 19.6289 24.4763L25.2539 24.4763C25.8691 24.4763 26.1426 24.9841 25.8203 25.5115Z" fill="currentColor"/>
 </g>
</svg>
