<?xml version="1.0" encoding="UTF-8"?>
<!--Generator: Apple Native CoreSVG 232.5-->
<!DOCTYPE svg
PUBLIC "-//W3C//DTD SVG 1.1//EN"
       "http://www.w3.org/Graphics/SVG/1.1/DTD/svg11.dtd">
<svg version="1.1" xmlns="http://www.w3.org/2000/svg" xmlns:xlink="http://www.w3.org/1999/xlink" width="25.6348" height="27.3316">
 <g>
  <rect height="27.3316" opacity="0" width="25.6348" x="0" y="0"/>
  <path d="M11.8945 4.35426L13.3789 4.35426L13.3789 1.22926L11.8945 1.22926ZM11.8945 8.9734L13.3789 8.9734L13.3789 5.5652L11.8945 5.5652ZM11.8945 13.2605L13.3789 13.2605L13.3789 10.1843L11.8945 10.1843ZM9.51172 16.3855L12.2949 14.9793L11.6211 13.6414L8.83789 15.0476ZM5.38086 18.4558L8.41797 16.9226L7.74414 15.5945L4.70703 17.1179ZM1.54297 20.3797L4.29688 18.9929L3.61328 17.6453L0.869141 19.0418ZM12.9785 14.9793L15.7617 16.3855L16.4355 15.0476L13.6523 13.6414ZM16.8555 16.9226L19.8926 18.4558L20.5664 17.1179L17.5293 15.5945ZM20.9766 18.9929L23.7305 20.3797L24.4043 19.0418L21.6602 17.6453ZM1.63086 21.4246L11.6406 27.0496C12.3242 27.4207 12.9492 27.4304 13.6328 27.0496L23.6426 21.4246C24.7363 20.8093 25.2734 20.1746 25.2734 18.5632L25.2734 8.30934C25.2734 7.17653 24.834 6.46363 23.8965 5.93629L14.668 0.721447C13.3105-0.0598026 11.9629-0.0598026 10.5957 0.721447L1.37695 5.93629C0.439453 6.46363 0 7.17653 0 8.30934L0 18.5632C0 20.1746 0.537109 20.8093 1.63086 21.4246ZM2.63672 20.0281C1.875 19.6082 1.66016 19.198 1.66016 18.4949L1.66016 8.68043L11.7871 14.3933L11.7871 25.1648ZM22.6367 20.0281L13.4863 25.1648L13.4863 14.3933L23.6133 8.68043L23.6133 18.4949C23.6133 19.198 23.3984 19.6082 22.6367 20.0281ZM12.6367 12.8797L2.53906 7.22535L11.3672 2.23512C12.2266 1.74684 13.0469 1.73707 13.9062 2.23512L22.7344 7.22535Z" fill="#ffffff" fill-opacity="0.85"/>
 </g>
</svg>
