<?xml version="1.0" encoding="UTF-8"?>
<!--Generator: Apple Native CoreSVG 232.5-->
<!DOCTYPE svg
PUBLIC "-//W3C//DTD SVG 1.1//EN"
       "http://www.w3.org/Graphics/SVG/1.1/DTD/svg11.dtd">
<svg version="1.1" xmlns="http://www.w3.org/2000/svg" xmlns:xlink="http://www.w3.org/1999/xlink" width="25.8008" height="25.459">
 <g>
  <rect height="25.459" opacity="0" width="25.8008" x="0" y="0"/>
  <path d="M12.7148 25.4395C19.6777 25.4395 25.4395 19.6777 25.4395 12.7246C25.4395 5.76172 19.668 0 12.7051 0C5.75195 0 0 5.76172 0 12.7246C0 19.6777 5.76172 25.4395 12.7148 25.4395ZM12.7148 23.623C6.67969 23.623 1.82617 18.7598 1.82617 12.7246C1.82617 6.67969 6.66992 1.82617 12.7051 1.82617C18.75 1.82617 23.6133 6.67969 23.6133 12.7246C23.6133 18.7598 18.7598 23.623 12.7148 23.623Z" fill="#ffffff" fill-opacity="0.85"/>
  <path d="M7.13867 17.7539L11.0352 17.7539C11.4453 17.7539 11.7285 17.5293 11.7285 17.1191C11.7285 16.6797 11.3965 16.4551 11.0352 16.4551L7.92969 16.4551L7.92969 13.252L10.9082 13.252C11.2598 13.252 11.5137 13.0469 11.5137 12.6367C11.5137 12.2266 11.2695 12.0117 10.9082 12.0117L7.92969 12.0117L7.92969 8.97461L11.0352 8.97461C11.3965 8.97461 11.7285 8.75977 11.7285 8.32031C11.7285 7.91992 11.4355 7.67578 11.0352 7.67578L7.13867 7.67578C6.65039 7.67578 6.37695 8.00781 6.37695 8.47656L6.37695 16.9629C6.37695 17.4121 6.64062 17.7539 7.13867 17.7539ZM13.9062 17.7539L18.6719 17.7539C19.0527 17.7539 19.3066 17.4902 19.3066 17.1094C19.3066 16.7285 19.0527 16.4551 18.6719 16.4551L14.8828 16.4551L14.8828 16.3477L18.9648 9.0918C19.0527 8.92578 19.1406 8.74023 19.1406 8.47656C19.1406 7.93945 18.7695 7.67578 18.3203 7.67578L13.8379 7.67578C13.4375 7.67578 13.1543 7.93945 13.1543 8.33008C13.1543 8.71094 13.4375 8.97461 13.8379 8.97461L17.4512 8.97461L17.4512 9.0332L13.291 16.3672C13.2129 16.5137 13.125 16.7676 13.125 17.0312C13.125 17.4805 13.4473 17.7539 13.9062 17.7539Z" fill="#ffffff" fill-opacity="0.85"/>
 </g>
</svg>
