<?xml version="1.0" encoding="UTF-8"?>
<!--Generator: Apple Native CoreSVG 232.5-->
<!DOCTYPE svg
PUBLIC "-//W3C//DTD SVG 1.1//EN"
       "http://www.w3.org/Graphics/SVG/1.1/DTD/svg11.dtd">
<svg version="1.1" xmlns="http://www.w3.org/2000/svg" xmlns:xlink="http://www.w3.org/1999/xlink" width="25.8008" height="25.459">
 <g>
  <rect height="25.459" opacity="0" width="25.8008" x="0" y="0"/>
  <path d="M25.4395 12.7246C25.4395 19.6777 19.6777 25.4395 12.7148 25.4395C5.76172 25.4395 0 19.6777 0 12.7246C0 5.76172 5.75195 0 12.7051 0C19.668 0 25.4395 5.76172 25.4395 12.7246ZM10.4395 7.00195C9.99023 7.00195 9.70703 7.29492 9.70703 7.75391L9.70703 15.7031L8.68164 15.7031C8.34961 15.7031 8.125 15.9375 8.125 16.2695C8.125 16.6016 8.34961 16.8457 8.68164 16.8457L9.70703 16.8457L9.70703 18.3301C9.70703 18.7695 10.0195 19.0625 10.4492 19.0625C10.8887 19.0625 11.1816 18.7598 11.1816 18.3203L11.1816 16.8457L13.9551 16.8457C14.2969 16.8457 14.5215 16.6016 14.5215 16.2695C14.5215 15.9375 14.2969 15.7031 13.9551 15.7031L11.1816 15.7031L11.1816 13.5059L15.5762 13.5059C15.9766 13.5059 16.2695 13.2324 16.2695 12.8223C16.2695 12.4023 15.9766 12.1387 15.5762 12.1387L11.1816 12.1387L11.1816 8.37891L16.0449 8.37891C16.4453 8.37891 16.7383 8.0957 16.7383 7.68555C16.7383 7.26562 16.4453 7.00195 16.0449 7.00195Z" fill="#ffffff" fill-opacity="0.85"/>
 </g>
</svg>
