<?xml version="1.0" encoding="UTF-8"?>
<!--Generator: Apple Native CoreSVG 232.5-->
<!DOCTYPE svg
PUBLIC "-//W3C//DTD SVG 1.1//EN"
       "http://www.w3.org/Graphics/SVG/1.1/DTD/svg11.dtd">
<svg version="1.1" xmlns="http://www.w3.org/2000/svg" xmlns:xlink="http://www.w3.org/1999/xlink" width="25.8008" height="25.459">
 <g>
  <rect height="25.459" opacity="0" width="25.8008" x="0" y="0"/>
  <path d="M12.7148 25.4395C19.6777 25.4395 25.4395 19.6777 25.4395 12.7246C25.4395 5.76172 19.668 0 12.7051 0C5.75195 0 0 5.76172 0 12.7246C0 19.6777 5.76172 25.4395 12.7148 25.4395ZM12.7148 23.623C6.67969 23.623 1.82617 18.7598 1.82617 12.7246C1.82617 6.67969 6.66992 1.82617 12.7051 1.82617C18.75 1.82617 23.6133 6.67969 23.6133 12.7246C23.6133 18.7598 18.7598 23.623 12.7148 23.623Z" fill="#ffffff" fill-opacity="0.85"/>
  <path d="M12.7148 15.6836C13.7988 15.6836 14.5996 14.8926 14.5996 13.8086C14.5996 13.6133 14.541 13.252 14.502 13.0371L13.2324 5.61523C13.1836 5.30273 12.9688 5.13672 12.7148 5.13672C12.4707 5.13672 12.2559 5.30273 12.1973 5.61523L10.9277 13.0371C10.8984 13.252 10.8398 13.6133 10.8398 13.8086C10.8398 14.8926 11.6309 15.6836 12.7148 15.6836ZM7.43164 18.9746C7.96875 18.9746 8.41797 18.5254 8.41797 17.9785C8.41797 17.4414 7.96875 16.9922 7.43164 16.9922C6.88477 16.9922 6.43555 17.4414 6.43555 17.9785C6.43555 18.5254 6.88477 18.9746 7.43164 18.9746ZM5.23438 13.7109C5.77148 13.7109 6.2207 13.2617 6.2207 12.7246C6.2207 12.1777 5.77148 11.7285 5.23438 11.7285C4.69727 11.7285 4.24805 12.1777 4.24805 12.7246C4.24805 13.2617 4.69727 13.7109 5.23438 13.7109ZM7.43164 8.44727C7.96875 8.44727 8.41797 8.00781 8.41797 7.46094C8.41797 6.92383 7.96875 6.47461 7.43164 6.47461C6.88477 6.47461 6.43555 6.92383 6.43555 7.46094C6.43555 8.00781 6.88477 8.44727 7.43164 8.44727ZM18.0078 8.44727C18.5449 8.44727 18.9941 8.00781 18.9941 7.46094C18.9941 6.92383 18.5449 6.47461 18.0078 6.47461C17.4609 6.47461 17.0215 6.92383 17.0215 7.46094C17.0215 8.00781 17.4609 8.44727 18.0078 8.44727ZM20.2051 13.7109C20.7422 13.7109 21.1914 13.2617 21.1914 12.7246C21.1914 12.1777 20.7422 11.7285 20.2051 11.7285C19.6582 11.7285 19.209 12.1777 19.209 12.7246C19.209 13.2617 19.6582 13.7109 20.2051 13.7109ZM18.0078 18.9746C18.5449 18.9746 18.9941 18.5254 18.9941 17.9785C18.9941 17.4414 18.5449 16.9922 18.0078 16.9922C17.4609 16.9922 17.0215 17.4414 17.0215 17.9785C17.0215 18.5254 17.4609 18.9746 18.0078 18.9746Z" fill="#ffffff" fill-opacity="0.85"/>
 </g>
</svg>
