<svg version="1.1" xmlns="http://www.w3.org/2000/svg" xmlns:xlink="http://www.w3.org/1999/xlink" width="25.8008" height="30.3024" viewBox="0 0 25.8008 30.3024">
 <g>
  <rect height="30.3024" opacity="0" width="25.8008" x="0" y="0"/>
  <path d="M0 15.1561C0 22.1189 5.76172 27.8709 12.7148 27.8709C19.6777 27.8709 25.4395 22.1189 25.4395 15.1561C25.4395 8.99395 20.9375 3.78887 15.0781 2.66582L15.0781 0.790824C15.0781-0.000191554 14.5312-0.215035 13.916 0.224418L9.95117 2.99786C9.43359 3.35918 9.42383 3.89629 9.95117 4.27715L13.9062 7.05059C14.5312 7.49981 15.0781 7.2752 15.0781 6.48418L15.0781 4.52129C19.9805 5.58575 23.6035 9.93145 23.6035 15.1561C23.6035 21.1912 18.7598 26.0545 12.7148 26.0545C6.67969 26.0545 1.80664 21.1912 1.81641 15.1561C1.82617 11.4158 3.70117 8.13457 6.5625 6.19121C7.00195 5.86895 7.13867 5.36114 6.86523 4.91192C6.61133 4.48223 6.02539 4.35528 5.54688 4.71661C2.20703 7.01153 0 10.8494 0 15.1561Z" fill="currentColor"/>
  <path d="M12.8516 20.3807C14.7949 20.3807 16.0156 18.9354 16.0156 16.992C16.0156 15.283 15.0195 13.8475 13.3301 13.8475C12.4805 13.8475 11.748 14.2381 11.377 14.9022L11.3379 14.9022L11.6016 11.8162L14.9414 11.8162C15.3125 11.8162 15.5664 11.5623 15.5664 11.1912C15.5664 10.8104 15.3223 10.5662 14.9414 10.5662L11.2305 10.5662C10.6348 10.5662 10.3613 10.8787 10.3223 11.4744L10.0195 15.3025C9.98047 15.8006 10.2441 16.1717 10.7227 16.1717C11.0938 16.1717 11.2598 16.0057 11.4941 15.7322C11.8262 15.2732 12.3047 14.99 12.8809 14.99C13.9453 14.99 14.5312 15.9471 14.5312 17.0311C14.5312 18.1639 13.9258 19.1404 12.8418 19.1404C12.0117 19.1404 11.4355 18.5936 11.1914 17.8709C11.0449 17.5389 10.8203 17.3729 10.5273 17.3729C10.127 17.3729 9.88281 17.6268 9.88281 18.0174C9.88281 18.1541 9.91211 18.3104 9.95117 18.4471C10.2734 19.658 11.6016 20.3807 12.8516 20.3807Z" fill="currentColor"/>
 </g>
</svg>
