<svg version="1.1" xmlns="http://www.w3.org/2000/svg" xmlns:xlink="http://www.w3.org/1999/xlink" width="28.2246" height="25.459" viewBox="0 0 28.2246 25.459">
 <g>
  <rect height="25.459" opacity="0" width="28.2246" x="0" y="0"/>
  <path d="M15.1475 25.4395C22.1104 25.4395 27.8623 19.6777 27.8623 12.7246C27.8623 5.76172 22.1104 0 15.1475 0C8.18458 0 2.43263 5.75195 2.43263 12.7148L4.24904 12.7148C4.24904 6.66992 9.10255 1.83594 15.1475 1.83594C21.1826 1.83594 26.0459 6.67969 26.0459 12.7246C26.0459 18.7598 21.1826 23.6426 15.1475 23.623C11.4072 23.6133 8.13576 21.7383 6.18263 18.877C5.86037 18.4375 5.34279 18.3008 4.90333 18.5742C4.47365 18.8281 4.34669 19.4141 4.70802 19.8926C7.08107 23.1836 10.8408 25.4395 15.1475 25.4395ZM0.801772 10.3613C0.000990731 10.3613-0.223619 10.9082 0.235366 11.543L3.0088 15.4883C3.3799 16.0254 3.91701 16.0156 4.27833 15.4883L7.05177 11.5332C7.49123 10.9082 7.27638 10.3613 6.48537 10.3613Z" fill="currentColor"/>
  <path d="M15.333 20.127C15.6553 20.127 15.8897 19.9023 15.8897 19.5605L15.8897 18.6621C18.3897 18.4668 19.8447 16.709 19.8447 13.9062L19.8447 13.2324C19.8447 12.7539 19.5518 12.4707 19.0928 12.4707L15.8897 12.4707L15.8897 8.23242C17.1104 8.38867 18.0479 9.22852 18.3115 10.3125C18.4385 10.7422 18.6338 10.8984 19.0147 10.8984C19.4248 10.8984 19.6885 10.6348 19.6885 10.2246C19.6885 10.0098 19.6494 9.83398 19.5811 9.63867C19.0733 8.11523 17.667 7.04102 15.8897 6.88477L15.8897 6.05469C15.8897 5.71289 15.6553 5.48828 15.333 5.48828C15.0108 5.48828 14.7764 5.71289 14.7764 6.05469L14.7764 6.89453C12.1299 7.20703 10.46 9.41406 10.46 12.7441C10.46 16.1426 12.1104 18.3496 14.7764 18.6523L14.7764 19.5605C14.7764 19.9023 15.0205 20.127 15.333 20.127ZM14.7764 17.2949C13.0088 16.9629 11.9248 15.2539 11.9248 12.7441C11.9248 10.2637 12.999 8.58398 14.7764 8.26172ZM15.8897 17.3242L15.8897 13.7793L18.4287 13.7793L18.4287 14.1211C18.4287 15.9082 17.4522 17.1289 15.8897 17.3242Z" fill="currentColor"/>
 </g>
</svg>
