<svg version="1.1" xmlns="http://www.w3.org/2000/svg" xmlns:xlink="http://www.w3.org/1999/xlink" width="21.945" height="24.2512" viewBox="0 0 21.945 24.2512">
 <g>
  <rect height="24.2512" opacity="0" width="21.945" x="0" y="0"/>
  <path d="M15.8406 23.6246C20.6649 21.8668 22.8426 17.4723 20.8406 11.9645L19.9324 9.49378C18.9461 6.76917 17.1492 5.65589 14.991 6.41761C14.4149 5.65589 13.5164 5.38245 12.5496 5.74378C12.1883 5.87073 11.8563 6.06605 11.5535 6.31019C10.9383 5.49964 9.9715 5.19691 8.96564 5.568C8.67267 5.66566 8.38947 5.83167 8.1258 6.02698L6.66096 1.99378C6.13361 0.568001 4.84455-0.017937 3.54572 0.460579C2.22736 0.939094 1.61213 2.21839 2.12971 3.64417L5.83088 13.8102C5.85041 13.8688 5.84064 13.9274 5.77228 13.9469C5.73322 13.9664 5.68439 13.9469 5.64533 13.8981L3.87775 11.9547C3.1551 11.1832 2.30549 10.9586 1.49494 11.2418C0.391425 11.6422-0.3117 12.7164 0.137519 13.9567C0.264472 14.2887 0.489081 14.6989 0.762519 15.0309L5.05939 20.236C8.11603 23.9469 11.7781 25.109 15.8406 23.6246ZM15.3817 22.2086C12.0613 23.4196 8.94611 22.7067 6.15314 19.3375L1.85627 14.1422C1.71955 13.986 1.62189 13.8395 1.54377 13.6149C1.38752 13.1754 1.58283 12.6774 2.10041 12.4821C2.51057 12.3356 2.88166 12.4918 3.22346 12.8727L6.13361 15.9196C6.5633 16.3785 6.96369 16.4371 7.36408 16.2907C7.83283 16.1246 8.03791 15.6364 7.85236 15.1285L3.4676 3.068C3.25275 2.49183 3.48713 1.97425 4.02424 1.76917C4.56135 1.57386 5.04963 1.83753 5.26447 2.4137L8.37971 10.9782C8.51642 11.3493 8.91682 11.5348 9.28791 11.3981C9.64924 11.2614 9.82502 10.8707 9.6883 10.4996L8.55549 7.39417C8.7508 7.20863 9.02424 7.03284 9.26838 6.94495C9.91291 6.71058 10.45 6.98402 10.7039 7.67738L11.6512 10.2946C11.7977 10.7047 12.2078 10.8512 12.5594 10.7145C12.8914 10.5973 13.116 10.2262 12.9598 9.81605L12.1395 7.56995C12.3348 7.38441 12.6082 7.20863 12.8524 7.12073C13.4969 6.88636 14.034 7.1598 14.2879 7.85316L14.9227 9.62073C15.0789 10.0309 15.4793 10.1676 15.8309 10.0407C16.1727 9.9137 16.3875 9.55238 16.2313 9.14222L15.7235 7.7262C16.8758 7.30628 17.9207 8.18519 18.6434 10.1774L19.4246 12.316C21.1727 17.1207 19.5028 20.7145 15.3817 22.2086Z" fill="currentColor"/>
 </g>
</svg>
