<svg version="1.1" xmlns="http://www.w3.org/2000/svg" xmlns:xlink="http://www.w3.org/1999/xlink" width="23.3203" height="22.9785" viewBox="0 0 23.3203 22.9785">
 <g>
  <rect height="22.9785" opacity="0" width="23.3203" x="0" y="0"/>
  <path d="M22.959 3.78906L22.959 19.2188C22.959 21.709 21.6797 22.9785 19.1504 22.9785L3.79883 22.9785C1.2793 22.9785 0 21.7188 0 19.2188L0 3.78906C0 1.28906 1.2793 0.0292969 3.79883 0.0292969L19.1504 0.0292969C21.6797 0.0292969 22.959 1.29883 22.959 3.78906ZM4.56055 17.7637C4.16016 17.7637 3.86719 18.0664 3.86719 18.457C3.86719 18.8281 4.16016 19.1211 4.56055 19.1211L13.877 19.1211C14.2676 19.1211 14.5605 18.8281 14.5605 18.457C14.5605 18.0664 14.2676 17.7637 13.877 17.7637ZM4.56055 13.5254C4.16016 13.5254 3.86719 13.8184 3.86719 14.1895C3.86719 14.5703 4.16016 14.873 4.56055 14.873L17.3047 14.873C17.6953 14.873 17.9883 14.5703 17.9883 14.1895C17.9883 13.8184 17.6953 13.5254 17.3047 13.5254ZM7.2168 4.35547C6.9043 3.78906 6.36719 3.37891 5.68359 3.37891C4.63867 3.37891 3.86719 4.19922 3.86719 5.29297C3.86719 7.00195 5.69336 8.50586 6.93359 9.31641C7.04102 9.38477 7.14844 9.44336 7.22656 9.44336C7.30469 9.44336 7.40234 9.38477 7.50977 9.31641C8.75 8.55469 10.5664 7.00195 10.5664 5.29297C10.5664 4.19922 9.79492 3.37891 8.7207 3.37891C8.07617 3.37891 7.51953 3.78906 7.2168 4.35547Z" fill="currentColor"/>
 </g>
</svg>
