<?xml version="1.0" encoding="UTF-8"?>
<!--Generator: Apple Native CoreSVG 232.5-->
<!DOCTYPE svg
PUBLIC "-//W3C//DTD SVG 1.1//EN"
       "http://www.w3.org/Graphics/SVG/1.1/DTD/svg11.dtd">
<svg version="1.1" xmlns="http://www.w3.org/2000/svg" xmlns:xlink="http://www.w3.org/1999/xlink" width="25.8008" height="25.459">
 <g>
  <rect height="25.459" opacity="0" width="25.8008" x="0" y="0"/>
  <path d="M25.4395 12.7344C25.4395 19.6973 19.6777 25.459 12.7148 25.459C5.76172 25.459 0 19.6973 0 12.7344C0 5.78125 5.75195 0.0195312 12.7051 0.0195312C19.668 0.0195312 25.4395 5.78125 25.4395 12.7344ZM7.82227 18.9062C7.82227 20.166 8.63281 20.957 9.93164 20.957L15.498 20.957C16.5794 20.957 17.314 20.4169 17.535 19.5174L16.377 18.3594L8.95508 18.3594L8.95508 10.9375L7.82227 9.80469ZM13.3496 19.5215C13.3496 19.8828 13.0762 20.166 12.7246 20.166C12.373 20.166 12.0801 19.8828 12.0801 19.5215C12.0801 19.1797 12.373 18.8867 12.7246 18.8867C13.0762 18.8867 13.3496 19.1797 13.3496 19.5215ZM5.9668 5.97656C5.76172 6.19141 5.76172 6.5332 5.9668 6.72852L18.7305 19.4922C18.9258 19.6875 19.2773 19.6973 19.4824 19.4922C19.6973 19.2676 19.6973 18.9453 19.4824 18.7402L6.72852 5.97656C6.51367 5.77148 6.18164 5.77148 5.9668 5.97656ZM9.93164 4.52148C8.86752 4.52148 8.13115 5.05245 7.90063 5.93774L9.0918 7.12891L16.4746 7.12891L16.4746 14.5117L17.6074 15.6445L17.6074 6.57227C17.6074 5.3125 16.8066 4.52148 15.498 4.52148ZM14.1602 5.87891C14.1602 6.04492 14.0234 6.19141 13.8477 6.19141L11.582 6.19141C11.416 6.19141 11.2695 6.04492 11.2695 5.87891C11.2695 5.68359 11.416 5.55664 11.582 5.55664L13.8477 5.55664C14.0234 5.55664 14.1602 5.68359 14.1602 5.87891Z" fill="#ffffff" fill-opacity="0.85"/>
 </g>
</svg>
