<?xml version="1.0" encoding="UTF-8"?>
<!--Generator: Apple Native CoreSVG 232.5-->
<!DOCTYPE svg
PUBLIC "-//W3C//DTD SVG 1.1//EN"
       "http://www.w3.org/Graphics/SVG/1.1/DTD/svg11.dtd">
<svg version="1.1" xmlns="http://www.w3.org/2000/svg" xmlns:xlink="http://www.w3.org/1999/xlink" width="17.4512" height="23.0957">
 <g>
  <rect height="23.0957" opacity="0" width="17.4512" x="0" y="0"/>
  <path d="M3.55469 23.0957C4.15039 23.0957 4.57031 22.6855 4.57031 22.0508L4.57031 1.20117C4.57031 0.576172 4.15039 0.185547 3.55469 0.185547C2.93945 0.185547 2.53906 0.576172 2.53906 1.20117L2.53906 22.0508C2.53906 22.6855 2.94922 23.0957 3.55469 23.0957ZM15.6055 23.0957C16.123 23.0957 16.5332 22.7051 16.5332 22.207C16.5332 21.9922 16.4453 21.7285 16.25 21.4746L8.05664 11.582L16.25 1.77734C16.4355 1.54297 16.5234 1.28906 16.5234 1.07422C16.5234 0.576172 16.123 0.185547 15.6055 0.185547C15.293 0.185547 15.0195 0.322266 14.7363 0.693359L5.76172 11.582L14.7656 22.6172C15.0391 22.9688 15.3125 23.0957 15.6055 23.0957ZM0.712891 12.2949L16.3672 12.2949C16.7871 12.2949 17.0898 11.9824 17.0898 11.582C17.0898 11.1621 16.7871 10.8691 16.3672 10.8691L0.712891 10.8691C0.302734 10.8691 0 11.1621 0 11.582C0 11.9824 0.3125 12.2949 0.712891 12.2949Z" fill="#ffffff" fill-opacity="0.85"/>
 </g>
</svg>
