<?xml version="1.0" encoding="UTF-8"?>
<!--Generator: Apple Native CoreSVG 232.5-->
<!DOCTYPE svg
PUBLIC "-//W3C//DTD SVG 1.1//EN"
       "http://www.w3.org/Graphics/SVG/1.1/DTD/svg11.dtd">
<svg version="1.1" xmlns="http://www.w3.org/2000/svg" xmlns:xlink="http://www.w3.org/1999/xlink" width="28.2246" height="25.459">
 <g>
  <rect height="25.459" opacity="0" width="28.2246" x="0" y="0"/>
  <path d="M15.1475 25.4395C22.1104 25.4395 27.8623 19.6777 27.8623 12.7246C27.8623 5.76172 22.1104 0 15.1475 0C8.18458 0 2.43263 5.75195 2.43263 12.7148L4.24904 12.7148C4.24904 6.66992 9.10255 1.83594 15.1475 1.83594C21.1826 1.83594 26.0459 6.67969 26.0459 12.7246C26.0459 18.7598 21.1826 23.6426 15.1475 23.623C11.4072 23.6133 8.13576 21.7383 6.18263 18.877C5.86037 18.4375 5.34279 18.3008 4.90333 18.5742C4.47365 18.8281 4.34669 19.4141 4.70802 19.8926C7.08107 23.1836 10.8408 25.4395 15.1475 25.4395ZM0.801772 10.3613C0.000990731 10.3613-0.223619 10.9082 0.235366 11.543L3.0088 15.4883C3.3799 16.0254 3.91701 16.0156 4.27833 15.4883L7.05177 11.5332C7.49123 10.9082 7.27638 10.3613 6.48537 10.3613Z" fill="#ffffff" fill-opacity="0.85"/>
  <path d="M10.4893 12.8613C10.4893 13.1738 10.7236 13.4277 11.0459 13.4277L11.8662 13.4277L11.8662 18.1152C11.8662 18.5645 12.1592 18.8379 12.5694 18.8379C12.9795 18.8379 13.2725 18.5645 13.2725 18.1152L13.2725 13.4277L13.8877 13.4277L18.0479 18.5156C18.2236 18.75 18.4092 18.8379 18.624 18.8379C18.9951 18.8379 19.2979 18.5547 19.2979 18.1836C19.2979 18.0371 19.2393 17.8613 19.1026 17.6953L15.5674 13.4277L19.0147 13.4277C19.3369 13.4277 19.5713 13.1738 19.5713 12.8613C19.5713 12.5391 19.3369 12.3047 19.0147 12.3047L15.5576 12.3047L19.1026 8.06641C19.2295 7.91016 19.2881 7.73438 19.2881 7.58789C19.2881 7.22656 19.0049 6.94336 18.624 6.94336C18.4092 6.94336 18.2236 7.03125 18.0283 7.27539L13.8779 12.3047L13.2725 12.3047L13.2725 7.66602C13.2725 7.2168 12.9893 6.95312 12.5694 6.95312C12.1397 6.95312 11.8662 7.2168 11.8662 7.66602L11.8662 12.3047L11.0459 12.3047C10.7236 12.3047 10.4893 12.5391 10.4893 12.8613Z" fill="#ffffff" fill-opacity="0.85"/>
 </g>
</svg>
