<svg version="1.1" xmlns="http://www.w3.org/2000/svg" xmlns:xlink="http://www.w3.org/1999/xlink" width="30.0857" height="20.8301" viewBox="0 0 30.0857 20.8301">
 <g>
  <rect height="20.8301" opacity="0" width="30.0857" x="0" y="0"/>
  <path d="M28.9051 1.68945C29.3544 1.67969 29.7255 1.30859 29.7255 0.849609C29.7255 0.410156 29.3544 0.00976562 28.9051 0.00976562L5.40905 0C4.95984 0 4.57898 0.400391 4.57898 0.849609C4.57898 1.30859 4.95984 1.67969 5.40905 1.67969L7.93835 1.67969C8.26062 6.67969 11.9911 10.1953 17.1669 10.1953C22.3134 10.1953 26.0536 6.67969 26.3954 1.68945ZM0.243039 11.7578C0.604367 12.1094 1.09265 12.1191 1.44421 11.7676L7.45007 5.75195C7.19616 5.20508 7.00085 4.60938 6.85437 3.97461L0.262571 10.5664C-0.0792263 10.9277-0.0889919 11.4062 0.243039 11.7578ZM3.14343 14.6582C3.51452 15.0098 3.99304 15.0293 4.3446 14.668L9.92077 9.08203C9.50085 8.7207 9.11999 8.30078 8.7782 7.85156L3.1532 13.4668C2.82116 13.8281 2.80163 14.3066 3.14343 14.6582ZM6.04382 17.5586C6.39538 17.8906 6.88366 17.9004 7.24499 17.5586L13.6415 11.1426C13.0458 10.9766 12.4794 10.7422 11.952 10.459L6.04382 16.3672C5.71179 16.7188 5.70202 17.1875 6.04382 17.5586ZM8.95398 20.459C9.30554 20.8008 9.78405 20.8008 10.1454 20.4492L19.0712 11.5137C18.1337 11.6895 17.6844 11.6602 16.5907 11.6602L8.94421 19.2676C8.60241 19.6191 8.60241 20.0977 8.95398 20.459Z" fill="currentColor"/>
 </g>
</svg>
