<svg version="1.1" xmlns="http://www.w3.org/2000/svg" xmlns:xlink="http://www.w3.org/1999/xlink" width="21.3281" height="26.9238" viewBox="0 0 21.3281 26.9238">
 <g>
  <rect height="26.9238" opacity="0" width="21.3281" x="0" y="0"/>
  <path d="M9.66797 9.15039C9.66797 10.6738 10.3906 11.4062 11.9141 11.4062L20.9668 11.4062L20.9668 23.125C20.9668 25.6348 19.707 26.9238 17.207 26.9238L3.75977 26.9238C1.25977 26.9238 0 25.6445 0 23.125L0 3.80859C0 1.28906 1.2793 0.00976562 3.75977 0.00976562L9.66797 0.00976562ZM7.63672 16.1914L7.63672 17.5098C6.97266 17.5488 6.65039 17.9102 6.65039 18.6914L6.65039 22.959C6.65039 23.7793 7.01172 24.1504 7.76367 24.1504L13.2324 24.1504C13.9844 24.1504 14.3457 23.7793 14.3457 22.959L14.3457 18.6914C14.3457 17.9102 14.0137 17.5488 13.3594 17.5098L13.3594 16.1914C13.3594 14.2871 12.1973 13.0176 10.498 13.0176C8.78906 13.0176 7.63672 14.2871 7.63672 16.1914ZM12.3633 16.1035L12.3633 17.5L8.63281 17.5L8.63281 16.1035C8.63281 14.8242 9.375 13.9746 10.498 13.9746C11.6113 13.9746 12.3633 14.8242 12.3633 16.1035ZM12.6465 1.09375L19.8828 8.42773C20.4004 8.94531 20.7324 9.38477 20.8105 9.84375L11.9727 9.84375C11.4746 9.84375 11.2305 9.59961 11.2305 9.10156L11.2305 0.15625C11.6797 0.234375 12.1484 0.576172 12.6465 1.09375Z" fill="currentColor"/>
 </g>
</svg>
