<?xml version="1.0" encoding="UTF-8"?>
<!--Generator: Apple Native CoreSVG 232.5-->
<!DOCTYPE svg
PUBLIC "-//W3C//DTD SVG 1.1//EN"
       "http://www.w3.org/Graphics/SVG/1.1/DTD/svg11.dtd">
<svg version="1.1" xmlns="http://www.w3.org/2000/svg" xmlns:xlink="http://www.w3.org/1999/xlink" width="23.3203" height="22.9785">
 <g>
  <rect height="22.9785" opacity="0" width="23.3203" x="0" y="0"/>
  <path d="M3.79883 22.9785L19.1504 22.9785C21.6797 22.9785 22.959 21.709 22.959 19.2188L22.959 3.78906C22.959 1.29883 21.6797 0.0292969 19.1504 0.0292969L3.79883 0.0292969C1.2793 0.0292969 0 1.28906 0 3.78906L0 19.2188C0 21.7188 1.2793 22.9785 3.79883 22.9785ZM3.83789 21.25C2.4707 21.25 1.72852 20.5273 1.72852 19.1309L1.72852 3.87695C1.72852 2.48047 2.4707 1.75781 3.83789 1.75781L19.1211 1.75781C20.459 1.75781 21.2305 2.48047 21.2305 3.87695L21.2305 19.1309C21.2305 20.5273 20.459 21.25 19.1211 21.25Z" fill="#ffffff" fill-opacity="0.85"/>
  <path d="M7.5 15.9277C7.90039 15.9277 8.18359 15.6445 8.18359 15.2344L8.18359 10.4492C8.18359 9.4043 8.68164 8.70117 9.56055 8.70117C10.2832 8.70117 10.8105 9.27734 10.8105 10.0879L10.8105 10.4883L8.20312 17.8809C8.16406 17.9883 8.13477 18.0957 8.13477 18.2129C8.13477 18.5059 8.35938 18.7207 8.67188 18.7207C8.91602 18.7207 9.11133 18.5742 9.20898 18.3105L10.8203 13.7207L10.8203 15.2344C10.8203 15.6445 11.1035 15.9277 11.4941 15.9277C11.8945 15.9277 12.1777 15.6445 12.1777 15.2344L12.1777 10.332C12.1777 9.33594 12.7051 8.71094 13.5352 8.71094C14.3359 8.71094 14.8145 9.28711 14.8145 10.2344L14.8145 15.2344C14.8145 15.6543 15.0977 15.9277 15.4883 15.9277C15.8887 15.9277 16.1719 15.6543 16.1719 15.2344L16.1719 10.1172C16.1719 8.4668 15.2246 7.4707 13.8184 7.4707C13.5645 7.4707 13.3496 7.51953 13.1445 7.60742L14.1113 5.15625C14.1406 5.05859 14.1699 4.96094 14.1699 4.85352C14.1699 4.55078 13.9355 4.33594 13.623 4.33594C13.3691 4.33594 13.1934 4.49219 13.0957 4.74609L11.6113 8.55469C11.25 7.83203 10.6152 7.46094 9.81445 7.46094C9.10156 7.46094 8.49609 7.79297 8.11523 8.47656L8.11523 8.23242C8.11523 7.76367 7.8418 7.51953 7.4707 7.51953C7.08984 7.51953 6.80664 7.79297 6.80664 8.20312L6.80664 15.2539C6.80664 15.6641 7.10938 15.9277 7.5 15.9277Z" fill="#ffffff" fill-opacity="0.85"/>
 </g>
</svg>
