<svg version="1.1" xmlns="http://www.w3.org/2000/svg" xmlns:xlink="http://www.w3.org/1999/xlink" width="25.8008" height="25.459" viewBox="0 0 25.8008 25.459">
 <g>
  <rect height="25.459" opacity="0" width="25.8008" x="0" y="0"/>
  <path d="M12.7148 25.4395C19.6777 25.4395 25.4395 19.6777 25.4395 12.7246C25.4395 5.76172 19.668 0 12.7051 0C5.75195 0 0 5.76172 0 12.7246C0 19.6777 5.76172 25.4395 12.7148 25.4395ZM12.7148 23.623C6.67969 23.623 1.82617 18.7598 1.82617 12.7246C1.82617 6.67969 6.66992 1.82617 12.7051 1.82617C18.75 1.82617 23.6133 6.67969 23.6133 12.7246C23.6133 18.7598 18.7598 23.623 12.7148 23.623Z" fill="currentColor"/>
  <path d="M8.50586 14.0234L17.334 14.0234C17.6367 13.6914 17.8613 13.3105 18.0566 12.8809C18.1738 12.627 18.1445 12.4121 18.0078 12.2656C17.8906 12.1582 17.7051 12.1289 17.4609 12.2168C16.9629 12.4219 16.3672 12.5195 15.6445 12.5195C12.7148 12.5195 10.8887 10.7324 10.8887 7.8418C10.8887 7.10938 11.0156 6.33789 11.2402 5.89844C11.3672 5.6543 11.3379 5.43945 11.2305 5.2832C11.1035 5.13672 10.8496 5.10742 10.5762 5.23438C8.63281 6.08398 7.30469 8.10547 7.30469 10.4883C7.30469 11.8652 7.74414 13.0762 8.50586 14.0234ZM6.51367 15.7227L20.1758 15.7227C20.4199 15.7227 20.5957 15.5469 20.5957 15.3027C20.5957 15.0586 20.4199 14.8926 20.1758 14.8926L6.51367 14.8926C6.2793 14.8926 6.09375 15.0684 6.09375 15.3027C6.09375 15.5469 6.2793 15.7227 6.51367 15.7227ZM5.24414 17.4121L18.8965 17.4121C19.1406 17.4121 19.3164 17.2461 19.3164 17.002C19.3164 16.7578 19.1406 16.582 18.8965 16.582L5.24414 16.582C5 16.582 4.82422 16.7676 4.82422 17.002C4.82422 17.2461 5 17.4121 5.24414 17.4121ZM6.51367 19.1113L20.1758 19.1113C20.4199 19.1113 20.5957 18.9355 20.5957 18.6914C20.5957 18.4473 20.4199 18.2812 20.1758 18.2812L6.51367 18.2812C6.2793 18.2812 6.09375 18.457 6.09375 18.6914C6.09375 18.9355 6.2793 19.1113 6.51367 19.1113Z" fill="currentColor"/>
 </g>
</svg>
