<svg version="1.1" xmlns="http://www.w3.org/2000/svg" xmlns:xlink="http://www.w3.org/1999/xlink" width="32.6562" height="25.8887" viewBox="0 0 32.6562 25.8887">
 <g>
  <rect height="25.8887" opacity="0" width="32.6562" x="0" y="0"/>
  <path d="M12.5684 6.38672C12.8125 6.63086 12.8125 7.06055 12.5879 7.5C12.1875 8.33008 11.9336 9.78516 11.9336 11.1621C11.9336 16.5723 15.3711 19.9414 20.8594 19.9414C22.2363 19.9414 23.3496 19.7461 24.2969 19.3848C24.707 19.2383 25.0781 19.2578 25.2832 19.4727C25.5273 19.7266 25.5566 20.127 25.3516 20.5957C24.7262 22.0367 23.7729 23.2253 22.5663 24.1504L19.4195 24.1504C20.9992 23.5141 22.302 22.5069 23.1836 21.25C22.4805 21.4453 21.4844 21.5723 20.5078 21.5723C14.3652 21.5723 10.3223 17.6074 10.3223 11.5723C10.3223 10.3711 10.459 9.20898 10.7617 8.39844C8.4668 10.1367 6.94336 12.8809 6.94336 16.0059C6.94336 19.7288 8.90966 22.8138 12.1249 24.1504L8.96256 24.1504C6.59764 22.3141 5.26367 19.4273 5.26367 16.123C5.26367 11.6699 7.74414 7.87109 11.3867 6.2793C11.9043 6.05469 12.3242 6.12305 12.5684 6.38672Z" fill="currentColor"/>
  <path d="M0.9375 25.8594L31.3574 25.8594C31.8652 25.8594 32.2949 25.4785 32.2949 25.0098C32.2949 24.5312 31.8652 24.1504 31.3574 24.1504L0.9375 24.1504C0.429688 24.1504 0 24.5312 0 25.0098C0 25.4785 0.429688 25.8594 0.9375 25.8594Z" fill="currentColor"/>
  <path d="M22.6074 11.6797C23.0762 11.6797 23.4863 11.2598 23.4863 10.7422L23.4863 4.20898L23.3594 2.2168L24.3945 3.36914L26.0938 5.09766C26.2598 5.25391 26.4648 5.35156 26.6797 5.35156C27.1094 5.35156 27.4219 5.04883 27.4219 4.61914C27.4219 4.375 27.334 4.19922 27.1484 4.02344L23.1934 0.283203C22.9688 0.078125 22.8027 0 22.6074 0C22.4121 0 22.2461 0.078125 22.0215 0.283203L18.0664 4.02344C17.8809 4.19922 17.793 4.375 17.793 4.61914C17.793 5.04883 18.1055 5.35156 18.5352 5.35156C18.75 5.35156 18.9551 5.25391 19.1211 5.09766L20.918 3.27148L21.8555 2.2168L21.7285 4.20898L21.7285 10.7422C21.7285 11.2598 22.1387 11.6797 22.6074 11.6797Z" fill="currentColor"/>
 </g>
</svg>
