<svg version="1.1" xmlns="http://www.w3.org/2000/svg" xmlns:xlink="http://www.w3.org/1999/xlink" width="35.4102" height="24.3262" viewBox="0 0 35.4102 24.3262">
 <g>
  <rect height="24.3262" opacity="0" width="35.4102" x="0" y="0"/>
  <path d="M0 12.1582C0 16.0938 1.29883 19.7266 3.48633 22.6562C3.82812 23.1055 4.38477 23.1543 4.81445 22.8125C5.20508 22.4805 5.25391 21.9629 4.95117 21.5332C2.98828 18.9258 1.82617 15.6641 1.82617 12.1582C1.82617 8.63281 2.98828 5.39062 4.95117 2.76367C5.25391 2.35352 5.21484 1.83594 4.81445 1.49414C4.39453 1.15234 3.81836 1.21094 3.48633 1.66016C1.29883 4.58008 0 8.21289 0 12.1582ZM35.0488 12.1582C35.0488 8.21289 33.75 4.58008 31.5527 1.66016C31.2207 1.21094 30.6543 1.15234 30.2246 1.49414C29.834 1.83594 29.7949 2.35352 30.0977 2.76367C32.0605 5.39062 33.2129 8.63281 33.2129 12.1582C33.2129 15.6641 32.0605 18.9258 30.0977 21.5332C29.7949 21.9629 29.834 22.4805 30.2246 22.8125C30.6543 23.1543 31.2207 23.1055 31.5527 22.6562C33.75 19.7266 35.0488 16.0938 35.0488 12.1582Z" fill="currentColor"/>
  <path d="M17.5195 24.3066C24.1699 24.3066 29.6777 18.7988 29.6777 12.1582C29.6777 5.50781 24.1699 0 17.5098 0C10.8594 0 5.37109 5.49805 5.37109 12.1582C5.37109 18.7988 10.8691 24.3066 17.5195 24.3066ZM17.5195 22.4902C11.7969 22.4902 7.19727 17.8906 7.19727 12.1582C7.19727 6.42578 11.7871 1.81641 17.5098 1.81641C23.2324 1.81641 27.8516 6.42578 27.8613 12.1582C27.8711 17.8809 23.252 22.4902 17.5195 22.4902Z" fill="currentColor"/>
  <path d="M9.3457 12.1582C9.3457 14.4043 10.791 15.9277 12.9297 15.9277C14.0918 15.9277 15.0391 15.4102 16.1133 14.4043L17.5391 13.0566L18.9551 14.4043C20.0684 15.459 21.0059 15.9277 22.1387 15.9277C24.2676 15.9277 25.7324 14.4043 25.7324 12.1582C25.7324 9.90234 24.2676 8.37891 22.1387 8.37891C21.0059 8.37891 20.0684 8.84766 18.9551 9.90234L17.5391 11.25L16.1133 9.90234C15.0488 8.90625 14.1016 8.37891 12.9297 8.37891C10.791 8.37891 9.3457 9.90234 9.3457 12.1582ZM10.6641 12.1582C10.6641 10.6836 11.5723 9.6875 12.9297 9.6875C13.6621 9.69727 14.2969 10.0195 15.1855 10.8496L16.5918 12.1582L15.1855 13.457C14.3359 14.2383 13.6914 14.6094 12.9297 14.6094C11.5723 14.6094 10.6641 13.6328 10.6641 12.1582ZM18.4766 12.1582L19.8828 10.8496C20.7715 10.0195 21.4062 9.69727 22.1387 9.6875C23.4863 9.6875 24.4043 10.6836 24.4043 12.1582C24.4043 13.623 23.4961 14.6094 22.1387 14.6094C21.3672 14.6094 20.7324 14.2383 19.8828 13.457Z" fill="currentColor"/>
 </g>
</svg>
