<?xml version="1.0" encoding="UTF-8"?>
<!--Generator: Apple Native CoreSVG 232.5-->
<!DOCTYPE svg
PUBLIC "-//W3C//DTD SVG 1.1//EN"
       "http://www.w3.org/Graphics/SVG/1.1/DTD/svg11.dtd">
<svg version="1.1" xmlns="http://www.w3.org/2000/svg" xmlns:xlink="http://www.w3.org/1999/xlink" width="31.748" height="33.8184">
 <g>
  <rect height="33.8184" opacity="0" width="31.748" x="0" y="0"/>
  <path d="M29.834 17.4512L29.834 30.0195C29.834 32.5098 28.5547 33.7891 26.0254 33.7891L11.543 33.7891C9.02344 33.7891 7.74414 32.5195 7.74414 30.0195L7.74414 29.7266L19.8438 29.7266C23.2324 29.7266 25.2051 27.7637 25.2051 24.4043L25.2051 13.6914L26.0254 13.6914C28.5547 13.6914 29.834 14.9707 29.834 17.4512Z" fill="#ffffff" fill-opacity="0.85"/>
  <path d="M5.36133 28.1738L19.8438 28.1738C22.373 28.1738 23.6426 26.8945 23.6426 24.4043L23.6426 11.8359C23.6426 9.35547 22.373 8.07617 19.8438 8.07617L13.6523 8.07617L13.6523 17.6367C13.6523 18.1934 13.1738 18.6621 12.5977 18.6621C12.0312 18.6621 11.5527 18.1934 11.5527 17.6367L11.5527 8.07617L5.36133 8.07617C2.8418 8.07617 1.55273 9.33594 1.55273 11.8359L1.55273 24.4043C1.55273 26.9043 2.8418 28.1738 5.36133 28.1738Z" fill="#ffffff" fill-opacity="0.85"/>
  <path d="M12.6074 8.91602C13.0762 8.91602 13.4668 8.53516 13.4668 8.08594L13.4668 4.22852L13.3984 2.38281L14.4238 3.44727L16.4746 5.5957C16.6309 5.77148 16.8555 5.85938 17.0605 5.85938C17.5098 5.85938 17.8516 5.53711 17.8516 5.09766C17.8516 4.87305 17.7539 4.69727 17.5977 4.53125L13.2324 0.283203C13.0176 0.0683594 12.8223 0 12.6074 0C12.3926 0 12.1973 0.0683594 11.9922 0.283203L7.61719 4.53125C7.45117 4.69727 7.36328 4.87305 7.36328 5.09766C7.36328 5.53711 7.68555 5.85938 8.13477 5.85938C8.33984 5.85938 8.57422 5.77148 8.73047 5.5957L10.791 3.44727L11.8164 2.37305L11.748 4.22852L11.748 8.08594C11.748 8.53516 12.1484 8.91602 12.6074 8.91602Z" fill="#ffffff" fill-opacity="0.85"/>
 </g>
</svg>
