<?xml version="1.0" encoding="UTF-8"?>
<!--Generator: Apple Native CoreSVG 232.5-->
<!DOCTYPE svg
PUBLIC "-//W3C//DTD SVG 1.1//EN"
       "http://www.w3.org/Graphics/SVG/1.1/DTD/svg11.dtd">
<svg version="1.1" xmlns="http://www.w3.org/2000/svg" xmlns:xlink="http://www.w3.org/1999/xlink" width="25.8008" height="25.459">
 <g>
  <rect height="25.459" opacity="0" width="25.8008" x="0" y="0"/>
  <path d="M25.4395 12.7344C25.4395 19.6973 19.6777 25.459 12.7148 25.459C5.76172 25.459 0 19.6973 0 12.7344C0 5.78125 5.75195 0.0195312 12.7051 0.0195312C19.668 0.0195312 25.4395 5.78125 25.4395 12.7344ZM7.99805 18.9844C8.02734 19.834 8.55469 20.332 9.4043 20.332L16.0254 20.332C16.6648 20.332 17.14 20.0434 17.3425 19.53L15.3116 17.4991L15.293 17.9297C15.293 18.1641 15.1074 18.3301 14.873 18.3301C14.5898 18.3301 14.4336 18.1543 14.4434 17.9102L14.4905 16.678L13.125 15.3125L13.125 17.9102C13.125 18.1543 12.9395 18.3301 12.6758 18.3301C12.4121 18.3301 12.2363 18.1543 12.2363 17.9102L12.2363 14.4238L10.7233 12.9108L10.9082 17.9102C10.918 18.1543 10.7715 18.3301 10.4883 18.3301C10.2441 18.3301 10.0684 18.1641 10.0684 17.9297L9.80323 11.9907L7.57369 9.76119ZM5.75195 5.97656C5.54688 6.19141 5.55664 6.5332 5.75195 6.72852L18.5254 19.4922C18.7207 19.6875 19.0723 19.6973 19.2773 19.4922C19.4824 19.2676 19.4824 18.9453 19.2773 18.7402L6.51367 5.97656C6.30859 5.77148 5.9668 5.77148 5.75195 5.97656ZM11.377 4.82422C10.293 4.82422 9.60938 5.48828 9.60938 6.49414L9.60938 7.57812L9.33425 7.57813L12.2363 10.4824L12.2363 10.2637C12.2363 10 12.4023 9.84375 12.6758 9.84375C12.9492 9.84375 13.125 10 13.125 10.2637L13.125 11.3718L14.6357 12.8836L14.7363 10.2539C14.7461 10 14.9219 9.84375 15.1855 9.84375C15.4688 9.84375 15.625 10.0098 15.625 10.2734L15.4754 13.7239L17.5928 15.843L17.9199 8.58398L18.9844 8.58398C19.2773 8.58398 19.502 8.35938 19.5117 8.0957C19.5215 7.8125 19.2773 7.57812 18.9844 7.57812L15.8105 7.57812L15.8105 6.49414C15.8105 5.48828 15.1172 4.82422 14.0234 4.82422ZM14.5996 6.5625L14.5996 7.57812L10.7715 7.57812L10.7715 6.5625C10.7715 6.20117 11.0449 5.95703 11.416 5.95703L13.9453 5.95703C14.3359 5.95703 14.5996 6.20117 14.5996 6.5625Z" fill="#ffffff" fill-opacity="0.85"/>
 </g>
</svg>
