<?xml version="1.0" encoding="UTF-8"?>
<!--Generator: Apple Native CoreSVG 232.5-->
<!DOCTYPE svg
PUBLIC "-//W3C//DTD SVG 1.1//EN"
       "http://www.w3.org/Graphics/SVG/1.1/DTD/svg11.dtd">
<svg version="1.1" xmlns="http://www.w3.org/2000/svg" xmlns:xlink="http://www.w3.org/1999/xlink" width="23.3203" height="22.9785">
 <g>
  <rect height="22.9785" opacity="0" width="23.3203" x="0" y="0"/>
  <path d="M22.959 3.78906L22.959 19.2188C22.959 21.709 21.6797 22.9785 19.1504 22.9785L3.79883 22.9785C1.2793 22.9785 0 21.7188 0 19.2188L0 3.78906C0 1.28906 1.2793 0.0292969 3.79883 0.0292969L19.1504 0.0292969C21.6797 0.0292969 22.959 1.29883 22.959 3.78906ZM10.166 3.58398C9.08203 3.58398 8.39844 4.24805 8.39844 5.25391L8.39844 6.33789L5.17578 6.33789C4.90234 6.33789 4.67773 6.57227 4.67773 6.85547C4.67773 7.12891 4.90234 7.34375 5.17578 7.34375L6.29883 7.34375L6.77734 17.7441C6.80664 18.5938 7.34375 19.0918 8.19336 19.0918L14.8145 19.0918C15.6445 19.0918 16.2109 18.5938 16.2402 17.7441L16.709 7.34375L17.7734 7.34375C18.0566 7.34375 18.2715 7.12891 18.2812 6.85547C18.291 6.57227 18.0566 6.33789 17.7734 6.33789L14.5996 6.33789L14.5996 5.25391C14.5996 4.24805 13.8965 3.58398 12.8125 3.58398ZM9.39453 9.01367L9.69727 16.6699C9.70703 16.9141 9.55078 17.0898 9.27734 17.0898C9.0332 17.0898 8.84766 16.9238 8.83789 16.6895L8.51562 9.0332C8.50586 8.76953 8.67188 8.60352 8.96484 8.60352C9.21875 8.60352 9.39453 8.75977 9.39453 9.01367ZM11.9141 9.02344L11.9141 16.6699C11.9141 16.9141 11.7285 17.0898 11.4648 17.0898C11.2012 17.0898 11.0254 16.9141 11.0254 16.6699L11.0254 9.02344C11.0254 8.75977 11.1816 8.60352 11.4648 8.60352C11.7383 8.60352 11.9141 8.75977 11.9141 9.02344ZM14.4141 9.0332L14.082 16.6895C14.082 16.9238 13.8965 17.0898 13.6426 17.0898C13.3789 17.0898 13.2227 16.9141 13.2324 16.6699L13.5254 9.01367C13.5352 8.75977 13.7109 8.60352 13.9746 8.60352C14.248 8.60352 14.4141 8.76953 14.4141 9.0332ZM13.3887 5.32227L13.3887 6.33789L9.56055 6.33789L9.56055 5.32227C9.56055 4.96094 9.82422 4.7168 10.2051 4.7168L12.7344 4.7168C13.125 4.7168 13.3887 4.96094 13.3887 5.32227Z" fill="#ffffff" fill-opacity="0.85"/>
 </g>
</svg>
