<svg version="1.1" xmlns="http://www.w3.org/2000/svg" xmlns:xlink="http://www.w3.org/1999/xlink" width="25.8008" height="25.459" viewBox="0 0 25.8008 25.459">
 <g>
  <rect height="25.459" opacity="0" width="25.8008" x="0" y="0"/>
  <path d="M25.4395 12.7246C25.4395 19.6777 19.6777 25.4395 12.7148 25.4395C5.76172 25.4395 0 19.6777 0 12.7246C0 5.76172 5.75195 0 12.7051 0C19.668 0 25.4395 5.76172 25.4395 12.7246ZM4.10156 12.666C4.10156 15.3516 5.79102 17.3828 8.02734 17.3828C10.332 17.3828 11.5332 15.4297 12.7148 15.4297C13.9062 15.4297 15.0977 17.3828 17.4121 17.3828C19.6484 17.3828 21.3281 15.3516 21.3281 12.666C21.3281 8.28125 17.4805 7.79297 12.7148 7.79297C7.94922 7.79297 4.10156 8.28125 4.10156 12.666Z" fill="currentColor"/>
 </g>
</svg>
