<svg version="1.1" xmlns="http://www.w3.org/2000/svg" xmlns:xlink="http://www.w3.org/1999/xlink" width="27.1777" height="26.9238" viewBox="0 0 27.1777 26.9238">
 <g>
  <rect height="26.9238" opacity="0" width="27.1777" x="0" y="0"/>
  <path d="M23.8672 25.7324C24.3555 26.2305 25.1562 26.2207 25.6055 25.7324C26.0742 25.2344 26.084 24.4824 25.6055 23.9941L13.5742 11.9238C13.0957 11.4355 12.2852 11.4355 11.8359 11.9238C11.3574 12.4121 11.3672 13.1836 11.8359 13.6621ZM16.4062 17.0801L12.666 13.3301C12.4609 13.125 12.3926 12.8906 12.5977 12.6855C12.7734 12.5098 13.0176 12.5586 13.2324 12.7734L16.9824 16.5137Z" fill="currentColor"/>
  <path d="M25.8789 14.3457C26.3867 14.3457 26.8164 13.916 26.8164 13.4082C26.8164 12.9004 26.3867 12.4609 25.8789 12.4609L21.9824 12.4609C21.4746 12.4609 21.0352 12.9004 21.0352 13.4082C21.0352 13.916 21.4746 14.3457 21.9824 14.3457Z" fill="currentColor"/>
  <path d="M18.7793 6.70898C18.418 7.08008 18.418 7.67578 18.7793 8.03711C19.1406 8.39844 19.7461 8.39844 20.1074 8.03711L22.8613 5.2832C23.2227 4.92188 23.2227 4.31641 22.8613 3.95508C22.5 3.58398 21.9043 3.58398 21.543 3.95508Z" fill="currentColor"/>
  <path d="M14.3555 0.9375C14.3555 0.429688 13.916 0 13.4082 0C12.9004 0 12.4707 0.429688 12.4707 0.9375L12.4707 4.83398C12.4707 5.3418 12.9004 5.78125 13.4082 5.78125C13.916 5.78125 14.3555 5.3418 14.3555 4.83398Z" fill="currentColor"/>
  <path d="M6.69922 8.03711C7.06055 8.39844 7.66602 8.39844 8.02734 8.03711C8.38867 7.68555 8.38867 7.08008 8.02734 6.70898L5.29297 3.96484C4.93164 3.60352 4.32617 3.58398 3.96484 3.95508C3.60352 4.30664 3.60352 4.91211 3.96484 5.27344Z" fill="currentColor"/>
  <path d="M0.947266 12.4609C0.429688 12.4609 0 12.9004 0 13.4082C0 13.916 0.429688 14.3457 0.947266 14.3457L4.84375 14.3457C5.36133 14.3457 5.79102 13.916 5.79102 13.4082C5.79102 12.9004 5.36133 12.4609 4.84375 12.4609Z" fill="currentColor"/>
  <path d="M3.94531 21.5234C3.59375 21.8848 3.58398 22.4902 3.93555 22.8516C4.29688 23.2031 4.91211 23.2227 5.27344 22.8613L8.02734 20.1172C8.37891 19.7559 8.38867 19.1504 8.02734 18.7891C7.67578 18.4375 7.06055 18.4277 6.69922 18.7891Z" fill="currentColor"/>
  <path d="M14.3555 21.9824C14.3555 21.4746 13.916 21.0449 13.4082 21.0449C12.9004 21.0449 12.4707 21.4746 12.4707 21.9824L12.4707 25.8789C12.4707 26.3867 12.9004 26.8262 13.4082 26.8262C13.916 26.8262 14.3555 26.3867 14.3555 25.8789Z" fill="currentColor"/>
 </g>
</svg>
