<?xml version="1.0" encoding="UTF-8"?>
<!--Generator: Apple Native CoreSVG 232.5-->
<!DOCTYPE svg
PUBLIC "-//W3C//DTD SVG 1.1//EN"
       "http://www.w3.org/Graphics/SVG/1.1/DTD/svg11.dtd">
<svg version="1.1" xmlns="http://www.w3.org/2000/svg" xmlns:xlink="http://www.w3.org/1999/xlink" width="23.3203" height="22.9785">
 <g>
  <rect height="22.9785" opacity="0" width="23.3203" x="0" y="0"/>
  <path d="M22.959 3.78906L22.959 19.2188C22.959 21.709 21.6797 22.9785 19.1504 22.9785L3.79883 22.9785C1.2793 22.9785 0 21.7188 0 19.2188L0 3.78906C0 1.28906 1.2793 0.0292969 3.79883 0.0292969L19.1504 0.0292969C21.6797 0.0292969 22.959 1.29883 22.959 3.78906ZM9.08203 15.0586C8.98438 15.2051 9.01367 15.3711 9.15039 15.498L10.8887 17.1777C11.1719 17.4609 11.3086 17.5391 11.4941 17.5391C11.6699 17.5391 11.8066 17.4707 12.1094 17.1777L13.8477 15.498C13.9746 15.3711 14.0039 15.166 13.877 15.0098C13.3887 14.3457 12.4316 13.877 11.4941 13.877C10.5371 13.877 9.58984 14.3555 9.08203 15.0586ZM6.11328 11.9922C5.98633 12.1484 6.00586 12.334 6.15234 12.4902L7.2168 13.5742C7.40234 13.75 7.63672 13.7695 7.83203 13.5449C8.7207 12.5586 10.127 11.9141 11.4941 11.9336C12.8418 11.9141 14.2578 12.5586 15.166 13.5547C15.3516 13.7598 15.5762 13.75 15.7617 13.5742L16.8457 12.4902C16.9922 12.3438 17.002 12.1387 16.8652 11.9922C15.7031 10.5762 13.623 9.6582 11.4941 9.6582C9.35547 9.6582 7.27539 10.5762 6.11328 11.9922ZM3.23242 9.0625C3.0957 9.23828 3.125 9.43359 3.27148 9.58984L4.21875 10.5566C4.36523 10.752 4.63867 10.7422 4.82422 10.5469C6.54297 8.71094 8.86719 7.71484 11.4941 7.71484C14.1113 7.71484 16.4648 8.69141 18.1836 10.5566C18.3496 10.7324 18.5938 10.7324 18.7598 10.5469L19.707 9.58984C19.8633 9.43359 19.8828 9.23828 19.7461 9.0625C17.9883 6.91406 14.7168 5.45898 11.4941 5.45898C8.26172 5.45898 4.99023 6.9043 3.23242 9.0625Z" fill="#ffffff" fill-opacity="0.85"/>
 </g>
</svg>
