<svg version="1.1" xmlns="http://www.w3.org/2000/svg" xmlns:xlink="http://www.w3.org/1999/xlink" width="25.8008" height="25.459" viewBox="0 0 25.8008 25.459">
 <g>
  <rect height="25.459" opacity="0" width="25.8008" x="0" y="0"/>
  <path d="M25.4395 12.7246C25.4395 19.6777 19.6777 25.4395 12.7148 25.4395C5.76172 25.4395 0 19.6777 0 12.7246C0 5.76172 5.75195 0 12.7051 0C19.668 0 25.4395 5.76172 25.4395 12.7246ZM8.13477 7.2168C8.13477 7.40234 8.18359 7.53906 8.29102 7.69531L11.4551 12.7539L9.6582 12.7539C9.31641 12.7539 9.0918 13.0078 9.0918 13.3301C9.0918 13.6621 9.32617 13.916 9.6582 13.916L12.002 13.916L12.002 14.9219L9.6582 14.9219C9.31641 14.9219 9.0918 15.1758 9.0918 15.498C9.0918 15.8301 9.32617 16.0645 9.6582 16.0645L12.002 16.0645L12.002 18.0762C12.002 18.5449 12.3047 18.8477 12.7148 18.8477C13.1348 18.8477 13.4375 18.5547 13.4375 18.0859L13.4375 16.0645L15.8691 16.0645C16.2109 16.0645 16.4355 15.8301 16.4355 15.498C16.4355 15.1758 16.2109 14.9219 15.8691 14.9219L13.4375 14.9219L13.4375 13.916L15.8691 13.916C16.2109 13.916 16.4355 13.6621 16.4355 13.3301C16.4355 13.0078 16.2109 12.7539 15.8691 12.7539L13.9844 12.7539L17.1484 7.70508C17.2559 7.54883 17.2949 7.40234 17.2949 7.23633C17.2949 6.86523 16.9922 6.5625 16.582 6.5625C16.2988 6.5625 16.0938 6.67969 15.9277 6.94336L12.7246 12.2461L9.50195 6.93359C9.33594 6.66016 9.13086 6.55273 8.85742 6.55273C8.44727 6.55273 8.13477 6.8457 8.13477 7.2168Z" fill="currentColor"/>
 </g>
</svg>
