<svg version="1.1" xmlns="http://www.w3.org/2000/svg" xmlns:xlink="http://www.w3.org/1999/xlink" width="25.8008" height="25.459" viewBox="0 0 25.8008 25.459">
 <g>
  <rect height="25.459" opacity="0" width="25.8008" x="0" y="0"/>
  <path d="M12.7148 25.4395C19.6777 25.4395 25.4395 19.6777 25.4395 12.7246C25.4395 5.76172 19.668 0 12.7051 0C5.75195 0 0 5.76172 0 12.7246C0 19.6777 5.76172 25.4395 12.7148 25.4395ZM12.7148 23.623C6.67969 23.623 1.82617 18.7598 1.82617 12.7246C1.82617 6.67969 6.66992 1.82617 12.7051 1.82617C18.75 1.82617 23.6133 6.67969 23.6133 12.7246C23.6133 18.7598 18.7598 23.623 12.7148 23.623Z" fill="currentColor"/>
  <path d="M9.0918 18.3398L16.4648 18.3398C16.8848 18.3398 17.1875 18.0566 17.1875 17.6172C17.1875 17.1777 16.8848 16.9043 16.4648 16.9043L10.5078 16.9043L10.5078 16.8066L16.5332 8.47656C16.7578 8.16406 16.8164 8.00781 16.8164 7.74414C16.8164 7.26562 16.4648 6.93359 15.9668 6.93359L8.98438 6.93359C8.56445 6.93359 8.25195 7.2168 8.25195 7.64648C8.25195 8.0957 8.56445 8.36914 8.98438 8.36914L14.6191 8.36914L14.6191 8.45703L8.58398 16.7871C8.33008 17.1387 8.27148 17.3047 8.27148 17.5586C8.27148 18.0176 8.60352 18.3398 9.0918 18.3398Z" fill="currentColor"/>
 </g>
</svg>
