<svg version="1.1" xmlns="http://www.w3.org/2000/svg" xmlns:xlink="http://www.w3.org/1999/xlink" width="23.3203" height="22.9785" viewBox="0 0 23.3203 22.9785">
 <g>
  <rect height="22.9785" opacity="0" width="23.3203" x="0" y="0"/>
  <path d="M3.79883 22.9785L19.1504 22.9785C21.6797 22.9785 22.959 21.709 22.959 19.2188L22.959 3.78906C22.959 1.29883 21.6797 0.0292969 19.1504 0.0292969L3.79883 0.0292969C1.2793 0.0292969 0 1.28906 0 3.78906L0 19.2188C0 21.7188 1.2793 22.9785 3.79883 22.9785ZM3.83789 21.25C2.4707 21.25 1.72852 20.5273 1.72852 19.1309L1.72852 3.87695C1.72852 2.48047 2.4707 1.75781 3.83789 1.75781L19.1211 1.75781C20.459 1.75781 21.2305 2.48047 21.2305 3.87695L21.2305 19.1309C21.2305 20.5273 20.459 21.25 19.1211 21.25Z" fill="currentColor"/>
  <path d="M7.87109 17.0996L15.2441 17.0996C15.6641 17.0996 15.9668 16.8164 15.9668 16.377C15.9668 15.9375 15.6641 15.6641 15.2441 15.6641L9.28711 15.6641L9.28711 15.5664L15.3125 7.23633C15.5371 6.92383 15.5859 6.76758 15.5859 6.50391C15.5859 6.02539 15.2441 5.69336 14.7461 5.69336L7.76367 5.69336C7.34375 5.69336 7.03125 5.97656 7.03125 6.40625C7.03125 6.85547 7.34375 7.12891 7.76367 7.12891L13.3984 7.12891L13.3984 7.2168L7.36328 15.5469C7.10938 15.8984 7.05078 16.0645 7.05078 16.3184C7.05078 16.7773 7.38281 17.0996 7.87109 17.0996Z" fill="currentColor"/>
 </g>
</svg>
