<svg version="1.1" xmlns="http://www.w3.org/2000/svg" xmlns:xlink="http://www.w3.org/1999/xlink" viewBox="0 0 20.2832 19.9512">
 <g>
  <rect height="19.9512" opacity="0" width="20.2832" x="0" y="0"/>
  <path d="M9.96094 19.9219C15.459 19.9219 19.9219 15.4492 19.9219 9.96094C19.9219 4.46289 15.459 0 9.96094 0C4.47266 0 0 4.46289 0 9.96094C0 15.4492 4.47266 19.9219 9.96094 19.9219Z" fill="var(--color-tertiary)"/>
  <path d="M6.75781 14.2383C4.74609 14.2383 4.15039 11.9922 4.15039 9.96094C4.15039 7.92969 4.74609 5.68359 6.75781 5.68359C8.76953 5.68359 9.36523 7.92969 9.36523 9.96094C9.36523 11.9922 8.76953 14.2383 6.75781 14.2383ZM6.75781 13.0371C7.56836 13.0371 7.88086 11.709 7.88086 9.96094C7.88086 8.20312 7.56836 6.875 6.75781 6.875C5.9375 6.875 5.625 8.20312 5.625 9.96094C5.625 11.709 5.9375 13.0371 6.75781 13.0371ZM12.9785 14.209C11.8945 14.209 10.8594 13.6914 10.5762 12.7539C10.5273 12.5879 10.498 12.4121 10.498 12.2266C10.498 11.8262 10.7617 11.5918 11.1523 11.5918C11.4844 11.5918 11.6992 11.7578 11.7969 12.0898C11.9238 12.5488 12.2461 13.0371 12.9785 13.0371C13.7207 13.0371 14.0918 12.4414 14.0918 11.7578C14.0918 10.8789 13.623 10.4102 12.7637 10.4102L12.5195 10.4102C12.1875 10.4102 11.9629 10.2051 11.9629 9.87305C11.9629 9.55078 12.1777 9.33594 12.5195 9.33594L12.7539 9.33594C13.5059 9.33594 13.916 8.79883 13.916 8.06641C13.916 7.40234 13.6035 6.89453 12.9395 6.89453C12.373 6.89453 12.0508 7.26562 11.8945 7.86133C11.7969 8.21289 11.5918 8.33984 11.25 8.33984C10.8496 8.33984 10.625 8.07617 10.625 7.74414C10.625 7.57812 10.6445 7.39258 10.7031 7.19727C10.9961 6.30859 11.9043 5.72266 12.9395 5.72266C14.248 5.72266 15.293 6.51367 15.293 7.91016C15.293 8.75 14.8438 9.57031 13.9355 9.81445L13.9355 9.84375C14.7852 9.93164 15.5273 10.5469 15.5273 11.7969C15.5273 13.3008 14.4238 14.209 12.9785 14.209Z" fill="var(--color-primary)"/>
 </g>
</svg>
