<svg version="1.1" xmlns="http://www.w3.org/2000/svg" xmlns:xlink="http://www.w3.org/1999/xlink" viewBox="0 0 18.3398 17.9785">
 <g>
  <rect height="17.9785" opacity="0" width="18.3398" x="0" y="0"/>
  <path d="M3.06641 17.9785L14.9121 17.9785C16.9629 17.9785 17.9785 16.9727 17.9785 14.9609L17.9785 3.02734C17.9785 1.01562 16.9629 0 14.9121 0L3.06641 0C1.02539 0 0 1.01562 0 3.02734L0 14.9609C0 16.9727 1.02539 17.9785 3.06641 17.9785ZM3.08594 16.4062C2.10938 16.4062 1.57227 15.8887 1.57227 14.873L1.57227 3.11523C1.57227 2.09961 2.10938 1.57227 3.08594 1.57227L14.8926 1.57227C15.8594 1.57227 16.4062 2.09961 16.4062 3.11523L16.4062 14.873C16.4062 15.8887 15.8594 16.4062 14.8926 16.4062Z" fill="var(--color-primary)"/>
  <path d="M5.78125 13.1348C7.72461 13.1348 8.31055 10.9473 8.31055 8.98438C8.31055 7.02148 7.72461 4.83398 5.78125 4.83398C3.83789 4.83398 3.25195 7.02148 3.25195 8.98438C3.25195 10.9473 3.83789 13.1348 5.78125 13.1348ZM5.78125 11.9727C4.98047 11.9727 4.67773 10.6738 4.67773 8.98438C4.67773 7.28516 4.98047 5.98633 5.78125 5.98633C6.58203 5.98633 6.88477 7.28516 6.88477 8.98438C6.88477 10.6738 6.58203 11.9727 5.78125 11.9727ZM12.0215 13.1348C13.5059 13.1348 14.3652 11.8848 14.3652 10.3516C14.3652 9.0332 13.7305 7.7832 12.4316 7.7832C11.6406 7.7832 11.0449 8.31055 10.8203 9.15039L10.7812 9.15039C10.7812 9.11133 10.7812 9.07227 10.7812 9.04297C10.7812 7.95898 10.918 5.99609 12.002 5.99609C12.4414 5.99609 12.7441 6.30859 12.9102 6.71875C13.0469 7.02148 13.2324 7.1582 13.5449 7.1582C13.9453 7.1582 14.1113 6.89453 14.1113 6.57227C14.1113 6.46484 14.0918 6.34766 14.0625 6.2207C13.8574 5.38086 13.0078 4.85352 12.0312 4.85352C10.0293 4.85352 9.44336 7.09961 9.44336 9.08203C9.44336 10.9277 10.0391 13.1348 12.0215 13.1348ZM12.002 11.9922C11.2598 11.9922 10.9668 11.0742 10.9668 10.3711C10.9668 9.6582 11.2891 8.84766 11.9922 8.84766C12.7148 8.84766 13.0176 9.6875 12.998 10.4102C12.998 11.123 12.6758 11.9922 12.002 11.9922Z" fill="var(--color-primary)"/>
 </g>
</svg>
