<svg version="1.1" xmlns="http://www.w3.org/2000/svg" xmlns:xlink="http://www.w3.org/1999/xlink" viewBox="0 0 20.2832 19.9316">
 <g>
  <rect height="19.9316" opacity="0" width="20.2832" x="0" y="0"/>
  <path d="M19.9219 9.96094C19.9219 15.4492 15.459 19.9219 9.96094 19.9219C4.47266 19.9219 0 15.4492 0 9.96094C0 4.46289 4.47266 0 9.96094 0C15.459 0 19.9219 4.46289 19.9219 9.96094ZM4.55078 9.96094C4.55078 11.9922 5.14648 14.2383 7.1582 14.2383C9.16992 14.2383 9.77539 11.9922 9.77539 9.96094C9.77539 7.92969 9.16992 5.68359 7.1582 5.68359C5.14648 5.68359 4.55078 7.92969 4.55078 9.96094ZM11.1621 5.88867C10.8203 5.88867 10.5859 6.14258 10.5859 6.48438C10.5859 6.83594 10.8203 7.08984 11.1621 7.08984L13.75 7.08984L13.75 7.17773L11.5234 12.9492C11.4355 13.1738 11.4062 13.3008 11.4062 13.5449C11.4062 13.8379 11.582 14.1699 12.0703 14.1699C12.4414 14.1699 12.6074 14.0234 12.7441 13.6523L15.0391 7.51953C15.1562 7.20703 15.2246 6.96289 15.2246 6.66992C15.2246 6.20117 14.873 5.88867 14.4238 5.88867ZM8.29102 9.96094C8.29102 11.709 7.97852 13.0371 7.1582 13.0371C6.33789 13.0371 6.02539 11.709 6.02539 9.96094C6.02539 8.20312 6.33789 6.88477 7.1582 6.88477C7.97852 6.88477 8.29102 8.20312 8.29102 9.96094Z" fill="var(--color-primary)"/>
 </g>
</svg>
