<svg version="1.1" xmlns="http://www.w3.org/2000/svg" xmlns:xlink="http://www.w3.org/1999/xlink" viewBox="0 0 18.3398 17.9785">
 <g>
  <rect height="17.9785" opacity="0" width="18.3398" x="0" y="0"/>
  <path d="M17.9785 3.02734L17.9785 14.9609C17.9785 16.9727 16.9629 17.9785 14.9121 17.9785L3.06641 17.9785C1.02539 17.9785 0 16.9727 0 14.9609L0 3.02734C0 1.01562 1.02539 0 3.06641 0L14.9121 0C16.9629 0 17.9785 1.01562 17.9785 3.02734ZM8.67188 8.98438C8.67188 11.0156 9.27734 13.2617 11.2793 13.2617C13.2812 13.2617 13.8867 11.0156 13.8867 8.98438C13.8867 6.95312 13.2812 4.70703 11.2793 4.70703C9.27734 4.70703 8.67188 6.95312 8.67188 8.98438ZM5.21484 5.19531L4.11133 6.05469C3.93555 6.19141 3.79883 6.38672 3.79883 6.65039C3.79883 6.96289 4.00391 7.1875 4.30664 7.1875C4.47266 7.1875 4.57031 7.13867 4.67773 7.06055L5.5957 6.31836L5.5957 12.4219C5.5957 12.832 5.92773 13.1641 6.33789 13.1641C6.73828 13.1641 7.08008 12.832 7.08008 12.4219L7.08008 5.60547C7.08008 5.08789 6.74805 4.78516 6.23047 4.78516C5.80078 4.78516 5.45898 5.01953 5.21484 5.19531ZM12.4121 8.98438C12.4121 10.7324 12.0996 12.0605 11.2793 12.0605C10.459 12.0605 10.1465 10.7324 10.1465 8.98438C10.1465 7.22656 10.459 5.9082 11.2793 5.9082C12.0996 5.9082 12.4121 7.22656 12.4121 8.98438Z" fill="var(--color-primary)"/>
 </g>
</svg>
