<svg version="1.1" xmlns="http://www.w3.org/2000/svg" xmlns:xlink="http://www.w3.org/1999/xlink" viewBox="0 0 18.3398 17.9785">
 <g>
  <rect height="17.9785" opacity="0" width="18.3398" x="0" y="0"/>
  <path d="M3.06641 17.9785L14.9121 17.9785C16.9629 17.9785 17.9785 16.9727 17.9785 14.9609L17.9785 3.02734C17.9785 1.01562 16.9629 0 14.9121 0L3.06641 0C1.02539 0 0 1.01562 0 3.02734L0 14.9609C0 16.9727 1.02539 17.9785 3.06641 17.9785Z" fill="var(--color-tertiary)"/>
  <path d="M6.06445 13.1641C5.64453 13.1641 5.3125 12.832 5.3125 12.4219L5.3125 6.31836L4.39453 7.06055C4.28711 7.13867 4.18945 7.1875 4.02344 7.1875C3.7207 7.1875 3.50586 6.96289 3.50586 6.65039C3.50586 6.38672 3.65234 6.19141 3.83789 6.05469L4.94141 5.19531C5.17578 5.01953 5.51758 4.78516 5.9375 4.78516C6.46484 4.78516 6.78711 5.08789 6.78711 5.60547L6.78711 12.4219C6.78711 12.832 6.45508 13.1641 6.06445 13.1641ZM12.0801 13.1836C11.7578 13.1836 11.377 12.998 11.377 12.4707L11.377 11.4648L9.12109 11.4648C8.63281 11.4648 8.29102 11.1328 8.29102 10.6445C8.29102 10.332 8.34961 10.0684 8.52539 9.67773L10.3223 5.77148C10.6055 5.14648 10.9375 4.78516 11.6504 4.78516C12.3047 4.78516 12.7734 5.17578 12.7734 5.87891L12.7734 10.293L13.125 10.293C13.5254 10.293 13.7012 10.5469 13.7012 10.8691C13.7012 11.2109 13.5156 11.4648 13.125 11.4648L12.7734 11.4648L12.7734 12.4707C12.7734 12.9492 12.4609 13.1836 12.0801 13.1836ZM11.4062 10.3223L11.4062 6.05469L11.3672 6.05469L9.54102 10.2539L9.54102 10.3223Z" fill="var(--color-primary)"/>
 </g>
</svg>
