<svg version="1.1" xmlns="http://www.w3.org/2000/svg" xmlns:xlink="http://www.w3.org/1999/xlink" viewBox="0 0 20.2832 19.9316">
 <g>
  <rect height="19.9316" opacity="0" width="20.2832" x="0" y="0"/>
  <path d="M9.96094 19.9219C15.459 19.9219 19.9219 15.459 19.9219 9.96094C19.9219 4.46289 15.459 0 9.96094 0C4.46289 0 0 4.46289 0 9.96094C0 15.459 4.46289 19.9219 9.96094 19.9219ZM9.96094 18.2617C5.37109 18.2617 1.66016 14.5508 1.66016 9.96094C1.66016 5.37109 5.37109 1.66016 9.96094 1.66016C14.5508 1.66016 18.2617 5.37109 18.2617 9.96094C18.2617 14.5508 14.5508 18.2617 9.96094 18.2617Z" fill="var(--color-secondary)"/>
  <path d="M7.16797 14.0137C7.55859 14.0137 7.88086 13.6914 7.88086 13.3008L7.88086 6.67969C7.88086 6.18164 7.56836 5.88867 7.06055 5.88867C6.65039 5.88867 6.31836 6.11328 6.09375 6.28906L5.01953 7.11914C4.84375 7.25586 4.70703 7.44141 4.70703 7.69531C4.70703 7.99805 4.91211 8.21289 5.20508 8.21289C5.36133 8.21289 5.45898 8.16406 5.55664 8.0957L6.45508 7.37305L6.45508 13.3008C6.45508 13.6914 6.77734 14.0137 7.16797 14.0137ZM12.0215 14.1113C13.5059 14.1113 14.3652 12.8613 14.3652 11.3281C14.3652 10.0098 13.7305 8.75977 12.4316 8.75977C11.6406 8.75977 11.0449 9.28711 10.8203 10.127L10.7812 10.127C10.7812 10.0879 10.7812 10.0488 10.7812 10.0195C10.7812 8.93555 10.918 6.97266 12.002 6.97266C12.4512 6.97266 12.7441 7.28516 12.9102 7.69531C13.0469 7.99805 13.2324 8.13477 13.5449 8.13477C13.9453 8.13477 14.1113 7.87109 14.1113 7.54883C14.1113 7.44141 14.0918 7.32422 14.0625 7.19727C13.8574 6.35742 13.0078 5.83008 12.0312 5.83008C10.0293 5.83008 9.45312 8.07617 9.45312 10.0586C9.45312 11.9043 10.0391 14.1113 12.0215 14.1113ZM12.002 12.9688C11.2598 12.9688 10.9668 12.0508 10.9668 11.3477C10.9668 10.6348 11.2891 9.82422 12.002 9.82422C12.7246 9.82422 13.0176 10.6641 12.998 11.3867C12.998 12.0996 12.6855 12.9688 12.002 12.9688Z" fill="var(--color-primary)"/>
 </g>
</svg>
