<svg version="1.1" xmlns="http://www.w3.org/2000/svg" xmlns:xlink="http://www.w3.org/1999/xlink" viewBox="0 0 20.2832 19.9316">
 <g>
  <rect height="19.9316" opacity="0" width="20.2832" x="0" y="0"/>
  <path d="M9.96094 19.9219C15.459 19.9219 19.9219 15.459 19.9219 9.96094C19.9219 4.46289 15.459 0 9.96094 0C4.46289 0 0 4.46289 0 9.96094C0 15.459 4.46289 19.9219 9.96094 19.9219ZM9.96094 18.2617C5.37109 18.2617 1.66016 14.5508 1.66016 9.96094C1.66016 5.37109 5.37109 1.66016 9.96094 1.66016C14.5508 1.66016 18.2617 5.37109 18.2617 9.96094C18.2617 14.5508 14.5508 18.2617 9.96094 18.2617Z" fill="var(--color-primary)"/>
  <path d="M6.09375 13.9062L9.48242 13.9062C9.82422 13.9062 10.0391 13.6816 10.0391 13.3398C10.0391 12.9688 9.81445 12.7637 9.48242 12.7637L7.16797 12.7637L7.16797 12.6855L8.59375 10.8789C9.57031 9.66797 9.89258 8.94531 9.89258 8.08594C9.89258 6.76758 8.99414 5.81055 7.64648 5.81055C6.39648 5.81055 5.44922 6.8457 5.44922 7.86133C5.44922 8.22266 5.66406 8.47656 6.03516 8.47656C6.35742 8.47656 6.55273 8.33008 6.65039 8.00781C6.83594 7.35352 7.08008 6.94336 7.63672 6.94336C8.23242 6.94336 8.55469 7.46094 8.55469 8.1543C8.55469 8.93555 8.01758 9.72656 7.5 10.3906L5.80078 12.5586C5.61523 12.793 5.43945 13.0371 5.43945 13.3398C5.43945 13.6719 5.6543 13.9062 6.09375 13.9062ZM13.3008 14.0137C13.6914 14.0137 14.0137 13.6914 14.0137 13.3008L14.0137 6.67969C14.0137 6.18164 13.7012 5.88867 13.1934 5.88867C12.7832 5.88867 12.4512 6.11328 12.2168 6.28906L11.1426 7.11914C10.9766 7.25586 10.8398 7.44141 10.8398 7.69531C10.8398 7.99805 11.0449 8.21289 11.3379 8.21289C11.4941 8.21289 11.5918 8.16406 11.6895 8.0957L12.5879 7.37305L12.5879 13.3008C12.5879 13.6914 12.9102 14.0137 13.3008 14.0137Z" fill="var(--color-primary)"/>
 </g>
</svg>
