<svg version="1.1" xmlns="http://www.w3.org/2000/svg" xmlns:xlink="http://www.w3.org/1999/xlink" viewBox="0 0 18.3398 17.9785">
 <g>
  <rect height="17.9785" opacity="0" width="18.3398" x="0" y="0"/>
  <path d="M3.06641 17.9785L14.9121 17.9785C16.9629 17.9785 17.9785 16.9727 17.9785 14.9609L17.9785 3.02734C17.9785 1.01562 16.9629 0 14.9121 0L3.06641 0C1.02539 0 0 1.01562 0 3.02734L0 14.9609C0 16.9727 1.02539 17.9785 3.06641 17.9785Z" fill="var(--color-tertiary)"/>
  <path d="M4.21875 13.0566C3.75 13.0566 3.53516 12.8125 3.53516 12.4707C3.53516 12.1484 3.7207 11.8945 3.91602 11.6602L5.6543 9.42383C6.18164 8.75 6.74805 7.92969 6.74805 7.11914C6.74805 6.40625 6.40625 5.87891 5.81055 5.87891C5.23438 5.87891 4.99023 6.29883 4.79492 6.97266C4.69727 7.30469 4.48242 7.45117 4.15039 7.45117C3.75977 7.45117 3.55469 7.19727 3.55469 6.81641C3.55469 5.77148 4.53125 4.70703 5.82031 4.70703C7.20703 4.70703 8.125 5.69336 8.125 7.05078C8.125 7.93945 7.80273 8.68164 6.78711 9.93164L5.32227 11.7871L5.32227 11.8652L7.71484 11.8652C8.05664 11.8652 8.29102 12.0801 8.29102 12.4707C8.29102 12.8223 8.06641 13.0566 7.71484 13.0566ZM12.002 13.2617C9.95117 13.2617 9.3457 10.9863 9.3457 9.08203C9.3457 7.04102 9.95117 4.72656 12.0215 4.72656C13.0273 4.72656 13.8965 5.26367 14.1113 6.13281C14.1504 6.25977 14.1602 6.38672 14.1602 6.49414C14.1602 6.82617 13.9844 7.09961 13.584 7.09961C13.252 7.09961 13.0664 6.96289 12.9102 6.65039C12.7441 6.23047 12.4414 5.9082 11.9824 5.9082C10.8594 5.9082 10.7227 7.92969 10.7227 9.04297C10.7227 9.07227 10.7227 9.11133 10.7227 9.15039L10.7617 9.15039C10.9961 8.29102 11.6113 7.74414 12.4219 7.74414C13.7598 7.74414 14.4141 9.0332 14.4141 10.3906C14.4141 11.9727 13.5449 13.2617 12.002 13.2617ZM11.9824 12.0801C12.6855 12.0801 13.0078 11.1914 13.0078 10.459C13.0273 9.7168 12.7246 8.84766 11.9824 8.84766C11.2598 8.84766 10.918 9.67773 10.918 10.4199C10.918 11.1328 11.2207 12.0801 11.9824 12.0801Z" fill="var(--color-primary)"/>
 </g>
</svg>
