<svg version="1.1" xmlns="http://www.w3.org/2000/svg" xmlns:xlink="http://www.w3.org/1999/xlink" viewBox="0 0 20.2832 19.9316">
 <g>
  <rect height="19.9316" opacity="0" width="20.2832" x="0" y="0"/>
  <path d="M9.96094 19.9219C15.459 19.9219 19.9219 15.459 19.9219 9.96094C19.9219 4.46289 15.459 0 9.96094 0C4.46289 0 0 4.46289 0 9.96094C0 15.459 4.46289 19.9219 9.96094 19.9219ZM9.96094 18.2617C5.37109 18.2617 1.66016 14.5508 1.66016 9.96094C1.66016 5.37109 5.37109 1.66016 9.96094 1.66016C14.5508 1.66016 18.2617 5.37109 18.2617 9.96094C18.2617 14.5508 14.5508 18.2617 9.96094 18.2617Z" fill="var(--color-secondary)"/>
  <path d="M7.04102 14.082C8.4375 14.082 9.51172 13.2031 9.51172 11.7383C9.51172 10.5273 8.78906 9.93164 7.96875 9.84375L7.96875 9.81445C8.84766 9.58008 9.28711 8.78906 9.28711 7.96875C9.28711 6.62109 8.27148 5.84961 7.00195 5.84961C5.99609 5.84961 5.11719 6.41602 4.83398 7.28516C4.78516 7.4707 4.76562 7.64648 4.76562 7.8125C4.76562 8.13477 4.98047 8.38867 5.36133 8.38867C5.69336 8.38867 5.88867 8.26172 5.98633 7.91992C6.14258 7.34375 6.45508 6.98242 7.00195 6.98242C7.64648 6.98242 7.94922 7.48047 7.94922 8.125C7.94922 8.83789 7.55859 9.35547 6.82617 9.35547L6.5918 9.35547C6.25977 9.35547 6.05469 9.56055 6.05469 9.88281C6.05469 10.2051 6.26953 10.3906 6.5918 10.3906L6.83594 10.3906C7.66602 10.3906 8.125 10.8496 8.125 11.6992C8.125 12.373 7.76367 12.9492 7.04102 12.9492C6.32812 12.9492 6.01562 12.4707 5.88867 12.0215C5.80078 11.709 5.58594 11.543 5.27344 11.543C4.89258 11.543 4.63867 11.7773 4.63867 12.1582C4.63867 12.334 4.66797 12.5098 4.7168 12.666C4.99023 13.5742 5.98633 14.082 7.04102 14.082ZM11.1816 13.9062L14.5703 13.9062C14.9219 13.9062 15.127 13.6816 15.127 13.3398C15.127 12.9688 14.9121 12.7637 14.5703 12.7637L12.2559 12.7637L12.2559 12.6855L13.6816 10.8789C14.6582 9.66797 14.9805 8.94531 14.9805 8.08594C14.9805 6.76758 14.082 5.81055 12.7344 5.81055C11.4844 5.81055 10.5371 6.8457 10.5371 7.86133C10.5371 8.22266 10.752 8.47656 11.123 8.47656C11.4453 8.47656 11.6406 8.33008 11.748 8.00781C11.9238 7.35352 12.168 6.94336 12.7246 6.94336C13.3203 6.94336 13.6523 7.46094 13.6523 8.1543C13.6523 8.93555 13.1055 9.72656 12.5879 10.3906L10.8887 12.5586C10.7129 12.793 10.5273 13.0371 10.5273 13.3398C10.5273 13.6719 10.7422 13.9062 11.1816 13.9062Z" fill="var(--color-primary)"/>
 </g>
</svg>
