<svg version="1.1" xmlns="http://www.w3.org/2000/svg" xmlns:xlink="http://www.w3.org/1999/xlink" viewBox="0 0 18.3398 17.9785">
 <g>
  <rect height="17.9785" opacity="0" width="18.3398" x="0" y="0"/>
  <path d="M3.06641 17.9785L14.9121 17.9785C16.9629 17.9785 17.9785 16.9727 17.9785 14.9609L17.9785 3.02734C17.9785 1.01562 16.9629 0 14.9121 0L3.06641 0C1.02539 0 0 1.01562 0 3.02734L0 14.9609C0 16.9727 1.02539 17.9785 3.06641 17.9785Z" fill="var(--color-tertiary)"/>
  <path d="M5.95703 13.2324C4.87305 13.2324 3.84766 12.7148 3.55469 11.7773C3.50586 11.6113 3.47656 11.4355 3.47656 11.25C3.47656 10.8594 3.74023 10.6152 4.14062 10.6152C4.47266 10.6152 4.67773 10.7812 4.78516 11.1133C4.90234 11.5723 5.22461 12.0605 5.95703 12.0605C6.70898 12.0605 7.07031 11.4648 7.07031 10.7715C7.07031 9.90234 6.60156 9.43359 5.74219 9.43359L5.49805 9.43359C5.16602 9.43359 4.94141 9.23828 4.94141 8.90625C4.94141 8.57422 5.15625 8.35938 5.49805 8.35938L5.73242 8.35938C6.49414 8.35938 6.9043 7.82227 6.9043 7.08984C6.9043 6.42578 6.58203 5.91797 5.91797 5.91797C5.35156 5.91797 5.03906 6.28906 4.87305 6.88477C4.77539 7.23633 4.58008 7.36328 4.23828 7.36328C3.82812 7.36328 3.61328 7.09961 3.61328 6.76758C3.61328 6.5918 3.63281 6.41602 3.69141 6.2207C3.97461 5.33203 4.88281 4.74609 5.91797 4.74609C7.22656 4.74609 8.28125 5.53711 8.28125 6.93359C8.28125 7.77344 7.83203 8.59375 6.91406 8.83789L6.91406 8.86719C7.76367 8.95508 8.51562 9.57031 8.51562 10.8203C8.51562 12.3242 7.40234 13.2324 5.95703 13.2324ZM12.0605 13.2324C10.9766 13.2324 9.95117 12.7148 9.6582 11.7773C9.60938 11.6113 9.58008 11.4355 9.58008 11.25C9.58008 10.8594 9.85352 10.6152 10.2441 10.6152C10.5664 10.6152 10.791 10.7812 10.8789 11.1133C11.0059 11.5723 11.3379 12.0605 12.0703 12.0605C12.8125 12.0605 13.1836 11.4648 13.1836 10.7715C13.1836 9.90234 12.7051 9.43359 11.8555 9.43359L11.6016 9.43359C11.2598 9.43359 11.0352 9.23828 11.0352 8.90625C11.0352 8.57422 11.2598 8.35938 11.6016 8.35938L11.8359 8.35938C12.5879 8.35938 12.998 7.82227 12.998 7.08984C12.998 6.42578 12.6855 5.91797 12.0215 5.91797C11.4551 5.91797 11.1426 6.28906 10.9863 6.88477C10.8789 7.23633 10.6738 7.36328 10.332 7.36328C9.93164 7.36328 9.7168 7.09961 9.7168 6.76758C9.7168 6.5918 9.73633 6.41602 9.78516 6.2207C10.0781 5.33203 10.9766 4.74609 12.0215 4.74609C13.3398 4.74609 14.375 5.53711 14.375 6.93359C14.375 7.77344 13.9355 8.59375 13.0176 8.83789L13.0176 8.86719C13.8672 8.95508 14.6191 9.57031 14.6191 10.8203C14.6191 12.3242 13.5059 13.2324 12.0605 13.2324Z" fill="var(--color-primary)"/>
 </g>
</svg>
