<svg version="1.1" xmlns="http://www.w3.org/2000/svg" xmlns:xlink="http://www.w3.org/1999/xlink" viewBox="0 0 18.3398 17.9785">
 <g>
  <rect height="17.9785" opacity="0" width="18.3398" x="0" y="0"/>
  <path d="M3.06641 17.9785L14.9121 17.9785C16.9629 17.9785 17.9785 16.9727 17.9785 14.9609L17.9785 3.02734C17.9785 1.01562 16.9629 0 14.9121 0L3.06641 0C1.02539 0 0 1.01562 0 3.02734L0 14.9609C0 16.9727 1.02539 17.9785 3.06641 17.9785Z" fill="var(--color-tertiary)"/>
  <path d="M5.15625 10.8496C5.15625 10.6348 5.20508 10.4199 5.32227 10.2148C6.40625 8.32031 7.38281 6.5918 8.45703 4.70703C8.64258 4.375 8.86719 4.21875 9.17969 4.21875C9.63867 4.21875 9.89258 4.56055 9.89258 4.96094C9.89258 5.11719 9.84375 5.27344 9.75586 5.43945C8.81836 7.1582 7.95898 8.66211 7.04102 10.3516L9.83398 10.3516L9.83398 8.18359C9.83398 7.64648 10.1074 7.33398 10.5664 7.33398C11.0449 7.33398 11.3281 7.63672 11.3281 8.18359L11.3281 10.3516L11.9922 10.3516C12.4414 10.3516 12.7148 10.6055 12.7148 10.9961C12.7148 11.416 12.4414 11.6895 11.9922 11.6895L11.3281 11.6895L11.3281 12.7246C11.3281 13.2715 11.0449 13.5742 10.5664 13.5742C10.1074 13.5742 9.83398 13.2617 9.83398 12.7246L9.83398 11.6895L6.05469 11.6895C5.49805 11.6895 5.15625 11.3574 5.15625 10.8496Z" fill="var(--color-primary)"/>
 </g>
</svg>
