<svg version="1.1" xmlns="http://www.w3.org/2000/svg" xmlns:xlink="http://www.w3.org/1999/xlink" viewBox="0 0 20.2832 19.9316">
 <g>
  <rect height="19.9316" opacity="0" width="20.2832" x="0" y="0"/>
  <path d="M9.96094 19.9219C15.459 19.9219 19.9219 15.459 19.9219 9.96094C19.9219 4.46289 15.459 0 9.96094 0C4.46289 0 0 4.46289 0 9.96094C0 15.459 4.46289 19.9219 9.96094 19.9219ZM9.96094 18.2617C5.37109 18.2617 1.66016 14.5508 1.66016 9.96094C1.66016 5.37109 5.37109 1.66016 9.96094 1.66016C14.5508 1.66016 18.2617 5.37109 18.2617 9.96094C18.2617 14.5508 14.5508 18.2617 9.96094 18.2617Z" fill="var(--color-secondary)"/>
  <path d="M6.73828 14.5605C7.08984 14.5605 7.34375 14.3945 7.49023 13.9355L8.20312 11.8555L11.6992 11.8555L12.4121 13.9355C12.5586 14.3848 12.8027 14.5605 13.1641 14.5605C13.5938 14.5605 13.8867 14.2773 13.8867 13.8867C13.8867 13.7305 13.8477 13.5938 13.7793 13.3789L11.0352 6.00586C10.8496 5.49805 10.4785 5.23438 9.94141 5.23438C9.41406 5.23438 9.05273 5.49805 8.85742 6.00586L6.12305 13.3789C6.04492 13.5938 6.01562 13.7305 6.01562 13.877C6.01562 14.2871 6.29883 14.5605 6.73828 14.5605ZM8.59375 10.6836L9.89258 6.9043L10 6.9043L11.2988 10.6836Z" fill="var(--color-primary)"/>
 </g>
</svg>
