<svg version="1.1" xmlns="http://www.w3.org/2000/svg" xmlns:xlink="http://www.w3.org/1999/xlink" viewBox="0 0 37.3926 15.8887">
 <g>
  <rect height="15.8887" opacity="0" width="37.3926" x="0" y="0"/>
  <path d="M2.49023 13.8379L3.71094 13.8379C3.64258 13.5352 3.59375 13.2422 3.59375 12.9199C3.59375 10.8398 5.27344 9.16992 7.34375 9.16992C9.42383 9.16992 11.0938 10.8398 11.0938 12.9199C11.0938 13.2422 11.0547 13.5449 10.9863 13.8379L24.3262 13.8379C24.248 13.5352 24.209 13.2422 24.209 12.9199C24.209 10.8496 25.8887 9.16992 27.959 9.16992C30.0391 9.16992 31.709 10.8398 31.709 12.9199C31.709 13.2422 31.6699 13.5352 31.5918 13.8379L34.5508 13.8379C36.1035 13.8379 37.0312 12.8809 37.0312 11.2891L37.0312 7.45117C37.0312 5.85938 36.1035 4.90234 34.5508 4.90234L26.5918 4.90234L26.3574 2.91016C26.1328 0.976562 25.0488 0 23.125 0L19.1797 0C16.0352 0 14.1016 0.488281 11.9336 1.85547L7.93945 4.35547L4.29688 4.91211C1.33789 5.36133 0 6.63086 0 8.92578L0 11.2891C0 12.8809 0.9375 13.8379 2.49023 13.8379ZM7.34375 15.5273C8.80859 15.5273 9.96094 14.375 9.96094 12.9199C9.96094 11.4648 8.79883 10.3027 7.34375 10.3027C5.89844 10.3027 4.73633 11.4648 4.73633 12.9199C4.73633 14.3652 5.89844 15.5273 7.34375 15.5273ZM27.959 15.5273C29.4141 15.5273 30.5762 14.3652 30.5762 12.9199C30.5762 11.4648 29.4141 10.3027 27.959 10.3027C26.5137 10.3027 25.3418 11.4746 25.3418 12.9199C25.3418 14.3652 26.5039 15.5273 27.959 15.5273Z" fill="var(--color-tertiary)"/>
  <path d="M13.3301 9.6582C13.0176 9.6582 12.7441 9.47266 12.7441 9.05273C12.7441 8.91602 12.7637 8.78906 12.8027 8.63281L13.7305 4.64844C13.8477 4.12109 14.1895 3.86719 14.6973 3.86719C15.2344 3.86719 15.5762 4.11133 15.6934 4.64844L16.6406 8.63281C16.6699 8.78906 16.6992 8.90625 16.6992 9.05273C16.6992 9.39453 16.4551 9.6582 16.084 9.6582C15.7422 9.6582 15.5469 9.46289 15.459 9.08203L15.3125 8.44727L14.1016 8.44727L13.9648 9.0625C13.8965 9.44336 13.7207 9.6582 13.3301 9.6582ZM14.248 7.50977L15.1562 7.50977L14.7168 5.3125L14.668 5.3125ZM18.0566 9.6582C17.666 9.6582 17.4121 9.39453 17.4121 8.99414L17.4121 4.53125C17.4121 4.13086 17.666 3.86719 18.0566 3.86719C18.457 3.86719 18.7012 4.13086 18.7012 4.53125L18.7012 8.99414C18.7012 9.39453 18.457 9.6582 18.0566 9.6582ZM20.2539 9.64844C19.8535 9.64844 19.6094 9.39453 19.6094 8.99414L19.6094 4.62891C19.6094 4.19922 19.8438 3.95508 20.2539 3.95508L21.3379 3.95508C22.5879 3.95508 23.1348 4.69727 23.1348 5.76172C23.1348 6.32812 22.9492 6.95312 22.4707 7.25586L22.998 8.65234C23.0469 8.80859 23.0957 8.97461 23.0957 9.08203C23.0957 9.41406 22.8418 9.64844 22.4707 9.64844C22.1387 9.64844 21.9434 9.45312 21.8359 9.12109L21.2891 7.5293L20.8887 7.5293L20.8887 8.99414C20.8887 9.39453 20.6348 9.64844 20.2539 9.64844ZM20.8887 6.64062L21.2305 6.64062C21.6406 6.64062 21.8359 6.21094 21.8359 5.78125C21.8359 5.36133 21.6406 4.92188 21.2305 4.92188L20.8887 4.92188Z" fill="var(--color-primary)"/>
 </g>
</svg>
