<svg version="1.1" xmlns="http://www.w3.org/2000/svg" xmlns:xlink="http://www.w3.org/1999/xlink" viewBox="0 0 23.3887 17.9785">
 <g>
  <rect height="17.9785" opacity="0" width="23.3887" x="0" y="0"/>
  <path d="M3.06641 17.9785L19.9609 17.9785C22.0117 17.9785 23.0273 16.9727 23.0273 14.9609L23.0273 3.02734C23.0273 1.01562 22.0117 0 19.9609 0L3.06641 0C1.02539 0 0 1.01562 0 3.02734L0 14.9609C0 16.9727 1.02539 17.9785 3.06641 17.9785Z" fill="var(--color-tertiary)"/>
  <path d="M12.7539 3.17383C13.1738 3.17383 13.457 3.48633 13.457 3.93555L13.457 5.14648L13.3398 6.46484L14.5898 5.13672L16.6504 3.06641C16.7969 2.92969 16.9727 2.8418 17.207 2.8418C17.627 2.8418 17.9297 3.13477 17.9297 3.57422C17.9297 3.76953 17.8223 3.95508 17.6953 4.0918L15.625 6.17188L14.2676 7.41211L15.5176 7.28516L16.8164 7.28516C17.2754 7.28516 17.5879 7.57812 17.5879 7.99805C17.5879 8.42773 17.2754 8.7207 16.8359 8.7207L12.8418 8.7207C12.3535 8.7207 12.0312 8.47656 12.0312 7.91992L12.0312 3.95508C12.0312 3.50586 12.3242 3.17383 12.7539 3.17383ZM10.2734 14.8047C9.85352 14.8047 9.57031 14.502 9.57031 14.0527L9.57031 12.8418L9.6875 11.5137L8.4375 12.8516L6.37695 14.9121C6.23047 15.0488 6.05469 15.1367 5.82031 15.1367C5.40039 15.1367 5.10742 14.8535 5.10742 14.4141C5.10742 14.2188 5.21484 14.0234 5.3418 13.8867L7.40234 11.8164L8.75977 10.5762L7.50977 10.7031L6.21094 10.7031C5.75195 10.7031 5.44922 10.4102 5.44922 9.99023C5.44922 9.56055 5.75195 9.26758 6.19141 9.26758L10.1953 9.26758C10.6836 9.26758 10.9961 9.50195 10.9961 10.0684L10.9961 14.0332C10.9961 14.4824 10.7031 14.8047 10.2734 14.8047Z" fill="var(--color-primary)"/>
 </g>
</svg>
