<svg version="1.1" xmlns="http://www.w3.org/2000/svg" xmlns:xlink="http://www.w3.org/1999/xlink" viewBox="0 0 18.3398 17.9785">
 <g>
  <rect height="17.9785" opacity="0" width="18.3398" x="0" y="0"/>
  <path d="M17.9785 3.02734L17.9785 14.9609C17.9785 16.9727 16.9629 17.9785 14.9121 17.9785L3.06641 17.9785C1.02539 17.9785 0 16.9727 0 14.9609L0 3.02734C0 1.01562 1.02539 0 3.06641 0L14.9121 0C16.9629 0 17.9785 1.01562 17.9785 3.02734ZM10.0488 9.50195C10.0488 9.6875 10.1172 9.84375 10.2344 9.9707L11.3086 10.9961L11.7285 11.3867L11.25 11.3574L4.72656 11.3574C4.36523 11.3574 4.08203 11.6309 4.08203 12.0117C4.08203 12.3926 4.35547 12.6758 4.72656 12.6758L11.2402 12.6758L11.7285 12.666L11.3086 13.0273L10.2539 14.0625C10.127 14.1992 10.0488 14.3457 10.0488 14.5312C10.0488 14.9023 10.332 15.1758 10.6934 15.1758C10.8496 15.1758 11.0352 15.0977 11.1719 14.9707L13.6914 12.4902C13.9746 12.2168 13.9551 11.8066 13.6914 11.543L11.1719 9.0625C11.0547 8.94531 10.8691 8.86719 10.6934 8.86719C10.3125 8.86719 10.0488 9.13086 10.0488 9.50195ZM6.80664 3.03711L4.27734 5.48828C4.01367 5.75195 4.01367 6.21094 4.27734 6.46484L6.80664 8.94531C6.94336 9.05273 7.11914 9.13086 7.28516 9.13086C7.65625 9.13086 7.92969 8.86719 7.92969 8.49609C7.92969 8.31055 7.86133 8.1543 7.73438 8.02734L6.67969 7.00195L6.25977 6.61133L6.72852 6.64062L13.252 6.64062C13.623 6.64062 13.9062 6.34766 13.9062 5.97656C13.9062 5.5957 13.6328 5.32227 13.252 5.32227L6.73828 5.32227L6.26953 5.33203L6.67969 4.9707L7.73438 3.93555C7.86133 3.80859 7.92969 3.64258 7.92969 3.4668C7.92969 3.08594 7.65625 2.82227 7.28516 2.82227C7.11914 2.82227 6.93359 2.90039 6.80664 3.03711Z" fill="var(--color-primary)"/>
 </g>
</svg>
