<svg version="1.1" xmlns="http://www.w3.org/2000/svg" xmlns:xlink="http://www.w3.org/1999/xlink" viewBox="0 0 18.3398 18.0371">
 <g>
  <rect height="18.0371" opacity="0" width="18.3398" x="0" y="0"/>
  <path d="M3.06641 17.9785L14.9121 17.9785C16.9629 17.9785 17.9785 16.9727 17.9785 14.9609L17.9785 3.02734C17.9785 1.01562 16.9629 0 14.9121 0L3.06641 0C1.02539 0 0 1.01562 0 3.02734L0 14.9609C0 16.9727 1.02539 17.9785 3.06641 17.9785Z" fill="var(--color-tertiary)"/>
  <path d="M7.96875 13.8574C5.64453 13.8574 4.11133 12.2754 4.11133 9.91211L4.11133 8.60352C4.11133 8.13477 4.4043 7.82227 4.84375 7.82227C5.27344 7.82227 5.56641 8.125 5.56641 8.58398L5.56641 9.91211C5.56641 11.3965 6.5332 12.4023 7.96875 12.4023C9.30664 12.4023 10.1953 11.416 10.1953 9.92188L10.1953 7.07031L10.2441 6.07422L9.91211 6.5332L8.76953 7.71484C8.63281 7.86133 8.44727 7.93945 8.23242 7.93945C7.8125 7.93945 7.49023 7.62695 7.49023 7.22656C7.49023 7.00195 7.55859 6.82617 7.70508 6.68945L10.3125 4.13086C10.498 3.94531 10.7129 3.86719 10.9375 3.86719C11.1523 3.86719 11.3672 3.95508 11.5527 4.13086L14.1406 6.67969C14.2871 6.82617 14.3652 6.99219 14.3652 7.2168C14.3652 7.62695 14.0332 7.93945 13.6133 7.93945C13.4082 7.93945 13.2227 7.86133 13.0859 7.71484L12.1289 6.72852L11.6113 6.06445L11.6504 7.07031L11.6504 9.92188C11.6504 12.2852 10.1855 13.8574 7.96875 13.8574Z" fill="var(--color-primary)"/>
 </g>
</svg>
