<svg version="1.1" xmlns="http://www.w3.org/2000/svg" xmlns:xlink="http://www.w3.org/1999/xlink" viewBox="0 0 22.5098 20.3613">
 <g>
  <rect height="20.3613" opacity="0" width="22.5098" x="0" y="0"/>
  <path d="M3.86719 20.3613C5.03906 20.3613 7.95898 19.082 9.61914 17.8906C9.78516 17.7734 9.92188 17.7246 10.0586 17.7246C10.1855 17.7344 10.3125 17.7441 10.4395 17.7441C17.4805 17.7441 22.1484 13.7402 22.1484 8.87695C22.1484 3.96484 17.2266 0 11.0742 0C4.92188 0 0 3.96484 0 8.87695C0 12.002 1.92383 14.7461 5.05859 16.4258C5.20508 16.5039 5.25391 16.6504 5.17578 16.7969C4.62891 17.6953 3.65234 18.7695 3.28125 19.2578C2.90039 19.7461 3.11523 20.3613 3.86719 20.3613Z" fill="var(--color-tertiary)"/>
  <path d="M11.084 14.0527C10.8789 14.0527 10.7031 13.9844 10.498 13.7793L7.17773 10.5762C7.02148 10.4297 6.94336 10.2637 6.94336 10.0488C6.94336 9.63867 7.24609 9.3457 7.66602 9.3457C7.86133 9.3457 8.08594 9.41406 8.22266 9.58984L9.75586 11.2109L10.3418 11.8359L10.2832 10.3223L10.2832 4.67773C10.2832 4.24805 10.6445 3.88672 11.084 3.88672C11.5234 3.88672 11.8945 4.24805 11.8945 4.67773L11.8945 10.3223L11.8262 11.8262L12.4121 11.2109L13.9453 9.58984C14.082 9.41406 14.2969 9.3457 14.4922 9.3457C14.9121 9.3457 15.2246 9.63867 15.2246 10.0488C15.2246 10.2637 15.1465 10.4297 14.9902 10.5762L11.6699 13.7793C11.4648 13.9844 11.2988 14.0527 11.084 14.0527Z" fill="var(--color-primary)"/>
 </g>
</svg>
