<svg version="1.1" xmlns="http://www.w3.org/2000/svg" xmlns:xlink="http://www.w3.org/1999/xlink" viewBox="0 0 24.3457 19.248">
 <g>
  <rect height="19.248" opacity="0" width="24.3457" x="0" y="0"/>
  <path d="M3.06641 18.623L20.918 18.623C22.9492 18.623 23.9844 17.6074 23.9844 15.5957L23.9844 5.37109C23.9844 3.35938 22.9492 2.35352 20.918 2.35352L18.125 2.35352C17.3535 2.35352 17.1191 2.19727 16.6797 1.70898L15.8984 0.830078C15.4102 0.292969 14.9121 0 13.9062 0L10.0098 0C9.00391 0 8.50586 0.292969 8.01758 0.830078L7.23633 1.70898C6.79688 2.1875 6.55273 2.35352 5.79102 2.35352L3.06641 2.35352C1.02539 2.35352 0 3.35938 0 5.37109L0 15.5957C0 17.6074 1.02539 18.623 3.06641 18.623Z" fill="var(--color-tertiary)"/>
  <path d="M5.21484 10.0098L6.77734 7.8125C7.06055 7.42188 7.50977 7.45117 7.76367 7.8125L9.35547 10.0098C9.60938 10.3613 9.50195 10.791 9.04297 10.791L8.01758 10.791C8.45703 12.5293 10.0684 13.8379 12.0117 13.8379C12.959 13.8379 13.6621 13.5352 14.3652 12.9785C14.7559 12.6953 15.1953 12.6367 15.5371 13.0078C15.8887 13.3691 15.7715 13.8867 15.3027 14.248C14.4531 14.9512 13.2324 15.3711 12.0117 15.3711C9.22852 15.3711 7.03125 13.5059 6.55273 10.791L5.51758 10.791C5.05859 10.791 4.9707 10.3613 5.21484 10.0098ZM8.4668 6.79688C8.11523 6.43555 8.23242 5.92773 8.70117 5.56641C9.55078 4.86328 10.7715 4.43359 11.9922 4.43359C14.7754 4.43359 16.9727 6.29883 17.4512 9.01367L18.4277 9.01367C18.8867 9.01367 18.9746 9.44336 18.7305 9.79492L17.168 12.002C16.8848 12.3926 16.4355 12.3633 16.1719 12.002L14.5898 9.79492C14.3359 9.45312 14.4434 9.01367 14.8926 9.01367L15.9863 9.01367C15.5469 7.28516 13.9355 5.97656 11.9922 5.97656C11.0449 5.97656 10.332 6.25977 9.63867 6.82617C9.24805 7.11914 8.81836 7.16797 8.4668 6.79688Z" fill="var(--color-primary)"/>
 </g>
</svg>
