<svg version="1.1" xmlns="http://www.w3.org/2000/svg" xmlns:xlink="http://www.w3.org/1999/xlink" viewBox="0 0 18.3398 17.9785">
 <g>
  <rect height="17.9785" opacity="0" width="18.3398" x="0" y="0"/>
  <path d="M3.06641 17.9785L14.9121 17.9785C16.9629 17.9785 17.9785 16.9727 17.9785 14.9609L17.9785 3.02734C17.9785 1.01562 16.9629 0 14.9121 0L3.06641 0C1.02539 0 0 1.01562 0 3.02734L0 14.9609C0 16.9727 1.02539 17.9785 3.06641 17.9785Z" fill="var(--color-tertiary)"/>
  <path d="M5.83008 6.48438C6.2793 6.48438 6.57227 6.78711 6.57227 7.27539L6.57227 9.00391L6.42578 10.5762L7.88086 9.02344L11.5625 5.33203C11.7188 5.18555 11.9043 5.09766 12.1484 5.09766C12.5879 5.09766 12.8906 5.39062 12.8906 5.84961C12.8906 6.04492 12.793 6.25 12.6465 6.39648L8.94531 10.0781L7.37305 11.5527L8.86719 11.3965L10.6836 11.3965C11.1719 11.3965 11.4844 11.6895 11.4844 12.1289C11.4844 12.5781 11.1816 12.8711 10.7031 12.8711L5.9375 12.8711C5.41992 12.8711 5.09766 12.6367 5.09766 12.041L5.09766 7.29492C5.09766 6.81641 5.39062 6.48438 5.83008 6.48438Z" fill="var(--color-primary)"/>
 </g>
</svg>
