<svg version="1.1" xmlns="http://www.w3.org/2000/svg" xmlns:xlink="http://www.w3.org/1999/xlink" viewBox="0 0 19.4238 22.666">
 <g>
  <rect height="22.666" opacity="0" width="19.4238" x="0" y="0"/>
  <path d="M16.416 8.75977L16.416 21.8652C16.416 22.3145 16.7578 22.666 17.1973 22.666C17.6367 22.666 17.9883 22.3145 17.9883 21.8652L17.9883 8.75977C17.9883 8.32031 17.6367 7.97852 17.1973 7.97852C16.7578 7.97852 16.416 8.32031 16.416 8.75977ZM11.2988 8.75977L11.2988 21.8652C11.2988 22.3145 11.6504 22.666 12.0898 22.666C12.5293 22.666 12.8711 22.3145 12.8711 21.8652L12.8711 8.75977C12.8711 8.32031 12.5293 7.97852 12.0898 7.97852C11.6504 7.97852 11.2988 8.32031 11.2988 8.75977ZM6.19141 8.75977L6.19141 21.8652C6.19141 22.3145 6.5332 22.666 6.98242 22.666C7.42188 22.666 7.76367 22.3145 7.76367 21.8652L7.76367 8.75977C7.76367 8.32031 7.42188 7.97852 6.98242 7.97852C6.5332 7.97852 6.19141 8.32031 6.19141 8.75977ZM1.08398 8.75977L1.08398 15.6348C1.08398 16.0742 1.42578 16.4355 1.86523 16.4355C2.31445 16.4355 2.65625 16.0742 2.65625 15.6348L2.65625 8.75977C2.65625 8.32031 2.31445 7.97852 1.86523 7.97852C1.42578 7.97852 1.08398 8.32031 1.08398 8.75977Z" fill="var(--color-secondary)"/>
  <path d="M0.263672 3.36914L2.88086 5.32227C3.4082 5.71289 4.07227 5.50781 4.07227 4.80469L4.07227 3.42773L15 3.42773L15 4.80469C15 5.48828 15.6445 5.73242 16.1816 5.32227L18.7988 3.36914C19.1602 3.0957 19.1504 2.58789 18.7988 2.33398L16.1816 0.390625C15.6445-0.0195312 15 0.224609 15 0.898438L15 2.29492L4.07227 2.29492L4.07227 0.898438C4.07227 0.224609 3.42773-0.0195312 2.88086 0.390625L0.263672 2.33398C-0.0878906 2.59766-0.0878906 3.0957 0.263672 3.36914Z" fill="var(--color-primary)"/>
 </g>
</svg>
