<svg version="1.1" xmlns="http://www.w3.org/2000/svg" xmlns:xlink="http://www.w3.org/1999/xlink" viewBox="0 0 22.5098 20.3613">
 <g>
  <rect height="20.3613" opacity="0" width="22.5098" x="0" y="0"/>
  <path d="M3.86719 20.3613C5.03906 20.3613 7.95898 19.082 9.61914 17.8906C9.78516 17.7734 9.92188 17.7246 10.0586 17.7246C10.1855 17.7344 10.3125 17.7441 10.4395 17.7441C17.4805 17.7441 22.1484 13.7402 22.1484 8.87695C22.1484 3.96484 17.2266 0 11.0742 0C4.92188 0 0 3.96484 0 8.87695C0 12.002 1.92383 14.7461 5.05859 16.4258C5.20508 16.5039 5.25391 16.6504 5.17578 16.7969C4.62891 17.6953 3.65234 18.7695 3.28125 19.2578C2.90039 19.7461 3.11523 20.3613 3.86719 20.3613Z" fill="var(--color-tertiary)"/>
  <path d="M11.084 3.88672C11.2891 3.88672 11.4648 3.95508 11.6699 4.16016L14.9805 7.36328C15.1367 7.50977 15.2246 7.67578 15.2246 7.89062C15.2246 8.30078 14.9023 8.59375 14.4922 8.59375C14.2871 8.59375 14.082 8.52539 13.9453 8.35938L12.4023 6.72852L11.8262 6.11328L11.8848 7.61719L11.8848 13.2617C11.8848 13.6914 11.5234 14.0527 11.084 14.0527C10.6445 14.0527 10.2734 13.6914 10.2734 13.2617L10.2734 7.61719L10.3418 6.10352L9.75586 6.72852L8.22266 8.35938C8.07617 8.52539 7.86133 8.59375 7.65625 8.59375C7.24609 8.59375 6.93359 8.30078 6.93359 7.89062C6.93359 7.67578 7.02148 7.50977 7.17773 7.36328L10.498 4.16016C10.7031 3.95508 10.8691 3.88672 11.084 3.88672Z" fill="var(--color-primary)"/>
 </g>
</svg>
