<svg version="1.1" xmlns="http://www.w3.org/2000/svg" xmlns:xlink="http://www.w3.org/1999/xlink" viewBox="0 0 18.3398 18.252">
 <g>
  <rect height="18.252" opacity="0" width="18.3398" x="0" y="0"/>
  <path d="M3.06641 17.9785L14.9121 17.9785C16.9629 17.9785 17.9785 16.9727 17.9785 14.9609L17.9785 3.02734C17.9785 1.01562 16.9629 0 14.9121 0L3.06641 0C1.02539 0 0 1.01562 0 3.02734L0 14.9609C0 16.9727 1.02539 17.9785 3.06641 17.9785Z" fill="var(--color-tertiary)"/>
  <path d="M3.98438 10.0781C3.98438 7.86133 5.55664 6.39648 7.91992 6.39648L10.7715 6.39648L11.7773 6.44531L11.1133 5.91797L10.127 4.96094C9.98047 4.83398 9.90234 4.63867 9.90234 4.44336C9.90234 4.01367 10.2051 3.69141 10.625 3.69141C10.8496 3.69141 11.0156 3.75977 11.1621 3.90625L13.7109 6.49414C13.8867 6.67969 13.9746 6.89453 13.9746 7.11914C13.9746 7.33398 13.8965 7.54883 13.7109 7.73438L11.1523 10.3516C11.0156 10.4883 10.8398 10.5664 10.6152 10.5664C10.2148 10.5664 9.90234 10.2344 9.90234 9.81445C9.90234 9.59961 9.98047 9.42383 10.127 9.27734L11.3086 8.13477L11.7676 7.8125L10.7715 7.85156L7.91992 7.85156C6.42578 7.85156 5.43945 8.74023 5.43945 10.0781C5.43945 11.5234 6.44531 12.4805 7.92969 12.4805L9.25781 12.4805C9.7168 12.4805 10.0195 12.7734 10.0195 13.2031C10.0195 13.6426 9.70703 13.9355 9.23828 13.9355L7.92969 13.9355C5.56641 13.9355 3.98438 12.4121 3.98438 10.0781Z" fill="var(--color-primary)"/>
 </g>
</svg>
