<svg version="1.1" xmlns="http://www.w3.org/2000/svg" xmlns:xlink="http://www.w3.org/1999/xlink" viewBox="0 0 18.3398 17.9785">
 <g>
  <rect height="17.9785" opacity="0" width="18.3398" x="0" y="0"/>
  <path d="M3.06641 17.9785L14.9121 17.9785C16.9629 17.9785 17.9785 16.9727 17.9785 14.9609L17.9785 3.02734C17.9785 1.01562 16.9629 0 14.9121 0L3.06641 0C1.02539 0 0 1.01562 0 3.02734L0 14.9609C0 16.9727 1.02539 17.9785 3.06641 17.9785Z" fill="var(--color-tertiary)"/>
  <path d="M4.96094 9.53125C4.53125 9.28711 4.54102 8.69141 4.96094 8.44727L10.6934 5.05859C11.123 4.79492 11.6992 5 11.6992 5.48828L11.6992 12.4902C11.6992 12.9688 11.1621 13.2031 10.6934 12.9199Z" fill="var(--color-primary)"/>
 </g>
</svg>
