<svg version="1.1" xmlns="http://www.w3.org/2000/svg" xmlns:xlink="http://www.w3.org/1999/xlink" viewBox="0 0 25.2246 15.8691">
 <g>
  <rect height="15.8691" opacity="0" width="25.2246" x="0" y="0"/>
  <path d="M4.38477 15.8594L14.873 15.8594C16.8359 15.8594 18.0078 14.7266 18.0078 12.7637L18.0078 3.08594C18.0078 1.13281 16.9336 0 14.9707 0L4.38477 0C2.50977 0 1.25 1.13281 1.25 3.08594L1.25 12.7637C1.25 14.7266 2.42188 15.8594 4.38477 15.8594ZM19.3359 10.8105L22.8906 13.8867C23.2227 14.1797 23.6133 14.3652 23.9648 14.3652C24.7266 14.3652 25.2246 13.8086 25.2246 13.0078L25.2246 2.85156C25.2246 2.05078 24.7266 1.49414 23.9648 1.49414C23.6133 1.49414 23.2227 1.67969 22.8906 1.97266L19.3359 5.03906Z" fill="var(--color-tertiary)"/>
  <path d="M6.2793 12.0703C5.84961 12.0703 5.52734 11.7676 5.52734 11.3672C5.52734 11.1523 5.60547 10.9766 5.77148 10.8105L9.88281 6.67969L11.5918 5.12695L8.70117 5.30273L7.33398 5.30273C6.94336 5.30273 6.61133 5.00977 6.61133 4.61914C6.61133 4.19922 6.92383 3.86719 7.33398 3.86719L12.9492 3.86719C13.4863 3.86719 13.7402 4.13086 13.7402 4.66797L13.7402 10.2637C13.7402 10.6738 13.4082 10.9863 12.9883 10.9863C12.5977 10.9863 12.3047 10.6543 12.3047 10.2637L12.3047 8.91602L12.4805 6.03516L10.9277 7.72461L6.81641 11.8457C6.66016 12.002 6.50391 12.0703 6.2793 12.0703Z" fill="var(--color-primary)"/>
 </g>
</svg>
