<svg version="1.1" xmlns="http://www.w3.org/2000/svg" xmlns:xlink="http://www.w3.org/1999/xlink" viewBox="0 0 23.3887 17.9785">
 <g>
  <rect height="17.9785" opacity="0" width="23.3887" x="0" y="0"/>
  <path d="M3.06641 17.9785L19.9609 17.9785C22.0117 17.9785 23.0273 16.9727 23.0273 14.9609L23.0273 3.02734C23.0273 1.01562 22.0117 0 19.9609 0L3.06641 0C1.02539 0 0 1.01562 0 3.02734L0 14.9609C0 16.9727 1.02539 17.9785 3.06641 17.9785Z" fill="var(--color-tertiary)"/>
  <path d="M17.207 8.38867C16.7773 8.38867 16.4941 8.07617 16.4941 7.62695L16.4941 6.41602L16.6211 5.10742L15.3711 6.42578L13.3105 8.49609C13.1543 8.63281 12.9883 8.7207 12.7539 8.7207C12.334 8.7207 12.0312 8.42773 12.0312 7.98828C12.0312 7.79297 12.1387 7.60742 12.2656 7.4707L14.3359 5.39062L15.6934 4.15039L14.4434 4.27734L13.1445 4.27734C12.6855 4.27734 12.373 3.99414 12.373 3.56445C12.373 3.13477 12.6855 2.8418 13.125 2.8418L17.1191 2.8418C17.5977 2.8418 17.9297 3.08594 17.9297 3.64258L17.9297 7.60742C17.9297 8.05664 17.6367 8.38867 17.207 8.38867ZM5.82031 9.59961C6.25 9.59961 6.54297 9.90234 6.54297 10.3516L6.54297 11.5723L6.40625 12.8809L7.65625 11.5527L9.72656 9.49219C9.87305 9.35547 10.0391 9.26758 10.2734 9.26758C10.7031 9.26758 10.9961 9.55078 10.9961 10C10.9961 10.1953 10.8887 10.3809 10.7617 10.5176L8.69141 12.5977L7.34375 13.8379L8.58398 13.7012L9.89258 13.7012C10.3516 13.7012 10.6543 13.9941 10.6543 14.4238C10.6543 14.8535 10.3516 15.1367 9.91211 15.1367L5.9082 15.1367C5.42969 15.1367 5.10742 14.9023 5.10742 14.3457L5.10742 10.3711C5.10742 9.92188 5.39062 9.59961 5.82031 9.59961Z" fill="var(--color-primary)"/>
 </g>
</svg>
