<svg version="1.1" xmlns="http://www.w3.org/2000/svg" xmlns:xlink="http://www.w3.org/1999/xlink" viewBox="0 0 23.5938 17.998">
 <g>
  <rect height="17.998" opacity="0" width="23.5938" x="0" y="0"/>
  <path d="M6.48438 17.998L16.7383 17.998C18.6621 17.998 19.4336 16.9824 19.7168 15.0879L21.1035 5.79102L2.11914 5.79102L3.51562 15.0879C3.79883 16.9922 4.57031 17.998 6.48438 17.998ZM1.66016 4.46289L21.5723 4.46289C22.6758 4.46289 23.2324 3.80859 23.2324 2.71484L23.2324 1.76758C23.2324 0.673828 22.6758 0.0195312 21.5723 0.0195312L1.66016 0.0195312C0.615234 0.0195312 0 0.673828 0 1.76758L0 2.71484C0 3.80859 0.556641 4.46289 1.66016 4.46289Z" fill="var(--color-tertiary)"/>
  <path d="M12.3926 15.0098C12.3926 15.4199 12.041 15.7617 11.6211 15.7617C11.2012 15.7617 10.8398 15.4199 10.8398 15.0098L10.8398 11.4062L10.9082 9.76562L10.0684 10.6445L9.17969 11.543C9.0332 11.6895 8.83789 11.7773 8.64258 11.7773C8.22266 11.7773 7.92969 11.4844 7.92969 11.0742C7.92969 10.8398 8.02734 10.6738 8.18359 10.5273L11.0547 7.89062C11.2695 7.69531 11.4258 7.62695 11.6211 7.62695C11.8164 7.62695 11.9727 7.69531 12.1875 7.89062L15.0586 10.5273C15.2148 10.6738 15.3125 10.8398 15.3125 11.0742C15.3125 11.4844 15 11.7773 14.5996 11.7773C14.3945 11.7773 14.1992 11.6895 14.0625 11.543L13.1738 10.6445L12.334 9.76562L12.3926 11.4062Z" fill="var(--color-primary)"/>
 </g>
</svg>
