<svg version="1.1" xmlns="http://www.w3.org/2000/svg" xmlns:xlink="http://www.w3.org/1999/xlink" viewBox="0 0 20.2832 19.9316">
 <g>
  <rect height="19.9316" opacity="0" width="20.2832" x="0" y="0"/>
  <path d="M9.96094 19.9219C15.459 19.9219 19.9219 15.459 19.9219 9.96094C19.9219 4.46289 15.459 0 9.96094 0C4.46289 0 0 4.46289 0 9.96094C0 15.459 4.46289 19.9219 9.96094 19.9219ZM9.96094 18.2617C5.37109 18.2617 1.66016 14.5508 1.66016 9.96094C1.66016 5.37109 5.37109 1.66016 9.96094 1.66016C14.5508 1.66016 18.2617 5.37109 18.2617 9.96094C18.2617 14.5508 14.5508 18.2617 9.96094 18.2617Z" fill="var(--color-primary)"/>
  <path d="M9.96094 14.8828C10.1562 14.8828 10.332 14.8242 10.5273 14.6289L13.7402 11.5234C13.8965 11.377 13.9746 11.2207 13.9746 11.0059C13.9746 10.6055 13.6719 10.3223 13.2617 10.3223C13.0762 10.3223 12.8711 10.4004 12.7344 10.5566L11.25 12.1387L10.6738 12.7441L10.7422 11.2793L10.7422 5.79102C10.7422 5.38086 10.3809 5.03906 9.96094 5.03906C9.54102 5.03906 9.18945 5.38086 9.18945 5.79102L9.18945 11.2793L9.24805 12.7441L8.67188 12.1387L7.1875 10.5566C7.05078 10.4004 6.83594 10.3223 6.65039 10.3223C6.24023 10.3223 5.94727 10.6055 5.94727 11.0059C5.94727 11.2207 6.02539 11.377 6.17188 11.5234L9.39453 14.6289C9.58984 14.8242 9.76562 14.8828 9.96094 14.8828Z" fill="var(--color-primary)"/>
 </g>
</svg>
