<svg version="1.1" xmlns="http://www.w3.org/2000/svg" xmlns:xlink="http://www.w3.org/1999/xlink" viewBox="0 0 20.2832 19.9316">
 <g>
  <rect height="19.9316" opacity="0" width="20.2832" x="0" y="0"/>
  <path d="M9.96094 19.9219C15.459 19.9219 19.9219 15.4492 19.9219 9.96094C19.9219 4.46289 15.459 0 9.96094 0C4.47266 0 0 4.46289 0 9.96094C0 15.4492 4.47266 19.9219 9.96094 19.9219Z" fill="var(--color-tertiary)"/>
  <path d="M7.06055 14.6484C6.73828 14.6484 6.47461 14.4434 6.47461 14.1211C6.47461 14.043 6.49414 13.9551 6.52344 13.8379L7.02148 12.334L6.39648 12.334C6.21094 12.334 6.06445 12.1777 6.06445 12.002C6.06445 11.8164 6.21094 11.6602 6.39648 11.6602L7.24609 11.6602L7.61719 10.5176L6.39648 10.5176C6.21094 10.5176 6.06445 10.3613 6.06445 10.1855C6.06445 9.99023 6.21094 9.84375 6.39648 9.84375L7.8418 9.84375L9.14062 5.83984C9.26758 5.46875 9.54102 5.24414 9.96094 5.24414C10.3906 5.24414 10.625 5.45898 10.7617 5.83984L12.0801 9.84375L13.5156 9.84375C13.7012 9.84375 13.8574 9.99023 13.8574 10.1855C13.8574 10.3613 13.7012 10.5176 13.5156 10.5176L12.2949 10.5176L12.6758 11.6602L13.5156 11.6602C13.7012 11.6602 13.8574 11.8164 13.8574 12.002C13.8574 12.1777 13.7012 12.334 13.5156 12.334L12.9004 12.334L13.3789 13.8086C13.418 13.9062 13.4375 14.0234 13.4375 14.1211C13.4375 14.4629 13.1738 14.6484 12.8613 14.6484C12.5293 14.6484 12.3633 14.4727 12.2852 14.1992L11.7188 12.334L8.20312 12.334L7.62695 14.1895C7.53906 14.4922 7.37305 14.6484 7.06055 14.6484ZM8.4082 11.6602L11.5137 11.6602L11.1523 10.5176L8.75977 10.5176ZM8.96484 9.84375L10.9473 9.84375L9.98047 6.66992L9.94141 6.66992Z" fill="var(--color-primary)"/>
 </g>
</svg>
