<svg version="1.1" xmlns="http://www.w3.org/2000/svg" xmlns:xlink="http://www.w3.org/1999/xlink" viewBox="0 0 30.7617 13.6035">
 <g>
  <rect height="13.6035" opacity="0" width="30.7617" x="0" y="0"/>
  <path d="M13.7305 13.584L16.6602 13.584C21.1523 13.584 23.75 13.5352 25.9766 12.793C28.8086 11.8359 30.4004 9.69727 30.4004 6.79688C30.4004 3.89648 28.8086 1.75781 25.9766 0.791016C23.75 0.0488281 21.1523 0 16.6602 0L13.7305 0C9.24805 0 6.64062 0.0488281 4.41406 0.791016C1.58203 1.75781 0 3.89648 0 6.79688C0 9.69727 1.58203 11.8359 4.41406 12.793C6.64062 13.5352 9.24805 13.584 13.7305 13.584ZM13.7305 12.0117C9.26758 12.0117 6.9043 11.9629 4.92188 11.3086C2.7832 10.5859 1.57227 8.96484 1.57227 6.79688C1.57227 4.62891 2.7832 3.00781 4.92188 2.28516C6.9043 1.63086 9.26758 1.57227 13.7305 1.57227L16.6602 1.57227C21.1328 1.57227 23.4961 1.63086 25.4688 2.28516C27.6074 3.01758 28.8184 4.63867 28.8184 6.79688C28.8184 8.95508 27.6074 10.5762 25.4688 11.3086C23.4961 11.9629 21.1328 12.0117 16.6602 12.0117ZM15.1953 9.16992C16.2988 9.16992 17.1973 8.28125 17.1973 7.2168C17.1973 6.09375 16.2891 5.18555 15.1953 5.18555C14.8047 5.18555 14.4434 5.29297 14.1113 5.53711L14.1113 3.95508L13.2129 4.3457L13.2129 7.2168C13.2129 8.30078 14.082 9.16992 15.1953 9.16992ZM15.1953 8.28125C14.6094 8.28125 14.1113 7.7832 14.1113 7.2168C14.1113 6.61133 14.6191 6.12305 15.1953 6.12305C15.791 6.12305 16.2891 6.62109 16.2891 7.2168C16.2891 7.7832 15.791 8.28125 15.1953 8.28125Z" fill="var(--color-primary)"/>
 </g>
</svg>
