<svg version="1.1" xmlns="http://www.w3.org/2000/svg" xmlns:xlink="http://www.w3.org/1999/xlink" viewBox="0 0 18.3398 17.9785">
 <g>
  <rect height="17.9785" opacity="0" width="18.3398" x="0" y="0"/>
  <path d="M17.9785 3.02734L17.9785 14.9609C17.9785 16.9727 16.9629 17.9785 14.9121 17.9785L3.06641 17.9785C1.02539 17.9785 0 16.9727 0 14.9609L0 3.02734C0 1.01562 1.02539 0 3.06641 0L14.9121 0C16.9629 0 17.9785 1.01562 17.9785 3.02734ZM9.07227 3.61328L9.07227 4.57031L8.11523 4.57031L8.11523 3.61328C8.11523 3.39844 7.97852 3.26172 7.7832 3.26172C7.57812 3.26172 7.44141 3.39844 7.44141 3.61328L7.44141 4.57031L6.89453 4.57031C6.45508 4.57031 6.15234 4.87305 6.15234 5.3125L6.15234 12.6855C6.15234 13.1348 6.45508 13.4277 6.89453 13.4277L7.44141 13.4277L7.44141 14.4141C7.44141 14.6094 7.57812 14.7461 7.7832 14.7461C7.97852 14.7461 8.11523 14.6094 8.11523 14.4141L8.11523 13.4277L9.07227 13.4277L9.07227 14.4141C9.07227 14.6094 9.21875 14.7461 9.4043 14.7461C9.61914 14.7461 9.75586 14.6094 9.75586 14.4141L9.75586 13.418C11.3379 13.3008 12.4609 12.4902 12.4609 10.9473C12.4609 9.76562 11.6406 8.91602 10.3809 8.76953L10.3809 8.71094C11.3672 8.55469 12.0117 7.66602 12.0117 6.77734C12.0117 5.48828 11.0352 4.72656 9.75586 4.59961L9.75586 3.61328C9.75586 3.39844 9.61914 3.26172 9.4043 3.26172C9.21875 3.26172 9.07227 3.39844 9.07227 3.61328ZM11.2598 10.8887C11.2598 12.0312 10.3223 12.4316 9.17969 12.4316L7.34375 12.4316L7.34375 9.3457L9.07227 9.3457C10.2539 9.3457 11.2598 9.7168 11.2598 10.8887ZM10.8105 6.92383C10.8105 8.00781 9.90234 8.37891 8.79883 8.37891L7.34375 8.37891L7.34375 5.55664L9.08203 5.55664C10.0488 5.55664 10.8105 5.94727 10.8105 6.92383Z" fill="var(--color-primary)"/>
 </g>
</svg>
