<svg version="1.1" xmlns="http://www.w3.org/2000/svg" xmlns:xlink="http://www.w3.org/1999/xlink" viewBox="0 0 23.4668 18.1543">
 <g>
  <rect height="18.1543" opacity="0" width="23.4668" x="0" y="0"/>
  <path d="M11.5527 15.4297C14.834 15.4297 19.1992 15.2637 21.0449 15.0488C22.373 14.9023 23.1055 14.1699 23.1055 12.9199L23.1055 11.2012C23.1055 9.55078 22.7734 8.63281 21.875 7.46094L21.0449 6.39648C20.6934 4.63867 20.0391 2.79297 19.707 2.07031C19.1797 0.966797 18.1738 0.3125 16.875 0.136719C16.2207 0.0488281 14.082 0 11.5527 0C9.0332 0 6.89453 0.0585938 6.24023 0.136719C4.94141 0.292969 3.92578 0.966797 3.4082 2.07031C3.06641 2.79297 2.42188 4.63867 2.06055 6.39648L1.24023 7.46094C0.332031 8.63281 0 9.55078 0 11.2012L0 12.9199C0 14.1699 0.742188 14.9023 2.06055 15.0488C3.91602 15.2637 8.27148 15.4297 11.5527 15.4297ZM1.29883 18.1152L2.44141 18.1152C3.17383 18.1152 3.74023 17.5488 3.74023 16.8262L3.74023 14.3945L0 12.6172L0 16.8262C0 17.5488 0.566406 18.1152 1.29883 18.1152ZM20.6641 18.1152L21.8164 18.1152C22.5488 18.1152 23.1055 17.5488 23.1055 16.8262L23.1055 12.6172L19.375 14.3945L19.375 16.8262C19.375 17.5488 19.9316 18.1152 20.6641 18.1152Z" fill="var(--color-tertiary)"/>
  <path d="M8.36914 8.33984C8.36914 8.23242 8.41797 8.14453 8.49609 8.04688L12.5293 2.97852C12.832 2.59766 13.3398 2.85156 13.1641 3.33008L11.8359 6.89453L14.3262 6.89453C14.5117 6.89453 14.6777 7.04102 14.6777 7.2168C14.6777 7.31445 14.6289 7.42188 14.5312 7.50977L10.5176 12.5781C10.2051 12.959 9.6875 12.6953 9.87305 12.2266L11.2109 8.65234L8.71094 8.65234C8.52539 8.65234 8.36914 8.51562 8.36914 8.33984Z" fill="var(--color-primary)"/>
 </g>
</svg>
