<svg version="1.1" xmlns="http://www.w3.org/2000/svg" xmlns:xlink="http://www.w3.org/1999/xlink" viewBox="0 0 18.9136 21.9778">
 <g>
  <rect height="21.9778" opacity="0" width="18.9136" x="0" y="0"/>
  <path d="M11.4918 15.8194L7.02027 21.4137C6.35621 22.234 5.31129 21.6969 5.69214 20.6911L8.56874 12.8983ZM15.448 9.03091C15.8582 9.03091 16.1414 9.32388 16.1414 9.69497C16.1414 9.91958 16.0535 10.1149 15.8875 10.32L13.8702 12.8437L10.0574 9.03091ZM3.08472 12.7809C2.67457 12.7809 2.3816 12.4977 2.3816 12.1168C2.3816 11.902 2.47925 11.7067 2.64527 11.4918L4.65169 8.98383L8.45129 12.7809ZM12.8406 1.12075L9.95752 8.93105L7.03329 6.00682L11.5125 0.407864C12.1765-0.422214 13.2117 0.114895 12.8406 1.12075Z" fill="var(--color-secondary)"/>
  <path d="M16.1023 18.8063C16.3953 19.0993 16.8836 19.0993 17.1668 18.8063C17.4597 18.5231 17.4597 18.0446 17.1668 17.7418L2.43043 3.00552C2.13746 2.71255 1.63941 2.71255 1.35621 3.00552C1.073 3.28872 1.073 3.78677 1.35621 4.06997Z" fill="var(--color-primary)"/>
 </g>
</svg>
