<svg version="1.1" xmlns="http://www.w3.org/2000/svg" xmlns:xlink="http://www.w3.org/1999/xlink" viewBox="0 0 20.2832 19.9316">
 <g>
  <rect height="19.9316" opacity="0" width="20.2832" x="0" y="0"/>
  <path d="M19.9219 9.9707C19.9219 15.4688 15.459 19.9316 9.96094 19.9316C4.47266 19.9316 0 15.4688 0 9.9707C0 4.48242 4.47266 0.00976562 9.96094 0.00976562C15.459 0.00976562 19.9219 4.48242 19.9219 9.9707ZM11.2402 3.33984L5.72266 10.2734C5.61523 10.3906 5.55664 10.5371 5.55664 10.6641C5.55664 10.918 5.75195 11.1035 6.01562 11.1035L9.43359 11.1035L7.60742 15.9961C7.36328 16.6406 8.05664 16.9922 8.47656 16.4746L13.9941 9.55078C14.1016 9.42383 14.1602 9.27734 14.1602 9.15039C14.1602 8.89648 13.9648 8.71094 13.7012 8.71094L10.2832 8.71094L12.1094 3.81836C12.3535 3.17383 11.6602 2.82227 11.2402 3.33984Z" fill="var(--color-primary)"/>
 </g>
</svg>
