<svg version="1.1" xmlns="http://www.w3.org/2000/svg" xmlns:xlink="http://www.w3.org/1999/xlink" viewBox="0 0 22.168 20.8496">
 <g>
  <rect height="20.8496" opacity="0" width="22.168" x="0" y="0"/>
  <path d="M1.29883 19.707L20.5078 19.707L20.5078 18.5547C20.5078 18.1641 20.2832 17.9297 19.8828 17.9297L19.2578 17.9297L19.2578 6.69922L20.1172 6.69922C20.6543 6.69922 20.9668 6.30859 20.9668 5.9082C20.9668 5.61523 20.8008 5.36133 20.4395 5.15625L12.0996 0.341797C11.709 0.117188 11.2988 0 10.8984 0C10.498 0 10.0781 0.117188 9.70703 0.341797L1.36719 5.15625C0.996094 5.36133 0.839844 5.61523 0.839844 5.9082C0.839844 6.30859 1.15234 6.69922 1.68945 6.69922L2.54883 6.69922L2.54883 17.9297L1.93359 17.9297C1.5332 17.9297 1.29883 18.1641 1.29883 18.5547ZM0.78125 20.8398L21.0156 20.8398C21.4453 20.8398 21.8066 20.4785 21.8066 20.0488C21.8066 19.6191 21.4453 19.2676 21.0156 19.2676L0.78125 19.2676C0.351562 19.2676 0 19.6191 0 20.0488C0 20.4785 0.351562 20.8398 0.78125 20.8398Z" fill="var(--color-tertiary)"/>
  <path d="M6.88477 14.7656C6.51367 14.7656 6.35742 14.541 6.35742 14.2285L6.35742 7.93945C6.35742 7.60742 6.54297 7.41211 6.86523 7.41211L8.45703 7.41211C9.79492 7.41211 10.6738 8.17383 10.6738 9.57031C10.6738 10.4102 10.3223 11.2109 9.51172 11.5625L10.5371 13.8965C10.5859 14.0234 10.6543 14.1406 10.6543 14.2773C10.6543 14.5703 10.4492 14.7656 10.1562 14.7656C9.88281 14.7656 9.73633 14.6387 9.62891 14.3848L8.51562 11.7773L7.40234 11.7773L7.40234 14.2285C7.40234 14.5508 7.20703 14.7656 6.88477 14.7656ZM7.40234 10.9473L8.37891 10.9473C9.22852 10.9473 9.62891 10.4004 9.62891 9.58984C9.62891 8.78906 9.17969 8.26172 8.35938 8.26172L7.40234 8.26172ZM13.5938 15.498C13.4473 15.498 13.3496 15.4004 13.3496 15.2539L13.3496 14.5508C12.4512 14.4824 11.709 14.0332 11.4844 13.0078C11.4551 12.9297 11.4453 12.8125 11.4453 12.7344C11.4453 12.4512 11.6406 12.2852 11.9238 12.2852C12.1387 12.2852 12.334 12.4121 12.3828 12.666C12.4902 13.2715 12.7832 13.6328 13.3496 13.7109L13.3496 11.416L13.0469 11.2695C12.0605 10.8008 11.5137 10.3027 11.5137 9.33594C11.5137 8.27148 12.2754 7.61719 13.3496 7.5293L13.3496 6.8457C13.3496 6.68945 13.4473 6.5918 13.5938 6.5918C13.7402 6.5918 13.8477 6.68945 13.8477 6.8457L13.8477 7.5293C14.6777 7.59766 15.3809 8.01758 15.5957 9.0332C15.6152 9.10156 15.6348 9.22852 15.6348 9.29688C15.6348 9.58008 15.4492 9.74609 15.1758 9.74609C14.8926 9.74609 14.7461 9.55078 14.6973 9.375C14.6191 8.88672 14.3848 8.4668 13.8477 8.36914L13.8477 10.5957L14.1992 10.7617C15.0977 11.1816 15.7715 11.6113 15.7715 12.6855C15.7715 13.7891 15 14.4727 13.8477 14.5508L13.8477 15.2539C13.8477 15.4004 13.7402 15.498 13.5938 15.498ZM12.4902 9.27734C12.4902 9.78516 12.8613 10.0879 13.3496 10.3516L13.3496 8.35938C12.8516 8.42773 12.4902 8.74023 12.4902 9.27734ZM13.8477 13.7207C14.4336 13.6719 14.7852 13.3594 14.7852 12.7832C14.7852 12.1973 14.3652 11.9141 13.8477 11.6504Z" fill="var(--color-primary)"/>
 </g>
</svg>
