<svg version="1.1" xmlns="http://www.w3.org/2000/svg" xmlns:xlink="http://www.w3.org/1999/xlink" viewBox="0 0 20.2832 19.9316">
 <g>
  <rect height="19.9316" opacity="0" width="20.2832" x="0" y="0"/>
  <path d="M9.96094 19.9316C15.459 19.9316 19.9219 15.4688 19.9219 9.9707C19.9219 4.48242 15.459 0.00976562 9.96094 0.00976562C4.47266 0.00976562 0 4.48242 0 9.9707C0 15.4688 4.47266 19.9316 9.96094 19.9316Z" fill="var(--color-tertiary)"/>
  <path d="M12.4805 15.7715C12.2852 15.7715 12.1484 15.6836 11.9238 15.459L10.127 13.8281L6.75781 13.8281C5.30273 13.8281 4.49219 13.0078 4.49219 11.5527L4.49219 7.75391C4.49219 6.31836 5.30273 5.49805 6.75781 5.49805L13.1641 5.49805C14.6191 5.49805 15.4297 6.31836 15.4297 7.75391L15.4297 11.5527C15.4297 13.0078 14.6191 13.8281 13.1641 13.8281L12.9199 13.8281L12.9199 15.2637C12.9199 15.5664 12.7539 15.7715 12.4805 15.7715Z" fill="var(--color-primary)"/>
 </g>
</svg>
