<svg version="1.1" xmlns="http://www.w3.org/2000/svg" xmlns:xlink="http://www.w3.org/1999/xlink" viewBox="0 0 20.2832 19.9316">
 <g>
  <rect height="19.9316" opacity="0" width="20.2832" x="0" y="0"/>
  <path d="M9.96094 19.9316C15.459 19.9316 19.9219 15.4688 19.9219 9.9707C19.9219 4.48242 15.459 0.00976562 9.96094 0.00976562C4.47266 0.00976562 0 4.48242 0 9.9707C0 15.4688 4.47266 19.9316 9.96094 19.9316Z" fill="var(--color-tertiary)"/>
  <path d="M5.46875 14.5215C4.4043 14.5215 3.86719 13.9941 3.86719 12.9492L3.86719 7.62695C3.86719 6.5625 4.4043 6.04492 5.46875 6.04492L6.73828 6.04492C7.12891 6.04492 7.24609 5.94727 7.4707 5.71289L7.89062 5.25391C8.14453 4.9707 8.4082 4.82422 8.92578 4.82422L10.957 4.82422C11.4844 4.82422 11.748 4.9707 11.9922 5.25391L12.4023 5.71289C12.627 5.9668 12.7637 6.04492 13.1543 6.04492L14.4531 6.04492C15.5078 6.04492 16.0547 6.5625 16.0547 7.62695L16.0547 12.9492C16.0547 13.9941 15.5078 14.5215 14.4531 14.5215ZM9.9707 13.252C11.6406 13.252 12.9785 11.9531 12.9785 10.2344C12.9785 8.56445 11.6406 7.2168 9.9707 7.2168C8.30078 7.2168 6.95312 8.56445 6.95312 10.2344C6.95312 11.9238 8.30078 13.252 9.9707 13.252ZM9.96094 12.3828C8.7793 12.3828 7.8125 11.4258 7.8125 10.2344C7.8125 9.04297 8.7793 8.08594 9.96094 8.08594C11.1426 8.08594 12.1094 9.04297 12.1094 10.2344C12.1094 11.4258 11.1426 12.3828 9.96094 12.3828ZM14.1797 8.64258C14.5508 8.64258 14.8633 8.33008 14.8633 7.95898C14.8633 7.57812 14.5508 7.26562 14.1797 7.26562C13.8086 7.26562 13.4961 7.57812 13.4961 7.95898C13.4961 8.33008 13.8086 8.64258 14.1797 8.64258Z" fill="var(--color-primary)"/>
 </g>
</svg>
