<svg version="1.1" xmlns="http://www.w3.org/2000/svg" xmlns:xlink="http://www.w3.org/1999/xlink" viewBox="0 0 35.3711 17.8809">
 <g>
  <rect height="17.8809" opacity="0" width="35.3711" x="0" y="0"/>
  <path d="M17.627 17.8809C19.6875 17.8809 20.6934 16.9043 20.6934 14.8633L20.6934 10.0879C20.6934 8.69141 20.3027 7.93945 19.1797 7.08984L11.5918 1.31836C10.3027 0.351562 9.30664 0.00976562 7.71484 0.00976562L2.97852 0.00976562C1.00586 0.00976562 0 1.00586 0 2.95898L0 14.8633C0 16.9043 0.996094 17.8809 3.06641 17.8809ZM17.5684 8.87695L3.00781 8.87695C2.10938 8.87695 1.57227 8.35938 1.57227 7.42188L1.57227 3.03711C1.57227 2.08984 2.09961 1.58203 3.00781 1.58203L7.71484 1.58203C8.96484 1.58203 9.6875 1.79688 10.5176 2.46094L17.793 8.02734C18.1934 8.32031 18.0859 8.87695 17.5684 8.87695Z" fill="var(--color-secondary)"/>
  <path d="M25.0781 14.3652C25.3809 14.3652 25.5664 14.2578 25.8691 13.9746L29.6582 10.1562L33.4375 13.9648C33.7305 14.248 33.916 14.3555 34.2188 14.3555C34.6387 14.3555 35.0098 13.9941 35.0098 13.584C35.0098 13.3008 34.9121 13.1152 34.6582 12.8516L30.8203 8.98438L34.6582 5.11719C34.9121 4.85352 35.0098 4.66797 35.0098 4.38477C35.0098 3.97461 34.6484 3.62305 34.2285 3.62305C33.9258 3.62305 33.7402 3.73047 33.4375 4.01367L29.6484 7.82227L25.8789 4.01367C25.5859 3.73047 25.3906 3.62305 25.0977 3.62305C24.668 3.62305 24.3066 3.97461 24.3066 4.39453C24.3066 4.6875 24.4043 4.88281 24.6484 5.13672L28.4863 8.98438L24.6484 12.8613C24.3945 13.125 24.2969 13.3105 24.2969 13.6035C24.2969 14.0137 24.6582 14.3652 25.0781 14.3652Z" fill="var(--color-primary)"/>
 </g>
</svg>
