<svg version="1.1" xmlns="http://www.w3.org/2000/svg" xmlns:xlink="http://www.w3.org/1999/xlink" viewBox="0 0 30.6635 20.459">
 <g>
  <rect height="20.459" opacity="0" width="30.6635" x="0" y="0"/>
  <path d="M0.790736 20.4395L2.11886 20.4395C2.7048 20.4395 2.988 20.166 3.16378 19.7363L8.11495 7.8125C8.26144 7.4707 8.10519 7.20703 7.76339 7.20703L6.738 7.20703C6.40597 7.20703 6.19113 7.35352 6.03488 7.65625L0.107142 19.3457C-0.146764 19.8535 0.0387829 20.4395 0.790736 20.4395ZM28.2028 20.4395L29.5114 20.4395C30.2732 20.4395 30.4489 19.8633 30.195 19.3555L24.2673 7.66602C24.111 7.36328 23.906 7.20703 23.5739 7.20703L22.5485 7.20703C22.2068 7.20703 22.0505 7.48047 22.1872 7.8125L27.1579 19.7363C27.3337 20.166 27.6169 20.4395 28.2028 20.4395Z" fill="var(--color-secondary)"/>
  <path d="M6.13253 15.6055L24.1696 15.6055L23.6032 14.1699L6.69894 14.1699Z" fill="var(--color-primary)"/>
  <path d="M7.0798 13.2227L23.2126 13.2227L22.6462 11.7773L7.65597 11.7773Z" fill="var(--color-primary)"/>
  <path d="M8.0466 10.8008L22.2458 10.8008L21.6794 9.36523L8.613 9.36523Z" fill="var(--color-primary)"/>
  <path d="M9.71652 7.91016C9.71652 8.25195 9.98019 8.51562 10.322 8.51562L10.8591 8.51562C11.2107 8.51562 11.4743 8.25195 11.4743 7.91016L11.4743 7.24609L18.8181 7.24609L18.8181 7.91016C18.8181 8.25195 19.0818 8.51562 19.4235 8.51562L19.9704 8.51562C20.3122 8.51562 20.5759 8.25195 20.5759 7.91016L20.5759 4.84375C20.5759 4.07227 20.4685 3.60352 19.9997 3.08594L19.531 2.58789L19.0525 1.21094C18.7888 0.458984 18.281 0.136719 17.6462 0.0683594C17.3337 0.0292969 16.3278 0 15.1462 0C13.9548 0 12.9489 0.0292969 12.6462 0.0683594C12.0114 0.136719 11.5036 0.458984 11.24 1.21094L10.7517 2.58789L10.2927 3.08594C9.82394 3.60352 9.71652 4.07227 9.71652 4.84375ZM12.0114 2.61719C11.7966 2.61719 11.7185 2.45117 11.7868 2.24609L12.07 1.39648C12.1775 1.07422 12.3435 0.976562 12.6267 0.9375C12.9489 0.888672 13.8376 0.859375 15.1462 0.859375C16.4548 0.859375 17.3435 0.888672 17.656 0.9375C17.9392 0.976562 18.1052 1.07422 18.2126 1.39648L18.5056 2.24609C18.5739 2.45117 18.4958 2.61719 18.2712 2.61719ZM11.3767 5.47852C11.0935 5.47852 10.8884 5.27344 10.8884 5L10.8884 4.27734C10.8884 3.99414 11.0935 3.79883 11.3767 3.79883C11.6599 3.79883 11.865 3.99414 11.865 4.27734L11.865 5C11.865 5.2832 11.6599 5.47852 11.3767 5.47852ZM14.1013 5.26367C13.8767 5.26367 13.7302 5.11719 13.7302 4.87305L13.7302 4.4043C13.7302 4.16016 13.8767 4.01367 14.1013 4.01367L16.1716 4.01367C16.406 4.01367 16.5525 4.16016 16.5525 4.4043L16.5525 4.87305C16.5525 5.11719 16.406 5.26367 16.1716 5.26367ZM18.9646 5.47852C18.6814 5.47852 18.4763 5.27344 18.4763 5L18.4763 4.27734C18.4763 4.00391 18.6814 3.79883 18.9646 3.79883C19.2478 3.79883 19.4528 3.99414 19.4528 4.27734L19.4528 5C19.4528 5.2832 19.2478 5.47852 18.9646 5.47852Z" fill="var(--color-primary)"/>
 </g>
</svg>
