<svg version="1.1" xmlns="http://www.w3.org/2000/svg" xmlns:xlink="http://www.w3.org/1999/xlink" viewBox="0 0 35.1562 27.041">
 <g>
  <rect height="27.041" opacity="0" width="35.1562" x="0" y="0"/>
  <path d="M30.5078 9.24805L32.0605 9.76562C33.916 10.3711 34.7949 11.5039 34.7949 13.3203L34.7949 16.0254C34.7949 18.291 33.8281 19.3066 31.6895 19.3066L30.8169 19.3066C30.298 20.5572 29.0738 21.416 27.6074 21.416C26.141 21.416 24.9168 20.5572 24.3979 19.3066L10.3874 19.3066C9.86895 20.5572 8.64658 21.416 7.1875 21.416C5.72108 21.416 4.49689 20.5572 3.97801 19.3066L3.10547 19.3066C0.986328 19.3066 0 18.3105 0 16.084L0 14.834C0 12.5293 1.63086 10.8496 4.33594 10.5176L8.66211 9.99023L12.6172 7.50977C13.7503 6.7975 14.7236 6.33276 15.8595 6.04306L15.9076 7.6674C15.081 7.92141 14.3344 8.2998 13.457 8.84766L9.83398 11.1328C9.42383 11.377 9.02344 11.5137 8.4375 11.5918L4.53125 12.0703C2.64648 12.2949 1.57227 13.3887 1.57227 14.834L1.57227 16.0254C1.57227 17.1973 2.05078 17.7344 3.10547 17.7344L3.72141 17.7344C3.82489 15.8848 5.30704 14.4727 7.1875 14.4727C9.05856 14.4727 10.5404 15.8848 10.6438 17.7344L24.1413 17.7344C24.2448 15.8848 25.727 14.4727 27.6074 14.4727C29.4879 14.4727 30.97 15.8848 31.0735 17.7344L31.6895 17.7344C32.7441 17.7344 33.2227 17.1973 33.2227 16.0254L33.2227 13.3203C33.2227 12.2949 32.7051 11.7188 31.5918 11.3574L30.5566 11.0254C29.9707 10.8398 29.7266 10.7324 29.2676 10.332C26.748 8.125 24.7168 7.17773 22.1582 7.17773L20.6738 7.17773C20.5629 7.17773 20.4541 7.17803 20.3538 7.17963L20.3981 5.60733C20.4847 5.6057 20.5786 5.60547 20.6738 5.60547L22.1582 5.60547C25.8203 5.60547 28.5352 7.53906 30.5078 9.24805ZM5.18555 17.9492C5.18555 19.0625 6.06445 19.9414 7.1875 19.9414C8.30078 19.9414 9.17969 19.0625 9.17969 17.9492C9.17969 16.8262 8.30078 15.9473 7.1875 15.9473C6.06445 15.9473 5.18555 16.8262 5.18555 17.9492ZM25.6055 17.9492C25.6055 19.0625 26.4941 19.9414 27.6074 19.9414C28.7207 19.9414 29.6094 19.0625 29.6094 17.9492C29.6094 16.8262 28.7207 15.9473 27.6074 15.9473C26.4941 15.9473 25.6055 16.8262 25.6055 17.9492Z" fill="var(--color-secondary)"/>
  <path d="M18.125 14.4629C18.8184 14.4629 19.4043 13.8867 19.4043 13.2227C19.4043 12.5488 18.8281 11.9922 18.125 11.9922C17.4121 11.9922 16.8359 12.5488 16.8359 13.2227C16.8359 13.8867 17.4219 14.4629 18.125 14.4629ZM18.125 10.127C18.6035 10.127 18.9355 9.78516 18.9551 9.28711L19.1602 2.37305C19.1797 1.74805 18.7598 1.33789 18.125 1.33789C17.4805 1.33789 17.0605 1.74805 17.0801 2.37305L17.2852 9.28711C17.3047 9.78516 17.6465 10.127 18.125 10.127Z" fill="var(--color-primary)"/>
 </g>
</svg>
