<svg version="1.1" xmlns="http://www.w3.org/2000/svg" xmlns:xlink="http://www.w3.org/1999/xlink" viewBox="0 0 37.168 27.8223">
 <g>
  <rect height="27.8223" opacity="0" width="37.168" x="0" y="0"/>
  <path d="M3.76953 22.666C4.08203 22.3145 3.98438 21.8555 3.63281 21.4551C2.32422 20 1.5918 18.0957 1.5918 15.9863C1.5918 13.8867 2.32422 11.9727 3.63281 10.5176C3.98438 10.1172 4.08203 9.66797 3.76953 9.30664C3.45703 8.94531 2.91016 8.94531 2.53906 9.36523C0.917969 11.123 0 13.457 0 15.9863C0 18.5156 0.917969 20.8594 2.53906 22.6172C2.91016 23.0273 3.45703 23.0371 3.76953 22.666ZM33.0371 22.666C33.3594 23.0371 33.8965 23.0273 34.2773 22.6172C35.8984 20.8594 36.8066 18.5156 36.8066 15.9863C36.8066 13.457 35.8984 11.123 34.2773 9.36523C33.8965 8.94531 33.3594 8.94531 33.0371 9.30664C32.7246 9.66797 32.8223 10.1172 33.1738 10.5176C34.4922 11.9727 35.2148 13.8867 35.2148 15.9863C35.2148 18.0957 34.4922 20 33.1738 21.4551C32.8223 21.8555 32.7246 22.3145 33.0371 22.666ZM18.3789 1.5918C20.4785 1.5918 22.3828 2.32422 23.8379 3.63281C24.248 3.98438 24.6973 4.08203 25.0488 3.76953C25.4199 3.45703 25.4199 2.91016 25 2.5293C23.2422 0.908203 20.9082 0 18.3789 0C15.8398 0 13.5059 0.908203 11.748 2.5293C11.3281 2.91016 11.3281 3.45703 11.6992 3.76953C12.0508 4.08203 12.5 3.98438 12.9102 3.63281C14.3652 2.32422 16.2695 1.5918 18.3789 1.5918Z" fill="var(--color-secondary)"/>
  <path d="M6.50391 19.8828C6.81641 19.5312 6.68945 19.1016 6.37695 18.6719C5.79102 17.9492 5.50781 17.002 5.50781 15.9863C5.50781 14.9707 5.79102 14.0332 6.37695 13.3008C6.68945 12.8809 6.81641 12.4414 6.50391 12.0898C6.18164 11.7285 5.5957 11.7188 5.25391 12.1582C4.4043 13.2129 3.91602 14.5508 3.91602 15.9863C3.91602 17.4219 4.4043 18.7598 5.25391 19.8145C5.5957 20.2637 6.18164 20.2539 6.50391 19.8828ZM30.3027 19.8828C30.625 20.2539 31.2109 20.2637 31.5625 19.8145C32.4121 18.7598 32.9004 17.4219 32.9004 15.9863C32.9004 14.5508 32.4121 13.2129 31.5625 12.1582C31.2109 11.7188 30.625 11.7285 30.3027 12.0898C29.9902 12.4414 30.127 12.8809 30.4297 13.3008C31.0156 14.0332 31.3086 14.9707 31.3086 15.9863C31.3086 17.002 31.0156 17.9492 30.4297 18.6719C30.127 19.1016 29.9902 19.5312 30.3027 19.8828ZM18.3887 5.49805C19.4043 5.49805 20.3516 5.79102 21.0742 6.37695C21.4941 6.68945 21.9336 6.81641 22.2852 6.50391C22.6562 6.18164 22.666 5.5957 22.2168 5.25391C21.1621 4.4043 19.8242 3.90625 18.3887 3.90625C16.9531 3.90625 15.6152 4.4043 14.5605 5.25391C14.1211 5.5957 14.1309 6.18164 14.4922 6.50391C14.8438 6.81641 15.2832 6.67969 15.7031 6.37695C16.4551 5.81055 17.373 5.49805 18.3887 5.49805Z" fill="var(--color-secondary)"/>
  <path d="M18.4082 21.3086C21.1328 21.3086 24.6484 21.1719 26.1328 21.0059C27.2754 20.8691 27.9297 20.2344 27.9297 19.1406L27.9297 17.6855C27.9297 16.3281 27.6562 15.5371 26.9043 14.5801L26.2598 13.7598C25.9668 12.3535 25.459 10.8691 25.1758 10.3027C24.7363 9.35547 23.8672 8.80859 22.7832 8.66211C22.2559 8.59375 20.5371 8.55469 18.4082 8.55469C16.2988 8.55469 14.5703 8.60352 14.043 8.66211C12.959 8.79883 12.0898 9.35547 11.6504 10.3027C11.377 10.8691 10.8594 12.3535 10.5664 13.7598L9.92188 14.5801C9.17969 15.5371 8.89648 16.3281 8.89648 17.6855L8.89648 19.1406C8.89648 20.2344 9.55078 20.8691 10.6934 21.0059C12.1777 21.1719 15.6934 21.3086 18.4082 21.3086ZM18.4082 19.9805C15.6641 19.9805 12.2461 19.8633 10.9961 19.707C10.4004 19.6289 10.2246 19.3848 10.2246 18.8379L10.2246 17.6855C10.2246 16.6309 10.3711 16.1621 10.9668 15.4004L11.7969 14.3164C12.002 13.1934 12.5195 11.6016 12.8418 10.8887C13.0859 10.3809 13.5156 10.0781 14.1895 10.0098C14.6973 9.94141 16.2695 9.86328 18.4082 9.86328C20.5566 9.86328 22.168 9.94141 22.6074 10.0098C23.3105 10.0879 23.7402 10.3906 23.9844 10.8887C24.3164 11.6016 24.8242 13.1934 25.0391 14.3164L25.8594 15.4004C26.4551 16.1621 26.6016 16.6309 26.6016 17.6855L26.6016 18.8379C26.6016 19.3848 26.4258 19.6387 25.8301 19.707C24.5801 19.8633 21.1621 19.9805 18.4082 19.9805ZM12.7246 13.6328C12.666 13.8965 12.7734 14.0137 13.0762 13.9941C14.3262 13.8965 15.8301 13.8281 18.4082 13.8281C21.0059 13.8281 22.5 13.8965 23.75 13.9941C24.0527 14.0137 24.1602 13.8965 24.1016 13.6328C23.9062 12.7832 23.5547 11.7188 23.3008 11.2793C23.0957 10.9277 22.8711 10.7715 22.4707 10.7129C21.8945 10.6348 20.6055 10.5859 18.4082 10.5859C16.2207 10.5859 14.9414 10.6348 14.3555 10.7129C13.9551 10.7715 13.7305 10.9277 13.5254 11.2793C13.2812 11.7188 12.9199 12.7832 12.7246 13.6328ZM12.6758 18.9648C13.3887 18.9648 13.9258 18.418 13.9258 17.6953C13.9258 16.9824 13.3887 16.4453 12.6758 16.4453C11.9531 16.4453 11.4062 16.9824 11.4062 17.6953C11.4062 18.418 11.9531 18.9648 12.6758 18.9648ZM16.2598 18.6523L20.5762 18.6523C21.1133 18.6523 21.4844 18.2812 21.4844 17.7441C21.4844 17.207 21.1133 16.8457 20.5762 16.8457L16.2598 16.8457C15.7129 16.8457 15.3418 17.207 15.3418 17.7441C15.3418 18.2812 15.7129 18.6523 16.2598 18.6523ZM24.1602 18.9648C24.873 18.9648 25.4199 18.418 25.4199 17.6953C25.4199 16.9824 24.873 16.4453 24.1602 16.4453C23.4375 16.4453 22.9004 16.9824 22.9004 17.6953C22.9004 18.418 23.4375 18.9648 24.1602 18.9648ZM10.498 23.4082L11.4355 23.4082C12.0215 23.4082 12.4805 22.959 12.4805 22.3828L12.4805 20.4883L9.46289 20.0488L9.46289 22.3828C9.46289 22.959 9.91211 23.4082 10.498 23.4082ZM25.3809 23.4082L26.3184 23.4082C26.9043 23.4082 27.3438 22.959 27.3438 22.3828L27.3438 20.0488L24.3262 20.4883L24.3262 22.3828C24.3262 22.959 24.7852 23.4082 25.3809 23.4082Z" fill="var(--color-primary)"/>
 </g>
</svg>
