<svg version="1.1" xmlns="http://www.w3.org/2000/svg" xmlns:xlink="http://www.w3.org/1999/xlink" viewBox="0 0 20.2832 19.9316">
 <g>
  <rect height="19.9316" opacity="0" width="20.2832" x="0" y="0"/>
  <path d="M9.96094 19.9219C15.459 19.9219 19.9219 15.459 19.9219 9.96094C19.9219 4.46289 15.459 0 9.96094 0C4.46289 0 0 4.46289 0 9.96094C0 15.459 4.46289 19.9219 9.96094 19.9219ZM9.96094 18.2617C5.37109 18.2617 1.66016 14.5508 1.66016 9.96094C1.66016 5.37109 5.37109 1.66016 9.96094 1.66016C14.5508 1.66016 18.2617 5.37109 18.2617 9.96094C18.2617 14.5508 14.5508 18.2617 9.96094 18.2617Z" fill="var(--color-secondary)"/>
  <path d="M6.42578 15.5273L6.92383 15.5273C7.43164 15.5273 7.72461 15.2734 7.72461 14.8242C7.72461 14.5117 7.46094 14.2285 6.97266 14.1504L6.97266 13.0078C6.97266 12.5391 7.08008 12.2559 7.36328 11.7871C8.20312 12.1094 8.75 12.207 9.4043 12.207C10.1758 12.207 11.0156 12.0801 11.4648 11.9531C11.582 12.3438 11.6895 12.7832 11.6895 13.2422C11.6895 13.7891 11.6211 14.3457 11.6211 14.7949C11.6211 15.2734 11.8945 15.5273 12.3926 15.5273L12.9395 15.5273C13.4375 15.5273 13.7402 15.2539 13.7402 14.8242C13.7402 14.4629 13.5449 14.2285 13.1348 14.1602L13.1348 13.6621C13.1348 11.0742 14.9805 11.8066 15.0293 8.61328C15.8887 8.55469 16.5039 7.99805 16.5039 7.58789C16.5039 6.98242 15.8789 6.35742 15.1367 5.83984C14.9902 5.30273 14.6973 4.89258 14.4824 4.89258C14.2773 4.89258 13.9258 5.2832 13.7598 5.86914C13.3691 6.23047 13.0566 6.69922 12.8223 7.12891L12.6367 7.44141C12.4707 7.75391 12.334 7.93945 12.1289 7.93945C10.2539 7.93945 9.56055 7.68555 7.82227 7.68555C6.99219 7.68555 6.47461 7.96875 6.15234 8.33008C5.97656 8.54492 5.85938 8.59375 5.55664 8.47656C4.99023 8.26172 4.58984 7.70508 4.58984 6.98242C4.58984 6.02539 5.35156 5.36133 6.43555 5.36133C6.85547 5.36133 7.27539 5.43945 7.77344 5.64453C8.26172 5.83984 8.49609 5.17578 8.04688 4.99023C7.4707 4.75586 6.93359 4.6582 6.43555 4.6582C4.94141 4.6582 3.89648 5.61523 3.89648 6.98242C3.89648 7.98828 4.42383 8.78906 5.25391 9.10156C5.50781 9.20898 5.61523 9.38477 5.61523 9.64844C5.5957 9.90234 5.5957 10.127 5.5957 10.293C5.5957 11.8262 4.91211 12.0605 5.11719 12.7441L5.69336 14.9023C5.80078 15.3125 6.05469 15.5273 6.42578 15.5273ZM15 7.19727C14.873 7.16797 14.8145 7.05078 14.8438 6.93359C14.873 6.81641 14.9902 6.74805 15.1172 6.77734C15.2344 6.81641 15.293 6.94336 15.2637 7.06055C15.2344 7.17773 15.1172 7.23633 15 7.19727Z" fill="var(--color-primary)"/>
 </g>
</svg>
