<svg version="1.1" xmlns="http://www.w3.org/2000/svg" xmlns:xlink="http://www.w3.org/1999/xlink" viewBox="0 0 22.1973 21.8457">
 <g>
  <rect height="21.8457" opacity="0" width="22.1973" x="0" y="0"/>
  <path d="M10.918 21.8359C16.9141 21.8359 21.8359 16.9141 21.8359 10.918C21.8359 4.92188 16.9141 0 10.918 0C4.92188 0 0 4.92188 0 10.918C0 16.9141 4.92188 21.8359 10.918 21.8359ZM10.918 18.2031C6.89453 18.2031 3.63281 14.9414 3.63281 10.918C3.63281 6.88477 6.89453 3.63281 10.918 3.63281C14.9512 3.63281 18.2031 6.88477 18.2031 10.918C18.2031 14.9414 14.9512 18.2031 10.918 18.2031Z" fill="var(--color-secondary)"/>
  <path d="M10.9961 15.2051C12.4609 15.2051 13.7988 14.5605 14.2676 13.2617C14.3262 13.1055 14.3555 12.9688 14.3555 12.8027C14.3555 12.4805 14.1504 12.2852 13.8281 12.2852C13.5254 12.2852 13.3691 12.4512 13.2812 12.7344C12.9883 13.6328 12.0605 14.1992 10.9961 14.1992C9.16992 14.1992 8.34961 12.5977 8.34961 10.8301C8.34961 9.05273 9.21875 7.49023 10.9863 7.49023C12.0215 7.49023 12.9395 8.10547 13.2129 8.96484C13.3105 9.25781 13.457 9.41406 13.7598 9.41406C14.0723 9.41406 14.2871 9.21875 14.2871 8.89648C14.2871 8.67188 14.2188 8.48633 14.1406 8.31055C13.6133 7.11914 12.3535 6.47461 10.9863 6.47461C8.57422 6.47461 7.1582 8.31055 7.1582 10.8301C7.1582 13.3008 8.48633 15.2051 10.9961 15.2051ZM10.918 16.3379C11.1133 16.3379 11.2402 16.2109 11.2402 16.0059L11.2402 5.69336C11.2402 5.50781 11.1133 5.36133 10.918 5.36133C10.7324 5.36133 10.5859 5.50781 10.5859 5.69336L10.5859 16.0059C10.5859 16.2012 10.7324 16.3379 10.918 16.3379Z" fill="var(--color-primary)"/>
 </g>
</svg>
