<svg version="1.1" xmlns="http://www.w3.org/2000/svg" xmlns:xlink="http://www.w3.org/1999/xlink" viewBox="0 0 30.8691 14.6777">
 <g>
  <rect height="14.6777" opacity="0" width="30.8691" x="0" y="0"/>
  <path d="M26.2598 14.5508C28.1934 14.5508 29.8535 13.4863 30.4199 11.9824C30.4785 11.8164 30.5078 11.6504 30.5078 11.5137C30.5078 11.0938 30.2051 10.8008 29.7949 10.8008C29.4238 10.8008 29.2383 10.9473 29.0137 11.377C28.4961 12.5 27.6074 13.1152 26.2695 13.1152C24.3359 13.1152 23.0762 11.5918 23.0762 9.12109C23.0762 6.66992 24.3457 5.10742 26.2695 5.10742C27.5391 5.10742 28.4668 5.70312 28.9941 6.86523C29.209 7.27539 29.4043 7.42188 29.7656 7.42188C30.1855 7.42188 30.4785 7.14844 30.4785 6.71875C30.4785 6.60156 30.4492 6.45508 30.4102 6.32812C29.9121 4.81445 28.2324 3.67188 26.2305 3.67188C23.3008 3.67188 21.3867 5.83008 21.3867 9.13086C21.3867 12.4512 23.3105 14.5508 26.2598 14.5508Z" fill="var(--color-primary)"/>
  <path d="M11.3965 14.541C11.8652 14.541 12.207 14.2188 12.207 13.7109L12.207 12.2852L12.2461 12.2852C12.8809 13.6816 14.1797 14.5508 15.8105 14.5508C18.4961 14.5508 20.2637 12.4023 20.2637 9.11133C20.2637 5.82031 18.4863 3.67188 15.8301 3.67188C14.2188 3.67188 12.9102 4.55078 12.3047 5.92773L12.2559 5.92773L12.2559 0.878906C12.2559 0.351562 11.9238 0 11.4355 0C10.9375 0 10.6055 0.351562 10.6055 0.878906L10.6055 13.7109C10.6055 14.2285 10.9277 14.541 11.3965 14.541ZM15.4395 13.1152C13.5742 13.1152 12.2656 11.5332 12.2656 9.12109C12.2656 6.70898 13.584 5.11719 15.4395 5.11719C17.3535 5.11719 18.5547 6.66016 18.5547 9.11133C18.5547 11.5723 17.3535 13.1152 15.4395 13.1152Z" fill="var(--color-primary)"/>
  <path d="M3.50586 14.541C5.00977 14.541 6.42578 13.7207 7.03125 12.4512L7.06055 12.4512L7.06055 13.7402C7.06055 14.2285 7.39258 14.5508 7.85156 14.5508C8.33008 14.5508 8.65234 14.2285 8.65234 13.7012L8.65234 7.17773C8.65234 5.04883 7.08984 3.67188 4.60938 3.67188C2.76367 3.67188 1.25 4.48242 0.683594 5.74219C0.566406 5.97656 0.498047 6.2207 0.498047 6.42578C0.498047 6.85547 0.820312 7.13867 1.24023 7.13867C1.54297 7.13867 1.77734 7.02148 1.92383 6.74805C2.46094 5.61523 3.30078 5.08789 4.57031 5.08789C6.09375 5.08789 7.00195 5.9375 7.00195 7.30469L7.00195 8.1543L3.84766 8.33008C1.37695 8.4668 0 9.60938 0 11.4258C0 13.291 1.43555 14.541 3.50586 14.541ZM3.90625 13.1836C2.58789 13.1836 1.68945 12.4609 1.68945 11.3867C1.68945 10.3516 2.51953 9.6582 4.05273 9.56055L7.00195 9.375L7.00195 10.4102C7.00195 11.9629 5.625 13.1836 3.90625 13.1836Z" fill="var(--color-primary)"/>
 </g>
</svg>
