<svg version="1.1" xmlns="http://www.w3.org/2000/svg" xmlns:xlink="http://www.w3.org/1999/xlink" viewBox="0 0 16.7871 24.7949">
 <g>
  <rect height="24.7949" opacity="0" width="16.7871" x="0" y="0"/>
  <path d="M3.02734 23.6621L13.3984 23.6621C15.4199 23.6621 16.4258 22.6465 16.4258 20.5957L16.4258 5.78125C16.4258 3.73047 15.4199 2.71484 13.4961 2.71484L13.2715 2.71484C13.2715 2.75391 13.2715 2.80273 13.2715 2.8418L13.2715 3.99414C13.2715 5.22461 12.4414 6.09375 11.2305 6.09375L5.19531 6.09375C3.98438 6.09375 3.1543 5.22461 3.1543 3.99414L3.1543 2.8418C3.1543 2.80273 3.1543 2.75391 3.1543 2.71484L2.92969 2.71484C1.00586 2.71484 0 3.73047 0 5.78125L0 20.5957C0 22.6465 1.00586 23.6621 3.02734 23.6621ZM5.19531 4.96094L11.2305 4.96094C11.7969 4.96094 12.1387 4.59961 12.1387 3.99414L12.1387 2.96875C12.1387 2.36328 11.7969 2.00195 11.2305 2.00195L10.332 2.00195C10.2637 0.898438 9.3457 0 8.21289 0C7.08008 0 6.16211 0.898438 6.09375 2.00195L5.19531 2.00195C4.62891 2.00195 4.28711 2.36328 4.28711 2.96875L4.28711 3.99414C4.28711 4.59961 4.62891 4.96094 5.19531 4.96094ZM8.21289 2.92969C7.74414 2.92969 7.36328 2.53906 7.36328 2.08008C7.36328 1.60156 7.74414 1.2207 8.21289 1.2207C8.68164 1.2207 9.0625 1.60156 9.0625 2.08008C9.0625 2.53906 8.68164 2.92969 8.21289 2.92969Z" fill="var(--color-tertiary)"/>
  <path d="M8.1543 13.1738C7.65625 13.1738 7.25586 12.8027 7.19727 12.334L4.57031 10.9961C4.41406 11.1035 4.21875 11.1719 4.01367 11.1719C3.4668 11.1719 3.03711 10.7324 3.03711 10.1953C3.03711 9.64844 3.4668 9.20898 4.01367 9.20898C4.52148 9.20898 4.96094 9.59961 4.99023 10.1562L7.54883 11.4453C7.71484 11.2988 7.91992 11.2109 8.1543 11.2109C8.33008 11.2109 8.49609 11.2598 8.62305 11.3379L11.4453 9.25781C11.416 8.57422 11.9141 8.20312 12.4023 8.20312C12.959 8.20312 13.3887 8.64258 13.3887 9.19922C13.3887 9.72656 12.959 10.166 12.4023 10.166C12.2461 10.166 12.0898 10.127 11.9629 10.0586L9.14062 12.1484C9.14062 12.8418 8.63281 13.1738 8.1543 13.1738ZM3.76953 16.4258C3.41797 16.4258 3.13477 16.1426 3.13477 15.791C3.13477 15.4492 3.41797 15.1758 3.76953 15.1758L12.6562 15.1758C13.0078 15.1758 13.291 15.4492 13.291 15.791C13.291 16.1426 13.0078 16.4258 12.6562 16.4258ZM3.76953 20.1953C3.42773 20.1953 3.13477 19.9121 3.13477 19.5605C3.13477 19.2188 3.41797 18.9355 3.76953 18.9355L8.84766 18.9355C9.19922 18.9355 9.47266 19.2188 9.47266 19.5605C9.47266 19.9121 9.18945 20.1953 8.84766 20.1953Z" fill="var(--color-primary)"/>
 </g>
</svg>
