<svg version="1.1" xmlns="http://www.w3.org/2000/svg" xmlns:xlink="http://www.w3.org/1999/xlink" viewBox="0 0 22.168 20.8496">
 <g>
  <rect height="20.8496" opacity="0" width="22.168" x="0" y="0"/>
  <path d="M12.0996 0.341797L20.4395 5.15625C20.8008 5.36133 20.9668 5.61523 20.9668 5.9082C20.9668 6.30859 20.6543 6.69922 20.1172 6.69922L19.2578 6.69922L19.2578 17.9297L19.8828 17.9297C20.2832 17.9297 20.5078 18.1641 20.5078 18.5547L20.5078 19.2676L21.0156 19.2676C21.4453 19.2676 21.8066 19.6191 21.8066 20.0488C21.8066 20.4785 21.4453 20.8398 21.0156 20.8398L0.78125 20.8398C0.351562 20.8398 0 20.4785 0 20.0488C0 19.6191 0.351562 19.2676 0.78125 19.2676L1.29883 19.2676L1.29883 18.5547C1.29883 18.1641 1.5332 17.9297 1.93359 17.9297L2.54883 17.9297L2.54883 6.69922L1.68945 6.69922C1.15234 6.69922 0.839844 6.30859 0.839844 5.9082C0.839844 5.61523 0.996094 5.36133 1.36719 5.15625L9.70703 0.341797C10.0781 0.117188 10.498 0 10.8984 0C11.2988 0 11.709 0.117188 12.0996 0.341797ZM7.33398 6.96289C7.33398 7.07031 7.37305 7.2168 7.46094 7.35352L9.9707 11.3965L8.35938 11.3965C8.16406 11.3965 8.01758 11.543 8.01758 11.7383C8.01758 11.9434 8.16406 12.0898 8.35938 12.0898L10.3223 12.0898L10.3223 13.1348L8.35938 13.1348C8.16406 13.1348 8.01758 13.291 8.01758 13.4961C8.01758 13.6816 8.16406 13.8379 8.35938 13.8379L10.3223 13.8379L10.3223 15.2734C10.3223 15.625 10.5664 15.8789 10.9082 15.8789C11.25 15.8789 11.4941 15.625 11.4941 15.2734L11.4941 13.8379L13.4863 13.8379C13.6816 13.8379 13.8281 13.6816 13.8281 13.4961C13.8281 13.291 13.6816 13.1348 13.4863 13.1348L11.4941 13.1348L11.4941 12.0898L13.4863 12.0898C13.6816 12.0898 13.8281 11.9434 13.8281 11.7383C13.8281 11.543 13.6816 11.3965 13.4863 11.3965L11.8555 11.3965L14.3652 7.34375C14.4531 7.19727 14.4824 7.11914 14.4824 6.96289C14.4824 6.65039 14.2285 6.42578 13.8965 6.42578C13.6914 6.42578 13.4961 6.54297 13.3691 6.75781L10.9375 10.8984L10.8887 10.8984L8.45703 6.75781C8.33008 6.54297 8.18359 6.41602 7.91992 6.41602C7.57812 6.41602 7.33398 6.64062 7.33398 6.96289Z" fill="var(--color-primary)"/>
 </g>
</svg>
