<svg version="1.1" xmlns="http://www.w3.org/2000/svg" xmlns:xlink="http://www.w3.org/1999/xlink" viewBox="0 0 20.2832 19.9316">
 <g>
  <rect height="19.9316" opacity="0" width="20.2832" x="0" y="0"/>
  <path d="M9.96094 19.9219C15.459 19.9219 19.9219 15.459 19.9219 9.96094C19.9219 4.46289 15.459 0 9.96094 0C4.46289 0 0 4.46289 0 9.96094C0 15.459 4.46289 19.9219 9.96094 19.9219ZM9.96094 18.2617C5.37109 18.2617 1.66016 14.5508 1.66016 9.96094C1.66016 5.37109 5.37109 1.66016 9.96094 1.66016C14.5508 1.66016 18.2617 5.37109 18.2617 9.96094C18.2617 14.5508 14.5508 18.2617 9.96094 18.2617Z" fill="var(--color-secondary)"/>
  <path d="M7.87109 7.92969C8.81836 7.92969 9.58008 7.16797 9.58008 6.2207C9.58008 5.27344 8.81836 4.52148 7.87109 4.52148C6.92383 4.52148 6.17188 5.27344 6.17188 6.2207C6.17188 7.16797 6.92383 7.92969 7.87109 7.92969ZM12.0312 7.92969C12.9785 7.92969 13.7305 7.16797 13.7305 6.2207C13.7305 5.27344 12.9785 4.52148 12.0312 4.52148C11.084 4.52148 10.3223 5.27344 10.3223 6.2207C10.3223 7.16797 11.084 7.92969 12.0312 7.92969ZM5.79102 11.6602C6.73828 11.6602 7.5 10.9082 7.5 9.96094C7.5 9.01367 6.73828 8.25195 5.79102 8.25195C4.85352 8.25195 4.0918 9.01367 4.0918 9.96094C4.0918 10.9082 4.85352 11.6602 5.79102 11.6602ZM9.95117 11.6602C10.8984 11.6602 11.6602 10.9082 11.6602 9.96094C11.6602 9.01367 10.8984 8.25195 9.95117 8.25195C9.00391 8.25195 8.25195 9.01367 8.25195 9.96094C8.25195 10.9082 9.00391 11.6602 9.95117 11.6602ZM14.1113 11.6602C15.0586 11.6602 15.8105 10.9082 15.8105 9.96094C15.8105 9.01367 15.0586 8.25195 14.1113 8.25195C13.1641 8.25195 12.4023 9.01367 12.4023 9.96094C12.4023 10.9082 13.1641 11.6602 14.1113 11.6602ZM7.87109 15.4004C8.79883 15.4004 9.57031 14.6387 9.57031 13.7012C9.57031 12.7734 8.79883 12.002 7.87109 12.002C6.93359 12.002 6.17188 12.7734 6.17188 13.7012C6.17188 14.6289 6.92383 15.4004 7.87109 15.4004ZM12.0312 15.4004C12.9785 15.4004 13.7305 14.6387 13.7305 13.7012C13.7305 12.7539 12.9785 11.9922 12.0312 11.9922C11.084 11.9922 10.3223 12.7539 10.3223 13.7012C10.3223 14.6387 11.084 15.4004 12.0312 15.4004Z" fill="var(--color-primary)"/>
 </g>
</svg>
