<svg version="1.1" xmlns="http://www.w3.org/2000/svg" xmlns:xlink="http://www.w3.org/1999/xlink" viewBox="0 0 20.2832 19.9316">
 <g>
  <rect height="19.9316" opacity="0" width="20.2832" x="0" y="0"/>
  <path d="M9.96094 19.9219C15.459 19.9219 19.9219 15.459 19.9219 9.96094C19.9219 4.46289 15.459 0 9.96094 0C4.46289 0 0 4.46289 0 9.96094C0 15.459 4.46289 19.9219 9.96094 19.9219ZM9.96094 18.2617C5.37109 18.2617 1.66016 14.5508 1.66016 9.96094C1.66016 5.37109 5.37109 1.66016 9.96094 1.66016C14.5508 1.66016 18.2617 5.37109 18.2617 9.96094C18.2617 14.5508 14.5508 18.2617 9.96094 18.2617Z" fill="var(--color-secondary)"/>
  <path d="M6.5332 8.125C7.27539 8.125 7.88086 7.5293 7.88086 6.77734C7.88086 6.02539 7.27539 5.41992 6.5332 5.41992C5.78125 5.41992 5.17578 6.02539 5.17578 6.77734C5.17578 7.5293 5.78125 8.125 6.5332 8.125ZM9.95117 8.125C10.7031 8.125 11.2988 7.5293 11.2988 6.77734C11.2988 6.02539 10.7031 5.42969 9.95117 5.42969C9.19922 5.42969 8.60352 6.02539 8.60352 6.77734C8.60352 7.5293 9.19922 8.125 9.95117 8.125ZM13.3789 8.13477C14.1309 8.13477 14.7266 7.5293 14.7266 6.77734C14.7266 6.02539 14.1309 5.42969 13.3789 5.42969C12.627 5.42969 12.0215 6.02539 12.0215 6.77734C12.0215 7.5293 12.627 8.13477 13.3789 8.13477ZM6.5332 11.3086C7.27539 11.3086 7.88086 10.7031 7.88086 9.96094C7.88086 9.20898 7.27539 8.60352 6.5332 8.60352C5.78125 8.60352 5.17578 9.20898 5.17578 9.96094C5.17578 10.7031 5.78125 11.3086 6.5332 11.3086ZM9.95117 11.3086C10.7031 11.3086 11.2988 10.7129 11.2988 9.96094C11.2988 9.20898 10.7031 8.60352 9.95117 8.60352C9.19922 8.60352 8.60352 9.20898 8.60352 9.96094C8.60352 10.7129 9.19922 11.3086 9.95117 11.3086ZM13.3789 11.3184C14.1309 11.3184 14.7266 10.7129 14.7266 9.96094C14.7266 9.20898 14.1309 8.61328 13.3789 8.61328C12.627 8.61328 12.0215 9.20898 12.0215 9.96094C12.0215 10.7129 12.627 11.3184 13.3789 11.3184ZM6.5332 14.4922C7.27539 14.4922 7.88086 13.8867 7.88086 13.1348C7.88086 12.3828 7.27539 11.7871 6.5332 11.7871C5.78125 11.7871 5.17578 12.3828 5.17578 13.1348C5.17578 13.8867 5.78125 14.4922 6.5332 14.4922ZM9.95117 14.4922C10.7031 14.4922 11.2988 13.8867 11.2988 13.1348C11.2988 12.3926 10.7031 11.7871 9.95117 11.7871C9.19922 11.7871 8.60352 12.3926 8.60352 13.1348C8.60352 13.8867 9.19922 14.4922 9.95117 14.4922ZM13.3789 14.4922C14.1309 14.4922 14.7266 13.8965 14.7266 13.1445C14.7266 12.3926 14.1309 11.7871 13.3789 11.7871C12.627 11.7871 12.0215 12.3926 12.0215 13.1445C12.0215 13.8965 12.627 14.4922 13.3789 14.4922Z" fill="var(--color-primary)"/>
 </g>
</svg>
