<svg version="1.1" xmlns="http://www.w3.org/2000/svg" xmlns:xlink="http://www.w3.org/1999/xlink" viewBox="0 0 20.2832 19.9316">
 <g>
  <rect height="19.9316" opacity="0" width="20.2832" x="0" y="0"/>
  <path d="M9.96094 19.9219C15.459 19.9219 19.9219 15.459 19.9219 9.96094C19.9219 4.46289 15.459 0 9.96094 0C4.46289 0 0 4.46289 0 9.96094C0 15.459 4.46289 19.9219 9.96094 19.9219ZM9.96094 18.2617C5.37109 18.2617 1.66016 14.5508 1.66016 9.96094C1.66016 5.37109 5.37109 1.66016 9.96094 1.66016C14.5508 1.66016 18.2617 5.37109 18.2617 9.96094C18.2617 14.5508 14.5508 18.2617 9.96094 18.2617Z" fill="var(--color-secondary)"/>
  <path d="M5.75195 12.3145L10.5957 12.3145C11.9141 12.3145 12.9199 11.3086 12.9199 10.0195C12.9199 8.75977 11.9043 7.80273 10.5566 7.77344C10.0293 6.78711 9.0918 6.18164 7.96875 6.18164C6.48438 6.18164 5.23438 7.33398 5.07812 8.80859C4.33594 9.0625 3.81836 9.70703 3.81836 10.5371C3.81836 11.5625 4.59961 12.3145 5.75195 12.3145ZM16.1328 7.5293C16.1328 7.35352 16.0547 7.23633 15.9082 7.23633C15.6934 7.23633 15.332 7.50977 14.707 7.50977C13.5645 7.50977 12.8418 6.8457 12.8418 5.79102C12.8418 5.18555 13.1836 4.74609 13.1836 4.49219C13.1836 4.35547 13.0664 4.25781 12.8906 4.26758C11.9629 4.30664 10.8105 5.40039 10.6543 6.74805C10.7617 6.86523 10.8496 6.99219 10.9473 7.11914C12.3926 7.29492 13.457 8.36914 13.5938 9.75586C15.166 9.58984 16.1328 8.34961 16.1328 7.5293ZM7.00195 14.4824C6.94336 14.5996 7.00195 14.6973 7.12891 14.6973L7.96875 14.6973L7.31445 16.2793C7.26562 16.4062 7.41211 16.4844 7.51953 16.377L9.67773 14.1797C9.77539 14.0723 9.72656 13.9258 9.58008 13.9258L8.59375 13.9258L9.0625 13.0371C9.12109 12.9297 9.08203 12.832 8.95508 12.832L7.90039 12.832C7.76367 12.832 7.69531 12.8809 7.64648 12.9883Z" fill="var(--color-primary)"/>
 </g>
</svg>
