<svg version="1.1" xmlns="http://www.w3.org/2000/svg" xmlns:xlink="http://www.w3.org/1999/xlink" viewBox="0 0 31.5583 24.1944">
 <g>
  <rect height="24.1944" opacity="0" width="31.5583" x="0" y="0"/>
  <path d="M3.14241 23.6744C3.36702 24.065 3.8553 24.1919 4.20686 23.9869L29.5584 9.35795C29.91 9.14311 30.0467 8.66459 29.8416 8.30326C29.617 7.91264 29.119 7.78569 28.7674 7.99076L3.42561 22.6197C3.06428 22.8345 2.92756 23.313 3.14241 23.6744ZM8.43538 18.1763C9.58772 17.5122 9.96858 16.0865 9.30452 14.9341C8.64045 13.7818 7.21467 13.4009 6.06233 14.065C4.90022 14.729 4.51936 16.1548 5.18342 17.3072C5.84749 18.4595 7.27327 18.8404 8.43538 18.1763ZM22.5174 10.0415C23.6698 9.37748 24.0506 7.9517 23.3865 6.79936C22.7225 5.64701 21.2967 5.26615 20.1444 5.93998C18.9823 6.60404 18.6014 8.02983 19.2655 9.1724C19.9295 10.3345 21.3553 10.7154 22.5174 10.0415ZM16.9315 1.80912C16.492 1.96537 16.1014 2.15092 15.7401 2.39506L8.24983 7.40483L10.0174 3.78178C10.3983 3.00053 9.25569 2.43412 8.84553 3.2642L6.15022 8.73295L1.99006 12.3072C0.00764214 14.0064-0.519702 15.6763 0.52522 17.4927L1.05256 18.4009C1.64827 19.4263 2.39045 19.6705 3.49397 19.1919L4.95881 18.5669C4.77327 18.3716 4.52913 18.0103 4.38264 17.7662C3.46467 16.1841 4.00178 14.1919 5.59358 13.2642C7.19514 12.3462 9.18733 12.8833 10.0955 14.4654C10.2127 14.6705 10.3299 14.9048 10.3787 15.0611L18.8553 10.1587C18.7283 10.0318 18.5819 9.83647 18.4647 9.64115C17.5565 8.04936 18.0838 6.05717 19.6756 5.1392C21.2772 4.21147 23.3475 4.88529 24.2655 6.47709C24.3143 6.56498 24.3338 6.60404 24.3729 6.69194L25.0565 6.19389C26.2967 5.29545 26.5213 4.19194 25.7303 2.82475L25.0467 1.63334C24.1092 0.0122478 23.1131-0.319783 21.3846 0.27592Z" fill="var(--color-secondary)"/>
  <path d="M19.119 24.1138C19.4608 24.1138 19.6854 23.899 19.6854 23.5474L19.6854 21.438L21.1893 21.438L21.1893 23.5474C21.1893 23.899 21.4041 24.1138 21.7557 24.1138C22.0975 24.1138 22.3221 23.899 22.3221 23.5474L22.3221 18.479C22.3221 18.1372 22.0975 17.9224 21.7557 17.9224C21.4041 17.9224 21.1893 18.1372 21.1893 18.479L21.1893 20.5005L19.6854 20.5005L19.6854 18.479C19.6854 18.1372 19.4608 17.9224 19.119 17.9224C18.7869 17.9224 18.5721 18.1372 18.5721 18.479L18.5721 23.5474C18.5721 23.899 18.7869 24.1138 19.119 24.1138ZM23.699 24.1138L24.783 24.1138C26.3748 24.1138 26.9119 22.5806 26.9119 20.9986C26.9119 19.2701 26.2967 17.9224 24.783 17.9224L23.699 17.9224C23.367 17.9224 23.1326 18.108 23.1326 18.5083L23.1326 23.5279C23.1326 23.9283 23.367 24.1138 23.699 24.1138ZM24.2362 23.1763L24.2362 18.8599L24.6463 18.8599C25.5936 18.8599 25.7694 20.0513 25.7694 20.9986C25.7694 21.9654 25.6229 23.1763 24.6463 23.1763ZM29.4803 24.1626C30.1053 24.1626 30.5545 23.8697 30.8475 23.4107C31.0428 23.1177 31.199 22.6685 31.199 22.3365C31.199 22.024 30.9842 21.8287 30.6717 21.8287C30.4276 21.8287 30.2323 22.0044 30.1737 22.2779C30.0662 22.8443 29.8905 23.1861 29.451 23.1861C28.9139 23.1861 28.6014 22.4244 28.6014 21.0181C28.6014 19.5923 28.9627 18.8306 29.451 18.8306C29.8514 18.8306 30.0858 19.231 30.1541 19.7388C30.203 20.0415 30.408 20.2173 30.701 20.2173C30.994 20.2173 31.1698 20.0122 31.1698 19.6997C31.1698 19.3287 30.994 18.7915 30.6619 18.4205C30.3592 18.0689 29.9198 17.8638 29.4412 17.8638C28.5916 17.8638 28.074 18.4107 27.8006 19.0455C27.5272 19.6509 27.4588 20.3345 27.4588 21.0181C27.4588 21.7994 27.5369 22.5611 27.8885 23.2056C28.2401 23.8404 28.7674 24.1626 29.4803 24.1626Z" fill="var(--color-primary)"/>
 </g>
</svg>
