<svg version="1.1" xmlns="http://www.w3.org/2000/svg" xmlns:xlink="http://www.w3.org/1999/xlink" viewBox="0 0 20.4395 23.7402">
 <g>
  <rect height="23.7402" opacity="0" width="20.4395" x="0" y="0"/>
  <path d="M0.800781 23.6621L19.2578 23.6621C19.7168 23.6621 20.0781 23.3008 20.0781 22.8516C20.0781 22.3926 19.7168 22.041 19.2578 22.041L0.800781 22.041C0.351562 22.041 0 22.3926 0 22.8516C0 23.3008 0.351562 23.6621 0.800781 23.6621Z" fill="var(--color-secondary)"/>
  <path d="M7.20703 12.1777L12.8516 12.1777C14.6777 12.1777 15.7617 11.0645 15.7617 9.23828L15.7617 2.93945C15.7617 1.21094 14.6973 0 12.8516 0L7.20703 0C5.40039 0 4.29688 1.12305 4.29688 2.93945L4.29688 9.23828C4.29688 11.0645 5.40039 12.1777 7.20703 12.1777ZM7.37305 10.6055C6.25 10.6055 5.79102 10.0977 5.79102 9.05273L5.79102 3.14453C5.79102 2.08008 6.25 1.57227 7.37305 1.57227L12.6855 1.57227C13.8086 1.57227 14.2773 2.08008 14.2773 3.14453L14.2773 9.05273C14.2773 10.0977 13.8086 10.6055 12.6855 10.6055ZM6.41602 16.7383L13.6426 16.7383C14.4141 16.7383 14.9609 16.2109 14.9609 15.4688C14.9609 15.1562 14.7754 14.7559 14.5117 14.4531L12.373 11.9238L10.4688 11.9238L12.9492 14.9121C13.0469 15.0391 12.9688 15.166 12.832 15.166L7.23633 15.166C7.08984 15.166 7.01172 15.0391 7.11914 14.9121L9.59961 11.9238L7.68555 11.9238L5.55664 14.4531C5.2832 14.7656 5.10742 15.166 5.10742 15.4688C5.10742 16.2109 5.64453 16.7383 6.41602 16.7383Z" fill="var(--color-primary)"/>
 </g>
</svg>
