<svg version="1.1" xmlns="http://www.w3.org/2000/svg" xmlns:xlink="http://www.w3.org/1999/xlink" viewBox="0 0 20.2832 19.9316">
 <g>
  <rect height="19.9316" opacity="0" width="20.2832" x="0" y="0"/>
  <path d="M9.96094 19.9219C15.459 19.9219 19.9219 15.459 19.9219 9.96094C19.9219 4.46289 15.459 0 9.96094 0C4.46289 0 0 4.46289 0 9.96094C0 15.459 4.46289 19.9219 9.96094 19.9219ZM9.96094 18.2617C5.37109 18.2617 1.66016 14.5508 1.66016 9.96094C1.66016 5.37109 5.37109 1.66016 9.96094 1.66016C14.5508 1.66016 18.2617 5.37109 18.2617 9.96094C18.2617 14.5508 14.5508 18.2617 9.96094 18.2617Z" fill="var(--color-primary)"/>
  <path d="M13.1641 4.58984L6.67969 4.58984C5.97656 4.58984 5.50781 5.07812 5.50781 5.81055L5.50781 7.1875L14.3359 7.1875L14.3359 5.81055C14.3359 5.07812 13.8672 4.58984 13.1641 4.58984ZM6.99219 6.23047C6.93359 6.02539 7.04102 5.82031 7.23633 5.75195C7.43164 5.69336 7.63672 5.80078 7.69531 6.00586C7.75391 6.19141 7.64648 6.40625 7.45117 6.46484C7.25586 6.5332 7.05078 6.41602 6.99219 6.23047ZM8.69141 6.58203C8.42773 6.58203 8.23242 6.36719 8.23242 6.11328C8.23242 5.84961 8.42773 5.64453 8.69141 5.64453C8.94531 5.64453 9.15039 5.84961 9.15039 6.11328C9.15039 6.36719 8.94531 6.58203 8.69141 6.58203ZM5.50781 13.2715L14.3359 13.2715L14.3359 7.88086L5.50781 7.88086ZM8.69141 9.39453C8.52539 9.39453 8.41797 9.27734 8.41797 9.11133C8.41797 8.94531 8.52539 8.82812 8.69141 8.82812L11.1719 8.82812C11.3379 8.82812 11.4453 8.94531 11.4453 9.11133C11.4453 9.27734 11.3379 9.39453 11.1719 9.39453ZM14.3359 13.9648L5.50781 13.9648L5.50781 14.0723C5.50781 14.8047 5.97656 15.2832 6.67969 15.2832L13.1641 15.2832C13.8672 15.2832 14.3359 14.8047 14.3359 14.0723Z" fill="var(--color-primary)"/>
 </g>
</svg>
