<svg version="1.1" xmlns="http://www.w3.org/2000/svg" xmlns:xlink="http://www.w3.org/1999/xlink" viewBox="0 0 23.3887 17.9785">
 <g>
  <rect height="17.9785" opacity="0" width="23.3887" x="0" y="0"/>
  <path d="M3.06641 17.9785L19.9609 17.9785C22.0117 17.9785 23.0273 16.9727 23.0273 14.9609L23.0273 3.02734C23.0273 1.01562 22.0117 0 19.9609 0L3.06641 0C1.02539 0 0 1.01562 0 3.02734L0 14.9609C0 16.9727 1.02539 17.9785 3.06641 17.9785ZM3.08594 16.4062C2.10938 16.4062 1.57227 15.8887 1.57227 14.873L1.57227 3.11523C1.57227 2.09961 2.10938 1.57227 3.08594 1.57227L19.9414 1.57227C20.9082 1.57227 21.4551 2.09961 21.4551 3.11523L21.4551 14.873C21.4551 15.8887 20.9082 16.4062 19.9414 16.4062Z" fill="var(--color-primary)"/>
  <path d="M4.19922 14.0137C4.19922 14.5215 4.55078 14.8535 5.06836 14.8535L17.9883 14.8535C18.5059 14.8535 18.8574 14.5215 18.8574 14.0137L18.8574 12.5488C18.8574 12.0312 18.5059 11.6992 17.9883 11.6992L5.06836 11.6992C4.55078 11.6992 4.19922 12.0312 4.19922 12.5488Z" fill="var(--color-primary)"/>
  <path d="M11.5234 3.18359C11.1035 3.18359 10.7422 3.53516 10.7422 3.94531L10.7422 6.77734L10.8105 8.41797L9.9707 7.53906L8.70117 6.26953C8.54492 6.12305 8.34961 6.03516 8.1543 6.03516C7.74414 6.03516 7.45117 6.31836 7.45117 6.72852C7.45117 6.95312 7.53906 7.11914 7.70508 7.26562L10.957 10.3027C11.1621 10.4883 11.3184 10.5566 11.5234 10.5566C11.7188 10.5566 11.8848 10.4883 12.0898 10.3027L15.332 7.26562C15.5078 7.11914 15.5957 6.95312 15.5957 6.72852C15.5957 6.31836 15.293 6.03516 14.873 6.03516C14.6777 6.03516 14.4922 6.12305 14.3457 6.26953L13.0762 7.53906L12.2363 8.41797L12.2949 6.77734L12.2949 3.94531C12.2949 3.53516 11.9434 3.18359 11.5234 3.18359Z" fill="var(--color-primary)"/>
 </g>
</svg>
