<svg version="1.1" xmlns="http://www.w3.org/2000/svg" xmlns:xlink="http://www.w3.org/1999/xlink" viewBox="0 0 24.0651 19.9316">
 <g>
  <rect height="19.9316" opacity="0" width="24.0651" x="0" y="0"/>
  <path d="M11.8568 19.9219C17.3548 19.9219 21.8177 15.459 21.8177 9.96094C21.8177 4.46289 17.3548 0 11.8568 0C6.35874 0 1.89585 4.46289 1.89585 9.96094L3.55601 9.96094C3.55601 5.37109 7.26694 1.66016 11.8568 1.66016C16.4466 1.66016 20.1576 5.37109 20.1576 9.96094C20.1576 14.5508 16.4466 18.2617 11.8568 18.2617C9.08335 18.2617 6.61265 16.8945 5.13804 14.8242C4.8353 14.4238 4.37632 14.2969 3.96616 14.541C3.57554 14.7852 3.45835 15.332 3.79038 15.7617C5.59702 18.291 8.55601 19.9219 11.8568 19.9219ZM0.694677 8.07617C-0.00844799 8.07617-0.184229 8.55469 0.19663 9.10156L2.38413 12.207C2.7064 12.6562 3.17515 12.6465 3.48765 12.207L5.66538 9.0918C6.04624 8.55469 5.86069 8.07617 5.1771 8.07617Z" fill="var(--color-secondary)"/>
  <path d="M11.1439 13.2031C11.9935 13.2031 12.7748 12.8613 13.1654 12.0996L13.2044 12.0996L13.2044 12.7734C13.2044 13.0762 13.4291 13.3105 13.7318 13.3105C14.0345 13.3105 14.2591 13.0762 14.2591 12.7734L14.2591 6.5332L14.9818 6.5332C15.1576 6.5332 15.3041 6.39648 15.3041 6.21094C15.3041 6.03516 15.1576 5.89844 14.9818 5.89844L14.2591 5.89844L14.2591 5.50781C14.2591 5.16602 14.0443 4.95117 13.7123 4.95117C13.3802 4.95117 13.1654 5.16602 13.1654 5.50781L13.1654 5.89844L11.3001 5.89844C11.1244 5.89844 10.9779 6.03516 10.9779 6.21094C10.9779 6.40625 11.1244 6.5332 11.3001 6.5332L13.1654 6.5332L13.1654 8.52539L13.1263 8.52539C12.7748 7.77344 11.9935 7.43164 11.1439 7.43164C9.69858 7.43164 8.51694 8.54492 8.51694 10.3125C8.51694 11.9141 9.5521 13.2031 11.1439 13.2031ZM11.4271 12.2656C10.2943 12.2656 9.63999 11.4062 9.63999 10.3125C9.63999 9.15039 10.3822 8.35938 11.4271 8.35938C12.5306 8.35938 13.1751 9.26758 13.1751 10.3125C13.1751 11.4355 12.4427 12.2656 11.4271 12.2656ZM9.01499 14.248C9.01499 14.4336 9.17124 14.5801 9.36655 14.5801L14.2005 14.5801C14.3861 14.5801 14.5423 14.4336 14.5423 14.248C14.5423 14.0527 14.3861 13.916 14.2005 13.916L9.36655 13.916C9.17124 13.916 9.01499 14.0527 9.01499 14.248Z" fill="var(--color-primary)"/>
 </g>
</svg>
