<svg version="1.1" xmlns="http://www.w3.org/2000/svg" xmlns:xlink="http://www.w3.org/1999/xlink" viewBox="0 0 16.7871 20.9473">
 <g>
  <rect height="20.9473" opacity="0" width="16.7871" x="0" y="0"/>
  <path d="M0 17.8809C0 19.9219 1.00586 20.9375 3.02734 20.9375L13.3984 20.9375C15.4199 20.9375 16.4258 19.9219 16.4258 17.8809L16.4258 3.06641C16.4258 1.03516 15.4199 0 13.3984 0L3.02734 0C1.00586 0 0 1.03516 0 3.06641ZM1.57227 17.8516L1.57227 3.0957C1.57227 2.11914 2.08984 1.57227 3.10547 1.57227L13.3203 1.57227C14.3359 1.57227 14.8535 2.11914 14.8535 3.0957L14.8535 17.8516C14.8535 18.8281 14.3359 19.3652 13.3203 19.3652L3.10547 19.3652C2.08984 19.3652 1.57227 18.8281 1.57227 17.8516Z" fill="var(--color-primary)"/>
  <path d="M4.49219 13.5938L11.9531 13.5938C12.3047 13.5938 12.5586 13.3203 12.5586 12.9785C12.5586 12.6465 12.3047 12.3926 11.9531 12.3926L4.49219 12.3926C4.14062 12.3926 3.87695 12.6465 3.87695 12.9785C3.87695 13.3203 4.14062 13.5938 4.49219 13.5938ZM4.49219 16.5234L8.01758 16.5234C8.36914 16.5234 8.62305 16.2695 8.62305 15.9375C8.62305 15.5957 8.36914 15.3223 8.01758 15.3223L4.49219 15.3223C4.14062 15.3223 3.87695 15.5957 3.87695 15.9375C3.87695 16.2695 4.14062 16.5234 4.49219 16.5234Z" fill="var(--color-primary)"/>
  <path d="M4.41406 7.93945L6.06445 7.93945C6.35742 7.93945 6.54297 7.77344 6.61133 7.51953L6.99219 5.98633L7.83203 10.0293C7.93945 10.5664 8.65234 10.5664 8.81836 10.0391L9.75586 6.80664L9.93164 7.49023C9.99023 7.77344 10.1855 7.93945 10.4785 7.93945L12.0117 7.93945C12.2949 7.93945 12.5195 7.70508 12.5195 7.43164C12.5195 7.14844 12.3047 6.93359 12.0117 6.93359L10.7812 6.93359L10.2734 4.9707C10.1465 4.46289 9.46289 4.47266 9.29688 4.99023L8.37891 7.96875L7.49023 3.65234C7.37305 3.11523 6.66016 3.10547 6.5332 3.64258L5.73242 6.93359L4.41406 6.93359C4.13086 6.93359 3.90625 7.1582 3.90625 7.43164C3.90625 7.70508 4.13086 7.93945 4.41406 7.93945Z" fill="var(--color-primary)"/>
 </g>
</svg>
