<svg version="1.1" xmlns="http://www.w3.org/2000/svg" xmlns:xlink="http://www.w3.org/1999/xlink" viewBox="0 0 22.168 20.8496">
 <g>
  <rect height="20.8496" opacity="0" width="22.168" x="0" y="0"/>
  <path d="M1.29883 19.707L20.5078 19.707L20.5078 18.5547C20.5078 18.1641 20.2832 17.9297 19.8828 17.9297L19.2578 17.9297L19.2578 6.69922L20.1172 6.69922C20.6543 6.69922 20.9668 6.30859 20.9668 5.9082C20.9668 5.61523 20.8008 5.36133 20.4395 5.15625L12.0996 0.341797C11.709 0.117188 11.2988 0 10.8984 0C10.498 0 10.0781 0.117188 9.70703 0.341797L1.36719 5.15625C0.996094 5.36133 0.839844 5.61523 0.839844 5.9082C0.839844 6.30859 1.15234 6.69922 1.68945 6.69922L2.54883 6.69922L2.54883 17.9297L1.93359 17.9297C1.5332 17.9297 1.29883 18.1641 1.29883 18.5547ZM0.78125 20.8398L21.0156 20.8398C21.4453 20.8398 21.8066 20.4785 21.8066 20.0488C21.8066 19.6191 21.4453 19.2676 21.0156 19.2676L0.78125 19.2676C0.351562 19.2676 0 19.6191 0 20.0488C0 20.4785 0.351562 20.8398 0.78125 20.8398Z" fill="var(--color-tertiary)"/>
  <path d="M12.168 15.5762C9.84375 15.5762 8.125 14.4336 7.65625 12.3242L6.49414 12.3242C6.30859 12.3242 6.15234 12.168 6.15234 11.9922C6.15234 11.8066 6.30859 11.6602 6.49414 11.6602L7.54883 11.6602C7.5293 11.4844 7.51953 11.2891 7.51953 11.0938C7.51953 10.8984 7.5293 10.7031 7.54883 10.5176L6.49414 10.5176C6.30859 10.5176 6.15234 10.3711 6.15234 10.1855C6.15234 10 6.30859 9.85352 6.49414 9.85352L7.65625 9.85352C8.1543 7.64648 10.0195 6.60156 12.168 6.60156C12.5195 6.60156 12.832 6.63086 13.0762 6.67969C13.4473 6.75781 13.623 6.94336 13.623 7.2168C13.623 7.53906 13.4082 7.70508 13.0859 7.70508C12.8711 7.70508 12.5586 7.66602 12.1973 7.66602C10.459 7.66602 9.30664 8.45703 8.90625 9.85352L12.0703 9.85352C12.2461 9.85352 12.4023 10 12.4023 10.1855C12.4023 10.3711 12.2461 10.5176 12.0703 10.5176L8.76953 10.5176C8.74023 10.7031 8.74023 10.9082 8.74023 11.1035C8.74023 11.2988 8.74023 11.4844 8.76953 11.6602L12.0703 11.6602C12.2461 11.6602 12.4023 11.8066 12.4023 11.9922C12.4023 12.168 12.2461 12.3242 12.0703 12.3242L8.89648 12.3242C9.31641 13.7598 10.5078 14.5508 12.2266 14.5508C12.6367 14.5508 12.7539 14.502 13.0859 14.502C13.4082 14.502 13.623 14.6484 13.623 14.9805C13.623 15.2832 13.3887 15.4297 13.0762 15.5078C12.793 15.5664 12.4512 15.5762 12.168 15.5762Z" fill="var(--color-primary)"/>
 </g>
</svg>
