<svg version="1.1" xmlns="http://www.w3.org/2000/svg" xmlns:xlink="http://www.w3.org/1999/xlink" viewBox="0 0 25.6055 21.7871">
 <g>
  <rect height="21.7871" opacity="0" width="25.6055" x="0" y="0"/>
  <path d="M17.1582 21.0449L17.1582 2.48047C17.1582 0.878906 16.2793 0 14.6875 0L6.82617 0C5.21484 0 4.36523 0.878906 4.36523 2.48047L4.36523 21.0449ZM7.13867 8.84766C6.42578 8.84766 5.99609 8.45703 5.99609 7.80273L5.99609 2.70508C5.99609 2.04102 6.42578 1.64062 7.13867 1.64062L14.375 1.64062C15.0879 1.64062 15.5176 2.04102 15.5176 2.70508L15.5176 7.80273C15.5176 8.45703 15.0879 8.84766 14.375 8.84766ZM2.8125 20.9766C2.8125 21.416 3.16406 21.7773 3.58398 21.7773L17.9199 21.7773C18.3398 21.7773 18.7012 21.416 18.7012 20.9766C18.7012 20.5566 18.3398 20.2051 17.9199 20.2051L3.58398 20.2051C3.17383 20.2051 2.8125 20.5469 2.8125 20.9766ZM22.3926 9.87305L22.3926 16.1035C22.3926 17.4023 21.8262 18.1445 20.8301 18.1445C19.9316 18.1445 19.3652 17.5488 19.3652 16.5918C19.3652 15.1562 19.5996 13.252 19.5996 11.5039C19.5996 9.79492 18.7598 8.49609 16.6895 7.8125L16.2207 8.88672C17.7832 9.36523 18.418 10.332 18.418 11.5039C18.418 13.0664 18.1836 14.9707 18.1836 16.5918C18.1836 18.2715 19.209 19.3359 20.8301 19.3359C22.5781 19.3359 23.5742 18.1543 23.5742 16.1035L23.5742 9.87305C23.5742 8.99414 24.2383 8.75977 24.6484 8.42773C25.2734 7.96875 25.6055 7.31445 25.6055 6.55273L25.6055 5.23438C25.6055 5.0293 25.4785 4.89258 25.3027 4.89258L24.6777 4.89258L24.6777 3.125C24.6777 2.86133 24.4531 2.63672 24.1797 2.63672C23.916 2.63672 23.6914 2.86133 23.6914 3.125L23.6914 4.89258L22.3828 4.89258L22.3828 3.125C22.3828 2.86133 22.168 2.63672 21.9043 2.63672C21.6211 2.63672 21.416 2.86133 21.416 3.125L21.416 4.89258L20.6738 4.89258C20.4785 4.89258 20.3613 5.0293 20.3613 5.23438L20.3613 6.55273C20.3613 7.31445 20.7031 7.96875 21.3086 8.42773C21.7383 8.75977 22.3926 8.99414 22.3926 9.87305Z" fill="var(--color-primary)"/>
 </g>
</svg>
