<svg version="1.1" xmlns="http://www.w3.org/2000/svg" xmlns:xlink="http://www.w3.org/1999/xlink" viewBox="0 0 20.2832 19.9316">
 <g>
  <rect height="19.9316" opacity="0" width="20.2832" x="0" y="0"/>
  <path d="M9.96094 19.9219C15.459 19.9219 19.9219 15.4492 19.9219 9.96094C19.9219 4.46289 15.459 0 9.96094 0C4.47266 0 0 4.46289 0 9.96094C0 15.4492 4.47266 19.9219 9.96094 19.9219Z" fill="var(--color-tertiary)"/>
  <path d="M6.37695 9.14062C5.12695 9.14062 4.11133 8.13477 4.11133 6.88477C4.11133 5.63477 5.12695 4.61914 6.37695 4.61914C7.63672 4.61914 8.64258 5.63477 8.64258 6.88477C8.64258 8.13477 7.63672 9.14062 6.37695 9.14062ZM13.5254 9.14062C12.2754 9.14062 11.2598 8.13477 11.2598 6.88477C11.2598 5.63477 12.2754 4.61914 13.5254 4.61914C14.7754 4.61914 15.791 5.63477 15.791 6.88477C15.791 8.13477 14.7754 9.14062 13.5254 9.14062ZM9.95117 17.2656C8.70117 17.2656 7.68555 16.25 7.68555 15C7.68555 13.7598 8.70117 12.7344 9.95117 12.7344C11.2012 12.7344 12.2168 13.7598 12.2168 15C12.2168 16.25 11.2012 17.2656 9.95117 17.2656ZM4.86328 14.082C3.98438 14.082 3.25195 13.3398 3.25195 12.4609C3.25195 11.5625 3.98438 10.8398 4.86328 10.8398C5.76172 10.8398 6.48438 11.5625 6.48438 12.4609C6.48438 13.3398 5.76172 14.082 4.86328 14.082ZM15.0391 14.082C14.1406 14.082 13.418 13.3398 13.418 12.4609C13.418 11.5625 14.1406 10.8398 15.0391 10.8398C15.9277 10.8398 16.6602 11.5625 16.6602 12.4609C16.6602 13.3398 15.9277 14.082 15.0391 14.082Z" fill="var(--color-primary)"/>
 </g>
</svg>
