<svg version="1.1" xmlns="http://www.w3.org/2000/svg" xmlns:xlink="http://www.w3.org/1999/xlink" viewBox="0 0 15.9473 22.7441">
 <g>
  <rect height="22.7441" opacity="0" width="15.9473" x="0" y="0"/>
  <path d="M3.4082 22.7441L12.1875 22.7441C12.5488 22.7441 12.7832 22.4805 12.7832 22.0996C12.7832 21.3672 12.1875 20.8496 11.2598 20.8496L8.58398 20.8496L8.58398 15.5469C12.5195 15.1465 15.5859 11.8359 15.5859 7.79297C15.5859 3.49609 12.0996 0 7.79297 0C3.48633 0 0 3.49609 0 7.79297C0 11.8359 3.07617 15.1562 7.01172 15.5469L7.01172 20.8496L4.32617 20.8496C3.39844 20.8496 2.80273 21.3672 2.80273 22.0996C2.80273 22.4805 3.03711 22.7441 3.4082 22.7441ZM7.80273 14.1602C4.28711 14.1602 1.44531 11.3086 1.44531 7.79297C1.44531 4.28711 4.28711 1.43555 7.80273 1.43555C11.3184 1.43555 14.1602 4.28711 14.1602 7.79297C14.1602 11.3086 11.3184 14.1602 7.80273 14.1602Z" fill="var(--color-secondary)"/>
  <path d="M5.88867 7.8125L7.43164 5.87891L7.43164 3.99414C7.43164 3.13477 6.99219 2.65625 6.15234 2.65625C4.58984 2.65625 3.02734 4.0625 3.02734 5.38086C3.02734 6.5625 4.05273 7.14844 5.88867 7.8125ZM7.7832 5.87891L9.7168 7.42188L11.6113 7.42188C12.4609 7.42188 12.9395 6.98242 12.9395 6.14258C12.9395 4.58008 11.543 3.02734 10.2148 3.02734C9.0332 3.02734 8.45703 4.04297 7.7832 5.87891ZM9.7168 7.77344L8.17383 9.70703L8.17383 11.6016C8.17383 12.4512 8.61328 12.9297 9.46289 12.9297C11.0156 12.9297 12.5781 11.5332 12.5781 10.2148C12.5781 9.0332 11.5527 8.44727 9.7168 7.77344ZM7.82227 9.70703L5.88867 8.17383L4.00391 8.17383C3.14453 8.17383 2.66602 8.60352 2.66602 9.45312C2.66602 11.0059 4.0625 12.5684 5.39062 12.5684C6.57227 12.5684 7.1582 11.543 7.82227 9.70703ZM9.99023 7.79297C9.99023 6.5918 9.00391 5.61523 7.80273 5.61523C6.60156 5.61523 5.61523 6.5918 5.61523 7.79297C5.61523 8.99414 6.60156 9.98047 7.80273 9.98047C9.00391 9.98047 9.99023 8.99414 9.99023 7.79297ZM7.80273 8.87695C7.20703 8.87695 6.71875 8.38867 6.71875 7.79297C6.71875 7.19727 7.20703 6.70898 7.80273 6.70898C8.39844 6.70898 8.88672 7.19727 8.88672 7.79297C8.88672 8.38867 8.39844 8.87695 7.80273 8.87695Z" fill="var(--color-primary)"/>
 </g>
</svg>
