<svg version="1.1" xmlns="http://www.w3.org/2000/svg" xmlns:xlink="http://www.w3.org/1999/xlink" viewBox="0 0 26.3495 23.916">
 <g>
  <rect height="23.916" opacity="0" width="26.3495" x="0" y="0"/>
  <path d="M12.9892 17.9492C11.0361 17.9492 9.7275 17.2656 9.7275 16.2598C9.7275 15.2539 11.0263 14.5801 12.9892 14.5801C14.9619 14.5801 16.2607 15.2539 16.2607 16.2598C16.2607 17.2656 14.9521 17.9492 12.9892 17.9492ZM12.9892 5.07812C15.3916 5.07812 17.5791 3.44727 17.5791 1.57227C17.5791 0.976562 17.2568 0.644531 16.5341 0.419922C15.6064 0.146484 14.3759 0 12.9892 0C11.6123 0 10.3818 0.146484 9.45406 0.419922C8.7314 0.644531 8.40914 0.966797 8.40914 1.57227C8.40914 3.44727 10.5869 5.07812 12.9892 5.07812ZM12.208 11.1035L13.7802 11.1035L13.7802 4.49219L12.208 4.49219ZM10.3427 11.0156L12.9892 12.373L15.6455 11.0156C14.9326 10.7031 14.0341 10.5273 12.9892 10.5273C11.9541 10.5273 11.0556 10.7031 10.3427 11.0156ZM12.9892 19.1309C15.665 19.1309 17.4423 17.9785 17.4423 16.2598C17.4423 14.5508 15.665 13.3984 12.9892 13.3984C10.3134 13.3984 8.54586 14.5508 8.54586 16.2598C8.54586 17.9785 10.3134 19.1309 12.9892 19.1309ZM3.63375 8.55469C0.479449 6.93359-1.43461 11.0742 1.33882 12.4219L7.73531 15.5371C8.08687 14.0039 9.55171 12.959 11.5927 12.627ZM22.3544 8.55469L14.3955 12.627C16.4365 12.959 17.9013 14.0039 18.2431 15.5371L24.6494 12.4219C27.4228 11.0742 25.5087 6.93359 22.3544 8.55469ZM3.165 18.2227C0.108355 19.6582 2.28609 23.6816 5.06929 22.2656L10.333 19.5898C8.69234 18.9941 7.65718 17.8223 7.65718 16.2598C7.65718 16.2207 7.65718 16.1719 7.65718 16.1328ZM22.8134 18.2227L18.331 16.1328C18.331 16.1719 18.331 16.2207 18.331 16.2598C18.331 17.8223 17.2861 18.9941 15.6552 19.5898L20.9189 22.2656C23.7021 23.6816 25.8701 19.6582 22.8134 18.2227Z" fill="var(--color-primary)"/>
 </g>
</svg>
