<svg version="1.1" xmlns="http://www.w3.org/2000/svg" xmlns:xlink="http://www.w3.org/1999/xlink" viewBox="0 0 20.2832 19.9316">
 <g>
  <rect height="19.9316" opacity="0" width="20.2832" x="0" y="0"/>
  <path d="M9.96094 19.9219C15.459 19.9219 19.9219 15.4492 19.9219 9.96094C19.9219 4.46289 15.459 0 9.96094 0C4.47266 0 0 4.46289 0 9.96094C0 15.4492 4.47266 19.9219 9.96094 19.9219Z" fill="var(--color-tertiary)"/>
  <path d="M9.0625 5.38086C8.38867 5.38086 7.85156 4.83398 7.85156 4.16016C7.85156 3.49609 8.38867 2.95898 9.0625 2.95898C9.72656 2.95898 10.2734 3.49609 10.2734 4.16016C10.2734 4.83398 9.72656 5.38086 9.0625 5.38086ZM7.95898 10.6543C7.27539 10.4883 6.85547 9.85352 6.94336 9.16016L7.25586 6.79688C7.35352 5.98633 8.20312 5.56641 9.01367 5.9375L10.8984 6.80664L13.4082 7.04102C13.7109 7.08008 13.9355 7.35352 13.9062 7.64648C13.8867 7.95898 13.6133 8.18359 13.3008 8.1543L10.8398 7.90039C10.6738 7.88086 10.5664 7.86133 10.4395 7.8125L9.46289 7.36328C9.36523 7.31445 9.26758 7.34375 9.25781 7.46094L8.96484 9.47266L10.918 10.1758C11.2402 10.293 11.377 10.5762 11.2793 10.9375L10.5273 13.4473C10.4395 13.7793 10.1465 13.9062 9.89258 13.8574C9.59961 13.8086 9.3457 13.5352 9.46289 13.125L10.0684 11.123ZM6.06445 15.625C5.82031 15.4785 5.68359 15.1465 5.92773 14.7754L7.35352 12.6367L7.46094 10.9766C7.50977 11.0156 7.64648 11.0742 7.85156 11.123L8.71094 11.3184L8.4668 12.8027C8.4375 12.9492 8.41797 13.0469 8.34961 13.1348L6.8457 15.3906C6.63086 15.7031 6.29883 15.752 6.06445 15.625ZM14.9805 6.46484C15.0488 6.62109 14.9902 6.81641 14.8047 6.91406C14.6289 6.99219 14.4629 7.09961 14.3066 7.1875C14.1992 6.94336 14.0332 6.76758 13.7891 6.66016C14.0039 6.54297 14.2578 6.40625 14.5117 6.28906C14.6777 6.21094 14.8926 6.26953 14.9805 6.46484ZM7.40234 16.6406C7.2168 16.6406 7.04102 16.4941 7.04102 16.2891C7.04102 16.1035 7.2168 15.9473 7.40234 15.9473L9.12109 15.9473L9.12109 14.9805C9.12109 14.7949 9.27734 14.6289 9.46289 14.6289L11.1914 14.6289L11.1914 13.6621C11.1914 13.457 11.3574 13.3203 11.5332 13.3203L12.6562 13.3203L12.8516 8.58398C13.3984 8.64258 13.4473 8.63281 13.5352 8.61328L13.3398 13.6719C13.3301 13.8574 13.1738 14.0137 12.998 14.0137L11.8848 14.0137L11.8848 14.9805C11.8848 15.166 11.7285 15.332 11.5332 15.332L9.80469 15.332L9.80469 16.2891C9.80469 16.4844 9.6582 16.6406 9.46289 16.6406Z" fill="var(--color-primary)"/>
 </g>
</svg>
