<svg version="1.1" xmlns="http://www.w3.org/2000/svg" xmlns:xlink="http://www.w3.org/1999/xlink" viewBox="0 0 20.2832 19.9316">
 <g>
  <rect height="19.9316" opacity="0" width="20.2832" x="0" y="0"/>
  <path d="M9.96094 19.9219C15.459 19.9219 19.9219 15.4492 19.9219 9.96094C19.9219 4.46289 15.459 0 9.96094 0C4.47266 0 0 4.46289 0 9.96094C0 15.4492 4.47266 19.9219 9.96094 19.9219Z" fill="var(--color-tertiary)"/>
  <path d="M8.90625 5.38086C8.24219 5.38086 7.69531 4.84375 7.69531 4.17969C7.69531 3.50586 8.24219 2.95898 8.90625 2.95898C9.58008 2.95898 10.127 3.50586 10.127 4.17969C10.127 4.84375 9.58008 5.38086 8.90625 5.38086ZM11.8066 14.2188C11.5332 14.3457 11.1426 14.2578 10.9961 13.8672L10.0977 11.6309L7.82227 10.3125C7.31445 10.0195 7.00195 9.44336 7.05078 8.85742L7.22656 6.91406C7.28516 6.14258 7.95898 5.70312 8.73047 5.95703L10.8594 6.66992L12.959 6.43555C13.7109 6.33789 13.8574 7.46094 13.0859 7.54883L10.9277 7.79297C10.8008 7.80273 10.6738 7.79297 10.5469 7.76367L9.4043 7.36328C9.28711 7.32422 9.21875 7.36328 9.19922 7.4707L9.0625 9.44336L10.8496 10.7715C10.9766 10.8594 11.0352 10.9277 11.0547 11.0059L12.041 13.4473C12.1875 13.8281 12.041 14.0918 11.8066 14.2188ZM6.61133 15.2051C6.31836 15.0879 6.13281 14.7168 6.38672 14.3555L7.75391 12.3242L7.66602 10.7812L8.94531 11.5332L8.88672 12.5C8.86719 12.627 8.82812 12.7246 8.78906 12.793L7.31445 14.9902C7.11914 15.2832 6.83594 15.3223 6.61133 15.2051ZM10.918 15.9961C10.7031 16.084 10.5371 15.9473 10.4785 15.8105C10.4199 15.6445 10.4688 15.4199 10.7129 15.3418L12.6758 14.6875L12.6758 8.08594L13.1152 8.03711C13.2227 8.02734 13.2617 8.01758 13.3594 7.98828L13.3594 14.8828C13.3594 15.0977 13.2715 15.2148 13.0957 15.2734ZM6.41602 16.5039C6.23047 16.5039 6.08398 16.3379 6.08398 16.1621C6.08398 15.9766 6.23047 15.8203 6.41602 15.8203L8.70117 15.8203C8.89648 15.8203 9.07227 15.9668 9.07227 16.1621C9.07227 16.3379 8.89648 16.5039 8.70117 16.5039Z" fill="var(--color-primary)"/>
 </g>
</svg>
