<svg version="1.1" xmlns="http://www.w3.org/2000/svg" xmlns:xlink="http://www.w3.org/1999/xlink" viewBox="0 0 20.2832 19.9316">
 <g>
  <rect height="19.9316" opacity="0" width="20.2832" x="0" y="0"/>
  <path d="M9.96094 19.9219C15.459 19.9219 19.9219 15.459 19.9219 9.96094C19.9219 4.46289 15.459 0 9.96094 0C4.46289 0 0 4.46289 0 9.96094C0 15.459 4.46289 19.9219 9.96094 19.9219ZM9.96094 18.2617C5.37109 18.2617 1.66016 14.5508 1.66016 9.96094C1.66016 5.37109 5.37109 1.66016 9.96094 1.66016C14.5508 1.66016 18.2617 5.37109 18.2617 9.96094C18.2617 14.5508 14.5508 18.2617 9.96094 18.2617Z" fill="var(--color-primary)"/>
  <path d="M9.9707 6.62109C10.7129 6.62109 11.2988 6.02539 11.2988 5.29297C11.2988 4.55078 10.7129 3.95508 9.9707 3.95508C9.23828 3.95508 8.63281 4.55078 8.63281 5.29297C8.63281 6.02539 9.23828 6.62109 9.9707 6.62109ZM9.96094 11.3574C10.1367 11.3574 10.2734 11.4648 10.332 11.6699L11.2402 15.1562C11.4355 15.9375 12.5098 15.6641 12.4023 14.9316C12.3535 14.6387 11.5723 11.6895 11.4648 11.0254C11.377 10.5371 11.416 9.30664 11.416 8.75C11.416 8.58398 11.5527 8.49609 11.7188 8.56445L13.2715 9.18945C13.6816 9.35547 13.9746 9.15039 14.0527 8.86719C14.1406 8.60352 14.0234 8.28125 13.6328 8.125L11.9727 7.43164C11.582 7.28516 11.2402 7.1875 10.8496 7.13867C10.5859 7.27539 10.2832 7.34375 9.96094 7.34375C9.63867 7.34375 9.3457 7.27539 9.07227 7.13867C8.68164 7.1875 8.33984 7.28516 7.94922 7.43164L6.28906 8.125C5.9082 8.28125 5.78125 8.60352 5.87891 8.86719C5.95703 9.15039 6.25 9.35547 6.66016 9.18945L8.20312 8.56445C8.36914 8.49609 8.51562 8.58398 8.51562 8.75C8.51562 9.30664 8.54492 10.5371 8.4668 11.0254C8.34961 11.6895 7.56836 14.6387 7.51953 14.9316C7.41211 15.6641 8.48633 15.9375 8.68164 15.1562L9.58984 11.6699C9.64844 11.4648 9.78516 11.3574 9.96094 11.3574Z" fill="var(--color-primary)"/>
 </g>
</svg>
