<svg version="1.1" xmlns="http://www.w3.org/2000/svg" xmlns:xlink="http://www.w3.org/1999/xlink" viewBox="0 0 20.2832 19.9316">
 <g>
  <rect height="19.9316" opacity="0" width="20.2832" x="0" y="0"/>
  <path d="M9.96094 19.9219C15.459 19.9219 19.9219 15.4492 19.9219 9.96094C19.9219 4.46289 15.459 0 9.96094 0C4.47266 0 0 4.46289 0 9.96094C0 15.4492 4.47266 19.9219 9.96094 19.9219Z" fill="var(--color-tertiary)"/>
  <path d="M10.8984 5.41992C10.2246 5.41992 9.67773 4.88281 9.67773 4.19922C9.67773 3.53516 10.2246 2.98828 10.8984 2.98828C11.5625 2.98828 12.1094 3.53516 12.1094 4.19922C12.1094 4.88281 11.5625 5.41992 10.8984 5.41992ZM5.48828 12.1191C5.16602 12.1191 4.93164 11.8555 4.93164 11.5527C4.93164 11.2402 5.16602 10.9961 5.48828 10.9961L7.79297 10.9961L6.69922 9.89258C6.19141 9.375 6.21094 8.62305 6.69922 8.125L7.93945 6.89453C8.02734 6.80664 7.98828 6.67969 7.86133 6.66992L6.54297 6.49414L5.33203 7.71484C5.10742 7.94922 4.72656 7.92969 4.52148 7.71484C4.31641 7.48047 4.29688 7.14844 4.52148 6.91406L5.94727 5.50781C6.06445 5.39062 6.23047 5.32227 6.40625 5.36133L14.8633 6.42578C15.1367 6.46484 15.3516 6.70898 15.3516 6.98242C15.3516 7.32422 15.0488 7.55859 14.7168 7.5293L10.6836 7.02148C10.5957 7.00195 10.5176 7.04102 10.4688 7.08984L9.12109 8.44727L14.8047 8.44727C15.127 8.44727 15.3809 8.71094 15.3809 9.01367C15.3809 9.32617 15.127 9.57031 14.8047 9.57031L11.7383 9.57031L8.44727 9.78516L9.59961 11.2012C9.88281 11.5527 9.64844 12.1191 9.16016 12.1191ZM10.6152 16.6406L10.6152 10.8496C10.6152 10.6445 10.7617 10.4883 10.957 10.4883C11.1523 10.4883 11.2988 10.6445 11.2988 10.8496L11.2988 16.6406C11.2988 16.8262 11.1523 16.9824 10.957 16.9824C10.7617 16.9824 10.6152 16.8262 10.6152 16.6406Z" fill="var(--color-primary)"/>
 </g>
</svg>
