<svg version="1.1" xmlns="http://www.w3.org/2000/svg" xmlns:xlink="http://www.w3.org/1999/xlink" viewBox="0 0 19.0918 21.2577">
 <g>
  <rect height="21.2577" opacity="0" width="19.0918" x="0" y="0"/>
  <path d="M2.62695 6.02435C1.17188 6.02435 0 4.80365 0 3.38763C0 1.91302 1.17188 0.721616 2.62695 0.721616C4.11133 0.721616 5.2832 1.91302 5.2832 3.38763C5.2832 4.84271 4.11133 6.02435 2.62695 6.02435ZM18.3691 19.999C17.8613 20.5263 16.9922 20.4872 16.3672 19.8427L12.168 15.5068C12.0312 15.3603 11.9336 15.3212 11.7188 15.4091L8.4375 16.6494C6.32812 17.4599 4.33594 16.7665 3.41797 15.0869L1.30859 11.249C0.488281 9.75482 0.742188 8.21185 2.16797 7.45013C3.54492 6.69818 4.98047 7.26458 5.81055 8.79779L8.54492 13.788L10.8789 12.9384C12.0312 12.5185 12.998 12.6552 13.916 13.6122L18.2812 18.124C18.8867 18.749 18.8281 19.5302 18.3691 19.999Z" fill="var(--color-secondary)"/>
  <path d="M18.7305 3.45599C18.7305 2.99701 18.3594 2.63568 17.8906 2.63568L13.3984 2.63568L13.3984 0.8681C13.3984 0.0282564 12.5586-0.254947 11.9922 0.252866L9.0332 2.87005C8.62305 3.24115 8.63281 3.72943 9.0332 4.08099L11.9922 6.69818C12.5879 7.23529 13.3984 6.88373 13.3984 6.08294L13.3984 4.29583L17.8906 4.29583C18.3594 4.29583 18.7305 3.92474 18.7305 3.45599Z" fill="var(--color-primary)"/>
 </g>
</svg>
