<svg version="1.1" xmlns="http://www.w3.org/2000/svg" xmlns:xlink="http://www.w3.org/1999/xlink" viewBox="0 0 20.2832 19.9316">
 <g>
  <rect height="19.9316" opacity="0" width="20.2832" x="0" y="0"/>
  <path d="M9.96094 19.9219C15.459 19.9219 19.9219 15.4492 19.9219 9.96094C19.9219 4.46289 15.459 0 9.96094 0C4.47266 0 0 4.46289 0 9.96094C0 15.4492 4.47266 19.9219 9.96094 19.9219Z" fill="var(--color-tertiary)"/>
  <path d="M14.4043 8.0957C13.7207 8.0957 13.1836 7.56836 13.1836 6.88477C13.1836 6.21094 13.7207 5.67383 14.4043 5.67383C15.0586 5.67383 15.6152 6.21094 15.6152 6.88477C15.6152 7.56836 15.0586 8.0957 14.4043 8.0957ZM4.70703 14.3652C4.70703 14.043 4.96094 13.7793 5.2832 13.7793L8.125 13.7793L8.61328 12.3047C8.71094 12.4902 8.88672 12.6758 9.13086 12.8516L9.7168 13.2617L9.05273 14.6094C8.94531 14.8047 8.74023 14.9316 8.52539 14.9316L5.2832 14.9316C4.96094 14.9316 4.70703 14.6777 4.70703 14.3652ZM8.84766 8.26172L9.41406 6.2793C9.44336 6.16211 9.52148 6.06445 9.59961 5.99609L9.59961 5.09766C9.29688 4.7168 8.99414 4.14062 8.99414 3.69141C8.99414 3.13477 9.38477 2.73438 9.94141 2.73438C10.498 2.73438 10.8789 3.13477 10.8789 3.69141C10.8789 4.0918 10.5859 4.6582 10.293 5.05859L10.293 6.00586C10.459 6.14258 10.5371 6.36719 10.4785 6.60156L10.293 7.24609L10.293 7.86133L12.1973 7.86133C13.1445 7.86133 13.8965 8.62305 13.8965 9.56055L13.8965 11.8164C13.8965 12.1289 13.6523 12.3828 13.3301 12.3828L11.5137 12.3828L12.5879 13.3789C12.7832 13.5449 12.8125 13.8184 12.6953 14.0723L11.2988 16.8848C11.1426 17.1875 10.791 17.2559 10.5371 17.1289C10.2539 16.9824 10.1465 16.6406 10.2832 16.3672L11.4844 13.9648L9.42383 12.4609C8.53516 11.8066 8.63281 10.4688 9.59961 9.94141L9.59961 8.97461L9.36523 8.97461C8.95508 8.97461 8.74023 8.63281 8.84766 8.26172ZM10.293 9.58984L11.4062 9.02344C11.4258 9.01367 11.416 8.97461 11.3867 8.97461L10.293 8.97461ZM11.5625 11.2793L12.793 11.2793L12.793 10.8105C12.793 10.752 12.7344 10.7129 12.6855 10.7324Z" fill="var(--color-primary)"/>
 </g>
</svg>
