<svg version="1.1" xmlns="http://www.w3.org/2000/svg" xmlns:xlink="http://www.w3.org/1999/xlink" viewBox="0 0 20.2832 19.9316">
 <g>
  <rect height="19.9316" opacity="0" width="20.2832" x="0" y="0"/>
  <path d="M19.9219 9.96094C19.9219 15.4492 15.459 19.9219 9.96094 19.9219C4.47266 19.9219 0 15.4492 0 9.96094C0 4.46289 4.47266 0 9.96094 0C15.459 0 19.9219 4.46289 19.9219 9.96094ZM10.0879 5.81055L7.69531 5.92773C7.40234 5.94727 7.1582 6.13281 7.12891 6.48438L6.99219 8.61328C6.98242 8.74023 7.02148 8.83789 7.08984 8.91602L3.53516 12.3926C3.4082 12.5293 3.39844 12.7344 3.52539 12.8809C3.65234 12.998 3.88672 13.0078 4.02344 12.8711L7.93945 9.05273C8.03711 8.96484 8.0957 8.79883 8.10547 8.60352L8.18359 6.98242L9.59961 6.92383L8.53516 8.84766C8.19336 9.46289 8.34961 10.1465 8.97461 10.5078L11.0547 11.6895L11.0547 14.502C11.0547 14.5508 11.0547 14.5996 11.0742 14.6289L6.60156 14.6289L8.89648 12.4902C9.04297 12.3535 9.08203 12.2852 9.14062 12.1387L9.45312 11.3965L8.71094 10.957C8.55469 10.8594 8.4375 10.791 8.33984 10.6738L8.05664 11.7676L5.70312 13.9355C5.45898 14.1602 5.45898 14.4336 5.57617 14.6289L4.27734 14.6289C4.08203 14.6289 3.92578 14.7754 3.92578 14.9609C3.92578 15.1367 4.0625 15.3223 4.27734 15.3223L14.5703 15.3223C15.127 15.3223 15.4785 15.1758 15.8789 15C16.0645 14.8926 16.123 14.707 16.0645 14.5508C15.9961 14.3848 15.8008 14.248 15.5859 14.375C15.2734 14.5215 15.0195 14.6289 14.5703 14.6289L12.1484 14.6289C12.1582 14.5996 12.168 14.5508 12.168 14.502L12.168 11.3281C12.168 11.1621 12.1191 11.0547 11.9238 10.8984L10.4395 9.70703L11.582 7.71484L13.418 9.12109C13.6816 9.30664 14.0137 9.27734 14.248 9.0332L14.9609 8.24219L14.541 13.7012C14.5312 13.8867 14.6777 14.0625 14.8535 14.082C15.0391 14.0918 15.2148 13.9551 15.2246 13.75L15.7324 7.20703C15.7715 6.74805 15.127 6.36719 14.707 6.85547L13.7793 7.93945L12.1582 6.62109C11.6113 6.17188 11.0059 5.76172 10.0879 5.81055ZM10.9473 4.56055C10.9473 5.22461 11.4941 5.77148 12.1582 5.77148C12.8223 5.77148 13.3594 5.22461 13.3594 4.56055C13.3594 3.89648 12.8223 3.34961 12.1582 3.34961C11.4941 3.34961 10.9473 3.89648 10.9473 4.56055Z" fill="var(--color-primary)"/>
 </g>
</svg>
