<svg version="1.1" xmlns="http://www.w3.org/2000/svg" xmlns:xlink="http://www.w3.org/1999/xlink" viewBox="0 0 20.2832 19.9316">
 <g>
  <rect height="19.9316" opacity="0" width="20.2832" x="0" y="0"/>
  <path d="M9.96094 19.9219C15.459 19.9219 19.9219 15.4492 19.9219 9.96094C19.9219 4.46289 15.459 0 9.96094 0C4.47266 0 0 4.46289 0 9.96094C0 15.4492 4.47266 19.9219 9.96094 19.9219Z" fill="var(--color-tertiary)"/>
  <path d="M8.73047 7.38281C8.05664 7.38281 7.5293 6.83594 7.5293 6.15234C7.5293 5.48828 8.05664 4.94141 8.73047 4.94141C9.39453 4.94141 9.95117 5.48828 9.95117 6.15234C9.95117 6.83594 9.39453 7.38281 8.73047 7.38281ZM5.51758 10.0879L5.51758 7.33398C5.51758 7.03125 5.77148 6.78711 6.07422 6.78711C6.37695 6.78711 6.62109 7.03125 6.62109 7.33398L6.62109 9.16992L13.5156 5.73242C13.7891 5.5957 14.1113 5.69336 14.2578 5.9668C14.3945 6.24023 14.2871 6.57227 14.0137 6.70898L10.7227 8.33984C10.5762 8.4082 10.5566 8.51562 10.5859 8.65234L12.0605 14.5215C12.1484 14.8535 12.0605 15.0293 11.8652 15.1465L9.375 16.8066C9.12109 16.9922 8.79883 16.9141 8.62305 16.6699C8.45703 16.416 8.52539 16.0742 8.7793 15.8984L10.8789 14.4922L10.2246 12.7539L9.0332 14.9414C8.91602 15.166 8.75 15.2637 8.51562 15.2637L6.07422 15.2637C5.77148 15.2637 5.51758 15.0195 5.51758 14.7168C5.51758 14.4238 5.77148 14.1699 6.07422 14.1699L8.16406 14.1699L9.04297 11.9531L8.49609 9.67773C8.45703 9.58984 8.35938 9.53125 8.27148 9.58008L6.31836 10.5566C5.9668 10.7324 5.51758 10.5273 5.51758 10.0879ZM12.6758 5.25391C12.0703 5.25391 11.5918 4.78516 11.5918 4.17969C11.5918 3.58398 12.0703 3.10547 12.6758 3.10547C13.2617 3.10547 13.7402 3.58398 13.7402 4.17969C13.7402 4.78516 13.2617 5.25391 12.6758 5.25391Z" fill="var(--color-primary)"/>
 </g>
</svg>
