<svg version="1.1" xmlns="http://www.w3.org/2000/svg" xmlns:xlink="http://www.w3.org/1999/xlink" viewBox="0 0 20.2832 19.9316">
 <g>
  <rect height="19.9316" opacity="0" width="20.2832" x="0" y="0"/>
  <path d="M9.96094 19.9219C15.459 19.9219 19.9219 15.4492 19.9219 9.96094C19.9219 4.46289 15.459 0 9.96094 0C4.47266 0 0 4.46289 0 9.96094C0 15.4492 4.47266 19.9219 9.96094 19.9219Z" fill="var(--color-tertiary)"/>
  <path d="M11.9531 7.1582C11.2891 7.1582 10.7422 6.62109 10.7422 5.9375C10.7422 5.27344 11.2891 4.72656 11.9531 4.72656C12.6367 4.72656 13.1738 5.27344 13.1738 5.9375C13.1738 6.62109 12.6367 7.1582 11.9531 7.1582ZM2.8125 12.7832C2.8125 12.4707 3.05664 12.2168 3.36914 12.2168L5.57617 12.2168L6.07422 10.7227C6.14258 10.8398 6.26953 11.0449 6.58203 11.2695L7.16797 11.6992L6.50391 13.0469C6.41602 13.2324 6.21094 13.3496 5.99609 13.3496L3.36914 13.3496C3.05664 13.3496 2.8125 13.0957 2.8125 12.7832ZM4.00391 7.08984C4.00391 6.77734 4.25781 6.5332 4.57031 6.5332L9.29688 6.5332C9.70703 6.5332 10.0879 6.67969 10.3711 6.96289L12.7832 9.36523L14.7363 9.36523C14.7852 9.36523 14.8438 9.36523 14.8926 9.375L14.8926 8.64258C14.6094 8.27148 13.8965 7.23633 13.8965 6.30859C13.8965 5.53711 14.4727 4.98047 15.2344 4.98047C16.0059 4.98047 16.5625 5.53711 16.5625 6.30859C16.5625 7.24609 15.8496 8.30078 15.5664 8.65234L15.5664 9.94141C15.5664 10.2539 15.3027 10.5078 15 10.5078L12.5391 10.5078C12.3828 10.5078 12.2363 10.4492 12.1387 10.3418L10.8496 9.05273C10.7715 8.97461 10.6543 8.95508 10.5566 9.00391L8.37891 10.0879L10.0977 11.8066C10.293 12.002 10.3125 12.2559 10.2148 12.4707L8.7793 15.3125C8.61328 15.6445 8.31055 15.7129 8.06641 15.625C7.76367 15.5176 7.55859 15.2051 7.75391 14.8145L8.96484 12.4023L6.875 10.8789C6.46484 10.5664 6.25 10.1172 6.25 9.64844C6.25 9.12109 6.5332 8.59375 7.09961 8.31055L8.16406 7.79297C8.21289 7.75391 8.19336 7.65625 8.13477 7.65625L4.57031 7.65625C4.25781 7.65625 4.00391 7.40234 4.00391 7.08984ZM14.5898 6.30859C14.5898 6.81641 14.9609 7.5 15.2344 7.93945C15.498 7.5 15.8789 6.81641 15.8789 6.30859C15.8789 5.9375 15.625 5.66406 15.2344 5.66406C14.8438 5.66406 14.5898 5.9375 14.5898 6.30859Z" fill="var(--color-primary)"/>
 </g>
</svg>
