<svg version="1.1" xmlns="http://www.w3.org/2000/svg" xmlns:xlink="http://www.w3.org/1999/xlink" viewBox="0 0 20.2832 19.9316">
 <g>
  <rect height="19.9316" opacity="0" width="20.2832" x="0" y="0"/>
  <path d="M9.96094 19.9219C15.459 19.9219 19.9219 15.4492 19.9219 9.96094C19.9219 4.46289 15.459 0 9.96094 0C4.47266 0 0 4.46289 0 9.96094C0 15.4492 4.47266 19.9219 9.96094 19.9219Z" fill="var(--color-tertiary)"/>
  <path d="M14.1602 7.44141C13.4961 7.44141 12.959 6.9043 12.959 6.2207C12.959 5.56641 13.4961 5.01953 14.1602 5.01953C14.8242 5.01953 15.3809 5.56641 15.3809 6.2207C15.3809 6.9043 14.8242 7.44141 14.1602 7.44141ZM11.5527 17.4219C11.377 17.4219 11.2109 17.2754 11.2109 17.0801L11.2109 14.4824C10.9961 14.6289 10.7129 14.7266 10.4199 14.7266C9.58984 14.7266 8.94531 14.1504 8.94531 13.2324L8.94531 12.1973L6.92383 11.8555L5.05859 13.7109C4.83398 13.9355 4.48242 13.9355 4.26758 13.7109C4.0332 13.4766 4.0332 13.1348 4.26758 12.9004L6.31836 10.8398C6.42578 10.7227 6.60156 10.6738 6.76758 10.6738L8.70117 10.6738C8.80859 10.6738 8.84766 10.5762 8.7793 10.5176L7.06055 8.97461L4.30664 8.97461C3.98438 8.97461 3.73047 8.70117 3.73047 8.38867C3.73047 8.08594 3.98438 7.83203 4.30664 7.83203L7.27539 7.83203C7.43164 7.83203 7.51953 7.85156 7.61719 7.91992L8.94531 8.84766L8.94531 2.73438C8.94531 2.54883 9.10156 2.39258 9.28711 2.39258C9.46289 2.39258 9.62891 2.53906 9.62891 2.73438L9.62891 9.33594L10.0781 9.63867L11.582 8.125C11.6895 8.01758 11.6992 7.91016 11.582 7.80273L10.1172 6.34766L10.1172 4.72656L13.5059 8.10547C13.7305 8.32031 13.8477 8.62305 13.8477 8.98438L13.8477 11.5332C13.8477 11.6797 13.7793 11.8262 13.6816 11.9238L11.9727 13.6426C11.9531 13.6621 11.9336 13.6719 11.9043 13.6914L11.9043 17.0801C11.9043 17.2754 11.748 17.4219 11.5527 17.4219ZM10.4199 14.043C10.752 14.043 11.0059 13.8672 11.1328 13.5938C10.9375 13.3887 10.9473 13.0566 11.1621 12.832C11.1719 12.8223 11.2012 12.793 11.2109 12.7832L11.2109 11.543L11.1621 11.5918C10.7422 12.0117 10.1953 12.2461 9.62891 12.2559L9.62891 13.2324C9.62891 13.7598 9.96094 14.043 10.4199 14.043ZM11.9043 12.0996L12.7051 11.2988L12.7051 10.4297C12.7051 10.2637 12.5586 10.2148 12.4414 10.3223L11.9043 10.8594Z" fill="var(--color-primary)"/>
 </g>
</svg>
