<svg version="1.1" xmlns="http://www.w3.org/2000/svg" xmlns:xlink="http://www.w3.org/1999/xlink" viewBox="0 0 20.2832 19.9316">
 <g>
  <rect height="19.9316" opacity="0" width="20.2832" x="0" y="0"/>
  <path d="M9.96094 19.9219C15.459 19.9219 19.9219 15.459 19.9219 9.96094C19.9219 4.46289 15.459 0 9.96094 0C4.46289 0 0 4.46289 0 9.96094C0 15.459 4.46289 19.9219 9.96094 19.9219ZM9.96094 18.2617C5.37109 18.2617 1.66016 14.5508 1.66016 9.96094C1.66016 5.37109 5.37109 1.66016 9.96094 1.66016C14.5508 1.66016 18.2617 5.37109 18.2617 9.96094C18.2617 14.5508 14.5508 18.2617 9.96094 18.2617Z" fill="var(--color-secondary)"/>
  <path d="M12.2168 5.78125C12.8711 5.78125 13.3984 5.24414 13.3984 4.58984C13.3984 3.94531 12.8711 3.4082 12.2168 3.4082C11.5625 3.4082 11.0254 3.94531 11.0254 4.58984C11.0254 5.24414 11.5625 5.78125 12.2168 5.78125ZM10.1172 13.3398C10.4395 13.3398 10.6934 13.0859 10.6934 12.7832L10.6934 10.1953C10.6934 10.0391 10.625 9.89258 10.5273 9.79492L9.11133 8.37891L10.3711 7.10938C10.459 7.03125 10.5762 7.02148 10.6641 7.10938L11.5527 7.99805C11.6406 8.10547 11.7969 8.1543 11.9434 8.1543L14.5312 8.1543C14.8438 8.1543 15.0977 7.91016 15.0977 7.59766C15.0977 7.29492 14.8438 7.03125 14.5312 7.03125L12.168 7.03125L10.2344 5.10742C9.99023 4.85352 9.63867 4.70703 9.28711 4.70703L7.25586 4.70703C6.69922 4.70703 6.5332 5.32227 6.875 5.66406L7.7832 6.57227L7.06055 7.27539C6.60156 7.72461 6.60156 8.50586 7.06055 8.95508L8.01758 9.90234L8.01758 12.9102C8.01758 13.2227 8.26172 13.4766 8.57422 13.4766C8.87695 13.4766 9.13086 13.2227 9.13086 12.9102L9.13086 9.99023L9.57031 10.4199L9.57031 12.7832C9.57031 13.0859 9.81445 13.3398 10.1172 13.3398ZM3.67188 7.2168L8.93555 7.2168L8.93555 6.55273L3.67188 6.55273C3.47656 6.55273 3.33984 6.69922 3.33984 6.88477C3.33984 7.07031 3.47656 7.2168 3.67188 7.2168ZM14.7656 13.1055C14.9512 13.1055 15.0977 12.959 15.0977 12.7734L15.0977 7.57812L14.4336 7.57812L14.4336 12.7734C14.4336 12.959 14.5801 13.1055 14.7656 13.1055ZM12.1777 16.7871C12.3633 16.7871 12.5098 16.6211 12.5098 16.4551C12.5098 16.2598 12.3535 16.1035 12.1777 16.1035C11.8262 16.1035 11.748 16.0645 11.4258 15.752L5.68359 10C5.55664 9.87305 5.3418 9.87305 5.21484 10C5.08789 10.1367 5.08789 10.3516 5.21484 10.4688L11.0449 16.2988C11.3965 16.6504 11.7578 16.7871 12.1777 16.7871ZM13.5742 16.4844C13.75 16.4844 13.9062 16.3281 13.9062 16.1523C13.9062 15.9766 13.75 15.8203 13.5742 15.8203C13.2129 15.8203 13.1348 15.7715 12.8223 15.459L7.08008 9.7168C6.95312 9.58008 6.73828 9.58008 6.60156 9.7168C6.48438 9.83398 6.48438 10.0586 6.60156 10.1855L12.4316 16.0059C12.7734 16.3574 13.1543 16.4844 13.5742 16.4844Z" fill="var(--color-primary)"/>
 </g>
</svg>
