<svg version="1.1" xmlns="http://www.w3.org/2000/svg" xmlns:xlink="http://www.w3.org/1999/xlink" viewBox="0 0 20.2832 19.9316">
 <g>
  <rect height="19.9316" opacity="0" width="20.2832" x="0" y="0"/>
  <path d="M9.96094 19.9219C15.459 19.9219 19.9219 15.459 19.9219 9.96094C19.9219 4.46289 15.459 0 9.96094 0C4.46289 0 0 4.46289 0 9.96094C0 15.459 4.46289 19.9219 9.96094 19.9219ZM9.96094 18.2617C5.37109 18.2617 1.66016 14.5508 1.66016 9.96094C1.66016 5.37109 5.37109 1.66016 9.96094 1.66016C14.5508 1.66016 18.2617 5.37109 18.2617 9.96094C18.2617 14.5508 14.5508 18.2617 9.96094 18.2617Z" fill="var(--color-primary)"/>
  <path d="M12.0801 5.87891C12.7246 5.87891 13.252 5.35156 13.252 4.70703C13.252 4.0625 12.7246 3.53516 12.0801 3.53516C11.4355 3.53516 10.8984 4.0625 10.8984 4.70703C10.8984 5.35156 11.4355 5.87891 12.0801 5.87891ZM14.3945 13.5742C14.375 13.75 14.5215 13.916 14.6973 13.9355C14.873 13.9453 15.0488 13.8184 15.0586 13.6133L15.5469 7.25586L14.873 7.2168ZM11.8555 10.8496L10.4199 9.69727L11.5234 7.76367L13.3008 9.13086C13.5547 9.31641 13.8867 9.28711 14.1113 9.04297L15.4102 7.58789C15.8594 7.08984 15.127 6.26953 14.6094 6.86523L13.6426 7.97852L12.0801 6.70898C11.543 6.26953 10.9668 5.86914 10.0684 5.91797L7.75391 6.03516C7.46094 6.05469 7.22656 6.23047 7.20703 6.57227L7.07031 8.63281C7.03125 9.28711 8.10547 9.52148 8.14453 8.62305L8.23242 7.05078L9.58984 7.00195L8.56445 8.86719C8.23242 9.46289 8.38867 10.1172 8.98438 10.4688L11.0156 11.6211L11.0156 14.3457C11.0156 14.6484 11.25 14.8926 11.543 14.8926C11.8555 14.8926 12.0898 14.6484 12.0898 14.3457L12.0898 11.2695C12.0898 11.1035 12.041 10.9961 11.8555 10.8496ZM3.7207 12.3047C3.58398 12.4316 3.58398 12.6367 3.71094 12.7734C3.82812 12.8906 4.05273 12.8906 4.18945 12.7637L7.99805 9.0625L7.5293 8.58398ZM8.36914 10.6348L8.0957 11.6895L5.82031 13.7988C5.26367 14.3164 6.01562 15.1074 6.5918 14.5703L8.92578 12.3926C9.0625 12.2656 9.10156 12.1973 9.16016 12.0508L9.46289 11.3379L8.73047 10.9082C8.58398 10.8203 8.4668 10.7422 8.36914 10.6348ZM14.4141 15.1367C14.9707 15.1367 15.3027 15 15.6836 14.8242C15.8691 14.7363 15.918 14.541 15.8691 14.3945C15.8105 14.2285 15.6152 14.1016 15.4102 14.2188C15.1074 14.3652 14.8633 14.4727 14.4141 14.4727L6.37695 14.4727C6.21094 14.4727 6.04492 14.6094 6.04492 14.7852C6.04492 14.9707 6.19141 15.1367 6.37695 15.1367ZM12.5098 15.1367L12.5098 14.4727L4.42383 14.4727C4.24805 14.4727 4.0918 14.6094 4.0918 14.7852C4.0918 14.9609 4.22852 15.1367 4.42383 15.1367Z" fill="var(--color-primary)"/>
 </g>
</svg>
