<svg version="1.1" xmlns="http://www.w3.org/2000/svg" xmlns:xlink="http://www.w3.org/1999/xlink" viewBox="0 0 20.2832 19.9316">
 <g>
  <rect height="19.9316" opacity="0" width="20.2832" x="0" y="0"/>
  <path d="M9.96094 19.9219C15.459 19.9219 19.9219 15.4492 19.9219 9.96094C19.9219 4.46289 15.459 0 9.96094 0C4.47266 0 0 4.46289 0 9.96094C0 15.4492 4.47266 19.9219 9.96094 19.9219Z" fill="var(--color-tertiary)"/>
  <path d="M11.4648 6.52344C10.8008 6.52344 10.2637 5.9668 10.2637 5.30273C10.2637 4.64844 10.8008 4.0918 11.4648 4.0918C12.1387 4.0918 12.6855 4.64844 12.6855 5.30273C12.6855 5.9668 12.1387 6.52344 11.4648 6.52344ZM4.55078 7.53906C4.55078 7.22656 4.80469 6.97266 5.11719 6.97266L5.27344 6.97266L5.27344 6.52344C4.84375 6.2793 4.55078 5.78125 4.55078 5.3418C4.55078 4.74609 5.00977 4.28711 5.58594 4.28711C6.18164 4.28711 6.64062 4.74609 6.64062 5.3418C6.64062 5.77148 6.33789 6.26953 5.9082 6.52344L5.9082 6.97266L10.2637 6.97266C11.2988 6.97266 11.8164 7.07031 12.3047 7.58789L13.3789 8.71094L14.668 7.42188C14.9023 7.19727 15.2344 7.20703 15.459 7.42188C15.6836 7.63672 15.6738 7.97852 15.459 8.20312L13.7891 9.87305C13.6719 10 13.5254 10.0488 13.3789 10.0488C13.2324 10.0488 13.0957 9.99023 12.9883 9.87305L11.7578 8.64258C11.6211 8.50586 11.4062 8.52539 11.3477 8.7207L10.5176 11.1914L12.2754 12.2168C12.4023 12.3047 12.4902 12.4023 12.5293 12.5391L13.3594 15.4785C13.457 15.8105 13.2715 16.0547 13.0273 16.1621C12.7539 16.2598 12.4121 16.1621 12.2949 15.7812L11.5039 13.1055L9.24805 12.1094C8.58398 11.8164 8.24219 11.0938 8.48633 10.3906L9.14062 8.44727C9.21875 8.22266 9.07227 8.0957 8.89648 8.0957L5.11719 8.0957C4.80469 8.0957 4.55078 7.8418 4.55078 7.53906ZM5.9375 15.957C5.77148 15.7129 5.79102 15.332 6.14258 15.1465L8.42773 13.877L8.75 12.3926C8.76953 12.4219 8.85742 12.4707 9.0625 12.5684L9.93164 12.9492L9.44336 14.4043C9.39453 14.5605 9.30664 14.668 9.16992 14.7266L6.67969 16.123C6.36719 16.2891 6.09375 16.1719 5.9375 15.957ZM13.3105 10.9863C13.3105 10.8008 13.4766 10.6445 13.6523 10.6445L16.9238 10.6445L16.9238 11.3379L13.6523 11.3379C13.4766 11.3379 13.3105 11.1719 13.3105 10.9863Z" fill="var(--color-primary)"/>
 </g>
</svg>
