<svg version="1.1" xmlns="http://www.w3.org/2000/svg" xmlns:xlink="http://www.w3.org/1999/xlink" viewBox="0 0 31.1618 19.8145">
 <g>
  <rect height="19.8145" opacity="0" width="31.1618" x="0" y="0"/>
  <path d="M5.03889 5.30273C3.57405 5.30273 2.40217 4.08203 2.40217 2.66602C2.40217 1.19141 3.57405 0 5.03889 0C6.5135 0 7.69514 1.19141 7.69514 2.66602C7.69514 4.12109 6.5135 5.30273 5.03889 5.30273ZM20.7713 19.2773C20.2635 19.8047 19.3944 19.7656 18.7791 19.1211L14.5701 14.7852C14.4334 14.6387 14.3358 14.5996 14.1209 14.6875L10.8397 15.9277C8.7303 16.7383 6.74787 16.0449 5.82014 14.3652L3.71076 10.5273C2.89045 9.0332 3.15412 7.49023 4.57014 6.72852C5.95686 5.97656 7.38264 6.54297 8.21272 8.07617L10.9569 13.0664L13.2811 12.2168C14.4334 11.7969 15.4002 11.9336 16.3182 12.8906L20.6834 17.4023C21.2889 18.0273 21.2303 18.8086 20.7713 19.2773Z" fill="var(--color-secondary)"/>
  <path d="M20.2244 3.14453L22.8709 6.5332C22.9979 6.68945 23.1737 6.71875 23.3494 6.62109C23.9842 6.28906 24.8826 6.06445 25.5955 6.06445C26.3182 6.06445 27.2362 6.28906 27.8514 6.62109C28.0272 6.71875 28.2225 6.68945 28.3299 6.5332L30.9959 3.14453C31.2498 2.80273 31.2108 2.46094 30.8885 2.20703C29.8045 1.37695 27.7635 0.742188 25.5955 0.742188C23.4569 0.742188 21.3963 1.37695 20.3221 2.20703C19.9998 2.46094 19.9608 2.80273 20.2244 3.14453ZM22.9783 8.51562C22.6756 8.11523 22.5487 7.74414 22.5487 7.34375C22.5487 6.42578 23.2908 6.19141 23.2908 5.6543C23.2908 5.10742 22.5487 4.88281 22.5487 3.93555C22.5487 3.54492 22.6756 3.17383 22.9783 2.7832C23.3201 2.37305 23.9354 2.8125 23.6033 3.24219C23.3787 3.54492 23.3201 3.71094 23.3201 3.93555C23.3201 4.59961 24.0623 4.78516 24.0623 5.6543C24.0623 6.51367 23.3201 6.70898 23.3201 7.34375C23.3201 7.59766 23.3787 7.74414 23.6033 8.05664C23.9256 8.47656 23.3104 8.92578 22.9783 8.51562ZM25.2733 8.51562C24.9803 8.11523 24.8533 7.74414 24.8533 7.34375C24.8533 6.42578 25.5858 6.19141 25.5858 5.6543C25.5858 5.10742 24.8533 4.88281 24.8533 3.93555C24.8533 3.54492 24.9803 3.17383 25.2733 2.7832C25.6151 2.37305 26.2401 2.8125 25.908 3.24219C25.6834 3.54492 25.6248 3.71094 25.6248 3.93555C25.6248 4.59961 26.367 4.78516 26.367 5.6543C26.367 6.51367 25.6248 6.70898 25.6248 7.34375C25.6248 7.59766 25.6834 7.74414 25.908 8.05664C26.2303 8.47656 25.6053 8.92578 25.2733 8.51562ZM27.5975 8.51562C27.285 8.11523 27.158 7.74414 27.158 7.34375C27.158 6.42578 27.9002 6.19141 27.9002 5.6543C27.9002 5.10742 27.158 4.88281 27.158 3.93555C27.158 3.54492 27.285 3.17383 27.5975 2.7832C27.9295 2.37305 28.5447 2.8125 28.2127 3.24219C28.0076 3.54492 27.9393 3.71094 27.9393 3.93555C27.9393 4.59961 28.6717 4.78516 28.6717 5.6543C28.6717 6.51367 27.9393 6.70898 27.9393 7.34375C27.9393 7.59766 28.0076 7.74414 28.2127 8.05664C28.535 8.47656 27.9295 8.92578 27.5975 8.51562ZM16.5428 3.84766C16.5428 3.51562 16.2694 3.23242 15.9178 3.23242L13.2713 3.23242L13.2713 1.875C13.2713 1.25977 12.6268 1.02539 12.1971 1.41602L9.97053 3.41797C9.6678 3.68164 9.64826 4.04297 9.97053 4.31641L12.1971 6.29883C12.6463 6.70898 13.2713 6.44531 13.2713 5.83984L13.2713 4.48242L15.9178 4.48242C16.2596 4.48242 16.5428 4.21875 16.5428 3.84766ZM18.369 4.86328C18.0369 4.87305 17.7342 5.14648 17.7342 5.49805L17.7342 8.14453L16.3768 8.14453C15.7713 8.14453 15.5369 8.74023 15.9276 9.18945L17.9002 11.4551C18.1737 11.7676 18.5252 11.7383 18.7987 11.4453L20.8201 9.20898C21.2108 8.7793 20.9862 8.14453 20.3416 8.14453L18.9842 8.14453L18.9842 5.49805C18.9842 5.13672 18.7205 4.86328 18.369 4.86328Z" fill="var(--color-primary)"/>
 </g>
</svg>
