<svg version="1.1" xmlns="http://www.w3.org/2000/svg" xmlns:xlink="http://www.w3.org/1999/xlink" viewBox="0 0 20.8301 18.6621">
 <g>
  <rect height="18.6621" opacity="0" width="20.8301" x="0" y="0"/>
  <path d="M2.66602 18.5547L17.8027 18.5547C19.4629 18.5547 20.4688 17.4023 20.4688 15.9082C20.4688 15.4492 20.332 14.9707 20.0879 14.541L12.5098 1.33789C12.002 0.449219 11.1328 0 10.2344 0C9.33594 0 8.45703 0.449219 7.95898 1.33789L0.380859 14.541C0.117188 14.9805 0 15.4492 0 15.9082C0 17.4023 1.00586 18.5547 2.66602 18.5547ZM2.67578 17.0215C1.99219 17.0215 1.58203 16.4941 1.58203 15.8984C1.58203 15.7129 1.62109 15.4785 1.72852 15.2734L9.29688 2.08008C9.50195 1.71875 9.87305 1.5625 10.2344 1.5625C10.5957 1.5625 10.957 1.71875 11.1621 2.08008L18.7305 15.2832C18.8379 15.4883 18.8867 15.7129 18.8867 15.8984C18.8867 16.4941 18.457 17.0215 17.7832 17.0215Z" fill="var(--color-primary)"/>
  <path d="M7.80273 15.4883L9.35547 13.6426C9.50195 13.4668 9.53125 13.418 9.58008 13.2422L9.69727 12.8809L8.86719 11.8359L8.62305 13.0078L7.08984 14.834C6.5918 15.4102 7.39258 15.9766 7.80273 15.4883ZM11.582 15.3516C11.8945 15.9863 12.8516 15.5957 12.5 14.9023L11.4453 12.7539C11.377 12.5977 11.25 12.4316 11.1719 12.2852L10.498 11.3281L10.5273 11.1914C10.7324 10.6641 10.7812 10.3418 10.8203 9.80469L10.9277 8.32031C10.9863 7.59766 10.5469 7.07031 9.82422 7.07031C9.28711 7.07031 8.92578 7.34375 8.4082 7.83203L7.62695 8.60352C7.36328 8.86719 7.28516 9.07227 7.25586 9.4043L7.16797 10.6348C7.14844 10.9277 7.32422 11.1426 7.59766 11.1523C7.89062 11.1816 8.05664 11.0156 8.08594 10.6836L8.20312 9.3457L8.58398 9.01367C8.71094 8.88672 8.90625 8.96484 8.88672 9.10156L8.80859 10.2344C8.75977 10.8105 8.89648 11.0938 9.28711 11.5723L10.332 12.8809C10.4395 13.0176 10.459 13.0664 10.498 13.1445ZM13.3887 9.0918L12.1875 9.0918L11.4258 8.25195L11.3379 9.48242L11.6504 9.79492C11.8164 9.95117 11.9629 10.0098 12.2656 10.0098L13.3887 10.0098C13.6914 10.0098 13.8867 9.84375 13.8867 9.55078C13.8867 9.26758 13.6914 9.0918 13.3887 9.0918ZM10.4102 6.5918C11.0059 6.5918 11.4941 6.10352 11.4941 5.51758C11.4941 4.91211 11.0059 4.43359 10.4102 4.43359C9.80469 4.43359 9.31641 4.91211 9.31641 5.51758C9.31641 6.10352 9.80469 6.5918 10.4102 6.5918Z" fill="var(--color-primary)"/>
 </g>
</svg>
