<svg version="1.1" xmlns="http://www.w3.org/2000/svg" xmlns:xlink="http://www.w3.org/1999/xlink" viewBox="0 0 20.2832 19.9316">
 <g>
  <rect height="19.9316" opacity="0" width="20.2832" x="0" y="0"/>
  <path d="M9.96094 19.9219C15.459 19.9219 19.9219 15.4492 19.9219 9.96094C19.9219 4.46289 15.459 0 9.96094 0C4.47266 0 0 4.46289 0 9.96094C0 15.4492 4.47266 19.9219 9.96094 19.9219Z" fill="var(--color-tertiary)"/>
  <path d="M11.4844 5.70312C10.8203 5.70312 10.2734 5.16602 10.2734 4.48242C10.2734 3.81836 10.8203 3.28125 11.4844 3.28125C12.1582 3.28125 12.6953 3.81836 12.6953 4.48242C12.6953 5.16602 12.1582 5.70312 11.4844 5.70312ZM5.44922 11.4648C5.12695 11.4648 4.87305 11.2109 4.87305 10.8887C4.87305 10.5664 5.12695 10.3027 5.44922 10.3027L11.2988 10.3027L11.2988 7.72461C11.2988 7.57812 11.1816 7.44141 11.0059 7.44141L6.78711 7.44141C6.46484 7.44141 6.21094 7.17773 6.21094 6.85547C6.21094 6.55273 6.47461 6.28906 6.78711 6.28906L12.2754 6.28906C12.8711 6.28906 13.4082 6.51367 13.8184 6.93359L15.2246 8.33008C15.3516 8.4375 15.4004 8.58398 15.4004 8.73047L15.4004 10.8887C15.4004 11.2109 15.1367 11.4648 14.8145 11.4648C14.5117 11.4648 14.2383 11.2109 14.2383 10.8887L14.2383 8.98438L13.7012 8.42773C13.623 8.34961 13.5156 8.38867 13.5156 8.49609L13.5156 10.498C13.5156 11.5527 12.7246 12.041 11.6113 11.8848L8.65234 11.4648ZM13.3594 16.3867C13.1348 16.6211 12.7734 16.6211 12.5586 16.3867L10.3906 14.2285C10.2344 14.0723 10.1855 13.8379 10.2539 13.6328L10.7715 12.2559L11.543 12.373C11.7773 12.4023 11.9922 12.4121 12.1875 12.4023L11.5137 13.7109L13.3594 15.5762C13.5742 15.8008 13.584 16.1621 13.3594 16.3867ZM3.7793 9.00391C3.05664 8.27148 3.125 7.46094 3.4375 7.16797C3.73047 6.8457 4.49219 6.83594 5.21484 7.56836C5.94727 8.29102 5.9082 9.0332 5.625 9.3457C5.3125 9.64844 4.50195 9.72656 3.7793 9.00391Z" fill="var(--color-primary)"/>
 </g>
</svg>
