<svg version="1.1" xmlns="http://www.w3.org/2000/svg" xmlns:xlink="http://www.w3.org/1999/xlink" viewBox="0 0 20.2832 19.9316">
 <g>
  <rect height="19.9316" opacity="0" width="20.2832" x="0" y="0"/>
  <path d="M19.9219 9.9707C19.9219 15.4688 15.459 19.9316 9.96094 19.9316C4.47266 19.9316 0 15.4688 0 9.9707C0 4.48242 4.47266 0.00976562 9.96094 0.00976562C15.459 0.00976562 19.9219 4.48242 19.9219 9.9707ZM5.6543 14.9121C5.6543 15.166 5.87891 15.3809 6.13281 15.3809C6.40625 15.3809 6.58203 15.1758 6.58203 14.9121L6.58203 11.9434C6.77734 11.8652 7.16797 11.748 7.79297 11.748C8.9158 11.748 9.78034 12.095 10.6991 12.3528L5.6543 7.31325ZM5.01953 5.0293C4.84375 5.20508 4.85352 5.49805 5.01953 5.67383L14.2676 14.9121C14.4336 15.0879 14.7363 15.0879 14.9121 14.9121C15.0879 14.7266 15.0879 14.4531 14.9121 14.2676L5.67383 5.0293C5.49805 4.84375 5.20508 4.84375 5.01953 5.0293ZM6.96949 5.3191L13.9931 12.3427C14.3599 12.1399 14.5312 11.8557 14.5312 11.4258L14.5312 6.47461C14.5312 6.17188 14.375 5.95703 13.9648 5.95703C13.6719 5.95703 13.2324 6.17188 12.4023 6.17188C10.6934 6.17188 9.55078 5.27344 7.74414 5.27344C7.41582 5.27344 7.16994 5.28858 6.96949 5.3191Z" fill="var(--color-primary)"/>
 </g>
</svg>
