<svg version="1.1" xmlns="http://www.w3.org/2000/svg" xmlns:xlink="http://www.w3.org/1999/xlink" viewBox="0 0 20.2832 19.9316">
 <g>
  <rect height="19.9316" opacity="0" width="20.2832" x="0" y="0"/>
  <path d="M9.96094 19.9316C15.459 19.9316 19.9219 15.4688 19.9219 9.9707C19.9219 4.48242 15.459 0.00976562 9.96094 0.00976562C4.47266 0.00976562 0 4.48242 0 9.9707C0 15.4688 4.47266 19.9316 9.96094 19.9316Z" fill="var(--color-tertiary)"/>
  <path d="M11.5332 13.186L11.5332 15.3711C11.5332 16.0742 11.1621 16.4453 10.4785 16.4453L9.43359 16.4453C8.75977 16.4453 8.39844 16.0742 8.39844 15.3711L8.39844 10.0545ZM5.67383 5.0293L14.9121 14.2676C15.0879 14.4531 15.0879 14.7266 14.9121 14.9121C14.7363 15.0879 14.4336 15.0879 14.2676 14.9121L5.01953 5.67383C4.85352 5.49805 4.84375 5.20508 5.01953 5.0293C5.20508 4.84375 5.49805 4.84375 5.67383 5.0293ZM12.6465 5.88867C12.6465 6.38672 12.4707 6.74805 12.1973 7.16797L11.8848 7.65625C11.6602 7.99805 11.5332 8.4082 11.5332 9.02344L11.5332 9.88281L7.27539 5.625L7.27539 5.38086L12.6465 5.38086ZM12.6465 4.57031L12.6465 4.76562L7.27539 4.76562L7.27539 4.57031C7.27539 3.85742 7.62695 3.49609 8.33008 3.49609L11.582 3.49609C12.2949 3.49609 12.6465 3.85742 12.6465 4.57031Z" fill="var(--color-primary)"/>
 </g>
</svg>
