<svg version="1.1" xmlns="http://www.w3.org/2000/svg" xmlns:xlink="http://www.w3.org/1999/xlink" viewBox="0 0 20.2832 19.9316">
 <g>
  <rect height="19.9316" opacity="0" width="20.2832" x="0" y="0"/>
  <path d="M9.96094 19.9219C15.459 19.9219 19.9219 15.459 19.9219 9.96094C19.9219 4.46289 15.459 0 9.96094 0C4.46289 0 0 4.46289 0 9.96094C0 15.459 4.46289 19.9219 9.96094 19.9219ZM9.96094 18.2617C5.37109 18.2617 1.66016 14.5508 1.66016 9.96094C1.66016 5.37109 5.37109 1.66016 9.96094 1.66016C14.5508 1.66016 18.2617 5.37109 18.2617 9.96094C18.2617 14.5508 14.5508 18.2617 9.96094 18.2617Z" fill="var(--color-secondary)"/>
  <path d="M7.35352 4.91211L12.5684 4.91211L12.5684 4.72656C12.5684 4.0332 12.2266 3.68164 11.5332 3.68164L8.37891 3.68164C7.69531 3.68164 7.35352 4.0332 7.35352 4.72656ZM9.45312 16.2402L10.459 16.2402C11.123 16.2402 11.4844 15.8789 11.4844 15.1953L11.4844 9.04297C11.4844 8.44727 11.6113 8.04688 11.8262 7.71484L12.1289 7.24609C12.3926 6.83594 12.5684 6.47461 12.5684 6.00586L12.5684 5.50781L7.35352 5.50781L7.35352 6.00586C7.35352 6.47461 7.5293 6.83594 7.79297 7.24609L8.0957 7.71484C8.31055 8.04688 8.44727 8.44727 8.44727 9.04297L8.44727 15.1953C8.44727 15.8789 8.79883 16.2402 9.45312 16.2402ZM9.02344 11.1426L9.02344 9.54102C9.02344 9.02344 9.43359 8.60352 9.96094 8.60352C10.4883 8.60352 10.8984 9.02344 10.8984 9.54102L10.8984 11.1426C10.8984 11.6699 10.4883 12.0801 9.96094 12.0801C9.43359 12.0801 9.02344 11.6699 9.02344 11.1426ZM9.96094 8.94531C9.61914 8.94531 9.36523 9.20898 9.36523 9.54102C9.36523 9.87305 9.62891 10.1465 9.96094 10.1465C10.3027 10.1465 10.5566 9.87305 10.5566 9.54102C10.5566 9.20898 10.3223 8.94531 9.96094 8.94531Z" fill="var(--color-primary)"/>
 </g>
</svg>
