<svg version="1.1" xmlns="http://www.w3.org/2000/svg" xmlns:xlink="http://www.w3.org/1999/xlink" viewBox="0 0 18.3398 17.9785">
 <g>
  <rect height="17.9785" opacity="0" width="18.3398" x="0" y="0"/>
  <path d="M3.06641 17.9785L14.9121 17.9785C16.9629 17.9785 17.9785 16.9727 17.9785 14.9609L17.9785 3.02734C17.9785 1.01562 16.9629 0 14.9121 0L3.06641 0C1.02539 0 0 1.01562 0 3.02734L0 14.9609C0 16.9727 1.02539 17.9785 3.06641 17.9785Z" fill="var(--color-tertiary)"/>
  <path d="M6.55273 13.4961C6.24023 13.4961 5.84961 13.4766 5.55664 13.3594C5.30273 13.252 5.14648 13.1055 5.14648 12.832C5.14648 12.6074 5.30273 12.4414 5.55664 12.4414C5.92773 12.4414 6.04492 12.5 6.44531 12.5C7.44141 12.5 7.85156 11.9824 8.01758 11.0059L8.33008 9.18945L6.41602 9.18945C6.17188 9.18945 5.99609 9.02344 5.99609 8.7793C5.99609 8.55469 6.17188 8.37891 6.41602 8.37891L8.44727 8.37891L8.7207 6.79688C8.97461 5.27344 9.82422 4.47266 11.3672 4.47266C11.6406 4.47266 12.0508 4.51172 12.3242 4.62891C12.5586 4.7168 12.7637 4.88281 12.7637 5.13672C12.7637 5.41016 12.6074 5.53711 12.334 5.55664C12.0801 5.55664 11.8262 5.47852 11.4551 5.47852C10.5078 5.47852 10.0293 5.94727 9.86328 6.88477L9.60938 8.37891L11.6406 8.37891C11.8945 8.37891 12.0801 8.55469 12.0801 8.7793C12.0801 9.02344 11.8945 9.18945 11.6406 9.18945L9.48242 9.18945L9.16016 11.1426C8.90625 12.6855 8.14453 13.4961 6.55273 13.4961Z" fill="var(--color-primary)"/>
 </g>
</svg>
