<svg version="1.1" xmlns="http://www.w3.org/2000/svg" xmlns:xlink="http://www.w3.org/1999/xlink" viewBox="0 0 20.2832 19.9316">
 <g>
  <rect height="19.9316" opacity="0" width="20.2832" x="0" y="0"/>
  <path d="M9.96094 19.9219C15.459 19.9219 19.9219 15.459 19.9219 9.96094C19.9219 4.46289 15.459 0 9.96094 0C4.46289 0 0 4.46289 0 9.96094C0 15.459 4.46289 19.9219 9.96094 19.9219ZM9.96094 18.2617C5.37109 18.2617 1.66016 14.5508 1.66016 9.96094C1.66016 5.37109 5.37109 1.66016 9.96094 1.66016C14.5508 1.66016 18.2617 5.37109 18.2617 9.96094C18.2617 14.5508 14.5508 18.2617 9.96094 18.2617Z" fill="var(--color-secondary)"/>
  <path d="M11.2988 13.5547C11.4844 13.5547 11.6406 13.4961 11.8262 13.3887L16.4844 10.6445C16.7969 10.459 16.9434 10.2246 16.9434 9.9707C16.9434 9.7168 16.7969 9.48242 16.4844 9.29688L11.8262 6.55273C11.6406 6.44531 11.4844 6.38672 11.2988 6.38672C10.9473 6.38672 10.6445 6.66016 10.6445 7.1582L10.6445 12.7832C10.6445 13.2812 10.9473 13.5547 11.2988 13.5547ZM5.0293 13.5547C5.21484 13.5547 5.38086 13.4961 5.55664 13.3887L10.2148 10.6445C10.5371 10.459 10.6738 10.2246 10.6738 9.9707C10.6738 9.7168 10.5371 9.48242 10.2148 9.29688L5.55664 6.55273C5.38086 6.44531 5.21484 6.38672 5.0293 6.38672C4.67773 6.38672 4.38477 6.66016 4.38477 7.1582L4.38477 12.7832C4.38477 13.2812 4.67773 13.5547 5.0293 13.5547Z" fill="var(--color-primary)"/>
 </g>
</svg>
