<svg version="1.1" xmlns="http://www.w3.org/2000/svg" xmlns:xlink="http://www.w3.org/1999/xlink" viewBox="0 0 23.8867 19.5071">
 <g>
  <rect height="19.5071" opacity="0" width="23.8867" x="0" y="0"/>
  <path d="M23.5254 11.7116C23.5254 5.55921 18.7988 0.510381 12.7832 0.00256812C12.4707-0.0267288 12.2363 0.197881 12.2363 0.510381L12.2363 3.70374C12.2363 3.96741 12.4219 4.17249 12.6855 4.19202C16.4258 4.65101 19.3359 7.84436 19.3359 11.7116C19.3359 13.4694 18.7305 15.0905 17.666 16.4479C17.5293 16.6139 17.5391 16.8287 17.6855 16.985L20.0195 19.3092C20.2344 19.5241 20.5664 19.5241 20.7617 19.2897C22.4902 17.2389 23.5254 14.5924 23.5254 11.7116Z" fill="var(--color-primary)"/>
  <path d="M0 11.7116C0 14.6022 1.03516 17.2487 2.76367 19.2994C2.95898 19.5338 3.28125 19.5241 3.50586 19.3092L5.83984 16.985C5.98633 16.8287 5.99609 16.6139 5.85938 16.4479C4.78516 15.0905 4.18945 13.4694 4.18945 11.7116C4.18945 7.84436 7.09961 4.65101 10.8398 4.19202C11.1035 4.17249 11.2891 3.96741 11.2891 3.70374L11.2891 0.510381C11.2891 0.197881 11.0547-0.0267288 10.7422 0.00256812C4.72656 0.510381 0 5.55921 0 11.7116Z" fill="var(--color-primary)"/>
  <path d="M10.0879 16.3893C10.4199 16.3893 10.6641 16.1549 10.6641 15.8033L10.6641 14.7682L12.7539 14.7682C12.9395 14.7682 13.0762 14.6412 13.0762 14.4459C13.0762 14.2604 12.9395 14.1237 12.7539 14.1237L10.6641 14.1237L10.6641 12.3366L13.8965 12.3366C14.1992 12.3366 14.4238 12.1315 14.4238 11.8385C14.4238 11.5553 14.1992 11.3502 13.8965 11.3502L10.6641 11.3502L10.6641 8.51819L14.2383 8.51819C14.5508 8.51819 14.7656 8.31311 14.7656 8.02015C14.7656 7.71741 14.5508 7.51233 14.2383 7.51233L10.0879 7.51233C9.72656 7.51233 9.50195 7.73694 9.50195 8.10804L9.50195 14.1237L8.56445 14.1237C8.37891 14.1237 8.24219 14.2604 8.24219 14.4459C8.24219 14.6412 8.37891 14.7682 8.56445 14.7682L9.50195 14.7682L9.50195 15.8033C9.50195 16.1549 9.74609 16.3893 10.0879 16.3893Z" fill="var(--color-primary)"/>
 </g>
</svg>
