<svg version="1.1" xmlns="http://www.w3.org/2000/svg" xmlns:xlink="http://www.w3.org/1999/xlink" viewBox="0 0 18.3398 17.9785">
 <g>
  <rect height="17.9785" opacity="0" width="18.3398" x="0" y="0"/>
  <path d="M3.06641 17.9785L14.9121 17.9785C16.9629 17.9785 17.9785 16.9727 17.9785 14.9609L17.9785 3.02734C17.9785 1.01562 16.9629 0 14.9121 0L3.06641 0C1.02539 0 0 1.01562 0 3.02734L0 14.9609C0 16.9727 1.02539 17.9785 3.06641 17.9785ZM3.08594 16.4062C2.10938 16.4062 1.57227 15.8887 1.57227 14.873L1.57227 3.11523C1.57227 2.09961 2.10938 1.57227 3.08594 1.57227L14.8926 1.57227C15.8594 1.57227 16.4062 2.09961 16.4062 3.11523L16.4062 14.873C16.4062 15.8887 15.8594 16.4062 14.8926 16.4062Z" fill="var(--color-secondary)"/>
  <path d="M7.33398 13.5352C7.66602 13.5352 7.91016 13.291 7.91016 12.9492L7.91016 11.9141L10 11.9141C10.1855 11.9141 10.3223 11.7773 10.3223 11.5918C10.3223 11.4062 10.1855 11.2695 10 11.2695L7.91016 11.2695L7.91016 9.48242L11.1426 9.48242C11.4453 9.48242 11.6699 9.27734 11.6699 8.98438C11.6699 8.70117 11.4453 8.49609 11.1426 8.49609L7.91016 8.49609L7.91016 5.66406L11.4844 5.66406C11.7969 5.66406 12.0117 5.44922 12.0117 5.16602C12.0117 4.86328 11.7969 4.64844 11.4844 4.64844L7.33398 4.64844C6.97266 4.64844 6.74805 4.87305 6.74805 5.24414L6.74805 11.2695L5.81055 11.2695C5.625 11.2695 5.48828 11.4062 5.48828 11.5918C5.48828 11.7773 5.625 11.9141 5.81055 11.9141L6.74805 11.9141L6.74805 12.9492C6.74805 13.291 6.98242 13.5352 7.33398 13.5352Z" fill="var(--color-primary)"/>
 </g>
</svg>
