<svg version="1.1" xmlns="http://www.w3.org/2000/svg" xmlns:xlink="http://www.w3.org/1999/xlink" viewBox="0 0 20.2832 19.9316">
 <g>
  <rect height="19.9316" opacity="0" width="20.2832" x="0" y="0"/>
  <path d="M9.96094 19.9219C15.459 19.9219 19.9219 15.4492 19.9219 9.96094C19.9219 4.46289 15.459 0 9.96094 0C4.47266 0 0 4.46289 0 9.96094C0 15.4492 4.47266 19.9219 9.96094 19.9219Z" fill="var(--color-tertiary)"/>
  <path d="M8.26172 14.6582C7.89062 14.6582 7.64648 14.4043 7.64648 14.043L7.64648 12.9785L6.67969 12.9785C6.48438 12.9785 6.34766 12.8418 6.34766 12.6465C6.34766 12.4609 6.48438 12.3145 6.67969 12.3145L7.64648 12.3145L7.64648 6.10352C7.64648 5.71289 7.88086 5.47852 8.26172 5.47852L12.5391 5.47852C12.8613 5.47852 13.0859 5.70312 13.0859 6.01562C13.0859 6.30859 12.8613 6.5332 12.5391 6.5332L8.85742 6.5332L8.85742 9.45312L12.1875 9.45312C12.5 9.45312 12.7246 9.66797 12.7246 9.96094C12.7246 10.2637 12.5 10.4785 12.1875 10.4785L8.85742 10.4785L8.85742 12.3145L11.0059 12.3145C11.2012 12.3145 11.3379 12.4609 11.3379 12.6465C11.3379 12.8418 11.2012 12.9785 11.0059 12.9785L8.85742 12.9785L8.85742 14.043C8.85742 14.4043 8.60352 14.6582 8.26172 14.6582Z" fill="var(--color-primary)"/>
 </g>
</svg>
