<svg version="1.1" xmlns="http://www.w3.org/2000/svg" xmlns:xlink="http://www.w3.org/1999/xlink" viewBox="0 0 20.2832 19.9512">
 <g>
  <rect height="19.9512" opacity="0" width="20.2832" x="0" y="0"/>
  <path d="M9.96094 19.9512C15.459 19.9512 19.9219 15.4883 19.9219 9.99023C19.9219 4.50195 15.459 0.0292969 9.96094 0.0292969C4.47266 0.0292969 0 4.50195 0 9.99023C0 15.4883 4.47266 19.9512 9.96094 19.9512Z" fill="var(--color-tertiary)"/>
  <path d="M7.34375 8.80859L11.0938 8.80859C11.4551 8.80859 11.6895 8.60352 11.6895 8.27148L11.6895 5.625C11.6895 5.2832 11.4551 5.07812 11.0938 5.07812L7.34375 5.07812C6.96289 5.07812 6.75781 5.2832 6.75781 5.625L6.75781 8.27148C6.75781 8.60352 6.96289 8.80859 7.34375 8.80859ZM5.07812 15.0879C5.07812 14.8535 5.27344 14.6582 5.50781 14.6582L5.91797 14.6582L5.91797 5.51758C5.91797 4.6875 6.34766 4.23828 7.17773 4.23828L11.2402 4.23828C12.0801 4.23828 12.5293 4.6875 12.5293 5.51758L12.5293 8.33984C13.4277 8.70117 13.7988 9.3457 13.7988 10.1855C13.7988 11.0938 13.6914 12.0801 13.6914 12.8125C13.6914 13.3008 13.9844 13.6035 14.4434 13.6035C14.9609 13.6035 15.2539 13.2227 15.2539 12.5195C15.2539 11.5234 15.0684 10.2734 14.7559 8.83789L13.8184 7.83203C13.6328 7.63672 13.6133 7.49023 13.7305 7.26562L14.1406 6.48438C14.1895 6.40625 14.1797 6.32812 14.1406 6.2793L13.4277 5.38086C13.125 5.01953 13.6621 4.61914 13.9453 4.9707L14.502 5.68359C14.7949 6.05469 14.9707 6.46484 15.0586 6.94336L15.1758 7.5C15.6445 9.79492 15.8984 11.25 15.8984 12.5195C15.8984 13.6328 15.3711 14.2383 14.4434 14.2383C13.5938 14.2383 13.0469 13.7012 13.0469 12.8125C13.0469 11.9727 13.1641 10.9863 13.1641 10.1855C13.1641 9.7168 12.9785 9.32617 12.5293 9.0625L12.5293 14.6582L12.9102 14.6582C13.1445 14.6582 13.3496 14.8633 13.3496 15.0879C13.3496 15.332 13.1445 15.5078 12.9102 15.5078L5.50781 15.5078C5.27344 15.5078 5.07812 15.332 5.07812 15.0879Z" fill="var(--color-primary)"/>
 </g>
</svg>
