<svg version="1.1" xmlns="http://www.w3.org/2000/svg" xmlns:xlink="http://www.w3.org/1999/xlink" viewBox="0 0 20.2832 19.9316">
 <g>
  <rect height="19.9316" opacity="0" width="20.2832" x="0" y="0"/>
  <path d="M9.96094 19.9316C15.459 19.9316 19.9219 15.4688 19.9219 9.9707C19.9219 4.48242 15.459 0.00976562 9.96094 0.00976562C4.47266 0.00976562 0 4.48242 0 9.9707C0 15.4688 4.47266 19.9316 9.96094 19.9316Z" fill="var(--color-tertiary)"/>
  <path d="M9.96094 15.6348C9.83398 15.6348 9.70703 15.625 9.58984 15.6152L9.31641 16.1621C9.20898 16.3477 9.01367 16.4258 8.80859 16.4062C8.62305 16.3574 8.47656 16.2305 8.44727 16.0156L8.37891 15.4102C8.13477 15.3418 7.91016 15.2441 7.68555 15.1465L7.24609 15.5762C7.08984 15.7129 6.86523 15.7129 6.68945 15.625C6.51367 15.5176 6.42578 15.3516 6.47461 15.1367L6.62109 14.5312C6.41602 14.3945 6.2207 14.2188 6.04492 14.0527L5.48828 14.2969C5.2832 14.3848 5.09766 14.3164 4.94141 14.1602C4.82422 14.0039 4.79492 13.8184 4.92188 13.623L5.26367 13.1152C5.11719 12.9102 5 12.6855 4.88281 12.4707L4.27734 12.5098C4.07227 12.5195 3.90625 12.3828 3.81836 12.1973C3.75 12.002 3.80859 11.8262 3.97461 11.6895L4.47266 11.3184C4.41406 11.0742 4.375 10.8398 4.3457 10.5957L3.75977 10.4004C3.55469 10.3418 3.4375 10.1855 3.4375 9.9707C3.4375 9.76562 3.55469 9.59961 3.75977 9.54102L4.3457 9.35547C4.375 9.10156 4.41406 8.87695 4.47266 8.63281L3.97461 8.26172C3.81836 8.13477 3.75977 7.93945 3.83789 7.73438C3.89648 7.54883 4.07227 7.42188 4.27734 7.43164L4.88281 7.4707C5 7.23633 5.11719 7.03125 5.25391 6.82617L4.92188 6.31836C4.81445 6.15234 4.83398 5.92773 4.96094 5.77148C5.09766 5.61523 5.29297 5.56641 5.48828 5.64453L6.05469 5.87891C6.2207 5.71289 6.42578 5.55664 6.62109 5.41016L6.47461 4.81445C6.42578 4.60938 6.52344 4.43359 6.70898 4.31641C6.875 4.21875 7.08984 4.22852 7.24609 4.375L7.68555 4.79492C7.91016 4.69727 8.14453 4.60938 8.38867 4.54102L8.44727 3.93555C8.47656 3.7207 8.63281 3.58398 8.83789 3.54492C9.0332 3.51562 9.21875 3.59375 9.31641 3.7793L9.58984 4.32617C9.7168 4.31641 9.83398 4.31641 9.96094 4.31641C10.0879 4.31641 10.2148 4.31641 10.332 4.32617L10.6055 3.7793C10.7129 3.59375 10.8984 3.51562 11.1035 3.54492C11.3086 3.58398 11.4355 3.7207 11.4844 3.93555L11.543 4.54102C11.7871 4.59961 12.0215 4.70703 12.2559 4.79492L12.6855 4.375C12.8418 4.22852 13.0566 4.21875 13.2324 4.32617C13.418 4.43359 13.4863 4.60938 13.457 4.82422L13.3105 5.41016C13.5156 5.56641 13.7012 5.72266 13.877 5.88867L14.4336 5.63477C14.6387 5.56641 14.834 5.625 14.9707 5.78125C15.0977 5.94727 15.1074 6.13281 15.0098 6.32812L14.6777 6.82617C14.8047 7.04102 14.9219 7.25586 15.0391 7.48047L15.6445 7.42188C15.8594 7.43164 16.0254 7.54883 16.0938 7.75391C16.1523 7.94922 16.1133 8.125 15.957 8.27148L15.459 8.63281C15.5078 8.86719 15.5566 9.10156 15.5762 9.35547L16.1719 9.54102C16.3672 9.59961 16.4844 9.76562 16.4844 9.9707C16.4844 10.1855 16.377 10.3418 16.1719 10.4004L15.5762 10.5957C15.5566 10.8398 15.5078 11.0742 15.459 11.3184L15.9473 11.6797C16.1035 11.8164 16.1621 12.0117 16.0938 12.207C16.0156 12.4023 15.8496 12.5195 15.6445 12.5098L15.0391 12.4805C14.9219 12.7051 14.8047 12.9102 14.668 13.1152L15 13.623C15.1172 13.7891 15.0879 14.0234 14.9609 14.1699C14.8242 14.3359 14.6387 14.3848 14.4434 14.2969L13.8672 14.0625C13.7012 14.2285 13.5059 14.3945 13.3008 14.5312L13.4473 15.127C13.4961 15.332 13.3984 15.5176 13.2129 15.625C13.0371 15.7324 12.8418 15.7129 12.6855 15.5762L12.2461 15.1465C12.0117 15.2441 11.7871 15.3418 11.543 15.4102L11.4746 16.0059C11.4453 16.2207 11.2891 16.3672 11.0938 16.4062C10.8789 16.4355 10.7129 16.3477 10.6055 16.1621L10.332 15.6152C10.2051 15.625 10.0879 15.6348 9.96094 15.6348ZM8.11523 5.83008L9.62891 8.39844C9.72656 8.37891 9.84375 8.35938 9.96094 8.35938C10.6738 8.35938 11.2793 8.82812 11.4844 9.46289L14.4629 9.46289C14.209 7.19727 12.2949 5.43945 9.96094 5.43945C9.30664 5.43945 8.68164 5.57617 8.11523 5.83008ZM5.42969 9.9707C5.42969 11.4355 6.11328 12.7344 7.19727 13.5645L8.75 11.0352C8.49609 10.752 8.34961 10.3711 8.34961 9.9707C8.34961 9.57031 8.50586 9.19922 8.75 8.91602L7.23633 6.34766C6.14258 7.16797 5.42969 8.48633 5.42969 9.9707ZM8.07617 14.0918C8.65234 14.3652 9.28711 14.5117 9.96094 14.5117C12.2949 14.5117 14.2285 12.7344 14.4629 10.4688L11.5039 10.4688C11.2891 11.1133 10.6738 11.582 9.96094 11.582C9.85352 11.582 9.73633 11.5723 9.62891 11.543ZM9.375 9.9707C9.375 10.293 9.63867 10.5566 9.96094 10.5566C10.2832 10.5566 10.5469 10.293 10.5469 9.9707C10.5469 9.64844 10.2832 9.38477 9.96094 9.38477C9.63867 9.38477 9.375 9.64844 9.375 9.9707Z" fill="var(--color-primary)"/>
 </g>
</svg>
