<svg version="1.1" xmlns="http://www.w3.org/2000/svg" xmlns:xlink="http://www.w3.org/1999/xlink" viewBox="0 0 18.3398 17.9785">
 <g>
  <rect height="17.9785" opacity="0" width="18.3398" x="0" y="0"/>
  <path d="M3.06641 17.9785L14.9121 17.9785C16.9629 17.9785 17.9785 16.9727 17.9785 14.9609L17.9785 3.02734C17.9785 1.01562 16.9629 0 14.9121 0L3.06641 0C1.02539 0 0 1.01562 0 3.02734L0 14.9609C0 16.9727 1.02539 17.9785 3.06641 17.9785Z" fill="var(--color-tertiary)"/>
  <path d="M6.38672 13.1152C5.9082 13.1152 5.54688 12.7637 5.54688 12.3047C5.54688 11.9141 5.72266 11.6895 6.14258 11.4941L11.25 8.98438L11.25 8.92578L6.14258 6.35742C5.73242 6.16211 5.54688 5.91797 5.54688 5.53711C5.54688 5.08789 5.89844 4.73633 6.36719 4.73633C6.5918 4.73633 6.71875 4.78516 6.88477 4.86328L12.8906 8.0957C13.2812 8.32031 13.4863 8.60352 13.4863 8.98438C13.4863 9.4043 13.3008 9.6582 12.8906 9.87305L6.88477 12.998C6.72852 13.0664 6.5918 13.1152 6.38672 13.1152Z" fill="var(--color-primary)"/>
 </g>
</svg>
