<svg version="1.1" xmlns="http://www.w3.org/2000/svg" xmlns:xlink="http://www.w3.org/1999/xlink" viewBox="0 0 17.4355 19.0708">
 <g>
  <rect height="19.0708" opacity="0" width="17.4355" x="0" y="0"/>
  <path d="M12.5117 18.5735C16.3886 17.1672 18.039 13.6125 16.4863 9.31567L15.7539 7.31372C14.9824 5.19458 13.5273 4.32544 11.8281 4.92114C11.3691 4.32544 10.666 4.12036 9.89449 4.40356C9.61128 4.50122 9.36714 4.64771 9.13277 4.82349C8.63472 4.16919 7.86324 3.93481 7.06245 4.22778C6.84761 4.30591 6.64253 4.4231 6.44722 4.55981L5.3437 1.51294C4.91402 0.350831 3.86909-0.137451 2.78511 0.253174C1.69136 0.653565 1.20308 1.69849 1.61324 2.8606L4.4062 10.5168C4.41597 10.5657 4.4062 10.6047 4.35738 10.6243C4.31831 10.6438 4.28902 10.6243 4.25972 10.5852L3.11714 9.34497C2.55074 8.7395 1.87691 8.56372 1.22261 8.7981C0.324173 9.12036-0.251999 9.96997 0.109329 10.9758C0.206985 11.259 0.412063 11.6106 0.626907 11.8743L3.89839 15.8293C6.37886 18.8274 9.26949 19.7551 12.5117 18.5735ZM12.1015 17.2942C9.53316 18.2317 7.13081 17.7532 4.87495 15.0286L1.61324 11.093C1.50581 10.9758 1.43745 10.8684 1.37886 10.7122C1.26167 10.3899 1.39839 10.0383 1.77925 9.90161C2.08199 9.78442 2.33589 9.90161 2.58003 10.1653L4.83589 12.4993C5.21675 12.8899 5.54878 12.929 5.87105 12.8118C6.26167 12.6653 6.41792 12.2747 6.27144 11.845L2.80464 2.33325C2.65816 1.95239 2.83394 1.5813 3.2148 1.43481C3.59566 1.30786 3.94722 1.47388 4.08394 1.87427L6.55464 8.66138C6.68159 8.98364 7.04292 9.13013 7.35542 9.00317C7.66792 8.89575 7.8437 8.55396 7.72652 8.23169L6.82808 5.79028C6.9648 5.66333 7.15034 5.53638 7.34566 5.47778C7.79488 5.31177 8.17574 5.50708 8.35152 5.9856L9.13277 8.1145C9.25972 8.4563 9.62105 8.58325 9.92378 8.47583C10.2363 8.35864 10.4218 8.03638 10.2949 7.70435L9.66988 5.9563C9.79683 5.82935 9.99214 5.70239 10.1679 5.63403C10.6269 5.46802 11.0175 5.66333 11.1933 6.15161L11.7109 7.58716C11.8281 7.91919 12.1992 8.04614 12.5117 7.92896C12.8046 7.82153 12.9902 7.4895 12.873 7.15747L12.4921 6.10278C13.3027 5.80981 14.0742 6.48364 14.6113 7.93872L15.2168 9.60864C16.5546 13.3 15.3437 16.1125 12.1015 17.2942Z" fill="var(--color-primary)"/>
 </g>
</svg>
