<svg version="1.1" xmlns="http://www.w3.org/2000/svg" xmlns:xlink="http://www.w3.org/1999/xlink" viewBox="0 0 26.7033 24.9188">
 <g>
  <rect height="24.9188" opacity="0" width="26.7033" x="0" y="0"/>
  <path d="M0.749099 6.44864L3.57136 7.05411C3.91316 7.13224 4.11824 7.44474 4.04988 7.77677C3.99129 8.11857 3.64949 8.31388 3.32722 8.25529L0.495192 7.65958C0.172927 7.59122-0.041917 7.27872 0.00691112 6.95646C0.0557392 6.60489 0.38777 6.37052 0.749099 6.44864ZM3.14168 2.09318L5.19246 4.13419C5.4366 4.37833 5.42683 4.75919 5.19246 5.00333C4.95808 5.24747 4.55769 5.24747 4.31355 5.00333L2.27254 2.96232C2.01863 2.70841 2.0284 2.33732 2.27254 2.09318C2.51668 1.84904 2.88777 1.83927 3.14168 2.09318ZM7.83894 0.491613L8.44441 3.31388C8.52254 3.62638 8.28816 3.96818 7.95613 4.03654C7.61433 4.11466 7.30183 3.88029 7.22371 3.55802L6.61824 0.74552C6.54011 0.403723 6.77449 0.0814571 7.10652 0.0130978C7.42879-0.0552616 7.76082 0.149817 7.83894 0.491613Z" fill="var(--color-primary)"/>
  <path d="M22.585 6.5756C22.7901 6.78068 22.9757 7.03458 23.1221 7.36661L25.3292 11.9955C26.9893 15.5111 26.6085 18.5287 24.1768 20.9604C22.9581 22.1791 21.5642 22.8891 20.1178 23.06C20.6619 22.7422 21.1837 22.3324 21.6768 21.8393C22.1587 21.3574 22.5601 20.8516 22.8774 20.3219C22.9805 20.2374 23.0812 20.142 23.1807 20.0424C25.1143 18.1088 25.7003 15.7455 24.1866 12.5424L21.921 7.75724C21.7061 7.29825 21.3741 7.12247 21.0128 7.28849C20.671 7.44474 20.5147 7.7963 20.6807 8.23575L20.9353 8.90361L20.6221 8.24552C20.4757 7.92325 20.2901 7.65958 20.085 7.4545C19.9659 7.33691 19.8387 7.23921 19.7055 7.16316C19.7836 6.94678 19.9088 6.75188 20.0753 6.58536C20.7882 5.88224 21.8526 5.84318 22.585 6.5756ZM14.7628 4.66154L17.5729 7.47658C17.2169 7.82658 17.0457 8.31216 17.116 8.86048L13.9132 5.65763C13.6202 5.36466 13.2198 5.35489 12.9366 5.6381C12.8215 5.75323 12.7531 5.88936 12.7338 6.03014L12.253 5.55021C12.1095 5.40494 11.9591 5.28572 11.8042 5.19338C11.8794 4.98612 12.0035 4.79383 12.1651 4.63224C12.9366 3.86075 13.9522 3.86075 14.7628 4.66154ZM9.66511 5.51114C9.38191 5.79435 9.22566 6.14591 9.2159 6.517C9.1247 6.44694 9.03237 6.38511 8.93922 6.33266C9.0244 6.1169 9.15941 5.91213 9.34285 5.72599C9.48934 5.57949 9.64526 5.46349 9.80811 5.37959Z" fill="var(--color-primary)"/>
  <path d="M21.6768 21.8393C24.0987 19.4174 24.4893 16.3901 22.8292 12.8842L20.6221 8.24552C20.4757 7.92325 20.2901 7.65958 20.085 7.4545C19.3428 6.72208 18.2882 6.76114 17.5753 7.47404C17.0968 7.94279 16.9503 8.65568 17.2725 9.43693L17.9171 10.9897C17.9366 11.0287 17.9366 11.0678 17.9073 11.0971C17.878 11.1361 17.8292 11.1264 17.7999 11.0873L12.253 5.55021C11.4522 4.73966 10.4366 4.73966 9.66511 5.51114C9.38191 5.79435 9.22566 6.14591 9.2159 6.517C8.41511 5.90177 7.52644 5.9213 6.84285 6.61466C6.17879 7.27872 6.14949 8.19669 6.73543 8.97794C6.38386 8.97794 6.04207 9.13419 5.78816 9.3881C5.07527 10.101 5.10457 11.0776 5.86629 11.849L6.628 12.6108C6.25691 12.601 5.86629 12.7768 5.57332 13.0795C4.86043 13.7924 4.88972 14.8178 5.67097 15.5893L11.5987 21.5268C14.8311 24.7592 18.7569 24.7592 21.6768 21.8393ZM20.6807 20.9213C18.2393 23.3627 15.1827 23.2846 12.3995 20.5014L6.67683 14.7787C6.38386 14.4858 6.36433 14.0951 6.64754 13.8022C6.93074 13.519 7.35066 13.519 7.64363 13.8119L11.169 17.3471C11.4229 17.601 11.8038 17.5619 12.0284 17.3373C12.2628 17.1029 12.3018 16.7221 12.0479 16.4682L6.76472 11.185C6.47175 10.892 6.45222 10.5014 6.74519 10.2182C7.0284 9.93497 7.43855 9.93497 7.73152 10.2279L12.6534 15.1498C12.9073 15.4037 13.2882 15.3744 13.5128 15.1401C13.7471 14.9057 13.7862 14.5248 13.5323 14.2709L7.75105 8.48966C7.45808 8.19669 7.44832 7.78654 7.73152 7.50333C8.01472 7.22013 8.42488 7.23966 8.71785 7.53263L14.4991 13.3139C14.7432 13.5483 15.1241 13.5385 15.3585 13.3041C15.5928 13.06 15.6221 12.6791 15.378 12.435L10.4464 7.50333C10.1534 7.21036 10.1534 6.80997 10.4366 6.52677C10.7198 6.2338 11.1202 6.24357 11.4132 6.5463L18.21 13.3432C18.5518 13.685 18.962 13.685 19.2452 13.392C19.4991 13.1479 19.5968 12.8256 19.4014 12.3276L18.1807 9.11466C18.0147 8.68497 18.171 8.32364 18.503 8.16739C18.8741 8.00138 19.2061 8.17716 19.421 8.63614L21.6866 13.4311C23.2003 16.6342 22.6143 18.9877 20.6807 20.9213Z" fill="var(--color-primary)"/>
 </g>
</svg>
