<svg version="1.1" xmlns="http://www.w3.org/2000/svg" xmlns:xlink="http://www.w3.org/1999/xlink" viewBox="0 0 11.8066 17.9785">
 <g>
  <rect height="17.9785" opacity="0" width="11.8066" x="0" y="0"/>
  <path d="M1.5918 17.959L9.85352 17.959C10.8398 17.959 11.4453 17.4023 11.4453 16.3574L11.4453 16.1621C11.4453 13.8086 8.95508 11.3086 7.58789 9.95117C6.97266 9.33594 6.92383 8.65234 7.58789 7.98828C8.95508 6.64062 11.4453 4.15039 11.4453 1.77734L11.4453 1.61133C11.4453 0.566406 10.8398 0 9.85352 0L1.5918 0C0.605469 0 0 0.566406 0 1.61133L0 1.77734C0 4.15039 2.5 6.64062 3.85742 7.98828C4.48242 8.60352 4.53125 9.28711 3.85742 9.95117C2.5 11.3086 0 13.8086 0 16.1621L0 16.3574C0 17.4023 0.605469 17.959 1.5918 17.959ZM2.34375 16.6309C1.92383 16.6309 1.82617 16.1426 2.10938 15.8789L5.25391 12.8809C5.55664 12.6074 5.9082 12.6172 6.19141 12.8809L9.33594 15.8789C9.61914 16.1426 9.52148 16.6309 9.10156 16.6309Z" fill="var(--color-primary)"/>
  <path d="M2.34375 16.6309C1.92383 16.6309 1.82617 16.1426 2.10938 15.8789L5.25391 12.8809C5.55664 12.6074 5.9082 12.6172 6.19141 12.8809L9.33594 15.8789C9.61914 16.1426 9.52148 16.6309 9.10156 16.6309Z" fill="var(--color-tertiary)"/>
 </g>
</svg>
