<svg version="1.1" xmlns="http://www.w3.org/2000/svg" xmlns:xlink="http://www.w3.org/1999/xlink" viewBox="0 0 40.3092 17.002">
 <g>
  <rect height="17.002" opacity="0" width="40.3092" x="0" y="0"/>
  <path d="M12.0566 5.74219L7.66434 5.74219C7.51786 5.74219 7.45927 5.75195 7.35184 5.82031L2.58622 9.10156L7.78419 9.10156L7.77177 9.11133C7.18835 9.56348 7.56887 10.3696 8.19362 10.4395L3.39677 10.4395L3.39677 14.541C3.39677 15.1562 3.71903 15.4785 4.31473 15.4785L9.40919 15.4785C9.60402 16.461 10.3396 17.002 11.4827 17.002L4.012 17.002C2.65458 17.002 1.86356 16.25 1.86356 14.9121L1.86356 10.4395L0.808875 10.4395C-0.0212035 10.4395-0.245813 9.50195 0.291297 9.11133L6.58036 4.72656C6.89286 4.51172 7.25419 4.4043 7.66434 4.4043L13.7582 4.4043ZM9.3538 10.4395L8.37034 10.4395C8.53457 10.4216 8.70981 10.3521 8.88505 10.2148L9.3538 9.84375Z" fill="var(--color-primary)"/>
  <path d="M33.3675 4.72656L39.6565 9.11133C40.2034 9.50195 39.969 10.4395 39.1487 10.4395L38.0843 10.4395L38.0843 14.9121C38.0843 16.25 37.2932 17.002 35.9358 17.002L28.4554 17.002C29.6067 17.002 30.3366 16.461 30.5295 15.4785L35.6331 15.4785C36.2288 15.4785 36.5511 15.1562 36.5511 14.541L36.5511 10.4395L31.7444 10.4395C32.3692 10.3696 32.7497 9.56348 32.1663 9.11133L32.1539 9.10156L37.3616 9.10156L32.596 5.82031C32.4886 5.75195 32.43 5.74219 32.2835 5.74219L27.8814 5.74219L26.1799 4.4043L32.2932 4.4043C32.6936 4.4043 33.0647 4.51172 33.3675 4.72656ZM31.053 10.2148C31.2283 10.3521 31.4035 10.4216 31.5677 10.4395L30.5843 10.4395L30.5843 9.84375Z" fill="var(--color-primary)"/>
  <path d="M8.88505 10.2148L19.5296 1.86523C19.6565 1.76758 19.8225 1.69922 19.969 1.69922C20.1253 1.69922 20.2913 1.76758 20.4182 1.86523L31.053 10.2148C32.0003 10.957 32.9475 9.7168 32.1663 9.11133L21.1995 0.488281C20.7991 0.175781 20.3987 0 19.969 0C19.5491 0 19.139 0.175781 18.7386 0.488281L7.77177 9.11133C6.99052 9.7168 7.93778 10.957 8.88505 10.2148ZM11.4827 17.002L28.4554 17.002C29.8128 17.002 30.5843 16.25 30.5843 14.9121L30.5843 8.42773L29.0608 8.34961L29.0608 14.541C29.0608 15.1562 28.7483 15.4785 28.1429 15.4785L11.7952 15.4785C11.1897 15.4785 10.8772 15.1562 10.8772 14.541L10.8772 8.34961L9.3538 8.42773L9.3538 14.9121C9.3538 16.25 10.135 17.002 11.4827 17.002ZM17.4202 15.9375L22.5179 15.9375L22.5179 11.1328C22.5179 10.7324 22.2444 10.459 21.844 10.459L18.1038 10.459C17.7132 10.459 17.4202 10.7324 17.4202 11.1328Z" fill="var(--color-primary)"/>
 </g>
</svg>
