<svg version="1.1" xmlns="http://www.w3.org/2000/svg" xmlns:xlink="http://www.w3.org/1999/xlink" viewBox="0 0 20.2832 19.9316">
 <g>
  <rect height="19.9316" opacity="0" width="20.2832" x="0" y="0"/>
  <path d="M9.96094 19.9316C15.459 19.9316 19.9219 15.4688 19.9219 9.9707C19.9219 4.48242 15.459 0.00976562 9.96094 0.00976562C4.47266 0.00976562 0 4.48242 0 9.9707C0 15.4688 4.47266 19.9316 9.96094 19.9316Z" fill="var(--color-tertiary)"/>
  <path d="M4.30664 9.82422C3.80859 10.0684 3.55469 9.47266 3.94531 9.27734L7.99805 7.14844C8.33984 6.97266 8.61328 6.97266 8.95508 7.14844L12.8223 9.16992L12.8223 5.48828C12.8223 5.32227 12.9004 5.17578 13.0566 5.11719C13.2031 5.05859 13.3203 5.01953 13.6133 5.01953C14.3066 5.01953 14.7461 5.36133 15.3809 5.36133C15.7031 5.36133 15.8496 5.27344 15.9863 5.27344C16.1426 5.27344 16.2109 5.36133 16.2109 5.48828L16.2109 7.36328C16.2109 7.54883 16.1328 7.66602 15.9668 7.73438C15.8203 7.8125 15.7031 7.8418 15.4102 7.8418C14.7363 7.8418 14.3066 7.50977 13.6328 7.50977C13.5742 7.50977 13.5254 7.50977 13.4863 7.51953L13.4863 13.6914L14.8047 13.6914C14.9902 13.6914 15.1367 13.8379 15.1367 14.0234C15.1367 14.209 14.9902 14.3555 14.8047 14.3555L4.13086 14.3555C3.95508 14.3555 3.80859 14.209 3.80859 14.0234C3.80859 13.8379 3.95508 13.6914 4.13086 13.6914L4.89258 13.6914C4.87305 13.623 4.86328 13.5547 4.86328 13.4668L4.86328 10.1465C4.93164 10.1172 4.99023 10.0781 5.05859 10.0488L8.4668 8.29102L11.875 10.0488C11.9434 10.0781 12.0117 10.1172 12.0801 10.1465L12.0801 13.4668C12.0801 13.5547 12.0703 13.623 12.0508 13.6914L12.8223 13.6914L12.8223 9.87305C12.7441 9.86328 12.6758 9.83398 12.5879 9.79492L8.61328 7.76367C8.51562 7.72461 8.41797 7.72461 8.33008 7.76367ZM7.22656 13.6914L9.70703 13.6914L9.70703 11.0156C9.70703 10.8203 9.58984 10.7031 9.4043 10.7031L7.53906 10.7031C7.35352 10.7031 7.22656 10.8203 7.22656 11.0156Z" fill="var(--color-primary)"/>
 </g>
</svg>
