<svg version="1.1" xmlns="http://www.w3.org/2000/svg" xmlns:xlink="http://www.w3.org/1999/xlink" viewBox="0 0 22.168 20.8496">
 <g>
  <rect height="20.8496" opacity="0" width="22.168" x="0" y="0"/>
  <path d="M1.29883 18.5156L20.5078 18.5156L20.5078 17.8613C20.5078 17.4707 20.2832 17.2363 19.8828 17.2363L19.2578 17.2363L19.2578 6.69922L20.1172 6.69922C20.6543 6.69922 20.9668 6.30859 20.9668 5.9082C20.9668 5.61523 20.8008 5.36133 20.4395 5.15625L12.0996 0.341797C11.709 0.117188 11.2988 0 10.8984 0C10.498 0 10.0781 0.117188 9.70703 0.341797L1.36719 5.15625C0.996094 5.36133 0.839844 5.61523 0.839844 5.9082C0.839844 6.30859 1.15234 6.69922 1.68945 6.69922L2.54883 6.69922L2.54883 17.2363L1.93359 17.2363C1.5332 17.2363 1.29883 17.4707 1.29883 17.8613ZM4.02344 17.2363L4.02344 5.44922L10.5176 1.80664C10.6348 1.73828 10.7715 1.69922 10.8984 1.69922C11.0254 1.69922 11.1621 1.73828 11.2891 1.80664L17.7832 5.44922L17.7832 17.2363ZM0.78125 20.8398L21.0156 20.8398C21.4453 20.8398 21.8066 20.4785 21.8066 20.0488C21.8066 19.6191 21.4453 19.2676 21.0156 19.2676L0.78125 19.2676C0.351562 19.2676 0 19.6191 0 20.0488C0 20.4785 0.351562 20.8398 0.78125 20.8398Z" fill="var(--color-secondary)"/>
  <path d="M9.87305 11.1133C11.416 11.1133 12.5879 10.3027 12.793 8.80859L13.5547 8.80859C13.7402 8.80859 13.8867 8.66211 13.8867 8.48633C13.8867 8.31055 13.7402 8.16406 13.5547 8.16406L12.8125 8.16406C12.7637 7.51953 12.4902 6.92383 11.9922 6.52344L13.5547 6.52344C13.7402 6.52344 13.8867 6.37695 13.8867 6.20117C13.8867 6.00586 13.7402 5.86914 13.5547 5.86914L8.1543 5.86914C7.90039 5.86914 7.75391 6.03516 7.75391 6.30859L7.75391 6.37695C7.75391 6.65039 7.90039 6.81641 8.1543 6.81641L9.74609 6.81641C10.7129 6.81641 11.4844 7.20703 11.6309 8.16406L8.0957 8.16406C7.91016 8.16406 7.76367 8.31055 7.76367 8.48633C7.76367 8.66211 7.91016 8.80859 8.0957 8.80859L11.6309 8.80859C11.4941 9.80469 10.7324 10.1562 9.73633 10.1562L8.37891 10.1562C8.00781 10.1562 7.7832 10.3906 7.7832 10.7031L7.7832 10.7422C7.7832 11.0156 7.90039 11.1816 8.125 11.377L11.4648 14.5117C11.6309 14.668 11.7578 14.7852 12.0117 14.7852C12.2949 14.7852 12.5098 14.5508 12.5098 14.2773C12.5098 14.0918 12.4219 13.9648 12.2754 13.8281L9.36523 11.1133Z" fill="var(--color-primary)"/>
 </g>
</svg>
