<svg version="1.1" xmlns="http://www.w3.org/2000/svg" xmlns:xlink="http://www.w3.org/1999/xlink" viewBox="0 0 12.3926 17.8418">
 <g>
  <rect height="17.8418" opacity="0" width="12.3926" x="0" y="0"/>
  <path d="M8.57422 17.8223C9.08203 17.8223 9.45312 17.4707 9.45312 16.9727C9.45312 16.6602 9.30664 16.4258 9.05273 16.1816L2.76367 10.3613L4.02344 10.3613C7.07031 10.3613 9.50195 8.87695 9.89258 5.82031L11.3867 5.82031C11.7578 5.82031 12.0312 5.54688 12.0312 5.18555C12.0312 4.81445 11.7578 4.54102 11.3867 4.54102L9.91211 4.54102C9.79492 3.16406 9.21875 2.03125 8.23242 1.26953L11.3867 1.2793C11.7578 1.2793 12.0312 1.00586 12.0312 0.644531C12.0312 0.273438 11.7578 0.00976562 11.3867 0.00976562L0.693359 0C0.273438 0 0.00976562 0.302734 0.00976562 0.791016L0.00976562 0.927734C0.00976562 1.39648 0.273438 1.68945 0.693359 1.68945L4.00391 1.68945C6.06445 1.68945 7.64648 2.56836 7.90039 4.54102L0.644531 4.54102C0.273438 4.54102 0 4.81445 0 5.18555C0 5.54688 0.273438 5.82031 0.644531 5.82031L7.91016 5.82031C7.65625 7.85156 5.98633 8.64258 3.93555 8.64258L1.12305 8.64258C0.556641 8.64258 0.0585938 8.99414 0.0585938 9.62891L0.0585938 9.67773C0.0585938 10.1562 0.283203 10.459 0.644531 10.8008L7.66602 17.3535C7.94922 17.627 8.19336 17.8223 8.57422 17.8223Z" fill="var(--color-primary)"/>
 </g>
</svg>
