<svg version="1.1" xmlns="http://www.w3.org/2000/svg" xmlns:xlink="http://www.w3.org/1999/xlink" viewBox="0 0 23.3887 22.5781">
 <g>
  <rect height="22.5781" opacity="0" width="23.3887" x="0" y="0"/>
  <path d="M0.800781 3.24707L3.31055 5.75814L3.31055 18.7158L16.2615 18.7158L17.8329 20.2881L3.06641 20.2881C1.02539 20.2881 0 19.2822 0 17.2607L0 5.33691C0 4.37201 0.233623 3.63851 0.702571 3.13808ZM23.0273 5.33691L23.0273 17.2607C23.0273 18.2135 22.7995 18.9428 22.3389 19.4438C22.3137 19.4112 22.2854 19.3805 22.2559 19.3506L19.7168 16.8102L19.7168 3.88184L6.79515 3.88184L5.22371 2.30957L19.9609 2.30957C22.0117 2.30957 23.0273 3.3252 23.0273 5.33691ZM20.3711 11.2842C20.3711 11.7529 20.7324 12.1338 21.2012 12.1338C21.6797 12.1338 22.0508 11.7529 22.0508 11.2842C22.0508 10.8252 21.6797 10.4443 21.2109 10.4443C20.7422 10.4443 20.3711 10.8252 20.3711 11.2842ZM1.24023 11.2842C1.25 11.5869 1.49414 11.8408 1.78711 11.8311C2.07031 11.8213 2.31445 11.5869 2.31445 11.2842C2.31445 11.001 2.08008 10.7568 1.77734 10.7568C1.48438 10.7568 1.23047 11.001 1.24023 11.2842Z" fill="var(--color-secondary)"/>
  <path d="M20.3711 21.2158C20.6641 21.5088 21.1523 21.5088 21.4355 21.2158C21.7285 20.9229 21.7383 20.4443 21.4453 20.1514L2.68555 1.38184C2.39258 1.08887 1.91406 1.0791 1.61133 1.38184C1.32812 1.66504 1.32812 2.16309 1.61133 2.44629Z" fill="var(--color-primary)"/>
 </g>
</svg>
