<svg version="1.1" xmlns="http://www.w3.org/2000/svg" xmlns:xlink="http://www.w3.org/1999/xlink" viewBox="0 0 20.2832 19.9316">
 <g>
  <rect height="19.9316" opacity="0" width="20.2832" x="0" y="0"/>
  <path d="M19.9219 9.96094C19.9219 15.459 15.459 19.9219 9.96094 19.9219C4.46289 19.9219 0 15.459 0 9.96094C0 4.46289 4.46289 0 9.96094 0C15.459 0 19.9219 4.46289 19.9219 9.96094ZM1.66016 9.96094C1.66016 14.5508 5.37109 18.2617 9.96094 18.2617C14.5508 18.2617 18.2617 14.5508 18.2617 9.96094C18.2617 5.37109 14.5508 1.66016 9.96094 1.66016C5.37109 1.66016 1.66016 5.37109 1.66016 9.96094Z" fill="var(--color-secondary)"/>
  <path d="M7.1875 8.7793L7.1875 14.1309L12.5391 14.1309L13.5894 15.1812C13.3758 15.7627 12.8321 16.123 12.0996 16.123L7.82227 16.123C6.86523 16.123 6.23047 15.5078 6.23047 14.5898L6.23047 7.82227ZM9.47266 15.0293C9.47266 15.3027 9.69727 15.5273 9.9707 15.5273C10.2344 15.5273 10.4492 15.3027 10.4492 15.0293C10.4492 14.7559 10.2344 14.5312 9.9707 14.5312C9.69727 14.5312 9.47266 14.7559 9.47266 15.0293ZM13.6914 5.33203L13.6914 12.0818L12.7344 11.1258L12.7344 5.79102L7.39377 5.79102L6.33499 4.73339C6.55059 4.15625 7.09282 3.79883 7.82227 3.79883L12.0996 3.79883C13.0566 3.79883 13.6914 4.41406 13.6914 5.33203ZM9.08203 4.59961C8.94531 4.59961 8.84766 4.6875 8.84766 4.83398C8.84766 4.9707 8.94531 5.06836 9.08203 5.06836L10.8496 5.06836C10.9863 5.06836 11.0742 4.9707 11.0742 4.83398C11.0742 4.6875 10.9863 4.59961 10.8496 4.59961Z" fill="var(--color-primary)"/>
  <path d="M14.1406 14.7461C14.3066 14.9121 14.5996 14.9219 14.7656 14.7461C14.9414 14.5703 14.9414 14.2969 14.7656 14.1211L5.82031 5.16602C5.63477 4.99023 5.36133 4.99023 5.18555 5.16602C5.00977 5.3418 5.00977 5.625 5.18555 5.79102Z" fill="var(--color-primary)"/>
 </g>
</svg>
