<svg version="1.1" xmlns="http://www.w3.org/2000/svg" xmlns:xlink="http://www.w3.org/1999/xlink" viewBox="0 0 20.2832 19.9316">
 <g>
  <rect height="19.9316" opacity="0" width="20.2832" x="0" y="0"/>
  <path d="M19.9219 9.9707C19.9219 15.4688 15.459 19.9316 9.96094 19.9316C4.47266 19.9316 0 15.4688 0 9.9707C0 4.48242 4.47266 0.00976562 9.96094 0.00976562C15.459 0.00976562 19.9219 4.48242 19.9219 9.9707ZM6.11328 14.7559C6.11328 15.6934 6.76758 16.3281 7.75391 16.3281L12.168 16.3281C12.925 16.3281 13.4864 15.9542 13.7052 15.3556L12.6257 14.2773L7.09961 14.2773L7.09961 8.75704L6.11328 7.77175ZM10.4688 15.1953C10.4688 15.4785 10.2441 15.7129 9.9707 15.7129C9.6875 15.7129 9.45312 15.4785 9.45312 15.1953C9.45312 14.9219 9.6875 14.6777 9.9707 14.6777C10.2441 14.6777 10.4688 14.9219 10.4688 15.1953ZM5.01953 5.0293C4.84375 5.20508 4.85352 5.49805 5.01953 5.67383L14.2676 14.9121C14.4336 15.0879 14.7363 15.0879 14.9121 14.9121C15.0879 14.7266 15.0879 14.4531 14.9121 14.2676L5.67383 5.0293C5.49805 4.84375 5.20508 4.84375 5.01953 5.0293ZM7.75391 3.62305C7.00472 3.62305 6.44709 3.98364 6.22315 4.57276L7.32422 5.67383L12.8223 5.67383L12.8223 11.1719L13.8086 12.1582L13.8086 5.19531C13.8086 4.24805 13.1543 3.62305 12.168 3.62305ZM11.1133 4.6875C11.1133 4.82422 11.0156 4.93164 10.8789 4.93164L9.05273 4.93164C8.91602 4.93164 8.80859 4.82422 8.80859 4.6875C8.80859 4.53125 8.91602 4.44336 9.05273 4.44336L10.8789 4.44336C11.0156 4.44336 11.1133 4.53125 11.1133 4.6875Z" fill="var(--color-primary)"/>
 </g>
</svg>
