<svg version="1.1" xmlns="http://www.w3.org/2000/svg" xmlns:xlink="http://www.w3.org/1999/xlink" viewBox="0 0 32.0361 25.1278">
 <g>
  <rect height="25.1278" opacity="0" width="32.0361" x="0" y="0"/>
  <path d="M24.8022 0.352011C26.062 2.05123 26.7847 4.43404 26.7847 6.84615C26.7847 9.25826 26.0522 11.6215 24.8022 13.3403C24.5386 13.7212 24.0894 13.7993 23.728 13.5551C23.3667 13.311 23.3179 12.852 23.5913 12.4516C24.6362 10.9379 25.271 8.93599 25.271 6.84615C25.271 4.76607 24.6558 2.75435 23.5913 1.24068C23.3081 0.840292 23.3667 0.381307 23.728 0.137167C24.0894-0.106974 24.5386-0.0190832 24.8022 0.352011Z" fill="var(--color-secondary)"/>
  <path d="M21.1597 2.9106C21.9116 3.9067 22.3608 5.35201 22.3608 6.84615C22.3608 8.34029 21.9116 9.79537 21.1597 10.7915C20.896 11.1626 20.437 11.2407 20.105 11.0161C19.7144 10.7329 19.6558 10.2544 19.9585 9.8442C20.5151 9.05318 20.8472 7.97896 20.8472 6.84615C20.8472 5.71334 20.5249 4.62935 19.9585 3.8481C19.646 3.44771 19.7144 2.9692 20.105 2.69576C20.437 2.46139 20.896 2.52974 21.1597 2.9106Z" fill="var(--color-secondary)"/>
  <path d="M10.3491 15.1361L10.3491 21.7778L11.4233 22.852L13.5522 20.6938L12.1655 19.3266L12.1655 17.7055L12.5459 17.3305L13.6718 18.4551L13.6011 18.5258L15.105 20.0297C15.4858 20.4106 15.5054 20.9965 15.1147 21.3872L12.0972 24.4047C11.7163 24.7856 11.1499 24.7368 10.7495 24.395L9.15771 22.9985C8.86475 22.7446 8.76709 22.3735 8.76709 22.0512L8.76709 13.5558ZM17.9468 6.84615C17.9468 9.42759 16.4519 11.604 13.7965 12.8952L12.5926 11.692C14.8913 11.0308 16.3745 9.09224 16.3745 6.84615C16.3745 4.11178 14.1675 1.90474 11.4233 1.90474C9.06934 1.90474 7.10778 3.51733 6.59276 5.69545L5.34667 4.45005C6.2933 2.027 8.64937 0.332479 11.4233 0.332479C15.0366 0.332479 17.9468 3.24264 17.9468 6.84615ZM13.0151 4.96139C13.0151 5.84029 12.3022 6.55318 11.4233 6.55318C10.5444 6.55318 9.84131 5.84029 9.84131 4.96139C9.84131 4.09224 10.5347 3.38912 11.4233 3.38912C12.3022 3.38912 13.0151 4.09224 13.0151 4.96139Z" fill="var(--color-secondary)"/>
  <path d="M1.45264 4.4731L19.1187 22.1196C19.4116 22.4126 19.8999 22.4126 20.1831 22.1196C20.4663 21.8169 20.4761 21.3481 20.1831 21.0551L2.52686 3.40865C2.23389 3.11568 1.75537 3.11568 1.45264 3.40865C1.16943 3.69185 1.16943 4.1899 1.45264 4.4731Z" fill="var(--color-primary)"/>
 </g>
</svg>
