<svg version="1.1" xmlns="http://www.w3.org/2000/svg" xmlns:xlink="http://www.w3.org/1999/xlink" viewBox="0 0 22.168 20.8496">
 <g>
  <rect height="20.8496" opacity="0" width="22.168" x="0" y="0"/>
  <path d="M1.29883 19.707L20.5078 19.707L20.5078 18.5547C20.5078 18.1641 20.2832 17.9297 19.8828 17.9297L19.2578 17.9297L19.2578 6.69922L20.1172 6.69922C20.6543 6.69922 20.9668 6.30859 20.9668 5.9082C20.9668 5.61523 20.8008 5.36133 20.4395 5.15625L12.0996 0.341797C11.709 0.117188 11.2988 0 10.8984 0C10.498 0 10.0781 0.117188 9.70703 0.341797L1.36719 5.15625C0.996094 5.36133 0.839844 5.61523 0.839844 5.9082C0.839844 6.30859 1.15234 6.69922 1.68945 6.69922L2.54883 6.69922L2.54883 17.9297L1.93359 17.9297C1.5332 17.9297 1.29883 18.1641 1.29883 18.5547ZM0.78125 20.8398L21.0156 20.8398C21.4453 20.8398 21.8066 20.4785 21.8066 20.0488C21.8066 19.6191 21.4453 19.2676 21.0156 19.2676L0.78125 19.2676C0.351562 19.2676 0 19.6191 0 20.0488C0 20.4785 0.351562 20.8398 0.78125 20.8398Z" fill="var(--color-tertiary)"/>
  <path d="M8.64258 15.7812C8.27148 15.7812 8.04688 15.5469 8.04688 15.1758L8.04688 11.416L7.35352 11.416C7.14844 11.416 7.01172 11.2793 7.01172 11.084C7.01172 10.8789 7.14844 10.7422 7.35352 10.7422L8.04688 10.7422L8.04688 7.08984C8.04688 6.71875 8.27148 6.49414 8.64258 6.49414C8.99414 6.49414 9.22852 6.71875 9.22852 7.08984L9.22852 10.7422L9.87305 10.7422L12.9883 6.78711C13.1152 6.64062 13.291 6.49414 13.4961 6.49414C13.7891 6.49414 14.0332 6.71875 14.0332 7.01172C14.0332 7.13867 13.9746 7.27539 13.877 7.39258L11.1719 10.7422L13.9258 10.7422C14.1309 10.7422 14.2871 10.8789 14.2871 11.0742C14.2871 11.2598 14.1309 11.416 13.9258 11.416L11.1523 11.416L13.877 14.8438C13.9844 14.9805 14.043 15.1074 14.043 15.2637C14.043 15.4883 13.877 15.7812 13.4961 15.7812C13.2617 15.7812 13.1152 15.6641 12.9688 15.4785L9.86328 11.416L9.22852 11.416L9.22852 15.1758C9.22852 15.5469 8.99414 15.7812 8.64258 15.7812Z" fill="var(--color-primary)"/>
 </g>
</svg>
