<svg version="1.1" xmlns="http://www.w3.org/2000/svg" xmlns:xlink="http://www.w3.org/1999/xlink" viewBox="0 0 18.3398 17.9785">
 <g>
  <rect height="17.9785" opacity="0" width="18.3398" x="0" y="0"/>
  <path d="M3.06641 17.9785L14.9121 17.9785C16.9629 17.9785 17.9785 16.9727 17.9785 14.9609L17.9785 3.02734C17.9785 1.01562 16.9629 0 14.9121 0L3.06641 0C1.02539 0 0 1.01562 0 3.02734L0 14.9609C0 16.9727 1.02539 17.9785 3.06641 17.9785ZM3.08594 16.4062C2.10938 16.4062 1.57227 15.8887 1.57227 14.873L1.57227 3.11523C1.57227 2.09961 2.10938 1.57227 3.08594 1.57227L14.8926 1.57227C15.8594 1.57227 16.4062 2.09961 16.4062 3.11523L16.4062 14.873C16.4062 15.8887 15.8594 16.4062 14.8926 16.4062Z" fill="var(--color-secondary)"/>
  <path d="M5.20508 13.0078C5.20508 13.3691 5.52734 13.7207 5.92773 13.7207L11.5723 13.7207C11.9727 13.7207 12.2852 13.3691 12.2852 13.0078C12.2852 12.627 11.9727 12.3047 11.5723 12.3047L5.92773 12.3047C5.52734 12.3047 5.20508 12.627 5.20508 13.0078ZM11.2402 10.8008C11.6699 10.8008 11.9629 10.459 11.9629 10.0977C11.9629 9.80469 11.7969 9.54102 11.5137 9.42383L7.43164 7.60742L7.43164 7.57812L11.5137 5.77148C11.7969 5.63477 11.9629 5.37109 11.9629 5.08789C11.9629 4.72656 11.6699 4.39453 11.2402 4.39453C11.1328 4.39453 11.0156 4.41406 10.8008 4.51172L5.95703 6.66992C5.48828 6.88477 5.3125 7.20703 5.3125 7.58789C5.3125 8.00781 5.47852 8.31055 5.95703 8.50586L10.8008 10.6738C11.0156 10.7715 11.1328 10.8008 11.2402 10.8008Z" fill="var(--color-primary)"/>
 </g>
</svg>
