<svg version="1.1" xmlns="http://www.w3.org/2000/svg" xmlns:xlink="http://www.w3.org/1999/xlink" viewBox="0 0 24.3653 20.1465">
 <g>
  <rect height="20.1465" opacity="0" width="24.3653" x="0" y="0"/>
  <path d="M8.41803 18.1543C8.08599 18.4766 7.65631 18.4668 7.33404 18.1543C7.02154 17.832 7.01178 17.4023 7.33404 17.0801L13.1926 11.2417C13.3957 11.2633 13.6058 11.2695 13.8184 11.2695C14.3748 11.2695 14.9133 11.2271 15.4274 11.1369ZM10.9782 10.8578L6.04498 15.791C5.72271 16.1133 5.29303 16.1035 4.97076 15.791C4.64849 15.4688 4.63873 15.0293 4.97076 14.707L9.45607 10.2371C9.9309 10.4914 10.4391 10.7003 10.9782 10.8578ZM7.9274 9.18204L3.6817 13.4277C3.35943 13.75 2.92974 13.7402 2.60748 13.4277C2.29498 13.1055 2.28521 12.666 2.60748 12.3438L6.88268 8.08322C7.19076 8.48777 7.53943 8.85608 7.9274 9.18204ZM5.90779 6.46984L1.31842 11.0645C0.996151 11.3867 0.556698 11.377 0.234432 11.0645C-0.0683022 10.7422-0.0878334 10.3027 0.234432 9.98047L5.35432 4.88399C5.4833 5.4469 5.6691 5.9771 5.90779 6.46984Z" fill="var(--color-secondary)"/>
  <path d="M23.252 3.18359C23.6622 3.18359 24.004 2.83203 24.004 2.42188C24.004 2.02148 23.6719 1.66016 23.252 1.66016L4.37506 1.65039C3.9649 1.65039 3.6231 2.01172 3.6231 2.42188C3.6231 2.83203 3.9649 3.17383 4.37506 3.17383ZM13.8184 9.94141C18.2422 9.94141 21.2598 6.875 21.2403 2.44141L19.7266 2.44141C19.7462 5.97656 17.334 8.41797 13.8184 8.41797C10.293 8.41797 7.89068 5.97656 7.91021 2.44141L6.40631 2.44141C6.36724 6.875 9.39459 9.94141 13.8184 9.94141Z" fill="var(--color-primary)"/>
 </g>
</svg>
