<svg version="1.1" xmlns="http://www.w3.org/2000/svg" xmlns:xlink="http://www.w3.org/1999/xlink" viewBox="0 0 18.3398 17.9785">
 <g>
  <rect height="17.9785" opacity="0" width="18.3398" x="0" y="0"/>
  <path d="M3.06641 17.9785L14.9121 17.9785C16.9629 17.9785 17.9785 16.9727 17.9785 14.9609L17.9785 3.02734C17.9785 1.01562 16.9629 0 14.9121 0L3.06641 0C1.02539 0 0 1.01562 0 3.02734L0 14.9609C0 16.9727 1.02539 17.9785 3.06641 17.9785Z" fill="var(--color-tertiary)"/>
  <path d="M3.69141 9.82422C2.8125 9.82422 2.71484 8.87695 3.35938 8.57422L12.8711 4.05273C13.6621 3.68164 14.3262 4.35547 13.9648 5.13672L9.49219 14.6582C9.18945 15.3125 8.24219 15.2246 8.24219 14.3164L8.23242 10.1562C8.23242 9.96094 8.10547 9.82422 7.91992 9.82422Z" fill="var(--color-primary)"/>
 </g>
</svg>
