<svg version="1.1" xmlns="http://www.w3.org/2000/svg" xmlns:xlink="http://www.w3.org/1999/xlink" viewBox="0 0 23.3512 19.9316">
 <g>
  <rect height="19.9316" opacity="0" width="23.3512" x="0" y="0"/>
  <path d="M11.4998 19.9219C14.7908 19.9219 17.7498 18.291 19.5662 15.7617C19.8982 15.332 19.781 14.7852 19.3807 14.541C18.9705 14.2969 18.5115 14.4238 18.2185 14.8242C16.7342 16.8945 14.2732 18.2617 11.4998 18.2617C6.90995 18.2617 3.19901 14.5508 3.19901 9.96094C3.19901 5.37109 6.90995 1.66016 11.4998 1.66016C16.0896 1.66016 19.8006 5.37109 19.8006 9.96094L21.4607 9.96094C21.4607 4.46289 16.9978 0 11.4998 0C6.00175 0 1.53886 4.46289 1.53886 9.96094C1.53886 15.459 6.00175 19.9219 11.4998 19.9219ZM22.6521 8.07617L18.1795 8.07617C17.4861 8.07617 17.3006 8.55469 17.6814 9.0918L19.8689 12.207C20.1814 12.6465 20.6502 12.6562 20.9627 12.207L23.1502 9.10156C23.5408 8.55469 23.3553 8.07617 22.6521 8.07617Z" fill="var(--color-secondary)"/>
  <path d="M7.9744 13.8086C7.9744 14.541 8.29667 14.8828 8.9705 14.8828L14.0291 14.8828C14.7029 14.8828 15.0252 14.541 15.0252 13.8086L15.0252 9.92188C15.0252 9.23828 14.742 8.90625 14.1658 8.86719L14.1658 7.70508C14.1658 5.9082 13.0916 4.70703 11.4998 4.70703C9.908 4.70703 8.83378 5.9082 8.83378 7.70508L8.83378 8.86719C8.25761 8.90625 7.9744 9.23828 7.9744 9.92188ZM9.8494 8.85742L9.8494 7.59766C9.8494 6.45508 10.5135 5.69336 11.4998 5.69336C12.4861 5.69336 13.1502 6.45508 13.1502 7.59766L13.1502 8.85742Z" fill="var(--color-primary)"/>
 </g>
</svg>
