<svg version="1.1" xmlns="http://www.w3.org/2000/svg" xmlns:xlink="http://www.w3.org/1999/xlink" viewBox="0 0 12.9102 20.6934">
 <g>
  <rect height="20.6934" opacity="0" width="12.9102" x="0" y="0"/>
  <path d="M0 18.1348C0 19.6582 1.06445 20.6738 2.65625 20.6738L9.89258 20.6738C11.4844 20.6738 12.5488 19.6582 12.5488 18.1348L12.5488 2.53906C12.5488 1.01562 11.4844 0 9.89258 0L2.65625 0C1.06445 0 0 1.01562 0 2.53906ZM1.57227 17.8809L1.57227 2.79297C1.57227 2.01172 2.03125 1.57227 2.86133 1.57227L9.69727 1.57227C10.5176 1.57227 10.9766 2.01172 10.9766 2.79297L10.9766 17.8809C10.9766 18.6621 10.5176 19.1016 9.69727 19.1016L2.86133 19.1016C2.03125 19.1016 1.57227 18.6621 1.57227 17.8809Z" fill="var(--color-secondary)"/>
  <path d="M4.61914 13.6621L7.93945 13.6621C8.47656 13.6621 8.75 13.3691 8.75 12.8027L8.75 10.2148C8.75 9.76562 8.57422 9.49219 8.23242 9.39453L8.23242 8.78906C8.23242 7.49023 7.44141 6.60156 6.2793 6.60156C5.11719 6.60156 4.32617 7.49023 4.32617 8.78906L4.32617 9.4043C3.98438 9.49219 3.80859 9.76562 3.80859 10.2148L3.80859 12.8027C3.80859 13.3691 4.07227 13.6621 4.61914 13.6621ZM5.29297 9.35547L5.29297 8.70117C5.29297 7.98828 5.67383 7.5293 6.2793 7.5293C6.86523 7.5293 7.26562 7.98828 7.26562 8.70117L7.26562 9.35547Z" fill="var(--color-primary)"/>
 </g>
</svg>
