<svg version="1.1" xmlns="http://www.w3.org/2000/svg" xmlns:xlink="http://www.w3.org/1999/xlink" viewBox="0 0 22.8906 17.041">
 <g>
  <rect height="17.041" opacity="0" width="22.8906" x="0" y="0"/>
  <path d="M8.19336 0C2.5293 0 0 2.60742 0 7.93945L0 14.0625C0 16.0352 1.01562 17.0312 2.99805 17.0312L19.5312 17.0312C21.5137 17.0312 22.5293 16.0254 22.5293 14.0625L22.5293 7.93945C22.5293 2.60742 20 0 14.3359 0Z" fill="var(--color-tertiary)"/>
  <path d="M7.82227 12.4414C7.37305 12.4414 7.12891 12.168 7.12891 11.709L7.12891 5.20508C7.12891 4.81445 7.44141 4.49219 7.83203 4.49219C8.21289 4.49219 8.53516 4.81445 8.53516 5.20508L8.53516 11.2598L10.6055 11.2598C10.9277 11.2598 11.1914 11.5234 11.1914 11.8457C11.1914 12.1777 10.9277 12.4414 10.6055 12.4414ZM13.4863 12.5586C13.0957 12.5586 12.7734 12.2363 12.7734 11.8457L12.7734 5.79102L11.5625 5.79102C11.2305 5.79102 10.9766 5.52734 10.9766 5.18555C10.9766 4.86328 11.2305 4.60938 11.5625 4.60938L15.3613 4.60938C15.6836 4.60938 15.9473 4.86328 15.9473 5.18555C15.9473 5.52734 15.6836 5.79102 15.3613 5.79102L14.1895 5.79102L14.1895 11.8457C14.1895 12.2363 13.8672 12.5586 13.4863 12.5586Z" fill="var(--color-primary)"/>
 </g>
</svg>
