<svg version="1.1" xmlns="http://www.w3.org/2000/svg" xmlns:xlink="http://www.w3.org/1999/xlink" viewBox="0 0 23.8867 19.5996">
 <g>
  <rect height="19.5996" opacity="0" width="23.8867" x="0" y="0"/>
  <path d="M23.5254 11.7578C23.5254 8.88672 22.4902 6.24023 20.7617 4.18945C20.5664 3.95508 20.2344 3.95508 20.0195 4.17969L17.7539 6.44531C17.5684 6.63086 17.5586 6.89453 17.7246 7.09961C18.7305 8.38867 19.3359 10.0098 19.3359 11.7578C19.3359 13.5156 18.7305 15.1367 17.666 16.4941C17.5293 16.6602 17.5391 16.875 17.6855 17.0312L20.0098 19.3555C20.2344 19.5801 20.5566 19.5801 20.7617 19.3359C22.4902 17.2852 23.5254 14.6387 23.5254 11.7578Z" fill="var(--color-secondary)"/>
  <path d="M11.7578 4.18945C13.5254 4.18945 15.1465 4.80469 16.4453 5.81055C16.6406 5.9668 16.8945 5.94727 17.0801 5.76172L19.3457 3.49609C19.5703 3.27148 19.5605 2.94922 19.3262 2.75391C17.2852 1.03516 14.6387 0 11.7578 0C8.88672 0 6.24023 1.03516 4.19922 2.75391C3.96484 2.94922 3.95508 3.27148 4.17969 3.49609L6.44531 5.76172C6.63086 5.94727 6.89453 5.9668 7.10938 5.80078C8.39844 4.80469 10.0098 4.18945 11.7578 4.18945Z" fill="var(--color-secondary)"/>
  <path d="M0 11.7578C0 14.6387 1.03516 17.2852 2.76367 19.3359C2.95898 19.5801 3.29102 19.5801 3.50586 19.3555L5.83008 17.0312C5.97656 16.875 5.99609 16.6602 5.85938 16.4941C4.79492 15.1367 4.18945 13.5156 4.18945 11.7578C4.18945 10.0098 4.78516 8.38867 5.80078 7.09961C5.95703 6.89453 5.95703 6.63086 5.77148 6.44531L3.50586 4.17969C3.28125 3.95508 2.95898 3.95508 2.76367 4.18945C1.03516 6.24023 0 8.88672 0 11.7578Z" fill="var(--color-secondary)"/>
  <path d="M6.74805 15.5078C7.06055 15.5078 7.24609 15.293 7.24609 14.9902L7.24609 12.6074L8.33008 12.6074L9.4043 15.1367C9.50195 15.3809 9.66797 15.5078 9.90234 15.5078C10.2246 15.5078 10.4004 15.293 10.4004 15.0488C10.4004 14.9316 10.3711 14.8438 10.293 14.668L9.29688 12.3926C9.95117 12.0996 10.4199 11.4453 10.4199 10.4688C10.4199 9.16016 9.62891 8.36914 8.28125 8.36914L6.73828 8.36914C6.43555 8.36914 6.24023 8.56445 6.24023 8.87695L6.24023 14.9902C6.24023 15.293 6.43555 15.5078 6.74805 15.5078ZM7.24609 11.7969L7.24609 9.19922L8.18359 9.19922C8.97461 9.19922 9.41406 9.69727 9.41406 10.4883C9.41406 11.2793 9.00391 11.7969 8.19336 11.7969ZM11.8555 15.5078C12.1289 15.5078 12.3047 15.3223 12.3047 15.0391L12.3047 9.88281L12.3535 9.88281L13.7695 14.9023C13.8477 15.166 14.0137 15.3906 14.3359 15.3906C14.6484 15.3906 14.8145 15.1953 14.9023 14.8828L16.3184 9.88281L16.3672 9.88281L16.3672 15.0391C16.3672 15.3223 16.5527 15.5078 16.8262 15.5078C17.0898 15.5078 17.2754 15.3223 17.2754 15.0391L17.2754 8.97461C17.2754 8.53516 17.002 8.27148 16.5625 8.27148C16.1914 8.27148 15.9277 8.49609 15.8301 8.86719L14.3848 14.0723L14.3066 14.0723L12.8418 8.85742C12.7441 8.49609 12.4805 8.27148 12.1191 8.27148C11.6797 8.27148 11.3965 8.54492 11.3965 8.97461L11.3965 15.0391C11.3965 15.3223 11.582 15.5078 11.8555 15.5078Z" fill="var(--color-primary)"/>
 </g>
</svg>
