<svg version="1.1" xmlns="http://www.w3.org/2000/svg" xmlns:xlink="http://www.w3.org/1999/xlink" viewBox="0 0 23.3887 16.748">
 <g>
  <rect height="16.748" opacity="0" width="23.3887" x="0" y="0"/>
  <path d="M3.06641 16.748L19.9609 16.748C22.0117 16.748 23.0273 15.7324 23.0273 13.7207L23.0273 5.52734C23.0273 3.52539 22.0117 2.50977 19.9609 2.50977L18.877 2.50977L18.877 1.20117C18.877 0.458984 18.4473 0.00976562 17.6953 0.00976562L15.7422 0.00976562C15 0.00976562 14.5703 0.458984 14.5703 1.20117L14.5703 2.50977L8.4668 2.50977L8.4668 1.20117C8.4668 0.458984 8.03711 0.00976562 7.28516 0.00976562L5.33203 0.00976562C4.58008 0.00976562 4.15039 0.458984 4.15039 1.20117L4.15039 2.50977L3.06641 2.50977C1.02539 2.50977 0 3.51562 0 5.52734L0 13.7207C0 15.7422 1.02539 16.748 3.06641 16.748ZM1.57227 13.6426L1.57227 5.61523C1.57227 4.59961 2.10938 4.08203 3.08594 4.08203L19.9414 4.08203C20.9082 4.08203 21.4551 4.59961 21.4551 5.61523L21.4551 13.6426C21.4551 14.6484 20.9082 15.1758 19.9414 15.1758L3.08594 15.1758C2.10938 15.1758 1.57227 14.6484 1.57227 13.6426Z" fill="var(--color-secondary)"/>
  <path d="M4.99023 10.332L9.0625 10.332C9.46289 10.332 9.77539 10.0195 9.77539 9.61914C9.77539 9.20898 9.46289 8.89648 9.0625 8.89648L4.99023 8.89648C4.58984 8.89648 4.26758 9.20898 4.26758 9.61914C4.26758 10.0195 4.58984 10.332 4.99023 10.332ZM15.9863 12.5586C16.3867 12.5586 16.6992 12.2461 16.6992 11.8457L16.6992 10.332L18.2129 10.332C18.6133 10.332 18.9355 10.0195 18.9355 9.61914C18.9355 9.20898 18.6133 8.89648 18.2129 8.89648L16.6992 8.89648L16.6992 7.38281C16.6992 6.98242 16.3867 6.66016 15.9863 6.66016C15.5859 6.66016 15.2637 6.98242 15.2637 7.38281L15.2637 8.89648L13.75 8.89648C13.3496 8.89648 13.0371 9.20898 13.0371 9.61914C13.0371 10.0195 13.3496 10.332 13.75 10.332L15.2637 10.332L15.2637 11.8457C15.2637 12.2461 15.5859 12.5586 15.9863 12.5586Z" fill="var(--color-primary)"/>
 </g>
</svg>
