<svg version="1.1" xmlns="http://www.w3.org/2000/svg" xmlns:xlink="http://www.w3.org/1999/xlink" viewBox="0 0 28.0566 23.5645">
 <g>
  <rect height="23.5645" opacity="0" width="28.0566" x="0" y="0"/>
  <path d="M11.0449 7.70508C10.7617 8.30078 10.5566 9.46289 10.5566 10.5176C10.5566 14.6582 13.0078 17.1094 17.1484 17.1094C18.2031 17.1094 19.3457 16.8945 19.9609 16.6309C20.7031 16.2988 21.3184 16.8652 21.0156 17.627C20.7754 18.2126 20.4589 18.76 20.0745 19.2578L6.8081 19.2578C5.79749 17.9102 5.21484 16.2074 5.21484 14.3164C5.21484 10.8594 7.1582 7.8418 10.0488 6.65039C10.8203 6.33789 11.4648 6.82617 11.0449 7.70508Z" fill="var(--color-primary)"/>
  <path d="M2.1875 21.9629L25.5176 21.9629C25.9766 21.9629 26.3672 21.6113 26.3672 21.1816C26.3672 20.752 25.9766 20.4004 25.5176 20.4004L2.1875 20.4004C1.71875 20.4004 1.33789 20.752 1.33789 21.1816C1.33789 21.6113 1.71875 21.9629 2.1875 21.9629Z" fill="var(--color-primary)"/>
  <path d="M18.7891 1.58203C18.3594 1.58203 17.998 1.97266 17.998 2.45117L17.998 7.38281L18.1055 8.85742L17.4902 8.11523L16.1719 6.78711C16.0254 6.65039 15.8398 6.5625 15.6445 6.5625C15.2539 6.5625 14.9805 6.83594 14.9805 7.2168C14.9805 7.42188 15.0488 7.57812 15.2148 7.73438L18.2617 10.5762C18.4668 10.7617 18.6133 10.8301 18.7891 10.8301C18.9746 10.8301 19.1113 10.7617 19.3164 10.5762L22.3633 7.73438C22.5293 7.57812 22.5977 7.42188 22.5977 7.2168C22.5977 6.83594 22.3242 6.5625 21.9336 6.5625C21.748 6.5625 21.5527 6.65039 21.416 6.78711L20.1855 8.01758L19.4727 8.85742L19.5898 7.38281L19.5898 2.45117C19.5898 1.97266 19.2188 1.58203 18.7891 1.58203Z" fill="var(--color-primary)"/>
 </g>
</svg>
