<svg version="1.1" xmlns="http://www.w3.org/2000/svg" xmlns:xlink="http://www.w3.org/1999/xlink" viewBox="0 0 28.0566 25.6934">
 <g>
  <rect height="25.6934" opacity="0" width="28.0566" x="0" y="0"/>
  <path d="M11.0449 8.76953C10.7617 9.36523 10.5566 10.5273 10.5566 11.582C10.5566 15.7227 13.0078 18.1738 17.1484 18.1738C18.2031 18.1738 19.3457 17.959 19.9609 17.6953C20.7031 17.3633 21.3184 17.9297 21.0156 18.6914C20.5766 19.7617 19.8828 20.704 19.0055 21.4648L16.2082 21.4648C17.3183 21.011 18.2904 20.2851 19.043 19.3555C18.4375 19.5605 17.6172 19.6289 16.7578 19.6289C12.1973 19.6289 9.10156 16.5234 9.10156 11.9727C9.10156 11.1035 9.17969 10.2832 9.375 9.6875C7.74414 11.0156 6.73828 13.0176 6.73828 15.2637C6.73828 18.1273 8.33408 20.4609 10.734 21.4648L7.84539 21.4648C6.21016 20.0024 5.21484 17.8524 5.21484 15.3809C5.21484 11.9238 7.1582 8.90625 10.0488 7.71484C10.8203 7.40234 11.4648 7.89062 11.0449 8.76953Z" fill="var(--color-secondary)"/>
  <path d="M2.1875 23.0273L25.5176 23.0273C25.9766 23.0273 26.3672 22.6758 26.3672 22.2461C26.3672 21.8164 25.9766 21.4648 25.5176 21.4648L2.1875 21.4648C1.71875 21.4648 1.33789 21.8164 1.33789 22.2461C1.33789 22.6758 1.71875 23.0273 2.1875 23.0273Z" fill="var(--color-primary)"/>
  <path d="M18.7891 11.8945C19.2188 11.8945 19.5898 11.5039 19.5898 11.0254L19.5898 6.09375L19.4727 4.61914L20.1855 5.44922L21.416 6.68945C21.5527 6.82617 21.748 6.91406 21.9336 6.91406C22.3242 6.91406 22.5977 6.64062 22.5977 6.25977C22.5977 6.05469 22.5293 5.89844 22.3633 5.74219L19.3164 2.90039C19.1113 2.71484 18.9746 2.64648 18.7891 2.64648C18.6133 2.64648 18.4668 2.71484 18.2617 2.90039L15.2148 5.74219C15.0488 5.89844 14.9805 6.05469 14.9805 6.25977C14.9805 6.64062 15.2539 6.91406 15.6445 6.91406C15.8398 6.91406 16.0254 6.82617 16.1719 6.68945L17.4902 5.35156L18.1055 4.61914L17.998 6.09375L17.998 11.0254C17.998 11.5039 18.3594 11.8945 18.7891 11.8945Z" fill="var(--color-primary)"/>
 </g>
</svg>
