<svg version="1.1" xmlns="http://www.w3.org/2000/svg" xmlns:xlink="http://www.w3.org/1999/xlink" viewBox="0 0 18.3398 17.9785">
 <g>
  <rect height="17.9785" opacity="0" width="18.3398" x="0" y="0"/>
  <path d="M3.06641 17.9785L14.9121 17.9785C16.9629 17.9785 17.9785 16.9727 17.9785 14.9609L17.9785 3.02734C17.9785 1.01562 16.9629 0 14.9121 0L3.06641 0C1.02539 0 0 1.01562 0 3.02734L0 14.9609C0 16.9727 1.02539 17.9785 3.06641 17.9785Z" fill="var(--color-tertiary)"/>
  <path d="M5.71289 13.0859C5.26367 13.0859 4.91211 12.7246 4.91211 12.2754C4.91211 12.0605 4.99023 11.8555 5.14648 11.709L7.85156 8.99414L5.14648 6.28906C4.99023 6.13281 4.91211 5.9375 4.91211 5.72266C4.91211 5.26367 5.26367 4.92188 5.71289 4.92188C5.9375 4.92188 6.11328 5 6.26953 5.14648L8.99414 7.86133L11.7383 5.13672C11.9043 4.9707 12.0898 4.90234 12.2949 4.90234C12.7441 4.90234 13.1055 5.25391 13.1055 5.70312C13.1055 5.92773 13.0371 6.10352 12.8711 6.2793L10.1465 8.99414L12.8613 11.6992C13.0176 11.8457 13.0957 12.0508 13.0957 12.2754C13.0957 12.7246 12.7344 13.0859 12.2754 13.0859C12.0605 13.0859 11.8457 13.0078 11.6992 12.8516L8.99414 10.1367L6.29883 12.8516C6.14258 13.0078 5.9375 13.0859 5.71289 13.0859Z" fill="var(--color-primary)"/>
 </g>
</svg>
