<svg version="1.1" xmlns="http://www.w3.org/2000/svg" xmlns:xlink="http://www.w3.org/1999/xlink" viewBox="0 0 18.3398 17.9785">
 <g>
  <rect height="17.9785" opacity="0" width="18.3398" x="0" y="0"/>
  <path d="M17.9785 3.02734L17.9785 14.9609C17.9785 16.9727 16.9629 17.9785 14.9121 17.9785L3.06641 17.9785C1.02539 17.9785 0 16.9727 0 14.9609L0 3.02734C0 1.01562 1.02539 0 3.06641 0L14.9121 0C16.9629 0 17.9785 1.01562 17.9785 3.02734ZM10.8301 4.91211L10.8301 8.65234L9.31641 8.65234L7.4707 4.92188C7.30469 4.56055 7.02148 4.32617 6.61133 4.32617C6.14258 4.32617 5.83008 4.63867 5.83008 5.08789L5.83008 8.65234L5.32227 8.65234C5.12695 8.65234 4.9707 8.79883 4.9707 8.99414C4.9707 9.18945 5.12695 9.33594 5.32227 9.33594L5.83008 9.33594L5.83008 13.0371C5.83008 13.3887 6.07422 13.6328 6.40625 13.6328C6.74805 13.6328 6.98242 13.3887 6.98242 13.0371L6.98242 9.33594L8.50586 9.33594L10.3418 13.0469C10.5176 13.3984 10.7812 13.6328 11.1914 13.6328C11.748 13.6328 11.9727 13.2422 11.9727 12.8711L11.9727 9.33594L12.4902 9.33594C12.6953 9.33594 12.8516 9.18945 12.8516 8.99414C12.8516 8.79883 12.6953 8.65234 12.4902 8.65234L11.9727 8.65234L11.9727 4.91211C11.9727 4.56055 11.748 4.32617 11.3965 4.32617C11.0547 4.32617 10.8301 4.56055 10.8301 4.91211ZM10.8301 11.582L10.7715 11.582L9.64844 9.33594L10.8301 9.33594ZM8.16406 8.65234L6.98242 8.65234L6.98242 6.40625L7.04102 6.40625Z" fill="var(--color-primary)"/>
 </g>
</svg>
