<svg version="1.1" xmlns="http://www.w3.org/2000/svg" xmlns:xlink="http://www.w3.org/1999/xlink" viewBox="0 0 22.168 20.8496">
 <g>
  <rect height="20.8496" opacity="0" width="22.168" x="0" y="0"/>
  <path d="M1.29883 18.5156L20.5078 18.5156L20.5078 17.8613C20.5078 17.4707 20.2832 17.2363 19.8828 17.2363L19.2578 17.2363L19.2578 6.69922L20.1172 6.69922C20.6543 6.69922 20.9668 6.30859 20.9668 5.9082C20.9668 5.61523 20.8008 5.36133 20.4395 5.15625L12.0996 0.341797C11.709 0.117188 11.2988 0 10.8984 0C10.498 0 10.0781 0.117188 9.70703 0.341797L1.36719 5.15625C0.996094 5.36133 0.839844 5.61523 0.839844 5.9082C0.839844 6.30859 1.15234 6.69922 1.68945 6.69922L2.54883 6.69922L2.54883 17.2363L1.93359 17.2363C1.5332 17.2363 1.29883 17.4707 1.29883 17.8613ZM4.02344 17.2363L4.02344 5.44922L10.5176 1.80664C10.6348 1.73828 10.7715 1.69922 10.8984 1.69922C11.0254 1.69922 11.1621 1.73828 11.2891 1.80664L17.7832 5.44922L17.7832 17.2363ZM0.78125 20.8398L21.0156 20.8398C21.4453 20.8398 21.8066 20.4785 21.8066 20.0488C21.8066 19.6191 21.4453 19.2676 21.0156 19.2676L0.78125 19.2676C0.351562 19.2676 0 19.6191 0 20.0488C0 20.4785 0.351562 20.8398 0.78125 20.8398Z" fill="var(--color-secondary)"/>
  <path d="M7.67578 14.2773C7.98828 14.2773 8.20312 14.0527 8.20312 13.7109L8.20312 12.0605L8.7793 11.5039L10.5664 14.0039C10.6836 14.1699 10.8398 14.2773 11.0449 14.2773C11.3281 14.2773 11.5527 14.0723 11.5527 13.7988C11.5527 13.6621 11.4941 13.5449 11.4062 13.418L9.54102 10.8398L11.2793 9.01367C11.4062 8.86719 11.4746 8.78906 11.4746 8.62305C11.4746 8.36914 11.2695 8.1543 10.9961 8.1543C10.8398 8.1543 10.6738 8.25195 10.5762 8.35938L8.23242 10.9277L8.20312 10.9277L8.20312 6.42578C8.20312 6.08398 7.98828 5.84961 7.67578 5.84961C7.35352 5.84961 7.12891 6.07422 7.12891 6.41602L7.12891 13.7109C7.12891 14.0527 7.35352 14.2773 7.67578 14.2773ZM13.1738 14.2773C13.418 14.2773 13.6914 14.1309 13.6914 13.7109L13.6914 10.6543C13.6914 9.95117 13.9551 9.18945 14.7949 9.18945C14.9902 9.18945 15.1855 9.16016 15.332 9.07227C15.459 9.00391 15.5371 8.88672 15.5371 8.71094C15.5371 8.34961 15.2637 8.1543 14.9023 8.1543C14.2773 8.1543 13.8477 8.70117 13.7012 9.32617L13.6426 9.32617L13.6426 8.70117C13.6426 8.38867 13.4277 8.1543 13.1543 8.1543C12.8711 8.1543 12.6562 8.38867 12.6562 8.70117L12.6562 13.7109C12.6562 14.0527 12.8418 14.2773 13.1738 14.2773Z" fill="var(--color-primary)"/>
 </g>
</svg>
