<svg version="1.1" xmlns="http://www.w3.org/2000/svg" xmlns:xlink="http://www.w3.org/1999/xlink" viewBox="0 0 20.2832 19.9316">
 <g>
  <rect height="19.9316" opacity="0" width="20.2832" x="0" y="0"/>
  <path d="M9.96094 19.9219C15.459 19.9219 19.9219 15.4492 19.9219 9.96094C19.9219 4.46289 15.459 0 9.96094 0C4.47266 0 0 4.46289 0 9.96094C0 15.4492 4.47266 19.9219 9.96094 19.9219Z" fill="var(--color-tertiary)"/>
  <path d="M13.7402 11.0547C14.2773 11.0547 14.6289 11.3281 14.6289 11.8457C14.6289 12.3535 14.2578 12.6074 13.7402 12.6074L8.99414 12.6074L7.72461 14.3457C7.42188 14.7656 6.99219 14.9023 6.58203 14.5996C6.17188 14.2969 6.15234 13.8574 6.47461 13.4277L7.06055 12.6074L6.17188 12.6074C5.6543 12.6074 5.2832 12.3535 5.2832 11.8457C5.2832 11.3281 5.63477 11.0547 6.17188 11.0547L8.20312 11.0547L9.80469 8.88672L6.17188 8.88672C5.6543 8.88672 5.2832 8.63281 5.2832 8.11523C5.2832 7.59766 5.63477 7.33398 6.17188 7.33398L10.9375 7.33398L12.1973 5.625C12.5098 5.18555 12.9199 5.07812 13.3398 5.38086C13.7598 5.68359 13.75 6.12305 13.4277 6.54297L12.8516 7.33398L13.7402 7.33398C14.2773 7.33398 14.6289 7.59766 14.6289 8.11523C14.6289 8.63281 14.2578 8.88672 13.7402 8.88672L11.7285 8.88672L10.127 11.0547Z" fill="var(--color-primary)"/>
 </g>
</svg>
