<svg version="1.1" xmlns="http://www.w3.org/2000/svg" xmlns:xlink="http://www.w3.org/1999/xlink" viewBox="0 0 18.3398 17.9785">
 <g>
  <rect height="17.9785" opacity="0" width="18.3398" x="0" y="0"/>
  <path d="M3.06641 17.9785L14.9121 17.9785C16.9629 17.9785 17.9785 16.9727 17.9785 14.9609L17.9785 3.02734C17.9785 1.01562 16.9629 0 14.9121 0L3.06641 0C1.02539 0 0 1.01562 0 3.02734L0 14.9609C0 16.9727 1.02539 17.9785 3.06641 17.9785Z" fill="var(--color-tertiary)"/>
  <path d="M2.41211 16.5234C3.16406 14.043 5.80078 12.2559 9.00391 12.2559C12.1973 12.2559 14.834 14.043 15.5859 16.5234ZM8.99414 10.625C7.12891 10.6055 5.66406 9.05273 5.6543 6.96289C5.64453 5 7.12891 3.37891 8.99414 3.37891C10.8594 3.37891 12.334 5 12.334 6.96289C12.334 9.05273 10.8594 10.6445 8.99414 10.625Z" fill="var(--color-primary)"/>
 </g>
</svg>
