<svg version="1.1" xmlns="http://www.w3.org/2000/svg" xmlns:xlink="http://www.w3.org/1999/xlink" viewBox="0 0 21.5137 19.0918">
 <g>
  <rect height="19.0918" opacity="0" width="21.5137" x="0" y="0"/>
  <path d="M1.66992 18.3203L14.7656 18.3203C15.8105 18.3203 16.4355 17.832 16.4355 17.0215C16.4355 14.502 13.2812 11.0254 8.21289 11.0254C3.1543 11.0254 0 14.502 0 17.0215C0 17.832 0.625 18.3203 1.66992 18.3203ZM8.22266 9.27734C10.3125 9.27734 12.1289 7.40234 12.1289 4.96094C12.1289 2.54883 10.3125 0.761719 8.22266 0.761719C6.13281 0.761719 4.31641 2.58789 4.31641 4.98047C4.31641 7.40234 6.12305 9.27734 8.22266 9.27734Z" fill="var(--color-secondary)"/>
  <path d="M17.7441 7.02148C18.2324 7.02148 18.5254 6.70898 18.5254 6.31836C18.5254 6.28906 18.5254 6.24023 18.5254 6.20117C18.5254 5.6543 18.8477 5.3125 19.5312 4.86328C20.4785 4.23828 21.1523 3.66211 21.1523 2.5C21.1523 0.878906 19.707 0 18.0469 0C16.3672 0 15.2637 0.800781 15 1.68945C14.9512 1.85547 14.9219 2.01172 14.9219 2.17773C14.9219 2.61719 15.2637 2.85156 15.5859 2.85156C15.918 2.85156 16.1328 2.69531 16.3086 2.46094L16.4844 2.22656C16.8262 1.65039 17.334 1.32812 17.9883 1.32812C18.877 1.32812 19.4531 1.83594 19.4531 2.57812C19.4531 3.24219 19.043 3.56445 18.1836 4.16016C17.4902 4.64844 16.9629 5.16602 16.9629 6.12305C16.9629 6.16211 16.9629 6.20117 16.9629 6.24023C16.9629 6.75781 17.2461 7.02148 17.7441 7.02148ZM17.7246 9.93164C18.2812 9.93164 18.7793 9.48242 18.7793 8.91602C18.7793 8.34961 18.291 7.90039 17.7246 7.90039C17.1484 7.90039 16.6699 8.35938 16.6699 8.91602C16.6699 9.47266 17.1582 9.93164 17.7246 9.93164Z" fill="var(--color-primary)"/>
 </g>
</svg>
