<svg version="1.1" xmlns="http://www.w3.org/2000/svg" xmlns:xlink="http://www.w3.org/1999/xlink" viewBox="0 0 20.2832 19.9316">
 <g>
  <rect height="19.9316" opacity="0" width="20.2832" x="0" y="0"/>
  <path d="M19.9219 9.96094C19.9219 15.4492 15.459 19.9219 9.96094 19.9219C4.47266 19.9219 0 15.4492 0 9.96094C0 4.46289 4.47266 0 9.96094 0C15.459 0 19.9219 4.46289 19.9219 9.96094ZM6.74805 12.4512C6.11328 12.4512 5.85938 12.7637 5.85938 13.3398L5.85938 14.6191L5.75195 14.6191C5.49805 14.6191 5.30273 14.8242 5.30273 15.0781C5.30273 15.332 5.49805 15.5371 5.75195 15.5371L14.1602 15.5371C14.4141 15.5371 14.6094 15.332 14.6094 15.0781C14.6094 14.8242 14.4141 14.6191 14.1602 14.6191L14.0527 14.6191L14.0527 13.3398C14.0527 12.7637 13.7988 12.4512 13.1641 12.4512ZM11.416 14.0039C11.416 14.1797 11.2695 14.3262 11.0742 14.3262L8.83789 14.3262C8.64258 14.3262 8.51562 14.1797 8.51562 14.0039C8.51562 13.8184 8.64258 13.6816 8.83789 13.6816L11.0742 13.6816C11.2695 13.6816 11.416 13.8184 11.416 14.0039ZM6.12305 11.1816C6.12305 11.4844 6.31836 11.6992 6.66016 11.6992L13.2422 11.6992C13.584 11.6992 13.7793 11.4844 13.7793 11.1816C13.7793 10.2832 12.4902 8.33008 9.95117 8.33008C7.41211 8.33008 6.12305 10.2832 6.12305 11.1816ZM8.07617 5.60547C8.07617 6.77734 8.91602 7.65625 9.95117 7.65625C10.9961 7.66602 11.8262 6.77734 11.8262 5.60547C11.8262 4.50195 10.9961 3.59375 9.95117 3.59375C8.91602 3.59375 8.07617 4.50195 8.07617 5.60547Z" fill="var(--color-primary)"/>
 </g>
</svg>
