<svg version="1.1" xmlns="http://www.w3.org/2000/svg" xmlns:xlink="http://www.w3.org/1999/xlink" viewBox="0 0 20.2832 19.9316">
 <g>
  <rect height="19.9316" opacity="0" width="20.2832" x="0" y="0"/>
  <path d="M9.96094 19.9316C15.459 19.9316 19.9219 15.4688 19.9219 9.9707C19.9219 4.48242 15.459 0.00976562 9.96094 0.00976562C4.47266 0.00976562 0 4.48242 0 9.9707C0 15.4688 4.47266 19.9316 9.96094 19.9316Z" fill="var(--color-tertiary)"/>
  <path d="M7.62695 12.2754C5.99609 10.6445 4.77539 8.7207 4.77539 7.13867C4.77539 6.44531 5.0293 5.82031 5.48828 5.38086C5.81055 5.07812 6.25977 4.78516 6.63086 4.78516C6.93359 4.78516 7.12891 5.00977 7.39258 5.38086L8.33008 6.67969C8.55469 6.98242 8.61328 7.20703 8.61328 7.43164C8.61328 7.62695 8.57422 7.75391 8.41797 7.99805L7.91016 8.89648C7.87109 8.96484 7.82227 9.0332 7.82227 9.10156C7.82227 9.18945 7.86133 9.27734 7.88086 9.3457C8.0957 9.75586 8.51562 10.3027 9.0332 10.8301C9.57031 11.3477 10.1562 11.8164 10.5859 12.0117C10.6836 12.0508 10.752 12.0898 10.8594 12.0898C10.9375 12.0898 10.9863 12.0605 11.084 12.0117L11.9824 11.5234C12.2754 11.3574 12.4219 11.3281 12.5781 11.3281C12.793 11.3281 12.9395 11.3672 13.2812 11.6211L14.6289 12.5879C15.0098 12.8516 15.1465 13.0664 15.1465 13.291C15.1465 13.6035 15.0195 13.9355 14.5996 14.3945C14.1797 14.8633 13.5352 15.1562 12.8027 15.1562C11.2207 15.1562 9.26758 13.9062 7.62695 12.2754Z" fill="var(--color-primary)"/>
 </g>
</svg>
