<svg version="1.1" xmlns="http://www.w3.org/2000/svg" xmlns:xlink="http://www.w3.org/1999/xlink" viewBox="0 0 20.2832 19.9316">
 <g>
  <rect height="19.9316" opacity="0" width="20.2832" x="0" y="0"/>
  <path d="M9.96094 19.9316C15.459 19.9316 19.9219 15.4688 19.9219 9.9707C19.9219 4.48242 15.459 0.00976562 9.96094 0.00976562C4.47266 0.00976562 0 4.48242 0 9.9707C0 15.4688 4.47266 19.9316 9.96094 19.9316Z" fill="var(--color-tertiary)"/>
  <path d="M6.92383 13.0273C5.29297 11.3965 4.07227 9.47266 4.07227 7.89062C4.07227 7.19727 4.31641 6.57227 4.77539 6.12305C5.10742 5.82031 5.55664 5.53711 5.92773 5.53711C6.23047 5.53711 6.42578 5.75195 6.68945 6.12305L7.61719 7.42188C7.8418 7.72461 7.91016 7.95898 7.91016 8.18359C7.91016 8.36914 7.87109 8.50586 7.71484 8.75L7.19727 9.63867C7.1582 9.7168 7.11914 9.78516 7.11914 9.84375C7.11914 9.93164 7.1582 10.0293 7.17773 10.0977C7.39258 10.5078 7.8125 11.0547 8.32031 11.5723C8.85742 12.0996 9.44336 12.5586 9.87305 12.7637C9.98047 12.8027 10.0586 12.832 10.1562 12.832C10.2344 12.832 10.2832 12.8125 10.3906 12.7637L11.2695 12.2656C11.5723 12.1094 11.709 12.0801 11.875 12.0801C12.0801 12.0801 12.2266 12.1191 12.5684 12.373L13.9258 13.3398C14.2969 13.6035 14.4434 13.8086 14.4434 14.043C14.4434 14.3555 14.3164 14.6875 13.8965 15.1367C13.4668 15.6152 12.832 15.9082 12.0898 15.9082C10.5176 15.9082 8.55469 14.6582 6.92383 13.0273ZM10.5176 10.0586C10.2148 10.0586 9.99023 9.85352 9.99023 9.56055C9.99023 9.4043 10.0293 9.27734 10.1562 9.16016L12.5977 6.71875L13.3008 6.06445L11.9727 6.13281L11.0938 6.13281C10.8008 6.13281 10.5859 5.92773 10.5762 5.64453C10.5566 5.3418 10.8008 5.08789 11.0938 5.08789L14.3945 5.08789C14.7559 5.08789 14.9609 5.29297 14.9609 5.6543L14.9609 8.93555C14.9609 9.23828 14.7168 9.48242 14.4043 9.47266C14.1211 9.44336 13.916 9.21875 13.916 8.93555L13.916 8.0957L13.9844 6.75781L13.3398 7.46094L10.8887 9.92188C10.8008 10.0195 10.6641 10.0586 10.5176 10.0586Z" fill="var(--color-primary)"/>
 </g>
</svg>
