<svg version="1.1" xmlns="http://www.w3.org/2000/svg" xmlns:xlink="http://www.w3.org/1999/xlink" viewBox="0 0 20.2832 19.9316">
 <g>
  <rect height="19.9316" opacity="0" width="20.2832" x="0" y="0"/>
  <path d="M9.96094 19.9219C15.459 19.9219 19.9219 15.459 19.9219 9.96094C19.9219 4.46289 15.459 0 9.96094 0C4.46289 0 0 4.46289 0 9.96094C0 15.459 4.46289 19.9219 9.96094 19.9219ZM9.96094 18.2617C5.37109 18.2617 1.66016 14.5508 1.66016 9.96094C1.66016 5.37109 5.37109 1.66016 9.96094 1.66016C14.5508 1.66016 18.2617 5.37109 18.2617 9.96094C18.2617 14.5508 14.5508 18.2617 9.96094 18.2617Z" fill="var(--color-secondary)"/>
  <path d="M9.9707 7.49023C7.72461 7.49023 5.57617 7.97852 4.49219 9.0625C4.01367 9.55078 3.75 10.1465 3.76953 10.7617C3.7793 11.2012 3.88672 11.6992 4.14062 11.9531C4.3457 12.1582 4.63867 12.1484 5.07812 12.0703L6.60156 11.8262C6.96289 11.7578 7.16797 11.6504 7.31445 11.5039C7.44141 11.3672 7.5 11.25 7.56836 10.9766L7.83203 10.0098C7.86133 9.93164 7.87109 9.86328 7.91992 9.82422C7.98828 9.75586 8.06641 9.7168 8.125 9.6875C8.55469 9.55078 9.21875 9.46289 9.93164 9.46289C10.6543 9.46289 11.3672 9.55078 11.8164 9.70703C11.9141 9.75586 11.9727 9.78516 12.0508 9.85352C12.0996 9.90234 12.1191 9.95117 12.1582 10.0586L12.4316 10.9961C12.5293 11.3184 12.5977 11.4258 12.7148 11.5527C12.8516 11.6895 12.9883 11.7578 13.3887 11.8262L14.9805 12.0898C15.4199 12.168 15.6543 12.1289 15.8203 11.9629C16.0352 11.748 16.1719 11.4258 16.2012 10.8301C16.2305 10.2148 15.9961 9.57031 15.4883 9.07227C14.4043 7.99805 12.207 7.49023 9.9707 7.49023Z" fill="var(--color-primary)"/>
 </g>
</svg>
