<svg version="1.1" xmlns="http://www.w3.org/2000/svg" xmlns:xlink="http://www.w3.org/1999/xlink" viewBox="0 0 23.3678 20.0293">
 <g>
  <rect height="20.0293" opacity="0" width="23.3678" x="0" y="0"/>
  <path d="M23.0072 14.1895C22.6654 11.709 20.5267 9.78516 17.9388 9.78516C15.3509 9.78516 13.222 11.709 12.8802 14.1895ZM23.0072 15.6152L12.8802 15.6152C13.2318 18.1055 15.3509 20.0293 17.9388 20.0293C20.5462 20.0293 22.6654 18.1055 23.0072 15.6152Z" fill="var(--color-primary)"/>
  <path d="M10.2532 11.6797L4.46223 5.88867L1.39583 8.96484C-0.430344 10.7812-0.459641 13.1348 1.27864 14.8633C3.02669 16.6016 5.37044 16.5625 7.17708 14.7559Z" fill="var(--color-primary)"/>
  <path d="M11.2786 10.6445L14.345 7.57812C16.1712 5.76172 16.2005 3.4082 14.4622 1.67969C12.7142-0.0585938 10.3704-0.00976562 8.5638 1.79688L5.49739 4.86328Z" fill="var(--color-primary)"/>
 </g>
</svg>
