<svg version="1.1" xmlns="http://www.w3.org/2000/svg" xmlns:xlink="http://www.w3.org/1999/xlink" viewBox="0 0 12.9102 20.6934">
 <g>
  <rect height="20.6934" opacity="0" width="12.9102" x="0" y="0"/>
  <path d="M0 18.1348C0 19.6582 1.06445 20.6738 2.65625 20.6738L9.89258 20.6738C11.4844 20.6738 12.5488 19.6582 12.5488 18.1348L12.5488 2.53906C12.5488 1.01562 11.4844 0 9.89258 0L2.65625 0C1.06445 0 0 1.01562 0 2.53906ZM1.57227 17.8809L1.57227 2.79297C1.57227 2.01172 2.03125 1.57227 2.86133 1.57227L9.69727 1.57227C10.5176 1.57227 10.9766 2.01172 10.9766 2.79297L10.9766 17.8809C10.9766 18.6621 10.5176 19.1016 9.69727 19.1016L2.86133 19.1016C2.03125 19.1016 1.57227 18.6621 1.57227 17.8809Z" fill="var(--color-secondary)"/>
  <path d="M3.57422 9.25781C3.57422 9.57031 3.78906 9.77539 4.08203 9.77539C4.23828 9.78516 4.35547 9.7168 4.46289 9.61914L5.25391 8.83789L5.79102 8.16406L5.74219 9.41406L5.74219 12.168C5.74219 12.4707 5.9668 12.6953 6.2793 12.6953C6.5918 12.6953 6.80664 12.4707 6.80664 12.168L6.80664 9.41406L6.76758 8.16406L7.30469 8.83789L8.08594 9.61914C8.19336 9.7168 8.31055 9.78516 8.4668 9.77539C8.76953 9.77539 8.98438 9.57031 8.98438 9.25781C8.98438 9.12109 8.94531 8.98438 8.84766 8.88672L6.67969 6.73828C6.5625 6.62109 6.41602 6.55273 6.2793 6.55273C6.13281 6.55273 5.98633 6.62109 5.86914 6.73828L3.70117 8.88672C3.60352 8.98438 3.57422 9.12109 3.57422 9.25781ZM3.69141 5.75195L8.86719 5.75195C9.38477 5.75195 9.73633 5.41016 9.73633 4.86328L9.73633 3.70117C9.73633 3.16406 9.38477 2.8125 8.86719 2.8125L3.69141 2.8125C3.16406 2.8125 2.82227 3.16406 2.82227 3.70117L2.82227 4.86328C2.82227 5.41016 3.16406 5.75195 3.69141 5.75195Z" fill="var(--color-primary)"/>
 </g>
</svg>
