<svg version="1.1" xmlns="http://www.w3.org/2000/svg" xmlns:xlink="http://www.w3.org/1999/xlink" viewBox="0 0 22.5124 22.1608">
 <g>
  <rect height="22.1608" opacity="0" width="22.5124" x="0" y="0"/>
  <path d="M13.2435 1.09505L21.056 8.90755C22.5013 10.3529 22.5111 11.7884 21.0853 13.2142L13.224 21.0853C11.7884 22.5111 10.3626 22.5013 8.91731 21.056L1.09505 13.2337C-0.350264 11.7884-0.369795 10.3626 1.06575 8.92708L8.93685 1.06575C10.3724-0.369795 11.7982-0.350264 13.2435 1.09505ZM10.2357 7.16927L10.2357 10.2259L7.17903 10.2259C6.67122 10.2259 6.30989 10.5775 6.30989 11.0853C6.30989 11.5833 6.67122 11.9154 7.17903 11.9154L10.2357 11.9154L10.2357 14.9818C10.2357 15.4798 10.5775 15.8411 11.0658 15.8411C11.5833 15.8411 11.9251 15.4896 11.9251 14.9818L11.9251 11.9154L14.9915 11.9154C15.4896 11.9154 15.8509 11.5833 15.8509 11.0853C15.8509 10.5775 15.4993 10.2259 14.9915 10.2259L11.9251 10.2259L11.9251 7.16927C11.9251 6.66145 11.5833 6.30013 11.0658 6.30013C10.5775 6.30013 10.2357 6.66145 10.2357 7.16927Z" fill="var(--color-primary)"/>
 </g>
</svg>
