<svg version="1.1" xmlns="http://www.w3.org/2000/svg" xmlns:xlink="http://www.w3.org/1999/xlink" viewBox="0 0 18.3398 17.9785">
 <g>
  <rect height="17.9785" opacity="0" width="18.3398" x="0" y="0"/>
  <path d="M3.06641 17.9785L14.9121 17.9785C16.9629 17.9785 17.9785 16.9727 17.9785 14.9609L17.9785 3.02734C17.9785 1.01562 16.9629 0 14.9121 0L3.06641 0C1.02539 0 0 1.01562 0 3.02734L0 14.9609C0 16.9727 1.02539 17.9785 3.06641 17.9785Z" fill="var(--color-tertiary)"/>
  <path d="M4.22852 8.99414C4.22852 8.48633 4.58008 8.13477 5.08789 8.13477L8.14453 8.13477L8.14453 5.07812C8.14453 4.57031 8.48633 4.20898 8.98438 4.20898C9.49219 4.20898 9.84375 4.57031 9.84375 5.07812L9.84375 8.13477L12.9102 8.13477C13.4082 8.13477 13.7695 8.48633 13.7695 8.99414C13.7695 9.49219 13.4082 9.82422 12.9102 9.82422L9.84375 9.82422L9.84375 12.8906C9.84375 13.3984 9.49219 13.75 8.98438 13.75C8.48633 13.75 8.14453 13.3887 8.14453 12.8906L8.14453 9.82422L5.08789 9.82422C4.58008 9.82422 4.22852 9.49219 4.22852 8.99414Z" fill="var(--color-primary)"/>
 </g>
</svg>
