<svg version="1.1" xmlns="http://www.w3.org/2000/svg" xmlns:xlink="http://www.w3.org/1999/xlink" viewBox="0 0 18.8379 18.4473">
 <g>
  <rect height="18.4473" opacity="0" width="18.8379" x="0" y="0"/>
  <path d="M0 4.90234C0 5.2832 0.302734 5.58594 0.693359 5.58594L2.67578 5.58594L2.67578 7.57812C2.67578 7.96875 2.98828 8.26172 3.35938 8.26172C3.75 8.26172 4.05273 7.95898 4.05273 7.57812L4.05273 5.58594L6.04492 5.58594C6.42578 5.58594 6.73828 5.2832 6.73828 4.90234C6.73828 4.52148 6.42578 4.20898 6.04492 4.20898L4.05273 4.20898L4.05273 2.2168C4.05273 1.83594 3.74023 1.52344 3.35938 1.52344C2.97852 1.52344 2.67578 1.83594 2.67578 2.2168L2.67578 4.20898L0.693359 4.20898C0.302734 4.20898 0 4.52148 0 4.90234ZM9.91211 9.61914L15.5762 1.24023C15.7129 1.05469 15.7617 0.888672 15.7617 0.693359C15.7617 0.302734 15.4199 0 15.0195 0C14.6777 0 14.4922 0.107422 14.2188 0.507812L8.61328 8.82812L2.93945 17.1875C2.8125 17.373 2.74414 17.5293 2.74414 17.7441C2.74414 18.1641 3.0957 18.4473 3.52539 18.4473C3.84766 18.4473 4.0332 18.3105 4.28711 17.9492ZM11.7383 14.2188C11.7383 14.5996 12.041 14.9121 12.4219 14.9121L17.7832 14.9121C18.1641 14.9121 18.4766 14.5996 18.4766 14.2188C18.4766 13.8379 18.1641 13.5352 17.7832 13.5352L12.4219 13.5352C12.041 13.5352 11.7383 13.8379 11.7383 14.2188Z" fill="var(--color-primary)"/>
 </g>
</svg>
