<svg version="1.1" xmlns="http://www.w3.org/2000/svg" xmlns:xlink="http://www.w3.org/1999/xlink" viewBox="0 0 32.8516 22.7441">
 <g>
  <rect height="22.7441" opacity="0" width="32.8516" x="0" y="0"/>
  <path d="M15.6738 9.20898L15.6738 10.1562C15.6738 12.9102 17.2852 14.5117 20.0684 14.5117L27.334 14.5117L27.334 17.2168C27.334 19.2285 26.3184 20.2441 24.5605 20.2441L8.22266 20.2441C6.19141 20.2441 5.15625 19.2383 5.15625 17.2168L5.15625 9.20898ZM12.7441 3.0957L13.3398 3.58398C13.8379 4.00391 14.2285 4.16016 14.8926 4.16016L15.6815 4.16016C15.6749 4.22555 15.6738 4.29502 15.6738 4.36523L15.6738 7.92969L5.15625 7.92969L5.15625 5.3125C5.15625 3.34961 6.14258 2.37305 7.85156 2.37305L10.6348 2.37305C11.6016 2.37305 12.0996 2.54883 12.7441 3.0957Z" fill="var(--color-primary)"/>
  <path d="M31.5234 4.36523L31.5234 10.1562C31.5234 12.168 30.4883 13.1836 28.457 13.1836L20.0684 13.1836C18.0273 13.1836 17.002 12.168 17.002 10.1562L17.002 4.36523C17.002 2.34375 18.0273 1.33789 20.0684 1.33789L28.457 1.33789C30.4883 1.33789 31.5234 2.34375 31.5234 4.36523ZM23.6621 4.74609L23.6621 6.66016L21.7578 6.66016C21.3965 6.66016 21.1523 6.89453 21.1523 7.25586C21.1523 7.61719 21.3965 7.85156 21.7578 7.85156L23.6621 7.85156L23.6621 9.76562C23.6621 10.127 23.8965 10.3613 24.2676 10.3613C24.6289 10.3613 24.8633 10.127 24.8633 9.76562L24.8633 7.85156L26.7676 7.85156C27.1289 7.85156 27.3633 7.61719 27.3633 7.25586C27.3633 6.89453 27.1289 6.66016 26.7676 6.66016L24.8633 6.66016L24.8633 4.74609C24.8633 4.39453 24.6289 4.15039 24.2676 4.15039C23.8965 4.15039 23.6621 4.39453 23.6621 4.74609Z" fill="var(--color-primary)"/>
 </g>
</svg>
