<svg version="1.1" xmlns="http://www.w3.org/2000/svg" xmlns:xlink="http://www.w3.org/1999/xlink" viewBox="0 0 22.1973 21.8457">
 <g>
  <rect height="21.8457" opacity="0" width="22.1973" x="0" y="0"/>
  <path d="M10.918 21.8359C16.9141 21.8359 21.8359 16.9141 21.8359 10.918C21.8359 4.92188 16.9141 0 10.918 0C4.92188 0 0 4.92188 0 10.918C0 16.9141 4.92188 21.8359 10.918 21.8359ZM10.918 18.2031C6.89453 18.2031 3.63281 14.9414 3.63281 10.918C3.63281 6.88477 6.89453 3.63281 10.918 3.63281C14.9512 3.63281 18.2031 6.88477 18.2031 10.918C18.2031 14.9414 14.9512 18.2031 10.918 18.2031Z" fill="var(--color-secondary)"/>
  <path d="M7.69531 14.9121L10.8008 14.9121C11.0547 14.9121 11.25 14.7266 11.25 14.4824C11.25 14.2383 11.0547 14.0527 10.8008 14.0527L8.57422 14.0527L8.57422 13.9453L11.0156 10.0293C11.123 9.84375 11.2109 9.70703 11.2109 9.52148C11.2109 9.24805 11.0547 9.00391 10.6641 9.00391L7.63672 9.00391C7.39258 9.00391 7.19727 9.17969 7.19727 9.42383C7.19727 9.67773 7.39258 9.85352 7.63672 9.85352L9.92188 9.85352L9.92188 9.96094L7.36328 13.9844C7.26562 14.1406 7.19727 14.2676 7.19727 14.4238C7.19727 14.7168 7.40234 14.9121 7.69531 14.9121ZM13.1934 15.0195C13.5254 15.0195 13.7305 14.7949 13.7305 14.4434L13.7305 7.1582C13.7305 6.79688 13.5254 6.57227 13.1934 6.57227C12.8516 6.57227 12.6465 6.79688 12.6465 7.14844L12.6465 14.4434C12.6465 14.7949 12.8516 15.0195 13.1934 15.0195ZM12.2852 11.6504L14.5703 10.4395C14.7754 10.332 14.8535 10.1758 14.8535 10.0195C14.8535 9.73633 14.5508 9.46289 14.209 9.63867L11.8848 10.8789C11.6992 10.9766 11.6016 11.1426 11.6016 11.2988C11.6016 11.5918 11.9043 11.8457 12.2852 11.6504Z" fill="var(--color-primary)"/>
 </g>
</svg>
