<svg version="1.1" xmlns="http://www.w3.org/2000/svg" xmlns:xlink="http://www.w3.org/1999/xlink" viewBox="0 0 18.9551 17.998">
 <g>
  <rect height="17.998" opacity="0" width="18.9551" x="0" y="0"/>
  <path d="M3.06641 17.998L15.5273 17.998C17.5684 17.998 18.5938 16.9824 18.5938 14.9707L18.5938 3.04688C18.5938 1.03516 17.5684 0.0195312 15.5273 0.0195312L3.06641 0.0195312C1.02539 0.0195312 0 1.02539 0 3.04688L0 14.9707C0 16.9922 1.02539 17.998 3.06641 17.998Z" fill="var(--color-tertiary)"/>
  <path d="M8.88672 14.0332C8.54492 14.0332 8.32031 13.8086 8.32031 13.4668L8.32031 10.5273C8.32031 10.1855 8.55469 9.95117 8.88672 9.95117L9.69727 9.95117C10.0391 9.95117 10.2637 10.1855 10.2637 10.5273L10.2637 13.4668C10.2637 13.8184 10.0391 14.0332 9.69727 14.0332ZM4.10156 8.08594C3.86719 7.8418 3.86719 7.51953 4.11133 7.27539L6.47461 4.92188C6.72852 4.67773 7.03125 4.67773 7.27539 4.91211L7.85156 5.49805C8.0957 5.74219 8.0957 6.05469 7.85156 6.30859L5.48828 8.66211C5.24414 8.90625 4.92188 8.90625 4.6875 8.66211ZM13.9062 8.66211C13.6621 8.90625 13.3496 8.90625 13.1055 8.66211L10.7422 6.30859C10.498 6.05469 10.498 5.74219 10.7422 5.49805L11.3184 4.91211C11.5625 4.67773 11.875 4.67773 12.1191 4.92188L14.4727 7.27539C14.7266 7.5293 14.7266 7.8418 14.4922 8.07617Z" fill="var(--color-primary)"/>
 </g>
</svg>
