<svg version="1.1" xmlns="http://www.w3.org/2000/svg" xmlns:xlink="http://www.w3.org/1999/xlink" viewBox="0 0 26.0059 15.2832">
 <g>
  <rect height="15.2832" opacity="0" width="26.0059" x="0" y="0"/>
  <path d="M6.9043 0C5.56641 0 4.67773 0.478516 3.82812 1.55273L0.664062 5.69336C-0.224609 6.8457-0.214844 8.36914 0.654297 9.51172L3.81836 13.6914C4.59961 14.7168 5.6543 15.2637 6.9043 15.2637L18.7402 15.2637C19.9902 15.2637 21.0449 14.7168 21.8262 13.6914L24.9902 9.51172C25.8594 8.36914 25.8691 6.8457 24.9805 5.69336L21.8164 1.55273C20.9668 0.478516 20.0781 0 18.7402 0ZM6.9043 1.57227L18.7402 1.57227C19.5996 1.57227 20.0195 1.78711 20.5762 2.50977L23.7402 6.65039C24.209 7.23633 24.1992 7.96875 23.75 8.55469L20.5762 12.7441C20.0879 13.3789 19.5117 13.6914 18.7402 13.6914L6.9043 13.6914C6.14258 13.6914 5.56641 13.3789 5.06836 12.7441L1.89453 8.55469C1.44531 7.96875 1.44531 7.23633 1.9043 6.65039L5.06836 2.50977C5.63477 1.78711 6.05469 1.57227 6.9043 1.57227Z" fill="var(--color-secondary)"/>
  <path d="M6.32812 5.92773C5.39062 5.92773 4.62891 6.69922 4.62891 7.62695C4.62891 8.55469 5.39062 9.32617 6.32812 9.32617C7.25586 9.32617 8.01758 8.55469 8.01758 7.62695C8.01758 6.69922 7.25586 5.92773 6.32812 5.92773ZM12.8223 8.25195C11.8945 8.25195 11.123 9.01367 11.123 9.94141C11.123 10.8789 11.8945 11.6406 12.8223 11.6406C13.75 11.6406 14.5215 10.8789 14.5215 9.94141C14.5215 9.01367 13.75 8.25195 12.8223 8.25195ZM19.3164 5.92773C18.3887 5.92773 17.627 6.69922 17.627 7.62695C17.627 8.55469 18.3887 9.32617 19.3164 9.32617C20.2539 9.32617 21.0156 8.55469 21.0156 7.62695C21.0156 6.69922 20.2539 5.92773 19.3164 5.92773Z" fill="var(--color-primary)"/>
 </g>
</svg>
