<svg version="1.1" xmlns="http://www.w3.org/2000/svg" xmlns:xlink="http://www.w3.org/1999/xlink" viewBox="0 0 10.9766 18.7012">
 <g>
  <rect height="18.7012" opacity="0" width="10.9766" x="0" y="0"/>
  <path d="M4.83398 13.3594C5.51758 13.3594 5.83008 12.8906 5.83008 12.2656C5.83008 12.1582 5.83008 12.041 5.83008 11.9336C5.84961 10.6445 6.30859 10.1074 7.87109 9.0332C9.55078 7.90039 10.6152 6.5918 10.6152 4.70703C10.6152 1.77734 8.23242 0.0976562 5.26367 0.0976562C3.05664 0.0976562 1.12305 1.14258 0.292969 3.02734C0.0878906 3.48633 0 3.93555 0 4.30664C0 4.86328 0.322266 5.25391 0.917969 5.25391C1.41602 5.25391 1.74805 4.96094 1.89453 4.48242C2.39258 2.62695 3.62305 1.92383 5.19531 1.92383C7.09961 1.92383 8.59375 2.99805 8.59375 4.69727C8.59375 6.09375 7.72461 6.875 6.47461 7.75391C4.94141 8.81836 3.81836 9.96094 3.81836 11.6797C3.81836 11.8848 3.81836 12.0898 3.81836 12.2949C3.81836 12.9199 4.16016 13.3594 4.83398 13.3594ZM4.83398 18.7012C5.61523 18.7012 6.23047 18.0762 6.23047 17.3145C6.23047 16.543 5.61523 15.9277 4.83398 15.9277C4.07227 15.9277 3.44727 16.543 3.44727 17.3145C3.44727 18.0762 4.07227 18.7012 4.83398 18.7012Z" fill="var(--color-primary)"/>
 </g>
</svg>
