<svg version="1.1" xmlns="http://www.w3.org/2000/svg" xmlns:xlink="http://www.w3.org/1999/xlink" viewBox="0 0 20.2832 19.9316">
 <g>
  <rect height="19.9316" opacity="0" width="20.2832" x="0" y="0"/>
  <path d="M9.96094 19.9219C15.459 19.9219 19.9219 15.4492 19.9219 9.96094C19.9219 4.46289 15.459 0 9.96094 0C4.47266 0 0 4.46289 0 9.96094C0 15.4492 4.47266 19.9219 9.96094 19.9219Z" fill="var(--color-tertiary)"/>
  <path d="M6.24023 13.9648C5.78125 13.9648 5.51758 13.6719 5.51758 13.2227L5.51758 6.83594C5.51758 6.37695 5.77148 6.10352 6.23047 6.10352L7.8418 6.10352C9.33594 6.10352 10.2637 6.93359 10.2637 8.49609C10.2637 9.36523 9.93164 10.1953 9.16992 10.5957L10.0684 12.7637C10.1758 12.9785 10.2246 13.1738 10.2246 13.2812C10.2246 13.7695 9.88281 13.9648 9.57031 13.9648C9.17969 13.9648 8.95508 13.75 8.83789 13.3887L7.83203 10.8789L6.93359 10.8789L6.93359 13.2227C6.93359 13.6816 6.66992 13.9648 6.24023 13.9648ZM6.93359 9.85352L7.72461 9.85352C8.49609 9.85352 8.84766 9.28711 8.84766 8.53516C8.84766 7.76367 8.45703 7.22656 7.72461 7.22656L6.93359 7.22656ZM13.5645 13.9355C13.1738 13.9355 12.8613 13.623 12.8613 13.2227L12.8613 7.43164L11.9727 8.13477C11.8848 8.21289 11.7871 8.25195 11.6406 8.25195C11.3477 8.25195 11.1426 8.04688 11.1426 7.74414C11.1426 7.5 11.2695 7.30469 11.4453 7.1875L12.4902 6.35742C12.7246 6.19141 13.0469 5.9668 13.457 5.9668C13.9551 5.9668 14.2578 6.25977 14.2578 6.75781L14.2578 13.2227C14.2578 13.623 13.9453 13.9355 13.5645 13.9355Z" fill="var(--color-primary)"/>
 </g>
</svg>
