<svg version="1.1" xmlns="http://www.w3.org/2000/svg" xmlns:xlink="http://www.w3.org/1999/xlink" viewBox="0 0 22.8906 17.041">
 <g>
  <rect height="17.041" opacity="0" width="22.8906" x="0" y="0"/>
  <path d="M22.5293 7.93945L22.5293 14.0625C22.5293 16.0254 21.5137 17.0312 19.5312 17.0312L2.99805 17.0312C1.01562 17.0312 0 16.0352 0 14.0625L0 7.93945C0 2.60742 2.5293 0 8.19336 0L14.3359 0C20 0 22.5293 2.60742 22.5293 7.93945ZM6.97266 4.62891C6.52344 4.62891 6.26953 4.90234 6.26953 5.35156L6.26953 11.8164C6.26953 12.2656 6.52344 12.5684 6.98242 12.5684C7.42188 12.5684 7.69531 12.2754 7.69531 11.8164L7.69531 9.45312L8.60352 9.45312L9.60938 11.9824C9.75586 12.3535 9.9707 12.5684 10.3516 12.5684C10.6738 12.5684 11.0254 12.3828 11.0254 11.8848C11.0254 11.7676 10.957 11.5723 10.8691 11.3477L9.94141 9.16016C10.7324 8.75 11.0645 7.91016 11.0645 7.04102C11.0645 5.45898 10.127 4.62891 8.62305 4.62891ZM12.1289 6.43555C12.1289 6.79688 12.3438 7.06055 12.7051 7.06055C13.0273 7.06055 13.2227 6.9043 13.3301 6.5918C13.5059 5.94727 13.75 5.52734 14.2969 5.52734C14.8828 5.52734 15.2051 6.04492 15.2051 6.72852C15.2051 7.5 14.668 8.29102 14.1504 8.94531L12.4707 11.0938C12.2949 11.3281 12.1191 11.5527 12.1191 11.8652C12.1191 12.1973 12.3242 12.4414 12.7637 12.4414L16.123 12.4414C16.4746 12.4414 16.6797 12.207 16.6797 11.8652C16.6797 11.4941 16.4648 11.2988 16.123 11.2988L13.8281 11.2988L13.8281 11.2109L15.2441 9.43359C16.2207 8.23242 16.5332 7.51953 16.5332 6.66016C16.5332 5.35156 15.6445 4.4043 14.3066 4.4043C13.0664 4.4043 12.1289 5.42969 12.1289 6.43555ZM9.61914 7.07031C9.61914 7.83203 9.26758 8.4082 8.48633 8.4082L7.69531 8.4082L7.69531 5.75195L8.48633 5.75195C9.22852 5.75195 9.61914 6.28906 9.61914 7.07031Z" fill="var(--color-primary)"/>
 </g>
</svg>
