<svg version="1.1" xmlns="http://www.w3.org/2000/svg" xmlns:xlink="http://www.w3.org/1999/xlink" viewBox="0 0 20.2832 19.9316">
 <g>
  <rect height="19.9316" opacity="0" width="20.2832" x="0" y="0"/>
  <path d="M9.96094 19.9219C15.459 19.9219 19.9219 15.459 19.9219 9.96094C19.9219 4.46289 15.459 0 9.96094 0C4.46289 0 0 4.46289 0 9.96094C0 15.459 4.46289 19.9219 9.96094 19.9219ZM9.96094 18.2617C5.37109 18.2617 1.66016 14.5508 1.66016 9.96094C1.66016 5.37109 5.37109 1.66016 9.96094 1.66016C14.5508 1.66016 18.2617 5.37109 18.2617 9.96094C18.2617 14.5508 14.5508 18.2617 9.96094 18.2617Z" fill="var(--color-secondary)"/>
  <path d="M5.3418 14.043C5.78125 14.043 6.05469 13.7598 6.05469 13.3008L6.05469 10.8984L6.97266 10.8984L7.99805 13.457C8.13477 13.8281 8.34961 14.043 8.74023 14.043C9.0625 14.043 9.41406 13.8574 9.41406 13.3496C9.41406 13.2422 9.3457 13.0469 9.25781 12.8223L8.33008 10.6055C9.12109 10.1953 9.45312 9.3457 9.45312 8.4668C9.45312 6.875 8.50586 6.02539 6.98242 6.02539L5.33203 6.02539C4.87305 6.02539 4.61914 6.30859 4.61914 6.76758L4.61914 13.3008C4.61914 13.75 4.88281 14.043 5.3418 14.043ZM6.05469 9.85352L6.05469 7.1582L6.85547 7.1582C7.60742 7.1582 8.00781 7.71484 8.00781 8.49609C8.00781 9.26758 7.65625 9.85352 6.85547 9.85352ZM11.4648 13.9258L13.5352 13.9258C14.9121 13.9258 15.7129 13.0078 15.7129 11.6895C15.7129 10.7422 15.1367 9.86328 14.209 9.77539L14.209 9.72656C14.9512 9.58984 15.4688 8.76953 15.4688 7.98828C15.4688 6.73828 14.6289 6.02539 13.4766 6.02539L11.4648 6.02539C11.0059 6.02539 10.7617 6.33789 10.7617 6.76758L10.7617 13.1836C10.7617 13.6328 11.0156 13.9258 11.4648 13.9258ZM12.1582 9.375L12.1582 7.10938L13.0664 7.10938C13.8086 7.10938 14.1016 7.57812 14.1016 8.21289C14.1016 8.93555 13.6816 9.375 12.959 9.375ZM12.1582 12.8418L12.1582 10.332L13.0664 10.332C13.7793 10.332 14.2773 10.7129 14.2773 11.582C14.2773 12.3633 13.8965 12.8418 13.1055 12.8418Z" fill="var(--color-primary)"/>
 </g>
</svg>
