<svg version="1.1" xmlns="http://www.w3.org/2000/svg" xmlns:xlink="http://www.w3.org/1999/xlink" viewBox="0 0 24.0651 19.9316">
 <g>
  <rect height="19.9316" opacity="0" width="24.0651" x="0" y="0"/>
  <path d="M11.8568 19.9219C17.3548 19.9219 21.8177 15.459 21.8177 9.96094C21.8177 4.46289 17.3548 0 11.8568 0C6.35874 0 1.89585 4.46289 1.89585 9.96094L3.55601 9.96094C3.55601 5.37109 7.26694 1.66016 11.8568 1.66016C16.4466 1.66016 20.1576 5.37109 20.1576 9.96094C20.1576 14.5508 16.4466 18.2617 11.8568 18.2617C9.08335 18.2617 6.61265 16.8945 5.13804 14.8242C4.8353 14.4238 4.37632 14.2969 3.96616 14.541C3.57554 14.7852 3.45835 15.332 3.79038 15.7617C5.59702 18.291 8.55601 19.9219 11.8568 19.9219ZM0.694677 8.07617C-0.00844799 8.07617-0.184229 8.55469 0.19663 9.10156L2.38413 12.207C2.7064 12.6562 3.17515 12.6465 3.48765 12.207L5.66538 9.0918C6.04624 8.55469 5.86069 8.07617 5.1771 8.07617Z" fill="var(--color-secondary)"/>
  <path d="M10.1869 14.4531C10.5482 14.4531 10.763 14.2285 10.763 13.8672L10.763 12.9102L13.1068 12.9102C13.2923 12.9102 13.4193 12.7832 13.4193 12.5781C13.4193 12.3828 13.2923 12.2656 13.1068 12.2656L10.763 12.2656L10.763 10.9961L12.5111 10.9961C14.3373 10.9961 15.3529 9.77539 15.3529 8.30078C15.3529 6.77734 14.308 5.58594 12.5306 5.58594L10.1966 5.58594C9.85483 5.58594 9.62046 5.83984 9.62046 6.19141L9.62046 10.3418L8.6146 10.3418C8.40952 10.3418 8.28257 10.4785 8.28257 10.6738C8.28257 10.8691 8.40952 10.9961 8.6146 10.9961L9.62046 10.9961L9.62046 12.2656L8.6146 12.2656C8.40952 12.2656 8.28257 12.3828 8.28257 12.5781C8.28257 12.7832 8.40952 12.9102 8.6146 12.9102L9.62046 12.9102L9.62046 13.8672C9.62046 14.2285 9.8353 14.4531 10.1869 14.4531ZM10.763 10.0488L10.763 6.57227L12.2376 6.57227C13.6244 6.57227 14.181 7.34375 14.181 8.30078C14.181 9.43359 13.4291 10.0488 12.2376 10.0488Z" fill="var(--color-primary)"/>
 </g>
</svg>
