<svg version="1.1" xmlns="http://www.w3.org/2000/svg" xmlns:xlink="http://www.w3.org/1999/xlink" viewBox="0 0 23.8867 19.5996">
 <g>
  <rect height="19.5996" opacity="0" width="23.8867" x="0" y="0"/>
  <path d="M23.5254 11.7578C23.5254 8.88672 22.4902 6.24023 20.7617 4.18945C20.5664 3.95508 20.2344 3.95508 20.0195 4.17969L17.7539 6.44531C17.5684 6.63086 17.5586 6.89453 17.7246 7.09961C18.7305 8.38867 19.3359 10.0098 19.3359 11.7578C19.3359 13.5156 18.7305 15.1367 17.666 16.4941C17.5293 16.6602 17.5391 16.875 17.6855 17.0312L20.0098 19.3555C20.2344 19.5801 20.5566 19.5801 20.7617 19.3359C22.4902 17.2852 23.5254 14.6387 23.5254 11.7578Z" fill="var(--color-primary)"/>
  <path d="M11.7578 4.18945C13.5254 4.18945 15.1465 4.80469 16.4453 5.81055C16.6406 5.9668 16.8945 5.94727 17.0801 5.76172L19.3457 3.49609C19.5703 3.27148 19.5605 2.94922 19.3262 2.75391C17.2852 1.03516 14.6387 0 11.7578 0C8.88672 0 6.24023 1.03516 4.19922 2.75391C3.96484 2.94922 3.95508 3.27148 4.17969 3.49609L6.44531 5.76172C6.63086 5.94727 6.89453 5.9668 7.10938 5.80078C8.39844 4.80469 10.0098 4.18945 11.7578 4.18945Z" fill="var(--color-primary)"/>
  <path d="M0 11.7578C0 14.6387 1.03516 17.2852 2.76367 19.3359C2.95898 19.5801 3.29102 19.5801 3.50586 19.3555L5.83008 17.0312C5.97656 16.875 5.99609 16.6602 5.85938 16.4941C4.79492 15.1367 4.18945 13.5156 4.18945 11.7578C4.18945 10.0098 4.78516 8.38867 5.80078 7.09961C5.95703 6.89453 5.95703 6.63086 5.77148 6.44531L3.50586 4.17969C3.28125 3.95508 2.95898 3.95508 2.76367 4.18945C1.03516 6.24023 0 8.88672 0 11.7578Z" fill="var(--color-primary)"/>
  <path d="M7.95898 15.8789C8.31055 15.8789 8.51562 15.6445 8.51562 15.293L8.51562 12.6562L9.7168 12.6562L10.918 15.4688C11.0254 15.7324 11.1914 15.8789 11.4648 15.8789C11.7773 15.8789 12.0215 15.6738 12.0215 15.3516C12.0215 15.2148 11.9629 15.1074 11.9043 14.9512L10.791 12.4121C11.6504 12.041 12.0508 11.1914 12.0508 10.2832C12.0508 8.97461 11.2988 7.93945 9.66797 7.93945L7.94922 7.93945C7.61719 7.93945 7.40234 8.16406 7.40234 8.50586L7.40234 15.293C7.40234 15.6445 7.60742 15.8789 7.95898 15.8789ZM8.51562 11.7578L8.51562 8.86719L9.56055 8.86719C10.4395 8.86719 10.9277 9.42383 10.9277 10.3027C10.9277 11.1816 10.4688 11.7578 9.57031 11.7578ZM14.9121 15.8887C16.0449 15.8887 17.002 15.2441 17.002 14.082C17.002 13.1445 16.4453 12.7344 15.5176 12.4805L14.7266 12.2656C14.2871 12.1484 13.9258 11.9238 13.9258 11.4551C13.9258 10.918 14.3457 10.5859 14.8828 10.5859C15.4492 10.5859 15.8008 10.8984 16.0059 11.3574C16.0742 11.5039 16.2207 11.6016 16.3867 11.6016C16.6895 11.6016 16.8066 11.416 16.8066 11.2012C16.8066 11.1328 16.7871 11.0254 16.7578 10.9375C16.5527 10.2539 15.8008 9.77539 14.9121 9.77539C13.6816 9.77539 12.8711 10.459 12.8711 11.5137C12.8711 12.4219 13.4766 12.9004 14.3457 13.125L15.1465 13.3398C15.625 13.4668 15.9473 13.7012 15.9473 14.1895C15.9473 14.7168 15.5566 15.0684 14.9609 15.0684C14.3262 15.0684 13.9844 14.8535 13.6719 14.2871C13.5547 14.0723 13.3789 13.9844 13.2129 13.9844C12.959 13.9844 12.7734 14.1602 12.7734 14.4141C12.7734 14.4922 12.8027 14.5801 12.832 14.668C13.0859 15.5078 14.0234 15.8887 14.9121 15.8887Z" fill="var(--color-primary)"/>
 </g>
</svg>
