<svg version="1.1" xmlns="http://www.w3.org/2000/svg" xmlns:xlink="http://www.w3.org/1999/xlink" viewBox="0 0 20.2832 19.9316">
 <g>
  <rect height="19.9316" opacity="0" width="20.2832" x="0" y="0"/>
  <path d="M19.9219 9.96094C19.9219 15.459 15.459 19.9219 9.96094 19.9219C4.46289 19.9219 0 15.459 0 9.96094C0 4.46289 4.46289 0 9.96094 0C15.459 0 19.9219 4.46289 19.9219 9.96094ZM1.66016 9.96094C1.66016 14.5508 5.37109 18.2617 9.96094 18.2617C14.5508 18.2617 18.2617 14.5508 18.2617 9.96094C18.2617 5.37109 14.5508 1.66016 9.96094 1.66016C5.37109 1.66016 1.66016 5.37109 1.66016 9.96094Z" fill="var(--color-primary)"/>
  <path d="M16.0742 12.1484C15.8984 12.8418 15.1562 12.9883 13.9941 12.5684L10.593 11.347L12.5769 10.294ZM8.02734 7.36328C8.02734 7.75391 8.04688 7.90039 8.32031 8.03711L9.24599 8.52793C8.96183 8.74011 8.76576 9.01679 8.63436 9.3745C8.60123 9.35597 8.56482 9.33666 8.52539 9.31641L7.80273 8.92578C7.69531 8.87695 7.63672 8.85742 7.54883 8.85742C7.16797 8.85742 7.03125 9.20898 6.18164 9.20898C5.14648 9.20898 4.32617 8.38867 4.32617 7.36328C4.32617 6.32812 5.14648 5.49805 6.18164 5.49805C7.19727 5.49805 8.02734 6.31836 8.02734 7.36328ZM5.08789 7.36328C5.08789 7.96875 5.57617 8.45703 6.18164 8.45703C6.77734 8.45703 7.26562 7.96875 7.26562 7.36328C7.26562 6.74805 6.77734 6.25977 6.18164 6.25977C5.57617 6.25977 5.08789 6.74805 5.08789 7.36328Z" fill="var(--color-primary)"/>
  <path d="M6.18164 14.4238C7.19727 14.4238 8.02734 13.6035 8.02734 12.5586C8.02734 12.168 8.04688 12.0215 8.32031 11.875L16.0742 7.76367C15.8984 7.08008 15.1562 6.93359 13.9941 7.35352L10.0781 8.75977C9.53125 8.95508 9.27734 9.22852 9.14062 9.74609L9.05273 10.0781C8.99414 10.3125 8.88672 10.4199 8.52539 10.6055L7.80273 10.9863C7.69531 11.0449 7.63672 11.0547 7.54883 11.0547C7.16797 11.0547 7.03125 10.7129 6.18164 10.7129C5.14648 10.7129 4.32617 11.5234 4.32617 12.5586C4.32617 13.5938 5.14648 14.4238 6.18164 14.4238ZM6.18164 13.6621C5.57617 13.6621 5.08789 13.1738 5.08789 12.5586C5.08789 11.9531 5.57617 11.4648 6.18164 11.4648C6.77734 11.4648 7.26562 11.9531 7.26562 12.5586C7.26562 13.1738 6.77734 13.6621 6.18164 13.6621ZM10.1855 10.0879C9.99023 10.0879 9.81445 9.92188 9.81445 9.7168C9.81445 9.51172 9.99023 9.3457 10.1855 9.3457C10.3906 9.3457 10.5566 9.51172 10.5566 9.7168C10.5566 9.92188 10.3906 10.0879 10.1855 10.0879Z" fill="var(--color-primary)"/>
 </g>
</svg>
