<svg version="1.1" xmlns="http://www.w3.org/2000/svg" xmlns:xlink="http://www.w3.org/1999/xlink" viewBox="0 0 20.2832 19.9316">
 <g>
  <rect height="19.9316" opacity="0" width="20.2832" x="0" y="0"/>
  <path d="M9.96094 19.9219C15.459 19.9219 19.9219 15.459 19.9219 9.96094C19.9219 4.46289 15.459 0 9.96094 0C4.46289 0 0 4.46289 0 9.96094C0 15.459 4.46289 19.9219 9.96094 19.9219ZM9.96094 18.2617C5.37109 18.2617 1.66016 14.5508 1.66016 9.96094C1.66016 5.37109 5.37109 1.66016 9.96094 1.66016C14.5508 1.66016 18.2617 5.37109 18.2617 9.96094C18.2617 14.5508 14.5508 18.2617 9.96094 18.2617Z" fill="var(--color-secondary)"/>
  <path d="M6.34766 14.3457C6.64062 14.3457 6.82617 14.1504 6.82617 13.8379L6.82617 6.73828L8.99414 6.73828C10.1074 6.73828 10.6738 7.03125 10.6738 8.30078L10.6738 11.2402C10.6738 11.5527 10.8496 11.7578 11.1621 11.7578C11.4551 11.7578 11.6406 11.5527 11.6406 11.2402L11.6406 8.10547C11.6406 6.49414 10.9375 5.67383 9.31641 5.67383L6.5918 5.67383C6.13281 5.67383 5.84961 5.95703 5.84961 6.41602L5.84961 13.8379C5.84961 14.1504 6.04492 14.3457 6.34766 14.3457ZM8.97461 14.2578L11.8066 14.2578C13.4961 14.2578 14.0527 13.3398 14.0527 11.6602L14.0527 6.11328C14.0527 5.79102 13.8672 5.58594 13.5645 5.58594C13.2617 5.58594 13.0664 5.79102 13.0664 6.11328L13.0664 11.6113C13.0664 12.8711 12.793 13.1836 11.543 13.1836L9.23828 13.1836L9.23828 8.68164C9.23828 8.36914 9.05273 8.17383 8.75977 8.17383C8.45703 8.17383 8.26172 8.36914 8.26172 8.68164L8.26172 13.5547C8.26172 14.0039 8.55469 14.2578 8.97461 14.2578Z" fill="var(--color-primary)"/>
 </g>
</svg>
