<svg version="1.1" xmlns="http://www.w3.org/2000/svg" xmlns:xlink="http://www.w3.org/1999/xlink" viewBox="0 0 20.2832 19.9316">
 <g>
  <rect height="19.9316" opacity="0" width="20.2832" x="0" y="0"/>
  <path d="M9.96094 19.9219C15.459 19.9219 19.9219 15.4492 19.9219 9.96094C19.9219 4.46289 15.459 0 9.96094 0C4.47266 0 0 4.46289 0 9.96094C0 15.4492 4.47266 19.9219 9.96094 19.9219Z" fill="var(--color-tertiary)"/>
  <path d="M3.94531 11.8652C3.34961 11.8652 3.03711 11.7773 2.72461 11.4258C2.72461 11.4062 2.73438 11.3672 2.73438 11.3379L2.72461 9.02344C2.72461 8.22266 3.39844 7.79297 4.24805 8.25195C4.62891 8.45703 4.9707 8.59375 5.49805 8.59375C6.08398 8.59375 6.64062 8.30078 7.32422 7.42188C7.88086 6.69922 8.62305 6.57227 9.42383 7.04102L9.85352 7.27539L9.00391 8.44727C8.92578 8.55469 8.93555 8.75977 9.0625 8.84766C9.17969 8.94531 9.375 8.93555 9.47266 8.80859L10.3613 7.56836L10.918 7.91016L10.127 8.99414C10.0098 9.13086 10.0488 9.30664 10.1758 9.4043C10.3125 9.51172 10.4883 9.50195 10.5859 9.35547L11.4258 8.19336L11.9922 8.52539L11.25 9.54102C11.1523 9.6875 11.1719 9.84375 11.2891 9.95117C11.4258 10.0586 11.6016 10.0391 11.709 9.90234L12.5098 8.80859C12.7344 8.91602 12.8711 8.92578 13.1641 8.91602C13.6133 8.91602 14.7754 8.73047 15.293 8.73047C15.9473 8.74023 16.416 9.02344 16.6797 9.33594C17.041 9.72656 16.8164 10.2246 16.0352 10.6445L14.6387 11.3672C13.9551 11.7188 13.4375 11.8555 12.2461 11.8555ZM4.59961 13.3691C3.85742 13.3691 3.08594 13.0762 2.8125 12.1191C3.17383 12.3828 3.51562 12.4414 3.95508 12.4414L12.2461 12.4414C13.4766 12.4414 14.1211 12.2949 14.9023 11.8848L16.2988 11.1621C16.8359 10.8789 17.0508 10.6445 17.1387 10.293C17.1484 10.3613 17.1582 10.459 17.1484 10.5566C17.1582 11.3086 16.7285 11.9629 15.7715 12.4805C14.5801 13.1445 13.7012 13.3691 12.1777 13.3691Z" fill="var(--color-primary)"/>
 </g>
</svg>
