<svg version="1.1" xmlns="http://www.w3.org/2000/svg" xmlns:xlink="http://www.w3.org/1999/xlink" viewBox="0 0 22.6855 21.3379">
 <g>
  <rect height="21.3379" opacity="0" width="22.6855" x="0" y="0"/>
  <path d="M21.6309 3.54492C22.0117 3.54492 22.3242 3.23242 22.3242 2.85156C22.3242 2.4707 22.0117 2.1582 21.6309 2.1582C21.25 2.1582 20.9375 2.4707 20.9375 2.85156C20.9375 3.23242 21.25 3.54492 21.6309 3.54492ZM20.6055 9.49219C20.9863 9.49219 21.2988 9.17969 21.2988 8.79883C21.2988 8.41797 20.9863 8.10547 20.6055 8.10547C20.2246 8.10547 19.9121 8.41797 19.9121 8.79883C19.9121 9.17969 20.2246 9.49219 20.6055 9.49219ZM17.5879 14.7168C17.9688 14.7168 18.2812 14.4043 18.2812 14.0234C18.2812 13.6426 17.9688 13.3301 17.5879 13.3301C17.1973 13.3301 16.8945 13.6426 16.8945 14.0234C16.8945 14.4043 17.1973 14.7168 17.5879 14.7168Z" fill="var(--color-secondary)"/>
  <path d="M18.9941 3.89648C19.375 3.89648 19.6875 3.58398 19.6875 3.20312C19.6875 2.82227 19.375 2.50977 18.9941 2.50977C18.6133 2.50977 18.3008 2.82227 18.3008 3.20312C18.3008 3.58398 18.6133 3.89648 18.9941 3.89648ZM17.8711 8.48633C18.252 8.48633 18.5645 8.17383 18.5645 7.79297C18.5645 7.41211 18.252 7.09961 17.8711 7.09961C17.4902 7.09961 17.1777 7.41211 17.1777 7.79297C17.1777 8.17383 17.4902 8.48633 17.8711 8.48633ZM15.7812 12.7441C16.1621 12.7441 16.4746 12.4316 16.4746 12.0508C16.4746 11.6699 16.1621 11.3574 15.7812 11.3574C15.4004 11.3574 15.0879 11.6699 15.0879 12.0508C15.0879 12.4316 15.4004 12.7441 15.7812 12.7441Z" fill="var(--color-secondary)"/>
  <path d="M16.3281 4.24805C16.7188 4.24805 17.0312 3.93555 17.0312 3.55469C17.0312 3.17383 16.7188 2.86133 16.3281 2.86133C15.9473 2.86133 15.6348 3.17383 15.6348 3.55469C15.6348 3.93555 15.9473 4.24805 16.3281 4.24805ZM15.1172 7.5C15.5078 7.5 15.8105 7.1875 15.8105 6.80664C15.8105 6.42578 15.5078 6.11328 15.1172 6.11328C14.7363 6.11328 14.4238 6.42578 14.4238 6.80664C14.4238 7.1875 14.7363 7.5 15.1172 7.5ZM13.9844 10.7617C14.3652 10.7617 14.6777 10.4492 14.6777 10.0684C14.6777 9.6875 14.3652 9.375 13.9844 9.375C13.6035 9.375 13.291 9.6875 13.291 10.0684C13.291 10.4492 13.6035 10.7617 13.9844 10.7617Z" fill="var(--color-secondary)"/>
  <path d="M13.8281 0.605469L10.0879 10.9082C9.95117 11.2695 10.1367 11.6699 10.5078 11.8066C10.8691 11.9434 11.2695 11.748 11.4062 11.3965L15.1562 1.09375C15.2832 0.722656 15.0977 0.322266 14.7363 0.185547C14.3652 0.0488281 13.9551 0.244141 13.8281 0.605469ZM1.95312 17.1777C2.94922 17.5391 3.92578 17.0703 4.27734 16.1035L7.41211 7.54883L6.89453 7.87109C7.4707 9.20898 8.64258 10.3418 10.2637 10.8398L10.6836 9.6582C8.73047 8.95508 7.58789 7.54883 7.53906 5.74219L7.1582 5.60547C6.99219 5.53711 6.79688 5.625 6.73828 5.80078L3.17383 15.5762C3.02734 15.9766 2.65625 16.084 2.34375 15.9668C2.06055 15.8496 1.875 15.5664 2.01172 15.2051L6.24023 3.60352C6.48438 2.91016 7.22656 2.56836 7.91016 2.8125L8.47656 3.01758C9.67773 1.61133 11.5039 1.23047 13.4961 1.95312L13.916 0.78125C11.748-0.00976562 9.64844 0.3125 8.1543 1.63086L7.97852 1.5625C6.77734 1.13281 5.61523 1.78711 5.09766 3.19336L0.859375 14.8438C0.507812 15.8203 0.976562 16.8164 1.95312 17.1777ZM2.69531 16.7285L1.67969 16.3574L0 20.9766L1.01562 21.3379Z" fill="var(--color-primary)"/>
 </g>
</svg>
