<svg version="1.1" xmlns="http://www.w3.org/2000/svg" xmlns:xlink="http://www.w3.org/1999/xlink" viewBox="0 0 20.2832 19.9316">
 <g>
  <rect height="19.9316" opacity="0" width="20.2832" x="0" y="0"/>
  <path d="M9.96094 19.9316C15.459 19.9316 19.9219 15.4688 19.9219 9.9707C19.9219 4.48242 15.459 0.00976562 9.96094 0.00976562C4.47266 0.00976562 0 4.48242 0 9.9707C0 15.4688 4.47266 19.9316 9.96094 19.9316Z" fill="var(--color-tertiary)"/>
  <path d="M6.86523 14.7754C5.75195 14.7754 5.16602 14.1992 5.16602 13.0957L5.16602 7.22656C5.16602 6.12305 5.75195 5.53711 6.86523 5.53711L12.1387 5.53711L11.084 6.5918L6.88477 6.5918C6.44531 6.5918 6.2207 6.80664 6.2207 7.27539L6.2207 13.0371C6.2207 13.5059 6.44531 13.7207 6.88477 13.7207L12.832 13.7207C13.125 13.7207 13.3496 13.5059 13.3496 13.0371L13.3496 8.89648L14.3945 7.85156L14.3945 13.0957C14.3945 14.1992 13.8086 14.7754 12.8418 14.7754ZM8.76953 11.4648C8.57422 11.543 8.36914 11.3477 8.45703 11.1523L8.92578 10.1855L13.5352 5.56641L14.4141 6.41602L9.78516 11.0449ZM14.8438 5.97656L13.9746 5.11719L14.4141 4.6875C14.6289 4.46289 14.9512 4.46289 15.1562 4.66797L15.2832 4.79492C15.4785 4.99023 15.4883 5.2832 15.2637 5.50781Z" fill="var(--color-primary)"/>
 </g>
</svg>
