<svg version="1.1" xmlns="http://www.w3.org/2000/svg" xmlns:xlink="http://www.w3.org/1999/xlink" viewBox="0 0 22.168 20.8496">
 <g>
  <rect height="20.8496" opacity="0" width="22.168" x="0" y="0"/>
  <path d="M1.29883 19.707L20.5078 19.707L20.5078 18.5547C20.5078 18.1641 20.2832 17.9297 19.8828 17.9297L19.2578 17.9297L19.2578 6.69922L20.1172 6.69922C20.6543 6.69922 20.9668 6.30859 20.9668 5.9082C20.9668 5.61523 20.8008 5.36133 20.4395 5.15625L12.0996 0.341797C11.709 0.117188 11.2988 0 10.8984 0C10.498 0 10.0781 0.117188 9.70703 0.341797L1.36719 5.15625C0.996094 5.36133 0.839844 5.61523 0.839844 5.9082C0.839844 6.30859 1.15234 6.69922 1.68945 6.69922L2.54883 6.69922L2.54883 17.9297L1.93359 17.9297C1.5332 17.9297 1.29883 18.1641 1.29883 18.5547ZM0.78125 20.8398L21.0156 20.8398C21.4453 20.8398 21.8066 20.4785 21.8066 20.0488C21.8066 19.6191 21.4453 19.2676 21.0156 19.2676L0.78125 19.2676C0.351562 19.2676 0 19.6191 0 20.0488C0 20.4785 0.351562 20.8398 0.78125 20.8398Z" fill="var(--color-tertiary)"/>
  <path d="M7.69531 15.6055C7.39258 15.6055 7.17773 15.3906 7.17773 15.0879C7.17773 14.7852 7.36328 14.6094 7.64648 14.5117C8.53516 14.1797 9.0332 13.4668 9.0332 12.5098C9.0332 12.207 8.98438 11.8848 8.89648 11.5527L7.60742 11.5527C7.35352 11.5527 7.16797 11.377 7.16797 11.1426C7.16797 10.918 7.35352 10.7422 7.60742 10.7422L8.68164 10.7422C8.53516 10.2637 8.47656 9.89258 8.47656 9.50195C8.47656 7.71484 9.78516 6.65039 11.7188 6.65039C12.4219 6.65039 12.8125 6.69922 13.3594 6.91406C13.5938 7.00195 13.7988 7.1582 13.7988 7.43164C13.7988 7.70508 13.623 7.86133 13.3398 7.86133C13.2227 7.86133 13.0469 7.83203 12.8711 7.79297C12.6074 7.72461 12.2949 7.66602 11.8457 7.66602C10.5762 7.66602 9.69727 8.32031 9.69727 9.47266C9.69727 9.84375 9.72656 10.1465 9.87305 10.7422L12.666 10.7422C12.9199 10.7422 13.1152 10.9082 13.1152 11.1426C13.1152 11.377 12.9199 11.5527 12.666 11.5527L10.1074 11.5527C10.166 11.8164 10.1953 12.1191 10.1953 12.4609C10.1953 13.3496 9.82422 14.2578 9.02344 14.5703L9.02344 14.6094L13.6719 14.6094C13.9746 14.6094 14.2188 14.8242 14.2188 15.1074C14.2188 15.3906 13.9746 15.6055 13.6719 15.6055Z" fill="var(--color-primary)"/>
 </g>
</svg>
