<svg version="1.1" xmlns="http://www.w3.org/2000/svg" xmlns:xlink="http://www.w3.org/1999/xlink" viewBox="0 0 20.2832 19.9316">
 <g>
  <rect height="19.9316" opacity="0" width="20.2832" x="0" y="0"/>
  <path d="M9.96094 19.9316C15.459 19.9316 19.9219 15.4688 19.9219 9.9707C19.9219 4.48242 15.459 0.00976562 9.96094 0.00976562C4.47266 0.00976562 0 4.48242 0 9.9707C0 15.4688 4.47266 19.9316 9.96094 19.9316Z" fill="var(--color-tertiary)"/>
  <path d="M4.70703 12.0898C4.38477 12.0898 4.14062 11.8555 4.14062 11.5723C4.14062 11.2891 4.38477 11.0449 4.70703 11.0449L5.92773 11.0449C6.25 11.0449 6.49414 11.2793 6.49414 11.5723C6.49414 11.8652 6.25 12.0898 5.92773 12.0898ZM6.74805 9.21875L5.87891 8.34961C5.64453 8.10547 5.64453 7.79297 5.83984 7.57812C6.04492 7.38281 6.37695 7.36328 6.61133 7.59766L7.48047 8.4668C7.69531 8.69141 7.72461 9.0332 7.51953 9.23828C7.31445 9.45312 6.97266 9.43359 6.74805 9.21875ZM9.96094 3.65234C10.2539 3.65234 10.4883 3.90625 10.4883 4.20898L10.4883 6.05469L10.459 6.42578L10.5859 6.29883L11.2012 5.66406C11.2793 5.57617 11.4258 5.51758 11.5527 5.51758C11.8164 5.51758 12.002 5.71289 12.002 5.9668C12.002 6.10352 11.9727 6.21094 11.8457 6.33789L10.3125 7.76367C10.1953 7.87109 10.0781 7.91992 9.96094 7.91992C9.84375 7.91992 9.72656 7.87109 9.60938 7.76367L8.07617 6.33789C7.95898 6.21094 7.91992 6.10352 7.91992 5.9668C7.91992 5.71289 8.10547 5.51758 8.36914 5.51758C8.49609 5.51758 8.63281 5.57617 8.73047 5.67383L9.41406 6.33789L9.46289 6.39648L9.43359 6.05469L9.43359 4.20898C9.43359 3.90625 9.66797 3.65234 9.96094 3.65234ZM12.4219 9.23828C12.207 9.0332 12.2168 8.70117 12.4512 8.4668L13.3105 7.59766C13.5449 7.37305 13.877 7.36328 14.082 7.57812C14.2773 7.79297 14.2676 8.10547 14.043 8.34961L13.1836 9.21875C12.9492 9.44336 12.627 9.44336 12.4219 9.23828ZM14.0039 12.0898C13.6816 12.0898 13.4277 11.8652 13.4277 11.5723C13.4277 11.2793 13.6816 11.0449 14.0039 11.0449L15.2148 11.0449C15.5469 11.0449 15.7812 11.2793 15.7812 11.5723C15.7812 11.8555 15.5469 12.0898 15.2148 12.0898ZM12.7637 11.6797C12.7637 11.9824 12.7051 12.2852 12.5977 12.5684L7.32422 12.5684C7.2168 12.2852 7.1582 11.9824 7.1582 11.6797C7.1582 10.1562 8.4375 8.88672 9.96094 8.88672C11.4941 8.88672 12.7637 10.1562 12.7637 11.6797ZM4.69727 14.2188C4.41406 14.2188 4.14062 13.9941 4.14062 13.7012C4.14062 13.4082 4.4043 13.1836 4.69727 13.1836L15.2246 13.1836C15.5273 13.1836 15.7812 13.4082 15.7812 13.7012C15.7812 13.9941 15.5176 14.2188 15.2246 14.2188Z" fill="var(--color-primary)"/>
 </g>
</svg>
