<svg version="1.1" xmlns="http://www.w3.org/2000/svg" xmlns:xlink="http://www.w3.org/1999/xlink" viewBox="0 0 22.1753 22.8003">
 <g>
  <rect height="22.8003" opacity="0" width="22.1753" x="0" y="0"/>
  <path d="M5.45581 9.12516L2.23511 12.3425C1.54175 13.0359 1.52222 13.7878 2.24488 14.5007L8.29956 20.5554C9.01245 21.2781 9.76441 21.2683 10.4578 20.5652L13.6792 17.3438L14.7943 18.4583L11.5125 21.7468C10.116 23.1433 8.68042 23.1628 7.24488 21.7371L1.06324 15.5652C-0.362546 14.1394-0.343014 12.6941 1.05347 11.2976L4.34391 8.0139ZM18.5828 1.97144L20.8289 4.21753C21.571 4.95972 21.8152 5.28199 21.8152 6.31714L21.8152 10.0281C21.8152 11.0535 21.7664 11.4734 21.0339 12.2058L17.4722 15.7749L16.3598 14.6631L19.9304 11.0925C20.1257 10.8972 20.2429 10.6921 20.2429 10.3699L20.2429 6.24878C20.2429 5.94605 20.1355 5.74097 19.9304 5.53589L17.2742 2.87964C17.0593 2.67456 16.864 2.55738 16.5515 2.55738L12.4402 2.55738C12.1082 2.55738 11.9128 2.68433 11.7078 2.87964L8.13785 6.44588L7.02732 5.33598L10.6043 1.76636C11.3367 1.03394 11.7468 0.985111 12.7722 0.985111L16.4929 0.985111C17.5281 0.985111 17.8503 1.23902 18.5828 1.97144ZM16.6882 7.45972C16.6882 8.20191 16.1121 8.79761 15.3503 8.79761C14.5886 8.79761 14.0125 8.20191 14.0125 7.45972C14.0125 6.70777 14.5886 6.12183 15.3503 6.12183C16.1121 6.12183 16.6882 6.70777 16.6882 7.45972Z" fill="var(--color-secondary)"/>
  <path d="M18.8464 20.8972C19.1492 21.1902 19.6277 21.1902 19.9109 20.8972C20.1941 20.6043 20.2039 20.1257 19.9109 19.8328L2.95777 2.87964C2.6648 2.58667 2.18628 2.57691 1.88355 2.87964C1.60034 3.16284 1.60034 3.65113 1.88355 3.94409Z" fill="var(--color-primary)"/>
 </g>
</svg>
