<svg version="1.1" xmlns="http://www.w3.org/2000/svg" xmlns:xlink="http://www.w3.org/1999/xlink" viewBox="0 0 20.0391 16.9238">
 <g>
  <rect height="16.9238" opacity="0" width="20.0391" x="0" y="0"/>
  <path d="M0.78125 1.57227L18.877 1.57227C19.3164 1.57227 19.6777 1.23047 19.6777 0.791016C19.6777 0.351562 19.3164 0 18.877 0L0.78125 0C0.341797 0 0 0.351562 0 0.791016C0 1.23047 0.341797 1.57227 0.78125 1.57227ZM0.78125 6.68945L11.6699 6.68945C12.1094 6.68945 12.4609 6.33789 12.4609 5.89844C12.4609 5.45898 12.1094 5.11719 11.6699 5.11719L0.78125 5.11719C0.341797 5.11719 0 5.45898 0 5.89844C0 6.33789 0.341797 6.68945 0.78125 6.68945ZM0.78125 11.7969L18.877 11.7969C19.3164 11.7969 19.6777 11.4551 19.6777 11.0156C19.6777 10.5664 19.3164 10.2246 18.877 10.2246L0.78125 10.2246C0.341797 10.2246 0 10.5664 0 11.0156C0 11.4551 0.341797 11.7969 0.78125 11.7969ZM0.78125 16.9043L11.6699 16.9043C12.1094 16.9043 12.4609 16.5625 12.4609 16.123C12.4609 15.6836 12.1094 15.332 11.6699 15.332L0.78125 15.332C0.341797 15.332 0 15.6836 0 16.123C0 16.5625 0.341797 16.9043 0.78125 16.9043Z" fill="var(--color-primary)"/>
 </g>
</svg>
