<svg version="1.1" xmlns="http://www.w3.org/2000/svg" xmlns:xlink="http://www.w3.org/1999/xlink" viewBox="0 0 9.08203 10.3027">
 <g>
  <rect height="10.3027" opacity="0" width="9.08203" x="0" y="0"/>
  <path d="M0.810547 10.3027C1.21094 10.3027 1.47461 10.0977 1.63086 9.61914L2.44141 7.22656L6.25977 7.22656L7.07031 9.61914C7.22656 10.1172 7.49023 10.3027 7.90039 10.3027C8.38867 10.3027 8.7207 10 8.7207 9.56055C8.7207 9.36523 8.67188 9.17969 8.59375 8.97461L5.55664 0.908203C5.33203 0.3125 4.92188 0 4.3457 0C3.7793 0 3.36914 0.292969 3.14453 0.908203L0.107422 8.97461C0.0292969 9.16016 0 9.35547 0 9.56055C0 10.0098 0.3125 10.3027 0.810547 10.3027ZM2.87109 5.95703L4.23828 1.88477L4.46289 1.88477L5.83008 5.95703Z" fill="var(--color-primary)"/>
 </g>
</svg>
