<svg version="1.1" xmlns="http://www.w3.org/2000/svg" xmlns:xlink="http://www.w3.org/1999/xlink" viewBox="0 0 14.9121 18.1543">
 <g>
  <rect height="18.1543" opacity="0" width="14.9121" x="0" y="0"/>
  <path d="M0.820312 16.2793C1.33789 16.2793 1.5918 16.084 1.77734 15.5371L3.03711 12.0898L8.79883 12.0898L10.0586 15.5371C10.2441 16.084 10.498 16.2793 11.0059 16.2793C11.5234 16.2793 11.8555 15.9668 11.8555 15.4785C11.8555 15.3125 11.8262 15.1562 11.748 14.9512L7.16797 2.75391C6.94336 2.1582 6.54297 1.85547 5.91797 1.85547C5.3125 1.85547 4.90234 2.14844 4.6875 2.74414L0.107422 14.9609C0.0292969 15.166 0 15.3223 0 15.4883C0 15.9766 0.3125 16.2793 0.820312 16.2793ZM3.51562 10.6055L5.88867 4.0332L5.9375 4.0332L8.31055 10.6055Z" fill="var(--color-secondary)"/>
  <path d="M13.8379 8.16406C14.2676 8.16406 14.5508 7.88086 14.5508 7.4707L14.5508 0.791016C14.5508 0.302734 14.2578 0 13.7793 0C13.3496 0 13.1348 0.166016 12.8516 0.361328L11.2891 1.43555C11.0059 1.62109 10.8984 1.79688 10.8984 2.00195C10.8984 2.33398 11.1426 2.57812 11.4453 2.57812C11.6406 2.57812 11.7578 2.51953 11.9531 2.38281L13.0957 1.62109L13.125 1.62109L13.125 7.4707C13.125 7.88086 13.418 8.16406 13.8379 8.16406Z" fill="var(--color-primary)"/>
 </g>
</svg>
