<svg version="1.1" xmlns="http://www.w3.org/2000/svg" xmlns:xlink="http://www.w3.org/1999/xlink" viewBox="0 0 20.0391 16.9238">
 <g>
  <rect height="16.9238" opacity="0" width="20.0391" x="0" y="0"/>
  <path d="M12.2949 1.57227L18.877 1.57227C19.3164 1.57227 19.6777 1.23047 19.6777 0.791016C19.6777 0.351562 19.3164 0 18.877 0L12.2949 0C11.8555 0 11.5137 0.351562 11.5137 0.791016C11.5137 1.23047 11.8555 1.57227 12.2949 1.57227ZM12.2949 6.68945L18.877 6.68945C19.3164 6.68945 19.6777 6.33789 19.6777 5.89844C19.6777 5.45898 19.3164 5.11719 18.877 5.11719L12.2949 5.11719C11.8555 5.11719 11.5137 5.45898 11.5137 5.89844C11.5137 6.33789 11.8555 6.68945 12.2949 6.68945ZM0.78125 11.7969L18.877 11.7969C19.3164 11.7969 19.6777 11.4551 19.6777 11.0156C19.6777 10.5664 19.3164 10.2246 18.877 10.2246L0.78125 10.2246C0.341797 10.2246 0 10.5664 0 11.0156C0 11.4551 0.341797 11.7969 0.78125 11.7969ZM0.78125 16.9043L18.877 16.9043C19.3164 16.9043 19.6777 16.5625 19.6777 16.123C19.6777 15.6836 19.3164 15.332 18.877 15.332L0.78125 15.332C0.341797 15.332 0 15.6836 0 16.123C0 16.5625 0.341797 16.9043 0.78125 16.9043Z" fill="var(--color-secondary)"/>
  <path d="M1.12305 7.42188C1.65039 7.42188 2.08008 6.99219 2.08008 6.45508L2.08008 4.76562C2.08008 4.48242 2.22656 4.33594 2.50977 4.33594L5.23438 4.33594L5.23438 5.68359C5.23438 6.34766 5.82031 6.65039 6.36719 6.23047L9.28711 4.00391C9.66797 3.70117 9.66797 3.1543 9.28711 2.85156L6.36719 0.625C5.82031 0.205078 5.23438 0.507812 5.23438 1.17188L5.23438 2.41211L2.37305 2.41211C0.957031 2.41211 0.15625 3.16406 0.15625 4.50195L0.15625 6.45508C0.15625 6.99219 0.585938 7.42188 1.12305 7.42188Z" fill="var(--color-primary)"/>
 </g>
</svg>
