<svg version="1.1" xmlns="http://www.w3.org/2000/svg" xmlns:xlink="http://www.w3.org/1999/xlink" viewBox="0 0 20.2832 19.9316">
 <g>
  <rect height="19.9316" opacity="0" width="20.2832" x="0" y="0"/>
  <path d="M9.96094 19.9219C15.459 19.9219 19.9219 15.459 19.9219 9.96094C19.9219 4.46289 15.459 0 9.96094 0C4.46289 0 0 4.46289 0 9.96094C0 15.459 4.46289 19.9219 9.96094 19.9219ZM9.96094 18.2617C5.37109 18.2617 1.66016 14.5508 1.66016 9.96094C1.66016 5.37109 5.37109 1.66016 9.96094 1.66016C14.5508 1.66016 18.2617 5.37109 18.2617 9.96094C18.2617 14.5508 14.5508 18.2617 9.96094 18.2617Z" fill="var(--color-secondary)"/>
  <path d="M8.75 13.4961C10.8105 12.9297 11.709 11.3379 11.123 9.17969L10.332 6.25C10.1172 5.45898 9.59961 5.17578 8.80859 5.38086L4.64844 6.48438C3.84766 6.69922 3.55469 7.20703 3.76953 8.00781L4.55078 10.9473C5.11719 13.0957 6.68945 14.0332 8.75 13.4961ZM8.34961 11.9922C7.48047 12.2168 6.63086 11.9141 6.17188 11.2109C6.08398 11.0742 6.17188 10.957 6.33789 10.957C6.9043 11.0059 7.54883 10.9082 8.02734 10.791C8.49609 10.6641 9.11133 10.4199 9.58008 10.0977C9.7168 10 9.86328 10.0684 9.84375 10.2344C9.81445 11.0742 9.23828 11.7578 8.34961 11.9922ZM6.24023 9.24805C5.92773 9.33594 5.88867 9.53125 5.75195 9.56055C5.68359 9.57031 5.61523 9.50195 5.57617 9.39453C5.46875 9.02344 5.70312 8.64258 6.06445 8.56445C6.42578 8.4668 6.78711 8.68164 6.89453 9.02344C6.93359 9.15039 6.9043 9.24805 6.82617 9.27734C6.66992 9.31641 6.52344 9.16016 6.24023 9.24805ZM8.78906 8.56445C8.48633 8.63281 8.4375 8.84766 8.31055 8.85742C8.25195 8.88672 8.17383 8.79883 8.125 8.69141C8.03711 8.33984 8.26172 7.94922 8.61328 7.86133C8.99414 7.77344 9.35547 7.96875 9.44336 8.33984C9.49219 8.4668 9.44336 8.56445 9.38477 8.58398C9.23828 8.63281 9.08203 8.4668 8.78906 8.56445ZM15.5176 7.57812L11.3574 6.45508C11.2793 6.43555 11.1914 6.42578 11.123 6.41602L11.8262 8.98438C12.0703 9.88281 12.0801 10.7324 11.8848 11.4648C11.9922 11.4844 12.0996 11.4941 12.207 11.5234C12.9492 11.709 13.4473 12.2754 13.4766 12.9395C13.4766 13.1055 13.3203 13.1934 13.1934 13.0664C12.7832 12.6855 12.4219 12.5 11.9727 12.373C11.8359 12.334 11.6797 12.2949 11.543 12.2852C11.2012 12.9297 10.6543 13.457 9.92188 13.8281C10.3125 14.1504 10.8105 14.4141 11.416 14.5703C13.4668 15.1172 15.0391 14.1699 15.6055 12.0215L16.3965 9.0918C16.6113 8.30078 16.3184 7.7832 15.5176 7.57812ZM13.75 10.7617C13.4668 10.7031 13.291 10.3906 13.3789 10.0977C13.4375 9.81445 13.7402 9.64844 14.0332 9.72656C14.3164 9.79492 14.4922 10.0977 14.4141 10.3809C14.3262 10.6641 14.0332 10.8398 13.75 10.7617Z" fill="var(--color-primary)"/>
 </g>
</svg>
