<svg version="1.1" xmlns="http://www.w3.org/2000/svg" xmlns:xlink="http://www.w3.org/1999/xlink" viewBox="0 0 20.2832 19.9316">
 <g>
  <rect height="19.9316" opacity="0" width="20.2832" x="0" y="0"/>
  <path d="M9.96094 19.9316C15.459 19.9316 19.9219 15.4688 19.9219 9.9707C19.9219 4.48242 15.459 0.00976562 9.96094 0.00976562C4.47266 0.00976562 0 4.48242 0 9.9707C0 15.4688 4.47266 19.9316 9.96094 19.9316Z" fill="var(--color-tertiary)"/>
  <path d="M7.34375 16.0254C5.78125 16.0254 4.53125 14.7754 4.53125 13.2227C4.53125 12.4023 4.86328 11.6797 5.50781 11.1035C5.625 11.0156 5.64453 10.957 5.64453 10.8105L5.64453 5.88867C5.64453 4.78516 6.32812 4.0332 7.34375 4.0332C8.34961 4.0332 9.05273 4.78516 9.05273 5.88867L9.04297 10.8105C9.04297 10.957 9.0625 11.0156 9.16016 11.1035C9.80469 11.6797 10.1465 12.4023 10.1465 13.2227C10.1465 14.7754 8.89648 16.0254 7.34375 16.0254ZM7.34375 15.1953C8.42773 15.1953 9.30664 14.3164 9.30664 13.2227C9.30664 12.5586 9.00391 11.9727 8.4375 11.6016C8.26172 11.4844 8.20312 11.3672 8.20312 11.1426L8.20312 5.91797C8.20312 5.29297 7.86133 4.88281 7.34375 4.88281C6.80664 4.88281 6.46484 5.29297 6.46484 5.91797L6.46484 11.1426C6.46484 11.3672 6.40625 11.4844 6.23047 11.6016C5.67383 11.9727 5.37109 12.5586 5.37109 13.2227C5.37109 14.3164 6.24023 15.1953 7.34375 15.1953ZM7.34375 6.32812C7.11914 6.32812 6.95312 6.15234 6.95312 5.92773C6.95312 5.72266 7.11914 5.54688 7.34375 5.54688C7.55859 5.54688 7.72461 5.72266 7.72461 5.92773C7.72461 6.15234 7.55859 6.32812 7.34375 6.32812ZM7.34375 7.67578C7.11914 7.67578 6.95312 7.5 6.95312 7.28516C6.95312 7.07031 7.11914 6.9043 7.34375 6.9043C7.55859 6.9043 7.72461 7.07031 7.72461 7.28516C7.72461 7.5 7.55859 7.67578 7.34375 7.67578ZM7.34375 9.02344C7.11914 9.02344 6.95312 8.83789 6.95312 8.61328C6.95312 8.41797 7.11914 8.23242 7.34375 8.23242C7.55859 8.23242 7.72461 8.41797 7.72461 8.61328C7.72461 8.83789 7.55859 9.02344 7.34375 9.02344ZM7.33398 14.5312C6.61133 14.5312 6.02539 13.9453 6.02539 13.2129C6.02539 12.7051 6.30859 12.2754 6.71875 12.0703C6.89453 11.9629 6.95312 11.9141 6.95312 11.6602L6.95312 9.9707C6.95312 9.76562 7.11914 9.58984 7.34375 9.58984C7.55859 9.58984 7.72461 9.76562 7.72461 9.9707L7.72461 11.6602C7.72461 11.9141 7.77344 11.9727 7.93945 12.0703C8.35938 12.2949 8.65234 12.7051 8.65234 13.2129C8.65234 13.9355 8.06641 14.5312 7.33398 14.5312ZM12.7441 6.11328C12.0996 6.11328 11.5723 5.58594 11.5723 4.94141C11.5723 4.28711 12.0996 3.76953 12.7441 3.76953C13.3984 3.76953 13.916 4.28711 13.916 4.94141C13.916 5.58594 13.3984 6.11328 12.7441 6.11328ZM13.4473 15.752C13.1543 15.752 12.9297 15.5273 12.9297 15.2246L12.9297 11.416C12.9297 11.3086 12.8418 11.2402 12.7441 11.2402C12.6465 11.2402 12.5586 11.3086 12.5586 11.416L12.5586 15.2246C12.5586 15.5273 12.3438 15.752 12.041 15.752C11.748 15.752 11.5137 15.5273 11.5137 15.2246L11.5137 8.95508C11.5137 8.85742 11.4453 8.7793 11.3379 8.7793C11.25 8.7793 11.1621 8.85742 11.1621 8.95508L11.1621 11.0156C11.1621 11.2793 10.9473 11.5039 10.6836 11.5039C10.4395 11.5039 10.2148 11.2793 10.2148 11.0156L10.2148 8.70117C10.2148 7.51953 11.0938 6.72852 12.3633 6.72852L13.1348 6.72852C14.4043 6.72852 15.2832 7.51953 15.2832 8.70117L15.2832 11.0156C15.2832 11.2793 15.0586 11.5039 14.7949 11.5039C14.5508 11.5039 14.3262 11.2793 14.3262 11.0156L14.3262 8.95508C14.3262 8.85742 14.2383 8.7793 14.1504 8.7793C14.0527 8.7793 13.9746 8.85742 13.9746 8.95508L13.9746 15.2246C13.9746 15.5273 13.7402 15.752 13.4473 15.752Z" fill="var(--color-primary)"/>
 </g>
</svg>
