<svg version="1.1" xmlns="http://www.w3.org/2000/svg" xmlns:xlink="http://www.w3.org/1999/xlink" viewBox="0 0 23.3887 24.873">
 <g>
  <rect height="24.873" opacity="0" width="23.3887" x="0" y="0"/>
  <path d="M19.1016 7.89062L22.4707 12.0703C22.9102 12.5977 23.0273 13.0371 23.0273 13.9258L23.0273 19.707C23.0273 21.7188 22.0117 22.7344 19.9609 22.7344L3.06641 22.7344C1.02539 22.7344 0 21.7188 0 19.707L0 13.9258C0 13.0371 0.126953 12.5977 0.556641 12.0703L3.93555 7.89062C5.07812 6.48438 5.57617 6.05469 7.31445 6.05469L8.90625 6.05469L8.90625 7.43164L7.19727 7.43164C6.48438 7.43164 5.9375 7.66602 5.45898 8.27148L1.83594 12.8516C1.66992 13.0566 1.73828 13.3301 2.06055 13.3301L8.49609 13.3301C9.00391 13.3301 9.24805 13.7207 9.24805 14.1211L9.24805 14.1602C9.24805 15.293 10.1367 16.4844 11.5137 16.4844C12.9004 16.4844 13.7891 15.293 13.7891 14.1602L13.7891 14.1211C13.7891 13.7207 14.0234 13.3301 14.5312 13.3301L20.9766 13.3301C21.2988 13.3301 21.3574 13.0566 21.2012 12.8516L17.5684 8.27148C17.0898 7.66602 16.543 7.43164 15.8301 7.43164L14.1211 7.43164L14.1211 6.05469L15.7129 6.05469C17.4512 6.05469 17.959 6.48438 19.1016 7.89062ZM1.57227 14.7656L1.57227 19.6191C1.57227 20.6348 2.10938 21.1621 3.08594 21.1621L19.9414 21.1621C20.9082 21.1621 21.4551 20.6348 21.4551 19.6191L21.4551 14.7656L15.2637 14.7656C15.0293 16.582 13.4961 17.9395 11.5137 17.9395C9.53125 17.9395 7.99805 16.5918 7.76367 14.7656Z" fill="var(--color-secondary)"/>
  <path d="M11.5137 0C11.0938 0 10.7422 0.341797 10.7422 0.751953L10.7422 9.70703L10.8008 11.1719L10.2441 10.5957L8.74023 8.98438C8.60352 8.82812 8.38867 8.75 8.20312 8.75C7.79297 8.75 7.5 9.04297 7.5 9.43359C7.5 9.64844 7.57812 9.80469 7.72461 9.95117L10.9473 13.0566C11.1426 13.252 11.3184 13.3105 11.5137 13.3105C11.7188 13.3105 11.8848 13.252 12.0801 13.0566L15.3027 9.95117C15.4492 9.80469 15.5273 9.64844 15.5273 9.43359C15.5273 9.04297 15.2246 8.75 14.8145 8.75C14.6289 8.75 14.4238 8.82812 14.2871 8.98438L12.7832 10.5957L12.2266 11.1719L12.2949 9.70703L12.2949 0.751953C12.2949 0.341797 11.9336 0 11.5137 0Z" fill="var(--color-primary)"/>
 </g>
</svg>
