<svg version="1.1" xmlns="http://www.w3.org/2000/svg" xmlns:xlink="http://www.w3.org/1999/xlink" viewBox="0 0 34.8047 26.8335">
 <g>
  <rect height="26.8335" opacity="0" width="34.8047" x="0" y="0"/>
  <path d="M9.26758 18.5681C9.26758 19.9255 8.18359 20.9998 6.82617 20.9998C5.47852 20.9998 4.4043 19.9158 4.4043 18.5681C4.4043 17.2205 5.47852 16.1462 6.82617 16.1462C8.18359 16.1462 9.26758 17.2205 9.26758 18.5681ZM28.4375 18.5681C28.4375 19.5951 27.8136 20.469 26.9152 20.8251L23.7524 17.6623C24.1124 16.773 24.9885 16.1462 26.0059 16.1462C27.3633 16.1462 28.4375 17.2205 28.4375 18.5681ZM20.1532 19.4275L10.293 19.4275C10.3711 19.1052 10.4004 18.8709 10.4004 18.5681C10.4004 16.5857 8.88672 15.0037 6.82617 15.0037C4.88281 15.0037 3.27148 16.5076 3.27148 18.5388C3.27148 18.8709 3.30078 19.1052 3.36914 19.4275L2.31445 19.4275C0.869141 19.4275 0 18.5388 0 17.0544L0 14.8572C0 12.7283 1.25 11.5564 4.00391 11.1267L7.38281 10.6091L9.80614 9.08499ZM24.5117 9.26148L24.7266 11.1169L32.1289 11.1169C33.5742 11.1169 34.4434 12.0154 34.4434 13.49L34.4434 17.0544C34.4434 18.5388 33.5742 19.4275 32.1289 19.4275L29.4629 19.4275C29.5508 19.1345 29.5801 18.9002 29.5801 18.5681C29.5801 16.5857 28.0664 15.0037 26.0059 15.0037C24.6719 15.0037 23.4975 15.7051 22.8878 16.7977L13.2865 7.19638C14.5796 6.73766 15.9773 6.5564 17.832 6.5564L21.5039 6.5564C23.3008 6.5564 24.2969 7.46461 24.5117 9.26148Z" fill="var(--color-secondary)"/>
  <path d="M23.8086 2.71851L23.8086 3.82203C23.8086 4.61304 23.3789 5.12086 22.5977 5.12086L14.2383 5.12086C13.4766 5.12086 13.1543 4.76929 13.1543 4.12476C13.1543 3.70484 13.3789 3.39234 13.9746 3.06031L16.1426 1.77125C18.0078 0.745856 18.9648 0.531012 20.5566 0.531012L21.4453 0.531012C23.0859 0.531012 23.8086 1.25367 23.8086 2.71851Z" fill="var(--color-secondary)"/>
  <path d="M27.8223 25.4724C28.1152 25.7654 28.6035 25.7654 28.8867 25.4724C29.1797 25.1794 29.1797 24.7009 28.8867 24.408L6.80664 2.33765C6.50391 2.03492 6.03516 2.03492 5.73242 2.33765C5.44922 2.62086 5.43945 3.09937 5.73242 3.40211Z" fill="var(--color-primary)"/>
 </g>
</svg>
