<svg version="1.1" xmlns="http://www.w3.org/2000/svg" xmlns:xlink="http://www.w3.org/1999/xlink" viewBox="0 0 37.3926 24.3652">
 <g>
  <rect height="24.3652" opacity="0" width="37.3926" x="0" y="0"/>
  <path d="M9.96094 17.1582C9.96094 18.6133 8.80859 19.7656 7.34375 19.7656C5.89844 19.7656 4.73633 18.6035 4.73633 17.1582C4.73633 15.7031 5.89844 14.541 7.34375 14.541C8.79883 14.541 9.96094 15.7031 9.96094 17.1582ZM30.5762 17.1582C30.5762 18.6035 29.4141 19.7656 27.959 19.7656C26.5039 19.7656 25.3418 18.6035 25.3418 17.1582C25.3418 15.7129 26.5137 14.541 27.959 14.541C29.4141 14.541 30.5762 15.7031 30.5762 17.1582ZM26.3574 7.14844L26.5918 9.14062L34.5508 9.14062C36.1035 9.14062 37.0312 10.0977 37.0312 11.6895L37.0312 15.5273C37.0312 17.1191 36.1035 18.0762 34.5508 18.0762L31.5918 18.0762C31.6699 17.7734 31.709 17.4805 31.709 17.1582C31.709 15.0781 30.0391 13.4082 27.959 13.4082C25.8887 13.4082 24.209 15.0879 24.209 17.1582C24.209 17.4805 24.248 17.7734 24.3262 18.0762L10.9863 18.0762C11.0547 17.7832 11.0938 17.4805 11.0938 17.1582C11.0938 15.0781 9.42383 13.4082 7.34375 13.4082C5.27344 13.4082 3.59375 15.0781 3.59375 17.1582C3.59375 17.4805 3.64258 17.7734 3.71094 18.0762L2.49023 18.0762C0.9375 18.0762 0 17.1191 0 15.5273L0 13.1641C0 10.8691 1.33789 9.59961 4.29688 9.15039L7.93945 8.59375L11.9336 6.09375C13.7377 4.95603 15.3795 4.42694 17.6944 4.28278L17.8125 8.20312C17.832 8.7207 18.1738 9.07227 18.6719 9.07227C19.1699 9.07227 19.5215 8.7207 19.541 8.20312L19.6605 4.23828L23.125 4.23828C25.0488 4.23828 26.1328 5.21484 26.3574 7.14844ZM17.3438 12.2656C17.3438 12.959 17.9492 13.5547 18.6719 13.5547C19.4043 13.5547 20 12.959 20 12.2656C20 11.5723 19.4141 10.9961 18.6719 10.9961C17.9395 10.9961 17.3438 11.5723 17.3438 12.2656Z" fill="var(--color-tertiary)"/>
  <path d="M18.6719 13.5547C17.9492 13.5547 17.3438 12.959 17.3438 12.2656C17.3438 11.5723 17.9395 10.9961 18.6719 10.9961C19.4141 10.9961 20 11.5723 20 12.2656C20 12.959 19.4043 13.5547 18.6719 13.5547ZM18.6719 9.07227C18.1738 9.07227 17.832 8.7207 17.8125 8.20312L17.5977 1.07422C17.5781 0.429688 18.0078 0 18.6719 0C19.3359 0 19.7754 0.429688 19.7559 1.07422L19.541 8.20312C19.5215 8.7207 19.1699 9.07227 18.6719 9.07227Z" fill="var(--color-primary)"/>
 </g>
</svg>
