<svg version="1.1" xmlns="http://www.w3.org/2000/svg" xmlns:xlink="http://www.w3.org/1999/xlink" viewBox="0 0 18.3398 17.9785">
 <g>
  <rect height="17.9785" opacity="0" width="18.3398" x="0" y="0"/>
  <path d="M3.06641 17.9785L14.9121 17.9785C16.9629 17.9785 17.9785 16.9727 17.9785 14.9609L17.9785 3.02734C17.9785 1.01562 16.9629 0 14.9121 0L3.06641 0C1.02539 0 0 1.01562 0 3.02734L0 14.9609C0 16.9727 1.02539 17.9785 3.06641 17.9785Z" fill="var(--color-tertiary)"/>
  <path d="M9.00391 13.7012C8.38867 13.7012 8.06641 13.4375 7.80273 12.7539L4.9707 5.38086C4.92188 5.22461 4.89258 5.10742 4.89258 4.96094C4.89258 4.51172 5.24414 4.18945 5.71289 4.18945C6.16211 4.18945 6.40625 4.4043 6.57227 4.88281L8.95508 11.7676L9.02344 11.7676L11.416 4.88281C11.582 4.4043 11.8262 4.18945 12.2754 4.18945C12.7441 4.18945 13.0859 4.50195 13.0859 4.96094C13.0859 5.10742 13.0664 5.22461 13.0176 5.38086L10.1953 12.7344C9.94141 13.3984 9.58008 13.7012 9.00391 13.7012Z" fill="var(--color-primary)"/>
 </g>
</svg>
