<svg version="1.1" xmlns="http://www.w3.org/2000/svg" xmlns:xlink="http://www.w3.org/1999/xlink" viewBox="0 0 20.2832 19.9316">
 <g>
  <rect height="19.9316" opacity="0" width="20.2832" x="0" y="0"/>
  <path d="M9.96094 19.9219C15.459 19.9219 19.9219 15.4492 19.9219 9.96094C19.9219 4.46289 15.459 0 9.96094 0C4.47266 0 0 4.46289 0 9.96094C0 15.4492 4.47266 19.9219 9.96094 19.9219Z" fill="var(--color-tertiary)"/>
  <path d="M5.67383 5.00977L14.9121 14.2578C15.0879 14.4336 15.0879 14.7168 14.9121 14.9023C14.7363 15.0781 14.4336 15.0684 14.2676 14.9023L5.01953 5.6543C4.85352 5.48828 4.84375 5.19531 5.01953 5.00977C5.20508 4.83398 5.49805 4.83398 5.67383 5.00977ZM5.87321 7.52216C4.81958 7.89408 4.24805 8.60124 4.24805 9.92188C4.24805 11.6504 5.03906 12.627 6.34766 12.627C7.6903 12.627 8.32464 11.4127 9.51011 11.1552L11.2152 12.8586C10.7236 12.5176 10.3313 12.207 9.96094 12.207C9.15039 12.207 8.21289 13.7305 6.34766 13.7305C4.51172 13.7305 3.1543 12.0605 3.1543 9.92188C3.1543 8.21916 3.881 7.24771 5.05279 6.70261ZM16.7676 9.92188C16.7676 11.4473 16.077 12.7343 15.0126 13.3431L14.2065 12.5379C15.1337 12.2651 15.6738 11.3502 15.6738 9.92188C15.6738 7.37305 13.5449 7.10938 9.96094 7.10938C9.54911 7.10938 9.1565 7.11286 8.78654 7.12363L7.74664 6.08483C8.44206 6.02295 9.1889 6.00586 9.96094 6.00586C13.6621 6.00586 16.7676 6.39648 16.7676 9.92188Z" fill="var(--color-primary)"/>
 </g>
</svg>
