<svg version="1.1" xmlns="http://www.w3.org/2000/svg" xmlns:xlink="http://www.w3.org/1999/xlink" viewBox="0 0 20.2832 19.9316">
 <g>
  <rect height="19.9316" opacity="0" width="20.2832" x="0" y="0"/>
  <path d="M9.96094 19.9219C15.459 19.9219 19.9219 15.459 19.9219 9.96094C19.9219 4.46289 15.459 0 9.96094 0C4.46289 0 0 4.46289 0 9.96094C0 15.459 4.46289 19.9219 9.96094 19.9219ZM9.96094 18.2617C5.37109 18.2617 1.66016 14.5508 1.66016 9.96094C1.66016 5.37109 5.37109 1.66016 9.96094 1.66016C14.5508 1.66016 18.2617 5.37109 18.2617 9.96094C18.2617 14.5508 14.5508 18.2617 9.96094 18.2617Z" fill="var(--color-secondary)"/>
  <path d="M14.0527 9.95117C14.0527 7.72461 13.3887 5.55664 12.1973 3.82812C11.9629 3.49609 11.5625 3.41797 11.25 3.63281C10.9375 3.85742 10.8887 4.26758 11.123 4.58984C12.1582 6.06445 12.7441 7.96875 12.7441 9.95117C12.7441 11.9141 12.1484 13.8477 11.123 15.3125C10.8887 15.6445 10.9375 16.0449 11.25 16.2695C11.5527 16.4844 11.9531 16.3965 12.1973 16.084C13.3887 14.3652 14.0527 12.1973 14.0527 9.95117Z" fill="var(--color-primary)"/>
  <path d="M10.9961 9.95117C10.9961 8.29102 10.5176 6.71875 9.64844 5.52734C9.41406 5.21484 9.02344 5.13672 8.71094 5.36133C8.41797 5.56641 8.34961 5.97656 8.58398 6.31836C9.27734 7.27539 9.66797 8.59375 9.66797 9.95117C9.66797 11.3184 9.27734 12.6367 8.58398 13.5938C8.34961 13.9355 8.41797 14.3457 8.71094 14.5508C9.02344 14.7656 9.41406 14.6973 9.64844 14.375C10.5176 13.1641 10.9961 11.582 10.9961 9.95117Z" fill="var(--color-primary)"/>
  <path d="M7.93945 9.95117C7.93945 8.95508 7.63672 7.94922 7.11914 7.22656C6.89453 6.93359 6.49414 6.8457 6.19141 7.04102C5.84961 7.27539 5.79102 7.70508 6.05469 8.05664C6.40625 8.50586 6.61133 9.21875 6.61133 9.95117C6.61133 10.6641 6.40625 11.377 6.05469 11.8555C5.80078 12.207 5.85938 12.6172 6.19141 12.8613C6.49414 13.0664 6.9043 12.9785 7.11914 12.6758C7.63672 11.9922 7.93945 10.9766 7.93945 9.95117Z" fill="var(--color-primary)"/>
 </g>
</svg>
