<svg version="1.1" xmlns="http://www.w3.org/2000/svg" xmlns:xlink="http://www.w3.org/1999/xlink" viewBox="0 0 20.2832 19.9316">
 <g>
  <rect height="19.9316" opacity="0" width="20.2832" x="0" y="0"/>
  <path d="M19.9219 9.9707C19.9219 15.4688 15.459 19.9316 9.96094 19.9316C4.47266 19.9316 0 15.4688 0 9.9707C0 4.48242 4.47266 0.00976562 9.96094 0.00976562C15.459 0.00976562 19.9219 4.48242 19.9219 9.9707ZM8.06641 12.6953C7.98828 12.8223 8.01758 12.959 8.125 13.0664L9.47266 14.375C9.69727 14.5996 9.81445 14.6582 9.9707 14.6582C10.127 14.6582 10.2344 14.6094 10.4785 14.375L11.8164 13.0664C11.9238 12.959 11.9531 12.7832 11.8457 12.6465C11.4453 12.1094 10.7031 11.748 9.9707 11.748C9.22852 11.748 8.48633 12.1191 8.06641 12.6953ZM5.80078 10.3418C5.69336 10.4785 5.71289 10.6348 5.83008 10.7617L6.67969 11.6211C6.83594 11.7773 7.03125 11.7969 7.19727 11.6016C7.88086 10.8496 8.93555 10.3613 9.9707 10.3711C10.9863 10.3613 12.0605 10.8496 12.7539 11.6113C12.9102 11.7871 13.1055 11.7773 13.252 11.6211L14.1113 10.7617C14.2383 10.6445 14.248 10.4688 14.1309 10.3418C13.2129 9.22852 11.6113 8.52539 9.9707 8.52539C8.32031 8.52539 6.71875 9.23828 5.80078 10.3418ZM3.59375 8.10547C3.48633 8.25195 3.50586 8.41797 3.63281 8.54492L4.375 9.31641C4.50195 9.48242 4.73633 9.47266 4.89258 9.30664C6.21094 7.90039 7.96875 7.14844 9.9707 7.14844C11.9629 7.14844 13.7402 7.89062 15.0586 9.31641C15.2051 9.46289 15.4102 9.46289 15.5566 9.30664L16.3086 8.54492C16.4355 8.41797 16.4551 8.25195 16.3379 8.10547C14.9707 6.43555 12.4512 5.3125 9.9707 5.3125C7.48047 5.3125 4.96094 6.42578 3.59375 8.10547Z" fill="var(--color-primary)"/>
 </g>
</svg>
