<svg version="1.1" xmlns="http://www.w3.org/2000/svg" xmlns:xlink="http://www.w3.org/1999/xlink" viewBox="0 0 16.5918 20.2441">
 <g>
  <rect height="20.2441" opacity="0" width="16.5918" x="0" y="0"/>
  <path d="M8.11523 20.2441C8.27148 20.2441 8.52539 20.1855 8.76953 20.0488C14.3262 16.9336 16.2305 15.6152 16.2305 12.0508L16.2305 4.58008C16.2305 3.55469 15.791 3.23242 14.9609 2.88086C13.8086 2.40234 10.0879 1.06445 8.93555 0.664062C8.67188 0.576172 8.38867 0.517578 8.11523 0.517578C7.8418 0.517578 7.55859 0.595703 7.30469 0.664062C6.15234 0.996094 2.42188 2.41211 1.26953 2.88086C0.449219 3.22266 0 3.55469 0 4.58008L0 12.0508C0 15.6152 1.91406 16.9238 7.46094 20.0488C7.71484 20.1855 7.95898 20.2441 8.11523 20.2441ZM8.11523 18.4766C7.95898 18.4766 7.80273 18.418 7.50977 18.2422C2.99805 15.5078 1.55273 14.707 1.55273 11.6895L1.55273 4.88281C1.55273 4.55078 1.61133 4.42383 1.88477 4.31641C3.36914 3.73047 6.25 2.76367 7.72461 2.17773C7.88086 2.10938 8.00781 2.08984 8.11523 2.08984C8.22266 2.08984 8.34961 2.11914 8.50586 2.17773C9.98047 2.76367 12.8418 3.79883 14.3555 4.31641C14.6191 4.41406 14.6777 4.55078 14.6777 4.88281L14.6777 11.6895C14.6777 14.707 13.2324 15.498 8.7207 18.2422C8.4375 18.418 8.27148 18.4766 8.11523 18.4766Z" fill="var(--color-secondary)"/>
  <path d="M4.79492 14.043C5.00977 14.043 5.20508 13.9551 5.35156 13.7988L8.125 11.0254L10.8984 13.7988C11.0449 13.9453 11.2402 14.043 11.4648 14.043C11.8945 14.043 12.2461 13.6816 12.2461 13.252C12.2461 13.0273 12.1582 12.8516 12.0117 12.6953L9.23828 9.92188L12.0215 7.12891C12.1777 6.96289 12.2559 6.79688 12.2559 6.58203C12.2559 6.15234 11.9043 5.80078 11.4746 5.80078C11.2695 5.80078 11.0938 5.87891 10.9277 6.04492L8.125 8.82812L5.33203 6.05469C5.18555 5.89844 5.00977 5.82031 4.79492 5.82031C4.35547 5.82031 4.01367 6.16211 4.01367 6.5918C4.01367 6.80664 4.0918 6.99219 4.24805 7.13867L7.02148 9.92188L4.24805 12.7051C4.0918 12.8516 4.01367 13.0371 4.01367 13.252C4.01367 13.6816 4.35547 14.043 4.79492 14.043Z" fill="var(--color-primary)"/>
 </g>
</svg>
