<svg version="1.1" xmlns="http://www.w3.org/2000/svg" xmlns:xlink="http://www.w3.org/1999/xlink" viewBox="0 0 18.5254 17.9785">
 <g>
  <rect height="17.9785" opacity="0" width="18.5254" x="0" y="0"/>
  <path d="M11.7871 17.8418L16.2305 17.8418C17.4707 17.8418 18.0957 17.2266 18.0957 15.9375L18.0957 11.5723C18.0957 10.2832 17.4707 9.66797 16.2305 9.66797L11.7871 9.66797C10.5469 9.66797 9.92188 10.2832 9.92188 11.5723L9.92188 15.9375C9.92188 17.2266 10.5469 17.8418 11.7871 17.8418Z" fill="var(--color-primary)"/>
  <path d="M4.20898 17.9785C6.5332 17.9785 8.4082 16.0938 8.4082 13.7695C8.4082 11.4453 6.5332 9.57031 4.20898 9.57031C1.88477 9.57031 0 11.4453 0 13.7695C0 16.0938 1.88477 17.9785 4.20898 17.9785Z" fill="var(--color-primary)"/>
  <path d="M10.8691 7.75391L17.1484 7.75391C18.0273 7.75391 18.3789 7.01172 17.959 6.25977L14.8828 0.791016C14.4434 0.00976562 13.5645 0.0195312 13.1348 0.791016L10.0684 6.25977C9.6582 6.99219 9.98047 7.75391 10.8691 7.75391Z" fill="var(--color-primary)"/>
  <path d="M6.82617 7.53906C7.08984 7.8125 7.51953 7.7832 7.77344 7.51953C8.03711 7.25586 8.06641 6.83594 7.80273 6.57227L1.5625 0.341797C1.30859 0.0878906 0.878906 0.107422 0.615234 0.371094C0.361328 0.625 0.332031 1.06445 0.585938 1.31836ZM1.57227 7.53906L7.8125 1.31836C8.06641 1.06445 8.03711 0.625 7.7832 0.371094C7.5293 0.107422 7.08984 0.0878906 6.83594 0.341797L0.595703 6.57227C0.332031 6.83594 0.361328 7.25586 0.625 7.51953C0.888672 7.7832 1.30859 7.8125 1.57227 7.53906Z" fill="var(--color-primary)"/>
 </g>
</svg>
