<svg version="1.1" xmlns="http://www.w3.org/2000/svg" xmlns:xlink="http://www.w3.org/1999/xlink" viewBox="0 0 14.5898 14.248">
 <g>
  <rect height="14.248" opacity="0" width="14.5898" x="0" y="0"/>
  <path d="M2.49023 14.248L11.7383 14.248C13.4082 14.248 14.2285 13.4277 14.2285 11.7871L14.2285 2.4707C14.2285 0.830078 13.4082 0.00976562 11.7383 0.00976562L2.49023 0.00976562C0.830078 0.00976562 0 0.830078 0 2.4707L0 11.7871C0 13.4277 0.830078 14.248 2.49023 14.248ZM2.50977 12.832C1.80664 12.832 1.40625 12.4512 1.40625 11.7188L1.40625 2.53906C1.40625 1.79688 1.80664 1.42578 2.50977 1.42578L11.7188 1.42578C12.4219 1.42578 12.8223 1.79688 12.8223 2.53906L12.8223 11.7188C12.8223 12.4512 12.4219 12.832 11.7188 12.832Z" fill="var(--color-primary)"/>
  <path d="M4.64844 10.3809C6.21094 10.3809 6.68945 8.70117 6.68945 7.11914C6.68945 5.53711 6.21094 3.85742 4.64844 3.85742C3.0957 3.85742 2.60742 5.53711 2.60742 7.11914C2.60742 8.70117 3.0957 10.3809 4.64844 10.3809ZM4.64844 9.36523C4.12109 9.36523 3.86719 8.49609 3.86719 7.11914C3.86719 5.74219 4.12109 4.87305 4.64844 4.87305C5.18555 4.87305 5.43945 5.74219 5.43945 7.11914C5.43945 8.49609 5.18555 9.36523 4.64844 9.36523ZM9.46289 10.3613C10.5957 10.3613 11.4746 9.67773 11.4746 8.51562C11.4746 7.53906 10.8691 7.10938 10.2539 7.04102L10.2539 7.01172C10.9473 6.82617 11.2891 6.2207 11.2891 5.57617C11.2891 4.49219 10.459 3.89648 9.43359 3.89648C8.64258 3.89648 7.91016 4.33594 7.68555 5.01953C7.64648 5.15625 7.62695 5.29297 7.62695 5.43945C7.62695 5.71289 7.82227 5.9375 8.1543 5.9375C8.44727 5.9375 8.62305 5.83008 8.70117 5.54688C8.82812 5.11719 9.05273 4.88281 9.43359 4.88281C9.91211 4.88281 10.1172 5.24414 10.1172 5.71289C10.1172 6.24023 9.84375 6.61133 9.29688 6.61133L9.14062 6.61133C8.85742 6.61133 8.67188 6.78711 8.67188 7.07031C8.67188 7.35352 8.85742 7.50977 9.14062 7.50977L9.30664 7.50977C9.92188 7.50977 10.2539 7.85156 10.2539 8.4668C10.2539 8.96484 9.99023 9.36523 9.46289 9.36523C8.94531 9.36523 8.73047 9.0332 8.63281 8.7207C8.55469 8.45703 8.35938 8.31055 8.0957 8.31055C7.75391 8.31055 7.5293 8.51562 7.5293 8.85742C7.5293 8.99414 7.54883 9.13086 7.58789 9.25781C7.8125 9.9707 8.64258 10.3613 9.46289 10.3613Z" fill="var(--color-primary)"/>
 </g>
</svg>
