<svg version="1.1" xmlns="http://www.w3.org/2000/svg" xmlns:xlink="http://www.w3.org/1999/xlink" viewBox="0 0 14.5898 14.248">
 <g>
  <rect height="14.248" opacity="0" width="14.5898" x="0" y="0"/>
  <path d="M2.49023 14.248L11.7383 14.248C13.4082 14.248 14.2285 13.4277 14.2285 11.7871L14.2285 2.4707C14.2285 0.830078 13.4082 0.00976562 11.7383 0.00976562L2.49023 0.00976562C0.830078 0.00976562 0 0.830078 0 2.4707L0 11.7871C0 13.4277 0.830078 14.248 2.49023 14.248ZM2.50977 12.832C1.80664 12.832 1.40625 12.4512 1.40625 11.7188L1.40625 2.53906C1.40625 1.79688 1.80664 1.42578 2.50977 1.42578L11.7188 1.42578C12.4219 1.42578 12.8223 1.79688 12.8223 2.53906L12.8223 11.7188C12.8223 12.4512 12.4219 12.832 11.7188 12.832Z" fill="var(--color-primary)"/>
  <path d="M4.62891 10.3809C6.18164 10.3809 6.66992 8.70117 6.66992 7.11914C6.66992 5.53711 6.18164 3.85742 4.62891 3.85742C3.07617 3.85742 2.58789 5.53711 2.58789 7.11914C2.58789 8.70117 3.07617 10.3809 4.62891 10.3809ZM4.62891 9.36523C4.0918 9.36523 3.84766 8.49609 3.84766 7.11914C3.84766 5.74219 4.0918 4.87305 4.62891 4.87305C5.16602 4.87305 5.41992 5.74219 5.41992 7.11914C5.41992 8.49609 5.16602 9.36523 4.62891 9.36523ZM9.58008 10.3613C10.8398 10.3613 11.6309 9.59961 11.6309 8.54492C11.6309 7.69531 11.084 7.10938 10.4688 6.97266L10.4688 6.94336C10.9766 6.79688 11.4551 6.30859 11.4551 5.56641C11.4551 4.56055 10.6836 3.88672 9.58008 3.88672C8.62305 3.88672 7.71484 4.44336 7.71484 5.55664C7.71484 6.36719 8.24219 6.80664 8.71094 6.94336L8.71094 6.97266C8.05664 7.11914 7.53906 7.69531 7.53906 8.54492C7.53906 9.70703 8.4375 10.3613 9.58008 10.3613ZM9.58008 6.55273C9.11133 6.55273 8.91602 6.07422 8.91602 5.68359C8.91602 5.24414 9.14062 4.79492 9.58008 4.79492C10.0293 4.79492 10.2441 5.22461 10.2441 5.68359C10.2441 6.15234 10.0391 6.55273 9.58008 6.55273ZM9.58008 9.44336C9.07227 9.44336 8.82812 8.97461 8.82812 8.44727C8.82812 7.93945 9.07227 7.4707 9.58008 7.4707C10.0977 7.4707 10.3418 7.92969 10.3418 8.44727C10.3418 8.97461 10.0977 9.44336 9.58008 9.44336Z" fill="var(--color-primary)"/>
 </g>
</svg>
