<svg version="1.1" xmlns="http://www.w3.org/2000/svg" xmlns:xlink="http://www.w3.org/1999/xlink" viewBox="0 0 16.1328 15.7715">
 <g>
  <rect height="15.7715" opacity="0" width="16.1328" x="0" y="0"/>
  <path d="M15.7715 7.88086C15.7715 12.2266 12.2363 15.7617 7.88086 15.7617C3.53516 15.7617 0 12.2266 0 7.88086C0 3.53516 3.53516 0 7.88086 0C12.2363 0 15.7715 3.53516 15.7715 7.88086ZM5.2832 4.92188L4.46289 5.54688C4.30664 5.66406 4.17969 5.83984 4.17969 6.07422C4.17969 6.34766 4.375 6.54297 4.63867 6.54297C4.76562 6.54297 4.86328 6.50391 4.95117 6.42578L5.61523 5.89844L5.61523 10.5273C5.61523 10.8887 5.9082 11.1816 6.26953 11.1816C6.63086 11.1816 6.92383 10.8887 6.92383 10.5273L6.92383 5.29297C6.92383 4.82422 6.64062 4.56055 6.17188 4.56055C5.79102 4.56055 5.48828 4.76562 5.2832 4.92188ZM9.08203 4.92188L8.26172 5.54688C8.10547 5.66406 7.97852 5.83984 7.97852 6.07422C7.97852 6.34766 8.16406 6.54297 8.4375 6.54297C8.56445 6.54297 8.66211 6.50391 8.74023 6.42578L9.41406 5.89844L9.41406 10.5273C9.41406 10.8887 9.70703 11.1816 10.0684 11.1816C10.4297 11.1816 10.7129 10.8887 10.7129 10.5273L10.7129 5.29297C10.7129 4.82422 10.4297 4.56055 9.96094 4.56055C9.58984 4.56055 9.28711 4.76562 9.08203 4.92188Z" fill="var(--color-primary)"/>
 </g>
</svg>
