<svg version="1.1" xmlns="http://www.w3.org/2000/svg" xmlns:xlink="http://www.w3.org/1999/xlink" viewBox="0 0 16.1328 15.7715">
 <g>
  <rect height="15.7715" opacity="0" width="16.1328" x="0" y="0"/>
  <path d="M7.88086 15.7617C12.2363 15.7617 15.7715 12.2363 15.7715 7.88086C15.7715 3.52539 12.2363 0 7.88086 0C3.53516 0 0 3.52539 0 7.88086C0 12.2363 3.53516 15.7617 7.88086 15.7617ZM7.88086 14.2773C4.3457 14.2773 1.49414 11.416 1.49414 7.88086C1.49414 4.3457 4.3457 1.48438 7.88086 1.48438C11.416 1.48438 14.2773 4.3457 14.2773 7.88086C14.2773 11.416 11.416 14.2773 7.88086 14.2773Z" fill="var(--color-primary)"/>
  <path d="M5.84961 11.0645C6.19141 11.0645 6.47461 10.7812 6.47461 10.4297L6.47461 5.39062C6.47461 4.93164 6.20117 4.67773 5.75195 4.67773C5.39062 4.67773 5.09766 4.88281 4.90234 5.0293L4.11133 5.63477C3.96484 5.74219 3.83789 5.91797 3.83789 6.14258C3.83789 6.40625 4.01367 6.5918 4.27734 6.5918C4.4043 6.5918 4.49219 6.55273 4.58008 6.48438L5.22461 5.9668L5.22461 10.4297C5.22461 10.7812 5.50781 11.0645 5.84961 11.0645ZM8.21289 10.9766L10.8789 10.9766C11.1816 10.9766 11.3574 10.7812 11.3574 10.4785C11.3574 10.1562 11.1719 9.9707 10.8789 9.9707L9.15039 9.9707L9.15039 9.91211L10.1855 8.65234C10.9863 7.66602 11.25 7.09961 11.25 6.42578C11.25 5.36133 10.5078 4.61914 9.42383 4.61914C8.42773 4.61914 7.64648 5.42969 7.64648 6.2207C7.64648 6.54297 7.83203 6.76758 8.1543 6.76758C8.4375 6.76758 8.61328 6.64062 8.70117 6.35742C8.85742 5.88867 9.02344 5.60547 9.41406 5.60547C9.82422 5.60547 10.0684 5.95703 10.0684 6.48438C10.0684 7.09961 9.59961 7.74414 9.20898 8.23242L7.96875 9.78516C7.80273 9.99023 7.63672 10.2051 7.63672 10.4785C7.63672 10.7617 7.82227 10.9766 8.21289 10.9766Z" fill="var(--color-primary)"/>
 </g>
</svg>
