<svg version="1.1" xmlns="http://www.w3.org/2000/svg" xmlns:xlink="http://www.w3.org/1999/xlink" width="14.5898" height="14.248" viewBox="0 0 14.5898 14.248">
 <g>
  <rect height="14.248" opacity="0" width="14.5898" x="0" y="0"/>
  <path d="M2.49023 14.248L11.7383 14.248C13.4082 14.248 14.2285 13.4277 14.2285 11.7871L14.2285 2.4707C14.2285 0.830078 13.4082 0.00976562 11.7383 0.00976562L2.49023 0.00976562C0.830078 0.00976562 0 0.830078 0 2.4707L0 11.7871C0 13.4277 0.830078 14.248 2.49023 14.248ZM2.50977 12.832C1.80664 12.832 1.40625 12.4609 1.40625 11.7188L1.40625 2.53906C1.40625 1.80664 1.80664 1.42578 2.50977 1.42578L11.7188 1.42578C12.4219 1.42578 12.8223 1.80664 12.8223 2.53906L12.8223 11.7188C12.8223 12.4609 12.4219 12.832 11.7188 12.832Z" fill="var(--color-secondary)"/>
  <path d="M4.67773 10.3613C5.81055 10.3613 6.68945 9.67773 6.68945 8.51562C6.68945 7.53906 6.08398 7.10938 5.46875 7.04102L5.46875 7.01172C6.16211 6.82617 6.50391 6.2207 6.50391 5.57617C6.50391 4.49219 5.66406 3.89648 4.64844 3.89648C3.84766 3.89648 3.125 4.33594 2.90039 5.01953C2.86133 5.15625 2.8418 5.29297 2.8418 5.43945C2.8418 5.71289 3.02734 5.9375 3.36914 5.9375C3.65234 5.9375 3.82812 5.83008 3.91602 5.54688C4.04297 5.11719 4.25781 4.88281 4.64844 4.88281C5.11719 4.88281 5.33203 5.24414 5.33203 5.71289C5.33203 6.24023 5.04883 6.61133 4.50195 6.61133L4.35547 6.61133C4.07227 6.61133 3.88672 6.78711 3.88672 7.07031C3.88672 7.35352 4.07227 7.50977 4.35547 7.50977L4.51172 7.50977C5.12695 7.50977 5.45898 7.85156 5.45898 8.4668C5.45898 8.96484 5.19531 9.36523 4.67773 9.36523C4.16016 9.36523 3.94531 9.0332 3.84766 8.7207C3.75977 8.45703 3.57422 8.31055 3.31055 8.31055C2.96875 8.31055 2.74414 8.51562 2.74414 8.85742C2.74414 8.99414 2.76367 9.13086 2.80273 9.25781C3.02734 9.9707 3.84766 10.3613 4.67773 10.3613ZM9.55078 10.3809C10.752 10.3809 11.4453 9.4043 11.4453 8.18359C11.4453 7.1582 10.9473 6.18164 9.93164 6.18164C9.33594 6.18164 8.86719 6.5625 8.68164 7.19727L8.65234 7.19727C8.65234 7.17773 8.65234 7.14844 8.65234 7.12891C8.65234 6.32812 8.75 4.87305 9.54102 4.87305C9.84375 4.87305 10.0586 5.08789 10.1855 5.36133C10.3027 5.625 10.4785 5.73242 10.7422 5.73242C11.0938 5.73242 11.2305 5.49805 11.2305 5.21484C11.2305 5.12695 11.2207 5.03906 11.2012 4.94141C11.0449 4.27734 10.3516 3.87695 9.57031 3.87695C7.96875 3.87695 7.48047 5.58594 7.48047 7.17773C7.48047 8.63281 7.95898 10.3809 9.55078 10.3809ZM9.54102 9.38477C9.00391 9.38477 8.80859 8.71094 8.80859 8.22266C8.80859 7.69531 9.02344 7.10938 9.54102 7.10938C10.0586 7.10938 10.2637 7.72461 10.2441 8.24219C10.2441 8.75 10.0195 9.38477 9.54102 9.38477Z" fill="var(--color-primary)"/>
 </g>
</svg>
