<svg version="1.1" xmlns="http://www.w3.org/2000/svg" xmlns:xlink="http://www.w3.org/1999/xlink" width="16.1328" height="15.7715" viewBox="0 0 16.1328 15.7715">
 <g>
  <rect height="15.7715" opacity="0" width="16.1328" x="0" y="0"/>
  <path d="M7.88086 15.7617C12.1875 15.7617 15.7715 12.1875 15.7715 7.88086C15.7715 3.57422 12.1777 0 7.87109 0C3.57422 0 0 3.57422 0 7.88086C0 12.1875 3.58398 15.7617 7.88086 15.7617Z" fill="var(--color-tertiary)"/>
  <path d="M4.74609 9.35547C4.74609 9.16016 4.79492 8.96484 4.89258 8.79883C5.77148 7.27539 6.45508 6.04492 7.32422 4.51172C7.49023 4.20898 7.69531 4.07227 7.97852 4.07227C8.37891 4.07227 8.60352 4.375 8.60352 4.73633C8.60352 4.87305 8.55469 5.00977 8.48633 5.15625C7.74414 6.52344 7.1582 7.56836 6.42578 8.91602L8.48633 8.91602L8.48633 7.29492C8.48633 6.81641 8.73047 6.5332 9.13086 6.5332C9.56055 6.5332 9.80469 6.80664 9.80469 7.29492L9.80469 8.91602L10.2539 8.91602C10.6543 8.91602 10.8984 9.14062 10.8984 9.48242C10.8984 9.85352 10.6543 10.0977 10.2539 10.0977L9.80469 10.0977L9.80469 10.752C9.80469 11.2402 9.56055 11.5137 9.13086 11.5137C8.73047 11.5137 8.48633 11.2305 8.48633 10.752L8.48633 10.0977L5.53711 10.0977C5.04883 10.0977 4.74609 9.80469 4.74609 9.35547Z" fill="var(--color-primary)"/>
 </g>
</svg>
