<svg version="1.1" xmlns="http://www.w3.org/2000/svg" xmlns:xlink="http://www.w3.org/1999/xlink" width="14.5898" height="14.248" viewBox="0 0 14.5898 14.248">
 <g>
  <rect height="14.248" opacity="0" width="14.5898" x="0" y="0"/>
  <path d="M2.49023 14.248L11.7383 14.248C13.4082 14.248 14.2285 13.4277 14.2285 11.7871L14.2285 2.4707C14.2285 0.830078 13.4082 0.00976562 11.7383 0.00976562L2.49023 0.00976562C0.830078 0.00976562 0 0.830078 0 2.4707L0 11.7871C0 13.4277 0.830078 14.248 2.49023 14.248ZM2.50977 12.832C1.80664 12.832 1.40625 12.4609 1.40625 11.7188L1.40625 2.53906C1.40625 1.80664 1.80664 1.42578 2.50977 1.42578L11.7188 1.42578C12.4219 1.42578 12.8223 1.80664 12.8223 2.53906L12.8223 11.7188C12.8223 12.4609 12.4219 12.832 11.7188 12.832Z" fill="var(--color-secondary)"/>
  <path d="M5.89844 10.3223C6.2207 10.3223 6.48438 10.127 6.48438 9.70703L6.48438 9.0625L6.70898 9.0625C7.03125 9.0625 7.1875 8.84766 7.1875 8.56445C7.1875 8.29102 7.05078 8.06641 6.70898 8.06641L6.48438 8.06641L6.48438 4.85352C6.48438 4.26758 6.10352 3.93555 5.52734 3.93555C4.93164 3.93555 4.64844 4.23828 4.4043 4.76562L3.1543 7.55859C3.01758 7.89062 2.96875 8.10547 2.96875 8.36914C2.96875 8.7793 3.25195 9.0625 3.66211 9.0625L5.30273 9.0625L5.30273 9.70703C5.30273 10.166 5.63477 10.3223 5.89844 10.3223ZM5.33203 8.0957L4.01367 8.0957L4.01367 8.03711L5.30273 4.98047L5.33203 4.98047ZM9.72656 10.3027C10.0586 10.3027 10.3418 10.0195 10.3418 9.66797L10.3418 4.62891C10.3418 4.16992 10.0684 3.91602 9.61914 3.91602C9.25781 3.91602 8.96484 4.12109 8.76953 4.26758L7.97852 4.87305C7.83203 4.98047 7.70508 5.15625 7.70508 5.38086C7.70508 5.64453 7.89062 5.83008 8.14453 5.83008C8.27148 5.83008 8.35938 5.79102 8.44727 5.72266L9.0918 5.20508L9.0918 9.66797C9.0918 10.0195 9.375 10.3027 9.72656 10.3027Z" fill="var(--color-primary)"/>
 </g>
</svg>
