<svg version="1.1" xmlns="http://www.w3.org/2000/svg" xmlns:xlink="http://www.w3.org/1999/xlink" width="16.1328" height="15.7715" viewBox="0 0 16.1328 15.7715">
 <g>
  <rect height="15.7715" opacity="0" width="16.1328" x="0" y="0"/>
  <path d="M7.88086 15.7617C12.1875 15.7617 15.7715 12.1875 15.7715 7.88086C15.7715 3.57422 12.1777 0 7.87109 0C3.57422 0 0 3.57422 0 7.88086C0 12.1875 3.58398 15.7617 7.88086 15.7617Z" fill="var(--color-tertiary)"/>
  <path d="M7.86133 11.6992C6.13281 11.6992 4.98047 10.8398 4.98047 9.54102C4.98047 8.64258 5.61523 7.90039 6.60156 7.70508L6.60156 7.65625C5.77148 7.40234 5.29297 6.78711 5.29297 6.01562C5.29297 4.86328 6.35742 4.0625 7.88086 4.0625C9.41406 4.0625 10.4785 4.86328 10.4785 6.01562C10.4785 6.78711 9.98047 7.42188 9.16992 7.65625L9.16992 7.70508C10.1367 7.90039 10.791 8.63281 10.791 9.53125C10.791 10.8301 9.60938 11.6992 7.86133 11.6992ZM7.89062 10.7227C8.76953 10.7227 9.42383 10.1953 9.42383 9.45312C9.42383 8.7207 8.79883 8.18359 7.89062 8.18359C7.02148 8.18359 6.35742 8.73047 6.35742 9.45312C6.35742 10.1953 7.01172 10.7227 7.89062 10.7227ZM7.88086 7.25586C8.63281 7.25586 9.16016 6.78711 9.16016 6.13281C9.16016 5.49805 8.63281 5.04883 7.88086 5.04883C7.13867 5.04883 6.61133 5.49805 6.61133 6.13281C6.61133 6.78711 7.13867 7.25586 7.88086 7.25586Z" fill="var(--color-primary)"/>
 </g>
</svg>
