<svg version="1.1" xmlns="http://www.w3.org/2000/svg" xmlns:xlink="http://www.w3.org/1999/xlink" width="16.1328" height="15.7715" viewBox="0 0 16.1328 15.7715">
 <g>
  <rect height="15.7715" opacity="0" width="16.1328" x="0" y="0"/>
  <path d="M7.88086 15.7715C12.1875 15.7715 15.7715 12.1973 15.7715 7.89062C15.7715 3.58398 12.1777 0.00976562 7.87109 0.00976562C3.57422 0.00976562 0 3.58398 0 7.89062C0 12.1973 3.58398 15.7715 7.88086 15.7715Z" fill="var(--color-tertiary)"/>
  <path d="M2.87109 7.64648C2.87109 6.45508 3.30078 5.33203 4.08203 4.47266C4.30664 4.20898 4.6582 4.20898 4.87305 4.45312C5.05859 4.6582 5.0293 4.96094 4.80469 5.23438C4.22852 5.86914 3.90625 6.72852 3.90625 7.64648C3.90625 8.58398 4.22852 9.43359 4.80469 10.0879C5.0293 10.3613 5.05859 10.6543 4.86328 10.8691C4.6582 11.1035 4.30664 11.084 4.08203 10.8398C3.29102 9.9707 2.87109 8.85742 2.87109 7.64648ZM11.8555 7.64648C11.8555 6.72852 11.543 5.86914 10.9668 5.23438C10.7324 4.96094 10.7129 4.6582 10.8984 4.45312C11.1133 4.20898 11.4648 4.20898 11.6895 4.47266C12.4609 5.33203 12.9004 6.45508 12.9004 7.64648C12.9004 8.85742 12.4707 9.9707 11.6895 10.8398C11.4648 11.084 11.1133 11.1035 10.9082 10.8691C10.7129 10.6543 10.7324 10.3613 10.9668 10.0879C11.543 9.43359 11.8555 8.58398 11.8555 7.64648Z" fill="var(--color-primary)"/>
  <path d="M4.81445 7.64648C4.81445 6.97266 5.03906 6.31836 5.43945 5.80078C5.6543 5.51758 6.03516 5.49805 6.25977 5.75195C6.43555 5.95703 6.41602 6.21094 6.20117 6.51367C5.98633 6.83594 5.84961 7.23633 5.84961 7.64648C5.84961 8.0957 5.97656 8.47656 6.20117 8.79883C6.41602 9.10156 6.43555 9.36523 6.25977 9.57031C6.04492 9.81445 5.6543 9.79492 5.43945 9.52148C5.03906 8.99414 4.81445 8.33008 4.81445 7.64648ZM9.92188 7.64648C9.92188 7.23633 9.78516 6.83594 9.57031 6.51367C9.35547 6.21094 9.33594 5.95703 9.50195 5.75195C9.73633 5.49805 10.1172 5.51758 10.3223 5.80078C10.7324 6.31836 10.957 6.97266 10.957 7.64648C10.957 8.33008 10.7324 8.99414 10.3223 9.52148C10.1172 9.79492 9.72656 9.81445 9.50195 9.57031C9.33594 9.36523 9.35547 9.10156 9.57031 8.79883C9.79492 8.47656 9.92188 8.0957 9.92188 7.64648Z" fill="var(--color-primary)"/>
  <path d="M6.91406 7.64648C6.91406 7.10938 7.34375 6.67969 7.88086 6.67969C8.41797 6.67969 8.85742 7.10938 8.85742 7.64648C8.85742 7.99805 8.66211 8.31055 8.37891 8.47656L8.37891 12.4316C8.37891 12.7539 8.17383 12.9688 7.88086 12.9688C7.59766 12.9688 7.39258 12.7441 7.39258 12.4316L7.39258 8.48633C7.10938 8.32031 6.91406 8.00781 6.91406 7.64648Z" fill="var(--color-primary)"/>
 </g>
</svg>
