<svg version="1.1" xmlns="http://www.w3.org/2000/svg" xmlns:xlink="http://www.w3.org/1999/xlink" width="16.1328" height="15.791" viewBox="0 0 16.1328 15.791">
 <g>
  <rect height="15.791" opacity="0" width="16.1328" x="0" y="0"/>
  <path d="M7.88086 15.7715C12.1875 15.7715 15.7715 12.1875 15.7715 7.89062C15.7715 3.58398 12.1777 0 7.87109 0C3.57422 0 0 3.58398 0 7.89062C0 12.1875 3.58398 15.7715 7.88086 15.7715Z" fill="var(--color-tertiary)"/>
  <path d="M7.07031 11.7871C5.16602 11.7871 3.92578 10.5078 3.92578 8.60352L3.92578 7.61719C3.92578 7.19727 4.18945 6.91406 4.57031 6.91406C4.96094 6.91406 5.22461 7.1875 5.22461 7.59766L5.22461 8.60352C5.22461 9.7168 5.95703 10.4883 7.07031 10.4883C8.07617 10.4883 8.75 9.73633 8.75 8.61328L8.75 6.5332L8.78906 5.73242L8.53516 6.10352L7.75391 6.92383C7.62695 7.04102 7.4707 7.11914 7.28516 7.11914C6.9043 7.11914 6.61133 6.83594 6.61133 6.47461C6.61133 6.2793 6.67969 6.12305 6.80664 6.00586L8.86719 3.98438C9.0332 3.81836 9.21875 3.75977 9.4043 3.75977C9.59961 3.75977 9.78516 3.82812 9.94141 3.98438L11.9824 5.99609C12.1191 6.12305 12.1777 6.26953 12.1777 6.47461C12.1777 6.83594 11.8848 7.11914 11.5137 7.11914C11.3379 7.11914 11.1621 7.04102 11.0547 6.92383L10.4492 6.28906L10.0098 5.72266L10.0488 6.5332L10.0488 8.61328C10.0488 10.5176 8.85742 11.7871 7.07031 11.7871Z" fill="var(--color-primary)"/>
 </g>
</svg>
