<svg version="1.1" xmlns="http://www.w3.org/2000/svg" xmlns:xlink="http://www.w3.org/1999/xlink" viewBox="0 0 18.4766 14.248">
 <g>
  <rect height="14.248" opacity="0" width="18.4766" x="0" y="0"/>
  <path d="M2.49023 14.248L15.625 14.248C17.2949 14.248 18.1152 13.4277 18.1152 11.7871L18.1152 2.4707C18.1152 0.830078 17.2949 0.00976562 15.625 0.00976562L2.49023 0.00976562C0.830078 0.00976562 0 0.830078 0 2.4707L0 11.7871C0 13.4277 0.830078 14.248 2.49023 14.248ZM2.50977 12.832C1.80664 12.832 1.40625 12.4512 1.40625 11.7188L1.40625 2.53906C1.40625 1.79688 1.80664 1.42578 2.50977 1.42578L15.6055 1.42578C16.3086 1.42578 16.709 1.79688 16.709 2.53906L16.709 11.7188C16.709 12.4512 16.3086 12.832 15.6055 12.832Z" fill="var(--color-primary)"/>
  <path d="M13.2617 6.83594C13.623 6.83594 13.877 6.55273 13.877 6.17188L13.877 3.24219C13.877 2.75391 13.6035 2.55859 13.1738 2.55859L10.2246 2.55859C9.84375 2.55859 9.58008 2.80273 9.58008 3.16406C9.58008 3.53516 9.84375 3.7793 10.2441 3.7793L11.0352 3.7793L11.9629 3.67188L10.8789 4.6582L9.58984 5.95703C9.48242 6.06445 9.39453 6.23047 9.39453 6.39648C9.39453 6.76758 9.64844 7.02148 10.0098 7.02148C10.2051 7.02148 10.3516 6.95312 10.4785 6.82617L11.7578 5.54688L12.7637 4.47266L12.6465 5.40039L12.6465 6.19141C12.6465 6.57227 12.8906 6.83594 13.2617 6.83594ZM4.86328 7.42188C4.49219 7.42188 4.24805 7.70508 4.24805 8.08594L4.24805 11.0156C4.24805 11.5039 4.52148 11.6992 4.94141 11.6992L7.90039 11.6992C8.27148 11.6992 8.53516 11.4551 8.53516 11.0938C8.53516 10.7227 8.27148 10.4785 7.88086 10.4785L7.08008 10.4785L6.16211 10.5859L7.24609 9.59961L8.52539 8.30078C8.64258 8.19336 8.73047 8.01758 8.73047 7.86133C8.73047 7.48047 8.47656 7.23633 8.11523 7.23633C7.91992 7.23633 7.76367 7.30469 7.64648 7.43164L6.35742 8.71094L5.36133 9.77539L5.46875 8.85742L5.46875 8.06641C5.46875 7.68555 5.22461 7.42188 4.86328 7.42188Z" fill="var(--color-primary)"/>
 </g>
</svg>
