<svg version="1.1" xmlns="http://www.w3.org/2000/svg" xmlns:xlink="http://www.w3.org/1999/xlink" width="17.8125" height="14.2285" viewBox="0 0 17.8125 14.2285">
 <g>
  <rect height="14.2285" opacity="0" width="17.8125" x="0" y="0"/>
  <path d="M7.58789 14.2188C8.14453 14.2188 8.57422 13.8086 8.57422 13.252L8.57422 10.4004L8.76953 10.4004C11.582 10.4004 13.3984 11.1035 14.8047 13.623C15.0977 14.1504 15.4883 14.2188 15.8398 14.2188C16.2793 14.2188 16.6992 13.8184 16.6992 13.0859C16.6992 7.54883 14.4531 3.81836 8.76953 3.81836L8.57422 3.81836L8.57422 1.02539C8.57422 0.46875 8.14453 0 7.56836 0C7.1582 0 6.88477 0.175781 6.42578 0.605469L0.371094 6.26953C0.107422 6.5332 0 6.83594 0 7.10938C0 7.37305 0.107422 7.68555 0.371094 7.93945L6.42578 13.6719C6.8457 14.0527 7.17773 14.2188 7.58789 14.2188ZM7.06055 12.3145C7.02148 12.3145 6.98242 12.2949 6.95312 12.2656L1.62109 7.1875C1.5918 7.1582 1.57227 7.13867 1.57227 7.10938C1.57227 7.08008 1.5918 7.06055 1.62109 7.03125L6.95312 1.875C6.98242 1.8457 7.02148 1.82617 7.06055 1.82617C7.11914 1.82617 7.1582 1.86523 7.1582 1.92383L7.1582 4.86328C7.1582 5.03906 7.24609 5.12695 7.43164 5.12695L8.56445 5.12695C13.9648 5.12695 15.2734 9.00391 15.459 12.1582C15.459 12.207 15.4297 12.2266 15.4102 12.2266C15.3906 12.2266 15.3809 12.2168 15.3613 12.168C14.4824 10.3906 12.1582 9.08203 8.56445 9.08203L7.43164 9.08203C7.24609 9.08203 7.1582 9.16992 7.1582 9.35547L7.1582 12.2168C7.1582 12.2754 7.11914 12.3145 7.06055 12.3145Z" fill="var(--color-primary)"/>
 </g>
</svg>
