<svg version="1.1" xmlns="http://www.w3.org/2000/svg" xmlns:xlink="http://www.w3.org/1999/xlink" width="16.1328" height="15.7715" viewBox="0 0 16.1328 15.7715">
 <g>
  <rect height="15.7715" opacity="0" width="16.1328" x="0" y="0"/>
  <path d="M7.88086 15.7617C12.1875 15.7617 15.7715 12.1875 15.7715 7.88086C15.7715 3.57422 12.1777 0 7.87109 0C3.57422 0 0 3.57422 0 7.88086C0 12.1875 3.58398 15.7617 7.88086 15.7617Z" fill="var(--color-tertiary)"/>
  <path d="M7.89062 11.875C7.5 11.875 7.2168 11.5918 7.2168 11.1914L7.2168 7.62695L7.29492 5.81055L6.54297 6.74805L5.73242 7.57812C5.60547 7.70508 5.43945 7.77344 5.24414 7.77344C4.87305 7.77344 4.58984 7.49023 4.58984 7.11914C4.58984 6.93359 4.64844 6.76758 4.76562 6.65039L7.37305 4.07227C7.55859 3.88672 7.69531 3.80859 7.89062 3.80859C8.0957 3.80859 8.25195 3.88672 8.42773 4.07227L11.0156 6.65039C11.1426 6.76758 11.2109 6.93359 11.2109 7.11914C11.2109 7.49023 10.918 7.77344 10.5371 7.77344C10.3516 7.77344 10.1855 7.71484 10.0586 7.57812L9.24805 6.74805L8.49609 5.80078L8.57422 7.62695L8.57422 11.1914C8.57422 11.5918 8.29102 11.875 7.89062 11.875Z" fill="var(--color-primary)"/>
 </g>
</svg>
