<svg version="1.1" xmlns="http://www.w3.org/2000/svg" xmlns:xlink="http://www.w3.org/1999/xlink" viewBox="0 0 14.6582 14.2285">
 <g>
  <rect height="14.2285" opacity="0" width="14.6582" x="0" y="0"/>
  <path d="M0.917969 0.9375C0.126953 1.72852 0 2.82227 0 4.02344L0 4.05273L1.40625 4.05273L1.40625 3.97461C1.40625 3.25195 1.48438 2.42188 1.94336 1.96289C2.40234 1.50391 3.24219 1.41602 3.96484 1.41602L4.05273 1.41602L4.05273 0.00976562L4.01367 0.00976562C2.82227 0.00976562 1.71875 0.136719 0.917969 0.9375ZM5.18555 1.41602L9.10156 1.41602L9.10156 0.00976562L5.18555 0.00976562ZM13.3789 0.9375C12.5781 0.136719 11.4746 0.00976562 10.2734 0.00976562L10.2441 0.00976562L10.2441 1.41602L10.3418 1.41602C11.0547 1.41602 11.8945 1.50391 12.3535 1.96289C12.8125 2.42188 12.8906 3.25195 12.8906 3.96484L12.8906 4.05273L14.2969 4.05273L14.2969 4.0332C14.2969 2.82227 14.1602 1.72852 13.3789 0.9375ZM12.8906 9.04297L14.2969 9.04297L14.2969 5.19531L12.8906 5.19531ZM13.3789 13.3008C14.1602 12.5098 14.2969 11.416 14.2969 10.2051L14.2969 10.1855L12.8906 10.1855L12.8906 10.2734C12.8906 10.9863 12.8125 11.8164 12.3535 12.2754C11.8945 12.7344 11.0547 12.8223 10.3418 12.8223L10.2441 12.8223L10.2441 14.2285L10.2734 14.2285C11.4746 14.2285 12.5781 14.1016 13.3789 13.3008ZM5.18555 14.2285L9.10156 14.2285L9.10156 12.8223L5.18555 12.8223ZM0.917969 13.3008C1.71875 14.1016 2.82227 14.2285 4.02344 14.2285L4.05273 14.2285L4.05273 12.8223L3.95508 12.8223C3.24219 12.8223 2.40234 12.7344 1.94336 12.2754C1.48438 11.8164 1.40625 10.9863 1.40625 10.2734L1.40625 10.1855L0 10.1855L0 10.2051C0 11.416 0.126953 12.5098 0.917969 13.3008ZM0 9.04297L1.40625 9.04297L1.40625 5.19531L0 5.19531Z" fill="var(--color-primary)"/>
  <path d="M7.1582 10.9961C7.33398 10.9961 7.49023 10.9375 7.66602 10.7617L10.166 8.36914C10.3027 8.23242 10.3711 8.0957 10.3711 7.91016C10.3711 7.54883 10.0977 7.29492 9.73633 7.29492C9.57031 7.29492 9.38477 7.36328 9.26758 7.5L8.19336 8.67188L7.79297 9.0918L7.85156 7.92969L7.85156 3.89648C7.85156 3.53516 7.5293 3.22266 7.1582 3.22266C6.77734 3.22266 6.46484 3.53516 6.46484 3.89648L6.46484 7.92969L6.51367 9.0918L6.12305 8.67188L5.04883 7.5C4.92188 7.36328 4.73633 7.29492 4.57031 7.29492C4.19922 7.29492 3.93555 7.54883 3.93555 7.91016C3.93555 8.0957 4.01367 8.23242 4.14062 8.36914L6.65039 10.7617C6.82617 10.9375 6.98242 10.9961 7.1582 10.9961Z" fill="var(--color-primary)"/>
 </g>
</svg>
