<svg version="1.1" xmlns="http://www.w3.org/2000/svg" xmlns:xlink="http://www.w3.org/1999/xlink" viewBox="0 0 14.5898 14.248">
 <g>
  <rect height="14.248" opacity="0" width="14.5898" x="0" y="0"/>
  <path d="M14.2285 2.4707L14.2285 11.7871C14.2285 13.4277 13.4082 14.248 11.7383 14.248L2.49023 14.248C0.830078 14.248 0 13.4277 0 11.7871L0 2.4707C0 0.830078 0.830078 0.00976562 2.49023 0.00976562L11.7383 0.00976562C13.4082 0.00976562 14.2285 0.830078 14.2285 2.4707ZM4.35547 4.75586C3.95508 4.75586 3.78906 5.24414 4.00391 5.60547L6.65039 10.1172C6.85547 10.4492 7.34375 10.4785 7.55859 10.1172L10.1953 5.60547C10.4199 5.20508 10.2539 4.75586 9.84375 4.75586Z" fill="var(--color-primary)"/>
 </g>
</svg>
