<svg version="1.1" xmlns="http://www.w3.org/2000/svg" xmlns:xlink="http://www.w3.org/1999/xlink" width="14.8535" height="18.877" viewBox="0 0 14.8535 18.877">
 <g>
  <rect height="18.877" opacity="0" width="14.8535" x="0" y="0"/>
  <path d="M0 9.30664C0 9.76562 0.322266 10.0879 0.78125 10.0879L13.7305 10.0879C14.1797 10.0879 14.4922 9.76562 14.4922 9.30664C14.4922 8.84766 14.1797 8.51562 13.7305 8.51562L0.78125 8.51562C0.322266 8.51562 0 8.84766 0 9.30664Z" fill="var(--color-secondary)"/>
  <path d="M7.24609 0C6.78711 0 6.46484 0.322266 6.46484 0.78125L6.46484 3.7793L6.51367 5.35156L4.58984 3.25195C4.44336 3.0957 4.24805 3.03711 4.0332 3.03711C3.59375 3.03711 3.27148 3.37891 3.27148 3.80859C3.27148 4.01367 3.34961 4.19922 3.52539 4.38477L6.66016 7.53906C6.82617 7.71484 7.03125 7.80273 7.24609 7.80273C7.46094 7.80273 7.67578 7.71484 7.8418 7.53906L10.9766 4.38477C11.1426 4.19922 11.2207 4.01367 11.2207 3.80859C11.2207 3.37891 10.9082 3.03711 10.459 3.03711C10.2539 3.03711 10.0586 3.0957 9.90234 3.25195L7.97852 5.35156L8.03711 3.7793L8.03711 0.78125C8.03711 0.322266 7.70508 0 7.24609 0ZM7.24609 18.6035C7.70508 18.6035 8.03711 18.291 8.03711 17.832L8.03711 14.8242L7.97852 13.2617L9.90234 15.3516C10.0586 15.5078 10.2539 15.5664 10.459 15.5664C10.9082 15.5664 11.2207 15.2344 11.2207 14.8047C11.2207 14.5898 11.1426 14.4043 10.9766 14.2285L7.8418 11.0742C7.67578 10.8984 7.46094 10.8008 7.24609 10.8008C7.03125 10.8008 6.82617 10.8984 6.66016 11.0742L3.52539 14.2285C3.34961 14.4043 3.27148 14.5898 3.27148 14.8047C3.27148 15.2344 3.59375 15.5664 4.0332 15.5664C4.24805 15.5664 4.44336 15.5078 4.58984 15.3516L6.51367 13.2617L6.46484 14.8242L6.46484 17.832C6.46484 18.291 6.78711 18.6035 7.24609 18.6035Z" fill="var(--color-primary)"/>
 </g>
</svg>
