<svg version="1.1" xmlns="http://www.w3.org/2000/svg" xmlns:xlink="http://www.w3.org/1999/xlink" width="20.3906" height="14.3652" viewBox="0 0 20.3906 14.3652">
 <g>
  <rect height="14.3652" opacity="0" width="20.3906" x="0" y="0"/>
  <path d="M6.75781 14.3652C7.14844 14.3652 7.37305 14.1797 7.46094 13.8281C8.30078 11.3477 9.58984 10.4785 11.6211 10.4785L11.8262 10.4785L11.8262 13.3203C11.8262 13.8867 12.2461 14.2969 12.8125 14.2969C13.2227 14.2969 13.5547 14.1309 13.9648 13.7402L20.0195 8.00781C20.2832 7.76367 20.3906 7.44141 20.3906 7.1875C20.3906 6.91406 20.2832 6.61133 20.0195 6.34766L13.9648 0.683594C13.5059 0.244141 13.2324 0.078125 12.832 0.078125C12.2461 0.078125 11.8262 0.537109 11.8262 1.10352L11.8262 3.88672L11.6309 3.88672C9.41406 3.88672 7.27539 5.26367 6.78711 7.89062L6.69922 7.89062C6.14258 4.89258 3.89648 3.88672 2.09961 3.88672C2.06055 3.88672 1.94336 3.88672 1.64062 3.88672C0.46875 3.88672 0.0292969 4.30664 0.0292969 5.56641L0.0292969 9.22852C0.0292969 10.1465 0.458984 10.5273 1.55273 10.5273C1.80664 10.5273 2.01172 10.5273 2.26562 10.5273C4.20898 10.5273 5.55664 11.9922 6.06445 13.8184C6.14258 14.1797 6.35742 14.3652 6.75781 14.3652ZM6.31836 11.9434C5.44922 9.86328 3.88672 9.17969 2.14844 9.16016C2.00195 9.16016 1.8457 9.16016 1.69922 9.16016C1.5332 9.16016 1.43555 9.05273 1.43555 8.85742L1.43555 5.56641C1.43555 5.37109 1.5332 5.26367 1.71875 5.26367C1.89453 5.26367 2.01172 5.26367 2.17773 5.26367C4.25781 5.29297 6.23047 6.81641 6.40625 11.9434ZM13.3301 12.3926C13.2715 12.3926 13.2324 12.3535 13.2324 12.2949L13.2324 9.43359C13.2324 9.24805 13.1445 9.16016 12.959 9.16016L11.5723 9.16016C9.45312 9.16016 7.98828 10.0781 7.20703 11.9434L7.11914 11.9434C7.26562 7.51953 8.93555 5.20508 11.6992 5.20508L12.959 5.20508C13.1445 5.20508 13.2324 5.11719 13.2324 4.93164L13.2324 2.00195C13.2324 1.94336 13.2715 1.9043 13.3301 1.9043C13.3691 1.9043 13.4082 1.92383 13.4473 1.95312L18.7695 7.10938C18.7988 7.13867 18.8184 7.1582 18.8184 7.1875C18.8184 7.20703 18.8086 7.23633 18.7695 7.26562L13.4473 12.3438C13.4082 12.373 13.3691 12.3926 13.3301 12.3926Z" fill="var(--color-primary)"/>
 </g>
</svg>
