<svg version="1.1" xmlns="http://www.w3.org/2000/svg" xmlns:xlink="http://www.w3.org/1999/xlink" viewBox="0 0 18.3879 15.7715">
 <g>
  <rect height="15.7715" opacity="0" width="18.3879" x="0" y="0"/>
  <path d="M9.0084 15.7617C11.5572 15.7617 13.8424 14.5508 15.3072 12.6074C15.61 12.2266 15.5025 11.7285 15.151 11.5137C14.7799 11.2891 14.3697 11.3965 14.0963 11.7578C12.9439 13.2812 11.0885 14.2773 9.0084 14.2773C5.47324 14.2773 2.62168 11.416 2.62168 7.88086C2.62168 4.3457 5.47324 1.48438 9.0084 1.48438C12.5436 1.48438 15.4049 4.3457 15.4049 7.88086L16.899 7.88086C16.899 3.52539 13.3639 0 9.0084 0C4.66269 0 1.12754 3.52539 1.12754 7.88086C1.12754 12.2363 4.66269 15.7617 9.0084 15.7617ZM17.7779 6.35742L14.2232 6.35742C13.6178 6.35742 13.4615 6.77734 13.7936 7.23633L15.5318 9.7168C15.7955 10.0977 16.2057 10.0977 16.4791 9.7168L18.2174 7.24609C18.5494 6.77734 18.3932 6.35742 17.7779 6.35742Z" fill="var(--color-primary)"/>
 </g>
</svg>
