<svg version="1.1" xmlns="http://www.w3.org/2000/svg" xmlns:xlink="http://www.w3.org/1999/xlink" viewBox="0 0 21.543 16.1816">
 <g>
  <rect height="16.1816" opacity="0" width="21.543" x="0" y="0"/>
  <path d="M10.5859 16.1816C10.9277 16.1816 11.2305 15.918 11.2305 15.5762L11.2305 0.615234C11.2305 0.273438 10.9277 0.00976562 10.5859 0.00976562C10.2539 0.00976562 9.95117 0.273438 9.95117 0.615234L9.95117 15.5762C9.95117 15.918 10.2539 16.1816 10.5859 16.1816ZM1.16211 12.5098L7.67578 8.76953C8.14453 8.49609 8.13477 7.74414 7.67578 7.48047L1.16211 3.70117C0.654297 3.39844 0 3.7207 0 4.29688L0 11.9434C0 12.5 0.644531 12.8125 1.16211 12.5098ZM20.0195 12.5098C20.5371 12.8125 21.1816 12.5 21.1816 11.9434L21.1816 4.29688C21.1816 3.7207 20.5273 3.39844 20.0195 3.70117L13.5059 7.48047C13.0469 7.74414 13.0371 8.49609 13.5059 8.76953Z" fill="var(--color-primary)"/>
 </g>
</svg>
