<svg version="1.1" xmlns="http://www.w3.org/2000/svg" xmlns:xlink="http://www.w3.org/1999/xlink" width="16.1328" height="15.7715" viewBox="0 0 16.1328 15.7715">
 <g>
  <rect height="15.7715" opacity="0" width="16.1328" x="0" y="0"/>
  <path d="M7.88086 15.7715C12.1875 15.7715 15.7715 12.1973 15.7715 7.89062C15.7715 3.58398 12.1777 0.00976562 7.87109 0.00976562C3.57422 0.00976562 0 3.58398 0 7.89062C0 12.1973 3.58398 15.7715 7.88086 15.7715Z" fill="var(--color-tertiary)"/>
  <path d="M6.11328 11.1328C5.89844 11.1328 5.74219 11.0449 5.50781 10.8301L2.29492 7.80273C2.1582 7.66602 2.10938 7.50977 2.10938 7.36328C2.10938 7.20703 2.1582 7.07031 2.29492 6.92383L5.50781 3.91602C5.75195 3.69141 5.88867 3.59375 6.10352 3.59375C6.42578 3.59375 6.64062 3.78906 6.64062 3.99414L6.64062 4.04297L3.95508 6.50391C3.70117 6.72852 3.55469 7.04102 3.55469 7.36328C3.55469 7.69531 3.70117 8.00781 3.95508 8.22266L6.64062 10.7031L6.64062 10.7617C6.64062 10.9473 6.42578 11.1328 6.11328 11.1328ZM8.18359 11.1328C7.98828 11.1328 7.80273 11.0449 7.57812 10.8301L4.375 7.80273C4.22852 7.65625 4.16992 7.50977 4.16992 7.36328C4.16992 7.20703 4.22852 7.08008 4.375 6.92383L7.57812 3.91602C7.82227 3.70117 7.96875 3.59375 8.17383 3.59375C8.48633 3.59375 8.71094 3.84766 8.71094 4.15039L8.71094 5.625L8.80859 5.625C11.8262 5.625 13.0078 7.59766 13.0078 10.5273C13.0078 10.918 12.8125 11.1328 12.5684 11.1328C12.373 11.1328 12.1582 11.084 12.0117 10.8203C11.2793 9.48242 10.3125 9.10156 8.80859 9.10156L8.71094 9.10156L8.71094 10.6055C8.71094 10.918 8.48633 11.1328 8.18359 11.1328Z" fill="var(--color-primary)"/>
 </g>
</svg>
