<svg version="1.1" xmlns="http://www.w3.org/2000/svg" xmlns:xlink="http://www.w3.org/1999/xlink" width="16.1328" height="15.7715" viewBox="0 0 16.1328 15.7715">
 <g>
  <rect height="15.7715" opacity="0" width="16.1328" x="0" y="0"/>
  <path d="M7.88086 15.7617C12.1875 15.7617 15.7715 12.1875 15.7715 7.88086C15.7715 3.57422 12.1777 0 7.87109 0C3.57422 0 0 3.57422 0 7.88086C0 12.1875 3.58398 15.7617 7.88086 15.7617ZM7.88086 14.2773C4.33594 14.2773 1.50391 11.4355 1.50391 7.88086C1.50391 4.32617 4.32617 1.48438 7.87109 1.48438C11.4258 1.48438 14.2773 4.32617 14.2773 7.88086C14.2773 11.4355 11.4355 14.2773 7.88086 14.2773Z" fill="var(--color-secondary)"/>
  <path d="M7.88086 3.22266C7.74414 3.22266 7.57812 3.28125 7.44141 3.42773L4.375 6.66016C4.17969 6.88477 4.0918 7.06055 4.0918 7.28516C4.0918 7.57812 4.29688 7.80273 4.60938 7.80273L6.23047 7.80273L6.23047 11.1621C6.23047 11.7773 6.58203 12.1484 7.1875 12.1484L8.58398 12.1484C9.18945 12.1484 9.55078 11.7773 9.55078 11.1621L9.55078 7.80273L11.1328 7.80273C11.4355 7.80273 11.6797 7.57812 11.6797 7.26562C11.6797 7.05078 11.5918 6.9043 11.3574 6.66016L8.33008 3.42773C8.19336 3.28125 8.02734 3.22266 7.88086 3.22266Z" fill="var(--color-primary)"/>
 </g>
</svg>
