<svg version="1.1" xmlns="http://www.w3.org/2000/svg" xmlns:xlink="http://www.w3.org/1999/xlink" viewBox="0 0 12.0898 13.5645">
 <g>
  <rect height="13.5645" opacity="0" width="12.0898" x="0" y="0"/>
  <path d="M5.86914 13.5645C6.32812 13.5645 6.65039 13.2422 6.65039 12.7832L6.65039 5.58594L6.5918 3.95508L9.02344 6.65039L10.4102 7.99805C10.5566 8.13477 10.7617 8.21289 10.9668 8.21289C11.4062 8.21289 11.7285 7.88086 11.7285 7.44141C11.7285 7.23633 11.6504 7.05078 11.4746 6.86523L6.45508 1.82617C6.28906 1.65039 6.08398 1.5625 5.86914 1.5625C5.6543 1.5625 5.44922 1.65039 5.27344 1.82617L0.253906 6.86523C0.0878906 7.05078 0.00976562 7.23633 0.00976562 7.44141C0.00976562 7.88086 0.322266 8.21289 0.771484 8.21289C0.976562 8.21289 1.18164 8.13477 1.31836 7.99805L2.70508 6.65039L5.14648 3.94531L5.07812 5.58594L5.07812 12.7832C5.07812 13.2422 5.41016 13.5645 5.86914 13.5645ZM0.761719 1.58203L10.957 1.58203C11.416 1.58203 11.7285 1.25 11.7285 0.791016C11.7285 0.332031 11.416 0 10.957 0L0.761719 0C0.3125 0 0 0.332031 0 0.791016C0 1.25 0.3125 1.58203 0.761719 1.58203Z" fill="var(--color-primary)"/>
 </g>
</svg>
