<svg version="1.1" xmlns="http://www.w3.org/2000/svg" xmlns:xlink="http://www.w3.org/1999/xlink" viewBox="0 0 16.1328 15.7715">
 <g>
  <rect height="15.7715" opacity="0" width="16.1328" x="0" y="0"/>
  <path d="M7.88086 15.7617C12.2363 15.7617 15.7715 12.2363 15.7715 7.88086C15.7715 3.52539 12.2363 0 7.88086 0C3.53516 0 0 3.52539 0 7.88086C0 12.2363 3.53516 15.7617 7.88086 15.7617ZM7.88086 14.2773C4.3457 14.2773 1.49414 11.416 1.49414 7.88086C1.49414 4.3457 4.3457 1.48438 7.88086 1.48438C11.416 1.48438 14.2773 4.3457 14.2773 7.88086C14.2773 11.416 11.416 14.2773 7.88086 14.2773Z" fill="var(--color-primary)"/>
  <path d="M5.67383 11.4941C5.9375 11.4941 6.07422 11.3672 6.15234 11.1133L7.85156 5.41992L7.88086 5.41992L9.58984 11.123C9.6582 11.3574 9.79492 11.4941 10.0781 11.4941C10.3418 11.4941 10.5566 11.3477 10.5566 11.0645C10.5566 10.9766 10.5371 10.8789 10.5078 10.791L8.54492 4.73633C8.4375 4.41406 8.23242 4.22852 7.87109 4.22852C7.51953 4.22852 7.28516 4.42383 7.1875 4.73633L5.22461 10.8301C5.19531 10.918 5.17578 10.9961 5.17578 11.0645C5.17578 11.3379 5.40039 11.4941 5.67383 11.4941ZM4.84375 8.06641C4.84375 8.21289 4.9707 8.33984 5.11719 8.33984L10.625 8.33984C10.7715 8.33984 10.8984 8.21289 10.8984 8.06641C10.8984 7.91016 10.7715 7.7832 10.625 7.7832L5.11719 7.7832C4.9707 7.7832 4.84375 7.91016 4.84375 8.06641ZM4.84375 9.47266C4.84375 9.61914 4.9707 9.74609 5.11719 9.74609L10.625 9.74609C10.7715 9.74609 10.8984 9.61914 10.8984 9.47266C10.8984 9.31641 10.7715 9.18945 10.625 9.18945L5.11719 9.18945C4.9707 9.18945 4.84375 9.31641 4.84375 9.47266Z" fill="var(--color-primary)"/>
 </g>
</svg>
