<svg version="1.1" xmlns="http://www.w3.org/2000/svg" xmlns:xlink="http://www.w3.org/1999/xlink" width="14.679" height="16.7519" viewBox="0 0 14.679 16.7519">
 <g>
  <rect height="16.7519" opacity="0" width="14.679" x="0" y="0"/>
  <path d="M3.37955 12.3554L3.37955 13.2539L5.20341 13.2539C5.12185 13.4747 5.07877 13.715 5.07877 13.9668C5.07877 14.2153 5.12075 14.4521 5.20031 14.6699L3.37955 14.6699L3.37955 15.5586C3.37955 16.2519 2.92057 16.7402 2.24674 16.7402L1.6901 16.7402C1.01627 16.7402 0.557288 16.2519 0.557288 15.5586L0.557288 12.3554C0.557288 11.6718 1.01627 11.1836 1.6901 11.1836L2.24674 11.1836C2.92057 11.1836 3.37955 11.6718 3.37955 12.3554ZM13.7604 12.3554L13.7604 15.5586C13.7604 16.2519 13.3014 16.7402 12.6276 16.7402L12.071 16.7402C11.3971 16.7402 10.9381 16.2519 10.9381 15.5586L10.9381 14.6699L9.10773 14.6699C9.18719 14.4521 9.22916 14.2153 9.22916 13.9668C9.22916 13.715 9.18608 13.4747 9.10463 13.2539L10.9381 13.2539L10.9381 12.3554C10.9381 11.6718 11.3971 11.1836 12.071 11.1836L12.6276 11.1836C13.3014 11.1836 13.7604 11.6718 13.7604 12.3554ZM13.0378 0.0800497L13.5651 0.265597C14.1901 0.499972 14.4733 1.10544 14.2292 1.75974L13.1354 4.76755C12.8913 5.42185 12.2956 5.71482 11.6608 5.49021L11.1335 5.29489C10.5085 5.06052 10.2253 4.45505 10.4694 3.80075L10.583 3.48825L7.86198 3.48825L7.86198 12.0096C7.64372 11.9292 7.4067 11.8867 7.15885 11.8867C6.9108 11.8867 6.67387 11.9285 6.45573 12.0078L6.45573 3.48825L3.21975 3.48825L2.75455 4.76755C2.51041 5.42185 1.91471 5.71482 1.27994 5.49021L0.752601 5.29489C0.117835 5.06052-0.155602 4.45505 0.0885383 3.80075L1.18229 0.79294C1.42643 0.138643 2.02213-0.154325 2.6569 0.0800497L3.18424 0.265597C3.80924 0.499972 4.09244 1.10544 3.8483 1.75974L3.73467 2.07224L11.0979 2.07224L11.5631 0.79294C11.8073 0.138643 12.403-0.154325 13.0378 0.0800497Z" fill="var(--color-secondary)"/>
  <path d="M7.15885 16.0371C8.31119 16.0371 9.22916 15.1289 9.22916 13.9668C9.22916 12.8047 8.31119 11.8867 7.15885 11.8867C5.99674 11.8867 5.07877 12.8047 5.07877 13.9668C5.07877 15.1289 5.99674 16.0371 7.15885 16.0371ZM7.15885 14.914C6.62174 14.914 6.21159 14.4941 6.21159 13.9668C6.21159 13.4394 6.62174 13.0195 7.15885 13.0195C7.68619 13.0195 8.09635 13.4394 8.09635 13.9668C8.09635 14.4941 7.68619 14.914 7.15885 14.914Z" fill="var(--color-primary)"/>
 </g>
</svg>
