<svg version="1.1" xmlns="http://www.w3.org/2000/svg" xmlns:xlink="http://www.w3.org/1999/xlink" viewBox="0 0 16.1328 15.7715">
 <g>
  <rect height="15.7715" opacity="0" width="16.1328" x="0" y="0"/>
  <path d="M7.88086 15.7617C12.2363 15.7617 15.7715 12.2363 15.7715 7.88086C15.7715 3.52539 12.2363 0 7.88086 0C3.53516 0 0 3.52539 0 7.88086C0 12.2363 3.53516 15.7617 7.88086 15.7617ZM7.88086 14.2773C4.3457 14.2773 1.49414 11.416 1.49414 7.88086C1.49414 4.3457 4.3457 1.48438 7.88086 1.48438C11.416 1.48438 14.2773 4.3457 14.2773 7.88086C14.2773 11.416 11.416 14.2773 7.88086 14.2773Z" fill="var(--color-primary)"/>
  <path d="M6.09375 11.3086L8.32031 11.3086C9.93164 11.3086 10.9766 10.5273 10.9766 9.32617C10.9766 8.38867 10.3418 7.73438 9.30664 7.60742L9.30664 7.55859C10.0879 7.36328 10.5566 6.77734 10.5566 6.01562C10.5566 4.95117 9.70703 4.27734 8.34961 4.27734L6.09375 4.27734C5.60547 4.27734 5.3125 4.56055 5.3125 5.05859L5.3125 10.5273C5.3125 11.0156 5.60547 11.3086 6.09375 11.3086ZM6.66016 7.2168L6.66016 5.29297L8.06641 5.29297C8.78906 5.29297 9.22852 5.64453 9.22852 6.23047C9.22852 6.88477 8.70117 7.2168 7.66602 7.2168ZM6.66016 10.3027L6.66016 8.1543L8.16406 8.1543C9.07227 8.1543 9.59961 8.55469 9.59961 9.25781C9.59961 9.98047 9.0332 10.3027 7.7832 10.3027Z" fill="var(--color-primary)"/>
 </g>
</svg>
