<svg version="1.1" xmlns="http://www.w3.org/2000/svg" xmlns:xlink="http://www.w3.org/1999/xlink" width="14.5898" height="14.248" viewBox="0 0 14.5898 14.248">
 <g>
  <rect height="14.248" opacity="0" width="14.5898" x="0" y="0"/>
  <path d="M2.49023 14.248L11.7383 14.248C13.4082 14.248 14.2285 13.4277 14.2285 11.7871L14.2285 2.4707C14.2285 0.830078 13.4082 0.00976562 11.7383 0.00976562L2.49023 0.00976562C0.830078 0.00976562 0 0.830078 0 2.4707L0 11.7871C0 13.4277 0.830078 14.248 2.49023 14.248Z" fill="var(--color-tertiary)"/>
  <path d="M5.27344 10.6738C4.76562 10.6738 4.45312 10.3711 4.45312 9.87305L4.45312 4.19922C4.45312 3.68164 4.76562 3.38867 5.27344 3.38867L7.60742 3.38867C9.00391 3.38867 9.90234 4.08203 9.90234 5.18555C9.90234 5.97656 9.41406 6.58203 8.60352 6.78711L8.60352 6.83594C9.67773 6.97266 10.3418 7.64648 10.3418 8.61328C10.3418 9.87305 9.24805 10.6738 7.57812 10.6738ZM5.84961 6.43555L6.89453 6.43555C7.96875 6.43555 8.51562 6.08398 8.51562 5.41016C8.51562 4.80469 8.06641 4.43359 7.31445 4.43359L5.84961 4.43359ZM5.84961 9.62891L7.01172 9.62891C8.32031 9.62891 8.89648 9.29688 8.89648 8.55469C8.89648 7.82227 8.35938 7.41211 7.41211 7.41211L5.84961 7.41211Z" fill="var(--color-primary)"/>
 </g>
</svg>
