<svg version="1.1" xmlns="http://www.w3.org/2000/svg" xmlns:xlink="http://www.w3.org/1999/xlink" width="17.6218" height="15.7715" viewBox="0 0 17.6218 15.7715">
 <g>
  <rect height="15.7715" opacity="0" width="17.6218" x="0" y="0"/>
  <path d="M9.37242 15.7617C13.6791 15.7617 17.263 12.1875 17.263 7.88086C17.263 3.57422 13.6791 0 9.37242 0C5.06578 0 1.49156 3.56445 1.49156 7.87109L2.9857 7.87109C2.9857 4.31641 5.81773 1.49414 9.37242 1.49414C12.9271 1.49414 15.7689 4.32617 15.7689 7.88086C15.7689 11.4355 12.9271 14.2969 9.37242 14.2773C7.28258 14.2676 5.43687 13.291 4.28453 11.7578C4.02086 11.3965 3.60094 11.2891 3.23961 11.5137C2.87828 11.7285 2.79039 12.2168 3.08336 12.5977C4.55797 14.502 6.83336 15.7617 9.37242 15.7617ZM0.602889 6.35742C-0.0123451 6.35742-0.158829 6.77734 0.173202 7.24609L1.91148 9.7168C2.18492 10.0977 2.59508 10.0977 2.85875 9.7168L4.59703 7.23633C4.9193 6.77734 4.76305 6.35742 4.15758 6.35742Z" fill="var(--color-secondary)"/>
  <path d="M9.53844 12.4609C9.77281 12.4609 9.94859 12.2852 9.94859 12.0508L9.94859 11.582L10.017 11.582C11.4623 11.582 12.3705 10.7812 12.3705 9.50195C12.3705 8.62305 11.8627 7.96875 11.0619 7.72461C11.6185 7.45117 12.0287 6.82617 12.0287 6.17188C12.0287 5.09766 11.2181 4.30664 10.0365 4.30664L9.94859 4.30664L9.94859 3.74023C9.94859 3.50586 9.77281 3.33008 9.53844 3.33008C9.30406 3.33008 9.12828 3.50586 9.12828 3.74023L9.12828 4.30664L8.00523 4.30664C7.61461 4.30664 7.3314 4.58984 7.3314 4.99023L7.3314 10.9082C7.3314 11.3086 7.60484 11.582 8.00523 11.582L9.12828 11.582L9.12828 12.0508C9.12828 12.2852 9.30406 12.4609 9.53844 12.4609ZM8.44469 10.5859L8.44469 8.33008L9.12828 8.33008L9.12828 10.5762ZM9.94859 10.5664L9.94859 8.33984C10.8373 8.4082 11.267 8.7793 11.267 9.45312C11.267 10.1465 10.8275 10.5176 9.94859 10.5664ZM8.43492 7.34375L8.44469 5.30273L9.12828 5.30273L9.12828 7.34375ZM9.94859 7.29492L9.94859 5.32227C10.5834 5.40039 10.9252 5.72266 10.9252 6.2793C10.9252 6.83594 10.5931 7.17773 9.94859 7.29492Z" fill="var(--color-primary)"/>
 </g>
</svg>
