<svg version="1.1" xmlns="http://www.w3.org/2000/svg" xmlns:xlink="http://www.w3.org/1999/xlink" viewBox="0 0 15.4199 21.4355">
 <g>
  <rect height="21.4355" opacity="0" width="15.4199" x="0" y="0"/>
  <path d="M5.08816 3.75273C4.97825 4.16379 4.91692 4.60018 4.90975 5.05615C4.6978 5.00588 4.47309 4.98047 4.23828 4.98047C2.50977 4.98047 1.32812 6.35742 1.32812 8.07617C1.32812 10.459 2.58789 12.3828 4.23828 12.3828C5.28902 12.3828 6.18142 11.603 6.6895 10.4197C6.99711 10.7731 7.33885 11.0752 7.70998 11.3127C7.12987 12.4253 6.25148 13.2455 5.21052 13.5597L5.42969 14.4238C5.51758 14.7266 5.36133 15.0586 4.95117 15.0586L4.59706 15.0586C4.74824 16.1626 5.89844 16.2823 5.89844 17.7637C5.89844 19.2871 4.57031 19.4336 4.57031 20.8887C4.57031 21.1914 4.32617 21.4355 4.01367 21.4355C3.71094 21.4355 3.48633 21.1914 3.48633 20.8887C3.48633 18.75 4.82422 18.7695 4.82422 17.7637C4.82422 16.8257 3.61441 16.6914 3.50495 15.0586L3.1543 15.0586C2.75391 15.0586 2.58789 14.7266 2.67578 14.4238L2.9257 13.4384C1.20273 12.7053 0 10.5594 0 8.07617C0 5.60547 1.74805 3.67188 4.23828 3.67188C4.53283 3.67188 4.81699 3.69893 5.08816 3.75273Z" fill="var(--color-primary)"/>
  <path d="M9.9707 12.0215C12.8223 12.0215 15.0586 8.97461 15.0586 5.22461C15.0586 2.25586 12.9688 0 9.9707 0C6.98242 0 4.90234 2.25586 4.90234 5.22461C4.90234 8.97461 7.12891 12.0215 9.9707 12.0215ZM9.9707 10.7129C7.86133 10.7129 6.2207 8.22266 6.2207 5.22461C6.2207 3.03711 7.76367 1.31836 9.9707 1.31836C12.1777 1.31836 13.7402 3.03711 13.7402 5.22461C13.7402 8.22266 12.0801 10.7129 9.9707 10.7129ZM8.81836 11.416L8.42773 12.9004C8.32031 13.2422 8.52539 13.623 8.96484 13.623L10.9863 13.623C11.4258 13.623 11.6113 13.2422 11.5234 12.9004L11.123 11.416ZM9.93164 21.3086C10.2637 21.3086 10.5469 21.0254 10.5469 20.6934C10.5469 19.043 12.0703 18.6621 12.0703 16.9336C12.0703 15.1367 10.5469 14.873 10.5664 13.3496L9.33594 13.3594C9.32617 15.4785 10.8398 15.8105 10.8398 16.9336C10.8398 18.0859 9.31641 18.2715 9.31641 20.6934C9.31641 21.0254 9.58984 21.3086 9.93164 21.3086Z" fill="var(--color-primary)"/>
 </g>
</svg>
