<svg version="1.1" xmlns="http://www.w3.org/2000/svg" xmlns:xlink="http://www.w3.org/1999/xlink" viewBox="0 0 9.85352 17.5879">
 <g>
  <rect height="17.5879" opacity="0" width="9.85352" x="0" y="0"/>
  <path d="M1.11328 15.5566L4.79492 15.5566C7.43164 15.5566 9.49219 14.375 9.49219 11.748C9.49219 9.9707 8.28125 8.65234 6.37695 8.41797L6.37695 8.33008C7.76367 8.0957 8.79883 6.78711 8.79883 5.38086C8.79883 3.24219 7.08984 2.00195 4.81445 2.00195L1.11328 2.00195C0.449219 2.00195 0 2.45117 0 3.11523L0 14.4238C0 15.0586 0.400391 15.5566 1.11328 15.5566ZM1.74805 7.8125L1.74805 3.51562L4.39453 3.51562C5.86914 3.51562 7.04102 4.10156 7.04102 5.57617C7.04102 7.25586 5.57617 7.8125 3.88672 7.8125ZM1.74805 14.0332L1.74805 9.30664L4.3457 9.30664C6.15234 9.30664 7.72461 9.85352 7.72461 11.6602C7.72461 13.4277 6.2793 14.0332 4.51172 14.0332ZM1.80664 2.91016L2.94922 2.91016L2.94922 0.566406C2.94922 0.234375 2.71484 0 2.38281 0C2.04102 0 1.80664 0.234375 1.80664 0.566406ZM4.35547 2.91016L5.48828 2.91016L5.48828 0.566406C5.48828 0.234375 5.25391 0 4.93164 0C4.58984 0 4.35547 0.234375 4.35547 0.566406ZM1.80664 14.6387L1.80664 16.9922C1.80664 17.334 2.04102 17.5684 2.38281 17.5684C2.71484 17.5684 2.94922 17.334 2.94922 16.9922L2.94922 14.6387ZM4.35547 14.6387L4.35547 16.9922C4.35547 17.334 4.58984 17.5684 4.93164 17.5684C5.25391 17.5684 5.48828 17.334 5.48828 16.9922L5.48828 14.6387Z" fill="var(--color-primary)"/>
 </g>
</svg>
