<svg version="1.1" xmlns="http://www.w3.org/2000/svg" xmlns:xlink="http://www.w3.org/1999/xlink" width="16.1328" height="15.7715" viewBox="0 0 16.1328 15.7715">
 <g>
  <rect height="15.7715" opacity="0" width="16.1328" x="0" y="0"/>
  <path d="M7.88086 15.7715C12.1875 15.7715 15.7715 12.1973 15.7715 7.89062C15.7715 3.58398 12.1777 0.00976562 7.87109 0.00976562C3.57422 0.00976562 0 3.58398 0 7.89062C0 12.1973 3.58398 15.7715 7.88086 15.7715Z" fill="var(--color-tertiary)"/>
  <path d="M5.55664 12.0996C5.27344 12.0996 5.08789 11.9043 5.08789 11.5527L5.08789 4.90234C5.08789 4.11133 5.49805 3.69141 6.28906 3.69141L9.48242 3.69141C10.2734 3.69141 10.6738 4.11133 10.6738 4.90234L10.6738 11.5527C10.6738 11.9043 10.498 12.0996 10.2148 12.0996C9.98047 12.0996 9.86328 11.9727 9.43359 11.5527L7.91992 10.0879C7.90039 10.0684 7.86133 10.0684 7.8418 10.0879L6.32812 11.5527C5.9082 11.9727 5.78125 12.0996 5.55664 12.0996Z" fill="var(--color-primary)"/>
 </g>
</svg>
