<svg version="1.1" xmlns="http://www.w3.org/2000/svg" xmlns:xlink="http://www.w3.org/1999/xlink" viewBox="0 0 16.1328 15.7715">
 <g>
  <rect height="15.7715" opacity="0" width="16.1328" x="0" y="0"/>
  <path d="M7.88086 15.7617C12.2363 15.7617 15.7715 12.2363 15.7715 7.88086C15.7715 3.52539 12.2363 0 7.88086 0C3.53516 0 0 3.52539 0 7.88086C0 12.2363 3.53516 15.7617 7.88086 15.7617ZM7.88086 14.2773C4.3457 14.2773 1.49414 11.416 1.49414 7.88086C1.49414 4.3457 4.3457 1.48438 7.88086 1.48438C11.416 1.48438 14.2773 4.3457 14.2773 7.88086C14.2773 11.416 11.416 14.2773 7.88086 14.2773Z" fill="var(--color-primary)"/>
  <path d="M5.89844 11.8848L10.6934 11.8848C10.8691 11.8848 11.0352 11.7285 11.0352 11.543C11.0352 11.3965 10.9277 11.25 10.8008 11.2109C10.3516 11.0547 10.2637 10.4688 10.7129 10.0293C10.8496 9.90234 11.0352 9.7168 11.0352 9.33594L11.0352 5.09766C11.0352 4.29688 10.6445 3.88672 9.84375 3.88672L5.9082 3.88672C5.10742 3.88672 4.7168 4.28711 4.7168 5.09766L4.7168 10.6738C4.7168 11.4844 5.10742 11.8848 5.89844 11.8848ZM5.94727 11.2012C5.5957 11.2012 5.40039 11.0059 5.40039 10.6641C5.40039 10.3613 5.63477 10.1465 5.98633 10.1465L9.74609 10.1465C9.76562 10.1465 9.79492 10.1465 9.81445 10.1465C9.67773 10.498 9.6875 10.8789 9.82422 11.2012ZM5.83984 9.53125C5.71289 9.53125 5.60547 9.43359 5.60547 9.28711L5.60547 4.74609C5.60547 4.60938 5.71289 4.50195 5.83984 4.50195C5.98633 4.50195 6.08398 4.60938 6.08398 4.74609L6.08398 9.28711C6.08398 9.43359 5.98633 9.53125 5.83984 9.53125Z" fill="var(--color-primary)"/>
 </g>
</svg>
