<svg version="1.1" xmlns="http://www.w3.org/2000/svg" xmlns:xlink="http://www.w3.org/1999/xlink" viewBox="0 0 16.1328 15.7715">
 <g>
  <rect height="15.7715" opacity="0" width="16.1328" x="0" y="0"/>
  <path d="M15.7715 7.88086C15.7715 12.2266 12.2363 15.7617 7.88086 15.7617C3.53516 15.7617 0 12.2266 0 7.88086C0 3.53516 3.53516 0 7.88086 0C12.2363 0 15.7715 3.53516 15.7715 7.88086ZM10 4.15039L10 4.73633C9.04297 4.81445 8.37891 5.40039 8.37891 6.32812C8.37891 7.1875 8.85742 7.60742 9.7168 8.01758L10 8.1543L10 10.0098C9.57031 9.94141 9.32617 9.6875 9.22852 9.19922C9.17969 8.96484 9.00391 8.83789 8.78906 8.83789C8.51562 8.83789 8.32031 8.99414 8.32031 9.27734C8.32031 9.33594 8.33984 9.45312 8.35938 9.52148C8.57422 10.4004 9.23828 10.7617 10 10.8203L10 11.3965C10 11.5332 10.0879 11.6211 10.2344 11.6211C10.3711 11.6211 10.4688 11.5332 10.4688 11.3965L10.4688 10.8203C11.4844 10.752 12.168 10.1562 12.168 9.16992C12.168 8.23242 11.582 7.87109 10.791 7.5L10.4688 7.35352L10.4688 5.53711C10.8887 5.625 11.0742 5.95703 11.1523 6.32812C11.1914 6.49414 11.3379 6.67969 11.6113 6.67969C11.875 6.67969 12.0605 6.52344 12.0605 6.25977C12.0605 6.19141 12.041 6.06445 12.0215 6.00586C11.7969 5.14648 11.1914 4.79492 10.4688 4.73633L10.4688 4.15039C10.4688 4.01367 10.3711 3.92578 10.2344 3.92578C10.0879 3.92578 10 4.01367 10 4.15039ZM4.31641 4.62891C4.00391 4.62891 3.82812 4.81445 3.82812 5.13672L3.82812 10.4883C3.82812 10.7812 3.97461 11.0156 4.33594 11.0156C4.64844 11.0156 4.83398 10.8008 4.83398 10.4883L4.83398 8.4668L5.73242 8.4668L6.66016 10.6348C6.76758 10.8789 6.9043 11.0156 7.17773 11.0156C7.46094 11.0156 7.65625 10.8203 7.65625 10.5371C7.65625 10.4102 7.59766 10.293 7.54883 10.166L6.70898 8.25195C7.40234 7.92969 7.68555 7.23633 7.68555 6.52344C7.68555 5.2832 6.9043 4.62891 5.72266 4.62891ZM11.2207 9.26758C11.2207 9.72656 10.9473 9.9707 10.4688 10.0195L10.4688 8.36914C10.8789 8.58398 11.2207 8.80859 11.2207 9.26758ZM6.67969 6.54297C6.67969 7.20703 6.35742 7.66602 5.64453 7.66602L4.83398 7.66602L4.83398 5.44922L5.63477 5.44922C6.29883 5.44922 6.67969 5.87891 6.67969 6.54297ZM10 7.11914C9.60938 6.91406 9.31641 6.66992 9.31641 6.26953C9.31641 5.84961 9.59961 5.5957 10 5.52734Z" fill="var(--color-primary)"/>
 </g>
</svg>
