<svg version="1.1" xmlns="http://www.w3.org/2000/svg" xmlns:xlink="http://www.w3.org/1999/xlink" width="17.3828" height="17.2363" viewBox="0 0 17.3828 17.2363">
 <g>
  <rect height="17.2363" opacity="0" width="17.3828" x="0" y="0"/>
  <path d="M8.49609 17.2363C8.87695 17.2363 9.24805 17.0703 9.58984 16.4746L10.9863 14.0918L13.3594 14.0918C15.7617 14.0918 17.0215 12.793 17.0215 10.4297L17.0215 4.74609C17.0215 2.38281 15.7617 1.08398 13.3594 1.08398L3.66211 1.08398C1.25977 1.08398 0 2.38281 0 4.74609L0 10.4297C0 12.793 1.25977 14.0918 3.66211 14.0918L5.99609 14.0918L7.39258 16.4746C7.73438 17.0703 8.10547 17.2363 8.49609 17.2363ZM8.49609 15.8008L7.27539 13.4082C6.98242 12.8223 6.77734 12.6855 6.14258 12.6855L3.66211 12.6855C2.08984 12.6855 1.40625 11.9336 1.40625 10.4297L1.40625 4.74609C1.40625 3.25195 2.08984 2.5 3.66211 2.5L13.3594 2.5C14.9316 2.5 15.6152 3.25195 15.6152 4.74609L15.6152 10.4297C15.6152 11.9336 14.9316 12.6855 13.3594 12.6855L10.8398 12.6855C10.2051 12.6855 10 12.8223 9.70703 13.4082Z" fill="var(--color-primary)"/>
 </g>
</svg>
