<svg version="1.1" xmlns="http://www.w3.org/2000/svg" xmlns:xlink="http://www.w3.org/1999/xlink" width="18.4766" height="14.248" viewBox="0 0 18.4766 14.248">
 <g>
  <rect height="14.248" opacity="0" width="18.4766" x="0" y="0"/>
  <path d="M2.49023 14.248L8.49609 14.248L8.49609 12.832L2.50977 12.832C1.80664 12.832 1.40625 12.4512 1.40625 11.7188L1.40625 7.69531L0 7.69531L0 11.7871C0 13.4277 0.830078 14.248 2.49023 14.248ZM9.63867 14.248L15.625 14.248C17.2949 14.248 18.1152 13.4277 18.1152 11.7871L18.1152 7.69531L16.709 7.69531L16.709 11.7188C16.709 12.4512 16.3086 12.832 15.6055 12.832L9.63867 12.832ZM16.709 6.5625L18.1152 6.5625L18.1152 2.4707C18.1152 0.830078 17.2949 0.00976562 15.625 0.00976562L9.63867 0.00976562L9.63867 1.42578L15.6055 1.42578C16.3086 1.42578 16.709 1.79688 16.709 2.53906ZM0 6.5625L1.40625 6.5625L1.40625 2.53906C1.40625 1.79688 1.80664 1.42578 2.50977 1.42578L8.49609 1.42578L8.49609 0.00976562L2.49023 0.00976562C0.830078 0.00976562 0 0.830078 0 2.4707Z" fill="var(--color-secondary)"/>
  <path d="M9.08203 11.4551C11.4551 11.4551 13.3984 9.50195 13.3984 7.10938C13.3984 4.74609 11.4453 2.80273 9.08203 2.80273C6.69922 2.80273 4.73633 4.74609 4.73633 7.10938C4.73633 9.51172 6.68945 11.4551 9.08203 11.4551ZM9.08203 10.3418C7.30469 10.3418 5.84961 8.88672 5.84961 7.10938C5.84961 5.36133 7.31445 3.91602 9.08203 3.91602C10.8398 3.91602 12.2949 5.36133 12.2949 7.10938C12.2949 8.88672 10.8496 10.3418 9.08203 10.3418Z" fill="var(--color-primary)"/>
  <path d="M9.08203 9.22852C10.2246 9.22852 11.1719 8.28125 11.1719 7.11914C11.1719 5.97656 10.2246 5.0293 9.08203 5.0293C7.91016 5.0293 6.96289 5.97656 6.96289 7.11914C6.96289 8.28125 7.91016 9.22852 9.08203 9.22852Z" fill="var(--color-primary)"/>
 </g>
</svg>
