<svg version="1.1" xmlns="http://www.w3.org/2000/svg" xmlns:xlink="http://www.w3.org/1999/xlink" viewBox="0 0 16.1328 15.7715">
 <g>
  <rect height="15.7715" opacity="0" width="16.1328" x="0" y="0"/>
  <path d="M7.88086 11.7871C10.0391 11.7871 11.7871 10.0391 11.7871 7.88086C11.7871 5.72266 10.0391 3.97461 7.88086 3.97461C5.72266 3.97461 3.98438 5.72266 3.98438 7.88086C3.98438 10.0391 5.72266 11.7871 7.88086 11.7871ZM7.88086 10.6055C6.36719 10.6055 5.15625 9.4043 5.15625 7.88086C5.15625 6.35742 6.36719 5.15625 7.88086 5.15625C9.4043 5.15625 10.6152 6.35742 10.6152 7.88086C10.6152 9.4043 9.4043 10.6055 7.88086 10.6055ZM7.38281 12.1094L7.95898 11.084L0.761719 6.93359L0.185547 7.95898ZM11.3281 10.4102L10.7422 9.38477L3.54492 13.5352L4.14062 14.5605ZM11.7871 6.20117L10.6152 6.20117L10.625 14.5117L11.7871 14.5117ZM8.38867 3.65234L7.80273 4.67773L15 8.82812L15.5859 7.80273ZM4.44336 5.35156L5.01953 6.37695L12.2266 2.22656L11.6309 1.20117ZM3.98438 9.55078L5.15625 9.55078L5.15625 1.25L3.98438 1.25ZM7.88086 15.7617C12.2363 15.7617 15.7715 12.2363 15.7715 7.88086C15.7715 3.52539 12.2363 0 7.88086 0C3.53516 0 0 3.52539 0 7.88086C0 12.2363 3.53516 15.7617 7.88086 15.7617ZM7.88086 14.2773C4.3457 14.2773 1.49414 11.416 1.49414 7.88086C1.49414 4.3457 4.3457 1.48438 7.88086 1.48438C11.416 1.48438 14.2773 4.3457 14.2773 7.88086C14.2773 11.416 11.416 14.2773 7.88086 14.2773Z" fill="var(--color-primary)"/>
 </g>
</svg>
