<svg version="1.1" xmlns="http://www.w3.org/2000/svg" xmlns:xlink="http://www.w3.org/1999/xlink" viewBox="0 0 16.1328 15.7715">
 <g>
  <rect height="15.7715" opacity="0" width="16.1328" x="0" y="0"/>
  <path d="M15.7715 7.88086C15.7715 12.2266 12.2363 15.7617 7.88086 15.7617C3.53516 15.7617 0 12.2266 0 7.88086C0 3.53516 3.53516 0 7.88086 0C12.2363 0 15.7715 3.53516 15.7715 7.88086ZM7.50977 12.4316C7.50977 12.6367 7.66602 12.7832 7.88086 12.7832C8.86879 12.7832 9.82674 12.5004 10.6313 12.0084L9.08076 10.46C8.73751 10.7982 8.45952 11.1864 8.25195 11.6016L8.25195 9.63234L7.50977 8.89117ZM3.125 9.6582C3.68164 11.2402 5.23438 12.4316 7.03125 12.6953C6.99219 12.6172 6.97266 12.5195 6.97266 12.4316L6.97266 10.8301C6.2207 9.88281 5.01953 9.18945 3.44727 9.18945C3.13477 9.18945 3.02734 9.375 3.125 9.6582ZM4.04297 4.04297C3.90625 4.18945 3.90625 4.45312 4.04297 4.58984L11.1816 11.7188C11.3281 11.8652 11.582 11.8652 11.7285 11.7188C11.8848 11.5625 11.8848 11.3184 11.7285 11.1719L4.60938 4.04297C4.45312 3.88672 4.20898 3.88672 4.04297 4.04297ZM10.8259 9.41355L12.0862 10.6704C12.3092 10.3586 12.4886 10.0189 12.6172 9.6582C12.7148 9.375 12.6172 9.18945 12.3047 9.18945C11.7692 9.18945 11.2744 9.26867 10.8259 9.41355ZM6.76713 8.14954L5.39503 6.77932C5.65343 7.39055 6.12769 7.88537 6.76713 8.14954ZM7.61719 4.12109L6.86523 5.08789L6.00586 4.19922C5.86882 4.06218 5.67244 4.04978 5.55589 4.15797L9.36193 7.95358C10.139 7.47152 10.5859 6.60713 10.5859 5.64453C10.5859 5.19531 10.4883 4.74609 10.293 4.27734C10.1953 4.05273 9.92188 4.02344 9.74609 4.19922L8.88672 5.08789L8.14453 4.12109C8.00781 3.92578 7.76367 3.92578 7.61719 4.12109Z" fill="var(--color-primary)"/>
 </g>
</svg>
