<svg version="1.1" xmlns="http://www.w3.org/2000/svg" xmlns:xlink="http://www.w3.org/1999/xlink" width="22.0801" height="20.2246" viewBox="0 0 22.0801 20.2246">
 <g>
  <rect height="20.2246" opacity="0" width="22.0801" x="0" y="0"/>
  <path d="M10.8594 20.2148C14.9023 20.2148 16.543 19.3652 16.543 17.1582L16.543 3.68164C16.543 1.36719 14.4434 0 10.8594 0C7.27539 0 5.17578 1.36719 5.17578 3.68164L5.17578 17.1582C5.17578 19.3652 6.81641 20.2148 10.8594 20.2148ZM10.8594 8.32031C10.127 8.32031 8.97461 8.36914 8.56445 8.36914C7.95898 8.36914 7.70508 8.13477 7.64648 7.51953L7.50977 5.9668C7.41211 4.79492 8.29102 4.3457 10.8594 4.3457C13.4277 4.3457 14.3164 4.79492 14.209 5.9668L14.0723 7.51953C14.0137 8.13477 13.7598 8.36914 13.1543 8.36914C12.7441 8.36914 11.582 8.32031 10.8594 8.32031ZM10.8594 16.8262C8.18359 16.8262 7.35352 16.4258 7.53906 15.2246L7.64648 14.4922C7.7832 13.5352 8.59375 13.2031 10.8594 13.2031C13.1348 13.2031 13.9355 13.5352 14.082 14.4922L14.1797 15.2246C14.3652 16.4258 13.5352 16.8262 10.8594 16.8262ZM5.76172 8.01758L5.76172 6.10352L4.50195 6.10352C4.07227 6.10352 3.73047 6.44531 3.73047 6.875L3.73047 7.24609C3.73047 7.67578 4.07227 8.01758 4.50195 8.01758ZM15.957 8.01758L17.2168 8.01758C17.6465 8.01758 17.9883 7.67578 17.9883 7.24609L17.9883 6.875C17.9883 6.44531 17.6465 6.10352 17.2168 6.10352L15.957 6.10352Z" fill="var(--color-secondary)"/>
  <path d="M22.0801 15.5371L22.0801 12.1387C22.0801 11.6992 21.7285 11.4844 21.3281 11.7285L18.623 13.3887C18.252 13.623 18.2422 14.0625 18.623 14.2871L21.3281 15.9375C21.7285 16.1914 22.0801 15.9863 22.0801 15.5371Z" fill="var(--color-primary)"/>
 </g>
</svg>
