<svg version="1.1" xmlns="http://www.w3.org/2000/svg" xmlns:xlink="http://www.w3.org/1999/xlink" width="27.8906" height="12.7246" viewBox="0 0 27.8906 12.7246">
 <g>
  <rect height="12.7246" opacity="0" width="27.8906" x="0" y="0"/>
  <path d="M2.06055 10.9473L4.52148 10.9473L4.52148 9.54102L2.13867 9.54102C1.68945 9.54102 1.40625 9.20898 1.40625 8.65234L1.40625 7.28516C1.40625 6.17188 2.2168 5.44922 3.68164 5.26367L7.34375 4.80469L10.7129 2.71484C12.4023 1.66016 13.4082 1.41602 16.3477 1.41602L18.1543 1.41602C20.2344 1.41602 21.9141 2.27539 23.3691 4.29688L25.2539 4.79492C25.957 4.98047 26.123 5.39062 26.123 5.94727L26.123 8.67188C26.123 9.20898 25.8496 9.54102 25.4004 9.54102L23.4375 9.54102L23.4375 10.9473L25.6738 10.9473C26.8164 10.9473 27.5293 10.2148 27.5293 9.04297L27.5293 5.94727C27.5293 4.85352 27.2266 3.87695 25.6934 3.38867L24.1309 2.88086C23.1055 1.67969 21.3379 0 18.1543 0L16.3477 0C13.1543 0 11.8652 0.3125 9.96094 1.51367L6.86523 3.44727L3.50586 3.86719C1.30859 4.13086 0 5.40039 0 7.28516L0 8.83789C0 10.1465 0.78125 10.9473 2.06055 10.9473ZM8.01758 10.9473L20.0195 10.9473L20.0195 9.54102L8.01758 9.54102ZM6.2207 12.7148C7.72461 12.7148 8.90625 11.5332 8.90625 10.0195C8.90625 8.50586 7.72461 7.32422 6.2207 7.32422C4.70703 7.32422 3.52539 8.50586 3.52539 10.0195C3.52539 11.5332 4.70703 12.7148 6.2207 12.7148ZM6.2207 11.2988C5.49805 11.2988 4.93164 10.7422 4.93164 10.0195C4.93164 9.29688 5.49805 8.74023 6.2207 8.74023C6.94336 8.74023 7.5 9.29688 7.5 10.0195C7.5 10.7422 6.94336 11.2988 6.2207 11.2988ZM21.7969 12.7148C23.3105 12.7148 24.4922 11.5332 24.4922 10.0195C24.4922 8.50586 23.3105 7.32422 21.7969 7.32422C20.293 7.32422 19.1113 8.50586 19.1113 10.0195C19.1113 11.5332 20.293 12.7148 21.7969 12.7148ZM21.7969 11.2988C21.084 11.2988 20.5176 10.7422 20.5176 10.0195C20.5176 9.29688 21.084 8.74023 21.7969 8.74023C22.5195 8.74023 23.0859 9.29688 23.0859 10.0195C23.0859 10.7422 22.5195 11.2988 21.7969 11.2988Z" fill="var(--color-secondary)"/>
  <path d="M10.8008 5.27344C10.8008 6.62109 11.7773 7.50977 13.2324 7.50977L16.2695 7.50977L16.2695 8.11523C16.2695 8.60352 16.6211 8.75977 17.0312 8.49609L18.7891 7.35352C19.1016 7.14844 19.1211 6.75781 18.7891 6.5332L17.041 5.40039C16.6211 5.11719 16.2695 5.2832 16.2695 5.77148L16.2695 6.34766L13.2324 6.34766C12.4902 6.34766 12.0117 5.94727 12.0117 5.33203C12.0117 4.6582 12.5 4.19922 13.2422 4.19922L17.7344 4.19922C18.0957 4.19922 18.3496 3.96484 18.3496 3.61328C18.3496 3.27148 18.0957 3.02734 17.7246 3.02734L13.2422 3.02734C11.7773 3.02734 10.8008 3.93555 10.8008 5.27344Z" fill="var(--color-primary)"/>
 </g>
</svg>
