<svg version="1.1" xmlns="http://www.w3.org/2000/svg" xmlns:xlink="http://www.w3.org/1999/xlink" width="28.4375" height="14.2285" viewBox="0 0 28.4375 14.2285">
 <g>
  <rect height="14.2285" opacity="0" width="28.4375" x="0" y="0"/>
  <path d="M14.1406 14.2285C15.8105 14.2285 16.6309 13.418 16.6309 11.7773L16.6309 8.17383C16.6309 7.03125 16.3184 6.39648 15.3613 5.67383L9.30664 1.07422C8.26172 0.283203 7.45117 0.00976562 6.13281 0.00976562L2.4707 0.00976562C0.820312 0.00976562 0 0.820312 0 2.45117L0 11.7773C0 13.418 0.820312 14.2285 2.49023 14.2285ZM13.9258 7.09961L2.49023 7.09961C1.80664 7.09961 1.40625 6.71875 1.40625 5.99609L1.40625 2.5293C1.40625 1.79688 1.80664 1.42578 2.49023 1.42578L6.13281 1.42578C7.14844 1.42578 7.71484 1.5918 8.33984 2.08984L14.082 6.47461C14.3652 6.69922 14.3066 7.09961 13.9258 7.09961Z" fill="var(--color-secondary)"/>
  <path d="M20.1758 11.4355C20.4492 11.4355 20.6152 11.3477 20.8887 11.084L23.7695 8.17383L26.6602 11.0742C26.9238 11.3379 27.0996 11.4258 27.373 11.4258C27.7441 11.4258 28.0762 11.1133 28.0762 10.7422C28.0762 10.4883 27.9883 10.3223 27.7539 10.0781L24.8242 7.11914L27.7539 4.16016C27.9883 3.91602 28.0762 3.75 28.0762 3.49609C28.0762 3.125 27.7441 2.8125 27.373 2.8125C27.0996 2.8125 26.9336 2.90039 26.6602 3.16406L23.7695 6.06445L20.8984 3.16406C20.625 2.90039 20.459 2.8125 20.1855 2.8125C19.8047 2.8125 19.4824 3.125 19.4824 3.49609C19.4824 3.76953 19.5605 3.93555 19.7852 4.16992L22.7246 7.11914L19.7852 10.0781C19.5508 10.3223 19.4727 10.4883 19.4727 10.752C19.4727 11.123 19.7949 11.4355 20.1758 11.4355Z" fill="var(--color-primary)"/>
 </g>
</svg>
