<svg version="1.1" xmlns="http://www.w3.org/2000/svg" xmlns:xlink="http://www.w3.org/1999/xlink" width="17.8688" height="21.4941" viewBox="0 0 17.8688 21.4941">
 <g>
  <rect height="21.4941" opacity="0" width="17.8688" x="0" y="0"/>
  <path d="M17.367 13.0859C18.0311 10.7129 16.2928 9.67773 12.0447 9.67773C10.0623 9.67773 7.97248 9.88281 6.40998 10.2148L6.72248 10.6445C7.16193 7.20703 6.13654 4.48242 3.76349 3.24219L4.0174 4.31641C5.02326 1.68945 3.32404 0 1.79084 0C0.638495 0-0.367365 0.908203 0.130682 2.92969L3.02131 14.6191C3.31428 15.8105 4.07599 16.4355 5.24787 16.4355L14.369 16.4355C15.9998 16.4355 16.6639 15.6445 17.367 13.0859Z" fill="var(--color-secondary)"/>
  <path d="M13.285 17.6074L9.88654 17.6074C9.44709 17.6074 9.23224 17.959 9.47639 18.3594L11.1365 21.0645C11.3612 21.4355 11.7908 21.4453 12.035 21.0645L13.6854 18.3594C13.9197 17.959 13.7342 17.6074 13.285 17.6074Z" fill="var(--color-primary)"/>
  <path d="M13.285 8.52539C13.7342 8.52539 13.9295 8.16406 13.6854 7.77344L12.035 5.05859C11.8006 4.67773 11.3612 4.6875 11.1365 5.05859L9.47639 7.77344C9.23224 8.16406 9.44709 8.52539 9.88654 8.52539Z" fill="var(--color-primary)"/>
 </g>
</svg>
