<svg version="1.1" xmlns="http://www.w3.org/2000/svg" xmlns:xlink="http://www.w3.org/1999/xlink" viewBox="0 0 16.1328 15.7715">
 <g>
  <rect height="15.7715" opacity="0" width="16.1328" x="0" y="0"/>
  <path d="M15.7715 7.89062C15.7715 12.2363 12.2363 15.7715 7.88086 15.7715C3.53516 15.7715 0 12.2363 0 7.89062C0 3.54492 3.53516 0.00976562 7.88086 0.00976562C12.2363 0.00976562 15.7715 3.54492 15.7715 7.89062ZM2.97852 5.47852C2.97852 6.30859 3.37891 6.95312 4.04297 7.22656C4.26758 7.32422 4.36523 7.48047 4.35547 7.70508C4.35547 7.89062 4.35547 8.04688 4.35547 8.17383C4.35547 9.44336 3.80859 9.58984 3.97461 10.1562L4.44336 11.9043C4.52148 12.2266 4.7168 12.3926 5.01953 12.3926L5.46875 12.3926C5.87891 12.3926 6.10352 12.207 6.10352 11.8359C6.10352 11.5918 5.88867 11.3672 5.48828 11.2988L5.48828 10.3613C5.48828 10 5.55664 9.76562 5.80078 9.375C6.54297 9.64844 6.92383 9.7168 7.45117 9.7168C8.10547 9.7168 8.80859 9.60938 9.13086 9.51172C9.22852 9.81445 9.31641 10.166 9.31641 10.5859C9.31641 10.9961 9.25781 11.4941 9.25781 11.8359C9.25781 12.207 9.47266 12.3926 9.88281 12.3926L10.3613 12.3926C10.7715 12.3926 10.9961 12.1875 10.9961 11.8359C10.9961 11.543 10.8496 11.3672 10.5176 11.3184L10.5176 10.8887C10.5176 8.7793 11.9922 9.375 12.0508 6.8457C12.7344 6.77734 13.2227 6.34766 13.2227 6.00586C13.2227 5.49805 12.7148 4.99023 12.0996 4.55078C11.9727 4.12109 11.7188 3.78906 11.5625 3.78906C11.3965 3.78906 11.1035 4.13086 10.9863 4.60938C10.6738 4.92188 10.4297 5.27344 10.2539 5.61523L10.1367 5.81055C10 6.10352 9.87305 6.26953 9.6875 6.26953C8.125 6.26953 7.59766 6.06445 6.17188 6.06445C5.52734 6.06445 5.09766 6.2793 4.83398 6.5625C4.6875 6.73828 4.58008 6.77734 4.32617 6.67969C3.88672 6.50391 3.58398 6.05469 3.58398 5.47852C3.58398 4.72656 4.18945 4.19922 5.04883 4.19922C5.38086 4.19922 5.71289 4.25781 6.11328 4.42383C6.54297 4.59961 6.74805 4.01367 6.35742 3.85742C5.87891 3.66211 5.44922 3.58398 5.04883 3.58398C3.82812 3.58398 2.97852 4.36523 2.97852 5.47852ZM12.0801 5.3125C12.1973 5.32227 12.2852 5.42969 12.2754 5.53711C12.2656 5.6543 12.168 5.73242 12.0605 5.73242C11.9336 5.72266 11.8555 5.63477 11.8555 5.51758C11.8652 5.40039 11.9531 5.30273 12.0801 5.3125Z" fill="var(--color-primary)"/>
 </g>
</svg>
