<svg version="1.1" xmlns="http://www.w3.org/2000/svg" xmlns:xlink="http://www.w3.org/1999/xlink" viewBox="0 0 18.9844 15.4424">
 <g>
  <rect height="15.4424" opacity="0" width="18.9844" x="0" y="0"/>
  <path d="M18.623 9.27882C18.623 4.40578 14.8926 0.411637 10.127 0.00148111C9.88281-0.0180501 9.69727 0.157731 9.69727 0.401872L9.69727 2.98C9.69727 3.18507 9.84375 3.34132 10.0488 3.36086C12.9883 3.73195 15.2734 6.24172 15.2734 9.27882C15.2734 10.6558 14.8047 11.9253 13.9551 13.0093C13.8574 13.1362 13.8672 13.2925 13.9746 13.3999L15.8594 15.2847C16.0352 15.4605 16.2891 15.4605 16.4453 15.2749C17.8125 13.6538 18.623 11.564 18.623 9.27882Z" fill="var(--color-primary)"/>
  <path d="M0 9.27882C0 11.564 0.820312 13.6538 2.17773 15.2749C2.33398 15.4605 2.58789 15.4605 2.76367 15.2847L4.64844 13.3999C4.76562 13.2925 4.77539 13.1362 4.66797 13.0093C3.82812 11.9253 3.35938 10.6558 3.35938 9.27882C3.35938 6.24172 5.63477 3.73195 8.57422 3.36086C8.7793 3.34132 8.92578 3.18507 8.92578 2.98L8.92578 0.401872C8.92578 0.157731 8.74023-0.0180501 8.49609 0.00148111C3.74023 0.411637 0 4.40578 0 9.27882Z" fill="var(--color-primary)"/>
  <path d="M9.30664 12.0523C9.98047 12.0523 10.6641 11.8081 11.084 11.398C11.3379 11.1538 11.5137 10.812 11.5137 10.5288C11.5137 10.2652 11.3184 10.0991 11.0742 10.0991C10.8496 10.0991 10.7324 10.2554 10.6445 10.4116C10.3418 10.9585 9.94141 11.2319 9.31641 11.2319C8.24219 11.2319 7.74414 10.4116 7.74414 9.32765C7.74414 8.22414 8.27148 7.42336 9.30664 7.42336C9.93164 7.42336 10.3809 7.68703 10.6348 8.25343C10.7227 8.43898 10.8789 8.55617 11.0742 8.55617C11.3281 8.55617 11.5039 8.39015 11.5039 8.11672C11.5039 7.82375 11.2988 7.49172 11.0645 7.25734C10.6445 6.83742 9.99023 6.60304 9.29688 6.60304C7.71484 6.60304 6.76758 7.72609 6.76758 9.32765C6.76758 11.0757 7.82227 12.0523 9.30664 12.0523ZM9.27734 12.9702C9.43359 12.9702 9.56055 12.8433 9.56055 12.6773L9.56055 5.97804C9.56055 5.81203 9.43359 5.68507 9.27734 5.68507C9.11133 5.68507 8.99414 5.81203 8.99414 5.97804L8.99414 12.6773C8.99414 12.8433 9.11133 12.9702 9.27734 12.9702Z" fill="var(--color-primary)"/>
 </g>
</svg>
