<svg version="1.1" xmlns="http://www.w3.org/2000/svg" xmlns:xlink="http://www.w3.org/1999/xlink" viewBox="0 0 16.084 13.8965">
 <g>
  <rect height="13.8965" opacity="0" width="16.084" x="0" y="0"/>
  <path d="M4.53125 7.55859L11.1914 7.55859L11.1914 5.82031C11.1914 4.4043 12.1289 3.33984 13.4668 3.33984L13.5254 3.33984L13.5254 1.70898C13.5254 0.683594 12.8516 0 11.8555 0L3.86719 0C2.87109 0 2.19727 0.683594 2.19727 1.70898L2.19727 3.33984L2.25586 3.33984C3.59375 3.33984 4.53125 4.4043 4.53125 5.82031ZM0 10.4883C0 11.5039 0.673828 12.1875 1.65039 12.1875L14.0723 12.1875C15.0488 12.1875 15.7227 11.5039 15.7227 10.4883L15.7227 5.82031C15.7227 4.80469 15.0488 4.13086 14.0723 4.13086L13.7988 4.13086C12.8223 4.13086 12.1484 4.80469 12.1484 5.82031L12.1484 8.51562L3.57422 8.51562L3.57422 5.82031C3.57422 4.80469 2.90039 4.13086 1.92383 4.13086L1.65039 4.13086C0.673828 4.13086 0 4.80469 0 5.82031ZM2.8418 13.877L3.35938 13.877C3.78906 13.877 4.0918 13.5938 4.0918 13.1543L4.0918 11.4258L2.12891 11.4258L2.12891 13.1543C2.12891 13.5938 2.41211 13.877 2.8418 13.877ZM12.3633 13.877L12.8809 13.877C13.3105 13.877 13.5938 13.5938 13.5938 13.1543L13.5938 11.4258L11.6406 11.4258L11.6406 13.1543C11.6406 13.5938 11.9336 13.877 12.3633 13.877Z" fill="var(--color-primary)"/>
 </g>
</svg>
