<svg version="1.1" xmlns="http://www.w3.org/2000/svg" xmlns:xlink="http://www.w3.org/1999/xlink" viewBox="0 0 17.9224 17.5708">
 <g>
  <rect height="17.5708" opacity="0" width="17.9224" x="0" y="0"/>
  <path d="M10.2942 0.772709L11.4172 1.89576C11.5247 2.00318 11.6419 2.04224 11.7883 2.04224L13.3704 2.04224C14.8254 2.04224 15.5188 2.7356 15.5188 4.19068L15.5188 5.77271C15.5188 5.91919 15.5579 6.02662 15.6653 6.1438L16.7786 7.26685C17.804 8.29224 17.8137 9.2688 16.7786 10.2942L15.6653 11.4172C15.5579 11.5344 15.5188 11.6419 15.5188 11.7883L15.5188 13.3704C15.5188 14.8352 14.8157 15.5188 13.3704 15.5188L11.7883 15.5188C11.6419 15.5188 11.5247 15.5579 11.4172 15.6653L10.2942 16.7883C9.2688 17.8137 8.29224 17.8235 7.26685 16.7883L6.13404 15.6653C6.02662 15.5579 5.91919 15.5188 5.77271 15.5188L4.18091 15.5188C2.72583 15.5188 2.04224 14.8254 2.04224 13.3704L2.04224 11.7883C2.04224 11.6419 2.00318 11.5344 1.89576 11.4172L0.772709 10.2942C-0.252681 9.2688-0.262447 8.29224 0.772709 7.26685L1.89576 6.1438C2.00318 6.02662 2.04224 5.91919 2.04224 5.77271L2.04224 4.19068C2.04224 2.72583 2.72583 2.04224 4.18091 2.04224L5.77271 2.04224C5.91919 2.04224 6.02662 2.00318 6.13404 1.89576L7.26685 0.772709C8.29224-0.252681 9.25904-0.262447 10.2942 0.772709ZM10.9973 5.76294L7.88208 10.802L6.47583 8.92701C6.26099 8.63404 6.05591 8.55591 5.81177 8.55591C5.41138 8.55591 5.10865 8.87818 5.10865 9.27857C5.10865 9.47388 5.18677 9.66919 5.31373 9.83521L7.1399 12.1106C7.37427 12.4231 7.61841 12.5403 7.91138 12.5403C8.21412 12.5403 8.46802 12.4036 8.6438 12.1106L12.1301 6.60279C12.2473 6.42701 12.3547 6.22193 12.3547 6.02662C12.3547 5.60669 12.0032 5.35279 11.6126 5.35279C11.3782 5.35279 11.1536 5.48951 10.9973 5.76294Z" fill="var(--color-primary)"/>
 </g>
</svg>
