<svg version="1.1" xmlns="http://www.w3.org/2000/svg" xmlns:xlink="http://www.w3.org/1999/xlink" viewBox="0 0 16.1328 15.7715">
 <g>
  <rect height="15.7715" opacity="0" width="16.1328" x="0" y="0"/>
  <path d="M7.88086 15.7617C12.2363 15.7617 15.7715 12.2363 15.7715 7.88086C15.7715 3.52539 12.2363 0 7.88086 0C3.53516 0 0 3.52539 0 7.88086C0 12.2363 3.53516 15.7617 7.88086 15.7617ZM7.88086 14.2773C4.3457 14.2773 1.49414 11.416 1.49414 7.88086C1.49414 4.3457 4.3457 1.48438 7.88086 1.48438C11.416 1.48438 14.2773 4.3457 14.2773 7.88086C14.2773 11.416 11.416 14.2773 7.88086 14.2773Z" fill="var(--color-primary)"/>
  <path d="M6.11328 11.6797C6.33789 11.9043 6.79688 11.8848 7.03125 11.6602L10.1465 8.75C10.6348 8.30078 10.6348 7.49023 10.1465 7.03125L7.03125 4.13086C6.76758 3.88672 6.36719 3.86719 6.12305 4.10156C5.84961 4.35547 5.83984 4.78516 6.10352 5.03906L9.16992 7.89062L6.10352 10.752C5.84961 10.9961 5.83984 11.416 6.11328 11.6797Z" fill="var(--color-primary)"/>
 </g>
</svg>
