<svg version="1.1" xmlns="http://www.w3.org/2000/svg" xmlns:xlink="http://www.w3.org/1999/xlink" width="14.5898" height="14.248" viewBox="0 0 14.5898 14.248">
 <g>
  <rect height="14.248" opacity="0" width="14.5898" x="0" y="0"/>
  <path d="M2.49023 14.248L11.7383 14.248C13.4082 14.248 14.2285 13.4277 14.2285 11.7871L14.2285 2.4707C14.2285 0.830078 13.4082 0.00976562 11.7383 0.00976562L2.49023 0.00976562C0.830078 0.00976562 0 0.830078 0 2.4707L0 11.7871C0 13.4277 0.830078 14.248 2.49023 14.248Z" fill="var(--color-tertiary)"/>
  <path d="M8.02734 9.63867C7.45117 10.2441 6.79688 10.2441 6.23047 9.63867L3.22266 6.40625C2.94922 6.12305 2.94922 5.71289 3.18359 5.45898C3.4668 5.16602 3.89648 5.16602 4.15039 5.43945L7.12891 8.62305L10.0977 5.43945C10.3516 5.16602 10.7812 5.17578 11.0742 5.45898C11.3184 5.70312 11.3086 6.12305 11.0352 6.40625Z" fill="var(--color-primary)"/>
 </g>
</svg>
