<svg version="1.1" xmlns="http://www.w3.org/2000/svg" xmlns:xlink="http://www.w3.org/1999/xlink" viewBox="0 0 9.58008 13.6426">
 <g>
  <rect height="13.6426" opacity="0" width="9.58008" x="0" y="0"/>
  <path d="M0 12.8223C0 13.2812 0.351562 13.6328 0.810547 13.6328C1.03516 13.6328 1.2207 13.5547 1.37695 13.3887L7.41211 7.39258C7.57812 7.23633 7.65625 7.03125 7.65625 6.81641C7.65625 6.5918 7.56836 6.39648 7.42188 6.24023L1.37695 0.244141C1.2207 0.0878906 1.03516 0 0.800781 0C0.351562 0 0 0.341797 0 0.810547C0 1.03516 0.0878906 1.23047 0.234375 1.38672L6.23047 7.34375L6.23047 6.28906L0.234375 12.2559C0.078125 12.4121 0 12.5977 0 12.8223ZM7.63672 12.8711C7.63672 13.3203 7.96875 13.6328 8.42773 13.6328C8.88672 13.6328 9.21875 13.3203 9.21875 12.8711L9.21875 0.78125C9.21875 0.322266 8.88672 0 8.42773 0C7.96875 0 7.63672 0.322266 7.63672 0.78125Z" fill="var(--color-primary)"/>
 </g>
</svg>
