<svg version="1.1" xmlns="http://www.w3.org/2000/svg" xmlns:xlink="http://www.w3.org/1999/xlink" viewBox="0 0 14.5898 14.248">
 <g>
  <rect height="14.248" opacity="0" width="14.5898" x="0" y="0"/>
  <path d="M2.49023 14.248L11.7383 14.248C13.4082 14.248 14.2285 13.4277 14.2285 11.7871L14.2285 2.4707C14.2285 0.830078 13.4082 0.00976562 11.7383 0.00976562L2.49023 0.00976562C0.830078 0.00976562 0 0.830078 0 2.4707L0 11.7871C0 13.4277 0.830078 14.248 2.49023 14.248ZM2.50977 12.832C1.80664 12.832 1.40625 12.4512 1.40625 11.7188L1.40625 2.53906C1.40625 1.79688 1.80664 1.42578 2.50977 1.42578L11.7188 1.42578C12.4219 1.42578 12.8223 1.79688 12.8223 2.53906L12.8223 11.7188C12.8223 12.4512 12.4219 12.832 11.7188 12.832Z" fill="var(--color-primary)"/>
  <path d="M7.98828 9.57031L10.8887 6.45508C11.1426 6.18164 11.1523 5.78125 10.918 5.54688C10.6445 5.27344 10.2344 5.26367 9.98047 5.52734L7.11914 8.58398L4.25781 5.52734C4.01367 5.26367 3.59375 5.26367 3.33008 5.54688C3.0957 5.79102 3.0957 6.18164 3.34961 6.45508L6.25977 9.57031C6.80664 10.1465 7.44141 10.1465 7.98828 9.57031Z" fill="var(--color-primary)"/>
 </g>
</svg>
