<svg version="1.1" xmlns="http://www.w3.org/2000/svg" xmlns:xlink="http://www.w3.org/1999/xlink" viewBox="0 0 14.5898 14.248">
 <g>
  <rect height="14.248" opacity="0" width="14.5898" x="0" y="0"/>
  <path d="M14.2285 2.4707L14.2285 11.7871C14.2285 13.4277 13.4082 14.248 11.7383 14.248L2.49023 14.248C0.830078 14.248 0 13.4277 0 11.7871L0 2.4707C0 0.830078 0.830078 0.00976562 2.49023 0.00976562L11.7383 0.00976562C13.4082 0.00976562 14.2285 0.830078 14.2285 2.4707ZM4.23828 3.79883C4.23828 3.89648 4.26758 4.02344 4.3457 4.14062L6.29883 7.32422L5.05859 7.32422C4.88281 7.32422 4.76562 7.44141 4.76562 7.61719C4.76562 7.7832 4.88281 7.91016 5.05859 7.91016L6.60156 7.91016L6.60156 8.7207L5.05859 8.7207C4.88281 8.7207 4.76562 8.85742 4.76562 9.0332C4.76562 9.18945 4.88281 9.32617 5.05859 9.32617L6.60156 9.32617L6.60156 10.3809C6.60156 10.6934 6.81641 10.9082 7.11914 10.9082C7.42188 10.9082 7.62695 10.6934 7.62695 10.3809L7.62695 9.32617L9.17969 9.32617C9.35547 9.32617 9.47266 9.18945 9.47266 9.0332C9.47266 8.85742 9.35547 8.7207 9.17969 8.7207L7.62695 8.7207L7.62695 7.91016L9.17969 7.91016C9.35547 7.91016 9.47266 7.7832 9.47266 7.61719C9.47266 7.44141 9.35547 7.32422 9.17969 7.32422L7.92969 7.32422L9.89258 4.14062C9.96094 4.01367 9.99023 3.94531 9.99023 3.79883C9.99023 3.52539 9.77539 3.33984 9.48242 3.33984C9.29688 3.33984 9.13086 3.4375 9.01367 3.62305L7.13867 6.88477L7.10938 6.88477L5.22461 3.62305C5.10742 3.4375 4.99023 3.33008 4.74609 3.33008C4.45312 3.33008 4.23828 3.51562 4.23828 3.79883Z" fill="var(--color-primary)"/>
 </g>
</svg>
