<svg version="1.1" xmlns="http://www.w3.org/2000/svg" xmlns:xlink="http://www.w3.org/1999/xlink" viewBox="0 0 10.5176 16.4941">
 <g>
  <rect height="16.4941" opacity="0" width="10.5176" x="0" y="0"/>
  <path d="M10.1562 2.02148L10.1562 14.4531C10.1562 15.6445 9.26758 16.4746 8.00781 16.4746L2.13867 16.4746C0.878906 16.4746 0 15.6445 0 14.4531L0 2.02148C0 0.830078 0.878906 0 2.13867 0L8.00781 0C9.26758 0 10.1562 0.830078 10.1562 2.02148ZM2.11914 8.23242C2.11914 9.86328 3.44727 11.1914 5.07812 11.1914C6.69922 11.1914 8.03711 9.86328 8.03711 8.23242C8.03711 6.60156 6.69922 5.27344 5.07812 5.27344C3.44727 5.27344 2.11914 6.60156 2.11914 8.23242Z" fill="var(--color-primary)"/>
 </g>
</svg>
