<svg version="1.1" xmlns="http://www.w3.org/2000/svg" xmlns:xlink="http://www.w3.org/1999/xlink" viewBox="0 0 16.1328 15.7715">
 <g>
  <rect height="15.7715" opacity="0" width="16.1328" x="0" y="0"/>
  <path d="M7.88086 15.7617C12.2363 15.7617 15.7715 12.2363 15.7715 7.88086C15.7715 3.52539 12.2363 0 7.88086 0C3.53516 0 0 3.52539 0 7.88086C0 12.2363 3.53516 15.7617 7.88086 15.7617ZM7.88086 14.2773C4.3457 14.2773 1.49414 11.416 1.49414 7.88086C1.49414 4.3457 4.3457 1.48438 7.88086 1.48438C11.416 1.48438 14.2773 4.3457 14.2773 7.88086C14.2773 11.416 11.416 14.2773 7.88086 14.2773Z" fill="var(--color-primary)"/>
  <path d="M5.45898 8.82812L9.95117 8.82812C11.1523 8.82812 12.0508 7.90039 12.0508 6.76758C12.0508 5.5957 11.0938 4.73633 9.85352 4.73633C9.39453 3.84766 8.53516 3.27148 7.50977 3.27148C6.12305 3.27148 4.99023 4.3457 4.86328 5.70312C4.20898 5.89844 3.7207 6.47461 3.7207 7.24609C3.7207 8.11523 4.35547 8.82812 5.45898 8.82812ZM5.91797 10.7617L6.31836 10.0781C6.41602 9.90234 6.36719 9.6582 6.17188 9.55078C5.99609 9.44336 5.76172 9.52148 5.66406 9.69727L5.26367 10.3809C5.16602 10.5469 5.21484 10.8008 5.41016 10.8984C5.58594 11.0059 5.82031 10.9277 5.91797 10.7617ZM8.00781 10.7617L8.4082 10.0781C8.50586 9.90234 8.45703 9.6582 8.27148 9.55078C8.08594 9.44336 7.85156 9.52148 7.75391 9.69727L7.35352 10.3809C7.25586 10.5469 7.30469 10.8008 7.5 10.8984C7.67578 11.0059 7.91992 10.9277 8.00781 10.7617ZM10.0977 10.7617L10.498 10.0781C10.5859 9.90234 10.5371 9.6582 10.3516 9.55078C10.166 9.44336 9.93164 9.52148 9.83398 9.69727L9.44336 10.3809C9.3457 10.5469 9.39453 10.8008 9.58008 10.8984C9.76562 11.0059 10 10.9277 10.0977 10.7617ZM4.98047 12.3145C5.26367 12.3145 5.50781 12.0801 5.50781 11.7871C5.50781 11.4941 5.26367 11.2598 4.98047 11.2598C4.6875 11.2598 4.44336 11.4941 4.44336 11.7871C4.44336 12.0801 4.6875 12.3145 4.98047 12.3145ZM7.07031 12.3145C7.35352 12.3145 7.59766 12.0801 7.59766 11.7871C7.59766 11.4941 7.35352 11.2598 7.07031 11.2598C6.77734 11.2598 6.54297 11.4941 6.54297 11.7871C6.54297 12.0801 6.77734 12.3145 7.07031 12.3145ZM9.15039 12.3145C9.44336 12.3145 9.67773 12.0801 9.67773 11.7871C9.67773 11.4941 9.44336 11.2598 9.15039 11.2598C8.86719 11.2598 8.62305 11.4941 8.62305 11.7871C8.62305 12.0801 8.86719 12.3145 9.15039 12.3145Z" fill="var(--color-primary)"/>
 </g>
</svg>
