<svg version="1.1" xmlns="http://www.w3.org/2000/svg" xmlns:xlink="http://www.w3.org/1999/xlink" width="18.3887" height="12.2168" viewBox="0 0 18.3887 12.2168">
 <g>
  <rect height="12.2168" opacity="0" width="18.3887" x="0" y="0"/>
  <path d="M3.83789 12.1973L13.7695 12.1973C16.3672 12.1973 18.3887 10.2344 18.3887 7.69531C18.3887 5.14648 16.3379 3.21289 13.5156 3.21289C12.4902 1.21094 10.5957 0 8.36914 0C5.38086 0 2.83203 2.28516 2.55859 5.35156C1.02539 5.80078 0.0292969 7.11914 0.0292969 8.73047C0.0292969 10.6543 1.41602 12.1973 3.83789 12.1973ZM3.81836 10.791C2.33398 10.791 1.43555 10.0195 1.43555 8.7793C1.43555 7.73438 2.08984 7.00195 3.28125 6.67969C3.75 6.5625 3.92578 6.34766 3.96484 5.83984C4.16016 3.28125 6.02539 1.40625 8.36914 1.40625C10.1074 1.40625 11.5039 2.37305 12.3535 4.12109C12.5488 4.53125 12.793 4.66797 13.3008 4.66797C15.7129 4.66797 16.9727 6.07422 16.9727 7.73438C16.9727 9.45312 15.6152 10.791 13.877 10.791Z" fill="var(--color-primary)"/>
 </g>
</svg>
