<svg version="1.1" xmlns="http://www.w3.org/2000/svg" xmlns:xlink="http://www.w3.org/1999/xlink" width="16.1328" height="15.7715" viewBox="0 0 16.1328 15.7715">
 <g>
  <rect height="15.7715" opacity="0" width="16.1328" x="0" y="0"/>
  <path d="M7.88086 15.7715C12.1875 15.7715 15.7715 12.1973 15.7715 7.89062C15.7715 3.58398 12.1777 0.00976562 7.87109 0.00976562C3.57422 0.00976562 0 3.58398 0 7.89062C0 12.1973 3.58398 15.7715 7.88086 15.7715Z" fill="var(--color-tertiary)"/>
  <path d="M3.4375 8.75L3.4375 7.02148C3.4375 6.5332 3.76953 6.19141 4.26758 6.19141L6.19141 6.19141L6.19141 4.28711C6.19141 3.7793 6.52344 3.45703 7.01172 3.45703L8.74023 3.45703C9.22852 3.45703 9.56055 3.7793 9.56055 4.28711L9.56055 6.19141L11.4844 6.19141C11.9824 6.19141 12.3242 6.5332 12.3242 7.02148L12.3242 8.75C12.3242 9.23828 11.9824 9.58008 11.4844 9.58008L9.56055 9.58008L9.56055 11.4941C9.56055 11.9922 9.22852 12.3242 8.74023 12.3242L7.01172 12.3242C6.52344 12.3242 6.19141 11.9922 6.19141 11.4941L6.19141 9.58008L4.26758 9.58008C3.7793 9.58008 3.4375 9.23828 3.4375 8.75Z" fill="var(--color-primary)"/>
 </g>
</svg>
