<svg version="1.1" xmlns="http://www.w3.org/2000/svg" xmlns:xlink="http://www.w3.org/1999/xlink" viewBox="0 0 15.9668 17.3145">
 <g>
  <rect height="17.3145" opacity="0" width="15.9668" x="0" y="0"/>
  <path d="M7.23633 7.98828L7.23633 6.07422L8.36914 6.07422L8.36914 7.93945L15.166 4.01367C15.0293 3.85742 14.873 3.7207 14.6777 3.60352L8.73047 0.175781C8.61328 0.107422 8.49609 0.0488281 8.36914 0.00976562L8.36914 2.17773L7.23633 2.17773L7.23633 0.00976562C7.11914 0.0488281 6.99219 0.107422 6.875 0.175781L0.927734 3.60352C0.722656 3.7207 0.556641 3.87695 0.410156 4.05273ZM7.23633 4.98047L7.23633 3.27148L8.36914 3.27148L8.36914 4.98047ZM8.33008 17.3145C8.45703 17.2754 8.59375 17.207 8.73047 17.1289L14.6777 13.7012C14.7949 13.623 14.9023 13.5547 15 13.457L13.4961 12.5977L14.1016 11.5918L15.5762 12.4316C15.5957 12.3145 15.6055 12.207 15.6055 12.0898L15.6055 5.23438C15.6055 5.20508 15.6055 5.16602 15.6055 5.13672L9.22852 8.79883L10.7031 9.64844L10.1172 10.6543L8.33008 9.62891ZM12.5586 12.0508L11.0742 11.1914L11.6504 10.1855L13.1348 11.0352ZM7.1875 17.2852L7.1875 9.66797L5.48828 10.6543L4.90234 9.64844L6.32812 8.81836L0 5.19531C0 5.22461 0 5.26367 0 5.29297L0 12.0898C0 12.207 0.00976562 12.3145 0.0292969 12.4316L1.50391 11.5918L2.10938 12.5977L0.605469 13.457C0.703125 13.5547 0.810547 13.623 0.927734 13.7012L6.875 17.1289C6.98242 17.1973 7.08008 17.2461 7.1875 17.2852ZM4.53125 11.1914L3.04688 12.0508L2.4707 11.0352L3.94531 10.1855Z" fill="var(--color-primary)"/>
 </g>
</svg>
