<svg version="1.1" xmlns="http://www.w3.org/2000/svg" xmlns:xlink="http://www.w3.org/1999/xlink" width="15.918" height="17.085" viewBox="0 0 15.918 17.085">
 <g>
  <rect height="17.085" opacity="0" width="15.918" x="0" y="0"/>
  <path d="M7.1875 2.89307L8.36914 2.89307L8.36914 1.13525L7.1875 1.13525ZM7.1875 5.6958L8.36914 5.6958L8.36914 3.71338L7.1875 3.71338ZM7.1875 8.24463L8.36914 8.24463L8.36914 6.51611L7.1875 6.51611ZM5.92773 10.3833L7.50977 9.60205L6.97266 8.5376L5.40039 9.31885ZM3.41797 11.6235L5.19531 10.7349L4.66797 9.68018L2.89062 10.5493ZM1.13281 12.7466L2.68555 11.9751L2.14844 10.9106L0.595703 11.6821ZM8.03711 9.60205L9.61914 10.3833L10.1465 9.31885L8.57422 8.5376ZM10.3613 10.7349L12.1387 11.6235L12.666 10.5493L10.8887 9.68018ZM12.8711 11.9751L14.4238 12.7466L14.9609 11.6821L13.4082 10.9106ZM1.15234 13.479L7.10938 16.8872C7.56836 17.1509 7.98828 17.1509 8.4375 16.8872L14.3945 13.479C15.1367 13.0591 15.5566 12.6392 15.5566 11.4185L15.5566 5.52002C15.5566 4.63135 15.2344 4.07471 14.5117 3.65479L9.28711 0.656738C8.26172 0.0708008 7.29492 0.0708008 6.26953 0.656738L1.04492 3.65479C0.3125 4.07471 0 4.63135 0 5.52002L0 11.4185C0 12.6392 0.419922 13.0591 1.15234 13.479ZM1.9043 12.3169C1.48438 12.0728 1.31836 11.8091 1.31836 11.3794L1.31836 5.79346L7.08984 9.1333L7.08984 15.3052ZM13.6523 12.3169L8.4668 15.3052L8.4668 9.1333L14.2383 5.79346L14.2383 11.3794C14.2383 11.8091 14.0625 12.0728 13.6523 12.3169ZM7.77344 7.9126L2.08984 4.66064L6.81641 1.93604C7.48047 1.55518 8.07617 1.54541 8.73047 1.93604L13.4668 4.66064Z" fill="var(--color-primary)"/>
 </g>
</svg>
