<svg version="1.1" xmlns="http://www.w3.org/2000/svg" xmlns:xlink="http://www.w3.org/1999/xlink" width="16.1328" height="15.7715" viewBox="0 0 16.1328 15.7715">
 <g>
  <rect height="15.7715" opacity="0" width="16.1328" x="0" y="0"/>
  <path d="M7.88086 15.7617C12.1875 15.7617 15.7715 12.1875 15.7715 7.88086C15.7715 3.57422 12.1777 0 7.87109 0C3.57422 0 0 3.57422 0 7.88086C0 12.1875 3.58398 15.7617 7.88086 15.7617ZM7.88086 14.2773C4.33594 14.2773 1.50391 11.4355 1.50391 7.88086C1.50391 4.32617 4.32617 1.48438 7.87109 1.48438C11.4258 1.48438 14.2773 4.32617 14.2773 7.88086C14.2773 11.4355 11.4355 14.2773 7.88086 14.2773Z" fill="var(--color-secondary)"/>
  <path d="M6.04492 12.3047C6.21094 12.3047 6.31836 12.2266 6.51367 12.041L7.86133 10.8105L10.2344 10.8105C11.3965 10.8105 12.002 10.1758 12.002 9.02344L12.002 6.28906C12.002 5.14648 11.3965 4.51172 10.2344 4.51172L5.53711 4.51172C4.375 4.51172 3.75977 5.14648 3.75977 6.28906L3.75977 9.02344C3.75977 10.1758 4.375 10.8105 5.53711 10.8105L5.67383 10.8105L5.67383 11.875C5.67383 12.1289 5.81055 12.3047 6.04492 12.3047ZM7.88086 8.35938C7.66602 8.35938 7.54883 8.24219 7.53906 8.01758L7.49023 6.00586C7.48047 5.78125 7.64648 5.61523 7.87109 5.61523C8.10547 5.61523 8.28125 5.78125 8.27148 6.00586L8.22266 8.01758C8.22266 8.24219 8.0957 8.35938 7.88086 8.35938ZM7.88086 9.63867C7.64648 9.63867 7.42188 9.44336 7.42188 9.19922C7.42188 8.96484 7.63672 8.75977 7.88086 8.75977C8.13477 8.75977 8.34961 8.95508 8.34961 9.19922C8.34961 9.44336 8.125 9.63867 7.88086 9.63867Z" fill="var(--color-primary)"/>
 </g>
</svg>
