<svg version="1.1" xmlns="http://www.w3.org/2000/svg" xmlns:xlink="http://www.w3.org/1999/xlink" viewBox="0 0 2.79297 14.7559">
 <g>
  <rect height="14.7559" opacity="0" width="2.79297" x="0" y="0"/>
  <path d="M1.23047 10.4688C1.68945 10.4688 2.00195 10.1758 2.01172 9.69727L2.09961 1.00586C2.09961 1.00586 2.09961 1.00586 2.09961 1.00586C2.09961 0.498047 1.68945 0.15625 1.2207 0.15625C0.751953 0.15625 0.341797 0.498047 0.341797 1.00586C0.341797 1.00586 0.341797 1.00586 0.341797 1.00586L0.439453 9.69727C0.449219 10.1758 0.771484 10.4688 1.23047 10.4688ZM1.2207 14.7559C1.89453 14.7559 2.43164 14.1992 2.43164 13.5352C2.43164 12.8516 1.89453 12.3145 1.2207 12.3145C0.546875 12.3145 0 12.8516 0 13.5352C0 14.1992 0.546875 14.7559 1.2207 14.7559Z" fill="var(--color-primary)"/>
 </g>
</svg>
