<svg version="1.1" xmlns="http://www.w3.org/2000/svg" xmlns:xlink="http://www.w3.org/1999/xlink" viewBox="0 0 16.1328 15.7715">
 <g>
  <rect height="15.7715" opacity="0" width="16.1328" x="0" y="0"/>
  <path d="M15.7715 7.88086C15.7715 12.2266 12.2363 15.7617 7.88086 15.7617C3.53516 15.7617 0 12.2266 0 7.88086C0 3.53516 3.53516 0 7.88086 0C12.2363 0 15.7715 3.53516 15.7715 7.88086ZM3.17383 5.51758C3.10547 5.75195 3.24219 5.99609 3.48633 6.06445L6.60156 6.91406C6.67969 6.93359 6.72852 7.00195 6.72852 7.08984C6.63086 7.88086 6.24023 8.64258 6.03516 8.98438L4.27734 8.98438L4.27734 7.1875C4.27734 6.94336 4.0625 6.74805 3.83789 6.74805C3.58398 6.74805 3.37891 6.94336 3.37891 7.1875L3.37891 9.43359C3.37891 9.6875 3.49609 9.86328 3.78906 9.88281L6.00586 10.0684C6.39648 10.0977 6.48438 10.127 6.8457 10.2246L9.54102 10.9863L11.6602 11.7578C11.8555 11.8359 12.1484 11.7578 12.2363 11.4941C12.3047 11.2695 12.1973 11.0059 11.9727 10.9277L9.85352 10.1562C9.81445 10.1465 9.73633 10.1074 9.70703 10.0977L7.83203 9.41406C8.07617 8.93555 8.41797 8.17383 8.50586 7.34375C8.51562 7.24609 8.57422 7.1875 8.67188 7.1875L11.875 7.1875C12.1289 7.1875 12.3242 6.99219 12.3242 6.74805C12.3242 6.50391 12.1289 6.30859 11.875 6.30859L8.34961 6.30859C7.76367 6.30859 7.70508 6.29883 7.06055 6.12305L3.7207 5.20508C3.48633 5.13672 3.24219 5.27344 3.17383 5.51758ZM6.91406 4.86328C6.91406 5.40039 7.33398 5.83984 7.88086 5.83984C8.4082 5.83984 8.82812 5.40039 8.82812 4.86328C8.82812 4.35547 8.4082 3.91602 7.88086 3.91602C7.33398 3.91602 6.91406 4.35547 6.91406 4.86328Z" fill="var(--color-primary)"/>
 </g>
</svg>
