<svg version="1.1" xmlns="http://www.w3.org/2000/svg" xmlns:xlink="http://www.w3.org/1999/xlink" width="18.2617" height="16.5332" viewBox="0 0 18.2617 16.5332">
 <g>
  <rect height="16.5332" opacity="0" width="18.2617" x="0" y="0"/>
  <path d="M13.2031 3.39844C14.1309 3.39844 14.8926 2.63672 14.8926 1.68945C14.8926 0.751953 14.1309 0 13.2031 0C12.2461 0 11.4941 0.751953 11.4941 1.68945C11.4941 2.63672 12.2461 3.39844 13.2031 3.39844ZM9.27734 15.957L10.8594 15.957L10.8594 10.8984C10.8594 10.752 10.8105 10.5762 10.7031 10.4297L8.97461 8.10547L11.1719 5.89844C11.3184 5.74219 11.543 5.74219 11.6895 5.89844L13.7695 7.99805C13.9062 8.1543 14.1211 8.22266 14.3262 8.22266C14.5312 8.22266 14.7363 8.14453 14.8828 7.99805L17.2168 5.66406C17.3828 5.49805 17.4512 5.30273 17.4512 5.10742C17.4512 4.41406 16.5918 4.04297 16.084 4.55078L14.3262 6.30859L11.3574 3.35938C10.9766 2.98828 10.5957 2.77344 9.99023 2.77344L6.67969 2.77344C6.39648 2.77344 6.19141 2.85156 5.98633 3.05664L3.7207 5.3125C3.20312 5.83008 3.58398 6.67969 4.27734 6.67969C4.47266 6.67969 4.66797 6.60156 4.81445 6.43555L6.91406 4.35547L8.30078 4.35547C8.4082 4.35547 8.45703 4.46289 8.36914 4.55078L6.67969 6.24023C5.98633 6.94336 5.97656 7.92969 6.67969 8.64258L9.27734 11.2305ZM5.73242 8.67188L4.64844 10.127L0.791016 10.127C0.361328 10.127 0 10.4688 0 10.9082C0 11.3477 0.361328 11.6895 0.791016 11.6895L5.03906 11.6895C5.26367 11.6895 5.46875 11.6016 5.64453 11.4258L7.02148 10.0586L6.14258 9.18945C5.97656 9.02344 5.83984 8.85742 5.73242 8.67188ZM16.5039 13.9746C16.5039 14.2383 16.7188 14.4629 16.9629 14.4629C17.2266 14.4629 17.4512 14.2383 17.4512 13.9746L17.4512 5.10742L16.5039 5.10742ZM0.498047 5.73242C0.234375 5.73242 0.0195312 5.94727 0.0195312 6.19141C0.0195312 6.45508 0.234375 6.67969 0.498047 6.67969L4.27734 6.67969L4.27734 5.73242ZM15.7715 16.5234C16.582 16.5234 17.0605 16.3184 17.6172 16.0547C17.8711 15.9473 17.959 15.6738 17.8711 15.459C17.8027 15.2246 17.5195 15.0586 17.207 15.2148C16.7676 15.4395 16.4258 15.5762 15.7715 15.5762L2.16797 15.5762C1.91406 15.5762 1.68945 15.7812 1.68945 16.0352C1.68945 16.2891 1.9043 16.5234 2.16797 16.5234Z" fill="var(--color-primary)"/>
 </g>
</svg>
