<svg version="1.1" xmlns="http://www.w3.org/2000/svg" xmlns:xlink="http://www.w3.org/1999/xlink" viewBox="0 0 16.2598 18.0566">
 <g>
  <rect height="18.0566" opacity="0" width="16.2598" x="0" y="0"/>
  <path d="M0 17.0117C0 17.4023 0.322266 17.7246 0.712891 17.7246C1.09375 17.7246 1.41602 17.4023 1.41602 17.0117L1.41602 0.712891C1.41602 0.322266 1.09375 0 0.712891 0C0.322266 0 0 0.322266 0 0.712891Z" fill="var(--color-primary)"/>
  <path d="M6.2793 17.4512L8.73047 14.5312C8.97461 14.2578 9.00391 14.1797 9.10156 13.8867L9.28711 13.3203L7.95898 11.6602L7.55859 13.5156L5.13672 16.3867C4.35547 17.3047 5.63477 18.2129 6.2793 17.4512ZM12.2363 17.207C12.7344 18.2324 14.2578 17.6074 13.7109 16.4941L12.041 13.1152C11.9141 12.8613 11.7383 12.5879 11.5918 12.373L10.5273 10.8691L10.6055 10.6543C10.9082 9.82422 10.9961 9.30664 11.0547 8.4668L11.2207 6.11328C11.2988 4.99023 10.6445 4.13086 9.48242 4.13086C8.61328 4.13086 8.03711 4.57031 7.23633 5.3418L5.99609 6.57227C5.57617 6.97266 5.44922 7.31445 5.41016 7.83203L5.26367 9.76562C5.22461 10.2539 5.49805 10.5957 5.95703 10.6152C6.40625 10.6445 6.68945 10.3711 6.73828 9.85352L6.92383 7.74414L7.51953 7.20703C7.73438 7.01172 8.00781 7.14844 7.98828 7.35352L7.85156 9.14062C7.7832 10.0488 7.99805 10.4785 8.62305 11.2598L10.2734 13.3301C10.4395 13.5352 10.459 13.623 10.5273 13.75ZM15.0781 7.31445L13.1934 7.31445L11.9922 5.97656L11.8652 7.98828L12.334 8.44727C12.5977 8.7207 12.832 8.79883 13.3203 8.79883L15.0781 8.79883C15.5762 8.79883 15.8984 8.51562 15.8984 8.05664C15.8984 7.60742 15.5664 7.31445 15.0781 7.31445ZM10.4004 3.4082C11.3477 3.4082 12.0996 2.64648 12.0996 1.70898C12.0996 0.761719 11.3477 0 10.4004 0C9.45312 0 8.70117 0.761719 8.70117 1.70898C8.70117 2.64648 9.45312 3.4082 10.4004 3.4082Z" fill="var(--color-primary)"/>
 </g>
</svg>
