<svg version="1.1" xmlns="http://www.w3.org/2000/svg" xmlns:xlink="http://www.w3.org/1999/xlink" viewBox="0 0 24.7253 16.2232">
 <g>
  <rect height="16.2232" opacity="0" width="24.7253" x="0" y="0"/>
  <path d="M3.87632 4.45436C2.71421 4.45436 1.78647 3.4778 1.78647 2.35475C1.78647 1.18288 2.71421 0.225846 3.87632 0.225846C5.04819 0.225846 5.99546 1.18288 5.99546 2.35475C5.99546 3.48756 5.04819 4.45436 3.87632 4.45436ZM16.3861 15.5676C15.9857 15.9876 15.3021 15.9583 14.8041 15.4505L11.4544 12.0032C11.347 11.886 11.2689 11.8567 11.1029 11.9251L8.53452 12.9016C6.84507 13.5364 5.25327 13.0286 4.54038 11.7298L2.82163 8.61452C2.1771 7.42311 2.38218 6.20241 3.50522 5.59694C4.60874 4.99147 5.74155 5.45045 6.40561 6.66139L8.58335 10.636L10.4388 9.96217C11.347 9.63014 12.1185 9.73756 12.8509 10.4895L16.3177 14.0833C16.806 14.5813 16.7572 15.1965 16.3861 15.5676Z" fill="var(--color-primary)"/>
  <path d="M16.0345 2.8528L18.1439 5.52858C18.2416 5.64577 18.3783 5.67506 18.515 5.59694C19.0326 5.3235 19.7455 5.14772 20.3021 5.14772C20.8685 5.14772 21.5912 5.3235 22.0794 5.59694C22.2259 5.67506 22.3822 5.64577 22.4701 5.52858L24.5794 2.8528C24.8041 2.55983 24.765 2.26686 24.4916 2.04225C23.6517 1.38795 22.0404 0.889908 20.3021 0.889908C18.5736 0.889908 16.9525 1.38795 16.1224 2.04225C15.8392 2.26686 15.8099 2.55983 16.0345 2.8528ZM18.1927 7.06178C17.9486 6.73952 17.8412 6.43678 17.8412 6.12428C17.8412 5.37233 18.4369 5.21608 18.4369 4.78639C18.4369 4.33717 17.8412 4.19069 17.8412 3.4192C17.8412 3.11647 17.9486 2.8235 18.1927 2.50124C18.4759 2.15944 18.9935 2.53053 18.7103 2.89186C18.5443 3.136 18.4955 3.26295 18.4955 3.4192C18.4955 3.94655 19.0814 4.08327 19.0814 4.78639C19.0814 5.46999 18.4955 5.61647 18.4955 6.12428C18.4955 6.30983 18.5443 6.42702 18.7103 6.68092C18.9935 7.03249 18.4759 7.41335 18.1927 7.06178ZM20.0189 7.06178C19.7943 6.73952 19.6869 6.43678 19.6869 6.12428C19.6869 5.37233 20.2728 5.21608 20.2728 4.78639C20.2728 4.33717 19.6869 4.19069 19.6869 3.4192C19.6869 3.11647 19.7943 2.8235 20.0189 2.50124C20.3119 2.15944 20.8392 2.53053 20.556 2.89186C20.3802 3.136 20.3412 3.26295 20.3412 3.4192C20.3412 3.94655 20.9271 4.08327 20.9271 4.78639C20.9271 5.46999 20.3412 5.61647 20.3412 6.12428C20.3412 6.30983 20.3802 6.42702 20.556 6.68092C20.8294 7.03249 20.3119 7.41335 20.0189 7.06178ZM21.8841 7.06178C21.6302 6.73952 21.5326 6.43678 21.5326 6.12428C21.5326 5.37233 22.1185 5.21608 22.1185 4.78639C22.1185 4.33717 21.5326 4.19069 21.5326 3.4192C21.5326 3.11647 21.6302 2.8235 21.8841 2.50124C22.1673 2.15944 22.6751 2.53053 22.4017 2.89186C22.2357 3.136 22.1869 3.26295 22.1869 3.4192C22.1869 3.94655 22.7728 4.08327 22.7728 4.78639C22.7728 5.46999 22.1869 5.61647 22.1869 6.12428C22.1869 6.30983 22.2357 6.42702 22.4017 6.68092C22.6751 7.03249 22.1673 7.41335 21.8841 7.06178ZM11.9916 6.78835C12.3431 6.78835 12.6263 6.50514 12.6263 6.14381L12.6263 3.32155L13.7982 3.32155C14.433 3.32155 14.6478 2.68678 14.2572 2.26686L12.4115 0.21608C12.1478-0.0768888 11.8158-0.0671232 11.5423 0.21608L9.69663 2.26686C9.28647 2.70631 9.55991 3.32155 10.1654 3.32155L11.347 3.32155L11.347 6.14381C11.347 6.50514 11.6302 6.78835 11.9916 6.78835Z" fill="var(--color-primary)"/>
 </g>
</svg>
