<svg version="1.1" xmlns="http://www.w3.org/2000/svg" xmlns:xlink="http://www.w3.org/1999/xlink" viewBox="0 0 16.1328 15.7715">
 <g>
  <rect height="15.7715" opacity="0" width="16.1328" x="0" y="0"/>
  <path d="M7.88086 15.7617C12.2363 15.7617 15.7715 12.2363 15.7715 7.88086C15.7715 3.52539 12.2363 0 7.88086 0C3.53516 0 0 3.52539 0 7.88086C0 12.2363 3.53516 15.7617 7.88086 15.7617ZM7.88086 14.2773C4.3457 14.2773 1.49414 11.416 1.49414 7.88086C1.49414 4.3457 4.3457 1.48438 7.88086 1.48438C11.416 1.48438 14.2773 4.3457 14.2773 7.88086C14.2773 11.416 11.416 14.2773 7.88086 14.2773Z" fill="var(--color-primary)"/>
  <path d="M7.77344 10.1758C7.99805 10.1758 8.19336 9.99023 8.19336 9.75586L8.19336 7.62695C8.19336 7.5293 8.1543 7.43164 8.07617 7.34375L6.96289 6.11328C6.89453 6.03516 6.94336 5.91797 7.05078 5.91797L8.4082 5.91797C8.57422 5.91797 8.62305 6.03516 8.62305 6.15234L8.62305 7.20703C8.62305 7.43164 8.81836 7.62695 9.04297 7.62695L10.752 7.62695C10.9863 7.62695 11.1719 7.43164 11.1719 7.20703C11.1719 6.97266 10.9863 6.77734 10.752 6.77734L9.47266 6.77734L9.47266 5.2832C9.47266 4.81445 9.0918 4.43359 8.62305 4.43359L6.54297 4.43359C6.11328 4.43359 5.73242 4.69727 5.56641 5.08789C5.40039 5.48828 5.48828 5.94727 5.79102 6.25L7.34375 7.8125L7.34375 9.75586C7.34375 9.99023 7.53906 10.1758 7.77344 10.1758ZM4.95117 11.6211C6.10352 11.6211 7.05078 10.6934 7.05078 9.54102C7.05078 8.38867 6.10352 7.46094 4.95117 7.46094C3.80859 7.46094 2.87109 8.38867 2.87109 9.54102C2.87109 10.6934 3.80859 11.6211 4.95117 11.6211ZM4.95117 11.0547C4.12109 11.0547 3.44727 10.3809 3.44727 9.54102C3.44727 8.70117 4.12109 8.02734 4.95117 8.02734C5.79102 8.02734 6.47461 8.70117 6.47461 9.54102C6.47461 10.3809 5.79102 11.0547 4.95117 11.0547ZM11.582 8.44727C11.8848 8.71094 12.0898 9.12109 12.0898 9.56055C12.0898 10.4004 11.416 11.0742 10.5664 11.0742C9.73633 11.0742 9.0625 10.4004 9.0625 9.56055C9.0625 9.36523 9.10156 9.16016 9.17969 8.96484C9.27734 8.75 9.17969 8.59375 9.0332 8.55469C8.90625 8.49609 8.74023 8.54492 8.67188 8.7207C8.55469 8.97461 8.48633 9.26758 8.48633 9.56055C8.48633 10.7129 9.42383 11.6406 10.5664 11.6406C11.7285 11.6406 12.666 10.7129 12.666 9.56055C12.666 8.94531 12.3828 8.36914 11.9434 7.98828C11.7969 7.86133 11.6211 7.91992 11.5234 8.00781C11.4258 8.125 11.4062 8.29102 11.582 8.44727ZM10.8203 5.57617C11.3281 5.57617 11.7383 5.15625 11.7383 4.64844C11.7383 4.14062 11.3281 3.7207 10.8203 3.7207C10.3027 3.7207 9.89258 4.14062 9.89258 4.64844C9.89258 5.15625 10.3027 5.57617 10.8203 5.57617Z" fill="var(--color-primary)"/>
 </g>
</svg>
