<svg version="1.1" xmlns="http://www.w3.org/2000/svg" xmlns:xlink="http://www.w3.org/1999/xlink" width="16.1328" height="15.7715" viewBox="0 0 16.1328 15.7715">
 <g>
  <rect height="15.7715" opacity="0" width="16.1328" x="0" y="0"/>
  <path d="M7.88086 15.7617C12.1875 15.7617 15.7715 12.1875 15.7715 7.88086C15.7715 3.57422 12.1777 0 7.87109 0C3.57422 0 0 3.57422 0 7.88086C0 12.1875 3.58398 15.7617 7.88086 15.7617Z" fill="var(--color-tertiary)"/>
  <path d="M7.2168 13.1836C6.88477 13.1836 6.68945 12.9883 6.68945 12.6465L6.68945 6.62109C6.68945 6.42578 6.62109 6.28906 6.45508 6.16211L5.27344 5.2832C5.00977 5.08789 4.89258 4.89258 4.87305 4.58984L4.76562 2.95898C4.74609 2.63672 4.91211 2.44141 5.19531 2.42188C5.48828 2.39258 5.67383 2.57812 5.69336 2.89062L5.80078 4.52148L6.51367 5.01953C6.78711 5.21484 6.95312 5.2832 7.31445 5.2832L7.98828 5.2832C9.73633 5.2832 10.5762 5.64453 10.5762 7.11914L10.5762 9.25781C10.5762 9.57031 10.4004 9.75586 10.1172 9.75586C9.82422 9.75586 9.63867 9.57031 9.63867 9.25781L9.63867 6.96289C9.63867 6.81641 9.55078 6.70898 9.41406 6.70898C9.28711 6.70898 9.19922 6.80664 9.19922 6.96289L9.19922 12.6465C9.19922 12.9883 9.02344 13.1836 8.69141 13.1836C8.36914 13.1836 8.16406 12.9883 8.16406 12.6465L8.16406 9.23828C8.16406 9.0918 8.07617 8.98438 7.93945 8.98438C7.80273 8.98438 7.71484 9.08203 7.71484 9.23828L7.71484 12.6465C7.71484 12.9883 7.5293 13.1836 7.2168 13.1836ZM7.98828 4.77539C7.44141 4.77539 6.97266 4.31641 6.97266 3.7793C6.97266 3.21289 7.42188 2.75391 7.98828 2.75391C8.55469 2.75391 9.01367 3.21289 9.01367 3.7793C9.01367 4.30664 8.54492 4.77539 7.98828 4.77539Z" fill="var(--color-primary)"/>
 </g>
</svg>
