<svg version="1.1" xmlns="http://www.w3.org/2000/svg" xmlns:xlink="http://www.w3.org/1999/xlink" viewBox="0 0 16.1328 15.7715">
 <g>
  <rect height="15.7715" opacity="0" width="16.1328" x="0" y="0"/>
  <path d="M15.7715 7.88086C15.7715 12.2266 12.2363 15.7617 7.88086 15.7617C3.53516 15.7617 0 12.2266 0 7.88086C0 3.53516 3.53516 0 7.88086 0C12.2363 0 15.7715 3.53516 15.7715 7.88086ZM11.3379 3.54492L8.73047 4.93164C8.4375 5.07812 8.16406 5.14648 7.88086 5.14648C7.59766 5.14648 7.31445 5.07812 7.02148 4.93164L4.41406 3.54492C4.22852 3.44727 3.98438 3.51562 3.87695 3.7207C3.76953 3.92578 3.84766 4.15039 4.04297 4.26758L6.72852 5.70312C6.81641 5.74219 6.86523 5.83008 6.86523 5.91797L6.86523 7.89062L6.07422 10.0781L5.27344 12.2754C5.18555 12.4707 5.30273 12.7148 5.51758 12.793C5.70312 12.8613 5.9375 12.7832 6.03516 12.5488L6.82617 10.3711L7.88086 8.70117L8.92578 10.3711L9.7168 12.5488C9.81445 12.7832 10.0488 12.8613 10.2344 12.793C10.4492 12.7148 10.5664 12.4707 10.4785 12.2754L9.67773 10.0781L8.88672 7.89062L8.88672 5.91797C8.88672 5.83008 8.93555 5.74219 9.02344 5.70312L11.709 4.26758C11.9141 4.15039 11.9824 3.92578 11.875 3.7207C11.7676 3.51562 11.5234 3.44727 11.3379 3.54492ZM6.94336 3.75977C6.94336 4.28711 7.36328 4.70703 7.88086 4.70703C8.38867 4.70703 8.80859 4.28711 8.80859 3.75977C8.80859 3.25195 8.38867 2.8418 7.88086 2.8418C7.36328 2.8418 6.94336 3.25195 6.94336 3.75977Z" fill="var(--color-primary)"/>
 </g>
</svg>
