<svg version="1.1" xmlns="http://www.w3.org/2000/svg" xmlns:xlink="http://www.w3.org/1999/xlink" viewBox="0 0 16.1328 15.7715">
 <g>
  <rect height="15.7715" opacity="0" width="16.1328" x="0" y="0"/>
  <path d="M7.88086 15.7617C12.2363 15.7617 15.7715 12.2363 15.7715 7.88086C15.7715 3.52539 12.2363 0 7.88086 0C3.53516 0 0 3.52539 0 7.88086C0 12.2363 3.53516 15.7617 7.88086 15.7617ZM7.88086 14.2773C4.3457 14.2773 1.49414 11.416 1.49414 7.88086C1.49414 4.3457 4.3457 1.48438 7.88086 1.48438C11.416 1.48438 14.2773 4.3457 14.2773 7.88086C14.2773 11.416 11.416 14.2773 7.88086 14.2773Z" fill="var(--color-primary)"/>
  <path d="M3.1543 9.58008L3.60352 9.58008C4.76562 9.58008 4.99023 8.89648 5.73242 8.89648C6.47461 8.89648 6.70898 9.58008 7.86133 9.58008C9.02344 9.58008 9.25781 8.89648 10 8.89648C10.7422 8.89648 10.9668 9.58008 12.1289 9.58008L12.5781 9.58008C12.7246 9.58008 12.8613 9.45312 12.8613 9.29688C12.8613 9.15039 12.7246 9.01367 12.5781 9.01367L12.1289 9.01367C11.3672 9.01367 11.1133 8.33008 10 8.33008C8.89648 8.33008 8.62305 9.01367 7.86133 9.01367C7.09961 9.01367 6.83594 8.33008 5.73242 8.33008C4.61914 8.33008 4.36523 9.01367 3.60352 9.01367L3.1543 9.01367C3.00781 9.01367 2.87109 9.15039 2.87109 9.29688C2.87109 9.45312 3.00781 9.58008 3.1543 9.58008ZM3.27148 10.7227C3.4082 10.7227 3.52539 10.6055 3.52539 10.459C3.52539 10.3223 3.4082 10.2051 3.27148 10.2051C3.125 10.2051 3.00781 10.3223 3.00781 10.459C3.00781 10.6055 3.125 10.7227 3.27148 10.7227ZM4.04297 10.5762C4.18945 10.5762 4.30664 10.459 4.30664 10.3125C4.30664 10.1758 4.18945 10.0586 4.04297 10.0586C3.89648 10.0586 3.7793 10.1758 3.7793 10.3125C3.7793 10.459 3.89648 10.5762 4.04297 10.5762ZM4.78516 10.2246C4.93164 10.2246 5.04883 10.1074 5.04883 9.96094C5.04883 9.82422 4.93164 9.70703 4.78516 9.70703C4.63867 9.70703 4.53125 9.82422 4.53125 9.96094C4.53125 10.1074 4.63867 10.2246 4.78516 10.2246ZM5.57617 10.0391C5.72266 10.0391 5.83984 9.92188 5.83984 9.77539C5.83984 9.63867 5.72266 9.52148 5.57617 9.52148C5.43945 9.52148 5.32227 9.63867 5.32227 9.77539C5.32227 9.92188 5.43945 10.0391 5.57617 10.0391ZM6.37695 10.2246C6.51367 10.2246 6.63086 10.1074 6.63086 9.96094C6.63086 9.82422 6.51367 9.70703 6.37695 9.70703C6.23047 9.70703 6.11328 9.82422 6.11328 9.96094C6.11328 10.1074 6.23047 10.2246 6.37695 10.2246ZM7.10938 10.5762C7.25586 10.5762 7.36328 10.459 7.36328 10.3125C7.36328 10.1758 7.25586 10.0586 7.10938 10.0586C6.96289 10.0586 6.8457 10.1758 6.8457 10.3125C6.8457 10.459 6.96289 10.5762 7.10938 10.5762ZM12.4805 10.7227C12.627 10.7227 12.7441 10.6055 12.7441 10.459C12.7441 10.3223 12.627 10.2051 12.4805 10.2051C12.3438 10.2051 12.2266 10.3223 12.2266 10.459C12.2266 10.6055 12.3438 10.7227 12.4805 10.7227ZM11.709 10.5762C11.8555 10.5762 11.9629 10.459 11.9629 10.3125C11.9629 10.1758 11.8555 10.0586 11.709 10.0586C11.5625 10.0586 11.4453 10.1758 11.4453 10.3125C11.4453 10.459 11.5625 10.5762 11.709 10.5762ZM10.9668 10.2246C11.1035 10.2246 11.2207 10.1074 11.2207 9.96094C11.2207 9.82422 11.1035 9.70703 10.9668 9.70703C10.8203 9.70703 10.7031 9.82422 10.7031 9.96094C10.7031 10.1074 10.8203 10.2246 10.9668 10.2246ZM10.166 10.0391C10.3125 10.0391 10.4297 9.92188 10.4297 9.77539C10.4297 9.63867 10.3125 9.52148 10.166 9.52148C10.0293 9.52148 9.91211 9.63867 9.91211 9.77539C9.91211 9.92188 10.0293 10.0391 10.166 10.0391ZM9.375 10.2246C9.52148 10.2246 9.63867 10.1074 9.63867 9.96094C9.63867 9.82422 9.52148 9.70703 9.375 9.70703C9.23828 9.70703 9.12109 9.82422 9.12109 9.96094C9.12109 10.1074 9.23828 10.2246 9.375 10.2246ZM8.64258 10.5762C8.78906 10.5762 8.90625 10.459 8.90625 10.3125C8.90625 10.1758 8.78906 10.0586 8.64258 10.0586C8.49609 10.0586 8.37891 10.1758 8.37891 10.3125C8.37891 10.459 8.49609 10.5762 8.64258 10.5762ZM7.87109 10.7227C8.01758 10.7227 8.13477 10.6055 8.13477 10.459C8.13477 10.3223 8.01758 10.2051 7.87109 10.2051C7.73438 10.2051 7.61719 10.3223 7.61719 10.459C7.61719 10.6055 7.73438 10.7227 7.87109 10.7227ZM10.0977 7.23633C10.6055 7.23633 11.0156 6.82617 11.0156 6.30859C11.0156 5.80078 10.6055 5.39062 10.0977 5.39062C9.58008 5.39062 9.16992 5.80078 9.16992 6.30859C9.16992 6.82617 9.58008 7.23633 10.0977 7.23633ZM6.45508 7.85156C6.92383 8.04688 7.19727 8.39844 7.86133 8.39844C8.64258 8.39844 8.84766 7.91992 9.52148 7.76367L7.10938 5.25391C6.92383 5.05859 6.64062 5.03906 6.41602 5.19531L4.75586 6.37695C4.47266 6.57227 4.50195 6.875 4.66797 7.06055C4.80469 7.20703 5.04883 7.27539 5.2832 7.09961L6.63086 6.15234L7.39258 6.93359C7.48047 7.02148 7.5 7.1582 7.37305 7.24609Z" fill="var(--color-primary)"/>
 </g>
</svg>
