<svg version="1.1" xmlns="http://www.w3.org/2000/svg" xmlns:xlink="http://www.w3.org/1999/xlink" viewBox="0 0 16.1328 15.7715">
 <g>
  <rect height="15.7715" opacity="0" width="16.1328" x="0" y="0"/>
  <path d="M15.7715 7.88086C15.7715 12.2266 12.2363 15.7617 7.88086 15.7617C3.53516 15.7617 0 12.2266 0 7.88086C0 3.53516 3.53516 0 7.88086 0C12.2363 0 15.7715 3.53516 15.7715 7.88086ZM7.07031 2.2168L7.07031 6.99219L6.04492 6.26953C5.9668 6.2207 5.89844 6.20117 5.77148 6.20117L3.4375 6.20117C3.18359 6.20117 2.97852 6.39648 2.97852 6.64062C2.97852 6.88477 3.18359 7.09961 3.4375 7.09961L5.61523 7.09961L6.96289 8.31055C7.01172 8.35938 6.97266 8.44727 6.89453 8.44727L5.38086 8.44727C5.25391 8.44727 5.11719 8.48633 5.0293 8.57422L3.4082 10.2051C3.22266 10.3809 3.22266 10.6543 3.4082 10.8398C3.57422 11.0156 3.85742 11.0156 4.0332 10.8398L5.49805 9.38477L7.07031 9.64844L7.07031 10.459C7.07031 11.2012 7.59766 11.6602 8.26172 11.6602C8.47656 11.6602 8.69141 11.6016 8.86719 11.5039L8.86719 13.4473C8.86719 13.6133 9.00391 13.75 9.16016 13.75C9.31641 13.75 9.46289 13.6133 9.46289 13.4473L9.46289 10.8105C9.47266 10.8008 9.47266 10.8008 9.49219 10.7812L10.8301 9.43359C10.9082 9.35547 10.957 9.23828 10.957 9.12109L10.957 7.10938C10.957 6.82617 10.8691 6.58203 10.6934 6.41602L8.06641 3.79883L8.06641 5.06836L9.17969 6.17188C9.27734 6.25977 9.26758 6.34766 9.17969 6.42578L7.98828 7.62695L7.65625 7.41211L7.65625 2.2168C7.65625 2.05078 7.51953 1.92383 7.36328 1.92383C7.2168 1.92383 7.07031 2.06055 7.07031 2.2168ZM8.86719 10.1367C8.85742 10.1367 8.84766 10.1465 8.84766 10.1465C8.68164 10.3223 8.67188 10.5664 8.79883 10.7324C8.71094 10.9375 8.51562 11.0742 8.26172 11.0742C7.91016 11.0742 7.65625 10.8691 7.65625 10.459L7.65625 9.69727C8.0957 9.67773 8.52539 9.49219 8.84766 9.16992L8.86719 9.15039ZM10.0586 8.25195L10.0586 8.93555L9.46289 9.54102L9.46289 8.56445L9.86328 8.16406C9.95117 8.08594 10.0586 8.125 10.0586 8.25195ZM10.2344 4.95117C10.2344 5.48828 10.6641 5.91797 11.1914 5.91797C11.7188 5.91797 12.1582 5.48828 12.1582 4.95117C12.1582 4.43359 11.7188 3.99414 11.1914 3.99414C10.6641 3.99414 10.2344 4.43359 10.2344 4.95117Z" fill="var(--color-primary)"/>
 </g>
</svg>
