<svg version="1.1" xmlns="http://www.w3.org/2000/svg" xmlns:xlink="http://www.w3.org/1999/xlink" viewBox="0 0 16.1328 15.7715">
 <g>
  <rect height="15.7715" opacity="0" width="16.1328" x="0" y="0"/>
  <path d="M7.88086 15.7617C12.2363 15.7617 15.7715 12.2363 15.7715 7.88086C15.7715 3.52539 12.2363 0 7.88086 0C3.53516 0 0 3.52539 0 7.88086C0 12.2363 3.53516 15.7617 7.88086 15.7617ZM7.88086 14.2773C4.3457 14.2773 1.49414 11.416 1.49414 7.88086C1.49414 4.3457 4.3457 1.48438 7.88086 1.48438C11.416 1.48438 14.2773 4.3457 14.2773 7.88086C14.2773 11.416 11.416 14.2773 7.88086 14.2773Z" fill="var(--color-primary)"/>
  <path d="M3.93555 4.12109L4.14062 4.12109C4.12109 3.95508 4.16016 3.75 4.24805 3.59375L3.93555 3.59375C3.78906 3.59375 3.68164 3.71094 3.68164 3.85742C3.68164 4.00391 3.78906 4.12109 3.93555 4.12109ZM6.00586 4.12109L9.90234 4.12109L10.1953 3.69141C10.2246 3.65234 10.2344 3.62305 10.2539 3.59375L5.66406 3.59375C5.68359 3.63281 5.70312 3.66211 5.72266 3.69141ZM11.7871 4.12109L11.9434 4.12109C12.0898 4.12109 12.1973 4.00391 12.1973 3.85742C12.1973 3.71094 12.0898 3.59375 11.9434 3.59375L11.6797 3.59375C11.7676 3.73047 11.8066 3.93555 11.7871 4.12109ZM7.99805 6.36719C8.50586 6.36719 8.92578 5.95703 8.92578 5.44922C8.92578 4.93164 8.50586 4.52148 7.99805 4.52148C7.49023 4.52148 7.07031 4.93164 7.07031 5.44922C7.07031 5.95703 7.49023 6.36719 7.99805 6.36719ZM5.83984 9.96094C6.34766 10.5762 7.17773 10.4883 7.59766 9.86328L11.3379 4.26758C11.4746 4.0625 11.416 3.78906 11.2109 3.65234C11.0156 3.51562 10.7324 3.57422 10.5957 3.7793L8.90625 6.32812C8.70117 6.63086 8.35938 6.78711 7.99805 6.78711C7.61719 6.78711 7.2168 6.61133 6.97266 6.24023L5.33203 3.7793C5.19531 3.57422 4.92188 3.51562 4.7168 3.65234C4.51172 3.78906 4.46289 4.0625 4.59961 4.26758L6.62109 7.29492C6.71875 7.43164 6.81641 7.4707 6.62109 7.77344L6.13281 8.51562L4.86328 7.41211C4.67773 7.25586 4.4043 7.24609 4.20898 7.44141L2.67578 8.98438C2.5 9.16992 2.5 9.43359 2.67578 9.59961C2.87109 9.78516 3.125 9.75586 3.29102 9.59961L4.52148 8.37891ZM6.69922 13.0957C6.83594 12.8906 6.78711 12.6367 6.57227 12.5L5.21484 11.5918L6.09375 10.6445C5.89844 10.5566 5.71289 10.4102 5.54688 10.2148L5.25391 9.86328L4.18945 11.4258C4.05273 11.6211 4.0918 11.9043 4.30664 12.041L6.09375 13.2227C6.30859 13.3594 6.57227 13.291 6.69922 13.0957Z" fill="var(--color-primary)"/>
 </g>
</svg>
