<svg version="1.1" xmlns="http://www.w3.org/2000/svg" xmlns:xlink="http://www.w3.org/1999/xlink" viewBox="0 0 16.1328 15.7715">
 <g>
  <rect height="15.7715" opacity="0" width="16.1328" x="0" y="0"/>
  <path d="M15.7715 7.88086C15.7715 12.2266 12.2363 15.7617 7.88086 15.7617C3.53516 15.7617 0 12.2266 0 7.88086C0 3.53516 3.53516 0 7.88086 0C12.2363 0 15.7715 3.53516 15.7715 7.88086ZM7.53906 12.3926C7.36328 12.3926 7.23633 12.5293 7.23633 12.6855C7.23633 12.8516 7.36328 12.9883 7.53906 12.9883L10.6641 12.9883C10.8105 12.9883 10.957 12.8516 10.957 12.6855C10.957 12.5293 10.8105 12.3926 10.6641 12.3926ZM6.74805 8.86719C6.44531 8.93555 6.26953 8.93555 6.18164 8.90625L6.35742 10.1465L5.92773 12.3242C5.87891 12.5684 6.03516 12.8125 6.26953 12.8613C6.48438 12.9004 6.74805 12.7539 6.80664 12.5L7.25586 10.2637C7.26562 10.2148 7.25586 10.166 7.25586 10.1367L7.25586 8.75ZM7.98828 11.4062C7.83203 11.4062 7.68555 11.5234 7.68555 11.709C7.68555 11.8652 7.83203 12.002 7.98828 12.002L10.2148 12.002C10.3906 12.002 10.5078 11.8652 10.5078 11.709C10.5078 11.543 10.3809 11.4062 10.2148 11.4062ZM9.26758 3.68164L9.26758 5.03906L8.42773 4.7168C8.16406 4.60938 7.87109 4.56055 7.56836 4.56055L4.79492 4.56055C4.58008 4.56055 4.39453 4.7168 4.35547 4.91211L3.90625 6.92383C3.85742 7.17773 4.01367 7.42188 4.25781 7.46094C4.47266 7.50977 4.7168 7.39258 4.78516 7.12891L5.15625 5.46875L5.82031 5.46875C5.9082 5.46875 5.95703 5.53711 5.9375 5.61523L5.49805 7.32422C5.33203 8.01758 5.78125 8.69141 6.65039 8.47656L8.25195 8.08594L7.94922 9.62891C7.90039 9.87305 8.04688 10.1074 8.29102 10.1562C8.48633 10.2051 8.75977 10.0781 8.81836 9.81445L9.25781 7.57812C9.32617 7.25586 9.05273 7.00195 8.7793 7.03125L7.36328 7.16797L7.77344 5.56641C7.79297 5.50781 7.87109 5.45898 7.93945 5.48828L9.56055 6.10352C9.87305 6.2207 10.1758 6.05469 10.1758 5.74219L10.1758 3.68164C10.1758 3.4375 9.9707 3.23242 9.7168 3.23242C9.47266 3.23242 9.26758 3.4375 9.26758 3.68164ZM6.74805 3.16406C6.74805 3.69141 7.17773 4.11133 7.70508 4.11133C8.23242 4.11133 8.66211 3.69141 8.66211 3.16406C8.66211 2.63672 8.23242 2.20703 7.70508 2.20703C7.17773 2.20703 6.74805 2.63672 6.74805 3.16406Z" fill="var(--color-primary)"/>
 </g>
</svg>
