<svg version="1.1" xmlns="http://www.w3.org/2000/svg" xmlns:xlink="http://www.w3.org/1999/xlink" width="21.7969" height="16.6895" viewBox="0 0 21.7969 16.6895">
 <g>
  <rect height="16.6895" opacity="0" width="21.7969" x="0" y="0"/>
  <path d="M8.03711 2.39258C8.69141 2.39258 9.22852 1.86523 9.22852 1.20117C9.22852 0.537109 8.69141 0 8.03711 0C7.37305 0 6.83594 0.537109 6.83594 1.20117C6.83594 1.86523 7.37305 2.39258 8.03711 2.39258ZM0.791016 12.9883L5.03906 12.9883C5.27344 12.9883 5.37109 12.9688 5.54688 12.9297L9.84375 11.8945C9.92188 11.875 9.99023 11.9434 9.98047 12.0215L9.69727 14.3555L8.00781 13.1445C7.64648 12.8906 7.14844 12.9785 6.89453 13.3301C6.63086 13.6914 6.70898 14.1992 7.07031 14.4531L9.67773 16.2891C10.2441 16.6895 10.957 16.5625 11.1035 15.9668L13.252 7.35352C13.2812 7.25586 13.3789 7.19727 13.4863 7.2168L20.498 8.61328C21.1035 8.73047 21.4355 8.28125 21.4355 7.83203C21.4355 7.49023 21.25 7.14844 20.8105 7.06055L13.8867 5.66406C11.8457 5.26367 10.5566 5.06836 9.10156 5.06836L7.14844 5.06836L7.14844 3.07617C7.14844 2.62695 6.78711 2.27539 6.35742 2.27539C5.9082 2.27539 5.55664 2.62695 5.55664 3.07617L5.55664 5.84961C5.55664 6.28906 5.9082 6.65039 6.35742 6.65039L9.63867 6.65039C9.78516 6.65039 9.89258 6.77734 9.85352 6.92383L9.20898 9.375C9.10156 9.77539 8.83789 10.0781 8.44727 10.2148L5.01953 11.4062L0.791016 11.4062C0.341797 11.4062 0 11.7676 0 12.207C0 12.6562 0.341797 12.9883 0.791016 12.9883ZM12.4609 4.63867C13.3984 4.63867 14.1602 3.87695 14.1602 2.92969C14.1602 1.99219 13.3984 1.24023 12.4609 1.24023C11.5137 1.24023 10.752 1.99219 10.752 2.92969C10.752 3.87695 11.5137 4.63867 12.4609 4.63867Z" fill="var(--color-primary)"/>
 </g>
</svg>
