<svg version="1.1" xmlns="http://www.w3.org/2000/svg" xmlns:xlink="http://www.w3.org/1999/xlink" viewBox="0 0 16.2695 18.0566">
 <g>
  <rect height="18.0566" opacity="0" width="16.2695" x="0" y="0"/>
  <path d="M0 17.0117C0 17.4023 0.322266 17.7246 0.712891 17.7246C1.09375 17.7246 1.41602 17.4023 1.41602 17.0117L1.41602 0.712891C1.41602 0.322266 1.09375 0 0.712891 0C0.322266 0 0 0.322266 0 0.712891Z" fill="var(--color-primary)"/>
  <path d="M14.5215 17.4512L12.0703 14.5312C11.8262 14.2578 11.7969 14.1797 11.6992 13.8867L11.5137 13.3203L12.8418 11.6602L13.2422 13.5156L15.6641 16.3867C16.4453 17.3047 15.166 18.2129 14.5215 17.4512ZM8.56445 17.207C8.05664 18.2324 6.54297 17.6074 7.08984 16.4941L8.75 13.1152C8.87695 12.8613 9.0625 12.5879 9.20898 12.373L10.2734 10.8691L10.1953 10.6543C9.89258 9.82422 9.80469 9.30664 9.74609 8.4668L9.58008 6.11328C9.50195 4.99023 10.1562 4.13086 11.3184 4.13086C12.1777 4.13086 12.7637 4.57031 13.5645 5.3418L14.8047 6.57227C15.2246 6.97266 15.3516 7.31445 15.3906 7.83203L15.5371 9.76562C15.5762 10.2539 15.3027 10.5957 14.8438 10.6152C14.3848 10.6445 14.1113 10.3711 14.0625 9.85352L13.877 7.74414L13.2812 7.20703C13.0664 7.01172 12.793 7.14844 12.8125 7.35352L12.9492 9.14062C13.0176 10.0488 12.8027 10.4785 12.1777 11.2598L10.5273 13.3301C10.3613 13.5352 10.3418 13.623 10.2734 13.75ZM5.72266 7.31445L7.60742 7.31445L8.80859 5.97656L8.93555 7.98828L8.4668 8.44727C8.19336 8.7207 7.96875 8.79883 7.48047 8.79883L5.72266 8.79883C5.22461 8.79883 4.89258 8.51562 4.89258 8.05664C4.89258 7.60742 5.23438 7.31445 5.72266 7.31445ZM10.4004 3.4082C9.45312 3.4082 8.69141 2.64648 8.69141 1.70898C8.69141 0.761719 9.45312 0 10.4004 0C11.3379 0 12.0996 0.761719 12.0996 1.70898C12.0996 2.64648 11.3379 3.4082 10.4004 3.4082Z" fill="var(--color-primary)"/>
 </g>
</svg>
