<svg version="1.1" xmlns="http://www.w3.org/2000/svg" xmlns:xlink="http://www.w3.org/1999/xlink" width="18.9746" height="18.2715" viewBox="0 0 18.9746 18.2715">
 <g>
  <rect height="18.2715" opacity="0" width="18.9746" x="0" y="0"/>
  <path d="M14.082 9.00391C15.0195 9.00391 15.7812 8.25195 15.7812 7.30469C15.7812 6.36719 15.0195 5.60547 14.082 5.60547C13.1348 5.60547 12.3828 6.36719 12.3828 7.30469C12.3828 8.25195 13.1348 9.00391 14.082 9.00391ZM8.65234 15.0781L11.7383 15.0781L14.9219 11.8945C15.0781 11.7383 15.332 11.7383 15.4883 11.8945L16.7871 13.1934L15.4395 14.5508C14.7363 15.2539 15.8008 16.3086 16.4941 15.6152L18.3789 13.7305C18.6914 13.418 18.6816 12.959 18.3789 12.6562L16.1914 10.4688C15.7617 10.0391 15.1953 9.79492 14.5898 9.79492L8.87695 9.79492L8.87695 11.3086L10.7812 11.3086C10.9082 11.3086 10.9766 11.4551 10.8789 11.5527L8.65234 13.7891ZM1.00586 15.0781L9.13086 15.0781L9.13086 0.810547C9.13086 0.234375 8.30078-0.0195312 7.92969 0.644531L0.478516 14.0625C0.175781 14.5996 0.478516 15.0781 1.00586 15.0781ZM1.65039 14.1309C1.5918 14.1309 1.5625 14.0723 1.5918 14.0332L8.04688 2.40234C8.08594 2.33398 8.19336 2.34375 8.19336 2.43164L8.19336 14.1309ZM0.46875 18.2715L1.2793 18.2715C3.36914 18.2715 3.81836 17.0117 5.20508 17.0117C6.60156 17.0117 7.05078 18.2715 9.13086 18.2715C11.2207 18.2715 11.6699 17.0117 13.0566 17.0117C14.4531 17.0117 14.9023 18.2715 16.9824 18.2715L17.793 18.2715C18.0566 18.2715 18.2715 18.0664 18.2715 17.793C18.2715 17.5293 18.0566 17.3242 17.793 17.3242L16.9824 17.3242C15.5469 17.3242 15.0586 16.0645 13.0566 16.0645C11.0645 16.0645 10.5762 17.3242 9.13086 17.3242C7.69531 17.3242 7.20703 16.0645 5.20508 16.0645C3.21289 16.0645 2.72461 17.3242 1.2793 17.3242L0.46875 17.3242C0.205078 17.3242 0 17.5293 0 17.793C0 18.0664 0.205078 18.2715 0.46875 18.2715Z" fill="var(--color-primary)"/>
 </g>
</svg>
