<svg version="1.1" xmlns="http://www.w3.org/2000/svg" xmlns:xlink="http://www.w3.org/1999/xlink" viewBox="0 0 19.2554 15.7715">
 <g>
  <rect height="15.7715" opacity="0" width="19.2554" x="0" y="0"/>
  <path d="M4.09057 4.22852C2.92846 4.22852 2.00072 3.25195 2.00072 2.12891C2.00072 0.957031 2.92846 0 4.09057 0C5.26244 0 6.20971 0.957031 6.20971 2.12891C6.20971 3.26172 5.26244 4.22852 4.09057 4.22852ZM16.6003 15.3418C16.1999 15.7617 15.5163 15.7324 15.0183 15.2246L11.6687 11.7773C11.5613 11.6602 11.4831 11.6309 11.3171 11.6992L8.74877 12.6758C7.05932 13.3105 5.46752 12.8027 4.75463 11.5039L3.03588 8.38867C2.39135 7.19727 2.59643 5.97656 3.71947 5.37109C4.82299 4.76562 5.9558 5.22461 6.61986 6.43555L8.7976 10.4102L10.6531 9.73633C11.5613 9.4043 12.3328 9.51172 13.0652 10.2637L16.532 13.8574C17.0203 14.3555 16.9714 14.9707 16.6003 15.3418Z" fill="var(--color-primary)"/>
  <path d="M8.739 2.54883L11.2878 5.78125C11.3953 5.9082 11.5808 5.94727 11.7468 5.85938C12.3621 5.52734 13.2214 5.30273 13.905 5.30273C14.5788 5.30273 15.448 5.52734 16.0535 5.85938C16.2292 5.94727 16.4148 5.9082 16.5222 5.78125L19.071 2.54883C19.3542 2.1875 19.3054 1.82617 18.9636 1.5625C17.948 0.771484 16.0046 0.15625 13.905 0.15625C11.7956 0.15625 9.85229 0.771484 8.84643 1.5625C8.50463 1.82617 8.4558 2.1875 8.739 2.54883ZM11.3464 7.61719C11.0437 7.23633 10.9265 6.875 10.9265 6.50391C10.9265 5.58594 11.6394 5.40039 11.6394 4.87305C11.6394 4.3457 10.9265 4.16016 10.9265 3.23242C10.9265 2.86133 11.0437 2.50977 11.3464 2.11914C11.6882 1.68945 12.3132 2.14844 11.9812 2.58789C11.7663 2.88086 11.7175 3.03711 11.7175 3.23242C11.7175 3.86719 12.4304 4.02344 12.4304 4.87305C12.4304 5.72266 11.7175 5.87891 11.7175 6.50391C11.7175 6.70898 11.7663 6.86523 11.9812 7.1582C12.3132 7.59766 11.6882 8.04688 11.3464 7.61719ZM13.573 7.61719C13.2703 7.23633 13.1433 6.875 13.1433 6.50391C13.1433 5.58594 13.866 5.40039 13.866 4.87305C13.866 4.3457 13.1433 4.16016 13.1433 3.23242C13.1433 2.86133 13.2703 2.50977 13.573 2.11914C13.9148 1.68945 14.5398 2.14844 14.2078 2.58789C13.9929 2.88086 13.9441 3.03711 13.9441 3.23242C13.9441 3.86719 14.6472 4.02344 14.6472 4.87305C14.6472 5.72266 13.9441 5.87891 13.9441 6.50391C13.9441 6.70898 13.9929 6.86523 14.2078 7.1582C14.5398 7.59766 13.9148 8.04688 13.573 7.61719ZM15.7996 7.61719C15.5066 7.23633 15.3796 6.875 15.3796 6.50391C15.3796 5.58594 16.0925 5.40039 16.0925 4.87305C16.0925 4.3457 15.3796 4.16016 15.3796 3.23242C15.3796 2.86133 15.5066 2.50977 15.7996 2.11914C16.1511 1.68945 16.7761 2.14844 16.4441 2.58789C16.2292 2.88086 16.1804 3.03711 16.1804 3.23242C16.1804 3.86719 16.8835 4.02344 16.8835 4.87305C16.8835 5.72266 16.1804 5.87891 16.1804 6.50391C16.1804 6.70898 16.2292 6.86523 16.4441 7.1582C16.7761 7.59766 16.1413 8.04688 15.7996 7.61719Z" fill="var(--color-primary)"/>
 </g>
</svg>
