<svg version="1.1" xmlns="http://www.w3.org/2000/svg" xmlns:xlink="http://www.w3.org/1999/xlink" width="12.6978" height="19.5996" viewBox="0 0 12.6978 19.5996">
 <g>
  <rect height="19.5996" opacity="0" width="12.6978" x="0" y="0"/>
  <path d="M6.41237 3.39844C7.34987 3.39844 8.10182 2.64648 8.10182 1.68945C8.10182 0.761719 7.34987 0 6.41237 0C5.4651 0 4.70338 0.761719 4.70338 1.68945C4.70338 2.64648 5.4651 3.39844 6.41237 3.39844ZM9.32252 19.3945C9.73268 19.2773 9.94752 18.8086 9.81081 18.3887L8.58034 14.6582C8.54127 14.541 8.50221 14.4922 8.42409 14.3945L6.35377 12.0117L6.78346 7.27539C6.79323 7.11914 6.97877 7.07031 7.06666 7.20703L8.07252 8.75C8.21901 8.97461 8.43385 9.16992 8.65846 9.29688L11.1682 10.6445C11.5491 10.8496 12.0276 10.7031 12.2522 10.3223C12.4475 9.94141 12.3108 9.45312 11.9299 9.24805L9.41041 7.90039L7.73073 5.3125C7.28151 4.60938 6.60768 4.18945 5.68971 4.18945L4.01979 4.18945L3.38502 10.3223C3.29713 11.123 3.44362 11.6406 4.08815 12.2949L7.12526 15.3516L8.3069 18.8867C8.48268 19.3945 8.94166 19.4922 9.32252 19.3945ZM2.42799 10.3223L3.67799 10.3223C4.35182 10.3223 4.88893 9.79492 4.88893 9.13086L4.88893 4.55078C4.88893 3.88672 4.35182 3.35938 3.67799 3.35938L2.83815 3.35938C1.82252 3.35938 1.23659 3.94531 1.23659 4.9707L1.23659 9.13086C1.23659 9.83398 1.72487 10.3223 2.42799 10.3223ZM0.230727 19.1895C0.543227 19.5117 1.03151 19.4922 1.34401 19.1895L4.2444 16.2891C4.30299 16.2305 4.36159 16.1719 4.40065 16.1035L5.19166 14.502L3.80495 13.1055L2.9944 15.3125L0.230727 18.0859C-0.072007 18.3984-0.0817726 18.8867 0.230727 19.1895ZM11.471 6.25C11.2073 6.25 11.0022 6.45508 11.0022 6.71875L11.0022 7.88086L11.9495 8.38867L11.9495 6.71875C11.9495 6.45508 11.7346 6.25 11.471 6.25ZM11.471 19.4141C11.7346 19.4141 11.9495 19.1992 11.9495 18.9355L11.9495 11.4551C11.6467 11.543 11.3147 11.5332 11.0022 11.4258L11.0022 18.9355C11.0022 19.1992 11.2073 19.4141 11.471 19.4141Z" fill="var(--color-primary)"/>
 </g>
</svg>
