<svg version="1.1" xmlns="http://www.w3.org/2000/svg" xmlns:xlink="http://www.w3.org/1999/xlink" viewBox="0 0 16.1328 15.7715">
 <g>
  <rect height="15.7715" opacity="0" width="16.1328" x="0" y="0"/>
  <path d="M15.7715 7.88086C15.7715 12.2266 12.2363 15.7617 7.88086 15.7617C3.53516 15.7617 0 12.2266 0 7.88086C0 3.53516 3.53516 0 7.88086 0C12.2363 0 15.7715 3.53516 15.7715 7.88086ZM6.99219 4.21875L6.99219 7.42188C6.99219 7.48047 7.00195 7.5293 7.01172 7.57812L7.65625 9.39453L6.82617 9.39453C6.30859 9.39453 5.99609 9.24805 5.58594 8.99414C5.46875 8.93555 5.42969 8.83789 5.47852 8.71094L6.50391 6.08398C6.5918 5.84961 6.47461 5.58594 6.25 5.48828C5.99609 5.40039 5.74219 5.51758 5.6543 5.75195L4.24805 9.33594C4.08203 9.76562 4.24805 10.2148 4.61914 10.4785C5.20508 10.8887 5.76172 11.0352 6.64062 11.0352L8.03711 11.0352C9.12109 11.0352 9.41406 10.1953 9.04297 9.48242L7.91016 7.31445L7.91016 4.21875C7.91016 3.95508 7.70508 3.76953 7.44141 3.76953C7.19727 3.76953 6.99219 3.95508 6.99219 4.21875ZM13.1055 8.53516L11.0156 8.92578L9.43359 9.20898L9.46289 9.26758C9.64844 9.63867 9.7168 10 9.6582 10.3418L11.2598 9.79492L13.2812 9.44336C13.5352 9.4043 13.7012 9.16992 13.6426 8.90625C13.6035 8.65234 13.3594 8.48633 13.1055 8.53516ZM2.26562 8.08594C2.26562 8.61328 2.68555 9.04297 3.22266 9.04297C3.75 9.04297 4.17969 8.61328 4.17969 8.08594C4.17969 7.55859 3.75 7.11914 3.22266 7.11914C2.68555 7.11914 2.26562 7.55859 2.26562 8.08594Z" fill="var(--color-primary)"/>
 </g>
</svg>
