<svg version="1.1" xmlns="http://www.w3.org/2000/svg" xmlns:xlink="http://www.w3.org/1999/xlink" viewBox="0 0 16.1328 15.7715">
 <g>
  <rect height="15.7715" opacity="0" width="16.1328" x="0" y="0"/>
  <path d="M7.88086 15.7617C12.2363 15.7617 15.7715 12.2363 15.7715 7.88086C15.7715 3.52539 12.2363 0 7.88086 0C3.53516 0 0 3.52539 0 7.88086C0 12.2363 3.53516 15.7617 7.88086 15.7617ZM7.88086 14.2773C4.3457 14.2773 1.49414 11.416 1.49414 7.88086C1.49414 4.3457 4.3457 1.48438 7.88086 1.48438C11.416 1.48438 14.2773 4.3457 14.2773 7.88086C14.2773 11.416 11.416 14.2773 7.88086 14.2773Z" fill="var(--color-primary)"/>
  <path d="M9.15039 5.37109C9.6582 5.37109 10.0781 4.95117 10.0781 4.44336C10.0781 3.93555 9.6582 3.53516 9.15039 3.53516C8.64258 3.53516 8.22266 3.93555 8.22266 4.44336C8.22266 4.95117 8.64258 5.37109 9.15039 5.37109ZM7.66602 10.5762C7.55859 11.1426 8.4082 11.2793 8.51562 10.7031L8.95508 8.33008C8.99414 8.10547 8.84766 7.87109 8.59375 7.83203L7.16797 7.62695L8.05664 6.74805C8.14453 6.66992 8.26172 6.66016 8.34961 6.74805L10.5176 8.91602C10.6836 9.08203 10.957 9.0918 11.123 8.91602C11.2891 8.74023 11.2891 8.48633 11.123 8.31055L8.1543 5.33203C7.95898 5.12695 7.68555 5.01953 7.39258 5.01953L5.50781 5.01953C5.39062 5.01953 5.27344 5.06836 5.19531 5.14648L3.90625 6.44531C3.74023 6.61133 3.74023 6.88477 3.90625 7.05078C4.07227 7.2168 4.3457 7.2168 4.51172 7.05078L5.68359 5.87891L6.44531 5.87891C6.52344 5.87891 6.55273 5.95703 6.50391 6.00586L5.33203 7.16797C4.76562 7.72461 5.06836 8.69141 5.9668 8.69141L8.00781 8.69141ZM5.21484 8.86719L5.10742 10.2051L3.7207 10.2051C3.47656 10.2051 3.28125 10.4004 3.28125 10.625C3.28125 10.8691 3.47656 11.0645 3.7207 11.0645L5.50781 11.0645C5.72266 11.0645 5.88867 10.8984 5.92773 10.6836L6.23047 9.07227L5.9668 9.07227C5.66406 9.07227 5.41016 8.98438 5.21484 8.86719ZM10.9766 11.0645L12.2754 11.0645C12.5684 11.0645 12.8125 10.8203 12.8125 10.5273C12.8125 10.2246 12.5684 9.98047 12.2754 9.98047L10.9766 9.98047C10.6836 9.98047 10.4492 10.2246 10.4492 10.5273C10.4492 10.8203 10.6836 11.0645 10.9766 11.0645ZM11.8555 10.293L12.2754 10.293L12.2754 9.87305C12.2754 9.51172 11.9824 9.22852 11.6406 9.22852L11.1914 9.22852C11.084 9.22852 10.9863 9.32617 10.9863 9.44336C10.9863 9.56055 11.084 9.6582 11.1914 9.6582L11.6406 9.6582C11.7578 9.6582 11.8555 9.74609 11.8555 9.87305Z" fill="var(--color-primary)"/>
 </g>
</svg>
