<svg version="1.1" xmlns="http://www.w3.org/2000/svg" xmlns:xlink="http://www.w3.org/1999/xlink" width="13.9746" height="18.9355" viewBox="0 0 13.9746 18.9355">
 <g>
  <rect height="18.9355" opacity="0" width="13.9746" x="0" y="0"/>
  <path d="M3.30078 5.88867C4.23828 5.88867 4.99023 5.13672 4.99023 4.18945C4.99023 3.25195 4.23828 2.5 3.30078 2.5C2.35352 2.5 1.5918 3.25195 1.5918 4.18945C1.5918 5.13672 2.35352 5.88867 3.30078 5.88867ZM7.50977 14.0234L9.92188 10.7031L11.4453 13.4961C11.9629 15.8887 12.0117 17.7148 12.0117 17.9883C12.0117 18.4668 12.373 18.8281 12.8125 18.8281C13.2617 18.8281 13.6133 18.4668 13.6133 18.0078C13.6133 17.9297 13.5938 15.8496 12.998 13.0469L12.9688 12.9102C12.2852 9.70703 10.2637 3.75 4.98047 0.244141C4.7168 0.078125 4.49219 0 4.21875 0L0.800781 0C0.361328 0 0 0.361328 0 0.800781C0 1.25 0.361328 1.61133 0.800781 1.61133L4.16016 1.61133C4.98047 2.1875 5.71289 2.8125 6.37695 3.47656C6.46484 3.56445 6.47461 3.70117 6.41602 3.80859L3.7207 8.4082C3.38867 8.97461 3.78906 9.60938 4.41406 9.60938L8.08594 9.60938L6.15234 13.1543L6.07422 13.3008L3.70117 17.6465C3.48633 18.0273 3.62305 18.5254 4.01367 18.7305C4.38477 18.9258 4.87305 18.8379 5.10742 18.4082ZM5.80078 8.01758L6.39648 6.99219C6.48438 6.81641 6.66992 6.85547 6.74805 6.97266L7.45117 8.01758Z" fill="var(--color-primary)"/>
 </g>
</svg>
