<svg version="1.1" xmlns="http://www.w3.org/2000/svg" xmlns:xlink="http://www.w3.org/1999/xlink" width="18.4766" height="14.248" viewBox="0 0 18.4766 14.248">
 <g>
  <rect height="14.248" opacity="0" width="18.4766" x="0" y="0"/>
  <path d="M1.68945 14.248L16.4258 14.248C17.4512 14.248 18.1152 13.584 18.1152 12.5879L18.1152 1.66992C18.1152 0.673828 17.4512 0.00976562 16.4258 0.00976562L1.68945 0.00976562C0.673828 0.00976562 0 0.673828 0 1.66992L0 12.5879C0 13.584 0.673828 14.248 1.68945 14.248ZM1.69922 12.8418C1.46484 12.8418 1.31836 12.6758 1.31836 12.4707L1.31836 11.709C1.31836 11.4844 1.46484 11.3379 1.68945 11.3379L2.54883 11.3379C2.76367 11.3379 2.91016 11.4844 2.91016 11.709L2.91016 12.4707C2.91016 12.6855 2.76367 12.8418 2.54883 12.8418ZM1.68945 10.332C1.46484 10.332 1.31836 10.166 1.31836 9.9707L1.31836 9.20898C1.31836 8.98438 1.46484 8.83789 1.68945 8.83789L2.54883 8.83789C2.76367 8.83789 2.91016 8.98438 2.91016 9.20898L2.91016 9.9707C2.91016 10.166 2.76367 10.332 2.54883 10.332ZM1.68945 7.87109C1.46484 7.87109 1.31836 7.71484 1.31836 7.51953L1.31836 6.75781C1.31836 6.5332 1.46484 6.38672 1.68945 6.38672L2.54883 6.38672C2.76367 6.38672 2.91016 6.5332 2.91016 6.75781L2.91016 7.51953C2.91016 7.71484 2.76367 7.87109 2.54883 7.87109ZM1.68945 5.43945C1.46484 5.43945 1.31836 5.27344 1.31836 5.08789L1.31836 4.31641C1.31836 4.10156 1.46484 3.94531 1.68945 3.94531L2.54883 3.94531C2.76367 3.94531 2.91016 4.10156 2.91016 4.31641L2.91016 5.08789C2.91016 5.27344 2.76367 5.43945 2.54883 5.43945ZM1.68945 2.91992C1.46484 2.91992 1.31836 2.76367 1.31836 2.56836L1.31836 1.79688C1.31836 1.58203 1.46484 1.42578 1.69922 1.42578L2.54883 1.42578C2.76367 1.42578 2.91016 1.58203 2.91016 1.79688L2.91016 2.56836C2.91016 2.76367 2.76367 2.91992 2.54883 2.91992ZM15.5664 12.8418C15.3516 12.8418 15.2051 12.6855 15.2051 12.4707L15.2051 11.709C15.2051 11.4844 15.3516 11.3379 15.5664 11.3379L16.4355 11.3379C16.6602 11.3379 16.8066 11.4844 16.8066 11.709L16.8066 12.4707C16.8066 12.6758 16.6504 12.8418 16.4258 12.8418ZM15.5664 10.332C15.3516 10.332 15.2051 10.166 15.2051 9.9707L15.2051 9.20898C15.2051 8.98438 15.3516 8.83789 15.5664 8.83789L16.4355 8.83789C16.6602 8.83789 16.8066 8.98438 16.8066 9.20898L16.8066 9.9707C16.8066 10.166 16.6602 10.332 16.4355 10.332ZM15.5664 7.87109C15.3516 7.87109 15.2051 7.71484 15.2051 7.51953L15.2051 6.75781C15.2051 6.5332 15.3516 6.38672 15.5664 6.38672L16.4355 6.38672C16.6602 6.38672 16.8066 6.5332 16.8066 6.75781L16.8066 7.51953C16.8066 7.71484 16.6602 7.87109 16.4355 7.87109ZM15.5664 5.43945C15.3516 5.43945 15.2051 5.27344 15.2051 5.08789L15.2051 4.31641C15.2051 4.10156 15.3516 3.94531 15.5664 3.94531L16.4355 3.94531C16.6602 3.94531 16.8066 4.10156 16.8066 4.31641L16.8066 5.08789C16.8066 5.27344 16.6602 5.43945 16.4355 5.43945ZM3.85742 7.12891C3.85742 6.76758 4.15039 6.47461 4.51172 6.47461L13.6035 6.47461C13.9746 6.47461 14.2578 6.76758 14.2578 7.12891C14.2578 7.5 13.9746 7.7832 13.6035 7.7832L4.51172 7.7832C4.15039 7.7832 3.85742 7.5 3.85742 7.12891ZM15.5664 2.91992C15.3516 2.91992 15.2051 2.76367 15.2051 2.56836L15.2051 1.79688C15.2051 1.58203 15.3516 1.42578 15.5664 1.42578L16.4258 1.42578C16.6504 1.42578 16.8066 1.58203 16.8066 1.79688L16.8066 2.56836C16.8066 2.76367 16.6602 2.91992 16.4355 2.91992Z" fill="var(--color-primary)"/>
 </g>
</svg>
