<svg version="1.1" xmlns="http://www.w3.org/2000/svg" xmlns:xlink="http://www.w3.org/1999/xlink" viewBox="0 0 20.8887 19.3848">
 <g>
  <rect height="19.3848" opacity="0" width="20.8887" x="0" y="0"/>
  <path d="M16.8359 6.9043C16.9922 6.9043 17.0996 6.78711 17.1289 6.65039C17.4902 4.81445 17.4707 4.94141 19.1797 4.60938C19.3262 4.58008 19.4336 4.48242 19.4336 4.30664C19.4336 4.14062 19.3164 4.0332 19.1797 4.00391C17.4609 3.65234 17.4902 3.76953 17.1289 1.96289C17.0996 1.81641 16.9922 1.69922 16.8359 1.69922C16.6602 1.69922 16.5625 1.80664 16.5332 1.96289C16.1621 3.78906 16.0938 3.68164 14.4922 4.00391C14.3457 4.0332 14.2383 4.14062 14.2383 4.30664C14.2383 4.48242 14.3359 4.58008 14.4922 4.60938C16.0938 4.92188 16.1621 4.81445 16.5332 6.65039C16.5625 6.79688 16.6602 6.9043 16.8359 6.9043ZM8.75977 19.3848C8.90625 19.3848 8.98438 19.2871 9.00391 19.1602C9.29688 17.7832 9.29688 17.7832 10.6738 17.5C10.791 17.4805 10.8887 17.4023 10.8887 17.2559C10.8887 17.1094 10.791 17.0312 10.6738 17.0117C9.29688 16.7285 9.29688 16.7285 9.00391 15.3516C8.98438 15.2246 8.90625 15.127 8.75977 15.127C8.62305 15.127 8.53516 15.2246 8.51562 15.3516C8.23242 16.7285 8.23242 16.7285 6.85547 17.0117C6.72852 17.0312 6.63086 17.1094 6.63086 17.2559C6.63086 17.4023 6.72852 17.4805 6.85547 17.5C8.23242 17.7832 8.23242 17.7832 8.51562 19.1602C8.53516 19.2871 8.62305 19.3848 8.75977 19.3848ZM4.7168 16.8555C4.84375 16.8555 4.91211 16.7773 4.93164 16.6699C5.15625 15.5371 5.15625 15.5371 6.2793 15.3125C6.38672 15.293 6.46484 15.2246 6.46484 15.1074C6.46484 14.9805 6.38672 14.9121 6.2793 14.8926C5.15625 14.668 5.15625 14.668 4.93164 13.5352C4.91211 13.4375 4.84375 13.3594 4.7168 13.3594C4.59961 13.3594 4.53125 13.4375 4.51172 13.5352C4.28711 14.668 4.28711 14.668 3.1543 14.8926C3.04688 14.9121 2.96875 14.9805 2.96875 15.1074C2.96875 15.2246 3.04688 15.293 3.1543 15.3125C4.28711 15.5371 4.28711 15.5371 4.51172 16.6699C4.53125 16.7773 4.59961 16.8555 4.7168 16.8555Z" fill="var(--color-primary)"/>
  <path d="M16.0645 16.2305C16.3379 16.2305 16.5527 16.0059 16.5527 15.7324L16.5527 14.668L17.0996 15.1953C17.2949 15.4004 17.5977 15.4102 17.7832 15.1953C17.998 15.0098 17.998 14.707 17.7832 14.502L17.2559 13.9648L18.3203 13.9648C18.5938 13.9648 18.8184 13.75 18.8184 13.4766C18.8184 13.2031 18.5938 12.9883 18.3203 12.9883L17.2559 12.9883L17.793 12.4414C17.998 12.2461 17.998 11.9434 17.793 11.748C17.5977 11.543 17.2949 11.543 17.0996 11.748L16.5527 12.2852L16.5527 11.2207C16.5527 10.9473 16.3379 10.7227 16.0645 10.7227C15.791 10.7227 15.5762 10.9473 15.5762 11.2207L15.5762 12.2852L15.0391 11.748C14.8438 11.543 14.5312 11.543 14.3359 11.748C14.1309 11.9434 14.1309 12.2461 14.3359 12.4414L14.873 12.9883L13.8086 12.9883C13.5352 12.9883 13.3105 13.2031 13.3105 13.4766C13.3105 13.75 13.5352 13.9648 13.8086 13.9648L14.873 13.9648L14.3359 14.502C14.1309 14.707 14.1309 15.0098 14.3359 15.1953C14.5312 15.4102 14.834 15.4102 15.0391 15.1953L15.5762 14.668L15.5762 15.7324C15.5762 16.0059 15.791 16.2305 16.0645 16.2305ZM16.0645 10.2734C16.4062 10.2734 16.6895 9.99023 16.6895 9.63867C16.6895 9.29688 16.4062 9.01367 16.0645 9.01367C15.7227 9.01367 15.4395 9.29688 15.4395 9.63867C15.4395 9.99023 15.7227 10.2734 16.0645 10.2734ZM18.6523 11.4453C18.9648 11.4453 19.2285 11.2012 19.2285 10.8691C19.2285 10.5566 18.9648 10.3125 18.6523 10.3125C18.3301 10.3125 18.0859 10.5566 18.0859 10.8691C18.0859 11.2012 18.3301 11.4453 18.6523 11.4453ZM19.9023 14.1016C20.2441 14.1016 20.5273 13.8184 20.5273 13.4766C20.5273 13.1348 20.2441 12.8516 19.9023 12.8516C19.5508 12.8516 19.2773 13.1348 19.2773 13.4766C19.2773 13.8184 19.5508 14.1016 19.9023 14.1016ZM18.6523 16.6504C18.9648 16.6504 19.2285 16.3867 19.2285 16.084C19.2285 15.752 18.9648 15.5078 18.6523 15.5078C18.3301 15.5078 18.0859 15.752 18.0859 16.084C18.0859 16.3867 18.3301 16.6504 18.6523 16.6504ZM16.0645 17.9395C16.4062 17.9395 16.6895 17.6562 16.6895 17.3145C16.6895 16.9629 16.4062 16.6895 16.0645 16.6895C15.7227 16.6895 15.4395 16.9629 15.4395 17.3145C15.4395 17.6562 15.7227 17.9395 16.0645 17.9395ZM13.4766 16.6406C13.7988 16.6406 14.043 16.3867 14.043 16.084C14.043 15.752 13.7988 15.5078 13.4766 15.5078C13.1641 15.5078 12.9004 15.752 12.9004 16.084C12.9004 16.3867 13.1641 16.6406 13.4766 16.6406ZM12.2266 14.1016C12.5781 14.1016 12.8516 13.8184 12.8418 13.4766C12.8516 13.1348 12.5781 12.8516 12.2266 12.8516C11.8848 12.8516 11.6016 13.1348 11.6016 13.4766C11.6016 13.8184 11.8848 14.1016 12.2266 14.1016ZM13.4766 11.4453C13.7988 11.4453 14.043 11.2012 14.043 10.8691C14.043 10.5566 13.7988 10.3125 13.4766 10.3125C13.1641 10.3125 12.9004 10.5566 12.9004 10.8691C12.9004 11.2012 13.1641 11.4453 13.4766 11.4453Z" fill="var(--color-primary)"/>
  <path d="M6.20117 8.63281C6.47461 8.63281 6.70898 8.41797 6.70898 8.125L6.69922 7.37305L7.23633 7.91016C7.44141 8.10547 7.76367 8.10547 7.96875 7.91016C8.1543 7.71484 8.16406 7.38281 7.96875 7.1875L7.42188 6.65039L8.18359 6.65039C8.4668 6.65039 8.69141 6.42578 8.69141 6.14258C8.69141 5.85938 8.4668 5.63477 8.18359 5.63477L7.42188 5.63477L7.95898 5.10742C8.16406 4.89258 8.1543 4.58008 7.95898 4.375C7.76367 4.18945 7.44141 4.16992 7.22656 4.375L6.70898 4.91211L6.69922 4.16016C6.69922 3.86719 6.48438 3.65234 6.19141 3.65234C5.91797 3.65234 5.68359 3.86719 5.68359 4.16016L5.69336 4.91211L5.14648 4.375C4.95117 4.17969 4.62891 4.17969 4.42383 4.375C4.22852 4.57031 4.22852 4.90234 4.42383 5.10742L4.96094 5.63477L4.20898 5.63477C3.92578 5.63477 3.70117 5.85938 3.70117 6.14258C3.70117 6.42578 3.92578 6.65039 4.20898 6.65039L4.96094 6.65039L4.43359 7.1875C4.22852 7.39258 4.22852 7.70508 4.43359 7.91016C4.62891 8.10547 4.95117 8.11523 5.15625 7.91016L5.68359 7.37305L5.69336 8.125C5.69336 8.41797 5.9082 8.63281 6.20117 8.63281ZM6.20117 2.83203C6.51367 2.83203 6.76758 2.57812 6.76758 2.26562L6.76758 0.566406C6.76758 0.253906 6.51367 0 6.20117 0C5.88867 0 5.63477 0.253906 5.63477 0.566406L5.63477 2.26562C5.63477 2.57812 5.88867 2.83203 6.20117 2.83203ZM7.88086 3.28125C8.1543 3.44727 8.49609 3.34961 8.65234 3.07617L9.50195 1.61133C9.66797 1.33789 9.56055 0.986328 9.29688 0.839844C9.02344 0.673828 8.69141 0.771484 8.52539 1.04492L7.67578 2.50977C7.50977 2.7832 7.61719 3.13477 7.88086 3.28125ZM9.11133 4.51172C9.26758 4.78516 9.61914 4.87305 9.88281 4.7168L11.3574 3.87695C11.6211 3.7207 11.7188 3.36914 11.5625 3.10547C11.4062 2.83203 11.0547 2.74414 10.791 2.89062L9.31641 3.74023C9.05273 3.88672 8.95508 4.24805 9.11133 4.51172ZM9.56055 6.19141C9.56055 6.51367 9.82422 6.75781 10.127 6.75781L11.8262 6.76758C12.1387 6.76758 12.4023 6.50391 12.4023 6.20117C12.4023 5.87891 12.1387 5.63477 11.8359 5.63477L10.127 5.625C9.82422 5.625 9.56055 5.88867 9.56055 6.19141ZM9.11133 7.87109C8.95508 8.1543 9.0625 8.49609 9.31641 8.64258L10.7812 9.50195C11.0547 9.6582 11.4062 9.56055 11.5625 9.30664C11.7188 9.02344 11.6113 8.68164 11.3574 8.52539L9.88281 7.66602C9.62891 7.51953 9.25781 7.60742 9.11133 7.87109ZM7.88086 9.10156C7.60742 9.27734 7.51953 9.61914 7.67578 9.87305L8.51562 11.3477C8.67188 11.6211 9.0332 11.7188 9.29688 11.5723C9.57031 11.4062 9.64844 11.0645 9.50195 10.8008L8.65234 9.30664C8.50586 9.05273 8.14453 8.95508 7.88086 9.10156ZM6.20117 9.56055C5.88867 9.56055 5.63477 9.81445 5.63477 10.127L5.63477 11.8262C5.63477 12.1387 5.88867 12.3926 6.20117 12.3926C6.51367 12.3926 6.76758 12.1387 6.76758 11.8262L6.76758 10.127C6.76758 9.81445 6.51367 9.56055 6.20117 9.56055ZM4.52148 9.11133C4.24805 8.95508 3.90625 9.04297 3.75 9.31641L2.89062 10.791C2.73438 11.0645 2.83203 11.4062 3.0957 11.5625C3.36914 11.7188 3.71094 11.6211 3.87695 11.3477L4.72656 9.88281C4.88281 9.60938 4.78516 9.26758 4.52148 9.11133ZM3.29102 7.88086C3.125 7.60742 2.7832 7.51953 2.51953 7.67578L1.04492 8.51562C0.771484 8.67188 0.683594 9.0332 0.830078 9.29688C0.996094 9.57031 1.33789 9.64844 1.60156 9.50195L3.08594 8.65234C3.34961 8.50586 3.4375 8.14453 3.29102 7.88086ZM2.8418 6.20117C2.8418 5.87891 2.57812 5.63477 2.27539 5.63477L0.576172 5.625C0.263672 5.625 0 5.88867 0 6.19141C0 6.51367 0.263672 6.75781 0.566406 6.75781L2.27539 6.76758C2.57812 6.76758 2.8418 6.50391 2.8418 6.20117ZM3.29102 4.52148C3.4375 4.23828 3.33984 3.89648 3.08594 3.75L1.61133 2.89062C1.33789 2.73438 0.996094 2.8418 0.830078 3.0957C0.683594 3.37891 0.78125 3.71094 1.04492 3.86719L2.51953 4.72656C2.77344 4.88281 3.13477 4.78516 3.29102 4.52148ZM4.52148 3.29102C4.79492 3.125 4.87305 2.77344 4.72656 2.51953L3.87695 1.04492C3.73047 0.78125 3.35938 0.673828 3.0957 0.830078C2.82227 0.986328 2.75391 1.33789 2.90039 1.60156L3.75 3.08594C3.89648 3.33984 4.25781 3.44727 4.52148 3.29102Z" fill="var(--color-primary)"/>
 </g>
</svg>
