<svg version="1.1" xmlns="http://www.w3.org/2000/svg" xmlns:xlink="http://www.w3.org/1999/xlink" viewBox="0 0 22.455 17.705">
 <g>
  <rect height="17.705" opacity="0" width="22.455" x="0" y="0"/>
  <path d="M9.11323 4.73628L10.373 4.51167C10.2558 3.69136 10.08 3.0273 9.52338 2.16792C9.43549 2.04097 9.45502 1.92378 9.56244 1.89449C11.9843 1.16206 15.0605 2.36324 15.6562 4.85347L16.9453 4.64839C16.1542 1.04488 11.4472-0.673874 8.19526 1.123C7.77533 1.34761 7.67768 1.79683 8.01948 2.25581C8.81049 3.29097 8.96674 3.80855 9.11323 4.73628ZM12.8437 14.8437C16.4179 14.8437 22.0917 12.4609 22.0917 9.20894C22.0917 5.96675 16.4179 3.58394 12.8437 3.58394C10.3535 3.58394 7.7558 4.46284 5.65619 6.45503C4.29877 4.94136 2.68744 4.09175 0.831975 4.06245C0.412054 4.05269 0.060491 4.33589 0.0214285 4.76558C-0.134821 6.36714 0.578069 8.12495 1.68158 9.20894C0.578069 10.2929-0.134821 12.0507 0.0214285 13.6621C0.060491 14.082 0.412054 14.375 0.831975 14.3652C2.68744 14.3359 4.29877 13.4765 5.65619 11.9628C7.7558 13.9648 10.3535 14.8437 12.8437 14.8437ZM12.8437 13.4277C10.3925 13.4277 8.02924 12.5585 6.10541 10.3906C5.81244 10.0683 5.41205 10.0781 5.11908 10.4296C4.02533 11.7773 2.97065 12.5976 1.69135 12.8613C1.54487 12.8906 1.41791 12.7636 1.44721 12.6074C1.62299 11.4648 2.31635 10.4296 3.13666 9.75581C3.59565 9.36519 3.60541 9.06245 3.13666 8.67183C2.31635 7.98824 1.62299 6.96284 1.44721 5.82027C1.41791 5.66402 1.54487 5.5273 1.69135 5.55659C2.97065 5.82027 4.02533 6.65034 5.11908 7.98824C5.40229 8.34956 5.81244 8.35933 6.10541 8.0273C8.02924 5.86909 10.3925 4.99019 12.8437 4.99019C16.1054 4.99019 20.7148 7.15816 20.7148 9.20894C20.7148 11.2597 16.1054 13.4277 12.8437 13.4277ZM17.6972 9.70699C18.166 9.70699 18.5566 9.31636 18.5566 8.84761C18.5566 8.37886 18.166 7.98824 17.6972 7.98824C17.2285 7.98824 16.8378 8.37886 16.8378 8.84761C16.8378 9.31636 17.2285 9.70699 17.6972 9.70699ZM10.3437 13.8867L10.0117 16.582C9.92377 17.3046 10.3925 17.8125 11.2421 17.6855C13.2343 17.373 15.5585 15.83 16.7011 14.082L14.914 14.2968C13.957 15.0781 12.9999 15.83 11.789 16.1914C11.6132 16.2402 11.4765 16.2109 11.5058 15.957L11.6816 14.0722Z" fill="var(--color-primary)"/>
 </g>
</svg>
