<svg version="1.1" xmlns="http://www.w3.org/2000/svg" xmlns:xlink="http://www.w3.org/1999/xlink" width="16.1328" height="15.7715" viewBox="0 0 16.1328 15.7715">
 <g>
  <rect height="15.7715" opacity="0" width="16.1328" x="0" y="0"/>
  <path d="M7.88086 15.7715C12.1875 15.7715 15.7715 12.1973 15.7715 7.89062C15.7715 3.58398 12.1777 0.00976562 7.87109 0.00976562C3.57422 0.00976562 0 3.58398 0 7.89062C0 12.1973 3.58398 15.7715 7.88086 15.7715Z" fill="var(--color-tertiary)"/>
  <path d="M4.88281 12.1777C4.67773 12.1777 4.48242 11.9824 4.48242 11.7676L4.48242 5.14648C4.48242 4.77539 4.64844 4.51172 4.99023 4.35547C5.2832 4.21875 5.51758 4.15039 6.14258 4.15039C7.55859 4.15039 8.47656 4.85352 9.79492 4.85352C10.4395 4.85352 10.7812 4.6875 11.0156 4.6875C11.3672 4.6875 11.5039 4.86328 11.5039 5.11719L11.5039 9.01367C11.5039 9.4043 11.3379 9.6582 10.9961 9.82422C10.7031 9.95117 10.459 10.0195 9.83398 10.0195C8.48633 10.0195 7.58789 9.32617 6.18164 9.32617C5.72266 9.32617 5.41016 9.42383 5.27344 9.48242L5.27344 11.7676C5.27344 11.9922 5.11719 12.1777 4.88281 12.1777Z" fill="var(--color-primary)"/>
 </g>
</svg>
