<svg version="1.1" xmlns="http://www.w3.org/2000/svg" xmlns:xlink="http://www.w3.org/1999/xlink" viewBox="0 0 16.1328 15.7715">
 <g>
  <rect height="15.7715" opacity="0" width="16.1328" x="0" y="0"/>
  <path d="M15.7715 7.88086C15.7715 12.2363 12.2363 15.7617 7.88086 15.7617C3.53516 15.7617 0 12.2363 0 7.88086C0 3.52539 3.53516 0 7.88086 0C12.2363 0 15.7715 3.52539 15.7715 7.88086ZM1.49414 7.88086C1.49414 11.416 4.3457 14.2773 7.88086 14.2773C11.416 14.2773 14.2773 11.416 14.2773 7.88086C14.2773 4.3457 11.416 1.48438 7.88086 1.48438C4.3457 1.48438 1.49414 4.3457 1.49414 7.88086Z" fill="var(--color-primary)"/>
  <path d="M8.38637 9.71773C7.7128 9.52515 7.06944 9.27734 6.24023 9.27734C5.79102 9.27734 5.49805 9.36523 5.37109 9.42383L5.37109 11.6309C5.37109 11.8457 5.20508 12.0117 4.99023 12.0117C4.78516 12.0117 4.59961 11.8359 4.59961 11.6309L4.59961 5.93636ZM9.72656 4.96094C10.3418 4.96094 10.6641 4.80469 10.8984 4.80469C11.2402 4.80469 11.3672 4.98047 11.3672 5.21484L11.3672 8.97461C11.3672 9.29788 11.2546 9.51562 11.017 9.66937L5.66251 4.31486C5.80453 4.29651 5.97667 4.28711 6.20117 4.28711C7.56836 4.28711 8.44727 4.96094 9.72656 4.96094Z" fill="var(--color-primary)"/>
  <path d="M11.0645 11.5723C11.2012 11.7188 11.4551 11.7188 11.5918 11.5723C11.748 11.416 11.748 11.1914 11.5918 11.0352L4.74609 4.18945C4.58984 4.0332 4.35547 4.0332 4.19922 4.18945C4.0625 4.33594 4.0625 4.58008 4.19922 4.72656Z" fill="var(--color-primary)"/>
 </g>
</svg>
