<svg version="1.1" xmlns="http://www.w3.org/2000/svg" xmlns:xlink="http://www.w3.org/1999/xlink" viewBox="0 0 16.1328 15.7715">
 <g>
  <rect height="15.7715" opacity="0" width="16.1328" x="0" y="0"/>
  <path d="M7.88086 15.7617C12.2363 15.7617 15.7715 12.2363 15.7715 7.88086C15.7715 3.52539 12.2363 0 7.88086 0C3.53516 0 0 3.52539 0 7.88086C0 12.2363 3.53516 15.7617 7.88086 15.7617ZM7.88086 14.2773C4.3457 14.2773 1.49414 11.416 1.49414 7.88086C1.49414 4.3457 4.3457 1.48438 7.88086 1.48438C11.416 1.48438 14.2773 4.3457 14.2773 7.88086C14.2773 11.416 11.416 14.2773 7.88086 14.2773Z" fill="var(--color-primary)"/>
  <path d="M6.02539 11.3574C7.25586 11.3574 7.86133 10.7324 8.05664 9.52148L8.30078 8.07617L9.91211 8.07617C10.1172 8.07617 10.2734 7.93945 10.2734 7.74414C10.2734 7.53906 10.1172 7.40234 9.91211 7.40234L8.39844 7.40234L8.59375 6.2793C8.71094 5.57617 9.08203 5.24414 9.78516 5.24414C10.0586 5.24414 10.2441 5.29297 10.4199 5.29297C10.6738 5.29297 10.8105 5.17578 10.8105 4.95117C10.8105 4.73633 10.6348 4.59961 10.4492 4.52148C10.2539 4.43359 9.93164 4.4043 9.69727 4.4043C8.50586 4.4043 7.82227 5.01953 7.62695 6.20117L7.43164 7.40234L5.91797 7.40234C5.71289 7.40234 5.55664 7.53906 5.55664 7.74414C5.55664 7.93945 5.71289 8.07617 5.91797 8.07617L7.32422 8.07617L7.09961 9.4043C6.98242 10.1465 6.66992 10.5078 5.92773 10.5078C5.625 10.5078 5.53711 10.4785 5.24414 10.4785C5.03906 10.4785 4.90234 10.6152 4.90234 10.8105C4.90234 11.0352 5.03906 11.1621 5.24414 11.25C5.46875 11.3477 5.78125 11.3574 6.02539 11.3574Z" fill="var(--color-primary)"/>
 </g>
</svg>
