<svg version="1.1" xmlns="http://www.w3.org/2000/svg" xmlns:xlink="http://www.w3.org/1999/xlink" viewBox="0 0 17.4219 11.8652">
 <g>
  <rect height="11.8652" opacity="0" width="17.4219" x="0" y="0"/>
  <path d="M3.67188 11.8555C4.10156 11.8555 4.42383 11.5332 4.42383 11.123L4.42383 0.732422C4.42383 0.322266 4.10156 0 3.67188 0C3.25195 0 2.92969 0.322266 2.92969 0.732422L2.92969 11.123C2.92969 11.5332 3.25195 11.8555 3.67188 11.8555ZM6.78711 10.7129C6.78711 11.4844 7.22656 11.8555 7.76367 11.8555C7.99805 11.8555 8.24219 11.7871 8.49609 11.6504L16.5234 7.00195C17.1777 6.62109 17.4219 6.34766 17.4219 5.92773C17.4219 5.50781 17.1777 5.23438 16.5234 4.85352L8.49609 0.205078C8.24219 0.0683594 7.99805 0 7.76367 0C7.22656 0 6.78711 0.371094 6.78711 1.14258ZM8.19336 9.9707L8.19336 1.88477C8.19336 1.80664 8.24219 1.74805 8.31055 1.74805C8.34961 1.74805 8.36914 1.75781 8.38867 1.76758L15.332 5.82031C15.3809 5.84961 15.4004 5.88867 15.4004 5.92773C15.4004 5.9668 15.3809 6.00586 15.332 6.03516L8.38867 10.0879C8.36914 10.0977 8.34961 10.1074 8.31055 10.1074C8.24219 10.1074 8.19336 10.0488 8.19336 9.9707Z" fill="var(--color-primary)"/>
 </g>
</svg>
