<svg version="1.1" xmlns="http://www.w3.org/2000/svg" xmlns:xlink="http://www.w3.org/1999/xlink" width="10.4688" height="14.4238" viewBox="0 0 10.4688 14.4238">
 <g>
  <rect height="14.4238" opacity="0" width="10.4688" x="0" y="0"/>
  <path d="M2.85156 14.4238C3.34961 14.4238 3.69141 14.0625 3.69141 13.5645L3.69141 7.93945L8.7793 7.93945C9.22852 7.93945 9.56055 7.65625 9.56055 7.19727C9.56055 6.72852 9.22852 6.44531 8.7793 6.44531L3.69141 6.44531L3.69141 1.92383L9.32617 1.92383C9.78516 1.92383 10.1074 1.62109 10.1074 1.16211C10.1074 0.703125 9.78516 0.400391 9.32617 0.400391L2.85156 0.400391C2.33398 0.400391 2.01172 0.742188 2.01172 1.26953L2.01172 13.5645C2.01172 14.0625 2.35352 14.4238 2.85156 14.4238ZM0 11.3086C0 11.6211 0.253906 11.875 0.566406 11.875L6.8457 11.875C7.14844 11.875 7.40234 11.6211 7.40234 11.3086C7.40234 10.9961 7.14844 10.7422 6.8457 10.7422L0.566406 10.7422C0.253906 10.7422 0 10.9961 0 11.3086Z" fill="var(--color-primary)"/>
 </g>
</svg>
