<svg version="1.1" xmlns="http://www.w3.org/2000/svg" xmlns:xlink="http://www.w3.org/1999/xlink" width="22.4708" height="17.2363" viewBox="0 0 22.4708 17.2363">
 <g>
  <rect height="17.2363" opacity="0" width="22.4708" x="0" y="0"/>
  <path d="M17.8321 16.6016L17.8321 1.95312C17.8321 0.683594 17.1485 0 15.8887 0L8.76959 0C7.50982 0 6.83599 0.693359 6.83599 1.95312L6.83599 16.6016L8.24224 16.6016L8.24224 1.97266C8.24224 1.60156 8.41803 1.40625 8.78912 1.40625L15.8692 1.40625C16.2305 1.40625 16.4161 1.5918 16.4161 1.97266L16.4161 16.6016ZM5.54693 16.5234C5.54693 16.9141 5.85943 17.2363 6.24029 17.2363L18.418 17.2363C18.7989 17.2363 19.1212 16.9141 19.1212 16.5234C19.1212 16.1523 18.7989 15.8301 18.418 15.8301L6.24029 15.8301C5.8692 15.8301 5.54693 16.1426 5.54693 16.5234ZM10.0001 8.56445L14.6583 8.56445C15.1954 8.56445 15.5665 8.24219 15.5665 7.76367L15.5665 3.23242C15.5665 2.74414 15.1856 2.42188 14.6583 2.42188L10.0001 2.42188C9.47271 2.42188 9.10162 2.74414 9.10162 3.23242L9.10162 7.76367C9.10162 8.24219 9.47271 8.56445 10.0001 8.56445ZM17.168 10.1953L17.9102 10.1953C18.2325 10.1953 18.418 10.3613 18.418 10.7031L18.418 13.1934C18.418 14.3457 19.1114 15.0391 20.2735 15.0391C21.4258 15.0391 22.1094 14.3457 22.1094 13.1934L22.1094 3.74023C22.1094 3.21289 21.9727 2.82227 21.7383 2.44141L20.6837 0.742188C20.254 0.0390625 19.2188 0.673828 19.6485 1.37695L20.5274 2.80273C20.6251 2.95898 20.6153 3.13477 20.5079 3.29102L19.4922 4.70703C19.1309 5.20508 19.1895 5.67383 19.5606 6.12305L20.8887 7.65625L20.8887 13.1934C20.8887 13.584 20.6641 13.8184 20.2735 13.8184C19.8731 13.8184 19.6485 13.584 19.6485 13.1934L19.6485 10.7031C19.6485 9.58984 18.9942 8.97461 17.9102 8.97461L17.168 8.97461Z" fill="var(--color-secondary)"/>
  <path d="M0.234432 8.23242C-0.0683022 8.39844-0.0878334 8.82812 0.234432 9.01367L4.14068 11.2988C4.49224 11.5039 4.88287 11.3477 4.88287 10.9961L4.88287 6.23047C4.88287 5.88867 4.46295 5.74219 4.14068 5.92773Z" fill="var(--color-primary)"/>
 </g>
</svg>
