<svg version="1.1" xmlns="http://www.w3.org/2000/svg" xmlns:xlink="http://www.w3.org/1999/xlink" viewBox="0 0 16.1328 15.7715">
 <g>
  <rect height="15.7715" opacity="0" width="16.1328" x="0" y="0"/>
  <path d="M15.7715 7.89062C15.7715 12.2363 12.2363 15.7715 7.88086 15.7715C3.53516 15.7715 0 12.2363 0 7.89062C0 3.54492 3.53516 0.00976562 7.88086 0.00976562C12.2363 0.00976562 15.7715 3.54492 15.7715 7.89062ZM8.37891 2.99805L8.1543 3.4375C8.07617 3.42773 7.97852 3.42773 7.88086 3.42773C7.79297 3.42773 7.70508 3.42773 7.61719 3.4375L7.39258 2.99805C7.30469 2.8418 7.1582 2.77344 6.99219 2.80273C6.82617 2.83203 6.68945 2.94922 6.66992 3.11523L6.62109 3.61328C6.44531 3.66211 6.26953 3.73047 6.10352 3.79883L5.75195 3.45703C5.625 3.33984 5.43945 3.33008 5.30273 3.4082C5.15625 3.50586 5.07812 3.65234 5.11719 3.81836L5.23438 4.30664C5.08789 4.41406 4.94141 4.53125 4.82422 4.64844L4.35547 4.45312C4.18945 4.39453 4.0332 4.43359 3.92578 4.56055C3.81836 4.6875 3.79883 4.88281 3.88672 5.00977L4.16016 5.42969C4.0625 5.57617 3.97461 5.73242 3.88672 5.89844L3.39844 5.86914C3.23242 5.85938 3.07617 5.9668 3.02734 6.12305C2.96875 6.2793 3.01758 6.44531 3.14453 6.55273L3.54492 6.85547C3.50586 7.03125 3.47656 7.19727 3.45703 7.38281L2.97852 7.53906C2.8125 7.58789 2.71484 7.72461 2.71484 7.89062C2.71484 8.06641 2.8125 8.19336 2.97852 8.24219L3.45703 8.39844C3.47656 8.58398 3.50586 8.75 3.54492 8.92578L3.14453 9.22852C3.00781 9.3457 2.95898 9.49219 3.00781 9.64844C3.08594 9.80469 3.23242 9.92188 3.39844 9.91211L3.88672 9.87305C3.97461 10.0293 4.0625 10.2051 4.16992 10.3516L3.88672 10.7715C3.78906 10.918 3.80859 11.084 3.90625 11.2109C4.0332 11.3379 4.18945 11.3965 4.35547 11.3281L4.81445 11.123C4.94141 11.2402 5.07812 11.3672 5.23438 11.4746L5.11719 11.9629C5.07812 12.1387 5.14648 12.2754 5.2832 12.373C5.42969 12.4414 5.625 12.4414 5.75195 12.3242L6.10352 11.9824C6.26953 12.0508 6.43555 12.1191 6.61133 12.168L6.66992 12.666C6.68945 12.832 6.81641 12.9492 6.97266 12.9883C7.13867 13.0078 7.30469 12.9395 7.39258 12.7832L7.61719 12.3438C7.69531 12.3535 7.79297 12.3535 7.88086 12.3535C7.97852 12.3535 8.06641 12.3535 8.1543 12.3438L8.37891 12.7832C8.4668 12.9395 8.60352 13.0078 8.7793 12.9883C8.93555 12.959 9.07227 12.832 9.0918 12.666L9.15039 12.168C9.32617 12.1191 9.49219 12.0508 9.66797 11.9824L10.0195 12.3242C10.1465 12.4414 10.3223 12.4512 10.459 12.373C10.6055 12.2852 10.6934 12.1289 10.6543 11.9629L10.5273 11.4746C10.6836 11.3672 10.8301 11.25 10.9473 11.1328L11.416 11.3281C11.5723 11.3867 11.7285 11.3574 11.8457 11.2207C11.9531 11.1035 11.9727 10.8984 11.8848 10.7715L11.6016 10.3516C11.6992 10.2051 11.7969 10.0488 11.8848 9.88281L12.373 9.91211C12.5391 9.92188 12.6855 9.82422 12.7441 9.6582C12.8027 9.50195 12.7539 9.33594 12.627 9.22852L12.2168 8.92578C12.2559 8.75 12.2949 8.58398 12.3145 8.39844L12.793 8.24219C12.959 8.19336 13.0469 8.06641 13.0469 7.89062C13.0469 7.72461 12.959 7.58789 12.793 7.53906L12.3145 7.38281C12.2949 7.19727 12.2559 7.03125 12.2168 6.85547L12.6367 6.5625C12.7637 6.43555 12.793 6.28906 12.7441 6.13281C12.6953 5.9668 12.5391 5.86914 12.373 5.85938L11.8848 5.9082C11.7969 5.75195 11.6992 5.58594 11.6113 5.42969L11.8945 5.01953C11.9727 4.86328 11.9629 4.69727 11.8555 4.57031C11.7383 4.43359 11.5723 4.39453 11.416 4.44336L10.957 4.6582C10.8301 4.54102 10.6934 4.42383 10.5469 4.30664L10.6641 3.82812C10.6836 3.64258 10.625 3.50586 10.4688 3.41797C10.332 3.33008 10.1465 3.33984 10.0195 3.45703L9.67773 3.79883C9.50195 3.74023 9.33594 3.66211 9.15039 3.61328L9.10156 3.11523C9.07227 2.94922 8.95508 2.83203 8.78906 2.80273C8.61328 2.77344 8.4668 2.8418 8.37891 2.99805ZM7.88086 11.3672C7.38281 11.3672 6.89453 11.2598 6.46484 11.0645L7.61719 9.16992C7.70508 9.18945 7.79297 9.19922 7.88086 9.19922C8.45703 9.19922 8.94531 8.82812 9.13086 8.32031L11.3379 8.32031C11.1328 10.0391 9.6582 11.3672 7.88086 11.3672ZM6.875 7.04102C6.68945 7.27539 6.57227 7.56836 6.57227 7.89062C6.57227 8.20312 6.67969 8.49609 6.86523 8.73047L5.71289 10.6055C4.91211 9.9707 4.4043 8.99414 4.4043 7.89062C4.4043 6.77734 4.94141 5.77148 5.75195 5.13672ZM8.31055 7.89062C8.31055 8.125 8.11523 8.31055 7.88086 8.31055C7.65625 8.31055 7.46094 8.125 7.46094 7.89062C7.46094 7.65625 7.65625 7.4707 7.88086 7.4707C8.11523 7.4707 8.31055 7.65625 8.31055 7.89062ZM11.3379 7.45117L9.12109 7.45117C8.93555 6.94336 8.45703 6.58203 7.88086 6.58203C7.79297 6.58203 7.70508 6.5918 7.62695 6.60156L6.50391 4.69727C6.93359 4.51172 7.40234 4.41406 7.88086 4.41406C9.6582 4.41406 11.1133 5.73242 11.3379 7.45117Z" fill="var(--color-primary)"/>
 </g>
</svg>
