<svg version="1.1" xmlns="http://www.w3.org/2000/svg" xmlns:xlink="http://www.w3.org/1999/xlink" width="16.1328" height="15.7715" viewBox="0 0 16.1328 15.7715">
 <g>
  <rect height="15.7715" opacity="0" width="16.1328" x="0" y="0"/>
  <path d="M1.81641 11.875C2.91992 11.6602 3.64258 11.2793 3.64258 10.0098C3.64258 9.19922 4.38477 9.14062 4.38477 8.28125C4.38477 7.88086 3.97461 7.55859 3.35938 7.05078L2.85156 6.63086C2.80273 6.60156 2.76367 6.5332 2.76367 6.48438C2.76367 6.35742 2.88086 6.25 2.99805 6.25C3.0957 6.25 3.18359 6.34766 3.51562 6.63086C4.0625 7.08984 4.35547 7.35352 4.7168 7.35352C5.10742 7.35352 5.21484 7.13867 5.39062 7.13867C5.49805 7.13867 5.55664 7.19727 5.60547 7.35352L5.92773 8.23242C6.25977 9.16992 6.83594 9.02344 6.94336 9.69727C7.26562 11.8848 7.63672 12.8125 8.58398 12.8125C9.53125 12.8125 9.81445 11.9434 9.81445 10.5762C9.81445 9.57031 11.0742 8.50586 11.4746 8.50586C11.9922 8.50586 12.2754 10.8008 14.6387 10.8105L14.6387 9.95117C12.4121 9.94141 12.9688 7.64648 11.4746 7.64648C10.5957 7.64648 8.96484 9.18945 8.96484 10.5762C8.96484 11.6406 8.87695 11.9531 8.58398 11.9531C8.21289 11.9531 8.01758 11.2012 7.77344 9.56055C7.58789 8.34961 7.02148 8.71094 6.74805 7.99805L6.29883 6.82617C6.12305 6.36719 5.82031 6.20117 5.48828 6.20117C5.11719 6.20117 4.84375 6.46484 4.70703 6.46484C4.58984 6.46484 4.24805 6.14258 4.04297 5.9668C3.7207 5.67383 3.36914 5.39062 2.99805 5.39062C2.41211 5.39062 1.91406 5.9668 1.91406 6.46484C1.91406 7.20703 3.53516 7.92969 3.53516 8.36914C3.53516 8.93555 2.79297 8.83789 2.79297 10C2.79297 10.9082 2.30469 10.9082 1.65039 11.0449ZM2.02148 3.45703C2.10938 4.21875 2.59766 4.82422 3.21289 4.82422C3.71094 4.82422 4.13086 4.50195 4.25781 4.01367C4.30664 3.81836 4.3457 3.74023 4.50195 3.66211C4.85352 3.4668 5 3.24219 5 2.88086C5 2.48047 4.70703 2.07031 4.22852 1.58203L3.62305 2.16797C3.98438 2.54883 4.15039 2.66602 4.15039 2.8418C4.15039 3.06641 3.66211 3.05664 3.55469 3.60352C3.50586 3.86719 3.33984 3.97461 3.21289 3.97461C3.0957 3.97461 2.8418 3.82812 2.87109 3.37891ZM7.88086 15.7617C12.1875 15.7617 15.7715 12.1875 15.7715 7.88086C15.7715 3.57422 12.1777 0 7.87109 0C3.57422 0 0 3.57422 0 7.88086C0 12.1875 3.58398 15.7617 7.88086 15.7617ZM7.88086 14.5898C4.22852 14.5898 1.18164 11.5332 1.18164 7.88086C1.18164 4.22852 4.21875 1.17188 7.87109 1.17188C11.5332 1.17188 14.5898 4.22852 14.5898 7.88086C14.5898 11.5332 11.543 14.5898 7.88086 14.5898Z" fill="var(--color-primary)"/>
 </g>
</svg>
