<svg version="1.1" xmlns="http://www.w3.org/2000/svg" xmlns:xlink="http://www.w3.org/1999/xlink" viewBox="0 0 13.252 17.3588">
 <g>
  <rect height="17.3588" opacity="0" width="13.252" x="0" y="0"/>
  <path d="M1.58203 15.7644L10.332 17.3073C11.9336 17.5905 12.8906 16.6921 12.8906 14.9343L12.8906 5.48116C12.8906 3.83077 12.0508 3.27413 10.4395 2.99093L1.97266 1.50655C0.791016 1.29171 0 1.96554 0 3.15694L0 13.948C0 14.9733 0.537109 15.5788 1.58203 15.7644ZM1.92383 14.3679C1.58203 14.3093 1.40625 14.114 1.40625 13.7429L1.40625 3.39132C1.40625 3.03976 1.65039 2.85421 2.03125 2.92257L10.3711 4.38741C11.0938 4.51437 11.4844 4.7878 11.4844 5.48116L11.4844 14.7683C11.4844 15.5788 11.0254 15.989 10.2637 15.8425ZM10.8008 4.02608L12.207 4.02608L12.207 2.25851C12.207 0.569053 11.084-0.241494 9.18945 0.0905375L1.19141 1.50655L1.72852 2.71749L9.6875 1.4089C10.3906 1.30147 10.8008 1.58468 10.8008 2.19991ZM2.39258 6.49679C2.39258 7.21944 3.52539 7.21944 3.52539 6.54562L3.52539 5.55929C3.52539 5.39327 3.62305 5.32491 3.80859 5.35421L4.78516 5.52022C5.51758 5.65694 5.66406 4.55343 5.01953 4.43624L3.28125 4.13351C2.72461 4.03585 2.39258 4.27999 2.39258 4.8171ZM9.36523 7.69796C9.36523 8.42062 10.498 8.48897 10.498 7.69796L10.498 6.38937C10.498 5.68624 10.166 5.34444 9.3457 5.19796L8.52539 5.05147C7.73438 4.90499 7.55859 6.00851 8.33008 6.14522L8.95508 6.25265C9.3457 6.32101 9.36523 6.59444 9.36523 6.76046ZM3.52539 11.1745C3.52539 10.4519 2.39258 10.3835 2.39258 11.1745L2.39258 12.4831C2.39258 13.196 2.72461 13.528 3.54492 13.6745L4.375 13.821C5.16602 13.9675 5.33203 12.864 4.57031 12.7273L3.94531 12.6198C3.54492 12.5515 3.52539 12.2878 3.52539 12.112ZM10.498 12.3757C10.498 11.6628 9.36523 11.6628 9.36523 12.3269L9.36523 13.3132C9.36523 13.4792 9.26758 13.5573 9.08203 13.5183L8.10547 13.3523C7.37305 13.2253 7.23633 14.3288 7.88086 14.4362L9.60938 14.7487C10.166 14.8464 10.498 14.5925 10.498 14.0554Z" fill="var(--color-primary)"/>
 </g>
</svg>
