<svg version="1.1" xmlns="http://www.w3.org/2000/svg" xmlns:xlink="http://www.w3.org/1999/xlink" viewBox="0 0 16.1328 15.7715">
 <g>
  <rect height="15.7715" opacity="0" width="16.1328" x="0" y="0"/>
  <path d="M7.88086 15.7617C12.2363 15.7617 15.7715 12.2363 15.7715 7.88086C15.7715 3.52539 12.2363 0 7.88086 0C3.53516 0 0 3.52539 0 7.88086C0 12.2363 3.53516 15.7617 7.88086 15.7617ZM7.88086 14.2773C4.3457 14.2773 1.49414 11.416 1.49414 7.88086C1.49414 4.3457 4.3457 1.48438 7.88086 1.48438C11.416 1.48438 14.2773 4.3457 14.2773 7.88086C14.2773 11.416 11.416 14.2773 7.88086 14.2773Z" fill="var(--color-primary)"/>
  <path d="M3.4668 9.39453C3.4668 9.77539 3.71094 10 4.10156 10L5.74219 10L5.74219 11.6406C5.74219 12.0508 5.9668 12.2852 6.35742 12.2852C6.71875 12.2852 6.95312 12.0508 6.95312 11.6406L6.95312 10L8.79883 10L8.79883 11.6406C8.79883 12.0508 9.02344 12.2852 9.39453 12.2852C9.77539 12.2852 10.0098 12.0508 10.0098 11.6406L10.0098 10L11.6504 10C12.041 10 12.2852 9.77539 12.2852 9.39453C12.2852 9.02344 12.041 8.78906 11.6504 8.78906L10.0098 8.78906L10.0098 6.97266L11.6504 6.97266C12.041 6.97266 12.2852 6.73828 12.2852 6.36719C12.2852 5.98633 12.041 5.75195 11.6504 5.75195L10.0098 5.75195L10.0098 4.12109C10.0098 3.71094 9.77539 3.47656 9.39453 3.47656C9.02344 3.47656 8.79883 3.71094 8.79883 4.12109L8.79883 5.75195L6.95312 5.75195L6.95312 4.12109C6.95312 3.71094 6.71875 3.47656 6.35742 3.47656C5.9668 3.47656 5.74219 3.71094 5.74219 4.12109L5.74219 5.75195L4.10156 5.75195C3.71094 5.75195 3.4668 5.98633 3.4668 6.36719C3.4668 6.73828 3.71094 6.97266 4.10156 6.97266L5.74219 6.97266L5.74219 8.78906L4.10156 8.78906C3.71094 8.78906 3.4668 9.02344 3.4668 9.39453ZM6.96289 8.78906L6.96289 6.97266L8.80859 6.97266L8.80859 8.78906Z" fill="var(--color-primary)"/>
 </g>
</svg>
