<svg version="1.1" xmlns="http://www.w3.org/2000/svg" xmlns:xlink="http://www.w3.org/1999/xlink" width="14.5898" height="14.248" viewBox="0 0 14.5898 14.248">
 <g>
  <rect height="14.248" opacity="0" width="14.5898" x="0" y="0"/>
  <path d="M2.49023 14.248L11.7383 14.248C13.4082 14.248 14.2285 13.4277 14.2285 11.7871L14.2285 2.4707C14.2285 0.830078 13.4082 0.00976562 11.7383 0.00976562L2.49023 0.00976562C0.830078 0.00976562 0 0.830078 0 2.4707L0 11.7871C0 13.4277 0.830078 14.248 2.49023 14.248ZM2.50977 12.832C1.80664 12.832 1.40625 12.4609 1.40625 11.7188L1.40625 2.53906C1.40625 1.80664 1.80664 1.42578 2.50977 1.42578L11.7188 1.42578C12.4219 1.42578 12.8223 1.80664 12.8223 2.53906L12.8223 11.7188C12.8223 12.4609 12.4219 12.832 11.7188 12.832Z" fill="var(--color-secondary)"/>
  <path d="M7.23633 11.7676C7.4707 11.7676 7.64648 11.6016 7.64648 11.3574L7.64648 10.8789C9.28711 10.7227 10.1465 9.57031 10.1465 7.79297L10.1465 7.43164C10.1465 7.08008 9.92188 6.85547 9.58008 6.85547L7.64648 6.85547L7.64648 4.44336C8.25195 4.57031 8.75977 4.98047 8.93555 5.52734C9.05273 5.85938 9.18945 5.97656 9.49219 5.97656C9.81445 5.97656 10.0195 5.76172 10.0195 5.44922C10.0195 5.32227 9.99023 5.18555 9.94141 5.05859C9.59961 4.15039 8.7207 3.51562 7.64648 3.38867L7.64648 2.90039C7.64648 2.64648 7.4707 2.48047 7.23633 2.48047C6.99219 2.48047 6.81641 2.64648 6.81641 2.90039L6.81641 3.39844C5.16602 3.61328 4.0918 5.0293 4.0918 7.12891C4.0918 9.26758 5.15625 10.6543 6.81641 10.8691L6.81641 11.3574C6.81641 11.6016 6.99219 11.7676 7.23633 11.7676ZM6.81641 9.80469C5.84961 9.57031 5.24414 8.57422 5.24414 7.12891C5.24414 5.69336 5.85938 4.69727 6.81641 4.46289ZM7.64648 9.82422L7.64648 7.87109L9.0332 7.87109L9.0332 7.99805C9.0332 8.97461 8.53516 9.67773 7.64648 9.82422Z" fill="var(--color-primary)"/>
 </g>
</svg>
