<svg version="1.1" xmlns="http://www.w3.org/2000/svg" xmlns:xlink="http://www.w3.org/1999/xlink" viewBox="0 0 16.1328 15.7715">
 <g>
  <rect height="15.7715" opacity="0" width="16.1328" x="0" y="0"/>
  <path d="M15.7715 7.88086C15.7715 12.2266 12.2363 15.7617 7.88086 15.7617C3.53516 15.7617 0 12.2266 0 7.88086C0 3.53516 3.53516 0 7.88086 0C12.2363 0 15.7715 3.53516 15.7715 7.88086ZM9.66797 4.86328L9.66797 7.12891L6.09375 7.12891L6.09375 4.86328C6.09375 4.33594 5.83008 4.04297 5.36133 4.04297C4.90234 4.04297 4.63867 4.3457 4.63867 4.86328L4.63867 10.7227C4.63867 11.2402 4.90234 11.543 5.36133 11.543C5.83008 11.543 6.09375 11.25 6.09375 10.7227L6.09375 8.24219L9.66797 8.24219L9.66797 10.7227C9.66797 11.2402 9.93164 11.543 10.3809 11.543C10.8496 11.543 11.1133 11.25 11.1133 10.7227L11.1133 4.86328C11.1133 4.33594 10.8496 4.04297 10.3809 4.04297C9.93164 4.04297 9.66797 4.3457 9.66797 4.86328Z" fill="var(--color-primary)"/>
 </g>
</svg>
