<svg version="1.1" xmlns="http://www.w3.org/2000/svg" xmlns:xlink="http://www.w3.org/1999/xlink" viewBox="0 0 18.3203 22.2754">
 <g>
  <rect height="22.2754" opacity="0" width="18.3203" x="0" y="0"/>
  <path d="M2.46094 16.4551C2.77344 17.9688 2.73438 17.9785 4.30664 18.3008C4.43359 18.3203 4.51172 18.3887 4.51172 18.5156C4.51172 18.6426 4.43359 18.7109 4.30664 18.7402C2.73438 19.043 2.76367 19.0625 2.46094 20.5762C2.44141 20.6934 2.38281 20.7715 2.24609 20.7715C2.12891 20.7715 2.06055 20.6934 2.03125 20.5762C1.73828 19.0625 1.76758 19.0527 0.195312 18.7402C0.078125 18.7109 0 18.6426 0 18.5156C0 18.3887 0.078125 18.3203 0.195312 18.3008C1.76758 17.9785 1.72852 17.9688 2.03125 16.4551C2.06055 16.3379 2.12891 16.2598 2.24609 16.2598C2.38281 16.2598 2.44141 16.3379 2.46094 16.4551ZM12.041 0.46875C12.2461 2.23633 12.373 2.24609 14.1895 2.58789C14.3164 2.60742 14.4141 2.70508 14.4141 2.83203C14.4141 2.98828 14.3164 3.07617 14.1504 3.08594C12.3535 3.36914 12.2461 3.4375 12.041 5.20508C12.0312 5.36133 11.9336 5.45898 11.7871 5.45898C11.6602 5.45898 11.5527 5.36133 11.543 5.22461C11.3086 3.44727 11.2402 3.44727 9.39453 3.08594C9.26758 3.07617 9.16992 2.97852 9.16992 2.83203C9.16992 2.70508 9.26758 2.59766 9.39453 2.58789C11.2402 2.34375 11.3184 2.26562 11.543 0.458984C11.5527 0.322266 11.6602 0.224609 11.7871 0.224609C11.9336 0.224609 12.0312 0.322266 12.041 0.46875ZM6.8457 0.175781C7.07031 1.26953 7.04102 1.25977 8.14453 1.47461C8.26172 1.50391 8.32031 1.57227 8.32031 1.67969C8.32031 1.78711 8.26172 1.85547 8.14453 1.875C7.04102 2.08984 7.06055 2.08008 6.8457 3.18359C6.81641 3.30078 6.73828 3.35938 6.64062 3.35938C6.5332 3.35938 6.46484 3.29102 6.44531 3.18359C6.2207 2.08008 6.24023 2.09961 5.13672 1.875C5.01953 1.85547 4.95117 1.77734 4.95117 1.67969C4.95117 1.58203 5.01953 1.50391 5.13672 1.47461C6.24023 1.25977 6.21094 1.26953 6.44531 0.175781C6.46484 0.0683594 6.5332 0 6.64062 0C6.74805 0 6.81641 0.0585938 6.8457 0.175781Z" fill="var(--color-primary)"/>
  <path d="M14.9902 6.36719C15.1562 6.54297 15.3125 6.75781 15.4395 7.02148L17.1289 10.5859C18.4863 13.4473 18.1738 15.8691 16.2207 17.8223C15.2413 18.8017 14.1244 19.3634 12.9701 19.4974C13.4088 19.2435 13.83 18.9141 14.2285 18.5156C14.7213 18.0229 15.1096 17.5003 15.3923 16.9482C16.8571 15.4459 17.3295 13.6511 16.123 11.0742L14.375 7.35352C14.2188 7.02148 13.9844 6.89453 13.7207 7.02148C13.4766 7.12891 13.3594 7.38281 13.4766 7.68555L13.6262 8.09233L13.4473 7.71484C13.3203 7.44141 13.1641 7.23633 12.998 7.06055C12.8905 6.95297 12.7746 6.86574 12.6532 6.79923C12.7187 6.64313 12.8153 6.50115 12.9395 6.37695C13.5156 5.80078 14.3848 5.76172 14.9902 6.36719ZM8.80859 4.83398L11.001 7.02124C10.9823 7.03606 10.9646 7.05294 10.9473 7.07031C10.6476 7.36995 10.5089 7.77302 10.5759 8.2224L8.06641 5.71289C7.87109 5.51758 7.57812 5.51758 7.37305 5.71289C7.30461 5.78475 7.26015 5.86621 7.24065 5.9506L6.81641 5.52734C6.69201 5.40106 6.5607 5.29879 6.42512 5.22121C6.48413 5.07224 6.57533 4.93295 6.69922 4.81445C7.33398 4.17969 8.16406 4.17969 8.80859 4.83398ZM4.70703 5.50781C4.48242 5.72266 4.36523 6.00586 4.3457 6.28906C4.27189 6.23508 4.19746 6.18769 4.12265 6.14782C4.19301 5.98964 4.2969 5.83982 4.43359 5.70312C4.54569 5.59103 4.66436 5.50026 4.78809 5.43212Z" fill="var(--color-primary)"/>
  <path d="M14.2285 18.5156C16.1816 16.5625 16.4941 14.1406 15.1367 11.2793L13.4473 7.71484C13.3203 7.44141 13.1641 7.23633 12.998 7.06055C12.3926 6.45508 11.5234 6.49414 10.9473 7.07031C10.5566 7.46094 10.4395 8.02734 10.6934 8.64258L11.0938 9.62891C11.1035 9.6582 11.1035 9.6875 11.084 9.70703C11.0547 9.73633 11.0254 9.72656 10.9961 9.69727L6.81641 5.52734C6.17188 4.87305 5.3418 4.86328 4.70703 5.50781C4.48242 5.72266 4.36523 6.00586 4.3457 6.28906C3.69141 5.81055 2.98828 5.84961 2.44141 6.39648C1.91406 6.92383 1.875 7.64648 2.32422 8.28125C2.06055 8.29102 1.80664 8.4082 1.61133 8.60352C1.02539 9.18945 1.05469 9.98047 1.66016 10.5859L2.22656 11.1523C1.93359 11.1523 1.63086 11.2891 1.39648 11.5234C0.810547 12.1094 0.839844 12.9492 1.46484 13.5742L6.15234 18.2617C8.70117 20.8105 11.8652 20.8789 14.2285 18.5156ZM13.3496 17.6953C11.4062 19.6387 9.01367 19.502 6.85547 17.3438L2.36328 12.8613C2.1582 12.6562 2.1582 12.373 2.36328 12.168C2.55859 11.9727 2.85156 11.9629 3.05664 12.168L5.84961 14.9609C6.06445 15.1758 6.39648 15.1465 6.5918 14.9414C6.79688 14.7363 6.83594 14.3945 6.62109 14.1895L2.46094 10.0293C2.25586 9.82422 2.25586 9.54102 2.45117 9.33594C2.65625 9.14062 2.94922 9.13086 3.1543 9.33594L7.04102 13.2227C7.24609 13.4277 7.57812 13.4082 7.7832 13.2031C7.98828 12.998 8.01758 12.6562 7.8125 12.4512L3.24219 7.88086C3.03711 7.67578 3.03711 7.38281 3.23242 7.1875C3.4375 6.98242 3.73047 6.98242 3.92578 7.1875L8.50586 11.7578C8.71094 11.9629 9.04297 11.9434 9.24805 11.7383C9.45312 11.5332 9.48242 11.1914 9.27734 10.9863L5.39062 7.09961C5.18555 6.89453 5.18555 6.61133 5.39062 6.40625C5.58594 6.21094 5.87891 6.20117 6.08398 6.40625L11.4355 11.7676C11.7285 12.0508 12.0605 12.0605 12.2949 11.8262C12.5 11.6211 12.5879 11.3477 12.4219 10.918L11.4844 8.37891C11.3672 8.07617 11.4941 7.82227 11.7285 7.71484C11.9922 7.58789 12.2266 7.71484 12.3828 8.04688L14.1309 11.7676C15.3613 14.375 14.8535 16.1816 13.3496 17.6953Z" fill="var(--color-primary)"/>
 </g>
</svg>
