<svg version="1.1" xmlns="http://www.w3.org/2000/svg" xmlns:xlink="http://www.w3.org/1999/xlink" width="16.1328" height="15.7715" viewBox="0 0 16.1328 15.7715">
 <g>
  <rect height="15.7715" opacity="0" width="16.1328" x="0" y="0"/>
  <path d="M7.88086 15.7617C12.1875 15.7617 15.7715 12.1875 15.7715 7.88086C15.7715 3.57422 12.1777 0 7.87109 0C3.57422 0 0 3.57422 0 7.88086C0 12.1875 3.58398 15.7617 7.88086 15.7617ZM7.88086 14.2773C4.33594 14.2773 1.50391 11.4355 1.50391 7.88086C1.50391 4.32617 4.32617 1.48438 7.87109 1.48438C11.4258 1.48438 14.2773 4.32617 14.2773 7.88086C14.2773 11.4355 11.4355 14.2773 7.88086 14.2773Z" fill="var(--color-secondary)"/>
  <path d="M5.45898 6.25L6.15234 6.25L6.15234 5.69336C6.15234 4.77539 6.89453 4.07227 7.8418 4.07227C8.79883 4.07227 9.54102 4.77539 9.54102 5.69336L9.54102 6.25L10.2344 6.25L10.2344 5.69336C10.2344 4.38477 9.18945 3.37891 7.8418 3.37891C6.50391 3.37891 5.45898 4.38477 5.45898 5.69336ZM7.8418 8.02734C9.0918 8.02734 10.2051 7.5293 10.8789 6.24023C10.7031 6.14258 10.498 6.09375 10.2441 6.09375L5.44922 6.09375C5.19531 6.09375 4.98047 6.14258 4.81445 6.24023C5.48828 7.5293 6.5918 8.02734 7.8418 8.02734ZM11.7578 9.95117L11.4355 7.1582C11.416 7.00195 11.377 6.875 11.3281 6.75781C10.6543 7.89062 9.67773 8.48633 8.62305 8.67188L8.62305 8.92578C8.62305 9.19922 8.4668 9.35547 8.19336 9.35547L7.49023 9.35547C7.22656 9.35547 7.06055 9.19922 7.06055 8.92578L7.06055 8.67188C6.01562 8.48633 5.03906 7.89062 4.36523 6.75781C4.31641 6.875 4.27734 7.00195 4.25781 7.1582L3.93555 9.95117C3.81836 10.9473 4.27734 11.5039 5.21484 11.5039L10.4785 11.5039C11.416 11.5039 11.875 10.9473 11.7578 9.95117Z" fill="var(--color-primary)"/>
 </g>
</svg>
