<svg version="1.1" xmlns="http://www.w3.org/2000/svg" xmlns:xlink="http://www.w3.org/1999/xlink" viewBox="0 0 16.1328 15.7715">
 <g>
  <rect height="15.7715" opacity="0" width="16.1328" x="0" y="0"/>
  <path d="M15.7715 7.88086C15.7715 12.2266 12.2363 15.7617 7.88086 15.7617C3.53516 15.7617 0 12.2266 0 7.88086C0 3.53516 3.53516 0 7.88086 0C12.2363 0 15.7715 3.53516 15.7715 7.88086ZM7.88086 5.60547C7.48047 4.86328 6.83594 4.38477 5.97656 4.38477C4.61914 4.38477 3.65234 5.41016 3.65234 6.83594C3.65234 8.85742 5.77148 10.7715 7.45117 11.8457C7.60742 11.9434 7.80273 12.0508 7.90039 12.0508C8.01758 12.0508 8.18359 11.9434 8.31055 11.8457C10 10.7715 12.1191 8.85742 12.1191 6.83594C12.1191 5.41016 11.1426 4.38477 9.79492 4.38477C8.94531 4.38477 8.29102 4.86328 7.88086 5.60547Z" fill="var(--color-primary)"/>
 </g>
</svg>
