<svg version="1.1" xmlns="http://www.w3.org/2000/svg" xmlns:xlink="http://www.w3.org/1999/xlink" viewBox="0 0 18.3105 15.6934">
 <g>
  <rect height="15.6934" opacity="0" width="18.3105" x="0" y="0"/>
  <path d="M3.55469 11.6309C5.84961 11.6309 6.58203 9.61914 9.33594 9.61914C10.7715 9.61914 12.168 10.3613 14.209 10.3613C16.7871 10.3613 17.9297 9.78516 17.9492 9.04297C17.9688 8.79883 17.8418 8.64258 17.3633 8.1543C17.041 7.8125 16.7969 7.17773 16.6699 6.49414C16.0547 2.93945 13.0176 0 8.04688 0C3.19336 0 0 3.42773 0 7.19727C0 7.95898 0.0976562 8.84766 0.244141 9.375C0.507812 10.3516 2.29492 11.6309 3.55469 11.6309ZM3.55469 10.3516C2.8418 10.3516 1.67969 9.66797 1.50391 8.95508C1.39648 8.53516 1.2793 7.8418 1.2793 7.19727C1.2793 4.16992 3.89648 1.21094 8.04688 1.21094C11.5332 1.21094 14.7754 3.35938 15.3906 6.52344C15.6055 7.64648 15.8398 8.26172 16.3379 8.7793C16.3867 8.82812 16.3867 8.88672 16.3086 8.91602C15.9473 9.05273 15.5273 9.0918 14.209 9.0918C12.2754 9.0918 10.7422 8.39844 9.32617 8.39844C6.49414 8.39844 5.69336 10.3516 3.55469 10.3516ZM6.30859 3.33008C6.63086 3.33008 6.875 3.06641 6.875 2.71484L6.875 1.04492L5.72266 1.05469L5.72266 2.71484C5.72266 3.07617 5.97656 3.33008 6.30859 3.33008ZM8.54492 3.67188C8.86719 3.67188 9.12109 3.41797 9.12109 3.05664L9.12109 0.78125L7.95898 0.78125L7.95898 3.07617C7.95898 3.42773 8.21289 3.67188 8.54492 3.67188ZM10.7812 3.33984C11.1035 3.33984 11.3574 3.07617 11.3574 2.71484L11.3574 1.07422L10.1953 1.06445L10.1953 2.72461C10.1953 3.08594 10.4492 3.33984 10.7812 3.33984ZM2.40234 7.96875C2.71484 8.11523 3.04688 7.98828 3.17383 7.68555C3.32031 7.39258 3.17383 7.06055 2.85156 6.92383L0.800781 5.99609L0.332031 7.05078ZM10.3418 15.6348C10.7227 15.5762 10.8887 15.293 10.8301 14.9414C10.6934 14.1992 10.5957 13.623 10.5859 12.5586C10.5664 11.6016 10.5859 10.5371 10.6348 9.29688L9.36523 9.20898C9.32617 10.498 9.29688 11.5918 9.3457 12.5879C9.4043 13.7207 9.46289 14.2871 9.62891 15.1465C9.6875 15.4883 10.0098 15.6934 10.3418 15.6348ZM9.86328 13.8574L9.94141 12.4414L6.13281 9.87305L5.22461 10.6836Z" fill="var(--color-primary)"/>
 </g>
</svg>
