<svg version="1.1" xmlns="http://www.w3.org/2000/svg" xmlns:xlink="http://www.w3.org/1999/xlink" viewBox="0 0 9.43359 14.2285">
 <g>
  <rect height="14.2285" opacity="0" width="9.43359" x="0" y="0"/>
  <path d="M9.07227 1.32812L9.07227 1.43555C9.07227 3.33984 7.10938 5.25391 6.11328 6.24023C5.56641 6.77734 5.52734 7.37305 6.11328 7.95898C7.10938 8.94531 9.07227 10.8691 9.07227 12.7637L9.07227 12.8906C9.07227 13.7695 8.57422 14.2188 7.74414 14.2188L1.32812 14.2188C0.498047 14.2188 0 13.7695 0 12.8906L0 12.7637C0 10.8691 1.96289 8.94531 2.95898 7.95898C3.54492 7.37305 3.49609 6.77734 2.95898 6.24023C1.96289 5.25391 0 3.33984 0 1.43555L0 1.32812C0 0.449219 0.498047 0 1.32812 0L7.74414 0C8.57422 0 9.07227 0.449219 9.07227 1.32812ZM2.42188 3.75C2.16797 3.75 2.05078 4.01367 2.26562 4.22852C2.71484 4.6875 3.41797 5.25391 3.88672 5.6543C4.17969 5.89844 4.25781 6.10352 4.25781 6.50391L4.25781 9.99023C4.25781 10.1074 4.21875 10.1465 4.13086 10.2246L1.74805 12.4512C1.51367 12.666 1.58203 13.0859 1.94336 13.0859L7.11914 13.0859C7.48047 13.0859 7.54883 12.666 7.32422 12.4512L4.94141 10.2246C4.85352 10.1465 4.81445 10.1074 4.81445 9.99023L4.81445 6.50391C4.81445 6.10352 4.89258 5.89844 5.17578 5.6543C5.6543 5.25391 6.35742 4.6875 6.79688 4.22852C7.02148 4.01367 6.9043 3.75 6.65039 3.75Z" fill="var(--color-primary)"/>
 </g>
</svg>
