<svg version="1.1" xmlns="http://www.w3.org/2000/svg" xmlns:xlink="http://www.w3.org/1999/xlink" width="34.7108" height="15.8691" viewBox="0 0 34.7108 15.8691">
 <g>
  <rect height="15.8691" opacity="0" width="34.7108" x="0" y="0"/>
  <path d="M7.54093 13.0371C7.54093 13.6974 7.7164 14.2721 8.03249 14.7266L4.43546 14.7266C3.35148 14.7266 2.70694 14.1113 2.70694 13.0371L2.70694 10.6543L7.54093 10.6543Z" fill="var(--color-primary)"/>
  <path d="M10.6053 4.48242L6.87687 7.42187C6.82337 7.46444 6.77327 7.50816 6.72736 7.55316C6.7117 7.56698 6.69726 7.58119 6.68504 7.59605C6.65205 7.62701 6.62251 7.65901 6.59602 7.69183C6.58027 7.70791 6.56641 7.72452 6.55452 7.74162C6.52684 7.77365 6.5022 7.80647 6.48078 7.84006C6.46807 7.85528 6.45744 7.87102 6.44808 7.88702C6.41896 7.93006 6.39315 7.97384 6.37052 8.01823C6.36673 8.02359 6.36383 8.02913 6.3611 8.0347C6.33529 8.08442 6.31252 8.13469 6.29323 8.18546C6.28628 8.20122 6.28031 8.21712 6.27626 8.23326C6.26196 8.26851 6.25063 8.30415 6.24182 8.34003C6.23524 8.35884 6.2303 8.37783 6.22716 8.39694C6.21761 8.43083 6.21059 8.46493 6.2062 8.49915C6.2014 8.5177 6.19852 8.53636 6.19692 8.55504C6.19073 8.59444 6.18685 8.63391 6.18565 8.67337C6.18348 8.68608 6.18284 8.69879 6.18265 8.71148C6.18059 8.76175 6.18099 8.81197 6.18401 8.86196C6.1844 8.88153 6.18576 8.90103 6.18907 8.92031C6.19047 8.95204 6.19411 8.98353 6.19945 9.01476C6.20155 9.03783 6.20527 9.06069 6.21088 9.08319C6.21487 9.11092 6.2206 9.13836 6.22807 9.16541C6.23209 9.18964 6.23813 9.21344 6.24571 9.23685C6.25218 9.26252 6.25979 9.28792 6.26914 9.31281C6.28915 9.38076 6.31476 9.44711 6.34471 9.51172L1.85733 9.51172C1.12491 9.51172 0.919835 8.67188 1.39835 8.33008L6.40812 4.73633C6.64249 4.57031 6.93546 4.48242 7.22843 4.48242Z" fill="var(--color-primary)"/>
  <path d="M31.6425 10.6543L31.6425 13.0371C31.6425 14.1113 30.998 14.7266 29.914 14.7266L26.3191 14.7266C26.6345 14.2721 26.8085 13.6974 26.8085 13.0371L26.8085 10.6543Z" fill="var(--color-primary)"/>
  <path d="M27.9316 4.73633L32.9511 8.33008C33.4296 8.67188 33.2245 9.51172 32.4921 9.51172L27.9996 9.51172C28.0296 9.4463 28.0552 9.37906 28.075 9.31019C28.0837 9.28688 28.0907 9.26309 28.0967 9.23906C28.1045 9.21481 28.1106 9.19015 28.1147 9.16506C28.1218 9.13885 28.1273 9.11228 28.1311 9.08543C28.1368 9.06224 28.1406 9.03869 28.1426 9.01492C28.1477 8.98465 28.1512 8.95414 28.1524 8.9234C28.1558 8.90319 28.1572 8.88275 28.1575 8.86224C28.1604 8.8124 28.1607 8.76235 28.1586 8.71224C28.1583 8.70004 28.1577 8.68781 28.1556 8.67559C28.1542 8.63559 28.1502 8.59558 28.1439 8.55564C28.1423 8.53693 28.1393 8.51825 28.1345 8.49968C28.13 8.46546 28.123 8.43136 28.1134 8.39748C28.1102 8.37826 28.1052 8.35918 28.0985 8.34027C28.0897 8.30457 28.0784 8.26911 28.0641 8.23404C28.06 8.21767 28.0539 8.20153 28.0468 8.18555C28.0275 8.13475 28.0047 8.08444 27.9788 8.0347C27.9765 8.02997 27.974 8.02527 27.9708 8.02072C27.9476 7.97548 27.9213 7.93083 27.8917 7.88697C27.8823 7.87107 27.8718 7.85544 27.8591 7.84032C27.8376 7.80662 27.8129 7.77368 27.7851 7.74154C27.7732 7.72447 27.7594 7.70789 27.7437 7.69185C27.7172 7.65899 27.6876 7.62697 27.6546 7.59598C27.6423 7.58114 27.6279 7.56694 27.6123 7.55313C27.5664 7.50813 27.5163 7.46443 27.4628 7.42188L27.4628 7.42187L23.7344 4.48242L27.121 4.48242C27.414 4.48242 27.7069 4.57031 27.9316 4.73633Z" fill="var(--color-primary)"/>
  <path d="M25.0605 10.2051C25.2615 10.3634 25.4648 10.4774 25.6659 10.5511L25.6659 13.0371C25.6659 14.1113 25.0312 14.7266 23.9374 14.7266L10.4023 14.7266C9.32804 14.7266 8.68351 14.1113 8.68351 13.0371L8.68351 10.5487C8.88473 10.4755 9.08801 10.3624 9.28898 10.2051L17.1796 4.00391ZM15.7636 9.49219C15.4316 9.49219 15.1874 9.7168 15.1874 10.0586L15.1874 13.3594L19.162 13.3594L19.162 10.0586C19.162 9.7168 18.9374 9.49219 18.5956 9.49219Z" fill="var(--color-primary)"/>
  <path d="M8.58585 9.30664L16.8573 2.80273C17.0624 2.63672 17.2968 2.63672 17.4921 2.80273L25.7636 9.30664C26.6034 9.9707 27.4628 8.86719 26.7597 8.32031L18.1757 1.55273C17.5116 1.01562 16.8378 1.01562 16.1737 1.55273L7.57999 8.32031C6.88663 8.86719 7.74601 9.9707 8.58585 9.30664Z" fill="var(--color-primary)"/>
 </g>
</svg>
