<svg version="1.1" xmlns="http://www.w3.org/2000/svg" xmlns:xlink="http://www.w3.org/1999/xlink" viewBox="0 0 19.8828 21.5137">
 <g>
  <rect height="21.5137" opacity="0" width="19.8828" x="0" y="0"/>
  <path d="M17.0703 8.56445C18.5645 9.19922 19.5215 10.4785 19.5215 12.0703C19.5215 13.9551 18.0566 15.4102 15.6152 15.4102L12.0508 15.4102L12.0508 14.0039L15.6152 14.0039C17.2754 14.0039 18.1152 13.1836 18.1152 12.0703C18.1152 10.7422 17.1973 9.90234 15.8008 9.60938C15.7031 9.58984 15.6641 9.53125 15.6738 9.42383C15.7129 9.05273 15.7324 8.61328 15.7129 8.24219C15.6055 6.02539 13.8965 4.0332 11.3867 4.0332C9.41406 4.0332 8.28125 5.09766 7.54883 6.41602C7.5 6.50391 7.44141 6.52344 7.34375 6.49414C5.79102 6.03516 4.11133 6.62109 4.11133 9.0332C4.11133 9.14062 4.0625 9.19922 3.95508 9.19922C2.32422 9.19922 1.40625 10.2734 1.40625 11.7383C1.40625 12.9883 2.32422 14.0039 4.10156 14.0039L7.59766 14.0039L7.59766 15.4102L4.10156 15.4102C1.5332 15.4102 0 13.7598 0 11.7383C0 9.90234 1.06445 8.44727 2.82227 8.13477C2.88086 5.9668 5.11719 4.58984 6.85547 5.03906C7.8125 3.7207 9.30664 2.61719 11.3867 2.61719C14.5703 2.61719 17.0605 5.09766 17.0703 8.56445Z" fill="var(--color-primary)"/>
  <path d="M9.82422 9.81445C9.45312 9.81445 9.13086 10.127 9.13086 10.4883L9.13086 16.9238L9.18945 18.0859L8.79883 17.666L7.71484 16.5918C7.58789 16.4551 7.40234 16.377 7.23633 16.377C6.875 16.377 6.61133 16.6406 6.61133 16.9922C6.61133 17.1777 6.66992 17.334 6.81641 17.4512L9.31641 19.7559C9.51172 19.9219 9.64844 19.9902 9.82422 19.9902C10.0098 19.9902 10.1465 19.9219 10.332 19.7559L12.8418 17.4512C12.9785 17.334 13.0469 17.1777 13.0469 16.9922C13.0469 16.6406 12.7734 16.377 12.4023 16.377C12.2363 16.377 12.0703 16.4551 11.9336 16.5918L10.8594 17.666L10.4688 18.0859L10.5176 16.9238L10.5176 10.4883C10.5176 10.127 10.2051 9.81445 9.82422 9.81445Z" fill="var(--color-primary)"/>
 </g>
</svg>
