<svg version="1.1" xmlns="http://www.w3.org/2000/svg" xmlns:xlink="http://www.w3.org/1999/xlink" viewBox="0 0 14.5898 14.248">
 <g>
  <rect height="14.248" opacity="0" width="14.5898" x="0" y="0"/>
  <path d="M14.2285 2.4707L14.2285 11.7871C14.2285 13.4277 13.4082 14.248 11.7383 14.248L2.49023 14.248C0.830078 14.248 0 13.4277 0 11.7871L0 2.4707C0 0.830078 0.830078 0.00976562 2.49023 0.00976562L11.7383 0.00976562C13.4082 0.00976562 14.2285 0.830078 14.2285 2.4707ZM4.85352 3.47656C4.62891 3.47656 4.49219 3.62305 4.49219 3.86719L4.49219 3.92578C4.49219 4.16992 4.62891 4.32617 4.85352 4.32617L6.12305 4.32617C6.88477 4.32617 7.5 4.61914 7.62695 5.37109L4.80469 5.37109C4.63867 5.37109 4.51172 5.49805 4.51172 5.6543C4.51172 5.82031 4.63867 5.94727 4.80469 5.94727L7.62695 5.94727C7.50977 6.71875 6.92383 6.99219 6.15234 6.99219L5.05859 6.99219C4.72656 6.99219 4.52148 7.19727 4.52148 7.48047L4.52148 7.50977C4.52148 7.76367 4.62891 7.91016 4.82422 8.08594L7.48047 10.5859C7.62695 10.7227 7.74414 10.8398 7.97852 10.8398C8.23242 10.8398 8.42773 10.625 8.42773 10.3809C8.42773 10.2148 8.33984 10.0977 8.22266 9.9707L5.95703 7.85156L6.29883 7.85156C7.55859 7.85156 8.50586 7.1582 8.68164 5.94727L9.28711 5.94727C9.45312 5.94727 9.58008 5.82031 9.58008 5.6543C9.58008 5.49805 9.45312 5.37109 9.28711 5.37109L8.70117 5.37109C8.64258 4.85352 8.4375 4.38477 8.05664 4.05273L9.28711 4.05273C9.45312 4.05273 9.58008 3.91602 9.58008 3.76953C9.58008 3.59375 9.45312 3.47656 9.28711 3.47656Z" fill="var(--color-primary)"/>
 </g>
</svg>
