<svg version="1.1" xmlns="http://www.w3.org/2000/svg" xmlns:xlink="http://www.w3.org/1999/xlink" width="16.1328" height="15.7715" viewBox="0 0 16.1328 15.7715">
 <g>
  <rect height="15.7715" opacity="0" width="16.1328" x="0" y="0"/>
  <path d="M7.88086 15.7617C12.1875 15.7617 15.7715 12.1875 15.7715 7.88086C15.7715 3.57422 12.1777 0 7.87109 0C3.57422 0 0 3.57422 0 7.88086C0 12.1875 3.58398 15.7617 7.88086 15.7617Z" fill="var(--color-tertiary)"/>
  <path d="M2.50977 7.88086C2.50977 6.33789 3.47656 5.30273 4.93164 5.30273C5.68359 5.30273 6.33789 5.61523 7.02148 6.2793L7.89062 7.11914L8.76953 6.2793C9.45312 5.60547 10.1074 5.30273 10.8594 5.30273C12.3145 5.30273 13.2812 6.33789 13.2812 7.88086C13.2812 9.42383 12.3145 10.459 10.8594 10.459C10.1172 10.459 9.46289 10.1562 8.76953 9.48242L7.89062 8.64258L7.02148 9.48242C6.32812 10.1465 5.67383 10.459 4.93164 10.459C3.47656 10.459 2.50977 9.42383 2.50977 7.88086ZM3.60352 7.88086C3.60352 8.78906 4.12109 9.36523 4.93164 9.36523C5.36133 9.36523 5.74219 9.16016 6.24023 8.68164L7.09961 7.88086L6.24023 7.08008C5.74219 6.60156 5.35156 6.39648 4.93164 6.39648C4.12109 6.39648 3.60352 6.97266 3.60352 7.88086ZM8.68164 7.88086L9.55078 8.68164C10.0488 9.16016 10.4297 9.36523 10.8594 9.36523C11.6602 9.36523 12.1777 8.78906 12.1777 7.88086C12.1777 6.97266 11.6602 6.39648 10.8594 6.39648C10.4297 6.39648 10.0488 6.60156 9.55078 7.08008Z" fill="var(--color-primary)"/>
 </g>
</svg>
