<svg version="1.1" xmlns="http://www.w3.org/2000/svg" xmlns:xlink="http://www.w3.org/1999/xlink" viewBox="0 0 16.1328 15.7715">
 <g>
  <rect height="15.7715" opacity="0" width="16.1328" x="0" y="0"/>
  <path d="M7.88086 15.7617C12.2363 15.7617 15.7715 12.2363 15.7715 7.88086C15.7715 3.52539 12.2363 0 7.88086 0C3.53516 0 0 3.52539 0 7.88086C0 12.2363 3.53516 15.7617 7.88086 15.7617ZM7.88086 14.2773C4.3457 14.2773 1.49414 11.416 1.49414 7.88086C1.49414 4.3457 4.3457 1.48438 7.88086 1.48438C11.416 1.48438 14.2773 4.3457 14.2773 7.88086C14.2773 11.416 11.416 14.2773 7.88086 14.2773Z" fill="var(--color-primary)"/>
  <path d="M6.5625 12.207L9.66797 12.207C10.0195 12.207 10.3027 11.9531 10.3027 11.5918C10.3027 11.25 10.0195 10.9863 9.66797 10.9863L8.80859 10.9863L8.80859 7.33398C8.80859 6.85547 8.57422 6.55273 8.13477 6.55273L6.70898 6.55273C6.35742 6.55273 6.08398 6.81641 6.08398 7.14844C6.08398 7.50977 6.35742 7.76367 6.70898 7.76367L7.42188 7.76367L7.42188 10.9863L6.5625 10.9863C6.21094 10.9863 5.92773 11.25 5.92773 11.5918C5.92773 11.9531 6.21094 12.207 6.5625 12.207ZM7.80273 5.35156C8.41797 5.35156 8.89648 4.86328 8.89648 4.24805C8.89648 3.63281 8.41797 3.1543 7.80273 3.1543C7.19727 3.1543 6.70898 3.63281 6.70898 4.24805C6.70898 4.86328 7.19727 5.35156 7.80273 5.35156Z" fill="var(--color-primary)"/>
 </g>
</svg>
