<svg version="1.1" xmlns="http://www.w3.org/2000/svg" xmlns:xlink="http://www.w3.org/1999/xlink" viewBox="0 0 18.4766 14.248">
 <g>
  <rect height="14.248" opacity="0" width="18.4766" x="0" y="0"/>
  <path d="M2.49023 14.248L15.625 14.248C17.2949 14.248 18.1152 13.4277 18.1152 11.7871L18.1152 2.4707C18.1152 0.830078 17.2949 0.00976562 15.625 0.00976562L2.49023 0.00976562C0.830078 0.00976562 0 0.830078 0 2.4707L0 11.7871C0 13.4277 0.830078 14.248 2.49023 14.248ZM2.50977 12.832C1.80664 12.832 1.40625 12.4512 1.40625 11.7188L1.40625 2.53906C1.40625 1.79688 1.80664 1.42578 2.50977 1.42578L15.6055 1.42578C16.3086 1.42578 16.709 1.79688 16.709 2.53906L16.709 11.7188C16.709 12.4512 16.3086 12.832 15.6055 12.832Z" fill="var(--color-primary)"/>
  <path d="M9.63867 11.6992L14.9707 11.6992C15.4102 11.6992 15.5664 11.5234 15.5664 11.0742L15.5664 3.18359C15.5664 2.72461 15.4102 2.55859 14.9707 2.55859L9.63867 2.55859C9.19922 2.55859 9.04297 2.72461 9.04297 3.18359L9.04297 11.0742C9.04297 11.5234 9.19922 11.6992 9.63867 11.6992Z" fill="var(--color-primary)"/>
 </g>
</svg>
