<svg version="1.1" xmlns="http://www.w3.org/2000/svg" xmlns:xlink="http://www.w3.org/1999/xlink" width="14.5605" height="16.4941" viewBox="0 0 14.5605 16.4941">
 <g>
  <rect height="16.4941" opacity="0" width="14.5605" x="0" y="0"/>
  <path d="M10.7666 9.62891L12.1826 11.0449L12.1826 2.02148C12.1826 0.830078 11.2939 0 10.0439 0L4.16504 0C3.31543 0 2.62207 0.351562 2.30957 0.986328L2.25098 1.12305L3.43262 2.30469L3.43262 2.24609C3.43262 1.71875 3.78418 1.40625 4.35059 1.40625L9.8584 1.40625C10.4248 1.40625 10.7666 1.72852 10.7666 2.26562ZM6.16699 3.18359L8.05176 3.18359C8.37402 3.18359 8.64746 2.91992 8.64746 2.58789C8.64746 2.26562 8.37402 1.99219 8.05176 1.99219L6.16699 1.99219C5.8252 1.99219 5.56152 2.26562 5.56152 2.58789C5.56152 2.91992 5.8252 3.18359 6.16699 3.18359ZM4.16504 16.4746L10.0439 16.4746C10.8545 16.4746 11.5088 16.1328 11.8604 15.5371C11.8701 15.5078 11.8994 15.459 11.9189 15.4297L10.7666 14.248C10.7666 14.2676 10.7666 14.2773 10.7666 14.2969C10.7373 14.7754 10.3857 15.0684 9.8584 15.0684L4.35059 15.0684C3.78418 15.0684 3.43262 14.7461 3.43262 14.209L3.43262 6.94336L2.02637 5.53711L2.02637 14.4531C2.02637 15.6445 2.91504 16.4746 4.16504 16.4746ZM5.46387 14.4922L8.75488 14.4922C8.97949 14.4922 9.14551 14.3359 9.14551 14.1016C9.14551 13.8672 8.97949 13.7109 8.75488 13.7109L5.46387 13.7109C5.22949 13.7109 5.07324 13.8672 5.07324 14.1016C5.07324 14.3359 5.22949 14.4922 5.46387 14.4922Z" fill="var(--color-secondary)"/>
  <path d="M13.0615 15.1855C13.3154 15.4492 13.7549 15.4492 14.0088 15.1855C14.2627 14.9219 14.2725 14.502 14.0088 14.2383L1.14746 1.38672C0.883789 1.12305 0.454102 1.12305 0.19043 1.38672C-0.0634766 1.64062-0.0634766 2.08008 0.19043 2.33398Z" fill="var(--color-primary)"/>
 </g>
</svg>
