<svg version="1.1" xmlns="http://www.w3.org/2000/svg" xmlns:xlink="http://www.w3.org/1999/xlink" viewBox="0 0 16.8555 10.166">
 <g>
  <rect height="10.166" opacity="0" width="16.8555" x="0" y="0"/>
  <path d="M13.7891 8.75L2.70508 8.75L2.70508 1.40625L13.7891 1.40625ZM15.7031 5.06836C15.7031 5.44922 15.3906 5.76172 15.0098 5.76172C14.6289 5.76172 14.3262 5.44922 14.3262 5.06836C14.3262 4.6875 14.6289 4.38477 15.0098 4.38477C15.3906 4.38477 15.7031 4.6875 15.7031 5.06836ZM1.81641 5.06836C1.81641 5.33203 1.60156 5.53711 1.33789 5.53711C1.08398 5.53711 0.878906 5.33203 0.878906 5.06836C0.878906 4.80469 1.08398 4.60938 1.33789 4.60938C1.60156 4.60938 1.81641 4.80469 1.81641 5.06836Z" fill="var(--color-tertiary)"/>
  <path d="M14.4629 10.1562C15.6543 10.1562 16.4941 9.26758 16.4941 8.01758L16.4941 2.13867C16.4941 0.888672 15.6543 0 14.4629 0L2.03125 0C0.839844 0 0 0.888672 0 2.13867L0 8.01758C0 9.26758 0.839844 10.1562 2.03125 10.1562ZM13.7891 8.75L2.70508 8.75L2.70508 1.40625L13.7891 1.40625ZM15.7031 5.06836C15.7031 5.44922 15.3906 5.76172 15.0098 5.76172C14.6289 5.76172 14.3262 5.44922 14.3262 5.06836C14.3262 4.6875 14.6289 4.38477 15.0098 4.38477C15.3906 4.38477 15.7031 4.6875 15.7031 5.06836ZM1.81641 5.06836C1.81641 5.33203 1.60156 5.53711 1.33789 5.53711C1.08398 5.53711 0.878906 5.33203 0.878906 5.06836C0.878906 4.80469 1.08398 4.60938 1.33789 4.60938C1.60156 4.60938 1.81641 4.80469 1.81641 5.06836Z" fill="var(--color-primary)"/>
 </g>
</svg>
