<svg version="1.1" xmlns="http://www.w3.org/2000/svg" xmlns:xlink="http://www.w3.org/1999/xlink" viewBox="0 0 18.9844 15.4424">
 <g>
  <rect height="15.4424" opacity="0" width="18.9844" x="0" y="0"/>
  <path d="M18.623 9.27882C18.623 4.40578 14.8926 0.411637 10.127 0.00148111C9.88281-0.0180501 9.69727 0.157731 9.69727 0.401872L9.69727 2.98C9.69727 3.18507 9.84375 3.34132 10.0488 3.36086C12.9883 3.73195 15.2734 6.24172 15.2734 9.27882C15.2734 10.6558 14.8047 11.9253 13.9551 13.0093C13.8574 13.1362 13.8672 13.2925 13.9746 13.3999L15.8594 15.2847C16.0352 15.4605 16.2891 15.4605 16.4453 15.2749C17.8125 13.6538 18.623 11.564 18.623 9.27882Z" fill="var(--color-primary)"/>
  <path d="M0 9.27882C0 11.564 0.820312 13.6538 2.17773 15.2749C2.33398 15.4605 2.58789 15.4605 2.76367 15.2847L4.64844 13.3999C4.76562 13.2925 4.77539 13.1362 4.66797 13.0093C3.82812 11.9253 3.35938 10.6558 3.35938 9.27882C3.35938 6.24172 5.63477 3.73195 8.57422 3.36086C8.7793 3.34132 8.92578 3.18507 8.92578 2.98L8.92578 0.401872C8.92578 0.157731 8.74023-0.0180501 8.49609 0.00148111C3.74023 0.411637 0 4.40578 0 9.27882Z" fill="var(--color-primary)"/>
  <path d="M7.54883 12.9409C7.85156 12.9409 8.03711 12.7359 8.03711 12.4234L8.03711 9.59132L8.50586 9.59132L10.8203 12.687C10.9375 12.8433 11.0645 12.9409 11.2598 12.9409C11.5918 12.9409 11.7188 12.687 11.7188 12.5015C11.7188 12.3745 11.6699 12.2671 11.5918 12.1597L9.58984 9.59132L11.6211 9.59132C11.7871 9.59132 11.9043 9.46437 11.9043 9.30812C11.9043 9.14211 11.7871 9.03468 11.6211 9.03468L9.60938 9.03468L11.5918 6.54445C11.6699 6.43703 11.7188 6.32961 11.7188 6.22218C11.7188 5.97804 11.5039 5.78273 11.2598 5.78273C11.0938 5.78273 10.9375 5.90968 10.8398 6.02687L8.51562 9.03468L8.03711 9.03468L8.03711 6.29054C8.03711 5.97804 7.85156 5.78273 7.54883 5.78273C7.23633 5.78273 7.05078 5.97804 7.05078 6.29054L7.05078 9.03468L6.5332 9.03468C6.36719 9.03468 6.25977 9.14211 6.25977 9.31789C6.25977 9.47414 6.36719 9.59132 6.5332 9.59132L7.05078 9.59132L7.05078 12.4234C7.05078 12.7359 7.23633 12.9409 7.54883 12.9409Z" fill="var(--color-primary)"/>
 </g>
</svg>
