<svg version="1.1" xmlns="http://www.w3.org/2000/svg" xmlns:xlink="http://www.w3.org/1999/xlink" viewBox="0 0 13.5059 17.3535">
 <g>
  <rect height="17.3535" opacity="0" width="13.5059" x="0" y="0"/>
  <path d="M0.751953 15.5371L11.3184 15.5371C11.748 15.5371 12.0605 15.2344 12.0605 14.8145C12.0605 14.3848 11.748 14.1016 11.3184 14.1016L7.88086 14.1016C4.43359 14.1016 1.78711 11.5723 1.78711 8.24219C1.78711 5.33203 3.64258 3.36914 6.66016 3.36914C9.22852 3.36914 11.416 5.08789 11.5039 7.62695C11.5234 8.20312 11.8164 8.52539 12.3438 8.52539C12.8613 8.52539 13.1445 8.20312 13.1445 7.63672C13.1348 4.3457 10.166 1.79688 6.66016 1.79688C3.07617 1.79688 0.0390625 4.23828 0.0390625 7.96875C0.0390625 10.4492 1.2207 12.9102 3.54492 14.0625L3.54492 14.1016L0.751953 14.1016C0.273438 14.1016 0 14.4336 0 14.8242C0 15.2539 0.3125 15.5371 0.751953 15.5371ZM5.09766 8.31055C5.42969 8.31055 5.66406 8.06641 5.66406 7.73438L5.66406 0.576172C5.66406 0.244141 5.42969 0 5.09766 0C4.76562 0 4.52148 0.244141 4.52148 0.576172L4.52148 7.73438C4.52148 8.06641 4.76562 8.31055 5.09766 8.31055ZM8.24219 8.31055C8.57422 8.31055 8.80859 8.06641 8.80859 7.73438L8.80859 0.576172C8.80859 0.244141 8.57422 0 8.24219 0C7.91016 0 7.67578 0.244141 7.67578 0.576172L7.67578 7.73438C7.67578 8.06641 7.91016 8.31055 8.24219 8.31055Z" fill="var(--color-primary)"/>
 </g>
</svg>
