<svg version="1.1" xmlns="http://www.w3.org/2000/svg" xmlns:xlink="http://www.w3.org/1999/xlink" viewBox="0 0 16.1328 15.7715">
 <g>
  <rect height="15.7715" opacity="0" width="16.1328" x="0" y="0"/>
  <path d="M7.88086 15.7617C12.2363 15.7617 15.7715 12.2363 15.7715 7.88086C15.7715 3.52539 12.2363 0 7.88086 0C3.53516 0 0 3.52539 0 7.88086C0 12.2363 3.53516 15.7617 7.88086 15.7617ZM7.88086 14.2773C4.3457 14.2773 1.49414 11.416 1.49414 7.88086C1.49414 4.3457 4.3457 1.48438 7.88086 1.48438C11.416 1.48438 14.2773 4.3457 14.2773 7.88086C14.2773 11.416 11.416 14.2773 7.88086 14.2773Z" fill="var(--color-primary)"/>
  <path d="M9.88281 11.1133C10.3027 11.1133 10.6055 10.8105 10.6055 10.4199C10.6055 10.0879 10.4688 9.89258 10.0977 9.7168L6.25977 7.87109L6.25977 7.82227L10.0977 5.9375C10.459 5.75195 10.6055 5.54688 10.6055 5.22461C10.6055 4.84375 10.3125 4.54102 9.90234 4.54102C9.7168 4.54102 9.59961 4.57031 9.47266 4.63867L4.84375 7.11914C4.49219 7.30469 4.32617 7.54883 4.32617 7.88086C4.32617 8.24219 4.48242 8.45703 4.84375 8.64258L9.47266 11.0156C9.58984 11.084 9.7168 11.1133 9.88281 11.1133Z" fill="var(--color-primary)"/>
 </g>
</svg>
