<svg version="1.1" xmlns="http://www.w3.org/2000/svg" xmlns:xlink="http://www.w3.org/1999/xlink" width="16.3477" height="17.0801" viewBox="0 0 16.3477 17.0801">
 <g>
  <rect height="17.0801" opacity="0" width="16.3477" x="0" y="0"/>
  <path d="M4.28711 16.1719C3.25195 16.1719 2.35352 15.625 2.34375 14.8047L6.23047 14.8047C6.2207 15.625 5.3125 16.1719 4.28711 16.1719ZM6.76758 13.7402C6.76758 14.0039 6.54297 14.1992 6.28906 14.1992L2.27539 14.1992C2.01172 14.1992 1.81641 14.0039 1.81641 13.7402C1.81641 13.4863 2.01172 13.2715 2.27539 13.2715L6.28906 13.2715C6.54297 13.2715 6.76758 13.4766 6.76758 13.7402ZM6.98776 1.94845C6.74332 2.27599 6.54616 2.63754 6.40765 3.02759C5.86032 2.60514 5.13462 2.36328 4.33594 2.36328C2.60742 2.36328 1.2207 3.49609 1.2207 5.11719C1.2207 6.875 2.33398 7.12891 2.95898 11.4551L5.71289 11.4551C6.01601 9.35694 6.43398 8.21665 6.78351 7.40116C7.00185 7.91986 7.25178 8.46181 7.48831 9.12544C7.20978 9.89891 6.95446 10.8626 6.81641 12.2168C6.79688 12.4707 6.64062 12.666 6.35742 12.666L2.31445 12.666C2.02148 12.666 1.875 12.4707 1.85547 12.2168C1.44531 8.19336 0 7.61719 0 5.11719C0 2.87109 1.89453 1.14258 4.33594 1.14258C5.34642 1.14258 6.26323 1.43869 6.98776 1.94845Z" fill="var(--color-secondary)"/>
  <path d="M11.0547 0C8.30078 0 6.13281 1.97266 6.13281 4.55078C6.13281 7.42188 7.8125 8.07617 8.29102 12.8125C8.32031 13.0957 8.4668 13.2812 8.75977 13.2812L13.3496 13.2812C13.6426 13.2812 13.7891 13.0957 13.8184 12.8125C14.2969 8.07617 15.9863 7.42188 15.9863 4.55078C15.9863 1.97266 13.8086 0 11.0547 0ZM11.0547 1.2793C13.0273 1.2793 14.707 2.61719 14.707 4.55078C14.707 6.60156 13.3691 6.99219 12.666 12.002L9.44336 12.002C8.74023 6.99219 7.41211 6.60156 7.41211 4.55078C7.41211 2.61719 9.08203 1.2793 11.0547 1.2793ZM8.7207 14.9219L13.3887 14.9219C13.6621 14.9219 13.8672 14.7266 13.8672 14.4531C13.8672 14.1895 13.6621 13.9844 13.3887 13.9844L8.7207 13.9844C8.44727 13.9844 8.25195 14.1895 8.25195 14.4531C8.25195 14.7266 8.44727 14.9219 8.7207 14.9219ZM11.0547 17.0801C12.1973 17.0801 13.1836 16.4941 13.2422 15.6348L8.86719 15.6348C8.91602 16.4941 9.90234 17.0801 11.0547 17.0801Z" fill="var(--color-primary)"/>
 </g>
</svg>
