<svg version="1.1" xmlns="http://www.w3.org/2000/svg" xmlns:xlink="http://www.w3.org/1999/xlink" viewBox="0 0 18.6621 13.9551">
 <g>
  <rect height="13.9551" opacity="0" width="18.6621" x="0" y="0"/>
  <path d="M18.3008 5.87891L18.3008 8.06641C18.3008 12.2656 16.6113 13.9453 12.0801 13.9453L6.2207 13.9453C1.68945 13.9453 0 12.2656 0 8.06641L0 5.87891C0 1.67969 1.68945 0 6.2207 0L12.0801 0C16.6113 0 18.3008 1.67969 18.3008 5.87891ZM12.2168 4.4043L11.2402 8.48633L11.2109 8.48633L10.2246 4.4043C10.0977 3.90625 9.80469 3.67188 9.31641 3.67188C8.75977 3.67188 8.39844 4.01367 8.39844 4.58008L8.39844 9.6875C8.39844 10.0684 8.62305 10.3027 8.98438 10.3027C9.33594 10.3027 9.56055 10.0684 9.56055 9.6875L9.56055 5.6543L9.60938 5.6543L10.5957 9.59961C10.6738 9.94141 10.8887 10.1758 11.2305 10.1758C11.5918 10.1758 11.7773 9.94141 11.8652 9.58984L12.8516 5.6543L12.9004 5.6543L12.9004 9.6875C12.9004 10.0684 13.1055 10.3027 13.4668 10.3027C13.8477 10.3027 14.0527 10.0684 14.0527 9.6875L14.0527 4.58008C14.0527 3.99414 13.6914 3.67188 13.1348 3.67188C12.627 3.67188 12.3438 3.91602 12.2168 4.4043ZM4.16016 4.31641L4.16016 9.52148C4.16016 9.94141 4.39453 10.1953 4.80469 10.1953L7.06055 10.1953C7.35352 10.1953 7.59766 9.95117 7.59766 9.64844C7.59766 9.35547 7.35352 9.11133 7.06055 9.11133L5.46875 9.11133L5.46875 4.31641C5.46875 3.96484 5.16602 3.67188 4.81445 3.67188C4.46289 3.67188 4.16016 3.96484 4.16016 4.31641Z" fill="var(--color-primary)"/>
 </g>
</svg>
