<svg version="1.1" xmlns="http://www.w3.org/2000/svg" xmlns:xlink="http://www.w3.org/1999/xlink" viewBox="0 0 16.1328 15.7715">
 <g>
  <rect height="15.7715" opacity="0" width="16.1328" x="0" y="0"/>
  <path d="M15.7715 7.88086C15.7715 12.2266 12.2363 15.7617 7.88086 15.7617C3.53516 15.7617 0 12.2266 0 7.88086C0 3.53516 3.53516 0 7.88086 0C12.2363 0 15.7715 3.53516 15.7715 7.88086ZM10.6445 4.01367L3.28125 7.51953C2.72461 7.7832 2.80273 8.61328 3.58398 8.61328L6.75781 8.61328C6.92383 8.61328 7.05078 8.73047 7.05078 8.90625L7.05078 12.041C7.05078 12.832 7.87109 12.9102 8.13477 12.3438L11.6016 4.96094C11.9141 4.28711 11.3281 3.69141 10.6445 4.01367Z" fill="var(--color-primary)"/>
 </g>
</svg>
