<svg version="1.1" xmlns="http://www.w3.org/2000/svg" xmlns:xlink="http://www.w3.org/1999/xlink" viewBox="0 0 17.7734 16.5527">
 <g>
  <rect height="16.5527" opacity="0" width="17.7734" x="0" y="0"/>
  <path d="M1.10352 14.541L16.3184 14.541L16.3184 13.9746C16.3184 13.623 16.1133 13.418 15.752 13.418L15.2637 13.418L15.2637 5.42969L15.918 5.42969C16.3965 5.42969 16.6797 5.07812 16.6797 4.72656C16.6797 4.46289 16.5234 4.23828 16.2109 4.04297L9.6875 0.283203C9.375 0.0976562 9.0332 0 8.71094 0C8.37891 0 8.03711 0.0976562 7.72461 0.283203L1.20117 4.04297C0.878906 4.23828 0.732422 4.46289 0.732422 4.72656C0.732422 5.07812 1.01562 5.42969 1.49414 5.42969L2.1582 5.42969L2.1582 13.418L1.66992 13.418C1.30859 13.418 1.10352 13.623 1.10352 13.9746ZM3.47656 13.418L3.47656 4.375L8.44727 1.60156C8.52539 1.55273 8.62305 1.52344 8.71094 1.52344C8.78906 1.52344 8.88672 1.55273 8.96484 1.60156L13.9551 4.375L13.9551 13.418ZM0.703125 16.543L16.709 16.543C17.0898 16.543 17.4121 16.2207 17.4121 15.8301C17.4121 15.4492 17.0898 15.127 16.709 15.127L0.703125 15.127C0.322266 15.127 0 15.4492 0 15.8301C0 16.2207 0.322266 16.543 0.703125 16.543Z" fill="var(--color-primary)"/>
  <path d="M6.45508 11.4648C6.76758 11.4648 6.96289 11.2695 6.96289 10.957L6.96289 8.67188C6.96289 7.32422 7.41211 6.17188 8.7207 6.17188C10.0488 6.17188 10.4785 7.32422 10.4785 8.67188L10.4785 10.957C10.4785 11.2695 10.6738 11.4648 10.9863 11.4648C11.2891 11.4648 11.4746 11.2695 11.4746 10.957L11.4746 8.62305C11.4746 6.68945 10.5957 5.27344 8.7207 5.27344C6.83594 5.27344 5.9668 6.70898 5.9668 8.62305L5.9668 10.957C5.9668 11.2695 6.15234 11.4648 6.45508 11.4648ZM8.71094 11.4648C8.91602 11.4648 9.05273 11.3281 9.05273 11.1133L9.05273 4.47266C9.05273 4.25781 8.91602 4.13086 8.71094 4.13086C8.48633 4.13086 8.35938 4.25781 8.35938 4.47266L8.35938 11.1133C8.35938 11.3281 8.48633 11.4648 8.71094 11.4648Z" fill="var(--color-primary)"/>
 </g>
</svg>
