<svg version="1.1" xmlns="http://www.w3.org/2000/svg" xmlns:xlink="http://www.w3.org/1999/xlink" viewBox="0 0 15.3027 17.2949">
 <g>
  <rect height="17.2949" opacity="0" width="15.3027" x="0" y="0"/>
  <path d="M8.27795 12.9321C8.24534 15.324 7.80845 16.6309 7.4707 16.6309C7.10938 16.6309 6.64062 15.2051 6.64062 12.6367L6.64063 11.2977ZM10.5273 3.06641C10.5273 4.47266 9.58008 5.66406 8.28125 6.02539L8.28125 8.3252L6.64063 6.68603L6.64062 6.02539C5.35156 5.6543 4.41406 4.47266 4.41406 3.06641C4.41406 1.37695 5.77148 0 7.4707 0C9.16992 0 10.5273 1.37695 10.5273 3.06641ZM5.56641 2.19727C5.56641 2.76367 6.05469 3.25195 6.61133 3.25195C7.1875 3.25195 7.65625 2.76367 7.65625 2.19727C7.65625 1.63086 7.1875 1.15234 6.61133 1.15234C6.05469 1.15234 5.56641 1.63086 5.56641 2.19727Z" fill="var(--color-primary)"/>
  <path d="M12.168 15.4688C12.4316 15.7324 12.8613 15.7324 13.1152 15.4688C13.3691 15.2051 13.3789 14.7754 13.1152 14.5117L2.09961 3.51562C1.8457 3.25195 1.40625 3.25195 1.14258 3.51562C0.888672 3.76953 0.888672 4.20898 1.14258 4.46289Z" fill="var(--color-primary)"/>
 </g>
</svg>
