<svg version="1.1" xmlns="http://www.w3.org/2000/svg" xmlns:xlink="http://www.w3.org/1999/xlink" viewBox="0 0 18.9844 15.498">
 <g>
  <rect height="15.498" opacity="0" width="18.9844" x="0" y="0"/>
  <path d="M18.623 9.30664C18.623 7.03125 17.8125 4.94141 16.4453 3.31055C16.2891 3.125 16.0352 3.125 15.8594 3.30078L14.0332 5.13672C13.8867 5.2832 13.8867 5.48828 14.0137 5.6543C14.8047 6.66016 15.2734 7.92969 15.2734 9.30664C15.2734 10.6836 14.8047 11.9531 13.9551 13.0371C13.8574 13.1641 13.8672 13.3203 13.9746 13.4277L15.8594 15.3125C16.0352 15.4883 16.2891 15.4883 16.4453 15.3027C17.8125 13.6816 18.623 11.5918 18.623 9.30664Z" fill="var(--color-primary)"/>
  <path d="M9.31641 3.34961C10.7031 3.34961 11.9727 3.82812 12.9883 4.61914C13.1445 4.73633 13.3398 4.72656 13.4863 4.58008L15.3223 2.75391C15.498 2.57812 15.4883 2.32422 15.3027 2.16797C13.6816 0.810547 11.5918 0 9.31641 0C7.04102 0 4.94141 0.810547 3.33008 2.16797C3.14453 2.32422 3.13477 2.57812 3.31055 2.75391L5.13672 4.58008C5.2832 4.72656 5.48828 4.73633 5.6543 4.60938C6.66992 3.82812 7.93945 3.34961 9.31641 3.34961Z" fill="var(--color-primary)"/>
  <path d="M0 9.30664C0 11.5918 0.820312 13.6816 2.17773 15.3027C2.33398 15.4883 2.58789 15.4883 2.76367 15.3125L4.64844 13.4277C4.76562 13.3203 4.77539 13.1641 4.66797 13.0371C3.82812 11.9531 3.35938 10.6836 3.35938 9.30664C3.35938 7.92969 3.82812 6.66016 4.61914 5.6543C4.74609 5.48828 4.74609 5.2832 4.59961 5.13672L2.76367 3.30078C2.58789 3.125 2.33398 3.125 2.17773 3.31055C0.820312 4.94141 0 7.03125 0 9.30664Z" fill="var(--color-primary)"/>
  <path d="M6.88477 11.9531C7.17773 11.9531 7.33398 11.748 7.33398 11.4941L7.33398 8.68164C7.33398 8.125 7.58789 7.58789 8.16406 7.58789C8.68164 7.58789 8.88672 7.97852 8.88672 8.48633L8.88672 11.4941C8.88672 11.7578 9.07227 11.9531 9.31641 11.9531C9.58008 11.9531 9.75586 11.7578 9.75586 11.4941L9.75586 8.64258C9.75586 8.11523 10.0195 7.58789 10.5859 7.58789C11.1328 7.58789 11.3184 8.00781 11.3184 8.56445L11.3184 11.4941C11.3184 11.7578 11.4941 11.9531 11.7578 11.9531C12.0215 11.9531 12.207 11.7578 12.207 11.4941L12.207 8.33984C12.207 7.49023 11.7969 6.77734 10.8496 6.77734C10.2344 6.77734 9.72656 7.13867 9.58984 7.72461L9.57031 7.72461C9.43359 7.10938 9.04297 6.77734 8.41797 6.77734C7.83203 6.77734 7.44141 7.1582 7.31445 7.68555L7.29492 7.68555L7.29492 7.23633C7.29492 6.96289 7.12891 6.78711 6.86523 6.78711C6.60156 6.78711 6.44531 6.96289 6.44531 7.23633L6.44531 11.4941C6.44531 11.748 6.5918 11.9531 6.88477 11.9531ZM7.04102 13.8965C7.1875 13.8965 7.25586 13.8281 7.31445 13.6816L11.0547 5.35156C11.084 5.29297 11.0938 5.23438 11.0938 5.18555C11.0938 5.03906 10.9766 4.93164 10.8301 4.93164C10.6836 4.93164 10.6055 5.0293 10.5566 5.14648L6.81641 13.4863C6.78711 13.5449 6.77734 13.5938 6.77734 13.6523C6.77734 13.7988 6.89453 13.8965 7.04102 13.8965Z" fill="var(--color-primary)"/>
 </g>
</svg>
