<svg version="1.1" xmlns="http://www.w3.org/2000/svg" xmlns:xlink="http://www.w3.org/1999/xlink" width="21.7676" height="12.002" viewBox="0 0 21.7676 12.002">
 <g>
  <rect height="12.002" opacity="0" width="21.7676" x="0" y="0"/>
  <path d="M0 6.45508C0 9.72656 1.91406 11.4258 5.21484 11.4258L16.7969 11.4258C17.9688 11.4258 18.9453 11.543 19.8047 11.748C20.6934 11.9824 21.4062 11.6113 21.4062 10.6934L21.4062 7.11914C21.4062 6.5332 20.9961 6.11328 20.4102 6.11328L18.5254 6.11328C17.9199 6.11328 17.6172 5.86914 17.6758 5.29297L17.9004 3.125C18.0859 1.18164 16.9922 0 14.7949 0C12.4805 0.00976562 8.00781 0.117188 5.39062 0.410156C1.98242 0.820312 0 3.02734 0 6.45508ZM1.40625 6.45508C1.40625 3.84766 2.91016 2.11914 5.51758 1.82617C8.0957 1.54297 12.4902 1.41602 14.7949 1.41602C16.1328 1.41602 16.6211 1.89453 16.5039 2.96875L15.9082 8.35938C15.7715 9.58984 15.2539 10.0098 13.9062 10.0098L5.18555 10.0098C2.8125 10.0098 1.40625 8.80859 1.40625 6.45508Z" fill="var(--color-primary)"/>
  <path d="M1.40625 6.45508C1.40625 3.84766 2.91016 2.11914 5.51758 1.82617C8.0957 1.54297 12.4902 1.41602 14.7949 1.41602C16.1328 1.41602 16.6211 1.89453 16.5039 2.96875L15.9082 8.35938C15.7715 9.58984 15.2539 10.0098 13.9062 10.0098L5.18555 10.0098C2.8125 10.0098 1.40625 8.80859 1.40625 6.45508Z" fill="var(--color-tertiary)"/>
 </g>
</svg>
