<svg version="1.1" xmlns="http://www.w3.org/2000/svg" xmlns:xlink="http://www.w3.org/1999/xlink" viewBox="0 0 22.2559 18.8965">
 <g>
  <rect height="18.8965" opacity="0" width="22.2559" x="0" y="0"/>
  <path d="M8.7207 6.35742C8.50586 6.79688 8.34961 7.72461 8.34961 8.53516C8.34961 11.6895 10.2637 13.6133 13.418 13.6133C14.2285 13.6133 15.1465 13.4375 15.5957 13.2422C16.2305 12.9688 16.748 13.4473 16.5039 14.0723C16.3507 14.4712 16.1517 14.8476 15.9103 15.1953L5.15866 15.1953C4.43917 14.1573 4.02344 12.8847 4.02344 11.4941C4.02344 8.76953 5.57617 6.34766 7.89062 5.44922C8.53516 5.19531 9.08203 5.60547 8.7207 6.35742Z" fill="var(--color-primary)"/>
  <path d="M1.9043 17.5586L19.9902 17.5586C20.4004 17.5586 20.752 17.2363 20.752 16.8555C20.752 16.4648 20.4004 16.1523 19.9902 16.1523L1.9043 16.1523C1.48438 16.1523 1.14258 16.4648 1.14258 16.8555C1.14258 17.2363 1.48438 17.5586 1.9043 17.5586Z" fill="var(--color-primary)"/>
  <path d="M14.7656 1.32812C14.3848 1.32812 14.0527 1.67969 14.0527 2.10938L14.0527 5.86914L14.1602 6.97266L13.75 6.46484L12.7734 5.48828C12.6562 5.36133 12.4805 5.2832 12.3145 5.2832C11.9727 5.2832 11.7188 5.52734 11.7188 5.85938C11.7188 6.04492 11.7773 6.17188 11.9238 6.30859L14.2969 8.48633C14.4824 8.66211 14.6094 8.71094 14.7656 8.71094C14.9316 8.71094 15.0488 8.66211 15.2441 8.48633L17.6172 6.30859C17.7637 6.17188 17.8125 6.04492 17.8125 5.85938C17.8125 5.52734 17.5684 5.2832 17.2266 5.2832C17.0508 5.2832 16.8848 5.36133 16.7578 5.48828L15.8789 6.36719L15.3809 6.97266L15.4785 5.86914L15.4785 2.10938C15.4785 1.67969 15.1562 1.32812 14.7656 1.32812Z" fill="var(--color-primary)"/>
 </g>
</svg>
