<svg version="1.1" xmlns="http://www.w3.org/2000/svg" xmlns:xlink="http://www.w3.org/1999/xlink" width="16.1328" height="15.7715" viewBox="0 0 16.1328 15.7715">
 <g>
  <rect height="15.7715" opacity="0" width="16.1328" x="0" y="0"/>
  <path d="M1.50391 7.88086C1.50391 4.54102 3.99414 1.83594 7.23633 1.52344C9.25781 2.88086 10.3223 5.05859 10.3223 7.88086C10.3223 10.7031 9.25781 12.8809 7.25586 14.2383C4.00391 13.9258 1.50391 11.2207 1.50391 7.88086Z" fill="var(--color-tertiary)"/>
  <path d="M0 7.88086C0 12.1875 3.58398 15.7617 7.88086 15.7617C12.1875 15.7617 15.7715 12.1875 15.7715 7.88086C15.7715 3.58398 12.1777 0 7.87109 0C3.57422 0 0 3.57422 0 7.88086ZM1.50391 7.88086C1.50391 4.54102 3.99414 1.83594 7.23633 1.52344C9.25781 2.88086 10.3223 5.05859 10.3223 7.88086C10.3223 10.7031 9.25781 12.8809 7.25586 14.2383C4.00391 13.9258 1.50391 11.2207 1.50391 7.88086Z" fill="var(--color-primary)"/>
 </g>
</svg>
