<svg version="1.1" xmlns="http://www.w3.org/2000/svg" xmlns:xlink="http://www.w3.org/1999/xlink" width="19.0039" height="17.666" viewBox="0 0 19.0039 17.666">
 <g>
  <rect height="17.666" opacity="0" width="19.0039" x="0" y="0"/>
  <path d="M4.10156 16.25L14.4824 16.25C15.6152 16.25 16.2891 15.5957 16.2891 14.4824L16.2891 6.00586L14.8828 5.06836L14.8828 14.1211C14.8828 14.5801 14.6191 14.8438 14.1797 14.8438L4.39453 14.8438C3.95508 14.8438 3.70117 14.5801 3.70117 14.1211L3.70117 5.06836L2.28516 6.00586L2.28516 14.4824C2.28516 15.5957 2.95898 16.25 4.10156 16.25ZM0 7.72461C0 8.08594 0.283203 8.42773 0.761719 8.42773C1.00586 8.42773 1.21094 8.29102 1.38672 8.14453L9.07227 1.68945C9.23828 1.55273 9.43359 1.5625 9.58008 1.68945L17.2656 8.14453C17.4512 8.29102 17.6562 8.42773 17.9004 8.42773C18.3105 8.42773 18.6426 8.17383 18.6426 7.75391C18.6426 7.49023 18.5645 7.31445 18.3789 7.1582L10.3125 0.380859C9.70703-0.126953 8.95508-0.126953 8.34961 0.380859L0.273438 7.1582C0.0878906 7.31445 0 7.5293 0 7.72461ZM14.1895 4.02344L16.2891 5.80078L16.2891 2.24609C16.2891 1.875 16.0449 1.64062 15.6836 1.64062L14.8047 1.64062C14.4336 1.64062 14.1895 1.875 14.1895 2.24609Z" fill="var(--color-secondary)"/>
  <path d="M11.5234 8.19336C11.8945 8.10547 12.0117 8.01758 12.0117 7.55859L12.0117 5.99609C12.0117 5.69336 11.9043 5.55664 11.4941 5.66406L9.16992 6.24023C8.7793 6.33789 8.69141 6.41602 8.69141 6.88477L8.69141 10.3418C8.69141 10.6934 8.66211 10.7617 8.26172 10.8691L7.54883 11.0547C6.83594 11.2402 6.23047 11.6602 6.23047 12.4414C6.23047 13.1055 6.73828 13.5938 7.5293 13.5938C8.66211 13.5938 9.44336 12.7832 9.44336 11.6406L9.44336 9.04297C9.44336 8.75 9.51172 8.67188 9.67773 8.63281Z" fill="var(--color-primary)"/>
 </g>
</svg>
