<svg version="1.1" xmlns="http://www.w3.org/2000/svg" xmlns:xlink="http://www.w3.org/1999/xlink" width="16.1328" height="15.7715" viewBox="0 0 16.1328 15.7715">
 <g>
  <rect height="15.7715" opacity="0" width="16.1328" x="0" y="0"/>
  <path d="M7.88086 15.7617C12.1875 15.7617 15.7715 12.1875 15.7715 7.88086C15.7715 3.57422 12.1777 0 7.87109 0C3.57422 0 0 3.57422 0 7.88086C0 12.1875 3.58398 15.7617 7.88086 15.7617ZM7.88086 14.2773C4.33594 14.2773 1.50391 11.4355 1.50391 7.88086C1.50391 4.32617 4.32617 1.48438 7.87109 1.48438C11.4258 1.48438 14.2773 4.32617 14.2773 7.88086C14.2773 11.4355 11.4355 14.2773 7.88086 14.2773Z" fill="var(--color-secondary)"/>
  <path d="M5.56641 11.3965C5.98633 11.3965 6.23047 11.1426 6.23047 10.7031L6.23047 6.58203L6.2793 6.58203L9.49219 11.0059C9.70703 11.3086 9.88281 11.3965 10.1562 11.3965C10.5762 11.3965 10.8203 11.1426 10.8203 10.7031L10.8203 4.88281C10.8203 4.44336 10.5762 4.18945 10.1562 4.18945C9.75586 4.18945 9.52148 4.46289 9.52148 4.88281L9.52148 9.10156L9.46289 9.10156L6.25977 4.58984C6.04492 4.27734 5.84961 4.18945 5.57617 4.18945C5.16602 4.18945 4.93164 4.46289 4.93164 4.89258L4.93164 10.7031C4.93164 11.1328 5.16602 11.3965 5.56641 11.3965Z" fill="var(--color-primary)"/>
 </g>
</svg>
