<svg version="1.1" xmlns="http://www.w3.org/2000/svg" xmlns:xlink="http://www.w3.org/1999/xlink" viewBox="0 0 14.5898 14.248">
 <g>
  <rect height="14.248" opacity="0" width="14.5898" x="0" y="0"/>
  <path d="M14.2285 2.4707L14.2285 11.7871C14.2285 13.4277 13.4082 14.248 11.7383 14.248L2.49023 14.248C0.830078 14.248 0 13.4277 0 11.7871L0 2.4707C0 0.830078 0.830078 0.00976562 2.49023 0.00976562L11.7383 0.00976562C13.4082 0.00976562 14.2285 0.830078 14.2285 2.4707ZM3.94531 4.05273L3.94531 9.82422C3.94531 10.1367 4.15039 10.3418 4.43359 10.3418C4.7168 10.3418 4.92188 10.1367 4.92188 9.82422L4.92188 8.59375L5.36133 8.16406L6.73828 10.0879C6.85547 10.2441 6.98242 10.3418 7.1875 10.3418C7.44141 10.3418 7.64648 10.1562 7.64648 9.91211C7.64648 9.78516 7.58789 9.67773 7.50977 9.56055L6.06445 7.55859L7.40234 6.17188C7.50977 6.04492 7.57812 5.97656 7.57812 5.82031C7.57812 5.5957 7.39258 5.40039 7.14844 5.40039C7.00195 5.40039 6.85547 5.47852 6.75781 5.58594L4.94141 7.56836L4.92188 7.56836L4.92188 4.0625C4.92188 3.75 4.7168 3.54492 4.43359 3.54492C4.15039 3.54492 3.94531 3.74023 3.94531 4.05273ZM9.43359 6.33789L9.39453 6.33789L9.39453 5.88867C9.39453 5.61523 9.19922 5.40039 8.95508 5.40039C8.69141 5.40039 8.49609 5.61523 8.49609 5.88867L8.49609 9.82422C8.49609 10.1367 8.67188 10.3418 8.97461 10.3418C9.17969 10.3418 9.43359 10.2148 9.43359 9.82422L9.43359 7.44141C9.43359 6.89453 9.63867 6.32812 10.293 6.32812C10.4688 6.32812 10.6445 6.30859 10.7617 6.21094C10.8691 6.15234 10.9277 6.03516 10.9277 5.87891C10.9277 5.57617 10.7129 5.40039 10.4004 5.40039C9.90234 5.40039 9.54102 5.83984 9.43359 6.33789Z" fill="var(--color-primary)"/>
 </g>
</svg>
