<svg version="1.1" xmlns="http://www.w3.org/2000/svg" xmlns:xlink="http://www.w3.org/1999/xlink" viewBox="0 0 18.9844 15.498">
 <g>
  <rect height="15.498" opacity="0" width="18.9844" x="0" y="0"/>
  <path d="M18.623 9.30664C18.623 7.03125 17.8125 4.94141 16.4453 3.31055C16.2891 3.125 16.0352 3.125 15.8594 3.30078L14.0332 5.13672C13.8867 5.2832 13.8867 5.48828 14.0137 5.6543C14.8047 6.66016 15.2734 7.92969 15.2734 9.30664C15.2734 10.6836 14.8047 11.9531 13.9551 13.0371C13.8574 13.1641 13.8672 13.3203 13.9746 13.4277L15.8594 15.3125C16.0352 15.4883 16.2891 15.4883 16.4453 15.3027C17.8125 13.6816 18.623 11.5918 18.623 9.30664Z" fill="var(--color-primary)"/>
  <path d="M9.31641 3.34961C10.7031 3.34961 11.9727 3.82812 12.9883 4.61914C13.1445 4.73633 13.3398 4.72656 13.4863 4.58008L15.3223 2.75391C15.498 2.57812 15.4883 2.32422 15.3027 2.16797C13.6816 0.810547 11.5918 0 9.31641 0C7.04102 0 4.94141 0.810547 3.33008 2.16797C3.14453 2.32422 3.13477 2.57812 3.31055 2.75391L5.13672 4.58008C5.2832 4.72656 5.48828 4.73633 5.6543 4.60938C6.66992 3.82812 7.93945 3.34961 9.31641 3.34961Z" fill="var(--color-primary)"/>
  <path d="M0 9.30664C0 11.5918 0.820312 13.6816 2.17773 15.3027C2.33398 15.4883 2.58789 15.4883 2.76367 15.3125L4.64844 13.4277C4.76562 13.3203 4.77539 13.1641 4.66797 13.0371C3.82812 11.9531 3.35938 10.6836 3.35938 9.30664C3.35938 7.92969 3.82812 6.66016 4.61914 5.6543C4.74609 5.48828 4.74609 5.2832 4.59961 5.13672L2.76367 3.30078C2.58789 3.125 2.33398 3.125 2.17773 3.31055C0.820312 4.94141 0 7.03125 0 9.30664Z" fill="var(--color-primary)"/>
  <path d="M6.73828 12.5098C7.01172 12.5098 7.19727 12.3047 7.19727 12.0117L7.19727 10.8203L7.62695 10.4102L8.95508 12.2559C9.0625 12.4121 9.19922 12.5098 9.38477 12.5098C9.62891 12.5098 9.82422 12.3242 9.82422 12.0898C9.82422 11.9629 9.77539 11.8652 9.69727 11.7578L8.30078 9.83398L9.58984 8.48633C9.70703 8.35938 9.75586 8.30078 9.75586 8.14453C9.75586 7.92969 9.58008 7.73438 9.3457 7.73438C9.20898 7.73438 9.0625 7.82227 8.97461 7.91992L7.2168 9.83398L7.19727 9.83398L7.19727 6.45508C7.19727 6.16211 7.01172 5.95703 6.73828 5.95703C6.46484 5.95703 6.25977 6.15234 6.25977 6.44531L6.25977 12.0117C6.25977 12.3047 6.46484 12.5098 6.73828 12.5098ZM11.1035 12.5098C11.3086 12.5098 11.5527 12.3828 11.5527 12.0117L11.5527 9.70703C11.5527 9.17969 11.748 8.64258 12.3828 8.64258C12.5488 8.64258 12.7148 8.61328 12.832 8.52539C12.9297 8.4668 12.9883 8.35938 12.9883 8.20312C12.9883 7.91016 12.7832 7.73438 12.4805 7.73438C12.002 7.73438 11.6602 8.16406 11.5527 8.64258L11.5137 8.64258L11.5137 8.21289C11.5137 7.94922 11.3184 7.73438 11.084 7.73438C10.8398 7.73438 10.6543 7.94922 10.6543 8.21289L10.6543 12.0117C10.6543 12.3047 10.8105 12.5098 11.1035 12.5098Z" fill="var(--color-primary)"/>
 </g>
</svg>
