<svg version="1.1" xmlns="http://www.w3.org/2000/svg" xmlns:xlink="http://www.w3.org/1999/xlink" width="16.1328" height="15.7715" viewBox="0 0 16.1328 15.7715">
 <g>
  <rect height="15.7715" opacity="0" width="16.1328" x="0" y="0"/>
  <path d="M7.88086 15.7617C12.1875 15.7617 15.7715 12.1875 15.7715 7.88086C15.7715 3.57422 12.1777 0 7.87109 0C3.57422 0 0 3.57422 0 7.88086C0 12.1875 3.58398 15.7617 7.88086 15.7617Z" fill="var(--color-tertiary)"/>
  <path d="M7.89062 11.6309C5.83008 11.6309 4.38477 10.0586 4.38477 7.80273C4.38477 5.53711 5.83008 3.95508 7.89062 3.95508C9.94141 3.95508 11.3867 5.53711 11.3867 7.80273C11.3867 10.0586 9.94141 11.6309 7.89062 11.6309ZM7.89062 10.5176C9.13086 10.5176 9.94141 9.44336 9.94141 7.80273C9.94141 6.15234 9.13086 5.07812 7.89062 5.07812C6.64062 5.07812 5.83008 6.15234 5.83008 7.80273C5.83008 9.44336 6.64062 10.5176 7.89062 10.5176Z" fill="var(--color-primary)"/>
 </g>
</svg>
