<svg version="1.1" xmlns="http://www.w3.org/2000/svg" xmlns:xlink="http://www.w3.org/1999/xlink" viewBox="0 0 17.4617 16.0948">
 <g>
  <rect height="16.0948" opacity="0" width="17.4617" x="0" y="0"/>
  <path d="M0.215242 14.1167C1.66055 16.0992 4.64884 16.7437 6.61173 15.3472C8.30118 14.1558 8.66251 12.2613 7.51993 10.6597C6.40665 9.08744 4.74649 8.68705 3.39884 9.65385C2.11954 10.5718 2.57852 11.939 1.89493 12.4371C1.2504 12.896 0.723055 12.6421 0.293367 12.9546C-0.0191327 13.189-0.13632 13.6285 0.215242 14.1167ZM2.04141 14.0288C1.98282 13.9605 1.98282 13.8921 2.03165 13.8433C2.10977 13.7652 2.51016 13.6871 2.82266 13.3746C3.57462 12.6226 3.32071 11.5093 4.21915 10.8355C4.92227 10.3081 5.85977 10.523 6.48477 11.3921C7.17813 12.3394 6.89493 13.482 5.84024 14.2535C4.69766 15.0933 3.0961 15.0933 2.04141 14.0288ZM7.94962 12.3589C8.76993 12.2417 9.50235 11.8121 10.2934 11.021C12.7934 8.52104 16.475 3.09135 16.7973 2.6519C17.8227 1.24565 16.0551-0.502402 14.6391 0.493692C14.1996 0.806192 8.76016 4.4683 6.26016 6.9976C5.49845 7.77885 5.04923 8.5015 4.93204 9.30229L6.30899 9.69291C6.31876 9.14604 6.62149 8.61869 7.25626 7.99369C9.70743 5.58158 15.0199 1.95854 15.3031 1.74369C15.4789 1.61674 15.6742 1.79252 15.5375 1.98783C15.3715 2.23197 11.7289 7.60307 9.29727 10.0347C8.6918 10.6304 8.21329 10.9038 7.70548 10.9722ZM9.18985 10.2984L10.2934 10.0152C10.2055 8.54057 8.79923 7.10502 7.36368 6.9976L6.97305 8.10111C7.89102 8.04252 9.21915 9.36088 9.18985 10.2984Z" fill="var(--color-primary)"/>
 </g>
</svg>
