<svg version="1.1" xmlns="http://www.w3.org/2000/svg" xmlns:xlink="http://www.w3.org/1999/xlink" width="19.375" height="16.4355" viewBox="0 0 19.375 16.4355">
 <g>
  <rect height="16.4355" opacity="0" width="19.375" x="0" y="0"/>
  <path d="M1.40625 0.703125L1.40625 15.7227C1.40625 16.1035 1.09375 16.4258 0.703125 16.4258C0.322266 16.4258 0 16.1035 0 15.7227L0 0.703125C0 0.322266 0.322266 0 0.703125 0C1.09375 0 1.40625 0.322266 1.40625 0.703125ZM19.0137 0.703125L19.0137 15.7227C19.0137 16.1035 18.6914 16.4258 18.3105 16.4258C17.9199 16.4258 17.6074 16.1035 17.6074 15.7227L17.6074 14.3066L16.6504 14.3066L16.6504 13.1738L17.6074 13.1738L17.6074 10.6348L16.6504 10.6348L16.6504 9.50195L17.6074 9.50195L17.6074 6.96289L16.6504 6.96289L16.6504 5.83008L17.6074 5.83008L17.6074 3.28125L16.6504 3.28125L16.6504 2.1582L17.6074 2.1582L17.6074 0.703125C17.6074 0.322266 17.9199 0 18.3105 0C18.6914 0 19.0137 0.322266 19.0137 0.703125Z" fill="var(--color-secondary)"/>
  <path d="M2.94922 4.21875L16.0645 4.21875C16.416 4.21875 16.6504 3.98438 16.6504 3.64258L16.6504 1.79688C16.6504 1.45508 16.416 1.2207 16.0645 1.2207L2.94922 1.2207C2.59766 1.2207 2.36328 1.45508 2.36328 1.79688L2.36328 3.64258C2.36328 3.98438 2.59766 4.21875 2.94922 4.21875ZM2.94922 7.89062L16.0645 7.89062C16.416 7.89062 16.6504 7.66602 16.6504 7.31445L16.6504 5.46875C16.6504 5.12695 16.416 4.89258 16.0645 4.89258L2.94922 4.89258C2.59766 4.89258 2.36328 5.12695 2.36328 5.46875L2.36328 7.31445C2.36328 7.66602 2.59766 7.89062 2.94922 7.89062ZM2.94922 11.5625L16.0645 11.5625C16.416 11.5625 16.6504 11.3379 16.6504 10.9961L16.6504 9.14062C16.6504 8.79883 16.416 8.57422 16.0645 8.57422L2.94922 8.57422C2.59766 8.57422 2.36328 8.79883 2.36328 9.14062L2.36328 10.9961C2.36328 11.3379 2.59766 11.5625 2.94922 11.5625ZM2.94922 15.2441L16.0645 15.2441C16.416 15.2441 16.6504 15.0098 16.6504 14.668L16.6504 12.8223C16.6504 12.4707 16.416 12.2461 16.0645 12.2461L2.94922 12.2461C2.59766 12.2461 2.36328 12.4707 2.36328 12.8223L2.36328 14.668C2.36328 15.0098 2.59766 15.2441 2.94922 15.2441Z" fill="var(--color-primary)"/>
 </g>
</svg>
