<svg version="1.1" xmlns="http://www.w3.org/2000/svg" xmlns:xlink="http://www.w3.org/1999/xlink" width="14.1016" height="17.3926" viewBox="0 0 14.1016 17.3926">
 <g>
  <rect height="17.3926" opacity="0" width="14.1016" x="0" y="0"/>
  <path d="M0 2.08984L2.08984 2.08984L2.08984 0.917969C2.08984 0.332031 1.78711 0 1.26953 0L0.820312 0C0.292969 0 0 0.341797 0 0.917969ZM0 15.3125L0.751953 17.0703C0.839844 17.2656 1.15234 17.2852 1.25 17.0801L2.08984 15.3223L2.08984 3.04688L0 3.04688ZM7.91992 17.2559L11.8164 17.2559C12.9492 17.2559 13.7402 16.4648 13.7402 15.332L13.7402 2.07031C13.7402 0.927734 12.9492 0.126953 11.8164 0.126953L7.91992 0.126953C6.79688 0.126953 6.00586 0.917969 6.00586 2.06055L6.00586 15.3223C6.00586 16.4648 6.79688 17.2559 7.91992 17.2559ZM8.16406 15.9863C7.63672 15.9863 7.28516 15.6348 7.28516 15.127L7.28516 2.26562C7.28516 1.75781 7.63672 1.40625 8.16406 1.40625L11.5723 1.40625C12.0996 1.40625 12.4609 1.75781 12.4609 2.26562L12.4609 15.1172C12.4609 15.625 12.0996 15.9863 11.5723 15.9863ZM12.8906 2.91016L12.8906 2.29492L9.18945 2.29492C9.02344 2.29492 8.89648 2.42188 8.89648 2.60742C8.89648 2.76367 9.01367 2.91016 9.17969 2.91016ZM12.8906 4.12109L12.8906 3.52539L10.4102 3.52539C10.2344 3.52539 10.1172 3.64258 10.1172 3.82812C10.1172 3.99414 10.2246 4.12109 10.4004 4.12109ZM12.8906 5.35156L12.8906 4.74609L10.4102 4.74609C10.2344 4.74609 10.1172 4.87305 10.1172 5.04883C10.1172 5.21484 10.2246 5.35156 10.4004 5.35156ZM12.8906 6.5625L12.8906 5.95703L10.4102 5.95703C10.2344 5.95703 10.1172 6.07422 10.1172 6.25C10.1172 6.42578 10.2246 6.5625 10.4004 6.5625ZM12.8906 7.7832L12.8906 7.16797L10.4102 7.16797C10.2344 7.16797 10.1172 7.29492 10.1172 7.49023C10.1172 7.63672 10.2246 7.7832 10.4004 7.7832ZM12.8906 8.98438L12.8906 8.39844L9.18945 8.39844C9.02344 8.39844 8.89648 8.50586 8.89648 8.69141C8.89648 8.86719 9.01367 8.98438 9.17969 8.98438ZM12.8906 10.2246L12.8906 9.60938L10.4102 9.60938C10.2344 9.60938 10.1172 9.73633 10.1172 9.90234C10.1172 10.0781 10.2246 10.2246 10.4004 10.2246ZM12.8906 11.4355L12.8906 10.8301L10.4102 10.8301C10.2344 10.8301 10.1172 10.9473 10.1172 11.1328C10.1172 11.2988 10.2246 11.4355 10.4004 11.4355ZM12.8906 12.6465L12.8906 12.041L10.4102 12.041C10.2344 12.041 10.1172 12.168 10.1172 12.3438C10.1172 12.5 10.2246 12.6465 10.4004 12.6465ZM12.8906 13.8574L12.8906 13.2617L10.4102 13.2617C10.2344 13.2617 10.1172 13.3691 10.1172 13.5547C10.1172 13.7305 10.2246 13.8574 10.4004 13.8574ZM12.8906 15.0879L12.8906 14.4727L9.18945 14.4727C9.02344 14.4727 8.89648 14.5996 8.89648 14.7754C8.89648 14.9414 9.01367 15.0879 9.17969 15.0879Z" fill="var(--color-primary)"/>
 </g>
</svg>
