<svg version="1.1" xmlns="http://www.w3.org/2000/svg" xmlns:xlink="http://www.w3.org/1999/xlink" viewBox="0 0 19.082 13.8379">
 <g>
  <rect height="13.8379" opacity="0" width="19.082" x="0" y="0"/>
  <path d="M1.35742 13.8281L11.5527 13.8281C12.4121 13.8281 12.9199 13.4375 12.9199 12.7832C12.9199 10.8008 10.4395 8.06641 6.45508 8.06641C2.48047 8.06641 0 10.8008 0 12.7832C0 13.4375 0.507812 13.8281 1.35742 13.8281ZM6.45508 6.69922C8.0957 6.69922 9.54102 5.22461 9.54102 3.30078C9.54102 1.38672 8.0957 0 6.45508 0C4.82422 0 3.37891 1.42578 3.37891 3.32031C3.37891 5.22461 4.82422 6.69922 6.45508 6.69922Z" fill="var(--color-primary)"/>
  <path d="M14.4434 7.17773C14.7363 7.17773 14.9707 7.04102 15.1465 6.76758L18.5059 1.45508C18.6133 1.28906 18.7207 1.08398 18.7207 0.888672C18.7207 0.498047 18.3789 0.253906 18.0078 0.253906C17.7832 0.253906 17.5684 0.380859 17.4121 0.644531L14.4043 5.50781L13.0566 3.69141C12.8516 3.41797 12.6465 3.33984 12.4121 3.33984C12.0312 3.33984 11.7383 3.65234 11.7383 4.0332C11.7383 4.21875 11.8164 4.41406 11.9336 4.57031L13.6914 6.76758C13.916 7.06055 14.1504 7.17773 14.4434 7.17773Z" fill="var(--color-primary)"/>
 </g>
</svg>
