<svg version="1.1" xmlns="http://www.w3.org/2000/svg" xmlns:xlink="http://www.w3.org/1999/xlink" viewBox="0 0 18.4766 14.248">
 <g>
  <rect height="14.248" opacity="0" width="18.4766" x="0" y="0"/>
  <path d="M2.49023 14.248L15.625 14.248C17.2949 14.248 18.1152 13.4277 18.1152 11.7871L18.1152 2.4707C18.1152 0.830078 17.2949 0.00976562 15.625 0.00976562L2.49023 0.00976562C0.830078 0.00976562 0 0.830078 0 2.4707L0 11.7871C0 13.4277 0.830078 14.248 2.49023 14.248ZM2.50977 12.832C1.80664 12.832 1.40625 12.4512 1.40625 11.7188L1.40625 2.53906C1.40625 1.79688 1.80664 1.42578 2.50977 1.42578L15.6055 1.42578C16.3086 1.42578 16.709 1.79688 16.709 2.53906L16.709 11.7188C16.709 12.4512 16.3086 12.832 15.6055 12.832Z" fill="var(--color-primary)"/>
  <path d="M3.52539 10.3027L7.64648 10.3027C8.4082 10.3027 8.75977 9.94141 8.75977 9.21875L8.75977 5.03906C8.75977 4.31641 8.4082 3.95508 7.64648 3.95508L3.52539 3.95508C2.7832 3.95508 2.41211 4.31641 2.41211 5.03906L2.41211 9.21875C2.41211 9.94141 2.7832 10.3027 3.52539 10.3027ZM3.30078 9.51172C3.58398 8.80859 4.47266 8.29102 5.58594 8.29102C6.69922 8.29102 7.59766 8.80859 7.88086 9.51172ZM5.58594 7.76367C4.93164 7.76367 4.41406 7.20703 4.41406 6.47461C4.41406 5.77148 4.93164 5.21484 5.58594 5.21484C6.25 5.21484 6.76758 5.77148 6.76758 6.47461C6.76758 7.20703 6.25 7.76367 5.58594 7.76367ZM12.7832 10.2051C13.2422 10.2051 13.7207 10.166 14.0332 10.0293C14.2578 9.93164 14.4043 9.79492 14.4043 9.57031C14.4043 9.35547 14.248 9.19922 14.0332 9.19922C13.9648 9.19922 13.9062 9.20898 13.8281 9.21875C13.584 9.25781 13.3691 9.35547 12.8809 9.35547C11.4453 9.35547 10.5859 8.53516 10.5859 7.14844C10.5859 5.78125 11.4551 4.85352 12.7441 4.85352C14.0332 4.85352 14.8828 5.6543 14.8828 6.85547C14.8828 7.54883 14.6777 7.98828 14.3555 7.98828C14.1699 7.98828 14.1113 7.93945 14.1113 7.7832L14.1113 5.91797C14.1113 5.66406 13.9258 5.47852 13.6816 5.47852C13.5059 5.47852 13.3301 5.60547 13.2715 5.76172L13.2715 5.78125C13.1055 5.58594 12.8711 5.47852 12.5195 5.47852C11.7188 5.47852 11.1523 6.17188 11.1523 7.12891C11.1523 8.13477 11.7188 8.80859 12.5488 8.80859C12.8906 8.80859 13.2031 8.65234 13.418 8.38867C13.5938 8.65234 13.9062 8.80859 14.2773 8.80859C15.1367 8.80859 15.7227 7.99805 15.7227 6.79688C15.7227 5.15625 14.502 4.0332 12.7441 4.0332C10.918 4.0332 9.6875 5.2832 9.6875 7.13867C9.6875 8.99414 10.918 10.2051 12.7832 10.2051ZM12.6855 7.94922C12.3242 7.94922 12.0996 7.64648 12.0996 7.10938C12.0996 6.5918 12.3242 6.29883 12.6953 6.29883C13.0664 6.29883 13.3008 6.60156 13.3008 7.09961C13.3008 7.62695 13.0664 7.94922 12.6855 7.94922Z" fill="var(--color-primary)"/>
 </g>
</svg>
