<svg version="1.1" xmlns="http://www.w3.org/2000/svg" xmlns:xlink="http://www.w3.org/1999/xlink" viewBox="0 0 17.7734 16.5527">
 <g>
  <rect height="16.5527" opacity="0" width="17.7734" x="0" y="0"/>
  <path d="M9.6875 0.283203L16.2109 4.04297C16.5234 4.23828 16.6797 4.46289 16.6797 4.72656C16.6797 5.07812 16.3965 5.42969 15.918 5.42969L15.2637 5.42969L15.2637 13.9941L15.752 13.9941C16.1133 13.9941 16.3184 14.1992 16.3184 14.5508L16.3184 15.127L16.709 15.127C17.0898 15.127 17.4121 15.4492 17.4121 15.8301C17.4121 16.2207 17.0898 16.543 16.709 16.543L0.703125 16.543C0.322266 16.543 0 16.2207 0 15.8301C0 15.4492 0.322266 15.127 0.703125 15.127L1.10352 15.127L1.10352 14.5508C1.10352 14.1992 1.30859 13.9941 1.66992 13.9941L2.1582 13.9941L2.1582 5.42969L1.49414 5.42969C1.01562 5.42969 0.732422 5.07812 0.732422 4.72656C0.732422 4.46289 0.878906 4.23828 1.20117 4.04297L7.72461 0.283203C8.03711 0.0976562 8.37891 0 8.71094 0C9.0332 0 9.375 0.0976562 9.6875 0.283203ZM10.2051 5.57617L9.0332 12.5098C9.02344 12.5586 9.00391 12.6562 9.00391 12.7734C9.00391 13.0176 9.16016 13.2031 9.41406 13.2031C9.6875 13.2031 9.82422 13.0469 9.87305 12.7539L11.0547 5.82031C11.0645 5.77148 11.084 5.67383 11.084 5.55664C11.084 5.3125 10.9082 5.12695 10.6543 5.12695C10.3906 5.12695 10.2637 5.2832 10.2051 5.57617ZM4.96094 6.92383C4.96094 7.88086 5.52734 8.41797 6.42578 8.74023L6.89453 8.90625C7.44141 9.0918 7.85156 9.38477 7.85156 9.96094C7.85156 10.4785 7.49023 10.8789 6.86523 10.8789C6.31836 10.8789 5.95703 10.6055 5.81055 10.0391C5.74219 9.79492 5.57617 9.6875 5.3418 9.6875C5.08789 9.6875 4.90234 9.89258 4.90234 10.166C4.90234 10.2637 4.92188 10.3906 4.95117 10.4688C5.23438 11.2891 5.9082 11.7188 6.8457 11.7188C8.22266 11.7188 8.83789 10.8887 8.83789 9.86328C8.83789 8.75977 8.17383 8.35938 7.32422 8.04688L6.86523 7.87109C6.32812 7.67578 5.94727 7.43164 5.94727 6.85547C5.94727 6.36719 6.24023 5.97656 6.81641 5.97656C7.29492 5.97656 7.64648 6.24023 7.80273 6.78711C7.86133 7.04102 8.03711 7.13867 8.27148 7.13867C8.52539 7.13867 8.69141 6.95312 8.69141 6.69922C8.69141 6.64062 8.68164 6.55273 8.66211 6.46484C8.45703 5.63477 7.74414 5.12695 6.82617 5.12695C5.5957 5.12695 4.96094 5.95703 4.96094 6.92383ZM11.5625 11.0449C11.5625 11.3867 11.8164 11.6504 12.1484 11.6504C12.5 11.6504 12.7637 11.3867 12.7637 11.0449C12.7637 10.7129 12.5 10.4492 12.1484 10.4492C11.8164 10.4492 11.5625 10.7129 11.5625 11.0449Z" fill="var(--color-primary)"/>
 </g>
</svg>
