<svg version="1.1" xmlns="http://www.w3.org/2000/svg" xmlns:xlink="http://www.w3.org/1999/xlink" width="14.5898" height="14.248" viewBox="0 0 14.5898 14.248">
 <g>
  <rect height="14.248" opacity="0" width="14.5898" x="0" y="0"/>
  <path d="M2.49023 14.248L11.7383 14.248C13.4082 14.248 14.2285 13.4277 14.2285 11.7871L14.2285 2.4707C14.2285 0.830078 13.4082 0.00976562 11.7383 0.00976562L2.49023 0.00976562C0.830078 0.00976562 0 0.830078 0 2.4707L0 11.7871C0 13.4277 0.830078 14.248 2.49023 14.248Z" fill="var(--color-tertiary)"/>
  <path d="M4.11133 5.85938C4.11133 5.5957 4.29688 5.42969 4.53125 5.42969L5.0293 5.42969L5.0293 4.01367C5.0293 3.66211 5.25391 3.41797 5.60547 3.41797L7.57812 3.41797C8.89648 3.41797 9.85352 4.22852 10.0586 5.42969L10.4297 5.42969C10.6836 5.42969 10.8496 5.5957 10.8496 5.85938C10.8496 6.09375 10.6836 6.28906 10.4297 6.28906L10.0781 6.28906C9.91211 7.55859 8.92578 8.42773 7.57812 8.42773L6.20117 8.42773L6.20117 10.5957C6.20117 10.9375 5.9668 11.1816 5.625 11.1816C5.29297 11.1816 5.0293 10.9375 5.0293 10.5957L5.0293 6.28906L4.53125 6.28906C4.29688 6.28906 4.11133 6.09375 4.11133 5.85938ZM6.21094 7.36328L7.37305 7.36328C8.21289 7.36328 8.75 6.97266 8.87695 6.28906L6.21094 6.28906ZM6.21094 5.42969L8.85742 5.42969C8.69141 4.81445 8.16406 4.48242 7.37305 4.48242L6.21094 4.48242Z" fill="var(--color-primary)"/>
 </g>
</svg>
