<svg version="1.1" xmlns="http://www.w3.org/2000/svg" xmlns:xlink="http://www.w3.org/1999/xlink" viewBox="0 0 17.7734 16.5527">
 <g>
  <rect height="16.5527" opacity="0" width="17.7734" x="0" y="0"/>
  <path d="M9.6875 0.283203L16.2109 4.04297C16.5234 4.23828 16.6797 4.46289 16.6797 4.72656C16.6797 5.07812 16.3965 5.42969 15.918 5.42969L15.2637 5.42969L15.2637 13.9941L15.752 13.9941C16.1133 13.9941 16.3184 14.1992 16.3184 14.5508L16.3184 15.127L16.709 15.127C17.0898 15.127 17.4121 15.4492 17.4121 15.8301C17.4121 16.2207 17.0898 16.543 16.709 16.543L0.703125 16.543C0.322266 16.543 0 16.2207 0 15.8301C0 15.4492 0.322266 15.127 0.703125 15.127L1.10352 15.127L1.10352 14.5508C1.10352 14.1992 1.30859 13.9941 1.66992 13.9941L2.1582 13.9941L2.1582 5.42969L1.49414 5.42969C1.01562 5.42969 0.732422 5.07812 0.732422 4.72656C0.732422 4.46289 0.878906 4.23828 1.20117 4.04297L7.72461 0.283203C8.03711 0.0976562 8.37891 0 8.71094 0C9.0332 0 9.375 0.0976562 9.6875 0.283203ZM7.10938 5.11719C6.78711 5.11719 6.5918 5.32227 6.5918 5.6543L6.5918 6.67969L6.07422 6.67969C5.9082 6.67969 5.77148 6.80664 5.77148 6.97266C5.77148 7.12891 5.9082 7.25586 6.07422 7.25586L6.5918 7.25586L6.5918 7.95898L6.07422 7.95898C5.9082 7.95898 5.77148 8.07617 5.77148 8.24219C5.77148 8.4082 5.9082 8.52539 6.07422 8.52539L6.5918 8.52539L6.5918 11.9336C6.5918 12.2656 6.78711 12.4609 7.10938 12.4609C7.42188 12.4609 7.63672 12.2656 7.63672 11.9336L7.63672 10.0879L9.0625 10.0879C10.1758 10.0879 10.9863 9.44336 11.2988 8.52539L11.7969 8.52539C11.9629 8.52539 12.0996 8.39844 12.0996 8.24219C12.0996 8.07617 11.9629 7.95898 11.7969 7.95898L11.4355 7.95898C11.4453 7.8418 11.4551 7.71484 11.4551 7.58789C11.4551 7.48047 11.4453 7.36328 11.4355 7.25586L11.7969 7.25586C11.9629 7.25586 12.0996 7.11914 12.0996 6.97266C12.0996 6.80664 11.9629 6.67969 11.7969 6.67969L11.3086 6.67969C11.0059 5.78125 10.2246 5.11719 9.08203 5.11719ZM8.82812 9.22852L7.63672 9.22852L7.63672 8.52539L10.1855 8.52539C9.93164 8.97461 9.46289 9.22852 8.82812 9.22852ZM10.4102 7.58789C10.4102 7.71484 10.4004 7.8418 10.3809 7.95898L7.63672 7.95898L7.63672 7.25586L10.3809 7.25586C10.4004 7.36328 10.4102 7.4707 10.4102 7.58789ZM10.1953 6.67969L7.63672 6.67969L7.63672 5.97656L8.82812 5.97656C9.47266 5.97656 9.94141 6.23047 10.1953 6.67969Z" fill="var(--color-primary)"/>
 </g>
</svg>
