<svg version="1.1" xmlns="http://www.w3.org/2000/svg" xmlns:xlink="http://www.w3.org/1999/xlink" width="16.1328" height="15.7715" viewBox="0 0 16.1328 15.7715">
 <g>
  <rect height="15.7715" opacity="0" width="16.1328" x="0" y="0"/>
  <path d="M7.88086 15.7715C12.1875 15.7715 15.7715 12.1973 15.7715 7.89062C15.7715 3.58398 12.1777 0.00976562 7.87109 0.00976562C3.57422 0.00976562 0 3.58398 0 7.89062C0 12.1973 3.58398 15.7715 7.88086 15.7715Z" fill="var(--color-tertiary)"/>
  <path d="M6.01562 9.7168C4.15039 7.86133 2.98828 5.54688 4.36523 4.16016C4.39453 4.13086 4.42383 4.10156 4.47266 4.07227C5.03906 3.64258 5.51758 3.62305 5.83008 4.07227L6.78711 5.42969C7.14844 5.92773 7.04102 6.19141 6.68945 6.5625L6.38672 6.875C6.2793 6.99219 6.32812 7.13867 6.37695 7.2168C6.54297 7.49023 6.92383 7.95898 7.35352 8.37891C7.7832 8.81836 8.23242 9.18945 8.51562 9.35547C8.62305 9.42383 8.7793 9.43359 8.86719 9.3457L9.17969 9.04297C9.51172 8.70117 9.80469 8.60352 10.3027 8.94531C10.8008 9.29688 11.2402 9.60938 11.6699 9.91211C12.1582 10.2637 12.0508 10.8203 11.7285 11.2012C11.6797 11.25 11.6309 11.3184 11.5723 11.377C10.1953 12.7441 7.88086 11.6016 6.01562 9.7168Z" fill="var(--color-primary)"/>
 </g>
</svg>
