<svg version="1.1" xmlns="http://www.w3.org/2000/svg" xmlns:xlink="http://www.w3.org/1999/xlink" viewBox="0 0 16.1328 15.7715">
 <g>
  <rect height="15.7715" opacity="0" width="16.1328" x="0" y="0"/>
  <path d="M7.88086 15.7617C12.2363 15.7617 15.7715 12.2363 15.7715 7.88086C15.7715 3.52539 12.2363 0 7.88086 0C3.53516 0 0 3.52539 0 7.88086C0 12.2363 3.53516 15.7617 7.88086 15.7617ZM7.88086 14.2773C4.3457 14.2773 1.49414 11.416 1.49414 7.88086C1.49414 4.3457 4.3457 1.48438 7.88086 1.48438C11.416 1.48438 14.2773 4.3457 14.2773 7.88086C14.2773 11.416 11.416 14.2773 7.88086 14.2773Z" fill="var(--color-primary)"/>
  <path d="M6.11328 9.61914C7.34375 10.8594 8.82812 11.7969 10.0195 11.7969C10.5762 11.7969 11.0547 11.582 11.377 11.2207C11.6895 10.8789 11.7871 10.625 11.7871 10.3906C11.7871 10.2148 11.6797 10.0488 11.3965 9.85352L10.3809 9.12109C10.127 8.93555 10.0098 8.90625 9.85352 8.90625C9.72656 8.90625 9.62891 8.92578 9.4043 9.05273L8.73047 9.42383C8.65234 9.46289 8.61328 9.47266 8.55469 9.47266C8.47656 9.47266 8.42773 9.45312 8.34961 9.42383C8.01758 9.26758 7.56836 8.91602 7.16797 8.52539C6.77734 8.13477 6.46484 7.71484 6.29883 7.41211C6.28906 7.36328 6.25977 7.29492 6.25977 7.22656C6.25977 7.17773 6.28906 7.12891 6.31836 7.07031L6.70898 6.39648C6.82617 6.21094 6.85547 6.11328 6.85547 5.9668C6.85547 5.80078 6.80664 5.625 6.64062 5.40039L5.9375 4.41406C5.74219 4.13086 5.58594 3.96484 5.36133 3.96484C5.07812 3.96484 4.74609 4.17969 4.50195 4.41406C4.15039 4.74609 3.96484 5.21484 3.96484 5.75195C3.96484 6.94336 4.88281 8.38867 6.11328 9.61914Z" fill="var(--color-primary)"/>
 </g>
</svg>
