<svg version="1.1" xmlns="http://www.w3.org/2000/svg" xmlns:xlink="http://www.w3.org/1999/xlink" width="18.5279" height="6.82617" viewBox="0 0 18.5279 6.82617">
 <g>
  <rect height="6.82617" opacity="0" width="18.5279" x="0" y="0"/>
  <path d="M9.08819 0C5.69952 0 2.55499 0.703125 1.00226 2.25586C0.308896 2.94922-0.0524317 3.79883 0.00616208 4.83398C0.035459 5.46875 0.250303 6.00586 0.611631 6.36719C0.894834 6.65039 1.26593 6.80664 1.69562 6.73828L4.54718 6.25977C5.00616 6.18164 5.31866 6.05469 5.51397 5.85938C5.76788 5.60547 5.82647 5.23438 5.82647 4.75586L5.82647 3.99414C5.82647 3.86719 5.88507 3.7793 5.95343 3.70117C6.03155 3.60352 6.15851 3.56445 6.2464 3.54492C6.77374 3.42773 7.84796 3.32031 9.08819 3.32031C10.3187 3.32031 11.3831 3.39844 11.93 3.54492C12.0081 3.56445 12.1155 3.61328 12.2034 3.70117C12.2816 3.7793 12.3304 3.85742 12.3304 3.98438L12.3304 4.75586C12.3304 5.23438 12.3987 5.60547 12.6526 5.85938C12.848 6.05469 13.1507 6.18164 13.6097 6.25977L16.4515 6.73828C16.8909 6.81641 17.2718 6.64062 17.5745 6.34766C17.9456 6.00586 18.1507 5.45898 18.1702 4.83398C18.1995 3.79883 17.8089 2.94922 17.1155 2.25586C15.553 0.693359 12.4671 0 9.08819 0Z" fill="var(--color-primary)"/>
 </g>
</svg>
