<svg version="1.1" xmlns="http://www.w3.org/2000/svg" xmlns:xlink="http://www.w3.org/1999/xlink" viewBox="0 0 14.6875 14.873">
 <g>
  <rect height="14.873" opacity="0" width="14.6875" x="0" y="0"/>
  <path d="M4.18945 14.873L10.1367 14.873C12.334 14.873 13.6328 13.5449 13.6328 11.2988L13.6328 3.58398C13.6328 1.33789 12.334 0.0195312 10.1367 0.0195312L4.18945 0.0195312C1.99219 0.0195312 0.693359 1.33789 0.693359 3.58398L0.693359 11.2988C0.693359 13.5449 1.99219 14.873 4.18945 14.873ZM4.12109 13.5156C2.82227 13.5156 2.05078 12.7148 2.05078 11.3672L2.05078 3.56445C2.05078 2.2168 2.82227 1.42578 4.12109 1.42578L10.2051 1.42578C11.5039 1.42578 12.2754 2.2168 12.2754 3.56445L12.2754 11.3672C12.2754 12.7148 11.5039 13.5156 10.2051 13.5156ZM13.5254 6.64062L13.8574 6.64062C14.3652 6.64062 14.6875 6.28906 14.6875 5.74219L14.6875 4.49219C14.6875 3.92578 14.3652 3.58398 13.8574 3.58398L13.5254 3.58398Z" fill="var(--color-primary)"/>
  <path d="M3.08594 11.4648C3.08594 12.0996 3.4375 12.4805 4.02344 12.4805L10.3027 12.4805C10.8887 12.4805 11.2402 12.0996 11.2402 11.4648L11.2402 9.96094C11.2402 9.35547 10.8691 8.95508 10.3027 8.95508L4.02344 8.95508C3.45703 8.95508 3.08594 9.35547 3.08594 9.96094Z" fill="var(--color-primary)"/>
 </g>
</svg>
