<svg version="1.1" xmlns="http://www.w3.org/2000/svg" xmlns:xlink="http://www.w3.org/1999/xlink" viewBox="0 0 17.7734 16.5527">
 <g>
  <rect height="16.5527" opacity="0" width="17.7734" x="0" y="0"/>
  <path d="M9.6875 0.283203L16.2109 4.04297C16.5234 4.23828 16.6797 4.46289 16.6797 4.72656C16.6797 5.07812 16.3965 5.42969 15.918 5.42969L15.2637 5.42969L15.2637 13.9941L15.752 13.9941C16.1133 13.9941 16.3184 14.1992 16.3184 14.5508L16.3184 15.127L16.709 15.127C17.0898 15.127 17.4121 15.4492 17.4121 15.8301C17.4121 16.2207 17.0898 16.543 16.709 16.543L0.703125 16.543C0.322266 16.543 0 16.2207 0 15.8301C0 15.4492 0.322266 15.127 0.703125 15.127L1.10352 15.127L1.10352 14.5508C1.10352 14.1992 1.30859 13.9941 1.66992 13.9941L2.1582 13.9941L2.1582 5.42969L1.49414 5.42969C1.01562 5.42969 0.732422 5.07812 0.732422 4.72656C0.732422 4.46289 0.878906 4.23828 1.20117 4.04297L7.72461 0.283203C8.03711 0.0976562 8.37891 0 8.71094 0C9.0332 0 9.375 0.0976562 9.6875 0.283203ZM10.0684 5.79102L10.0684 8.47656L9.48242 8.76953C9.30664 8.86719 9.22852 9.01367 9.22852 9.15039C9.22852 9.4043 9.49219 9.63867 9.83398 9.45312L10.0684 9.33594L10.0684 11.5625C10.0684 11.8848 10.2539 12.0801 10.5566 12.0801C10.8496 12.0801 11.0449 11.8848 11.0449 11.5625L11.0449 8.83789L11.709 8.48633C11.8848 8.38867 11.9629 8.25195 11.9629 8.11523C11.9629 7.86133 11.6895 7.62695 11.3867 7.77344L11.0449 7.95898L11.0449 5.80078C11.0449 5.46875 10.8496 5.2832 10.5566 5.2832C10.2539 5.2832 10.0684 5.46875 10.0684 5.79102ZM6.02539 7.22656C5.79102 7.22656 5.625 7.39258 5.625 7.60742C5.625 7.83203 5.79102 7.98828 6.02539 7.98828L7.77344 7.98828L7.77344 8.0957L5.77148 11.1816C5.69336 11.3086 5.625 11.4258 5.625 11.5625C5.625 11.8164 5.80078 11.9922 6.06445 11.9922L8.55469 11.9922C8.78906 11.9922 8.96484 11.8262 8.96484 11.6016C8.96484 11.3867 8.78906 11.2305 8.55469 11.2305L6.86523 11.2305L6.86523 11.1328L8.75 8.13477C8.84766 7.96875 8.91602 7.86133 8.91602 7.68555C8.91602 7.44141 8.7793 7.22656 8.4375 7.22656Z" fill="var(--color-primary)"/>
 </g>
</svg>
