<svg version="1.1" xmlns="http://www.w3.org/2000/svg" xmlns:xlink="http://www.w3.org/1999/xlink" viewBox="0 0 14.5898 14.248">
 <g>
  <rect height="14.248" opacity="0" width="14.5898" x="0" y="0"/>
  <path d="M14.2285 2.4707L14.2285 11.7871C14.2285 13.4277 13.4082 14.248 11.7383 14.248L2.49023 14.248C0.830078 14.248 0 13.4277 0 11.7871L0 2.4707C0 0.830078 0.830078 0.00976562 2.49023 0.00976562L11.7383 0.00976562C13.4082 0.00976562 14.2285 0.830078 14.2285 2.4707ZM4.04297 3.36914C3.58398 3.36914 3.25195 3.70117 3.25195 4.15039L3.25195 10.1074C3.25195 10.5566 3.58398 10.8887 4.04297 10.8887L10.2051 10.8887C10.6543 10.8887 10.9863 10.5566 10.9863 10.1074L10.9863 4.15039C10.9863 3.70117 10.6543 3.36914 10.2051 3.36914ZM6.34766 8.92578L6.34766 9.32617C6.34766 9.54102 6.20117 9.67773 6.00586 9.67773L4.79492 9.67773C4.58008 9.67773 4.43359 9.54102 4.43359 9.32617L4.43359 8.92578C4.43359 8.7207 4.58008 8.57422 4.79492 8.57422L6.00586 8.57422C6.20117 8.57422 6.34766 8.7207 6.34766 8.92578ZM9.80469 8.92578L9.80469 9.32617C9.80469 9.54102 9.6582 9.67773 9.44336 9.67773L8.25195 9.67773C8.03711 9.67773 7.89062 9.54102 7.89062 9.32617L7.89062 8.92578C7.89062 8.7207 8.03711 8.57422 8.25195 8.57422L9.44336 8.57422C9.6582 8.57422 9.80469 8.7207 9.80469 8.92578ZM7.67578 4.88281L7.67578 6.16211C7.67578 6.38672 7.51953 6.51367 7.31445 6.51367L6.92383 6.51367C6.70898 6.51367 6.57227 6.38672 6.57227 6.16211L6.57227 4.88281C6.57227 4.66797 6.70898 4.53125 6.92383 4.53125L7.31445 4.53125C7.51953 4.53125 7.67578 4.66797 7.67578 4.88281Z" fill="var(--color-primary)"/>
 </g>
</svg>
