<svg version="1.1" xmlns="http://www.w3.org/2000/svg" xmlns:xlink="http://www.w3.org/1999/xlink" viewBox="0 0 14.5898 14.248">
 <g>
  <rect height="14.248" opacity="0" width="14.5898" x="0" y="0"/>
  <path d="M14.2285 2.4707L14.2285 11.7871C14.2285 13.4277 13.4082 14.248 11.7383 14.248L2.49023 14.248C0.830078 14.248 0 13.4277 0 11.7871L0 2.4707C0 0.830078 0.830078 0.00976562 2.49023 0.00976562L11.7383 0.00976562C13.4082 0.00976562 14.2285 0.830078 14.2285 2.4707ZM4.02344 3.35938C3.57422 3.35938 3.24219 3.69141 3.24219 4.14062L3.24219 10.0977C3.24219 10.5469 3.57422 10.8789 4.02344 10.8789L10.2051 10.8789C10.6543 10.8789 10.9961 10.5469 10.9961 10.0977L10.9961 4.14062C10.9961 3.69141 10.6543 3.35938 10.2051 3.35938ZM6.19141 8.75C6.19141 9.20898 5.82031 9.57031 5.37109 9.57031C4.91211 9.57031 4.54102 9.20898 4.54102 8.75C4.54102 8.29102 4.91211 7.92969 5.37109 7.92969C5.82031 7.92969 6.19141 8.29102 6.19141 8.75ZM9.70703 8.75C9.70703 9.20898 9.33594 9.57031 8.87695 9.57031C8.42773 9.57031 8.05664 9.20898 8.05664 8.75C8.05664 8.29102 8.42773 7.92969 8.87695 7.92969C9.33594 7.92969 9.70703 8.29102 9.70703 8.75ZM7.94922 5.48828C7.94922 5.94727 7.57812 6.30859 7.12891 6.30859C6.66992 6.30859 6.29883 5.94727 6.29883 5.48828C6.29883 5.0293 6.66992 4.66797 7.12891 4.66797C7.57812 4.66797 7.94922 5.0293 7.94922 5.48828Z" fill="var(--color-primary)"/>
 </g>
</svg>
