<svg version="1.1" xmlns="http://www.w3.org/2000/svg" xmlns:xlink="http://www.w3.org/1999/xlink" width="15.0488" height="14.248" viewBox="0 0 15.0488 14.248">
 <g>
  <rect height="14.248" opacity="0" width="15.0488" x="0" y="0"/>
  <path d="M2.49023 14.248L12.1973 14.248C13.8672 14.248 14.6875 13.4277 14.6875 11.7871L14.6875 2.4707C14.6875 0.830078 13.8672 0.00976562 12.1973 0.00976562L2.49023 0.00976562C0.830078 0.00976562 0 0.830078 0 2.4707L0 11.7871C0 13.4277 0.830078 14.248 2.49023 14.248Z" fill="var(--color-tertiary)"/>
  <path d="M4.58008 7.06055C4.13086 7.06055 3.79883 6.72852 3.79883 6.26953L3.79883 3.88672C3.79883 3.44727 4.13086 3.08594 4.58008 3.08594C5.01953 3.08594 5.37109 3.44727 5.37109 3.88672L5.37109 6.26953C5.37109 6.72852 5.01953 7.06055 4.58008 7.06055ZM6.42578 11.5137C6.14258 11.5137 6.01562 11.377 6.01562 11.1133L6.01562 10.2441C6.01562 9.49219 6.5918 8.90625 7.34375 8.90625C8.0957 8.90625 8.67188 9.50195 8.67188 10.2441L8.67188 11.1133C8.67188 11.377 8.54492 11.5137 8.27148 11.5137ZM10.0977 7.06055C9.6582 7.06055 9.31641 6.72852 9.31641 6.26953L9.31641 3.88672C9.31641 3.44727 9.6582 3.08594 10.0977 3.08594C10.5371 3.08594 10.8887 3.44727 10.8887 3.88672L10.8887 6.26953C10.8887 6.72852 10.5371 7.06055 10.0977 7.06055Z" fill="var(--color-primary)"/>
 </g>
</svg>
