<svg version="1.1" xmlns="http://www.w3.org/2000/svg" xmlns:xlink="http://www.w3.org/1999/xlink" viewBox="0 0 11.6113 17.6855">
 <g>
  <rect height="17.6855" opacity="0" width="11.6113" x="0" y="0"/>
  <path d="M4.79492 17.6758L6.44531 17.6758C7.50977 17.6758 8.125 17.0801 8.125 16.0059L8.125 12.8711C8.125 12.168 8.48633 11.8359 9.19922 11.3184C10.5469 10.332 11.25 8.79883 11.25 7.20703L11.25 5.56641C11.25 4.50195 10.6445 4.0625 9.58008 4.0625L8.99414 4.0625L8.99414 1.04492C8.99414 0.458984 8.53516 0 7.95898 0C7.38281 0 6.91406 0.458984 6.91406 1.04492L6.91406 4.0625L4.3457 4.0625L4.3457 1.04492C4.3457 0.458984 3.86719 0 3.30078 0C2.72461 0 2.25586 0.458984 2.25586 1.04492L2.25586 4.0625L1.65039 4.0625C0.566406 4.0625 0 4.50195 0 5.56641L0 7.20703C0 8.79883 0.673828 10.332 2.04102 11.3184C2.75391 11.8359 3.125 12.168 3.125 12.8711L3.125 16.0059C3.125 17.0703 3.70117 17.6758 4.79492 17.6758ZM4.79492 16.2598C4.63867 16.2598 4.53125 16.1621 4.53125 16.0059L4.53125 12.8711C4.53125 11.6895 3.93555 10.957 2.88086 10.1855C1.82617 9.41406 1.40625 8.4668 1.40625 7.20703L1.40625 5.73242C1.40625 5.57617 1.50391 5.47852 1.65039 5.47852L9.58008 5.47852C9.73633 5.47852 9.84375 5.57617 9.84375 5.73242L9.84375 7.20703C9.84375 8.45703 9.4043 9.41406 8.35938 10.1855C7.30469 10.957 6.70898 11.6797 6.70898 12.8711L6.70898 16.0059C6.70898 16.1621 6.60156 16.2598 6.44531 16.2598Z" fill="var(--color-primary)"/>
 </g>
</svg>
