<svg version="1.1" xmlns="http://www.w3.org/2000/svg" xmlns:xlink="http://www.w3.org/1999/xlink" viewBox="0 0 14.5898 14.248">
 <g>
  <rect height="14.248" opacity="0" width="14.5898" x="0" y="0"/>
  <path d="M14.2285 2.4707L14.2285 11.7871C14.2285 13.4277 13.4082 14.248 11.7383 14.248L2.49023 14.248C0.830078 14.248 0 13.4277 0 11.7871L0 2.4707C0 0.830078 0.830078 0.00976562 2.49023 0.00976562L11.7383 0.00976562C13.4082 0.00976562 14.2285 0.830078 14.2285 2.4707ZM5.71289 2.43164C5.25391 2.43164 4.92188 2.76367 4.92188 3.21289L4.92188 11.0254C4.92188 11.4746 5.25391 11.8164 5.71289 11.8164L8.52539 11.8164C8.97461 11.8164 9.30664 11.4746 9.30664 11.0254L9.30664 3.21289C9.30664 2.76367 8.97461 2.43164 8.52539 2.43164ZM7.93945 9.73633C7.93945 10.1953 7.56836 10.5664 7.11914 10.5664C6.66016 10.5664 6.28906 10.1953 6.28906 9.73633C6.28906 9.28711 6.66016 8.91602 7.11914 8.91602C7.56836 8.91602 7.93945 9.28711 7.93945 9.73633ZM7.93945 7.11914C7.93945 7.57812 7.56836 7.93945 7.11914 7.93945C6.66016 7.93945 6.28906 7.57812 6.28906 7.11914C6.28906 6.66016 6.66016 6.29883 7.11914 6.29883C7.56836 6.29883 7.93945 6.66016 7.93945 7.11914ZM7.93945 4.50195C7.93945 4.95117 7.56836 5.32227 7.11914 5.32227C6.66016 5.32227 6.28906 4.95117 6.28906 4.50195C6.28906 4.04297 6.66016 3.67188 7.11914 3.67188C7.56836 3.67188 7.93945 4.04297 7.93945 4.50195Z" fill="var(--color-primary)"/>
 </g>
</svg>
