<svg version="1.1" xmlns="http://www.w3.org/2000/svg" xmlns:xlink="http://www.w3.org/1999/xlink" width="16.328" height="17.9492" viewBox="0 0 16.328 17.9492">
 <g>
  <rect height="17.9492" opacity="0" width="16.328" x="0" y="0"/>
  <path d="M0.195252 13.3252C-0.156311 13.9307-0.0391234 14.6143 0.595642 14.8877L7.57806 17.876C7.8222 17.9736 8.14447 17.9736 8.38861 17.876L15.371 14.8877C16.0058 14.6143 16.123 13.9307 15.7714 13.3252L8.74017 1.03027C8.5058 0.620117 8.23236 0.551758 7.97845 0.551758C7.73431 0.551758 7.46088 0.620117 7.2265 1.03027ZM1.61127 13.5791L7.86127 2.73926C7.89056 2.68066 7.92963 2.65137 7.97845 2.65137C8.03705 2.65137 8.07611 2.68066 8.10541 2.73926L14.3456 13.5791C14.4238 13.7256 14.3847 13.833 14.2773 13.8818L8.10541 16.6748C8.01752 16.7139 7.94916 16.7139 7.86127 16.6846L1.68939 13.8818C1.58197 13.833 1.53314 13.7256 1.61127 13.5791ZM7.32416 17.2705L8.64252 17.2705L8.64252 1.91895L7.32416 1.91895Z" fill="var(--color-primary)"/>
 </g>
</svg>
