<svg version="1.1" xmlns="http://www.w3.org/2000/svg" xmlns:xlink="http://www.w3.org/1999/xlink" width="16.1328" height="15.7715" viewBox="0 0 16.1328 15.7715">
 <g>
  <rect height="15.7715" opacity="0" width="16.1328" x="0" y="0"/>
  <path d="M7.88086 15.7617C12.1875 15.7617 15.7715 12.1875 15.7715 7.88086C15.7715 3.57422 12.1777 0 7.87109 0C3.57422 0 0 3.57422 0 7.88086C0 12.1875 3.58398 15.7617 7.88086 15.7617Z" fill="var(--color-tertiary)"/>
  <path d="M7.89062 11.6309C5.83008 11.6309 4.38477 10.0391 4.38477 7.7832C4.38477 5.52734 5.83008 3.94531 7.89062 3.94531C9.94141 3.94531 11.3867 5.52734 11.3867 7.7832C11.3867 9.0918 10.9082 10.166 10.1074 10.8301L10.5371 11.4062C10.7129 11.6309 10.7617 11.7383 10.7617 11.9043C10.7617 12.2168 10.5371 12.4316 10.2246 12.4316C10 12.4316 9.83398 12.3438 9.6582 12.1094L9.14062 11.416C8.75977 11.5527 8.33984 11.6309 7.89062 11.6309ZM7.89062 10.5078C8.07617 10.5078 8.25195 10.4785 8.41797 10.4395L8.10547 10.0098C7.98828 9.85352 7.93945 9.7168 7.93945 9.56055C7.93945 9.27734 8.18359 9.05273 8.47656 9.05273C8.68164 9.05273 8.81836 9.13086 8.95508 9.30664L9.33594 9.80469C9.72656 9.33594 9.94141 8.64258 9.94141 7.7832C9.94141 6.14258 9.13086 5.07812 7.89062 5.07812C6.64062 5.07812 5.83008 6.14258 5.83008 7.7832C5.83008 9.44336 6.64062 10.5078 7.89062 10.5078Z" fill="var(--color-primary)"/>
 </g>
</svg>
