<svg version="1.1" xmlns="http://www.w3.org/2000/svg" xmlns:xlink="http://www.w3.org/1999/xlink" viewBox="0 0 20.0586 12.6465">
 <g>
  <rect height="12.6465" opacity="0" width="20.0586" x="0" y="0"/>
  <path d="M4.11133 12.6367L11.9824 12.6367C13.8965 12.6367 15.0586 11.5039 15.0586 9.58984L15.0586 3.04688C15.0586 1.13281 13.8965 0 11.9824 0L4.11133 0C2.29492 0 1.02539 1.13281 1.02539 3.04688L1.02539 9.58984C1.02539 11.5039 2.1875 12.6367 4.11133 12.6367ZM4.3457 11.3184C3.14453 11.3184 2.43164 10.6934 2.43164 9.39453L2.43164 3.24219C2.43164 1.94336 3.14453 1.31836 4.3457 1.31836L11.748 1.31836C12.9395 1.31836 13.6523 1.94336 13.6523 3.24219L13.6523 9.39453C13.6523 10.6934 12.9395 11.3184 11.748 11.3184ZM14.873 4.08203L14.873 5.74219L18.5059 2.71484C18.5449 2.67578 18.5742 2.66602 18.623 2.66602C18.6816 2.66602 18.7012 2.71484 18.7012 2.7832L18.7012 9.85352C18.7012 9.92188 18.6816 9.9707 18.623 9.9707C18.5742 9.9707 18.5449 9.95117 18.5059 9.92188L14.873 6.89453L14.873 8.55469L17.8613 11.123C18.1738 11.3867 18.5352 11.5625 18.8574 11.5625C19.5801 11.5625 20.0586 11.0352 20.0586 10.2832L20.0586 2.35352C20.0586 1.60156 19.5801 1.07422 18.8574 1.07422C18.5352 1.07422 18.1738 1.25 17.8613 1.51367Z" fill="var(--color-primary)"/>
  <path d="M7.8125 7.82227C8.22266 7.82227 8.45703 7.57812 8.45703 7.26562C8.45703 7.25586 8.45703 7.22656 8.45703 7.2168C8.45703 6.8457 8.68164 6.60156 9.16016 6.29883C9.81445 5.86914 10.3418 5.45898 10.3418 4.58984C10.3418 3.35938 9.25781 2.74414 8.04688 2.74414C6.82617 2.74414 6.02539 3.29102 5.80078 3.90625C5.75195 4.02344 5.74219 4.15039 5.74219 4.27734C5.74219 4.61914 6.01562 4.81445 6.2793 4.81445C6.72852 4.81445 6.79688 4.57031 7.06055 4.27734C7.32422 3.97461 7.61719 3.80859 7.99805 3.80859C8.58398 3.80859 8.96484 4.14062 8.96484 4.64844C8.96484 5.11719 8.65234 5.32227 8.06641 5.74219C7.59766 6.07422 7.1875 6.44531 7.1875 7.14844C7.1875 7.16797 7.1875 7.1875 7.1875 7.20703C7.1875 7.61719 7.40234 7.82227 7.8125 7.82227ZM7.79297 9.94141C8.22266 9.94141 8.60352 9.60938 8.60352 9.16992C8.60352 8.73047 8.23242 8.38867 7.79297 8.38867C7.35352 8.38867 6.98242 8.73047 6.98242 9.16992C6.98242 9.59961 7.36328 9.94141 7.79297 9.94141Z" fill="var(--color-primary)"/>
 </g>
</svg>
