<svg version="1.1" xmlns="http://www.w3.org/2000/svg" xmlns:xlink="http://www.w3.org/1999/xlink" viewBox="0 0 13.3691 16.4746">
 <g>
  <rect height="16.4746" opacity="0" width="13.3691" x="0" y="0"/>
  <path d="M3.66211 10.7617C3.34961 10.7617 3.125 10.5273 3.125 10.2246C3.125 9.93164 3.34961 9.70703 3.66211 9.70703L9.35547 9.70703C9.64844 9.70703 9.88281 9.93164 9.88281 10.2246C9.88281 10.5273 9.64844 10.7617 9.35547 10.7617ZM3.66211 13.0371C3.34961 13.0371 3.125 12.8125 3.125 12.5195C3.125 12.2168 3.34961 11.9824 3.66211 11.9824L6.32812 11.9824C6.63086 11.9824 6.85547 12.2168 6.85547 12.5195C6.85547 12.8125 6.63086 13.0371 6.32812 13.0371ZM6.30859 6.89453C5.9375 6.89453 5.72266 6.70898 5.72266 6.31836C5.72266 6.30859 5.72266 6.28906 5.72266 6.2793C5.72266 5.64453 6.09375 5.3125 6.50391 5.0293C7.01172 4.67773 7.25586 4.50195 7.25586 4.13086C7.25586 3.71094 6.95312 3.44727 6.46484 3.44727C6.14258 3.44727 5.88867 3.57422 5.6543 3.88672L5.51758 4.0332C5.38086 4.20898 5.23438 4.31641 4.99023 4.31641C4.75586 4.31641 4.48242 4.13086 4.48242 3.80859C4.48242 3.71094 4.49219 3.62305 4.52148 3.54492C4.70703 2.85156 5.63477 2.45117 6.51367 2.45117C7.56836 2.45117 8.52539 2.99805 8.52539 4.08203C8.52539 4.84375 8.05664 5.21484 7.49023 5.58594C7.08984 5.84961 6.9043 6.03516 6.9043 6.33789C6.9043 6.34766 6.9043 6.36719 6.9043 6.37695C6.9043 6.66992 6.67969 6.89453 6.30859 6.89453ZM6.29883 8.7207C5.89844 8.7207 5.55664 8.4082 5.55664 8.01758C5.55664 7.60742 5.88867 7.29492 6.29883 7.29492C6.69922 7.29492 7.04102 7.60742 7.04102 8.01758C7.04102 8.41797 6.68945 8.7207 6.29883 8.7207ZM0 13.9746C0 15.6445 0.810547 16.4648 2.45117 16.4648L10.5469 16.4648C12.1875 16.4648 13.0078 15.6445 13.0078 13.9746L13.0078 2.49023C13.0078 0.830078 12.1875 0 10.5469 0L2.45117 0C0.810547 0 0 0.830078 0 2.49023Z" fill="var(--color-primary)"/>
 </g>
</svg>
