<svg version="1.1" xmlns="http://www.w3.org/2000/svg" xmlns:xlink="http://www.w3.org/1999/xlink" width="14.5898" height="14.248" viewBox="0 0 14.5898 14.248">
 <g>
  <rect height="14.248" opacity="0" width="14.5898" x="0" y="0"/>
  <path d="M2.49023 14.248L11.7383 14.248C13.4082 14.248 14.2285 13.4277 14.2285 11.7871L14.2285 2.4707C14.2285 0.830078 13.4082 0.00976562 11.7383 0.00976562L2.49023 0.00976562C0.830078 0.00976562 0 0.830078 0 2.4707L0 11.7871C0 13.4277 0.830078 14.248 2.49023 14.248Z" fill="var(--color-tertiary)"/>
  <path d="M5.05859 10.7812C4.59961 10.7812 4.35547 10.4492 4.35547 9.96094L4.35547 4.20898C4.35547 3.7207 4.59961 3.37891 5.05859 3.37891L7.37305 3.37891C9.05273 3.37891 10.1074 4.30664 10.1074 5.79102C10.1074 6.76758 9.51172 7.60742 8.60352 7.93945L9.7168 9.64844C9.82422 9.82422 9.86328 9.96094 9.86328 10.1562C9.86328 10.5273 9.59961 10.7812 9.20898 10.7812C8.88672 10.7812 8.71094 10.6445 8.49609 10.3027L7.17773 8.1543L5.79102 8.1543L5.79102 9.96094C5.79102 10.4688 5.53711 10.7812 5.05859 10.7812ZM5.79102 7.11914L7.14844 7.11914C8.0957 7.11914 8.68164 6.66992 8.68164 5.82031C8.68164 4.95117 8.07617 4.47266 7.17773 4.47266L5.79102 4.47266Z" fill="var(--color-primary)"/>
 </g>
</svg>
