<svg version="1.1" xmlns="http://www.w3.org/2000/svg" xmlns:xlink="http://www.w3.org/1999/xlink" width="20.4199" height="13.9822" viewBox="0 0 20.4199 13.9822">
 <g>
  <rect height="13.9822" opacity="0" width="20.4199" x="0" y="0"/>
  <path d="M0 7.85535C0 9.52527 0.292969 10.3261 1.5332 10.9608L5.83008 13.1776C7.45117 14.0077 8.63281 14.2225 10.4395 13.6952L17.0801 11.7616C19.1699 11.1561 20.0586 9.8866 20.0586 7.85535L20.0586 3.06043C20.0586 1.63464 19.082 0.648316 17.6758 0.648316L2.40234 0.63855C0.986328 0.63855 0 1.61511 0 3.03113Z" fill="var(--color-tertiary)"/>
  <path d="M6.08398 9.87683C5.6543 9.87683 5.41992 9.60339 5.41992 9.18347L5.41992 4.02722C5.41992 3.59753 5.6543 3.34363 6.07422 3.34363L7.43164 3.34363C8.69141 3.34363 9.49219 4.02722 9.49219 5.36511C9.49219 6.03894 9.25781 6.75183 8.62305 7.10339L9.28711 8.74402C9.38477 8.9491 9.43359 9.13464 9.43359 9.24207C9.43359 9.70105 9.12109 9.87683 8.82812 9.87683C8.4668 9.87683 8.27148 9.67175 8.14453 9.32996L7.38281 7.36707L6.72852 7.36707L6.72852 9.18347C6.72852 9.61316 6.48438 9.87683 6.08398 9.87683ZM6.72852 6.42957L7.31445 6.42957C7.91016 6.42957 8.17383 5.99011 8.17383 5.40418C8.17383 4.81824 7.88086 4.37878 7.31445 4.37878L6.72852 4.37878ZM12.3535 9.89636C11.4941 9.89636 10.6445 9.50574 10.4102 8.75378C10.3711 8.61707 10.3516 8.49011 10.3516 8.33386C10.3516 7.9823 10.5859 7.77722 10.9277 7.77722C11.2109 7.77722 11.4062 7.92371 11.4941 8.20691C11.5918 8.51941 11.8164 8.86121 12.3633 8.86121C12.9004 8.86121 13.1738 8.44128 13.1738 7.93347C13.1738 7.29871 12.8223 6.94714 12.1875 6.94714L12.0215 6.94714C11.7285 6.94714 11.5234 6.77136 11.5234 6.48816C11.5234 6.19519 11.7285 6.00964 12.0215 6.00964L12.1777 6.00964C12.7441 6.00964 13.0273 5.61902 13.0273 5.07214C13.0273 4.58386 12.8125 4.21277 12.3242 4.21277C11.9238 4.21277 11.6895 4.46668 11.5723 4.90613C11.4746 5.20886 11.2891 5.30652 10.9961 5.30652C10.6445 5.30652 10.4492 5.07214 10.4492 4.78894C10.4492 4.64246 10.4688 4.50574 10.5078 4.35925C10.7422 3.65613 11.4941 3.19714 12.3242 3.19714C13.3887 3.19714 14.248 3.80261 14.248 4.93543C14.248 5.59949 13.8965 6.23425 13.1738 6.42957L13.1738 6.45886C13.8086 6.52722 14.4434 6.97644 14.4434 7.99207C14.4434 9.18347 13.5254 9.89636 12.3535 9.89636Z" fill="var(--color-primary)"/>
 </g>
</svg>
