<svg version="1.1" xmlns="http://www.w3.org/2000/svg" xmlns:xlink="http://www.w3.org/1999/xlink" viewBox="0 0 16.1328 15.7715">
 <g>
  <rect height="15.7715" opacity="0" width="16.1328" x="0" y="0"/>
  <path d="M15.7715 7.88086C15.7715 12.2266 12.2363 15.7617 7.88086 15.7617C3.53516 15.7617 0 12.2266 0 7.88086C0 3.53516 3.53516 0 7.88086 0C12.2363 0 15.7715 3.53516 15.7715 7.88086ZM4.04297 4.04297C3.90625 4.18945 3.90625 4.45312 4.04297 4.58984L11.1816 11.7188C11.3281 11.8652 11.582 11.8652 11.7285 11.7188C11.8848 11.5625 11.8848 11.3184 11.7285 11.1719L4.60938 4.04297C4.45312 3.88672 4.20898 3.88672 4.04297 4.04297ZM5.00977 6.80664L5.00977 10.4785C5.00977 11.2305 5.38086 11.6016 6.13281 11.6016L10.2239 11.6016L5.04882 6.43359C5.02275 6.54523 5.00977 6.66961 5.00977 6.80664ZM7.1053 5.70313L12.1582 10.7422C12.2545 10.8385 12.3271 10.9467 12.3758 11.0611C12.4458 10.9026 12.4805 10.7083 12.4805 10.4785L12.4805 6.80664C12.4805 6.07422 12.1094 5.70312 11.3574 5.70312ZM3.25195 5.12695L3.25195 8.80859C3.25195 9.56055 3.62305 9.92188 4.375 9.92188L4.46289 9.92187L4.46289 6.80664C4.46289 6.50108 4.5165 6.23211 4.62052 6.00587L3.62305 5.00977C3.48924 4.87938 3.40244 4.71646 3.3637 4.54363C3.28902 4.70105 3.25195 4.89547 3.25195 5.12695ZM5.43079 4.0332L6.55692 5.15625L10.7227 5.15625L10.7227 5.12695C10.7227 4.39453 10.3516 4.0332 9.59961 4.0332Z" fill="var(--color-primary)"/>
 </g>
</svg>
