<svg version="1.1" xmlns="http://www.w3.org/2000/svg" xmlns:xlink="http://www.w3.org/1999/xlink" width="17.0508" height="14.248" viewBox="0 0 17.0508 14.248">
 <g>
  <rect height="14.248" opacity="0" width="17.0508" x="0" y="0"/>
  <path d="M13.5156 14.248L15.1367 14.248C16.1719 14.248 16.6895 13.7207 16.6895 12.6465L16.6895 9.3457C16.6895 8.27148 16.1719 7.75391 15.1367 7.75391L13.5156 7.75391C12.4707 7.75391 11.9531 8.27148 11.9531 9.3457L11.9531 12.6465C11.9531 13.7207 12.4707 14.248 13.5156 14.248ZM13.5254 13.0176C13.3008 13.0176 13.1738 12.8906 13.1738 12.6562L13.1738 9.3457C13.1738 9.10156 13.3008 8.97461 13.5254 8.97461L15.1172 8.97461C15.3516 8.97461 15.4688 9.10156 15.4688 9.3457L15.4688 12.6562C15.4688 12.8906 15.3516 13.0176 15.1172 13.0176Z" fill="var(--color-primary)"/>
  <path d="M7.53906 14.248L9.15039 14.248C10.1953 14.248 10.7129 13.7207 10.7129 12.6465L10.7129 9.3457C10.7129 8.27148 10.1953 7.75391 9.15039 7.75391L7.53906 7.75391C6.49414 7.75391 5.97656 8.27148 5.97656 9.3457L5.97656 12.6465C5.97656 13.7207 6.49414 14.248 7.53906 14.248ZM7.55859 13.0176C7.32422 13.0176 7.19727 12.8906 7.19727 12.6562L7.19727 9.3457C7.19727 9.10156 7.32422 8.97461 7.55859 8.97461L9.14062 8.97461C9.375 8.97461 9.49219 9.10156 9.49219 9.3457L9.49219 12.6562C9.49219 12.8906 9.375 13.0176 9.14062 13.0176Z" fill="var(--color-primary)"/>
  <path d="M1.5625 14.248L3.17383 14.248C4.21875 14.248 4.73633 13.7207 4.73633 12.6465L4.73633 9.3457C4.73633 8.27148 4.21875 7.75391 3.17383 7.75391L1.5625 7.75391C0.517578 7.75391 0 8.27148 0 9.3457L0 12.6465C0 13.7207 0.517578 14.248 1.5625 14.248ZM1.57227 13.0176C1.34766 13.0176 1.2207 12.8906 1.2207 12.6562L1.2207 9.3457C1.2207 9.10156 1.34766 8.97461 1.57227 8.97461L3.1543 8.97461C3.38867 8.97461 3.51562 9.10156 3.51562 9.3457L3.51562 12.6562C3.51562 12.8906 3.38867 13.0176 3.1543 13.0176Z" fill="var(--color-primary)"/>
  <path d="M13.5156 6.51367L15.1367 6.51367C16.1719 6.51367 16.6895 5.98633 16.6895 4.91211L16.6895 1.61133C16.6895 0.537109 16.1719 0.00976562 15.1367 0.00976562L13.5156 0.00976562C12.4707 0.00976562 11.9531 0.537109 11.9531 1.61133L11.9531 4.91211C11.9531 5.98633 12.4707 6.51367 13.5156 6.51367ZM13.5254 5.2832C13.3008 5.2832 13.1738 5.15625 13.1738 4.91211L13.1738 1.60156C13.1738 1.36719 13.3008 1.24023 13.5254 1.24023L15.1172 1.24023C15.3516 1.24023 15.4688 1.36719 15.4688 1.60156L15.4688 4.91211C15.4688 5.15625 15.3516 5.2832 15.1172 5.2832Z" fill="var(--color-primary)"/>
  <path d="M7.53906 6.51367L9.15039 6.51367C10.1953 6.51367 10.7129 5.98633 10.7129 4.91211L10.7129 1.61133C10.7129 0.537109 10.1953 0.00976562 9.15039 0.00976562L7.53906 0.00976562C6.49414 0.00976562 5.97656 0.537109 5.97656 1.61133L5.97656 4.91211C5.97656 5.98633 6.49414 6.51367 7.53906 6.51367ZM7.55859 5.2832C7.32422 5.2832 7.19727 5.15625 7.19727 4.91211L7.19727 1.60156C7.19727 1.36719 7.32422 1.24023 7.55859 1.24023L9.14062 1.24023C9.375 1.24023 9.49219 1.36719 9.49219 1.60156L9.49219 4.91211C9.49219 5.15625 9.375 5.2832 9.14062 5.2832Z" fill="var(--color-primary)"/>
  <path d="M1.5625 6.51367L3.17383 6.51367C4.21875 6.51367 4.73633 5.98633 4.73633 4.91211L4.73633 1.61133C4.73633 0.537109 4.21875 0.00976562 3.17383 0.00976562L1.5625 0.00976562C0.517578 0.00976562 0 0.537109 0 1.61133L0 4.91211C0 5.98633 0.517578 6.51367 1.5625 6.51367ZM1.57227 5.2832C1.34766 5.2832 1.2207 5.15625 1.2207 4.91211L1.2207 1.60156C1.2207 1.36719 1.34766 1.24023 1.57227 1.24023L3.1543 1.24023C3.38867 1.24023 3.51562 1.36719 3.51562 1.60156L3.51562 4.91211C3.51562 5.15625 3.38867 5.2832 3.1543 5.2832Z" fill="var(--color-primary)"/>
 </g>
</svg>
