<svg version="1.1" xmlns="http://www.w3.org/2000/svg" xmlns:xlink="http://www.w3.org/1999/xlink" width="13.3691" height="16.4746" viewBox="0 0 13.3691 16.4746">
 <g>
  <rect height="16.4746" opacity="0" width="13.3691" x="0" y="0"/>
  <path d="M0 13.9746C0 15.6445 0.810547 16.4648 2.45117 16.4648L10.5469 16.4648C12.1875 16.4648 13.0078 15.6445 13.0078 13.9746L13.0078 2.49023C13.0078 0.830078 12.1875 0 10.5469 0L2.45117 0C0.810547 0 0 0.830078 0 2.49023ZM1.40625 13.9551L1.40625 2.50977C1.40625 1.80664 1.78711 1.40625 2.5293 1.40625L10.4785 1.40625C11.2109 1.40625 11.5918 1.80664 11.5918 2.50977L11.5918 13.9551C11.5918 14.6582 11.2109 15.0586 10.4785 15.0586L2.5293 15.0586C1.78711 15.0586 1.40625 14.6582 1.40625 13.9551Z" fill="var(--color-secondary)"/>
  <path d="M7.11914 8.23242L9.83398 8.23242C10.2832 8.23242 10.459 8.07617 10.459 7.63672L10.459 3.1543C10.459 2.70508 10.2832 2.54883 9.83398 2.54883L7.11914 2.54883C6.66992 2.54883 6.50391 2.70508 6.50391 3.1543L6.50391 7.63672C6.50391 8.07617 6.66992 8.23242 7.11914 8.23242Z" fill="var(--color-primary)"/>
 </g>
</svg>
