<svg version="1.1" xmlns="http://www.w3.org/2000/svg" xmlns:xlink="http://www.w3.org/1999/xlink" viewBox="0 0 18.6621 13.9551">
 <g>
  <rect height="13.9551" opacity="0" width="18.6621" x="0" y="0"/>
  <path d="M18.3008 5.87891L18.3008 8.06641C18.3008 12.2656 16.6113 13.9453 12.0801 13.9453L6.2207 13.9453C1.68945 13.9453 0 12.2656 0 8.06641L0 5.87891C0 1.67969 1.68945 0 6.2207 0L12.0801 0C16.6113 0 18.3008 1.67969 18.3008 5.87891ZM4.35547 3.7793C3.94531 3.7793 3.70117 4.0332 3.70117 4.46289L3.70117 9.61914C3.70117 10.0391 3.94531 10.3125 4.36523 10.3125C4.77539 10.3125 5.01953 10.0488 5.01953 9.61914L5.01953 7.8125L5.66406 7.8125L6.42578 9.76562C6.55273 10.1074 6.75781 10.3125 7.10938 10.3125C7.39258 10.3125 7.72461 10.1367 7.72461 9.67773C7.72461 9.58008 7.65625 9.38477 7.57812 9.16992L6.9043 7.53906C7.53906 7.1875 7.77344 6.47461 7.77344 5.80078C7.77344 4.46289 6.97266 3.7793 5.71289 3.7793ZM12.5977 4.4043L11.6211 8.48633L11.5918 8.48633L10.5957 4.4043C10.4883 3.90625 10.1855 3.67188 9.69727 3.67188C9.13086 3.67188 8.7793 4.01367 8.7793 4.58008L8.7793 9.6875C8.7793 10.0684 9.01367 10.3027 9.35547 10.3027C9.7168 10.3027 9.94141 10.0684 9.94141 9.6875L9.94141 5.6543L9.99023 5.6543L10.9766 9.59961C11.0645 9.94141 11.2695 10.1758 11.6113 10.1758C11.9727 10.1758 12.1582 9.94141 12.2461 9.58984L13.2227 5.6543L13.2812 5.6543L13.2812 9.6875C13.2812 10.0684 13.4766 10.3027 13.8477 10.3027C14.2383 10.3027 14.4238 10.0684 14.4238 9.6875L14.4238 4.58008C14.4238 3.99414 14.0723 3.67188 13.5156 3.67188C13.0078 3.67188 12.7051 3.91602 12.5977 4.4043ZM6.45508 5.83008C6.45508 6.42578 6.19141 6.86523 5.5957 6.86523L5.01953 6.86523L5.01953 4.81445L5.5957 4.81445C6.16211 4.81445 6.45508 5.25391 6.45508 5.83008Z" fill="var(--color-primary)"/>
 </g>
</svg>
