<svg version="1.1" xmlns="http://www.w3.org/2000/svg" xmlns:xlink="http://www.w3.org/1999/xlink" width="16.1328" height="15.7715" viewBox="0 0 16.1328 15.7715">
 <g>
  <rect height="15.7715" opacity="0" width="16.1328" x="0" y="0"/>
  <path d="M7.88086 15.7617C12.1875 15.7617 15.7715 12.1875 15.7715 7.88086C15.7715 3.57422 12.1777 0 7.87109 0C3.57422 0 0 3.57422 0 7.88086C0 12.1875 3.58398 15.7617 7.88086 15.7617Z" fill="var(--color-tertiary)"/>
  <path d="M5.41016 11.9336C5.10742 11.9336 4.90234 11.6895 4.90234 11.3281L4.90234 4.60938C4.90234 4.24805 5.11719 4.01367 5.41992 4.01367L6.37695 4.01367C7.56836 4.01367 8.16406 4.77539 8.16406 6.31836C8.16406 7.27539 7.8125 8.11523 7.1875 8.45703L8.07617 11.0645C8.125 11.2012 8.14453 11.2891 8.14453 11.4062C8.14453 11.6992 7.92969 11.9336 7.64648 11.9336C7.42188 11.9336 7.24609 11.8359 7.1582 11.5625L6.21094 8.68164L5.91797 8.68164L5.91797 11.3477C5.91797 11.709 5.70312 11.9336 5.41016 11.9336ZM5.91797 7.66602L6.26953 7.66602C6.875 7.66602 7.13867 7.23633 7.13867 6.35742C7.13867 5.48828 6.875 5.03906 6.30859 5.03906L5.91797 5.03906ZM9.94141 11.9434C9.05273 11.9434 8.52539 11.3477 8.4375 10.5273C8.42773 10.4395 8.42773 10.3516 8.42773 10.2637C8.42773 9.90234 8.60352 9.6875 8.90625 9.6875C9.19922 9.6875 9.375 9.89258 9.39453 10.2441C9.43359 10.7031 9.58008 10.9863 9.94141 10.9863C10.2637 10.9863 10.4492 10.752 10.4492 10.3223C10.4492 9.94141 10.2832 9.67773 9.89258 9.46289L9.58984 9.29688C8.81836 8.89648 8.49609 8.36914 8.49609 7.56836C8.49609 6.5918 9.08203 5.92773 9.94141 5.92773C10.7617 5.92773 11.2695 6.55273 11.3672 7.34375C11.377 7.43164 11.377 7.50977 11.377 7.60742C11.377 7.95898 11.2012 8.18359 10.8887 8.18359C10.5859 8.18359 10.4395 7.96875 10.4102 7.62695C10.3711 7.1582 10.2832 6.89453 9.93164 6.89453C9.64844 6.89453 9.48242 7.12891 9.48242 7.5293C9.48242 7.90039 9.66797 8.125 10.0879 8.34961L10.3906 8.51562C11.1816 8.95508 11.4551 9.44336 11.4551 10.2539C11.4551 11.2695 10.8496 11.9434 9.94141 11.9434Z" fill="var(--color-primary)"/>
 </g>
</svg>
