<svg version="1.1" xmlns="http://www.w3.org/2000/svg" xmlns:xlink="http://www.w3.org/1999/xlink" width="16.9238" height="16.4355" viewBox="0 0 16.9238 16.4355">
 <g>
  <rect height="16.4355" opacity="0" width="16.9238" x="0" y="0"/>
  <path d="M0 3.78906C0 4.29688 0.351562 4.63867 0.869141 4.63867L2.80273 4.63867L2.80273 13.9355C2.80273 15.6055 3.61328 16.4258 5.2832 16.4258L14.0625 16.4258C15.5566 16.4258 16.5625 15.3906 16.5625 13.8379L16.5625 11.7578C16.5625 11.25 16.2109 10.9082 15.6934 10.9082L15.1074 10.9082L15.1074 2.49023C15.1074 0.830078 14.2969 0 12.6562 0L2.10938 0C0.849609 0 0 0.869141 0 2.1875ZM4.20898 13.9453L4.20898 2.1875C4.20898 1.92383 4.19922 1.66016 4.18945 1.40625L12.5781 1.40625C13.3203 1.40625 13.7012 1.80664 13.7012 2.50977L13.7012 10.9082L7.2168 10.9082C6.69922 10.9082 6.34766 11.25 6.34766 11.7578L6.34766 13.9453C6.34766 14.5703 5.87891 15.0195 5.2832 15.0195C4.6875 15.0195 4.20898 14.541 4.20898 13.9453ZM1.40625 3.23242L1.40625 2.1875C1.40625 1.71875 1.69922 1.40625 2.10938 1.40625C2.51953 1.40625 2.80273 1.71875 2.80273 2.1875L2.80273 3.23242ZM7.51953 15.0195C7.66602 14.6777 7.75391 14.2871 7.75391 13.8477L7.75391 12.3145L15.1562 12.3145L15.1562 13.8379C15.1562 14.5508 14.7168 15.0195 14.0625 15.0195ZM6.44531 7.30469L9.10156 7.30469C9.4043 7.30469 9.62891 7.08008 9.62891 6.78711C9.62891 6.48438 9.4043 6.25 9.10156 6.25L6.44531 6.25C6.13281 6.25 5.9082 6.48438 5.9082 6.78711C5.9082 7.08008 6.13281 7.30469 6.44531 7.30469ZM6.44531 4.64844L11.4746 4.64844C11.7773 4.64844 12.002 4.41406 12.002 4.11133C12.002 3.81836 11.7773 3.59375 11.4746 3.59375L6.44531 3.59375C6.13281 3.59375 5.9082 3.81836 5.9082 4.11133C5.9082 4.41406 6.13281 4.64844 6.44531 4.64844Z" fill="var(--color-primary)"/>
 </g>
</svg>
