<svg version="1.1" xmlns="http://www.w3.org/2000/svg" xmlns:xlink="http://www.w3.org/1999/xlink" width="12.9883" height="14.4238" viewBox="0 0 12.9883 14.4238">
 <g>
  <rect height="14.4238" opacity="0" width="12.9883" x="0" y="0"/>
  <path d="M0 13.6816C0 14.0918 0.341797 14.4238 0.751953 14.4238C1.16211 14.4238 1.50391 14.0918 1.50391 13.6816L1.50391 2.08984L4.77539 2.08984C6.61133 2.08984 7.42188 2.59766 7.42188 4.49219L7.42188 9.52148C7.42188 9.93164 7.75391 10.2734 8.16406 10.2734C8.58398 10.2734 8.91602 9.93164 8.91602 9.52148L8.91602 4.19922C8.91602 1.58203 7.69531 0.400391 5.29297 0.400391L1.08398 0.400391C0.429688 0.400391 0 0.839844 0 1.49414ZM3.71094 13.1445C3.71094 13.7988 4.14062 14.2383 4.79492 14.2383L9.20898 14.2383C11.6309 14.2383 12.627 13.0371 12.627 10.1367L12.627 0.957031C12.627 0.546875 12.2852 0.205078 11.875 0.205078C11.4648 0.205078 11.123 0.546875 11.123 0.957031L11.123 10.1465C11.123 12.2266 10.625 12.5488 8.76953 12.5488L5.20508 12.5488L5.20508 5.09766C5.20508 4.6875 4.87305 4.35547 4.46289 4.35547C4.04297 4.35547 3.71094 4.6875 3.71094 5.09766Z" fill="var(--color-primary)"/>
 </g>
</svg>
