<svg version="1.1" xmlns="http://www.w3.org/2000/svg" xmlns:xlink="http://www.w3.org/1999/xlink" viewBox="0 0 13.2129 13.8965">
 <g>
  <rect height="13.8965" opacity="0" width="13.2129" x="0" y="0"/>
  <path d="M0.791016 13.8867C1.2793 13.8867 1.5625 13.4863 1.5625 13.0762L1.5625 1.875L4.85352 1.875C6.72852 1.875 7.53906 2.40234 7.53906 4.29688L7.53906 8.94531C7.53906 9.44336 7.83203 9.75586 8.32031 9.75586C8.78906 9.75586 9.08203 9.44336 9.08203 8.94531L9.08203 3.99414C9.08203 1.43555 7.93945 0.166016 5.39062 0.166016L1.13281 0.166016C0.458984 0.166016 0 0.595703 0 1.28906L0 13.0762C0 13.5449 0.322266 13.8867 0.791016 13.8867ZM4.89258 13.7207L9.36523 13.7207C12.0312 13.7207 12.8516 12.2363 12.8516 9.58984L12.8516 0.800781C12.8516 0.3125 12.5586 0 12.0996 0C11.6113 0 11.3086 0.3125 11.3086 0.800781L11.3086 9.57031C11.3086 11.5527 10.9082 12.002 8.91602 12.002L5.3125 12.002L5.3125 4.91211C5.3125 4.41406 5.0293 4.11133 4.56055 4.11133C4.07227 4.11133 3.7793 4.41406 3.7793 4.91211L3.7793 12.5977C3.7793 13.2617 4.22852 13.7207 4.89258 13.7207Z" fill="var(--color-primary)"/>
 </g>
</svg>
