<svg version="1.1" xmlns="http://www.w3.org/2000/svg" xmlns:xlink="http://www.w3.org/1999/xlink" viewBox="0 0 16.1328 15.7715">
 <g>
  <rect height="15.7715" opacity="0" width="16.1328" x="0" y="0"/>
  <path d="M15.7715 7.89062C15.7715 12.2363 12.2363 15.7715 7.88086 15.7715C3.53516 15.7715 0 12.2363 0 7.89062C0 3.54492 3.53516 0.00976562 7.88086 0.00976562C12.2363 0.00976562 15.7715 3.54492 15.7715 7.89062ZM7.41211 4.13086L7.41211 4.9707L5.57617 4.9707C5.21484 4.9707 5.03906 5.07812 4.85352 5.27344L3.80859 6.26953C3.34961 6.70898 3.36914 7.10938 3.79883 7.5293L4.85352 8.53516C5.03906 8.73047 5.21484 8.84766 5.57617 8.84766L7.41211 8.84766L7.41211 11.1621L6.38672 11.1621C6.11328 11.1621 5.89844 11.377 5.89844 11.6504C5.89844 11.9238 6.11328 12.1387 6.38672 12.1387L9.41406 12.1387C9.6875 12.1387 9.91211 11.9238 9.91211 11.6504C9.91211 11.377 9.6875 11.1621 9.41406 11.1621L8.39844 11.1621L8.39844 8.84766L10.6348 8.84766C11.1914 8.84766 11.4941 8.54492 11.4941 8.00781L11.4941 5.80078C11.4941 5.26367 11.1914 4.9707 10.6348 4.9707L8.39844 4.9707L8.39844 4.13086C8.39844 3.84766 8.18359 3.63281 7.90039 3.63281C7.63672 3.63281 7.41211 3.84766 7.41211 4.13086Z" fill="var(--color-primary)"/>
 </g>
</svg>
