<svg version="1.1" xmlns="http://www.w3.org/2000/svg" xmlns:xlink="http://www.w3.org/1999/xlink" width="15.0879" height="17.373" viewBox="0 0 15.0879 17.373">
 <g>
  <rect height="17.373" opacity="0" width="15.0879" x="0" y="0"/>
  <path d="M10.3223 17.3535C11.377 17.3535 12.2363 16.4941 12.2363 15.4395C12.2363 14.3945 11.377 13.5352 10.3223 13.5352C9.27734 13.5352 8.41797 14.3945 8.41797 15.4395C8.41797 16.4941 9.27734 17.3535 10.3223 17.3535ZM10.3223 16.3086C9.84375 16.3086 9.45312 15.9277 9.45312 15.4395C9.45312 14.9512 9.84375 14.5801 10.3223 14.5801C10.8203 14.5801 11.1914 14.9512 11.1914 15.4395C11.1914 15.9277 10.8203 16.3086 10.3223 16.3086ZM9.12109 14.7363L0.703125 14.7363C0.3125 14.7363 0 15.0488 0 15.4395C0 15.8398 0.3125 16.1523 0.703125 16.1523L9.12109 16.1523ZM14.0527 14.7363L11.6797 14.7363L11.6797 16.1523L14.0527 16.1523C14.4141 16.1523 14.7266 15.8398 14.7266 15.4395C14.7266 15.0488 14.4141 14.7363 14.0527 14.7363Z" fill="var(--color-primary)"/>
  <path d="M7.32422 9.53125C9.02344 9.53125 10.4395 8.11523 10.4395 6.40625C10.4395 4.69727 9.02344 3.27148 7.32422 3.27148C5.61523 3.27148 4.20898 4.69727 4.20898 6.40625C4.20898 8.11523 5.61523 9.53125 7.32422 9.53125ZM7.32422 0C6.94336 0 6.62109 0.332031 6.62109 0.712891L6.62109 1.88477C6.62109 2.25586 6.94336 2.58789 7.32422 2.58789C7.69531 2.58789 8.02734 2.25586 8.02734 1.88477L8.02734 0.712891C8.02734 0.332031 7.69531 0 7.32422 0ZM11.8457 1.875C11.5625 1.60156 11.123 1.60156 10.8594 1.875L10.0098 2.73438C9.73633 3.00781 9.75586 3.45703 10.0098 3.7207C10.2832 3.98438 10.7422 3.99414 11.0059 3.7207L11.8457 2.86133C12.1094 2.58789 12.1191 2.14844 11.8457 1.875ZM13.6914 6.40625C13.6914 6.01562 13.3887 5.70312 13.0078 5.70312L11.8359 5.70312C11.4551 5.70312 11.1426 6.03516 11.1426 6.40625C11.1426 6.78711 11.4551 7.09961 11.8359 7.09961L13.0078 7.09961C13.3887 7.09961 13.6914 6.79688 13.6914 6.40625ZM11.8457 10.9277C12.1289 10.6348 12.1191 10.2148 11.8457 9.94141L10.9961 9.0918C10.7227 8.81836 10.2832 8.82812 10.0098 9.0918C9.74609 9.375 9.73633 9.81445 10.0098 10.0879L10.8594 10.9277C11.1328 11.1914 11.5625 11.1914 11.8457 10.9277ZM7.32422 12.8027C7.69531 12.8027 8.02734 12.4707 8.02734 12.0898L8.02734 10.9277C8.02734 10.5469 7.69531 10.2246 7.32422 10.2246C6.94336 10.2246 6.62109 10.5469 6.62109 10.9277L6.62109 12.0898C6.62109 12.4707 6.94336 12.8027 7.32422 12.8027ZM2.80273 10.918C3.06641 11.1914 3.52539 11.1914 3.78906 10.9277L4.63867 10.0879C4.90234 9.82422 4.89258 9.38477 4.63867 9.0918C4.36523 8.82812 3.90625 8.82812 3.64258 9.0918L2.80273 9.94141C2.53906 10.2051 2.53906 10.6348 2.80273 10.918ZM0.947266 6.40625C0.947266 6.79688 1.25977 7.09961 1.64062 7.09961L2.8125 7.09961C3.19336 7.09961 3.51562 6.78711 3.51562 6.40625C3.51562 6.03516 3.19336 5.70312 2.8125 5.70312L1.64062 5.70312C1.25977 5.70312 0.947266 6.01562 0.947266 6.40625ZM2.8125 1.875C2.55859 2.14844 2.53906 2.59766 2.80273 2.86133L3.64258 3.7207C3.90625 3.99414 4.35547 3.98438 4.63867 3.7207C4.89258 3.4375 4.90234 2.99805 4.63867 2.73438L3.78906 1.875C3.53516 1.62109 3.08594 1.61133 2.8125 1.875Z" fill="var(--color-secondary)"/>
 </g>
</svg>
