<svg version="1.1" xmlns="http://www.w3.org/2000/svg" xmlns:xlink="http://www.w3.org/1999/xlink" viewBox="0 0 16.1328 15.7715">
 <g>
  <rect height="15.7715" opacity="0" width="16.1328" x="0" y="0"/>
  <path d="M7.88086 15.7617C12.2363 15.7617 15.7715 12.2363 15.7715 7.88086C15.7715 3.52539 12.2363 0 7.88086 0C3.53516 0 0 3.52539 0 7.88086C0 12.2363 3.53516 15.7617 7.88086 15.7617ZM7.88086 14.2773C4.3457 14.2773 1.49414 11.416 1.49414 7.88086C1.49414 4.3457 4.3457 1.48438 7.88086 1.48438C11.416 1.48438 14.2773 4.3457 14.2773 7.88086C14.2773 11.416 11.416 14.2773 7.88086 14.2773Z" fill="var(--color-primary)"/>
  <path d="M4.38477 10.3613C5.32227 10.3613 5.88867 9.78516 5.88867 8.93555C5.88867 8.22266 5.5957 7.90039 4.83398 7.48047L4.55078 7.32422C4.12109 7.08984 3.99414 6.93359 3.99414 6.67969C3.99414 6.46484 4.15039 6.29883 4.38477 6.29883C4.61914 6.29883 4.73633 6.45508 4.80469 6.77734C4.83398 6.89453 4.88281 6.95312 4.98047 6.95312L5.63477 6.95312C5.74219 6.95312 5.82031 6.875 5.82031 6.75781C5.82031 5.97656 5.35156 5.37109 4.38477 5.37109C3.45703 5.37109 2.91016 5.95703 2.91016 6.77734C2.91016 7.48047 3.21289 7.87109 3.93555 8.26172L4.20898 8.4082C4.66797 8.65234 4.80469 8.75977 4.80469 9.04297C4.80469 9.31641 4.6875 9.43359 4.39453 9.43359C4.10156 9.43359 3.95508 9.27734 3.90625 8.93555C3.88672 8.82812 3.81836 8.76953 3.73047 8.76953L3.03711 8.76953C2.91992 8.76953 2.85156 8.85742 2.85156 8.97461C2.85156 9.83398 3.38867 10.3613 4.38477 10.3613ZM7.88086 10.3613C9.00391 10.3613 9.59961 9.52148 9.59961 7.88086C9.59961 6.25977 9.01367 5.37109 7.88086 5.37109C6.72852 5.37109 6.14258 6.25977 6.14258 7.88086C6.14258 9.52148 6.73828 10.3613 7.88086 10.3613ZM7.88086 9.4043C7.46094 9.4043 7.26562 8.97461 7.26562 7.88086C7.26562 6.78711 7.46094 6.34766 7.88086 6.34766C8.27148 6.34766 8.47656 6.78711 8.47656 7.88086C8.47656 8.97461 8.27148 9.4043 7.88086 9.4043ZM11.3867 10.3613C12.3242 10.3613 12.8906 9.78516 12.8906 8.93555C12.8906 8.22266 12.6074 7.90039 11.8359 7.48047L11.5527 7.32422C11.1328 7.08984 10.9961 6.93359 10.9961 6.67969C10.9961 6.46484 11.1621 6.29883 11.3867 6.29883C11.6211 6.29883 11.7383 6.45508 11.8066 6.77734C11.8359 6.89453 11.8848 6.95312 11.9824 6.95312L12.6367 6.95312C12.7539 6.95312 12.8223 6.875 12.8223 6.75781C12.8223 5.97656 12.3535 5.37109 11.3867 5.37109C10.459 5.37109 9.91211 5.95703 9.91211 6.77734C9.91211 7.48047 10.2148 7.87109 10.9375 8.26172L11.2109 8.4082C11.6797 8.65234 11.8066 8.75977 11.8066 9.04297C11.8066 9.31641 11.6992 9.43359 11.3965 9.43359C11.1035 9.43359 10.957 9.27734 10.9082 8.93555C10.8887 8.82812 10.8301 8.76953 10.7324 8.76953L10.0391 8.76953C9.93164 8.76953 9.85352 8.85742 9.85352 8.97461C9.85352 9.83398 10.3906 10.3613 11.3867 10.3613Z" fill="var(--color-primary)"/>
 </g>
</svg>
