<svg version="1.1" xmlns="http://www.w3.org/2000/svg" xmlns:xlink="http://www.w3.org/1999/xlink" viewBox="0 0 18.7793 19.5801">
 <g>
  <rect height="19.5801" opacity="0" width="18.7793" x="0" y="0"/>
  <path d="M14.031 2.26562L4.38693 2.26562C4.40825 1.55962 4.8348 1.16211 5.56641 1.16211L12.8516 1.16211C13.5832 1.16211 14.0097 1.55962 14.031 2.26562Z" fill="var(--color-primary)"/>
  <path d="M15.6315 4.56702C15.3557 4.51675 15.0597 4.49219 14.7461 4.49219L3.68164 4.49219C3.36425 4.49219 3.06488 4.51714 2.78635 4.56833C2.86989 3.72053 3.42283 3.25195 4.3457 3.25195L14.0723 3.25195C14.9947 3.25195 15.5475 3.72004 15.6315 4.56702Z" fill="var(--color-primary)"/>
  <path d="M17.2363 8.125L17.2363 15.9375C17.2363 17.5781 16.4062 18.3887 14.7461 18.3887L3.68164 18.3887C2.01172 18.3887 1.19141 17.5781 1.19141 15.9375L1.19141 8.125C1.19141 6.48438 2.01172 5.67383 3.68164 5.67383L14.7461 5.67383C16.4062 5.67383 17.2363 6.49414 17.2363 8.125ZM6.06445 13.0469C5.82031 14.1602 5.9375 14.1699 4.7168 14.3945C4.58984 14.4141 4.50195 14.5117 4.50195 14.6387C4.50195 14.7754 4.58984 14.8633 4.73633 14.8926C5.9375 15.0781 5.82031 15.0879 6.06445 16.2207C6.11328 16.3574 6.19141 16.4551 6.31836 16.4551C6.45508 16.4551 6.54297 16.3672 6.58203 16.25C6.81641 15.0879 6.71875 15.0781 7.93945 14.8926C8.06641 14.8633 8.1543 14.7559 8.1543 14.6387C8.1543 14.5117 8.06641 14.4141 7.93945 14.3945C6.71875 14.1699 6.81641 14.1602 6.58203 13.0469C6.54297 12.9102 6.46484 12.8125 6.31836 12.8125C6.20117 12.8125 6.11328 12.9004 6.06445 13.0469ZM9.10156 8.23242C8.66211 10.4004 8.4375 10.8984 6.14258 11.2109C5.95703 11.2402 5.83984 11.377 5.83984 11.5332C5.83984 11.709 5.95703 11.8262 6.14258 11.8555C8.4375 12.1484 8.76953 12.6758 9.10156 14.834C9.12109 15 9.24805 15.1172 9.43359 15.1172C9.58008 15.1172 9.70703 15 9.74609 14.8438C10.1855 12.6758 10.4102 12.168 12.7148 11.8555C12.8809 11.8359 13.0078 11.709 13.0078 11.5332C13.0078 11.377 12.8809 11.2402 12.7148 11.2109C10.4199 10.8984 10.0586 10.3613 9.74609 8.24219C9.7168 8.07617 9.58008 7.94922 9.43359 7.94922C9.26758 7.94922 9.14062 8.06641 9.10156 8.23242Z" fill="var(--color-primary)"/>
 </g>
</svg>
