<svg version="1.1" xmlns="http://www.w3.org/2000/svg" xmlns:xlink="http://www.w3.org/1999/xlink" width="17.3828" height="17.1582" viewBox="0 0 17.3828 17.1582">
 <g>
  <rect height="17.1582" opacity="0" width="17.3828" x="0" y="0"/>
  <path d="M4.70703 17.1582C5.04883 17.1582 5.2832 16.9824 5.69336 16.6016L8.45703 14.043L13.3594 14.043C15.7617 14.043 17.0215 12.7539 17.0215 10.3906L17.0215 4.70703C17.0215 2.34375 15.7617 1.04492 13.3594 1.04492L3.66211 1.04492C1.25977 1.04492 0 2.34375 0 4.70703L0 10.3906C0 12.7539 1.25977 14.043 3.66211 14.043L3.93555 14.043L3.93555 16.2793C3.93555 16.8066 4.21875 17.1582 4.70703 17.1582Z" fill="var(--color-tertiary)"/>
  <path d="M11.377 10.3711C11.1426 10.2344 11.1133 9.94141 11.2793 9.70703C11.6895 9.15039 11.9238 8.33008 11.9238 7.53906C11.9238 6.70898 11.6895 5.91797 11.2793 5.35156C11.123 5.13672 11.1523 4.85352 11.377 4.69727C11.582 4.55078 11.8457 4.60938 12.002 4.82422C12.5488 5.56641 12.832 6.54297 12.832 7.53906C12.832 8.50586 12.5293 9.47266 12.002 10.2539C11.8652 10.459 11.6016 10.5078 11.377 10.3711Z" fill="var(--color-primary)"/>
  <path d="M10.0098 9.33594C9.78516 9.16016 9.73633 8.89648 9.91211 8.65234C10.0977 8.37891 10.2246 7.95898 10.2246 7.53906C10.2246 7.09961 10.0977 6.68945 9.91211 6.42578C9.73633 6.19141 9.78516 5.91797 10.0098 5.75195C10.2051 5.5957 10.4883 5.66406 10.6445 5.85938C10.9473 6.28906 11.1426 6.91406 11.1426 7.53906C11.1426 8.19336 10.957 8.80859 10.6445 9.21875C10.4785 9.42383 10.2051 9.48242 10.0098 9.33594Z" fill="var(--color-primary)"/>
  <path d="M8.23242 11.123C8.02734 11.123 7.85156 11.0449 7.64648 10.8398L5.97656 9.24805C5.94727 9.22852 5.9082 9.21875 5.87891 9.21875L4.76562 9.21875C4.17969 9.21875 3.86719 8.90625 3.86719 8.29102L3.86719 6.80664C3.86719 6.18164 4.17969 5.86914 4.76562 5.86914L5.87891 5.86914C5.9082 5.86914 5.94727 5.86914 5.97656 5.83984L7.64648 4.27734C7.88086 4.0625 8.01758 3.97461 8.21289 3.97461C8.51562 3.97461 8.73047 4.19922 8.73047 4.48242L8.73047 10.6348C8.73047 10.9082 8.51562 11.123 8.23242 11.123Z" fill="var(--color-primary)"/>
 </g>
</svg>
