<svg version="1.1" xmlns="http://www.w3.org/2000/svg" xmlns:xlink="http://www.w3.org/1999/xlink" viewBox="0 0 17.0215 12.8809">
 <g>
  <rect height="12.8809" opacity="0" width="17.0215" x="0" y="0"/>
  <path d="M6.50391 3.41797L10.1562 3.41797C10.7617 3.41797 11.1914 2.98828 11.1914 2.37305L11.1914 1.74805C11.1914 0.722656 10.4492 0.0195312 9.375 0.0195312L7.28516 0.0195312C6.21094 0.0195312 5.45898 0.722656 5.45898 1.74805L5.45898 2.37305C5.45898 2.98828 5.88867 3.41797 6.50391 3.41797ZM7.08008 5.21484L9.57031 5.21484L9.57031 2.91016L7.08008 2.91016ZM6.50391 7.98828L10.1562 7.98828C10.7617 7.98828 11.1914 7.55859 11.1914 6.94336L11.1914 5.53711C11.1914 4.93164 10.7617 4.50195 10.1562 4.50195L6.50391 4.50195C5.88867 4.50195 5.46875 4.93164 5.46875 5.53711L5.46875 6.94336C5.46875 7.55859 5.88867 7.98828 6.50391 7.98828ZM7.08008 12.041L9.57031 12.041L9.57031 7.4707L7.08008 7.4707ZM0 12.1777C0 12.5586 0.322266 12.8809 0.703125 12.8809L15.9473 12.8809C16.3379 12.8809 16.6602 12.5586 16.6602 12.1777C16.6602 11.7871 16.3379 11.4746 15.9473 11.4746L0.703125 11.4746C0.322266 11.4746 0 11.7871 0 12.1777Z" fill="var(--color-primary)"/>
 </g>
</svg>
