<svg version="1.1" xmlns="http://www.w3.org/2000/svg" xmlns:xlink="http://www.w3.org/1999/xlink" width="16.1328" height="15.7715" viewBox="0 0 16.1328 15.7715">
 <g>
  <rect height="15.7715" opacity="0" width="16.1328" x="0" y="0"/>
  <path d="M7.88086 15.7617C12.1875 15.7617 15.7715 12.1875 15.7715 7.88086C15.7715 3.57422 12.1777 0 7.87109 0C3.57422 0 0 3.57422 0 7.88086C0 12.1875 3.58398 15.7617 7.88086 15.7617ZM7.88086 14.2773C4.33594 14.2773 1.50391 11.4355 1.50391 7.88086C1.50391 4.32617 4.32617 1.48438 7.87109 1.48438C11.4258 1.48438 14.2773 4.32617 14.2773 7.88086C14.2773 11.4355 11.4355 14.2773 7.88086 14.2773Z" fill="var(--color-secondary)"/>
  <path d="M5.56641 11.5234L10.0781 11.5234C10.8203 11.5234 11.2695 11.084 11.2695 10.2148L11.2695 6.34766L10.4004 7.22656L10.4004 10.166C10.4004 10.498 10.2441 10.6445 10.0684 10.6445L5.57617 10.6445C5.2832 10.6445 5.12695 10.498 5.12695 10.166L5.12695 5.83984C5.12695 5.51758 5.2832 5.37109 5.57617 5.37109L8.58398 5.37109L9.46289 4.49219L5.56641 4.49219C4.6875 4.49219 4.24805 4.93164 4.24805 5.81055L4.24805 10.2148C4.24805 11.084 4.6875 11.5234 5.56641 11.5234ZM6.93359 9.07227L7.75391 8.73047L11.2305 5.26367L10.5078 4.57031L7.05078 8.03711L6.68945 8.80859C6.61133 8.96484 6.77734 9.13086 6.93359 9.07227ZM11.5723 4.92188L11.9141 4.54102C12.0801 4.35547 12.0801 4.12109 11.9141 3.94531L11.8066 3.85742C11.6504 3.68164 11.377 3.71094 11.2109 3.86719L10.8691 4.19922Z" fill="var(--color-primary)"/>
 </g>
</svg>
