<svg version="1.1" xmlns="http://www.w3.org/2000/svg" xmlns:xlink="http://www.w3.org/1999/xlink" width="18.1543" height="17.8027" viewBox="0 0 18.1543 17.8027">
 <g>
  <rect height="17.8027" opacity="0" width="18.1543" x="0" y="0"/>
  <path d="M1.85547 3.73047C2.10537 3.73047 2.34274 3.68209 2.55859 3.59318L2.55859 9.79536C2.34274 9.70658 2.10537 9.6582 1.85547 9.6582C1.6064 9.6582 1.36886 9.70718 1.15234 9.79684L1.15234 3.59169C1.36886 3.6815 1.6064 3.73047 1.85547 3.73047Z" fill="var(--color-secondary)"/>
  <path d="M5.56641 10.8105L5.56641 12.2168L3.57362 12.2168C3.66254 12.0003 3.71094 11.7627 3.71094 11.5137C3.71094 11.2646 3.66254 11.0271 3.57362 10.8105Z" fill="var(--color-secondary)"/>
  <path d="M12.2266 5.5957L10.8203 5.5957L10.8203 3.59318C11.0362 3.68209 11.2735 3.73047 11.5234 3.73047C11.7725 3.73047 12.01 3.6815 12.2266 3.59169Z" fill="var(--color-secondary)"/>
  <path d="M9.66797 1.86523C9.66797 2.11459 9.71557 2.35205 9.8033 2.56836L3.5756 2.56836C3.66334 2.35205 3.71094 2.11459 3.71094 1.86523C3.71094 1.61617 3.66254 1.37863 3.57362 1.16211L9.80529 1.16211C9.71637 1.37863 9.66797 1.61617 9.66797 1.86523Z" fill="var(--color-secondary)"/>
  <path d="M3.71094 11.5137C3.71094 12.5391 2.89062 13.3691 1.85547 13.3691C0.830078 13.3691 0 12.5391 0 11.5137C0 10.4883 0.830078 9.6582 1.85547 9.6582C2.89062 9.6582 3.71094 10.4883 3.71094 11.5137Z" fill="var(--color-primary)"/>
  <path d="" fill="var(--color-primary)"/>
  <path d="M13.3789 1.86523C13.3789 2.90039 12.5488 3.73047 11.5234 3.73047C10.4883 3.73047 9.66797 2.90039 9.66797 1.86523C9.66797 0.839844 10.4883 0.00976562 11.5234 0.00976562C12.5488 0.00976562 13.3789 0.839844 13.3789 1.86523Z" fill="var(--color-primary)"/>
  <path d="M3.71094 1.86523C3.71094 2.90039 2.89062 3.73047 1.85547 3.73047C0.830078 3.73047 0 2.90039 0 1.86523C0 0.839844 0.830078 0.00976562 1.85547 0.00976562C2.89062 0.00976562 3.71094 0.839844 3.71094 1.86523Z" fill="var(--color-primary)"/>
  <path d="M6.97266 14.2208C6.75614 14.131 6.5186 14.082 6.26953 14.082C6.02047 14.082 5.78293 14.131 5.56641 14.2208L5.56641 8.01566C5.78293 8.10532 6.02047 8.1543 6.26953 8.1543C6.5186 8.1543 6.75614 8.10532 6.97266 8.01566Z" fill="var(--color-secondary)"/>
  <path d="M14.0723 15.9473C14.0723 16.1963 14.1212 16.4339 14.211 16.6504L7.98637 16.6504C8.07603 16.4339 8.125 16.1963 8.125 15.9473C8.125 15.6979 8.07683 15.4605 7.98837 15.2441L14.209 15.2441C14.1204 15.4605 14.0723 15.6979 14.0723 15.9473Z" fill="var(--color-secondary)"/>
  <path d="M15.9375 8.1543C16.1866 8.1543 16.4241 8.10532 16.6406 8.01566L16.6406 14.2208C16.4241 14.131 16.1866 14.082 15.9375 14.082C15.6845 14.082 15.4437 14.1316 15.2246 14.2224L15.2246 8.01412C15.4437 8.1047 15.6845 8.1543 15.9375 8.1543Z" fill="var(--color-secondary)"/>
  <path d="M14.0723 6.29883C14.0723 6.54789 14.1212 6.78543 14.211 7.00195L7.98637 7.00195C8.07603 6.78543 8.125 6.54789 8.125 6.29883C8.125 6.04976 8.07603 5.81222 7.98637 5.5957L14.211 5.5957C14.1212 5.81222 14.0723 6.04976 14.0723 6.29883Z" fill="var(--color-secondary)"/>
  <path d="M8.125 15.9473C8.125 16.9727 7.29492 17.8027 6.26953 17.8027C5.24414 17.8027 4.41406 16.9727 4.41406 15.9473C4.41406 14.9121 5.24414 14.082 6.26953 14.082C7.29492 14.082 8.125 14.9121 8.125 15.9473Z" fill="var(--color-primary)"/>
  <path d="M17.793 15.9473C17.793 16.9727 16.9629 17.8027 15.9375 17.8027C14.9023 17.8027 14.0723 16.9727 14.0723 15.9473C14.0723 14.9121 14.9023 14.082 15.9375 14.082C16.9629 14.082 17.793 14.9121 17.793 15.9473Z" fill="var(--color-primary)"/>
  <path d="M17.793 6.29883C17.793 7.32422 16.9629 8.1543 15.9375 8.1543C14.9023 8.1543 14.0723 7.32422 14.0723 6.29883C14.0723 5.27344 14.9023 4.44336 15.9375 4.44336C16.9629 4.44336 17.793 5.27344 17.793 6.29883Z" fill="var(--color-primary)"/>
  <path d="M6.26953 8.1543C7.29492 8.1543 8.125 7.32422 8.125 6.29883C8.125 5.27344 7.29492 4.44336 6.26953 4.44336C5.24414 4.44336 4.41406 5.27344 4.41406 6.29883C4.41406 7.32422 5.24414 8.1543 6.26953 8.1543Z" fill="var(--color-primary)"/>
 </g>
</svg>
