<svg version="1.1" xmlns="http://www.w3.org/2000/svg" xmlns:xlink="http://www.w3.org/1999/xlink" width="16.1328" height="15.7715" viewBox="0 0 16.1328 15.7715">
 <g>
  <rect height="15.7715" opacity="0" width="16.1328" x="0" y="0"/>
  <path d="M7.88086 15.7617C12.1875 15.7617 15.7715 12.1875 15.7715 7.88086C15.7715 3.57422 12.1777 0 7.87109 0C3.57422 0 0 3.57422 0 7.88086C0 12.1875 3.58398 15.7617 7.88086 15.7617Z" fill="var(--color-tertiary)"/>
  <path d="M5.64453 12.002C5.12695 12.3926 4.58984 11.9824 4.78516 11.3867L5.67383 8.75L3.41797 7.12891C2.92969 6.77734 3.08594 6.10352 3.75 6.11328L6.52344 6.13281L7.36328 3.47656C7.54883 2.89062 8.21289 2.89062 8.4082 3.47656L9.24805 6.13281L12.0215 6.11328C12.6855 6.10352 12.832 6.78711 12.3535 7.12891L10.0879 8.75L10.9766 11.3867C11.1816 11.9824 10.6348 12.3926 10.1172 12.002L7.88086 10.3613Z" fill="var(--color-primary)"/>
 </g>
</svg>
