<svg version="1.1" xmlns="http://www.w3.org/2000/svg" xmlns:xlink="http://www.w3.org/1999/xlink" viewBox="0 0 22.7946 11.6113">
 <g>
  <rect height="11.6113" opacity="0" width="22.7946" x="0" y="0"/>
  <path d="M0.71372 11.6113L1.76841 11.6113C2.28599 11.6113 2.53989 11.3672 2.68638 11.0059L6.91489 0.566406C7.03208 0.263672 6.89536 0.00976562 6.59263 0.00976562L6.03599 0.00976562C5.73325 0.00976562 5.53794 0.166016 5.40122 0.429688L0.0984852 10.6543C-0.13589 11.1035 0.0398915 11.6113 0.71372 11.6113ZM20.6649 11.6113L21.7196 11.6113C22.3934 11.6113 22.5692 11.1035 22.3348 10.6543L17.0321 0.429688C16.8954 0.166016 16.7 0.00976562 16.3973 0.00976562L15.8407 0.00976562C15.5282 0.00976562 15.4012 0.263672 15.5184 0.566406L19.7469 11.0059C19.8934 11.3672 20.1473 11.6113 20.6649 11.6113Z" fill="var(--color-primary)"/>
  <path d="M11.2118 10.918C13.7997 10.918 15.9383 8.76953 15.9383 6.19141C15.9383 3.61328 13.7899 1.46484 11.202 1.46484C8.63364 1.46484 6.49497 3.61328 6.49497 6.19141C6.49497 8.76953 8.63364 10.918 11.2118 10.918ZM8.27231 4.02344C8.93638 3.10547 9.99106 2.5293 11.202 2.5293C12.4227 2.5293 13.4774 3.10547 14.1415 4.01367C14.327 4.25781 14.2684 4.47266 13.9852 4.47266L8.42856 4.47266C8.15513 4.47266 8.09653 4.25781 8.27231 4.02344ZM11.202 7.28516C10.6844 7.28516 10.2938 6.88477 10.2938 6.37695C10.2938 5.84961 10.6844 5.45898 11.202 5.45898C11.7293 5.45898 12.12 5.84961 12.12 6.37695C12.12 6.88477 11.7293 7.28516 11.202 7.28516ZM7.70591 7.1875C7.62778 6.94336 7.71567 6.875 7.93052 6.9043C9.11216 7.07031 10.0008 8.08594 9.9813 9.32617C9.9813 9.52148 9.88364 9.61914 9.6688 9.51172C8.68247 9.05273 7.97934 8.21289 7.70591 7.1875ZM14.7274 7.1875C14.4442 8.21289 13.7411 9.05273 12.7547 9.51172C12.5399 9.61914 12.4422 9.52148 12.4422 9.32617C12.4227 8.08594 13.3114 7.07031 14.4833 6.9043C14.6981 6.86523 14.7958 6.94336 14.7274 7.1875Z" fill="var(--color-primary)"/>
 </g>
</svg>
