<svg version="1.1" xmlns="http://www.w3.org/2000/svg" xmlns:xlink="http://www.w3.org/1999/xlink" viewBox="0 0 16.1328 15.7715">
 <g>
  <rect height="15.7715" opacity="0" width="16.1328" x="0" y="0"/>
  <path d="M15.7715 7.89062C15.7715 12.2363 12.2363 15.7715 7.88086 15.7715C3.53516 15.7715 0 12.2363 0 7.89062C0 3.54492 3.53516 0.00976562 7.88086 0.00976562C12.2363 0.00976562 15.7715 3.54492 15.7715 7.89062ZM7.33398 11.4355L7.33398 12.3438C7.33398 12.6367 7.59766 12.9004 7.88086 12.9004C8.17383 12.9004 8.42773 12.6367 8.42773 12.3438L8.42773 11.4355C8.42773 11.1426 8.17383 10.8887 7.88086 10.8887C7.59766 10.8887 7.33398 11.1426 7.33398 11.4355ZM9.99023 10C9.77539 10.2148 9.77539 10.5664 9.99023 10.7715L10.6543 11.4355C10.8594 11.6406 11.2012 11.6406 11.4258 11.4355C11.6406 11.2109 11.6309 10.8594 11.4258 10.6543L10.752 10C10.5566 9.79492 10.2051 9.79492 9.99023 10ZM5 10L4.3457 10.6543C4.13086 10.8691 4.14062 11.2109 4.3457 11.4258C4.56055 11.6406 4.91211 11.6406 5.11719 11.4355L5.78125 10.7715C5.98633 10.5762 5.98633 10.2246 5.78125 10C5.56641 9.79492 5.20508 9.79492 5 10ZM5.43945 7.89062C5.43945 9.23828 6.5332 10.332 7.88086 10.332C9.23828 10.332 10.332 9.23828 10.332 7.89062C10.332 6.54297 9.23828 5.44922 7.88086 5.44922C6.5332 5.44922 5.43945 6.54297 5.43945 7.89062ZM11.416 7.34375C11.123 7.34375 10.8691 7.59766 10.8691 7.89062C10.8691 8.18359 11.123 8.4375 11.416 8.4375L12.3242 8.4375C12.627 8.4375 12.8711 8.19336 12.8711 7.89062C12.8711 7.58789 12.627 7.34375 12.3242 7.34375ZM3.44727 7.34375C3.14453 7.34375 2.90039 7.58789 2.90039 7.89062C2.90039 8.19336 3.14453 8.4375 3.44727 8.4375L4.35547 8.4375C4.64844 8.4375 4.90234 8.18359 4.90234 7.89062C4.90234 7.59766 4.64844 7.34375 4.35547 7.34375ZM10.6543 4.3457L9.99023 5.01953C9.77539 5.24414 9.78516 5.58594 9.99023 5.78125C10.2051 5.99609 10.5566 5.99609 10.7617 5.78125L11.4258 5.12695C11.6309 4.91211 11.6309 4.57031 11.4258 4.3457C11.2012 4.13086 10.8496 4.14062 10.6543 4.3457ZM4.35547 4.3457C4.15039 4.57031 4.14062 4.91211 4.3457 5.12695L5 5.78125C5.21484 5.99609 5.55664 5.99609 5.78125 5.78125C5.98633 5.57617 5.98633 5.21484 5.78125 5.01953L5.11719 4.3457C4.92188 4.15039 4.57031 4.14062 4.35547 4.3457ZM7.33398 3.4375L7.33398 4.3457C7.33398 4.63867 7.59766 4.89258 7.88086 4.89258C8.17383 4.89258 8.42773 4.63867 8.42773 4.3457L8.42773 3.4375C8.42773 3.14453 8.17383 2.88086 7.88086 2.88086C7.59766 2.88086 7.33398 3.14453 7.33398 3.4375Z" fill="var(--color-primary)"/>
 </g>
</svg>
