<svg version="1.1" xmlns="http://www.w3.org/2000/svg" xmlns:xlink="http://www.w3.org/1999/xlink" width="29.9219" height="17.4121" viewBox="0 0 29.9219 17.4121">
 <g>
  <rect height="17.4121" opacity="0" width="29.9219" x="0" y="0"/>
  <path d="M23.8867 2.91992L24.9023 3.73047L27.1191 1.49414C27.2949 1.31836 27.5293 1.25 27.7832 1.25L28.916 1.25C29.3164 1.25 29.5605 0.996094 29.5605 0.625C29.5605 0.244141 29.3164 0 28.916 0L27.9395 0C27.2363 0 26.5918 0.205078 26.1133 0.673828ZM2.05078 13.291L4.52148 13.291L4.52148 11.8848L2.12891 11.8848C1.68945 11.8848 1.40625 11.5527 1.40625 11.0059L1.40625 9.87305C1.40625 8.54492 2.32422 7.7832 4.18945 7.54883L7.34375 7.14844L10.7129 5.05859C12.4023 4.00391 13.4082 3.75977 16.3477 3.75977L22.3633 3.75977C23.6816 3.75977 24.4141 4.11133 25.0391 4.99023L25.3906 5.48828C25.8398 6.14258 26.123 6.98242 26.123 7.68555L26.123 11.0156C26.123 11.6113 25.8984 11.8848 25.4004 11.8848L23.4375 11.8848L23.4375 13.291L25.4785 13.291C26.9043 13.291 27.5293 12.5684 27.5293 10.918L27.5293 7.68555C27.5293 6.72852 27.168 5.57617 26.5527 4.69727L26.2012 4.18945C25.2832 2.86133 24.209 2.34375 22.3633 2.34375L16.3477 2.34375C13.1543 2.34375 11.8652 2.65625 9.96094 3.85742L6.86523 5.79102L4.01367 6.14258C1.32812 6.47461 0 7.70508 0 9.87305L0 11.1914C0 12.4902 0.78125 13.291 2.05078 13.291ZM8.01758 13.291L20.0195 13.291L20.0195 11.8848L8.01758 11.8848ZM6.2207 15.0586C7.72461 15.0586 8.90625 13.877 8.90625 12.3633C8.90625 10.8496 7.72461 9.66797 6.2207 9.66797C4.70703 9.66797 3.52539 10.8496 3.52539 12.3633C3.52539 13.877 4.70703 15.0586 6.2207 15.0586ZM6.2207 13.6426C5.49805 13.6426 4.93164 13.0859 4.93164 12.3633C4.93164 11.6406 5.49805 11.084 6.2207 11.084C6.94336 11.084 7.5 11.6406 7.5 12.3633C7.5 13.0859 6.94336 13.6426 6.2207 13.6426ZM21.7969 15.0586C23.3105 15.0586 24.4922 13.877 24.4922 12.3633C24.4922 10.8496 23.3105 9.66797 21.7969 9.66797C20.293 9.66797 19.1113 10.8496 19.1113 12.3633C19.1113 13.877 20.293 15.0586 21.7969 15.0586ZM21.7969 13.6426C21.084 13.6426 20.5176 13.0859 20.5176 12.3633C20.5176 11.6406 21.084 11.084 21.7969 11.084C22.5195 11.084 23.0859 11.6406 23.0859 12.3633C23.0859 13.0859 22.5195 13.6426 21.7969 13.6426Z" fill="var(--color-primary)"/>
 </g>
</svg>
