<svg version="1.1" xmlns="http://www.w3.org/2000/svg" xmlns:xlink="http://www.w3.org/1999/xlink" viewBox="0 0 17.5879 17.9395">
 <g>
  <rect height="17.9395" opacity="0" width="17.5879" x="0" y="0"/>
  <path d="M9.15041 17.0801L16.582 9.63867C17.1875 9.0332 17.2266 8.67188 17.2266 7.87109L17.2266 4.96094C17.2266 4.10156 17.002 3.83789 16.416 3.26172L14.6777 1.51367C14.1016 0.9375 13.8281 0.712891 12.9785 0.712891L10.0684 0.712891C9.26759 0.712891 8.90627 0.742188 8.3008 1.34766L0.859391 8.78906C-0.273422 9.92188-0.302719 11.0938 0.869156 12.2461L5.69337 17.0703C6.86525 18.2324 8.01759 18.2227 9.15041 17.0801ZM8.20314 16.0254C7.70509 16.5332 7.15822 16.543 6.63087 16.0156L1.91408 11.2988C1.3965 10.7812 1.40627 10.2344 1.91408 9.72656L9.29689 2.34375C9.43361 2.2168 9.56056 2.11914 9.8047 2.11914L13.0274 2.11914C13.252 2.11914 13.3789 2.20703 13.5254 2.34375L15.5957 4.41406C15.7324 4.55078 15.8106 4.6875 15.8106 4.91211L15.8106 8.13477C15.8106 8.36914 15.7227 8.50586 15.5957 8.64258ZM12.0703 6.99219C12.7051 6.99219 13.1836 6.49414 13.1836 5.86914C13.1836 5.25391 12.7051 4.75586 12.0703 4.75586C11.4258 4.75586 10.9473 5.25391 10.9473 5.86914C10.9473 6.49414 11.4258 6.99219 12.0703 6.99219Z" fill="var(--color-primary)"/>
 </g>
</svg>
