<svg version="1.1" xmlns="http://www.w3.org/2000/svg" xmlns:xlink="http://www.w3.org/1999/xlink" width="16.1328" height="15.7715" viewBox="0 0 16.1328 15.7715">
 <g>
  <rect height="15.7715" opacity="0" width="16.1328" x="0" y="0"/>
  <path d="M7.88086 15.7715C12.1875 15.7715 15.7715 12.1973 15.7715 7.89062C15.7715 3.58398 12.1777 0.00976562 7.87109 0.00976562C3.57422 0.00976562 0 3.58398 0 7.89062C0 12.1973 3.58398 15.7715 7.88086 15.7715Z" fill="var(--color-tertiary)"/>
  <path d="M7.88086 5.625C6.70898 5.625 6.13281 5.79102 6.13281 6.11328L6.13281 6.23047C6.13281 6.65039 6.01562 6.94336 5.47852 6.99219L4.00391 7.13867C3.45703 7.19727 3.13477 7.08008 3.13477 6.46484C3.13477 6.46484 3.13477 6.47461 3.13477 6.46484C3.13477 4.75586 5.23438 3.95508 7.88086 3.95508C10.5469 3.95508 12.6367 4.75586 12.6367 6.46484L12.6367 6.46484C12.6367 7.08008 12.3242 7.19727 11.7871 7.13867L10.3027 6.99219C9.76562 6.94336 9.6582 6.65039 9.6582 6.23047L9.6582 6.12305C9.6582 5.76172 9.18945 5.625 7.88086 5.625ZM4.27734 9.48242C3.97461 9.48242 3.79883 9.32617 3.79883 9.02344L3.79883 8.27148C3.79883 7.98828 3.97461 7.8125 4.27734 7.8125L5.01953 7.8125C5.30273 7.8125 5.45898 7.98828 5.45898 8.27148L5.45898 9.02344C5.45898 9.32617 5.30273 9.48242 5.01953 9.48242ZM6.42578 9.48242C6.13281 9.48242 5.97656 9.32617 5.97656 9.02344L5.97656 8.27148C5.97656 7.98828 6.13281 7.8125 6.42578 7.8125L7.17773 7.8125C7.46094 7.8125 7.63672 7.98828 7.63672 8.27148L7.63672 9.02344C7.63672 9.32617 7.46094 9.48242 7.17773 9.48242ZM8.58398 9.48242C8.30078 9.48242 8.13477 9.32617 8.13477 9.02344L8.13477 8.27148C8.13477 7.98828 8.30078 7.8125 8.58398 7.8125L9.32617 7.8125C9.62891 7.8125 9.78516 7.98828 9.78516 8.27148L9.78516 9.02344C9.78516 9.32617 9.62891 9.48242 9.32617 9.48242ZM10.752 9.48242C10.4492 9.48242 10.2832 9.32617 10.2832 9.02344L10.2832 8.27148C10.2832 7.98828 10.4492 7.8125 10.752 7.8125L11.4844 7.8125C11.7676 7.8125 11.9434 7.98828 11.9434 8.27148L11.9434 9.02344C11.9434 9.32617 11.7676 9.48242 11.4844 9.48242ZM4.26758 11.6406C3.97461 11.6406 3.79883 11.4844 3.79883 11.1816L3.79883 10.4297C3.79883 10.1465 3.97461 9.9707 4.26758 9.9707L5.00977 9.9707C5.30273 9.9707 5.45898 10.1465 5.45898 10.4297L5.45898 11.1816C5.45898 11.4844 5.30273 11.6406 5.00977 11.6406ZM6.41602 11.6406C6.13281 11.6406 5.97656 11.4844 5.97656 11.1816L5.97656 10.4297C5.97656 10.1465 6.13281 9.9707 6.41602 9.9707L9.3457 9.9707C9.63867 9.9707 9.78516 10.1465 9.78516 10.4297L9.78516 11.1816C9.78516 11.4844 9.63867 11.6406 9.3457 11.6406ZM10.7617 11.6406C10.4688 11.6406 10.2832 11.4844 10.2832 11.1816L10.2832 10.4297C10.2832 10.1465 10.4688 9.9707 10.7617 9.9707L11.4941 9.9707C11.7871 9.9707 11.9434 10.1465 11.9434 10.4297L11.9434 11.1816C11.9434 11.4844 11.7871 11.6406 11.4941 11.6406Z" fill="var(--color-primary)"/>
 </g>
</svg>
