<svg version="1.1" xmlns="http://www.w3.org/2000/svg" xmlns:xlink="http://www.w3.org/1999/xlink" viewBox="0 0 18.9844 15.498">
 <g>
  <rect height="15.498" opacity="0" width="18.9844" x="0" y="0"/>
  <path d="M18.623 9.30664C18.623 7.03125 17.8125 4.94141 16.4453 3.31055C16.2891 3.125 16.0352 3.125 15.8594 3.30078L14.0332 5.13672C13.8867 5.2832 13.8867 5.48828 14.0137 5.6543C14.8047 6.66016 15.2734 7.92969 15.2734 9.30664C15.2734 10.6836 14.8047 11.9531 13.9551 13.0371C13.8574 13.1641 13.8672 13.3203 13.9746 13.4277L15.8594 15.3125C16.0352 15.4883 16.2891 15.4883 16.4453 15.3027C17.8125 13.6816 18.623 11.5918 18.623 9.30664Z" fill="var(--color-primary)"/>
  <path d="M9.31641 3.34961C10.7031 3.34961 11.9727 3.82812 12.9883 4.61914C13.1445 4.73633 13.3398 4.72656 13.4863 4.58008L15.3223 2.75391C15.498 2.57812 15.4883 2.32422 15.3027 2.16797C13.6816 0.810547 11.5918 0 9.31641 0C7.04102 0 4.94141 0.810547 3.33008 2.16797C3.14453 2.32422 3.13477 2.57812 3.31055 2.75391L5.13672 4.58008C5.2832 4.72656 5.48828 4.73633 5.6543 4.60938C6.66992 3.82812 7.93945 3.34961 9.31641 3.34961Z" fill="var(--color-primary)"/>
  <path d="M0 9.30664C0 11.5918 0.820312 13.6816 2.17773 15.3027C2.33398 15.4883 2.58789 15.4883 2.76367 15.3125L4.64844 13.4277C4.76562 13.3203 4.77539 13.1641 4.66797 13.0371C3.82812 11.9531 3.35938 10.6836 3.35938 9.30664C3.35938 7.92969 3.82812 6.66016 4.61914 5.6543C4.74609 5.48828 4.74609 5.2832 4.59961 5.13672L2.76367 3.30078C2.58789 3.125 2.33398 3.125 2.17773 3.31055C0.820312 4.94141 0 7.03125 0 9.30664Z" fill="var(--color-primary)"/>
  <path d="M9.31641 13.0469C9.59961 13.0469 9.80469 12.8223 9.80469 12.5293L9.80469 8.06641L11.5625 8.06641C11.7871 8.06641 11.9531 7.90039 11.9531 7.68555C11.9531 7.46094 11.7871 7.30469 11.5625 7.30469L7.05078 7.30469C6.81641 7.30469 6.66016 7.46094 6.66016 7.68555C6.66016 7.90039 6.81641 8.06641 7.05078 8.06641L8.80859 8.06641L8.80859 12.5293C8.80859 12.8223 9.0332 13.0469 9.31641 13.0469ZM6.63086 6.21094C6.63086 6.37695 6.75781 6.48438 6.91406 6.48438L11.6699 6.48438C11.8262 6.48438 11.9531 6.36719 11.9531 6.21094C11.9531 6.05469 11.8262 5.9375 11.6699 5.9375L6.91406 5.9375C6.75781 5.9375 6.63086 6.05469 6.63086 6.21094Z" fill="var(--color-primary)"/>
 </g>
</svg>
