<svg version="1.1" xmlns="http://www.w3.org/2000/svg" xmlns:xlink="http://www.w3.org/1999/xlink" width="7.27539" height="8.1543" viewBox="0 0 7.27539 8.1543">
 <g>
  <rect height="8.1543" opacity="0" width="7.27539" x="0" y="0"/>
  <path d="M0.722656 8.1543C1.08398 8.1543 1.32812 7.96875 1.45508 7.53906L2.00195 5.84961L4.89258 5.84961L5.43945 7.53906C5.58594 7.97852 5.83008 8.1543 6.18164 8.1543C6.62109 8.1543 6.91406 7.88086 6.91406 7.48047C6.91406 7.31445 6.86523 7.14844 6.80664 6.96289L4.55078 0.898438C4.3457 0.361328 3.96484 0.078125 3.44727 0.078125C2.93945 0.078125 2.56836 0.341797 2.36328 0.898438L0.0976562 6.96289C0.0292969 7.12891 0 7.30469 0 7.48047C0 7.89062 0.283203 8.1543 0.722656 8.1543ZM2.38281 4.72656L3.33984 1.71875L3.55469 1.71875L4.52148 4.72656Z" fill="var(--color-primary)"/>
 </g>
</svg>
