<svg version="1.1" xmlns="http://www.w3.org/2000/svg" xmlns:xlink="http://www.w3.org/1999/xlink" viewBox="0 0 16.1328 15.7715">
 <g>
  <rect height="15.7715" opacity="0" width="16.1328" x="0" y="0"/>
  <path d="M15.7715 7.89062C15.7715 12.2363 12.2363 15.7715 7.88086 15.7715C3.53516 15.7715 0 12.2363 0 7.89062C0 3.54492 3.53516 0.00976562 7.88086 0.00976562C12.2363 0.00976562 15.7715 3.54492 15.7715 7.89062ZM8.33984 11.9531C8.10547 11.9824 7.85156 11.9922 7.61719 11.9531C7.34375 11.9238 7.17773 12.0801 7.14844 12.2754C7.12891 12.4707 7.25586 12.666 7.53906 12.7051C7.8418 12.7344 8.125 12.7344 8.41797 12.7051C8.68164 12.666 8.81836 12.4902 8.80859 12.2754C8.7793 12.0703 8.61328 11.9238 8.33984 11.9531ZM10.127 10.4395C9.44336 10.6152 8.68164 10.6641 7.95898 10.5664C7.68555 10.5469 7.48047 10.6738 7.45117 10.9082C7.43164 11.123 7.54883 11.3086 7.83203 11.3477C8.62305 11.4355 9.56055 11.416 10.3809 11.1914C10.6445 11.123 10.7422 10.8789 10.6836 10.6836C10.6055 10.459 10.4004 10.3711 10.127 10.4395ZM11.0742 8.78906C10.1172 9.10156 9.19922 9.23828 8.22266 9.23828C7.80273 9.23828 7.37305 9.19922 7.04102 9.16016C6.75781 9.13086 6.58203 9.24805 6.5332 9.45312C6.49414 9.66797 6.61133 9.88281 6.9043 9.94141C7.22656 10 7.69531 10.0293 8.22266 10.0195C9.33594 10.0098 10.4004 9.86328 11.377 9.52148C11.6797 9.42383 11.7285 9.16016 11.6602 8.97461C11.582 8.75977 11.3477 8.70117 11.0742 8.78906ZM11.0449 7.34375C10.2832 7.62695 9.16992 7.83203 7.93945 7.83203C7.05078 7.83203 6.04492 7.72461 5.21484 7.48047C4.96094 7.41211 4.73633 7.49023 4.6582 7.72461C4.60938 7.94922 4.72656 8.17383 4.99023 8.24219C5.87891 8.49609 7.00195 8.62305 7.93945 8.62305C9.29688 8.62305 10.5273 8.39844 11.4062 8.04688C11.6309 7.94922 11.7383 7.71484 11.6309 7.49023C11.5234 7.28516 11.2891 7.24609 11.0449 7.34375ZM5.92773 3.13477C4.43359 3.59375 3.73047 4.375 3.73047 5.21484C3.73047 6.5332 5.15625 7.19727 7.82227 7.19727C10.5078 7.19727 12.0312 6.50391 12.0312 5.52734C12.0312 4.60938 10.7715 4.07227 9.0332 4.07227C7.70508 4.07227 6.69922 4.31641 5.94727 4.67773C5.67383 4.81445 5.61523 5.09766 5.73242 5.29297C5.83984 5.52734 6.12305 5.57617 6.34766 5.47852C7.02148 5.19531 7.85156 4.92188 8.98438 4.92188C10.3809 4.92188 11.1133 5.23438 11.1133 5.51758C11.1133 5.85938 9.95117 6.31836 7.7832 6.31836C5.67383 6.31836 4.64844 5.91797 4.64844 5.19531C4.64844 4.79492 5.00977 4.3457 6.2207 3.96484C6.49414 3.86719 6.63086 3.63281 6.55273 3.37891C6.46484 3.14453 6.25 3.04688 5.92773 3.13477Z" fill="var(--color-primary)"/>
 </g>
</svg>
