<svg version="1.1" xmlns="http://www.w3.org/2000/svg" xmlns:xlink="http://www.w3.org/1999/xlink" width="14.5898" height="14.248" viewBox="0 0 14.5898 14.248">
 <g>
  <rect height="14.248" opacity="0" width="14.5898" x="0" y="0"/>
  <path d="M2.49023 14.248L11.7383 14.248C13.4082 14.248 14.2285 13.4277 14.2285 11.7871L14.2285 2.4707C14.2285 0.830078 13.4082 0.00976562 11.7383 0.00976562L2.49023 0.00976562C0.830078 0.00976562 0 0.830078 0 2.4707L0 11.7871C0 13.4277 0.830078 14.248 2.49023 14.248Z" fill="var(--color-tertiary)"/>
  <path d="M5.33367 6.92174L5.42969 10.3711C5.42969 10.5371 5.56641 10.6543 5.73242 10.6543C5.92773 10.6543 6.03516 10.5371 6.03516 10.3711L5.96282 7.55008L6.78711 8.3733L6.78711 10.3711C6.78711 10.5371 6.91406 10.6543 7.09961 10.6543C7.28516 10.6543 7.42188 10.5371 7.42188 10.3711L7.42187 9.00724L8.18915 9.77352L8.17383 10.3711C8.17383 10.5371 8.27148 10.6543 8.4668 10.6543C8.63281 10.6543 8.76953 10.5371 8.76953 10.3711L8.77002 10.3536L9.93569 11.5178C9.79429 11.7618 9.53364 11.8848 9.17969 11.8848L5.03906 11.8848C4.48242 11.8848 4.18945 11.6016 4.16992 11.0449L3.94279 5.53267ZM3.44727 3.08594L10.9668 10.6055C11.1133 10.752 11.1133 10.9961 10.9668 11.1523C10.8105 11.2988 10.5566 11.2988 10.4102 11.1523L2.89062 3.63281C2.74414 3.49609 2.74414 3.23242 2.89062 3.08594C3.04688 2.92969 3.29102 2.92969 3.44727 3.08594ZM9.0625 3.52539L9.0625 4.14062L10.8984 4.14062C11.1133 4.14062 11.2891 4.31641 11.2793 4.52148C11.2695 4.7168 11.1133 4.88281 10.8984 4.88281L10.3027 4.88281L10.1422 8.9345L8.84552 7.64119L8.89648 5.81055C8.89648 5.625 8.78906 5.50781 8.59375 5.50781C8.41797 5.50781 8.29102 5.625 8.29102 5.80078L8.25883 7.05602L7.42187 6.22124L7.42188 5.81055C7.42188 5.625 7.28516 5.50781 7.09961 5.50781C6.98226 5.50781 6.88835 5.55468 6.8353 5.63618L5.14648 3.95176L5.14648 3.52539C5.14648 2.8418 5.58594 2.41211 6.30859 2.41211L7.88086 2.41211C8.60352 2.41211 9.0625 2.8418 9.0625 3.52539ZM6.35742 3.26172C6.17188 3.26172 6.03516 3.38867 6.03516 3.57422L6.03516 4.14062L8.1543 4.14062L8.1543 3.57422C8.1543 3.38867 8.02734 3.26172 7.83203 3.26172Z" fill="var(--color-primary)"/>
 </g>
</svg>
