<svg version="1.1" xmlns="http://www.w3.org/2000/svg" xmlns:xlink="http://www.w3.org/1999/xlink" viewBox="0 0 18.4766 20.3223">
 <g>
  <rect height="20.3223" opacity="0" width="18.4766" x="0" y="0"/>
  <path d="M15.1367 6.57227L17.6465 9.62891C18.0176 10.0879 18.1152 10.4688 18.1152 11.2207L18.1152 15.8398C18.1152 17.4805 17.2949 18.3008 15.625 18.3008L2.49023 18.3008C0.830078 18.3008 0 17.4805 0 15.8398L0 11.2207C0 10.4688 0.107422 10.0879 0.478516 9.62891L2.97852 6.57227C3.94531 5.39062 4.3457 5.0293 5.78125 5.0293L6.83594 5.0293L6.83594 6.25L5.69336 6.25C5.15625 6.25 4.72656 6.43555 4.3457 6.91406L1.63086 10.3125C1.48438 10.498 1.54297 10.7422 1.82617 10.7422L6.71875 10.7422C7.1582 10.7422 7.36328 11.084 7.36328 11.4258L7.36328 11.4453C7.36328 12.2559 8.00781 13.1934 9.0625 13.1934C10.1172 13.1934 10.752 12.2559 10.752 11.4453L10.752 11.4258C10.752 11.084 10.9668 10.7422 11.3965 10.7422L16.2988 10.7422C16.5723 10.7422 16.6309 10.498 16.4941 10.3125L13.7793 6.91406C13.3984 6.43555 12.959 6.25 12.4219 6.25L11.2891 6.25L11.2891 5.0293L12.334 5.0293C13.7793 5.0293 14.1699 5.39062 15.1367 6.57227ZM1.40625 12.0215L1.40625 15.7715C1.40625 16.5137 1.80664 16.8848 2.50977 16.8848L15.6055 16.8848C16.3086 16.8848 16.709 16.5137 16.709 15.7715L16.709 12.0215L12.0703 12.0215C11.8457 13.4277 10.6445 14.4824 9.0625 14.4824C7.48047 14.4824 6.26953 13.4277 6.04492 12.0215Z" fill="var(--color-primary)"/>
  <path d="M9.0625 10.4297C9.43359 10.4297 9.75586 10.1172 9.75586 9.75586L9.75586 3.06641L9.69727 1.9043L10.0879 2.32422L11.1719 3.49609C11.2891 3.63281 11.4746 3.70117 11.6406 3.70117C12.002 3.70117 12.2754 3.44727 12.2754 3.08594C12.2754 2.90039 12.207 2.76367 12.0703 2.62695L9.57031 0.234375C9.38477 0.0585938 9.23828 0 9.0625 0C8.87695 0 8.73047 0.0585938 8.55469 0.234375L6.04492 2.62695C5.91797 2.76367 5.83984 2.90039 5.83984 3.08594C5.83984 3.44727 6.10352 3.70117 6.47461 3.70117C6.64062 3.70117 6.82617 3.63281 6.95312 3.49609L8.02734 2.32422L8.41797 1.9043L8.36914 3.06641L8.36914 9.75586C8.36914 10.1172 8.68164 10.4297 9.0625 10.4297Z" fill="var(--color-primary)"/>
 </g>
</svg>
