<svg version="1.1" xmlns="http://www.w3.org/2000/svg" xmlns:xlink="http://www.w3.org/1999/xlink" width="16.1328" height="15.7715" viewBox="0 0 16.1328 15.7715">
 <g>
  <rect height="15.7715" opacity="0" width="16.1328" x="0" y="0"/>
  <path d="M7.88086 15.7617C12.1875 15.7617 15.7715 12.1875 15.7715 7.88086C15.7715 3.57422 12.1777 0 7.87109 0C3.57422 0 0 3.57422 0 7.88086C0 12.1875 3.58398 15.7617 7.88086 15.7617Z" fill="var(--color-tertiary)"/>
  <path d="M7.89062 11.8848C7.53906 11.8848 7.30469 11.6504 7.30469 11.2891L7.30469 10.0586L6.31836 10.5176C6.25 10.5469 6.16211 10.5664 6.09375 10.5664C5.84961 10.5664 5.68359 10.3809 5.68359 10.1367C5.68359 9.95117 5.77148 9.82422 5.97656 9.72656L7.30469 9.12109L7.30469 8.4082L6.31836 8.86719C6.25 8.89648 6.16211 8.91602 6.09375 8.91602C5.84961 8.91602 5.68359 8.74023 5.68359 8.49609C5.68359 8.30078 5.77148 8.18359 5.97656 8.07617L7.30469 7.48047L7.30469 5.23438L5.45898 5.23438C5.13672 5.23438 4.90234 5.01953 4.90234 4.69727C4.90234 4.38477 5.13672 4.16016 5.45898 4.16016L10.3027 4.16016C10.625 4.16016 10.8594 4.38477 10.8594 4.69727C10.8594 5.01953 10.625 5.23438 10.3027 5.23438L8.4668 5.23438L8.4668 7.00195L9.47266 6.5332C9.54102 6.50391 9.61914 6.48438 9.6875 6.48438C9.93164 6.48438 10.1074 6.66016 10.1074 6.9043C10.1074 7.09961 10 7.22656 9.81445 7.31445L8.4668 7.92969L8.4668 8.64258L9.46289 8.18359C9.54102 8.14453 9.61914 8.125 9.6875 8.125C9.93164 8.125 10.1074 8.30078 10.1074 8.55469C10.1074 8.75 10 8.87695 9.81445 8.96484L8.4668 9.57031L8.4668 11.2891C8.4668 11.6504 8.22266 11.8848 7.89062 11.8848Z" fill="var(--color-primary)"/>
 </g>
</svg>
