<svg version="1.1" xmlns="http://www.w3.org/2000/svg" xmlns:xlink="http://www.w3.org/1999/xlink" viewBox="0 0 19.7949 20.7593">
 <g>
  <rect height="20.7593" opacity="0" width="19.7949" x="0" y="0"/>
  <path d="M14.3164 17.4939C14.3164 17.8845 14.0039 18.197 13.6133 18.197L5.82031 18.197C5.42969 18.197 5.11719 17.8845 5.11719 17.4939C5.11719 17.1033 5.42969 16.781 5.82031 16.781L13.6133 16.781C14.0039 16.781 14.3164 17.1033 14.3164 17.4939ZM0.957031 3.09937L1.85054 3.9923C1.57205 4.07461 1.40625 4.30935 1.40625 4.64234L1.40625 13.3533C1.40625 13.783 1.66992 14.0369 2.08984 14.0369L11.9017 14.0369L13.3186 15.4529L2.07031 15.4529C0.791016 15.4529 0 14.6521 0 13.3728L0 4.62281C0 3.85256 0.286748 3.25932 0.79583 2.91098C0.843299 2.97735 0.897658 3.04 0.957031 3.09937ZM19.4336 4.62281L19.4336 13.3728C19.4336 14.3093 19.0097 14.9893 18.2794 15.2849L17.0322 14.0369L17.3438 14.0369C17.7637 14.0369 18.0273 13.783 18.0273 13.3533L18.0273 4.64234C18.0273 4.22242 17.7637 3.95875 17.3438 3.95875L6.96065 3.95875L5.55532 2.5525L17.3633 2.5525C18.6426 2.5525 19.4336 3.34351 19.4336 4.62281Z" fill="var(--color-primary)"/>
  <path d="M16.709 17.2205C16.9727 17.4841 17.4023 17.4841 17.6562 17.2205C17.9102 16.9666 17.9199 16.5369 17.6562 16.2732L2.72461 1.34156C2.46094 1.07789 2.03125 1.07789 1.76758 1.34156C1.51367 1.59547 1.51367 2.03492 1.76758 2.28882Z" fill="var(--color-primary)"/>
 </g>
</svg>
