<svg version="1.1" xmlns="http://www.w3.org/2000/svg" xmlns:xlink="http://www.w3.org/1999/xlink" viewBox="0 0 16.1328 15.7715">
 <g>
  <rect height="15.7715" opacity="0" width="16.1328" x="0" y="0"/>
  <path d="M15.7715 7.89062C15.7715 12.2363 12.2363 15.7715 7.88086 15.7715C3.53516 15.7715 0 12.2363 0 7.89062C0 3.54492 3.53516 0.00976562 7.88086 0.00976562C12.2363 0.00976562 15.7715 3.54492 15.7715 7.89062ZM4.04297 4.05273C3.90625 4.19922 3.90625 4.46289 4.04297 4.59961L11.1816 11.7285C11.3281 11.875 11.582 11.875 11.7285 11.7285C11.8848 11.5723 11.8848 11.3281 11.7285 11.1816L4.60938 4.05273C4.45312 3.89648 4.20898 3.89648 4.04297 4.05273ZM3.24219 5.91797L3.24219 9.88281C3.24219 10.6641 3.73047 11.123 4.51172 11.123L8.71094 11.123C9.03564 11.123 9.30603 11.0457 9.5109 10.8993L3.62305 5.01953L3.60032 4.9949C3.37465 5.20847 3.24219 5.52152 3.24219 5.91797ZM12.0215 5.44922L10.4297 6.82617L10.4297 8.97461L12.0215 10.3418C12.1582 10.4688 12.3242 10.5371 12.4609 10.5371C12.7832 10.5371 12.998 10.3027 12.998 9.96094L12.998 5.83008C12.998 5.48828 12.7832 5.26367 12.4609 5.26367C12.3242 5.26367 12.1484 5.33203 12.0215 5.44922ZM6.0575 4.66797L9.9707 8.57045L9.9707 5.91797C9.9707 5.12695 9.55078 4.66797 8.75977 4.66797Z" fill="var(--color-primary)"/>
 </g>
</svg>
