<svg version="1.1" xmlns="http://www.w3.org/2000/svg" xmlns:xlink="http://www.w3.org/1999/xlink" width="16.1328" height="15.7715" viewBox="0 0 16.1328 15.7715">
 <g>
  <rect height="15.7715" opacity="0" width="16.1328" x="0" y="0"/>
  <path d="M7.88086 15.7617C12.1875 15.7617 15.7715 12.1875 15.7715 7.88086C15.7715 3.57422 12.1777 0 7.87109 0C3.57422 0 0 3.57422 0 7.88086C0 12.1875 3.58398 15.7617 7.88086 15.7617Z" fill="var(--color-tertiary)"/>
  <path d="M7.88086 9.64844C7.27539 9.64844 6.54297 10.8301 5.07812 10.8301C3.63281 10.8301 2.55859 9.52148 2.55859 7.8418C2.55859 5.07812 5.00977 4.77539 7.88086 4.77539C10.7617 4.77539 13.2129 5.07812 13.2129 7.8418C13.2129 9.52148 12.1387 10.8301 10.6934 10.8301C9.22852 10.8301 8.49609 9.64844 7.88086 9.64844ZM7.88086 8.68164C9.0918 8.68164 9.53125 9.86328 10.6934 9.86328C11.6699 9.86328 12.2559 9.16016 12.2559 7.8418C12.2559 5.92773 10.6543 5.74219 7.88086 5.74219C5.10742 5.74219 3.51562 5.92773 3.51562 7.8418C3.51562 9.16016 4.0918 9.86328 5.07812 9.86328C6.24023 9.86328 6.67969 8.68164 7.88086 8.68164Z" fill="var(--color-primary)"/>
 </g>
</svg>
