<svg version="1.1" xmlns="http://www.w3.org/2000/svg" xmlns:xlink="http://www.w3.org/1999/xlink" viewBox="0 0 25.5957 18.6035">
 <g>
  <rect height="18.6035" opacity="0" width="25.5957" x="0" y="0"/>
  <path d="M4.16992 18.5938L21.0645 18.5938C22.3242 18.5938 23.4961 18.4863 24.3164 17.666C25.1465 16.8359 25.2344 15.6836 25.2344 14.4238L25.2344 4.16992C25.2344 2.91016 25.1465 1.75781 24.3164 0.927734C23.4863 0.107422 22.3242 0 21.0645 0L4.16992 0C2.91992 0 1.74805 0.107422 0.917969 0.927734C0.0976562 1.75781 0 2.91016 0 4.16016L0 14.4238C0 15.6836 0.0976562 16.8359 0.917969 17.666C1.74805 18.4863 2.91016 18.5938 4.16992 18.5938ZM3.95508 17.1875C3.24219 17.1875 2.40234 17.0996 1.94336 16.6406C1.48438 16.1816 1.40625 15.3516 1.40625 14.6387L1.40625 3.96484C1.40625 3.24219 1.48438 2.41211 1.94336 1.95312C2.40234 1.49414 3.24219 1.40625 3.96484 1.40625L21.2793 1.40625C21.9922 1.40625 22.832 1.49414 23.291 1.95312C23.75 2.41211 23.8281 3.24219 23.8281 3.95508L23.8281 14.6387C23.8281 15.3516 23.75 16.1816 23.291 16.6406C22.832 17.0996 21.9922 17.1875 21.2793 17.1875Z" fill="var(--color-primary)"/>
  <path d="M3.4375 11.5527L21.8066 11.5527C22.0996 11.5527 22.3438 11.3184 22.3438 11.0156C22.3438 10.7227 22.0996 10.4883 21.8066 10.4883L3.4375 10.4883C3.14453 10.4883 2.90039 10.7227 2.90039 11.0156C2.90039 11.3184 3.14453 11.5527 3.4375 11.5527ZM3.4375 13.7109L21.8066 13.7109C22.0996 13.7109 22.3438 13.4766 22.3438 13.1738C22.3438 12.8809 22.0996 12.6465 21.8066 12.6465L3.4375 12.6465C3.14453 12.6465 2.90039 12.8809 2.90039 13.1738C2.90039 13.4766 3.14453 13.7109 3.4375 13.7109ZM3.4375 15.8691L16.9238 15.8691C17.2266 15.8691 17.4609 15.6348 17.4609 15.332C17.4609 15.0391 17.2266 14.8047 16.9238 14.8047L3.4375 14.8047C3.14453 14.8047 2.90039 15.0391 2.90039 15.332C2.90039 15.6348 3.14453 15.8691 3.4375 15.8691ZM3.87695 5.98633L5.53711 5.98633C6.20117 5.98633 6.66016 5.52734 6.66016 4.86328L6.66016 3.69141C6.66016 3.02734 6.20117 2.56836 5.53711 2.56836L3.87695 2.56836C3.21289 2.56836 2.75391 3.02734 2.75391 3.69141L2.75391 4.86328C2.75391 5.52734 3.21289 5.98633 3.87695 5.98633Z" fill="var(--color-primary)"/>
 </g>
</svg>
