<svg version="1.1" xmlns="http://www.w3.org/2000/svg" xmlns:xlink="http://www.w3.org/1999/xlink" width="16.1328" height="15.7715" viewBox="0 0 16.1328 15.7715">
 <g>
  <rect height="15.7715" opacity="0" width="16.1328" x="0" y="0"/>
  <path d="M7.88086 15.7715C12.1875 15.7715 15.7715 12.1973 15.7715 7.89062C15.7715 3.58398 12.1777 0.00976562 7.87109 0.00976562C3.57422 0.00976562 0 3.58398 0 7.89062C0 12.1973 3.58398 15.7715 7.88086 15.7715Z" fill="var(--color-tertiary)"/>
  <path d="M8.59375 10.8789C8.59375 11.2598 8.27148 11.582 7.87109 11.582C7.49023 11.582 7.1582 11.2598 7.1582 10.8789C7.1582 10.4785 7.49023 10.166 7.87109 10.166C8.27148 10.166 8.59375 10.4785 8.59375 10.8789ZM8.38867 4.27734C8.35938 5.81055 8.34961 7.37305 8.33008 8.90625C8.32031 9.16992 8.14453 9.3457 7.88086 9.3457C7.61719 9.3457 7.44141 9.16992 7.43164 8.90625C7.41211 7.37305 7.39258 5.81055 7.36328 4.27734C7.36328 3.97461 7.60742 3.78906 7.87109 3.78906C8.14453 3.78906 8.38867 3.97461 8.38867 4.27734ZM6.7621 8.48188C6.38713 8.64643 6.04589 8.88986 5.78125 9.18945C5.63477 9.35547 5.45898 9.33594 5.33203 9.19922L4.6582 8.52539C4.55078 8.4082 4.54102 8.27148 4.62891 8.16406C5.13785 7.55333 5.89672 7.0982 6.74187 6.87792ZM11.1523 8.16406C11.25 8.26172 11.2402 8.41797 11.1328 8.52539L10.459 9.19922C10.3223 9.33594 10.166 9.3457 10.0293 9.19922C9.746 8.88502 9.38393 8.63331 8.99003 8.46789L9.01019 6.86944C9.87242 7.08565 10.6432 7.54489 11.1523 8.16406ZM6.72914 5.8708C5.67226 6.08761 4.73726 6.61127 3.99414 7.41211C3.85742 7.55859 3.66211 7.55859 3.55469 7.42188L2.94922 6.80664C2.85156 6.69922 2.83203 6.5625 2.92969 6.43555C3.77664 5.38657 5.19238 4.62199 6.70997 4.35513ZM12.8613 6.43555C12.959 6.5625 12.9395 6.69922 12.832 6.80664L12.2363 7.42188C12.1094 7.53906 11.9336 7.54883 11.8164 7.42188C11.0513 6.60576 10.0959 6.07781 9.02291 5.86315L9.04206 4.34888C10.5749 4.61089 12.0004 5.37894 12.8613 6.43555Z" fill="var(--color-primary)"/>
 </g>
</svg>
