<svg version="1.1" xmlns="http://www.w3.org/2000/svg" xmlns:xlink="http://www.w3.org/1999/xlink" width="27.4395" height="16.1621" viewBox="0 0 27.4395 16.1621">
 <g>
  <rect height="16.1621" opacity="0" width="27.4395" x="0" y="0"/>
  <path d="M26.4932 12.2949C26.4932 12.8613 25.9952 13.3496 25.3897 13.3496C24.794 13.3496 24.2959 12.8613 24.2959 12.2949C24.2959 11.709 24.7842 11.2402 25.3897 11.2402C26.0049 11.2402 26.4932 11.709 26.4932 12.2949ZM26.3272 3.73047L26.1416 9.11133C26.1221 9.56055 25.8291 9.86328 25.3897 9.86328C24.96 9.86328 24.6573 9.56055 24.6475 9.11133L24.4522 3.73047C24.4424 3.17383 24.8135 2.79297 25.3897 2.79297C25.9756 2.79297 26.3467 3.17383 26.3272 3.73047Z" fill="var(--color-primary)"/>
  <path d="M21.7666 3.7207C22.4795 4.28711 22.5674 5.04883 22.001 5.77148L16.6983 12.5C16.4639 12.8027 16.0635 12.8809 15.7022 12.6855C14.4229 11.9922 12.6358 11.5332 11.1807 11.5332C10.9304 11.5332 10.6698 11.547 10.4013 11.578L9.64229 10.2635C10.1792 10.1731 10.696 10.127 11.1807 10.127C12.5186 10.127 14.1104 10.4785 15.6631 11.1133C15.8584 11.1914 15.9366 11.1621 16.0928 10.9766L20.585 5.26367C20.7315 5.06836 20.7119 4.90234 20.5069 4.76562C17.8506 3.10547 14.5987 2.19727 11.1807 2.19727C9.20551 2.19727 7.28279 2.5023 5.50054 3.09085L4.71748 1.73473C6.61676 1.14977 8.85354 0.791016 11.1807 0.791016C15.585 0.791016 19.6573 2.07031 21.7666 3.7207ZM4.1542 3.58653C3.34799 3.91823 2.57959 4.31412 1.85453 4.76562C1.64945 4.90234 1.62992 5.06836 1.7764 5.26367L6.27836 10.9766C6.42484 11.1621 6.50296 11.1914 6.69828 11.1133C7.20016 10.9094 7.70407 10.7347 8.20051 10.595L8.91737 11.8367C8.10915 12.0372 7.31895 12.3307 6.65921 12.6855C6.30765 12.8809 5.90726 12.8027 5.67289 12.5L0.370152 5.77148C-0.196254 5.04883-0.108363 4.28711 0.604527 3.7207C1.31811 3.16239 2.25632 2.64655 3.35963 2.21027Z" fill="var(--color-secondary)"/>
  <path d="M11.1807 16.1621C12.167 16.1621 12.9971 15.3418 12.9971 14.3555C12.9971 13.3496 12.1768 12.5391 11.1807 12.5391C10.1944 12.5391 9.37406 13.3496 9.37406 14.3555C9.37406 15.3418 10.1846 16.1621 11.1807 16.1621ZM11.1807 15.0098C10.8194 15.0098 10.5264 14.7168 10.5264 14.3555C10.5264 13.9844 10.8194 13.6719 11.1807 13.6719C11.542 13.6719 11.8545 13.9844 11.8545 14.3555C11.8545 14.7168 11.542 15.0098 11.1807 15.0098ZM9.96 13.6426L11.21 12.9785L3.9639 0.429688C3.76859 0.107422 3.3682-0.0195312 2.98734 0.175781C2.62601 0.361328 2.53812 0.810547 2.7432 1.14258Z" fill="var(--color-primary)"/>
 </g>
</svg>
