<svg version="1.1" xmlns="http://www.w3.org/2000/svg" xmlns:xlink="http://www.w3.org/1999/xlink" viewBox="0 0 18.2634 18.3956">
 <g>
  <rect height="18.3956" opacity="0" width="18.2634" x="0" y="0"/>
  <path d="M0.957857 17.3667C2.24692 18.6558 4.18051 18.7144 5.42075 17.2007C6.24106 16.2046 8.66294 12.3667 10.577 10.4527C11.8661 9.16361 13.3602 9.81791 14.786 9.23197L13.5067 4.46634C13.3504 3.88041 13.6043 3.42142 14.2586 3.23588L17.1883 2.46439C17.1004 2.17142 16.8172 1.77103 16.4754 1.41947C14.6786-0.436 11.7293-0.445765 9.952 1.23392C7.38364 3.67533 9.30747 6.25345 7.69614 7.86478C5.5477 10.0132 2.68637 11.4878 1.12387 12.8941C-0.350737 14.2124-0.340971 16.0679 0.957857 17.3667ZM3.17465 16.1167C2.63754 16.1167 2.19809 15.687 2.19809 15.1499C2.19809 14.6226 2.63754 14.1831 3.17465 14.1831C3.702 14.1831 4.14145 14.6226 4.14145 15.1499C4.14145 15.687 3.702 16.1167 3.17465 16.1167ZM10.2938 5.91166C10.1082 5.96048 9.96176 5.87259 9.8934 5.67728C9.84458 5.5308 9.952 5.34525 10.118 5.29642L11.9442 4.80814C12.1004 4.76908 12.2762 4.86673 12.325 5.03275C12.3836 5.22806 12.2762 5.38431 12.1004 5.43314ZM10.5282 6.83939C10.3426 6.87845 10.1961 6.80033 10.1278 6.59525C10.079 6.44877 10.1864 6.27298 10.3524 6.22416L12.1786 5.72611C12.3348 5.68705 12.5106 5.7847 12.5594 5.96048C12.618 6.14603 12.5008 6.31205 12.3348 6.36088ZM10.7625 7.75736C10.5868 7.80619 10.4012 7.70853 10.3719 7.52298C10.3329 7.3472 10.4207 7.19095 10.5965 7.15189L12.4129 6.66361C12.5887 6.60502 12.7645 6.71244 12.8036 6.86869C12.8426 7.04447 12.7352 7.23002 12.579 7.26908ZM15.7332 8.81205C16.0067 8.64603 16.2801 8.43119 16.5731 8.16752C17.5887 7.25931 18.0868 5.88236 17.8426 4.92533L15.577 5.55033C15.3329 5.61869 15.118 5.64798 14.8641 5.60892Z" fill="var(--color-primary)"/>
 </g>
</svg>
