<svg version="1.1" xmlns="http://www.w3.org/2000/svg" xmlns:xlink="http://www.w3.org/1999/xlink" width="17.9103" height="17.5587" viewBox="0 0 17.9103 17.5587">
 <g>
  <rect height="17.5587" opacity="0" width="17.9103" x="0" y="0"/>
  <path d="M0.888733 10.5323L7.02155 16.6553C8.19342 17.837 9.34576 17.8467 10.5176 16.6846L16.6797 10.5128C17.8516 9.35065 17.8321 8.1983 16.6505 7.01666L10.5274 0.893616C9.35553-0.288025 8.20319-0.297791 7.03131 0.864319L0.869202 7.03619C-0.302673 8.20807-0.283142 9.35065 0.888733 10.5323ZM1.90436 9.55573C1.40631 9.04791 1.38678 8.5108 1.91412 7.98346L7.97858 1.91901C8.51569 1.39166 9.04303 1.40143 9.55084 1.90924L15.6446 7.99323C16.1524 8.50104 16.1622 9.03815 15.6348 9.56549L9.56061 15.6299C9.03326 16.1573 8.49615 16.1475 7.98834 15.6495Z" fill="var(--color-secondary)"/>
  <path d="M6.211 12.0557C6.39655 12.0557 6.57233 11.9874 6.69928 11.8506L8.77936 9.7608L10.8692 11.8506C10.9864 11.9776 11.1622 12.0557 11.3575 12.0557C11.7383 12.0557 12.0508 11.7432 12.0508 11.3526C12.0508 11.1573 11.9825 11.001 11.8458 10.8643L9.76569 8.78424L11.8555 6.68463C11.9922 6.54791 12.0606 6.39166 12.0606 6.20612C12.0606 5.81549 11.7481 5.51276 11.3672 5.51276C11.1817 5.51276 11.0352 5.57135 10.8887 5.71783L8.77936 7.81744L6.67975 5.7276C6.5528 5.59088 6.39655 5.52252 6.211 5.52252C5.82037 5.52252 5.50787 5.82526 5.50787 6.21588C5.50787 6.40143 5.586 6.56744 5.71295 6.6944L7.8028 8.78424L5.71295 10.8741C5.586 11.001 5.50787 11.1671 5.50787 11.3526C5.50787 11.7432 5.82037 12.0557 6.211 12.0557Z" fill="var(--color-primary)"/>
 </g>
</svg>
