<svg version="1.1" xmlns="http://www.w3.org/2000/svg" xmlns:xlink="http://www.w3.org/1999/xlink" width="11.0156" height="14.3848" viewBox="0 0 11.0156 14.3848">
 <g>
  <rect height="14.3848" opacity="0" width="11.0156" x="0" y="0"/>
  <path d="M5.33203 14.3457C5.81055 14.3457 6.15234 14.0039 6.15234 13.4961L6.15234 8.33008L10.4883 1.28906C10.6055 1.09375 10.6543 0.927734 10.6543 0.742188C10.6543 0.322266 10.293 0 9.83398 0C9.52148 0 9.26758 0.136719 9.10156 0.439453L5.35156 6.81641L5.30273 6.81641L1.55273 0.439453C1.38672 0.136719 1.13281 0 0.820312 0C0.361328 0 0 0.322266 0 0.742188C0 0.927734 0.0488281 1.09375 0.166016 1.28906L4.50195 8.33008L4.50195 13.4961C4.50195 14.0039 4.84375 14.3457 5.33203 14.3457ZM1.58203 8.55469L9.0918 8.55469C9.42383 8.55469 9.63867 8.31055 9.63867 7.98828C9.63867 7.66602 9.42383 7.42188 9.0918 7.42188L1.58203 7.42188C1.25 7.42188 1.03516 7.66602 1.03516 7.98828C1.03516 8.31055 1.25 8.55469 1.58203 8.55469ZM1.58203 11.2598L9.0918 11.2598C9.42383 11.2598 9.63867 11.0156 9.63867 10.6934C9.63867 10.3711 9.42383 10.127 9.0918 10.127L1.58203 10.127C1.25 10.127 1.03516 10.3711 1.03516 10.6934C1.03516 11.0156 1.25 11.2598 1.58203 11.2598Z" fill="var(--color-primary)"/>
 </g>
</svg>
