<svg version="1.1" xmlns="http://www.w3.org/2000/svg" xmlns:xlink="http://www.w3.org/1999/xlink" viewBox="0 0 14.5898 14.248">
 <g>
  <rect height="14.248" opacity="0" width="14.5898" x="0" y="0"/>
  <path d="M14.2285 2.4707L14.2285 11.7871C14.2285 13.4277 13.4082 14.248 11.7383 14.248L2.49023 14.248C0.830078 14.248 0 13.4277 0 11.7871L0 2.4707C0 0.830078 0.830078 0.00976562 2.49023 0.00976562L11.7383 0.00976562C13.4082 0.00976562 14.2285 0.830078 14.2285 2.4707ZM4.75586 3.38867C4.41406 3.38867 4.16016 3.61328 4.16016 3.97461C4.16016 4.3457 4.41406 4.56055 4.75586 4.56055L7.92969 4.56055L7.92969 4.62891L4.43359 9.50195C4.24805 9.77539 4.18945 9.89258 4.18945 10.0879C4.18945 10.4297 4.44336 10.6738 4.81445 10.6738L9.48242 10.6738C9.83398 10.6738 10.0879 10.4492 10.0879 10.0879C10.0879 9.7168 9.83398 9.50195 9.48242 9.50195L6.09375 9.50195L6.09375 9.43359L9.59961 4.55078C9.76562 4.31641 9.80469 4.20898 9.80469 4.00391C9.80469 3.64258 9.54102 3.38867 9.16016 3.38867Z" fill="var(--color-primary)"/>
 </g>
</svg>
