<svg version="1.1" xmlns="http://www.w3.org/2000/svg" xmlns:xlink="http://www.w3.org/1999/xlink" viewBox="0 0 18.2715 13.5645">
 <g>
  <rect height="13.5645" opacity="0" width="18.2715" x="0" y="0"/>
  <path d="M17.9102 6.36719L17.9102 11.1426C17.9102 12.7441 17.0801 13.5547 15.459 13.5547L2.45117 13.5547C0.820312 13.5547 0 12.7441 0 11.1426L0 6.36719C0 2.07031 2.08008 0 6.61133 0L11.2988 0C15.8301 0 17.9102 2.07031 17.9102 6.36719ZM5.58594 3.75C5.30273 3.75 5.06836 3.98438 5.06836 4.25781C5.06836 4.54102 5.30273 4.77539 5.58594 4.77539L7.40234 4.77539L7.40234 4.82422L5.20508 8.79883C5.11719 8.97461 5.07812 9.12109 5.07812 9.29688C5.07812 9.67773 5.33203 9.88281 5.69336 9.88281L8.36914 9.88281C8.64258 9.88281 8.87695 9.64844 8.87695 9.36523C8.87695 9.0918 8.64258 8.85742 8.36914 8.85742L6.45508 8.85742L6.45508 8.79883L8.62305 4.83398C8.71094 4.66797 8.76953 4.55078 8.76953 4.3457C8.76953 3.99414 8.52539 3.75 8.1543 3.75ZM9.81445 4.24805L9.81445 9.20898C9.81445 9.60938 10.0391 9.85352 10.4297 9.85352L12.5684 9.85352C12.8516 9.85352 13.0859 9.61914 13.0859 9.3457C13.0859 9.05273 12.8516 8.81836 12.5684 8.81836L11.0547 8.81836L11.0547 4.24805C11.0547 3.90625 10.7715 3.63281 10.4395 3.63281C10.0977 3.63281 9.81445 3.90625 9.81445 4.24805Z" fill="var(--color-primary)"/>
 </g>
</svg>
