<svg version="1.1" xmlns="http://www.w3.org/2000/svg" xmlns:xlink="http://www.w3.org/1999/xlink" width="14.5898" height="14.248" viewBox="0 0 14.5898 14.248">
 <g>
  <rect height="14.248" opacity="0" width="14.5898" x="0" y="0"/>
  <path d="M2.49023 14.248L11.7383 14.248C13.4082 14.248 14.2285 13.4277 14.2285 11.7871L14.2285 2.4707C14.2285 0.830078 13.4082 0.00976562 11.7383 0.00976562L2.49023 0.00976562C0.830078 0.00976562 0 0.830078 0 2.4707L0 11.7871C0 13.4277 0.830078 14.248 2.49023 14.248ZM2.50977 12.832C1.80664 12.832 1.40625 12.4609 1.40625 11.7188L1.40625 2.53906C1.40625 1.80664 1.80664 1.42578 2.50977 1.42578L11.7188 1.42578C12.4219 1.42578 12.8223 1.80664 12.8223 2.53906L12.8223 11.7188C12.8223 12.4609 12.4219 12.832 11.7188 12.832Z" fill="var(--color-primary)"/>
  <path d="M5.17578 10.3809C6.72852 10.3809 7.2168 8.70117 7.2168 7.11914C7.2168 5.53711 6.72852 3.85742 5.17578 3.85742C3.62305 3.85742 3.13477 5.53711 3.13477 7.11914C3.13477 8.70117 3.62305 10.3809 5.17578 10.3809ZM5.17578 9.36523C4.63867 9.36523 4.38477 8.49609 4.38477 7.11914C4.38477 5.74219 4.63867 4.87305 5.17578 4.87305C5.71289 4.87305 5.95703 5.74219 5.95703 7.11914C5.95703 8.49609 5.71289 9.36523 5.17578 9.36523ZM9.88281 10.3027C10.2246 10.3027 10.5078 10.0195 10.5078 9.66797L10.5078 4.62891C10.5078 4.16992 10.2344 3.91602 9.77539 3.91602C9.42383 3.91602 9.13086 4.12109 8.92578 4.26758L8.14453 4.87305C7.98828 4.98047 7.87109 5.15625 7.87109 5.38086C7.87109 5.64453 8.04688 5.83008 8.30078 5.83008C8.4375 5.83008 8.51562 5.79102 8.60352 5.72266L9.24805 5.20508L9.24805 9.66797C9.24805 10.0195 9.53125 10.3027 9.88281 10.3027Z" fill="var(--color-primary)"/>
 </g>
</svg>
