<?xml version="1.0" encoding="UTF-8"?>
<!--Generator: Apple Native CoreSVG 232.5-->
<!DOCTYPE svg
PUBLIC "-//W3C//DTD SVG 1.1//EN"
       "http://www.w3.org/Graphics/SVG/1.1/DTD/svg11.dtd">
<svg version="1.1" xmlns="http://www.w3.org/2000/svg" xmlns:xlink="http://www.w3.org/1999/xlink" width="14.5898" height="14.248">
 <g>
  <rect height="14.248" opacity="0" width="14.5898" x="0" y="0"/>
  <path d="M2.49023 14.248L11.7383 14.248C13.4082 14.248 14.2285 13.4277 14.2285 11.7871L14.2285 2.4707C14.2285 0.830078 13.4082 0.00976562 11.7383 0.00976562L2.49023 0.00976562C0.830078 0.00976562 0 0.830078 0 2.4707L0 11.7871C0 13.4277 0.830078 14.248 2.49023 14.248ZM2.50977 12.832C1.80664 12.832 1.40625 12.4609 1.40625 11.7188L1.40625 2.53906C1.40625 1.80664 1.80664 1.42578 2.50977 1.42578L11.7188 1.42578C12.4219 1.42578 12.8223 1.80664 12.8223 2.53906L12.8223 11.7188C12.8223 12.4609 12.4219 12.832 11.7188 12.832Z" fill="#ffffff" fill-opacity="0.55"/>
  <path d="M4.75586 10.3809C6.30859 10.3809 6.79688 8.70117 6.79688 7.11914C6.79688 5.53711 6.30859 3.85742 4.75586 3.85742C3.20312 3.85742 2.71484 5.53711 2.71484 7.11914C2.71484 8.70117 3.20312 10.3809 4.75586 10.3809ZM4.75586 9.36523C4.21875 9.36523 3.96484 8.49609 3.96484 7.11914C3.96484 5.74219 4.21875 4.87305 4.75586 4.87305C5.29297 4.87305 5.53711 5.74219 5.53711 7.11914C5.53711 8.49609 5.29297 9.36523 4.75586 9.36523ZM8.17383 10.2148L10.8398 10.2148C11.1426 10.2148 11.3281 10.0195 11.3281 9.7168C11.3281 9.39453 11.1328 9.20898 10.8398 9.20898L9.11133 9.20898L9.11133 9.15039L10.1465 7.89062C10.957 6.9043 11.2109 6.33789 11.2109 5.66406C11.2109 4.59961 10.4688 3.85742 9.39453 3.85742C8.38867 3.85742 7.60742 4.66797 7.60742 5.45898C7.60742 5.78125 7.80273 6.00586 8.125 6.00586C8.4082 6.00586 8.57422 5.87891 8.67188 5.5957C8.81836 5.12695 8.98438 4.84375 9.38477 4.84375C9.78516 4.84375 10.0391 5.19531 10.0391 5.72266C10.0391 6.33789 9.56055 6.98242 9.17969 7.4707L7.92969 9.02344C7.77344 9.22852 7.59766 9.44336 7.59766 9.7168C7.59766 10 7.7832 10.2148 8.17383 10.2148Z" fill="#ffffff" fill-opacity="0.85"/>
 </g>
</svg>
