<?xml version="1.0" encoding="UTF-8"?>
<!--Generator: Apple Native CoreSVG 232.5-->
<!DOCTYPE svg
PUBLIC "-//W3C//DTD SVG 1.1//EN"
       "http://www.w3.org/Graphics/SVG/1.1/DTD/svg11.dtd">
<svg version="1.1" xmlns="http://www.w3.org/2000/svg" xmlns:xlink="http://www.w3.org/1999/xlink" width="22.7441" height="15.0879">
 <g>
  <rect height="15.0879" opacity="0" width="22.7441" x="0" y="0"/>
  <path d="M0 7.53906C0 9.99023 0.78125 12.2461 2.11914 14.1016C2.39258 14.4727 2.86133 14.5117 3.20312 14.2285C3.52539 13.9648 3.56445 13.5352 3.32031 13.1934C2.16797 11.6016 1.50391 9.63867 1.50391 7.53906C1.50391 5.42969 2.16797 3.47656 3.32031 1.875C3.56445 1.54297 3.53516 1.11328 3.20312 0.839844C2.86133 0.556641 2.39258 0.605469 2.11914 0.976562C0.78125 2.82227 0 5.08789 0 7.53906ZM22.3828 7.53906C22.3828 5.08789 21.6016 2.82227 20.2637 0.976562C19.9902 0.605469 19.5215 0.556641 19.1797 0.839844C18.8477 1.11328 18.8184 1.54297 19.0625 1.875C20.2148 3.47656 20.8789 5.42969 20.8789 7.53906C20.8789 9.63867 20.2148 11.6016 19.0625 13.1934C18.8184 13.5352 18.8574 13.9648 19.1797 14.2285C19.5215 14.5117 19.9902 14.4727 20.2637 14.1016C21.6016 12.2461 22.3828 9.99023 22.3828 7.53906Z" fill="#ffffff" fill-opacity="0.85"/>
  <path d="M11.1914 15.0781C15.3125 15.0781 18.7305 11.6602 18.7305 7.53906C18.7305 3.41797 15.3125 0 11.1816 0C7.06055 0 3.65234 3.4082 3.65234 7.53906C3.65234 11.6602 7.07031 15.0781 11.1914 15.0781ZM11.1914 13.5938C7.83203 13.5938 5.14648 10.9082 5.14648 7.53906C5.14648 4.16992 7.82227 1.48438 11.1816 1.48438C14.541 1.48438 17.2363 4.16992 17.2461 7.53906C17.2559 10.8984 14.5605 13.5938 11.1914 13.5938Z" fill="#ffffff" fill-opacity="0.85"/>
  <path d="M11.5918 11.2207C12.0508 11.2207 12.3047 10.9277 12.3047 10.4297L12.3047 4.64844C12.3047 4.14062 12.041 3.85742 11.5625 3.85742C11.25 3.85742 11.0254 3.94531 10.6543 4.19922L9.33594 5.10742C9.15039 5.23438 9.07227 5.37109 9.07227 5.58594C9.07227 5.84961 9.27734 6.09375 9.55078 6.09375C9.6875 6.09375 9.77539 6.07422 9.98047 5.9375L10.8496 5.36133L10.9082 5.36133L10.9082 10.4297C10.9082 10.9277 11.1621 11.2207 11.5918 11.2207Z" fill="#ffffff" fill-opacity="0.85"/>
 </g>
</svg>
