<?xml version="1.0" encoding="UTF-8"?>
<!--Generator: Apple Native CoreSVG 232.5-->
<!DOCTYPE svg
PUBLIC "-//W3C//DTD SVG 1.1//EN"
       "http://www.w3.org/Graphics/SVG/1.1/DTD/svg11.dtd">
<svg version="1.1" xmlns="http://www.w3.org/2000/svg" xmlns:xlink="http://www.w3.org/1999/xlink" width="16.1328" height="15.7715">
 <g>
  <rect height="15.7715" opacity="0" width="16.1328" x="0" y="0"/>
  <path d="M7.88086 15.7617C12.1875 15.7617 15.7715 12.1875 15.7715 7.88086C15.7715 3.57422 12.1777 0 7.87109 0C3.57422 0 0 3.57422 0 7.88086C0 12.1875 3.58398 15.7617 7.88086 15.7617Z" fill="#ffffff" fill-opacity="0.25"/>
  <path d="M5.79102 11.1816C5.41992 11.1816 5.12695 10.8887 5.12695 10.5273L5.12695 5.89844L4.46289 6.42578C4.375 6.50391 4.28711 6.54297 4.15039 6.54297C3.87695 6.54297 3.70117 6.34766 3.70117 6.07422C3.70117 5.83984 3.81836 5.66406 3.98438 5.54688L4.79492 4.92188C5.00977 4.76562 5.3125 4.56055 5.68359 4.56055C6.14258 4.56055 6.43555 4.82422 6.43555 5.29297L6.43555 10.5273C6.43555 10.8887 6.14258 11.1816 5.79102 11.1816ZM9.81445 11.2598C8.20312 11.2598 7.69531 9.53125 7.69531 7.88086C7.69531 6.23047 8.20312 4.50195 9.81445 4.50195C11.4258 4.50195 11.9238 6.23047 11.9238 7.88086C11.9238 9.53125 11.4258 11.2598 9.81445 11.2598ZM9.81445 10.2148C10.3711 10.2148 10.625 9.31641 10.625 7.88086C10.625 6.44531 10.3711 5.54688 9.81445 5.54688C9.25781 5.54688 8.99414 6.44531 8.99414 7.88086C8.99414 9.31641 9.25781 10.2148 9.81445 10.2148Z" fill="#ffffff" fill-opacity="0.85"/>
 </g>
</svg>
