<svg version="1.1" xmlns="http://www.w3.org/2000/svg" xmlns:xlink="http://www.w3.org/1999/xlink" width="16.1328" height="15.7715" viewBox="0 0 16.1328 15.7715">
 <g>
  <rect height="15.7715" opacity="0" width="16.1328" x="0" y="0"/>
  <path d="M15.7715 7.88086C15.7715 12.1875 12.1875 15.7617 7.88086 15.7617C3.58398 15.7617 0 12.1875 0 7.88086C0 3.57422 3.57422 0 7.87109 0C12.1777 0 15.7715 3.57422 15.7715 7.88086ZM7.76367 6.25977C7.76367 7.09961 8.30078 7.55859 8.78906 7.69531L8.78906 7.72461C8.11523 7.88086 7.57812 8.47656 7.57812 9.36523C7.57812 10.5664 8.51562 11.2402 9.69727 11.2402C11.0059 11.2402 11.8262 10.4492 11.8262 9.36523C11.8262 8.4668 11.25 7.87109 10.625 7.72461L10.625 7.69531C11.1523 7.54883 11.6504 7.04102 11.6504 6.26953C11.6504 5.21484 10.8398 4.53125 9.69727 4.53125C8.71094 4.53125 7.76367 5.10742 7.76367 6.25977ZM4.70703 4.92188L3.88672 5.54688C3.73047 5.66406 3.60352 5.83984 3.60352 6.07422C3.60352 6.34766 3.78906 6.54297 4.05273 6.54297C4.18945 6.54297 4.27734 6.50391 4.375 6.42578L5.03906 5.89844L5.03906 10.5273C5.03906 10.8887 5.33203 11.1816 5.69336 11.1816C6.04492 11.1816 6.34766 10.8887 6.34766 10.5273L6.34766 5.29297C6.34766 4.82422 6.05469 4.56055 5.5957 4.56055C5.21484 4.56055 4.91211 4.76562 4.70703 4.92188ZM10.4883 9.25781C10.4883 9.79492 10.2344 10.2832 9.69727 10.2832C9.16992 10.2832 8.92578 9.79492 8.92578 9.25781C8.92578 8.73047 9.16992 8.24219 9.69727 8.24219C10.2344 8.24219 10.4883 8.71094 10.4883 9.25781ZM10.3906 6.39648C10.3906 6.875 10.1758 7.29492 9.69727 7.29492C9.20898 7.29492 9.00391 6.80664 9.00391 6.39648C9.00391 5.92773 9.23828 5.47852 9.69727 5.47852C10.1758 5.47852 10.3906 5.91797 10.3906 6.39648Z" fill="currentColor"/>
 </g>
</svg>
