<?xml version="1.0" encoding="UTF-8"?>
<!--Generator: Apple Native CoreSVG 232.5-->
<!DOCTYPE svg
PUBLIC "-//W3C//DTD SVG 1.1//EN"
       "http://www.w3.org/Graphics/SVG/1.1/DTD/svg11.dtd">
<svg version="1.1" xmlns="http://www.w3.org/2000/svg" xmlns:xlink="http://www.w3.org/1999/xlink" width="14.5898" height="14.248">
 <g>
  <rect height="14.248" opacity="0" width="14.5898" x="0" y="0"/>
  <path d="M2.49023 14.248L11.7383 14.248C13.4082 14.248 14.2285 13.4277 14.2285 11.7871L14.2285 2.4707C14.2285 0.830078 13.4082 0.00976562 11.7383 0.00976562L2.49023 0.00976562C0.830078 0.00976562 0 0.830078 0 2.4707L0 11.7871C0 13.4277 0.830078 14.248 2.49023 14.248ZM2.50977 12.832C1.80664 12.832 1.40625 12.4609 1.40625 11.7188L1.40625 2.53906C1.40625 1.80664 1.80664 1.42578 2.50977 1.42578L11.7188 1.42578C12.4219 1.42578 12.8223 1.80664 12.8223 2.53906L12.8223 11.7188C12.8223 12.4609 12.4219 12.832 11.7188 12.832Z" fill="#ffffff" fill-opacity="0.85"/>
  <path d="M5.00977 10.3027C5.35156 10.3027 5.63477 10.0195 5.63477 9.66797L5.63477 4.62891C5.63477 4.16992 5.36133 3.91602 4.90234 3.91602C4.55078 3.91602 4.25781 4.12109 4.05273 4.26758L3.27148 4.87305C3.11523 4.98047 2.99805 5.15625 2.99805 5.38086C2.99805 5.64453 3.17383 5.83008 3.42773 5.83008C3.56445 5.83008 3.64258 5.79102 3.73047 5.72266L4.375 5.20508L4.375 9.66797C4.375 10.0195 4.6582 10.3027 5.00977 10.3027ZM8.32031 8.07617C8.90625 8.07617 9.375 7.69531 9.56055 7.05078L9.58984 7.05078C9.58984 7.08008 9.58984 7.10938 9.58984 7.12891C9.58984 7.91992 9.50195 9.375 8.71094 9.375C8.39844 9.375 8.19336 9.16992 8.06641 8.88672C7.93945 8.63281 7.77344 8.51562 7.50977 8.51562C7.1582 8.51562 7.00195 8.75977 7.00195 9.0332C7.00195 9.13086 7.02148 9.21875 7.04102 9.30664C7.19727 9.98047 7.90039 10.3711 8.68164 10.3711C10.2832 10.3711 10.7617 8.67188 10.7617 7.07031C10.7617 5.625 10.2832 3.87695 8.69141 3.87695C7.5 3.87695 6.80664 4.85352 6.80664 6.07422C6.80664 7.09961 7.30469 8.07617 8.32031 8.07617ZM8.71094 7.13867C8.18359 7.13867 7.98828 6.5332 7.98828 6.01562C7.98828 5.48828 8.22266 4.87305 8.71094 4.87305C9.23828 4.87305 9.43359 5.48828 9.43359 6.01562C9.43359 6.5625 9.21875 7.13867 8.71094 7.13867Z" fill="#ffffff" fill-opacity="0.85"/>
 </g>
</svg>
