<?xml version="1.0" encoding="UTF-8"?>
<!--Generator: Apple Native CoreSVG 232.5-->
<!DOCTYPE svg
PUBLIC "-//W3C//DTD SVG 1.1//EN"
       "http://www.w3.org/Graphics/SVG/1.1/DTD/svg11.dtd">
<svg version="1.1" xmlns="http://www.w3.org/2000/svg" xmlns:xlink="http://www.w3.org/1999/xlink" width="16.1328" height="15.7715">
 <g>
  <rect height="15.7715" opacity="0" width="16.1328" x="0" y="0"/>
  <path d="M7.88086 15.7617C12.1875 15.7617 15.7715 12.1875 15.7715 7.88086C15.7715 3.57422 12.1777 0 7.87109 0C3.57422 0 0 3.57422 0 7.88086C0 12.1875 3.58398 15.7617 7.88086 15.7617Z" fill="#ffffff" fill-opacity="0.25"/>
  <path d="M4.10156 11.0938C3.69141 11.0938 3.51562 10.8691 3.51562 10.5762C3.51562 10.2832 3.68164 10.0684 3.84766 9.86328L5.13672 8.24219C5.54688 7.74414 6.03516 7.07031 6.03516 6.42578C6.03516 5.87891 5.78125 5.51758 5.35156 5.51758C4.94141 5.51758 4.77539 5.82031 4.61914 6.29883C4.52148 6.5918 4.3457 6.72852 4.05273 6.72852C3.71094 6.72852 3.52539 6.49414 3.52539 6.16211C3.52539 5.3418 4.32617 4.50195 5.36133 4.50195C6.47461 4.50195 7.26562 5.27344 7.26562 6.36719C7.26562 7.08008 6.98242 7.65625 6.15234 8.67188L5.07812 9.98047L5.07812 10.0488L6.875 10.0488C7.17773 10.0488 7.37305 10.2344 7.37305 10.5762C7.37305 10.8887 7.17773 11.0938 6.875 11.0938ZM10.1855 11.2402C9.33594 11.2402 8.4668 10.8496 8.24219 10.0977C8.20312 9.96094 8.18359 9.83398 8.18359 9.67773C8.18359 9.33594 8.41797 9.12109 8.76953 9.12109C9.05273 9.12109 9.23828 9.26758 9.32617 9.55078C9.42383 9.86328 9.64844 10.2148 10.1855 10.2148C10.7324 10.2148 10.9961 9.79492 10.9961 9.28711C10.9961 8.64258 10.6641 8.29102 10.0195 8.29102L9.85352 8.29102C9.57031 8.29102 9.36523 8.125 9.36523 7.83203C9.36523 7.53906 9.56055 7.35352 9.85352 7.35352L10.0098 7.35352C10.5762 7.35352 10.8691 6.96289 10.8691 6.41602C10.8691 5.92773 10.6445 5.55664 10.1562 5.55664C9.75586 5.55664 9.53125 5.81055 9.4043 6.25977C9.31641 6.55273 9.13086 6.66016 8.83789 6.66016C8.47656 6.66016 8.29102 6.41602 8.29102 6.13281C8.29102 5.99609 8.31055 5.84961 8.34961 5.70312C8.57422 5 9.33594 4.54102 10.1562 4.54102C11.2109 4.54102 12.0898 5.14648 12.0898 6.2793C12.0898 6.94336 11.7285 7.57812 11.0059 7.77344L11.0059 7.80273C11.6504 7.87109 12.2754 8.32031 12.2754 9.33594C12.2754 10.5371 11.3672 11.2402 10.1855 11.2402Z" fill="#ffffff" fill-opacity="0.85"/>
 </g>
</svg>
