<svg version="1.1" xmlns="http://www.w3.org/2000/svg" xmlns:xlink="http://www.w3.org/1999/xlink" width="14.5898" height="14.248" viewBox="0 0 14.5898 14.248">
 <g>
  <rect height="14.248" opacity="0" width="14.5898" x="0" y="0"/>
  <path d="M14.2285 2.4707L14.2285 11.7871C14.2285 13.4277 13.4082 14.248 11.7383 14.248L2.49023 14.248C0.830078 14.248 0 13.4277 0 11.7871L0 2.4707C0 0.830078 0.830078 0.00976562 2.49023 0.00976562L11.7383 0.00976562C13.4082 0.00976562 14.2285 0.830078 14.2285 2.4707ZM8.48633 3.91602C8.02734 3.91602 7.82227 4.21875 7.79297 4.6582L7.67578 6.73828C7.66602 6.86523 7.66602 6.97266 7.66602 7.09961C7.66602 7.43164 7.83203 7.73438 8.25195 7.73438C8.47656 7.73438 8.61328 7.64648 8.79883 7.41211C8.97461 7.17773 9.14062 7.02148 9.43359 7.02148C9.9707 7.02148 10.166 7.67578 10.166 8.21289C10.166 8.83789 9.96094 9.47266 9.42383 9.47266C9.02344 9.47266 8.80859 9.18945 8.65234 8.79883C8.54492 8.53516 8.34961 8.38867 8.11523 8.38867C7.79297 8.38867 7.58789 8.59375 7.58789 8.91602C7.58789 9.13086 7.63672 9.31641 7.71484 9.49219C8.00781 10.1074 8.74023 10.498 9.44336 10.498C10.7129 10.498 11.416 9.47266 11.416 8.18359C11.416 7.08984 10.8887 6.09375 9.86328 6.09375C9.38477 6.09375 8.97461 6.30859 8.7793 6.75781L8.74023 6.75781L8.84766 4.96094L10.6738 4.96094C10.9863 4.96094 11.1719 4.74609 11.1719 4.43359C11.1719 4.14062 10.9766 3.91602 10.6738 3.91602ZM2.75391 5.40039C2.75391 5.73242 2.94922 5.95703 3.28125 5.95703C3.57422 5.95703 3.75 5.83008 3.84766 5.53711C4.00391 5.05859 4.17969 4.75586 4.58008 4.75586C5.00977 4.75586 5.26367 5.11719 5.26367 5.66406C5.26367 6.30859 4.77539 6.98242 4.375 7.48047L3.07617 9.10156C2.91016 9.29688 2.74414 9.52148 2.74414 9.81445C2.74414 10.1074 2.92969 10.332 3.33008 10.332L6.10352 10.332C6.41602 10.332 6.60156 10.127 6.60156 9.81445C6.60156 9.47266 6.40625 9.28711 6.10352 9.28711L4.30664 9.28711L4.30664 9.21875L5.38086 7.91016C6.2207 6.89453 6.49414 6.31836 6.49414 5.60547C6.49414 4.51172 5.71289 3.74023 4.58984 3.74023C3.55469 3.74023 2.75391 4.58008 2.75391 5.40039Z" fill="var(--color-primary)"/>
 </g>
</svg>
