<?xml version="1.0" encoding="UTF-8"?>
<!--Generator: Apple Native CoreSVG 232.5-->
<!DOCTYPE svg
PUBLIC "-//W3C//DTD SVG 1.1//EN"
       "http://www.w3.org/Graphics/SVG/1.1/DTD/svg11.dtd">
<svg version="1.1" xmlns="http://www.w3.org/2000/svg" xmlns:xlink="http://www.w3.org/1999/xlink" width="16.1328" height="15.7715">
 <g>
  <rect height="15.7715" opacity="0" width="16.1328" x="0" y="0"/>
  <path d="M7.88086 15.7617C12.1875 15.7617 15.7715 12.1875 15.7715 7.88086C15.7715 3.57422 12.1777 0 7.87109 0C3.57422 0 0 3.57422 0 7.88086C0 12.1875 3.58398 15.7617 7.88086 15.7617Z" fill="#ffffff" fill-opacity="0.25"/>
  <path d="M4.49219 11.0938C4.07227 11.0938 3.89648 10.8691 3.89648 10.5762C3.89648 10.293 4.0625 10.0684 4.22852 9.86328L5.52734 8.24219C5.91797 7.74414 6.41602 7.07031 6.41602 6.42578C6.41602 5.87891 6.16211 5.51758 5.74219 5.51758C5.32227 5.51758 5.16602 5.82031 5 6.29883C4.90234 6.5918 4.72656 6.72852 4.43359 6.72852C4.0918 6.72852 3.90625 6.49414 3.90625 6.16211C3.90625 5.3418 4.7168 4.50195 5.75195 4.50195C6.86523 4.50195 7.63672 5.27344 7.63672 6.36719C7.63672 7.08008 7.37305 7.65625 6.5332 8.67188L5.45898 9.98047L5.45898 10.0586L7.25586 10.0586C7.55859 10.0586 7.75391 10.2344 7.75391 10.5762C7.75391 10.8887 7.56836 11.0938 7.25586 11.0938ZM9.67773 11.2012C9.24805 11.2012 9.08203 10.9082 9.08203 10.6543C9.08203 10.4492 9.11133 10.3418 9.19922 10.1465L10.8789 5.80078L10.8789 5.72266L8.93555 5.72266C8.62305 5.72266 8.42773 5.50781 8.42773 5.20508C8.42773 4.89258 8.62305 4.67773 8.93555 4.67773L11.4844 4.67773C11.8652 4.67773 12.1777 4.95117 12.1777 5.3418C12.1777 5.61523 12.1094 5.82031 12.0117 6.09375L10.2637 10.7617C10.1367 11.0742 10 11.2012 9.67773 11.2012Z" fill="#ffffff" fill-opacity="0.85"/>
 </g>
</svg>
