<svg version="1.1" xmlns="http://www.w3.org/2000/svg" xmlns:xlink="http://www.w3.org/1999/xlink" width="16.1328" height="15.7715" viewBox="0 0 16.1328 15.7715">
 <g>
  <rect height="15.7715" opacity="0" width="16.1328" x="0" y="0"/>
  <path d="M15.7715 7.88086C15.7715 12.1875 12.1875 15.7617 7.88086 15.7617C3.58398 15.7617 0 12.1875 0 7.88086C0 3.57422 3.57422 0 7.87109 0C12.1777 0 15.7715 3.57422 15.7715 7.88086ZM8.93555 4.67773C8.62305 4.67773 8.42773 4.89258 8.42773 5.20508C8.42773 5.50781 8.62305 5.72266 8.93555 5.72266L10.8789 5.72266L10.8789 5.80078L9.19922 10.1465C9.11133 10.3418 9.08203 10.4492 9.08203 10.6543C9.08203 10.9082 9.24805 11.2012 9.67773 11.2012C10 11.2012 10.1367 11.0742 10.2637 10.7617L12.0117 6.09375C12.1094 5.82031 12.1777 5.61523 12.1777 5.3418C12.1777 4.95117 11.8652 4.67773 11.4844 4.67773ZM3.90625 6.16211C3.90625 6.49414 4.0918 6.72852 4.43359 6.72852C4.72656 6.72852 4.90234 6.5918 5 6.29883C5.16602 5.82031 5.32227 5.51758 5.74219 5.51758C6.16211 5.51758 6.41602 5.87891 6.41602 6.42578C6.41602 7.07031 5.91797 7.74414 5.52734 8.24219L4.22852 9.86328C4.0625 10.0684 3.89648 10.293 3.89648 10.5762C3.89648 10.8691 4.07227 11.0938 4.49219 11.0938L7.25586 11.0938C7.56836 11.0938 7.75391 10.8887 7.75391 10.5762C7.75391 10.2344 7.55859 10.0586 7.25586 10.0586L5.45898 10.0586L5.45898 9.98047L6.5332 8.67188C7.37305 7.65625 7.63672 7.08008 7.63672 6.36719C7.63672 5.27344 6.86523 4.50195 5.75195 4.50195C4.7168 4.50195 3.90625 5.3418 3.90625 6.16211Z" fill="var(--color-primary)"/>
 </g>
</svg>
