<svg version="1.1" xmlns="http://www.w3.org/2000/svg" xmlns:xlink="http://www.w3.org/1999/xlink" width="16.1328" height="15.7715" viewBox="0 0 16.1328 15.7715">
 <g>
  <rect height="15.7715" opacity="0" width="16.1328" x="0" y="0"/>
  <path d="M7.88086 15.7617C12.1875 15.7617 15.7715 12.1875 15.7715 7.88086C15.7715 3.57422 12.1777 0 7.87109 0C3.57422 0 0 3.57422 0 7.88086C0 12.1875 3.58398 15.7617 7.88086 15.7617Z" fill="var(--color-tertiary)"/>
  <path d="M4.08203 11.0938C3.66211 11.0938 3.47656 10.8691 3.47656 10.5762C3.47656 10.2832 3.65234 10.0684 3.81836 9.86328L5.11719 8.24219C5.50781 7.74414 6.00586 7.07031 6.00586 6.42578C6.00586 5.87891 5.75195 5.51758 5.33203 5.51758C4.91211 5.51758 4.74609 5.82031 4.58984 6.29883C4.49219 6.5918 4.31641 6.72852 4.01367 6.72852C3.68164 6.72852 3.48633 6.49414 3.48633 6.16211C3.48633 5.3418 4.30664 4.50195 5.3418 4.50195C6.45508 4.50195 7.22656 5.27344 7.22656 6.36719C7.22656 7.08008 6.96289 7.65625 6.12305 8.67188L5.04883 9.98047L5.04883 10.0488L6.8457 10.0488C7.14844 10.0488 7.34375 10.2344 7.34375 10.5762C7.34375 10.8887 7.1582 11.0938 6.8457 11.0938ZM10.2637 11.2402C9.08203 11.2402 8.14453 10.5664 8.14453 9.36523C8.14453 8.47656 8.67188 7.88086 9.35547 7.72461L9.35547 7.69531C8.87695 7.55859 8.33008 7.09961 8.33008 6.25977C8.33008 5.10742 9.26758 4.53125 10.2637 4.53125C11.4062 4.53125 12.207 5.22461 12.207 6.26953C12.207 7.04102 11.709 7.54883 11.1914 7.69531L11.1914 7.72461C11.8164 7.87109 12.3926 8.4668 12.3926 9.36523C12.3926 10.4492 11.5625 11.2402 10.2637 11.2402ZM10.2637 7.29492C10.7324 7.29492 10.957 6.875 10.957 6.39648C10.957 5.91797 10.7324 5.47852 10.2637 5.47852C9.80469 5.47852 9.57031 5.92773 9.57031 6.39648C9.57031 6.80664 9.76562 7.29492 10.2637 7.29492ZM10.2637 10.2832C10.8008 10.2832 11.0449 9.80469 11.0449 9.25781C11.0449 8.71094 10.791 8.25195 10.2637 8.25195C9.72656 8.25195 9.48242 8.73047 9.48242 9.25781C9.48242 9.80469 9.72656 10.2832 10.2637 10.2832Z" fill="var(--color-primary)"/>
 </g>
</svg>
