<?xml version="1.0" encoding="UTF-8"?>
<!--Generator: Apple Native CoreSVG 232.5-->
<!DOCTYPE svg
PUBLIC "-//W3C//DTD SVG 1.1//EN"
       "http://www.w3.org/Graphics/SVG/1.1/DTD/svg11.dtd">
<svg version="1.1" xmlns="http://www.w3.org/2000/svg" xmlns:xlink="http://www.w3.org/1999/xlink" width="16.1328" height="15.7715">
 <g>
  <rect height="15.7715" opacity="0" width="16.1328" x="0" y="0"/>
  <path d="M7.88086 15.7617C12.1875 15.7617 15.7715 12.1875 15.7715 7.88086C15.7715 3.57422 12.1777 0 7.87109 0C3.57422 0 0 3.57422 0 7.88086C0 12.1875 3.58398 15.7617 7.88086 15.7617ZM7.88086 14.2773C4.33594 14.2773 1.50391 11.4355 1.50391 7.88086C1.50391 4.32617 4.32617 1.48438 7.87109 1.48438C11.4258 1.48438 14.2773 4.32617 14.2773 7.88086C14.2773 11.4355 11.4355 14.2773 7.88086 14.2773Z" fill="#ffffff" fill-opacity="0.85"/>
  <path d="M5.53711 11.123C6.66992 11.123 7.54883 10.4395 7.54883 9.27734C7.54883 8.30078 6.94336 7.87109 6.32812 7.80273L6.32812 7.77344C7.02148 7.58789 7.36328 6.98242 7.36328 6.33789C7.36328 5.25391 6.52344 4.6582 5.50781 4.6582C4.70703 4.6582 3.98438 5.09766 3.75977 5.78125C3.7207 5.91797 3.70117 6.05469 3.70117 6.20117C3.70117 6.47461 3.88672 6.69922 4.22852 6.69922C4.51172 6.69922 4.6875 6.5918 4.77539 6.30859C4.90234 5.87891 5.12695 5.64453 5.50781 5.64453C5.97656 5.64453 6.19141 6.00586 6.19141 6.47461C6.19141 7.00195 5.9082 7.37305 5.36133 7.37305L5.21484 7.37305C4.93164 7.37305 4.74609 7.54883 4.74609 7.83203C4.74609 8.11523 4.93164 8.27148 5.21484 8.27148L5.37109 8.27148C5.98633 8.27148 6.31836 8.61328 6.31836 9.22852C6.31836 9.72656 6.06445 10.127 5.53711 10.127C5.01953 10.127 4.80469 9.79492 4.70703 9.48242C4.61914 9.21875 4.43359 9.07227 4.16992 9.07227C3.82812 9.07227 3.60352 9.27734 3.60352 9.61914C3.60352 9.75586 3.62305 9.89258 3.66211 10.0195C3.88672 10.7324 4.70703 11.123 5.53711 11.123ZM8.88672 10.9766L11.5527 10.9766C11.8555 10.9766 12.0312 10.7812 12.0312 10.4785C12.0312 10.1562 11.8457 9.9707 11.5527 9.9707L9.82422 9.9707L9.82422 9.91211L10.8594 8.65234C11.6602 7.66602 11.9238 7.09961 11.9238 6.42578C11.9238 5.36133 11.1719 4.61914 10.0977 4.61914C9.10156 4.61914 8.32031 5.42969 8.32031 6.2207C8.32031 6.54297 8.50586 6.76758 8.82812 6.76758C9.11133 6.76758 9.28711 6.64062 9.375 6.35742C9.53125 5.88867 9.69727 5.60547 10.0879 5.60547C10.498 5.60547 10.7422 5.95703 10.7422 6.48438C10.7422 7.09961 10.2734 7.74414 9.88281 8.23242L8.64258 9.78516C8.47656 9.99023 8.31055 10.2051 8.31055 10.4785C8.31055 10.7617 8.48633 10.9766 8.88672 10.9766Z" fill="#ffffff" fill-opacity="0.85"/>
 </g>
</svg>
