<svg version="1.1" xmlns="http://www.w3.org/2000/svg" xmlns:xlink="http://www.w3.org/1999/xlink" width="14.5898" height="14.248" viewBox="0 0 14.5898 14.248">
 <g>
  <rect height="14.248" opacity="0" width="14.5898" x="0" y="0"/>
  <path d="M2.49023 14.248L11.7383 14.248C13.4082 14.248 14.2285 13.4277 14.2285 11.7871L14.2285 2.4707C14.2285 0.830078 13.4082 0.00976562 11.7383 0.00976562L2.49023 0.00976562C0.830078 0.00976562 0 0.830078 0 2.4707L0 11.7871C0 13.4277 0.830078 14.248 2.49023 14.248ZM2.50977 12.832C1.80664 12.832 1.40625 12.4609 1.40625 11.7188L1.40625 2.53906C1.40625 1.80664 1.80664 1.42578 2.50977 1.42578L11.7188 1.42578C12.4219 1.42578 12.8223 1.80664 12.8223 2.53906L12.8223 11.7188C12.8223 12.4609 12.4219 12.832 11.7188 12.832Z" fill="currentColor"/>
  <path d="M4.76562 10.3613C5.89844 10.3613 6.77734 9.67773 6.77734 8.51562C6.77734 7.53906 6.17188 7.10938 5.55664 7.04102L5.55664 7.01172C6.25 6.82617 6.5918 6.2207 6.5918 5.57617C6.5918 4.49219 5.75195 3.89648 4.73633 3.89648C3.93555 3.89648 3.21289 4.33594 2.98828 5.01953C2.94922 5.15625 2.92969 5.29297 2.92969 5.43945C2.92969 5.71289 3.11523 5.9375 3.45703 5.9375C3.74023 5.9375 3.91602 5.83008 4.00391 5.54688C4.13086 5.11719 4.35547 4.88281 4.73633 4.88281C5.20508 4.88281 5.41992 5.24414 5.41992 5.71289C5.41992 6.24023 5.13672 6.61133 4.58984 6.61133L4.44336 6.61133C4.16016 6.61133 3.97461 6.78711 3.97461 7.07031C3.97461 7.35352 4.16016 7.50977 4.44336 7.50977L4.59961 7.50977C5.21484 7.50977 5.54688 7.85156 5.54688 8.4668C5.54688 8.96484 5.29297 9.36523 4.76562 9.36523C4.24805 9.36523 4.0332 9.0332 3.93555 8.7207C3.84766 8.45703 3.66211 8.31055 3.39844 8.31055C3.05664 8.31055 2.83203 8.51562 2.83203 8.85742C2.83203 8.99414 2.85156 9.13086 2.89062 9.25781C3.11523 9.9707 3.93555 10.3613 4.76562 10.3613ZM9.49219 10.3613C10.625 10.3613 11.5039 9.67773 11.5039 8.51562C11.5039 7.53906 10.8984 7.10938 10.2832 7.04102L10.2832 7.01172C10.9766 6.82617 11.3184 6.2207 11.3184 5.57617C11.3184 4.49219 10.4785 3.89648 9.46289 3.89648C8.66211 3.89648 7.93945 4.33594 7.71484 5.01953C7.67578 5.15625 7.65625 5.29297 7.65625 5.43945C7.65625 5.71289 7.8418 5.9375 8.18359 5.9375C8.4668 5.9375 8.64258 5.83008 8.73047 5.54688C8.85742 5.11719 9.08203 4.88281 9.46289 4.88281C9.93164 4.88281 10.1465 5.24414 10.1465 5.71289C10.1465 6.24023 9.86328 6.61133 9.31641 6.61133L9.16992 6.61133C8.88672 6.61133 8.70117 6.78711 8.70117 7.07031C8.70117 7.35352 8.88672 7.50977 9.16992 7.50977L9.32617 7.50977C9.94141 7.50977 10.2734 7.85156 10.2734 8.4668C10.2734 8.96484 10.0195 9.36523 9.49219 9.36523C8.97461 9.36523 8.75977 9.0332 8.66211 8.7207C8.57422 8.45703 8.38867 8.31055 8.125 8.31055C7.7832 8.31055 7.55859 8.51562 7.55859 8.85742C7.55859 8.99414 7.57812 9.13086 7.61719 9.25781C7.8418 9.9707 8.66211 10.3613 9.49219 10.3613Z" fill="currentColor"/>
 </g>
</svg>
