<svg version="1.1" xmlns="http://www.w3.org/2000/svg" xmlns:xlink="http://www.w3.org/1999/xlink" width="14.5898" height="14.248" viewBox="0 0 14.5898 14.248">
 <g>
  <rect height="14.248" opacity="0" width="14.5898" x="0" y="0"/>
  <path d="M2.49023 14.248L11.7383 14.248C13.4082 14.248 14.2285 13.4277 14.2285 11.7871L14.2285 2.4707C14.2285 0.830078 13.4082 0.00976562 11.7383 0.00976562L2.49023 0.00976562C0.830078 0.00976562 0 0.830078 0 2.4707L0 11.7871C0 13.4277 0.830078 14.248 2.49023 14.248ZM2.50977 12.832C1.80664 12.832 1.40625 12.4609 1.40625 11.7188L1.40625 2.53906C1.40625 1.80664 1.80664 1.42578 2.50977 1.42578L11.7188 1.42578C12.4219 1.42578 12.8223 1.80664 12.8223 2.53906L12.8223 11.7188C12.8223 12.4609 12.4219 12.832 11.7188 12.832Z" fill="var(--color-primary)"/>
  <path d="M4.58008 10.3613C5.71289 10.3613 6.5918 9.67773 6.5918 8.51562C6.5918 7.53906 5.98633 7.10938 5.37109 7.04102L5.37109 7.01172C6.06445 6.82617 6.40625 6.2207 6.40625 5.57617C6.40625 4.49219 5.57617 3.89648 4.55078 3.89648C3.75977 3.89648 3.02734 4.33594 2.80273 5.01953C2.76367 5.15625 2.74414 5.29297 2.74414 5.43945C2.74414 5.71289 2.93945 5.9375 3.27148 5.9375C3.56445 5.9375 3.74023 5.83008 3.81836 5.54688C3.94531 5.11719 4.16992 4.88281 4.55078 4.88281C5.0293 4.88281 5.23438 5.24414 5.23438 5.71289C5.23438 6.24023 4.95117 6.61133 4.41406 6.61133L4.25781 6.61133C3.97461 6.61133 3.78906 6.78711 3.78906 7.07031C3.78906 7.35352 3.97461 7.50977 4.25781 7.50977L4.42383 7.50977C5.03906 7.50977 5.37109 7.85156 5.37109 8.4668C5.37109 8.96484 5.10742 9.36523 4.58008 9.36523C4.0625 9.36523 3.84766 9.0332 3.75 8.7207C3.67188 8.45703 3.47656 8.31055 3.21289 8.31055C2.87109 8.31055 2.64648 8.51562 2.64648 8.85742C2.64648 8.99414 2.66602 9.13086 2.70508 9.25781C2.92969 9.9707 3.75977 10.3613 4.58008 10.3613ZM10.2637 10.3223C10.5859 10.3223 10.8496 10.127 10.8496 9.70703L10.8496 9.0625L11.0742 9.0625C11.4062 9.0625 11.5527 8.84766 11.5527 8.56445C11.5527 8.29102 11.416 8.06641 11.0742 8.06641L10.8496 8.06641L10.8496 4.85352C10.8496 4.26758 10.4688 3.93555 9.90234 3.93555C9.29688 3.93555 9.01367 4.23828 8.76953 4.76562L7.5293 7.55859C7.38281 7.89062 7.33398 8.10547 7.33398 8.36914C7.33398 8.7793 7.61719 9.0625 8.02734 9.0625L9.66797 9.0625L9.66797 9.70703C9.66797 10.166 10 10.3223 10.2637 10.3223ZM9.69727 8.0957L8.38867 8.0957L8.38867 8.03711L9.66797 4.98047L9.69727 4.98047Z" fill="var(--color-primary)"/>
 </g>
</svg>
