<?xml version="1.0" encoding="UTF-8"?>
<!--Generator: Apple Native CoreSVG 232.5-->
<!DOCTYPE svg
PUBLIC "-//W3C//DTD SVG 1.1//EN"
       "http://www.w3.org/Graphics/SVG/1.1/DTD/svg11.dtd">
<svg version="1.1" xmlns="http://www.w3.org/2000/svg" xmlns:xlink="http://www.w3.org/1999/xlink" width="16.1328" height="15.7715">
 <g>
  <rect height="15.7715" opacity="0" width="16.1328" x="0" y="0"/>
  <path d="M7.88086 15.7617C12.1875 15.7617 15.7715 12.1875 15.7715 7.88086C15.7715 3.57422 12.1777 0 7.87109 0C3.57422 0 0 3.57422 0 7.88086C0 12.1875 3.58398 15.7617 7.88086 15.7617ZM7.88086 14.2773C4.33594 14.2773 1.50391 11.4355 1.50391 7.88086C1.50391 4.32617 4.32617 1.48438 7.87109 1.48438C11.4258 1.48438 14.2773 4.32617 14.2773 7.88086C14.2773 11.4355 11.4355 14.2773 7.88086 14.2773Z" fill="#ffffff" fill-opacity="0.55"/>
  <path d="M4.84375 9.29688C4.84375 9.72656 5.13672 10.0098 5.61523 10.0098L8.44727 10.0098L8.44727 10.8301C8.44727 11.2891 8.68164 11.5625 9.07227 11.5625C9.49219 11.5625 9.72656 11.2988 9.72656 10.8301L9.72656 10.0098L10.1562 10.0098C10.5371 10.0098 10.7715 9.77539 10.7715 9.42383C10.7715 9.10156 10.5371 8.87695 10.1562 8.87695L9.72656 8.87695L9.72656 7.31445C9.72656 6.83594 9.49219 6.58203 9.07227 6.58203C8.68164 6.58203 8.44727 6.8457 8.44727 7.31445L8.44727 8.87695L6.45508 8.87695C7.16797 7.57812 7.73438 6.5625 8.44727 5.24414C8.52539 5.10742 8.57422 4.9707 8.57422 4.84375C8.57422 4.49219 8.34961 4.19922 7.95898 4.19922C7.69531 4.19922 7.5 4.33594 7.33398 4.62891C6.50391 6.10352 5.83008 7.29492 4.99023 8.75977C4.89258 8.92578 4.84375 9.11133 4.84375 9.29688Z" fill="#ffffff" fill-opacity="0.85"/>
 </g>
</svg>
