<?xml version="1.0" encoding="UTF-8"?>
<!--Generator: Apple Native CoreSVG 232.5-->
<!DOCTYPE svg
PUBLIC "-//W3C//DTD SVG 1.1//EN"
       "http://www.w3.org/Graphics/SVG/1.1/DTD/svg11.dtd">
<svg version="1.1" xmlns="http://www.w3.org/2000/svg" xmlns:xlink="http://www.w3.org/1999/xlink" width="16.1328" height="15.7715">
 <g>
  <rect height="15.7715" opacity="0" width="16.1328" x="0" y="0"/>
  <path d="M7.88086 15.7617C12.1875 15.7617 15.7715 12.1875 15.7715 7.88086C15.7715 3.57422 12.1777 0 7.87109 0C3.57422 0 0 3.57422 0 7.88086C0 12.1875 3.58398 15.7617 7.88086 15.7617Z" fill="#ffffff" fill-opacity="0.25"/>
  <path d="M6.64062 11.2012C6.36719 11.2012 6.01562 11.0352 6.01562 10.5664L6.01562 9.90234L4.31641 9.90234C3.89648 9.90234 3.60352 9.60938 3.60352 9.17969C3.60352 8.90625 3.64258 8.68164 3.79883 8.33984L5.09766 5.43945C5.3418 4.89258 5.63477 4.58008 6.25 4.58008C6.85547 4.58008 7.24609 4.92188 7.24609 5.52734L7.24609 8.86719L7.4707 8.86719C7.8418 8.86719 7.97852 9.0918 7.97852 9.375C7.97852 9.66797 7.82227 9.90234 7.4707 9.90234L7.24609 9.90234L7.24609 10.5664C7.24609 11.0059 6.97266 11.2012 6.64062 11.2012ZM6.04492 8.89648L6.04492 5.66406L6.01562 5.66406L4.6875 8.83789L4.6875 8.89648ZM10.6152 11.1816C10.2441 11.1816 9.95117 10.8887 9.95117 10.5273L9.95117 5.89844L9.27734 6.42578C9.19922 6.50391 9.11133 6.54297 8.96484 6.54297C8.70117 6.54297 8.51562 6.34766 8.51562 6.07422C8.51562 5.83984 8.64258 5.66406 8.79883 5.54688L9.61914 4.92188C9.82422 4.76562 10.127 4.56055 10.498 4.56055C10.9668 4.56055 11.25 4.82422 11.25 5.29297L11.25 10.5273C11.25 10.8887 10.957 11.1816 10.6152 11.1816Z" fill="#ffffff" fill-opacity="0.85"/>
 </g>
</svg>
