<svg version="1.1" xmlns="http://www.w3.org/2000/svg" xmlns:xlink="http://www.w3.org/1999/xlink" width="14.5898" height="14.248" viewBox="0 0 14.5898 14.248">
 <g>
  <rect height="14.248" opacity="0" width="14.5898" x="0" y="0"/>
  <path d="M14.2285 2.4707L14.2285 11.7871C14.2285 13.4277 13.4082 14.248 11.7383 14.248L2.49023 14.248C0.830078 14.248 0 13.4277 0 11.7871L0 2.4707C0 0.830078 0.830078 0.00976562 2.49023 0.00976562L11.7383 0.00976562C13.4082 0.00976562 14.2285 0.830078 14.2285 2.4707ZM4.32617 4.67773L3.02734 7.57812C2.88086 7.91992 2.83203 8.14453 2.83203 8.41797C2.83203 8.84766 3.125 9.14062 3.55469 9.14062L5.24414 9.14062L5.24414 9.80469C5.24414 10.2734 5.5957 10.4395 5.86914 10.4395C6.20117 10.4395 6.47461 10.2441 6.47461 9.80469L6.47461 9.14062L6.70898 9.14062C7.05078 9.14062 7.20703 8.90625 7.20703 8.61328C7.20703 8.33008 7.07031 8.10547 6.70898 8.10547L6.47461 8.10547L6.47461 4.76562C6.47461 4.16016 6.08398 3.81836 5.48828 3.81836C4.86328 3.81836 4.57031 4.13086 4.32617 4.67773ZM8.85742 4.16016L8.02734 4.78516C7.88086 4.90234 7.74414 5.07812 7.74414 5.3125C7.74414 5.58594 7.92969 5.78125 8.20312 5.78125C8.33984 5.78125 8.42773 5.74219 8.51562 5.66406L9.17969 5.13672L9.17969 9.76562C9.17969 10.127 9.47266 10.4199 9.84375 10.4199C10.1953 10.4199 10.4883 10.127 10.4883 9.76562L10.4883 4.53125C10.4883 4.0625 10.2051 3.79883 9.72656 3.79883C9.36523 3.79883 9.05273 4.00391 8.85742 4.16016ZM5.27344 8.13477L3.91602 8.13477L3.91602 8.07617L5.24414 4.90234L5.27344 4.90234Z" fill="currentColor"/>
 </g>
</svg>
