<svg version="1.1" xmlns="http://www.w3.org/2000/svg" xmlns:xlink="http://www.w3.org/1999/xlink" width="14.5898" height="14.248" viewBox="0 0 14.5898 14.248">
 <g>
  <rect height="14.248" opacity="0" width="14.5898" x="0" y="0"/>
  <path d="M14.2285 2.4707L14.2285 11.7871C14.2285 13.4277 13.4082 14.248 11.7383 14.248L2.49023 14.248C0.830078 14.248 0 13.4277 0 11.7871L0 2.4707C0 0.830078 0.830078 0.00976562 2.49023 0.00976562L11.7383 0.00976562C13.4082 0.00976562 14.2285 0.830078 14.2285 2.4707ZM7.66602 4.94141C7.62695 5.08789 7.59766 5.22461 7.59766 5.37109C7.59766 5.6543 7.80273 5.89844 8.1543 5.89844C8.44727 5.89844 8.64258 5.79102 8.7207 5.49805C8.85742 5.04883 9.08203 4.79492 9.48242 4.79492C9.9707 4.79492 10.1953 5.16602 10.1953 5.6543C10.1953 6.20117 9.90234 6.5918 9.32617 6.5918L9.17969 6.5918C8.88672 6.5918 8.69141 6.77734 8.69141 7.07031C8.69141 7.36328 8.88672 7.5293 9.17969 7.5293L9.33594 7.5293C9.98047 7.5293 10.3223 7.88086 10.3223 8.51562C10.3223 9.02344 10.0586 9.45312 9.51172 9.45312C8.97461 9.45312 8.75 9.10156 8.65234 8.78906C8.56445 8.50586 8.36914 8.35938 8.08594 8.35938C7.73438 8.35938 7.5 8.57422 7.5 8.91602C7.5 9.07227 7.51953 9.19922 7.55859 9.33594C7.79297 10.0879 8.65234 10.4785 9.51172 10.4785C10.6934 10.4785 11.5918 9.76562 11.5918 8.57422C11.5918 7.55859 10.9766 7.10938 10.332 7.04102L10.332 7.01172C11.0547 6.81641 11.416 6.18164 11.416 5.51758C11.416 4.38477 10.5371 3.7793 9.48242 3.7793C8.66211 3.7793 7.90039 4.23828 7.66602 4.94141ZM3.82812 4.67773L2.53906 7.57812C2.39258 7.91992 2.34375 8.14453 2.34375 8.41797C2.34375 8.84766 2.63672 9.14062 3.06641 9.14062L4.76562 9.14062L4.76562 9.79492C4.76562 10.2734 5.11719 10.4395 5.39062 10.4395C5.72266 10.4395 5.99609 10.2441 5.99609 9.79492L5.99609 9.14062L6.2207 9.14062C6.5625 9.14062 6.72852 8.90625 6.72852 8.61328C6.72852 8.33008 6.58203 8.10547 6.2207 8.10547L5.99609 8.10547L5.99609 4.76562C5.99609 4.16016 5.60547 3.81836 5 3.81836C4.38477 3.81836 4.08203 4.13086 3.82812 4.67773ZM4.79492 8.13477L3.4375 8.13477L3.4375 8.07617L4.76562 4.90234L4.79492 4.90234Z" fill="var(--color-primary)"/>
 </g>
</svg>
