<svg version="1.1" xmlns="http://www.w3.org/2000/svg" xmlns:xlink="http://www.w3.org/1999/xlink" width="16.1328" height="15.7715" viewBox="0 0 16.1328 15.7715">
 <g>
  <rect height="15.7715" opacity="0" width="16.1328" x="0" y="0"/>
  <path d="M7.88086 15.7617C12.1875 15.7617 15.7715 12.1875 15.7715 7.88086C15.7715 3.57422 12.1777 0 7.87109 0C3.57422 0 0 3.57422 0 7.88086C0 12.1875 3.58398 15.7617 7.88086 15.7617ZM7.88086 14.2773C4.33594 14.2773 1.50391 11.4355 1.50391 7.88086C1.50391 4.32617 4.32617 1.48438 7.87109 1.48438C11.4258 1.48438 14.2773 4.32617 14.2773 7.88086C14.2773 11.4355 11.4355 14.2773 7.88086 14.2773Z" fill="currentColor"/>
  <path d="M6.10352 11.084C6.42578 11.084 6.68945 10.8887 6.68945 10.4688L6.68945 9.82422L6.91406 9.82422C7.24609 9.82422 7.39258 9.60938 7.39258 9.32617C7.39258 9.05273 7.26562 8.82812 6.91406 8.82812L6.68945 8.82812L6.68945 5.61523C6.68945 5.0293 6.30859 4.69727 5.74219 4.69727C5.13672 4.69727 4.85352 5 4.61914 5.52734L3.36914 8.32031C3.22266 8.65234 3.17383 8.86719 3.17383 9.13086C3.17383 9.54102 3.45703 9.82422 3.86719 9.82422L5.50781 9.82422L5.50781 10.4688C5.50781 10.9277 5.83984 11.084 6.10352 11.084ZM5.53711 8.85742L4.22852 8.85742L4.22852 8.79883L5.50781 5.74219L5.53711 5.74219ZM11.0254 11.084C11.3477 11.084 11.6113 10.8887 11.6113 10.4688L11.6113 9.82422L11.8359 9.82422C12.168 9.82422 12.3145 9.60938 12.3145 9.32617C12.3145 9.05273 12.1875 8.82812 11.8359 8.82812L11.6113 8.82812L11.6113 5.61523C11.6113 5.0293 11.2305 4.69727 10.6641 4.69727C10.0586 4.69727 9.77539 5 9.54102 5.52734L8.29102 8.32031C8.14453 8.65234 8.0957 8.86719 8.0957 9.13086C8.0957 9.54102 8.37891 9.82422 8.78906 9.82422L10.4297 9.82422L10.4297 10.4688C10.4297 10.9277 10.7617 11.084 11.0254 11.084ZM10.459 8.85742L9.15039 8.85742L9.15039 8.79883L10.4297 5.74219L10.459 5.74219Z" fill="currentColor"/>
 </g>
</svg>
