<svg version="1.1" xmlns="http://www.w3.org/2000/svg" xmlns:xlink="http://www.w3.org/1999/xlink" width="16.1328" height="15.7715" viewBox="0 0 16.1328 15.7715">
 <g>
  <rect height="15.7715" opacity="0" width="16.1328" x="0" y="0"/>
  <path d="M7.88086 15.7617C12.1875 15.7617 15.7715 12.1875 15.7715 7.88086C15.7715 3.57422 12.1777 0 7.87109 0C3.57422 0 0 3.57422 0 7.88086C0 12.1875 3.58398 15.7617 7.88086 15.7617ZM7.88086 14.2773C4.33594 14.2773 1.50391 11.4355 1.50391 7.88086C1.50391 4.32617 4.32617 1.48438 7.87109 1.48438C11.4258 1.48438 14.2773 4.32617 14.2773 7.88086C14.2773 11.4355 11.4355 14.2773 7.88086 14.2773Z" fill="var(--color-secondary)"/>
  <path d="M5.86914 11.084C6.19141 11.084 6.45508 10.8887 6.45508 10.4688L6.45508 9.82422L6.67969 9.82422C7.00195 9.82422 7.1582 9.60938 7.1582 9.32617C7.1582 9.05273 7.02148 8.82812 6.67969 8.82812L6.45508 8.82812L6.45508 5.61523C6.45508 5.0293 6.07422 4.69727 5.49805 4.69727C4.90234 4.69727 4.61914 5 4.375 5.52734L3.125 8.32031C2.98828 8.65234 2.93945 8.86719 2.93945 9.13086C2.93945 9.54102 3.22266 9.82422 3.63281 9.82422L5.27344 9.82422L5.27344 10.4688C5.27344 10.9277 5.60547 11.084 5.86914 11.084ZM5.30273 8.85742L3.98438 8.85742L3.98438 8.79883L5.27344 5.74219L5.30273 5.74219ZM8.42773 11.084C8.74023 11.084 8.97461 10.918 9.04297 10.5176L9.24805 9.60938L10.8984 9.60938L11.1035 10.5273C11.1914 10.9668 11.4551 11.084 11.748 11.084C12.0898 11.084 12.3242 10.8301 12.3242 10.4883C12.3242 10.332 12.3047 10.2344 12.2656 10.0977L11.0352 5.45898C10.9082 4.92188 10.5566 4.69727 10.0586 4.69727C9.55078 4.69727 9.23828 4.96094 9.11133 5.45898L7.89062 10.0977C7.86133 10.1953 7.83203 10.3809 7.83203 10.4883C7.83203 10.8496 8.05664 11.084 8.42773 11.084ZM9.45312 8.67188L10.0195 6.10352L10.0879 6.10352L10.6836 8.67188Z" fill="var(--color-primary)"/>
 </g>
</svg>
