<svg version="1.1" xmlns="http://www.w3.org/2000/svg" xmlns:xlink="http://www.w3.org/1999/xlink" width="16.1328" height="15.7715" viewBox="0 0 16.1328 15.7715">
 <g>
  <rect height="15.7715" opacity="0" width="16.1328" x="0" y="0"/>
  <path d="M7.88086 15.7617C12.1875 15.7617 15.7715 12.1875 15.7715 7.88086C15.7715 3.57422 12.1777 0 7.87109 0C3.57422 0 0 3.57422 0 7.88086C0 12.1875 3.58398 15.7617 7.88086 15.7617ZM7.88086 14.2773C4.33594 14.2773 1.50391 11.4355 1.50391 7.88086C1.50391 4.32617 4.32617 1.48438 7.87109 1.48438C11.4258 1.48438 14.2773 4.32617 14.2773 7.88086C14.2773 11.4355 11.4355 14.2773 7.88086 14.2773Z" fill="currentColor"/>
  <path d="M7.82227 11.5625C9.41406 11.5625 10.5078 10.5762 10.5078 9.07227C10.5078 7.69531 9.52148 6.74805 8.0957 6.74805C7.48047 6.74805 6.83594 7.01172 6.58203 7.37305L6.52344 7.37305L6.68945 5.44922L9.7168 5.44922C10.0098 5.44922 10.2246 5.23438 10.2246 4.92188C10.2246 4.60938 10.0098 4.39453 9.7168 4.39453L6.58203 4.39453C6.01562 4.39453 5.63477 4.70703 5.5957 5.20508L5.40039 7.61719C5.36133 8.11523 5.6543 8.44727 6.13281 8.44727C6.45508 8.44727 6.65039 8.36914 7.00195 8.11523C7.33398 7.86133 7.58789 7.76367 7.93945 7.76367C8.69141 7.76367 9.19922 8.30078 9.19922 9.0918C9.19922 9.89258 8.59375 10.4883 7.7832 10.4883C7.20703 10.4883 6.71875 10.2148 6.44531 9.72656C6.2793 9.46289 6.07422 9.33594 5.83008 9.33594C5.47852 9.33594 5.24414 9.57031 5.24414 9.90234C5.24414 10.0488 5.2832 10.1855 5.3418 10.3223C5.66406 11.0938 6.57227 11.5625 7.82227 11.5625Z" fill="currentColor"/>
 </g>
</svg>
