<svg version="1.1" xmlns="http://www.w3.org/2000/svg" xmlns:xlink="http://www.w3.org/1999/xlink" width="16.1328" height="15.7715" viewBox="0 0 16.1328 15.7715">
 <g>
  <rect height="15.7715" opacity="0" width="16.1328" x="0" y="0"/>
  <path d="M7.88086 15.7617C12.1875 15.7617 15.7715 12.1875 15.7715 7.88086C15.7715 3.57422 12.1777 0 7.87109 0C3.57422 0 0 3.57422 0 7.88086C0 12.1875 3.58398 15.7617 7.88086 15.7617Z" fill="var(--color-tertiary)"/>
  <path d="M7.90039 11.6992C6.21094 11.6992 5.07812 10.6445 5.07812 9.08203C5.07812 8.20312 5.42969 7.31445 6.25 6.21094C6.71875 5.5957 7.08984 5.11719 7.62695 4.41406C7.75391 4.24805 7.92969 4.0625 8.20312 4.0625C8.65234 4.0625 8.82812 4.33594 8.82812 4.60938C8.82812 4.78516 8.75 4.92188 8.62305 5.09766C8.25195 5.57617 7.83203 6.11328 7.38281 6.68945C7.13867 7.01172 7.03125 7.1582 6.95312 7.27539L7.04102 7.29492C7.28516 7.04102 7.83203 6.83594 8.34961 6.83594C9.73633 6.83594 10.7227 7.8125 10.7227 9.13086C10.7227 10.6348 9.58008 11.6992 7.90039 11.6992ZM7.90039 10.5762C8.79883 10.5762 9.46289 9.9707 9.46289 9.19922C9.46289 8.41797 8.79883 7.8418 7.90039 7.8418C7.02148 7.8418 6.34766 8.41797 6.34766 9.18945C6.34766 9.9707 7.02148 10.5762 7.90039 10.5762Z" fill="var(--color-primary)"/>
 </g>
</svg>
