<?xml version="1.0" encoding="UTF-8"?>
<!--Generator: Apple Native CoreSVG 232.5-->
<!DOCTYPE svg
PUBLIC "-//W3C//DTD SVG 1.1//EN"
       "http://www.w3.org/Graphics/SVG/1.1/DTD/svg11.dtd">
<svg version="1.1" xmlns="http://www.w3.org/2000/svg" xmlns:xlink="http://www.w3.org/1999/xlink" width="14.5898" height="14.248">
 <g>
  <rect height="14.248" opacity="0" width="14.5898" x="0" y="0"/>
  <path d="M2.49023 14.248L11.7383 14.248C13.4082 14.248 14.2285 13.4277 14.2285 11.7871L14.2285 2.4707C14.2285 0.830078 13.4082 0.00976562 11.7383 0.00976562L2.49023 0.00976562C0.830078 0.00976562 0 0.830078 0 2.4707L0 11.7871C0 13.4277 0.830078 14.248 2.49023 14.248Z" fill="#ffffff" fill-opacity="0.25"/>
  <path d="M7.13867 10.9375C5.43945 10.9375 4.30664 9.88281 4.30664 8.32031C4.30664 7.44141 4.6582 6.55273 5.47852 5.44922C5.95703 4.83398 6.31836 4.35547 6.85547 3.65234C6.98242 3.48633 7.16797 3.30078 7.44141 3.30078C7.88086 3.30078 8.05664 3.57422 8.05664 3.84766C8.05664 4.02344 7.97852 4.16016 7.85156 4.33594C7.48047 4.81445 7.06055 5.35156 6.61133 5.92773C6.36719 6.25 6.25977 6.39648 6.19141 6.51367L6.26953 6.5332C6.51367 6.2793 7.06055 6.07422 7.57812 6.07422C8.96484 6.07422 9.95117 7.05078 9.95117 8.36914C9.95117 9.87305 8.80859 10.9375 7.13867 10.9375ZM7.13867 9.81445C8.02734 9.81445 8.69141 9.20898 8.69141 8.4375C8.69141 7.65625 8.02734 7.08008 7.12891 7.08008C6.25 7.08008 5.57617 7.65625 5.57617 8.42773C5.57617 9.20898 6.25 9.81445 7.13867 9.81445Z" fill="#ffffff" fill-opacity="0.85"/>
 </g>
</svg>
