<svg version="1.1" xmlns="http://www.w3.org/2000/svg" xmlns:xlink="http://www.w3.org/1999/xlink" width="14.5898" height="14.248" viewBox="0 0 14.5898 14.248">
 <g>
  <rect height="14.248" opacity="0" width="14.5898" x="0" y="0"/>
  <path d="M14.2285 2.4707L14.2285 11.7871C14.2285 13.4277 13.4082 14.248 11.7383 14.248L2.49023 14.248C0.830078 14.248 0 13.4277 0 11.7871L0 2.4707C0 0.830078 0.830078 0.00976562 2.49023 0.00976562L11.7383 0.00976562C13.4082 0.00976562 14.2285 0.830078 14.2285 2.4707ZM5.03906 3.48633C4.72656 3.48633 4.51172 3.7207 4.51172 4.04297C4.51172 4.36523 4.73633 4.58984 5.03906 4.58984L8.31055 4.58984L8.31055 4.6582L5.44922 9.82422C5.37109 9.98047 5.33203 10.1074 5.33203 10.2832C5.33203 10.6738 5.64453 10.9375 6.04492 10.9375C6.35742 10.9375 6.57227 10.791 6.74805 10.4492L9.66797 5.05859C9.84375 4.72656 9.88281 4.55078 9.88281 4.35547C9.88281 3.86719 9.49219 3.48633 8.91602 3.48633Z" fill="var(--color-primary)"/>
 </g>
</svg>
