<svg version="1.1" xmlns="http://www.w3.org/2000/svg" xmlns:xlink="http://www.w3.org/1999/xlink" width="16.1328" height="15.7715" viewBox="0 0 16.1328 15.7715">
 <g>
  <rect height="15.7715" opacity="0" width="16.1328" x="0" y="0"/>
  <path d="M7.88086 15.7617C12.1875 15.7617 15.7715 12.1875 15.7715 7.88086C15.7715 3.57422 12.1777 0 7.87109 0C3.57422 0 0 3.57422 0 7.88086C0 12.1875 3.58398 15.7617 7.88086 15.7617ZM7.88086 14.2773C4.33594 14.2773 1.50391 11.4355 1.50391 7.88086C1.50391 4.32617 4.32617 1.48438 7.87109 1.48438C11.4258 1.48438 14.2773 4.32617 14.2773 7.88086C14.2773 11.4355 11.4355 14.2773 7.88086 14.2773Z" fill="currentColor"/>
  <path d="M7.87109 5.3125C6.79688 5.3125 5.26367 5.13672 4.53125 5.01953C4.46289 5.00977 4.39453 4.99023 4.32617 4.99023C4.13086 4.99023 3.93555 5.14648 3.93555 5.41992C3.93555 5.625 4.0625 5.80078 4.25781 5.84961C4.50195 5.92773 6.23047 6.13281 6.44531 6.17188C6.66016 6.21094 6.78711 6.39648 6.79688 6.66016C6.79688 7.05078 6.79688 8.31055 6.69922 8.88672C6.61133 9.45312 5.94727 12.207 5.91797 12.3242C5.83008 12.6172 6.01562 12.8809 6.30859 12.8809C6.52344 12.8809 6.66992 12.7637 6.74805 12.4805C6.875 11.9238 7.35352 10.0195 7.50977 9.56055C7.59766 9.22852 7.68555 9.11133 7.87109 9.11133C8.05664 9.11133 8.13477 9.22852 8.24219 9.56055C8.37891 10.0195 8.87695 11.9238 9.00391 12.4805C9.08203 12.7637 9.22852 12.8809 9.44336 12.8809C9.73633 12.8809 9.91211 12.6172 9.83398 12.3242C9.81445 12.207 9.14062 9.45312 9.05273 8.88672C8.96484 8.31055 8.96484 7.05078 8.96484 6.66016C8.96484 6.39648 9.0918 6.2207 9.30664 6.17188C9.52148 6.12305 11.25 5.92773 11.4941 5.84961C11.6895 5.80078 11.8164 5.625 11.8164 5.41992C11.8164 5.14648 11.6113 4.99023 11.4258 4.99023C11.3574 4.99023 11.2891 5.00977 11.2207 5.01953C10.4883 5.13672 8.96484 5.3125 7.87109 5.3125ZM7.87109 4.81445C8.41797 4.81445 8.86719 4.36523 8.86719 3.82812C8.86719 3.28125 8.41797 2.8418 7.87109 2.8418C7.32422 2.8418 6.88477 3.28125 6.88477 3.82812C6.88477 4.36523 7.32422 4.81445 7.87109 4.81445Z" fill="currentColor"/>
 </g>
</svg>
