<?xml version="1.0" encoding="UTF-8"?>
<!--Generator: Apple Native CoreSVG 232.5-->
<!DOCTYPE svg
PUBLIC "-//W3C//DTD SVG 1.1//EN"
       "http://www.w3.org/Graphics/SVG/1.1/DTD/svg11.dtd">
<svg version="1.1" xmlns="http://www.w3.org/2000/svg" xmlns:xlink="http://www.w3.org/1999/xlink" width="16.709" height="13.4668">
 <g>
  <rect height="13.4668" opacity="0" width="16.709" x="0" y="0"/>
  <path d="M4.73633 13.457L11.6113 13.457C14.8145 13.457 16.3477 11.9336 16.3477 8.73047L16.3477 4.72656C16.3477 1.52344 14.8145 0 11.6113 0L4.73633 0C1.52344 0 0 1.52344 0 4.72656L0 8.73047C0 11.9336 1.52344 13.457 4.73633 13.457ZM4.73633 12.0508C2.41211 12.0508 1.40625 11.0449 1.40625 8.73047L1.40625 4.72656C1.40625 2.41211 2.41211 1.40625 4.73633 1.40625L11.6113 1.40625C13.9355 1.40625 14.9316 2.41211 14.9316 4.72656L14.9316 8.73047C14.9316 11.0449 13.9355 12.0508 11.6113 12.0508ZM0.712891 5.23438L15.6348 5.23438L15.6348 4.38477L0.712891 4.38477ZM5.06836 5.77148L11.2793 5.77148C11.8457 5.77148 12.2461 5.38086 12.2461 4.81445C12.2461 4.24805 11.8457 3.84766 11.2793 3.84766L5.06836 3.84766C4.52148 3.84766 4.10156 4.24805 4.10156 4.81445C4.10156 5.38086 4.52148 5.77148 5.06836 5.77148ZM8.17383 8.4375C8.59375 8.42773 8.94531 8.06641 8.94531 7.67578C8.94531 7.24609 8.59375 6.9043 8.17383 6.9043C7.74414 6.9043 7.40234 7.24609 7.40234 7.67578C7.40234 8.08594 7.74414 8.44727 8.17383 8.4375Z" fill="#ffffff" fill-opacity="0.85"/>
 </g>
</svg>
