<svg version="1.1" xmlns="http://www.w3.org/2000/svg" xmlns:xlink="http://www.w3.org/1999/xlink" width="12.2363" height="15.4201" viewBox="0 0 12.2363 15.4201">
 <g>
  <rect height="15.4201" opacity="0" width="12.2363" x="0" y="0"/>
  <path d="M5.92773 9.2202L5.92773 13.8282C5.92773 14.336 5.58594 14.5997 5.07812 14.5997L4.48242 14.5997C3.98438 14.5997 3.64258 14.336 3.64258 13.8282L3.64258 8.7951C4.23497 9.01312 4.95075 9.165 5.92773 9.2202Z" fill="var(--color-primary)"/>
  <path d="M7.75391 2.7833C7.881 2.9382 8.06141 3.20294 8.23121 3.52131C6.42988 3.81831 5.11719 5.44381 5.11719 7.02158C5.11719 7.52938 5.21209 7.97432 5.37886 8.35601C4.30785 8.23632 3.64676 7.97016 3.04688 7.61728C1.81641 6.88486 0.820312 5.70322 0.820312 3.98447C0.820312 1.95322 2.26562 0.830174 3.96484 0.820409C5.27344 0.810643 6.72852 1.43564 7.75391 2.7833ZM2.49023 2.71494C2.34375 2.88096 2.35352 3.1251 2.5293 3.26182L3.70117 4.23838C3.85742 4.38486 4.11133 4.36533 4.24805 4.18955C4.38477 4.02353 4.36523 3.77939 4.19922 3.64267L3.03711 2.66611C2.87109 2.52939 2.62695 2.54892 2.49023 2.71494Z" fill="var(--color-primary)"/>
  <path d="M8.20312 9.3165C9.58008 9.3165 11.0547 8.22275 11.0547 6.49424C11.0547 5.38096 10.2637 4.23838 8.82812 4.23838C7.16797 4.23838 5.88867 5.68369 5.88867 7.02158C5.88867 8.57432 7.00195 9.3165 8.20312 9.3165ZM8.59375 8.08603C8.37891 7.89072 8.49609 7.51963 8.93555 6.96299C9.41406 6.37705 9.77539 6.20127 10 6.40635C10.2148 6.60166 10.1074 6.98252 9.6582 7.52939C9.17969 8.0958 8.81836 8.28135 8.59375 8.08603Z" fill="var(--color-secondary)"/>
 </g>
</svg>
