<svg version="1.1" xmlns="http://www.w3.org/2000/svg" xmlns:xlink="http://www.w3.org/1999/xlink" width="13.3105" height="16.5527" viewBox="0 0 13.3105 16.5527">
 <g>
  <rect height="16.5527" opacity="0" width="13.3105" x="0" y="0"/>
  <path d="M2.49023 16.5527L10.459 16.5527C12.1191 16.5527 12.9492 15.7422 12.9492 14.1016L12.9492 2.48047C12.9492 0.839844 12.1191 0.0292969 10.459 0.0292969L2.49023 0.0292969C0.830078 0.0292969 0 0.839844 0 2.48047L0 14.1016C0 15.7422 0.830078 16.5527 2.49023 16.5527ZM2.50977 15.1465C1.80664 15.1465 1.40625 14.7656 1.40625 14.0234L1.40625 2.55859C1.40625 1.81641 1.80664 1.43555 2.50977 1.43555L10.4395 1.43555C11.1426 1.43555 11.543 1.81641 11.543 2.55859L11.543 14.0234C11.543 14.7656 11.1426 15.1465 10.4395 15.1465ZM0.185547 5.85938L3.16406 5.85938C4.375 5.85938 4.98047 5.26367 4.98047 4.08203L4.98047 0.234375L3.93555 0.234375L3.93555 4.00391C3.93555 4.52148 3.64258 4.82422 3.14453 4.82422L0.185547 4.82422Z" fill="var(--color-primary)"/>
 </g>
</svg>
