<svg version="1.1" xmlns="http://www.w3.org/2000/svg" xmlns:xlink="http://www.w3.org/1999/xlink" width="21.25" height="13.7402" viewBox="0 0 21.25 13.7402">
 <g>
  <rect height="13.7402" opacity="0" width="21.25" x="0" y="0"/>
  <path d="M17.793 12.1875C18.0762 12.5195 18.5645 12.5195 18.9062 12.1387C20.1855 10.7324 20.8887 8.86719 20.8887 6.86523C20.8887 4.86328 20.1855 2.99805 18.9062 1.5918C18.5645 1.21094 18.0762 1.21094 17.793 1.54297C17.5195 1.86523 17.5977 2.26562 17.9199 2.62695C18.916 3.76953 19.4629 5.24414 19.4629 6.86523C19.4629 8.48633 18.916 9.96094 17.9199 11.1035C17.5977 11.4648 17.5195 11.8652 17.793 12.1875Z" fill="currentColor"/>
  <path d="M15.625 9.99023C15.918 10.3125 16.4453 10.3223 16.7578 9.92188C17.4121 9.07227 17.793 8.00781 17.793 6.86523C17.793 5.72266 17.4121 4.6582 16.7578 3.80859C16.4453 3.4082 15.918 3.41797 15.625 3.74023C15.3418 4.0625 15.4688 4.44336 15.7422 4.83398C16.1523 5.40039 16.3672 6.10352 16.3672 6.86523C16.3672 7.62695 16.1523 8.33008 15.7422 8.89648C15.4688 9.28711 15.3418 9.66797 15.625 9.99023Z" fill="currentColor"/>
  <path d="M6.86523 13.7305C10.6055 13.7305 13.7207 10.6055 13.7207 6.86523C13.7207 3.125 10.6152 0 6.86523 0C3.125 0 0 3.125 0 6.86523C0 10.6055 3.11523 13.7305 6.86523 13.7305ZM6.93359 9.16016C6.47461 9.16016 6.30859 9.4043 5.94727 9.4043C5.56641 9.4043 5.3125 9.07227 5.00977 8.65234C4.66797 8.1543 4.38477 7.40234 4.38477 6.66992C4.38477 5.51758 5.13672 4.89258 5.88867 4.89258C6.2793 4.89258 6.60156 5.15625 6.85547 5.15625C7.08984 5.15625 7.46094 4.88281 7.90039 4.88281C8.07617 4.88281 8.69141 4.89258 9.0918 5.46875C9.05273 5.50781 8.44727 5.83984 8.44727 6.61133C8.44727 7.5 9.21875 7.8125 9.24805 7.82227C9.24805 7.8418 9.13086 8.25195 8.83789 8.66211C8.58398 9.0332 8.31055 9.39453 7.90039 9.39453C7.5 9.39453 7.40234 9.16016 6.93359 9.16016ZM7.69531 4.38477C7.5 4.62891 7.1582 4.81445 6.88477 4.81445C6.85547 4.81445 6.82617 4.80469 6.80664 4.80469C6.80664 4.79492 6.79688 4.74609 6.79688 4.70703C6.79688 4.38477 6.96289 4.0918 7.11914 3.89648C7.34375 3.64258 7.69531 3.44727 8.00781 3.4375C8.01758 3.4668 8.01758 3.51562 8.01758 3.55469C8.01758 3.86719 7.88086 4.16016 7.69531 4.38477Z" fill="currentColor"/>
 </g>
</svg>
