<?xml version="1.0" encoding="UTF-8"?>
<!--Generator: Apple Native CoreSVG 232.5-->
<!DOCTYPE svg
PUBLIC "-//W3C//DTD SVG 1.1//EN"
       "http://www.w3.org/Graphics/SVG/1.1/DTD/svg11.dtd">
<svg version="1.1" xmlns="http://www.w3.org/2000/svg" xmlns:xlink="http://www.w3.org/1999/xlink" width="16.1328" height="15.7715">
 <g>
  <rect height="15.7715" opacity="0" width="16.1328" x="0" y="0"/>
  <path d="M7.88086 15.7617C12.1875 15.7617 15.7715 12.1875 15.7715 7.88086C15.7715 3.57422 12.1777 0 7.87109 0C3.57422 0 0 3.57422 0 7.88086C0 12.1875 3.58398 15.7617 7.88086 15.7617ZM7.88086 14.2676C4.33594 14.2676 1.51367 11.4258 1.51367 7.88086C1.51367 4.33594 4.32617 1.49414 7.87109 1.49414C11.4258 1.49414 14.2578 4.33594 14.2676 7.88086C14.2773 11.4258 11.4355 14.2676 7.88086 14.2676ZM7.88086 13.4961C11.0059 13.4961 13.5059 10.9961 13.4961 7.88086C13.4863 4.75586 10.9961 2.26562 7.87109 2.26562C4.76562 2.26562 2.28516 4.75586 2.28516 7.88086C2.28516 11.0059 4.77539 13.4961 7.88086 13.4961ZM7.88086 12.7344C5.18555 12.7344 3.04688 10.5859 3.04688 7.88086C3.04688 5.17578 5.17578 3.02734 7.87109 3.02734C10.5762 3.02734 12.7246 5.17578 12.7344 7.88086C12.7441 10.5762 10.5859 12.7344 7.88086 12.7344ZM7.94922 9.90234C8.37891 9.90234 8.4668 10.1172 8.83789 10.1172C9.20898 10.1172 9.46289 9.77539 9.69727 9.44336C9.96094 9.07227 10.0586 8.69141 10.0586 8.67188C10.0391 8.67188 9.33594 8.37891 9.33594 7.56836C9.33594 6.86523 9.89258 6.5625 9.92188 6.5332C9.56055 5.99609 8.99414 5.99609 8.83789 5.99609C8.42773 5.99609 8.0957 6.24023 7.88086 6.24023C7.65625 6.24023 7.35352 5.99609 6.99219 5.99609C6.31836 5.99609 5.625 6.5625 5.625 7.62695C5.625 8.29102 5.88867 8.98438 6.19141 9.43359C6.46484 9.81445 6.69922 10.127 7.05078 10.127C7.38281 10.127 7.5293 9.90234 7.94922 9.90234ZM8.65234 5.53711C8.81836 5.33203 8.93555 5.05859 8.93555 4.77539C8.93555 4.73633 8.93555 4.69727 8.92578 4.66797C8.65234 4.67773 8.32031 4.85352 8.125 5.08789C7.97852 5.26367 7.82227 5.53711 7.82227 5.83008C7.82227 5.85938 7.83203 5.9082 7.83203 5.92773C7.85156 5.92773 7.88086 5.92773 7.91016 5.92773C8.1543 5.92773 8.4668 5.76172 8.65234 5.53711Z" fill="#ffffff" fill-opacity="0.85"/>
 </g>
</svg>
