<svg version="1.1" xmlns="http://www.w3.org/2000/svg" xmlns:xlink="http://www.w3.org/1999/xlink" width="14.6582" height="14.3066" viewBox="0 0 14.6582 14.3066">
 <g>
  <rect height="14.3066" opacity="0" width="14.6582" x="0" y="0"/>
  <path d="M13.3789 0.927734C12.5488 0.107422 11.377 0 10.127 0L4.16992 0C2.91992 0 1.74805 0.107422 0.917969 0.927734C0.0976562 1.75781 0 2.91992 0 4.16992L0 10.127C0 11.3867 0.0976562 12.5391 0.917969 13.3691C1.74805 14.1895 2.91016 14.2969 4.16992 14.2969L10.127 14.2969C11.377 14.2969 12.5488 14.1895 13.3789 13.3691C14.1992 12.5391 14.2969 11.3867 14.2969 10.127L14.2969 4.16992C14.2969 2.91016 14.1992 1.75781 13.3789 0.927734Z" fill="currentColor"/>
 </g>
</svg>
