<?xml version="1.0" encoding="UTF-8"?>
<!--Generator: Apple Native CoreSVG 232.5-->
<!DOCTYPE svg
PUBLIC "-//W3C//DTD SVG 1.1//EN"
       "http://www.w3.org/Graphics/SVG/1.1/DTD/svg11.dtd">
<svg version="1.1" xmlns="http://www.w3.org/2000/svg" xmlns:xlink="http://www.w3.org/1999/xlink" width="25.6055" height="16.8652">
 <g>
  <rect height="16.8652" opacity="0" width="25.6055" x="0" y="0"/>
  <path d="M3.0957 13.75C3.36914 13.4277 3.29102 13.0273 2.96875 12.666C1.97266 11.5234 1.42578 10.0488 1.42578 8.42773C1.42578 6.80664 1.97266 5.33203 2.96875 4.18945C3.29102 3.82812 3.36914 3.42773 3.0957 3.10547C2.8125 2.77344 2.32422 2.77344 1.98242 3.1543C0.703125 4.56055 0 6.42578 0 8.42773C0 10.4297 0.703125 12.2949 1.98242 13.7012C2.32422 14.082 2.8125 14.082 3.0957 13.75ZM22.1582 13.75C22.4414 14.082 22.9297 14.082 23.2617 13.7012C24.541 12.2949 25.2441 10.4297 25.2441 8.42773C25.2441 6.42578 24.541 4.56055 23.2617 3.1543C22.9297 2.77344 22.4414 2.77344 22.1582 3.10547C21.875 3.42773 21.9629 3.82812 22.2754 4.18945C23.2715 5.33203 23.8184 6.80664 23.8184 8.42773C23.8184 10.0488 23.2715 11.5234 22.2754 12.666C21.9629 13.0273 21.875 13.4277 22.1582 13.75Z" fill="#ffffff" fill-opacity="0.85"/>
  <path d="M5.26367 11.5527C5.53711 11.2305 5.41992 10.8496 5.14648 10.459C4.73633 9.89258 4.52148 9.18945 4.52148 8.42773C4.52148 7.66602 4.73633 6.96289 5.14648 6.39648C5.41992 6.00586 5.53711 5.625 5.26367 5.30273C4.9707 4.98047 4.44336 4.9707 4.13086 5.37109C3.47656 6.2207 3.0957 7.28516 3.0957 8.42773C3.0957 9.57031 3.47656 10.6348 4.13086 11.4844C4.44336 11.8848 4.9707 11.875 5.26367 11.5527ZM19.9902 11.5527C20.2832 11.875 20.8008 11.8848 21.1133 11.4844C21.7676 10.6348 22.1484 9.57031 22.1484 8.42773C22.1484 7.28516 21.7676 6.2207 21.1133 5.37109C20.8008 4.9707 20.2832 4.98047 19.9902 5.30273C19.707 5.625 19.8242 6.00586 20.0977 6.39648C20.5176 6.96289 20.7227 7.66602 20.7227 8.42773C20.7227 9.18945 20.5176 9.89258 20.0977 10.459C19.8242 10.8496 19.707 11.2305 19.9902 11.5527Z" fill="#ffffff" fill-opacity="0.85"/>
  <path d="M7.08984 11.6797C7.08984 12.8711 7.56836 13.7695 8.44727 14.248C8.87695 14.4824 9.14062 14.8047 9.30664 15.332L9.53125 16.0938C9.6875 16.6211 10.0488 16.8652 10.6055 16.8652L14.2285 16.8652C14.7949 16.8652 15.1367 16.6309 15.293 16.0938L15.5176 15.332C15.6836 14.8047 15.9473 14.4824 16.3867 14.248C17.2559 13.7695 17.7441 12.8711 17.7441 11.6797L17.7441 5.20508C17.7441 4.01367 17.2559 3.11523 16.3867 2.63672C15.9473 2.40234 15.6836 2.08008 15.5176 1.55273L15.293 0.791016C15.1562 0.273438 14.7852 0.0195312 14.2285 0.0195312L10.6055 0.0195312C10.0488 0.0195312 9.6875 0.263672 9.53125 0.791016L9.30664 1.55273C9.15039 2.07031 8.88672 2.41211 8.44727 2.63672C7.57812 3.08594 7.08984 3.99414 7.08984 5.20508ZM8.35938 11.4844L8.35938 5.40039C8.35938 4.32617 8.97461 3.68164 10.0195 3.68164L14.8145 3.68164C15.8496 3.68164 16.4746 4.32617 16.4746 5.40039L16.4746 11.4844C16.4746 12.5586 15.8496 13.2031 14.8145 13.2031L10.0195 13.2031C8.97461 13.2031 8.35938 12.5586 8.35938 11.4844ZM17.5879 7.88086L17.8613 7.88086C18.2715 7.88086 18.5449 7.59766 18.5449 7.14844L18.5449 6.12305C18.5449 5.66406 18.2715 5.38086 17.8613 5.38086L17.5879 5.38086Z" fill="#ffffff" fill-opacity="0.85"/>
 </g>
</svg>
