<svg version="1.1" xmlns="http://www.w3.org/2000/svg" xmlns:xlink="http://www.w3.org/1999/xlink" width="18.4766" height="14.248" viewBox="0 0 18.4766 14.248">
 <g>
  <rect height="14.248" opacity="0" width="18.4766" x="0" y="0"/>
  <path d="M2.49023 14.248L15.625 14.248C17.2949 14.248 18.1152 13.4277 18.1152 11.7871L18.1152 2.4707C18.1152 0.830078 17.2949 0.00976562 15.625 0.00976562L2.49023 0.00976562C0.830078 0.00976562 0 0.830078 0 2.4707L0 11.7871C0 13.4277 0.830078 14.248 2.49023 14.248ZM2.50977 12.832C1.80664 12.832 1.40625 12.4609 1.40625 11.7188L1.40625 2.53906C1.40625 1.80664 1.80664 1.42578 2.50977 1.42578L15.6055 1.42578C16.3086 1.42578 16.709 1.80664 16.709 2.53906L16.709 11.7188C16.709 12.4609 16.3086 12.832 15.6055 12.832Z" fill="currentColor"/>
  <path d="M3.19336 4.33594L3.93555 4.33594C4.16992 4.33594 4.3457 4.18945 4.3457 3.96484L4.3457 3.18359C4.3457 2.96875 4.16992 2.8125 3.93555 2.8125L3.19336 2.8125C2.97852 2.8125 2.8125 2.97852 2.8125 3.18359L2.8125 3.96484C2.8125 4.17969 2.97852 4.33594 3.19336 4.33594ZM5.92773 4.33594L6.67969 4.33594C6.9043 4.33594 7.08008 4.18945 7.08008 3.96484L7.08008 3.18359C7.08008 2.96875 6.9043 2.8125 6.67969 2.8125L5.92773 2.8125C5.71289 2.8125 5.55664 2.97852 5.55664 3.18359L5.55664 3.96484C5.55664 4.17969 5.71289 4.33594 5.92773 4.33594ZM8.67188 4.33594L9.41406 4.33594C9.64844 4.33594 9.82422 4.18945 9.82422 3.96484L9.82422 3.18359C9.82422 2.96875 9.64844 2.8125 9.41406 2.8125L8.67188 2.8125C8.45703 2.8125 8.29102 2.97852 8.29102 3.18359L8.29102 3.96484C8.29102 4.17969 8.45703 4.33594 8.67188 4.33594ZM11.4062 4.33594L12.1484 4.33594C12.3828 4.33594 12.5586 4.18945 12.5586 3.96484L12.5586 3.18359C12.5586 2.96875 12.3828 2.8125 12.1484 2.8125L11.4062 2.8125C11.1914 2.8125 11.0254 2.97852 11.0254 3.18359L11.0254 3.96484C11.0254 4.17969 11.1914 4.33594 11.4062 4.33594ZM14.1504 4.33594L14.8926 4.33594C15.127 4.33594 15.293 4.18945 15.293 3.96484L15.293 3.18359C15.293 2.96875 15.127 2.8125 14.8926 2.8125L14.1504 2.8125C13.9355 2.8125 13.7695 2.97852 13.7695 3.18359L13.7695 3.96484C13.7695 4.17969 13.9355 4.33594 14.1504 4.33594ZM3.19336 6.83594L3.93555 6.83594C4.16992 6.83594 4.3457 6.67969 4.3457 6.46484L4.3457 5.68359C4.3457 5.45898 4.16992 5.3125 3.93555 5.3125L3.19336 5.3125C2.97852 5.3125 2.8125 5.46875 2.8125 5.68359L2.8125 6.46484C2.8125 6.66992 2.97852 6.83594 3.19336 6.83594ZM5.92773 6.83594L6.67969 6.83594C6.9043 6.83594 7.08008 6.67969 7.08008 6.46484L7.08008 5.68359C7.08008 5.45898 6.9043 5.3125 6.67969 5.3125L5.92773 5.3125C5.71289 5.3125 5.55664 5.46875 5.55664 5.68359L5.55664 6.46484C5.55664 6.66992 5.71289 6.83594 5.92773 6.83594ZM8.67188 6.83594L9.41406 6.83594C9.64844 6.83594 9.82422 6.67969 9.82422 6.46484L9.82422 5.68359C9.82422 5.45898 9.64844 5.3125 9.41406 5.3125L8.67188 5.3125C8.45703 5.3125 8.29102 5.46875 8.29102 5.68359L8.29102 6.46484C8.29102 6.66992 8.45703 6.83594 8.67188 6.83594ZM11.4062 6.83594L12.1484 6.83594C12.3828 6.83594 12.5586 6.67969 12.5586 6.46484L12.5586 5.68359C12.5586 5.45898 12.3828 5.3125 12.1484 5.3125L11.4062 5.3125C11.1914 5.3125 11.0254 5.46875 11.0254 5.68359L11.0254 6.46484C11.0254 6.66992 11.1914 6.83594 11.4062 6.83594ZM3.19336 11.4453L3.93555 11.4453C4.16992 11.4453 4.3457 11.2891 4.3457 11.0742L4.3457 10.293C4.3457 10.0781 4.16992 9.92188 3.93555 9.92188L3.19336 9.92188C2.97852 9.92188 2.8125 10.0781 2.8125 10.293L2.8125 11.0742C2.8125 11.2891 2.97852 11.4453 3.19336 11.4453ZM5.92773 11.4453L6.67969 11.4453C6.9043 11.4453 7.08008 11.2891 7.08008 11.0742L7.08008 10.293C7.08008 10.0781 6.9043 9.92188 6.67969 9.92188L5.92773 9.92188C5.71289 9.92188 5.55664 10.0781 5.55664 10.293L5.55664 11.0742C5.55664 11.2891 5.71289 11.4453 5.92773 11.4453ZM8.67188 11.4453L9.41406 11.4453C9.64844 11.4453 9.82422 11.2891 9.82422 11.0742L9.82422 10.293C9.82422 10.0781 9.64844 9.92188 9.41406 9.92188L8.67188 9.92188C8.45703 9.92188 8.29102 10.0781 8.29102 10.293L8.29102 11.0742C8.29102 11.2891 8.45703 11.4453 8.67188 11.4453ZM11.4062 11.4453L12.1484 11.4453C12.3828 11.4453 12.5586 11.2891 12.5586 11.0742L12.5586 10.293C12.5586 10.0781 12.3828 9.92188 12.1484 9.92188L11.4062 9.92188C11.1914 9.92188 11.0254 10.0781 11.0254 10.293L11.0254 11.0742C11.0254 11.2891 11.1914 11.4453 11.4062 11.4453ZM14.1504 11.4453L14.8926 11.4453C15.127 11.4453 15.293 11.2891 15.293 11.0742L15.293 10.293C15.293 10.0781 15.127 9.92188 14.8926 9.92188L14.1504 9.92188C13.9355 9.92188 13.7695 10.0781 13.7695 10.293L13.7695 11.0742C13.7695 11.2891 13.9355 11.4453 14.1504 11.4453Z" fill="currentColor"/>
 </g>
</svg>
