<?xml version="1.0" encoding="UTF-8"?>
<!--Generator: Apple Native CoreSVG 232.5-->
<!DOCTYPE svg
PUBLIC "-//W3C//DTD SVG 1.1//EN"
       "http://www.w3.org/Graphics/SVG/1.1/DTD/svg11.dtd">
<svg version="1.1" xmlns="http://www.w3.org/2000/svg" xmlns:xlink="http://www.w3.org/1999/xlink" width="9.80469" height="16.6309">
 <g>
  <rect height="16.6309" opacity="0" width="9.80469" x="0" y="0"/>
  <path d="M9.44336 12.5781C9.44336 14.8438 7.37305 16.6211 4.72656 16.6211C2.08008 16.6211 0 14.8438 0 12.5781C0 10.9225 1.11079 9.52239 2.74414 8.89204L2.74414 10.4469C1.92571 10.9241 1.40625 11.6971 1.40625 12.5781C1.40625 14.0527 2.86133 15.2148 4.72656 15.2148C6.5918 15.2148 8.03711 14.0527 8.03711 12.5781C8.03711 11.6806 7.50168 10.8952 6.66016 10.4198L6.66016 8.87279C8.31613 9.49513 9.44336 10.9064 9.44336 12.5781Z" fill="#ffffff" fill-opacity="0.55"/>
  <path d="M4.6875 13.4375C5.24414 13.4375 5.70312 13.1641 5.70312 12.8027L5.70312 4.72656L3.70117 4.72656L3.70117 12.8027C3.70117 13.1641 4.15039 13.4375 4.6875 13.4375ZM4.6875 6.81641C6.58203 6.81641 8.0957 5.2832 8.0957 3.39844C8.0957 1.52344 6.5625 0 4.6875 0C2.8125 0 1.26953 1.54297 1.26953 3.39844C1.26953 5.30273 2.8125 6.81641 4.6875 6.81641Z" fill="#ffffff" fill-opacity="0.85"/>
 </g>
</svg>
