<svg version="1.1" xmlns="http://www.w3.org/2000/svg" xmlns:xlink="http://www.w3.org/1999/xlink" width="16.1328" height="15.7715" viewBox="0 0 16.1328 15.7715">
 <g>
  <rect height="15.7715" opacity="0" width="16.1328" x="0" y="0"/>
  <path d="M7.88086 15.7715C12.1875 15.7715 15.7715 12.1973 15.7715 7.89062C15.7715 3.58398 12.1777 0.00976562 7.87109 0.00976562C3.57422 0.00976562 0 3.58398 0 7.89062C0 12.1973 3.58398 15.7715 7.88086 15.7715Z" fill="var(--color-tertiary)"/>
  <path d="M5.60547 11.9336C4.75586 11.9336 4.29688 11.5039 4.29688 10.6445L4.29688 6.73828L11.4746 6.73828L11.4746 10.6445C11.4746 11.5039 11.0059 11.9336 10.166 11.9336ZM6.52344 8.30078L9.24805 8.30078C9.44336 8.30078 9.57031 8.17383 9.57031 7.98828L9.57031 7.8418C9.57031 7.64648 9.44336 7.51953 9.24805 7.51953L6.52344 7.51953C6.33789 7.51953 6.19141 7.64648 6.19141 7.8418L6.19141 7.98828C6.19141 8.17383 6.33789 8.30078 6.52344 8.30078ZM4.39453 6.05469C3.89648 6.05469 3.65234 5.76172 3.65234 5.27344L3.65234 4.93164C3.65234 4.43359 3.93555 4.14062 4.39453 4.14062L11.3672 4.14062C11.875 4.14062 12.1191 4.43359 12.1191 4.93164L12.1191 5.27344C12.1191 5.76172 11.875 6.05469 11.3672 6.05469Z" fill="var(--color-primary)"/>
 </g>
</svg>
