<svg version="1.1" xmlns="http://www.w3.org/2000/svg" xmlns:xlink="http://www.w3.org/1999/xlink" width="16.1328" height="15.7715" viewBox="0 0 16.1328 15.7715">
 <g>
  <rect height="15.7715" opacity="0" width="16.1328" x="0" y="0"/>
  <path d="M15.7715 7.88086C15.7715 12.1875 12.1875 15.7617 7.88086 15.7617C3.58398 15.7617 0 12.1875 0 7.88086C0 3.57422 3.57422 0 7.87109 0C12.1777 0 15.7715 3.57422 15.7715 7.88086ZM9.80469 5L7.19727 7.61719L5.9668 8.92578L6.10352 7.73438L6.10352 6.5918C6.10352 6.16211 5.83984 5.88867 5.43945 5.88867C5.04883 5.88867 4.78516 6.19141 4.78516 6.61133L4.78516 10.2246C4.78516 10.7617 5.07812 10.9766 5.54688 10.9766L9.17969 10.9766C9.59961 10.9766 9.87305 10.7129 9.87305 10.3027C9.87305 9.91211 9.58984 9.64844 9.16016 9.64844L8.00781 9.64844L6.81641 9.79492L8.14453 8.55469L10.7617 5.95703C10.8887 5.82031 10.9766 5.64453 10.9766 5.47852C10.9766 5.05859 10.7129 4.79492 10.3223 4.79492C10.0977 4.79492 9.93164 4.87305 9.80469 5Z" fill="currentColor"/>
 </g>
</svg>
