<svg version="1.1" xmlns="http://www.w3.org/2000/svg" xmlns:xlink="http://www.w3.org/1999/xlink" width="20.1913" height="16.4746" viewBox="0 0 20.1913 16.4746">
 <g>
  <rect height="16.4746" opacity="0" width="20.1913" x="0" y="0"/>
  <path d="M6.8193 13.9746C6.8193 15.6445 7.62985 16.4648 9.27047 16.4648L17.3662 16.4648C19.0068 16.4648 19.8271 15.6445 19.8271 13.9746L19.8271 2.49023C19.8271 0.830078 19.0068 0 17.3662 0L9.27047 0C7.62985 0 6.8193 0.830078 6.8193 2.49023ZM8.22555 13.9551L8.22555 2.50977C8.22555 1.80664 8.60641 1.40625 9.3486 1.40625L17.2978 1.40625C18.0302 1.40625 18.4111 1.80664 18.4111 2.50977L18.4111 13.9551C18.4111 14.6582 18.0302 15.0586 17.2978 15.0586L9.3486 15.0586C8.60641 15.0586 8.22555 14.6582 8.22555 13.9551Z" fill="var(--color-secondary)"/>
  <path d="M9.6611 11.8652C10.4912 11.8652 12.6298 10.5957 12.6298 7.90039C12.6298 5.20508 10.4912 3.93555 9.6611 3.93555C9.3486 3.93555 9.12399 4.11133 9.12399 4.44336L9.12399 11.3574C9.12399 11.6895 9.3486 11.8652 9.6611 11.8652ZM15.4131 9.87305C16.5556 9.87305 17.5127 8.99414 17.5127 7.90039C17.5127 6.80664 16.5556 5.92773 15.4131 5.92773C14.1826 5.92773 13.2646 6.80664 13.2548 7.90039C13.2451 8.99414 14.1826 9.87305 15.4131 9.87305Z" fill="var(--color-primary)"/>
  <path d="M0.207973 6.92383C-0.221714 7.39258 0.0517231 8.02734 0.686489 8.02734L1.93649 8.02734L1.93649 11.2988C1.93649 11.6895 2.23922 11.9824 2.62008 11.9824C3.00094 11.9824 3.30368 11.6895 3.30368 11.2988L3.30368 8.02734L4.53415 8.02734C5.19821 8.02734 5.43258 7.36328 5.02243 6.92383L3.07907 4.75586C2.79586 4.45312 2.42477 4.45312 2.14157 4.75586Z" fill="var(--color-primary)"/>
 </g>
</svg>
