<?xml version="1.0" encoding="UTF-8"?>
<!--Generator: Apple Native CoreSVG 232.5-->
<!DOCTYPE svg
PUBLIC "-//W3C//DTD SVG 1.1//EN"
       "http://www.w3.org/Graphics/SVG/1.1/DTD/svg11.dtd">
<svg version="1.1" xmlns="http://www.w3.org/2000/svg" xmlns:xlink="http://www.w3.org/1999/xlink" width="8.74484" height="15.2954">
 <g>
  <rect height="15.2954" opacity="0" width="8.74484" x="0" y="0"/>
  <path d="M2.38023 14.8987C2.87828 14.8987 3.15172 14.6155 3.15172 14.1077L3.15172 8.37526L2.50719 8.37526C3.15172 10.094 4.84117 11.5491 7.26305 12.4085C7.76109 12.594 8.17125 12.3499 8.31773 12.0081C8.47398 11.6663 8.37633 11.2268 7.86851 10.9924C4.95836 9.70338 3.15172 8.01393 3.15172 5.19166L3.15172 2.58424L1.61851 2.58424L1.61851 14.1077C1.61851 14.6155 1.88219 14.8987 2.38023 14.8987ZM0.602889 3.63893L4.15758 3.63893C4.76305 3.63893 4.9193 3.21901 4.59703 2.76002L2.85875 0.289318C2.59508-0.0915411 2.18492-0.101307 1.91148 0.289318L0.173202 2.76002C-0.158829 3.21901-0.0123451 3.63893 0.602889 3.63893Z" fill="#ffffff" fill-opacity="0.85"/>
 </g>
</svg>
