<svg version="1.1" xmlns="http://www.w3.org/2000/svg" xmlns:xlink="http://www.w3.org/1999/xlink" width="16.4648" height="18.2642" viewBox="0 0 16.4648 18.2642">
 <g>
  <rect height="18.2642" opacity="0" width="16.4648" x="0" y="0"/>
  <path d="M4.36523 12.1448C4.73633 12.0667 4.94141 11.7053 4.83398 11.344L4.19922 8.78542C4.12109 8.51198 4.00391 8.31667 3.7793 8.19948C3.56445 8.06276 3.34961 8.04323 3.06641 8.13112L0.537109 8.85378C0.15625 8.95143-0.0390625 9.31276 0.0683594 9.65456C0.15625 10.0257 0.527344 10.2405 0.878906 10.1233L3.04688 9.47878L3.55469 11.6663C3.63281 12.0471 4.01367 12.2424 4.36523 12.1448ZM2.1875 16.2659L6.17188 16.2659C6.58203 16.2659 6.88477 15.9827 6.88477 15.5823C6.88477 15.1917 6.58203 14.8987 6.17188 14.8987L2.19727 14.8987C1.72852 14.8987 1.40625 14.5081 1.40625 14.0784C1.40625 13.9514 1.43555 13.8049 1.50391 13.6682L4.08203 9.04909L2.90039 8.35573L0.302734 13.0042C0.107422 13.3557 0 13.7171 0 14.0784C0 15.3186 0.830078 16.2659 2.1875 16.2659ZM11.4746 8.09206L12.666 7.3987L9.93164 2.52565C9.53125 1.79323 8.78906 1.42214 8.04688 1.42214C7.30469 1.42214 6.57227 1.803 6.17188 2.52565L4.11133 6.20729C3.88672 6.59792 4.00391 6.96901 4.3457 7.17409C4.6875 7.3694 5.10742 7.24245 5.30273 6.89089L7.36328 3.19948C7.50977 2.93581 7.7832 2.80885 8.04688 2.80885C8.31055 2.80885 8.57422 2.92604 8.73047 3.19948ZM11.6211 8.3069C11.9043 8.37526 12.1289 8.37526 12.3438 8.23854C12.5586 8.10182 12.6855 7.92604 12.7637 7.6526L13.3984 5.09401C13.4961 4.72292 13.291 4.37135 12.9297 4.28346C12.5684 4.19557 12.1973 4.39089 12.1191 4.76198L11.6016 6.95925L9.44336 6.31471C9.08203 6.19753 8.73047 6.41237 8.62305 6.7737C8.52539 7.12526 8.7207 7.47682 9.0918 7.58425ZM8.62305 16.2659L13.9062 16.2659C15.2637 16.2659 16.1035 15.3186 16.1035 14.0784C16.1035 13.7171 16.0059 13.3655 15.8008 13.0042L13.8574 9.51784C13.6426 9.13698 13.2422 9.05885 12.9004 9.25417C12.5684 9.44948 12.4512 9.85964 12.6465 10.2112L14.5898 13.6682C14.6582 13.8049 14.6875 13.9514 14.6875 14.0784C14.6875 14.5081 14.3652 14.8987 13.8867 14.8987L8.62305 14.8987ZM10.2246 18.0628C10.498 18.3362 10.918 18.3264 11.1719 18.0628C11.4355 17.8089 11.4355 17.3889 11.1621 17.1253L9.52148 15.5823L11.1621 14.0491C11.4355 13.7854 11.4355 13.3557 11.1719 13.1018C10.918 12.8382 10.498 12.8284 10.2246 13.1018L8.34961 14.928C8.13477 15.1331 8.03711 15.3284 8.03711 15.5823C8.03711 15.8362 8.13477 16.0413 8.34961 16.2366Z" fill="currentColor"/>
 </g>
</svg>
