<svg version="1.1" xmlns="http://www.w3.org/2000/svg" xmlns:xlink="http://www.w3.org/1999/xlink" width="14.5898" height="14.248" viewBox="0 0 14.5898 14.248">
 <g>
  <rect height="14.248" opacity="0" width="14.5898" x="0" y="0"/>
  <path d="M14.2285 2.4707L14.2285 11.7871C14.2285 13.4277 13.4082 14.248 11.7383 14.248L2.49023 14.248C0.830078 14.248 0 13.4277 0 11.7871L0 2.4707C0 0.830078 0.830078 0.00976562 2.49023 0.00976562L11.7383 0.00976562C13.4082 0.00976562 14.2285 0.830078 14.2285 2.4707ZM6.60156 3.31055L4.00391 5.88867C3.87695 6.00586 3.81836 6.17188 3.81836 6.35742C3.81836 6.72852 4.10156 7.01172 4.48242 7.01172C4.66797 7.01172 4.83398 6.94336 4.96094 6.81641L5.78125 5.98633L6.52344 5.04883L6.44531 6.86523L6.44531 10.4297C6.44531 10.8301 6.72852 11.1133 7.12891 11.1133C7.51953 11.1133 7.80273 10.8301 7.80273 10.4297L7.80273 6.86523L7.72461 5.03906L8.48633 5.98633L9.28711 6.81641C9.41406 6.95312 9.58008 7.01172 9.77539 7.01172C10.1465 7.01172 10.4395 6.72852 10.4395 6.35742C10.4395 6.17188 10.3711 6.00586 10.2539 5.88867L7.65625 3.31055C7.48047 3.125 7.33398 3.04688 7.12891 3.04688C6.92383 3.04688 6.78711 3.125 6.60156 3.31055Z" fill="var(--color-primary)"/>
 </g>
</svg>
