<?xml version="1.0" encoding="UTF-8"?>
<!--Generator: Apple Native CoreSVG 232.5-->
<!DOCTYPE svg
PUBLIC "-//W3C//DTD SVG 1.1//EN"
       "http://www.w3.org/Graphics/SVG/1.1/DTD/svg11.dtd">
<svg version="1.1" xmlns="http://www.w3.org/2000/svg" xmlns:xlink="http://www.w3.org/1999/xlink" width="16.1328" height="15.7715">
 <g>
  <rect height="15.7715" opacity="0" width="16.1328" x="0" y="0"/>
  <path d="M7.88086 15.7617C12.1875 15.7617 15.7715 12.1875 15.7715 7.88086C15.7715 3.57422 12.1777 0 7.87109 0C3.57422 0 0 3.57422 0 7.88086C0 12.1875 3.58398 15.7617 7.88086 15.7617ZM7.88086 14.2773C4.33594 14.2773 1.50391 11.4355 1.50391 7.88086C1.50391 4.32617 4.32617 1.48438 7.87109 1.48438C11.4258 1.48438 14.2773 4.32617 14.2773 7.88086C14.2773 11.4355 11.4355 14.2773 7.88086 14.2773Z" fill="#ffffff" fill-opacity="0.85"/>
  <path d="M4.55078 7.98828C4.89258 7.98828 5.16602 7.71484 5.16602 7.38281L5.16602 7.06055L5.06836 5.88867L6.61133 7.5293C6.86523 7.80273 7.27539 7.79297 7.5293 7.53906C7.7832 7.28516 7.77344 6.85547 7.51953 6.61133L5.9082 5.08789L7.05078 5.17578L7.34375 5.17578C7.68555 5.17578 7.95898 4.90234 7.95898 4.57031C7.95898 4.22852 7.68555 3.95508 7.34375 3.95508L4.6582 3.95508C4.19922 3.95508 3.93555 4.15039 3.93555 4.67773L3.93555 7.38281C3.93555 7.71484 4.20898 7.98828 4.55078 7.98828ZM8.4082 11.8359L11.084 11.8359C11.543 11.8359 11.8066 11.6309 11.8066 11.1133L11.8066 8.4082C11.8066 8.06641 11.5332 7.79297 11.2012 7.79297C10.8594 7.79297 10.5859 8.06641 10.5859 8.4082L10.5859 8.73047L10.6836 9.89258L9.14062 8.26172C8.88672 7.98828 8.47656 7.99805 8.22266 8.25195C7.96875 8.50586 7.96875 8.92578 8.22266 9.16992L9.84375 10.7031L8.70117 10.6152L8.4082 10.6152C8.06641 10.6152 7.79297 10.8789 7.79297 11.2207C7.79297 11.5625 8.06641 11.8359 8.4082 11.8359Z" fill="#ffffff" fill-opacity="0.85"/>
 </g>
</svg>
