<?xml version="1.0" encoding="UTF-8"?>
<!--Generator: Apple Native CoreSVG 232.5-->
<!DOCTYPE svg
PUBLIC "-//W3C//DTD SVG 1.1//EN"
       "http://www.w3.org/Graphics/SVG/1.1/DTD/svg11.dtd">
<svg version="1.1" xmlns="http://www.w3.org/2000/svg" xmlns:xlink="http://www.w3.org/1999/xlink" width="14.5898" height="14.248">
 <g>
  <rect height="14.248" opacity="0" width="14.5898" x="0" y="0"/>
  <path d="M2.49023 14.248L11.7383 14.248C13.4082 14.248 14.2285 13.4277 14.2285 11.7871L14.2285 2.4707C14.2285 0.830078 13.4082 0.00976562 11.7383 0.00976562L2.49023 0.00976562C0.830078 0.00976562 0 0.830078 0 2.4707L0 11.7871C0 13.4277 0.830078 14.248 2.49023 14.248Z" fill="#ffffff" fill-opacity="0.25"/>
  <path d="M3.44727 4.31641L5.37109 2.45117C5.48828 2.34375 5.64453 2.26562 5.79102 2.26562C6.13281 2.26562 6.36719 2.5 6.36719 2.8418C6.36719 2.99805 6.30859 3.14453 6.19141 3.24219L5.42969 3.98438L5.20508 4.17969L5.49805 4.16992L10.3906 4.16992C10.7227 4.16992 10.9668 4.41406 10.9668 4.75586C10.9668 5.07812 10.7129 5.33203 10.3906 5.33203L5.49805 5.33203L5.19531 5.3125L5.42969 5.51758L6.19141 6.25977C6.30859 6.36719 6.36719 6.50391 6.36719 6.66016C6.36719 7.00195 6.13281 7.22656 5.79102 7.22656C5.6543 7.22656 5.49805 7.1582 5.37109 7.07031L3.44727 5.18555C3.21289 4.96094 3.21289 4.54102 3.44727 4.31641ZM10.7715 9.93164L8.84766 11.8164C8.7207 11.9238 8.56445 11.9922 8.42773 11.9922C8.10547 11.9922 7.85156 11.748 7.85156 11.416C7.85156 11.2598 7.91992 11.123 8.03711 11.0156L8.79883 10.2734L9.0332 10.0781L8.7207 10.0879L3.82812 10.0879C3.51562 10.0879 3.27148 9.84375 3.27148 9.51172C3.27148 9.16992 3.51562 8.92578 3.82812 8.92578L8.73047 8.92578L9.0332 8.94531L8.79883 8.74023L8.01758 7.99805C7.91016 7.89062 7.85156 7.75391 7.85156 7.59766C7.85156 7.26562 8.0957 7.03125 8.42773 7.03125C8.57422 7.03125 8.74023 7.10938 8.84766 7.19727L10.7715 9.08203C11.0059 9.31641 11.0156 9.6875 10.7715 9.93164Z" fill="#ffffff" fill-opacity="0.85"/>
 </g>
</svg>
