<svg version="1.1" xmlns="http://www.w3.org/2000/svg" xmlns:xlink="http://www.w3.org/1999/xlink" width="13.3691" height="16.4746" viewBox="0 0 13.3691 16.4746">
 <g>
  <rect height="16.4746" opacity="0" width="13.3691" x="0" y="0"/>
  <path d="M5.89844 5.67383C5.89844 6.70898 6.38672 7.19727 7.42188 7.19727L13.0078 7.19727L13.0078 13.9746C13.0078 15.6348 12.1875 16.4648 10.5469 16.4648L2.45117 16.4648C0.810547 16.4648 0 15.6445 0 13.9746L0 2.49023C0 0.830078 0.810547 0 2.45117 0L5.89844 0ZM5.85938 9.27734L5.85938 11.6797L5.91797 12.7832L5.48828 12.3438L4.80469 11.6504C4.6875 11.5332 4.52148 11.4648 4.36523 11.4648C4.02344 11.4648 3.76953 11.6992 3.76953 12.0312C3.76953 12.1973 3.83789 12.3535 3.96484 12.4609L6.03516 14.3262C6.21094 14.4824 6.33789 14.541 6.50391 14.541C6.66016 14.541 6.79688 14.4824 6.97266 14.3262L9.0332 12.4609C9.16016 12.3535 9.22852 12.1973 9.22852 12.0312C9.22852 11.6992 8.97461 11.4648 8.63281 11.4648C8.47656 11.4648 8.32031 11.5332 8.19336 11.6504L7.50977 12.3438L7.08008 12.7832L7.13867 11.6797L7.13867 9.27734C7.13867 8.93555 6.8457 8.65234 6.50391 8.65234C6.15234 8.65234 5.85938 8.93555 5.85938 9.27734ZM8.16406 0.791016L12.2168 4.93164C12.627 5.35156 12.8711 5.69336 12.9199 6.05469L7.42188 6.05469C7.17773 6.05469 7.04102 5.92773 7.04102 5.67383L7.04102 0.0683594C7.40234 0.126953 7.76367 0.380859 8.16406 0.791016Z" fill="currentColor"/>
 </g>
</svg>
