<svg version="1.1" xmlns="http://www.w3.org/2000/svg" xmlns:xlink="http://www.w3.org/1999/xlink" width="14.5898" height="14.248" viewBox="0 0 14.5898 14.248">
 <g>
  <rect height="14.248" opacity="0" width="14.5898" x="0" y="0"/>
  <path d="M14.2285 2.4707L14.2285 11.7871C14.2285 13.4277 13.4082 14.248 11.7383 14.248L2.49023 14.248C0.830078 14.248 0 13.4277 0 11.7871L0 2.4707C0 0.830078 0.830078 0.00976562 2.49023 0.00976562L11.7383 0.00976562C13.4082 0.00976562 14.2285 0.830078 14.2285 2.4707ZM8.41797 4.0332L3.90625 6.67969C3.56445 6.875 3.55469 7.37305 3.90625 7.56836L8.41797 10.2148C8.80859 10.459 9.25781 10.2637 9.25781 9.86328L9.25781 4.38477C9.25781 3.98438 8.76953 3.80859 8.41797 4.0332Z" fill="var(--color-primary)"/>
 </g>
</svg>
