<?xml version="1.0" encoding="UTF-8"?>
<!--Generator: Apple Native CoreSVG 232.5-->
<!DOCTYPE svg
PUBLIC "-//W3C//DTD SVG 1.1//EN"
       "http://www.w3.org/Graphics/SVG/1.1/DTD/svg11.dtd">
<svg version="1.1" xmlns="http://www.w3.org/2000/svg" xmlns:xlink="http://www.w3.org/1999/xlink" width="14.5898" height="14.248">
 <g>
  <rect height="14.248" opacity="0" width="14.5898" x="0" y="0"/>
  <path d="M2.49023 14.248L11.7383 14.248C13.4082 14.248 14.2285 13.4277 14.2285 11.7871L14.2285 2.4707C14.2285 0.830078 13.4082 0.00976562 11.7383 0.00976562L2.49023 0.00976562C0.830078 0.00976562 0 0.830078 0 2.4707L0 11.7871C0 13.4277 0.830078 14.248 2.49023 14.248Z" fill="#ffffff" fill-opacity="0.25"/>
  <path d="M3.03711 7.10938C3.03711 6.91406 3.11523 6.76758 3.30078 6.58203L5.89844 3.97461C6.01562 3.85742 6.17188 3.79883 6.36719 3.79883C6.73828 3.79883 7.02148 4.08203 7.02148 4.45312C7.02148 4.63867 6.93359 4.81445 6.82617 4.93164L5.98633 5.76172L5.04883 6.50391L6.8457 6.43555L10.5371 6.43555C10.9375 6.43555 11.2207 6.71875 11.2207 7.10938C11.2207 7.5 10.9375 7.7832 10.5371 7.7832L6.8457 7.7832L5.03906 7.71484L5.98633 8.4668L6.82617 9.28711C6.94336 9.4043 7.02148 9.58008 7.02148 9.76562C7.02148 10.1367 6.73828 10.4297 6.36719 10.4297C6.17188 10.4297 6.01562 10.3613 5.89844 10.2441L3.30078 7.64648C3.125 7.4707 3.03711 7.31445 3.03711 7.10938Z" fill="#ffffff" fill-opacity="0.85"/>
 </g>
</svg>
