<svg version="1.1" xmlns="http://www.w3.org/2000/svg" xmlns:xlink="http://www.w3.org/1999/xlink" width="16.1328" height="15.7715" viewBox="0 0 16.1328 15.7715">
 <g>
  <rect height="15.7715" opacity="0" width="16.1328" x="0" y="0"/>
  <path d="M7.88086 15.7617C12.1875 15.7617 15.7715 12.1875 15.7715 7.88086C15.7715 3.57422 12.1777 0 7.87109 0C3.57422 0 0 3.57422 0 7.88086C0 12.1875 3.58398 15.7617 7.88086 15.7617Z" fill="var(--color-tertiary)"/>
  <path d="M10.3223 5.88867C10.7129 5.88867 10.9766 6.19141 10.9766 6.61133L10.9766 10.2246C10.9766 10.7617 10.6836 10.9766 10.2148 10.9766L6.58203 10.9766C6.16211 10.9766 5.88867 10.7129 5.88867 10.3027C5.88867 9.91211 6.16211 9.64844 6.60156 9.64844L7.75391 9.64844L8.94531 9.79492L7.60742 8.55469L5 5.95703C4.86328 5.82031 4.78516 5.64453 4.78516 5.47852C4.78516 5.05859 5.04883 4.79492 5.43945 4.79492C5.6543 4.79492 5.83008 4.87305 5.95703 5L8.56445 7.61719L9.79492 8.92578L9.64844 7.73438L9.64844 6.5918C9.64844 6.16211 9.91211 5.88867 10.3223 5.88867Z" fill="var(--color-primary)"/>
 </g>
</svg>
