<svg version="1.1" xmlns="http://www.w3.org/2000/svg" xmlns:xlink="http://www.w3.org/1999/xlink" width="18.5645" height="14.248" viewBox="0 0 18.5645 14.248">
 <g>
  <rect height="14.248" opacity="0" width="18.5645" x="0" y="0"/>
  <path d="M15.5371 11.9043C15.3027 13.4375 14.6973 14.248 13.1543 14.248L5.04883 14.248C3.50586 14.248 2.90039 13.4375 2.66602 11.9043L1.58203 4.66797L16.6113 4.66797ZM8.59375 6.36719L6.37695 8.35938C6.24023 8.48633 6.16211 8.63281 6.16211 8.82812C6.16211 9.18945 6.42578 9.44336 6.80664 9.44336C6.97266 9.44336 7.14844 9.36523 7.28516 9.23828L8.01758 8.49609L8.4668 8.01758L8.4082 9.21875L8.4082 11.7871C8.4082 12.1582 8.7207 12.4609 9.10156 12.4609C9.47266 12.4609 9.79492 12.1582 9.79492 11.7871L9.79492 9.21875L9.73633 8.01758L10.1855 8.49609L10.918 9.23828C11.0449 9.36523 11.2207 9.44336 11.3965 9.44336C11.7578 9.44336 12.041 9.18945 12.041 8.82812C12.041 8.63281 11.9629 8.48633 11.8262 8.35938L9.60938 6.36719C9.41406 6.18164 9.27734 6.13281 9.10156 6.13281C8.92578 6.13281 8.78906 6.18164 8.59375 6.36719ZM18.2031 1.44531L18.2031 2.08984C18.2031 2.99805 17.7539 3.52539 16.8457 3.52539L1.35742 3.52539C0.449219 3.52539 0 2.99805 0 2.08984L0 1.44531C0 0.546875 0.498047 0.00976562 1.35742 0.00976562L16.8457 0.00976562C17.7539 0.00976562 18.2031 0.546875 18.2031 1.44531Z" fill="var(--color-primary)"/>
 </g>
</svg>
