<svg version="1.1" xmlns="http://www.w3.org/2000/svg" xmlns:xlink="http://www.w3.org/1999/xlink" width="18.4766" height="14.248" viewBox="0 0 18.4766 14.248">
 <g>
  <rect height="14.248" opacity="0" width="18.4766" x="0" y="0"/>
  <path d="M2.49023 14.248L15.625 14.248C17.2949 14.248 18.1152 13.4277 18.1152 11.7871L18.1152 2.4707C18.1152 0.830078 17.2949 0.00976562 15.625 0.00976562L2.49023 0.00976562C0.830078 0.00976562 0 0.830078 0 2.4707L0 11.7871C0 13.4277 0.830078 14.248 2.49023 14.248Z" fill="var(--color-tertiary)"/>
  <path d="M7.5 11.1621C7.09961 11.1621 6.83594 10.8887 6.83594 10.459L6.83594 9.33594L6.97266 8.14453L5.74219 9.46289L3.65234 11.5625C3.52539 11.6895 3.34961 11.7676 3.13477 11.7676C2.74414 11.7676 2.48047 11.5039 2.48047 11.0938C2.48047 10.918 2.55859 10.7422 2.69531 10.6055L4.79492 8.51562L6.12305 7.27539L4.93164 7.43164L3.80859 7.43164C3.37891 7.43164 3.0957 7.16797 3.0957 6.75781C3.0957 6.36719 3.36914 6.10352 3.78906 6.10352L7.40234 6.10352C7.87109 6.10352 8.16406 6.30859 8.16406 6.85547L8.16406 10.4395C8.16406 10.8594 7.90039 11.1621 7.5 11.1621Z" fill="var(--color-primary)"/>
 </g>
</svg>
