<svg version="1.1" xmlns="http://www.w3.org/2000/svg" xmlns:xlink="http://www.w3.org/1999/xlink" width="18.4766" height="14.248" viewBox="0 0 18.4766 14.248">
 <g>
  <rect height="14.248" opacity="0" width="18.4766" x="0" y="0"/>
  <path d="M2.49023 14.248L15.625 14.248C17.2949 14.248 18.1152 13.4277 18.1152 11.7871L18.1152 2.4707C18.1152 0.830078 17.2949 0.00976562 15.625 0.00976562L2.49023 0.00976562C0.830078 0.00976562 0 0.830078 0 2.4707L0 11.7871C0 13.4277 0.830078 14.248 2.49023 14.248ZM2.50977 12.832C1.80664 12.832 1.40625 12.4512 1.40625 11.7188L1.40625 2.53906C1.40625 1.79688 1.80664 1.42578 2.50977 1.42578L15.6055 1.42578C16.3086 1.42578 16.709 1.79688 16.709 2.53906L16.709 11.7188C16.709 12.4512 16.3086 12.832 15.6055 12.832Z" fill="currentColor"/>
  <path d="M7.42188 3.18359C7.03125 3.18359 6.77734 3.44727 6.77734 3.85742L6.77734 4.94141L6.91406 6.08398L5.73242 4.81445L3.71094 2.79297C3.58398 2.66602 3.42773 2.59766 3.22266 2.59766C2.83203 2.59766 2.57812 2.85156 2.57812 3.24219C2.57812 3.4082 2.66602 3.58398 2.7832 3.70117L4.81445 5.73242L6.10352 6.92383L4.95117 6.77734L3.86719 6.77734C3.44727 6.77734 3.17383 7.03125 3.17383 7.41211C3.17383 7.80273 3.4375 8.05664 3.84766 8.05664L7.32422 8.05664C7.77344 8.05664 8.05664 7.85156 8.05664 7.33398L8.05664 3.87695C8.05664 3.47656 7.80273 3.18359 7.42188 3.18359Z" fill="currentColor"/>
 </g>
</svg>
