<?xml version="1.0" encoding="UTF-8"?>
<!--Generator: Apple Native CoreSVG 232.5-->
<!DOCTYPE svg
PUBLIC "-//W3C//DTD SVG 1.1//EN"
       "http://www.w3.org/Graphics/SVG/1.1/DTD/svg11.dtd">
<svg version="1.1" xmlns="http://www.w3.org/2000/svg" xmlns:xlink="http://www.w3.org/1999/xlink" width="14.5898" height="14.248">
 <g>
  <rect height="14.248" opacity="0" width="14.5898" x="0" y="0"/>
  <path d="M2.49023 14.248L11.7383 14.248C13.4082 14.248 14.2285 13.4277 14.2285 11.7871L14.2285 2.4707C14.2285 0.830078 13.4082 0.00976562 11.7383 0.00976562L2.49023 0.00976562C0.830078 0.00976562 0 0.830078 0 2.4707L0 11.7871C0 13.4277 0.830078 14.248 2.49023 14.248ZM2.50977 12.832C1.80664 12.832 1.40625 12.4609 1.40625 11.7188L1.40625 2.53906C1.40625 1.80664 1.80664 1.42578 2.50977 1.42578L11.7188 1.42578C12.4219 1.42578 12.8223 1.80664 12.8223 2.53906L12.8223 11.7188C12.8223 12.4609 12.4219 12.832 11.7188 12.832Z" fill="#ffffff" fill-opacity="0.55"/>
  <path d="M7.12891 3.19336C6.74805 3.19336 6.47461 3.4668 6.47461 3.83789L6.47461 7.29492L6.54297 9.0332L5.82031 8.125L5.0293 7.32422C4.92188 7.2168 4.75586 7.13867 4.57031 7.13867C4.21875 7.13867 3.94531 7.41211 3.94531 7.77344C3.94531 7.94922 3.99414 8.10547 4.11133 8.22266L6.62109 10.7129C6.79688 10.8887 6.93359 10.957 7.12891 10.957C7.32422 10.957 7.4707 10.8789 7.63672 10.7129L10.1367 8.22266C10.2539 8.10547 10.3125 7.94922 10.3125 7.77344C10.3125 7.41211 10.0391 7.13867 9.67773 7.13867C9.49219 7.13867 9.32617 7.20703 9.21875 7.32422L8.4375 8.125L7.70508 9.04297L7.77344 7.29492L7.77344 3.83789C7.77344 3.4668 7.5 3.19336 7.12891 3.19336Z" fill="#ffffff" fill-opacity="0.85"/>
 </g>
</svg>
