<svg version="1.1" xmlns="http://www.w3.org/2000/svg" xmlns:xlink="http://www.w3.org/1999/xlink" width="23.5718" height="16.1816" viewBox="0 0 23.5718 16.1816">
 <g>
  <rect height="16.1816" opacity="0" width="23.5718" x="0" y="0"/>
  <path d="M0.618902 9.0625L6.40015 12.5977C7.19117 13.0762 8.04078 12.7051 8.04078 11.7383L8.04078 4.45312C8.04078 3.50586 7.2107 3.10547 6.40015 3.60352L0.618902 7.12891C-0.211176 7.63672-0.201411 8.55469 0.618902 9.0625ZM1.57593 8.23242C1.46851 8.16406 1.40992 8.07617 1.57593 7.95898L6.53687 4.88281C6.60523 4.84375 6.77125 4.82422 6.77125 4.98047L6.77125 11.2109C6.77125 11.3574 6.62476 11.3672 6.53687 11.3086ZM11.6052 16.1816C11.947 16.1816 12.2498 15.918 12.2498 15.5762L12.2498 0.615234C12.2498 0.273438 11.947 0.00976562 11.6052 0.00976562C11.2732 0.00976562 10.9705 0.273438 10.9705 0.615234L10.9705 15.5762C10.9705 15.918 11.2732 16.1816 11.6052 16.1816ZM16.8103 12.5977L22.5916 9.0625C23.4119 8.55469 23.4216 7.63672 22.5916 7.12891L16.8103 3.60352C16.0095 3.10547 15.1794 3.50586 15.1794 4.45312L15.1794 11.7383C15.1794 12.7051 16.0291 13.0762 16.8103 12.5977ZM16.6736 11.3086C16.5955 11.3574 16.449 11.3574 16.449 11.2109L16.449 4.98047C16.449 4.82422 16.6052 4.84375 16.6736 4.88281L21.6345 7.95898C21.8103 8.07617 21.7419 8.16406 21.6345 8.23242Z" fill="currentColor"/>
 </g>
</svg>
