<?xml version="1.0" encoding="UTF-8"?>
<!--Generator: Apple Native CoreSVG 232.5-->
<!DOCTYPE svg
PUBLIC "-//W3C//DTD SVG 1.1//EN"
       "http://www.w3.org/Graphics/SVG/1.1/DTD/svg11.dtd">
<svg version="1.1" xmlns="http://www.w3.org/2000/svg" xmlns:xlink="http://www.w3.org/1999/xlink" width="16.1328" height="15.7715">
 <g>
  <rect height="15.7715" opacity="0" width="16.1328" x="0" y="0"/>
  <path d="M7.88086 15.7617C12.1875 15.7617 15.7715 12.1875 15.7715 7.88086C15.7715 3.57422 12.1777 0 7.87109 0C3.57422 0 0 3.57422 0 7.88086C0 12.1875 3.58398 15.7617 7.88086 15.7617Z" fill="#ffffff" fill-opacity="0.25"/>
  <path d="M2.87109 7.89062C2.87109 7.54883 3.125 7.29492 3.47656 7.29492L6.92383 7.29492L8.36914 7.39258L6.72852 5.97656L6.35742 5.60547C6.23047 5.48828 6.18164 5.33203 6.18164 5.16602C6.18164 4.84375 6.44531 4.59961 6.77734 4.59961C6.93359 4.59961 7.08008 4.63867 7.20703 4.78516L9.93164 7.44141C10.0488 7.56836 10.1367 7.72461 10.1367 7.89062C10.1367 8.05664 10.0684 8.21289 9.93164 8.33984L7.2168 10.9766C7.09961 11.084 6.91406 11.1523 6.77734 11.1523C6.42578 11.1523 6.18164 10.918 6.18164 10.5859C6.18164 10.4004 6.23047 10.2637 6.35742 10.1562L6.73828 9.82422L8.37891 8.38867L6.92383 8.50586L3.47656 8.50586C3.125 8.50586 2.87109 8.25195 2.87109 7.89062ZM11.2891 11.4648C10.9473 11.4648 10.6934 11.2207 10.6934 10.8691L10.6934 4.89258C10.6934 4.54102 10.9473 4.29688 11.2891 4.29688C11.6504 4.29688 11.9043 4.54102 11.9043 4.89258L11.9043 10.8691C11.9043 11.2207 11.6504 11.4648 11.2891 11.4648Z" fill="#ffffff" fill-opacity="0.85"/>
 </g>
</svg>
