<?xml version="1.0" encoding="UTF-8"?>
<!--Generator: Apple Native CoreSVG 232.5-->
<!DOCTYPE svg
PUBLIC "-//W3C//DTD SVG 1.1//EN"
       "http://www.w3.org/Graphics/SVG/1.1/DTD/svg11.dtd">
<svg version="1.1" xmlns="http://www.w3.org/2000/svg" xmlns:xlink="http://www.w3.org/1999/xlink" width="16.1133" height="19.4043">
 <g>
  <rect height="19.4043" opacity="0" width="16.1133" x="0" y="0"/>
  <path d="M15.752 2.49023L15.752 12.998C15.752 14.668 14.9316 15.4883 13.291 15.4883L12.041 15.4883L12.041 6.37695C12.041 4.7168 11.2207 3.88672 9.58008 3.88672L3.71094 3.88672L3.71094 2.49023C3.71094 0.820312 4.52148 0 6.16211 0L13.291 0C14.9316 0 15.752 0.830078 15.752 2.49023ZM7.8125 1.5918C7.46094 1.5918 7.29492 1.82617 7.29492 2.07031L7.29492 2.24609C7.29492 2.49023 7.46094 2.72461 7.8125 2.72461L11.6504 2.72461C12.002 2.72461 12.168 2.49023 12.168 2.24609L12.168 2.07031C12.168 1.82617 12.002 1.5918 11.6504 1.5918Z" fill="#ffffff" fill-opacity="0.85"/>
  <path d="M0 16.8848C0 18.5547 0.810547 19.375 2.45117 19.375L9.58008 19.375C11.2207 19.375 12.041 18.5449 12.041 16.8848L12.041 6.37695C12.041 4.7168 11.2207 3.88672 9.58008 3.88672L2.45117 3.88672C0.810547 3.88672 0 4.70703 0 6.37695ZM1.40625 16.8652L1.40625 6.39648C1.40625 5.69336 1.78711 5.29297 2.51953 5.29297L9.51172 5.29297C10.2441 5.29297 10.625 5.69336 10.625 6.39648L10.625 16.8652C10.625 17.5684 10.2441 17.9688 9.51172 17.9688L2.51953 17.9688C1.78711 17.9688 1.40625 17.5684 1.40625 16.8652Z" fill="#ffffff" fill-opacity="0.85"/>
  <path d="M6.00586 14.8926C6.32812 14.8926 6.55273 14.668 6.55273 14.3555L6.55273 11.4062L6.50391 9.96094L7.10938 10.7227L7.75391 11.377C7.85156 11.4844 7.97852 11.543 8.13477 11.543C8.4375 11.543 8.67188 11.3184 8.67188 11.0156C8.67188 10.8691 8.61328 10.7422 8.51562 10.6445L6.44531 8.57422C6.29883 8.4375 6.18164 8.35938 6.00586 8.35938C5.85938 8.35938 5.74219 8.42773 5.5957 8.57422L3.51562 10.6445C3.41797 10.7422 3.36914 10.8691 3.36914 11.0156C3.36914 11.3184 3.59375 11.543 3.89648 11.543C4.05273 11.543 4.17969 11.4746 4.27734 11.377L4.93164 10.7227L5.52734 9.9707L5.46875 11.4062L5.46875 14.3555C5.46875 14.668 5.69336 14.8926 6.00586 14.8926Z" fill="#ffffff" fill-opacity="0.85"/>
 </g>
</svg>
