<svg version="1.1" xmlns="http://www.w3.org/2000/svg" xmlns:xlink="http://www.w3.org/1999/xlink" width="14.5898" height="14.2285" viewBox="0 0 14.5898 14.2285">
 <g>
  <rect height="14.2285" opacity="0" width="14.5898" x="0" y="0"/>
  <path d="M14.2285 2.45117L14.2285 11.7773C14.2285 13.418 13.4082 14.2285 11.7383 14.2285L2.49023 14.2285C0.830078 14.2285 0 13.418 0 11.7773L0 2.45117C0 0.810547 0.830078 0 2.49023 0L11.7383 0C13.4082 0 14.2285 0.810547 14.2285 2.45117ZM5.33203 3.04688L3.31055 5.08789C3.16406 5.24414 3.08594 5.43945 3.08594 5.625C3.08594 5.81055 3.1543 6.00586 3.31055 6.16211L5.3418 8.23242C5.44922 8.34961 5.61523 8.41797 5.81055 8.41797C6.17188 8.41797 6.44531 8.125 6.44531 7.75391C6.44531 7.55859 6.37695 7.40234 6.25 7.27539L5.42969 6.50391L5.06836 6.24023L5.85938 6.2793L7.93945 6.2793C9.07227 6.2793 9.81445 6.95312 9.81445 7.95898C9.81445 9.07227 9.05273 9.81445 7.92969 9.81445L6.92383 9.81445C6.51367 9.81445 6.24023 10.0781 6.24023 10.459C6.24023 10.8496 6.52344 11.1035 6.94336 11.1035L7.92969 11.1035C9.84375 11.1035 11.1133 9.86328 11.1133 7.95898C11.1133 6.17188 9.85352 4.99023 7.93945 4.99023L5.85938 4.99023L5.05859 5.01953L5.61523 4.58008L6.25 3.98438C6.37695 3.86719 6.44531 3.70117 6.44531 3.51562C6.44531 3.14453 6.17188 2.85156 5.80078 2.85156C5.60547 2.85156 5.44922 2.91992 5.33203 3.04688Z" fill="currentColor"/>
 </g>
</svg>
