<?xml version="1.0" encoding="UTF-8"?>
<!--Generator: Apple Native CoreSVG 232.5-->
<!DOCTYPE svg
PUBLIC "-//W3C//DTD SVG 1.1//EN"
       "http://www.w3.org/Graphics/SVG/1.1/DTD/svg11.dtd">
<svg version="1.1" xmlns="http://www.w3.org/2000/svg" xmlns:xlink="http://www.w3.org/1999/xlink" width="16.1328" height="15.7715">
 <g>
  <rect height="15.7715" opacity="0" width="16.1328" x="0" y="0"/>
  <path d="M7.88086 15.7617C12.1875 15.7617 15.7715 12.1875 15.7715 7.88086C15.7715 3.57422 12.1777 0 7.87109 0C3.57422 0 0 3.57422 0 7.88086C0 12.1875 3.58398 15.7617 7.88086 15.7617ZM7.88086 14.2773C4.33594 14.2773 1.50391 11.4355 1.50391 7.88086C1.50391 4.32617 4.32617 1.48438 7.87109 1.48438C11.4258 1.48438 14.2773 4.32617 14.2773 7.88086C14.2773 11.4355 11.4355 14.2773 7.88086 14.2773Z" fill="#ffffff" fill-opacity="0.55"/>
  <path d="M10.2148 5.9668C9.83398 5.9668 9.58008 6.23047 9.58008 6.64062L9.58008 7.74414L9.7168 8.89648L8.53516 7.62695L6.01562 5.10742C5.88867 4.98047 5.73242 4.91211 5.52734 4.91211C5.13672 4.91211 4.88281 5.16602 4.88281 5.55664C4.88281 5.72266 4.9707 5.89844 5.08789 6.01562L7.60742 8.53516L8.89648 9.72656L7.75391 9.58008L6.64062 9.58008C6.2207 9.58008 5.94727 9.83398 5.94727 10.2246C5.94727 10.6055 6.21094 10.8594 6.62109 10.8594L10.127 10.8594C10.5762 10.8594 10.8594 10.6641 10.8594 10.1367L10.8594 6.66016C10.8594 6.25977 10.6055 5.9668 10.2148 5.9668Z" fill="#ffffff" fill-opacity="0.85"/>
 </g>
</svg>
