<svg version="1.1" xmlns="http://www.w3.org/2000/svg" xmlns:xlink="http://www.w3.org/1999/xlink" width="12.0801" height="16.1426" viewBox="0 0 12.0801 16.1426">
 <g>
  <rect height="16.1426" opacity="0" width="12.0801" x="0" y="0"/>
  <path d="M11.7188 7.49023C11.7188 7.28516 11.6406 7.09961 11.4746 6.92383L6.44531 1.88477C6.2793 1.69922 6.07422 1.61133 5.85938 1.61133C5.64453 1.61133 5.43945 1.69922 5.27344 1.88477L0.244141 6.92383C0.078125 7.09961 0 7.28516 0 7.49023C0 7.92969 0.322266 8.26172 0.761719 8.26172C0.966797 8.26172 1.17188 8.18359 1.30859 8.04688L2.70508 6.68945L5.67383 3.4082L5.16602 3.22266L5.06836 5.625L5.06836 15.3711C5.06836 15.8301 5.40039 16.1426 5.85938 16.1426C6.31836 16.1426 6.65039 15.8301 6.65039 15.3711L6.65039 5.625L6.55273 3.22266L6.05469 3.4082L9.01367 6.68945L10.4102 8.04688C10.5469 8.18359 10.752 8.26172 10.957 8.26172C11.3965 8.26172 11.7188 7.92969 11.7188 7.49023ZM11.7188 0.820312C11.7188 0.361328 11.4062 0.0390625 10.957 0.0390625L0.78125 0.0390625C0.322266 0.0390625 0 0.361328 0 0.820312C0 1.2793 0.322266 1.61133 0.78125 1.61133L10.957 1.61133C11.4062 1.61133 11.7188 1.2793 11.7188 0.820312Z" fill="currentColor"/>
 </g>
</svg>
