<?xml version="1.0" encoding="UTF-8"?>
<!--Generator: Apple Native CoreSVG 232.5-->
<!DOCTYPE svg
PUBLIC "-//W3C//DTD SVG 1.1//EN"
       "http://www.w3.org/Graphics/SVG/1.1/DTD/svg11.dtd">
<svg version="1.1" xmlns="http://www.w3.org/2000/svg" xmlns:xlink="http://www.w3.org/1999/xlink" width="16.1328" height="15.7715">
 <g>
  <rect height="15.7715" opacity="0" width="16.1328" x="0" y="0"/>
  <path d="M7.88086 15.7617C12.1875 15.7617 15.7715 12.1875 15.7715 7.88086C15.7715 3.57422 12.1777 0 7.87109 0C3.57422 0 0 3.57422 0 7.88086C0 12.1875 3.58398 15.7617 7.88086 15.7617Z" fill="#ffffff" fill-opacity="0.25"/>
  <path d="M11.4648 7.83203L8.68164 7.83203C8.20312 7.83203 7.92969 7.62695 7.92969 7.08008L7.92969 4.27734C7.92969 3.92578 8.21289 3.64258 8.56445 3.64258C8.91602 3.64258 9.19922 3.92578 9.19922 4.27734L9.19922 4.60938L9.10156 5.82031L11.0645 3.75977C11.3281 3.49609 11.7578 3.49609 12.0215 3.75977C12.2949 4.01367 12.2754 4.45312 12.0117 4.7168L9.9707 6.66016L11.1621 6.5625L11.4648 6.5625C11.8262 6.5625 12.1094 6.8457 12.1094 7.19727C12.1094 7.54883 11.8262 7.83203 11.4648 7.83203ZM7.19727 12.1191C6.85547 12.1191 6.57227 11.8359 6.57227 11.4844L6.57227 11.1523L6.66016 9.94141L4.69727 11.9922C4.43359 12.2656 4.01367 12.2656 3.75 12.002C3.47656 11.7383 3.49609 11.3086 3.75977 11.0449L5.80078 9.10156L4.60938 9.19922L4.29688 9.19922C3.94531 9.19922 3.66211 8.91602 3.66211 8.56445C3.66211 8.20312 3.94531 7.92969 4.29688 7.92969L7.08984 7.92969C7.56836 7.92969 7.8418 8.13477 7.8418 8.67188L7.8418 11.4844C7.8418 11.8359 7.55859 12.1191 7.19727 12.1191Z" fill="#ffffff" fill-opacity="0.85"/>
 </g>
</svg>
