<?xml version="1.0" encoding="UTF-8"?>
<!--Generator: Apple Native CoreSVG 232.5-->
<!DOCTYPE svg
PUBLIC "-//W3C//DTD SVG 1.1//EN"
       "http://www.w3.org/Graphics/SVG/1.1/DTD/svg11.dtd">
<svg version="1.1" xmlns="http://www.w3.org/2000/svg" xmlns:xlink="http://www.w3.org/1999/xlink" width="14.5898" height="14.248">
 <g>
  <rect height="14.248" opacity="0" width="14.5898" x="0" y="0"/>
  <path d="M2.49023 14.248L11.7383 14.248C13.4082 14.248 14.2285 13.4277 14.2285 11.7871L14.2285 2.4707C14.2285 0.830078 13.4082 0.00976562 11.7383 0.00976562L2.49023 0.00976562C0.830078 0.00976562 0 0.830078 0 2.4707L0 11.7871C0 13.4277 0.830078 14.248 2.49023 14.248ZM2.50977 12.832C1.80664 12.832 1.40625 12.4609 1.40625 11.7188L1.40625 2.53906C1.40625 1.80664 1.80664 1.42578 2.50977 1.42578L11.7188 1.42578C12.4219 1.42578 12.8223 1.80664 12.8223 2.53906L12.8223 11.7188C12.8223 12.4609 12.4219 12.832 11.7188 12.832Z" fill="#ffffff" fill-opacity="0.85"/>
  <path d="M7.12891 10.957C7.5 10.957 7.77344 10.6934 7.77344 10.3125L7.77344 6.86523L7.70508 5.11719L8.4375 6.02539L9.21875 6.82617C9.32617 6.95312 9.49219 7.01172 9.67773 7.01172C10.0391 7.01172 10.3125 6.73828 10.3125 6.38672C10.3125 6.21094 10.2539 6.04492 10.1367 5.9375L7.63672 3.44727C7.4707 3.28125 7.32422 3.19336 7.12891 3.19336C6.93359 3.19336 6.79688 3.27148 6.62109 3.44727L4.11133 5.9375C3.99414 6.04492 3.94531 6.21094 3.94531 6.38672C3.94531 6.73828 4.21875 7.01172 4.57031 7.01172C4.75586 7.01172 4.92188 6.94336 5.0293 6.82617L5.82031 6.02539L6.54297 5.12695L6.47461 6.86523L6.47461 10.3125C6.47461 10.6934 6.74805 10.957 7.12891 10.957Z" fill="#ffffff" fill-opacity="0.85"/>
 </g>
</svg>
