<svg version="1.1" xmlns="http://www.w3.org/2000/svg" xmlns:xlink="http://www.w3.org/1999/xlink" width="16.1328" height="15.7715" viewBox="0 0 16.1328 15.7715">
 <g>
  <rect height="15.7715" opacity="0" width="16.1328" x="0" y="0"/>
  <path d="M7.88086 15.7617C12.1875 15.7617 15.7715 12.1875 15.7715 7.88086C15.7715 3.57422 12.1777 0 7.87109 0C3.57422 0 0 3.57422 0 7.88086C0 12.1875 3.58398 15.7617 7.88086 15.7617ZM7.88086 14.2773C4.33594 14.2773 1.50391 11.4355 1.50391 7.88086C1.50391 4.32617 4.32617 1.48438 7.87109 1.48438C11.4258 1.48438 14.2773 4.32617 14.2773 7.88086C14.2773 11.4355 11.4355 14.2773 7.88086 14.2773Z" fill="currentColor"/>
  <path d="M4.42383 7.83203L7.10938 7.83203C7.56836 7.83203 7.83203 7.63672 7.83203 7.10938L7.83203 4.41406C7.83203 4.07227 7.55859 3.79883 7.2168 3.79883C6.875 3.79883 6.60156 4.07227 6.60156 4.41406L6.60156 4.72656L6.69922 5.89844L4.80469 3.91602C4.55078 3.65234 4.14062 3.65234 3.88672 3.90625C3.63281 4.16016 3.64258 4.58008 3.89648 4.82422L5.85938 6.70898L4.7168 6.61133L4.42383 6.61133C4.08203 6.61133 3.80859 6.88477 3.80859 7.22656C3.80859 7.55859 4.08203 7.83203 4.42383 7.83203ZM8.52539 11.9629C8.86719 11.9629 9.14062 11.6895 9.14062 11.3477L9.14062 11.0352L9.05273 9.86328L10.9375 11.8457C11.1914 12.1094 11.6016 12.1094 11.8555 11.8555C12.1094 11.6016 12.0996 11.1816 11.8457 10.9375L9.88281 9.05273L11.0254 9.15039L11.3281 9.15039C11.6602 9.15039 11.9336 8.87695 11.9336 8.53516C11.9336 8.20312 11.6602 7.92969 11.3281 7.92969L8.64258 7.92969C8.18359 7.92969 7.91992 8.125 7.91992 8.65234L7.91992 11.3477C7.91992 11.6895 8.19336 11.9629 8.52539 11.9629Z" fill="currentColor"/>
 </g>
</svg>
