<?xml version="1.0" encoding="UTF-8"?>
<!--Generator: Apple Native CoreSVG 232.5-->
<!DOCTYPE svg
PUBLIC "-//W3C//DTD SVG 1.1//EN"
       "http://www.w3.org/Graphics/SVG/1.1/DTD/svg11.dtd">
<svg version="1.1" xmlns="http://www.w3.org/2000/svg" xmlns:xlink="http://www.w3.org/1999/xlink" width="15.2832" height="18.5645">
 <g>
  <rect height="18.5645" opacity="0" width="15.2832" x="0" y="0"/>
  <path d="M4.05273 3.60352L5.43945 3.60352L5.43945 1.96289C5.43945 1.5625 5.72266 1.29883 6.13281 1.29883L8.7793 1.29883C9.17969 1.29883 9.46289 1.5625 9.46289 1.96289L9.46289 3.60352L10.8594 3.60352L10.8594 1.86523C10.8594 0.712891 10.1074 0 8.87695 0L6.02539 0C4.80469 0 4.05273 0.712891 4.05273 1.86523ZM0.644531 4.29688L14.2773 4.29688C14.6387 4.29688 14.9219 4.00391 14.9219 3.64258C14.9219 3.28125 14.6289 2.98828 14.2773 2.98828L0.644531 2.98828C0.302734 2.98828 0 3.28125 0 3.64258C0 4.00391 0.302734 4.29688 0.644531 4.29688ZM3.93555 17.1387L10.9961 17.1387C12.1582 17.1387 12.9102 16.416 12.9688 15.2441L13.4766 4.15039L12.0801 4.15039L11.5918 15.0977C11.5723 15.5371 11.2793 15.8301 10.8496 15.8301L4.0625 15.8301C3.65234 15.8301 3.34961 15.5273 3.33008 15.0977L2.8125 4.15039L1.44531 4.15039L1.96289 15.2539C2.02148 16.4258 2.75391 17.1387 3.93555 17.1387Z" fill="#ffffff" fill-opacity="0.55"/>
  <path d="M7.43164 13.3301C7.75391 13.3301 7.97852 13.1055 7.97852 12.793L7.97852 9.84375L7.92969 8.38867L8.53516 9.16016L9.17969 9.81445C9.27734 9.91211 9.4043 9.9707 9.56055 9.9707C9.85352 9.9707 10.0977 9.74609 10.0977 9.44336C10.0977 9.30664 10.0391 9.16992 9.94141 9.08203L7.87109 7.01172C7.72461 6.875 7.60742 6.79688 7.43164 6.79688C7.28516 6.79688 7.16797 6.86523 7.02148 7.01172L4.94141 9.08203C4.84375 9.16992 4.79492 9.30664 4.79492 9.44336C4.79492 9.74609 5.01953 9.9707 5.32227 9.9707C5.46875 9.9707 5.60547 9.90234 5.70312 9.81445L6.35742 9.16016L6.95312 8.39844L6.89453 9.84375L6.89453 12.793C6.89453 13.1055 7.11914 13.3301 7.43164 13.3301Z" fill="#ffffff" fill-opacity="0.85"/>
 </g>
</svg>
