<?xml version="1.0" encoding="UTF-8"?>
<!--Generator: Apple Native CoreSVG 232.5-->
<!DOCTYPE svg
PUBLIC "-//W3C//DTD SVG 1.1//EN"
       "http://www.w3.org/Graphics/SVG/1.1/DTD/svg11.dtd">
<svg version="1.1" xmlns="http://www.w3.org/2000/svg" xmlns:xlink="http://www.w3.org/1999/xlink" width="14.6582" height="14.3066">
 <g>
  <rect height="14.3066" opacity="0" width="14.6582" x="0" y="0"/>
  <path d="M13.3789 0.927734C12.5488 0.107422 11.377 0 10.127 0L4.16992 0C2.91992 0 1.74805 0.107422 0.917969 0.927734C0.0976562 1.75781 0 2.91992 0 4.16992L0 10.127C0 11.3867 0.0976562 12.5391 0.917969 13.3691C1.74805 14.1895 2.91016 14.2969 4.16992 14.2969L10.127 14.2969C11.377 14.2969 12.5488 14.1895 13.3789 13.3691C14.1992 12.5391 14.2969 11.3867 14.2969 10.127L14.2969 4.16992C14.2969 2.91016 14.1992 1.75781 13.3789 0.927734ZM12.8906 3.95508L12.8906 10.3418C12.8906 11.0547 12.8125 11.8848 12.3535 12.3438C11.8945 12.8027 11.0547 12.8906 10.3418 12.8906L3.95508 12.8906C3.24219 12.8906 2.40234 12.8027 1.94336 12.3438C1.48438 11.8848 1.40625 11.0547 1.40625 10.3418L1.40625 3.96484C1.40625 3.24219 1.48438 2.41211 1.94336 1.95312C2.40234 1.49414 3.24219 1.40625 3.96484 1.40625L10.3418 1.40625C11.0547 1.40625 11.8945 1.49414 12.3535 1.95312C12.8125 2.41211 12.8906 3.24219 12.8906 3.95508Z" fill="#ffffff" fill-opacity="0.55"/>
  <path d="M7.1582 3.22266C6.77734 3.22266 6.50391 3.49609 6.50391 3.86719L6.50391 7.32422L6.57227 9.0625L5.85938 8.1543L5.06836 7.35352C4.95117 7.24609 4.79492 7.16797 4.59961 7.16797C4.24805 7.16797 3.97461 7.44141 3.97461 7.80273C3.97461 7.97852 4.0332 8.13477 4.14062 8.25195L6.65039 10.7422C6.82617 10.918 6.97266 10.9863 7.1582 10.9863C7.35352 10.9863 7.5 10.9082 7.67578 10.7422L10.166 8.25195C10.2832 8.13477 10.3516 7.97852 10.3516 7.80273C10.3516 7.44141 10.0684 7.16797 9.70703 7.16797C9.52148 7.16797 9.36523 7.23633 9.24805 7.35352L8.4668 8.1543L7.74414 9.07227L7.80273 7.32422L7.80273 3.86719C7.80273 3.49609 7.5293 3.22266 7.1582 3.22266Z" fill="#ffffff" fill-opacity="0.85"/>
 </g>
</svg>
