<svg version="1.1" xmlns="http://www.w3.org/2000/svg" xmlns:xlink="http://www.w3.org/1999/xlink" width="16.1328" height="15.7715" viewBox="0 0 16.1328 15.7715">
 <g>
  <rect height="15.7715" opacity="0" width="16.1328" x="0" y="0"/>
  <path d="M7.88086 15.7617C12.1875 15.7617 15.7715 12.1875 15.7715 7.88086C15.7715 3.57422 12.1777 0 7.87109 0C3.57422 0 0 3.57422 0 7.88086C0 12.1875 3.58398 15.7617 7.88086 15.7617ZM7.88086 14.2773C4.33594 14.2773 1.50391 11.4355 1.50391 7.88086C1.50391 4.32617 4.32617 1.48438 7.87109 1.48438C11.4258 1.48438 14.2773 4.32617 14.2773 7.88086C14.2773 11.4355 11.4355 14.2773 7.88086 14.2773Z" fill="var(--color-primary)"/>
  <path d="M7.16797 11.1621C7.4707 11.1621 7.69531 10.9473 7.69531 10.6445L7.69531 9.14062L7.79297 9.14062C9.28711 9.14062 10.2441 9.50195 10.9863 10.8496C11.1328 11.123 11.3477 11.1621 11.5332 11.1621C11.7676 11.1621 11.9922 10.957 11.9922 10.5664C11.9922 7.62695 10.8008 5.66406 7.79297 5.66406L7.69531 5.66406L7.69531 4.17969C7.69531 3.88672 7.4707 3.64258 7.1582 3.64258C6.94336 3.64258 6.80664 3.74023 6.5625 3.96484L3.34961 6.96289C3.21289 7.08984 3.1543 7.25586 3.1543 7.40234C3.1543 7.54883 3.21289 7.71484 3.34961 7.8418L6.5625 10.8691C6.77734 11.0645 6.95312 11.1621 7.16797 11.1621Z" fill="var(--color-primary)"/>
 </g>
</svg>
