<svg version="1.1" xmlns="http://www.w3.org/2000/svg" xmlns:xlink="http://www.w3.org/1999/xlink" width="19.8828" height="14.9121" viewBox="0 0 19.8828 14.9121">
 <g>
  <rect height="14.9121" opacity="0" width="19.8828" x="0" y="0"/>
  <path d="M17.0703 5.9375C18.5645 6.60156 19.5215 8.00781 19.5215 9.63867C19.5215 11.8066 17.666 13.5645 15.3125 13.5645L4.6875 13.5547C2.01172 13.5547 0 11.6016 0 9.31641C0 7.42188 1.06445 5.83008 2.82227 5.51758C2.88086 3.33984 4.94141 1.91406 6.85547 2.41211C7.8125 1.09375 9.30664 0 11.3867 0C14.5703 0 17.0605 2.48047 17.0703 5.9375ZM9.47266 3.80859L9.47266 4.58984C8.03711 4.80469 6.80664 6.11328 6.80664 7.73438C6.80664 9.56055 8.26172 11.0156 10.0586 11.0156C11.8457 11.0156 13.3008 9.56055 13.3008 7.76367C13.3008 7.46094 13.0469 7.2168 12.7441 7.2168C12.4414 7.2168 12.1875 7.46094 12.1875 7.76367C12.1875 8.94531 11.2402 9.91211 10.0586 9.91211C8.86719 9.91211 7.91992 8.94531 7.91992 7.76367C7.91992 6.77734 8.58398 5.9668 9.47266 5.71289L9.47266 6.5918C9.47266 6.95312 9.88281 7.11914 10.1758 6.86523L11.6211 5.58594C11.8848 5.35156 11.875 5 11.6211 4.77539L10.1758 3.52539C9.88281 3.28125 9.47266 3.42773 9.47266 3.80859Z" fill="currentColor"/>
 </g>
</svg>
