<?xml version="1.0" encoding="UTF-8"?>
<!--Generator: Apple Native CoreSVG 232.5-->
<!DOCTYPE svg
PUBLIC "-//W3C//DTD SVG 1.1//EN"
       "http://www.w3.org/Graphics/SVG/1.1/DTD/svg11.dtd">
<svg version="1.1" xmlns="http://www.w3.org/2000/svg" xmlns:xlink="http://www.w3.org/1999/xlink" width="14.5898" height="14.248">
 <g>
  <rect height="14.248" opacity="0" width="14.5898" x="0" y="0"/>
  <path d="M2.49023 14.248L11.7383 14.248C13.4082 14.248 14.2285 13.4277 14.2285 11.7871L14.2285 2.4707C14.2285 0.830078 13.4082 0.00976562 11.7383 0.00976562L2.49023 0.00976562C0.830078 0.00976562 0 0.830078 0 2.4707L0 11.7871C0 13.4277 0.830078 14.248 2.49023 14.248Z" fill="#ffffff" fill-opacity="0.25"/>
  <path d="M9.55078 9.12109C9.15039 9.12109 8.88672 8.84766 8.88672 8.4082L8.88672 7.26562L9.02344 6.07422L7.79297 7.39258L5.18555 10C5.05859 10.1367 4.89258 10.2148 4.66797 10.2148C4.27734 10.2148 4.01367 9.95117 4.01367 9.53125C4.01367 9.36523 4.10156 9.18945 4.22852 9.05273L6.8457 6.45508L8.17383 5.21484L6.98242 5.36133L5.83008 5.36133C5.40039 5.36133 5.11719 5.09766 5.11719 4.69727C5.11719 4.29688 5.39062 4.0332 5.81055 4.0332L9.44336 4.0332C9.91211 4.0332 10.2051 4.24805 10.2051 4.78516L10.2051 8.39844C10.2051 8.81836 9.94141 9.12109 9.55078 9.12109Z" fill="#ffffff" fill-opacity="0.85"/>
 </g>
</svg>
