<svg version="1.1" xmlns="http://www.w3.org/2000/svg" xmlns:xlink="http://www.w3.org/1999/xlink" width="19.3457" height="15.2441" viewBox="0 0 19.3457 15.2441">
 <g>
  <rect height="15.2441" opacity="0" width="19.3457" x="0" y="0"/>
  <path d="M12.627 0.664062L13.2227 1.33789C13.5547 1.69922 13.7402 1.8457 14.3359 1.8457L16.4941 1.8457C18.1543 1.8457 18.9844 2.65625 18.9844 4.29688L18.9844 12.2852C18.9844 13.9258 18.1543 14.7461 16.4941 14.7461L2.49023 14.7461C0.830078 14.7461 0 13.9258 0 12.2852L0 4.29688C0 2.65625 0.830078 1.8457 2.49023 1.8457L4.63867 1.8457C5.22461 1.8457 5.41992 1.69922 5.74219 1.33789L6.34766 0.664062C6.71875 0.253906 7.12891 0 7.93945 0L11.0352 0C11.8359 0 12.2461 0.253906 12.627 0.664062ZM5.38086 6.09375L4.10156 7.86133C3.88672 8.16406 3.96484 8.55469 4.36523 8.55469L5.15625 8.55469C5.53711 10.6836 7.28516 12.168 9.51172 12.168C10.459 12.168 11.3965 11.8555 12.0508 11.3477C12.4609 11.0352 12.5684 10.5762 12.2656 10.2441C11.9629 9.91211 11.5527 9.96094 11.2207 10.2051C10.7324 10.5762 10.2344 10.791 9.51172 10.791C8.04688 10.791 6.81641 9.82422 6.46484 8.55469L7.23633 8.55469C7.63672 8.55469 7.73438 8.16406 7.50977 7.86133L6.21094 6.09375C5.99609 5.80078 5.61523 5.77148 5.38086 6.09375ZM6.96289 4.26758C6.54297 4.58984 6.43555 5.03906 6.74805 5.36133C7.06055 5.69336 7.45117 5.64453 7.79297 5.40039C8.27148 5.0293 8.76953 4.81445 9.49219 4.81445C10.957 4.81445 12.1875 5.79102 12.5488 7.06055L11.709 7.06055C11.3184 7.06055 11.2207 7.44141 11.4453 7.74414L12.7441 9.52148C12.959 9.81445 13.3398 9.83398 13.5645 9.52148L14.8535 7.74414C15.0684 7.44141 14.9805 7.06055 14.5898 7.06055L13.8574 7.06055C13.4668 4.92188 11.7188 3.44727 9.49219 3.44727C8.55469 3.44727 7.60742 3.75 6.96289 4.26758Z" fill="var(--color-primary)"/>
 </g>
</svg>
