<svg version="1.1" xmlns="http://www.w3.org/2000/svg" xmlns:xlink="http://www.w3.org/1999/xlink" width="12.0801" height="14.541" viewBox="0 0 12.0801 14.541">
 <g>
  <rect height="14.541" opacity="0" width="12.0801" x="0" y="0"/>
  <path d="M5.85938 0C5.40039 0 5.06836 0.322266 5.06836 0.78125L5.06836 10.5176L5.16602 12.9199L5.66406 12.7441L2.70508 9.45312L1.30859 8.0957C1.17188 7.95898 0.966797 7.88086 0.761719 7.88086C0.322266 7.88086 0 8.22266 0 8.65234C0 8.85742 0.078125 9.04297 0.244141 9.22852L5.27344 14.2676C5.43945 14.4434 5.64453 14.541 5.85938 14.541C6.07422 14.541 6.2793 14.4434 6.44531 14.2676L11.4746 9.22852C11.6406 9.04297 11.7188 8.85742 11.7188 8.65234C11.7188 8.22266 11.3965 7.88086 10.957 7.88086C10.752 7.88086 10.5469 7.95898 10.4102 8.0957L9.01367 9.45312L6.04492 12.7441L6.55273 12.9199L6.65039 10.5176L6.65039 0.78125C6.65039 0.322266 6.31836 0 5.85938 0Z" fill="currentColor"/>
 </g>
</svg>
