<svg version="1.1" xmlns="http://www.w3.org/2000/svg" xmlns:xlink="http://www.w3.org/1999/xlink" width="14.5898" height="14.2285" viewBox="0 0 14.5898 14.2285">
 <g>
  <rect height="14.2285" opacity="0" width="14.5898" x="0" y="0"/>
  <path d="M2.49023 14.2285L11.7383 14.2285C13.4082 14.2285 14.2285 13.418 14.2285 11.7773L14.2285 2.45117C14.2285 0.810547 13.4082 0 11.7383 0L2.49023 0C0.830078 0 0 0.810547 0 2.45117L0 11.7773C0 13.418 0.830078 14.2285 2.49023 14.2285ZM2.50977 12.8223C1.80664 12.8223 1.40625 12.4414 1.40625 11.6992L1.40625 2.5293C1.40625 1.78711 1.80664 1.40625 2.50977 1.40625L11.7188 1.40625C12.4219 1.40625 12.8223 1.78711 12.8223 2.5293L12.8223 11.6992C12.8223 12.4414 12.4219 12.8223 11.7188 12.8223Z" fill="var(--color-primary)"/>
  <path d="M6.05469 11.1426C7.94922 11.1426 9.0918 9.77539 9.0918 7.95898L9.0918 5.84961L9.0625 4.92188L9.58008 5.57617L10.1855 6.21094C10.2832 6.32812 10.4492 6.40625 10.625 6.40625C10.9863 6.40625 11.2598 6.13281 11.2598 5.78125C11.2598 5.60547 11.2012 5.45898 11.0645 5.3418L9.00391 3.31055C8.86719 3.16406 8.68164 3.07617 8.48633 3.07617C8.29102 3.07617 8.11523 3.16406 7.97852 3.31055L5.88867 5.35156C5.76172 5.46875 5.70312 5.61523 5.70312 5.79102C5.70312 6.13281 5.97656 6.40625 6.33789 6.40625C6.49414 6.40625 6.66992 6.34766 6.77734 6.2207L7.57812 5.38086L7.91016 4.92188L7.87109 5.84961L7.87109 7.95898C7.87109 9.02344 7.27539 9.86328 6.12305 9.86328C4.93164 9.86328 4.21875 9.05273 4.21875 7.94922C4.21875 7.89062 4.21875 6.95312 4.21875 6.92383C4.21875 6.5625 3.99414 6.26953 3.59375 6.26953C3.19336 6.26953 2.97852 6.5625 2.97852 6.94336C2.97852 6.98242 2.97852 7.89062 2.97852 7.94922C2.97852 9.76562 4.15039 11.1426 6.05469 11.1426Z" fill="var(--color-primary)"/>
 </g>
</svg>
