<?xml version="1.0" encoding="UTF-8"?>
<!--Generator: Apple Native CoreSVG 232.5-->
<!DOCTYPE svg
PUBLIC "-//W3C//DTD SVG 1.1//EN"
       "http://www.w3.org/Graphics/SVG/1.1/DTD/svg11.dtd">
<svg version="1.1" xmlns="http://www.w3.org/2000/svg" xmlns:xlink="http://www.w3.org/1999/xlink" width="19.3457" height="15.2441">
 <g>
  <rect height="15.2441" opacity="0" width="19.3457" x="0" y="0"/>
  <path d="M2.49023 14.7461L16.4941 14.7461C18.1543 14.7461 18.9844 13.9258 18.9844 12.2852L18.9844 4.29688C18.9844 2.65625 18.1543 1.8457 16.4941 1.8457L14.3359 1.8457C13.7402 1.8457 13.5547 1.69922 13.2227 1.33789L12.627 0.664062C12.2461 0.253906 11.8359 0 11.0352 0L7.93945 0C7.12891 0 6.71875 0.253906 6.34766 0.664062L5.74219 1.33789C5.41992 1.69922 5.22461 1.8457 4.63867 1.8457L2.49023 1.8457C0.830078 1.8457 0 2.65625 0 4.29688L0 12.2852C0 13.9258 0.830078 14.7461 2.49023 14.7461Z" fill="#ffffff" fill-opacity="0.25"/>
  <path d="M4.10156 7.86133L5.38086 6.09375C5.61523 5.77148 5.99609 5.80078 6.21094 6.09375L7.50977 7.86133C7.73438 8.16406 7.63672 8.55469 7.23633 8.55469L6.46484 8.55469C6.81641 9.82422 8.04688 10.791 9.51172 10.791C10.2344 10.791 10.7324 10.5762 11.2207 10.2051C11.5527 9.96094 11.9629 9.91211 12.2656 10.2441C12.5684 10.5762 12.4609 11.0352 12.0508 11.3477C11.3965 11.8555 10.459 12.168 9.51172 12.168C7.28516 12.168 5.53711 10.6836 5.15625 8.55469L4.36523 8.55469C3.96484 8.55469 3.88672 8.16406 4.10156 7.86133ZM6.74805 5.36133C6.43555 5.03906 6.54297 4.58984 6.96289 4.26758C7.60742 3.75 8.55469 3.44727 9.49219 3.44727C11.7188 3.44727 13.4668 4.92188 13.8574 7.06055L14.5898 7.06055C14.9805 7.06055 15.0684 7.44141 14.8535 7.74414L13.5645 9.52148C13.3398 9.83398 12.959 9.81445 12.7441 9.52148L11.4453 7.74414C11.2207 7.44141 11.3184 7.06055 11.709 7.06055L12.5488 7.06055C12.1875 5.79102 10.957 4.81445 9.49219 4.81445C8.76953 4.81445 8.27148 5.0293 7.79297 5.40039C7.45117 5.64453 7.06055 5.69336 6.74805 5.36133Z" fill="#ffffff" fill-opacity="0.85"/>
 </g>
</svg>
