<svg version="1.1" xmlns="http://www.w3.org/2000/svg" xmlns:xlink="http://www.w3.org/1999/xlink" width="14.5898" height="14.248" viewBox="0 0 14.5898 14.248">
 <g>
  <rect height="14.248" opacity="0" width="14.5898" x="0" y="0"/>
  <path d="M2.49023 14.248L11.7383 14.248C13.4082 14.248 14.2285 13.4277 14.2285 11.7871L14.2285 2.4707C14.2285 0.830078 13.4082 0.00976562 11.7383 0.00976562L2.49023 0.00976562C0.830078 0.00976562 0 0.830078 0 2.4707L0 11.7871C0 13.4277 0.830078 14.248 2.49023 14.248ZM2.50977 12.832C1.80664 12.832 1.40625 12.4609 1.40625 11.7188L1.40625 2.53906C1.40625 1.80664 1.80664 1.42578 2.50977 1.42578L11.7188 1.42578C12.4219 1.42578 12.8223 1.80664 12.8223 2.53906L12.8223 11.7188C12.8223 12.4609 12.4219 12.832 11.7188 12.832Z" fill="currentColor"/>
  <path d="M11.0547 7.10938C11.0547 6.92383 10.9766 6.77734 10.8008 6.60156L8.30078 4.08203C8.18359 3.97461 8.02734 3.91602 7.85156 3.91602C7.49023 3.91602 7.2168 4.18945 7.2168 4.54102C7.2168 4.73633 7.29492 4.89258 7.41211 5.00977L8.21289 5.81055L9.12109 6.52344L7.38281 6.46484L3.81836 6.46484C3.44727 6.46484 3.17383 6.72852 3.17383 7.10938C3.17383 7.49023 3.44727 7.75391 3.81836 7.75391L7.38281 7.75391L9.13086 7.69531L8.21289 8.41797L7.41211 9.20898C7.28516 9.32617 7.2168 9.48242 7.2168 9.67773C7.2168 10.0293 7.49023 10.3125 7.85156 10.3125C8.02734 10.3125 8.18359 10.2441 8.30078 10.1367L10.8008 7.62695C10.9668 7.46094 11.0547 7.30469 11.0547 7.10938Z" fill="currentColor"/>
 </g>
</svg>
