<?xml version="1.0" encoding="UTF-8"?>
<!--Generator: Apple Native CoreSVG 232.5-->
<!DOCTYPE svg
PUBLIC "-//W3C//DTD SVG 1.1//EN"
       "http://www.w3.org/Graphics/SVG/1.1/DTD/svg11.dtd">
<svg version="1.1" xmlns="http://www.w3.org/2000/svg" xmlns:xlink="http://www.w3.org/1999/xlink" width="16.1328" height="15.7715">
 <g>
  <rect height="15.7715" opacity="0" width="16.1328" x="0" y="0"/>
  <path d="M15.7715 7.88086C15.7715 12.1875 12.1875 15.7617 7.88086 15.7617C3.58398 15.7617 0 12.1875 0 7.88086C0 3.57422 3.57422 0 7.87109 0C12.1777 0 15.7715 3.57422 15.7715 7.88086ZM7.14844 4.42383L7.23633 6.81641L5.12695 5.46875C5.00977 5.39062 4.85352 5.3418 4.66797 5.3418C4.30664 5.3418 3.95508 5.625 3.95508 6.09375C3.95508 6.38672 4.0918 6.5918 4.38477 6.75781L6.5918 7.93945L4.38477 9.16016C4.0918 9.31641 3.95508 9.51172 3.95508 9.81445C3.95508 10.2832 4.30664 10.5664 4.66797 10.5664C4.84375 10.5664 5.00977 10.5176 5.12695 10.4297L7.23633 9.0625L7.14844 11.3574C7.13867 11.8262 7.43164 12.1289 7.91016 12.1289C8.37891 12.1289 8.64258 11.8457 8.63281 11.3574L8.55469 9.0625L10.6348 10.4395C10.7617 10.5176 10.918 10.5664 11.1035 10.5664C11.4648 10.5664 11.8164 10.2832 11.8164 9.81445C11.8164 9.51172 11.6699 9.31641 11.377 9.16016L9.16992 7.93945L11.377 6.75781C11.6699 6.58203 11.8164 6.37695 11.8164 6.08398C11.8164 5.61523 11.4648 5.33203 11.1035 5.33203C10.918 5.33203 10.7617 5.38086 10.6348 5.46875L8.55469 6.81641L8.63281 4.42383C8.64258 3.92578 8.37891 3.64258 7.91016 3.64258C7.43164 3.64258 7.13867 3.94531 7.14844 4.42383Z" fill="#ffffff" fill-opacity="0.85"/>
 </g>
</svg>
