<?xml version="1.0" encoding="UTF-8"?>
<!--Generator: Apple Native CoreSVG 232.5-->
<!DOCTYPE svg
PUBLIC "-//W3C//DTD SVG 1.1//EN"
       "http://www.w3.org/Graphics/SVG/1.1/DTD/svg11.dtd">
<svg version="1.1" xmlns="http://www.w3.org/2000/svg" xmlns:xlink="http://www.w3.org/1999/xlink" width="22.0508" height="16.6309">
 <g>
  <rect height="16.6309" opacity="0" width="22.0508" x="0" y="0"/>
  <path d="M0.810547 15.2344C1.21094 15.2344 1.45508 15.0488 1.61133 14.6094L2.83203 11.1719L8.27148 11.1719L9.48242 14.6094C9.64844 15.0488 9.88281 15.2344 10.293 15.2344C10.7617 15.2344 11.1035 14.9414 11.1035 14.5215C11.1035 14.3945 11.084 14.2676 11.0059 14.0527L6.5918 2.16797C6.39648 1.63086 6.06445 1.38672 5.57617 1.38672C5.0293 1.38672 4.69727 1.64062 4.50195 2.17773L0.0976562 14.0527C0.0195312 14.2676 0 14.3945 0 14.5215C0 14.9414 0.341797 15.2344 0.810547 15.2344ZM3.31055 9.78516L5.52734 3.49609L5.58594 3.49609L7.79297 9.78516ZM17.0605 16.6309C17.373 16.6309 17.5977 16.4062 17.5977 16.0742L17.5977 14.8438C19.8438 14.6875 21.6895 13.4375 21.6895 11.1914C21.6895 9.21875 20.3418 8.21289 17.9199 7.63672L17.5977 7.56836L17.5977 3.19336C18.7598 3.33008 19.5312 3.97461 19.9316 5.08789C20.0586 5.47852 20.3125 5.73242 20.752 5.73242C21.1816 5.73242 21.4941 5.43945 21.4941 5.00977C21.4941 4.86328 21.4746 4.72656 21.4355 4.58008C21.0059 2.98828 19.4922 1.92383 17.5977 1.76758L17.5977 0.556641C17.5977 0.224609 17.373 0 17.0605 0C16.7383 0 16.5137 0.224609 16.5137 0.556641L16.5137 1.77734C14.2676 1.97266 12.6758 3.31055 12.6758 5.32227C12.6758 7.16797 13.8965 8.35938 16.2695 8.78906L16.5137 8.82812L16.5137 13.4277C15.0293 13.2715 14.2676 12.5098 13.9551 11.4941C13.7988 11.0547 13.5254 10.8398 13.1445 10.8398C12.7148 10.8398 12.4023 11.1523 12.4023 11.582C12.4023 11.7285 12.4219 11.8652 12.4609 12.002C12.9004 13.6816 14.5605 14.6875 16.5137 14.834L16.5137 16.0742C16.5137 16.4062 16.7383 16.6309 17.0605 16.6309ZM16.5137 7.29492L16.4062 7.26562C14.8145 6.9043 14.2383 6.15234 14.2383 5.21484C14.2383 4.25781 15.0391 3.37891 16.5137 3.20312ZM17.5977 9.0918L17.6758 9.11133C19.5801 9.57031 20.1074 10.2539 20.1074 11.3184C20.1074 12.4316 19.3945 13.3008 17.5977 13.4277Z" fill="#ffffff" fill-opacity="0.85"/>
 </g>
</svg>
