<svg version="1.1" xmlns="http://www.w3.org/2000/svg" xmlns:xlink="http://www.w3.org/1999/xlink" width="14.5898" height="14.248" viewBox="0 0 14.5898 14.248">
 <g>
  <rect height="14.248" opacity="0" width="14.5898" x="0" y="0"/>
  <path d="M14.2285 2.4707L14.2285 11.7871C14.2285 13.4277 13.4082 14.248 11.7383 14.248L2.49023 14.248C0.830078 14.248 0 13.4277 0 11.7871L0 2.4707C0 0.830078 0.830078 0.00976562 2.49023 0.00976562L11.7383 0.00976562C13.4082 0.00976562 14.2285 0.830078 14.2285 2.4707ZM6.40625 3.67188L5.36133 6.86523L4.17969 6.86523C3.92578 6.86523 3.75977 7.06055 3.75977 7.30469C3.75977 7.54883 3.92578 7.73438 4.17969 7.73438L5.07812 7.73438L4.87305 8.37891L4.17969 8.37891C3.92578 8.37891 3.75977 8.57422 3.75977 8.81836C3.75977 9.0625 3.92578 9.23828 4.17969 9.23828L4.59961 9.23828L4.24805 10.3027C4.19922 10.4395 4.18945 10.5273 4.18945 10.5957C4.18945 10.8984 4.43359 11.1328 4.77539 11.1328C5.05859 11.1328 5.25391 10.9863 5.3418 10.6836L5.78125 9.23828L8.42773 9.23828L8.86719 10.6934C8.95508 10.9961 9.14062 11.1328 9.43359 11.1328C9.78516 11.1328 10.0195 10.8984 10.0195 10.5957C10.0195 10.5273 9.99023 10.4395 9.95117 10.3027L9.60938 9.23828L10.0391 9.23828C10.3027 9.23828 10.459 9.0625 10.459 8.81836C10.459 8.57422 10.3027 8.37891 10.0391 8.37891L9.33594 8.37891L9.12109 7.73438L10.0391 7.73438C10.3027 7.73438 10.459 7.54883 10.459 7.30469C10.459 7.06055 10.3027 6.86523 10.0391 6.86523L8.83789 6.86523L7.80273 3.67188C7.68555 3.35938 7.4707 3.14453 7.10938 3.14453C6.71875 3.14453 6.51367 3.34961 6.40625 3.67188ZM8.17383 8.37891L6.03516 8.37891L6.24023 7.73438L7.97852 7.73438ZM7.71484 6.86523L6.49414 6.86523L7.10938 4.83398Z" fill="currentColor"/>
 </g>
</svg>
