<?xml version="1.0" encoding="UTF-8"?>
<!--Generator: Apple Native CoreSVG 232.5-->
<!DOCTYPE svg
PUBLIC "-//W3C//DTD SVG 1.1//EN"
       "http://www.w3.org/Graphics/SVG/1.1/DTD/svg11.dtd">
<svg version="1.1" xmlns="http://www.w3.org/2000/svg" xmlns:xlink="http://www.w3.org/1999/xlink" width="16.2563" height="15.9051">
 <g>
  <rect height="15.9051" opacity="0" width="16.2563" x="0" y="0"/>
  <path d="M1.17501 14.7152C2.78634 16.3363 4.96407 16.2777 6.80978 14.598L8.05001 13.4457C7.35665 13.5824 6.68282 13.4262 5.89181 12.6352L3.17696 9.92031C2.38595 9.1293 2.31759 8.54336 2.44454 7.84023L1.30196 9.09023C-0.397256 10.9359-0.426553 13.0941 1.17501 14.7152ZM6.74142 11.8441C7.5129 12.6156 8.24532 12.6352 9.03634 11.8441L11.8488 9.0414C12.6399 8.24062 12.6203 7.5082 11.8586 6.73672L9.15353 4.0414C8.38204 3.26992 7.64962 3.25039 6.8586 4.05117L4.0461 6.8539C3.25509 7.64492 3.27462 8.38711 4.0461 9.15859ZM5.80392 8.475C5.50118 8.18203 5.50118 7.71328 5.80392 7.42031C6.10665 7.11758 6.56563 7.12734 6.86837 7.43008C7.14181 7.70351 7.15157 8.18203 6.86837 8.46523C6.55587 8.77773 6.09688 8.76797 5.80392 8.475ZM7.42501 6.86367C7.12228 6.5707 7.12228 6.09219 7.41524 5.80898C7.71798 5.50625 8.17696 5.50625 8.4797 5.80898C8.7629 6.09219 8.77267 6.56094 8.46993 6.86367C8.18673 7.14687 7.70821 7.14687 7.42501 6.86367ZM10.091 8.475C9.79806 8.76797 9.32931 8.76797 9.02657 8.46523C8.74337 8.1918 8.74337 7.70351 9.02657 7.43008C9.33907 7.11758 9.79806 7.12734 10.091 7.42031C10.384 7.71328 10.384 8.18203 10.091 8.475ZM7.41524 10.0863C7.12228 9.80312 7.11251 9.33437 7.42501 9.03164C7.71798 8.73867 8.18673 8.74844 8.46993 9.03164C8.7629 9.32461 8.77267 9.80312 8.4797 10.0863C8.1672 10.3891 7.71798 10.3891 7.41524 10.0863ZM13.4504 8.05508L14.593 6.81484C16.2824 4.95937 16.3215 2.80117 14.7102 1.18008C13.1086-0.441017 10.9309-0.382423 9.08517 1.29726L7.83517 2.43984C8.53829 2.31289 9.22188 2.4789 10.0031 3.26992L12.7277 5.98476C13.509 6.77578 13.5774 7.36172 13.4504 8.05508Z" fill="#ffffff" fill-opacity="0.85"/>
 </g>
</svg>
