<svg version="1.1" xmlns="http://www.w3.org/2000/svg" xmlns:xlink="http://www.w3.org/1999/xlink" width="16.1328" height="15.7715" viewBox="0 0 16.1328 15.7715">
 <g>
  <rect height="15.7715" opacity="0" width="16.1328" x="0" y="0"/>
  <path d="M7.88086 15.7617C12.1875 15.7617 15.7715 12.1875 15.7715 7.88086C15.7715 3.57422 12.1777 0 7.87109 0C3.57422 0 0 3.57422 0 7.88086C0 12.1875 3.58398 15.7617 7.88086 15.7617Z" fill="var(--color-tertiary)"/>
  <path d="M3.62305 7.88086C3.62305 7.48047 3.68164 7.08984 3.78906 6.71875C4.08203 6.79688 4.36523 6.89453 4.63867 7.04102L4.56055 7.17773C4.47266 7.32422 4.53125 7.5 4.66797 7.56836C4.80469 7.64648 4.9707 7.60742 5.05859 7.46094L5.14648 7.31445C5.27344 7.40234 5.40039 7.5 5.52734 7.59766L5.43945 7.67578C5.3418 7.7832 5.35156 7.95898 5.44922 8.06641C5.57617 8.17383 5.74219 8.18359 5.85938 8.07617L5.92773 8.00781C6.06445 8.14453 6.17188 8.30078 6.29883 8.44727L6.18164 8.51562C6.04492 8.59375 6.00586 8.78906 6.08398 8.90625C6.16211 9.05273 6.33789 9.0918 6.46484 9.02344L6.57227 8.94531C6.65039 9.12109 6.71875 9.28711 6.78711 9.45312L6.62109 9.49219C6.48438 9.54102 6.39648 9.70703 6.43555 9.86328C6.47461 10 6.62109 10.0977 6.77734 10.0586L6.93359 10.0195C6.96289 10.1953 6.98242 10.3613 6.99219 10.5273L6.8457 10.5273C6.67969 10.5273 6.5625 10.6738 6.5625 10.8301C6.5625 10.9766 6.67969 11.1133 6.8457 11.1133L6.99219 11.1133C6.96289 11.4258 6.9043 11.7188 6.81641 12.0117C5 11.5137 3.62305 9.84375 3.62305 7.88086ZM7.89062 12.1582C7.69531 12.1582 7.51953 12.1484 7.32422 12.1191C7.42188 11.7969 7.49023 11.4551 7.5293 11.123L7.72461 11.123C7.89062 11.123 8.00781 10.9863 8.00781 10.8301C8.00781 10.6836 7.89062 10.5371 7.73438 10.5371L7.53906 10.5371C7.5293 10.3223 7.5 10.0977 7.46094 9.88281L7.64648 9.83398C7.79297 9.79492 7.88086 9.61914 7.8418 9.47266C7.80273 9.33594 7.64648 9.22852 7.49023 9.26758L7.32422 9.32617C7.24609 9.11133 7.16797 8.88672 7.07031 8.68164L7.25586 8.57422C7.40234 8.48633 7.44141 8.31055 7.35352 8.18359C7.27539 8.04688 7.10938 7.97852 6.96289 8.06641L6.77734 8.17383C6.64062 7.96875 6.47461 7.79297 6.31836 7.60742L6.48438 7.44141C6.60156 7.33398 6.60156 7.1582 6.48438 7.05078C6.35742 6.94336 6.20117 6.93359 6.08398 7.04102L5.9082 7.20703C5.75195 7.08008 5.58594 6.95312 5.41016 6.8457L5.50781 6.68945C5.57617 6.55273 5.52734 6.36719 5.39062 6.30859C5.26367 6.2207 5.08789 6.25977 5 6.40625L4.91211 6.5625C4.60938 6.41602 4.28711 6.30859 3.95508 6.2207C4.60938 4.69727 6.14258 3.60352 7.88086 3.60352C8.05664 3.60352 8.23242 3.61328 8.41797 3.63281C8.32031 3.97461 8.25195 4.30664 8.22266 4.63867L8.05664 4.63867C7.89062 4.63867 7.76367 4.77539 7.76367 4.93164C7.76367 5.08789 7.88086 5.22461 8.03711 5.22461L8.22266 5.22461C8.23242 5.42969 8.25195 5.63477 8.30078 5.83984L8.05664 5.89844C7.89062 5.9375 7.82227 6.10352 7.86133 6.25C7.90039 6.39648 8.04688 6.49414 8.20312 6.44531L8.41797 6.39648C8.48633 6.62109 8.58398 6.8457 8.70117 7.07031L8.50586 7.17773C8.37891 7.24609 8.34961 7.41211 8.41797 7.55859C8.48633 7.69531 8.66211 7.74414 8.79883 7.66602L8.97461 7.55859C9.11133 7.75391 9.24805 7.93945 9.41406 8.11523L9.27734 8.24219C9.16992 8.35938 9.17969 8.52539 9.29688 8.63281C9.4043 8.73047 9.58984 8.75 9.6875 8.64258L9.82422 8.50586C9.99023 8.65234 10.1855 8.78906 10.3711 8.90625L10.2734 9.07227C10.1953 9.20898 10.2344 9.39453 10.3711 9.46289C10.5078 9.55078 10.6934 9.49219 10.7617 9.35547L10.8691 9.17969C11.1719 9.33594 11.4941 9.44336 11.8359 9.51172C11.1719 11.0645 9.64844 12.1582 7.89062 12.1582ZM12.168 7.88086C12.168 8.28125 12.1191 8.65234 12.002 9.01367C11.709 8.95508 11.416 8.85742 11.123 8.73047L11.2012 8.58398C11.2793 8.4375 11.2305 8.29102 11.0938 8.20312C10.9766 8.11523 10.791 8.18359 10.7129 8.32031L10.6348 8.44727C10.4883 8.34961 10.3516 8.24219 10.2051 8.125L10.3223 8.00781C10.4395 7.89062 10.4199 7.70508 10.3223 7.60742C10.1953 7.5 10.0488 7.48047 9.91211 7.60742L9.80469 7.72461C9.6875 7.57812 9.57031 7.43164 9.46289 7.28516L9.57031 7.2168C9.70703 7.13867 9.74609 6.98242 9.66797 6.83594C9.59961 6.69922 9.42383 6.65039 9.28711 6.72852L9.18945 6.78711C9.10156 6.60156 9.02344 6.42578 8.95508 6.25977L9.07227 6.2207C9.20898 6.18164 9.30664 6.02539 9.25781 5.87891C9.21875 5.72266 9.07227 5.63477 8.91602 5.67383L8.82812 5.69336C8.79883 5.53711 8.7793 5.38086 8.75977 5.23438L8.93555 5.23438C9.10156 5.23438 9.20898 5.09766 9.20898 4.93164C9.21875 4.78516 9.0918 4.64844 8.93555 4.64844L8.75977 4.64844C8.79883 4.33594 8.84766 4.0332 8.94531 3.74023C10.7715 4.22852 12.168 5.91797 12.168 7.88086Z" fill="var(--color-primary)"/>
 </g>
</svg>
