<?xml version="1.0" encoding="UTF-8"?>
<!--Generator: Apple Native CoreSVG 232.5-->
<!DOCTYPE svg
PUBLIC "-//W3C//DTD SVG 1.1//EN"
       "http://www.w3.org/Graphics/SVG/1.1/DTD/svg11.dtd">
<svg version="1.1" xmlns="http://www.w3.org/2000/svg" xmlns:xlink="http://www.w3.org/1999/xlink" width="16.1328" height="15.7715">
 <g>
  <rect height="15.7715" opacity="0" width="16.1328" x="0" y="0"/>
  <path d="M15.7715 7.89062C15.7715 12.1973 12.1875 15.7715 7.88086 15.7715C3.58398 15.7715 0 12.1973 0 7.89062C0 3.58398 3.57422 0.00976562 7.87109 0.00976562C12.1777 0.00976562 15.7715 3.58398 15.7715 7.89062ZM6.52344 11.4453C6.5625 12.0801 7.12891 12.6465 7.89062 12.6465C8.66211 12.6465 9.22852 12.0801 9.26758 11.4453ZM3.84766 3.85742C3.71094 4.00391 3.71094 4.26758 3.84766 4.4043L11.377 11.9238C11.5234 12.0703 11.7773 12.0703 11.9238 11.9238C12.0801 11.7676 12.0801 11.5234 11.9238 11.377L4.41406 3.85742C4.25781 3.70117 4.01367 3.70117 3.84766 3.85742ZM4.91211 7.77344C4.91211 8.1543 4.81445 8.67188 4.57031 8.93555C4.17969 9.33594 3.73047 9.72656 3.73047 10.166C3.73047 10.5078 4.00391 10.752 4.47266 10.752L9.36317 10.752L5.02803 6.42244C4.95101 6.82497 4.91478 7.27695 4.91211 7.77344ZM6.57227 4.26758C6.35406 4.35343 6.16042 4.46451 5.99012 4.6004L11.9294 10.5243C12.0153 10.4279 12.0605 10.305 12.0605 10.166C12.0605 9.72656 11.6113 9.32617 11.2109 8.93555C10.957 8.67188 10.8789 8.1543 10.8691 7.77344C10.8594 5.95703 10.4004 4.73633 9.21875 4.26758C9.01367 3.71094 8.56445 3.24219 7.89062 3.24219C7.22656 3.24219 6.76758 3.71094 6.57227 4.26758Z" fill="#ffffff" fill-opacity="0.85"/>
 </g>
</svg>
