<svg version="1.1" xmlns="http://www.w3.org/2000/svg" xmlns:xlink="http://www.w3.org/1999/xlink" width="14.5898" height="14.248" viewBox="0 0 14.5898 14.248">
 <g>
  <rect height="14.248" opacity="0" width="14.5898" x="0" y="0"/>
  <path d="M2.49023 14.248L11.7383 14.248C13.4082 14.248 14.2285 13.4277 14.2285 11.7871L14.2285 2.4707C14.2285 0.830078 13.4082 0.00976562 11.7383 0.00976562L2.49023 0.00976562C0.830078 0.00976562 0 0.830078 0 2.4707L0 11.7871C0 13.4277 0.830078 14.248 2.49023 14.248Z" fill="var(--color-tertiary)"/>
  <path d="M4.87305 10.2051L4.87305 4.28711C4.87305 3.87695 5.15625 3.59375 5.55664 3.59375L5.79102 3.59375L5.79102 3.02734C5.79102 2.79297 5.95703 2.61719 6.20117 2.61719C6.43555 2.61719 6.60156 2.79297 6.60156 3.02734L6.60156 3.59375L7.08984 3.59375L7.08984 3.02734C7.08984 2.79297 7.25586 2.61719 7.49023 2.61719C7.73438 2.61719 7.90039 2.79297 7.90039 3.02734L7.90039 3.63281C8.92578 3.80859 9.57031 4.50195 9.57031 5.46875C9.57031 6.12305 9.16992 6.73828 8.60352 7.01172C9.41406 7.25586 9.92188 7.91992 9.92188 8.78906C9.92188 9.95117 9.17969 10.7031 7.90039 10.8496L7.90039 11.4551C7.90039 11.6895 7.73438 11.8652 7.49023 11.8652C7.25586 11.8652 7.08984 11.6895 7.08984 11.4551L7.08984 10.8789L6.60156 10.8789L6.60156 11.4551C6.60156 11.6895 6.43555 11.8652 6.20117 11.8652C5.95703 11.8652 5.79102 11.6895 5.79102 11.4551L5.79102 10.8789L5.55664 10.8789C5.14648 10.8789 4.87305 10.6055 4.87305 10.2051ZM5.98633 9.88281L7.29492 9.87305C8.30078 9.86328 8.81836 9.49219 8.81836 8.75C8.81836 7.99805 8.28125 7.62695 7.20703 7.62695L5.98633 7.62695ZM5.98633 6.63086L6.96289 6.64062C7.94922 6.65039 8.4668 6.26953 8.4668 5.56641C8.4668 4.94141 8.02734 4.59961 7.22656 4.59961L5.98633 4.59961Z" fill="var(--color-primary)"/>
 </g>
</svg>
