<?xml version="1.0" encoding="UTF-8"?>
<!--Generator: Apple Native CoreSVG 232.5-->
<!DOCTYPE svg
PUBLIC "-//W3C//DTD SVG 1.1//EN"
       "http://www.w3.org/Graphics/SVG/1.1/DTD/svg11.dtd">
<svg version="1.1" xmlns="http://www.w3.org/2000/svg" xmlns:xlink="http://www.w3.org/1999/xlink" width="16.8945" height="15.6934">
 <g>
  <rect height="15.6934" opacity="0" width="16.8945" x="0" y="0"/>
  <path d="M2.56836 3.75977L14.1895 3.75977C14.5996 3.75977 14.8535 3.67188 15.0684 3.47656L15.6934 2.88086C15.918 2.65625 15.8496 2.1875 15.4297 2.1875L3.81836 2.1875C3.4082 2.1875 3.1543 2.27539 2.93945 2.4707L2.31445 3.06641C2.08984 3.29102 2.1582 3.75977 2.56836 3.75977ZM2.56836 7.68555L14.1895 7.68555C14.5996 7.68555 14.8535 7.60742 15.0684 7.40234L15.6934 6.80664C15.918 6.5918 15.8496 6.12305 15.4297 6.12305L3.81836 6.12305C3.4082 6.12305 3.1543 6.20117 2.93945 6.40625L2.31445 7.00195C2.08984 7.22656 2.1582 7.68555 2.56836 7.68555ZM2.56836 11.5918L14.1895 11.5918C14.5996 11.5918 14.8535 11.4941 15.0684 11.2988L15.6934 10.7031C15.918 10.4883 15.8496 10.0195 15.4297 10.0195L3.81836 10.0195C3.4082 10.0195 3.1543 10.0977 2.93945 10.3027L2.31445 10.8984C2.08984 11.123 2.1582 11.5918 2.56836 11.5918ZM2.56836 15.5176L14.1895 15.5176C14.5996 15.5176 14.8535 15.4199 15.0684 15.2148L15.6934 14.6289C15.918 14.4043 15.8496 13.9355 15.4297 13.9355L3.81836 13.9355C3.4082 13.9355 3.1543 14.0234 2.93945 14.2285L2.31445 14.8242C2.08984 15.0391 2.1582 15.5176 2.56836 15.5176Z" fill="#ffffff" fill-opacity="0.85"/>
  <path d="M0 0.703125C0 1.08398 0.322266 1.40625 0.703125 1.40625L15.8301 1.40625C16.2207 1.40625 16.5332 1.08398 16.5332 0.703125C16.5332 0.322266 16.2207 0 15.8301 0L0.703125 0C0.322266 0 0 0.322266 0 0.703125ZM0.703125 3.17383C1.01562 3.17383 1.2793 2.90039 1.2793 2.59766C1.2793 2.28516 1.01562 2.03125 0.703125 2.03125C0.390625 2.03125 0.136719 2.28516 0.136719 2.59766C0.136719 2.90039 0.390625 3.17383 0.703125 3.17383ZM0.703125 4.93164C1.01562 4.93164 1.2793 4.66797 1.2793 4.36523C1.2793 4.04297 1.01562 3.78906 0.703125 3.78906C0.390625 3.78906 0.136719 4.04297 0.136719 4.36523C0.136719 4.66797 0.390625 4.93164 0.703125 4.93164ZM0.703125 6.68945C1.01562 6.68945 1.2793 6.42578 1.2793 6.12305C1.2793 5.81055 1.01562 5.55664 0.703125 5.55664C0.390625 5.55664 0.136719 5.81055 0.136719 6.12305C0.136719 6.42578 0.390625 6.68945 0.703125 6.68945ZM0.703125 8.45703C1.01562 8.45703 1.2793 8.18359 1.2793 7.88086C1.2793 7.56836 1.01562 7.31445 0.703125 7.31445C0.390625 7.31445 0.136719 7.56836 0.136719 7.88086C0.136719 8.18359 0.390625 8.45703 0.703125 8.45703ZM0.703125 10.2148C1.01562 10.2148 1.2793 9.95117 1.2793 9.64844C1.2793 9.32617 1.01562 9.07227 0.703125 9.07227C0.390625 9.07227 0.136719 9.32617 0.136719 9.64844C0.136719 9.95117 0.390625 10.2148 0.703125 10.2148ZM0.703125 11.9727C1.01562 11.9727 1.2793 11.709 1.2793 11.4062C1.2793 11.0938 1.01562 10.8398 0.703125 10.8398C0.390625 10.8398 0.136719 11.0938 0.136719 11.4062C0.136719 11.709 0.390625 11.9727 0.703125 11.9727ZM0.703125 15.6836C1.08398 15.6836 1.40625 15.3613 1.40625 14.9805L1.40625 13.3008C1.40625 12.9199 1.09375 12.5977 0.703125 12.5977C0.322266 12.5977 0 12.9199 0 13.3008L0 14.9805C0 15.3613 0.322266 15.6836 0.703125 15.6836Z" fill="#ffffff" fill-opacity="0.55"/>
 </g>
</svg>
