<?xml version="1.0" encoding="UTF-8"?>
<!--Generator: Apple Native CoreSVG 232.5-->
<!DOCTYPE svg
PUBLIC "-//W3C//DTD SVG 1.1//EN"
       "http://www.w3.org/Graphics/SVG/1.1/DTD/svg11.dtd">
<svg version="1.1" xmlns="http://www.w3.org/2000/svg" xmlns:xlink="http://www.w3.org/1999/xlink" width="13.0273" height="15.498">
 <g>
  <rect height="15.498" opacity="0" width="13.0273" x="0" y="0"/>
  <path d="M6.98242 0.302734C7.75391 0.566406 10.918 1.69922 11.6992 2.03125C12.2949 2.28516 12.666 2.5293 12.666 3.31055L12.666 9.0918C12.666 11.9238 11.2305 13.1445 6.8457 15.3613C6.63086 15.4688 6.44531 15.498 6.33789 15.498C6.2207 15.498 6.03516 15.4785 5.83008 15.3613C1.52344 12.9883 0 11.9238 0 9.0918L0 3.31055C0 2.5293 0.371094 2.27539 0.966797 2.03125C1.74805 1.70898 4.90234 0.537109 5.68359 0.302734C5.88867 0.244141 6.11328 0.195312 6.33789 0.195312C6.55273 0.195312 6.77734 0.234375 6.98242 0.302734ZM7.30469 2.40234L3.02734 7.77344C2.93945 7.87109 2.89062 7.99805 2.89062 8.10547C2.89062 8.32031 3.05664 8.48633 3.28125 8.48633L5.92773 8.48633L4.52148 12.2559C4.30664 12.793 4.90234 13.0957 5.25391 12.6562L9.54102 7.28516C9.61914 7.1875 9.66797 7.06055 9.66797 6.95312C9.66797 6.73828 9.50195 6.58203 9.27734 6.58203L6.63086 6.58203L8.03711 2.80273C8.25195 2.26562 7.65625 1.96289 7.30469 2.40234Z" fill="#ffffff" fill-opacity="0.85"/>
 </g>
</svg>
