<?xml version="1.0" encoding="UTF-8"?>
<!--Generator: Apple Native CoreSVG 232.5-->
<!DOCTYPE svg
PUBLIC "-//W3C//DTD SVG 1.1//EN"
       "http://www.w3.org/Graphics/SVG/1.1/DTD/svg11.dtd">
<svg version="1.1" xmlns="http://www.w3.org/2000/svg" xmlns:xlink="http://www.w3.org/1999/xlink" width="16.1328" height="15.7715">
 <g>
  <rect height="15.7715" opacity="0" width="16.1328" x="0" y="0"/>
  <path d="M15.7715 7.89062C15.7715 12.1973 12.1875 15.7715 7.88086 15.7715C3.58398 15.7715 0 12.1973 0 7.89062C0 3.58398 3.57422 0.00976562 7.87109 0.00976562C12.1777 0.00976562 15.7715 3.58398 15.7715 7.89062ZM6.06445 12.5586C5.85938 13.1055 6.44531 13.3984 6.80664 12.959L8.91816 10.3075L7.45089 8.84216ZM3.84766 3.85742C3.71094 4.00391 3.71094 4.26758 3.84766 4.4043L11.377 11.9238C11.5234 12.0703 11.7773 12.0703 11.9238 11.9238C12.0801 11.7676 12.0801 11.5234 11.9238 11.377L4.41406 3.85742C4.25781 3.70117 4.01367 3.70117 3.84766 3.85742ZM4.57031 8.07617C4.48242 8.17383 4.43359 8.30078 4.43359 8.4082C4.43359 8.62305 4.60938 8.78906 4.82422 8.78906L7.39773 8.78906L5.50758 6.90137ZM8.28044 6.88477L10.155 8.75444L11.084 7.58789C11.1719 7.49023 11.2207 7.36328 11.2207 7.26562C11.2207 7.04102 11.0449 6.88477 10.8301 6.88477ZM8.84766 2.71484L6.74369 5.35201L8.20986 6.81437L9.58984 3.11523C9.79492 2.56836 9.20898 2.27539 8.84766 2.71484Z" fill="#ffffff" fill-opacity="0.85"/>
 </g>
</svg>
