<svg version="1.1" xmlns="http://www.w3.org/2000/svg" xmlns:xlink="http://www.w3.org/1999/xlink" width="16.1328" height="15.7715" viewBox="0 0 16.1328 15.7715">
 <g>
  <rect height="15.7715" opacity="0" width="16.1328" x="0" y="0"/>
  <path d="M7.88086 15.7715C12.1875 15.7715 15.7715 12.1973 15.7715 7.89062C15.7715 3.58398 12.1777 0.00976562 7.87109 0.00976562C3.57422 0.00976562 0 3.58398 0 7.89062C0 12.1973 3.58398 15.7715 7.88086 15.7715Z" fill="var(--color-tertiary)"/>
  <path d="M2.71484 9.32617L5.36133 5.88867C5.54688 5.6543 5.74219 5.54688 5.9375 5.54688C6.09375 5.54688 6.25977 5.61523 6.43555 5.71289L9.81445 7.51953L12.4414 6.12305C12.959 5.84961 13.4375 6.35742 13.0664 6.83594L10.3906 10.293C10.2051 10.5273 10.0098 10.6348 9.81445 10.6348C9.6582 10.6348 9.50195 10.5664 9.32617 10.4688L5.9375 8.66211L3.33984 10.0586C2.83203 10.3223 2.30469 9.85352 2.71484 9.32617Z" fill="var(--color-primary)"/>
 </g>
</svg>
