<svg version="1.1" xmlns="http://www.w3.org/2000/svg" xmlns:xlink="http://www.w3.org/1999/xlink" width="14.5898" height="14.4043" viewBox="0 0 14.5898 14.4043">
 <g>
  <rect height="14.4043" opacity="0" width="14.5898" x="0" y="0"/>
  <path d="M2.49023 14.4043L11.7383 14.4043C13.4082 14.4043 14.2285 13.5938 14.2285 11.9531L14.2285 2.62695C14.2285 0.986328 13.4082 0.175781 11.7383 0.175781L2.49023 0.175781C0.830078 0.175781 0 0.986328 0 2.62695L0 11.9531C0 13.5938 0.830078 14.4043 2.49023 14.4043ZM2.50977 12.998C1.80664 12.998 1.40625 12.6172 1.40625 11.875L1.40625 2.70508C1.40625 1.96289 1.80664 1.58203 2.50977 1.58203L11.7188 1.58203C12.4219 1.58203 12.8223 1.96289 12.8223 2.70508L12.8223 11.875C12.8223 12.6172 12.4219 12.998 11.7188 12.998Z" fill="var(--color-primary)"/>
  <path d="M4.87305 11.3379C5.08789 11.3379 5.21484 11.2109 5.61523 10.8203L7.08008 9.39453C7.09961 9.375 7.13867 9.375 7.1582 9.39453L8.61328 10.8203C9.01367 11.2109 9.14062 11.3379 9.35547 11.3379C9.63867 11.3379 9.80469 11.1426 9.80469 10.8105L9.80469 4.4043C9.80469 3.63281 9.41406 3.24219 8.65234 3.24219L5.57617 3.24219C4.81445 3.24219 4.42383 3.63281 4.42383 4.4043L4.42383 10.8105C4.42383 11.1426 4.59961 11.3379 4.87305 11.3379Z" fill="var(--color-primary)"/>
 </g>
</svg>
