<svg version="1.1" xmlns="http://www.w3.org/2000/svg" xmlns:xlink="http://www.w3.org/1999/xlink" width="16.1328" height="15.7715" viewBox="0 0 16.1328 15.7715">
 <g>
  <rect height="15.7715" opacity="0" width="16.1328" x="0" y="0"/>
  <path d="M7.88086 15.7715C12.1875 15.7715 15.7715 12.1973 15.7715 7.89062C15.7715 3.58398 12.1777 0.00976562 7.87109 0.00976562C3.57422 0.00976562 0 3.58398 0 7.89062C0 12.1973 3.58398 15.7715 7.88086 15.7715Z" fill="var(--color-tertiary)"/>
  <path d="M3.29102 11.3281L3.29102 5.15625C3.29102 4.87305 3.45703 4.7168 3.75 4.7168L4.47266 4.7168C4.74609 4.7168 4.91211 4.87305 4.91211 5.15625L4.91211 11.3281C4.91211 11.6016 4.74609 11.7578 4.47266 11.7578L3.75 11.7578C3.45703 11.7578 3.29102 11.6016 3.29102 11.3281ZM5.45898 11.3281L5.45898 6.40625C5.45898 6.12305 5.63477 5.94727 5.89844 5.94727L7.42188 5.94727C7.70508 5.94727 7.8418 6.12305 7.8418 6.40625L7.8418 11.3281C7.8418 11.6016 7.70508 11.7578 7.42188 11.7578L5.89844 11.7578C5.63477 11.7578 5.45898 11.6016 5.45898 11.3281ZM6.04492 10.6348C6.04492 10.791 6.14258 10.9082 6.28906 10.9082L7.03125 10.9082C7.1875 10.9082 7.29492 10.791 7.29492 10.6348C7.29492 10.498 7.1875 10.3809 7.03125 10.3809L6.28906 10.3809C6.14258 10.3809 6.04492 10.498 6.04492 10.6348ZM6.04492 7.08984C6.04492 7.2168 6.14258 7.34375 6.28906 7.34375L7.03125 7.34375C7.1875 7.34375 7.29492 7.2168 7.29492 7.08984C7.29492 6.93359 7.1875 6.83594 7.03125 6.83594L6.28906 6.83594C6.14258 6.83594 6.04492 6.93359 6.04492 7.08984ZM8.41797 11.3281L8.41797 4.11133C8.41797 3.82812 8.56445 3.67188 8.85742 3.67188L9.79492 3.67188C10.0781 3.67188 10.2441 3.82812 10.2441 4.11133L10.2441 4.87305L10.8789 4.7168C11.1426 4.64844 11.3281 4.78516 11.3867 5.05859L12.666 11.0742C12.7148 11.3477 12.5879 11.543 12.3242 11.6016L11.709 11.7578C11.4453 11.8262 11.25 11.6895 11.2012 11.4258L10.2441 6.91406L10.2441 11.3281C10.2441 11.6016 10.0781 11.7578 9.79492 11.7578L8.85742 11.7578C8.56445 11.7578 8.41797 11.6016 8.41797 11.3281Z" fill="var(--color-primary)"/>
 </g>
</svg>
