<?xml version="1.0" encoding="UTF-8"?>
<!--Generator: Apple Native CoreSVG 232.5-->
<!DOCTYPE svg
PUBLIC "-//W3C//DTD SVG 1.1//EN"
       "http://www.w3.org/Graphics/SVG/1.1/DTD/svg11.dtd">
<svg version="1.1" xmlns="http://www.w3.org/2000/svg" xmlns:xlink="http://www.w3.org/1999/xlink" width="15.918" height="18.623">
 <g>
  <rect height="18.623" opacity="0" width="15.918" x="0" y="0"/>
  <path d="M8.96484 18.5547C11.875 18.5547 13.6523 17.5195 13.6523 15.7129L13.6523 11.9922C14.8535 10.918 15.5566 9.20898 15.5566 7.34375C15.5566 2.93945 12.6855 0 8.41797 0C4.16016 0 1.30859 2.88086 1.30859 7.17773C1.30859 7.41211 1.31836 7.60742 1.33789 7.79297L0.400391 9.46289C0.136719 9.94141 0 10.4199 0 10.8496C0 11.6602 0.488281 12.3242 1.30859 12.5684L1.30859 14.0234C1.30859 15.4883 2.36328 16.2012 3.67188 16.0547L5.35156 15.8887L4.35547 14.8242L4.35547 15.7129C4.35547 17.5098 6.09375 18.5547 8.96484 18.5547ZM8.96484 17.1484C6.9043 17.1484 5.68359 16.5137 5.68359 15.4688L5.68359 14.5605C5.68359 14.4629 5.63477 14.4141 5.54688 14.4238L3.47656 14.6582C2.98828 14.707 2.71484 14.5117 2.71484 13.9355L2.71484 11.5234C2.71484 11.4551 2.66602 11.4062 2.56836 11.4062L2.13867 11.4062C1.67969 11.4062 1.41602 11.1816 1.41602 10.8301C1.41602 10.6348 1.48438 10.4102 1.62109 10.166L2.79297 8.07617C2.74414 7.77344 2.71484 7.46094 2.71484 7.1582C2.71484 3.71094 4.99023 1.41602 8.41797 1.41602C11.8457 1.41602 14.1504 3.7793 14.1504 7.34375C14.1504 9.05273 13.4277 10.5566 12.2363 11.2988L12.2363 15.4688C12.2363 16.5137 11.0156 17.1484 8.96484 17.1484Z" fill="#ffffff" fill-opacity="0.85"/>
  <path d="M5.9082 8.24219C6.77734 8.24219 7.38281 7.65625 7.38281 6.83594C7.38281 6.54297 7.30469 6.32812 7.16797 6.18164C7.02148 6.04492 6.96289 5.89844 6.96289 5.80078C6.96289 5.58594 7.14844 5.42969 7.36328 5.42969C7.45117 5.42969 7.56836 5.44922 7.65625 5.53711C7.67578 5.55664 7.69531 5.58594 7.70508 5.60547C8.30078 5.53711 8.60352 5.19531 8.60352 4.63867C8.60352 4.42383 8.7793 4.23828 8.99414 4.23828C9.20898 4.23828 9.39453 4.43359 9.39453 4.63867C9.4043 5.52734 8.95508 6.08398 8.0957 6.2793C8.1543 6.45508 8.17383 6.65039 8.17383 6.8457C8.17383 7.58789 7.8125 8.19336 7.2168 8.53516C7.54883 8.69141 7.92969 8.76953 8.33984 8.76953C8.53516 8.76953 8.74023 8.75 8.94531 8.71094C8.90625 8.61328 8.89648 8.50586 8.89648 8.41797C8.89648 6.43555 11.7383 6.10352 11.7383 4.35547C11.7383 3.47656 11.0742 2.80273 10.2441 2.80273C9.92188 2.80273 9.86328 2.8125 9.79492 2.82227C9.47266 2.48047 9.01367 2.28516 8.62305 2.28516C7.91016 2.28516 7.42188 2.73438 7.42188 3.39844C7.42188 3.63281 7.25586 3.78906 7.02148 3.78906C6.78711 3.78906 6.62109 3.61328 6.63086 3.37891C6.63086 3.06641 6.72852 2.87109 6.78711 2.68555C6.66992 2.66602 6.55273 2.65625 6.44531 2.65625C5.52734 2.65625 4.81445 3.22266 4.81445 3.91602C4.81445 4.36523 5.11719 4.72656 5.51758 4.72656C5.74219 4.72656 5.91797 4.90234 5.91797 5.10742C5.91797 5.33203 5.73242 5.51758 5.51758 5.51758C4.90234 5.51758 4.42383 5.23438 4.18945 4.78516C3.96484 5.14648 3.83789 5.56641 3.83789 5.99609C3.83789 7.25586 4.64844 8.24219 5.9082 8.24219ZM11.582 10.2148C12.4023 10.2148 12.998 9.29688 12.998 8.05664C12.998 7.96875 12.998 7.87109 12.998 7.76367C12.6953 7.90039 12.334 7.95898 11.9238 7.92969C11.709 7.90039 11.543 7.73438 11.543 7.51953C11.543 7.30469 11.7285 7.10938 11.9434 7.12891C12.7441 7.19727 13.2715 6.75781 13.2715 6.04492C13.2715 5.39062 12.9688 4.84375 12.4512 4.50195C12.2168 6.63086 9.58984 6.91406 9.58984 8.38867C9.58984 8.78906 9.85352 9.07227 10.3125 9.07227L10.4199 9.07227C10.5469 9.74609 11.0156 10.2148 11.582 10.2148Z" fill="#ffffff" fill-opacity="0.85"/>
 </g>
</svg>
