<svg version="1.1" xmlns="http://www.w3.org/2000/svg" xmlns:xlink="http://www.w3.org/1999/xlink" width="15.918" height="18.623" viewBox="0 0 15.918 18.623">
 <g>
  <rect height="18.623" opacity="0" width="15.918" x="0" y="0"/>
  <path d="M8.96484 18.5547C11.875 18.5547 13.6523 17.5195 13.6523 15.7129L13.6523 11.9922C14.8535 10.918 15.5566 9.20898 15.5566 7.34375C15.5566 2.93945 12.6855 0 8.41797 0C4.16016 0 1.30859 2.88086 1.30859 7.17773C1.30859 7.41211 1.31836 7.60742 1.33789 7.79297L0.400391 9.46289C0.136719 9.94141 0 10.4199 0 10.8496C0 11.6602 0.488281 12.3242 1.30859 12.5684L1.30859 14.0234C1.30859 15.4883 2.36328 16.2012 3.67188 16.0547L4.375 15.9863L4.36523 15.957C4.51172 17.6074 6.23047 18.5547 8.96484 18.5547Z" fill="var(--color-tertiary)"/>
  <path d="M5.81055 8.32031C4.50195 8.32031 3.66211 7.29492 3.66211 5.98633C3.66211 5.53711 3.79883 5.10742 4.0332 4.72656C4.27734 5.19531 4.76562 5.48828 5.40039 5.48828C5.63477 5.48828 5.83008 5.29297 5.83008 5.07812C5.83008 4.84375 5.64453 4.6582 5.40039 4.6582C5 4.6582 4.67773 4.29688 4.67773 3.83789C4.67773 3.0957 5.41992 2.5293 6.36719 2.5293C6.49414 2.5293 6.60156 2.53906 6.72852 2.54883C6.66016 2.74414 6.57227 2.94922 6.5625 3.26172C6.55273 3.51562 6.71875 3.70117 6.97266 3.70117C7.2168 3.70117 7.38281 3.53516 7.38281 3.28125C7.38281 2.60742 7.89062 2.13867 8.62305 2.13867C9.0332 2.13867 9.51172 2.34375 9.85352 2.68555C9.91211 2.66602 9.99023 2.65625 10.3223 2.65625C11.1914 2.65625 11.8848 3.37891 11.8848 4.28711C11.8848 6.10352 8.91602 6.43555 8.91602 8.49609C8.91602 8.60352 8.93555 8.70117 8.97461 8.80859C8.75977 8.84766 8.53516 8.86719 8.33984 8.86719C7.91016 8.86719 7.51953 8.78906 7.16797 8.63281C7.80273 8.27148 8.16406 7.63672 8.16406 6.875C8.16406 6.66992 8.14453 6.46484 8.08594 6.2793C8.97461 6.08398 9.43359 5.49805 9.43359 4.58984C9.43359 4.36523 9.24805 4.16992 9.02344 4.16992C8.79883 4.16992 8.61328 4.35547 8.61328 4.58984C8.61328 5.15625 8.30078 5.50781 7.67578 5.57617C7.66602 5.55664 7.64648 5.53711 7.62695 5.52734C7.53906 5.42969 7.42188 5.40039 7.31445 5.40039C7.09961 5.40039 6.92383 5.55664 6.92383 5.78125C6.92383 5.88867 6.97266 6.04492 7.11914 6.18164C7.26562 6.32812 7.36328 6.5625 7.36328 6.85547C7.36328 7.71484 6.71875 8.32031 5.81055 8.32031ZM11.6992 10.3711C11.1133 10.3711 10.6348 9.88281 10.498 9.16992L10.3906 9.16992C9.90234 9.16992 9.63867 8.87695 9.63867 8.4668C9.63867 6.95312 12.3633 6.65039 12.6172 4.44336C13.1445 4.79492 13.4668 5.36133 13.4668 6.03516C13.4668 6.78711 12.9199 7.24609 12.0801 7.16797C11.8652 7.14844 11.6797 7.35352 11.6797 7.57812C11.6797 7.79297 11.8359 7.96875 12.0703 7.98828C12.4902 8.01758 12.8613 7.95898 13.1836 7.83203C13.1836 7.92969 13.1836 8.04688 13.1836 8.14453C13.1836 9.42383 12.5586 10.3711 11.6992 10.3711Z" fill="var(--color-primary)"/>
 </g>
</svg>
