<svg version="1.1" xmlns="http://www.w3.org/2000/svg" xmlns:xlink="http://www.w3.org/1999/xlink" width="24.4727" height="20.2246" viewBox="0 0 24.4727 20.2246">
 <g>
  <rect height="20.2246" opacity="0" width="24.4727" x="0" y="0"/>
  <path d="M17.707 3.85742L12.793 3.85742C9.76562 3.85742 8.02734 5.6543 8.02734 8.62305L8.02734 12.5293C8.02734 13.4971 8.21328 14.3415 8.57276 15.037L6.92383 16.5137C6.39648 16.9922 6.10352 17.2168 5.67383 17.2168C5.05859 17.2168 4.7168 16.7871 4.7168 16.123L4.7168 14.1699L4.43359 14.1699C2.03125 14.1699 0.771484 12.8809 0.771484 10.5078L0.771484 4.83398C0.771484 2.46094 2.03125 1.17188 4.43359 1.17188L14.1309 1.17188C16.1773 1.17188 17.3946 2.11435 17.707 3.85742Z" fill="var(--color-primary)"/>
  <path d="M12.793 16.1523L14.8438 16.1523L17.4512 18.3789C17.998 18.8477 18.2812 19.082 18.7109 19.082C19.3164 19.082 19.6582 18.6523 19.6582 17.9883L19.6582 16.1523L19.707 16.1523C22.0898 16.1523 23.3398 14.873 23.3398 12.5293L23.3398 8.62305C23.3398 6.2793 22.0898 5 19.707 5L12.793 5C10.4102 5 9.16992 6.2793 9.16992 8.62305L9.16992 12.5293C9.16992 14.873 10.4102 16.1523 12.793 16.1523Z" fill="var(--color-primary)"/>
 </g>
</svg>
