<svg version="1.1" xmlns="http://www.w3.org/2000/svg" xmlns:xlink="http://www.w3.org/1999/xlink" width="21.0742" height="18.7207" viewBox="0 0 21.0742 18.7207">
 <g>
  <rect height="18.7207" opacity="0" width="21.0742" x="0" y="0"/>
  <path d="M19.5703 6.15234L19.5703 16.1035C19.5703 16.9922 19.043 17.5781 18.2422 17.5781L13.8169 17.5781C14.0692 17.1616 14.209 16.6559 14.209 16.1035L14.209 4.67773L18.2422 4.67773C19.043 4.67773 19.5703 5.26367 19.5703 6.15234ZM16.2695 13.2715C16.084 13.2715 15.9766 13.3984 15.9766 13.5742L15.9766 14.7461C15.9766 14.9219 16.084 15.0391 16.2695 15.0391L17.4902 15.0391C17.666 15.0391 17.7734 14.9219 17.7734 14.7461L17.7734 13.5742C17.7734 13.3984 17.666 13.2715 17.4902 13.2715ZM16.2695 10.2539C16.084 10.2539 15.9766 10.3613 15.9766 10.5371L15.9766 11.7188C15.9766 11.8848 16.084 12.002 16.2695 12.002L17.4902 12.002C17.666 12.002 17.7734 11.8848 17.7734 11.7188L17.7734 10.5371C17.7734 10.3613 17.666 10.2539 17.4902 10.2539ZM16.2695 7.2168C16.084 7.2168 15.9766 7.33398 15.9766 7.50977L15.9766 8.68164C15.9766 8.85742 16.084 8.98438 16.2695 8.98438L17.4902 8.98438C17.666 8.98438 17.7734 8.85742 17.7734 8.68164L17.7734 7.50977C17.7734 7.33398 17.666 7.2168 17.4902 7.2168Z" fill="currentColor"/>
  <path d="M1.14258 16.1035C1.14258 16.9922 1.66992 17.5781 2.4707 17.5781L11.7383 17.5781C12.5391 17.5781 13.0664 16.9922 13.0664 16.1035L13.0664 2.61719C13.0664 1.73828 12.5391 1.14258 11.7383 1.14258L2.4707 1.14258C1.66992 1.14258 1.14258 1.73828 1.14258 2.61719ZM4.3457 16.1719L4.3457 13.6719C4.3457 13.3008 4.59961 13.0566 4.9707 13.0566L9.26758 13.0566C9.63867 13.0566 9.88281 13.3008 9.88281 13.6719L9.88281 16.1719ZM4.13086 5.27344L4.13086 3.84766C4.13086 3.64258 4.26758 3.49609 4.47266 3.49609L5.94727 3.49609C6.15234 3.49609 6.29883 3.64258 6.29883 3.84766L6.29883 5.27344C6.29883 5.48828 6.15234 5.63477 5.94727 5.63477L4.47266 5.63477C4.26758 5.63477 4.13086 5.48828 4.13086 5.27344ZM7.92969 5.27344L7.92969 3.84766C7.92969 3.64258 8.05664 3.49609 8.27148 3.49609L9.74609 3.49609C9.95117 3.49609 10.0977 3.64258 10.0977 3.84766L10.0977 5.27344C10.0977 5.48828 9.95117 5.63477 9.74609 5.63477L8.27148 5.63477C8.05664 5.63477 7.92969 5.48828 7.92969 5.27344ZM4.13086 8.33008L4.13086 6.91406C4.13086 6.69922 4.26758 6.55273 4.47266 6.55273L5.94727 6.55273C6.15234 6.55273 6.29883 6.69922 6.29883 6.91406L6.29883 8.33008C6.29883 8.54492 6.15234 8.69141 5.94727 8.69141L4.47266 8.69141C4.26758 8.69141 4.13086 8.54492 4.13086 8.33008ZM7.92969 8.33008L7.92969 6.91406C7.92969 6.69922 8.05664 6.55273 8.27148 6.55273L9.74609 6.55273C9.95117 6.55273 10.0977 6.69922 10.0977 6.91406L10.0977 8.33008C10.0977 8.54492 9.95117 8.69141 9.74609 8.69141L8.27148 8.69141C8.05664 8.69141 7.92969 8.54492 7.92969 8.33008ZM4.13086 11.3867L4.13086 9.9707C4.13086 9.75586 4.26758 9.60938 4.47266 9.60938L5.94727 9.60938C6.15234 9.60938 6.29883 9.75586 6.29883 9.9707L6.29883 11.3867C6.29883 11.6016 6.15234 11.748 5.94727 11.748L4.47266 11.748C4.26758 11.748 4.13086 11.6016 4.13086 11.3867ZM7.92969 11.3867L7.92969 9.9707C7.92969 9.75586 8.05664 9.60938 8.27148 9.60938L9.74609 9.60938C9.95117 9.60938 10.0977 9.75586 10.0977 9.9707L10.0977 11.3867C10.0977 11.6016 9.95117 11.748 9.74609 11.748L8.27148 11.748C8.05664 11.748 7.92969 11.6016 7.92969 11.3867Z" fill="currentColor"/>
 </g>
</svg>
