<?xml version="1.0" encoding="UTF-8"?>
<!--Generator: Apple Native CoreSVG 232.5-->
<!DOCTYPE svg
PUBLIC "-//W3C//DTD SVG 1.1//EN"
       "http://www.w3.org/Graphics/SVG/1.1/DTD/svg11.dtd">
<svg version="1.1" xmlns="http://www.w3.org/2000/svg" xmlns:xlink="http://www.w3.org/1999/xlink" width="16.1328" height="15.7715">
 <g>
  <rect height="15.7715" opacity="0" width="16.1328" x="0" y="0"/>
  <path d="M7.88086 15.7617C12.1875 15.7617 15.7715 12.1875 15.7715 7.88086C15.7715 3.57422 12.1777 0 7.87109 0C3.57422 0 0 3.57422 0 7.88086C0 12.1875 3.58398 15.7617 7.88086 15.7617Z" fill="#ffffff" fill-opacity="0.25"/>
  <path d="M3.75977 5.76172C3.75977 5.64453 3.82812 5.51758 3.99414 5.41992L7.37305 3.48633C7.53906 3.38867 7.69531 3.33984 7.87109 3.33984C8.04688 3.33984 8.21289 3.38867 8.38867 3.48633L11.7578 5.41992C11.9336 5.51758 12.002 5.64453 12.002 5.76172C12.002 5.95703 11.8555 6.14258 11.6113 6.14258L4.15039 6.14258C3.90625 6.14258 3.75977 5.95703 3.75977 5.76172ZM4.27734 10.1562L4.27734 10.0488C4.27734 9.88281 4.38477 9.76562 4.57031 9.76562L4.73633 9.76562L4.73633 7.32422L4.57031 7.32422C4.38477 7.32422 4.27734 7.2168 4.27734 7.04102L4.27734 6.93359C4.27734 6.74805 4.38477 6.65039 4.57031 6.65039L5.58594 6.65039C5.77148 6.65039 5.87891 6.74805 5.87891 6.93359L5.87891 7.04102C5.87891 7.2168 5.77148 7.32422 5.58594 7.32422L5.42969 7.32422L5.42969 9.76562L5.58594 9.76562C5.77148 9.76562 5.87891 9.88281 5.87891 10.0488L5.87891 10.1562C5.87891 10.3418 5.77148 10.4492 5.58594 10.4492L4.57031 10.4492C4.38477 10.4492 4.27734 10.3418 4.27734 10.1562ZM6.16211 10.1562L6.16211 10.0488C6.16211 9.88281 6.26953 9.76562 6.44531 9.76562L6.62109 9.76562L6.62109 7.32422L6.44531 7.32422C6.26953 7.32422 6.16211 7.2168 6.16211 7.04102L6.16211 6.93359C6.16211 6.74805 6.26953 6.65039 6.44531 6.65039L7.46094 6.65039C7.65625 6.65039 7.76367 6.74805 7.76367 6.93359L7.76367 7.04102C7.76367 7.2168 7.65625 7.32422 7.46094 7.32422L7.31445 7.32422L7.31445 9.76562L7.46094 9.76562C7.65625 9.76562 7.76367 9.88281 7.76367 10.0488L7.76367 10.1562C7.76367 10.3418 7.65625 10.4492 7.46094 10.4492L6.44531 10.4492C6.26953 10.4492 6.16211 10.3418 6.16211 10.1562ZM8.04688 10.1562L8.04688 10.0488C8.04688 9.88281 8.1543 9.76562 8.33984 9.76562L8.50586 9.76562L8.50586 7.32422L8.33984 7.32422C8.1543 7.32422 8.04688 7.2168 8.04688 7.04102L8.04688 6.93359C8.04688 6.74805 8.1543 6.65039 8.33984 6.65039L9.35547 6.65039C9.53125 6.65039 9.64844 6.74805 9.64844 6.93359L9.64844 7.04102C9.64844 7.2168 9.53125 7.32422 9.35547 7.32422L9.18945 7.32422L9.18945 9.76562L9.35547 9.76562C9.53125 9.76562 9.64844 9.88281 9.64844 10.0488L9.64844 10.1562C9.64844 10.3418 9.53125 10.4492 9.35547 10.4492L8.33984 10.4492C8.1543 10.4492 8.04688 10.3418 8.04688 10.1562ZM9.92188 10.1562L9.92188 10.0488C9.92188 9.88281 10.0293 9.76562 10.2246 9.76562L10.3906 9.76562L10.3906 7.32422L10.2246 7.32422C10.0293 7.32422 9.92188 7.2168 9.92188 7.04102L9.92188 6.93359C9.92188 6.74805 10.0293 6.65039 10.2246 6.65039L11.2305 6.65039C11.416 6.65039 11.5332 6.74805 11.5332 6.93359L11.5332 7.04102C11.5332 7.2168 11.416 7.32422 11.2305 7.32422L11.0742 7.32422L11.0742 9.76562L11.2305 9.76562C11.416 9.76562 11.5332 9.88281 11.5332 10.0488L11.5332 10.1562C11.5332 10.3418 11.416 10.4492 11.2305 10.4492L10.2246 10.4492C10.0293 10.4492 9.92188 10.3418 9.92188 10.1562ZM3.56445 11.3184C3.56445 11.1133 3.7207 10.9473 3.91602 10.9473L11.8457 10.9473C12.041 10.9473 12.1973 11.1133 12.1973 11.3184C12.1973 11.5137 12.041 11.6797 11.8457 11.6797L3.91602 11.6797C3.7207 11.6797 3.56445 11.5137 3.56445 11.3184Z" fill="#ffffff" fill-opacity="0.85"/>
 </g>
</svg>
