<?xml version="1.0" encoding="UTF-8"?>
<!--Generator: Apple Native CoreSVG 232.5-->
<!DOCTYPE svg
PUBLIC "-//W3C//DTD SVG 1.1//EN"
       "http://www.w3.org/Graphics/SVG/1.1/DTD/svg11.dtd">
<svg version="1.1" xmlns="http://www.w3.org/2000/svg" xmlns:xlink="http://www.w3.org/1999/xlink" width="18.7695" height="16.4355">
 <g>
  <rect height="16.4355" opacity="0" width="18.7695" x="0" y="0"/>
  <path d="M18.4082 5.00977L18.4082 14.9609C18.4082 15.8496 17.8906 16.4355 17.0801 16.4355L11.1719 16.4355C11.9517 16.4355 12.4722 15.8799 12.4974 15.0293L16.5918 15.0293C16.8652 15.0293 17.002 14.8926 17.002 14.6191L17.002 5.35156C17.002 5.07812 16.8652 4.94141 16.5918 4.94141L12.5 4.94141L12.5 3.53516L17.0801 3.53516C17.8906 3.53516 18.4082 4.12109 18.4082 5.00977ZM15.6152 12.334L15.6152 13.4766C15.6152 13.6426 15.498 13.75 15.3418 13.75L14.1602 13.75C13.9844 13.75 13.8867 13.6426 13.8867 13.4766L13.8867 12.334C13.8867 12.168 13.9844 12.0605 14.1602 12.0605L15.3418 12.0605C15.498 12.0605 15.6152 12.168 15.6152 12.334ZM15.6152 9.41406L15.6152 10.5566C15.6152 10.7227 15.498 10.8301 15.3418 10.8301L14.1602 10.8301C13.9844 10.8301 13.8867 10.7227 13.8867 10.5566L13.8867 9.41406C13.8867 9.24805 13.9844 9.14062 14.1602 9.14062L15.3418 9.14062C15.498 9.14062 15.6152 9.24805 15.6152 9.41406ZM15.6152 6.49414L15.6152 7.63672C15.6152 7.79297 15.498 7.91016 15.3418 7.91016L14.1602 7.91016C13.9844 7.91016 13.8867 7.79297 13.8867 7.63672L13.8867 6.49414C13.8867 6.32812 13.9844 6.2207 14.1602 6.2207L15.3418 6.2207C15.498 6.2207 15.6152 6.32812 15.6152 6.49414Z" fill="#ffffff" fill-opacity="0.55"/>
  <path d="M0 14.9609C0 15.8496 0.527344 16.4355 1.32812 16.4355L11.1719 16.4355C11.9727 16.4355 12.5 15.8496 12.5 14.9609L12.5 1.47461C12.5 0.595703 11.9727 0 11.1719 0L1.32812 0C0.527344 0 0 0.595703 0 1.47461ZM1.40625 14.6191L1.40625 1.81641C1.40625 1.54297 1.54297 1.40625 1.81641 1.40625L10.6738 1.40625C10.9473 1.40625 11.084 1.54297 11.084 1.81641L11.084 14.6191C11.084 14.8926 10.9473 15.0293 10.6738 15.0293L1.81641 15.0293C1.54297 15.0293 1.40625 14.8926 1.40625 14.6191ZM3.56445 15.6934L4.69727 15.6934L4.69727 13.0762C4.69727 12.9297 4.77539 12.8613 4.91211 12.8613L7.58789 12.8613C7.72461 12.8613 7.80273 12.9297 7.80273 13.0762L7.80273 15.6934L8.92578 15.6934L8.92578 12.7344C8.92578 12.0508 8.63281 11.7285 7.97852 11.7285L4.51172 11.7285C3.86719 11.7285 3.56445 12.0508 3.56445 12.7344ZM3.70117 4.6582L5.12695 4.6582C5.33203 4.6582 5.45898 4.52148 5.45898 4.31641L5.45898 2.93945C5.45898 2.74414 5.33203 2.60742 5.12695 2.60742L3.70117 2.60742C3.50586 2.60742 3.37891 2.74414 3.37891 2.93945L3.37891 4.31641C3.37891 4.52148 3.50586 4.6582 3.70117 4.6582ZM7.36328 4.6582L8.78906 4.6582C8.98438 4.6582 9.12109 4.52148 9.12109 4.31641L9.12109 2.93945C9.12109 2.74414 8.98438 2.60742 8.78906 2.60742L7.36328 2.60742C7.1582 2.60742 7.03125 2.74414 7.03125 2.93945L7.03125 4.31641C7.03125 4.52148 7.1582 4.6582 7.36328 4.6582ZM3.70117 7.59766L5.12695 7.59766C5.33203 7.59766 5.45898 7.4707 5.45898 7.26562L5.45898 5.88867C5.45898 5.68359 5.33203 5.55664 5.12695 5.55664L3.70117 5.55664C3.50586 5.55664 3.37891 5.68359 3.37891 5.88867L3.37891 7.26562C3.37891 7.4707 3.50586 7.59766 3.70117 7.59766ZM7.36328 7.59766L8.78906 7.59766C8.98438 7.59766 9.12109 7.4707 9.12109 7.26562L9.12109 5.88867C9.12109 5.68359 8.98438 5.55664 8.78906 5.55664L7.36328 5.55664C7.1582 5.55664 7.03125 5.68359 7.03125 5.88867L7.03125 7.26562C7.03125 7.4707 7.1582 7.59766 7.36328 7.59766ZM3.70117 10.5469L5.12695 10.5469C5.33203 10.5469 5.45898 10.4102 5.45898 10.2148L5.45898 8.83789C5.45898 8.63281 5.33203 8.49609 5.12695 8.49609L3.70117 8.49609C3.50586 8.49609 3.37891 8.63281 3.37891 8.83789L3.37891 10.2148C3.37891 10.4102 3.50586 10.5469 3.70117 10.5469ZM7.36328 10.5469L8.78906 10.5469C8.98438 10.5469 9.12109 10.4102 9.12109 10.2148L9.12109 8.83789C9.12109 8.63281 8.98438 8.49609 8.78906 8.49609L7.36328 8.49609C7.1582 8.49609 7.03125 8.63281 7.03125 8.83789L7.03125 10.2148C7.03125 10.4102 7.1582 10.5469 7.36328 10.5469Z" fill="#ffffff" fill-opacity="0.85"/>
 </g>
</svg>
