<?xml version="1.0" encoding="UTF-8"?>
<!--Generator: Apple Native CoreSVG 232.5-->
<!DOCTYPE svg
PUBLIC "-//W3C//DTD SVG 1.1//EN"
       "http://www.w3.org/Graphics/SVG/1.1/DTD/svg11.dtd">
<svg version="1.1" xmlns="http://www.w3.org/2000/svg" xmlns:xlink="http://www.w3.org/1999/xlink" width="19.4629" height="18.1348">
 <g>
  <rect height="18.1348" opacity="0" width="19.4629" x="0" y="0"/>
  <path d="M18.3984 9.78516C18.8672 9.55078 19.1016 9.21875 19.1016 8.88672C19.1016 8.55469 18.8672 8.25195 18.3984 8.08594L14.9219 6.88477L16.4062 3.84766C16.4941 3.67188 16.5234 3.50586 16.5234 3.34961C16.5234 2.87109 16.1719 2.5293 15.7031 2.5293C15.5566 2.5293 15.3809 2.55859 15.2051 2.64648L12.0508 4.18945L10.4004 0.664062C10.2051 0.224609 9.87305 0 9.55078 0C9.22852 0 8.90625 0.224609 8.70117 0.664062L7.05078 4.18945L3.89648 2.64648C3.7207 2.55859 3.55469 2.5293 3.39844 2.5293C2.92969 2.5293 2.57812 2.87109 2.57812 3.34961C2.57812 3.50586 2.60742 3.67188 2.69531 3.84766L4.17969 6.88477L0.703125 8.08594C0.244141 8.24219 0 8.56445 0 8.89648C0 9.21875 0.234375 9.55078 0.703125 9.78516L4.04297 11.3867L2.23633 15.2148C2.13867 15.4102 2.09961 15.5859 2.09961 15.752C2.09961 16.1816 2.38281 16.4844 2.79297 16.4844C2.94922 16.4844 3.13477 16.4258 3.33008 16.3086L7.60742 13.7793L8.76953 17.3828C8.92578 17.8418 9.23828 18.0664 9.55078 18.0664C9.87305 18.0664 10.1758 17.8418 10.332 17.3828L11.5039 13.7793L15.7812 16.3086C15.9668 16.4258 16.1523 16.4746 16.3184 16.4746C16.709 16.4746 17.0117 16.1914 17.0117 15.7617C17.0117 15.5957 16.9629 15.4102 16.875 15.2148L15.0586 11.3867Z" fill="#ffffff" fill-opacity="0.85"/>
 </g>
</svg>
