<svg version="1.1" xmlns="http://www.w3.org/2000/svg" xmlns:xlink="http://www.w3.org/1999/xlink" width="14.1504" height="16.5137" viewBox="0 0 14.1504 16.5137">
 <g>
  <rect height="16.5137" opacity="0" width="14.1504" x="0" y="0"/>
  <path d="M4.63867 16.5039L11.3672 16.5039C12.8711 16.5039 13.7793 15.6055 13.7793 14.1211L13.7891 2.40234C13.7891 0.986328 12.8125 0 11.3965 0L9.04297 0C7.83203 0 6.79688 0.322266 5.83984 1.20117L1.00586 5.64453C0.341797 6.25977 0 7.12891 0 8.19336L0 11.8652C0 14.6777 1.82617 16.5039 4.63867 16.5039ZM4.66797 15.0977C2.56836 15.0977 1.40625 13.9453 1.40625 11.8457L1.40625 8.21289C1.40625 7.4707 1.58203 7.04102 1.98242 6.66016L6.80664 2.23633C7.4707 1.63086 8.14453 1.40625 9.07227 1.40625L11.3672 1.40625C11.9629 1.40625 12.3828 1.82617 12.3828 2.42188L12.373 14.1016C12.373 14.873 12.0996 15.0977 11.3379 15.0977Z" fill="var(--color-primary)"/>
 </g>
</svg>
