<svg version="1.1" xmlns="http://www.w3.org/2000/svg" xmlns:xlink="http://www.w3.org/1999/xlink" width="21.8164" height="20.752" viewBox="0 0 21.8164 20.752">
 <g>
  <rect height="20.752" opacity="0" width="21.8164" x="0" y="0"/>
  <path d="M20.293 15.0293C20.293 17.3926 18.4375 18.8184 16.0059 18.8184L5.44922 18.8184C3.02133 18.8184 1.18731 17.397 1.18216 15.04C2.16417 16.1506 3.68636 16.7871 5.44922 16.7871L16.0059 16.7871C17.7809 16.7871 19.3119 16.1418 20.2923 15.0162Z" fill="currentColor"/>
  <path d="M20.3125 11.7871C20.3125 14.1602 18.5059 15.6445 16.0059 15.6445L5.44922 15.6445C2.94922 15.6445 1.14258 14.1602 1.14258 11.7871C1.14258 9.41406 2.94922 7.91992 5.44922 7.91992L7.09812 7.91992C7.13718 7.98048 7.18471 8.03874 7.23633 8.0957L9.36523 10.459C10.127 11.2988 11.3184 11.2988 12.0801 10.459L14.2188 8.0957C14.2705 8.03894 14.3182 7.9807 14.3577 7.91992L16.0059 7.91992C18.5059 7.91992 20.3125 9.41406 20.3125 11.7871Z" fill="currentColor"/>
  <path d="M11.2305 9.69727L13.3691 7.33398C13.8184 6.83594 13.5645 6.11328 12.832 6.11328L11.4844 6.11328L11.4844 1.89453C11.4844 1.46484 11.1523 1.14258 10.7422 1.14258C10.3125 1.14258 9.99023 1.46484 9.99023 1.89453L9.99023 6.11328L8.62305 6.11328C7.91992 6.11328 7.61719 6.80664 8.08594 7.33398L10.2148 9.69727C10.5176 10.0391 10.9277 10.0391 11.2305 9.69727Z" fill="currentColor"/>
 </g>
</svg>
