<svg version="1.1" xmlns="http://www.w3.org/2000/svg" xmlns:xlink="http://www.w3.org/1999/xlink" width="18.6621" height="13.9551" viewBox="0 0 18.6621 13.9551">
 <g>
  <rect height="13.9551" opacity="0" width="18.6621" x="0" y="0"/>
  <path d="M6.2207 13.9453L12.0801 13.9453C16.6113 13.9453 18.3008 12.2656 18.3008 8.06641L18.3008 5.87891C18.3008 1.67969 16.6113 0 12.0801 0L6.2207 0C1.68945 0 0 1.67969 0 5.87891L0 8.06641C0 12.2656 1.68945 13.9453 6.2207 13.9453ZM6.2207 12.5293C2.63672 12.5293 1.40625 11.3965 1.40625 8.06641L1.40625 5.87891C1.40625 2.54883 2.63672 1.41602 6.2207 1.41602L12.0801 1.41602C15.6641 1.41602 16.8848 2.54883 16.8848 5.87891L16.8848 8.06641C16.8848 11.3965 15.6641 12.5293 12.0801 12.5293Z" fill="currentColor"/>
 </g>
</svg>
