<svg version="1.1" xmlns="http://www.w3.org/2000/svg" xmlns:xlink="http://www.w3.org/1999/xlink" width="18.4766" height="14.248" viewBox="0 0 18.4766 14.248">
 <g>
  <rect height="14.248" opacity="0" width="18.4766" x="0" y="0"/>
  <path d="M2.49023 14.248L8.49609 14.248L8.49609 12.832L2.50977 12.832C1.80664 12.832 1.40625 12.4512 1.40625 11.7188L1.40625 7.69531L0 7.69531L0 11.7871C0 13.4277 0.830078 14.248 2.49023 14.248ZM9.63867 14.248L15.625 14.248C17.2949 14.248 18.1152 13.4277 18.1152 11.7871L18.1152 7.69531L16.709 7.69531L16.709 11.7188C16.709 12.4512 16.3086 12.832 15.6055 12.832L9.63867 12.832ZM16.709 6.5625L18.1152 6.5625L18.1152 2.4707C18.1152 0.830078 17.2949 0.00976562 15.625 0.00976562L9.63867 0.00976562L9.63867 1.42578L15.6055 1.42578C16.3086 1.42578 16.709 1.79688 16.709 2.53906ZM0 6.5625L1.40625 6.5625L1.40625 2.53906C1.40625 1.79688 1.80664 1.42578 2.50977 1.42578L8.49609 1.42578L8.49609 0.00976562L2.49023 0.00976562C0.830078 0.00976562 0 0.830078 0 2.4707Z" fill="var(--color-primary)"/>
  <path d="M4.70703 7.12891C4.70703 7.66602 5.06836 8.02734 5.5957 8.02734L12.5391 8.02734C13.0762 8.02734 13.4375 7.66602 13.4375 7.12891C13.4375 6.5918 13.0762 6.23047 12.5391 6.23047L5.5957 6.23047C5.06836 6.23047 4.70703 6.5918 4.70703 7.12891Z" fill="var(--color-primary)"/>
 </g>
</svg>
