<svg version="1.1" xmlns="http://www.w3.org/2000/svg" xmlns:xlink="http://www.w3.org/1999/xlink" width="14.3457" height="18.1348" viewBox="0 0 14.3457 18.1348">
 <g>
  <rect height="18.1348" opacity="0" width="14.3457" x="0" y="0"/>
  <path d="M6.99219 0C2.7832 0 0 2.66602 0 6.86523L0 11.2598C0 15.459 2.7832 18.125 6.99219 18.125C11.2012 18.125 13.9844 15.459 13.9844 11.2598L13.9844 6.86523C13.9844 2.66602 11.2012 0 6.99219 0ZM6.99219 1.41602C10.3418 1.41602 12.5586 3.39844 12.5586 6.58203L12.5586 11.543C12.5586 14.7266 10.3418 16.709 6.99219 16.709C3.64258 16.709 1.42578 14.7266 1.42578 11.543L1.42578 6.58203C1.42578 3.39844 3.64258 1.41602 6.99219 1.41602Z" fill="var(--color-secondary)"/>
  <path d="M6.99219 2.54883C9.90234 2.54883 11.416 3.91602 11.416 6.58203L11.416 11.543C11.416 14.209 9.90234 15.5762 6.99219 15.5762C4.08203 15.5762 2.56836 14.209 2.56836 11.543L2.56836 6.58203C2.56836 3.91602 4.08203 2.54883 6.99219 2.54883Z" fill="var(--color-primary)"/>
 </g>
</svg>
