<?xml version="1.0" encoding="UTF-8"?>
<!--Generator: Apple Native CoreSVG 232.5-->
<!DOCTYPE svg
PUBLIC "-//W3C//DTD SVG 1.1//EN"
       "http://www.w3.org/Graphics/SVG/1.1/DTD/svg11.dtd">
<svg version="1.1" xmlns="http://www.w3.org/2000/svg" xmlns:xlink="http://www.w3.org/1999/xlink" width="17.3828" height="17.1582">
 <g>
  <rect height="17.1582" opacity="0" width="17.3828" x="0" y="0"/>
  <path d="M17.0215 4.70703L17.0215 10.3906C17.0215 12.7539 15.7617 14.043 13.3594 14.043L8.45703 14.043L5.69336 16.6016C5.2832 16.9824 5.04883 17.1582 4.70703 17.1582C4.21875 17.1582 3.93555 16.8066 3.93555 16.2793L3.93555 14.043L3.66211 14.043C1.25977 14.043 0 12.7539 0 10.3906L0 4.70703C0 2.34375 1.25977 1.04492 3.66211 1.04492L13.3594 1.04492C15.7617 1.04492 17.0215 2.34375 17.0215 4.70703ZM3.64258 9.53125C3.35938 9.53125 3.13477 9.75586 3.13477 10.0488C3.13477 10.332 3.35938 10.5566 3.64258 10.5566L4.9707 10.5566C5.25391 10.5566 5.47852 10.332 5.47852 10.0488C5.47852 9.75586 5.25391 9.53125 4.9707 9.53125ZM6.54297 9.53125C6.25977 9.53125 6.03516 9.75586 6.03516 10.0488C6.03516 10.332 6.25977 10.5566 6.54297 10.5566L10.4492 10.5566C10.7324 10.5566 10.957 10.332 10.957 10.0488C10.957 9.75586 10.7324 9.53125 10.4492 9.53125ZM12.0312 9.53125C11.748 9.53125 11.5234 9.75586 11.5234 10.0488C11.5234 10.332 11.748 10.5566 12.0312 10.5566L13.3691 10.5566C13.6523 10.5566 13.8867 10.332 13.8867 10.0488C13.8867 9.75586 13.6523 9.53125 13.3691 9.53125ZM3.64258 7.38281C3.35938 7.38281 3.13477 7.61719 3.13477 7.89062C3.13477 8.18359 3.35938 8.4082 3.64258 8.4082L6.79688 8.4082C7.08008 8.4082 7.31445 8.18359 7.31445 7.89062C7.31445 7.61719 7.08008 7.38281 6.79688 7.38281ZM8.37891 7.38281C8.0957 7.38281 7.87109 7.61719 7.87109 7.89062C7.87109 8.18359 8.0957 8.4082 8.37891 8.4082L13.3691 8.4082C13.6523 8.4082 13.8867 8.18359 13.8867 7.89062C13.8867 7.61719 13.6523 7.38281 13.3691 7.38281Z" fill="#ffffff" fill-opacity="0.85"/>
 </g>
</svg>
