<svg version="1.1" xmlns="http://www.w3.org/2000/svg" xmlns:xlink="http://www.w3.org/1999/xlink" width="25.6641" height="15.5762" viewBox="0 0 25.6641 15.5762">
 <g>
  <rect height="15.5762" opacity="0" width="25.6641" x="0" y="0"/>
  <path d="M0 9.48242C0 9.93164 0.351562 10.127 0.751953 9.88281L3.45703 8.23242C3.83789 8.00781 3.82812 7.56836 3.45703 7.33398L0.751953 5.67383C0.351562 5.42969 0 5.64453 0 6.08398ZM25.3027 9.48242L25.3027 6.08398C25.3027 5.64453 24.9609 5.43945 24.5508 5.67383L21.8457 7.33398C21.4746 7.57812 21.4648 7.99805 21.8457 8.23242L24.5508 9.88281C24.9512 10.1172 25.3027 9.93164 25.3027 9.48242Z" fill="var(--color-primary)"/>
  <path d="M5.30273 4.16016L5.76172 4.16016C6.05469 4.16016 6.2793 3.93555 6.2793 3.63281L6.2793 0.537109C6.2793 0.234375 6.05469 0.00976562 5.76172 0.00976562L5.30273 0.00976562C5.00977 0.00976562 4.78516 0.234375 4.78516 0.537109L4.78516 3.63281C4.78516 3.93555 5.00977 4.16016 5.30273 4.16016ZM5.30273 9.86328L5.76172 9.86328C6.05469 9.86328 6.2793 9.63867 6.2793 9.33594L6.2793 6.25C6.2793 5.94727 6.05469 5.72266 5.76172 5.72266L5.30273 5.72266C5.00977 5.72266 4.78516 5.94727 4.78516 6.25L4.78516 9.33594C4.78516 9.63867 5.00977 9.86328 5.30273 9.86328ZM5.30273 15.5762L5.76172 15.5762C6.05469 15.5762 6.2793 15.3516 6.2793 15.0488L6.2793 11.9531C6.2793 11.6504 6.05469 11.4258 5.76172 11.4258L5.30273 11.4258C5.00977 11.4258 4.78516 11.6504 4.78516 11.9531L4.78516 15.0488C4.78516 15.3516 5.00977 15.5762 5.30273 15.5762ZM19.541 4.16016L20 4.16016C20.293 4.16016 20.5176 3.93555 20.5176 3.63281L20.5176 0.537109C20.5176 0.234375 20.293 0.00976562 20 0.00976562L19.541 0.00976562C19.2383 0.00976562 19.0137 0.234375 19.0137 0.537109L19.0137 3.63281C19.0137 3.93555 19.2383 4.16016 19.541 4.16016ZM19.541 9.86328L20 9.86328C20.293 9.86328 20.5176 9.63867 20.5176 9.33594L20.5176 6.25C20.5176 5.94727 20.293 5.72266 20 5.72266L19.541 5.72266C19.2383 5.72266 19.0137 5.94727 19.0137 6.25L19.0137 9.33594C19.0137 9.63867 19.2383 9.86328 19.541 9.86328ZM19.541 15.5762L20 15.5762C20.293 15.5762 20.5176 15.3516 20.5176 15.0488L20.5176 11.9531C20.5176 11.6504 20.293 11.4258 20 11.4258L19.541 11.4258C19.2383 11.4258 19.0137 11.6504 19.0137 11.9531L19.0137 15.0488C19.0137 15.3516 19.2383 15.5762 19.541 15.5762ZM12.6367 14.668C15.4004 14.668 16.582 14.0625 16.582 12.4707L16.582 6.52344L16.8848 6.52344C17.2461 6.52344 17.5488 6.23047 17.5391 5.86914L17.5293 5.625C17.5098 5.26367 17.2461 4.98047 16.875 4.98047L16.582 4.98047L16.582 3.49609C16.582 1.875 15.0879 0.898438 12.6465 0.908203C10.2246 0.908203 8.7207 1.86523 8.7207 3.49609L8.7207 4.98047L8.42773 4.98047C8.05664 4.98047 7.7832 5.26367 7.77344 5.61523L7.76367 5.86914C7.75391 6.23047 8.05664 6.52344 8.41797 6.52344L8.7207 6.52344L8.7207 12.4707C8.7207 14.0625 9.89258 14.668 12.6367 14.668ZM12.6465 6.63086C12.1582 6.64062 11.3965 6.68945 11.1133 6.67969C10.6738 6.68945 10.5078 6.51367 10.459 6.06445L10.3613 5.0293C10.2832 4.19922 10.8887 3.88672 12.6465 3.88672C14.4238 3.90625 15.0098 4.19922 14.9414 5.01953L14.8535 6.07422C14.8047 6.51367 14.6094 6.68945 14.1895 6.68945C13.916 6.67969 13.1445 6.64062 12.6465 6.63086ZM12.6465 12.3438C10.8301 12.3242 10.2344 12.0605 10.3711 11.1914L10.4492 10.7129C10.5664 10.0195 11.0938 9.81445 12.6465 9.82422C14.209 9.81445 14.7363 10.0195 14.8535 10.7129L14.9316 11.2012C15.0586 12.0508 14.4727 12.3242 12.6465 12.3438Z" fill="var(--color-secondary)"/>
 </g>
</svg>
