<?xml version="1.0" encoding="UTF-8"?>
<!--Generator: Apple Native CoreSVG 232.5-->
<!DOCTYPE svg
PUBLIC "-//W3C//DTD SVG 1.1//EN"
       "http://www.w3.org/Graphics/SVG/1.1/DTD/svg11.dtd">
<svg version="1.1" xmlns="http://www.w3.org/2000/svg" xmlns:xlink="http://www.w3.org/1999/xlink" width="26.4611" height="20.229">
 <g>
  <rect height="20.229" opacity="0" width="26.4611" x="0" y="0"/>
  <path d="M7.12703 14.9338L8.91414 13.9084L8.21102 12.6877L6.4825 13.6838C6.24812 13.8206 6.06258 13.7327 5.87703 13.4299L5.33992 12.512C4.93953 11.8381 5.17391 11.1545 6.04305 10.5002L8.33797 8.76196L9.79305 6.02759C10.5059 4.6897 11.0528 4.20142 12.9962 3.04907L14.2071 2.34595C15.5645 1.54517 16.9512 1.50611 18.7091 2.29712L20.2032 1.8772C20.672 1.75025 20.8575 1.9065 21.0528 2.25806L22.1075 4.0647C22.2833 4.3772 22.2442 4.57251 22.0098 4.69946L20.5743 5.54907L21.2677 6.76978L22.8985 5.82251C23.7579 5.33423 23.963 4.47486 23.4649 3.60571L22.2833 1.54517C21.8341 0.773684 21.1993 0.187746 19.8907 0.461184L18.6895 0.724855C17.5274 0.314699 15.6524-0.114988 13.504 1.13501L12.2833 1.82837C10.1348 3.06861 9.38289 3.80103 8.54305 5.36353L7.24422 7.8147L5.18367 9.36743C3.76766 10.4417 3.3575 11.887 4.11922 13.2249L4.70516 14.26C5.25203 15.2073 6.1993 15.4709 7.12703 14.9338ZM10.9649 12.717L19.2559 7.92212L18.5626 6.71118L10.2618 11.4963ZM10.5841 14.5139C11.668 13.8792 12.0294 12.5315 11.4044 11.4573C10.7696 10.3635 9.42195 10.012 8.34773 10.6272C7.26375 11.262 6.90242 12.5999 7.52742 13.6838C8.15242 14.7678 9.50008 15.1292 10.5841 14.5139ZM9.8907 13.2834C9.45125 13.5276 8.99227 13.4104 8.75789 12.9905C8.50398 12.5608 8.62117 12.1018 9.06062 11.8479C9.47078 11.6038 9.93953 11.7307 10.1837 12.1506C10.4278 12.5706 10.3106 13.0491 9.8907 13.2834ZM21.004 8.49829C22.0782 7.86353 22.4395 6.52564 21.8341 5.43189C21.1895 4.35767 19.8321 3.99634 18.7579 4.62134C17.6739 5.24634 17.3126 6.594 17.9473 7.67798C18.5626 8.7522 19.9102 9.12329 21.004 8.49829ZM20.3009 7.26782C19.8614 7.52173 19.4122 7.38501 19.1583 6.96509C18.9141 6.55493 19.0411 6.08618 19.4708 5.83228C19.8809 5.5979 20.3497 5.71509 20.5938 6.14478C20.838 6.5647 20.7208 7.03345 20.3009 7.26782Z" fill="#ffffff" fill-opacity="0.85"/>
  <path d="M4.71492 19.8752C4.91023 20.217 5.34969 20.3245 5.67195 20.1389L25.7598 8.53736C26.0821 8.36157 26.1993 7.92212 26.0137 7.59009C25.8087 7.24829 25.379 7.14087 25.0567 7.31665L4.96883 18.9182C4.64656 19.1135 4.51961 19.5432 4.71492 19.8752ZM3.63094 15.9592L1.94148 13.0198C1.63875 12.5022 1.02352 12.6292 0.8575 13.1467L0.037187 15.6077C-0.0800005 15.9592 0.0860151 16.2327 0.447343 16.301L2.97664 16.8284C3.51375 16.9456 3.93367 16.4768 3.63094 15.9592Z" fill="#ffffff" fill-opacity="0.85"/>
 </g>
</svg>
