<?xml version="1.0" encoding="UTF-8"?>
<!--Generator: Apple Native CoreSVG 232.5-->
<!DOCTYPE svg
PUBLIC "-//W3C//DTD SVG 1.1//EN"
       "http://www.w3.org/Graphics/SVG/1.1/DTD/svg11.dtd">
<svg version="1.1" xmlns="http://www.w3.org/2000/svg" xmlns:xlink="http://www.w3.org/1999/xlink" width="11.1621" height="21.2988">
 <g>
  <rect height="21.2988" opacity="0" width="11.1621" x="0" y="0"/>
  <path d="M5.39062 1.29883C6.71875 1.29883 7.91016 1.78711 8.83789 2.57812C9.21875 2.90039 9.59961 2.93945 9.86328 2.67578C10.1562 2.38281 10.1367 1.97266 9.82422 1.65039C8.68164 0.507812 7.08008 0 5.39062 0C3.71094 0 2.10938 0.507812 0.966797 1.65039C0.654297 1.97266 0.634766 2.38281 0.927734 2.67578C1.19141 2.93945 1.57227 2.90039 1.95312 2.57812C2.88086 1.78711 4.07227 1.29883 5.39062 1.29883Z" fill="#ffffff" fill-opacity="0.85"/>
  <path d="M5.39062 4.02344C6.02539 4.02344 6.5918 4.20898 7.04102 4.55078C7.48047 4.86328 7.85156 4.83398 8.08594 4.58984C8.35938 4.32617 8.33984 3.94531 8.06641 3.66211C7.62695 3.23242 6.55273 2.72461 5.39062 2.72461C4.23828 2.72461 3.16406 3.23242 2.72461 3.66211C2.45117 3.94531 2.43164 4.32617 2.70508 4.58984C2.93945 4.83398 3.31055 4.86328 3.75 4.55078C4.19922 4.20898 4.76562 4.02344 5.39062 4.02344Z" fill="#ffffff" fill-opacity="0.85"/>
  <path d="M5.39062 21.2891C8.4375 21.2891 9.74609 20.625 9.74609 18.877L9.74609 8.95508C9.74609 7.1582 8.08594 6.09375 5.39062 6.09375C2.71484 6.09375 1.05469 7.1582 1.05469 8.95508L1.05469 18.877C1.05469 20.625 2.35352 21.2891 5.39062 21.2891ZM5.39062 19.9316C3.21289 19.9316 2.44141 19.6387 2.44141 18.8281L2.44141 8.95508C2.44141 8.00781 3.4668 7.4707 5.39062 7.4707C7.33398 7.4707 8.35938 8.00781 8.35938 8.95508L8.35938 18.8281C8.35938 19.6387 7.58789 19.9316 5.39062 19.9316ZM1.78711 12.2949L1.78711 10.5957L0.722656 10.5957C0.322266 10.5957 0 10.9082 0 11.3086L0 11.582C0 11.9727 0.322266 12.2949 0.722656 12.2949ZM9.00391 12.2949L10.0684 12.2949C10.4785 12.2949 10.8008 11.9727 10.8008 11.582L10.8008 11.3086C10.8008 10.9082 10.4785 10.5957 10.0684 10.5957L9.00391 10.5957ZM5.39062 12.4902C5.92773 12.4902 6.74805 12.5391 7.03125 12.5391C7.49023 12.5391 7.69531 12.3438 7.73438 11.875L7.83203 10.7715C7.91016 9.88281 7.27539 9.56055 5.39062 9.56055C3.51562 9.56055 2.89062 9.88281 2.96875 10.7715L3.06641 11.875C3.10547 12.3438 3.31055 12.5391 3.76953 12.5391C4.05273 12.5391 4.87305 12.4902 5.39062 12.4902ZM5.39062 18.5449C7.34375 18.5449 7.96875 18.252 7.82227 17.334L7.73438 16.8164C7.60742 16.084 7.05078 15.8594 5.39062 15.8594C3.75 15.8594 3.19336 16.084 3.06641 16.8164L2.97852 17.334C2.83203 18.252 3.45703 18.5449 5.39062 18.5449Z" fill="#ffffff" fill-opacity="0.85"/>
 </g>
</svg>
