<?xml version="1.0" encoding="UTF-8"?>
<!--Generator: Apple Native CoreSVG 232.5-->
<!DOCTYPE svg
PUBLIC "-//W3C//DTD SVG 1.1//EN"
       "http://www.w3.org/Graphics/SVG/1.1/DTD/svg11.dtd">
<svg version="1.1" xmlns="http://www.w3.org/2000/svg" xmlns:xlink="http://www.w3.org/1999/xlink" width="18.5791" height="20.2246">
 <g>
  <rect height="20.2246" opacity="0" width="18.5791" x="0" y="0"/>
  <path d="M9.10889 20.2148C13.1519 20.2148 14.7925 19.3652 14.7925 17.1582L14.7925 3.68164C14.7925 1.36719 12.6929 0 9.10889 0C5.53467 0 3.42529 1.36719 3.42529 3.68164L3.42529 17.1582C3.42529 19.3652 5.06592 20.2148 9.10889 20.2148ZM9.10889 8.32031C8.37646 8.32031 7.22412 8.36914 6.81396 8.36914C6.2085 8.36914 5.95459 8.13477 5.896 7.51953L5.76904 5.9668C5.66162 4.79492 6.54053 4.3457 9.10889 4.3457C11.6772 4.3457 12.5659 4.79492 12.4585 5.9668L12.3218 7.51953C12.2632 8.13477 12.0093 8.36914 11.4038 8.36914C11.0034 8.36914 9.84131 8.32031 9.10889 8.32031ZM9.10889 16.8262C6.43311 16.8262 5.60303 16.4258 5.78857 15.2246L5.896 14.4922C6.03271 13.5352 6.84326 13.2031 9.10889 13.2031C11.3843 13.2031 12.1851 13.5352 12.3315 14.4922L12.439 15.2246C12.6147 16.4258 11.7944 16.8262 9.10889 16.8262ZM4.08936 11.1816L0.212402 15.0488C-0.0708008 15.332-0.0708008 15.8008 0.212402 16.0938C0.495605 16.377 0.95459 16.3867 1.24756 16.0938L4.08936 13.252ZM14.1284 11.1816L14.1284 13.252L16.9702 16.0938C17.2632 16.3867 17.7222 16.377 18.0151 16.0938C18.2983 15.8008 18.2983 15.332 18.0151 15.0488Z" fill="#ffffff" fill-opacity="0.85"/>
 </g>
</svg>
