<svg version="1.1" xmlns="http://www.w3.org/2000/svg" xmlns:xlink="http://www.w3.org/1999/xlink" width="15.4688" height="19.0082" viewBox="0 0 15.4688 19.0082">
 <g>
  <rect height="19.0082" opacity="0" width="15.4688" x="0" y="0"/>
  <path d="M7.54883 17.1945C9.72656 17.1945 12.4805 17.0871 13.6426 16.9504C14.5703 16.843 15.1074 16.3059 15.1074 15.427L15.1074 14.2746C15.1074 13.2297 14.9023 12.5852 14.2871 11.8039L13.7988 11.1692C13.5645 10.0656 13.1641 8.91329 12.9492 8.46407C12.5977 7.72188 11.9043 7.2629 11.0156 7.14571C10.6055 7.08712 9.27734 7.05782 7.54883 7.05782C5.83008 7.05782 4.49219 7.09688 4.08203 7.14571C3.19336 7.25313 2.50977 7.72188 2.1582 8.46407C1.94336 8.91329 1.54297 10.0656 1.30859 11.1692L0.820312 11.8039C0.205078 12.5852 0 13.2297 0 14.2746L0 15.427C0 16.3059 0.527344 16.843 1.46484 16.9504C2.62695 17.0871 5.38086 17.1945 7.54883 17.1945ZM7.54883 16.0227C5.35156 16.0227 2.69531 15.925 1.74805 15.7981C1.29883 15.7395 1.18164 15.5539 1.18164 15.134L1.18164 14.2746C1.18164 13.4543 1.28906 13.1125 1.73828 12.5266L2.40234 11.677C2.54883 10.8371 2.95898 9.57735 3.22266 8.98165C3.39844 8.61056 3.71094 8.38595 4.21875 8.33712C4.61914 8.28829 5.83008 8.21993 7.54883 8.21993C9.26758 8.21993 10.5273 8.28829 10.8594 8.33712C11.3965 8.39571 11.6992 8.62032 11.8848 8.98165C12.1582 9.57735 12.5586 10.8371 12.7051 11.677L13.3691 12.5266C13.8184 13.1125 13.9258 13.4543 13.9258 14.2746L13.9258 15.134C13.9258 15.5539 13.8086 15.7492 13.3594 15.7981C12.4121 15.925 9.74609 16.0227 7.54883 16.0227ZM3.16406 11.1399C3.11523 11.3645 3.20312 11.4426 3.4375 11.4231C4.39453 11.3547 5.57617 11.2961 7.54883 11.2961C9.53125 11.2961 10.7031 11.3547 11.6602 11.4231C11.8945 11.4426 11.9922 11.3645 11.9434 11.1399C11.8066 10.5344 11.5234 9.66524 11.3281 9.31368C11.1719 9.05978 11.0254 8.96212 10.7422 8.92306C10.3027 8.86446 9.31641 8.81563 7.54883 8.81563C5.78125 8.81563 4.80469 8.86446 4.35547 8.92306C4.08203 8.96212 3.92578 9.05978 3.7793 9.31368C3.58398 9.66524 3.30078 10.5344 3.16406 11.1399ZM3.04688 15.3391C3.63281 15.3391 4.08203 14.8801 4.08203 14.2942C4.08203 13.7082 3.63281 13.2688 3.04688 13.2688C2.46094 13.2688 2.01172 13.7082 2.01172 14.2942C2.01172 14.8801 2.46094 15.3391 3.04688 15.3391ZM5.82031 15.0559L9.28711 15.0559C9.72656 15.0559 10.0293 14.7434 10.0293 14.3039C10.0293 13.8742 9.72656 13.5617 9.28711 13.5617L5.82031 13.5617C5.38086 13.5617 5.06836 13.8742 5.06836 14.3039C5.06836 14.7434 5.38086 15.0559 5.82031 15.0559ZM12.0605 15.3391C12.6465 15.3391 13.0957 14.8801 13.0957 14.2942C13.0957 13.7082 12.6465 13.2688 12.0605 13.2688C11.4648 13.2688 11.0254 13.7082 11.0254 14.2942C11.0254 14.8801 11.4648 15.3391 12.0605 15.3391ZM1.28906 18.8449L2.02148 18.8449C2.49023 18.8449 2.85156 18.4836 2.85156 18.0246L2.85156 16.4817L0.46875 16.1301L0.46875 18.0246C0.46875 18.4836 0.820312 18.8449 1.28906 18.8449ZM13.0664 18.8449L13.7988 18.8449C14.2676 18.8449 14.6191 18.4836 14.6191 18.0246L14.6191 16.1301L12.2266 16.4817L12.2266 18.0246C12.2266 18.4836 12.5977 18.8449 13.0664 18.8449Z" fill="var(--color-primary)"/>
  <path d="M7.53906 3.99142C5.91797 3.99142 4.44336 3.45431 3.31055 2.45821C2.93945 2.13595 2.53906 2.04806 2.2168 2.33126C1.88477 2.61446 1.88477 3.10274 2.26562 3.43478C3.67188 4.71407 5.53711 5.42696 7.53906 5.42696C9.54102 5.42696 11.4062 4.71407 12.8125 3.43478C13.1934 3.10274 13.1934 2.61446 12.8613 2.33126C12.5488 2.04806 12.1387 2.13595 11.7773 2.45821C10.6445 3.45431 9.16016 3.99142 7.53906 3.99142Z" fill="var(--color-primary)"/>
  <path d="M7.53906 0.895713C6.77734 0.895713 6.08398 0.680869 5.50781 0.270713C5.12695 0.00704071 4.73633-0.119912 4.42383 0.163291C4.0918 0.456259 4.08203 0.973838 4.48242 1.28634C5.3418 1.94063 6.40625 2.33126 7.53906 2.33126C8.68164 2.33126 9.74609 1.94063 10.6055 1.28634C11.0059 0.973838 10.9961 0.456259 10.6641 0.163291C10.3516-0.119912 9.96094-0.00272492 9.58008 0.270713C9.01367 0.690634 8.31055 0.895713 7.53906 0.895713Z" fill="var(--color-primary)"/>
 </g>
</svg>
