<svg version="1.1" xmlns="http://www.w3.org/2000/svg" xmlns:xlink="http://www.w3.org/1999/xlink" width="18.0974" height="15.6348" viewBox="0 0 18.0974 15.6348">
 <g>
  <rect height="15.6348" opacity="0" width="18.0974" x="0" y="0"/>
  <path d="M16.7587 11.9727L16.7587 15.0879C16.7587 15.3906 16.534 15.6152 16.2313 15.6152L15.7723 15.6152C15.4794 15.6152 15.2547 15.3906 15.2547 15.0879L15.2547 11.9727C15.2547 11.6699 15.4794 11.4453 15.7723 11.4453L16.2313 11.4453C16.534 11.4453 16.7587 11.6699 16.7587 11.9727ZM2.48131 11.9727L2.48131 15.0879C2.48131 15.3906 2.2567 15.6152 1.95397 15.6152L1.50475 15.6152C1.20202 15.6152 0.977406 15.3906 0.977406 15.0879L0.977406 11.9727C0.977406 11.6699 1.20202 11.4453 1.50475 11.4453L1.95397 11.4453C2.2567 11.4453 2.48131 11.6699 2.48131 11.9727ZM16.7587 6.25977L16.7587 9.36523C16.7587 9.6582 16.534 9.88281 16.2313 9.88281L15.7723 9.88281C15.4794 9.88281 15.2547 9.6582 15.2547 9.36523L15.2547 6.25977C15.2547 5.95703 15.4794 5.73242 15.7723 5.73242L16.2313 5.73242C16.534 5.73242 16.7587 5.95703 16.7587 6.25977ZM16.7587 0.527344L16.7587 3.64258C16.7587 3.94531 16.534 4.16992 16.2313 4.16992L15.7723 4.16992C15.4794 4.16992 15.2547 3.94531 15.2547 3.64258L15.2547 0.527344C15.2547 0.224609 15.4794 0 15.7723 0L16.2313 0C16.534 0 16.7587 0.224609 16.7587 0.527344ZM2.48131 0.527344L2.48131 1.97009C2.46215 1.97931 2.44245 1.99058 2.42272 2.00195C2.30095 2.07186 2.18348 2.14303 2.07147 2.21565C2.05628 2.22438 2.04223 2.23342 2.02883 2.24262C1.9245 2.30982 1.82447 2.37815 1.72952 2.44766C1.70629 2.46295 1.68471 2.47865 1.6646 2.49467C1.57738 2.55818 1.49429 2.62263 1.41526 2.68792C1.38162 2.71346 1.35025 2.73949 1.3218 2.76607C1.27026 2.80896 1.22111 2.85232 1.17455 2.89615C1.10233 2.958 1.0364 3.02101 0.977406 3.08513L0.977406 0.527344C0.977406 0.224609 1.20202 0 1.50475 0L1.95397 0C2.2567 0 2.48131 0.224609 2.48131 0.527344Z" fill="var(--color-primary)"/>
  <path d="M9.30748 13.916C11.6805 12.5391 12.4032 11.4258 11.6122 10.0586L7.11998 2.28516C6.29967 0.869141 4.52233 0.791016 2.42272 2.00195C0.313344 3.21289-0.506969 4.80469 0.313344 6.21094L4.80553 13.9941C5.59655 15.3613 6.91491 15.293 9.30748 13.916ZM8.68248 12.8613C6.9735 13.8379 6.23131 13.9648 5.86022 13.3301L1.39733 5.5957C0.957875 4.84375 1.52428 3.95508 3.05748 3.07617C4.56139 2.20703 5.60631 2.16797 6.036 2.91016L10.5087 10.6445C10.87 11.2793 10.4012 11.8652 8.68248 12.8613ZM5.32311 7.01172C5.73327 6.77734 6.39733 6.45508 6.62194 6.31836C6.98327 6.10352 7.04186 5.85938 6.86608 5.47852L6.44616 4.57031C6.10436 3.83789 5.46959 3.87695 3.99498 4.72656C2.52037 5.58594 2.16881 6.11328 2.6278 6.76758L3.20397 7.59766C3.44811 7.94922 3.70202 7.99805 4.06334 7.80273C4.27819 7.66602 4.91295 7.25586 5.32311 7.01172ZM8.06725 11.7676C9.58092 10.8887 9.94225 10.3809 9.40514 9.7168L9.11217 9.35547C8.69225 8.83789 8.13561 8.91602 6.84655 9.66797C5.54772 10.4102 5.20592 10.8398 5.4403 11.4746L5.60631 11.9141C5.90905 12.6953 6.53405 12.6465 8.06725 11.7676ZM8.04772 5.22461L8.88756 4.74609C9.20006 4.58008 9.31725 4.16992 9.1317 3.86719L9.00475 3.64258C8.8192 3.33984 8.42858 3.23242 8.11608 3.41797L7.286 3.90625ZM2.39342 8.49609L1.6317 7.16797L0.801625 7.63672C0.479359 7.82227 0.381703 8.21289 0.557484 8.52539L0.674672 8.75C0.850453 9.05273 1.26061 9.16992 1.56334 8.98438Z" fill="var(--color-primary)"/>
 </g>
</svg>
