<?xml version="1.0" encoding="UTF-8"?>
<!--Generator: Apple Native CoreSVG 232.5-->
<!DOCTYPE svg
PUBLIC "-//W3C//DTD SVG 1.1//EN"
       "http://www.w3.org/Graphics/SVG/1.1/DTD/svg11.dtd">
<svg version="1.1" xmlns="http://www.w3.org/2000/svg" xmlns:xlink="http://www.w3.org/1999/xlink" width="15.4688" height="18.6816">
 <g>
  <rect height="18.6816" opacity="0" width="15.4688" x="0" y="0"/>
  <path d="M7.53906 1.45508C9.16016 1.45508 10.6445 2.00195 11.7773 2.99805C12.1387 3.32031 12.5488 3.39844 12.8613 3.125C13.1934 2.8418 13.1934 2.35352 12.8125 2.01172C11.4062 0.732422 9.54102 0.0292969 7.53906 0.0292969C5.53711 0.0292969 3.67188 0.732422 2.26562 2.01172C1.88477 2.35352 1.88477 2.8418 2.2168 3.125C2.53906 3.39844 2.93945 3.32031 3.31055 2.99805C4.44336 2.00195 5.91797 1.45508 7.53906 1.45508Z" fill="#ffffff" fill-opacity="0.55"/>
  <path d="M7.53906 4.55078C8.31055 4.55078 9.01367 4.76562 9.58008 5.17578C9.96094 5.44922 10.3516 5.56641 10.6641 5.29297C10.9961 5 11.0059 4.47266 10.6055 4.16016C9.74609 3.50586 8.68164 3.125 7.53906 3.125C6.40625 3.125 5.3418 3.50586 4.48242 4.16016C4.08203 4.47266 4.0918 5 4.42383 5.29297C4.73633 5.56641 5.12695 5.44922 5.50781 5.17578C6.08398 4.76562 6.77734 4.55078 7.53906 4.55078Z" fill="#ffffff" fill-opacity="0.55"/>
  <path d="M0 15.4688C0 16.3574 0.527344 17.041 1.49414 17.041L13.6035 17.041C14.5605 17.041 15.1074 16.3574 15.1074 15.4688L15.1074 13.5938C15.1074 12.5586 15 11.8555 14.2676 11.0938L13.6523 10.4492L13.0273 8.64258C12.6562 7.55859 11.875 7.10938 10.9766 7.00195C10.5566 6.95312 9.19922 6.91406 7.54883 6.91406C5.89844 6.91406 4.55078 6.95312 4.12109 7.00195C3.21289 7.10938 2.45117 7.56836 2.08008 8.64258L1.44531 10.4492L0.830078 11.0938C0.117188 11.8555 0 12.5586 0 13.5938ZM1.19141 15.1758L1.19141 13.5938C1.19141 12.7734 1.2793 12.3926 1.76758 11.8457L2.54883 10.9863L3.17383 9.16016C3.4082 8.48633 3.75 8.28125 4.26758 8.22266C4.6582 8.17383 5.88867 8.11523 7.54883 8.11523C9.20898 8.11523 10.4395 8.17383 10.8301 8.22266C11.3477 8.28125 11.6992 8.48633 11.9238 9.16016L12.5586 10.9863L13.3398 11.8457C13.8281 12.3926 13.9062 12.7734 13.9062 13.5938L13.9062 15.1758C13.9062 15.6055 13.7793 15.8496 13.3496 15.8496L1.75781 15.8496C1.31836 15.8496 1.19141 15.6055 1.19141 15.1758ZM3.66211 10.8594L11.4453 10.8594C11.7383 10.8594 11.8262 10.6543 11.7383 10.4004L11.377 9.30664C11.2598 8.95508 11.0645 8.84766 10.7617 8.80859C10.3809 8.75 9.20898 8.70117 7.54883 8.70117C5.89844 8.70117 4.72656 8.75 4.33594 8.80859C4.04297 8.84766 3.84766 8.95508 3.73047 9.30664L3.35938 10.4004C3.27148 10.6543 3.36914 10.8594 3.66211 10.8594ZM2.82227 14.375C3.20312 14.375 3.4668 14.1016 3.4668 13.7305L3.4668 12.8418C3.4668 12.4609 3.20312 12.207 2.82227 12.207C2.45117 12.207 2.17773 12.4707 2.17773 12.8418L2.17773 13.7305C2.17773 14.0918 2.45117 14.375 2.82227 14.375ZM6.25977 14.082L8.83789 14.082C9.14062 14.082 9.3457 13.8867 9.3457 13.5547L9.3457 13.0078C9.3457 12.6953 9.14062 12.5 8.83789 12.5L6.25977 12.5C5.95703 12.5 5.75195 12.6953 5.75195 13.0078L5.75195 13.5547C5.75195 13.8867 5.95703 14.082 6.25977 14.082ZM12.3438 14.375C12.7246 14.375 13.0078 14.1016 13.0078 13.7305L13.0078 12.8418C13.0078 12.4609 12.7246 12.207 12.3438 12.207C11.9922 12.207 11.709 12.4707 11.709 12.8418L11.709 13.7305C11.709 14.0918 11.9922 14.375 12.3438 14.375ZM1.28906 18.6816L2.03125 18.6816C2.5 18.6816 2.86133 18.3203 2.86133 17.8516L2.86133 16.4746L0.449219 16.1133L0.449219 17.8516C0.449219 18.3203 0.820312 18.6816 1.28906 18.6816ZM13.0664 18.6816L13.8184 18.6816C14.2871 18.6816 14.6387 18.3203 14.6387 17.8516L14.6387 16.1133L12.2363 16.4746L12.2363 17.8516C12.2363 18.3203 12.5977 18.6816 13.0664 18.6816Z" fill="#ffffff" fill-opacity="0.85"/>
 </g>
</svg>
