<?xml version="1.0" encoding="UTF-8"?>
<!--Generator: Apple Native CoreSVG 232.5-->
<!DOCTYPE svg
PUBLIC "-//W3C//DTD SVG 1.1//EN"
       "http://www.w3.org/Graphics/SVG/1.1/DTD/svg11.dtd">
<svg version="1.1" xmlns="http://www.w3.org/2000/svg" xmlns:xlink="http://www.w3.org/1999/xlink" width="16.1328" height="15.7715">
 <g>
  <rect height="15.7715" opacity="0" width="16.1328" x="0" y="0"/>
  <path d="M7.88086 15.7617C12.1875 15.7617 15.7715 12.1875 15.7715 7.88086C15.7715 3.57422 12.1777 0 7.87109 0C3.57422 0 0 3.57422 0 7.88086C0 12.1875 3.58398 15.7617 7.88086 15.7617Z" fill="#ffffff" fill-opacity="0.25"/>
  <path d="M4.58008 7.89062C4.58008 5.71289 5.68359 4.25781 7.39258 4.02344L7.39258 3.37891C7.39258 3.125 7.58789 2.94922 7.83203 2.94922C8.07617 2.94922 8.26172 3.125 8.26172 3.37891L8.26172 4.01367C9.38477 4.13086 10.293 4.80469 10.6641 5.74219C10.7031 5.87891 10.7324 6.01562 10.7324 6.15234C10.7422 6.47461 10.5176 6.68945 10.1855 6.68945C9.88281 6.68945 9.72656 6.58203 9.61914 6.23047C9.42383 5.66406 8.90625 5.23438 8.26172 5.10742L8.26172 10.6934C8.95508 10.5762 9.49219 10.1465 9.67773 9.56055C9.78516 9.24805 9.95117 9.10156 10.2539 9.10156C10.5957 9.10156 10.8008 9.31641 10.8008 9.63867C10.8008 9.78516 10.7715 9.92188 10.7227 10.0586C10.3711 10.9961 9.48242 11.6699 8.26172 11.7773L8.26172 12.3926C8.26172 12.6465 8.07617 12.832 7.83203 12.832C7.58789 12.832 7.39258 12.6465 7.39258 12.3926L7.39258 11.7676C5.68359 11.543 4.58008 10.0977 4.58008 7.89062ZM5.78125 7.89062C5.78125 9.39453 6.39648 10.4199 7.39258 10.6641L7.39258 5.12695C6.40625 5.37109 5.78125 6.40625 5.78125 7.89062Z" fill="#ffffff" fill-opacity="0.85"/>
 </g>
</svg>
