<?xml version="1.0" encoding="UTF-8"?>
<!--Generator: Apple Native CoreSVG 232.5-->
<!DOCTYPE svg
PUBLIC "-//W3C//DTD SVG 1.1//EN"
       "http://www.w3.org/Graphics/SVG/1.1/DTD/svg11.dtd">
<svg version="1.1" xmlns="http://www.w3.org/2000/svg" xmlns:xlink="http://www.w3.org/1999/xlink" width="16.1328" height="15.7715">
 <g>
  <rect height="15.7715" opacity="0" width="16.1328" x="0" y="0"/>
  <path d="M7.88086 15.7617C12.1875 15.7617 15.7715 12.1875 15.7715 7.88086C15.7715 3.57422 12.1777 0 7.87109 0C3.57422 0 0 3.57422 0 7.88086C0 12.1875 3.58398 15.7617 7.88086 15.7617ZM7.88086 14.2773C4.33594 14.2773 1.50391 11.4355 1.50391 7.88086C1.50391 4.32617 4.32617 1.48438 7.87109 1.48438C11.4258 1.48438 14.2773 4.32617 14.2773 7.88086C14.2773 11.4355 11.4355 14.2773 7.88086 14.2773Z" fill="#ffffff" fill-opacity="0.85"/>
  <path d="M5.25391 7.88086C5.25391 9.49219 6.11328 10.5469 7.45117 10.7422L7.45117 11.2988C7.45117 11.5527 7.63672 11.7188 7.87109 11.7188C8.10547 11.7188 8.29102 11.5527 8.29102 11.2988L8.29102 10.752C9.27734 10.625 9.9707 10.0684 10.1953 9.39453C10.2148 9.31641 10.2441 9.20898 10.2441 9.11133C10.2441 8.80859 10.0293 8.60352 9.72656 8.60352C9.49219 8.60352 9.32617 8.74023 9.22852 8.95508C9.0625 9.3457 8.75977 9.63867 8.29102 9.73633L8.29102 6.02539C8.75 6.12305 9.05273 6.41602 9.21875 6.80664C9.31641 7.03125 9.50195 7.1582 9.73633 7.1582C10.0391 7.1582 10.2344 6.95312 10.2344 6.65039C10.2344 6.55273 10.2051 6.45508 10.1855 6.37695C9.96094 5.71289 9.26758 5.14648 8.29102 5.01953L8.29102 4.46289C8.29102 4.21875 8.10547 4.04297 7.87109 4.04297C7.63672 4.04297 7.45117 4.21875 7.45117 4.46289L7.45117 5.0293C6.11328 5.22461 5.25391 6.28906 5.25391 7.88086ZM6.34766 7.88086C6.34766 6.88477 6.77734 6.24023 7.45117 6.03516L7.45117 9.72656C6.77734 9.53125 6.34766 8.89648 6.34766 7.88086Z" fill="#ffffff" fill-opacity="0.85"/>
 </g>
</svg>
