<svg version="1.1" xmlns="http://www.w3.org/2000/svg" xmlns:xlink="http://www.w3.org/1999/xlink" width="17.6218" height="15.7715" viewBox="0 0 17.6218 15.7715">
 <g>
  <rect height="15.7715" opacity="0" width="17.6218" x="0" y="0"/>
  <path d="M9.37242 15.7617C13.6791 15.7617 17.263 12.1875 17.263 7.88086C17.263 3.57422 13.6791 0 9.37242 0C5.06578 0 1.49156 3.56445 1.49156 7.87109L2.9857 7.87109C2.9857 4.31641 5.81773 1.49414 9.37242 1.49414C12.9271 1.49414 15.7689 4.32617 15.7689 7.88086C15.7689 11.4355 12.9271 14.2969 9.37242 14.2773C7.28258 14.2676 5.43687 13.291 4.28453 11.7578C4.02086 11.3965 3.60094 11.2891 3.23961 11.5137C2.87828 11.7285 2.79039 12.2168 3.08336 12.5977C4.55797 14.502 6.83336 15.7617 9.37242 15.7617ZM0.602889 6.35742C-0.0123451 6.35742-0.158829 6.77734 0.173202 7.24609L1.91148 9.7168C2.18492 10.0977 2.59508 10.0977 2.85875 9.7168L4.59703 7.23633C4.9193 6.77734 4.76305 6.35742 4.15758 6.35742Z" fill="currentColor"/>
  <path d="M6.74547 7.88086C6.74547 9.49219 7.61461 10.5469 8.9525 10.7422L8.9525 11.2988C8.9525 11.5527 9.12828 11.7188 9.37242 11.7188C9.6068 11.7188 9.78258 11.5527 9.78258 11.2988L9.78258 10.752C10.7787 10.625 11.472 10.0684 11.6966 9.39453C11.7162 9.31641 11.7455 9.20898 11.7455 9.11133C11.7455 8.80859 11.5209 8.60352 11.2181 8.60352C10.9935 8.60352 10.8275 8.74023 10.7298 8.95508C10.5638 9.3457 10.2611 9.63867 9.78258 9.73633L9.78258 6.02539C10.2513 6.12305 10.5541 6.41602 10.7201 6.80664C10.8177 7.03125 10.9935 7.1582 11.2279 7.1582C11.5306 7.1582 11.7357 6.95312 11.7357 6.65039C11.7357 6.55273 11.7064 6.45508 11.6869 6.37695C11.4623 5.71289 10.7689 5.14648 9.78258 5.01953L9.78258 4.46289C9.78258 4.21875 9.6068 4.04297 9.37242 4.04297C9.12828 4.04297 8.9525 4.21875 8.9525 4.46289L8.9525 5.0293C7.61461 5.22461 6.74547 6.28906 6.74547 7.88086ZM7.83922 7.88086C7.83922 6.88477 8.2689 6.24023 8.9525 6.03516L8.9525 9.72656C8.2689 9.53125 7.83922 8.89648 7.83922 7.88086Z" fill="currentColor"/>
 </g>
</svg>
