<svg version="1.1" xmlns="http://www.w3.org/2000/svg" xmlns:xlink="http://www.w3.org/1999/xlink" width="16.1328" height="15.7715" viewBox="0 0 16.1328 15.7715">
 <g>
  <rect height="15.7715" opacity="0" width="16.1328" x="0" y="0"/>
  <path d="M15.7715 7.88086C15.7715 12.1875 12.1875 15.7617 7.88086 15.7617C3.58398 15.7617 0 12.1875 0 7.88086C0 3.57422 3.57422 0 7.87109 0C12.1777 0 15.7715 3.57422 15.7715 7.88086ZM7.44141 4.32617L7.44141 4.92188C6.04492 5.11719 5.15625 6.2207 5.15625 7.88086C5.15625 9.56055 6.04492 10.6543 7.44141 10.8496L7.44141 11.4355C7.44141 11.6895 7.63672 11.8652 7.88086 11.8652C8.125 11.8652 8.31055 11.6895 8.31055 11.4355L8.31055 10.8594C9.33594 10.7324 10.0586 10.1465 10.293 9.45312C10.3125 9.375 10.332 9.26758 10.332 9.16016C10.332 8.84766 10.1074 8.63281 9.79492 8.63281C9.56055 8.63281 9.38477 8.7793 9.28711 8.99414C9.11133 9.4043 8.79883 9.69727 8.31055 9.81445L8.31055 5.94727C8.78906 6.06445 9.10156 6.35742 9.27734 6.76758C9.375 7.00195 9.56055 7.13867 9.80469 7.13867C10.1172 7.13867 10.3223 6.91406 10.3223 6.61133C10.3223 6.49414 10.3027 6.39648 10.2832 6.31836C10.0488 5.625 9.32617 5.03906 8.31055 4.91211L8.31055 4.32617C8.31055 4.07227 8.125 3.89648 7.88086 3.89648C7.63672 3.89648 7.44141 4.07227 7.44141 4.32617ZM7.44141 9.78516C6.73828 9.59961 6.28906 8.93555 6.28906 7.88086C6.28906 6.8457 6.73828 6.17188 7.44141 5.97656Z" fill="var(--color-primary)"/>
 </g>
</svg>
