<svg version="1.1" xmlns="http://www.w3.org/2000/svg" xmlns:xlink="http://www.w3.org/1999/xlink" width="16.1328" height="15.7715" viewBox="0 0 16.1328 15.7715">
 <g>
  <rect height="15.7715" opacity="0" width="16.1328" x="0" y="0"/>
  <path d="M15.7715 7.88086C15.7715 12.1875 12.1875 15.7617 7.88086 15.7617C3.58398 15.7617 0 12.1875 0 7.88086C0 3.57422 3.57422 0 7.87109 0C12.1777 0 15.7715 3.57422 15.7715 7.88086ZM10.0977 4.86328L6.98242 9.90234L5.57617 8.02734C5.36133 7.73438 5.16602 7.65625 4.92188 7.65625C4.51172 7.65625 4.21875 7.97852 4.21875 8.37891C4.21875 8.57422 4.28711 8.76953 4.42383 8.93555L6.24023 11.2109C6.47461 11.5234 6.71875 11.6406 7.02148 11.6406C7.31445 11.6406 7.56836 11.5039 7.75391 11.2109L11.2305 5.70312C11.3477 5.52734 11.4551 5.32227 11.4551 5.12695C11.4551 4.70703 11.1035 4.45312 10.7129 4.45312C10.4785 4.45312 10.2539 4.58984 10.0977 4.86328Z" fill="var(--color-primary)"/>
 </g>
</svg>
