<svg version="1.1" xmlns="http://www.w3.org/2000/svg" xmlns:xlink="http://www.w3.org/1999/xlink" width="17.666" height="15.498" viewBox="0 0 17.666 15.498">
 <g>
  <rect height="15.498" opacity="0" width="17.666" x="0" y="0"/>
  <path d="M9.02344 12.8125L16.6406 12.8125C17.002 12.8125 17.3047 12.5293 17.3047 12.1582C17.3047 11.7871 17.002 11.5039 16.6406 11.5039L9.02344 11.5039C8.65234 11.5039 8.35938 11.7871 8.35938 12.1582C8.35938 12.5293 8.65234 12.8125 9.02344 12.8125Z" fill="var(--color-primary)"/>
  <path d="M3.34961 15.498C5.16602 15.498 6.67969 13.9844 6.67969 12.168C6.67969 10.3418 5.16602 8.80859 3.34961 8.80859C1.51367 8.80859 0 10.3418 0 12.168C0 13.9844 1.52344 15.498 3.34961 15.498ZM2.94922 13.9355C2.77344 13.9355 2.65625 13.8379 2.5293 13.7012L1.70898 12.6953C1.64062 12.6074 1.61133 12.5098 1.61133 12.373C1.61133 12.1387 1.78711 11.9531 2.01172 11.9531C2.16797 11.9531 2.27539 12.0117 2.39258 12.168L2.92969 12.8711L4.23828 10.7617C4.32617 10.6055 4.45312 10.5273 4.60938 10.5273C4.83398 10.5273 5.0293 10.7031 5.0293 10.9082C5.0293 11.0254 5 11.123 4.92188 11.25L3.37891 13.7012C3.28125 13.8477 3.125 13.9355 2.94922 13.9355Z" fill="var(--color-primary)"/>
  <path d="M9.02344 4.02344L16.6406 4.02344C17.002 4.02344 17.3047 3.74023 17.3047 3.36914C17.3047 2.99805 17.002 2.71484 16.6406 2.71484L9.02344 2.71484C8.65234 2.71484 8.35938 2.99805 8.35938 3.36914C8.35938 3.74023 8.65234 4.02344 9.02344 4.02344Z" fill="var(--color-primary)"/>
  <path d="M3.34961 6.70898C5.16602 6.70898 6.67969 5.18555 6.67969 3.36914C6.67969 1.54297 5.16602 0.0195312 3.34961 0.0195312C1.51367 0.0195312 0 1.54297 0 3.36914C0 5.18555 1.52344 6.70898 3.34961 6.70898ZM2.94922 5.13672C2.77344 5.13672 2.65625 5.03906 2.5293 4.90234L1.70898 3.90625C1.64062 3.80859 1.61133 3.71094 1.61133 3.57422C1.61133 3.33984 1.78711 3.1543 2.01172 3.1543C2.16797 3.1543 2.27539 3.21289 2.39258 3.36914L2.92969 4.07227L4.23828 1.96289C4.32617 1.80664 4.45312 1.72852 4.60938 1.72852C4.83398 1.72852 5.0293 1.9043 5.0293 2.11914C5.0293 2.22656 5 2.32422 4.92188 2.45117L3.37891 4.90234C3.28125 5.04883 3.125 5.13672 2.94922 5.13672Z" fill="var(--color-primary)"/>
 </g>
</svg>
