<svg version="1.1" xmlns="http://www.w3.org/2000/svg" xmlns:xlink="http://www.w3.org/1999/xlink" width="17.3828" height="17.1582" viewBox="0 0 17.3828 17.1582">
 <g>
  <rect height="17.1582" opacity="0" width="17.3828" x="0" y="0"/>
  <path d="M4.70703 17.1582C5.04883 17.1582 5.2832 16.9824 5.69336 16.6016L8.45703 14.043L13.3594 14.043C15.7617 14.043 17.0215 12.7539 17.0215 10.3906L17.0215 4.70703C17.0215 2.34375 15.7617 1.04492 13.3594 1.04492L3.66211 1.04492C1.25977 1.04492 0 2.34375 0 4.70703L0 10.3906C0 12.7539 1.25977 14.043 3.66211 14.043L3.93555 14.043L3.93555 16.2793C3.93555 16.8066 4.21875 17.1582 4.70703 17.1582Z" fill="var(--color-tertiary)"/>
  <path d="M7.64648 11.3086C7.34375 11.3086 7.09961 11.1816 6.86523 10.8691L5.04883 8.60352C4.91211 8.42773 4.84375 8.23242 4.84375 8.03711C4.84375 7.63672 5.13672 7.31445 5.54688 7.31445C5.79102 7.31445 5.98633 7.40234 6.20117 7.68555L7.60742 9.56055L10.7227 4.52148C10.8789 4.24805 11.1035 4.12109 11.3379 4.12109C11.7285 4.12109 12.0801 4.375 12.0801 4.78516C12.0801 4.98047 11.9727 5.18555 11.8555 5.36133L8.37891 10.8691C8.19336 11.1621 7.93945 11.3086 7.64648 11.3086Z" fill="var(--color-primary)"/>
 </g>
</svg>
