<svg version="1.1" xmlns="http://www.w3.org/2000/svg" xmlns:xlink="http://www.w3.org/1999/xlink" width="16.1328" height="15.7715" viewBox="0 0 16.1328 15.7715">
 <g>
  <rect height="15.7715" opacity="0" width="16.1328" x="0" y="0"/>
  <path d="M15.7715 7.88086C15.7715 12.1875 12.1875 15.7617 7.88086 15.7617C3.58398 15.7617 0 12.1875 0 7.88086C0 3.57422 3.57422 0 7.87109 0C12.1777 0 15.7715 3.57422 15.7715 7.88086ZM6.04492 3.95508C5.76172 4.22852 5.75195 4.66797 6.02539 4.92188L9.21875 7.89062L6.02539 10.8691C5.76172 11.123 5.75195 11.5527 6.03516 11.8359C6.26953 12.0508 6.74805 12.0312 6.99219 11.7969L10.2246 8.78906C10.7324 8.32031 10.7324 7.4707 10.2246 7.00195L6.99219 3.99414C6.71875 3.74023 6.29883 3.71094 6.04492 3.95508Z" fill="var(--color-primary)"/>
 </g>
</svg>
