<?xml version="1.0" encoding="UTF-8"?>
<!--Generator: Apple Native CoreSVG 232.5-->
<!DOCTYPE svg
PUBLIC "-//W3C//DTD SVG 1.1//EN"
       "http://www.w3.org/Graphics/SVG/1.1/DTD/svg11.dtd">
<svg version="1.1" xmlns="http://www.w3.org/2000/svg" xmlns:xlink="http://www.w3.org/1999/xlink" width="16.1328" height="15.7715">
 <g>
  <rect height="15.7715" opacity="0" width="16.1328" x="0" y="0"/>
  <path d="M15.7715 7.88086C15.7715 12.1875 12.1875 15.7617 7.88086 15.7617C3.58398 15.7617 0 12.1875 0 7.88086C0 3.57422 3.57422 0 7.87109 0C12.1777 0 15.7715 3.57422 15.7715 7.88086ZM4.91211 4.41406C4.91211 4.55078 4.94141 4.64844 5.01953 4.78516L6.93359 7.89062L5.86914 7.89062C5.61523 7.89062 5.43945 8.08594 5.43945 8.33008C5.43945 8.57422 5.625 8.75977 5.86914 8.75977L7.32422 8.75977L7.32422 9.35547L5.86914 9.35547C5.61523 9.35547 5.43945 9.54102 5.43945 9.78516C5.43945 10.0391 5.625 10.2148 5.86914 10.2148L7.32422 10.2148L7.32422 11.2695C7.32422 11.6309 7.55859 11.875 7.88086 11.875C8.21289 11.875 8.44727 11.6406 8.44727 11.2793L8.44727 10.2148L9.90234 10.2148C10.1562 10.2148 10.3223 10.0391 10.3223 9.78516C10.3223 9.54102 10.1562 9.35547 9.90234 9.35547L8.44727 9.35547L8.44727 8.75977L9.90234 8.75977C10.1562 8.75977 10.3223 8.57422 10.3223 8.33008C10.3223 8.08594 10.1562 7.89062 9.90234 7.89062L8.84766 7.89062L10.7617 4.79492C10.8398 4.6582 10.8691 4.56055 10.8691 4.42383C10.8691 4.13086 10.625 3.89648 10.3027 3.89648C10.0879 3.89648 9.92188 3.99414 9.79492 4.18945L7.89062 7.45117L5.98633 4.17969C5.85938 3.97461 5.69336 3.88672 5.47852 3.88672C5.15625 3.88672 4.91211 4.12109 4.91211 4.41406Z" fill="#ffffff" fill-opacity="0.85"/>
 </g>
</svg>
