<svg version="1.1" xmlns="http://www.w3.org/2000/svg" xmlns:xlink="http://www.w3.org/1999/xlink" width="14.5898" height="14.248" viewBox="0 0 14.5898 14.248">
 <g>
  <rect height="14.248" opacity="0" width="14.5898" x="0" y="0"/>
  <path d="M2.49023 14.248L11.7383 14.248C13.4082 14.248 14.2285 13.4277 14.2285 11.7871L14.2285 2.4707C14.2285 0.830078 13.4082 0.00976562 11.7383 0.00976562L2.49023 0.00976562C0.830078 0.00976562 0 0.830078 0 2.4707L0 11.7871C0 13.4277 0.830078 14.248 2.49023 14.248Z" fill="var(--color-tertiary)"/>
  <path d="M7.11914 10.8887C5.08789 10.8887 3.36914 9.16992 3.36914 7.12891C3.36914 5.07812 5.07812 3.36914 7.11914 3.36914C9.16016 3.36914 10.8789 5.08789 10.8789 7.12891C10.8789 9.17969 9.16992 10.8887 7.11914 10.8887Z" fill="var(--color-primary)"/>
 </g>
</svg>
