<svg version="1.1" xmlns="http://www.w3.org/2000/svg" xmlns:xlink="http://www.w3.org/1999/xlink" width="20.8398" height="9.07227" viewBox="0 0 20.8398 9.07227">
 <g>
  <rect height="9.07227" opacity="0" width="20.8398" x="0" y="0"/>
  <path d="M15.9375 9.07227C18.4375 9.07227 20.4785 7.03125 20.4785 4.53125C20.4785 2.04102 18.4375 0 15.9375 0C13.4375 0 11.4062 2.04102 11.4062 4.53125C11.4062 7.03125 13.4375 9.07227 15.9375 9.07227ZM15.9375 7.66602C14.2188 7.66602 12.8125 6.26953 12.8125 4.53125C12.8125 2.80273 14.2188 1.40625 15.9375 1.40625C17.6562 1.40625 19.0723 2.8125 19.0723 4.53125C19.0723 6.25 17.6562 7.66602 15.9375 7.66602Z" fill="var(--color-primary)"/>
  <path d="M4.53125 9.07227C7.03125 9.07227 9.07227 7.03125 9.07227 4.53125C9.07227 2.04102 7.03125 0 4.53125 0C2.03125 0 0 2.04102 0 4.53125C0 7.03125 2.03125 9.07227 4.53125 9.07227Z" fill="var(--color-primary)"/>
 </g>
</svg>
