<svg version="1.1" xmlns="http://www.w3.org/2000/svg" xmlns:xlink="http://www.w3.org/1999/xlink" width="16.1328" height="15.7715" viewBox="0 0 16.1328 15.7715">
 <g>
  <rect height="15.7715" opacity="0" width="16.1328" x="0" y="0"/>
  <path d="M15.7715 7.89062C15.7715 12.1973 12.1875 15.7715 7.88086 15.7715C3.58398 15.7715 0 12.1973 0 7.89062C0 3.58398 3.57422 0.00976562 7.87109 0.00976562C12.1777 0.00976562 15.7715 3.58398 15.7715 7.89062ZM7.31445 9.29688C7.1875 9.29688 7.11914 9.33594 7.08008 9.43359L6.43555 10.9277C6.37695 11.0352 6.41602 11.123 6.5625 11.123L7.44141 11.123L6.79688 12.7051C6.76758 12.7637 6.78711 12.8223 6.82617 12.8613C6.86523 12.8711 6.91406 12.8613 6.96289 12.793L9.30664 10.5664C9.4043 10.459 9.36523 10.3223 9.21875 10.3223L8.18359 10.3223L8.62305 9.47266C8.66211 9.375 8.64258 9.29688 8.53516 9.29688ZM5.09766 9.85352L4.57031 10.7617C4.45312 10.9473 4.52148 11.1914 4.7168 11.3086C4.90234 11.416 5.14648 11.3477 5.25391 11.1621L5.78125 10.2441C5.88867 10.0586 5.83008 9.81445 5.63477 9.69727C5.43945 9.59961 5.20508 9.6582 5.09766 9.85352ZM10.5176 9.85352L9.98047 10.7617C9.88281 10.9473 9.94141 11.1914 10.1367 11.3086C10.3223 11.416 10.5664 11.3477 10.6738 11.1621L11.2012 10.2441C11.3086 10.0586 11.2402 9.81445 11.0547 9.69727C10.8691 9.59961 10.625 9.6582 10.5176 9.85352ZM4.74609 5.42969C4.07227 5.63477 3.56445 6.23047 3.56445 7.04102C3.56445 7.93945 4.21875 8.68164 5.37109 8.68164L10.0293 8.68164C11.2695 8.68164 12.207 7.71484 12.207 6.55273C12.207 5.32227 11.2109 4.42383 9.93164 4.42383C9.45312 3.51562 8.56445 2.91016 7.49023 2.91016C6.06445 2.91016 4.87305 4.0332 4.74609 5.42969Z" fill="var(--color-primary)"/>
 </g>
</svg>
