<?xml version="1.0" encoding="UTF-8"?>
<!--Generator: Apple Native CoreSVG 232.5-->
<!DOCTYPE svg
PUBLIC "-//W3C//DTD SVG 1.1//EN"
       "http://www.w3.org/Graphics/SVG/1.1/DTD/svg11.dtd">
<svg version="1.1" xmlns="http://www.w3.org/2000/svg" xmlns:xlink="http://www.w3.org/1999/xlink" width="23.3691" height="16.2793">
 <g>
  <rect height="16.2793" opacity="0" width="23.3691" x="0" y="0"/>
  <path d="M19.9609 11.5527L21.0547 12.6367C21.3379 12.9199 21.3379 13.3887 21.0547 13.6621C20.7715 13.9453 20.3027 13.9551 20.0293 13.6719L18.9258 12.5781C18.6426 12.2949 18.6523 11.8262 18.9258 11.5527C19.209 11.2793 19.6777 11.2793 19.9609 11.5527ZM19.2285 8.00781C19.2285 9.69244 18.1095 11.1445 16.5816 11.6503C16.582 11.6472 16.582 11.6439 16.582 11.6406C16.582 11.1909 16.5071 10.7636 16.3639 10.3703C17.2919 9.98357 17.9492 9.06254 17.9492 8.00781C17.9492 6.60156 16.7969 5.44922 15.3906 5.44922C14.0627 5.44922 12.9556 6.49114 12.8522 7.8031C12.7371 7.79048 12.6193 7.78471 12.5 7.7832C12.2963 7.40234 12.0549 7.05662 11.7801 6.75175C12.3021 5.24954 13.7362 4.16016 15.3906 4.16016C17.4902 4.16016 19.2285 5.89844 19.2285 8.00781ZM23.3691 8.00781C23.3691 8.4082 23.0469 8.74023 22.6465 8.74023L21.123 8.74023C20.7324 8.74023 20.3906 8.4082 20.3906 8.00781C20.3906 7.60742 20.7324 7.27539 21.123 7.27539L22.6465 7.27539C23.0469 7.27539 23.3691 7.60742 23.3691 8.00781ZM21.0547 2.34375C21.3379 2.62695 21.3379 3.10547 21.0547 3.38867L19.9707 4.47266C19.6777 4.75586 19.209 4.74609 18.9258 4.47266C18.6523 4.18945 18.6426 3.7207 18.9258 3.44727L20.0293 2.34375C20.3027 2.06055 20.7715 2.06055 21.0547 2.34375ZM10.7617 2.34375L11.8555 3.44727C12.1289 3.71094 12.1289 4.19922 11.8457 4.47266C11.5723 4.74609 11.1035 4.75586 10.8203 4.47266L9.73633 3.37891C9.46289 3.10547 9.46289 2.62695 9.74609 2.34375C10.0293 2.06055 10.4883 2.07031 10.7617 2.34375ZM16.123 0.732422L16.123 2.26562C16.123 2.65625 15.791 2.98828 15.3906 2.98828C15 2.98828 14.6582 2.65625 14.6582 2.26562L14.6582 0.732422C14.6582 0.332031 15 0 15.3906 0C15.791 0 16.123 0.332031 16.123 0.732422Z" fill="#ffffff" fill-opacity="0.55"/>
  <path d="M4.3457 15.5469L12.5977 15.5469C14.8438 15.5469 16.582 13.8477 16.582 11.6406C16.582 9.46289 14.8242 7.8125 12.5 7.7832C11.6016 6.10352 9.9707 5.10742 8.11523 5.10742C5.54688 5.10742 3.39844 7.06055 3.13477 9.58008C1.85547 9.99023 1.02539 11.123 1.02539 12.5098C1.02539 14.2969 2.37305 15.5469 4.3457 15.5469ZM4.30664 14.1406C3.07617 14.1406 2.43164 13.4473 2.43164 12.5488C2.43164 11.8164 2.83203 11.123 3.94531 10.8301C4.35547 10.7324 4.50195 10.5371 4.54102 10.1074C4.72656 7.98828 6.25 6.51367 8.11523 6.51367C9.50195 6.51367 10.6152 7.25586 11.3281 8.68164C11.5039 9.04297 11.7188 9.16992 12.1484 9.16992C14.1309 9.16992 15.1758 10.3223 15.1758 11.6797C15.1758 13.0469 14.0723 14.1406 12.6172 14.1406Z" fill="#ffffff" fill-opacity="0.85"/>
 </g>
</svg>
