<svg version="1.1" xmlns="http://www.w3.org/2000/svg" xmlns:xlink="http://www.w3.org/1999/xlink" width="17.9688" height="17.7441" viewBox="0 0 17.9688 17.7441">
 <g>
  <rect height="17.7441" opacity="0" width="17.9688" x="0" y="0"/>
  <path d="M12.832 17.3828L13.7793 15.7422C13.9355 15.4785 13.8477 15.1855 13.5938 15.0293C13.3301 14.8828 13.0371 14.9609 12.8809 15.2246L11.9336 16.875C11.7871 17.1191 11.8652 17.4219 12.1289 17.5684C12.3828 17.7148 12.6953 17.627 12.832 17.3828Z" fill="currentColor"/>
  <path d="M10.4492 15.2246L11.3965 13.584C11.543 13.3301 11.4648 13.0273 11.2109 12.8711C10.9473 12.7246 10.6543 12.8027 10.498 13.0664L9.55078 14.7168C9.4043 14.9609 9.48242 15.2637 9.74609 15.4102C10 15.5566 10.3125 15.4688 10.4492 15.2246Z" fill="currentColor"/>
  <path d="M6.74805 17.3828L7.69531 15.752C7.85156 15.4883 7.76367 15.1855 7.50977 15.0391C7.24609 14.8926 6.95312 14.9707 6.79688 15.2344L5.84961 16.8848C5.70312 17.1289 5.78125 17.4316 6.04492 17.5781C6.29883 17.7246 6.61133 17.6367 6.74805 17.3828Z" fill="currentColor"/>
  <path d="M4.36523 15.2344L5.3125 13.5938C5.45898 13.3301 5.38086 13.0371 5.12695 12.8809C4.86328 12.7344 4.57031 12.8125 4.41406 13.0762L3.45703 14.7266C3.32031 14.9707 3.39844 15.2734 3.66211 15.4199C3.91602 15.5664 4.22852 15.4785 4.36523 15.2344Z" fill="currentColor"/>
  <path d="M4.08203 11.6797L13.5449 11.6797C16.0938 11.6797 17.9688 9.74609 17.9688 7.36328C17.9688 4.88281 15.957 3.07617 13.3398 3.07617C12.3828 1.20117 10.5762 1.77636e-15 8.39844 1.77636e-15C5.48828 1.77636e-15 3.08594 2.25586 2.83203 5.09766C1.45508 5.49805 0.419922 6.72852 0.419922 8.34961C0.419922 10.1953 1.75781 11.6797 4.08203 11.6797ZM4.0625 10.2734C2.55859 10.2734 1.82617 9.46289 1.82617 8.38867C1.82617 7.55859 2.28516 6.76758 3.56445 6.42578C4.0332 6.30859 4.19922 6.08398 4.23828 5.5957C4.42383 3.125 6.23047 1.40625 8.39844 1.40625C10.0098 1.40625 11.3379 2.28516 12.1582 3.96484C12.3535 4.375 12.5977 4.52148 13.0957 4.52148C15.3711 4.52148 16.5625 5.83984 16.5625 7.39258C16.5625 8.99414 15.3027 10.2734 13.6328 10.2734Z" fill="currentColor"/>
 </g>
</svg>
