<?xml version="1.0" encoding="UTF-8"?>
<!--Generator: Apple Native CoreSVG 232.5-->
<!DOCTYPE svg
PUBLIC "-//W3C//DTD SVG 1.1//EN"
       "http://www.w3.org/Graphics/SVG/1.1/DTD/svg11.dtd">
<svg version="1.1" xmlns="http://www.w3.org/2000/svg" xmlns:xlink="http://www.w3.org/1999/xlink" width="14.5898" height="14.248">
 <g>
  <rect height="14.248" opacity="0" width="14.5898" x="0" y="0"/>
  <path d="M2.49023 14.248L11.7383 14.248C13.4082 14.248 14.2285 13.4277 14.2285 11.7871L14.2285 2.4707C14.2285 0.830078 13.4082 0.00976562 11.7383 0.00976562L2.49023 0.00976562C0.830078 0.00976562 0 0.830078 0 2.4707L0 11.7871C0 13.4277 0.830078 14.248 2.49023 14.248ZM2.50977 12.832C1.80664 12.832 1.40625 12.4609 1.40625 11.7188L1.40625 2.53906C1.40625 1.80664 1.80664 1.42578 2.50977 1.42578L11.7188 1.42578C12.4219 1.42578 12.8223 1.80664 12.8223 2.53906L12.8223 11.7188C12.8223 12.4609 12.4219 12.832 11.7188 12.832Z" fill="#ffffff" fill-opacity="0.85"/>
  <path d="M3.91602 7.20703C3.91602 8.56445 4.35547 9.61914 5.09766 10.2734L4.82422 11.3867C4.80469 11.4453 4.79492 11.5137 4.79492 11.5723C4.79492 11.8164 4.96094 11.9922 5.20508 11.9922C5.41016 11.9922 5.57617 11.8848 5.63477 11.6602L5.85938 10.7324C6.05469 10.8105 6.26953 10.8691 6.48438 10.9082L6.36719 11.3965C6.34766 11.4551 6.33789 11.5137 6.33789 11.5723C6.33789 11.8164 6.49414 11.9922 6.74805 11.9922C6.95312 11.9922 7.11914 11.8848 7.17773 11.6602L7.35352 10.957C8.60352 10.8887 9.49219 10.2344 9.84375 9.28711C9.89258 9.16016 9.92188 9.02344 9.92188 8.88672C9.92188 8.57422 9.7168 8.34961 9.39453 8.34961C9.10156 8.34961 8.92578 8.54492 8.83789 8.80859C8.65234 9.33594 8.21289 9.75586 7.61719 9.86328L8.71094 5.46875C8.74023 5.49805 8.7793 5.55664 8.81836 5.6543C8.91602 5.84961 9.02344 6.05469 9.32617 6.05469C9.64844 6.05469 9.85352 5.83984 9.85352 5.52734C9.85352 5.40039 9.82422 5.26367 9.77539 5.13672C9.62891 4.73633 9.375 4.39453 9.05273 4.11133L9.28711 3.1543C9.30664 3.08594 9.31641 3.02734 9.31641 2.96875C9.31641 2.72461 9.15039 2.55859 8.90625 2.55859C8.70117 2.55859 8.53516 2.65625 8.48633 2.89062L8.28125 3.66211C8.0957 3.58398 7.88086 3.53516 7.66602 3.49609L7.74414 3.1543C7.76367 3.08594 7.77344 3.02734 7.77344 2.96875C7.77344 2.72461 7.60742 2.55859 7.36328 2.55859C7.1582 2.55859 6.99219 2.65625 6.93359 2.89062L6.79688 3.4668C5.05859 3.61328 3.91602 5.04883 3.91602 7.20703ZM5.07812 7.20703C5.07812 5.83984 5.625 4.86328 6.51367 4.57031L5.44922 8.88672C5.21484 8.44727 5.07812 7.87109 5.07812 7.20703ZM6.12305 9.6582L7.41211 4.51172C7.62695 4.54102 7.8418 4.61914 8.02734 4.72656L6.74805 9.90234C6.50391 9.86328 6.30859 9.78516 6.12305 9.6582Z" fill="#ffffff" fill-opacity="0.85"/>
 </g>
</svg>
