<svg version="1.1" xmlns="http://www.w3.org/2000/svg" xmlns:xlink="http://www.w3.org/1999/xlink" width="16.1328" height="15.7715" viewBox="0 0 16.1328 15.7715">
 <g>
  <rect height="15.7715" opacity="0" width="16.1328" x="0" y="0"/>
  <path d="M7.88086 15.7617C12.1875 15.7617 15.7715 12.1875 15.7715 7.88086C15.7715 3.57422 12.1777 0 7.87109 0C3.57422 0 0 3.57422 0 7.88086C0 12.1875 3.58398 15.7617 7.88086 15.7617ZM7.88086 14.2773C4.33594 14.2773 1.50391 11.4355 1.50391 7.88086C1.50391 4.32617 4.32617 1.48438 7.87109 1.48438C11.4258 1.48438 14.2773 4.32617 14.2773 7.88086C14.2773 11.4355 11.4355 14.2773 7.88086 14.2773Z" fill="var(--color-primary)"/>
  <path d="M4.67773 7.96875C4.67773 9.32617 5.11719 10.3809 5.85938 11.0352L5.58594 12.1484C5.56641 12.207 5.55664 12.2754 5.55664 12.334C5.55664 12.5781 5.72266 12.7539 5.9668 12.7539C6.17188 12.7539 6.33789 12.6465 6.39648 12.4219L6.62109 11.4941C6.81641 11.5723 7.03125 11.6309 7.24609 11.6699L7.12891 12.1582C7.10938 12.2168 7.09961 12.2754 7.09961 12.334C7.09961 12.5781 7.25586 12.7539 7.50977 12.7539C7.71484 12.7539 7.88086 12.6465 7.93945 12.4219L8.11523 11.7188C9.35547 11.6504 10.2441 10.9961 10.6055 10.0488C10.6543 9.92188 10.6836 9.78516 10.6836 9.64844C10.6836 9.33594 10.4785 9.11133 10.1562 9.11133C9.86328 9.11133 9.6875 9.30664 9.59961 9.57031C9.41406 10.0977 8.96484 10.5176 8.37891 10.625L9.47266 6.23047C9.50195 6.25977 9.54102 6.31836 9.58008 6.41602C9.66797 6.61133 9.78516 6.81641 10.0879 6.81641C10.4102 6.81641 10.6152 6.60156 10.6152 6.28906C10.6152 6.16211 10.5859 6.02539 10.5371 5.89844C10.3809 5.49805 10.1367 5.15625 9.81445 4.87305L10.0488 3.91602C10.0684 3.84766 10.0781 3.78906 10.0781 3.73047C10.0781 3.48633 9.91211 3.32031 9.66797 3.32031C9.46289 3.32031 9.29688 3.41797 9.23828 3.65234L9.04297 4.42383C8.85742 4.3457 8.64258 4.29688 8.42773 4.25781L8.50586 3.91602C8.52539 3.84766 8.53516 3.78906 8.53516 3.73047C8.53516 3.48633 8.36914 3.32031 8.125 3.32031C7.91992 3.32031 7.75391 3.41797 7.69531 3.65234L7.55859 4.22852C5.82031 4.375 4.67773 5.81055 4.67773 7.96875ZM5.83984 7.96875C5.83984 6.60156 6.38672 5.625 7.27539 5.33203L6.21094 9.64844C5.9668 9.20898 5.83984 8.63281 5.83984 7.96875ZM6.88477 10.4199L8.16406 5.27344C8.38867 5.30273 8.59375 5.38086 8.78906 5.48828L7.5 10.6641C7.26562 10.625 7.06055 10.5469 6.88477 10.4199Z" fill="var(--color-primary)"/>
 </g>
</svg>
