<?xml version="1.0" encoding="UTF-8"?>
<!--Generator: Apple Native CoreSVG 232.5-->
<!DOCTYPE svg
PUBLIC "-//W3C//DTD SVG 1.1//EN"
       "http://www.w3.org/Graphics/SVG/1.1/DTD/svg11.dtd">
<svg version="1.1" xmlns="http://www.w3.org/2000/svg" xmlns:xlink="http://www.w3.org/1999/xlink" width="19.3262" height="15.498">
 <g>
  <rect height="15.498" opacity="0" width="19.3262" x="0" y="0"/>
  <path d="M2.46094 15.498L16.5039 15.498C18.1445 15.498 18.9648 14.6973 18.9648 13.0762L18.9648 2.43164C18.9648 0.810547 18.1445 0.00976562 16.5039 0.00976562L2.46094 0.00976562C0.820312 0.00976562 0 0.810547 0 2.43164L0 13.0762C0 14.6973 0.820312 15.498 2.46094 15.498ZM2.48047 14.0918C1.79688 14.0918 1.40625 13.7207 1.40625 12.998L1.40625 2.50977C1.40625 1.78711 1.79688 1.41602 2.48047 1.41602L16.4844 1.41602C17.168 1.41602 17.5488 1.78711 17.5488 2.50977L17.5488 12.998C17.5488 13.7207 17.168 14.0918 16.4844 14.0918ZM5.11719 7.20703C6.42578 7.20703 7.49023 6.13281 7.49023 4.83398C7.49023 3.52539 6.42578 2.45117 5.11719 2.45117C3.80859 2.45117 2.74414 3.52539 2.74414 4.83398C2.74414 6.13281 3.80859 7.20703 5.11719 7.20703ZM5.11719 6.40625C4.24805 6.40625 3.53516 5.69336 3.53516 4.83398C3.53516 3.96484 4.24805 3.25195 5.11719 3.25195C5.98633 3.25195 6.68945 3.96484 6.68945 4.83398C6.68945 5.69336 5.98633 6.40625 5.11719 6.40625ZM5.11719 6.00586C5.77148 6.00586 6.29883 5.48828 6.29883 4.83398C6.29883 4.16992 5.77148 3.65234 5.11719 3.65234C4.45312 3.65234 3.93555 4.16992 3.93555 4.83398C3.93555 5.48828 4.45312 6.00586 5.11719 6.00586ZM11.1426 7.20703C12.4414 7.20703 13.5156 6.13281 13.5156 4.83398C13.5156 3.52539 12.4414 2.45117 11.1426 2.45117C9.83398 2.45117 8.75977 3.52539 8.75977 4.83398C8.75977 6.13281 9.83398 7.20703 11.1426 7.20703ZM11.1426 6.40625C10.2734 6.40625 9.56055 5.69336 9.56055 4.83398C9.56055 3.96484 10.2734 3.25195 11.1426 3.25195C12.0117 3.25195 12.7148 3.96484 12.7148 4.83398C12.7148 5.69336 12.0117 6.40625 11.1426 6.40625ZM11.1426 6.00586C11.7969 6.00586 12.3145 5.48828 12.3145 4.83398C12.3145 4.16992 11.7969 3.65234 11.1426 3.65234C10.4785 3.65234 9.96094 4.16992 9.96094 4.83398C9.96094 5.48828 10.4785 6.00586 11.1426 6.00586ZM5.11719 13.0371C6.42578 13.0371 7.49023 11.9629 7.49023 10.6543C7.49023 9.35547 6.42578 8.28125 5.11719 8.28125C3.80859 8.28125 2.74414 9.35547 2.74414 10.6543C2.74414 11.9629 3.80859 13.0371 5.11719 13.0371ZM5.11719 12.2363C4.24805 12.2363 3.53516 11.5234 3.53516 10.6543C3.53516 9.79492 4.24805 9.08203 5.11719 9.08203C5.98633 9.08203 6.68945 9.79492 6.68945 10.6543C6.68945 11.5234 5.98633 12.2363 5.11719 12.2363ZM5.11719 11.8359C5.77148 11.8359 6.29883 11.3184 6.29883 10.6543C6.29883 10 5.77148 9.48242 5.11719 9.48242C4.45312 9.48242 3.93555 10 3.93555 10.6543C3.93555 11.3184 4.45312 11.8359 5.11719 11.8359ZM11.1426 13.0371C12.4414 13.0371 13.5156 11.9629 13.5156 10.6543C13.5156 9.35547 12.4414 8.28125 11.1426 8.28125C9.83398 8.28125 8.75977 9.35547 8.75977 10.6543C8.75977 11.9629 9.83398 13.0371 11.1426 13.0371ZM11.1426 12.2363C10.2734 12.2363 9.56055 11.5234 9.56055 10.6543C9.56055 9.79492 10.2734 9.08203 11.1426 9.08203C12.0117 9.08203 12.7148 9.79492 12.7148 10.6543C12.7148 11.5234 12.0117 12.2363 11.1426 12.2363ZM11.1426 11.8359C11.7969 11.8359 12.3145 11.3184 12.3145 10.6543C12.3145 10 11.7969 9.48242 11.1426 9.48242C10.4785 9.48242 9.96094 10 9.96094 10.6543C9.96094 11.3184 10.4785 11.8359 11.1426 11.8359ZM15.8496 5.10742C16.25 5.10742 16.5625 4.79492 16.5625 4.39453C16.5625 4.00391 16.25 3.68164 15.8496 3.68164C15.4492 3.68164 15.1367 4.00391 15.1367 4.39453C15.1367 4.79492 15.4492 5.10742 15.8496 5.10742ZM15.8496 7.34375C16.25 7.34375 16.5625 7.03125 16.5625 6.63086C16.5625 6.23047 16.25 5.91797 15.8496 5.91797C15.4492 5.91797 15.1367 6.23047 15.1367 6.63086C15.1367 7.03125 15.4492 7.34375 15.8496 7.34375ZM15.8496 9.58008C16.25 9.58008 16.5625 9.26758 16.5625 8.85742C16.5625 8.4668 16.25 8.1543 15.8496 8.1543C15.4492 8.1543 15.1367 8.4668 15.1367 8.85742C15.1367 9.26758 15.4492 9.58008 15.8496 9.58008ZM15.8496 11.8164C16.25 11.8164 16.5625 11.4941 16.5625 11.0938C16.5625 10.7031 16.25 10.3906 15.8496 10.3906C15.4492 10.3906 15.1367 10.7031 15.1367 11.0938C15.1367 11.4941 15.4492 11.8164 15.8496 11.8164Z" fill="#ffffff" fill-opacity="0.85"/>
 </g>
</svg>
