<?xml version="1.0" encoding="UTF-8"?>
<!--Generator: Apple Native CoreSVG 232.5-->
<!DOCTYPE svg
PUBLIC "-//W3C//DTD SVG 1.1//EN"
       "http://www.w3.org/Graphics/SVG/1.1/DTD/svg11.dtd">
<svg version="1.1" xmlns="http://www.w3.org/2000/svg" xmlns:xlink="http://www.w3.org/1999/xlink" width="16.1328" height="15.7715">
 <g>
  <rect height="15.7715" opacity="0" width="16.1328" x="0" y="0"/>
  <path d="M7.88086 15.7617C12.1875 15.7617 15.7715 12.1875 15.7715 7.88086C15.7715 3.57422 12.1777 0 7.87109 0C3.57422 0 0 3.57422 0 7.88086C0 12.1875 3.58398 15.7617 7.88086 15.7617ZM7.88086 14.2773C4.33594 14.2773 1.50391 11.4355 1.50391 7.88086C1.50391 4.32617 4.32617 1.48438 7.87109 1.48438C11.4258 1.48438 14.2773 4.32617 14.2773 7.88086C14.2773 11.4355 11.4355 14.2773 7.88086 14.2773Z" fill="#ffffff" fill-opacity="0.55"/>
  <path d="M4.70703 11.084L11.0449 11.084C11.8457 11.084 12.2461 10.6934 12.2461 9.90234L12.2461 7.08008L3.50586 7.08008L3.50586 9.90234C3.50586 10.6934 3.90625 11.084 4.70703 11.084ZM5.03906 9.92188C4.82422 9.92188 4.67773 9.77539 4.67773 9.56055L4.67773 8.87695C4.67773 8.67188 4.82422 8.52539 5.03906 8.52539L5.9375 8.52539C6.16211 8.52539 6.30859 8.67188 6.30859 8.87695L6.30859 9.56055C6.30859 9.77539 6.16211 9.92188 5.9375 9.92188ZM3.50586 6.23047L12.2461 6.23047L12.2461 5.87891C12.2461 5.08789 11.8457 4.69727 11.0449 4.69727L4.70703 4.69727C3.90625 4.69727 3.50586 5.08789 3.50586 5.87891Z" fill="#ffffff" fill-opacity="0.85"/>
 </g>
</svg>
