<svg version="1.1" xmlns="http://www.w3.org/2000/svg" xmlns:xlink="http://www.w3.org/1999/xlink" width="16.1328" height="15.7715" viewBox="0 0 16.1328 15.7715">
 <g>
  <rect height="15.7715" opacity="0" width="16.1328" x="0" y="0"/>
  <path d="M0 7.88086C0 9.11133 0.292969 10.2832 0.810547 11.3281L2.12891 10.0098C2.33398 9.81445 2.63672 9.81445 2.83203 10.0098C3.01758 10.2051 3.02734 10.5078 2.83203 10.7129L1.32812 12.2168C1.51367 12.4902 1.70898 12.7441 1.92383 12.9883L12.998 1.91406C12.7441 1.69922 12.4805 1.50391 12.2168 1.31836L10.6934 2.8418C10.498 3.04688 10.1953 3.03711 10 2.8418C9.79492 2.64648 9.79492 2.34375 10 2.14844L11.3281 0.820312C10.2832 0.283203 9.11133 0 7.87109 0C3.57422 0 0 3.57422 0 7.88086ZM9.51172 4.02344L8.4668 5.07812C8.26172 5.27344 7.95898 5.26367 7.76367 5.07812C7.57812 4.88281 7.56836 4.57031 7.76367 4.375L8.82812 3.33008C9.02344 3.13477 9.32617 3.125 9.51172 3.33008C9.7168 3.52539 9.7168 3.82812 9.51172 4.02344ZM7.29492 6.25977L6.23047 7.30469C6.04492 7.5 5.73242 7.5 5.54688 7.30469C5.3418 7.10938 5.3418 6.80664 5.54688 6.61133L6.5918 5.55664C6.79688 5.36133 7.09961 5.36133 7.29492 5.55664C7.48047 5.74219 7.49023 6.06445 7.29492 6.25977ZM5.05859 8.47656L4.01367 9.53125C3.80859 9.72656 3.50586 9.72656 3.31055 9.53125C3.11523 9.3457 3.125 9.04297 3.31055 8.83789L4.36523 7.7832C4.55078 7.57812 4.86328 7.58789 5.05859 7.7832C5.25391 7.97852 5.26367 8.28125 5.05859 8.47656ZM7.88086 15.7617C12.1875 15.7617 15.7715 12.1875 15.7715 7.88086C15.7715 6.66016 15.4785 5.47852 14.9609 4.44336L13.6328 5.75195C13.4277 5.95703 13.1348 5.94727 12.9395 5.75195C12.7539 5.55664 12.7344 5.26367 12.9395 5.04883L14.4434 3.55469C14.2676 3.29102 14.0723 3.02734 13.8574 2.7832L2.7832 13.8574C3.02734 14.0723 3.28125 14.2676 3.54492 14.4434L5.07812 12.9199C5.2832 12.7051 5.57617 12.7246 5.77148 12.9199C5.9668 13.1152 5.97656 13.4082 5.77148 13.6133L4.43359 14.9512C5.48828 15.4785 6.65039 15.7617 7.88086 15.7617ZM12.4609 6.92383L11.4062 7.97852C11.2207 8.18359 10.9082 8.17383 10.7031 7.97852C10.5176 7.7832 10.5078 7.48047 10.7031 7.28516L11.7578 6.23047C11.9531 6.03516 12.2559 6.03516 12.4609 6.23047C12.6562 6.41602 12.6465 6.71875 12.4609 6.92383ZM10.2246 9.15039L9.16992 10.2051C8.97461 10.4004 8.67188 10.4004 8.47656 10.2051C8.28125 10.0195 8.28125 9.69727 8.47656 9.50195L9.54102 8.45703C9.72656 8.26172 10.0391 8.26172 10.2246 8.45703C10.4297 8.65234 10.4297 8.95508 10.2246 9.15039ZM8.00781 11.3867L6.94336 12.4316C6.74805 12.627 6.44531 12.6367 6.25 12.4316C6.05469 12.2363 6.05469 11.9336 6.25 11.7383L7.30469 10.6836C7.5 10.4883 7.80273 10.498 8.00781 10.6836C8.19336 10.8789 8.20312 11.1914 8.00781 11.3867Z" fill="currentColor"/>
 </g>
</svg>
