<?xml version="1.0" encoding="UTF-8"?>
<!--Generator: Apple Native CoreSVG 232.5-->
<!DOCTYPE svg
PUBLIC "-//W3C//DTD SVG 1.1//EN"
       "http://www.w3.org/Graphics/SVG/1.1/DTD/svg11.dtd">
<svg version="1.1" xmlns="http://www.w3.org/2000/svg" xmlns:xlink="http://www.w3.org/1999/xlink" width="16.1328" height="15.7715">
 <g>
  <rect height="15.7715" opacity="0" width="16.1328" x="0" y="0"/>
  <path d="M15.7715 7.88086C15.7715 12.1875 12.1875 15.7617 7.88086 15.7617C3.58398 15.7617 0 12.1875 0 7.88086C0 3.57422 3.57422 0 7.87109 0C12.1777 0 15.7715 3.57422 15.7715 7.88086ZM5.12695 11.123C5.25391 11.2207 5.38086 11.3281 5.52734 11.4258L6.36719 10.6152C6.47461 10.498 6.63086 10.498 6.74805 10.6152C6.85547 10.7129 6.85547 10.8789 6.74805 10.9863L6.03516 11.7188C6.5918 11.9922 7.2168 12.1582 7.87109 12.1582C10.2051 12.1582 12.1387 10.2148 12.1387 7.89062C12.1387 7.22656 11.9824 6.60156 11.6992 6.04492L10.9961 6.72852C10.8984 6.83594 10.7324 6.83594 10.625 6.72852C10.5078 6.62109 10.5078 6.44531 10.625 6.33789L11.4258 5.55664C11.3281 5.41016 11.2207 5.27344 11.1035 5.13672ZM3.61328 7.89062C3.61328 8.54492 3.76953 9.16992 4.05273 9.72656L4.76562 9.02344C4.87305 8.92578 5.03906 8.92578 5.14648 9.02344C5.26367 9.14062 5.27344 9.30664 5.14648 9.42383L4.33594 10.2246C4.42383 10.3809 4.53125 10.5078 4.64844 10.6445L10.6348 4.6582C10.498 4.55078 10.3711 4.44336 10.2246 4.35547L9.4043 5.14648C9.29688 5.26367 9.14062 5.26367 9.02344 5.14648C8.91602 5.04883 8.92578 4.88281 9.02344 4.77539L9.72656 4.0625C9.16016 3.78906 8.53516 3.62305 7.87109 3.62305C5.54688 3.62305 3.61328 5.56641 3.61328 7.89062ZM7.94922 9.4043C8.06641 9.50195 8.06641 9.66797 7.94922 9.78516L7.38281 10.3516C7.27539 10.459 7.09961 10.459 7.00195 10.3516C6.89453 10.2344 6.89453 10.0879 7.00195 9.9707L7.56836 9.4043C7.67578 9.29688 7.8418 9.29688 7.94922 9.4043ZM9.16016 8.18359C9.26758 8.30078 9.26758 8.4668 9.16016 8.57422L8.59375 9.14062C8.47656 9.24805 8.31055 9.24805 8.19336 9.14062C8.0957 9.05273 8.0957 8.86719 8.19336 8.75977L8.7793 8.18359C8.87695 8.08594 9.0625 8.08594 9.16016 8.18359ZM6.35742 7.82227C6.45508 7.92969 6.45508 8.0957 6.35742 8.20312L5.79102 8.7793C5.68359 8.89648 5.51758 8.88672 5.40039 8.7793C5.29297 8.67188 5.29297 8.49609 5.40039 8.38867L5.9668 7.82227C6.08398 7.71484 6.25 7.71484 6.35742 7.82227ZM10.3613 6.97266C10.4688 7.08984 10.4688 7.26562 10.3613 7.37305L9.79492 7.93945C9.6875 8.04688 9.53125 8.04688 9.41406 7.93945C9.30664 7.83203 9.31641 7.66602 9.41406 7.55859L9.98047 6.97266C10.0879 6.86523 10.2539 6.875 10.3613 6.97266ZM7.56836 6.62109C7.66602 6.71875 7.66602 6.89453 7.56836 6.99219L6.98242 7.57812C6.89453 7.67578 6.70898 7.67578 6.61133 7.57812C6.50391 7.46094 6.50391 7.29492 6.61133 7.1875L7.17773 6.62109C7.29492 6.50391 7.46094 6.50391 7.56836 6.62109ZM8.75977 5.41016C8.87695 5.52734 8.87695 5.67383 8.75977 5.79102L8.19336 6.35742C8.08594 6.46484 7.92969 6.46484 7.82227 6.35742C7.70508 6.25977 7.70508 6.09375 7.82227 5.97656L8.38867 5.41016C8.49609 5.30273 8.66211 5.30273 8.75977 5.41016Z" fill="#ffffff" fill-opacity="0.85"/>
 </g>
</svg>
