<?xml version="1.0" encoding="UTF-8"?>
<!--Generator: Apple Native CoreSVG 232.5-->
<!DOCTYPE svg
PUBLIC "-//W3C//DTD SVG 1.1//EN"
       "http://www.w3.org/Graphics/SVG/1.1/DTD/svg11.dtd">
<svg version="1.1" xmlns="http://www.w3.org/2000/svg" xmlns:xlink="http://www.w3.org/1999/xlink" width="11.0156" height="18.6426">
 <g>
  <rect height="18.6426" opacity="0" width="11.0156" x="0" y="0"/>
  <path d="M2.79297 3.65234L7.85156 3.65234C8.74023 3.65234 9.27734 3.11523 9.27734 2.20703L9.27734 1.44531C9.27734 0.537109 8.74023 0 7.85156 0L2.79297 0C1.9043 0 1.37695 0.537109 1.37695 1.44531L1.37695 2.20703C1.37695 3.11523 1.9043 3.65234 2.79297 3.65234ZM2.8418 5.06836L7.8125 5.06836L7.8125 3.19336L2.8418 3.19336ZM2.54883 18.6133L8.0957 18.6133C9.62891 18.6133 10.6543 17.5879 10.6543 16.0254L10.6543 7.34375C10.6543 5.78125 9.62891 4.75586 8.0957 4.75586L2.54883 4.75586C1.02539 4.75586 0 5.78125 0 7.34375L0 16.0254C0 17.5879 1.02539 18.6133 2.54883 18.6133Z" fill="#ffffff" fill-opacity="0.25"/>
  <path d="M2.34375 12.2559L2.34375 11.1035C2.34375 10.7715 2.56836 10.5664 2.88086 10.5664L4.19922 10.5664L4.19922 9.25781C4.19922 8.92578 4.4043 8.70117 4.74609 8.70117L5.89844 8.70117C6.24023 8.70117 6.44531 8.92578 6.44531 9.25781L6.44531 10.5664L7.75391 10.5664C8.07617 10.5664 8.31055 10.7715 8.31055 11.1035L8.31055 12.2559C8.31055 12.5977 8.07617 12.8027 7.75391 12.8027L6.44531 12.8027L6.44531 14.1113C6.44531 14.4434 6.24023 14.668 5.89844 14.668L4.74609 14.668C4.4043 14.668 4.19922 14.4434 4.19922 14.1113L4.19922 12.8027L2.88086 12.8027C2.56836 12.8027 2.34375 12.5977 2.34375 12.2559Z" fill="#ffffff" fill-opacity="0.85"/>
 </g>
</svg>
