<svg version="1.1" xmlns="http://www.w3.org/2000/svg" xmlns:xlink="http://www.w3.org/1999/xlink" width="11.4844" height="14.0723" viewBox="0 0 11.4844 14.0723">
 <g>
  <rect height="14.0723" opacity="0" width="11.4844" x="0" y="0"/>
  <path d="M5.92773 14.0723C8.4668 14.0723 10.2832 12.8418 10.9961 10.9668C11.084 10.7422 11.123 10.5078 11.123 10.2734C11.123 9.81445 10.8203 9.50195 10.3516 9.50195C9.89258 9.50195 9.66797 9.75586 9.50195 10.2148C9.04297 11.5918 7.65625 12.5293 5.92773 12.5293C3.4375 12.5293 1.77734 10.4102 1.77734 7.02148C1.77734 3.68164 3.44727 1.58203 5.92773 1.58203C7.53906 1.58203 8.93555 2.53906 9.38477 3.91602C9.55078 4.42383 9.76562 4.61914 10.2246 4.61914C10.6934 4.61914 11.0059 4.31641 11.0059 3.84766C11.0059 3.62305 10.9668 3.38867 10.8789 3.16406C10.166 1.2793 8.22266 0.0390625 5.92773 0.0390625C2.38281 0.0390625 0 2.75391 0 7.02148C0 11.3379 2.35352 14.0723 5.92773 14.0723ZM5 13.3984L6.13281 13.3984L6.13281 10.1953C6.13281 8.7207 7.12891 7.69531 8.56445 7.69531C8.74023 7.69531 8.93555 7.73438 9.0625 7.73438C9.77539 7.73438 9.84375 6.83594 9.18945 6.58203C8.96484 6.48438 8.75 6.45508 8.51562 6.45508C7.33398 6.45508 6.42578 7.17773 6.14258 8.10547L6.11328 8.10547L6.11328 7.06055C6.11328 6.69922 5.88867 6.46484 5.56641 6.46484C5.23438 6.46484 5 6.69922 5 7.06055Z" fill="var(--color-primary)"/>
 </g>
</svg>
