<svg version="1.1" xmlns="http://www.w3.org/2000/svg" xmlns:xlink="http://www.w3.org/1999/xlink" width="16.1328" height="15.7715" viewBox="0 0 16.1328 15.7715">
 <g>
  <rect height="15.7715" opacity="0" width="16.1328" x="0" y="0"/>
  <path d="M7.88086 15.7617C12.1875 15.7617 15.7715 12.1875 15.7715 7.88086C15.7715 3.57422 12.1777 0 7.87109 0C3.57422 0 0 3.57422 0 7.88086C0 12.1875 3.58398 15.7617 7.88086 15.7617ZM7.88086 14.2773C4.33594 14.2773 1.50391 11.4355 1.50391 7.88086C1.50391 4.32617 4.32617 1.48438 7.87109 1.48438C11.4258 1.48438 14.2773 4.32617 14.2773 7.88086C14.2773 11.4355 11.4355 14.2773 7.88086 14.2773Z" fill="var(--color-primary)"/>
  <path d="M4.6875 7.89062C4.6875 10.2051 5.95703 11.6504 7.87109 11.6504C9.24805 11.6504 10.2246 10.9766 10.6055 9.96094C10.6543 9.83398 10.6836 9.70703 10.6836 9.57031C10.6836 9.25781 10.4785 9.05273 10.1562 9.05273C9.86328 9.05273 9.70703 9.19922 9.59961 9.49219C9.4043 10.0977 8.82812 10.5273 8.10547 10.6055L8.10547 9.52148C8.10547 8.82812 8.56445 8.34961 9.18945 8.34961C9.29688 8.34961 9.41406 8.34961 9.48242 8.34961C9.73633 8.34961 9.91211 8.20312 9.91211 7.98828C9.91211 7.68555 9.62891 7.5 9.21875 7.5C8.76953 7.5 8.32031 7.73438 8.0957 8.19336L8.0957 7.88086C8.0957 7.61719 7.91992 7.45117 7.68555 7.45117C7.44141 7.45117 7.26562 7.63672 7.26562 7.88086L7.26562 10.5176C6.37695 10.2246 5.83984 9.25781 5.83984 7.89062C5.83984 6.24023 6.64062 5.16602 7.86133 5.16602C8.63281 5.16602 9.27734 5.63477 9.54102 6.28906C9.63867 6.5625 9.78516 6.73828 10.0977 6.73828C10.4102 6.73828 10.625 6.5332 10.625 6.2207C10.625 6.08398 10.5957 5.94727 10.5469 5.82031C10.166 4.80469 9.11133 4.13086 7.87109 4.13086C5.9668 4.13086 4.6875 5.60547 4.6875 7.89062Z" fill="var(--color-primary)"/>
 </g>
</svg>
