<?xml version="1.0" encoding="UTF-8"?>
<!--Generator: Apple Native CoreSVG 232.5-->
<!DOCTYPE svg
PUBLIC "-//W3C//DTD SVG 1.1//EN"
       "http://www.w3.org/Graphics/SVG/1.1/DTD/svg11.dtd">
<svg version="1.1" xmlns="http://www.w3.org/2000/svg" xmlns:xlink="http://www.w3.org/1999/xlink" width="16.0059" height="17.0996">
 <g>
  <rect height="17.0996" opacity="0" width="16.0059" x="0" y="0"/>
  <path d="M8.36914 6.13281L8.36914 7.85156L15.0293 4.04297C14.9023 3.91602 14.7461 3.81836 14.5703 3.7207L9.35547 0.722656C9.02344 0.537109 8.69141 0.410156 8.36914 0.332031L8.36914 2.23633L7.1875 2.23633L7.1875 0.361328C6.88477 0.429688 6.5918 0.546875 6.29883 0.722656L1.07422 3.7207C0.898438 3.81836 0.751953 3.91602 0.615234 4.04297L7.1875 7.80273L7.1875 6.13281ZM7.1875 5.13672L7.1875 3.24219L8.36914 3.24219L8.36914 5.13672ZM8.38867 17.0996C8.44727 17.0801 8.48633 17.0605 8.53516 17.0312L14.4629 13.623C14.7266 13.4668 14.9707 13.3008 15.1465 13.1152L13.6621 12.3828L14.1992 11.3184L15.6152 12.0117C15.6348 11.8652 15.6445 11.6992 15.6445 11.5234L15.6445 5.64453C15.6445 5.41016 15.625 5.19531 15.5762 5.00977L9.05273 8.78906L10.6543 9.57031L10.127 10.6348L8.38867 9.78516ZM12.6367 11.875L11.1719 11.1426L11.6992 10.0781L13.1641 10.8008ZM7.25586 17.0996L7.25586 9.78516L5.51758 10.6348L4.99023 9.57031L6.60156 8.78906L0.0683594 5.00977C0.0195312 5.19531 0 5.41016 0 5.64453L0 11.5234C0 11.6992 0.00976562 11.8652 0.0292969 12.0117L1.44531 11.3184L1.98242 12.3828L0.498047 13.1152C0.673828 13.3008 0.917969 13.4668 1.18164 13.623L7.10938 17.0312C7.1582 17.0605 7.20703 17.0801 7.25586 17.0996ZM3.00781 11.875L2.48047 10.8008L3.94531 10.0781L4.47266 11.1426Z" fill="#ffffff" fill-opacity="0.85"/>
 </g>
</svg>
