<svg version="1.1" xmlns="http://www.w3.org/2000/svg" xmlns:xlink="http://www.w3.org/1999/xlink" width="20.1465" height="17.0605" viewBox="0 0 20.1465 17.0605">
 <g>
  <rect height="17.0605" opacity="0" width="20.1465" x="0" y="0"/>
  <path d="M2.35352 0.712891L2.97852 0.712891L2.97852 2.11914L2.35352 2.11914C2.12891 2.4707 1.72852 2.70508 1.28906 2.70508C0.576172 2.70508 0 2.11914 0 1.41602C0 0.712891 0.576172 0.126953 1.28906 0.126953C1.72852 0.126953 2.12891 0.361328 2.35352 0.712891ZM19.7852 1.41602C19.7852 2.11914 19.1992 2.70508 18.4961 2.70508C18.0566 2.70508 17.6465 2.4707 17.4219 2.11914L16.8066 2.11914L16.8066 0.712891L17.4219 0.712891C17.6465 0.361328 18.0566 0.126953 18.4961 0.126953C19.1992 0.126953 19.7852 0.712891 19.7852 1.41602ZM10.459 2.11914L9.31641 2.11914L9.31641 0.712891L10.459 0.712891Z" fill="var(--color-secondary)"/>
  <path d="M3.56445 16.3672L8.74023 16.3672C9.07227 16.3672 9.31641 16.123 9.31641 15.7812L9.31641 0.585938C9.31641 0.244141 9.07227 0 8.74023 0L3.56445 0C3.22266 0 2.97852 0.244141 2.97852 0.585938L2.97852 15.7812C2.97852 16.123 3.22266 16.3672 3.56445 16.3672ZM11.0449 16.3672L16.2207 16.3672C16.5527 16.3672 16.8066 16.123 16.8066 15.7812L16.8066 0.585938C16.8066 0.244141 16.5527 0 16.2207 0L11.0449 0C10.7129 0 10.459 0.244141 10.459 0.585938L10.459 15.7812C10.459 16.123 10.7129 16.3672 11.0449 16.3672Z" fill="var(--color-primary)"/>
 </g>
</svg>
