<?xml version="1.0" encoding="UTF-8"?>
<!--Generator: Apple Native CoreSVG 232.5-->
<!DOCTYPE svg
PUBLIC "-//W3C//DTD SVG 1.1//EN"
       "http://www.w3.org/Graphics/SVG/1.1/DTD/svg11.dtd">
<svg version="1.1" xmlns="http://www.w3.org/2000/svg" xmlns:xlink="http://www.w3.org/1999/xlink" width="14.5898" height="14.248">
 <g>
  <rect height="14.248" opacity="0" width="14.5898" x="0" y="0"/>
  <path d="M2.49023 14.248L11.7383 14.248C13.4082 14.248 14.2285 13.4277 14.2285 11.7871L14.2285 2.4707C14.2285 0.830078 13.4082 0.00976562 11.7383 0.00976562L2.49023 0.00976562C0.830078 0.00976562 0 0.830078 0 2.4707L0 11.7871C0 13.4277 0.830078 14.248 2.49023 14.248Z" fill="#ffffff" fill-opacity="0.25"/>
  <path d="M5.07812 10.6738C4.60938 10.6738 4.36523 10.3418 4.36523 9.85352L4.36523 4.20898C4.36523 3.7207 4.60938 3.38867 5.07812 3.38867L7.08984 3.38867C9.42383 3.38867 10.6836 4.6582 10.6836 7.01172C10.6836 9.375 9.4043 10.6738 7.08984 10.6738ZM5.76172 9.57031L6.93359 9.57031C8.45703 9.57031 9.24805 8.7207 9.24805 7.03125C9.24805 5.37109 8.44727 4.49219 6.93359 4.49219L5.76172 4.49219Z" fill="#ffffff" fill-opacity="0.85"/>
 </g>
</svg>
