<?xml version="1.0" encoding="UTF-8"?>
<!--Generator: Apple Native CoreSVG 232.5-->
<!DOCTYPE svg
PUBLIC "-//W3C//DTD SVG 1.1//EN"
       "http://www.w3.org/Graphics/SVG/1.1/DTD/svg11.dtd">
<svg version="1.1" xmlns="http://www.w3.org/2000/svg" xmlns:xlink="http://www.w3.org/1999/xlink" width="16.1328" height="15.7715">
 <g>
  <rect height="15.7715" opacity="0" width="16.1328" x="0" y="0"/>
  <path d="M7.88086 15.7617C12.1875 15.7617 15.7715 12.1875 15.7715 7.88086C15.7715 3.57422 12.1777 0 7.87109 0C3.57422 0 0 3.57422 0 7.88086C0 12.1875 3.58398 15.7617 7.88086 15.7617Z" fill="#ffffff" fill-opacity="0.25"/>
  <path d="M4.81445 11.2207C4.49219 11.2207 4.22852 10.957 4.22852 10.6348L4.22852 5.10742C4.22852 4.78516 4.49219 4.52148 4.81445 4.52148C5.13672 4.52148 5.41016 4.78516 5.41016 5.10742L5.41016 8.35938L5.42969 8.35938L7.05078 6.51367C7.31445 6.20117 7.67578 6.26953 7.87109 6.46484C8.04688 6.64062 8.10547 6.92383 7.86133 7.17773L6.64062 8.45703L7.8418 10.2344C8.0957 10.5957 7.98828 10.918 7.77344 11.0742C7.5293 11.25 7.13867 11.2305 6.9043 10.8691L5.80078 9.16992L5.41016 9.55078L5.41016 10.6348C5.41016 10.957 5.13672 11.2207 4.81445 11.2207ZM9.38477 11.2207C9.08203 11.2207 8.82812 10.9766 8.82812 10.6738L8.82812 6.85547C8.82812 6.5625 9.07227 6.32812 9.36523 6.32812C9.6582 6.32812 9.89258 6.5625 9.89258 6.85547L9.89258 7.27539L9.93164 7.27539C10.0195 6.78711 10.332 6.32812 10.8203 6.32812C10.9961 6.32812 11.123 6.38672 11.2305 6.48438C11.3184 6.58203 11.3672 6.70898 11.3672 6.88477C11.3672 7.06055 11.3086 7.17773 11.2305 7.27539C11.084 7.39258 10.8691 7.44141 10.6543 7.44141C10.0977 7.44141 9.93164 7.89062 9.93164 8.4375L9.93164 10.6738C9.93164 10.9766 9.67773 11.2207 9.38477 11.2207ZM11.7578 11.1816C11.377 11.1816 11.084 10.8887 11.084 10.5078C11.084 10.1465 11.377 9.84375 11.7578 9.84375C12.1191 9.84375 12.4121 10.1465 12.4121 10.5078C12.4121 10.8887 12.1191 11.1816 11.7578 11.1816Z" fill="#ffffff" fill-opacity="0.85"/>
 </g>
</svg>
