<?xml version="1.0" encoding="UTF-8"?>
<!--Generator: Apple Native CoreSVG 232.5-->
<!DOCTYPE svg
PUBLIC "-//W3C//DTD SVG 1.1//EN"
       "http://www.w3.org/Graphics/SVG/1.1/DTD/svg11.dtd">
<svg version="1.1" xmlns="http://www.w3.org/2000/svg" xmlns:xlink="http://www.w3.org/1999/xlink" width="17.6218" height="15.7715">
 <g>
  <rect height="15.7715" opacity="0" width="17.6218" x="0" y="0"/>
  <path d="M9.37242 15.7617C13.6791 15.7617 17.263 12.1875 17.263 7.88086C17.263 3.57422 13.6791 0 9.37242 0C5.06578 0 1.49156 3.56445 1.49156 7.87109L2.9857 7.87109C2.9857 4.31641 5.81773 1.49414 9.37242 1.49414C12.9271 1.49414 15.7689 4.32617 15.7689 7.88086C15.7689 11.4355 12.9271 14.2969 9.37242 14.2773C7.28258 14.2676 5.43687 13.291 4.28453 11.7578C4.02086 11.3965 3.60094 11.2891 3.23961 11.5137C2.87828 11.7285 2.79039 12.2168 3.08336 12.5977C4.55797 14.502 6.83336 15.7617 9.37242 15.7617ZM0.602889 6.35742C-0.0123451 6.35742-0.158829 6.77734 0.173202 7.24609L1.91148 9.7168C2.18492 10.0977 2.59508 10.0977 2.85875 9.7168L4.59703 7.23633C4.9193 6.77734 4.76305 6.35742 4.15758 6.35742Z" fill="#ffffff" fill-opacity="0.55"/>
  <path d="M6.43297 11.0938C6.74547 11.0938 6.99937 10.8398 6.99937 10.5371L6.99937 9.49219L7.38023 9.13086L8.44469 10.7617C8.67906 11.1133 9.04039 11.1328 9.27476 10.957C9.48961 10.8105 9.58726 10.498 9.35289 10.1465L8.19078 8.4375L9.36265 7.20703C9.6068 6.95312 9.5482 6.67969 9.37242 6.52344C9.18687 6.32812 8.83531 6.26953 8.5814 6.5625L7.0189 8.33984L6.99937 8.33984L6.99937 5.20508C6.99937 4.89258 6.74547 4.63867 6.43297 4.63867C6.12047 4.63867 5.86656 4.89258 5.86656 5.20508L5.86656 10.5371C5.86656 10.8398 6.12047 11.0938 6.43297 11.0938ZM10.8275 11.1035C11.1205 11.1035 11.3646 10.8594 11.3646 10.5664L11.3646 8.41797C11.3646 7.89062 11.5209 7.46094 12.058 7.46094C12.263 7.46094 12.4681 7.41211 12.6048 7.29492C12.683 7.20703 12.7416 7.08008 12.7416 6.92383C12.7416 6.75781 12.6927 6.63086 12.6048 6.5332C12.5072 6.43555 12.3802 6.37695 12.224 6.37695C11.7455 6.37695 11.4427 6.82617 11.3646 7.29492L11.3255 7.29492L11.3255 6.89453C11.3255 6.61133 11.1009 6.37695 10.8177 6.37695C10.5248 6.37695 10.3002 6.61133 10.3002 6.89453L10.3002 10.5664C10.3002 10.8594 10.5345 11.1035 10.8275 11.1035ZM13.1127 11.0547C13.4642 11.0547 13.7572 10.7715 13.7572 10.4102C13.7572 10.0586 13.4642 9.77539 13.1127 9.77539C12.7513 9.77539 12.4681 10.0586 12.4681 10.4102C12.4681 10.7715 12.7513 11.0547 13.1127 11.0547Z" fill="#ffffff" fill-opacity="0.85"/>
 </g>
</svg>
