<?xml version="1.0" encoding="UTF-8"?>
<!--Generator: Apple Native CoreSVG 232.5-->
<!DOCTYPE svg
PUBLIC "-//W3C//DTD SVG 1.1//EN"
       "http://www.w3.org/Graphics/SVG/1.1/DTD/svg11.dtd">
<svg version="1.1" xmlns="http://www.w3.org/2000/svg" xmlns:xlink="http://www.w3.org/1999/xlink" width="17.4219" height="22.041">
 <g>
  <rect height="22.041" opacity="0" width="17.4219" x="0" y="0"/>
  <path d="M10.0488 4.18945C9.84375 4.62891 9.36523 5.55664 9.36523 6.70898C9.36523 9.02344 11.0449 10.6445 13.3887 10.6445C13.7952 10.6445 14.1816 10.5962 14.541 10.5011L14.541 16.416C14.541 17.7393 14.0009 18.5225 12.9102 18.7707L12.9102 19.5703C12.9102 19.9902 12.627 20.2734 12.207 20.2734C11.7871 20.2734 11.5039 19.9902 11.5039 19.5703L11.5039 18.8574L5.55664 18.8574L5.55664 19.5703C5.55664 19.9902 5.27344 20.2734 4.85352 20.2734C4.43359 20.2734 4.15039 19.9902 4.15039 19.5703L4.15039 18.7707C3.05962 18.5225 2.51953 17.7393 2.51953 16.416L2.51953 4.18945C2.51953 2.54883 3.35938 1.74805 5 1.74805L11.3949 1.74805C10.895 2.56282 10.3867 3.45161 10.0488 4.18945ZM5.12695 15.6543C4.82422 15.6543 4.58984 15.8984 4.58984 16.2012C4.58984 16.5039 4.82422 16.748 5.12695 16.748L7.39258 16.748C7.70508 16.748 7.93945 16.5039 7.93945 16.2012C7.93945 15.8984 7.70508 15.6543 7.39258 15.6543ZM9.6582 15.6543C9.35547 15.6543 9.12109 15.8984 9.12109 16.2012C9.12109 16.5039 9.35547 16.748 9.6582 16.748L11.9238 16.748C12.2363 16.748 12.4707 16.5039 12.4707 16.2012C12.4707 15.8984 12.2363 15.6543 11.9238 15.6543ZM5.12695 13.6426C4.82422 13.6426 4.58984 13.877 4.58984 14.1797C4.58984 14.4922 4.82422 14.7266 5.12695 14.7266L7.39258 14.7266C7.70508 14.7266 7.93945 14.4922 7.93945 14.1797C7.93945 13.877 7.70508 13.6426 7.39258 13.6426ZM9.6582 13.6426C9.35547 13.6426 9.12109 13.877 9.12109 14.1797C9.12109 14.4922 9.35547 14.7266 9.6582 14.7266L11.9238 14.7266C12.2363 14.7266 12.4707 14.4922 12.4707 14.1797C12.4707 13.877 12.2363 13.6426 11.9238 13.6426ZM5.12695 11.6211C4.82422 11.6211 4.58984 11.8652 4.58984 12.168C4.58984 12.4707 4.82422 12.7148 5.12695 12.7148L7.39258 12.7148C7.70508 12.7148 7.93945 12.4707 7.93945 12.168C7.93945 11.8652 7.70508 11.6211 7.39258 11.6211ZM9.6582 11.6211C9.35547 11.6211 9.12109 11.8652 9.12109 12.168C9.12109 12.4707 9.35547 12.7148 9.6582 12.7148L11.9238 12.7148C12.2363 12.7148 12.4707 12.4707 12.4707 12.168C12.4707 11.8652 12.2363 11.6211 11.9238 11.6211ZM4.59961 5.01953C4.59961 5.66406 5.11719 6.18164 5.75195 6.18164C6.39648 6.18164 6.91406 5.66406 6.91406 5.01953C6.91406 4.39453 6.39648 3.86719 5.75195 3.86719C5.11719 3.86719 4.59961 4.39453 4.59961 5.01953Z" fill="#ffffff" fill-opacity="0.85"/>
  <path d="M13.3887 9.50195C15.1172 9.50195 16.2793 8.37891 16.2793 6.70898C16.2793 5.84961 15.918 5.13672 15.7031 4.6582C15.2441 3.67188 14.4824 2.41211 13.8379 1.41602C13.7012 1.23047 13.5547 1.14258 13.3887 1.14258C13.2227 1.14258 13.0859 1.23047 12.9492 1.41602C12.3047 2.41211 11.543 3.67188 11.084 4.6582C10.8691 5.13672 10.498 5.84961 10.498 6.70898C10.498 8.37891 11.6699 9.50195 13.3887 9.50195Z" fill="#ffffff" fill-opacity="0.85"/>
 </g>
</svg>
