<svg version="1.1" xmlns="http://www.w3.org/2000/svg" xmlns:xlink="http://www.w3.org/1999/xlink" width="16.0938" height="17.627" viewBox="0 0 16.0938 17.627">
 <g>
  <rect height="17.627" opacity="0" width="16.0938" x="0" y="0"/>
  <path d="M7.87109 7.72461C12.5879 7.72461 15.7324 6.18164 15.7324 3.86719C15.7324 1.55273 12.5879 0 7.87109 0C3.14453 0 0 1.55273 0 3.86719C0 6.18164 3.14453 7.72461 7.87109 7.72461ZM7.87109 6.31836C3.99414 6.31836 1.40625 5.33203 1.40625 3.86719C1.40625 2.39258 3.99414 1.41602 7.87109 1.41602C11.7383 1.41602 14.3262 2.39258 14.3262 3.86719C14.3262 5.33203 11.7383 6.31836 7.87109 6.31836ZM7.87109 11.6211C12.8027 11.6211 15.7324 10.2539 15.7324 6.97266L15.7324 3.86719L14.3262 3.86719L14.3262 6.97266C14.3262 9.375 11.9141 10.2148 7.87109 10.2148C3.81836 10.2148 1.40625 9.375 1.40625 6.97266L1.40625 3.86719L0 3.86719L0 6.97266C0 10.2539 2.92969 11.6211 7.87109 11.6211ZM3.4375 7.86133L3.4375 6.48438L2.30469 6.48438L2.30469 7.86133C2.30469 8.17383 2.55859 8.42773 2.87109 8.42773C3.18359 8.42773 3.4375 8.17383 3.4375 7.86133ZM5.78125 8.36914L5.78125 6.98242L4.64844 6.98242L4.64844 8.36914C4.64844 8.68164 4.90234 8.93555 5.21484 8.93555C5.52734 8.93555 5.78125 8.68164 5.78125 8.36914ZM8.32031 8.56445L8.32031 7.17773L7.1875 7.17773L7.1875 8.56445C7.1875 8.87695 7.44141 9.13086 7.75391 9.13086C8.06641 9.13086 8.32031 8.87695 8.32031 8.56445ZM10.8594 8.36914L10.8594 6.98242L9.72656 6.98242L9.72656 8.36914C9.72656 8.68164 9.98047 8.93555 10.293 8.93555C10.6055 8.93555 10.8594 8.68164 10.8594 8.36914ZM13.2031 7.86133L13.2031 6.48438L12.0703 6.48438L12.0703 7.86133C12.0703 8.17383 12.3242 8.42773 12.6367 8.42773C12.9492 8.42773 13.2031 8.17383 13.2031 7.86133Z" fill="var(--color-primary)"/>
  <path d="M14.1016 15.1562C14.1016 14.7559 13.7598 14.3652 13.2324 14.5605C11.8262 15.0684 10.2441 15.332 8.53516 15.332C6.83594 15.332 5.25391 15.0684 3.84766 14.5605L3.4082 15.8008C4.96094 16.3574 6.68945 16.6504 8.53516 16.6504C10.3906 16.6504 12.1191 16.3477 13.6719 15.8008C13.9746 15.6934 14.1016 15.4199 14.1016 15.1562ZM4.15039 17.207L5.37109 13.8086C5.57617 13.2617 5.0293 12.8516 4.58008 13.0078L1.8457 13.9648C1.45508 14.1016 1.31836 14.4824 1.5332 14.834L3.04688 17.334C3.30078 17.7441 3.95508 17.7246 4.15039 17.207Z" fill="var(--color-primary)"/>
 </g>
</svg>
