<?xml version="1.0" encoding="UTF-8"?>
<!--Generator: Apple Native CoreSVG 232.5-->
<!DOCTYPE svg
PUBLIC "-//W3C//DTD SVG 1.1//EN"
       "http://www.w3.org/Graphics/SVG/1.1/DTD/svg11.dtd">
<svg version="1.1" xmlns="http://www.w3.org/2000/svg" xmlns:xlink="http://www.w3.org/1999/xlink" width="16.1328" height="15.7715">
 <g>
  <rect height="15.7715" opacity="0" width="16.1328" x="0" y="0"/>
  <path d="M15.7715 7.89062C15.7715 12.1973 12.1875 15.7715 7.88086 15.7715C3.58398 15.7715 0 12.1973 0 7.89062C0 3.58398 3.57422 0.00976562 7.87109 0.00976562C12.1777 0.00976562 15.7715 3.58398 15.7715 7.89062ZM4.27734 11.1035L4.27734 11.1914C4.27734 11.7871 4.6582 12.1973 5.26367 12.1973L10.4395 12.1973C11.0352 12.1973 11.416 11.7871 11.416 11.1914L11.416 11.1035ZM4.27734 6.24023L4.27734 10.498L11.416 10.498L11.416 6.24023ZM9.08203 7.27539C9.08203 7.41211 8.99414 7.51953 8.85742 7.51953L6.8457 7.51953C6.69922 7.51953 6.61133 7.41211 6.61133 7.27539C6.61133 7.12891 6.69922 7.04102 6.8457 7.04102L8.85742 7.04102C8.99414 7.04102 9.08203 7.12891 9.08203 7.27539ZM5.26367 3.54492C4.6582 3.54492 4.27734 3.95508 4.27734 4.55078L4.27734 5.63477L11.416 5.63477L11.416 4.55078C11.416 3.95508 11.0352 3.54492 10.4395 3.54492ZM7.22656 4.79492C7.22656 4.99023 7.06055 5.15625 6.85547 5.15625C6.64062 5.15625 6.48438 4.99023 6.48438 4.79492C6.48438 4.58008 6.64062 4.41406 6.85547 4.41406C7.06055 4.41406 7.22656 4.58008 7.22656 4.79492ZM6.12305 4.77539C6.13281 4.96094 5.99609 5.12695 5.80078 5.13672C5.60547 5.14648 5.43945 5 5.42969 4.81445C5.41992 4.60938 5.56641 4.44336 5.76172 4.43359C5.95703 4.42383 6.11328 4.57031 6.12305 4.77539Z" fill="#ffffff" fill-opacity="0.85"/>
 </g>
</svg>
