<svg version="1.1" xmlns="http://www.w3.org/2000/svg" xmlns:xlink="http://www.w3.org/1999/xlink" width="20.4297" height="18.0762" viewBox="0 0 20.4297 18.0762">
 <g>
  <rect height="18.0762" opacity="0" width="20.4297" x="0" y="0"/>
  <path d="M8.11523 18.0762C8.45703 18.0762 8.75 17.8125 8.75 17.4707L8.75 0.595703C8.75 0.263672 8.45703 0 8.11523 0C7.77344 0 7.4707 0.263672 7.4707 0.595703L7.4707 17.4707C7.4707 17.8125 7.77344 18.0762 8.11523 18.0762ZM19.4238 18.0762C19.7656 18.0762 20.0684 17.8125 20.0684 17.4707L20.0684 0.595703C20.0684 0.263672 19.7656 0 19.4238 0C19.0918 0 18.7891 0.263672 18.7891 0.595703L18.7891 17.4707C18.7891 17.8125 19.0918 18.0762 19.4238 18.0762Z" fill="var(--color-primary)"/>
  <path d="M1.875 16.5527L4.4043 16.5527C5.63477 16.5527 6.2793 15.8887 6.2793 14.6387L6.2793 3.42773C6.2793 2.17773 5.63477 1.52344 4.4043 1.52344L1.875 1.52344C0.654297 1.52344 0 2.17773 0 3.42773L0 14.6387C0 15.8887 0.654297 16.5527 1.875 16.5527ZM13.1836 13.7793L15.7227 13.7793C16.9434 13.7793 17.5977 13.125 17.5977 11.875L17.5977 6.19141C17.5977 4.94141 16.9434 4.28711 15.7227 4.28711L13.1836 4.28711C11.9629 4.28711 11.3086 4.94141 11.3086 6.19141L11.3086 11.875C11.3086 13.125 11.9629 13.7793 13.1836 13.7793Z" fill="var(--color-secondary)"/>
 </g>
</svg>
