<?xml version="1.0" encoding="UTF-8"?>
<!--Generator: Apple Native CoreSVG 232.5-->
<!DOCTYPE svg
PUBLIC "-//W3C//DTD SVG 1.1//EN"
       "http://www.w3.org/Graphics/SVG/1.1/DTD/svg11.dtd">
<svg version="1.1" xmlns="http://www.w3.org/2000/svg" xmlns:xlink="http://www.w3.org/1999/xlink" width="16.1328" height="15.7715">
 <g>
  <rect height="15.7715" opacity="0" width="16.1328" x="0" y="0"/>
  <path d="M7.88086 15.7617C12.1875 15.7617 15.7715 12.1875 15.7715 7.88086C15.7715 3.57422 12.1777 0 7.87109 0C3.57422 0 0 3.57422 0 7.88086C0 12.1875 3.58398 15.7617 7.88086 15.7617ZM7.88086 14.2773C4.33594 14.2773 1.50391 11.4355 1.50391 7.88086C1.50391 4.32617 4.32617 1.48438 7.87109 1.48438C11.4258 1.48438 14.2773 4.32617 14.2773 7.88086C14.2773 11.4355 11.4355 14.2773 7.88086 14.2773Z" fill="#ffffff" fill-opacity="0.55"/>
  <path d="M6.08398 12.0312L10.0488 12.0312C10.9277 12.0312 11.3672 11.5723 11.3672 10.6934L11.3672 7.49023L8.32031 7.49023C7.76367 7.49023 7.5 7.22656 7.5 6.66992L7.5 3.56445L6.08398 3.56445C5.20508 3.56445 4.76562 4.01367 4.76562 4.90234L4.76562 10.6934C4.76562 11.582 5.20508 12.0312 6.08398 12.0312ZM8.36914 6.81641L11.3281 6.81641C11.2988 6.63086 11.1621 6.44531 10.9375 6.21094L8.76953 3.99414C8.55469 3.76953 8.35938 3.63281 8.16406 3.60352L8.16406 6.62109C8.16406 6.74805 8.24219 6.81641 8.36914 6.81641Z" fill="#ffffff" fill-opacity="0.85"/>
 </g>
</svg>
