<svg version="1.1" xmlns="http://www.w3.org/2000/svg" xmlns:xlink="http://www.w3.org/1999/xlink" width="10.0586" height="17.3926" viewBox="0 0 10.0586 17.3926">
 <g>
  <rect height="17.3926" opacity="0" width="10.0586" x="0" y="0"/>
  <path d="M4.89258 15.5273C7.45117 15.5273 9.69727 14.2188 9.69727 11.6699C9.69727 9.74609 8.47656 8.61328 5.75195 7.94922L4.29688 7.59766C2.72461 7.2168 1.99219 6.55273 1.99219 5.49805C1.99219 4.4043 2.99805 3.41797 4.89258 3.41797C6.35742 3.41797 7.32422 4.07227 7.79297 5.39062C7.93945 5.84961 8.24219 6.08398 8.67188 6.08398C9.18945 6.08398 9.49219 5.74219 9.49219 5.23438C9.49219 5.11719 9.47266 4.98047 9.43359 4.83398C8.94531 3.04688 7.14844 1.86523 4.89258 1.86523C2.1582 1.86523 0.263672 3.37891 0.263672 5.60547C0.263672 7.46094 1.46484 8.60352 4.04297 9.22852L5.49805 9.58008C7.29492 10.0195 7.96875 10.6348 7.96875 11.8066C7.96875 13.2031 6.88477 13.9746 4.91211 13.9746C3.18359 13.9746 2.09961 13.3105 1.69922 11.9727C1.5332 11.5137 1.25 11.2793 0.810547 11.2793C0.302734 11.2793 0 11.6211 0 12.1387C0 12.2559 0.0195312 12.3926 0.0585938 12.5293C0.566406 14.4531 2.62695 15.5273 4.89258 15.5273ZM4.85352 17.3926C5.22461 17.3926 5.50781 17.0996 5.50781 16.7383L5.50781 0.673828C5.50781 0.302734 5.22461 0.00976562 4.85352 0.00976562C4.48242 0.00976562 4.19922 0.302734 4.19922 0.673828L4.19922 16.7383C4.19922 17.0996 4.48242 17.3926 4.85352 17.3926Z" fill="currentColor"/>
 </g>
</svg>
