<?xml version="1.0" encoding="UTF-8"?>
<!--Generator: Apple Native CoreSVG 232.5-->
<!DOCTYPE svg
PUBLIC "-//W3C//DTD SVG 1.1//EN"
       "http://www.w3.org/Graphics/SVG/1.1/DTD/svg11.dtd">
<svg version="1.1" xmlns="http://www.w3.org/2000/svg" xmlns:xlink="http://www.w3.org/1999/xlink" width="16.1328" height="15.7715">
 <g>
  <rect height="15.7715" opacity="0" width="16.1328" x="0" y="0"/>
  <path d="M7.88086 15.7617C12.1875 15.7617 15.7715 12.1875 15.7715 7.88086C15.7715 3.57422 12.1777 0 7.87109 0C3.57422 0 0 3.57422 0 7.88086C0 12.1875 3.58398 15.7617 7.88086 15.7617Z" fill="#ffffff" fill-opacity="0.25"/>
  <path d="M7.89062 12.4609C7.64648 12.4609 7.4707 12.2852 7.4707 12.041L7.4707 11.4941C6.43555 11.3867 5.53711 10.8203 5.29297 9.90234C5.2832 9.82422 5.26367 9.73633 5.26367 9.64844C5.26367 9.3457 5.47852 9.13086 5.78125 9.13086C6.03516 9.13086 6.2207 9.25781 6.32812 9.56055C6.46484 10.0293 6.81641 10.3906 7.4707 10.498L7.4707 8.28125L7.43164 8.26172C6.10352 7.94922 5.41016 7.33398 5.41016 6.28906C5.41016 5.17578 6.25977 4.42383 7.4707 4.27734L7.4707 3.73047C7.4707 3.48633 7.64648 3.32031 7.89062 3.32031C8.125 3.32031 8.30078 3.48633 8.30078 3.73047L8.30078 4.27734C9.31641 4.4043 10.1172 4.99023 10.3418 5.85938C10.3613 5.94727 10.3809 6.03516 10.3809 6.12305C10.3809 6.42578 10.166 6.64062 9.86328 6.64062C9.58008 6.64062 9.4043 6.47461 9.31641 6.21094C9.14062 5.70312 8.79883 5.40039 8.30078 5.30273L8.30078 7.40234L8.37891 7.41211C9.76562 7.64648 10.4883 8.32031 10.4883 9.43359C10.4883 10.6836 9.51172 11.3867 8.30078 11.5039L8.30078 12.041C8.30078 12.2852 8.125 12.4609 7.89062 12.4609ZM7.4707 7.17773L7.4707 5.30273C6.85547 5.41992 6.51367 5.80078 6.51367 6.23047C6.51367 6.66016 6.77734 6.95312 7.41211 7.16797ZM8.30078 8.48633L8.30078 10.498C9.0625 10.4004 9.38477 10.0098 9.38477 9.50195C9.38477 9.04297 9.16992 8.73047 8.4668 8.53516Z" fill="#ffffff" fill-opacity="0.85"/>
 </g>
</svg>
