<?xml version="1.0" encoding="UTF-8"?>
<!--Generator: Apple Native CoreSVG 232.5-->
<!DOCTYPE svg
PUBLIC "-//W3C//DTD SVG 1.1//EN"
       "http://www.w3.org/Graphics/SVG/1.1/DTD/svg11.dtd">
<svg version="1.1" xmlns="http://www.w3.org/2000/svg" xmlns:xlink="http://www.w3.org/1999/xlink" width="16.1328" height="15.7715">
 <g>
  <rect height="15.7715" opacity="0" width="16.1328" x="0" y="0"/>
  <path d="M7.88086 15.7617C12.1875 15.7617 15.7715 12.1875 15.7715 7.88086C15.7715 3.57422 12.1777 0 7.87109 0C3.57422 0 0 3.57422 0 7.88086C0 12.1875 3.58398 15.7617 7.88086 15.7617Z" fill="#ffffff" fill-opacity="0.25"/>
  <path d="M4.94141 8.17383C4.94141 6.67969 5.91797 5.63477 7.27539 5.63477C7.91992 5.63477 8.4668 5.86914 8.81836 6.26953L8.81836 5.06836L7.37305 5.06836C7.14844 5.06836 6.97266 4.89258 6.97266 4.64844C6.97266 4.41406 7.13867 4.23828 7.37305 4.23828L8.81836 4.23828L8.81836 3.89648C8.81836 3.54492 9.04297 3.33008 9.375 3.33008C9.70703 3.33008 9.93164 3.54492 9.93164 3.89648L9.93164 4.23828L10.4297 4.23828C10.6641 4.23828 10.8301 4.41406 10.8301 4.64844C10.8301 4.89258 10.6543 5.06836 10.4297 5.06836L9.93164 5.06836L9.93164 10.2734C9.93164 10.6055 9.7168 10.8203 9.4043 10.8203C9.0918 10.8203 8.86719 10.6055 8.86719 10.2734L8.86719 10.0488C8.49609 10.4785 7.92969 10.7129 7.28516 10.7129C5.92773 10.7129 4.94141 9.6582 4.94141 8.17383ZM6.09375 8.18359C6.09375 9.0918 6.64062 9.70703 7.48047 9.70703C8.28125 9.70703 8.85742 9.0625 8.85742 8.18359C8.85742 7.28516 8.28125 6.66016 7.48047 6.66016C6.64062 6.66016 6.09375 7.25586 6.09375 8.18359ZM5.39062 11.6602C5.39062 11.4258 5.56641 11.2402 5.81055 11.2402L9.75586 11.2402C10.0098 11.2402 10.1855 11.416 10.1855 11.6602C10.1855 11.9043 10 12.0801 9.75586 12.0801L5.81055 12.0801C5.57617 12.0801 5.39062 11.9043 5.39062 11.6602Z" fill="#ffffff" fill-opacity="0.85"/>
 </g>
</svg>
