<?xml version="1.0" encoding="UTF-8"?>
<!--Generator: Apple Native CoreSVG 232.5-->
<!DOCTYPE svg
PUBLIC "-//W3C//DTD SVG 1.1//EN"
       "http://www.w3.org/Graphics/SVG/1.1/DTD/svg11.dtd">
<svg version="1.1" xmlns="http://www.w3.org/2000/svg" xmlns:xlink="http://www.w3.org/1999/xlink" width="23.0664" height="16.4355">
 <g>
  <rect height="16.4355" opacity="0" width="23.0664" x="0" y="0"/>
  <path d="M0.703125 16.4258C1.09375 16.4258 1.40625 16.1035 1.40625 15.7227L1.40625 1.81641C1.40625 1.57227 1.5625 1.40625 1.79688 1.40625L20.8984 1.40625C21.1328 1.40625 21.2891 1.57227 21.2891 1.81641L21.2891 15.7227C21.2891 16.1035 21.6113 16.4258 22.002 16.4258C22.3828 16.4258 22.7051 16.1035 22.7051 15.7227L22.7051 1.73828C22.7051 0.703125 21.9922 0 20.918 0L1.77734 0C0.712891 0 0 0.703125 0 1.73828L0 15.7227C0 16.1035 0.322266 16.4258 0.703125 16.4258Z" fill="#ffffff" fill-opacity="0.85"/>
  <path d="M2.65625 5.66406L20.0488 5.66406C20.2051 5.66406 20.3418 5.53711 20.3418 5.38086L20.3418 2.65625C20.3418 2.5 20.2051 2.36328 20.0488 2.36328L2.65625 2.36328C2.5 2.36328 2.36328 2.5 2.36328 2.65625L2.36328 5.38086C2.36328 5.53711 2.5 5.66406 2.65625 5.66406ZM9.69727 4.4043C9.47266 4.4043 9.31641 4.24805 9.31641 4.01367C9.31641 3.78906 9.47266 3.63281 9.69727 3.63281L12.998 3.63281C13.2324 3.63281 13.3887 3.78906 13.3887 4.01367C13.3887 4.24805 13.2324 4.4043 12.998 4.4043Z" fill="#ffffff" fill-opacity="0.85"/>
 </g>
</svg>
