<svg version="1.1" xmlns="http://www.w3.org/2000/svg" xmlns:xlink="http://www.w3.org/1999/xlink" width="14.5898" height="14.248" viewBox="0 0 14.5898 14.248">
 <g>
  <rect height="14.248" opacity="0" width="14.5898" x="0" y="0"/>
  <path d="M2.49023 14.248L11.7383 14.248C13.4082 14.248 14.2285 13.4277 14.2285 11.7871L14.2285 2.4707C14.2285 0.830078 13.4082 0.00976562 11.7383 0.00976562L2.49023 0.00976562C0.830078 0.00976562 0 0.830078 0 2.4707L0 11.7871C0 13.4277 0.830078 14.248 2.49023 14.248Z" fill="var(--color-tertiary)"/>
  <path d="M7.13867 9.58984C5.78125 9.58984 4.6582 8.47656 4.6582 7.10938C4.6582 5.76172 5.78125 4.64844 7.13867 4.64844C8.47656 4.64844 9.59961 5.76172 9.59961 7.10938C9.59961 8.47656 8.47656 9.58984 7.13867 9.58984Z" fill="var(--color-primary)"/>
 </g>
</svg>
