<?xml version="1.0" encoding="UTF-8"?>
<!--Generator: Apple Native CoreSVG 232.5-->
<!DOCTYPE svg
PUBLIC "-//W3C//DTD SVG 1.1//EN"
       "http://www.w3.org/Graphics/SVG/1.1/DTD/svg11.dtd">
<svg version="1.1" xmlns="http://www.w3.org/2000/svg" xmlns:xlink="http://www.w3.org/1999/xlink" width="17.373" height="12.6465">
 <g>
  <rect height="12.6465" opacity="0" width="17.373" x="0" y="0"/>
  <path d="M2.49023 12.6465L14.5215 12.6465C16.1914 12.6465 17.0117 11.8359 17.0117 10.1953L17.0117 2.46094C17.0117 0.820312 16.1914 0.00976562 14.5215 0.00976562L2.49023 0.00976562C0.830078 0.00976562 0 0.820312 0 2.46094L0 10.1953C0 11.8359 0.830078 12.6465 2.49023 12.6465ZM2.50977 11.2402C1.80664 11.2402 1.40625 10.8594 1.40625 10.1172L1.40625 2.53906C1.40625 1.79688 1.80664 1.41602 2.50977 1.41602L14.502 1.41602C15.2051 1.41602 15.6055 1.79688 15.6055 2.53906L15.6055 10.1172C15.6055 10.8594 15.2051 11.2402 14.502 11.2402Z" fill="#ffffff" fill-opacity="0.55"/>
  <path d="M5.67383 9.69727C7.07031 9.69727 7.99805 8.78906 7.99805 7.44141C7.99805 6.73828 7.71484 6.18164 7.53906 5.78125C7.16797 4.99023 6.55273 3.97461 6.03516 3.17383C5.92773 3.00781 5.81055 2.93945 5.67383 2.93945C5.53711 2.93945 5.41992 3.00781 5.3125 3.17383C4.79492 3.97461 4.17969 4.99023 3.80859 5.78125C3.63281 6.18164 3.33008 6.73828 3.33008 7.44141C3.33008 8.78906 4.27734 9.69727 5.67383 9.69727ZM10.4395 4.88281C10.9473 4.88281 11.3672 4.46289 11.3672 3.95508C11.3672 3.44727 10.9473 3.02734 10.4395 3.02734C9.93164 3.02734 9.51172 3.44727 9.51172 3.95508C9.51172 4.46289 9.93164 4.88281 10.4395 4.88281ZM13.0762 4.88281C13.584 4.88281 14.0039 4.46289 14.0039 3.95508C14.0039 3.44727 13.584 3.02734 13.0762 3.02734C12.5684 3.02734 12.1484 3.44727 12.1484 3.95508C12.1484 4.46289 12.5684 4.88281 13.0762 4.88281ZM10.4395 7.24609C10.9473 7.24609 11.3672 6.82617 11.3672 6.31836C11.3672 5.81055 10.9473 5.39062 10.4395 5.39062C9.93164 5.39062 9.51172 5.81055 9.51172 6.31836C9.51172 6.82617 9.93164 7.24609 10.4395 7.24609ZM13.0762 7.24609C13.584 7.24609 14.0039 6.82617 14.0039 6.31836C14.0039 5.81055 13.584 5.39062 13.0762 5.39062C12.5684 5.39062 12.1484 5.81055 12.1484 6.31836C12.1484 6.82617 12.5684 7.24609 13.0762 7.24609ZM10.4395 9.60938C10.9473 9.60938 11.3672 9.18945 11.3672 8.68164C11.3672 8.17383 10.9473 7.75391 10.4395 7.75391C9.93164 7.75391 9.51172 8.17383 9.51172 8.68164C9.51172 9.18945 9.93164 9.60938 10.4395 9.60938ZM13.0762 9.60938C13.584 9.60938 14.0039 9.18945 14.0039 8.68164C14.0039 8.17383 13.584 7.75391 13.0762 7.75391C12.5684 7.75391 12.1484 8.17383 12.1484 8.68164C12.1484 9.18945 12.5684 9.60938 13.0762 9.60938Z" fill="#ffffff" fill-opacity="0.85"/>
 </g>
</svg>
