<?xml version="1.0" encoding="UTF-8"?>
<!--Generator: Apple Native CoreSVG 232.5-->
<!DOCTYPE svg
PUBLIC "-//W3C//DTD SVG 1.1//EN"
       "http://www.w3.org/Graphics/SVG/1.1/DTD/svg11.dtd">
<svg version="1.1" xmlns="http://www.w3.org/2000/svg" xmlns:xlink="http://www.w3.org/1999/xlink" width="16.1328" height="15.7715">
 <g>
  <rect height="15.7715" opacity="0" width="16.1328" x="0" y="0"/>
  <path d="M7.88086 15.7617C12.1875 15.7617 15.7715 12.1875 15.7715 7.88086C15.7715 3.57422 12.1777 0 7.87109 0C3.57422 0 0 3.57422 0 7.88086C0 12.1875 3.58398 15.7617 7.88086 15.7617ZM7.88086 14.2773C4.33594 14.2773 1.50391 11.4355 1.50391 7.88086C1.50391 4.32617 4.32617 1.48438 7.87109 1.48438C11.4258 1.48438 14.2773 4.32617 14.2773 7.88086C14.2773 11.4355 11.4355 14.2773 7.88086 14.2773Z" fill="#ffffff" fill-opacity="0.85"/>
  <path d="M6.14258 11.3086L9.72656 11.3086C10.0586 11.3086 10.3027 11.084 10.3027 10.7422C10.3027 10.3809 10.0586 10.1758 9.72656 10.1758L6.8457 10.1758L6.8457 8.28125L9.53125 8.28125C9.86328 8.28125 10.0977 8.10547 10.0977 7.75391C10.0977 7.40234 9.86328 7.20703 9.53125 7.20703L6.8457 7.20703L6.8457 5.41016L9.72656 5.41016C10.0586 5.41016 10.3027 5.19531 10.3027 4.84375C10.3027 4.49219 10.0586 4.27734 9.72656 4.27734L6.14258 4.27734C5.69336 4.27734 5.44922 4.59961 5.44922 5.06836L5.44922 10.5176C5.44922 10.9863 5.69336 11.3086 6.14258 11.3086Z" fill="#ffffff" fill-opacity="0.85"/>
 </g>
</svg>
