<svg version="1.1" xmlns="http://www.w3.org/2000/svg" xmlns:xlink="http://www.w3.org/1999/xlink" width="16.1328" height="15.7715" viewBox="0 0 16.1328 15.7715">
 <g>
  <rect height="15.7715" opacity="0" width="16.1328" x="0" y="0"/>
  <path d="M7.88086 15.7617C12.1875 15.7617 15.7715 12.1875 15.7715 7.88086C15.7715 3.57422 12.1777 0 7.87109 0C3.57422 0 0 3.57422 0 7.88086C0 12.1875 3.58398 15.7617 7.88086 15.7617ZM7.88086 14.2773C4.33594 14.2773 1.50391 11.4355 1.50391 7.88086C1.50391 4.32617 4.32617 1.48438 7.87109 1.48438C11.4258 1.48438 14.2773 4.32617 14.2773 7.88086C14.2773 11.4355 11.4355 14.2773 7.88086 14.2773Z" fill="var(--color-primary)"/>
  <path d="M4.94141 11.0547L10.8105 11.0547C11.3184 11.0547 11.6113 10.791 11.6113 10.2832L11.6113 9.81445C11.6113 9.31641 11.3184 9.05273 10.8105 9.05273L4.94141 9.05273C4.43359 9.05273 4.14062 9.31641 4.14062 9.81445L4.14062 10.2832C4.14062 10.791 4.43359 11.0547 4.94141 11.0547ZM4.73633 8.10547L11.0059 8.10547C11.3379 8.10547 11.5332 7.93945 11.5332 7.63672C11.5332 7.5 11.4551 7.36328 11.3379 7.23633L8.38867 4.01367C8.25195 3.85742 8.08594 3.75 7.87109 3.75C7.66602 3.75 7.49023 3.87695 7.36328 4.01367L4.39453 7.23633C4.27734 7.35352 4.20898 7.5 4.21875 7.63672C4.24805 7.93945 4.39453 8.10547 4.73633 8.10547Z" fill="var(--color-primary)"/>
 </g>
</svg>
