<?xml version="1.0" encoding="UTF-8"?>
<!--Generator: Apple Native CoreSVG 232.5-->
<!DOCTYPE svg
PUBLIC "-//W3C//DTD SVG 1.1//EN"
       "http://www.w3.org/Graphics/SVG/1.1/DTD/svg11.dtd">
<svg version="1.1" xmlns="http://www.w3.org/2000/svg" xmlns:xlink="http://www.w3.org/1999/xlink" width="16.1328" height="15.7715">
 <g>
  <rect height="15.7715" opacity="0" width="16.1328" x="0" y="0"/>
  <path d="M15.7715 7.88086C15.7715 12.1875 12.1875 15.7617 7.88086 15.7617C3.58398 15.7617 0 12.1875 0 7.88086C0 3.57422 3.57422 0 7.87109 0C12.1777 0 15.7715 3.57422 15.7715 7.88086ZM10.4199 7.88086C10.4199 8.54492 10.957 9.08203 11.6211 9.08203C12.2754 9.08203 12.8223 8.54492 12.8223 7.88086C12.8223 7.2168 12.2754 6.67969 11.6211 6.67969C10.957 6.67969 10.4199 7.2168 10.4199 7.88086ZM6.67969 7.88086C6.67969 8.54492 7.2168 9.08203 7.88086 9.08203C8.54492 9.08203 9.0918 8.54492 9.0918 7.88086C9.0918 7.2168 8.54492 6.67969 7.88086 6.67969C7.2168 6.67969 6.67969 7.2168 6.67969 7.88086ZM2.94922 7.88086C2.94922 8.54492 3.49609 9.08203 4.15039 9.08203C4.81445 9.08203 5.35156 8.54492 5.35156 7.88086C5.35156 7.2168 4.80469 6.67969 4.15039 6.67969C3.49609 6.67969 2.94922 7.2168 2.94922 7.88086Z" fill="#ffffff" fill-opacity="0.85"/>
 </g>
</svg>
