<?xml version="1.0" encoding="UTF-8"?>
<!--Generator: Apple Native CoreSVG 232.5-->
<!DOCTYPE svg
PUBLIC "-//W3C//DTD SVG 1.1//EN"
       "http://www.w3.org/Graphics/SVG/1.1/DTD/svg11.dtd">
<svg version="1.1" xmlns="http://www.w3.org/2000/svg" xmlns:xlink="http://www.w3.org/1999/xlink" width="17.3828" height="17.041">
 <g>
  <rect height="17.041" opacity="0" width="17.3828" x="0" y="0"/>
  <path d="M4.90234 17.041C5.33203 17.041 5.625 16.8164 6.15234 16.3379L8.76953 13.9941L13.3594 13.9941C15.7617 13.9941 17.0215 12.6953 17.0215 10.332L17.0215 4.64844C17.0215 2.28516 15.7617 0.986328 13.3594 0.986328L3.66211 0.986328C1.25977 0.986328 0 2.28516 0 4.64844L0 10.332C0 12.6953 1.25977 13.9941 3.66211 13.9941L3.94531 13.9941L3.94531 15.9375C3.94531 16.6113 4.28711 17.041 4.90234 17.041ZM5.26367 15.4395L5.26367 13.2422C5.26367 12.7637 5.08789 12.5879 4.60938 12.5879L3.66211 12.5879C2.08984 12.5879 1.40625 11.8359 1.40625 10.332L1.40625 4.64844C1.40625 3.1543 2.08984 2.40234 3.66211 2.40234L13.3594 2.40234C14.9316 2.40234 15.6152 3.1543 15.6152 4.64844L15.6152 10.332C15.6152 11.8359 14.9316 12.5879 13.3594 12.5879L8.69141 12.5879C8.22266 12.5879 7.97852 12.6562 7.66602 12.9883Z" fill="#ffffff" fill-opacity="0.85"/>
  <path d="M12.3633 8.64258C12.998 8.64258 13.5156 8.125 13.5156 7.49023C13.5156 6.85547 12.998 6.33789 12.3633 6.33789C11.7285 6.33789 11.2109 6.85547 11.2109 7.49023C11.2109 8.125 11.7285 8.64258 12.3633 8.64258Z" fill="#ffffff" fill-opacity="0.85"/>
  <path d="M8.50586 8.64258C9.14062 8.64258 9.6582 8.125 9.6582 7.49023C9.6582 6.85547 9.14062 6.33789 8.50586 6.33789C7.87109 6.33789 7.35352 6.85547 7.35352 7.49023C7.35352 8.125 7.87109 8.64258 8.50586 8.64258Z" fill="#ffffff" fill-opacity="0.85"/>
  <path d="M4.6582 8.64258C5.29297 8.64258 5.81055 8.125 5.81055 7.49023C5.81055 6.85547 5.29297 6.33789 4.6582 6.33789C4.02344 6.33789 3.50586 6.85547 3.50586 7.49023C3.50586 8.125 4.02344 8.64258 4.6582 8.64258Z" fill="#ffffff" fill-opacity="0.85"/>
 </g>
</svg>
