<?xml version="1.0" encoding="UTF-8"?>
<!--Generator: Apple Native CoreSVG 232.5-->
<!DOCTYPE svg
PUBLIC "-//W3C//DTD SVG 1.1//EN"
       "http://www.w3.org/Graphics/SVG/1.1/DTD/svg11.dtd">
<svg version="1.1" xmlns="http://www.w3.org/2000/svg" xmlns:xlink="http://www.w3.org/1999/xlink" width="13.916" height="16.3965">
 <g>
  <rect height="16.3965" opacity="0" width="13.916" x="0" y="0"/>
  <path d="M12.2363 2.45117L12.2363 10.1953L10.8301 10.1953L10.8301 2.5293C10.8301 1.78711 10.4297 1.40625 9.72656 1.40625L3.82812 1.40625C3.125 1.40625 2.72461 1.78711 2.72461 2.5293L2.72461 13.8281C2.72461 14.5703 3.125 14.9512 3.82812 14.9512L9.72656 14.9512C10.4297 14.9512 10.8301 14.5703 10.8301 13.8281L10.8301 13.5547L12.2363 13.5547L12.2363 13.9062C12.2363 15.5469 11.416 16.3574 9.74609 16.3574L3.80859 16.3574C2.14844 16.3574 1.31836 15.5469 1.31836 13.9062L1.31836 2.45117C1.31836 0.810547 2.14844 0 3.80859 0L9.74609 0C11.416 0 12.2363 0.820312 12.2363 2.45117Z" fill="#ffffff" fill-opacity="0.55"/>
  <path d="M5.37109 7.59766C5.37109 8.125 4.96094 8.53516 4.44336 8.53516C3.93555 8.53516 3.52539 8.125 3.52539 7.59766C3.52539 7.09961 3.93555 6.67969 4.44336 6.67969C4.96094 6.67969 5.37109 7.09961 5.37109 7.59766ZM7.71484 7.59766C7.71484 8.125 7.30469 8.53516 6.77734 8.53516C6.25977 8.53516 5.85938 8.125 5.85938 7.59766C5.85938 7.09961 6.25977 6.67969 6.77734 6.67969C7.30469 6.67969 7.71484 7.09961 7.71484 7.59766ZM10.0391 7.59766C10.0391 8.125 9.63867 8.53516 9.12109 8.53516C8.60352 8.53516 8.19336 8.125 8.19336 7.59766C8.19336 7.09961 8.60352 6.67969 9.12109 6.67969C9.63867 6.67969 10.0391 7.09961 10.0391 7.59766ZM5.37109 5.35156C5.37109 5.86914 4.96094 6.2793 4.44336 6.2793C3.93555 6.2793 3.52539 5.86914 3.52539 5.35156C3.52539 4.83398 3.93555 4.42383 4.44336 4.42383C4.96094 4.42383 5.37109 4.83398 5.37109 5.35156ZM7.71484 5.35156C7.71484 5.86914 7.30469 6.2793 6.77734 6.2793C6.25977 6.2793 5.85938 5.86914 5.85938 5.35156C5.85938 4.83398 6.25977 4.42383 6.77734 4.42383C7.30469 4.42383 7.71484 4.83398 7.71484 5.35156ZM10.0391 5.35156C10.0391 5.86914 9.63867 6.2793 9.12109 6.2793C8.60352 6.2793 8.19336 5.86914 8.19336 5.35156C8.19336 4.83398 8.60352 4.42383 9.12109 4.42383C9.63867 4.42383 10.0391 4.83398 10.0391 5.35156ZM5.37109 3.125C5.37109 3.61328 4.96094 4.0332 4.44336 4.0332C3.93555 4.0332 3.52539 3.61328 3.52539 3.125C3.52539 2.59766 3.93555 2.1875 4.44336 2.1875C4.96094 2.1875 5.37109 2.59766 5.37109 3.125ZM7.71484 3.125C7.71484 3.61328 7.30469 4.0332 6.77734 4.0332C6.25977 4.0332 5.85938 3.61328 5.85938 3.125C5.85938 2.59766 6.25977 2.1875 6.77734 2.1875C7.30469 2.1875 7.71484 2.59766 7.71484 3.125ZM10.0391 3.125C10.0391 3.61328 9.63867 4.0332 9.12109 4.0332C8.60352 4.0332 8.19336 3.61328 8.19336 3.125C8.19336 2.59766 8.60352 2.1875 9.12109 2.1875C9.63867 2.1875 10.0391 2.59766 10.0391 3.125Z" fill="#ffffff" fill-opacity="0.55"/>
  <path d="M6.77734 14.1797C8.05664 14.1797 9.08203 13.1543 9.08203 11.875C9.08203 10.6055 8.05664 9.58008 6.77734 9.58008C5.49805 9.58008 4.47266 10.6055 4.47266 11.875C4.47266 13.1543 5.49805 14.1797 6.77734 14.1797ZM6.81641 12.7832L12.2363 12.7832C12.7344 12.7832 13.1445 12.3828 13.1445 11.875C13.1445 11.377 12.7344 10.9668 12.2363 10.9668L6.81641 10.9668C6.30859 10.9668 5.89844 11.377 5.89844 11.875C5.89844 12.3828 6.30859 12.7832 6.81641 12.7832Z" fill="#ffffff" fill-opacity="0.85"/>
 </g>
</svg>
