<?xml version="1.0" encoding="UTF-8"?>
<!--Generator: Apple Native CoreSVG 232.5-->
<!DOCTYPE svg
PUBLIC "-//W3C//DTD SVG 1.1//EN"
       "http://www.w3.org/Graphics/SVG/1.1/DTD/svg11.dtd">
<svg version="1.1" xmlns="http://www.w3.org/2000/svg" xmlns:xlink="http://www.w3.org/1999/xlink" width="18.9844" height="18.4277">
 <g>
  <rect height="18.4277" opacity="0" width="18.9844" x="0" y="0"/>
  <path d="M18.623 7.53906L18.623 15.9766C18.623 17.6172 17.793 18.4277 16.4062 18.4277L2.49023 18.4277C0.830078 18.4277 0 17.6172 0 15.9766L0 7.53906C0 5.89844 0.820312 5.08789 2.2168 5.08789L7.4707 5.08789L7.4707 6.41602L2.43164 6.41602C2.34602 6.41602 2.26487 6.42182 2.18847 6.43349L8.60352 12.207C8.81836 12.4121 9.0625 12.5098 9.30664 12.5098C9.56055 12.5098 9.80469 12.4121 10.0195 12.207L16.4336 6.43436C16.3547 6.42211 16.2706 6.41602 16.1816 6.41602L11.1426 6.41602L11.1426 5.08789L16.1328 5.08789C17.7832 5.08789 18.623 5.89844 18.623 7.53906ZM10.7617 13.252C10.3223 13.6621 9.82422 13.8477 9.30664 13.8477C8.79883 13.8477 8.30078 13.6621 7.85156 13.252L6.77311 12.2791L2.00437 17.0392C2.13008 17.0797 2.27321 17.0996 2.43164 17.0996L16.1816 17.0996C16.3408 17.0996 16.4845 17.0801 16.6107 17.0403L11.8458 12.2754ZM12.7962 11.4193L17.2852 15.9082L17.2852 7.53906C17.2852 7.48453 17.283 7.43195 17.278 7.38195ZM1.33789 7.5293L1.33789 15.9072L5.81869 11.4182L1.34413 7.38198C1.33983 7.4291 1.33789 7.47835 1.33789 7.5293Z" fill="#ffffff" fill-opacity="0.55"/>
  <path d="M9.30664 9.30664C9.72656 9.30664 10.0098 9.00391 10.0098 8.56445L10.0098 5.04883C10.0098 3.86719 10.7617 2.89062 12.4121 2.63672L12.5586 3.37891C12.6465 3.88672 13.0469 4.00391 13.418 3.62305L15 1.97266C15.293 1.66992 15.2051 1.29883 14.8242 1.12305L12.7441 0.195312C12.2754-0.00976562 11.9531 0.234375 12.0508 0.732422L12.1875 1.46484C11.0742 1.67969 9.60938 2.42188 9.30664 3.34961C9.01367 2.42188 7.53906 1.67969 6.43555 1.46484L6.57227 0.732422C6.66992 0.234375 6.34766-0.00976562 5.86914 0.195312L3.78906 1.12305C3.41797 1.29883 3.33008 1.66992 3.62305 1.97266L5.20508 3.62305C5.57617 4.00391 5.9668 3.88672 6.06445 3.37891L6.21094 2.63672C7.86133 2.89062 8.61328 3.86719 8.61328 5.04883L8.61328 8.56445C8.61328 9.00391 8.89648 9.30664 9.30664 9.30664Z" fill="#ffffff" fill-opacity="0.85"/>
 </g>
</svg>
