<svg version="1.1" xmlns="http://www.w3.org/2000/svg" xmlns:xlink="http://www.w3.org/1999/xlink" width="16.1328" height="15.7715" viewBox="0 0 16.1328 15.7715">
 <g>
  <rect height="15.7715" opacity="0" width="16.1328" x="0" y="0"/>
  <path d="M7.88086 15.7617C12.1875 15.7617 15.7715 12.1875 15.7715 7.88086C15.7715 3.57422 12.1777 0 7.87109 0C3.57422 0 0 3.57422 0 7.88086C0 12.1875 3.58398 15.7617 7.88086 15.7617ZM7.88086 14.2773C4.33594 14.2773 1.50391 11.4355 1.50391 7.88086C1.50391 4.32617 4.32617 1.48438 7.87109 1.48438C11.4258 1.48438 14.2773 4.32617 14.2773 7.88086C14.2773 11.4355 11.4355 14.2773 7.88086 14.2773Z" fill="var(--color-primary)"/>
  <path d="M5.06836 9.99023L10.6738 9.99023C11.123 9.99023 11.4355 9.77539 11.4355 9.32617C11.4355 8.87695 11.1426 8.65234 10.6738 8.65234L5.06836 8.65234C4.59961 8.65234 4.30664 8.87695 4.30664 9.32617C4.30664 9.77539 4.61914 9.99023 5.06836 9.99023ZM5.06836 7.12891L10.6738 7.12891C11.123 7.12891 11.4355 6.91406 11.4355 6.46484C11.4355 6.01562 11.1426 5.79102 10.6738 5.79102L5.06836 5.79102C4.59961 5.79102 4.30664 6.01562 4.30664 6.46484C4.30664 6.91406 4.61914 7.12891 5.06836 7.12891Z" fill="var(--color-primary)"/>
 </g>
</svg>
