<svg version="1.1" xmlns="http://www.w3.org/2000/svg" xmlns:xlink="http://www.w3.org/1999/xlink" width="16.1328" height="15.7715" viewBox="0 0 16.1328 15.7715">
 <g>
  <rect height="15.7715" opacity="0" width="16.1328" x="0" y="0"/>
  <path d="M7.88086 15.7617C12.1875 15.7617 15.7715 12.1875 15.7715 7.88086C15.7715 3.57422 12.1777 0 7.87109 0C3.57422 0 0 3.57422 0 7.88086C0 12.1875 3.58398 15.7617 7.88086 15.7617ZM7.88086 14.2773C4.33594 14.2773 1.50391 11.4355 1.50391 7.88086C1.50391 4.32617 4.32617 1.48438 7.87109 1.48438C11.4258 1.48438 14.2773 4.32617 14.2773 7.88086C14.2773 11.4355 11.4355 14.2773 7.88086 14.2773Z" fill="var(--color-primary)"/>
  <path d="M8.06641 11.6602C9.36523 11.6602 10.4297 11.123 10.8594 9.9707C10.9082 9.84375 10.9375 9.70703 10.9375 9.57031C10.9375 9.25781 10.7324 9.05273 10.4102 9.05273C10.1172 9.05273 9.96094 9.20898 9.85352 9.50195C9.61914 10.2539 8.87695 10.6152 8.0957 10.6152C6.78711 10.6152 6.09375 9.33594 6.09375 7.89062C6.09375 6.44531 6.79688 5.16602 8.0957 5.16602C8.79883 5.16602 9.53125 5.53711 9.79492 6.29883C9.90234 6.62109 10.0488 6.73828 10.3418 6.73828C10.6641 6.73828 10.8789 6.5332 10.8789 6.2207C10.8789 6.08398 10.8496 5.94727 10.8008 5.82031C10.4004 4.77539 9.30664 4.13086 8.06641 4.13086C6.16211 4.13086 4.94141 5.6543 4.94141 7.89062C4.94141 10.0293 6.04492 11.6602 8.06641 11.6602ZM4.33594 7.46094L8.17383 7.46094C8.4082 7.46094 8.58398 7.27539 8.58398 7.05078C8.58398 6.79688 8.4082 6.63086 8.17383 6.63086L4.33594 6.63086C4.10156 6.63086 3.92578 6.79688 3.92578 7.05078C3.92578 7.27539 4.10156 7.46094 4.33594 7.46094ZM4.33594 9.10156L8.17383 9.10156C8.4082 9.10156 8.58398 8.90625 8.58398 8.68164C8.58398 8.4375 8.4082 8.26172 8.17383 8.26172L4.33594 8.26172C4.10156 8.26172 3.92578 8.4375 3.92578 8.68164C3.92578 8.90625 4.10156 9.10156 4.33594 9.10156Z" fill="var(--color-primary)"/>
 </g>
</svg>
