<svg version="1.1" xmlns="http://www.w3.org/2000/svg" xmlns:xlink="http://www.w3.org/1999/xlink" width="17.6218" height="15.7715" viewBox="0 0 17.6218 15.7715">
 <g>
  <rect height="15.7715" opacity="0" width="17.6218" x="0" y="0"/>
  <path d="M9.37242 15.7617C13.6791 15.7617 17.263 12.1875 17.263 7.88086C17.263 3.57422 13.6791 0 9.37242 0C5.06578 0 1.49156 3.56445 1.49156 7.87109L2.9857 7.87109C2.9857 4.31641 5.81773 1.49414 9.37242 1.49414C12.9271 1.49414 15.7689 4.32617 15.7689 7.88086C15.7689 11.4355 12.9271 14.2969 9.37242 14.2773C7.28258 14.2676 5.43687 13.291 4.28453 11.7578C4.02086 11.3965 3.60094 11.2891 3.23961 11.5137C2.87828 11.7285 2.79039 12.2168 3.08336 12.5977C4.55797 14.502 6.83336 15.7617 9.37242 15.7617ZM0.602889 6.35742C-0.0123451 6.35742-0.158829 6.77734 0.173202 7.24609L1.91148 9.7168C2.18492 10.0977 2.59508 10.0977 2.85875 9.7168L4.59703 7.23633C4.9193 6.77734 4.76305 6.35742 4.15758 6.35742Z" fill="var(--color-secondary)"/>
  <path d="M6.20836 10.9863L8.44469 10.9863C8.76695 10.9863 8.99156 10.8203 8.99156 10.498C8.99156 10.1465 8.72789 9.99023 8.44469 9.99023L6.83336 9.99023L6.83336 8.31055L8.38609 8.31055C8.65953 8.31055 8.86461 8.16406 8.86461 7.8418C8.86461 7.51953 8.6693 7.36328 8.38609 7.36328L6.83336 7.36328L6.83336 5.77148L8.44469 5.77148C8.72789 5.77148 8.99156 5.61523 8.99156 5.26367C8.99156 4.95117 8.75719 4.76562 8.44469 4.76562L6.20836 4.76562C5.81773 4.76562 5.61265 5.0293 5.61265 5.40039L5.61265 10.3613C5.61265 10.7129 5.80797 10.9863 6.20836 10.9863ZM10.3783 10.9863L13.1322 10.9863C13.4252 10.9863 13.6205 10.7812 13.6205 10.4883C13.6205 10.1953 13.4252 9.99023 13.1322 9.99023L11.14 9.99023L11.14 9.90234L13.3763 5.83008C13.4447 5.71289 13.513 5.56641 13.513 5.35156C13.513 4.94141 13.2201 4.76562 12.9173 4.76562L10.3099 4.76562C9.99742 4.76562 9.78258 4.9707 9.78258 5.27344C9.78258 5.56641 9.99742 5.77148 10.3099 5.77148L12.1849 5.77148L12.1849 5.81055L9.89976 9.94141C9.84117 10.0391 9.78258 10.2441 9.78258 10.4297C9.78258 10.7812 10.0365 10.9863 10.3783 10.9863Z" fill="var(--color-primary)"/>
 </g>
</svg>
