<?xml version="1.0" encoding="UTF-8"?>
<!--Generator: Apple Native CoreSVG 232.5-->
<!DOCTYPE svg
PUBLIC "-//W3C//DTD SVG 1.1//EN"
       "http://www.w3.org/Graphics/SVG/1.1/DTD/svg11.dtd">
<svg version="1.1" xmlns="http://www.w3.org/2000/svg" xmlns:xlink="http://www.w3.org/1999/xlink" width="24.3555" height="17.2363">
 <g>
  <rect height="17.2363" opacity="0" width="24.3555" x="0" y="0"/>
  <path d="M11.4648 16.6016L11.4648 1.95312C11.4648 0.683594 10.7715 0 9.51172 0L3.22266 0C1.95312 0 1.28906 0.693359 1.28906 1.95312L1.28906 16.6016ZM3.55469 8.03711C2.98828 8.03711 2.65625 7.73438 2.65625 7.2168L2.65625 2.19727C2.65625 1.67969 2.98828 1.36719 3.55469 1.36719L9.17969 1.36719C9.74609 1.36719 10.0879 1.67969 10.0879 2.19727L10.0879 7.2168C10.0879 7.73438 9.74609 8.03711 9.17969 8.03711ZM0 16.5234C0 16.9141 0.3125 17.2363 0.693359 17.2363L12.041 17.2363C12.4219 17.2363 12.7441 16.9141 12.7441 16.5234C12.7441 16.1523 12.4219 15.8301 12.041 15.8301L0.693359 15.8301C0.322266 15.8301 0 16.1426 0 16.5234ZM13.6523 4.95117L14.6094 4.95117L14.6094 3.21289C14.6094 2.94922 14.3945 2.73438 14.1309 2.73438C13.8574 2.73438 13.6523 2.94922 13.6523 3.21289ZM16.7285 4.95117L16.7285 3.21289C16.7285 2.94922 16.5234 2.73438 16.25 2.73438C15.9961 2.73438 15.7715 2.94922 15.7715 3.21289L15.7715 4.95117ZM11.084 10.1953L11.543 10.1953C11.8555 10.1953 12.0508 10.3613 12.0508 10.7031L12.0508 13.1934C12.0508 14.3457 12.7441 15.0391 13.8965 15.0391C15.0586 15.0391 15.7422 14.3457 15.7422 13.1934L15.7422 9.27734C15.7422 8.50586 16.3379 8.30078 16.6699 8.03711C17.2656 7.60742 17.5586 6.96289 17.5586 6.26953L17.5586 5.10742C17.5586 4.93164 17.4512 4.82422 17.2754 4.82422L12.9785 4.82422C12.8027 4.82422 12.6953 4.93164 12.6953 5.10742L12.6953 6.26953C12.6953 6.96289 12.9883 7.60742 13.584 8.03711C13.916 8.30078 14.5117 8.50586 14.5117 9.27734L14.5117 13.1934C14.5117 13.584 14.2871 13.8184 13.8965 13.8184C13.5059 13.8184 13.2715 13.584 13.2715 13.1934L13.2715 10.7031C13.2715 9.58984 12.627 8.97461 11.543 8.97461L11.084 8.97461Z" fill="#ffffff" fill-opacity="0.85"/>
  <path d="M23.7598 8.33984L19.8535 6.03516C19.5312 5.84961 19.1113 5.99609 19.1113 6.33789L19.1113 11.1035C19.1113 11.4648 19.502 11.6113 19.8535 11.416L23.7598 9.12109C24.082 8.93555 24.0625 8.51562 23.7598 8.33984Z" fill="#ffffff" fill-opacity="0.85"/>
 </g>
</svg>
