<?xml version="1.0" encoding="UTF-8"?>
<!--Generator: Apple Native CoreSVG 232.5-->
<!DOCTYPE svg
PUBLIC "-//W3C//DTD SVG 1.1//EN"
       "http://www.w3.org/Graphics/SVG/1.1/DTD/svg11.dtd">
<svg version="1.1" xmlns="http://www.w3.org/2000/svg" xmlns:xlink="http://www.w3.org/1999/xlink" width="13.623" height="19.873">
 <g>
  <rect height="19.873" opacity="0" width="13.623" x="0" y="0"/>
  <path d="M13.2617 15.8594C13.2617 18.0859 11.5039 19.873 9.26758 19.873L3.99414 19.873C1.75781 19.873 0 18.0859 0 15.8594C0 13.6426 1.75781 11.8457 3.99414 11.8457L9.26758 11.8457C11.5039 11.8457 13.2617 13.6426 13.2617 15.8594ZM1.76758 15.8594C1.76758 17.041 2.72461 17.9883 3.89648 17.9883C5.06836 17.9883 6.02539 17.041 6.02539 15.8594C6.02539 14.6875 5.06836 13.7402 3.89648 13.7402C2.72461 13.7402 1.76758 14.6875 1.76758 15.8594ZM7.23633 15.8594C7.23633 17.041 8.19336 17.9883 9.36523 17.9883C10.5371 17.9883 11.4941 17.041 11.4941 15.8594C11.4941 14.6875 10.5371 13.7402 9.36523 13.7402C8.19336 13.7402 7.23633 14.6875 7.23633 15.8594ZM10.8301 1.55273C11.8652 2.51953 12.5879 4.0332 12.5879 5.67383C12.5879 8.81836 9.96094 11.4453 6.63086 11.4453C3.30078 11.4453 0.673828 8.81836 0.673828 5.67383C0.673828 4.0332 1.39648 2.51953 2.43164 1.55273C2.87109 1.13281 3.37891 0.9375 4.05273 0.9375L9.20898 0.9375C9.88281 0.9375 10.3906 1.13281 10.8301 1.55273ZM3.79883 8.30078C3.79883 9.02344 4.375 9.60938 5.10742 9.60938C5.83984 9.60938 6.42578 9.02344 6.42578 8.30078C6.42578 7.56836 5.83984 6.98242 5.10742 6.98242C4.375 6.98242 3.79883 7.56836 3.79883 8.30078ZM6.83594 8.30078C6.83594 9.02344 7.42188 9.60938 8.1543 9.60938C8.88672 9.60938 9.46289 9.02344 9.46289 8.30078C9.46289 7.56836 8.88672 6.98242 8.1543 6.98242C7.42188 6.98242 6.83594 7.56836 6.83594 8.30078ZM2.27539 5.6543C2.27539 6.38672 2.85156 6.97266 3.58398 6.97266C4.31641 6.97266 4.90234 6.38672 4.90234 5.6543C4.90234 4.93164 4.31641 4.33594 3.58398 4.33594C2.85156 4.33594 2.27539 4.93164 2.27539 5.6543ZM5.32227 5.6543C5.32227 6.38672 5.89844 6.97266 6.63086 6.97266C7.36328 6.97266 7.93945 6.38672 7.93945 5.6543C7.93945 4.93164 7.36328 4.33594 6.63086 4.33594C5.89844 4.33594 5.32227 4.93164 5.32227 5.6543ZM8.35938 5.6543C8.35938 6.38672 8.94531 6.97266 9.67773 6.97266C10.4102 6.97266 10.9863 6.38672 10.9863 5.6543C10.9863 4.93164 10.4102 4.33594 9.67773 4.33594C8.94531 4.33594 8.35938 4.93164 8.35938 5.6543ZM4.18945 3.38867C4.18945 3.89648 4.59961 4.29688 5.10742 4.29688C5.61523 4.29688 6.02539 3.89648 6.02539 3.38867C6.02539 2.88086 5.61523 2.48047 5.10742 2.48047C4.59961 2.48047 4.18945 2.88086 4.18945 3.38867ZM7.23633 3.38867C7.23633 3.89648 7.64648 4.29688 8.1543 4.29688C8.66211 4.29688 9.07227 3.89648 9.07227 3.38867C9.07227 2.88086 8.66211 2.48047 8.1543 2.48047C7.64648 2.48047 7.23633 2.88086 7.23633 3.38867Z" fill="#ffffff" fill-opacity="0.85"/>
 </g>
</svg>
