<?xml version="1.0" encoding="UTF-8"?>
<!--Generator: Apple Native CoreSVG 232.5-->
<!DOCTYPE svg
PUBLIC "-//W3C//DTD SVG 1.1//EN"
       "http://www.w3.org/Graphics/SVG/1.1/DTD/svg11.dtd">
<svg version="1.1" xmlns="http://www.w3.org/2000/svg" xmlns:xlink="http://www.w3.org/1999/xlink" width="13.4082" height="15.498">
 <g>
  <rect height="15.498" opacity="0" width="13.4082" x="0" y="0"/>
  <path d="M6.98242 0.302734C7.75391 0.566406 10.918 1.69922 11.6992 2.03125C12.2949 2.28516 12.666 2.5293 12.666 3.31055L12.666 9.0918C12.666 11.9238 11.2305 13.1445 6.8457 15.3613C6.63086 15.4688 6.44531 15.498 6.33789 15.498C6.2207 15.498 6.03516 15.4785 5.83008 15.3613C1.52344 12.9883 0 11.9238 0 9.0918L0 3.31055C0 2.5293 0.371094 2.27539 0.966797 2.03125C1.74805 1.70898 4.90234 0.537109 5.68359 0.302734C5.88867 0.244141 6.11328 0.195312 6.33789 0.195312C6.55273 0.195312 6.77734 0.234375 6.98242 0.302734ZM5.40039 10.791C5.40039 11.2793 5.83984 11.6797 6.33789 11.6797C6.83594 11.6797 7.26562 11.2891 7.26562 10.791C7.26562 10.2832 6.8457 9.89258 6.33789 9.89258C5.83008 9.89258 5.40039 10.293 5.40039 10.791ZM5.51758 4.16992L5.63477 8.33008C5.63477 8.7793 5.88867 9.02344 6.33789 9.02344C6.76758 9.02344 7.01172 8.78906 7.02148 8.33008L7.14844 4.16992C7.1582 3.7207 6.79688 3.37891 6.32812 3.37891C5.84961 3.37891 5.50781 3.71094 5.51758 4.16992Z" fill="#ffffff" fill-opacity="0.85"/>
 </g>
</svg>
