<svg version="1.1" xmlns="http://www.w3.org/2000/svg" xmlns:xlink="http://www.w3.org/1999/xlink" width="17.3828" height="17.1582" viewBox="0 0 17.3828 17.1582">
 <g>
  <rect height="17.1582" opacity="0" width="17.3828" x="0" y="0"/>
  <path d="M17.0215 4.70703L17.0215 10.3906C17.0215 12.7539 15.7617 14.043 13.3594 14.043L8.45703 14.043L5.69336 16.6016C5.2832 16.9824 5.04883 17.1582 4.70703 17.1582C4.21875 17.1582 3.93555 16.8066 3.93555 16.2793L3.93555 14.043L3.66211 14.043C1.25977 14.043 0 12.7539 0 10.3906L0 4.70703C0 2.34375 1.25977 1.04492 3.66211 1.04492L13.3594 1.04492C15.7617 1.04492 17.0215 2.34375 17.0215 4.70703ZM7.57812 10.7422C7.57812 11.2402 8.01758 11.6309 8.50586 11.6309C9.00391 11.6309 9.44336 11.25 9.44336 10.7422C9.44336 10.2441 9.01367 9.85352 8.50586 9.85352C8.00781 9.85352 7.57812 10.2539 7.57812 10.7422ZM7.68555 4.12109L7.80273 8.28125C7.8125 8.74023 8.05664 8.98438 8.50586 8.98438C8.94531 8.98438 9.18945 8.74023 9.19922 8.28125L9.31641 4.13086C9.32617 3.67188 8.97461 3.33984 8.49609 3.33984C8.01758 3.33984 7.68555 3.67188 7.68555 4.12109Z" fill="currentColor"/>
 </g>
</svg>
