<?xml version="1.0" encoding="UTF-8"?>
<!--Generator: Apple Native CoreSVG 232.5-->
<!DOCTYPE svg
PUBLIC "-//W3C//DTD SVG 1.1//EN"
       "http://www.w3.org/Graphics/SVG/1.1/DTD/svg11.dtd">
<svg version="1.1" xmlns="http://www.w3.org/2000/svg" xmlns:xlink="http://www.w3.org/1999/xlink" width="16.4746" height="14.6191">
 <g>
  <rect height="14.6191" opacity="0" width="16.4746" x="0" y="0"/>
  <path d="M9.93164 1.10352L15.8105 11.3086C16.0059 11.6504 16.1133 12.0312 16.1133 12.3926C16.1133 13.6328 15.2832 14.5801 13.9258 14.5801L2.1875 14.5801C0.830078 14.5801 0 13.6328 0 12.3926C0 12.0312 0.0976562 11.6602 0.302734 11.3086L6.18164 1.10352C6.5918 0.380859 7.31445 0 8.05664 0C8.79883 0 9.51172 0.380859 9.93164 1.10352ZM7.11914 11.1914C7.11914 11.6895 7.55859 12.0801 8.05664 12.0801C8.55469 12.0801 8.98438 11.6992 8.98438 11.1914C8.98438 10.6934 8.55469 10.293 8.05664 10.293C7.54883 10.293 7.11914 10.6934 7.11914 11.1914ZM7.23633 4.57031L7.34375 8.73047C7.35352 9.17969 7.60742 9.43359 8.05664 9.43359C8.48633 9.43359 8.73047 9.18945 8.74023 8.73047L8.86719 4.58008C8.87695 4.12109 8.51562 3.78906 8.04688 3.78906C7.56836 3.78906 7.22656 4.11133 7.23633 4.57031Z" fill="#ffffff" fill-opacity="0.85"/>
 </g>
</svg>
