<?xml version="1.0" encoding="UTF-8"?>
<!--Generator: Apple Native CoreSVG 232.5-->
<!DOCTYPE svg
PUBLIC "-//W3C//DTD SVG 1.1//EN"
       "http://www.w3.org/Graphics/SVG/1.1/DTD/svg11.dtd">
<svg version="1.1" xmlns="http://www.w3.org/2000/svg" xmlns:xlink="http://www.w3.org/1999/xlink" width="20.6152" height="20.2637">
 <g>
  <rect height="20.2637" opacity="0" width="20.6152" x="0" y="0"/>
  <path d="M7.27539 5.76172L8.59375 5.76172L8.59375 3.22266C8.59375 2.94922 8.73047 2.8125 9.00391 2.8125L11.2695 2.8125C11.5332 2.8125 11.6699 2.94922 11.6699 3.22266L11.6699 5.76172L12.998 5.76172L12.998 3.10547C12.998 2.09961 12.3926 1.49414 11.3867 1.49414L8.88672 1.49414C7.88086 1.49414 7.27539 2.09961 7.27539 3.10547ZM10.1172 15.9473C13.291 15.9473 15.9375 13.3008 15.9375 10.127C15.9375 6.95312 13.3008 4.30664 10.127 4.30664C6.94336 4.30664 4.29688 6.95312 4.29688 10.127C4.29688 13.3008 6.94336 15.9473 10.1172 15.9473ZM10.1367 14.541C7.73438 14.541 5.72266 12.5293 5.72266 10.127C5.72266 7.73438 7.73438 5.71289 10.127 5.71289C12.5293 5.71289 14.541 7.72461 14.541 10.127C14.541 12.5293 12.5391 14.541 10.1367 14.541ZM16.1719 5.15625L17.2852 4.04297C17.5781 3.75 17.5781 3.26172 17.2852 2.96875C16.9922 2.67578 16.5039 2.67578 16.2109 2.96875L15.0977 4.08203C14.8047 4.375 14.8047 4.86328 15.0977 5.15625C15.3809 5.44922 15.8789 5.44922 16.1719 5.15625ZM17.9102 10.8887L19.4922 10.8887C19.9023 10.8887 20.2539 10.5371 20.2539 10.127C20.2539 9.7168 19.9023 9.36523 19.4922 9.36523L17.9102 9.36523C17.5 9.36523 17.1582 9.7168 17.1582 10.127C17.1582 10.5371 17.5 10.8887 17.9102 10.8887ZM15.0977 16.1719L16.2109 17.2852C16.5039 17.5781 16.9922 17.5781 17.2852 17.2852C17.5781 16.9922 17.5781 16.5039 17.2852 16.2109L16.1719 15.0977C15.8789 14.8047 15.3809 14.8047 15.0977 15.0977C14.8047 15.3906 14.8047 15.8789 15.0977 16.1719ZM10.8984 17.9199C10.8984 17.5098 10.5469 17.168 10.1367 17.168C9.72656 17.168 9.375 17.5098 9.375 17.9199L9.375 19.502C9.375 19.9121 9.72656 20.2637 10.1367 20.2637C10.5469 20.2637 10.8984 19.9121 10.8984 19.502ZM5.15625 16.1719C5.44922 15.8789 5.44922 15.3906 5.15625 15.0977C4.86328 14.8047 4.36523 14.8047 4.08203 15.0977L2.96875 16.2109C2.67578 16.5039 2.67578 16.9922 2.96875 17.2852C3.26172 17.5781 3.75 17.5781 4.0332 17.2852ZM2.33398 10.8887C2.74414 10.8887 3.0957 10.5371 3.0957 10.127C3.0957 9.7168 2.74414 9.36523 2.33398 9.36523L0.761719 9.36523C0.351562 9.36523 0 9.7168 0 10.127C0 10.5371 0.351562 10.8887 0.761719 10.8887ZM4.08203 5.15625C4.36523 5.44922 4.86328 5.44922 5.15625 5.15625C5.44922 4.86328 5.44922 4.375 5.15625 4.08203L4.0332 2.96875C3.75 2.67578 3.26172 2.67578 2.96875 2.96875C2.67578 3.26172 2.67578 3.75 2.96875 4.04297Z" fill="#ffffff" fill-opacity="0.55"/>
  <path d="M10.1465 10.8496C10.5566 10.8496 10.7812 10.625 10.8008 10.1758L10.9277 7.53906C10.9473 7.07031 10.5859 6.73828 10.1367 6.73828C9.66797 6.73828 9.33594 7.06055 9.35547 7.5293L9.46289 10.1758C9.48242 10.6152 9.70703 10.8496 10.1465 10.8496ZM10.1367 13.3984C10.6152 13.3984 11.0254 13.0273 11.0254 12.5391C11.0254 12.0508 10.625 11.6797 10.1367 11.6797C9.64844 11.6797 9.23828 12.0605 9.23828 12.5391C9.23828 13.0176 9.6582 13.3984 10.1367 13.3984Z" fill="#ffffff" fill-opacity="0.85"/>
 </g>
</svg>
