<svg version="1.1" xmlns="http://www.w3.org/2000/svg" xmlns:xlink="http://www.w3.org/1999/xlink" width="13.4082" height="15.498" viewBox="0 0 13.4082 15.498">
 <g>
  <rect height="15.498" opacity="0" width="13.4082" x="0" y="0"/>
  <path d="M6.33789 15.498C6.44531 15.498 6.63086 15.4688 6.8457 15.3613C11.2305 13.1445 12.666 11.9238 12.666 9.0918L12.666 3.31055C12.666 2.5293 12.2949 2.28516 11.6992 2.03125C10.918 1.69922 7.75391 0.566406 6.98242 0.302734C6.77734 0.234375 6.55273 0.195312 6.33789 0.195312C6.11328 0.195312 5.88867 0.244141 5.68359 0.302734C4.90234 0.537109 1.74805 1.70898 0.966797 2.03125C0.371094 2.27539 0 2.5293 0 3.31055L0 9.0918C0 11.9238 1.52344 12.9883 5.83008 15.3613C6.03516 15.4785 6.2207 15.498 6.33789 15.498Z" fill="var(--color-tertiary)"/>
  <path d="M6.33789 9.02344C5.88867 9.02344 5.63477 8.7793 5.63477 8.33008L5.51758 4.16992C5.50781 3.71094 5.84961 3.37891 6.32812 3.37891C6.79688 3.37891 7.1582 3.7207 7.14844 4.16992L7.02148 8.33008C7.01172 8.78906 6.76758 9.02344 6.33789 9.02344ZM6.33789 11.6797C5.83984 11.6797 5.40039 11.2793 5.40039 10.791C5.40039 10.293 5.83008 9.89258 6.33789 9.89258C6.8457 9.89258 7.26562 10.2832 7.26562 10.791C7.26562 11.2891 6.83594 11.6797 6.33789 11.6797Z" fill="var(--color-primary)"/>
 </g>
</svg>
