<svg version="1.1" xmlns="http://www.w3.org/2000/svg" xmlns:xlink="http://www.w3.org/1999/xlink" width="18.6328" height="13.291" viewBox="0 0 18.6328 13.291">
 <g>
  <rect height="13.291" opacity="0" width="18.6328" x="0" y="0"/>
  <path d="M0 9.70703C0 11.7285 1.55273 13.291 3.79883 13.291L14.4727 13.291C16.7188 13.291 18.2715 11.7285 18.2715 9.70703C18.2715 9.11133 18.0957 8.58398 17.9004 8.08594L15.4102 1.96289C14.8926 0.673828 13.7891 0.00976562 12.3438 0.00976562L5.9375 0.00976562C4.48242 0.00976562 3.37891 0.673828 2.86133 1.96289L0.371094 8.08594C0.175781 8.58398 0 9.11133 0 9.70703ZM1.40625 9.70703C1.40625 8.45703 2.33398 7.5293 3.79883 7.5293L14.4727 7.5293C15.9375 7.5293 16.8652 8.45703 16.8652 9.70703C16.8652 11.1328 15.9375 11.875 14.4727 11.875L3.79883 11.875C2.33398 11.875 1.40625 10.9473 1.40625 9.70703ZM2.72461 6.25977L4.21875 2.32422C4.50195 1.60156 5.13672 1.24023 6.03516 1.24023L12.2461 1.24023C13.1348 1.24023 13.7793 1.60156 14.0527 2.32422L15.5469 6.25977C15.2051 6.17188 14.8535 6.12305 14.4727 6.12305L3.79883 6.12305C3.41797 6.12305 3.06641 6.17188 2.72461 6.25977ZM13.4863 9.70703C13.4863 10.2539 13.9355 10.6738 14.4727 10.6738C14.9902 10.6738 15.4395 10.2441 15.4395 9.70703C15.4395 9.17969 14.9902 8.74023 14.4727 8.74023C13.9355 8.74023 13.4863 9.17969 13.4863 9.70703Z" fill="var(--color-primary)"/>
 </g>
</svg>
