<?xml version="1.0" encoding="UTF-8"?>
<!--Generator: Apple Native CoreSVG 232.5-->
<!DOCTYPE svg
PUBLIC "-//W3C//DTD SVG 1.1//EN"
       "http://www.w3.org/Graphics/SVG/1.1/DTD/svg11.dtd">
<svg version="1.1" xmlns="http://www.w3.org/2000/svg" xmlns:xlink="http://www.w3.org/1999/xlink" width="16.1328" height="15.7715">
 <g>
  <rect height="15.7715" opacity="0" width="16.1328" x="0" y="0"/>
  <path d="M7.88086 15.7617C12.1875 15.7617 15.7715 12.1875 15.7715 7.88086C15.7715 3.57422 12.1777 0 7.87109 0C3.57422 0 0 3.57422 0 7.88086C0 12.1875 3.58398 15.7617 7.88086 15.7617ZM7.88086 14.2773C4.33594 14.2773 1.50391 11.4355 1.50391 7.88086C1.50391 4.32617 4.32617 1.48438 7.87109 1.48438C11.4258 1.48438 14.2773 4.32617 14.2773 7.88086C14.2773 11.4355 11.4355 14.2773 7.88086 14.2773Z" fill="#ffffff" fill-opacity="0.55"/>
  <path d="M7.87109 11.084C10.9082 11.084 12.9883 8.65234 12.9883 7.89062C12.9883 7.12891 10.8984 4.69727 7.87109 4.69727C4.87305 4.69727 2.74414 7.12891 2.74414 7.89062C2.74414 8.65234 4.87305 11.084 7.87109 11.084ZM7.87109 9.98047C6.70898 9.98047 5.78125 9.02344 5.78125 7.89062C5.78125 6.71875 6.70898 5.80078 7.87109 5.80078C9.0332 5.80078 9.96094 6.71875 9.96094 7.89062C9.96094 9.02344 9.0332 9.98047 7.87109 9.98047ZM7.88086 8.84766C8.38867 8.84766 8.83789 8.39844 8.83789 7.89062C8.83789 7.38281 8.38867 6.93359 7.88086 6.93359C7.36328 6.93359 6.91406 7.38281 6.91406 7.89062C6.91406 8.39844 7.36328 8.84766 7.88086 8.84766Z" fill="#ffffff" fill-opacity="0.85"/>
 </g>
</svg>
