<svg version="1.1" xmlns="http://www.w3.org/2000/svg" xmlns:xlink="http://www.w3.org/1999/xlink" width="14.5898" height="14.248" viewBox="0 0 14.5898 14.248">
 <g>
  <rect height="14.248" opacity="0" width="14.5898" x="0" y="0"/>
  <path d="M2.49023 14.248L11.7383 14.248C13.4082 14.248 14.2285 13.4277 14.2285 11.7871L14.2285 2.4707C14.2285 0.830078 13.4082 0.00976562 11.7383 0.00976562L2.49023 0.00976562C0.830078 0.00976562 0 0.830078 0 2.4707L0 11.7871C0 13.4277 0.830078 14.248 2.49023 14.248ZM2.50977 12.832C1.80664 12.832 1.40625 12.4609 1.40625 11.7188L1.40625 2.53906C1.40625 1.80664 1.80664 1.42578 2.50977 1.42578L11.7188 1.42578C12.4219 1.42578 12.8223 1.80664 12.8223 2.53906L12.8223 11.7188C12.8223 12.4609 12.4219 12.832 11.7188 12.832Z" fill="var(--color-primary)"/>
  <path d="M7.11914 10.3223C10.1465 10.3223 12.2363 7.89062 12.2363 7.12891C12.2363 6.36719 10.1465 3.93555 7.11914 3.93555C4.11133 3.93555 1.99219 6.36719 1.99219 7.12891C1.99219 7.89062 4.11133 10.3223 7.11914 10.3223ZM7.11914 9.21875C5.94727 9.21875 5.01953 8.26172 5.01953 7.12891C5.01953 5.95703 5.94727 5.03906 7.11914 5.03906C8.27148 5.03906 9.20898 5.95703 9.20898 7.12891C9.20898 8.26172 8.27148 9.21875 7.11914 9.21875ZM7.12891 8.08594C7.62695 8.08594 8.07617 7.63672 8.07617 7.12891C8.07617 6.62109 7.62695 6.17188 7.12891 6.17188C6.60156 6.17188 6.15234 6.62109 6.15234 7.12891C6.15234 7.63672 6.60156 8.08594 7.12891 8.08594Z" fill="var(--color-primary)"/>
 </g>
</svg>
