<?xml version="1.0" encoding="UTF-8"?>
<!--Generator: Apple Native CoreSVG 232.5-->
<!DOCTYPE svg
PUBLIC "-//W3C//DTD SVG 1.1//EN"
       "http://www.w3.org/Graphics/SVG/1.1/DTD/svg11.dtd">
<svg version="1.1" xmlns="http://www.w3.org/2000/svg" xmlns:xlink="http://www.w3.org/1999/xlink" width="24.1992" height="12.0605">
 <g>
  <rect height="12.0605" opacity="0" width="24.1992" x="0" y="0"/>
  <path d="M4.00391 3.62305L4.00391 3.88672L2.60742 3.88672C1.82617 3.88672 1.40625 4.375 1.40625 5.18555C1.40625 6.73154 2.44863 7.8887 4.04762 8.06044C4.1325 8.57934 4.35067 9.06005 4.6901 9.49219L4.58984 9.49219C1.83594 9.49219 0 7.71484 0 5.18555C0 3.48633 0.9375 2.48047 2.60742 2.48047L4.2598 2.48047C4.08808 2.82491 4.00391 3.20669 4.00391 3.62305ZM23.8379 5.18555C23.8379 7.71484 22.002 9.49219 19.248 9.49219L19.1495 9.49219C19.4882 9.06004 19.7058 8.57933 19.7904 8.06042C21.3893 7.88864 22.4316 6.7315 22.4316 5.18555C22.4316 4.375 22.0215 3.88672 21.2402 3.88672L19.834 3.88672L19.834 3.62305C19.834 3.20669 19.7498 2.82491 19.5781 2.48047L21.2402 2.48047C22.9004 2.48047 23.8379 3.48633 23.8379 5.18555Z" fill="#ffffff" fill-opacity="0.85"/>
  <path d="M11.9238 12.0312C16.5234 12.0312 19.834 10.2148 19.834 7.54883L19.834 3.62305C19.834 1.25 17.0996 0 11.9238 0C6.73828 0 4.00391 1.25 4.00391 3.62305L4.00391 7.54883C4.00391 10.2148 7.32422 12.0312 11.9238 12.0312Z" fill="#ffffff" fill-opacity="0.25"/>
  <path d="M7.62695 4.35547C7.62695 3.95508 7.95898 3.62305 8.35938 3.62305L15.4883 3.62305C15.8887 3.62305 16.2207 3.95508 16.2207 4.35547C16.2207 4.75586 15.8887 5.08789 15.4883 5.08789L8.35938 5.08789C7.95898 5.08789 7.62695 4.75586 7.62695 4.35547ZM7.62695 7.37305C7.62695 6.97266 7.95898 6.64062 8.35938 6.64062L15.4883 6.64062C15.8887 6.64062 16.2207 6.97266 16.2207 7.37305C16.2207 7.7832 15.8887 8.10547 15.4883 8.10547L8.35938 8.10547C7.95898 8.10547 7.62695 7.7832 7.62695 7.37305Z" fill="#ffffff" fill-opacity="0.85"/>
 </g>
</svg>
