<svg version="1.1" xmlns="http://www.w3.org/2000/svg" xmlns:xlink="http://www.w3.org/1999/xlink" width="16.1328" height="15.7715" viewBox="0 0 16.1328 15.7715">
 <g>
  <rect height="15.7715" opacity="0" width="16.1328" x="0" y="0"/>
  <path d="M7.88086 15.7617C12.1875 15.7617 15.7715 12.1875 15.7715 7.88086C15.7715 3.57422 12.1777 0 7.87109 0C3.57422 0 0 3.57422 0 7.88086C0 12.1875 3.58398 15.7617 7.88086 15.7617ZM7.88086 14.2773C4.33594 14.2773 1.50391 11.4355 1.50391 7.88086C1.50391 4.32617 4.32617 1.48438 7.87109 1.48438C11.4258 1.48438 14.2773 4.32617 14.2773 7.88086C14.2773 11.4355 11.4355 14.2773 7.88086 14.2773Z" fill="currentColor"/>
  <path d="M7.87109 11.7578C9.50195 11.7578 10.5957 10.6836 10.5957 10.1562C10.5957 9.96094 10.4004 9.86328 10.2051 9.94141C9.62891 10.2148 8.99414 10.5566 7.87109 10.5566C6.75781 10.5566 6.12305 10.2148 5.54688 9.94141C5.35156 9.86328 5.15625 9.96094 5.15625 10.1562C5.15625 10.6836 6.25 11.7578 7.87109 11.7578ZM5.61523 7.2168C6.12305 7.2168 6.57227 6.77734 6.57227 6.14258C6.57227 5.48828 6.12305 5.04883 5.61523 5.04883C5.11719 5.04883 4.67773 5.48828 4.67773 6.14258C4.67773 6.77734 5.11719 7.2168 5.61523 7.2168ZM10.1367 7.2168C10.6445 7.2168 11.084 6.77734 11.084 6.14258C11.084 5.48828 10.6445 5.04883 10.1367 5.04883C9.62891 5.04883 9.19922 5.48828 9.19922 6.14258C9.19922 6.77734 9.62891 7.2168 10.1367 7.2168Z" fill="currentColor"/>
 </g>
</svg>
