<svg version="1.1" xmlns="http://www.w3.org/2000/svg" xmlns:xlink="http://www.w3.org/1999/xlink" width="16.1328" height="15.7715" viewBox="0 0 16.1328 15.7715">
 <g>
  <rect height="15.7715" opacity="0" width="16.1328" x="0" y="0"/>
  <path d="M1.50391 7.88086C1.50391 7.2168 1.60156 6.57227 1.78711 5.97656L0.400391 5.40039C0.146484 6.19141 0 7.02148 0 7.88086C0 8.74023 0.146484 9.57031 0.410156 10.3613L1.78711 9.78516C1.60156 9.18945 1.50391 8.54492 1.50391 7.88086ZM4.90234 2.20703L4.3457 0.859375C2.8418 1.62109 1.61133 2.85156 0.849609 4.3457L2.20703 4.92188C2.8125 3.75977 3.75 2.82227 4.90234 2.20703ZM7.87109 1.48438C8.53516 1.48438 9.17969 1.5918 9.78516 1.77734L10.3516 0.410156C9.57031 0.146484 8.74023 0 7.87109 0C7.01172 0 6.17188 0.146484 5.39062 0.410156L5.9668 1.77734C6.5625 1.5918 7.20703 1.48438 7.87109 1.48438ZM13.5449 4.91211L14.9121 4.3457C14.1406 2.85156 12.9102 1.62109 11.4062 0.849609L10.8398 2.20703C11.9922 2.8125 12.9492 3.75 13.5449 4.91211ZM14.2773 7.88086C14.2773 8.54492 14.1797 9.18945 13.9941 9.79492L15.3516 10.3613C15.625 9.58008 15.7715 8.74023 15.7715 7.88086C15.7715 7.02148 15.625 6.18164 15.3516 5.40039L13.9844 5.9668C14.1797 6.57227 14.2773 7.2168 14.2773 7.88086ZM10.8398 13.5547L11.4062 14.9121C12.9102 14.1406 14.1504 12.9102 14.9121 11.416L13.5547 10.8496C12.959 12.0117 12.002 12.9492 10.8398 13.5547ZM7.88086 14.2773C7.20703 14.2773 6.5625 14.1699 5.9668 13.9844L5.40039 15.3516C6.18164 15.6152 7.02148 15.7617 7.88086 15.7617C8.75 15.7617 9.58008 15.6152 10.3613 15.3613L9.78516 13.9941C9.17969 14.1699 8.54492 14.2773 7.88086 14.2773ZM2.2168 10.8496L0.849609 11.416C1.62109 12.9102 2.8418 14.1406 4.3457 14.9023L4.90234 13.5449C3.75 12.9395 2.8125 12.002 2.2168 10.8496Z" fill="currentColor"/>
  <path d="M7.86133 12.998C10.7129 12.998 12.9883 10.7227 12.9785 7.88086C12.9688 5.03906 10.6934 2.76367 7.85156 2.76367C5.00977 2.76367 2.75391 5.0293 2.75391 7.88086C2.75391 10.7324 5.01953 12.998 7.86133 12.998ZM7.87109 10.9375C6.52344 10.9375 5.61523 10.0488 5.61523 9.61914C5.61523 9.44336 5.79102 9.375 5.92773 9.43359C6.41602 9.66797 6.94336 9.95117 7.87109 9.95117C8.80859 9.95117 9.33594 9.66797 9.82422 9.43359C9.9707 9.375 10.1367 9.44336 10.1367 9.61914C10.1367 10.0488 9.23828 10.9375 7.87109 10.9375ZM6.00586 7.16797C5.58594 7.16797 5.22461 6.80664 5.22461 6.2793C5.22461 5.73242 5.58594 5.37109 6.00586 5.37109C6.42578 5.37109 6.79688 5.73242 6.79688 6.2793C6.79688 6.80664 6.42578 7.16797 6.00586 7.16797ZM9.75586 7.16797C9.33594 7.16797 8.97461 6.80664 8.97461 6.2793C8.97461 5.73242 9.33594 5.37109 9.75586 5.37109C10.1758 5.37109 10.5469 5.73242 10.5469 6.2793C10.5469 6.80664 10.1758 7.16797 9.75586 7.16797Z" fill="currentColor"/>
 </g>
</svg>
