<?xml version="1.0" encoding="UTF-8"?>
<!--Generator: Apple Native CoreSVG 232.5-->
<!DOCTYPE svg
PUBLIC "-//W3C//DTD SVG 1.1//EN"
       "http://www.w3.org/Graphics/SVG/1.1/DTD/svg11.dtd">
<svg version="1.1" xmlns="http://www.w3.org/2000/svg" xmlns:xlink="http://www.w3.org/1999/xlink" width="16.1328" height="15.7715">
 <g>
  <rect height="15.7715" opacity="0" width="16.1328" x="0" y="0"/>
  <path d="M7.88086 15.7617C12.1875 15.7617 15.7715 12.1875 15.7715 7.88086C15.7715 3.57422 12.1777 0 7.87109 0C3.57422 0 0 3.57422 0 7.88086C0 12.1875 3.58398 15.7617 7.88086 15.7617Z" fill="#ffffff" fill-opacity="0.25"/>
  <path d="M7.88086 11.8848C6.19141 11.8848 5.05859 10.7617 5.05859 10.2246C5.05859 10.0195 5.27344 9.91211 5.45898 10C6.06445 10.2832 6.71875 10.6445 7.88086 10.6445C9.05273 10.6445 9.70703 10.2832 10.3125 10C10.498 9.91211 10.7031 10.0195 10.7031 10.2246C10.7031 10.7617 9.58008 11.8848 7.88086 11.8848ZM5.54688 7.17773C5.01953 7.17773 4.57031 6.70898 4.57031 6.05469C4.57031 5.38086 5.01953 4.91211 5.54688 4.91211C6.07422 4.91211 6.5332 5.38086 6.5332 6.05469C6.5332 6.70898 6.07422 7.17773 5.54688 7.17773ZM10.2246 7.17773C9.70703 7.17773 9.25781 6.70898 9.25781 6.05469C9.25781 5.38086 9.70703 4.91211 10.2246 4.91211C10.752 4.91211 11.2207 5.38086 11.2207 6.05469C11.2207 6.70898 10.752 7.17773 10.2246 7.17773Z" fill="#ffffff" fill-opacity="0.85"/>
 </g>
</svg>
