<?xml version="1.0" encoding="UTF-8"?>
<!--Generator: Apple Native CoreSVG 232.5-->
<!DOCTYPE svg
PUBLIC "-//W3C//DTD SVG 1.1//EN"
       "http://www.w3.org/Graphics/SVG/1.1/DTD/svg11.dtd">
<svg version="1.1" xmlns="http://www.w3.org/2000/svg" xmlns:xlink="http://www.w3.org/1999/xlink" width="21.2629" height="19.0723">
 <g>
  <rect height="19.0723" opacity="0" width="21.2629" x="0" y="0"/>
  <path d="M10.4508 14.0234C11.7105 14.0234 12.5699 13.6426 12.5699 13.1836C12.5699 12.7148 11.7105 12.334 10.4508 12.334C9.19101 12.334 8.33163 12.7148 8.33163 13.1836C8.33163 13.6426 9.19101 14.0234 10.4508 14.0234ZM10.4508 4.57031C12.4332 4.57031 14.4059 3.22266 14.4059 1.48438C14.4059 0.927734 14.1227 0.566406 13.4 0.351562C12.5016 0.0976562 11.4762 0 10.4508 0C9.43515 0 8.39999 0.0976562 7.50156 0.351562C6.78867 0.566406 6.4957 0.927734 6.4957 1.48438C6.4957 3.22266 8.47812 4.57031 10.4508 4.57031ZM10.4508 3.4375C8.9957 3.4375 7.86288 2.67578 7.63828 1.54297C7.62851 1.51367 7.64804 1.48438 7.69687 1.46484C8.60507 1.24023 9.52304 1.12305 10.4508 1.12305C11.3785 1.12305 12.2965 1.24023 13.2047 1.46484C13.2535 1.48438 13.2828 1.51367 13.273 1.54297C13.0387 2.67578 11.9156 3.4375 10.4508 3.4375ZM9.74765 3.85742L9.74765 8.96484L11.1539 8.96484L11.1539 3.85742ZM10.4508 9.46289C11.2027 9.46289 11.9644 9.70703 12.4527 10.0195L13.5269 9.31641C12.8141 8.67188 11.6715 8.24219 10.4508 8.24219C9.2496 8.24219 8.12656 8.66211 7.41367 9.28711L8.53671 9.98047C9.02499 9.67773 9.73788 9.46289 10.4508 9.46289ZM10.4508 15.7324C12.7457 15.7324 14.2789 14.707 14.2789 13.1836C14.2789 11.6504 12.7457 10.625 10.4508 10.625C8.15585 10.625 6.63242 11.6504 6.63242 13.1836C6.63242 14.707 8.15585 15.7324 10.4508 15.7324ZM10.4508 14.5117C8.88828 14.5117 7.85312 13.9746 7.85312 13.1836C7.85312 12.3828 8.88828 11.8555 10.4508 11.8555C12.0133 11.8555 13.0484 12.3828 13.0484 13.1836C13.0484 13.9746 12.0133 14.5117 10.4508 14.5117ZM10.4508 10.625L2.98984 6.80664C0.401947 5.47852-1.18008 8.89648 1.09531 9.99023L7.28671 12.9883L7.54062 11.8457L1.59335 8.97461C0.567963 8.47656 1.19296 7.1582 2.46249 7.8125L8.9664 11.1426ZM6.99374 13.7207L6.99374 12.4609L2.56015 14.5312C0.0503847 15.7129 1.82773 19.0332 4.12265 17.8711L8.9957 15.4004L7.90195 14.6777L3.60507 16.8652C2.56992 17.3828 1.92538 16.0742 3.04843 15.5566ZM10.4508 10.625L11.9449 11.1426L18.4391 7.8125C19.7086 7.1582 20.3434 8.47656 19.318 8.97461L13.3707 11.8457L13.6148 12.9883L19.8062 9.99023C22.0816 8.89648 20.4996 5.47852 17.9215 6.80664ZM13.9078 13.7207L17.8531 15.5566C18.9762 16.0742 18.3316 17.3828 17.2965 16.8652L12.9996 14.6777L11.9059 15.4004L16.7789 17.8711C19.0738 19.0332 20.8512 15.7129 18.3512 14.5312L13.9078 12.4609Z" fill="#ffffff" fill-opacity="0.85"/>
 </g>
</svg>
