<?xml version="1.0" encoding="UTF-8"?>
<!--Generator: Apple Native CoreSVG 232.5-->
<!DOCTYPE svg
PUBLIC "-//W3C//DTD SVG 1.1//EN"
       "http://www.w3.org/Graphics/SVG/1.1/DTD/svg11.dtd">
<svg version="1.1" xmlns="http://www.w3.org/2000/svg" xmlns:xlink="http://www.w3.org/1999/xlink" width="14.2688" height="18.6035">
 <g>
  <rect height="18.6035" opacity="0" width="14.2688" x="0" y="0"/>
  <path d="M5.567 3.4082C6.5045 3.4082 7.26622 2.64648 7.26622 1.68945C7.26622 0.761719 6.5045 0 5.567 0C4.61974 0 3.85802 0.761719 3.85802 1.68945C3.85802 2.64648 4.61974 3.4082 5.567 3.4082ZM9.14122 18.4961C9.58067 18.4961 9.93224 18.1445 9.93224 17.7051L9.93224 13.291C9.93224 13.0957 9.83458 12.832 9.58067 12.666L6.74864 10.7812L6.74864 5.97656C6.74864 5.86914 6.83653 5.78125 6.94395 5.78125L13.1061 5.78125C13.5553 5.78125 13.9068 5.41992 13.9068 4.99023C13.9068 4.55078 13.5553 4.18945 13.1061 4.18945L4.33653 4.18945C3.59434 4.18945 3.18419 4.46289 2.80333 4.93164L0.733016 7.4707C0.234969 8.08594 0.63536 8.95508 1.28966 8.95508L3.57481 8.95508L3.57481 10.0586C3.57481 10.7812 3.9752 11.4551 4.6295 11.8066L8.34044 13.8086L8.34044 17.7051C8.34044 18.1445 8.70177 18.4961 9.14122 18.4961ZM2.76427 7.42188L3.61388 6.35742L3.61388 7.42188ZM0.186141 18.2227C0.488876 18.5645 0.986923 18.584 1.32872 18.291L4.44395 15.5664C4.6002 15.4297 4.6588 15.3613 4.71739 15.2148L5.5377 13.1641L4.25841 12.4805C4.13145 12.4121 4.01427 12.334 3.90684 12.2559L3.28184 14.4727L0.264266 17.1094C-0.0579993 17.3926-0.0872962 17.9102 0.186141 18.2227Z" fill="#ffffff" fill-opacity="0.85"/>
 </g>
</svg>
