<?xml version="1.0" encoding="UTF-8"?>
<!--Generator: Apple Native CoreSVG 232.5-->
<!DOCTYPE svg
PUBLIC "-//W3C//DTD SVG 1.1//EN"
       "http://www.w3.org/Graphics/SVG/1.1/DTD/svg11.dtd">
<svg version="1.1" xmlns="http://www.w3.org/2000/svg" xmlns:xlink="http://www.w3.org/1999/xlink" width="10.8379" height="17.5293">
 <g>
  <rect height="17.5293" opacity="0" width="10.8379" x="0" y="0"/>
  <path d="M1.31739 16.7773L3.64161 14.0039C3.87599 13.7305 3.90529 13.6621 4.00294 13.3789L4.16896 12.8906L2.90919 11.2988L2.52833 13.0273L0.23341 15.7617C-0.508777 16.6406 0.70216 17.5098 1.31739 16.7773ZM6.98146 16.543C7.46974 17.5293 8.91505 16.9238 8.38771 15.8594L6.80568 12.6465C6.67872 12.4023 6.51271 12.1387 6.36622 11.9336L5.37013 10.5078L5.43849 10.3027C5.70216 9.50195 5.79982 9.01367 5.85841 8.22266L6.01466 5.97656C6.09279 4.91211 5.46779 4.0918 4.36427 4.0918C3.54396 4.0918 2.98732 4.51172 2.23536 5.24414L1.04396 6.41602C0.653332 6.79688 0.526379 7.11914 0.487317 7.61719L0.350598 9.45312C0.311535 9.92188 0.565442 10.2441 1.00489 10.2637C1.44435 10.293 1.70802 10.0391 1.74708 9.54102L1.92286 7.5293L2.48927 7.02148C2.69435 6.83594 2.94825 6.96289 2.93849 7.1582L2.81154 8.85742C2.74318 9.72656 2.94825 10.1367 3.54396 10.8789L5.11622 12.8516C5.27247 13.0469 5.292 13.125 5.36036 13.252ZM9.6963 7.11914L7.89943 7.11914L6.79591 5.89844L6.65919 7.79297L7.07911 8.20312C7.33302 8.45703 7.55763 8.53516 8.02638 8.53516L9.6963 8.53516C10.1651 8.53516 10.4776 8.26172 10.4776 7.83203C10.4776 7.40234 10.1553 7.11914 9.6963 7.11914ZM5.24318 3.39844C6.18068 3.39844 6.94239 2.63672 6.94239 1.69922C6.94239 0.761719 6.18068 0 5.24318 0C4.29591 0 3.54396 0.761719 3.54396 1.69922C3.54396 2.63672 4.29591 3.39844 5.24318 3.39844Z" fill="#ffffff" fill-opacity="0.85"/>
 </g>
</svg>
