<svg version="1.1" xmlns="http://www.w3.org/2000/svg" xmlns:xlink="http://www.w3.org/1999/xlink" width="19.9414" height="15.7715" viewBox="0 0 19.9414 15.7715">
 <g>
  <rect height="15.7715" opacity="0" width="19.9414" x="0" y="0"/>
  <path d="M15.2295 4.22852C16.3916 4.22852 17.3193 3.25195 17.3193 2.12891C17.3193 0.957031 16.3916 0 15.2295 0C14.0479 0 13.1104 0.957031 13.1104 2.12891C13.1104 3.26172 14.0479 4.22852 15.2295 4.22852ZM2.71973 15.3418C3.12012 15.7617 3.80371 15.7324 4.30176 15.2246L7.6416 11.7773C7.74902 11.6602 7.82715 11.6309 8.00293 11.6992L10.5713 12.6758C12.251 13.3105 13.8525 12.8027 14.5654 11.5039L16.2744 8.38867C16.9287 7.19727 16.7236 5.97656 15.6006 5.37109C14.4971 4.76562 13.3643 5.22461 12.7002 6.43555L10.5225 10.4102L8.66699 9.73633C7.74902 9.4043 6.9873 9.51172 6.25488 10.2637L2.78809 13.8574C2.2998 14.3555 2.34863 14.9707 2.71973 15.3418Z" fill="var(--color-primary)"/>
  <path d="M3.03223 3.13477C3.03223 3.50586 3.31543 3.78906 3.68652 3.78906L6.65527 3.78906L6.65527 4.96094C6.65527 5.55664 7.26074 5.83008 7.70996 5.41992L9.74121 3.58398C10.0244 3.32031 10.0342 2.98828 9.74121 2.71484L7.70996 0.888672C7.28027 0.498047 6.65527 0.712891 6.65527 1.34766L6.65527 2.50977L3.68652 2.50977C3.31543 2.50977 3.03223 2.79297 3.03223 3.13477ZM0.19043 4.58008C-0.0634766 4.83398-0.0634766 5.23438 0.19043 5.48828L2.2998 7.58789L1.47949 8.41797C1.04004 8.86719 1.32324 9.45312 1.88965 9.48242L4.62402 9.61914C5.01465 9.63867 5.25879 9.39453 5.23926 9.00391L5.09277 6.2793C5.06348 5.67383 4.44824 5.43945 4.02832 5.85938L3.19824 6.68945L1.09863 4.58008C0.844727 4.32617 0.43457 4.32617 0.19043 4.58008Z" fill="var(--color-primary)"/>
 </g>
</svg>
