<svg version="1.1" xmlns="http://www.w3.org/2000/svg" xmlns:xlink="http://www.w3.org/1999/xlink" width="19.1354" height="18.1691" viewBox="0 0 19.1354 18.1691">
 <g>
  <rect height="18.1691" opacity="0" width="19.1354" x="0" y="0"/>
  <path d="M13.3079 5.66167L13.3079 7.56368C14.1852 7.70872 14.6263 8.30945 14.6263 9.40191L14.6263 14.5484C14.6263 15.8277 14.0306 16.4332 12.8489 16.4332L8.48516 16.4332C8.48908 16.2507 8.4666 16.0548 8.41534 15.8472L7.59502 12.4781C7.56573 12.3023 7.56573 12.146 7.56573 11.9214L7.74151 11.9898C8.78643 12.3902 9.77276 11.8531 10.0267 10.9351C10.261 10.105 9.86065 9.22613 8.95244 8.85503L7.25323 8.16167C7.33987 7.96172 7.39922 7.74813 7.42742 7.52691L11.931 7.52691L11.931 5.46636C11.931 3.57183 10.7005 2.6441 9.38213 2.6441C8.07354 2.6441 6.85284 3.57183 6.85284 5.46636L6.85284 5.62869C6.51652 5.24062 6.05616 4.96463 5.53221 4.85961C5.84676 2.4314 7.61445 1.3355 9.38213 1.3355C11.345 1.3355 13.3079 2.67339 13.3079 5.66167Z" fill="var(--color-secondary)"/>
  <path d="M5.05596 8.46441C5.75909 8.46441 6.30596 7.90777 6.30596 7.21441C6.30596 6.51128 5.75909 5.94488 5.05596 5.94488C4.3626 5.94488 3.79619 6.51128 3.79619 7.21441C3.79619 7.90777 4.3626 8.46441 5.05596 8.46441ZM5.04619 12.9957C5.21221 12.9957 5.33916 13.0933 5.38799 13.2789L6.24737 16.5796C6.44268 17.3218 7.46807 17.0582 7.36065 16.3453C7.31182 16.0816 6.5794 13.2886 6.47198 12.6636C6.39385 12.1949 6.43291 10.9937 6.43291 10.5347C6.43291 10.3785 6.56963 10.2808 6.72588 10.3492L8.16143 10.9351C8.57159 11.0914 8.85479 10.896 8.92315 10.6226C9.00127 10.3589 8.88409 10.0562 8.52276 9.90972L6.95049 9.26519C6.58916 9.1187 6.28643 9.04058 5.93487 8.99175C5.67119 9.1187 5.36846 9.2066 5.04619 9.2066C4.72393 9.2066 4.42119 9.1187 4.15752 8.99175C3.80596 9.04058 3.49346 9.1187 3.1419 9.26519L1.56963 9.90972C1.2083 10.0562 1.09112 10.3589 1.16924 10.6226C1.2376 10.896 1.5208 11.0914 1.93096 10.9351L3.36651 10.3492C3.52276 10.2808 3.65948 10.3785 3.65948 10.5347C3.65948 10.9937 3.69854 12.1949 3.62041 12.6636C3.51299 13.2886 2.78057 16.0816 2.73174 16.3453C2.62432 17.0582 3.65948 17.3218 3.85479 16.5796L4.7044 13.2789C4.75323 13.0933 4.88018 12.9957 5.04619 12.9957Z" fill="var(--color-primary)"/>
 </g>
</svg>
