<svg version="1.1" xmlns="http://www.w3.org/2000/svg" xmlns:xlink="http://www.w3.org/1999/xlink" width="14.9609" height="13.9746" viewBox="0 0 14.9609 13.9746">
 <g>
  <rect height="13.9746" opacity="0" width="14.9609" x="0" y="0"/>
  <path d="M4.84375 3.39844C5.79102 3.39844 6.54297 2.63672 6.54297 1.69922C6.54297 0.751953 5.79102 0 4.84375 0C3.90625 0 3.14453 0.751953 3.14453 1.69922C3.14453 2.63672 3.90625 3.39844 4.84375 3.39844ZM0.722656 9.28711C0.380859 10.5664 1.20117 11.377 2.19727 11.377C2.51953 11.377 2.85156 11.2988 3.18359 11.1328L7.41211 8.87695L12.0801 11.2207C12.6562 11.4941 13.1152 11.2793 13.2812 10.9082C13.457 10.5566 13.3496 10.0586 12.8125 9.78516L7.91016 7.33398C7.59766 7.16797 7.24609 7.1582 6.91406 7.30469L3.75 8.67188L4.38477 6.44531C4.50195 6.05469 4.85352 5.78125 5.26367 5.78125L11.5527 5.78125C11.9922 5.78125 12.3535 5.42969 12.3535 4.98047C12.3535 4.54102 11.9922 4.17969 11.5527 4.17969L4.67773 4.17969C3.125 4.17969 1.85547 5.07812 1.49414 6.41602ZM0.46875 13.9551L14.1211 13.9551C14.3945 13.9551 14.5996 13.75 14.5996 13.4863C14.5996 13.2227 14.3945 13.0176 14.1211 13.0176L0.46875 13.0176C0.205078 13.0176 0 13.2227 0 13.4863C0 13.75 0.205078 13.9551 0.46875 13.9551Z" fill="var(--color-primary)"/>
 </g>
</svg>
