<svg version="1.1" xmlns="http://www.w3.org/2000/svg" xmlns:xlink="http://www.w3.org/1999/xlink" width="19.797" height="17.6855" viewBox="0 0 19.797 17.6855">
 <g>
  <rect height="17.6855" opacity="0" width="19.797" x="0" y="0"/>
  <path d="M5.24518 3.38867C6.18268 3.38867 6.93464 2.63672 6.93464 1.68945C6.93464 0.751953 6.18268 0 5.24518 0C4.30768 0 3.54596 0.751953 3.54596 1.68945C3.54596 2.63672 4.30768 3.38867 5.24518 3.38867ZM5.24518 10.9375C5.55768 10.9375 5.67487 11.1523 5.86042 11.709C6.12409 12.4902 6.90534 15.752 7.16901 16.6992C7.30573 17.1973 7.55964 17.3926 7.92096 17.3926C8.42878 17.3926 8.74128 16.9336 8.59479 16.4453C8.5362 16.2402 7.41315 11.5234 7.2569 10.5469C7.12018 9.72656 7.09089 8.0957 7.09089 7.19727C7.09089 7.07031 7.22761 7.02148 7.30573 7.12891C7.92096 7.98828 8.95612 9.47266 9.1612 9.7168C9.39557 9.98047 9.76667 10.0293 10.0792 9.85352C10.4796 9.62891 10.5674 9.19922 10.4112 8.90625C10.3428 8.79883 10.2647 8.68164 10.1964 8.57422L8.14557 5.52734C7.54011 4.64844 6.80768 4.16992 5.24518 4.16992C3.67292 4.16992 2.9405 4.64844 2.34479 5.52734L0.284246 8.57422C0.215887 8.68164 0.137762 8.79883 0.079168 8.90625C-0.0868476 9.19922 0.00104303 9.62891 0.411199 9.85352C0.713934 10.0293 1.08503 9.98047 1.3194 9.7168C1.53425 9.47266 2.5694 7.99805 3.17487 7.12891C3.24323 7.03125 3.39948 7.07031 3.39948 7.20703C3.39948 8.10547 3.37018 9.72656 3.23346 10.5469C3.06745 11.5234 1.95417 16.2402 1.89557 16.4453C1.74909 16.9336 2.06159 17.3926 2.55964 17.3926C2.93073 17.3926 3.18464 17.1973 3.31159 16.6992C3.57526 15.752 4.35651 12.4902 4.62995 11.709C4.8155 11.1523 4.93268 10.9375 5.24518 10.9375ZM14.2003 3.38867C15.1378 3.38867 15.8897 2.63672 15.8897 1.68945C15.8897 0.751953 15.1378 0 14.2003 0C13.253 0 12.501 0.751953 12.501 1.68945C12.501 2.63672 13.253 3.38867 14.2003 3.38867ZM14.2003 10.9375C14.5128 10.9375 14.6299 11.1523 14.8155 11.709C15.0792 12.4902 15.8604 15.752 16.1241 16.6992C16.2608 17.1973 16.5147 17.3926 16.876 17.3926C17.3839 17.3926 17.6866 16.9336 17.5499 16.4453C17.4913 16.2402 16.3682 11.5234 16.2022 10.5469C16.0753 9.72656 16.0362 8.0957 16.0362 7.19727C16.0362 7.07031 16.1827 7.02148 16.2608 7.12891C16.876 7.98828 17.9112 9.47266 18.1163 9.7168C18.3507 9.98047 18.7217 10.0293 19.0342 9.85352C19.4346 9.62891 19.5225 9.19922 19.3565 8.90625C19.2979 8.79883 19.2198 8.68164 19.1514 8.57422L17.0909 5.52734C16.4952 4.64844 15.7628 4.16992 14.2003 4.16992C12.628 4.16992 11.8956 4.64844 11.2999 5.52734L9.23932 8.57422C9.17096 8.68164 9.09284 8.79883 9.03425 8.90625C8.86823 9.19922 8.95612 9.62891 9.36628 9.85352C9.66901 10.0293 10.0401 9.98047 10.2745 9.7168C10.4893 9.47266 11.5147 7.99805 12.1299 7.12891C12.1983 7.03125 12.3546 7.07031 12.3546 7.20703C12.3546 8.10547 12.3253 9.72656 12.1885 10.5469C12.0225 11.5234 10.9092 16.2402 10.8507 16.4453C10.7042 16.9336 11.0069 17.3926 11.5147 17.3926C11.8858 17.3926 12.1299 17.1973 12.2667 16.6992C12.5303 15.752 13.3116 12.4902 13.585 11.709C13.7608 11.1523 13.8878 10.9375 14.2003 10.9375Z" fill="currentColor"/>
 </g>
</svg>
