<svg version="1.1" xmlns="http://www.w3.org/2000/svg" xmlns:xlink="http://www.w3.org/1999/xlink" width="19.5654" height="17.3535" viewBox="0 0 19.5654 17.3535">
 <g>
  <rect height="17.3535" opacity="0" width="19.5654" x="0" y="0"/>
  <path d="M5.21725 3.55469C6.10593 3.55469 6.81882 2.83203 6.81882 1.95312C6.81882 1.06445 6.10593 0.351562 5.21725 0.351562C4.32858 0.351562 3.61569 1.06445 3.61569 1.95312C3.61569 2.83203 4.32858 3.55469 5.21725 3.55469ZM14.6411 3.21289C15.52 3.21289 16.2426 2.49023 16.2426 1.61133C16.2426 0.722656 15.52-1.77636e-15 14.6411-1.77636e-15C13.7524-1.77636e-15 13.0395 0.722656 13.0395 1.61133C13.0395 2.49023 13.7524 3.21289 14.6411 3.21289ZM0.754364 5.50781L2.40475 5.63477C2.50241 5.64453 2.58054 5.72266 2.58054 5.83008L2.58054 8.82812C2.58054 9.42383 2.77585 10.0098 3.13718 10.4687L5.061 12.9395L4.07468 16.2012C3.94772 16.6309 4.19186 17.0898 4.61179 17.207C5.02194 17.3242 5.47116 17.1289 5.60788 16.6602L6.7114 12.998C6.73093 12.9297 6.74069 12.8711 6.74069 12.8027L9.70944 16.5625C9.98288 16.9043 10.5005 16.9727 10.8227 16.6992C11.1743 16.4062 11.2329 15.918 10.9594 15.5762L5.65671 8.85742L5.90085 6.47461C5.92038 6.30859 6.07663 6.2207 6.22311 6.29883L8.06882 7.2168C8.19577 7.28516 8.42038 7.33398 8.60593 7.33398L11.438 7.33398C11.6235 7.33398 11.8188 7.26562 11.9555 7.14844L13.2934 5.99609C13.4301 5.87891 13.5962 5.9375 13.6548 6.09375L14.4067 8.19336L11.2231 9.0625C10.9008 9.15039 10.6567 9.42383 10.6274 9.76562L10.2758 13.4277C10.227 13.9453 10.6762 14.2969 11.0669 14.2969C11.477 14.2969 11.8286 13.9941 11.8676 13.584L12.1704 10.5273L14.3969 10.1855L13.3325 12.334C13.2153 12.5684 13.1567 12.8223 13.2544 13.0664L14.7192 16.7285C14.9048 17.1777 15.3833 17.334 15.7641 17.1777C16.1645 17.0117 16.3696 16.543 16.2036 16.1328L14.895 12.8711L16.7016 10.3027C17.1606 9.66797 17.3266 8.83789 17.1899 8.07617L16.9067 6.52344C16.8676 6.32812 17.0337 6.19141 17.229 6.25977L18.1469 6.5625C18.7817 6.77734 19.2602 6.39648 19.2016 5.76172L18.8305 2.06055C18.7915 1.62109 18.3813 1.28906 17.9614 1.33789C17.5219 1.38672 17.1997 1.78711 17.2387 2.22656L17.4829 4.6582L15.2758 3.92578C14.3676 3.62305 13.4106 3.78906 12.6587 4.43359L11.145 5.74219L8.69382 5.74219L6.32077 4.56055C5.95944 4.375 5.60788 4.27734 5.20749 4.24805L1.88718 3.99414L2.66843 1.66992C2.81491 1.24023 2.58054 0.791016 2.16061 0.654297C1.74069 0.517578 1.29147 0.742187 1.15475 1.15234L0.0414732 4.45312C-0.124542 4.94141 0.22702 5.46875 0.754364 5.50781Z" fill="var(--color-primary)"/>
 </g>
</svg>
