<svg version="1.1" xmlns="http://www.w3.org/2000/svg" xmlns:xlink="http://www.w3.org/1999/xlink" width="13.3887" height="19.8145" viewBox="0 0 13.3887 19.8145">
 <g>
  <rect height="19.8145" opacity="0" width="13.3887" x="0" y="0"/>
  <path d="M4.50195 6.34766C5.42969 6.34766 6.20117 5.58594 6.20117 4.63867C6.20117 3.70117 5.42969 2.94922 4.50195 2.94922C3.55469 2.94922 2.80273 3.70117 2.80273 4.63867C2.80273 5.58594 3.55469 6.34766 4.50195 6.34766ZM0 10.1367C0 10.752 0.634766 11.0254 1.11328 10.7812L3.84766 9.41406C3.97461 9.3457 4.12109 9.42383 4.16016 9.56055L4.94141 12.7344L3.70117 15.8496L0.771484 15.8496C0.351562 15.8496 0 16.1914 0 16.6113C0 17.0312 0.351562 17.373 0.771484 17.373L4.17969 17.373C4.53125 17.373 4.74609 17.2363 4.91211 16.9238L6.57227 13.8574L7.5 16.2988L4.56055 18.2715C4.20898 18.5059 4.11133 18.9941 4.3457 19.3359C4.58008 19.6777 5.01953 19.7949 5.40039 19.541L8.87695 17.2266C9.14062 17.0508 9.26758 16.7969 9.15039 16.3281L7.08984 8.125C7.05078 7.94922 7.08984 7.79297 7.28516 7.69531L12.5977 5.04883C12.9785 4.86328 13.1348 4.39453 12.9395 4.01367C12.7441 3.63281 12.2852 3.48633 11.9141 3.67188L1.5332 8.86719L1.5332 6.26953C1.5332 5.84961 1.19141 5.50781 0.771484 5.50781C0.351562 5.50781 0 5.84961 0 6.26953ZM10.7227 3.01758C11.5625 3.01758 12.2266 2.34375 12.2266 1.51367C12.2266 0.683594 11.5625 0 10.7227 0C9.89258 0 9.21875 0.683594 9.21875 1.51367C9.21875 2.34375 9.89258 3.01758 10.7227 3.01758Z" fill="currentColor"/>
 </g>
</svg>
