<svg version="1.1" xmlns="http://www.w3.org/2000/svg" xmlns:xlink="http://www.w3.org/1999/xlink" width="17.9103" height="17.5587" viewBox="0 0 17.9103 17.5587">
 <g>
  <rect height="17.5587" opacity="0" width="17.9103" x="0" y="0"/>
  <path d="M10.5274 0.893616L16.6505 7.01666C17.8321 8.1983 17.8516 9.35065 16.6797 10.5128L10.5176 16.6846C9.34576 17.8467 8.19342 17.837 7.02155 16.6553L0.888733 10.5323C-0.283142 9.35065-0.302673 8.20807 0.869202 7.03619L7.03131 0.864319C8.20319-0.297791 9.35553-0.288025 10.5274 0.893616ZM7.13873 6.44049L6.40631 7.15338C6.1817 7.37799 6.09381 7.56354 6.06451 7.86627L5.97662 8.93073C5.94733 9.23346 6.11334 9.43854 6.39655 9.45807C6.66998 9.4776 6.85553 9.31158 6.87506 8.99908L6.96295 7.83698L7.4317 7.41705C7.54889 7.30963 7.69537 7.39752 7.68561 7.55377L7.60748 8.62799C7.56842 9.14557 7.82233 9.52643 8.086 9.85846L9.0235 11.0303C9.10162 11.128 9.13092 11.1671 9.18951 11.2647L10.2149 13.3643C10.3126 13.5694 10.4688 13.6768 10.6739 13.6768C10.9473 13.6768 11.1524 13.4913 11.1524 13.2374C11.1524 13.1299 11.1133 13.0323 11.0547 12.9053L10.088 10.9522C10.0001 10.7374 9.89264 10.6006 9.81451 10.4932L9.23834 9.67291L9.28717 9.5069C9.43365 9.00885 9.55084 8.69635 9.58014 8.23737L9.66803 6.96783C9.71686 6.21588 9.29694 5.7276 8.58405 5.7276C8.086 5.7276 7.61725 5.97174 7.13873 6.44049ZM7.42194 11.1866L6.04498 12.8272C5.9278 12.9542 5.8399 13.0714 5.8399 13.2374C5.8399 13.501 6.00592 13.6768 6.25006 13.6768C6.38678 13.6768 6.5235 13.6182 6.61139 13.5108L8.1153 11.7432C8.28131 11.5479 8.29108 11.5479 8.33014 11.3819L8.3985 11.0889L7.63678 10.1417ZM10.088 7.97369L10.4102 8.29596C10.5567 8.44244 10.6837 8.49127 10.9571 8.49127L12.129 8.49127C12.4415 8.49127 12.627 8.32526 12.627 8.04205C12.627 7.76862 12.4317 7.59283 12.129 7.59283L10.8692 7.59283L10.1661 6.83112ZM8.19342 4.23346C8.19342 4.7901 8.6524 5.24908 9.19928 5.24908C9.75592 5.24908 10.2247 4.78033 10.2247 4.23346C10.2247 3.66705 9.76569 3.21783 9.19928 3.21783C8.64264 3.21783 8.19342 3.66705 8.19342 4.23346Z" fill="currentColor"/>
 </g>
</svg>
