<svg version="1.1" xmlns="http://www.w3.org/2000/svg" xmlns:xlink="http://www.w3.org/1999/xlink" width="10.8301" height="21.2012" viewBox="0 0 10.8301 21.2012">
 <g>
  <rect height="21.2012" opacity="0" width="10.8301" x="0" y="0"/>
  <path d="M5.23438 5.82031C6.15234 5.82031 6.89453 5.07812 6.89453 4.15039C6.89453 3.22266 6.15234 2.48047 5.23438 2.48047C4.30664 2.48047 3.56445 3.22266 3.56445 4.15039C3.56445 5.07812 4.30664 5.82031 5.23438 5.82031ZM4.11133 21.2012C4.51172 21.2012 4.86328 20.8496 4.86328 20.4395L4.86328 16.3672L5.23438 13.3398L5.60547 16.3672L5.60547 20.4395C5.60547 20.8496 5.95703 21.2012 6.35742 21.2012C6.76758 21.2012 7.10938 20.8496 7.10938 20.4395L7.10938 9.58984C7.10938 9.50195 7.23633 9.48242 7.27539 9.56055C8.22266 11.3184 8.7793 12.8906 9.01367 13.5742C9.15039 13.9551 9.58008 14.1699 9.9707 14.0332C10.2734 13.9355 10.4688 13.6523 10.4688 13.3398C10.4688 13.2617 10.459 13.1738 10.4297 13.0957C10.3809 12.9297 9.08203 9.04297 7.46094 7.20703C7.11914 6.81641 6.61133 6.58203 6.07422 6.58203L4.4043 6.58203C3.85742 6.58203 3.34961 6.81641 3.00781 7.20703C1.38672 9.04297 0.0878906 12.9297 0.0390625 13.0957C0.00976562 13.1738 0 13.2617 0 13.3398C0 13.6523 0.195312 13.9355 0.507812 14.0332C0.888672 14.1699 1.31836 13.9551 1.45508 13.5742C1.68945 12.8906 2.24609 11.3184 3.19336 9.56055C3.23242 9.48242 3.35938 9.50195 3.35938 9.58984L3.35938 20.4395C3.35938 20.8496 3.70117 21.2012 4.11133 21.2012ZM5.23438 0.947266C7.98828 0.947266 9.52148 3.53516 9.52148 7.95898L9.52148 13.3496L10.4688 13.3496L10.4688 7.95898C10.4688 2.91992 8.59375 0 5.23438 0C1.88477 0 0.00976562 2.91992 0.00976562 7.95898L0.00976562 13.3496L0.957031 13.3496L0.957031 7.95898C0.957031 3.53516 2.49023 0.947266 5.23438 0.947266Z" fill="currentColor"/>
 </g>
</svg>
