<svg version="1.1" xmlns="http://www.w3.org/2000/svg" xmlns:xlink="http://www.w3.org/1999/xlink" width="10.3418" height="19.6191" viewBox="0 0 10.3418 19.6191">
 <g>
  <rect height="19.6191" opacity="0" width="10.3418" x="0" y="0"/>
  <path d="M1.13281 19.1113C1.58203 19.1113 1.92383 18.7695 1.92383 18.3398L1.92383 14.6191L4.0918 12.3145C4.14062 12.2656 4.21875 12.2656 4.25781 12.3145L6.33789 15.0977L8.10547 18.623C8.59375 19.6191 9.98047 18.9062 9.51172 17.9688L5.86914 10.6738C5.53711 10.0195 5.37109 9.13086 5.29297 8.24219C5.27344 7.94922 5.45898 7.8125 5.71289 7.93945L7.14844 8.67188L8.47656 11.3281C8.95508 12.2754 10.3711 11.6309 9.87305 10.6348L8.41797 7.74414C8.33984 7.58789 8.23242 7.4707 8.07617 7.39258L6.00586 6.35742C5.39062 6.04492 4.75586 5.92773 4.17969 5.78125C3.50586 5.61523 2.90039 5.41016 2.50977 4.83398L1.5625 3.45703L1.5625 0.771484C1.5625 0.351562 1.20117 0 0.78125 0C0.351562 0 0 0.351562 0 0.771484L0 3.71094C0 3.88672 0.0390625 4.00391 0.136719 4.15039L1.78711 6.5332C1.93359 6.74805 2.03125 6.89453 2.06055 7.24609C2.12891 8.11523 2.31445 9.7168 2.66602 10.8789L0.517578 13.8574C0.410156 14.0137 0.371094 14.1602 0.371094 14.3164L0.371094 18.3398C0.371094 18.7695 0.712891 19.1113 1.13281 19.1113ZM4.70703 5C5.63477 5 6.39648 4.23828 6.39648 3.29102C6.39648 2.35352 5.63477 1.60156 4.70703 1.60156C3.75 1.60156 2.99805 2.35352 2.99805 3.29102C2.99805 4.23828 3.75 5 4.70703 5Z" fill="currentColor"/>
 </g>
</svg>
