<svg version="1.1" xmlns="http://www.w3.org/2000/svg" xmlns:xlink="http://www.w3.org/1999/xlink" width="16.1328" height="15.7715" viewBox="0 0 16.1328 15.7715">
 <g>
  <rect height="15.7715" opacity="0" width="16.1328" x="0" y="0"/>
  <path d="M7.88086 15.7617C12.1875 15.7617 15.7715 12.1875 15.7715 7.88086C15.7715 3.57422 12.1777 0 7.87109 0C3.57422 0 0 3.57422 0 7.88086C0 12.1875 3.58398 15.7617 7.88086 15.7617ZM7.88086 14.2773C4.33594 14.2773 1.50391 11.4355 1.50391 7.88086C1.50391 4.32617 4.32617 1.48438 7.87109 1.48438C11.4258 1.48438 14.2773 4.32617 14.2773 7.88086C14.2773 11.4355 11.4355 14.2773 7.88086 14.2773Z" fill="var(--color-primary)"/>
  <path d="M7.89062 5.24414C8.4668 5.24414 8.93555 4.78516 8.93555 4.20898C8.93555 3.63281 8.4668 3.16406 7.89062 3.16406C7.31445 3.16406 6.8457 3.63281 6.8457 4.20898C6.8457 4.78516 7.31445 5.24414 7.89062 5.24414ZM7.88086 8.99414C8.02734 8.99414 8.125 9.07227 8.17383 9.22852L8.87695 11.9531C9.0332 12.5684 9.88281 12.3535 9.79492 11.7578C9.75586 11.543 9.15039 9.23828 9.0625 8.7207C8.99414 8.33008 9.02344 7.34375 9.02344 6.96289C9.02344 6.82617 9.14062 6.75781 9.27734 6.80664L10.4688 7.29492C10.791 7.42188 11.0254 7.25586 11.084 7.03125C11.1621 6.81641 11.0645 6.5625 10.7617 6.44531L9.46289 5.9082C9.16016 5.79102 8.91602 5.72266 8.62305 5.68359C8.39844 5.79102 8.1543 5.85938 7.88086 5.85938C7.61719 5.85938 7.36328 5.79102 7.14844 5.68359C6.85547 5.72266 6.61133 5.79102 6.30859 5.9082L5.00977 6.44531C4.70703 6.5625 4.60938 6.81641 4.67773 7.03125C4.74609 7.25586 4.9707 7.42188 5.30273 7.29492L6.49414 6.80664C6.63086 6.75781 6.74805 6.82617 6.74805 6.96289C6.74805 7.34375 6.77734 8.33008 6.70898 8.7207C6.62109 9.23828 6.01562 11.543 5.97656 11.7578C5.88867 12.3535 6.73828 12.5684 6.89453 11.9531L7.59766 9.22852C7.64648 9.07227 7.74414 8.99414 7.88086 8.99414Z" fill="var(--color-primary)"/>
 </g>
</svg>
