<?xml version="1.0" encoding="UTF-8"?>
<!--Generator: Apple Native CoreSVG 232.5-->
<!DOCTYPE svg
PUBLIC "-//W3C//DTD SVG 1.1//EN"
       "http://www.w3.org/Graphics/SVG/1.1/DTD/svg11.dtd">
<svg version="1.1" xmlns="http://www.w3.org/2000/svg" xmlns:xlink="http://www.w3.org/1999/xlink" width="15.2393" height="15.7715">
 <g>
  <rect height="15.7715" opacity="0" width="15.2393" x="0" y="0"/>
  <path d="M12.7906 4.22852C13.9624 4.22852 14.8804 3.25195 14.8804 2.12891C14.8804 0.957031 13.9624 0 12.7906 0C11.6187 0 10.6812 0.957031 10.6812 2.12891C10.6812 3.26172 11.6187 4.22852 12.7906 4.22852ZM0.280804 15.3418C0.681195 15.7617 1.37455 15.7324 1.8726 15.2246L5.21244 11.7773C5.31987 11.6602 5.39799 11.6309 5.57377 11.6992L8.14213 12.6758C9.82182 13.3105 11.4234 12.8027 12.1363 11.5039L13.8453 8.38867C14.4996 7.19727 14.2945 5.97656 13.1617 5.37109C12.0679 4.76562 10.9253 5.22461 10.271 6.43555L8.0933 10.4102L6.23784 9.73633C5.31987 9.4043 4.54838 9.51172 3.82573 10.2637L0.349164 13.8574C-0.129352 14.3555-0.0805238 14.9707 0.280804 15.3418Z" fill="#ffffff" fill-opacity="0.85"/>
  <path d="M1.42338 7.5C1.73588 7.5 1.96049 7.34375 2.08744 6.94336L2.60502 5.41016L5.2808 5.41016L5.78862 6.94336C5.92534 7.34375 6.14994 7.5 6.46244 7.5C6.8433 7.5 7.09721 7.24609 7.09721 6.89453C7.09721 6.75781 7.06791 6.63086 7.00932 6.44531L4.91948 0.78125C4.75346 0.332031 4.41166 0.0976562 3.93315 0.0976562C3.4644 0.0976562 3.13237 0.332031 2.96635 0.78125L0.876507 6.44531C0.808148 6.63086 0.778851 6.75781 0.778851 6.89453C0.778851 7.25586 1.03276 7.5 1.42338 7.5ZM2.94682 4.375L3.89409 1.54297L3.99174 1.54297L4.93901 4.375Z" fill="#ffffff" fill-opacity="0.85"/>
 </g>
</svg>
