<?xml version="1.0" encoding="UTF-8"?>
<!--Generator: Apple Native CoreSVG 232.5-->
<!DOCTYPE svg
PUBLIC "-//W3C//DTD SVG 1.1//EN"
       "http://www.w3.org/Graphics/SVG/1.1/DTD/svg11.dtd">
<svg version="1.1" xmlns="http://www.w3.org/2000/svg" xmlns:xlink="http://www.w3.org/1999/xlink" width="13.2381" height="19.0723">
 <g>
  <rect height="19.0723" opacity="0" width="13.2381" x="0" y="0"/>
  <path d="M4.56336 3.4082C5.4911 3.4082 6.26258 2.63672 6.26258 1.70898C6.26258 0.771484 5.4911 0.00976562 4.56336 0.00976562C3.62586 0.00976562 2.86415 0.771484 2.86415 1.70898C2.86415 2.63672 3.62586 3.4082 4.56336 3.4082ZM5.75477 15.2734C6.10633 15.332 6.48719 15.1562 6.62391 14.6973L7.66883 11.1816C7.81532 10.6934 7.61024 10.2832 7.15126 10.1172L4.43641 9.14062L4.84657 6.31836C4.8661 6.16211 4.99305 6.11328 5.13954 6.18164L6.50672 6.80664C6.68251 6.88477 6.82899 6.91406 7.06336 6.93359L10.5009 7.28516C10.9306 7.33398 11.3212 7.02148 11.3505 6.5918C11.3895 6.17188 11.077 5.79102 10.6571 5.75195L7.14149 5.40039L4.49501 4.17969C3.36219 3.67188 2.18055 4.23828 2.03407 5.38086L1.59461 8.69141C1.47743 9.6582 2.07313 10.5469 3.03016 10.7715L5.97938 11.4453L5.12977 14.248C4.95399 14.8242 5.33485 15.2148 5.75477 15.2734ZM0.373912 17.7246C0.705943 17.9004 1.16493 17.8613 1.46766 17.4121L3.56727 14.2676C3.65516 14.1406 3.70399 13.9941 3.73329 13.7988L4.05555 11.8066L2.87391 11.543C2.68836 11.5039 2.50282 11.4453 2.32704 11.3574L2.18055 13.5547L0.178599 16.5527C-0.163198 17.0605 0.0321148 17.5195 0.373912 17.7246ZM12.8251 4.92188C12.7079 4.6582 12.4247 4.57031 12.1806 4.6875C11.8681 4.84375 11.5751 5 11.2821 5.13672C11.5946 5.30273 11.8388 5.55664 11.9852 5.86914C12.1806 5.76172 12.3856 5.6543 12.6102 5.53711C12.8446 5.41992 12.9423 5.14648 12.8251 4.92188ZM2.22938 19.0723L5.13954 19.0723C5.40321 19.0723 5.60829 18.8672 5.60829 18.6035L5.60829 17.2656L8.04969 17.2656C8.3036 17.2656 8.51844 17.041 8.51844 16.7773L8.51844 15.4395L9.91493 15.4395C10.1688 15.4395 10.3739 15.2441 10.3837 14.9707L10.6571 8.05664C10.5692 8.05664 10.5204 8.05664 10.4618 8.05664C10.2177 8.05664 9.94422 8.02734 9.70985 7.98828L9.44618 14.4824L8.04969 14.4824C7.77626 14.4824 7.57118 14.6875 7.57118 14.9609L7.57118 16.3086L5.13954 16.3086C4.8661 16.3086 4.66102 16.5137 4.66102 16.7773L4.66102 18.125L2.22938 18.125C1.96571 18.125 1.75086 18.3496 1.75086 18.6035C1.75086 18.8574 1.97547 19.0723 2.22938 19.0723Z" fill="#ffffff" fill-opacity="0.85"/>
 </g>
</svg>
