<?xml version="1.0" encoding="UTF-8"?>
<!--Generator: Apple Native CoreSVG 232.5-->
<!DOCTYPE svg
PUBLIC "-//W3C//DTD SVG 1.1//EN"
       "http://www.w3.org/Graphics/SVG/1.1/DTD/svg11.dtd">
<svg version="1.1" xmlns="http://www.w3.org/2000/svg" xmlns:xlink="http://www.w3.org/1999/xlink" width="19.0137" height="18.877">
 <g>
  <rect height="18.877" opacity="0" width="19.0137" x="0" y="0"/>
  <path d="M9.33594 3.39844C10.2637 3.39844 11.0352 2.64648 11.0352 1.68945C11.0352 0.761719 10.2637 0 9.33594 0C8.38867 0 7.63672 0.761719 7.63672 1.68945C7.63672 2.64648 8.38867 3.39844 9.33594 3.39844ZM7.62695 9.16016L11.0547 9.16016L11.0547 7.36328C11.0547 7.22656 11.2598 7.16797 11.3379 7.33398L13.5059 11.748C13.7012 12.1289 14.1699 12.2949 14.5605 12.0898C14.9316 11.9043 15.0977 11.4355 14.9023 11.0449L12.041 5.26367C11.6992 4.57031 11.0645 4.17969 10.2637 4.17969L8.39844 4.17969C7.60742 4.17969 6.96289 4.57031 6.62109 5.26367L3.76953 11.0449C3.57422 11.4355 3.74023 11.9043 4.10156 12.0898C4.49219 12.2949 4.96094 12.1289 5.15625 11.748L7.34375 7.33398C7.42188 7.16797 7.62695 7.2168 7.62695 7.35352ZM6.17188 18.8184C6.55273 18.8965 6.98242 18.7012 7.09961 18.1641L7.82227 14.8242L9.33594 12.0996L10.8398 14.8242L11.5625 18.1641C11.6797 18.7207 12.1484 18.9062 12.5293 18.8086C12.9004 18.7109 13.1934 18.3594 13.0859 17.8223L12.3438 14.375C12.334 14.3066 12.3242 14.2578 12.2949 14.1895L11.3965 11.6504L7.27539 11.6504L6.36719 14.1895C6.33789 14.2578 6.32812 14.3066 6.31836 14.375L5.58594 17.8223C5.46875 18.3789 5.80078 18.7402 6.17188 18.8184ZM1.66992 13.0176L2.06055 13.0176C2.39258 13.0176 2.60742 12.7832 2.60742 12.4512L2.60742 8.33984C2.60742 8.00781 2.39258 7.79297 2.06055 7.79297L1.66992 7.79297C1.33789 7.79297 1.11328 8.00781 1.11328 8.33984L1.11328 12.4512C1.11328 12.7832 1.33789 13.0176 1.66992 13.0176ZM16.6016 13.0176L16.9922 13.0176C17.3242 13.0176 17.5391 12.7832 17.5391 12.4512L17.5391 8.33984C17.5391 8.00781 17.3242 7.79297 16.9922 7.79297L16.6016 7.79297C16.2695 7.79297 16.0449 8.00781 16.0449 8.33984L16.0449 12.4512C16.0449 12.7832 16.2695 13.0176 16.6016 13.0176ZM0.46875 10.8789L18.1836 10.8789C18.4473 10.8789 18.6523 10.6641 18.6523 10.4004C18.6523 10.1367 18.4473 9.93164 18.1836 9.93164L0.46875 9.93164C0.205078 9.93164 0 10.1367 0 10.4004C0 10.6641 0.205078 10.8789 0.46875 10.8789Z" fill="#ffffff" fill-opacity="0.85"/>
 </g>
</svg>
