<svg version="1.1" xmlns="http://www.w3.org/2000/svg" xmlns:xlink="http://www.w3.org/1999/xlink" width="15.4575" height="18.3105" viewBox="0 0 15.4575 18.3105">
 <g>
  <rect height="18.3105" opacity="0" width="15.4575" x="0" y="0"/>
  <path d="M7.55298 3.92578C8.50025 3.92578 9.2522 3.16406 9.2522 2.22656C9.2522 1.2793 8.50025 0.527344 7.55298 0.527344C6.61548 0.527344 5.85377 1.2793 5.85377 2.22656C5.85377 3.16406 6.61548 3.92578 7.55298 3.92578ZM14.0374 5.35156C13.7151 5.0293 13.2268 5.03906 12.9045 5.35156L11.01 7.23633L9.10572 5.32227C8.74439 4.94141 8.14869 4.70703 7.55298 4.70703L2.44556 4.70703C2.094 4.70703 1.80103 4.91211 1.68384 5.26367L0.46314 8.93555C0.277593 9.50195 0.599859 9.89258 1.00025 9.99023C1.37134 10.0879 1.80103 9.93164 1.96705 9.43359L3.02173 6.30859L4.71119 6.30859C4.86744 6.30859 4.97486 6.43555 4.92603 6.5918L3.88111 9.7168C3.54908 10.7227 3.85181 11.6992 4.99439 12.1875L8.3147 13.6523L9.42798 17.5684C9.57447 18.0664 10.0237 18.2129 10.4045 18.1152C10.7952 18.0078 11.1077 17.6465 10.9612 17.1387L9.73072 12.8418C9.66236 12.6074 9.55494 12.4512 9.29127 12.334L6.70337 11.1914L8.08033 7.04102C8.13892 6.86523 8.344 6.80664 8.48072 6.94336L10.4436 8.93555C10.7561 9.24805 11.2639 9.24805 11.5764 8.93555L14.0374 6.47461C14.3596 6.16211 14.3596 5.67383 14.0374 5.35156ZM4.14478 12.5977L3.75416 14.7949L0.414312 16.6602C-0.0642036 16.9238-0.0837349 17.4219 0.131109 17.7637C0.336187 18.0957 0.756109 18.3008 1.20533 18.0469L4.88697 16.0059C5.11158 15.8789 5.1897 15.7324 5.26783 15.498L5.94166 13.4473L4.68189 12.8906C4.48658 12.8027 4.3108 12.7051 4.14478 12.5977ZM14.6526 3.90625C14.926 3.75977 15.092 3.48633 15.092 3.18359L15.092 0.810547C15.092 0.371094 14.7502 0 14.301 0L12.6409 0C12.1917 0 11.8401 0.371094 11.8401 0.810547L11.8401 3.18359C11.8401 3.48633 12.0061 3.75977 12.2795 3.90625L13.471 4.51172ZM13.0022 5.9082L13.9495 5.9082L13.9495 3.67188L13.0022 3.67188Z" fill="var(--color-primary)"/>
 </g>
</svg>
