<svg version="1.1" xmlns="http://www.w3.org/2000/svg" xmlns:xlink="http://www.w3.org/1999/xlink" width="16.1328" height="15.7715" viewBox="0 0 16.1328 15.7715">
 <g>
  <rect height="15.7715" opacity="0" width="16.1328" x="0" y="0"/>
  <path d="M7.88086 15.7617C12.1875 15.7617 15.7715 12.1875 15.7715 7.88086C15.7715 3.57422 12.1777 0 7.87109 0C3.57422 0 0 3.57422 0 7.88086C0 12.1875 3.58398 15.7617 7.88086 15.7617Z" fill="var(--color-tertiary)"/>
  <path d="M4.25781 11.416C3.75 11.416 3.4082 11.0938 3.4082 10.5957L3.4082 5.18555C3.4082 4.69727 3.75 4.36523 4.25781 4.36523L11.5332 4.36523C12.041 4.36523 12.3828 4.69727 12.3828 5.18555L12.3828 10.5957C12.3828 11.0938 12.041 11.416 11.5332 11.416ZM4.31641 10.7031L4.85352 10.7031C4.99023 10.7031 5.07812 10.6055 5.07812 10.4688L5.07812 10C5.07812 9.85352 4.99023 9.75586 4.85352 9.75586L4.30664 9.75586C4.16016 9.75586 4.08203 9.85352 4.08203 10L4.08203 10.4688C4.08203 10.6055 4.16016 10.7031 4.31641 10.7031ZM4.30664 9.11133L4.85352 9.11133C4.99023 9.11133 5.07812 9.00391 5.07812 8.88672L5.07812 8.4082C5.07812 8.25195 4.99023 8.17383 4.85352 8.17383L4.30664 8.17383C4.16016 8.17383 4.08203 8.25195 4.08203 8.4082L4.08203 8.88672C4.08203 9.00391 4.16016 9.11133 4.30664 9.11133ZM4.30664 7.55859L4.85352 7.55859C4.99023 7.55859 5.07812 7.45117 5.07812 7.33398L5.07812 6.8457C5.07812 6.69922 4.99023 6.61133 4.85352 6.61133L4.30664 6.61133C4.16016 6.61133 4.08203 6.69922 4.08203 6.8457L4.08203 7.33398C4.08203 7.45117 4.16016 7.55859 4.30664 7.55859ZM4.30664 6.00586L4.85352 6.00586C4.99023 6.00586 5.07812 5.89844 5.07812 5.78125L5.07812 5.3125C5.07812 5.17578 4.99023 5.06836 4.85352 5.06836L4.30664 5.06836C4.16016 5.06836 4.08203 5.17578 4.08203 5.3125L4.08203 5.78125C4.08203 5.89844 4.16016 6.00586 4.30664 6.00586ZM10.9277 10.7031L11.4746 10.7031C11.6309 10.7031 11.709 10.6055 11.709 10.4688L11.709 10C11.709 9.85352 11.6309 9.75586 11.4746 9.75586L10.9277 9.75586C10.791 9.75586 10.7031 9.85352 10.7031 10L10.7031 10.4688C10.7031 10.6055 10.791 10.7031 10.9277 10.7031ZM10.9277 9.11133L11.4746 9.11133C11.6309 9.11133 11.709 9.00391 11.709 8.88672L11.709 8.4082C11.709 8.25195 11.6309 8.17383 11.4746 8.17383L10.9277 8.17383C10.791 8.17383 10.7031 8.25195 10.7031 8.4082L10.7031 8.88672C10.7031 9.00391 10.791 9.11133 10.9277 9.11133ZM10.9277 7.55859L11.4746 7.55859C11.6309 7.55859 11.709 7.45117 11.709 7.33398L11.709 6.8457C11.709 6.69922 11.6309 6.61133 11.4746 6.61133L10.9277 6.61133C10.791 6.61133 10.7031 6.69922 10.7031 6.8457L10.7031 7.33398C10.7031 7.45117 10.791 7.55859 10.9277 7.55859ZM10.9277 6.00586L11.4746 6.00586C11.6309 6.00586 11.709 5.89844 11.709 5.78125L11.709 5.3125C11.709 5.17578 11.6309 5.06836 11.4746 5.06836L10.9277 5.06836C10.791 5.06836 10.7031 5.17578 10.7031 5.3125L10.7031 5.78125C10.7031 5.89844 10.791 6.00586 10.9277 6.00586ZM6.08398 7.55859L9.7168 7.55859C9.84375 7.55859 9.93164 7.45117 9.93164 7.33398L9.93164 5.3125C9.93164 5.17578 9.84375 5.06836 9.7168 5.06836L6.08398 5.06836C5.92773 5.06836 5.84961 5.17578 5.84961 5.3125L5.84961 7.33398C5.84961 7.45117 5.92773 7.55859 6.08398 7.55859ZM6.08398 10.7031L9.7168 10.7031C9.84375 10.7031 9.93164 10.6055 9.93164 10.4785L9.93164 8.45703C9.93164 8.33008 9.84375 8.22266 9.7168 8.22266L6.08398 8.22266C5.92773 8.22266 5.84961 8.33008 5.84961 8.45703L5.84961 10.4785C5.84961 10.6055 5.92773 10.7031 6.08398 10.7031Z" fill="var(--color-primary)"/>
 </g>
</svg>
