<svg version="1.1" xmlns="http://www.w3.org/2000/svg" xmlns:xlink="http://www.w3.org/1999/xlink" width="18.3203" height="15.9082" viewBox="0 0 18.3203 15.9082">
 <g>
  <rect height="15.9082" opacity="0" width="18.3203" x="0" y="0"/>
  <path d="M0.849609 3.4375L17.1191 3.4375C17.6172 3.4375 17.959 3.08594 17.959 2.58789L17.959 0.839844C17.959 0.341797 17.6172 0 17.1191 0L0.849609 0C0.341797 0 0 0.341797 0 0.839844L0 2.58789C0 3.08594 0.341797 3.4375 0.849609 3.4375ZM1.82617 15.1562L16.1426 15.1562L16.1426 4.39453L1.82617 4.39453ZM4.43359 14.4531L4.43359 7.01172C4.43359 6.35742 4.86328 5.9375 5.51758 5.9375L12.4512 5.9375C13.1055 5.9375 13.5254 6.35742 13.5254 7.01172L13.5254 14.4531L12.4414 14.4531L12.4414 7.35352C12.4414 7.14844 12.3145 7.01172 12.1094 7.01172L5.85938 7.01172C5.6543 7.01172 5.51758 7.14844 5.51758 7.35352L5.51758 14.4531ZM8.88672 13.6719C7.73438 13.6719 6.96289 12.998 6.96289 11.9727C6.96289 11.0938 7.36328 10.752 7.36328 10.1465C7.36328 10.0684 7.36328 9.95117 7.36328 9.89258C7.36328 9.78516 7.43164 9.7168 7.53906 9.7168C7.76367 9.7168 8.01758 9.90234 8.1543 10.1758C8.1543 9.56055 7.86133 9.16016 7.58789 8.79883C7.40234 8.55469 7.54883 8.33984 7.91016 8.33984C9.18945 8.33984 11.0645 9.25781 11.0645 11.4746C11.0645 12.7832 10.2051 13.6719 8.88672 13.6719ZM8.96484 12.9785C9.56055 12.9785 9.84375 12.5488 9.84375 12.0508C9.84375 11.3965 9.35547 10.8789 8.98438 10.752C9.0625 11.2305 8.96484 11.5625 8.82812 11.7578C8.75977 11.582 8.68164 11.4551 8.55469 11.3672C8.50586 11.6797 8.18359 11.8359 8.18359 12.2754C8.18359 12.7051 8.50586 12.9785 8.96484 12.9785ZM0.712891 15.8691L17.2559 15.8691C17.6367 15.8691 17.959 15.5469 17.959 15.1562C17.959 14.7754 17.6367 14.4531 17.2559 14.4531L0.712891 14.4531C0.322266 14.4531 0.00976562 14.7754 0.00976562 15.1562C0.00976562 15.5469 0.322266 15.8691 0.712891 15.8691Z" fill="currentColor"/>
 </g>
</svg>
