<?xml version="1.0" encoding="UTF-8"?>
<!--Generator: Apple Native CoreSVG 232.5-->
<!DOCTYPE svg
PUBLIC "-//W3C//DTD SVG 1.1//EN"
       "http://www.w3.org/Graphics/SVG/1.1/DTD/svg11.dtd">
<svg version="1.1" xmlns="http://www.w3.org/2000/svg" xmlns:xlink="http://www.w3.org/1999/xlink" width="16.1328" height="15.7715">
 <g>
  <rect height="15.7715" opacity="0" width="16.1328" x="0" y="0"/>
  <path d="M7.88086 15.7617C12.1875 15.7617 15.7715 12.1875 15.7715 7.88086C15.7715 3.57422 12.1777 0 7.87109 0C3.57422 0 0 3.57422 0 7.88086C0 12.1875 3.58398 15.7617 7.88086 15.7617ZM7.88086 14.2773C4.33594 14.2773 1.50391 11.4355 1.50391 7.88086C1.50391 4.32617 4.32617 1.48438 7.87109 1.48438C11.4258 1.48438 14.2773 4.32617 14.2773 7.88086C14.2773 11.4355 11.4355 14.2773 7.88086 14.2773Z" fill="#ffffff" fill-opacity="0.55"/>
  <path d="M3.41797 9.80469C3.42773 9.96094 3.53516 10.0488 3.69141 10.0488C4.51172 10.0293 5.19531 9.64844 5.79102 8.96484C6.41602 9.58008 7.13867 9.95117 7.89062 10.127L7.77344 11.1035C7.73438 11.377 7.89062 11.5332 8.21289 11.4941C9.07227 11.3477 10.0391 10.7129 10.5371 9.9707C11.7578 9.58008 12.8809 8.80859 12.8809 7.88086C12.8809 6.97266 11.8066 6.2207 10.6152 5.81055C10.2148 4.3457 8.30078 3.67188 6.94336 4.42383C6.78711 4.50195 6.76758 4.62891 6.89453 4.79492C7.20703 5.20508 7.30469 5.44922 7.36328 5.79102C6.79688 5.99609 6.26953 6.32812 5.79102 6.79688C5.19531 6.10352 4.51172 5.71289 3.69141 5.71289C3.53516 5.71289 3.42773 5.80078 3.41797 5.9375C3.34961 6.65039 3.67188 7.42188 4.17969 7.88086C3.67188 8.33008 3.34961 9.10156 3.41797 9.80469ZM11.0449 8.14453C10.8008 8.14453 10.625 7.95898 10.625 7.71484C10.625 7.48047 10.8008 7.29492 11.0449 7.29492C11.2793 7.29492 11.4648 7.48047 11.4648 7.71484C11.4648 7.95898 11.2793 8.14453 11.0449 8.14453Z" fill="#ffffff" fill-opacity="0.85"/>
 </g>
</svg>
