<svg version="1.1" xmlns="http://www.w3.org/2000/svg" xmlns:xlink="http://www.w3.org/1999/xlink" width="16.1328" height="15.7715" viewBox="0 0 16.1328 15.7715">
 <g>
  <rect height="15.7715" opacity="0" width="16.1328" x="0" y="0"/>
  <path d="M15.7715 7.89062C15.7715 12.1973 12.1875 15.7715 7.88086 15.7715C3.58398 15.7715 0 12.1973 0 7.89062C0 3.58398 3.57422 0.00976562 7.87109 0.00976562C12.1777 0.00976562 15.7715 3.58398 15.7715 7.89062ZM4.48242 11.7676C4.48242 11.9824 4.67773 12.1777 4.88281 12.1777C5.11719 12.1777 5.27344 11.9922 5.27344 11.7676L5.27344 9.48242C5.41016 9.42383 5.72266 9.32617 6.18164 9.32617C7.03335 9.32617 7.69878 9.58051 8.39072 9.78077L4.48242 5.87754ZM3.84766 3.85742C3.71094 4.00391 3.71094 4.26758 3.84766 4.4043L11.377 11.9238C11.5234 12.0703 11.7773 12.0703 11.9238 11.9238C12.0801 11.7676 12.0801 11.5234 11.9238 11.377L4.41406 3.85742C4.25781 3.70117 4.01367 3.70117 3.84766 3.85742ZM5.56947 4.18084L11.1427 9.73964C11.3856 9.57566 11.5039 9.34336 11.5039 9.01367L11.5039 5.11719C11.5039 4.86328 11.3672 4.6875 11.0156 4.6875C10.7812 4.6875 10.4395 4.85352 9.79492 4.85352C8.47656 4.85352 7.55859 4.15039 6.14258 4.15039C5.90216 4.15039 5.71954 4.16051 5.56947 4.18084Z" fill="currentColor"/>
 </g>
</svg>
