<svg version="1.1" xmlns="http://www.w3.org/2000/svg" xmlns:xlink="http://www.w3.org/1999/xlink" width="29.9675" height="17.9353" viewBox="0 0 29.9675 17.9353">
 <g>
  <rect height="17.9353" opacity="0" width="29.9675" x="0" y="0"/>
  <path d="M14.2458 12.0859L11.6439 16.5897C11.4681 16.912 11.0775 17.0194 10.7552 16.8338C10.4427 16.6581 10.3353 16.2381 10.5111 15.9256L13.4894 10.7758ZM20.2084 0.964707C20.6576 1.0233 21.2533 1.25768 21.8099 1.57994C23.7533 2.70299 24.476 4.41197 26.3021 5.46666C27.1127 5.93541 27.8158 6.11119 28.1576 6.3065C28.5873 6.56041 28.7924 6.98033 28.5287 7.44908L25.4818 12.7323C25.0912 13.3963 24.5638 13.5819 23.9584 13.5331C23.5189 13.4745 22.9232 13.2401 22.3568 12.9081C20.4232 11.785 19.7006 10.076 17.8646 9.02135C17.2982 8.68932 16.7709 8.50377 16.3998 8.35729L16.1061 8.86563L15.3504 7.55798L18.6947 1.77525C19.0853 1.10143 19.6127 0.906113 20.2084 0.964707ZM17.0931 7.17564C17.5033 7.28307 18.099 7.62486 18.5287 7.869C20.5209 9.02135 21.2045 10.7206 23.0209 11.7655C23.2162 11.8827 23.7338 12.1756 24.2513 12.2147L27.0834 7.32213C26.6732 7.20494 26.0775 6.86314 25.6478 6.619C23.6556 5.46666 22.972 3.77721 21.1556 2.72252C20.9603 2.6151 20.433 2.31236 19.9154 2.2733Z" fill="currentColor"/>
  <path d="M19.0853 15.9256L10.9017 1.77525C10.5209 1.10143 9.98377 0.906113 9.38806 0.964707C8.94861 1.0233 8.34314 1.25768 7.7865 1.57994C5.85291 2.70299 5.13025 4.41197 3.29431 5.46666C2.49353 5.93541 1.78064 6.11119 1.43884 6.3065C1.01892 6.56041 0.813843 6.98033 1.07752 7.44908L4.12439 12.7323C4.50525 13.3963 5.04236 13.5819 5.63806 13.5331C6.07752 13.4745 6.68298 13.2401 7.23962 12.9081C9.17322 11.785 9.89587 10.076 11.7318 9.02135C12.308 8.68932 12.8256 8.50377 13.1967 8.35729L17.9525 16.5897C18.1283 16.912 18.5189 17.0194 18.8412 16.8338C19.1537 16.6581 19.2709 16.2381 19.0853 15.9256ZM12.5033 7.17564C12.1029 7.28307 11.5072 7.62486 11.0775 7.869C9.08533 9.02135 8.40173 10.7206 6.58533 11.7655C6.39002 11.8827 5.86267 12.1756 5.34509 12.2147L2.51306 7.32213C2.92322 7.20494 3.51892 6.86314 3.94861 6.619C5.9408 5.46666 6.62439 3.77721 8.4408 2.72252C8.63611 2.6151 9.16345 2.31236 9.68103 2.2733Z" fill="currentColor"/>
 </g>
</svg>
