<svg version="1.1" xmlns="http://www.w3.org/2000/svg" xmlns:xlink="http://www.w3.org/1999/xlink" width="15.459" height="16.4355" viewBox="0 0 15.459 16.4355">
 <g>
  <rect height="16.4355" opacity="0" width="15.459" x="0" y="0"/>
  <path d="M11.3477 0.732422C11.3477 1.13281 11.0449 1.47461 10.6055 1.47461L10.5957 1.47461L10.5957 7.11914L14.5215 12.7637C14.8828 13.2812 15.0977 13.8379 15.0977 14.2285C15.0977 15.4688 14.2773 16.416 12.9199 16.416L2.1875 16.416C0.830078 16.416 0 15.4688 0 14.2285C0 13.8379 0.185547 13.3301 0.498047 12.8809L4.51172 7.11914L4.51172 1.47461L4.49219 1.47461C4.05273 1.47461 3.75977 1.13281 3.75977 0.732422C3.75977 0.332031 4.05273 0 4.49219 0L10.6055 0C11.0449 0 11.3477 0.332031 11.3477 0.732422ZM5.91797 6.91406L5.91797 7.91016L7.24609 7.91016C7.5293 7.91016 7.74414 7.69531 7.74414 7.40234C7.74414 7.13867 7.51953 6.91406 7.24609 6.91406ZM5.91797 4.6582L5.91797 5.6543L7.24609 5.6543C7.5293 5.6543 7.74414 5.43945 7.74414 5.14648C7.74414 4.88281 7.50977 4.6582 7.23633 4.6582ZM5.91797 2.40234L5.91797 3.4082L7.23633 3.4082C7.51953 3.4082 7.73438 3.18359 7.73438 2.90039C7.73438 2.62695 7.5 2.40234 7.22656 2.40234Z" fill="var(--color-primary)"/>
 </g>
</svg>
