<?xml version="1.0" encoding="UTF-8"?>
<!--Generator: Apple Native CoreSVG 232.5-->
<!DOCTYPE svg
PUBLIC "-//W3C//DTD SVG 1.1//EN"
       "http://www.w3.org/Graphics/SVG/1.1/DTD/svg11.dtd">
<svg version="1.1" xmlns="http://www.w3.org/2000/svg" xmlns:xlink="http://www.w3.org/1999/xlink" width="16.1328" height="15.7715">
 <g>
  <rect height="15.7715" opacity="0" width="16.1328" x="0" y="0"/>
  <path d="M15.7715 7.88086C15.7715 12.1875 12.1875 15.7617 7.88086 15.7617C3.58398 15.7617 0 12.1875 0 7.88086C0 3.57422 3.57422 0 7.87109 0C12.1777 0 15.7715 3.57422 15.7715 7.88086ZM7.62695 5.92773L7.42188 7.24609L5.86914 7.24609C5.57617 7.24609 5.39062 7.42188 5.39062 7.72461C5.39062 7.99805 5.57617 8.18359 5.86914 8.18359L7.28516 8.18359L7.05078 9.63867C6.92383 10.4199 6.61133 10.7324 5.9082 10.7324C5.66406 10.7324 5.58594 10.7129 5.44922 10.6934C5.39062 10.6836 5.32227 10.6738 5.21484 10.6738C4.90234 10.6738 4.70703 10.8789 4.70703 11.1426C4.70703 11.3965 4.85352 11.5918 5.15625 11.6895C5.35156 11.7676 5.61523 11.7969 5.9668 11.7969C7.23633 11.7969 7.92969 11.1328 8.14453 9.78516L8.39844 8.18359L10.0195 8.18359C10.3223 8.18359 10.498 7.99805 10.498 7.72461C10.498 7.42188 10.3223 7.24609 10.0195 7.24609L8.54492 7.24609L8.73047 6.03516C8.85742 5.2832 9.16992 4.98047 9.86328 4.98047C10.1074 4.98047 10.1855 5 10.3223 5.01953C10.3809 5.0293 10.4492 5.03906 10.5566 5.03906C10.8789 5.03906 11.0645 4.83398 11.0645 4.57031C11.0645 4.31641 10.918 4.13086 10.6152 4.02344C10.4297 3.94531 10.166 3.91602 9.80469 3.91602C8.53516 3.91602 7.8418 4.58008 7.62695 5.92773Z" fill="#ffffff" fill-opacity="0.85"/>
 </g>
</svg>
