<svg version="1.1" xmlns="http://www.w3.org/2000/svg" xmlns:xlink="http://www.w3.org/1999/xlink" width="14.5898" height="14.248" viewBox="0 0 14.5898 14.248">
 <g>
  <rect height="14.248" opacity="0" width="14.5898" x="0" y="0"/>
  <path d="M2.49023 14.248L11.7383 14.248C13.4082 14.248 14.2285 13.4277 14.2285 11.7871L14.2285 2.4707C14.2285 0.830078 13.4082 0.00976562 11.7383 0.00976562L2.49023 0.00976562C0.830078 0.00976562 0 0.830078 0 2.4707L0 11.7871C0 13.4277 0.830078 14.248 2.49023 14.248ZM2.50977 12.832C1.80664 12.832 1.40625 12.4609 1.40625 11.7188L1.40625 2.53906C1.40625 1.80664 1.80664 1.42578 2.50977 1.42578L11.7188 1.42578C12.4219 1.42578 12.8223 1.80664 12.8223 2.53906L12.8223 11.7188C12.8223 12.4609 12.4219 12.832 11.7188 12.832Z" fill="var(--color-primary)"/>
  <path d="M5.27344 10.8887C6.49414 10.8887 7.16797 10.2539 7.37305 8.94531L7.60742 7.41211L9.17969 7.41211C9.46289 7.41211 9.63867 7.22656 9.63867 6.96289C9.63867 6.67969 9.46289 6.50391 9.17969 6.50391L7.75391 6.50391L7.92969 5.3418C8.04688 4.61914 8.35938 4.31641 9.02344 4.31641C9.24805 4.31641 9.33594 4.3457 9.46289 4.36523C9.52148 4.375 9.58984 4.38477 9.6875 4.38477C9.99023 4.38477 10.1758 4.18945 10.1758 3.92578C10.1758 3.68164 10.0391 3.50586 9.74609 3.39844C9.56055 3.33008 9.30664 3.30078 8.96484 3.30078C7.74414 3.30078 7.07031 3.93555 6.86523 5.24414L6.66992 6.50391L5.17578 6.50391C4.89258 6.50391 4.7168 6.67969 4.7168 6.96289C4.7168 7.22656 4.89258 7.41211 5.17578 7.41211L6.5332 7.41211L6.31836 8.81836C6.19141 9.56055 5.88867 9.87305 5.21484 9.87305C4.98047 9.87305 4.90234 9.85352 4.77539 9.83398C4.7168 9.81445 4.64844 9.80469 4.55078 9.80469C4.23828 9.80469 4.0625 10.0098 4.0625 10.2637C4.0625 10.5078 4.18945 10.6836 4.48242 10.791C4.66797 10.8594 4.92188 10.8887 5.27344 10.8887Z" fill="var(--color-primary)"/>
 </g>
</svg>
