<svg version="1.1" xmlns="http://www.w3.org/2000/svg" xmlns:xlink="http://www.w3.org/1999/xlink" width="17.8711" height="14.2676" viewBox="0 0 17.8711 14.2676">
 <g>
  <rect height="14.2676" opacity="0" width="17.8711" x="0" y="0"/>
  <path d="M2.49023 14.1602L15.3027 14.1602C16.6895 14.1602 17.5098 13.3398 17.5098 11.6992L17.5098 3.84766C17.5098 2.20703 16.6797 1.39648 15.0195 1.39648L7.70508 1.39648C7.22656 1.39648 6.91406 1.25977 6.54297 0.957031L6.05469 0.566406C5.54688 0.146484 5.12695 0 4.38477 0L2.19727 0C0.820312 0 0 0.800781 0 2.43164L0 11.6992C0 13.3398 0.830078 14.1602 2.49023 14.1602ZM2.50977 12.7441C1.80664 12.7441 1.40625 12.373 1.40625 11.6309L1.40625 2.5C1.40625 1.77734 1.79688 1.40625 2.5 1.40625L4.01367 1.40625C4.49219 1.40625 4.80469 1.54297 5.17578 1.8457L5.66406 2.23633C6.16211 2.64648 6.5918 2.80273 7.33398 2.80273L15 2.80273C15.7031 2.80273 16.1035 3.18359 16.1035 3.92578L16.1035 11.6406C16.1035 12.373 15.7031 12.7441 15 12.7441ZM0.859375 5.58594L16.6406 5.58594L16.6406 4.26758L0.859375 4.26758Z" fill="currentColor"/>
 </g>
</svg>
