<?xml version="1.0" encoding="UTF-8"?>
<!--Generator: Apple Native CoreSVG 232.5-->
<!DOCTYPE svg
PUBLIC "-//W3C//DTD SVG 1.1//EN"
       "http://www.w3.org/Graphics/SVG/1.1/DTD/svg11.dtd">
<svg version="1.1" xmlns="http://www.w3.org/2000/svg" xmlns:xlink="http://www.w3.org/1999/xlink" width="16.1328" height="15.7715">
 <g>
  <rect height="15.7715" opacity="0" width="16.1328" x="0" y="0"/>
  <path d="M15.7715 7.88086C15.7715 12.1875 12.1875 15.7617 7.88086 15.7617C3.58398 15.7617 0 12.1875 0 7.88086C0 3.57422 3.57422 0 7.87109 0C12.1777 0 15.7715 3.57422 15.7715 7.88086ZM5.86914 3.02734L5.82031 5.80078C5.82031 5.9375 5.72266 6.04492 5.55664 6.04492C5.41992 6.04492 5.3125 5.9375 5.3125 5.79102L5.35156 3.0957C5.35156 2.89062 5.24414 2.77344 5.05859 2.77344C4.87305 2.77344 4.75586 2.88086 4.74609 3.0957L4.61914 5.84961C4.58008 6.63086 4.85352 6.9043 5.45898 7.1582C5.58594 7.2168 5.66406 7.33398 5.66406 7.49023L5.57617 12.5C5.56641 12.8711 5.80078 13.0762 6.18164 13.0762C6.5625 13.0762 6.79688 12.8711 6.78711 12.5L6.70898 7.49023C6.70898 7.33398 6.77734 7.2168 6.91406 7.1582C7.5 6.9043 7.7832 6.63086 7.74414 5.84961L7.60742 3.0957C7.59766 2.88086 7.49023 2.77344 7.30469 2.77344C7.11914 2.77344 7.01172 2.89062 7.01172 3.0957L7.05078 5.79102C7.05078 5.9375 6.94336 6.04492 6.79688 6.04492C6.63086 6.04492 6.52344 5.9375 6.52344 5.80078L6.49414 3.02734C6.49414 2.82227 6.35742 2.72461 6.18164 2.72461C5.99609 2.72461 5.86914 2.82227 5.86914 3.02734ZM9.76562 3.02734C9.05273 4.0332 8.56445 5.94727 8.56445 7.69531L8.56445 7.97852C8.56445 8.28125 8.68164 8.50586 8.90625 8.66211L9.18945 8.85742C9.3457 8.96484 9.41406 9.07227 9.41406 9.21875L9.32617 12.5C9.31641 12.8711 9.55078 13.0762 9.92188 13.0762C10.3223 13.0762 10.5469 12.8906 10.5469 12.5293L10.5469 3.05664C10.5469 2.8125 10.3711 2.72461 10.2051 2.72461C10.0391 2.72461 9.92188 2.80273 9.76562 3.02734Z" fill="#ffffff" fill-opacity="0.85"/>
 </g>
</svg>
