<svg version="1.1" xmlns="http://www.w3.org/2000/svg" xmlns:xlink="http://www.w3.org/1999/xlink" width="22.8125" height="12.2363" viewBox="0 0 22.8125 12.2363">
 <g>
  <rect height="12.2363" opacity="0" width="22.8125" x="0" y="0"/>
  <path d="M2.57812 12.2363C2.91016 12.2363 3.17383 12.1387 3.51562 11.9336L11.2695 7.37305C11.875 7.01172 12.1191 6.5918 12.1191 6.12305C12.1191 5.6543 11.875 5.23438 11.2695 4.88281L3.51562 0.3125C3.17383 0.107422 2.91016 0.00976562 2.57812 0.00976562C1.92383 0.00976562 1.39648 0.507812 1.39648 1.41602L1.39648 10.8398C1.39648 11.7383 1.92383 12.2363 2.57812 12.2363ZM13.2617 12.2363C13.5938 12.2363 13.8574 12.1387 14.1992 11.9336L21.9531 7.37305C22.5586 7.01172 22.8125 6.5918 22.8125 6.12305C22.8125 5.6543 22.5586 5.23438 21.9531 4.88281L14.1992 0.3125C13.8574 0.107422 13.5938 0.00976562 13.2617 0.00976562C12.6074 0.00976562 12.0801 0.507812 12.0801 1.41602L12.0801 10.8398C12.0801 11.7383 12.6074 12.2363 13.2617 12.2363Z" fill="var(--color-primary)"/>
 </g>
</svg>
