<?xml version="1.0" encoding="UTF-8"?>
<!--Generator: Apple Native CoreSVG 232.5-->
<!DOCTYPE svg
PUBLIC "-//W3C//DTD SVG 1.1//EN"
       "http://www.w3.org/Graphics/SVG/1.1/DTD/svg11.dtd">
<svg version="1.1" xmlns="http://www.w3.org/2000/svg" xmlns:xlink="http://www.w3.org/1999/xlink" width="25.6836" height="12.627">
 <g>
  <rect height="12.627" opacity="0" width="25.6836" x="0" y="0"/>
  <path d="M22.4609 12.627L24.2285 12.627C24.9414 12.627 25.3223 12.2461 25.3223 11.5332L25.3223 1.08398C25.3223 0.341797 24.9414 0 24.2285 0L22.4609 0C21.7578 0 21.377 0.380859 21.377 1.08398L21.377 11.5332C21.377 12.2461 21.7578 12.627 22.4609 12.627ZM11.8652 12.4219C12.1973 12.4219 12.4609 12.3242 12.8027 12.1191L20.5566 7.54883C21.1621 7.19727 21.416 6.77734 21.416 6.30859C21.416 5.83984 21.1621 5.41992 20.5566 5.05859L12.8027 0.498047C12.4609 0.292969 12.1973 0.195312 11.8652 0.195312C11.2109 0.195312 10.6836 0.693359 10.6836 1.5918L10.6836 11.0254C10.6836 11.9238 11.2109 12.4219 11.8652 12.4219ZM1.18164 12.4219C1.51367 12.4219 1.77734 12.3242 2.11914 12.1191L9.87305 7.54883C10.4785 7.19727 10.7227 6.77734 10.7227 6.30859C10.7227 5.83984 10.4785 5.41992 9.87305 5.05859L2.11914 0.498047C1.77734 0.292969 1.51367 0.195312 1.18164 0.195312C0.527344 0.195312 0 0.693359 0 1.5918L0 11.0254C0 11.9238 0.527344 12.4219 1.18164 12.4219Z" fill="#ffffff" fill-opacity="0.85"/>
 </g>
</svg>
