<svg version="1.1" xmlns="http://www.w3.org/2000/svg" xmlns:xlink="http://www.w3.org/1999/xlink" width="19.1406" height="12.627" viewBox="0 0 19.1406 12.627">
 <g>
  <rect height="12.627" opacity="0" width="19.1406" x="0" y="0"/>
  <path d="M4.9707 12.627C5.68359 12.627 6.06445 12.2461 6.06445 11.5332L6.06445 1.08398C6.06445 0.380859 5.68359 0 4.9707 0L3.20312 0C2.49023 0 2.10938 0.341797 2.10938 1.08398L2.10938 11.5332C2.10938 12.2461 2.49023 12.627 3.20312 12.627ZM9.58984 12.4219C9.93164 12.4219 10.1855 12.3242 10.5273 12.1191L18.291 7.54883C18.8965 7.19727 19.1406 6.77734 19.1406 6.30859C19.1406 5.83984 18.8965 5.41992 18.291 5.05859L10.5273 0.498047C10.1855 0.292969 9.93164 0.195312 9.58984 0.195312C8.94531 0.195312 8.41797 0.693359 8.41797 1.5918L8.41797 11.0254C8.41797 11.9238 8.94531 12.4219 9.58984 12.4219Z" fill="currentColor"/>
 </g>
</svg>
