<svg version="1.1" xmlns="http://www.w3.org/2000/svg" xmlns:xlink="http://www.w3.org/1999/xlink" width="16.1328" height="15.7715" viewBox="0 0 16.1328 15.7715">
 <g>
  <rect height="15.7715" opacity="0" width="16.1328" x="0" y="0"/>
  <path d="M15.7715 7.88086C15.7715 12.1875 12.1875 15.7617 7.88086 15.7617C3.58398 15.7617 0 12.1875 0 7.88086C0 3.57422 3.57422 0 7.87109 0C12.1777 0 15.7715 3.57422 15.7715 7.88086ZM8.42773 5.64453L8.42773 7.62695C8.35938 7.5 8.25195 7.39258 8.08594 7.30469L4.39453 5.12695C4.23828 5.0293 4.11133 4.99023 3.94531 4.99023C3.64258 4.99023 3.38867 5.21484 3.38867 5.64453L3.38867 10.1367C3.38867 10.5664 3.64258 10.791 3.94531 10.791C4.11133 10.791 4.23828 10.752 4.39453 10.6543L8.08594 8.48633C8.25195 8.38867 8.35938 8.28125 8.42773 8.1543L8.42773 10.1367C8.42773 10.5664 8.67188 10.791 8.98438 10.791C9.14062 10.791 9.25781 10.752 9.43359 10.6543L13.1152 8.48633C13.3984 8.31055 13.5254 8.11523 13.5254 7.89062C13.5254 7.66602 13.3984 7.4707 13.1152 7.30469L9.43359 5.12695C9.25781 5.0293 9.14062 4.99023 8.98438 4.99023C8.67188 4.99023 8.42773 5.21484 8.42773 5.64453Z" fill="var(--color-primary)"/>
 </g>
</svg>
