<svg version="1.1" xmlns="http://www.w3.org/2000/svg" xmlns:xlink="http://www.w3.org/1999/xlink" width="14.5898" height="14.248" viewBox="0 0 14.5898 14.248">
 <g>
  <rect height="14.248" opacity="0" width="14.5898" x="0" y="0"/>
  <path d="M14.2285 2.4707L14.2285 11.7871C14.2285 13.4277 13.4082 14.248 11.7383 14.248L2.49023 14.248C0.830078 14.248 0 13.4277 0 11.7871L0 2.4707C0 0.830078 0.830078 0.00976562 2.49023 0.00976562L11.7383 0.00976562C13.4082 0.00976562 14.2285 0.830078 14.2285 2.4707ZM5.71289 3.4375C5.36133 3.4375 5.13672 3.67188 5.13672 4.0332L5.13672 8.97461L4.49219 8.97461C4.22852 8.97461 4.07227 9.16016 4.07227 9.4043C4.07227 9.64844 4.22852 9.84375 4.49219 9.84375L5.13672 9.84375L5.13672 10.6152C5.13672 10.957 5.38086 11.1816 5.72266 11.1816C6.07422 11.1816 6.30859 10.9375 6.30859 10.6055L6.30859 9.84375L7.87109 9.84375C8.125 9.84375 8.29102 9.64844 8.29102 9.4043C8.29102 9.16016 8.125 8.97461 7.87109 8.97461L6.30859 8.97461L6.30859 7.74414L8.90625 7.74414C9.21875 7.74414 9.45312 7.5293 9.45312 7.2168C9.45312 6.88477 9.21875 6.66992 8.90625 6.66992L6.30859 6.66992L6.30859 4.51172L9.19922 4.51172C9.51172 4.51172 9.74609 4.29688 9.74609 3.97461C9.74609 3.65234 9.51172 3.4375 9.19922 3.4375Z" fill="currentColor"/>
 </g>
</svg>
