<?xml version="1.0" encoding="UTF-8"?>
<!--Generator: Apple Native CoreSVG 232.5-->
<!DOCTYPE svg
PUBLIC "-//W3C//DTD SVG 1.1//EN"
       "http://www.w3.org/Graphics/SVG/1.1/DTD/svg11.dtd">
<svg version="1.1" xmlns="http://www.w3.org/2000/svg" xmlns:xlink="http://www.w3.org/1999/xlink" width="23.3691" height="21.2427">
 <g>
  <rect height="21.2427" opacity="0" width="23.3691" x="0" y="0"/>
  <path d="M5.91797 9.57492L5.91797 17.8333L14.0918 17.8333L14.0918 17.7392L15.5939 19.2395L3.91602 19.2395C3.53516 19.2395 3.22266 18.9172 3.22266 18.5266C3.22266 18.1458 3.54492 17.8333 3.91602 17.8333L4.51172 17.8333L4.51172 8.17032ZM14.0918 13.136L14.0918 3.97584C14.0918 3.59498 13.9062 3.40943 13.5352 3.40943L6.46484 3.40943C6.09375 3.40943 5.91797 3.60474 5.91797 3.97584L5.91797 4.96217L4.53533 3.57952C4.65798 2.55847 5.3092 2.00318 6.44531 2.00318L13.5547 2.00318C14.8145 2.00318 15.5078 2.68677 15.5078 3.95631L15.5078 10.9778L15.5859 10.9778C16.6699 10.9778 17.3145 11.593 17.3145 12.7063L17.3145 15.1965C17.3145 15.5872 17.5488 15.8215 17.9492 15.8215C18.3301 15.8215 18.5645 15.5872 18.5645 15.1965L18.5645 9.65943L17.2363 8.12623C16.8555 7.67701 16.8066 7.20826 17.168 6.71021L18.1836 5.2942C18.291 5.13795 18.3008 4.96217 18.2031 4.80592L17.3242 3.38013C16.8945 2.67701 17.9297 2.04224 18.3594 2.74537L19.4043 4.44459C19.6484 4.82545 19.7852 5.21607 19.7852 5.74342L19.7852 15.1965C19.7852 16.3328 19.1205 17.0228 17.9962 17.0404L16.0937 15.1379L16.0938 12.7063C16.0938 12.3645 15.8984 12.1985 15.5859 12.1985L15.5078 12.1985L15.5078 14.552ZM13.2422 5.2356L13.2422 9.76685C13.2422 10.2454 12.8613 10.5676 12.334 10.5676L11.5234 10.5676L6.77734 5.82154L6.77734 5.2356C6.77734 4.74732 7.13867 4.42506 7.67578 4.42506L12.334 4.42506C12.8613 4.42506 13.2422 4.74732 13.2422 5.2356Z" fill="#ffffff" fill-opacity="0.85"/>
  <path d="M17.8027 20.0891C18.0762 20.3528 18.4961 20.3528 18.75 20.0891C19.0039 19.8254 19.0234 19.3958 18.75 19.1321L2.10938 2.51099C1.8457 2.24732 1.40625 2.24732 1.14258 2.51099C0.888672 2.7649 0.888672 3.20435 1.14258 3.45826Z" fill="#ffffff" fill-opacity="0.85"/>
 </g>
</svg>
