<?xml version="1.0" encoding="UTF-8"?>
<!--Generator: Apple Native CoreSVG 232.5-->
<!DOCTYPE svg
PUBLIC "-//W3C//DTD SVG 1.1//EN"
       "http://www.w3.org/Graphics/SVG/1.1/DTD/svg11.dtd">
<svg version="1.1" xmlns="http://www.w3.org/2000/svg" xmlns:xlink="http://www.w3.org/1999/xlink" width="16.1328" height="15.7715">
 <g>
  <rect height="15.7715" opacity="0" width="16.1328" x="0" y="0"/>
  <path d="M7.88086 15.7715C12.1875 15.7715 15.7715 12.1973 15.7715 7.89062C15.7715 3.58398 12.1777 0.00976562 7.87109 0.00976562C3.57422 0.00976562 0 3.58398 0 7.89062C0 12.1973 3.58398 15.7715 7.88086 15.7715Z" fill="#ffffff" fill-opacity="0.25"/>
  <path d="M7.48047 12.5391C7.26562 12.5391 7.08984 12.4023 7.05078 12.1875L6.80664 11.1914C6.62109 11.1328 6.44531 11.0645 6.29883 10.9863L5.41992 11.5137C5.25391 11.6406 5.0293 11.6211 4.87305 11.4648L4.32617 10.9082C4.16016 10.752 4.14062 10.5176 4.27734 10.3418L4.78516 9.47266C4.70703 9.32617 4.63867 9.15039 4.58984 8.97461L3.58398 8.74023C3.36914 8.69141 3.24219 8.52539 3.24219 8.30078L3.24219 7.5293C3.24219 7.30469 3.36914 7.12891 3.58398 7.08984L4.58008 6.8457C4.63867 6.65039 4.72656 6.47461 4.78516 6.33789L4.25781 5.46875C4.14062 5.29297 4.15039 5.07812 4.30664 4.91211L4.87305 4.35547C5.0293 4.19922 5.21484 4.17969 5.41992 4.28711L6.28906 4.82422C6.44531 4.73633 6.62109 4.6582 6.80664 4.59961L7.05078 3.61328C7.08984 3.39844 7.26562 3.26172 7.48047 3.26172L8.29102 3.26172C8.50586 3.26172 8.68164 3.39844 8.7207 3.61328L8.96484 4.60938C9.15039 4.66797 9.32617 4.75586 9.47266 4.82422L10.3516 4.28711C10.5469 4.17969 10.7422 4.20898 10.8984 4.35547L11.4648 4.91211C11.6211 5.07812 11.6309 5.29297 11.5137 5.46875L10.9863 6.33789C11.0449 6.47461 11.1328 6.65039 11.1914 6.8457L12.1777 7.08984C12.4023 7.12891 12.5293 7.30469 12.5293 7.5293L12.5293 8.30078C12.5293 8.52539 12.4023 8.69141 12.1777 8.74023L11.1816 8.97461C11.1328 9.15039 11.0645 9.32617 10.9766 9.47266L11.4941 10.3418C11.6309 10.5176 11.6016 10.752 11.4453 10.9082L10.8984 11.4648C10.7422 11.6211 10.5176 11.6406 10.3418 11.5137L9.47266 10.9863C9.32617 11.0645 9.14062 11.1328 8.96484 11.1914L8.7207 12.1875C8.68164 12.4023 8.50586 12.5391 8.29102 12.5391ZM7.88086 9.44336C8.74023 9.44336 9.43359 8.74023 9.43359 7.89062C9.43359 7.05078 8.74023 6.35742 7.88086 6.35742C7.03125 6.35742 6.33789 7.05078 6.33789 7.89062C6.33789 8.74023 7.03125 9.44336 7.88086 9.44336Z" fill="#ffffff" fill-opacity="0.85"/>
 </g>
</svg>
