<svg version="1.1" xmlns="http://www.w3.org/2000/svg" xmlns:xlink="http://www.w3.org/1999/xlink" width="16.1328" height="15.7715" viewBox="0 0 16.1328 15.7715">
 <g>
  <rect height="15.7715" opacity="0" width="16.1328" x="0" y="0"/>
  <path d="M15.7715 7.89062C15.7715 12.1973 12.1875 15.7715 7.88086 15.7715C3.58398 15.7715 0 12.1973 0 7.89062C0 3.58398 3.57422 0.00976562 7.87109 0.00976562C12.1777 0.00976562 15.7715 3.58398 15.7715 7.89062ZM6.98242 2.79297C6.83594 2.82227 6.69922 2.94922 6.66992 3.0957L6.61133 3.60352C6.43555 3.65234 6.26953 3.7207 6.10352 3.7793L5.75195 3.4668C5.625 3.34961 5.43945 3.32031 5.29297 3.4082C5.15625 3.48633 5.08789 3.63281 5.11719 3.81836L5.22461 4.29688C5.07812 4.4043 4.93164 4.52148 4.81445 4.62891L4.3457 4.44336C4.17969 4.38477 4.0332 4.43359 3.92578 4.56055C3.81836 4.66797 3.79883 4.85352 3.87695 4.99023L4.15039 5.41992C4.05273 5.56641 3.97461 5.74219 3.88672 5.88867L3.39844 5.86914C3.24219 5.85938 3.07617 5.95703 3.02734 6.12305C2.96875 6.25977 3.01758 6.41602 3.14453 6.54297L3.53516 6.8457C3.48633 7.05078 3.4668 7.20703 3.4375 7.38281L2.97852 7.5293C2.8125 7.57812 2.71484 7.71484 2.71484 7.88086C2.71484 8.05664 2.8125 8.17383 2.97852 8.23242L3.4375 8.37891C3.4668 8.55469 3.48633 8.7207 3.53516 8.91602L3.14453 9.22852C3.01758 9.33594 2.96875 9.49219 3.02734 9.64844C3.07617 9.80469 3.23242 9.90234 3.38867 9.90234L3.88672 9.87305C3.97461 10.0391 4.05273 10.1855 4.15039 10.3418L3.87695 10.7617C3.79883 10.9082 3.81836 11.0938 3.91602 11.2012C4.0332 11.3477 4.18945 11.3867 4.35547 11.3184L4.81445 11.1328C4.92188 11.2305 5.05859 11.3477 5.22461 11.4648L5.11719 11.9531C5.08789 12.1289 5.15625 12.2754 5.29297 12.3633C5.43945 12.4414 5.625 12.4219 5.75195 12.2949L6.10352 11.9824C6.26953 12.041 6.43555 12.1094 6.61133 12.1582L6.66992 12.6562C6.69922 12.8223 6.83594 12.9492 6.98242 12.9785C7.1582 13.0078 7.30469 12.9199 7.37305 12.7637L7.61719 12.3438C7.69531 12.3438 7.79297 12.3535 7.88086 12.3535C7.97852 12.3535 8.06641 12.3438 8.1543 12.3438L8.38867 12.7637C8.45703 12.9199 8.61328 13.0078 8.78906 12.9785C8.93555 12.9492 9.0625 12.8223 9.0918 12.666L9.15039 12.1582C9.32617 12.1094 9.49219 12.041 9.66797 11.9824L10.0195 12.2949C10.1465 12.4219 10.3125 12.4414 10.4688 12.3633C10.6055 12.2754 10.6738 12.1289 10.6445 11.9531L10.5273 11.4648C10.7031 11.3477 10.8398 11.2305 10.9473 11.1328L11.416 11.3184C11.5723 11.3867 11.7285 11.3477 11.8555 11.2012C11.9531 11.084 11.9629 10.8984 11.8848 10.7617L11.6113 10.3418C11.709 10.1953 11.7969 10.0391 11.875 9.87305L12.3828 9.90234C12.5391 9.90234 12.6953 9.80469 12.7441 9.64844C12.8027 9.49219 12.7441 9.32617 12.6172 9.22852L12.2168 8.91602C12.2559 8.75 12.2949 8.58398 12.3242 8.37891L12.7832 8.23242C12.959 8.17383 13.0469 8.05664 13.0469 7.88086C13.0469 7.71484 12.9492 7.58789 12.7832 7.5293L12.3242 7.38281C12.2949 7.1875 12.2559 7.02148 12.2168 6.8457L12.6172 6.54297C12.7539 6.42578 12.793 6.26953 12.7441 6.12305C12.6953 5.95703 12.5293 5.85938 12.373 5.86914L11.875 5.88867C11.7773 5.70312 11.6992 5.54688 11.6113 5.41992L11.8848 4.99023C11.9629 4.86328 11.9434 4.67773 11.8457 4.56055C11.7285 4.43359 11.5723 4.38477 11.4258 4.44336L10.9473 4.62891C10.8301 4.52148 10.6836 4.4043 10.5273 4.29688L10.6445 3.81836C10.6738 3.63281 10.6055 3.47656 10.4688 3.4082C10.332 3.32031 10.1465 3.33984 10.0195 3.4668L9.66797 3.7793C9.49219 3.7207 9.33594 3.65234 9.15039 3.60352L9.0918 3.0957C9.0625 2.94922 8.93555 2.82227 8.78906 2.79297C8.62305 2.76367 8.45703 2.85156 8.38867 2.97852L8.1543 3.42773C8.06641 3.42773 7.98828 3.41797 7.88086 3.41797C7.79297 3.41797 7.69531 3.42773 7.61719 3.42773L7.37305 2.97852C7.30469 2.8418 7.14844 2.76367 6.98242 2.79297ZM7.88086 11.3672C7.37305 11.3672 6.88477 11.2598 6.45508 11.0742L7.60742 9.17969C7.72461 9.20898 7.8125 9.20898 7.87109 9.20898C8.41797 9.20898 8.85742 8.89648 9.11133 8.32031L11.2988 8.32031C11.0938 10.0586 9.67773 11.3672 7.88086 11.3672ZM6.88477 7.06055C6.66016 7.32422 6.5625 7.59766 6.5625 7.90039C6.5625 8.18359 6.66016 8.44727 6.875 8.71094L5.71289 10.6055C4.93164 9.9707 4.44336 8.99414 4.44336 7.89062C4.44336 6.75781 4.95117 5.76172 5.75195 5.12695ZM8.30078 7.89062C8.30078 8.11523 8.11523 8.30078 7.87109 8.30078C7.65625 8.30078 7.46094 8.11523 7.46094 7.89062C7.46094 7.67578 7.65625 7.5 7.87109 7.5C8.11523 7.5 8.30078 7.66602 8.30078 7.89062ZM11.2988 7.45117L9.11133 7.45117C8.85742 6.88477 8.41797 6.58203 7.87109 6.58203C7.8125 6.58203 7.73438 6.58203 7.61719 6.60156L6.49414 4.67773C6.92383 4.50195 7.39258 4.4043 7.88086 4.4043C9.67773 4.4043 11.0938 5.70312 11.2988 7.45117Z" fill="var(--color-primary)"/>
 </g>
</svg>
