<?xml version="1.0" encoding="UTF-8"?>
<!--Generator: Apple Native CoreSVG 232.5-->
<!DOCTYPE svg
PUBLIC "-//W3C//DTD SVG 1.1//EN"
       "http://www.w3.org/Graphics/SVG/1.1/DTD/svg11.dtd">
<svg version="1.1" xmlns="http://www.w3.org/2000/svg" xmlns:xlink="http://www.w3.org/1999/xlink" width="21.7676" height="16.9629">
 <g>
  <rect height="16.9629" opacity="0" width="21.7676" x="0" y="0"/>
  <path d="M5.58594 12.2266L6.63086 12.2266C6.93359 12.2266 7.13867 12.041 7.20703 11.7676L7.5293 10.4688C7.76367 10.3809 7.99805 10.293 8.19336 10.1855L9.33594 10.8887C9.57031 11.0352 9.86328 11.0156 10.0781 10.8105L10.8008 10.0781C10.9961 9.86328 11.0352 9.56055 10.8789 9.31641L10.1855 8.19336C10.2832 7.98828 10.3809 7.76367 10.4492 7.54883L11.7578 7.22656C12.041 7.1582 12.2168 6.95312 12.2168 6.65039L12.2168 5.625C12.2168 5.33203 12.041 5.11719 11.7578 5.04883L10.4688 4.72656C10.3809 4.47266 10.2832 4.24805 10.2051 4.07227L10.8789 2.91992C11.0254 2.66602 11.0352 2.38281 10.8203 2.17773L10.0781 1.45508C9.86328 1.26953 9.58984 1.21094 9.35547 1.35742L8.19336 2.07031C8.00781 1.97266 7.77344 1.875 7.5293 1.79688L7.20703 0.46875C7.13867 0.195312 6.93359 0.00976562 6.63086 0.00976562L5.58594 0.00976562C5.2832 0.00976562 5.07812 0.195312 5.00977 0.46875L4.6875 1.77734C4.45312 1.86523 4.21875 1.95312 4.01367 2.06055L2.86133 1.35742C2.62695 1.21094 2.35352 1.25977 2.13867 1.45508L1.39648 2.17773C1.18164 2.38281 1.19141 2.66602 1.33789 2.91992L2.02148 4.07227C1.93359 4.24805 1.83594 4.47266 1.74805 4.72656L0.458984 5.04883C0.175781 5.11719 0 5.33203 0 5.625L0 6.65039C0 6.95312 0.175781 7.1582 0.458984 7.22656L1.76758 7.54883C1.83594 7.76367 1.93359 7.98828 2.03125 8.19336L1.33789 9.31641C1.18164 9.56055 1.2207 9.86328 1.41602 10.0781L2.13867 10.8105C2.35352 11.0156 2.64648 11.0352 2.88086 10.8887L4.02344 10.1855C4.22852 10.293 4.45312 10.3809 4.6875 10.4688L5.00977 11.7676C5.07812 12.041 5.2832 12.2266 5.58594 12.2266ZM6.11328 7.98828C5.08789 7.98828 4.23828 7.13867 4.23828 6.11328C4.23828 5.08789 5.08789 4.24805 6.11328 4.24805C7.13867 4.24805 7.97852 5.08789 7.97852 6.11328C7.97852 7.13867 7.13867 7.98828 6.11328 7.98828ZM15.6934 16.9629L16.5723 16.9629C16.8457 16.9629 17.0312 16.7969 17.0898 16.5625L17.3535 15.4395C17.5684 15.3613 17.7539 15.293 17.9395 15.1855L18.9258 15.8008C19.1309 15.9277 19.375 15.918 19.5605 15.7422L20.1758 15.1074C20.3613 14.9316 20.3906 14.668 20.2539 14.4531L19.6484 13.4766C19.7461 13.3008 19.8145 13.1055 19.873 12.9199L21.0059 12.6465C21.2598 12.5879 21.4062 12.4023 21.4062 12.1484L21.4062 11.2695C21.4062 11.0059 21.2598 10.8203 21.0059 10.7617L19.8828 10.4883C19.8145 10.2637 19.7461 10.0781 19.6582 9.92188L20.2539 8.92578C20.3906 8.70117 20.3906 8.4668 20.1953 8.29102L19.5605 7.66602C19.375 7.5 19.1406 7.46094 18.9355 7.58789L17.9395 8.20312C17.7637 8.11523 17.5684 8.02734 17.3535 7.96875L17.0898 6.81641C17.0312 6.58203 16.8457 6.41602 16.5723 6.41602L15.6934 6.41602C15.4297 6.41602 15.2441 6.58203 15.1855 6.81641L14.9121 7.94922C14.707 8.02734 14.502 8.0957 14.3262 8.19336L13.3301 7.58789C13.1348 7.46094 12.8906 7.5 12.7051 7.66602L12.0801 8.29102C11.8848 8.4668 11.8848 8.70117 12.0215 8.92578L12.6074 9.92188C12.5293 10.0781 12.4512 10.2637 12.3828 10.4883L11.2695 10.7617C11.0156 10.8203 10.8594 11.0059 10.8594 11.2695L10.8594 12.1484C10.8594 12.4023 11.0156 12.5879 11.2695 12.6465L12.4023 12.9199C12.4512 13.1055 12.5293 13.3008 12.627 13.4766L12.0215 14.4531C11.875 14.668 11.9141 14.9316 12.0898 15.1074L12.7051 15.7422C12.8906 15.918 13.1445 15.9277 13.3496 15.8008L14.3359 15.1855C14.5117 15.293 14.707 15.3613 14.9121 15.4395L15.1855 16.5625C15.2441 16.7969 15.4297 16.9629 15.6934 16.9629ZM16.1328 13.2129C15.293 13.2129 14.6094 12.5293 14.6094 11.6797C14.6094 10.8496 15.293 10.166 16.1328 10.166C16.9824 10.166 17.666 10.8496 17.666 11.6797C17.666 12.5293 16.9824 13.2129 16.1328 13.2129Z" fill="#ffffff" fill-opacity="0.85"/>
 </g>
</svg>
