<?xml version="1.0" encoding="UTF-8"?>
<!--Generator: Apple Native CoreSVG 232.5-->
<!DOCTYPE svg
PUBLIC "-//W3C//DTD SVG 1.1//EN"
       "http://www.w3.org/Graphics/SVG/1.1/DTD/svg11.dtd">
<svg version="1.1" xmlns="http://www.w3.org/2000/svg" xmlns:xlink="http://www.w3.org/1999/xlink" width="18.4668" height="13.252">
 <g>
  <rect height="13.252" opacity="0" width="18.4668" x="0" y="0"/>
  <path d="M0.556641 6.51367L0.556641 7.45117L7.68555 7.45117C7.33398 8.20312 5.9668 9.55078 4.88281 9.64844C4.46289 9.6875 4.20898 9.96094 4.20898 10.3809C4.20898 10.7617 4.50195 11.1133 5 11.0449C6.21094 10.8691 8.0957 9.46289 8.4668 8.01758L8.53516 8.01758L8.53516 13.0469L9.57031 13.0469L9.57031 8.01758L9.63867 8.01758C10.0098 9.46289 11.8848 10.8691 13.1055 11.0449C13.5938 11.1133 13.8965 10.7617 13.8965 10.3809C13.8965 9.96094 13.6426 9.6875 13.2129 9.64844C12.1387 9.55078 10.7715 8.20312 10.4199 7.45117L17.4512 7.45117L17.4512 6.51367L12.3145 6.51367C13.2227 6.07422 13.8184 5.3125 13.8184 4.375C13.8184 3.23242 12.9492 2.36328 11.8164 2.36328C10.8887 2.36328 10.0781 2.89062 9.57031 3.79883L9.57031 0.166016L8.53516 0.166016L8.53516 3.79883C8.02734 2.89062 7.2168 2.36328 6.28906 2.36328C5.14648 2.36328 4.28711 3.23242 4.28711 4.375C4.28711 5.3125 4.88281 6.07422 5.79102 6.51367ZM8.14453 6.36719C6.69922 6.36719 5.50781 5.37109 5.50781 4.46289C5.50781 3.92578 5.83008 3.59375 6.36719 3.59375C7.46094 3.59375 8.37891 4.77539 8.37891 6.15234L8.37891 6.36719ZM9.96094 6.36719L9.72656 6.36719L9.72656 6.15234C9.72656 4.77539 10.6445 3.59375 11.7383 3.59375C12.2754 3.59375 12.5977 3.92578 12.5977 4.46289C12.5977 5.37109 11.4062 6.36719 9.96094 6.36719ZM2.49023 13.252L15.6152 13.252C17.2852 13.252 18.1055 12.4414 18.1055 10.8008L18.1055 2.46094C18.1055 0.820312 17.2852 0.00976562 15.6152 0.00976562L2.49023 0.00976562C0.830078 0.00976562 0 0.820312 0 2.46094L0 10.8008C0 12.4414 0.830078 13.252 2.49023 13.252ZM2.50977 11.8457C1.80664 11.8457 1.40625 11.4648 1.40625 10.7227L1.40625 2.53906C1.40625 1.79688 1.80664 1.41602 2.50977 1.41602L15.5957 1.41602C16.2988 1.41602 16.6992 1.79688 16.6992 2.53906L16.6992 10.7227C16.6992 11.4648 16.2988 11.8457 15.5957 11.8457Z" fill="#ffffff" fill-opacity="0.85"/>
 </g>
</svg>
