<svg version="1.1" xmlns="http://www.w3.org/2000/svg" xmlns:xlink="http://www.w3.org/1999/xlink" width="16.1328" height="15.7715" viewBox="0 0 16.1328 15.7715">
 <g>
  <rect height="15.7715" opacity="0" width="16.1328" x="0" y="0"/>
  <path d="M1.88477 11.2402C3.04688 10.4004 3.04688 8.92578 3.44727 8.92578C3.68164 8.92578 3.89648 9.13086 4.30664 9.6582C5.00977 10.5566 5.48828 11.0254 5.97656 11.0254C6.44531 11.0254 7.00195 10.3711 7.00195 9.82422C7.00195 9.59961 6.5625 9.26758 6.5625 9.08203C6.5625 8.98438 6.66992 8.93555 6.78711 8.93555C7.80273 8.93555 8.82812 8.08594 8.82812 7.32422C8.82812 6.81641 7.96875 6.34766 7.96875 6.01562C7.96875 5.85938 8.0957 5.76172 8.24219 5.76172C8.33008 5.76172 8.4375 5.80078 8.54492 5.87891C9.41406 6.5918 9.80469 6.17188 9.89258 5.80078C9.93164 5.64453 10.0098 5.44922 10.4395 5.23438C11.3867 4.7168 12.002 4.07227 12.002 3.56445C12.002 2.99805 10.9863 2.4707 10.9863 2.26562C10.9863 2.14844 11.1328 2.07031 11.5918 1.94336C10.8398 1.25977 9.66797 0.673828 7.87109 0.673828C3.61328 0.878906 0.771484 3.80859 0.742188 7.88086C0.732422 9.16016 1.13281 10.3711 1.88477 11.2402ZM11.2988 14.3555C12.8125 13.3887 13.916 12.2363 14.5996 10.9082C14.4824 9.93164 13.9941 9.3457 13.3203 9.3457C13.1445 9.3457 12.9199 9.375 12.7246 9.44336C12.4805 9.52148 12.4414 9.51172 12.2461 9.27734C11.9336 8.92578 11.6602 8.79883 11.2305 8.79883C10.4395 8.79883 9.96094 9.22852 9.61914 10.2441C9.53125 10.5469 9.4043 10.6445 8.88672 10.8398L8.57422 10.957C7.95898 11.1914 7.80273 11.6309 8.00781 12.5391C8.19336 13.3301 8.58398 13.75 9.14062 13.75C9.63867 13.75 9.92188 13.5742 10.2441 13.5742C10.7227 13.5645 10.9473 13.877 11.2988 14.3555ZM9.80469 7.42188C10.3027 7.42188 10.5273 6.97266 11.0938 6.80664C11.4648 6.69922 11.6602 6.31836 11.6602 5.99609C11.6602 5.73242 11.5332 5.50781 11.25 5.50781C10.9473 5.50781 10.6641 5.74219 10.4785 6.13281C10.3809 6.35742 10.2148 6.46484 9.80469 6.58203C9.48242 6.67969 9.36523 6.79688 9.36523 7.04102C9.36523 7.30469 9.57031 7.42188 9.80469 7.42188ZM7.56836 10.9766C8.00781 10.9766 8.4375 10.4688 8.4375 10.0098C8.4375 9.45312 8.20312 9.18945 7.93945 9.18945C7.64648 9.18945 7.46094 9.53125 7.46094 10.0586C7.46094 10.3613 7.19727 10.3711 7.19727 10.6738C7.19727 10.8594 7.34375 10.9766 7.56836 10.9766ZM6.23047 12.3926C6.5625 12.3926 6.77734 12.2168 6.77734 11.9336C6.77734 11.7188 6.61133 11.582 6.37695 11.582C5.44922 11.582 5.41016 11.0547 4.96094 11.0547C4.7168 11.0547 4.54102 11.2012 4.54102 11.416C4.54102 11.5918 4.7168 11.7188 4.94141 11.7188C5.43945 11.7188 5.20508 12.3926 6.23047 12.3926ZM7.88086 15.7617C12.1875 15.7617 15.7715 12.1875 15.7715 7.88086C15.7715 3.57422 12.1777 0 7.87109 0C3.57422 0 0 3.57422 0 7.88086C0 12.1875 3.58398 15.7617 7.88086 15.7617ZM7.88086 14.5898C4.22852 14.5898 1.18164 11.5332 1.18164 7.88086C1.18164 4.22852 4.21875 1.17188 7.87109 1.17188C11.5332 1.17188 14.5898 4.22852 14.5898 7.88086C14.5898 11.5332 11.543 14.5898 7.88086 14.5898Z" fill="var(--color-primary)"/>
 </g>
</svg>
