<svg version="1.1" xmlns="http://www.w3.org/2000/svg" xmlns:xlink="http://www.w3.org/1999/xlink" width="16.1328" height="18.7695" viewBox="0 0 16.1328 18.7695">
 <g>
  <rect height="18.7695" opacity="0" width="16.1328" x="0" y="0"/>
  <path d="M0 9.37989C0 13.6865 3.58398 17.2607 7.88086 17.2607C12.1875 17.2607 15.7715 13.6865 15.7715 9.37989C15.7715 5.59083 12.998 2.36817 9.4043 1.64551L9.4043 0.600591C9.4043-0.0048778 8.98438-0.161128 8.53516 0.170903L6.05469 1.90918C5.67383 2.17286 5.66406 2.58301 6.05469 2.85645L8.52539 4.59473C8.98438 4.92676 9.4043 4.77051 9.4043 4.15528L9.4043 3.16895C12.2168 3.84278 14.2676 6.35254 14.2676 9.37989C14.2676 12.9346 11.4355 15.7764 7.88086 15.7764C4.33594 15.7764 1.48438 12.9346 1.49414 9.37989C1.50391 7.29004 2.48047 5.45411 4.01367 4.292C4.36523 4.02833 4.48242 3.6084 4.25781 3.24708C4.04297 2.88575 3.55469 2.79786 3.16406 3.09083C1.25 4.5459 0 6.84083 0 9.37989Z" fill="var(--color-secondary)"/>
  <path d="M5.56641 12.6025C6.69922 12.6025 7.50977 11.7725 7.50977 10.542C7.50977 9.46778 6.91406 8.65723 5.9375 8.65723C5.26367 8.65723 4.81445 9.04786 4.62891 9.61426L4.58984 9.61426C4.58984 9.11622 4.61914 8.75489 4.69727 8.44239C4.80469 7.94434 5.04883 7.45606 5.56641 7.45606C5.89844 7.45606 6.11328 7.62208 6.2793 7.91504C6.40625 8.12012 6.5625 8.25684 6.81641 8.25684C7.16797 8.25684 7.30469 8.00293 7.30469 7.76856C7.30469 7.61231 7.27539 7.46583 7.20703 7.34864C6.96289 6.85059 6.31836 6.49903 5.58594 6.49903C4.01367 6.49903 3.48633 8.0127 3.4668 9.51661C3.45703 10.1025 3.53516 10.6885 3.70117 11.1572C4.01367 12.0166 4.62891 12.6025 5.56641 12.6025ZM5.55664 11.6455C5.0293 11.6455 4.74609 11.0986 4.74609 10.5615C4.74609 10.0049 5.04883 9.53614 5.55664 9.53614C6.09375 9.53614 6.35742 10.0342 6.35742 10.5908C6.35742 11.1182 6.07422 11.6455 5.55664 11.6455ZM10.4395 12.5928C11.9629 12.5928 12.5 11.0693 12.5 9.53614C12.5 8.0127 11.9629 6.48926 10.4395 6.48926C8.92578 6.48926 8.37891 8.0127 8.37891 9.53614C8.37891 11.0791 8.92578 12.5928 10.4395 12.5928ZM10.4395 11.626C9.91211 11.626 9.58984 10.8057 9.58984 9.53614C9.58984 8.28614 9.91211 7.46583 10.4395 7.46583C10.9766 7.46583 11.2988 8.28614 11.2988 9.53614C11.2988 10.8057 10.9766 11.626 10.4395 11.626Z" fill="var(--color-primary)"/>
 </g>
</svg>
