<?xml version="1.0" encoding="UTF-8"?>
<!--Generator: Apple Native CoreSVG 232.5-->
<!DOCTYPE svg
PUBLIC "-//W3C//DTD SVG 1.1//EN"
       "http://www.w3.org/Graphics/SVG/1.1/DTD/svg11.dtd">
<svg version="1.1" xmlns="http://www.w3.org/2000/svg" xmlns:xlink="http://www.w3.org/1999/xlink" width="16.1328" height="18.7695">
 <g>
  <rect height="18.7695" opacity="0" width="16.1328" x="0" y="0"/>
  <path d="M0 9.37989C0 13.6865 3.58398 17.2607 7.88086 17.2607C12.1875 17.2607 15.7715 13.6865 15.7715 9.37989C15.7715 5.59083 12.998 2.36817 9.4043 1.64551L9.4043 0.600591C9.4043-0.0048778 8.98438-0.161128 8.53516 0.170903L6.05469 1.90918C5.67383 2.17286 5.66406 2.58301 6.05469 2.85645L8.52539 4.59473C8.98438 4.92676 9.4043 4.77051 9.4043 4.15528L9.4043 3.16895C12.2168 3.84278 14.2676 6.35254 14.2676 9.37989C14.2676 12.9346 11.4355 15.7764 7.88086 15.7764C4.33594 15.7764 1.48438 12.9346 1.49414 9.37989C1.50391 7.29004 2.48047 5.45411 4.01367 4.292C4.36523 4.02833 4.48242 3.6084 4.25781 3.24708C4.04297 2.88575 3.55469 2.79786 3.16406 3.09083C1.25 4.5459 0 6.84083 0 9.37989Z" fill="#ffffff" fill-opacity="0.85"/>
  <path d="M5.83008 12.544C6.20117 12.544 6.42578 12.2803 6.42578 11.9092L6.42578 7.23145C6.42578 6.80176 6.15234 6.54786 5.73242 6.54786C5.38086 6.54786 5.13672 6.70411 4.86328 6.90918L4.08203 7.49512C3.91602 7.62208 3.81836 7.75879 3.81836 7.96387C3.81836 8.20801 3.99414 8.40333 4.23828 8.40333C4.35547 8.40333 4.43359 8.36426 4.53125 8.28614L5.20508 7.77833L5.22461 7.77833L5.22461 11.9092C5.22461 12.2803 5.44922 12.544 5.83008 12.544ZM9.75586 12.5928C11.2695 12.5928 11.8164 11.0791 11.8164 9.53614C11.8164 8.0127 11.2793 6.49903 9.75586 6.49903C8.23242 6.49903 7.69531 8.0127 7.69531 9.53614C7.69531 11.0791 8.23242 12.5928 9.75586 12.5928ZM9.75586 11.6357C9.21875 11.6357 8.90625 10.8057 8.90625 9.53614C8.90625 8.28614 9.21875 7.46583 9.75586 7.46583C10.293 7.46583 10.6055 8.28614 10.6055 9.53614C10.6055 10.8057 10.293 11.6357 9.75586 11.6357Z" fill="#ffffff" fill-opacity="0.85"/>
 </g>
</svg>
