<?xml version="1.0" encoding="UTF-8"?>
<!--Generator: Apple Native CoreSVG 232.5-->
<!DOCTYPE svg
PUBLIC "-//W3C//DTD SVG 1.1//EN"
       "http://www.w3.org/Graphics/SVG/1.1/DTD/svg11.dtd">
<svg version="1.1" xmlns="http://www.w3.org/2000/svg" xmlns:xlink="http://www.w3.org/1999/xlink" width="16.1328" height="18.7633">
 <g>
  <rect height="18.7633" opacity="0" width="16.1328" x="0" y="0"/>
  <path d="M0 9.37675C0 13.6834 3.58398 17.2576 7.88086 17.2576C12.1875 17.2576 15.7715 13.6834 15.7715 9.37675C15.7715 6.83769 14.5117 4.54277 12.5977 3.08769C12.2168 2.79472 11.7285 2.88261 11.5137 3.24394C11.2891 3.60527 11.4062 4.02519 11.7578 4.28886C13.291 5.45097 14.2676 7.28691 14.2773 9.37675C14.2871 12.9314 11.4355 15.7732 7.88086 15.7732C4.33594 15.7732 1.50391 12.9314 1.50391 9.37675C1.50391 6.34941 3.55469 3.83965 6.36719 3.16582L6.36719 4.16191C6.36719 4.76738 6.77734 4.92363 7.23633 4.60136L9.7168 2.86308C10.0977 2.59941 10.1074 2.18925 9.7168 1.91582L7.24609 0.177536C6.77734-0.164261 6.36719-0.00801107 6.36719 0.607223L6.36719 1.64238C2.76367 2.36504 0 5.58769 0 9.37675Z" fill="#ffffff" fill-opacity="0.55"/>
  <path d="M5.82031 12.5408C6.19141 12.5408 6.41602 12.2771 6.41602 11.9061L6.41602 7.22832C6.41602 6.79863 6.15234 6.54472 5.72266 6.54472C5.37109 6.54472 5.12695 6.70097 4.85352 6.90605L4.07227 7.49199C3.90625 7.61894 3.80859 7.75566 3.80859 7.96074C3.80859 8.20488 3.98438 8.40019 4.22852 8.40019C4.3457 8.40019 4.42383 8.36113 4.52148 8.283L5.19531 7.77519L5.21484 7.77519L5.21484 11.9061C5.21484 12.2771 5.44922 12.5408 5.82031 12.5408ZM9.6582 12.5896C10.8594 12.5896 11.6113 11.7107 11.6113 10.4998C11.6113 9.48418 11.0449 8.60527 10.0488 8.60527C9.54102 8.60527 9.14062 8.82988 8.94531 9.21074L8.90625 9.21074L9.02344 7.59941L10.8887 7.59941C11.1719 7.59941 11.3574 7.4041 11.3574 7.1209C11.3574 6.82793 11.1816 6.64238 10.8887 6.64238L8.71094 6.64238C8.27148 6.64238 8.06641 6.87675 8.04688 7.31621L7.90039 9.45488C7.87109 9.82597 8.06641 10.1092 8.44727 10.1092C8.71094 10.1092 8.81836 10.0213 8.99414 9.81621C9.16016 9.60136 9.38477 9.46465 9.6582 9.46465C10.2051 9.46465 10.459 9.97246 10.459 10.5291C10.459 11.1443 10.166 11.6424 9.64844 11.6424C9.23828 11.6424 8.97461 11.3787 8.82812 11.0271C8.70117 10.7928 8.53516 10.6756 8.31055 10.6756C8.00781 10.6756 7.82227 10.8611 7.82227 11.1639C7.82227 11.2615 7.8418 11.3592 7.86133 11.4471C8.04688 12.1697 8.92578 12.5896 9.6582 12.5896Z" fill="#ffffff" fill-opacity="0.85"/>
 </g>
</svg>
