<?xml version="1.0" encoding="UTF-8"?>
<!--Generator: Apple Native CoreSVG 232.5-->
<!DOCTYPE svg
PUBLIC "-//W3C//DTD SVG 1.1//EN"
       "http://www.w3.org/Graphics/SVG/1.1/DTD/svg11.dtd">
<svg version="1.1" xmlns="http://www.w3.org/2000/svg" xmlns:xlink="http://www.w3.org/1999/xlink" width="16.1328" height="18.7633">
 <g>
  <rect height="18.7633" opacity="0" width="16.1328" x="0" y="0"/>
  <path d="M0 9.37675C0 13.6834 3.58398 17.2576 7.88086 17.2576C12.1875 17.2576 15.7715 13.6834 15.7715 9.37675C15.7715 6.83769 14.5117 4.54277 12.5977 3.08769C12.2168 2.79472 11.7285 2.88261 11.5137 3.24394C11.2891 3.60527 11.4062 4.02519 11.7578 4.28886C13.291 5.45097 14.2676 7.28691 14.2773 9.37675C14.2871 12.9314 11.4355 15.7732 7.88086 15.7732C4.33594 15.7732 1.50391 12.9314 1.50391 9.37675C1.50391 6.34941 3.55469 3.83965 6.36719 3.16582L6.36719 4.16191C6.36719 4.76738 6.77734 4.92363 7.23633 4.60136L9.7168 2.86308C10.0977 2.59941 10.1074 2.18925 9.7168 1.91582L7.24609 0.177536C6.77734-0.164261 6.36719-0.00801107 6.36719 0.607223L6.36719 1.64238C2.76367 2.36504 0 5.58769 0 9.37675Z" fill="#ffffff" fill-opacity="0.55"/>
  <path d="M4.29688 9.37675C4.29688 9.80644 4.59961 10.0994 5.04883 10.0994L7.14844 10.0994L7.14844 12.2186C7.14844 12.658 7.44141 12.9607 7.87109 12.9607C8.32031 12.9607 8.61328 12.658 8.61328 12.2186L8.61328 10.0994L10.7324 10.0994C11.1719 10.0994 11.4746 9.80644 11.4746 9.37675C11.4746 8.9373 11.1719 8.63457 10.7324 8.63457L8.61328 8.63457L8.61328 6.52519C8.61328 6.07597 8.32031 5.77324 7.87109 5.77324C7.44141 5.77324 7.14844 6.07597 7.14844 6.52519L7.14844 8.63457L5.04883 8.63457C4.59961 8.63457 4.29688 8.9373 4.29688 9.37675Z" fill="#ffffff" fill-opacity="0.85"/>
 </g>
</svg>
