<svg version="1.1" xmlns="http://www.w3.org/2000/svg" xmlns:xlink="http://www.w3.org/1999/xlink" width="16.1328" height="15.7715" viewBox="0 0 16.1328 15.7715">
 <g>
  <rect height="15.7715" opacity="0" width="16.1328" x="0" y="0"/>
  <path d="M15.7715 7.88086C15.7715 12.1875 12.1875 15.7617 7.88086 15.7617C3.58398 15.7617 0 12.1875 0 7.88086C0 3.57422 3.57422 0 7.87109 0C12.1777 0 15.7715 3.57422 15.7715 7.88086ZM8.83789 3.97461L8.83789 5.67383L6.92383 5.67383L6.92383 3.97461C6.92383 3.55469 6.67969 3.31055 6.30859 3.31055C5.89844 3.31055 5.66406 3.55469 5.66406 3.97461L5.66406 5.67383L3.97461 5.67383C3.55469 5.67383 3.30078 5.9082 3.30078 6.30859C3.30078 6.68945 3.55469 6.93359 3.97461 6.93359L5.66406 6.93359L5.66406 8.82812L3.97461 8.82812C3.55469 8.82812 3.30078 9.07227 3.30078 9.45312C3.30078 9.85352 3.55469 10.0879 3.97461 10.0879L5.66406 10.0879L5.66406 11.7871C5.66406 12.207 5.89844 12.4512 6.30859 12.4512C6.67969 12.4512 6.92383 12.207 6.92383 11.7871L6.92383 10.0879L8.83789 10.0879L8.83789 11.7871C8.83789 12.207 9.07227 12.4512 9.46289 12.4512C9.85352 12.4512 10.0977 12.207 10.0977 11.7871L10.0977 10.0879L11.7969 10.0879C12.207 10.0879 12.4609 9.85352 12.4609 9.45312C12.4609 9.07227 12.207 8.82812 11.7969 8.82812L10.0977 8.82812L10.0977 6.93359L11.7969 6.93359C12.207 6.93359 12.4609 6.68945 12.4609 6.30859C12.4609 5.9082 12.207 5.67383 11.7969 5.67383L10.0977 5.67383L10.0977 3.97461C10.0977 3.55469 9.85352 3.31055 9.46289 3.31055C9.07227 3.31055 8.83789 3.55469 8.83789 3.97461ZM8.83789 8.82812L6.92383 8.82812L6.92383 6.93359L8.83789 6.93359Z" fill="currentColor"/>
 </g>
</svg>
