<?xml version="1.0" encoding="UTF-8"?>
<!--Generator: Apple Native CoreSVG 232.5-->
<!DOCTYPE svg
PUBLIC "-//W3C//DTD SVG 1.1//EN"
       "http://www.w3.org/Graphics/SVG/1.1/DTD/svg11.dtd">
<svg version="1.1" xmlns="http://www.w3.org/2000/svg" xmlns:xlink="http://www.w3.org/1999/xlink" width="16.1328" height="15.7715">
 <g>
  <rect height="15.7715" opacity="0" width="16.1328" x="0" y="0"/>
  <path d="M7.88086 15.7617C12.1875 15.7617 15.7715 12.1875 15.7715 7.88086C15.7715 3.57422 12.1973 0 7.89062 0C3.59375 0 0 3.57422 0 7.88086C0 12.1875 3.58398 15.7617 7.88086 15.7617ZM7.89062 14.2773C4.33594 14.2773 1.50391 11.4355 1.50391 7.88086C1.50391 4.32617 4.3457 1.48438 7.90039 1.48438C11.4551 1.48438 14.2773 4.32617 14.2773 7.88086C14.2773 11.4355 11.4453 14.2773 7.89062 14.2773ZM3.17383 12.6074C4.54102 13.9746 7.27539 13.0371 10.1562 10.166C13.0371 7.27539 13.9844 4.54102 12.6074 3.17383C11.2012 1.76758 8.49609 2.72461 5.60547 5.60547C2.72461 8.49609 1.76758 11.2012 3.17383 12.6074ZM4.11133 11.6602C3.30078 10.8398 4.25781 8.85742 6.54297 6.55273C8.86719 4.23828 10.8594 3.30078 11.6602 4.11133C12.4707 4.91211 11.5234 6.89453 9.20898 9.22852C6.91406 11.5137 4.92188 12.4609 4.11133 11.6602ZM12.5879 12.6074C13.9941 11.2012 13.0469 8.49609 10.1562 5.5957C7.27539 2.72461 4.56055 1.76758 3.1543 3.17383C1.78711 4.54102 2.73438 7.27539 5.61523 10.1562C8.49609 13.0371 11.2207 13.9746 12.5879 12.6074ZM11.6504 11.6602C10.8496 12.4609 8.85742 11.5137 6.54297 9.20898C4.24805 6.89453 3.30078 4.91211 4.11133 4.11133C4.91211 3.30078 6.9043 4.23828 9.20898 6.55273C11.5137 8.85742 12.4707 10.8398 11.6504 11.6602ZM13.418 3.31055L15.3906 1.32812C15.6445 1.07422 15.6445 0.634766 15.3906 0.380859C15.127 0.117188 14.6973 0.117188 14.4336 0.380859L12.4219 2.39258ZM2.39258 12.4219L0.390625 14.4336C0.126953 14.6973 0.126953 15.1172 0.390625 15.3809C0.644531 15.6445 1.07422 15.6543 1.33789 15.3906L3.45703 13.2715Z" fill="#ffffff" fill-opacity="0.85"/>
 </g>
</svg>
