<svg version="1.1" xmlns="http://www.w3.org/2000/svg" xmlns:xlink="http://www.w3.org/1999/xlink" width="14.5898" height="14.248" viewBox="0 0 14.5898 14.248">
 <g>
  <rect height="14.248" opacity="0" width="14.5898" x="0" y="0"/>
  <path d="M2.49023 14.248L11.7383 14.248C13.4082 14.248 14.2285 13.4277 14.2285 11.7871L14.2285 2.4707C14.2285 0.830078 13.4082 0.00976562 11.7383 0.00976562L2.49023 0.00976562C0.830078 0.00976562 0 0.830078 0 2.4707L0 11.7871C0 13.4277 0.830078 14.248 2.49023 14.248Z" fill="var(--color-tertiary)"/>
  <path d="M4.58984 10.7812C4.14062 10.7812 3.87695 10.4785 3.87695 9.96094L3.87695 4.10156C3.87695 3.58398 4.14062 3.28125 4.58984 3.28125C5.05859 3.28125 5.32227 3.57422 5.32227 4.10156L5.32227 6.36719L8.89648 6.36719L8.89648 4.10156C8.89648 3.58398 9.16016 3.28125 9.60938 3.28125C10.0879 3.28125 10.3418 3.57422 10.3418 4.10156L10.3418 9.96094C10.3418 10.4883 10.0879 10.7812 9.60938 10.7812C9.16016 10.7812 8.89648 10.4785 8.89648 9.96094L8.89648 7.48047L5.32227 7.48047L5.32227 9.96094C5.32227 10.4883 5.05859 10.7812 4.58984 10.7812Z" fill="var(--color-primary)"/>
 </g>
</svg>
