<?xml version="1.0" encoding="UTF-8"?>
<!--Generator: Apple Native CoreSVG 232.5-->
<!DOCTYPE svg
PUBLIC "-//W3C//DTD SVG 1.1//EN"
       "http://www.w3.org/Graphics/SVG/1.1/DTD/svg11.dtd">
<svg version="1.1" xmlns="http://www.w3.org/2000/svg" xmlns:xlink="http://www.w3.org/1999/xlink" width="16.1328" height="15.7715">
 <g>
  <rect height="15.7715" opacity="0" width="16.1328" x="0" y="0"/>
  <path d="M7.88086 15.7617C12.1875 15.7617 15.7715 12.1875 15.7715 7.88086C15.7715 3.57422 12.1777 0 7.87109 0C3.57422 0 0 3.57422 0 7.88086C0 12.1875 3.58398 15.7617 7.88086 15.7617ZM7.88086 14.2773C4.33594 14.2773 1.50391 11.4355 1.50391 7.88086C1.50391 4.32617 4.32617 1.48438 7.87109 1.48438C11.4258 1.48438 14.2773 4.32617 14.2773 7.88086C14.2773 11.4355 11.4355 14.2773 7.88086 14.2773Z" fill="#ffffff" fill-opacity="0.55"/>
  <path d="M4.55078 11.7578C4.90234 12.1094 5.30273 12.0801 5.63477 11.6895L9.05273 7.7832L7.91016 6.64062L4.00391 10.0391C3.60352 10.3906 3.57422 10.7812 3.92578 11.1328ZM11.2109 8.50586C11.3867 8.66211 11.582 8.68164 11.7578 8.52539L12.8613 7.42188C13.0273 7.26562 13.0176 7.06055 12.8516 6.88477L12.5781 6.62109C12.4414 6.47461 12.3535 6.44531 12.207 6.46484L11.7285 6.52344L11.4648 6.2793L11.6016 5.72266C11.6699 5.45898 11.5723 5.17578 11.2695 4.88281L10.5469 4.16016C9.50195 3.125 7.54883 3.00781 6.45508 4.10156C6.26953 4.28711 6.29883 4.49219 6.41602 4.62891C6.52344 4.7168 6.66992 4.76562 6.79688 4.70703C7.51953 4.47266 8.1543 4.42383 8.70117 4.72656L8.41797 5.49805C8.29102 5.83984 8.35938 6.07422 8.56445 6.28906L9.38477 7.10938C9.55078 7.27539 9.73633 7.31445 9.98047 7.26562L10.5957 7.13867L10.8594 7.40234L10.8008 7.87109C10.7812 8.02734 10.8105 8.13477 10.9375 8.25195Z" fill="#ffffff" fill-opacity="0.85"/>
 </g>
</svg>
