<?xml version="1.0" encoding="UTF-8"?>
<!--Generator: Apple Native CoreSVG 232.5-->
<!DOCTYPE svg
PUBLIC "-//W3C//DTD SVG 1.1//EN"
       "http://www.w3.org/Graphics/SVG/1.1/DTD/svg11.dtd">
<svg version="1.1" xmlns="http://www.w3.org/2000/svg" xmlns:xlink="http://www.w3.org/1999/xlink" width="15.2539" height="19.9707">
 <g>
  <rect height="19.9707" opacity="0" width="15.2539" x="0" y="0"/>
  <path d="M3.99414 0C1.78711 0 0 1.78711 0 3.98438C0 4.94141 0.332031 5.82031 0.888672 6.50391C1.02539 6.67969 1.20117 6.74805 1.36719 6.74805C1.79688 6.74805 2.14844 6.25 1.79688 5.81055C1.37695 5.32227 1.13281 4.6875 1.13281 3.98438C1.13281 2.41211 2.40234 1.13281 3.99414 1.13281C5.56641 1.13281 6.8457 2.41211 6.8457 3.98438C6.8457 4.0332 6.8457 4.08203 6.8457 4.16992C6.8457 4.55078 7.11914 4.72656 7.38281 4.72656C7.65625 4.72656 7.93945 4.54102 7.95898 4.23828C7.96875 4.16992 7.96875 4.10156 7.96875 3.98438C7.96875 1.78711 6.19141 0 3.99414 0Z" fill="#ffffff" fill-opacity="0.55"/>
  <path d="M11.25 17.168C14.3945 16.0254 15.6641 13.125 14.4336 9.73633L13.8379 8.10547C13.2324 6.44531 12.0508 5.75195 10.6836 6.23047C10.3125 5.75195 9.74609 5.5957 9.15039 5.81055C8.92578 5.89844 8.74023 6.00586 8.56445 6.14258C8.1543 5.61523 7.5293 5.42969 6.88477 5.66406C6.72852 5.72266 6.58203 5.80078 6.43555 5.89844L5.58594 3.56445C5.23438 2.61719 4.375 2.19727 3.4668 2.5293C2.55859 2.86133 2.1582 3.73047 2.50977 4.6875L4.62891 10.5078C4.63867 10.5469 4.62891 10.5859 4.59961 10.5957C4.57031 10.6055 4.54102 10.5957 4.52148 10.5664L3.78906 9.79492C3.33984 9.31641 2.80273 9.16016 2.26562 9.35547C1.54297 9.61914 1.06445 10.3125 1.36719 11.1328C1.43555 11.3672 1.60156 11.6602 1.79688 11.8945L4.30664 14.9316C6.32812 17.373 8.64258 18.1152 11.25 17.168ZM10.8789 16.0254C8.87695 16.748 7.02148 16.4355 5.17578 14.2285L2.65625 11.2012C2.57812 11.1133 2.5293 11.0352 2.49023 10.9082C2.40234 10.6836 2.49023 10.4297 2.76367 10.332C2.99805 10.2441 3.17383 10.332 3.34961 10.5176L5.12695 12.3242C5.44922 12.6562 5.73242 12.6855 5.99609 12.5879C6.31836 12.4707 6.43555 12.1289 6.31836 11.7871L3.55469 4.20898C3.45703 3.94531 3.58398 3.68164 3.85742 3.58398C4.12109 3.48633 4.375 3.61328 4.47266 3.87695L6.45508 9.30664C6.55273 9.58984 6.875 9.70703 7.14844 9.59961C7.42188 9.50195 7.57812 9.20898 7.48047 8.93555L6.77734 7.00195C6.86523 6.9043 7.00195 6.81641 7.12891 6.76758C7.46094 6.64062 7.73438 6.78711 7.86133 7.11914L8.49609 8.87695C8.60352 9.16016 8.92578 9.26758 9.19922 9.16992C9.46289 9.07227 9.62891 8.7793 9.52148 8.50586L9.0332 7.14844C9.12109 7.06055 9.25781 6.96289 9.38477 6.91406C9.7168 6.79688 10 6.94336 10.1172 7.27539L10.5469 8.44727C10.6445 8.7207 10.9668 8.83789 11.2402 8.74023C11.5039 8.64258 11.6699 8.34961 11.5723 8.06641L11.2793 7.28516C11.8652 7.07031 12.4316 7.58789 12.832 8.67188L13.3105 9.99023C14.3555 12.8613 13.457 15.0781 10.8789 16.0254Z" fill="#ffffff" fill-opacity="0.85"/>
 </g>
</svg>
