<svg version="1.1" xmlns="http://www.w3.org/2000/svg" xmlns:xlink="http://www.w3.org/1999/xlink" width="22.7441" height="20.2344" viewBox="0 0 22.7441 20.2344">
 <g>
  <rect height="20.2344" opacity="0" width="22.7441" x="0" y="0"/>
  <path d="M5.92476 7.12357C5.42732 8.00111 5.14648 9.02085 5.14648 10.1123C5.14648 13.4815 7.83203 16.167 11.1914 16.167C12.2824 16.167 13.3027 15.8844 14.1811 15.3846L15.2393 16.4435C14.068 17.2083 12.6753 17.6514 11.1914 17.6514C7.07031 17.6514 3.65234 14.2334 3.65234 10.1123C3.65234 8.62377 4.09491 7.22904 4.85912 6.05731ZM3.29267 4.48996C2.15679 6.08285 1.50391 8.02078 1.50391 10.1123C1.50391 12.2119 2.16797 14.1748 3.32031 15.7666C3.56445 16.1084 3.52539 16.5381 3.20312 16.8018C2.86133 17.085 2.39258 17.0459 2.11914 16.6748C0.78125 14.8194 0 12.5635 0 10.1123C0 7.66116 0.78125 5.39554 2.11914 3.54983C2.15316 3.50366 2.1902 3.46248 2.22967 3.42634ZM20.2637 3.54983C21.6016 5.39554 22.3828 7.66116 22.3828 10.1123C22.3828 12.5635 21.6016 14.8194 20.2637 16.6748C20.2383 16.7093 20.2112 16.7409 20.1822 16.7687L19.1098 15.6957C20.2339 14.1181 20.8789 12.1816 20.8789 10.1123C20.8789 8.00296 20.2148 6.04983 19.0625 4.44827C18.8184 4.11624 18.8477 3.68655 19.1797 3.41311C19.5215 3.12991 19.9902 3.17874 20.2637 3.54983ZM12.9209 14.1238C12.4502 14.4405 11.8787 14.585 11.1719 14.585C9.45312 14.585 8.29102 13.4229 8.29102 11.6358L8.29102 9.49119ZM18.7305 10.1123C18.7305 11.5827 18.2954 12.9635 17.5425 14.1275L16.4856 13.07C16.9743 12.1982 17.2492 11.1894 17.2461 10.1123C17.2363 6.74319 14.541 4.05764 11.1816 4.05764C10.1083 4.05764 9.10472 4.3318 8.2375 4.81717L7.17579 3.75484C8.33678 3.00552 9.714 2.57327 11.1816 2.57327C15.3125 2.57327 18.7305 5.99124 18.7305 10.1123ZM15.0488 9.66311C15.0488 9.87796 14.8633 10.3955 14.7363 10.8057C14.6951 10.9396 14.6544 11.0704 14.6136 11.197L13.72 10.3028L13.9355 9.86819C14.1602 9.44827 14.3262 9.25296 14.6191 9.25296C14.873 9.25296 15.0488 9.41897 15.0488 9.66311ZM13.0957 6.6553L13.0957 9.67817L12.1387 8.72059L12.1387 6.6553C12.1387 6.39163 12.3535 6.16702 12.6074 6.16702C12.8711 6.16702 13.0957 6.39163 13.0957 6.6553ZM11.8164 6.08889L11.8164 8.39814L10.8496 7.43078L10.8496 6.08889C10.8496 5.83499 11.0645 5.62014 11.3379 5.62014C11.6016 5.62014 11.8164 5.83499 11.8164 6.08889ZM10.5273 6.42093L10.5273 7.10833L9.62313 6.20359C9.70216 6.04864 9.86342 5.94241 10.0488 5.94241C10.3125 5.94241 10.5273 6.15725 10.5273 6.42093Z" fill="var(--color-secondary)"/>
  <path d="M19.2383 19.0772C19.502 19.3408 19.9316 19.3408 20.1855 19.0772C20.4395 18.8135 20.4492 18.3936 20.1855 18.1299L3.24219 1.17679C2.97852 0.913114 2.53906 0.913114 2.27539 1.17679C2.02148 1.43069 2.02148 1.87014 2.27539 2.12405Z" fill="var(--color-primary)"/>
 </g>
</svg>
