<?xml version="1.0" encoding="UTF-8"?>
<!--Generator: Apple Native CoreSVG 232.5-->
<!DOCTYPE svg
PUBLIC "-//W3C//DTD SVG 1.1//EN"
       "http://www.w3.org/Graphics/SVG/1.1/DTD/svg11.dtd">
<svg version="1.1" xmlns="http://www.w3.org/2000/svg" xmlns:xlink="http://www.w3.org/1999/xlink" width="13.877" height="19.873">
 <g>
  <rect height="19.873" opacity="0" width="13.877" x="0" y="0"/>
  <path d="M4.99023 2.22656C5.61523 2.22656 6.10352 1.73828 6.10352 1.11328C6.10352 0.498047 5.61523 0 4.99023 0C4.375 0 3.87695 0.498047 3.87695 1.11328C3.87695 1.73828 4.375 2.22656 4.99023 2.22656ZM1.11328 5.71289C1.73828 5.71289 2.22656 5.21484 2.22656 4.59961C2.22656 3.97461 1.73828 3.48633 1.11328 3.48633C0.498047 3.48633 0 3.97461 0 4.59961C0 5.21484 0.498047 5.71289 1.11328 5.71289ZM8.91602 5.71289C9.53125 5.71289 10.0293 5.21484 10.0293 4.59961C10.0293 3.97461 9.53125 3.48633 8.91602 3.48633C8.29102 3.48633 7.80273 3.97461 7.80273 4.59961C7.80273 5.21484 8.29102 5.71289 8.91602 5.71289ZM12.4023 5.71289C13.0176 5.71289 13.5156 5.21484 13.5156 4.59961C13.5156 3.97461 13.0176 3.48633 12.4023 3.48633C11.7773 3.48633 11.2891 3.97461 11.2891 4.59961C11.2891 5.21484 11.7773 5.71289 12.4023 5.71289ZM12.4023 2.22656C13.0176 2.22656 13.5156 1.73828 13.5156 1.11328C13.5156 0.498047 13.0176 0 12.4023 0C11.7773 0 11.2891 0.498047 11.2891 1.11328C11.2891 1.73828 11.7773 2.22656 12.4023 2.22656Z" fill="#ffffff" fill-opacity="0.55"/>
  <path d="M7.75391 19.5215C11.1133 19.5215 13.0273 17.3535 13.0273 13.8086L13.0273 12.2754C13.0273 10.9277 12.3828 10.0977 11.6504 10.0977C11.4844 10.0977 11.3965 10.1855 11.3965 10.3418L11.3965 10.9668C11.3965 11.3086 11.2305 11.4648 11.0254 11.4648C10.8105 11.4648 10.6445 11.3086 10.6445 10.9668L10.6445 10.5664C10.6445 9.77539 10.1367 9.25781 9.45312 9.25781C9.14062 9.25781 9.00391 9.38477 9.00391 9.64844L9.00391 10.5078C9.00391 10.8496 8.82812 11.0059 8.63281 11.0059C8.4082 11.0059 8.24219 10.8496 8.24219 10.5078L8.24219 9.7168C8.24219 8.82812 7.72461 8.4082 7.06055 8.4082C6.76758 8.4082 6.61133 8.54492 6.61133 8.79883L6.61133 10.5078C6.61133 10.8496 6.43555 11.0059 6.24023 11.0059C6.01562 11.0059 5.84961 10.8496 5.84961 10.5078L5.84961 4.61914C5.84961 4.05273 5.46875 3.67188 4.99023 3.67188C4.46289 3.67188 4.11133 4.05273 4.11133 4.61914L4.11133 13.3594C4.11133 13.584 3.97461 13.7012 3.83789 13.7012C3.71094 13.7012 3.60352 13.6133 3.50586 13.3887L2.37305 10.7031C2.20703 10.3125 1.95312 10.1367 1.5918 10.1367C1.07422 10.1367 0.722656 10.498 0.722656 10.9277C0.722656 11.1133 0.761719 11.2598 0.800781 11.377L2.03125 15.0195C3.13477 18.2812 5.25391 19.5215 7.75391 19.5215Z" fill="#ffffff" fill-opacity="0.85"/>
 </g>
</svg>
