<svg version="1.1" xmlns="http://www.w3.org/2000/svg" xmlns:xlink="http://www.w3.org/1999/xlink" width="15.1025" height="14.7852" viewBox="0 0 15.1025 14.7852">
 <g>
  <rect height="14.7852" opacity="0" width="15.1025" x="0" y="0"/>
  <path d="M5.38818 13.0127C7.76123 15.3857 10.7983 15.2881 12.9858 13.0908C14.7241 11.3623 15.0464 9.65332 14.4897 7.63184C14.1577 6.3916 13.5132 5.07324 12.7026 3.54004C12.3413 2.84668 11.9019 1.91895 11.6089 1.62598C11.3062 1.33301 10.8862 1.34277 10.564 1.65527C10.1831 2.03613 10.2124 2.48535 10.5054 3.34473L11.2866 5.66895C11.3745 5.88379 11.3647 6.03027 11.2866 6.1084C11.189 6.20605 11.0718 6.21582 10.9058 6.04004L5.12451 0.249023C4.78271-0.0830078 4.23584-0.0830078 3.90381 0.249023C3.57178 0.581055 3.57178 1.12793 3.90381 1.45996L8.06396 5.62012C7.87842 5.71777 7.68311 5.83496 7.48779 5.97168L2.7124 1.19629C2.38037 0.864258 1.8335 0.864258 1.50146 1.19629C1.16943 1.53809 1.16943 2.0752 1.50146 2.40723L6.2085 7.12402C6.07178 7.2998 5.93506 7.47559 5.80811 7.66113L1.45264 3.30566C1.12061 2.96387 0.583496 2.96387 0.241699 3.30566C-0.0805664 3.6377-0.0805664 4.18457 0.241699 4.5166L4.97803 9.24316C4.89014 9.4873 4.83154 9.73145 4.77295 9.97559L1.48193 6.6748C1.1499 6.34277 0.603027 6.34277 0.270996 6.6748C-0.0610352 7.0166-0.0610352 7.55371 0.270996 7.89551Z" fill="currentColor"/>
 </g>
</svg>
