<?xml version="1.0" encoding="UTF-8"?>
<!--Generator: Apple Native CoreSVG 232.5-->
<!DOCTYPE svg
PUBLIC "-//W3C//DTD SVG 1.1//EN"
       "http://www.w3.org/Graphics/SVG/1.1/DTD/svg11.dtd">
<svg version="1.1" xmlns="http://www.w3.org/2000/svg" xmlns:xlink="http://www.w3.org/1999/xlink" width="16.1328" height="15.7715">
 <g>
  <rect height="15.7715" opacity="0" width="16.1328" x="0" y="0"/>
  <path d="M7.88086 15.7617C12.1875 15.7617 15.7715 12.1875 15.7715 7.88086C15.7715 3.57422 12.1777 0 7.87109 0C3.57422 0 0 3.57422 0 7.88086C0 12.1875 3.58398 15.7617 7.88086 15.7617Z" fill="#ffffff" fill-opacity="0.25"/>
  <path d="M4.7168 9.28711L4.7168 5.01953C4.7168 4.72656 4.95117 4.48242 5.25391 4.48242C5.53711 4.48242 5.77148 4.72656 5.77148 5.01953L5.77148 7.71484C5.87891 7.65625 5.98633 7.57812 6.11328 7.5293L6.11328 3.58398C6.11328 3.30078 6.35742 3.06641 6.64062 3.06641C6.92383 3.06641 7.16797 3.30078 7.16797 3.58398L7.16797 7.19727C7.29492 7.16797 7.40234 7.1582 7.51953 7.13867L7.51953 3.23242C7.51953 2.94922 7.75391 2.71484 8.04688 2.71484C8.33984 2.71484 8.56445 2.94922 8.56445 3.23242L8.56445 7.1875C8.69141 7.22656 8.80859 7.26562 8.91602 7.28516L8.91602 3.83789C8.91602 3.55469 9.15039 3.32031 9.44336 3.32031C9.72656 3.32031 9.96094 3.55469 9.96094 3.83789L9.96094 8.67188C9.96094 8.78906 10 8.83789 10.0781 8.83789C10.1367 8.83789 10.1855 8.78906 10.2344 8.67188L10.8887 7.36328C11.123 6.89453 11.2988 6.67969 11.6309 6.67969C11.9141 6.67969 12.1094 6.86523 12.1094 7.12891C12.1094 7.37305 11.9043 7.92969 11.7578 8.37891C11.4551 9.35547 11.1816 10.1758 10.791 10.8398C10.1465 11.9922 9.23828 12.5 7.87109 12.5C5.98633 12.5 4.7168 11.2305 4.7168 9.28711Z" fill="#ffffff" fill-opacity="0.85"/>
 </g>
</svg>
