<?xml version="1.0" encoding="UTF-8"?>
<!--Generator: Apple Native CoreSVG 232.5-->
<!DOCTYPE svg
PUBLIC "-//W3C//DTD SVG 1.1//EN"
       "http://www.w3.org/Graphics/SVG/1.1/DTD/svg11.dtd">
<svg version="1.1" xmlns="http://www.w3.org/2000/svg" xmlns:xlink="http://www.w3.org/1999/xlink" width="23.2031" height="13.1543">
 <g>
  <rect height="13.1543" opacity="0" width="23.2031" x="0" y="0"/>
  <path d="M0.78125 3.08594C1.21094 3.08594 1.55273 2.73438 1.55273 2.30469C1.55273 1.875 1.21094 1.5332 0.78125 1.5332C0.351562 1.5332 0 1.875 0 2.30469C0 2.73438 0.351562 3.08594 0.78125 3.08594ZM0.78125 7.35352C1.21094 7.35352 1.55273 7.00195 1.55273 6.57227C1.55273 6.15234 1.21094 5.80078 0.78125 5.80078C0.351562 5.80078 0 6.14258 0 6.57227C0 7.00195 0.351562 7.35352 0.78125 7.35352ZM0.78125 11.6211C1.21094 11.6211 1.55273 11.2793 1.55273 10.8398C1.55273 10.4199 1.21094 10.0684 0.78125 10.0684C0.351562 10.0684 0 10.4199 0 10.8398C0 11.2793 0.351562 11.6211 0.78125 11.6211Z" fill="#ffffff" fill-opacity="0.85"/>
  <path d="M3.59375 3.4668C4.22852 3.4668 4.74609 2.94922 4.74609 2.30469C4.74609 1.66992 4.22852 1.14258 3.59375 1.14258C2.94922 1.14258 2.43164 1.66992 2.43164 2.30469C2.43164 2.94922 2.94922 3.4668 3.59375 3.4668ZM3.59375 7.73438C4.22852 7.73438 4.74609 7.2168 4.74609 6.57227C4.74609 5.9375 4.22852 5.41992 3.59375 5.41992C2.94922 5.41992 2.43164 5.9375 2.43164 6.57227C2.43164 7.2168 2.94922 7.73438 3.59375 7.73438ZM3.59375 12.0117C4.22852 12.0117 4.74609 11.4844 4.74609 10.8398C4.74609 10.2051 4.22852 9.6875 3.59375 9.6875C2.94922 9.6875 2.43164 10.2051 2.43164 10.8398C2.43164 11.4844 2.94922 12.0117 3.59375 12.0117Z" fill="#ffffff" fill-opacity="0.85"/>
  <path d="M7.17773 3.85742C8.02734 3.85742 8.7207 3.16406 8.7207 2.30469C8.7207 1.45508 8.02734 0.761719 7.17773 0.761719C6.31836 0.761719 5.625 1.45508 5.625 2.30469C5.625 3.16406 6.31836 3.85742 7.17773 3.85742ZM7.17773 8.125C8.02734 8.125 8.7207 7.43164 8.7207 6.57227C8.7207 5.72266 8.02734 5.0293 7.17773 5.0293C6.31836 5.0293 5.625 5.72266 5.625 6.57227C5.625 7.43164 6.31836 8.125 7.17773 8.125ZM7.17773 12.3926C8.02734 12.3926 8.7207 11.6992 8.7207 10.8398C8.7207 9.99023 8.02734 9.29688 7.17773 9.29688C6.31836 9.29688 5.625 9.99023 5.625 10.8398C5.625 11.6992 6.31836 12.3926 7.17773 12.3926Z" fill="#ffffff" fill-opacity="0.85"/>
  <path d="M9.88281 6.57227C9.86328 8.00781 9.98047 9.45312 10.4004 10.9375C10.8789 12.5684 11.7578 13.1348 13.7012 13.1348L14.1602 13.1348C18.8184 13.1348 22.8418 10.1172 22.8418 6.57227C22.8418 3.02734 18.8184 0 14.1602 0L13.7012 0C11.7676 0 10.8887 0.576172 10.4004 2.20703C9.98047 3.69141 9.86328 5.13672 9.88281 6.57227Z" fill="#ffffff" fill-opacity="0.85"/>
 </g>
</svg>
