<?xml version="1.0" encoding="UTF-8"?>
<!--Generator: Apple Native CoreSVG 232.5-->
<!DOCTYPE svg
PUBLIC "-//W3C//DTD SVG 1.1//EN"
       "http://www.w3.org/Graphics/SVG/1.1/DTD/svg11.dtd">
<svg version="1.1" xmlns="http://www.w3.org/2000/svg" xmlns:xlink="http://www.w3.org/1999/xlink" width="14.5898" height="14.248">
 <g>
  <rect height="14.248" opacity="0" width="14.5898" x="0" y="0"/>
  <path d="M2.49023 14.248L11.7383 14.248C13.4082 14.248 14.2285 13.4277 14.2285 11.7871L14.2285 2.4707C14.2285 0.830078 13.4082 0.00976562 11.7383 0.00976562L2.49023 0.00976562C0.830078 0.00976562 0 0.830078 0 2.4707L0 11.7871C0 13.4277 0.830078 14.248 2.49023 14.248Z" fill="#ffffff" fill-opacity="0.25"/>
  <path d="M3.42773 2.09961C3.83789 2.09961 4.15039 2.32422 4.3457 2.68555C4.53125 2.32422 4.85352 2.09961 5.23438 2.09961C5.87891 2.09961 6.33789 2.58789 6.33789 3.26172C6.33789 4.21875 5.3418 5.12695 4.55078 5.61523C4.47266 5.66406 4.4043 5.71289 4.35547 5.71289C4.30664 5.71289 4.21875 5.67383 4.14062 5.61523C3.36914 5.04883 2.34375 4.21875 2.34375 3.26172C2.34375 2.58789 2.80273 2.09961 3.42773 2.09961ZM2.88086 9.25781C2.56836 9.25781 2.34375 9.02344 2.34375 8.7207C2.34375 8.42773 2.56836 8.20312 2.88086 8.20312L10.5273 8.20312C10.8301 8.20312 11.0547 8.42773 11.0547 8.7207C11.0547 9.02344 10.8301 9.25781 10.5273 9.25781ZM2.88086 11.9043C2.56836 11.9043 2.34375 11.6699 2.34375 11.3867C2.34375 11.084 2.56836 10.8398 2.88086 10.8398L8.57422 10.8398C8.87695 10.8398 9.10156 11.084 9.10156 11.3867C9.10156 11.6699 8.87695 11.9043 8.57422 11.9043Z" fill="#ffffff" fill-opacity="0.85"/>
 </g>
</svg>
