<svg version="1.1" xmlns="http://www.w3.org/2000/svg" xmlns:xlink="http://www.w3.org/1999/xlink" width="14.5898" height="14.248" viewBox="0 0 14.5898 14.248">
 <g>
  <rect height="14.248" opacity="0" width="14.5898" x="0" y="0"/>
  <path d="M2.49023 14.248L11.7383 14.248C13.4082 14.248 14.2285 13.4277 14.2285 11.7871L14.2285 2.4707C14.2285 0.830078 13.4082 0.00976562 11.7383 0.00976562L2.49023 0.00976562C0.830078 0.00976562 0 0.830078 0 2.4707L0 11.7871C0 13.4277 0.830078 14.248 2.49023 14.248Z" fill="var(--color-tertiary)"/>
  <path d="M5.20508 3.62305C6.06445 3.62305 6.70898 4.10156 7.11914 4.84375C7.51953 4.10156 8.17383 3.62305 9.02344 3.62305C10.3809 3.62305 11.3477 4.64844 11.3477 6.07422C11.3477 8.0957 9.22852 10.0098 7.54883 11.084C7.41211 11.1816 7.24609 11.2891 7.13867 11.2891C7.03125 11.2891 6.83594 11.1816 6.68945 11.084C5 10.0098 2.88086 8.0957 2.88086 6.07422C2.88086 4.64844 3.85742 3.62305 5.20508 3.62305Z" fill="var(--color-primary)"/>
 </g>
</svg>
