<svg version="1.1" xmlns="http://www.w3.org/2000/svg" xmlns:xlink="http://www.w3.org/1999/xlink" width="15.7324" height="14.7754" viewBox="0 0 15.7324 14.7754">
 <g>
  <rect height="14.7754" opacity="0" width="15.7324" x="0" y="0"/>
  <path d="M0 5.21484C0 8.52539 2.69531 11.7676 7.08008 14.541C7.25586 14.6582 7.51953 14.7754 7.68555 14.7754C7.86133 14.7754 8.11523 14.6582 8.29102 14.541C12.6758 11.7676 15.3711 8.52539 15.3711 5.21484C15.3711 2.46094 13.4766 0.507812 10.957 0.507812C9.51172 0.507812 8.39844 1.16211 7.68555 2.1582C6.98242 1.17188 5.85938 0.507812 4.41406 0.507812C1.89453 0.507812 0 2.46094 0 5.21484ZM1.40625 5.21484C1.40625 3.23242 2.68555 1.91406 4.4043 1.91406C5.84961 1.91406 6.63086 2.82227 7.10938 3.51562C7.34375 3.85742 7.49023 3.95508 7.68555 3.95508C7.89062 3.95508 8.00781 3.84766 8.26172 3.51562C8.7793 2.8418 9.53125 1.91406 10.9766 1.91406C12.6953 1.91406 13.9648 3.23242 13.9648 5.21484C13.9648 8.04688 10.9473 11.1426 7.86133 13.1934C7.77344 13.252 7.71484 13.291 7.68555 13.291C7.65625 13.291 7.59766 13.252 7.51953 13.1934C4.42383 11.1426 1.40625 8.04688 1.40625 5.21484Z" fill="currentColor"/>
 </g>
</svg>
