<?xml version="1.0" encoding="UTF-8"?>
<!--Generator: Apple Native CoreSVG 232.5-->
<!DOCTYPE svg
PUBLIC "-//W3C//DTD SVG 1.1//EN"
       "http://www.w3.org/Graphics/SVG/1.1/DTD/svg11.dtd">
<svg version="1.1" xmlns="http://www.w3.org/2000/svg" xmlns:xlink="http://www.w3.org/1999/xlink" width="12.2754" height="17.9395">
 <g>
  <rect height="17.9395" opacity="0" width="12.2754" x="0" y="0"/>
  <path d="M0 12.9297C0 15.1074 1.32812 16.4746 3.44727 16.4746C4.99023 16.4746 6.14258 15.8203 6.88477 14.541L7.63672 13.2129C9.24805 10.3906 11.9141 9.88281 11.9141 6.05469C11.9141 2.42188 9.56055 0 6.03516 0C2.42188 0 0 2.42188 0 6.06445Z" fill="#ffffff" fill-opacity="0.25"/>
  <path d="M2.27539 10.7812C2.27539 9.23828 3.92578 9.35547 3.92578 8.59375C3.92578 7.85156 2.27539 7.29492 2.27539 5.60547C2.27539 3.63281 3.7793 2.23633 6.03516 2.23633C8.29102 2.23633 9.80469 3.75 9.80469 6.00586C9.80469 6.37695 9.49219 6.68945 9.12109 6.68945C8.75 6.68945 8.4375 6.37695 8.4375 6.00586C8.4375 4.56055 7.49023 3.60352 6.03516 3.60352C4.59961 3.60352 3.64258 4.44336 3.64258 5.60547C3.64258 7.1582 5.95703 7.55859 5.95703 9.84375C5.95703 11.1621 5.14648 12.2266 3.91602 12.2363C2.93945 12.2363 2.27539 11.6504 2.27539 10.7812Z" fill="#ffffff" fill-opacity="0.85"/>
 </g>
</svg>
