<?xml version="1.0" encoding="UTF-8"?>
<!--Generator: Apple Native CoreSVG 232.5-->
<!DOCTYPE svg
PUBLIC "-//W3C//DTD SVG 1.1//EN"
       "http://www.w3.org/Graphics/SVG/1.1/DTD/svg11.dtd">
<svg version="1.1" xmlns="http://www.w3.org/2000/svg" xmlns:xlink="http://www.w3.org/1999/xlink" width="17.5684" height="16.4941">
 <g>
  <rect height="16.4941" opacity="0" width="17.5684" x="0" y="0"/>
  <path d="M5.29297 12.9297C5.29297 15.1074 6.63086 16.4746 8.74023 16.4746C10.293 16.4746 11.4453 15.8203 12.1777 14.541L12.9395 13.2129C14.541 10.3906 17.207 9.88281 17.207 6.05469C17.207 2.43164 14.8535 0 11.3379 0C7.72461 0 5.29297 2.42188 5.29297 6.06445ZM6.61133 12.8418L6.61133 6.06445C6.61133 3.20312 8.49609 1.31836 11.3379 1.31836C14.0723 1.31836 15.8887 3.21289 15.8887 6.05469C15.8887 9.17969 13.4277 9.86328 11.7676 12.627L11.0449 13.8281C10.5078 14.7168 9.80469 15.127 8.80859 15.127C7.43164 15.127 6.61133 14.2773 6.61133 12.8418ZM7.70508 10.6543C7.70508 11.4941 8.33984 12.0508 9.28711 12.0508C10.4688 12.041 11.2598 11.0254 11.2598 9.75586C11.2598 7.55859 9.02344 7.1582 9.02344 5.66406C9.02344 4.55078 9.95117 3.74023 11.3379 3.74023C12.7344 3.74023 13.6523 4.64844 13.6523 6.05469C13.6523 6.40625 13.9551 6.70898 14.3066 6.70898C14.668 6.70898 14.9609 6.40625 14.9609 6.05469C14.9609 3.87695 13.5059 2.42188 11.3379 2.42188C9.16016 2.42188 7.70508 3.75977 7.70508 5.66406C7.70508 7.30469 9.29688 7.83203 9.29688 8.55469C9.29688 9.28711 7.70508 9.16992 7.70508 10.6543Z" fill="#ffffff" fill-opacity="0.55"/>
  <path d="M1.34766 3.58398C2.08984 3.58398 2.69531 2.97852 2.69531 2.23633C2.69531 1.49414 2.08984 0.888672 1.34766 0.888672C0.605469 0.888672 0 1.49414 0 2.23633C0 2.97852 0.605469 3.58398 1.34766 3.58398Z" fill="#ffffff" fill-opacity="0.85"/>
  <path d="M1.34766 7.57812C2.08984 7.57812 2.69531 6.97266 2.69531 6.23047C2.69531 5.48828 2.08984 4.88281 1.34766 4.88281C0.605469 4.88281 0 5.48828 0 6.23047C0 6.97266 0.605469 7.57812 1.34766 7.57812Z" fill="#ffffff" fill-opacity="0.85"/>
  <path d="M1.34766 11.6016C2.08984 11.6016 2.69531 10.9961 2.69531 10.2539C2.69531 9.51172 2.08984 8.90625 1.34766 8.90625C0.605469 8.90625 0 9.51172 0 10.2539C0 10.9961 0.605469 11.6016 1.34766 11.6016Z" fill="#ffffff" fill-opacity="0.85"/>
  <path d="M1.34766 15.5957C2.08984 15.5957 2.69531 14.9902 2.69531 14.248C2.69531 13.5059 2.08984 12.9004 1.34766 12.9004C0.605469 12.9004 0 13.5059 0 14.248C0 14.9902 0.605469 15.5957 1.34766 15.5957Z" fill="#ffffff" fill-opacity="0.85"/>
 </g>
</svg>
