<?xml version="1.0" encoding="UTF-8"?>
<!--Generator: Apple Native CoreSVG 232.5-->
<!DOCTYPE svg
PUBLIC "-//W3C//DTD SVG 1.1//EN"
       "http://www.w3.org/Graphics/SVG/1.1/DTD/svg11.dtd">
<svg version="1.1" xmlns="http://www.w3.org/2000/svg" xmlns:xlink="http://www.w3.org/1999/xlink" width="16.1328" height="15.7715">
 <g>
  <rect height="15.7715" opacity="0" width="16.1328" x="0" y="0"/>
  <path d="M7.88086 15.7617C12.1875 15.7617 15.7715 12.1875 15.7715 7.88086C15.7715 3.57422 12.1777 0 7.87109 0C3.57422 0 0 3.57422 0 7.88086C0 12.1875 3.58398 15.7617 7.88086 15.7617Z" fill="#ffffff" fill-opacity="0.25"/>
  <path d="M5.97656 4.38477C6.83594 4.38477 7.48047 4.86328 7.88086 5.60547C8.29102 4.86328 8.94531 4.38477 9.79492 4.38477C11.1426 4.38477 12.1191 5.41016 12.1191 6.83594C12.1191 8.85742 10 10.7715 8.31055 11.8457C8.18359 11.9434 8.01758 12.0508 7.90039 12.0508C7.80273 12.0508 7.60742 11.9434 7.45117 11.8457C5.77148 10.7715 3.65234 8.85742 3.65234 6.83594C3.65234 5.41016 4.61914 4.38477 5.97656 4.38477Z" fill="#ffffff" fill-opacity="0.85"/>
 </g>
</svg>
