<?xml version="1.0" encoding="UTF-8"?>
<!--Generator: Apple Native CoreSVG 232.5-->
<!DOCTYPE svg
PUBLIC "-//W3C//DTD SVG 1.1//EN"
       "http://www.w3.org/Graphics/SVG/1.1/DTD/svg11.dtd">
<svg version="1.1" xmlns="http://www.w3.org/2000/svg" xmlns:xlink="http://www.w3.org/1999/xlink" width="20.8789" height="20.2051">
 <g>
  <rect height="20.2051" opacity="0" width="20.8789" x="0" y="0"/>
  <path d="M11.3867 3.08594L11.3867 5.19531L10.4102 5.19531C9.10156 5.19531 7.86133 5.35156 6.91406 6.29883C6.54078 6.67211 6.29185 7.09089 6.12856 7.54131C6.11405 7.53918 6.09903 7.53906 6.08398 7.53906C4.50195 7.53906 3.22266 8.81836 3.22266 10.4102C3.22266 11.9032 4.36202 13.1265 5.82031 13.2582L5.82031 15.2734L2.76367 15.2734C1.43555 15.2734 0.78125 14.5996 0.78125 13.2715L0.78125 3.08594C0.78125 1.75781 1.43555 1.08398 2.76367 1.08398L9.41406 1.08398C10.7324 1.08398 11.3867 1.75781 11.3867 3.08594ZM5.82031 9.78516L5.82031 11.5512C5.30373 11.4335 4.92188 10.9735 4.92188 10.4199C4.92188 9.87172 5.30792 9.41092 5.8287 9.29624C5.82265 9.45794 5.82031 9.62108 5.82031 9.78516ZM4.54102 4.63867C4.54102 5.49805 5.23438 6.19141 6.08398 6.19141C6.94336 6.19141 7.63672 5.49805 7.63672 4.63867C7.63672 3.7793 6.94336 3.0957 6.08398 3.0957C5.22461 3.0957 4.54102 3.7793 4.54102 4.63867ZM6.78711 4.62891C6.78711 5.01953 6.48438 5.33203 6.08398 5.33203C5.68359 5.33203 5.38086 5.01953 5.38086 4.62891C5.38086 4.20898 5.68359 3.91602 6.08398 3.91602C6.47461 3.91602 6.78711 4.22852 6.78711 4.62891Z" fill="#ffffff" fill-opacity="0.85"/>
  <path d="M10.4102 19.0625L16.2988 19.0625C17.334 19.0625 18.3008 18.9844 18.9844 18.3008C19.668 17.6074 19.7363 16.6504 19.7363 15.6152L19.7363 9.78516C19.7363 8.75 19.668 7.79297 18.9844 7.10938C18.3008 6.42578 17.334 6.33789 16.2988 6.33789L10.4102 6.33789C9.375 6.33789 8.4082 6.42578 7.72461 7.10938C7.04102 7.79297 6.95312 8.75 6.95312 9.78516L6.95312 15.6152C6.95312 16.6504 7.04102 17.6074 7.72461 18.3008C8.4082 18.9844 9.375 19.0625 10.4102 19.0625ZM10.4199 11.2695C10.4004 10.7812 10.8008 10.3125 11.3281 10.2734C11.3672 10.752 10.957 11.3281 10.4199 11.2695ZM12.2266 13.5254C12.1289 13.8672 11.9043 14.2578 11.6211 14.5508C11.5332 14.6289 11.4062 14.6875 11.2402 14.6875C11.0938 14.6875 11.0059 14.6289 10.8691 14.5898C10.7812 14.5605 10.6738 14.502 10.5273 14.502C10.2051 14.502 10.0586 14.6973 9.79492 14.6973C9.60938 14.6973 9.47266 14.5898 9.26758 14.3652C8.88672 13.9551 8.64258 13.291 8.64258 12.7148C8.64258 12.3633 8.73047 12.041 8.95508 11.7578C9.14062 11.5234 9.42383 11.3867 9.76562 11.3867C10.0781 11.3867 10.2734 11.582 10.4492 11.582C10.6445 11.582 10.8691 11.377 11.2793 11.377C11.6309 11.377 11.9336 11.5234 12.1191 11.8066C11.8652 11.9434 11.7773 12.1289 11.7188 12.2852C11.6309 12.5 11.6211 12.7637 11.7188 13.0273C11.8164 13.2617 11.9727 13.418 12.2266 13.5254ZM14.0137 10.5957L14.0137 11.377L14.6387 11.377L14.6387 11.8945L14.0137 11.8945L14.0137 13.7109C14.0137 14.0137 14.1406 14.1309 14.4043 14.1309C14.4727 14.1309 14.5996 14.1309 14.6387 14.1113L14.6387 14.6582C14.5703 14.668 14.4043 14.6875 14.2676 14.6875C13.5938 14.6875 13.3301 14.4531 13.3301 13.7988L13.3301 11.8945L12.8711 11.8945L12.8711 11.377L13.3301 11.377L13.3301 10.5957ZM16.8652 14.6582L16.1523 14.6582L14.9512 11.377L15.6543 11.377L16.5137 14.0137L17.3145 11.377L18.0469 11.377Z" fill="#ffffff" fill-opacity="0.85"/>
 </g>
</svg>
