<?xml version="1.0" encoding="UTF-8"?>
<!--Generator: Apple Native CoreSVG 232.5-->
<!DOCTYPE svg
PUBLIC "-//W3C//DTD SVG 1.1//EN"
       "http://www.w3.org/Graphics/SVG/1.1/DTD/svg11.dtd">
<svg version="1.1" xmlns="http://www.w3.org/2000/svg" xmlns:xlink="http://www.w3.org/1999/xlink" width="19.0039" height="17.666">
 <g>
  <rect height="17.666" opacity="0" width="19.0039" x="0" y="0"/>
  <path d="M2.28516 14.4824C2.28516 15.5957 2.95898 16.25 4.10156 16.25L14.5508 16.25C15.6934 16.25 16.3574 15.5957 16.3574 14.4824L16.3574 5.89844L15.127 5.87891L15.127 14.3066C15.127 14.7656 14.873 15.0293 14.4238 15.0293L4.21875 15.0293C3.7793 15.0293 3.52539 14.7656 3.52539 14.3066L3.52539 5.87891L2.28516 5.89844ZM0 7.69531C0 8.04688 0.253906 8.28125 0.634766 8.28125C0.791016 8.28125 0.908203 8.22266 1.01562 8.14453L9.07227 1.38672C9.22852 1.25977 9.42383 1.25 9.57031 1.38672L17.627 8.14453C17.7344 8.22266 17.8516 8.28125 18.0176 8.28125C18.3887 8.28125 18.6426 8.04688 18.6426 7.69531C18.6426 7.4707 18.5645 7.31445 18.3691 7.1582L10.3027 0.380859C9.69727-0.126953 8.95508-0.126953 8.34961 0.380859L0.273438 7.1582C0.0878906 7.31445 0 7.4707 0 7.69531ZM14.2578 4.02344L16.3574 5.80078L16.3574 2.24609C16.3574 1.875 16.123 1.64062 15.752 1.64062L14.873 1.64062C14.502 1.64062 14.2578 1.875 14.2578 2.24609Z" fill="#ffffff" fill-opacity="0.85"/>
  <path d="M4.83398 12.7246C4.83398 13.3496 5.24414 13.7207 5.9375 13.7207L12.7148 13.7207C13.4082 13.7207 13.8184 13.3496 13.8184 12.7246L13.8184 6.66992L9.82422 3.33984C9.52148 3.08594 9.12109 3.08594 8.81836 3.33984L4.83398 6.66992ZM6.06445 12.168L6.06445 7.27539L9.0625 4.75586C9.20898 4.62891 9.43359 4.62891 9.58008 4.75586L12.5781 7.27539L12.5781 12.168C12.5781 12.3828 12.4707 12.5 12.2559 12.5L6.39648 12.5C6.18164 12.5 6.06445 12.3828 6.06445 12.168Z" fill="#ffffff" fill-opacity="0.85"/>
  <path d="M7.38281 10.4297C7.38281 10.9082 7.68555 11.1914 8.19336 11.1914L10.4492 11.1914C10.957 11.1914 11.2695 10.9082 11.2695 10.4297L11.2695 7.89062L9.78516 6.65039C9.50195 6.42578 9.13086 6.42578 8.86719 6.65039L7.38281 7.89062ZM8.58398 9.83398L8.58398 8.45703L9.12109 8.00781C9.23828 7.91016 9.4043 7.91016 9.53125 8.00781L10.0586 8.45703L10.0586 9.83398C10.0586 9.95117 10 10.0098 9.87305 10.0098L8.76953 10.0098C8.64258 10.0098 8.58398 9.95117 8.58398 9.83398Z" fill="#ffffff" fill-opacity="0.85"/>
 </g>
</svg>
