<svg version="1.1" xmlns="http://www.w3.org/2000/svg" xmlns:xlink="http://www.w3.org/1999/xlink" width="25.3698" height="17.1777" viewBox="0 0 25.3698 17.1777">
 <g>
  <rect height="17.1777" opacity="0" width="25.3698" x="0" y="0"/>
  <path d="M1.11264 8.86719L8.41733 5.14648C8.56381 5.05859 8.74936 5.05859 8.91538 5.14648L16.2103 8.86719C17.2162 9.38477 17.7435 8.17383 16.9232 7.74414L9.59897 3.88672C8.93491 3.53516 8.3978 3.53516 7.73374 3.88672L0.389987 7.74414C-0.410795 8.17383 0.116549 9.38477 1.11264 8.86719ZM3.7396 17.1484L13.5931 17.1484C14.6771 17.1484 15.3216 16.5234 15.3216 15.459L15.3216 7.94922L13.974 7.20703L13.974 15.1172C13.974 15.5469 13.7298 15.8008 13.3001 15.8008L4.0228 15.8008C3.60288 15.8008 3.34897 15.5469 3.34897 15.1172L3.34897 7.2168L2.01108 7.90039L2.01108 15.459C2.01108 16.5234 2.65561 17.1484 3.7396 17.1484ZM6.40561 16.4551L10.9271 16.4551L10.9271 10.9668C10.9271 10.6055 10.7025 10.3809 10.3412 10.3809L6.99155 10.3809C6.63999 10.3809 6.40561 10.6055 6.40561 10.9668ZM19.3158 17.1484C19.6771 17.1484 19.9798 16.8359 19.9798 16.4746L19.9798 4.7168C20.0482 4.69727 20.1165 4.69727 20.1849 4.69727C21.474 4.69727 22.2748 5.32227 23.4955 5.32227C24.0619 5.32227 24.2767 5.26367 24.5501 5.13672C24.8626 4.99023 25.0091 4.76562 25.0091 4.4043L25.0091 0.878906C25.0091 0.654297 24.8919 0.488281 24.5697 0.488281C24.3548 0.488281 24.0521 0.634766 23.4662 0.634766C22.265 0.634766 21.4447 0 20.1556 0C19.5892 0 19.3744 0.0683594 19.1107 0.185547C18.7982 0.3125 18.6517 0.566406 18.6517 0.908203L18.6517 16.4746C18.6517 16.8359 18.9447 17.1484 19.3158 17.1484ZM0.722018 17.1484L22.597 17.1484C22.9681 17.1484 23.2611 16.8359 23.2611 16.4746C23.2611 16.1035 22.9681 15.8008 22.597 15.8008L0.722018 15.8008C0.36069 15.8008 0.0481896 16.1035 0.0481896 16.4746C0.0481896 16.8359 0.36069 17.1484 0.722018 17.1484Z" fill="currentColor"/>
 </g>
</svg>
