<svg version="1.1" xmlns="http://www.w3.org/2000/svg" xmlns:xlink="http://www.w3.org/1999/xlink" width="11.1426" height="14.2285" viewBox="0 0 11.1426 14.2285">
 <g>
  <rect height="14.2285" opacity="0" width="11.1426" x="0" y="0"/>
  <path d="M5.32227 0C3.85742 0 2.4707 0.507812 1.66992 1.71875C1.44531 2.04102 1.31836 2.36328 1.31836 2.74414C1.31836 3.16406 1.57227 3.47656 2.06055 3.47656C2.36328 3.47656 2.61719 3.35938 2.8125 2.92969C3.28125 1.92383 4.29688 1.47461 5.38086 1.47461C6.78711 1.47461 8.03711 2.1582 8.03711 3.53516C8.03711 4.14062 7.70508 4.84375 7.00195 5.14648L8.82812 5.14648C9.35547 4.67773 9.64844 4.08203 9.64844 3.42773C9.64844 1.17188 7.61719 0 5.32227 0ZM0.546875 6.11328L10.2246 6.11328C10.5469 6.11328 10.7812 5.85938 10.7812 5.54688C10.7812 5.21484 10.5469 4.98047 10.2246 4.98047L0.546875 4.98047C0.234375 4.98047 0 5.21484 0 5.54688C0 5.85938 0.234375 6.11328 0.546875 6.11328ZM0.546875 8.82812L10.2246 8.82812C10.5469 8.82812 10.7812 8.57422 10.7812 8.26172C10.7812 7.92969 10.5469 7.69531 10.2246 7.69531L0.546875 7.69531C0.234375 7.69531 0 7.92969 0 8.26172C0 8.57422 0.234375 8.82812 0.546875 8.82812ZM5.40039 14.2188C7.30469 14.2188 8.74023 13.4668 9.49219 12.2656C9.69727 11.9434 9.84375 11.6406 9.84375 11.2305C9.84375 10.8008 9.54102 10.498 9.10156 10.498C8.66211 10.498 8.44727 10.7324 8.29102 11.0645C7.75391 12.2168 6.81641 12.7441 5.36133 12.7441C3.63281 12.7441 2.50977 11.8066 2.50977 10.6738C2.50977 9.86328 2.89062 9.0918 3.97461 8.63281L1.99219 8.63281C1.28906 9.16016 0.878906 9.91211 0.878906 10.7324C0.878906 12.666 2.63672 14.2188 5.40039 14.2188Z" fill="currentColor"/>
 </g>
</svg>
