<svg version="1.1" xmlns="http://www.w3.org/2000/svg" xmlns:xlink="http://www.w3.org/1999/xlink" width="16.1328" height="15.7715" viewBox="0 0 16.1328 15.7715">
 <g>
  <rect height="15.7715" opacity="0" width="16.1328" x="0" y="0"/>
  <path d="M7.88086 15.7617C12.1875 15.7617 15.7715 12.1875 15.7715 7.88086C15.7715 3.57422 12.1777 0 7.87109 0C3.57422 0 0 3.57422 0 7.88086C0 12.1875 3.58398 15.7617 7.88086 15.7617ZM7.88086 14.2773C4.33594 14.2773 1.50391 11.4355 1.50391 7.88086C1.50391 4.32617 4.32617 1.48438 7.87109 1.48438C11.4258 1.48438 14.2773 4.32617 14.2773 7.88086C14.2773 11.4355 11.4355 14.2773 7.88086 14.2773Z" fill="var(--color-secondary)"/>
  <path d="M7.86133 11.3965C8.33008 11.3965 8.57422 11.1035 8.57422 10.6152L8.57422 4.9707C8.57422 4.48242 8.33008 4.18945 7.86133 4.18945C7.41211 4.18945 7.17773 4.50195 7.17773 4.9707L7.17773 10.6152C7.17773 11.084 7.41211 11.3965 7.86133 11.3965Z" fill="var(--color-primary)"/>
 </g>
</svg>
