<?xml version="1.0" encoding="UTF-8"?>
<!--Generator: Apple Native CoreSVG 232.5-->
<!DOCTYPE svg
PUBLIC "-//W3C//DTD SVG 1.1//EN"
       "http://www.w3.org/Graphics/SVG/1.1/DTD/svg11.dtd">
<svg version="1.1" xmlns="http://www.w3.org/2000/svg" xmlns:xlink="http://www.w3.org/1999/xlink" width="19.8828" height="21.5527">
 <g>
  <rect height="21.5527" opacity="0" width="19.8828" x="0" y="0"/>
  <path d="M17.0703 8.58398C18.5645 9.21875 19.5215 10.498 19.5215 12.0898C19.5215 13.9746 18.0566 15.4297 15.6152 15.4297L12.0605 15.4297L12.0605 14.0234L15.6152 14.0234C17.2754 14.0234 18.1152 13.2031 18.1152 12.0898C18.1152 10.7617 17.1973 9.92188 15.8008 9.62891C15.7031 9.60938 15.6641 9.55078 15.6738 9.44336C15.7129 9.07227 15.7324 8.63281 15.7129 8.26172C15.6055 6.04492 13.8965 4.05273 11.3867 4.05273C9.41406 4.05273 8.28125 5.11719 7.54883 6.43555C7.5 6.52344 7.44141 6.54297 7.34375 6.51367C5.79102 6.05469 4.11133 6.64062 4.11133 9.05273C4.11133 9.16016 4.0625 9.21875 3.95508 9.21875C2.32422 9.21875 1.40625 10.293 1.40625 11.7578C1.40625 13.0078 2.32422 14.0234 4.10156 14.0234L7.58789 14.0234L7.58789 15.4297L4.10156 15.4297C1.5332 15.4297 0 13.7793 0 11.7578C0 9.92188 1.06445 8.4668 2.82227 8.1543C2.88086 5.98633 5.11719 4.60938 6.85547 5.05859C7.8125 3.74023 9.30664 2.63672 11.3867 2.63672C14.5703 2.63672 17.0605 5.11719 17.0703 8.58398Z" fill="#ffffff" fill-opacity="0.85"/>
  <path d="M9.82422 20.0098C10.0098 20.0098 10.1465 19.9414 10.332 19.7754L12.8516 17.4609C12.998 17.334 13.0566 17.1875 13.0566 16.9922C13.0566 16.6406 12.7832 16.3867 12.4219 16.3867C12.2559 16.3867 12.0801 16.4648 11.9531 16.5918L10.8789 17.666L10.4688 18.1055L10.5176 16.9434L10.5176 10.5078C10.5176 10.1465 10.2051 9.83398 9.82422 9.83398C9.45312 9.83398 9.13086 10.1465 9.13086 10.5078L9.13086 16.9434L9.18945 18.1055L8.76953 17.666L7.70508 16.5918C7.56836 16.4648 7.39258 16.3867 7.2168 16.3867C6.85547 16.3867 6.5918 16.6406 6.5918 16.9922C6.5918 17.1875 6.66016 17.334 6.79688 17.4609L9.31641 19.7754C9.51172 19.9414 9.64844 20.0098 9.82422 20.0098Z" fill="#ffffff" fill-opacity="0.85"/>
 </g>
</svg>
