<svg version="1.1" xmlns="http://www.w3.org/2000/svg" xmlns:xlink="http://www.w3.org/1999/xlink" width="19.8828" height="17.1582" viewBox="0 0 19.8828 17.1582">
 <g>
  <rect height="17.1582" opacity="0" width="19.8828" x="0" y="0"/>
  <path d="M17.0703 6.38672C18.5645 7.04102 19.5215 8.44727 19.5215 9.98047C19.5215 11.8262 17.959 13.2324 15.7129 13.2324L10.5371 13.2324L10.5371 16.4746C10.5371 16.8457 10.2246 17.1582 9.84375 17.1582C9.47266 17.1582 9.15039 16.8457 9.15039 16.4746L9.15039 13.2324L4.28711 13.2324C1.71875 13.2324 0 11.6309 0 9.6582C0 7.86133 1.06445 6.2793 2.82227 5.95703C2.88086 3.78906 5.11719 2.41211 6.85547 2.86133C7.8125 1.54297 9.30664 0.439453 11.3867 0.439453C14.5703 0.439453 17.0605 2.91992 17.0703 6.38672ZM9.33594 6.20117L6.81641 8.61328C6.68945 8.75 6.61133 8.88672 6.61133 9.07227C6.61133 9.43359 6.875 9.6875 7.23633 9.6875C7.41211 9.6875 7.59766 9.61914 7.71484 9.48242L8.81836 8.28125L9.20898 7.87109L9.15039 9.0332L9.15039 12.8613C9.15039 13.2422 9.46289 13.5547 9.84375 13.5547C10.2246 13.5547 10.5371 13.2422 10.5371 12.8613L10.5371 9.0332L10.4883 7.87109L10.8691 8.28125L11.9727 9.48242C12.0898 9.61914 12.2754 9.6875 12.4414 9.6875C12.8027 9.6875 13.0762 9.43359 13.0762 9.07227C13.0762 8.88672 13.0078 8.75 12.8711 8.61328L10.3516 6.20117C10.1758 6.02539 10.0195 5.9668 9.84375 5.9668C9.66797 5.9668 9.51172 6.02539 9.33594 6.20117Z" fill="currentColor"/>
 </g>
</svg>
