<svg version="1.1" xmlns="http://www.w3.org/2000/svg" xmlns:xlink="http://www.w3.org/1999/xlink" width="14.5898" height="14.248" viewBox="0 0 14.5898 14.248">
 <g>
  <rect height="14.248" opacity="0" width="14.5898" x="0" y="0"/>
  <path d="M2.49023 14.248L11.7383 14.248C13.4082 14.248 14.2285 13.4277 14.2285 11.7871L14.2285 2.4707C14.2285 0.830078 13.4082 0.00976562 11.7383 0.00976562L2.49023 0.00976562C0.830078 0.00976562 0 0.830078 0 2.4707L0 11.7871C0 13.4277 0.830078 14.248 2.49023 14.248ZM2.50977 12.832C1.80664 12.832 1.40625 12.4609 1.40625 11.7188L1.40625 2.53906C1.40625 1.80664 1.80664 1.42578 2.50977 1.42578L11.7188 1.42578C12.4219 1.42578 12.8223 1.80664 12.8223 2.53906L12.8223 11.7188C12.8223 12.4609 12.4219 12.832 11.7188 12.832Z" fill="var(--color-primary)"/>
  <path d="M4.4043 9.94141L10.1758 9.94141C11.0645 9.94141 11.7969 9.20898 11.7969 8.31055C11.7969 7.55859 11.2988 6.92383 10.6348 6.72852C10.6348 6.66992 10.6348 6.61133 10.6348 6.5625C10.6348 5 9.375 3.7207 7.80273 3.7207C6.88477 3.7207 6.06445 4.16992 5.54688 4.84375C5.45898 4.83398 5.36133 4.82422 5.2832 4.82422C4.49219 4.82422 3.80859 5.40039 3.67188 6.17188C2.95898 6.47461 2.45117 7.16797 2.45117 7.99805C2.45117 9.30664 3.31055 9.94141 4.4043 9.94141Z" fill="var(--color-primary)"/>
 </g>
</svg>
