<svg version="1.1" xmlns="http://www.w3.org/2000/svg" xmlns:xlink="http://www.w3.org/1999/xlink" width="16.1328" height="15.7715" viewBox="0 0 16.1328 15.7715">
 <g>
  <rect height="15.7715" opacity="0" width="16.1328" x="0" y="0"/>
  <path d="M7.88086 15.7617C12.1875 15.7617 15.7715 12.1875 15.7715 7.88086C15.7715 3.57422 12.1777 0 7.87109 0C3.57422 0 0 3.57422 0 7.88086C0 12.1875 3.58398 15.7617 7.88086 15.7617Z" fill="var(--color-tertiary)"/>
  <path d="M8.80859 11.9434C8.61328 11.9434 8.4668 11.8945 8.27148 11.6992L5.45898 9.0625C5.29297 8.89648 5.13672 8.75 5.13672 8.44727C5.13672 8.06641 5.41016 7.83203 5.79102 7.83203L6.92383 7.83203C7.67578 7.83203 8.1543 7.53906 8.31055 6.96289L5.57617 6.96289C5.3418 6.96289 5.14648 6.76758 5.14648 6.52344C5.14648 6.26953 5.3418 6.09375 5.57617 6.09375L8.28125 6.09375C8.11523 5.55664 7.63672 5.26367 6.92383 5.26367L5.58594 5.26367C5.30273 5.26367 5.06836 5.00977 5.06836 4.72656C5.06836 4.43359 5.30273 4.19922 5.58594 4.19922L7.73438 4.19922C7.98828 4.19922 8.25195 4.19922 8.50586 4.19922L10.2344 4.19922C10.4883 4.19922 10.6641 4.375 10.6641 4.62891C10.6641 4.86328 10.4883 5.06836 10.2344 5.06836L9.0918 5.06836C9.32617 5.35156 9.46289 5.69336 9.53125 6.09375L10.2832 6.09375C10.5371 6.09375 10.7031 6.26953 10.7031 6.52344C10.7031 6.76758 10.5371 6.96289 10.2832 6.96289L9.51172 6.96289C9.3457 7.94922 8.57422 8.88672 7.02148 8.88672L6.88477 8.88672L9.11133 10.9668C9.22852 11.0938 9.3457 11.25 9.3457 11.4258C9.3457 11.7578 9.10156 11.9434 8.80859 11.9434Z" fill="var(--color-primary)"/>
 </g>
</svg>
