<svg version="1.1" xmlns="http://www.w3.org/2000/svg" xmlns:xlink="http://www.w3.org/1999/xlink" width="17.3828" height="17.1582" viewBox="0 0 17.3828 17.1582">
 <g>
  <rect height="17.1582" opacity="0" width="17.3828" x="0" y="0"/>
  <path d="M17.0215 4.70703L17.0215 10.3906C17.0215 12.7539 15.7617 14.043 13.3594 14.043L8.45703 14.043L5.69336 16.6016C5.2832 16.9824 5.04883 17.1582 4.70703 17.1582C4.21875 17.1582 3.93555 16.8066 3.93555 16.2793L3.93555 14.043L3.66211 14.043C1.25977 14.043 0 12.7539 0 10.3906L0 4.70703C0 2.34375 1.25977 1.04492 3.66211 1.04492L13.3594 1.04492C15.7617 1.04492 17.0215 2.34375 17.0215 4.70703ZM7.38281 6.26953C7.05078 6.26953 6.77734 6.5332 6.77734 6.85547C6.77734 7.19727 7.05078 7.44141 7.38281 7.44141L8.06641 7.44141L8.06641 10.5371L7.24609 10.5371C6.9043 10.5371 6.63086 10.8008 6.63086 11.123C6.63086 11.4648 6.9043 11.709 7.24609 11.709L10.2246 11.709C10.5664 11.709 10.8301 11.4648 10.8301 11.123C10.8301 10.8008 10.5664 10.5371 10.2246 10.5371L9.4043 10.5371L9.4043 7.03125C9.4043 6.57227 9.17969 6.26953 8.75 6.26953ZM7.38281 4.0625C7.38281 4.6582 7.8418 5.12695 8.4375 5.12695C9.02344 5.12695 9.48242 4.6582 9.48242 4.0625C9.48242 3.4668 9.02344 2.99805 8.4375 2.99805C7.8418 2.99805 7.38281 3.4668 7.38281 4.0625Z" fill="currentColor"/>
 </g>
</svg>
