<svg version="1.1" xmlns="http://www.w3.org/2000/svg" xmlns:xlink="http://www.w3.org/1999/xlink" width="6.72852" height="13.1152" viewBox="0 0 6.72852 13.1152">
 <g>
  <rect height="13.1152" opacity="0" width="6.72852" x="0" y="0"/>
  <path d="M0 11.2891C0 11.7188 0.3125 12.0117 0.771484 12.0117L5.5957 12.0117C6.05469 12.0117 6.36719 11.7188 6.36719 11.2891C6.36719 10.8691 6.05469 10.5859 5.5957 10.5859L4.16992 10.5859L4.16992 4.98047C4.16992 4.51172 3.85742 4.18945 3.39844 4.18945L0.947266 4.18945C0.488281 4.18945 0.175781 4.47266 0.175781 4.89258C0.175781 5.33203 0.488281 5.61523 0.947266 5.61523L2.53906 5.61523L2.53906 10.5859L0.771484 10.5859C0.3125 10.5859 0 10.8691 0 11.2891ZM1.88477 1.2207C1.88477 1.89453 2.41211 2.43164 3.08594 2.43164C3.76953 2.43164 4.29688 1.89453 4.29688 1.2207C4.28711 0.537109 3.76953 0 3.08594 0C2.41211 0 1.88477 0.537109 1.88477 1.2207Z" fill="currentColor"/>
 </g>
</svg>
