<?xml version="1.0" encoding="UTF-8"?>
<!--Generator: Apple Native CoreSVG 232.5-->
<!DOCTYPE svg
PUBLIC "-//W3C//DTD SVG 1.1//EN"
       "http://www.w3.org/Graphics/SVG/1.1/DTD/svg11.dtd">
<svg version="1.1" xmlns="http://www.w3.org/2000/svg" xmlns:xlink="http://www.w3.org/1999/xlink" width="17.3828" height="19.3652">
 <g>
  <rect height="19.3652" opacity="0" width="17.3828" x="0" y="0"/>
  <path d="M13.5892 2.41211L11.7363 2.41211C11.618 2.36711 11.481 2.34375 11.3281 2.34375L3.01758 2.34375C2.44141 2.34375 2.08984 2.67578 2.08984 3.21289L2.08984 16.1328C2.08984 16.6699 2.44141 17.002 3.01758 17.002L4.42268 17.002C4.49066 17.5475 4.70914 18.0267 5.03858 18.4082L2.83203 18.4082C1.57227 18.4082 0.683594 17.5684 0.683594 16.377L0.683594 2.97852C0.683594 1.77734 1.57227 0.9375 2.83203 0.9375L11.5137 0.9375C12.5719 0.9375 13.3587 1.52103 13.5892 2.41211Z" fill="#ffffff" fill-opacity="0.85"/>
  <path d="M5.35156 16.6113C5.35156 17.666 6.13281 18.4082 7.24609 18.4082L14.5312 18.4082C15.6445 18.4082 16.4258 17.666 16.4258 16.6113L16.4258 5.17578C16.4258 4.11133 15.6445 3.36914 14.5312 3.36914L7.24609 3.36914C6.13281 3.36914 5.35156 4.11133 5.35156 5.17578ZM6.75781 16.2305L6.75781 5.55664C6.75781 5.07812 7.07031 4.77539 7.57812 4.77539L14.209 4.77539C14.707 4.77539 15.0195 5.07812 15.0195 5.55664L15.0195 16.2305C15.0195 16.6992 14.707 17.002 14.209 17.002L7.57812 17.002C7.07031 17.002 6.75781 16.6992 6.75781 16.2305Z" fill="#ffffff" fill-opacity="0.85"/>
 </g>
</svg>
