<svg version="1.1" xmlns="http://www.w3.org/2000/svg" xmlns:xlink="http://www.w3.org/1999/xlink" width="16.4844" height="16.4941" viewBox="0 0 16.4844 16.4941">
 <g>
  <rect height="16.4941" opacity="0" width="16.4844" x="0" y="0"/>
  <path d="M4.39453 6.92764L4.39453 14.209C4.39453 14.7461 4.74609 15.0684 5.3125 15.0684L10.8105 15.0684C11.3721 15.0684 11.711 14.7623 11.7269 14.2489L12.9097 15.4298C12.567 16.0742 11.871 16.4746 10.9961 16.4746L5.12695 16.4746C3.86719 16.4746 2.98828 15.6445 2.98828 14.4531L2.98828 5.52352ZM10.1074 14.1016C10.1074 14.3359 9.94141 14.4922 9.7168 14.4922L6.41602 14.4922C6.19141 14.4922 6.03516 14.3359 6.03516 14.1016C6.03516 13.8672 6.19141 13.7109 6.41602 13.7109L9.7168 13.7109C9.94141 13.7109 10.1074 13.8672 10.1074 14.1016ZM13.1445 2.02148L13.1445 11.0566L11.7285 9.64165L11.7285 2.26562C11.7285 1.72852 11.3867 1.40625 10.8105 1.40625L5.3125 1.40625C4.74609 1.40625 4.39453 1.72852 4.39453 2.26562L4.39453 2.31323L3.18997 1.10959C3.51574 0.427037 4.22338 0 5.12695 0L10.9961 0C12.2559 0 13.1445 0.830078 13.1445 2.02148ZM9.59961 2.56836C9.59961 2.90039 9.33594 3.16406 9.01367 3.16406L7.11914 3.16406C6.78711 3.16406 6.52344 2.90039 6.52344 2.56836C6.52344 2.24609 6.78711 1.98242 7.11914 1.98242L9.01367 1.98242C9.33594 1.98242 9.59961 2.24609 9.59961 2.56836Z" fill="var(--color-secondary)"/>
  <path d="M14.0234 15.1855C14.2871 15.4492 14.7168 15.4492 14.9707 15.1855C15.2246 14.9219 15.2344 14.502 14.9707 14.2383L2.10938 1.38672C1.8457 1.12305 1.41602 1.12305 1.15234 1.38672C0.898438 1.64062 0.898438 2.08008 1.15234 2.33398Z" fill="var(--color-primary)"/>
 </g>
</svg>
