<svg version="1.1" xmlns="http://www.w3.org/2000/svg" xmlns:xlink="http://www.w3.org/1999/xlink" width="16.1328" height="15.7715" viewBox="0 0 16.1328 15.7715">
 <g>
  <rect height="15.7715" opacity="0" width="16.1328" x="0" y="0"/>
  <path d="M15.7715 7.89062C15.7715 12.1973 12.1875 15.7715 7.88086 15.7715C3.58398 15.7715 0 12.1973 0 7.89062C0 3.58398 3.57422 0.00976562 7.87109 0.00976562C12.1777 0.00976562 15.7715 3.58398 15.7715 7.89062ZM6.28906 3.38867C5.60547 3.38867 5.11719 3.84766 5.11719 4.50195L5.11719 11.2793C5.11719 11.9336 5.60547 12.3926 6.28906 12.3926L9.49219 12.3926C10.1855 12.3926 10.6641 11.9336 10.6641 11.2793L10.6641 4.50195C10.6641 3.84766 10.1855 3.38867 9.49219 3.38867ZM8.26172 11.5723C8.26172 11.7871 8.10547 11.9531 7.90039 11.9531C7.69531 11.9531 7.5293 11.7871 7.5293 11.5723C7.5293 11.377 7.69531 11.2012 7.90039 11.2012C8.10547 11.2012 8.26172 11.377 8.26172 11.5723ZM9.88281 10.918L5.89844 10.918L5.89844 4.86328L9.88281 4.86328ZM2.86133 5.55664C2.30469 6.18164 2.00195 7.01172 2.00195 7.89062C2.00195 8.76953 2.30469 9.59961 2.86133 10.2246C3.02734 10.3906 3.24219 10.3906 3.34961 10.2344C3.48633 10.0977 3.45703 9.92188 3.30078 9.74609C2.86133 9.24805 2.61719 8.59375 2.61719 7.89062C2.61719 7.1875 2.86133 6.5332 3.30078 6.03516C3.45703 5.85938 3.48633 5.68359 3.34961 5.54688C3.24219 5.39062 3.02734 5.39062 2.86133 5.55664ZM12.4414 5.54688C12.3145 5.68359 12.3438 5.85938 12.4902 6.03516C12.9395 6.5332 13.1738 7.1875 13.1738 7.89062C13.1738 8.59375 12.9395 9.24805 12.4902 9.74609C12.3438 9.92188 12.3145 10.0977 12.4414 10.2344C12.5488 10.3906 12.7734 10.3906 12.9297 10.2246C13.4961 9.59961 13.7988 8.76953 13.7988 7.89062C13.7988 7.01172 13.4961 6.18164 12.9297 5.55664C12.7734 5.39062 12.5488 5.39062 12.4414 5.54688ZM4.01367 6.54297C3.7207 6.91406 3.54492 7.38281 3.54492 7.89062C3.54492 8.39844 3.7207 8.86719 4.01367 9.23828C4.14062 9.41406 4.38477 9.42383 4.51172 9.26758C4.62891 9.12109 4.58008 8.96484 4.47266 8.7793C4.27734 8.52539 4.18945 8.22266 4.18945 7.89062C4.18945 7.55859 4.27734 7.23633 4.47266 7.00195C4.58008 6.81641 4.62891 6.66016 4.51172 6.51367C4.38477 6.35742 4.14062 6.36719 4.01367 6.54297ZM11.2793 6.51367C11.1621 6.66016 11.2109 6.81641 11.3281 7.00195C11.5137 7.23633 11.6113 7.55859 11.6113 7.89062C11.6113 8.22266 11.5137 8.52539 11.3281 8.7793C11.2109 8.96484 11.1621 9.12109 11.2793 9.26758C11.416 9.42383 11.6504 9.41406 11.7871 9.23828C12.0703 8.86719 12.2461 8.39844 12.2461 7.89062C12.2461 7.38281 12.0703 6.91406 11.7871 6.54297C11.6504 6.36719 11.416 6.35742 11.2793 6.51367ZM8.73047 4.16016C8.73047 4.26758 8.66211 4.32617 8.56445 4.32617L7.2168 4.32617C7.12891 4.32617 7.06055 4.26758 7.06055 4.16016C7.06055 4.05273 7.12891 3.98438 7.2168 3.98438L8.56445 3.98438C8.66211 3.98438 8.73047 4.05273 8.73047 4.16016Z" fill="currentColor"/>
 </g>
</svg>
