<svg version="1.1" xmlns="http://www.w3.org/2000/svg" xmlns:xlink="http://www.w3.org/1999/xlink" width="16.1328" height="15.7715" viewBox="0 0 16.1328 15.7715">
 <g>
  <rect height="15.7715" opacity="0" width="16.1328" x="0" y="0"/>
  <path d="M7.88086 15.7715C12.1875 15.7715 15.7715 12.1973 15.7715 7.89062C15.7715 3.58398 12.1777 0.00976562 7.87109 0.00976562C3.57422 0.00976562 0 3.58398 0 7.89062C0 12.1973 3.58398 15.7715 7.88086 15.7715Z" fill="var(--color-tertiary)"/>
  <path d="M5.68359 7.07715L5.68359 11.2207L9.83253 11.2207L10.8098 12.1967C10.611 12.601 10.1887 12.8516 9.64844 12.8516L6.12305 12.8516C5.36133 12.8516 4.83398 12.3535 4.83398 11.6309L4.83398 6.22864ZM7.4707 11.9531C7.4707 12.1875 7.66602 12.373 7.89062 12.373C8.11523 12.373 8.30078 12.1875 8.30078 11.9531C8.30078 11.7285 8.11523 11.5332 7.89062 11.5332C7.66602 11.5332 7.4707 11.7285 7.4707 11.9531ZM4.41406 3.85742L11.9238 11.377C12.0801 11.5234 12.0801 11.7676 11.9238 11.9238C11.7773 12.0703 11.5234 12.0703 11.377 11.9238L3.84766 4.4043C3.71094 4.26758 3.71094 4.00391 3.84766 3.85742C4.01367 3.70117 4.25781 3.70117 4.41406 3.85742ZM10.9375 4.15039L10.9375 9.53493L10.0879 8.68753L10.0879 4.56055L5.95016 4.56055L4.96489 3.57783C5.16508 3.17748 5.58576 2.92969 6.12305 2.92969L9.64844 2.92969C10.4102 2.92969 10.9375 3.42773 10.9375 4.15039ZM7.13867 3.58398C7.04102 3.58398 6.95312 3.65234 6.95312 3.7793C6.95312 3.88672 7.04102 3.96484 7.13867 3.96484L8.62305 3.96484C8.73047 3.96484 8.81836 3.88672 8.81836 3.7793C8.81836 3.65234 8.73047 3.58398 8.62305 3.58398Z" fill="var(--color-primary)"/>
 </g>
</svg>
