<?xml version="1.0" encoding="UTF-8"?>
<!--Generator: Apple Native CoreSVG 232.5-->
<!DOCTYPE svg
PUBLIC "-//W3C//DTD SVG 1.1//EN"
       "http://www.w3.org/Graphics/SVG/1.1/DTD/svg11.dtd">
<svg version="1.1" xmlns="http://www.w3.org/2000/svg" xmlns:xlink="http://www.w3.org/1999/xlink" width="16.1328" height="15.7715">
 <g>
  <rect height="15.7715" opacity="0" width="16.1328" x="0" y="0"/>
  <path d="M15.7715 7.89062C15.7715 12.1973 12.1875 15.7715 7.88086 15.7715C3.58398 15.7715 0 12.1973 0 7.89062C0 3.58398 3.57422 0.00976562 7.87109 0.00976562C12.1777 0.00976562 15.7715 3.58398 15.7715 7.89062ZM6.12305 2.92969C5.36133 2.92969 4.83398 3.42773 4.83398 4.15039L4.83398 11.6309C4.83398 12.3535 5.36133 12.8516 6.12305 12.8516L9.64844 12.8516C10.4102 12.8516 10.9375 12.3535 10.9375 11.6309L10.9375 4.15039C10.9375 3.42773 10.4102 2.92969 9.64844 2.92969ZM8.30078 11.9531C8.30078 12.1875 8.11523 12.373 7.89062 12.373C7.66602 12.373 7.4707 12.1875 7.4707 11.9531C7.4707 11.7285 7.66602 11.5332 7.89062 11.5332C8.11523 11.5332 8.30078 11.7285 8.30078 11.9531ZM10.0879 11.2207L5.68359 11.2207L5.68359 4.56055L10.0879 4.56055ZM8.81836 3.7793C8.81836 3.88672 8.73047 3.96484 8.62305 3.96484L7.13867 3.96484C7.04102 3.96484 6.95312 3.88672 6.95312 3.7793C6.95312 3.65234 7.04102 3.58398 7.13867 3.58398L8.62305 3.58398C8.73047 3.58398 8.81836 3.65234 8.81836 3.7793Z" fill="#ffffff" fill-opacity="0.85"/>
 </g>
</svg>
