<svg version="1.1" xmlns="http://www.w3.org/2000/svg" xmlns:xlink="http://www.w3.org/1999/xlink" width="14.0137" height="10.6738" viewBox="0 0 14.0137 10.6738">
 <g>
  <rect height="10.6738" opacity="0" width="14.0137" x="0" y="0"/>
  <path d="M0 8.74023C0 9.91211 0.732422 10.6738 1.82617 10.6738L11.8262 10.6738C12.9199 10.6738 13.6523 9.91211 13.6523 8.74023L13.6523 1.93359C13.6523 0.761719 12.9199 0 11.8262 0L1.82617 0C0.732422 0 0 0.761719 0 1.93359ZM1.40625 8.55469L1.40625 2.11914C1.40625 1.67969 1.66992 1.40625 2.06055 1.40625L11.582 1.40625C11.9824 1.40625 12.2461 1.67969 12.2461 2.11914L12.2461 8.55469C12.2461 8.99414 11.9824 9.26758 11.582 9.26758L2.06055 9.26758C1.66992 9.26758 1.40625 8.99414 1.40625 8.55469ZM8.1543 8.41797C9.85352 8.41797 11.2402 7.04102 11.2402 5.33203C11.2402 3.62305 9.85352 2.24609 8.1543 2.24609C6.44531 2.24609 5.05859 3.62305 5.05859 5.33203C5.05859 7.04102 6.44531 8.41797 8.1543 8.41797ZM8.1543 7.31445C7.04102 7.31445 6.16211 6.44531 6.16211 5.33203C6.16211 4.21875 7.04102 3.34961 8.1543 3.34961C9.25781 3.34961 10.1367 4.21875 10.1367 5.33203C10.1367 6.44531 9.25781 7.31445 8.1543 7.31445Z" fill="var(--color-primary)"/>
 </g>
</svg>
