<svg version="1.1" xmlns="http://www.w3.org/2000/svg" xmlns:xlink="http://www.w3.org/1999/xlink" width="16.1328" height="15.7715" viewBox="0 0 16.1328 15.7715">
 <g>
  <rect height="15.7715" opacity="0" width="16.1328" x="0" y="0"/>
  <path d="M7.88086 15.7617C12.1875 15.7617 15.7715 12.1875 15.7715 7.88086C15.7715 3.57422 12.1777 0 7.87109 0C3.57422 0 0 3.57422 0 7.88086C0 12.1875 3.58398 15.7617 7.88086 15.7617ZM7.88086 14.2773C4.33594 14.2773 1.50391 11.4355 1.50391 7.88086C1.50391 4.32617 4.32617 1.48438 7.87109 1.48438C11.4258 1.48438 14.2773 4.32617 14.2773 7.88086C14.2773 11.4355 11.4355 14.2773 7.88086 14.2773Z" fill="currentColor"/>
  <path d="M7.48047 11.4941C9.07227 11.4941 9.90234 10.6836 9.90234 9.16992L9.90234 4.9707C9.90234 4.48242 9.6582 4.18945 9.19922 4.18945C8.74023 4.18945 8.50586 4.50195 8.50586 4.9707L8.50586 9.15039C8.50586 9.88281 8.14453 10.3125 7.55859 10.3125C7.03125 10.3125 6.69922 10.0684 6.48438 9.61914C6.32812 9.29688 6.14258 9.16016 5.84961 9.16016C5.46875 9.16016 5.20508 9.42383 5.20508 9.80469C5.20508 9.94141 5.22461 10.0684 5.27344 10.1953C5.56641 10.9863 6.41602 11.4941 7.48047 11.4941Z" fill="currentColor"/>
 </g>
</svg>
