<?xml version="1.0" encoding="UTF-8"?>
<!--Generator: Apple Native CoreSVG 232.5-->
<!DOCTYPE svg
PUBLIC "-//W3C//DTD SVG 1.1//EN"
       "http://www.w3.org/Graphics/SVG/1.1/DTD/svg11.dtd">
<svg version="1.1" xmlns="http://www.w3.org/2000/svg" xmlns:xlink="http://www.w3.org/1999/xlink" width="10.8203" height="19.3848">
 <g>
  <rect height="19.3848" opacity="0" width="10.8203" x="0" y="0"/>
  <path d="M4.61914 19.0332C4.98047 19.3457 5.48828 19.3945 5.83984 19.043L8.20312 16.6797C8.54492 16.3379 8.52539 15.8008 8.19336 15.4688L7.08984 14.3652L8.74023 12.7148C9.07227 12.3828 9.0625 11.8457 8.73047 11.5039L7.24609 10.0098C9.29688 8.97461 10.459 7.24609 10.459 5.21484C10.459 2.32422 8.11523 0 5.22461 0C2.32422 0 0 2.31445 0 5.21484C0 7.27539 1.17188 9.13086 3.03711 9.98047L3.03711 17.1582C3.03711 17.4414 3.125 17.7637 3.36914 17.9688ZM5.22461 17.666L4.44336 16.8848L4.44336 8.97461C2.64648 8.58398 1.39648 7.04102 1.39648 5.21484C1.39648 3.10547 3.10547 1.40625 5.22461 1.40625C7.34375 1.40625 9.04297 3.10547 9.04297 5.21484C9.04297 7.02148 7.7832 8.58398 5.97656 8.98438L5.97656 10.752L7.34375 12.1191L5.81055 13.6328L5.81055 15.0781L6.80664 16.0645ZM5.22461 5.0293C5.92773 5.0293 6.49414 4.46289 6.49414 3.75977C6.49414 3.06641 5.92773 2.5 5.22461 2.5C4.52148 2.5 3.96484 3.06641 3.96484 3.75977C3.96484 4.46289 4.53125 5.0293 5.22461 5.0293Z" fill="#ffffff" fill-opacity="0.85"/>
 </g>
</svg>
