<svg version="1.1" xmlns="http://www.w3.org/2000/svg" xmlns:xlink="http://www.w3.org/1999/xlink" width="19.6494" height="10.459" viewBox="0 0 19.6494 10.459">
 <g>
  <rect height="10.459" opacity="0" width="19.6494" x="0" y="0"/>
  <path d="M0.254389 4.61914C-0.0581105 4.98047-0.106939 5.48828 0.244624 5.83008L2.60791 8.19336C2.9497 8.54492 3.48681 8.52539 3.82861 8.18359L4.92236 7.08984L6.57275 8.73047C6.90478 9.07227 7.44189 9.0625 7.79345 8.7207L9.27783 7.24609C10.313 9.28711 12.0415 10.4492 14.0727 10.4492C16.9634 10.4492 19.2876 8.11523 19.2876 5.22461C19.2876 2.32422 16.9731 0 14.0727 0C12.0122 0 10.1665 1.17188 9.31689 3.03711L2.12939 3.03711C1.84619 3.03711 1.52392 3.11523 1.31884 3.36914ZM1.62158 5.22461L2.40283 4.44336L10.3227 4.44336C10.7036 2.64648 12.2466 1.39648 14.0727 1.39648C16.1821 1.39648 17.8813 3.10547 17.8813 5.22461C17.8813 7.34375 16.1821 9.04297 14.0727 9.04297C12.2661 9.04297 10.7036 7.7832 10.3032 5.97656L8.53564 5.97656L7.16845 7.34375L5.65478 5.81055L4.20947 5.81055L3.22314 6.80664ZM14.2583 5.22461C14.2583 5.92773 14.8247 6.49414 15.5278 6.49414C16.2212 6.49414 16.7876 5.92773 16.7876 5.22461C16.7876 4.51172 16.2212 3.96484 15.5278 3.96484C14.8247 3.96484 14.2583 4.52148 14.2583 5.22461Z" fill="currentColor"/>
 </g>
</svg>
