<svg version="1.1" xmlns="http://www.w3.org/2000/svg" xmlns:xlink="http://www.w3.org/1999/xlink" width="25.3467" height="12.2363" viewBox="0 0 25.3467 12.2363">
 <g>
  <rect height="12.2363" opacity="0" width="25.3467" x="0" y="0"/>
  <path d="M8.06885 12.2266L22.4829 12.2266C24.1431 12.2266 24.9829 11.4062 24.9829 9.76562L24.9829 2.45117C24.9829 0.820312 24.1431 0 22.4829 0L8.06885 0C6.39893 0 5.56885 0.810547 5.56885 2.45117L5.56885 9.76562C5.56885 11.4062 6.39893 12.2266 8.06885 12.2266ZM8.5083 4.29688C8.28369 4.29688 8.14697 4.16016 8.14697 3.93555L8.14697 3.17383C8.14697 2.95898 8.28369 2.8125 8.5083 2.8125L9.26025 2.8125C9.48486 2.8125 9.63135 2.95898 9.63135 3.17383L9.63135 3.93555C9.63135 4.16016 9.48486 4.29688 9.26025 4.29688ZM11.0571 4.29688C10.8325 4.29688 10.6958 4.16016 10.6958 3.93555L10.6958 3.17383C10.6958 2.95898 10.8325 2.8125 11.0571 2.8125L11.8188 2.8125C12.0435 2.8125 12.1899 2.95898 12.1899 3.17383L12.1899 3.93555C12.1899 4.16016 12.0435 4.29688 11.8188 4.29688ZM13.6157 4.29688C13.4009 4.29688 13.2544 4.16016 13.2544 3.93555L13.2544 3.17383C13.2544 2.95898 13.4009 2.8125 13.6157 2.8125L14.3677 2.8125C14.5923 2.8125 14.7388 2.95898 14.7388 3.17383L14.7388 3.93555C14.7388 4.16016 14.5923 4.29688 14.3677 4.29688ZM16.1743 4.29688C15.9497 4.29688 15.8032 4.16016 15.8032 3.93555L15.8032 3.17383C15.8032 2.95898 15.9497 2.8125 16.1743 2.8125L16.936 2.8125C17.1509 2.8125 17.2876 2.95898 17.2876 3.17383L17.2876 3.93555C17.2876 4.16016 17.1509 4.29688 16.936 4.29688ZM18.7231 4.29688C18.5083 4.29688 18.3618 4.16016 18.3618 3.93555L18.3618 3.17383C18.3618 2.95898 18.5083 2.8125 18.7231 2.8125L19.4849 2.8125C19.7095 2.8125 19.8462 2.95898 19.8462 3.17383L19.8462 3.93555C19.8462 4.16016 19.7095 4.29688 19.4849 4.29688ZM21.2817 4.29688C21.0571 4.29688 20.9106 4.16016 20.9106 3.93555L20.9106 3.17383C20.9106 2.95898 21.0571 2.8125 21.2817 2.8125L22.0435 2.8125C22.2681 2.8125 22.395 2.95898 22.395 3.17383L22.395 3.93555C22.395 4.16016 22.2681 4.29688 22.0435 4.29688ZM8.5083 6.85547C8.28369 6.85547 8.14697 6.70898 8.14697 6.49414L8.14697 5.72266C8.14697 5.50781 8.28369 5.37109 8.5083 5.37109L9.26025 5.37109C9.48486 5.37109 9.63135 5.50781 9.63135 5.72266L9.63135 6.49414C9.63135 6.70898 9.48486 6.85547 9.26025 6.85547ZM11.0571 6.85547C10.8325 6.85547 10.6958 6.70898 10.6958 6.49414L10.6958 5.72266C10.6958 5.50781 10.8325 5.37109 11.0571 5.37109L11.8188 5.37109C12.0435 5.37109 12.1899 5.50781 12.1899 5.72266L12.1899 6.49414C12.1899 6.70898 12.0435 6.85547 11.8188 6.85547ZM13.6157 6.85547C13.4009 6.85547 13.2544 6.70898 13.2544 6.49414L13.2544 5.72266C13.2544 5.50781 13.4009 5.37109 13.6157 5.37109L14.3677 5.37109C14.5923 5.37109 14.7388 5.50781 14.7388 5.72266L14.7388 6.49414C14.7388 6.70898 14.5923 6.85547 14.3677 6.85547ZM16.1743 6.85547C15.9497 6.85547 15.8032 6.70898 15.8032 6.49414L15.8032 5.72266C15.8032 5.50781 15.9497 5.37109 16.1743 5.37109L16.936 5.37109C17.1509 5.37109 17.2876 5.50781 17.2876 5.72266L17.2876 6.49414C17.2876 6.70898 17.1509 6.85547 16.936 6.85547ZM18.7231 6.85547C18.5083 6.85547 18.3618 6.70898 18.3618 6.49414L18.3618 5.72266C18.3618 5.50781 18.5083 5.37109 18.7231 5.37109L19.4849 5.37109C19.7095 5.37109 19.8462 5.50781 19.8462 5.72266L19.8462 6.49414C19.8462 6.70898 19.7095 6.85547 19.4849 6.85547ZM21.2817 6.85547C21.0571 6.85547 20.9106 6.70898 20.9106 6.49414L20.9106 5.72266C20.9106 5.50781 21.0571 5.37109 21.2817 5.37109L22.0435 5.37109C22.2681 5.37109 22.395 5.50781 22.395 5.72266L22.395 6.49414C22.395 6.70898 22.2681 6.85547 22.0435 6.85547ZM8.5083 9.4043C8.28369 9.4043 8.14697 9.26758 8.14697 9.05273L8.14697 8.29102C8.14697 8.06641 8.28369 7.91992 8.5083 7.91992L9.26025 7.91992C9.48486 7.91992 9.63135 8.06641 9.63135 8.29102L9.63135 9.05273C9.63135 9.26758 9.48486 9.4043 9.26025 9.4043ZM11.1548 9.4043C10.8716 9.4043 10.6958 9.23828 10.6958 8.94531L10.6958 8.37891C10.6958 8.0957 10.8716 7.91992 11.1548 7.91992L19.3872 7.91992C19.6704 7.91992 19.8462 8.0957 19.8462 8.37891L19.8462 8.94531C19.8462 9.23828 19.6704 9.4043 19.3872 9.4043ZM21.2817 9.4043C21.0571 9.4043 20.9106 9.26758 20.9106 9.05273L20.9106 8.29102C20.9106 8.06641 21.0571 7.91992 21.2817 7.91992L22.0435 7.91992C22.2681 7.91992 22.395 8.06641 22.395 8.29102L22.395 9.05273C22.395 9.26758 22.2681 9.4043 22.0435 9.4043Z" fill="currentColor"/>
  <path d="M2.41455 9.77539C3.05908 10.6543 4.12354 9.82422 3.61572 9.11133L1.46729 6.10352L3.61572 3.11523C4.12354 2.40234 3.05908 1.5625 2.41455 2.44141L0.197754 5.51758C-0.065918 5.87891-0.065918 6.33789 0.197754 6.69922Z" fill="currentColor"/>
 </g>
</svg>
