<svg version="1.1" xmlns="http://www.w3.org/2000/svg" xmlns:xlink="http://www.w3.org/1999/xlink" width="18.4277" height="15.2637" viewBox="0 0 18.4277 15.2637">
 <g>
  <rect height="15.2637" opacity="0" width="18.4277" x="0" y="0"/>
  <path d="M12.0117 12.8418C12.0117 14.3652 10.8984 15.2637 9.0332 15.2637C7.1582 15.2637 6.05469 14.3652 6.05469 12.8418L6.05469 12.4847C6.96137 12.6733 7.95837 12.7734 9.0332 12.7734C10.108 12.7734 11.105 12.6733 12.0117 12.4847Z" fill="var(--color-primary)"/>
  <path d="M16.9238 6.66992C16.9238 9.41406 13.9648 11.6309 9.0332 11.6309C4.10156 11.6309 1.14258 9.41406 1.14258 6.66992C1.14258 3.91602 4.10156 1.69922 9.02344 1.69922C13.9648 1.69922 16.9238 3.91602 16.9238 6.66992ZM7.35352 4.59961L7.35352 8.4375C7.35352 8.87695 7.61719 9.17969 8.02734 9.17969L10.4395 9.17969C10.791 9.17969 11.0352 8.93555 11.0352 8.59375C11.0352 8.26172 10.791 8.02734 10.4395 8.02734L8.70117 8.02734L8.70117 4.59961C8.70117 4.15039 8.4375 3.86719 8.02734 3.86719C7.62695 3.86719 7.35352 4.16016 7.35352 4.59961Z" fill="var(--color-primary)"/>
 </g>
</svg>
