<svg version="1.1" xmlns="http://www.w3.org/2000/svg" xmlns:xlink="http://www.w3.org/1999/xlink" width="18.2715" height="13.5645" viewBox="0 0 18.2715 13.5645">
 <g>
  <rect height="13.5645" opacity="0" width="18.2715" x="0" y="0"/>
  <path d="M6.61133 13.5547L11.2988 13.5547C15.8301 13.5547 17.9102 11.4844 17.9102 7.1875L17.9102 2.41211C17.9102 0.810547 17.0801 0 15.459 0L2.45117 0C0.820312 0 0 0.810547 0 2.41211L0 7.1875C0 11.4844 2.08008 13.5547 6.61133 13.5547ZM6.61133 12.1387C3.02734 12.1387 1.40625 10.6152 1.40625 7.28516L1.40625 2.49023C1.40625 1.76758 1.78711 1.41602 2.48047 1.41602L15.4297 1.41602C16.1133 1.41602 16.4941 1.76758 16.4941 2.49023L16.4941 7.28516C16.4941 10.6152 14.8828 12.1387 11.2988 12.1387Z" fill="currentColor"/>
  <path d="M6.51367 9.88281L8.68164 9.88281C8.96484 9.88281 9.19922 9.64844 9.19922 9.36523C9.19922 9.08203 8.96484 8.84766 8.68164 8.84766L7.14844 8.84766L7.14844 4.21875C7.14844 3.87695 6.86523 3.59375 6.52344 3.59375C6.18164 3.59375 5.89844 3.87695 5.89844 4.21875L5.89844 9.22852C5.89844 9.63867 6.11328 9.88281 6.51367 9.88281ZM11.3184 9.96094C11.6602 9.96094 11.9434 9.67773 11.9434 9.32617L11.9434 4.28711C11.9434 3.82812 11.6699 3.57422 11.2109 3.57422C10.8594 3.57422 10.5664 3.7793 10.3613 3.92578L9.58008 4.53125C9.42383 4.64844 9.30664 4.81445 9.30664 5.03906C9.30664 5.30273 9.48242 5.48828 9.73633 5.48828C9.87305 5.48828 9.95117 5.44922 10.0391 5.38086L10.6836 4.86328L10.6836 9.32617C10.6836 9.67773 10.9668 9.96094 11.3184 9.96094Z" fill="currentColor"/>
 </g>
</svg>
