<?xml version="1.0" encoding="UTF-8"?>
<!--Generator: Apple Native CoreSVG 232.5-->
<!DOCTYPE svg
PUBLIC "-//W3C//DTD SVG 1.1//EN"
       "http://www.w3.org/Graphics/SVG/1.1/DTD/svg11.dtd">
<svg version="1.1" xmlns="http://www.w3.org/2000/svg" xmlns:xlink="http://www.w3.org/1999/xlink" width="18.6621" height="13.9551">
 <g>
  <rect height="13.9551" opacity="0" width="18.6621" x="0" y="0"/>
  <path d="M6.2207 13.9453L12.0801 13.9453C16.6113 13.9453 18.3008 12.2656 18.3008 8.06641L18.3008 5.87891C18.3008 1.67969 16.6113 0 12.0801 0L6.2207 0C1.68945 0 0 1.67969 0 5.87891L0 8.06641C0 12.2656 1.68945 13.9453 6.2207 13.9453ZM6.2207 12.5293C2.63672 12.5293 1.40625 11.3965 1.40625 8.06641L1.40625 5.87891C1.40625 2.54883 2.63672 1.41602 6.2207 1.41602L12.0801 1.41602C15.6641 1.41602 16.8848 2.54883 16.8848 5.87891L16.8848 8.06641C16.8848 11.3965 15.6641 12.5293 12.0801 12.5293Z" fill="#ffffff" fill-opacity="0.55"/>
  <path d="M5.85938 10.0781L8.02734 10.0781C8.31055 10.0781 8.55469 9.84375 8.55469 9.56055C8.55469 9.27734 8.31055 9.0332 8.02734 9.0332L6.49414 9.0332L6.49414 4.41406C6.49414 4.07227 6.21094 3.78906 5.86914 3.78906C5.53711 3.78906 5.25391 4.07227 5.25391 4.41406L5.25391 9.42383C5.25391 9.83398 5.46875 10.0781 5.85938 10.0781ZM12.041 10.1758C12.3633 10.1758 12.627 9.98047 12.627 9.56055L12.627 8.91602L12.8516 8.91602C13.1738 8.91602 13.3301 8.70117 13.3301 8.41797C13.3301 8.14453 13.1934 7.91992 12.8516 7.91992L12.627 7.91992L12.627 4.70703C12.627 4.12109 12.2461 3.78906 11.6699 3.78906C11.0645 3.78906 10.7812 4.0918 10.5469 4.61914L9.29688 7.41211C9.16016 7.74414 9.11133 7.95898 9.11133 8.22266C9.11133 8.63281 9.39453 8.91602 9.80469 8.91602L11.4453 8.91602L11.4453 9.56055C11.4453 10.0195 11.7773 10.1758 12.041 10.1758ZM11.4746 7.94922L10.1562 7.94922L10.1562 7.89062L11.4453 4.83398L11.4746 4.83398Z" fill="#ffffff" fill-opacity="0.85"/>
 </g>
</svg>
