<svg version="1.1" xmlns="http://www.w3.org/2000/svg" xmlns:xlink="http://www.w3.org/1999/xlink" width="14.5898" height="11.5723" viewBox="0 0 14.5898 11.5723">
 <g>
  <rect height="11.5723" opacity="0" width="14.5898" x="0" y="0"/>
  <path d="M0 10.8691C0 11.25 0.322266 11.5723 0.703125 11.5723C1.09375 11.5723 1.40625 11.25 1.40625 10.8691L1.40625 0.722656C1.40625 0.332031 1.09375 0.00976562 0.703125 0.00976562C0.322266 0.00976562 0 0.332031 0 0.722656ZM12.8223 10.8691C12.8223 11.25 13.1445 11.5723 13.5254 11.5723C13.916 11.5723 14.2285 11.25 14.2285 10.8691L14.2285 0.722656C14.2285 0.332031 13.916 0.00976562 13.5254 0.00976562C13.1445 0.00976562 12.8223 0.332031 12.8223 0.722656Z" fill="currentColor"/>
 </g>
</svg>
