<svg version="1.1" xmlns="http://www.w3.org/2000/svg" xmlns:xlink="http://www.w3.org/1999/xlink" width="14.5898" height="14.248" viewBox="0 0 14.5898 14.248">
 <g>
  <rect height="14.248" opacity="0" width="14.5898" x="0" y="0"/>
  <path d="M2.49023 14.248L11.7383 14.248C13.4082 14.248 14.2285 13.4277 14.2285 11.7871L14.2285 2.4707C14.2285 0.830078 13.4082 0.00976562 11.7383 0.00976562L2.49023 0.00976562C0.830078 0.00976562 0 0.830078 0 2.4707L0 11.7871C0 13.4277 0.830078 14.248 2.49023 14.248Z" fill="var(--color-tertiary)"/>
  <path d="M4.38477 10.9668C4.08203 10.9668 3.88672 10.7715 3.88672 10.4688C3.88672 10.1855 4.10156 9.9707 4.39453 9.9707L5.47852 9.9707C4.51172 9.31641 3.91602 8.14453 3.91602 6.78711C3.91602 5.20508 4.67773 4.00391 5.97656 3.52539L5.97656 2.89062C5.97656 2.63672 6.15234 2.46094 6.39648 2.46094C6.65039 2.46094 6.82617 2.63672 6.82617 2.89062L6.82617 3.35938C6.96289 3.34961 7.10938 3.33984 7.23633 3.33984C7.33398 3.33984 7.44141 3.33984 7.53906 3.34961L7.53906 2.89062C7.53906 2.63672 7.70508 2.46094 7.95898 2.46094C8.20312 2.46094 8.37891 2.63672 8.37891 2.89062L8.37891 3.54492C9.57031 4.02344 10.3516 5.24414 10.3516 6.64062C10.3516 6.98242 10.127 7.22656 9.81445 7.22656C9.48242 7.22656 9.25781 6.98242 9.24805 6.63086C9.23828 5.80078 8.90625 5.14648 8.37891 4.75586L8.37891 6.68945C8.37891 6.93359 8.20312 7.11914 7.95898 7.11914C7.70508 7.11914 7.53906 6.93359 7.53906 6.68945L7.53906 4.42383C7.45117 4.41406 7.34375 4.4043 7.22656 4.4043C7.10938 4.4043 6.96289 4.41406 6.82617 4.43359L6.82617 6.68945C6.82617 6.93359 6.65039 7.11914 6.39648 7.11914C6.15234 7.11914 5.97656 6.93359 5.97656 6.68945L5.97656 4.73633C5.38086 5.14648 5.05859 5.88867 5.05859 6.93359C5.05859 8.66211 6.41602 9.9707 8.18359 9.9707L9.36523 9.9707C9.6582 9.9707 9.87305 10.1855 9.87305 10.4688C9.87305 10.7617 9.66797 10.9668 9.36523 10.9668Z" fill="var(--color-primary)"/>
 </g>
</svg>
