<svg version="1.1" xmlns="http://www.w3.org/2000/svg" xmlns:xlink="http://www.w3.org/1999/xlink" width="16.3379" height="17.373" viewBox="0 0 16.3379 17.373">
 <g>
  <rect height="17.373" opacity="0" width="16.3379" x="0" y="0"/>
  <path d="M0 8.68164C0 12.2363 3.07617 14.3066 6.91406 14.3066C7.26562 14.3066 7.62695 14.2871 7.97852 14.2578L7.67578 12.9785C7.45117 12.9883 7.22656 12.998 7.02148 12.998C3.90625 12.998 1.31836 11.5527 1.31836 8.69141C1.31836 5.39062 5.11719 3.06641 8.75977 3.06641C11.9238 3.06641 14.6582 5.03906 14.6582 8.01758C14.6582 10.7812 11.6895 13.1445 8.88672 13.1445C8.35938 13.1445 7.99805 12.9395 7.99805 12.6074C7.99805 12.002 8.79883 11.6016 9.94141 11.6016C11.2305 11.6016 12.1973 12.5391 12.1973 13.8281C12.1973 14.707 11.7285 15.5566 10.9375 16.0938C10.6836 16.2695 10.498 16.4648 10.498 16.7676C10.498 17.0996 10.752 17.373 11.1719 17.373C11.3574 17.373 11.4746 17.3242 11.6406 17.2168C12.8027 16.4258 13.5156 15.1465 13.5156 13.8184C13.5156 11.7773 11.8848 10.2734 9.83398 10.2734C7.95898 10.2734 6.66992 11.2305 6.66992 12.6562C6.66992 13.7305 7.55859 14.4531 8.88672 14.4531C12.4023 14.4531 15.9766 11.5332 15.9766 8.02734C15.9766 4.32617 12.6855 1.74805 8.75 1.74805C4.44336 1.74805 0 4.57031 0 8.68164Z" fill="currentColor"/>
 </g>
</svg>
