<svg version="1.1" xmlns="http://www.w3.org/2000/svg" xmlns:xlink="http://www.w3.org/1999/xlink" width="18.3008" height="14.9902" viewBox="0 0 18.3008 14.9902">
 <g>
  <rect height="14.9902" opacity="0" width="18.3008" x="0" y="0"/>
  <path d="M0 7.85156L0 6.5332L3.33008 6.5332L3.33008 6.37695C3.33008 5.82031 3.65234 5.50781 4.20898 5.50781L6.06445 5.50781C6.62109 5.50781 6.94336 5.82031 6.94336 6.37695L6.94336 6.5332L10.9961 6.5332L10.9961 6.37695C10.9961 5.82031 11.3184 5.50781 11.875 5.50781L13.7305 5.50781C14.2871 5.50781 14.5996 5.82031 14.5996 6.37695L14.5996 6.5332L17.9395 6.5332L17.9395 7.85156L14.5996 7.85156L14.5996 8.01758C14.5996 8.58398 14.2871 8.88672 13.7305 8.88672L11.875 8.88672C11.3184 8.88672 10.9961 8.58398 10.9961 8.01758L10.9961 7.85156L6.94336 7.85156L6.94336 8.01758C6.94336 8.58398 6.62109 8.88672 6.06445 8.88672L4.20898 8.88672C3.65234 8.88672 3.33008 8.58398 3.33008 8.01758L3.33008 7.85156ZM2.48047 14.9805L15.4492 14.9805C17.1191 14.9805 17.9395 14.1797 17.9395 12.5391L17.9395 5.15625C17.9395 3.51562 17.1191 2.71484 15.4492 2.71484L2.48047 2.71484C0.830078 2.71484 0 3.51562 0 5.15625L0 12.5391C0 14.1797 0.830078 14.9805 2.48047 14.9805ZM5.01953 3.4668L6.36719 3.4668L6.36719 2.1582C6.36719 1.5918 6.69922 1.26953 7.26562 1.26953L10.6641 1.26953C11.2402 1.26953 11.5625 1.5918 11.5625 2.1582L11.5625 3.44727L12.9199 3.44727L12.9199 2.26562C12.9199 0.703125 12.1191 0 10.6445 0L7.28516 0C5.9082 0 5.01953 0.703125 5.01953 2.26562Z" fill="var(--color-primary)"/>
 </g>
</svg>
