<?xml version="1.0" encoding="UTF-8"?>
<!--Generator: Apple Native CoreSVG 232.5-->
<!DOCTYPE svg
PUBLIC "-//W3C//DTD SVG 1.1//EN"
       "http://www.w3.org/Graphics/SVG/1.1/DTD/svg11.dtd">
<svg version="1.1" xmlns="http://www.w3.org/2000/svg" xmlns:xlink="http://www.w3.org/1999/xlink" width="16.1328" height="15.7715">
 <g>
  <rect height="15.7715" opacity="0" width="16.1328" x="0" y="0"/>
  <path d="M15.7715 7.88086C15.7715 12.1875 12.1875 15.7617 7.88086 15.7617C3.58398 15.7617 0 12.1875 0 7.88086C0 3.57422 3.57422 0 7.87109 0C12.1777 0 15.7715 3.57422 15.7715 7.88086ZM4.0918 5.36133L4.0918 10.3027C4.0918 10.7031 4.30664 10.9473 4.69727 10.9473L6.83594 10.9473C7.10938 10.9473 7.34375 10.7129 7.34375 10.4297C7.34375 10.1465 7.10938 9.91211 6.83594 9.91211L5.32227 9.91211L5.32227 5.36133C5.32227 5.01953 5.03906 4.74609 4.70703 4.74609C4.375 4.74609 4.0918 5.01953 4.0918 5.36133ZM8.7207 4.84375C8.32031 4.84375 8.10547 5.11719 8.10547 5.48828L8.10547 10.3027C8.10547 10.6934 8.33008 10.9473 8.7207 10.9473L10.3613 10.9473C11.4258 10.9473 12.0605 10.2246 12.0605 9.20898C12.0605 8.47656 11.6016 7.80273 10.8789 7.73438L10.8789 7.68555C11.4648 7.59766 11.8652 6.95312 11.8652 6.36719C11.8652 5.38086 11.1914 4.84375 10.3027 4.84375ZM10.8008 9.10156C10.8008 9.67773 10.5371 10.0195 9.9707 10.0195L9.31641 10.0195L9.31641 8.21289L9.95117 8.21289C10.4492 8.21289 10.8008 8.47656 10.8008 9.10156ZM10.6836 6.5625C10.6836 7.08984 10.3809 7.39258 9.85352 7.39258L9.31641 7.39258L9.31641 5.78125L9.95117 5.78125C10.4883 5.78125 10.6836 6.12305 10.6836 6.5625Z" fill="#ffffff" fill-opacity="0.85"/>
 </g>
</svg>
