<svg version="1.1" xmlns="http://www.w3.org/2000/svg" xmlns:xlink="http://www.w3.org/1999/xlink" width="19.4043" height="14.5996" viewBox="0 0 19.4043 14.5996">
 <g>
  <rect height="14.5996" opacity="0" width="19.4043" x="0" y="0"/>
  <path d="M2.49023 14.5898L16.5527 14.5898C18.2227 14.5898 19.043 13.7695 19.043 12.1289L19.043 2.46094C19.043 0.820312 18.2227 0 16.5527 0L2.49023 0C0.830078 0 0 0.820312 0 2.46094L0 12.1289C0 13.7695 0.830078 14.5898 2.49023 14.5898ZM2.50977 13.1738C1.80664 13.1738 1.40625 12.793 1.40625 12.0605L1.40625 2.5293C1.40625 1.79688 1.80664 1.41602 2.50977 1.41602L16.5332 1.41602C17.2363 1.41602 17.6367 1.79688 17.6367 2.5293L17.6367 12.0605C17.6367 12.793 17.2363 13.1738 16.5332 13.1738Z" fill="var(--color-primary)"/>
  <path d="M3.14453 12.0312L15.8984 12.0312C16.2695 12.0312 16.4941 11.8066 16.4941 11.416L16.4941 3.17383C16.4941 2.7832 16.2695 2.55859 15.8984 2.55859L3.14453 2.55859C2.77344 2.55859 2.54883 2.7832 2.54883 3.17383L2.54883 11.416C2.54883 11.8066 2.77344 12.0312 3.14453 12.0312ZM3.80859 10.9082C3.73047 10.9082 3.68164 10.8594 3.68164 10.7812L3.68164 3.80859C3.68164 3.73047 3.73047 3.68164 3.80859 3.68164L15.2441 3.68164C15.3223 3.68164 15.3613 3.73047 15.3613 3.80859L15.3613 10.7812C15.3613 10.8594 15.3223 10.9082 15.2441 10.9082Z" fill="var(--color-primary)"/>
 </g>
</svg>
