<svg version="1.1" xmlns="http://www.w3.org/2000/svg" xmlns:xlink="http://www.w3.org/1999/xlink" width="11.8555" height="17.0996" viewBox="0 0 11.8555 17.0996">
 <g>
  <rect height="17.0996" opacity="0" width="11.8555" x="0" y="0"/>
  <path d="M11.4941 2.49023L11.4941 14.5996C11.4941 16.2695 10.6836 17.0898 9.04297 17.0898L2.45117 17.0898C0.810547 17.0898 0 16.2695 0 14.5996L0 2.49023C0 0.830078 0.810547 0 2.45117 0L9.04297 0C10.6836 0 11.4941 0.830078 11.4941 2.49023ZM2.86133 9.60938C2.37305 9.60938 2.19727 9.77539 2.19727 10.2539L2.19727 14.1797C2.19727 14.6582 2.37305 14.8242 2.86133 14.8242L8.59375 14.8242C9.08203 14.8242 9.25781 14.6582 9.25781 14.1797L9.25781 10.2539C9.25781 9.77539 9.08203 9.60938 8.59375 9.60938Z" fill="var(--color-primary)"/>
 </g>
</svg>
