<svg version="1.1" xmlns="http://www.w3.org/2000/svg" xmlns:xlink="http://www.w3.org/1999/xlink" width="15.6445" height="16.1426" viewBox="0 0 15.6445 16.1426">
 <g>
  <rect height="16.1426" opacity="0" width="15.6445" x="0" y="0"/>
  <path d="M7.64648 7.99805C11.1426 7.99805 13.8477 8.85742 15.2832 10.3516L15.2832 4.25781C15.2832 1.68945 12.2656 0 7.64648 0C3.01758 0 0 1.68945 0 4.25781L0 10.3516C1.43555 8.85742 4.14062 7.99805 7.64648 7.99805ZM7.64648 16.1328C11.9727 16.1328 15.2441 14.7656 15.2441 12.6367C15.2441 10.5078 11.9727 9.14062 7.64648 9.14062C3.31055 9.14062 0.0390625 10.5078 0.0390625 12.6367C0.0390625 14.7656 3.31055 16.1328 7.64648 16.1328ZM7.64648 12.4121C5.92773 12.4121 4.49219 11.543 4.375 10.4395C5.32227 10.2344 6.43555 10.1172 7.64648 10.1172C8.85742 10.1172 9.96094 10.2344 10.9082 10.4395C10.791 11.543 9.35547 12.4121 7.64648 12.4121Z" fill="var(--color-primary)"/>
 </g>
</svg>
