<?xml version="1.0" encoding="UTF-8"?>
<!--Generator: Apple Native CoreSVG 232.5-->
<!DOCTYPE svg
PUBLIC "-//W3C//DTD SVG 1.1//EN"
       "http://www.w3.org/Graphics/SVG/1.1/DTD/svg11.dtd">
<svg version="1.1" xmlns="http://www.w3.org/2000/svg" xmlns:xlink="http://www.w3.org/1999/xlink" width="18.9746" height="17.8613">
 <g>
  <rect height="17.8613" opacity="0" width="18.9746" x="0" y="0"/>
  <path d="M2.1582 10.0586C2.56836 10.0586 2.92969 9.72656 2.92969 9.31641C2.92969 8.88672 2.56836 8.55469 2.1582 8.55469L0.751953 8.55469C0.341797 8.55469 0 8.89648 0 9.31641C0 9.7168 0.341797 10.0586 0.751953 10.0586ZM3.7207 4.78516C4.01367 5.07812 4.49219 5.08789 4.78516 4.78516C5.07812 4.49219 5.06836 4.02344 4.78516 3.73047L3.78906 2.72461C3.50586 2.44141 3.01758 2.44141 2.72461 2.72461C2.43164 3.02734 2.43164 3.49609 2.72461 3.78906ZM8.55469 2.16797C8.55469 2.57812 8.88672 2.92969 9.30664 2.92969C9.72656 2.92969 10.0684 2.57812 10.0684 2.16797L10.0684 0.761719C10.0684 0.341797 9.7168 0 9.30664 0C8.88672 0 8.55469 0.341797 8.55469 0.761719ZM13.8281 3.73047C13.5352 4.02344 13.5254 4.49219 13.8281 4.78516C14.1309 5.08789 14.5996 5.07812 14.8828 4.78516L15.8887 3.78906C16.1816 3.49609 16.1816 3.02734 15.8887 2.72461C15.5859 2.44141 15.1172 2.44141 14.8242 2.72461ZM17.8613 10.0586C18.2715 10.0586 18.6133 9.7168 18.6133 9.31641C18.6133 8.89648 18.2715 8.55469 17.8613 8.55469L16.4551 8.55469C16.0352 8.55469 15.6934 8.88672 15.6934 9.31641C15.6934 9.72656 16.0352 10.0586 16.4551 10.0586Z" fill="#ffffff" fill-opacity="0.55"/>
  <path d="M12.9492 15.1367L14.3555 15.1367L14.3555 9.41406C14.3555 6.58203 12.1289 4.35547 9.30664 4.35547C6.47461 4.35547 4.25781 6.58203 4.25781 9.41406L4.25781 15.1367L5.66406 15.1367L5.66406 9.41406C5.66406 7.35352 7.25586 5.76172 9.30664 5.76172C11.3574 5.76172 12.9492 7.35352 12.9492 9.41406ZM15.2539 15.8398C15.6445 15.8398 15.9668 15.5176 15.9668 15.1367C15.9668 14.7461 15.6445 14.4238 15.2539 14.4238L3.34961 14.4238C2.96875 14.4238 2.65625 14.7461 2.65625 15.1367C2.65625 15.5176 2.96875 15.8398 3.34961 15.8398ZM10.0195 9.64844C10.0195 9.26758 9.6875 8.93555 9.30664 8.93555C8.91602 8.93555 8.61328 9.26758 8.61328 9.64844L8.61328 15.1367L10.0195 15.1367Z" fill="#ffffff" fill-opacity="0.85"/>
 </g>
</svg>
