<svg version="1.1" xmlns="http://www.w3.org/2000/svg" xmlns:xlink="http://www.w3.org/1999/xlink" width="11.8555" height="17.0996" viewBox="0 0 11.8555 17.0996">
 <g>
  <rect height="17.0996" opacity="0" width="11.8555" x="0" y="0"/>
  <path d="M11.4941 2.49023L11.4941 14.5996C11.4941 16.2598 10.6836 17.0898 9.04297 17.0898L2.45117 17.0898C0.810547 17.0898 0 16.2598 0 14.5996L0 2.49023C0 0.820312 0.810547 0 2.45117 0L9.04297 0C10.6836 0 11.4941 0.820312 11.4941 2.49023ZM2.86133 2.27539C2.37305 2.27539 2.19727 2.44141 2.19727 2.91992L2.19727 6.83594C2.19727 7.31445 2.37305 7.48047 2.86133 7.48047L8.59375 7.48047C9.08203 7.48047 9.25781 7.31445 9.25781 6.83594L9.25781 2.91992C9.25781 2.44141 9.08203 2.27539 8.59375 2.27539Z" fill="var(--color-primary)"/>
 </g>
</svg>
