<svg version="1.1" xmlns="http://www.w3.org/2000/svg" xmlns:xlink="http://www.w3.org/1999/xlink" width="14.1504" height="16.5137" viewBox="0 0 14.1504 16.5137">
 <g>
  <rect height="16.5137" opacity="0" width="14.1504" x="0" y="0"/>
  <path d="M9.15039 16.5039C11.9629 16.5039 13.7891 14.6777 13.7891 11.8652L13.7891 8.19336C13.7891 7.12891 13.4473 6.25977 12.7832 5.64453L7.94922 1.20117C6.99219 0.322266 5.95703 0 4.74609 0L2.38281 0C0.966797 0 0 0.986328 0 2.40234L0 14.1211C0 15.6055 0.917969 16.5039 2.41211 16.5039ZM9.12109 15.0977L2.44141 15.0977C1.67969 15.0977 1.40625 14.873 1.40625 14.1016L1.40625 2.42188C1.40625 1.82617 1.81641 1.40625 2.41211 1.40625L4.7168 1.40625C5.6543 1.40625 6.31836 1.63086 6.98242 2.23633L11.8066 6.66016C12.2168 7.04102 12.3828 7.4707 12.3828 8.21289L12.3828 11.8457C12.3828 13.9453 11.2207 15.0977 9.12109 15.0977Z" fill="currentColor"/>
  <path d="M3.75977 9.01367L9.85352 9.01367C10.1562 9.01367 10.3809 8.80859 10.3809 8.50586C10.3809 8.21289 10.1562 8.01758 9.85352 8.01758L3.75977 8.01758C3.45703 8.01758 3.23242 8.21289 3.23242 8.50586C3.23242 8.80859 3.45703 9.01367 3.75977 9.01367ZM3.75977 11.0938L9.85352 11.0938C10.1562 11.0938 10.3809 10.8984 10.3809 10.5957C10.3809 10.293 10.1562 10.0879 9.85352 10.0879L3.75977 10.0879C3.45703 10.0879 3.23242 10.293 3.23242 10.5957C3.23242 10.8984 3.45703 11.0938 3.75977 11.0938ZM3.75977 13.1738L9.85352 13.1738C10.1562 13.1738 10.3809 12.9688 10.3809 12.6758C10.3809 12.373 10.1562 12.1777 9.85352 12.1777L3.75977 12.1777C3.45703 12.1777 3.23242 12.373 3.23242 12.6758C3.23242 12.9688 3.45703 13.1738 3.75977 13.1738Z" fill="currentColor"/>
 </g>
</svg>
