<?xml version="1.0" encoding="UTF-8"?>
<!--Generator: Apple Native CoreSVG 232.5-->
<!DOCTYPE svg
PUBLIC "-//W3C//DTD SVG 1.1//EN"
       "http://www.w3.org/Graphics/SVG/1.1/DTD/svg11.dtd">
<svg version="1.1" xmlns="http://www.w3.org/2000/svg" xmlns:xlink="http://www.w3.org/1999/xlink" width="16.1328" height="15.7715">
 <g>
  <rect height="15.7715" opacity="0" width="16.1328" x="0" y="0"/>
  <path d="M7.88086 15.7617C9.61914 15.7617 11.2402 15.1855 12.5488 14.209C10.498 13.9551 8.90625 12.9883 7.96875 11.3574C7.56836 10.6543 7.32422 9.96094 7.22656 9.13086C6.75781 9.49219 6.41602 9.89258 6.12305 10.4004C5.22461 11.9238 5.41016 13.7402 6.63086 15.6543C7.03125 15.7324 7.45117 15.7617 7.88086 15.7617ZM4.73633 15.0879C3.91602 13.1934 3.95508 11.3184 4.90234 9.70703C5.3125 8.99414 5.80078 8.44727 6.45508 7.94922C5.89844 7.73438 5.39062 7.64648 4.80469 7.64648C3.06641 7.64648 1.57227 8.69141 0.537109 10.7129C1.29883 12.6562 2.82227 14.248 4.73633 15.0879ZM0.0585938 8.79883C1.29883 7.13867 2.93945 6.24023 4.80469 6.24023C5.61523 6.24023 6.33789 6.38672 7.09961 6.69922C7.01172 6.10352 6.83594 5.61523 6.54297 5.10742C5.67383 3.58398 4.02344 2.83203 1.78711 2.92969C0.673828 4.28711 0 6.01562 0 7.88086C0 8.18359 0.0195312 8.48633 0.0585938 8.79883ZM8.50586 6.61133C8.98438 6.24023 9.31641 5.83984 9.60938 5.35156C10.498 3.82812 10.3223 2.01172 9.10156 0.0976562C8.70117 0.0292969 8.29102 0 7.87109 0C6.13281 0 4.51172 0.585938 3.19336 1.57227C5.23438 1.81641 6.82617 2.79297 7.76367 4.41406C8.16406 5.10742 8.39844 5.79102 8.50586 6.61133ZM10.9375 8.13477C12.7051 8.13477 14.1895 7.08008 15.2246 5.05859C14.4629 3.0957 12.9199 1.49414 10.9863 0.654297C11.8066 2.54883 11.7676 4.42383 10.8301 6.04492C10.4199 6.75781 9.91211 7.30469 9.25781 7.80273C9.81445 8.02734 10.332 8.13477 10.9375 8.13477ZM13.9648 12.8418C15.0879 11.4844 15.7715 9.74609 15.7715 7.88086C15.7715 7.56836 15.752 7.27539 15.7129 6.97266C14.4727 8.63281 12.8223 9.54102 10.9375 9.54102C10.127 9.54102 9.39453 9.38477 8.63281 9.07227C8.7207 9.64844 8.88672 10.1465 9.18945 10.6641C10.0586 12.1777 11.7188 12.9395 13.9648 12.8418Z" fill="#ffffff" fill-opacity="0.85"/>
 </g>
</svg>
