<svg version="1.1" xmlns="http://www.w3.org/2000/svg" xmlns:xlink="http://www.w3.org/1999/xlink" width="16.1328" height="15.7715" viewBox="0 0 16.1328 15.7715">
 <g>
  <rect height="15.7715" opacity="0" width="16.1328" x="0" y="0"/>
  <path d="M15.7715 7.89062C15.7715 12.1973 12.1875 15.7715 7.88086 15.7715C3.58398 15.7715 0 12.1973 0 7.89062C0 3.58398 3.57422 0.00976562 7.87109 0.00976562C12.1777 0.00976562 15.7715 3.58398 15.7715 7.89062ZM7.4707 7.08984C7.8125 7.14844 8.07617 7.27539 8.23242 7.42188C8.82812 8.04688 8.7207 8.85742 7.89062 9.66797L6.875 10.7031C6.06445 11.4844 5.26367 11.6016 4.64844 10.9863C4.0332 10.3809 4.12109 9.57031 4.94141 8.76953L5.63477 8.0957C5.47852 7.76367 5.46875 7.25586 5.5957 6.83594L4.25781 8.1543C3.05664 9.36523 2.95898 10.6348 3.99414 11.6602C5.00977 12.6758 6.28906 12.5879 7.5 11.377L8.57422 10.3027C9.80469 9.07227 9.92188 7.80273 8.87695 6.77734C8.64258 6.51367 8.33984 6.32812 8.1543 6.28906C7.90039 6.45508 7.59766 6.78711 7.4707 7.08984ZM8.02734 4.38477L6.94336 5.45898C5.71289 6.68945 5.60547 7.95898 6.65039 8.99414C6.875 9.25781 7.1875 9.44336 7.37305 9.48242C7.61719 9.30664 7.91992 8.97461 8.05664 8.68164C7.70508 8.62305 7.45117 8.48633 7.28516 8.34961C6.68945 7.72461 6.80664 6.91406 7.63672 6.10352L8.65234 5.06836C9.45312 4.27734 10.2539 4.16992 10.8691 4.77539C11.4844 5.38086 11.3965 6.20117 10.5859 7.00195L9.89258 7.67578C10.0391 8.00781 10.0586 8.50586 9.93164 8.93555L11.2598 7.61719C12.4609 6.40625 12.5586 5.13672 11.5234 4.10156C10.5078 3.0957 9.23828 3.17383 8.02734 4.38477Z" fill="currentColor"/>
 </g>
</svg>
