<svg version="1.1" xmlns="http://www.w3.org/2000/svg" xmlns:xlink="http://www.w3.org/1999/xlink" width="14.5898" height="14.248" viewBox="0 0 14.5898 14.248">
 <g>
  <rect height="14.248" opacity="0" width="14.5898" x="0" y="0"/>
  <path d="M2.49023 14.248L11.7383 14.248C13.4082 14.248 14.2285 13.4277 14.2285 11.7871L14.2285 2.4707C14.2285 0.830078 13.4082 0.00976562 11.7383 0.00976562L2.49023 0.00976562C0.830078 0.00976562 0 0.830078 0 2.4707L0 11.7871C0 13.4277 0.830078 14.248 2.49023 14.248ZM2.50977 12.832C1.80664 12.832 1.40625 12.4609 1.40625 11.7188L1.40625 2.53906C1.40625 1.80664 1.80664 1.42578 2.50977 1.42578L11.7188 1.42578C12.4219 1.42578 12.8223 1.80664 12.8223 2.53906L12.8223 11.7188C12.8223 12.4609 12.4219 12.832 11.7188 12.832Z" fill="var(--color-primary)"/>
  <path d="M4.26758 10.3027C4.26758 10.6055 4.46289 10.8008 4.76562 10.8008L9.44336 10.8008C9.74609 10.8008 9.9707 10.6055 9.9707 10.3027C9.9707 10 9.74609 9.80469 9.44336 9.80469L6.19141 9.80469C6.49414 9.54102 6.69922 9.12109 6.78711 8.64258C6.80664 8.52539 6.81641 8.41797 6.81641 8.31055L8.61328 8.31055C8.89648 8.31055 9.0918 8.125 9.0918 7.85156C9.0918 7.57812 8.89648 7.40234 8.61328 7.40234L6.72852 7.40234C6.67969 7.17773 6.62109 6.97266 6.57227 6.76758L8.61328 6.76758C8.89648 6.76758 9.0918 6.58203 9.0918 6.30859C9.0918 6.03516 8.89648 5.85938 8.61328 5.85938L6.42578 5.85938C6.42578 5.81055 6.42578 5.75195 6.42578 5.70312C6.42578 4.89258 7.03125 4.3457 7.98828 4.3457C8.57422 4.3457 8.90625 4.49219 9.14062 4.50195C9.45312 4.50195 9.60938 4.32617 9.60938 4.04297C9.60938 3.80859 9.48242 3.63281 9.18945 3.51562C8.79883 3.36914 8.35938 3.33984 7.91992 3.33984C6.31836 3.33984 5.29297 4.27734 5.29297 5.78125C5.29297 5.81055 5.29297 5.83008 5.30273 5.85938L4.7168 5.85938C4.44336 5.85938 4.24805 6.03516 4.24805 6.30859C4.24805 6.58203 4.44336 6.76758 4.7168 6.76758L5.42969 6.76758C5.47852 6.98242 5.54688 7.1875 5.5957 7.40234L4.7168 7.40234C4.44336 7.40234 4.24805 7.57812 4.24805 7.85156C4.24805 8.125 4.44336 8.31055 4.7168 8.31055L5.72266 8.31055C5.73242 8.37891 5.72266 8.44727 5.71289 8.51562C5.61523 9.18945 5.16602 9.59961 4.70703 9.74609C4.38477 9.85352 4.26758 10.0195 4.26758 10.3027Z" fill="var(--color-primary)"/>
 </g>
</svg>
