<svg version="1.1" xmlns="http://www.w3.org/2000/svg" xmlns:xlink="http://www.w3.org/1999/xlink" width="17.6218" height="15.7715" viewBox="0 0 17.6218 15.7715">
 <g>
  <rect height="15.7715" opacity="0" width="17.6218" x="0" y="0"/>
  <path d="M9.37242 15.7617C13.6791 15.7617 17.263 12.1875 17.263 7.88086C17.263 3.57422 13.6791 0 9.37242 0C5.06578 0 1.49156 3.56445 1.49156 7.87109L2.9857 7.87109C2.9857 4.31641 5.81773 1.49414 9.37242 1.49414C12.9271 1.49414 15.7689 4.32617 15.7689 7.88086C15.7689 11.4355 12.9271 14.2969 9.37242 14.2773C7.28258 14.2676 5.43687 13.291 4.28453 11.7578C4.02086 11.3965 3.60094 11.2891 3.23961 11.5137C2.87828 11.7285 2.79039 12.2168 3.08336 12.5977C4.55797 14.502 6.83336 15.7617 9.37242 15.7617ZM0.602889 6.35742C-0.0123451 6.35742-0.158829 6.77734 0.173202 7.24609L1.91148 9.7168C2.18492 10.0977 2.59508 10.0977 2.85875 9.7168L4.59703 7.23633C4.9193 6.77734 4.76305 6.35742 4.15758 6.35742Z" fill="var(--color-secondary)"/>
  <path d="M6.52086 11.0645C6.52086 11.3672 6.72594 11.5625 7.02867 11.5625L11.7064 11.5625C12.0091 11.5625 12.224 11.3672 12.224 11.0645C12.224 10.7617 12.0091 10.5664 11.7064 10.5664L8.44469 10.5664C8.74742 10.3027 8.96226 9.88281 9.04039 9.4043C9.05992 9.28711 9.06969 9.17969 9.07945 9.07227L10.8763 9.07227C11.1498 9.07227 11.3451 8.88672 11.3451 8.61328C11.3451 8.33984 11.1498 8.16406 10.8763 8.16406L8.99156 8.16406C8.94273 7.93945 8.88414 7.73438 8.83531 7.5293L10.8763 7.5293C11.1498 7.5293 11.3451 7.34375 11.3451 7.07031C11.3451 6.79688 11.1498 6.62109 10.8763 6.62109L8.68883 6.62109C8.68883 6.57227 8.67906 6.51367 8.67906 6.46484C8.67906 5.6543 9.28453 5.10742 10.2416 5.10742C10.8373 5.10742 11.1595 5.25391 11.3939 5.26367C11.7064 5.26367 11.8627 5.08789 11.8627 4.80469C11.8627 4.57031 11.7455 4.39453 11.4427 4.27734C11.0521 4.13086 10.6224 4.10156 10.183 4.10156C8.5814 4.10156 7.55601 5.03906 7.55601 6.54297C7.55601 6.57227 7.55601 6.5918 7.55601 6.62109L6.97984 6.62109C6.7064 6.62109 6.50133 6.79688 6.50133 7.07031C6.50133 7.34375 6.7064 7.5293 6.97984 7.5293L7.69273 7.5293C7.74156 7.74414 7.80015 7.94922 7.84898 8.16406L6.97984 8.16406C6.7064 8.16406 6.50133 8.33984 6.50133 8.61328C6.50133 8.88672 6.7064 9.07227 6.97984 9.07227L7.9857 9.07227C7.9857 9.14062 7.97594 9.20898 7.96617 9.27734C7.87828 9.95117 7.42906 10.3613 6.97008 10.5078C6.64781 10.6152 6.52086 10.7812 6.52086 11.0645Z" fill="var(--color-primary)"/>
 </g>
</svg>
