<svg version="1.1" xmlns="http://www.w3.org/2000/svg" xmlns:xlink="http://www.w3.org/1999/xlink" width="17.4512" height="17.0801" viewBox="0 0 17.4512 17.0801">
 <g>
  <rect height="17.0801" opacity="0" width="17.4512" x="0" y="0"/>
  <path d="M8.54492 0.820312C8.7793 0.820312 8.96484 0.644531 8.96484 0.410156C8.96484 0.175781 8.7793 0 8.54492 0C8.32031 0 8.13477 0.175781 8.13477 0.410156C8.13477 0.644531 8.32031 0.820312 8.54492 0.820312ZM9.96094 0.947266C10.1953 0.947266 10.3711 0.771484 10.3711 0.537109C10.3711 0.302734 10.1953 0.126953 9.96094 0.126953C9.72656 0.126953 9.55078 0.302734 9.55078 0.537109C9.55078 0.771484 9.72656 0.947266 9.96094 0.947266ZM11.3281 1.30859C11.5625 1.30859 11.7383 1.13281 11.7383 0.898438C11.7383 0.664062 11.5625 0.488281 11.3281 0.488281C11.0938 0.488281 10.918 0.664062 10.918 0.898438C10.918 1.13281 11.0938 1.30859 11.3281 1.30859ZM12.6172 1.92383C12.8418 1.92383 13.0273 1.74805 13.0273 1.51367C13.0273 1.2793 12.8418 1.10352 12.6172 1.10352C12.3828 1.10352 12.1973 1.2793 12.1973 1.51367C12.1973 1.74805 12.3828 1.92383 12.6172 1.92383ZM13.7793 2.73438C14.0039 2.73438 14.1895 2.54883 14.1895 2.32422C14.1895 2.08984 14.0039 1.9043 13.7793 1.9043C13.5449 1.9043 13.3594 2.08984 13.3594 2.32422C13.3594 2.54883 13.5449 2.73438 13.7793 2.73438ZM14.7754 3.74023C15.0098 3.74023 15.1953 3.55469 15.1953 3.33008C15.1953 3.0957 15.0098 2.91016 14.7754 2.91016C14.5508 2.91016 14.3652 3.0957 14.3652 3.33008C14.3652 3.55469 14.5508 3.74023 14.7754 3.74023ZM15.5957 4.91211C15.8301 4.91211 16.0156 4.72656 16.0156 4.49219C16.0156 4.26758 15.8301 4.08203 15.5957 4.08203C15.3711 4.08203 15.1855 4.26758 15.1855 4.49219C15.1855 4.72656 15.3711 4.91211 15.5957 4.91211ZM16.1914 6.19141C16.4258 6.19141 16.6113 6.00586 16.6113 5.77148C16.6113 5.54688 16.4258 5.36133 16.1914 5.36133C15.9668 5.36133 15.7812 5.54688 15.7812 5.77148C15.7812 6.00586 15.9668 6.19141 16.1914 6.19141ZM16.5527 7.54883C16.7871 7.54883 16.9727 7.37305 16.9727 7.13867C16.9727 6.9043 16.7871 6.72852 16.5527 6.72852C16.3281 6.72852 16.1426 6.9043 16.1426 7.13867C16.1426 7.37305 16.3281 7.54883 16.5527 7.54883ZM16.6797 8.94531C16.9141 8.94531 17.0898 8.76953 17.0898 8.53516C17.0898 8.30078 16.9141 8.125 16.6797 8.125C16.4453 8.125 16.2695 8.30078 16.2695 8.53516C16.2695 8.76953 16.4453 8.94531 16.6797 8.94531ZM16.5527 10.3418C16.7871 10.3418 16.9727 10.166 16.9727 9.93164C16.9727 9.69727 16.7871 9.52148 16.5527 9.52148C16.3281 9.52148 16.1426 9.69727 16.1426 9.93164C16.1426 10.166 16.3281 10.3418 16.5527 10.3418ZM16.1914 11.709C16.4258 11.709 16.6113 11.5234 16.6113 11.2988C16.6113 11.0645 16.4258 10.8789 16.1914 10.8789C15.9668 10.8789 15.7812 11.0645 15.7812 11.2988C15.7812 11.5234 15.9668 11.709 16.1914 11.709ZM15.5957 12.9883C15.8301 12.9883 16.0156 12.8027 16.0156 12.5781C16.0156 12.3438 15.8301 12.1582 15.5957 12.1582C15.3711 12.1582 15.1855 12.3438 15.1855 12.5781C15.1855 12.8027 15.3711 12.9883 15.5957 12.9883ZM14.7754 14.1602C15.0098 14.1602 15.1953 13.9746 15.1953 13.7402C15.1953 13.5156 15.0098 13.3301 14.7754 13.3301C14.5508 13.3301 14.3652 13.5156 14.3652 13.7402C14.3652 13.9746 14.5508 14.1602 14.7754 14.1602ZM13.7793 15.166C14.0039 15.166 14.1895 14.9805 14.1895 14.7461C14.1895 14.5215 14.0039 14.3359 13.7793 14.3359C13.5449 14.3359 13.3594 14.5215 13.3594 14.7461C13.3594 14.9805 13.5449 15.166 13.7793 15.166ZM12.6172 15.9668C12.8418 15.9668 13.0273 15.791 13.0273 15.5566C13.0273 15.3223 12.8418 15.1465 12.6172 15.1465C12.3828 15.1465 12.1973 15.3223 12.1973 15.5566C12.1973 15.791 12.3828 15.9668 12.6172 15.9668ZM11.3281 16.582C11.5625 16.582 11.7383 16.4062 11.7383 16.1719C11.7383 15.9375 11.5625 15.7617 11.3281 15.7617C11.0938 15.7617 10.918 15.9375 10.918 16.1719C10.918 16.4062 11.0938 16.582 11.3281 16.582ZM9.96094 16.9434C10.1953 16.9434 10.3711 16.7676 10.3711 16.5332C10.3711 16.2988 10.1953 16.123 9.96094 16.123C9.72656 16.123 9.55078 16.2988 9.55078 16.5332C9.55078 16.7676 9.72656 16.9434 9.96094 16.9434ZM8.54492 17.0703C8.7793 17.0703 8.96484 16.8945 8.96484 16.6602C8.96484 16.4258 8.7793 16.25 8.54492 16.25C8.32031 16.25 8.13477 16.4258 8.13477 16.6602C8.13477 16.8945 8.32031 17.0703 8.54492 17.0703ZM7.12891 16.9434C7.36328 16.9434 7.54883 16.7676 7.54883 16.5332C7.54883 16.2988 7.36328 16.123 7.12891 16.123C6.9043 16.123 6.71875 16.2988 6.71875 16.5332C6.71875 16.7676 6.9043 16.9434 7.12891 16.9434ZM5.77148 16.582C5.99609 16.582 6.18164 16.4062 6.18164 16.1719C6.18164 15.9375 5.99609 15.7617 5.77148 15.7617C5.53711 15.7617 5.35156 15.9375 5.35156 16.1719C5.35156 16.4062 5.53711 16.582 5.77148 16.582ZM4.48242 15.9668C4.70703 15.9668 4.89258 15.791 4.89258 15.5566C4.89258 15.3223 4.70703 15.1465 4.48242 15.1465C4.24805 15.1465 4.0625 15.3223 4.0625 15.5566C4.0625 15.791 4.24805 15.9668 4.48242 15.9668ZM3.32031 15.166C3.54492 15.166 3.73047 14.9805 3.73047 14.7461C3.73047 14.5215 3.54492 14.3359 3.32031 14.3359C3.08594 14.3359 2.91016 14.5215 2.91016 14.7461C2.91016 14.9805 3.08594 15.166 3.32031 15.166ZM2.31445 14.1602C2.54883 14.1602 2.72461 13.9746 2.72461 13.7402C2.72461 13.5156 2.54883 13.3301 2.31445 13.3301C2.08008 13.3301 1.9043 13.5156 1.9043 13.7402C1.9043 13.9746 2.08008 14.1602 2.31445 14.1602ZM1.49414 12.9883C1.72852 12.9883 1.9043 12.8027 1.9043 12.5781C1.9043 12.3438 1.72852 12.1582 1.49414 12.1582C1.26953 12.1582 1.08398 12.3438 1.08398 12.5781C1.08398 12.8027 1.26953 12.9883 1.49414 12.9883ZM0.898438 11.709C1.13281 11.709 1.31836 11.5234 1.31836 11.2988C1.31836 11.0645 1.13281 10.8789 0.898438 10.8789C0.673828 10.8789 0.488281 11.0645 0.488281 11.2988C0.488281 11.5234 0.673828 11.709 0.898438 11.709ZM0.537109 10.3418C0.771484 10.3418 0.957031 10.166 0.957031 9.93164C0.957031 9.69727 0.771484 9.52148 0.537109 9.52148C0.3125 9.52148 0.126953 9.69727 0.126953 9.93164C0.126953 10.166 0.3125 10.3418 0.537109 10.3418ZM0.410156 8.94531C0.644531 8.94531 0.830078 8.76953 0.830078 8.53516C0.830078 8.30078 0.644531 8.125 0.410156 8.125C0.185547 8.125 0 8.30078 0 8.53516C0 8.76953 0.185547 8.94531 0.410156 8.94531ZM0.537109 7.54883C0.771484 7.54883 0.957031 7.37305 0.957031 7.13867C0.957031 6.9043 0.771484 6.72852 0.537109 6.72852C0.3125 6.72852 0.126953 6.9043 0.126953 7.13867C0.126953 7.37305 0.3125 7.54883 0.537109 7.54883ZM0.898438 6.19141C1.13281 6.19141 1.31836 6.00586 1.31836 5.77148C1.31836 5.54688 1.13281 5.36133 0.898438 5.36133C0.673828 5.36133 0.488281 5.54688 0.488281 5.77148C0.488281 6.00586 0.673828 6.19141 0.898438 6.19141ZM1.49414 4.91211C1.72852 4.91211 1.9043 4.72656 1.9043 4.49219C1.9043 4.26758 1.72852 4.08203 1.49414 4.08203C1.26953 4.08203 1.08398 4.26758 1.08398 4.49219C1.08398 4.72656 1.26953 4.91211 1.49414 4.91211ZM2.31445 3.74023C2.54883 3.74023 2.72461 3.55469 2.72461 3.33008C2.72461 3.0957 2.54883 2.91016 2.31445 2.91016C2.08008 2.91016 1.9043 3.0957 1.9043 3.33008C1.9043 3.55469 2.08008 3.74023 2.31445 3.74023ZM3.32031 2.73438C3.54492 2.73438 3.73047 2.54883 3.73047 2.32422C3.73047 2.08984 3.54492 1.9043 3.32031 1.9043C3.08594 1.9043 2.91016 2.08984 2.91016 2.32422C2.91016 2.54883 3.08594 2.73438 3.32031 2.73438ZM4.48242 1.92383C4.70703 1.92383 4.89258 1.74805 4.89258 1.51367C4.89258 1.2793 4.70703 1.10352 4.48242 1.10352C4.24805 1.10352 4.0625 1.2793 4.0625 1.51367C4.0625 1.74805 4.24805 1.92383 4.48242 1.92383ZM5.77148 1.30859C5.99609 1.30859 6.18164 1.13281 6.18164 0.898438C6.18164 0.664062 5.99609 0.488281 5.77148 0.488281C5.53711 0.488281 5.35156 0.664062 5.35156 0.898438C5.35156 1.13281 5.53711 1.30859 5.77148 1.30859ZM7.12891 0.947266C7.36328 0.947266 7.54883 0.771484 7.54883 0.537109C7.54883 0.302734 7.36328 0.126953 7.12891 0.126953C6.9043 0.126953 6.71875 0.302734 6.71875 0.537109C6.71875 0.771484 6.9043 0.947266 7.12891 0.947266Z" fill="currentColor"/>
  <path d="M8.54492 14.7852C12.002 14.7852 14.7949 11.9922 14.7949 8.53516C14.7949 5.09766 11.9824 2.28516 8.54492 2.28516C5.07812 2.28516 2.29492 5.06836 2.29492 8.53516C2.29492 12.0117 5.06836 14.7852 8.54492 14.7852ZM8.54492 13.9648C5.51758 13.9648 3.11523 11.5625 3.11523 8.53516C3.11523 5.52734 5.53711 3.10547 8.54492 3.10547C11.543 3.10547 13.9746 5.53711 13.9746 8.53516C13.9746 11.543 11.5527 13.9648 8.54492 13.9648Z" fill="currentColor"/>
  <path d="M6.68945 10.5371C6.68945 11.0352 6.98242 11.1816 7.45117 10.9082L10.8887 8.94531C11.2891 8.71094 11.2891 8.36914 10.8887 8.14453L7.45117 6.17188C6.98242 5.9082 6.68945 6.04492 6.68945 6.54297Z" fill="currentColor"/>
 </g>
</svg>
