<?xml version="1.0" encoding="UTF-8"?>
<!--Generator: Apple Native CoreSVG 232.5-->
<!DOCTYPE svg
PUBLIC "-//W3C//DTD SVG 1.1//EN"
       "http://www.w3.org/Graphics/SVG/1.1/DTD/svg11.dtd">
<svg version="1.1" xmlns="http://www.w3.org/2000/svg" xmlns:xlink="http://www.w3.org/1999/xlink" width="16.1328" height="15.7715">
 <g>
  <rect height="15.7715" opacity="0" width="16.1328" x="0" y="0"/>
  <path d="M7.88086 15.7617C12.1875 15.7617 15.7715 12.1875 15.7715 7.88086C15.7715 3.57422 12.1777 0 7.87109 0C3.57422 0 0 3.57422 0 7.88086C0 12.1875 3.58398 15.7617 7.88086 15.7617Z" fill="#ffffff" fill-opacity="0.25"/>
  <path d="M3.58398 8.61328C2.80273 8.61328 2.72461 7.7832 3.28125 7.51953L10.6445 4.01367C11.3281 3.69141 11.9141 4.28711 11.6016 4.96094L8.13477 12.3438C7.87109 12.9102 7.05078 12.832 7.05078 12.041L7.05078 8.90625C7.05078 8.73047 6.92383 8.61328 6.75781 8.61328Z" fill="#ffffff" fill-opacity="0.85"/>
 </g>
</svg>
