<svg version="1.1" xmlns="http://www.w3.org/2000/svg" xmlns:xlink="http://www.w3.org/1999/xlink" width="12.7246" height="16.709" viewBox="0 0 12.7246 16.709">
 <g>
  <rect height="16.709" opacity="0" width="12.7246" x="0" y="0"/>
  <path d="M0.9375 16.1426C1.36719 16.1426 1.64062 15.9863 2.07031 15.5664L6.06445 11.6113C6.10352 11.5723 6.14258 11.543 6.18164 11.543C6.2207 11.543 6.25977 11.5723 6.29883 11.6113L10.293 15.5664C10.7227 15.9863 10.9961 16.1426 11.4258 16.1426C12.0117 16.1426 12.3633 15.6934 12.3633 15.1074C12.3633 14.7852 12.2266 14.3848 12.0898 14.0137L7.34375 1.09375C7.07031 0.341797 6.66016 0 6.18164 0C5.69336 0 5.29297 0.341797 5.01953 1.09375L0.273438 14.0137C0.136719 14.3848 0 14.7852 0 15.1074C0 15.6934 0.351562 16.1426 0.9375 16.1426ZM1.55273 14.2285C1.5332 14.2188 1.52344 14.1895 1.54297 14.1406L6.12305 1.88477C6.14258 1.83594 6.16211 1.81641 6.18164 1.81641C6.20117 1.81641 6.2207 1.83594 6.24023 1.88477L10.8203 14.1406C10.8398 14.1895 10.8301 14.2188 10.8105 14.2285C10.791 14.2383 10.7617 14.2285 10.7422 14.209L6.5918 9.99023C6.44531 9.84375 6.29883 9.80469 6.18164 9.80469C6.06445 9.80469 5.91797 9.84375 5.77148 9.99023L1.62109 14.209C1.60156 14.2285 1.57227 14.2383 1.55273 14.2285Z" fill="currentColor"/>
 </g>
</svg>
