<svg version="1.1" xmlns="http://www.w3.org/2000/svg" xmlns:xlink="http://www.w3.org/1999/xlink" width="13.3398" height="17.4902" viewBox="0 0 13.3398 17.4902">
 <g>
  <rect height="17.4902" opacity="0" width="13.3398" x="0" y="0"/>
  <path d="M0 15.4395C0 16.6309 0.888672 17.4707 2.14844 17.4707L10.8301 17.4707C12.0996 17.4707 12.9785 16.6309 12.9785 15.4395L12.9785 2.04102C12.9785 0.839844 12.0996 0 10.8301 0L2.14844 0C0.888672 0 0 0.839844 0 2.04102ZM1.40625 15.1953L1.40625 2.27539C1.40625 1.73828 1.75781 1.40625 2.33398 1.40625L10.6445 1.40625C11.2207 1.40625 11.5723 1.73828 11.5723 2.27539L11.5723 15.1953C11.5723 15.7324 11.2207 16.0645 10.6445 16.0645L2.33398 16.0645C1.75781 16.0645 1.40625 15.7324 1.40625 15.1953Z" fill="currentColor"/>
  <path d="M3.7207 10.6934C3.7207 11.1328 3.92578 11.3574 4.3457 11.3574L6.94336 11.3574C7.36328 11.3574 7.57812 11.1328 7.57812 10.6934L7.57812 8.70117C7.57812 8.26172 7.36328 8.03711 6.94336 8.03711L4.3457 8.03711C3.92578 8.03711 3.7207 8.26172 3.7207 8.70117ZM6.32812 8.55469L7.14844 8.55469L7.14844 7.39258C7.14844 6.8457 7.43164 6.50391 7.93945 6.50391C8.4375 6.50391 8.7207 6.8457 8.7207 7.39258L8.7207 7.97852C8.7207 8.20312 8.90625 8.38867 9.14062 8.38867C9.35547 8.38867 9.55078 8.20312 9.55078 7.97852L9.55078 7.39258C9.55078 6.41602 8.91602 5.70312 7.93945 5.70312C6.95312 5.70312 6.32812 6.41602 6.32812 7.48047Z" fill="currentColor"/>
 </g>
</svg>
