<svg version="1.1" xmlns="http://www.w3.org/2000/svg" xmlns:xlink="http://www.w3.org/1999/xlink" width="16.3574" height="20.5176" viewBox="0 0 16.3574 20.5176">
 <g>
  <rect height="20.5176" opacity="0" width="16.3574" x="0" y="0"/>
  <path d="M11.6088 2.29492L4.38726 2.29492C4.41186 1.58556 4.83789 1.19141 5.56641 1.19141L10.4297 1.19141C11.1582 1.19141 11.5842 1.58556 11.6088 2.29492Z" fill="currentColor"/>
  <path d="M13.2094 4.5969C12.9335 4.54621 12.6375 4.52148 12.3242 4.52148L3.68164 4.52148C3.36434 4.52148 3.06507 4.54642 2.78661 4.5976C2.87088 3.75876 3.42366 3.29102 4.3457 3.29102L11.6504 3.29102C12.5722 3.29102 13.1249 3.75849 13.2094 4.5969Z" fill="currentColor"/>
  <path d="M14.8145 8.16406L14.8145 16.875C14.8145 18.5156 13.9844 19.3359 12.3242 19.3359L3.68164 19.3359C2.01172 19.3359 1.19141 18.5156 1.19141 16.875L1.19141 8.16406C1.19141 6.52344 2.01172 5.71289 3.68164 5.71289L12.3242 5.71289C13.9844 5.71289 14.8145 6.52344 14.8145 8.16406ZM5.80078 10.8398L5.80078 11.7188C5.36133 11.7578 5.14648 12.0312 5.14648 12.5684L5.14648 15.6934C5.14648 16.2695 5.40039 16.543 5.9375 16.543L10.0684 16.543C10.6055 16.543 10.8594 16.2695 10.8594 15.6934L10.8594 12.5684C10.8594 12.0312 10.6445 11.7578 10.2051 11.7188L10.2051 10.8398C10.2051 9.33594 9.31641 8.33008 8.00781 8.33008C6.68945 8.33008 5.80078 9.33594 5.80078 10.8398ZM9.28711 10.7227L9.28711 11.709L6.71875 11.709L6.71875 10.7227C6.71875 9.82422 7.23633 9.20898 8.00781 9.20898C8.76953 9.20898 9.28711 9.82422 9.28711 10.7227Z" fill="currentColor"/>
 </g>
</svg>
