<?xml version="1.0" encoding="UTF-8"?>
<!--Generator: Apple Native CoreSVG 232.5-->
<!DOCTYPE svg
PUBLIC "-//W3C//DTD SVG 1.1//EN"
       "http://www.w3.org/Graphics/SVG/1.1/DTD/svg11.dtd">
<svg version="1.1" xmlns="http://www.w3.org/2000/svg" xmlns:xlink="http://www.w3.org/1999/xlink" width="16.1328" height="15.7715">
 <g>
  <rect height="15.7715" opacity="0" width="16.1328" x="0" y="0"/>
  <path d="M7.88086 15.7617C12.1875 15.7617 15.7715 12.1875 15.7715 7.88086C15.7715 3.57422 12.1777 0 7.87109 0C3.57422 0 0 3.57422 0 7.88086C0 12.1875 3.58398 15.7617 7.88086 15.7617Z" fill="#ffffff" fill-opacity="0.25"/>
  <path d="M5.12695 10.9473C4.73633 10.9473 4.52148 10.7031 4.52148 10.3027L4.52148 5.36133C4.52148 5.01953 4.80469 4.74609 5.13672 4.74609C5.46875 4.74609 5.75195 5.01953 5.75195 5.36133L5.75195 9.91211L7.27539 9.91211C7.54883 9.91211 7.7832 10.1465 7.7832 10.4297C7.7832 10.7129 7.54883 10.9473 7.27539 10.9473ZM9.62891 11.0352C9.27734 11.0352 9.00391 10.7617 9.00391 10.4102L9.00391 5.85938L8.13477 5.85938C7.8418 5.85938 7.61719 5.63477 7.61719 5.3418C7.61719 5.05859 7.8418 4.83398 8.13477 4.83398L11.1035 4.83398C11.377 4.83398 11.6016 5.05859 11.6016 5.3418C11.6016 5.63477 11.377 5.85938 11.1035 5.85938L10.2344 5.85938L10.2344 10.4102C10.2344 10.7617 9.96094 11.0352 9.62891 11.0352Z" fill="#ffffff" fill-opacity="0.85"/>
 </g>
</svg>
