<?xml version="1.0" encoding="UTF-8"?>
<!--Generator: Apple Native CoreSVG 232.5-->
<!DOCTYPE svg
PUBLIC "-//W3C//DTD SVG 1.1//EN"
       "http://www.w3.org/Graphics/SVG/1.1/DTD/svg11.dtd">
<svg version="1.1" xmlns="http://www.w3.org/2000/svg" xmlns:xlink="http://www.w3.org/1999/xlink" width="20.8792" height="14.9902">
 <g>
  <rect height="14.9902" opacity="0" width="20.8792" x="0" y="0"/>
  <path d="M2.86149 14.5801L5.88884 13.9941C7.54899 13.6719 8.30095 12.7539 8.30095 10.9863L8.30095 2.65625C8.30095 1.07422 7.18767 0 5.52751 0C4.14079 0 2.94938 0.996094 2.54899 2.4707L0.127118 11.6602C-0.400225 13.6426 0.752118 14.9805 2.86149 14.5801ZM17.6564 14.5801C19.7658 14.9805 20.9279 13.6426 20.3908 11.6602L17.9689 2.4707C17.5783 0.996094 16.3869 0 14.9904 0C13.34 0 12.217 1.07422 12.217 2.65625L12.217 10.9863C12.217 12.7539 12.9689 13.6719 14.6291 13.9941Z" fill="#ffffff" fill-opacity="0.25"/>
  <path d="M4.11149 11.1621C3.7404 11.2402 3.34001 11.0059 3.27165 10.625C3.20329 10.2539 3.4572 9.87305 3.80876 9.79492L5.73259 9.38477L4.13102 7.94922C3.84782 7.69531 3.80876 7.23633 4.06267 6.94336C4.32634 6.66016 4.79509 6.65039 5.06852 6.89453L7.42204 9.0332L8.30095 8.83789L8.30095 10.2832ZM16.4064 11.1621L12.217 10.2832L12.217 8.83789L13.0959 9.0332L15.4494 6.89453C15.7228 6.65039 16.1916 6.66016 16.4552 6.94336C16.7091 7.23633 16.6701 7.69531 16.3869 7.94922L14.7853 9.38477L16.7091 9.79492C17.0705 9.87305 17.3244 10.2539 17.2463 10.625C17.1779 11.0059 16.7775 11.2402 16.4064 11.1621Z" fill="#ffffff" fill-opacity="0.55"/>
  <path d="M10.2638 9.86328L12.217 10.2832L12.217 8.83789L10.9572 8.57422L10.9572 1.05469C10.9572 0.673828 10.6447 0.351562 10.2638 0.351562C9.87321 0.351562 9.56071 0.673828 9.56071 1.05469L9.56071 8.57422L8.30095 8.83789L8.30095 10.2832Z" fill="#ffffff" fill-opacity="0.85"/>
 </g>
</svg>
