<svg version="1.1" xmlns="http://www.w3.org/2000/svg" xmlns:xlink="http://www.w3.org/1999/xlink" width="16.1328" height="15.7715" viewBox="0 0 16.1328 15.7715">
 <g>
  <rect height="15.7715" opacity="0" width="16.1328" x="0" y="0"/>
  <path d="M7.88086 15.7617C12.1875 15.7617 15.7715 12.1875 15.7715 7.88086C15.7715 3.57422 12.1777 0 7.87109 0C3.57422 0 0 3.57422 0 7.88086C0 12.1875 3.58398 15.7617 7.88086 15.7617ZM7.88086 14.2773C4.33594 14.2773 1.50391 11.4355 1.50391 7.88086C1.50391 4.32617 4.32617 1.48438 7.87109 1.48438C11.4258 1.48438 14.2773 4.32617 14.2773 7.88086C14.2773 11.4355 11.4355 14.2773 7.88086 14.2773Z" fill="var(--color-primary)"/>
  <path d="M4.88281 11.4551C5.2832 11.4551 5.51758 11.1914 5.51758 10.7422L5.51758 6.66016L5.58594 6.66016L7.22656 10.7422C7.35352 11.0449 7.54883 11.1816 7.86133 11.1816C8.17383 11.1816 8.38867 11.0449 8.50586 10.7422L10.1562 6.66016L10.2246 6.66016L10.2246 10.7422C10.2246 11.1816 10.459 11.4551 10.8496 11.4551C11.25 11.4551 11.4844 11.1914 11.4844 10.7422L11.4844 4.9707C11.4844 4.51172 11.1523 4.18945 10.6836 4.18945C10.2734 4.18945 10 4.36523 9.86328 4.7168L7.90039 9.61914L7.86133 9.61914L5.88867 4.7168C5.74219 4.36523 5.46875 4.18945 5.06836 4.18945C4.58984 4.18945 4.25781 4.51172 4.25781 4.9707L4.25781 10.7422C4.25781 11.1816 4.49219 11.4551 4.88281 11.4551Z" fill="var(--color-primary)"/>
 </g>
</svg>
