<?xml version="1.0" encoding="UTF-8"?>
<!--Generator: Apple Native CoreSVG 232.5-->
<!DOCTYPE svg
PUBLIC "-//W3C//DTD SVG 1.1//EN"
       "http://www.w3.org/Graphics/SVG/1.1/DTD/svg11.dtd">
<svg version="1.1" xmlns="http://www.w3.org/2000/svg" xmlns:xlink="http://www.w3.org/1999/xlink" width="18.6621" height="13.9551">
 <g>
  <rect height="13.9551" opacity="0" width="18.6621" x="0" y="0"/>
  <path d="M6.2207 13.9453L12.0801 13.9453C16.6113 13.9453 18.3008 12.2656 18.3008 8.06641L18.3008 5.87891C18.3008 1.67969 16.6113 0 12.0801 0L6.2207 0C1.68945 0 0 1.67969 0 5.87891L0 8.06641C0 12.2656 1.68945 13.9453 6.2207 13.9453Z" fill="#ffffff" fill-opacity="0.25"/>
  <path d="M4.50195 10.3027C4.16016 10.3027 3.92578 10.0684 3.92578 9.6875L3.92578 4.58008C3.92578 4.01367 4.28711 3.67188 4.84375 3.67188C5.33203 3.67188 5.625 3.90625 5.75195 4.4043L6.73828 8.48633L6.76758 8.48633L7.74414 4.4043C7.87109 3.91602 8.1543 3.67188 8.66211 3.67188C9.21875 3.67188 9.58008 3.99414 9.58008 4.58008L9.58008 9.6875C9.58008 10.0684 9.38477 10.3027 8.99414 10.3027C8.63281 10.3027 8.42773 10.0684 8.42773 9.6875L8.42773 5.6543L8.37891 5.6543L7.39258 9.58984C7.31445 9.94141 7.11914 10.1758 6.75781 10.1758C6.41602 10.1758 6.20117 9.94141 6.12305 9.59961L5.13672 5.6543L5.08789 5.6543L5.08789 9.6875C5.08789 10.0684 4.86328 10.3027 4.50195 10.3027ZM11.1816 10.1855C10.7617 10.1855 10.5859 9.96094 10.5859 9.66797C10.5859 9.375 10.752 9.16016 10.918 8.95508L12.2168 7.33398C12.6074 6.83594 13.1055 6.16211 13.1055 5.51758C13.1055 4.9707 12.8418 4.60938 12.4316 4.60938C12.0117 4.60938 11.8457 4.91211 11.6895 5.39062C11.5918 5.68359 11.416 5.82031 11.123 5.82031C10.7812 5.82031 10.5957 5.58594 10.5957 5.25391C10.5957 4.43359 11.3965 3.59375 12.4414 3.59375C13.5547 3.59375 14.3262 4.36523 14.3262 5.45898C14.3262 6.17188 14.0527 6.74805 13.2227 7.76367L12.1484 9.07227L12.1484 9.15039L13.9453 9.15039C14.248 9.15039 14.4434 9.32617 14.4434 9.66797C14.4434 9.98047 14.2578 10.1855 13.9453 10.1855Z" fill="#ffffff" fill-opacity="0.85"/>
 </g>
</svg>
