<svg version="1.1" xmlns="http://www.w3.org/2000/svg" xmlns:xlink="http://www.w3.org/1999/xlink" width="18.6621" height="13.9551" viewBox="0 0 18.6621 13.9551">
 <g>
  <rect height="13.9551" opacity="0" width="18.6621" x="0" y="0"/>
  <path d="M18.3008 5.87891L18.3008 8.06641C18.3008 12.2656 16.6113 13.9453 12.0801 13.9453L6.2207 13.9453C1.68945 13.9453 0 12.2656 0 8.06641L0 5.87891C0 1.67969 1.68945 0 6.2207 0L12.0801 0C16.6113 0 18.3008 1.67969 18.3008 5.87891ZM7.74414 4.4043L6.76758 8.48633L6.73828 8.48633L5.75195 4.4043C5.625 3.90625 5.33203 3.67188 4.84375 3.67188C4.28711 3.67188 3.92578 4.01367 3.92578 4.58008L3.92578 9.6875C3.92578 10.0684 4.16016 10.3027 4.50195 10.3027C4.86328 10.3027 5.08789 10.0684 5.08789 9.6875L5.08789 5.6543L5.13672 5.6543L6.12305 9.59961C6.20117 9.94141 6.41602 10.1758 6.75781 10.1758C7.11914 10.1758 7.31445 9.94141 7.39258 9.58984L8.37891 5.6543L8.42773 5.6543L8.42773 9.6875C8.42773 10.0684 8.63281 10.3027 8.99414 10.3027C9.38477 10.3027 9.58008 10.0684 9.58008 9.6875L9.58008 4.58008C9.58008 3.99414 9.21875 3.67188 8.66211 3.67188C8.1543 3.67188 7.87109 3.91602 7.74414 4.4043ZM10.5957 5.25391C10.5957 5.58594 10.7812 5.82031 11.123 5.82031C11.416 5.82031 11.5918 5.68359 11.6895 5.39062C11.8457 4.91211 12.0117 4.60938 12.4316 4.60938C12.8418 4.60938 13.1055 4.9707 13.1055 5.51758C13.1055 6.16211 12.6074 6.83594 12.2168 7.33398L10.918 8.95508C10.752 9.16016 10.5859 9.375 10.5859 9.66797C10.5859 9.96094 10.7617 10.1855 11.1816 10.1855L13.9453 10.1855C14.2578 10.1855 14.4434 9.98047 14.4434 9.66797C14.4434 9.32617 14.248 9.15039 13.9453 9.15039L12.1484 9.15039L12.1484 9.07227L13.2227 7.76367C14.0527 6.74805 14.3262 6.17188 14.3262 5.45898C14.3262 4.36523 13.5547 3.59375 12.4414 3.59375C11.3965 3.59375 10.5957 4.43359 10.5957 5.25391Z" fill="currentColor"/>
 </g>
</svg>
