<?xml version="1.0" encoding="UTF-8"?>
<!--Generator: Apple Native CoreSVG 232.5-->
<!DOCTYPE svg
PUBLIC "-//W3C//DTD SVG 1.1//EN"
       "http://www.w3.org/Graphics/SVG/1.1/DTD/svg11.dtd">
<svg version="1.1" xmlns="http://www.w3.org/2000/svg" xmlns:xlink="http://www.w3.org/1999/xlink" width="26.6211" height="15.8887">
 <g>
  <rect height="15.8887" opacity="0" width="26.6211" x="0" y="0"/>
  <path d="M21.7383 3.26172L21.7383 3.66211L20.3314 3.66211C20.3253 3.22575 20.1007 3.00781 19.6582 3.00781L6.60156 3.00781C6.15234 3.00781 5.9375 3.23242 5.9375 3.68164L5.9375 12.3926L11.7578 12.3926L11.7578 12.9492C11.7578 13.4573 11.8447 13.9102 12.0127 14.2969L2.8418 14.2969C2.33398 14.2969 1.9043 13.8672 1.9043 13.3496C1.9043 12.8223 2.33398 12.3926 2.8418 12.3926L4.52148 12.3926L4.52148 3.26172C4.52148 2.16797 5.17578 1.60156 6.20117 1.60156L20.0586 1.60156C21.1523 1.60156 21.7383 2.16797 21.7383 3.26172Z" fill="#ffffff" fill-opacity="0.55"/>
  <path d="M14.7168 14.7559L23.6523 14.7559C24.8633 14.7559 25.4785 14.1406 25.4785 12.9492L25.4785 6.61133C25.4785 5.41016 24.8633 4.79492 23.6523 4.79492L14.7168 4.79492C13.5156 4.79492 12.9004 5.41016 12.9004 6.61133L12.9004 12.9492C12.9004 14.1406 13.5156 14.7559 14.7168 14.7559ZM14.7266 13.5254C14.3164 13.5254 14.1309 13.3691 14.1309 12.9199L14.1309 6.63086C14.1309 6.19141 14.3164 6.02539 14.7266 6.02539L23.6426 6.02539C24.0527 6.02539 24.2578 6.19141 24.2578 6.63086L24.2578 12.9199C24.2578 13.3691 24.0527 13.5254 23.6426 13.5254ZM17.2363 12.793L21.1426 12.793C21.3672 12.793 21.5332 12.6465 21.5332 12.4121C21.5332 12.168 21.3672 12.0215 21.1426 12.0215L17.2363 12.0215C17.0117 12.0215 16.8457 12.168 16.8457 12.4121C16.8457 12.6465 17.0117 12.793 17.2363 12.793Z" fill="#ffffff" fill-opacity="0.85"/>
 </g>
</svg>
