<?xml version="1.0" encoding="UTF-8"?>
<!--Generator: Apple Native CoreSVG 232.5-->
<!DOCTYPE svg
PUBLIC "-//W3C//DTD SVG 1.1//EN"
       "http://www.w3.org/Graphics/SVG/1.1/DTD/svg11.dtd">
<svg version="1.1" xmlns="http://www.w3.org/2000/svg" xmlns:xlink="http://www.w3.org/1999/xlink" width="14.0625" height="18.2715">
 <g>
  <rect height="18.2715" opacity="0" width="14.0625" x="0" y="0"/>
  <path d="M10.9375 2.93945L11.7969 2.93945C12.1387 2.93945 12.2949 3.11523 12.2949 3.51562L12.2949 15.0781C12.2949 15.5371 12.2363 15.7031 11.7969 15.8789C10.2148 16.5625 8.13477 16.9824 6.12305 16.9922C4.99023 16.9824 3.88672 16.9238 2.69531 16.7285L2.69531 16.8457C5.98633 16.9141 8.99414 15.8984 10.332 14.8926C10.918 14.4434 11.0938 14.1504 11.0938 13.418L11.0938 1.21094C11.0938 0.410156 10.7031 0 9.96094 0C9.7168 0 9.41406 0.0488281 9.0625 0.175781C6.78711 0.927734 4.82422 1.45508 2.03125 1.45508L1.36719 1.45508C0.507812 1.45508 0 1.96289 0 2.72461L0 15.9375C0 16.5332 0.117188 16.9434 0.712891 17.2461C1.93359 17.832 3.91602 18.2617 6.12305 18.2617C8.28125 18.2617 10.6445 17.959 12.4805 17.0898C13.4668 16.6211 13.7012 16.2012 13.7012 15.1758L13.7012 3.50586C13.7012 2.14844 13.1055 1.5332 11.7969 1.5332L10.9375 1.5332ZM1.40625 15.2441L1.40625 3.125C1.40625 2.94922 1.50391 2.8418 1.66992 2.8418L2.09961 2.8418C4.79492 2.8418 7.25586 2.26562 9.30664 1.61133C9.55078 1.5332 9.6875 1.60156 9.6875 1.81641L9.6875 13.125C9.6875 13.5449 9.62891 13.7207 9.20898 13.9844C7.61719 15.0293 5.15625 15.6934 1.66016 15.5078C1.47461 15.498 1.40625 15.4199 1.40625 15.2441ZM2.91992 4.85352L2.91992 7.35352C2.91992 7.4707 3.00781 7.5293 3.10547 7.5293C4.90234 7.51953 6.66992 7.1875 8.04688 6.63086C8.11523 6.60156 8.1543 6.5332 8.1543 6.46484L8.1543 3.83789C8.1543 3.66211 7.99805 3.62305 7.91016 3.66211C6.32812 4.26758 4.84375 4.58008 3.10547 4.6582C2.99805 4.66797 2.91992 4.74609 2.91992 4.85352Z" fill="#ffffff" fill-opacity="0.85"/>
 </g>
</svg>
