<svg version="1.1" xmlns="http://www.w3.org/2000/svg" xmlns:xlink="http://www.w3.org/1999/xlink" width="11.3574" height="15.9082" viewBox="0 0 11.3574 15.9082">
 <g>
  <rect height="15.9082" opacity="0" width="11.3574" x="0" y="0"/>
  <path d="M2.14844 15.8984L8.84766 15.8984C10.1465 15.8984 10.9961 15.0781 10.9961 13.8672L10.9961 2.03125C10.9961 0.820312 10.1465 0 8.84766 0L2.14844 0C0.859375 0 0 0.820312 0 2.03125L0 13.8672C0 15.0781 0.859375 15.8984 2.14844 15.8984ZM2.33398 14.4922C1.77734 14.4922 1.40625 14.1406 1.40625 13.623L1.40625 2.27539C1.40625 1.75781 1.77734 1.40625 2.33398 1.40625L8.66211 1.40625C9.22852 1.40625 9.58984 1.75781 9.58984 2.27539L9.58984 13.623C9.58984 14.1406 9.22852 14.4922 8.66211 14.4922Z" fill="var(--color-primary)"/>
  <path d="M5.50781 12.9395C5.82031 12.9395 6.07422 12.6758 6.07422 12.373L6.07422 10.9277C6.07422 10.6152 5.82031 10.3613 5.50781 10.3613C5.19531 10.3613 4.94141 10.6152 4.94141 10.9277L4.94141 12.373C4.94141 12.6758 5.19531 12.9395 5.50781 12.9395ZM5.50781 9.12109C7.42188 9.12109 8.98438 7.56836 8.98438 5.64453C8.98438 3.7207 7.42188 2.16797 5.50781 2.16797C3.58398 2.16797 2.03125 3.7207 2.03125 5.64453C2.03125 7.56836 3.58398 9.12109 5.50781 9.12109ZM5.50781 8.03711C4.17969 8.03711 3.11523 6.97266 3.11523 5.64453C3.11523 4.31641 4.17969 3.25195 5.50781 3.25195C6.82617 3.25195 7.90039 4.31641 7.90039 5.64453C7.90039 6.97266 6.82617 8.03711 5.50781 8.03711Z" fill="#ffffff" fill-opacity="0.425"/>
 </g>
</svg>
