<?xml version="1.0" encoding="UTF-8"?>
<!--Generator: Apple Native CoreSVG 232.5-->
<!DOCTYPE svg
PUBLIC "-//W3C//DTD SVG 1.1//EN"
       "http://www.w3.org/Graphics/SVG/1.1/DTD/svg11.dtd">
<svg version="1.1" xmlns="http://www.w3.org/2000/svg" xmlns:xlink="http://www.w3.org/1999/xlink" width="18.4766" height="14.248">
 <g>
  <rect height="14.248" opacity="0" width="18.4766" x="0" y="0"/>
  <path d="M3.78906 4.85352L8.59375 4.85352C8.93555 4.85352 9.19922 4.58008 9.19922 4.23828C9.19922 3.89648 8.93555 3.63281 8.59375 3.63281L3.78906 3.63281C3.4375 3.63281 3.18359 3.89648 3.18359 4.23828C3.18359 4.58008 3.4375 4.85352 3.78906 4.85352ZM3.78906 6.95312L7.29492 6.95312C7.63672 6.95312 7.91016 6.68945 7.91016 6.34766C7.91016 6.00586 7.63672 5.73242 7.29492 5.73242L3.78906 5.73242C3.4375 5.73242 3.18359 6.00586 3.18359 6.34766C3.18359 6.68945 3.4375 6.95312 3.78906 6.95312ZM13.0957 7.07031C14.1016 7.07031 14.9219 6.25 14.9219 5.23438C14.9219 4.21875 14.1016 3.39844 13.0957 3.39844C12.0801 3.39844 11.2598 4.21875 11.2598 5.23438C11.2598 6.25 12.0801 7.07031 13.0957 7.07031ZM2.49023 14.248L15.625 14.248C17.2949 14.248 18.1152 13.4277 18.1152 11.7871L18.1152 2.4707C18.1152 0.830078 17.2949 0.00976562 15.625 0.00976562L2.49023 0.00976562C0.830078 0.00976562 0 0.830078 0 2.4707L0 11.7871C0 13.4277 0.830078 14.248 2.49023 14.248ZM2.50977 12.832C1.80664 12.832 1.40625 12.4512 1.40625 11.7188L1.40625 2.53906C1.40625 1.79688 1.80664 1.42578 2.50977 1.42578L15.6055 1.42578C16.3086 1.42578 16.709 1.79688 16.709 2.53906L16.709 11.7188C16.709 12.4512 16.3086 12.832 15.6055 12.832Z" fill="#ffffff" fill-opacity="0.85"/>
 </g>
</svg>
