<svg version="1.1" xmlns="http://www.w3.org/2000/svg" xmlns:xlink="http://www.w3.org/1999/xlink" width="22.4219" height="18.4473" viewBox="0 0 22.4219 18.4473">
 <g>
  <rect height="18.4473" opacity="0" width="22.4219" x="0" y="0"/>
  <path d="M3.37891 13.2489L3.37891 13.8184C3.37891 14.5508 3.7793 14.9316 4.48242 14.9316L10.2441 14.9316L11.6602 16.3477L4.46289 16.3477C2.80273 16.3477 1.97266 15.5273 1.97266 13.8867L1.97266 12.2587C2.38744 12.655 2.86096 12.9891 3.37891 13.2489ZM20.0879 4.57031L20.0879 13.8867C20.0879 15.5273 19.2676 16.3477 17.5977 16.3477L16.7857 16.3477C16.787 16.3382 16.7871 16.3283 16.7871 16.3184C16.7871 15.8028 16.6073 15.303 16.2956 14.9316L17.5781 14.9316C18.2812 14.9316 18.6816 14.5508 18.6816 13.8184L18.6816 4.63867C18.6816 3.89648 18.2812 3.52539 17.5781 3.52539L10.7671 3.52539C10.2271 2.93105 9.5693 2.44713 8.82974 2.10938L17.5977 2.10938C19.2676 2.10938 20.0879 2.92969 20.0879 4.57031ZM2.88421 2.49682C2.91706 2.47204 2.95307 2.45039 2.9918 2.43143Z" fill="currentColor"/>
  <path d="M17.1484 7.71484C17.1484 8.73047 16.3281 9.55078 15.3223 9.55078C14.3066 9.55078 13.4863 8.73047 13.4863 7.71484C13.4863 6.69922 14.3066 5.87891 15.3223 5.87891C16.3281 5.87891 17.1484 6.69922 17.1484 7.71484Z" fill="currentColor"/>
  <path d="M6.21094 13.9355C9.63867 13.9355 12.4219 11.1621 12.4219 7.73438C12.4219 4.30664 9.63867 1.52344 6.21094 1.52344C2.7832 1.52344 0 4.30664 0 7.73438C0 11.1621 2.7832 13.9355 6.21094 13.9355ZM6.21094 12.4414C3.60352 12.4414 1.50391 10.332 1.50391 7.73438C1.50391 5.12695 3.60352 3.02734 6.21094 3.02734C8.80859 3.02734 10.918 5.12695 10.918 7.73438C10.918 10.332 8.80859 12.4414 6.21094 12.4414ZM10.625 10.8496L9.17969 12.2559L13.9551 17.0215C14.1602 17.2363 14.4043 17.3145 14.668 17.3145C15.2344 17.3145 15.6445 16.8848 15.6445 16.3184C15.6445 16.0449 15.5371 15.791 15.3711 15.6152Z" fill="currentColor"/>
  <path d="M3.80859 7.28516L8.61328 7.28516C8.95508 7.28516 9.21875 7.01172 9.21875 6.67969C9.21875 6.33789 8.95508 6.07422 8.61328 6.07422L3.80859 6.07422C3.45703 6.07422 3.20312 6.33789 3.20312 6.67969C3.20312 7.01172 3.45703 7.28516 3.80859 7.28516ZM3.80859 9.38477L7.31445 9.38477C7.65625 9.38477 7.92969 9.12109 7.92969 8.78906C7.92969 8.44727 7.65625 8.17383 7.31445 8.17383L3.80859 8.17383C3.45703 8.17383 3.20312 8.44727 3.20312 8.78906C3.20312 9.12109 3.45703 9.38477 3.80859 9.38477Z" fill="currentColor"/>
 </g>
</svg>
