<?xml version="1.0" encoding="UTF-8"?>
<!--Generator: Apple Native CoreSVG 232.5-->
<!DOCTYPE svg
PUBLIC "-//W3C//DTD SVG 1.1//EN"
       "http://www.w3.org/Graphics/SVG/1.1/DTD/svg11.dtd">
<svg version="1.1" xmlns="http://www.w3.org/2000/svg" xmlns:xlink="http://www.w3.org/1999/xlink" width="17.6218" height="15.7715">
 <g>
  <rect height="15.7715" opacity="0" width="17.6218" x="0" y="0"/>
  <path d="M9.37242 15.7617C13.6791 15.7617 17.263 12.1875 17.263 7.88086C17.263 3.57422 13.6791 0 9.37242 0C5.06578 0 1.49156 3.56445 1.49156 7.87109L2.9857 7.87109C2.9857 4.31641 5.81773 1.49414 9.37242 1.49414C12.9271 1.49414 15.7689 4.32617 15.7689 7.88086C15.7689 11.4355 12.9271 14.2969 9.37242 14.2773C7.28258 14.2676 5.43687 13.291 4.28453 11.7578C4.02086 11.3965 3.60094 11.2891 3.23961 11.5137C2.87828 11.7285 2.79039 12.2168 3.08336 12.5977C4.55797 14.502 6.83336 15.7617 9.37242 15.7617ZM0.602889 6.35742C-0.0123451 6.35742-0.158829 6.77734 0.173202 7.24609L1.91148 9.7168C2.18492 10.0977 2.59508 10.0977 2.85875 9.7168L4.59703 7.23633C4.9193 6.77734 4.76305 6.35742 4.15758 6.35742Z" fill="#ffffff" fill-opacity="0.85"/>
  <path d="M7.09703 11.4941C7.42906 11.4941 7.65367 11.2793 7.65367 10.918L7.65367 8.51562C7.65367 7.09961 8.12242 6.2793 8.8939 6.04492L8.8939 11.0352C8.8939 11.3086 9.08922 11.4941 9.37242 11.4941C9.59703 11.4941 9.82164 11.3086 9.82164 11.0352L9.82164 6.04492C10.6127 6.25 11.1009 7.07031 11.1009 8.51562L11.1009 10.918C11.1009 11.2793 11.3255 11.4941 11.6576 11.4941C11.9896 11.4941 12.2142 11.2793 12.2142 10.918L12.2142 8.45703C12.2142 6.34766 11.2767 5.16602 9.82164 4.96094L9.82164 4.21875C9.82164 3.92578 9.59703 3.76953 9.37242 3.76953C9.08922 3.76953 8.8939 3.92578 8.8939 4.21875L8.8939 4.9707C7.45836 5.17578 6.52086 6.35742 6.52086 8.45703L6.52086 10.918C6.52086 11.2793 6.765 11.4941 7.09703 11.4941Z" fill="#ffffff" fill-opacity="0.85"/>
 </g>
</svg>
