<svg version="1.1" xmlns="http://www.w3.org/2000/svg" xmlns:xlink="http://www.w3.org/1999/xlink" width="16.1328" height="15.7715" viewBox="0 0 16.1328 15.7715">
 <g>
  <rect height="15.7715" opacity="0" width="16.1328" x="0" y="0"/>
  <path d="M15.7715 7.89062C15.7715 12.1973 12.1875 15.7715 7.88086 15.7715C3.58398 15.7715 0 12.1973 0 7.89062C0 3.58398 3.57422 0.00976562 7.87109 0.00976562C12.1777 0.00976562 15.7715 3.58398 15.7715 7.89062ZM7.25586 10.4004C7.25586 11.6504 7.46094 12.832 7.88086 12.832C8.30078 12.832 8.50586 11.6699 8.50586 10.4004L8.50586 9.89576L7.25586 8.64738ZM3.84766 3.85742C3.71094 4.00391 3.71094 4.26758 3.84766 4.4043L11.377 11.9238C11.5234 12.0703 11.7773 12.0703 11.9238 11.9238C12.0801 11.7676 12.0801 11.5234 11.9238 11.377L4.41406 3.85742C4.25781 3.70117 4.01367 3.70117 3.84766 3.85742ZM6.02212 4.63231L8.50586 7.1096L8.50586 6.77734C9.24805 6.5332 9.77539 5.83008 9.77539 4.99023C9.77539 3.95508 8.92578 3.10547 7.88086 3.10547C6.96806 3.10547 6.19195 3.76609 6.02212 4.63231ZM7.98828 4.51172C7.98828 4.82422 7.72461 5.10742 7.39258 5.10742C7.08008 5.10742 6.80664 4.82422 6.80664 4.51172C6.80664 4.18945 7.08008 3.91602 7.39258 3.91602C7.72461 3.91602 7.98828 4.18945 7.98828 4.51172Z" fill="var(--color-primary)"/>
 </g>
</svg>
