<svg version="1.1" xmlns="http://www.w3.org/2000/svg" xmlns:xlink="http://www.w3.org/1999/xlink" width="14.5898" height="14.248" viewBox="0 0 14.5898 14.248">
 <g>
  <rect height="14.248" opacity="0" width="14.5898" x="0" y="0"/>
  <path d="M2.49023 14.248L11.7383 14.248C13.4082 14.248 14.2285 13.4277 14.2285 11.7871L14.2285 2.4707C14.2285 0.830078 13.4082 0.00976562 11.7383 0.00976562L2.49023 0.00976562C0.830078 0.00976562 0 0.830078 0 2.4707L0 11.7871C0 13.4277 0.830078 14.248 2.49023 14.248ZM2.50977 12.832C1.80664 12.832 1.40625 12.4609 1.40625 11.7188L1.40625 2.53906C1.40625 1.80664 1.80664 1.42578 2.50977 1.42578L11.7188 1.42578C12.4219 1.42578 12.8223 1.80664 12.8223 2.53906L12.8223 11.7188C12.8223 12.4609 12.4219 12.832 11.7188 12.832Z" fill="currentColor"/>
  <path d="M5.29297 4.33594C5.29297 5.12695 5.80078 5.80078 6.51367 6.04492L6.51367 9.54102C6.51367 10.7422 6.70898 11.8848 7.11914 11.8848C7.51953 11.8848 7.70508 10.7617 7.70508 9.54102L7.70508 6.04492C8.42773 5.81055 8.93555 5.13672 8.93555 4.33594C8.93555 3.33008 8.11523 2.50977 7.11914 2.50977C6.11328 2.50977 5.29297 3.33008 5.29297 4.33594ZM6.07422 3.86719C6.07422 3.55469 6.34766 3.29102 6.64062 3.29102C6.96289 3.29102 7.22656 3.55469 7.22656 3.86719C7.22656 4.16992 6.96289 4.44336 6.64062 4.44336C6.34766 4.44336 6.07422 4.16992 6.07422 3.86719Z" fill="currentColor"/>
 </g>
</svg>
