<svg version="1.1" xmlns="http://www.w3.org/2000/svg" xmlns:xlink="http://www.w3.org/1999/xlink" width="11.5723" height="17.334" viewBox="0 0 11.5723 17.334">
 <g>
  <rect height="17.334" opacity="0" width="11.5723" x="0" y="0"/>
  <path d="M0 8.00781C0 11.0742 2.01172 13.2129 4.94141 13.4961L4.94141 15.0879L2.1875 15.0879C1.81641 15.0879 1.52344 15.3809 1.52344 15.7422C1.52344 16.1133 1.81641 16.4062 2.1875 16.4062L9.02344 16.4062C9.38477 16.4062 9.67773 16.1133 9.67773 15.7422C9.67773 15.3809 9.38477 15.0879 9.02344 15.0879L6.25977 15.0879L6.25977 13.4961C9.19922 13.2129 11.2109 11.0742 11.2109 8.00781L11.2109 6.42578C11.2109 6.05469 10.918 5.76172 10.5469 5.76172C10.1855 5.76172 9.89258 6.05469 9.89258 6.42578L9.89258 7.94922C9.89258 10.5762 8.20312 12.3047 5.60547 12.3047C3.00781 12.3047 1.31836 10.5762 1.31836 7.94922L1.31836 6.42578C1.31836 6.05469 1.02539 5.76172 0.654297 5.76172C0.292969 5.76172 0 6.05469 0 6.42578ZM5.60547 10.7422C7.14844 10.7422 8.20312 9.60938 8.20312 7.92969L8.20312 2.8125C8.20312 1.13281 7.14844 0 5.60547 0C4.05273 0 2.99805 1.13281 2.99805 2.8125L2.99805 7.92969C2.99805 9.60938 4.05273 10.7422 5.60547 10.7422Z" fill="var(--color-primary)"/>
 </g>
</svg>
