<svg version="1.1" xmlns="http://www.w3.org/2000/svg" xmlns:xlink="http://www.w3.org/1999/xlink" width="16.1328" height="15.7715" viewBox="0 0 16.1328 15.7715">
 <g>
  <rect height="15.7715" opacity="0" width="16.1328" x="0" y="0"/>
  <path d="M7.88086 15.7617C12.1875 15.7617 15.7715 12.1875 15.7715 7.88086C15.7715 3.57422 12.1777 0 7.87109 0C3.57422 0 0 3.57422 0 7.88086C0 12.1875 3.58398 15.7617 7.88086 15.7617ZM7.88086 14.2773C4.33594 14.2773 1.50391 11.4355 1.50391 7.88086C1.50391 4.32617 4.32617 1.48438 7.87109 1.48438C11.4258 1.48438 14.2773 4.32617 14.2773 7.88086C14.2773 11.4355 11.4355 14.2773 7.88086 14.2773Z" fill="currentColor"/>
  <path d="M5.41992 10.7031C5.72266 10.7031 5.94727 10.4883 5.94727 10.166L5.94727 7.02148C5.94727 6.52344 6.23047 6.19141 6.66992 6.19141C7.08008 6.19141 7.35352 6.51367 7.35352 6.99219L7.35352 7.35352L5.72266 11.7773C5.69336 11.8457 5.68359 11.9238 5.68359 12.002C5.68359 12.2266 5.84961 12.3828 6.07422 12.3828C6.26953 12.3828 6.39648 12.2852 6.47461 12.0801L7.35352 9.7168L7.35352 10.166C7.35352 10.4883 7.56836 10.7031 7.88086 10.7031C8.19336 10.7031 8.4082 10.4883 8.4082 10.166L8.4082 7.01172C8.4082 6.51367 8.67188 6.19141 9.12109 6.19141C9.57031 6.19141 9.81445 6.51367 9.81445 7.00195L9.81445 10.166C9.81445 10.4883 10.0293 10.7031 10.3418 10.7031C10.6543 10.7031 10.8691 10.4883 10.8691 10.166L10.8691 6.91406C10.8691 5.87891 10.293 5.23438 9.38477 5.23438C9.28711 5.23438 9.19922 5.25391 9.11133 5.27344L9.69727 3.93555C9.72656 3.86719 9.74609 3.78906 9.74609 3.70117C9.74609 3.48633 9.57031 3.33008 9.33594 3.33008C9.15039 3.33008 9.02344 3.4375 8.94531 3.62305L7.98828 5.86914C7.76367 5.42969 7.39258 5.23438 6.91406 5.23438C6.48438 5.23438 6.12305 5.42969 5.89844 5.84961L5.89844 5.81055C5.89844 5.44922 5.69336 5.25391 5.39062 5.25391C5.08789 5.25391 4.87305 5.47852 4.87305 5.79102L4.87305 10.1758C4.87305 10.4883 5.09766 10.7031 5.41992 10.7031Z" fill="currentColor"/>
 </g>
</svg>
