<?xml version="1.0" encoding="UTF-8"?>
<!--Generator: Apple Native CoreSVG 232.5-->
<!DOCTYPE svg
PUBLIC "-//W3C//DTD SVG 1.1//EN"
       "http://www.w3.org/Graphics/SVG/1.1/DTD/svg11.dtd">
<svg version="1.1" xmlns="http://www.w3.org/2000/svg" xmlns:xlink="http://www.w3.org/1999/xlink" width="16.1328" height="15.7715">
 <g>
  <rect height="15.7715" opacity="0" width="16.1328" x="0" y="0"/>
  <path d="M15.7715 7.88086C15.7715 12.1875 12.1875 15.7617 7.88086 15.7617C3.58398 15.7617 0 12.1875 0 7.88086C0 3.57422 3.57422 0 7.87109 0C12.1777 0 15.7715 3.57422 15.7715 7.88086ZM8.99414 3.4668L7.99805 5.79102C7.77344 5.33203 7.38281 5.13672 6.88477 5.13672C6.43555 5.13672 6.06445 5.33203 5.83008 5.78125L5.83008 5.74219C5.83008 5.35156 5.61523 5.15625 5.30273 5.15625C4.99023 5.15625 4.77539 5.38086 4.77539 5.71289L4.77539 10.2637C4.77539 10.5859 5 10.8105 5.33203 10.8105C5.6543 10.8105 5.87891 10.5859 5.87891 10.2441L5.87891 6.98242C5.87891 6.47461 6.17188 6.12305 6.64062 6.12305C7.06055 6.12305 7.34375 6.46484 7.34375 6.95312L7.34375 7.33398L5.6543 11.9238C5.625 11.9922 5.60547 12.0801 5.60547 12.1582C5.60547 12.3926 5.78125 12.5586 6.02539 12.5586C6.21094 12.5586 6.35742 12.4512 6.42578 12.2363L7.34375 9.79492L7.34375 10.2441C7.34375 10.5859 7.56836 10.8105 7.89062 10.8105C8.21289 10.8105 8.4375 10.5859 8.4375 10.2441L8.4375 6.97266C8.4375 6.46484 8.71094 6.12305 9.17969 6.12305C9.63867 6.12305 9.90234 6.46484 9.90234 6.96289L9.90234 10.2441C9.90234 10.5859 10.127 10.8105 10.4492 10.8105C10.7715 10.8105 10.9961 10.5859 10.9961 10.2441L10.9961 6.875C10.9961 5.80078 10.4004 5.13672 9.44336 5.13672C9.3457 5.13672 9.25781 5.14648 9.16992 5.17578L9.78516 3.78906C9.81445 3.7207 9.83398 3.63281 9.83398 3.54492C9.83398 3.32031 9.63867 3.1543 9.4043 3.1543C9.20898 3.1543 9.08203 3.27148 8.99414 3.4668Z" fill="#ffffff" fill-opacity="0.85"/>
 </g>
</svg>
