<?xml version="1.0" encoding="UTF-8"?>
<!--Generator: Apple Native CoreSVG 232.5-->
<!DOCTYPE svg
PUBLIC "-//W3C//DTD SVG 1.1//EN"
       "http://www.w3.org/Graphics/SVG/1.1/DTD/svg11.dtd">
<svg version="1.1" xmlns="http://www.w3.org/2000/svg" xmlns:xlink="http://www.w3.org/1999/xlink" width="23.4375" height="17.2363">
 <g>
  <rect height="17.2363" opacity="0" width="23.4375" x="0" y="0"/>
  <path d="M21.8848 12.832C21.8848 13.3984 21.377 13.8867 20.7812 13.8867C20.1855 13.8867 19.6777 13.3984 19.6777 12.832C19.6777 12.2461 20.1758 11.7773 20.7812 11.7773C21.3867 11.7773 21.8848 12.2461 21.8848 12.832ZM21.7188 4.26758L21.5332 9.64844C21.5137 10.0977 21.2109 10.4004 20.7812 10.4004C20.3516 10.4004 20.0488 10.0977 20.0293 9.64844L19.8438 4.26758C19.8242 3.71094 20.1953 3.33008 20.7812 3.33008C21.3574 3.33008 21.7383 3.71094 21.7188 4.26758Z" fill="#ffffff" fill-opacity="0.85"/>
  <path d="M12.8516 17.2266L5.56641 17.2266C4.8348 17.2266 4.40825 16.8291 4.38693 16.123L14.031 16.123C14.0097 16.8291 13.5832 17.2266 12.8516 17.2266Z" fill="#ffffff" fill-opacity="0.85"/>
  <path d="M3.68164 13.9062L14.7461 13.9062C15.0593 13.9062 15.3549 13.8816 15.6304 13.8311C15.5433 14.6722 14.9912 15.1367 14.0723 15.1367L4.3457 15.1367C3.42649 15.1367 2.87429 14.6719 2.7875 13.8303C3.06571 13.8814 3.36469 13.9062 3.68164 13.9062Z" fill="#ffffff" fill-opacity="0.85"/>
  <path d="M3.68164 1.66016C2.01172 1.66016 1.19141 2.4707 1.19141 4.11133L1.19141 10.2637C1.19141 11.9043 2.01172 12.7148 3.68164 12.7148L14.7461 12.7148C16.4062 12.7148 17.2363 11.9043 17.2363 10.2637L17.2363 4.11133C17.2363 2.48047 16.4062 1.66016 14.7461 1.66016L14.1504 1.66016L14.1504 0.859375C14.1504 0.3125 13.8379 0 13.291 0L11.377 0C10.8301 0 10.5176 0.3125 10.5176 0.859375L10.5176 1.66016L7.91016 1.66016L7.91016 0.859375C7.91016 0.3125 7.59766 0 7.06055 0L5.12695 0C4.59961 0 4.27734 0.3125 4.27734 0.859375L4.27734 1.66016ZM3.70117 3.06641L14.7266 3.06641C15.4297 3.06641 15.8301 3.44727 15.8301 4.18945L15.8301 10.1855C15.8301 10.9277 15.4297 11.3086 14.7266 11.3086L3.70117 11.3086C2.99805 11.3086 2.59766 10.9277 2.59766 10.1855L2.59766 4.18945C2.59766 3.44727 2.99805 3.06641 3.70117 3.06641ZM4.76562 7.73438L7.43164 7.73438C7.74414 7.73438 7.99805 7.48047 7.99805 7.1582C7.99805 6.8457 7.74414 6.5918 7.43164 6.5918L4.76562 6.5918C4.44336 6.5918 4.19922 6.8457 4.19922 7.1582C4.19922 7.48047 4.44336 7.73438 4.76562 7.73438ZM12.334 9.26758C12.6562 9.26758 12.9004 9.02344 12.9004 8.71094L12.9004 7.73438L13.877 7.73438C14.1895 7.73438 14.4434 7.48047 14.4434 7.1582C14.4434 6.8457 14.1895 6.5918 13.877 6.5918L12.9004 6.5918L12.9004 5.625C12.9004 5.30273 12.6562 5.05859 12.334 5.05859C12.0117 5.05859 11.7676 5.30273 11.7676 5.625L11.7676 6.5918L10.791 6.5918C10.4785 6.5918 10.2246 6.8457 10.2246 7.1582C10.2246 7.48047 10.4785 7.73438 10.791 7.73438L11.7676 7.73438L11.7676 8.71094C11.7676 9.02344 12.0117 9.26758 12.334 9.26758Z" fill="#ffffff" fill-opacity="0.85"/>
 </g>
</svg>
