<?xml version="1.0" encoding="UTF-8"?>
<!--Generator: Apple Native CoreSVG 232.5-->
<!DOCTYPE svg
PUBLIC "-//W3C//DTD SVG 1.1//EN"
       "http://www.w3.org/Graphics/SVG/1.1/DTD/svg11.dtd">
<svg version="1.1" xmlns="http://www.w3.org/2000/svg" xmlns:xlink="http://www.w3.org/1999/xlink" width="17.9103" height="17.5587">
 <g>
  <rect height="17.5587" opacity="0" width="17.9103" x="0" y="0"/>
  <path d="M0.888733 10.5323L7.02155 16.6553C8.19342 17.837 9.34576 17.8467 10.5176 16.6846L16.6797 10.5128C17.8516 9.35065 17.8321 8.1983 16.6505 7.01666L10.5274 0.893616C9.35553-0.288025 8.20319-0.297791 7.03131 0.864319L0.869202 7.03619C-0.302673 8.20807-0.283142 9.35065 0.888733 10.5323ZM1.90436 9.55573C1.40631 9.04791 1.38678 8.5108 1.91412 7.98346L7.97858 1.91901C8.51569 1.39166 9.04303 1.40143 9.55084 1.90924L15.6446 7.99323C16.1524 8.50104 16.1622 9.03815 15.6348 9.56549L9.56061 15.6299C9.03326 16.1573 8.49615 16.1475 7.98834 15.6495Z" fill="#ffffff" fill-opacity="0.85"/>
  <path d="M5.90826 9.51666L11.6505 9.51666C12.1485 9.51666 12.4805 9.26276 12.4805 8.79401C12.4805 8.31549 12.168 8.05182 11.6505 8.05182L5.90826 8.05182C5.40045 8.05182 5.06842 8.31549 5.06842 8.79401C5.06842 9.26276 5.41998 9.51666 5.90826 9.51666Z" fill="#ffffff" fill-opacity="0.85"/>
 </g>
</svg>
