<svg version="1.1" xmlns="http://www.w3.org/2000/svg" xmlns:xlink="http://www.w3.org/1999/xlink" width="16.1328" height="15.7715" viewBox="0 0 16.1328 15.7715">
 <g>
  <rect height="15.7715" opacity="0" width="16.1328" x="0" y="0"/>
  <path d="M15.7715 7.88086C15.7715 12.1875 12.1875 15.7617 7.88086 15.7617C3.58398 15.7617 0 12.1875 0 7.88086C0 3.57422 3.57422 0 7.87109 0C12.1777 0 15.7715 3.57422 15.7715 7.88086ZM4.91211 7.12891C4.375 7.12891 4.0332 7.40234 4.0332 7.90039C4.0332 8.38867 4.39453 8.65234 4.91211 8.65234L10.8691 8.65234C11.3867 8.65234 11.7285 8.38867 11.7285 7.90039C11.7285 7.40234 11.4062 7.12891 10.8691 7.12891Z" fill="var(--color-primary)"/>
 </g>
</svg>
