<svg version="1.1" xmlns="http://www.w3.org/2000/svg" xmlns:xlink="http://www.w3.org/1999/xlink" width="18.4766" height="14.248" viewBox="0 0 18.4766 14.248">
 <g>
  <rect height="14.248" opacity="0" width="18.4766" x="0" y="0"/>
  <path d="M2.49023 14.248L15.625 14.248C17.2949 14.248 18.1152 13.4277 18.1152 11.7871L18.1152 2.4707C18.1152 0.830078 17.2949 0.00976562 15.625 0.00976562L2.49023 0.00976562C0.830078 0.00976562 0 0.830078 0 2.4707L0 11.7871C0 13.4277 0.830078 14.248 2.49023 14.248Z" fill="var(--color-tertiary)"/>
  <path d="M6.08398 7.90039C5.56641 7.90039 5.21484 7.63672 5.21484 7.14844C5.21484 6.65039 5.54688 6.37695 6.08398 6.37695L12.041 6.37695C12.5781 6.37695 12.9102 6.65039 12.9102 7.14844C12.9102 7.63672 12.5586 7.90039 12.041 7.90039Z" fill="var(--color-primary)"/>
 </g>
</svg>
