<svg version="1.1" xmlns="http://www.w3.org/2000/svg" xmlns:xlink="http://www.w3.org/1999/xlink" width="16.1328" height="15.7715" viewBox="0 0 16.1328 15.7715">
 <g>
  <rect height="15.7715" opacity="0" width="16.1328" x="0" y="0"/>
  <path d="M7.88086 15.7617C12.1875 15.7617 15.7715 12.1875 15.7715 7.88086C15.7715 3.57422 12.1777 0 7.87109 0C3.57422 0 0 3.57422 0 7.88086C0 12.1875 3.58398 15.7617 7.88086 15.7617ZM7.88086 14.2773C4.33594 14.2773 1.50391 11.4355 1.50391 7.88086C1.50391 4.32617 4.32617 1.48438 7.87109 1.48438C11.4258 1.48438 14.2773 4.32617 14.2773 7.88086C14.2773 11.4355 11.4355 14.2773 7.88086 14.2773Z" fill="var(--color-primary)"/>
  <path d="M9.7168 6.95312C9.96094 6.95312 10.1465 6.73828 10.1465 6.47461L10.1465 4.85352L10.127 4.61914L10.1855 4.66797L10.5957 5.10742C10.6641 5.17578 10.8008 5.22461 10.8887 5.22461C11.1133 5.22461 11.2695 5.06836 11.2695 4.85352C11.2695 4.74609 11.2402 4.6582 11.1426 4.57031L10.0098 3.51562C9.90234 3.42773 9.81445 3.37891 9.7168 3.37891C9.60938 3.37891 9.52148 3.42773 9.41406 3.51562L8.28125 4.57031C8.18359 4.6582 8.1543 4.74609 8.1543 4.85352C8.1543 5.06836 8.31055 5.22461 8.53516 5.22461C8.63281 5.22461 8.74023 5.17578 8.82812 5.10742L9.30664 4.62891L9.29688 4.63867L9.27734 4.85352L9.27734 6.47461C9.27734 6.73828 9.46289 6.95312 9.7168 6.95312ZM3.99414 11.3867L11.7578 11.3867C11.9922 11.3867 12.2168 11.2012 12.2168 10.957C12.2168 10.7129 12.002 10.5176 11.7578 10.5176L3.99414 10.5176C3.75 10.5176 3.53516 10.7129 3.53516 10.957C3.53516 11.2012 3.75977 11.3867 3.99414 11.3867ZM5.23438 9.94141L10.7617 9.94141C10.8789 9.77539 10.957 9.60938 11.0449 9.41406C11.123 9.23828 11.1035 9.08203 10.9961 8.97461C10.918 8.90625 10.7812 8.88672 10.625 8.94531C10.3418 9.0625 9.99023 9.11133 9.59961 9.11133C7.97852 9.11133 6.93359 8.10547 6.93359 6.5332C6.93359 6.10352 7.00195 5.625 7.11914 5.41016C7.20703 5.24414 7.1875 5.08789 7.11914 4.98047C7.03125 4.88281 6.85547 4.85352 6.66992 4.93164C5.47852 5.39062 4.66797 6.63086 4.66797 8.04688C4.66797 8.75977 4.87305 9.4043 5.23438 9.94141Z" fill="var(--color-primary)"/>
 </g>
</svg>
