<?xml version="1.0" encoding="UTF-8"?>
<!--Generator: Apple Native CoreSVG 232.5-->
<!DOCTYPE svg
PUBLIC "-//W3C//DTD SVG 1.1//EN"
       "http://www.w3.org/Graphics/SVG/1.1/DTD/svg11.dtd">
<svg version="1.1" xmlns="http://www.w3.org/2000/svg" xmlns:xlink="http://www.w3.org/1999/xlink" width="16.875" height="17.5879">
 <g>
  <rect height="17.5879" opacity="0" width="16.875" x="0" y="0"/>
  <path d="M13.8574 9.0332C14.0137 9.0332 14.1309 8.91602 14.1504 8.75C14.375 6.70898 14.502 6.63086 16.5723 6.30859C16.7676 6.2793 16.875 6.19141 16.875 6.01562C16.875 5.85938 16.7676 5.75195 16.6113 5.73242C14.5215 5.33203 14.375 5.33203 14.1504 3.29102C14.1309 3.11523 14.0137 3.00781 13.8574 3.00781C13.6914 3.00781 13.584 3.11523 13.5645 3.28125C13.3105 5.36133 13.2129 5.45898 11.0938 5.73242C10.9473 5.74219 10.8301 5.85938 10.8301 6.01562C10.8301 6.18164 10.9473 6.2793 11.0938 6.30859C13.2129 6.70898 13.3008 6.72852 13.5645 8.76953C13.584 8.91602 13.6914 9.0332 13.8574 9.0332ZM10.1953 3.75C10.293 3.75 10.3516 3.69141 10.3711 3.59375C10.625 2.33398 10.5957 2.31445 11.9141 2.05078C12.002 2.03125 12.0703 1.98242 12.0703 1.875C12.0703 1.76758 12.002 1.71875 11.9141 1.69922C10.5957 1.43555 10.625 1.41602 10.3711 0.15625C10.3516 0.0585938 10.293 0 10.1953 0C10.0879 0 10.0293 0.0585938 10.0098 0.15625C9.75586 1.41602 9.78516 1.43555 8.47656 1.69922C8.37891 1.71875 8.31055 1.76758 8.31055 1.875C8.31055 1.98242 8.37891 2.03125 8.47656 2.05078C9.78516 2.31445 9.76562 2.33398 10.0098 3.59375C10.0293 3.69141 10.0879 3.75 10.1953 3.75Z" fill="#ffffff" fill-opacity="0.55"/>
  <path d="M8.06641 16.0938C10.8398 16.0938 13.1055 14.6875 14.1309 12.2559C14.248 11.9531 14.2383 11.709 14.082 11.5527C13.9648 11.4355 13.7402 11.416 13.4961 11.5137C12.8613 11.7676 12.1289 11.875 11.3281 11.875C7.89062 11.875 5.6543 9.70703 5.6543 6.37695C5.6543 5.48828 5.82031 4.49219 6.06445 4.00391C6.21094 3.7207 6.20117 3.4668 6.08398 3.32031C5.94727 3.1543 5.69336 3.125 5.38086 3.24219C2.95898 4.14062 1.35742 6.67969 1.35742 9.51172C1.35742 13.2812 4.18945 16.0938 8.06641 16.0938Z" fill="#ffffff" fill-opacity="0.85"/>
 </g>
</svg>
