<svg version="1.1" xmlns="http://www.w3.org/2000/svg" xmlns:xlink="http://www.w3.org/1999/xlink" width="16.1328" height="15.7715" viewBox="0 0 16.1328 15.7715">
 <g>
  <rect height="15.7715" opacity="0" width="16.1328" x="0" y="0"/>
  <path d="M7.88086 15.7617C12.1875 15.7617 15.7715 12.1875 15.7715 7.88086C15.7715 3.57422 12.1777 0 7.87109 0C3.57422 0 0 3.57422 0 7.88086C0 12.1875 3.58398 15.7617 7.88086 15.7617ZM7.88086 14.2773C4.33594 14.2773 1.50391 11.4355 1.50391 7.88086C1.50391 4.32617 4.32617 1.48438 7.87109 1.48438C11.4258 1.48438 14.2773 4.32617 14.2773 7.88086C14.2773 11.4355 11.4355 14.2773 7.88086 14.2773Z" fill="var(--color-secondary)"/>
  <path d="M8.10547 12.3438C9.95117 12.3438 11.4844 11.2012 12.0508 9.83398C12.0898 9.7168 12.0996 9.60938 12.0996 9.57031C12.0996 9.39453 11.9629 9.28711 11.8359 9.28711C11.7773 9.28711 11.7188 9.29688 11.6309 9.32617C11.3086 9.42383 10.791 9.54102 10.2832 9.54102C7.96875 9.54102 6.52344 8.13477 6.52344 5.82031C6.52344 5.38086 6.66016 4.6582 6.79688 4.31641C6.8457 4.19922 6.8457 4.13086 6.8457 4.10156C6.8457 3.98438 6.75781 3.83789 6.58203 3.83789C6.52344 3.83789 6.41602 3.84766 6.29883 3.89648C4.7168 4.54102 3.64258 6.23047 3.64258 8.02734C3.64258 10.5664 5.56641 12.3438 8.10547 12.3438Z" fill="var(--color-primary)"/>
 </g>
</svg>
