<svg version="1.1" xmlns="http://www.w3.org/2000/svg" xmlns:xlink="http://www.w3.org/1999/xlink" width="16.875" height="17.5879" viewBox="0 0 16.875 17.5879">
 <g>
  <rect height="17.5879" opacity="0" width="16.875" x="0" y="0"/>
  <path d="M13.8574 9.0332C14.0137 9.0332 14.1309 8.91602 14.1504 8.75C14.375 6.70898 14.502 6.63086 16.5723 6.30859C16.7676 6.2793 16.875 6.19141 16.875 6.01562C16.875 5.85938 16.7676 5.75195 16.6113 5.73242C14.5215 5.33203 14.375 5.33203 14.1504 3.29102C14.1309 3.11523 14.0137 3.00781 13.8574 3.00781C13.6914 3.00781 13.584 3.11523 13.5645 3.28125C13.3105 5.36133 13.2129 5.45898 11.0938 5.73242C10.9473 5.74219 10.8301 5.85938 10.8301 6.01562C10.8301 6.18164 10.9473 6.2793 11.0938 6.30859C13.2129 6.70898 13.3008 6.72852 13.5645 8.76953C13.584 8.91602 13.6914 9.0332 13.8574 9.0332ZM10.1953 3.75C10.293 3.75 10.3516 3.69141 10.3711 3.59375C10.625 2.33398 10.5957 2.31445 11.9141 2.05078C12.002 2.03125 12.0703 1.98242 12.0703 1.875C12.0703 1.76758 12.002 1.71875 11.9141 1.69922C10.5957 1.43555 10.625 1.41602 10.3711 0.15625C10.3516 0.0585938 10.293 0 10.1953 0C10.0879 0 10.0293 0.0585938 10.0098 0.15625C9.75586 1.41602 9.78516 1.43555 8.47656 1.69922C8.37891 1.71875 8.31055 1.76758 8.31055 1.875C8.31055 1.98242 8.37891 2.03125 8.47656 2.05078C9.78516 2.31445 9.76562 2.33398 10.0098 3.59375C10.0293 3.69141 10.0879 3.75 10.1953 3.75Z" fill="var(--color-secondary)"/>
  <path d="M8.1543 16.0938C10.9863 16.0938 13.2715 14.6484 14.3066 12.1973C14.4531 11.8359 14.4043 11.5625 14.2383 11.3965C14.0918 11.25 13.8379 11.2207 13.5547 11.3379C12.9785 11.5625 12.2754 11.6895 11.416 11.6895C8.02734 11.6895 5.83984 9.56055 5.83984 6.28906C5.83984 5.32227 6.02539 4.375 6.24023 3.95508C6.39648 3.62305 6.38672 3.33984 6.25 3.17383C6.09375 2.98828 5.82031 2.91992 5.42969 3.06641C3.01758 3.99414 1.35742 6.52344 1.35742 9.41406C1.35742 13.2031 4.18945 16.0938 8.1543 16.0938ZM8.17383 14.7559C4.98047 14.7559 2.69531 12.4316 2.69531 9.30664C2.69531 7.49023 3.47656 5.84961 4.81445 4.76562C4.64844 5.25391 4.56055 5.97656 4.56055 6.66992C4.56055 10.4102 7.19727 12.9785 11.0645 12.9785C11.6992 12.9785 12.2852 12.9102 12.5684 12.8223C11.6113 14.0234 9.98047 14.7559 8.17383 14.7559Z" fill="var(--color-primary)"/>
 </g>
</svg>
