<?xml version="1.0" encoding="UTF-8"?>
<!--Generator: Apple Native CoreSVG 232.5-->
<!DOCTYPE svg
PUBLIC "-//W3C//DTD SVG 1.1//EN"
       "http://www.w3.org/Graphics/SVG/1.1/DTD/svg11.dtd">
<svg version="1.1" xmlns="http://www.w3.org/2000/svg" xmlns:xlink="http://www.w3.org/1999/xlink" width="27.6043" height="14.0527">
 <g>
  <rect height="14.0527" opacity="0" width="27.6043" x="0" y="0"/>
  <path d="M9.06096 4.3457L11.3593 7.18712L9.75109 9.3012C8.6585 9.24704 8.19222 8.37891 7.62542 8.37891C7.03948 8.37891 6.56096 9.30664 5.38909 9.30664C4.97109 9.30664 4.64055 9.10099 4.36171 8.83822L1.60003 12.2559C1.45354 12.4316 1.54143 12.6465 1.77581 12.6465L7.63963 12.6465C7.63047 13.3809 8.12083 14.0527 9.13909 14.0527L1.54143 14.0527C-0.0698964 14.0527-0.411693 12.5 0.486744 11.3965L6.18987 4.3457C6.62932 3.80859 7.12737 3.53516 7.62542 3.53516C8.12346 3.53516 8.62151 3.80859 9.06096 4.3457ZM7.27385 5.23438L4.95526 8.10369C5.10753 8.25707 5.24918 8.35938 5.38909 8.35938C5.93596 8.35938 6.50237 7.44141 7.62542 7.44141C8.74846 7.44141 9.31487 8.35938 9.86174 8.35938C10.0007 8.35938 10.1413 8.25851 10.2924 8.10685L7.96721 5.23438C7.86956 5.11719 7.7426 5.04883 7.62542 5.04883C7.50823 5.04883 7.38128 5.11719 7.27385 5.23438Z" fill="#ffffff" fill-opacity="0.55"/>
  <path d="M9.13909 14.0527L25.7504 14.0527C27.2641 14.0527 27.6059 12.5391 26.8735 11.5723L18.8949 1.09375C18.0649 0.00976562 16.8344-0.00976562 15.9946 1.09375L8.01604 11.582C7.27385 12.5488 7.61565 14.0527 9.13909 14.0527ZM9.45159 12.6465C9.20745 12.6465 9.12932 12.4414 9.26604 12.2559L17.0883 1.98242C17.2739 1.72852 17.6157 1.73828 17.7914 1.97266L25.6137 12.2461C25.7602 12.4316 25.6821 12.6465 25.4282 12.6465ZM14.9496 7.33398C16.2485 7.33398 16.7953 6.32812 17.4399 6.32812C18.0942 6.32812 18.6313 7.33398 19.9301 7.33398C20.7211 7.33398 21.2485 6.66016 21.6684 6.15234L21.0043 5.35156C20.5844 5.82031 20.2621 6.28906 19.9301 6.28906C19.3149 6.28906 18.6899 5.2832 17.4399 5.2832C16.1899 5.2832 15.5746 6.28906 14.9496 6.28906C14.6274 6.28906 14.3051 5.82031 13.8754 5.35156L13.2114 6.15234C13.641 6.66016 14.1586 7.33398 14.9496 7.33398Z" fill="#ffffff" fill-opacity="0.85"/>
 </g>
</svg>
