<svg version="1.1" xmlns="http://www.w3.org/2000/svg" xmlns:xlink="http://www.w3.org/1999/xlink" width="15.5664" height="16.5332" viewBox="0 0 15.5664 16.5332">
 <g>
  <rect height="16.5332" opacity="0" width="15.5664" x="0" y="0"/>
  <path d="M5.41992 16.5234L6.96289 16.5234C10.3027 16.5234 12.3926 14.7656 12.3926 11.9531L12.3926 2.27539C12.3926 0.810547 9.74609 0 6.19141 0C2.63672 0 0 0.810547 0 2.27539L0 11.9531C0 14.7656 2.08984 16.5234 5.41992 16.5234ZM6.19141 2.57812C3.51562 2.57812 1.68945 2.31445 1.68945 1.9043C1.68945 1.48438 3.51562 1.2207 6.19141 1.2207C8.87695 1.2207 10.7031 1.48438 10.7031 1.9043C10.7031 2.31445 8.87695 2.57812 6.19141 2.57812ZM11.4355 11.8652L12.8125 11.8652C14.2578 11.8652 15.2051 10.8691 15.2051 9.41406L15.2051 6.45508C15.2051 5 14.2578 4.01367 12.8125 4.01367L11.4355 4.01367L11.4355 5.32227L12.8125 5.32227C13.5938 5.32227 13.8867 5.625 13.8867 6.45508L13.8867 9.41406C13.8867 10.2441 13.5938 10.5469 12.8125 10.5469L11.4355 10.5469Z" fill="currentColor"/>
 </g>
</svg>
