<svg version="1.1" xmlns="http://www.w3.org/2000/svg" xmlns:xlink="http://www.w3.org/1999/xlink" width="17.666" height="17.3121" viewBox="0 0 17.666 17.3121">
 <g>
  <rect height="17.3121" opacity="0" width="17.666" x="0" y="0"/>
  <path d="M2.91937 5.23097C2.30475 6.23467 1.95312 7.40844 1.95312 8.65118C1.95312 8.73536 1.95474 8.81921 1.96607 8.90091C2.71268 9.54072 3.52703 10.0674 4.38606 10.4786C4.39771 9.35708 4.57371 8.25835 4.89845 7.20867L5.73481 8.04445C5.50431 8.97456 5.39108 9.94014 5.40121 10.9219C6.30175 11.2685 7.23842 11.4975 8.18736 11.608C8.06643 11.1558 7.97696 10.6947 7.91894 10.2271L9.25305 11.5602L9.28919 11.6878L9.38009 11.6872L10.3863 12.6927C10.136 12.7165 9.88503 12.7248 9.63426 12.7172C9.93572 13.5121 10.3301 14.2731 10.8133 14.9863C11.2614 14.8369 11.6865 14.635 12.0812 14.3864L12.9347 15.2393C11.6978 16.0566 10.2231 16.532 8.65234 16.532C4.35547 16.532 0.771484 12.9578 0.771484 8.65118C0.771484 7.08158 1.24626 5.60926 2.06246 4.37465ZM6.10143 14.8392C6.8902 15.1748 7.75291 15.3602 8.65234 15.3602C9.02742 15.3602 9.39605 15.3281 9.75331 15.259C9.23053 14.4451 8.81394 13.5779 8.50833 12.6729C7.47219 12.5944 6.44705 12.3828 5.45815 12.0464C5.55206 13.0006 5.76685 13.9349 6.10143 14.8392ZM4.76961 14.0814C4.56101 13.2753 4.43396 12.4555 4.38836 11.63C3.62297 11.297 2.88729 10.8836 2.19601 10.3884C2.60158 11.8887 3.53069 13.1912 4.76961 14.0814ZM16.543 8.65118C16.543 10.2225 16.0658 11.6964 15.2465 12.9319L14.3897 12.0758C14.4723 11.9543 14.5445 11.826 14.6077 11.6926L14.1759 11.8622L13.3666 11.0534C13.9798 10.852 14.5775 10.5878 15.152 10.2601C15.2913 9.74508 15.3613 9.20498 15.3613 8.65118C15.3613 7.98945 15.261 7.34727 15.0721 6.74035C14.0434 7.52348 12.8749 8.07419 11.6338 8.37064C11.8448 9.00776 12.1196 9.60689 12.4608 10.1482L9.90184 7.59104C10.05 7.58922 10.1961 7.57609 10.3398 7.55253C10.1613 6.72662 10.0708 5.8635 10.0684 4.98908C10.0684 4.20701 10.1583 3.44293 10.3436 2.70355C9.64278 3.92669 9.17964 5.2634 8.96802 6.65788L8.07933 5.7698C8.36233 4.45179 8.8531 3.18166 9.54656 2.01138L9.39989 1.98843C8.4752 2.80048 7.69542 3.73997 7.07955 4.77071L6.33778 4.02947C6.78347 3.2928 7.31791 2.60747 7.93051 1.98416C6.95097 2.09079 6.03116 2.4172 5.22451 2.91697L4.37112 2.06417C5.60678 1.24627 7.08079 0.770326 8.65234 0.770326C12.9492 0.770326 16.543 4.34454 16.543 8.65118ZM11.1035 4.98908C11.106 5.80314 11.1913 6.60492 11.3603 7.36842C12.5668 7.08368 13.6917 6.52727 14.6645 5.7299C13.9878 4.3492 12.8433 3.22643 11.4476 2.57749C11.2176 3.35615 11.1035 4.16961 11.1035 4.98908Z" fill="var(--color-secondary)"/>
  <path d="M15.2051 16.161C15.4688 16.4246 15.8984 16.4149 16.1523 16.1512C16.4062 15.8875 16.416 15.4676 16.1523 15.2039L2.10938 1.15118C1.8457 0.887513 1.41602 0.887513 1.15234 1.15118C0.898438 1.40509 0.898438 1.84454 1.15234 2.09845Z" fill="var(--color-primary)"/>
 </g>
</svg>
