<?xml version="1.0" encoding="UTF-8"?>
<!--Generator: Apple Native CoreSVG 232.5-->
<!DOCTYPE svg
PUBLIC "-//W3C//DTD SVG 1.1//EN"
       "http://www.w3.org/Graphics/SVG/1.1/DTD/svg11.dtd">
<svg version="1.1" xmlns="http://www.w3.org/2000/svg" xmlns:xlink="http://www.w3.org/1999/xlink" width="15.9375" height="14.9121">
 <g>
  <rect height="14.9121" opacity="0" width="15.9375" x="0" y="0"/>
  <path d="M5.37109 14.9121L10.1953 14.9121C11.084 14.9121 11.5723 14.6289 12.0508 14.1113L14.9121 10.9082C15.4395 10.3125 15.5762 9.94141 15.5762 9.16992L15.5762 5.74219C15.5762 4.9707 15.4395 4.59961 14.9121 4.00391L12.0508 0.800781C11.5723 0.283203 11.084 0 10.1953 0L5.37109 0C4.49219 0 3.99414 0.283203 3.52539 0.800781L0.654297 4.00391C0.136719 4.59961 0 4.9707 0 5.74219L0 9.16992C0 9.94141 0.136719 10.3125 0.654297 10.9082L3.52539 14.1113C3.99414 14.6289 4.49219 14.9121 5.37109 14.9121ZM1.63086 7.45117L1.63086 5.91797C1.63086 5.37109 1.69922 5.18555 1.99219 4.85352L4.59961 1.95312C4.98047 1.54297 5.19531 1.40625 5.86914 1.40625L9.69727 1.40625C10.3809 1.40625 10.5957 1.54297 10.9766 1.95312L13.584 4.85352C13.877 5.18555 13.9453 5.37109 13.9453 5.91797L13.9453 7.45117Z" fill="#ffffff" fill-opacity="0.85"/>
 </g>
</svg>
