<?xml version="1.0" encoding="UTF-8"?>
<!--Generator: Apple Native CoreSVG 232.5-->
<!DOCTYPE svg
PUBLIC "-//W3C//DTD SVG 1.1//EN"
       "http://www.w3.org/Graphics/SVG/1.1/DTD/svg11.dtd">
<svg version="1.1" xmlns="http://www.w3.org/2000/svg" xmlns:xlink="http://www.w3.org/1999/xlink" width="19.082" height="13.2324">
 <g>
  <rect height="13.2324" opacity="0" width="19.082" x="0" y="0"/>
  <path d="M9.35547 13.2227C14.3652 13.2227 18.7207 9.66797 18.7207 6.61133C18.7207 3.55469 14.3652 0 9.35547 0C4.35547 0 0 3.55469 0 6.61133C0 9.66797 4.35547 13.2227 9.35547 13.2227ZM9.35547 11.9434C4.7168 11.9434 1.28906 8.70117 1.28906 6.61133C1.28906 4.52148 4.7168 1.2793 9.35547 1.2793C14.0039 1.2793 17.4414 4.52148 17.4414 6.61133C17.4414 8.70117 14.0039 11.9434 9.35547 11.9434Z" fill="#ffffff" fill-opacity="0.55"/>
  <path d="M9.375 11.2402C12.4512 11.2402 13.916 8.4668 13.916 7.42188C13.916 7.16797 13.7012 6.94336 13.4375 6.94336C13.2129 6.94336 12.9883 7.11914 12.9492 7.32422C12.6074 9.01367 11.1426 10.2539 9.375 10.2539C8.63281 10.2539 7.92969 10.0586 7.34375 9.64844C7.25586 9.60938 7.17773 9.58008 7.08008 9.58008C6.79688 9.58008 6.60156 9.80469 6.60156 10.0781C6.60156 10.2246 6.66016 10.3809 6.80664 10.4785C7.53906 10.9668 8.42773 11.2402 9.375 11.2402ZM4.74609 6.61133C4.74609 7.55859 5.01953 8.4375 5.50781 9.17969C5.60547 9.32617 5.76172 9.38477 5.9082 9.38477C6.15234 9.38477 6.40625 9.21875 6.40625 8.89648C6.40625 8.78906 6.37695 8.70117 6.32812 8.61328C5.92773 8.05664 5.73242 7.35352 5.73242 6.61133C5.73242 5.86914 5.9375 5.17578 6.32812 4.60938C6.37695 4.52148 6.40625 4.42383 6.40625 4.32617C6.40625 4.04297 6.18164 3.83789 5.9082 3.83789C5.76172 3.83789 5.60547 3.89648 5.50781 4.04297C5.01953 4.78516 4.74609 5.66406 4.74609 6.61133ZM9.375 1.98242C8.42773 1.98242 7.53906 2.25586 6.80664 2.74414C6.66016 2.8418 6.5918 2.99805 6.5918 3.14453C6.5918 3.42773 6.81641 3.65234 7.09961 3.65234C7.1875 3.65234 7.28516 3.62305 7.37305 3.57422C7.93945 3.18359 8.64258 2.96875 9.375 2.96875C11.1426 2.96875 12.6074 4.20898 12.9492 5.89844C12.9883 6.10352 13.2129 6.2793 13.4375 6.2793C13.7012 6.2793 13.916 6.05469 13.916 5.80078C13.916 4.75586 12.4512 1.98242 9.375 1.98242Z" fill="#ffffff" fill-opacity="0.85"/>
  <path d="M9.375 9.58984C10.1172 9.58984 10.7812 9.32617 11.2891 8.89648C11.416 8.7793 11.4844 8.63281 11.4844 8.49609C11.4844 8.22266 11.2598 8.00781 10.9863 8.00781C10.8691 8.00781 10.752 8.04688 10.6641 8.13477C10.3516 8.4375 9.90234 8.60352 9.41406 8.60352C8.24219 8.60352 7.37305 7.68555 7.37305 6.60156C7.37305 5.73242 7.92969 5.00977 8.71094 4.72656C8.90625 4.66797 9.04297 4.46289 9.04297 4.27734C9.04297 3.98438 8.80859 3.7793 8.55469 3.7793C7.8418 3.7793 6.38672 4.98047 6.38672 6.63086C6.38672 8.25195 7.70508 9.58984 9.375 9.58984ZM12.3438 6.61133C12.3438 4.95117 10.8984 3.7793 10.2051 3.7793C9.94141 3.7793 9.70703 3.98438 9.70703 4.27734C9.70703 4.46289 9.84375 4.66797 10.0391 4.72656C10.8105 5.00977 11.3672 5.73242 11.3672 6.61133C11.3672 6.72852 11.3184 6.97266 11.3184 7.06055C11.3184 7.40234 11.5625 7.55859 11.8262 7.55859C12.1484 7.55859 12.2656 7.36328 12.3145 7.11914C12.3438 6.96289 12.3438 6.77734 12.3438 6.61133Z" fill="#ffffff" fill-opacity="0.85"/>
  <path d="M9.375 7.92969C10.0977 7.92969 10.6934 7.33398 10.6934 6.61133C10.6934 5.88867 10.0977 5.29297 9.375 5.29297C8.65234 5.29297 8.05664 5.88867 8.05664 6.61133C8.05664 7.33398 8.65234 7.92969 9.375 7.92969Z" fill="#ffffff" fill-opacity="0.85"/>
 </g>
</svg>
