<?xml version="1.0" encoding="UTF-8"?>
<!--Generator: Apple Native CoreSVG 232.5-->
<!DOCTYPE svg
PUBLIC "-//W3C//DTD SVG 1.1//EN"
       "http://www.w3.org/Graphics/SVG/1.1/DTD/svg11.dtd">
<svg version="1.1" xmlns="http://www.w3.org/2000/svg" xmlns:xlink="http://www.w3.org/1999/xlink" width="16.1328" height="15.7715">
 <g>
  <rect height="15.7715" opacity="0" width="16.1328" x="0" y="0"/>
  <path d="M5.625 15.4199C6.34766 15.6445 7.10938 15.7617 7.88086 15.7617C12.1875 15.7617 15.7715 12.1875 15.7715 7.88086C15.7715 7.10938 15.6543 6.36719 15.4395 5.66406L11.3184 7.11914C11.377 7.36328 11.4062 7.61719 11.4062 7.88086C11.4062 9.83398 9.83398 11.3965 7.89062 11.4062C7.60742 11.4062 7.34375 11.377 7.08008 11.3184ZM15.1953 4.99023C14.9805 4.43359 14.6973 3.90625 14.3555 3.41797L10.8984 6.09375C10.9766 6.21094 11.0352 6.32812 11.084 6.45508ZM13.916 2.86133C13.1055 1.875 12.0605 1.10352 10.8691 0.605469L9.4043 4.73633C9.80469 4.92188 10.166 5.19531 10.4688 5.51758ZM10.1953 0.361328C9.46289 0.126953 8.68164 0 7.87109 0C3.57422 0 0 3.57422 0 7.88086C0 8.69141 0.126953 9.49219 0.371094 10.2344L4.49219 8.76953C4.41406 8.48633 4.375 8.19336 4.375 7.88086C4.375 5.9668 5.9668 4.39453 7.90039 4.39453C8.18359 4.39453 8.4668 4.42383 8.73047 4.49219ZM0.625 10.8984C0.849609 11.4453 1.14258 11.9531 1.48438 12.4316L4.92188 9.77539C4.86328 9.67773 4.80469 9.56055 4.74609 9.44336ZM1.92383 12.998C2.74414 13.9453 3.7793 14.707 4.95117 15.1758L6.39648 11.084C6.01562 10.8984 5.66406 10.6543 5.38086 10.3418ZM7.89062 10.5469C9.35547 10.5469 10.5371 9.35547 10.5371 7.88086C10.5371 6.43555 9.3457 5.25391 7.89062 5.25391C6.43555 5.25391 5.23438 6.44531 5.23438 7.88086C5.23438 9.36523 6.42578 10.5469 7.89062 10.5469ZM7.89062 9.77539C6.86523 9.77539 6.00586 8.93555 6.00586 7.90039C6.00586 6.86523 6.86523 6.02539 7.89062 6.02539C8.91602 6.02539 9.77539 6.86523 9.77539 7.89062C9.77539 8.93555 8.91602 9.77539 7.89062 9.77539ZM7.89062 8.82812C8.39844 8.83789 8.81836 8.4082 8.81836 7.89062C8.81836 7.39258 8.39844 6.96289 7.90039 6.96289C7.37305 6.96289 6.96289 7.39258 6.96289 7.89062C6.96289 8.4082 7.37305 8.82812 7.89062 8.82812Z" fill="#ffffff" fill-opacity="0.85"/>
 </g>
</svg>
