<?xml version="1.0" encoding="UTF-8"?>
<!--Generator: Apple Native CoreSVG 232.5-->
<!DOCTYPE svg
PUBLIC "-//W3C//DTD SVG 1.1//EN"
       "http://www.w3.org/Graphics/SVG/1.1/DTD/svg11.dtd">
<svg version="1.1" xmlns="http://www.w3.org/2000/svg" xmlns:xlink="http://www.w3.org/1999/xlink" width="16.1328" height="15.7715">
 <g>
  <rect height="15.7715" opacity="0" width="16.1328" x="0" y="0"/>
  <path d="M7.88086 15.7617C12.1875 15.7617 15.7715 12.1875 15.7715 7.88086C15.7715 3.57422 12.1777 0 7.87109 0C3.57422 0 0 3.57422 0 7.88086C0 12.1875 3.58398 15.7617 7.88086 15.7617ZM7.88086 14.2773C4.33594 14.2773 1.50391 11.4355 1.50391 7.88086C1.50391 4.32617 4.32617 1.48438 7.87109 1.48438C11.4258 1.48438 14.2773 4.32617 14.2773 7.88086C14.2773 11.4355 11.4355 14.2773 7.88086 14.2773Z" fill="#ffffff" fill-opacity="0.55"/>
  <path d="M6.23047 11.3965C6.68945 11.3965 6.94336 11.1035 6.94336 10.6152L6.94336 9.11133L8.35938 9.11133C9.92188 9.11133 10.9473 8.16406 10.9473 6.69922C10.9473 5.25391 9.91211 4.27734 8.36914 4.27734L6.23047 4.27734C5.78125 4.27734 5.54688 4.59961 5.54688 5.06836L5.54688 10.6152C5.54688 11.084 5.78125 11.3965 6.23047 11.3965ZM6.94336 8.06641L6.94336 5.33203L8.1543 5.33203C9.04297 5.33203 9.58008 5.83984 9.58008 6.69922C9.58008 7.55859 9.05273 8.06641 8.1543 8.06641Z" fill="#ffffff" fill-opacity="0.85"/>
 </g>
</svg>
