<svg version="1.1" xmlns="http://www.w3.org/2000/svg" xmlns:xlink="http://www.w3.org/1999/xlink" width="16.1328" height="15.7715" viewBox="0 0 16.1328 15.7715">
 <g>
  <rect height="15.7715" opacity="0" width="16.1328" x="0" y="0"/>
  <path d="M15.7715 7.88086C15.7715 12.1875 12.1875 15.7617 7.88086 15.7617C3.58398 15.7617 0 12.1875 0 7.88086C0 3.57422 3.57422 0 7.87109 0C12.1777 0 15.7715 3.57422 15.7715 7.88086ZM6.19141 4.14062C5.72266 4.14062 5.47852 4.48242 5.47852 4.9707L5.47852 10.7129C5.47852 11.2012 5.72266 11.543 6.19141 11.543C6.66992 11.543 6.92383 11.2207 6.92383 10.7129L6.92383 9.16016L8.38867 9.16016C10.0195 9.16016 11.0742 8.17383 11.0742 6.65039C11.0742 5.14648 10.0098 4.14062 8.39844 4.14062ZM9.64844 6.65039C9.64844 7.54883 9.10156 8.07617 8.17383 8.07617L6.92383 8.07617L6.92383 5.23438L8.17383 5.23438C9.10156 5.23438 9.64844 5.76172 9.64844 6.65039Z" fill="var(--color-primary)"/>
 </g>
</svg>
