<svg version="1.1" xmlns="http://www.w3.org/2000/svg" xmlns:xlink="http://www.w3.org/1999/xlink" width="18.6621" height="13.9551" viewBox="0 0 18.6621 13.9551">
 <g>
  <rect height="13.9551" opacity="0" width="18.6621" x="0" y="0"/>
  <path d="M6.2207 13.9453L12.0801 13.9453C16.6113 13.9453 18.3008 12.2656 18.3008 8.06641L18.3008 5.87891C18.3008 1.67969 16.6113 0 12.0801 0L6.2207 0C1.68945 0 0 1.67969 0 5.87891L0 8.06641C0 12.2656 1.68945 13.9453 6.2207 13.9453ZM6.2207 12.5293C2.63672 12.5293 1.40625 11.3965 1.40625 8.06641L1.40625 5.87891C1.40625 2.54883 2.63672 1.41602 6.2207 1.41602L12.0801 1.41602C15.6641 1.41602 16.8848 2.54883 16.8848 5.87891L16.8848 8.06641C16.8848 11.3965 15.6641 12.5293 12.0801 12.5293Z" fill="currentColor"/>
  <path d="M5.57617 10.1465C5.98633 10.1465 6.20117 9.90234 6.20117 9.49219L6.20117 8.0957L6.96289 8.0957C8.1543 8.0957 8.83789 7.17773 8.83789 5.98633C8.83789 4.80469 8.18359 3.86719 7.03125 3.86719L5.56641 3.86719C5.20508 3.86719 4.95117 4.11133 4.95117 4.53125L4.95117 9.49219C4.95117 9.90234 5.17578 10.1465 5.57617 10.1465ZM6.20117 7.10938L6.20117 4.87305L6.71875 4.87305C7.31445 4.87305 7.59766 5.29297 7.59766 5.98633C7.59766 6.63086 7.35352 7.10938 6.70898 7.10938ZM10.1562 10.0684L12.8223 10.0684C13.125 10.0684 13.3008 9.87305 13.3008 9.57031C13.3008 9.24805 13.1152 9.0625 12.8223 9.0625L11.0938 9.0625L11.0938 9.00391L12.1289 7.74414C12.9297 6.75781 13.1934 6.19141 13.1934 5.51758C13.1934 4.45312 12.4512 3.71094 11.3672 3.71094C10.3711 3.71094 9.58984 4.52148 9.58984 5.3125C9.58984 5.63477 9.77539 5.85938 10.0977 5.85938C10.3809 5.85938 10.5566 5.73242 10.6445 5.44922C10.8008 4.98047 10.9668 4.69727 11.3574 4.69727C11.7676 4.69727 12.0117 5.04883 12.0117 5.57617C12.0117 6.19141 11.543 6.83594 11.1523 7.32422L9.91211 8.87695C9.74609 9.08203 9.58008 9.29688 9.58008 9.57031C9.58008 9.85352 9.76562 10.0684 10.1562 10.0684Z" fill="currentColor"/>
 </g>
</svg>
