<?xml version="1.0" encoding="UTF-8"?>
<!--Generator: Apple Native CoreSVG 232.5-->
<!DOCTYPE svg
PUBLIC "-//W3C//DTD SVG 1.1//EN"
       "http://www.w3.org/Graphics/SVG/1.1/DTD/svg11.dtd">
<svg version="1.1" xmlns="http://www.w3.org/2000/svg" xmlns:xlink="http://www.w3.org/1999/xlink" width="27.0508" height="17.2559">
 <g>
  <rect height="17.2559" opacity="0" width="27.0508" x="0" y="0"/>
  <path d="M1.10352 15.9082C1.76758 15.9082 2.20703 15.4492 2.20703 14.7754L2.20703 10.7812L5.15625 10.7812C7.91992 10.7812 9.87305 8.81836 9.87305 6.06445C9.87305 3.29102 7.92969 1.35742 5.16602 1.35742L1.10352 1.35742C0.439453 1.35742 0 1.80664 0 2.49023L0 14.7754C0 15.459 0.439453 15.9082 1.10352 15.9082ZM2.20703 8.75977L2.20703 3.37891L4.73633 3.37891C6.5918 3.37891 7.62695 4.33594 7.62695 6.06445C7.62695 7.7832 6.5918 8.75977 4.73633 8.75977ZM18.8086 17.2559C23.1152 17.2559 26.6895 13.6816 26.6895 9.375C26.6895 5.06836 23.1055 1.49414 18.7988 1.49414C14.4922 1.49414 10.9277 5.06836 10.9277 9.375C10.9277 13.6816 14.502 17.2559 18.8086 17.2559ZM13.6621 5.57617C14.8145 3.99414 16.6699 2.97852 18.7891 2.97852C20.9082 2.97852 22.7734 3.99414 23.9258 5.56641C24.2773 6.04492 24.1211 6.61133 23.5254 6.61133L14.0625 6.61133C13.4766 6.61133 13.3105 6.04492 13.6621 5.57617ZM18.7988 11.4062C17.8418 11.4062 17.0703 10.6348 17.0703 9.67773C17.0703 8.7207 17.8418 7.95898 18.7988 7.95898C19.7559 7.95898 20.5176 8.7207 20.5176 9.67773C20.5176 10.6348 19.7559 11.4062 18.7988 11.4062ZM12.6562 11.123C12.5098 10.5957 12.8125 10.3613 13.2422 10.4297C15.3125 10.7324 16.9043 12.5391 16.8848 14.6973C16.8848 15.1172 16.5625 15.4004 16.1133 15.1855C14.3945 14.375 13.1445 12.9004 12.6562 11.123ZM24.9414 11.123C24.4531 12.9004 23.2031 14.375 21.4844 15.1855C21.0352 15.4004 20.7129 15.1172 20.7129 14.6973C20.6934 12.5391 22.2852 10.7324 24.3555 10.4297C24.7852 10.3613 25.0977 10.5957 24.9414 11.123Z" fill="#ffffff" fill-opacity="0.85"/>
 </g>
</svg>
