<svg version="1.1" xmlns="http://www.w3.org/2000/svg" xmlns:xlink="http://www.w3.org/1999/xlink" width="22.7441" height="15.0879" viewBox="0 0 22.7441 15.0879">
 <g>
  <rect height="15.0879" opacity="0" width="22.7441" x="0" y="0"/>
  <path d="M0 7.53906C0 9.99023 0.78125 12.2461 2.11914 14.1016C2.39258 14.4727 2.86133 14.5117 3.20312 14.2285C3.52539 13.9648 3.56445 13.5352 3.32031 13.1934C2.16797 11.6016 1.50391 9.63867 1.50391 7.53906C1.50391 5.42969 2.16797 3.47656 3.32031 1.875C3.56445 1.54297 3.53516 1.11328 3.20312 0.839844C2.86133 0.556641 2.39258 0.605469 2.11914 0.976562C0.78125 2.82227 0 5.08789 0 7.53906ZM22.3828 7.53906C22.3828 5.08789 21.6016 2.82227 20.2637 0.976562C19.9902 0.605469 19.5215 0.556641 19.1797 0.839844C18.8477 1.11328 18.8184 1.54297 19.0625 1.875C20.2148 3.47656 20.8789 5.42969 20.8789 7.53906C20.8789 9.63867 20.2148 11.6016 19.0625 13.1934C18.8184 13.5352 18.8574 13.9648 19.1797 14.2285C19.5215 14.5117 19.9902 14.4727 20.2637 14.1016C21.6016 12.2461 22.3828 9.99023 22.3828 7.53906Z" fill="currentColor"/>
  <path d="M11.1914 15.0781C15.3125 15.0781 18.7305 11.6602 18.7305 7.53906C18.7305 3.41797 15.3125 0 11.1816 0C7.06055 0 3.65234 3.4082 3.65234 7.53906C3.65234 11.6602 7.07031 15.0781 11.1914 15.0781ZM11.1914 13.5938C7.83203 13.5938 5.14648 10.9082 5.14648 7.53906C5.14648 4.16992 7.82227 1.48438 11.1816 1.48438C14.541 1.48438 17.2363 4.16992 17.2461 7.53906C17.2559 10.8984 14.5605 13.5938 11.1914 13.5938Z" fill="currentColor"/>
  <path d="M9.63867 11.0547C10.0977 11.0547 10.3418 10.7617 10.3418 10.2734L10.3418 8.76953L11.7676 8.76953C13.3301 8.76953 14.3555 7.82227 14.3555 6.35742C14.3555 4.91211 13.3203 3.93555 11.7773 3.93555L9.63867 3.93555C9.18945 3.93555 8.95508 4.25781 8.95508 4.72656L8.95508 10.2734C8.95508 10.7422 9.18945 11.0547 9.63867 11.0547ZM10.3418 7.72461L10.3418 4.99023L11.5527 4.99023C12.4512 4.99023 12.9785 5.49805 12.9785 6.35742C12.9785 7.2168 12.4512 7.72461 11.5527 7.72461Z" fill="currentColor"/>
 </g>
</svg>
