<svg version="1.1" xmlns="http://www.w3.org/2000/svg" xmlns:xlink="http://www.w3.org/1999/xlink" width="16.1328" height="15.7715" viewBox="0 0 16.1328 15.7715">
 <g>
  <rect height="15.7715" opacity="0" width="16.1328" x="0" y="0"/>
  <path d="M15.7715 7.89062C15.7715 12.1973 12.1875 15.7715 7.88086 15.7715C3.58398 15.7715 0 12.1973 0 7.89062C0 3.58398 3.57422 0.00976562 7.87109 0.00976562C12.1777 0.00976562 15.7715 3.58398 15.7715 7.89062ZM4.39453 10.3125L3.96484 11.3965C3.86719 11.6211 4.08203 11.8066 4.28711 11.7383L5.41992 11.3477L10.459 6.32812L9.42383 5.29297ZM10.5762 4.15039L9.94141 4.77539L10.9766 5.81055L11.6016 5.18555C11.8848 4.90234 11.8945 4.58008 11.6406 4.32617L11.4258 4.11133C11.1719 3.84766 10.8594 3.87695 10.5762 4.15039Z" fill="var(--color-primary)"/>
 </g>
</svg>
