<?xml version="1.0" encoding="UTF-8"?>
<!--Generator: Apple Native CoreSVG 232.5-->
<!DOCTYPE svg
PUBLIC "-//W3C//DTD SVG 1.1//EN"
       "http://www.w3.org/Graphics/SVG/1.1/DTD/svg11.dtd">
<svg version="1.1" xmlns="http://www.w3.org/2000/svg" xmlns:xlink="http://www.w3.org/1999/xlink" width="16.1328" height="15.7715">
 <g>
  <rect height="15.7715" opacity="0" width="16.1328" x="0" y="0"/>
  <path d="M15.7715 7.88086C15.7715 12.1875 12.1875 15.7617 7.88086 15.7617C3.58398 15.7617 0 12.1875 0 7.88086C0 3.57422 3.57422 0 7.87109 0C12.1777 0 15.7715 3.57422 15.7715 7.88086ZM3.26172 12.5195C4.45312 13.7695 6.21094 14.4434 7.88086 14.4434C9.55078 14.4434 11.3086 13.7695 12.5 12.5195C11.6699 11.2305 9.90234 10.5078 7.88086 10.5078C5.83008 10.5078 4.08203 11.2402 3.26172 12.5195ZM5.24414 6.32812C5.24414 7.97852 6.40625 9.19922 7.88086 9.21875C9.35547 9.23828 10.5176 7.97852 10.5176 6.32812C10.5176 4.77539 9.35547 3.49609 7.88086 3.49609C6.40625 3.49609 5.23438 4.77539 5.24414 6.32812Z" fill="#ffffff" fill-opacity="0.85"/>
 </g>
</svg>
