<?xml version="1.0" encoding="UTF-8"?>
<!--Generator: Apple Native CoreSVG 232.5-->
<!DOCTYPE svg
PUBLIC "-//W3C//DTD SVG 1.1//EN"
       "http://www.w3.org/Graphics/SVG/1.1/DTD/svg11.dtd">
<svg version="1.1" xmlns="http://www.w3.org/2000/svg" xmlns:xlink="http://www.w3.org/1999/xlink" width="28.0566" height="12.7246">
 <g>
  <rect height="12.7246" opacity="0" width="28.0566" x="0" y="0"/>
  <path d="M5.72266 6.37695C7.35352 6.37695 8.7207 4.91211 8.7207 3.14453C8.7207 1.37695 7.38281 0 5.72266 0C4.08203 0 2.73438 1.40625 2.73438 3.1543C2.73438 4.92188 4.0918 6.37695 5.72266 6.37695ZM1.82617 12.6758L9.61914 12.6758C10.8301 12.6758 11.4453 12.3047 11.4453 11.4844C11.4453 9.69727 9.39453 7.10938 5.72266 7.10938C2.05078 7.10938 0 9.69727 0 11.4844C0 12.3047 0.615234 12.6758 1.82617 12.6758ZM21.9727 6.41602C23.6133 6.41602 24.9707 4.95117 24.9707 3.19336C24.9707 1.42578 23.6328 0.0390625 21.9727 0.0390625C20.332 0.0390625 18.9844 1.45508 18.9844 3.20312C18.9844 4.96094 20.3418 6.41602 21.9727 6.41602ZM18.0762 12.7148L25.8691 12.7148C27.0801 12.7148 27.6953 12.3535 27.6953 11.5234C27.6953 9.74609 25.6445 7.1582 21.9727 7.1582C18.3105 7.1582 16.25 9.74609 16.25 11.5234C16.25 12.3535 16.8652 12.7148 18.0762 12.7148Z" fill="#ffffff" fill-opacity="0.85"/>
  <path d="M11.2012 6.48438C11.5918 6.48438 11.9141 6.16211 11.9141 5.77148C11.9141 5.38086 11.5918 5.05859 11.2012 5.05859C10.8105 5.05859 10.4883 5.38086 10.4883 5.77148C10.4883 6.16211 10.8105 6.48438 11.2012 6.48438ZM13.8574 6.48438C14.248 6.48438 14.5703 6.16211 14.5703 5.77148C14.5703 5.38086 14.248 5.05859 13.8574 5.05859C13.4668 5.05859 13.1445 5.38086 13.1445 5.77148C13.1445 6.16211 13.4668 6.48438 13.8574 6.48438ZM16.5039 6.48438C16.8945 6.48438 17.2168 6.16211 17.2168 5.77148C17.2168 5.38086 16.8945 5.05859 16.5039 5.05859C16.1133 5.05859 15.791 5.38086 15.791 5.77148C15.791 6.16211 16.1133 6.48438 16.5039 6.48438Z" fill="#ffffff" fill-opacity="0.85"/>
 </g>
</svg>
