<?xml version="1.0" encoding="UTF-8"?>
<!--Generator: Apple Native CoreSVG 232.5-->
<!DOCTYPE svg
PUBLIC "-//W3C//DTD SVG 1.1//EN"
       "http://www.w3.org/Graphics/SVG/1.1/DTD/svg11.dtd">
<svg version="1.1" xmlns="http://www.w3.org/2000/svg" xmlns:xlink="http://www.w3.org/1999/xlink" width="23.3203" height="20.879">
 <g>
  <rect height="20.879" opacity="0" width="23.3203" x="0" y="0"/>
  <path d="M9.80211 12.1739C9.44034 12.4712 9.12187 12.7938 8.84894 13.1316C8.18407 12.8169 7.41983 12.6319 6.62109 12.6319C4.18945 12.6319 2.07031 14.3604 2.07031 16.167C2.07031 16.2549 2.11914 16.294 2.19727 16.294L7.55928 16.294C7.5586 16.2973 7.55859 16.3005 7.55859 16.3037C7.55859 16.7819 7.67237 17.2182 7.91504 17.583L2.43164 17.583C1.32812 17.583 0.771484 17.1436 0.771484 16.2549C0.771484 13.6377 3.4668 11.3428 6.62109 11.3428C7.78169 11.3428 8.87921 11.6516 9.80211 12.1739ZM5.56107 5.95552C5.22341 6.28498 5.00977 6.77084 5.00977 7.31936C5.00977 8.35452 5.76172 9.20413 6.63086 9.20413C7.17513 9.20413 7.67344 8.87096 7.9698 8.36281L8.89936 9.29181C8.36483 10.0287 7.54271 10.503 6.63086 10.503C5.03906 10.503 3.71094 9.06741 3.71094 7.31936C3.71094 6.42429 4.07258 5.61226 4.64926 5.04426Z" fill="#ffffff" fill-opacity="0.85"/>
  <path d="M12.8016 13.1917C11.0417 13.9382 10.1074 15.3235 10.1074 16.128C10.1074 16.2354 10.166 16.2647 10.2734 16.2647L15.8764 16.2647L17.1956 17.583L10.7227 17.583C9.35547 17.583 8.70117 17.1826 8.70117 16.3037C8.70117 14.9675 9.82575 13.2219 11.8141 12.2048ZM22.1875 16.3037C22.1875 16.7919 21.9857 17.1324 21.5711 17.3382L20.4969 16.2647L20.6152 16.2647C20.7227 16.2647 20.7715 16.2354 20.7715 16.128C20.7715 15.1843 19.4926 13.4414 17.0967 12.8665L15.5884 11.3591C19.7001 11.4237 22.1875 14.3164 22.1875 16.3037ZM18.8086 6.82132C18.8086 8.80374 17.2852 10.4541 15.4492 10.4541C15.1358 10.4541 14.8316 10.4068 14.5439 10.3152L12.2848 8.05746C12.1511 7.67739 12.0801 7.26686 12.0801 6.84085C12.0801 4.86819 13.5938 3.28616 15.4492 3.28616C17.3047 3.28616 18.8086 4.83889 18.8086 6.82132ZM13.4961 6.84085C13.4961 8.12014 14.4043 9.14554 15.4492 9.14554C16.4941 9.14554 17.3926 8.10061 17.3926 6.82132C17.3926 5.54202 16.5234 4.60452 15.4492 4.60452C14.375 4.60452 13.4961 5.56155 13.4961 6.84085Z" fill="#ffffff" fill-opacity="0.85"/>
  <path d="M20.7031 19.7315C20.9668 19.9951 21.3965 19.9951 21.6504 19.7315C21.9043 19.4678 21.9238 19.0479 21.6504 18.7842L5.39062 2.51468C5.11719 2.24124 4.69727 2.251 4.43359 2.51468C4.17969 2.76858 4.17969 3.20804 4.43359 3.46194Z" fill="#ffffff" fill-opacity="0.85"/>
 </g>
</svg>
