<svg version="1.1" xmlns="http://www.w3.org/2000/svg" xmlns:xlink="http://www.w3.org/1999/xlink" width="18.6523" height="18.297" viewBox="0 0 18.6523 18.297">
 <g>
  <rect height="18.297" opacity="0" width="18.6523" x="0" y="0"/>
  <path d="M16.1621 10.6768C16.4746 10.8916 16.8848 10.8135 17.1191 10.4815C18.0957 9.1143 18.6523 7.27837 18.6523 5.40337C18.6523 3.5186 18.1055 1.66313 17.1191 0.315476C16.8848-0.0165548 16.4746-0.0946798 16.1621 0.120164C15.8398 0.335008 15.7812 0.75493 16.0352 1.10649C16.8359 2.25884 17.3047 3.81157 17.3047 5.40337C17.3047 6.9854 16.8164 8.52837 16.0352 9.69048C15.791 10.042 15.8398 10.462 16.1621 10.6768Z" fill="var(--color-secondary)"/>
  <path d="M13.2324 8.69438C13.5156 8.8897 13.9355 8.82134 14.1699 8.4893C14.7559 7.70805 15.0879 6.54595 15.0879 5.40337C15.0879 4.25102 14.7559 3.09868 14.1699 2.31743C13.9355 1.97563 13.5156 1.90727 13.2324 2.11235C12.8711 2.35649 12.8125 2.79595 13.0859 3.14751C13.4961 3.71391 13.7402 4.56352 13.7402 5.40337C13.7402 6.23345 13.4863 7.07329 13.0859 7.64946C12.8223 8.01079 12.8711 8.44048 13.2324 8.69438Z" fill="var(--color-secondary)"/>
  <path d="M2.93945 16.0577L12.3828 16.0577C13.6914 16.0577 14.1211 15.6866 14.1211 15.0127C14.1211 13.0303 11.6406 10.2959 7.65625 10.2959C3.68164 10.2959 1.20117 13.0303 1.20117 15.0127C1.20117 15.6866 1.63086 16.0577 2.93945 16.0577ZM7.65625 8.92876C9.29688 8.92876 10.7422 7.45415 10.7422 5.53032C10.7422 3.61626 9.29688 2.22954 7.65625 2.22954C6.02539 2.22954 4.58008 3.65532 4.58008 5.54985C4.58008 7.45415 6.02539 8.92876 7.65625 8.92876Z" fill="var(--color-primary)"/>
 </g>
</svg>
