<svg version="1.1" xmlns="http://www.w3.org/2000/svg" xmlns:xlink="http://www.w3.org/1999/xlink" width="16.1328" height="18.7695" viewBox="0 0 16.1328 18.7695">
 <g>
  <rect height="18.7695" opacity="0" width="16.1328" x="0" y="0"/>
  <path d="M9.4043 0.600591L9.4043 1.64551C12.998 2.36817 15.7715 5.59083 15.7715 9.37989C15.7715 13.6865 12.1875 17.2607 7.88086 17.2607C3.58398 17.2607 0 13.6865 0 9.37989C0 6.84083 1.25 4.5459 3.16406 3.09083C3.55469 2.79786 4.04297 2.88575 4.25781 3.24708C4.48242 3.6084 4.36523 4.02833 4.01367 4.292C2.48047 5.45411 1.50391 7.29004 1.49414 9.37989C1.48438 12.9346 4.33594 15.7764 7.88086 15.7764C11.4355 15.7764 14.2676 12.9346 14.2676 9.37989C14.2676 6.35254 12.2168 3.84278 9.4043 3.16895L9.4043 4.15528C9.4043 4.77051 8.98438 4.92676 8.52539 4.59473L6.05469 2.85645C5.66406 2.58301 5.67383 2.17286 6.05469 1.90918L8.53516 0.170903C8.98438-0.161128 9.4043-0.0048778 9.4043 0.600591Z" fill="currentColor"/>
  <path d="M7.12423 9.99817C6.50225 10.5422 6.15234 11.2351 6.15234 11.8604C6.15234 12.005 6.17778 12.1911 6.27296 12.3682L3.56445 12.3682C3.06641 12.3682 2.88086 12.1631 2.88086 11.8311C2.88086 10.5908 4.19922 9.58497 5.5957 9.58497C6.14313 9.58497 6.67723 9.73739 7.12423 9.99817ZM6.89453 7.58301C6.89453 8.39356 6.28906 9.01856 5.5957 9.01856C4.91211 9.01856 4.30664 8.39356 4.30664 7.59278C4.30664 6.80176 4.91211 6.19629 5.5957 6.19629C6.28906 6.19629 6.89453 6.78223 6.89453 7.58301Z" fill="currentColor"/>
  <path d="M7.57812 12.3682L12.1289 12.3682C12.7637 12.3682 12.9688 12.1826 12.9688 11.8604C12.9688 10.9033 11.7773 9.59473 9.86328 9.59473C7.92969 9.59473 6.72852 10.9033 6.72852 11.8604C6.72852 12.1826 6.94336 12.3682 7.57812 12.3682ZM9.86328 8.94043C10.6445 8.94043 11.3379 8.21778 11.3379 7.29004C11.3379 6.36231 10.6445 5.69825 9.86328 5.69825C9.05273 5.69825 8.36914 6.39161 8.36914 7.29004C8.36914 8.21778 9.05273 8.94043 9.86328 8.94043Z" fill="currentColor"/>
 </g>
</svg>
