<?xml version="1.0" encoding="UTF-8"?>
<!--Generator: Apple Native CoreSVG 232.5-->
<!DOCTYPE svg
PUBLIC "-//W3C//DTD SVG 1.1//EN"
       "http://www.w3.org/Graphics/SVG/1.1/DTD/svg11.dtd">
<svg version="1.1" xmlns="http://www.w3.org/2000/svg" xmlns:xlink="http://www.w3.org/1999/xlink" width="16.1328" height="15.7715">
 <g>
  <rect height="15.7715" opacity="0" width="16.1328" x="0" y="0"/>
  <path d="M7.88086 15.7617C12.1875 15.7617 15.7715 12.1875 15.7715 7.88086C15.7715 3.57422 12.1777 0 7.87109 0C3.57422 0 0 3.57422 0 7.88086C0 12.1875 3.58398 15.7617 7.88086 15.7617Z" fill="#ffffff" fill-opacity="0.25"/>
  <path d="M4.88281 6.62109C4.88281 6.35742 5.05859 6.19141 5.30273 6.19141L5.79102 6.19141L5.79102 4.77539C5.79102 4.42383 6.02539 4.17969 6.37695 4.17969L8.34961 4.17969C9.66797 4.17969 10.6152 4.99023 10.8301 6.19141L11.2012 6.19141C11.4453 6.19141 11.6211 6.35742 11.6211 6.62109C11.6211 6.85547 11.4453 7.05078 11.2012 7.05078L10.8496 7.05078C10.6836 8.32031 9.6875 9.18945 8.34961 9.18945L6.97266 9.18945L6.97266 11.3574C6.97266 11.6992 6.73828 11.9434 6.39648 11.9434C6.05469 11.9434 5.79102 11.6992 5.79102 11.3574L5.79102 7.05078L5.30273 7.05078C5.05859 7.05078 4.88281 6.85547 4.88281 6.62109ZM6.98242 8.125L8.14453 8.125C8.98438 8.125 9.52148 7.73438 9.64844 7.05078L6.98242 7.05078ZM6.98242 6.19141L9.61914 6.19141C9.46289 5.57617 8.93555 5.24414 8.14453 5.24414L6.98242 5.24414Z" fill="#ffffff" fill-opacity="0.85"/>
 </g>
</svg>
