<?xml version="1.0" encoding="UTF-8"?>
<!--Generator: Apple Native CoreSVG 232.5-->
<!DOCTYPE svg
PUBLIC "-//W3C//DTD SVG 1.1//EN"
       "http://www.w3.org/Graphics/SVG/1.1/DTD/svg11.dtd">
<svg version="1.1" xmlns="http://www.w3.org/2000/svg" xmlns:xlink="http://www.w3.org/1999/xlink" width="11.9043" height="14.3848">
 <g>
  <rect height="14.3848" opacity="0" width="11.9043" x="0" y="0"/>
  <path d="M1.55273 13.5449C1.55273 14.0137 1.93359 14.3848 2.40234 14.3848C2.87109 14.3848 3.24219 14.0137 3.24219 13.5449L3.24219 9.18945L5.88867 9.18945C8.47656 9.18945 10.3125 7.38281 10.3125 4.76562C10.3125 2.17773 8.62305 0.380859 5.97656 0.380859L2.40234 0.380859C1.88477 0.380859 1.55273 0.722656 1.55273 1.25ZM3.24219 7.71484L3.24219 1.88477L5.54688 1.88477C7.58789 1.88477 8.58398 2.91992 8.58398 4.76562C8.58398 6.62109 7.46094 7.71484 5.46875 7.71484ZM0.546875 5.23438L10.9863 5.23438C11.3086 5.23438 11.543 4.98047 11.543 4.66797C11.543 4.33594 11.3086 4.10156 10.9863 4.10156L0.546875 4.10156C0.234375 4.10156 0 4.33594 0 4.66797C0 4.98047 0.234375 5.23438 0.546875 5.23438Z" fill="#ffffff" fill-opacity="0.85"/>
 </g>
</svg>
