<?xml version="1.0" encoding="UTF-8"?>
<!--Generator: Apple Native CoreSVG 232.5-->
<!DOCTYPE svg
PUBLIC "-//W3C//DTD SVG 1.1//EN"
       "http://www.w3.org/Graphics/SVG/1.1/DTD/svg11.dtd">
<svg version="1.1" xmlns="http://www.w3.org/2000/svg" xmlns:xlink="http://www.w3.org/1999/xlink" width="14.5898" height="14.248">
 <g>
  <rect height="14.248" opacity="0" width="14.5898" x="0" y="0"/>
  <path d="M2.49023 14.248L11.7383 14.248C13.4082 14.248 14.2285 13.4277 14.2285 11.7871L14.2285 2.4707C14.2285 0.830078 13.4082 0.00976562 11.7383 0.00976562L2.49023 0.00976562C0.830078 0.00976562 0 0.830078 0 2.4707L0 11.7871C0 13.4277 0.830078 14.248 2.49023 14.248Z" fill="#ffffff" fill-opacity="0.25"/>
  <path d="M4.10156 6.69922C4.10156 6.44531 4.28711 6.25977 4.52148 6.25977L5.01953 6.25977L5.01953 5.81055L4.52148 5.81055C4.28711 5.81055 4.10156 5.61523 4.10156 5.37109C4.10156 5.11719 4.28711 4.95117 4.52148 4.95117L5.01953 4.95117L5.01953 4.01367C5.01953 3.66211 5.24414 3.42773 5.5957 3.42773L7.56836 3.42773C8.66211 3.42773 9.51172 4.02344 9.88281 4.95117L10.4199 4.95117C10.6738 4.95117 10.8398 5.11719 10.8398 5.37109C10.8398 5.61523 10.6738 5.81055 10.4199 5.81055L10.0781 5.81055C10.0879 5.9082 10.0879 5.9668 10.0879 6.04492C10.0879 6.11328 10.0879 6.19141 10.0781 6.25977L10.4199 6.25977C10.6738 6.25977 10.8398 6.44531 10.8398 6.69922C10.8398 6.93359 10.6738 7.12891 10.4199 7.12891L9.89258 7.12891C9.52148 8.07617 8.66211 8.68164 7.56836 8.68164L6.19141 8.68164L6.19141 10.6055C6.19141 10.9375 5.95703 11.1816 5.61523 11.1816C5.2832 11.1816 5.01953 10.9375 5.01953 10.6055L5.01953 7.12891L4.52148 7.12891C4.28711 7.12891 4.10156 6.93359 4.10156 6.69922ZM6.20117 7.61719L7.37305 7.61719C7.91016 7.61719 8.31055 7.44141 8.57422 7.12891L6.20117 7.12891ZM6.20117 6.25977L8.92578 6.25977C8.93555 6.19141 8.93555 6.11328 8.93555 6.04492C8.93555 5.95703 8.93555 5.87891 8.92578 5.81055L6.20117 5.81055ZM6.20117 4.95117L8.56445 4.95117C8.30078 4.64844 7.91016 4.48242 7.37305 4.48242L6.20117 4.48242Z" fill="#ffffff" fill-opacity="0.85"/>
 </g>
</svg>
