<svg version="1.1" xmlns="http://www.w3.org/2000/svg" xmlns:xlink="http://www.w3.org/1999/xlink" width="16.1328" height="15.7715" viewBox="0 0 16.1328 15.7715">
 <g>
  <rect height="15.7715" opacity="0" width="16.1328" x="0" y="0"/>
  <path d="M15.7715 7.88086C15.7715 12.1875 12.1875 15.7617 7.88086 15.7617C3.58398 15.7617 0 12.1875 0 7.88086C0 3.57422 3.57422 0 7.87109 0C12.1777 0 15.7715 3.57422 15.7715 7.88086ZM6.36719 4.18945C6.01562 4.18945 5.78125 4.42383 5.78125 4.77539L5.78125 5.71289L5.29297 5.71289C5.05859 5.71289 4.87305 5.87891 4.87305 6.13281C4.87305 6.37695 5.05859 6.57227 5.29297 6.57227L5.78125 6.57227L5.78125 7.02148L5.29297 7.02148C5.05859 7.02148 4.87305 7.20703 4.87305 7.46094C4.87305 7.69531 5.05859 7.89062 5.29297 7.89062L5.78125 7.89062L5.78125 11.3672C5.78125 11.6992 6.04492 11.9434 6.38672 11.9434C6.72852 11.9434 6.96289 11.6992 6.96289 11.3672L6.96289 9.44336L8.33984 9.44336C9.43359 9.44336 10.293 8.83789 10.6641 7.89062L11.1914 7.89062C11.4355 7.89062 11.6113 7.69531 11.6113 7.46094C11.6113 7.20703 11.4355 7.02148 11.1914 7.02148L10.8496 7.02148C10.8594 6.95312 10.8594 6.875 10.8594 6.80664C10.8594 6.72852 10.8594 6.66992 10.8496 6.57227L11.1914 6.57227C11.4355 6.57227 11.6113 6.37695 11.6113 6.13281C11.6113 5.87891 11.4355 5.71289 11.1914 5.71289L10.6543 5.71289C10.2832 4.78516 9.43359 4.18945 8.33984 4.18945ZM8.14453 8.37891L6.97266 8.37891L6.97266 7.89062L9.3457 7.89062C9.08203 8.20312 8.67188 8.37891 8.14453 8.37891ZM9.70703 6.80664C9.70703 6.875 9.70703 6.95312 9.69727 7.02148L6.97266 7.02148L6.97266 6.57227L9.69727 6.57227C9.70703 6.64062 9.70703 6.71875 9.70703 6.80664ZM9.33594 5.71289L6.97266 5.71289L6.97266 5.24414L8.14453 5.24414C8.67188 5.24414 9.07227 5.41016 9.33594 5.71289Z" fill="currentColor"/>
 </g>
</svg>
