<svg version="1.1" xmlns="http://www.w3.org/2000/svg" xmlns:xlink="http://www.w3.org/1999/xlink" width="17.3828" height="17.1582" viewBox="0 0 17.3828 17.1582">
 <g>
  <rect height="17.1582" opacity="0" width="17.3828" x="0" y="0"/>
  <path d="M17.0215 4.70703L17.0215 10.3906C17.0215 12.7539 15.7617 14.043 13.3594 14.043L8.45703 14.043L5.69336 16.6016C5.2832 16.9824 5.04883 17.1582 4.70703 17.1582C4.21875 17.1582 3.93555 16.8066 3.93555 16.2793L3.93555 14.043L3.66211 14.043C1.25977 14.043 0 12.7539 0 10.3906L0 4.70703C0 2.34375 1.25977 1.04492 3.66211 1.04492L13.3594 1.04492C15.7617 1.04492 17.0215 2.34375 17.0215 4.70703ZM5.09766 3.7207C5.04883 3.75 5.01953 3.7793 4.99023 3.80859C3.61328 5.20508 4.77539 7.50977 6.64062 9.375C8.50586 11.25 10.8203 12.3926 12.1973 11.0254C12.2559 10.9668 12.3047 10.9082 12.3535 10.8496C12.6758 10.4688 12.7832 9.91211 12.2949 9.56055C11.8652 9.25781 11.4258 8.94531 10.9277 8.59375C10.4297 8.25195 10.1367 8.34961 9.80469 8.69141L9.49219 9.00391C9.4043 9.0918 9.24805 9.07227 9.14062 9.01367C8.85742 8.83789 8.4082 8.4668 7.97852 8.03711C7.55859 7.60742 7.16797 7.13867 7.00195 6.86523C6.95312 6.78711 6.9043 6.64062 7.01172 6.52344L7.31445 6.21094C7.66602 5.84961 7.77344 5.57617 7.41211 5.07812L6.45508 3.73047C6.14258 3.27148 5.66406 3.30078 5.09766 3.7207Z" fill="var(--color-primary)"/>
 </g>
</svg>
