<svg version="1.1" xmlns="http://www.w3.org/2000/svg" xmlns:xlink="http://www.w3.org/1999/xlink" width="16.1328" height="15.7715" viewBox="0 0 16.1328 15.7715">
 <g>
  <rect height="15.7715" opacity="0" width="16.1328" x="0" y="0"/>
  <path d="M7.88086 15.7617C12.1875 15.7617 15.7715 12.1875 15.7715 7.88086C15.7715 3.57422 12.1777 0 7.87109 0C3.57422 0 0 3.57422 0 7.88086C0 12.1875 3.58398 15.7617 7.88086 15.7617ZM7.88086 14.2773C4.33594 14.2773 1.50391 11.4355 1.50391 7.88086C1.50391 4.32617 4.32617 1.48438 7.87109 1.48438C11.4258 1.48438 14.2773 4.32617 14.2773 7.88086C14.2773 11.4355 11.4355 14.2773 7.88086 14.2773Z" fill="var(--color-secondary)"/>
  <path d="M5.49805 10.2344C7.29492 12.041 9.53125 13.1543 10.8496 11.8262C10.9082 11.7676 10.957 11.7188 11.0059 11.6602C11.3184 11.2891 11.416 10.7617 10.9473 10.4199C10.5273 10.127 10.1172 9.82422 9.62891 9.49219C9.15039 9.15039 8.87695 9.25781 8.54492 9.58008L8.25195 9.87305C8.16406 9.96094 8.00781 9.94141 7.91016 9.88281C7.63672 9.7168 7.19727 9.36523 6.78711 8.94531C6.37695 8.54492 6.00586 8.07617 5.84961 7.82227C5.80078 7.74414 5.75195 7.59766 5.85938 7.49023L6.15234 7.1875C6.48438 6.8457 6.5918 6.58203 6.24023 6.10352L5.32227 4.79492C5.00977 4.36523 4.56055 4.38477 4.01367 4.79492C3.97461 4.82422 3.94531 4.85352 3.91602 4.88281C2.57812 6.21094 3.70117 8.44727 5.49805 10.2344ZM8.20312 8.02734C8.33008 8.02734 8.4375 7.99805 8.51562 7.91992L10.2637 6.16211L10.7324 5.63477L10.6738 6.61133L10.6738 7.13867C10.6738 7.37305 10.8398 7.55859 11.084 7.58789C11.3379 7.59766 11.543 7.39258 11.543 7.13867L11.543 4.72656C11.543 4.41406 11.377 4.24805 11.0742 4.24805L8.65234 4.24805C8.39844 4.24805 8.19336 4.45312 8.21289 4.70703C8.22266 4.94141 8.39844 5.11719 8.65234 5.11719L9.19922 5.11719L10.1465 5.05859L9.63867 5.52734L7.89062 7.27539C7.79297 7.37305 7.75391 7.4707 7.75391 7.61719C7.75391 7.86133 7.94922 8.02734 8.20312 8.02734Z" fill="var(--color-primary)"/>
 </g>
</svg>
