<?xml version="1.0" encoding="UTF-8"?>
<!--Generator: Apple Native CoreSVG 232.5-->
<!DOCTYPE svg
PUBLIC "-//W3C//DTD SVG 1.1//EN"
       "http://www.w3.org/Graphics/SVG/1.1/DTD/svg11.dtd">
<svg version="1.1" xmlns="http://www.w3.org/2000/svg" xmlns:xlink="http://www.w3.org/1999/xlink" width="17.3828" height="17.1582">
 <g>
  <rect height="17.1582" opacity="0" width="17.3828" x="0" y="0"/>
  <path d="M4.70703 17.1582C5.04883 17.1582 5.2832 16.9824 5.69336 16.6016L8.45703 14.043L13.3594 14.043C15.7617 14.043 17.0215 12.7539 17.0215 10.3906L17.0215 4.70703C17.0215 2.34375 15.7617 1.04492 13.3594 1.04492L3.66211 1.04492C1.25977 1.04492 0 2.34375 0 4.70703L0 10.3906C0 12.7539 1.25977 14.043 3.66211 14.043L3.93555 14.043L3.93555 16.2793C3.93555 16.8066 4.21875 17.1582 4.70703 17.1582Z" fill="#ffffff" fill-opacity="0.25"/>
  <path d="M6.64062 9.375C4.77539 7.50977 3.61328 5.20508 4.99023 3.80859C5.01953 3.7793 5.04883 3.75 5.09766 3.7207C5.66406 3.30078 6.14258 3.27148 6.45508 3.73047L7.41211 5.07812C7.77344 5.57617 7.66602 5.84961 7.31445 6.21094L7.01172 6.52344C6.9043 6.64062 6.95312 6.78711 7.00195 6.86523C7.16797 7.13867 7.55859 7.60742 7.97852 8.03711C8.4082 8.4668 8.85742 8.83789 9.14062 9.01367C9.24805 9.07227 9.4043 9.0918 9.49219 9.00391L9.80469 8.69141C10.1367 8.34961 10.4297 8.25195 10.9277 8.59375C11.4258 8.94531 11.8652 9.25781 12.2949 9.56055C12.7832 9.91211 12.6758 10.4688 12.3535 10.8496C12.3047 10.9082 12.2559 10.9668 12.1973 11.0254C10.8203 12.3926 8.50586 11.25 6.64062 9.375Z" fill="#ffffff" fill-opacity="0.85"/>
 </g>
</svg>
