<svg version="1.1" xmlns="http://www.w3.org/2000/svg" xmlns:xlink="http://www.w3.org/1999/xlink" width="16.1328" height="15.7715" viewBox="0 0 16.1328 15.7715">
 <g>
  <rect height="15.7715" opacity="0" width="16.1328" x="0" y="0"/>
  <path d="M15.7715 7.89062C15.7715 12.1973 12.1875 15.7715 7.88086 15.7715C3.58398 15.7715 0 12.1973 0 7.89062C0 3.58398 3.57422 0.00976562 7.87109 0.00976562C12.1777 0.00976562 15.7715 3.58398 15.7715 7.89062ZM3.89648 4.67773C3.85742 4.70703 3.82812 4.73633 3.79883 4.76562C2.41211 6.14258 3.57422 8.45703 5.43945 10.3223C7.30469 12.1875 9.62891 13.3496 10.9961 11.9629C11.0547 11.9141 11.1035 11.8555 11.1523 11.7969C11.4844 11.4062 11.582 10.8594 11.084 10.5078C10.6641 10.1953 10.2344 9.89258 9.72656 9.54102C9.22852 9.18945 8.94531 9.29688 8.60352 9.63867L8.29102 9.94141C8.20312 10.0391 8.03711 10.0195 7.93945 9.95117C7.65625 9.78516 7.20703 9.4043 6.77734 8.98438C6.35742 8.56445 5.9668 8.07617 5.81055 7.8125C5.75195 7.73438 5.70312 7.58789 5.82031 7.48047L6.12305 7.14844C6.46484 6.79688 6.57227 6.52344 6.21094 6.03516L5.25391 4.67773C4.93164 4.21875 4.46289 4.24805 3.89648 4.67773ZM8.71094 4.10156C8.44727 4.10156 8.24219 4.31641 8.25195 4.58008C8.26172 4.82422 8.45703 5.00977 8.71094 5.00977L9.27734 5.00977L10.2637 4.95117L9.73633 5.43945L7.92969 7.24609C7.82227 7.34375 7.7832 7.44141 7.7832 7.59766C7.7832 7.85156 7.97852 8.02734 8.24219 8.02734C8.37891 8.02734 8.49609 7.99805 8.56445 7.91016L10.3809 6.08398L10.8691 5.54688L10.8105 6.55273L10.8105 7.09961C10.8105 7.34375 10.9863 7.54883 11.2305 7.56836C11.4941 7.57812 11.7188 7.36328 11.7188 7.09961L11.7188 4.59961C11.7188 4.27734 11.5332 4.10156 11.2207 4.10156Z" fill="var(--color-primary)"/>
 </g>
</svg>
