<svg version="1.1" xmlns="http://www.w3.org/2000/svg" xmlns:xlink="http://www.w3.org/1999/xlink" width="14.6582" height="16.8289" viewBox="0 0 14.6582 16.8289">
 <g>
  <rect height="16.8289" opacity="0" width="14.6582" x="0" y="0"/>
  <path d="M0 8.40958C0 11.3197 0.673828 14.1713 2.19727 15.685C2.91992 16.4076 3.81836 16.8471 4.93164 16.8178C6.01562 16.7885 6.9043 16.0756 6.71875 15.0014L6.25 12.2572C6.09375 11.2904 5.70312 10.9779 4.74609 10.9779L4.18945 10.9779C3.39844 10.9779 3.31055 10.2065 3.31055 8.40958C3.31055 6.61271 3.39844 5.84122 4.18945 5.84122L4.74609 5.84122C5.68359 5.84122 6.08398 5.54825 6.25 4.56193L6.71875 1.81779C6.9043 0.743567 6.01562 0.0306759 4.93164 0.00137901C3.81836-0.0279179 2.91992 0.411535 2.19727 1.13419C0.673828 2.64786 0 5.49943 0 8.40958Z" fill="currentColor"/>
  <path d="M6.67969 9.03458L10.5469 9.03458L12.2559 8.93693L10.5859 10.4018L9.91211 11.0854C9.79492 11.2123 9.72656 11.3686 9.72656 11.5541C9.72656 11.9057 9.98047 12.1498 10.3223 12.1498C10.498 12.1498 10.6543 12.0815 10.7812 11.9643L13.8672 8.87833C14.0234 8.73185 14.1016 8.55607 14.1016 8.40958C14.1016 8.2631 14.0234 8.08732 13.8672 7.94083L10.7812 4.85489C10.6543 4.73771 10.498 4.66935 10.3223 4.66935C9.98047 4.66935 9.72656 4.91349 9.72656 5.26505C9.72656 5.4506 9.79492 5.60685 9.91211 5.7338L10.5859 6.41739L12.2559 7.88224L10.5469 7.78458L6.67969 7.78458C6.2793 7.78458 6.04492 8.08732 6.04492 8.40958C6.04492 8.73185 6.2793 9.03458 6.67969 9.03458Z" fill="currentColor"/>
 </g>
</svg>
