<?xml version="1.0" encoding="UTF-8"?>
<!--Generator: Apple Native CoreSVG 232.5-->
<!DOCTYPE svg
PUBLIC "-//W3C//DTD SVG 1.1//EN"
       "http://www.w3.org/Graphics/SVG/1.1/DTD/svg11.dtd">
<svg version="1.1" xmlns="http://www.w3.org/2000/svg" xmlns:xlink="http://www.w3.org/1999/xlink" width="16.1328" height="15.7715">
 <g>
  <rect height="15.7715" opacity="0" width="16.1328" x="0" y="0"/>
  <path d="M7.88086 15.7617C12.1875 15.7617 15.7715 12.1875 15.7715 7.88086C15.7715 3.57422 12.1777 0 7.87109 0C3.57422 0 0 3.57422 0 7.88086C0 12.1875 3.58398 15.7617 7.88086 15.7617ZM7.88086 14.2773C4.33594 14.2773 1.50391 11.4355 1.50391 7.88086C1.50391 4.32617 4.32617 1.48438 7.87109 1.48438C11.4258 1.48438 14.2773 4.32617 14.2773 7.88086C14.2773 11.4355 11.4355 14.2773 7.88086 14.2773Z" fill="#ffffff" fill-opacity="0.85"/>
  <path d="M4.7168 11.3281L11.0352 11.3281C11.8359 11.3281 12.2363 10.9277 12.2363 10.1465L12.2363 5.66406C12.2363 4.87305 11.8359 4.48242 11.0352 4.48242L4.7168 4.48242C3.92578 4.48242 3.51562 4.87305 3.51562 5.66406L3.51562 10.1465C3.51562 10.9277 3.92578 11.3281 4.7168 11.3281ZM4.73633 10.5664C4.44336 10.5664 4.27734 10.3906 4.27734 10.0977L4.27734 9.75586L5.26367 8.92578C5.41992 8.78906 5.5957 8.70117 5.76172 8.70117C5.9375 8.70117 6.12305 8.78906 6.28906 8.93555L7.00195 9.56055L8.75977 7.99805C8.92578 7.85156 9.13086 7.76367 9.33594 7.76367C9.54102 7.76367 9.75586 7.85156 9.91211 8.00781L11.4746 9.43359L11.4746 10.0977C11.4746 10.3906 11.3086 10.5664 11.0156 10.5664ZM6.34766 8.00781C5.83984 8.00781 5.41992 7.59766 5.41992 7.08984C5.41992 6.5918 5.83984 6.17188 6.34766 6.17188C6.8457 6.17188 7.25586 6.5918 7.25586 7.08984C7.25586 7.59766 6.8457 8.00781 6.34766 8.00781Z" fill="#ffffff" fill-opacity="0.85"/>
 </g>
</svg>
