<svg version="1.1" xmlns="http://www.w3.org/2000/svg" xmlns:xlink="http://www.w3.org/1999/xlink" width="20.3906" height="16.3379" viewBox="0 0 20.3906 16.3379">
 <g>
  <rect height="16.3379" opacity="0" width="20.3906" x="0" y="0"/>
  <path d="M16.1328 2.46094L16.1328 6.51367L14.7266 6.51367L14.7266 2.53906C14.7266 1.79688 14.3262 1.41602 13.623 1.41602L2.50977 1.41602C1.80664 1.41602 1.40625 1.79688 1.40625 2.53906L1.40625 10.1367C1.40625 10.8789 1.80664 11.2598 2.50977 11.2598L7.60742 11.2598L7.60742 12.666L2.49023 12.666C0.820312 12.666 0 11.8555 0 10.2148L0 2.46094C0 0.820312 0.820312 0.00976562 2.49023 0.00976562L13.6426 0.00976562C15.3125 0.00976562 16.1328 0.820312 16.1328 2.46094Z" fill="var(--color-primary)"/>
  <path d="M10.0977 16.3379L17.5391 16.3379C19.1992 16.3379 20.0293 15.5273 20.0293 13.8867L20.0293 8.96484C20.0293 7.33398 19.1992 6.51367 17.5391 6.51367L10.0977 6.51367C8.4375 6.51367 7.60742 7.32422 7.60742 8.96484L7.60742 13.8867C7.60742 15.5273 8.4375 16.3379 10.0977 16.3379ZM10.1172 14.9316C9.41406 14.9316 9.01367 14.5508 9.01367 13.8086L9.01367 9.04297C9.01367 8.30078 9.41406 7.91992 10.1172 7.91992L17.5195 7.91992C18.2227 7.91992 18.623 8.30078 18.623 9.04297L18.623 13.8086C18.623 14.5508 18.2227 14.9316 17.5195 14.9316Z" fill="var(--color-primary)"/>
 </g>
</svg>
