<?xml version="1.0" encoding="UTF-8"?>
<!--Generator: Apple Native CoreSVG 232.5-->
<!DOCTYPE svg
PUBLIC "-//W3C//DTD SVG 1.1//EN"
       "http://www.w3.org/Graphics/SVG/1.1/DTD/svg11.dtd">
<svg version="1.1" xmlns="http://www.w3.org/2000/svg" xmlns:xlink="http://www.w3.org/1999/xlink" width="10.5176" height="16.4941">
 <g>
  <rect height="16.4941" opacity="0" width="10.5176" x="0" y="0"/>
  <path d="M0 14.4531C0 15.6445 0.878906 16.4746 2.13867 16.4746L8.00781 16.4746C9.26758 16.4746 10.1562 15.6445 10.1562 14.4531L10.1562 2.02148C10.1562 0.830078 9.26758 0 8.00781 0L2.13867 0C0.878906 0 0 0.830078 0 2.02148ZM1.40625 14.209L1.40625 2.26562C1.40625 1.72852 1.75781 1.40625 2.32422 1.40625L7.82227 1.40625C8.39844 1.40625 8.74023 1.72852 8.74023 2.26562L8.74023 14.209C8.74023 14.7461 8.39844 15.0684 7.82227 15.0684L2.32422 15.0684C1.75781 15.0684 1.40625 14.7461 1.40625 14.209Z" fill="#ffffff" fill-opacity="0.85"/>
  <path d="M3.05664 14.0918L7.08984 14.0918C7.49023 14.0918 7.76367 13.8184 7.76367 13.3984L7.76367 12.4512C7.76367 12.0312 7.49023 11.7578 7.08984 11.7578L3.05664 11.7578C2.65625 11.7578 2.38281 12.0312 2.38281 12.4512L2.38281 13.3984C2.38281 13.8184 2.65625 14.0918 3.05664 14.0918Z" fill="#ffffff" fill-opacity="0.85"/>
 </g>
</svg>
