<svg version="1.1" xmlns="http://www.w3.org/2000/svg" xmlns:xlink="http://www.w3.org/1999/xlink" width="16.3574" height="20.5176" viewBox="0 0 16.3574 20.5176">
 <g>
  <rect height="20.5176" opacity="0" width="16.3574" x="0" y="0"/>
  <path d="M11.6088 2.29492L4.38726 2.29492C4.41186 1.58556 4.83789 1.19141 5.56641 1.19141L10.4297 1.19141C11.1582 1.19141 11.5842 1.58556 11.6088 2.29492Z" fill="currentColor"/>
  <path d="M13.2094 4.5969C12.9335 4.54621 12.6375 4.52148 12.3242 4.52148L3.68164 4.52148C3.36434 4.52148 3.06507 4.54642 2.78661 4.5976C2.87088 3.75876 3.42366 3.29102 4.3457 3.29102L11.6504 3.29102C12.5722 3.29102 13.1249 3.75849 13.2094 4.5969Z" fill="currentColor"/>
  <path d="M14.8145 8.16406L14.8145 16.875C14.8145 18.5156 13.9844 19.3359 12.3242 19.3359L3.68164 19.3359C2.01172 19.3359 1.19141 18.5156 1.19141 16.875L1.19141 8.16406C1.19141 6.52344 2.01172 5.71289 3.68164 5.71289L12.3242 5.71289C13.9844 5.71289 14.8145 6.52344 14.8145 8.16406ZM5.71289 9.83398L5.71289 15.3125C5.71289 15.7129 6.16211 15.9082 6.55273 15.6641L11.0742 13.0176C11.416 12.8223 11.4062 12.3242 11.0742 12.1289L6.55273 9.47266C6.20117 9.26758 5.71289 9.43359 5.71289 9.83398Z" fill="currentColor"/>
 </g>
</svg>
