<svg version="1.1" xmlns="http://www.w3.org/2000/svg" xmlns:xlink="http://www.w3.org/1999/xlink" width="17.3828" height="17.1582" viewBox="0 0 17.3828 17.1582">
 <g>
  <rect height="17.1582" opacity="0" width="17.3828" x="0" y="0"/>
  <path d="M4.70703 17.1582C5.04883 17.1582 5.2832 16.9824 5.69336 16.6016L8.45703 14.043L13.3594 14.043C15.7617 14.043 17.0215 12.7539 17.0215 10.3906L17.0215 4.70703C17.0215 2.34375 15.7617 1.04492 13.3594 1.04492L3.66211 1.04492C1.25977 1.04492 0 2.34375 0 4.70703L0 10.3906C0 12.7539 1.25977 14.043 3.66211 14.043L3.93555 14.043L3.93555 16.2793C3.93555 16.8066 4.21875 17.1582 4.70703 17.1582Z" fill="var(--color-tertiary)"/>
  <path d="M4.6875 7.54883C4.6875 7.08984 5.00977 6.77734 5.46875 6.77734L7.75391 6.77734L7.75391 4.50195C7.75391 4.04297 8.04688 3.7207 8.49609 3.7207C8.95508 3.7207 9.26758 4.04297 9.26758 4.50195L9.26758 6.77734L11.5625 6.77734C12.0117 6.77734 12.334 7.08984 12.334 7.54883C12.334 7.99805 12.0117 8.30078 11.5625 8.30078L9.26758 8.30078L9.26758 10.5957C9.26758 11.0449 8.95508 11.3574 8.49609 11.3574C8.04688 11.3574 7.75391 11.0449 7.75391 10.5957L7.75391 8.30078L5.46875 8.30078C5.00977 8.30078 4.6875 7.99805 4.6875 7.54883Z" fill="var(--color-primary)"/>
 </g>
</svg>
