<svg version="1.1" xmlns="http://www.w3.org/2000/svg" xmlns:xlink="http://www.w3.org/1999/xlink" width="13.125" height="12.7832" viewBox="0 0 13.125 12.7832">
 <g>
  <rect height="12.7832" opacity="0" width="13.125" x="0" y="0"/>
  <path d="M0 6.38672C0 6.81641 0.361328 7.17773 0.791016 7.17773L5.5957 7.17773L5.5957 11.9824C5.5957 12.4023 5.95703 12.7734 6.38672 12.7734C6.81641 12.7734 7.16797 12.4023 7.16797 11.9824L7.16797 7.17773L11.9824 7.17773C12.4023 7.17773 12.7637 6.81641 12.7637 6.38672C12.7637 5.95703 12.4023 5.5957 11.9824 5.5957L7.16797 5.5957L7.16797 0.791016C7.16797 0.371094 6.81641 0 6.38672 0C5.95703 0 5.5957 0.371094 5.5957 0.791016L5.5957 5.5957L0.791016 5.5957C0.361328 5.5957 0 5.95703 0 6.38672Z" fill="currentColor"/>
 </g>
</svg>
