<?xml version="1.0" encoding="UTF-8"?>
<!--Generator: Apple Native CoreSVG 232.5-->
<!DOCTYPE svg
PUBLIC "-//W3C//DTD SVG 1.1//EN"
       "http://www.w3.org/Graphics/SVG/1.1/DTD/svg11.dtd">
<svg version="1.1" xmlns="http://www.w3.org/2000/svg" xmlns:xlink="http://www.w3.org/1999/xlink" width="16.1328" height="15.7715">
 <g>
  <rect height="15.7715" opacity="0" width="16.1328" x="0" y="0"/>
  <path d="M7.88086 15.7715C12.1875 15.7715 15.7715 12.1973 15.7715 7.89062C15.7715 3.58398 12.1777 0.00976562 7.87109 0.00976562C3.57422 0.00976562 0 3.58398 0 7.89062C0 12.1973 3.58398 15.7715 7.88086 15.7715Z" fill="#ffffff" fill-opacity="0.25"/>
  <path d="M5.70312 7.04102C5.36133 7.04102 5.07812 6.74805 5.07812 6.40625C5.07812 6.06445 5.36133 5.79102 5.70312 5.79102L7.27539 5.79102L7.27539 4.20898C7.27539 3.86719 7.56836 3.58398 7.90039 3.58398C8.24219 3.58398 8.53516 3.86719 8.53516 4.20898L8.53516 5.79102L10.0977 5.79102C10.4297 5.79102 10.7129 6.06445 10.7129 6.40625C10.7129 6.74805 10.4297 7.04102 10.0977 7.04102L8.53516 7.04102L8.53516 8.60352C8.53516 8.93555 8.24219 9.22852 7.90039 9.22852C7.56836 9.22852 7.27539 8.93555 7.27539 8.60352L7.27539 7.04102ZM5.71289 11.7285C5.36133 11.7285 5.07812 11.4258 5.07812 11.1133C5.07812 10.7715 5.36133 10.4785 5.71289 10.4785L10.0879 10.4785C10.4297 10.4785 10.7129 10.7715 10.7129 11.1133C10.7129 11.4258 10.4297 11.7285 10.0879 11.7285Z" fill="#ffffff" fill-opacity="0.85"/>
 </g>
</svg>
