<svg version="1.1" xmlns="http://www.w3.org/2000/svg" xmlns:xlink="http://www.w3.org/1999/xlink" width="17.9103" height="17.5587" viewBox="0 0 17.9103 17.5587">
 <g>
  <rect height="17.5587" opacity="0" width="17.9103" x="0" y="0"/>
  <path d="M10.5274 0.893616L16.6505 7.01666C17.8321 8.1983 17.8516 9.35065 16.6797 10.5128L10.5176 16.6846C9.34576 17.8467 8.19342 17.837 7.02155 16.6553L0.888733 10.5323C-0.283142 9.35065-0.302673 8.20807 0.869202 7.03619L7.03131 0.864319C8.20319-0.297791 9.35553-0.288025 10.5274 0.893616ZM8.01764 5.7276L8.01764 8.01276L5.73248 8.01276C5.2735 8.01276 4.95123 8.32526 4.95123 8.78424C4.95123 9.23346 5.2735 9.53619 5.73248 9.53619L8.01764 9.53619L8.01764 11.8214C8.01764 12.2706 8.32037 12.5928 8.76959 12.5928C9.22858 12.5928 9.54108 12.2803 9.54108 11.8214L9.54108 9.53619L11.8262 9.53619C12.2755 9.53619 12.5977 9.23346 12.5977 8.78424C12.5977 8.32526 12.2755 8.01276 11.8262 8.01276L9.54108 8.01276L9.54108 5.7276C9.54108 5.26862 9.22858 4.95612 8.76959 4.95612C8.32037 4.95612 8.01764 5.26862 8.01764 5.7276Z" fill="var(--color-primary)"/>
 </g>
</svg>
