<?xml version="1.0" encoding="UTF-8"?>
<!--Generator: Apple Native CoreSVG 232.5-->
<!DOCTYPE svg
PUBLIC "-//W3C//DTD SVG 1.1//EN"
       "http://www.w3.org/Graphics/SVG/1.1/DTD/svg11.dtd">
<svg version="1.1" xmlns="http://www.w3.org/2000/svg" xmlns:xlink="http://www.w3.org/1999/xlink" width="18.4766" height="14.248">
 <g>
  <rect height="14.248" opacity="0" width="18.4766" x="0" y="0"/>
  <path d="M2.49023 14.248L15.625 14.248C17.2949 14.248 18.1152 13.4277 18.1152 11.7871L18.1152 2.4707C18.1152 0.830078 17.2949 0.00976562 15.625 0.00976562L2.49023 0.00976562C0.830078 0.00976562 0 0.830078 0 2.4707L0 11.7871C0 13.4277 0.830078 14.248 2.49023 14.248ZM2.50977 12.832C1.80664 12.832 1.40625 12.4512 1.40625 11.7188L1.40625 2.53906C1.40625 1.79688 1.80664 1.42578 2.50977 1.42578L15.6055 1.42578C16.3086 1.42578 16.709 1.79688 16.709 2.53906L16.709 11.7188C16.709 12.4512 16.3086 12.832 15.6055 12.832Z" fill="#ffffff" fill-opacity="0.55"/>
  <path d="M5.46875 7.11914C5.46875 7.54883 5.77148 7.8418 6.2207 7.8418L8.33008 7.8418L8.33008 9.96094C8.33008 10.4004 8.62305 10.7031 9.05273 10.7031C9.49219 10.7031 9.79492 10.4004 9.79492 9.96094L9.79492 7.8418L11.9043 7.8418C12.3438 7.8418 12.6465 7.54883 12.6465 7.11914C12.6465 6.67969 12.3535 6.37695 11.9043 6.37695L9.79492 6.37695L9.79492 4.26758C9.79492 3.81836 9.49219 3.51562 9.05273 3.51562C8.62305 3.51562 8.33008 3.81836 8.33008 4.26758L8.33008 6.37695L6.2207 6.37695C5.77148 6.37695 5.46875 6.67969 5.46875 7.11914Z" fill="#ffffff" fill-opacity="0.85"/>
 </g>
</svg>
