<svg version="1.1" xmlns="http://www.w3.org/2000/svg" xmlns:xlink="http://www.w3.org/1999/xlink" width="16.1328" height="15.7715" viewBox="0 0 16.1328 15.7715">
 <g>
  <rect height="15.7715" opacity="0" width="16.1328" x="0" y="0"/>
  <path d="M15.7715 7.88086C15.7715 12.1875 12.1875 15.7617 7.88086 15.7617C3.58398 15.7617 0 12.1875 0 7.88086C0 3.57422 3.57422 0 7.87109 0C12.1777 0 15.7715 3.57422 15.7715 7.88086ZM9.18945 4.58008L9.18945 7.31445L8.69141 7.57812C8.11523 7.87109 8.48633 8.66211 9.10156 8.34961L9.18945 8.30078L9.18945 10.3809C9.18945 10.7422 9.42383 10.9863 9.75586 10.9863C10.1074 10.9863 10.332 10.7422 10.332 10.3809L10.332 7.71484L10.9766 7.38281C11.582 7.07031 11.1719 6.28906 10.6055 6.58203L10.332 6.71875L10.332 4.58008C10.332 4.21875 10.1074 3.98438 9.75586 3.98438C9.42383 3.98438 9.18945 4.21875 9.18945 4.58008ZM5.01953 5.99609C4.76562 5.99609 4.58984 6.18164 4.58984 6.41602C4.58984 6.66016 4.76562 6.8457 5.01953 6.8457L6.72852 6.8457L6.72852 6.94336L4.74609 10.0195C4.64844 10.1758 4.58984 10.293 4.58984 10.4688C4.58984 10.7129 4.78516 10.8789 5.06836 10.8789L7.60742 10.8789C7.85156 10.8789 8.03711 10.7031 8.03711 10.4688C8.03711 10.2148 7.85156 10.0391 7.60742 10.0391L5.99609 10.0391L5.99609 9.96094L7.8125 6.99219C7.91992 6.81641 7.98828 6.67969 7.98828 6.49414C7.98828 6.20117 7.75391 5.99609 7.44141 5.99609Z" fill="var(--color-primary)"/>
 </g>
</svg>
