<svg version="1.1" xmlns="http://www.w3.org/2000/svg" xmlns:xlink="http://www.w3.org/1999/xlink" width="21.0376" height="10.8691" viewBox="0 0 21.0376 10.8691">
 <g>
  <rect height="10.8691" opacity="0" width="21.0376" x="0" y="0"/>
  <path d="M17.5208 1.36719L20.0208 3.95508C20.9094 4.86328 20.8899 5.92773 20.0208 6.8457L17.5305 9.47266C16.7493 10.2832 15.9094 10.8496 14.8254 10.8496L5.85084 10.8496C4.76685 10.8496 3.92701 10.2832 3.15552 9.47266L0.655523 6.8457C-0.213618 5.92773-0.223384 4.86328 0.655523 3.95508L3.16529 1.36719C4.0149 0.488281 4.67896 0 5.85084 0L14.8254 0C15.9973 0 16.6614 0.488281 17.5208 1.36719ZM8.9856 6.81641C8.9856 7.56836 9.60084 8.18359 10.3528 8.18359C11.1047 8.18359 11.72 7.56836 11.72 6.81641C11.72 6.06445 11.1047 5.43945 10.3528 5.43945C9.60084 5.43945 8.9856 6.06445 8.9856 6.81641ZM3.74146 5.39062C3.74146 6.14258 4.35669 6.76758 5.10865 6.76758C5.8606 6.76758 6.4856 6.14258 6.4856 5.39062C6.4856 4.63867 5.8606 4.02344 5.10865 4.02344C4.35669 4.02344 3.74146 4.63867 3.74146 5.39062ZM14.2102 5.39062C14.2102 6.14258 14.8352 6.76758 15.5872 6.76758C16.3391 6.76758 16.9544 6.14258 16.9544 5.39062C16.9544 4.63867 16.3391 4.02344 15.5872 4.02344C14.8352 4.02344 14.2102 4.63867 14.2102 5.39062Z" fill="var(--color-primary)"/>
 </g>
</svg>
