<svg version="1.1" xmlns="http://www.w3.org/2000/svg" xmlns:xlink="http://www.w3.org/1999/xlink" width="14.5898" height="14.248" viewBox="0 0 14.5898 14.248">
 <g>
  <rect height="14.248" opacity="0" width="14.5898" x="0" y="0"/>
  <path d="M14.2285 2.4707L14.2285 11.7871C14.2285 13.4277 13.4082 14.248 11.7383 14.248L2.49023 14.248C0.830078 14.248 0 13.4277 0 11.7871L0 2.4707C0 0.830078 0.830078 0.00976562 2.49023 0.00976562L11.7383 0.00976562C13.4082 0.00976562 14.2285 0.830078 14.2285 2.4707ZM4.58008 3.47656C4.3457 3.47656 4.13086 3.54492 3.96484 3.69141C3.07617 4.52148 2.46094 5.80078 2.46094 7.12891C2.46094 8.44727 3.06641 9.7168 3.94531 10.5469C4.12109 10.7129 4.3457 10.7812 4.58008 10.7812L9.64844 10.7812C9.88281 10.7812 10.1074 10.7129 10.2832 10.5469C11.1719 9.7168 11.7676 8.44727 11.7676 7.12891C11.7676 5.81055 11.1719 4.54102 10.2832 3.71094C10.1074 3.54492 9.88281 3.47656 9.64844 3.47656ZM5.64453 5.67383L5.64453 8.57422C5.64453 8.84766 5.42969 9.05273 5.16602 9.05273C4.89258 9.05273 4.6875 8.84766 4.6875 8.57422L4.6875 5.67383C4.6875 5.40039 4.89258 5.19531 5.16602 5.19531C5.42969 5.19531 5.64453 5.40039 5.64453 5.67383ZM9.55078 5.67383L9.55078 8.57422C9.55078 8.84766 9.33594 9.05273 9.07227 9.05273C8.79883 9.05273 8.59375 8.84766 8.59375 8.57422L8.59375 5.67383C8.59375 5.40039 8.79883 5.19531 9.07227 5.19531C9.33594 5.19531 9.55078 5.40039 9.55078 5.67383Z" fill="currentColor"/>
 </g>
</svg>
