<svg version="1.1" xmlns="http://www.w3.org/2000/svg" xmlns:xlink="http://www.w3.org/1999/xlink" width="14.5898" height="14.248" viewBox="0 0 14.5898 14.248">
 <g>
  <rect height="14.248" opacity="0" width="14.5898" x="0" y="0"/>
  <path d="M2.49023 14.248L11.7383 14.248C13.4082 14.248 14.2285 13.4277 14.2285 11.7871L14.2285 2.4707C14.2285 0.830078 13.4082 0.00976562 11.7383 0.00976562L2.49023 0.00976562C0.830078 0.00976562 0 0.830078 0 2.4707L0 11.7871C0 13.4277 0.830078 14.248 2.49023 14.248ZM2.50977 12.832C1.80664 12.832 1.40625 12.4609 1.40625 11.7188L1.40625 2.53906C1.40625 1.80664 1.80664 1.42578 2.50977 1.42578L11.7188 1.42578C12.4219 1.42578 12.8223 1.80664 12.8223 2.53906L12.8223 11.7188C12.8223 12.4609 12.4219 12.832 11.7188 12.832Z" fill="var(--color-primary)"/>
  <path d="M7.11914 11.1719C9.36523 11.1719 11.1621 9.36523 11.1621 7.11914C11.1621 4.87305 9.36523 3.06641 7.11914 3.06641C4.86328 3.06641 3.06641 4.87305 3.06641 7.11914C3.06641 9.36523 4.86328 11.1719 7.11914 11.1719ZM5.19531 8.04688C4.6875 8.04688 4.26758 7.62695 4.26758 7.11914C4.26758 6.61133 4.6875 6.19141 5.19531 6.19141C5.71289 6.19141 6.12305 6.61133 6.12305 7.11914C6.12305 7.62695 5.71289 8.04688 5.19531 8.04688ZM9.0332 8.04688C8.52539 8.04688 8.10547 7.62695 8.10547 7.11914C8.10547 6.61133 8.52539 6.19141 9.0332 6.19141C9.54102 6.19141 9.96094 6.61133 9.96094 7.11914C9.96094 7.62695 9.54102 8.04688 9.0332 8.04688ZM7.11914 10.1074C6.60156 10.1074 6.19141 9.6875 6.19141 9.17969C6.19141 8.67188 6.60156 8.25195 7.11914 8.25195C7.62695 8.25195 8.04688 8.67188 8.04688 9.17969C8.04688 9.6875 7.62695 10.1074 7.11914 10.1074Z" fill="var(--color-primary)"/>
 </g>
</svg>
