<svg version="1.1" xmlns="http://www.w3.org/2000/svg" xmlns:xlink="http://www.w3.org/1999/xlink" width="14.5898" height="14.248" viewBox="0 0 14.5898 14.248">
 <g>
  <rect height="14.248" opacity="0" width="14.5898" x="0" y="0"/>
  <path d="M2.49023 14.248L11.7383 14.248C13.4082 14.248 14.2285 13.4277 14.2285 11.7871L14.2285 2.4707C14.2285 0.830078 13.4082 0.00976562 11.7383 0.00976562L2.49023 0.00976562C0.830078 0.00976562 0 0.830078 0 2.4707L0 11.7871C0 13.4277 0.830078 14.248 2.49023 14.248Z" fill="var(--color-tertiary)"/>
  <path d="M2.51953 7.88086L2.51953 6.35742C2.51953 6.04492 2.72461 5.84961 3.03711 5.84961L3.39844 5.84961L3.39844 5.48828C3.39844 4.11133 5.18555 2.8418 7.11914 2.8418C9.05273 2.8418 10.8398 4.11133 10.8398 5.48828L10.8398 5.84961L11.1914 5.84961C11.5039 5.84961 11.7188 6.04492 11.7188 6.35742L11.7188 7.88086C11.7188 8.19336 11.5039 8.39844 11.1914 8.39844L10.8398 8.39844L10.8398 8.75C10.8398 10.127 9.05273 11.3965 7.11914 11.3965C5.18555 11.3965 3.39844 10.127 3.39844 8.75L3.39844 8.39844L3.03711 8.39844C2.72461 8.39844 2.51953 8.19336 2.51953 7.88086ZM5.12695 8.08594C5.6543 8.08594 6.08398 7.64648 6.08398 7.11914C6.08398 6.5918 5.6543 6.15234 5.12695 6.15234C4.58984 6.15234 4.16016 6.5918 4.16016 7.11914C4.16016 7.64648 4.58984 8.08594 5.12695 8.08594ZM9.11133 8.08594C9.63867 8.08594 10.0684 7.64648 10.0684 7.11914C10.0684 6.5918 9.63867 6.15234 9.11133 6.15234C8.57422 6.15234 8.14453 6.5918 8.14453 7.11914C8.14453 7.64648 8.57422 8.08594 9.11133 8.08594Z" fill="var(--color-primary)"/>
 </g>
</svg>
