<svg version="1.1" xmlns="http://www.w3.org/2000/svg" xmlns:xlink="http://www.w3.org/1999/xlink" width="20.4907" height="12.0605" viewBox="0 0 20.4907 12.0605">
 <g>
  <rect height="12.0605" opacity="0" width="20.4907" x="0" y="0"/>
  <path d="M17.2327 1.36719L19.5471 4.32617C20.3381 5.33203 20.3284 6.66992 19.5569 7.66602L17.2424 10.6641C16.5588 11.5625 15.6311 12.041 14.5374 12.041L5.59205 12.041C4.4983 12.041 3.58033 11.5625 2.88697 10.6641L0.582281 7.66602C-0.189203 6.66992-0.198969 5.33203 0.582281 4.32617L2.89673 1.36719C3.64869 0.410156 4.42017 0 5.59205 0L14.5374 0C15.7092 0 16.4807 0.410156 17.2327 1.36719ZM8.69752 7.82227C8.69752 8.57422 9.31275 9.18945 10.0647 9.18945C10.8167 9.18945 11.4319 8.57422 11.4319 7.82227C11.4319 7.07031 10.8167 6.44531 10.0647 6.44531C9.31275 6.44531 8.69752 7.07031 8.69752 7.82227ZM3.46314 5.97656C3.46314 6.72852 4.07837 7.35352 4.83033 7.35352C5.58228 7.35352 6.20728 6.72852 6.20728 5.97656C6.20728 5.22461 5.58228 4.60938 4.83033 4.60938C4.07837 4.60938 3.46314 5.22461 3.46314 5.97656ZM13.9319 5.97656C13.9319 6.72852 14.5569 7.35352 15.3088 7.35352C16.0608 7.35352 16.676 6.72852 16.676 5.97656C16.676 5.22461 16.0608 4.60938 15.3088 4.60938C14.5569 4.60938 13.9319 5.22461 13.9319 5.97656Z" fill="currentColor"/>
 </g>
</svg>
