<?xml version="1.0" encoding="UTF-8"?>
<!--Generator: Apple Native CoreSVG 232.5-->
<!DOCTYPE svg
PUBLIC "-//W3C//DTD SVG 1.1//EN"
       "http://www.w3.org/Graphics/SVG/1.1/DTD/svg11.dtd">
<svg version="1.1" xmlns="http://www.w3.org/2000/svg" xmlns:xlink="http://www.w3.org/1999/xlink" width="15.0488" height="14.248">
 <g>
  <rect height="14.248" opacity="0" width="15.0488" x="0" y="0"/>
  <path d="M2.49023 14.248L12.1973 14.248C13.8672 14.248 14.6875 13.4277 14.6875 11.7871L14.6875 2.4707C14.6875 0.830078 13.8672 0.00976562 12.1973 0.00976562L2.49023 0.00976562C0.830078 0.00976562 0 0.830078 0 2.4707L0 11.7871C0 13.4277 0.830078 14.248 2.49023 14.248Z" fill="#ffffff" fill-opacity="0.25"/>
  <path d="M4.63867 10.9375C3.96484 10.9375 3.4082 10.3906 3.4082 9.69727C3.4082 9.0332 3.96484 8.47656 4.63867 8.47656C5.3125 8.47656 5.86914 9.0332 5.86914 9.69727C5.86914 10.3906 5.3125 10.9375 4.63867 10.9375ZM10.0586 10.9375C9.375 10.9375 8.81836 10.3906 8.81836 9.69727C8.81836 9.0332 9.375 8.47656 10.0586 8.47656C10.7227 8.47656 11.2793 9.0332 11.2793 9.69727C11.2793 10.3906 10.7227 10.9375 10.0586 10.9375ZM7.34375 5.76172C6.66016 5.76172 6.10352 5.20508 6.10352 4.53125C6.10352 3.84766 6.66016 3.30078 7.34375 3.30078C8.01758 3.30078 8.57422 3.84766 8.57422 4.53125C8.57422 5.20508 8.01758 5.76172 7.34375 5.76172Z" fill="#ffffff" fill-opacity="0.85"/>
 </g>
</svg>
