<?xml version="1.0" encoding="UTF-8"?>
<!--Generator: Apple Native CoreSVG 232.5-->
<!DOCTYPE svg
PUBLIC "-//W3C//DTD SVG 1.1//EN"
       "http://www.w3.org/Graphics/SVG/1.1/DTD/svg11.dtd">
<svg version="1.1" xmlns="http://www.w3.org/2000/svg" xmlns:xlink="http://www.w3.org/1999/xlink" width="16.1328" height="15.7715">
 <g>
  <rect height="15.7715" opacity="0" width="16.1328" x="0" y="0"/>
  <path d="M7.88086 15.7617C12.1875 15.7617 15.7715 12.1875 15.7715 7.88086C15.7715 3.57422 12.1777 0 7.87109 0C3.57422 0 0 3.57422 0 7.88086C0 12.1875 3.58398 15.7617 7.88086 15.7617Z" fill="#ffffff" fill-opacity="0.25"/>
  <path d="M4.3457 10.0879C4.3457 9.79492 4.57031 9.56055 4.85352 9.56055C5.01953 9.56055 5.15625 9.61914 5.2832 9.75586L5.66406 10.1367L6.13281 10.6934L6.08398 9.53125L6.08398 6.17188C6.08398 4.47266 7.13867 3.37891 8.78906 3.37891C10.3613 3.37891 11.4355 4.48242 11.4355 6.09375C11.4355 7.68555 10.4004 8.75 8.81836 8.75C8.51562 8.75 8.23242 8.66211 8.06641 8.50586C7.96875 8.39844 7.91016 8.27148 7.91016 8.10547C7.91016 7.8418 8.125 7.63672 8.4082 7.63672C8.55469 7.63672 8.66211 7.66602 8.85742 7.66602C9.7168 7.66602 10.332 7.03125 10.3418 6.09375C10.3516 5.13672 9.7168 4.50195 8.78906 4.50195C7.76367 4.50195 7.20703 5.11719 7.20703 6.2793L7.20703 9.52148L7.16797 10.6934L7.63672 10.127L8.01758 9.73633C8.13477 9.61914 8.26172 9.56055 8.44727 9.56055C8.73047 9.56055 8.95508 9.79492 8.95508 10.0879C8.95508 10.2148 8.90625 10.3516 8.78906 10.4883L7.27539 11.9922C7.07031 12.1973 6.85547 12.2949 6.65039 12.2949C6.45508 12.2949 6.25977 12.1875 6.04492 11.9922L4.52148 10.498C4.41406 10.3711 4.3457 10.2148 4.3457 10.0879Z" fill="#ffffff" fill-opacity="0.85"/>
 </g>
</svg>
