<?xml version="1.0" encoding="UTF-8"?>
<!--Generator: Apple Native CoreSVG 232.5-->
<!DOCTYPE svg
PUBLIC "-//W3C//DTD SVG 1.1//EN"
       "http://www.w3.org/Graphics/SVG/1.1/DTD/svg11.dtd">
<svg version="1.1" xmlns="http://www.w3.org/2000/svg" xmlns:xlink="http://www.w3.org/1999/xlink" width="23.0469" height="14.9902">
 <g>
  <rect height="14.9902" opacity="0" width="23.0469" x="0" y="0"/>
  <path d="M7.11914 14.9609L9.62891 14.9609C10.3125 14.9609 10.7422 14.502 10.7422 13.9453C10.7422 13.623 10.6152 13.291 10.3125 12.9785C9.99023 12.627 9.78516 12.207 9.78516 11.8066C9.78516 10.9961 10.4004 10.2734 11.3379 10.2734C12.2754 10.2734 12.8906 10.9961 12.8906 11.8066C12.8906 12.207 12.6953 12.627 12.3633 12.9785C12.0703 13.291 11.9434 13.623 11.9434 13.9453C11.9434 14.502 12.373 14.9609 13.0566 14.9609L15.5664 14.9609C17.207 14.9609 18.0371 14.1504 18.0371 12.5293L18.0371 9.95117C18.0371 9.85352 18.1055 9.80469 18.2324 9.89258C18.7207 10.2344 19.3066 10.4395 19.8535 10.4395C21.3086 10.4395 22.6855 9.23828 22.6855 7.49023C22.6855 5.73242 21.3086 4.54102 19.8535 4.54102C19.3066 4.54102 18.7207 4.73633 18.2324 5.08789C18.1055 5.16602 18.0371 5.12695 18.0371 5.01953L18.0371 2.43164C18.0371 0.810547 17.207 0 15.5664 0L13.0566 0C12.373 0 11.9434 0.458984 11.9434 1.01562C11.9434 1.33789 12.0703 1.66992 12.3633 1.98242C12.6953 2.33398 12.8906 2.75391 12.8906 3.1543C12.8906 3.96484 12.2754 4.6875 11.3379 4.6875C10.4102 4.6875 9.78516 3.96484 9.78516 3.1543C9.78516 2.75391 9.99023 2.33398 10.3125 1.98242C10.6152 1.66992 10.7422 1.33789 10.7422 1.01562C10.7422 0.458984 10.3125 0 9.62891 0L7.11914 0C5.46875 0 4.63867 0.810547 4.63867 2.43164L4.63867 5.01953C4.63867 5.12695 4.58008 5.16602 4.45312 5.08789C3.95508 4.73633 3.37891 4.54102 2.82227 4.54102C1.37695 4.54102 0 5.73242 0 7.49023C0 9.23828 1.37695 10.4395 2.82227 10.4395C3.37891 10.4395 3.95508 10.2344 4.45312 9.89258C4.58008 9.80469 4.63867 9.85352 4.63867 9.95117L4.63867 12.5293C4.63867 14.1504 5.46875 14.9609 7.11914 14.9609ZM7.13867 13.5547C6.44531 13.5547 6.04492 13.1738 6.04492 12.4512L6.04492 9.19922C6.04492 8.51562 5.5957 8.08594 5.0293 8.08594C4.7168 8.08594 4.38477 8.22266 4.0625 8.51562C3.7207 8.83789 3.30078 9.04297 2.90039 9.04297C2.08984 9.04297 1.35742 8.41797 1.35742 7.49023C1.35742 6.55273 2.08984 5.9375 2.90039 5.9375C3.30078 5.9375 3.7207 6.13281 4.0625 6.46484C4.38477 6.75781 4.7168 6.89453 5.0293 6.89453C5.5957 6.89453 6.04492 6.45508 6.04492 5.77148L6.04492 2.50977C6.04492 1.78711 6.44531 1.40625 7.13867 1.40625L8.7207 1.40625C9.11133 1.40625 8.93555 1.5918 8.85742 1.72852C8.56445 2.1875 8.38867 2.71484 8.38867 3.22266C8.38867 4.67773 9.58984 6.04492 11.3379 6.04492C13.0957 6.04492 14.2969 4.67773 14.2969 3.22266C14.2969 2.71484 14.1211 2.1875 13.8281 1.72852C13.7402 1.5918 13.5742 1.40625 13.9648 1.40625L15.5469 1.40625C16.2402 1.40625 16.6309 1.78711 16.6309 2.50977L16.6309 5.77148C16.6309 6.45508 17.0898 6.89453 17.6562 6.89453C17.9688 6.89453 18.3008 6.75781 18.6133 6.46484C18.9648 6.13281 19.3848 5.9375 19.7852 5.9375C20.5957 5.9375 21.3184 6.55273 21.3184 7.49023C21.3184 8.41797 20.5957 9.04297 19.7852 9.04297C19.3848 9.04297 18.9648 8.83789 18.6133 8.51562C18.3008 8.22266 17.9688 8.08594 17.6562 8.08594C17.0898 8.08594 16.6309 8.51562 16.6309 9.19922L16.6309 12.4512C16.6309 13.1738 16.2402 13.5547 15.5469 13.5547L13.9648 13.5547C13.5742 13.5547 13.7402 13.3691 13.8281 13.2324C14.1211 12.7734 14.2969 12.2461 14.2969 11.7383C14.2969 10.2832 13.0957 8.91602 11.3379 8.91602C9.58984 8.91602 8.38867 10.2832 8.38867 11.7383C8.38867 12.2461 8.56445 12.7734 8.85742 13.2324C8.93555 13.3691 9.11133 13.5547 8.7207 13.5547Z" fill="#ffffff" fill-opacity="0.85"/>
 </g>
</svg>
