<svg version="1.1" xmlns="http://www.w3.org/2000/svg" xmlns:xlink="http://www.w3.org/1999/xlink" width="14.5898" height="14.248" viewBox="0 0 14.5898 14.248">
 <g>
  <rect height="14.248" opacity="0" width="14.5898" x="0" y="0"/>
  <path d="M2.49023 14.248L11.7383 14.248C13.4082 14.248 14.2285 13.4277 14.2285 11.7871L14.2285 2.4707C14.2285 0.830078 13.4082 0.00976562 11.7383 0.00976562L2.49023 0.00976562C0.830078 0.00976562 0 0.830078 0 2.4707L0 11.7871C0 13.4277 0.830078 14.248 2.49023 14.248ZM2.50977 12.832C1.80664 12.832 1.40625 12.4609 1.40625 11.7188L1.40625 2.53906C1.40625 1.80664 1.80664 1.42578 2.50977 1.42578L11.7188 1.42578C12.4219 1.42578 12.8223 1.80664 12.8223 2.53906L12.8223 11.7188C12.8223 12.4609 12.4219 12.832 11.7188 12.832Z" fill="var(--color-secondary)"/>
  <path d="M7.11914 10.7324C7.54883 10.7324 7.95898 10.6641 8.32031 10.5273L8.81836 11.1914C8.99414 11.4258 9.16016 11.5039 9.36523 11.5039C9.66797 11.5039 9.88281 11.2988 9.88281 10.9961C9.88281 10.8398 9.84375 10.7324 9.66797 10.5176L9.25781 9.9707C10.0293 9.31641 10.4883 8.28125 10.4883 7.03125C10.4883 4.85352 9.10156 3.33008 7.11914 3.33008C5.13672 3.33008 3.75 4.85352 3.75 7.03125C3.75 9.20898 5.13672 10.7324 7.11914 10.7324ZM7.11914 9.64844C5.91797 9.64844 5.13672 8.62305 5.13672 7.03125C5.13672 5.43945 5.91797 4.41406 7.11914 4.41406C8.32031 4.41406 9.10156 5.43945 9.10156 7.03125C9.10156 7.86133 8.88672 8.52539 8.51562 8.98438L8.1543 8.49609C8.01758 8.32031 7.88086 8.25195 7.68555 8.25195C7.40234 8.25195 7.16797 8.4668 7.16797 8.74023C7.16797 8.89648 7.2168 9.01367 7.33398 9.17969L7.62695 9.58008C7.4707 9.62891 7.29492 9.64844 7.11914 9.64844Z" fill="var(--color-primary)"/>
 </g>
</svg>
