<svg version="1.1" xmlns="http://www.w3.org/2000/svg" xmlns:xlink="http://www.w3.org/1999/xlink" width="14.5898" height="14.248" viewBox="0 0 14.5898 14.248">
 <g>
  <rect height="14.248" opacity="0" width="14.5898" x="0" y="0"/>
  <path d="M14.2285 2.4707L14.2285 11.7871C14.2285 13.4277 13.4082 14.248 11.7383 14.248L2.49023 14.248C0.830078 14.248 0 13.4277 0 11.7871L0 2.4707C0 0.830078 0.830078 0.00976562 2.49023 0.00976562L11.7383 0.00976562C13.4082 0.00976562 14.2285 0.830078 14.2285 2.4707ZM3.61328 7.02148C3.61328 9.27734 5.05859 10.8691 7.11914 10.8691C7.56836 10.8691 7.98828 10.791 8.36914 10.6543L8.88672 11.3477C9.0625 11.582 9.23828 11.6699 9.45312 11.6699C9.77539 11.6699 9.99023 11.4551 9.99023 11.1426C9.99023 10.9766 9.94141 10.8691 9.77539 10.6445L9.33594 10.0684C10.1367 9.4043 10.6152 8.33008 10.6152 7.02148C10.6152 4.76562 9.17969 3.18359 7.11914 3.18359C5.05859 3.18359 3.61328 4.76562 3.61328 7.02148ZM9.16992 7.02148C9.16992 7.88086 8.95508 8.57422 8.57422 9.04297L8.18359 8.54492C8.05664 8.36914 7.91016 8.29102 7.70508 8.29102C7.41211 8.29102 7.16797 8.51562 7.16797 8.79883C7.16797 8.95508 7.2168 9.0918 7.34375 9.24805L7.64648 9.67773C7.48047 9.7168 7.30469 9.74609 7.11914 9.74609C5.86914 9.74609 5.06836 8.68164 5.06836 7.02148C5.06836 5.38086 5.86914 4.31641 7.11914 4.31641C8.36914 4.31641 9.16992 5.38086 9.16992 7.02148Z" fill="currentColor"/>
 </g>
</svg>
