<?xml version="1.0" encoding="UTF-8"?>
<!--Generator: Apple Native CoreSVG 232.5-->
<!DOCTYPE svg
PUBLIC "-//W3C//DTD SVG 1.1//EN"
       "http://www.w3.org/Graphics/SVG/1.1/DTD/svg11.dtd">
<svg version="1.1" xmlns="http://www.w3.org/2000/svg" xmlns:xlink="http://www.w3.org/1999/xlink" width="17.4609" height="10.752">
 <g>
  <rect height="10.752" opacity="0" width="17.4609" x="0" y="0"/>
  <path d="M0 3.74023C0 5.81055 1.5332 7.45117 3.47656 7.45117C4.375 7.45117 5.20508 7.09961 5.80078 6.46484L6.01562 6.46484C5.52734 7.90039 4.18945 8.95508 2.68555 9.45312C2.42188 9.54102 2.22656 9.61914 2.12891 9.72656C2.00195 9.84375 1.96289 9.98047 1.96289 10.1465C1.96289 10.5078 2.2168 10.752 2.60742 10.752C2.85156 10.752 3.00781 10.7129 3.35938 10.5957C4.39453 10.2344 5.3418 9.62891 6.07422 8.86719C7.11914 7.7832 7.76367 6.32812 7.76367 4.60938C7.76367 1.68945 5.91797 0.00976562 3.75 0.00976562C1.61133 0.00976562 0 1.64062 0 3.74023ZM9.32617 3.74023C9.32617 5.81055 10.8594 7.45117 12.8027 7.45117C13.7012 7.45117 14.5215 7.09961 15.127 6.46484L15.332 6.46484C14.8633 7.90039 13.5156 8.95508 12.0117 9.45312C11.748 9.54102 11.5625 9.61914 11.4551 9.72656C11.3379 9.84375 11.2793 9.98047 11.2793 10.1465C11.2793 10.5078 11.5527 10.752 11.9434 10.752C12.1777 10.752 12.334 10.7129 12.6855 10.5957C13.7207 10.2344 14.668 9.62891 15.4004 8.86719C16.4453 7.7832 17.0996 6.32812 17.0996 4.60938C17.0996 1.68945 15.2441 0.00976562 13.0859 0.00976562C10.9473 0.00976562 9.32617 1.64062 9.32617 3.74023Z" fill="#ffffff" fill-opacity="0.85"/>
 </g>
</svg>
