<?xml version="1.0" encoding="UTF-8"?>
<!--Generator: Apple Native CoreSVG 232.5-->
<!DOCTYPE svg
PUBLIC "-//W3C//DTD SVG 1.1//EN"
       "http://www.w3.org/Graphics/SVG/1.1/DTD/svg11.dtd">
<svg version="1.1" xmlns="http://www.w3.org/2000/svg" xmlns:xlink="http://www.w3.org/1999/xlink" width="18.2715" height="13.5645">
 <g>
  <rect height="13.5645" opacity="0" width="18.2715" x="0" y="0"/>
  <path d="M6.61133 13.5547L11.2988 13.5547C15.8301 13.5547 17.9102 11.4844 17.9102 7.1875L17.9102 2.41211C17.9102 0.810547 17.0801 0 15.459 0L2.45117 0C0.820312 0 0 0.810547 0 2.41211L0 7.1875C0 11.4844 2.08008 13.5547 6.61133 13.5547Z" fill="#ffffff" fill-opacity="0.25"/>
  <path d="M7.13867 10.1172C6.65039 10.1172 6.39648 9.78516 6.39648 9.29688L6.39648 4.16016C6.39648 3.66211 6.65039 3.30078 7.13867 3.30078L9.17969 3.30078C10.7422 3.30078 11.748 4.19922 11.748 5.56641C11.748 6.42578 11.2207 7.20703 10.4492 7.54883L11.3672 8.93555C11.4844 9.0918 11.543 9.26758 11.543 9.45312C11.543 9.83398 11.2305 10.1172 10.8105 10.1172C10.498 10.1172 10.2637 9.98047 10.0586 9.64844L8.95508 7.79297L7.92969 7.79297L7.92969 9.29688C7.92969 9.79492 7.62695 10.1172 7.13867 10.1172ZM7.92969 6.63086L8.98438 6.63086C9.78516 6.63086 10.2344 6.30859 10.2344 5.5957C10.2344 4.89258 9.75586 4.51172 9.01367 4.51172L7.92969 4.51172Z" fill="#ffffff" fill-opacity="0.85"/>
 </g>
</svg>
