<?xml version="1.0" encoding="UTF-8"?>
<!--Generator: Apple Native CoreSVG 232.5-->
<!DOCTYPE svg
PUBLIC "-//W3C//DTD SVG 1.1//EN"
       "http://www.w3.org/Graphics/SVG/1.1/DTD/svg11.dtd">
<svg version="1.1" xmlns="http://www.w3.org/2000/svg" xmlns:xlink="http://www.w3.org/1999/xlink" width="18.2031" height="15.2637">
 <g>
  <rect height="15.2637" opacity="0" width="18.2031" x="0" y="0"/>
  <path d="M11.9043 12.8418C11.9043 14.3652 10.791 15.2637 8.91602 15.2637C7.05078 15.2637 5.9375 14.3652 5.9375 12.8418L5.9375 12.5732C6.84963 12.77 7.84947 12.8711 8.91602 12.8711C9.9865 12.8711 10.9896 12.7697 11.9043 12.5721Z" fill="#ffffff" fill-opacity="0.85"/>
  <path d="M8.91602 11.9141C13.7109 11.9141 16.8848 9.80469 16.8848 6.66992C16.8848 3.52539 13.7012 1.41602 8.90625 1.41602C4.13086 1.41602 0.957031 3.52539 0.957031 6.66992C0.957031 9.80469 4.13086 11.9141 8.91602 11.9141ZM8.91602 10.4004C5.09766 10.4004 2.54883 8.89648 2.54883 6.66992C2.54883 4.43359 5.09766 2.92969 8.90625 2.92969C12.7344 2.92969 15.293 4.43359 15.293 6.66992C15.293 8.89648 12.7441 10.4004 8.91602 10.4004Z" fill="#ffffff" fill-opacity="0.85"/>
  <path d="M7.64648 8.95508C7.97852 8.95508 8.17383 8.7207 8.17383 8.36914L8.17383 7.36328L8.86719 7.36328L9.6582 8.64258C9.81445 8.87695 9.94141 8.95508 10.1562 8.95508C10.4199 8.95508 10.6543 8.76953 10.6543 8.49609C10.6543 8.36914 10.6152 8.25195 10.5371 8.14453L9.91211 7.1875C10.4395 6.95312 10.7715 6.44531 10.7715 5.84961C10.7715 4.91211 10.0879 4.31641 9.04297 4.31641L7.64648 4.31641C7.33398 4.31641 7.13867 4.54102 7.13867 4.90234L7.13867 8.36914C7.13867 8.7207 7.34375 8.95508 7.64648 8.95508ZM8.17383 6.5625L8.17383 5.14648L8.91602 5.14648C9.43359 5.14648 9.73633 5.41992 9.73633 5.86914C9.73633 6.31836 9.44336 6.5625 8.89648 6.5625Z" fill="#ffffff" fill-opacity="0.85"/>
 </g>
</svg>
