<svg version="1.1" xmlns="http://www.w3.org/2000/svg" xmlns:xlink="http://www.w3.org/1999/xlink" width="18.4277" height="20.3027" viewBox="0 0 18.4277 20.3027">
 <g>
  <rect height="20.3027" opacity="0" width="18.4277" x="0" y="0"/>
  <path d="M12.0117 15.3613C12.0117 16.8848 10.8984 17.7832 9.0332 17.7832C7.1582 17.7832 6.05469 16.8848 6.05469 15.3613L6.05469 15.0043C6.96137 15.1929 7.95837 15.293 9.0332 15.293C10.108 15.293 11.105 15.1929 12.0117 15.0043Z" fill="currentColor"/>
  <path d="M16.9238 9.18945C16.9238 11.9336 13.9648 14.1504 9.0332 14.1504C4.10156 14.1504 1.14258 11.9336 1.14258 9.18945C1.14258 6.43555 4.10156 4.21875 9.02344 4.21875C13.9648 4.21875 16.9238 6.43555 16.9238 9.18945ZM7.79297 6.73828C7.46094 6.73828 7.25586 6.98242 7.25586 7.35352L7.25586 10.9473C7.25586 11.3184 7.46094 11.5527 7.79297 11.5527C8.125 11.5527 8.33984 11.3184 8.33984 10.9473L8.33984 9.91211L9.05273 9.91211L9.87305 11.2305C10.0195 11.4746 10.166 11.5723 10.3906 11.5723C10.6641 11.5723 10.8984 11.377 10.8984 11.0938C10.8984 10.9473 10.8594 10.8398 10.7812 10.7227L10.1367 9.72656C10.6836 9.48242 11.0254 8.95508 11.0254 8.33984C11.0254 7.36328 10.3223 6.73828 9.22852 6.73828ZM9.94141 8.35938C9.94141 8.82812 9.64844 9.08203 9.08203 9.08203L8.33984 9.08203L8.33984 7.61719L9.10156 7.61719C9.63867 7.61719 9.94141 7.89062 9.94141 8.35938Z" fill="currentColor"/>
  <path d="M7.09961 1.01562L8.67188 3.14453C8.89648 3.4375 9.30664 3.4375 9.53125 3.14453L11.1133 1.01562C11.4453 0.566406 11.2793 0 10.6641 0L7.53906 0C6.95312 0 6.74805 0.546875 7.09961 1.01562Z" fill="currentColor"/>
 </g>
</svg>
