<?xml version="1.0" encoding="UTF-8"?>
<!--Generator: Apple Native CoreSVG 232.5-->
<!DOCTYPE svg
PUBLIC "-//W3C//DTD SVG 1.1//EN"
       "http://www.w3.org/Graphics/SVG/1.1/DTD/svg11.dtd">
<svg version="1.1" xmlns="http://www.w3.org/2000/svg" xmlns:xlink="http://www.w3.org/1999/xlink" width="23.7646" height="18.0762">
 <g>
  <rect height="18.0762" opacity="0" width="23.7646" x="0" y="0"/>
  <path d="M20.73 9.0332C20.73 14.0137 16.687 18.0566 11.7065 18.0566C7.81522 18.0566 4.49023 15.5886 3.23196 12.1289C3.73218 12.2796 4.24872 12.2034 4.65786 11.9502C5.79754 14.7111 8.51571 16.6406 11.7065 16.6406C15.9253 16.6406 19.3237 13.252 19.3237 9.0332C19.3237 4.81445 15.9253 1.41602 11.7065 1.41602C8.51922 1.41602 5.79456 3.35584 4.65545 6.12502C4.24668 5.87228 3.73003 5.7965 3.22645 5.9513C4.4806 2.48119 7.80958 0 11.7065 0C16.6772 0 20.73 4.05273 20.73 9.0332Z" fill="#ffffff" fill-opacity="0.85"/>
  <path d="M3.27881 7.17773L1.37451 8.59375C1.06201 8.81836 1.07178 9.24805 1.37451 9.47266L3.28857 10.9082C3.73779 11.2402 4.32373 11.0547 4.32373 10.4492L4.32373 7.62695C4.32373 7.04102 3.73779 6.82617 3.27881 7.17773Z" fill="#ffffff" fill-opacity="0.85"/>
  <path d="M11.7065 15.2051C15.105 15.2051 17.8784 12.4414 17.8784 9.0332C17.8784 5.61523 15.105 2.85156 11.7065 2.85156C8.28857 2.85156 5.53467 5.61523 5.53467 9.0332C5.53467 12.4414 8.28857 15.2051 11.7065 15.2051ZM10.0464 12.0801C9.60693 12.0801 9.36279 11.7773 9.36279 11.3281L9.36279 6.64062C9.36279 6.19141 9.59717 5.85938 10.0464 5.85938L11.9116 5.85938C13.3374 5.85938 14.2554 6.67969 14.2554 7.92969C14.2554 8.7207 13.7769 9.42383 13.0737 9.73633L13.9038 11.0059C14.0112 11.1523 14.0698 11.3086 14.0698 11.4844C14.0698 11.8262 13.7866 12.0801 13.4058 12.0801C13.1128 12.0801 12.9077 11.9629 12.7124 11.6602L11.7065 9.96094L10.769 9.96094L10.769 11.3281C10.769 11.7871 10.4956 12.0801 10.0464 12.0801ZM10.769 8.89648L11.7261 8.89648C12.4683 8.89648 12.8784 8.60352 12.8784 7.95898C12.8784 7.31445 12.439 6.96289 11.7554 6.96289L10.769 6.96289Z" fill="#ffffff" fill-opacity="0.85"/>
 </g>
</svg>
