<svg version="1.1" xmlns="http://www.w3.org/2000/svg" xmlns:xlink="http://www.w3.org/1999/xlink" width="18.4277" height="15.2637" viewBox="0 0 18.4277 15.2637">
 <g>
  <rect height="15.2637" opacity="0" width="18.4277" x="0" y="0"/>
  <path d="M12.0117 12.8418C12.0117 14.3652 10.8984 15.2637 9.0332 15.2637C7.1582 15.2637 6.05469 14.3652 6.05469 12.8418L6.05469 12.4847C6.96137 12.6733 7.95837 12.7734 9.0332 12.7734C10.108 12.7734 11.105 12.6733 12.0117 12.4847Z" fill="currentColor"/>
  <path d="M16.9238 6.66992C16.9238 9.41406 13.9648 11.6309 9.0332 11.6309C4.10156 11.6309 1.14258 9.41406 1.14258 6.66992C1.14258 3.91602 4.10156 1.69922 9.02344 1.69922C13.9648 1.69922 16.9238 3.91602 16.9238 6.66992ZM7.79297 4.21875C7.46094 4.21875 7.25586 4.46289 7.25586 4.83398L7.25586 8.42773C7.25586 8.79883 7.46094 9.0332 7.79297 9.0332C8.125 9.0332 8.33984 8.79883 8.33984 8.42773L8.33984 7.39258L9.05273 7.39258L9.87305 8.71094C10.0195 8.95508 10.166 9.05273 10.3906 9.05273C10.6641 9.05273 10.8984 8.85742 10.8984 8.57422C10.8984 8.42773 10.8594 8.32031 10.7812 8.20312L10.1367 7.20703C10.6836 6.96289 11.0254 6.43555 11.0254 5.82031C11.0254 4.84375 10.3223 4.21875 9.22852 4.21875ZM9.94141 5.83984C9.94141 6.30859 9.64844 6.5625 9.08203 6.5625L8.33984 6.5625L8.33984 5.09766L9.10156 5.09766C9.63867 5.09766 9.94141 5.37109 9.94141 5.83984Z" fill="currentColor"/>
 </g>
</svg>
