<?xml version="1.0" encoding="UTF-8"?>
<!--Generator: Apple Native CoreSVG 232.5-->
<!DOCTYPE svg
PUBLIC "-//W3C//DTD SVG 1.1//EN"
       "http://www.w3.org/Graphics/SVG/1.1/DTD/svg11.dtd">
<svg version="1.1" xmlns="http://www.w3.org/2000/svg" xmlns:xlink="http://www.w3.org/1999/xlink" width="18.2715" height="13.5645">
 <g>
  <rect height="13.5645" opacity="0" width="18.2715" x="0" y="0"/>
  <path d="M6.61133 13.5547L11.2988 13.5547C15.8301 13.5547 17.9102 11.4844 17.9102 7.1875L17.9102 2.41211C17.9102 0.810547 17.0801 0 15.459 0L2.45117 0C0.820312 0 0 0.810547 0 2.41211L0 7.1875C0 11.4844 2.08008 13.5547 6.61133 13.5547ZM6.61133 12.1387C3.02734 12.1387 1.40625 10.6152 1.40625 7.28516L1.40625 2.49023C1.40625 1.76758 1.78711 1.41602 2.48047 1.41602L15.4297 1.41602C16.1133 1.41602 16.4941 1.76758 16.4941 2.49023L16.4941 7.28516C16.4941 10.6152 14.8828 12.1387 11.2988 12.1387Z" fill="#ffffff" fill-opacity="0.85"/>
  <path d="M5.9668 10C6.35742 10 6.5918 9.73633 6.5918 9.33594L6.5918 7.58789L7.2168 7.58789L7.94922 9.47266C8.06641 9.79492 8.26172 10 8.61328 10C8.88672 10 9.19922 9.83398 9.19922 9.38477C9.19922 9.28711 9.15039 9.11133 9.05273 8.90625L8.4082 7.33398C9.02344 6.98242 9.24805 6.29883 9.24805 5.6543C9.24805 4.36523 8.47656 3.71094 7.26562 3.71094L5.95703 3.71094C5.55664 3.71094 5.32227 3.95508 5.32227 4.35547L5.32227 9.33594C5.32227 9.72656 5.55664 10 5.9668 10ZM6.5918 6.67969L6.5918 4.6875L7.14844 4.6875C7.69531 4.6875 7.97852 5.12695 7.97852 5.67383C7.97852 6.25 7.72461 6.67969 7.14844 6.67969ZM11.9238 9.96094C12.2656 9.96094 12.5488 9.67773 12.5488 9.32617L12.5488 4.28711C12.5488 3.82812 12.2754 3.57422 11.8164 3.57422C11.4648 3.57422 11.1719 3.7793 10.9668 3.92578L10.1855 4.53125C10.0293 4.64844 9.91211 4.81445 9.91211 5.03906C9.91211 5.30273 10.0879 5.48828 10.3418 5.48828C10.4785 5.48828 10.5566 5.44922 10.6445 5.38086L11.2891 4.86328L11.2891 9.32617C11.2891 9.67773 11.5723 9.96094 11.9238 9.96094Z" fill="#ffffff" fill-opacity="0.85"/>
 </g>
</svg>
