<svg version="1.1" xmlns="http://www.w3.org/2000/svg" xmlns:xlink="http://www.w3.org/1999/xlink" width="18.4766" height="21.0327" viewBox="0 0 18.4766 21.0327">
 <g>
  <rect height="21.0327" opacity="0" width="18.4766" x="0" y="0"/>
  <path d="M13.9746 8.87086C14.6582 8.86109 15.2051 8.32398 15.2051 7.65016C15.2051 6.97633 14.6582 6.42945 13.9746 6.41969C13.3008 6.40992 12.7441 6.97633 12.7441 7.65016C12.7441 8.32398 13.3008 8.88062 13.9746 8.87086ZM13.9746 12.4646C14.6582 12.4646 15.2051 11.8982 15.2051 11.2244C15.2051 10.5505 14.6582 9.99391 13.9746 9.99391C13.3008 9.99391 12.7441 10.5505 12.7441 11.2244C12.7441 11.8982 13.3008 12.4646 13.9746 12.4646ZM7.25586 7.31812C7.56836 7.31812 7.82227 7.05445 7.82227 6.73219C7.82227 6.42945 7.56836 6.17555 7.25586 6.17555C6.94336 6.17555 6.68945 6.42945 6.68945 6.73219C6.68945 7.05445 6.94336 7.31812 7.25586 7.31812ZM9.14062 7.865C9.46289 7.865 9.70703 7.60133 9.70703 7.28883C9.70703 6.96656 9.46289 6.71266 9.14062 6.71266C8.82812 6.71266 8.58398 6.96656 8.58398 7.28883C8.58398 7.60133 8.82812 7.865 9.14062 7.865ZM10.5566 9.24195C10.8594 9.24195 11.123 8.99781 11.123 8.68531C11.123 8.36305 10.8594 8.09937 10.5566 8.09937C10.2441 8.09937 10 8.36305 10 8.68531C10 8.99781 10.2441 9.24195 10.5566 9.24195ZM11.0352 11.0681C11.3477 11.0681 11.6016 10.8142 11.6016 10.5017C11.6016 10.1892 11.3477 9.93531 11.0352 9.93531C10.7324 9.93531 10.4785 10.1892 10.4785 10.5017C10.4785 10.8142 10.7324 11.0681 11.0352 11.0681ZM10.5566 12.9041C10.8594 12.9041 11.123 12.6404 11.123 12.3181C11.123 12.0056 10.8594 11.7615 10.5566 11.7615C10.2441 11.7615 10 12.0056 10 12.3181C10 12.6404 10.2441 12.9041 10.5566 12.9041ZM9.14062 14.3005C9.46289 14.3005 9.70703 14.0466 9.70703 13.7244C9.70703 13.4119 9.46289 13.1482 9.14062 13.1482C8.82812 13.1482 8.58398 13.4119 8.58398 13.7244C8.58398 14.0466 8.82812 14.3005 9.14062 14.3005ZM7.25586 14.8474C7.56836 14.8474 7.82227 14.5935 7.82227 14.2908C7.82227 13.9685 7.56836 13.7048 7.25586 13.7048C6.94336 13.7048 6.68945 13.9685 6.68945 14.2908C6.68945 14.5935 6.94336 14.8474 7.25586 14.8474ZM5.37109 14.3005C5.67383 14.3005 5.91797 14.0466 5.91797 13.7244C5.91797 13.4119 5.67383 13.1482 5.37109 13.1482C5.04883 13.1482 4.80469 13.4119 4.80469 13.7244C4.80469 14.0466 5.04883 14.3005 5.37109 14.3005ZM3.95508 12.9041C4.26758 12.9041 4.51172 12.6404 4.51172 12.3181C4.51172 12.0056 4.26758 11.7615 3.95508 11.7615C3.64258 11.7615 3.37891 12.0056 3.37891 12.3181C3.37891 12.6404 3.64258 12.9041 3.95508 12.9041ZM3.4668 11.0681C3.7793 11.0681 4.0332 10.8142 4.0332 10.5017C4.0332 10.1892 3.7793 9.93531 3.4668 9.93531C3.1543 9.93531 2.91016 10.1892 2.91016 10.5017C2.91016 10.8142 3.1543 11.0681 3.4668 11.0681ZM3.95508 9.24195C4.26758 9.24195 4.51172 8.99781 4.51172 8.68531C4.51172 8.36305 4.26758 8.09937 3.95508 8.09937C3.64258 8.09937 3.37891 8.36305 3.37891 8.68531C3.37891 8.99781 3.64258 9.24195 3.95508 9.24195ZM5.37109 7.865C5.67383 7.865 5.91797 7.60133 5.91797 7.28883C5.91797 6.96656 5.67383 6.71266 5.37109 6.71266C5.04883 6.71266 4.80469 6.96656 4.80469 7.28883C4.80469 7.60133 5.04883 7.865 5.37109 7.865ZM7.25586 9.26148C7.56836 9.26148 7.82227 9.00758 7.82227 8.69508C7.82227 8.37281 7.56836 8.10914 7.25586 8.10914C6.94336 8.10914 6.68945 8.37281 6.68945 8.69508C6.68945 9.00758 6.94336 9.26148 7.25586 9.26148ZM9.02344 10.0232C9.33594 10.0232 9.58008 9.75953 9.58008 9.4568C9.58008 9.1443 9.33594 8.88062 9.02344 8.88062C8.71094 8.88062 8.44727 9.1443 8.44727 9.4568C8.44727 9.75953 8.71094 10.0232 9.02344 10.0232ZM9.02344 12.1423C9.33594 12.1423 9.58008 11.8884 9.58008 11.5759C9.58008 11.2537 9.33594 10.9998 9.02344 10.9998C8.71094 10.9998 8.44727 11.2537 8.44727 11.5759C8.44727 11.8884 8.71094 12.1423 9.02344 12.1423ZM7.25586 12.9138C7.56836 12.9138 7.82227 12.6404 7.82227 12.3279C7.82227 12.0154 7.56836 11.7712 7.25586 11.7712C6.94336 11.7712 6.68945 12.0154 6.68945 12.3279C6.68945 12.6404 6.94336 12.9138 7.25586 12.9138ZM5.48828 12.1423C5.79102 12.1423 6.05469 11.8884 6.05469 11.5759C6.05469 11.2537 5.79102 10.9998 5.48828 10.9998C5.17578 10.9998 4.93164 11.2537 4.93164 11.5759C4.93164 11.8884 5.17578 12.1423 5.48828 12.1423ZM5.48828 10.0232C5.79102 10.0232 6.05469 9.75953 6.05469 9.4568C6.05469 9.1443 5.79102 8.88062 5.48828 8.88062C5.17578 8.88062 4.93164 9.1443 4.93164 9.4568C4.93164 9.75953 5.17578 10.0232 5.48828 10.0232ZM7.25586 11.0779C7.56836 11.0779 7.82227 10.824 7.82227 10.5115C7.82227 10.199 7.56836 9.94508 7.25586 9.94508C6.94336 9.94508 6.68945 10.199 6.68945 10.5115C6.68945 10.824 6.94336 11.0779 7.25586 11.0779ZM14.5996 4.81812L15.0391 3.47047L4.45312 0.0329676C4.0918-0.0842199 3.68164 0.120858 3.57422 0.491952C3.44727 0.85328 3.65234 1.25367 4.02344 1.38062ZM2.49023 17.6404L15.625 17.6404C17.2949 17.6404 18.1152 16.8201 18.1152 15.1795L18.1152 5.86305C18.1152 4.22242 17.2949 3.40211 15.625 3.40211L2.49023 3.40211C0.830078 3.40211 0 4.22242 0 5.86305L0 15.1795C0 16.8201 0.830078 17.6404 2.49023 17.6404ZM2.50977 16.2244C1.80664 16.2244 1.40625 15.8435 1.40625 15.1111L1.40625 5.93141C1.40625 5.18922 1.80664 4.81812 2.50977 4.81812L15.6055 4.81812C16.3086 4.81812 16.709 5.18922 16.709 5.93141L16.709 15.1111C16.709 15.8435 16.3086 16.2244 15.6055 16.2244Z" fill="currentColor"/>
 </g>
</svg>
