<svg version="1.1" xmlns="http://www.w3.org/2000/svg" xmlns:xlink="http://www.w3.org/1999/xlink" width="18.4766" height="14.248" viewBox="0 0 18.4766 14.248">
 <g>
  <rect height="14.248" opacity="0" width="18.4766" x="0" y="0"/>
  <path d="M4.46289 4.26758L7.53906 4.26758L7.53906 1.42578L4.46289 1.42578ZM10.5859 4.26758L13.6523 4.26758L13.6523 1.42578L10.5859 1.42578ZM1.40625 7.12891L4.46289 7.12891L4.46289 4.26758L1.40625 4.26758ZM7.53906 7.12891L10.5859 7.12891L10.5859 4.26758L7.53906 4.26758ZM13.6523 7.12891L16.7188 7.12891L16.7188 4.26758L13.6523 4.26758ZM4.46289 9.98047L7.53906 9.98047L7.53906 7.12891L4.46289 7.12891ZM10.5859 9.98047L13.6523 9.98047L13.6523 7.12891L10.5859 7.12891ZM1.40625 12.5391L1.72852 12.832L4.46289 12.832L4.46289 9.98047L1.40625 9.98047ZM7.53906 12.832L10.5859 12.832L10.5859 9.98047L7.53906 9.98047ZM13.6523 12.832L16.3672 12.832L16.7188 12.5391L16.7188 9.98047L13.6523 9.98047ZM2.49023 14.248L15.625 14.248C17.2949 14.248 18.1152 13.4277 18.1152 11.7871L18.1152 2.4707C18.1152 0.830078 17.2949 0.00976562 15.625 0.00976562L2.49023 0.00976562C0.830078 0.00976562 0 0.830078 0 2.4707L0 11.7871C0 13.4277 0.830078 14.248 2.49023 14.248ZM2.50977 12.832C1.80664 12.832 1.40625 12.4512 1.40625 11.7188L1.40625 2.53906C1.40625 1.79688 1.80664 1.42578 2.50977 1.42578L15.6055 1.42578C16.3086 1.42578 16.709 1.79688 16.709 2.53906L16.709 11.7188C16.709 12.4512 16.3086 12.832 15.6055 12.832Z" fill="currentColor"/>
 </g>
</svg>
