<svg version="1.1" xmlns="http://www.w3.org/2000/svg" xmlns:xlink="http://www.w3.org/1999/xlink" width="17.3828" height="17.1582" viewBox="0 0 17.3828 17.1582">
 <g>
  <rect height="17.1582" opacity="0" width="17.3828" x="0" y="0"/>
  <path d="M17.0215 4.70703L17.0215 10.3906C17.0215 12.7539 15.7617 14.043 13.3594 14.043L8.45703 14.043L5.69336 16.6016C5.2832 16.9824 5.04883 17.1582 4.70703 17.1582C4.21875 17.1582 3.93555 16.8066 3.93555 16.2793L3.93555 14.043L3.66211 14.043C1.25977 14.043 0 12.7539 0 10.3906L0 4.70703C0 2.34375 1.25977 1.04492 3.66211 1.04492L13.3594 1.04492C15.7617 1.04492 17.0215 2.34375 17.0215 4.70703ZM5.03906 8.18359C4.41406 8.18359 4.11133 8.49609 4.11133 9.10156L4.11133 10.0684C4.11133 10.6836 4.41406 10.9863 5.03906 10.9863L7.90039 10.9863C8.52539 10.9863 8.82812 10.6836 8.82812 10.0684L8.82812 9.10156C8.82812 8.49609 8.52539 8.18359 7.90039 8.18359ZM10.5469 4.61914C9.93164 4.61914 9.61914 4.93164 9.61914 5.53711L9.61914 9.60938C9.61914 10.2344 9.93164 10.5371 10.5469 10.5371L12.9102 10.5371C13.5352 10.5371 13.8379 10.2344 13.8379 9.60938L13.8379 5.53711C13.8379 4.93164 13.5352 4.61914 12.9102 4.61914ZM4.0918 4.0918C3.4668 4.0918 3.1543 4.39453 3.1543 5.00977L3.1543 6.47461C3.1543 7.08984 3.4668 7.39258 4.0918 7.39258L7.44141 7.39258C8.05664 7.39258 8.37891 7.08984 8.37891 6.47461L8.37891 5.00977C8.37891 4.39453 8.05664 4.0918 7.44141 4.0918Z" fill="var(--color-primary)"/>
 </g>
</svg>
