<?xml version="1.0" encoding="UTF-8"?>
<!--Generator: Apple Native CoreSVG 232.5-->
<!DOCTYPE svg
PUBLIC "-//W3C//DTD SVG 1.1//EN"
       "http://www.w3.org/Graphics/SVG/1.1/DTD/svg11.dtd">
<svg version="1.1" xmlns="http://www.w3.org/2000/svg" xmlns:xlink="http://www.w3.org/1999/xlink" width="18.9844" height="18.711">
 <g>
  <rect height="18.711" opacity="0" width="18.9844" x="0" y="0"/>
  <path d="M1.80282 4.13111C1.70874 4.29851 1.66016 4.51201 1.66016 4.77054L1.66016 13.9502C1.66016 14.6826 2.06055 15.0635 2.76367 15.0635L8.61328 15.0635L8.61328 10.9373L10.0195 12.3426L10.0195 15.0635L12.7421 15.0635L14.159 16.4795L2.74414 16.4795C1.08398 16.4795 0.253906 15.6592 0.253906 14.0186L0.253906 4.70218C0.253906 3.99755 0.407022 3.44424 0.714339 3.04331ZM18.3691 4.70218L18.3691 14.0186C18.3691 14.7047 18.2257 15.2474 17.9345 15.6445L16.8396 14.5496C16.9209 14.3877 16.9629 14.1874 16.9629 13.9502L16.9629 4.77054C16.9629 4.02835 16.5625 3.65725 15.8594 3.65725L10.0195 3.65725L10.0195 7.72952L8.61328 6.32327L8.61328 3.65725L5.94727 3.65725L4.53125 2.24124L15.8789 2.24124C17.5488 2.24124 18.3691 3.06155 18.3691 4.70218Z" fill="#ffffff" fill-opacity="0.55"/>
  <path d="M16.6016 17.5537C16.8652 17.8174 17.2949 17.8174 17.5488 17.5537C17.8027 17.2901 17.8125 16.8701 17.5488 16.6065L2.09961 1.17679C1.8457 0.913114 1.40625 0.913114 1.14258 1.17679C0.888672 1.43069 0.888672 1.87014 1.14258 2.12405Z" fill="#ffffff" fill-opacity="0.85"/>
 </g>
</svg>
