<svg version="1.1" xmlns="http://www.w3.org/2000/svg" xmlns:xlink="http://www.w3.org/1999/xlink" width="17.2949" height="18.1299" viewBox="0 0 17.2949 18.1299">
 <g>
  <rect height="18.1299" opacity="0" width="17.2949" x="0" y="0"/>
  <path d="M4.53125 14.9976C4.53125 15.5444 4.88281 15.9058 5.49805 15.9058L11.4551 15.9058C12.0703 15.9058 12.4219 15.5444 12.4219 14.9976L12.4219 14.7424L13.6024 15.9237C13.3271 16.6765 12.6114 17.1753 11.6406 17.1753L5.3125 17.1753C4.05273 17.1753 3.22266 16.3354 3.22266 15.1929L3.22266 14.4116L4.53125 14.4116ZM3.54492 9.52881L3.54492 10.7983L3.48633 11.5308L4.23828 10.7202L5.36133 9.5874C5.48828 9.45068 5.63477 9.40186 5.77148 9.40186C6.12305 9.40186 6.44531 9.71436 6.44531 10.0659C6.44531 10.2026 6.38672 10.3589 6.25 10.4858L5.11719 11.6089L4.30664 12.3608L5.03906 12.3022L6.30859 12.3022C6.68945 12.3022 6.875 12.5757 6.875 12.8589C6.875 13.1323 6.68945 13.4155 6.32812 13.4155L3.14453 13.4155C2.69531 13.4155 2.43164 13.1616 2.43164 12.6929L2.43164 9.49951C2.43164 9.13818 2.70508 8.9624 2.97852 8.9624C3.26172 8.9624 3.54492 9.14795 3.54492 9.52881ZM13.7305 11.4233L12.4219 10.1147L12.4219 9.68506L13.7305 9.68506ZM14.5117 5.03662L14.5117 8.22021C14.5117 8.58154 14.2383 8.76709 13.9648 8.76709C13.6816 8.76709 13.3984 8.57178 13.3984 8.20068L13.3984 6.92139L13.4473 6.18896L12.7051 7.00928L11.582 8.14209C11.4453 8.26904 11.3086 8.31787 11.1719 8.31787C10.8203 8.31787 10.498 8.00537 10.498 7.66357C10.498 7.51709 10.5566 7.37061 10.6836 7.23389L11.8262 6.11084L12.6367 5.36865L11.9043 5.41748L10.6348 5.41748C10.2637 5.41748 10.0684 5.13428 10.0684 4.86084C10.0684 4.57764 10.2637 4.3042 10.6055 4.3042L13.7891 4.3042C14.248 4.3042 14.5117 4.56787 14.5117 5.03662ZM4.53125 6.84616L4.53125 8.04443L3.22266 8.04443L3.21821 5.53218ZM13.7207 2.52686L13.7207 3.30811L12.4121 3.30811L12.4121 2.72217C12.4121 2.18506 12.0605 1.81396 11.4453 1.81396L5.48828 1.81396C5.04907 1.81396 4.74921 2.00309 4.6145 2.30737L3.61361 1.30648C3.97438 0.835922 4.56485 0.544434 5.30273 0.544434L11.6309 0.544434C12.8906 0.544434 13.7207 1.39404 13.7207 2.52686Z" fill="var(--color-primary)"/>
  <path d="M14.834 15.7886C15.0879 16.0425 15.5273 16.0522 15.7812 15.7886C16.0352 15.5249 16.0449 15.105 15.7812 14.8413L2.10938 1.1499C1.8457 0.895996 1.41602 0.88623 1.15234 1.1499C0.898438 1.40381 0.898438 1.85303 1.15234 2.10693Z" fill="var(--color-primary)"/>
 </g>
</svg>
