<svg version="1.1" xmlns="http://www.w3.org/2000/svg" xmlns:xlink="http://www.w3.org/1999/xlink" width="14.5898" height="14.4238" viewBox="0 0 14.5898 14.4238">
 <g>
  <rect height="14.4238" opacity="0" width="14.5898" x="0" y="0"/>
  <path d="M14.2285 2.64648L14.2285 11.9629C14.2285 13.6035 13.4082 14.4238 11.7383 14.4238L2.49023 14.4238C0.830078 14.4238 0 13.6035 0 11.9629L0 2.64648C0 1.00586 0.830078 0.185547 2.49023 0.185547L11.7383 0.185547C13.4082 0.185547 14.2285 1.00586 14.2285 2.64648ZM2.50977 1.60156C1.80664 1.60156 1.40625 1.98242 1.40625 2.71484L1.40625 11.8945C1.40625 12.6367 1.80664 13.0078 2.50977 13.0078L11.7188 13.0078C12.4219 13.0078 12.8223 12.6367 12.8223 11.8945L12.8223 2.71484C12.8223 1.98242 12.4219 1.60156 11.7188 1.60156Z" fill="var(--color-primary)"/>
  <path d="M9.85352 4.6582L9.85352 4.67773L5.43945 4.67773C4.41406 4.67773 3.82812 5.27344 3.82812 6.26953L3.82813 9.26758L3.75 9.26758C3.01758 9.26758 2.66602 8.91602 2.66602 8.19336L2.66602 4.6582C2.66602 3.95508 3.01758 3.59375 3.75 3.59375L8.76953 3.59375C9.50195 3.59375 9.85352 3.95508 9.85352 4.6582Z" fill="var(--color-primary)"/>
  <path d="M5.43945 10.8789L10.4688 10.8789C11.1914 10.8789 11.5527 10.5371 11.5527 9.80469L11.5527 6.26953C11.5527 5.56641 11.1914 5.20508 10.4688 5.20508L5.43945 5.20508C4.7168 5.20508 4.35547 5.56641 4.35547 6.26953L4.35547 9.80469C4.35547 10.5371 4.7168 10.8789 5.43945 10.8789Z" fill="var(--color-primary)"/>
 </g>
</svg>
