<svg version="1.1" xmlns="http://www.w3.org/2000/svg" xmlns:xlink="http://www.w3.org/1999/xlink" width="16.123" height="19.209" viewBox="0 0 16.123 19.209">
 <g>
  <rect height="19.209" opacity="0" width="16.123" x="0" y="0"/>
  <path d="M12.0898 2.49023L12.0898 3.87695L10.6836 3.87695L10.6836 2.50977C10.6836 1.80664 10.3027 1.40625 9.56055 1.40625L2.5293 1.40625C1.78711 1.40625 1.40625 1.80664 1.40625 2.50977L1.40625 12.8125C1.40625 13.5156 1.78711 13.916 2.5293 13.916L3.67188 13.916L3.67188 15.3223L2.45117 15.3223C0.810547 15.3223 0 14.4922 0 12.832L0 2.49023C0 0.820312 0.810547 0 2.45117 0L9.63867 0C11.2793 0 12.0898 0.820312 12.0898 2.49023Z" fill="var(--color-secondary)"/>
  <path d="M15.7617 6.36719C15.7617 4.69727 14.9414 3.87695 13.3008 3.87695L6.12305 3.87695C4.48242 3.87695 3.67188 4.69727 3.67188 6.36719L3.67188 16.709C3.67188 18.3691 4.48242 19.1992 6.12305 19.1992L13.3008 19.1992C14.9414 19.1992 15.7617 18.3691 15.7617 16.709ZM14.3457 6.38672L14.3457 16.6895C14.3457 17.3926 13.9648 17.793 13.2324 17.793L6.20117 17.793C5.45898 17.793 5.07812 17.3926 5.07812 16.6895L5.07812 6.38672C5.07812 5.68359 5.45898 5.2832 6.20117 5.2832L13.2324 5.2832C13.9648 5.2832 14.3457 5.68359 14.3457 6.38672Z" fill="var(--color-primary)"/>
 </g>
</svg>
