<svg version="1.1" xmlns="http://www.w3.org/2000/svg" xmlns:xlink="http://www.w3.org/1999/xlink" width="20.2966" height="18.9466" viewBox="0 0 20.2966 18.9466">
 <g>
  <rect height="18.9466" opacity="0" width="20.2966" x="0" y="0"/>
  <path d="M2.2186 14.068C2.2186 14.8102 2.61899 15.1813 3.32211 15.1813L4.82602 15.1813L4.82602 16.5973L3.30258 16.5973C1.64243 16.5973 0.812347 15.777 0.812347 14.1364L0.812347 12.5446L2.2186 12.5446ZM9.29868 16.5973L5.9686 16.5973L5.9686 15.1813L9.29868 15.1813ZM13.7811 16.5973L10.4413 16.5973L10.4413 15.1813L13.7811 15.1813ZM18.9276 14.1364C18.9276 15.777 18.0975 16.5973 16.4373 16.5973L14.9237 16.5973L14.9237 15.1813L16.4178 15.1813C17.1209 15.1813 17.5213 14.8102 17.5213 14.068L17.5213 12.5446L18.9276 12.5446ZM2.2186 11.402L0.812347 11.402L0.812347 7.55433L2.2186 7.55433ZM18.9276 11.402L17.5213 11.402L17.5213 10.1179L18.9276 8.71515ZM4.82602 3.77504L3.32211 3.77504C2.61899 3.77504 2.2186 4.1559 2.2186 4.88832L2.2186 6.41176L0.812347 6.41176L0.812347 4.81996C0.812347 3.17933 1.64243 2.35902 3.30258 2.35902L4.82602 2.35902ZM9.29868 3.77504L5.9686 3.77504L5.9686 2.35902L9.29868 2.35902ZM11.6424 3.77504L10.4413 3.77504L10.4413 2.35902L13.0584 2.35902Z" fill="var(--color-primary)"/>
  <path d="M10.2362 11.2848C11.5155 12.5641 13.4295 12.5543 14.7186 11.2653L18.6151 7.36879C18.8202 7.16371 18.8104 6.82191 18.6053 6.6266C18.3905 6.43129 18.0975 6.44105 17.8827 6.64613L14.035 10.4938C13.1268 11.4118 11.8377 11.4313 10.9979 10.5524C10.119 9.64418 10.119 8.39418 11.0272 7.49574L15.8709 2.66176C16.4569 2.06605 17.2772 2.03676 17.785 2.5348C18.2928 3.03285 18.244 3.83363 17.6483 4.4391L12.951 9.16566C12.7752 9.36097 12.5311 9.35121 12.3651 9.17543C12.1795 8.98988 12.1893 8.76527 12.3748 8.57972L15.6756 5.27894C15.8807 5.07387 15.8807 4.7809 15.6952 4.57582C15.4998 4.39027 15.2166 4.39027 15.0018 4.59535L11.6717 7.92543C11.1151 8.48207 11.1053 9.37074 11.6327 9.89808C12.1893 10.4645 13.0291 10.445 13.6053 9.86879L18.3416 5.13246C19.3573 4.11683 19.3768 2.78871 18.4393 1.84144C17.5116 0.913709 16.1346 0.943006 15.1483 1.92933L10.2752 6.80238C8.98618 8.09144 8.98618 10.0348 10.2362 11.2848Z" fill="var(--color-primary)"/>
 </g>
</svg>
