<svg version="1.1" xmlns="http://www.w3.org/2000/svg" xmlns:xlink="http://www.w3.org/1999/xlink" width="21.123" height="20.293" viewBox="0 0 21.123 20.293">
 <g>
  <rect height="20.293" opacity="0" width="21.123" x="0" y="0"/>
  <path d="M4.27585 5.95068C3.77973 6.55083 3.51562 7.37286 3.51562 8.38382L3.51563 14.3506L3.27148 14.3506C1.60156 14.3506 0.78125 13.5401 0.78125 11.8994L0.78125 4.72171C0.78125 3.96746 0.954626 3.38659 1.30646 2.9813ZM16.1133 4.72171L16.1133 4.79007L7.73438 4.79007L5.20508 2.26077L13.623 2.26077C15.2734 2.26077 16.1133 3.08108 16.1133 4.72171Z" fill="currentColor"/>
  <path d="M16.3477 18.0225L7.14844 18.0225C5.47852 18.0225 4.6582 17.2119 4.6582 15.5713L4.6582 8.38382C4.6582 7.69971 4.80083 7.15994 5.09036 6.76519ZM19.9805 8.38382L19.9805 15.5713C19.9805 16.0579 19.9066 16.4724 19.7571 16.8128L8.87695 5.93264L17.4902 5.93264C19.1504 5.93264 19.9805 6.74319 19.9805 8.38382Z" fill="currentColor"/>
  <path d="M18.8281 19.1455C19.0918 19.4092 19.5215 19.4092 19.7754 19.1455C20.0293 18.8819 20.0391 18.4619 19.7754 18.1983L2.75391 1.15725C2.49023 0.893582 2.06055 0.893582 1.79688 1.15725C1.54297 1.41116 1.54297 1.86038 1.79688 2.11429Z" fill="currentColor"/>
 </g>
</svg>
