<svg version="1.1" xmlns="http://www.w3.org/2000/svg" xmlns:xlink="http://www.w3.org/1999/xlink" width="19.4629" height="19.1574" viewBox="0 0 19.4629 19.1574">
 <g>
  <rect height="19.1574" opacity="0" width="19.4629" x="0" y="0"/>
  <path d="M18.623 6.13632C18.877 6.13632 19.1016 5.91171 19.1016 5.64804L19.1016 4.69101C19.1016 2.72812 17.8223 1.41953 15.8887 1.41953L15.752 1.41953L15.752 0.540621C15.752-0.0257856 15.332-0.142973 14.9219 0.169527L13.1738 1.46835C12.8711 1.69296 12.8613 1.94687 13.1738 2.17148L14.9219 3.46054C15.332 3.77304 15.752 3.65585 15.752 3.10898L15.752 2.3082L15.8789 2.3082C17.2363 2.3082 18.1348 3.26523 18.1348 4.69101L18.1348 5.64804C18.1348 5.91171 18.3594 6.13632 18.623 6.13632ZM0.478516 12.9723C0.224609 12.9723 0 13.2066 0 13.4703L0 14.4273C0 16.4 1.29883 17.7184 3.23242 17.7184L3.37891 17.7184L3.37891 18.5973C3.37891 19.1637 3.78906 19.2809 4.20898 18.9684L5.95703 17.6695C6.25 17.4449 6.25977 17.191 5.95703 16.9664L4.20898 15.6773C3.78906 15.3648 3.37891 15.482 3.37891 16.0289L3.37891 16.8297L3.24219 16.8297C1.875 16.8297 0.976562 15.8531 0.976562 14.4273L0.976562 13.4703C0.976562 13.2066 0.742188 12.9723 0.478516 12.9723Z" fill="currentColor"/>
  <path d="M4.90234 14.3883L14.2188 14.3883C15.1465 14.3883 15.8008 13.6852 15.8008 12.7281L15.8008 6.40976C15.8008 5.45273 15.1465 4.75937 14.2188 4.75937L4.90234 4.75937C3.98438 4.75937 3.33008 5.45273 3.33008 6.40976L3.33008 12.7281C3.33008 13.6852 3.98438 14.3883 4.90234 14.3883ZM5.06836 13.0797C4.82422 13.0797 4.63867 12.8844 4.63867 12.6012L4.63867 6.54648C4.63867 6.27304 4.82422 6.07773 5.06836 6.07773L14.0527 6.07773C14.3164 6.07773 14.4922 6.27304 14.4922 6.54648L14.4922 12.6012C14.4922 12.8844 14.3164 13.0797 14.0527 13.0797Z" fill="currentColor"/>
 </g>
</svg>
