<?xml version="1.0" encoding="UTF-8"?>
<!--Generator: Apple Native CoreSVG 232.5-->
<!DOCTYPE svg
PUBLIC "-//W3C//DTD SVG 1.1//EN"
       "http://www.w3.org/Graphics/SVG/1.1/DTD/svg11.dtd">
<svg version="1.1" xmlns="http://www.w3.org/2000/svg" xmlns:xlink="http://www.w3.org/1999/xlink" width="13.3691" height="16.4746">
 <g>
  <rect height="16.4746" opacity="0" width="13.3691" x="0" y="0"/>
  <path d="M0 13.9746C0 15.6445 0.810547 16.4648 2.45117 16.4648L10.5469 16.4648C12.1875 16.4648 13.0078 15.6445 13.0078 13.9746L13.0078 2.49023C13.0078 0.830078 12.1875 0 10.5469 0L2.45117 0C0.810547 0 0 0.830078 0 2.49023ZM1.40625 13.9551L1.40625 2.50977C1.40625 1.80664 1.78711 1.40625 2.5293 1.40625L10.4785 1.40625C11.2109 1.40625 11.5918 1.80664 11.5918 2.50977L11.5918 13.9551C11.5918 14.6582 11.2109 15.0586 10.4785 15.0586L2.5293 15.0586C1.78711 15.0586 1.40625 14.6582 1.40625 13.9551Z" fill="#ffffff" fill-opacity="0.85"/>
  <path d="M3.57422 4.48242L3.57422 11.9922C3.57422 12.5 3.78906 12.7051 4.30664 12.7051L8.69141 12.7051C9.21875 12.7051 9.42383 12.5 9.42383 11.9922L9.42383 4.48242C9.42383 3.97461 9.21875 3.75977 8.69141 3.75977L4.30664 3.75977C3.78906 3.75977 3.57422 3.97461 3.57422 4.48242Z" fill="#ffffff" fill-opacity="0.85"/>
 </g>
</svg>
