<svg version="1.1" xmlns="http://www.w3.org/2000/svg" xmlns:xlink="http://www.w3.org/1999/xlink" width="16.9727" height="14.248" viewBox="0 0 16.9727 14.248">
 <g>
  <rect height="14.248" opacity="0" width="16.9727" x="0" y="0"/>
  <path d="M1.92383 14.248L14.6973 14.248C15.9766 14.248 16.6113 13.623 16.6113 12.3438L16.6113 9.63867C16.6113 8.37891 15.9766 7.75391 14.6973 7.75391L1.92383 7.75391C0.634766 7.75391 0 8.37891 0 9.63867L0 12.3438C0 13.623 0.634766 14.248 1.92383 14.248Z" fill="currentColor"/>
  <path d="M1.92383 6.51367L14.6973 6.51367C15.9766 6.51367 16.6113 5.87891 16.6113 4.60938L16.6113 1.9043C16.6113 0.644531 15.9766 0.00976562 14.6973 0.00976562L1.92383 0.00976562C0.634766 0.00976562 0 0.644531 0 1.9043L0 4.60938C0 5.87891 0.634766 6.51367 1.92383 6.51367Z" fill="currentColor"/>
 </g>
</svg>
