<svg version="1.1" xmlns="http://www.w3.org/2000/svg" xmlns:xlink="http://www.w3.org/1999/xlink" width="16.1328" height="15.7715" viewBox="0 0 16.1328 15.7715">
 <g>
  <rect height="15.7715" opacity="0" width="16.1328" x="0" y="0"/>
  <path d="M7.88086 15.7617C12.1875 15.7617 15.7715 12.1875 15.7715 7.88086C15.7715 3.57422 12.1777 0 7.87109 0C3.57422 0 0 3.57422 0 7.88086C0 12.1875 3.58398 15.7617 7.88086 15.7617Z" fill="var(--color-tertiary)"/>
  <path d="M2.80273 7.11914C2.80273 5.73242 3.79883 4.84375 5.32227 4.84375L8.33008 4.84375L8.33008 3.90625C8.33008 3.61328 8.51562 3.42773 8.80859 3.42773C8.92578 3.42773 9.07227 3.47656 9.16016 3.56445L10.9766 5.09766C11.2207 5.30273 11.2207 5.60547 10.9766 5.80078L9.16016 7.33398C9.07227 7.41211 8.92578 7.45117 8.80859 7.45117C8.51562 7.45117 8.33008 7.27539 8.33008 6.97266L8.33008 6.01562L5.21484 6.01562C4.48242 6.01562 3.99414 6.47461 3.99414 7.17773L3.99414 7.63672C3.99414 7.95898 3.73047 8.22266 3.38867 8.22266C3.06641 8.22266 2.80273 7.95898 2.80273 7.63672ZM12.959 8.67188C12.959 10.0586 11.9629 10.9473 10.4395 10.9473L7.43164 10.9473L7.43164 11.8945C7.43164 12.1875 7.25586 12.373 6.95312 12.373C6.83594 12.373 6.70898 12.3242 6.60156 12.2363L4.78516 10.7031C4.54102 10.498 4.54102 10.1953 4.78516 10L6.60156 8.4668C6.69922 8.38867 6.83594 8.34961 6.95312 8.34961C7.25586 8.34961 7.43164 8.52539 7.43164 8.82812L7.43164 9.77539L10.5469 9.77539C11.2793 9.77539 11.7676 9.31641 11.7676 8.61328L11.7676 8.1543C11.7676 7.82227 12.0312 7.56836 12.373 7.56836C12.7051 7.56836 12.959 7.82227 12.959 8.1543Z" fill="var(--color-primary)"/>
 </g>
</svg>
