<svg version="1.1" xmlns="http://www.w3.org/2000/svg" xmlns:xlink="http://www.w3.org/1999/xlink" width="16.1328" height="15.7715" viewBox="0 0 16.1328 15.7715">
 <g>
  <rect height="15.7715" opacity="0" width="16.1328" x="0" y="0"/>
  <path d="M15.7715 7.88086C15.7715 12.1875 12.1875 15.7617 7.88086 15.7617C3.58398 15.7617 0 12.1875 0 7.88086C0 3.57422 3.57422 0 7.87109 0C12.1777 0 15.7715 3.57422 15.7715 7.88086ZM11.3086 8.37891L11.3086 8.81836C11.3086 9.51172 10.8105 9.98047 10.0684 9.98047L7.07031 9.98047L7.07031 9.02344C7.07031 8.76953 6.9043 8.61328 6.64062 8.61328C6.52344 8.61328 6.41602 8.65234 6.32812 8.7207L4.57031 10.1953C4.35547 10.3711 4.36523 10.6348 4.58008 10.8105L6.32812 12.2754C6.41602 12.3535 6.52344 12.3926 6.64062 12.3926C6.91406 12.3926 7.07031 12.2363 7.07031 11.9824L7.07031 11.0352L9.98047 11.0352C11.4258 11.0352 12.3633 10.1855 12.3633 8.88672L12.3633 8.37891C12.3633 8.08594 12.1289 7.86133 11.8359 7.86133C11.543 7.86133 11.3086 8.08594 11.3086 8.37891ZM7.00195 4.30664L7.00195 5.23438L5.07812 5.23438C3.64258 5.23438 2.70508 6.07422 2.70508 7.38281L2.70508 7.89062C2.70508 8.18359 2.92969 8.41797 3.22266 8.41797C3.51562 8.41797 3.75 8.18359 3.75 7.89062L3.75 7.45117C3.75 6.76758 4.24805 6.28906 4.99023 6.28906L7.00195 6.28906L7.00195 7.26562C7.00195 7.51953 7.14844 7.66602 7.42188 7.66602C7.53906 7.66602 7.65625 7.63672 7.73438 7.56836L9.49219 6.08398C9.70703 5.9082 9.70703 5.6543 9.49219 5.46875L7.73438 4.00391C7.65625 3.92578 7.53906 3.88672 7.42188 3.88672C7.14844 3.88672 7.00195 4.05273 7.00195 4.30664ZM11.0352 4.23828L10.4297 4.6875C10.3125 4.79492 10.2637 4.90234 10.2637 5.03906C10.2637 5.25391 10.4199 5.41016 10.6445 5.41016C10.7422 5.41016 10.8301 5.38086 10.918 5.3125L11.2891 5.01247L11.2891 6.54297C11.2891 6.875 11.5039 7.09961 11.8457 7.09961C12.1777 7.09961 12.3828 6.88477 12.3828 6.54297L12.3828 4.60938C12.3828 4.21875 12.1289 3.95508 11.748 3.95508C11.4844 3.95508 11.2988 4.02344 11.0352 4.23828Z" fill="var(--color-primary)"/>
 </g>
</svg>
