<?xml version="1.0" encoding="UTF-8"?>
<!--Generator: Apple Native CoreSVG 232.5-->
<!DOCTYPE svg
PUBLIC "-//W3C//DTD SVG 1.1//EN"
       "http://www.w3.org/Graphics/SVG/1.1/DTD/svg11.dtd">
<svg version="1.1" xmlns="http://www.w3.org/2000/svg" xmlns:xlink="http://www.w3.org/1999/xlink" width="13.75" height="13.0176">
 <g>
  <rect height="13.0176" opacity="0" width="13.75" x="0" y="0"/>
  <path d="M10.6836 13.0176C11.3086 13.0176 11.6895 12.5391 11.6895 11.8164L11.6895 1.21094C11.6895 0.488281 11.3086 0.00976562 10.6836 0.00976562C10.3418 0.00976562 10.0586 0.136719 9.72656 0.332031L0.947266 5.39062C0.224609 5.81055 0 6.07422 0 6.51367C0 6.95312 0.224609 7.2168 0.947266 7.63672L9.72656 12.6953C10.0586 12.8906 10.3418 13.0176 10.6836 13.0176ZM10.2246 11.3379C10.1953 11.3379 10.1758 11.3281 10.1562 11.3184L1.92383 6.5625C1.9043 6.55273 1.88477 6.54297 1.88477 6.51367C1.88477 6.48438 1.9043 6.47461 1.92383 6.46484L10.1562 1.70898C10.1758 1.69922 10.1953 1.68945 10.2246 1.68945C10.2539 1.68945 10.2734 1.70898 10.2734 1.74805L10.2734 11.2793C10.2734 11.3184 10.2539 11.3379 10.2246 11.3379Z" fill="#ffffff" fill-opacity="0.85"/>
 </g>
</svg>
