<svg version="1.1" xmlns="http://www.w3.org/2000/svg" xmlns:xlink="http://www.w3.org/1999/xlink" width="16.1328" height="15.7715" viewBox="0 0 16.1328 15.7715">
 <g>
  <rect height="15.7715" opacity="0" width="16.1328" x="0" y="0"/>
  <path d="M7.88086 15.7715C12.1875 15.7715 15.7715 12.1973 15.7715 7.89062C15.7715 3.58398 12.1777 0.00976562 7.87109 0.00976562C3.57422 0.00976562 0 3.58398 0 7.89062C0 12.1973 3.58398 15.7715 7.88086 15.7715Z" fill="var(--color-tertiary)"/>
  <path d="M6.17188 8.73047C4.4043 8.61328 3.28125 8.30078 3.28125 7.89062C3.28125 5.72266 4.83398 3.86719 6.86523 3.39844C6.42578 4.3457 6.15234 5.9375 6.15234 7.89062C6.15234 8.17383 6.16211 8.45703 6.17188 8.73047ZM7.00195 8.76953C6.99219 8.48633 6.99219 8.19336 6.99219 7.89062C6.99219 5.17578 7.35352 3.29102 7.87109 3.29102C10.3906 3.29102 12.4805 5.37109 12.4805 7.89062C12.4805 8.4082 10.5957 8.7793 7.88086 8.7793C7.58789 8.7793 7.28516 8.76953 7.00195 8.76953ZM6.2207 9.54102C6.32812 10.7324 6.5625 11.7188 6.86523 12.3828C5.15625 11.9824 3.78906 10.6152 3.38867 8.90625C4.05273 9.19922 5.0293 9.43359 6.2207 9.54102ZM7.04102 9.58984C7.31445 9.59961 7.59766 9.60938 7.88086 9.60938C9.83398 9.60938 11.4258 9.3457 12.3828 8.90625C11.9043 10.9375 10.0586 12.4902 7.88086 12.4902C7.4707 12.4902 7.1582 11.3574 7.04102 9.58984Z" fill="var(--color-primary)"/>
 </g>
</svg>
