<?xml version="1.0" encoding="UTF-8"?>
<!--Generator: Apple Native CoreSVG 232.5-->
<!DOCTYPE svg
PUBLIC "-//W3C//DTD SVG 1.1//EN"
       "http://www.w3.org/Graphics/SVG/1.1/DTD/svg11.dtd">
<svg version="1.1" xmlns="http://www.w3.org/2000/svg" xmlns:xlink="http://www.w3.org/1999/xlink" width="20.4199" height="13.9822">
 <g>
  <rect height="13.9822" opacity="0" width="20.4199" x="0" y="0"/>
  <path d="M0 7.85535C0 9.52527 0.292969 10.3261 1.5332 10.9608L5.83008 13.1776C7.45117 14.0077 8.63281 14.2225 10.4395 13.6952L17.0801 11.7616C19.1699 11.1561 20.0586 9.8866 20.0586 7.85535L20.0586 3.06043C20.0586 1.63464 19.082 0.648316 17.6758 0.648316L2.40234 0.63855C0.986328 0.63855 0 1.61511 0 3.03113ZM1.40625 7.85535L1.40625 3.06043C1.40625 2.46472 1.82617 2.0448 2.42188 2.0448L17.6562 2.05457C18.2422 2.05457 18.6523 2.48425 18.6523 3.08972L18.6523 7.85535C18.6523 9.203 18.0566 10.0428 16.6797 10.453L10.4688 12.2889C8.85742 12.7675 7.89062 12.6405 6.58203 11.9764L2.43164 9.8573C1.65039 9.46668 1.40625 8.93933 1.40625 7.85535Z" fill="#ffffff" fill-opacity="0.85"/>
  <path d="M4.47266 9.58386C4.84375 9.58386 5.06836 9.33972 5.06836 8.9491L5.06836 7.28894L5.66406 7.28894L6.35742 9.07605C6.47461 9.39832 6.66016 9.58386 6.99219 9.58386C7.25586 9.58386 7.54883 9.42761 7.54883 8.99793C7.54883 8.91003 7.49023 8.73425 7.41211 8.53894L6.79688 7.0448C7.38281 6.71277 7.59766 6.05847 7.59766 5.44324C7.59766 4.21277 6.86523 3.58777 5.70312 3.58777L4.46289 3.58777C4.07227 3.58777 3.85742 3.82214 3.85742 4.21277L3.85742 8.9491C3.85742 9.32996 4.08203 9.58386 4.47266 9.58386ZM5.06836 6.4198L5.06836 4.52527L5.5957 4.52527C6.12305 4.52527 6.38672 4.93543 6.38672 5.47253C6.38672 6.00964 6.14258 6.4198 5.5957 6.4198ZM10.2148 9.61316C11.377 9.61316 12.1094 8.97839 12.1094 7.82605C12.1094 6.88855 11.6406 6.42957 10.7715 6.1073L10.3516 5.95105C9.90234 5.78503 9.57031 5.55066 9.57031 5.07214C9.57031 4.66199 9.82422 4.38855 10.1953 4.38855C10.6152 4.38855 10.8203 4.68152 10.918 5.02332C10.9961 5.29675 11.1914 5.40418 11.4551 5.40418C11.7676 5.40418 11.9727 5.1991 11.9727 4.90613C11.9727 4.84753 11.9727 4.79871 11.9336 4.63269C11.709 3.85144 11.0254 3.42175 10.1953 3.42175C9.16016 3.42175 8.39844 4.07605 8.39844 5.1698C8.39844 6.09753 8.98438 6.59558 9.70703 6.87878L10.1172 7.03503C10.5664 7.21082 10.9375 7.42566 10.9375 7.93347C10.9375 8.35339 10.6738 8.64636 10.2246 8.64636C9.80469 8.64636 9.54102 8.36316 9.46289 8.02136C9.38477 7.73816 9.17969 7.61121 8.90625 7.61121C8.59375 7.61121 8.38867 7.84558 8.38867 8.14832C8.38867 8.2948 8.39844 8.34363 8.44727 8.48035C8.67188 9.24207 9.39453 9.61316 10.2148 9.61316ZM13.584 9.47644L15.166 9.47644C16.2012 9.47644 16.8066 8.78308 16.8066 7.79675C16.8066 7.08386 16.3672 6.43933 15.6738 6.37097L15.6738 6.33191C16.2402 6.23425 16.6309 5.62878 16.6309 5.05261C16.6309 4.09558 15.9766 3.578 15.1172 3.578L13.584 3.578C13.1934 3.578 12.9883 3.84168 12.9883 4.203L12.9883 8.85144C12.9883 9.2323 13.2031 9.47644 13.584 9.47644ZM14.1699 6.04871L14.1699 4.47644L14.7656 4.47644C15.3027 4.47644 15.4883 4.80847 15.4883 5.23816C15.4883 5.74597 15.1953 6.04871 14.6875 6.04871ZM14.1699 8.578L14.1699 6.82996L14.7656 6.82996C15.2539 6.82996 15.6055 7.08386 15.6055 7.6991C15.6055 8.24597 15.3418 8.578 14.7949 8.578Z" fill="#ffffff" fill-opacity="0.85"/>
 </g>
</svg>
