<?xml version="1.0" encoding="UTF-8"?>
<!--Generator: Apple Native CoreSVG 232.5-->
<!DOCTYPE svg
PUBLIC "-//W3C//DTD SVG 1.1//EN"
       "http://www.w3.org/Graphics/SVG/1.1/DTD/svg11.dtd">
<svg version="1.1" xmlns="http://www.w3.org/2000/svg" xmlns:xlink="http://www.w3.org/1999/xlink" width="16.1328" height="15.7715">
 <g>
  <rect height="15.7715" opacity="0" width="16.1328" x="0" y="0"/>
  <path d="M7.88086 15.7617C12.1875 15.7617 15.7715 12.1875 15.7715 7.88086C15.7715 3.57422 12.1777 0 7.87109 0C3.57422 0 0 3.57422 0 7.88086C0 12.1875 3.58398 15.7617 7.88086 15.7617Z" fill="#ffffff" fill-opacity="0.25"/>
  <path d="M6.55273 11.9434C6.20117 11.9434 5.95703 11.6992 5.95703 11.3574L5.95703 10.6641L5.27344 10.6641C5.00977 10.6641 4.84375 10.4883 4.84375 10.2344C4.84375 9.99023 5.00977 9.80469 5.27344 9.80469L5.95703 9.80469L5.95703 9.05273L5.26367 9.05273C5 9.05273 4.83398 8.86719 4.83398 8.61328C4.83398 8.36914 5 8.18359 5.26367 8.18359L5.95703 8.18359L5.95703 4.77539C5.95703 4.42383 6.18164 4.18945 6.54297 4.18945L8.45703 4.18945C9.96094 4.18945 10.918 5.22461 10.918 6.62109C10.918 8.02734 9.95117 9.05273 8.44727 9.05273L7.11914 9.05273L7.11914 9.80469L8.96484 9.80469C9.21875 9.80469 9.39453 9.99023 9.39453 10.2344C9.39453 10.4883 9.21875 10.6641 8.96484 10.6641L7.11914 10.6641L7.11914 11.3574C7.11914 11.6992 6.88477 11.9434 6.55273 11.9434ZM7.12891 8.00781L8.23242 8.02734C9.23828 8.02734 9.73633 7.48047 9.73633 6.63086C9.73633 5.78125 9.24805 5.25391 8.23242 5.25391L7.12891 5.25391Z" fill="#ffffff" fill-opacity="0.85"/>
 </g>
</svg>
