<?xml version="1.0" encoding="UTF-8"?>
<!--Generator: Apple Native CoreSVG 232.5-->
<!DOCTYPE svg
PUBLIC "-//W3C//DTD SVG 1.1//EN"
       "http://www.w3.org/Graphics/SVG/1.1/DTD/svg11.dtd">
<svg version="1.1" xmlns="http://www.w3.org/2000/svg" xmlns:xlink="http://www.w3.org/1999/xlink" width="16.1328" height="15.7715">
 <g>
  <rect height="15.7715" opacity="0" width="16.1328" x="0" y="0"/>
  <path d="M7.88086 15.7617C12.1875 15.7617 15.7715 12.1875 15.7715 7.88086C15.7715 3.57422 12.1777 0 7.87109 0C3.57422 0 0 3.57422 0 7.88086C0 12.1875 3.58398 15.7617 7.88086 15.7617ZM7.88086 14.2773C4.33594 14.2773 1.50391 11.4355 1.50391 7.88086C1.50391 4.32617 4.32617 1.48438 7.87109 1.48438C11.4258 1.48438 14.2773 4.32617 14.2773 7.88086C14.2773 11.4355 11.4355 14.2773 7.88086 14.2773Z" fill="#ffffff" fill-opacity="0.55"/>
  <path d="M5.48828 11.7773C5.78125 11.7773 5.97656 11.5723 5.97656 11.2207L5.97656 8.65234L6.26953 8.65234L7.17773 11.4355C7.26562 11.6992 7.43164 11.7773 7.64648 11.7773C7.91992 11.7773 8.125 11.5625 8.125 11.2793C8.125 11.1719 8.10547 11.084 8.05664 10.9473L7.20703 8.44727C7.80273 8.10547 8.14453 7.30469 8.14453 6.38672C8.14453 4.90234 7.56836 4.16992 6.41602 4.16992L5.49805 4.16992C5.20508 4.16992 5.00977 4.38477 5.00977 4.73633L5.00977 11.2012C5.00977 11.5527 5.19531 11.7773 5.48828 11.7773ZM5.97656 7.67578L5.97656 5.14648L6.35742 5.14648C6.9043 5.14648 7.1582 5.57617 7.1582 6.41602C7.1582 7.26562 6.9043 7.67578 6.32812 7.67578ZM9.85352 11.7871C10.7324 11.7871 11.3184 11.1426 11.3184 10.166C11.3184 9.38477 11.0449 8.91602 10.2832 8.49609L10 8.33984C9.59961 8.11523 9.42383 7.90039 9.42383 7.54883C9.42383 7.1582 9.57031 6.93359 9.84375 6.93359C10.1953 6.93359 10.2637 7.1875 10.3027 7.63672C10.332 7.96875 10.4785 8.17383 10.7715 8.17383C11.0742 8.17383 11.2402 7.95898 11.2402 7.61719C11.2402 7.5293 11.2305 7.45117 11.2207 7.37305C11.1426 6.60156 10.6543 6.00586 9.85352 6.00586C9.02344 6.00586 8.4668 6.64062 8.4668 7.58789C8.4668 8.34961 8.7793 8.85742 9.52148 9.25781L9.81445 9.41406C10.1855 9.60938 10.3418 9.86328 10.3418 10.2441C10.3418 10.6543 10.1758 10.8691 9.85352 10.8691C9.51172 10.8691 9.375 10.6055 9.33594 10.166C9.30664 9.82422 9.14062 9.62891 8.85742 9.62891C8.56445 9.62891 8.39844 9.83398 8.39844 10.1855C8.39844 10.2734 8.39844 10.3516 8.4082 10.4297C8.49609 11.2305 9.01367 11.7871 9.85352 11.7871Z" fill="#ffffff" fill-opacity="0.85"/>
 </g>
</svg>
