<svg version="1.1" xmlns="http://www.w3.org/2000/svg" xmlns:xlink="http://www.w3.org/1999/xlink" width="18.1759" height="20.3613" viewBox="0 0 18.1759 20.3613">
 <g>
  <rect height="20.3613" opacity="0" width="18.1759" x="0" y="0"/>
  <path d="M1.99323 12.4121L7.50104 12.4121L7.50104 15.0879L8.67292 15.0879L8.67292 12.4121L11.3487 12.4121C13.7022 12.4121 15.001 11.1914 15.001 9.25781C15.001 5.99609 11.7003 2.43164 8.67292 0.771484L8.67292 0.585938C8.67292 0.263672 8.40924 0 8.08698 0C7.76471 0 7.50104 0.263672 7.50104 0.585938L7.50104 0.878906C7.50104 3.55469 4.92292 8.38867 1.52448 10.8496C0.713932 11.4355 1.18268 12.4121 1.99323 12.4121ZM8.67292 10.9473L8.67292 2.09961C9.79596 3.62305 10.2842 5.35156 10.2842 6.88477C10.2842 8.61328 9.66901 10.1172 8.67292 10.9473ZM0.0596351 15.7715L0.577213 17.5977C0.586979 17.6367 0.596744 17.6758 0.616276 17.7246C1.08503 17.7148 1.45612 17.5781 2.03229 17.168C2.5401 16.8066 3.39948 16.1719 4.59089 16.1719C5.60651 16.1719 6.39753 16.6309 7.00299 17.0703C7.78424 17.6562 7.93073 17.7246 8.2237 17.7246C8.52643 17.7246 8.66315 17.6562 9.45417 17.0703C10.0401 16.6406 10.8507 16.1719 11.8565 16.1719C13.0577 16.1719 13.9171 16.8066 14.4249 17.168C14.9913 17.5781 15.3819 17.7148 16.0167 17.7246L17.5499 15.9277C18.1358 15.2344 17.6768 14.3555 16.7686 14.3555L1.08503 14.3555C0.215885 14.3555-0.155209 14.9707 0.0596351 15.7715ZM0.118229 19.2969C0.118229 19.6387 0.391666 19.9023 0.723698 19.9023L0.76276 19.9023C3.21393 19.9023 3.40924 18.3496 4.59089 18.3496C5.74323 18.3496 6.08503 19.9023 8.2237 19.9023C10.3721 19.9023 10.7042 18.3496 11.8565 18.3496C13.0382 18.3496 13.2335 19.9023 15.6846 19.9023L16.4952 19.9023C16.837 19.9023 17.1104 19.6387 17.1104 19.2969C17.1104 18.9551 16.837 18.6816 16.4952 18.6816L15.6846 18.6816C14.8936 18.6816 14.4444 18.3594 13.8682 17.9492C13.3702 17.5879 12.7354 17.1289 11.8565 17.1289C10.9581 17.1289 10.3135 17.6172 9.81549 17.9883C9.28815 18.3887 8.88776 18.6816 8.2237 18.6816C7.5694 18.6816 7.16901 18.3887 6.64167 17.9883C6.14362 17.6172 5.49909 17.1289 4.59089 17.1289C3.72174 17.1289 3.08698 17.5879 2.58893 17.9492C2.01276 18.3594 1.56354 18.6816 0.76276 18.6816L0.723698 18.6816C0.391666 18.6816 0.118229 18.9551 0.118229 19.2969Z" fill="var(--color-primary)"/>
 </g>
</svg>
