<svg version="1.1" xmlns="http://www.w3.org/2000/svg" xmlns:xlink="http://www.w3.org/1999/xlink" width="16.1328" height="15.7715" viewBox="0 0 16.1328 15.7715">
 <g>
  <rect height="15.7715" opacity="0" width="16.1328" x="0" y="0"/>
  <path d="M15.7715 7.89062C15.7715 12.1973 12.1875 15.7715 7.88086 15.7715C3.58398 15.7715 0 12.1973 0 7.89062C0 3.58398 3.57422 0.00976562 7.87109 0.00976562C12.1777 0.00976562 15.7715 3.58398 15.7715 7.89062ZM11.0547 5.77148L7.92969 6.875C7.48047 7.04102 7.26562 7.27539 7.14844 7.69531L7.08008 7.95898C7.03125 8.1543 6.91406 8.23242 6.60156 8.4082L6.14258 8.65234C6.04492 8.70117 5.99609 8.71094 5.91797 8.71094C5.60547 8.71094 5.52734 8.45703 4.84375 8.45703C4.01367 8.45703 3.34961 9.12109 3.34961 9.95117C3.34961 10.7812 4.01367 11.4551 4.84375 11.4551C5.66406 11.4551 6.33789 10.791 6.33789 9.95117C6.33789 9.6582 6.37695 9.55078 6.5918 9.43359L12.8027 6.16211C12.6758 5.54688 12.0605 5.41016 11.0547 5.77148ZM5.67383 9.95117C5.67383 10.4199 5.30273 10.791 4.84375 10.791C4.38477 10.791 4.01367 10.4199 4.01367 9.95117C4.01367 9.49219 4.38477 9.12109 4.84375 9.12109C5.30273 9.12109 5.67383 9.49219 5.67383 9.95117ZM8.39399 9.05068L11.0547 9.99023C12.0605 10.3516 12.6758 10.2148 12.8027 9.60938L10.0704 8.16586ZM8.34961 7.66602C8.34961 7.85156 8.19336 7.98828 8.02734 7.98828C7.85156 7.98828 7.70508 7.85156 7.70508 7.66602C7.70508 7.49023 7.85156 7.35352 8.02734 7.35352C8.19336 7.35352 8.34961 7.49023 8.34961 7.66602ZM3.34961 5.81055C3.34961 6.64062 4.01367 7.30469 4.84375 7.30469C5.52734 7.30469 5.60547 7.05078 5.91797 7.05078C5.99609 7.05078 6.04492 7.06055 6.14258 7.10938L6.60156 7.35352C6.64041 7.37537 6.67624 7.39571 6.70928 7.41495C6.82192 7.09603 6.99326 6.85549 7.24392 6.67264L6.5918 6.32812C6.37695 6.21094 6.33789 6.10352 6.33789 5.81055C6.33789 4.9707 5.66406 4.30664 4.84375 4.30664C4.01367 4.30664 3.34961 4.98047 3.34961 5.81055ZM5.67383 5.81055C5.67383 6.26953 5.30273 6.64062 4.84375 6.64062C4.38477 6.64062 4.01367 6.26953 4.01367 5.81055C4.01367 5.3418 4.38477 4.9707 4.84375 4.9707C5.30273 4.9707 5.67383 5.3418 5.67383 5.81055Z" fill="currentColor"/>
 </g>
</svg>
