<svg version="1.1" xmlns="http://www.w3.org/2000/svg" xmlns:xlink="http://www.w3.org/1999/xlink" width="11.1621" height="12.5376" viewBox="0 0 11.1621 12.5376">
 <g>
  <rect height="12.5376" opacity="0" width="11.1621" x="0" y="0"/>
  <path d="M0 11.9182L2.05078 12.4651C2.93945 12.7092 3.45703 12.3284 3.45703 11.4495L3.45703 9.07641L6.5332 9.07641L6.5332 6.87914L0.830078 6.87914L0.830078 11.1077C0.830078 11.6057 0.498047 11.9182 0 11.9182ZM0.830078 5.42406L3.45703 5.42406L3.45703 2.6018C3.45703 1.80102 3.10547 1.43969 2.39258 1.24438L0.488281 0.736563C0.703125 0.873282 0.830078 1.10766 0.830078 1.42016ZM7.33398 11.9182L9.38477 12.4651C10.2734 12.7092 10.8008 12.3284 10.8008 11.4495L10.8008 2.6018C10.8008 1.80102 10.4395 1.42992 9.72656 1.23461L7.82227 0.736563C8.03711 0.873282 8.16406 1.10766 8.16406 1.42016L8.16406 11.1077C8.16406 11.6057 7.83203 11.9182 7.33398 11.9182Z" fill="var(--color-primary)"/>
 </g>
</svg>
