<?xml version="1.0" encoding="UTF-8"?>
<!--Generator: Apple Native CoreSVG 232.5-->
<!DOCTYPE svg
PUBLIC "-//W3C//DTD SVG 1.1//EN"
       "http://www.w3.org/Graphics/SVG/1.1/DTD/svg11.dtd">
<svg version="1.1" xmlns="http://www.w3.org/2000/svg" xmlns:xlink="http://www.w3.org/1999/xlink" width="16.1328" height="15.7715">
 <g>
  <rect height="15.7715" opacity="0" width="16.1328" x="0" y="0"/>
  <path d="M15.7715 7.89062C15.7715 12.1973 12.1875 15.7715 7.88086 15.7715C3.58398 15.7715 0 12.1973 0 7.89062C0 3.58398 3.57422 0.00976562 7.87109 0.00976562C12.1777 0.00976562 15.7715 3.58398 15.7715 7.89062ZM5.30273 11.4062C5.30273 11.709 5.52734 11.8848 5.9082 11.8848L10.5176 11.8848C10.9082 11.8848 11.1328 11.709 11.1328 11.4062C11.1328 10.5176 10.0098 9.27734 8.21289 9.27734C6.41602 9.27734 5.30273 10.5176 5.30273 11.4062ZM3.27148 8.125C2.87109 8.125 2.67578 8.31055 2.67578 8.71094L2.67578 9.58008C2.67578 9.98047 2.87109 10.1758 3.27148 10.1758L4.11133 10.1758C4.51172 10.1758 4.72656 9.98047 4.72656 9.58008L4.72656 8.71094C4.72656 8.32031 4.51172 8.125 4.11133 8.125ZM11.2598 5.73242C10.8496 5.73242 10.6543 5.92773 10.6543 6.31836L10.6543 8.76953C10.6543 9.16016 10.8496 9.36523 11.2598 9.36523L12.5 9.36523C12.9004 9.36523 13.0957 9.16016 13.0957 8.76953L13.0957 6.31836C13.0957 5.92773 12.9004 5.73242 12.5 5.73242ZM6.82617 7.12891C6.82617 7.98828 7.4707 8.65234 8.21289 8.65234C8.94531 8.65234 9.60938 7.98828 9.60938 7.12891C9.60938 6.25977 8.94531 5.63477 8.21289 5.63477C7.4707 5.63477 6.82617 6.26953 6.82617 7.12891ZM4.41406 3.88672C4.01367 3.88672 3.80859 4.0918 3.80859 4.49219L3.80859 6.5332C3.80859 6.92383 4.01367 7.11914 4.41406 7.11914L6.20117 7.11914C6.21094 6.00586 7.03125 5.08789 8.08594 5.00977L8.08594 4.49219C8.08594 4.0918 7.87109 3.88672 7.48047 3.88672Z" fill="#ffffff" fill-opacity="0.85"/>
 </g>
</svg>
