<?xml version="1.0" encoding="UTF-8"?>
<!--Generator: Apple Native CoreSVG 232.5-->
<!DOCTYPE svg
PUBLIC "-//W3C//DTD SVG 1.1//EN"
       "http://www.w3.org/Graphics/SVG/1.1/DTD/svg11.dtd">
<svg version="1.1" xmlns="http://www.w3.org/2000/svg" xmlns:xlink="http://www.w3.org/1999/xlink" width="14.6777" height="17.998">
 <g>
  <rect height="17.998" opacity="0" width="14.6777" x="0" y="0"/>
  <path d="M12.5781 5.06836C11.0059 4.50195 8.70117 6.37695 8.02734 8.21289C7.71484 9.0918 7.38281 10.918 7.54883 12.5586L11.6113 14.0332C12.793 12.8809 13.7207 11.2891 14.043 10.4004C14.707 8.56445 14.1504 5.64453 12.5781 5.06836ZM8.01758 17.6074C9.15039 18.0176 10.1758 17.1094 10.7617 15.5273C10.8105 15.3906 10.8594 15.166 10.8984 14.9902L7.5 13.75C7.41211 13.9062 7.32422 14.1113 7.27539 14.248C6.68945 15.8496 6.89453 17.1875 8.01758 17.6074Z" fill="#ffffff" fill-opacity="0.85"/>
  <path d="M3.19336 0C1.52344 0 0 2.54883 0 4.50195C0 5.43945 0.3125 7.26562 1.03516 8.75L5.35156 8.75C6.07422 7.26562 6.38672 5.43945 6.38672 4.50195C6.38672 2.54883 4.86328 0 3.19336 0ZM3.20312 13.3398C4.4043 13.3398 5.04883 12.1387 5.04883 10.4395C5.04883 10.293 5.0293 10.0684 5 9.89258L1.39648 9.89258C1.35742 10.0684 1.34766 10.293 1.34766 10.4395C1.34766 12.1387 1.99219 13.3398 3.20312 13.3398Z" fill="#ffffff" fill-opacity="0.85"/>
 </g>
</svg>
