<svg version="1.1" xmlns="http://www.w3.org/2000/svg" xmlns:xlink="http://www.w3.org/1999/xlink" width="16.1328" height="15.7715" viewBox="0 0 16.1328 15.7715">
 <g>
  <rect height="15.7715" opacity="0" width="16.1328" x="0" y="0"/>
  <path d="M7.88086 15.7617C12.1875 15.7617 15.7715 12.1875 15.7715 7.88086C15.7715 3.57422 12.1777 0 7.87109 0C3.57422 0 0 3.57422 0 7.88086C0 12.1875 3.58398 15.7617 7.88086 15.7617ZM7.88086 14.2773C4.33594 14.2773 1.50391 11.4355 1.50391 7.88086C1.50391 4.32617 4.32617 1.48438 7.87109 1.48438C11.4258 1.48438 14.2773 4.32617 14.2773 7.88086C14.2773 11.4355 11.4355 14.2773 7.88086 14.2773Z" fill="currentColor"/>
  <path d="M4.05273 7.99805C4.05273 8.58398 4.36523 8.90625 4.96094 8.90625L7.40234 8.90625L7.40234 11.4355L6.25977 11.4355C6.00586 11.4355 5.78125 11.6504 5.78125 11.9043C5.78125 12.1582 6.00586 12.373 6.25977 12.373L9.49219 12.373C9.74609 12.373 9.96094 12.1582 9.96094 11.9043C9.96094 11.6504 9.74609 11.4355 9.49219 11.4355L8.34961 11.4355L8.34961 8.90625L10.791 8.90625C11.377 8.90625 11.6992 8.58398 11.6992 7.99805L11.6992 5.35156C11.6992 4.76562 11.377 4.45312 10.791 4.45312L8.34961 4.45312L8.34961 3.85742C8.34961 3.60352 8.13477 3.38867 7.87109 3.38867C7.61719 3.38867 7.40234 3.60352 7.40234 3.85742L7.40234 4.45312L4.96094 4.45312C4.36523 4.45312 4.05273 4.76562 4.05273 5.35156ZM6.64062 7.14844L7.61719 5.76172C7.76367 5.54688 7.99805 5.54688 8.14453 5.76172L9.12109 7.14844C9.29688 7.40234 9.20898 7.63672 8.87695 7.63672L6.88477 7.63672C6.5332 7.63672 6.45508 7.40234 6.64062 7.14844Z" fill="currentColor"/>
 </g>
</svg>
