<?xml version="1.0" encoding="UTF-8"?>
<!--Generator: Apple Native CoreSVG 232.5-->
<!DOCTYPE svg
PUBLIC "-//W3C//DTD SVG 1.1//EN"
       "http://www.w3.org/Graphics/SVG/1.1/DTD/svg11.dtd">
<svg version="1.1" xmlns="http://www.w3.org/2000/svg" xmlns:xlink="http://www.w3.org/1999/xlink" width="14.6289" height="16.3965">
 <g>
  <rect height="16.3965" opacity="0" width="14.6289" x="0" y="0"/>
  <path d="M6.42578 2.83203L7.83203 2.83203L7.83203 0.712891C7.83203 0.322266 7.51953 0 7.12891 0C6.74805 0 6.42578 0.322266 6.42578 0.712891ZM0 8.42773C0 9.51172 0.605469 10.1074 1.70898 10.1074L12.5586 10.1074C13.6621 10.1074 14.2676 9.51172 14.2676 8.42773L14.2676 3.47656C14.2676 2.39258 13.6621 1.79688 12.5586 1.79688L1.70898 1.79688C0.605469 1.79688 0 2.39258 0 3.47656ZM6.42578 9.62891L6.42578 16.3672L7.83203 16.3672L7.83203 9.62891ZM3.41797 15.6738C3.41797 16.0645 3.74023 16.3867 4.12109 16.3867L10.1465 16.3867C10.5371 16.3867 10.8496 16.0645 10.8496 15.6738C10.8496 15.293 10.5371 14.9707 10.1465 14.9707L4.12109 14.9707C3.74023 14.9707 3.41797 15.293 3.41797 15.6738Z" fill="#ffffff" fill-opacity="0.25"/>
  <path d="M5.29297 7.74414C4.63867 7.74414 4.48242 7.31445 4.83398 6.82617L6.65039 4.24805C6.92383 3.84766 7.36328 3.84766 7.63672 4.24805L9.45312 6.83594C9.79492 7.31445 9.61914 7.74414 8.99414 7.74414Z" fill="#ffffff" fill-opacity="0.85"/>
 </g>
</svg>
