<?xml version="1.0" encoding="UTF-8"?>
<!--Generator: Apple Native CoreSVG 232.5-->
<!DOCTYPE svg
PUBLIC "-//W3C//DTD SVG 1.1//EN"
       "http://www.w3.org/Graphics/SVG/1.1/DTD/svg11.dtd">
<svg version="1.1" xmlns="http://www.w3.org/2000/svg" xmlns:xlink="http://www.w3.org/1999/xlink" width="15.835" height="17.7637">
 <g>
  <rect height="17.7637" opacity="0" width="15.835" x="0" y="0"/>
  <path d="M7.02884 2.53906L8.44485 2.53906L8.44485 0.703125C8.44485 0.322266 8.12259 0 7.74173 0C7.3511 0 7.02884 0.322266 7.02884 0.703125ZM5.08548 7.27539L12.4292 7.27539C12.8882 7.27539 13.2105 7.14844 13.5132 6.85547L15.0367 5.40039C15.6226 4.82422 15.6324 4.30664 15.0171 3.70117L13.5132 2.23633C13.2202 1.94336 12.898 1.82617 12.439 1.82617L5.08548 1.82617C4.35306 1.82617 3.93314 2.2168 3.93314 2.96875L3.93314 6.13281C3.93314 6.875 4.35306 7.27539 5.08548 7.27539ZM5.39798 6.03516C5.28079 6.03516 5.17337 5.9375 5.17337 5.81055L5.17337 3.29102C5.17337 3.16406 5.28079 3.06641 5.39798 3.06641L12.4097 3.06641C12.5269 3.06641 12.6343 3.10547 12.7027 3.16406L13.9429 4.39453C14.0406 4.47266 14.0503 4.62891 13.9429 4.72656L12.6831 5.92773C12.605 5.99609 12.5074 6.03516 12.3999 6.03516ZM3.04446 13.916L10.3882 13.916C11.1206 13.916 11.5406 13.5156 11.5406 12.7734L11.5406 9.60938C11.5406 8.85742 11.1206 8.4668 10.3882 8.4668L3.0347 8.4668C2.58548 8.4668 2.25345 8.59375 1.96048 8.87695L0.456573 10.3418C-0.148896 10.9473-0.148896 11.4648 0.437042 12.041L1.96048 13.4961C2.26321 13.7988 2.58548 13.916 3.04446 13.916ZM3.07376 12.6758C2.96634 12.6758 2.86868 12.6367 2.79056 12.5684L1.53079 11.3672C1.42337 11.2695 1.43314 11.1133 1.53079 11.0352L2.77103 9.80469C2.83939 9.74609 2.94681 9.70703 3.06399 9.70703L10.0757 9.70703C10.2027 9.70703 10.3003 9.80469 10.3003 9.93164L10.3003 12.4512C10.3003 12.5781 10.2027 12.6758 10.0757 12.6758ZM7.02884 9.02344L8.44485 9.02344L8.44485 6.66016L7.02884 6.66016ZM7.02884 17.0898L8.44485 17.0898L8.44485 12.9395L7.02884 12.9395ZM5.09524 17.7441L10.3784 17.7441C10.7593 17.7441 11.0816 17.4316 11.0816 17.041C11.0816 16.6602 10.7593 16.3379 10.3784 16.3379L5.09524 16.3379C4.70462 16.3379 4.38235 16.6602 4.38235 17.041C4.38235 17.4316 4.70462 17.7441 5.09524 17.7441Z" fill="#ffffff" fill-opacity="0.85"/>
 </g>
</svg>
