<svg version="1.1" xmlns="http://www.w3.org/2000/svg" xmlns:xlink="http://www.w3.org/1999/xlink" width="15.835" height="17.7637" viewBox="0 0 15.835 17.7637">
 <g>
  <rect height="17.7637" opacity="0" width="15.835" x="0" y="0"/>
  <path d="M7.02884 2.53906L8.44485 2.53906L8.44485 0.703125C8.44485 0.322266 8.12259 0 7.74173 0C7.3511 0 7.02884 0.322266 7.02884 0.703125ZM5.08548 7.27539L12.4292 7.27539C12.8882 7.27539 13.2105 7.14844 13.5132 6.85547L15.0367 5.40039C15.6226 4.82422 15.6324 4.30664 15.0171 3.70117L13.5132 2.23633C13.2202 1.94336 12.898 1.82617 12.439 1.82617L5.08548 1.82617C4.35306 1.82617 3.93314 2.2168 3.93314 2.96875L3.93314 6.13281C3.93314 6.875 4.35306 7.27539 5.08548 7.27539ZM3.04446 13.916L10.3882 13.916C11.1206 13.916 11.5406 13.5156 11.5406 12.7734L11.5406 9.60938C11.5406 8.85742 11.1206 8.4668 10.3882 8.4668L3.0347 8.4668C2.58548 8.4668 2.25345 8.59375 1.96048 8.87695L0.456573 10.3418C-0.148896 10.9473-0.148896 11.4648 0.437042 12.041L1.96048 13.4961C2.26321 13.7988 2.58548 13.916 3.04446 13.916ZM7.02884 9.02344L8.44485 9.02344L8.44485 6.66016L7.02884 6.66016ZM7.02884 17.0898L8.44485 17.0898L8.44485 12.9395L7.02884 12.9395ZM5.09524 17.7441L10.3784 17.7441C10.7593 17.7441 11.0816 17.4316 11.0816 17.041C11.0816 16.6602 10.7593 16.3379 10.3784 16.3379L5.09524 16.3379C4.70462 16.3379 4.38235 16.6602 4.38235 17.041C4.38235 17.4316 4.70462 17.7441 5.09524 17.7441Z" fill="currentColor"/>
 </g>
</svg>
