<?xml version="1.0" encoding="UTF-8"?>
<!--Generator: Apple Native CoreSVG 232.5-->
<!DOCTYPE svg
PUBLIC "-//W3C//DTD SVG 1.1//EN"
       "http://www.w3.org/Graphics/SVG/1.1/DTD/svg11.dtd">
<svg version="1.1" xmlns="http://www.w3.org/2000/svg" xmlns:xlink="http://www.w3.org/1999/xlink" width="16.2109" height="16.7871">
 <g>
  <rect height="16.7871" opacity="0" width="16.2109" x="0" y="0"/>
  <path d="M8.23242 0.585938L9.83797 2.19727L7.95332 2.19727L7.50977 1.74805C7.25586 1.49414 7.03125 1.40625 6.66016 1.40625L2.28516 1.40625C1.69922 1.40625 1.40625 1.69922 1.40625 2.26562L1.40625 12.2266C1.40625 12.8027 1.69922 13.0957 2.27539 13.0957L4.3457 13.0957L4.3457 14.4434C4.3457 14.4635 4.34584 14.4835 4.3476 14.502L2.22656 14.502C0.751953 14.502 0 13.7402 0 12.2461L0 2.26562C0 0.761719 0.751953 0 2.22656 0L6.70898 0C7.39258 0 7.79297 0.15625 8.23242 0.585938ZM4.3457 8.90704L4.3457 12.1875L3.45703 12.1875C2.91016 12.1875 2.53906 11.8164 2.53906 11.2598L2.53906 8.88672L4.26758 8.88672C4.30064 8.88672 4.32671 8.89372 4.3457 8.90704ZM2.53906 8.03711L2.53906 7.14844C2.53906 6.58203 2.91016 6.2207 3.45703 6.2207L4.3457 6.2207L4.3457 8.03711Z" fill="#ffffff" fill-opacity="0.55"/>
  <path d="M6.57227 16.6992L13.6133 16.6992C15.0879 16.6992 15.8496 15.9375 15.8496 14.4434L15.8496 7.02148C15.8496 6.28906 15.7227 5.9375 15.293 5.50781L12.5781 2.79297C12.1387 2.35352 11.7383 2.19727 11.0547 2.19727L6.57227 2.19727C5.09766 2.19727 4.3457 2.95898 4.3457 4.46289L4.3457 14.4434C4.3457 15.9375 5.09766 16.6992 6.57227 16.6992ZM6.62109 15.293C6.04492 15.293 5.75195 15 5.75195 14.4238L5.75195 4.46289C5.75195 3.89648 6.04492 3.60352 6.63086 3.60352L11.0156 3.60352C11.377 3.60352 11.6016 3.69141 11.8555 3.94531L14.1602 6.26953C14.375 6.49414 14.4336 6.67969 14.4336 7.12891L14.4336 14.4238C14.4336 15 14.1406 15.293 13.5645 15.293ZM6.88477 13.457C6.88477 14.0137 7.26562 14.3848 7.8125 14.3848L8.74023 14.3848L8.74023 11.2012C8.74023 11.1328 8.70117 11.0938 8.62305 11.0938L6.88477 11.0938ZM6.88477 10.2344L9.15039 10.2344C9.43359 10.2344 9.58984 10.4004 9.58984 10.6543L9.58984 14.3848L10.8301 14.3848L10.8301 8.41797L7.8125 8.41797C7.26562 8.41797 6.88477 8.78906 6.88477 9.35547ZM11.6895 14.3848L12.3828 14.3848C12.9395 14.3848 13.3008 14.0137 13.3008 13.457L13.3008 9.35547C13.3008 8.78906 12.9395 8.41797 12.3828 8.41797L11.6895 8.41797Z" fill="#ffffff" fill-opacity="0.85"/>
 </g>
</svg>
