<?xml version="1.0" encoding="UTF-8"?>
<!--Generator: Apple Native CoreSVG 232.5-->
<!DOCTYPE svg
PUBLIC "-//W3C//DTD SVG 1.1//EN"
       "http://www.w3.org/Graphics/SVG/1.1/DTD/svg11.dtd">
<svg version="1.1" xmlns="http://www.w3.org/2000/svg" xmlns:xlink="http://www.w3.org/1999/xlink" width="16.1328" height="18.7695">
 <g>
  <rect height="18.7695" opacity="0" width="16.1328" x="0" y="0"/>
  <path d="M0 9.37989C0 13.6865 3.58398 17.2607 7.88086 17.2607C12.1875 17.2607 15.7715 13.6865 15.7715 9.37989C15.7715 5.59083 12.998 2.36817 9.4043 1.64551L9.4043 0.600591C9.4043-0.0048778 8.98438-0.161128 8.53516 0.170903L6.05469 1.90918C5.67383 2.17286 5.66406 2.58301 6.05469 2.85645L8.52539 4.59473C8.98438 4.92676 9.4043 4.77051 9.4043 4.15528L9.4043 3.16895C12.2168 3.84278 14.2676 6.35254 14.2676 9.37989C14.2676 12.9346 11.4355 15.7764 7.88086 15.7764C4.33594 15.7764 1.48438 12.9346 1.49414 9.37989C1.50391 7.29004 2.48047 5.45411 4.01367 4.292C4.36523 4.02833 4.48242 3.6084 4.25781 3.24708C4.04297 2.88575 3.55469 2.79786 3.16406 3.09083C1.25 4.5459 0 6.84083 0 9.37989Z" fill="#ffffff" fill-opacity="0.55"/>
  <path d="M4.39453 8.27637L7.99805 8.27637L7.99805 7.14356L4.39453 7.14356C4.0625 7.14356 3.80859 7.39747 3.80859 7.7002C3.80859 8.02247 4.0625 8.27637 4.39453 8.27637ZM9.01367 9.27247C9.86328 9.27247 10.5664 8.56934 10.5664 7.7002C10.5664 6.85059 9.86328 6.14747 9.01367 6.14747C8.1543 6.14747 7.45117 6.85059 7.45117 7.7002C7.45117 8.56934 8.1543 9.27247 9.01367 9.27247ZM9.01367 8.41309C8.61328 8.41309 8.31055 8.10059 8.31055 7.7002C8.31055 7.29981 8.61328 6.99708 9.01367 6.99708C9.4043 6.99708 9.70703 7.29981 9.70703 7.7002C9.70703 8.10059 9.4043 8.41309 9.01367 8.41309ZM9.95117 8.27637L11.4062 8.27637C11.6992 8.27637 11.9531 8.02247 11.9531 7.7002C11.9531 7.39747 11.6992 7.14356 11.4062 7.14356L9.95117 7.14356ZM4.35547 12.3779L5.81055 12.3779L5.81055 11.2451L4.35547 11.2451C4.0625 11.2451 3.80859 11.499 3.80859 11.8115C3.80859 12.124 4.0625 12.3779 4.35547 12.3779ZM6.75781 13.374C7.62695 13.374 8.33008 12.6709 8.33008 11.8018C8.33008 10.9522 7.62695 10.249 6.75781 10.249C5.89844 10.249 5.20508 10.9522 5.20508 11.8018C5.20508 12.6709 5.89844 13.374 6.75781 13.374ZM6.75781 12.5147C6.36719 12.5147 6.05469 12.2022 6.05469 11.8018C6.05469 11.4014 6.36719 11.1084 6.75781 11.1084C7.1582 11.1084 7.4707 11.4014 7.4707 11.8018C7.4707 12.2022 7.1582 12.5147 6.75781 12.5147ZM7.77344 12.3779L11.377 12.3779C11.6992 12.3779 11.9531 12.124 11.9531 11.8115C11.9531 11.499 11.6992 11.2451 11.377 11.2451L7.77344 11.2451Z" fill="#ffffff" fill-opacity="0.85"/>
 </g>
</svg>
