<svg version="1.1" xmlns="http://www.w3.org/2000/svg" xmlns:xlink="http://www.w3.org/1999/xlink" width="28.1742" height="20.4785" viewBox="0 0 28.1742 20.4785">
 <g>
  <rect height="20.4785" opacity="0" width="28.1742" x="0" y="0"/>
  <path d="M22.9641 5.58594L22.9641 10.373C22.7341 10.3391 22.4992 10.3223 22.2609 10.3223C22.0224 10.3223 21.7874 10.3393 21.5578 10.3739L21.5578 5.6543C21.5578 4.91211 21.1574 4.54102 20.4543 4.54102L7.35859 4.54102C6.65547 4.54102 6.25508 4.91211 6.25508 5.6543L6.25508 14.834C6.25508 15.5664 6.65547 15.9473 7.35859 15.9473L16.3529 15.9473C16.3134 16.5333 16.6098 17.0832 17.1293 17.3633L7.33906 17.3633C5.67891 17.3633 4.84883 16.543 4.84883 14.9023L4.84883 5.58594C4.84883 3.94531 5.67891 3.125 7.33906 3.125L20.4738 3.125C22.1437 3.125 22.9641 3.94531 22.9641 5.58594ZM13.2159 10.3906L19.5754 10.3906C19.8279 10.3906 20.0464 10.5673 20.1114 10.8075C19.7077 10.9982 19.3335 11.2403 18.9984 11.5234L13.2133 11.5234C12.9874 12.0802 12.4377 12.4805 11.7922 12.4805C11.1541 12.4805 10.6005 12.0802 10.3723 11.5234L8.21797 11.5234C7.93476 11.5234 7.68086 11.2695 7.68086 10.957C7.68086 10.6445 7.93476 10.3906 8.21797 10.3906L10.3685 10.3906C10.5926 9.82323 11.1441 9.41406 11.7922 9.41406C12.4403 9.41406 12.9918 9.82323 13.2159 10.3906ZM11.1086 10.957C11.1086 11.3477 11.4113 11.6406 11.7922 11.6406C12.1926 11.6406 12.4855 11.3379 12.4855 10.957C12.4855 10.5566 12.1926 10.2637 11.7922 10.2637C11.4113 10.2637 11.1086 10.5566 11.1086 10.957ZM17.4541 6.67969L19.5949 6.67969C19.8781 6.67969 20.132 6.93359 20.132 7.23633C20.132 7.54883 19.8781 7.80273 19.5949 7.80273L17.4515 7.80273C17.2225 8.37013 16.6614 8.7793 16.0207 8.7793C15.38 8.7793 14.8303 8.37013 14.6067 7.80273L8.24726 7.80273C7.93476 7.80273 7.68086 7.54883 7.68086 7.23633C7.68086 6.93359 7.93476 6.67969 8.24726 6.67969L14.6068 6.67969C14.8319 6.11777 15.3864 5.71289 16.0207 5.71289C16.664 5.71289 17.2271 6.11394 17.4541 6.67969ZM15.3371 7.23633C15.3371 7.62695 15.6301 7.92969 16.0207 7.92969C16.4211 7.92969 16.7141 7.62695 16.7141 7.23633C16.7141 6.85547 16.4211 6.55273 16.0207 6.55273C15.6301 6.55273 15.3371 6.8457 15.3371 7.23633Z" fill="currentColor"/>
  <path d="M24.4484 17.2559C23.9211 17.8809 23.1398 18.2715 22.2707 18.2715C20.6984 18.2715 19.3996 16.9727 19.3996 15.4004L18.3254 15.4004C18.3254 17.5586 20.1125 19.3359 22.2707 19.3359C23.4523 19.3359 24.507 18.8086 25.2297 17.9883C25.7473 17.3926 24.8977 16.7188 24.4484 17.2559ZM18.5598 14.502L17.6223 15.7031C17.3488 16.0547 17.5441 16.4258 17.9836 16.4258L19.966 16.4258C20.4055 16.4258 20.6203 16.0254 20.3371 15.7031L19.302 14.502C19.0676 14.2285 18.7844 14.2188 18.5598 14.502ZM20.0832 13.5449C20.6105 12.9199 21.4016 12.5293 22.2707 12.5293C23.843 12.5293 25.1418 13.8281 25.1418 15.4004L26.2062 15.4004C26.2062 13.2422 24.4289 11.4648 22.2707 11.4648C21.0891 11.4648 20.0246 11.9922 19.3117 12.8125C18.7941 13.4082 19.634 14.082 20.0832 13.5449ZM25.9816 16.2988L26.9094 15.0977C27.1828 14.7461 26.9875 14.375 26.548 14.375L24.5754 14.375C24.1359 14.375 23.9211 14.7754 24.2043 15.0977L25.2297 16.2988C25.4641 16.5723 25.7473 16.582 25.9816 16.2988Z" fill="currentColor"/>
 </g>
</svg>
