<svg version="1.1" xmlns="http://www.w3.org/2000/svg" xmlns:xlink="http://www.w3.org/1999/xlink" width="16.1328" height="15.7715" viewBox="0 0 16.1328 15.7715">
 <g>
  <rect height="15.7715" opacity="0" width="16.1328" x="0" y="0"/>
  <path d="M7.88086 15.7617C12.1875 15.7617 15.7715 12.1875 15.7715 7.88086C15.7715 3.57422 12.1777 0 7.87109 0C3.57422 0 0 3.57422 0 7.88086C0 12.1875 3.58398 15.7617 7.88086 15.7617ZM7.88086 14.2773C4.33594 14.2773 1.50391 11.4355 1.50391 7.88086C1.50391 4.32617 4.32617 1.48438 7.87109 1.48438C11.4258 1.48438 14.2773 4.32617 14.2773 7.88086C14.2773 11.4355 11.4355 14.2773 7.88086 14.2773Z" fill="var(--color-secondary)"/>
  <path d="M5.97656 11.1523L11.0352 11.1523C12.0801 11.1523 12.7734 10.4102 12.7734 9.49219C12.7734 8.69141 12.207 8.00781 11.4355 7.85156C11.3672 6.85547 10.5371 6.04492 9.52148 6.04492C8.85742 6.04492 8.28125 6.37695 7.93945 6.88477C7.76367 6.83594 7.60742 6.80664 7.43164 6.80664C6.64062 6.80664 5.98633 7.38281 5.86914 8.14453C5.05859 8.17383 4.41406 8.82812 4.41406 9.63867C4.41406 10.4785 5.03906 11.1523 5.97656 11.1523ZM2.73438 7.45117C2.73438 8.17383 3.17383 8.78906 3.92578 9.0332C4.14062 8.33984 4.70703 7.80273 5.41016 7.63672C5.72266 6.80664 6.50391 6.23047 7.43164 6.23047C7.51953 6.23047 7.62695 6.24023 7.71484 6.25C8.11523 5.81055 8.67188 5.53711 9.29688 5.47852C9.19922 5.12695 8.7793 4.76562 8.07617 4.76562C7.89062 4.76562 7.73438 4.79492 7.56836 4.85352C7.2168 4.3457 6.64062 4.01367 5.98633 4.01367C4.9707 4.01367 4.13086 4.81445 4.07227 5.81055C3.30078 5.97656 2.73438 6.65039 2.73438 7.45117Z" fill="var(--color-primary)"/>
 </g>
</svg>
