<?xml version="1.0" encoding="UTF-8"?>
<!--Generator: Apple Native CoreSVG 232.5-->
<!DOCTYPE svg
PUBLIC "-//W3C//DTD SVG 1.1//EN"
       "http://www.w3.org/Graphics/SVG/1.1/DTD/svg11.dtd">
<svg version="1.1" xmlns="http://www.w3.org/2000/svg" xmlns:xlink="http://www.w3.org/1999/xlink" width="16.1328" height="15.7715">
 <g>
  <rect height="15.7715" opacity="0" width="16.1328" x="0" y="0"/>
  <path d="M15.7715 7.89062C15.7715 12.1973 12.1875 15.7715 7.88086 15.7715C3.58398 15.7715 0 12.1973 0 7.89062C0 3.58398 3.57422 0.00976562 7.87109 0.00976562C12.1777 0.00976562 15.7715 3.58398 15.7715 7.89062ZM7.94922 6.86523C7.76367 6.81641 7.59766 6.78711 7.42188 6.78711C6.60156 6.78711 5.92773 7.38281 5.80078 8.17383C4.96094 8.19336 4.28711 8.88672 4.28711 9.72656C4.28711 10.6055 4.93164 11.3086 5.9082 11.3086L11.1621 11.3086C12.2461 11.3086 12.9688 10.5371 12.9688 9.57031C12.9688 8.73047 12.373 8.03711 11.5723 7.86133C11.5137 6.83594 10.6445 6.00586 9.58984 6.00586C8.90625 6.00586 8.30078 6.34766 7.94922 6.86523ZM3.92578 5.75195C3.13477 5.91797 2.53906 6.62109 2.53906 7.45117C2.53906 8.20312 2.99805 8.83789 3.7793 9.10156C4.00391 8.37891 4.58984 7.82227 5.32227 7.64648C5.64453 6.78711 6.45508 6.18164 7.42188 6.18164C7.50977 6.18164 7.62695 6.19141 7.71484 6.20117C8.125 5.76172 8.71094 5.46875 9.35547 5.41016C9.24805 5.03906 8.81836 4.6582 8.08594 4.6582C7.90039 4.6582 7.73438 4.70703 7.55859 4.76562C7.20703 4.22852 6.60156 3.87695 5.92773 3.87695C4.86328 3.87695 3.99414 4.72656 3.92578 5.75195Z" fill="#ffffff" fill-opacity="0.85"/>
 </g>
</svg>
