<svg version="1.1" xmlns="http://www.w3.org/2000/svg" xmlns:xlink="http://www.w3.org/1999/xlink" width="16.1328" height="15.7715" viewBox="0 0 16.1328 15.7715">
 <g>
  <rect height="15.7715" opacity="0" width="16.1328" x="0" y="0"/>
  <path d="M7.88086 15.7617C12.1875 15.7617 15.7715 12.1875 15.7715 7.88086C15.7715 3.57422 12.1777 0 7.87109 0C3.57422 0 0 3.57422 0 7.88086C0 12.1875 3.56445 15.7617 7.88086 15.7617ZM5.97656 14.3066C4.45312 13.8477 3.13477 12.8516 2.27539 11.543L4.72656 11.5137L5.83984 10.0781L5.05859 7.66602L2.99805 6.83594L1.16211 7.87109C1.17188 6.28906 1.72852 4.83398 2.66602 3.69141L3.34961 5.95703L5.33203 6.75781L7.39258 5.17578L7.39258 3.08594L5.55664 1.60156C6.2793 1.31836 7.07031 1.17188 7.87109 1.17188C8.68164 1.17188 9.47266 1.31836 10.1953 1.60156L8.35938 3.08594L8.35938 5.17578L10.4199 6.75781L12.4023 5.95703L13.0859 3.69141C14.0234 4.83398 14.5801 6.28906 14.5898 7.87109L12.7539 6.83594L10.6934 7.66602L9.91211 10.0781L11.0156 11.5137L13.4766 11.543C12.6074 12.8516 11.2988 13.8477 9.77539 14.3066L10.2832 12.0996L9.25781 10.791L6.48438 10.791L5.46875 12.0996Z" fill="currentColor"/>
 </g>
</svg>
