<svg version="1.1" xmlns="http://www.w3.org/2000/svg" xmlns:xlink="http://www.w3.org/1999/xlink" width="17.3828" height="17.041" viewBox="0 0 17.3828 17.041">
 <g>
  <rect height="17.041" opacity="0" width="17.3828" x="0" y="0"/>
  <path d="M4.90234 17.041C5.33203 17.041 5.625 16.8164 6.15234 16.3379L8.76953 13.9941L13.3594 13.9941C15.7617 13.9941 17.0215 12.6953 17.0215 10.332L17.0215 4.64844C17.0215 2.28516 15.7617 0.986328 13.3594 0.986328L3.66211 0.986328C1.25977 0.986328 0 2.28516 0 4.64844L0 10.332C0 12.6953 1.25977 13.9941 3.66211 13.9941L3.94531 13.9941L3.94531 15.9375C3.94531 16.6113 4.28711 17.041 4.90234 17.041ZM5.26367 15.4395L5.26367 13.2422C5.26367 12.7637 5.08789 12.5879 4.60938 12.5879L3.66211 12.5879C2.08984 12.5879 1.40625 11.8359 1.40625 10.332L1.40625 4.64844C1.40625 3.1543 2.08984 2.40234 3.66211 2.40234L13.3594 2.40234C14.9316 2.40234 15.6152 3.1543 15.6152 4.64844L15.6152 10.332C15.6152 11.8359 14.9316 12.5879 13.3594 12.5879L8.69141 12.5879C8.22266 12.5879 7.97852 12.6562 7.66602 12.9883Z" fill="var(--color-secondary)"/>
  <path d="M11.2695 10.2148C11.4844 10.3516 11.748 10.3027 11.875 10.1074C12.3828 9.35547 12.6758 8.41797 12.6758 7.49023C12.6758 6.5332 12.4023 5.58594 11.875 4.87305C11.7285 4.66797 11.4746 4.60938 11.2695 4.75586C11.0645 4.90234 11.0254 5.16602 11.1816 5.39062C11.5723 5.91797 11.7969 6.68945 11.7969 7.49023C11.7969 8.25195 11.5723 9.04297 11.1816 9.58984C11.0254 9.81445 11.0547 10.0879 11.2695 10.2148Z" fill="var(--color-primary)"/>
  <path d="M9.96094 9.21875C10.1465 9.36523 10.4102 9.30664 10.5664 9.10156C10.8691 8.71094 11.0449 8.11523 11.0449 7.49023C11.0449 6.88477 10.8594 6.28906 10.5664 5.87891C10.4199 5.67383 10.1465 5.625 9.96094 5.76172C9.74609 5.92773 9.70703 6.19141 9.86328 6.41602C10.0488 6.66016 10.166 7.07031 10.166 7.49023C10.166 7.89062 10.0488 8.30078 9.86328 8.56445C9.70703 8.79883 9.74609 9.05273 9.96094 9.21875Z" fill="var(--color-primary)"/>
  <path d="M8.24219 10.9375C8.51562 10.9375 8.7207 10.7422 8.7207 10.4688L8.7207 4.55078C8.7207 4.26758 8.51562 4.05273 8.23242 4.05273C8.03711 4.05273 7.91016 4.14062 7.68555 4.3457L6.06445 5.85938C6.04492 5.87891 6.01562 5.87891 5.98633 5.87891L4.90234 5.87891C4.33594 5.87891 4.04297 6.17188 4.04297 6.78711L4.04297 8.21289C4.04297 8.80859 4.33594 9.10156 4.90234 9.10156L5.98633 9.10156C6.01562 9.10156 6.04492 9.11133 6.06445 9.13086L7.68555 10.6738C7.88086 10.8594 8.04688 10.9375 8.24219 10.9375Z" fill="var(--color-primary)"/>
 </g>
</svg>
