<svg version="1.1" xmlns="http://www.w3.org/2000/svg" xmlns:xlink="http://www.w3.org/1999/xlink" width="14.5898" height="14.248" viewBox="0 0 14.5898 14.248">
 <g>
  <rect height="14.248" opacity="0" width="14.5898" x="0" y="0"/>
  <path d="M2.49023 14.248L11.7383 14.248C13.4082 14.248 14.2285 13.4277 14.2285 11.7871L14.2285 2.4707C14.2285 0.830078 13.4082 0.00976562 11.7383 0.00976562L2.49023 0.00976562C0.830078 0.00976562 0 0.830078 0 2.4707L0 11.7871C0 13.4277 0.830078 14.248 2.49023 14.248ZM2.50977 12.832C1.80664 12.832 1.40625 12.4609 1.40625 11.7188L1.40625 2.53906C1.40625 1.80664 1.80664 1.42578 2.50977 1.42578L11.7188 1.42578C12.4219 1.42578 12.8223 1.80664 12.8223 2.53906L12.8223 11.7188C12.8223 12.4609 12.4219 12.832 11.7188 12.832Z" fill="currentColor"/>
  <path d="M8.49609 10.791C8.7793 10.791 8.99414 10.5859 8.99414 10.293L8.99414 3.99414C8.99414 3.70117 8.7793 3.4668 8.48633 3.4668C8.26172 3.4668 8.125 3.55469 7.88086 3.7793L6.18164 5.38086C6.15234 5.40039 6.10352 5.41016 6.07422 5.41016L4.93164 5.41016C4.32617 5.41016 4.02344 5.72266 4.02344 6.36719L4.02344 7.89062C4.02344 8.53516 4.32617 8.84766 4.93164 8.84766L6.07422 8.84766C6.10352 8.84766 6.15234 8.85742 6.18164 8.87695L7.88086 10.5078C8.10547 10.7129 8.27148 10.791 8.49609 10.791Z" fill="currentColor"/>
 </g>
</svg>
