<?xml version="1.0" encoding="UTF-8"?>
<!--Generator: Apple Native CoreSVG 232.5-->
<!DOCTYPE svg
PUBLIC "-//W3C//DTD SVG 1.1//EN"
       "http://www.w3.org/Graphics/SVG/1.1/DTD/svg11.dtd">
<svg version="1.1" xmlns="http://www.w3.org/2000/svg" xmlns:xlink="http://www.w3.org/1999/xlink" width="15.9375" height="13.3887">
 <g>
  <rect height="13.3887" opacity="0" width="15.9375" x="0" y="0"/>
  <path d="M7.69531 1.30859L14.9023 1.30859C15.2734 1.30859 15.5762 1.02539 15.5762 0.654297C15.5762 0.283203 15.2734 0 14.9023 0L7.69531 0C7.32422 0 7.03125 0.283203 7.03125 0.654297C7.03125 1.02539 7.32422 1.30859 7.69531 1.30859ZM7.69531 5.32227L14.9023 5.32227C15.2734 5.32227 15.5762 5.0293 15.5762 4.6582C15.5762 4.29688 15.2734 4.00391 14.9023 4.00391L7.69531 4.00391C7.32422 4.00391 7.03125 4.29688 7.03125 4.6582C7.03125 5.0293 7.32422 5.32227 7.69531 5.32227ZM7.69531 9.32617L14.9023 9.32617C15.2734 9.32617 15.5762 9.0332 15.5762 8.66211C15.5762 8.30078 15.2734 8.00781 14.9023 8.00781L7.69531 8.00781C7.32422 8.00781 7.03125 8.30078 7.03125 8.66211C7.03125 9.0332 7.32422 9.32617 7.69531 9.32617ZM7.69531 13.3301L14.9023 13.3301C15.2734 13.3301 15.5762 13.0371 15.5762 12.666C15.5762 12.3047 15.2734 12.0117 14.9023 12.0117L7.69531 12.0117C7.32422 12.0117 7.03125 12.3047 7.03125 12.666C7.03125 13.0371 7.32422 13.3301 7.69531 13.3301Z" fill="#ffffff" fill-opacity="0.55"/>
  <path d="M1.43555 5.32227L3.87695 5.32227C4.78516 5.32227 5.32227 4.79492 5.32227 3.91602L5.32227 1.39648C5.32227 0.517578 4.78516 0 3.87695 0L1.43555 0C0.537109 0 0 0.517578 0 1.39648L0 3.91602C0 4.79492 0.537109 5.32227 1.43555 5.32227ZM1.43555 13.3301L3.87695 13.3301C4.78516 13.3301 5.32227 12.8027 5.32227 11.9238L5.32227 9.4043C5.32227 8.53516 4.78516 8.00781 3.87695 8.00781L1.43555 8.00781C0.537109 8.00781 0 8.53516 0 9.4043L0 11.9238C0 12.8027 0.537109 13.3301 1.43555 13.3301Z" fill="#ffffff" fill-opacity="0.85"/>
 </g>
</svg>
