<svg version="1.1" xmlns="http://www.w3.org/2000/svg" xmlns:xlink="http://www.w3.org/1999/xlink" width="18.3301" height="18.9893" viewBox="0 0 18.3301 18.9893">
 <g>
  <rect height="18.9893" opacity="0" width="18.3301" x="0" y="0"/>
  <path d="M4.49261 12.4461L2.99805 13.2983C2.97852 13.3081 2.96875 13.3179 2.96875 13.3472C2.96875 13.3667 2.97852 13.3862 2.99805 13.396L8.70117 16.6479C8.83789 16.7261 8.95508 16.7651 9.07227 16.7651C9.17969 16.7651 9.29688 16.7261 9.43359 16.6479L12.5646 14.8626L13.6288 15.9247L10.1465 17.9565C9.73633 18.1909 9.4043 18.2983 9.07227 18.2983C8.73047 18.2983 8.39844 18.1909 7.98828 17.9565L2.08008 14.5093C1.38672 14.1089 1.13281 13.8062 1.13281 13.3472C1.13281 12.8882 1.38672 12.5854 2.08008 12.1753L3.05359 11.6089ZM16.0547 12.1753C16.748 12.5854 17.0117 12.8882 17.0117 13.3472C17.0117 13.6835 16.8701 13.936 16.5206 14.2045L14.3494 12.0347L15.0812 11.6089Z" fill="var(--color-secondary)"/>
  <path d="M4.72148 8.83906L2.99805 9.82178C2.97852 9.84131 2.96875 9.85107 2.96875 9.87061C2.96875 9.8999 2.97852 9.90967 2.99805 9.91943L8.70117 13.1812C8.83789 13.2495 8.95508 13.2886 9.07227 13.2886C9.17969 13.2886 9.29688 13.2495 9.43359 13.1812L10.353 12.6554L11.4319 13.7321L10.1465 14.48C9.73633 14.7144 9.4043 14.8218 9.07227 14.8218C8.73047 14.8218 8.39844 14.7144 7.98828 14.48L2.08008 11.0425C1.38672 10.6323 1.13281 10.3296 1.13281 9.87061C1.13281 9.41162 1.38672 9.10889 2.08008 8.7085L3.28857 8.00537ZM16.0547 8.7085C16.748 9.10889 17.0117 9.41162 17.0117 9.87061C17.0117 10.3296 16.748 10.6323 16.0547 11.0425L14.3494 12.0347L13.2897 10.9757L15.1367 9.91943C15.1562 9.90967 15.166 9.8999 15.166 9.87061C15.166 9.85107 15.1562 9.84131 15.1367 9.82178L13.4133 8.83906L14.8462 8.00537Z" fill="var(--color-secondary)"/>
  <path d="M3.48692 5.80278L2.99805 6.08154C2.97852 6.10107 2.96875 6.11084 2.96875 6.13037C2.96875 6.15967 2.97852 6.16943 2.99805 6.1792L5.02642 7.33926L8.74027 11.0458C8.50736 10.9987 8.26569 10.8983 7.98828 10.7397L2.08008 7.30225C1.38672 6.89209 1.13281 6.58936 1.13281 6.13037C1.13281 5.68115 1.38672 5.36865 2.08008 4.96826L2.4406 4.75851ZM10.1465 1.53076L16.0547 4.96826C16.748 5.36865 17.0117 5.68115 17.0117 6.13037C17.0117 6.58936 16.748 6.89209 16.0547 7.30225L11.9839 9.67072L10.9094 8.59691L15.1367 6.1792C15.1562 6.16943 15.166 6.15967 15.166 6.13037C15.166 6.11084 15.1562 6.10107 15.1367 6.08154L9.43359 2.82959C9.29688 2.75146 9.17969 2.7124 9.07227 2.7124C8.95508 2.7124 8.83789 2.75146 8.70117 2.82959L6.43264 4.12312L5.36554 3.05672L7.98828 1.53076C8.39844 1.28662 8.73047 1.18896 9.07227 1.18896C9.4043 1.18896 9.73633 1.28662 10.1465 1.53076Z" fill="var(--color-secondary)"/>
  <path d="M16.084 17.0288C16.3477 17.2925 16.7773 17.2925 17.0312 17.0288C17.2852 16.7651 17.2949 16.3452 17.0312 16.0815L2.10938 1.15967C1.8457 0.895996 1.41602 0.895996 1.14258 1.15967C0.888672 1.41357 0.888672 1.85303 1.14258 2.10693Z" fill="var(--color-primary)"/>
 </g>
</svg>
