<?xml version="1.0" encoding="UTF-8"?>
<!--Generator: Apple Native CoreSVG 232.5-->
<!DOCTYPE svg
PUBLIC "-//W3C//DTD SVG 1.1//EN"
       "http://www.w3.org/Graphics/SVG/1.1/DTD/svg11.dtd">
<svg version="1.1" xmlns="http://www.w3.org/2000/svg" xmlns:xlink="http://www.w3.org/1999/xlink" width="14.5898" height="14.248">
 <g>
  <rect height="14.248" opacity="0" width="14.5898" x="0" y="0"/>
  <path d="M5.68359 13.4961L5.68359 0.761719L4.26758 0.761719L4.26758 13.4961ZM9.96094 13.4961L9.96094 0.761719L8.55469 0.761719L8.55469 13.4961ZM0.751953 5.69336L13.4766 5.69336L13.4766 4.28711L0.751953 4.28711ZM0.751953 9.9707L13.4766 9.9707L13.4766 8.56445L0.751953 8.56445ZM0 13.5645C0 13.9648 0.263672 14.2383 0.664062 14.2383L13.5645 14.2383C13.9648 14.2383 14.2285 13.9648 14.2285 13.5645L14.2285 0.673828C14.2285 0.273438 13.9648 0 13.5645 0L0.664062 0C0.263672 0 0 0.273438 0 0.673828ZM1.40625 12.5879L1.40625 1.65039C1.40625 1.47461 1.46484 1.41602 1.65039 1.41602L12.5879 1.41602C12.7637 1.41602 12.8223 1.47461 12.8223 1.65039L12.8223 12.5879C12.8223 12.7637 12.7637 12.8223 12.5879 12.8223L1.65039 12.8223C1.46484 12.8223 1.40625 12.7637 1.40625 12.5879Z" fill="#ffffff" fill-opacity="0.85"/>
 </g>
</svg>
