<svg version="1.1" xmlns="http://www.w3.org/2000/svg" xmlns:xlink="http://www.w3.org/1999/xlink" width="16.8555" height="16.5137" viewBox="0 0 16.8555 16.5137">
 <g>
  <rect height="16.5137" opacity="0" width="16.8555" x="0" y="0"/>
  <path d="M12.7832 14.6484C12.7832 14.9015 12.8328 15.1423 12.9234 15.3613L3.57209 15.3613C3.66192 15.1423 3.71094 14.9015 3.71094 14.6484C3.71094 14.3994 3.66254 14.1618 3.57362 13.9453L12.9218 13.9453C12.8322 14.1618 12.7832 14.3994 12.7832 14.6484ZM1.85547 3.73047C2.10537 3.73047 2.34274 3.68209 2.55859 3.59332L2.55859 12.9301C2.34274 12.8413 2.10537 12.793 1.85547 12.793C1.6064 12.793 1.36886 12.8419 1.15234 12.9316L1.15234 3.59183C1.36886 3.6815 1.6064 3.73047 1.85547 3.73047ZM15.3418 12.9316C15.1253 12.8419 14.8877 12.793 14.6387 12.793C14.3896 12.793 14.1521 12.8419 13.9355 12.9316L13.9355 3.59183C14.1521 3.6815 14.3896 3.73047 14.6387 3.73047C14.8877 3.73047 15.1253 3.6815 15.3418 3.59183ZM12.7832 1.875C12.7832 2.12406 12.8322 2.3616 12.9218 2.57813L3.57362 2.57813C3.66254 2.3616 3.71094 2.12406 3.71094 1.875C3.71094 1.62196 3.66192 1.38118 3.57209 1.16211L12.9234 1.16211C12.8328 1.38118 12.7832 1.62196 12.7832 1.875Z" fill="var(--color-secondary)"/>
  <path d="M16.4941 14.6484C16.4941 15.6836 15.6641 16.5137 14.6387 16.5137C13.6133 16.5137 12.7832 15.6836 12.7832 14.6484C12.7832 13.623 13.6133 12.793 14.6387 12.793C15.6641 12.793 16.4941 13.623 16.4941 14.6484ZM3.71094 14.6484C3.71094 15.6836 2.89062 16.5137 1.85547 16.5137C0.830078 16.5137 0 15.6836 0 14.6484C0 13.623 0.830078 12.793 1.85547 12.793C2.89062 12.793 3.71094 13.623 3.71094 14.6484ZM3.71094 1.875C3.71094 2.90039 2.89062 3.73047 1.85547 3.73047C0.830078 3.73047 0 2.90039 0 1.875C0 0.839844 0.830078 0.00976562 1.85547 0.00976562C2.89062 0.00976562 3.71094 0.839844 3.71094 1.875ZM16.4941 1.875C16.4941 2.90039 15.6641 3.73047 14.6387 3.73047C13.6133 3.73047 12.7832 2.90039 12.7832 1.875C12.7832 0.839844 13.6133 0.00976562 14.6387 0.00976562C15.6641 0.00976562 16.4941 0.839844 16.4941 1.875Z" fill="var(--color-primary)"/>
  <path d="M10.7129 5L10.7129 5.88867L9.58008 5.88867L9.58008 5.37109C9.58008 5.25391 9.51172 5.19531 9.39453 5.19531L5.33203 5.19531C5.21484 5.19531 5.14648 5.25391 5.14648 5.37109L5.14648 9.32617C5.14648 9.44336 5.21484 9.51172 5.33203 9.51172L5.83008 9.51172L5.83008 10.6445L4.9707 10.6445C4.375 10.6445 4.02344 10.293 4.02344 9.6875L4.02344 5C4.02344 4.41406 4.375 4.0625 4.9707 4.0625L9.75586 4.0625C10.3613 4.0625 10.7129 4.41406 10.7129 5Z" fill="var(--color-primary)"/>
  <path d="M6.78711 12.4609L11.5723 12.4609C12.1777 12.4609 12.5195 12.1094 12.5195 11.5137L12.5195 6.82617C12.5195 6.24023 12.168 5.88867 11.5723 5.88867L6.78711 5.88867C6.18164 5.88867 5.83008 6.24023 5.83008 6.82617L5.83008 11.5137C5.83008 12.1094 6.18164 12.4609 6.78711 12.4609ZM7.14844 11.3281C7.03125 11.3281 6.96289 11.2695 6.96289 11.1523L6.96289 7.19727C6.96289 7.08008 7.03125 7.01172 7.14844 7.01172L11.2109 7.01172C11.3281 7.01172 11.3965 7.08008 11.3965 7.19727L11.3965 11.1523C11.3965 11.2695 11.3281 11.3281 11.2109 11.3281Z" fill="var(--color-primary)"/>
 </g>
</svg>
