<svg version="1.1" xmlns="http://www.w3.org/2000/svg" xmlns:xlink="http://www.w3.org/1999/xlink" width="16.1328" height="15.7715" viewBox="0 0 16.1328 15.7715">
 <g>
  <rect height="15.7715" opacity="0" width="16.1328" x="0" y="0"/>
  <path d="M7.88086 15.7715C12.1875 15.7715 15.7715 12.1973 15.7715 7.89062C15.7715 3.58398 12.1777 0.00976562 7.87109 0.00976562C3.57422 0.00976562 0 3.58398 0 7.89062C0 12.1973 3.58398 15.7715 7.88086 15.7715Z" fill="var(--color-tertiary)"/>
  <path d="M4.14062 5.77148L4.16992 5.71289C4.42383 5.20508 4.6875 5.13672 5.20508 5.42969L7.08984 6.5332L7.08984 4.33594C7.08984 3.7793 7.28516 3.59375 7.87109 3.59375L7.91992 3.59375C8.49609 3.59375 8.69141 3.7793 8.69141 4.33594L8.69141 6.5332L10.5762 5.42969C11.0938 5.11719 11.3574 5.19531 11.6113 5.71289L11.6406 5.77148C11.8945 6.28906 11.8359 6.54297 11.3574 6.79688L9.38477 7.86133L11.3672 9.00391C11.8262 9.26758 11.875 9.52148 11.6309 10.0293L11.6113 10.0684C11.3477 10.5859 11.0938 10.6543 10.5957 10.3613L8.69141 9.25781L8.69141 11.4551C8.69141 12.0117 8.49609 12.207 7.91992 12.207L7.87109 12.207C7.28516 12.207 7.08984 12.0117 7.08984 11.4551L7.08984 9.25781L5.18555 10.3613C4.7168 10.6348 4.45312 10.5762 4.16992 10.0684L4.15039 10.0293C3.87695 9.53125 3.93555 9.28711 4.41406 9.00391L6.39648 7.86133L4.42383 6.79688C3.94531 6.54297 3.88672 6.28906 4.14062 5.77148Z" fill="var(--color-primary)"/>
 </g>
</svg>
