<?xml version="1.0" encoding="UTF-8"?>
<!--Generator: Apple Native CoreSVG 232.5-->
<!DOCTYPE svg
PUBLIC "-//W3C//DTD SVG 1.1//EN"
       "http://www.w3.org/Graphics/SVG/1.1/DTD/svg11.dtd">
<svg version="1.1" xmlns="http://www.w3.org/2000/svg" xmlns:xlink="http://www.w3.org/1999/xlink" width="21.3281" height="17.1777">
 <g>
  <rect height="17.1777" opacity="0" width="21.3281" x="0" y="0"/>
  <path d="M3.01758 1.5918C3.01758 1.85609 3.10129 2.10194 3.24372 2.30469L3.01758 2.30469C2.29492 2.30469 1.92383 2.72461 1.92383 3.52539C1.92383 5.82031 4.08203 9.99023 6.25977 9.99023C8.4375 9.99023 10.5957 5.82031 10.5957 3.52539C10.5957 2.72461 10.2246 2.30469 9.50195 2.30469L9.25946 2.30469C9.40012 2.10194 9.48242 1.85609 9.48242 1.5918C9.48242 1.33593 9.40529 1.09736 9.27269 0.898438L9.47266 0.898438C11.1328 0.898438 12.002 1.80664 12.002 3.54492C12.002 6.46984 9.50538 10.8238 6.95328 11.3437C7.05196 14.1487 7.96292 15.7715 9.47266 15.7715C11.1719 15.7715 11.8945 14.1895 12.4609 11.2207C13.125 7.71484 14.1992 6.43555 16.1133 6.43555C18.1892 6.43555 19.1755 8.05684 19.4831 11.2604C19.2958 11.2094 19.099 11.1831 18.8965 11.1816C18.6162 11.1796 18.3472 11.2255 18.0978 11.3136C17.9424 8.98813 17.3335 7.8418 16.1133 7.8418C15.0488 7.8418 14.375 8.65234 13.8477 11.5137C13.1641 15.2344 11.8945 17.1777 9.57031 17.1777C7.10598 17.1777 5.66775 15.0363 5.54909 11.3378C3.00522 10.7933 0.517578 6.45958 0.517578 3.54492C0.517578 1.80664 1.38672 0.898438 3.04688 0.898438L3.23032 0.898438C3.09604 1.09736 3.01758 1.33593 3.01758 1.5918Z" fill="#ffffff" fill-opacity="0.85"/>
  <path d="M4.28711 2.85156C4.98047 2.85156 5.54688 2.28516 5.54688 1.5918C5.54688 0.898438 4.98047 0.332031 4.28711 0.332031C3.59375 0.332031 3.01758 0.898438 3.01758 1.5918C3.01758 2.28516 3.59375 2.85156 4.28711 2.85156ZM8.22266 2.85156C8.91602 2.85156 9.48242 2.28516 9.48242 1.5918C9.48242 0.898438 8.91602 0.332031 8.22266 0.332031C7.5293 0.332031 6.95312 0.898438 6.95312 1.5918C6.95312 2.28516 7.5293 2.85156 8.22266 2.85156ZM18.8965 16.0742C20.2344 16.0742 21.3281 14.9805 21.3281 13.623C21.3281 12.2852 20.2344 11.1914 18.8965 11.1816C17.5391 11.1719 16.4453 12.2852 16.4453 13.623C16.4453 14.9805 17.5391 16.0742 18.8965 16.0742ZM18.8965 14.8535C18.2129 14.8535 17.666 14.2969 17.666 13.623C17.666 12.9395 18.2129 12.4023 18.8965 12.4023C19.5703 12.4023 20.1172 12.9395 20.1172 13.623C20.1172 14.2969 19.5703 14.8535 18.8965 14.8535Z" fill="#ffffff" fill-opacity="0.85"/>
 </g>
</svg>
