<svg version="1.1" xmlns="http://www.w3.org/2000/svg" xmlns:xlink="http://www.w3.org/1999/xlink" width="16.1328" height="15.7715" viewBox="0 0 16.1328 15.7715">
 <g>
  <rect height="15.7715" opacity="0" width="16.1328" x="0" y="0"/>
  <path d="M7.88086 15.7617C12.1875 15.7617 15.7715 12.1875 15.7715 7.88086C15.7715 3.57422 12.1777 0 7.87109 0C3.57422 0 0 3.57422 0 7.88086C0 12.1875 3.58398 15.7617 7.88086 15.7617Z" fill="var(--color-tertiary)"/>
  <path d="M5.81055 10.7812C5.29297 10.7812 4.98047 10.4785 4.98047 9.9707L4.98047 5.79102C4.98047 5.2832 5.29297 4.98047 5.81055 4.98047L9.96094 4.98047C10.4785 4.98047 10.7812 5.2832 10.7812 5.79102L10.7812 9.9707C10.7812 10.4785 10.4785 10.7812 9.96094 10.7812Z" fill="var(--color-primary)"/>
 </g>
</svg>
