<svg version="1.1" xmlns="http://www.w3.org/2000/svg" xmlns:xlink="http://www.w3.org/1999/xlink" width="16.1328" height="15.7715" viewBox="0 0 16.1328 15.7715">
 <g>
  <rect height="15.7715" opacity="0" width="16.1328" x="0" y="0"/>
  <path d="M7.88086 15.7617C12.1875 15.7617 15.7715 12.1875 15.7715 7.88086C15.7715 3.57422 12.1777 0 7.87109 0C3.57422 0 0 3.57422 0 7.88086C0 12.1875 3.58398 15.7617 7.88086 15.7617ZM7.88086 14.2773C4.33594 14.2773 1.50391 11.4355 1.50391 7.88086C1.50391 4.32617 4.32617 1.48438 7.87109 1.48438C11.4258 1.48438 14.2773 4.32617 14.2773 7.88086C14.2773 11.4355 11.4355 14.2773 7.88086 14.2773Z" fill="var(--color-secondary)"/>
  <path d="M7.87109 10.2344C9.16016 10.2344 10.2148 9.16016 10.2148 7.88086C10.2148 6.5918 9.16016 5.52734 7.87109 5.52734C6.5918 5.52734 5.52734 6.5918 5.52734 7.88086C5.52734 9.16016 6.5918 10.2344 7.87109 10.2344ZM7.87109 3.05664C7.58789 3.05664 7.34375 3.30078 7.34375 3.58398L7.34375 4.47266C7.34375 4.75586 7.58789 5 7.87109 5C8.1543 5 8.4082 4.75586 8.4082 4.47266L8.4082 3.58398C8.4082 3.30078 8.1543 3.05664 7.87109 3.05664ZM11.2891 4.47266C11.0742 4.25781 10.7324 4.26758 10.5371 4.47266L9.91211 5.10742C9.70703 5.32227 9.70703 5.6543 9.91211 5.84961C10.1074 6.05469 10.4492 6.05469 10.6543 5.84961L11.2891 5.21484C11.4844 5.01953 11.4844 4.67773 11.2891 4.47266ZM12.6758 7.88086C12.6758 7.58789 12.4414 7.35352 12.1582 7.35352L11.2793 7.35352C10.9961 7.35352 10.752 7.59766 10.752 7.88086C10.752 8.16406 10.9961 8.4082 11.2793 8.4082L12.1582 8.4082C12.4414 8.4082 12.6758 8.17383 12.6758 7.88086ZM11.2891 11.2891C11.4941 11.0742 11.4844 10.7324 11.2891 10.5469L10.6445 9.91211C10.4492 9.7168 10.1074 9.7168 9.91211 9.91211C9.69727 10.1172 9.70703 10.4492 9.91211 10.6543L10.5371 11.2891C10.7422 11.4941 11.0742 11.4941 11.2891 11.2891ZM7.87109 12.7051C8.1543 12.7051 8.4082 12.4512 8.4082 12.168L8.4082 11.2891C8.4082 11.0059 8.1543 10.7617 7.87109 10.7617C7.58789 10.7617 7.34375 11.0059 7.34375 11.2891L7.34375 12.168C7.34375 12.4512 7.58789 12.7051 7.87109 12.7051ZM4.46289 11.2793C4.66797 11.4941 5.00977 11.4941 5.20508 11.2891L5.83984 10.6641C6.03516 10.459 6.03516 10.127 5.83984 9.91211C5.64453 9.7168 5.29297 9.7168 5.09766 9.91211L4.46289 10.5469C4.26758 10.7422 4.26758 11.0742 4.46289 11.2793ZM3.07617 7.88086C3.07617 8.17383 3.31055 8.4082 3.59375 8.4082L4.47266 8.4082C4.75586 8.4082 5 8.16406 5 7.88086C5 7.59766 4.75586 7.35352 4.47266 7.35352L3.59375 7.35352C3.31055 7.35352 3.07617 7.58789 3.07617 7.88086ZM4.47266 4.47266C4.27734 4.67773 4.26758 5.01953 4.46289 5.21484L5.09766 5.84961C5.30273 6.05469 5.63477 6.05469 5.83984 5.84961C6.03516 5.64453 6.03516 5.3125 5.83984 5.10742L5.20508 4.47266C5.01953 4.27734 4.67773 4.26758 4.47266 4.47266Z" fill="var(--color-primary)"/>
 </g>
</svg>
