<?xml version="1.0" encoding="UTF-8"?>
<!--Generator: Apple Native CoreSVG 232.5-->
<!DOCTYPE svg
PUBLIC "-//W3C//DTD SVG 1.1//EN"
       "http://www.w3.org/Graphics/SVG/1.1/DTD/svg11.dtd">
<svg version="1.1" xmlns="http://www.w3.org/2000/svg" xmlns:xlink="http://www.w3.org/1999/xlink" width="16.1328" height="15.7715">
 <g>
  <rect height="15.7715" opacity="0" width="16.1328" x="0" y="0"/>
  <path d="M7.88086 15.7617C12.1875 15.7617 15.7715 12.1875 15.7715 7.88086C15.7715 3.57422 12.1777 0 7.87109 0C3.57422 0 0 3.57422 0 7.88086C0 12.1875 3.58398 15.7617 7.88086 15.7617ZM7.88086 14.2773C4.33594 14.2773 1.50391 11.4355 1.50391 7.88086C1.50391 4.32617 4.32617 1.48438 7.87109 1.48438C11.4258 1.48438 14.2773 4.32617 14.2773 7.88086C14.2773 11.4355 11.4355 14.2773 7.88086 14.2773Z" fill="#ffffff" fill-opacity="0.55"/>
  <path d="M10.1562 7.40234C10.1562 6.15234 9.12109 5.10742 7.87109 5.10742C6.63086 5.10742 5.5957 6.15234 5.5957 7.40234C5.5957 7.60742 5.63477 7.82227 5.69336 8.02734L10.0586 8.02734C10.1172 7.82227 10.1562 7.60742 10.1562 7.40234ZM3.70117 7.77344L4.56055 7.77344C4.85352 7.77344 5.08789 7.56836 5.08789 7.30469C5.08789 7.04102 4.85352 6.82617 4.56055 6.82617L3.70117 6.82617C3.4082 6.82617 3.19336 7.05078 3.19336 7.30469C3.19336 7.55859 3.4082 7.77344 3.70117 7.77344ZM5.20508 5.39062C5.41016 5.5957 5.71289 5.61523 5.9082 5.42969C6.09375 5.24414 6.08398 4.94141 5.87891 4.72656L5.25391 4.11133C5.03906 3.88672 4.74609 3.90625 4.55078 4.08203C4.375 4.27734 4.375 4.56055 4.58984 4.77539ZM8.34961 3.85742L8.34961 2.99805C8.34961 2.70508 8.13477 2.49023 7.87109 2.49023C7.61719 2.49023 7.40234 2.70508 7.40234 2.99805L7.40234 3.85742C7.40234 4.15039 7.60742 4.38477 7.87109 4.38477C8.14453 4.38477 8.34961 4.15039 8.34961 3.85742ZM9.85352 5.42969C10.0488 5.60547 10.3418 5.60547 10.5566 5.39062L11.1621 4.77539C11.3672 4.56055 11.377 4.27734 11.2012 4.08203C11.0059 3.89648 10.7031 3.89648 10.498 4.11133L9.87305 4.72656C9.6582 4.95117 9.66797 5.24414 9.85352 5.42969ZM11.1914 7.77344L12.0508 7.77344C12.3438 7.77344 12.5586 7.55859 12.5586 7.30469C12.5586 7.05078 12.3438 6.82617 12.0508 6.82617L11.1914 6.82617C10.8984 6.82617 10.6641 7.04102 10.6641 7.30469C10.6641 7.56836 10.8984 7.77344 11.1914 7.77344ZM3.69141 9.54102L12.0605 9.54102C12.3145 9.54102 12.5586 9.32617 12.5586 9.0625C12.5586 8.79883 12.3242 8.60352 12.0605 8.60352L3.69141 8.60352C3.42773 8.60352 3.19336 8.79883 3.19336 9.0625C3.19336 9.32617 3.4375 9.54102 3.69141 9.54102ZM5.3418 11.6602L5.84961 10.7812C5.95703 10.6055 5.89844 10.3613 5.70312 10.2637C5.52734 10.1562 5.29297 10.2246 5.19531 10.4004L4.67773 11.2793C4.58008 11.4648 4.63867 11.6992 4.82422 11.8066C5.00977 11.9043 5.23438 11.8457 5.3418 11.6602ZM6.44531 12.8418L7.63672 10.7812C7.74414 10.5957 7.68555 10.3613 7.49023 10.2637C7.31445 10.1562 7.08984 10.2148 6.98242 10.4004L5.79102 12.4609C5.68359 12.6465 5.74219 12.8809 5.92773 12.9883C6.11328 13.0859 6.33789 13.0273 6.44531 12.8418ZM8.90625 11.6602L9.41406 10.7812C9.52148 10.6055 9.46289 10.3613 9.27734 10.2637C9.0918 10.1562 8.86719 10.2246 8.75977 10.4004L8.25195 11.2793C8.14453 11.4648 8.20312 11.6992 8.39844 11.8066C8.57422 11.9043 8.79883 11.8457 8.90625 11.6602ZM10.0098 12.8418L11.2012 10.7812C11.3086 10.5957 11.25 10.3613 11.0645 10.2637C10.8789 10.1562 10.6543 10.2148 10.5469 10.4004L9.35547 12.4609C9.24805 12.6465 9.30664 12.8809 9.50195 12.9883C9.67773 13.0859 9.91211 13.0273 10.0098 12.8418Z" fill="#ffffff" fill-opacity="0.85"/>
 </g>
</svg>
