<svg version="1.1" xmlns="http://www.w3.org/2000/svg" xmlns:xlink="http://www.w3.org/1999/xlink" width="18.0176" height="18.4473" viewBox="0 0 18.0176 18.4473">
 <g>
  <rect height="18.4473" opacity="0" width="18.0176" x="0" y="0"/>
  <path d="M13.0566 8.82812C13.0566 9.70259 12.7932 10.5168 12.3256 11.1914L10.3593 11.1914C11.1324 10.6916 11.6504 9.81233 11.6504 8.82812C11.6504 7.28516 10.3711 6.00586 8.82812 6.00586C7.28516 6.00586 6.00586 7.28516 6.00586 8.82812C6.00586 9.81233 6.52381 10.6916 7.29691 11.1914L5.33069 11.1914C4.86303 10.5168 4.59961 9.70259 4.59961 8.82812C4.59961 6.51367 6.52344 4.58984 8.82812 4.58984C11.1328 4.58984 13.0566 6.51367 13.0566 8.82812ZM3.25195 8.63281C3.26172 9.0332 2.91016 9.3457 2.46094 9.3457L0.791016 9.3457C0.332031 9.3457 0 9.0332 0 8.63281C0 8.24219 0.332031 7.91992 0.791016 7.91992L2.46094 7.91992C2.91016 7.91992 3.24219 8.24219 3.25195 8.63281ZM17.6562 8.63281C17.6562 9.0332 17.3242 9.3457 16.8652 9.3457L15.1953 9.3457C14.7461 9.3457 14.4141 9.0332 14.4043 8.63281C14.3945 8.24219 14.7461 7.91992 15.1953 7.91992L16.8652 7.91992C17.3242 7.91992 17.6562 8.24219 17.6562 8.63281ZM3.64258 2.63672L4.82422 3.81836C5.15625 4.14062 5.15625 4.60938 4.88281 4.88281C4.60938 5.16602 4.14062 5.15625 3.81836 4.83398L2.63672 3.65234C2.30469 3.32031 2.30469 2.86133 2.58789 2.58789C2.87109 2.32422 3.32031 2.30469 3.64258 2.63672ZM15.0684 2.58789C15.3418 2.87109 15.3516 3.32031 15.0195 3.65234L13.8379 4.83398C13.5156 5.15625 13.0566 5.15625 12.7734 4.88281C12.4902 4.61914 12.5 4.14062 12.832 3.81836L14.0137 2.63672C14.3359 2.30469 14.7949 2.31445 15.0684 2.58789ZM9.54102 0.791016L9.54102 2.46094C9.54102 2.91992 9.21875 3.24219 8.82812 3.25195C8.4375 3.26172 8.11523 2.91992 8.11523 2.46094L8.11523 0.791016C8.11523 0.332031 8.4375 0 8.82812 0C9.21875 0 9.54102 0.332031 9.54102 0.791016Z" fill="var(--color-secondary)"/>
  <path d="M1.09375 12.2852L16.5234 12.2852C16.8262 12.2852 17.0605 12.0508 17.0605 11.7383C17.0605 11.4355 16.8262 11.1914 16.5234 11.1914L1.09375 11.1914C0.791016 11.1914 0.556641 11.4355 0.556641 11.7383C0.556641 12.0508 0.791016 12.2852 1.09375 12.2852ZM1.72852 14.7266C1.96289 14.7266 2.13867 14.541 2.13867 14.3066C2.13867 14.082 1.96289 13.8965 1.72852 13.8965C1.49414 13.8965 1.31836 14.082 1.31836 14.3066C1.31836 14.541 1.49414 14.7266 1.72852 14.7266ZM4.96094 14.7266C5.19531 14.7266 5.37109 14.541 5.37109 14.3066C5.37109 14.082 5.19531 13.8965 4.96094 13.8965C4.72656 13.8965 4.55078 14.082 4.55078 14.3066C4.55078 14.541 4.72656 14.7266 4.96094 14.7266ZM8.19336 14.7266C8.42773 14.7266 8.60352 14.541 8.60352 14.3066C8.60352 14.082 8.42773 13.8965 8.19336 13.8965C7.95898 13.8965 7.7832 14.082 7.7832 14.3066C7.7832 14.541 7.95898 14.7266 8.19336 14.7266ZM11.4258 14.7266C11.6602 14.7266 11.8359 14.541 11.8359 14.3066C11.8359 14.082 11.6602 13.8965 11.4258 13.8965C11.1914 13.8965 11.0156 14.082 11.0156 14.3066C11.0156 14.541 11.1914 14.7266 11.4258 14.7266ZM14.6582 14.7266C14.8926 14.7266 15.0684 14.541 15.0684 14.3066C15.0684 14.082 14.8926 13.8965 14.6582 13.8965C14.4238 13.8965 14.248 14.082 14.248 14.3066C14.248 14.541 14.4238 14.7266 14.6582 14.7266ZM0.751953 16.582C0.986328 16.582 1.16211 16.3965 1.16211 16.1621C1.16211 15.9375 0.986328 15.752 0.751953 15.752C0.517578 15.752 0.341797 15.9375 0.341797 16.1621C0.341797 16.3965 0.517578 16.582 0.751953 16.582ZM3.98438 16.582C4.21875 16.582 4.39453 16.3965 4.39453 16.1621C4.39453 15.9375 4.21875 15.752 3.98438 15.752C3.75 15.752 3.57422 15.9375 3.57422 16.1621C3.57422 16.3965 3.75 16.582 3.98438 16.582ZM7.2168 16.582C7.45117 16.582 7.62695 16.3965 7.62695 16.1621C7.62695 15.9375 7.45117 15.752 7.2168 15.752C6.98242 15.752 6.80664 15.9375 6.80664 16.1621C6.80664 16.3965 6.98242 16.582 7.2168 16.582ZM10.4492 16.582C10.6836 16.582 10.8594 16.3965 10.8594 16.1621C10.8594 15.9375 10.6836 15.752 10.4492 15.752C10.2148 15.752 10.0391 15.9375 10.0391 16.1621C10.0391 16.3965 10.2148 16.582 10.4492 16.582ZM13.6816 16.582C13.916 16.582 14.0918 16.3965 14.0918 16.1621C14.0918 15.9375 13.916 15.752 13.6816 15.752C13.4473 15.752 13.2715 15.9375 13.2715 16.1621C13.2715 16.3965 13.4473 16.582 13.6816 16.582ZM16.9141 16.582C17.1484 16.582 17.3242 16.3965 17.3242 16.1621C17.3242 15.9375 17.1484 15.752 16.9141 15.752C16.6797 15.752 16.5039 15.9375 16.5039 16.1621C16.5039 16.3965 16.6797 16.582 16.9141 16.582ZM3.00781 18.4375C3.24219 18.4375 3.41797 18.252 3.41797 18.0176C3.41797 17.793 3.24219 17.6074 3.00781 17.6074C2.77344 17.6074 2.59766 17.793 2.59766 18.0176C2.59766 18.252 2.77344 18.4375 3.00781 18.4375ZM6.24023 18.4375C6.47461 18.4375 6.65039 18.252 6.65039 18.0176C6.65039 17.793 6.47461 17.6074 6.24023 17.6074C6.00586 17.6074 5.83008 17.793 5.83008 18.0176C5.83008 18.252 6.00586 18.4375 6.24023 18.4375ZM9.47266 18.4375C9.70703 18.4375 9.88281 18.252 9.88281 18.0176C9.88281 17.793 9.70703 17.6074 9.47266 17.6074C9.23828 17.6074 9.0625 17.793 9.0625 18.0176C9.0625 18.252 9.23828 18.4375 9.47266 18.4375ZM12.7051 18.4375C12.9395 18.4375 13.1152 18.252 13.1152 18.0176C13.1152 17.793 12.9395 17.6074 12.7051 17.6074C12.4707 17.6074 12.2949 17.793 12.2949 18.0176C12.2949 18.252 12.4707 18.4375 12.7051 18.4375ZM15.9375 18.4375C16.1719 18.4375 16.3477 18.252 16.3477 18.0176C16.3477 17.793 16.1719 17.6074 15.9375 17.6074C15.7031 17.6074 15.5273 17.793 15.5273 18.0176C15.5273 18.252 15.7031 18.4375 15.9375 18.4375Z" fill="var(--color-primary)"/>
 </g>
</svg>
