<svg version="1.1" xmlns="http://www.w3.org/2000/svg" xmlns:xlink="http://www.w3.org/1999/xlink" width="16.1328" height="15.7715" viewBox="0 0 16.1328 15.7715">
 <g>
  <rect height="15.7715" opacity="0" width="16.1328" x="0" y="0"/>
  <path d="M7.88086 15.7617C12.1875 15.7617 15.7715 12.1875 15.7715 7.88086C15.7715 3.57422 12.1777 0 7.87109 0C3.57422 0 0 3.57422 0 7.88086C0 12.1875 3.58398 15.7617 7.88086 15.7617ZM7.88086 14.2773C4.33594 14.2773 1.50391 11.4355 1.50391 7.88086C1.50391 4.32617 4.32617 1.48438 7.87109 1.48438C11.4258 1.48438 14.2773 4.32617 14.2773 7.88086C14.2773 11.4355 11.4355 14.2773 7.88086 14.2773Z" fill="var(--color-secondary)"/>
  <path d="M10.1562 7.83203C10.1562 6.58203 9.12109 5.53711 7.87109 5.53711C6.63086 5.53711 5.5957 6.58203 5.5957 7.83203C5.5957 8.03711 5.63477 8.25195 5.69336 8.45703L10.0586 8.45703C10.1172 8.25195 10.1562 8.03711 10.1562 7.83203ZM3.70117 8.21289L4.56055 8.21289C4.85352 8.21289 5.08789 7.99805 5.08789 7.73438C5.08789 7.4707 4.85352 7.26562 4.56055 7.26562L3.70117 7.26562C3.4082 7.26562 3.19336 7.48047 3.19336 7.73438C3.19336 7.98828 3.4082 8.21289 3.70117 8.21289ZM5.20508 5.83008C5.41016 6.03516 5.71289 6.05469 5.9082 5.85938C6.09375 5.67383 6.08398 5.37109 5.87891 5.16602L5.25391 4.54102C5.03906 4.32617 4.74609 4.3457 4.55078 4.51172C4.375 4.7168 4.375 5 4.58984 5.21484ZM8.34961 4.28711L8.34961 3.42773C8.34961 3.13477 8.13477 2.91992 7.87109 2.91992C7.61719 2.91992 7.40234 3.13477 7.40234 3.42773L7.40234 4.28711C7.40234 4.58008 7.60742 4.82422 7.87109 4.82422C8.14453 4.82422 8.34961 4.58008 8.34961 4.28711ZM9.85352 5.85938C10.0488 6.04492 10.3418 6.04492 10.5566 5.83008L11.1621 5.21484C11.3672 5 11.377 4.7168 11.2012 4.51172C11.0059 4.32617 10.7031 4.33594 10.498 4.54102L9.87305 5.16602C9.6582 5.38086 9.66797 5.67383 9.85352 5.85938ZM11.1914 8.21289L12.0508 8.21289C12.3438 8.21289 12.5586 7.98828 12.5586 7.73438C12.5586 7.48047 12.3438 7.26562 12.0508 7.26562L11.1914 7.26562C10.8984 7.26562 10.6641 7.4707 10.6641 7.73438C10.6641 7.99805 10.8984 8.21289 11.1914 8.21289ZM3.69141 9.9707L12.0605 9.9707C12.3145 9.9707 12.5586 9.76562 12.5586 9.50195C12.5586 9.22852 12.3242 9.0332 12.0605 9.0332L3.69141 9.0332C3.42773 9.0332 3.19336 9.22852 3.19336 9.50195C3.19336 9.76562 3.4375 9.9707 3.69141 9.9707ZM5.3418 12.5195C5.46875 12.5195 5.55664 12.4023 5.54688 12.2754L5.52734 11.8457L5.87891 12.0996C5.97656 12.168 6.14258 12.1289 6.20117 12.0312C6.2793 11.9336 6.25 11.7578 6.10352 11.6992L5.70312 11.5137L6.10352 11.3086C6.24023 11.2402 6.25977 11.1035 6.21094 10.9961C6.15234 10.8789 5.97656 10.8594 5.87891 10.918L5.52734 11.1914L5.54688 10.752C5.55664 10.6055 5.46875 10.498 5.3418 10.498C5.19531 10.498 5.09766 10.6055 5.10742 10.7422L5.13672 11.1914L4.77539 10.918C4.67773 10.8594 4.52148 10.8691 4.46289 10.9961C4.4043 11.084 4.41406 11.2402 4.56055 11.3184L4.94141 11.5137L4.56055 11.6992C4.41406 11.7676 4.4043 11.9141 4.45312 12.0215C4.50195 12.1387 4.67773 12.168 4.77539 12.0996L5.13672 11.8457L5.11719 12.2754C5.10742 12.4023 5.19531 12.5195 5.3418 12.5195ZM7.87109 12.5195C7.99805 12.5195 8.0957 12.4023 8.08594 12.2754L8.05664 11.8457L8.41797 12.0996C8.51562 12.168 8.67188 12.1289 8.73047 12.0312C8.80859 11.9336 8.7793 11.7578 8.63281 11.6992L8.24219 11.5137L8.63281 11.3086C8.76953 11.2402 8.78906 11.1035 8.74023 10.9961C8.68164 10.8789 8.51562 10.8594 8.41797 10.918L8.05664 11.1914L8.08594 10.752C8.0957 10.6055 7.99805 10.498 7.87109 10.498C7.73438 10.498 7.63672 10.6055 7.64648 10.7422L7.67578 11.1914L7.30469 10.918C7.20703 10.8594 7.06055 10.8691 7.00195 10.9961C6.94336 11.084 6.95312 11.2402 7.09961 11.3184L7.48047 11.5137L7.09961 11.6992C6.95312 11.7676 6.94336 11.9141 6.99219 12.0215C7.04102 12.1387 7.20703 12.168 7.30469 12.0996L7.67578 11.8457L7.65625 12.2754C7.64648 12.4023 7.73438 12.5195 7.87109 12.5195ZM10.4102 12.5195C10.5371 12.5195 10.6348 12.4023 10.625 12.2754L10.5957 11.8457L10.957 12.0996C11.0449 12.168 11.2109 12.1289 11.2695 12.0312C11.3477 11.9336 11.3184 11.7578 11.1719 11.6992L10.7812 11.5137L11.1719 11.3086C11.3086 11.2402 11.3281 11.1035 11.2793 10.9961C11.2207 10.8789 11.0449 10.8594 10.957 10.918L10.5957 11.1914L10.625 10.752C10.6348 10.6055 10.5371 10.498 10.4102 10.498C10.2637 10.498 10.1758 10.6055 10.1855 10.7422L10.2051 11.1914L9.84375 10.918C9.74609 10.8594 9.58984 10.8691 9.53125 10.9961C9.47266 11.084 9.48242 11.2402 9.62891 11.3184L10.0195 11.5137L9.62891 11.6992C9.48242 11.7676 9.47266 11.9141 9.52148 12.0215C9.57031 12.1387 9.74609 12.168 9.84375 12.0996L10.2051 11.8457L10.1855 12.2754C10.1855 12.4023 10.2637 12.5195 10.4102 12.5195Z" fill="var(--color-primary)"/>
 </g>
</svg>
