<?xml version="1.0" encoding="UTF-8"?>
<!--Generator: Apple Native CoreSVG 232.5-->
<!DOCTYPE svg
PUBLIC "-//W3C//DTD SVG 1.1//EN"
       "http://www.w3.org/Graphics/SVG/1.1/DTD/svg11.dtd">
<svg version="1.1" xmlns="http://www.w3.org/2000/svg" xmlns:xlink="http://www.w3.org/1999/xlink" width="18.0176" height="18.4473">
 <g>
  <rect height="18.4473" opacity="0" width="18.0176" x="0" y="0"/>
  <path d="M13.0566 8.82812C13.0566 9.70259 12.7932 10.5168 12.3256 11.1914L10.3593 11.1914C11.1324 10.6916 11.6504 9.81233 11.6504 8.82812C11.6504 7.28516 10.3711 6.00586 8.82812 6.00586C7.28516 6.00586 6.00586 7.28516 6.00586 8.82812C6.00586 9.81233 6.52381 10.6916 7.29691 11.1914L5.33069 11.1914C4.86303 10.5168 4.59961 9.70259 4.59961 8.82812C4.59961 6.51367 6.52344 4.58984 8.82812 4.58984C11.1328 4.58984 13.0566 6.51367 13.0566 8.82812ZM3.25195 8.63281C3.26172 9.0332 2.91016 9.3457 2.46094 9.3457L0.791016 9.3457C0.332031 9.3457 0 9.0332 0 8.63281C0 8.24219 0.332031 7.91992 0.791016 7.91992L2.46094 7.91992C2.91016 7.91992 3.24219 8.24219 3.25195 8.63281ZM17.6562 8.63281C17.6562 9.0332 17.3242 9.3457 16.8652 9.3457L15.1953 9.3457C14.7461 9.3457 14.4141 9.0332 14.4043 8.63281C14.3945 8.24219 14.7461 7.91992 15.1953 7.91992L16.8652 7.91992C17.3242 7.91992 17.6562 8.24219 17.6562 8.63281ZM3.64258 2.63672L4.82422 3.81836C5.15625 4.14062 5.15625 4.60938 4.88281 4.88281C4.60938 5.16602 4.14062 5.15625 3.81836 4.83398L2.63672 3.65234C2.30469 3.32031 2.30469 2.86133 2.58789 2.58789C2.87109 2.32422 3.32031 2.30469 3.64258 2.63672ZM15.0684 2.58789C15.3418 2.87109 15.3516 3.32031 15.0195 3.65234L13.8379 4.83398C13.5156 5.15625 13.0566 5.15625 12.7734 4.88281C12.4902 4.61914 12.5 4.14062 12.832 3.81836L14.0137 2.63672C14.3359 2.30469 14.7949 2.31445 15.0684 2.58789ZM9.54102 0.791016L9.54102 2.46094C9.54102 2.91992 9.21875 3.24219 8.82812 3.25195C8.4375 3.26172 8.11523 2.91992 8.11523 2.46094L8.11523 0.791016C8.11523 0.332031 8.4375 0 8.82812 0C9.21875 0 9.54102 0.332031 9.54102 0.791016Z" fill="#ffffff" fill-opacity="0.85"/>
  <path d="M1.68945 12.2852L17.1191 12.2852C17.4219 12.2852 17.6562 12.0508 17.6562 11.7383C17.6562 11.4355 17.4219 11.1914 17.1191 11.1914L1.68945 11.1914C1.38672 11.1914 1.15234 11.4355 1.15234 11.7383C1.15234 12.0508 1.38672 12.2852 1.68945 12.2852ZM0.537109 15.2246L15.9668 15.2246C16.2695 15.2246 16.5039 14.9902 16.5039 14.6777C16.5039 14.375 16.2695 14.1309 15.9668 14.1309L0.537109 14.1309C0.234375 14.1309 0 14.375 0 14.6777C0 14.9902 0.234375 15.2246 0.537109 15.2246ZM1.68945 18.1641L17.1191 18.1641C17.4219 18.1641 17.6562 17.9297 17.6562 17.6172C17.6562 17.3145 17.4219 17.0703 17.1191 17.0703L1.68945 17.0703C1.38672 17.0703 1.15234 17.3145 1.15234 17.6172C1.15234 17.9297 1.38672 18.1641 1.68945 18.1641Z" fill="#ffffff" fill-opacity="0.85"/>
 </g>
</svg>
