<?xml version="1.0" encoding="UTF-8"?>
<!--Generator: Apple Native CoreSVG 232.5-->
<!DOCTYPE svg
PUBLIC "-//W3C//DTD SVG 1.1//EN"
       "http://www.w3.org/Graphics/SVG/1.1/DTD/svg11.dtd">
<svg version="1.1" xmlns="http://www.w3.org/2000/svg" xmlns:xlink="http://www.w3.org/1999/xlink" width="24.4238" height="8.19336">
 <g>
  <rect height="8.19336" opacity="0" width="24.4238" x="0" y="0"/>
  <path d="M24.0625 0.712891C24.0625 1.19141 23.4277 1.49414 23.2617 2.59766L23.1152 3.50586C22.6562 6.47461 20.7129 8.18359 17.9688 8.18359C16.0938 8.18359 14.3555 7.30469 13.4277 5.27344L12.5879 3.42773C12.4805 3.17383 12.2559 3.03711 12.0312 3.03711C11.8066 3.03711 11.5918 3.17383 11.4746 3.42773L10.6348 5.27344C9.70703 7.30469 7.97852 8.18359 6.10352 8.18359C3.34961 8.18359 1.41602 6.47461 0.957031 3.50586L0.810547 2.59766C0.634766 1.49414 0 1.19141 0 0.712891C0 0.273438 0.332031 0 0.917969 0C3.33984 0 5.57617 0.117188 6.88477 0.3125C9.6582 0.722656 10.7324 1.42578 12.0312 1.42578C13.3398 1.42578 14.4043 0.722656 17.1777 0.3125C18.4961 0.117188 20.7227 0 23.1543 0C23.7402 0 24.0625 0.273438 24.0625 0.712891ZM2.23633 2.71484C2.23633 5.16602 3.61328 6.875 6.11328 6.875C8.31055 6.875 9.58984 5.33203 9.58984 3.39844C9.58984 2.12891 7.94922 1.48438 4.52148 1.48438C2.92969 1.48438 2.23633 1.9043 2.23633 2.71484ZM14.4727 3.39844C14.4727 5.33203 15.7617 6.875 17.959 6.875C20.4492 6.875 21.8359 5.16602 21.8359 2.71484C21.8359 1.9043 21.1426 1.48438 19.541 1.48438C16.1133 1.48438 14.4727 2.12891 14.4727 3.39844Z" fill="#ffffff" fill-opacity="0.85"/>
 </g>
</svg>
