<?xml version="1.0" encoding="UTF-8"?>
<!--Generator: Apple Native CoreSVG 232.5-->
<!DOCTYPE svg
PUBLIC "-//W3C//DTD SVG 1.1//EN"
       "http://www.w3.org/Graphics/SVG/1.1/DTD/svg11.dtd">
<svg version="1.1" xmlns="http://www.w3.org/2000/svg" xmlns:xlink="http://www.w3.org/1999/xlink" width="26.4225" height="22.4068">
 <g>
  <rect height="22.4068" opacity="0" width="26.4225" x="0" y="0"/>
  <path d="M7.04426 16.0423L8.83137 15.0169L8.12825 13.7962L6.3802 14.802C6.15559 14.9192 5.96028 14.8509 5.79426 14.5384L5.34505 13.7864C4.85676 12.9661 5.14973 12.2141 6.26301 11.3743L8.2552 9.86063L9.71028 7.12625C10.4232 5.79813 10.97 5.30008 12.9134 4.16727L16.9368 1.83328C17.7767 1.345 18.3236 1.29617 19.0462 1.63797L19.4759 1.83328C19.9935 2.08719 20.4915 2.49735 20.7454 2.9661L22.015 5.18289C22.22 5.52469 22.2005 5.65164 21.9271 5.80789L20.4915 6.6575L21.1849 7.8782L22.6888 6.9993C23.7337 6.41336 23.8802 5.58328 23.2064 4.41141L21.9661 2.26297C21.5755 1.57938 20.8626 0.934845 20.0814 0.563752L19.6615 0.368439C18.4798-0.188202 17.4935-0.119842 16.224 0.61258L12.2005 2.9368C10.0521 4.1868 9.30012 4.90945 8.46028 6.47195L7.16145 8.92313L5.40364 10.2415C3.69465 11.5305 3.24544 12.9563 4.12434 14.4895L4.63215 15.3782C5.17903 16.3255 6.11653 16.5794 7.04426 16.0423ZM10.8822 13.8255L19.1732 9.03055L18.4798 7.81961L10.179 12.6048ZM10.5013 15.6223C11.5853 14.9778 11.9368 13.6399 11.3314 12.5657C10.6868 11.472 9.33919 11.1204 8.26497 11.7454C7.18098 12.3704 6.81965 13.7083 7.44465 14.802C8.06965 15.8763 9.41731 16.2376 10.5013 15.6223ZM9.80794 14.3919C9.36848 14.636 8.9095 14.5188 8.67512 14.0989C8.42122 13.6692 8.54817 13.2005 8.97786 12.9563C9.38801 12.7122 9.85676 12.8294 10.1009 13.2688C10.3353 13.679 10.2279 14.1575 9.80794 14.3919ZM20.9212 9.60672C21.9954 8.97195 22.3568 7.63406 21.7415 6.54031C21.1068 5.4661 19.7493 5.10477 18.6751 5.72977C17.5911 6.36453 17.2298 7.70242 17.8646 8.78641C18.4798 9.86063 19.8177 10.2317 20.9212 9.60672ZM20.2181 8.37625C19.7786 8.63016 19.3197 8.49344 19.0755 8.08328C18.8314 7.66336 18.9583 7.19461 19.388 6.9407C19.7982 6.69656 20.2669 6.82352 20.5111 7.2532C20.7552 7.67313 20.638 8.14188 20.2181 8.37625Z" fill="#ffffff" fill-opacity="0.55"/>
  <path d="M4.66145 20.9544C4.86653 21.2962 5.29622 21.4134 5.62825 21.2278L25.7064 9.62625C26.0384 9.45047 26.1556 9.01102 25.9603 8.67899C25.765 8.32742 25.3255 8.22977 25.0032 8.40555L4.91536 20.0071C4.59309 20.1927 4.46614 20.6321 4.66145 20.9544ZM3.6263 17.2141L1.93684 14.2747C1.63411 13.7571 1.02864 13.8841 0.862624 14.4114L0.0423111 16.8626C-0.084642 17.2141 0.0813736 17.4876 0.442702 17.5559L2.98176 18.0833C3.51887 18.2005 3.92903 17.7317 3.6263 17.2141Z" fill="#ffffff" fill-opacity="0.85"/>
 </g>
</svg>
