<svg version="1.1" xmlns="http://www.w3.org/2000/svg" xmlns:xlink="http://www.w3.org/1999/xlink" width="27.8906" height="12.7246" viewBox="0 0 27.8906 12.7246">
 <g>
  <rect height="12.7246" opacity="0" width="27.8906" x="0" y="0"/>
  <path d="M8.24219 10.3613C8.24219 11.4941 7.34375 12.3828 6.2207 12.3828C5.09766 12.3828 4.19922 11.4844 4.19922 10.3613C4.19922 9.24805 5.09766 8.34961 6.2207 8.34961C7.33398 8.34961 8.24219 9.24805 8.24219 10.3613ZM23.7793 10.3613C23.7793 11.4844 22.8711 12.3828 21.7578 12.3828C20.6348 12.3828 19.7363 11.4844 19.7363 10.3613C19.7363 9.25781 20.6445 8.34961 21.7578 8.34961C22.8711 8.34961 23.7793 9.24805 23.7793 10.3613ZM26.2012 1.8457L26.5527 2.35352C27.168 3.23242 27.5293 4.38477 27.5293 5.3418L27.5293 8.57422C27.5293 10.2246 26.9043 10.9473 25.4785 10.9473L24.6777 10.9473C24.707 10.7617 24.7266 10.5664 24.7266 10.3613C24.7266 8.7207 23.3984 7.39258 21.7578 7.39258C20.1172 7.39258 18.7793 8.73047 18.7793 10.3613C18.7793 10.5664 18.7988 10.7617 18.8379 10.9473L9.13086 10.9473C9.16992 10.7617 9.18945 10.5664 9.18945 10.3613C9.18945 8.7207 7.86133 7.39258 6.2207 7.39258C4.57031 7.39258 3.24219 8.7207 3.24219 10.3613C3.24219 10.5664 3.26172 10.7617 3.30078 10.9473L2.05078 10.9473C0.78125 10.9473 0 10.1465 0 8.84766L0 7.5293C0 5.36133 1.32812 4.13086 4.01367 3.79883L6.86523 3.44727L9.96094 1.51367C11.8652 0.3125 13.1543 0 16.3477 0L22.3633 0C24.209 0 25.2832 0.517578 26.2012 1.8457ZM13.457 5.27344L11.8066 7.98828C11.5625 8.37891 11.7578 8.74023 12.207 8.74023L15.6055 8.74023C16.0449 8.74023 16.2598 8.37891 16.0156 7.98828L14.3555 5.27344C14.1211 4.90234 13.6816 4.89258 13.457 5.27344Z" fill="currentColor"/>
 </g>
</svg>
