<svg version="1.1" xmlns="http://www.w3.org/2000/svg" xmlns:xlink="http://www.w3.org/1999/xlink" width="25.9031" height="19.3508" viewBox="0 0 25.9031 19.3508">
 <g>
  <rect height="19.3508" opacity="0" width="25.9031" x="0" y="0"/>
  <path d="M25.5248 9.94395L25.476 9.45567C25.349 8.1959 24.8412 7.42442 23.5912 6.70176L19.4897 4.32872C17.3119 3.07872 16.3158 2.77598 14.5483 2.84434L11.6772 2.95176L9.58732 2.07286C7.62442 1.24278 6.23771 1.53575 5.3881 3.02012L4.87052 3.92833C4.36271 4.80723 4.58732 5.66661 5.43692 6.16465L6.2963 6.65294C6.33536 6.51622 6.40372 6.3795 6.48185 6.24278C7.12638 5.11973 8.56192 4.72911 9.67521 5.3834C10.808 6.02794 11.1791 7.46348 10.5443 8.57676C10.4565 8.71348 10.3686 8.84044 10.2709 8.95762L16.8822 12.7662C16.9311 12.6295 16.9799 12.483 17.0678 12.3463C17.7123 11.233 19.1576 10.8424 20.2709 11.4967C21.3842 12.1315 21.7748 13.567 21.1205 14.69C21.0424 14.8268 20.9545 14.9537 20.8568 15.0611L21.4037 15.3834C22.3705 15.94 23.0834 15.6959 23.7279 14.5729L25.0072 12.3658C25.3881 11.7115 25.6127 10.7936 25.5248 9.94395ZM7.71232 8.78184C8.4838 9.23106 9.44083 8.96739 9.88028 8.20567C10.3197 7.44395 10.0658 6.47715 9.30411 6.0377C8.54239 5.59825 7.5756 5.85215 7.13614 6.61387C6.69669 7.37559 6.9506 8.34239 7.71232 8.78184ZM18.2983 14.8951C19.06 15.3346 20.0365 15.0709 20.476 14.3092C20.9154 13.5475 20.6518 12.5807 19.89 12.1412C19.1381 11.7018 18.1615 11.9654 17.7221 12.7272C17.2826 13.4791 17.5463 14.4557 18.2983 14.8951Z" fill="var(--color-secondary)"/>
  <path d="M0.0951276 6.692C-0.100185 7.04356 0.0170026 7.47325 0.339268 7.66856L20.4272 19.2604C20.7494 19.4459 21.1889 19.3385 21.3744 19.0065C21.5697 18.6549 21.4525 18.2252 21.1303 18.0397L1.04239 6.44786C0.720128 6.25254 0.280674 6.36973 0.0951276 6.692ZM2.78067 3.96739L4.47989 1.02794C4.78263 0.500592 4.36271 0.0416074 3.83536 0.149029L1.28653 0.676373C0.925206 0.754498 0.768956 1.01817 0.886143 1.3795L1.70646 3.83067C1.87247 4.34825 2.47794 4.48497 2.78067 3.96739Z" fill="var(--color-primary)"/>
 </g>
</svg>
