<?xml version="1.0" encoding="UTF-8"?>
<!--Generator: Apple Native CoreSVG 232.5-->
<!DOCTYPE svg
PUBLIC "-//W3C//DTD SVG 1.1//EN"
       "http://www.w3.org/Graphics/SVG/1.1/DTD/svg11.dtd">
<svg version="1.1" xmlns="http://www.w3.org/2000/svg" xmlns:xlink="http://www.w3.org/1999/xlink" width="27.8906" height="12.7246">
 <g>
  <rect height="12.7246" opacity="0" width="27.8906" x="0" y="0"/>
  <path d="M6.2207 12.3828C7.34375 12.3828 8.24219 11.4941 8.24219 10.3613C8.24219 9.24805 7.33398 8.34961 6.2207 8.34961C5.09766 8.34961 4.19922 9.24805 4.19922 10.3613C4.19922 11.4844 5.09766 12.3828 6.2207 12.3828ZM21.7578 12.3828C22.8711 12.3828 23.7793 11.4844 23.7793 10.3613C23.7793 9.24805 22.8711 8.34961 21.7578 8.34961C20.6445 8.34961 19.7363 9.25781 19.7363 10.3613C19.7363 11.4844 20.6348 12.3828 21.7578 12.3828ZM26.5527 2.35352L26.2012 1.8457C25.2832 0.517578 24.209 0 22.3633 0L16.3477 0C13.1543 0 11.8652 0.3125 9.96094 1.51367L6.86523 3.44727L4.01367 3.79883C1.32812 4.13086 0 5.36133 0 7.5293L0 8.84766C0 10.1465 0.78125 10.9473 2.05078 10.9473L3.30078 10.9473C3.26172 10.7617 3.24219 10.5664 3.24219 10.3613C3.24219 8.7207 4.57031 7.39258 6.2207 7.39258C7.86133 7.39258 9.18945 8.7207 9.18945 10.3613C9.18945 10.5664 9.16992 10.7617 9.13086 10.9473L18.8379 10.9473C18.7988 10.7617 18.7793 10.5664 18.7793 10.3613C18.7793 8.73047 20.1172 7.39258 21.7578 7.39258C23.3984 7.39258 24.7266 8.7207 24.7266 10.3613C24.7266 10.5664 24.707 10.7617 24.6777 10.9473L25.4785 10.9473C26.9043 10.9473 27.5293 10.2246 27.5293 8.57422L27.5293 5.3418C27.5293 4.38477 27.168 3.23242 26.5527 2.35352Z" fill="#ffffff" fill-opacity="0.25"/>
  <path d="M10 5.25391C10 3.85742 11.0156 2.91016 12.5293 2.91016L17.1875 2.91016C17.5684 2.91016 17.832 3.17383 17.832 3.53516C17.832 3.88672 17.5684 4.13086 17.1973 4.13086L12.5293 4.13086C11.7578 4.13086 11.25 4.60938 11.25 5.3125C11.25 5.94727 11.748 6.35742 12.5195 6.35742L15.6738 6.35742L15.6738 5.77148C15.6738 5.26367 16.0352 5.09766 16.4746 5.38086L18.291 6.5625C18.6328 6.79688 18.6133 7.20703 18.291 7.41211L16.4648 8.59375C16.0352 8.87695 15.6738 8.70117 15.6738 8.20312L15.6738 7.57812L12.5195 7.57812C11.0156 7.57812 10 6.65039 10 5.25391Z" fill="#ffffff" fill-opacity="0.85"/>
 </g>
</svg>
