<svg version="1.1" xmlns="http://www.w3.org/2000/svg" xmlns:xlink="http://www.w3.org/1999/xlink" width="17.4609" height="15.3418" viewBox="0 0 17.4609 15.3418">
 <g>
  <rect height="15.3418" opacity="0" width="17.4609" x="0" y="0"/>
  <path d="M15.9473 8.66211C15.9473 7.45117 15.5762 5.75195 14.5801 4.05273C15.0488 5.25391 15.3516 6.60156 15.3516 7.93945C15.3516 12.3926 11.7383 14.8145 7.43164 14.8145C7.11914 14.8145 6.81641 14.8047 6.52344 14.7754C7.25586 15.0195 8.30078 15.166 9.23828 15.166C12.1387 15.166 12.9395 13.8086 14.6191 13.8086C16.0254 13.8086 16.582 14.7559 16.7969 15.127C16.8555 15.2441 16.9629 15.3223 17.0215 15.0977C17.0605 14.9316 17.0996 14.7168 17.0996 14.4531C17.0996 13.7109 16.8848 12.3047 15.6445 10.752C15.918 9.99023 15.9473 9.16016 15.9473 8.66211ZM11.6602 0.810547C13.0176 2.5 13.9062 4.67773 13.9062 6.85547C13.9062 10.7031 11.0742 13.4082 7.04102 13.4082C4.6582 13.4082 2.5293 12.3145 1.26953 11.4453C2.96875 13.2617 5.47852 14.4238 7.45117 14.4238C11.5234 14.4238 14.9609 11.6406 14.9609 7.49023C14.9609 4.87305 13.7012 2.4707 11.6602 0.810547ZM13.418 6.54297C13.418 4.02344 12.2656 1.64062 10.498 0C11.3672 1.23047 12.5391 3.0957 12.5391 5.69336C12.5391 6.63086 12.2852 7.66602 12.0703 8.18359C9.79492 6.86523 5.44922 3.24219 3.71094 1.39648C5.10742 3.53516 6.75781 5.47852 8.59375 7.50977C6.12305 5.94727 3.82812 4.20898 1.68945 2.28516C3.74023 5.27344 6.32812 8.20312 9.75586 10.9668C8.7793 11.5137 7.77344 11.9434 6.04492 11.9434C3.95508 11.9434 1.39648 10.9277 0 9.79492C1.64062 11.582 4.0918 12.9297 6.70898 12.9297C10.2832 12.9297 13.418 10.752 13.418 6.54297Z" fill="currentColor"/>
 </g>
</svg>
