<?xml version="1.0" encoding="UTF-8"?>
<!--Generator: Apple Native CoreSVG 232.5-->
<!DOCTYPE svg
PUBLIC "-//W3C//DTD SVG 1.1//EN"
       "http://www.w3.org/Graphics/SVG/1.1/DTD/svg11.dtd">
<svg version="1.1" xmlns="http://www.w3.org/2000/svg" xmlns:xlink="http://www.w3.org/1999/xlink" width="16.1328" height="15.7715">
 <g>
  <rect height="15.7715" opacity="0" width="16.1328" x="0" y="0"/>
  <path d="M8.41797 15.3809L9.51172 15.1172C9.375 14.6582 9.29688 14.1797 9.29688 13.6621C9.29688 10.9668 11.3281 8.93555 14.0039 8.93555C14.4141 8.93555 14.7852 8.98438 15.1562 9.07227L15.4297 7.98828C14.9707 7.86133 14.502 7.80273 14.0039 7.80273C10.7812 7.80273 8.16406 10.4199 8.16406 13.6621C8.16406 14.2578 8.25195 14.8438 8.41797 15.3809ZM0.488281 6.66016L0.263672 7.76367C0.742188 7.88086 1.25 7.94922 1.76758 7.94922C4.99023 7.94922 7.60742 5.33203 7.60742 2.09961C7.60742 1.5332 7.5293 0.986328 7.38281 0.46875L6.25 0.615234C6.39648 1.07422 6.47461 1.57227 6.47461 2.09961C6.47461 4.78516 4.44336 6.81641 1.76758 6.81641C1.31836 6.81641 0.898438 6.76758 0.488281 6.66016ZM7.88086 0C3.58398 0 0 3.57422 0 7.88086C0 12.1875 3.59375 15.7617 7.89062 15.7617C12.1973 15.7617 15.7715 12.1875 15.7715 7.88086C15.7715 3.57422 12.1875 0 7.88086 0ZM7.88086 1.17188C11.543 1.17188 14.5898 4.22852 14.5898 7.88086C14.5898 11.5332 11.5527 14.5898 7.89062 14.5898C4.23828 14.5898 1.18164 11.5332 1.18164 7.88086C1.18164 4.22852 4.22852 1.17188 7.88086 1.17188Z" fill="#ffffff" fill-opacity="0.85"/>
 </g>
</svg>
