<svg version="1.1" xmlns="http://www.w3.org/2000/svg" xmlns:xlink="http://www.w3.org/1999/xlink" width="16.1328" height="15.7715" viewBox="0 0 16.1328 15.7715">
 <g>
  <rect height="15.7715" opacity="0" width="16.1328" x="0" y="0"/>
  <path d="M15.7715 7.89062C15.7715 12.1973 12.1875 15.7715 7.88086 15.7715C3.58398 15.7715 0 12.1973 0 7.89062C0 3.58398 3.57422 0.00976562 7.87109 0.00976562C12.1777 0.00976562 15.7715 3.58398 15.7715 7.89062ZM7.16797 3.45703L3.58398 10.6348C3.37891 11.0547 3.53516 11.582 4.10156 11.582L11.6699 11.582C12.2559 11.582 12.4121 11.0547 12.1973 10.6348L8.62305 3.47656C8.29102 2.80273 7.48047 2.82227 7.16797 3.45703ZM8.18359 6.9043L10.0879 10.8398L8.58398 10.8398L7.89062 7.85156L7.1875 10.8398L5.68359 10.8398L7.59766 6.9043C7.65625 6.76758 7.7832 6.70898 7.89062 6.70898C7.99805 6.70898 8.11523 6.76758 8.18359 6.9043Z" fill="currentColor"/>
 </g>
</svg>
