<?xml version="1.0" encoding="UTF-8"?>
<!--Generator: Apple Native CoreSVG 232.5-->
<!DOCTYPE svg
PUBLIC "-//W3C//DTD SVG 1.1//EN"
       "http://www.w3.org/Graphics/SVG/1.1/DTD/svg11.dtd">
<svg version="1.1" xmlns="http://www.w3.org/2000/svg" xmlns:xlink="http://www.w3.org/1999/xlink" width="16.1328" height="15.7715">
 <g>
  <rect height="15.7715" opacity="0" width="16.1328" x="0" y="0"/>
  <path d="M7.88086 15.7715C12.1875 15.7715 15.7715 12.1973 15.7715 7.89062C15.7715 3.58398 12.1777 0.00976562 7.87109 0.00976562C3.57422 0.00976562 0 3.58398 0 7.89062C0 12.1973 3.58398 15.7715 7.88086 15.7715Z" fill="#ffffff" fill-opacity="0.25"/>
  <path d="M4.10156 11.582C3.53516 11.582 3.37891 11.0547 3.58398 10.6348L7.16797 3.45703C7.48047 2.82227 8.29102 2.80273 8.62305 3.47656L12.1973 10.6348C12.4121 11.0547 12.2559 11.582 11.6699 11.582ZM5.68359 10.8398L7.1875 10.8398L7.89062 7.85156L8.58398 10.8398L10.0879 10.8398L8.18359 6.9043C8.11523 6.76758 7.99805 6.70898 7.89062 6.70898C7.7832 6.70898 7.65625 6.76758 7.59766 6.9043Z" fill="#ffffff" fill-opacity="0.85"/>
 </g>
</svg>
