<svg version="1.1" xmlns="http://www.w3.org/2000/svg" xmlns:xlink="http://www.w3.org/1999/xlink" width="22.6095" height="16.0449" viewBox="0 0 22.6095 16.0449">
 <g>
  <rect height="16.0449" opacity="0" width="22.6095" x="0" y="0"/>
  <path d="M6.9151 2.27539L9.75801 7.96695L8.26173 10.9639L6.32917 6.96289C6.24128 6.78711 6.09479 6.69922 5.94831 6.69922C5.79206 6.69922 5.64557 6.78711 5.56745 6.96289L3.05768 12.1387L5.01081 12.1387L5.94831 8.20312L6.87604 12.1387L7.67521 12.1387L7.01213 13.4668L0.977605 13.4668C0.0694014 13.4668-0.19427 12.6074 0.137761 11.9531L4.97175 2.27539C5.17682 1.88477 5.53815 1.62109 5.94831 1.62109C6.3487 1.62109 6.71003 1.88477 6.9151 2.27539Z" fill="currentColor"/>
  <path d="M7.51081 16.0449L21.1436 16.0449C22.1983 16.0449 22.4717 15.0879 22.0811 14.3262L15.46 1.07422C15.2159 0.595703 14.7862 0.292969 14.3272 0.292969C13.8682 0.292969 13.4385 0.576172 13.2139 1.04492L6.58307 14.3262C6.19245 15.0879 6.46589 16.0449 7.51081 16.0449ZM10.3624 14.7168L13.7999 7.61719C13.9171 7.36328 14.1221 7.25586 14.3272 7.25586C14.5323 7.25586 14.7374 7.36328 14.8546 7.61719L18.2921 14.7168L15.587 14.7168L14.3272 9.31641L13.0674 14.7168Z" fill="currentColor"/>
 </g>
</svg>
