<svg version="1.1" xmlns="http://www.w3.org/2000/svg" xmlns:xlink="http://www.w3.org/1999/xlink" width="16.1328" height="15.7715" viewBox="0 0 16.1328 15.7715">
 <g>
  <rect height="15.7715" opacity="0" width="16.1328" x="0" y="0"/>
  <path d="M15.7715 7.89062C15.7715 12.1973 12.1875 15.7715 7.88086 15.7715C3.58398 15.7715 0 12.1973 0 7.89062C0 3.58398 3.57422 0.00976562 7.87109 0.00976562C12.1777 0.00976562 15.7715 3.58398 15.7715 7.89062ZM8.65234 4.20898L7.03125 7.45117L5.68359 4.77539C5.58594 4.59961 5.41992 4.47266 5.23438 4.47266C5.04883 4.47266 4.87305 4.59961 4.78516 4.77539L2.51953 9.31641C2.37305 9.61914 2.49023 10.0195 2.90039 10.0195L5.74219 10.0195L5.53711 10.4199C5.35156 10.7715 5.47852 11.2207 5.9668 11.2207L12.3438 11.2207C12.832 11.2207 12.959 10.7715 12.7832 10.4199L9.6875 4.20898C9.57031 3.99414 9.38477 3.84766 9.16016 3.84766C8.94531 3.84766 8.74023 3.98438 8.65234 4.20898ZM9.41406 7.27539L11.0059 10.5957L9.74609 10.5957L9.16016 8.07617L8.57422 10.5957L7.31445 10.5957L8.91602 7.27539C8.96484 7.16797 9.05273 7.10938 9.16016 7.10938C9.25781 7.10938 9.35547 7.16797 9.41406 7.27539ZM5.41992 6.98242L6.31836 8.84766L6.05469 9.375L5.66406 9.375L5.23438 7.55859L4.80469 9.375L3.89648 9.375L5.06836 6.98242C5.10742 6.89453 5.14648 6.85547 5.23438 6.85547C5.30273 6.85547 5.38086 6.89453 5.41992 6.98242Z" fill="currentColor"/>
 </g>
</svg>
