<svg version="1.1" xmlns="http://www.w3.org/2000/svg" xmlns:xlink="http://www.w3.org/1999/xlink" width="24.3262" height="11.3184" viewBox="0 0 24.3262 11.3184">
 <g>
  <rect height="11.3184" opacity="0" width="24.3262" x="0" y="0"/>
  <path d="M20.625 11.3086C22.1387 11.3086 23.4473 10.4785 23.8867 9.3457C23.9355 9.19922 23.9648 9.07227 23.9648 8.95508C23.9648 8.58398 23.6914 8.32031 23.3301 8.32031C22.998 8.32031 22.832 8.4375 22.627 8.82812C22.2168 9.60938 21.6113 10.0293 20.6348 10.0293C19.2383 10.0293 18.3008 8.89648 18.3008 7.07031C18.3008 5.26367 19.2285 4.0918 20.6445 4.0918C21.5625 4.0918 22.1973 4.50195 22.6172 5.32227C22.8125 5.68359 22.9883 5.81055 23.3105 5.81055C23.6816 5.81055 23.9453 5.56641 23.9453 5.18555C23.9453 5.08789 23.916 4.96094 23.8867 4.84375C23.4961 3.70117 22.1875 2.82227 20.6055 2.82227C18.3008 2.82227 16.7773 4.50195 16.7773 7.08008C16.7773 9.66797 18.3105 11.3086 20.625 11.3086Z" fill="currentColor"/>
  <path d="M9.02344 11.3086C9.44336 11.3086 9.75586 11.0156 9.75586 10.5664L9.75586 9.72656L9.77539 9.72656C10.3027 10.7031 11.25 11.3086 12.4707 11.3086C14.5801 11.3086 15.9473 9.6582 15.9473 7.07031C15.9473 4.47266 14.5703 2.82227 12.4902 2.82227C11.3086 2.82227 10.332 3.42773 9.83398 4.4043L9.79492 4.4043L9.79492 0.800781C9.79492 0.322266 9.50195 0.00976562 9.05273 0.00976562C8.61328 0.00976562 8.32031 0.322266 8.32031 0.800781L8.32031 10.5664C8.32031 11.0254 8.59375 11.3086 9.02344 11.3086ZM12.1289 10.0293C10.7617 10.0293 9.79492 8.86719 9.79492 7.07031C9.79492 5.26367 10.7617 4.10156 12.1289 4.10156C13.5449 4.10156 14.4238 5.23438 14.4238 7.07031C14.4238 8.90625 13.5449 10.0293 12.1289 10.0293Z" fill="currentColor"/>
  <path d="M2.74414 11.3086C3.85742 11.3086 4.92188 10.7031 5.41016 9.75586L5.42969 9.75586L5.42969 10.5957C5.42969 11.0254 5.73242 11.3184 6.14258 11.3184C6.57227 11.3184 6.86523 11.0254 6.86523 10.5566L6.86523 5.53711C6.86523 3.88672 5.61523 2.82227 3.65234 2.82227C2.23633 2.82227 1.01562 3.42773 0.566406 4.36523C0.46875 4.55078 0.410156 4.73633 0.410156 4.91211C0.410156 5.29297 0.693359 5.54688 1.07422 5.54688C1.33789 5.54688 1.54297 5.44922 1.67969 5.21484C2.12891 4.41406 2.72461 4.07227 3.61328 4.07227C4.7168 4.07227 5.38086 4.66797 5.38086 5.6543L5.38086 6.28906L3.03711 6.40625C1.09375 6.50391 0 7.41211 0 8.83789C0 10.3223 1.12305 11.3086 2.74414 11.3086ZM3.11523 10.0977C2.14844 10.0977 1.52344 9.58008 1.52344 8.80859C1.52344 8.06641 2.12891 7.55859 3.21289 7.5L5.38086 7.36328L5.38086 8.05664C5.38086 9.21875 4.38477 10.0977 3.11523 10.0977Z" fill="currentColor"/>
 </g>
</svg>
