<svg version="1.1" xmlns="http://www.w3.org/2000/svg" xmlns:xlink="http://www.w3.org/1999/xlink" width="14.1113" height="15.3418" viewBox="0 0 14.1113 15.3418">
 <g>
  <rect height="15.3418" opacity="0" width="14.1113" x="0" y="0"/>
  <path d="M0.742188 13.3203C1.20117 13.3203 1.43555 13.1445 1.60156 12.6562L2.49023 10.1758L6.8457 10.1758L7.73438 12.6562C7.90039 13.1445 8.13477 13.3203 8.59375 13.3203C9.05273 13.3203 9.35547 13.0371 9.35547 12.5977C9.35547 12.4512 9.32617 12.3145 9.25781 12.1289L5.80078 2.82227C5.5957 2.27539 5.23438 2.01172 4.66797 2.01172C4.11133 2.01172 3.75 2.27539 3.55469 2.82227L0.0976562 12.1387C0.0292969 12.3242 0 12.4512 0 12.6074C0 13.0469 0.283203 13.3203 0.742188 13.3203ZM2.91016 8.85742L4.63867 3.95508L4.6875 3.95508L6.41602 8.85742Z" fill="var(--color-primary)"/>
  <path d="M13.1152 15.3418C13.4961 15.3418 13.75 15.0879 13.75 14.7168L13.75 9.54102C13.75 9.10156 13.4863 8.83789 13.0566 8.83789C12.666 8.83789 12.4805 8.98438 12.2363 9.16016L11.084 9.96094C10.8398 10.127 10.7324 10.2734 10.7324 10.4688C10.7324 10.7617 10.9473 10.9766 11.2109 10.9766C11.3965 10.9766 11.5039 10.918 11.6797 10.8008L12.4414 10.2734L12.4707 10.2734L12.4707 14.7168C12.4707 15.0879 12.7344 15.3418 13.1152 15.3418Z" fill="var(--color-primary)"/>
 </g>
</svg>
