<?xml version="1.0" encoding="UTF-8"?>
<!--Generator: Apple Native CoreSVG 232.5-->
<!DOCTYPE svg
PUBLIC "-//W3C//DTD SVG 1.1//EN"
       "http://www.w3.org/Graphics/SVG/1.1/DTD/svg11.dtd">
<svg version="1.1" xmlns="http://www.w3.org/2000/svg" xmlns:xlink="http://www.w3.org/1999/xlink" width="13.3691" height="16.4551">
 <g>
  <rect height="16.4551" opacity="0" width="13.3691" x="0" y="0"/>
  <path d="M4.83398 5.04883C4.51172 5.04883 4.23828 4.78516 4.23828 4.47266C4.23828 4.14062 4.51172 3.87695 4.83398 3.87695L10.5566 3.87695C10.8691 3.87695 11.1426 4.14062 11.1426 4.47266C11.1426 4.78516 10.8691 5.04883 10.5566 5.04883ZM4.83398 7.27539C4.51172 7.27539 4.23828 7.01172 4.23828 6.67969C4.23828 6.35742 4.51172 6.09375 4.83398 6.09375L9.28711 6.09375C9.60938 6.09375 9.87305 6.35742 9.87305 6.67969C9.87305 7.01172 9.60938 7.27539 9.28711 7.27539ZM2.45117 16.4551L12.3047 16.4551C12.6855 16.4551 13.0078 16.1426 13.0078 15.752C13.0078 15.4395 12.793 15.1758 12.5098 15.0781C11.582 14.7656 11.4062 13.5449 12.334 12.6367C12.627 12.3633 13.0078 12.002 13.0078 11.2207L13.0078 2.49023C13.0078 0.830078 12.1875 0 10.5469 0L2.45117 0C0.810547 0 0 0.820312 0 2.49023L0 13.9648C0 15.6348 0.810547 16.4551 2.45117 16.4551ZM2.51953 15.0488C1.78711 15.0488 1.40625 14.6484 1.40625 13.9551C1.40625 13.3105 1.88477 12.8711 2.60742 12.8711L10.3516 12.8711C10.4102 12.8711 10.459 12.8711 10.5078 12.8711C10.2051 13.6133 10.2246 14.3945 10.5371 15.0488ZM2.32422 11.6309C2.06055 11.6309 1.82617 11.416 1.82617 11.1426L1.82617 1.73828C1.82617 1.46484 2.06055 1.25 2.32422 1.25C2.58789 1.25 2.8125 1.46484 2.8125 1.73828L2.8125 11.1426C2.8125 11.416 2.58789 11.6309 2.32422 11.6309Z" fill="#ffffff" fill-opacity="0.85"/>
 </g>
</svg>
