<svg version="1.1" xmlns="http://www.w3.org/2000/svg" xmlns:xlink="http://www.w3.org/1999/xlink" width="16.1328" height="15.7715" viewBox="0 0 16.1328 15.7715">
 <g>
  <rect height="15.7715" opacity="0" width="16.1328" x="0" y="0"/>
  <path d="M15.7715 7.89062C15.7715 12.1973 12.1875 15.7715 7.88086 15.7715C3.58398 15.7715 0 12.1973 0 7.89062C0 3.58398 3.57422 0.00976562 7.87109 0.00976562C12.1777 0.00976562 15.7715 3.58398 15.7715 7.89062ZM9.43359 7.05078C9.63867 7.7832 9.64844 8.4668 9.49219 9.07227C9.56055 9.0918 9.64844 9.10156 9.72656 9.12109C10.3027 9.25781 10.7031 9.70703 10.7324 10.2148C10.7324 10.3613 10.5957 10.4297 10.498 10.3125C10.166 10.0098 9.89258 9.87305 9.54102 9.77539C9.44336 9.74609 9.33594 9.7168 9.23828 9.70703C8.96484 10.2539 8.50586 10.7031 7.91016 11.0254C8.21289 11.2695 8.61328 11.4648 9.08203 11.6016C10.752 12.041 12.0312 11.2695 12.5 9.51172L13.125 7.16797C13.3105 6.51367 13.0566 6.07422 12.3828 5.89844L9.07227 5.00977C9.00391 4.98047 8.92578 4.9707 8.86719 4.96094ZM6.9043 4.14062L3.59375 5.0293C2.91016 5.20508 2.66602 5.63477 2.85156 6.31836L3.4668 8.66211C3.93555 10.4102 5.20508 11.1816 6.89453 10.7324C8.56445 10.2734 9.29688 8.98438 8.81836 7.2168L8.19336 4.87305C8.00781 4.20898 7.56836 3.98438 6.9043 4.14062ZM7.75391 8.10547C7.72461 8.75977 7.26562 9.30664 6.55273 9.48242C5.86914 9.66797 5.19531 9.42383 4.82422 8.88672C4.75586 8.76953 4.82422 8.67188 4.96094 8.67188C5.36133 8.70117 5.88867 8.64258 6.29883 8.52539C6.70898 8.41797 7.19727 8.21289 7.5293 7.97852C7.65625 7.90039 7.77344 7.95898 7.75391 8.10547ZM11.2012 7.65625C11.4355 7.71484 11.5723 7.95898 11.5137 8.19336C11.4355 8.42773 11.2012 8.57422 10.9668 8.50586C10.7324 8.45703 10.5859 8.20312 10.6641 7.95898C10.7129 7.72461 10.957 7.59766 11.2012 7.65625ZM5.40039 7.10938C5.42969 7.20703 5.41016 7.29492 5.35156 7.31445C5.21484 7.35352 5.09766 7.2168 4.86328 7.29492C4.60938 7.36328 4.58984 7.5293 4.46289 7.54883C4.41406 7.55859 4.36523 7.49023 4.33594 7.41211C4.23828 7.10938 4.43359 6.80664 4.72656 6.73828C5.01953 6.66016 5.30273 6.83594 5.40039 7.10938ZM7.44141 6.57227C7.48047 6.66016 7.44141 6.73828 7.40234 6.76758C7.26562 6.80664 7.14844 6.66016 6.91406 6.73828C6.66992 6.80664 6.63086 6.97266 6.51367 6.98242C6.46484 7.00195 6.41602 6.92383 6.37695 6.8457C6.29883 6.57227 6.48438 6.24023 6.76758 6.17188C7.07031 6.11328 7.37305 6.26953 7.44141 6.57227Z" fill="var(--color-primary)"/>
 </g>
</svg>
