<svg version="1.1" xmlns="http://www.w3.org/2000/svg" xmlns:xlink="http://www.w3.org/1999/xlink" width="16.1328" height="15.7715" viewBox="0 0 16.1328 15.7715">
 <g>
  <rect height="15.7715" opacity="0" width="16.1328" x="0" y="0"/>
  <path d="M7.88086 15.7617C12.1875 15.7617 15.7715 12.1875 15.7715 7.88086C15.7715 3.57422 12.1777 0 7.87109 0C3.57422 0 0 3.57422 0 7.88086C0 12.1875 3.58398 15.7617 7.88086 15.7617ZM7.88086 14.2773C4.33594 14.2773 1.50391 11.4355 1.50391 7.88086C1.50391 4.32617 4.32617 1.48438 7.87109 1.48438C11.4258 1.48438 14.2773 4.32617 14.2773 7.88086C14.2773 11.4355 11.4355 14.2773 7.88086 14.2773Z" fill="currentColor"/>
  <path d="M5.33203 4.07227L10.4395 4.07227C10.6348 4.07227 10.8008 3.89648 10.8008 3.71094C10.8008 3.51562 10.6348 3.35938 10.4395 3.35938L5.33203 3.35938C5.13672 3.35938 4.9707 3.51562 4.9707 3.71094C4.9707 3.89648 5.13672 4.07227 5.33203 4.07227ZM7.88086 6.23047C8.81836 6.23047 9.61914 6.35742 10.1855 6.60156L10.332 4.55078L5.43945 4.55078L5.58594 6.60156C6.14258 6.36719 6.95312 6.23047 7.88086 6.23047ZM7.88086 8.64258C9.48242 8.64258 10.6348 8.24219 10.6348 7.67578C10.6348 7.10938 9.47266 6.71875 7.88086 6.71875C6.28906 6.71875 5.13672 7.10938 5.13672 7.67578C5.13672 8.24219 6.28906 8.64258 7.88086 8.64258ZM7.73438 10.5859L8.03711 10.5859C9.3457 10.5859 10.3516 9.81445 10.5859 8.52539C10.0293 8.89648 9.08203 9.11133 7.88086 9.11133C6.68945 9.11133 5.73242 8.89648 5.18555 8.51562C5.41016 9.81445 6.41602 10.5859 7.73438 10.5859ZM7.88086 12.9297C8.50586 12.9297 9.38477 12.7637 9.78516 12.373C9.87305 12.2656 9.88281 12.1289 9.84375 11.9824L9.46289 10.7617C9.0332 10.9668 8.52539 11.0742 8.03711 11.0742L7.71484 11.0742C7.23633 11.0742 6.73828 10.9668 6.30859 10.7715L5.92773 11.9824C5.88867 12.1289 5.89844 12.2656 5.98633 12.373C6.38672 12.7637 7.26562 12.9297 7.88086 12.9297Z" fill="currentColor"/>
 </g>
</svg>
