<svg version="1.1" xmlns="http://www.w3.org/2000/svg" xmlns:xlink="http://www.w3.org/1999/xlink" width="16.1328" height="15.7715" viewBox="0 0 16.1328 15.7715">
 <g>
  <rect height="15.7715" opacity="0" width="16.1328" x="0" y="0"/>
  <path d="M15.7715 7.89062C15.7715 12.1973 12.1875 15.7715 7.88086 15.7715C3.58398 15.7715 0 12.1973 0 7.89062C0 3.58398 3.57422 0.00976562 7.87109 0.00976562C12.1777 0.00976562 15.7715 3.58398 15.7715 7.89062ZM8.04688 11.1914L7.70508 11.1914C7.20703 11.1914 6.68945 11.084 6.25 10.8789L5.85938 12.1484C5.81055 12.2852 5.82031 12.4316 5.91797 12.5391C6.32812 12.9492 7.24609 13.125 7.88086 13.125C8.52539 13.125 9.44336 12.9492 9.85352 12.5391C9.94141 12.4316 9.95117 12.2852 9.91211 12.1484L9.52148 10.8691C9.08203 11.084 8.55469 11.1914 8.04688 11.1914ZM7.88086 9.16016C6.64062 9.16016 5.6543 8.93555 5.08789 8.54492C5.3125 9.89258 6.36719 10.6934 7.72461 10.6934L8.04688 10.6934C9.4043 10.6934 10.4395 9.89258 10.6836 8.54492C10.1172 8.93555 9.13086 9.16016 7.88086 9.16016ZM5.0293 7.66602C5.0293 8.25195 6.24023 8.67188 7.88086 8.67188C9.53125 8.67188 10.7324 8.25195 10.7324 7.66602C10.7324 7.08984 9.53125 6.66992 7.88086 6.66992C6.24023 6.66992 5.0293 7.08984 5.0293 7.66602ZM5.3418 4.42383L5.49805 6.55273C6.08398 6.30859 6.91406 6.17188 7.88086 6.17188C8.85742 6.17188 9.6875 6.30859 10.2637 6.55273L10.4297 4.42383ZM5.24414 3.18359C5.0293 3.18359 4.86328 3.34961 4.86328 3.55469C4.86328 3.75 5.0293 3.92578 5.24414 3.92578L10.5273 3.92578C10.7422 3.92578 10.9082 3.75 10.9082 3.55469C10.9082 3.34961 10.7422 3.18359 10.5273 3.18359Z" fill="currentColor"/>
 </g>
</svg>
