<?xml version="1.0" encoding="UTF-8"?>
<!--Generator: Apple Native CoreSVG 232.5-->
<!DOCTYPE svg
PUBLIC "-//W3C//DTD SVG 1.1//EN"
       "http://www.w3.org/Graphics/SVG/1.1/DTD/svg11.dtd">
<svg version="1.1" xmlns="http://www.w3.org/2000/svg" xmlns:xlink="http://www.w3.org/1999/xlink" width="16.233" height="18.8379">
 <g>
  <rect height="18.8379" opacity="0" width="16.233" x="0" y="0"/>
  <path d="M0.0793724 13.5449C-0.233128 14.8242 0.382107 15.6152 1.83718 15.6152L14.0345 15.6152C15.4895 15.6152 16.1048 14.8242 15.7923 13.5449L13.6634 4.96094C13.3606 3.75 12.7063 3.10547 11.3977 3.10547L4.4739 3.10547C3.16531 3.10547 2.51101 3.75 2.20828 4.96094ZM1.41726 13.5547L3.45828 5.15625C3.57547 4.6582 3.86843 4.42383 4.40554 4.42383L11.4563 4.42383C12.0032 4.42383 12.2864 4.6582 12.4134 5.15625L14.4544 13.5547C14.5618 14.0039 14.347 14.2969 13.8977 14.2969L1.9739 14.2969C1.52468 14.2969 1.30008 14.0039 1.41726 13.5547ZM7.9407 18.7207C8.35086 18.7207 8.60476 18.457 8.60476 18.0176L8.60476 0.703125C8.60476 0.263672 8.35086 0 7.9407 0C7.53054 0 7.2864 0.263672 7.2864 0.703125L7.2864 18.0176C7.2864 18.457 7.53054 18.7207 7.9407 18.7207Z" fill="#ffffff" fill-opacity="0.85"/>
 </g>
</svg>
