<svg version="1.1" xmlns="http://www.w3.org/2000/svg" xmlns:xlink="http://www.w3.org/1999/xlink" width="17.1973" height="18.5645" viewBox="0 0 17.1973 18.5645">
 <g>
  <rect height="18.5645" opacity="0" width="17.1973" x="0" y="0"/>
  <path d="M3.8753 6.346L4.29688 15.0977C4.31641 15.5273 4.61914 15.8301 5.0293 15.8301L11.8164 15.8301C12.2363 15.8301 12.5293 15.5371 12.5488 15.0977L12.5522 15.0229L13.6957 16.1664C13.3858 16.7835 12.7775 17.1387 11.9629 17.1387L4.89258 17.1387C3.7207 17.1387 2.97852 16.4258 2.91992 15.2539L2.43768 4.90838ZM6.56299 9.03369L6.69922 14.1113C6.70898 14.4141 6.49414 14.6191 6.16211 14.6191C5.84961 14.6191 5.63477 14.4238 5.625 14.1113L5.45916 7.92986ZM8.97461 11.4453L8.97461 14.1113C8.97461 14.4141 8.75 14.6191 8.42773 14.6191C8.0957 14.6191 7.87109 14.4141 7.87109 14.1113L7.87109 10.3418ZM11.2317 13.7024L11.2207 14.1113C11.2109 14.4238 10.9961 14.6191 10.6836 14.6191C10.3516 14.6191 10.1367 14.4141 10.1465 14.1113L10.1855 12.6562ZM11.8164 1.86523L11.8164 2.98828L15.2344 2.98828C15.5957 2.98828 15.8887 3.28125 15.8887 3.64258C15.8887 4.00391 15.5957 4.29688 15.2344 4.29688L14.4365 4.29688L14.08 11.9396L12.7491 10.6078L13.0306 4.29688L6.44268 4.29688L5.00977 2.86293L5.00977 1.86523C5.00977 0.712891 5.76172 0 6.99219 0L9.83398 0C11.0645 0 11.8164 0.712891 11.8164 1.86523ZM11.4355 6.10352L11.3522 9.20993L10.3061 8.16304L10.3613 6.10352C10.3711 5.80078 10.5957 5.5957 10.8984 5.5957C11.2305 5.5957 11.4453 5.80078 11.4355 6.10352ZM8.97461 6.10352L8.97461 6.83062L7.95768 5.81296C8.05216 5.67703 8.21865 5.5957 8.42773 5.5957C8.75 5.5957 8.97461 5.80078 8.97461 6.10352ZM7.08984 1.29883C6.67969 1.29883 6.40625 1.5625 6.40625 1.96289L6.40625 2.98828L10.4297 2.98828L10.4297 1.96289C10.4297 1.5625 10.1465 1.29883 9.73633 1.29883Z" fill="currentColor"/>
  <path d="M14.7363 15.8496C15 16.1133 15.4297 16.1133 15.6836 15.8496C15.9473 15.5859 15.9473 15.166 15.6836 14.9023L2.10938 1.31836C1.8457 1.05469 1.41602 1.05469 1.15234 1.31836C0.898438 1.57227 0.898438 2.01172 1.15234 2.26562Z" fill="currentColor"/>
 </g>
</svg>
