<svg version="1.1" xmlns="http://www.w3.org/2000/svg" xmlns:xlink="http://www.w3.org/1999/xlink" width="16.1328" height="15.7715" viewBox="0 0 16.1328 15.7715">
 <g>
  <rect height="15.7715" opacity="0" width="16.1328" x="0" y="0"/>
  <path d="M7.88086 15.7617C12.1875 15.7617 15.7715 12.1875 15.7715 7.88086C15.7715 3.57422 12.1777 0 7.87109 0C3.57422 0 0 3.57422 0 7.88086C0 12.1875 3.58398 15.7617 7.88086 15.7617ZM7.88086 14.2773C4.33594 14.2773 1.50391 11.4355 1.50391 7.88086C1.50391 4.32617 4.32617 1.48438 7.87109 1.48438C11.4258 1.48438 14.2773 4.32617 14.2773 7.88086C14.2773 11.4355 11.4355 14.2773 7.88086 14.2773Z" fill="var(--color-secondary)"/>
  <path d="M5.87891 12.3828L9.86328 12.3828C10.3906 12.3828 10.6934 12.1094 10.7129 11.5723L10.957 5.64453L11.5332 5.64453C11.7285 5.64453 11.8848 5.47852 11.8945 5.2832C11.9043 5.08789 11.7285 4.92188 11.5332 4.92188L9.75586 4.92188L9.75586 4.33594C9.75586 3.67188 9.31641 3.26172 8.62305 3.26172L7.09961 3.26172C6.40625 3.26172 5.97656 3.67188 5.97656 4.33594L5.97656 4.92188L4.19922 4.92188C4.01367 4.92188 3.84766 5.08789 3.84766 5.2832C3.84766 5.47852 4.01367 5.64453 4.19922 5.64453L4.79492 5.64453L5.03906 11.5723C5.05859 12.1094 5.35156 12.3828 5.87891 12.3828ZM6.55273 11.2012C6.38672 11.2012 6.25 11.084 6.25 10.9277L6.13281 6.52344C6.13281 6.35742 6.24023 6.24023 6.43555 6.24023C6.5918 6.24023 6.71875 6.35742 6.71875 6.52344L6.83594 10.9277C6.83594 11.084 6.72852 11.2012 6.55273 11.2012ZM7.86133 11.2012C7.68555 11.2012 7.56836 11.084 7.56836 10.9277L7.56836 6.52344C7.56836 6.35742 7.68555 6.24023 7.86133 6.24023C8.04688 6.24023 8.17383 6.35742 8.17383 6.52344L8.17383 10.9277C8.17383 11.084 8.04688 11.2012 7.86133 11.2012ZM9.17969 11.2012C8.99414 11.2012 8.89648 11.084 8.89648 10.9277L9.01367 6.52344C9.01367 6.35742 9.13086 6.24023 9.30664 6.24023C9.49219 6.24023 9.59961 6.35742 9.59961 6.52344L9.47266 10.9277C9.47266 11.084 9.3457 11.2012 9.17969 11.2012ZM6.8457 4.92188L6.8457 4.38477C6.8457 4.19922 6.97266 4.08203 7.1582 4.08203L8.57422 4.08203C8.75977 4.08203 8.88672 4.19922 8.88672 4.38477L8.88672 4.92188Z" fill="var(--color-primary)"/>
 </g>
</svg>
