<?xml version="1.0" encoding="UTF-8"?>
<!--Generator: Apple Native CoreSVG 232.5-->
<!DOCTYPE svg
PUBLIC "-//W3C//DTD SVG 1.1//EN"
       "http://www.w3.org/Graphics/SVG/1.1/DTD/svg11.dtd">
<svg version="1.1" xmlns="http://www.w3.org/2000/svg" xmlns:xlink="http://www.w3.org/1999/xlink" width="15.2832" height="18.5645">
 <g>
  <rect height="18.5645" opacity="0" width="15.2832" x="0" y="0"/>
  <path d="M5.11719 14.7852C4.79492 14.7852 4.57031 14.5898 4.55078 14.2578L4.33594 5.95703C4.32617 5.63477 4.54102 5.42969 4.89258 5.42969C5.21484 5.42969 5.43945 5.625 5.44922 5.95703L5.67383 14.2578C5.68359 14.5801 5.45898 14.7852 5.11719 14.7852ZM7.46094 14.7852C7.12891 14.7852 6.88477 14.5801 6.88477 14.2578L6.88477 5.95703C6.88477 5.63477 7.12891 5.42969 7.46094 5.42969C7.80273 5.42969 8.03711 5.63477 8.03711 5.95703L8.03711 14.2578C8.03711 14.5801 7.80273 14.7852 7.46094 14.7852ZM9.80469 14.7852C9.46289 14.7852 9.23828 14.5801 9.24805 14.2578L9.48242 5.95703C9.48242 5.625 9.7168 5.42969 10.0293 5.42969C10.3809 5.42969 10.5957 5.63477 10.5859 5.95703L10.3711 14.2578C10.3516 14.5898 10.1367 14.7852 9.80469 14.7852ZM4.05273 3.60352L5.43945 3.60352L5.43945 1.96289C5.43945 1.5625 5.72266 1.29883 6.13281 1.29883L8.7793 1.29883C9.17969 1.29883 9.46289 1.5625 9.46289 1.96289L9.46289 3.60352L10.8594 3.60352L10.8594 1.86523C10.8594 0.712891 10.1074 0 8.87695 0L6.02539 0C4.80469 0 4.05273 0.712891 4.05273 1.86523ZM0.644531 4.29688L14.2773 4.29688C14.6387 4.29688 14.9219 4.00391 14.9219 3.64258C14.9219 3.28125 14.6289 2.98828 14.2773 2.98828L0.644531 2.98828C0.302734 2.98828 0 3.28125 0 3.64258C0 4.00391 0.302734 4.29688 0.644531 4.29688ZM3.93555 17.1387L10.9961 17.1387C12.1582 17.1387 12.9102 16.416 12.9688 15.2441L13.4766 4.14062L1.44531 4.14062L1.96289 15.2539C2.02148 16.4258 2.75391 17.1387 3.93555 17.1387Z" fill="#ffffff" fill-opacity="0.85"/>
 </g>
</svg>
