<?xml version="1.0" encoding="UTF-8"?>
<!--Generator: Apple Native CoreSVG 232.5-->
<!DOCTYPE svg
PUBLIC "-//W3C//DTD SVG 1.1//EN"
       "http://www.w3.org/Graphics/SVG/1.1/DTD/svg11.dtd">
<svg version="1.1" xmlns="http://www.w3.org/2000/svg" xmlns:xlink="http://www.w3.org/1999/xlink" width="16.1328" height="15.7715">
 <g>
  <rect height="15.7715" opacity="0" width="16.1328" x="0" y="0"/>
  <path d="M7.88086 15.7715C12.1875 15.7715 15.7715 12.1973 15.7715 7.89062C15.7715 3.58398 12.1777 0.00976562 7.87109 0.00976562C3.57422 0.00976562 0 3.58398 0 7.89062C0 12.1973 3.58398 15.7715 7.88086 15.7715Z" fill="#ffffff" fill-opacity="0.25"/>
  <path d="M4.53125 11.1426C3.68164 11.1426 3.26172 10.7227 3.26172 9.89258L3.26172 7.71484C3.26172 7.31445 3.33008 7.14844 3.50586 6.89453L4.82422 5.08789C5.3125 4.41406 5.60547 4.24805 6.32812 4.24805L9.45312 4.24805C10.1855 4.24805 10.4688 4.41406 10.957 5.08789L12.2852 6.89453C12.4609 7.14844 12.5293 7.31445 12.5293 7.71484L12.5293 9.89258C12.5293 10.7227 12.1094 11.1426 11.25 11.1426ZM4.49219 7.44141L6.65039 7.44141C6.875 7.44141 7.00195 7.62695 7.00195 7.79297L7.00195 7.91016C7.00195 8.4375 7.33398 8.75 7.89062 8.75C8.45703 8.75 8.79883 8.4375 8.79883 7.91016L8.79883 7.79297C8.79883 7.62695 8.90625 7.44141 9.13086 7.44141L11.2988 7.44141C11.4355 7.44141 11.4648 7.31445 11.4062 7.23633L10.0977 5.42969C9.95117 5.22461 9.76562 5.13672 9.50195 5.13672L6.28906 5.13672C6.03516 5.13672 5.84961 5.21484 5.69336 5.42969L4.38477 7.23633C4.31641 7.33398 4.3457 7.44141 4.49219 7.44141Z" fill="#ffffff" fill-opacity="0.85"/>
 </g>
</svg>
