<svg version="1.1" xmlns="http://www.w3.org/2000/svg" xmlns:xlink="http://www.w3.org/1999/xlink" width="18.4766" height="21.9043" viewBox="0 0 18.4766 21.9043">
 <g>
  <rect height="21.9043" opacity="0" width="18.4766" x="0" y="0"/>
  <path d="M15.4199 7.71484L17.6465 10.4199C18.0273 10.8789 18.1152 11.2598 18.1152 12.0117L18.1152 16.6309C18.1152 18.2715 17.2949 19.0918 15.625 19.0918L2.49023 19.0918C0.830078 19.0918 0 18.2715 0 16.6309L0 12.0117C0 11.2598 0.107422 10.8691 0.478516 10.4199L2.68555 7.74414C3.74023 6.46484 4.0625 6.18164 5.50781 6.18164L7.19727 6.18164L7.19727 7.41211L5.41992 7.41211C4.88281 7.41211 4.54102 7.5 4.05273 8.08594L1.76758 10.9277C1.44531 11.3379 1.5332 11.5332 2.03125 11.5332L6.71875 11.5332C7.1582 11.5332 7.36328 11.875 7.36328 12.2168L7.36328 12.2363C7.36328 13.0469 8.00781 13.9844 9.0625 13.9844C10.1172 13.9844 10.752 13.0469 10.752 12.2363L10.752 12.2168C10.752 11.875 10.9668 11.5332 11.3965 11.5332L16.0938 11.5332C16.5723 11.5332 16.709 11.3672 16.3477 10.9277L14.043 8.06641C13.584 7.49023 13.2324 7.41211 12.7051 7.41211L10.9277 7.41211L10.9277 6.18164L12.6172 6.18164C14.0527 6.18164 14.3848 6.47461 15.4199 7.71484ZM1.40625 12.8125L1.40625 16.5625C1.40625 17.3047 1.80664 17.6758 2.50977 17.6758L15.6055 17.6758C16.3086 17.6758 16.709 17.3047 16.709 16.5625L16.709 12.8125L12.0703 12.8125C11.8457 14.2188 10.6445 15.2734 9.0625 15.2734C7.48047 15.2734 6.26953 14.2188 6.04492 12.8125Z" fill="var(--color-primary)"/>
  <path d="M9.0625 12.5391C9.43359 12.5391 9.75586 12.2266 9.75586 11.8652L9.75586 4.23828L9.69727 3.07617L10.1172 3.51562L11.1816 4.67773C11.3086 4.82422 11.4844 4.88281 11.6602 4.88281C12.0215 4.88281 12.2949 4.62891 12.2949 4.27734C12.2949 4.0918 12.2168 3.94531 12.0898 3.81836L9.57031 1.40625C9.38477 1.23047 9.23828 1.17188 9.0625 1.17188C8.87695 1.17188 8.73047 1.23047 8.55469 1.40625L6.03516 3.81836C5.89844 3.94531 5.83008 4.0918 5.83008 4.27734C5.83008 4.62891 6.08398 4.88281 6.45508 4.88281C6.62109 4.88281 6.81641 4.82422 6.93359 4.67773L8.00781 3.51562L8.41797 3.06641L8.36914 4.23828L8.36914 11.8652C8.36914 12.2266 8.68164 12.5391 9.0625 12.5391Z" fill="var(--color-primary)"/>
 </g>
</svg>
