<svg version="1.1" xmlns="http://www.w3.org/2000/svg" xmlns:xlink="http://www.w3.org/1999/xlink" width="16.1328" height="15.7715" viewBox="0 0 16.1328 15.7715">
 <g>
  <rect height="15.7715" opacity="0" width="16.1328" x="0" y="0"/>
  <path d="M15.7715 7.88086C15.7715 12.1875 12.1875 15.7617 7.88086 15.7617C3.58398 15.7617 0 12.1875 0 7.88086C0 3.57422 3.57422 0 7.87109 0C12.1777 0 15.7715 3.57422 15.7715 7.88086ZM7.87109 3.94531C7.56836 3.64258 7.16797 3.51562 6.73828 3.51562C5.88867 3.51562 4.9707 4.07227 4.92188 4.88281C4.12109 4.98047 3.49609 5.78125 3.49609 6.60156C3.49609 6.98242 3.62305 7.37305 3.91602 7.70508C3.54492 8.10547 3.35938 8.55469 3.35938 8.98438C3.35938 9.81445 3.94531 10.4004 4.75586 10.4004C5.00977 10.4004 5.29297 10.3418 5.58594 10.1855C5.78125 10.3613 6.25977 10.6445 6.89453 10.6836C6.77734 10.1367 6.37695 9.33594 6.15234 8.91602C6.30859 8.90625 6.45508 8.88672 6.5625 8.83789C7.00195 9.66797 7.35352 10.4688 7.35352 10.9766C7.35352 11.4062 7.29492 12.1094 7.29492 12.3242C7.29492 12.5098 7.5293 12.627 7.87109 12.627C8.22266 12.627 8.45703 12.5098 8.45703 12.3242C8.45703 12.1094 8.38867 11.4062 8.38867 10.9766C8.38867 10.5078 8.70117 9.78516 9.16992 8.83789C9.28711 8.88672 9.43359 8.90625 9.59961 8.91602C9.375 9.33594 8.97461 10.1367 8.85742 10.6836C9.48242 10.6445 9.9707 10.3613 10.166 10.1855C10.459 10.3418 10.7422 10.4004 10.9961 10.4004C11.8066 10.4004 12.3926 9.81445 12.3926 8.98438C12.3926 8.55469 12.207 8.10547 11.8359 7.70508C12.1289 7.37305 12.2559 6.98242 12.2559 6.60156C12.2559 5.78125 11.6309 4.98047 10.8301 4.88281C10.7812 4.07227 9.86328 3.51562 9.01367 3.51562C8.58398 3.51562 8.17383 3.64258 7.87109 3.94531ZM7.55859 8.35938L7.56836 9.52148C7.42188 9.18945 7.27539 8.89648 7.04102 8.48633C7.09961 8.39844 7.1582 8.29102 7.19727 8.18359C7.30469 8.26172 7.43164 8.32031 7.55859 8.35938ZM8.70117 8.47656C8.4668 8.93555 8.33008 9.19922 8.18359 9.51172L8.16406 8.36914C8.31055 8.33008 8.4375 8.26172 8.55469 8.18359C8.59375 8.29102 8.64258 8.38867 8.70117 8.47656Z" fill="var(--color-primary)"/>
 </g>
</svg>
