<?xml version="1.0" encoding="UTF-8"?>
<!--Generator: Apple Native CoreSVG 232.5-->
<!DOCTYPE svg
PUBLIC "-//W3C//DTD SVG 1.1//EN"
       "http://www.w3.org/Graphics/SVG/1.1/DTD/svg11.dtd">
<svg version="1.1" xmlns="http://www.w3.org/2000/svg" xmlns:xlink="http://www.w3.org/1999/xlink" width="29.5508" height="22.7832">
 <g>
  <rect height="22.7832" opacity="0" width="29.5508" x="0" y="0"/>
  <path d="M7.8418 15.3906C7.8418 16.5234 6.94336 17.4121 5.82031 17.4121C4.69727 17.4121 3.79883 16.5137 3.79883 15.3906C3.79883 14.2773 4.69727 13.3789 5.82031 13.3789C6.93359 13.3789 7.8418 14.2773 7.8418 15.3906ZM24.0625 15.3906C24.0625 16.5137 23.1543 17.4121 22.041 17.4121C20.918 17.4121 20.0195 16.5137 20.0195 15.3906C20.0195 14.2871 20.9277 13.3789 22.041 13.3789C23.1543 13.3789 24.0625 14.2773 24.0625 15.3906ZM20.8594 7.42188L21.0352 8.93555L27.3145 8.93555C28.4766 8.93555 29.1895 9.54102 29.1895 10.5078L29.1895 14.0625C29.1895 15.3613 28.4082 16.1621 27.1387 16.1621L24.9121 16.1621C24.9805 15.9082 25.0098 15.6641 25.0098 15.3906C25.0098 13.75 23.6816 12.4219 22.041 12.4219C20.4004 12.4219 19.0625 13.7598 19.0625 15.3906C19.0625 15.6641 19.1016 15.9082 19.1699 16.1621L8.70117 16.1621C8.75977 15.918 8.79883 15.6641 8.79883 15.3906C8.79883 13.75 7.46094 12.4219 5.82031 12.4219C4.16992 12.4219 2.8418 13.75 2.8418 15.3906C2.8418 15.6641 2.88086 15.9082 2.94922 16.1621L2.05078 16.1621C0.78125 16.1621 0 15.3613 0 14.0625L0 12.0898C0 10.293 1.03516 9.29688 3.35938 8.93555L6.2207 8.47656L9.32617 6.5332C9.80183 6.23658 10.2665 5.98969 10.7422 5.79176L10.7422 7.04102C10.7422 8.25195 11.5234 8.99414 12.6465 8.99414L16.6016 8.99414C17.7344 8.99414 18.5059 8.25195 18.5059 7.04102L18.5059 5.03986C19.9069 5.1362 20.686 5.92503 20.8594 7.42188Z" fill="#ffffff" fill-opacity="0.55"/>
  <path d="M12.5195 3.4082L13.6426 3.39844L13.6426 2.30469C13.6426 1.5332 14.0039 1.13281 14.6289 1.13281C15.2539 1.13281 15.6055 1.5332 15.6055 2.30469L15.6055 3.39844L16.7383 3.4082L16.7383 2.40234C16.7383 0.966797 15.8887 0 14.6289 0C13.3691 0 12.5195 0.966797 12.5195 2.40234ZM12.6465 7.86133L16.6016 7.86133C17.1191 7.86133 17.3633 7.59766 17.3633 7.04102L17.3633 4.04297C17.3633 3.48633 17.1191 3.22266 16.6016 3.22266L12.6465 3.22266C12.1289 3.22266 11.8848 3.48633 11.8848 4.04297L11.8848 7.04102C11.8848 7.59766 12.1289 7.86133 12.6465 7.86133Z" fill="#ffffff" fill-opacity="0.85"/>
 </g>
</svg>
