<svg version="1.1" xmlns="http://www.w3.org/2000/svg" xmlns:xlink="http://www.w3.org/1999/xlink" width="29.5508" height="18.9917" viewBox="0 0 29.5508 18.9917">
 <g>
  <rect height="18.9917" opacity="0" width="29.5508" x="0" y="0"/>
  <path d="M2.05078 14.0808L4.12109 14.0808L4.12109 12.6746L2.12891 12.6746C1.68945 12.6746 1.40625 12.3425 1.40625 11.7957L1.40625 10.1941C1.40625 9.20778 2.06055 8.67067 3.53516 8.43629L6.69922 7.93824L10.0781 5.83863C11.5918 4.90113 12.9688 4.54957 15.1172 4.54957L18.125 4.54957C18.9258 4.54957 19.3652 4.93043 19.4531 5.71168L19.7168 8.08473L26.7578 8.08473C27.666 8.08473 27.7832 8.18238 27.7832 8.79762L27.7832 11.7957C27.7832 12.3425 27.5098 12.6746 27.0605 12.6746L24.1016 12.6746L24.1016 14.0808L27.1387 14.0808C28.4082 14.0808 29.1895 13.28 29.1895 11.9812L29.1895 8.79762C29.1895 7.43043 28.2715 6.66871 26.7578 6.66871L20.9863 6.66871L20.8594 5.52613C20.6738 3.92457 19.7949 3.13356 18.2031 3.13356L15.1172 3.13356C12.6562 3.13356 11.0645 3.55348 9.32617 4.63746L6.2207 6.58082L3.35938 7.03981C1.03516 7.40113 0 8.39723 0 10.1941L0 11.9812C0 13.28 0.78125 14.0808 2.05078 14.0808ZM7.61719 14.0808L20.2734 14.0808L20.2734 12.6746L7.61719 12.6746ZM5.82031 15.8484C7.33398 15.8484 8.50586 14.6668 8.50586 13.1531C8.50586 11.6394 7.33398 10.4578 5.82031 10.4578C4.30664 10.4578 3.125 11.6394 3.125 13.1531C3.125 14.6668 4.30664 15.8484 5.82031 15.8484ZM5.82031 14.4324C5.09766 14.4324 4.54102 13.8757 4.54102 13.1531C4.54102 12.4304 5.09766 11.8738 5.82031 11.8738C6.54297 11.8738 7.09961 12.4304 7.09961 13.1531C7.09961 13.8757 6.54297 14.4324 5.82031 14.4324ZM22.041 15.8484C23.5449 15.8484 24.7266 14.6668 24.7266 13.1531C24.7266 11.6394 23.5449 10.4578 22.041 10.4578C20.5273 10.4578 19.3457 11.6394 19.3457 13.1531C19.3457 14.6668 20.5273 15.8484 22.041 15.8484ZM22.041 14.4324C21.3184 14.4324 20.752 13.8757 20.752 13.1531C20.752 12.4304 21.3184 11.8738 22.041 11.8738C22.7637 11.8738 23.3203 12.4304 23.3203 13.1531C23.3203 13.8757 22.7637 14.4324 22.041 14.4324Z" fill="currentColor"/>
  <path d="M12.3145 15.2527C11.8652 15.2527 11.6699 15.6043 11.9141 16.0047L13.5645 18.7097C13.7891 19.0906 14.2285 19.0808 14.4629 18.7097L16.123 16.0047C16.3672 15.6043 16.1523 15.2527 15.7129 15.2527Z" fill="currentColor"/>
 </g>
</svg>
