<svg version="1.1" xmlns="http://www.w3.org/2000/svg" xmlns:xlink="http://www.w3.org/1999/xlink" width="27.1922" height="20.8811" viewBox="0 0 27.1922 20.8811">
 <g>
  <rect height="20.8811" opacity="0" width="27.1922" x="0" y="0"/>
  <path d="M5.53458 6.20715L7.05802 7.09582L7.73185 5.92395L6.267 5.07434C5.9838 4.91809 5.93497 4.65441 6.13028 4.31262L6.78458 3.18957C7.15567 2.54504 7.75138 2.44738 8.84513 2.86731L11.2865 3.79504L14.4897 3.68762C15.9252 3.63879 17.0092 3.95129 18.5131 4.82043L20.5834 6.0216C21.1108 6.32434 21.2475 6.71496 21.0131 7.25207L20.1928 9.07824L25.1928 11.9689C25.4565 12.1154 25.5248 12.3986 25.3979 12.6329L24.1772 14.7325C23.9818 15.0646 23.7475 15.172 23.474 15.0157L20.9838 13.5802L20.31 14.7325L22.8588 16.2071C23.8061 16.754 24.7045 16.4806 25.2611 15.5236L26.56 13.297C27.0971 12.379 26.8334 11.3634 25.8861 10.8263L21.9115 8.53137L22.2436 7.75988C22.7904 6.53918 22.4584 5.58215 21.3061 4.90832L19.1772 3.67785C17.4291 2.66223 16.1205 2.3009 14.4506 2.35949L11.5209 2.46691L9.36271 1.63684C7.55607 0.933712 6.38419 1.22668 5.63224 2.52551L4.89982 3.77551C4.35294 4.72277 4.58732 5.65051 5.53458 6.20715ZM9.38224 8.40441L17.6733 13.1993L18.3861 11.9884L10.0854 7.18371ZM7.63419 8.97082C8.72794 9.59582 10.0658 9.23449 10.6908 8.16027C11.3256 7.06652 10.9545 5.71887 9.88028 5.09387C8.78653 4.47863 7.44864 4.8302 6.82364 5.91418C6.19864 6.99816 6.55997 8.34582 7.63419 8.97082ZM8.35685 7.75012C7.93692 7.51574 7.80021 7.02746 8.04435 6.62707C8.26896 6.22668 8.767 6.0802 9.17716 6.31457C9.58732 6.54895 9.7045 7.05676 9.47989 7.44738C9.24552 7.85754 8.74747 7.99426 8.35685 7.75012ZM18.0541 14.9962C19.1381 15.6114 20.476 15.2404 21.1108 14.1759C21.7358 13.0724 21.3647 11.7345 20.2904 11.1095C19.1967 10.4943 17.8588 10.8361 17.2338 11.9396C16.6186 13.004 16.9604 14.3517 18.0541 14.9962ZM18.767 13.7657C18.3568 13.5314 18.2201 13.0333 18.4545 12.6329C18.6889 12.2228 19.1772 12.0958 19.5971 12.3302C19.9975 12.5646 20.1147 13.0626 19.89 13.463C19.6557 13.8732 19.1576 14.0001 18.767 13.7657Z" fill="currentColor"/>
  <path d="M0.0951276 6.58801C-0.100185 6.92981 0.0170026 7.36926 0.339268 7.55481L22.5365 20.3575C22.8588 20.5431 23.2983 20.4357 23.4838 20.1036C23.6791 19.7521 23.5619 19.3224 23.2397 19.1368L1.04239 6.3341C0.720128 6.14856 0.280674 6.25598 0.0951276 6.58801ZM2.81974 3.82434L4.51896 0.884884C4.82169 0.367306 4.40177-0.0916788 3.86466 0.0157431L1.3256 0.543087C0.964268 0.611446 0.808018 0.884884 0.925206 1.23645L1.74552 3.69738C1.91153 4.21496 2.517 4.34191 2.81974 3.82434Z" fill="currentColor"/>
 </g>
</svg>
