<svg version="1.1" xmlns="http://www.w3.org/2000/svg" xmlns:xlink="http://www.w3.org/1999/xlink" width="16.1328" height="15.7715" viewBox="0 0 16.1328 15.7715">
 <g>
  <rect height="15.7715" opacity="0" width="16.1328" x="0" y="0"/>
  <path d="M7.88086 15.7617C12.1875 15.7617 15.7715 12.1875 15.7715 7.88086C15.7715 3.57422 12.1777 0 7.87109 0C3.57422 0 0 3.57422 0 7.88086C0 12.1875 3.58398 15.7617 7.88086 15.7617ZM7.88086 14.2773C4.33594 14.2773 1.50391 11.4355 1.50391 7.88086C1.50391 4.32617 4.32617 1.48438 7.87109 1.48438C11.4258 1.48438 14.2773 4.32617 14.2773 7.88086C14.2773 11.4355 11.4355 14.2773 7.88086 14.2773Z" fill="var(--color-primary)"/>
  <path d="M7.88086 11.7383C8.20312 11.7383 8.4375 11.5039 8.4375 11.1621L8.4375 9.51172L9.72656 8.92578C9.92188 8.83789 10.0098 8.71094 10.0098 8.52539C10.0098 8.29102 9.85352 8.11523 9.60938 8.11523C9.54102 8.11523 9.47266 8.13477 9.4043 8.16406L8.4375 8.61328L8.4375 7.91992L9.72656 7.33398C9.92188 7.24609 10.0098 7.12891 10.0098 6.93359C10.0098 6.69922 9.85352 6.5332 9.60938 6.5332C9.55078 6.5332 9.47266 6.55273 9.4043 6.57227L8.4375 7.03125L8.4375 5.33203L10.2051 5.33203C10.5176 5.33203 10.7422 5.12695 10.7422 4.81445C10.7422 4.50195 10.5176 4.29688 10.2051 4.29688L5.54688 4.29688C5.23438 4.29688 5.00977 4.50195 5.00977 4.81445C5.00977 5.12695 5.23438 5.33203 5.54688 5.33203L7.31445 5.33203L7.31445 7.49023L6.03516 8.06641C5.83984 8.16406 5.75195 8.28125 5.75195 8.4668C5.75195 8.70117 5.91797 8.87695 6.15234 8.87695C6.2207 8.87695 6.29883 8.85742 6.36719 8.82812L7.31445 8.37891L7.31445 9.08203L6.03516 9.6582C5.83984 9.74609 5.75195 9.86328 5.75195 10.0586C5.75195 10.293 5.91797 10.459 6.15234 10.459C6.2207 10.459 6.29883 10.4395 6.36719 10.4102L7.31445 9.9707L7.31445 11.1621C7.31445 11.5039 7.53906 11.7383 7.88086 11.7383Z" fill="var(--color-primary)"/>
 </g>
</svg>
