<?xml version="1.0" encoding="UTF-8"?>
<!--Generator: Apple Native CoreSVG 232.5-->
<!DOCTYPE svg
PUBLIC "-//W3C//DTD SVG 1.1//EN"
       "http://www.w3.org/Graphics/SVG/1.1/DTD/svg11.dtd">
<svg version="1.1" xmlns="http://www.w3.org/2000/svg" xmlns:xlink="http://www.w3.org/1999/xlink" width="17.6218" height="15.7715">
 <g>
  <rect height="15.7715" opacity="0" width="17.6218" x="0" y="0"/>
  <path d="M9.37242 15.7617C13.6791 15.7617 17.263 12.1875 17.263 7.88086C17.263 3.57422 13.6791 0 9.37242 0C5.06578 0 1.49156 3.56445 1.49156 7.87109L2.9857 7.87109C2.9857 4.31641 5.81773 1.49414 9.37242 1.49414C12.9271 1.49414 15.7689 4.32617 15.7689 7.88086C15.7689 11.4355 12.9271 14.2969 9.37242 14.2773C7.28258 14.2676 5.43687 13.291 4.28453 11.7578C4.02086 11.3965 3.60094 11.2891 3.23961 11.5137C2.87828 11.7285 2.79039 12.2168 3.08336 12.5977C4.55797 14.502 6.83336 15.7617 9.37242 15.7617ZM0.602889 6.35742C-0.0123451 6.35742-0.158829 6.77734 0.173202 7.24609L1.91148 9.7168C2.18492 10.0977 2.59508 10.0977 2.85875 9.7168L4.59703 7.23633C4.9193 6.77734 4.76305 6.35742 4.15758 6.35742Z" fill="#ffffff" fill-opacity="0.85"/>
  <path d="M8.53258 11.5918C10.8373 11.5918 12.1263 9.77539 12.1263 8.41797C12.1263 8.06641 11.9212 7.8418 11.6185 7.8418C11.3451 7.8418 11.1498 7.99805 11.0814 8.39844C10.9154 9.49219 10.0951 10.4785 8.86461 10.4785L8.86461 8.07617L10.4173 7.44141C10.6127 7.36328 10.7005 7.23633 10.7005 7.05078C10.7005 6.80664 10.5345 6.64062 10.3002 6.64062C10.2318 6.64062 10.1537 6.66016 10.0853 6.68945L8.86461 7.1875L8.86461 6.50391L10.4173 5.86914C10.6127 5.78125 10.7005 5.6543 10.7005 5.46875C10.7005 5.23438 10.5345 5.05859 10.3002 5.05859C10.2318 5.05859 10.1537 5.07812 10.0853 5.10742L8.86461 5.61523L8.86461 4.75586C8.86461 4.41406 8.65953 4.18945 8.33726 4.18945C8.015 4.18945 7.80992 4.41406 7.80992 4.75586L7.80992 6.04492L6.90172 6.41602C6.7064 6.50391 6.61851 6.63086 6.61851 6.81641C6.61851 7.05078 6.78453 7.22656 7.0189 7.22656C7.08726 7.22656 7.16539 7.20703 7.23375 7.17773L7.80992 6.93359L7.80992 7.62695L6.90172 7.99805C6.7064 8.08594 6.61851 8.20312 6.61851 8.39844C6.61851 8.63281 6.78453 8.79883 7.0189 8.79883C7.08726 8.79883 7.16539 8.78906 7.23375 8.75977L7.80992 8.51562L7.80992 10.8984C7.80992 11.2988 8.0443 11.5918 8.53258 11.5918Z" fill="#ffffff" fill-opacity="0.85"/>
 </g>
</svg>
