<svg version="1.1" xmlns="http://www.w3.org/2000/svg" xmlns:xlink="http://www.w3.org/1999/xlink" width="14.5898" height="14.248" viewBox="0 0 14.5898 14.248">
 <g>
  <rect height="14.248" opacity="0" width="14.5898" x="0" y="0"/>
  <path d="M2.49023 14.248L11.7383 14.248C13.4082 14.248 14.2285 13.4277 14.2285 11.7871L14.2285 2.4707C14.2285 0.830078 13.4082 0.00976562 11.7383 0.00976562L2.49023 0.00976562C0.830078 0.00976562 0 0.830078 0 2.4707L0 11.7871C0 13.4277 0.830078 14.248 2.49023 14.248ZM2.50977 12.832C1.80664 12.832 1.40625 12.4609 1.40625 11.7188L1.40625 2.53906C1.40625 1.80664 1.80664 1.42578 2.50977 1.42578L11.7188 1.42578C12.4219 1.42578 12.8223 1.80664 12.8223 2.53906L12.8223 11.7188C12.8223 12.4609 12.4219 12.832 11.7188 12.832Z" fill="currentColor"/>
  <path d="M6.2793 10.8301C8.57422 10.8301 9.86328 9.01367 9.86328 7.65625C9.86328 7.30469 9.6582 7.08008 9.35547 7.08008C9.0918 7.08008 8.89648 7.23633 8.82812 7.63672C8.66211 8.73047 7.83203 9.7168 6.61133 9.7168L6.61133 7.31445L8.1543 6.67969C8.35938 6.60156 8.4375 6.47461 8.4375 6.28906C8.4375 6.04492 8.28125 5.87891 8.03711 5.87891C7.97852 5.87891 7.90039 5.89844 7.83203 5.92773L6.61133 6.42578L6.61133 5.74219L8.1543 5.10742C8.35938 5.01953 8.4375 4.89258 8.4375 4.70703C8.4375 4.47266 8.28125 4.29688 8.03711 4.29688C7.97852 4.29688 7.90039 4.31641 7.83203 4.3457L6.61133 4.85352L6.61133 3.99414C6.61133 3.65234 6.39648 3.42773 6.07422 3.42773C5.76172 3.42773 5.54688 3.65234 5.54688 3.99414L5.54688 5.2832L4.64844 5.6543C4.45312 5.74219 4.36523 5.86914 4.36523 6.05469C4.36523 6.28906 4.52148 6.46484 4.76562 6.46484C4.83398 6.46484 4.90234 6.44531 4.9707 6.41602L5.54688 6.17188L5.54688 6.86523L4.64844 7.23633C4.45312 7.32422 4.36523 7.44141 4.36523 7.63672C4.36523 7.87109 4.52148 8.03711 4.76562 8.03711C4.83398 8.03711 4.90234 8.02734 4.9707 7.99805L5.54688 7.75391L5.54688 10.1367C5.54688 10.5371 5.79102 10.8301 6.2793 10.8301Z" fill="currentColor"/>
 </g>
</svg>
