<svg version="1.1" xmlns="http://www.w3.org/2000/svg" xmlns:xlink="http://www.w3.org/1999/xlink" width="16.1328" height="15.7715" viewBox="0 0 16.1328 15.7715">
 <g>
  <rect height="15.7715" opacity="0" width="16.1328" x="0" y="0"/>
  <path d="M7.88086 15.7617C12.1875 15.7617 15.7715 12.1875 15.7715 7.88086C15.7715 3.57422 12.1777 0 7.87109 0C3.57422 0 0 3.57422 0 7.88086C0 12.1875 3.58398 15.7617 7.88086 15.7617ZM7.88086 14.2773C4.33594 14.2773 1.50391 11.4355 1.50391 7.88086C1.50391 4.32617 4.32617 1.48438 7.87109 1.48438C11.4258 1.48438 14.2773 4.32617 14.2773 7.88086C14.2773 11.4355 11.4355 14.2773 7.88086 14.2773Z" fill="currentColor"/>
  <path d="M7.87109 11.4941C9.73633 11.4941 10.957 10.4297 10.957 8.79883L10.957 4.9707C10.957 4.47266 10.7031 4.18945 10.2539 4.18945C9.82422 4.18945 9.57031 4.47266 9.57031 4.9707L9.57031 8.66211C9.57031 9.70703 8.91602 10.3516 7.87109 10.3516C6.82617 10.3516 6.18164 9.70703 6.18164 8.66211L6.18164 4.9707C6.18164 4.47266 5.92773 4.18945 5.47852 4.18945C5.03906 4.18945 4.78516 4.47266 4.78516 4.9707L4.78516 8.79883C4.78516 10.4297 6.01562 11.4941 7.87109 11.4941Z" fill="currentColor"/>
 </g>
</svg>
