<?xml version="1.0" encoding="UTF-8"?>
<!--Generator: Apple Native CoreSVG 232.5-->
<!DOCTYPE svg
PUBLIC "-//W3C//DTD SVG 1.1//EN"
       "http://www.w3.org/Graphics/SVG/1.1/DTD/svg11.dtd">
<svg version="1.1" xmlns="http://www.w3.org/2000/svg" xmlns:xlink="http://www.w3.org/1999/xlink" width="9.41406" height="16.1621">
 <g>
  <rect height="16.1621" opacity="0" width="9.41406" x="0" y="0"/>
  <path d="M0.498047 16.1621L8.53516 16.1621C8.80859 16.1621 9.05273 15.9473 9.05273 15.6543C9.05273 15.3613 8.80859 15.1465 8.53516 15.1465L0.498047 15.1465C0.234375 15.1465 0 15.3613 0 15.6543C0 15.9473 0.234375 16.1621 0.498047 16.1621Z" fill="#ffffff" fill-opacity="0.85"/>
  <path d="M4.52148 13.7305C7.32422 13.7305 9.05273 12.0605 9.05273 9.66797L9.05273 3.23242C9.05273 2.73438 8.7207 2.42188 8.22266 2.42188C7.72461 2.42188 7.42188 2.73438 7.42188 3.23242L7.42188 9.53125C7.42188 11.123 6.35742 12.2363 4.52148 12.2363C2.68555 12.2363 1.63086 11.123 1.63086 9.53125L1.63086 3.23242C1.63086 2.73438 1.29883 2.42188 0.810547 2.42188C0.3125 2.42188 0 2.73438 0 3.23242L0 9.66797C0 12.0605 1.71875 13.7305 4.52148 13.7305Z" fill="#ffffff" fill-opacity="0.55"/>
 </g>
</svg>
