<svg version="1.1" xmlns="http://www.w3.org/2000/svg" xmlns:xlink="http://www.w3.org/1999/xlink" width="16.1328" height="15.7715" viewBox="0 0 16.1328 15.7715">
 <g>
  <rect height="15.7715" opacity="0" width="16.1328" x="0" y="0"/>
  <path d="M15.7715 7.89062C15.7715 12.1973 12.1875 15.7715 7.88086 15.7715C3.58398 15.7715 0 12.1973 0 7.89062C0 3.58398 3.57422 0.00976562 7.87109 0.00976562C12.1777 0.00976562 15.7715 3.58398 15.7715 7.89062ZM4.51172 4.66797C3.76953 4.66797 3.24219 5.12695 3.24219 5.91797L3.24219 9.88281C3.24219 10.6641 3.73047 11.123 4.51172 11.123L8.71094 11.123C9.50195 11.123 9.9707 10.6641 9.9707 9.88281L9.9707 5.91797C9.9707 5.12695 9.55078 4.66797 8.75977 4.66797ZM12.0215 5.44922L10.4297 6.82617L10.4297 8.97461L12.0215 10.3418C12.1582 10.4688 12.3242 10.5371 12.4609 10.5371C12.7832 10.5371 12.998 10.3027 12.998 9.96094L12.998 5.83008C12.998 5.48828 12.7832 5.26367 12.4609 5.26367C12.3242 5.26367 12.1484 5.33203 12.0215 5.44922Z" fill="var(--color-primary)"/>
 </g>
</svg>
