<?xml version="1.0" encoding="UTF-8"?>
<!--Generator: Apple Native CoreSVG 232.5-->
<!DOCTYPE svg
PUBLIC "-//W3C//DTD SVG 1.1//EN"
       "http://www.w3.org/Graphics/SVG/1.1/DTD/svg11.dtd">
<svg version="1.1" xmlns="http://www.w3.org/2000/svg" xmlns:xlink="http://www.w3.org/1999/xlink" width="23.6816" height="11.0254">
 <g>
  <rect height="11.0254" opacity="0" width="23.6816" x="0" y="0"/>
  <path d="M10.7324 9.42383L8.84766 8.00781L2.48047 8.00781C1.82617 8.00781 1.40625 7.61719 1.40625 6.97266L1.40625 2.72461C1.40625 2.08984 1.82617 1.68945 2.48047 1.68945L8.7207 1.68945L10.3809 0.273438L2.48047 0.273438C0.830078 0.273438 0 1.09375 0 2.72461L0 6.97266C0 8.60352 0.830078 9.42383 2.48047 9.42383ZM14.1699 8.00781L12.5586 9.42383L20.8301 9.42383C22.4902 9.42383 23.3203 8.60352 23.3203 6.97266L23.3203 2.72461C23.3203 1.09375 22.4902 0.273438 20.8301 0.273438L12.959 0.273438L14.2773 1.68945L20.8301 1.68945C21.4941 1.68945 21.9043 2.08984 21.9043 2.72461L21.9043 6.97266C21.9043 7.61719 21.4941 8.00781 20.8301 8.00781ZM11.6504 9.7168C14.3945 9.7168 16.5137 7.58789 16.5137 4.86328C16.5137 2.11914 14.3945 0 11.6504 0C8.91602 0 6.79688 2.11914 6.79688 4.86328C6.79688 7.58789 8.91602 9.7168 11.6504 9.7168ZM11.6504 8.39844C9.66797 8.39844 8.11523 6.8457 8.11523 4.86328C8.11523 2.86133 9.66797 1.30859 11.6504 1.30859C13.6426 1.30859 15.1953 2.86133 15.1953 4.86328C15.1953 6.8457 13.6426 8.39844 11.6504 8.39844ZM11.6504 7.61719C13.1934 7.61719 14.4141 6.40625 14.4141 4.86328C14.4141 3.31055 13.1934 2.08984 11.6504 2.08984C10.1074 2.08984 8.89648 3.31055 8.89648 4.86328C8.89648 6.40625 10.1074 7.61719 11.6504 7.61719ZM11.6504 6.48438C10.7324 6.48438 10.0195 5.77148 10.0195 4.86328C10.0195 3.94531 10.7324 3.22266 11.6504 3.22266C12.5586 3.22266 13.2812 3.94531 13.2812 4.86328C13.2812 5.77148 12.5586 6.48438 11.6504 6.48438ZM5.78125 8.90625L1.69922 8.90625L1.69922 10.0586C1.69922 10.4688 1.96289 10.7422 2.37305 10.7422L5.10742 10.7422C5.51758 10.7422 5.78125 10.4688 5.78125 10.0586ZM17.5293 8.90625L17.5293 10.0586C17.5293 10.4688 17.8027 10.7422 18.2129 10.7422L20.9375 10.7422C21.3477 10.7422 21.6211 10.4688 21.6211 10.0586L21.6211 8.90625ZM17.5488 3.33984C17.5488 3.70117 17.8027 3.95508 18.1543 3.95508L20.0293 3.95508C20.3809 3.95508 20.6348 3.70117 20.6348 3.33984C20.6348 2.98828 20.3809 2.73438 20.0293 2.73438L18.1543 2.73438C17.8027 2.73438 17.5488 2.98828 17.5488 3.33984ZM17.5488 5.35156C17.5488 5.70312 17.8027 5.95703 18.1543 5.95703L20.0293 5.95703C20.3809 5.95703 20.6348 5.70312 20.6348 5.35156C20.6348 4.99023 20.3809 4.73633 20.0293 4.73633L18.1543 4.73633C17.8027 4.73633 17.5488 4.99023 17.5488 5.35156Z" fill="#ffffff" fill-opacity="0.85"/>
 </g>
</svg>
