<?xml version="1.0" encoding="UTF-8"?>
<!--Generator: Apple Native CoreSVG 232.5-->
<!DOCTYPE svg
PUBLIC "-//W3C//DTD SVG 1.1//EN"
       "http://www.w3.org/Graphics/SVG/1.1/DTD/svg11.dtd">
<svg version="1.1" xmlns="http://www.w3.org/2000/svg" xmlns:xlink="http://www.w3.org/1999/xlink" width="27.7051" height="12.4316">
 <g>
  <rect height="12.4316" opacity="0" width="27.7051" x="0" y="0"/>
  <path d="M24.668 6.20117C24.668 9.61914 22.5 12.207 19.6484 12.207C16.6992 12.207 15.1465 9.7168 13.6719 9.7168C12.1973 9.7168 10.6445 12.207 7.70508 12.207C5.08403 12.207 3.04478 10.0355 2.72615 7.04102L6.89453 7.04102L8.02734 6.99219L6.72852 8.1543C6.07422 8.75 7.00195 9.67773 7.59766 9.05273L9.69727 6.85547C9.86328 6.67969 9.93164 6.52344 9.93164 6.34766C9.93164 6.17188 9.86328 6.02539 9.69727 5.83984L7.59766 3.63281C7.00195 3.00781 6.03516 3.90625 6.72852 4.53125L8.02734 5.71289L6.89453 5.6543L2.70724 5.6543C3.01816 0.582528 7.8171 0 13.6719 0C19.7363 0 24.668 0.615234 24.668 6.20117Z" fill="#ffffff" fill-opacity="0.25"/>
  <path d="M0.673828 7.04102C0.3125 7.04102 0 6.72852 0 6.34766C0 5.97656 0.3125 5.6543 0.673828 5.6543L6.89453 5.6543L8.02734 5.71289L6.72852 4.53125C6.03516 3.90625 7.00195 3.00781 7.59766 3.63281L9.69727 5.83984C9.86328 6.02539 9.93164 6.17188 9.93164 6.34766C9.93164 6.52344 9.86328 6.67969 9.69727 6.85547L7.59766 9.05273C7.00195 9.67773 6.07422 8.75 6.72852 8.1543L8.02734 6.99219L6.89453 7.04102Z" fill="#ffffff" fill-opacity="0.85"/>
 </g>
</svg>
