<?xml version="1.0" encoding="UTF-8"?>
<!--Generator: Apple Native CoreSVG 232.5-->
<!DOCTYPE svg
PUBLIC "-//W3C//DTD SVG 1.1//EN"
       "http://www.w3.org/Graphics/SVG/1.1/DTD/svg11.dtd">
<svg version="1.1" xmlns="http://www.w3.org/2000/svg" xmlns:xlink="http://www.w3.org/1999/xlink" width="16.1328" height="15.7715">
 <g>
  <rect height="15.7715" opacity="0" width="16.1328" x="0" y="0"/>
  <path d="M15.7715 7.88086C15.7715 12.1875 12.1875 15.7617 7.88086 15.7617C3.58398 15.7617 0 12.1875 0 7.88086C0 3.57422 3.57422 0 7.87109 0C12.1777 0 15.7715 3.57422 15.7715 7.88086ZM2.73438 7.82227C2.73438 9.43359 3.75 10.6445 5.08789 10.6445C6.46484 10.6445 7.1875 9.48242 7.88086 9.48242C8.58398 9.48242 9.30664 10.6445 10.6836 10.6445C12.0215 10.6445 13.0371 9.43359 13.0371 7.82227C13.0371 5.21484 10.7227 4.92188 7.88086 4.92188C5.04883 4.92188 2.73438 5.21484 2.73438 7.82227Z" fill="#ffffff" fill-opacity="0.85"/>
 </g>
</svg>
