<svg version="1.1" xmlns="http://www.w3.org/2000/svg" xmlns:xlink="http://www.w3.org/1999/xlink" width="14.5898" height="14.248" viewBox="0 0 14.5898 14.248">
 <g>
  <rect height="14.248" opacity="0" width="14.5898" x="0" y="0"/>
  <path d="M14.2285 2.4707L14.2285 11.7871C14.2285 13.4277 13.4082 14.248 11.7383 14.248L2.49023 14.248C0.830078 14.248 0 13.4277 0 11.7871L0 2.4707C0 0.830078 0.830078 0.00976562 2.49023 0.00976562L11.7383 0.00976562C13.4082 0.00976562 14.2285 0.830078 14.2285 2.4707ZM10.3223 4.01367L9.19922 8.80859L9.14062 8.80859L7.89062 3.87695C7.79297 3.49609 7.53906 3.30078 7.10938 3.30078C6.68945 3.30078 6.42578 3.49609 6.32812 3.87695L5.07812 8.80859L5.01953 8.80859L3.91602 4.01367C3.79883 3.49609 3.60352 3.29102 3.17383 3.29102C2.75391 3.29102 2.49023 3.57422 2.49023 3.98438C2.49023 4.0625 2.5 4.16016 2.51953 4.24805L4.08203 10.1758C4.18945 10.625 4.50195 10.8691 4.95117 10.8691C5.42969 10.8691 5.76172 10.6348 5.85938 10.1855L7.08008 5.40039L7.13867 5.40039L8.35938 10.1855C8.4668 10.6348 8.78906 10.8691 9.25781 10.8691C9.7168 10.8691 10.0293 10.625 10.1465 10.1758L11.709 4.24805C11.7383 4.16016 11.748 4.0625 11.748 3.98438C11.748 3.57422 11.4746 3.29102 11.0547 3.29102C10.625 3.29102 10.4297 3.49609 10.3223 4.01367Z" fill="currentColor"/>
 </g>
</svg>
