<?xml version="1.0" encoding="UTF-8"?>
<!--Generator: Apple Native CoreSVG 232.5-->
<!DOCTYPE svg
PUBLIC "-//W3C//DTD SVG 1.1//EN"
       "http://www.w3.org/Graphics/SVG/1.1/DTD/svg11.dtd">
<svg version="1.1" xmlns="http://www.w3.org/2000/svg" xmlns:xlink="http://www.w3.org/1999/xlink" width="16.1328" height="15.7715">
 <g>
  <rect height="15.7715" opacity="0" width="16.1328" x="0" y="0"/>
  <path d="M7.88086 15.7617C12.1875 15.7617 15.7715 12.1875 15.7715 7.88086C15.7715 3.57422 12.1777 0 7.87109 0C3.57422 0 0 3.57422 0 7.88086C0 12.1875 3.58398 15.7617 7.88086 15.7617ZM7.88086 14.2773C4.33594 14.2773 1.50391 11.4355 1.50391 7.88086C1.50391 4.32617 4.32617 1.48438 7.87109 1.48438C11.4258 1.48438 14.2773 4.32617 14.2773 7.88086C14.2773 11.4355 11.4355 14.2773 7.88086 14.2773Z" fill="#ffffff" fill-opacity="0.55"/>
  <path d="M3.125 7.88086C3.125 10.4785 5.2832 12.6465 7.87109 12.6465C10.4785 12.6465 12.6465 10.4785 12.6465 7.88086C12.6465 5.2832 10.4883 3.11523 7.88086 3.11523C5.2832 3.11523 3.125 5.2832 3.125 7.88086ZM4.375 7.88086C4.375 7.5 4.43359 7.11914 4.55078 6.76758L11.2305 6.76758C11.3379 7.11914 11.4062 7.5 11.4062 7.88086C11.3965 9.84375 9.82422 11.4062 7.87109 11.4062C5.92773 11.4062 4.375 9.84375 4.375 7.88086ZM5.18555 5.625C5.82031 4.85352 6.78711 4.35547 7.88086 4.35547C8.98438 4.35547 9.94141 4.85352 10.5957 5.625Z" fill="#ffffff" fill-opacity="0.85"/>
 </g>
</svg>
