<?xml version="1.0" encoding="UTF-8"?>
<!--Generator: Apple Native CoreSVG 232.5-->
<!DOCTYPE svg
PUBLIC "-//W3C//DTD SVG 1.1//EN"
       "http://www.w3.org/Graphics/SVG/1.1/DTD/svg11.dtd">
<svg version="1.1" xmlns="http://www.w3.org/2000/svg" xmlns:xlink="http://www.w3.org/1999/xlink" width="16.1328" height="15.7715">
 <g>
  <rect height="15.7715" opacity="0" width="16.1328" x="0" y="0"/>
  <path d="M7.88086 15.7617C12.1875 15.7617 15.7715 12.1875 15.7715 7.88086C15.7715 3.57422 12.1777 0 7.87109 0C3.57422 0 0 3.57422 0 7.88086C0 12.1875 3.58398 15.7617 7.88086 15.7617ZM7.88086 14.2773C4.33594 14.2773 1.50391 11.4355 1.50391 7.88086C1.50391 4.32617 4.32617 1.48438 7.87109 1.48438C11.4258 1.48438 14.2773 4.32617 14.2773 7.88086C14.2773 11.4355 11.4355 14.2773 7.88086 14.2773Z" fill="#ffffff" fill-opacity="0.85"/>
  <path d="M10.3418 3.69141L5.35156 3.69141C4.78516 3.69141 4.4043 4.08203 4.4043 4.66797L4.4043 5.71289L11.2891 5.71289L11.2891 4.66797C11.2891 4.08203 10.9082 3.69141 10.3418 3.69141ZM5.85938 5.24414C5.66406 5.24414 5.49805 5.07812 5.49805 4.89258C5.49805 4.6875 5.66406 4.53125 5.85938 4.53125C6.05469 4.53125 6.21094 4.6875 6.21094 4.89258C6.21094 5.07812 6.05469 5.24414 5.85938 5.24414ZM6.88477 5.24414C6.68945 5.24414 6.5332 5.07812 6.5332 4.89258C6.5332 4.6875 6.68945 4.53125 6.88477 4.53125C7.08008 4.53125 7.24609 4.6875 7.24609 4.89258C7.24609 5.07812 7.08008 5.24414 6.88477 5.24414ZM9.14062 5.11719C9.00391 5.11719 8.91602 5.0293 8.91602 4.89258C8.91602 4.74609 9.00391 4.6582 9.14062 4.6582L10.0684 4.6582C10.2051 4.6582 10.293 4.74609 10.293 4.89258C10.293 5.0293 10.2051 5.11719 10.0684 5.11719ZM5.35156 12.0312L10.3418 12.0312C10.9082 12.0312 11.2891 11.6406 11.2891 11.0547L11.2891 6.28906L4.4043 6.28906L4.4043 11.0547C4.4043 11.6406 4.78516 12.0312 5.35156 12.0312ZM7.85156 11.1621C6.66016 11.1621 5.69336 10.1953 5.69336 9.01367C5.69336 7.82227 6.66016 6.85547 7.85156 6.85547C9.04297 6.85547 10.0098 7.82227 10.0098 9.01367C10.0098 10.1953 9.04297 11.1621 7.85156 11.1621ZM7.85156 10.5859C8.73047 10.5859 9.43359 9.89258 9.43359 9.01367C9.43359 8.125 8.73047 7.42188 7.85156 7.42188C6.96289 7.42188 6.26953 8.125 6.26953 9.01367C6.26953 9.89258 6.96289 10.5859 7.85156 10.5859Z" fill="#ffffff" fill-opacity="0.85"/>
 </g>
</svg>
