<svg version="1.1" xmlns="http://www.w3.org/2000/svg" xmlns:xlink="http://www.w3.org/1999/xlink" width="9.31641" height="18.3691" viewBox="0 0 9.31641 18.3691">
 <g>
  <rect height="18.3691" opacity="0" width="9.31641" x="0" y="0"/>
  <path d="M2.2168 2.00195L6.73828 2.00195C7.14844 2.00195 7.45117 1.69922 7.45117 1.28906L7.45117 0.712891C7.45117 0.292969 7.14844 0 6.73828 0L2.2168 0C1.80664 0 1.50391 0.292969 1.50391 0.712891L1.50391 1.28906C1.50391 1.69922 1.80664 2.00195 2.2168 2.00195ZM3.60352 1.83594L2.19727 1.42578L0.703125 3.51562C0.146484 4.29688 0 5.05859 0 6.11328L0 15.6543C0 17.3828 0.869141 18.3594 2.41211 18.3594L6.54297 18.3594C8.07617 18.3594 8.95508 17.3828 8.95508 15.6543L8.95508 6.11328C8.95508 5.05859 8.79883 4.29688 8.24219 3.51562L6.74805 1.42578L5.3418 1.83594L7.04102 4.25781C7.48047 4.88281 7.54883 5.24414 7.54883 6.11328L7.54883 15.6543C7.54883 16.5039 7.19727 16.9531 6.54297 16.9531L2.41211 16.9531C1.75781 16.9531 1.40625 16.5039 1.40625 15.6543L1.40625 6.11328C1.40625 5.25391 1.46484 4.88281 1.9043 4.25781ZM0.869141 5.89844L0.869141 6.95312L8.07617 6.95312L8.07617 5.89844ZM4.47266 13.1445C5.54688 13.1445 6.25 12.4512 6.25 11.4258C6.25 10.8887 6.02539 10.459 5.88867 10.1855C5.61523 9.57031 5.14648 8.78906 4.74609 8.19336C4.66797 8.06641 4.58008 8.00781 4.47266 8.00781C4.375 8.00781 4.27734 8.06641 4.19922 8.19336C3.79883 8.78906 3.33984 9.57031 3.05664 10.1855C2.92969 10.459 2.69531 10.8887 2.69531 11.4258C2.69531 12.4512 3.39844 13.1445 4.47266 13.1445ZM0.869141 14.3652L0.869141 15.4199L8.07617 15.4199L8.07617 14.3652Z" fill="currentColor"/>
 </g>
</svg>
