<svg version="1.1" xmlns="http://www.w3.org/2000/svg" xmlns:xlink="http://www.w3.org/1999/xlink" width="16.1328" height="15.7715" viewBox="0 0 16.1328 15.7715">
 <g>
  <rect height="15.7715" opacity="0" width="16.1328" x="0" y="0"/>
  <path d="M7.88086 15.7715C12.1875 15.7715 15.7715 12.1973 15.7715 7.89062C15.7715 3.58398 12.1777 0.00976562 7.87109 0.00976562C3.57422 0.00976562 0 3.58398 0 7.89062C0 12.1973 3.58398 15.7715 7.88086 15.7715Z" fill="var(--color-tertiary)"/>
  <path d="M4.56055 7.89062C4.56055 6.09375 5.08789 4.33594 6.03516 2.95898C6.25 2.65625 6.62109 2.57812 6.9043 2.7832C7.1875 2.98828 7.23633 3.35938 7.03125 3.66211C6.21094 4.83398 5.76172 6.34766 5.76172 7.89062C5.76172 9.41406 6.2207 10.9473 7.03125 12.1191C7.23633 12.4219 7.1875 12.793 6.9043 12.998C6.63086 13.1934 6.25977 13.1152 6.03516 12.8125C5.08789 11.4648 4.56055 9.69727 4.56055 7.89062Z" fill="var(--color-primary)"/>
  <path d="M7.00195 7.89062C7.00195 6.5625 7.39258 5.2832 8.0957 4.32617C8.31055 4.0332 8.66211 3.95508 8.94531 4.16016C9.21875 4.35547 9.28711 4.73633 9.07227 5.04883C8.54492 5.80078 8.23242 6.83594 8.23242 7.89062C8.23242 8.93555 8.54492 9.98047 9.07227 10.7324C9.28711 11.0449 9.21875 11.4258 8.94531 11.6113C8.66211 11.8262 8.31055 11.748 8.0957 11.4551C7.39258 10.4688 7.00195 9.18945 7.00195 7.89062Z" fill="var(--color-primary)"/>
  <path d="M9.47266 7.89062C9.47266 7.08984 9.7168 6.26953 10.127 5.68359C10.3223 5.41016 10.6934 5.33203 10.9766 5.51758C11.2793 5.72266 11.3477 6.11328 11.1133 6.43555C10.8496 6.77734 10.6934 7.32422 10.6934 7.89062C10.6934 8.4375 10.8496 8.98438 11.1133 9.3457C11.3379 9.6582 11.2793 10.0391 10.9766 10.2539C10.6934 10.4395 10.3125 10.3711 10.127 10.0879C9.7168 9.55078 9.47266 8.7207 9.47266 7.89062Z" fill="var(--color-primary)"/>
 </g>
</svg>
