<svg version="1.1" xmlns="http://www.w3.org/2000/svg" xmlns:xlink="http://www.w3.org/1999/xlink" width="16.1328" height="15.7715" viewBox="0 0 16.1328 15.7715">
 <g>
  <rect height="15.7715" opacity="0" width="16.1328" x="0" y="0"/>
  <path d="M7.88086 15.7715C12.1875 15.7715 15.7715 12.1973 15.7715 7.89062C15.7715 3.58398 12.1777 0.00976562 7.87109 0.00976562C3.57422 0.00976562 0 3.58398 0 7.89062C0 12.1973 3.58398 15.7715 7.88086 15.7715Z" fill="var(--color-tertiary)"/>
  <path d="M11.25 7.89062C11.25 9.69727 10.7227 11.4648 9.77539 12.8125C9.56055 13.1152 9.17969 13.1934 8.90625 12.998C8.62305 12.793 8.57422 12.4219 8.78906 12.1191C9.59961 10.9473 10.0488 9.41406 10.0488 7.89062C10.0488 6.34766 9.60938 4.83398 8.78906 3.66211C8.57422 3.35938 8.62305 2.98828 8.90625 2.7832C9.18945 2.57812 9.57031 2.65625 9.77539 2.95898C10.7227 4.33594 11.25 6.09375 11.25 7.89062Z" fill="var(--color-primary)"/>
  <path d="M8.80859 7.89062C8.80859 9.18945 8.41797 10.4688 7.72461 11.4551C7.50977 11.748 7.14844 11.8262 6.86523 11.6113C6.5918 11.4258 6.52344 11.0449 6.73828 10.7324C7.26562 9.98047 7.58789 8.93555 7.58789 7.89062C7.58789 6.83594 7.26562 5.80078 6.73828 5.04883C6.52344 4.73633 6.5918 4.35547 6.86523 4.16016C7.14844 3.95508 7.50977 4.0332 7.72461 4.32617C8.41797 5.2832 8.80859 6.5625 8.80859 7.89062Z" fill="var(--color-primary)"/>
  <path d="M6.34766 7.89062C6.34766 8.7207 6.10352 9.55078 5.68359 10.0879C5.49805 10.3711 5.12695 10.4395 4.84375 10.2539C4.54102 10.0391 4.47266 9.6582 4.69727 9.3457C4.96094 8.98438 5.11719 8.4375 5.11719 7.89062C5.11719 7.32422 4.96094 6.77734 4.69727 6.43555C4.46289 6.11328 4.53125 5.72266 4.84375 5.51758C5.12695 5.33203 5.48828 5.41016 5.68359 5.68359C6.10352 6.26953 6.34766 7.08984 6.34766 7.89062Z" fill="var(--color-primary)"/>
 </g>
</svg>
