<?xml version="1.0" encoding="UTF-8"?>
<!--Generator: Apple Native CoreSVG 232.5-->
<!DOCTYPE svg
PUBLIC "-//W3C//DTD SVG 1.1//EN"
       "http://www.w3.org/Graphics/SVG/1.1/DTD/svg11.dtd">
<svg version="1.1" xmlns="http://www.w3.org/2000/svg" xmlns:xlink="http://www.w3.org/1999/xlink" width="16.1328" height="15.7715">
 <g>
  <rect height="15.7715" opacity="0" width="16.1328" x="0" y="0"/>
  <path d="M15.7715 7.89062C15.7715 12.1973 12.1875 15.7715 7.88086 15.7715C3.58398 15.7715 0 12.1973 0 7.89062C0 3.58398 3.57422 0.00976562 7.87109 0.00976562C12.1777 0.00976562 15.7715 3.58398 15.7715 7.89062ZM6.03516 2.95898C5.08789 4.33594 4.56055 6.09375 4.56055 7.89062C4.56055 9.69727 5.08789 11.4648 6.03516 12.8125C6.25977 13.1152 6.63086 13.1934 6.9043 12.998C7.1875 12.793 7.23633 12.4219 7.03125 12.1191C6.2207 10.9473 5.76172 9.41406 5.76172 7.89062C5.76172 6.34766 6.21094 4.83398 7.03125 3.66211C7.23633 3.35938 7.1875 2.98828 6.9043 2.7832C6.62109 2.57812 6.25 2.65625 6.03516 2.95898ZM8.0957 4.32617C7.39258 5.2832 7.00195 6.5625 7.00195 7.89062C7.00195 9.18945 7.39258 10.4688 8.0957 11.4551C8.31055 11.748 8.66211 11.8262 8.94531 11.6113C9.21875 11.4258 9.28711 11.0449 9.07227 10.7324C8.54492 9.98047 8.23242 8.93555 8.23242 7.89062C8.23242 6.83594 8.54492 5.80078 9.07227 5.04883C9.28711 4.73633 9.21875 4.35547 8.94531 4.16016C8.66211 3.95508 8.31055 4.0332 8.0957 4.32617ZM10.127 5.68359C9.7168 6.26953 9.47266 7.08984 9.47266 7.89062C9.47266 8.7207 9.7168 9.55078 10.127 10.0879C10.3125 10.3711 10.6934 10.4395 10.9766 10.2539C11.2793 10.0391 11.3379 9.6582 11.1133 9.3457C10.8496 8.98438 10.6934 8.4375 10.6934 7.89062C10.6934 7.32422 10.8496 6.77734 11.1133 6.43555C11.3477 6.11328 11.2793 5.72266 10.9766 5.51758C10.6934 5.33203 10.3223 5.41016 10.127 5.68359Z" fill="#ffffff" fill-opacity="0.85"/>
 </g>
</svg>
