<?xml version="1.0" encoding="UTF-8"?>
<!--Generator: Apple Native CoreSVG 232.5-->
<!DOCTYPE svg
PUBLIC "-//W3C//DTD SVG 1.1//EN"
       "http://www.w3.org/Graphics/SVG/1.1/DTD/svg11.dtd">
<svg version="1.1" xmlns="http://www.w3.org/2000/svg" xmlns:xlink="http://www.w3.org/1999/xlink" width="16.1328" height="15.7715">
 <g>
  <rect height="15.7715" opacity="0" width="16.1328" x="0" y="0"/>
  <path d="M7.88086 15.7617C12.1875 15.7617 15.7715 12.1875 15.7715 7.88086C15.7715 3.57422 12.1777 0 7.87109 0C3.57422 0 0 3.57422 0 7.88086C0 12.1875 3.58398 15.7617 7.88086 15.7617ZM7.88086 14.2773C4.33594 14.2773 1.50391 11.4355 1.50391 7.88086C1.50391 4.32617 4.32617 1.48438 7.87109 1.48438C11.4258 1.48438 14.2773 4.32617 14.2773 7.88086C14.2773 11.4355 11.4355 14.2773 7.88086 14.2773Z" fill="#ffffff" fill-opacity="0.55"/>
  <path d="M4.66797 7.88086C4.66797 9.61914 5.17578 11.3184 6.09375 12.627C6.30859 12.9102 6.66992 12.9883 6.93359 12.8027C7.20703 12.6074 7.25586 12.2461 7.05078 11.9531C6.26953 10.8203 5.83008 9.3457 5.83008 7.88086C5.83008 6.39648 6.25977 4.93164 7.05078 3.80859C7.25586 3.51562 7.20703 3.1543 6.93359 2.95898C6.66016 2.76367 6.29883 2.83203 6.09375 3.125C5.17578 4.45312 4.66797 6.14258 4.66797 7.88086Z" fill="#ffffff" fill-opacity="0.85"/>
  <path d="M7.03125 7.88086C7.03125 9.13086 7.40234 10.3711 8.07617 11.3184C8.28125 11.6016 8.63281 11.6602 8.90625 11.4648C9.16992 11.2891 9.21875 10.918 9.01367 10.625C8.50586 9.90234 8.21289 8.89648 8.21289 7.88086C8.21289 6.86523 8.50586 5.85938 9.01367 5.13672C9.21875 4.83398 9.16992 4.47266 8.90625 4.29688C8.63281 4.0918 8.28125 4.16016 8.07617 4.44336C7.40234 5.36133 7.03125 6.60156 7.03125 7.88086Z" fill="#ffffff" fill-opacity="0.85"/>
  <path d="M9.4043 7.88086C9.4043 8.68164 9.63867 9.47266 10.0293 9.99023C10.2246 10.2637 10.5762 10.3418 10.8496 10.166C11.1426 9.95117 11.2012 9.58984 10.9863 9.27734C10.7324 8.93555 10.5762 8.4082 10.5762 7.88086C10.5762 7.33398 10.7324 6.80664 10.9863 6.48438C11.2109 6.17188 11.1523 5.80078 10.8496 5.58594C10.5762 5.41992 10.2344 5.48828 10.0293 5.75195C9.63867 6.31836 9.4043 7.10938 9.4043 7.88086Z" fill="#ffffff" fill-opacity="0.85"/>
 </g>
</svg>
