<svg version="1.1" xmlns="http://www.w3.org/2000/svg" xmlns:xlink="http://www.w3.org/1999/xlink" width="22.7051" height="14.9902" viewBox="0 0 22.7051 14.9902">
 <g>
  <rect height="14.9902" opacity="0" width="22.7051" x="0" y="0"/>
  <path d="M11.1719 0C9.42383 0 7.72461 0.507812 6.41602 1.42578C6.13281 1.64062 6.06445 2.00195 6.25 2.26562C6.44531 2.53906 6.80664 2.58789 7.09961 2.38281C8.22266 1.60156 9.70703 1.16211 11.1719 1.16211C12.6562 1.16211 14.1113 1.60156 15.2441 2.38281C15.5371 2.58789 15.8887 2.53906 16.0938 2.26562C16.2891 1.99219 16.2109 1.63086 15.918 1.42578C14.5898 0.507812 12.9004 0 11.1719 0Z" fill="currentColor"/>
  <path d="M11.1719 2.36328C9.92188 2.36328 8.68164 2.73438 7.73438 3.4082C7.45117 3.61328 7.38281 3.96484 7.57812 4.23828C7.76367 4.50195 8.125 4.56055 8.42773 4.3457C9.15039 3.83789 10.1562 3.54492 11.1719 3.54492C12.1875 3.54492 13.1836 3.83789 13.9062 4.3457C14.209 4.56055 14.5801 4.50195 14.7559 4.23828C14.9512 3.96484 14.8926 3.61328 14.6094 3.4082C13.6914 2.73438 12.4512 2.36328 11.1719 2.36328Z" fill="currentColor"/>
  <path d="M11.1719 4.73633C10.3711 4.73633 9.58008 4.9707 9.05273 5.36133C8.7793 5.55664 8.71094 5.91797 8.88672 6.18164C9.0918 6.47461 9.46289 6.5332 9.77539 6.31836C10.1172 6.06445 10.6445 5.91797 11.1719 5.91797C11.7188 5.91797 12.2461 6.06445 12.5684 6.31836C12.8809 6.54297 13.252 6.48438 13.4668 6.18164C13.6328 5.91797 13.5547 5.56641 13.291 5.36133C12.7344 4.9707 11.9434 4.73633 11.1719 4.73633Z" fill="currentColor"/>
  <path d="M2.27539 14.9707L20.0684 14.9707C21.4648 14.9707 22.3438 14.1016 22.3438 12.7246L22.3438 10.2344C22.3438 8.85742 21.4648 7.99805 20.0684 7.99805L2.27539 7.99805C0.878906 7.99805 0 8.85742 0 10.2344L0 12.7246C0 14.1016 0.878906 14.9707 2.27539 14.9707ZM3.05664 11.7969C2.67578 11.7969 2.41211 11.5332 2.41211 11.1719C2.41211 10.791 2.67578 10.5273 3.05664 10.5273L5.78125 10.5273C6.15234 10.5273 6.41602 10.791 6.41602 11.1719C6.41602 11.5332 6.15234 11.7969 5.78125 11.7969ZM9.76562 12.5586C9.16992 12.5586 8.68164 12.0605 8.68164 11.4746C8.68164 10.8984 9.16992 10.4102 9.76562 10.4102C10.3516 10.4102 10.8398 10.8984 10.8398 11.4746C10.8398 12.0605 10.3516 12.5586 9.76562 12.5586ZM12.793 12.5586C12.207 12.5586 11.7188 12.0605 11.7188 11.4746C11.7188 10.8984 12.207 10.4102 12.793 10.4102C13.3789 10.4102 13.8672 10.8984 13.8672 11.4746C13.8672 12.0605 13.3789 12.5586 12.793 12.5586ZM15.8301 12.5586C15.2344 12.5586 14.7461 12.0605 14.7461 11.4746C14.7461 10.8984 15.2344 10.4102 15.8301 10.4102C16.416 10.4102 16.9043 10.8984 16.9043 11.4746C16.9043 12.0605 16.416 12.5586 15.8301 12.5586ZM18.8574 12.5586C18.2715 12.5586 17.7832 12.0605 17.7832 11.4746C17.7832 10.8984 18.2715 10.4102 18.8574 10.4102C19.4434 10.4102 19.9316 10.8984 19.9316 11.4746C19.9316 12.0605 19.4434 12.5586 18.8574 12.5586Z" fill="currentColor"/>
 </g>
</svg>
