<?xml version="1.0" encoding="UTF-8"?>
<!--Generator: Apple Native CoreSVG 232.5-->
<!DOCTYPE svg
PUBLIC "-//W3C//DTD SVG 1.1//EN"
       "http://www.w3.org/Graphics/SVG/1.1/DTD/svg11.dtd">
<svg version="1.1" xmlns="http://www.w3.org/2000/svg" xmlns:xlink="http://www.w3.org/1999/xlink" width="16.1328" height="15.7715">
 <g>
  <rect height="15.7715" opacity="0" width="16.1328" x="0" y="0"/>
  <path d="M7.88086 15.7715C12.1875 15.7715 15.7715 12.1973 15.7715 7.89062C15.7715 3.58398 12.1777 0.00976562 7.87109 0.00976562C3.57422 0.00976562 0 3.58398 0 7.89062C0 12.1973 3.58398 15.7715 7.88086 15.7715Z" fill="#ffffff" fill-opacity="0.25"/>
  <path d="M3.35938 7.02148C3.07617 7.10938 2.8418 6.96289 2.7832 6.72852C2.69531 6.50391 2.8125 6.25 3.0957 6.18164C3.80859 5.97656 4.60938 5.83008 5.38086 5.83008C6.24023 5.83008 6.9043 5.9668 7.65625 5.9668C8.04688 5.9668 8.27148 5.75195 8.27148 5.39062C8.27148 5.00977 8.02734 4.81445 7.71484 4.81445C7.4707 4.81445 7.28516 4.95117 7.1875 5.13672C7.04102 5.41016 6.77734 5.46875 6.5625 5.35156C6.31836 5.22461 6.28906 4.94141 6.40625 4.74609C6.63086 4.27734 7.13867 3.93555 7.71484 3.93555C8.49609 3.93555 9.16992 4.53125 9.16992 5.39062C9.16992 6.21094 8.57422 6.8457 7.65625 6.8457C6.85547 6.8457 6.21094 6.71875 5.38086 6.71875C4.7168 6.71875 4.04297 6.81641 3.35938 7.02148ZM10.6543 9.27734C9.04297 9.27734 7.67578 8.45703 5.82031 8.45703C4.90234 8.45703 4.12109 8.58398 3.36914 8.85742C3.07617 8.95508 2.8418 8.80859 2.7832 8.57422C2.69531 8.33984 2.82227 8.10547 3.0957 8.00781C3.93555 7.73438 4.85352 7.56836 5.82031 7.56836C7.71484 7.56836 9.24805 8.38867 10.6543 8.38867C11.3477 8.38867 11.7773 8.03711 11.7773 7.4707C11.7773 6.9043 11.377 6.55273 10.8594 6.55273C10.4395 6.55273 10.1074 6.81641 10.0293 7.24609C9.9707 7.54883 9.74609 7.70508 9.49219 7.66602C9.26758 7.62695 9.0918 7.40234 9.15039 7.11914C9.26758 6.28906 9.96094 5.67383 10.8594 5.67383C11.8555 5.67383 12.6562 6.42578 12.6562 7.4707C12.6562 8.52539 11.8164 9.27734 10.6543 9.27734ZM7.65625 12.6172C6.85547 12.6172 6.31836 12.0312 6.23047 11.3281C6.19141 11.0742 6.30859 10.8008 6.63086 10.7812C6.91406 10.752 7.08984 10.9668 7.12891 11.1914C7.1875 11.5527 7.34375 11.7285 7.65625 11.7285C7.95898 11.7285 8.19336 11.5527 8.19336 11.1816C8.19336 10.5762 7.38281 10.1953 5.69336 10.1953C4.87305 10.1953 4.10156 10.332 3.36914 10.5957C3.07617 10.6836 2.8418 10.5371 2.7832 10.3027C2.69531 10.0781 2.82227 9.84375 3.08594 9.74609C3.89648 9.47266 4.85352 9.30664 5.69336 9.30664C7.88086 9.30664 9.08203 9.9707 9.08203 11.1816C9.08203 12.0312 8.44727 12.6172 7.65625 12.6172ZM10.8594 5.06836C10.7129 5.06836 10.6152 4.95117 10.625 4.81445L10.6543 4.35547L10.2734 4.62891C10.1758 4.69727 9.99023 4.66797 9.94141 4.55078C9.89258 4.44336 9.90234 4.27734 10.0488 4.20898L10.459 4.02344L10.0488 3.80859C9.91211 3.74023 9.89258 3.57422 9.95117 3.48633C10.0098 3.34961 10.1758 3.33008 10.2734 3.4082L10.6543 3.68164L10.6152 3.22266C10.6152 3.07617 10.7129 2.96875 10.8594 2.96875C10.9961 2.96875 11.0938 3.07617 11.084 3.23242L11.0547 3.68164L11.4258 3.4082C11.5234 3.33008 11.709 3.36914 11.7676 3.48633C11.8164 3.59375 11.7969 3.74023 11.6504 3.80859L11.2402 4.02344L11.6504 4.20898C11.7969 4.27734 11.8359 4.46289 11.7578 4.56055C11.6992 4.6582 11.5234 4.69727 11.4258 4.62891L11.0547 4.35547L11.084 4.81445C11.0938 4.95117 10.9961 5.06836 10.8594 5.06836ZM10.6738 11.8945C10.5273 11.8945 10.4492 11.7773 10.459 11.6602L10.4785 11.2598L10.1465 11.4941C10.0586 11.5625 9.88281 11.5332 9.84375 11.4258C9.79492 11.3184 9.80469 11.1719 9.94141 11.1035L10.293 10.9473L9.94141 10.7715C9.80469 10.6934 9.79492 10.5469 9.85352 10.459C9.90234 10.3418 10.0586 10.3223 10.1465 10.3906L10.4785 10.6348L10.4492 10.2246C10.4395 10.1074 10.5273 10 10.6738 10C10.791 10 10.8789 10.1074 10.8691 10.2344L10.8398 10.6348L11.1719 10.3906C11.2598 10.3223 11.4258 10.3516 11.4844 10.459C11.5234 10.5664 11.5039 10.6934 11.3867 10.7617L11.0156 10.9473L11.3867 11.1035C11.5137 11.1719 11.543 11.3379 11.4746 11.4355C11.416 11.5234 11.2598 11.5625 11.1719 11.4941L10.8398 11.2598L10.8691 11.6602C10.8789 11.7773 10.791 11.8945 10.6738 11.8945Z" fill="#ffffff" fill-opacity="0.85"/>
 </g>
</svg>
