<?xml version="1.0" encoding="UTF-8"?>
<!--Generator: Apple Native CoreSVG 232.5-->
<!DOCTYPE svg
PUBLIC "-//W3C//DTD SVG 1.1//EN"
       "http://www.w3.org/Graphics/SVG/1.1/DTD/svg11.dtd">
<svg version="1.1" xmlns="http://www.w3.org/2000/svg" xmlns:xlink="http://www.w3.org/1999/xlink" width="16.1328" height="15.7715">
 <g>
  <rect height="15.7715" opacity="0" width="16.1328" x="0" y="0"/>
  <path d="M7.88086 15.7617C12.1875 15.7617 15.7715 12.1875 15.7715 7.88086C15.7715 3.57422 12.1777 0 7.87109 0C3.57422 0 0 3.57422 0 7.88086C0 12.1875 3.58398 15.7617 7.88086 15.7617Z" fill="#ffffff" fill-opacity="0.25"/>
  <path d="M4.3457 7.70508C4.3457 7.45117 4.54102 7.26562 4.77539 7.26562L5.13672 7.26562L4.75586 4.84375C4.73633 4.75586 4.7168 4.67773 4.7168 4.58008C4.7168 4.25781 4.96094 4.0625 5.29297 4.0625C5.57617 4.0625 5.82031 4.21875 5.85938 4.53125L6.18164 7.26562L6.79688 7.26562L7.19727 4.64844C7.25586 4.26758 7.53906 4.0625 7.87109 4.0625C8.20312 4.0625 8.50586 4.26758 8.56445 4.63867L8.96484 7.25586L9.60938 7.25586L9.95117 4.51172C9.99023 4.20898 10.2344 4.05273 10.5078 4.05273C10.8301 4.05273 11.0645 4.23828 11.0645 4.55078C11.0645 4.64844 11.0449 4.72656 11.0352 4.80469L10.6445 7.25586L10.9961 7.25586C11.2402 7.25586 11.4258 7.44141 11.4258 7.69531C11.4258 7.92969 11.2402 8.13477 10.9961 8.13477L10.5078 8.13477L10 11.3574C9.94141 11.709 9.67773 11.9043 9.35547 11.9043C9.0332 11.9043 8.76953 11.7285 8.71094 11.3574L8.20312 8.13477L7.57812 8.13477L7.08984 11.3574C7.03125 11.7285 6.76758 11.9043 6.43555 11.9043C6.12305 11.9043 5.85938 11.709 5.80078 11.3574L5.27344 8.14453L4.77539 8.14453C4.54102 8.14453 4.3457 7.93945 4.3457 7.70508ZM6.29883 8.125L6.45508 9.92188L6.67969 8.125ZM7.72461 7.26562L8.07617 7.26562L7.89062 5.81055ZM9.0918 8.125L9.32617 9.99023L9.52148 8.125Z" fill="#ffffff" fill-opacity="0.85"/>
 </g>
</svg>
