<?xml version="1.0" encoding="UTF-8"?>
<!--Generator: Apple Native CoreSVG 232.5-->
<!DOCTYPE svg
PUBLIC "-//W3C//DTD SVG 1.1//EN"
       "http://www.w3.org/Graphics/SVG/1.1/DTD/svg11.dtd">
<svg version="1.1" xmlns="http://www.w3.org/2000/svg" xmlns:xlink="http://www.w3.org/1999/xlink" width="16.3086" height="15.2832">
 <g>
  <rect height="15.2832" opacity="0" width="16.3086" x="0" y="0"/>
  <path d="M5.55664 15.2832L10.3809 15.2832C11.2695 15.2832 11.7578 15 12.2363 14.4824L15.2832 11.0938C15.8105 10.5078 15.9473 10.127 15.9473 9.35547L15.9473 5.92773C15.9473 5.15625 15.8105 4.77539 15.2832 4.18945L12.2363 0.800781C11.7578 0.283203 11.2695 0 10.3809 0L5.55664 0C4.67773 0 4.17969 0.283203 3.71094 0.800781L0.654297 4.18945C0.136719 4.77539 0 5.15625 0 5.92773L0 9.35547C0 10.127 0.136719 10.5078 0.654297 11.0938L3.71094 14.4824C4.17969 15 4.67773 15.2832 5.55664 15.2832ZM6.05469 13.877C5.38086 13.877 5.16602 13.7402 4.78516 13.3301L1.99219 10.2441C1.69922 9.91211 1.63086 9.72656 1.63086 9.17969L1.63086 6.10352C1.63086 5.55664 1.69922 5.37109 1.99219 5.03906L4.78516 1.95312C5.16602 1.54297 5.38086 1.40625 6.05469 1.40625L9.88281 1.40625C10.5664 1.40625 10.7812 1.54297 11.1621 1.95312L13.9453 5.03906C14.248 5.37109 14.3164 5.55664 14.3164 6.10352L14.3164 9.17969C14.3164 9.72656 14.248 9.91211 13.9453 10.2441L11.1621 13.3301C10.7812 13.7402 10.5664 13.877 9.88281 13.877Z" fill="#ffffff" fill-opacity="0.85"/>
  <path d="M5.40039 10.918C5.58594 10.918 5.77148 10.8496 5.88867 10.7129L7.96875 8.62305L10.0586 10.7129C10.1855 10.8398 10.3516 10.918 10.5469 10.918C10.9375 10.918 11.25 10.6055 11.25 10.2148C11.25 10.0195 11.1719 9.86328 11.0449 9.72656L8.95508 7.64648L11.0449 5.54688C11.1914 5.41016 11.2598 5.25391 11.2598 5.06836C11.2598 4.67773 10.9473 4.375 10.5566 4.375C10.3809 4.375 10.2344 4.43359 10.0879 4.58008L7.96875 6.67969L5.86914 4.58984C5.75195 4.45312 5.58594 4.38477 5.40039 4.38477C5.01953 4.38477 4.70703 4.6875 4.70703 5.07812C4.70703 5.26367 4.77539 5.42969 4.91211 5.55664L6.99219 7.64648L4.91211 9.73633C4.77539 9.86328 4.70703 10.0293 4.70703 10.2148C4.70703 10.6055 5.01953 10.918 5.40039 10.918Z" fill="#ffffff" fill-opacity="0.85"/>
 </g>
</svg>
