<?xml version="1.0" encoding="UTF-8"?>
<!--Generator: Apple Native CoreSVG 232.5-->
<!DOCTYPE svg
PUBLIC "-//W3C//DTD SVG 1.1//EN"
       "http://www.w3.org/Graphics/SVG/1.1/DTD/svg11.dtd">
<svg version="1.1" xmlns="http://www.w3.org/2000/svg" xmlns:xlink="http://www.w3.org/1999/xlink" width="18.5645" height="14.248">
 <g>
  <rect height="14.248" opacity="0" width="18.5645" x="0" y="0"/>
  <path d="M5.04883 14.248L13.1543 14.248C14.6973 14.248 15.3027 13.4375 15.5371 11.9043L16.6113 4.66797L1.58203 4.66797L2.66602 11.9043C2.90039 13.4375 3.50586 14.248 5.04883 14.248ZM1.35742 3.52539L16.8457 3.52539C17.7539 3.52539 18.2031 2.99805 18.2031 2.08984L18.2031 1.44531C18.2031 0.546875 17.7539 0.00976562 16.8457 0.00976562L1.35742 0.00976562C0.498047 0.00976562 0 0.546875 0 1.44531L0 2.08984C0 2.99805 0.449219 3.52539 1.35742 3.52539Z" fill="#ffffff" fill-opacity="0.25"/>
  <path d="M6.83594 12.1777C6.45508 12.1777 6.13281 11.8457 6.13281 11.4746C6.13281 11.2793 6.23047 11.1133 6.34766 10.9961L8.11523 9.20898L6.34766 7.42188C6.23047 7.30469 6.13281 7.13867 6.13281 6.94336C6.13281 6.57227 6.45508 6.25977 6.83594 6.25977C7.02148 6.25977 7.16797 6.34766 7.30469 6.46484L9.0918 8.24219L10.8984 6.45508C11.0449 6.32812 11.1914 6.24023 11.3672 6.24023C11.748 6.24023 12.0703 6.5625 12.0703 6.94336C12.0703 7.12891 11.9824 7.26562 11.8555 7.41211L10.0781 9.20898L11.8457 10.9863C11.9629 11.1133 12.0605 11.2695 12.0605 11.4746C12.0605 11.8457 11.7383 12.1777 11.3672 12.1777C11.1621 12.1777 10.9961 12.0703 10.8789 11.9629L9.0918 10.1855L7.31445 11.9629C7.19727 12.0801 7.02148 12.1777 6.83594 12.1777Z" fill="#ffffff" fill-opacity="0.85"/>
 </g>
</svg>
