<svg version="1.1" xmlns="http://www.w3.org/2000/svg" xmlns:xlink="http://www.w3.org/1999/xlink" width="18.75" height="14.248" viewBox="0 0 18.75 14.248">
 <g>
  <rect height="14.248" opacity="0" width="18.75" x="0" y="0"/>
  <path d="M5.14648 14.248L13.2422 14.248C14.7949 14.248 15.4785 13.5449 15.7129 11.9922L16.9336 3.66211L15.5273 3.75L14.3164 11.9727C14.209 12.6758 13.8379 12.9297 13.2227 12.9297L5.16602 12.9297C4.55078 12.9297 4.16992 12.6758 4.07227 11.9727L2.86133 3.75L1.45508 3.66211L2.67578 11.9922C2.91016 13.5547 3.59375 14.248 5.14648 14.248ZM1.54297 4.4043L16.8457 4.4043C17.8516 4.4043 18.3887 3.7793 18.3887 2.7832L18.3887 1.63086C18.3887 0.634766 17.8516 0.00976562 16.8457 0.00976562L1.54297 0.00976562C0.595703 0.00976562 0 0.634766 0 1.63086L0 2.7832C0 3.7793 0.537109 4.4043 1.54297 4.4043ZM1.92383 3.0957C1.54297 3.0957 1.40625 2.95898 1.40625 2.57812L1.40625 1.8457C1.40625 1.46484 1.54297 1.32812 1.92383 1.32812L16.4746 1.32812C16.8555 1.32812 16.9824 1.46484 16.9824 1.8457L16.9824 2.57812C16.9824 2.95898 16.8555 3.0957 16.4746 3.0957Z" fill="var(--color-primary)"/>
  <path d="M7.01172 11.4941C7.1875 11.4941 7.35352 11.4062 7.4707 11.2793L9.17969 9.57031L10.9082 11.2793C11.0254 11.3965 11.1816 11.4941 11.377 11.4941C11.7383 11.4941 12.041 11.1816 12.041 10.8105C12.041 10.6152 11.9531 10.4785 11.8359 10.3418L10.1367 8.63281L11.8457 6.9043C11.9727 6.75781 12.0508 6.63086 12.0508 6.45508C12.0508 6.07422 11.748 5.77148 11.377 5.77148C11.2012 5.77148 11.0645 5.84961 10.9277 5.98633L9.17969 7.70508L7.46094 5.99609C7.33398 5.86914 7.1875 5.79102 7.01172 5.79102C6.64062 5.79102 6.33789 6.08398 6.33789 6.45508C6.33789 6.64062 6.41602 6.78711 6.54297 6.91406L8.24219 8.63281L6.54297 10.3516C6.41602 10.4785 6.33789 10.625 6.33789 10.8105C6.33789 11.1816 6.64062 11.4941 7.01172 11.4941Z" fill="var(--color-primary)"/>
 </g>
</svg>
