<svg version="1.1" xmlns="http://www.w3.org/2000/svg" xmlns:xlink="http://www.w3.org/1999/xlink" width="16.1328" height="15.7715" viewBox="0 0 16.1328 15.7715">
 <g>
  <rect height="15.7715" opacity="0" width="16.1328" x="0" y="0"/>
  <path d="M15.7715 7.88086C15.7715 12.1875 12.1875 15.7617 7.88086 15.7617C3.58398 15.7617 0 12.1875 0 7.88086C0 3.57422 3.57422 0 7.87109 0C12.1777 0 15.7715 3.57422 15.7715 7.88086ZM9.58984 4.50195L7.91992 7.49023L7.87109 7.49023L6.2207 4.50195C6.03516 4.16016 5.85938 4.04297 5.53711 4.04297C5.15625 4.04297 4.86328 4.32617 4.86328 4.67773C4.86328 4.80469 4.90234 4.95117 4.99023 5.08789L7.16797 8.84766L7.16797 10.7129C7.16797 11.2012 7.41211 11.543 7.88086 11.543C8.35938 11.543 8.61328 11.2305 8.61328 10.7129L8.61328 8.82812L10.7812 5.08789C10.8691 4.9707 10.9082 4.81445 10.9082 4.69727C10.9082 4.31641 10.6348 4.04297 10.2441 4.04297C9.94141 4.04297 9.76562 4.16992 9.58984 4.50195Z" fill="var(--color-primary)"/>
 </g>
</svg>
