<svg version="1.1" xmlns="http://www.w3.org/2000/svg" xmlns:xlink="http://www.w3.org/1999/xlink" width="17.6218" height="15.7715" viewBox="0 0 17.6218 15.7715">
 <g>
  <rect height="15.7715" opacity="0" width="17.6218" x="0" y="0"/>
  <path d="M9.37242 15.7617C13.6791 15.7617 17.263 12.1875 17.263 7.88086C17.263 3.57422 13.6791 0 9.37242 0C5.06578 0 1.49156 3.56445 1.49156 7.87109L2.9857 7.87109C2.9857 4.31641 5.81773 1.49414 9.37242 1.49414C12.9271 1.49414 15.7689 4.32617 15.7689 7.88086C15.7689 11.4355 12.9271 14.2969 9.37242 14.2773C7.28258 14.2676 5.43687 13.291 4.28453 11.7578C4.02086 11.3965 3.60094 11.2891 3.23961 11.5137C2.87828 11.7285 2.79039 12.2168 3.08336 12.5977C4.55797 14.502 6.83336 15.7617 9.37242 15.7617ZM0.602889 6.35742C-0.0123451 6.35742-0.158829 6.77734 0.173202 7.24609L1.91148 9.7168C2.18492 10.0977 2.59508 10.0977 2.85875 9.7168L4.59703 7.23633C4.9193 6.77734 4.76305 6.35742 4.15758 6.35742Z" fill="var(--color-secondary)"/>
  <path d="M9.37242 11.8262C9.69469 11.8262 9.9193 11.6016 9.9193 11.2598L9.9193 10.2441L11.3158 10.2441C11.5599 10.2441 11.7259 10.0586 11.7259 9.82422C11.7259 9.58984 11.5599 9.4043 11.3158 9.4043L9.9193 9.4043L9.9193 8.83789L11.3158 8.83789C11.5599 8.83789 11.7259 8.65234 11.7259 8.41797C11.7259 8.18359 11.5599 7.99805 11.3158 7.99805L10.3002 7.99805L12.1459 5.00977C12.224 4.89258 12.2435 4.78516 12.2435 4.6582C12.2435 4.375 12.0091 4.15039 11.6966 4.15039C11.4916 4.15039 11.3353 4.23828 11.2181 4.43359L9.38219 7.57812L7.53648 4.42383C7.4193 4.22852 7.26305 4.14062 7.05797 4.14062C6.74547 4.14062 6.51109 4.36523 6.51109 4.64844C6.51109 4.77539 6.54039 4.88281 6.60875 5L8.45445 7.99805L7.42906 7.99805C7.18492 7.99805 7.02867 8.18359 7.02867 8.41797C7.02867 8.65234 7.19469 8.83789 7.42906 8.83789L8.83531 8.83789L8.83531 9.4043L7.42906 9.4043C7.18492 9.4043 7.02867 9.58984 7.02867 9.82422C7.02867 10.0586 7.19469 10.2441 7.42906 10.2441L8.83531 10.2441L8.83531 11.2598C8.83531 11.5918 9.05015 11.8262 9.37242 11.8262Z" fill="var(--color-primary)"/>
 </g>
</svg>
