<svg version="1.1" xmlns="http://www.w3.org/2000/svg" xmlns:xlink="http://www.w3.org/1999/xlink" width="14.5898" height="14.248" viewBox="0 0 14.5898 14.248">
 <g>
  <rect height="14.248" opacity="0" width="14.5898" x="0" y="0"/>
  <path d="M14.2285 2.4707L14.2285 11.7871C14.2285 13.4277 13.4082 14.248 11.7383 14.248L2.49023 14.248C0.830078 14.248 0 13.4277 0 11.7871L0 2.4707C0 0.830078 0.830078 0.00976562 2.49023 0.00976562L11.7383 0.00976562C13.4082 0.00976562 14.2285 0.830078 14.2285 2.4707ZM4.14062 3.65234C4.14062 3.78906 4.16992 3.88672 4.25781 4.02344L6.16211 7.12891L5.09766 7.12891C4.84375 7.12891 4.67773 7.32422 4.67773 7.56836C4.67773 7.8125 4.85352 7.99805 5.09766 7.99805L6.5625 7.99805L6.5625 8.59375L5.09766 8.59375C4.84375 8.59375 4.67773 8.7793 4.67773 9.02344C4.67773 9.27734 4.85352 9.45312 5.09766 9.45312L6.5625 9.45312L6.5625 10.5078C6.5625 10.8691 6.78711 11.1133 7.11914 11.1133C7.45117 11.1133 7.68555 10.8789 7.68555 10.5176L7.68555 9.45312L9.13086 9.45312C9.38477 9.45312 9.56055 9.27734 9.56055 9.02344C9.56055 8.7793 9.38477 8.59375 9.13086 8.59375L7.68555 8.59375L7.68555 7.99805L9.13086 7.99805C9.38477 7.99805 9.56055 7.8125 9.56055 7.56836C9.56055 7.32422 9.38477 7.12891 9.13086 7.12891L8.08594 7.12891L9.99023 4.0332C10.0684 3.89648 10.0977 3.79883 10.0977 3.66211C10.0977 3.36914 9.85352 3.13477 9.54102 3.13477C9.31641 3.13477 9.15039 3.23242 9.02344 3.42773L7.12891 6.68945L5.21484 3.41797C5.08789 3.21289 4.92188 3.125 4.70703 3.125C4.38477 3.125 4.14062 3.35938 4.14062 3.65234Z" fill="var(--color-primary)"/>
 </g>
</svg>
