<svg version="1.1" xmlns="http://www.w3.org/2000/svg" xmlns:xlink="http://www.w3.org/1999/xlink" viewBox="0 0 25.3809 22.9785">
 <g>
  <rect height="22.9785" opacity="0" width="25.3809" x="0" y="0"/>
  <path d="M3.79883 22.9785L21.2109 22.9785C23.7402 22.9785 25.0195 21.709 25.0195 19.2188L25.0195 3.78906C25.0195 1.29883 23.7402 0.0292969 21.2109 0.0292969L3.79883 0.0292969C1.2793 0.0292969 0 1.28906 0 3.78906L0 19.2188C0 21.7188 1.2793 22.9785 3.79883 22.9785ZM3.66211 21.25C2.41211 21.25 1.72852 20.5859 1.72852 19.2969L1.72852 7.64648C1.72852 6.34766 2.41211 5.69336 3.66211 5.69336L21.3379 5.69336C22.5781 5.69336 23.2812 6.34766 23.2812 7.64648L23.2812 19.2969C23.2812 20.5859 22.5781 21.25 21.3379 21.25Z" fill="var(--color-secondary)"/>
  <path d="M9.18945 18.7012C9.61914 18.7012 9.99023 18.3398 9.99023 17.8906L9.99023 9.12109C9.99023 8.56445 9.62891 8.22266 9.07227 8.22266C8.60352 8.22266 8.23242 8.47656 7.96875 8.68164L6.49414 9.85352C6.29883 10 6.15234 10.2148 6.15234 10.498C6.15234 10.8398 6.38672 11.084 6.72852 11.084C6.9043 11.084 7.01172 11.0352 7.11914 10.9473L8.37891 9.93164L8.37891 17.8906C8.37891 18.3398 8.75 18.7012 9.18945 18.7012ZM15.1465 18.8086C17.6074 18.8086 18.3008 15.918 18.3008 13.4668C18.3008 11.0156 17.6074 8.125 15.1465 8.125C12.6855 8.125 11.9824 11.0156 11.9824 13.4668C11.9824 15.918 12.6855 18.8086 15.1465 18.8086ZM15.1465 17.4902C13.9648 17.4902 13.5938 15.5664 13.5938 13.4668C13.5938 11.377 13.9648 9.44336 15.1465 9.44336C16.3281 9.44336 16.6992 11.377 16.6992 13.4668C16.6992 15.5664 16.3281 17.4902 15.1465 17.4902Z" fill="var(--color-primary)"/>
 </g>
</svg>
