<?xml version="1.0" encoding="UTF-8"?>
<!--Generator: Apple Native CoreSVG 341-->
<!DOCTYPE svg
PUBLIC "-//W3C//DTD SVG 1.1//EN"
       "http://www.w3.org/Graphics/SVG/1.1/DTD/svg11.dtd">
<svg version="1.1" xmlns="http://www.w3.org/2000/svg" xmlns:xlink="http://www.w3.org/1999/xlink" viewBox="0 0 25.3809 22.9785">
 <g>
  <rect height="22.9785" opacity="0" width="25.3809" x="0" y="0"/>
  <path d="M3.79883 22.9785L21.2109 22.9785C23.7402 22.9785 25.0195 21.709 25.0195 19.2188L25.0195 3.78906C25.0195 1.29883 23.7402 0.0292969 21.2109 0.0292969L3.79883 0.0292969C1.2793 0.0292969 0 1.28906 0 3.78906L0 19.2188C0 21.7188 1.2793 22.9785 3.79883 22.9785ZM3.66211 21.25C2.41211 21.25 1.72852 20.5859 1.72852 19.2969L1.72852 7.64648C1.72852 6.34766 2.41211 5.69336 3.66211 5.69336L21.3379 5.69336C22.5781 5.69336 23.2812 6.34766 23.2812 7.64648L23.2812 19.2969C23.2812 20.5859 22.5781 21.25 21.3379 21.25Z" fill="white" fill-opacity="0.425"/>
  <path d="M6.9043 18.5645L11.2598 18.5645C11.6504 18.5645 11.8945 18.3008 11.8945 17.9102C11.8945 17.5 11.6406 17.2656 11.2598 17.2656L8.125 17.2656L8.125 17.1777L10.1074 14.5801C11.2988 13.0664 11.6992 12.1387 11.6992 11.0449C11.6992 9.36523 10.6152 8.125 8.91602 8.125C7.33398 8.125 6.17188 9.47266 6.17188 10.791C6.17188 11.1816 6.40625 11.4844 6.83594 11.4844C7.20703 11.4844 7.43164 11.3086 7.53906 10.957C7.75391 10.0293 8.11523 9.41406 8.90625 9.41406C9.76562 9.41406 10.2051 10.1953 10.2051 11.1133C10.2051 12.1094 9.58008 13.0762 8.87695 14.0039L6.55273 17.0508C6.34766 17.3145 6.16211 17.5879 6.16211 17.9199C6.16211 18.3008 6.40625 18.5645 6.9043 18.5645ZM13.9746 18.5645L18.3398 18.5645C18.7305 18.5645 18.9746 18.3008 18.9746 17.9102C18.9746 17.5 18.7207 17.2656 18.3398 17.2656L15.1953 17.2656L15.1953 17.1777L17.1777 14.5801C18.3691 13.0664 18.7695 12.1387 18.7695 11.0449C18.7695 9.36523 17.6855 8.125 15.9863 8.125C14.4043 8.125 13.252 9.47266 13.252 10.791C13.252 11.1816 13.4863 11.4844 13.916 11.4844C14.2773 11.4844 14.502 11.3086 14.6094 10.957C14.834 10.0293 15.1855 9.41406 15.9766 9.41406C16.8359 9.41406 17.2754 10.1953 17.2754 11.1133C17.2754 12.1094 16.6602 13.0762 15.957 14.0039L13.6328 17.0508C13.418 17.3145 13.2324 17.5879 13.2324 17.9199C13.2324 18.3008 13.4863 18.5645 13.9746 18.5645Z" fill="white" fill-opacity="0.85"/>
 </g>
</svg>
