<svg version="1.1" xmlns="http://www.w3.org/2000/svg" xmlns:xlink="http://www.w3.org/1999/xlink" viewBox="0 0 25.8008 25.459">
 <g>
  <rect height="25.459" opacity="0" width="25.8008" x="0" y="0"/>
  <path d="M12.7148 25.4395C19.7266 25.4395 25.4395 19.7266 25.4395 12.7246C25.4395 5.71289 19.7266 0 12.7148 0C5.71289 0 0 5.71289 0 12.7246C0 19.7266 5.71289 25.4395 12.7148 25.4395Z" fill="var(--color-tertiary)"/>
  <path d="M6.80664 17.9492C6.28906 17.9492 6.03516 17.666 6.03516 17.2852C6.03516 16.9238 6.23047 16.6504 6.44531 16.377L8.81836 13.2617C9.54102 12.334 10.1758 11.3281 10.1758 10.3027C10.1758 9.375 9.72656 8.58398 8.85742 8.58398C8.03711 8.58398 7.68555 9.19922 7.45117 10.1465C7.35352 10.5176 7.10938 10.6934 6.73828 10.6934C6.28906 10.6934 6.05469 10.3809 6.05469 9.9707C6.05469 8.62305 7.24609 7.25586 8.85742 7.25586C10.6055 7.25586 11.7285 8.52539 11.7285 10.2344C11.7285 11.3574 11.3086 12.3047 10.0781 13.8672L8.06641 16.5039L8.06641 16.5918L11.2695 16.5918C11.6602 16.5918 11.9238 16.8457 11.9238 17.2754C11.9238 17.6758 11.6699 17.9492 11.2695 17.9492ZM16.4062 18.1543C15.0391 18.1543 13.7988 17.4609 13.4277 16.2793C13.3594 16.0742 13.3301 15.8301 13.3301 15.6055C13.3301 15.166 13.623 14.8926 14.0723 14.8926C14.4531 14.8926 14.6777 15.0879 14.7949 15.4785C14.9414 16.123 15.4199 16.8164 16.416 16.8164C17.4512 16.8164 17.959 15.9961 17.959 15.0391C17.959 13.8379 17.3047 13.2031 16.1523 13.2031L15.7715 13.2031C15.4004 13.2031 15.1465 12.9688 15.1465 12.5977C15.1465 12.2266 15.3809 11.9824 15.7715 11.9824L16.1328 11.9824C17.1582 11.9824 17.7246 11.2402 17.7246 10.2539C17.7246 9.33594 17.2754 8.62305 16.3672 8.62305C15.5566 8.62305 15.127 9.18945 14.9219 10C14.8145 10.3906 14.5996 10.5566 14.1992 10.5566C13.7402 10.5566 13.5059 10.2539 13.5059 9.88281C13.5059 9.67773 13.5254 9.44336 13.6035 9.18945C13.9648 8.05664 15.0488 7.30469 16.3672 7.30469C18.0078 7.30469 19.2773 8.33008 19.2773 10.0684C19.2773 11.1621 18.7012 12.207 17.5293 12.5195L17.5293 12.5586C18.6816 12.6758 19.5703 13.5254 19.5703 15.0781C19.5703 17.002 18.2129 18.1543 16.4062 18.1543Z" fill="var(--color-primary)"/>
 </g>
</svg>
