<?xml version="1.0" encoding="UTF-8"?>
<!--Generator: Apple Native CoreSVG 341-->
<!DOCTYPE svg
PUBLIC "-//W3C//DTD SVG 1.1//EN"
       "http://www.w3.org/Graphics/SVG/1.1/DTD/svg11.dtd">
<svg version="1.1" xmlns="http://www.w3.org/2000/svg" xmlns:xlink="http://www.w3.org/1999/xlink" viewBox="0 0 25.3809 22.9785">
 <g>
  <rect height="22.9785" opacity="0" width="25.3809" x="0" y="0"/>
  <path d="M3.79883 22.9785L21.2109 22.9785C23.7402 22.9785 25.0195 21.709 25.0195 19.2188L25.0195 3.78906C25.0195 1.29883 23.7402 0.0292969 21.2109 0.0292969L3.79883 0.0292969C1.2793 0.0292969 0 1.28906 0 3.78906L0 19.2188C0 21.7188 1.2793 22.9785 3.79883 22.9785ZM3.66211 21.25C2.41211 21.25 1.72852 20.5859 1.72852 19.2969L1.72852 7.64648C1.72852 6.34766 2.41211 5.69336 3.66211 5.69336L21.3379 5.69336C22.5781 5.69336 23.2812 6.34766 23.2812 7.64648L23.2812 19.2969C23.2812 20.5859 22.5781 21.25 21.3379 21.25Z" fill="white" fill-opacity="0.85"/>
  <path d="M6.74805 18.5645L11.1133 18.5645C11.5039 18.5645 11.748 18.3008 11.748 17.9102C11.748 17.5 11.4941 17.2656 11.1133 17.2656L7.96875 17.2656L7.96875 17.1777L9.95117 14.5801C11.1426 13.0664 11.543 12.1387 11.543 11.0449C11.543 9.36523 10.459 8.125 8.75977 8.125C7.17773 8.125 6.02539 9.47266 6.02539 10.791C6.02539 11.1816 6.25977 11.4844 6.68945 11.4844C7.05078 11.4844 7.27539 11.3086 7.38281 10.957C7.59766 10.0293 7.95898 9.41406 8.75 9.41406C9.60938 9.41406 10.0488 10.1953 10.0488 11.1133C10.0488 12.1094 9.43359 13.0762 8.73047 14.0039L6.39648 17.0508C6.19141 17.3145 6.00586 17.5879 6.00586 17.9199C6.00586 18.3008 6.25 18.5645 6.74805 18.5645ZM16.123 18.7793C17.8711 18.7793 19.209 17.6367 19.209 15.7715C19.209 14.2578 18.3301 13.4277 17.2168 13.3105L17.2168 13.2715C18.3594 12.9688 18.9062 11.9434 18.9062 10.8789C18.9062 9.18945 17.6758 8.18359 16.0742 8.18359C14.7852 8.18359 13.7305 8.90625 13.3789 10.0293C13.3105 10.2734 13.2812 10.498 13.2812 10.6934C13.2812 11.0645 13.5254 11.3574 13.9551 11.3574C14.3457 11.3574 14.5508 11.1914 14.6582 10.8008C14.8535 10.0098 15.2832 9.46289 16.0742 9.46289C16.9629 9.46289 17.4121 10.166 17.4121 11.0547C17.4121 12.0312 16.8457 12.7441 15.8594 12.7441L15.498 12.7441C15.1074 12.7441 14.8828 12.9883 14.8828 13.3496C14.8828 13.7109 15.127 13.9355 15.498 13.9355L15.8691 13.9355C17.002 13.9355 17.6367 14.5605 17.6367 15.7324C17.6367 16.6699 17.1387 17.4805 16.123 17.4805C15.1465 17.4805 14.6777 16.7969 14.5312 16.1621C14.4336 15.791 14.1992 15.5859 13.8281 15.5859C13.3984 15.5859 13.1152 15.8496 13.1152 16.2891C13.1152 16.5039 13.1543 16.7383 13.2129 16.9434C13.5742 18.0957 14.7754 18.7793 16.123 18.7793Z" fill="white" fill-opacity="0.85"/>
 </g>
</svg>
