<svg version="1.1" xmlns="http://www.w3.org/2000/svg" xmlns:xlink="http://www.w3.org/1999/xlink" viewBox="0 0 25.3809 22.9785">
 <g>
  <rect height="22.9785" opacity="0" width="25.3809" x="0" y="0"/>
  <path d="M3.79883 22.9785L21.2109 22.9785C23.7402 22.9785 25.0195 21.709 25.0195 19.2188L25.0195 3.78906C25.0195 1.29883 23.7402 0.0292969 21.2109 0.0292969L3.79883 0.0292969C1.2793 0.0292969 0 1.28906 0 3.78906L0 19.2188C0 21.7188 1.2793 22.9785 3.79883 22.9785ZM3.66211 21.25C2.41211 21.25 1.72852 20.5859 1.72852 19.2969L1.72852 7.64648C1.72852 6.34766 2.41211 5.69336 3.66211 5.69336L21.3379 5.69336C22.5781 5.69336 23.2812 6.34766 23.2812 7.64648L23.2812 19.2969C23.2812 20.5859 22.5781 21.25 21.3379 21.25Z" fill="var(--color-secondary)"/>
  <path d="M6.60156 18.5645L10.957 18.5645C11.3477 18.5645 11.5918 18.3008 11.5918 17.9102C11.5918 17.5 11.3379 17.2656 10.957 17.2656L7.82227 17.2656L7.82227 17.1777L9.79492 14.5801C10.9961 13.0664 11.3965 12.1387 11.3965 11.0449C11.3965 9.36523 10.3125 8.125 8.60352 8.125C7.03125 8.125 5.86914 9.47266 5.86914 10.791C5.86914 11.1816 6.10352 11.4844 6.5332 11.4844C6.89453 11.4844 7.12891 11.3086 7.23633 10.957C7.45117 10.0293 7.8125 9.41406 8.60352 9.41406C9.45312 9.41406 9.89258 10.1953 9.89258 11.1133C9.89258 12.1094 9.27734 13.0762 8.57422 14.0039L6.25 17.0508C6.04492 17.3145 5.85938 17.5879 5.85938 17.9199C5.85938 18.3008 6.10352 18.5645 6.60156 18.5645ZM16.1719 18.8086C18.0566 18.8086 19.1113 17.1875 19.1113 15.2441C19.1113 13.5449 18.291 11.9141 16.6211 11.9141C15.5566 11.9141 14.7852 12.6562 14.5117 13.7598L14.4629 13.7598C14.4629 13.7012 14.4629 13.6523 14.4629 13.6035C14.4629 12.1191 14.6582 9.45312 16.1621 9.45312C16.8066 9.45312 17.2168 9.92188 17.4414 10.5273C17.5977 10.8691 17.8027 11.0449 18.1738 11.0449C18.6133 11.0449 18.8086 10.752 18.8086 10.3906C18.8086 10.2539 18.7891 10.0977 18.7402 9.93164C18.4668 8.83789 17.4219 8.1543 16.2012 8.1543C13.6621 8.1543 12.959 11.1328 12.959 13.623C12.959 15.9961 13.6914 18.8086 16.1719 18.8086ZM16.1523 17.5098C15.127 17.5098 14.6875 16.25 14.6875 15.2539C14.6875 14.248 15.1758 13.1348 16.1523 13.1348C17.1582 13.1348 17.5977 14.2969 17.5781 15.3027C17.5781 16.3184 17.1191 17.5098 16.1523 17.5098Z" fill="var(--color-primary)"/>
 </g>
</svg>
