<?xml version="1.0" encoding="UTF-8"?>
<!--Generator: Apple Native CoreSVG 341-->
<!DOCTYPE svg
PUBLIC "-//W3C//DTD SVG 1.1//EN"
       "http://www.w3.org/Graphics/SVG/1.1/DTD/svg11.dtd">
<svg version="1.1" xmlns="http://www.w3.org/2000/svg" xmlns:xlink="http://www.w3.org/1999/xlink" viewBox="0 0 25.3809 22.9785">
 <g>
  <rect height="22.9785" opacity="0" width="25.3809" x="0" y="0"/>
  <path d="M3.79883 22.9785L21.2109 22.9785C23.7402 22.9785 25.0195 21.709 25.0195 19.2188L25.0195 3.78906C25.0195 1.29883 23.7402 0.0292969 21.2109 0.0292969L3.79883 0.0292969C1.2793 0.0292969 0 1.28906 0 3.78906L0 19.2188C0 21.7188 1.2793 22.9785 3.79883 22.9785ZM3.66211 21.25C2.41211 21.25 1.72852 20.5859 1.72852 19.2969L1.72852 7.64648C1.72852 6.34766 2.41211 5.69336 3.66211 5.69336L21.3379 5.69336C22.5781 5.69336 23.2812 6.34766 23.2812 7.64648L23.2812 19.2969C23.2812 20.5859 22.5781 21.25 21.3379 21.25Z" fill="white" fill-opacity="0.425"/>
  <path d="M8.69141 18.7598C10.4395 18.7598 11.7773 17.627 11.7773 15.752C11.7773 14.2383 10.8984 13.4082 9.78516 13.291L9.78516 13.252C10.9277 12.9492 11.4746 11.9336 11.4746 10.8594C11.4746 9.16992 10.2539 8.16406 8.64258 8.16406C7.35352 8.16406 6.30859 8.89648 5.94727 10.0098C5.87891 10.2539 5.84961 10.4883 5.84961 10.6836C5.84961 11.0449 6.09375 11.3379 6.5332 11.3379C6.92383 11.3379 7.12891 11.1816 7.23633 10.791C7.42188 10 7.86133 9.44336 8.64258 9.44336C9.54102 9.44336 9.98047 10.1465 9.98047 11.0449C9.98047 12.0117 9.41406 12.7344 8.42773 12.7344L8.06641 12.7344C7.68555 12.7344 7.45117 12.9688 7.45117 13.3301C7.45117 13.6914 7.70508 13.916 8.06641 13.916L8.44727 13.916C9.57031 13.916 10.2051 14.541 10.2051 15.7129C10.2051 16.6504 9.7168 17.4609 8.70117 17.4609C7.71484 17.4609 7.25586 16.7773 7.09961 16.1426C7.00195 15.7715 6.77734 15.5762 6.40625 15.5762C5.97656 15.5762 5.68359 15.8398 5.68359 16.2695C5.68359 16.4844 5.72266 16.7285 5.79102 16.9238C6.14258 18.0762 7.35352 18.7598 8.69141 18.7598ZM16.2988 18.7988C18.7598 18.7988 19.4531 15.9082 19.4531 13.457C19.4531 11.0059 18.7598 8.11523 16.2988 8.11523C13.8379 8.11523 13.1445 11.0059 13.1445 13.457C13.1445 15.9082 13.8379 18.7988 16.2988 18.7988ZM16.2988 17.4805C15.1172 17.4805 14.7461 15.5469 14.7461 13.457C14.7461 11.3574 15.1172 9.43359 16.2988 9.43359C17.4805 9.43359 17.8516 11.3574 17.8516 13.457C17.8516 15.5469 17.4805 17.4805 16.2988 17.4805Z" fill="white" fill-opacity="0.85"/>
 </g>
</svg>
