<?xml version="1.0" encoding="UTF-8"?>
<!--Generator: Apple Native CoreSVG 341-->
<!DOCTYPE svg
PUBLIC "-//W3C//DTD SVG 1.1//EN"
       "http://www.w3.org/Graphics/SVG/1.1/DTD/svg11.dtd">
<svg version="1.1" xmlns="http://www.w3.org/2000/svg" xmlns:xlink="http://www.w3.org/1999/xlink" viewBox="0 0 25.8008 25.459">
 <g>
  <rect height="25.459" opacity="0" width="25.8008" x="0" y="0"/>
  <path d="M12.7148 25.4395C19.7266 25.4395 25.4395 19.7266 25.4395 12.7246C25.4395 5.71289 19.7266 0 12.7148 0C5.71289 0 0 5.71289 0 12.7246C0 19.7266 5.71289 25.4395 12.7148 25.4395Z" fill="white" fill-opacity="0.2125"/>
  <path d="M10.0684 18.1055C9.69727 18.1055 9.28711 17.8809 9.28711 17.2852L9.28711 15.8008L6.2793 15.8008C5.70312 15.8008 5.32227 15.4199 5.32227 14.8633C5.32227 14.502 5.39062 14.209 5.58594 13.7695L8.08594 8.47656C8.41797 7.75391 8.78906 7.34375 9.59961 7.34375C10.3125 7.34375 10.8496 7.76367 10.8496 8.57422L10.8496 14.4727L11.3965 14.4727C11.8359 14.4727 12.0508 14.7559 12.0508 15.127C12.0508 15.5176 11.8359 15.8008 11.3965 15.8008L10.8496 15.8008L10.8496 17.2852C10.8496 17.8223 10.498 18.1055 10.0684 18.1055ZM9.31641 14.502L9.31641 8.82812L9.26758 8.82812L6.74805 14.4336L6.74805 14.502ZM14.1309 17.9492C13.6133 17.9492 13.3594 17.666 13.3594 17.2852C13.3594 16.9336 13.5547 16.6504 13.7695 16.377L16.1426 13.2715C16.8555 12.334 17.4902 11.3281 17.4902 10.3027C17.4902 9.375 17.041 8.58398 16.1816 8.58398C15.3613 8.58398 15.0098 9.19922 14.7754 10.1465C14.6777 10.5176 14.4336 10.6934 14.0625 10.6934C13.6133 10.6934 13.3789 10.3809 13.3789 9.9707C13.3789 8.62305 14.5703 7.25586 16.1816 7.25586C17.9297 7.25586 19.043 8.52539 19.043 10.2344C19.043 11.3574 18.6328 12.3047 17.4023 13.8672L15.3906 16.5039L15.3906 16.6016L18.5938 16.6016C18.9844 16.6016 19.248 16.8457 19.248 17.2754C19.248 17.6758 18.9941 17.9492 18.5938 17.9492Z" fill="white" fill-opacity="0.85"/>
 </g>
</svg>
