<svg version="1.1" xmlns="http://www.w3.org/2000/svg" xmlns:xlink="http://www.w3.org/1999/xlink" viewBox="0 0 25.8008 25.459">
 <g>
  <rect height="25.459" opacity="0" width="25.8008" x="0" y="0"/>
  <path d="M12.7148 25.4395C19.7266 25.4395 25.4395 19.7266 25.4395 12.7246C25.4395 5.71289 19.7266 0 12.7148 0C5.71289 0 0 5.71289 0 12.7246C0 19.7266 5.71289 25.4395 12.7148 25.4395Z" fill="var(--color-tertiary)"/>
  <path d="M9.32617 18.1055C8.95508 18.1055 8.53516 17.8711 8.53516 17.2852L8.53516 15.8008L5.53711 15.8008C4.96094 15.8008 4.58008 15.4199 4.58008 14.8633C4.58008 14.502 4.64844 14.209 4.83398 13.7695L7.33398 8.4668C7.66602 7.75391 8.04688 7.34375 8.83789 7.34375C9.57031 7.34375 10.0977 7.75391 10.0977 8.57422L10.0977 14.4727L10.6445 14.4727C11.0938 14.4727 11.2988 14.7559 11.2988 15.127C11.2988 15.5176 11.084 15.8008 10.6445 15.8008L10.0977 15.8008L10.0977 17.2852C10.0977 17.8223 9.74609 18.1055 9.32617 18.1055ZM8.56445 14.502L8.56445 8.82812L8.51562 8.82812L5.99609 14.4336L5.99609 14.502ZM13.7793 18.0957C13.3203 18.0957 12.9492 17.7246 12.9492 17.2559L12.9492 8.16406C12.9492 7.71484 13.3203 7.34375 13.7793 7.34375C14.2285 7.34375 14.6094 7.71484 14.6094 8.16406L14.6094 11.9336L18.0273 11.9336L18.0273 8.16406C18.0273 7.71484 18.4082 7.34375 18.8672 7.34375C19.3066 7.34375 19.6875 7.71484 19.6875 8.16406L19.6875 17.2559C19.6875 17.7246 19.3066 18.0957 18.8672 18.0957C18.4082 18.0957 18.0273 17.7246 18.0273 17.2559L18.0273 13.3203L14.6094 13.3203L14.6094 17.2559C14.6094 17.7246 14.2285 18.0957 13.7793 18.0957Z" fill="var(--color-primary)"/>
 </g>
</svg>
