<?xml version="1.0" encoding="UTF-8"?>
<!--Generator: Apple Native CoreSVG 341-->
<!DOCTYPE svg
PUBLIC "-//W3C//DTD SVG 1.1//EN"
       "http://www.w3.org/Graphics/SVG/1.1/DTD/svg11.dtd">
<svg version="1.1" xmlns="http://www.w3.org/2000/svg" xmlns:xlink="http://www.w3.org/1999/xlink" viewBox="0 0 31.3477 24.6191">
 <g>
  <rect height="24.6191" opacity="0" width="31.3477" x="0" y="0"/>
  <path d="M3.05664 20.5957L27.9395 20.5957C29.9512 20.5957 30.9863 19.5996 30.9863 17.5488L30.9863 3.04688C30.9863 0.996094 29.9512 0 27.9395 0L3.05664 0C1.04492 0 0 0.996094 0 3.04688L0 17.5488C0 19.5996 1.04492 20.5957 3.05664 20.5957ZM9.24805 24.5996L21.748 24.5996C22.2266 24.5996 22.6172 24.209 22.6172 23.7305C22.6172 23.2422 22.2266 22.8516 21.748 22.8516L9.24805 22.8516C8.75977 22.8516 8.36914 23.2422 8.36914 23.7305C8.36914 24.209 8.75977 24.5996 9.24805 24.5996Z" fill="white" fill-opacity="0.2125"/>
  <path d="M12.1289 15.6836C11.7578 15.6836 11.3379 15.4492 11.3379 14.8633L11.3379 13.3887L8.33984 13.3887C7.76367 13.3887 7.38281 12.998 7.38281 12.4414C7.38281 12.0898 7.45117 11.7871 7.64648 11.3477L10.1562 6.04492C10.4785 5.33203 10.8496 4.92188 11.6504 4.92188C12.3828 4.92188 12.9004 5.3418 12.9004 6.15234L12.9004 12.0508L13.4473 12.0508C13.9062 12.0508 14.1016 12.3438 14.1016 12.7148C14.1016 13.0957 13.8965 13.3887 13.4473 13.3887L12.9004 13.3887L12.9004 14.8633C12.9004 15.4004 12.5488 15.6836 12.1289 15.6836ZM11.3672 12.0801L11.3672 6.40625L11.3184 6.40625L8.79883 12.0117L8.79883 12.0801ZM16.5723 15.7031C16.0645 15.7031 15.752 15.3516 15.752 14.834L15.752 5.81055C15.752 5.29297 16.0547 4.95117 16.5723 4.95117C17.1094 4.95117 17.4023 5.32227 17.4023 5.81055L17.4023 10.1367L17.4805 10.1367L20.5859 5.42969C20.7324 5.19531 20.9082 4.9707 21.3184 4.9707C21.8066 4.9707 22.0801 5.33203 22.0801 5.72266C22.0801 5.99609 21.9824 6.17188 21.8555 6.35742L19.502 9.80469L22.1875 14.248C22.334 14.502 22.3828 14.6582 22.3828 14.9121C22.3828 15.3418 22.0996 15.6738 21.6406 15.6738C21.2012 15.6738 20.9863 15.4688 20.7617 15.0781L18.3105 10.957L17.4219 12.3242L17.4219 14.834C17.4219 15.3125 17.1387 15.7031 16.5723 15.7031Z" fill="white" fill-opacity="0.85"/>
 </g>
</svg>
