<?xml version="1.0" encoding="UTF-8"?>
<!--Generator: Apple Native CoreSVG 341-->
<!DOCTYPE svg
PUBLIC "-//W3C//DTD SVG 1.1//EN"
       "http://www.w3.org/Graphics/SVG/1.1/DTD/svg11.dtd">
<svg version="1.1" xmlns="http://www.w3.org/2000/svg" xmlns:xlink="http://www.w3.org/1999/xlink" viewBox="0 0 23.3203 22.959">
 <g>
  <rect height="22.959" opacity="0" width="23.3203" x="0" y="0"/>
  <path d="M3.79883 22.959L19.1504 22.959C21.6797 22.959 22.959 21.6797 22.959 19.1992L22.959 3.76953C22.959 1.2793 21.6797 0 19.1504 0L3.79883 0C1.2793 0 0 1.26953 0 3.76953L0 19.1992C0 21.6992 1.2793 22.959 3.79883 22.959Z" fill="white" fill-opacity="0.2125"/>
  <path d="M7.14844 9.41406C7.14844 7.05078 8.94531 5.39062 11.543 5.39062C14.1602 5.39062 15.957 7.06055 15.957 9.50195C15.957 10.8789 15.3906 12.168 14.1895 13.7793C13.5547 14.6289 12.4902 15.9961 11.8066 16.8457C11.4844 17.2559 11.2988 17.5293 10.8594 17.5293C10.4004 17.5293 10.1172 17.207 10.1172 16.8652C10.1172 16.6504 10.2148 16.4453 10.3906 16.2207C11.3184 15.0781 12.1582 14.0527 12.8223 13.2031C13.1152 12.8418 13.3105 12.5684 13.4375 12.3535L13.2812 12.3438C12.8125 12.8223 11.8945 13.125 11.0156 13.125C8.7793 13.125 7.14844 11.5625 7.14844 9.41406ZM8.73047 9.3457C8.73047 10.8008 9.93164 11.8457 11.5625 11.8457C13.1738 11.8457 14.375 10.8105 14.375 9.36523C14.375 7.91016 13.1445 6.82617 11.543 6.82617C9.93164 6.82617 8.73047 7.90039 8.73047 9.3457Z" fill="white" fill-opacity="0.85"/>
 </g>
</svg>
