<?xml version="1.0" encoding="UTF-8"?>
<!--Generator: Apple Native CoreSVG 341-->
<!DOCTYPE svg
PUBLIC "-//W3C//DTD SVG 1.1//EN"
       "http://www.w3.org/Graphics/SVG/1.1/DTD/svg11.dtd">
<svg version="1.1" xmlns="http://www.w3.org/2000/svg" xmlns:xlink="http://www.w3.org/1999/xlink" viewBox="0 0 23.2715 22.9004">
 <g>
  <rect height="22.9004" opacity="0" width="23.2715" x="0" y="0"/>
  <path d="M6.81641 22.9004L16.0938 22.9004C18.3105 22.9004 20.0293 22.2754 21.1523 21.1523C22.3047 20.0098 22.9102 18.291 22.9102 16.084L22.9102 6.81641C22.9102 4.60938 22.3145 2.90039 21.1523 1.74805C20.0195 0.605469 18.3105 0 16.0938 0L6.81641 0C4.59961 0 2.88086 0.625 1.75781 1.74805C0.605469 2.89062 0 4.60938 0 6.81641L0 16.084C0 18.291 0.595703 20 1.75781 21.1523C2.89062 22.2852 4.59961 22.9004 6.81641 22.9004ZM6.81641 21.1719C5.15625 21.1719 3.87695 20.7227 3.02734 19.8828C2.16797 19.0332 1.72852 17.7539 1.72852 16.084L1.72852 6.81641C1.72852 5.14648 2.16797 3.86719 3.02734 3.01758C3.86719 2.1875 5.15625 1.72852 6.81641 1.72852L16.0938 1.72852C17.7637 1.72852 19.0332 2.17773 19.8828 3.01758C20.7422 3.86719 21.1816 5.14648 21.1816 6.81641L21.1816 16.084C21.1816 17.7539 20.7422 19.0332 19.8828 19.8828C19.043 20.7129 17.7637 21.1719 16.0938 21.1719Z" fill="white" fill-opacity="0.425"/>
  <path d="M17.9395 5.16602C17.3633 4.58008 16.1621 4.91211 15.2148 5.85938L13.291 7.7832C13.0664 8.00781 12.9492 8.05664 12.6367 8.04688L6.08398 7.75391C5.84961 7.74414 5.64453 7.82227 5.48828 7.97852L4.94141 8.51562C4.77539 8.69141 4.83398 8.95508 5.07812 9.04297L10.1465 10.957L8.11523 13.4863L5.78125 12.8125C5.56641 12.7539 5.39062 12.8027 5.20508 12.9785L5 13.1934C4.84375 13.3496 4.83398 13.5645 5 13.7207L9.38477 18.1055C9.54102 18.2715 9.75586 18.2617 9.91211 18.1055L10.1172 17.9004C10.3027 17.7148 10.3516 17.5391 10.293 17.3242L9.60938 14.9902L12.1484 12.959L14.0527 18.0176C14.1504 18.2715 14.4141 18.3301 14.5801 18.1543L15.127 17.6172C15.2832 17.4609 15.3516 17.2559 15.3418 17.0215L15.0586 10.4688C15.0488 10.1562 15.0879 10.0391 15.3223 9.80469L17.2363 7.89062C18.1934 6.94336 18.5156 5.74219 17.9395 5.16602Z" fill="white" fill-opacity="0.85"/>
 </g>
</svg>
