<svg version="1.1" xmlns="http://www.w3.org/2000/svg" xmlns:xlink="http://www.w3.org/1999/xlink" viewBox="0 0 23.5254 23.6035">
 <g>
  <rect height="23.6035" opacity="0" width="23.5254" x="0" y="0"/>
  <path d="M5.11719 1.63086C5.56641 1.63086 5.92773 1.26953 5.92773 0.820312C5.92773 0.380859 5.56641 0.0195312 5.11719 0.0195312C4.66797 0.0195312 4.30664 0.380859 4.30664 0.820312C4.30664 1.26953 4.66797 1.63086 5.11719 1.63086ZM9.42383 1.63086C9.87305 1.63086 10.2344 1.26953 10.2344 0.820312C10.2344 0.380859 9.87305 0.0195312 9.42383 0.0195312C8.98438 0.0195312 8.62305 0.380859 8.62305 0.820312C8.62305 1.26953 8.98438 1.63086 9.42383 1.63086ZM13.7402 1.63086C14.1797 1.63086 14.541 1.26953 14.541 0.820312C14.541 0.380859 14.1797 0.0195312 13.7402 0.0195312C13.291 0.0195312 12.9297 0.380859 12.9297 0.820312C12.9297 1.26953 13.291 1.63086 13.7402 1.63086ZM18.0469 1.63086C18.4961 1.63086 18.8574 1.26953 18.8574 0.820312C18.8574 0.380859 18.4961 0.0195312 18.0469 0.0195312C17.6074 0.0195312 17.2461 0.380859 17.2461 0.820312C17.2461 1.26953 17.6074 1.63086 18.0469 1.63086ZM0.810547 6.02539C1.25 6.02539 1.61133 5.66406 1.61133 5.21484C1.61133 4.76562 1.25 4.4043 0.810547 4.4043C0.361328 4.4043 0 4.76562 0 5.21484C0 5.66406 0.361328 6.02539 0.810547 6.02539ZM5.11719 6.23047C5.67383 6.23047 6.13281 5.78125 6.13281 5.21484C6.13281 4.6582 5.67383 4.19922 5.11719 4.19922C4.55078 4.19922 4.10156 4.6582 4.10156 5.21484C4.10156 5.78125 4.55078 6.23047 5.11719 6.23047ZM9.42383 6.48438C10.1172 6.48438 10.6934 5.9082 10.6934 5.21484C10.6934 4.52148 10.1172 3.94531 9.42383 3.94531C8.74023 3.94531 8.16406 4.52148 8.16406 5.21484C8.16406 5.9082 8.74023 6.48438 9.42383 6.48438ZM13.7402 6.48438C14.4336 6.48438 15 5.9082 15 5.21484C15 4.52148 14.4336 3.94531 13.7402 3.94531C13.0469 3.94531 12.4707 4.52148 12.4707 5.21484C12.4707 5.9082 13.0469 6.48438 13.7402 6.48438ZM18.0469 6.23047C18.6133 6.23047 19.0625 5.78125 19.0625 5.21484C19.0625 4.6582 18.6133 4.19922 18.0469 4.19922C17.4902 4.19922 17.0312 4.6582 17.0312 5.21484C17.0312 5.78125 17.4902 6.23047 18.0469 6.23047ZM22.3633 6.02539C22.8027 6.02539 23.1641 5.66406 23.1641 5.21484C23.1641 4.76562 22.8027 4.4043 22.3633 4.4043C21.9141 4.4043 21.5527 4.76562 21.5527 5.21484C21.5527 5.66406 21.9141 6.02539 22.3633 6.02539ZM0.810547 10.4297C1.25 10.4297 1.61133 10.0684 1.61133 9.62891C1.61133 9.17969 1.25 8.79883 0.810547 8.79883C0.361328 8.79883 0 9.17969 0 9.62891C0 10.0684 0.361328 10.4297 0.810547 10.4297ZM5.11719 10.8691C5.81055 10.8691 6.38672 10.293 6.38672 9.60938C6.38672 8.91602 5.81055 8.33984 5.11719 8.33984C4.42383 8.33984 3.84766 8.91602 3.84766 9.60938C3.84766 10.293 4.42383 10.8691 5.11719 10.8691ZM18.0469 10.8691C18.7402 10.8691 19.3164 10.293 19.3164 9.60938C19.3164 8.91602 18.7402 8.33984 18.0469 8.33984C17.3535 8.33984 16.7773 8.91602 16.7773 9.60938C16.7773 10.293 17.3535 10.8691 18.0469 10.8691ZM22.3633 10.4297C22.8027 10.4297 23.1641 10.0684 23.1641 9.62891C23.1641 9.17969 22.8027 8.79883 22.3633 8.79883C21.9141 8.79883 21.5527 9.17969 21.5527 9.62891C21.5527 10.0684 21.9141 10.4297 22.3633 10.4297ZM0.810547 14.8047C1.25 14.8047 1.61133 14.4434 1.61133 13.9941C1.61133 13.5547 1.25 13.1934 0.810547 13.1934C0.361328 13.1934 0 13.5547 0 13.9941C0 14.4434 0.361328 14.8047 0.810547 14.8047ZM5.11719 15.2832C5.81055 15.2832 6.38672 14.707 6.38672 14.0137C6.38672 13.3203 5.81055 12.7539 5.11719 12.7539C4.42383 12.7539 3.84766 13.3203 3.84766 14.0137C3.84766 14.707 4.42383 15.2832 5.11719 15.2832ZM18.0469 15.2832C18.7402 15.2832 19.3164 14.707 19.3164 14.0137C19.3164 13.3203 18.7402 12.7539 18.0469 12.7539C17.3535 12.7539 16.7773 13.3203 16.7773 14.0137C16.7773 14.707 17.3535 15.2832 18.0469 15.2832ZM22.3633 14.8047C22.8027 14.8047 23.1641 14.4434 23.1641 13.9941C23.1641 13.5547 22.8027 13.1934 22.3633 13.1934C21.9141 13.1934 21.5527 13.5547 21.5527 13.9941C21.5527 14.4434 21.9141 14.8047 22.3633 14.8047ZM0.810547 19.209C1.25 19.209 1.61133 18.8477 1.61133 18.4082C1.61133 17.959 1.25 17.5977 0.810547 17.5977C0.361328 17.5977 0 17.959 0 18.4082C0 18.8477 0.361328 19.209 0.810547 19.209ZM5.11719 19.4238C5.67383 19.4238 6.13281 18.9648 6.13281 18.4082C6.13281 17.8418 5.67383 17.3926 5.11719 17.3926C4.55078 17.3926 4.10156 17.8418 4.10156 18.4082C4.10156 18.9648 4.55078 19.4238 5.11719 19.4238ZM9.42383 19.6777C10.1172 19.6777 10.6934 19.1016 10.6934 18.4082C10.6934 17.7148 10.1172 17.1387 9.42383 17.1387C8.74023 17.1387 8.16406 17.7148 8.16406 18.4082C8.16406 19.1016 8.74023 19.6777 9.42383 19.6777ZM13.7402 19.6777C14.4336 19.6777 15 19.1016 15 18.4082C15 17.7148 14.4336 17.1387 13.7402 17.1387C13.0469 17.1387 12.4707 17.7148 12.4707 18.4082C12.4707 19.1016 13.0469 19.6777 13.7402 19.6777ZM18.0469 19.4238C18.6133 19.4238 19.0625 18.9648 19.0625 18.4082C19.0625 17.8418 18.6133 17.3926 18.0469 17.3926C17.4902 17.3926 17.0312 17.8418 17.0312 18.4082C17.0312 18.9648 17.4902 19.4238 18.0469 19.4238ZM22.3633 19.209C22.8027 19.209 23.1641 18.8477 23.1641 18.4082C23.1641 17.959 22.8027 17.5977 22.3633 17.5977C21.9141 17.5977 21.5527 17.959 21.5527 18.4082C21.5527 18.8477 21.9141 19.209 22.3633 19.209ZM5.11719 23.6035C5.56641 23.6035 5.92773 23.2422 5.92773 22.793C5.92773 22.3535 5.56641 21.9922 5.11719 21.9922C4.66797 21.9922 4.30664 22.3535 4.30664 22.793C4.30664 23.2422 4.66797 23.6035 5.11719 23.6035ZM9.42383 23.6035C9.87305 23.6035 10.2344 23.2422 10.2344 22.793C10.2344 22.3535 9.87305 21.9922 9.42383 21.9922C8.98438 21.9922 8.62305 22.3535 8.62305 22.793C8.62305 23.2422 8.98438 23.6035 9.42383 23.6035ZM13.7402 23.6035C14.1797 23.6035 14.541 23.2422 14.541 22.793C14.541 22.3535 14.1797 21.9922 13.7402 21.9922C13.291 21.9922 12.9297 22.3535 12.9297 22.793C12.9297 23.2422 13.291 23.6035 13.7402 23.6035ZM18.0469 23.6035C18.4961 23.6035 18.8574 23.2422 18.8574 22.793C18.8574 22.3535 18.4961 21.9922 18.0469 21.9922C17.6074 21.9922 17.2461 22.3535 17.2461 22.793C17.2461 23.2422 17.6074 23.6035 18.0469 23.6035ZM9.42383 10.8691C10.1172 10.8691 10.6934 10.293 10.6934 9.60938C10.6934 8.91602 10.1172 8.33984 9.42383 8.33984C8.74023 8.33984 8.16406 8.91602 8.16406 9.60938C8.16406 10.293 8.74023 10.8691 9.42383 10.8691ZM13.7402 10.8691C14.4336 10.8691 15 10.293 15 9.60938C15 8.91602 14.4336 8.33984 13.7402 8.33984C13.0469 8.33984 12.4707 8.91602 12.4707 9.60938C12.4707 10.293 13.0469 10.8691 13.7402 10.8691ZM9.42383 15.2832C10.1172 15.2832 10.6934 14.707 10.6934 14.0137C10.6934 13.3203 10.1172 12.7539 9.42383 12.7539C8.74023 12.7539 8.16406 13.3203 8.16406 14.0137C8.16406 14.707 8.74023 15.2832 9.42383 15.2832ZM13.7402 15.2832C14.4336 15.2832 15 14.707 15 14.0137C15 13.3203 14.4336 12.7539 13.7402 12.7539C13.0469 12.7539 12.4707 13.3203 12.4707 14.0137C12.4707 14.707 13.0469 15.2832 13.7402 15.2832Z" fill="var(--color-primary)"/>
 </g>
</svg>
