<svg version="1.1" xmlns="http://www.w3.org/2000/svg" xmlns:xlink="http://www.w3.org/1999/xlink" viewBox="0 0 26.7285 25.9082">
 <g>
  <rect height="25.9082" opacity="0" width="26.7285" x="0" y="0"/>
  <path d="M24.6875 5.66406C25.8008 6.75781 26.3672 8.39844 26.3672 10.5078L26.3672 19.3945C26.3672 21.5039 25.791 23.1445 24.6875 24.2383C23.6133 25.3125 21.9727 25.9082 19.8535 25.9082L10.957 25.9082C8.83789 25.9082 7.20703 25.3223 6.12305 24.2383C5.47502 23.5959 5.01228 22.7749 4.74459 21.7795C5.28879 21.8901 5.88435 21.9434 6.52344 21.9434L15.4199 21.9434C17.5293 21.9434 19.1797 21.3379 20.2539 20.2734C21.3574 19.1797 21.9336 17.5391 21.9336 15.4297L21.9336 6.54297C21.9336 5.66185 21.8331 4.86253 21.6297 4.15599C22.9063 4.3886 23.9303 4.90006 24.6875 5.66406Z" fill="var(--color-primary)"/>
  <path d="M6.52344 21.9434L15.4199 21.9434C17.5293 21.9434 19.1797 21.3379 20.2539 20.2734C21.3574 19.1797 21.9336 17.5391 21.9336 15.4297L21.9336 6.54297C21.9336 4.43359 21.3574 2.79297 20.2539 1.69922C19.1602 0.605469 17.5293 0.0292969 15.4199 0.0292969L6.52344 0.0292969C4.4043 0.0292969 2.75391 0.625 1.67969 1.69922C0.576172 2.79297 0 4.43359 0 6.54297L0 15.4297C0 17.5391 0.576172 19.1699 1.67969 20.2734C2.76367 21.3574 4.4043 21.9434 6.52344 21.9434ZM6.52344 20.2051C4.95117 20.2051 3.74023 19.7852 2.94922 18.9941C2.14844 18.2031 1.72852 17.002 1.72852 15.4297L1.72852 6.54297C1.72852 4.96094 2.14844 3.75977 2.94922 2.96875C3.73047 2.19727 4.95117 1.75781 6.52344 1.75781L15.4199 1.75781C16.9824 1.75781 18.1836 2.1875 18.9746 2.96875C19.7852 3.75977 20.2051 4.96094 20.2051 6.54297L20.2051 15.4297C20.2051 17.002 19.7852 18.2031 18.9746 18.9941C18.1934 19.7754 16.9824 20.2051 15.4199 20.2051Z" fill="var(--color-primary)"/>
 </g>
</svg>
