<?xml version="1.0" encoding="UTF-8"?>
<!--Generator: Apple Native CoreSVG 341-->
<!DOCTYPE svg
PUBLIC "-//W3C//DTD SVG 1.1//EN"
       "http://www.w3.org/Graphics/SVG/1.1/DTD/svg11.dtd">
<svg version="1.1" xmlns="http://www.w3.org/2000/svg" xmlns:xlink="http://www.w3.org/1999/xlink" viewBox="0 0 25.7617 30.9802">
 <g>
  <rect height="30.9802" opacity="0" width="25.7617" x="0" y="0"/>
  <path d="M23.8477 6.95006L23.8477 25.9637C23.8477 28.493 22.5781 29.7723 20.0781 29.7723L10.8991 29.7723C13.2703 29.5059 15.7138 29.0872 18.3496 28.4149C20.7617 27.7801 21.9824 26.2469 21.9824 23.5028L21.9824 4.59654C21.9824 4.19104 21.9493 3.80888 21.8836 3.45308C23.1893 3.96057 23.8477 5.12868 23.8477 6.95006Z" fill="white" fill-opacity="0.425"/>
  <path d="M20.4199 4.59654L20.4199 23.5028C20.4199 25.5536 19.6777 26.4715 17.9492 26.9208C13.252 28.1024 9.21875 28.4833 4.98047 28.659C2.82227 28.7665 1.55273 27.6825 1.55273 25.661L1.55273 6.54967C1.55273 4.43053 2.8125 3.32701 4.77539 3.22935C9.21875 3.02428 13.252 2.42857 16.9043 1.66685C19.1309 1.16881 20.4199 2.31138 20.4199 4.59654ZM11.0059 16.6278C9.91211 16.784 9.15039 17.536 9.26758 18.4833L9.62891 21.4422C9.73633 22.2333 10.2539 22.6239 11.0254 22.5262C11.7773 22.409 12.2852 21.8817 12.3828 21.0809L12.7637 18.0145C12.8711 17.0379 12.0996 16.4813 11.0059 16.6278ZM11.0059 8.61021C7.46094 9.09849 4.57031 12.3407 4.57031 15.8954C4.57031 18.6981 6.41602 20.9735 9.0918 21.4325L8.96484 20.329C6.9043 19.8114 5.5957 18.0047 5.5957 15.7782C5.5957 12.7704 7.97852 10.0262 11.0254 9.60631C14.0527 9.19615 16.4355 11.2958 16.4355 14.2938C16.4355 16.5301 15.127 18.6786 13.0566 19.7528L12.9395 20.9149C15.5957 19.7333 17.4316 16.9696 17.4316 14.1669C17.4316 10.6024 14.5508 8.12193 11.0059 8.61021ZM11.0059 10.7001C8.62305 11.0126 6.66992 13.2391 6.66992 15.6122C6.66992 17.0868 7.42188 18.3563 8.78906 19.0887L8.75977 18.62C8.7207 18.3563 8.74023 18.0829 8.81836 17.829C8.08594 17.3114 7.69531 16.4715 7.69531 15.495C7.69531 13.6395 9.15039 11.9696 11.0254 11.7157C12.8809 11.4715 14.3262 12.7313 14.3262 14.577C14.3262 15.5536 13.9355 16.5106 13.2031 17.204C13.2812 17.4481 13.291 17.7118 13.2715 17.9754L13.2227 18.4833C14.5996 17.3895 15.3516 15.9149 15.3516 14.4501C15.3516 12.0575 13.3887 10.3778 11.0059 10.7001ZM11.0059 12.9462C10.1367 13.0536 9.43359 13.8544 9.43359 14.7333C9.43359 15.6024 10.1562 16.2176 11.0254 16.1004C11.8652 15.993 12.5781 15.1922 12.5781 14.3133C12.5781 13.4344 11.8652 12.829 11.0059 12.9462Z" fill="white" fill-opacity="0.85"/>
 </g>
</svg>
