<svg version="1.1" xmlns="http://www.w3.org/2000/svg" xmlns:xlink="http://www.w3.org/1999/xlink" viewBox="0 0 25.7617 30.9802">
 <g>
  <rect height="30.9802" opacity="0" width="25.7617" x="0" y="0"/>
  <path d="M23.8477 6.95006L23.8477 25.9637C23.8477 28.493 22.5781 29.7723 20.0781 29.7723L10.8991 29.7723C13.2703 29.5059 15.7138 29.0872 18.3496 28.4149C20.7617 27.7801 21.9824 26.2469 21.9824 23.5028L21.9824 4.59654C21.9824 4.19104 21.9493 3.80888 21.8836 3.45308C23.1893 3.96057 23.8477 5.12868 23.8477 6.95006Z" fill="var(--color-secondary)"/>
  <path d="M1.55273 25.661C1.55273 27.6825 2.82227 28.7665 4.98047 28.659C9.21875 28.4833 13.252 28.1024 17.9492 26.9208C19.6777 26.4715 20.4199 25.5536 20.4199 23.5028L20.4199 4.59654C20.4199 2.31138 19.1309 1.16881 16.9043 1.66685C13.252 2.42857 9.21875 3.02428 4.77539 3.22935C2.8125 3.32701 1.55273 4.43053 1.55273 6.54967ZM3.29102 25.368L3.29102 6.53013C3.29102 5.43638 3.95508 4.96763 4.96094 4.92857C9.25781 4.75279 13.2129 4.15709 16.8164 3.40513C17.9785 3.16099 18.6914 3.74693 18.6914 4.88951L18.6914 23.4344C18.6914 24.5965 18.2422 25.1239 17.2363 25.368C13.2129 26.3739 9.25781 26.7645 5.04883 26.9208C3.95508 26.9598 3.29102 26.3934 3.29102 25.368Z" fill="var(--color-primary)"/>
  <path d="M11.7383 16.2372C12.7441 16.0516 13.4082 16.5204 13.4082 17.3993C13.4082 18.3856 12.5293 19.2645 11.2305 19.5087C9.48242 19.8407 8.4375 18.9325 8.4375 17.3602C8.4375 14.0106 12.627 12.2528 12.627 7.96568C12.627 7.05748 12.3145 6.52037 11.6602 6.63756C10.3027 6.90123 9.35547 8.46373 9.35547 10.5438C9.35547 13.2196 12.1875 19.0985 12.1875 21.5692C12.1875 22.3895 11.7578 23.0633 11.1133 23.1805C10.9375 23.2196 10.8105 23.1415 10.8105 22.9852C10.8105 22.7606 11.0254 22.5165 11.0254 22.1747C11.0254 21.6083 10.6543 21.3055 10.0781 21.4129C9.44336 21.5399 9.0332 22.0672 9.0332 22.7215C9.0332 23.6493 9.82422 24.079 10.9961 23.8641C12.0996 23.6493 12.8516 22.6532 12.8516 21.4422C12.8516 19.3231 10.0684 12.4383 10.0195 10.8563C9.9707 9.45006 10.7617 8.42467 11.6504 8.26842C11.8457 8.22935 11.9434 8.32701 11.9434 8.53209C11.9434 11.1981 6.58203 12.868 6.58203 17.1551C6.58203 19.5575 8.35938 20.7391 11.1426 20.2118C13.3887 19.7919 14.9512 18.0926 14.9512 16.1395C14.9512 14.4403 13.7793 13.5126 12.2461 13.8055C10.7031 14.1083 9.51172 15.4852 9.51172 17.1551C9.51172 17.4579 9.75586 17.4676 10 17.2528C10.4199 16.8817 11.0645 16.3641 11.7383 16.2372Z" fill="var(--color-primary)"/>
 </g>
</svg>
