<?xml version="1.0" encoding="UTF-8"?>
<!--Generator: Apple Native CoreSVG 341-->
<!DOCTYPE svg
PUBLIC "-//W3C//DTD SVG 1.1//EN"
       "http://www.w3.org/Graphics/SVG/1.1/DTD/svg11.dtd">
<svg version="1.1" xmlns="http://www.w3.org/2000/svg" xmlns:xlink="http://www.w3.org/1999/xlink" viewBox="0 0 26.9141 32.9395">
 <g>
  <rect height="32.9395" opacity="0" width="26.9141" x="0" y="0"/>
  <path d="M2.45117 22.334C2.45117 23.2812 3.01758 23.8184 3.99414 23.8184L6.05469 23.8184L6.05469 25.4492L3.81836 25.4492C1.98242 25.4492 0.820312 24.3359 0.820312 22.5586L0.820312 20.4688L2.45117 20.4688ZM2.45117 19.1113L0.820312 19.1113L0.820312 14.1602L2.45117 14.1602ZM2.45117 12.8027L0.820312 12.8027L0.820312 7.86133L2.45117 7.86133ZM9.01367 3.18359L3.99414 3.18359C3.01758 3.18359 2.45117 3.74023 2.45117 4.6875L2.45117 6.49414L0.820312 6.49414L0.820312 4.46289C0.820312 2.67578 1.98242 1.54297 3.81836 1.54297L9.01367 1.54297ZM18.5645 4.46289L18.5645 5.9082L16.9336 5.9082L16.9336 4.6875C16.9336 3.74023 16.377 3.18359 15.4004 3.18359L10.3809 3.18359L10.3809 1.54297L15.5762 1.54297C17.4121 1.54297 18.5645 2.67578 18.5645 4.46289Z" fill="white" fill-opacity="0.425"/>
  <path d="M10.6152 31.377L22.3438 31.377C24.1895 31.377 25.3613 30.2637 25.3613 28.4766L25.3613 10.3809C25.3613 8.60352 24.1895 7.4707 22.3438 7.4707L10.6152 7.4707C8.76953 7.4707 7.61719 8.60352 7.61719 10.3809L7.61719 28.4766C7.61719 30.2637 8.76953 31.377 10.6152 31.377ZM10.7812 29.7461C9.80469 29.7461 9.24805 29.1992 9.24805 28.2617L9.24805 10.6152C9.24805 9.6582 9.80469 9.11133 10.7812 9.11133L22.168 9.11133C23.1445 9.11133 23.7207 9.6582 23.7207 10.6152L23.7207 28.2617C23.7207 29.1992 23.1445 29.7461 22.168 29.7461ZM11.5625 12.9199L12.5098 12.9199C12.7832 12.9199 12.9883 12.7246 12.9883 12.4805L12.9883 11.5039C12.9883 11.2402 12.7832 11.0547 12.5098 11.0547L11.5625 11.0547C11.3184 11.0547 11.123 11.2402 11.123 11.5039L11.123 12.4805C11.123 12.7148 11.3184 12.9199 11.5625 12.9199ZM14.541 12.9199L15.498 12.9199C15.7715 12.9199 15.957 12.7246 15.957 12.4805L15.957 11.5039C15.957 11.2402 15.7715 11.0547 15.498 11.0547L14.541 11.0547C14.2969 11.0547 14.1113 11.2402 14.1113 11.5039L14.1113 12.4805C14.1113 12.7148 14.2969 12.9199 14.541 12.9199ZM17.5195 12.9199L18.4668 12.9199C18.7305 12.9199 18.9258 12.7246 18.9258 12.4805L18.9258 11.5039C18.9258 11.2402 18.7305 11.0547 18.4668 11.0547L17.5195 11.0547C17.2559 11.0547 17.0801 11.2402 17.0801 11.5039L17.0801 12.4805C17.0801 12.7148 17.2559 12.9199 17.5195 12.9199ZM20.4883 12.9199L21.4355 12.9199C21.7188 12.9199 21.9043 12.7246 21.9043 12.4805L21.9043 11.5039C21.9043 11.2402 21.7188 11.0547 21.4355 11.0547L20.4883 11.0547C20.2441 11.0547 20.0488 11.2402 20.0488 11.5039L20.0488 12.4805C20.0488 12.7148 20.2441 12.9199 20.4883 12.9199ZM11.5625 15.791L12.5098 15.791C12.7832 15.791 12.9883 15.6055 12.9883 15.3613L12.9883 14.375C12.9883 14.1211 12.7832 13.9355 12.5098 13.9355L11.5625 13.9355C11.3184 13.9355 11.123 14.1309 11.123 14.375L11.123 15.3613C11.123 15.6055 11.3184 15.791 11.5625 15.791ZM14.541 15.791L15.498 15.791C15.7715 15.791 15.957 15.6055 15.957 15.3613L15.957 14.375C15.957 14.1211 15.7715 13.9355 15.498 13.9355L14.541 13.9355C14.2969 13.9355 14.0918 14.1309 14.0918 14.375L14.0918 15.3613C14.0918 15.6055 14.2969 15.791 14.541 15.791ZM17.5195 15.791L18.4668 15.791C18.7305 15.791 18.9258 15.6055 18.9258 15.3711L18.9258 14.375C18.9258 14.1211 18.7305 13.9355 18.4668 13.9355L17.5195 13.9355C17.2559 13.9355 17.0801 14.1309 17.0801 14.375L17.0801 15.3711C17.0801 15.6055 17.2559 15.791 17.5195 15.791ZM20.4883 15.791L21.4355 15.791C21.7188 15.791 21.9043 15.6055 21.9043 15.3711L21.9043 14.375C21.9043 14.1211 21.7188 13.9355 21.4355 13.9355L20.4883 13.9355C20.2441 13.9355 20.0488 14.1309 20.0488 14.375L20.0488 15.3711C20.0488 15.6055 20.2441 15.791 20.4883 15.791ZM11.5625 18.6816L12.5098 18.6816C12.7832 18.6816 12.9883 18.4961 12.9883 18.2422L12.9883 17.2754C12.9883 17.0117 12.7832 16.8066 12.5098 16.8066L11.5625 16.8066C11.3184 16.8066 11.123 17.0117 11.123 17.2754L11.123 18.2422C11.123 18.4961 11.3184 18.6816 11.5625 18.6816ZM14.541 18.6816L15.498 18.6816C15.7715 18.6816 15.957 18.4961 15.957 18.2422L15.957 17.2754C15.957 17.0117 15.7715 16.8066 15.498 16.8066L14.541 16.8066C14.2969 16.8066 14.0918 17.0117 14.0918 17.2754L14.0918 18.2422C14.0918 18.4961 14.2969 18.6816 14.541 18.6816ZM11.5625 27.8027L12.5098 27.8027C12.7832 27.8027 12.9883 27.6074 12.9883 27.3535L12.9883 26.377C12.9883 26.123 12.7832 25.9375 12.5098 25.9375L11.5625 25.9375C11.3184 25.9375 11.123 26.1328 11.123 26.377L11.123 27.3535C11.123 27.6074 11.3184 27.8027 11.5625 27.8027ZM14.541 27.8027L15.498 27.8027C15.7715 27.8027 15.957 27.6074 15.957 27.3535L15.957 26.377C15.957 26.123 15.7715 25.9375 15.498 25.9375L14.541 25.9375C14.2969 25.9375 14.0918 26.1328 14.0918 26.377L14.0918 27.3535C14.0918 27.6074 14.2969 27.8027 14.541 27.8027ZM17.5195 27.8027L18.4668 27.8027C18.7305 27.8027 18.9258 27.6074 18.9258 27.3535L18.9258 26.377C18.9258 26.123 18.7305 25.9375 18.4668 25.9375L17.5195 25.9375C17.2559 25.9375 17.0801 26.1328 17.0801 26.377L17.0801 27.3535C17.0801 27.6074 17.2559 27.8027 17.5195 27.8027ZM20.4883 27.8027L21.4355 27.8027C21.7188 27.8027 21.9043 27.6074 21.9043 27.3535L21.9043 26.377C21.9043 26.123 21.7188 25.9375 21.4355 25.9375L20.4883 25.9375C20.2441 25.9375 20.0586 26.1328 20.0586 26.377L20.0586 27.3535C20.0586 27.6074 20.2441 27.8027 20.4883 27.8027Z" fill="white" fill-opacity="0.85"/>
 </g>
</svg>
