<?xml version="1.0" encoding="UTF-8"?>
<!--Generator: Apple Native CoreSVG 341-->
<!DOCTYPE svg
PUBLIC "-//W3C//DTD SVG 1.1//EN"
       "http://www.w3.org/Graphics/SVG/1.1/DTD/svg11.dtd">
<svg version="1.1" xmlns="http://www.w3.org/2000/svg" xmlns:xlink="http://www.w3.org/1999/xlink" viewBox="0 0 28.1543 24.0332">
 <g>
  <rect height="24.0332" opacity="0" width="28.1543" x="0" y="0"/>
  <path d="M13.8965 0C6.2207 0 0 6.21094 0 13.8965C0 17.6953 1.52344 21.1621 4.0332 23.6816C4.41406 24.0625 4.98047 24.082 5.39062 23.7012C5.71289 23.3691 5.6543 22.793 5.21484 22.334C3.125 20.1758 1.8457 17.1582 1.8457 13.8965C1.8457 7.16797 7.1875 1.81641 13.8965 1.81641C20.6152 1.81641 25.9473 7.16797 25.9473 13.8965C25.9473 17.1582 24.6777 20.1758 22.5781 22.334C22.1484 22.793 22.0801 23.3691 22.4121 23.7012C22.8125 24.082 23.3887 24.0625 23.7598 23.6816C26.2695 21.1719 27.793 17.6953 27.793 13.8965C27.793 6.21094 21.582 0 13.8965 0Z" fill="white" fill-opacity="0.425"/>
  <path d="M13.8965 7.96875C14.3652 7.96875 14.7363 7.59766 14.7363 7.14844C14.7363 6.68945 14.3457 6.31836 13.8965 6.31836C13.457 6.31836 13.0762 6.68945 13.0762 7.14844C13.0762 7.59766 13.4473 7.96875 13.8965 7.96875ZM10.9961 9.64844C11.4746 9.64844 11.8164 9.27734 11.8164 8.81836C11.8164 8.35938 11.4453 7.98828 10.9961 7.98828C10.5566 7.98828 10.166 8.36914 10.166 8.81836C10.166 9.27734 10.5371 9.64844 10.9961 9.64844ZM16.8164 9.64844C17.2754 9.64844 17.6367 9.27734 17.6367 8.81836C17.6367 8.35938 17.2656 7.98828 16.8164 7.98828C16.3672 7.98828 15.9863 8.36914 15.9863 8.81836C15.9863 9.27734 16.3574 9.64844 16.8164 9.64844ZM8.08594 11.3477C8.54492 11.3477 8.91602 10.9766 8.91602 10.5273C8.91602 10.0684 8.53516 9.69727 8.08594 9.69727C7.62695 9.69727 7.25586 10.0684 7.25586 10.5273C7.25586 10.9766 7.63672 11.3477 8.08594 11.3477ZM13.8965 11.5625C14.4824 11.5625 14.9512 11.1035 14.9512 10.5273C14.9512 9.95117 14.4727 9.47266 13.8965 9.47266C13.3398 9.47266 12.8613 9.96094 12.8613 10.5273C12.8613 11.084 13.3398 11.5625 13.8965 11.5625ZM19.6973 11.3477C20.1562 11.3477 20.5176 10.9766 20.5176 10.5273C20.5176 10.0684 20.1562 9.69727 19.6973 9.69727C19.248 9.69727 18.877 10.0684 18.877 10.5273C18.877 10.9863 19.248 11.3477 19.6973 11.3477ZM10.9961 13.252C11.5723 13.252 12.041 12.7832 12.041 12.207C12.041 11.6309 11.5625 11.1621 10.9961 11.1621C10.4297 11.1621 9.94141 11.6504 9.94141 12.207C9.94141 12.7832 10.4199 13.252 10.9961 13.252ZM16.8164 13.252C17.3926 13.252 17.8613 12.7832 17.8613 12.207C17.8613 11.6309 17.3828 11.1621 16.8164 11.1621C16.25 11.1621 15.7617 11.6504 15.7617 12.207C15.7617 12.7832 16.2402 13.252 16.8164 13.252ZM8.08594 14.7266C8.54492 14.7266 8.91602 14.3457 8.91602 13.8965C8.91602 13.4473 8.53516 13.0664 8.08594 13.0664C7.62695 13.0664 7.25586 13.457 7.25586 13.8965C7.25586 14.3457 7.63672 14.7266 8.08594 14.7266ZM19.6973 14.7266C20.1562 14.7266 20.5176 14.3555 20.5176 13.8965C20.5176 13.4375 20.1562 13.0664 19.6973 13.0664C19.248 13.0664 18.877 13.457 18.877 13.8965C18.877 14.3555 19.248 14.7266 19.6973 14.7266ZM10.9961 16.6406C11.5625 16.6406 12.041 16.1719 12.041 15.5957C12.041 15.0195 11.5625 14.541 10.9961 14.541C10.4297 14.541 9.94141 15.0293 9.94141 15.5957C9.94141 16.1621 10.4199 16.6406 10.9961 16.6406ZM16.8164 16.6406C17.3828 16.6406 17.8613 16.1719 17.8613 15.5957C17.8613 15.0195 17.3828 14.541 16.8164 14.541C16.25 14.541 15.7617 15.0293 15.7617 15.5957C15.7617 16.1621 16.2402 16.6406 16.8164 16.6406ZM8.08594 18.0957C8.54492 18.0957 8.91602 17.7539 8.91602 17.2754C8.91602 16.8262 8.53516 16.4551 8.08594 16.4551C7.63672 16.4551 7.25586 16.8359 7.25586 17.2754C7.25586 17.7344 7.63672 18.0957 8.08594 18.0957ZM13.8965 18.3301C14.4824 18.3301 14.9512 17.8516 14.9512 17.2754C14.9512 16.6992 14.4727 16.2402 13.8965 16.2402C13.3398 16.2402 12.8613 16.7188 12.8613 17.2754C12.8613 17.8516 13.3301 18.3301 13.8965 18.3301ZM19.6973 18.0957C20.1562 18.0957 20.5176 17.7539 20.5176 17.2754C20.5176 16.8262 20.1562 16.4551 19.6973 16.4551C19.248 16.4551 18.877 16.8359 18.877 17.2754C18.877 17.7344 19.248 18.0957 19.6973 18.0957ZM10.9961 19.8047C11.4648 19.8047 11.8164 19.4434 11.8164 18.9746C11.8164 18.5254 11.4453 18.1445 10.9961 18.1445C10.5566 18.1445 10.166 18.5352 10.166 18.9746C10.166 19.4336 10.5371 19.8047 10.9961 19.8047ZM16.8164 19.8047C17.2754 19.8047 17.6367 19.4531 17.6367 18.9746C17.6367 18.5254 17.2656 18.1445 16.8164 18.1445C16.3672 18.1445 15.9863 18.5352 15.9863 18.9746C15.9863 19.4336 16.3574 19.8047 16.8164 19.8047ZM13.8965 21.4844C14.3652 21.4844 14.7363 21.1133 14.7363 20.6641C14.7363 20.2051 14.3457 19.834 13.8965 19.834C13.457 19.834 13.0762 20.2051 13.0762 20.6641C13.0762 21.1133 13.4375 21.4844 13.8965 21.4844ZM13.8965 15.0879C14.5605 15.0879 15.0977 14.5605 15.0977 13.8965C15.0977 13.252 14.5508 12.7051 13.8965 12.7051C13.2617 12.7051 12.7148 13.2617 12.7148 13.8965C12.7148 14.541 13.2617 15.0879 13.8965 15.0879Z" fill="white" fill-opacity="0.85"/>
 </g>
</svg>
