<svg version="1.1" xmlns="http://www.w3.org/2000/svg" xmlns:xlink="http://www.w3.org/1999/xlink" viewBox="0 0 25.8008 30.579">
 <g>
  <rect height="30.579" opacity="0" width="25.8008" x="0" y="0"/>
  <path d="M10.957 0.792409L10.957 6.48577C10.957 7.27678 11.5039 7.49163 12.1289 7.05217L16.084 4.27874C16.6016 3.91741 16.6113 3.3803 16.084 3.00921L12.1387 0.235769C11.5039-0.223216 10.957 0.00139356 10.957 0.792409ZM1.81641 15.2846C1.81641 9.25921 6.68945 4.38616 12.7148 4.38616C13.2129 4.38616 13.623 3.976 13.623 3.46819C13.623 2.97991 13.2227 2.56975 12.7246 2.55999C5.68359 2.56975 0 8.26311 0 15.2846C0 19.0248 1.63086 22.4428 4.25781 24.7768C4.74609 25.2162 5.36133 25.0698 5.6543 24.6694C5.9082 24.3178 5.92773 23.8393 5.44922 23.4096C3.20312 21.3979 1.81641 18.4877 1.81641 15.2846ZM14.4824 29.767L14.4824 24.0737C14.4824 23.2924 13.9355 23.0678 13.3105 23.5073L9.35547 26.2807C8.82812 26.6518 8.81836 27.1889 9.35547 27.56L13.3008 30.3334C13.9355 30.7826 14.4824 30.5678 14.4824 29.767ZM23.6133 15.2846C23.6133 21.31 18.7402 26.183 12.7148 26.183C12.2266 26.183 11.8164 26.5932 11.8164 27.0912C11.8164 27.5893 12.2168 27.9897 12.7051 27.9994C19.7461 27.9897 25.4395 22.3061 25.4395 15.2846C25.4395 11.5444 23.8086 8.12639 21.1719 5.78264C20.6934 5.35296 20.0684 5.49944 19.7852 5.89983C19.5215 6.25139 19.5117 6.72014 19.9805 7.14983C22.2363 9.17132 23.6133 12.0815 23.6133 15.2846Z" fill="var(--color-primary)"/>
 </g>
</svg>
