<?xml version="1.0" encoding="UTF-8"?>
<!--Generator: Apple Native CoreSVG 341-->
<!DOCTYPE svg
PUBLIC "-//W3C//DTD SVG 1.1//EN"
       "http://www.w3.org/Graphics/SVG/1.1/DTD/svg11.dtd">
<svg version="1.1" xmlns="http://www.w3.org/2000/svg" xmlns:xlink="http://www.w3.org/1999/xlink" viewBox="0 0 25.8008 25.459">
 <g>
  <rect height="25.459" opacity="0" width="25.8008" x="0" y="0"/>
  <path d="M12.7148 25.4395C19.7266 25.4395 25.4395 19.7266 25.4395 12.7246C25.4395 5.71289 19.7266 0 12.7148 0C5.71289 0 0 5.71289 0 12.7246C0 19.7266 5.71289 25.4395 12.7148 25.4395Z" fill="white" fill-opacity="0.2125"/>
  <path d="M7.03125 12.5293C6.57227 12.5293 6.21094 12.168 6.21094 11.7188L6.21094 7.16797C6.21094 6.50391 6.5625 6.2207 7.1582 6.2207L11.6992 6.2207C12.1484 6.2207 12.5098 6.58203 12.5098 7.04102C12.5098 7.49023 12.1484 7.85156 11.6992 7.85156L10.918 7.85156L8.84766 7.74414L12.002 10.7715C12.334 11.1035 12.3438 11.6699 12.0117 12.002C11.6699 12.3438 11.123 12.3535 10.7812 11.9922L7.74414 8.81836L7.8418 10.9863L7.8418 11.7188C7.8418 12.168 7.48047 12.5293 7.03125 12.5293ZM13.7402 19.2285C13.2812 19.2285 12.9199 18.8672 12.9199 18.418C12.9199 17.959 13.2812 17.5977 13.7402 17.5977L14.5215 17.6074L16.582 17.7051L13.4375 14.6777C13.0957 14.3555 13.0859 13.7891 13.4277 13.4473C13.7598 13.1055 14.3164 13.0957 14.6582 13.457L17.6953 16.6309L17.5879 14.4727L17.5879 13.7402C17.5879 13.2812 17.9492 12.9199 18.4082 12.9199C18.8574 12.9199 19.2188 13.2812 19.2188 13.7402L19.2188 18.291C19.2188 18.9551 18.8672 19.2285 18.2715 19.2285Z" fill="white" fill-opacity="0.85"/>
 </g>
</svg>
