<svg version="1.1" xmlns="http://www.w3.org/2000/svg" xmlns:xlink="http://www.w3.org/1999/xlink" viewBox="0 0 23.3203 22.959">
 <g>
  <rect height="22.959" opacity="0" width="23.3203" x="0" y="0"/>
  <path d="M3.79883 22.959L19.1504 22.959C21.6797 22.959 22.959 21.6797 22.959 19.1992L22.959 3.76953C22.959 1.2793 21.6797 0 19.1504 0L3.79883 0C1.2793 0 0 1.26953 0 3.76953L0 19.1992C0 21.6992 1.2793 22.959 3.79883 22.959Z" fill="var(--color-tertiary)"/>
  <path d="M17.0605 11.2207L12.6367 11.2207C12.0703 11.2207 11.7285 10.9473 11.7285 10.3027L11.7285 5.86914C11.7285 5.42969 12.0801 5.07812 12.5195 5.07812C12.959 5.07812 13.3105 5.42969 13.3105 5.86914L13.3105 6.58203L13.2031 8.71094L16.7383 5.04883C17.0703 4.70703 17.5977 4.70703 17.9199 5.03906C18.2617 5.36133 18.2422 5.89844 17.9102 6.2207L14.2676 9.74609L16.2988 9.63867L17.0605 9.63867C17.5 9.63867 17.8516 9.99023 17.8516 10.4199C17.8516 10.8691 17.5 11.2207 17.0605 11.2207ZM10.4492 17.8516C10.0098 17.8516 9.6582 17.5 9.6582 17.0508L9.6582 16.3379L9.76562 14.2188L6.23047 17.8809C5.89844 18.2227 5.37109 18.2227 5.04883 17.8906C4.70703 17.5586 4.72656 17.0312 5.05859 16.6992L8.69141 13.1836L6.66992 13.2812L5.9082 13.291C5.46875 13.291 5.11719 12.9395 5.11719 12.5C5.11719 12.0605 5.46875 11.709 5.9082 11.709L10.332 11.709C10.8984 11.709 11.2402 11.9727 11.2402 12.6172L11.2402 17.0508C11.2402 17.5 10.8887 17.8516 10.4492 17.8516Z" fill="var(--color-primary)"/>
 </g>
</svg>
