<svg version="1.1" xmlns="http://www.w3.org/2000/svg" xmlns:xlink="http://www.w3.org/1999/xlink" viewBox="0 0 21.3281 26.9238">
 <g>
  <rect height="26.9238" opacity="0" width="21.3281" x="0" y="0"/>
  <path d="M3.75977 26.9238L17.207 26.9238C19.707 26.9238 20.9668 25.6348 20.9668 23.125L20.9668 11.4062L11.9141 11.4062C10.3906 11.4062 9.66797 10.6738 9.66797 9.15039L9.66797 0.00976562L3.75977 0.00976562C1.2793 0.00976562 0 1.28906 0 3.80859L0 23.125C0 25.6445 1.25977 26.9238 3.75977 26.9238ZM11.9727 9.84375L20.8105 9.84375C20.7324 9.38477 20.4004 8.94531 19.8828 8.42773L12.6465 1.09375C12.1484 0.576172 11.6797 0.234375 11.2305 0.15625L11.2305 9.10156C11.2305 9.59961 11.4746 9.84375 11.9727 9.84375Z" fill="var(--color-tertiary)"/>
  <path d="M10.4883 23.6816C10.0488 23.6816 9.6875 23.3301 9.6875 22.9004L9.6875 17.9395L9.75586 15.7812L8.33984 17.2266L7.25586 18.3301C7.10938 18.4766 6.89453 18.5645 6.69922 18.5645C6.26953 18.5645 5.95703 18.2617 5.95703 17.8418C5.95703 17.5781 6.07422 17.4023 6.24023 17.2461L9.89258 13.8086C10.1074 13.6133 10.2832 13.5352 10.4883 13.5352C10.6836 13.5352 10.8594 13.6133 11.0742 13.8086L14.7266 17.2461C14.8926 17.4023 15.0098 17.5781 15.0098 17.8418C15.0098 18.2617 14.6875 18.5645 14.2676 18.5645C14.0625 18.5645 13.8574 18.4766 13.7109 18.3301L12.627 17.2266L11.2109 15.7812L11.2793 17.9395L11.2793 22.9004C11.2793 23.3301 10.918 23.6816 10.4883 23.6816Z" fill="var(--color-primary)"/>
 </g>
</svg>
