<svg version="1.1" xmlns="http://www.w3.org/2000/svg" xmlns:xlink="http://www.w3.org/1999/xlink" viewBox="0 0 31.5625 23.3496">
 <g>
  <rect height="23.3496" opacity="0" width="31.5625" x="0" y="0"/>
  <path d="M24.5801 21.4746C28.3008 21.4746 31.2012 18.7891 31.2012 15.4102C31.2012 12.8223 29.7363 10.5566 27.2559 9.58008C27.3242 4.0332 23.3594 0 18.3008 0C14.873 0 12.4805 1.85547 11.0352 4.0918C7.98828 3.10547 4.62891 5.44922 4.58984 8.94531C1.78711 9.33594 0 11.7871 0 14.8242C0 18.4668 3.16406 21.4648 7.37305 21.4648Z" fill="var(--color-tertiary)"/>
  <path d="M9.41406 12.9883L13.0078 12.9883C13.4277 12.9883 13.5254 12.5781 13.291 12.2559L11.6895 9.99023C11.4258 9.61914 10.9863 9.58984 10.7129 9.99023L9.13086 12.2559C8.90625 12.5781 9.00391 12.9883 9.41406 12.9883ZM16.2012 17.8027C17.5879 17.8027 18.8672 17.2949 19.7656 16.5234C20.1953 16.1914 20.2051 15.7227 19.9805 15.4395C19.7852 15.1758 19.3652 15.0879 18.9258 15.4102C18.2031 16.0156 17.2656 16.4062 16.2012 16.4062C13.8379 16.4062 11.9141 14.4824 11.9141 12.1191C11.9141 11.7285 11.6016 11.416 11.2109 11.416C10.8301 11.416 10.5176 11.7285 10.5176 12.1191C10.5176 15.2637 13.0566 17.8027 16.2012 17.8027ZM22.9883 11.25L19.3945 11.25C18.9746 11.25 18.877 11.6602 19.1113 11.9824L20.7129 14.248C20.9766 14.6191 21.416 14.6484 21.6895 14.248L23.2715 11.9824C23.4961 11.6602 23.3984 11.25 22.9883 11.25ZM16.2012 6.43555C14.8145 6.43555 13.5352 6.94336 12.6367 7.71484C12.207 8.04688 12.1973 8.51562 12.4219 8.79883C12.6172 9.0625 13.0371 9.15039 13.4766 8.82812C14.1992 8.22266 15.1367 7.83203 16.2012 7.83203C18.5645 7.83203 20.4883 9.75586 20.4883 12.1191C20.4883 12.5098 20.8008 12.8223 21.1914 12.8223C21.5723 12.8223 21.8848 12.5098 21.8848 12.1191C21.8848 8.97461 19.3457 6.43555 16.2012 6.43555Z" fill="var(--color-primary)"/>
 </g>
</svg>
