<?xml version="1.0" encoding="UTF-8"?>
<!--Generator: Apple Native CoreSVG 341-->
<!DOCTYPE svg
PUBLIC "-//W3C//DTD SVG 1.1//EN"
       "http://www.w3.org/Graphics/SVG/1.1/DTD/svg11.dtd">
<svg version="1.1" xmlns="http://www.w3.org/2000/svg" xmlns:xlink="http://www.w3.org/1999/xlink" viewBox="0 0 23.3203 22.959">
 <g>
  <rect height="22.959" opacity="0" width="23.3203" x="0" y="0"/>
  <path d="M3.79883 22.959L19.1504 22.959C21.6797 22.959 22.959 21.6797 22.959 19.1992L22.959 3.76953C22.959 1.2793 21.6797 0 19.1504 0L3.79883 0C1.2793 0 0 1.26953 0 3.76953L0 19.1992C0 21.6992 1.2793 22.959 3.79883 22.959Z" fill="white" fill-opacity="0.2125"/>
  <path d="M4.92188 8.97461C4.92188 9.23828 5.04883 9.48242 5.23438 9.67773L8.68164 13.1836C8.82812 13.3496 9.02344 13.4277 9.25781 13.4277C9.70703 13.4277 10.0488 13.0762 10.0488 12.6074C10.0488 12.3828 9.9707 12.1777 9.79492 12.0117L7.98828 10.2539L6.29883 8.99414L8.20312 7.5L9.78516 5.9375C9.95117 5.80078 10.0488 5.58594 10.0488 5.35156C10.0488 4.88281 9.70703 4.53125 9.24805 4.53125C9.01367 4.53125 8.81836 4.60938 8.67188 4.78516L5.23438 8.26172C5.04883 8.45703 4.92188 8.71094 4.92188 8.97461ZM10.1855 17.1191C10.1855 17.6367 10.5469 17.9199 11.0352 17.9199L12.8809 17.9199C15.8594 17.9199 18.0273 16.0352 18.0273 13.0371C18.0273 10.0391 15.8691 8.19336 12.8906 8.19336L8.75977 8.19336L6.42578 8.23242C6.01562 8.24219 5.69336 8.56445 5.69336 8.96484C5.69336 9.375 6.01562 9.69727 6.42578 9.70703L8.75977 9.76562L12.8906 9.76562C14.9023 9.76562 16.377 10.9277 16.377 12.959C16.377 15.0293 14.9316 16.3184 12.8809 16.3184L11.0156 16.3184C10.5469 16.3184 10.1855 16.6113 10.1855 17.1191Z" fill="white" fill-opacity="0.85"/>
 </g>
</svg>
