<?xml version="1.0" encoding="UTF-8"?>
<!--Generator: Apple Native CoreSVG 341-->
<!DOCTYPE svg
PUBLIC "-//W3C//DTD SVG 1.1//EN"
       "http://www.w3.org/Graphics/SVG/1.1/DTD/svg11.dtd">
<svg version="1.1" xmlns="http://www.w3.org/2000/svg" xmlns:xlink="http://www.w3.org/1999/xlink" viewBox="0 0 25.8008 25.459">
 <g>
  <rect height="25.459" opacity="0" width="25.8008" x="0" y="0"/>
  <path d="M25.4395 12.7246C25.4395 19.7266 19.7266 25.4395 12.7148 25.4395C5.71289 25.4395 0 19.7266 0 12.7246C0 5.71289 5.71289 0 12.7148 0C19.7266 0 25.4395 5.71289 25.4395 12.7246ZM5.2832 11.5332L5.33203 16.2109C5.33203 16.4062 5.40039 16.6309 5.54688 16.7578C5.83984 17.0605 6.25977 17.0605 6.5625 16.7578C6.70898 16.6113 6.78711 16.4258 6.77734 16.2207L6.75781 14.1504L6.68827 13.1953L7.2168 13.75L13.4375 19.9512C13.7305 20.2539 14.1699 20.2441 14.4629 19.9512C14.7559 19.6582 14.7656 19.2188 14.4727 18.916L8.25195 12.7051L7.69513 12.1847L8.68164 12.2266L10.752 12.2461C10.957 12.2461 11.1426 12.1777 11.2793 12.0312C11.582 11.7285 11.5723 11.3184 11.2695 11.0254C11.1426 10.8887 10.9473 10.791 10.7422 10.791L6.04492 10.7617C5.63477 10.752 5.27344 11.1035 5.2832 11.5332ZM10.9473 5.49805C10.6543 5.80078 10.6445 6.23047 10.9473 6.5332L17.1484 12.7441L17.7021 13.2771L16.748 13.2129L14.6875 13.1934C14.4824 13.1836 14.2871 13.2715 14.1504 13.4082C13.8574 13.7109 13.8574 14.1406 14.1504 14.4238C14.2969 14.5605 14.4922 14.6484 14.707 14.6484L19.3848 14.6875C19.7949 14.6875 20.1562 14.3262 20.1562 13.9258L20.1172 9.23828C20.1172 9.01367 20.0195 8.81836 19.8828 8.69141C19.5801 8.38867 19.1699 8.38867 18.8672 8.68164C18.7305 8.83789 18.6523 9.01367 18.6523 9.21875L18.6816 11.2988L18.7279 12.2705L18.2031 11.709L11.9727 5.49805C11.6895 5.20508 11.25 5.20508 10.9473 5.49805Z" fill="white" fill-opacity="0.85"/>
 </g>
</svg>
