<svg version="1.1" xmlns="http://www.w3.org/2000/svg" xmlns:xlink="http://www.w3.org/1999/xlink" viewBox="0 0 21.3281 26.9238">
 <g>
  <rect height="26.9238" opacity="0" width="21.3281" x="0" y="0"/>
  <path d="M3.75977 26.9238L17.207 26.9238C19.707 26.9238 20.9668 25.6348 20.9668 23.125L20.9668 11.4355C20.9668 9.98047 20.791 9.3457 19.8828 8.42773L12.6465 1.09375C11.7871 0.205078 11.084 0.00976562 9.78516 0.00976562L3.75977 0.00976562C1.2793 0.00976562 0 1.28906 0 3.80859L0 23.125C0 25.6445 1.25977 26.9238 3.75977 26.9238ZM3.84766 25.1953C2.45117 25.1953 1.72852 24.4531 1.72852 23.0859L1.72852 3.84766C1.72852 2.50977 2.45117 1.73828 3.85742 1.73828L9.63867 1.73828L9.63867 9.21875C9.63867 10.7129 10.3906 11.4355 11.8555 11.4355L19.2383 11.4355L19.2383 23.0859C19.2383 24.4531 18.5156 25.1953 17.1094 25.1953ZM12.041 9.80469C11.4941 9.80469 11.2695 9.58984 11.2695 9.0332L11.2695 2.08008L18.8965 9.80469Z" fill="var(--color-secondary)"/>
  <path d="M6.70898 18.3887C6.26953 18.3887 5.94727 18.7012 5.94727 19.1406C5.94727 19.4043 6.06445 19.5898 6.24023 19.7559L9.91211 23.1934C10.1367 23.3984 10.3027 23.4766 10.5176 23.4766C10.752 23.4766 10.9082 23.3984 11.123 23.1934L14.7949 19.7559C14.9805 19.5898 15.0977 19.4043 15.0977 19.1406C15.0977 18.7012 14.7656 18.3887 14.3359 18.3887C14.1113 18.3887 13.8965 18.4766 13.75 18.6328L12.7051 19.707L10.6445 21.8164L10.3906 21.8164L8.33984 19.707L7.28516 18.6328C7.13867 18.4766 6.91406 18.3887 6.70898 18.3887ZM10.5176 13.1641C10.0781 13.1641 9.69727 13.5254 9.69727 13.9648L9.69727 18.9648L9.80469 22.0215C9.84375 22.9492 11.1914 22.9492 11.2305 22.0215L11.3477 18.9648L11.3477 13.9648C11.3477 13.5254 10.9668 13.1641 10.5176 13.1641Z" fill="var(--color-primary)"/>
 </g>
</svg>
