<?xml version="1.0" encoding="UTF-8"?>
<!--Generator: Apple Native CoreSVG 341-->
<!DOCTYPE svg
PUBLIC "-//W3C//DTD SVG 1.1//EN"
       "http://www.w3.org/Graphics/SVG/1.1/DTD/svg11.dtd">
<svg version="1.1" xmlns="http://www.w3.org/2000/svg" xmlns:xlink="http://www.w3.org/1999/xlink" viewBox="0 0 30.9766 24.541">
 <g>
  <rect height="24.541" opacity="0" width="30.9766" x="0" y="0"/>
  <path d="M20.2344 1.03516L21.2695 2.19727C21.8652 2.86133 22.1484 3.01758 23.1543 3.01758L26.8164 3.01758C29.3359 3.01758 30.6152 4.29688 30.6152 6.77734L30.6152 20C30.6152 22.4902 29.3359 23.7598 26.8164 23.7598L3.79883 23.7598C1.2793 23.7598 0 22.4902 0 20L0 6.77734C0 4.29688 1.2793 3.01758 3.79883 3.01758L7.31445 3.01758C8.31055 3.01758 8.62305 2.8418 9.19922 2.19727L10.2344 1.03516C10.8789 0.332031 11.4844 0 12.7539 0L17.7148 0C18.9844 0 19.5898 0.332031 20.2344 1.03516ZM8.63281 10.127L6.71875 12.8906C6.43555 13.3008 6.5332 13.7695 7.05078 13.7695L8.46878 13.7695C8.97253 17.0941 11.8384 19.6387 15.3125 19.6387C16.9727 19.6387 18.5059 19.043 19.6875 18.0469C20.625 17.3145 19.5898 16.0156 18.6426 16.7383C17.7539 17.5 16.5723 17.9492 15.3125 17.9492C12.777 17.9492 10.6594 16.158 10.167 13.7695L11.4258 13.7695C11.9336 13.7695 12.0703 13.291 11.7773 12.8906L9.82422 10.127C9.50195 9.66797 8.97461 9.64844 8.63281 10.127ZM10.9375 7.36328C10 8.08594 11.0254 9.39453 11.9824 8.67188C12.8711 7.91016 14.043 7.45117 15.3125 7.45117C17.8482 7.45117 19.9584 9.25003 20.4487 11.6406L19.1992 11.6406C18.6816 11.6406 18.5547 12.1191 18.8477 12.5195L20.8008 15.2832C21.123 15.7422 21.6504 15.7617 21.9922 15.2832L23.9062 12.5195C24.1895 12.1094 24.0918 11.6406 23.5742 11.6406L22.1562 11.6406C21.6525 8.31605 18.7866 5.77148 15.3125 5.77148C13.6426 5.77148 12.1191 6.36719 10.9375 7.36328Z" fill="white" fill-opacity="0.85"/>
 </g>
</svg>
