<?xml version="1.0" encoding="UTF-8"?>
<!--Generator: Apple Native CoreSVG 341-->
<!DOCTYPE svg
PUBLIC "-//W3C//DTD SVG 1.1//EN"
       "http://www.w3.org/Graphics/SVG/1.1/DTD/svg11.dtd">
<svg version="1.1" xmlns="http://www.w3.org/2000/svg" xmlns:xlink="http://www.w3.org/1999/xlink" viewBox="0 0 25.0879 23.4668">
 <g>
  <rect height="23.4668" opacity="0" width="25.0879" x="0" y="0"/>
  <path d="M24.7266 8.1543C24.7266 13.457 20.1758 18.6523 13.1934 23.1543C12.9492 23.3105 12.6074 23.4668 12.3633 23.4668C12.1289 23.4668 11.7871 23.3105 11.543 23.1543C4.55078 18.6523 0 13.457 0 8.1543C0 3.79883 2.99805 0.693359 6.91406 0.693359C9.31641 0.693359 11.2695 2.05078 12.3633 4.11133C13.4668 2.04102 15.4199 0.693359 17.8125 0.693359C21.7285 0.693359 24.7266 3.79883 24.7266 8.1543ZM11.5527 7.42188L11.5527 8.58237C9.38915 8.96433 7.76367 10.8503 7.76367 13.1543C7.76367 15.7617 9.81445 17.8027 12.373 17.8027C14.9316 17.8027 16.9824 15.7617 16.9824 13.1836C16.9824 12.8418 16.6895 12.5684 16.3574 12.5684C15.9961 12.5684 15.7129 12.8418 15.7129 13.1836C15.7129 15.0488 14.2383 16.5527 12.373 16.5527C10.5078 16.5527 9.0332 15.0586 9.0332 13.1543C9.0332 11.5568 10.0925 10.24 11.5527 9.87946L11.5527 11.4258C11.5527 11.8652 12.0312 12.041 12.373 11.748L14.5801 9.88281C14.9023 9.59961 14.8926 9.17969 14.5801 8.92578L12.373 7.08984C12.0312 6.81641 11.5527 6.96289 11.5527 7.42188Z" fill="white" fill-opacity="0.85"/>
 </g>
</svg>
