<svg version="1.1" xmlns="http://www.w3.org/2000/svg" xmlns:xlink="http://www.w3.org/1999/xlink" viewBox="0 0 23.3203 22.959">
 <g>
  <rect height="22.959" opacity="0" width="23.3203" x="0" y="0"/>
  <path d="M3.79883 22.959L19.1504 22.959C21.6797 22.959 22.959 21.6797 22.959 19.1992L22.959 3.76953C22.959 1.2793 21.6797 0 19.1504 0L3.79883 0C1.2793 0 0 1.26953 0 3.76953L0 19.1992C0 21.6992 1.2793 22.959 3.79883 22.959Z" fill="var(--color-tertiary)"/>
  <path d="M13.7402 4.86328C13.4668 4.86328 13.2324 4.99023 13.0371 5.16602L9.53125 8.61328C9.36523 8.76953 9.28711 8.95508 9.28711 9.19922C9.28711 9.64844 9.63867 9.99023 10.1074 9.99023C10.332 9.99023 10.5371 9.90234 10.7031 9.73633L12.4609 7.91992L13.7207 6.23047L15.2148 8.14453L16.7773 9.72656C16.9141 9.88281 17.1289 9.99023 17.3535 9.99023C17.832 9.99023 18.1836 9.64844 18.1836 9.18945C18.1836 8.94531 18.1055 8.75977 17.9297 8.60352L14.4531 5.16602C14.2578 4.99023 14.0039 4.86328 13.7402 4.86328ZM5.5957 10.1074C5.07812 10.1074 4.79492 10.4883 4.79492 10.9766L4.79492 12.8223C4.79492 15.791 6.67969 17.9688 9.67773 17.9688C12.6758 17.9688 14.5215 15.8008 14.5215 12.832L14.5215 8.70117L14.4824 6.36719C14.4727 5.95703 14.1504 5.625 13.75 5.625C13.3398 5.625 13.0176 5.95703 13.0078 6.36719L12.9492 8.70117L12.9492 12.832C12.9492 14.834 11.7871 16.3184 9.75586 16.3184C7.68555 16.3184 6.39648 14.8633 6.39648 12.8223L6.39648 10.957C6.39648 10.4883 6.10352 10.1074 5.5957 10.1074Z" fill="var(--color-primary)"/>
 </g>
</svg>
