<?xml version="1.0" encoding="UTF-8"?>
<!--Generator: Apple Native CoreSVG 341-->
<!DOCTYPE svg
PUBLIC "-//W3C//DTD SVG 1.1//EN"
       "http://www.w3.org/Graphics/SVG/1.1/DTD/svg11.dtd">
<svg version="1.1" xmlns="http://www.w3.org/2000/svg" xmlns:xlink="http://www.w3.org/1999/xlink" viewBox="0 0 25.8008 25.459">
 <g>
  <rect height="25.459" opacity="0" width="25.8008" x="0" y="0"/>
  <path d="M25.4395 12.7246C25.4395 19.7266 19.7266 25.4395 12.7148 25.4395C5.71289 25.4395 0 19.7266 0 12.7246C0 5.71289 5.71289 0 12.7148 0C19.7266 0 25.4395 5.71289 25.4395 12.7246ZM10.8105 6.69922L5.16602 11.9531C4.86328 12.2461 4.78516 12.4902 4.78516 12.7246C4.78516 12.9395 4.86328 13.1934 5.16602 13.4766L10.8105 18.7793C11.1035 19.043 11.3477 19.1895 11.6699 19.1895C12.1094 19.1895 12.4219 18.877 12.4219 18.4277L12.4219 15.4688L18.4277 15.4688C19.4336 15.4688 20 14.9121 20 13.9453L20 11.5234C20 10.5566 19.4336 9.99023 18.4277 9.99023L12.4219 9.99023L12.4219 7.04102C12.4219 6.62109 12.1094 6.25 11.6504 6.25C11.3379 6.25 11.1328 6.39648 10.8105 6.69922Z" fill="white" fill-opacity="0.85"/>
 </g>
</svg>
