<?xml version="1.0" encoding="UTF-8"?>
<!--Generator: Apple Native CoreSVG 341-->
<!DOCTYPE svg
PUBLIC "-//W3C//DTD SVG 1.1//EN"
       "http://www.w3.org/Graphics/SVG/1.1/DTD/svg11.dtd">
<svg version="1.1" xmlns="http://www.w3.org/2000/svg" xmlns:xlink="http://www.w3.org/1999/xlink" viewBox="0 0 25.8008 25.459">
 <g>
  <rect height="25.459" opacity="0" width="25.8008" x="0" y="0"/>
  <path d="M25.4395 12.7246C25.4395 19.7266 19.7266 25.4395 12.7148 25.4395C5.71289 25.4395 0 19.7266 0 12.7246C0 5.71289 5.71289 0 12.7148 0C19.7266 0 25.4395 5.71289 25.4395 12.7246ZM9.16016 11.3672L9.16016 15.5078L9.19114 16.9826L8.4668 16.0547L6.9043 14.4727C6.76758 14.3164 6.5625 14.209 6.32812 14.209C5.85938 14.209 5.50781 14.5508 5.50781 15.0098C5.50781 15.2539 5.58594 15.4395 5.75195 15.5957L9.23828 19.0332C9.43359 19.2188 9.67773 19.3359 9.94141 19.3359C10.2148 19.3359 10.4492 19.2188 10.6445 19.0332L14.1602 15.5859C14.3164 15.4297 14.3945 15.2441 14.3945 15C14.3945 14.5508 14.043 14.209 13.5742 14.209C13.3496 14.209 13.1445 14.2969 12.9883 14.4629L11.2305 16.2793L10.695 16.9919L10.7324 15.5078L10.7324 11.3672C10.7324 9.36523 11.8945 7.88086 13.9258 7.88086C15.9961 7.88086 17.2949 9.33594 17.2949 11.377L17.2949 13.2422C17.2949 13.7109 17.5781 14.082 18.0859 14.082C18.6035 14.082 18.8965 13.7109 18.8965 13.2227L18.8965 11.377C18.8965 8.4082 17.002 6.23047 14.0039 6.23047C11.0059 6.23047 9.16016 8.39844 9.16016 11.3672Z" fill="white" fill-opacity="0.85"/>
 </g>
</svg>
