<?xml version="1.0" encoding="UTF-8"?>
<!--Generator: Apple Native CoreSVG 341-->
<!DOCTYPE svg
PUBLIC "-//W3C//DTD SVG 1.1//EN"
       "http://www.w3.org/Graphics/SVG/1.1/DTD/svg11.dtd">
<svg version="1.1" xmlns="http://www.w3.org/2000/svg" xmlns:xlink="http://www.w3.org/1999/xlink" viewBox="0 0 37.5488 23.9355">
 <g>
  <rect height="23.9355" opacity="0" width="37.5488" x="0" y="0"/>
  <path d="M37.1875 11.9922C37.1875 11.7285 37.0703 11.4746 36.8555 11.2793L31.1523 5.57617C30.9277 5.36133 30.6934 5.26367 30.4395 5.26367C29.9023 5.26367 29.502 5.6543 29.502 6.19141C29.502 6.45508 29.5801 6.69922 29.7754 6.89453L35.127 11.9922L29.7754 17.0898C29.5898 17.2656 29.502 17.5293 29.502 17.793C29.502 18.3301 29.9023 18.7207 30.4395 18.7207C30.6934 18.7207 30.9277 18.6328 31.1523 18.4082L36.8555 12.7051C37.0703 12.5 37.1875 12.2559 37.1875 11.9922ZM34.7852 11.123L31.5527 11.0352L22.793 11.0352C22.2266 11.0352 21.8457 11.4355 21.8457 11.9922C21.8457 12.5488 22.2266 12.9492 22.793 12.9492L31.5527 12.9492L34.7852 12.8613C35.2734 12.8516 35.6641 12.4805 35.6641 11.9922C35.6641 11.5039 35.2734 11.1328 34.7852 11.123Z" fill="white" fill-opacity="0.85"/>
  <path d="M18.584 23.9355C19.1309 23.9355 19.5312 23.5449 19.5312 22.9883L19.5312 0.927734C19.5312 0.390625 19.1309 0.00976562 18.584 0.00976562C18.0273 0.00976562 17.627 0.390625 17.627 0.927734L17.627 22.9883C17.627 23.5449 18.0273 23.9355 18.584 23.9355Z" fill="white" fill-opacity="0.425"/>
  <path d="M0 11.9629C0 12.2266 0.117188 12.4805 0.332031 12.6855L6.02539 18.3789C6.25977 18.6035 6.48438 18.6914 6.74805 18.6914C7.27539 18.6914 7.68555 18.3008 7.68555 17.7637C7.68555 17.5 7.59766 17.2363 7.40234 17.0605L2.05078 11.9629L7.40234 6.86523C7.60742 6.67969 7.68555 6.42578 7.68555 6.16211C7.68555 5.625 7.27539 5.23438 6.74805 5.23438C6.48438 5.23438 6.25 5.33203 6.02539 5.54688L0.332031 11.25C0.117188 11.4551 0 11.6992 0 11.9629ZM2.39258 11.0938C1.9043 11.1035 1.52344 11.4746 1.52344 11.9629C1.52344 12.4512 1.9043 12.832 2.39258 12.8418L5.63477 12.9199L14.3945 12.9199C14.9512 12.9199 15.3418 12.5293 15.3418 11.9629C15.3418 11.4062 14.9512 11.0156 14.3945 11.0156L5.63477 11.0156Z" fill="white" fill-opacity="0.85"/>
 </g>
</svg>
