<svg version="1.1" xmlns="http://www.w3.org/2000/svg" xmlns:xlink="http://www.w3.org/1999/xlink" viewBox="0 0 23.2715 22.9199">
 <g>
  <rect height="22.9199" opacity="0" width="23.2715" x="0" y="0"/>
  <path d="M21.4844 1.44531C20.2637 0.234375 18.5742 0 16.3379 0L6.50391 0C4.3457 0 2.64648 0.234375 1.43555 1.44531C0.224609 2.65625 0 4.33594 0 6.50391L0 16.3379C0 18.584 0.214844 20.2637 1.42578 21.4648C2.64648 22.6758 4.33594 22.9102 6.57227 22.9102L16.3379 22.9102C18.5742 22.9102 20.2734 22.6758 21.4844 21.4648C22.6953 20.2539 22.9102 18.584 22.9102 16.3379L22.9102 6.5625C22.9102 4.32617 22.6953 2.64648 21.4844 1.44531Z" fill="var(--color-tertiary)"/>
  <path d="M11.4551 17.9199C11.2207 17.9199 11.0352 17.8418 10.8105 17.6172L6.52344 13.457C6.35742 13.291 6.25977 13.1055 6.25977 12.8711C6.25977 12.4219 6.60156 12.0898 7.06055 12.0898C7.27539 12.0898 7.51953 12.1777 7.67578 12.3633L9.79492 14.5801L10.6348 15.459L10.5664 13.5547L10.5664 5.84961C10.5664 5.38086 10.9668 4.99023 11.4551 4.99023C11.9336 4.99023 12.334 5.38086 12.334 5.84961L12.334 13.5547L12.2754 15.4492L13.1055 14.5801L15.2246 12.3633C15.3809 12.1777 15.6152 12.0898 15.8301 12.0898C16.2793 12.0898 16.6309 12.4219 16.6309 12.8711C16.6309 13.1055 16.543 13.291 16.3672 13.457L12.0898 17.6172C11.875 17.8418 11.6797 17.9199 11.4551 17.9199Z" fill="var(--color-primary)"/>
 </g>
</svg>
