<?xml version="1.0" encoding="UTF-8"?>
<!--Generator: Apple Native CoreSVG 341-->
<!DOCTYPE svg
PUBLIC "-//W3C//DTD SVG 1.1//EN"
       "http://www.w3.org/Graphics/SVG/1.1/DTD/svg11.dtd">
<svg version="1.1" xmlns="http://www.w3.org/2000/svg" xmlns:xlink="http://www.w3.org/1999/xlink" viewBox="0 0 29.9512 22.959">
 <g>
  <rect height="22.959" opacity="0" width="29.9512" x="0" y="0"/>
  <path d="M3.79883 22.959L25.7812 22.959C28.3105 22.959 29.5898 21.6797 29.5898 19.1992L29.5898 3.76953C29.5898 1.2793 28.3105 0 25.7812 0L3.79883 0C1.2793 0 0 1.26953 0 3.76953L0 19.1992C0 21.6992 1.2793 22.959 3.79883 22.959ZM3.83789 21.2305C2.4707 21.2305 1.72852 20.5078 1.72852 19.1016L1.72852 3.85742C1.72852 2.46094 2.4707 1.72852 3.83789 1.72852L25.752 1.72852C27.0898 1.72852 27.8516 2.46094 27.8516 3.85742L27.8516 19.1016C27.8516 20.5078 27.0898 21.2305 25.752 21.2305Z" fill="white" fill-opacity="0.85"/>
  <path d="M3.91602 17.9102C3.75977 18.0664 3.65234 18.2715 3.65234 18.4961C3.65234 18.9844 3.96484 19.2969 4.44336 19.2969C4.7168 19.2969 4.91211 19.1992 5.06836 19.0527L9.3457 14.7656L11.3672 12.627C12.0801 11.8652 11.1523 10.8398 10.3613 11.582L8.20312 13.623ZM11.582 10.5078L5.69336 10.5078C5.18555 10.5176 4.87305 10.8203 4.87305 11.2988C4.87305 11.7773 5.19531 12.0898 5.72266 12.0996L8.17383 12.0996L11.1719 11.7969L10.8594 15.0195L10.8594 17.2461C10.8691 17.7734 11.1914 18.0957 11.6699 18.0957C12.1387 18.0957 12.4512 17.7832 12.4609 17.2754L12.4609 11.3965C12.4609 10.8105 12.1582 10.5078 11.582 10.5078Z" fill="white" fill-opacity="0.85"/>
 </g>
</svg>
