<?xml version="1.0" encoding="UTF-8"?>
<!--Generator: Apple Native CoreSVG 341-->
<!DOCTYPE svg
PUBLIC "-//W3C//DTD SVG 1.1//EN"
       "http://www.w3.org/Graphics/SVG/1.1/DTD/svg11.dtd">
<svg version="1.1" xmlns="http://www.w3.org/2000/svg" xmlns:xlink="http://www.w3.org/1999/xlink" viewBox="0 0 25.8008 25.459">
 <g>
  <rect height="25.459" opacity="0" width="25.8008" x="0" y="0"/>
  <path d="M12.7148 25.4395C19.7363 25.4395 25.4395 19.7461 25.4395 12.7246C25.4395 5.70312 19.7363 0 12.7148 0C5.69336 0 0 5.70312 0 12.7246C0 19.7461 5.69336 25.4395 12.7148 25.4395ZM12.7148 23.623C6.68945 23.623 1.81641 18.75 1.81641 12.7246C1.81641 6.69922 6.68945 1.82617 12.7148 1.82617C18.7402 1.82617 23.6133 6.69922 23.6133 12.7246C23.6133 18.75 18.7402 23.623 12.7148 23.623Z" fill="white" fill-opacity="0.425"/>
  <path d="M14.4141 19.7754C14.6973 19.502 14.707 19.0723 14.4238 18.7793L8.33984 12.6953L7.31445 11.748C7.06055 11.4941 6.63086 11.4844 6.36719 11.748C6.11328 12.002 6.12305 12.4316 6.36719 12.6953L7.33398 13.7109L13.418 19.7852C13.7012 20.0781 14.1309 20.0684 14.4141 19.7754ZM11.2891 11.0645C11.1719 10.9277 10.9766 10.8398 10.7812 10.8398L6.19141 10.8105C5.79102 10.8008 5.43945 11.1426 5.44922 11.5527L5.49805 16.1328C5.49805 16.3184 5.56641 16.5332 5.70312 16.6602C5.98633 16.9531 6.39648 16.9531 6.68945 16.6602C6.82617 16.5234 6.9043 16.3379 6.89453 16.1426L6.875 14.1113L6.73828 12.1387L8.75977 12.2266L10.791 12.2461C10.9863 12.2461 11.1719 12.1777 11.2988 12.041C11.5918 11.748 11.582 11.3477 11.2891 11.0645ZM10.9766 5.67383C10.6934 5.95703 10.6836 6.38672 10.9766 6.66992L17.0508 12.7539L18.0664 13.7305C18.3398 13.9746 18.7598 13.9844 19.0234 13.7305C19.2871 13.4668 19.2773 13.0469 19.0234 12.7637L18.0664 11.7578L11.9727 5.66406C11.6992 5.38086 11.2695 5.38086 10.9766 5.67383ZM19.707 8.78906C19.4141 8.50586 19.0137 8.50586 18.7207 8.7793C18.5938 8.92578 18.5156 9.11133 18.5156 9.29688L18.5449 11.3379L18.6328 13.3398L16.6504 13.2129L14.6289 13.1934C14.4336 13.1836 14.2383 13.2715 14.1113 13.3984C13.8281 13.6914 13.8281 14.1113 14.1113 14.3848C14.248 14.5215 14.4434 14.5996 14.6484 14.5996L19.2188 14.6387C19.6094 14.6387 19.9707 14.2871 19.9609 13.9062L19.9316 9.31641C19.9316 9.10156 19.834 8.91602 19.707 8.78906Z" fill="white" fill-opacity="0.85"/>
 </g>
</svg>
