<svg version="1.1" xmlns="http://www.w3.org/2000/svg" xmlns:xlink="http://www.w3.org/1999/xlink" viewBox="0 0 28.7305 22.9395">
 <g>
  <rect height="22.9395" opacity="0" width="28.7305" x="0" y="0"/>
  <path d="M3.79883 22.8027L24.8633 22.8027C27.0996 22.8027 28.3691 21.5234 28.3691 19.043L28.3691 6.08398C28.3691 3.59375 27.0898 2.32422 24.5703 2.32422L12.4121 2.32422C11.4941 2.32422 10.9961 2.12891 10.3418 1.5625L9.59961 0.9375C8.76953 0.214844 8.17383 0 6.91406 0L3.33008 0C1.19141 0 0 1.18164 0 3.57422L0 19.043C0 21.5332 1.2793 22.8027 3.79883 22.8027Z" fill="var(--color-tertiary)"/>
  <path d="M8.63281 13.3789L16.709 13.3691L18.7695 13.3008C19.209 13.2812 19.5703 12.9297 19.5703 12.4902C19.5703 12.0508 19.209 11.6992 18.7695 11.6797L16.709 11.6113L8.63281 11.6016C8.1543 11.6016 7.76367 12.0117 7.76367 12.4902C7.76367 12.9785 8.1543 13.3789 8.63281 13.3789ZM15.6445 17.6758C15.8887 17.6758 16.0742 17.5879 16.2305 17.4121L20.4004 13.1348C20.625 12.9102 20.6934 12.7246 20.6934 12.4902C20.6934 12.2656 20.625 12.0703 20.4004 11.8555L16.2305 7.56836C16.0742 7.40234 15.8887 7.30469 15.6445 7.30469C15.2051 7.30469 14.873 7.65625 14.873 8.11523C14.873 8.33008 14.9609 8.56445 15.1367 8.7207L17.3633 10.8398L19.0918 12.4902L19.0918 12.4902L17.3633 14.1504L15.1367 16.2695C14.9609 16.4258 14.873 16.6699 14.873 16.8848C14.873 17.3438 15.2051 17.6758 15.6445 17.6758Z" fill="var(--color-primary)"/>
 </g>
</svg>
