<?xml version="1.0" encoding="UTF-8"?>
<!--Generator: Apple Native CoreSVG 341-->
<!DOCTYPE svg
PUBLIC "-//W3C//DTD SVG 1.1//EN"
       "http://www.w3.org/Graphics/SVG/1.1/DTD/svg11.dtd">
<svg version="1.1" xmlns="http://www.w3.org/2000/svg" xmlns:xlink="http://www.w3.org/1999/xlink" viewBox="0 0 13.4981 24.248">
 <g>
  <rect height="24.248" opacity="0" width="13.4981" x="0" y="0"/>
  <path d="M0.801772 5.64453L6.48537 5.64453C7.27638 5.64453 7.49123 5.09766 7.05177 4.47266L4.27833 0.517578C3.91701 0 3.3799-0.00976562 3.0088 0.517578L0.235366 4.46289C-0.223619 5.09766 0.000990731 5.64453 0.801772 5.64453ZM3.64357 24.248C4.23927 24.248 4.58107 23.8965 4.58107 23.3008L4.58107 4.16992C4.58107 3.66211 4.15138 3.24219 3.64357 3.24219C3.12599 3.24219 2.70607 3.66211 2.70607 4.16992L2.70607 23.3008C2.70607 23.8965 3.04787 24.248 3.64357 24.248ZM13.0967 19.6484C13.2236 19.209 13.0576 18.6914 12.501 18.4961C7.16896 16.6895 4.58107 13.4668 4.58107 8.7207L4.58107 4.16992C4.58107 3.66211 4.15138 3.24219 3.64357 3.24219C3.12599 3.24219 2.70607 3.66211 2.70607 4.16992L2.70607 8.7207C2.70607 14.3066 5.84083 18.2129 11.9151 20.2734C12.5205 20.4785 12.96 20.1074 13.0967 19.6484Z" fill="white" fill-opacity="0.85"/>
 </g>
</svg>
