<?xml version="1.0" encoding="UTF-8"?>
<!--Generator: Apple Native CoreSVG 341-->
<!DOCTYPE svg
PUBLIC "-//W3C//DTD SVG 1.1//EN"
       "http://www.w3.org/Graphics/SVG/1.1/DTD/svg11.dtd">
<svg version="1.1" xmlns="http://www.w3.org/2000/svg" xmlns:xlink="http://www.w3.org/1999/xlink" viewBox="0 0 25.8008 25.459">
 <g>
  <rect height="25.459" opacity="0" width="25.8008" x="0" y="0"/>
  <path d="M12.7148 25.4395C19.7266 25.4395 25.4395 19.7266 25.4395 12.7246C25.4395 5.71289 19.7266 0 12.7148 0C5.71289 0 0 5.71289 0 12.7246C0 19.7266 5.71289 25.4395 12.7148 25.4395Z" fill="white" fill-opacity="0.2125"/>
  <path d="M14.3164 7.76367L14.3164 13.6523C14.3164 14.4141 15.1758 14.7656 15.8105 14.2188L18.8574 11.6016C19.541 11.0254 19.541 10.3906 18.8574 9.79492L15.8105 7.1875C15.1758 6.63086 14.3164 7.00195 14.3164 7.76367ZM15.9668 11.5918C16.4551 11.5918 16.8652 11.1816 16.8652 10.7031C16.8652 10.2051 16.4551 9.80469 15.9668 9.80469L10.7422 9.80469C8.32031 9.80469 7.1875 10.9473 7.1875 13.3691L7.1875 17.2754C7.1875 17.9102 7.5 18.291 8.07617 18.2812C8.64258 18.2715 8.96484 17.9102 8.96484 17.2754L8.96484 13.4473C8.96484 12.1484 9.54102 11.6016 10.7715 11.6016Z" fill="white" fill-opacity="0.85"/>
 </g>
</svg>
