<svg version="1.1" xmlns="http://www.w3.org/2000/svg" xmlns:xlink="http://www.w3.org/1999/xlink" viewBox="0 0 23.3203 23.3105">
 <g>
  <rect height="23.3105" opacity="0" width="23.3203" x="0" y="0"/>
  <path d="M3.79883 22.959L19.1504 22.959C21.6797 22.959 22.959 21.6797 22.959 19.1992L22.959 3.76953C22.959 1.2793 21.6797 0 19.1504 0L3.79883 0C1.2793 0 0 1.26953 0 3.76953L0 19.1992C0 21.6895 1.2793 22.959 3.79883 22.959Z" fill="var(--color-tertiary)"/>
  <path d="M5.19531 12.8809C5.19531 10.1172 7.1582 8.29102 10.1074 8.29102L14.0527 8.29102L15.332 8.33984L14.541 7.72461L13.0176 6.24023C12.8613 6.09375 12.7637 5.87891 12.7637 5.6543C12.7637 5.18555 13.1055 4.81445 13.5742 4.81445C13.8184 4.81445 14.0137 4.90234 14.1699 5.06836L17.4414 8.37891C17.6367 8.58398 17.7441 8.83789 17.7441 9.0918C17.7441 9.3457 17.6465 9.58008 17.4414 9.79492L14.1602 13.1445C14.0137 13.291 13.8086 13.3789 13.5645 13.3789C13.1152 13.3789 12.7637 13.0176 12.7637 12.5488C12.7637 12.3047 12.8613 12.1094 13.0176 11.9434L14.7461 10.2734L15.3223 9.85352L14.0527 9.90234L10.1074 9.90234C8.125 9.90234 6.80664 11.0938 6.80664 12.8809C6.80664 14.7754 8.14453 16.0352 10.1172 16.0352L11.8945 16.0352C12.3926 16.0352 12.7344 16.3672 12.7344 16.8457C12.7344 17.334 12.3828 17.6562 11.875 17.6562L10.1172 17.6562C7.16797 17.6562 5.19531 15.7617 5.19531 12.8809Z" fill="var(--color-primary)"/>
 </g>
</svg>
