<?xml version="1.0" encoding="UTF-8"?>
<!--Generator: Apple Native CoreSVG 341-->
<!DOCTYPE svg
PUBLIC "-//W3C//DTD SVG 1.1//EN"
       "http://www.w3.org/Graphics/SVG/1.1/DTD/svg11.dtd">
<svg version="1.1" xmlns="http://www.w3.org/2000/svg" xmlns:xlink="http://www.w3.org/1999/xlink" viewBox="0 0 29.7168 23.96">
 <g>
  <rect height="23.96" opacity="0" width="29.7168" x="0" y="0"/>
  <path d="M22.7051 21.9947L22.9102 18.1763L22.9102 0.959515C22.9102 0.41264 22.5098 0.00248398 21.9531 0.00248398C21.3965 0.00248398 20.9961 0.41264 20.9961 0.959515L20.9961 18.1763L21.2207 21.9947C21.2598 22.4732 21.6016 22.7369 21.9629 22.7369C22.334 22.7369 22.6758 22.4732 22.7051 21.9947ZM16.1719 15.774C15.9863 15.5787 15.7715 15.4908 15.498 15.4908C14.9414 15.4908 14.5508 15.8716 14.5508 16.438C14.5508 16.6822 14.668 16.9556 14.8633 17.1509L21.2402 23.6353C21.6309 24.0455 22.2559 24.065 22.666 23.6353L29.043 17.1509C29.2383 16.9556 29.3555 16.6822 29.3555 16.438C29.3555 15.8716 28.9648 15.4908 28.418 15.4908C28.1445 15.4908 27.9297 15.5787 27.7344 15.774L24.9609 18.6158L21.9531 22.0435L18.9551 18.6158Z" fill="white" fill-opacity="0.85"/>
  <path d="M8.1543 1.94584C8.125 1.47709 7.7832 1.20366 7.41211 1.20366C7.06055 1.20366 6.70898 1.47709 6.66992 1.94584L6.45508 5.7642L6.45508 22.9908C6.45508 23.5376 6.8457 23.9478 7.40234 23.9478C7.95898 23.9478 8.35938 23.5376 8.35938 22.9908L8.35938 5.7642ZM1.62109 8.17631L4.4043 5.33452L7.40234 1.90678L10.4102 5.33452L13.1836 8.17631C13.3789 8.37162 13.5938 8.45952 13.8672 8.45952C14.4141 8.45952 14.8145 8.07866 14.8145 7.51225C14.8145 7.25834 14.6973 6.98491 14.502 6.78959L8.125 0.314984C7.70508-0.114704 7.08984-0.0951723 6.68945 0.314984L0.3125 6.78959C0.117188 6.98491 0 7.25834 0 7.51225C0 8.07866 0.390625 8.45952 0.947266 8.45952C1.2207 8.45952 1.43555 8.37162 1.62109 8.17631Z" fill="white" fill-opacity="0.85"/>
 </g>
</svg>
