<svg version="1.1" xmlns="http://www.w3.org/2000/svg" xmlns:xlink="http://www.w3.org/1999/xlink" viewBox="0 0 23.3203 22.959">
 <g>
  <rect height="22.959" opacity="0" width="23.3203" x="0" y="0"/>
  <path d="M3.79883 22.959L19.1504 22.959C21.6797 22.959 22.959 21.6797 22.959 19.1992L22.959 3.76953C22.959 1.2793 21.6797 0 19.1504 0L3.79883 0C1.2793 0 0 1.26953 0 3.76953L0 19.1992C0 21.6992 1.2793 22.959 3.79883 22.959Z" fill="var(--color-tertiary)"/>
  <path d="M4.82422 16.7676C4.47266 16.7676 4.17969 16.5723 4.17969 16.1621C4.17969 16.0254 4.21875 15.8887 4.25781 15.7715L6.76758 6.8457C6.91406 6.32812 7.2168 6.02539 7.74414 6.02539C8.29102 6.02539 8.56445 6.30859 8.7207 6.83594L11.25 15.7715C11.2988 15.9082 11.3086 16.0449 11.3086 16.1621C11.3086 16.5723 11.0156 16.7676 10.6934 16.7676C10.3223 16.7676 10.1367 16.582 10.0293 16.2207L9.39453 13.8086L6.08398 13.8086L5.45898 16.2207C5.37109 16.582 5.15625 16.7676 4.82422 16.7676ZM6.34766 12.7637L9.12109 12.7637L7.77344 7.62695L7.66602 7.62695ZM15.3711 17.8418C15.1758 17.8418 15.0293 17.6855 15.0293 17.5L15.0293 16.4453C13.6035 16.3184 12.5781 15.4297 12.3633 14.2188C12.3438 14.0723 12.334 13.9453 12.334 13.8184C12.334 13.4375 12.5977 13.2227 12.9395 13.2227C13.2227 13.2227 13.457 13.3789 13.5352 13.7598C13.6719 14.5898 14.0918 15.2539 15.0293 15.3809L15.0293 11.8457L14.6289 11.6602C13.2617 11.0156 12.4707 10.2832 12.4707 8.87695C12.4707 7.36328 13.5742 6.46484 15.0293 6.34766L15.0293 5.32227C15.0293 5.13672 15.1758 4.99023 15.3711 4.99023C15.5469 4.99023 15.7031 5.13672 15.7031 5.32227L15.7031 6.34766C16.9629 6.45508 17.8711 7.1875 18.1445 8.44727C18.1934 8.62305 18.2129 8.7793 18.2129 8.90625C18.2129 9.27734 17.9688 9.49219 17.6074 9.49219C17.3047 9.49219 17.1094 9.30664 17.0312 9.00391C16.8652 8.125 16.5039 7.5293 15.7031 7.41211L15.7031 10.8301L16.1621 11.0449C17.4609 11.6699 18.3887 12.2852 18.3887 13.8184C18.3887 15.3906 17.2852 16.3477 15.7031 16.4551L15.7031 17.5C15.7031 17.6855 15.5469 17.8418 15.3711 17.8418ZM13.6914 8.80859C13.6914 9.62891 14.2871 10.1172 15.0293 10.498L15.0293 7.40234C14.2676 7.5 13.6914 7.96875 13.6914 8.80859ZM15.7031 15.4004C16.582 15.3125 17.1484 14.8242 17.1484 13.9355C17.1484 13.0371 16.5137 12.5586 15.7031 12.168Z" fill="var(--color-primary)"/>
 </g>
</svg>
