<svg version="1.1" xmlns="http://www.w3.org/2000/svg" xmlns:xlink="http://www.w3.org/1999/xlink" viewBox="0 0 25.8008 25.459">
 <g>
  <rect height="25.459" opacity="0" width="25.8008" x="0" y="0"/>
  <path d="M12.7148 25.459C19.7266 25.459 25.4395 19.7461 25.4395 12.7344C25.4395 5.73242 19.7266 0.0195312 12.7148 0.0195312C5.71289 0.0195312 0 5.73242 0 12.7344C0 19.7461 5.71289 25.459 12.7148 25.459Z" fill="var(--color-tertiary)"/>
  <path d="M10.6543 20.625C8.37891 20.625 7.25586 19.4824 7.27539 17.1582C7.30469 14.4727 7.32422 12.5098 7.38281 11.0547C7.53906 7.63672 8.31055 6.17188 10.6445 5.72266C10.7812 4.72656 11.5918 4.02344 12.7051 4.02344C13.8086 4.02344 14.6191 4.72656 14.7559 5.72266C17.0996 6.17188 17.8809 7.63672 18.0273 11.0547C18.0957 12.5098 18.1055 14.4727 18.1445 17.1582C18.1543 19.4824 17.0312 20.625 14.7559 20.625ZM11.6211 5.58594C11.9629 5.56641 12.3145 5.55664 12.7051 5.55664C13.0957 5.55664 13.457 5.56641 13.7891 5.58594C13.6133 5.19531 13.2129 4.93164 12.7051 4.93164C12.1875 4.93164 11.7871 5.19531 11.6211 5.58594ZM9.58984 14.5508L15.8301 14.5508L15.8301 13.6914C15.8301 13.1348 15.4688 12.7539 14.8926 12.7539L10.5273 12.7539C9.94141 12.7539 9.58984 13.1348 9.58984 13.6914ZM10.5273 17.9883L14.8926 17.9883C15.4688 17.9883 15.8301 17.6074 15.8301 17.041L15.8301 15.332L9.58984 15.332L9.58984 17.041C9.58984 17.6074 9.94141 17.9883 10.5273 17.9883Z" fill="var(--color-primary)"/>
 </g>
</svg>
