<svg version="1.1" xmlns="http://www.w3.org/2000/svg" xmlns:xlink="http://www.w3.org/1999/xlink" viewBox="0 0 27.9395 26.5527">
 <g>
  <rect height="26.5527" opacity="0" width="27.9395" x="0" y="0"/>
  <path d="M1.5332 25.3223L26.0449 25.3223L26.0449 23.9258C26.0449 23.5059 25.791 23.252 25.3613 23.252L24.5605 23.252L24.5605 8.33984L25.6934 8.33984C26.2891 8.33984 26.6211 7.91992 26.6211 7.48047C26.6211 7.1582 26.4453 6.875 26.0547 6.65039L15.2637 0.419922C14.7852 0.146484 14.2773 0 13.7891 0C13.3008 0 12.7832 0.146484 12.3145 0.419922L1.52344 6.65039C1.12305 6.875 0.957031 7.1582 0.957031 7.48047C0.957031 7.91992 1.28906 8.33984 1.88477 8.33984L3.02734 8.33984L3.02734 23.252L2.22656 23.252C1.78711 23.252 1.5332 23.5059 1.5332 23.9258ZM0.869141 26.5332L26.709 26.5332C27.1875 26.5332 27.5781 26.1426 27.5781 25.6738C27.5781 25.1953 27.1875 24.8047 26.709 24.8047L0.869141 24.8047C0.390625 24.8047 0 25.1953 0 25.6738C0 26.1426 0.390625 26.5332 0.869141 26.5332Z" fill="var(--color-tertiary)"/>
  <path d="M11.2305 19.9609C10.6934 19.9609 10.3809 19.5996 10.3809 19.1211L10.3809 9.52148C10.3809 9.01367 10.6836 8.66211 11.2305 8.66211L13.3887 8.66211L13.3887 7.49023C13.3887 7.24609 13.5449 7.08984 13.7891 7.08984C14.0234 7.08984 14.1797 7.24609 14.1797 7.49023L14.1797 8.66211L14.3848 8.66211C16.123 8.66211 17.7051 9.58008 17.7051 11.4648C17.7051 12.666 16.8164 13.7891 15.625 13.9648L15.625 14.043C17.1582 14.2188 18.2812 15.2539 18.2812 16.8262C18.2812 18.9648 16.5723 19.9609 14.4043 19.9609L14.1797 19.9609L14.1797 21.0449C14.1797 21.2793 14.0332 21.4453 13.7891 21.4453C13.5449 21.4453 13.3887 21.2793 13.3887 21.0449L13.3887 19.9609ZM11.7188 18.8379L13.3887 18.8379L13.3887 14.6875L11.7188 14.6875ZM11.7188 13.584L13.3887 13.584L13.3887 9.80469L11.7188 9.80469ZM14.1797 18.8379L14.3164 18.8379C15.7715 18.8379 16.9141 18.2227 16.9141 16.7578C16.9141 15.2832 15.7129 14.6973 14.2578 14.6973L14.1797 14.6973ZM14.1797 13.5547C15.4297 13.4668 16.3672 12.8809 16.3672 11.6211C16.3672 10.4004 15.4492 9.85352 14.1797 9.80469Z" fill="var(--color-primary)"/>
 </g>
</svg>
