<?xml version="1.0" encoding="UTF-8"?>
<!--Generator: Apple Native CoreSVG 341-->
<!DOCTYPE svg
PUBLIC "-//W3C//DTD SVG 1.1//EN"
       "http://www.w3.org/Graphics/SVG/1.1/DTD/svg11.dtd">
<svg version="1.1" xmlns="http://www.w3.org/2000/svg" xmlns:xlink="http://www.w3.org/1999/xlink" viewBox="0 0 39.9707 19.248">
 <g>
  <rect height="19.248" opacity="0" width="39.9707" x="0" y="0"/>
  <path d="M2.80273 10.8203C2.80273 10.3711 2.85156 9.92188 2.91016 9.48242C1.16211 10.3223 0 12.0996 0 14.1016C0 16.8848 2.23633 19.248 5.13672 19.248C6.37695 19.248 7.51953 18.7988 8.39844 18.0664C5.14648 17.002 2.80273 14.2773 2.80273 10.8203ZM36.8066 10.8203C36.8066 14.2773 34.4727 17.002 31.2109 18.0664C32.0996 18.7988 33.2324 19.248 34.4727 19.248C37.3633 19.248 39.6094 16.8848 39.6094 14.1016C39.6094 12.0996 38.4473 10.3223 36.6992 9.48242C36.7676 9.92188 36.8066 10.3711 36.8066 10.8203Z" fill="white" fill-opacity="0.425"/>
  <path d="M15.8496 7.24609C17.0703 5.11719 16.3574 2.4707 14.2285 1.24023C12.1387 0.0390625 9.45312 0.751953 8.24219 2.86133L6.13281 6.50391C4.92188 8.60352 5.64453 11.2793 7.75391 12.4902C9.87305 13.7207 12.5391 13.0176 13.7598 10.8789ZM9.72656 11.0938C8.50586 11.0938 7.54883 10.127 7.54883 8.89648C7.54883 7.68555 8.51562 6.69922 9.72656 6.69922C10.957 6.69922 11.9336 7.68555 11.9336 8.89648C11.9336 10.127 10.957 11.0938 9.72656 11.0938ZM9.72656 10.2344C10.498 10.2344 11.0742 9.64844 11.0742 8.89648C11.0742 8.1543 10.498 7.55859 9.72656 7.55859C8.97461 7.55859 8.4082 8.1543 8.4082 8.89648C8.4082 9.64844 8.97461 10.2344 9.72656 10.2344ZM11.4551 17.4414C15.5469 17.4414 19.0039 14.6289 19.0039 10.3027C19.0039 8.4375 18.418 7.2168 17.5 5.80078C17.4121 6.47461 17.1875 7.14844 16.8164 7.7832L14.7266 11.4355C13.2031 14.0918 9.84375 14.9707 7.20703 13.4473C5.23438 12.3145 4.23828 10.1855 4.48242 8.07617C4.10156 8.97461 3.91602 9.90234 3.91602 10.8301C3.91602 14.6973 7.33398 17.4414 11.4551 17.4414ZM23.75 7.24609L25.8398 10.8789C27.0703 13.0176 29.7461 13.7207 31.8555 12.4902C33.9746 11.2793 34.6777 8.60352 33.4668 6.50391L31.377 2.86133C30.1562 0.751953 27.4805 0.0390625 25.3809 1.24023C23.252 2.4707 22.5391 5.11719 23.75 7.24609ZM29.8828 11.0938C28.6523 11.0938 27.6758 10.127 27.6758 8.89648C27.6758 7.68555 28.6523 6.69922 29.8828 6.69922C31.0938 6.69922 32.0605 7.68555 32.0605 8.89648C32.0605 10.127 31.1035 11.0938 29.8828 11.0938ZM29.8828 10.2344C30.6348 10.2344 31.2109 9.64844 31.2109 8.89648C31.2109 8.1543 30.6348 7.55859 29.8828 7.55859C29.1113 7.55859 28.5352 8.1543 28.5352 8.89648C28.5352 9.64844 29.1113 10.2344 29.8828 10.2344ZM28.1445 17.4414C32.2754 17.4414 35.6934 14.6973 35.6934 10.8301C35.6934 9.90234 35.498 8.97461 35.127 8.07617C35.3711 10.1855 34.3652 12.3145 32.4121 13.4473C29.7754 14.9707 26.4062 14.0918 24.8828 11.4355L22.793 7.7832C22.4219 7.14844 22.207 6.47461 22.1094 5.80078C21.1816 7.2168 20.6055 8.4375 20.6055 10.3027C20.6055 14.6289 24.0527 17.4414 28.1445 17.4414Z" fill="white" fill-opacity="0.85"/>
  <path d="M9.72656 11.0938C8.50586 11.0938 7.54883 10.127 7.54883 8.89648C7.54883 7.68555 8.51562 6.69922 9.72656 6.69922C10.957 6.69922 11.9336 7.68555 11.9336 8.89648C11.9336 10.127 10.957 11.0938 9.72656 11.0938ZM9.72656 10.2344C10.498 10.2344 11.0742 9.64844 11.0742 8.89648C11.0742 8.1543 10.498 7.55859 9.72656 7.55859C8.97461 7.55859 8.4082 8.1543 8.4082 8.89648C8.4082 9.64844 8.97461 10.2344 9.72656 10.2344ZM29.8828 11.0938C28.6523 11.0938 27.6758 10.127 27.6758 8.89648C27.6758 7.68555 28.6523 6.69922 29.8828 6.69922C31.0938 6.69922 32.0605 7.68555 32.0605 8.89648C32.0605 10.127 31.1035 11.0938 29.8828 11.0938ZM29.8828 10.2344C30.6348 10.2344 31.2109 9.64844 31.2109 8.89648C31.2109 8.1543 30.6348 7.55859 29.8828 7.55859C29.1113 7.55859 28.5352 8.1543 28.5352 8.89648C28.5352 9.64844 29.1113 10.2344 29.8828 10.2344Z" fill="white" fill-opacity="0.2125"/>
 </g>
</svg>
