<svg version="1.1" xmlns="http://www.w3.org/2000/svg" xmlns:xlink="http://www.w3.org/1999/xlink" viewBox="0 0 24.9707 29.5605">
 <g>
  <rect height="29.5605" opacity="0" width="24.9707" x="0" y="0"/>
  <path d="M14.2285 29.4824C18.7207 29.4824 21.5137 27.8809 21.5137 25.166L21.5137 18.9941C23.4668 17.3145 24.6094 14.5898 24.6094 11.5918C24.6094 4.63867 20.0879 0 13.3301 0C6.61133 0 2.10938 4.54102 2.10938 11.3281C2.10938 11.7383 2.11914 12.0703 2.1582 12.3926L0.615234 15.1855C0.205078 15.918 0 16.6211 0 17.2852C0 18.5449 0.791016 19.5898 2.12891 19.8926L2.12891 22.3145C2.12891 24.4531 3.60352 25.5566 5.58594 25.332L7.03125 25.1758L7.02148 25.4297C7.16797 27.9688 9.90234 29.4824 14.2285 29.4824Z" fill="var(--color-tertiary)"/>
  <path d="M8.97461 13.1055C6.9043 13.1055 5.52734 11.5039 5.52734 9.39453C5.52734 8.59375 5.79102 7.80273 6.25 7.16797C6.61133 7.98828 7.43164 8.51562 8.51562 8.51562C8.82812 8.51562 9.08203 8.26172 9.08203 7.97852C9.08203 7.66602 8.83789 7.42188 8.51562 7.42188C7.72461 7.42188 7.10938 6.80664 7.10938 5.9668C7.10938 4.67773 8.29102 3.70117 9.82422 3.70117C10.0684 3.70117 10.293 3.7207 10.5176 3.75977C10.3418 4.11133 10.1953 4.52148 10.1758 5.05859C10.1562 5.38086 10.3809 5.625 10.7227 5.625C11.0449 5.625 11.2598 5.41992 11.2598 5.08789C11.2891 3.82812 12.2266 3.03711 13.5449 3.03711C14.3066 3.03711 15.0879 3.41797 15.5957 4.0332C15.7715 3.99414 15.957 3.97461 16.4453 3.97461C17.8906 3.97461 19.0234 5.10742 19.0234 6.55273C19.0234 9.52148 14.1016 10.0977 14.1016 13.3496C14.1016 13.5645 14.1406 13.7793 14.2188 13.9844C13.8672 14.043 13.4863 14.082 13.1738 14.082C12.3633 14.082 11.6309 13.8867 11.0059 13.5254C12.0898 12.9883 12.7344 11.9629 12.7344 10.6934C12.7344 10.4492 12.7148 10.1953 12.6465 9.9707C14.0332 9.63867 14.7559 8.71094 14.7559 7.25586C14.7559 6.97266 14.502 6.70898 14.209 6.70898C13.916 6.70898 13.6816 6.96289 13.6816 7.25586C13.6816 8.25195 13.1836 8.85742 12.168 9.0332C12.1289 8.90625 12.0312 8.69141 11.9043 8.59375C11.7676 8.4668 11.6113 8.42773 11.4746 8.42773C11.1816 8.42773 10.9473 8.64258 10.9473 8.92578C10.9473 9.07227 11.0156 9.26758 11.2012 9.44336C11.4941 9.72656 11.6699 10.1758 11.6699 10.6738C11.6699 12.0898 10.5566 13.1055 8.97461 13.1055ZM18.7109 16.7188C17.7441 16.7188 16.9922 15.8984 16.8066 14.668L16.5527 14.668C15.6445 14.668 15.0684 14.1113 15.0684 13.3203C15.0684 10.7715 19.707 10.2832 20.0098 6.72852C21.0156 7.24609 21.6504 8.22266 21.6504 9.42383C21.6504 10.7324 20.6836 11.543 19.2285 11.4648C18.9453 11.4453 18.7012 11.709 18.7012 12.002C18.7012 12.2852 18.916 12.5195 19.209 12.5488C19.8926 12.5781 20.4883 12.4707 20.9961 12.2461C21.0059 12.4414 21.0059 12.6562 21.0059 12.8613C21.0059 15.1465 20.0684 16.7188 18.7109 16.7188Z" fill="var(--color-primary)"/>
 </g>
</svg>
