<svg version="1.1" xmlns="http://www.w3.org/2000/svg" xmlns:xlink="http://www.w3.org/1999/xlink" viewBox="0 0 23.3203 22.959">
 <g>
  <rect height="22.959" opacity="0" width="23.3203" x="0" y="0"/>
  <path d="M3.79883 22.959L19.1504 22.959C21.6797 22.959 22.959 21.6797 22.959 19.1992L22.959 3.76953C22.959 1.2793 21.6797 0 19.1504 0L3.79883 0C1.2793 0 0 1.26953 0 3.76953L0 19.1992C0 21.6992 1.2793 22.959 3.79883 22.959Z" fill="var(--color-tertiary)"/>
  <path d="M5.79102 16.6895C5.33203 16.6895 5.12695 16.3965 5.12695 16.0059L5.12695 6.77734C5.12695 6.35742 5.37109 6.10352 5.77148 6.10352L8.01758 6.10352C9.91211 6.10352 11.123 7.2168 11.123 9.17969C11.123 10.4004 10.5957 11.5625 9.42383 12.0215L10.9863 15.5859C11.0449 15.7422 11.123 15.8984 11.123 16.0742C11.123 16.4355 10.8691 16.6895 10.498 16.6895C10.166 16.6895 9.9707 16.5332 9.83398 16.2109L8.1543 12.3145L6.44531 12.3145L6.44531 16.0059C6.44531 16.416 6.19141 16.6895 5.79102 16.6895ZM6.44531 11.25L7.91016 11.25C9.19922 11.25 9.81445 10.4102 9.81445 9.19922C9.81445 7.99805 9.14062 7.19727 7.90039 7.19727L6.44531 7.19727ZM15.3223 17.7734C15.1172 17.7734 14.9902 17.6465 14.9902 17.4414L14.9902 16.377C13.6816 16.2793 12.6367 15.6055 12.334 14.0918C12.3145 13.9746 12.2949 13.8184 12.2949 13.7305C12.2949 13.3594 12.5488 13.1543 12.9004 13.1543C13.1738 13.1543 13.4375 13.3105 13.4863 13.6426C13.6328 14.5996 14.0723 15.2051 14.9902 15.3125L14.9902 11.7773L14.5898 11.5918C13.1934 10.918 12.4121 10.1855 12.4121 8.80859C12.4121 7.30469 13.4961 6.38672 14.9902 6.26953L14.9902 5.25391C14.9902 5.04883 15.1172 4.92188 15.3223 4.92188C15.5078 4.92188 15.6445 5.04883 15.6445 5.25391L15.6445 6.2793C16.8555 6.36719 17.8418 7.01172 18.125 8.47656C18.1445 8.59375 18.1641 8.75977 18.1641 8.84766C18.1641 9.19922 17.9297 9.42383 17.5781 9.42383C17.2266 9.42383 17.0312 9.17969 16.9727 8.93555C16.8652 8.13477 16.5137 7.4707 15.6445 7.34375L15.6445 10.752L16.123 10.9766C17.4023 11.5723 18.3496 12.2266 18.3496 13.75C18.3496 15.2734 17.2949 16.2793 15.6445 16.3867L15.6445 17.4414C15.6445 17.6465 15.5078 17.7734 15.3223 17.7734ZM13.6426 8.74023C13.6426 9.55078 14.2285 10.0293 14.9902 10.4297L14.9902 7.33398C14.2188 7.43164 13.6426 7.90039 13.6426 8.74023ZM15.6445 15.332C16.543 15.2539 17.0996 14.7559 17.0996 13.8672C17.0996 12.959 16.4648 12.5 15.6445 12.0996Z" fill="var(--color-primary)"/>
 </g>
</svg>
