<?xml version="1.0" encoding="UTF-8"?>
<!--Generator: Apple Native CoreSVG 341-->
<!DOCTYPE svg
PUBLIC "-//W3C//DTD SVG 1.1//EN"
       "http://www.w3.org/Graphics/SVG/1.1/DTD/svg11.dtd">
<svg version="1.1" xmlns="http://www.w3.org/2000/svg" xmlns:xlink="http://www.w3.org/1999/xlink" viewBox="0 0 30.3125 33.0371">
 <g>
  <rect height="33.0371" opacity="0" width="30.3125" x="0" y="0"/>
  <path d="M28.0469 7.94922L28.0469 25.0879C28.0469 28.469 26.0335 31.055 22.8241 31.3942C24.5426 29.9722 25.5469 27.7204 25.5469 25.0879L25.5469 7.94922C25.5469 5.30447 24.5332 3.04729 22.7997 1.62964C26.0309 1.96051 28.0469 4.56783 28.0469 7.94922Z" fill="white" fill-opacity="0.425"/>
  <path d="M23.9844 7.94922L23.9844 25.0879C23.9844 28.8086 21.6602 31.4746 18.0957 31.4746C14.5215 31.4746 12.207 28.8086 12.207 25.0879L12.207 21.276L15.498 18.4082C16.6797 17.373 16.6992 15.6836 15.5078 14.6387L12.207 11.7624L12.207 7.94922C12.207 4.22852 14.5215 1.5625 18.0957 1.5625C21.6602 1.5625 23.9844 4.22852 23.9844 7.94922Z" fill="white" fill-opacity="0.425"/>
  <path d="M2.48047 17.4316L11.0352 17.4316C11.5625 17.4316 11.9531 17.0312 11.9531 16.5137C11.9531 15.9961 11.5625 15.5957 11.0352 15.5957L2.48047 15.5957C1.95312 15.5957 1.5625 15.9961 1.5625 16.5137C1.5625 17.0312 1.95312 17.4316 2.48047 17.4316ZM9.14062 13.2617L9.14062 19.7852C9.14062 20.6934 10.0684 21.0742 10.752 20.4785L14.4824 17.2363C14.9512 16.8262 14.9707 16.2305 14.4824 15.8105L10.752 12.5684C10.0977 11.9824 9.14062 12.3145 9.14062 13.2617Z" fill="white" fill-opacity="0.85"/>
 </g>
</svg>
