<?xml version="1.0" encoding="UTF-8"?>
<!--Generator: Apple Native CoreSVG 341-->
<!DOCTYPE svg
PUBLIC "-//W3C//DTD SVG 1.1//EN"
       "http://www.w3.org/Graphics/SVG/1.1/DTD/svg11.dtd">
<svg version="1.1" xmlns="http://www.w3.org/2000/svg" xmlns:xlink="http://www.w3.org/1999/xlink" viewBox="0 0 30.2734 29.6191">
 <g>
  <rect height="29.6191" opacity="0" width="30.2734" x="0" y="0"/>
  <path d="M29.9121 18.0957L29.9121 21.3574C29.9121 25.4102 27.3926 28.0469 23.5254 28.0469L6.38672 28.0469C2.51953 28.0469 0 25.4102 0 21.3574L2.82152e-08 18.0957C0 14.5312 2.66602 12.207 6.38672 12.207L10.1977 12.207L11.6999 13.9355L6.38672 13.9355C3.7207 13.9355 1.72852 15.5859 1.72852 18.0957C1.72852 20.6152 3.7207 22.2559 6.38672 22.2559L23.5254 22.2559C26.1914 22.2559 28.1836 20.6152 28.1836 18.0957C28.1836 15.5859 26.1914 13.9355 23.5254 13.9355L18.206 13.9355L19.7122 12.207L23.5254 12.207C27.2461 12.207 29.9121 14.5312 29.9121 18.0957ZM23.5254 23.9844L6.38672 23.9844C4.53135 23.9844 2.93825 23.4064 1.80765 22.3845C2.18311 24.7963 3.91007 26.3184 6.38672 26.3184L23.5254 26.3184C26.002 26.3184 27.729 24.7963 28.1045 22.3845C26.9739 23.4064 25.3808 23.9844 23.5254 23.9844Z" fill="white" fill-opacity="0.425"/>
  <path d="M14.043 2.48047L14.043 11.0352C14.043 11.5625 14.4434 11.9629 14.9609 11.9629C15.4785 11.9629 15.8789 11.5625 15.8789 11.0352L15.8789 2.48047C15.8789 1.95312 15.4785 1.5625 14.9609 1.5625C14.4434 1.5625 14.043 1.95312 14.043 2.48047ZM18.2129 9.14062L11.6895 9.14062C10.7812 9.14062 10.4004 10.0684 10.9961 10.752L14.2383 14.4824C14.6484 14.9609 15.2441 14.9707 15.6641 14.4824L18.9062 10.752C19.4922 10.0977 19.1602 9.14062 18.2129 9.14062Z" fill="white" fill-opacity="0.85"/>
 </g>
</svg>
