<?xml version="1.0" encoding="UTF-8"?>
<!--Generator: Apple Native CoreSVG 341-->
<!DOCTYPE svg
PUBLIC "-//W3C//DTD SVG 1.1//EN"
       "http://www.w3.org/Graphics/SVG/1.1/DTD/svg11.dtd">
<svg version="1.1" xmlns="http://www.w3.org/2000/svg" xmlns:xlink="http://www.w3.org/1999/xlink" viewBox="0 0 25.8008 25.459">
 <g>
  <rect height="25.459" opacity="0" width="25.8008" x="0" y="0"/>
  <path d="M25.4395 12.7246C25.4395 19.7266 19.7266 25.4395 12.7148 25.4395C5.71289 25.4395 0 19.7266 0 12.7246C0 5.71289 5.71289 0 12.7148 0C19.7266 0 25.4395 5.71289 25.4395 12.7246ZM5.07812 14.0527L5.07812 16.6699C5.07812 18.0371 5.80078 18.7402 7.17773 18.7402L16.084 18.7402C17.4512 18.7402 18.1738 18.0273 18.1738 16.6699L18.1738 14.0527L16.9824 14.0527L16.9824 16.6992C16.9824 17.2852 16.6797 17.5586 16.1426 17.5586L7.10938 17.5586C6.54297 17.5586 6.25977 17.2852 6.25977 16.6992L6.25977 14.0527ZM18.8965 17.7344C18.8965 18.2129 19.2676 18.6133 19.7656 18.6133C20.2539 18.6133 20.6445 18.2227 20.6445 17.7344C20.6445 17.2656 20.2539 16.8652 19.7656 16.8652C19.2676 16.8652 18.8965 17.2754 18.8965 17.7344ZM18.8965 15.2246C18.8965 15.7031 19.2676 16.0938 19.7656 16.0938C20.2539 16.0938 20.6445 15.7129 20.6445 15.2246C20.6445 14.7363 20.2441 14.3555 19.7656 14.3555C19.2676 14.3555 18.8965 14.7363 18.8965 15.2246ZM18.9941 12.1777L5.23438 12.1777C4.92188 12.1777 4.70703 12.4414 4.70703 12.7246C4.70703 13.0371 4.92188 13.2715 5.23438 13.2715L18.9941 13.2715C19.1504 13.5254 19.4531 13.6816 19.7656 13.6816C20.3027 13.6816 20.7227 13.252 20.7227 12.7148C20.7227 12.1777 20.3027 11.748 19.7656 11.748C19.4531 11.748 19.1504 11.9141 18.9941 12.1777ZM7.17773 6.71875C5.80078 6.71875 5.07812 7.42188 5.07812 8.78906L5.07812 11.416L6.25977 11.416L6.25977 8.75977C6.25977 8.18359 6.54297 7.90039 7.10938 7.90039L16.1426 7.90039C16.6797 7.90039 16.9824 8.18359 16.9824 8.75977L16.9824 11.416L18.1738 11.416L18.1738 8.78906C18.1738 7.43164 17.4512 6.71875 16.084 6.71875ZM18.8965 10.2051C18.8965 10.6836 19.2676 11.0742 19.7656 11.0742C20.2441 11.0742 20.6445 10.6836 20.6445 10.2051C20.6445 9.7168 20.2539 9.32617 19.7656 9.32617C19.2676 9.32617 18.8965 9.72656 18.8965 10.2051ZM18.8965 7.69531C18.8965 8.1543 19.2676 8.55469 19.7656 8.55469C20.2539 8.55469 20.6445 8.16406 20.6445 7.69531C20.6445 7.20703 20.2539 6.80664 19.7656 6.80664C19.2676 6.80664 18.8965 7.2168 18.8965 7.69531Z" fill="white" fill-opacity="0.85"/>
 </g>
</svg>
