<svg version="1.1" xmlns="http://www.w3.org/2000/svg" xmlns:xlink="http://www.w3.org/1999/xlink" viewBox="0 0 25.8008 25.459">
 <g>
  <rect height="25.459" opacity="0" width="25.8008" x="0" y="0"/>
  <path d="M12.7148 25.4395C19.7266 25.4395 25.4395 19.7266 25.4395 12.7246C25.4395 5.71289 19.7266 0 12.7148 0C5.71289 0 0 5.71289 0 12.7246C0 19.7266 5.71289 25.4395 12.7148 25.4395Z" fill="var(--color-tertiary)"/>
  <path d="M18.1738 11.416L16.9824 11.416L16.9824 8.75977C16.9824 8.18359 16.6797 7.90039 16.1426 7.90039L7.10938 7.90039C6.54297 7.90039 6.25977 8.18359 6.25977 8.75977L6.25977 11.416L5.07812 11.416L5.07812 8.78906C5.07812 7.42188 5.80078 6.71875 7.17773 6.71875L16.084 6.71875C17.4512 6.71875 18.1738 7.43164 18.1738 8.78906ZM4.70703 12.7246C4.70703 12.4414 4.92188 12.1777 5.23438 12.1777L18.9941 12.1777C19.1504 11.9141 19.4531 11.748 19.7656 11.748C20.3027 11.748 20.7227 12.1777 20.7227 12.7148C20.7227 13.252 20.3027 13.6816 19.7656 13.6816C19.4531 13.6816 19.1504 13.5254 18.9941 13.2715L5.23438 13.2715C4.92188 13.2715 4.70703 13.0371 4.70703 12.7246ZM16.9824 14.0527L18.1738 14.0527L18.1738 16.6699C18.1738 18.0273 17.4512 18.7402 16.084 18.7402L7.17773 18.7402C5.80078 18.7402 5.07812 18.0371 5.07812 16.6699L5.07812 14.0527L6.25977 14.0527L6.25977 16.6992C6.25977 17.2852 6.54297 17.5586 7.10938 17.5586L16.1426 17.5586C16.6797 17.5586 16.9824 17.2852 16.9824 16.6992ZM19.7656 8.55469C19.2676 8.55469 18.8965 8.1543 18.8965 7.69531C18.8965 7.2168 19.2676 6.80664 19.7656 6.80664C20.2539 6.80664 20.6445 7.20703 20.6445 7.69531C20.6445 8.16406 20.2539 8.55469 19.7656 8.55469ZM19.7656 11.0742C19.2676 11.0742 18.8965 10.6836 18.8965 10.2051C18.8965 9.72656 19.2676 9.32617 19.7656 9.32617C20.2539 9.32617 20.6445 9.7168 20.6445 10.2051C20.6445 10.6836 20.2441 11.0742 19.7656 11.0742ZM19.7656 16.0938C19.2676 16.0938 18.8965 15.7031 18.8965 15.2246C18.8965 14.7363 19.2676 14.3555 19.7656 14.3555C20.2441 14.3555 20.6445 14.7363 20.6445 15.2246C20.6445 15.7129 20.2539 16.0938 19.7656 16.0938ZM19.7656 18.6133C19.2676 18.6133 18.8965 18.2129 18.8965 17.7344C18.8965 17.2754 19.2676 16.8652 19.7656 16.8652C20.2539 16.8652 20.6445 17.2656 20.6445 17.7344C20.6445 18.2227 20.2539 18.6133 19.7656 18.6133Z" fill="var(--color-primary)"/>
 </g>
</svg>
