<?xml version="1.0" encoding="UTF-8"?>
<!--Generator: Apple Native CoreSVG 341-->
<!DOCTYPE svg
PUBLIC "-//W3C//DTD SVG 1.1//EN"
       "http://www.w3.org/Graphics/SVG/1.1/DTD/svg11.dtd">
<svg version="1.1" xmlns="http://www.w3.org/2000/svg" xmlns:xlink="http://www.w3.org/1999/xlink" viewBox="0 0 44.3652 21.6699">
 <g>
  <rect height="21.6699" opacity="0" width="44.3652" x="0" y="0"/>
  <path d="M4.63867 2.36328C4.9707 2.74414 4.86328 3.25195 4.48242 3.68164C2.74414 5.57617 1.74805 8.06641 1.74805 10.8301C1.74805 13.584 2.74414 16.0742 4.48242 17.9688C4.86328 18.3984 4.9707 18.9062 4.63867 19.2969C4.28711 19.6973 3.69141 19.6875 3.28125 19.2383C1.19141 17.0215 0 14.0527 0 10.8301C0 7.59766 1.19141 4.63867 3.28125 2.41211C3.69141 1.96289 4.28711 1.96289 4.63867 2.36328ZM40.7227 2.41211C42.8027 4.63867 44.0039 7.59766 44.0039 10.8301C44.0039 14.0527 42.8027 17.0215 40.7227 19.2383C40.3125 19.6875 39.707 19.6973 39.3652 19.2969C39.0234 18.9062 39.1309 18.3984 39.5215 17.9688C41.2598 16.0742 42.2559 13.584 42.2559 10.8301C42.2559 8.06641 41.2598 5.57617 39.5215 3.68164C39.1309 3.25195 39.0234 2.74414 39.3652 2.36328C39.707 1.96289 40.3125 1.96289 40.7227 2.41211Z" fill="white" fill-opacity="0.85"/>
  <path d="M8.125 5.91797C8.4668 6.29883 8.32031 6.78711 7.97852 7.23633C7.14844 8.18359 6.74805 9.46289 6.74805 10.8301C6.74805 12.1973 7.14844 13.4668 7.97852 14.4141C8.32031 14.8633 8.4668 15.3516 8.125 15.7422C7.76367 16.1426 7.12891 16.1426 6.74805 15.6641C5.63477 14.3457 5 12.6562 5 10.8301C5 9.00391 5.63477 7.30469 6.74805 5.98633C7.12891 5.50781 7.76367 5.51758 8.125 5.91797ZM37.2559 5.98633C38.3691 7.30469 39.0039 9.00391 39.0039 10.8301C39.0039 12.6562 38.3691 14.3457 37.2559 15.6641C36.875 16.1426 36.2305 16.1426 35.8789 15.7422C35.5371 15.3516 35.6836 14.8633 36.0254 14.4141C36.8457 13.4668 37.2559 12.1973 37.2559 10.8301C37.2559 9.46289 36.8457 8.18359 36.0254 7.23633C35.6836 6.78711 35.5371 6.29883 35.8789 5.91797C36.2305 5.51758 36.875 5.50781 37.2559 5.98633Z" fill="white" fill-opacity="0.85"/>
  <path d="M32.832 10.8301C32.832 16.8066 27.9785 21.6504 22.002 21.6504C16.0156 21.6504 11.1719 16.8066 11.1719 10.8301C11.1719 4.84375 16.0156 0 22.002 0C27.9785 0 32.832 4.84375 32.832 10.8301ZM20.8594 5.22461C20.293 5.22461 20.0098 5.36133 19.7363 5.67383L19.2676 6.19141C19.0039 6.47461 18.8672 6.5625 18.4277 6.5625L16.9922 6.5625C15.8691 6.5625 15.293 7.11914 15.293 8.25195L15.293 14.1406C15.293 15.2539 15.8691 15.8203 16.9922 15.8203L27.002 15.8203C28.1152 15.8203 28.7012 15.2539 28.7012 14.1406L28.7012 8.25195C28.7012 7.11914 28.1152 6.5625 27.002 6.5625L25.498 6.5625C25.0586 6.5625 24.9219 6.48438 24.6582 6.19141L24.1895 5.67383C23.9062 5.36133 23.6426 5.22461 23.0664 5.22461ZM25.3125 11.1328C25.3125 13.0078 23.8379 14.4531 22.0117 14.4531C20.166 14.4531 18.6914 12.9883 18.6914 11.1328C18.6914 9.29688 20.166 7.8125 22.0117 7.8125C23.8379 7.8125 25.3125 9.29688 25.3125 11.1328ZM19.541 11.1328C19.541 12.5 20.6445 13.6035 22.002 13.6035C23.3496 13.6035 24.4531 12.5 24.4531 11.1328C24.4531 9.76562 23.3496 8.66211 22.002 8.66211C20.6445 8.66211 19.541 9.76562 19.541 11.1328ZM27.3438 8.63281C27.3438 9.02344 27.0215 9.33594 26.6309 9.33594C26.25 9.33594 25.9277 9.02344 25.9277 8.63281C25.9277 8.23242 26.25 7.91992 26.6309 7.91992C27.0215 7.91992 27.3438 8.23242 27.3438 8.63281Z" fill="white" fill-opacity="0.85"/>
 </g>
</svg>
