<?xml version="1.0" encoding="UTF-8"?>
<!--Generator: Apple Native CoreSVG 341-->
<!DOCTYPE svg
PUBLIC "-//W3C//DTD SVG 1.1//EN"
       "http://www.w3.org/Graphics/SVG/1.1/DTD/svg11.dtd">
<svg version="1.1" xmlns="http://www.w3.org/2000/svg" xmlns:xlink="http://www.w3.org/1999/xlink" viewBox="0 0 25.8008 25.459">
 <g>
  <rect height="25.459" opacity="0" width="25.8008" x="0" y="0"/>
  <path d="M12.7148 25.459C19.7266 25.459 25.4395 19.7461 25.4395 12.7344C25.4395 5.73242 19.7266 0.0195312 12.7148 0.0195312C5.71289 0.0195312 0 5.73242 0 12.7344C0 19.7461 5.71289 25.459 12.7148 25.459Z" fill="white" fill-opacity="0.2125"/>
  <path d="M6.875 18.5645C5.56641 18.5645 4.89258 17.9004 4.89258 16.6016L4.89258 9.72656C4.89258 8.4082 5.56641 7.75391 6.875 7.75391L8.55469 7.75391C9.07227 7.75391 9.21875 7.65625 9.53125 7.32422L10.0781 6.72852C10.4004 6.35742 10.7227 6.19141 11.377 6.19141L13.9648 6.19141C14.6289 6.19141 14.9414 6.35742 15.2734 6.72852L15.8203 7.32422C16.123 7.67578 16.2891 7.75391 16.7969 7.75391L18.5449 7.75391C19.8535 7.75391 20.5371 8.4082 20.5371 9.72656L20.5371 16.6016C20.5371 17.9004 19.8535 18.5645 18.5449 18.5645ZM12.7246 16.9629C14.8633 16.9629 16.582 15.2832 16.582 13.0859C16.582 10.9473 14.8633 9.21875 12.7246 9.21875C10.5762 9.21875 8.84766 10.9473 8.84766 13.0859C8.84766 15.2539 10.5762 16.9629 12.7246 16.9629ZM12.7148 15.9668C11.1328 15.9668 9.84375 14.6875 9.84375 13.0859C9.84375 11.4941 11.1328 10.2148 12.7148 10.2148C14.2969 10.2148 15.5859 11.4941 15.5859 13.0859C15.5859 14.6875 14.2969 15.9668 12.7148 15.9668ZM18.125 10.9961C18.584 10.9961 18.9551 10.625 18.9551 10.1758C18.9551 9.70703 18.584 9.33594 18.125 9.33594C17.6758 9.33594 17.3047 9.70703 17.3047 10.1758C17.3047 10.625 17.6758 10.9961 18.125 10.9961Z" fill="white" fill-opacity="0.85"/>
 </g>
</svg>
