<?xml version="1.0" encoding="UTF-8"?>
<!--Generator: Apple Native CoreSVG 341-->
<!DOCTYPE svg
PUBLIC "-//W3C//DTD SVG 1.1//EN"
       "http://www.w3.org/Graphics/SVG/1.1/DTD/svg11.dtd">
<svg version="1.1" xmlns="http://www.w3.org/2000/svg" xmlns:xlink="http://www.w3.org/1999/xlink" viewBox="0 0 26.6895 26.0645">
 <g>
  <rect height="26.0645" opacity="0" width="26.6895" x="0" y="0"/>
  <path d="M9.12109 18.3398L17.207 18.3398C18.8086 18.3398 19.707 17.373 19.707 15.8496L19.707 13.6914L24.6582 13.6914C25.5957 13.6914 26.3281 13.1348 26.3281 12.2656C26.3281 11.7383 26.0645 11.3184 25.5566 10.8691L14.6582 1.01562C14.1113 0.527344 13.6816 0.253906 13.1641 0.253906C12.6465 0.253906 12.2168 0.527344 11.6699 1.01562L0.771484 10.8789C0.244141 11.3477 0 11.7383 0 12.2656C0 13.1348 0.732422 13.6914 1.66992 13.6914L6.62109 13.6914L6.62109 15.8496C6.62109 17.373 7.50977 18.3398 9.12109 18.3398ZM9.27734 16.6699C8.76953 16.6699 8.4082 16.3184 8.4082 15.8105L8.4082 12.4609C8.4082 12.168 8.30078 12.0605 8.00781 12.0605L2.4707 12.0605C2.34375 12.0605 2.28516 12.0117 2.28516 11.9238C2.28516 11.8652 2.30469 11.8164 2.38281 11.7383L12.793 2.42188C12.959 2.26562 13.0469 2.2168 13.1641 2.2168C13.2812 2.2168 13.3691 2.26562 13.5352 2.42188L23.9453 11.7383C24.0234 11.8164 24.043 11.8652 24.043 11.9238C24.043 12.0117 23.9746 12.0605 23.8574 12.0605L18.3203 12.0605C18.0273 12.0605 17.9102 12.168 17.9102 12.4609L17.9102 15.8105C17.9102 16.3086 17.5488 16.6699 17.0508 16.6699ZM8.63281 26.0645L17.5977 26.0645C18.9453 26.0645 19.7168 25.3223 19.7168 23.9746L19.7168 22.2754C19.7168 20.9277 18.9453 20.1367 17.5977 20.1367L8.63281 20.1367C7.29492 20.1367 6.51367 20.9375 6.51367 22.2754L6.51367 23.9746C6.51367 25.3125 7.29492 26.0645 8.63281 26.0645ZM8.86719 24.5312C8.4082 24.5312 8.14453 24.2969 8.14453 23.8379L8.14453 22.4219C8.14453 21.9531 8.4082 21.6699 8.86719 21.6699L17.373 21.6699C17.832 21.6699 18.0859 21.9531 18.0859 22.4219L18.0859 23.8379C18.0859 24.2969 17.832 24.5312 17.373 24.5312Z" fill="white" fill-opacity="0.85"/>
 </g>
</svg>
