<?xml version="1.0" encoding="UTF-8"?>
<!--Generator: Apple Native CoreSVG 341-->
<!DOCTYPE svg
PUBLIC "-//W3C//DTD SVG 1.1//EN"
       "http://www.w3.org/Graphics/SVG/1.1/DTD/svg11.dtd">
<svg version="1.1" xmlns="http://www.w3.org/2000/svg" xmlns:xlink="http://www.w3.org/1999/xlink" viewBox="0 0 44.4434 22.7441">
 <g>
  <rect height="22.7441" opacity="0" width="44.4434" x="0" y="0"/>
  <path d="M22.1777 22.7441C24.7656 22.7441 25.9863 21.543 25.9863 18.9941L25.9863 12.5586C25.9863 10.8691 25.5078 9.9707 24.1895 8.96484L14.5703 1.66016C12.9883 0.46875 11.7285 0.0292969 9.80469 0.0292969L3.61328 0.0292969C1.24023 0.0292969 0 1.25977 0 3.61328L0 18.9941C0 21.543 1.2207 22.7441 3.80859 22.7441ZM22.4023 11.2402L3.65234 11.2402C2.46094 11.2402 1.72852 10.5273 1.72852 9.30664L1.72852 3.70117C1.72852 2.45117 2.43164 1.75781 3.65234 1.75781L9.80469 1.75781C11.3672 1.75781 12.2852 2.03125 13.3984 2.91992L22.7344 10.0586C23.2812 10.4688 23.1152 11.2402 22.4023 11.2402Z" fill="white" fill-opacity="0.85"/>
  <path d="M31.4844 18.2324C31.8066 18.2324 32.0117 18.125 32.3242 17.8223L43.7109 6.37695C43.9746 6.09375 44.082 5.87891 44.082 5.57617C44.082 5.13672 43.6816 4.74609 43.2227 4.74609C42.9004 4.74609 42.6855 4.85352 42.373 5.15625L30.9961 16.5918C30.7227 16.875 30.625 17.0898 30.625 17.4023C30.625 17.8516 31.0156 18.2324 31.4844 18.2324ZM43.2227 18.2324C43.6816 18.2324 44.082 17.8516 44.082 17.4023C44.082 17.0898 43.9746 16.875 43.7109 16.5918L32.3242 5.15625C32.0117 4.85352 31.8066 4.74609 31.4844 4.74609C31.0156 4.74609 30.625 5.13672 30.625 5.57617C30.625 5.87891 30.7227 6.09375 30.9961 6.37695L42.373 17.8223C42.6855 18.125 42.9004 18.2324 43.2227 18.2324Z" fill="white" fill-opacity="0.85"/>
 </g>
</svg>
