<svg version="1.1" xmlns="http://www.w3.org/2000/svg" xmlns:xlink="http://www.w3.org/1999/xlink" viewBox="0 0 25.8008 25.459">
 <g>
  <rect height="25.459" opacity="0" width="25.8008" x="0" y="0"/>
  <path d="M12.7148 25.459C19.7266 25.459 25.4395 19.7461 25.4395 12.7344C25.4395 5.73242 19.7266 0.0195312 12.7148 0.0195312C5.71289 0.0195312 0 5.73242 0 12.7344C0 19.7461 5.71289 25.459 12.7148 25.459Z" fill="var(--color-tertiary)"/>
  <path d="M5.5957 17.1289L5.5957 13.6914C5.5957 12.6562 5.82031 12.0801 6.35742 11.3965L6.88477 10.7227C7.10938 9.60938 7.5 8.4668 7.71484 8.01758C8.03711 7.33398 8.66211 6.94336 9.44336 6.8457C9.85352 6.79688 11.2012 6.76758 12.7246 6.76758C14.248 6.76758 15.5957 6.79688 16.0059 6.8457C16.7871 6.95312 17.4121 7.33398 17.7344 8.01758C17.9492 8.4668 18.3301 9.60938 18.5742 10.7227L19.0918 11.3965C19.6387 12.0801 19.8535 12.6562 19.8535 13.6914L19.8535 17.1289C19.8535 17.5684 19.502 17.9199 19.0527 17.9199L18.3496 17.9199C17.9004 17.9199 17.5488 17.5684 17.5488 17.1289L17.5488 16.1328C16.2012 16.2109 14.2773 16.2695 12.7246 16.2695C11.1816 16.2695 9.24805 16.2109 7.90039 16.1328L7.90039 17.1289C7.90039 17.5684 7.54883 17.9199 7.10938 17.9199L6.38672 17.9199C5.94727 17.9199 5.5957 17.5684 5.5957 17.1289ZM8.29102 10.1855C8.25195 10.3613 8.32031 10.459 8.54492 10.4492C9.52148 10.3711 10.6348 10.3223 12.7246 10.3223C14.8145 10.3223 15.9375 10.3711 16.9043 10.4492C17.1289 10.459 17.207 10.3613 17.1582 10.1855C17.0117 9.48242 16.748 8.68164 16.5527 8.37891C16.377 8.07617 16.1914 7.93945 15.8301 7.90039C15.3906 7.82227 14.3848 7.80273 12.7246 7.80273C11.0645 7.80273 10.0586 7.83203 9.61914 7.90039C9.25781 7.93945 9.07227 8.07617 8.89648 8.37891C8.71094 8.69141 8.4375 9.48242 8.29102 10.1855ZM7.39258 13.6914C7.39258 14.2188 7.80273 14.6191 8.33008 14.6191C8.84766 14.6191 9.25781 14.2188 9.25781 13.6914C9.25781 13.1641 8.84766 12.7637 8.33008 12.7637C7.80273 12.7637 7.39258 13.1641 7.39258 13.6914ZM10.4785 13.7598C10.4785 14.1504 10.752 14.4238 11.1426 14.4238L14.2969 14.4238C14.6973 14.4238 14.9707 14.1504 14.9707 13.7598C14.9707 13.3594 14.6973 13.0859 14.2969 13.0859L11.1426 13.0859C10.752 13.0859 10.4785 13.3594 10.4785 13.7598ZM16.1914 13.6914C16.1914 14.2188 16.6016 14.6191 17.1191 14.6191C17.6465 14.6191 18.0566 14.2188 18.0566 13.6914C18.0566 13.1641 17.6465 12.7637 17.1191 12.7637C16.6016 12.7637 16.1914 13.1641 16.1914 13.6914Z" fill="var(--color-primary)"/>
 </g>
</svg>
