<?xml version="1.0" encoding="UTF-8"?>
<!--Generator: Apple Native CoreSVG 341-->
<!DOCTYPE svg
PUBLIC "-//W3C//DTD SVG 1.1//EN"
       "http://www.w3.org/Graphics/SVG/1.1/DTD/svg11.dtd">
<svg version="1.1" xmlns="http://www.w3.org/2000/svg" xmlns:xlink="http://www.w3.org/1999/xlink" viewBox="0 0 23.3203 22.959">
 <g>
  <rect height="22.959" opacity="0" width="23.3203" x="0" y="0"/>
  <path d="M3.79883 22.959L19.1504 22.959C21.6797 22.959 22.959 21.6797 22.959 19.1992L22.959 3.76953C22.959 1.2793 21.6797 0 19.1504 0L3.79883 0C1.2793 0 0 1.26953 0 3.76953L0 19.1992C0 21.6992 1.2793 22.959 3.79883 22.959Z" fill="white" fill-opacity="0.2125"/>
  <path d="M11.4844 18.4082C11.2598 18.4082 11.0938 18.2422 11.0938 18.0273L11.0938 16.9141C8.23242 16.6797 6.73828 14.3457 6.73828 11.3672C6.73828 8.35938 8.31055 6.08398 11.0938 5.85938L11.0938 4.79492C11.0938 4.57031 11.2598 4.4043 11.4844 4.4043C11.709 4.4043 11.8652 4.57031 11.8652 4.79492L11.8652 5.83984C13.5156 5.91797 14.9805 6.77734 15.5957 8.24219C15.6836 8.4668 15.752 8.68164 15.752 8.93555C15.752 9.31641 15.5078 9.54102 15.1562 9.54102C14.7949 9.54102 14.6387 9.35547 14.5215 9.02344C14.2285 7.93945 13.1445 7.10938 11.8652 7.00195L11.8652 15.7715C13.1836 15.6738 14.2676 14.9512 14.5996 13.7891C14.707 13.457 14.8926 13.2715 15.2344 13.2715C15.5957 13.2715 15.8301 13.4961 15.8301 13.8574C15.8301 14.0723 15.8008 14.248 15.7227 14.4434C15.1758 16.0254 13.6133 16.8555 11.8652 16.9336L11.8652 18.0273C11.8652 18.252 11.709 18.4082 11.4844 18.4082ZM8.0957 11.3672C8.0957 13.5449 9.0332 15.4785 11.0938 15.7422L11.0938 7.03125C9.08203 7.28516 8.0957 9.18945 8.0957 11.3672Z" fill="white" fill-opacity="0.85"/>
 </g>
</svg>
