<?xml version="1.0" encoding="UTF-8"?>
<!--Generator: Apple Native CoreSVG 341-->
<!DOCTYPE svg
PUBLIC "-//W3C//DTD SVG 1.1//EN"
       "http://www.w3.org/Graphics/SVG/1.1/DTD/svg11.dtd">
<svg version="1.1" xmlns="http://www.w3.org/2000/svg" xmlns:xlink="http://www.w3.org/1999/xlink" viewBox="0 0 25.8008 25.459">
 <g>
  <rect height="25.459" opacity="0" width="25.8008" x="0" y="0"/>
  <path d="M12.7148 25.4395C19.7266 25.4395 25.4395 19.7266 25.4395 12.7246C25.4395 5.71289 19.7266 0 12.7148 0C5.71289 0 0 5.71289 0 12.7246C0 19.7266 5.71289 25.4395 12.7148 25.4395Z" fill="white" fill-opacity="0.2125"/>
  <path d="M12.6758 18.623C12.4512 18.623 12.2656 18.4375 12.2656 18.2227L12.2656 17.0996C10.0293 16.9043 8.61328 15.2344 8.61328 12.666C8.61328 10.2344 9.95117 8.42773 12.2656 8.22266L12.2656 7.10938C12.2656 6.89453 12.4512 6.70898 12.6758 6.70898C12.9004 6.70898 13.0762 6.89453 13.0762 7.10938L13.0762 8.22266C14.0723 8.30078 14.9512 8.66211 15.5664 9.26758C15.957 9.66797 16.3086 10.2246 16.3086 10.7031C16.3086 11.0645 16.0742 11.2891 15.7227 11.2891C15.4492 11.2891 15.2344 11.123 15.1172 10.8496C14.7363 9.93164 14.0234 9.43359 13.0762 9.3457L13.0762 15.9863C14.043 15.8887 14.707 15.3711 15.127 14.4824C15.2539 14.2578 15.4004 14.043 15.7227 14.043C16.0352 14.043 16.3281 14.248 16.3281 14.6289C16.3281 15.0586 15.9863 15.6641 15.5957 16.0645C14.9707 16.6699 14.043 17.0312 13.0762 17.1094L13.0762 18.2227C13.0762 18.4375 12.9004 18.623 12.6758 18.623ZM9.94141 12.666C9.94141 14.4043 10.7031 15.7422 12.2656 15.9668L12.2656 9.35547C10.7324 9.57031 9.94141 10.8984 9.94141 12.666Z" fill="white" fill-opacity="0.85"/>
 </g>
</svg>
