<?xml version="1.0" encoding="UTF-8"?>
<!--Generator: Apple Native CoreSVG 341-->
<!DOCTYPE svg
PUBLIC "-//W3C//DTD SVG 1.1//EN"
       "http://www.w3.org/Graphics/SVG/1.1/DTD/svg11.dtd">
<svg version="1.1" xmlns="http://www.w3.org/2000/svg" xmlns:xlink="http://www.w3.org/1999/xlink" viewBox="0 0 27.3242 23.4082">
 <g>
  <rect height="23.4082" opacity="0" width="27.3242" x="0" y="0"/>
  <path d="M24.9219 5.3125C24.9219 6.32812 24.0625 7.20703 23.0273 7.20703C21.9824 7.20703 21.1133 6.32812 21.1133 5.3125C21.1133 4.30664 21.9824 3.4082 23.0273 3.4082C24.0625 3.4082 24.9219 4.30664 24.9219 5.3125Z" fill="white" fill-opacity="0.85"/>
  <path d="M20.0977 13.3496C20.0977 14.3652 19.2383 15.2441 18.2031 15.2441C17.1582 15.2441 16.2891 14.3652 16.2891 13.3496C16.2891 12.3438 17.1582 11.4551 18.2031 11.4551C19.2383 11.4551 20.0977 12.3438 20.0977 13.3496Z" fill="white" fill-opacity="0.85"/>
  <path d="M14.3359 7.23633C14.3359 8.25195 13.4668 9.13086 12.4316 9.13086C11.3867 9.13086 10.5176 8.25195 10.5176 7.23633C10.5176 6.24023 11.3867 5.3418 12.4316 5.3418C13.4668 5.3418 14.3359 6.24023 14.3359 7.23633Z" fill="white" fill-opacity="0.85"/>
  <path d="M9.51172 15.293C9.51172 16.3086 8.64258 17.1875 7.60742 17.1875C6.5625 17.1875 5.69336 16.3086 5.69336 15.293C5.69336 14.2871 6.5625 13.3887 7.60742 13.3887C8.64258 13.3887 9.51172 14.2871 9.51172 15.293Z" fill="white" fill-opacity="0.85"/>
  <path d="M0.908203 23.4082L26.0938 23.4082C26.5625 23.4082 26.9629 23.0371 26.9629 22.5488C26.9629 22.0605 26.5625 21.6895 26.0938 21.6895L2.05078 21.6895C1.80664 21.6895 1.72852 21.6113 1.72852 21.3672L1.72852 0.986328C1.72852 0.527344 1.35742 0.117188 0.869141 0.117188C0.380859 0.117188 0 0.527344 0 0.986328L0 22.5C0 23.0469 0.361328 23.4082 0.908203 23.4082Z" fill="white" fill-opacity="0.85"/>
 </g>
</svg>
