<?xml version="1.0" encoding="UTF-8"?>
<!--Generator: Apple Native CoreSVG 341-->
<!DOCTYPE svg
PUBLIC "-//W3C//DTD SVG 1.1//EN"
       "http://www.w3.org/Graphics/SVG/1.1/DTD/svg11.dtd">
<svg version="1.1" xmlns="http://www.w3.org/2000/svg" xmlns:xlink="http://www.w3.org/1999/xlink" viewBox="0 0 25.8008 25.459">
 <g>
  <rect height="25.459" opacity="0" width="25.8008" x="0" y="0"/>
  <path d="M12.7148 25.459C19.7266 25.459 25.4395 19.7461 25.4395 12.7344C25.4395 5.73242 19.7266 0.0195312 12.7148 0.0195312C5.71289 0.0195312 0 5.73242 0 12.7344C0 19.7461 5.71289 25.459 12.7148 25.459Z" fill="white" fill-opacity="0.2125"/>
  <path d="M6.57227 16.3184C5.0293 16.3184 4.00391 15.3027 4.00391 13.9551C4.00391 12.832 4.73633 11.9824 5.72266 11.6504C5.94727 9.6582 7.61719 8.10547 9.59961 8.10547C11.1426 8.10547 12.373 8.94531 13.0859 10.2734C14.8926 10.3125 16.25 11.5918 16.25 13.2715C16.25 14.9805 14.9023 16.3184 13.1543 16.3184ZM11.9531 7.53906L10.9473 6.52344C10.752 6.30859 10.752 5.95703 10.9473 5.77148C11.1523 5.58594 11.4746 5.57617 11.6992 5.77148L12.7148 6.78711C12.9102 6.98242 12.8906 7.33398 12.7148 7.5293C12.5098 7.72461 12.1582 7.74414 11.9531 7.53906ZM15.4004 6.40625C15.1172 6.40625 14.8633 6.16211 14.8633 5.87891L14.8633 4.45312C14.8633 4.16016 15.1172 3.92578 15.4004 3.92578C15.7129 3.92578 15.9473 4.16016 15.9473 4.45312L15.9473 5.87891C15.9473 6.16211 15.7129 6.40625 15.4004 6.40625ZM18.1055 7.5293C17.9199 7.32422 17.9004 6.98242 18.1055 6.78711L19.1309 5.77148C19.3457 5.56641 19.668 5.58594 19.873 5.77148C20.0586 5.9668 20.0684 6.30859 19.873 6.52344L18.8672 7.53906C18.6719 7.74414 18.3105 7.72461 18.1055 7.5293ZM19.7559 10.752C19.4824 10.752 19.2383 10.5273 19.2383 10.2344C19.2383 9.93164 19.4824 9.70703 19.7559 9.70703L21.1719 9.70703C21.4746 9.70703 21.709 9.93164 21.709 10.2344C21.709 10.5273 21.4746 10.752 21.1719 10.752ZM19.1309 14.707L18.1055 13.7012C17.9004 13.4961 17.9199 13.1543 18.1055 12.9492C18.3203 12.7539 18.6719 12.7539 18.8672 12.9492L19.873 13.9453C20.0781 14.1406 20.0586 14.4922 19.873 14.6973C19.668 14.8926 19.3359 14.9219 19.1309 14.707ZM18.457 10.2344C18.457 11.2988 17.9297 12.2266 17.0605 12.8125C16.8652 11.0352 15.4395 9.70703 13.584 9.47266C13.3594 9.14062 13.1348 8.84766 12.8516 8.58398C13.3691 7.74414 14.3262 7.1875 15.4004 7.1875C17.0996 7.1875 18.457 8.52539 18.457 10.2344ZM8.4668 19.2285L9.32617 17.2363C9.39453 17.0898 9.48242 17.0312 9.67773 17.0312L10.8887 17.0312C11.0449 17.0312 11.1133 17.1582 11.0352 17.3145L10.3711 18.5547L11.6113 18.5547C11.8164 18.5547 11.8848 18.7402 11.748 18.916L9.12109 21.7676C8.98438 21.9238 8.75977 21.8164 8.82812 21.6211L9.6875 19.5312L8.65234 19.5312C8.4668 19.5312 8.38867 19.3945 8.4668 19.2285Z" fill="white" fill-opacity="0.85"/>
 </g>
</svg>
