<?xml version="1.0" encoding="UTF-8"?>
<!--Generator: Apple Native CoreSVG 341-->
<!DOCTYPE svg
PUBLIC "-//W3C//DTD SVG 1.1//EN"
       "http://www.w3.org/Graphics/SVG/1.1/DTD/svg11.dtd">
<svg version="1.1" xmlns="http://www.w3.org/2000/svg" xmlns:xlink="http://www.w3.org/1999/xlink" viewBox="0 0 27.9395 26.5527">
 <g>
  <rect height="26.5527" opacity="0" width="27.9395" x="0" y="0"/>
  <path d="M1.5332 25.3223L26.0449 25.3223L26.0449 23.9258C26.0449 23.5059 25.791 23.252 25.3613 23.252L24.5605 23.252L24.5605 8.33984L25.6934 8.33984C26.2891 8.33984 26.6211 7.91992 26.6211 7.48047C26.6211 7.1582 26.4453 6.875 26.0547 6.65039L15.2637 0.419922C14.7852 0.146484 14.2773 0 13.7891 0C13.3008 0 12.7832 0.146484 12.3145 0.419922L1.52344 6.65039C1.12305 6.875 0.957031 7.1582 0.957031 7.48047C0.957031 7.91992 1.28906 8.33984 1.88477 8.33984L3.02734 8.33984L3.02734 23.252L2.22656 23.252C1.78711 23.252 1.5332 23.5059 1.5332 23.9258ZM0.869141 26.5332L26.709 26.5332C27.1875 26.5332 27.5781 26.1426 27.5781 25.6738C27.5781 25.1953 27.1875 24.8047 26.709 24.8047L0.869141 24.8047C0.390625 24.8047 0 25.1953 0 25.6738C0 26.1426 0.390625 26.5332 0.869141 26.5332Z" fill="white" fill-opacity="0.2125"/>
  <path d="M13.3301 21.6895C13.1055 21.6895 12.9297 21.5234 12.9297 21.3086C12.9297 21.2402 12.9395 21.1719 12.959 21.0938L13.2715 19.9023C12.7148 19.834 12.207 19.6973 11.7578 19.4824L11.2793 21.3672C11.2109 21.6016 11.084 21.6895 10.8691 21.6895C10.6445 21.6895 10.4688 21.5234 10.4688 21.3086C10.4688 21.2402 10.4785 21.1719 10.498 21.0938L11.0156 19.0527C9.6582 18.0566 8.95508 16.2891 8.95508 14.2383C8.95508 11.0547 10.6543 8.68164 13.7012 8.56445L14.0137 7.34375C14.0723 7.11914 14.1992 7.02148 14.4238 7.02148C14.668 7.02148 14.8242 7.1875 14.8242 7.40234C14.8242 7.44141 14.8145 7.5 14.7754 7.61719L14.5312 8.59375C15.0586 8.65234 15.5762 8.78906 16.0352 9.01367L16.4746 7.34375C16.5332 7.11914 16.6602 7.02148 16.8848 7.02148C17.1289 7.02148 17.2852 7.1875 17.2852 7.40234C17.2852 7.44141 17.2754 7.5 17.2363 7.61719L16.7676 9.45312C17.3438 9.88281 17.8125 10.4688 18.0859 11.1914C18.1641 11.377 18.2129 11.6113 18.2129 11.7871C18.2129 12.168 17.9883 12.4023 17.5879 12.4023C17.1875 12.4023 17.041 12.1973 16.9434 11.875C16.8555 11.4941 16.6699 11.1621 16.416 10.8887L14.4141 18.7109C15.6445 18.5742 16.6602 17.8418 17.0215 16.6504C17.1289 16.3281 17.3145 16.1133 17.6758 16.1133C17.998 16.1133 18.291 16.2988 18.291 16.7285C18.291 16.9336 18.2617 17.1289 18.1836 17.334C17.6172 18.9551 16.0059 19.9414 14.1211 19.9414L14.1016 19.9414L13.7402 21.3672C13.6719 21.6016 13.5449 21.6895 13.3301 21.6895ZM10.3711 14.2383C10.3711 15.5176 10.7031 16.7285 11.3867 17.5781L13.3789 9.79492C11.3574 10.0977 10.3711 12.0117 10.3711 14.2383ZM12.0703 18.2227C12.4902 18.4863 12.9883 18.6816 13.5547 18.7207L15.7227 10.2637C15.293 9.99023 14.7852 9.81445 14.2285 9.76562Z" fill="white" fill-opacity="0.85"/>
 </g>
</svg>
