<?xml version="1.0" encoding="UTF-8"?>
<!--Generator: Apple Native CoreSVG 341-->
<!DOCTYPE svg
PUBLIC "-//W3C//DTD SVG 1.1//EN"
       "http://www.w3.org/Graphics/SVG/1.1/DTD/svg11.dtd">
<svg version="1.1" xmlns="http://www.w3.org/2000/svg" xmlns:xlink="http://www.w3.org/1999/xlink" viewBox="0 0 46.5234 31.7211">
 <g>
  <rect height="31.7211" opacity="0" width="46.5234" x="0" y="0"/>
  <path d="M10.166 26.0803C12.2852 26.0803 13.9355 24.4299 13.9355 22.3107C13.9355 20.2111 12.2852 18.551 10.166 18.551C8.05664 18.551 6.39648 20.2111 6.39648 22.3107C6.39648 24.4299 8.05664 26.0803 10.166 26.0803ZM36.3086 26.0803C38.418 26.0803 40.0781 24.4299 40.0781 22.3107C40.0781 20.2111 38.418 18.551 36.3086 18.551C34.1895 18.551 32.5391 20.2111 32.5391 22.3107C32.5391 24.4299 34.1895 26.0803 36.3086 26.0803ZM36.2793 10.9045C34.4043 10.5627 33.0762 10.426 31.1426 10.5529L17.8223 11.3928C19.5605 10.1037 21.4062 8.8537 23.7305 7.6037C24.7559 7.05683 23.9062 5.59198 22.7734 6.19745C19.7852 7.79901 17.041 9.60565 14.7266 11.5295L5.99609 13.1799C2.01172 13.9318 0 15.7385 0 19.0685L0 20.7189C0 22.467 0.800781 23.3361 2.56836 23.5412L5.21484 23.8635C5.10742 23.4435 5.03906 22.7795 5.03906 22.3107C5.03906 19.4592 7.30469 17.1935 10.166 17.1935C13.0273 17.1935 15.293 19.4592 15.293 22.3107C15.293 22.6721 15.2637 23.0627 15.2051 23.3264L31.2891 23.3264C31.2207 23.0432 31.1816 22.6818 31.1816 22.3107C31.1816 19.4592 33.4473 17.1935 36.3086 17.1935C39.1699 17.1935 41.4355 19.6545 41.4355 22.506C41.4355 22.6818 41.4355 22.7697 41.416 22.926L42.6465 22.799C45.0293 22.5353 46.1621 21.2463 46.1621 18.8049L46.1621 16.6174C46.1621 13.7658 45.0488 12.5256 42.207 11.9982Z" fill="white" fill-opacity="0.425"/>
  <path d="M42.4609 2.23261L40.4297 7.22284C40.1465 7.95526 40.5859 8.35565 41.3477 8.17011L45.8203 7.12518C46.4551 6.96893 46.6406 6.45136 46.2891 5.93378L43.75 2.12518C43.3496 1.52948 42.7539 1.49042 42.4609 2.23261ZM32.998 6.14862L32.8027 0.767763C32.7637-0.0330187 32.1973-0.199034 31.6211 0.230653L27.9199 2.93573C27.3926 3.31659 27.4219 3.84393 27.9688 4.20526L31.8164 6.75409C32.4707 7.18378 33.0273 6.93964 32.998 6.14862ZM41.3477 5.62128C42.4219 6.12909 43.2129 4.46893 42.0117 3.92206C38.9355 2.54511 35.4199 2.2912 32.6953 2.49628C31.2891 2.58417 31.4453 4.41034 32.7344 4.30292C35.3613 4.10761 38.5938 4.35175 41.3477 5.62128Z" fill="white" fill-opacity="0.85"/>
 </g>
</svg>
