<?xml version="1.0" encoding="UTF-8"?>
<!--Generator: Apple Native CoreSVG 341-->
<!DOCTYPE svg
PUBLIC "-//W3C//DTD SVG 1.1//EN"
       "http://www.w3.org/Graphics/SVG/1.1/DTD/svg11.dtd">
<svg version="1.1" xmlns="http://www.w3.org/2000/svg" xmlns:xlink="http://www.w3.org/1999/xlink" viewBox="0 0 48.1352 37.4512">
 <g>
  <rect height="37.4512" opacity="0" width="48.1352" x="0" y="0"/>
  <path d="M20.866 6.26117C20.4877 6.43581 20.1364 6.73966 19.8537 7.19727C19.7694 7.332 19.6858 7.46735 19.6052 7.60506C19.4741 6.23924 18.9518 5.0015 18.1475 4.00462L17.1389 5.01953C16.8557 5.29297 16.4065 5.29297 16.1135 5.0293C15.84 4.74609 15.8498 4.29688 16.1233 4.01367L17.1458 2.99744C16.1593 2.19434 14.9355 1.66985 13.5842 1.53205L13.5842 2.91992C13.5842 3.30078 13.2424 3.63281 12.8615 3.63281C12.4807 3.63281 12.1584 3.30078 12.1584 2.91992L12.1584 1.52914C10.8015 1.6646 9.57335 2.18929 8.58451 2.99493L9.60958 4.01367C9.88302 4.29688 9.89278 4.74609 9.60958 5.0293C9.32638 5.29297 8.86739 5.29297 8.59395 5.01953L7.58312 4.00238C6.64749 5.16452 6.09395 6.65336 6.09395 8.29102C6.09395 10.0488 6.76778 11.6602 7.76388 12.7344C7.93966 12.9199 8.01778 13.1055 8.01778 13.291C8.01778 13.6914 7.68575 14.0234 7.2756 14.0234C7.04122 14.0234 6.82638 13.8965 6.66036 13.7207C5.39083 12.3242 4.59981 10.3809 4.59981 8.29102C4.59981 3.75977 8.34005 0 12.8615 0C16.6846 0 19.9562 2.688 20.866 6.26117ZM0.605673 6.39648L3.01778 7.96875C3.33028 8.16406 3.31075 8.47656 3.02755 8.67188L0.586142 10.2539C0.332236 10.4395-0.00956098 10.3125 0.000204643 9.95117L0.000204643 6.71875C0.00997027 6.33789 0.342002 6.23047 0.605673 6.39648ZM14.092 8.4082C14.092 9.12109 13.5842 9.67773 12.842 9.70703C12.7248 9.69727 12.4904 9.6875 12.3537 9.66797L7.95919 8.98438C7.72481 8.94531 7.59786 8.79883 7.5881 8.62305C7.57833 8.45703 7.68575 8.28125 7.91036 8.23242L12.2072 7.27539C12.3635 7.22656 12.6174 7.1875 12.7639 7.16797C13.4768 7.14844 14.0432 7.66602 14.092 8.4082Z" fill="white" fill-opacity="0.85"/>
  <path d="M13.9162 33.9648C14.1701 34.3848 14.6975 34.5312 15.0979 34.2969L47.3537 15.6934C47.7443 15.459 47.8908 14.9414 47.6662 14.5312C47.4123 14.1016 46.8752 13.9648 46.4846 14.1992L14.2287 32.8027C13.8381 33.0273 13.6916 33.5547 13.9162 33.9648Z" fill="white" fill-opacity="0.85"/>
  <path d="M14.0139 28.3984L16.4162 27.3633L15.8303 26.0742L13.6037 27.041C12.969 27.3242 12.5393 27.1973 12.2365 26.6797L11.6115 25.5957C10.6643 23.9551 11.2014 22.4414 13.0764 20.8203L18.2522 16.3477C18.6623 15.9961 18.965 15.7715 19.1018 15.3906C19.9318 13.1152 21.0256 10.8496 22.3928 8.65234C22.9006 7.85156 21.719 7.14844 21.1721 8.02734C19.7561 10.3027 18.5549 12.6953 17.676 15.0488L12.217 19.7363C9.72677 21.8848 9.05294 23.9648 10.4006 26.2988L11.0647 27.4609C11.7775 28.6816 12.6858 28.9746 14.0139 28.3984ZM19.6096 27.5488C21.3088 26.5625 21.8654 24.4727 20.8889 22.7734C19.9025 21.0742 17.8127 20.5176 16.1135 21.4941C14.4143 22.4805 13.8576 24.5703 14.8342 26.2695C15.8205 27.9688 17.9104 28.5254 19.6096 27.5488ZM18.9455 26.3965C17.9006 27.002 16.5822 26.6602 15.9768 25.6055C15.3713 24.5508 15.7229 23.2422 16.7775 22.6367C17.8225 22.0312 19.1311 22.3828 19.7365 23.4375C20.3518 24.4824 20.0002 25.791 18.9455 26.3965ZM20.7229 24.3262L35.9572 15.5371L35.2541 14.3164L20.0197 23.1152ZM39.2483 16.2012C40.9475 15.2246 41.5139 13.1348 40.5275 11.4355C39.551 9.73633 37.4611 9.16992 35.7619 10.1562C34.0627 11.1328 33.4963 13.2227 34.4826 14.9219C35.4592 16.6211 37.549 17.1875 39.2483 16.2012ZM38.594 15.0586C37.5393 15.6641 36.2307 15.3125 35.6252 14.2676C35.0197 13.2129 35.3713 11.9043 36.4162 11.2988C37.4709 10.6934 38.7795 11.0449 39.385 12.0898C39.9904 13.1445 39.6389 14.4531 38.594 15.0586ZM40.4299 12.6758L41.8264 11.6406C43.3889 10.498 43.6623 9.13086 42.676 7.42188L41.7873 5.88867C40.635 3.88672 39.3361 3.47656 37.1389 4.24805L32.5197 5.88867C31.1623 6.36719 30.1174 6.83594 28.7893 7.71484L17.7932 14.9805L18.0471 16.4844L29.4338 8.96484C30.5959 8.20312 31.6018 7.73438 33.1936 7.1875L37.6467 5.625C39.0822 5.11719 39.883 5.40039 40.5666 6.5918L41.4553 8.125C42.0217 9.11133 41.8752 9.88281 40.9963 10.5371L39.7268 11.4648Z" fill="white" fill-opacity="0.85"/>
 </g>
</svg>
