<?xml version="1.0" encoding="UTF-8"?>
<!--Generator: Apple Native CoreSVG 341-->
<!DOCTYPE svg
PUBLIC "-//W3C//DTD SVG 1.1//EN"
       "http://www.w3.org/Graphics/SVG/1.1/DTD/svg11.dtd">
<svg version="1.1" xmlns="http://www.w3.org/2000/svg" xmlns:xlink="http://www.w3.org/1999/xlink" viewBox="0 0 43.564 32.5249">
 <g>
  <rect height="32.5249" opacity="0" width="43.564" x="0" y="0"/>
  <path d="M10.4295 24.5193L12.8318 23.4842L12.2557 22.1951L10.0193 23.1619C9.39433 23.4451 8.95487 23.3181 8.65214 22.8006L8.02714 21.7166C7.07987 20.0759 7.61698 18.5623 9.49198 16.9412L14.6775 12.4685C15.0779 12.117 15.3807 11.8826 15.5174 11.5115C16.3475 9.23611 17.4412 6.97048 18.8182 4.77322C19.3162 3.97243 18.1346 3.26931 17.5877 4.14822C16.1717 6.42361 14.9705 8.81618 14.0916 11.1697L8.64237 15.8572C6.14237 18.0056 5.46855 20.0857 6.8162 22.4197L7.49003 23.5818C8.19315 24.8025 9.11112 25.0955 10.4295 24.5193ZM16.0252 23.6697C17.7244 22.6834 18.281 20.5935 17.3045 18.8943C16.3182 17.1951 14.2283 16.6384 12.5291 17.615C10.8299 18.5916 10.2732 20.6912 11.2498 22.3904C12.2361 24.0799 14.326 24.6463 16.0252 23.6697ZM15.3611 22.5174C14.3162 23.1228 13.0076 22.781 12.4021 21.7263C11.7967 20.6717 12.1385 19.3631 13.1932 18.7576C14.2478 18.1521 15.5564 18.5037 16.1619 19.5584C16.7674 20.6033 16.4158 21.9119 15.3611 22.5174ZM17.1385 20.447L32.3728 11.658L31.6697 10.4373L16.4451 19.2361ZM35.6736 12.322C37.3631 11.3455 37.9295 9.24587 36.9432 7.55642C35.9666 5.8572 33.8767 5.29079 32.1775 6.27712C30.4783 7.25368 29.9217 9.34353 30.8982 11.0427C31.8748 12.742 33.9744 13.3084 35.6736 12.322ZM35.0096 11.1795C33.9549 11.7849 32.6463 11.4334 32.0408 10.3884C31.4353 9.33376 31.7869 8.02517 32.8416 7.4197C33.8865 6.81423 35.1951 7.16579 35.8006 8.21072C36.406 9.2654 36.0545 10.574 35.0096 11.1795ZM36.8455 8.79665L38.242 7.7615C39.8045 6.61892 40.0779 5.25173 39.0916 3.54275L38.2029 2.00954C37.0506 0.00759035 35.7517-0.412332 33.5545 0.368918L28.9353 2.00954C27.5877 2.48806 26.533 2.95681 25.2146 3.83572L14.2088 11.1013L14.4725 12.6052L25.8592 5.08572C27.0213 4.324 28.0174 3.85525 29.6092 3.30837L34.0623 1.74587C35.4978 1.23806 36.2986 1.5115 36.9822 2.7029L37.8709 4.24587C38.4471 5.2322 38.3006 6.00368 37.4119 6.65798L36.1521 7.58572Z" fill="white" fill-opacity="0.85"/>
  <path d="M7.86112 31.9998C8.11503 32.4197 8.64237 32.5564 9.04276 32.322L42.7732 12.8787C43.1736 12.6443 43.3201 12.117 43.0955 11.7263C42.8318 11.2869 42.2947 11.1502 41.9041 11.3845L8.17362 30.8377C7.783 31.0623 7.63651 31.5994 7.86112 31.9998Z" fill="white" fill-opacity="0.85"/>
  <path d="M5.37089 26.0232L2.88065 21.6873C2.49003 21.0037 1.71855 21.1697 1.48417 21.8338L0.0681547 25.5349C-0.127158 26.033 0.107217 26.4431 0.644327 26.5213L4.54081 27.156C5.24394 27.283 5.76151 26.6775 5.37089 26.0232Z" fill="white" fill-opacity="0.85"/>
 </g>
</svg>
