<?xml version="1.0" encoding="UTF-8"?>
<!--Generator: Apple Native CoreSVG 341-->
<!DOCTYPE svg
PUBLIC "-//W3C//DTD SVG 1.1//EN"
       "http://www.w3.org/Graphics/SVG/1.1/DTD/svg11.dtd">
<svg version="1.1" xmlns="http://www.w3.org/2000/svg" xmlns:xlink="http://www.w3.org/1999/xlink" viewBox="0 0 40.3281 30.6592">
 <g>
  <rect height="30.6592" opacity="0" width="40.3281" x="0" y="0"/>
  <path d="M4.19725 30.0806C4.45115 30.5103 4.9785 30.647 5.37889 30.4126L37.6347 11.8091C38.0254 11.5845 38.1719 11.0571 37.9472 10.647C37.6933 10.2173 37.1562 10.0903 36.7656 10.3149L4.50975 28.9185C4.11912 29.1528 3.97264 29.6802 4.19725 30.0806Z" fill="white" fill-opacity="0.425"/>
  <path d="M10.6523 23.2251C12.1367 22.3657 12.625 20.5395 11.7656 19.0552C10.916 17.5806 9.08006 17.0923 7.60545 17.9419C6.12108 18.8013 5.62303 20.6274 6.4824 22.1118C7.33201 23.5864 9.16795 24.0845 10.6523 23.2251ZM28.9824 12.6392C30.4668 11.7798 30.9551 9.95361 30.1055 8.46924C29.2461 6.99463 27.4199 6.50635 25.9355 7.35596C24.4512 8.21533 23.9629 10.0415 24.8125 11.5161C25.6719 13.0005 27.498 13.4985 28.9824 12.6392ZM22.8203 2.00439C21.3652 2.52197 20.3789 2.96142 19.0703 3.84033L10.0762 9.81689C10.7695 8.21533 11.5508 6.58447 12.6738 4.76807C13.1816 3.96728 11.9902 3.28369 11.4336 4.17236C9.98826 6.50635 8.79686 8.87939 7.95701 11.1645L2.49803 15.8618C0.00779491 18.0103-0.666033 20.0806 0.681623 22.4145L1.34569 23.5767C2.05858 24.8071 2.96678 25.0903 4.2949 24.5239L6.27733 23.6743C6.03319 23.4204 5.71092 22.9907 5.52537 22.6587C4.37303 20.6567 5.03709 18.147 7.04881 16.9946C9.06053 15.8325 11.5605 16.5063 12.7226 18.5083C12.8691 18.7524 13.0058 19.0454 13.0742 19.2505L24.3535 12.7368C24.1875 12.5708 24.0117 12.3267 23.8652 12.0728C22.7031 10.0708 23.3769 7.56103 25.3887 6.40869C27.3906 5.24658 29.9785 6.05713 31.1406 8.05908C31.209 8.17627 31.2383 8.23486 31.2969 8.35205L32.1074 7.76611C33.6699 6.62353 33.9336 5.25635 32.9472 3.54736L32.0586 2.00439C30.9062 0.0122062 29.6269-0.417481 27.4199 0.373534Z" fill="white" fill-opacity="0.425"/>
  <path d="M24.6758 30.5395C25.0664 30.5395 25.3203 30.2856 25.3203 29.8853L25.3203 26.9946L27.4492 26.9946L27.4492 29.8853C27.4492 30.2856 27.7031 30.5395 28.0937 30.5395C28.4844 30.5395 28.7383 30.2856 28.7383 29.8853L28.7383 23.1665C28.7383 22.7661 28.4844 22.5122 28.0937 22.5122C27.7031 22.5122 27.4492 22.7661 27.4492 23.1665L27.4492 25.9106L25.3203 25.9106L25.3203 23.1665C25.3203 22.7661 25.0664 22.5122 24.6758 22.5122C24.2949 22.5122 24.0508 22.7661 24.0508 23.1665L24.0508 29.8853C24.0508 30.2856 24.2949 30.5395 24.6758 30.5395ZM30.457 30.5395L31.8437 30.5395C33.8652 30.5395 34.539 28.5278 34.539 26.5063C34.539 24.3188 33.7773 22.5122 31.8437 22.5122L30.457 22.5122C30.0859 22.5122 29.8222 22.7368 29.8222 23.1763L29.8222 29.8755C29.8222 30.3149 30.0859 30.5395 30.457 30.5395ZM31.082 29.4653L31.082 23.5962L31.6875 23.5962C32.9863 23.5962 33.2402 25.2173 33.2402 26.5161C33.2402 27.8149 33.0058 29.4653 31.6875 29.4653ZM37.8105 30.6177C38.6211 30.6177 39.1875 30.1978 39.5488 29.5923C39.7734 29.231 39.9687 28.6353 39.9687 28.2446C39.9687 27.8833 39.7246 27.6587 39.373 27.6587C39.0898 27.6587 38.875 27.854 38.8066 28.1665C38.6601 28.938 38.4355 29.4849 37.7715 29.4849C36.9414 29.4849 36.5801 28.2251 36.5801 26.5161C36.5801 24.6411 37.0488 23.5571 37.7715 23.5571C38.3867 23.5571 38.6797 24.1724 38.7871 24.8755C38.8359 25.2173 39.0703 25.4224 39.4023 25.4224C39.7441 25.4224 39.9394 25.1782 39.9394 24.8364C39.9394 24.3774 39.7246 23.6743 39.3437 23.2251C38.9531 22.7368 38.4062 22.4438 37.7617 22.4438C36.668 22.4438 36.0234 23.186 35.6816 24.0552C35.3691 24.7974 35.291 25.647 35.291 26.5161C35.291 27.5415 35.3887 28.5571 35.8476 29.397C36.2773 30.1782 36.9121 30.6177 37.8105 30.6177Z" fill="white" fill-opacity="0.85"/>
 </g>
</svg>
