<?xml version="1.0" encoding="UTF-8"?>
<!--Generator: Apple Native CoreSVG 341-->
<!DOCTYPE svg
PUBLIC "-//W3C//DTD SVG 1.1//EN"
       "http://www.w3.org/Graphics/SVG/1.1/DTD/svg11.dtd">
<svg version="1.1" xmlns="http://www.w3.org/2000/svg" xmlns:xlink="http://www.w3.org/1999/xlink" viewBox="0 0 45.3418 28.916">
 <g>
  <rect height="28.916" opacity="0" width="45.3418" x="0" y="0"/>
  <path d="M29.0918 5.00977L29.0918 10.7324L22.832 10.7324C20.332 10.7324 18.6523 12.3145 18.6523 14.8926L18.6523 17.6367L3.50586 17.6367C3.10547 17.6367 2.92969 17.4707 2.92969 17.0508L2.92969 5.00977C2.92969 4.46289 3.27148 4.12109 3.81836 4.12109L28.2031 4.12109C28.75 4.12109 29.0918 4.46289 29.0918 5.00977Z" fill="white" fill-opacity="0.2125"/>
  <path d="M30.8203 4.9707L30.8203 10.7324L29.0918 10.7324L29.0918 5.00977C29.0918 4.46289 28.75 4.12109 28.2031 4.12109L3.81836 4.12109C3.27148 4.12109 2.92969 4.46289 2.92969 5.00977L2.92969 17.0508C2.92969 17.4707 3.10547 17.6367 3.50586 17.6367L18.6523 17.6367L18.6523 24.0625L18.2227 24.0625C16.8848 24.0625 15.791 25.1465 15.791 26.4844C15.791 26.7914 15.8478 27.0848 15.9537 27.3535L11.9824 27.3535C11.5039 27.3535 11.1133 26.9727 11.1133 26.4941C11.1133 26.0059 11.5039 25.6152 11.9824 25.6152L12.0996 25.6152L12.0996 22.9883L3.7793 22.9883C2.17773 22.9883 1.19141 22.0117 1.19141 20.4102L1.19141 4.9707C1.19141 3.36914 2.17773 2.39258 3.7793 2.39258L28.2422 2.39258C29.8438 2.39258 30.8203 3.36914 30.8203 4.9707Z" fill="white" fill-opacity="0.85"/>
  <path d="M21.9336 25.6152L21.9336 15.3516C21.9336 14.4629 22.3828 14.0234 23.2812 14.0234L37.998 14.0234C38.8867 14.0234 39.3359 14.4629 39.3359 15.3516L39.3359 25.6055Z" fill="white" fill-opacity="0.2125"/>
  <path d="M17.3535 26.4844C17.3535 26.9727 17.7441 27.3535 18.2227 27.3535L42.9102 27.3438C43.3887 27.3438 43.7793 26.9629 43.7793 26.4746C43.7793 25.9961 43.3887 25.6055 42.9102 25.6055L41.0645 25.6055L41.0645 14.8926C41.0645 13.1738 40.1562 12.2852 38.4375 12.2852L22.832 12.2852C21.1914 12.2852 20.2051 13.1738 20.2051 14.8926L20.2051 25.6152L18.2227 25.6152C17.7441 25.6152 17.3535 26.0059 17.3535 26.4844ZM21.9336 25.6152L21.9336 15.3516C21.9336 14.4629 22.3828 14.0234 23.2812 14.0234L37.998 14.0234C38.8867 14.0234 39.3359 14.4629 39.3359 15.3516L39.3359 25.6055Z" fill="white" fill-opacity="0.85"/>
 </g>
</svg>
