<?xml version="1.0" encoding="UTF-8"?>
<!--Generator: Apple Native CoreSVG 341-->
<!DOCTYPE svg
PUBLIC "-//W3C//DTD SVG 1.1//EN"
       "http://www.w3.org/Graphics/SVG/1.1/DTD/svg11.dtd">
<svg version="1.1" xmlns="http://www.w3.org/2000/svg" xmlns:xlink="http://www.w3.org/1999/xlink" viewBox="0 0 25.8008 25.459">
 <g>
  <rect height="25.459" opacity="0" width="25.8008" x="0" y="0"/>
  <path d="M12.7148 25.4395C19.7266 25.4395 25.4395 19.7266 25.4395 12.7246C25.4395 5.71289 19.7266 0 12.7148 0C5.71289 0 0 5.71289 0 12.7246C0 19.7266 5.71289 25.4395 12.7148 25.4395Z" fill="white" fill-opacity="0.2125"/>
  <path d="M6.12305 13.7598C5.44922 13.0859 5.41992 12.373 6.10352 11.6895L11.6895 6.10352C12.373 5.41992 13.0762 5.43945 13.7598 6.12305L19.3164 11.6797C20 12.3633 20.0293 13.0664 19.3359 13.7598L13.75 19.3457C13.0664 20.0293 12.3633 20.0098 11.6797 19.3262Z" fill="white" fill-opacity="0.85"/>
 </g>
</svg>
