<?xml version="1.0" encoding="UTF-8"?>
<!--Generator: Apple Native CoreSVG 341-->
<!DOCTYPE svg
PUBLIC "-//W3C//DTD SVG 1.1//EN"
       "http://www.w3.org/Graphics/SVG/1.1/DTD/svg11.dtd">
<svg version="1.1" xmlns="http://www.w3.org/2000/svg" xmlns:xlink="http://www.w3.org/1999/xlink" viewBox="0 0 27.5398 25.0488">
 <g>
  <rect height="25.0488" opacity="0" width="27.5398" x="0" y="0"/>
  <path d="M16.0355 12.5195C16.0355 19.834 18.2914 24.707 21.6019 24.707C24.9223 24.707 27.1781 19.834 27.1781 12.5195C27.1781 5.20508 24.9223 0.322266 21.6019 0.322266C18.2914 0.322266 16.0355 5.20508 16.0355 12.5195ZM9.37538 12.5195C9.37538 20.2539 11.5433 25.0293 16.6801 25.0293L18.35 25.0293C17.3051 24.1602 16.4457 22.8418 15.8109 21.1523L13.9848 21.1523C13.5844 21.1523 13.2621 20.8301 13.2621 20.4395C13.2621 20.0488 13.5844 19.7266 13.9848 19.7266L15.3422 19.7266C15.1078 18.916 14.932 18.0078 14.8246 17.2949L13.0961 17.2949C12.7055 17.2949 12.3832 16.9727 12.3832 16.582C12.3832 16.1816 12.7055 15.8594 13.0961 15.8594L14.6391 15.8594C14.5414 14.9609 14.4828 13.8965 14.473 13.1152L12.7738 13.1152C12.3832 13.1152 12.0609 12.793 12.0609 12.4023C12.0609 12.002 12.3832 11.6797 12.7738 11.6797L14.4828 11.6797C14.4926 10.8008 14.5512 9.83398 14.6586 8.93555L13.0961 8.93555C12.7055 8.93555 12.3832 8.61328 12.3832 8.21289C12.3832 7.82227 12.7055 7.5 13.0961 7.5L14.8637 7.5C15.0004 6.66016 15.1762 5.83984 15.4105 5.06836L13.9848 5.06836C13.5844 5.06836 13.2621 4.74609 13.2621 4.35547C13.2621 3.96484 13.5844 3.64258 13.9848 3.64258L15.8988 3.64258C16.5238 2.06055 17.3539 0.830078 18.35 0L16.6801 0C11.5433 0 9.37538 4.78516 9.37538 12.5195Z" fill="white" fill-opacity="0.425"/>
  <path d="M3.56483 2.33398C3.2328 2.33398 2.891 2.48047 2.75429 2.89062C1.9828 5.3418 1.54335 8.13477 1.54335 10.918C1.54335 13.6914 1.96327 16.4941 2.75429 18.9355C3.15468 20.0879 4.73671 19.6875 4.30702 18.418C3.58436 16.123 3.17421 13.5254 3.17421 10.918C3.17421 8.31055 3.5746 5.69336 4.30702 3.41797C4.5414 2.75391 4.06288 2.33398 3.56483 2.33398ZM0.547255 18.0762C-0.15587 18.3301-0.15587 19.2188 0.40077 19.5703L4.2289 21.9824C4.72694 22.2949 5.29335 22.0703 5.46913 21.5332L6.84608 17.2461C7.05116 16.6211 6.51405 15.9082 5.78163 16.1719Z" fill="white" fill-opacity="0.85"/>
 </g>
</svg>
