<?xml version="1.0" encoding="UTF-8"?>
<!--Generator: Apple Native CoreSVG 341-->
<!DOCTYPE svg
PUBLIC "-//W3C//DTD SVG 1.1//EN"
       "http://www.w3.org/Graphics/SVG/1.1/DTD/svg11.dtd">
<svg version="1.1" xmlns="http://www.w3.org/2000/svg" xmlns:xlink="http://www.w3.org/1999/xlink" viewBox="0 0 25.3906 27.4812">
 <g>
  <rect height="27.4812" opacity="0" width="25.3906" x="0" y="0"/>
  <path d="M12.5098 11.2846C19.8242 11.2846 24.707 9.0287 24.707 5.71815C24.707 2.39784 19.8242 0.14198 12.5098 0.14198C5.19531 0.14198 0.322266 2.39784 0.322266 5.71815C0.322266 9.0287 5.19531 11.2846 12.5098 11.2846ZM12.5098 17.9447C20.2441 17.9447 25.0293 15.7767 25.0293 10.64L25.0293 8.97011C24.1602 10.015 22.8418 10.8744 21.1523 11.5092L21.1523 13.3353C21.1523 13.7357 20.8301 14.058 20.4395 14.058C20.0391 14.058 19.7168 13.7357 19.7168 13.3353L19.7168 11.9779C18.9062 12.2123 18.0078 12.3881 17.2949 12.4955L17.2949 14.224C17.2949 14.6146 16.9727 14.9369 16.5723 14.9369C16.1816 14.9369 15.8594 14.6146 15.8594 14.224L15.8594 12.681C14.9512 12.7689 13.8867 12.8373 13.1152 12.8471L13.1152 14.5365C13.1152 14.9369 12.793 15.2592 12.3926 15.2592C12.002 15.2592 11.6797 14.9369 11.6797 14.5365L11.6797 12.8373C10.791 12.8275 9.83398 12.7592 8.92578 12.6615L8.92578 14.224C8.92578 14.6146 8.60352 14.9369 8.21289 14.9369C7.82227 14.9369 7.5 14.6146 7.5 14.224L7.5 12.4564C6.65039 12.3197 5.83984 12.1439 5.06836 11.9096L5.06836 13.3353C5.06836 13.7357 4.74609 14.058 4.35547 14.058C3.95508 14.058 3.63281 13.7357 3.63281 13.3353L3.63281 11.4213C2.06055 10.7963 0.830078 9.9662 0 8.97011L0 10.64C0 15.7767 4.77539 17.9447 12.5098 17.9447Z" fill="white" fill-opacity="0.425"/>
  <path d="M22.2949 23.9213C22.2949 23.4135 21.8652 22.9349 21.2109 23.1693C18.9258 23.9017 16.3184 24.3021 13.7109 24.3021C11.1035 24.3021 8.49609 23.892 6.20117 23.1693C4.93164 22.7396 4.54102 24.3217 5.68359 24.7221C8.13477 25.5131 10.9277 25.933 13.7109 25.933C16.4844 25.933 19.2773 25.4935 21.7285 24.7221C22.1484 24.5853 22.2949 24.2435 22.2949 23.9213ZM6.54297 26.9389L8.44727 21.6947C8.71094 20.9623 7.99805 20.4252 7.37305 20.6303L3.08594 22.0072C2.54883 22.183 2.32422 22.7494 2.63672 23.2474L5.04883 27.0756C5.41016 27.642 6.28906 27.6322 6.54297 26.9389Z" fill="white" fill-opacity="0.85"/>
 </g>
</svg>
