<?xml version="1.0" encoding="UTF-8"?>
<!--Generator: Apple Native CoreSVG 341-->
<!DOCTYPE svg
PUBLIC "-//W3C//DTD SVG 1.1//EN"
       "http://www.w3.org/Graphics/SVG/1.1/DTD/svg11.dtd">
<svg version="1.1" xmlns="http://www.w3.org/2000/svg" xmlns:xlink="http://www.w3.org/1999/xlink" viewBox="0 0 31.3508 39.8535">
 <g>
  <rect height="39.8535" opacity="0" width="31.3508" x="0" y="0"/>
  <path d="M30.5875 28.7695C30.9977 29.0039 31.1148 29.4922 30.8414 29.9316C28.9821 32.7928 26.5123 34.911 23.7782 36.2948C23.7611 35.9988 23.6845 35.6993 23.5465 35.4102C23.4349 35.181 23.2945 34.9792 23.1305 34.808C25.5647 33.5464 27.7624 31.6353 29.4644 29.0625C29.7281 28.6523 30.1773 28.5449 30.5875 28.7695ZM1.525 29.0625C3.2263 31.6341 5.42523 33.5447 7.86058 34.8064C7.69586 34.9779 7.55489 35.1803 7.44297 35.4102C7.30487 35.6995 7.22827 35.9987 7.21128 36.2942C4.47643 34.9104 2.00702 32.7924 0.148043 29.9316C-0.125394 29.4922-0.00820672 29.0039 0.40195 28.7695C0.812106 28.5449 1.26132 28.6523 1.525 29.0625Z" fill="white" fill-opacity="0.2125"/>
  <path d="M26.9547 26.3477C27.3648 26.582 27.5016 27.0898 27.1988 27.5195C25.8505 29.5245 24.0185 31.1152 21.9295 32.1849C21.9151 31.8661 21.8337 31.5422 21.6812 31.2305C21.5815 31.0272 21.4567 30.845 21.3117 30.6865C23.0565 29.7726 24.6383 28.4196 25.8609 26.6309C26.1148 26.25 26.5543 26.123 26.9547 26.3477ZM5.12851 26.6309C6.35095 28.4193 7.93249 29.7722 9.67814 30.6861C9.53294 30.8447 9.40803 31.027 9.3082 31.2305C9.15585 31.542 9.07445 31.8657 9.05999 32.1842C6.97015 31.1145 5.13866 29.524 3.79062 27.5195C3.48789 27.0898 3.62461 26.582 4.04453 26.3477C4.43515 26.123 4.87461 26.25 5.12851 26.6309Z" fill="white" fill-opacity="0.2125"/>
  <path d="M22.1402 36.084C22.3551 36.5332 22.1695 37.0312 21.6519 37.2168C19.7379 37.9102 17.6578 38.291 15.4996 38.291C13.3316 38.291 11.2516 37.9102 9.3375 37.2168C8.81992 37.0312 8.63437 36.5332 8.84922 36.084C9.04453 35.6836 9.46445 35.5469 9.88437 35.6934C11.6324 36.3184 13.5269 36.6699 15.4996 36.6699C17.4723 36.6699 19.3668 36.3184 21.1051 35.6934C21.5348 35.5469 21.9449 35.6836 22.1402 36.084Z" fill="white" fill-opacity="0.425"/>
  <path d="M20.2848 31.9141C20.5191 32.3926 20.3141 32.9199 19.7867 33.0762C18.4391 33.5156 17.0035 33.7598 15.4996 33.7598C13.9957 33.7598 12.5504 33.5156 11.2027 33.0762C10.6852 32.9199 10.4703 32.3926 10.7047 31.9141C10.8902 31.5625 11.2809 31.4062 11.691 31.543C12.8824 31.9238 14.1617 32.1387 15.4996 32.1387C16.8277 32.1387 18.107 31.9238 19.2984 31.543C19.7086 31.4062 20.0992 31.5625 20.2848 31.9141Z" fill="white" fill-opacity="0.425"/>
  <path d="M22.3648 6.69922L22.3648 9.46289L22.8922 9.46289C23.4781 9.46289 23.9078 9.88281 23.9078 10.4395L23.9078 10.9277C23.9078 11.4746 23.4781 11.8945 22.8922 11.8945L22.3648 11.8945L22.3648 23.0469C22.3648 25.2829 20.8526 26.4234 17.6664 26.7444C17.1427 26.1259 16.3629 25.7324 15.4996 25.7324C14.6311 25.7324 13.8491 26.1257 13.3243 26.744C10.1355 26.4224 8.62461 25.2819 8.62461 23.0469L8.62461 11.8945L8.09726 11.8945C7.51132 11.8945 7.07187 11.4746 7.07187 10.9277L7.07187 10.4395C7.07187 9.88281 7.51132 9.46289 8.09726 9.46289L8.62461 9.46289L8.62461 6.69922C8.62461 3.89648 11.2027 2.26562 15.4996 2.26562C19.7867 2.26562 22.3648 3.89648 22.3648 6.69922ZM11.4078 20.1562L11.2809 21.0352C11.0758 22.5684 12.1207 23.0566 15.4898 23.0566C18.8687 23.0566 19.9234 22.5684 19.7086 21.0352L19.5914 20.1562C19.4059 18.9355 18.4488 18.5449 15.4898 18.5449C12.5406 18.5449 11.5836 18.9355 11.4078 20.1562ZM11.2223 9.73633L11.3883 11.4844C11.4566 12.3047 11.818 12.627 12.5894 12.627C13.0875 12.627 14.6207 12.5391 15.4898 12.5391C16.4664 12.5391 17.9019 12.627 18.4 12.627C19.1812 12.627 19.5328 12.3047 19.6109 11.4844L19.7672 9.73633C19.8844 8.25195 18.9859 7.64648 15.4898 7.64648C12.0035 7.64648 11.1051 8.25195 11.2223 9.73633Z" fill="white" fill-opacity="0.85"/>
  <path d="M15.4996 30.2344C16.4078 30.2344 17.1402 29.5117 17.1402 28.5938C17.1402 27.6855 16.4078 26.9531 15.4996 26.9531C14.5914 26.9531 13.8492 27.6855 13.8492 28.5938C13.8492 29.5117 14.5914 30.2344 15.4996 30.2344Z" fill="white" fill-opacity="0.85"/>
 </g>
</svg>
