<svg version="1.1" xmlns="http://www.w3.org/2000/svg" xmlns:xlink="http://www.w3.org/1999/xlink" viewBox="0 0 23.3203 22.959">
 <g>
  <rect height="22.959" opacity="0" width="23.3203" x="0" y="0"/>
  <path d="M3.79883 22.959L19.1504 22.959C21.6797 22.959 22.959 21.6797 22.959 19.1992L22.959 3.76953C22.959 1.2793 21.6797 0 19.1504 0L3.79883 0C1.2793 0 0 1.26953 0 3.76953L0 19.1992C0 21.6992 1.2793 22.959 3.79883 22.959Z" fill="var(--color-tertiary)"/>
  <path d="M11.4844 15.5078C9.24805 15.5078 7.45117 13.7012 7.45117 11.4746C7.45117 9.23828 9.24805 7.43164 11.4844 7.43164C13.7207 7.43164 15.5273 9.23828 15.5273 11.4746C15.5273 13.7012 13.7207 15.5078 11.4844 15.5078Z" fill="var(--color-primary)"/>
 </g>
</svg>
