<?xml version="1.0" encoding="UTF-8"?>
<!--Generator: Apple Native CoreSVG 341-->
<!DOCTYPE svg
PUBLIC "-//W3C//DTD SVG 1.1//EN"
       "http://www.w3.org/Graphics/SVG/1.1/DTD/svg11.dtd">
<svg version="1.1" xmlns="http://www.w3.org/2000/svg" xmlns:xlink="http://www.w3.org/1999/xlink" viewBox="0 0 26.6504 24.0723">
 <g>
  <rect height="24.0723" opacity="0" width="26.6504" x="0" y="0"/>
  <path d="M3.26172 23.8672L23.0176 23.8672C25.0586 23.8672 26.2891 22.4414 26.2891 20.6348C26.2891 20.0488 26.123 19.4434 25.8008 18.8867L15.9277 1.62109C15.3125 0.537109 14.2285 0 13.1445 0C12.0508 0 10.9766 0.537109 10.3613 1.62109L0.488281 18.8867C0.15625 19.4531 0 20.0488 0 20.6348C0 22.4414 1.23047 23.8672 3.26172 23.8672Z" fill="white" fill-opacity="0.2125"/>
  <path d="M13.1348 19.2285C10.9766 19.2285 9.53125 17.8223 9.53125 15.7324C9.53125 14.7266 9.95117 13.7695 10.3223 12.9883C10.8887 11.7383 11.8066 10.2441 12.6074 9.00391C12.7637 8.76953 12.9199 8.66211 13.1348 8.66211C13.3594 8.66211 13.5156 8.76953 13.6621 9.00391C14.4727 10.2441 15.3809 11.7383 15.957 12.9883C16.3281 13.7695 16.7383 14.7266 16.7383 15.7324C16.7383 17.8223 15.293 19.2285 13.1348 19.2285Z" fill="white" fill-opacity="0.85"/>
 </g>
</svg>
