<svg version="1.1" xmlns="http://www.w3.org/2000/svg" xmlns:xlink="http://www.w3.org/1999/xlink" viewBox="0 0 29.8242 18.5254">
 <g>
  <rect height="18.5254" opacity="0" width="29.8242" x="0" y="0"/>
  <path d="M25.0781 18.4863C27.6074 18.4863 28.8574 16.4453 29.3457 14.0234C29.4141 13.7793 29.4629 13.4473 29.4629 13.2129C29.4629 12.7734 29.2383 12.373 28.6426 12.373C28.2422 12.373 27.9102 12.6367 27.832 13.0371C27.5781 14.7852 27.0215 16.7773 25.0684 16.7773C22.4219 16.7773 21.9141 11.8457 21.9141 9.19922C21.9141 5.86914 22.5391 1.70898 25.0488 1.70898C26.8359 1.70898 27.5293 3.7207 27.8125 5.43945C27.9199 5.92773 28.1934 6.23047 28.6816 6.23047C29.1211 6.23047 29.4629 5.92773 29.4629 5.38086C29.4629 5.14648 29.4238 4.86328 29.3652 4.61914C28.9355 2.23633 27.6465 0 25.0488 0C21.123 0 20.0684 5.18555 20.0684 9.19922C20.0684 13.1836 21.0938 18.4863 25.0781 18.4863Z" fill="var(--color-primary)"/>
  <path d="M14.2773 18.3594C14.9414 18.3594 15.2441 17.8809 15.2441 17.2656L15.2441 1.21094L13.3008 1.21094L13.3008 17.2656C13.3008 17.9199 13.6426 18.3594 14.2773 18.3594ZM10.2148 2.00195L18.3105 2.00195C18.8867 2.00195 19.2773 1.69922 19.2773 1.12305C19.2773 0.556641 18.8867 0.253906 18.3105 0.253906L10.2148 0.253906C9.63867 0.253906 9.24805 0.556641 9.24805 1.12305C9.24805 1.69922 9.63867 2.00195 10.2148 2.00195Z" fill="var(--color-primary)"/>
  <path d="M0.898438 18.2129L6.50391 18.2129C7.05078 18.2129 7.44141 17.9102 7.44141 17.3633C7.44141 16.8164 7.05078 16.5332 6.50391 16.5332L1.77734 16.5332L1.77734 9.78516L6.2793 9.78516C6.81641 9.78516 7.20703 9.50195 7.20703 8.97461C7.20703 8.42773 6.81641 8.13477 6.2793 8.13477L1.77734 8.13477L1.77734 1.93359L6.50391 1.93359C7.05078 1.93359 7.44141 1.65039 7.44141 1.09375C7.44141 0.556641 7.05078 0.253906 6.50391 0.253906L0.898438 0.253906C0.332031 0.253906 0 0.664062 0 1.23047L0 17.2461C0 17.793 0.332031 18.2129 0.898438 18.2129Z" fill="var(--color-primary)"/>
 </g>
</svg>
