<svg version="1.1" xmlns="http://www.w3.org/2000/svg" xmlns:xlink="http://www.w3.org/1999/xlink" viewBox="0 0 29.2871 25.9863">
 <g>
  <rect height="25.9863" opacity="0" width="29.2871" x="0" y="0"/>
  <path d="M14.4629 24.1602C22.8223 24.1602 28.9258 19.082 28.9258 12.0801C28.9258 5.05859 22.8125 0 14.4629 0C6.10352 0 0 5.05859 0 12.0801C0 14.3945 0.673828 16.543 1.875 18.3008C2.48047 19.209 2.70508 19.8535 2.70508 20.4004C2.70508 21.123 2.46094 21.6602 1.875 22.1875C0.986328 22.9297 1.43555 24.1602 2.59766 24.1602C4.16016 24.1602 5.9082 23.584 7.1875 22.6953C9.30664 23.6523 11.7871 24.1602 14.4629 24.1602ZM14.4629 22.4316C12.0117 22.4316 9.80469 21.9629 7.94922 21.123C7.26562 20.8105 6.74805 20.8984 6.08398 21.2988C5.42969 21.7285 4.60938 22.0801 3.81836 22.1973C4.17969 21.709 4.43359 21.1621 4.43359 20.4004C4.43359 19.502 4.10156 18.5059 3.32031 17.3242C2.29492 15.8398 1.72852 14.043 1.72852 12.0801C1.72852 6.09375 7.00195 1.72852 14.4629 1.72852C21.9238 1.72852 27.1973 6.09375 27.1973 12.0801C27.1973 18.0566 21.9238 22.4316 14.4629 22.4316Z" fill="var(--color-secondary)"/>
  <path d="M20.293 13.8086C21.2598 13.8086 22.041 13.0273 22.041 12.0605C22.041 11.1035 21.2598 10.3223 20.293 10.3223C19.3359 10.3223 18.5547 11.1035 18.5547 12.0605C18.5547 13.0273 19.3359 13.8086 20.293 13.8086Z" fill="var(--color-primary)"/>
  <path d="M14.4629 13.8086C15.4199 13.8086 16.2012 13.0273 16.2012 12.0605C16.2012 11.1035 15.4199 10.3223 14.4629 10.3223C13.4961 10.3223 12.7148 11.1035 12.7148 12.0605C12.7148 13.0273 13.4961 13.8086 14.4629 13.8086Z" fill="var(--color-primary)"/>
  <path d="M8.62305 13.8086C9.58008 13.8086 10.3711 13.0273 10.3711 12.0605C10.3711 11.1035 9.57031 10.3223 8.62305 10.3223C7.65625 10.3223 6.875 11.1035 6.875 12.0605C6.875 13.0273 7.65625 13.8086 8.62305 13.8086Z" fill="var(--color-primary)"/>
 </g>
</svg>
