<?xml version="1.0" encoding="UTF-8"?>
<!--Generator: Apple Native CoreSVG 341-->
<!DOCTYPE svg
PUBLIC "-//W3C//DTD SVG 1.1//EN"
       "http://www.w3.org/Graphics/SVG/1.1/DTD/svg11.dtd">
<svg version="1.1" xmlns="http://www.w3.org/2000/svg" xmlns:xlink="http://www.w3.org/1999/xlink" viewBox="0 0 25.7702 31.6968">
 <g>
  <rect height="31.6968" opacity="0" width="25.7702" x="0" y="0"/>
  <path d="M3.49545 18.2166L22.1283 18.2166C23.9935 18.2166 25.0677 17.1423 25.0677 15.0623L25.0677 3.69508C25.0677 1.60523 23.9837 0.531016 21.9036 0.531016L3.27084 0.531016C1.41537 0.531016 0.331384 1.60523 0.331384 3.69508L0.331384 15.0623C0.331384 17.1423 1.42513 18.2166 3.49545 18.2166ZM3.46615 16.6736C2.45052 16.6736 1.86459 16.1267 1.86459 15.0525L1.86459 3.69508C1.86459 2.63063 2.43099 2.07398 3.46615 2.07398L21.9232 2.07398C22.9583 2.07398 23.5345 2.63063 23.5345 3.70484L23.5345 15.0623C23.5345 16.1267 22.9486 16.6736 21.9232 16.6736ZM2.24545 17.0935L9.8431 9.50563L8.77865 8.45094L1.19076 16.0193ZM12.6947 12.0935C13.3392 12.0935 13.9837 11.8494 14.5794 11.3025L24.3841 2.48414L23.2904 1.40992L13.6224 10.1209C13.3099 10.4041 13.0169 10.5505 12.6947 10.5505C12.3626 10.5505 12.0697 10.4041 11.7572 10.1209L2.09896 1.40992L1.01498 2.48414L10.8099 11.3025C11.4056 11.8494 12.0404 12.0935 12.6947 12.0935ZM23.1634 17.1033L24.2083 16.0291L16.6204 8.45094L15.556 9.50563Z" fill="white" fill-opacity="0.425"/>
  <path d="M7.86068 21.1853C7.45052 21.1853 7.20638 21.4197 7.05013 21.8787C6.65951 23.4119 5.44857 24.6619 3.07552 24.9548C2.61654 25.0037 2.36263 25.3943 2.39193 25.7556C2.42123 26.117 2.70443 26.4392 3.3099 26.4002C6.58138 26.0584 8.64193 23.8513 8.64193 21.947C8.64193 21.5076 8.3099 21.1853 7.86068 21.1853ZM4.91146 27.5916L3.50521 23.4607C3.3392 22.8162 2.82162 22.699 2.3724 23.2361L0.194665 26.2341C-0.156897 26.6736-0.0201784 27.1423 0.507165 27.3279L4.04232 28.3435C4.67709 28.5681 5.07748 28.2263 4.91146 27.5916ZM12.7044 21.1755C12.2845 21.1755 11.9818 21.488 11.9818 21.947L11.9818 28.7537C11.9818 29.1638 12.304 29.4861 12.7044 29.4861C13.1048 29.4861 13.4271 29.1638 13.4271 28.7537L13.4271 21.947C13.4271 21.488 13.1244 21.1755 12.7044 21.1755ZM14.9701 27.2498L10.4388 27.2498C9.78451 27.2498 9.59896 27.7478 9.97006 28.2849L12.1185 31.3611C12.4408 31.8103 12.9681 31.8103 13.2904 31.3513L15.4388 28.2849C15.8099 27.7478 15.6146 27.2498 14.9701 27.2498ZM17.5482 21.1853C17.1087 21.1853 16.7767 21.5076 16.7767 21.947C16.7767 23.8513 18.8275 26.0584 22.1087 26.4002C22.7044 26.4392 22.9876 26.117 23.0169 25.7556C23.0462 25.3943 22.7923 25.0037 22.3333 24.9548C19.9603 24.6619 18.7494 23.4119 18.3685 21.8787C18.2025 21.4197 17.9583 21.1853 17.5482 21.1853ZM20.4974 27.5916C20.3314 28.2263 20.7318 28.5681 21.3665 28.3435L24.9115 27.3279C25.429 27.1423 25.5755 26.6736 25.2142 26.2341L23.0365 23.2361C22.5872 22.699 22.0794 22.8162 21.9036 23.4607Z" fill="white" fill-opacity="0.85"/>
 </g>
</svg>
