<?xml version="1.0" encoding="UTF-8"?>
<!--Generator: Apple Native CoreSVG 341-->
<!DOCTYPE svg
PUBLIC "-//W3C//DTD SVG 1.1//EN"
       "http://www.w3.org/Graphics/SVG/1.1/DTD/svg11.dtd">
<svg version="1.1" xmlns="http://www.w3.org/2000/svg" xmlns:xlink="http://www.w3.org/1999/xlink" viewBox="0 0 33.3594 31.5723">
 <g>
  <rect height="31.5723" opacity="0" width="33.3594" x="0" y="0"/>
  <path d="M24.8573 3.51563L8.15045 3.51563C8.20924 2.62376 8.78445 2.09961 9.72656 2.09961L23.2715 2.09961C24.2136 2.09961 24.7975 2.62376 24.8573 3.51563Z" fill="white" fill-opacity="0.85"/>
  <path d="M27.378 6.8504C27.3391 6.846 27.2976 6.8457 27.2559 6.8457L5.63016 6.8457C5.78851 5.86487 6.48896 5.3125 7.60742 5.3125L25.3906 5.3125C26.5109 5.3125 27.2193 5.86664 27.378 6.8504Z" fill="white" fill-opacity="0.85"/>
  <path d="M5.74219 29.4531L27.5293 29.4531C29.6484 29.4531 30.8887 28.2227 30.8887 25.8496L30.8887 12.5488C30.8887 10.1758 29.6387 8.95508 27.2559 8.95508L5.46875 8.95508C3.34961 8.95508 2.11914 10.1758 2.11914 12.5488L2.11914 25.8496C2.11914 28.2227 3.35938 29.4531 5.74219 29.4531ZM5.71289 27.8711C4.42383 27.8711 3.70117 27.168 3.70117 25.8398L3.70117 12.5586C3.70117 11.2402 4.42383 10.5371 5.71289 10.5371L27.2949 10.5371C28.584 10.5371 29.3066 11.2402 29.3066 12.5684L29.3066 25.8496C29.3066 27.168 28.584 27.8711 27.2949 27.8711ZM16.4941 22.2461C17.2266 22.2461 17.9395 21.9531 18.6133 21.3477L29.9707 11.1328L28.8672 10.0391L17.6758 20.127C17.2949 20.4785 16.9043 20.6543 16.4941 20.6543C16.084 20.6543 15.6934 20.4785 15.3125 20.127L4.12109 10.0391L3.02734 11.1328L14.375 21.3477C15.0488 21.9531 15.7617 22.2461 16.4941 22.2461ZM4.28711 28.0469L12.9785 19.3652L11.8945 18.291L3.21289 26.9531ZM28.7207 28.0566L29.7949 26.9629L21.1035 18.291L20.0195 19.3652Z" fill="white" fill-opacity="0.85"/>
 </g>
</svg>
