<?xml version="1.0" encoding="UTF-8"?>
<!--Generator: Apple Native CoreSVG 341-->
<!DOCTYPE svg
PUBLIC "-//W3C//DTD SVG 1.1//EN"
       "http://www.w3.org/Graphics/SVG/1.1/DTD/svg11.dtd">
<svg version="1.1" xmlns="http://www.w3.org/2000/svg" xmlns:xlink="http://www.w3.org/1999/xlink" viewBox="0 0 25.8008 25.459">
 <g>
  <rect height="25.459" opacity="0" width="25.8008" x="0" y="0"/>
  <path d="M12.7148 25.459C19.7266 25.459 25.4395 19.7461 25.4395 12.7344C25.4395 5.73242 19.7266 0.0195312 12.7148 0.0195312C5.71289 0.0195312 0 5.73242 0 12.7344C0 19.7461 5.71289 25.459 12.7148 25.459Z" fill="white" fill-opacity="0.2125"/>
  <path d="M11.2305 9.52148C11.084 9.52148 11.0059 9.44336 10.9766 9.30664C10.7812 7.87109 10.6445 7.69531 9.16016 7.50977C9.05273 7.48047 8.94531 7.39258 8.94531 7.28516C8.94531 7.13867 9.05273 7.04102 9.16992 7.02148C10.6445 6.83594 10.7227 6.66016 10.9766 5.21484C11.0059 5.08789 11.0938 5 11.2305 5C11.3379 5 11.4258 5.08789 11.4453 5.22461C11.6797 6.65039 11.7773 6.83594 13.2422 7.02148C13.3887 7.04102 13.4766 7.13867 13.4766 7.28516C13.4766 7.39258 13.3984 7.48047 13.252 7.50977C11.7773 7.69531 11.709 7.87109 11.4453 9.32617C11.4258 9.45312 11.3379 9.52148 11.2305 9.52148ZM9.66797 17.3926C8.7793 17.3926 8.41797 16.5527 9.02344 15.8496L14.5117 9.26758C14.7656 8.99414 15.0391 8.81836 15.332 8.81836C15.6055 8.81836 15.8887 8.99414 16.1328 9.26758L21.6211 15.8496C22.2168 16.5625 21.8848 17.3926 20.9863 17.3926ZM8.4082 15.3418C8.20312 15.5664 8.08594 15.8203 8.02734 16.0645L4.11133 16.0645C3.28125 16.0645 3.00781 15.2148 3.51562 14.6387L7.5293 9.89258C7.76367 9.61914 8.01758 9.50195 8.29102 9.50195C8.54492 9.50195 8.78906 9.61914 9.0332 9.89258L11.0156 12.2266Z" fill="white" fill-opacity="0.85"/>
 </g>
</svg>
