<?xml version="1.0" encoding="UTF-8"?>
<!--Generator: Apple Native CoreSVG 341-->
<!DOCTYPE svg
PUBLIC "-//W3C//DTD SVG 1.1//EN"
       "http://www.w3.org/Graphics/SVG/1.1/DTD/svg11.dtd">
<svg version="1.1" xmlns="http://www.w3.org/2000/svg" xmlns:xlink="http://www.w3.org/1999/xlink" viewBox="0 0 41.6199 35.4932">
 <g>
  <rect height="35.4932" opacity="0" width="41.6199" x="0" y="0"/>
  <path d="M18.0561 1.55031C18.5346 4.74367 18.8373 5.17336 22.099 5.61281C22.3432 5.65188 22.5385 5.81789 22.5385 6.0718C22.5385 6.30617 22.3627 6.50149 22.099 6.54055C19.2796 6.91197 18.7367 7.2688 18.2756 9.44812L14.2674 5.42444C16.4084 5.00455 16.6232 4.31158 17.1283 1.55031C17.1674 1.30617 17.3529 1.14016 17.5971 1.14016C17.8217 1.14016 18.017 1.31594 18.0561 1.55031Z" fill="white" fill-opacity="0.85"/>
  <path d="M12.7533 11.9019L18.2887 18.3922L17.1614 19.7406L11.4936 13.0933C11.2397 12.7905 10.9565 12.7905 10.7025 13.0933L2.22598 23.0347C1.97208 23.3374 2.11856 23.7671 2.52872 23.7671L13.7952 23.7671L12.7338 25.0366C12.6077 25.188 12.5009 25.3415 12.4185 25.4956L1.89395 25.4956C0.0580154 25.4956-0.557219 23.6402 0.556062 22.3218L9.44278 11.9019C9.97012 11.2866 10.5072 11.0132 11.1029 11.0132C11.6889 11.0132 12.226 11.2866 12.7533 11.9019Z" fill="white" fill-opacity="0.85"/>
  <path d="M20.7429 18.1531L14.3549 25.8081C14.0717 26.1402 14.1986 26.7163 14.765 26.7163L29.276 26.7163L30.9985 28.4448L14.1791 28.4448C12.2065 28.4448 11.4154 26.6187 12.7338 25.0366L19.517 16.9229ZM28.4565 10.5054L40.5951 25.0366C41.9232 26.6187 41.1322 28.4448 39.1596 28.4448L37.1996 28.4448L35.4777 26.7163L38.5639 26.7163C39.1303 26.7163 39.2572 26.1402 38.974 25.8081L27.1674 11.648C26.8354 11.2573 26.5033 11.2573 26.1713 11.648L23.5711 14.7639L22.3482 13.5364L24.8822 10.5054C25.4291 9.86086 26.0248 9.51906 26.6693 9.51906C27.3139 9.51906 27.9096 9.86086 28.4565 10.5054Z" fill="white" fill-opacity="0.85"/>
  <path d="M38.349 33.8843C38.6713 34.2066 39.2084 34.2066 39.5209 33.8843C39.8432 33.5523 39.8529 33.0347 39.5209 32.7027L9.05216 2.12649C8.73966 1.80422 8.20255 1.79445 7.87052 2.12649C7.54825 2.43899 7.54825 2.98586 7.87052 3.30813Z" fill="white" fill-opacity="0.85"/>
 </g>
</svg>
