<?xml version="1.0" encoding="UTF-8"?>
<!--Generator: Apple Native CoreSVG 341-->
<!DOCTYPE svg
PUBLIC "-//W3C//DTD SVG 1.1//EN"
       "http://www.w3.org/Graphics/SVG/1.1/DTD/svg11.dtd">
<svg version="1.1" xmlns="http://www.w3.org/2000/svg" xmlns:xlink="http://www.w3.org/1999/xlink" viewBox="0 0 25.8008 25.459">
 <g>
  <rect height="25.459" opacity="0" width="25.8008" x="0" y="0"/>
  <path d="M25.4395 12.7344C25.4395 19.7461 19.7266 25.459 12.7148 25.459C5.71289 25.459 0 19.7461 0 12.7344C0 5.73242 5.71289 0.0195312 12.7148 0.0195312C19.7266 0.0195312 25.4395 5.73242 25.4395 12.7344ZM14.5117 9.26758L9.02344 15.8496C8.41797 16.5527 8.7793 17.3926 9.66797 17.3926L20.9863 17.3926C21.8848 17.3926 22.2168 16.5625 21.6211 15.8496L16.1328 9.26758C15.8887 8.99414 15.6055 8.81836 15.332 8.81836C15.0391 8.81836 14.7656 8.99414 14.5117 9.26758ZM7.5293 9.89258L3.51562 14.6387C3.00781 15.2148 3.28125 16.0645 4.11133 16.0645L8.02734 16.0645C8.08594 15.8203 8.20312 15.5664 8.4082 15.3418L11.0156 12.2266L9.0332 9.89258C8.78906 9.61914 8.54492 9.50195 8.29102 9.50195C8.01758 9.50195 7.76367 9.61914 7.5293 9.89258ZM10.9766 5.21484C10.7227 6.66016 10.6445 6.83594 9.16992 7.02148C9.05273 7.04102 8.94531 7.13867 8.94531 7.28516C8.94531 7.39258 9.05273 7.48047 9.16016 7.50977C10.6445 7.69531 10.7812 7.87109 10.9766 9.30664C11.0059 9.44336 11.084 9.52148 11.2305 9.52148C11.3379 9.52148 11.4258 9.45312 11.4453 9.32617C11.709 7.87109 11.7773 7.69531 13.252 7.50977C13.3984 7.48047 13.4766 7.39258 13.4766 7.28516C13.4766 7.13867 13.3887 7.04102 13.2422 7.02148C11.7773 6.83594 11.6797 6.65039 11.4453 5.22461C11.4258 5.08789 11.3379 5 11.2305 5C11.0938 5 11.0059 5.08789 10.9766 5.21484Z" fill="white" fill-opacity="0.85"/>
 </g>
</svg>
