<?xml version="1.0" encoding="UTF-8"?>
<!--Generator: Apple Native CoreSVG 341-->
<!DOCTYPE svg
PUBLIC "-//W3C//DTD SVG 1.1//EN"
       "http://www.w3.org/Graphics/SVG/1.1/DTD/svg11.dtd">
<svg version="1.1" xmlns="http://www.w3.org/2000/svg" xmlns:xlink="http://www.w3.org/1999/xlink" viewBox="0 0 44.0817 35.5006">
 <g>
  <rect height="35.5006" opacity="0" width="44.0817" x="0" y="0"/>
  <path d="M19.326 1.554C19.8045 4.74736 20.1073 5.17705 23.3592 5.6165C23.6131 5.65556 23.8084 5.82158 23.8084 6.07549C23.8084 6.30986 23.6327 6.50517 23.369 6.54424C20.5486 6.91579 20.0063 7.27273 19.5451 9.45399L15.5362 5.42835C17.6781 5.00848 17.8917 4.31575 18.3885 1.554C18.4373 1.30986 18.6229 1.14384 18.8573 1.14384C19.0916 1.14384 19.287 1.31963 19.326 1.554Z" fill="white" fill-opacity="0.85"/>
  <path d="M14.0233 11.9056L18.5322 17.1924L12.8123 24.0442C12.4183 24.5151 12.1453 25.0077 11.9862 25.4993L3.15415 25.4993C1.32797 25.4993 0.702973 23.6438 1.82602 22.3255L10.7127 11.9056C11.2401 11.2903 11.7772 11.0169 12.3631 11.0169C12.9686 11.0169 13.4959 11.2903 14.0233 11.9056Z" fill="white" fill-opacity="0.85"/>
  <path d="M32.2684 28.4485L15.4393 28.4485C13.4666 28.4485 12.6854 26.6224 14.0038 25.0403L20.787 16.9266ZM29.7264 10.5091L41.8651 25.0403C43.1932 26.6321 42.4022 28.4485 40.4295 28.4485L38.4608 28.4485L23.6164 13.5422L26.1522 10.5091C26.6893 9.86455 27.2948 9.52275 27.9393 9.52275C28.5838 9.52275 29.1893 9.86455 29.7264 10.5091Z" fill="white" fill-opacity="0.85"/>
  <path d="M39.6092 33.888C39.9413 34.2103 40.4784 34.2103 40.7909 33.888C41.1131 33.556 41.1131 33.0384 40.7909 32.7063L10.3221 2.13017C9.99985 1.80791 9.4725 1.79814 9.14047 2.13017C8.81821 2.44267 8.81821 2.98955 9.14047 3.31181Z" fill="white" fill-opacity="0.85"/>
 </g>
</svg>
