<?xml version="1.0" encoding="UTF-8"?>
<!--Generator: Apple Native CoreSVG 341-->
<!DOCTYPE svg
PUBLIC "-//W3C//DTD SVG 1.1//EN"
       "http://www.w3.org/Graphics/SVG/1.1/DTD/svg11.dtd">
<svg version="1.1" xmlns="http://www.w3.org/2000/svg" xmlns:xlink="http://www.w3.org/1999/xlink" viewBox="0 0 27.8711 27.3926">
 <g>
  <rect height="27.3926" opacity="0" width="27.8711" x="0" y="0"/>
  <path d="M7.2168 27.3926C7.64648 27.3926 7.96875 27.168 8.4668 26.709L13.0273 22.5977L22.002 22.5977C25.5371 22.5977 27.5098 20.5859 27.5098 17.1094L27.5098 7.14844C27.5098 3.66211 25.5371 1.64062 22.002 1.64062L5.50781 1.64062C1.96289 1.64062 0 3.65234 0 7.14844L0 17.1094C0 20.6055 1.96289 22.5977 5.50781 22.5977L6.23047 22.5977L6.23047 26.2598C6.23047 26.9434 6.5918 27.3926 7.2168 27.3926Z" fill="white" fill-opacity="0.2125"/>
  <path d="M13.7598 14.4434C13.2031 14.4434 12.8809 14.1113 12.8711 13.5254L12.7246 6.65039C12.7148 6.06445 13.1348 5.64453 13.75 5.64453C14.3555 5.64453 14.7949 6.07422 14.7852 6.66016L14.6289 13.5254C14.6191 14.1211 14.2969 14.4434 13.7598 14.4434ZM13.7598 18.5156C13.0762 18.5156 12.4805 17.959 12.4805 17.2852C12.4805 16.6016 13.0664 16.0449 13.7598 16.0449C14.4531 16.0449 15.0391 16.5918 15.0391 17.2852C15.0391 17.9688 14.4434 18.5156 13.7598 18.5156Z" fill="white" fill-opacity="0.85"/>
 </g>
</svg>
