<?xml version="1.0" encoding="UTF-8"?>
<!--Generator: Apple Native CoreSVG 341-->
<!DOCTYPE svg
PUBLIC "-//W3C//DTD SVG 1.1//EN"
       "http://www.w3.org/Graphics/SVG/1.1/DTD/svg11.dtd">
<svg version="1.1" xmlns="http://www.w3.org/2000/svg" xmlns:xlink="http://www.w3.org/1999/xlink" viewBox="0 0 21.3281 26.9238">
 <g>
  <rect height="26.9238" opacity="0" width="21.3281" x="0" y="0"/>
  <path d="M5.54688 17.3438L15.459 17.3438C15.8496 17.3438 16.1426 17.041 16.1426 16.6602C16.1426 16.2793 15.8496 15.9863 15.459 15.9863L5.54688 15.9863C5.14648 15.9863 4.85352 16.2793 4.85352 16.6602C4.85352 17.041 5.14648 17.3438 5.54688 17.3438ZM5.54688 21.1719L10.2832 21.1719C10.6738 21.1719 10.9668 20.8789 10.9668 20.5078C10.9668 20.127 10.6738 19.8242 10.2832 19.8242L5.54688 19.8242C5.14648 19.8242 4.85352 20.127 4.85352 20.5078C4.85352 20.8789 5.14648 21.1719 5.54688 21.1719ZM7.08984 12.8711L13.9258 12.8711C14.5801 12.8711 14.9805 12.4023 14.9805 11.8164C14.9805 11.6504 14.9219 11.4746 14.834 11.3184L11.416 5.19531C11.2109 4.85352 10.8594 4.6582 10.5078 4.6582C10.1562 4.6582 9.79492 4.85352 9.59961 5.19531L6.17188 11.3184C6.08398 11.4746 6.03516 11.6504 6.03516 11.8164C6.03516 12.4023 6.44531 12.8711 7.08984 12.8711ZM10.498 11.6504C10.1562 11.6504 9.86328 11.3672 9.86328 11.0156C9.86328 10.6641 10.166 10.3906 10.498 10.3906C10.8496 10.3906 11.1523 10.6738 11.1523 11.0156C11.1426 11.3672 10.8496 11.6504 10.498 11.6504ZM10.498 9.81445C10.2539 9.81445 10.0586 9.64844 10.0586 9.38477L10.0098 7.06055C10 6.75781 10.2051 6.55273 10.498 6.55273C10.8008 6.55273 11.0156 6.75781 11.0059 7.06055L10.957 9.38477C10.957 9.64844 10.752 9.81445 10.498 9.81445ZM0 23.125C0 25.6445 1.25977 26.9238 3.75977 26.9238L17.207 26.9238C19.707 26.9238 20.9668 25.6445 20.9668 23.125L20.9668 3.80859C20.9668 1.28906 19.707 0.00976562 17.207 0.00976562L3.75977 0.00976562C1.25977 0.00976562 0 1.28906 0 3.80859ZM1.72852 23.0859L1.72852 3.84766C1.72852 2.48047 2.45117 1.73828 3.85742 1.73828L17.1094 1.73828C18.5156 1.73828 19.2383 2.48047 19.2383 3.84766L19.2383 23.0859C19.2383 24.4531 18.5156 25.1953 17.1094 25.1953L3.85742 25.1953C2.45117 25.1953 1.72852 24.4531 1.72852 23.0859Z" fill="white" fill-opacity="0.85"/>
 </g>
</svg>
