<?xml version="1.0" encoding="UTF-8"?>
<!--Generator: Apple Native CoreSVG 341-->
<!DOCTYPE svg
PUBLIC "-//W3C//DTD SVG 1.1//EN"
       "http://www.w3.org/Graphics/SVG/1.1/DTD/svg11.dtd">
<svg version="1.1" xmlns="http://www.w3.org/2000/svg" xmlns:xlink="http://www.w3.org/1999/xlink" viewBox="0 0 25.8008 25.459">
 <g>
  <rect height="25.459" opacity="0" width="25.8008" x="0" y="0"/>
  <path d="M12.7148 25.4395C19.7266 25.4395 25.4395 19.7266 25.4395 12.7246C25.4395 5.71289 19.7266 0 12.7148 0C5.71289 0 0 5.71289 0 12.7246C0 19.7266 5.71289 25.4395 12.7148 25.4395Z" fill="white" fill-opacity="0.2125"/>
  <path d="M12.7148 15.6055C12.666 15.6055 12.6367 15.6055 12.5977 15.5957C11.7773 18.0566 10.9473 19.3457 9.35547 19.3457C7.46094 19.3457 5.51758 17.1777 5.51758 15.0098C5.51758 13.8379 6.16211 13.2227 7.36328 13.2227L9.87305 13.2227C9.85352 13.0859 9.83398 12.8906 9.83398 12.7246C9.83398 12.6758 9.83398 12.6465 9.84375 12.5977C7.38281 11.7871 6.09375 10.9473 6.09375 9.35547C6.09375 7.4707 8.26172 5.52734 10.4297 5.52734C11.6016 5.52734 12.207 6.16211 12.207 7.36328L12.207 9.88281C12.3535 9.85352 12.5488 9.84375 12.7148 9.84375C12.7637 9.84375 12.793 9.84375 12.832 9.84375C13.6523 7.38281 14.4922 6.09375 16.0742 6.09375C17.9688 6.09375 19.9121 8.26172 19.9121 10.4297C19.9121 11.6016 19.2773 12.2168 18.0762 12.2168L15.5566 12.2168C15.5859 12.3633 15.5957 12.5488 15.5957 12.7246C15.5957 12.7637 15.5957 12.8027 15.5957 12.8418C18.0566 13.6621 19.3457 14.4922 19.3457 16.084C19.3457 17.9785 17.1777 19.9219 15.0098 19.9219C13.8379 19.9219 13.2227 19.2773 13.2227 18.0762L13.2227 15.5664C13.0762 15.5859 12.8906 15.6055 12.7148 15.6055ZM12.7148 14.2773C13.584 14.2773 14.2676 13.584 14.2676 12.7246C14.2676 11.8555 13.584 11.1719 12.7148 11.1719C11.8555 11.1719 11.1621 11.8555 11.1621 12.7246C11.1621 13.584 11.8555 14.2773 12.7148 14.2773Z" fill="white" fill-opacity="0.85"/>
 </g>
</svg>
