<?xml version="1.0" encoding="UTF-8"?>
<!--Generator: Apple Native CoreSVG 341-->
<!DOCTYPE svg
PUBLIC "-//W3C//DTD SVG 1.1//EN"
       "http://www.w3.org/Graphics/SVG/1.1/DTD/svg11.dtd">
<svg version="1.1" xmlns="http://www.w3.org/2000/svg" xmlns:xlink="http://www.w3.org/1999/xlink" viewBox="0 0 25.8008 25.459">
 <g>
  <rect height="25.459" opacity="0" width="25.8008" x="0" y="0"/>
  <path d="M12.7148 25.4395C19.7266 25.4395 25.4395 19.7266 25.4395 12.7246C25.4395 5.71289 19.7266 0 12.7148 0C5.71289 0 0 5.71289 0 12.7246C0 19.7266 5.71289 25.4395 12.7148 25.4395Z" fill="white" fill-opacity="0.2125"/>
  <path d="M14.3945 8.18359C13.5547 8.18359 12.8809 7.51953 12.8809 6.66992C12.8809 5.84961 13.5547 5.19531 14.3945 5.19531C15.2051 5.19531 15.8789 5.84961 15.8789 6.66992C15.8789 7.51953 15.2051 8.18359 14.3945 8.18359ZM10.9082 21.7188C10.5078 21.7188 10.2051 21.4062 10.2051 21.0254L10.2051 17.5C10.2051 17.3633 10.2148 17.2754 10.2734 17.168L11.9238 14.0234L11.9238 12.1289C11.9238 11.9336 11.8457 11.7578 11.5723 11.7578L9.92188 11.7578C9.76562 11.7578 9.6875 11.7578 9.58008 11.709L7.09961 10.6445C6.68945 10.4688 6.64062 9.98047 6.86523 9.64844L11.2891 3.53516C11.3574 3.45703 11.4746 3.39844 11.582 3.39844L12.7344 3.39844C13.0371 3.39844 13.2715 3.61328 13.2715 3.90625C13.2715 4.19922 13.0371 4.43359 12.7344 4.43359L11.5625 4.43359L7.91992 9.49219L9.76562 10.2637L11.4062 9.0918C12.0703 8.62305 12.8223 8.51562 13.6035 8.84766L14.043 9.0332C14.7461 9.32617 15.0586 10.0781 15.0586 10.8105L15.0586 17.3535L16.3574 20.791C16.5234 21.2305 16.2793 21.5625 15.9473 21.6797C15.625 21.7969 15.2246 21.709 15.0586 21.2695L13.75 17.8125C13.6914 17.6855 13.6816 17.627 13.6621 17.5098L13.4082 15.3613C13.3984 15.2539 13.2617 15.2344 13.2129 15.3125L11.5918 17.7051L11.5918 21.0254C11.5918 21.4062 11.2695 21.7188 10.9082 21.7188Z" fill="white" fill-opacity="0.85"/>
 </g>
</svg>
