<?xml version="1.0" encoding="UTF-8"?>
<!--Generator: Apple Native CoreSVG 341-->
<!DOCTYPE svg
PUBLIC "-//W3C//DTD SVG 1.1//EN"
       "http://www.w3.org/Graphics/SVG/1.1/DTD/svg11.dtd">
<svg version="1.1" xmlns="http://www.w3.org/2000/svg" xmlns:xlink="http://www.w3.org/1999/xlink" viewBox="0 0 25.8008 25.459">
 <g>
  <rect height="25.459" opacity="0" width="25.8008" x="0" y="0"/>
  <path d="M12.7148 25.4395C19.7266 25.4395 25.4395 19.7266 25.4395 12.7246C25.4395 5.71289 19.7266 0 12.7148 0C5.71289 0 0 5.71289 0 12.7246C0 19.7266 5.71289 25.4395 12.7148 25.4395Z" fill="white" fill-opacity="0.2125"/>
  <path d="M12.7148 9.38477C11.8457 9.38477 11.1523 8.67188 11.1523 7.80273C11.1523 6.96289 11.8457 6.25977 12.7148 6.25977C13.5742 6.25977 14.2578 6.96289 14.2578 7.80273C14.2578 8.67188 13.5742 9.38477 12.7148 9.38477ZM6.08398 15.9961C5.5957 15.957 5.41016 15.6836 5.41016 15.2637L5.41016 11.6309C5.41016 11.2305 5.74219 10.9082 6.15234 10.9082C6.52344 10.9082 6.86523 11.2305 6.86523 11.6309L6.86523 14.541L9.7168 14.541C10.0488 13.9844 10.6836 12.7539 10.8398 11.4648C10.8496 11.3281 10.7715 11.2207 10.6348 11.1816L5.57617 9.79492C5.19531 9.6875 4.9707 9.28711 5.06836 8.89648C5.18555 8.50586 5.57617 8.28125 5.9668 8.39844L11.3867 9.89258C12.4414 10.1758 12.5293 10.1855 13.4863 10.1855L19.209 10.1855C19.6289 10.1855 19.9414 10.5078 19.9414 10.9082C19.9414 11.3086 19.6289 11.6309 19.209 11.6309L14.0039 11.6309C13.8477 11.6309 13.75 11.7188 13.7305 11.875C13.5938 13.2227 13.0371 14.4629 12.6465 15.2441L15.6836 16.3477C15.7324 16.3672 15.8594 16.4258 15.918 16.4355L19.375 17.6855C19.7461 17.8223 19.9219 18.2422 19.8047 18.623C19.668 19.0527 19.1895 19.1797 18.8574 19.0527L15.4102 17.7832L11.0449 16.5527C10.4395 16.3965 10.3027 16.3477 9.6582 16.2988Z" fill="white" fill-opacity="0.85"/>
 </g>
</svg>
