<svg version="1.1" xmlns="http://www.w3.org/2000/svg" xmlns:xlink="http://www.w3.org/1999/xlink" viewBox="0 0 27.992 26.5676">
 <g>
  <rect height="26.5676" opacity="0" width="27.992" x="0" y="0"/>
  <path d="M22.3651 7.4391C24.2206 7.4391 25.705 5.89613 25.705 4.09925C25.705 2.22425 24.2206 0.700815 22.3651 0.700815C20.4901 0.700815 18.996 2.22425 18.996 4.09925C18.996 5.96449 20.4901 7.4391 22.3651 7.4391ZM2.36513 25.1735C3.00966 25.8473 4.11318 25.7887 4.9042 24.9782L10.246 19.4606C10.4218 19.275 10.5487 19.2262 10.8222 19.3336L15.0604 20.945C17.7265 21.9606 20.2167 21.0231 21.4276 18.8258L24.0448 14.0602C25.0897 12.1461 24.7577 10.193 22.9511 9.23597C21.1933 8.26917 19.3769 8.99183 18.3222 10.9352L14.8456 17.2828L11.8866 16.2086C10.412 15.6715 9.19131 15.8375 8.0292 17.0485L2.48232 22.7907C1.71084 23.5817 1.7792 24.5778 2.36513 25.1735Z" fill="var(--color-secondary)"/>
  <path d="M4.94326 5.09535L5.29482 5.85706L2.90224 8.41566L0.841696 9.42152C0.0506804 9.80238-0.164163 10.5446 0.11904 11.15C0.402243 11.775 1.10537 12.1266 2.00381 11.6969L3.71279 10.8766L7.53115 10.6618L7.94131 11.5211C8.10732 11.8825 8.53701 12.0387 8.88857 11.8727C9.2499 11.7067 9.40615 11.277 9.24013 10.9254L6.24209 4.49964C6.07607 4.13831 5.65615 3.98206 5.29482 4.14808C4.93349 4.3141 4.77724 4.74378 4.94326 5.09535ZM8.99599 4.77308L12.5604 3.22035C13.0097 3.02503 13.1073 2.53675 12.6483 2.21449L9.66006 0.134409C9.2499-0.15856 8.78115 0.0465179 8.71279 0.564096L8.20498 4.14808C8.12685 4.69496 8.50771 4.98792 8.99599 4.77308ZM10.539 8.12269C10.0702 8.32777 10.0116 8.80628 10.4706 9.13831L13.4589 11.2086C13.8593 11.5016 14.3183 11.2868 14.3866 10.7887L14.914 7.19496C14.9921 6.62855 14.5917 6.36488 14.1034 6.56996Z" fill="var(--color-primary)"/>
 </g>
</svg>
