<?xml version="1.0" encoding="UTF-8"?>
<!--Generator: Apple Native CoreSVG 341-->
<!DOCTYPE svg
PUBLIC "-//W3C//DTD SVG 1.1//EN"
       "http://www.w3.org/Graphics/SVG/1.1/DTD/svg11.dtd">
<svg version="1.1" xmlns="http://www.w3.org/2000/svg" xmlns:xlink="http://www.w3.org/1999/xlink" viewBox="0 0 25.8008 25.459">
 <g>
  <rect height="25.459" opacity="0" width="25.8008" x="0" y="0"/>
  <path d="M12.7148 25.4395C19.7266 25.4395 25.4395 19.7266 25.4395 12.7246C25.4395 5.71289 19.7266 0 12.7148 0C5.71289 0 0 5.71289 0 12.7246C0 19.7266 5.71289 25.4395 12.7148 25.4395Z" fill="white" fill-opacity="0.2125"/>
  <path d="M11.3672 6.9043C10.5078 6.9043 9.81445 6.2207 9.81445 5.36133C9.81445 4.50195 10.5078 3.80859 11.3672 3.80859C12.2168 3.80859 12.9297 4.50195 12.9297 5.36133C12.9297 6.2207 12.2168 6.9043 11.3672 6.9043ZM15.0586 18.252C14.707 18.4082 14.2188 18.291 14.0332 17.8027L12.8809 14.9316L9.96094 13.2324C9.32617 12.8613 8.92578 12.1289 8.98438 11.377L9.20898 8.89648C9.28711 7.90039 10.1465 7.33398 11.1328 7.66602L13.8574 8.57422L16.5527 8.27148C17.5098 8.1543 17.6953 9.58984 16.709 9.69727L13.9453 10.0195C13.7891 10.0293 13.623 10.0195 13.4668 9.98047L11.9922 9.46289C11.8457 9.41406 11.748 9.46289 11.7383 9.59961L11.5625 12.1289L13.8477 13.8281C14.0137 13.9453 14.082 14.0234 14.1211 14.1211L15.3809 17.2656C15.5664 17.7539 15.3711 18.1055 15.0586 18.252ZM8.39844 19.5117C8.04688 19.3457 7.82227 18.8867 8.13477 18.418L9.88281 15.8203L9.77539 13.8086L11.4062 14.7754L11.3281 16.0449C11.3184 16.2012 11.2695 16.3281 11.2109 16.4258L9.32617 19.2383C9.07227 19.6289 8.69141 19.6582 8.39844 19.5117ZM13.9258 20.4883C13.6816 20.5859 13.4766 20.4395 13.4082 20.2734C13.3398 20.0781 13.3984 19.8242 13.6914 19.7266L16.2305 18.8867L16.2305 10.3613L16.7285 10.3027C16.8652 10.293 16.9043 10.2832 17.0312 10.2441L17.0312 19.1211C17.0312 19.3555 16.9238 19.4922 16.7285 19.5605ZM8.14453 21.0742C7.92969 21.0742 7.75391 20.8789 7.75391 20.6738C7.75391 20.459 7.91992 20.2734 8.14453 20.2734L11.1328 20.2734C11.3574 20.2734 11.5527 20.4492 11.5527 20.6738C11.5527 20.8789 11.3574 21.0742 11.1328 21.0742Z" fill="white" fill-opacity="0.85"/>
 </g>
</svg>
