<svg version="1.1" xmlns="http://www.w3.org/2000/svg" xmlns:xlink="http://www.w3.org/1999/xlink" viewBox="0 0 25.8008 25.459">
 <g>
  <rect height="25.459" opacity="0" width="25.8008" x="0" y="0"/>
  <path d="M12.7148 25.4395C19.7266 25.4395 25.4395 19.7266 25.4395 12.7246C25.4395 5.71289 19.7266 0 12.7148 0C5.71289 0 0 5.71289 0 12.7246C0 19.7266 5.71289 25.4395 12.7148 25.4395Z" fill="var(--color-tertiary)"/>
  <path d="M16.6895 7.59766C15.8301 7.59766 15.1367 6.9043 15.1367 6.04492C15.1367 5.19531 15.8301 4.49219 16.6895 4.49219C17.5391 4.49219 18.2324 5.19531 18.2324 6.04492C18.2324 6.9043 17.5391 7.59766 16.6895 7.59766ZM5.2832 10.7031C5.2832 9.83398 6.00586 9.10156 6.88477 9.10156C6.88477 8.70117 7.22656 8.36914 7.62695 8.36914L16.1816 8.36914C16.7871 8.36914 17.3047 8.57422 17.7344 9.00391L19.5117 10.8008C19.7949 11.0938 19.8047 11.5527 19.5117 11.8555L17.666 13.6816C17.373 13.9844 16.9043 13.9551 16.6309 13.6816C16.3477 13.4082 16.3281 12.9395 16.6309 12.6465L17.959 11.3281L16.9922 10.3516C16.8652 10.2441 16.6797 10.2344 16.5625 10.3516L13.7598 13.1641L16.2012 15.6055C16.3867 15.791 16.4551 16.1035 16.3477 16.3867L15.0879 20.2734C14.9414 20.752 14.5508 20.8887 14.209 20.8203C13.8281 20.7324 13.5156 20.3711 13.6816 19.8633L14.8145 16.3965L11.1816 13.6328C10.752 13.3008 10.6543 12.3438 11.2988 11.709L12.7344 10.2734C12.9102 10.1172 12.793 9.84375 12.5488 9.84375L8.24219 9.84375C8.39844 10.0977 8.48633 10.3906 8.48633 10.7031C8.48633 11.582 7.76367 12.3145 6.88477 12.3145C6.00586 12.3145 5.2832 11.582 5.2832 10.7031ZM6.45508 17.2266C6.45508 16.8262 6.77734 16.4941 7.19727 16.4941L10.6152 16.4941L10.9766 14.2285L12.5586 15.4297L11.9531 17.4414C11.8555 17.7637 11.5918 17.9688 11.2012 17.9688L7.19727 17.9688C6.77734 17.9688 6.45508 17.6367 6.45508 17.2266Z" fill="var(--color-primary)"/>
 </g>
</svg>
