<?xml version="1.0" encoding="UTF-8"?>
<!--Generator: Apple Native CoreSVG 341-->
<!DOCTYPE svg
PUBLIC "-//W3C//DTD SVG 1.1//EN"
       "http://www.w3.org/Graphics/SVG/1.1/DTD/svg11.dtd">
<svg version="1.1" xmlns="http://www.w3.org/2000/svg" xmlns:xlink="http://www.w3.org/1999/xlink" viewBox="0 0 24.1532 25.166">
 <g>
  <rect height="25.166" opacity="0" width="24.1532" x="0" y="0"/>
  <path d="M20.4506 6.73828C22.3061 6.73828 23.7904 5.19531 23.7904 3.39844C23.7904 1.52344 22.3061 0 20.4506 0C18.5756 0 17.0815 1.52344 17.0815 3.39844C17.0815 5.26367 18.5756 6.73828 20.4506 6.73828ZM0.450604 24.4727C1.09514 25.1465 2.19865 25.0879 2.98967 24.2773L8.33146 18.7598C8.50724 18.5742 8.6342 18.5254 8.90764 18.6328L13.1459 20.2441C15.8119 21.2598 18.3022 20.3223 19.5131 18.125L22.1401 13.3594C23.185 11.4453 22.8432 9.49219 21.0365 8.53516C19.2885 7.56836 17.4623 8.29102 16.4076 10.2344L12.9311 16.582L9.97209 15.5078C8.49748 14.9707 7.27678 15.1367 6.11467 16.3477L0.567792 22.0898C-0.203693 22.8809-0.135333 23.877 0.450604 24.4727Z" fill="white" fill-opacity="0.425"/>
  <path d="M6.78849 11.0059C6.78849 11.9141 7.72599 12.3047 8.39982 11.6992L12.1303 8.45703C12.6088 8.04688 12.6186 7.46094 12.1303 7.03125L8.39982 3.7793C7.75529 3.20312 6.78849 3.53516 6.78849 4.47266ZM0.919354 6.82617C0.411542 6.82617 0.0111512 7.22656 0.0111512 7.72461C0.0111512 8.24219 0.411542 8.64258 0.919354 8.64258L9.19084 8.64258C9.69865 8.64258 10.099 8.24219 10.099 7.72461C10.099 7.22656 9.69865 6.82617 9.19084 6.82617Z" fill="white" fill-opacity="0.85"/>
 </g>
</svg>
