<?xml version="1.0" encoding="UTF-8"?>
<!--Generator: Apple Native CoreSVG 341-->
<!DOCTYPE svg
PUBLIC "-//W3C//DTD SVG 1.1//EN"
       "http://www.w3.org/Graphics/SVG/1.1/DTD/svg11.dtd">
<svg version="1.1" xmlns="http://www.w3.org/2000/svg" xmlns:xlink="http://www.w3.org/1999/xlink" viewBox="0 0 25.8008 25.459">
 <g>
  <rect height="25.459" opacity="0" width="25.8008" x="0" y="0"/>
  <path d="M12.7148 25.4395C19.7266 25.4395 25.4395 19.7266 25.4395 12.7246C25.4395 5.71289 19.7266 0 12.7148 0C5.71289 0 0 5.71289 0 12.7246C0 19.7266 5.71289 25.4395 12.7148 25.4395Z" fill="white" fill-opacity="0.2125"/>
  <path d="M13.6914 7.24609C12.832 7.24609 12.1289 6.54297 12.1289 5.68359C12.1289 4.82422 12.832 4.13086 13.6914 4.13086C14.5508 4.13086 15.2441 4.82422 15.2441 5.68359C15.2441 6.54297 14.5508 7.24609 13.6914 7.24609ZM12.8809 17.8418C12.5781 17.8418 12.4121 17.6855 12.4121 17.4121L12.4121 14.5117L9.81445 13.8574C8.50586 13.5254 8.02734 12.4219 8.65234 11.1621L9.13086 10.2148L8.27148 9.76562C7.72461 9.47266 7.60742 8.7207 8.29102 8.4375L10.5566 7.50977C11.3379 7.1875 12.1484 7.31445 12.8223 7.8125L15.8984 10.127C16.1523 10.3125 16.2207 10.4395 16.2207 10.7129L16.2207 13.8379C16.2207 13.916 16.2109 13.9648 16.1914 14.0332L18.7793 16.416L21.1523 16.416C21.3379 16.416 21.5234 16.6016 21.5234 16.7871L21.5234 17.1484C21.5234 17.3438 21.3379 17.5098 21.1523 17.5098L19.0527 17.5098C18.8965 17.5098 18.8086 17.5 18.6621 17.3633L15.6152 14.5312C15.2344 14.5898 14.7754 14.3359 14.8047 13.7695L11.9531 11.123L11.377 12.2461L13.3691 13.1641C13.6523 13.291 13.8477 13.5449 13.8477 13.8379L13.8477 16.6406L14.9414 16.9922C15.3613 17.1289 15.3613 17.8418 14.8438 17.8418ZM14.8047 12.7539L14.8047 11.1426L12.8516 9.87305C12.7344 9.79492 12.5977 9.84375 12.5391 9.96094L12.2949 10.459ZM12.5879 18.9355C12.4316 18.9355 12.2852 18.7891 12.2852 18.6328C12.2852 18.4766 12.4219 18.3301 12.5879 18.3301L15.4004 18.3301C15.5762 18.3301 15.7129 18.4766 15.7129 18.6328C15.7129 18.7891 15.5664 18.9355 15.4004 18.9355ZM5.38086 17.5L5.38086 15.5273C5.38086 15.2441 5.52734 15.0684 5.82031 15.0684L8.27148 15.0684L8.63281 13.9941C8.89648 14.1895 9.25781 14.3652 9.6582 14.4727L10.2148 14.6094L9.44336 16.123C9.33594 16.3281 9.11133 16.5137 8.81836 16.5137L6.57227 16.5137L6.23047 17.5879C6.09375 18.0176 5.38086 18.0078 5.38086 17.5ZM4.28711 18.0566L4.28711 15.2539C4.28711 15.0879 4.42383 14.9512 4.58984 14.9512C4.75586 14.9512 4.89258 15.0879 4.89258 15.2539L4.89258 18.0566C4.89258 18.2422 4.75586 18.3691 4.58984 18.3691C4.43359 18.3691 4.28711 18.2324 4.28711 18.0566ZM16.9434 19.4824L16.9434 18.8672C16.9434 18.5645 17.4414 18.3398 18.0859 18.3398C18.7402 18.3398 19.248 18.5645 19.248 18.8672L19.248 19.4824C19.248 19.7852 18.7402 20.0293 18.0859 20.0293C17.4414 20.0293 16.9434 19.7852 16.9434 19.4824Z" fill="white" fill-opacity="0.85"/>
 </g>
</svg>
