<?xml version="1.0" encoding="UTF-8"?>
<!--Generator: Apple Native CoreSVG 341-->
<!DOCTYPE svg
PUBLIC "-//W3C//DTD SVG 1.1//EN"
       "http://www.w3.org/Graphics/SVG/1.1/DTD/svg11.dtd">
<svg version="1.1" xmlns="http://www.w3.org/2000/svg" xmlns:xlink="http://www.w3.org/1999/xlink" viewBox="0 0 24.1532 25.3052">
 <g>
  <rect height="25.3052" opacity="0" width="24.1532" x="0" y="0"/>
  <path d="M20.4506 6.80787C22.3061 6.80787 23.7904 5.2649 23.7904 3.46803C23.7904 1.59303 22.3061 0.0695893 20.4506 0.0695893C18.5756 0.0695893 17.0815 1.59303 17.0815 3.46803C17.0815 5.33326 18.5756 6.80787 20.4506 6.80787ZM0.450604 24.5422C1.09514 25.2161 2.19865 25.1575 2.98967 24.3469L8.33146 18.8294C8.50724 18.6438 8.6342 18.595 8.90764 18.7024L13.1459 20.3137C15.8119 21.3294 18.3022 20.3919 19.5131 18.1946L22.1401 13.429C23.185 11.5149 22.8432 9.56178 21.0365 8.60475C19.2885 7.63795 17.4623 8.3606 16.4076 10.304L12.9311 16.6516L9.97209 15.5774C8.49748 15.0403 7.27678 15.2063 6.11467 16.4172L0.567792 22.1594C-0.203693 22.9504-0.135333 23.9465 0.450604 24.5422Z" fill="white" fill-opacity="0.425"/>
  <path d="M0.997479 5.70435L7.53068 5.70435C8.47795 5.70435 8.80021 4.74732 8.22404 4.09303L4.98185 0.362558C4.55217-0.125723 3.95646-0.115958 3.54631 0.362558L0.30412 4.09303C-0.301349 4.77662 0.0990419 5.70435 0.997479 5.70435ZM5.18693 11.5735L5.18693 3.31178C5.18693 2.7942 4.78654 2.39381 4.27873 2.39381C3.77092 2.39381 3.37053 2.7942 3.37053 3.31178L3.37053 11.5735C3.37053 12.0911 3.77092 12.4915 4.27873 12.4915C4.78654 12.4915 5.18693 12.0911 5.18693 11.5735Z" fill="white" fill-opacity="0.85"/>
 </g>
</svg>
