<svg version="1.1" xmlns="http://www.w3.org/2000/svg" xmlns:xlink="http://www.w3.org/1999/xlink" viewBox="0 0 28.6086 28.2642">
 <g>
  <rect height="28.2642" opacity="0" width="28.6086" x="0" y="0"/>
  <path d="M1.35995 16.8128L11.4478 26.9007C13.235 28.6878 15.0318 28.6975 16.7994 26.93L26.9264 16.7932C28.6939 15.0257 28.6939 13.2288 26.9068 11.4417L16.8189 1.35378C15.0318-0.443093 13.2447-0.452858 11.4674 1.33425L1.32089 11.4612C-0.456453 13.2385-0.436922 15.0257 1.35995 16.8128Z" fill="var(--color-tertiary)"/>
  <path d="M10.9596 21.7053C10.3639 22.3987 9.23105 21.5882 9.93417 20.7581L12.1607 18.1116L12.5318 16.3831L13.7135 17.887L13.5377 18.4339C13.4498 18.7073 13.4205 18.7659 13.2057 19.0393ZM16.4478 21.5003L14.8756 18.3167C14.817 18.1995 14.7975 18.1116 14.651 17.926L13.1275 16.0218C12.5611 15.3186 12.3658 14.9182 12.4244 14.0882L12.5514 12.4573C12.5709 12.2229 12.2877 12.1155 12.0924 12.301L11.5357 12.7893L11.3697 14.7425C11.3307 15.2112 11.0865 15.4553 10.6666 15.426C10.2662 15.4065 10.0318 15.094 10.0611 14.6546L10.1783 12.887C10.2174 12.4085 10.3443 12.1057 10.7154 11.7346L11.858 10.6116C12.6002 9.8987 13.1178 9.48855 13.899 9.48855C14.9537 9.48855 15.5592 10.26 15.4908 11.305L15.3346 13.4632C15.2857 14.2346 15.1881 14.7034 14.9146 15.4749L14.8463 15.6702L15.8326 17.0667C15.9791 17.2718 16.1353 17.5159 16.2525 17.7405L17.7662 20.846C18.2838 21.8421 16.8971 22.4182 16.4478 21.5003ZM19.0455 12.4378C19.4947 12.4378 19.7779 12.6917 19.7779 13.0921C19.7779 13.5022 19.4947 13.7561 19.0455 13.7561L17.4342 13.7561C16.9947 13.7561 16.7896 13.6878 16.5455 13.4436L16.067 12.9651L16.1939 11.1975L17.317 12.4378ZM14.7389 8.81472C13.86 8.81472 13.1568 8.10183 13.1568 7.24245C13.1568 6.36355 13.86 5.66042 14.7389 5.66042C15.608 5.66042 16.3111 6.36355 16.3111 7.24245C16.3111 8.10183 15.608 8.81472 14.7389 8.81472Z" fill="var(--color-primary)"/>
 </g>
</svg>
