<?xml version="1.0" encoding="UTF-8"?>
<!--Generator: Apple Native CoreSVG 341-->
<!DOCTYPE svg
PUBLIC "-//W3C//DTD SVG 1.1//EN"
       "http://www.w3.org/Graphics/SVG/1.1/DTD/svg11.dtd">
<svg version="1.1" xmlns="http://www.w3.org/2000/svg" xmlns:xlink="http://www.w3.org/1999/xlink" viewBox="0 0 25.8008 25.459">
 <g>
  <rect height="25.459" opacity="0" width="25.8008" x="0" y="0"/>
  <path d="M12.7148 25.4395C19.7266 25.4395 25.4395 19.7266 25.4395 12.7246C25.4395 5.71289 19.7266 0 12.7148 0C5.71289 0 0 5.71289 0 12.7246C0 19.7266 5.71289 25.4395 12.7148 25.4395Z" fill="white" fill-opacity="0.2125"/>
  <path d="M13.7891 6.5625C12.998 6.5625 12.3535 5.9375 12.3535 5.14648C12.3535 4.33594 12.998 3.69141 13.7891 3.69141C14.5801 3.69141 15.2246 4.33594 15.2246 5.14648C15.2246 5.9375 14.5801 6.5625 13.7891 6.5625ZM5.22461 19.502C5.22461 19.3066 5.36133 19.1699 5.55664 19.1504L19.043 18.3105C19.5605 18.2715 19.9414 18.5547 19.9414 19.0527C19.9414 19.4922 19.6094 19.8242 19.1895 19.8242L5.55664 19.8242C5.37109 19.8242 5.22461 19.6777 5.22461 19.502ZM7.08984 18.0566C6.82617 17.8223 6.77734 17.4219 7.10938 17.0801L9.35547 14.8438L10.1758 11.9043C10.4395 12.3926 10.918 12.6953 11.2402 12.8711L11.4258 12.9688L10.5176 15.3516C10.4004 15.625 10.3711 15.6641 10.1953 15.8398L8.04688 17.9688C7.71484 18.291 7.34375 18.291 7.08984 18.0566ZM8.36914 10.1562L8.68164 7.80273C8.73047 7.42188 8.98438 7.1875 9.33594 7.1582L11.6797 6.99219C12.8809 6.9043 13.623 7.24609 14.2285 8.06641L15.3711 9.64844L17.0312 8.90625C17.4121 8.74023 17.7344 8.83789 17.8809 9.17969C18.0469 9.50195 17.9102 9.82422 17.5488 9.99023L15.4492 10.918C15.1562 11.0449 14.8535 10.9668 14.6875 10.7031L13.9648 9.64844C13.8086 9.41406 13.5254 9.45312 13.457 9.7168L12.9688 11.4355L15.4492 13.0762C15.8105 13.3203 15.8594 13.877 15.5566 14.1406L13.2617 16.084C12.9102 16.3867 12.5195 16.3477 12.2949 16.0938C12.0801 15.8594 12.0898 15.4883 12.4414 15.1758L14.0723 13.7695L11.5332 12.3438C10.957 12.0215 10.2441 11.709 10.5566 10.6055L11.1035 8.70117C11.1719 8.44727 10.9668 8.29102 10.7617 8.31055L9.80469 8.36914L9.51172 10.3027C9.45312 10.7031 9.24805 10.918 8.87695 10.8984C8.50586 10.8594 8.32031 10.5762 8.36914 10.1562ZM18.252 17.7539L19.3359 11.5723L18.457 11.9922C18.2324 12.0898 17.9883 12.002 17.9102 11.8164C17.8125 11.6016 17.8906 11.3574 18.125 11.25L21.4453 9.69727C21.6504 9.59961 21.9043 9.6875 21.9922 9.89258C22.0801 10.0781 21.9922 10.3418 21.7871 10.4297L20.2344 11.1621L19.0918 17.7148C19.0039 17.7148 18.9746 17.7148 18.8477 17.7246Z" fill="white" fill-opacity="0.85"/>
 </g>
</svg>
