<svg version="1.1" xmlns="http://www.w3.org/2000/svg" xmlns:xlink="http://www.w3.org/1999/xlink" viewBox="0 0 25.8008 25.459">
 <g>
  <rect height="25.459" opacity="0" width="25.8008" x="0" y="0"/>
  <path d="M12.7148 25.4395C19.7266 25.4395 25.4395 19.7266 25.4395 12.7246C25.4395 5.71289 19.7266 0 12.7148 0C5.71289 0 0 5.71289 0 12.7246C0 19.7266 5.71289 25.4395 12.7148 25.4395Z" fill="var(--color-tertiary)"/>
  <path d="M10.2148 12.3828C9.3457 12.3828 8.64258 11.6797 8.64258 10.8203C8.64258 9.96094 9.3457 9.26758 10.2148 9.26758C11.0645 9.26758 11.7578 9.96094 11.7578 10.8203C11.7578 11.6797 11.0645 12.3828 10.2148 12.3828ZM3.69141 15.5957C3.69141 15.3613 3.88672 15.1953 4.0918 15.1953C6.35742 15.1953 9.04297 16.0742 10.6152 19.668C12.2656 18.2031 14.2676 17.7051 16.8262 18.3203C17.5586 16.9629 18.9648 16.2207 20.4785 16.2207C20.6934 16.2207 20.8789 16.4062 20.8789 16.6211C20.8789 16.8262 20.6934 17.0215 20.4785 17.0215C19.1211 17.0215 17.9688 17.6562 17.4316 18.916C17.3242 19.1309 17.168 19.2383 16.9238 19.1797C14.2871 18.4277 12.4512 18.9648 10.8496 20.5566C10.6055 20.8008 10.1758 20.752 10.0195 20.3613C8.65234 16.7969 6.25977 15.9961 4.0918 15.9961C3.88672 15.9961 3.69141 15.8105 3.69141 15.5957ZM8.83789 15.7129L8.83789 14.0918C8.83789 13.4473 9.28711 12.998 9.91211 12.998L12.4609 12.998L12.4609 10.3418C12.4609 10.127 12.5293 9.95117 12.666 9.81445L17.6562 4.81445C17.8125 4.6582 18.0664 4.66797 18.2031 4.81445C18.3691 4.96094 18.3594 5.20508 18.2031 5.37109L15.8887 7.70508L15.8887 12.2656C15.8887 12.6758 15.5566 12.9883 15.1562 12.9883C14.7559 12.9883 14.4238 12.6758 14.4238 12.2656L14.4238 9.16992L13.9258 9.66797L13.9258 13.7305C13.9258 14.1211 13.5938 14.4434 13.2031 14.4434L12.2949 14.4434C12.1973 14.4434 12.1191 14.541 12.1191 14.6289L12.1191 17.5684C11.7285 17.7441 11.3379 17.9297 10.9668 18.1738C10.3418 17.0996 9.61914 16.2988 8.83789 15.7129Z" fill="var(--color-primary)"/>
 </g>
</svg>
