<?xml version="1.0" encoding="UTF-8"?>
<!--Generator: Apple Native CoreSVG 341-->
<!DOCTYPE svg
PUBLIC "-//W3C//DTD SVG 1.1//EN"
       "http://www.w3.org/Graphics/SVG/1.1/DTD/svg11.dtd">
<svg version="1.1" xmlns="http://www.w3.org/2000/svg" xmlns:xlink="http://www.w3.org/1999/xlink" viewBox="0 0 25.8008 25.459">
 <g>
  <rect height="25.459" opacity="0" width="25.8008" x="0" y="0"/>
  <path d="M12.7148 25.459C19.7266 25.459 25.4395 19.7461 25.4395 12.7344C25.4395 5.73242 19.7266 0.0195312 12.7148 0.0195312C5.71289 0.0195312 0 5.73242 0 12.7344C0 19.7461 5.71289 25.459 12.7148 25.459Z" fill="white" fill-opacity="0.2125"/>
  <path d="M9.24805 5.99609L9.24805 5.72266C9.24805 4.81445 9.69727 4.35547 10.5957 4.35547L14.8242 4.35547C15.7324 4.35547 16.1816 4.81445 16.1816 5.72266L16.1816 5.99609ZM12.041 21.123C11.1914 21.123 10.7129 20.6348 10.7129 19.7461L10.7129 11.5625C10.7129 10.7617 10.5273 10.2246 10.2441 9.78516L9.83398 9.14062C9.48242 8.60352 9.24805 8.125 9.24805 7.4707L9.24805 6.75781L16.1816 6.75781L16.1816 7.4707C16.1816 8.125 15.957 8.60352 15.5957 9.14062L15.1855 9.78516C14.8926 10.2246 14.7266 10.7617 14.7266 11.5625L14.7266 19.7461C14.7266 20.6348 14.248 21.123 13.3887 21.123ZM11.4844 14.3066C11.4844 15 12.0117 15.5371 12.7148 15.5371C13.4082 15.5371 13.9551 15 13.9551 14.3066L13.9551 12.1973C13.9551 11.5234 13.4082 10.9668 12.7148 10.9668C12.0117 10.9668 11.4844 11.5234 11.4844 12.1973ZM12.7148 11.4062C13.1836 11.4062 13.5059 11.7676 13.5059 12.1973C13.5059 12.6465 13.1641 13.0078 12.7148 13.0078C12.2754 13.0078 11.9238 12.6465 11.9238 12.1973C11.9238 11.7676 12.2656 11.4062 12.7148 11.4062Z" fill="white" fill-opacity="0.85"/>
 </g>
</svg>
