<svg version="1.1" xmlns="http://www.w3.org/2000/svg" xmlns:xlink="http://www.w3.org/1999/xlink" viewBox="0 0 27.9395 26.5527">
 <g>
  <rect height="26.5527" opacity="0" width="27.9395" x="0" y="0"/>
  <path d="M1.5332 25.3223L26.0449 25.3223L26.0449 23.9258C26.0449 23.5059 25.791 23.252 25.3613 23.252L24.5605 23.252L24.5605 8.33984L25.6934 8.33984C26.2891 8.33984 26.6211 7.91992 26.6211 7.48047C26.6211 7.1582 26.4453 6.875 26.0547 6.65039L15.2637 0.419922C14.7852 0.146484 14.2773 0 13.7891 0C13.3008 0 12.7832 0.146484 12.3145 0.419922L1.52344 6.65039C1.12305 6.875 0.957031 7.1582 0.957031 7.48047C0.957031 7.91992 1.28906 8.33984 1.88477 8.33984L3.02734 8.33984L3.02734 23.252L2.22656 23.252C1.78711 23.252 1.5332 23.5059 1.5332 23.9258ZM0.869141 26.5332L26.709 26.5332C27.1875 26.5332 27.5781 26.1426 27.5781 25.6738C27.5781 25.1953 27.1875 24.8047 26.709 24.8047L0.869141 24.8047C0.390625 24.8047 0 25.1953 0 25.6738C0 26.1426 0.390625 26.5332 0.869141 26.5332Z" fill="var(--color-tertiary)"/>
  <path d="M11.6797 20.2637C11.2695 20.2637 10.9863 19.9805 10.9863 19.5703L10.9863 18.1055L9.74609 18.1055C9.53125 18.1055 9.35547 17.9395 9.35547 17.7148C9.35547 17.5 9.53125 17.3242 9.74609 17.3242L10.9863 17.3242L10.9863 9.4043C10.9863 8.96484 11.25 8.70117 11.6797 8.70117L17.168 8.70117C17.5195 8.70117 17.7832 8.95508 17.7832 9.29688C17.7832 9.63867 17.5195 9.89258 17.168 9.89258L12.3535 9.89258L12.3535 13.75L16.7188 13.75C17.0605 13.75 17.3242 14.0039 17.3242 14.3262C17.3242 14.668 17.0605 14.9219 16.7188 14.9219L12.3535 14.9219L12.3535 17.3242L15.1855 17.3242C15.4102 17.3242 15.5762 17.5 15.5762 17.7148C15.5762 17.9395 15.4102 18.1055 15.1855 18.1055L12.3535 18.1055L12.3535 19.5703C12.3535 19.9805 12.0703 20.2637 11.6797 20.2637Z" fill="var(--color-primary)"/>
 </g>
</svg>
