<svg version="1.1" xmlns="http://www.w3.org/2000/svg" xmlns:xlink="http://www.w3.org/1999/xlink" viewBox="0 0 25.8008 25.459">
 <g>
  <rect height="25.459" opacity="0" width="25.8008" x="0" y="0"/>
  <path d="M12.7148 25.459C19.7266 25.459 25.4395 19.7461 25.4395 12.7344C25.4395 5.73242 19.7266 0.0195312 12.7148 0.0195312C5.71289 0.0195312 0 5.73242 0 12.7344C0 19.7461 5.71289 25.459 12.7148 25.459Z" fill="var(--color-tertiary)"/>
  <path d="M6.41602 17.3926C5.10742 17.3926 4.22852 16.5234 4.22852 15.1855C4.22852 14.6094 4.38477 13.9453 4.59961 13.1641C4.9707 11.9727 5.60547 10.3125 6.2207 9.02344C6.71875 7.97852 6.96289 7.51953 8.17383 7.25586C9.30664 6.99219 10.8594 6.83594 12.7051 6.83594C14.5605 6.83594 16.1035 6.99219 17.2363 7.25586C18.457 7.51953 18.7012 7.97852 19.1992 9.02344C19.8145 10.3125 20.4395 11.9727 20.8105 13.1641C21.0352 13.9453 21.1816 14.6094 21.1816 15.1855C21.1816 16.5234 20.3125 17.3926 18.9941 17.3926C18.2422 17.3926 17.6758 17.1094 17.1973 16.5137L16.1035 15.1855C15.9473 15 15.7812 14.9121 15.5762 14.9121L9.83398 14.9121C9.63867 14.9121 9.47266 15 9.30664 15.1855L8.21289 16.5137C7.73438 17.1094 7.17773 17.3926 6.41602 17.3926ZM7.7832 10.9082C7.7832 11.2109 7.96875 11.4062 8.27148 11.4062L9.41406 11.4062L9.41406 12.5586C9.41406 12.8516 9.58984 13.0273 9.87305 13.0273C10.1562 13.0273 10.3418 12.8516 10.3418 12.5586L10.3418 11.4062L11.4453 11.4062C11.7578 11.4062 11.9531 11.2109 11.9531 10.9082C11.9531 10.625 11.7578 10.4395 11.4453 10.4395L10.3418 10.4395L10.3418 9.29688C10.3418 9.00391 10.1562 8.80859 9.87305 8.80859C9.58984 8.80859 9.41406 9.00391 9.41406 9.29688L9.41406 10.4395L8.27148 10.4395C7.96875 10.4395 7.7832 10.625 7.7832 10.9082ZM16.4648 10.8203C16.9336 10.8203 17.3047 10.4492 17.3047 9.9707C17.3047 9.51172 16.9336 9.14062 16.4648 9.14062C16.0059 9.14062 15.6152 9.51172 15.6152 9.9707C15.6152 10.4492 16.0059 10.8203 16.4648 10.8203ZM14.6387 12.627C15.1074 12.627 15.4883 12.2559 15.4883 11.7871C15.4883 11.3184 15.1074 10.9473 14.6387 10.9473C14.1797 10.9473 13.7988 11.3184 13.7988 11.7871C13.7988 12.2559 14.1797 12.627 14.6387 12.627Z" fill="var(--color-primary)"/>
 </g>
</svg>
