<?xml version="1.0" encoding="UTF-8"?>
<!--Generator: Apple Native CoreSVG 341-->
<!DOCTYPE svg
PUBLIC "-//W3C//DTD SVG 1.1//EN"
       "http://www.w3.org/Graphics/SVG/1.1/DTD/svg11.dtd">
<svg version="1.1" xmlns="http://www.w3.org/2000/svg" xmlns:xlink="http://www.w3.org/1999/xlink" viewBox="0 0 34.645 28.3559">
 <g>
  <rect height="28.3559" opacity="0" width="34.645" x="0" y="0"/>
  <path d="M3.22581 16.0774C3.22581 19.6907 4.63206 23.0012 6.94651 25.5012C7.45433 26.0578 8.29417 26.1848 8.968 25.511L11.1555 23.3332C11.5071 23.0012 11.5071 22.4348 11.1555 22.0832C10.8039 21.7317 10.2278 21.7414 9.9055 22.0832L8.04026 23.9387C6.21409 21.8391 5.11058 19.095 5.11058 16.0774C5.11058 9.39769 10.4621 4.02659 17.1418 4.02659C23.8215 4.02659 29.1731 9.39769 29.1731 16.0774C29.1731 19.095 28.0696 21.8391 26.2434 23.9387L24.3782 22.0832C24.0461 21.7317 23.4797 21.7317 23.1282 22.0832C22.7864 22.4348 22.7766 23.0012 23.1282 23.3332L25.3059 25.511C25.9797 26.1848 26.8293 26.0578 27.3274 25.5012C29.6516 23.0012 31.0578 19.6907 31.0578 16.0774C31.0578 8.46019 24.759 2.15159 17.1418 2.15159C9.52464 2.15159 3.22581 8.46019 3.22581 16.0774ZM7.77659 15.1789L4.23167 15.1789L4.23167 16.966L7.77659 16.966C8.26487 16.966 8.66526 16.5657 8.66526 16.0774C8.66526 15.5989 8.26487 15.1789 7.77659 15.1789ZM16.2532 6.68284C16.2532 7.17112 16.6535 7.58128 17.1418 7.58128C17.6203 7.58128 18.0305 7.17112 18.0305 6.68284L18.0305 3.14769L16.2532 3.14769ZM23.1575 8.81175C22.8157 9.13401 22.8157 9.71995 23.1575 10.0617C23.509 10.4133 24.0852 10.4035 24.4172 10.0617L26.927 7.55198L25.677 6.30198ZM26.5364 15.1789C26.0578 15.1789 25.6477 15.5989 25.6477 16.0774C25.6477 16.5657 26.0578 16.966 26.5364 16.966L30.0813 16.966L30.0813 15.1789Z" fill="white" fill-opacity="0.85"/>
  <path d="M15.677 17.7278C16.5266 18.5774 17.7668 18.5774 18.6067 17.7278C19.4563 16.8977 19.4563 15.6575 18.6067 14.8078C18.4602 14.6516 18.1477 14.4172 17.9426 14.2805L11.175 9.49534C10.8918 9.29026 10.5989 9.34886 10.4035 9.52464C10.218 9.71995 10.1692 10.0032 10.3742 10.3059L15.1594 17.0637C15.2961 17.2688 15.5305 17.591 15.677 17.7278Z" fill="white" fill-opacity="0.85"/>
  <path d="M3.80198 0.208233L0.208233 3.80198C-0.201923 4.21214 0.0422175 4.70042 0.520733 4.79808L4.98362 5.74534C5.51097 5.85276 5.85276 5.49144 5.74534 4.98362L4.79808 0.520733C4.70042 0.0422175 4.21214-0.201923 3.80198 0.208233Z" fill="white" fill-opacity="0.85"/>
 </g>
</svg>
