<?xml version="1.0" encoding="UTF-8"?>
<!--Generator: Apple Native CoreSVG 341-->
<!DOCTYPE svg
PUBLIC "-//W3C//DTD SVG 1.1//EN"
       "http://www.w3.org/Graphics/SVG/1.1/DTD/svg11.dtd">
<svg version="1.1" xmlns="http://www.w3.org/2000/svg" xmlns:xlink="http://www.w3.org/1999/xlink" viewBox="0 0 26.1893 23.1613">
 <g>
  <rect height="23.1613" opacity="0" width="26.1893" x="0" y="0"/>
  <path d="M2.06926 21.8297C2.06926 22.3766 1.62004 22.816 1.08293 22.816C0.536058 22.816 0.0966052 22.3766 0.0966052 21.8297C0.0966052 21.2926 0.536058 20.8434 1.08293 20.8434C1.62004 20.8434 2.06926 21.2926 2.06926 21.8297ZM25.7216 21.8297C25.7216 22.3766 25.2724 22.816 24.7255 22.816C24.1884 22.816 23.7392 22.3766 23.7392 21.8297C23.7392 21.2926 24.1884 20.8434 24.7255 20.8434C25.2724 20.8434 25.7216 21.2926 25.7216 21.8297ZM5.11614 20.0816C5.11614 20.6188 4.66692 21.068 4.12981 21.068C3.58293 21.068 3.14348 20.6188 3.14348 20.0816C3.14348 19.5348 3.58293 19.0953 4.12981 19.0953C4.66692 19.0953 5.11614 19.5348 5.11614 20.0816ZM22.6747 20.0816C22.6747 20.6188 22.2255 21.068 21.6786 21.068C21.1415 21.068 20.6923 20.6188 20.6923 20.0816C20.6923 19.5348 21.1415 19.0953 21.6786 19.0953C22.2255 19.0953 22.6747 19.5348 22.6747 20.0816ZM13.8954 4.5543C13.8954 5.10117 13.4462 5.55039 12.9091 5.55039C12.372 5.55039 11.9228 5.10117 11.9228 4.5543C11.9228 4.01719 12.372 3.56797 12.9091 3.56797C13.4462 3.56797 13.8954 4.01719 13.8954 4.5543ZM13.8954 1.04844C13.8954 1.59532 13.4462 2.03477 12.9091 2.03477C12.372 2.03477 11.9228 1.59532 11.9228 1.04844C11.9228 0.511331 12.372 0.0621123 12.9091 0.0621123C13.4462 0.0621123 13.8954 0.511331 13.8954 1.04844Z" fill="white" fill-opacity="0.425"/>
  <path d="M11.581 21.2047C12.5087 21.732 13.329 21.7223 14.247 21.2047L23.456 15.8824C24.5888 15.2281 24.4911 14.0074 23.4657 13.4117L14.247 8.07969C13.329 7.56211 12.5087 7.55235 11.581 8.07969L2.372 13.4117C1.31731 14.027 1.23918 15.2184 2.38176 15.8824ZM12.2353 19.9254L3.68059 14.984C3.31926 14.7789 3.31926 14.4762 3.68059 14.2809L12.2353 9.35899C12.7138 9.08555 13.1044 9.08555 13.5829 9.35899L22.1572 14.2809C22.4989 14.4664 22.5087 14.7984 22.1572 14.984L13.5829 19.9254C13.1044 20.1988 12.7138 20.1988 12.2353 19.9254ZM8.22161 18.0797L18.915 11.6344L17.7529 10.6871L6.97161 17.1715ZM17.8993 18.0309L19.3056 17.2203L8.32903 10.9703L7.13762 11.9078Z" fill="white" fill-opacity="0.85"/>
 </g>
</svg>
