<?xml version="1.0" encoding="UTF-8"?>
<!--Generator: Apple Native CoreSVG 341-->
<!DOCTYPE svg
PUBLIC "-//W3C//DTD SVG 1.1//EN"
       "http://www.w3.org/Graphics/SVG/1.1/DTD/svg11.dtd">
<svg version="1.1" xmlns="http://www.w3.org/2000/svg" xmlns:xlink="http://www.w3.org/1999/xlink" viewBox="0 0 23.3887 23.0371">
 <g>
  <rect height="23.0371" opacity="0" width="23.3887" x="0" y="0"/>
  <path d="M12.5 22.0312C12.5 22.5781 12.0508 23.0176 11.5137 23.0176C10.9668 23.0176 10.5176 22.5781 10.5176 22.0312C10.5176 21.4941 10.9668 21.0449 11.5137 21.0449C12.0508 21.0449 12.5 21.4941 12.5 22.0312ZM12.5 18.5254C12.5 19.0625 12.0508 19.5117 11.5137 19.5117C10.9668 19.5117 10.5176 19.0625 10.5176 18.5254C10.5176 17.9883 10.9668 17.5391 11.5137 17.5391C12.0508 17.5391 12.5 17.9883 12.5 18.5254ZM12.5 15.0195C12.5 15.5566 12.0508 16.0059 11.5137 16.0059C11.0771 16.0059 10.7028 15.7196 10.5703 15.3306C10.7945 14.9311 11.0157 14.5109 11.2358 14.073C11.3239 14.0469 11.4173 14.0332 11.5137 14.0332C12.0508 14.0332 12.5 14.4727 12.5 15.0195ZM23.0273 11.5137C23.0273 12.0508 22.5781 12.5 22.0312 12.5C21.4941 12.5 21.0449 12.0508 21.0449 11.5137C21.0449 10.9668 21.4941 10.5176 22.0312 10.5176C22.5781 10.5176 23.0273 10.9668 23.0273 11.5137ZM1.98242 11.5137C1.98242 12.0508 1.5332 12.5 0.986328 12.5C0.449219 12.5 0 12.0508 0 11.5137C0 10.9668 0.449219 10.5176 0.986328 10.5176C1.5332 10.5176 1.98242 10.9668 1.98242 11.5137ZM5.48828 11.5137C5.48828 12.0508 5.03906 12.5 4.49219 12.5C3.95508 12.5 3.50586 12.0508 3.50586 11.5137C3.50586 10.9668 3.95508 10.5176 4.49219 10.5176C5.03906 10.5176 5.48828 10.9668 5.48828 11.5137ZM8.99414 11.5137C8.99414 12.0508 8.54492 12.5 8.00781 12.5C7.46094 12.5 7.01172 12.0508 7.01172 11.5137C7.01172 10.9668 7.46094 10.5176 8.00781 10.5176C8.54492 10.5176 8.99414 10.9668 8.99414 11.5137ZM16.0059 11.5137C16.0059 12.0508 15.5566 12.5 15.0195 12.5C14.4727 12.5 14.0332 12.0508 14.0332 11.5137C14.0332 10.9668 14.4727 10.5176 15.0195 10.5176C15.5566 10.5176 16.0059 10.9668 16.0059 11.5137ZM19.5117 11.5137C19.5117 12.0508 19.0723 12.5 18.5254 12.5C17.9883 12.5 17.5391 12.0508 17.5391 11.5137C17.5391 10.9668 17.9883 10.5176 18.5254 10.5176C19.0723 10.5176 19.5117 10.9668 19.5117 11.5137ZM12.5 11.5137C12.5 11.8431 12.331 12.1394 12.076 12.3188C12.1487 12.1682 12.2217 12.0078 12.2949 11.8457C12.3619 11.6973 12.4286 11.5505 12.4947 11.4116C12.4982 11.4452 12.5 11.4792 12.5 11.5137ZM10.7227 11.1328L10.5206 11.5725C10.5182 11.5532 10.5176 11.5335 10.5176 11.5137C10.5176 11.1923 10.6727 10.9047 10.9123 10.723ZM12.4375 7.66519C12.2072 8.07673 11.9801 8.50953 11.754 8.96231C11.6771 8.98347 11.5965 8.99414 11.5137 8.99414C10.9668 8.99414 10.5176 8.54492 10.5176 8.00781C10.5176 7.46094 10.9668 7.01172 11.5137 7.01172C11.9326 7.01172 12.298 7.28497 12.4375 7.66519ZM12.5 4.49219C12.5 5.03906 12.0508 5.48828 11.5137 5.48828C10.9668 5.48828 10.5176 5.03906 10.5176 4.49219C10.5176 3.95508 10.9668 3.50586 11.5137 3.50586C12.0508 3.50586 12.5 3.95508 12.5 4.49219ZM12.5 0.986328C12.5 1.5332 12.0508 1.97266 11.5137 1.97266C10.9668 1.97266 10.5176 1.5332 10.5176 0.986328C10.5176 0.449219 10.9668 0 11.5137 0C12.0508 0 12.5 0.449219 12.5 0.986328Z" fill="white" fill-opacity="0.425"/>
  <path d="M0.869141 21.0938C0.410156 21.1719 0.078125 21.6309 0.146484 22.0898C0.234375 22.5488 0.683594 22.8809 1.14258 22.8027C6.69922 21.8848 9.39453 18.2715 12.2949 11.8457C14.8633 6.15234 17.1582 2.71484 22.1484 1.89453C22.6172 1.81641 22.9395 1.35742 22.8711 0.898438C22.7832 0.439453 22.334 0.107422 21.875 0.185547C16.3184 1.09375 13.623 4.70703 10.7227 11.1328C8.1543 16.8359 5.85938 20.2734 0.869141 21.0938Z" fill="white" fill-opacity="0.85"/>
 </g>
</svg>
