<?xml version="1.0" encoding="UTF-8"?>
<!--Generator: Apple Native CoreSVG 341-->
<!DOCTYPE svg
PUBLIC "-//W3C//DTD SVG 1.1//EN"
       "http://www.w3.org/Graphics/SVG/1.1/DTD/svg11.dtd">
<svg version="1.1" xmlns="http://www.w3.org/2000/svg" xmlns:xlink="http://www.w3.org/1999/xlink" viewBox="0 0 25.8008 25.459">
 <g>
  <rect height="25.459" opacity="0" width="25.8008" x="0" y="0"/>
  <path d="M12.7148 25.4395C19.7266 25.4395 25.4395 19.7266 25.4395 12.7246C25.4395 5.71289 19.7266 0 12.7148 0C5.71289 0 0 5.71289 0 12.7246C0 19.7266 5.71289 25.4395 12.7148 25.4395Z" fill="white" fill-opacity="0.2125"/>
  <path d="M17.4512 18.0859C17.4512 18.4961 17.0898 18.8867 16.6211 18.8867L9.14062 18.8867C8.68164 18.8867 8.32031 18.4961 8.32031 18.0859C8.32031 17.6367 8.68164 17.2656 9.14062 17.2656L16.6211 17.2656C17.0898 17.2656 17.4512 17.6367 17.4512 18.0859ZM9.54102 15.0879C9.04297 15.0879 8.70117 14.6875 8.70117 14.2676C8.70117 13.9355 8.89648 13.623 9.22852 13.4863L14.9219 10.918L14.9219 10.8691L9.22852 8.32031C8.89648 8.1543 8.70117 7.85156 8.70117 7.51953C8.70117 7.09961 9.04297 6.71875 9.54102 6.71875C9.67773 6.71875 9.80469 6.74805 10.0586 6.85547L16.6113 9.84375C17.1387 10.0879 17.334 10.459 17.334 10.8887C17.334 11.377 17.1484 11.7188 16.6113 11.9434L10.0586 14.9219C9.80469 15.0488 9.67773 15.0879 9.54102 15.0879Z" fill="white" fill-opacity="0.85"/>
 </g>
</svg>
