<?xml version="1.0" encoding="UTF-8"?>
<!--Generator: Apple Native CoreSVG 341-->
<!DOCTYPE svg
PUBLIC "-//W3C//DTD SVG 1.1//EN"
       "http://www.w3.org/Graphics/SVG/1.1/DTD/svg11.dtd">
<svg version="1.1" xmlns="http://www.w3.org/2000/svg" xmlns:xlink="http://www.w3.org/1999/xlink" viewBox="0 0 23.3203 22.959">
 <g>
  <rect height="22.959" opacity="0" width="23.3203" x="0" y="0"/>
  <path d="M3.79883 22.959L19.1504 22.959C21.6797 22.959 22.959 21.6797 22.959 19.1992L22.959 3.76953C22.959 1.2793 21.6797 0 19.1504 0L3.79883 0C1.2793 0 0 1.26953 0 3.76953L0 19.1992C0 21.6992 1.2793 22.959 3.79883 22.959Z" fill="white" fill-opacity="0.2125"/>
  <path d="M16.2207 16.8359C16.2207 17.2461 15.8594 17.6367 15.3906 17.6367L7.91016 17.6367C7.45117 17.6367 7.08008 17.2461 7.08008 16.8359C7.08008 16.3867 7.45117 16.0156 7.91016 16.0156L15.3906 16.0156C15.8594 16.0156 16.2207 16.3867 16.2207 16.8359ZM8.31055 13.8379C7.8125 13.8379 7.4707 13.4375 7.4707 13.0176C7.4707 12.6855 7.65625 12.373 7.99805 12.2363L13.6914 9.66797L13.6914 9.61914L7.99805 7.07031C7.65625 6.9043 7.4707 6.60156 7.4707 6.26953C7.4707 5.84961 7.8125 5.46875 8.31055 5.46875C8.44727 5.46875 8.57422 5.49805 8.82812 5.60547L15.3809 8.59375C15.9082 8.83789 16.0938 9.20898 16.0938 9.63867C16.0938 10.127 15.918 10.4688 15.3809 10.6934L8.82812 13.6719C8.57422 13.7988 8.44727 13.8379 8.31055 13.8379Z" fill="white" fill-opacity="0.85"/>
 </g>
</svg>
