<?xml version="1.0" encoding="UTF-8"?>
<!--Generator: Apple Native CoreSVG 341-->
<!DOCTYPE svg
PUBLIC "-//W3C//DTD SVG 1.1//EN"
       "http://www.w3.org/Graphics/SVG/1.1/DTD/svg11.dtd">
<svg version="1.1" xmlns="http://www.w3.org/2000/svg" xmlns:xlink="http://www.w3.org/1999/xlink" viewBox="0 0 25.8008 25.459">
 <g>
  <rect height="25.459" opacity="0" width="25.8008" x="0" y="0"/>
  <path d="M12.7148 25.4395C19.7266 25.4395 25.4395 19.7266 25.4395 12.7246C25.4395 5.71289 19.7266 0 12.7148 0C5.71289 0 0 5.71289 0 12.7246C0 19.7266 5.71289 25.4395 12.7148 25.4395Z" fill="white" fill-opacity="0.2125"/>
  <path d="M9.43359 17.8516C8.89648 17.8516 8.50586 17.4609 8.50586 16.9531C8.50586 16.5332 8.70117 16.2695 9.16016 16.0547L15.7715 12.7344L15.7715 12.6562L9.16016 9.28711C8.71094 9.0625 8.50586 8.78906 8.50586 8.36914C8.50586 7.87109 8.88672 7.49023 9.41406 7.49023C9.6582 7.49023 9.79492 7.53906 9.98047 7.62695L17.5684 11.7383C18.0078 11.9824 18.2227 12.3047 18.2227 12.7246C18.2227 13.1934 18.0273 13.4766 17.5684 13.7109L9.98047 17.7051C9.80469 17.793 9.6582 17.8516 9.43359 17.8516Z" fill="white" fill-opacity="0.85"/>
 </g>
</svg>
