<?xml version="1.0" encoding="UTF-8"?>
<!--Generator: Apple Native CoreSVG 341-->
<!DOCTYPE svg
PUBLIC "-//W3C//DTD SVG 1.1//EN"
       "http://www.w3.org/Graphics/SVG/1.1/DTD/svg11.dtd">
<svg version="1.1" xmlns="http://www.w3.org/2000/svg" xmlns:xlink="http://www.w3.org/1999/xlink" viewBox="0 0 25.8008 25.459">
 <g>
  <rect height="25.459" opacity="0" width="25.8008" x="0" y="0"/>
  <path d="M12.7148 25.4395C19.7363 25.4395 25.4395 19.7461 25.4395 12.7246C25.4395 5.70312 19.7363 0 12.7148 0C5.69336 0 0 5.70312 0 12.7246C0 19.7461 5.69336 25.4395 12.7148 25.4395ZM12.7148 23.623C6.68945 23.623 1.81641 18.75 1.81641 12.7246C1.81641 6.69922 6.68945 1.82617 12.7148 1.82617C18.7402 1.82617 23.6133 6.69922 23.6133 12.7246C23.6133 18.75 18.7402 23.623 12.7148 23.623Z" fill="white" fill-opacity="0.85"/>
  <path d="M19.2285 12.2656C19.4238 12.4609 19.6582 12.4805 19.8633 12.2656L21.4941 10.6348C21.6895 10.4395 21.6797 10.2051 21.4844 10.0098L21.0742 9.60938C20.8496 9.38477 20.7227 9.35547 20.459 9.375L19.9121 9.41406L19.4629 8.97461L19.6387 8.26172C19.7266 7.89062 19.5996 7.5293 19.2383 7.16797L17.9297 5.87891C16.5723 4.52148 13.6328 4.59961 12.4316 5.89844C12.1875 6.16211 12.2168 6.41602 12.373 6.60156C12.4805 6.71875 12.6855 6.80664 12.8613 6.72852C13.8672 6.25977 14.8828 6.15234 15.752 6.57227L15.1953 7.97852C15.0098 8.41797 15.1172 8.70117 15.3906 8.99414L16.6113 10.2246C16.8262 10.4297 17.0215 10.4785 17.3633 10.4102L18.1934 10.2539L18.6523 10.6934L18.5938 11.2402C18.5742 11.5234 18.5938 11.6406 18.8281 11.8848ZM5.97656 18.7207L6.74805 19.4727C7.26562 19.9902 7.90039 19.9414 8.4082 19.3555L16.0938 10.6934C16.0547 10.6641 16.0254 10.6348 15.9961 10.5957L14.9414 9.54102C14.9023 9.51172 14.8633 9.47266 14.8242 9.42383L6.12305 17.0703C5.53711 17.5879 5.49805 18.2227 5.97656 18.7207Z" fill="white" fill-opacity="0.85"/>
 </g>
</svg>
