<svg version="1.1" xmlns="http://www.w3.org/2000/svg" xmlns:xlink="http://www.w3.org/1999/xlink" viewBox="0 0 44.3652 21.6699">
 <g>
  <rect height="21.6699" opacity="0" width="44.3652" x="0" y="0"/>
  <path d="M4.63867 19.2969C4.9707 18.9062 4.86328 18.3984 4.48242 17.9688C2.74414 16.0742 1.74805 13.584 1.74805 10.8301C1.74805 8.06641 2.74414 5.57617 4.48242 3.68164C4.86328 3.25195 4.9707 2.74414 4.63867 2.36328C4.28711 1.96289 3.69141 1.96289 3.28125 2.41211C1.19141 4.63867 0 7.59766 0 10.8301C0 14.0527 1.19141 17.0215 3.28125 19.2383C3.69141 19.6875 4.28711 19.6973 4.63867 19.2969ZM39.3652 19.2969C39.707 19.6973 40.3125 19.6875 40.7227 19.2383C42.8027 17.0215 44.0039 14.0527 44.0039 10.8301C44.0039 7.59766 42.8027 4.63867 40.7227 2.41211C40.3125 1.96289 39.707 1.96289 39.3652 2.36328C39.0234 2.74414 39.1309 3.25195 39.5215 3.68164C41.2598 5.57617 42.2559 8.06641 42.2559 10.8301C42.2559 13.584 41.2598 16.0742 39.5215 17.9688C39.1309 18.3984 39.0234 18.9062 39.3652 19.2969Z" fill="var(--color-secondary)"/>
  <path d="M8.125 15.7422C8.4668 15.3516 8.32031 14.8633 7.97852 14.4141C7.14844 13.4668 6.74805 12.1973 6.74805 10.8301C6.74805 9.46289 7.14844 8.18359 7.97852 7.23633C8.32031 6.78711 8.4668 6.29883 8.125 5.91797C7.76367 5.51758 7.12891 5.50781 6.74805 5.98633C5.63477 7.30469 5 9.00391 5 10.8301C5 12.6562 5.63477 14.3457 6.74805 15.6641C7.12891 16.1426 7.76367 16.1426 8.125 15.7422ZM35.8789 15.7422C36.2305 16.1426 36.875 16.1426 37.2559 15.6641C38.3691 14.3457 39.0039 12.6562 39.0039 10.8301C39.0039 9.00391 38.3691 7.30469 37.2559 5.98633C36.875 5.50781 36.2305 5.51758 35.8789 5.91797C35.5371 6.29883 35.6836 6.78711 36.0254 7.23633C36.8457 8.18359 37.2559 9.46289 37.2559 10.8301C37.2559 12.1973 36.8457 13.4668 36.0254 14.4141C35.6836 14.8633 35.5371 15.3516 35.8789 15.7422Z" fill="var(--color-secondary)"/>
  <path d="M22.002 21.6504C27.9785 21.6504 32.832 16.8066 32.832 10.8301C32.832 4.84375 27.9785 0 22.002 0C16.0156 0 11.1719 4.84375 11.1719 10.8301C11.1719 16.8066 16.0156 21.6504 22.002 21.6504ZM22.002 19.9219C16.9727 19.9219 12.9004 15.8496 12.9004 10.8301C12.9004 5.80078 16.9727 1.72852 22.002 1.72852C27.0215 1.72852 31.0938 5.80078 31.0938 10.8301C31.0938 15.8496 27.0215 19.9219 22.002 19.9219Z" fill="var(--color-primary)"/>
  <path d="M18.5352 8.51562L19.3652 8.51562L19.3652 7.71484C19.3652 6.2793 20.4785 5.22461 21.9727 5.22461C23.4668 5.22461 24.5801 6.2793 24.5801 7.71484L24.5801 8.51562L25.4199 8.51562L25.4199 7.71484C25.4199 5.80078 23.9453 4.39453 21.9727 4.39453C20.0098 4.39453 18.5352 5.80078 18.5352 7.71484ZM21.9727 11.0742C23.8281 11.0742 25.4492 10.3516 26.3184 8.45703C26.1035 8.34961 25.8398 8.30078 25.5273 8.30078L18.418 8.30078C18.1055 8.30078 17.8516 8.34961 17.627 8.45703C18.5059 10.3516 20.127 11.0742 21.9727 11.0742ZM27.627 13.877L27.1484 9.75586C27.1094 9.46289 27.0312 9.22852 26.8945 9.04297C26.0352 10.7227 24.6191 11.5625 23.0762 11.8262L23.0762 12.1875C23.0762 12.5684 22.8418 12.8027 22.4707 12.8027L21.4746 12.8027C21.1035 12.8027 20.8789 12.5684 20.8789 12.1875L20.8789 11.8262C19.3262 11.5625 17.9102 10.7227 17.0508 9.04297C16.9238 9.22852 16.8359 9.46289 16.8066 9.75586L16.3281 13.877C16.1621 15.2832 16.7676 16.0254 18.0859 16.0254L25.8691 16.0254C27.1777 16.0254 27.793 15.2832 27.627 13.877Z" fill="var(--color-primary)"/>
 </g>
</svg>
