<?xml version="1.0" encoding="UTF-8"?>
<!--Generator: Apple Native CoreSVG 341-->
<!DOCTYPE svg
PUBLIC "-//W3C//DTD SVG 1.1//EN"
       "http://www.w3.org/Graphics/SVG/1.1/DTD/svg11.dtd">
<svg version="1.1" xmlns="http://www.w3.org/2000/svg" xmlns:xlink="http://www.w3.org/1999/xlink" viewBox="0 0 30.3565 32.1534">
 <g>
  <rect height="32.1534" opacity="0" width="30.3565" x="0" y="0"/>
  <path d="M10.4943 15.4007C9.63042 16.9145 9.29445 18.3309 9.29445 20.2905C9.29445 24.3433 12.7027 27.2534 17.7905 27.2534L19.3335 27.2534C20.4948 27.2534 21.48 27.2041 22.1783 27.0747L23.4768 28.3721C23.2972 28.4427 23.1072 28.503 22.9077 28.5523C22.0679 28.7671 20.8081 28.8452 19.3238 28.8452L17.6831 28.8452C15.603 28.8452 13.7476 28.3765 12.2144 27.5757L8.30813 27.5757C5.21242 27.5757 2.6343 24.2945 2.6343 20.3296C2.6343 16.2866 4.97805 13.0445 7.85891 13.0445L8.13598 13.0445ZM7.85891 14.646C5.95461 14.646 4.23586 17.1753 4.23586 20.3296C4.23586 23.4155 6.14016 25.9644 8.30813 25.9644C8.90383 25.9644 9.48977 25.9644 10.0855 25.9644C8.55227 24.5093 7.69289 22.5366 7.69289 20.2613C7.69289 18.1128 8.10305 16.3745 9.06985 14.646C8.66945 14.646 8.2593 14.646 7.85891 14.646ZM21.2866 5.06594C21.2866 7.44875 19.2652 10.4468 19.2652 11.7652C19.2652 12.0874 19.5093 12.2632 19.9097 12.2632L24.353 12.2632C26.0425 12.2632 27.3706 13.6109 27.3706 15.3101C27.3706 16.0327 27.1558 16.6968 26.8042 17.1558C27.0581 17.5659 27.2144 18.1714 27.2144 18.7476C27.2144 19.6167 26.8823 20.437 26.3159 20.9546C26.5113 21.3452 26.6187 21.8433 26.6187 22.3413C26.6187 23.1446 26.3078 23.8766 25.7439 24.437L24.6202 23.3138C24.8855 23.0277 25.0171 22.7064 25.0171 22.3413C25.0171 21.9019 24.8706 21.6187 24.5874 21.1109C24.3921 20.7398 24.5093 20.4273 24.8218 20.2027C25.3394 19.812 25.6128 19.3238 25.6128 18.7476C25.6128 18.2691 25.4468 17.898 25.0952 17.4097C24.8804 17.1655 24.9097 16.8823 25.1636 16.6773C25.5933 16.2476 25.7691 15.8765 25.7691 15.3101C25.7691 14.4898 25.1538 13.8648 24.353 13.8648L20.1148 13.8648C18.728 13.8648 17.6636 13.064 17.6636 11.7652C17.6636 9.92922 19.6851 7.01906 19.6851 5.06594C19.6851 4.37258 19.3042 3.97219 18.7476 3.97219C18.2788 3.97219 17.9859 4.1968 17.5269 5.105C16.24 7.67159 14.5898 9.87471 13.1007 11.7992L11.9859 10.6849C13.7862 8.33839 14.9729 6.5348 16.0913 4.37258C16.8335 2.95656 17.5757 2.37063 18.689 2.37063C20.2027 2.37063 21.2866 3.49367 21.2866 5.06594Z" fill="white" fill-opacity="0.425"/>
  <path d="M27.5757 30.5445C27.9077 30.8765 28.4351 30.8765 28.7573 30.5445C29.0796 30.2124 29.0796 29.6948 28.7573 29.3726L6.05227 6.67727C5.73977 6.355 5.20266 6.34524 4.87063 6.67727C4.54836 6.99953 4.54836 7.53664 4.87063 7.85891Z" fill="white" fill-opacity="0.85"/>
 </g>
</svg>
