<?xml version="1.0" encoding="UTF-8"?>
<!--Generator: Apple Native CoreSVG 341-->
<!DOCTYPE svg
PUBLIC "-//W3C//DTD SVG 1.1//EN"
       "http://www.w3.org/Graphics/SVG/1.1/DTD/svg11.dtd">
<svg version="1.1" xmlns="http://www.w3.org/2000/svg" xmlns:xlink="http://www.w3.org/1999/xlink" viewBox="0 0 44.3652 21.6699">
 <g>
  <rect height="21.6699" opacity="0" width="44.3652" x="0" y="0"/>
  <path d="M4.63867 2.36328C4.9707 2.74414 4.86328 3.25195 4.48242 3.68164C2.74414 5.57617 1.74805 8.06641 1.74805 10.8301C1.74805 13.584 2.74414 16.0742 4.48242 17.9688C4.86328 18.3984 4.9707 18.9062 4.63867 19.2969C4.28711 19.6973 3.69141 19.6875 3.28125 19.2383C1.19141 17.0215 0 14.0527 0 10.8301C0 7.59766 1.19141 4.63867 3.28125 2.41211C3.69141 1.96289 4.28711 1.96289 4.63867 2.36328ZM40.7227 2.41211C42.8027 4.63867 44.0039 7.59766 44.0039 10.8301C44.0039 14.0527 42.8027 17.0215 40.7227 19.2383C40.3125 19.6875 39.707 19.6973 39.3652 19.2969C39.0234 18.9062 39.1309 18.3984 39.5215 17.9688C41.2598 16.0742 42.2559 13.584 42.2559 10.8301C42.2559 8.06641 41.2598 5.57617 39.5215 3.68164C39.1309 3.25195 39.0234 2.74414 39.3652 2.36328C39.707 1.96289 40.3125 1.96289 40.7227 2.41211Z" fill="white" fill-opacity="0.85"/>
  <path d="M8.125 5.91797C8.4668 6.29883 8.32031 6.78711 7.97852 7.23633C7.14844 8.18359 6.74805 9.46289 6.74805 10.8301C6.74805 12.1973 7.14844 13.4668 7.97852 14.4141C8.32031 14.8633 8.4668 15.3516 8.125 15.7422C7.76367 16.1426 7.12891 16.1426 6.74805 15.6641C5.63477 14.3457 5 12.6562 5 10.8301C5 9.00391 5.63477 7.30469 6.74805 5.98633C7.12891 5.50781 7.76367 5.51758 8.125 5.91797ZM37.2559 5.98633C38.3691 7.30469 39.0039 9.00391 39.0039 10.8301C39.0039 12.6562 38.3691 14.3457 37.2559 15.6641C36.875 16.1426 36.2305 16.1426 35.8789 15.7422C35.5371 15.3516 35.6836 14.8633 36.0254 14.4141C36.8457 13.4668 37.2559 12.1973 37.2559 10.8301C37.2559 9.46289 36.8457 8.18359 36.0254 7.23633C35.6836 6.78711 35.5371 6.29883 35.8789 5.91797C36.2305 5.51758 36.875 5.50781 37.2559 5.98633Z" fill="white" fill-opacity="0.85"/>
  <path d="M32.832 10.8301C32.832 16.8066 27.9785 21.6504 22.002 21.6504C16.0156 21.6504 11.1719 16.8066 11.1719 10.8301C11.1719 4.84375 16.0156 0 22.002 0C27.9785 0 32.832 4.84375 32.832 10.8301ZM16.0645 10.8105C16.0645 12.8125 16.5527 14.4629 17.4023 15.9375C17.5781 16.25 17.9102 16.3867 18.2324 16.2988C18.5156 16.582 18.9355 16.6992 19.3848 16.543C20.0879 16.3477 20.4102 15.752 20.2051 15.0586L19.375 12.2852C19.1699 11.582 18.5742 11.2598 17.8711 11.4648C17.6953 11.5234 17.5293 11.6016 17.4023 11.6992C17.373 11.416 17.3633 11.123 17.3633 10.8105C17.3633 7.76367 19.2285 5.73242 22.0117 5.73242C24.8047 5.73242 26.6699 7.77344 26.6699 10.8105C26.6699 11.123 26.6602 11.4258 26.6309 11.7188C26.4941 11.6113 26.3379 11.5234 26.1426 11.4648C25.4492 11.2598 24.8535 11.582 24.6484 12.2852L23.8184 15.0684C23.6133 15.7617 23.9355 16.3477 24.6387 16.543C25.0977 16.6895 25.5078 16.582 25.791 16.2988C26.1133 16.3867 26.4453 16.25 26.6309 15.9375C27.4902 14.4238 27.9785 12.7832 27.9785 10.8105C27.9785 6.99219 25.5859 4.42383 22.0117 4.42383C18.4473 4.42383 16.0645 6.98242 16.0645 10.8105Z" fill="white" fill-opacity="0.85"/>
 </g>
</svg>
