<svg version="1.1" xmlns="http://www.w3.org/2000/svg" xmlns:xlink="http://www.w3.org/1999/xlink" viewBox="0 0 23.6989 24.8975">
 <g>
  <rect height="24.8975" opacity="0" width="23.6989" x="0" y="0"/>
  <path d="M20.8826 3.86966C20.8826 3.37162 20.4725 2.96146 19.9647 2.96146C19.4666 2.96146 19.0565 3.37162 19.0565 3.86966L19.0565 5.37357C19.0565 9.71927 21.4002 10.4712 21.4002 12.7173C21.4002 14.9634 18.4412 15.7251 18.4412 19.8755C18.4412 21.3599 18.8221 22.4048 19.867 23.7427C20.6385 24.7095 22.1619 23.7134 21.3416 22.6294C20.5506 21.5747 20.2772 20.8618 20.2772 19.7486C20.2772 16.7212 23.2361 15.8033 23.2361 12.7173C23.2361 9.62162 20.8924 8.88919 20.8826 5.37357ZM17.3963 5.15872L22.5428 5.15872C23.1873 5.15872 23.4705 4.53372 23.1092 4.02591L20.619 0.402865C20.2772-0.124478 19.6815-0.14401 19.3104 0.402865L16.8201 4.02591C16.4783 4.52396 16.742 5.15872 17.3963 5.15872Z" fill="var(--color-primary)"/>
  <path d="M12.5526 3.91849C12.5526 3.41068 12.1424 3.00052 11.6346 3.00052C11.1365 3.00052 10.7166 3.41068 10.7166 3.91849L10.7166 5.41263C10.7264 9.7681 13.0604 10.5103 13.0604 12.7564C13.0604 15.0025 10.1111 15.7642 10.1111 19.9146C10.1111 21.4087 10.4822 22.4439 11.5272 23.7818C12.3084 24.7583 13.8221 23.7622 13.0115 22.6685C12.2205 21.6138 11.9471 20.9107 11.9471 19.7974C11.9471 16.7603 14.8963 15.8521 14.8963 12.7564C14.8963 9.66068 12.5526 8.92826 12.5526 5.41263ZM9.05646 5.19779L14.2029 5.19779C14.8475 5.19779 15.1307 4.57279 14.7791 4.06497L12.2791 0.441928C11.9373-0.0756503 11.3514-0.0951816 10.9803 0.441928L8.48029 4.06497C8.14825 4.56302 8.41193 5.19779 9.05646 5.19779Z" fill="var(--color-primary)"/>
  <path d="M4.21271 3.95755C4.21271 3.45951 3.80255 3.03958 3.3045 3.03958C2.79669 3.03958 2.38654 3.45951 2.38654 3.95755L2.38654 5.46146C2.3963 9.80716 4.73029 10.5591 4.73029 12.7954C4.73029 15.0513 1.7713 15.813 1.7713 19.9536C1.7713 21.4478 2.15216 22.4927 3.19708 23.8208C3.96857 24.7974 5.492 23.8013 4.68146 22.7173C3.88068 21.6529 3.617 20.9497 3.617 19.8365C3.617 16.7993 6.56622 15.8911 6.56622 12.7954C6.56622 9.69974 4.22247 8.96732 4.21271 5.46146ZM0.716614 5.24662L5.87286 5.24662C6.51739 5.24662 6.8006 4.62162 6.43927 4.10404L3.94904 0.490756C3.60724-0.0365878 3.01154-0.0561191 2.64044 0.490756L0.150207 4.10404C-0.19159 4.61185 0.0720823 5.24662 0.716614 5.24662Z" fill="var(--color-primary)"/>
 </g>
</svg>
