<?xml version="1.0" encoding="UTF-8"?>
<!--Generator: Apple Native CoreSVG 341-->
<!DOCTYPE svg
PUBLIC "-//W3C//DTD SVG 1.1//EN"
       "http://www.w3.org/Graphics/SVG/1.1/DTD/svg11.dtd">
<svg version="1.1" xmlns="http://www.w3.org/2000/svg" xmlns:xlink="http://www.w3.org/1999/xlink" viewBox="0 0 25.8008 25.459">
 <g>
  <rect height="25.459" opacity="0" width="25.8008" x="0" y="0"/>
  <path d="M12.7148 25.4395C19.7363 25.4395 25.4395 19.7461 25.4395 12.7246C25.4395 5.70312 19.7363 0 12.7148 0C5.69336 0 0 5.70312 0 12.7246C0 19.7461 5.69336 25.4395 12.7148 25.4395ZM12.7148 23.623C6.68945 23.623 1.81641 18.75 1.81641 12.7246C1.81641 6.69922 6.68945 1.82617 12.7148 1.82617C18.7402 1.82617 23.6133 6.69922 23.6133 12.7246C23.6133 18.75 18.7402 23.623 12.7148 23.623Z" fill="white" fill-opacity="0.425"/>
  <path d="M6.36719 8.20312C6.14258 8.52539 6.31836 8.94531 6.74805 8.94531L7.57812 8.94531L7.57812 8.98438C7.57812 11.3672 8.85742 11.8359 8.85742 12.998C8.85742 14.1602 7.26562 14.6484 7.26562 16.9043C7.26562 17.7344 7.4707 18.3398 8.03711 19.082C8.51562 19.6777 9.47266 19.0527 8.97461 18.3887C8.53516 17.8027 8.39844 17.4512 8.39844 16.8457C8.39844 15.2148 10.0195 14.7168 10.0195 12.998C10.0195 11.2598 8.73047 10.8887 8.73047 8.98438L8.73047 8.94531L9.57031 8.94531C9.99023 8.94531 10.1758 8.52539 9.94141 8.20312L8.56445 6.23047C8.35938 5.88867 7.96875 5.88867 7.73438 6.23047ZM10.9277 8.16406C10.6934 8.50586 10.8789 8.92578 11.2988 8.92578L12.1387 8.92578L12.1387 8.96484C12.1387 11.3379 13.418 11.8164 13.418 12.9688C13.418 14.1211 11.7969 14.6191 11.7969 16.8848C11.7969 17.7344 12.0215 18.3301 12.6074 19.0527C13.0664 19.6484 14.0137 19.0332 13.5156 18.3691C13.0957 17.7734 12.959 17.4219 12.959 16.8262C12.959 15.1953 14.5703 14.6875 14.5703 12.9688C14.5703 11.25 13.2812 10.8691 13.2812 8.96484L13.2812 8.92578L14.1113 8.92578C14.5312 8.92578 14.7168 8.50586 14.4824 8.16406L13.1348 6.21094C12.9102 5.86914 12.5195 5.85938 12.2852 6.21094ZM15.4688 8.1543C15.2539 8.47656 15.4395 8.90625 15.8594 8.90625L16.6992 8.90625L16.6992 8.93555C16.6992 11.3184 17.9785 11.7871 17.9785 12.9492C17.9785 14.1016 16.3574 14.5996 16.3574 16.8555C16.3574 17.6953 16.5723 18.291 17.1484 19.043C17.6465 19.6387 18.584 19.0039 18.0762 18.3496C17.6367 17.7637 17.5098 17.4023 17.5098 16.7969C17.5098 15.166 19.1211 14.6582 19.1211 12.9492C19.1211 11.2207 17.8516 10.8398 17.8516 8.93555L17.8516 8.90625L18.6621 8.90625C19.0918 8.90625 19.2773 8.47656 19.043 8.1543L17.6758 6.18164C17.4609 5.83984 17.0605 5.83008 16.8359 6.18164Z" fill="white" fill-opacity="0.85"/>
 </g>
</svg>
