<svg version="1.1" xmlns="http://www.w3.org/2000/svg" xmlns:xlink="http://www.w3.org/1999/xlink" viewBox="0 0 30.6445 30.3027">
 <g>
  <rect height="30.3027" opacity="0" width="30.6445" x="0" y="0"/>
  <path d="M25.8496 24.7559C26.1621 25.0781 26.1621 25.5664 25.8496 25.8789C25.5469 26.1816 25.0586 26.1816 24.7461 25.8594L22.9515 24.0648C23.3512 23.7299 23.7202 23.361 24.0551 22.9614ZM17.0312 15.9375L22.8186 21.7249C22.4847 22.1254 22.1155 22.4945 21.7149 22.8282L15.918 17.0312L15.918 15.9375ZM14.3652 13.2715L14.3652 14.3848L13.2715 14.3848L7.47455 8.58783C7.80821 8.1872 8.17736 7.81799 8.57788 7.48413ZM5.54688 4.45312L7.34423 6.25048C6.94431 6.58517 6.57508 6.95382 6.23999 7.35327L4.44336 5.55664C4.12109 5.24414 4.12109 4.75586 4.42383 4.45312C4.73633 4.14062 5.22461 4.14062 5.54688 4.45312Z" fill="var(--color-primary)"/>
  <path d="M3.29102 15.1562L3.3304 15.9375L0.78125 15.9375C0.351562 15.9375 0 15.5957 0 15.166C0 14.7168 0.351562 14.3848 0.78125 14.3848L3.32996 14.3848ZM25.2539 15.1562L25.2144 15.9375L15.918 15.9375L15.918 15.4883L17.0215 14.3848L25.2149 14.3848ZM30.2832 15.166C30.2832 15.5957 29.9414 15.9375 29.502 15.9375L26.9625 15.9375C26.9933 15.6818 27.002 15.42 27.002 15.1562C27.002 14.8958 26.9935 14.6373 26.9629 14.3848L29.502 14.3848C29.9414 14.3848 30.2832 14.7168 30.2832 15.166ZM14.3652 14.834L13.2617 15.9375L5.07846 15.9375C5.04914 15.6814 5.03906 15.42 5.03906 15.1562C5.03906 14.8958 5.04892 14.6377 5.07803 14.3848L14.3652 14.3848Z" fill="var(--color-primary)"/>
  <path d="M7.3396 24.0666L5.54688 25.8594C5.22461 26.1816 4.73633 26.1816 4.44336 25.8789C4.12109 25.5664 4.12109 25.0781 4.44336 24.7559L6.23609 22.9631C6.57097 23.3628 6.9399 23.7318 7.3396 24.0666ZM14.3652 17.041L8.57617 22.8301C8.17555 22.4964 7.80638 22.1272 7.47266 21.7266L14.3652 14.834ZM22.8167 8.58954L15.918 15.4883L15.918 13.2813L21.7132 7.48602C22.1137 7.81982 22.4829 8.18901 22.8167 8.58954ZM25.8594 4.45312C26.1621 4.75586 26.1621 5.24414 25.8496 5.55664L24.0512 7.35501C23.716 6.95562 23.3468 6.587 22.9469 6.25235L24.7461 4.45312C25.0586 4.14062 25.5469 4.14062 25.8594 4.45312Z" fill="var(--color-primary)"/>
  <path d="M15.1465 27.0117L15.918 26.9728L15.918 29.5215C15.918 29.9512 15.5859 30.3027 15.1367 30.3027C14.707 30.3027 14.3652 29.9512 14.3652 29.5215L14.3652 26.9723ZM15.918 5.08787L15.918 25.2247C15.6651 25.2538 15.4069 25.2637 15.1465 25.2637C14.8827 25.2637 14.6213 25.2536 14.3652 25.2243L14.3652 5.0883C14.6213 5.05893 14.8827 5.04883 15.1465 5.04883C15.4069 5.04883 15.6651 5.05871 15.918 5.08787ZM15.918 0.800781L15.918 3.34949C15.6654 3.31895 15.4069 3.31055 15.1465 3.31055C14.8827 3.31055 14.621 3.31914 14.3652 3.34993L14.3652 0.800781C14.3652 0.361328 14.707 0.0195312 15.1367 0.0195312C15.5859 0.0195312 15.918 0.361328 15.918 0.800781Z" fill="var(--color-primary)"/>
  <path d="M15.1465 27.0117C21.6895 27.0117 27.002 21.709 27.002 15.1562C27.002 8.61328 21.6895 3.31055 15.1465 3.31055C8.59375 3.31055 3.29102 8.61328 3.29102 15.1562C3.29102 21.709 8.59375 27.0117 15.1465 27.0117ZM15.1465 25.2637C9.56055 25.2637 5.03906 20.7422 5.03906 15.1562C5.03906 9.58008 9.56055 5.04883 15.1465 5.04883C20.7227 5.04883 25.2539 9.58008 25.2539 15.1562C25.2539 20.7422 20.7227 25.2637 15.1465 25.2637Z" fill="var(--color-primary)"/>
 </g>
</svg>
