<svg version="1.1" xmlns="http://www.w3.org/2000/svg" xmlns:xlink="http://www.w3.org/1999/xlink" viewBox="0 0 25.8008 25.459">
 <g>
  <rect height="25.459" opacity="0" width="25.8008" x="0" y="0"/>
  <path d="M12.7148 25.4395C19.7266 25.4395 25.4395 19.7266 25.4395 12.7246C25.4395 5.71289 19.7266 0 12.7148 0C5.71289 0 0 5.71289 0 12.7246C0 19.7266 5.71289 25.4395 12.7148 25.4395Z" fill="var(--color-tertiary)"/>
  <path d="M12.7148 13.7109C8.80859 13.7109 5.74219 12.3242 5.74219 10.5664C5.74219 8.83789 8.80859 7.48047 12.7148 7.48047C16.6211 7.48047 19.6875 8.83789 19.6875 10.5664C19.6875 12.3242 16.6211 13.7109 12.7148 13.7109ZM12.7148 17.959C8.75 17.959 5.74219 16.2109 5.74219 14.0625L5.74219 12.4805C7.05078 13.8086 9.77539 14.5801 12.7148 14.5801C15.6641 14.5801 18.3887 13.8086 19.6875 12.4805L19.6875 14.0625C19.6875 16.2109 16.6699 17.959 12.7148 17.959Z" fill="var(--color-primary)"/>
 </g>
</svg>
