<?xml version="1.0" encoding="UTF-8"?>
<!--Generator: Apple Native CoreSVG 341-->
<!DOCTYPE svg
PUBLIC "-//W3C//DTD SVG 1.1//EN"
       "http://www.w3.org/Graphics/SVG/1.1/DTD/svg11.dtd">
<svg version="1.1" xmlns="http://www.w3.org/2000/svg" xmlns:xlink="http://www.w3.org/1999/xlink" viewBox="0 0 29.9512 22.959">
 <g>
  <rect height="22.959" opacity="0" width="29.9512" x="0" y="0"/>
  <path d="M3.79883 22.959L25.7812 22.959C28.3105 22.959 29.5898 21.6797 29.5898 19.1992L29.5898 3.76953C29.5898 1.2793 28.3105 0 25.7812 0L3.79883 0C1.2793 0 0 1.26953 0 3.76953L0 19.1992C0 21.6992 1.2793 22.959 3.79883 22.959ZM3.83789 21.2305C2.4707 21.2305 1.72852 20.5078 1.72852 19.1016L1.72852 3.85742C1.72852 2.46094 2.4707 1.72852 3.83789 1.72852L25.752 1.72852C27.0898 1.72852 27.8516 2.46094 27.8516 3.85742L27.8516 19.1016C27.8516 20.5078 27.0898 21.2305 25.752 21.2305Z" fill="white" fill-opacity="0.425"/>
  <path d="M20.8887 19.668L25.0586 19.668C25.918 19.668 26.2891 19.2871 26.2891 18.4277L26.2891 4.54102C26.2891 3.67188 25.918 3.29102 25.0586 3.29102L20.8887 3.29102C20.0293 3.29102 19.6582 3.67188 19.6582 4.54102L19.6582 18.4277C19.6582 19.2871 20.0293 19.668 20.8887 19.668Z" fill="white" fill-opacity="0.2125"/>
  <path d="M12.6953 19.668L16.875 19.668C17.7246 19.668 18.0957 19.2871 18.0957 18.4277L18.0957 4.54102C18.0957 3.67188 17.7246 3.29102 16.875 3.29102L12.6953 3.29102C11.8457 3.29102 11.4746 3.67188 11.4746 4.54102L11.4746 18.4277C11.4746 19.2871 11.8457 19.668 12.6953 19.668Z" fill="white" fill-opacity="0.2125"/>
  <path d="M4.51172 19.668L8.68164 19.668C9.54102 19.668 9.91211 19.2871 9.91211 18.4277L9.91211 4.54102C9.91211 3.67188 9.54102 3.29102 8.68164 3.29102L4.51172 3.29102C3.66211 3.29102 3.29102 3.67188 3.29102 4.54102L3.29102 18.4277C3.29102 19.2871 3.66211 19.668 4.51172 19.668Z" fill="white" fill-opacity="0.85"/>
 </g>
</svg>
