<?xml version="1.0" encoding="UTF-8"?>
<!--Generator: Apple Native CoreSVG 341-->
<!DOCTYPE svg
PUBLIC "-//W3C//DTD SVG 1.1//EN"
       "http://www.w3.org/Graphics/SVG/1.1/DTD/svg11.dtd">
<svg version="1.1" xmlns="http://www.w3.org/2000/svg" xmlns:xlink="http://www.w3.org/1999/xlink" viewBox="0 0 29.9512 22.959">
 <g>
  <rect height="22.959" opacity="0" width="29.9512" x="0" y="0"/>
  <path d="M3.79883 22.959L25.7812 22.959C28.3105 22.959 29.5898 21.6797 29.5898 19.1992L29.5898 3.76953C29.5898 1.2793 28.3105 0 25.7812 0L3.79883 0C1.2793 0 0 1.26953 0 3.76953L0 19.1992C0 21.6992 1.2793 22.959 3.79883 22.959ZM3.83789 21.2305C2.4707 21.2305 1.72852 20.5078 1.72852 19.1016L1.72852 3.85742C1.72852 2.46094 2.4707 1.72852 3.83789 1.72852L25.752 1.72852C27.0898 1.72852 27.8516 2.46094 27.8516 3.85742L27.8516 19.1016C27.8516 20.5078 27.0898 21.2305 25.752 21.2305Z" fill="white" fill-opacity="0.425"/>
  <path d="M4.53125 19.7168L25.0391 19.7168C25.9082 19.7168 26.2891 19.3457 26.2891 18.4961L26.2891 16.5137C26.2891 15.6543 25.9082 15.2832 25.0391 15.2832L4.53125 15.2832C3.67188 15.2832 3.29102 15.6543 3.29102 16.5137L3.29102 18.4961C3.29102 19.3457 3.67188 19.7168 4.53125 19.7168Z" fill="white" fill-opacity="0.2125"/>
  <path d="M4.53125 13.7207L25.0391 13.7207C25.9082 13.7207 26.2891 13.3496 26.2891 12.4902L26.2891 10.5078C26.2891 9.6582 25.9082 9.28711 25.0391 9.28711L4.53125 9.28711C3.67188 9.28711 3.29102 9.6582 3.29102 10.5078L3.29102 12.4902C3.29102 13.3496 3.67188 13.7207 4.53125 13.7207Z" fill="white" fill-opacity="0.2125"/>
  <path d="M4.53125 7.72461L25.0391 7.72461C25.9082 7.72461 26.2891 7.35352 26.2891 6.49414L26.2891 4.52148C26.2891 3.66211 25.9082 3.29102 25.0391 3.29102L4.53125 3.29102C3.67188 3.29102 3.29102 3.66211 3.29102 4.52148L3.29102 6.49414C3.29102 7.35352 3.67188 7.72461 4.53125 7.72461Z" fill="white" fill-opacity="0.85"/>
 </g>
</svg>
