<?xml version="1.0" encoding="UTF-8"?>
<!--Generator: Apple Native CoreSVG 341-->
<!DOCTYPE svg
PUBLIC "-//W3C//DTD SVG 1.1//EN"
       "http://www.w3.org/Graphics/SVG/1.1/DTD/svg11.dtd">
<svg version="1.1" xmlns="http://www.w3.org/2000/svg" xmlns:xlink="http://www.w3.org/1999/xlink" viewBox="0 0 36.4118 33.1016">
 <g>
  <rect height="33.1016" opacity="0" width="36.4118" x="0" y="0"/>
  <path d="M32.8201 8.84083L32.8201 20.4427L31.0819 18.6259L31.0819 8.92873C31.0819 7.53224 30.3201 6.79982 28.9822 6.79982L7.06819 6.79982C5.701 6.79982 4.95881 7.53224 4.95881 8.92873L4.95881 24.1729C4.95881 25.5791 5.701 26.3018 7.06819 26.3018L25.4627 26.3018L25.4569 27.8154C25.4556 27.8895 25.4581 27.9619 25.469 28.0303L7.02912 28.0303C4.50959 28.0303 3.2303 26.7705 3.2303 24.2705L3.2303 8.84083C3.2303 6.34083 4.50959 5.0713 7.02912 5.0713L29.0115 5.0713C31.5408 5.0713 32.8201 6.3506 32.8201 8.84083Z" fill="white" fill-opacity="0.85"/>
  <path d="M29.5291 9.61232L29.5291 17.003L28.9237 16.3701C27.6737 15.0811 25.5155 15.9307 25.4959 17.7373L25.4688 24.7393L7.74201 24.7393C6.96076 24.7393 6.52131 24.2901 6.52131 23.499L6.52131 9.61232C6.52131 8.81154 6.96076 8.36232 7.74201 8.36232L28.2987 8.36232C29.0897 8.36232 29.5291 8.81154 29.5291 9.61232Z" fill="white" fill-opacity="0.2125"/>
  <path d="M33.0252 31.4678C33.5428 31.2627 33.7869 30.6768 33.5623 30.1592L31.5604 25.501L34.3631 25.4424C34.7928 25.4326 35.0076 25.0029 34.7049 24.6709L27.8104 17.4541C27.5272 17.1611 27.0682 17.3369 27.0584 17.7569L27.0096 27.8447C26.9998 28.2842 27.5272 28.4404 27.8201 28.1475L29.7733 26.1846L31.6971 30.9404C31.9022 31.4385 32.5076 31.6826 33.0252 31.4678Z" fill="white" fill-opacity="0.85"/>
 </g>
</svg>
