<?xml version="1.0" encoding="UTF-8"?>
<!--Generator: Apple Native CoreSVG 341-->
<!DOCTYPE svg
PUBLIC "-//W3C//DTD SVG 1.1//EN"
       "http://www.w3.org/Graphics/SVG/1.1/DTD/svg11.dtd">
<svg version="1.1" xmlns="http://www.w3.org/2000/svg" xmlns:xlink="http://www.w3.org/1999/xlink" viewBox="0 0 25.8008 25.459">
 <g>
  <rect height="25.459" opacity="0" width="25.8008" x="0" y="0"/>
  <path d="M12.7344 16.3672C12.1777 16.3672 11.709 15.918 11.709 15.3516C11.709 14.7852 12.1777 14.3457 12.7344 14.3457C13.291 14.3457 13.75 14.7852 13.75 15.3516C13.75 15.918 13.291 16.3672 12.7344 16.3672ZM21.2598 4.4043L19.7754 3.08594L19.7754 13.5742L5.66406 13.5742L5.66406 3.22266L4.17969 4.4043L4.17969 14.4043C4.17969 16.084 5.2832 17.1484 7.00195 17.1484L18.4277 17.1484C20.1562 17.1484 21.2598 16.084 21.2598 14.4043ZM12.7148 25.4395C19.7363 25.4395 25.4395 19.7461 25.4395 12.7246C25.4395 5.70312 19.7363 0 12.7148 0C5.69336 0 0 5.70312 0 12.7246C0 19.7461 5.69336 25.4395 12.7148 25.4395ZM12.7148 23.623C6.68945 23.623 1.81641 18.75 1.81641 12.7246C1.81641 6.69922 6.68945 1.82617 12.7148 1.82617C18.7402 1.82617 23.6133 6.69922 23.6133 12.7246C23.6133 18.75 18.7402 23.623 12.7148 23.623Z" fill="white" fill-opacity="0.85"/>
 </g>
</svg>
