<?xml version="1.0" encoding="UTF-8"?>
<!--Generator: Apple Native CoreSVG 341-->
<!DOCTYPE svg
PUBLIC "-//W3C//DTD SVG 1.1//EN"
       "http://www.w3.org/Graphics/SVG/1.1/DTD/svg11.dtd">
<svg version="1.1" xmlns="http://www.w3.org/2000/svg" xmlns:xlink="http://www.w3.org/1999/xlink" viewBox="0 0 25.8008 25.459">
 <g>
  <rect height="25.459" opacity="0" width="25.8008" x="0" y="0"/>
  <path d="M12.7148 25.4395C19.7266 25.4395 25.4395 19.7266 25.4395 12.7246C25.4395 5.71289 19.7266 0 12.7148 0C5.71289 0 0 5.71289 0 12.7246C0 19.7266 5.71289 25.4395 12.7148 25.4395Z" fill="white" fill-opacity="0.2125"/>
  <path d="M12.1387 18.7109C10.3906 18.7109 9.01367 17.8125 8.61328 16.4746C8.54492 16.2891 8.51562 16.1133 8.51562 15.9277C8.51562 15.4199 8.84766 15.0879 9.3457 15.0879C9.72656 15.0879 9.98047 15.2734 10.166 15.7031C10.4492 16.6211 11.1816 17.1777 12.2266 17.1777C13.3691 17.1777 14.082 16.3574 14.082 15L14.082 7.64648C14.082 7.05078 14.3945 6.65039 14.9609 6.65039C15.5469 6.65039 15.8594 7.03125 15.8594 7.64648L15.8594 15.0195C15.8594 17.373 14.541 18.7109 12.1387 18.7109Z" fill="white" fill-opacity="0.85"/>
 </g>
</svg>
