<?xml version="1.0" encoding="UTF-8"?>
<!--Generator: Apple Native CoreSVG 341-->
<!DOCTYPE svg
PUBLIC "-//W3C//DTD SVG 1.1//EN"
       "http://www.w3.org/Graphics/SVG/1.1/DTD/svg11.dtd">
<svg version="1.1" xmlns="http://www.w3.org/2000/svg" xmlns:xlink="http://www.w3.org/1999/xlink" viewBox="0 0 46.5137 20.4395">
 <g>
  <rect height="20.4395" opacity="0" width="46.5137" x="0" y="0"/>
  <path d="M10.166 20.4395C12.2754 20.4395 13.9355 18.7891 13.9355 16.6699C13.9355 14.5703 12.2754 12.9102 10.166 12.9102C8.04688 12.9102 6.39648 14.5703 6.39648 16.6699C6.39648 18.7891 8.04688 20.4395 10.166 20.4395ZM36.2988 20.4395C38.418 20.4395 40.0684 18.7891 40.0684 16.6699C40.0684 14.5703 38.418 12.9102 36.2988 12.9102C34.1895 12.9102 32.5293 14.5703 32.5293 16.6699C32.5293 18.7891 34.1895 20.4395 36.2988 20.4395ZM36.2695 5.26367C34.4043 4.92188 33.0664 4.78516 31.1426 4.91211L17.8223 5.75195C19.5508 4.46289 21.3965 3.21289 23.7207 1.96289C24.7559 1.41602 23.9062-0.0488281 22.7637 0.556641C19.7852 2.1582 17.041 3.96484 14.7266 5.88867L5.99609 7.53906C2.00195 8.29102 0 10.0977 0 13.4277L0 15.0781C0 16.8262 0.791016 17.6953 2.56836 17.9004L5.21484 18.2227C5.09766 17.8027 5.0293 17.1387 5.0293 16.6699C5.0293 13.8184 7.30469 11.5527 10.166 11.5527C13.0273 11.5527 15.293 13.8184 15.293 16.6699C15.293 17.0312 15.2637 17.4219 15.2051 17.6855L31.2891 17.6855C31.2109 17.4023 31.1719 17.041 31.1719 16.6699C31.1719 13.8184 33.4375 11.5527 36.2988 11.5527C39.1602 11.5527 41.4258 14.0137 41.4258 16.8652C41.4258 17.041 41.4258 17.1289 41.416 17.2852L42.6465 17.1582C45.0195 16.8945 46.1523 15.6055 46.1523 13.1641L46.1523 10.9766C46.1523 8.125 45.0391 6.88477 42.1973 6.35742Z" fill="white" fill-opacity="0.2125"/>
  <path d="M30.0195 11.3379C30.0195 13.3203 28.4082 14.9316 26.4258 14.9316C24.873 14.9316 23.5742 13.9453 22.8809 12.1777L21.3281 13.7109C21.2012 13.8281 21.0449 13.8477 20.957 13.7402L19.4141 12.1777L18.2812 13.3203C18.1738 13.4375 18.0176 13.4375 17.9102 13.3203L16.123 11.5234C16.0156 11.4062 16.0254 11.25 16.123 11.1426L17.0605 10.2051C17.1777 10.0977 17.2852 10.0488 17.4121 10.0488L23.0371 10.0488C23.5742 8.63281 24.9023 7.72461 26.4258 7.72461C28.418 7.72461 30.0195 9.32617 30.0195 11.3379ZM28.291 11.3281C28.291 10.6934 27.7832 10.2148 27.1777 10.2148C26.5527 10.2148 26.0645 10.7129 26.0645 11.3281C26.0645 11.9336 26.5527 12.4316 27.1777 12.4316C27.7832 12.4316 28.291 11.9336 28.291 11.3281Z" fill="white" fill-opacity="0.85"/>
 </g>
</svg>
