<svg version="1.1" xmlns="http://www.w3.org/2000/svg" xmlns:xlink="http://www.w3.org/1999/xlink" viewBox="0 0 44.3945 20.0488">
 <g>
  <rect height="20.0488" opacity="0" width="44.3945" x="0" y="0"/>
  <path d="M9.79492 19.6777C11.709 19.6777 13.2129 18.1738 13.2129 16.2598C13.2129 14.3555 11.6992 12.8418 9.79492 12.8418C7.89062 12.8418 6.37695 14.3555 6.37695 16.2598C6.37695 18.1641 7.89062 19.6777 9.79492 19.6777ZM34.9805 19.6777C36.8848 19.6777 38.3984 18.1641 38.3984 16.2598C38.3984 14.3555 36.8848 12.8418 34.9805 12.8418C33.0957 12.8418 31.5625 14.3652 31.5625 16.2598C31.5625 18.1641 33.0859 19.6777 34.9805 19.6777ZM42.5 3.68164L41.9336 2.86133C40.5566 0.849609 38.7793 0 35.957 0L26.2012 0C21.0645 0 19.043 0.488281 16.0059 2.39258L10.9473 5.57617L6.25 6.15234C2.07031 6.66992 0 8.57422 0 11.9141L0 14.0527C0 16.0254 1.12305 17.1777 3.03711 17.1777L5.10742 17.1777C5.04883 16.8848 5.01953 16.582 5.01953 16.2598C5.01953 13.6133 7.14844 11.4844 9.79492 11.4844C12.4414 11.4844 14.5703 13.6133 14.5703 16.2598C14.5703 16.582 14.541 16.8848 14.4824 17.1777L30.293 17.1777C30.2344 16.8848 30.2051 16.582 30.2051 16.2598C30.2051 13.623 32.3438 11.4844 34.9805 11.4844C37.6367 11.4844 39.7656 13.6133 39.7656 16.2598C39.7656 16.582 39.7266 16.8848 39.668 17.1777L41.0059 17.1777C43.0762 17.1777 44.0332 16.1035 44.0332 13.8086L44.0332 8.37891C44.0332 6.82617 43.4766 5.10742 42.5 3.68164Z" fill="var(--color-tertiary)"/>
  <path d="M31.7285 7.7832C31.7285 9.87305 30.0391 11.5625 27.9492 11.5625C26.3086 11.5625 24.9414 10.5273 24.2188 8.66211L22.5781 10.2832C22.4414 10.4102 22.2852 10.4199 22.1875 10.3125L20.5664 8.66211L19.375 9.86328C19.2578 9.99023 19.1016 9.99023 18.9746 9.86328L17.0996 7.97852C16.9824 7.85156 16.9922 7.69531 17.0996 7.57812L18.0859 6.5918C18.2129 6.47461 18.3203 6.42578 18.457 6.42578L24.3848 6.42578C24.9414 4.93164 26.3477 3.97461 27.9492 3.97461C30.0391 3.97461 31.7285 5.66406 31.7285 7.7832ZM29.9023 7.76367C29.9023 7.10938 29.375 6.60156 28.7402 6.60156C28.0762 6.60156 27.5684 7.11914 27.5684 7.76367C27.5684 8.4082 28.0762 8.92578 28.7402 8.92578C29.375 8.92578 29.9023 8.4082 29.9023 7.76367Z" fill="var(--color-primary)"/>
 </g>
</svg>
