<?xml version="1.0" encoding="UTF-8"?>
<!--Generator: Apple Native CoreSVG 341-->
<!DOCTYPE svg
PUBLIC "-//W3C//DTD SVG 1.1//EN"
       "http://www.w3.org/Graphics/SVG/1.1/DTD/svg11.dtd">
<svg version="1.1" xmlns="http://www.w3.org/2000/svg" xmlns:xlink="http://www.w3.org/1999/xlink" viewBox="0 0 44.3652 21.6699">
 <g>
  <rect height="21.6699" opacity="0" width="44.3652" x="0" y="0"/>
  <path d="M4.63867 2.36328C4.9707 2.74414 4.86328 3.25195 4.48242 3.68164C2.74414 5.57617 1.74805 8.06641 1.74805 10.8301C1.74805 13.584 2.74414 16.0742 4.48242 17.9688C4.86328 18.3984 4.9707 18.9062 4.63867 19.2969C4.28711 19.6973 3.69141 19.6875 3.28125 19.2383C1.19141 17.0215 0 14.0527 0 10.8301C0 7.59766 1.19141 4.63867 3.28125 2.41211C3.69141 1.96289 4.28711 1.96289 4.63867 2.36328ZM40.7227 2.41211C42.8027 4.63867 44.0039 7.59766 44.0039 10.8301C44.0039 14.0527 42.8027 17.0215 40.7227 19.2383C40.3125 19.6875 39.707 19.6973 39.3652 19.2969C39.0234 18.9062 39.1309 18.3984 39.5215 17.9688C41.2598 16.0742 42.2559 13.584 42.2559 10.8301C42.2559 8.06641 41.2598 5.57617 39.5215 3.68164C39.1309 3.25195 39.0234 2.74414 39.3652 2.36328C39.707 1.96289 40.3125 1.96289 40.7227 2.41211Z" fill="white" fill-opacity="0.85"/>
  <path d="M8.125 5.91797C8.4668 6.29883 8.32031 6.78711 7.97852 7.23633C7.14844 8.18359 6.74805 9.46289 6.74805 10.8301C6.74805 12.1973 7.14844 13.4668 7.97852 14.4141C8.32031 14.8633 8.4668 15.3516 8.125 15.7422C7.76367 16.1426 7.12891 16.1426 6.74805 15.6641C5.63477 14.3457 5 12.6562 5 10.8301C5 9.00391 5.63477 7.30469 6.74805 5.98633C7.12891 5.50781 7.76367 5.51758 8.125 5.91797ZM37.2559 5.98633C38.3691 7.30469 39.0039 9.00391 39.0039 10.8301C39.0039 12.6562 38.3691 14.3457 37.2559 15.6641C36.875 16.1426 36.2305 16.1426 35.8789 15.7422C35.5371 15.3516 35.6836 14.8633 36.0254 14.4141C36.8457 13.4668 37.2559 12.1973 37.2559 10.8301C37.2559 9.46289 36.8457 8.18359 36.0254 7.23633C35.6836 6.78711 35.5371 6.29883 35.8789 5.91797C36.2305 5.51758 36.875 5.50781 37.2559 5.98633Z" fill="white" fill-opacity="0.85"/>
  <path d="M32.832 10.8301C32.832 16.8066 27.9785 21.6504 22.002 21.6504C16.0156 21.6504 11.1719 16.8066 11.1719 10.8301C11.1719 4.84375 16.0156 0 22.002 0C27.9785 0 32.832 4.84375 32.832 10.8301ZM18.0176 7.36328C18.0176 9.04297 19.0137 10.5078 20.5859 11.1035L20.5859 17.3145C20.5859 17.4512 20.625 17.5684 20.7422 17.6953L21.7871 18.7305C21.8848 18.8477 22.0801 18.8672 22.207 18.7305L24.1992 16.7578C24.3066 16.6406 24.2969 16.4648 24.1992 16.3477L22.9395 15.1074L24.6582 13.4082C24.7656 13.3008 24.7656 13.1152 24.6387 13.0078L22.9395 11.2695C24.8828 10.5078 25.9668 9.0918 25.9668 7.36328C25.9668 5.17578 24.209 3.39844 21.9922 3.39844C19.7852 3.39844 18.0176 5.16602 18.0176 7.36328ZM23.125 6.10352C23.125 6.72852 22.627 7.23633 21.9922 7.23633C21.3574 7.23633 20.8691 6.72852 20.8691 6.10352C20.8691 5.47852 21.3574 4.98047 21.9922 4.98047C22.627 4.98047 23.125 5.47852 23.125 6.10352Z" fill="white" fill-opacity="0.85"/>
 </g>
</svg>
