<?xml version="1.0" encoding="UTF-8"?>
<!--Generator: Apple Native CoreSVG 341-->
<!DOCTYPE svg
PUBLIC "-//W3C//DTD SVG 1.1//EN"
       "http://www.w3.org/Graphics/SVG/1.1/DTD/svg11.dtd">
<svg version="1.1" xmlns="http://www.w3.org/2000/svg" xmlns:xlink="http://www.w3.org/1999/xlink" viewBox="0 0 47.8516 20.0488">
 <g>
  <rect height="20.0488" opacity="0" width="47.8516" x="0" y="0"/>
  <path d="M3.03711 17.373L4.72656 17.373C4.63867 17.0117 4.58984 16.6504 4.58984 16.2598C4.58984 13.6133 6.71875 11.4844 9.36523 11.4844C12.0215 11.4844 14.1504 13.6133 14.1504 16.2598C14.1504 16.6504 14.1016 17.0215 14.0234 17.373L31.2109 17.373C31.123 17.0117 31.0742 16.6504 31.0742 16.2598C31.0742 13.623 33.2129 11.4844 35.8496 11.4844C38.5059 11.4844 40.6348 13.6133 40.6348 16.2598C40.6348 16.6504 40.5762 17.0117 40.4883 17.373L44.4434 17.373C46.3672 17.373 47.4902 16.2207 47.4902 14.248L47.4902 9.3457C47.4902 7.37305 46.3672 6.2207 44.4434 6.2207L33.9551 6.2207L33.6523 3.56445C33.3789 1.21094 32.0312 0 29.6973 0L24.6094 0C20.5273 0 18.1836 0.585938 15.4395 2.30469L10.2539 5.57617L5.55664 6.25977C1.74805 6.81641 0 8.4668 0 11.416L0 14.248C0 16.2207 1.12305 17.373 3.03711 17.373ZM9.36523 19.6777C11.2793 19.6777 12.793 18.1738 12.793 16.2598C12.793 14.3555 11.2695 12.8418 9.36523 12.8418C7.4707 12.8418 5.94727 14.3555 5.94727 16.2598C5.94727 18.1641 7.4707 19.6777 9.36523 19.6777ZM35.8496 19.6777C37.7539 19.6777 39.2676 18.1641 39.2676 16.2598C39.2676 14.3555 37.7539 12.8418 35.8496 12.8418C33.9551 12.8418 32.4316 14.3652 32.4316 16.2598C32.4316 18.1641 33.9453 19.6777 35.8496 19.6777Z" fill="white" fill-opacity="0.2125"/>
  <path d="M29.8242 8.92578C29.8242 11.0156 28.125 12.7051 26.0352 12.7051C24.3945 12.7051 23.0273 11.6699 22.3047 9.80469L20.6641 11.4258C20.5371 11.5527 20.3711 11.5723 20.2832 11.4551L18.6523 9.81445L17.4609 11.0156C17.3438 11.1328 17.1875 11.1328 17.0703 11.0156L15.1855 9.12109C15.0684 8.99414 15.0781 8.83789 15.1855 8.7207L16.1719 7.73438C16.2988 7.61719 16.416 7.57812 16.543 7.57812L22.4707 7.57812C23.0273 6.08398 24.4336 5.12695 26.0352 5.12695C28.1348 5.12695 29.8242 6.81641 29.8242 8.92578ZM27.998 8.91602C27.998 8.25195 27.4609 7.74414 26.8262 7.74414C26.1719 7.74414 25.6543 8.27148 25.6543 8.91602C25.6543 9.56055 26.1719 10.0781 26.8262 10.0781C27.4609 10.0781 27.998 9.56055 27.998 8.91602Z" fill="white" fill-opacity="0.85"/>
 </g>
</svg>
