<?xml version="1.0" encoding="UTF-8"?>
<!--Generator: Apple Native CoreSVG 341-->
<!DOCTYPE svg
PUBLIC "-//W3C//DTD SVG 1.1//EN"
       "http://www.w3.org/Graphics/SVG/1.1/DTD/svg11.dtd">
<svg version="1.1" xmlns="http://www.w3.org/2000/svg" xmlns:xlink="http://www.w3.org/1999/xlink" viewBox="0 0 24.6777 24.3457">
 <g>
  <rect height="24.3457" opacity="0" width="24.6777" x="0" y="0"/>
  <path d="M0.869141 7.85156C1.42578 7.85156 1.72852 7.5293 1.72852 6.97266L1.72852 3.88672C1.72852 2.48047 2.4707 1.75781 3.83789 1.75781L6.98242 1.75781C7.53906 1.75781 7.86133 1.44531 7.86133 0.898438C7.86133 0.341797 7.53906 0.0292969 6.98242 0.0292969L3.79883 0.0292969C1.2793 0.0292969 0 1.28906 0 3.78906L0 6.97266C0 7.5293 0.3125 7.85156 0.869141 7.85156ZM23.4473 7.85156C24.0137 7.85156 24.3164 7.5293 24.3164 6.97266L24.3164 3.78906C24.3164 1.30859 23.0469 0.0292969 20.5176 0.0292969L17.334 0.0292969C16.7773 0.0292969 16.4551 0.341797 16.4551 0.898438C16.4551 1.44531 16.7773 1.75781 17.334 1.75781L20.4785 1.75781C21.8164 1.75781 22.5879 2.48047 22.5879 3.88672L22.5879 6.97266C22.5879 7.5293 22.9004 7.85156 23.4473 7.85156ZM3.79883 24.3457L6.98242 24.3457C7.53906 24.3457 7.86133 24.0332 7.86133 23.4766C7.86133 22.9297 7.53906 22.6172 6.98242 22.6172L3.83789 22.6172C2.4707 22.6172 1.72852 21.8945 1.72852 20.4883L1.72852 17.4023C1.72852 16.8457 1.41602 16.5234 0.869141 16.5234C0.302734 16.5234 0 16.8457 0 17.4023L0 20.5859C0 23.0859 1.2793 24.3457 3.79883 24.3457ZM17.334 24.3457L20.5176 24.3457C23.0469 24.3457 24.3164 23.0664 24.3164 20.5859L24.3164 17.4023C24.3164 16.8457 24.0039 16.5234 23.4473 16.5234C22.8906 16.5234 22.5879 16.8457 22.5879 17.4023L22.5879 20.4883C22.5879 21.8945 21.8164 22.6172 20.4785 22.6172L17.334 22.6172C16.7773 22.6172 16.4551 22.9297 16.4551 23.4766C16.4551 24.0332 16.7773 24.3457 17.334 24.3457Z" fill="white" fill-opacity="0.85"/>
  <path d="M12.1777 4.54102C9.91211 4.54102 8.0957 6.34766 8.0957 8.62305C8.0957 10.332 9.12109 11.8457 10.7324 12.4512L10.7324 18.8379C10.7324 18.9844 10.7812 19.1016 10.8789 19.2285L11.9629 20.293C12.0605 20.4004 12.2656 20.4297 12.3828 20.293L14.4336 18.2617C14.5508 18.1445 14.541 17.9688 14.4336 17.8516L13.1445 16.5723L14.9121 14.8145C15.0195 14.707 15.0195 14.5215 14.8926 14.4043L13.1445 12.627C15.1367 11.8457 16.2598 10.3809 16.2598 8.62305C16.2598 6.35742 14.4531 4.54102 12.1777 4.54102ZM12.1777 8.47656C11.5332 8.47656 11.0156 7.96875 11.0156 7.32422C11.0156 6.67969 11.5332 6.16211 12.1777 6.16211C12.8223 6.16211 13.3301 6.67969 13.3301 7.32422C13.3301 7.96875 12.8223 8.47656 12.1777 8.47656Z" fill="white" fill-opacity="0.85"/>
 </g>
</svg>
