<?xml version="1.0" encoding="UTF-8"?>
<!--Generator: Apple Native CoreSVG 341-->
<!DOCTYPE svg
PUBLIC "-//W3C//DTD SVG 1.1//EN"
       "http://www.w3.org/Graphics/SVG/1.1/DTD/svg11.dtd">
<svg version="1.1" xmlns="http://www.w3.org/2000/svg" xmlns:xlink="http://www.w3.org/1999/xlink" viewBox="0 0 47.8516 20.0488">
 <g>
  <rect height="20.0488" opacity="0" width="47.8516" x="0" y="0"/>
  <path d="M12.793 16.2598C12.793 18.1738 11.2793 19.6777 9.36523 19.6777C7.4707 19.6777 5.94727 18.1641 5.94727 16.2598C5.94727 14.3555 7.4707 12.8418 9.36523 12.8418C11.2695 12.8418 12.793 14.3555 12.793 16.2598ZM39.2676 16.2598C39.2676 18.1641 37.7539 19.6777 35.8496 19.6777C33.9453 19.6777 32.4316 18.1641 32.4316 16.2598C32.4316 14.3652 33.9551 12.8418 35.8496 12.8418C37.7539 12.8418 39.2676 14.3555 39.2676 16.2598ZM33.6523 3.56445L33.9551 6.2207L44.4434 6.2207C46.3672 6.2207 47.4902 7.37305 47.4902 9.3457L47.4902 14.248C47.4902 16.2207 46.3672 17.373 44.4434 17.373L40.4883 17.373C40.5762 17.0117 40.6348 16.6504 40.6348 16.2598C40.6348 13.6133 38.5059 11.4844 35.8496 11.4844C33.2129 11.4844 31.0742 13.623 31.0742 16.2598C31.0742 16.6504 31.123 17.0117 31.2109 17.373L14.0234 17.373C14.1016 17.0215 14.1504 16.6504 14.1504 16.2598C14.1504 13.6133 12.0215 11.4844 9.36523 11.4844C6.71875 11.4844 4.58984 13.6133 4.58984 16.2598C4.58984 16.6504 4.63867 17.0117 4.72656 17.373L3.03711 17.373C1.12305 17.373 0 16.2207 0 14.248L0 11.416C0 8.4668 1.74805 6.81641 5.55664 6.25977L10.2539 5.57617L15.4395 2.30469C18.1836 0.585938 20.5273 0 24.6094 0L29.6973 0C32.0312 0 33.3789 1.21094 33.6523 3.56445ZM22.4707 7.57812L16.543 7.57812C16.416 7.57812 16.2988 7.61719 16.1719 7.73438L15.1855 8.7207C15.0781 8.83789 15.0684 8.99414 15.1855 9.12109L17.0703 11.0156C17.1875 11.1328 17.3438 11.1328 17.4609 11.0156L18.6523 9.81445L20.2832 11.4551C20.3711 11.5723 20.5371 11.5527 20.6641 11.4258L22.3047 9.80469C23.0273 11.6699 24.3945 12.7051 26.0352 12.7051C28.125 12.7051 29.8242 11.0156 29.8242 8.92578C29.8242 6.81641 28.1348 5.12695 26.0352 5.12695C24.4336 5.12695 23.0273 6.08398 22.4707 7.57812ZM27.998 8.91602C27.998 9.56055 27.4609 10.0781 26.8262 10.0781C26.1719 10.0781 25.6543 9.56055 25.6543 8.91602C25.6543 8.27148 26.1719 7.74414 26.8262 7.74414C27.4609 7.74414 27.998 8.25195 27.998 8.91602Z" fill="white" fill-opacity="0.85"/>
 </g>
</svg>
