<?xml version="1.0" encoding="UTF-8"?>
<!--Generator: Apple Native CoreSVG 341-->
<!DOCTYPE svg
PUBLIC "-//W3C//DTD SVG 1.1//EN"
       "http://www.w3.org/Graphics/SVG/1.1/DTD/svg11.dtd">
<svg version="1.1" xmlns="http://www.w3.org/2000/svg" xmlns:xlink="http://www.w3.org/1999/xlink" viewBox="0 0 27.9395 26.5527">
 <g>
  <rect height="26.5527" opacity="0" width="27.9395" x="0" y="0"/>
  <path d="M1.5332 25.3223L26.0449 25.3223L26.0449 23.9258C26.0449 23.5059 25.791 23.252 25.3613 23.252L24.5605 23.252L24.5605 8.33984L25.6934 8.33984C26.2891 8.33984 26.6211 7.91992 26.6211 7.48047C26.6211 7.1582 26.4453 6.875 26.0547 6.65039L15.2637 0.419922C14.7852 0.146484 14.2773 0 13.7891 0C13.3008 0 12.7832 0.146484 12.3145 0.419922L1.52344 6.65039C1.12305 6.875 0.957031 7.1582 0.957031 7.48047C0.957031 7.91992 1.28906 8.33984 1.88477 8.33984L3.02734 8.33984L3.02734 23.252L2.22656 23.252C1.78711 23.252 1.5332 23.5059 1.5332 23.9258ZM0.869141 26.5332L26.709 26.5332C27.1875 26.5332 27.5781 26.1426 27.5781 25.6738C27.5781 25.1953 27.1875 24.8047 26.709 24.8047L0.869141 24.8047C0.390625 24.8047 0 25.1953 0 25.6738C0 26.1426 0.390625 26.5332 0.869141 26.5332Z" fill="white" fill-opacity="0.2125"/>
  <path d="M10.9473 20.1953C10.5273 20.1953 10.2734 19.9219 10.2734 19.502L10.2734 14.6582L9.35547 14.6582C9.12109 14.6582 8.95508 14.4922 8.95508 14.2773C8.95508 14.0332 9.12109 13.877 9.35547 13.877L10.2734 13.877L10.2734 9.15039C10.2734 8.73047 10.5273 8.4668 10.9473 8.4668C11.3477 8.4668 11.6113 8.73047 11.6113 9.15039L11.6113 13.877L12.4805 13.877L16.5527 8.79883C16.6992 8.63281 16.8848 8.4668 17.1191 8.4668C17.4609 8.4668 17.7344 8.7207 17.7344 9.0625C17.7344 9.20898 17.6758 9.35547 17.5586 9.49219L13.9551 13.877L17.6367 13.877C17.8613 13.877 18.0469 14.0332 18.0469 14.2676C18.0469 14.4824 17.8613 14.6582 17.6367 14.6582L13.9355 14.6582L17.5488 19.1211C17.6758 19.2871 17.7441 19.4238 17.7441 19.6094C17.7441 19.8633 17.5488 20.1953 17.1191 20.1953C16.8652 20.1953 16.6992 20.0586 16.5332 19.8535L12.4707 14.6582L11.6113 14.6582L11.6113 19.502C11.6113 19.9219 11.3477 20.1953 10.9473 20.1953Z" fill="white" fill-opacity="0.85"/>
 </g>
</svg>
