<?xml version="1.0" encoding="UTF-8"?>
<!--Generator: Apple Native CoreSVG 341-->
<!DOCTYPE svg
PUBLIC "-//W3C//DTD SVG 1.1//EN"
       "http://www.w3.org/Graphics/SVG/1.1/DTD/svg11.dtd">
<svg version="1.1" xmlns="http://www.w3.org/2000/svg" xmlns:xlink="http://www.w3.org/1999/xlink" viewBox="0 0 30.0978 25.1465">
 <g>
  <rect height="25.1465" opacity="0" width="30.0978" x="0" y="0"/>
  <path d="M10.1465 22.6074C9.78521 22.9688 9.30669 22.959 8.95513 22.6172C8.61333 22.2559 8.5938 21.7773 8.95513 21.4258L16.5352 13.8775C16.7404 13.9009 16.9532 13.9062 17.168 13.9062C17.7969 13.9062 18.4082 13.8607 18.9935 13.7605ZM13.5946 13.3617L7.24614 19.7168C6.89458 20.0684 6.4063 20.0684 6.05474 19.7168C5.70318 19.3555 5.69341 18.877 6.05474 18.5254L11.9238 12.6809C12.4493 12.9554 13.0062 13.1855 13.5946 13.3617ZM9.8891 11.281L4.35552 16.8262C3.99419 17.1777 3.51568 17.168 3.16411 16.8262C2.82232 16.4648 2.80279 15.9863 3.16411 15.625L8.72939 10.0888C9.07943 10.5215 9.46435 10.9227 9.8891 11.281ZM7.41508 7.95606L1.45513 13.916C1.0938 14.2773 0.615285 14.2676 0.263723 13.9258C-0.0780742 13.5742-0.0976054 13.0859 0.263723 12.7344L6.78235 6.24303C6.94088 6.84564 7.15121 7.41922 7.41508 7.95606Z" fill="white" fill-opacity="0.425"/>
  <path d="M28.9063 3.84766C29.3653 3.84766 29.7364 3.4668 29.7364 3.00781C29.7364 2.56836 29.3653 2.16797 28.9063 2.16797L5.41997 2.1582C4.96099 2.1582 4.58013 2.55859 4.58013 3.00781C4.58013 3.4668 4.97075 3.83789 5.41997 3.83789ZM17.168 12.3535C22.5977 12.3535 26.4356 8.47656 26.4258 3.03711L24.7559 3.03711C24.7657 7.49023 21.6114 10.6738 17.168 10.6738C12.7247 10.6738 9.57036 7.49023 9.58989 3.03711L7.91997 3.03711C7.89068 8.47656 11.7286 12.3535 17.168 12.3535Z" fill="white" fill-opacity="0.85"/>
 </g>
</svg>
