<?xml version="1.0" encoding="UTF-8"?>
<!--Generator: Apple Native CoreSVG 341-->
<!DOCTYPE svg
PUBLIC "-//W3C//DTD SVG 1.1//EN"
       "http://www.w3.org/Graphics/SVG/1.1/DTD/svg11.dtd">
<svg version="1.1" xmlns="http://www.w3.org/2000/svg" xmlns:xlink="http://www.w3.org/1999/xlink" viewBox="0 0 25.8008 25.459">
 <g>
  <rect height="25.459" opacity="0" width="25.8008" x="0" y="0"/>
  <path d="M12.7148 25.4395C19.7266 25.4395 25.4395 19.7266 25.4395 12.7246C25.4395 5.71289 19.7266 0 12.7148 0C5.71289 0 0 5.71289 0 12.7246C0 19.7266 5.71289 25.4395 12.7148 25.4395Z" fill="white" fill-opacity="0.2125"/>
  <path d="M5.625 11.8848C5.13672 11.8848 4.77539 11.5625 4.77539 11.0938C4.77539 10.6152 5.13672 10.3027 5.625 10.3027L19.8535 10.3027C20.332 10.3027 20.6934 10.6152 20.6934 11.0938C20.6934 11.5625 20.332 11.8848 19.8535 11.8848ZM7.5293 16.1523C7.03125 16.1523 6.67969 15.8398 6.67969 15.3613C6.67969 14.8926 7.03125 14.5703 7.5293 14.5703L17.9395 14.5703C18.4375 14.5703 18.7891 14.8926 18.7891 15.3613C18.7891 15.8398 18.4375 16.1523 17.9395 16.1523Z" fill="white" fill-opacity="0.85"/>
 </g>
</svg>
