<?xml version="1.0" encoding="UTF-8"?>
<!--Generator: Apple Native CoreSVG 341-->
<!DOCTYPE svg
PUBLIC "-//W3C//DTD SVG 1.1//EN"
       "http://www.w3.org/Graphics/SVG/1.1/DTD/svg11.dtd">
<svg version="1.1" xmlns="http://www.w3.org/2000/svg" xmlns:xlink="http://www.w3.org/1999/xlink" viewBox="0 0 22.4754 22.2134">
 <g>
  <rect height="22.2134" opacity="0" width="22.4754" x="0" y="0"/>
  <path d="M12.7416 3.41625L18.7865 9.47093C19.2064 9.88109 19.7533 9.64672 19.9193 9.05101L22.0971 0.974841C22.2435 0.4182 21.765-0.0310183 21.2279 0.115466L13.1615 2.2932C12.5658 2.45922 12.3314 2.99633 12.7416 3.41625ZM3.91346 19.4905L19.4213 4.03148C19.7631 3.68968 19.7533 3.13304 19.4213 2.81078C19.0892 2.46898 18.5326 2.46898 18.2006 2.81078L2.69276 18.2698C2.36073 18.6116 2.37049 19.1682 2.69276 19.4905C3.03455 19.8323 3.58143 19.8323 3.91346 19.4905ZM9.37245 18.885L3.32752 12.8303C2.91737 12.4104 2.36073 12.6545 2.20448 13.2502L0.0267422 21.3264C-0.119742 21.8733 0.358773 22.3323 0.895883 22.1858L8.95252 20.008C9.55799 19.842 9.79237 19.3049 9.37245 18.885Z" fill="white" fill-opacity="0.85"/>
 </g>
</svg>
