<?xml version="1.0" encoding="UTF-8"?>
<!--Generator: Apple Native CoreSVG 341-->
<!DOCTYPE svg
PUBLIC "-//W3C//DTD SVG 1.1//EN"
       "http://www.w3.org/Graphics/SVG/1.1/DTD/svg11.dtd">
<svg version="1.1" xmlns="http://www.w3.org/2000/svg" xmlns:xlink="http://www.w3.org/1999/xlink" viewBox="0 0 25.8008 25.459">
 <g>
  <rect height="25.459" opacity="0" width="25.8008" x="0" y="0"/>
  <path d="M12.7148 25.4395C19.7266 25.4395 25.4395 19.7266 25.4395 12.7246C25.4395 5.71289 19.7266 0 12.7148 0C5.71289 0 0 5.71289 0 12.7246C0 19.7266 5.71289 25.4395 12.7148 25.4395Z" fill="white" fill-opacity="0.2125"/>
  <path d="M9.49219 9.10156C9.11133 9.10156 8.79883 8.78906 8.79883 8.41797C8.79883 8.02734 9.0918 7.72461 9.49219 7.72461L19.3848 7.72461C19.7852 7.72461 20.0879 8.02734 20.0879 8.41797C20.0879 8.80859 19.7852 9.10156 19.3848 9.10156ZM9.49219 17.7539C9.0918 17.7539 8.79883 17.4414 8.79883 17.0605C8.79883 16.6895 9.11133 16.377 9.49219 16.377L19.3848 16.377C19.7852 16.377 20.0879 16.6699 20.0879 17.0605C20.0879 17.4512 19.7852 17.7539 19.3848 17.7539ZM9.49219 13.4277C9.11133 13.4277 8.79883 13.1152 8.79883 12.7344C8.79883 12.3633 9.11133 12.0508 9.49219 12.0508L19.3848 12.0508C19.7852 12.0508 20.0879 12.3438 20.0879 12.7344C20.0879 13.125 19.7852 13.4277 19.3848 13.4277ZM6.38672 9.49219C5.79102 9.49219 5.3125 9.00391 5.3125 8.41797C5.3125 7.8125 5.79102 7.33398 6.38672 7.33398C6.99219 7.33398 7.4707 7.8125 7.4707 8.41797C7.4707 8.99414 6.98242 9.49219 6.38672 9.49219ZM6.38672 13.8184C5.79102 13.8184 5.3125 13.3398 5.3125 12.7344C5.3125 12.1387 5.79102 11.6602 6.38672 11.6602C6.98242 11.6602 7.4707 12.1484 7.4707 12.7344C7.4707 13.3301 6.98242 13.8184 6.38672 13.8184ZM6.38672 18.1445C5.79102 18.1445 5.3125 17.666 5.3125 17.0605C5.3125 16.4648 5.79102 15.9766 6.38672 15.9766C6.98242 15.9766 7.4707 16.4746 7.4707 17.0605C7.4707 17.666 6.99219 18.1445 6.38672 18.1445Z" fill="white" fill-opacity="0.85"/>
 </g>
</svg>
