<?xml version="1.0" encoding="UTF-8"?>
<!--Generator: Apple Native CoreSVG 341-->
<!DOCTYPE svg
PUBLIC "-//W3C//DTD SVG 1.1//EN"
       "http://www.w3.org/Graphics/SVG/1.1/DTD/svg11.dtd">
<svg version="1.1" xmlns="http://www.w3.org/2000/svg" xmlns:xlink="http://www.w3.org/1999/xlink" viewBox="0 0 25.0879 23.4668">
 <g>
  <rect height="23.4668" opacity="0" width="25.0879" x="0" y="0"/>
  <path d="M0 8.1543C0 13.457 4.55078 18.6523 11.543 23.1543C11.7871 23.3105 12.1289 23.4668 12.3633 23.4668C12.6074 23.4668 12.9492 23.3105 13.1934 23.1543C20.1758 18.6523 24.7266 13.457 24.7266 8.1543C24.7266 3.79883 21.7285 0.693359 17.7148 0.693359C15.4199 0.693359 13.4668 1.8457 12.3633 3.61328C11.2695 1.85547 9.31641 0.693359 7.01172 0.693359C2.99805 0.693359 0 3.79883 0 8.1543ZM1.72852 8.1543C1.72852 4.73633 3.96484 2.42188 6.99219 2.42188C9.3457 2.42188 10.7617 3.88672 11.6113 5.26367C11.9043 5.71289 12.0996 5.84961 12.3633 5.84961C12.6367 5.84961 12.8027 5.70312 13.125 5.26367C14.0137 3.90625 15.3906 2.42188 17.7344 2.42188C20.7617 2.42188 22.998 4.73633 22.998 8.1543C22.998 12.8711 18.0566 17.8906 12.5977 21.5234C12.4902 21.5918 12.4121 21.6504 12.3633 21.6504C12.3145 21.6504 12.2363 21.5918 12.1289 21.5234C6.66992 17.8906 1.72852 12.8711 1.72852 8.1543Z" fill="white" fill-opacity="0.85"/>
  <path d="M8.95508 16.1523C8.95508 16.8848 9.27734 17.207 9.94141 17.207L14.8145 17.207C15.4785 17.207 15.8008 16.8848 15.8008 16.1523L15.8008 12.3438C15.8008 11.6602 15.5078 11.3281 14.9219 11.2988L14.9219 10.1172C14.9219 8.41797 13.8965 7.28516 12.373 7.28516C10.8594 7.28516 9.83398 8.41797 9.83398 10.1172L9.83398 11.2988C9.24805 11.3281 8.95508 11.6602 8.95508 12.3438ZM10.7129 11.2891L10.7129 10.0391C10.7129 8.89648 11.377 8.14453 12.373 8.14453C13.3789 8.14453 14.043 8.89648 14.043 10.0391L14.043 11.2891Z" fill="white" fill-opacity="0.85"/>
 </g>
</svg>
