<svg version="1.1" xmlns="http://www.w3.org/2000/svg" xmlns:xlink="http://www.w3.org/1999/xlink" viewBox="0 0 32.9788 23.9941">
 <g>
  <rect height="23.9941" opacity="0" width="32.9788" x="0" y="0"/>
  <path d="M4.39468 23.4082L9.32632 22.4512C11.924 21.9531 13.0666 20.5664 13.0666 17.8027L13.0666 4.08203C13.0666 1.64062 11.3576 0 8.78921 0C6.63101 0 4.77554 1.55273 4.16031 3.84766L0.195464 18.916C-0.64438 22.0801 1.30874 23.9941 4.39468 23.4082ZM28.2326 23.4082C31.3185 23.9941 33.2716 22.0801 32.422 18.916L28.4572 3.84766C27.8419 1.55273 25.9962 0 23.8283 0C21.2599 0 19.5607 1.64062 19.5607 4.08203L19.5607 17.8027C19.5607 20.5664 20.6935 21.9531 23.2912 22.4512Z" fill="var(--color-tertiary)"/>
  <path d="M6.21109 17.7832C5.77164 17.8711 5.27359 17.5781 5.19546 17.1191C5.09781 16.6699 5.41031 16.1914 5.84976 16.1035L9.45328 15.3418L6.54312 12.7441C6.20132 12.4316 6.16226 11.8652 6.46499 11.5137C6.78726 11.1719 7.3732 11.1621 7.69546 11.4551L11.5236 14.9023L13.0666 14.5703L13.0666 16.3281ZM26.4064 17.7832L19.5607 16.3281L19.5607 14.5703L21.1037 14.9023L24.922 11.4551C25.2541 11.1621 25.84 11.1719 26.1525 11.5137C26.465 11.8652 26.4162 12.4316 26.0744 12.7441L23.174 15.3418L26.7677 16.1035C27.2072 16.1914 27.5197 16.6699 27.4318 17.1191C27.3439 17.5781 26.8556 17.8711 26.4064 17.7832Z" fill="var(--color-secondary)"/>
  <path d="M16.3087 15.6445L19.5607 16.3281L19.5607 14.5703L17.1681 14.0527L17.1681 1.44531C17.1681 0.976562 16.7873 0.576172 16.3087 0.576172C15.84 0.576172 15.4591 0.976562 15.4591 1.44531L15.4591 14.0527L13.0666 14.5703L13.0666 16.3281Z" fill="var(--color-primary)"/>
 </g>
</svg>
