<?xml version="1.0" encoding="UTF-8"?>
<!--Generator: Apple Native CoreSVG 341-->
<!DOCTYPE svg
PUBLIC "-//W3C//DTD SVG 1.1//EN"
       "http://www.w3.org/Graphics/SVG/1.1/DTD/svg11.dtd">
<svg version="1.1" xmlns="http://www.w3.org/2000/svg" xmlns:xlink="http://www.w3.org/1999/xlink" viewBox="0 0 23.3203 22.959">
 <g>
  <rect height="22.959" opacity="0" width="23.3203" x="0" y="0"/>
  <path d="M3.79883 22.959L19.1504 22.959C21.6797 22.959 22.959 21.6797 22.959 19.1992L22.959 3.76953C22.959 1.2793 21.6797 0 19.1504 0L3.79883 0C1.2793 0 0 1.26953 0 3.76953L0 19.1992C0 21.6992 1.2793 22.959 3.79883 22.959Z" fill="white" fill-opacity="0.2125"/>
  <path d="M7.7832 17.0312C7.37305 17.0312 7.11914 16.7578 7.11914 16.3379L7.11914 12.2949C7.11914 9.43359 8.35938 7.22656 10.9863 6.99219L10.9863 5.49805C10.9863 5.19531 11.1816 5.01953 11.4844 5.01953C11.7773 5.01953 11.9531 5.19531 11.9531 5.49805L11.9531 6.98242C14.6191 7.20703 15.8887 9.38477 15.8887 12.2949L15.8887 16.3379C15.8887 16.7578 15.6445 17.0312 15.2246 17.0312C14.8047 17.0312 14.5508 16.7578 14.5508 16.3379L14.5508 12.3828C14.5508 10.2344 13.8477 8.44727 11.9531 8.20312L11.9531 16.543C11.9531 16.8457 11.7773 17.0312 11.4844 17.0312C11.1816 17.0312 10.9863 16.8457 10.9863 16.543L10.9863 8.21289C9.17969 8.48633 8.4668 10.2344 8.4668 12.3828L8.4668 16.3379C8.4668 16.7578 8.21289 17.0312 7.7832 17.0312Z" fill="white" fill-opacity="0.85"/>
 </g>
</svg>
