<?xml version="1.0" encoding="UTF-8"?>
<!--Generator: Apple Native CoreSVG 341-->
<!DOCTYPE svg
PUBLIC "-//W3C//DTD SVG 1.1//EN"
       "http://www.w3.org/Graphics/SVG/1.1/DTD/svg11.dtd">
<svg version="1.1" xmlns="http://www.w3.org/2000/svg" xmlns:xlink="http://www.w3.org/1999/xlink" viewBox="0 0 25.8008 25.459">
 <g>
  <rect height="25.459" opacity="0" width="25.8008" x="0" y="0"/>
  <path d="M12.7148 25.4395C19.7266 25.4395 25.4395 19.7266 25.4395 12.7246C25.4395 5.71289 19.7266 0 12.7148 0C5.71289 0 0 5.71289 0 12.7246C0 19.7266 5.71289 25.4395 12.7148 25.4395Z" fill="white" fill-opacity="0.2125"/>
  <path d="M12.7246 17.2559C10.2344 17.2559 8.20312 15.2246 8.20312 12.7246C8.20312 10.2344 10.2344 8.20312 12.7246 8.20312C15.2246 8.20312 17.2559 10.2344 17.2559 12.7246C17.2559 15.2246 15.2246 17.2559 12.7246 17.2559ZM12.7344 6.96289C12.2461 6.96289 11.875 6.5918 11.875 6.08398C11.875 5.5957 12.2461 5.22461 12.7344 5.22461C13.2324 5.22461 13.5938 5.5957 13.5938 6.08398C13.5938 6.5918 13.2324 6.96289 12.7344 6.96289ZM16.0645 7.8418C15.5566 7.8418 15.1855 7.48047 15.1855 6.97266C15.1855 6.48438 15.5566 6.11328 16.0645 6.11328C16.5527 6.11328 16.9238 6.48438 16.9238 6.97266C16.9238 7.48047 16.5527 7.8418 16.0645 7.8418ZM18.4863 10.2832C17.9883 10.2832 17.6172 9.91211 17.6172 9.41406C17.6172 8.91602 17.9883 8.54492 18.4863 8.54492C18.9844 8.54492 19.3457 8.91602 19.3457 9.41406C19.3457 9.91211 18.9844 10.2832 18.4863 10.2832ZM19.375 13.584C18.877 13.584 18.5059 13.2129 18.5059 12.7246C18.5059 12.2266 18.877 11.8652 19.375 11.8652C19.8633 11.8652 20.2344 12.2266 20.2344 12.7246C20.2344 13.2129 19.8633 13.584 19.375 13.584ZM18.4863 16.8945C17.9883 16.8945 17.6172 16.5234 17.6172 16.0352C17.6172 15.5273 17.9883 15.166 18.4863 15.166C18.9844 15.166 19.3457 15.5273 19.3457 16.0352C19.3457 16.5234 18.9844 16.8945 18.4863 16.8945ZM16.0645 19.3262C15.5566 19.3262 15.1855 18.9551 15.1855 18.4668C15.1855 17.9688 15.5566 17.5977 16.0645 17.5977C16.5527 17.5977 16.9238 17.9688 16.9238 18.4668C16.9238 18.9551 16.5527 19.3262 16.0645 19.3262ZM12.7344 20.2148C12.2461 20.2148 11.875 19.8438 11.875 19.3555C11.875 18.8477 12.2461 18.4863 12.7344 18.4863C13.2324 18.4863 13.5938 18.8477 13.5938 19.3555C13.5938 19.8438 13.2324 20.2148 12.7344 20.2148ZM9.41406 19.3262C8.91602 19.3262 8.55469 18.9551 8.55469 18.4668C8.55469 17.9688 8.91602 17.5977 9.41406 17.5977C9.91211 17.5977 10.2832 17.9688 10.2832 18.4668C10.2832 18.9551 9.91211 19.3262 9.41406 19.3262ZM6.98242 16.8945C6.49414 16.8945 6.12305 16.5234 6.12305 16.0352C6.12305 15.5273 6.49414 15.166 6.98242 15.166C7.49023 15.166 7.85156 15.5273 7.85156 16.0352C7.85156 16.5234 7.49023 16.8945 6.98242 16.8945ZM6.09375 13.584C5.60547 13.584 5.23438 13.2129 5.23438 12.7246C5.23438 12.2266 5.60547 11.8652 6.09375 11.8652C6.60156 11.8652 6.97266 12.2266 6.97266 12.7246C6.97266 13.2129 6.60156 13.584 6.09375 13.584ZM6.98242 10.2832C6.49414 10.2832 6.12305 9.91211 6.12305 9.41406C6.12305 8.91602 6.49414 8.54492 6.98242 8.54492C7.49023 8.54492 7.85156 8.91602 7.85156 9.41406C7.85156 9.91211 7.49023 10.2832 6.98242 10.2832ZM9.41406 7.8418C8.91602 7.8418 8.55469 7.48047 8.55469 6.97266C8.55469 6.48438 8.91602 6.11328 9.41406 6.11328C9.91211 6.11328 10.2832 6.48438 10.2832 6.97266C10.2832 7.48047 9.91211 7.8418 9.41406 7.8418Z" fill="white" fill-opacity="0.85"/>
 </g>
</svg>
