<?xml version="1.0" encoding="UTF-8"?>
<!--Generator: Apple Native CoreSVG 341-->
<!DOCTYPE svg
PUBLIC "-//W3C//DTD SVG 1.1//EN"
       "http://www.w3.org/Graphics/SVG/1.1/DTD/svg11.dtd">
<svg version="1.1" xmlns="http://www.w3.org/2000/svg" xmlns:xlink="http://www.w3.org/1999/xlink" viewBox="0 0 25.8008 25.459">
 <g>
  <rect height="25.459" opacity="0" width="25.8008" x="0" y="0"/>
  <path d="M12.7148 25.459C19.7266 25.459 25.4395 19.7461 25.4395 12.7344C25.4395 5.73242 19.7266 0.0195312 12.7148 0.0195312C5.71289 0.0195312 0 5.73242 0 12.7344C0 19.7461 5.71289 25.459 12.7148 25.459Z" fill="white" fill-opacity="0.2125"/>
  <path d="M8.39844 14.0723C7.62695 13.1055 7.17773 11.8652 7.17773 10.4688C7.17773 8.02734 8.53516 5.95703 10.5273 5.07812C10.8105 4.95117 11.0645 4.98047 11.2012 5.13672C11.3086 5.29297 11.3379 5.51758 11.2109 5.76172C10.9863 6.2207 10.8496 7.00195 10.8496 7.76367C10.8496 10.7031 12.7246 12.5391 15.7129 12.5391C16.4551 12.5391 17.0605 12.4316 17.5781 12.2266C17.8223 12.1387 18.0176 12.168 18.1348 12.2754C18.2715 12.4316 18.3008 12.6562 18.1836 12.9102C17.9883 13.3398 17.7539 13.7402 17.4512 14.0723ZM6.36719 15.8105C6.12305 15.8105 5.9375 15.6445 5.9375 15.3906C5.9375 15.1465 6.12305 14.9609 6.36719 14.9609L20.3516 14.9609C20.6055 14.9609 20.7812 15.1367 20.7812 15.3906C20.7812 15.6445 20.6055 15.8105 20.3516 15.8105ZM5.05859 17.5586C4.81445 17.5586 4.62891 17.373 4.62891 17.1191C4.62891 16.8848 4.81445 16.6992 5.05859 16.6992L19.0527 16.6992C19.2969 16.6992 19.4824 16.8848 19.4824 17.1191C19.4824 17.373 19.2969 17.5586 19.0527 17.5586ZM6.36719 19.2969C6.12305 19.2969 5.9375 19.1211 5.9375 18.8672C5.9375 18.623 6.12305 18.4473 6.36719 18.4473L20.3516 18.4473C20.6055 18.4473 20.7812 18.6133 20.7812 18.8672C20.7812 19.1211 20.6055 19.2969 20.3516 19.2969Z" fill="white" fill-opacity="0.85"/>
 </g>
</svg>
