<?xml version="1.0" encoding="UTF-8"?>
<!--Generator: Apple Native CoreSVG 341-->
<!DOCTYPE svg
PUBLIC "-//W3C//DTD SVG 1.1//EN"
       "http://www.w3.org/Graphics/SVG/1.1/DTD/svg11.dtd">
<svg version="1.1" xmlns="http://www.w3.org/2000/svg" xmlns:xlink="http://www.w3.org/1999/xlink" viewBox="0 0 35.7715 32.0801">
 <g>
  <rect height="32.0801" opacity="0" width="35.7715" x="0" y="0"/>
  <path d="M14.1602 9.80469C13.75 10.8008 13.4863 12.0703 13.4863 13.3203C13.4863 19.5605 17.041 23.1055 23.2715 23.1055C24.5605 23.1055 25.8496 22.8223 26.5918 22.5586C27.207 22.3633 27.5879 22.793 27.2852 23.418C26.6153 24.8843 25.5849 26.2072 24.2824 27.2461L21.3011 27.2461C22.6878 26.6218 23.8695 25.6602 24.7461 24.4824C24.3359 24.5898 23.8281 24.668 23.2715 24.668C16.1719 24.668 11.9336 20.4102 11.9336 13.3203C11.9336 12.6758 12.0117 12.1094 12.1582 11.5332C10.1172 13.0371 8.37891 15.6055 8.37891 18.877C8.37891 22.606 10.6184 25.8203 13.8255 27.2461L10.8484 27.2461C8.39455 25.2838 6.82617 22.2637 6.82617 18.877C6.82617 14.1797 9.85352 10.4785 13.3301 9.01367C13.9648 8.7207 14.4238 9.12109 14.1602 9.80469Z" fill="white" fill-opacity="0.425"/>
  <path d="M2.49023 28.9551L32.9199 28.9551C33.4277 28.9551 33.8574 28.5742 33.8574 28.1055C33.8574 27.627 33.4277 27.2461 32.9199 27.2461L2.49023 27.2461C1.98242 27.2461 1.5625 27.627 1.5625 28.1055C1.5625 28.5742 1.98242 28.9551 2.49023 28.9551Z" fill="white" fill-opacity="0.85"/>
  <path d="M24.1504 13.4766L22.4805 11.5039L20.6738 9.6875C20.5176 9.52148 20.3027 9.43359 20.0977 9.43359C19.668 9.43359 19.3457 9.73633 19.3457 10.166C19.3457 10.4004 19.4336 10.5762 19.6289 10.7617L23.5742 14.502C23.7988 14.6973 23.9648 14.7754 24.1699 14.7754C24.3652 14.7754 24.5312 14.6973 24.7559 14.502L28.7012 10.7617C28.8965 10.5762 28.9844 10.4004 28.9844 10.166C28.9844 9.73633 28.6621 9.43359 28.2324 9.43359C28.0273 9.43359 27.8125 9.52148 27.6562 9.6875L25.9473 11.4062ZM24.8828 13.0762L25.0293 10.5762L25.0293 4.04297C25.0293 3.51562 24.6289 3.0957 24.1504 3.0957C23.6816 3.0957 23.2812 3.51562 23.2812 4.04297L23.2812 10.5762L23.4277 13.0762C23.457 13.4766 23.75 13.7988 24.1504 13.7988C24.5605 13.7988 24.8535 13.4766 24.8828 13.0762Z" fill="white" fill-opacity="0.85"/>
 </g>
</svg>
