<?xml version="1.0" encoding="UTF-8"?>
<!--Generator: Apple Native CoreSVG 341-->
<!DOCTYPE svg
PUBLIC "-//W3C//DTD SVG 1.1//EN"
       "http://www.w3.org/Graphics/SVG/1.1/DTD/svg11.dtd">
<svg version="1.1" xmlns="http://www.w3.org/2000/svg" xmlns:xlink="http://www.w3.org/1999/xlink" viewBox="0 0 35.7715 29.6777">
 <g>
  <rect height="29.6777" opacity="0" width="35.7715" x="0" y="0"/>
  <path d="M14.1602 8.60352C13.75 9.59961 13.4863 10.8691 13.4863 12.1191C13.4863 18.3594 17.041 21.9043 23.2715 21.9043C24.5605 21.9043 25.8496 21.6211 26.5918 21.3574C27.207 21.1621 27.5879 21.5918 27.2852 22.2168C26.8821 23.0991 26.3485 23.9295 25.704 24.6777L9.43584 24.6777C7.80714 22.8034 6.82617 20.3542 6.82617 17.6758C6.82617 12.9785 9.85352 9.27734 13.3301 7.8125C13.9648 7.51953 14.4238 7.91992 14.1602 8.60352Z" fill="white" fill-opacity="0.85"/>
  <path d="M2.49023 27.7539L32.9199 27.7539C33.4277 27.7539 33.8574 27.373 33.8574 26.9043C33.8574 26.4258 33.4277 26.0449 32.9199 26.0449L2.49023 26.0449C1.98242 26.0449 1.5625 26.4258 1.5625 26.9043C1.5625 27.373 1.98242 27.7539 2.49023 27.7539Z" fill="white" fill-opacity="0.85"/>
  <path d="M24.1504 12.2754L22.4805 10.3027L20.6738 8.48633C20.5176 8.32031 20.3027 8.23242 20.0977 8.23242C19.668 8.23242 19.3457 8.53516 19.3457 8.96484C19.3457 9.19922 19.4336 9.375 19.6289 9.56055L23.5742 13.3008C23.7988 13.4961 23.9648 13.5742 24.1699 13.5742C24.3652 13.5742 24.5312 13.4961 24.7559 13.3008L28.7012 9.56055C28.8965 9.375 28.9844 9.19922 28.9844 8.96484C28.9844 8.53516 28.6621 8.23242 28.2324 8.23242C28.0273 8.23242 27.8125 8.32031 27.6562 8.48633L25.9473 10.2051ZM24.8828 11.875L25.0293 9.375L25.0293 2.8418C25.0293 2.31445 24.6289 1.89453 24.1504 1.89453C23.6816 1.89453 23.2812 2.31445 23.2812 2.8418L23.2812 9.375L23.4277 11.875C23.457 12.2754 23.75 12.5977 24.1504 12.5977C24.5605 12.5977 24.8535 12.2754 24.8828 11.875Z" fill="white" fill-opacity="0.85"/>
 </g>
</svg>
