<?xml version="1.0" encoding="UTF-8"?>
<!--Generator: Apple Native CoreSVG 341-->
<!DOCTYPE svg
PUBLIC "-//W3C//DTD SVG 1.1//EN"
       "http://www.w3.org/Graphics/SVG/1.1/DTD/svg11.dtd">
<svg version="1.1" xmlns="http://www.w3.org/2000/svg" xmlns:xlink="http://www.w3.org/1999/xlink" viewBox="0 0 25.8008 25.459">
 <g>
  <rect height="25.459" opacity="0" width="25.8008" x="0" y="0"/>
  <path d="M12.7148 25.459C19.7266 25.459 25.4395 19.7461 25.4395 12.7344C25.4395 5.73242 19.7266 0.0195312 12.7148 0.0195312C5.71289 0.0195312 0 5.73242 0 12.7344C0 19.7461 5.71289 25.459 12.7148 25.459Z" fill="white" fill-opacity="0.2125"/>
  <path d="M11.2695 10.8008L13.6719 7.65625C14.1797 6.99219 14.9414 7.01172 15.4395 7.65625L17.832 10.8008C17.2852 10.9961 16.8457 11.4355 16.4355 11.4355C15.918 11.4355 15.4785 10.6641 14.5508 10.6641C13.623 10.6641 13.1738 11.4355 12.6562 11.4355C12.2363 11.4355 11.8066 10.9863 11.2695 10.8008ZM8.4082 16.9727C7.49023 16.9727 7.24609 16.084 7.71484 15.4688L10.7422 11.5039C11.1719 11.3672 11.8164 12.1582 12.6562 12.1582C13.6328 12.1582 13.9941 11.3965 14.5508 11.3965C15.1074 11.3965 15.4688 12.1582 16.4355 12.1582C17.2754 12.1582 17.9199 11.377 18.3496 11.5039L21.3672 15.4688C21.8457 16.0938 21.5918 16.9727 20.6836 16.9727ZM4.75586 16.9727C3.81836 16.9727 3.56445 16.0645 4.10156 15.3906L8.41797 10.0195C8.93555 9.39453 9.62891 9.39453 10.1367 10.0195L10.4688 10.4199L6.99219 14.9316C6.50391 15.5762 6.47461 16.3867 6.79688 16.9727Z" fill="white" fill-opacity="0.85"/>
 </g>
</svg>
