<svg version="1.1" xmlns="http://www.w3.org/2000/svg" xmlns:xlink="http://www.w3.org/1999/xlink" viewBox="0 0 25.8008 25.459">
 <g>
  <rect height="25.459" opacity="0" width="25.8008" x="0" y="0"/>
  <path d="M12.7148 25.4395C19.7266 25.4395 25.4395 19.7266 25.4395 12.7246C25.4395 5.71289 19.7266 0 12.7148 0C5.71289 0 0 5.71289 0 12.7246C0 19.7266 5.71289 25.4395 12.7148 25.4395Z" fill="var(--color-tertiary)"/>
  <path d="M13.0273 20.9277C12.4219 20.9277 12.2266 20.459 12.0117 19.7656L10.752 15.6445C10.6348 15.2148 10.6738 14.9805 10.9277 14.7168L18.3887 6.74805C18.4668 6.65039 18.4863 6.54297 18.3984 6.48438C18.3301 6.42578 18.2324 6.41602 18.1348 6.49414L10.1953 13.9844C9.92188 14.2383 9.67773 14.2578 9.26758 14.1309L5.05859 12.8613C4.39453 12.6562 3.95508 12.4414 3.95508 11.8555C3.95508 11.3672 4.36523 11.0254 4.93164 10.8203L17.666 5.94727C17.959 5.83984 18.2031 5.77148 18.4277 5.77148C18.8477 5.77148 19.1113 6.03516 19.1113 6.45508C19.1113 6.67969 19.043 6.92383 18.9355 7.2168L14.0918 19.9023C13.8477 20.5371 13.5059 20.9277 13.0273 20.9277Z" fill="var(--color-primary)"/>
 </g>
</svg>
