<?xml version="1.0" encoding="UTF-8"?>
<!--Generator: Apple Native CoreSVG 341-->
<!DOCTYPE svg
PUBLIC "-//W3C//DTD SVG 1.1//EN"
       "http://www.w3.org/Graphics/SVG/1.1/DTD/svg11.dtd">
<svg version="1.1" xmlns="http://www.w3.org/2000/svg" xmlns:xlink="http://www.w3.org/1999/xlink" viewBox="0 0 26.7974 29.1895">
 <g>
  <rect height="29.1895" opacity="0" width="26.7974" x="0" y="0"/>
  <path d="M5.48853 29.1895L20.928 29.1895C22.0803 29.1895 22.7835 28.623 22.7835 27.7246C22.7835 24.7852 19.1116 20.7227 13.2034 20.7227C7.29517 20.7227 3.63306 24.7852 3.63306 27.7246C3.63306 28.623 4.33619 29.1895 5.48853 29.1895ZM13.2229 18.6816C15.6741 18.6816 17.7639 16.4941 17.7639 13.6523C17.7639 10.8691 15.6643 8.75977 13.2229 8.75977C10.7815 8.75977 8.66236 10.9082 8.67212 13.6719C8.67212 16.4941 10.762 18.6816 13.2229 18.6816Z" fill="white" fill-opacity="0.425"/>
  <path d="M1.45533 18.9648C1.65064 19.4141 2.19751 19.7559 2.78345 19.7559C4.844 19.7559 6.16236 17.2461 6.16236 13.6719C6.16236 10.0781 4.844 7.57812 2.78345 7.57812C2.19751 7.57812 1.65064 7.91016 1.45533 8.35938C1.35767 8.61328 1.62134 8.86719 1.85572 8.76953C2.08033 8.70117 2.17798 8.65234 2.51978 8.65234C3.94556 8.65234 4.91236 10.957 4.91236 13.6719C4.91236 16.377 3.94556 18.6719 2.51978 18.6719C2.17798 18.6719 2.08033 18.6328 1.85572 18.5547C1.62134 18.457 1.35767 18.7109 1.45533 18.9648ZM24.9807 18.9648C25.0881 18.7109 24.8147 18.457 24.5803 18.5547C24.3557 18.6328 24.2581 18.6719 23.9163 18.6719C22.5002 18.6719 21.5237 16.377 21.5237 13.6719C21.5237 10.957 22.5002 8.65234 23.9163 8.65234C24.2581 8.65234 24.3557 8.70117 24.5803 8.76953C24.8147 8.86719 25.0881 8.61328 24.9807 8.35938C24.7854 7.91016 24.2385 7.57812 23.6526 7.57812C21.592 7.57812 20.2737 10.0781 20.2737 13.6719C20.2737 17.2461 21.592 19.7559 23.6526 19.7559C24.2385 19.7559 24.7854 19.4141 24.9807 18.9648ZM18.5256 1.5332C18.2717 1.42578 18.0178 1.69922 18.1057 1.93359C18.1838 2.14844 18.2327 2.25586 18.2327 2.59766C18.2327 4.01367 15.9377 4.99023 13.2229 4.99023C10.5081 4.99023 8.20337 4.01367 8.20337 2.59766C8.20337 2.25586 8.2522 2.14844 8.33033 1.93359C8.41822 1.69922 8.16431 1.42578 7.91041 1.5332C7.46119 1.72852 7.12916 2.26562 7.12916 2.86133C7.12916 4.92188 9.62916 6.24023 13.2229 6.24023C16.8069 6.24023 19.3069 4.92188 19.3069 2.86133C19.3069 2.26562 18.9749 1.72852 18.5256 1.5332Z" fill="white" fill-opacity="0.85"/>
  <path d="M0.117437 17.1973C0.332281 17.4316 0.654546 17.5879 1.02564 17.5879C2.23658 17.5879 3.21314 16.0156 3.21314 13.6719C3.21314 11.3184 2.23658 9.74609 1.02564 9.74609C0.654546 9.74609 0.332281 9.90234 0.117437 10.127C-0.156001 10.4297 0.0979056 10.791 0.371343 10.7031C0.508062 10.6445 0.595952 10.625 0.71314 10.625C1.54322 10.625 2.16822 11.9922 2.16822 13.6719C2.16822 15.3418 1.54322 16.6992 0.71314 16.6992C0.595952 16.6992 0.508062 16.6797 0.371343 16.6211C0.0979056 16.543-0.156001 16.8945 0.117437 17.1973ZM26.3186 17.1973C26.592 16.8945 26.3479 16.543 26.0745 16.6211C25.928 16.6797 25.8401 16.6992 25.7229 16.6992C24.8928 16.6992 24.2678 15.3418 24.2678 13.6719C24.2678 11.9922 24.8928 10.625 25.7229 10.625C25.8401 10.625 25.928 10.6445 26.0745 10.7031C26.3479 10.791 26.592 10.4297 26.3186 10.127C26.1038 9.90234 25.7815 9.74609 25.4104 9.74609C24.1995 9.74609 23.2229 11.3184 23.2229 13.6719C23.2229 16.0156 24.1995 17.5879 25.4104 17.5879C25.7815 17.5879 26.1038 17.4316 26.3186 17.1973ZM16.7581 0.195312C16.4553-0.0683594 16.094 0.166016 16.1819 0.439453C16.2405 0.585938 16.26 0.664062 16.26 0.78125C16.26 1.61133 14.8928 2.25586 13.2229 2.25586C11.5432 2.25586 10.176 1.61133 10.176 0.78125C10.176 0.664062 10.1956 0.585938 10.2542 0.439453C10.342 0.166016 9.98072-0.0683594 9.67798 0.195312C9.45337 0.410156 9.29712 0.732422 9.29712 1.10352C9.29712 2.30469 10.8694 3.28125 13.2229 3.28125C15.5667 3.28125 17.1389 2.30469 17.1389 1.10352C17.1389 0.732422 16.9827 0.410156 16.7581 0.195312Z" fill="white" fill-opacity="0.85"/>
 </g>
</svg>
