<?xml version="1.0" encoding="UTF-8"?>
<!--Generator: Apple Native CoreSVG 341-->
<!DOCTYPE svg
PUBLIC "-//W3C//DTD SVG 1.1//EN"
       "http://www.w3.org/Graphics/SVG/1.1/DTD/svg11.dtd">
<svg version="1.1" xmlns="http://www.w3.org/2000/svg" xmlns:xlink="http://www.w3.org/1999/xlink" viewBox="0 0 25.8008 25.459">
 <g>
  <rect height="25.459" opacity="0" width="25.8008" x="0" y="0"/>
  <path d="M25.4395 12.7246C25.4395 19.7266 19.7266 25.4395 12.7148 25.4395C5.71289 25.4395 0 19.7266 0 12.7246C0 5.71289 5.71289 0 12.7148 0C19.7266 0 25.4395 5.71289 25.4395 12.7246ZM11.25 5.82031C10.1465 5.82031 9.42383 6.39648 9.42383 7.54883L9.42383 7.99805L9.13086 7.99805C6.5918 7.99805 5.15625 9.32617 5.15625 11.8555L5.15625 16.4062C5.15625 17.7051 5.81055 18.3301 7.10938 18.3301L18.3398 18.3301C19.6387 18.3301 20.3027 17.7051 20.3027 16.4062L20.3027 11.8555C20.3027 9.32617 18.8574 7.99805 16.3184 7.99805L16.0254 7.99805L16.0254 7.54883C16.0254 6.39648 15.3418 5.82031 14.209 5.82031ZM13.75 13.3398C13.8281 13.4863 13.877 13.6523 13.9746 13.7695C14.082 13.9453 14.2383 14.0625 14.4141 14.1895C14.7266 14.4629 15.0488 14.7363 15.0488 15.2637C15.0488 15.8691 14.6094 16.3086 14.0039 16.3086C13.7012 16.3086 13.4863 16.2305 13.2715 16.1621C13.0957 16.0938 12.9297 16.0449 12.7246 16.0449C12.5098 16.0449 12.3535 16.0938 12.1777 16.1621C11.9727 16.2305 11.748 16.3086 11.4551 16.3086C10.8398 16.3086 10.4102 15.8691 10.4102 15.2637C10.4102 14.7363 10.7324 14.4629 11.0449 14.1895C11.2207 14.0625 11.377 13.9453 11.4941 13.75C11.5625 13.6328 11.6406 13.4863 11.7188 13.3398C11.9238 12.8809 12.0996 12.4121 12.7246 12.4121C13.3496 12.4121 13.5254 12.8809 13.75 13.3398ZM10.9863 12.8516C10.9863 13.4766 10.6543 13.9355 10.2344 13.9355C9.82422 13.9355 9.51172 13.4766 9.51172 12.8516C9.51172 12.2559 9.82422 11.7773 10.2344 11.7773C10.6543 11.7773 10.9863 12.2559 10.9863 12.8516ZM15.9473 12.8516C15.9473 13.4766 15.6445 13.9355 15.2148 13.9355C14.8047 13.9355 14.4727 13.4766 14.4727 12.8516C14.4727 12.2559 14.8047 11.7773 15.2148 11.7773C15.6445 11.7773 15.9473 12.2559 15.9473 12.8516ZM12.4609 11.0938C12.4609 11.6992 12.1582 12.168 11.7383 12.168C11.3184 12.168 10.9961 11.6992 10.9961 11.0938C10.9961 10.4785 11.3184 10.0293 11.7383 10.0293C12.1582 10.0293 12.4609 10.4785 12.4609 11.0938ZM14.4531 11.0938C14.4531 11.6992 14.1406 12.168 13.7207 12.168C13.3008 12.168 12.9883 11.6992 12.9883 11.0938C12.9883 10.4785 13.3008 10.0293 13.7207 10.0293C14.1406 10.0293 14.4531 10.4785 14.4531 11.0938ZM15.0293 7.49023L15.0293 7.99805L10.4297 7.99805L10.4297 7.49023C10.4297 7.04102 10.7324 6.74805 11.2109 6.74805L14.3066 6.74805C14.7461 6.74805 15.0293 7.04102 15.0293 7.49023Z" fill="white" fill-opacity="0.85"/>
 </g>
</svg>
