<?xml version="1.0" encoding="UTF-8"?>
<!--Generator: Apple Native CoreSVG 341-->
<!DOCTYPE svg
PUBLIC "-//W3C//DTD SVG 1.1//EN"
       "http://www.w3.org/Graphics/SVG/1.1/DTD/svg11.dtd">
<svg version="1.1" xmlns="http://www.w3.org/2000/svg" xmlns:xlink="http://www.w3.org/1999/xlink" viewBox="0 0 29.1504 23.8574">
 <g>
  <rect height="23.8574" opacity="0" width="29.1504" x="0" y="0"/>
  <path d="M20.6641 3.33984L20.6641 4.16016L21.2207 4.16016C26.0742 4.16016 28.7891 6.69922 28.7891 11.5234L28.7891 20.1953C28.7891 22.6465 27.5586 23.8477 25.0879 23.8477L3.70117 23.8477C1.23047 23.8477 0 22.6465 0 20.1953L0 11.5234C0 6.69922 2.71484 4.16016 7.56836 4.16016L8.125 4.16016L8.125 3.33984C8.125 1.13281 9.49219 0 11.5527 0L17.2266 0C19.3848 0 20.6641 1.13281 20.6641 3.33984ZM12.4512 14.3457C12.3242 14.6191 12.1875 14.8926 12.041 15.1367C11.8164 15.4688 11.5039 15.7227 11.1914 15.9668C10.6152 16.4551 9.98047 16.9824 9.98047 17.998C9.98047 19.1699 10.7812 20 11.9531 20C12.5293 20 12.9492 19.8438 13.3594 19.6875C13.6914 19.5605 14.0137 19.4629 14.3945 19.4629C14.7754 19.4629 15.0879 19.5605 15.4297 19.6875C15.8301 19.8438 16.25 20 16.8359 20C17.998 20 18.7988 19.1699 18.7988 17.998C18.7988 16.9824 18.1738 16.4551 17.5977 15.9668C17.2852 15.7227 16.9727 15.4785 16.7578 15.1562C16.6016 14.9023 16.4648 14.6191 16.3379 14.3457C15.9375 13.4473 15.5762 12.5684 14.3945 12.5684C13.2129 12.5684 12.8516 13.457 12.4512 14.3457ZM8.26172 13.4375C8.26172 14.6094 8.86719 15.4785 9.6582 15.4785C10.459 15.4785 11.0645 14.6094 11.0645 13.4375C11.0645 12.2559 10.459 11.377 9.6582 11.377C8.86719 11.377 8.26172 12.2559 8.26172 13.4375ZM17.7246 13.4375C17.7246 14.6094 18.3398 15.4785 19.1309 15.4785C19.9316 15.4785 20.5273 14.6094 20.5273 13.4375C20.5273 12.2559 19.9316 11.377 19.1309 11.377C18.3398 11.377 17.7246 12.2559 17.7246 13.4375ZM11.0938 10.0586C11.0938 11.2305 11.709 12.1191 12.5 12.1191C13.3008 12.1191 13.8965 11.2305 13.8965 10.0586C13.8965 8.89648 13.3008 8.02734 12.5 8.02734C11.709 8.02734 11.0938 8.88672 11.0938 10.0586ZM14.8926 10.0586C14.8926 11.2305 15.498 12.1191 16.2891 12.1191C17.0898 12.1191 17.6953 11.2305 17.6953 10.0586C17.6953 8.88672 17.0898 8.02734 16.2891 8.02734C15.498 8.02734 14.8926 8.89648 14.8926 10.0586ZM11.5234 1.58203C10.4688 1.58203 9.79492 2.2168 9.79492 3.23242L9.79492 4.16016L18.9941 4.16016L18.9941 3.23242C18.9941 2.2168 18.3203 1.58203 17.2656 1.58203Z" fill="white" fill-opacity="0.85"/>
 </g>
</svg>
