<?xml version="1.0" encoding="UTF-8"?>
<!--Generator: Apple Native CoreSVG 341-->
<!DOCTYPE svg
PUBLIC "-//W3C//DTD SVG 1.1//EN"
       "http://www.w3.org/Graphics/SVG/1.1/DTD/svg11.dtd">
<svg version="1.1" xmlns="http://www.w3.org/2000/svg" xmlns:xlink="http://www.w3.org/1999/xlink" viewBox="0 0 25.8008 25.459">
 <g>
  <rect height="25.459" opacity="0" width="25.8008" x="0" y="0"/>
  <path d="M12.7148 25.459C19.7266 25.459 25.4395 19.7461 25.4395 12.7344C25.4395 5.73242 19.7266 0.0195312 12.7148 0.0195312C5.71289 0.0195312 0 5.73242 0 12.7344C0 19.7461 5.71289 25.459 12.7148 25.459Z" fill="white" fill-opacity="0.2125"/>
  <path d="M8.7793 16.6016C6.66992 14.4922 5.08789 12.0117 5.08789 9.9707C5.08789 9.07227 5.41016 8.27148 6.00586 7.69531C6.42578 7.30469 7.00195 6.92383 7.48047 6.92383C7.87109 6.92383 8.13477 7.2168 8.4668 7.69531L9.67773 9.38477C9.96094 9.76562 10.0488 10.0684 10.0488 10.3418C10.0488 10.5957 9.99023 10.7617 9.79492 11.0742L9.13086 12.2266C9.08203 12.3242 9.02344 12.4023 9.02344 12.5C9.02344 12.6172 9.07227 12.7246 9.10156 12.8027C9.38477 13.3594 9.91211 14.043 10.5859 14.7168C11.2695 15.4004 12.0312 15.9961 12.5879 16.2695C12.7246 16.3184 12.8125 16.3477 12.9492 16.3477C13.0469 16.3477 13.1055 16.3281 13.2324 16.2695L14.3848 15.625C14.7656 15.4102 14.9512 15.3809 15.166 15.3809C15.4297 15.3809 15.625 15.4395 16.0645 15.7422L17.8027 17.002C18.291 17.334 18.4766 17.6172 18.4766 17.9102C18.4766 18.3105 18.3105 18.7402 17.7637 19.3359C17.2168 19.9414 16.3965 20.3223 15.4395 20.3223C13.418 20.3223 10.8789 18.7012 8.7793 16.6016ZM13.5254 11.6699C13.125 11.6699 12.9199 11.4453 12.9199 11.1133L12.9199 6.34766C12.9199 6.01562 13.125 5.78125 13.5254 5.78125L14.2578 5.78125C14.668 5.78125 14.873 6.01562 14.873 6.34766L14.873 11.1133C14.873 11.4453 14.668 11.6699 14.2578 11.6699ZM16.875 11.6699C16.4648 11.6699 16.2598 11.4453 16.2598 11.1133L16.2598 6.34766C16.2598 6.01562 16.4648 5.78125 16.875 5.78125L17.6074 5.78125C17.998 5.78125 18.2031 6.01562 18.2031 6.34766L18.2031 11.1133C18.2031 11.4453 17.998 11.6699 17.6074 11.6699Z" fill="white" fill-opacity="0.85"/>
 </g>
</svg>
