<?xml version="1.0" encoding="UTF-8"?>
<!--Generator: Apple Native CoreSVG 341-->
<!DOCTYPE svg
PUBLIC "-//W3C//DTD SVG 1.1//EN"
       "http://www.w3.org/Graphics/SVG/1.1/DTD/svg11.dtd">
<svg version="1.1" xmlns="http://www.w3.org/2000/svg" xmlns:xlink="http://www.w3.org/1999/xlink" viewBox="0 0 25.8008 25.459">
 <g>
  <rect height="25.459" opacity="0" width="25.8008" x="0" y="0"/>
  <path d="M12.7148 25.459C19.7266 25.459 25.4395 19.7461 25.4395 12.7344C25.4395 5.73242 19.7266 0.0195312 12.7148 0.0195312C5.71289 0.0195312 0 5.73242 0 12.7344C0 19.7461 5.71289 25.459 12.7148 25.459Z" fill="white" fill-opacity="0.2125"/>
  <path d="M12.7344 9.46289C15.7129 9.46289 18.6328 10.1172 20.0781 11.5527C20.752 12.2168 21.0645 13.0762 21.0254 13.8965C20.9863 14.6875 20.8008 15.1172 20.5176 15.4004C20.3027 15.6055 19.9707 15.6738 19.4043 15.5762L17.2852 15.2148C16.748 15.127 16.5723 15.0391 16.3867 14.8535C16.2305 14.6973 16.1328 14.541 16.0156 14.1211L15.6445 12.8711C15.5957 12.7246 15.5664 12.666 15.5078 12.5977C15.4004 12.5098 15.3125 12.4707 15.1953 12.4023C14.5898 12.1973 13.6523 12.0801 12.6855 12.0801C11.7383 12.0801 10.8594 12.1973 10.2734 12.3828C10.1953 12.4219 10.0977 12.4707 10 12.5586C9.94141 12.6074 9.91211 12.6953 9.89258 12.8223L9.54102 14.1016C9.44336 14.4531 9.375 14.6094 9.20898 14.7852C9.00391 14.9902 8.73047 15.127 8.25195 15.2148L6.2207 15.5469C5.63477 15.6445 5.25391 15.6543 4.9707 15.3906C4.63867 15.0586 4.49219 14.3848 4.48242 13.7988C4.46289 12.9785 4.80469 12.1875 5.44922 11.5527C6.88477 10.1074 9.74609 9.46289 12.7344 9.46289Z" fill="white" fill-opacity="0.85"/>
 </g>
</svg>
