<?xml version="1.0" encoding="UTF-8"?>
<!--Generator: Apple Native CoreSVG 341-->
<!DOCTYPE svg
PUBLIC "-//W3C//DTD SVG 1.1//EN"
       "http://www.w3.org/Graphics/SVG/1.1/DTD/svg11.dtd">
<svg version="1.1" xmlns="http://www.w3.org/2000/svg" xmlns:xlink="http://www.w3.org/1999/xlink" viewBox="0 0 32.3828 23.8184">
 <g>
  <rect height="23.8184" opacity="0" width="32.3828" x="0" y="0"/>
  <path d="M0 11.9043C0 19.1211 4.89258 23.8086 12.3047 23.8086L19.7168 23.8086C27.1289 23.8086 32.0215 19.1211 32.0215 11.9043C32.0215 4.67773 27.1289 0 19.7168 0L12.3047 0C4.89258 0 0 4.67773 0 11.9043Z" fill="white" fill-opacity="0.2125"/>
  <path d="M16.9434 16.8555L16.9434 6.92383C16.9434 6.35742 16.5527 5.9668 15.9961 5.9668C15.459 5.9668 15.0781 6.36719 15.0781 6.92383L15.0781 16.8555C15.0781 17.4023 15.459 17.8027 15.9961 17.8027C16.5527 17.8027 16.9434 17.4121 16.9434 16.8555ZM11.0449 12.8125L20.9863 12.8125C21.5234 12.8125 21.9238 12.4414 21.9238 11.9043C21.9238 11.3379 21.5332 10.957 20.9863 10.957L11.0449 10.957C10.4883 10.957 10.0977 11.3379 10.0977 11.9043C10.0977 12.4414 10.4883 12.8125 11.0449 12.8125Z" fill="white" fill-opacity="0.85"/>
 </g>
</svg>
