<?xml version="1.0" encoding="UTF-8"?>
<!--Generator: Apple Native CoreSVG 341-->
<!DOCTYPE svg
PUBLIC "-//W3C//DTD SVG 1.1//EN"
       "http://www.w3.org/Graphics/SVG/1.1/DTD/svg11.dtd">
<svg version="1.1" xmlns="http://www.w3.org/2000/svg" xmlns:xlink="http://www.w3.org/1999/xlink" viewBox="0 0 23.2715 22.9004">
 <g>
  <rect height="22.9004" opacity="0" width="23.2715" x="0" y="0"/>
  <path d="M21.1523 1.74805C22.3145 2.90039 22.9102 4.60938 22.9102 6.81641L22.9102 16.084C22.9102 18.291 22.3047 20.0098 21.1523 21.1523C20.0293 22.2754 18.3105 22.9004 16.0938 22.9004L6.81641 22.9004C4.59961 22.9004 2.89062 22.2852 1.75781 21.1523C0.595703 20 0 18.291 0 16.084L0 6.81641C0 4.60938 0.605469 2.89062 1.75781 1.74805C2.88086 0.625 4.59961 0 6.81641 0L16.0938 0C18.3105 0 20.0195 0.605469 21.1523 1.74805ZM10.5078 6.46484L10.5078 10.498L6.47461 10.498C5.91797 10.498 5.52734 10.8789 5.52734 11.4453C5.52734 11.9824 5.92773 12.3535 6.47461 12.3535L10.5078 12.3535L10.5078 16.3965C10.5078 16.9434 10.8887 17.3438 11.4258 17.3438C11.9824 17.3438 12.373 16.9531 12.373 16.3965L12.373 12.3535L16.416 12.3535C16.9629 12.3535 17.3633 11.9824 17.3633 11.4453C17.3633 10.8789 16.9629 10.498 16.416 10.498L12.373 10.498L12.373 6.46484C12.373 5.89844 11.9824 5.50781 11.4258 5.50781C10.8887 5.50781 10.5078 5.9082 10.5078 6.46484Z" fill="white" fill-opacity="0.85"/>
 </g>
</svg>
