<?xml version="1.0" encoding="UTF-8"?>
<!--Generator: Apple Native CoreSVG 341-->
<!DOCTYPE svg
PUBLIC "-//W3C//DTD SVG 1.1//EN"
       "http://www.w3.org/Graphics/SVG/1.1/DTD/svg11.dtd">
<svg version="1.1" xmlns="http://www.w3.org/2000/svg" xmlns:xlink="http://www.w3.org/1999/xlink" viewBox="0 0 29.2871 25.9863">
 <g>
  <rect height="25.9863" opacity="0" width="29.2871" x="0" y="0"/>
  <path d="M14.4629 24.1602C22.8223 24.1602 28.9258 19.082 28.9258 12.0801C28.9258 5.05859 22.8125 0 14.4629 0C6.10352 0 0 5.05859 0 12.0801C0 14.3945 0.673828 16.543 1.875 18.3008C2.48047 19.209 2.70508 19.8535 2.70508 20.4004C2.70508 21.123 2.46094 21.6602 1.875 22.1875C0.986328 22.9297 1.43555 24.1602 2.59766 24.1602C4.16016 24.1602 5.9082 23.584 7.1875 22.6953C9.30664 23.6523 11.7871 24.1602 14.4629 24.1602ZM14.4629 22.4316C12.0117 22.4316 9.80469 21.9629 7.94922 21.123C7.26562 20.8105 6.74805 20.8984 6.08398 21.2988C5.42969 21.7285 4.60938 22.0801 3.81836 22.1973C4.17969 21.709 4.43359 21.1621 4.43359 20.4004C4.43359 19.502 4.10156 18.5059 3.32031 17.3242C2.29492 15.8398 1.72852 14.043 1.72852 12.0801C1.72852 6.09375 7.00195 1.72852 14.4629 1.72852C21.9238 1.72852 27.1973 6.09375 27.1973 12.0801C27.1973 18.0566 21.9238 22.4316 14.4629 22.4316Z" fill="white" fill-opacity="0.425"/>
  <path d="M15.3613 16.9141L15.3613 7.2168C15.3613 6.66016 14.9805 6.28906 14.4434 6.28906C13.9258 6.28906 13.5547 6.66992 13.5547 7.2168L13.5547 16.9141C13.5547 17.4512 13.9258 17.832 14.4434 17.832C14.9805 17.832 15.3613 17.4512 15.3613 16.9141ZM9.60938 12.959L19.3164 12.959C19.8438 12.959 20.2246 12.5879 20.2246 12.0801C20.2246 11.5332 19.8535 11.1621 19.3164 11.1621L9.60938 11.1621C9.0625 11.1621 8.69141 11.5332 8.69141 12.0801C8.69141 12.5879 9.07227 12.959 9.60938 12.959Z" fill="white" fill-opacity="0.85"/>
 </g>
</svg>
