<?xml version="1.0" encoding="UTF-8"?>
<!--Generator: Apple Native CoreSVG 341-->
<!DOCTYPE svg
PUBLIC "-//W3C//DTD SVG 1.1//EN"
       "http://www.w3.org/Graphics/SVG/1.1/DTD/svg11.dtd">
<svg version="1.1" xmlns="http://www.w3.org/2000/svg" xmlns:xlink="http://www.w3.org/1999/xlink" viewBox="0 0 33.1923 36.0505">
 <g>
  <rect height="36.0505" opacity="0" width="33.1923" x="0" y="0"/>
  <path d="M4.95553 21.5067C4.95553 22.913 5.69772 23.6356 7.06491 23.6356L9.3403 23.6356L9.3403 25.3641L7.02584 25.3641C4.49655 25.3641 3.22702 24.0946 3.22702 21.5946L3.22702 19.6903L4.95553 19.6903ZM4.95553 18.1278L3.22702 18.1278L3.22702 12.3368L4.95553 12.3368ZM9.05709 6.82897L7.06491 6.82897C5.69772 6.82897 4.95553 7.55163 4.95553 8.95788L4.95553 10.7743L3.22702 10.7743L3.22702 8.86022C3.22702 6.36999 4.49655 5.10045 7.02584 5.10045L9.05709 5.10045ZM23.4907 8.86022L23.4907 10.7157L21.7524 10.7157L21.7524 8.95788C21.7524 7.55163 20.9907 6.82897 19.6528 6.82897L17.6606 6.82897L17.6606 5.10045L19.6821 5.10045C22.2114 5.10045 23.4907 6.37975 23.4907 8.86022ZM16.1958 6.82897L10.5122 6.82897L10.5122 5.10045L16.1958 5.10045Z" fill="white" fill-opacity="0.85"/>
  <path d="M29.5942 14.4852L29.5942 23.3873L27.8657 21.5781L27.8657 14.5731C27.8657 13.1669 27.104 12.4442 25.7661 12.4442L13.1782 12.4442C11.811 12.4442 11.0688 13.1669 11.0688 14.5731L11.0688 27.1219C11.0688 28.5282 11.811 29.2508 13.1782 29.2508L22.2466 29.2508L22.2407 30.7645C22.2395 30.8385 22.2419 30.911 22.2529 30.9794L13.1391 30.9794C10.6098 30.9794 9.3403 29.7098 9.3403 27.2098L9.3403 14.4852C9.3403 11.9852 10.6098 10.7157 13.1391 10.7157L25.7954 10.7157C28.3149 10.7157 29.5942 11.995 29.5942 14.4852Z" fill="white" fill-opacity="0.85"/>
  <path d="M29.809 34.4169C30.3169 34.202 30.5708 33.6258 30.3462 33.1083L28.3442 28.4501L31.1469 28.3915C31.5766 28.3817 31.7915 27.9423 31.4887 27.62L24.5942 20.4032C24.3012 20.1005 23.8423 20.2762 23.8325 20.7059L23.7934 30.784C23.7837 31.2333 24.311 31.3798 24.604 31.0965L26.5473 29.1239L28.4809 33.8798C28.686 34.3876 29.2817 34.6317 29.809 34.4169Z" fill="white" fill-opacity="0.85"/>
 </g>
</svg>
