<?xml version="1.0" encoding="UTF-8"?>
<!--Generator: Apple Native CoreSVG 341-->
<!DOCTYPE svg
PUBLIC "-//W3C//DTD SVG 1.1//EN"
       "http://www.w3.org/Graphics/SVG/1.1/DTD/svg11.dtd">
<svg version="1.1" xmlns="http://www.w3.org/2000/svg" xmlns:xlink="http://www.w3.org/1999/xlink" viewBox="0 0 22.2656 26.9043">
 <g>
  <rect height="26.9043" opacity="0" width="22.2656" x="0" y="0"/>
  <path d="M17.6106 19.0811C17.5935 19.0811 17.5769 19.0828 17.5606 19.0853C17.459 19.0958 17.3587 19.1108 17.2604 19.1311C17.212 19.137 17.1649 19.1467 17.1191 19.1598L17.1191 18.5352C17.1191 16.9727 16.0254 15.8496 13.9258 15.2441L7.46094 13.3789C4.56055 12.5586 3.05664 10.8594 3.05664 8.44727L3.05664 7.81195C3.10348 7.82557 3.15174 7.83549 3.20128 7.8416C3.29887 7.86183 3.3983 7.87679 3.49906 7.88723C3.51591 7.88988 3.53305 7.89159 3.55064 7.89162C3.67065 7.90442 3.79268 7.91016 3.91602 7.91016C4.03935 7.91016 4.16136 7.90447 4.2813 7.89171C4.30002 7.89165 4.31826 7.88984 4.33618 7.88702C4.4367 7.87665 4.53585 7.86176 4.63317 7.84168C4.68523 7.83516 4.73597 7.82473 4.78516 7.81033L4.78516 7.81033L4.78516 8.44727C4.78516 10 5.88867 11.1328 7.97852 11.7285L14.4434 13.5938C17.334 14.4141 18.8477 16.1133 18.8477 18.5352L18.8477 19.1624C18.7985 19.1479 18.7477 19.1375 18.6957 19.131C18.5983 19.1109 18.4992 19.096 18.3987 19.0856C18.3808 19.0828 18.3625 19.081 18.3438 19.0809C18.2239 19.0682 18.1018 19.0625 17.9785 19.0625C17.8543 19.0625 17.7314 19.0683 17.6106 19.0811Z" fill="white" fill-opacity="0.85"/>
  <path d="M3.91602 7.91016C6.08398 7.91016 7.8418 6.15234 7.8418 3.98438C7.8418 1.82617 6.08398 0.0683594 3.91602 0.0683594C1.75781 0.0683594 0 1.82617 0 3.98438C0 6.15234 1.75781 7.91016 3.91602 7.91016ZM3.91602 6.2207C2.67578 6.2207 1.68945 5.23438 1.68945 3.98438C1.68945 2.73438 2.68555 1.75781 3.91602 1.75781C5.17578 1.75781 6.15234 2.73438 6.15234 3.98438C6.15234 5.23438 5.18555 6.2207 3.91602 6.2207ZM17.9785 19.0625C15.8105 19.0625 14.0527 20.8203 14.0527 22.998C14.0527 25.1562 15.8105 26.9043 17.9785 26.9043C20.1465 26.9043 21.9043 25.1562 21.9043 22.998C21.9043 20.8203 20.1465 19.0625 17.9785 19.0625Z" fill="white" fill-opacity="0.85"/>
 </g>
</svg>
