<?xml version="1.0" encoding="UTF-8"?>
<!--Generator: Apple Native CoreSVG 341-->
<!DOCTYPE svg
PUBLIC "-//W3C//DTD SVG 1.1//EN"
       "http://www.w3.org/Graphics/SVG/1.1/DTD/svg11.dtd">
<svg version="1.1" xmlns="http://www.w3.org/2000/svg" xmlns:xlink="http://www.w3.org/1999/xlink" viewBox="0 0 23.3203 22.959">
 <g>
  <rect height="22.959" opacity="0" width="23.3203" x="0" y="0"/>
  <path d="M3.79883 22.959L19.1504 22.959C21.6797 22.959 22.959 21.6797 22.959 19.1992L22.959 3.76953C22.959 1.2793 21.6797 0 19.1504 0L3.79883 0C1.2793 0 0 1.26953 0 3.76953L0 19.1992C0 21.6992 1.2793 22.959 3.79883 22.959Z" fill="white" fill-opacity="0.2125"/>
  <path d="M14.0918 18.75C13.5547 18.9648 12.9395 18.7109 12.7246 18.2031L10.6836 13.1543L8.68164 15.166C8.37891 15.459 7.8418 15.3125 7.85156 14.8535L7.90039 4.53125C7.91016 4.08203 8.37891 3.90625 8.68164 4.21875L15.7324 11.6016C16.0547 11.9336 15.8398 12.373 15.3809 12.3926L12.5195 12.4609L14.6484 17.4023C14.873 17.9297 14.6289 18.5352 14.0918 18.75Z" fill="white" fill-opacity="0.85"/>
 </g>
</svg>
