<?xml version="1.0" encoding="UTF-8"?>
<!--Generator: Apple Native CoreSVG 341-->
<!DOCTYPE svg
PUBLIC "-//W3C//DTD SVG 1.1//EN"
       "http://www.w3.org/Graphics/SVG/1.1/DTD/svg11.dtd">
<svg version="1.1" xmlns="http://www.w3.org/2000/svg" xmlns:xlink="http://www.w3.org/1999/xlink" viewBox="0 0 23.3203 22.959">
 <g>
  <rect height="22.959" opacity="0" width="23.3203" x="0" y="0"/>
  <path d="M3.79883 22.959L19.1504 22.959C21.6797 22.959 22.959 21.6797 22.959 19.1992L22.959 3.76953C22.959 1.2793 21.6797 0 19.1504 0L3.79883 0C1.2793 0 0 1.26953 0 3.76953L0 19.1992C0 21.6992 1.2793 22.959 3.79883 22.959Z" fill="white" fill-opacity="0.2125"/>
  <path d="M7.07031 6.86523L15.8887 6.86523C16.6016 6.86523 16.9434 7.12891 17.2754 7.56836L19.6289 10.6934C19.9805 11.1621 19.9902 11.7578 19.6289 12.2168L17.2754 15.3809C16.9434 15.8203 16.5039 16.084 15.8887 16.084L7.07031 16.084C6.45508 16.084 6.01562 15.8203 5.68359 15.3809L3.32031 12.2168C2.96875 11.7578 2.97852 11.1621 3.33008 10.6934L5.68359 7.56836C6.01562 7.12891 6.35742 6.86523 7.07031 6.86523ZM6.86523 10.2637C6.21094 10.2637 5.6543 10.8105 5.6543 11.4746C5.6543 12.1289 6.21094 12.6855 6.86523 12.6855C7.5293 12.6855 8.07617 12.1289 8.07617 11.4746C8.07617 10.8105 7.5293 10.2637 6.86523 10.2637ZM11.4746 11.8164C10.8203 11.8164 10.2637 12.3633 10.2637 13.0273C10.2637 13.6816 10.8203 14.2383 11.4746 14.2383C12.1387 14.2383 12.6855 13.6816 12.6855 13.0273C12.6855 12.3633 12.1387 11.8164 11.4746 11.8164ZM16.084 10.2637C15.4297 10.2637 14.873 10.8105 14.873 11.4746C14.873 12.1289 15.4297 12.6855 16.084 12.6855C16.748 12.6855 17.2949 12.1289 17.2949 11.4746C17.2949 10.8105 16.748 10.2637 16.084 10.2637Z" fill="white" fill-opacity="0.85"/>
 </g>
</svg>
