<?xml version="1.0" encoding="UTF-8"?>
<!--Generator: Apple Native CoreSVG 341-->
<!DOCTYPE svg
PUBLIC "-//W3C//DTD SVG 1.1//EN"
       "http://www.w3.org/Graphics/SVG/1.1/DTD/svg11.dtd">
<svg version="1.1" xmlns="http://www.w3.org/2000/svg" xmlns:xlink="http://www.w3.org/1999/xlink" viewBox="0 0 29.0234 25.8496">
 <g>
  <rect height="25.8496" opacity="0" width="29.0234" x="0" y="0"/>
  <path d="M28.6621 11.9043C28.6621 18.7891 22.6465 23.8086 14.3262 23.8086C11.5625 23.8086 9.02344 23.2715 6.875 22.2559C5.60547 23.2031 3.82812 23.8086 2.13867 23.8086C1.41602 23.8086 1.17188 23.2324 1.66016 22.793C2.41211 22.1191 2.75391 21.4746 2.75391 20.4785C2.75391 18.2129 0 16.8848 0 11.9043C0 4.99023 6.01562 0 14.3262 0C22.6367 0 28.6621 4.99023 28.6621 11.9043ZM12.8906 17.1777C12.8906 17.8516 13.4863 18.4082 14.1699 18.4082C14.8633 18.4082 15.4492 17.8613 15.4492 17.1777C15.4492 16.4844 14.873 15.9375 14.1699 15.9375C13.4766 15.9375 12.8906 16.4941 12.8906 17.1777ZM10.6738 7.86133C10.6152 8.05664 10.5762 8.25195 10.5762 8.4668C10.5762 8.96484 10.9766 9.23828 11.3574 9.23828C11.748 9.23828 12.002 9.05273 12.1875 8.76953L12.3633 8.49609C12.7246 7.65625 13.4863 7.08984 14.4922 7.08984C15.7617 7.08984 16.582 7.79297 16.582 8.81836C16.582 9.69727 16.0645 10.1562 14.9023 10.9668C13.9355 11.6406 13.3105 12.3145 13.3105 13.5352C13.3105 13.6133 13.3105 13.6914 13.3105 13.7695C13.3105 14.3555 13.6328 14.6582 14.1992 14.6582C14.7559 14.6582 15.0879 14.3066 15.0879 13.8477C15.0879 13.7793 15.0879 13.7012 15.0879 13.6328C15.0879 12.8809 15.498 12.4219 16.4258 11.7969C17.7051 10.9473 18.5156 10.1953 18.5156 8.73047C18.5156 6.70898 16.7188 5.55664 14.5703 5.55664C12.3926 5.55664 10.9863 6.63086 10.6738 7.86133Z" fill="white" fill-opacity="0.85"/>
 </g>
</svg>
