<svg version="1.1" xmlns="http://www.w3.org/2000/svg" xmlns:xlink="http://www.w3.org/1999/xlink" viewBox="0 0 23.2715 22.9004">
 <g>
  <rect height="22.9004" opacity="0" width="23.2715" x="0" y="0"/>
  <path d="M6.81641 22.9004L16.0938 22.9004C18.3105 22.9004 20.0293 22.2754 21.1523 21.1523C22.3047 20.0098 22.9102 18.291 22.9102 16.084L22.9102 6.81641C22.9102 4.60938 22.3145 2.90039 21.1523 1.74805C20.0195 0.605469 18.3105 0 16.0938 0L6.81641 0C4.59961 0 2.88086 0.625 1.75781 1.74805C0.605469 2.89062 0 4.60938 0 6.81641L0 16.084C0 18.291 0.595703 20 1.75781 21.1523C2.89062 22.2852 4.59961 22.9004 6.81641 22.9004ZM6.81641 21.1719C5.15625 21.1719 3.87695 20.7227 3.02734 19.8828C2.16797 19.0332 1.72852 17.7539 1.72852 16.084L1.72852 6.81641C1.72852 5.14648 2.16797 3.86719 3.02734 3.01758C3.86719 2.1875 5.15625 1.72852 6.81641 1.72852L16.0938 1.72852C17.7637 1.72852 19.0332 2.17773 19.8828 3.01758C20.7422 3.86719 21.1816 5.14648 21.1816 6.81641L21.1816 16.084C21.1816 17.7539 20.7422 19.0332 19.8828 19.8828C19.043 20.7129 17.7637 21.1719 16.0938 21.1719Z" fill="var(--color-secondary)"/>
  <path d="M11.2207 14.0234C11.7578 14.0234 12.0898 13.6816 12.0898 13.2422C12.0898 13.1738 12.0898 13.0957 12.0898 13.0273C12.0898 12.2949 12.4805 11.8457 13.3984 11.2305C14.6387 10.4004 15.4199 9.66797 15.4199 8.24219C15.4199 6.2793 13.6719 5.15625 11.582 5.15625C9.47266 5.15625 8.08594 6.21094 7.7832 7.40234C7.73438 7.59766 7.70508 7.7832 7.70508 7.98828C7.70508 8.47656 8.07617 8.75 8.44727 8.75C8.82812 8.75 9.07227 8.56445 9.24805 8.28125L9.42383 8.01758C9.77539 7.20703 10.5273 6.63086 11.5137 6.63086C12.7539 6.63086 13.5547 7.32422 13.5547 8.33008C13.5547 9.18945 13.0469 9.63867 11.9141 10.4297C10.9766 11.084 10.3613 11.748 10.3613 12.9297C10.3613 13.0078 10.3613 13.0859 10.3613 13.1641C10.3613 13.7305 10.6738 14.0234 11.2207 14.0234ZM11.1914 17.6855C11.8652 17.6855 12.4316 17.1484 12.4316 16.4844C12.4316 15.8105 11.875 15.2832 11.1914 15.2832C10.5176 15.2832 9.95117 15.8203 9.95117 16.4844C9.95117 17.1387 10.5273 17.6855 11.1914 17.6855Z" fill="var(--color-primary)"/>
 </g>
</svg>
