<svg version="1.1" xmlns="http://www.w3.org/2000/svg" xmlns:xlink="http://www.w3.org/1999/xlink" viewBox="0 0 28.7305 22.9395">
 <g>
  <rect height="22.9395" opacity="0" width="28.7305" x="0" y="0"/>
  <path d="M3.79883 22.8027L24.8633 22.8027C27.0996 22.8027 28.3691 21.5234 28.3691 19.043L28.3691 6.08398C28.3691 3.59375 27.0898 2.32422 24.5703 2.32422L12.4121 2.32422C11.4941 2.32422 10.9961 2.12891 10.3418 1.5625L9.59961 0.9375C8.76953 0.214844 8.17383 0 6.91406 0L3.33008 0C1.19141 0 0 1.18164 0 3.57422L0 19.043C0 21.5332 1.2793 22.8027 3.79883 22.8027Z" fill="var(--color-tertiary)"/>
  <path d="M13.9746 15C13.4375 15 13.125 14.7168 13.125 14.1602C13.125 14.0918 13.125 14.0137 13.125 13.9355C13.125 12.793 13.7305 12.1484 14.6289 11.5137C15.7324 10.752 16.2207 10.3125 16.2207 9.48242C16.2207 8.51562 15.4492 7.85156 14.248 7.85156C13.3008 7.85156 12.5879 8.38867 12.2363 9.17969L12.0703 9.44336C11.8945 9.70703 11.6602 9.89258 11.2891 9.89258C10.9277 9.89258 10.5566 9.62891 10.5566 9.15039C10.5566 8.94531 10.5957 8.76953 10.6445 8.58398C10.9375 7.42188 12.2656 6.41602 14.3164 6.41602C16.3477 6.41602 18.0469 7.49023 18.0469 9.4043C18.0469 10.7812 17.2852 11.5039 16.0742 12.3047C15.1953 12.8809 14.8145 13.3203 14.8145 14.0332C14.8145 14.1016 14.8145 14.1699 14.8145 14.2383C14.8145 14.668 14.502 15 13.9746 15ZM13.9453 18.5352C13.3008 18.5352 12.7441 18.0176 12.7441 17.373C12.7441 16.7383 13.291 16.2109 13.9453 16.2109C14.6094 16.2109 15.1562 16.7285 15.1562 17.373C15.1562 18.0273 14.5996 18.5352 13.9453 18.5352Z" fill="var(--color-primary)"/>
 </g>
</svg>
