<?xml version="1.0" encoding="UTF-8"?>
<!--Generator: Apple Native CoreSVG 341-->
<!DOCTYPE svg
PUBLIC "-//W3C//DTD SVG 1.1//EN"
       "http://www.w3.org/Graphics/SVG/1.1/DTD/svg11.dtd">
<svg version="1.1" xmlns="http://www.w3.org/2000/svg" xmlns:xlink="http://www.w3.org/1999/xlink" viewBox="0 0 28.6086 28.2642">
 <g>
  <rect height="28.2642" opacity="0" width="28.6086" x="0" y="0"/>
  <path d="M16.8189 1.35378L26.9068 11.4417C28.6939 13.2288 28.6939 15.0257 26.9264 16.7932L16.7994 26.93C15.0318 28.6975 13.235 28.6878 11.4478 26.9007L1.35995 16.8128C-0.436922 15.0257-0.456453 13.2385 1.32089 11.4612L11.4674 1.33425C13.2447-0.452858 15.0318-0.443093 16.8189 1.35378ZM12.5709 19.2932C12.5709 19.9671 13.1568 20.5237 13.8502 20.5237C14.5338 20.5237 15.1295 19.9768 15.1295 19.2932C15.1295 18.5999 14.5435 18.053 13.8502 18.053C13.1471 18.053 12.5709 18.6096 12.5709 19.2932ZM10.3443 9.97683C10.2955 10.1721 10.2564 10.3675 10.2564 10.5823C10.2564 11.0803 10.6471 11.3635 11.0279 11.3635C11.4185 11.3635 11.6725 11.1682 11.858 10.885L12.0435 10.6116C12.4049 9.77175 13.1666 9.20534 14.1725 9.20534C15.4322 9.20534 16.2525 9.90847 16.2525 10.9339C16.2525 11.8128 15.735 12.2718 14.5728 13.0823C13.6158 13.7561 12.981 14.43 12.981 15.6507C12.981 15.7288 12.981 15.8069 12.981 15.885C12.981 16.471 13.3033 16.7737 13.8697 16.7737C14.4264 16.7737 14.7682 16.4221 14.7682 15.9632C14.7682 15.8948 14.7682 15.8167 14.7682 15.7483C14.7682 14.9964 15.1783 14.5374 16.106 13.9124C17.3756 13.0628 18.1959 12.3108 18.1959 10.846C18.1959 8.82449 16.3893 7.67214 14.2408 7.67214C12.0728 7.67214 10.6568 8.75613 10.3443 9.97683Z" fill="white" fill-opacity="0.85"/>
 </g>
</svg>
