<?xml version="1.0" encoding="UTF-8"?>
<!--Generator: Apple Native CoreSVG 341-->
<!DOCTYPE svg
PUBLIC "-//W3C//DTD SVG 1.1//EN"
       "http://www.w3.org/Graphics/SVG/1.1/DTD/svg11.dtd">
<svg version="1.1" xmlns="http://www.w3.org/2000/svg" xmlns:xlink="http://www.w3.org/1999/xlink" viewBox="0 0 23.2715 22.9004">
 <g>
  <rect height="22.9004" opacity="0" width="23.2715" x="0" y="0"/>
  <path d="M21.1523 1.74805C22.3145 2.90039 22.9102 4.60938 22.9102 6.81641L22.9102 16.084C22.9102 18.291 22.3047 20.0098 21.1523 21.1523C20.0293 22.2754 18.3105 22.9004 16.0938 22.9004L6.81641 22.9004C4.59961 22.9004 2.89062 22.2852 1.75781 21.1523C0.595703 20 0 18.291 0 16.084L0 6.81641C0 4.60938 0.605469 2.89062 1.75781 1.74805C2.88086 0.625 4.59961 0 6.81641 0L16.0938 0C18.3105 0 20.0195 0.605469 21.1523 1.74805ZM9.88281 16.6113C9.88281 17.2852 10.4785 17.8418 11.1621 17.8418C11.8555 17.8418 12.4414 17.2949 12.4414 16.6113C12.4414 15.918 11.8652 15.3711 11.1621 15.3711C10.4688 15.3711 9.88281 15.9277 9.88281 16.6113ZM7.66602 7.29492C7.60742 7.49023 7.56836 7.68555 7.56836 7.90039C7.56836 8.39844 7.96875 8.68164 8.34961 8.68164C8.74023 8.68164 8.99414 8.48633 9.17969 8.20312L9.35547 7.92969C9.72656 7.08984 10.4883 6.52344 11.4941 6.52344C12.7539 6.52344 13.5742 7.22656 13.5742 8.25195C13.5742 9.13086 13.0566 9.58984 11.8945 10.4004C10.9375 11.0742 10.3027 11.748 10.3027 12.9688C10.3027 13.0469 10.3027 13.125 10.3027 13.2031C10.3027 13.7891 10.625 14.0918 11.1914 14.0918C11.748 14.0918 12.0898 13.7402 12.0898 13.2812C12.0898 13.2129 12.0898 13.1348 12.0898 13.0664C12.0898 12.3145 12.4902 11.8555 13.4277 11.2305C14.6973 10.3809 15.5078 9.62891 15.5078 8.16406C15.5078 6.14258 13.7109 4.99023 11.5625 4.99023C9.39453 4.99023 7.97852 6.07422 7.66602 7.29492Z" fill="white" fill-opacity="0.85"/>
 </g>
</svg>
