<?xml version="1.0" encoding="UTF-8"?>
<!--Generator: Apple Native CoreSVG 341-->
<!DOCTYPE svg
PUBLIC "-//W3C//DTD SVG 1.1//EN"
       "http://www.w3.org/Graphics/SVG/1.1/DTD/svg11.dtd">
<svg version="1.1" xmlns="http://www.w3.org/2000/svg" xmlns:xlink="http://www.w3.org/1999/xlink" viewBox="0 0 29.5898 30.0063">
 <g>
  <rect height="30.0063" opacity="0" width="29.5898" x="0" y="0"/>
  <path d="M23.7109 4.9006L23.7109 0.730683C23.7109-0.0212701 23.1152-0.197051 22.5488 0.222871L19.6973 2.28342C19.2383 2.61545 19.2285 2.99631 19.6973 3.3381L22.5488 5.37912C23.1152 5.79904 23.7109 5.6135 23.7109 4.9006ZM22.0117 2.25412C21.6797 2.25412 21.416 2.51779 21.416 2.84982C21.416 3.17209 21.6797 3.43576 22.0117 3.43576L23.916 3.43576C26.3672 3.43576 27.959 5.02756 27.959 7.46896L27.959 8.95334C27.959 9.29514 28.252 9.5881 28.5938 9.5881C28.9258 9.5881 29.2285 9.29514 29.2285 8.95334L29.2285 7.4592C29.2285 4.31467 27.1289 2.25412 23.9258 2.25412ZM5.51758 25.0764L5.51758 29.2561C5.51758 29.9983 6.10352 30.174 6.67969 29.7541L9.52148 27.7033C9.99023 27.3713 10 26.9904 9.52148 26.6389L6.67969 24.5979C6.10352 24.1779 5.51758 24.3635 5.51758 25.0764ZM7.2168 27.7229C7.53906 27.7229 7.80273 27.4592 7.80273 27.1369C7.80273 26.8049 7.53906 26.5412 7.2168 26.5412L5.3125 26.5412C2.86133 26.5412 1.26953 24.9494 1.26953 22.508L1.26953 21.0237C1.26953 20.6819 0.976562 20.3889 0.625 20.3889C0.302734 20.3889 0 20.6819 0 21.0237L0 22.5276C0 25.6721 2.09961 27.7229 5.30273 27.7229Z" fill="white" fill-opacity="0.85"/>
  <path d="M7.32422 22.4201L21.9043 22.4201C23.3203 22.4201 24.3359 21.3362 24.3359 19.8615L24.3359 10.1154C24.3359 8.6506 23.3203 7.57639 21.9043 7.57639L7.32422 7.57639C5.9082 7.57639 4.89258 8.6506 4.89258 10.1154L4.89258 19.8615C4.89258 21.3362 5.9082 22.4201 7.32422 22.4201ZM7.5 20.799C6.93359 20.799 6.52344 20.3596 6.52344 19.7248L6.52344 10.2619C6.52344 9.6467 6.93359 9.20725 7.5 9.20725L21.7285 9.20725C22.3047 9.20725 22.7148 9.6467 22.7148 10.2619L22.7148 19.7248C22.7148 20.3596 22.3047 20.799 21.7285 20.799Z" fill="white" fill-opacity="0.85"/>
 </g>
</svg>
