<?xml version="1.0" encoding="UTF-8"?>
<!--Generator: Apple Native CoreSVG 341-->
<!DOCTYPE svg
PUBLIC "-//W3C//DTD SVG 1.1//EN"
       "http://www.w3.org/Graphics/SVG/1.1/DTD/svg11.dtd">
<svg version="1.1" xmlns="http://www.w3.org/2000/svg" xmlns:xlink="http://www.w3.org/1999/xlink" viewBox="0 0 25.8008 25.459">
 <g>
  <rect height="25.459" opacity="0" width="25.8008" x="0" y="0"/>
  <path d="M12.7148 25.4395C19.7266 25.4395 25.4395 19.7266 25.4395 12.7246C25.4395 5.71289 19.7266 0 12.7148 0C5.71289 0 0 5.71289 0 12.7246C0 19.7266 5.71289 25.4395 12.7148 25.4395Z" fill="white" fill-opacity="0.2125"/>
  <path d="M11.3965 6.92383L11.3965 11.582C11.3965 11.9141 11.6113 12.1191 11.9531 12.1191C12.1094 12.1191 12.2559 12.0703 12.373 11.9727L15.1758 9.6875C15.4883 9.44336 15.4883 9.05273 15.1758 8.79883L12.373 6.5332C12.2559 6.42578 12.1094 6.37695 11.9531 6.37695C11.6113 6.37695 11.3965 6.5918 11.3965 6.92383ZM11.1914 19.1309L11.1914 14.4824C11.1914 14.1406 10.9863 13.9453 10.6348 13.9453C10.4785 13.9453 10.332 13.9941 10.2051 14.0918L7.41211 16.3672C7.09961 16.6016 7.10938 17.002 7.42188 17.2559L10.2051 19.5117C10.332 19.6191 10.4785 19.668 10.6348 19.668C10.9961 19.668 11.1914 19.4629 11.1914 19.1309ZM18.9551 11.2207C19.3945 11.2207 19.668 10.9375 19.668 10.4883L19.668 7.29492C19.668 6.74805 19.3164 6.41602 18.8086 6.41602C18.4766 6.41602 18.2227 6.51367 17.8809 6.77734L16.8848 7.51953C16.7188 7.65625 16.6504 7.79297 16.6504 7.97852C16.6504 8.25195 16.8555 8.4668 17.1582 8.4668C17.2852 8.4668 17.3926 8.42773 17.5098 8.33984L18.3008 7.73438L18.2227 7.73438L18.2227 10.4883C18.2227 10.9277 18.5059 11.2207 18.9551 11.2207ZM12.4316 9.94141C12.793 9.94141 13.0957 9.63867 13.0957 9.25781C13.0957 8.87695 12.793 8.57422 12.4316 8.57422L8.22266 8.57422C5.95703 8.57422 4.53125 9.87305 4.53125 11.9434L4.53125 12.6562C4.53125 13.0273 4.82422 13.3398 5.20508 13.3398C5.58594 13.3398 5.89844 13.0273 5.89844 12.6562L5.89844 12.0605C5.89844 10.7812 6.74805 9.94141 8.06641 9.94141ZM10.4102 16.1035C10.0293 16.1035 9.72656 16.4062 9.72656 16.7773C9.72656 17.168 10.0293 17.4707 10.4102 17.4707L15.9473 17.4707C18.2227 17.4707 19.6582 16.1621 19.6582 14.1016L19.6582 13.3887C19.6582 13.0078 19.3457 12.7148 18.9648 12.7148C18.584 12.7148 18.2812 13.0078 18.2812 13.3887L18.2812 13.9844C18.2812 15.2637 17.4219 16.1035 16.1035 16.1035Z" fill="white" fill-opacity="0.85"/>
 </g>
</svg>
