<?xml version="1.0" encoding="UTF-8"?>
<!--Generator: Apple Native CoreSVG 341-->
<!DOCTYPE svg
PUBLIC "-//W3C//DTD SVG 1.1//EN"
       "http://www.w3.org/Graphics/SVG/1.1/DTD/svg11.dtd">
<svg version="1.1" xmlns="http://www.w3.org/2000/svg" xmlns:xlink="http://www.w3.org/1999/xlink" viewBox="0 0 25.8008 25.459">
 <g>
  <rect height="25.459" opacity="0" width="25.8008" x="0" y="0"/>
  <path d="M12.7148 25.459C19.7266 25.459 25.4395 19.7461 25.4395 12.7344C25.4395 5.73242 19.7266 0.0195312 12.7148 0.0195312C5.71289 0.0195312 0 5.73242 0 12.7344C0 19.7461 5.71289 25.459 12.7148 25.459Z" fill="white" fill-opacity="0.2125"/>
  <path d="M8.52539 20.1465C7.95898 20.1465 7.60742 19.9121 7.40234 19.3652L6.91406 18.0469C6.75781 17.6172 7.00195 17.2559 7.48047 17.2559C8.75 17.2559 10.0586 17.2559 11.3672 17.2363L11.4746 16.0449C10.2148 16.1426 8.80859 16.123 7.60742 15.9961C7.07031 15.9375 6.9043 15.5176 7.23633 15.0586L12.1777 8.16406L12.4219 5.44922C12.4609 4.91211 12.9102 4.58008 13.4082 4.58008C13.6328 4.58008 13.8867 4.64844 14.1504 4.78516C17.6172 6.62109 18.7305 9.48242 18.7305 12.041C18.7305 13.0078 18.6133 13.8965 18.2715 14.7754C18.0078 15.4883 17.6074 15.8105 16.7969 15.9375C15.752 16.1035 14.0918 16.1816 12.4414 16.0156L12.334 17.207C14.1016 17.1484 15.8594 17.0508 17.4805 16.8164C17.9297 16.7676 18.1348 17.0117 18.1348 17.3145C18.1348 17.8125 17.3242 19.0918 16.6699 19.7168C16.3379 20.0195 16.0156 20.1465 15.5664 20.1465ZM12.5391 14.9512C13.6328 13.7891 14.1895 12.0117 14.1895 10.0488C14.1895 8.53516 13.9258 6.9043 13.4863 5.5957C13.4473 5.50781 13.3496 5.50781 13.3398 5.61523Z" fill="white" fill-opacity="0.85"/>
 </g>
</svg>
