<?xml version="1.0" encoding="UTF-8"?>
<!--Generator: Apple Native CoreSVG 341-->
<!DOCTYPE svg
PUBLIC "-//W3C//DTD SVG 1.1//EN"
       "http://www.w3.org/Graphics/SVG/1.1/DTD/svg11.dtd">
<svg version="1.1" xmlns="http://www.w3.org/2000/svg" xmlns:xlink="http://www.w3.org/1999/xlink" viewBox="0 0 25.8008 25.4395">
 <g>
  <rect height="25.4395" opacity="0" width="25.8008" x="0" y="0"/>
  <path d="M25.4395 12.7148C25.4395 19.7266 19.7266 25.4395 12.7148 25.4395C5.71289 25.4395 0 19.7266 0 12.7148C0 5.71289 5.71289 0 12.7148 0C19.7266 0 25.4395 5.71289 25.4395 12.7148ZM18.2324 9.24805L12.959 11.1719C12.2559 11.4355 11.9336 11.7773 11.748 12.4414L11.6309 12.8906C11.5625 13.1934 11.4355 13.3301 11.0156 13.5547L9.86328 14.1797C9.73633 14.2383 9.6582 14.2578 9.54102 14.2578C9.05273 14.2578 8.80859 13.75 7.66602 13.75C6.28906 13.75 5.19531 14.8438 5.19531 16.2109C5.19531 17.5879 6.28906 18.7012 7.66602 18.7012C9.02344 18.7012 10.1367 17.5977 10.1367 16.2109C10.1367 15.6543 10.1172 15.4492 10.4785 15.2539L20.8984 9.7168C20.625 8.88672 19.6875 8.71094 18.2324 9.24805ZM9.19922 16.2109C9.19922 17.0703 8.51562 17.7539 7.66602 17.7539C6.80664 17.7539 6.13281 17.0703 6.13281 16.2109C6.13281 15.3516 6.81641 14.6777 7.66602 14.6777C8.51562 14.6777 9.19922 15.3516 9.19922 16.2109ZM13.5757 14.4719L18.2324 16.1621C19.6875 16.6992 20.625 16.5234 20.8984 15.7031L16.0751 13.14ZM13.5547 12.4023C13.5547 12.6562 13.3398 12.8516 13.0859 12.8516C12.8516 12.8516 12.627 12.6562 12.627 12.4023C12.627 12.1484 12.8418 11.9531 13.0859 11.9531C13.3398 11.9531 13.5547 12.1387 13.5547 12.4023ZM5.19531 9.20898C5.19531 10.5762 6.28906 11.6699 7.66602 11.6699C8.80859 11.6699 9.05273 11.1523 9.54102 11.1523C9.6582 11.1523 9.73633 11.1719 9.86328 11.2402L11.0156 11.8555C11.0553 11.8776 11.0923 11.8989 11.1261 11.9193C11.2903 11.4925 11.5248 11.1598 11.8599 10.9001L10.4785 10.166C10.1172 9.96094 10.1367 9.76562 10.1367 9.20898C10.1367 7.82227 9.02344 6.71875 7.66602 6.71875C6.28906 6.71875 5.19531 7.83203 5.19531 9.20898ZM9.19922 9.20898C9.19922 10.0586 8.51562 10.7422 7.66602 10.7422C6.81641 10.7422 6.13281 10.0586 6.13281 9.20898C6.13281 8.33984 6.80664 7.65625 7.66602 7.65625C8.51562 7.65625 9.19922 8.33984 9.19922 9.20898Z" fill="white" fill-opacity="0.85"/>
 </g>
</svg>
