<?xml version="1.0" encoding="UTF-8"?>
<!--Generator: Apple Native CoreSVG 341-->
<!DOCTYPE svg
PUBLIC "-//W3C//DTD SVG 1.1//EN"
       "http://www.w3.org/Graphics/SVG/1.1/DTD/svg11.dtd">
<svg version="1.1" xmlns="http://www.w3.org/2000/svg" xmlns:xlink="http://www.w3.org/1999/xlink" viewBox="0 0 28.5645 22.373">
 <g>
  <rect height="22.373" opacity="0" width="28.5645" x="0" y="0"/>
  <path d="M21.8652 0.732422L21.8652 8.58398C21.8652 9.0332 22.1289 9.28711 22.5977 9.28711C22.8125 9.28711 23.0078 9.21875 23.1934 9.07227L27.9004 5.23438C28.3008 4.92188 28.3008 4.41406 27.9004 4.08203L23.1934 0.244141C23.0078 0.0976562 22.8125 0.0292969 22.5977 0.0292969C22.1289 0.0292969 21.8652 0.283203 21.8652 0.732422ZM0 17.5586C0 18.1152 0.410156 18.4863 1.01562 18.4863L3.86719 18.4863C5.88867 18.4863 7.05078 17.9199 8.52539 16.2012L15.9863 7.46094C17.0996 6.16211 18.0078 5.68359 19.3848 5.68359L23.7305 5.68359C24.2383 5.68359 24.6582 5.27344 24.6582 4.75586C24.6582 4.24805 24.2383 3.82812 23.7305 3.82812L19.3555 3.82812C17.3242 3.82812 16.1523 4.4043 14.6875 6.12305L7.23633 14.8535C6.12305 16.1621 5.23438 16.6309 3.93555 16.6309L1.01562 16.6309C0.419922 16.6309 0 17.0215 0 17.5586ZM21.8652 21.6699C21.8652 22.1191 22.1289 22.373 22.5977 22.373C22.8125 22.373 23.0078 22.3047 23.1934 22.1582L27.9004 18.3203C28.3008 17.9883 28.3008 17.4805 27.9004 17.168L23.1934 13.3301C23.0078 13.1836 22.8125 13.1152 22.5977 13.1152C22.1289 13.1152 21.8652 13.3691 21.8652 13.8184ZM0 4.84375C0 5.38086 0.419922 5.77148 1.01562 5.77148L3.93555 5.77148C5.23438 5.77148 6.12305 6.24023 7.23633 7.54883L14.6875 16.2793C16.1523 17.998 17.3242 18.5742 19.3555 18.5742L23.7305 18.5742C24.2383 18.5742 24.6582 18.1543 24.6582 17.6465C24.6582 17.1289 24.2383 16.7188 23.7305 16.7188L19.3848 16.7188C18.0078 16.7188 17.0996 16.2402 15.9863 14.9414L8.52539 6.20117C7.05078 4.49219 5.88867 3.91602 3.86719 3.91602L1.01562 3.91602C0.410156 3.91602 0 4.28711 0 4.84375Z" fill="white" fill-opacity="0.85"/>
 </g>
</svg>
