<?xml version="1.0" encoding="UTF-8"?>
<!--Generator: Apple Native CoreSVG 341-->
<!DOCTYPE svg
PUBLIC "-//W3C//DTD SVG 1.1//EN"
       "http://www.w3.org/Graphics/SVG/1.1/DTD/svg11.dtd">
<svg version="1.1" xmlns="http://www.w3.org/2000/svg" xmlns:xlink="http://www.w3.org/1999/xlink" viewBox="0 0 25.8008 25.459">
 <g>
  <rect height="25.459" opacity="0" width="25.8008" x="0" y="0"/>
  <path d="M12.7148 25.459C19.7266 25.459 25.4395 19.7461 25.4395 12.7344C25.4395 5.73242 19.7266 0.0195312 12.7148 0.0195312C5.71289 0.0195312 0 5.73242 0 12.7344C0 19.7461 5.71289 25.459 12.7148 25.459Z" fill="white" fill-opacity="0.2125"/>
  <path d="M6.25977 12.6855L6.25977 8.35938C6.25977 7.42188 6.79688 6.91406 7.73438 6.91406L12.0703 6.91406L12.0703 5.54688C12.0703 5.20508 12.3633 4.91211 12.7051 4.91211C13.0469 4.91211 13.3398 5.20508 13.3398 5.54688L13.3398 6.91406L17.6758 6.91406C18.623 6.91406 19.1504 7.42188 19.1504 8.35938L19.1504 12.6855C19.1504 13.6035 18.623 14.1211 17.6758 14.1211L13.3398 14.1211L13.3398 19.2871L15.5078 19.2871C15.8594 19.2871 16.1426 19.5898 16.1426 19.9316C16.1426 20.2637 15.8594 20.5664 15.5078 20.5664L9.90234 20.5664C9.56055 20.5664 9.26758 20.2734 9.26758 19.9316C9.26758 19.5801 9.56055 19.2871 9.90234 19.2871L12.0703 19.2871L12.0703 14.1211L7.73438 14.1211C6.79688 14.1211 6.25977 13.6035 6.25977 12.6855ZM10.5859 11.3867C10.3125 11.7773 10.4492 12.0996 10.9277 12.0996L14.502 12.0996C14.9707 12.0996 15.1172 11.7773 14.8438 11.3867L13.0957 8.89648C12.8809 8.58398 12.5488 8.59375 12.334 8.89648Z" fill="white" fill-opacity="0.85"/>
 </g>
</svg>
