<?xml version="1.0" encoding="UTF-8"?>
<!--Generator: Apple Native CoreSVG 341-->
<!DOCTYPE svg
PUBLIC "-//W3C//DTD SVG 1.1//EN"
       "http://www.w3.org/Graphics/SVG/1.1/DTD/svg11.dtd">
<svg version="1.1" xmlns="http://www.w3.org/2000/svg" xmlns:xlink="http://www.w3.org/1999/xlink" viewBox="0 0 36.0298 18.623">
 <g>
  <rect height="18.623" opacity="0" width="36.0298" x="0" y="0"/>
  <path d="M10.554 0.673828L3.60086 17.8223C3.41531 18.3105 3.08328 18.623 2.42899 18.623L0.876251 18.623C0.0461732 18.623-0.168671 17.9785 0.124298 17.4121L8.66922 0.507812C8.82547 0.185547 9.05985 0.0195312 9.43094 0.0195312L10.1634 0.0195312C10.5247 0.0195312 10.7005 0.3125 10.554 0.673828ZM27.0188 0.507812L35.5442 17.4121C35.847 17.9785 35.6321 18.623 34.7923 18.623L33.2395 18.623C32.5852 18.623 32.2532 18.3105 32.0677 17.8223L25.1243 0.673828C24.968 0.3125 25.1438 0.0195312 25.5149 0.0195312L26.2473 0.0195312C26.6087 0.0195312 26.843 0.185547 27.0188 0.507812Z" fill="white" fill-opacity="0.85"/>
  <path d="M20.9641 11.0449L21.8532 11.5591L23.6595 10.5078C23.9915 10.3223 24.3235 10.4102 24.4895 10.7129C24.6555 10.9863 24.5677 11.3281 24.2454 11.5039L23.0022 12.2236L24.3919 13.0273C24.6946 13.2031 24.802 13.5742 24.636 13.877C24.4505 14.1797 24.0794 14.2773 23.7669 14.0918L22.3867 13.3014L22.3802 14.7363C22.3899 15.0977 22.1458 15.3418 21.8138 15.332C21.472 15.3418 21.2376 15.0977 21.2278 14.7168L21.2373 12.6433L20.3391 12.1289L18.3041 10.7916L18.2728 10.2068L18.7851 9.94812ZM14.4016 5.17578L14.3921 7.24933L15.2903 7.76367L17.3325 9.10816L17.3654 9.69039L16.8481 9.94991L14.6653 8.84766L13.7763 8.33349L11.97 9.38477C11.638 9.58008 11.3157 9.49219 11.1399 9.17969C10.9739 8.90625 11.0618 8.56445 11.3938 8.38867L12.6289 7.66987L11.2376 6.86523C10.9348 6.68945 10.8274 6.31836 11.0032 6.00586C11.179 5.71289 11.5501 5.61523 11.8626 5.80078L13.2428 6.59117L13.2493 5.15625C13.2395 4.79492 13.4837 4.55078 13.8157 4.56055C14.1575 4.55078 14.3919 4.79492 14.4016 5.17578Z" fill="white" fill-opacity="0.85"/>
  <path d="M17.3802 9.95117L17.3328 10.789L15.2903 12.1289L14.3921 12.6433L14.4016 14.7266C14.3919 15.1074 14.1575 15.3516 13.8157 15.3418C13.4837 15.3516 13.2395 15.1074 13.2493 14.7461L13.2428 13.3014L11.8626 14.0918C11.5501 14.2773 11.179 14.1797 11.0032 13.877C10.8274 13.5742 10.9348 13.2031 11.2376 13.0273L12.6204 12.2276L11.3938 11.5137C11.0618 11.3379 10.9739 10.9961 11.1399 10.7227C11.3157 10.4199 11.638 10.332 11.97 10.5176L13.7679 11.564L14.6653 11.0449L17.3654 9.69039ZM22.3802 5.15625L22.3867 6.59117L23.7669 5.80078C24.0794 5.61523 24.4505 5.71289 24.6263 6.00586C24.802 6.31836 24.6946 6.68945 24.3919 6.86523L23.0022 7.66894L24.2454 8.38867C24.5677 8.56445 24.6555 8.90625 24.4895 9.17969C24.3235 9.49219 23.9915 9.58008 23.6595 9.38477L21.8532 8.33349L20.9641 8.84766L18.2728 10.2068L18.2591 9.95117L18.3042 9.10817L20.3391 7.76367L21.2373 7.24933L21.2278 5.17578C21.2376 4.79492 21.472 4.55078 21.8138 4.56055C22.1458 4.55078 22.3899 4.79492 22.3802 5.15625Z" fill="white" fill-opacity="0.85"/>
  <path d="M17.8196 17.8125C18.1712 17.8125 18.4348 17.5391 18.4348 17.1777L18.4348 13.2324L18.2591 9.95117L18.4348 6.66992L18.4348 2.71484C18.4348 2.35352 18.1712 2.08008 17.8196 2.08008C17.468 2.08008 17.1946 2.35352 17.1946 2.71484L17.1946 6.66992L17.3802 9.95117L17.1946 13.2324L17.1946 17.1777C17.1946 17.5391 17.468 17.8125 17.8196 17.8125ZM20.4856 3.78906C20.3294 3.49609 19.9876 3.4082 19.6751 3.59375L17.8196 4.6582L15.9544 3.59375C15.6419 3.4082 15.3098 3.49609 15.1438 3.78906C14.968 4.08203 15.0657 4.41406 15.3782 4.59961L17.2337 5.66406C17.7024 5.9082 17.9563 5.91797 18.3958 5.66406L20.2513 4.59961C20.5638 4.41406 20.6614 4.08203 20.4856 3.78906ZM15.1438 16.1035C15.3098 16.3965 15.6419 16.4844 15.9544 16.2988L17.8196 15.2344L19.6751 16.2988C19.9876 16.4844 20.3294 16.3965 20.4856 16.1035C20.6614 15.8105 20.5638 15.4785 20.2513 15.293L18.3958 14.2285C17.9466 13.9746 17.6829 13.9844 17.2337 14.2285L15.3782 15.293C15.0657 15.4785 14.968 15.8105 15.1438 16.1035Z" fill="white" fill-opacity="0.85"/>
 </g>
</svg>
