<?xml version="1.0" encoding="UTF-8"?>
<!--Generator: Apple Native CoreSVG 341-->
<!DOCTYPE svg
PUBLIC "-//W3C//DTD SVG 1.1//EN"
       "http://www.w3.org/Graphics/SVG/1.1/DTD/svg11.dtd">
<svg version="1.1" xmlns="http://www.w3.org/2000/svg" xmlns:xlink="http://www.w3.org/1999/xlink" viewBox="0 0 25.8008 25.459">
 <g>
  <rect height="25.459" opacity="0" width="25.8008" x="0" y="0"/>
  <path d="M25.4395 12.7246C25.4395 19.7266 19.7266 25.4395 12.7148 25.4395C5.71289 25.4395 0 19.7266 0 12.7246C0 5.71289 5.71289 0 12.7148 0C19.7266 0 25.4395 5.71289 25.4395 12.7246ZM12.0801 5.3125L12.0801 6.93359L10.8105 6.21094C10.4883 6.01562 10.1465 6.11328 9.9707 6.41602C9.79492 6.71875 9.89258 7.06055 10.2148 7.24609L12.0801 8.31332L12.0801 9.35547L12.218 11.8597L10.1172 10.4785L9.21901 9.96169L9.22852 7.83203C9.21875 7.44141 8.97461 7.1875 8.61328 7.19727C8.27148 7.1875 8.01758 7.44141 8.02734 7.8125L8.02088 9.27226L6.62109 8.4668C6.29883 8.28125 5.91797 8.37891 5.73242 8.68164C5.54688 9.00391 5.66406 9.38477 5.98633 9.57031L7.39433 10.3844L6.13281 11.123C5.79102 11.2988 5.70312 11.6504 5.86914 11.9336C6.05469 12.2559 6.39648 12.3438 6.72852 12.1484L8.57519 11.0672L9.48242 11.5918L11.719 12.7246L9.48242 13.8574L8.57301 14.3807L6.72852 13.3008C6.39648 13.1152 6.05469 13.2031 5.86914 13.5156C5.70312 13.8086 5.79102 14.1504 6.13281 14.3262L7.38372 15.0651L5.98633 15.8691C5.66406 16.0547 5.54688 16.4355 5.73242 16.748C5.91797 17.0703 6.29883 17.168 6.62109 16.9824L8.02084 16.1731L8.02734 17.6367C8.01758 18.0078 8.27148 18.2617 8.61328 18.252C8.97461 18.2617 9.21875 18.0078 9.22852 17.627L9.21893 15.4803L10.1172 14.9609L12.2183 13.5844L12.0801 16.0938L12.0801 17.1261L10.2148 18.1934C9.89258 18.3789 9.79492 18.7207 9.9707 19.0332C10.1465 19.3262 10.4883 19.4238 10.8105 19.2285L12.0801 18.5059L12.0801 20.127C12.0801 20.498 12.3535 20.7812 12.7148 20.7812C13.0762 20.7812 13.3496 20.498 13.3496 20.127L13.3496 18.5077L14.6094 19.2285C14.9414 19.4238 15.2832 19.3262 15.459 19.0332C15.6348 18.7207 15.5371 18.3789 15.2148 18.1934L13.3496 17.1316L13.3496 16.0938L13.2116 13.587L15.3125 14.9609L16.2107 15.4803L16.2012 17.6172C16.2109 17.998 16.4551 18.252 16.8066 18.2422C17.1484 18.252 17.4121 17.998 17.4023 17.627L17.4088 16.173L18.8086 16.9824C19.1309 17.168 19.5117 17.0703 19.707 16.748C19.8828 16.4355 19.7656 16.0547 19.4434 15.8691L18.0376 15.0602L19.2969 14.3164C19.6289 14.1406 19.7168 13.7988 19.5508 13.5059C19.375 13.1934 19.0332 13.1055 18.7012 13.291L16.8483 14.3759L15.9473 13.8574L13.7071 12.7228L15.9473 11.5918L16.8545 11.0672L18.7012 12.1484C19.0332 12.3438 19.375 12.2559 19.5508 11.9336C19.7168 11.6504 19.6289 11.2988 19.2969 11.123L18.0354 10.3844L19.4434 9.57031C19.7656 9.38477 19.8828 9.00391 19.6973 8.68164C19.5117 8.37891 19.1309 8.28125 18.8086 8.4668L17.4088 9.27226L17.4023 7.8125C17.4121 7.44141 17.1484 7.1875 16.8066 7.19727C16.4551 7.1875 16.2109 7.44141 16.2012 7.83203L16.2107 9.96169L15.3125 10.4785L13.2117 11.8597L13.3496 9.35547L13.3496 8.30784L15.2148 7.24609C15.5371 7.06055 15.6348 6.71875 15.459 6.41602C15.2832 6.11328 14.9414 6.01562 14.6094 6.21094L13.3496 6.93173L13.3496 5.3125C13.3496 4.94141 13.0762 4.6582 12.7148 4.6582C12.3535 4.6582 12.0801 4.94141 12.0801 5.3125Z" fill="white" fill-opacity="0.85"/>
 </g>
</svg>
