<?xml version="1.0" encoding="UTF-8"?>
<!--Generator: Apple Native CoreSVG 341-->
<!DOCTYPE svg
PUBLIC "-//W3C//DTD SVG 1.1//EN"
       "http://www.w3.org/Graphics/SVG/1.1/DTD/svg11.dtd">
<svg version="1.1" xmlns="http://www.w3.org/2000/svg" xmlns:xlink="http://www.w3.org/1999/xlink" viewBox="0 0 25.8008 25.459">
 <g>
  <rect height="25.459" opacity="0" width="25.8008" x="0" y="0"/>
  <path d="M12.7148 25.4395C19.7266 25.4395 25.4395 19.7266 25.4395 12.7246C25.4395 5.71289 19.7266 0 12.7148 0C5.71289 0 0 5.71289 0 12.7246C0 19.7266 5.71289 25.4395 12.7148 25.4395Z" fill="white" fill-opacity="0.2125"/>
  <path d="M12.7148 19.6289C8.90625 19.6289 5.82031 16.543 5.82031 12.7344C5.82031 8.91602 8.90625 5.83984 12.7148 5.83984C16.5332 5.83984 19.6094 8.91602 19.6094 12.7344C19.6094 16.543 16.5332 19.6289 12.7148 19.6289ZM7.73438 15.957L9.81445 15.9277L10.8203 14.6191L10.1855 12.627L8.33984 11.875L6.78711 12.7539C6.79688 13.9453 7.14844 15.0195 7.73438 15.957ZM8.05664 9.0332L8.62305 10.8887L10.4688 11.6309L12.2168 10.293L12.2168 8.36914L10.6836 7.14844C9.64844 7.51953 8.74023 8.18359 8.05664 9.0332ZM17.3828 9.0332C16.7188 8.18359 15.8008 7.51953 14.7559 7.14844L13.2422 8.33984L13.2422 10.293L14.9805 11.6309L16.8359 10.8887ZM17.7051 15.9766C18.3008 15.0488 18.6523 13.9453 18.6621 12.7539L17.1191 11.875L15.2637 12.627L14.6289 14.6289L15.625 15.9473ZM12.7246 18.6523C13.3008 18.6523 13.8574 18.584 14.3848 18.418L14.8242 16.5625L13.916 15.3906L11.5137 15.3906L10.6348 16.5332L11.0742 18.418C11.6016 18.5742 12.1484 18.6523 12.7246 18.6523Z" fill="white" fill-opacity="0.85"/>
 </g>
</svg>
