<?xml version="1.0" encoding="UTF-8"?>
<!--Generator: Apple Native CoreSVG 341-->
<!DOCTYPE svg
PUBLIC "-//W3C//DTD SVG 1.1//EN"
       "http://www.w3.org/Graphics/SVG/1.1/DTD/svg11.dtd">
<svg version="1.1" xmlns="http://www.w3.org/2000/svg" xmlns:xlink="http://www.w3.org/1999/xlink" viewBox="0 0 30.9473 31.5918">
 <g>
  <rect height="31.5918" opacity="0" width="30.9473" x="0" y="0"/>
  <path d="M23.2553 3.47656L7.34027 3.47656C7.40286 2.59177 7.97731 2.08008 8.91602 2.08008L21.6699 2.08008C22.6086 2.08008 23.1917 2.59177 23.2553 3.47656Z" fill="white" fill-opacity="0.85"/>
  <path d="M25.7757 6.89437C25.4256 6.84087 25.0548 6.81641 24.668 6.81641L5.91797 6.81641C5.53106 6.81641 5.16024 6.84065 4.81033 6.89376C4.94314 5.85538 5.65863 5.27344 6.80664 5.27344L23.7793 5.27344C24.9275 5.27344 25.6431 5.85561 25.7757 6.89437Z" fill="white" fill-opacity="0.85"/>
  <path d="M28.4668 12.6953L28.4668 25.7129C28.4668 28.2031 27.1875 29.4824 24.668 29.4824L5.91797 29.4824C3.38867 29.4824 2.11914 28.2129 2.11914 25.7129L2.11914 12.6953C2.11914 10.1953 3.38867 8.93555 5.91797 8.93555L24.668 8.93555C27.1875 8.93555 28.4668 10.2051 28.4668 12.6953ZM10.4883 21.1133C10.1562 22.9492 10.2832 23.1152 8.1543 23.4375C7.99805 23.457 7.90039 23.584 7.90039 23.7402C7.90039 23.916 7.99805 24.0137 8.17383 24.043C10.2832 24.3359 10.1562 24.502 10.4883 26.3574C10.5371 26.5234 10.6348 26.6309 10.8008 26.6309C10.957 26.6309 11.0742 26.5332 11.1133 26.3867C11.4355 24.502 11.3379 24.3359 13.457 24.043C13.6035 24.0137 13.7207 23.8867 13.7207 23.7402C13.7207 23.584 13.6035 23.457 13.457 23.4375C11.3379 23.1152 11.4355 22.9492 11.1133 21.1133C11.0742 20.9473 10.9668 20.8301 10.8008 20.8301C10.6445 20.8301 10.5371 20.9375 10.4883 21.1133ZM15.4883 12.959C14.7754 17.0508 14.4531 17.6074 10.3125 18.1641C10.0781 18.1934 9.92188 18.3691 9.92188 18.5742C9.92188 18.8086 10.0781 18.9746 10.3125 19.0039C14.4727 19.3164 14.9316 20.1465 15.4883 24.1992C15.5273 24.4238 15.6836 24.5801 15.9375 24.5801C16.1523 24.5801 16.2988 24.4238 16.3477 24.209C17.041 20.1465 17.3926 19.5508 21.543 19.0039C21.7676 18.9746 21.9238 18.8086 21.9238 18.5742C21.9238 18.3691 21.7676 18.1934 21.543 18.1641C17.4023 17.6074 16.9434 16.9922 16.3477 12.9688C16.3086 12.7441 16.1523 12.5879 15.9375 12.5879C15.7031 12.5879 15.5469 12.7344 15.4883 12.959Z" fill="white" fill-opacity="0.85"/>
 </g>
</svg>
