<?xml version="1.0" encoding="UTF-8"?>
<!--Generator: Apple Native CoreSVG 341-->
<!DOCTYPE svg
PUBLIC "-//W3C//DTD SVG 1.1//EN"
       "http://www.w3.org/Graphics/SVG/1.1/DTD/svg11.dtd">
<svg version="1.1" xmlns="http://www.w3.org/2000/svg" xmlns:xlink="http://www.w3.org/1999/xlink" viewBox="0 0 29.7266 28.3594">
 <g>
  <rect height="28.3594" opacity="0" width="29.7266" x="0" y="0"/>
  <path d="M12.4512 0.688477L17.1166 3.38187C17.0446 3.41379 16.9739 3.45067 16.9043 3.49121L15.4713 4.32006L11.8457 2.22168C11.4453 1.99707 11.0156 1.99707 10.6152 2.22168L2.23633 7.06543C1.8457 7.29004 1.63086 7.68066 1.63086 8.12012L1.63086 17.7783C1.63086 18.208 1.8457 18.6182 2.23633 18.8428L7.03017 21.6117C7.21498 22.1674 7.59736 22.6332 8.125 22.9443L12.2416 25.3255C11.5189 25.6557 10.7028 25.62 10 25.2197L1.2207 20.1416C0.449219 19.6924 0 18.9209 0 18.0127L0 7.87598C0 6.97754 0.449219 6.19629 1.2207 5.75684L10 0.688477C10.7715 0.239258 11.6797 0.239258 12.4512 0.688477Z" fill="white" fill-opacity="0.85"/>
  <path d="M8.125 22.9443L16.9043 28.0225C17.6758 28.4717 18.584 28.4717 19.3555 28.0225L28.125 22.9443C28.8867 22.4951 29.3652 21.7236 29.3652 20.8252L29.3652 10.6885C29.3652 9.78027 28.8965 9.00879 28.125 8.56934L19.3555 3.49121C18.584 3.04199 17.6758 3.04199 16.9043 3.49121L8.125 8.56934C7.35352 9.00879 6.9043 9.78027 6.9043 10.6885L6.9043 20.8252C6.9043 21.7236 7.36328 22.4951 8.125 22.9443ZM8.53516 20.5908L8.53516 10.9229C8.53516 10.4834 8.75 10.0928 9.14062 9.87793L17.5195 5.02441C17.9199 4.7998 18.3496 4.7998 18.75 5.02441L27.1094 9.87793C27.5 10.1025 27.7344 10.4834 27.7344 10.9229L27.7344 20.5908C27.7344 21.0107 27.5098 21.4209 27.1094 21.6455L18.75 26.4893C18.3496 26.7139 17.9102 26.7139 17.5098 26.4893L9.14062 21.6455C8.74023 21.4209 8.53516 21.0107 8.53516 20.5908ZM7.74414 21.4404L18.1348 27.2998L28.5547 21.2451L28.5547 19.0283L24.9609 15.6787C24.4434 15.1904 23.8184 14.9463 23.1836 14.9463C22.5488 14.9463 21.9824 15.1709 21.4355 15.6689L16.3184 20.2393L14.2285 18.335C13.75 17.8857 13.2324 17.6514 12.6562 17.6514C12.1191 17.6514 11.6504 17.876 11.1719 18.3154ZM14.4922 15.7275C15.9668 15.7275 17.207 14.4971 17.207 13.0127C17.207 11.5283 15.9668 10.2979 14.4922 10.2979C12.998 10.2979 11.7871 11.5283 11.7871 13.0127C11.7871 14.4971 12.998 15.7275 14.4922 15.7275Z" fill="white" fill-opacity="0.85"/>
 </g>
</svg>
