<?xml version="1.0" encoding="UTF-8"?>
<!--Generator: Apple Native CoreSVG 341-->
<!DOCTYPE svg
PUBLIC "-//W3C//DTD SVG 1.1//EN"
       "http://www.w3.org/Graphics/SVG/1.1/DTD/svg11.dtd">
<svg version="1.1" xmlns="http://www.w3.org/2000/svg" xmlns:xlink="http://www.w3.org/1999/xlink" viewBox="0 0 22.4512 30.7715">
 <g>
  <rect height="30.7715" opacity="0" width="22.4512" x="0" y="0"/>
  <path d="M22.0898 13.8574L22.0898 23.4961C22.0898 26.8359 20.2344 28.7012 16.8848 28.7012L5.20508 28.7012C1.85547 28.7012 0 26.8359 0 23.4961L0 13.8574C0 10.5176 1.85547 8.65234 5.20508 8.65234L7.99805 8.65234L7.99805 10.3906L5.20508 10.3906C2.98828 10.3906 1.73828 11.6406 1.73828 13.8574L1.73828 23.4961C1.73828 25.7129 2.98828 26.9629 5.20508 26.9629L16.8848 26.9629C19.1113 26.9629 20.3613 25.7129 20.3613 23.4961L20.3613 13.8574C20.3613 11.6406 19.1113 10.3906 16.8848 10.3906L14.1113 10.3906L14.1113 8.65234L16.8848 8.65234C20.2344 8.65234 22.0898 10.5176 22.0898 13.8574Z" fill="white" fill-opacity="0.85"/>
  <path d="M11.0547 2.19727C10.5859 2.19727 10.1953 2.57812 10.1953 3.03711L10.1953 16.1426L10.3223 19.2578C10.3418 19.6582 10.6543 19.9902 11.0547 19.9902C11.4453 19.9902 11.7578 19.6582 11.7773 19.2578L11.9043 16.1426L11.9043 3.03711C11.9043 2.57812 11.5137 2.19727 11.0547 2.19727ZM6.76758 14.6973C6.31836 14.6973 5.98633 15.0195 5.98633 15.459C5.98633 15.6934 6.08398 15.8594 6.25 16.0254L10.4297 20.0977C10.6445 20.3027 10.8301 20.3809 11.0547 20.3809C11.2695 20.3809 11.4551 20.3027 11.6699 20.0977L15.8496 16.0254C16.0156 15.8594 16.1035 15.6934 16.1035 15.459C16.1035 15.0195 15.7617 14.6973 15.3223 14.6973C15.1172 14.6973 14.8926 14.7852 14.7363 14.9609L12.6074 17.1875L11.0547 18.8379L9.48242 17.1875L7.36328 14.9609C7.20703 14.7852 6.97266 14.6973 6.76758 14.6973Z" fill="white" fill-opacity="0.85"/>
 </g>
</svg>
