<svg version="1.1" xmlns="http://www.w3.org/2000/svg" xmlns:xlink="http://www.w3.org/1999/xlink" viewBox="0 0 28.6328 35.791">
 <g>
  <rect height="35.791" opacity="0" width="28.6328" x="0" y="0"/>
  <path d="M28.2715 19.5117L28.2715 29.1406C28.2715 32.4902 26.416 34.3555 23.0762 34.3555L11.3867 34.3555C8.04688 34.3555 6.18164 32.4902 6.18164 29.1406L6.18164 28.7012L7.91992 28.7012L7.91992 29.1406C7.91992 31.3672 9.16992 32.6172 11.3867 32.6172L23.0762 32.6172C25.293 32.6172 26.543 31.3672 26.543 29.1406L26.543 19.5117C26.543 17.2949 25.293 16.0449 23.0762 16.0449L22.0898 16.0449L22.0898 14.3066L23.0762 14.3066C26.416 14.3066 28.2715 16.1621 28.2715 19.5117Z" fill="var(--color-secondary)"/>
  <path d="M22.0898 13.8574L22.0898 23.4961C22.0898 26.8457 20.2344 28.7012 16.8848 28.7012L5.20508 28.7012C1.85547 28.7012 0 26.8457 0 23.4961L0 13.8574C0 10.5176 1.85547 8.66211 5.20508 8.66211L7.99805 8.66211L7.99805 10.4004L5.20508 10.4004C2.98828 10.4004 1.73828 11.6406 1.73828 13.8574L1.73828 23.4961C1.73828 25.7227 2.98828 26.9727 5.20508 26.9727L16.8848 26.9727C19.1113 26.9727 20.3613 25.7227 20.3613 23.4961L20.3613 13.8574C20.3613 11.6406 19.1113 10.4004 16.8848 10.4004L14.1113 10.4004L14.1113 8.66211L16.8848 8.66211C20.2344 8.66211 22.0898 10.5176 22.0898 13.8574Z" fill="var(--color-secondary)"/>
  <path d="M11.0547 2.20703C10.5859 2.20703 10.1953 2.58789 10.1953 3.03711L10.1953 16.1426L10.3223 19.2676C10.3418 19.668 10.6543 20 11.0547 20C11.4453 20 11.7578 19.668 11.7773 19.2676L11.9043 16.1426L11.9043 3.03711C11.9043 2.58789 11.5137 2.20703 11.0547 2.20703ZM6.76758 14.707C6.31836 14.707 5.98633 15.0293 5.98633 15.4688C5.98633 15.6934 6.08398 15.8691 6.25 16.0254L10.4297 20.0977C10.6445 20.3125 10.8301 20.3809 11.0547 20.3809C11.2695 20.3809 11.4551 20.3125 11.6699 20.0977L15.8496 16.0254C16.0156 15.8691 16.1035 15.6934 16.1035 15.4688C16.1035 15.0293 15.7617 14.707 15.3223 14.707C15.1172 14.707 14.8926 14.7949 14.7363 14.9609L12.6074 17.1973L11.0547 18.8379L9.48242 17.1973L7.36328 14.9609C7.20703 14.7949 6.97266 14.707 6.76758 14.707Z" fill="var(--color-primary)"/>
 </g>
</svg>
