<svg version="1.1" xmlns="http://www.w3.org/2000/svg" xmlns:xlink="http://www.w3.org/1999/xlink" viewBox="0 0 25.8008 25.459">
 <g>
  <rect height="25.459" opacity="0" width="25.8008" x="0" y="0"/>
  <path d="M12.7148 25.459C19.7266 25.459 25.4395 19.7461 25.4395 12.7344C25.4395 5.73242 19.7266 0.0195312 12.7148 0.0195312C5.71289 0.0195312 0 5.73242 0 12.7344C0 19.7461 5.71289 25.459 12.7148 25.459Z" fill="var(--color-tertiary)"/>
  <path d="M8.89648 19.1406C7.29492 19.1406 6.32812 18.1836 6.32812 16.5918L6.32812 9.88281C6.32812 8.29102 7.29492 7.32422 8.89648 7.32422L15.4102 7.32422L14.209 8.52539L8.91602 8.52539C8.04688 8.52539 7.53906 9.05273 7.53906 9.93164L7.53906 16.543C7.53906 17.4121 8.04688 17.9395 8.91602 17.9395L15.7129 17.9395C16.4746 17.9395 16.9336 17.4121 16.9336 16.543L16.9336 11.3184L18.1348 10.1172L18.1348 16.5918C18.1348 18.1836 17.2168 19.1406 15.7324 19.1406ZM11.0352 14.7949C10.8105 14.8828 10.5469 14.6484 10.6641 14.4141L11.2207 13.252L17.207 7.27539L18.2422 8.28125L12.2461 14.2676ZM18.7793 7.74414L17.7539 6.69922L18.2715 6.19141C18.5547 5.92773 18.9453 5.91797 19.1797 6.16211L19.3262 6.29883C19.5508 6.5332 19.5703 6.88477 19.2969 7.17773Z" fill="var(--color-primary)"/>
 </g>
</svg>
