<?xml version="1.0" encoding="UTF-8"?>
<!--Generator: Apple Native CoreSVG 341-->
<!DOCTYPE svg
PUBLIC "-//W3C//DTD SVG 1.1//EN"
       "http://www.w3.org/Graphics/SVG/1.1/DTD/svg11.dtd">
<svg version="1.1" xmlns="http://www.w3.org/2000/svg" xmlns:xlink="http://www.w3.org/1999/xlink" viewBox="0 0 25.8008 25.459">
 <g>
  <rect height="25.459" opacity="0" width="25.8008" x="0" y="0"/>
  <path d="M25.4395 12.7246C25.4395 19.7266 19.7266 25.4395 12.7148 25.4395C5.71289 25.4395 0 19.7266 0 12.7246C0 5.71289 5.71289 0 12.7148 0C19.7266 0 25.4395 5.71289 25.4395 12.7246ZM14.2773 8.4082L14.2773 9.58008L15.3125 9.58008C16.0254 9.58008 16.5234 9.75586 16.8262 10.0684C17.1484 10.3906 17.334 10.8887 17.334 11.5918L17.334 15.8691C17.334 16.5723 17.1387 17.0605 16.8262 17.373C16.5137 17.6953 16.0156 17.8613 15.3125 17.8613L10.0977 17.8613C9.42383 17.8613 8.91602 17.6953 8.60352 17.373C8.28125 17.0605 8.10547 16.5723 8.10547 15.8691L8.10547 11.5918C8.10547 10.8887 8.28125 10.4004 8.60352 10.0879C8.91602 9.75586 9.42383 9.58008 10.0977 9.58008L11.1621 9.58008L11.1621 8.4082L10.0977 8.4082C9.08203 8.4082 8.28125 8.71094 7.75391 9.21875C7.23633 9.74609 6.94336 10.5566 6.94336 11.5918L6.94336 15.8691C6.94336 16.9043 7.23633 17.6953 7.75391 18.2324C8.28125 18.75 9.08203 19.043 10.0977 19.043L15.3125 19.043C16.377 19.043 17.1582 18.7402 17.6758 18.2324C18.2227 17.6953 18.4961 16.9043 18.4961 15.8691L18.4961 11.5918C18.4961 10.5566 18.2227 9.74609 17.6758 9.21875C17.1582 8.70117 16.377 8.4082 15.3125 8.4082ZM12.3047 4.45312L10.0781 6.62109C9.94141 6.74805 9.90234 6.875 9.90234 7.02148C9.90234 7.31445 10.127 7.5293 10.4199 7.5293C10.5762 7.5293 10.7324 7.4707 10.8398 7.36328L11.5723 6.60156L12.1641 5.98964L12.1484 6.60156L12.1484 13.3691C12.1484 13.6914 12.3926 13.9453 12.7148 13.9453C13.0371 13.9453 13.291 13.6914 13.291 13.3691L13.291 6.60156L13.2756 5.9998L13.8379 6.60156L14.5801 7.36328C14.6777 7.4707 14.8242 7.5293 14.9902 7.5293C15.3125 7.5293 15.5371 7.31445 15.5371 7.02148C15.5371 6.86523 15.4785 6.73828 15.3516 6.63086L13.1152 4.45312C12.9785 4.31641 12.8516 4.26758 12.7148 4.26758C12.5684 4.26758 12.4414 4.31641 12.3047 4.45312Z" fill="white" fill-opacity="0.85"/>
 </g>
</svg>
