<?xml version="1.0" encoding="UTF-8"?>
<!--Generator: Apple Native CoreSVG 341-->
<!DOCTYPE svg
PUBLIC "-//W3C//DTD SVG 1.1//EN"
       "http://www.w3.org/Graphics/SVG/1.1/DTD/svg11.dtd">
<svg version="1.1" xmlns="http://www.w3.org/2000/svg" xmlns:xlink="http://www.w3.org/1999/xlink" viewBox="0 0 25.8008 25.459">
 <g>
  <rect height="25.459" opacity="0" width="25.8008" x="0" y="0"/>
  <path d="M25.4395 12.7344C25.4395 19.7461 19.7266 25.459 12.7148 25.459C5.71289 25.459 0 19.7461 0 12.7344C0 5.73242 5.71289 0.0195312 12.7148 0.0195312C19.7266 0.0195312 25.4395 5.73242 25.4395 12.7344ZM8.89648 7.32422C7.29492 7.32422 6.32812 8.29102 6.32812 9.88281L6.32812 16.5918C6.32812 18.1836 7.29492 19.1406 8.89648 19.1406L15.7324 19.1406C17.2168 19.1406 18.1348 18.1836 18.1348 16.5918L18.1348 10.1172L16.9336 11.3184L16.9336 16.543C16.9336 17.4121 16.4746 17.9395 15.7129 17.9395L8.91602 17.9395C8.04688 17.9395 7.53906 17.4121 7.53906 16.543L7.53906 9.93164C7.53906 9.05273 8.04688 8.52539 8.91602 8.52539L14.209 8.52539L15.4102 7.32422ZM11.2207 13.252L10.6641 14.4141C10.5469 14.6484 10.8105 14.8828 11.0352 14.7949L12.2461 14.2676L18.2422 8.28125L17.207 7.27539ZM18.2715 6.19141L17.7539 6.69922L18.7793 7.74414L19.2969 7.17773C19.5703 6.88477 19.5508 6.5332 19.3262 6.29883L19.1797 6.16211C18.9453 5.91797 18.5547 5.92773 18.2715 6.19141Z" fill="white" fill-opacity="0.85"/>
 </g>
</svg>
