<?xml version="1.0" encoding="UTF-8"?>
<!--Generator: Apple Native CoreSVG 341-->
<!DOCTYPE svg
PUBLIC "-//W3C//DTD SVG 1.1//EN"
       "http://www.w3.org/Graphics/SVG/1.1/DTD/svg11.dtd">
<svg version="1.1" xmlns="http://www.w3.org/2000/svg" xmlns:xlink="http://www.w3.org/1999/xlink" viewBox="0 0 25.2344 27.9248">
 <g>
  <rect height="27.9248" opacity="0" width="25.2344" x="0" y="0"/>
  <path d="M1.34766 21.9067L11.0938 27.5513C11.9531 28.0493 12.9297 28.0493 13.7793 27.5513L23.5352 21.9067C24.375 21.4185 24.873 20.5688 24.873 19.5825L24.873 8.32275C24.873 7.34619 24.375 6.48682 23.5352 5.99854L13.7793 0.373535C12.9297-0.124512 11.9531-0.124512 11.0938 0.373535L1.34766 5.99854C0.498047 6.48682 0 7.34619 0 8.32275L0 19.5825C0 20.5688 0.498047 21.4185 1.34766 21.9067Z" fill="white" fill-opacity="0.2125"/>
  <path d="M8.66211 20.6177C7.99805 21.1255 7.28516 20.6079 7.54883 19.8169L9.02344 15.3638L5.21484 12.6489C4.59961 12.1899 4.80469 11.2915 5.6543 11.3013L10.332 11.3306L11.7578 6.86768C12.002 6.10596 12.8809 6.10596 13.1152 6.86768L14.541 11.3306L19.2285 11.3013C20.0781 11.2915 20.2539 12.2095 19.668 12.6392L15.8496 15.3638L17.334 19.8169C17.5977 20.6079 16.8848 21.1255 16.2207 20.6177L12.4414 17.8638Z" fill="white" fill-opacity="0.85"/>
 </g>
</svg>
