<svg version="1.1" xmlns="http://www.w3.org/2000/svg" xmlns:xlink="http://www.w3.org/1999/xlink" viewBox="0 0 25.8008 25.459">
 <g>
  <rect height="25.459" opacity="0" width="25.8008" x="0" y="0"/>
  <path d="M12.7148 25.4395C19.7266 25.4395 25.4395 19.7266 25.4395 12.7246C25.4395 5.71289 19.7266 0 12.7148 0C5.71289 0 0 5.71289 0 12.7246C0 19.7266 5.71289 25.4395 12.7148 25.4395Z" fill="var(--color-tertiary)"/>
  <path d="M7.82227 16.4648L7.82227 9.31641C7.82227 8.29102 8.52539 7.58789 9.54102 7.58789L9.94141 7.58789L9.94141 5.66406C9.94141 4.69727 10.5176 4.11133 11.5039 4.11133L13.9453 4.11133C14.9316 4.11133 15.5078 4.69727 15.5078 5.66406L15.5078 7.58789L15.918 7.58789C16.9141 7.58789 17.6172 8.29102 17.6172 9.31641L17.6172 16.4648ZM11.0449 7.58789L14.3945 7.58789L14.3945 5.78125C14.3945 5.43945 14.1797 5.23438 13.8184 5.23438L11.6113 5.23438C11.2598 5.23438 11.0449 5.42969 11.0449 5.78125ZM7.82227 17.4414L17.6172 17.4414L17.6172 18.1836C17.6172 19.0625 17.1289 19.7363 16.3281 19.8633L16.0742 19.8926L16.0742 20.3125C16.0742 20.6348 15.8594 20.8398 15.5469 20.8398L15.1758 20.8398C14.8535 20.8398 14.6484 20.6348 14.6484 20.3125L14.6484 19.9316L10.791 19.9316L10.791 20.3125C10.791 20.6348 10.5859 20.8398 10.2637 20.8398L9.89258 20.8398C9.57031 20.8398 9.36523 20.6348 9.36523 20.3125L9.36523 19.8926L9.11133 19.8633C8.31055 19.7363 7.82227 19.0625 7.82227 18.1836Z" fill="var(--color-primary)"/>
 </g>
</svg>
