<?xml version="1.0" encoding="UTF-8"?>
<!--Generator: Apple Native CoreSVG 341-->
<!DOCTYPE svg
PUBLIC "-//W3C//DTD SVG 1.1//EN"
       "http://www.w3.org/Graphics/SVG/1.1/DTD/svg11.dtd">
<svg version="1.1" xmlns="http://www.w3.org/2000/svg" xmlns:xlink="http://www.w3.org/1999/xlink" viewBox="0 0 24.0625 23.623">
 <g>
  <rect height="23.623" opacity="0" width="24.0625" x="0" y="0"/>
  <path d="M5.25391 23.5547L18.4473 23.5547C21.3867 23.5547 23.7012 21.5039 23.7012 18.5059C23.7012 15.5176 21.3867 13.4668 18.4473 13.4668L5.25391 13.4668C2.31445 13.4668 0 15.5176 0 18.5059C0 21.5039 2.31445 23.5547 5.25391 23.5547ZM16.2109 21.8848C14.3066 21.8848 12.7441 20.5176 12.7441 18.4961C12.7441 16.4941 14.3066 15.127 16.2109 15.127L18.6328 15.127C20.5469 15.127 22.0996 16.4941 22.0996 18.5059C22.0996 20.5176 20.5469 21.8848 18.6328 21.8848Z" fill="white" fill-opacity="0.85"/>
  <path d="M5.80078 11.2793L17.9004 11.2793C21.0938 11.2793 23.7012 8.99414 23.7012 5.64453C23.7012 2.29492 21.0938 0 17.9004 0L5.80078 0C2.60742 0 0 2.29492 0 5.64453C0 8.99414 2.60742 11.2793 5.80078 11.2793ZM5.80078 9.64844C3.54492 9.64844 1.68945 8.02734 1.68945 5.64453C1.68945 3.26172 3.54492 1.64062 5.80078 1.64062L17.9004 1.64062C20.1562 1.64062 22.0117 3.27148 22.0117 5.64453C22.0117 8.01758 20.1562 9.64844 17.9004 9.64844Z" fill="white" fill-opacity="0.425"/>
  <path d="M5.80078 8.80859L8.07617 8.80859C9.86328 8.80859 11.3281 7.51953 11.3281 5.64453C11.3281 3.75977 9.86328 2.4707 8.07617 2.4707L5.80078 2.4707C4.01367 2.4707 2.55859 3.75977 2.55859 5.63477C2.55859 7.51953 4.01367 8.80859 5.80078 8.80859Z" fill="white" fill-opacity="0.85"/>
 </g>
</svg>
