<svg version="1.1" xmlns="http://www.w3.org/2000/svg" xmlns:xlink="http://www.w3.org/1999/xlink" viewBox="0 0 28.2983 29.3042">
 <g>
  <rect height="29.3042" opacity="0" width="28.2983" x="0" y="0"/>
  <path d="M6.98765 11.4676L2.6062 15.8386C1.63941 16.7957 1.61988 17.8308 2.61597 18.8269L10.4773 26.6882C11.4734 27.6843 12.4988 27.6746 13.4656 26.698L17.8425 22.3176L19.0697 23.5443L14.6375 27.9871C12.8992 29.7351 11.1023 29.7546 9.32495 27.9773L1.32691 19.989C-0.450437 18.2312-0.430906 16.4148 1.31714 14.6765L5.76359 10.2441ZM23.7878 2.6062L26.7078 5.53589C27.6648 6.48316 27.9382 6.86402 27.9382 8.13355L27.9382 12.9285C27.9382 14.2566 27.8699 14.7351 26.9714 15.6238L22.1725 20.4342L20.948 19.2097L25.7507 14.4031C26.0437 14.1199 26.2 13.8171 26.2 13.3582L26.2 8.05542C26.2 7.62573 26.0535 7.323 25.7507 7.02027L22.2937 3.56323C21.991 3.27027 21.6882 3.11402 21.2683 3.11402L15.9558 3.11402C15.5066 3.11402 15.2039 3.28003 14.9109 3.56323L10.1005 8.3622L8.8779 7.13962L13.6902 2.34253C14.5886 1.45386 15.0574 1.3855 16.3953 1.3855L21.1804 1.3855C22.45 1.3855 22.8308 1.64917 23.7878 2.6062ZM21.3464 9.57886C21.3464 10.4773 20.6531 11.1804 19.7449 11.1804C18.8269 11.1804 18.1335 10.4773 18.1335 9.57886C18.1335 8.68042 18.8269 7.9773 19.7449 7.9773C20.6531 7.9773 21.3464 8.68042 21.3464 9.57886Z" fill="var(--color-secondary)"/>
  <path d="M24.3054 26.8543C24.6277 27.1765 25.155 27.1765 25.4773 26.8543C25.7996 26.532 25.8093 25.9949 25.4773 25.6726L3.63159 3.82691C3.30933 3.50464 2.78198 3.48511 2.44019 3.82691C2.12769 4.13941 2.12769 4.68628 2.44019 4.99878Z" fill="var(--color-primary)"/>
 </g>
</svg>
