<?xml version="1.0" encoding="UTF-8"?>
<!--Generator: Apple Native CoreSVG 341-->
<!DOCTYPE svg
PUBLIC "-//W3C//DTD SVG 1.1//EN"
       "http://www.w3.org/Graphics/SVG/1.1/DTD/svg11.dtd">
<svg version="1.1" xmlns="http://www.w3.org/2000/svg" xmlns:xlink="http://www.w3.org/1999/xlink" viewBox="0 0 29.9512 22.959">
 <g>
  <rect height="22.959" opacity="0" width="29.9512" x="0" y="0"/>
  <path d="M3.79883 22.959L25.7812 22.959C28.3105 22.959 29.5898 21.6797 29.5898 19.1992L29.5898 3.76953C29.5898 1.2793 28.3105 0 25.7812 0L3.79883 0C1.2793 0 0 1.26953 0 3.76953L0 19.1992C0 21.6992 1.2793 22.959 3.79883 22.959Z" fill="white" fill-opacity="0.2125"/>
  <path d="M5.43945 6.86523C5.0293 6.86523 4.72656 6.55273 4.72656 6.16211C4.72656 5.77148 5.0293 5.46875 5.43945 5.46875L24.1602 5.46875C24.5605 5.46875 24.8633 5.77148 24.8633 6.16211C24.8633 6.55273 24.5605 6.86523 24.1602 6.86523ZM5.43945 12.0605C5.0293 12.0605 4.72656 11.748 4.72656 11.3574C4.72656 10.9766 5.0293 10.6738 5.43945 10.6738L14.8828 10.6738C15.2832 10.6738 15.5859 10.9766 15.5859 11.3574C15.5859 11.748 15.2832 12.0605 14.8828 12.0605Z" fill="white" fill-opacity="0.85"/>
 </g>
</svg>
