<?xml version="1.0" encoding="UTF-8"?>
<!--Generator: Apple Native CoreSVG 341-->
<!DOCTYPE svg
PUBLIC "-//W3C//DTD SVG 1.1//EN"
       "http://www.w3.org/Graphics/SVG/1.1/DTD/svg11.dtd">
<svg version="1.1" xmlns="http://www.w3.org/2000/svg" xmlns:xlink="http://www.w3.org/1999/xlink" viewBox="0 0 23.3203 22.959">
 <g>
  <rect height="22.959" opacity="0" width="23.3203" x="0" y="0"/>
  <path d="M3.79883 22.959L19.1504 22.959C21.6797 22.959 22.959 21.6797 22.959 19.1992L22.959 3.76953C22.959 1.2793 21.6797 0 19.1504 0L3.79883 0C1.2793 0 0 1.26953 0 3.76953L0 19.1992C0 21.6992 1.2793 22.959 3.79883 22.959ZM3.83789 21.2305C2.4707 21.2305 1.72852 20.5078 1.72852 19.1016L1.72852 3.85742C1.72852 2.46094 2.4707 1.72852 3.83789 1.72852L19.1211 1.72852C20.459 1.72852 21.2305 2.46094 21.2305 3.85742L21.2305 19.1016C21.2305 20.5078 20.459 21.2305 19.1211 21.2305Z" fill="white" fill-opacity="0.85"/>
  <path d="M8.27148 18.8965L14.7363 18.8965C15.5469 18.8965 16.0938 18.4082 16.123 17.5879L16.582 7.43164L17.627 7.43164C17.9004 7.43164 18.1152 7.20703 18.125 6.94336C18.1348 6.66992 17.9004 6.45508 17.627 6.45508L14.5215 6.45508L14.5215 5.39062C14.5215 4.4043 13.8379 3.75977 12.7832 3.75977L10.1953 3.75977C9.14062 3.75977 8.47656 4.4043 8.47656 5.39062L8.47656 6.45508L5.32227 6.45508C5.05859 6.45508 4.83398 6.66992 4.83398 6.94336C4.83398 7.20703 5.05859 7.43164 5.32227 7.43164L6.42578 7.43164L6.89453 17.5879C6.92383 18.4082 7.44141 18.8965 8.27148 18.8965ZM9.32617 16.9434C9.0918 16.9434 8.91602 16.7871 8.90625 16.5527L8.58398 9.07227C8.57422 8.81836 8.74023 8.65234 9.02344 8.65234C9.26758 8.65234 9.44336 8.80859 9.44336 9.05273L9.73633 16.5332C9.74609 16.7773 9.59961 16.9434 9.32617 16.9434ZM11.4648 16.9434C11.2109 16.9434 11.0352 16.7676 11.0352 16.5332L11.0352 9.0625C11.0352 8.80859 11.1914 8.65234 11.4648 8.65234C11.7285 8.65234 11.9043 8.80859 11.9043 9.0625L11.9043 16.5332C11.9043 16.7676 11.7188 16.9434 11.4648 16.9434ZM13.5938 16.9434C13.3301 16.9434 13.1836 16.7773 13.1934 16.5332L13.4766 9.05273C13.4863 8.80859 13.6621 8.65234 13.916 8.65234C14.1797 8.65234 14.3457 8.81836 14.3359 9.07227L14.0137 16.5527C14.0039 16.7871 13.8379 16.9434 13.5938 16.9434ZM9.59961 6.45508L9.59961 5.44922C9.59961 5.09766 9.86328 4.86328 10.2344 4.86328L12.7051 4.86328C13.0859 4.86328 13.3496 5.09766 13.3496 5.44922L13.3496 6.45508Z" fill="white" fill-opacity="0.85"/>
 </g>
</svg>
