<svg version="1.1" xmlns="http://www.w3.org/2000/svg" xmlns:xlink="http://www.w3.org/1999/xlink" viewBox="0 0 27.9395 26.5527">
 <g>
  <rect height="26.5527" opacity="0" width="27.9395" x="0" y="0"/>
  <path d="M1.5332 25.3223L26.0449 25.3223L26.0449 23.9258C26.0449 23.5059 25.791 23.252 25.3613 23.252L24.5605 23.252L24.5605 8.33984L25.6934 8.33984C26.2891 8.33984 26.6211 7.91992 26.6211 7.48047C26.6211 7.1582 26.4453 6.875 26.0547 6.65039L15.2637 0.419922C14.7852 0.146484 14.2773 0 13.7891 0C13.3008 0 12.7832 0.146484 12.3145 0.419922L1.52344 6.65039C1.12305 6.875 0.957031 7.1582 0.957031 7.48047C0.957031 7.91992 1.28906 8.33984 1.88477 8.33984L3.02734 8.33984L3.02734 23.252L2.22656 23.252C1.78711 23.252 1.5332 23.5059 1.5332 23.9258ZM0.869141 26.5332L26.709 26.5332C27.1875 26.5332 27.5781 26.1426 27.5781 25.6738C27.5781 25.1953 27.1875 24.8047 26.709 24.8047L0.869141 24.8047C0.390625 24.8047 0 25.1953 0 25.6738C0 26.1426 0.390625 26.5332 0.869141 26.5332Z" fill="var(--color-tertiary)"/>
  <path d="M13.8086 20.3711C13.3984 20.3711 13.1348 20.127 13.1348 19.6973L13.1348 17.3242L11.2988 18.0664C11.2207 18.0957 11.1426 18.1055 11.0742 18.1055C10.8398 18.1055 10.6934 17.9297 10.6934 17.7246C10.6934 17.5391 10.7812 17.4219 10.9766 17.334L13.1348 16.4648L13.1348 14.8145L11.2988 15.5664C11.2207 15.5957 11.1426 15.6152 11.0742 15.6152C10.8398 15.6152 10.6934 15.4297 10.6934 15.2246C10.6934 15.0488 10.7812 14.9219 10.9766 14.8242L13.1348 13.9551L13.1348 10.0391L9.93164 10.0391C9.55078 10.0391 9.28711 9.80469 9.28711 9.45312C9.28711 9.0918 9.54102 8.85742 9.93164 8.85742L17.6758 8.85742C18.0566 8.85742 18.3105 9.0918 18.3105 9.45312C18.3105 9.78516 18.0664 10.0391 17.6758 10.0391L14.4727 10.0391L14.4727 13.4082L16.3184 12.6562C16.3965 12.6367 16.4746 12.6172 16.543 12.6172C16.7383 12.6172 16.9141 12.7344 16.9141 12.998C16.9141 13.1934 16.8262 13.3008 16.6211 13.3887L14.4727 14.2676L14.4727 15.9082L16.3184 15.1562C16.3965 15.127 16.4746 15.1172 16.543 15.1172C16.7383 15.1172 16.9141 15.2344 16.9141 15.498C16.9141 15.6934 16.8262 15.8008 16.6211 15.8984L14.4727 16.7676L14.4727 19.6973C14.4727 20.127 14.2188 20.3711 13.8086 20.3711Z" fill="var(--color-primary)"/>
 </g>
</svg>
