<svg version="1.1" xmlns="http://www.w3.org/2000/svg" xmlns:xlink="http://www.w3.org/1999/xlink" viewBox="0 0 46.5137 20.4395">
 <g>
  <rect height="20.4395" opacity="0" width="46.5137" x="0" y="0"/>
  <path d="M10.166 20.4395C12.2754 20.4395 13.9355 18.7891 13.9355 16.6699C13.9355 14.5703 12.2754 12.9102 10.166 12.9102C8.04688 12.9102 6.39648 14.5703 6.39648 16.6699C6.39648 18.7891 8.04688 20.4395 10.166 20.4395ZM36.2988 20.4395C38.418 20.4395 40.0684 18.7891 40.0684 16.6699C40.0684 14.5703 38.418 12.9102 36.2988 12.9102C34.1895 12.9102 32.5293 14.5703 32.5293 16.6699C32.5293 18.7891 34.1895 20.4395 36.2988 20.4395ZM34.6289 4.93164C34.0234 4.80469 33.4473 4.76562 32.8613 4.80469L18.0957 5.75195L23.7207 1.96289C24.6973 1.29883 23.75-0.146484 22.6855 0.566406L14.7266 5.88867L5.99609 7.53906C2.00195 8.29102 0 10.0977 0 13.4277L0 15.0781C0 16.8262 0.791016 17.6953 2.56836 17.9004L5.21484 18.2227C5.09766 17.8027 5.0293 17.1387 5.0293 16.6699C5.0293 13.8184 7.30469 11.5527 10.166 11.5527C13.0273 11.5527 15.293 13.8184 15.293 16.6699C15.293 17.0312 15.2637 17.4219 15.2051 17.6855L31.2891 17.6855C31.2109 17.4023 31.1719 17.041 31.1719 16.6699C31.1719 13.8184 33.4375 11.5527 36.2988 11.5527C39.1602 11.5527 41.4258 14.0137 41.4258 16.8652C41.4258 17.041 41.4258 17.1289 41.416 17.2852L42.6465 17.1582C45.0195 16.8945 46.1523 15.6055 46.1523 13.1641L46.1523 10.9766C46.1523 8.125 45.0391 6.9043 42.1973 6.35742Z" fill="var(--color-tertiary)"/>
  <path d="M22.9785 14.3164C20.7227 14.3164 18.5254 13.6426 16.7773 12.4316C16.4746 12.1973 16.3965 11.8262 16.5918 11.543C16.8164 11.2402 17.207 11.1914 17.5098 11.416C19.0039 12.4707 20.9473 13.0664 22.9785 13.0664C25.0293 13.0664 26.9727 12.4805 28.457 11.416C28.7695 11.1914 29.1504 11.2402 29.375 11.543C29.5703 11.8359 29.4824 12.207 29.1895 12.4316C27.4121 13.6426 25.2441 14.3164 22.9785 14.3164Z" fill="var(--color-primary)"/>
  <path d="M22.9785 11.2305C21.3184 11.2305 19.7266 10.7422 18.4961 9.83398C18.2129 9.63867 18.1445 9.26758 18.3496 8.97461C18.5352 8.70117 18.9258 8.62305 19.248 8.84766C20.2344 9.57031 21.5723 9.98047 22.9785 9.98047C24.3848 9.98047 25.7324 9.57031 26.7188 8.84766C27.041 8.62305 27.4316 8.70117 27.627 8.97461C27.8418 9.26758 27.7539 9.63867 27.4707 9.83398C26.2793 10.7422 24.668 11.2305 22.9785 11.2305Z" fill="var(--color-primary)"/>
 </g>
</svg>
