<?xml version="1.0" encoding="UTF-8"?>
<!--Generator: Apple Native CoreSVG 341-->
<!DOCTYPE svg
PUBLIC "-//W3C//DTD SVG 1.1//EN"
       "http://www.w3.org/Graphics/SVG/1.1/DTD/svg11.dtd">
<svg version="1.1" xmlns="http://www.w3.org/2000/svg" xmlns:xlink="http://www.w3.org/1999/xlink" viewBox="0 0 23.3203 22.959">
 <g>
  <rect height="22.959" opacity="0" width="23.3203" x="0" y="0"/>
  <path d="M3.79883 22.959L19.1504 22.959C21.6797 22.959 22.959 21.6797 22.959 19.1992L22.959 3.76953C22.959 1.2793 21.6797 0 19.1504 0L3.79883 0C1.2793 0 0 1.26953 0 3.76953L0 19.1992C0 21.6992 1.2793 22.959 3.79883 22.959Z" fill="white" fill-opacity="0.2125"/>
  <path d="M7.68555 17.3633C7.2168 17.3633 6.85547 17.0312 6.85547 16.5918C6.85547 16.3574 6.91406 16.2207 7.06055 16.0059L10.3809 11.3281L7.2168 6.86523C7.04102 6.63086 6.97266 6.47461 6.97266 6.23047C6.97266 5.77148 7.37305 5.40039 7.8418 5.40039C8.22266 5.40039 8.4375 5.53711 8.69141 5.88867L11.5527 10.0879L11.6113 10.0879L14.4336 5.89844C14.668 5.53711 14.8926 5.40039 15.2441 5.40039C15.7227 5.40039 16.0938 5.74219 16.0938 6.19141C16.0938 6.38672 16.0254 6.57227 15.8691 6.77734L12.5586 11.377L15.8398 15.957C15.9863 16.1523 16.0547 16.3184 16.0547 16.5527C16.0547 17.0312 15.6836 17.3633 15.1855 17.3633C14.8242 17.3633 14.6289 17.2266 14.3457 16.8457L11.4648 12.666L11.416 12.666L8.51562 16.8457C8.23242 17.2266 8.04688 17.3633 7.68555 17.3633Z" fill="white" fill-opacity="0.85"/>
 </g>
</svg>
