<?xml version="1.0" encoding="UTF-8"?>
<!--Generator: Apple Native CoreSVG 341-->
<!DOCTYPE svg
PUBLIC "-//W3C//DTD SVG 1.1//EN"
       "http://www.w3.org/Graphics/SVG/1.1/DTD/svg11.dtd">
<svg version="1.1" xmlns="http://www.w3.org/2000/svg" xmlns:xlink="http://www.w3.org/1999/xlink" viewBox="0 0 31.5625 23.3496">
 <g>
  <rect height="23.3496" opacity="0" width="31.5625" x="0" y="0"/>
  <path d="M24.5801 21.4746C28.3008 21.4746 31.2012 18.7891 31.2012 15.4102C31.2012 12.8223 29.7363 10.5566 27.2559 9.58008C27.3242 4.0332 23.3594 0 18.3008 0C14.873 0 12.4805 1.85547 11.0352 4.0918C7.98828 3.10547 4.62891 5.44922 4.58984 8.94531C1.78711 9.33594 0 11.7871 0 14.8242C0 18.4668 3.16406 21.4648 7.37305 21.4648Z" fill="white" fill-opacity="0.2125"/>
  <path d="M12.168 17.2461L20.1855 9.21875C20.3418 9.0625 20.4297 8.86719 20.4297 8.64258C20.4297 8.20312 20.0684 7.85156 19.6191 7.85156C19.3945 7.85156 19.209 7.92969 19.0527 8.0957L11.0059 16.1035C10.8496 16.2695 10.7715 16.4551 10.7715 16.6797C10.7715 17.1289 11.1328 17.4902 11.582 17.4902C11.8164 17.4902 12.002 17.4023 12.168 17.2461ZM19.0234 17.2461C19.1895 17.4023 19.3848 17.4902 19.6191 17.4902C20.0684 17.4902 20.4297 17.1289 20.4297 16.6797C20.4297 16.4551 20.3418 16.2695 20.1855 16.1035L12.1484 8.0957C11.9922 7.92969 11.7969 7.85156 11.582 7.85156C11.1328 7.85156 10.7715 8.20312 10.7715 8.64258C10.7715 8.86719 10.8496 9.0625 11.0059 9.21875Z" fill="white" fill-opacity="0.85"/>
 </g>
</svg>
