<svg version="1.1" xmlns="http://www.w3.org/2000/svg" xmlns:xlink="http://www.w3.org/1999/xlink" viewBox="0 0 23.3203 22.959">
 <g>
  <rect height="22.959" opacity="0" width="23.3203" x="0" y="0"/>
  <path d="M3.79883 22.959L19.1504 22.959C21.6797 22.959 22.959 21.6797 22.959 19.1992L22.959 3.76953C22.959 1.2793 21.6797 0 19.1504 0L3.79883 0C1.2793 0 0 1.26953 0 3.76953L0 19.1992C0 21.6992 1.2793 22.959 3.79883 22.959Z" fill="var(--color-tertiary)"/>
  <path d="M11.4746 17.3633C10.9082 17.3633 10.5957 16.9629 10.5957 16.3672L10.5957 12.7246L6.85547 6.70898C6.74805 6.5332 6.68945 6.35742 6.68945 6.18164C6.68945 5.75195 7.05078 5.40039 7.51953 5.40039C7.91016 5.40039 8.125 5.53711 8.35938 5.95703L11.4551 11.0156L11.5332 11.0156L14.6289 5.95703C14.8535 5.54688 15.0684 5.40039 15.4492 5.40039C15.9277 5.40039 16.2598 5.74219 16.2598 6.20117C16.2598 6.36719 16.2109 6.55273 16.1035 6.70898L12.3828 12.7051L12.3828 16.3672C12.3828 16.9922 12.0605 17.3633 11.4746 17.3633Z" fill="var(--color-primary)"/>
 </g>
</svg>
