<?xml version="1.0" encoding="UTF-8"?>
<!--Generator: Apple Native CoreSVG 341-->
<!DOCTYPE svg
PUBLIC "-//W3C//DTD SVG 1.1//EN"
       "http://www.w3.org/Graphics/SVG/1.1/DTD/svg11.dtd">
<svg version="1.1" xmlns="http://www.w3.org/2000/svg" xmlns:xlink="http://www.w3.org/1999/xlink" viewBox="0 0 23.3203 22.959">
 <g>
  <rect height="22.959" opacity="0" width="23.3203" x="0" y="0"/>
  <path d="M3.79883 22.959L19.1504 22.959C21.6797 22.959 22.959 21.6797 22.959 19.1992L22.959 3.76953C22.959 1.2793 21.6797 0 19.1504 0L3.79883 0C1.2793 0 0 1.26953 0 3.76953L0 19.1992C0 21.6992 1.2793 22.959 3.79883 22.959Z" fill="white" fill-opacity="0.2125"/>
  <path d="M11.4844 17.4219C11.0938 17.4219 10.8203 17.1387 10.8203 16.7383L10.8203 14.7656L8.30078 14.7656C8.07617 14.7656 7.90039 14.5898 7.90039 14.375C7.90039 14.1406 8.07617 13.9648 8.30078 13.9648L10.8203 13.9648L10.8203 12.5879L10.8203 12.5879L8.30078 12.5879C8.07617 12.5879 7.90039 12.4121 7.90039 12.1875C7.90039 11.9531 8.07617 11.7871 8.30078 11.7871L10.4004 11.7871L7.14844 6.58203C7.05078 6.42578 7.00195 6.26953 7.00195 6.13281C7.00195 5.76172 7.28516 5.51758 7.66602 5.51758C7.96875 5.51758 8.13477 5.6543 8.28125 5.9082L11.4648 11.2305L11.5137 11.2305L14.707 5.9082C14.8535 5.6543 15.0586 5.52734 15.3027 5.52734C15.6836 5.52734 15.9668 5.77148 15.9668 6.13281C15.9668 6.31836 15.9277 6.40625 15.8398 6.5625L12.5684 11.7871L14.7266 11.7871C14.9609 11.7871 15.127 11.9531 15.127 12.1875C15.127 12.4121 14.9609 12.5879 14.7266 12.5879L12.1484 12.5879L12.1484 12.5879L12.1484 13.9648L14.7266 13.9648C14.9609 13.9648 15.127 14.1406 15.127 14.375C15.127 14.5898 14.9609 14.7656 14.7266 14.7656L12.1484 14.7656L12.1484 16.7383C12.1484 17.1387 11.875 17.4219 11.4844 17.4219Z" fill="white" fill-opacity="0.85"/>
 </g>
</svg>
