<?xml version="1.0" encoding="UTF-8"?>
<!--Generator: Apple Native CoreSVG 326-->
<!DOCTYPE svg
PUBLIC "-//W3C//DTD SVG 1.1//EN"
       "http://www.w3.org/Graphics/SVG/1.1/DTD/svg11.dtd">
<svg version="1.1" xmlns="http://www.w3.org/2000/svg" xmlns:xlink="http://www.w3.org/1999/xlink" viewBox="0 0 20.2832 19.9316">
 <g>
  <rect height="19.9316" opacity="0" width="20.2832" x="0" y="0"/>
  <path d="M9.96094 19.9219C15.459 19.9219 19.9219 15.459 19.9219 9.96094C19.9219 4.46289 15.459 0 9.96094 0C4.46289 0 0 4.46289 0 9.96094C0 15.459 4.46289 19.9219 9.96094 19.9219ZM9.96094 18.2617C5.37109 18.2617 1.66016 14.5508 1.66016 9.96094C1.66016 5.37109 5.37109 1.66016 9.96094 1.66016C14.5508 1.66016 18.2617 5.37109 18.2617 9.96094C18.2617 14.5508 14.5508 18.2617 9.96094 18.2617Z" fill="white" fill-opacity="0.85"/>
  <path d="M7.40234 14.0137C7.79297 14.0137 8.11523 13.6914 8.11523 13.3008L8.11523 6.67969C8.11523 6.18164 7.80273 5.88867 7.29492 5.88867C6.88477 5.88867 6.55273 6.11328 6.31836 6.28906L5.24414 7.11914C5.07812 7.25586 4.94141 7.44141 4.94141 7.69531C4.94141 7.99805 5.14648 8.21289 5.43945 8.21289C5.5957 8.21289 5.69336 8.16406 5.79102 8.0957L6.68945 7.37305L6.68945 13.3008C6.68945 13.6914 7.01172 14.0137 7.40234 14.0137ZM10.2539 13.9062L13.6426 13.9062C13.9941 13.9062 14.1992 13.6816 14.1992 13.3398C14.1992 12.9688 13.9844 12.7637 13.6426 12.7637L11.3281 12.7637L11.3281 12.6855L12.7539 10.8789C13.7305 9.66797 14.0527 8.94531 14.0527 8.08594C14.0527 6.76758 13.1543 5.81055 11.8066 5.81055C10.5566 5.81055 9.60938 6.8457 9.60938 7.86133C9.60938 8.22266 9.82422 8.47656 10.1953 8.47656C10.5176 8.47656 10.7129 8.33008 10.8203 8.00781C10.9961 7.35352 11.2402 6.94336 11.8066 6.94336C12.3926 6.94336 12.7246 7.46094 12.7246 8.1543C12.7246 8.93555 12.1777 9.72656 11.6602 10.3906L9.96094 12.5586C9.78516 12.793 9.59961 13.0371 9.59961 13.3398C9.59961 13.6719 9.81445 13.9062 10.2539 13.9062Z" fill="white" fill-opacity="0.85"/>
 </g>
</svg>
