<?xml version="1.0" encoding="UTF-8"?>
<!--Generator: Apple Native CoreSVG 326-->
<!DOCTYPE svg
PUBLIC "-//W3C//DTD SVG 1.1//EN"
       "http://www.w3.org/Graphics/SVG/1.1/DTD/svg11.dtd">
<svg version="1.1" xmlns="http://www.w3.org/2000/svg" xmlns:xlink="http://www.w3.org/1999/xlink" viewBox="0 0 18.3398 17.9785">
 <g>
  <rect height="17.9785" opacity="0" width="18.3398" x="0" y="0"/>
  <path d="M17.9785 3.02734L17.9785 14.9609C17.9785 16.9727 16.9629 17.9785 14.9121 17.9785L3.06641 17.9785C1.02539 17.9785 0 16.9727 0 14.9609L0 3.02734C0 1.01562 1.02539 0 3.06641 0L14.9121 0C16.9629 0 17.9785 1.01562 17.9785 3.02734ZM9.49219 4.91211C9.15039 4.91211 8.90625 5.16602 8.90625 5.50781C8.90625 5.85938 9.15039 6.11328 9.49219 6.11328L12.0801 6.11328L12.0801 6.20117L9.84375 11.9727C9.75586 12.1973 9.72656 12.3242 9.72656 12.5684C9.72656 12.8613 9.91211 13.1934 10.3906 13.1934C10.7715 13.1934 10.9277 13.0469 11.0742 12.6758L13.3691 6.54297C13.4766 6.23047 13.5547 5.98633 13.5547 5.69336C13.5547 5.22461 13.1934 4.91211 12.7441 4.91211ZM5.61523 5.19531L4.51172 6.05469C4.33594 6.19141 4.19922 6.38672 4.19922 6.65039C4.19922 6.96289 4.41406 7.1875 4.7168 7.1875C4.87305 7.1875 4.9707 7.13867 5.07812 7.06055L5.99609 6.31836L5.99609 12.4219C5.99609 12.832 6.32812 13.1641 6.73828 13.1641C7.13867 13.1641 7.4707 12.832 7.4707 12.4219L7.4707 5.60547C7.4707 5.08789 7.14844 4.78516 6.63086 4.78516C6.20117 4.78516 5.85938 5.01953 5.61523 5.19531Z" fill="white" fill-opacity="0.85"/>
 </g>
</svg>
