<?xml version="1.0" encoding="UTF-8"?>
<!--Generator: Apple Native CoreSVG 326-->
<!DOCTYPE svg
PUBLIC "-//W3C//DTD SVG 1.1//EN"
       "http://www.w3.org/Graphics/SVG/1.1/DTD/svg11.dtd">
<svg version="1.1" xmlns="http://www.w3.org/2000/svg" xmlns:xlink="http://www.w3.org/1999/xlink" viewBox="0 0 18.3398 17.9785">
 <g>
  <rect height="17.9785" opacity="0" width="18.3398" x="0" y="0"/>
  <path d="M3.06641 17.9785L14.9121 17.9785C16.9629 17.9785 17.9785 16.9727 17.9785 14.9609L17.9785 3.02734C17.9785 1.01562 16.9629 0 14.9121 0L3.06641 0C1.02539 0 0 1.01562 0 3.02734L0 14.9609C0 16.9727 1.02539 17.9785 3.06641 17.9785ZM3.08594 16.4062C2.10938 16.4062 1.57227 15.8887 1.57227 14.873L1.57227 3.11523C1.57227 2.09961 2.10938 1.57227 3.08594 1.57227L14.8926 1.57227C15.8594 1.57227 16.4062 2.09961 16.4062 3.11523L16.4062 14.873C16.4062 15.8887 15.8594 16.4062 14.8926 16.4062Z" fill="white" fill-opacity="0.85"/>
  <path d="M4.42383 12.9297L7.8125 12.9297C8.16406 12.9297 8.36914 12.7051 8.36914 12.3633C8.36914 11.9922 8.1543 11.7871 7.8125 11.7871L5.49805 11.7871L5.49805 11.709L6.92383 9.90234C7.90039 8.69141 8.22266 7.96875 8.22266 7.10938C8.22266 5.79102 7.32422 4.83398 5.97656 4.83398C4.72656 4.83398 3.7793 5.86914 3.7793 6.88477C3.7793 7.24609 3.99414 7.5 4.36523 7.5C4.6875 7.5 4.88281 7.35352 4.99023 7.03125C5.16602 6.37695 5.41016 5.9668 5.9668 5.9668C6.5625 5.9668 6.88477 6.48438 6.88477 7.17773C6.88477 7.95898 6.34766 8.75 5.83008 9.41406L4.13086 11.582C3.94531 11.8164 3.76953 12.0605 3.76953 12.3633C3.76953 12.6953 3.98438 12.9297 4.42383 12.9297ZM11.9238 13.1348C13.8672 13.1348 14.4434 10.9473 14.4434 8.98438C14.4434 7.02148 13.8672 4.83398 11.9238 4.83398C9.9707 4.83398 9.39453 7.02148 9.39453 8.98438C9.39453 10.9473 9.9707 13.1348 11.9238 13.1348ZM11.9238 11.9727C11.123 11.9727 10.8203 10.6738 10.8203 8.98438C10.8203 7.28516 11.123 5.98633 11.9238 5.98633C12.7246 5.98633 13.0176 7.28516 13.0176 8.98438C13.0176 10.6738 12.7246 11.9727 11.9238 11.9727Z" fill="white" fill-opacity="0.85"/>
 </g>
</svg>
