<?xml version="1.0" encoding="UTF-8"?>
<!--Generator: Apple Native CoreSVG 326-->
<!DOCTYPE svg
PUBLIC "-//W3C//DTD SVG 1.1//EN"
       "http://www.w3.org/Graphics/SVG/1.1/DTD/svg11.dtd">
<svg version="1.1" xmlns="http://www.w3.org/2000/svg" xmlns:xlink="http://www.w3.org/1999/xlink" viewBox="0 0 20.2832 19.9316">
 <g>
  <rect height="19.9316" opacity="0" width="20.2832" x="0" y="0"/>
  <path d="M19.9219 9.96094C19.9219 15.4492 15.459 19.9219 9.96094 19.9219C4.47266 19.9219 0 15.4492 0 9.96094C0 4.46289 4.47266 0 9.96094 0C15.459 0 19.9219 4.46289 19.9219 9.96094ZM10.3125 10.0586C10.3125 11.9629 10.918 14.2383 12.9688 14.2383C14.5117 14.2383 15.3809 12.9492 15.3809 11.3672C15.3809 10.0098 14.7266 8.7207 13.3887 8.7207C12.5781 8.7207 11.9629 9.26758 11.7285 10.127L11.6895 10.127C11.6895 10.0879 11.6895 10.0488 11.6895 10.0195C11.6895 8.90625 11.8262 6.88477 12.9492 6.88477C13.4082 6.88477 13.7109 7.20703 13.877 7.62695C14.0234 7.93945 14.2188 8.07617 14.5508 8.07617C14.9512 8.07617 15.127 7.80273 15.127 7.4707C15.127 7.36328 15.1172 7.23633 15.0781 7.10938C14.8633 6.24023 13.9941 5.70312 12.9883 5.70312C10.9082 5.70312 10.3125 8.01758 10.3125 10.0586ZM4.51172 7.79297C4.51172 8.17383 4.72656 8.42773 5.11719 8.42773C5.44922 8.42773 5.66406 8.28125 5.76172 7.94922C5.95703 7.27539 6.19141 6.85547 6.77734 6.85547C7.37305 6.85547 7.71484 7.38281 7.71484 8.0957C7.71484 8.90625 7.14844 9.72656 6.62109 10.4004L4.87305 12.6367C4.6875 12.8711 4.50195 13.125 4.50195 13.4473C4.50195 13.7891 4.7168 14.0332 5.18555 14.0332L8.68164 14.0332C9.0332 14.0332 9.24805 13.7988 9.24805 13.4473C9.24805 13.0566 9.02344 12.8418 8.68164 12.8418L6.28906 12.8418L6.28906 12.7637L7.75391 10.9082C8.75977 9.6582 9.0918 8.91602 9.0918 8.02734C9.0918 6.66992 8.16406 5.68359 6.77734 5.68359C5.49805 5.68359 4.51172 6.74805 4.51172 7.79297ZM13.9746 11.4355C13.9746 12.168 13.6523 13.0566 12.9492 13.0566C12.1875 13.0566 11.8848 12.1094 11.8848 11.3965C11.8848 10.6543 12.2266 9.82422 12.9492 9.82422C13.6914 9.82422 13.9941 10.6934 13.9746 11.4355Z" fill="white" fill-opacity="0.85"/>
 </g>
</svg>
