<svg version="1.1" xmlns="http://www.w3.org/2000/svg" xmlns:xlink="http://www.w3.org/1999/xlink" viewBox="0 0 20.2832 19.9316">
 <g>
  <rect height="19.9316" opacity="0" width="20.2832" x="0" y="0"/>
  <path d="M19.9219 9.96094C19.9219 15.4492 15.459 19.9219 9.96094 19.9219C4.47266 19.9219 0 15.4492 0 9.96094C0 4.46289 4.47266 0 9.96094 0C15.459 0 19.9219 4.46289 19.9219 9.96094ZM11.2109 5.88867C10.8594 5.88867 10.625 6.14258 10.625 6.49414C10.625 6.83594 10.8594 7.08984 11.2109 7.08984L13.7891 7.08984L13.7891 7.17773L11.5723 12.9492C11.4746 13.1738 11.4355 13.3008 11.4355 13.5449C11.4355 13.8379 11.6309 14.1699 12.1094 14.1699C12.4805 14.1699 12.6367 14.0234 12.7832 13.6523L15.0781 7.51953C15.1855 7.20703 15.2637 6.96289 15.2637 6.66992C15.2637 6.21094 14.9121 5.88867 14.4629 5.88867ZM5.01953 7.79297C5.01953 8.17383 5.23438 8.4375 5.625 8.4375C5.95703 8.4375 6.16211 8.28125 6.26953 7.94922C6.45508 7.27539 6.69922 6.85547 7.27539 6.85547C7.88086 6.85547 8.22266 7.38281 8.22266 8.0957C8.22266 8.90625 7.65625 9.72656 7.12891 10.4102L5.38086 12.6367C5.19531 12.8809 5.00977 13.1348 5.00977 13.4473C5.00977 13.7891 5.22461 14.0332 5.68359 14.0332L9.17969 14.0332C9.54102 14.0332 9.75586 13.7988 9.75586 13.4473C9.75586 13.0566 9.53125 12.8516 9.17969 12.8516L6.79688 12.8516L6.79688 12.7637L8.26172 10.9082C9.26758 9.6582 9.59961 8.91602 9.59961 8.02734C9.59961 6.66992 8.67188 5.68359 7.28516 5.68359C5.99609 5.68359 5.01953 6.74805 5.01953 7.79297Z" fill="var(--color-primary)"/>
 </g>
</svg>
