<?xml version="1.0" encoding="UTF-8"?>
<!--Generator: Apple Native CoreSVG 326-->
<!DOCTYPE svg
PUBLIC "-//W3C//DTD SVG 1.1//EN"
       "http://www.w3.org/Graphics/SVG/1.1/DTD/svg11.dtd">
<svg version="1.1" xmlns="http://www.w3.org/2000/svg" xmlns:xlink="http://www.w3.org/1999/xlink" viewBox="0 0 18.3398 17.9785">
 <g>
  <rect height="17.9785" opacity="0" width="18.3398" x="0" y="0"/>
  <path d="M3.06641 17.9785L14.9121 17.9785C16.9629 17.9785 17.9785 16.9727 17.9785 14.9609L17.9785 3.02734C17.9785 1.01562 16.9629 0 14.9121 0L3.06641 0C1.02539 0 0 1.01562 0 3.02734L0 14.9609C0 16.9727 1.02539 17.9785 3.06641 17.9785ZM3.08594 16.4062C2.10938 16.4062 1.57227 15.8887 1.57227 14.873L1.57227 3.11523C1.57227 2.09961 2.10938 1.57227 3.08594 1.57227L14.8926 1.57227C15.8594 1.57227 16.4062 2.09961 16.4062 3.11523L16.4062 14.873C16.4062 15.8887 15.8594 16.4062 14.8926 16.4062Z" fill="white" fill-opacity="0.85"/>
  <path d="M4.3457 12.9297L7.73438 12.9297C8.07617 12.9297 8.29102 12.7051 8.29102 12.3633C8.29102 11.9922 8.06641 11.7871 7.73438 11.7871L5.41992 11.7871L5.41992 11.709L6.8457 9.90234C7.82227 8.69141 8.14453 7.96875 8.14453 7.10938C8.14453 5.79102 7.24609 4.83398 5.89844 4.83398C4.64844 4.83398 3.70117 5.86914 3.70117 6.88477C3.70117 7.24609 3.90625 7.5 4.28711 7.5C4.60938 7.5 4.80469 7.35352 4.90234 7.03125C5.08789 6.37695 5.33203 5.9668 5.88867 5.9668C6.47461 5.9668 6.80664 6.48438 6.80664 7.17773C6.80664 7.95898 6.26953 8.75 5.74219 9.41406L4.05273 11.582C3.86719 11.8164 3.69141 12.0605 3.69141 12.3633C3.69141 12.6953 3.89648 12.9297 4.3457 12.9297ZM11.8262 13.1055C13.3789 13.1055 14.3652 12.1387 14.3652 10.8008C14.3652 9.73633 13.6914 8.96484 12.9102 8.78906L12.9102 8.75977C13.5645 8.55469 14.1406 7.91992 14.1406 6.99219C14.1406 5.73242 13.2031 4.87305 11.8262 4.87305C10.625 4.87305 9.53125 5.61523 9.53125 6.98242C9.53125 7.97852 10.1465 8.56445 10.7715 8.75977L10.7715 8.78906C9.94141 8.97461 9.30664 9.74609 9.30664 10.8008C9.30664 12.2461 10.4004 13.1055 11.8262 13.1055ZM11.8359 8.31055C11.2109 8.31055 10.8887 7.70508 10.8887 7.12891C10.8887 6.50391 11.2305 5.91797 11.8359 5.91797C12.4609 5.91797 12.7734 6.50391 12.7734 7.12891C12.7734 7.77344 12.4512 8.31055 11.8359 8.31055ZM11.8359 12.0508C11.123 12.0508 10.7715 11.416 10.7715 10.6934C10.7715 9.99023 11.123 9.36523 11.8359 9.36523C12.5293 9.36523 12.9004 9.95117 12.9004 10.6934C12.9004 11.416 12.5488 12.0508 11.8359 12.0508Z" fill="white" fill-opacity="0.85"/>
 </g>
</svg>
