<?xml version="1.0" encoding="UTF-8"?>
<!--Generator: Apple Native CoreSVG 326-->
<!DOCTYPE svg
PUBLIC "-//W3C//DTD SVG 1.1//EN"
       "http://www.w3.org/Graphics/SVG/1.1/DTD/svg11.dtd">
<svg version="1.1" xmlns="http://www.w3.org/2000/svg" xmlns:xlink="http://www.w3.org/1999/xlink" viewBox="0 0 18.3398 17.9785">
 <g>
  <rect height="17.9785" opacity="0" width="18.3398" x="0" y="0"/>
  <path d="M17.9785 3.02734L17.9785 14.9609C17.9785 16.9727 16.9629 17.9785 14.9121 17.9785L3.06641 17.9785C1.02539 17.9785 0 16.9727 0 14.9609L0 3.02734C0 1.01562 1.02539 0 3.06641 0L14.9121 0C16.9629 0 17.9785 1.01562 17.9785 3.02734ZM3.69141 6.2207C3.63281 6.41602 3.61328 6.5918 3.61328 6.76758C3.61328 7.09961 3.82812 7.36328 4.23828 7.36328C4.58008 7.36328 4.77539 7.23633 4.87305 6.88477C5.03906 6.28906 5.35156 5.91797 5.91797 5.91797C6.58203 5.91797 6.9043 6.42578 6.9043 7.08984C6.9043 7.82227 6.49414 8.35938 5.73242 8.35938L5.49805 8.35938C5.15625 8.35938 4.94141 8.57422 4.94141 8.90625C4.94141 9.23828 5.16602 9.43359 5.49805 9.43359L5.74219 9.43359C6.60156 9.43359 7.07031 9.90234 7.07031 10.7715C7.07031 11.4648 6.70898 12.0605 5.95703 12.0605C5.22461 12.0605 4.90234 11.5723 4.78516 11.1133C4.67773 10.7812 4.47266 10.6152 4.14062 10.6152C3.74023 10.6152 3.47656 10.8594 3.47656 11.25C3.47656 11.4355 3.50586 11.6113 3.55469 11.7773C3.84766 12.7148 4.87305 13.2324 5.95703 13.2324C7.40234 13.2324 8.51562 12.3242 8.51562 10.8203C8.51562 9.57031 7.76367 8.95508 6.91406 8.86719L6.91406 8.83789C7.83203 8.59375 8.28125 7.77344 8.28125 6.93359C8.28125 5.53711 7.22656 4.74609 5.91797 4.74609C4.88281 4.74609 3.97461 5.33203 3.69141 6.2207ZM9.78516 6.2207C9.73633 6.41602 9.7168 6.5918 9.7168 6.76758C9.7168 7.09961 9.93164 7.36328 10.332 7.36328C10.6738 7.36328 10.8789 7.23633 10.9863 6.88477C11.1426 6.28906 11.4551 5.91797 12.0215 5.91797C12.6855 5.91797 12.998 6.42578 12.998 7.08984C12.998 7.82227 12.5879 8.35938 11.8359 8.35938L11.6016 8.35938C11.2598 8.35938 11.0352 8.57422 11.0352 8.90625C11.0352 9.23828 11.2598 9.43359 11.6016 9.43359L11.8555 9.43359C12.7051 9.43359 13.1836 9.90234 13.1836 10.7715C13.1836 11.4648 12.8125 12.0605 12.0703 12.0605C11.3379 12.0605 11.0059 11.5723 10.8789 11.1133C10.791 10.7812 10.5664 10.6152 10.2441 10.6152C9.85352 10.6152 9.58008 10.8594 9.58008 11.25C9.58008 11.4355 9.60938 11.6113 9.6582 11.7773C9.95117 12.7148 10.9766 13.2324 12.0605 13.2324C13.5059 13.2324 14.6191 12.3242 14.6191 10.8203C14.6191 9.57031 13.8672 8.95508 13.0176 8.86719L13.0176 8.83789C13.9355 8.59375 14.375 7.77344 14.375 6.93359C14.375 5.53711 13.3398 4.74609 12.0215 4.74609C10.9766 4.74609 10.0781 5.33203 9.78516 6.2207Z" fill="white" fill-opacity="0.85"/>
 </g>
</svg>
