<svg version="1.1" xmlns="http://www.w3.org/2000/svg" xmlns:xlink="http://www.w3.org/1999/xlink" width="18.3398" height="17.998" viewBox="0 0 18.3398 17.998">
 <g>
  <rect height="17.998" opacity="0" width="18.3398" x="0" y="0"/>
  <path d="M3.06641 17.998L14.9121 17.998C16.9629 17.998 17.9785 16.9824 17.9785 14.9707L17.9785 3.04688C17.9785 1.03516 16.9629 0.0195312 14.9121 0.0195312L3.06641 0.0195312C1.02539 0.0195312 0 1.02539 0 3.04688L0 14.9707C0 16.9922 1.02539 17.998 3.06641 17.998Z" fill="var(--color-tertiary)"/>
  <path d="M5.73242 13.2422C4.64844 13.2422 3.62305 12.7246 3.33008 11.7871C3.28125 11.6211 3.25195 11.4453 3.25195 11.2598C3.25195 10.8691 3.52539 10.625 3.91602 10.625C4.23828 10.625 4.45312 10.791 4.55078 11.123C4.67773 11.582 5.00977 12.0703 5.74219 12.0703C6.48438 12.0703 6.8457 11.4746 6.8457 10.7812C6.8457 9.91211 6.37695 9.44336 5.52734 9.44336L5.26367 9.44336C4.93164 9.44336 4.70703 9.24805 4.70703 8.91602C4.70703 8.58398 4.93164 8.36914 5.26367 8.36914L5.50781 8.36914C6.25977 8.36914 6.66992 7.83203 6.66992 7.09961C6.66992 6.43555 6.34766 5.92773 5.69336 5.92773C5.12695 5.92773 4.80469 6.29883 4.6582 6.89453C4.55078 7.24609 4.3457 7.37305 4.00391 7.37305C3.60352 7.37305 3.37891 7.10938 3.37891 6.77734C3.37891 6.60156 3.4082 6.42578 3.45703 6.23047C3.75 5.3418 4.64844 4.75586 5.69336 4.75586C7.01172 4.75586 8.04688 5.54688 8.04688 6.94336C8.04688 7.7832 7.60742 8.60352 6.68945 8.84766L6.68945 8.87695C7.53906 8.96484 8.29102 9.58008 8.29102 10.8301C8.29102 12.334 7.17773 13.2422 5.73242 13.2422ZM13.0859 13.1934C12.7637 13.1934 12.3926 13.0078 12.3926 12.4707L12.3926 11.4746L10.1367 11.4746C9.63867 11.4746 9.30664 11.1426 9.30664 10.6543C9.30664 10.3418 9.36523 10.0781 9.53125 9.6875L11.3281 5.78125C11.6113 5.15625 11.9434 4.79492 12.6465 4.79492C13.3203 4.79492 13.7793 5.18555 13.7793 5.88867L13.7793 10.3027L14.1309 10.3027C14.541 10.3027 14.707 10.5566 14.707 10.8789C14.707 11.2207 14.5215 11.4746 14.1309 11.4746L13.7793 11.4746L13.7793 12.4707C13.7793 12.959 13.457 13.1934 13.0859 13.1934ZM12.4219 10.332L12.4219 6.06445L12.3828 6.06445L10.5469 10.2637L10.5469 10.332Z" fill="var(--color-primary)"/>
 </g>
</svg>
