<?xml version="1.0" encoding="UTF-8"?>
<!--Generator: Apple Native CoreSVG 326-->
<!DOCTYPE svg
PUBLIC "-//W3C//DTD SVG 1.1//EN"
       "http://www.w3.org/Graphics/SVG/1.1/DTD/svg11.dtd">
<svg version="1.1" xmlns="http://www.w3.org/2000/svg" xmlns:xlink="http://www.w3.org/1999/xlink" viewBox="0 0 20.2832 19.9316">
 <g>
  <rect height="19.9316" opacity="0" width="20.2832" x="0" y="0"/>
  <path d="M9.96094 19.9219C15.459 19.9219 19.9219 15.459 19.9219 9.96094C19.9219 4.46289 15.459 0 9.96094 0C4.46289 0 0 4.46289 0 9.96094C0 15.459 4.46289 19.9219 9.96094 19.9219ZM9.96094 18.2617C5.37109 18.2617 1.66016 14.5508 1.66016 9.96094C1.66016 5.37109 5.37109 1.66016 9.96094 1.66016C14.5508 1.66016 18.2617 5.37109 18.2617 9.96094C18.2617 14.5508 14.5508 18.2617 9.96094 18.2617Z" fill="white" fill-opacity="0.85"/>
  <path d="M6.88477 14.082C8.29102 14.082 9.36523 13.2031 9.36523 11.7383C9.36523 10.5273 8.64258 9.93164 7.82227 9.84375L7.82227 9.81445C8.70117 9.58008 9.13086 8.78906 9.13086 7.96875C9.13086 6.62109 8.125 5.84961 6.85547 5.84961C5.83984 5.84961 4.9707 6.41602 4.6875 7.28516C4.63867 7.4707 4.61914 7.64648 4.61914 7.8125C4.61914 8.13477 4.82422 8.38867 5.21484 8.38867C5.54688 8.38867 5.74219 8.26172 5.83984 7.91992C5.99609 7.34375 6.29883 6.98242 6.85547 6.98242C7.5 6.98242 7.80273 7.48047 7.80273 8.125C7.80273 8.83789 7.40234 9.35547 6.66992 9.35547L6.44531 9.35547C6.11328 9.35547 5.89844 9.56055 5.89844 9.88281C5.89844 10.2051 6.12305 10.3906 6.44531 10.3906L6.68945 10.3906C7.51953 10.3906 7.97852 10.8496 7.97852 11.6992C7.97852 12.373 7.61719 12.9492 6.89453 12.9492C6.18164 12.9492 5.85938 12.4707 5.74219 12.0215C5.6543 11.709 5.43945 11.543 5.12695 11.543C4.74609 11.543 4.49219 11.7773 4.49219 12.1582C4.49219 12.334 4.51172 12.5098 4.56055 12.666C4.84375 13.5742 5.83984 14.082 6.88477 14.082ZM12.9785 14.1113C14.4727 14.1113 15.3223 12.8613 15.3223 11.3281C15.3223 10.0098 14.6875 8.75977 13.3984 8.75977C12.6074 8.75977 12.002 9.28711 11.7773 10.127L11.748 10.127C11.748 10.0879 11.748 10.0488 11.748 10.0195C11.748 8.93555 11.875 6.97266 12.9688 6.97266C13.4082 6.97266 13.7012 7.28516 13.877 7.69531C14.0137 7.99805 14.1992 8.13477 14.5117 8.13477C14.9023 8.13477 15.0781 7.87109 15.0781 7.54883C15.0781 7.44141 15.0586 7.32422 15.0293 7.19727C14.8242 6.35742 13.9746 5.83008 12.998 5.83008C10.9961 5.83008 10.4102 8.07617 10.4102 10.0586C10.4102 11.9043 11.0059 14.1113 12.9785 14.1113ZM12.959 12.9688C12.2266 12.9688 11.9336 12.0508 11.9336 11.3477C11.9336 10.6348 12.2559 9.82422 12.959 9.82422C13.6816 9.82422 13.9844 10.6641 13.9648 11.3867C13.9648 12.0996 13.6426 12.9688 12.959 12.9688Z" fill="white" fill-opacity="0.85"/>
 </g>
</svg>
