<?xml version="1.0" encoding="UTF-8"?>
<!--Generator: Apple Native CoreSVG 326-->
<!DOCTYPE svg
PUBLIC "-//W3C//DTD SVG 1.1//EN"
       "http://www.w3.org/Graphics/SVG/1.1/DTD/svg11.dtd">
<svg version="1.1" xmlns="http://www.w3.org/2000/svg" xmlns:xlink="http://www.w3.org/1999/xlink" viewBox="0 0 18.3398 17.9785">
 <g>
  <rect height="17.9785" opacity="0" width="18.3398" x="0" y="0"/>
  <path d="M3.06641 17.9785L14.9121 17.9785C16.9629 17.9785 17.9785 16.9727 17.9785 14.9609L17.9785 3.02734C17.9785 1.01562 16.9629 0 14.9121 0L3.06641 0C1.02539 0 0 1.01562 0 3.02734L0 14.9609C0 16.9727 1.02539 17.9785 3.06641 17.9785ZM3.08594 16.4062C2.10938 16.4062 1.57227 15.8887 1.57227 14.873L1.57227 3.11523C1.57227 2.09961 2.10938 1.57227 3.08594 1.57227L14.8926 1.57227C15.8594 1.57227 16.4062 2.09961 16.4062 3.11523L16.4062 14.873C16.4062 15.8887 15.8594 16.4062 14.8926 16.4062Z" fill="white" fill-opacity="0.85"/>
  <path d="M5.92773 13.1055C7.33398 13.1055 8.4082 12.2266 8.4082 10.7617C8.4082 9.55078 7.68555 8.95508 6.86523 8.86719L6.86523 8.83789C7.74414 8.60352 8.17383 7.8125 8.17383 6.99219C8.17383 5.64453 7.16797 4.87305 5.89844 4.87305C4.88281 4.87305 4.01367 5.43945 3.73047 6.30859C3.68164 6.49414 3.66211 6.66992 3.66211 6.83594C3.66211 7.1582 3.87695 7.41211 4.25781 7.41211C4.58984 7.41211 4.78516 7.28516 4.88281 6.94336C5.03906 6.36719 5.3418 6.00586 5.89844 6.00586C6.54297 6.00586 6.8457 6.50391 6.8457 7.14844C6.8457 7.86133 6.45508 8.37891 5.72266 8.37891L5.48828 8.37891C5.15625 8.37891 4.94141 8.58398 4.94141 8.90625C4.94141 9.22852 5.16602 9.41406 5.48828 9.41406L5.73242 9.41406C6.5625 9.41406 7.02148 9.87305 7.02148 10.7227C7.02148 11.3965 6.66016 11.9727 5.9375 11.9727C5.22461 11.9727 4.90234 11.4941 4.78516 11.0449C4.69727 10.7324 4.48242 10.5664 4.16992 10.5664C3.78906 10.5664 3.53516 10.8008 3.53516 11.1816C3.53516 11.3574 3.55469 11.5332 3.61328 11.6895C3.88672 12.5977 4.88281 13.1055 5.92773 13.1055ZM12.0312 13.1348C13.5156 13.1348 14.375 11.8848 14.375 10.3516C14.375 9.0332 13.7305 7.7832 12.4414 7.7832C11.6504 7.7832 11.0449 8.31055 10.8301 9.15039L10.791 9.15039C10.791 9.11133 10.791 9.07227 10.791 9.04297C10.791 7.95898 10.918 5.99609 12.0117 5.99609C12.4512 5.99609 12.7441 6.30859 12.9199 6.71875C13.0566 7.02148 13.2422 7.1582 13.5547 7.1582C13.9453 7.1582 14.1211 6.89453 14.1211 6.57227C14.1211 6.46484 14.1016 6.34766 14.0723 6.2207C13.8672 5.38086 13.0176 4.85352 12.041 4.85352C10.0391 4.85352 9.45312 7.09961 9.45312 9.08203C9.45312 10.9277 10.0488 13.1348 12.0312 13.1348ZM12.0117 11.9922C11.2695 11.9922 10.9766 11.0742 10.9766 10.3711C10.9766 9.6582 11.2988 8.84766 12.002 8.84766C12.7246 8.84766 13.0273 9.6875 13.0078 10.4102C13.0078 11.123 12.6855 11.9922 12.0117 11.9922Z" fill="white" fill-opacity="0.85"/>
 </g>
</svg>
