<svg version="1.1" xmlns="http://www.w3.org/2000/svg" xmlns:xlink="http://www.w3.org/1999/xlink" viewBox="0 0 20.2832 19.9316">
 <g>
  <rect height="19.9316" opacity="0" width="20.2832" x="0" y="0"/>
  <path d="M9.96094 19.9219C15.459 19.9219 19.9219 15.459 19.9219 9.96094C19.9219 4.46289 15.459 0 9.96094 0C4.46289 0 0 4.46289 0 9.96094C0 15.459 4.46289 19.9219 9.96094 19.9219ZM9.96094 18.2617C5.37109 18.2617 1.66016 14.5508 1.66016 9.96094C1.66016 5.37109 5.37109 1.66016 9.96094 1.66016C14.5508 1.66016 18.2617 5.37109 18.2617 9.96094C18.2617 14.5508 14.5508 18.2617 9.96094 18.2617Z" fill="var(--color-primary)"/>
  <path d="M7.73438 14.0332C8.0957 14.0332 8.39844 13.8086 8.39844 13.3398L8.39844 12.3633L8.75 12.3633C9.12109 12.3633 9.30664 12.1191 9.30664 11.7871C9.30664 11.4746 9.14062 11.2305 8.75 11.2305L8.39844 11.2305L8.39844 6.94336C8.39844 6.26953 7.95898 5.88867 7.32422 5.88867C6.63086 5.88867 6.30859 6.24023 6.03516 6.8457L4.28711 10.6348C4.13086 11.0156 4.07227 11.2695 4.07227 11.5723C4.07227 12.041 4.39453 12.3633 4.87305 12.3633L7.06055 12.3633L7.06055 13.3398C7.06055 13.8574 7.42188 14.0332 7.73438 14.0332ZM7.08984 11.2598L5.27344 11.2598L5.27344 11.1914L7.05078 7.11914L7.08984 7.11914ZM12.832 14.1113C14.7754 14.1113 15.3613 11.9238 15.3613 9.96094C15.3613 7.99805 14.7754 5.81055 12.832 5.81055C10.8887 5.81055 10.3027 7.99805 10.3027 9.96094C10.3027 11.9238 10.8887 14.1113 12.832 14.1113ZM12.832 12.9492C12.0312 12.9492 11.7285 11.6504 11.7285 9.96094C11.7285 8.26172 12.0312 6.96289 12.832 6.96289C13.6328 6.96289 13.9355 8.26172 13.9355 9.96094C13.9355 11.6504 13.6328 12.9492 12.832 12.9492Z" fill="var(--color-primary)"/>
 </g>
</svg>
