<?xml version="1.0" encoding="UTF-8"?>
<!--Generator: Apple Native CoreSVG 326-->
<!DOCTYPE svg
PUBLIC "-//W3C//DTD SVG 1.1//EN"
       "http://www.w3.org/Graphics/SVG/1.1/DTD/svg11.dtd">
<svg version="1.1" xmlns="http://www.w3.org/2000/svg" xmlns:xlink="http://www.w3.org/1999/xlink" viewBox="0 0 18.3398 17.9785">
 <g>
  <rect height="17.9785" opacity="0" width="18.3398" x="0" y="0"/>
  <path d="M17.9785 3.02734L17.9785 14.9609C17.9785 16.9727 16.9629 17.9785 14.9121 17.9785L3.06641 17.9785C1.02539 17.9785 0 16.9727 0 14.9609L0 3.02734C0 1.01562 1.02539 0 3.06641 0L14.9121 0C16.9629 0 17.9785 1.01562 17.9785 3.02734ZM9.36523 8.98438C9.36523 11.0156 9.9707 13.2617 11.9727 13.2617C13.9844 13.2617 14.5898 11.0156 14.5898 8.98438C14.5898 6.95312 13.9844 4.70703 11.9727 4.70703C9.9707 4.70703 9.36523 6.95312 9.36523 8.98438ZM4.95117 5.77148L3.16406 9.67773C2.99805 10.0684 2.92969 10.332 2.92969 10.6445C2.92969 11.1328 3.27148 11.4648 3.75977 11.4648L6.01562 11.4648L6.01562 12.4707C6.01562 12.998 6.38672 13.1836 6.70898 13.1836C7.09961 13.1836 7.40234 12.9492 7.40234 12.4707L7.40234 11.4648L7.76367 11.4648C8.1543 11.4648 8.33984 11.2109 8.33984 10.8691C8.33984 10.5469 8.16406 10.293 7.76367 10.293L7.40234 10.293L7.40234 5.87891C7.40234 5.17578 6.94336 4.78516 6.28906 4.78516C5.56641 4.78516 5.23438 5.14648 4.95117 5.77148ZM13.1055 8.98438C13.1055 10.7324 12.793 12.0605 11.9727 12.0605C11.1523 12.0605 10.8398 10.7324 10.8398 8.98438C10.8398 7.22656 11.1523 5.9082 11.9727 5.9082C12.793 5.9082 13.1055 7.22656 13.1055 8.98438ZM6.04492 10.3223L4.17969 10.3223L4.17969 10.2539L6.00586 6.05469L6.04492 6.05469Z" fill="white" fill-opacity="0.85"/>
 </g>
</svg>
