<svg version="1.1" xmlns="http://www.w3.org/2000/svg" xmlns:xlink="http://www.w3.org/1999/xlink" viewBox="0 0 18.3398 17.9785">
 <g>
  <rect height="17.9785" opacity="0" width="18.3398" x="0" y="0"/>
  <path d="M3.06641 17.9785L14.9121 17.9785C16.9629 17.9785 17.9785 16.9727 17.9785 14.9609L17.9785 3.02734C17.9785 1.01562 16.9629 0 14.9121 0L3.06641 0C1.02539 0 0 1.01562 0 3.02734L0 14.9609C0 16.9727 1.02539 17.9785 3.06641 17.9785ZM3.08594 16.4062C2.10938 16.4062 1.57227 15.8887 1.57227 14.873L1.57227 3.11523C1.57227 2.09961 2.10938 1.57227 3.08594 1.57227L14.8926 1.57227C15.8594 1.57227 16.4062 2.09961 16.4062 3.11523L16.4062 14.873C16.4062 15.8887 15.8594 16.4062 14.8926 16.4062Z" fill="var(--color-primary)"/>
  <path d="M6.95312 13.0566C7.32422 13.0566 7.62695 12.832 7.62695 12.3633L7.62695 11.3867L7.96875 11.3867C8.34961 11.3867 8.52539 11.1426 8.52539 10.8105C8.52539 10.498 8.35938 10.2539 7.96875 10.2539L7.62695 10.2539L7.62695 5.9668C7.62695 5.29297 7.17773 4.91211 6.54297 4.91211C5.85938 4.91211 5.53711 5.26367 5.26367 5.86914L3.51562 9.6582C3.34961 10.0391 3.29102 10.293 3.29102 10.5957C3.29102 11.0645 3.62305 11.3867 4.0918 11.3867L6.2793 11.3867L6.2793 12.3633C6.2793 12.8809 6.65039 13.0566 6.95312 13.0566ZM6.30859 10.2832L4.49219 10.2832L4.49219 10.2148L6.26953 6.14258L6.30859 6.14258ZM10.1465 12.9297L13.5352 12.9297C13.877 12.9297 14.0918 12.7051 14.0918 12.3633C14.0918 11.9922 13.8672 11.7871 13.5352 11.7871L11.2207 11.7871L11.2207 11.709L12.6465 9.90234C13.623 8.69141 13.9453 7.96875 13.9453 7.10938C13.9453 5.79102 13.0469 4.83398 11.6992 4.83398C10.4492 4.83398 9.50195 5.86914 9.50195 6.88477C9.50195 7.24609 9.7168 7.5 10.0879 7.5C10.4102 7.5 10.6055 7.35352 10.7031 7.03125C10.8887 6.37695 11.1328 5.9668 11.6895 5.9668C12.2852 5.9668 12.6074 6.48438 12.6074 7.17773C12.6074 7.95898 12.0703 8.75 11.543 9.41406L9.85352 11.582C9.66797 11.8164 9.49219 12.0605 9.49219 12.3633C9.49219 12.6953 9.69727 12.9297 10.1465 12.9297Z" fill="var(--color-primary)"/>
 </g>
</svg>
