<svg version="1.1" xmlns="http://www.w3.org/2000/svg" xmlns:xlink="http://www.w3.org/1999/xlink" width="18.3398" height="17.998" viewBox="0 0 18.3398 17.998">
 <g>
  <rect height="17.998" opacity="0" width="18.3398" x="0" y="0"/>
  <path d="M3.06641 17.998L14.9121 17.998C16.9629 17.998 17.9785 16.9824 17.9785 14.9707L17.9785 3.04688C17.9785 1.03516 16.9629 0.0195312 14.9121 0.0195312L3.06641 0.0195312C1.02539 0.0195312 0 1.02539 0 3.04688L0 14.9707C0 16.9922 1.02539 17.998 3.06641 17.998Z" fill="var(--color-tertiary)"/>
  <path d="M7.2168 13.1934C6.89453 13.1934 6.51367 13.0078 6.51367 12.4707L6.51367 11.4746L4.26758 11.4746C3.76953 11.4746 3.4375 11.1426 3.4375 10.6543C3.4375 10.3418 3.49609 10.0781 3.66211 9.6875L5.44922 5.78125C5.73242 5.15625 6.07422 4.79492 6.78711 4.79492C7.45117 4.79492 7.90039 5.18555 7.90039 5.88867L7.90039 10.3027L8.26172 10.3027C8.67188 10.3027 8.83789 10.5566 8.83789 10.8789C8.83789 11.2207 8.65234 11.4746 8.26172 11.4746L7.90039 11.4746L7.90039 12.4707C7.90039 12.959 7.58789 13.1934 7.2168 13.1934ZM6.54297 10.332L6.54297 6.06445L6.50391 6.06445L4.67773 10.2637L4.67773 10.332ZM11.0742 13.2031C10.6055 13.2031 10.4102 12.8711 10.4102 12.5781C10.4102 12.334 10.4492 12.207 10.5273 11.9824L12.7637 6.21094L12.7637 6.12305L10.1758 6.12305C9.83398 6.12305 9.58984 5.86914 9.58984 5.51758C9.58984 5.17578 9.83398 4.92188 10.1758 4.92188L13.4277 4.92188C13.8867 4.92188 14.2383 5.23438 14.2383 5.70312C14.2383 5.99609 14.1602 6.24023 14.0527 6.55273L11.7578 12.6855C11.6113 13.0566 11.4551 13.2031 11.0742 13.2031Z" fill="var(--color-primary)"/>
 </g>
</svg>
