<?xml version="1.0" encoding="UTF-8"?>
<!--Generator: Apple Native CoreSVG 326-->
<!DOCTYPE svg
PUBLIC "-//W3C//DTD SVG 1.1//EN"
       "http://www.w3.org/Graphics/SVG/1.1/DTD/svg11.dtd">
<svg version="1.1" xmlns="http://www.w3.org/2000/svg" xmlns:xlink="http://www.w3.org/1999/xlink" viewBox="0 0 20.2832 19.9316">
 <g>
  <rect height="19.9316" opacity="0" width="20.2832" x="0" y="0"/>
  <path d="M19.9219 9.96094C19.9219 15.4492 15.459 19.9219 9.96094 19.9219C4.47266 19.9219 0 15.4492 0 9.96094C0 4.46289 4.47266 0 9.96094 0C15.459 0 19.9219 4.46289 19.9219 9.96094ZM10.4492 8.57422C10.4492 9.93164 11.1035 11.2207 12.4316 11.2207C13.2617 11.2207 13.877 10.6738 14.1016 9.81445L14.1406 9.81445C14.1406 9.85352 14.1406 9.89258 14.1406 9.92188C14.1406 11.0352 14.0039 13.0469 12.8809 13.0469C12.4316 13.0469 12.1289 12.7344 11.9434 12.3047C11.8066 11.9727 11.6016 11.8457 11.2988 11.8457C10.8789 11.8457 10.6934 12.1289 10.6934 12.4609C10.6934 12.5781 10.7227 12.7051 10.752 12.8223C10.9668 13.7012 11.8457 14.2285 12.8516 14.2285C14.9121 14.2285 15.5176 11.9434 15.5176 9.88281C15.5176 7.97852 14.9121 5.70312 12.8711 5.70312C11.3379 5.70312 10.4492 6.99219 10.4492 8.57422ZM6.06445 6.74805L4.27734 10.6543C4.11133 11.0449 4.05273 11.3086 4.05273 11.6211C4.05273 12.1094 4.38477 12.4414 4.88281 12.4414L7.12891 12.4414L7.12891 13.4375C7.12891 13.9746 7.51953 14.1602 7.83203 14.1602C8.21289 14.1602 8.51562 13.9258 8.51562 13.4375L8.51562 12.4414L8.87695 12.4414C9.26758 12.4414 9.45312 12.1875 9.45312 11.8457C9.45312 11.5234 9.27734 11.2695 8.87695 11.2695L8.51562 11.2695L8.51562 6.85547C8.51562 6.15234 8.06641 5.76172 7.40234 5.76172C6.68945 5.76172 6.34766 6.12305 6.06445 6.74805ZM7.1582 11.2988L5.29297 11.2988L5.29297 11.2305L7.11914 7.03125L7.1582 7.03125ZM13.9551 8.50586C13.9551 9.28711 13.6133 10.1074 12.8906 10.1074C12.1484 10.1074 11.8457 9.24805 11.8457 8.50586C11.8457 7.75391 12.1875 6.88477 12.8906 6.88477C13.6426 6.88477 13.9551 7.75391 13.9551 8.50586Z" fill="white" fill-opacity="0.85"/>
 </g>
</svg>
