<?xml version="1.0" encoding="UTF-8"?>
<!--Generator: Apple Native CoreSVG 326-->
<!DOCTYPE svg
PUBLIC "-//W3C//DTD SVG 1.1//EN"
       "http://www.w3.org/Graphics/SVG/1.1/DTD/svg11.dtd">
<svg version="1.1" xmlns="http://www.w3.org/2000/svg" xmlns:xlink="http://www.w3.org/1999/xlink" viewBox="0 0 24.7754 19.541">
 <g>
  <rect height="19.541" opacity="0" width="24.7754" x="0" y="0"/>
  <path d="M17.9102 18.7305C17.9102 19.1699 17.5488 19.5215 17.1191 19.5215L7.29492 19.5215C6.86523 19.5215 6.50391 19.1699 6.50391 18.7305C6.50391 18.291 6.86523 17.9395 7.29492 17.9395L17.1191 17.9395C17.5488 17.9395 17.9102 18.291 17.9102 18.7305ZM24.4141 2.50977L24.4141 13.7012C24.4141 15.4004 23.5742 16.2109 21.9043 16.2109L2.50977 16.2109C0.849609 16.2109 0 15.4004 0 13.7012L0 2.50977C0 0.810547 0.849609 0 2.50977 0L21.9043 0C23.5742 0 24.4141 0.810547 24.4141 2.50977ZM12.3633 4.69727L12.3633 11.5527C12.3633 12.0117 12.6367 12.3242 13.0957 12.3242C13.6133 12.3242 13.8477 11.9727 13.8477 11.5527L13.8477 9.75586L14.502 8.74023L16.2793 11.7676C16.4844 12.1191 16.6699 12.3047 17.0703 12.3047C17.4707 12.3047 17.7246 12.0117 17.7246 11.6211C17.7246 11.3965 17.6855 11.2598 17.5586 11.0254L15.5859 7.74414L17.3145 5.16602C17.4316 5.00977 17.5098 4.85352 17.5098 4.60938C17.5098 4.27734 17.2656 3.94531 16.8359 3.94531C16.4551 3.94531 16.3086 4.15039 16.1816 4.35547L13.9062 7.85156L13.8379 7.85156L13.8379 4.69727C13.8379 4.25781 13.584 3.92578 13.0957 3.92578C12.627 3.92578 12.3633 4.22852 12.3633 4.69727ZM7.75391 4.90234L5.95703 8.80859C5.79102 9.18945 5.73242 9.45312 5.73242 9.76562C5.73242 10.2539 6.06445 10.5859 6.5625 10.5859L8.80859 10.5859L8.80859 11.582C8.80859 12.1191 9.18945 12.3145 9.51172 12.3145C9.88281 12.3145 10.1953 12.0703 10.1953 11.582L10.1953 10.5859L10.5566 10.5859C10.9473 10.5859 11.1328 10.332 11.1328 10C11.1328 9.66797 10.9668 9.41406 10.5566 9.41406L10.1953 9.41406L10.1953 5C10.1953 4.29688 9.74609 3.91602 9.08203 3.91602C8.36914 3.91602 8.03711 4.27734 7.75391 4.90234ZM8.83789 9.44336L6.97266 9.44336L6.97266 9.38477L8.79883 5.18555L8.83789 5.18555Z" fill="white" fill-opacity="0.85"/>
 </g>
</svg>
