<?xml version="1.0" encoding="UTF-8"?>
<!--Generator: Apple Native CoreSVG 326-->
<!DOCTYPE svg
PUBLIC "-//W3C//DTD SVG 1.1//EN"
       "http://www.w3.org/Graphics/SVG/1.1/DTD/svg11.dtd">
<svg version="1.1" xmlns="http://www.w3.org/2000/svg" xmlns:xlink="http://www.w3.org/1999/xlink" viewBox="0 0 18.3398 17.9785">
 <g>
  <rect height="17.9785" opacity="0" width="18.3398" x="0" y="0"/>
  <path d="M17.9785 3.02734L17.9785 14.9609C17.9785 16.9727 16.9629 17.9785 14.9121 17.9785L3.06641 17.9785C1.02539 17.9785 0 16.9727 0 14.9609L0 3.02734C0 1.01562 1.02539 0 3.06641 0L14.9121 0C16.9629 0 17.9785 1.01562 17.9785 3.02734ZM4.73633 4.93164C4.19922 4.93164 3.96484 5.2832 3.92578 5.79102L3.76953 8.54492C3.75977 8.70117 3.75977 8.85742 3.75977 8.99414C3.75977 9.38477 3.94531 9.7168 4.41406 9.7168C4.6875 9.7168 4.84375 9.61914 5.05859 9.33594C5.29297 9.00391 5.53711 8.76953 5.94727 8.76953C6.68945 8.76953 6.96289 9.6582 6.96289 10.4004C6.96289 11.2402 6.67969 12.0898 5.92773 12.0898C5.37109 12.0898 5.04883 11.6895 4.87305 11.1426C4.74609 10.8203 4.52148 10.6641 4.24805 10.6641C3.87695 10.6641 3.64258 10.8984 3.64258 11.2695C3.64258 11.5039 3.70117 11.7285 3.78906 11.9238C4.14062 12.7441 5.03906 13.2715 5.94727 13.2715C7.51953 13.2715 8.37891 11.9629 8.37891 10.3711C8.37891 8.98438 7.71484 7.70508 6.41602 7.70508C5.82031 7.70508 5.2832 7.97852 5.01953 8.57422L4.9707 8.57422L5.13672 6.12305L7.50977 6.12305C7.85156 6.12305 8.06641 5.87891 8.06641 5.51758C8.06641 5.18555 7.8418 4.93164 7.50977 4.93164ZM9.51172 8.99414C9.51172 11.0254 10.1074 13.2715 12.1191 13.2715C14.1309 13.2715 14.7266 11.0254 14.7266 8.99414C14.7266 6.96289 14.1309 4.7168 12.1191 4.7168C10.1074 4.7168 9.51172 6.96289 9.51172 8.99414ZM13.2422 8.99414C13.2422 10.752 12.9297 12.0703 12.1191 12.0703C11.2988 12.0703 10.9863 10.752 10.9863 8.99414C10.9863 7.24609 11.2988 5.91797 12.1191 5.91797C12.9297 5.91797 13.2422 7.24609 13.2422 8.99414Z" fill="white" fill-opacity="0.85"/>
 </g>
</svg>
