<?xml version="1.0" encoding="UTF-8"?>
<!--Generator: Apple Native CoreSVG 326-->
<!DOCTYPE svg
PUBLIC "-//W3C//DTD SVG 1.1//EN"
       "http://www.w3.org/Graphics/SVG/1.1/DTD/svg11.dtd">
<svg version="1.1" xmlns="http://www.w3.org/2000/svg" xmlns:xlink="http://www.w3.org/1999/xlink" viewBox="0 0 18.3398 14.7363">
 <g>
  <rect height="14.7363" opacity="0" width="18.3398" x="0" y="0"/>
  <path d="M0 13.9453C0 14.375 0.351562 14.7363 0.78125 14.7363C1.2207 14.7363 1.57227 14.375 1.57227 13.9453L1.57227 0.800781C1.57227 0.371094 1.2207 0.0195312 0.78125 0.0195312C0.351562 0.0195312 0 0.371094 0 0.800781ZM16.4062 13.9453C16.4062 14.375 16.7676 14.7363 17.1973 14.7363C17.627 14.7363 17.9785 14.375 17.9785 13.9453L17.9785 0.800781C17.9785 0.371094 17.627 0.0195312 17.1973 0.0195312C16.7676 0.0195312 16.4062 0.371094 16.4062 0.800781Z" fill="white" fill-opacity="0.85"/>
  <path d="M8.81836 12.002C11.1621 12.002 11.9043 9.73633 11.9043 7.4707C11.9043 5.24414 11.0352 3.13477 8.86719 3.13477C7.20703 3.13477 6.07422 4.38477 6.07422 6.12305C6.07422 7.61719 6.97266 8.88672 8.4375 8.88672C9.46289 8.88672 10.1562 8.24219 10.4102 7.41211L10.4297 7.41211C10.4297 7.45117 10.4297 7.48047 10.4297 7.51953C10.4395 8.88672 10.1758 10.752 8.87695 10.752C8.29102 10.752 7.93945 10.4492 7.68555 9.9707C7.50977 9.66797 7.31445 9.51172 6.97266 9.51172C6.5625 9.51172 6.33789 9.79492 6.33789 10.1562C6.33789 10.4785 6.55273 10.8691 6.80664 11.1328C7.27539 11.6797 7.99805 12.002 8.81836 12.002ZM8.87695 7.71484C8.01758 7.71484 7.56836 6.9043 7.56836 6.06445C7.56836 5.20508 8.03711 4.38477 8.88672 4.38477C9.72656 4.38477 10.2148 5.23438 10.2148 6.09375C10.2148 6.95312 9.70703 7.71484 8.87695 7.71484Z" fill="white" fill-opacity="0.85"/>
 </g>
</svg>
