<?xml version="1.0" encoding="UTF-8"?>
<!--Generator: Apple Native CoreSVG 326-->
<!DOCTYPE svg
PUBLIC "-//W3C//DTD SVG 1.1//EN"
       "http://www.w3.org/Graphics/SVG/1.1/DTD/svg11.dtd">
<svg version="1.1" xmlns="http://www.w3.org/2000/svg" xmlns:xlink="http://www.w3.org/1999/xlink" viewBox="0 0 18.3398 17.9785">
 <g>
  <rect height="17.9785" opacity="0" width="18.3398" x="0" y="0"/>
  <path d="M17.9785 3.02734L17.9785 14.9609C17.9785 16.9727 16.9629 17.9785 14.9121 17.9785L3.06641 17.9785C1.02539 17.9785 0 16.9727 0 14.9609L0 3.02734C0 1.01562 1.02539 0 3.06641 0L14.9121 0C16.9629 0 17.9785 1.01562 17.9785 3.02734ZM5.49805 7.40234C5.49805 9.29688 6.93359 10.3711 8.50586 10.3711C9.84375 10.3711 10.6445 9.70703 10.9668 8.96484L11.0449 8.96484C11.0645 11.1719 10.1172 12.4902 8.73047 12.4902C8.03711 12.4902 7.57812 12.207 7.1582 11.6406C6.98242 11.4062 6.78711 11.2402 6.46484 11.2402C6.07422 11.2402 5.80078 11.5039 5.80078 11.8945C5.80078 12.002 5.82031 12.1191 5.85938 12.2363C6.10352 12.9395 7.05078 13.7793 8.75 13.7793C11.1816 13.7793 12.5098 12.041 12.5098 8.66211C12.5098 5.76172 11.1914 4.18945 8.92578 4.18945C6.8457 4.18945 5.49805 5.44922 5.49805 7.40234ZM10.918 7.35352C10.918 8.4375 10.1074 9.22852 8.98438 9.22852C7.85156 9.22852 7.06055 8.4375 7.06055 7.33398C7.06055 6.16211 7.83203 5.39062 8.99414 5.39062C10.0879 5.39062 10.918 6.2207 10.918 7.35352Z" fill="white" fill-opacity="0.85"/>
 </g>
</svg>
