<svg version="1.1" xmlns="http://www.w3.org/2000/svg" xmlns:xlink="http://www.w3.org/1999/xlink" viewBox="0 0 20.2832 23.7233">
 <g>
  <rect height="23.7233" opacity="0" width="20.2832" x="0" y="0"/>
  <path d="M9.96094 21.8177C15.459 21.8177 19.9219 17.3548 19.9219 11.8568C19.9219 6.98374 16.416 2.94077 11.8457 2.0814L11.8457 0.694677C11.8457-0.00844799 11.3672-0.184229 10.8203 0.19663L7.71484 2.38413C7.26562 2.7064 7.27539 3.17515 7.71484 3.48765L10.8301 5.67515C11.3672 6.04624 11.8457 5.87046 11.8457 5.1771L11.8457 3.77085C15.5176 4.62046 18.2617 7.89194 18.2617 11.8568C18.2617 16.4466 14.5508 20.1576 9.96094 20.1576C5.37109 20.1576 1.66016 16.4466 1.66016 11.8568C1.66016 9.07358 3.02734 6.62241 5.09766 5.13804C5.49805 4.8353 5.625 4.37632 5.38086 3.96616C5.13672 3.57554 4.58008 3.45835 4.15039 3.79038C1.63086 5.60679 0 8.50718 0 11.8568C0 17.3548 4.46289 21.8177 9.96094 21.8177Z" fill="var(--color-primary)"/>
  <path d="M6.77734 15.9291C8.83789 15.9291 9.48242 13.9369 9.48242 11.9544C9.48242 10.0013 8.7207 8.14585 6.81641 8.14585C5.37109 8.14585 4.36523 9.24936 4.36523 10.763C4.36523 12.0814 5.15625 13.1947 6.44531 13.1947C7.34375 13.1947 7.96875 12.638 8.18359 11.9056L8.19336 11.9056C8.19336 11.9251 8.19336 11.9642 8.19336 11.9935C8.20312 13.1947 7.96875 14.8353 6.82617 14.8353C6.31836 14.8353 6.01562 14.5716 5.78125 14.1517C5.63477 13.8783 5.46875 13.7416 5.16602 13.7416C4.79492 13.7416 4.59961 13.9955 4.59961 14.308C4.59961 14.6009 4.78516 14.933 5.01953 15.1673C5.41992 15.6458 6.06445 15.9291 6.77734 15.9291ZM6.82617 12.1595C6.08398 12.1595 5.68359 11.4564 5.68359 10.7142C5.68359 9.97202 6.09375 9.24936 6.8457 9.24936C7.57812 9.24936 8.01758 9.98179 8.01758 10.7435C8.01758 11.5052 7.55859 12.1595 6.82617 12.1595ZM13.252 15.9291C15.1758 15.9291 15.8496 13.9564 15.8496 12.0326C15.8496 10.1087 15.1758 8.14585 13.252 8.14585C11.3281 8.14585 10.6543 10.1185 10.6543 12.0326C10.6543 13.9759 11.3379 15.9291 13.252 15.9291ZM13.252 14.8255C12.4414 14.8255 12.0215 13.6244 12.0215 12.0326C12.0215 10.4505 12.4414 9.25913 13.252 9.25913C14.0625 9.25913 14.4824 10.4505 14.4824 12.0326C14.4824 13.6244 14.0723 14.8255 13.252 14.8255Z" fill="var(--color-primary)"/>
 </g>
</svg>
