<?xml version="1.0" encoding="UTF-8"?>
<!--Generator: Apple Native CoreSVG 326-->
<!DOCTYPE svg
PUBLIC "-//W3C//DTD SVG 1.1//EN"
       "http://www.w3.org/Graphics/SVG/1.1/DTD/svg11.dtd">
<svg version="1.1" xmlns="http://www.w3.org/2000/svg" xmlns:xlink="http://www.w3.org/1999/xlink" viewBox="0 0 20.4785 17.2363">
 <g>
  <rect height="17.2363" opacity="0" width="20.4785" x="0" y="0"/>
  <path d="M5.91797 17.2266L14.1992 17.2266C18.1836 17.2266 20.1172 15.3027 20.1172 11.3281L20.1172 6.50391L15.0684 6.50391C14.9023 6.94336 14.4922 7.22656 13.9746 7.22656L6.15234 7.22656C5.64453 7.22656 5.21484 6.94336 5.05859 6.50391L0 6.50391L0 11.3281C0 15.3027 1.93359 17.2266 5.91797 17.2266ZM10.0586 10.9473C9.57031 10.9668 9.16016 10.5469 9.16016 10.0684C9.16016 9.58008 9.57031 9.16992 10.0586 9.16992C10.5469 9.16992 10.957 9.58008 10.957 10.0684C10.957 10.5273 10.5469 10.9375 10.0586 10.9473ZM0 5.61523L5.03906 5.61523C5.19531 5.17578 5.625 4.89258 6.13281 4.89258L13.9648 4.89258C14.4727 4.89258 14.8926 5.17578 15.0488 5.61523L20.0879 5.61523L20.0879 5.30273C20.0879 1.73828 17.9688 0 14.1699 0L5.91797 0C2.11914 0 0 1.73828 0 5.30273Z" fill="white" fill-opacity="0.85"/>
 </g>
</svg>
