<?xml version="1.0" encoding="UTF-8"?>
<!--Generator: Apple Native CoreSVG 326-->
<!DOCTYPE svg
PUBLIC "-//W3C//DTD SVG 1.1//EN"
       "http://www.w3.org/Graphics/SVG/1.1/DTD/svg11.dtd">
<svg version="1.1" xmlns="http://www.w3.org/2000/svg" xmlns:xlink="http://www.w3.org/1999/xlink" viewBox="0 0 20.2832 19.9316">
 <g>
  <rect height="19.9316" opacity="0" width="20.2832" x="0" y="0"/>
  <path d="M19.9219 9.9707C19.9219 15.4688 15.459 19.9316 9.96094 19.9316C4.47266 19.9316 0 15.4688 0 9.9707C0 4.48242 4.47266 0.00976562 9.96094 0.00976562C15.459 0.00976562 19.9219 4.48242 19.9219 9.9707ZM7.16797 4.44336C6.95312 4.44336 6.83594 4.64844 6.92383 4.86328L8.7207 8.81836L6.21094 9.10156L5.27344 7.39258C5.18555 7.22656 5.03906 7.14844 4.82422 7.14844L4.58984 7.14844C4.39453 7.14844 4.26758 7.27539 4.26758 7.4707L4.26758 12.4805C4.26758 12.6758 4.39453 12.8125 4.58984 12.8125L4.82422 12.8125C5.03906 12.8125 5.18555 12.7344 5.27344 12.5684L6.21094 10.8594L8.7207 11.1426L6.92383 15.0977C6.83594 15.3125 6.95312 15.5176 7.16797 15.5176L7.79297 15.5176C7.96875 15.5176 8.13477 15.4297 8.26172 15.293L11.8555 11.377C12.0215 11.2012 12.0996 11.1621 12.3633 11.1621L14.5215 11.1621C15.6152 11.1621 16.5039 10.6543 16.5039 9.98047C16.5039 9.30664 15.6152 8.79883 14.5215 8.79883L12.3633 8.79883C12.0996 8.79883 12.0215 8.75977 11.8555 8.58398L8.26172 4.66797C8.13477 4.52148 7.96875 4.44336 7.79297 4.44336Z" fill="white" fill-opacity="0.85"/>
 </g>
</svg>
