<?xml version="1.0" encoding="UTF-8"?>
<!--Generator: Apple Native CoreSVG 326-->
<!DOCTYPE svg
PUBLIC "-//W3C//DTD SVG 1.1//EN"
       "http://www.w3.org/Graphics/SVG/1.1/DTD/svg11.dtd">
<svg version="1.1" xmlns="http://www.w3.org/2000/svg" xmlns:xlink="http://www.w3.org/1999/xlink" viewBox="0 0 26.4062 17.1582">
 <g>
  <rect height="17.1582" opacity="0" width="26.4062" x="0" y="0"/>
  <path d="M22.2656 15.2539C22.5879 15.6152 23.125 15.6152 23.5059 15.2051C25.127 13.4375 26.0449 11.1035 26.0449 8.57422C26.0449 6.04492 25.127 3.70117 23.5059 1.94336C23.125 1.5332 22.5879 1.52344 22.2656 1.89453C21.9531 2.24609 22.0508 2.70508 22.4121 3.10547C23.7207 4.56055 24.4531 6.47461 24.4531 8.57422C24.4531 10.6738 23.7207 12.5879 22.4121 14.043C22.0508 14.4434 21.9531 14.9023 22.2656 15.2539Z" fill="white" fill-opacity="0.85"/>
  <path d="M19.5312 12.4707C19.8535 12.832 20.4395 12.8418 20.791 12.4023C21.6406 11.3477 22.1289 10.0098 22.1289 8.57422C22.1289 7.13867 21.6406 5.80078 20.791 4.74609C20.4395 4.30664 19.8535 4.30664 19.5312 4.67773C19.2188 5.0293 19.3555 5.46875 19.6582 5.88867C20.2441 6.61133 20.5371 7.55859 20.5371 8.57422C20.5371 9.58984 20.2441 10.5273 19.6582 11.2598C19.3555 11.6797 19.2188 12.1191 19.5312 12.4707Z" fill="white" fill-opacity="0.85"/>
  <path d="M8.57422 17.1387C13.3008 17.1387 17.1387 13.3105 17.1387 8.57422C17.1387 3.83789 13.3008 0 8.57422 0C3.83789 0 0 3.83789 0 8.57422C0 13.3105 3.83789 17.1387 8.57422 17.1387ZM8.57422 15.5664C4.70703 15.5664 1.57227 12.4414 1.57227 8.57422C1.57227 4.70703 4.70703 1.57227 8.57422 1.57227C12.4316 1.57227 15.5664 4.70703 15.5664 8.57422C15.5664 12.4414 12.4316 15.5664 8.57422 15.5664ZM8.56445 11.3867C9.14062 11.3867 9.26758 11.6797 9.76562 11.6797C10.2734 11.6797 10.6055 11.2207 10.9277 10.7715C11.2793 10.2539 11.4258 9.74609 11.4258 9.72656C11.3965 9.7168 10.4395 9.32617 10.4395 8.23242C10.4395 7.27539 11.1914 6.85547 11.2305 6.81641C10.7422 6.10352 9.98047 6.09375 9.76562 6.09375C9.21875 6.09375 8.76953 6.42578 8.4668 6.42578C8.16406 6.42578 7.76367 6.10352 7.27539 6.10352C6.34766 6.10352 5.41992 6.875 5.41992 8.30078C5.41992 9.19922 5.77148 10.1465 6.19141 10.752C6.55273 11.2695 6.875 11.6895 7.34375 11.6895C7.79297 11.6895 7.99805 11.3867 8.56445 11.3867ZM9.51172 5.47852C9.73633 5.20508 9.90234 4.83398 9.90234 4.44336C9.90234 4.39453 9.90234 4.3457 9.89258 4.30664C9.51172 4.31641 9.07227 4.55078 8.80859 4.86328C8.60352 5.10742 8.39844 5.47852 8.39844 5.86914C8.39844 5.91797 8.4082 5.97656 8.4082 5.99609C8.4375 5.99609 8.4668 6.00586 8.50586 6.00586C8.84766 6.00586 9.26758 5.78125 9.51172 5.47852Z" fill="white" fill-opacity="0.85"/>
 </g>
</svg>
