<?xml version="1.0" encoding="UTF-8"?>
<!--Generator: Apple Native CoreSVG 326-->
<!DOCTYPE svg
PUBLIC "-//W3C//DTD SVG 1.1//EN"
       "http://www.w3.org/Graphics/SVG/1.1/DTD/svg11.dtd">
<svg version="1.1" xmlns="http://www.w3.org/2000/svg" xmlns:xlink="http://www.w3.org/1999/xlink" viewBox="0 0 26.4062 17.1582">
 <g>
  <rect height="17.1582" opacity="0" width="26.4062" x="0" y="0"/>
  <path d="M22.2656 15.2539C22.5879 15.6152 23.125 15.6152 23.5059 15.2051C25.127 13.4375 26.0449 11.1035 26.0449 8.57422C26.0449 6.04492 25.127 3.70117 23.5059 1.94336C23.125 1.5332 22.5879 1.52344 22.2656 1.89453C21.9531 2.24609 22.0508 2.70508 22.4121 3.10547C23.7207 4.56055 24.4531 6.47461 24.4531 8.57422C24.4531 10.6738 23.7207 12.5879 22.4121 14.043C22.0508 14.4434 21.9531 14.9023 22.2656 15.2539Z" fill="white" fill-opacity="0.85"/>
  <path d="M19.5312 12.4707C19.8535 12.832 20.4395 12.8418 20.791 12.4023C21.6406 11.3477 22.1289 10.0098 22.1289 8.57422C22.1289 7.13867 21.6406 5.80078 20.791 4.74609C20.4395 4.30664 19.8535 4.30664 19.5312 4.67773C19.2188 5.0293 19.3555 5.46875 19.6582 5.88867C20.2441 6.61133 20.5371 7.55859 20.5371 8.57422C20.5371 9.58984 20.2441 10.5273 19.6582 11.2598C19.3555 11.6797 19.2188 12.1191 19.5312 12.4707Z" fill="white" fill-opacity="0.85"/>
  <path d="M8.57422 17.1387C13.3008 17.1387 17.1387 13.3105 17.1387 8.57422C17.1387 3.83789 13.3008 0 8.57422 0C3.83789 0 0 3.83789 0 8.57422C0 13.3105 3.83789 17.1387 8.57422 17.1387ZM8.57422 11.5039C7.98828 11.5039 7.7832 11.8164 7.31445 11.8164C6.82617 11.8164 6.50391 11.3965 6.12305 10.8594C5.69336 10.2246 5.33203 9.25781 5.33203 8.33008C5.33203 6.85547 6.28906 6.06445 7.24609 6.06445C7.74414 6.06445 8.1543 6.40625 8.47656 6.40625C8.7793 6.40625 9.23828 6.05469 9.81445 6.05469C10.0391 6.05469 10.8105 6.06445 11.3184 6.79688C11.2793 6.8457 10.5078 7.27539 10.5078 8.26172C10.5078 9.38477 11.4941 9.78516 11.5234 9.80469C11.5234 9.82422 11.377 10.3516 11.0059 10.8789C10.6836 11.3379 10.332 11.8066 9.81445 11.8066C9.29688 11.8066 9.16992 11.5039 8.57422 11.5039ZM9.55078 5.41992C9.29688 5.73242 8.86719 5.9668 8.51562 5.9668C8.47656 5.9668 8.4375 5.95703 8.4082 5.95703C8.4082 5.9375 8.39844 5.87891 8.39844 5.82031C8.39844 5.41992 8.61328 5.03906 8.81836 4.78516C9.10156 4.46289 9.55078 4.21875 9.94141 4.20898C9.95117 4.24805 9.95117 4.30664 9.95117 4.35547C9.95117 4.75586 9.78516 5.13672 9.55078 5.41992Z" fill="white" fill-opacity="0.85"/>
 </g>
</svg>
