<svg version="1.1" xmlns="http://www.w3.org/2000/svg" xmlns:xlink="http://www.w3.org/1999/xlink" viewBox="0 0 20.2181 19.8567">
 <g>
  <rect height="19.8567" opacity="0" width="20.2181" x="0" y="0"/>
  <path d="M15.529 15.529C19.3083 11.7301 20.6364 6.3688 19.4059 2.22818C19.0641 1.13443 18.7223 0.782867 17.6188 0.450836C13.4879-0.789399 8.11685 0.538726 4.31802 4.31802C0.538726 8.11685-0.789399 13.4879 0.450836 17.6188C0.782867 18.7126 1.13443 19.0641 2.22818 19.3961C6.3688 20.6364 11.7301 19.3083 15.529 15.529ZM14.3766 14.3766C11.0954 17.6774 6.78873 18.9176 2.77505 17.8532C2.24771 17.7165 2.13052 17.5993 1.98404 17.0426C0.948882 13.0485 2.16959 8.75162 5.47037 5.47037C8.76138 2.16959 13.0485 0.939117 17.0426 1.97427C17.5993 2.13052 17.7165 2.24771 17.8532 2.77505C18.9274 6.77896 17.6774 11.0954 14.3766 14.3766ZM5.7438 12.0133L7.84341 14.1032C8.02896 14.279 8.31216 14.279 8.50748 14.1032C8.68326 13.9176 8.68326 13.6149 8.50748 13.4294L6.41763 11.3395C6.23209 11.1637 5.92935 11.1637 5.7438 11.3395C5.56802 11.5348 5.56802 11.818 5.7438 12.0133ZM7.15982 10.5876L9.25943 12.6872C9.43521 12.8727 9.73794 12.8727 9.91373 12.6872C10.0993 12.5114 10.0993 12.1989 9.91373 12.0231L7.82388 9.93326C7.6481 9.74771 7.3356 9.74771 7.15982 9.93326C6.97427 10.109 6.97427 10.4118 7.15982 10.5876ZM8.56607 9.1813L10.6657 11.2809C10.8415 11.4665 11.1442 11.4665 11.32 11.2809C11.5055 11.0954 11.5055 10.7926 11.32 10.6266L9.22037 8.52701C9.05435 8.34146 8.74185 8.34146 8.56607 8.52701C8.38052 8.70279 8.38052 9.00552 8.56607 9.1813ZM9.97232 7.78482L12.0622 9.87466C12.2477 10.0504 12.5504 10.0504 12.7262 9.87466C12.9118 9.67935 12.9118 9.39615 12.7262 9.22037L10.6364 7.12076C10.4508 6.93521 10.1676 6.93521 9.97232 7.12076C9.79654 7.29654 9.79654 7.60904 9.97232 7.78482ZM11.3883 6.37857L13.4684 8.45865C13.6637 8.64419 13.9567 8.64419 14.1422 8.45865C14.3278 8.2731 14.3278 7.9899 14.1422 7.79459L12.0524 5.69498C11.8571 5.52896 11.5739 5.52896 11.3883 5.69498C11.2028 5.89029 11.2028 6.18326 11.3883 6.37857ZM7.31607 13.195L13.195 7.31607L12.5407 6.66177L6.65201 12.5407Z" fill="var(--color-primary)"/>
 </g>
</svg>
