<?xml version="1.0" encoding="UTF-8"?>
<!--Generator: Apple Native CoreSVG 326-->
<!DOCTYPE svg
PUBLIC "-//W3C//DTD SVG 1.1//EN"
       "http://www.w3.org/Graphics/SVG/1.1/DTD/svg11.dtd">
<svg version="1.1" xmlns="http://www.w3.org/2000/svg" xmlns:xlink="http://www.w3.org/1999/xlink" viewBox="0 0 20.2832 19.9316">
 <g>
  <rect height="19.9316" opacity="0" width="20.2832" x="0" y="0"/>
  <path d="M19.9219 9.9707C19.9219 15.4688 15.459 19.9316 9.96094 19.9316C4.47266 19.9316 0 15.4688 0 9.9707C0 4.48242 4.47266 0.00976562 9.96094 0.00976562C15.459 0.00976562 19.9219 4.48242 19.9219 9.9707ZM8.78906 9.63867C8.78906 10.0879 9.04297 10.4688 9.4043 10.6641L9.4043 15.8789C9.4043 16.2402 9.63867 16.4941 9.96094 16.4941C10.293 16.4941 10.5273 16.25 10.5273 15.8789L10.5273 10.6543C10.8789 10.459 11.1328 10.0781 11.1328 9.63867C11.1328 8.99414 10.6152 8.47656 9.96094 8.47656C9.31641 8.47656 8.78906 8.99414 8.78906 9.63867ZM5.19531 5.5957C4.18945 6.68945 3.63281 8.125 3.63281 9.63867C3.63281 11.1816 4.17969 12.6074 5.19531 13.7109C5.44922 13.9941 5.84961 14.0137 6.08398 13.7402C6.30859 13.4961 6.2793 13.1641 6.02539 12.8516C5.24414 11.9922 4.81445 10.8789 4.81445 9.63867C4.81445 8.42773 5.24414 7.29492 6.02539 6.45508C6.2793 6.15234 6.30859 5.80078 6.09375 5.56641C5.84961 5.2832 5.44922 5.29297 5.19531 5.5957ZM13.8281 5.56641C13.6133 5.80078 13.6426 6.15234 13.9062 6.45508C14.6875 7.29492 15.1172 8.42773 15.1172 9.63867C15.1172 10.8789 14.6875 11.9922 13.9062 12.8516C13.6426 13.1641 13.6133 13.4961 13.8379 13.7402C14.0723 14.0137 14.4727 13.9941 14.7266 13.7109C15.7422 12.6074 16.2988 11.1816 16.2988 9.63867C16.2988 8.125 15.7324 6.68945 14.7266 5.5957C14.4727 5.29297 14.0723 5.2832 13.8281 5.56641ZM6.92383 7.28516C6.39648 7.94922 6.09375 8.7793 6.09375 9.63867C6.09375 10.5176 6.39648 11.3574 6.92383 12.0215C7.1582 12.334 7.60742 12.3438 7.85156 12.0703C8.05664 11.8262 8.02734 11.5332 7.77344 11.1914C7.45117 10.7715 7.27539 10.2441 7.27539 9.63867C7.27539 9.08203 7.46094 8.54492 7.7832 8.10547C8.02734 7.77344 8.04688 7.4707 7.85156 7.23633C7.59766 6.95312 7.1582 6.97266 6.92383 7.28516ZM12.0703 7.23633C11.875 7.4707 11.9043 7.77344 12.1484 8.10547C12.4609 8.54492 12.6465 9.08203 12.6465 9.63867C12.6465 10.2441 12.4707 10.7715 12.1484 11.1914C11.8945 11.5332 11.8652 11.8262 12.0703 12.0703C12.3145 12.3438 12.7637 12.334 12.998 12.0215C13.5254 11.3574 13.8281 10.5176 13.8281 9.63867C13.8281 8.7793 13.5254 7.94922 12.998 7.28516C12.7637 6.97266 12.3242 6.95312 12.0703 7.23633Z" fill="white" fill-opacity="0.85"/>
 </g>
</svg>
