<?xml version="1.0" encoding="UTF-8"?>
<!--Generator: Apple Native CoreSVG 326-->
<!DOCTYPE svg
PUBLIC "-//W3C//DTD SVG 1.1//EN"
       "http://www.w3.org/Graphics/SVG/1.1/DTD/svg11.dtd">
<svg version="1.1" xmlns="http://www.w3.org/2000/svg" xmlns:xlink="http://www.w3.org/1999/xlink" viewBox="0 0 23.8086 21.3379">
 <g>
  <rect height="21.3379" opacity="0" width="23.8086" x="0" y="0"/>
  <path d="M19.6191 5.79102L19.6191 15.6152C19.6191 17.4219 18.584 18.4863 16.8262 18.4863L16.2813 18.4863C16.581 17.8014 16.7383 17.0055 16.7383 16.123L16.7383 12.1973C17.4316 11.8066 17.8613 11.0449 17.8613 10.127L17.8613 8.57422C17.8613 7.62695 17.4121 6.86523 16.6992 6.47461C16.6992 5.05282 15.6696 3.62606 13.9544 2.92969L16.8262 2.92969C18.584 2.92969 19.6191 3.99414 19.6191 5.79102Z" fill="white" fill-opacity="0.2125"/>
  <path d="M21.1422 5.80078L21.4062 5.80078C22.0312 5.80078 22.4316 6.23047 22.4316 6.92383L22.4316 8.55469C22.4316 9.22852 22.0312 9.6582 21.4062 9.6582L21.1426 9.6582L21.1426 15.5469C21.1426 18.3398 19.502 20.0098 16.7578 20.0098L15.2348 20.0098C15.6804 19.593 16.0339 19.081 16.2813 18.4863L16.8262 18.4863C18.584 18.4863 19.6191 17.4219 19.6191 15.6152L19.6191 5.79102C19.6191 3.99414 18.584 2.92969 16.8262 2.92969L13.9544 2.92969C13.2717 2.64459 12.4754 2.48047 11.5918 2.48047L6.15701 2.48047C6.90531 1.75117 7.98 1.35742 9.31641 1.35742L16.7578 1.35742C19.4987 1.35742 21.1387 3.01361 21.1422 5.80078Z" fill="white" fill-opacity="0.85"/>
  <path d="M2.85156 16.1816L2.85156 7.66602C2.85156 6.20117 3.65234 5.38086 5.07812 5.38086L11.6504 5.38086C13.0762 5.38086 13.877 6.20117 13.877 7.66602L13.877 16.1816C13.877 17.666 13.0762 18.4863 11.6504 18.4863L5.07812 18.4863C3.65234 18.4863 2.85156 17.666 2.85156 16.1816Z" fill="white" fill-opacity="0.2125"/>
  <path d="M5.13672 20.0098L11.5918 20.0098C13.9648 20.0098 15.4004 18.5547 15.4004 16.123L15.4004 11.1719L15.5566 11.1719C16.1523 11.1719 16.5332 10.7617 16.5332 10.127L16.5332 8.57422C16.5332 7.91992 16.1523 7.50977 15.5566 7.50977L15.4004 7.50977C15.332 5.19531 13.916 3.81836 11.5918 3.81836L5.13672 3.81836C2.75391 3.81836 1.32812 5.26367 1.32812 7.67578L1.32812 16.123C1.32812 18.5547 2.75391 20.0098 5.13672 20.0098ZM2.85156 16.1816L2.85156 7.66602C2.85156 6.20117 3.65234 5.38086 5.07812 5.38086L11.6504 5.38086C13.0762 5.38086 13.877 6.20117 13.877 7.66602L13.877 16.1816C13.877 17.666 13.0762 18.4863 11.6504 18.4863L5.07812 18.4863C3.65234 18.4863 2.85156 17.666 2.85156 16.1816Z" fill="white" fill-opacity="0.85"/>
 </g>
</svg>
