<?xml version="1.0" encoding="UTF-8"?>
<!--Generator: Apple Native CoreSVG 326-->
<!DOCTYPE svg
PUBLIC "-//W3C//DTD SVG 1.1//EN"
       "http://www.w3.org/Graphics/SVG/1.1/DTD/svg11.dtd">
<svg version="1.1" xmlns="http://www.w3.org/2000/svg" xmlns:xlink="http://www.w3.org/1999/xlink" viewBox="0 0 9.77539 21.5918">
 <g>
  <rect height="21.5918" opacity="0" width="9.77539" x="0" y="0"/>
  <path d="M2.29492 21.5723L7.17773 21.5723C8.62305 21.5723 9.47266 20.7227 9.47266 19.2773L9.47266 2.29492C9.47266 0.849609 8.62305 0 7.17773 0L2.29492 0C0.849609 0 0 0.849609 0 2.29492L0 19.2773C0 20.7227 0.849609 21.5723 2.29492 21.5723ZM2.99805 8.4375C2.29492 8.4375 1.74805 7.87109 1.74805 7.1875C1.74805 6.49414 2.29492 5.9375 2.99805 5.9375C3.68164 5.9375 4.23828 6.49414 4.23828 7.1875C4.23828 7.87109 3.68164 8.4375 2.99805 8.4375ZM6.45508 8.4375C5.76172 8.4375 5.20508 7.87109 5.20508 7.1875C5.20508 6.49414 5.76172 5.9375 6.45508 5.9375C7.14844 5.9375 7.70508 6.49414 7.70508 7.1875C7.70508 7.87109 7.14844 8.4375 6.45508 8.4375ZM2.99805 12.041C2.29492 12.041 1.74805 11.4746 1.74805 10.791C1.74805 10.0977 2.29492 9.54102 2.99805 9.54102C3.68164 9.54102 4.23828 10.0977 4.23828 10.791C4.23828 11.4746 3.68164 12.041 2.99805 12.041ZM2.99805 15.6348C2.29492 15.6348 1.74805 15.0879 1.74805 14.3848C1.74805 13.7012 2.29492 13.1348 2.99805 13.1348C3.68164 13.1348 4.23828 13.7012 4.23828 14.3848C4.23828 15.0879 3.68164 15.6348 2.99805 15.6348ZM6.44531 15.6348C5.79102 15.6348 5.27344 15.1172 5.27344 14.4434L5.27344 10.7324C5.27344 10.0684 5.79102 9.54102 6.44531 9.54102C7.10938 9.54102 7.65625 10.0684 7.65625 10.7324L7.65625 14.4434C7.65625 15.1172 7.10938 15.6348 6.44531 15.6348Z" fill="white" fill-opacity="0.85"/>
 </g>
</svg>
