<svg version="1.1" xmlns="http://www.w3.org/2000/svg" xmlns:xlink="http://www.w3.org/1999/xlink" width="19.8633" height="19.4434" viewBox="0 0 19.8633 19.4434">
 <g>
  <rect height="19.4434" opacity="0" width="19.8633" x="0" y="0"/>
  <path d="M5.20508 19.4434L14.2871 19.4434C15.957 19.4434 17.3633 19.2871 18.3594 18.291C19.3555 17.2949 19.502 15.8984 19.502 14.2285L19.502 5.22461C19.502 3.55469 19.3555 2.16797 18.3594 1.17188C17.3633 0.175781 15.957 0.0195312 14.2871 0.0195312L5.18555 0.0195312C3.54492 0.0195312 2.13867 0.175781 1.14258 1.17188C0.146484 2.16797 0 3.56445 0 5.20508L0 14.2285C0 15.8984 0.146484 17.2949 1.14258 18.291C2.13867 19.2871 3.54492 19.4434 5.20508 19.4434Z" fill="var(--color-tertiary)"/>
  <path d="M5.22461 7.5293C5.20508 6.76758 5.81055 6.04492 6.62109 6.00586C6.67969 6.72852 6.04492 7.61719 5.22461 7.5293ZM8.00781 11.0156C7.86133 11.5332 7.50977 12.1387 7.08008 12.5781C6.94336 12.6953 6.74805 12.793 6.49414 12.793C6.25977 12.793 6.12305 12.7051 5.91797 12.6367C5.79102 12.5977 5.60547 12.5098 5.39062 12.5098C4.89258 12.5098 4.66797 12.8125 4.25781 12.8125C3.98438 12.8125 3.75977 12.6367 3.44727 12.3047C2.87109 11.6602 2.49023 10.6348 2.49023 9.75586C2.49023 9.21875 2.62695 8.71094 2.96875 8.29102C3.25195 7.91992 3.68164 7.70508 4.21875 7.70508C4.70703 7.70508 5 8.01758 5.26367 8.01758C5.57617 8.01758 5.92773 7.69531 6.54297 7.69531C7.08984 7.69531 7.54883 7.91016 7.8418 8.34961C7.45117 8.57422 7.30469 8.85742 7.22656 9.0918C7.09961 9.43359 7.08008 9.83398 7.22656 10.2344C7.37305 10.5957 7.61719 10.8398 8.00781 11.0156ZM10.7617 6.50391L10.7617 7.69531L11.7285 7.69531L11.7285 8.49609L10.7617 8.49609L10.7617 11.2988C10.7617 11.7578 10.957 11.9336 11.3672 11.9336C11.4746 11.9336 11.6602 11.9336 11.709 11.9043L11.709 12.7539C11.6211 12.7637 11.3672 12.793 11.1426 12.793C10.1172 12.793 9.7168 12.4316 9.7168 11.416L9.7168 8.49609L8.99414 8.49609L8.99414 7.69531L9.7168 7.69531L9.7168 6.50391ZM15.1465 12.7539L14.0527 12.7539L12.1973 7.69531L13.3008 7.69531L14.6094 11.7578L15.8398 7.69531L16.9727 7.69531Z" fill="var(--color-primary)"/>
 </g>
</svg>
