<?xml version="1.0" encoding="UTF-8"?>
<!--Generator: Apple Native CoreSVG 326-->
<!DOCTYPE svg
PUBLIC "-//W3C//DTD SVG 1.1//EN"
       "http://www.w3.org/Graphics/SVG/1.1/DTD/svg11.dtd">
<svg version="1.1" xmlns="http://www.w3.org/2000/svg" xmlns:xlink="http://www.w3.org/1999/xlink" viewBox="0 0 23.3887 17.9785">
 <g>
  <rect height="17.9785" opacity="0" width="23.3887" x="0" y="0"/>
  <path d="M23.0273 3.02734L23.0273 14.9609C23.0273 16.9727 22.0117 17.9785 19.9609 17.9785L3.06641 17.9785C1.02539 17.9785 0 16.9727 0 14.9609L0 3.02734C0 1.01562 1.02539 0 3.06641 0L19.9609 0C22.0117 0 23.0273 1.01562 23.0273 3.02734ZM8.95508 8.04688C8.59375 8.04688 8.31055 8.33984 8.31055 8.70117C8.31055 9.0625 8.59375 9.35547 8.95508 9.35547L12.793 9.35547C13.1641 9.35547 13.4473 9.0625 13.4473 8.70117C13.4473 8.33984 13.1641 8.04688 12.793 8.04688ZM4.0625 4.6582L6.48438 6.11328L4.0625 7.58789C3.27148 8.05664 3.93555 9.26758 4.81445 8.7207L7.70508 6.9043C8.28125 6.54297 8.25195 5.68359 7.70508 5.33203L4.81445 3.52539C3.93555 2.97852 3.26172 4.16992 4.0625 4.6582Z" fill="white" fill-opacity="0.85"/>
 </g>
</svg>
