<svg version="1.1" xmlns="http://www.w3.org/2000/svg" xmlns:xlink="http://www.w3.org/1999/xlink" viewBox="0 0 20.2832 19.9316">
 <g>
  <rect height="19.9316" opacity="0" width="20.2832" x="0" y="0"/>
  <path d="M9.96094 19.9219C15.459 19.9219 19.9219 15.459 19.9219 9.96094C19.9219 4.46289 15.459 0 9.96094 0C4.46289 0 0 4.46289 0 9.96094C0 15.459 4.46289 19.9219 9.96094 19.9219ZM9.96094 18.2617C5.37109 18.2617 1.66016 14.5508 1.66016 9.96094C1.66016 5.37109 5.37109 1.66016 9.96094 1.66016C14.5508 1.66016 18.2617 5.37109 18.2617 9.96094C18.2617 14.5508 14.5508 18.2617 9.96094 18.2617Z" fill="var(--color-primary)"/>
  <path d="M9.9707 3.88672C9.75586 3.88672 9.58008 3.98438 9.39453 4.16992L6.57227 6.98242C6.44531 7.10938 6.36719 7.28516 6.36719 7.49023C6.36719 7.89062 6.67969 8.19336 7.08008 8.19336C7.29492 8.19336 7.4707 8.11523 7.59766 7.97852L8.32031 7.23633L9.31641 6.05469L9.23828 8.125L9.23828 11.7969L9.31641 13.8672L8.32031 12.6855L7.59766 11.9434C7.4707 11.7969 7.29492 11.7285 7.08008 11.7285C6.67969 11.7285 6.36719 12.0312 6.36719 12.4316C6.36719 12.627 6.44531 12.8125 6.57227 12.9395L9.39453 15.752C9.58008 15.9375 9.75586 16.0352 9.9707 16.0352C10.1758 16.0352 10.3418 15.9375 10.5371 15.752L13.3691 12.9395C13.4961 12.8125 13.5645 12.627 13.5645 12.4316C13.5645 12.0312 13.2617 11.7285 12.8613 11.7285C12.6465 11.7285 12.4707 11.8066 12.3438 11.9434L11.6113 12.6855L10.625 13.8574L10.7031 11.7969L10.7031 8.125L10.625 6.06445L11.6113 7.23633L12.3438 7.97852C12.4707 8.10547 12.6465 8.19336 12.8613 8.19336C13.2617 8.19336 13.5645 7.89062 13.5645 7.49023C13.5645 7.28516 13.4961 7.10938 13.3691 6.98242L10.5371 4.16992C10.3418 3.98438 10.1758 3.88672 9.9707 3.88672Z" fill="var(--color-primary)"/>
 </g>
</svg>
