<?xml version="1.0" encoding="UTF-8"?>
<!--Generator: Apple Native CoreSVG 326-->
<!DOCTYPE svg
PUBLIC "-//W3C//DTD SVG 1.1//EN"
       "http://www.w3.org/Graphics/SVG/1.1/DTD/svg11.dtd">
<svg version="1.1" xmlns="http://www.w3.org/2000/svg" xmlns:xlink="http://www.w3.org/1999/xlink" viewBox="0 0 20.332 24.5996">
 <g>
  <rect height="24.5996" opacity="0" width="20.332" x="0" y="0"/>
  <path d="M19.9707 3.06641L19.9707 16.6309C19.9707 18.6719 18.9551 19.6973 16.9434 19.6973L15.2344 19.6973L15.2344 7.93945C15.2344 5.89844 14.2285 4.87305 12.207 4.87305L4.73633 4.87305L4.73633 3.06641C4.73633 1.02539 5.74219 0 7.76367 0L16.9434 0C18.9551 0 19.9707 1.03516 19.9707 3.06641ZM9.9707 1.99219C9.54102 1.99219 9.3457 2.26562 9.3457 2.56836L9.3457 2.77344C9.3457 3.06641 9.54102 3.34961 9.9707 3.34961L14.7363 3.34961C15.1562 3.34961 15.3613 3.06641 15.3613 2.77344L15.3613 2.56836C15.3613 2.26562 15.1562 1.99219 14.7363 1.99219Z" fill="white" fill-opacity="0.85"/>
  <path d="M0 21.5039C0 23.5449 1.00586 24.5703 3.02734 24.5703L12.207 24.5703C14.2285 24.5703 15.2344 23.5352 15.2344 21.5039L15.2344 7.93945C15.2344 5.89844 14.2285 4.87305 12.207 4.87305L3.02734 4.87305C1.00586 4.87305 0 5.88867 0 7.93945ZM1.57227 21.4746L1.57227 7.95898C1.57227 6.99219 2.08984 6.44531 3.0957 6.44531L12.1289 6.44531C13.1348 6.44531 13.6621 6.99219 13.6621 7.95898L13.6621 21.4746C13.6621 22.4512 13.1348 22.998 12.1289 22.998L3.0957 22.998C2.08984 22.998 1.57227 22.4512 1.57227 21.4746Z" fill="white" fill-opacity="0.85"/>
  <path d="M7.60742 10.5664C7.44141 10.5664 7.27539 10.6348 7.09961 10.791L4.43359 13.3789C4.30664 13.4961 4.21875 13.6426 4.21875 13.8379C4.21875 14.1895 4.50195 14.4629 4.85352 14.4629C5.01953 14.4629 5.21484 14.3848 5.3418 14.248L6.58203 12.9199L6.95312 12.5391L6.91406 13.5938L6.91406 18.1738C6.91406 18.5352 7.23633 18.8574 7.60742 18.8574C7.97852 18.8574 8.31055 18.5352 8.31055 18.1738L8.31055 13.5938L8.26172 12.5488L8.63281 12.9199L9.87305 14.248C10 14.3848 10.1855 14.4629 10.3516 14.4629C10.7031 14.4629 10.9961 14.1895 10.9961 13.8379C10.9961 13.6426 10.918 13.4961 10.7812 13.3789L8.11523 10.791C7.93945 10.6348 7.77344 10.5664 7.60742 10.5664Z" fill="white" fill-opacity="0.85"/>
 </g>
</svg>
