<?xml version="1.0" encoding="UTF-8"?>
<!--Generator: Apple Native CoreSVG 326-->
<!DOCTYPE svg
PUBLIC "-//W3C//DTD SVG 1.1//EN"
       "http://www.w3.org/Graphics/SVG/1.1/DTD/svg11.dtd">
<svg version="1.1" xmlns="http://www.w3.org/2000/svg" xmlns:xlink="http://www.w3.org/1999/xlink" viewBox="0 0 18.3398 17.9785">
 <g>
  <rect height="17.9785" opacity="0" width="18.3398" x="0" y="0"/>
  <path d="M17.9785 3.02734L17.9785 14.9609C17.9785 16.9727 16.9629 17.9785 14.9121 17.9785L3.06641 17.9785C1.02539 17.9785 0 16.9727 0 14.9609L0 3.02734C0 1.01562 1.02539 0 3.06641 0L14.9121 0C16.9629 0 17.9785 1.01562 17.9785 3.02734ZM9.375 5.56641C9.375 5.76172 9.45312 5.97656 9.61914 6.11328L11.2402 7.64648L11.8652 8.23242L10.3516 8.16406L4.70703 8.16406C4.27734 8.16406 3.91602 8.53516 3.91602 8.97461C3.91602 9.41406 4.27734 9.77539 4.70703 9.77539L10.3516 9.77539L11.8652 9.7168L11.2402 10.3027L9.61914 11.8359C9.45312 11.9727 9.375 12.1973 9.375 12.3926C9.375 12.8125 9.66797 13.1152 10.0781 13.1152C10.293 13.1152 10.459 13.0371 10.6152 12.8809L13.8086 9.56055C14.0137 9.35547 14.082 9.17969 14.082 8.97461C14.082 8.75977 14.0137 8.59375 13.8086 8.38867L10.6152 5.06836C10.459 4.91211 10.293 4.83398 10.0781 4.83398C9.66797 4.83398 9.375 5.14648 9.375 5.56641Z" fill="white" fill-opacity="0.85"/>
 </g>
</svg>
