<svg version="1.1" xmlns="http://www.w3.org/2000/svg" xmlns:xlink="http://www.w3.org/1999/xlink" width="14.7852" height="14.4434" viewBox="0 0 14.7852 14.4434">
 <g>
  <rect height="14.4434" opacity="0" width="14.7852" x="0" y="0"/>
  <path d="M0 3.68164L0.00976562 13.5059C0.00976562 14.0625 0.371094 14.4434 0.957031 14.4434L10.7812 14.4434C11.3281 14.4434 11.6992 14.0332 11.6992 13.5645C11.6992 13.0957 11.2793 12.6953 10.8203 12.6953L7.42188 12.6953L2.65625 12.8516L4.47266 11.25L14.1504 1.5625C14.3262 1.38672 14.4238 1.15234 14.4238 0.947266C14.4238 0.478516 13.9941 0.0292969 13.5059 0.0292969C13.291 0.0292969 13.0762 0.117188 12.8906 0.292969L3.20312 9.99023L1.5918 11.8066L1.76758 7.24609L1.76758 3.64258C1.76758 3.17383 1.36719 2.75391 0.888672 2.75391C0.410156 2.75391 0 3.14453 0 3.68164Z" fill="var(--color-primary)"/>
 </g>
</svg>
