<?xml version="1.0" encoding="UTF-8"?>
<!--Generator: Apple Native CoreSVG 326-->
<!DOCTYPE svg
PUBLIC "-//W3C//DTD SVG 1.1//EN"
       "http://www.w3.org/Graphics/SVG/1.1/DTD/svg11.dtd">
<svg version="1.1" xmlns="http://www.w3.org/2000/svg" xmlns:xlink="http://www.w3.org/1999/xlink" viewBox="0 0 14.7852 14.4434">
 <g>
  <rect height="14.4434" opacity="0" width="14.7852" x="0" y="0"/>
  <path d="M14.4238 3.68164C14.4238 3.14453 14.0039 2.75391 13.5352 2.75391C13.0566 2.75391 12.6562 3.17383 12.6562 3.64258L12.6562 7.24609L12.832 11.8066L11.2207 9.99023L1.52344 0.292969C1.34766 0.117188 1.13281 0.0292969 0.908203 0.0292969C0.419922 0.0292969 0 0.478516 0 0.947266C0 1.15234 0.0976562 1.38672 0.273438 1.5625L9.95117 11.25L11.7676 12.8516L7.00195 12.6953L3.60352 12.6953C3.14453 12.6953 2.72461 13.0957 2.72461 13.5645C2.72461 14.0332 3.0957 14.4434 3.64258 14.4434L13.4668 14.4434C14.0527 14.4434 14.4141 14.0625 14.4141 13.5059Z" fill="white" fill-opacity="0.85"/>
 </g>
</svg>
