<?xml version="1.0" encoding="UTF-8"?>
<!--Generator: Apple Native CoreSVG 326-->
<!DOCTYPE svg
PUBLIC "-//W3C//DTD SVG 1.1//EN"
       "http://www.w3.org/Graphics/SVG/1.1/DTD/svg11.dtd">
<svg version="1.1" xmlns="http://www.w3.org/2000/svg" xmlns:xlink="http://www.w3.org/1999/xlink" viewBox="0 0 20.332 24.5996">
 <g>
  <rect height="24.5996" opacity="0" width="20.332" x="0" y="0"/>
  <path d="M19.9707 3.06641L19.9707 16.6309C19.9707 18.6621 18.9551 19.6973 16.9434 19.6973L15.2344 19.6973L15.2344 7.93945C15.2344 5.89844 14.2285 4.87305 12.207 4.87305L4.73633 4.87305L4.73633 3.06641C4.73633 1.02539 5.74219 0 7.76367 0L16.9434 0C18.9551 0 19.9707 1.02539 19.9707 3.06641ZM9.9707 1.99219C9.54102 1.99219 9.3457 2.26562 9.3457 2.56836L9.3457 2.77344C9.3457 3.06641 9.54102 3.34961 9.9707 3.34961L14.7363 3.34961C15.1562 3.34961 15.3613 3.06641 15.3613 2.77344L15.3613 2.56836C15.3613 2.26562 15.1562 1.99219 14.7363 1.99219Z" fill="white" fill-opacity="0.85"/>
  <path d="M0 21.5039C0 23.5449 1.00586 24.5703 3.02734 24.5703L12.207 24.5703C14.2285 24.5703 15.2344 23.5352 15.2344 21.5039L15.2344 7.93945C15.2344 5.89844 14.2285 4.87305 12.207 4.87305L3.02734 4.87305C1.00586 4.87305 0 5.88867 0 7.93945ZM1.57227 21.4746L1.57227 7.95898C1.57227 6.99219 2.08984 6.44531 3.0957 6.44531L12.1289 6.44531C13.1348 6.44531 13.6621 6.99219 13.6621 7.95898L13.6621 21.4746C13.6621 22.4512 13.1348 22.998 12.1289 22.998L3.0957 22.998C2.08984 22.998 1.57227 22.4512 1.57227 21.4746Z" fill="white" fill-opacity="0.85"/>
  <path d="M11.7578 14.7168C11.7578 14.5508 11.6992 14.3945 11.5332 14.209L8.94531 11.543C8.82812 11.416 8.68164 11.3281 8.49609 11.3281C8.13477 11.3281 7.86133 11.6113 7.86133 11.9629C7.86133 12.1387 7.93945 12.3242 8.07617 12.4609L9.4043 13.6914L9.78516 14.0625L8.74023 14.0234L4.15039 14.0234C3.78906 14.0234 3.47656 14.3457 3.47656 14.7168C3.47656 15.0879 3.78906 15.4199 4.15039 15.4199L8.74023 15.4199L9.78516 15.3809L9.4043 15.7422L8.07617 16.9824C7.93945 17.1094 7.86133 17.2949 7.86133 17.4609C7.86133 17.8125 8.13477 18.1055 8.49609 18.1055C8.68164 18.1055 8.82812 18.0273 8.94531 17.8906L11.5332 15.2246C11.6992 15.0488 11.7578 14.8828 11.7578 14.7168Z" fill="white" fill-opacity="0.85"/>
 </g>
</svg>
