<?xml version="1.0" encoding="UTF-8"?>
<!--Generator: Apple Native CoreSVG 326-->
<!DOCTYPE svg
PUBLIC "-//W3C//DTD SVG 1.1//EN"
       "http://www.w3.org/Graphics/SVG/1.1/DTD/svg11.dtd">
<svg version="1.1" xmlns="http://www.w3.org/2000/svg" xmlns:xlink="http://www.w3.org/1999/xlink" viewBox="0 0 18.3398 17.9785">
 <g>
  <rect height="17.9785" opacity="0" width="18.3398" x="0" y="0"/>
  <path d="M3.06641 17.9785L14.9121 17.9785C16.9629 17.9785 17.9785 16.9727 17.9785 14.9609L17.9785 3.02734C17.9785 1.01562 16.9629 0 14.9121 0L3.06641 0C1.02539 0 0 1.01562 0 3.02734L0 14.9609C0 16.9727 1.02539 17.9785 3.06641 17.9785ZM3.08594 16.4062C2.10938 16.4062 1.57227 15.8887 1.57227 14.873L1.57227 3.11523C1.57227 2.09961 2.10938 1.57227 3.08594 1.57227L14.8926 1.57227C15.8594 1.57227 16.4062 2.09961 16.4062 3.11523L16.4062 14.873C16.4062 15.8887 15.8594 16.4062 14.8926 16.4062Z" fill="white" fill-opacity="0.85"/>
  <path d="M14.043 10.1758C14.043 7.83203 12.3438 6.40625 10.0684 6.40625L7.14844 6.40625L5.99609 6.43555L6.76758 5.83008L7.77344 4.85352C7.91016 4.73633 7.99805 4.55078 7.99805 4.3457C7.99805 3.94531 7.69531 3.64258 7.29492 3.64258C7.08984 3.64258 6.93359 3.70117 6.79688 3.84766L4.19922 6.48438C4.04297 6.65039 3.94531 6.85547 3.94531 7.08008C3.94531 7.31445 4.04297 7.50977 4.19922 7.67578L6.80664 10.332C6.94336 10.4688 7.09961 10.5371 7.30469 10.5371C7.69531 10.5371 7.99805 10.2344 7.99805 9.82422C7.99805 9.64844 7.92969 9.45312 7.7832 9.32617L6.5625 8.1543L5.99609 7.72461L7.14844 7.77344L10.0684 7.77344C11.5039 7.77344 12.6074 8.59375 12.6074 10.0977C12.6074 11.6406 11.5332 12.5879 10.0586 12.5879C9.94141 12.5879 8.74023 12.5879 8.70117 12.5879C8.28125 12.5879 7.95898 12.832 7.95898 13.291C7.95898 13.7402 8.28125 13.9844 8.7207 13.9844C8.76953 13.9844 9.94141 13.9844 10.0586 13.9844C12.334 13.9844 14.043 12.5195 14.043 10.1758Z" fill="white" fill-opacity="0.85"/>
 </g>
</svg>
