<svg version="1.1" xmlns="http://www.w3.org/2000/svg" xmlns:xlink="http://www.w3.org/1999/xlink" viewBox="0 0 20.2832 19.9316">
 <g>
  <rect height="19.9316" opacity="0" width="20.2832" x="0" y="0"/>
  <path d="M9.96094 19.9219C15.459 19.9219 19.9219 15.459 19.9219 9.96094C19.9219 4.46289 15.459 0 9.96094 0C4.46289 0 0 4.46289 0 9.96094C0 15.459 4.46289 19.9219 9.96094 19.9219ZM9.96094 18.2617C5.37109 18.2617 1.66016 14.5508 1.66016 9.96094C1.66016 5.37109 5.37109 1.66016 9.96094 1.66016C14.5508 1.66016 18.2617 5.37109 18.2617 9.96094C18.2617 14.5508 14.5508 18.2617 9.96094 18.2617Z" fill="var(--color-primary)"/>
  <path d="M14.1699 9.95117C14.5508 9.95117 14.8633 9.64844 14.8633 9.26758L14.8633 5.86914C14.8633 5.2832 14.5605 5.05859 14.0527 5.05859L10.6738 5.05859C10.293 5.05859 9.98047 5.37109 9.98047 5.75195C9.98047 6.13281 10.293 6.43555 10.6738 6.43555L11.1523 6.43555L12.6465 6.33789L10.4395 8.4375C10.1562 8.71094 10.1465 9.18945 10.4297 9.47266C10.7227 9.76562 11.1816 9.77539 11.4746 9.46289L13.584 7.24609L13.4863 8.78906L13.4863 9.26758C13.4863 9.64844 13.7891 9.95117 14.1699 9.95117ZM9.23828 14.8828C9.61914 14.8828 9.92188 14.5703 9.92188 14.1895C9.92188 13.8086 9.61914 13.5059 9.23828 13.5059L8.75977 13.5059L7.26562 13.6035L9.46289 11.5039C9.74609 11.2305 9.75586 10.752 9.47266 10.4688C9.18945 10.1758 8.7207 10.166 8.4375 10.4785L6.31836 12.6953L6.42578 11.1523L6.42578 10.6738C6.42578 10.293 6.11328 9.99023 5.73242 9.99023C5.35156 9.99023 5.04883 10.293 5.04883 10.6738L5.04883 14.0723C5.04883 14.6582 5.3418 14.8828 5.84961 14.8828Z" fill="var(--color-primary)"/>
 </g>
</svg>
