<?xml version="1.0" encoding="UTF-8"?>
<!--Generator: Apple Native CoreSVG 326-->
<!DOCTYPE svg
PUBLIC "-//W3C//DTD SVG 1.1//EN"
       "http://www.w3.org/Graphics/SVG/1.1/DTD/svg11.dtd">
<svg version="1.1" xmlns="http://www.w3.org/2000/svg" xmlns:xlink="http://www.w3.org/1999/xlink" viewBox="0 0 22.2279 21.9068">
 <g>
  <rect height="21.9068" opacity="0" width="22.2279" x="0" y="0"/>
  <path d="M21.8659 12.9212L21.7975 5.88014C21.7975 5.636 21.6901 5.38209 21.5339 5.22584C21.1725 4.86451 20.6647 4.87428 20.3132 5.22584C20.1374 5.40162 20.0592 5.6067 20.0592 5.83131L20.1081 8.75123L20.2839 11.1536L18.7507 9.49342L9.5319 0.27467C9.17058-0.0866577 8.64323-0.0964233 8.29167 0.27467C7.92058 0.626233 7.93034 1.14381 8.29167 1.50514L17.5104 10.7337L19.1706 12.2571L16.778 12.0911L13.8581 12.0422C13.6237 12.0422 13.4186 12.1106 13.2428 12.2962C12.8913 12.6477 12.8815 13.1458 13.2428 13.5169C13.4089 13.6633 13.653 13.7708 13.9069 13.7708L20.9382 13.8489C21.4655 13.8684 21.8854 13.4583 21.8659 12.9212Z" fill="white" fill-opacity="0.85"/>
  <path d="M0.000654732 8.97584L0.0787797 16.0071C0.0787797 16.261 0.186202 16.5051 0.332686 16.6614C0.70378 17.0325 1.20183 17.0227 1.55339 16.6614C1.72917 16.4856 1.8073 16.2903 1.8073 16.0559L1.75847 13.1262L1.59245 10.7337L3.11589 12.4036L12.3444 21.6223C12.7057 21.9837 13.2135 21.9837 13.5749 21.6223C13.946 21.261 13.9362 20.7434 13.5749 20.3821L4.35612 11.1633L2.69597 9.6399L5.08855 9.80592L8.01823 9.85475C8.24284 9.85475 8.43815 9.77662 8.61394 9.60084C8.97526 9.24928 8.98503 8.74147 8.61394 8.38014C8.45769 8.22389 8.21355 8.11647 7.9694 8.11647L0.928389 8.04811C0.401045 8.02858-0.0188765 8.4192 0.000654732 8.97584Z" fill="white" fill-opacity="0.85"/>
 </g>
</svg>
