<?xml version="1.0" encoding="UTF-8"?>
<!--Generator: Apple Native CoreSVG 326-->
<!DOCTYPE svg
PUBLIC "-//W3C//DTD SVG 1.1//EN"
       "http://www.w3.org/Graphics/SVG/1.1/DTD/svg11.dtd">
<svg version="1.1" xmlns="http://www.w3.org/2000/svg" xmlns:xlink="http://www.w3.org/1999/xlink" viewBox="0 0 24.9121 18.5645">
 <g>
  <rect height="18.5645" opacity="0" width="24.9121" x="0" y="0"/>
  <path d="M21.4648 7.5C23.3691 8.30078 24.5508 10.0781 24.5508 12.1289C24.5508 14.8145 22.2461 16.9727 19.2969 16.9727L5.84961 16.9727C2.50977 16.9727 0 14.5605 0 11.6895C0 9.30664 1.37695 7.33398 3.58398 6.98242C3.63281 4.24805 6.25 2.42188 8.65234 3.125C9.82422 1.41602 11.709 0 14.3555 0C18.3496 0 21.4844 3.14453 21.4648 7.5ZM12.4023 4.4043L10.5371 5.99609C10.2344 6.25 10.2246 6.66016 10.5371 6.93359L12.4023 8.54492C12.7344 8.83789 13.2129 8.66211 13.2129 8.23242L13.2129 7.04102C14.4043 7.36328 15.2832 8.4375 15.2832 9.73633C15.2832 11.2988 14.043 12.5586 12.4805 12.5586C10.9277 12.5586 9.6875 11.2988 9.6875 9.73633C9.6875 9.4043 9.4043 9.12109 9.05273 9.12109C8.71094 9.12109 8.42773 9.4043 8.42773 9.73633C8.42773 11.9922 10.2344 13.8086 12.4805 13.8086C14.7363 13.8086 16.543 11.9922 16.543 9.70703C16.543 7.68555 15.0195 6.05469 13.2129 5.77148L13.2129 4.73633C13.2129 4.29688 12.7344 4.13086 12.4023 4.4043Z" fill="white" fill-opacity="0.85"/>
 </g>
</svg>
