<?xml version="1.0" encoding="UTF-8"?>
<!--Generator: Apple Native CoreSVG 326-->
<!DOCTYPE svg
PUBLIC "-//W3C//DTD SVG 1.1//EN"
       "http://www.w3.org/Graphics/SVG/1.1/DTD/svg11.dtd">
<svg version="1.1" xmlns="http://www.w3.org/2000/svg" xmlns:xlink="http://www.w3.org/1999/xlink" viewBox="0 0 19.4434 19.2676">
 <g>
  <rect height="19.2676" opacity="0" width="19.4434" x="0" y="0"/>
  <path d="M0 7.79297C0 12.0898 3.49609 15.5859 7.79297 15.5859C9.49219 15.5859 11.0449 15.0391 12.3242 14.1211L17.1289 18.9355C17.3535 19.1602 17.6465 19.2676 17.959 19.2676C18.623 19.2676 19.082 18.7695 19.082 18.1152C19.082 17.8027 18.9648 17.5195 18.7598 17.3145L13.9844 12.5098C14.9902 11.2012 15.5859 9.57031 15.5859 7.79297C15.5859 3.49609 12.0898 0 7.79297 0C3.49609 0 0 3.49609 0 7.79297ZM1.66992 7.79297C1.66992 4.41406 4.41406 1.66992 7.79297 1.66992C11.1719 1.66992 13.916 4.41406 13.916 7.79297C13.916 11.1719 11.1719 13.916 7.79297 13.916C4.41406 13.916 1.66992 11.1719 1.66992 7.79297ZM4.35547 7.39258C4.35547 7.91992 4.91211 7.98828 5.19531 7.71484L6.01562 6.9043L8.64258 9.53125L7.79297 10.3613C7.49023 10.6543 7.58789 11.2012 8.11523 11.2012L10.6445 11.2012C10.9961 11.2012 11.1914 10.9766 11.1914 10.5762L11.1914 8.17383C11.1914 7.64648 10.6348 7.57812 10.3516 7.85156L9.54102 8.65234L6.91406 6.02539L7.75391 5.20508C8.05664 4.91211 7.95898 4.36523 7.43164 4.36523L4.90234 4.36523C4.55078 4.36523 4.35547 4.58984 4.35547 4.99023Z" fill="white" fill-opacity="0.85"/>
 </g>
</svg>
