<?xml version="1.0" encoding="UTF-8"?>
<!--Generator: Apple Native CoreSVG 326-->
<!DOCTYPE svg
PUBLIC "-//W3C//DTD SVG 1.1//EN"
       "http://www.w3.org/Graphics/SVG/1.1/DTD/svg11.dtd">
<svg version="1.1" xmlns="http://www.w3.org/2000/svg" xmlns:xlink="http://www.w3.org/1999/xlink" viewBox="0 0 27.4902 20.6152">
 <g>
  <rect height="20.6152" opacity="0" width="27.4902" x="0" y="0"/>
  <path d="M10.9756 2.38022L4.67773 8.27148C4.05273 8.85742 3.76953 9.58984 3.76953 10.293C3.76953 10.9863 4.05273 11.7188 4.6875 12.3047L10.9794 18.2457C10.9206 18.8335 10.4628 19.2578 9.84375 19.2578C9.36523 19.2578 8.97461 19.0625 8.50586 18.623L0.791016 11.3477C0.439453 11.0156 0.302734 10.6348 0.302734 10.3027C0.302734 9.95117 0.439453 9.58008 0.791016 9.24805L8.50586 2.04102C9.02344 1.55273 9.3457 1.34766 9.82422 1.34766C10.4514 1.34766 10.906 1.79984 10.9756 2.38022Z" fill="white" fill-opacity="0.85"/>
  <path d="M14.6484 19.248C15.3027 19.248 15.791 18.7598 15.791 18.1055L15.791 14.375L16.0742 14.375C19.8535 14.375 22.2461 15.332 23.9453 18.5254C24.2871 19.1504 24.7363 19.248 25.1465 19.248C25.6738 19.248 26.1523 18.7793 26.1523 17.9395C26.1523 10.7227 23.0957 6.2207 16.0742 6.2207L15.791 6.2207L15.791 2.5293C15.791 1.875 15.3027 1.33789 14.6289 1.33789C14.1406 1.33789 13.8184 1.54297 13.3008 2.03125L5.5957 9.23828C5.24414 9.57031 5.09766 9.94141 5.09766 10.293C5.09766 10.625 5.24414 11.0059 5.5957 11.3379L13.3008 18.6133C13.7695 19.0527 14.1602 19.248 14.6484 19.248Z" fill="white" fill-opacity="0.85"/>
 </g>
</svg>
