<?xml version="1.0" encoding="UTF-8"?>
<!--Generator: Apple Native CoreSVG 326-->
<!DOCTYPE svg
PUBLIC "-//W3C//DTD SVG 1.1//EN"
       "http://www.w3.org/Graphics/SVG/1.1/DTD/svg11.dtd">
<svg version="1.1" xmlns="http://www.w3.org/2000/svg" xmlns:xlink="http://www.w3.org/1999/xlink" viewBox="0 0 18.3398 17.9785">
 <g>
  <rect height="17.9785" opacity="0" width="18.3398" x="0" y="0"/>
  <path d="M17.9785 3.02734L17.9785 14.9609C17.9785 16.9727 16.9629 17.9785 14.9121 17.9785L3.06641 17.9785C1.02539 17.9785 0 16.9727 0 14.9609L0 3.02734C0 1.01562 1.02539 0 3.06641 0L14.9121 0C16.9629 0 17.9785 1.01562 17.9785 3.02734ZM8.18359 3.86719C8.18359 4.04297 8.26172 4.21875 8.36914 4.32617L9.07227 5.04883C8.99414 5.04883 8.88672 5.0293 8.79883 5.0293C6.5332 5.0293 4.50195 6.97266 4.50195 9.44336C4.50195 11.9629 6.50391 13.9844 8.99414 13.9844C11.4844 13.9844 13.4863 11.9629 13.4863 9.48242C13.4863 9.10156 13.1641 8.78906 12.793 8.78906C12.4121 8.78906 12.0898 9.10156 12.0898 9.48242C12.0898 11.2012 10.7129 12.5879 8.99414 12.5879C7.27539 12.5879 5.89844 11.2109 5.89844 9.48242C5.89844 7.76367 7.27539 6.37695 8.99414 6.37695C9.12109 6.37695 9.25781 6.38672 9.35547 6.40625L8.37891 7.36328C8.26172 7.49023 8.18359 7.64648 8.18359 7.83203C8.18359 8.19336 8.4668 8.4668 8.82812 8.4668C8.99414 8.4668 9.16016 8.37891 9.26758 8.28125L11.2207 6.32812C11.4746 6.08398 11.4551 5.63477 11.2207 5.39062L9.28711 3.42773C9.17969 3.30078 9.00391 3.22266 8.82812 3.22266C8.4668 3.22266 8.18359 3.50586 8.18359 3.86719Z" fill="white" fill-opacity="0.85"/>
 </g>
</svg>
