<?xml version="1.0" encoding="UTF-8"?>
<!--Generator: Apple Native CoreSVG 326-->
<!DOCTYPE svg
PUBLIC "-//W3C//DTD SVG 1.1//EN"
       "http://www.w3.org/Graphics/SVG/1.1/DTD/svg11.dtd">
<svg version="1.1" xmlns="http://www.w3.org/2000/svg" xmlns:xlink="http://www.w3.org/1999/xlink" viewBox="0 0 18.3691 18.0176">
 <g>
  <rect height="18.0176" opacity="0" width="18.3691" x="0" y="0"/>
  <path d="M16.8652 1.15234C15.8691 0.15625 14.4629 0 12.793 0L5.18555 0C3.54492 0 2.13867 0.15625 1.14258 1.15234C0.146484 2.14844 0 3.54492 0 5.18555L0 12.793C0 14.4629 0.146484 15.8594 1.14258 16.8555C2.13867 17.8516 3.54492 18.0078 5.20508 18.0078L12.793 18.0078C14.4629 18.0078 15.8691 17.8516 16.8652 16.8555C17.8613 15.8594 18.0078 14.4629 18.0078 12.793L18.0078 5.20508C18.0078 3.53516 17.8613 2.14844 16.8652 1.15234ZM16.4355 4.94141L16.4355 13.0664C16.4355 14.0723 16.3086 15.1172 15.7129 15.7031C15.127 16.2988 14.0723 16.4355 13.0664 16.4355L4.94141 16.4355C3.93555 16.4355 2.88086 16.2988 2.28516 15.7031C1.69922 15.1172 1.57227 14.0723 1.57227 13.0664L1.57227 4.9707C1.57227 3.93555 1.69922 2.89062 2.28516 2.29492C2.88086 1.70898 3.94531 1.57227 4.9707 1.57227L13.0664 1.57227C14.0723 1.57227 15.127 1.70898 15.7129 2.30469C16.3086 2.89062 16.4355 3.93555 16.4355 4.94141Z" fill="white" fill-opacity="0.85"/>
  <path d="M9.01367 13.9258C9.21875 13.9258 9.38477 13.8672 9.58008 13.6719L12.8027 10.5664C12.9492 10.4199 13.0273 10.2637 13.0273 10.0488C13.0273 9.64844 12.7246 9.36523 12.3242 9.36523C12.1289 9.36523 11.9336 9.44336 11.7871 9.59961L10.3027 11.1816L9.73633 11.7871L9.79492 10.3223L9.79492 4.83398C9.79492 4.42383 9.43359 4.08203 9.01367 4.08203C8.59375 4.08203 8.24219 4.42383 8.24219 4.83398L8.24219 10.3223L8.30078 11.7871L7.73438 11.1816L6.24023 9.59961C6.10352 9.44336 5.88867 9.36523 5.70312 9.36523C5.29297 9.36523 5 9.64844 5 10.0488C5 10.2637 5.08789 10.4199 5.23438 10.5664L8.45703 13.6719C8.65234 13.8672 8.81836 13.9258 9.01367 13.9258Z" fill="white" fill-opacity="0.85"/>
 </g>
</svg>
