<?xml version="1.0" encoding="UTF-8"?>
<!--Generator: Apple Native CoreSVG 326-->
<!DOCTYPE svg
PUBLIC "-//W3C//DTD SVG 1.1//EN"
       "http://www.w3.org/Graphics/SVG/1.1/DTD/svg11.dtd">
<svg version="1.1" xmlns="http://www.w3.org/2000/svg" xmlns:xlink="http://www.w3.org/1999/xlink" viewBox="0 0 24.1921 19.9316">
 <g>
  <rect height="19.9316" opacity="0" width="24.1921" x="0" y="0"/>
  <path d="M11.9154 0C6.97397 0 2.86265 3.61328 2.10093 8.33984L0.694677 8.33984C-0.00844799 8.33984-0.184229 8.80859 0.19663 9.35547L2.38413 12.4609C2.7064 12.9199 3.17515 12.9102 3.48765 12.4609L5.67515 9.3457C6.04624 8.80859 5.87046 8.33984 5.1771 8.33984L3.80015 8.33984C4.53257 4.53125 7.88218 1.66016 11.9154 1.66016C14.3568 1.66016 16.5541 2.70508 18.0775 4.39453C18.4876 4.83398 18.9076 4.81445 19.2201 4.58008C19.5912 4.32617 19.7279 3.75 19.3275 3.31055C17.5013 1.26953 14.8451 0 11.9154 0ZM11.9154 19.9219C16.8568 19.9219 20.9681 16.3086 21.7298 11.582L23.1361 11.582C23.8294 11.582 24.015 11.1035 23.6341 10.5664L21.4466 7.45117C21.1244 7.00195 20.6556 7.01172 20.3431 7.45117L18.1556 10.5762C17.7845 11.1035 17.9603 11.582 18.6537 11.582L20.0306 11.582C19.2982 15.3906 15.9486 18.2617 11.9154 18.2617C9.47397 18.2617 7.27671 17.207 5.75327 15.5176C5.34311 15.0879 4.92319 15.1074 4.61069 15.332C4.2396 15.5957 4.10288 16.1621 4.50327 16.6113C6.32944 18.6523 8.98569 19.9219 11.9154 19.9219Z" fill="white" fill-opacity="0.85"/>
 </g>
</svg>
