<?xml version="1.0" encoding="UTF-8"?>
<!--Generator: Apple Native CoreSVG 326-->
<!DOCTYPE svg
PUBLIC "-//W3C//DTD SVG 1.1//EN"
       "http://www.w3.org/Graphics/SVG/1.1/DTD/svg11.dtd">
<svg version="1.1" xmlns="http://www.w3.org/2000/svg" xmlns:xlink="http://www.w3.org/1999/xlink" viewBox="0 0 20.2832 19.9316">
 <g>
  <rect height="19.9316" opacity="0" width="20.2832" x="0" y="0"/>
  <path d="M19.9219 9.96094C19.9219 15.4492 15.459 19.9219 9.96094 19.9219C4.47266 19.9219 0 15.4492 0 9.96094C0 4.46289 4.47266 0 9.96094 0C15.459 0 19.9219 4.46289 19.9219 9.96094ZM8.35938 6.04492L5.15625 9.36523C4.95117 9.57031 4.88281 9.73633 4.88281 9.95117C4.88281 10.1562 4.95117 10.332 5.15625 10.5371L8.35938 13.8574C8.50586 14.0137 8.67188 14.0918 8.88672 14.0918C9.29688 14.0918 9.59961 13.7891 9.59961 13.3691C9.59961 13.1738 9.52148 12.9492 9.35547 12.8125L7.72461 11.2793L7.09961 10.6934L8.61328 10.752L14.2578 10.752C14.6875 10.752 15.0488 10.3906 15.0488 9.95117C15.0488 9.51172 14.6875 9.14062 14.2578 9.14062L8.61328 9.14062L7.10938 9.20898L7.72461 8.62305L9.35547 7.08984C9.52148 6.95312 9.59961 6.73828 9.59961 6.54297C9.59961 6.12305 9.29688 5.81055 8.88672 5.81055C8.67188 5.81055 8.50586 5.88867 8.35938 6.04492Z" fill="white" fill-opacity="0.85"/>
 </g>
</svg>
