<svg version="1.1" xmlns="http://www.w3.org/2000/svg" xmlns:xlink="http://www.w3.org/1999/xlink" width="20.332" height="24.5996" viewBox="0 0 20.332 24.5996">
 <g>
  <rect height="24.5996" opacity="0" width="20.332" x="0" y="0"/>
  <path d="M19.9707 3.06641L19.9707 16.6309C19.9707 18.6719 18.9551 19.6973 16.9434 19.6973L15.2344 19.6973L15.2344 7.93945C15.2344 5.89844 14.2285 4.87305 12.207 4.87305L4.73633 4.87305L4.73633 3.06641C4.73633 1.02539 5.74219 0 7.76367 0L16.9434 0C18.9551 0 19.9707 1.03516 19.9707 3.06641ZM9.9707 1.99219C9.54102 1.99219 9.3457 2.26562 9.3457 2.56836L9.3457 2.77344C9.3457 3.06641 9.54102 3.34961 9.9707 3.34961L14.7363 3.34961C15.1562 3.34961 15.3613 3.06641 15.3613 2.77344L15.3613 2.56836C15.3613 2.26562 15.1562 1.99219 14.7363 1.99219Z" fill="var(--color-secondary)"/>
  <path d="M0 21.5039C0 23.5449 1.00586 24.5703 3.02734 24.5703L12.207 24.5703C14.2285 24.5703 15.2344 23.5352 15.2344 21.5039L15.2344 7.93945C15.2344 5.89844 14.2285 4.87305 12.207 4.87305L3.02734 4.87305C1.00586 4.87305 0 5.88867 0 7.93945ZM1.57227 21.4746L1.57227 7.95898C1.57227 6.99219 2.08984 6.44531 3.0957 6.44531L12.1289 6.44531C13.1348 6.44531 13.6621 6.99219 13.6621 7.95898L13.6621 21.4746C13.6621 22.4512 13.1348 22.998 12.1289 22.998L3.0957 22.998C2.08984 22.998 1.57227 22.4512 1.57227 21.4746Z" fill="var(--color-primary)"/>
  <path d="M7.64648 18.9746C8.61328 18.9746 9.57031 18.6426 10.2441 18.0762C10.5957 17.793 10.6738 17.4121 10.4199 17.1387C10.166 16.8555 9.82422 16.9043 9.53125 17.1191C8.96484 17.5684 8.39844 17.8027 7.64648 17.8027C6.11328 17.8027 4.84375 16.7676 4.50195 15.3906L5.3125 15.3906C5.6543 15.3906 5.73242 15.0586 5.54688 14.7949L4.31641 13.0664C4.11133 12.7832 3.75977 12.7637 3.54492 13.0664L2.33398 14.7949C2.13867 15.0586 2.2168 15.3906 2.55859 15.3906L3.37891 15.3906C3.75 17.5195 5.46875 18.9746 7.64648 18.9746ZM7.63672 10.4199C6.67969 10.4199 5.71289 10.7617 5.03906 11.3184C4.6875 11.6016 4.60938 11.9922 4.86328 12.2656C5.11719 12.5391 5.45898 12.5 5.75195 12.2754C6.31836 11.8262 6.88477 11.5918 7.63672 11.5918C9.16992 11.5918 10.4492 12.627 10.7812 14.0137L9.93164 14.0137C9.58008 14.0137 9.50195 14.3457 9.69727 14.6094L10.9277 16.3281C11.1328 16.6113 11.4746 16.6309 11.6895 16.3281L12.9102 14.6094C13.1055 14.3359 13.0273 14.0137 12.6758 14.0137L11.9043 14.0137C11.5332 11.8848 9.81445 10.4199 7.63672 10.4199Z" fill="var(--color-primary)"/>
 </g>
</svg>
