<svg version="1.1" xmlns="http://www.w3.org/2000/svg" xmlns:xlink="http://www.w3.org/1999/xlink" viewBox="0 0 18.3398 17.9785">
 <g>
  <rect height="17.9785" opacity="0" width="18.3398" x="0" y="0"/>
  <path d="M17.9785 3.02734L17.9785 14.9609C17.9785 16.9727 16.9629 17.9785 14.9121 17.9785L3.06641 17.9785C1.02539 17.9785 0 16.9727 0 14.9609L0 3.02734C0 1.01562 1.02539 0 3.06641 0L14.9121 0C16.9629 0 17.9785 1.01562 17.9785 3.02734ZM5.09766 5.84961C5.09766 6.04492 5.18555 6.25 5.33203 6.39648L9.0332 10.0781L10.6055 11.5527L9.11133 11.3965L7.29492 11.3965C6.80664 11.3965 6.49414 11.6895 6.49414 12.1289C6.49414 12.5781 6.79688 12.8711 7.27539 12.8711L12.041 12.8711C12.5586 12.8711 12.8906 12.6367 12.8906 12.041L12.8906 7.29492C12.8906 6.81641 12.5879 6.48438 12.1484 6.48438C11.6992 6.48438 11.4062 6.78711 11.4062 7.27539L11.4062 9.00391L11.5527 10.5762L10.0977 9.02344L6.41602 5.33203C6.26953 5.18555 6.07422 5.09766 5.83008 5.09766C5.39062 5.09766 5.09766 5.39062 5.09766 5.84961Z" fill="var(--color-primary)"/>
 </g>
</svg>
