<svg version="1.1" xmlns="http://www.w3.org/2000/svg" xmlns:xlink="http://www.w3.org/1999/xlink" viewBox="0 0 35.4688 22.9199">
 <g>
  <rect height="22.9199" opacity="0" width="35.4688" x="0" y="0"/>
  <path d="M10.7031 14.1113L10.7031 21.0059C10.7031 22.0801 9.87305 22.9102 8.80859 22.9102L1.875 22.9102C0.810547 22.9102 0 22.0801 0 21.0059L0 14.1113C0 13.0371 0.810547 12.1973 1.875 12.1973L8.80859 12.1973C9.87305 12.1973 10.7031 13.0371 10.7031 14.1113ZM22.9102 14.1113L22.9102 21.0059C22.9102 22.0801 22.0801 22.9102 21.0156 22.9102L14.082 22.9102C13.0176 22.9102 12.207 22.0801 12.207 21.0059L12.207 14.1113C12.207 13.0371 13.0176 12.1973 14.082 12.1973L21.0156 12.1973C22.0801 12.1973 22.9102 13.0371 22.9102 14.1113ZM35.1074 14.1113L35.1074 21.0059C35.1074 22.0801 34.2969 22.9102 33.2324 22.9102L26.2988 22.9102C25.2344 22.9102 24.4043 22.0801 24.4043 21.0059L24.4043 14.1113C24.4043 13.0371 25.2344 12.1973 26.2988 12.1973L33.2324 12.1973C34.2969 12.1973 35.1074 13.0371 35.1074 14.1113ZM6.51367 14.8438L2.76367 17.0605C2.38281 17.2754 2.39258 17.8516 2.77344 18.0664L6.51367 20.2637C6.91406 20.498 7.41211 20.2344 7.41211 19.8145L7.41211 15.2832C7.41211 14.873 6.91406 14.6094 6.51367 14.8438ZM27.6953 15.2832L27.6953 19.8145C27.6953 20.2344 28.1934 20.498 28.6035 20.2637L32.3438 18.0664C32.7148 17.8516 32.7246 17.2754 32.3535 17.0605L28.6035 14.8438C28.1934 14.6094 27.6953 14.873 27.6953 15.2832ZM15.3027 15.1074C14.873 15.1074 14.6191 15.5957 14.8535 16.0059L17.041 19.7461C17.2559 20.1172 17.832 20.127 18.0469 19.7559L20.2637 16.0059C20.498 15.6055 20.2344 15.1074 19.8242 15.1074ZM22.9102 1.9043L22.9102 8.80859C22.9102 9.88281 22.0801 10.7031 21.0156 10.7031L14.082 10.7031C13.0176 10.7031 12.207 9.88281 12.207 8.80859L12.207 1.9043C12.207 0.830078 13.0176 0 14.082 0L21.0156 0C22.0801 0 22.9102 0.830078 22.9102 1.9043ZM17.041 3.16406L14.8535 6.9043C14.6094 7.30469 14.873 7.80273 15.293 7.80273L19.8242 7.80273C20.2344 7.80273 20.498 7.30469 20.2637 6.9043L18.0469 3.1543C17.832 2.7832 17.2559 2.79297 17.041 3.16406Z" fill="var(--color-primary)"/>
 </g>
</svg>
