<?xml version="1.0" encoding="UTF-8"?>
<!--Generator: Apple Native CoreSVG 326-->
<!DOCTYPE svg
PUBLIC "-//W3C//DTD SVG 1.1//EN"
       "http://www.w3.org/Graphics/SVG/1.1/DTD/svg11.dtd">
<svg version="1.1" xmlns="http://www.w3.org/2000/svg" xmlns:xlink="http://www.w3.org/1999/xlink" viewBox="0 0 20.2832 19.9316">
 <g>
  <rect height="19.9316" opacity="0" width="20.2832" x="0" y="0"/>
  <path d="M9.96094 19.9219C15.459 19.9219 19.9219 15.459 19.9219 9.96094C19.9219 4.46289 15.459 0 9.96094 0C4.46289 0 0 4.46289 0 9.96094C0 15.459 4.46289 19.9219 9.96094 19.9219ZM9.96094 18.2617C5.37109 18.2617 1.66016 14.5508 1.66016 9.96094C1.66016 5.37109 5.37109 1.66016 9.96094 1.66016C14.5508 1.66016 18.2617 5.37109 18.2617 9.96094C18.2617 14.5508 14.5508 18.2617 9.96094 18.2617Z" fill="white" fill-opacity="0.85"/>
  <path d="M3.98438 9.96094C3.98438 10.127 4.05273 10.332 4.25781 10.5273L8.45703 14.4922C8.71094 14.7168 8.91602 14.8242 9.17969 14.8242C9.53125 14.8242 9.79492 14.5703 9.79492 14.209L9.79492 12.0508L14.2188 12.0508C14.9902 12.0508 15.4395 11.6211 15.4395 10.8691L15.4395 9.0625C15.4395 8.30078 14.9902 7.87109 14.2188 7.87109L9.79492 7.87109L9.79492 5.73242C9.79492 5.38086 9.53125 5.09766 9.16016 5.09766C8.90625 5.09766 8.74023 5.20508 8.45703 5.46875L4.25781 9.38477C4.05273 9.58008 3.98438 9.78516 3.98438 9.96094Z" fill="white" fill-opacity="0.85"/>
 </g>
</svg>
