<svg version="1.1" xmlns="http://www.w3.org/2000/svg" xmlns:xlink="http://www.w3.org/1999/xlink" viewBox="0 0 23.3887 17.9785">
 <g>
  <rect height="17.9785" opacity="0" width="23.3887" x="0" y="0"/>
  <path d="M23.0273 3.02734L23.0273 14.9609C23.0273 16.9727 22.0117 17.9785 19.9609 17.9785L3.06641 17.9785C1.02539 17.9785 0 16.9727 0 14.9609L0 3.02734C0 1.01562 1.02539 0 3.06641 0L19.9609 0C22.0117 0 23.0273 1.01562 23.0273 3.02734ZM9.72656 9.49219L7.65625 11.5527L6.40625 12.8809L6.54297 11.5723L6.54297 10.3516C6.54297 9.90234 6.25 9.59961 5.82031 9.59961C5.39062 9.59961 5.10742 9.92188 5.10742 10.3711L5.10742 14.3457C5.10742 14.9023 5.42969 15.1367 5.9082 15.1367L9.91211 15.1367C10.3516 15.1367 10.6543 14.8535 10.6543 14.4238C10.6543 13.9941 10.3516 13.7012 9.89258 13.7012L8.58398 13.7012L7.34375 13.8379L8.69141 12.5977L10.7617 10.5176C10.8887 10.3809 10.9961 10.1953 10.9961 10C10.9961 9.55078 10.7031 9.26758 10.2734 9.26758C10.0391 9.26758 9.87305 9.35547 9.72656 9.49219ZM13.125 2.8418C12.6855 2.8418 12.373 3.13477 12.373 3.56445C12.373 3.99414 12.6855 4.27734 13.1445 4.27734L14.4434 4.27734L15.6934 4.15039L14.3359 5.39062L12.2656 7.4707C12.1387 7.60742 12.0312 7.79297 12.0312 7.98828C12.0312 8.42773 12.334 8.7207 12.7539 8.7207C12.9883 8.7207 13.1543 8.63281 13.3105 8.49609L15.3711 6.42578L16.6211 5.10742L16.4941 6.41602L16.4941 7.62695C16.4941 8.07617 16.7773 8.38867 17.207 8.38867C17.6367 8.38867 17.9297 8.05664 17.9297 7.60742L17.9297 3.64258C17.9297 3.08594 17.5977 2.8418 17.1191 2.8418Z" fill="var(--color-primary)"/>
 </g>
</svg>
