<?xml version="1.0" encoding="UTF-8"?>
<!--Generator: Apple Native CoreSVG 326-->
<!DOCTYPE svg
PUBLIC "-//W3C//DTD SVG 1.1//EN"
       "http://www.w3.org/Graphics/SVG/1.1/DTD/svg11.dtd">
<svg version="1.1" xmlns="http://www.w3.org/2000/svg" xmlns:xlink="http://www.w3.org/1999/xlink" viewBox="0 0 18.3398 17.9785">
 <g>
  <rect height="17.9785" opacity="0" width="18.3398" x="0" y="0"/>
  <path d="M3.06641 17.9785L14.9121 17.9785C16.9629 17.9785 17.9785 16.9727 17.9785 14.9609L17.9785 3.02734C17.9785 1.01562 16.9629 0 14.9121 0L3.06641 0C1.02539 0 0 1.01562 0 3.02734L0 14.9609C0 16.9727 1.02539 17.9785 3.06641 17.9785ZM3.08594 16.4062C2.10938 16.4062 1.57227 15.8887 1.57227 14.873L1.57227 3.11523C1.57227 2.09961 2.10938 1.57227 3.08594 1.57227L14.8926 1.57227C15.8594 1.57227 16.4062 2.09961 16.4062 3.11523L16.4062 14.873C16.4062 15.8887 15.8594 16.4062 14.8926 16.4062Z" fill="white" fill-opacity="0.85"/>
  <path d="M4.47266 13.3008C4.84375 13.3008 5.11719 13.0371 5.11719 12.6562L5.11719 5.32227C5.11719 4.94141 4.84375 4.66797 4.47266 4.66797C4.08203 4.66797 3.80859 4.94141 3.80859 5.32227L3.80859 12.6562C3.80859 13.0371 4.08203 13.3008 4.47266 13.3008ZM14.7168 8.99414C14.7168 8.62305 14.4336 8.34961 14.0625 8.34961L9.58008 8.34961L7.79297 8.44727L9.77539 6.68945L10.3906 6.09375C10.5273 5.95703 10.5859 5.79102 10.5859 5.61523C10.5859 5.24414 10.293 4.99023 9.94141 4.99023C9.76562 4.99023 9.59961 5.03906 9.45312 5.18555L6.08398 8.50586C5.94727 8.64258 5.86914 8.81836 5.86914 8.99414C5.86914 9.17969 5.9375 9.3457 6.08398 9.48242L9.44336 12.7734C9.58008 12.9004 9.78516 12.9883 9.94141 12.9883C10.3125 12.9883 10.5859 12.7246 10.5859 12.3535C10.5859 12.1582 10.5273 12.002 10.3906 11.8848L9.76562 11.3086L7.7832 9.54102L9.58008 9.6582L14.0625 9.6582C14.4336 9.6582 14.7168 9.38477 14.7168 8.99414Z" fill="white" fill-opacity="0.85"/>
 </g>
</svg>
