<svg version="1.1" xmlns="http://www.w3.org/2000/svg" xmlns:xlink="http://www.w3.org/1999/xlink" width="22.3047" height="17.9199" viewBox="0 0 22.3047 17.9199">
 <g>
  <rect height="17.9199" opacity="0" width="22.3047" x="0" y="0"/>
  <path d="M9.54102 17.9102C10.2051 17.9102 10.6836 17.4219 10.6836 16.7676L10.6836 13.0371L10.9668 13.0371C14.7559 13.0371 17.1387 13.9941 18.8477 17.1875C19.1895 17.8125 19.6387 17.9102 20.0488 17.9102C20.5664 17.9102 21.0547 17.4414 21.0547 16.6016C21.0547 9.38477 17.998 4.88281 10.9668 4.88281L10.6836 4.88281L10.6836 1.19141C10.6836 0.537109 10.2051 0 9.52148 0C9.04297 0 8.7207 0.205078 8.20312 0.693359L0.498047 7.90039C0.117188 8.26172 0 8.62305 0 8.95508C0 9.27734 0.126953 9.64844 0.498047 10L8.20312 17.2754C8.67188 17.7148 9.0625 17.9102 9.54102 17.9102Z" fill="var(--color-primary)"/>
 </g>
</svg>
