<svg version="1.1" xmlns="http://www.w3.org/2000/svg" xmlns:xlink="http://www.w3.org/1999/xlink" viewBox="0 0 18.584 18.5645">
 <g>
  <rect height="18.5645" opacity="0" width="18.584" x="0" y="0"/>
  <path d="M11.9922 0C8.26172 0 5.68359 2.5293 5.68359 6.99219L5.68359 13.5938L5.82031 16.6211L6.26953 16.4453L4.20898 14.0332L1.45508 11.2207C1.30859 11.0645 1.11328 10.9766 0.859375 10.9766C0.351562 10.9766 0 11.3281 0 11.8457C0 12.0605 0.107422 12.3145 0.273438 12.4805L5.9082 18.2227C6.09375 18.418 6.31836 18.5059 6.5625 18.5059C6.79688 18.5059 7.02148 18.418 7.20703 18.2227L12.8418 12.4805C13.0176 12.3145 13.1152 12.0605 13.1152 11.8457C13.1152 11.3281 12.7637 10.9766 12.2559 10.9766C12.002 10.9766 11.8164 11.0645 11.6602 11.2207L8.91602 14.0332L6.8457 16.4453L7.29492 16.6211L7.43164 13.5938L7.43164 6.83594C7.43164 3.50586 9.26758 1.74805 11.8945 1.74805C14.5312 1.74805 16.4844 3.50586 16.4844 6.83594L16.4844 9.08203C16.4844 9.61914 16.875 9.9707 17.3535 9.9707C17.832 9.9707 18.2227 9.61914 18.2227 9.08203L18.2227 6.83594C18.2227 2.46094 15.7324 0 11.9922 0Z" fill="var(--color-primary)"/>
 </g>
</svg>
