<?xml version="1.0" encoding="UTF-8"?>
<!--Generator: Apple Native CoreSVG 326-->
<!DOCTYPE svg
PUBLIC "-//W3C//DTD SVG 1.1//EN"
       "http://www.w3.org/Graphics/SVG/1.1/DTD/svg11.dtd">
<svg version="1.1" xmlns="http://www.w3.org/2000/svg" xmlns:xlink="http://www.w3.org/1999/xlink" viewBox="0 0 11.5137 22.8809">
 <g>
  <rect height="22.8809" opacity="0" width="11.5137" x="0" y="0"/>
  <path d="M2.54883 22.8809L8.60352 22.8809C10.166 22.8809 11.1523 21.9238 11.1523 20.4492L11.1523 2.42188C11.1523 0.947266 10.166 0 8.60352 0L2.54883 0C0.986328 0 0 0.947266 0 2.42188L0 20.4492C0 21.9238 0.986328 22.8809 2.54883 22.8809ZM2.71484 21.4551C1.93359 21.4551 1.44531 20.9863 1.44531 20.2441L1.44531 2.63672C1.44531 1.89453 1.93359 1.42578 2.71484 1.42578L8.4375 1.42578C9.21875 1.42578 9.70703 1.89453 9.70703 2.63672L9.70703 20.2441C9.70703 20.9863 9.21875 21.4551 8.4375 21.4551ZM6.17188 3.75L8.25195 3.75C8.59375 3.75 8.86719 3.48633 8.86719 3.14453C8.86719 2.79297 8.59375 2.5293 8.25195 2.5293L6.17188 2.5293C5.83008 2.5293 5.55664 2.79297 5.55664 3.14453C5.55664 3.48633 5.83008 3.75 6.17188 3.75ZM3.19336 7.38281C3.7207 7.38281 4.14062 6.97266 4.14062 6.43555C4.14062 5.91797 3.7207 5.48828 3.19336 5.48828C2.66602 5.48828 2.24609 5.91797 2.24609 6.43555C2.24609 6.97266 2.66602 7.38281 3.19336 7.38281ZM5.57617 7.38281C6.10352 7.38281 6.52344 6.97266 6.52344 6.43555C6.52344 5.91797 6.10352 5.48828 5.57617 5.48828C5.04883 5.48828 4.62891 5.91797 4.62891 6.43555C4.62891 6.97266 5.04883 7.38281 5.57617 7.38281ZM7.96875 7.38281C8.49609 7.38281 8.91602 6.97266 8.91602 6.43555C8.91602 5.91797 8.49609 5.48828 7.96875 5.48828C7.44141 5.48828 7.02148 5.91797 7.02148 6.43555C7.02148 6.97266 7.44141 7.38281 7.96875 7.38281ZM3.19336 10.1172C3.7207 10.1172 4.14062 9.69727 4.14062 9.16992C4.14062 8.65234 3.7207 8.22266 3.19336 8.22266C2.66602 8.22266 2.24609 8.65234 2.24609 9.16992C2.24609 9.69727 2.66602 10.1172 3.19336 10.1172ZM5.57617 10.1172C6.10352 10.1172 6.52344 9.69727 6.52344 9.16992C6.52344 8.65234 6.10352 8.22266 5.57617 8.22266C5.04883 8.22266 4.62891 8.65234 4.62891 9.16992C4.62891 9.69727 5.04883 10.1172 5.57617 10.1172ZM7.96875 10.1172C8.49609 10.1172 8.91602 9.69727 8.91602 9.16992C8.91602 8.65234 8.49609 8.22266 7.96875 8.22266C7.44141 8.22266 7.02148 8.65234 7.02148 9.16992C7.02148 9.69727 7.44141 10.1172 7.96875 10.1172ZM3.19336 12.8418C3.7207 12.8418 4.14062 12.4316 4.14062 11.8945C4.14062 11.377 3.7207 10.9473 3.19336 10.9473C2.66602 10.9473 2.24609 11.377 2.24609 11.8945C2.24609 12.4316 2.66602 12.8418 3.19336 12.8418ZM5.57617 12.8418C6.10352 12.8418 6.52344 12.4121 6.52344 11.8945C6.52344 11.3672 6.10352 10.9473 5.57617 10.9473C5.04883 10.9473 4.62891 11.3672 4.62891 11.8945C4.62891 12.4121 5.04883 12.8418 5.57617 12.8418ZM7.96875 12.8418C8.49609 12.8418 8.91602 12.4121 8.91602 11.8945C8.91602 11.3672 8.49609 10.9473 7.96875 10.9473C7.44141 10.9473 7.02148 11.3672 7.02148 11.8945C7.02148 12.4121 7.44141 12.8418 7.96875 12.8418ZM2.97852 19.3262C3.38867 19.3262 3.71094 18.9941 3.71094 18.5938L3.71094 15.1367C3.71094 14.7266 3.38867 14.4043 2.97852 14.4043C2.57812 14.4043 2.24609 14.7266 2.24609 15.1367L2.24609 18.5938C2.24609 18.9941 2.57812 19.3262 2.97852 19.3262ZM5.09766 16.4941L6.04492 16.4941C6.37695 16.4941 6.5625 16.2988 6.5625 15.9863L6.5625 15.3516C6.5625 15.0293 6.37695 14.834 6.04492 14.834L5.09766 14.834C4.78516 14.834 4.58984 15.0293 4.58984 15.3516L4.58984 15.9863C4.58984 16.2988 4.78516 16.4941 5.09766 16.4941ZM5.09766 18.8867L6.04492 18.8867C6.37695 18.8867 6.5625 18.7012 6.5625 18.3789L6.5625 17.7441C6.5625 17.4219 6.37695 17.2363 6.04492 17.2363L5.09766 17.2363C4.78516 17.2363 4.58984 17.4219 4.58984 17.7441L4.58984 18.3789C4.58984 18.7012 4.78516 18.8867 5.09766 18.8867ZM8.18359 19.3262C8.58398 19.3262 8.91602 18.9941 8.91602 18.5938L8.91602 15.1367C8.91602 14.7266 8.58398 14.4043 8.18359 14.4043C7.77344 14.4043 7.45117 14.7266 7.45117 15.1367L7.45117 18.5938C7.45117 18.9941 7.77344 19.3262 8.18359 19.3262Z" fill="white" fill-opacity="0.85"/>
 </g>
</svg>
