<svg version="1.1" xmlns="http://www.w3.org/2000/svg" xmlns:xlink="http://www.w3.org/1999/xlink" viewBox="0 0 11.5137 22.8809">
 <g>
  <rect height="22.8809" opacity="0" width="11.5137" x="0" y="0"/>
  <path d="M2.54883 22.8809L8.60352 22.8809C10.166 22.8809 11.1523 21.9238 11.1523 20.4492L11.1523 2.42188C11.1523 0.947266 10.166 0 8.60352 0L2.54883 0C0.986328 0 0 0.947266 0 2.42188L0 20.4492C0 21.9238 0.986328 22.8809 2.54883 22.8809ZM6.19141 3.52539C5.83984 3.52539 5.55664 3.25195 5.55664 2.90039C5.55664 2.54883 5.83984 2.26562 6.19141 2.26562L8.33984 2.26562C8.69141 2.26562 8.96484 2.54883 8.96484 2.90039C8.96484 3.25195 8.69141 3.52539 8.33984 3.52539ZM3.11523 7.27539C2.57812 7.27539 2.13867 6.8457 2.13867 6.28906C2.13867 5.76172 2.57812 5.3125 3.11523 5.3125C3.66211 5.3125 4.10156 5.76172 4.10156 6.28906C4.10156 6.8457 3.66211 7.27539 3.11523 7.27539ZM5.57617 7.27539C5.0293 7.27539 4.59961 6.8457 4.59961 6.28906C4.59961 5.76172 5.0293 5.3125 5.57617 5.3125C6.12305 5.3125 6.55273 5.76172 6.55273 6.28906C6.55273 6.8457 6.12305 7.27539 5.57617 7.27539ZM8.04688 7.27539C7.5 7.27539 7.07031 6.8457 7.07031 6.28906C7.07031 5.76172 7.5 5.3125 8.04688 5.3125C8.58398 5.3125 9.02344 5.76172 9.02344 6.28906C9.02344 6.8457 8.58398 7.27539 8.04688 7.27539ZM3.11523 10.0879C2.57812 10.0879 2.13867 9.6582 2.13867 9.11133C2.13867 8.58398 2.57812 8.13477 3.11523 8.13477C3.66211 8.13477 4.10156 8.58398 4.10156 9.11133C4.10156 9.6582 3.66211 10.0879 3.11523 10.0879ZM5.57617 10.0879C5.0293 10.0879 4.59961 9.6582 4.59961 9.11133C4.59961 8.58398 5.0293 8.13477 5.57617 8.13477C6.12305 8.13477 6.55273 8.58398 6.55273 9.11133C6.55273 9.6582 6.12305 10.0879 5.57617 10.0879ZM8.04688 10.0879C7.5 10.0879 7.07031 9.6582 7.07031 9.11133C7.07031 8.58398 7.5 8.13477 8.04688 8.13477C8.58398 8.13477 9.02344 8.58398 9.02344 9.11133C9.02344 9.6582 8.58398 10.0879 8.04688 10.0879ZM3.11523 12.9004C2.57812 12.9004 2.13867 12.4805 2.13867 11.9238C2.13867 11.3867 2.57812 10.9473 3.11523 10.9473C3.66211 10.9473 4.10156 11.3867 4.10156 11.9238C4.10156 12.4805 3.66211 12.9004 3.11523 12.9004ZM5.57617 12.9004C5.0293 12.9004 4.59961 12.4609 4.59961 11.9238C4.59961 11.377 5.0293 10.9473 5.57617 10.9473C6.12305 10.9473 6.55273 11.377 6.55273 11.9238C6.55273 12.4609 6.12305 12.9004 5.57617 12.9004ZM8.04688 12.9004C7.5 12.9004 7.07031 12.4609 7.07031 11.9238C7.07031 11.377 7.5 10.9473 8.04688 10.9473C8.58398 10.9473 9.02344 11.377 9.02344 11.9238C9.02344 12.4609 8.58398 12.9004 8.04688 12.9004ZM2.90039 19.5898C2.48047 19.5898 2.13867 19.248 2.13867 18.8281L2.13867 15.2637C2.13867 14.8438 2.48047 14.5117 2.90039 14.5117C3.32031 14.5117 3.65234 14.8438 3.65234 15.2637L3.65234 18.8281C3.65234 19.248 3.32031 19.5898 2.90039 19.5898ZM5.07812 16.6699C4.75586 16.6699 4.56055 16.4648 4.56055 16.1426L4.56055 15.4883C4.56055 15.1562 4.75586 14.9512 5.07812 14.9512L6.06445 14.9512C6.40625 14.9512 6.5918 15.1562 6.5918 15.4883L6.5918 16.1426C6.5918 16.4648 6.40625 16.6699 6.06445 16.6699ZM5.07812 19.1309C4.75586 19.1309 4.56055 18.9453 4.56055 18.6133L4.56055 17.959C4.56055 17.627 4.75586 17.4316 5.07812 17.4316L6.06445 17.4316C6.40625 17.4316 6.5918 17.627 6.5918 17.959L6.5918 18.6133C6.5918 18.9453 6.40625 19.1309 6.06445 19.1309ZM8.26172 19.5898C7.8418 19.5898 7.50977 19.248 7.50977 18.8281L7.50977 15.2637C7.50977 14.8438 7.8418 14.5117 8.26172 14.5117C8.68164 14.5117 9.02344 14.8438 9.02344 15.2637L9.02344 18.8281C9.02344 19.248 8.68164 19.5898 8.26172 19.5898Z" fill="var(--color-primary)"/>
 </g>
</svg>
