<?xml version="1.0" encoding="UTF-8"?>
<!--Generator: Apple Native CoreSVG 326-->
<!DOCTYPE svg
PUBLIC "-//W3C//DTD SVG 1.1//EN"
       "http://www.w3.org/Graphics/SVG/1.1/DTD/svg11.dtd">
<svg version="1.1" xmlns="http://www.w3.org/2000/svg" xmlns:xlink="http://www.w3.org/1999/xlink" viewBox="0 0 28.5059 14.9316">
 <g>
  <rect height="14.9316" opacity="0" width="28.5059" x="0" y="0"/>
  <path d="M28.1445 13.5645L28.1445 1.34766C28.1445 0.429688 27.6172 0 26.9824 0C26.709 0 26.416 0.078125 26.1328 0.244141L15.8789 6.2207C15.1367 6.65039 14.8535 6.97266 14.8535 7.46094C14.8535 7.94922 15.1367 8.27148 15.8789 8.70117L26.1328 14.6777C26.416 14.834 26.709 14.9219 26.9824 14.9219C27.6172 14.9219 28.1445 14.4824 28.1445 13.5645ZM26.5723 12.793C26.5723 12.9004 26.5039 12.9883 26.4062 12.9883C26.3574 12.9883 26.3281 12.9688 26.2891 12.9492L17.168 7.60742C17.0996 7.56836 17.0703 7.50977 17.0703 7.46094C17.0703 7.40234 17.0996 7.35352 17.168 7.31445L26.2891 1.97266C26.3281 1.94336 26.3574 1.93359 26.4062 1.93359C26.5039 1.93359 26.5723 2.01172 26.5723 2.12891ZM14.9121 13.5645L14.9121 1.34766C14.9121 0.429688 14.375 0 13.75 0C13.4668 0 13.1836 0.078125 12.9004 0.244141L2.63672 6.2207C1.9043 6.65039 1.62109 6.97266 1.62109 7.46094C1.62109 7.94922 1.9043 8.27148 2.63672 8.70117L12.9004 14.6777C13.1836 14.834 13.4668 14.9219 13.75 14.9219C14.375 14.9219 14.9121 14.4824 14.9121 13.5645ZM13.3398 12.793C13.3398 12.9004 13.2617 12.9883 13.1641 12.9883C13.125 12.9883 13.0859 12.9688 13.0469 12.9492L3.93555 7.60742C3.85742 7.56836 3.83789 7.50977 3.83789 7.46094C3.83789 7.40234 3.85742 7.35352 3.93555 7.31445L13.0469 1.97266C13.0859 1.94336 13.125 1.93359 13.1641 1.93359C13.2617 1.93359 13.3398 2.01172 13.3398 2.12891ZM0.830078 14.9219C1.30859 14.9219 1.66992 14.5605 1.66992 14.1016L1.66992 0.820312C1.66992 0.361328 1.30859 0 0.830078 0C0.361328 0 0 0.361328 0 0.820312L0 14.1016C0 14.5605 0.361328 14.9219 0.830078 14.9219Z" fill="white" fill-opacity="0.85"/>
 </g>
</svg>
