<?xml version="1.0" encoding="UTF-8"?>
<!--Generator: Apple Native CoreSVG 326-->
<!DOCTYPE svg
PUBLIC "-//W3C//DTD SVG 1.1//EN"
       "http://www.w3.org/Graphics/SVG/1.1/DTD/svg11.dtd">
<svg version="1.1" xmlns="http://www.w3.org/2000/svg" xmlns:xlink="http://www.w3.org/1999/xlink" viewBox="0 0 16.4265 25.498">
 <g>
  <rect height="25.498" opacity="0" width="16.4265" x="0" y="0"/>
  <path d="M5.0492 24.4922L11.016 24.4922C14.4144 24.4922 16.0941 22.7734 16.0648 19.3359C16.0258 15.4102 16.0062 12.5586 15.9086 10.4199C15.6254 4.13086 13.8578 2.28516 8.03749 2.28516C2.21717 2.28516 0.43983 4.13086 0.156627 10.4199C0.0589704 12.5586 0.0394392 15.4102 0.000376668 19.3359C-0.0289202 22.7734 1.65077 24.4922 5.0492 24.4922ZM4.766 20.6152C3.92616 20.6152 3.38905 20.0684 3.38905 19.248L3.38905 14.209C3.38905 13.3789 3.92616 12.832 4.766 12.832L11.309 12.832C12.139 12.832 12.6762 13.3789 12.6762 14.209L12.6762 19.248C12.6762 20.0684 12.139 20.6152 11.309 20.6152ZM3.38905 16.5918L12.6762 16.5918L12.6762 15.4297L3.38905 15.4297ZM8.03749 0C6.16249 0 4.84413 1.26953 4.84413 2.99805L6.22108 2.99805C6.22108 2.05078 6.96327 1.37695 8.03749 1.37695C9.10194 1.37695 9.85389 2.05078 9.85389 2.99805L11.2308 2.99805C11.2308 1.26953 9.90272 0 8.03749 0Z" fill="white" fill-opacity="0.85"/>
 </g>
</svg>
