<?xml version="1.0" encoding="UTF-8"?>
<!--Generator: Apple Native CoreSVG 326-->
<!DOCTYPE svg
PUBLIC "-//W3C//DTD SVG 1.1//EN"
       "http://www.w3.org/Graphics/SVG/1.1/DTD/svg11.dtd">
<svg version="1.1" xmlns="http://www.w3.org/2000/svg" xmlns:xlink="http://www.w3.org/1999/xlink" viewBox="0 0 12.2852 22.0605">
 <g>
  <rect height="22.0605" opacity="0" width="12.2852" x="0" y="0"/>
  <path d="M1.23047 19.834L6.00586 19.834C9.41406 19.834 11.9238 18.2422 11.9238 15.0293C11.9238 12.7734 10.4199 11.0352 7.88086 10.7227L7.88086 10.6348C9.75586 10.3027 11.0254 8.57422 11.0254 6.76758C11.0254 4.00391 8.78906 2.46094 5.98633 2.46094L1.23047 2.46094C0.556641 2.46094 0 2.8418 0 3.70117L0 18.5938C0 19.3945 0.517578 19.834 1.23047 19.834ZM1.91406 4.13086L5.53711 4.13086C7.57812 4.13086 9.10156 5.00977 9.10156 6.97266C9.10156 9.16992 7.28516 10.0391 5 10.0391L1.91406 10.0391ZM1.91406 18.1641L1.91406 11.709L5.46875 11.709C8.00781 11.709 9.9707 12.5879 9.9707 14.9316C9.9707 17.2266 8.125 18.1641 5.69336 18.1641ZM5.10742 22.0605C5.48828 22.0605 5.73242 21.8066 5.73242 21.416L5.73242 0.712891C5.73242 0.322266 5.48828 0.0585938 5.10742 0.0585938C4.7168 0.0585938 4.45312 0.322266 4.45312 0.712891L4.45312 21.416C4.45312 21.8066 4.7168 22.0605 5.10742 22.0605Z" fill="white" fill-opacity="0.85"/>
 </g>
</svg>
