<?xml version="1.0" encoding="UTF-8"?>
<!--Generator: Apple Native CoreSVG 326-->
<!DOCTYPE svg
PUBLIC "-//W3C//DTD SVG 1.1//EN"
       "http://www.w3.org/Graphics/SVG/1.1/DTD/svg11.dtd">
<svg version="1.1" xmlns="http://www.w3.org/2000/svg" xmlns:xlink="http://www.w3.org/1999/xlink" viewBox="0 0 20.2832 19.9316">
 <g>
  <rect height="19.9316" opacity="0" width="20.2832" x="0" y="0"/>
  <path d="M19.9219 9.96094C19.9219 15.4492 15.459 19.9219 9.96094 19.9219C4.47266 19.9219 0 15.4492 0 9.96094C0 4.46289 4.47266 0 9.96094 0C15.459 0 19.9219 4.46289 19.9219 9.96094ZM6.26953 6.81641C5.51758 6.81641 4.81445 6.89453 4.30664 7.38281C3.82812 7.88086 3.75 8.57422 3.75 9.31641L3.75 10.6055C3.75 11.3477 3.82812 12.041 4.30664 12.5391C4.81445 13.0273 5.50781 13.0957 6.26953 13.0957L13.0371 13.0957C13.7891 13.0957 14.4824 13.0273 14.9707 12.5391C15.459 12.041 15.5469 11.3477 15.5469 10.6055L15.5469 9.31641C15.5469 8.57422 15.459 7.88086 14.9707 7.38281C14.4824 6.89453 13.7793 6.81641 13.0371 6.81641ZM14.1602 8.21289C14.3164 8.36914 14.4238 8.71094 14.4238 9.18945L14.4238 10.7227C14.4238 11.2109 14.3164 11.5527 14.1602 11.709C13.9844 11.8848 13.6426 11.9727 13.1641 11.9727L6.13281 11.9727C5.64453 11.9727 5.3125 11.8848 5.13672 11.709C4.9707 11.5527 4.90234 11.2207 4.90234 10.7227L4.90234 9.18945C4.90234 8.69141 4.9707 8.35938 5.13672 8.20312C5.3125 8.02734 5.6543 7.93945 6.13281 7.93945L13.1641 7.93945C13.6328 7.93945 13.9844 8.02734 14.1602 8.21289ZM6.18164 8.52539C5.91797 8.52539 5.74219 8.56445 5.63477 8.66211C5.53711 8.7793 5.48828 8.93555 5.48828 9.20898L5.48828 10.6934C5.48828 10.9668 5.53711 11.1328 5.63477 11.2402C5.74219 11.3477 5.91797 11.377 6.18164 11.377L13.125 11.377C13.3984 11.377 13.5547 11.3477 13.6621 11.2402C13.7793 11.123 13.8281 10.957 13.8281 10.6934L13.8281 9.20898C13.8281 8.94531 13.7793 8.7793 13.6621 8.66211C13.5547 8.56445 13.3984 8.52539 13.125 8.52539ZM15.9863 11.1523C16.3379 11.123 16.8359 10.6543 16.8359 9.96094C16.8359 9.26758 16.3379 8.79883 15.9863 8.76953Z" fill="white" fill-opacity="0.85"/>
 </g>
</svg>
