<?xml version="1.0" encoding="UTF-8"?>
<!--Generator: Apple Native CoreSVG 326-->
<!DOCTYPE svg
PUBLIC "-//W3C//DTD SVG 1.1//EN"
       "http://www.w3.org/Graphics/SVG/1.1/DTD/svg11.dtd">
<svg version="1.1" xmlns="http://www.w3.org/2000/svg" xmlns:xlink="http://www.w3.org/1999/xlink" viewBox="0 0 30.6836 16.2793">
 <g>
  <rect height="16.2793" opacity="0" width="30.6836" x="0" y="0"/>
  <path d="M0 8.13477C0 13.3301 3.69141 16.2695 10.2637 16.2695L20.0586 16.2695C26.6211 16.2695 30.3223 13.3301 30.3223 8.13477C30.3223 2.93945 26.6211 0 20.0586 0L10.2637 0C3.69141 0 0 2.93945 0 8.13477ZM1.57227 8.13477C1.57227 3.92578 4.6875 1.57227 10.2637 1.57227L20.0586 1.57227C25.6348 1.57227 28.7402 3.92578 28.7402 8.13477C28.7402 12.3438 25.6348 14.6973 20.0586 14.6973L10.2637 14.6973C4.6875 14.6973 1.57227 12.3438 1.57227 8.13477ZM0.791016 8.13477L29.5215 8.13477L29.5215 7.14844L0.791016 7.14844ZM8.34961 8.79883L21.9727 8.79883C22.6465 8.79883 23.1348 8.32031 23.1348 7.64648C23.1348 6.96289 22.6465 6.49414 21.9727 6.49414L8.34961 6.49414C7.68555 6.49414 7.17773 6.96289 7.17773 7.64648C7.17773 8.32031 7.68555 8.79883 8.34961 8.79883ZM15.1562 11.6602C15.7031 11.6504 16.1426 11.1914 16.1426 10.6934C16.1426 10.1465 15.7031 9.70703 15.1562 9.70703C14.6191 9.70703 14.1797 10.1465 14.1797 10.6934C14.1797 11.2207 14.6191 11.6699 15.1562 11.6602Z" fill="white" fill-opacity="0.85"/>
 </g>
</svg>
