<?xml version="1.0" encoding="UTF-8"?>
<!--Generator: Apple Native CoreSVG 326-->
<!DOCTYPE svg
PUBLIC "-//W3C//DTD SVG 1.1//EN"
       "http://www.w3.org/Graphics/SVG/1.1/DTD/svg11.dtd">
<svg version="1.1" xmlns="http://www.w3.org/2000/svg" xmlns:xlink="http://www.w3.org/1999/xlink" viewBox="0 0 25.293 19.3457">
 <g>
  <rect height="19.3457" opacity="0" width="25.293" x="0" y="0"/>
  <path d="M0 14.5801C0 17.3047 2.44141 19.3457 5.42969 19.3457C8.4082 19.3457 10.8398 17.3047 10.8398 14.5801L10.8398 3.78906C10.8398 2.00195 9.61914 0.810547 7.74414 0.810547C6.2793 0.810547 5.10742 1.55273 4.56055 2.82227L0.498047 12.2754C0.0976562 13.2031 0 13.8672 0 14.5801ZM2.91016 10.4004L5.88867 3.47656C6.2207 2.69531 6.88477 2.23633 7.68555 2.23633C8.7207 2.23633 9.38477 2.91992 9.38477 3.94531L9.38477 11.3672C8.4082 10.4004 6.96289 9.81445 5.42969 9.81445C4.56055 9.81445 3.67188 10.0293 2.91016 10.4004ZM1.5332 14.5801C1.5332 12.6172 3.22266 11.2793 5.42969 11.2793C7.62695 11.2793 9.375 12.6172 9.375 14.5801C9.375 16.543 7.62695 17.8809 5.42969 17.8809C3.22266 17.8809 1.5332 16.543 1.5332 14.5801ZM24.9316 14.5801C24.9316 13.8672 24.8242 13.2031 24.4238 12.2754L20.3711 2.82227C19.8145 1.55273 18.6523 0.810547 17.1875 0.810547C15.3125 0.810547 14.0918 2.00195 14.0918 3.78906L14.0918 14.5801C14.0918 17.3047 16.5234 19.3457 19.502 19.3457C22.4805 19.3457 24.9316 17.3047 24.9316 14.5801ZM22.0215 10.4004C21.2598 10.0293 20.3711 9.81445 19.502 9.81445C17.9688 9.81445 16.5137 10.4004 15.5371 11.3672L15.5371 3.94531C15.5371 2.91992 16.2109 2.23633 17.2461 2.23633C18.0371 2.23633 18.7012 2.69531 19.0332 3.47656ZM23.3887 14.5801C23.3887 16.543 21.6992 17.8809 19.502 17.8809C17.2949 17.8809 15.5566 16.543 15.5566 14.5801C15.5566 12.6172 17.2949 11.2793 19.502 11.2793C21.6992 11.2793 23.3887 12.6172 23.3887 14.5801ZM10.1855 12.3828C10.752 12.0215 11.5918 11.7871 12.4707 11.7871C13.5547 11.7871 14.2578 11.9531 14.8145 12.3633L14.8145 10.9082C14.1699 10.6348 13.3984 10.5078 12.4707 10.5078C11.6602 10.5078 10.8691 10.6738 10.1855 10.957ZM10.1855 9.4043C10.752 9.0332 11.5918 8.80859 12.4707 8.80859C13.5547 8.80859 14.2578 8.96484 14.8145 9.38477L14.8145 7.92969C14.1699 7.65625 13.3984 7.5293 12.4707 7.5293C11.6602 7.5293 10.8691 7.69531 10.1855 7.97852ZM10.1855 6.41602C10.752 6.05469 11.5918 5.82031 12.4707 5.82031C13.5547 5.82031 14.2578 5.98633 14.8145 6.39648L14.8145 4.95117C14.1699 4.67773 13.3984 4.54102 12.4707 4.54102C11.6602 4.54102 10.8691 4.7168 10.1855 5Z" fill="white" fill-opacity="0.85"/>
 </g>
</svg>
