<svg version="1.1" xmlns="http://www.w3.org/2000/svg" xmlns:xlink="http://www.w3.org/1999/xlink" viewBox="0 0 23.2977 25.9578">
 <g>
  <rect height="25.9578" opacity="0" width="23.2977" x="0" y="0"/>
  <path d="M16.3363 6.26503C14.8813 6.26503 13.7582 7.06582 12.9672 8.93105C10.1352 6.08925 5.66252 3.55996 1.19963 3.21816C0.203531 3.1498 0.0375157 3.92128 0.0179845 4.49746C-0.294516 9.39003 3.50431 13.6478 8.38713 14.2045C7.09806 17.0756 5.35978 19.81 2.94767 22.0951C2.55705 22.4564 2.66447 22.9643 2.90861 23.3256C4.06095 25.1029 7.66447 26.1576 10.0961 25.3178C10.682 25.1127 10.7797 24.7904 10.7797 24.3412L10.7797 20.7182C13.4457 20.5717 17.6645 18.8139 16.9711 13.3939L16.8735 12.7103C18.8754 12.2025 20.2328 10.9037 20.2328 9.59511C20.2328 7.99355 18.4653 6.26503 16.3363 6.26503ZM16.4242 7.67128C17.8207 7.67128 18.8266 8.68691 18.8266 9.59511C18.8266 10.3373 17.8403 11.1967 15.9457 11.4603C15.6528 11.4896 15.4379 11.7045 15.4672 11.9779L15.5942 13.433C16.0141 18.4525 12.1274 19.1654 9.86173 19.2728C9.57853 19.2826 9.36369 19.4779 9.36369 19.7709L9.36369 24.0482C9.36369 24.1459 9.32463 24.224 9.2172 24.2338C7.32267 24.5756 5.26213 23.892 4.28556 22.8861C4.2172 22.8178 4.18791 22.7103 4.26603 22.642C6.90275 20.1127 8.69963 17.0463 10.0473 13.8236C10.2328 13.3744 10.057 13.0131 9.59806 12.9936C4.94963 12.8764 1.4633 9.45839 1.42423 4.83925C1.42423 4.69277 1.45353 4.65371 1.60978 4.67324C5.73088 5.18105 9.62736 7.51503 11.8637 9.82949C12.2641 10.2299 12.5473 10.435 12.9379 10.435C13.5727 10.435 13.8754 10.1225 14.1977 9.46816C14.7641 8.29628 15.2621 7.67128 16.4242 7.67128ZM14.5981 7.41738L15.9164 6.95839C14.559 3.81386 12.6938 1.64589 10.1547 0.190816C9.40275-0.238871 8.64103 0.0833943 8.43595 0.893941C7.94767 2.67128 7.75236 4.38027 7.98673 6.15761L9.51994 6.88027C9.16838 5.10293 9.23673 3.55019 9.64689 1.89003C9.67619 1.71425 9.85197 1.65566 9.99845 1.74355C11.9711 3.03261 13.4457 4.80996 14.5981 7.41738ZM17.0688 9.84902C17.391 9.84902 17.6645 9.58535 17.6645 9.25332C17.6645 8.93105 17.391 8.64785 17.0688 8.64785C16.727 8.64785 16.4633 8.93105 16.4633 9.25332C16.4633 9.58535 16.727 9.84902 17.0688 9.84902ZM18.6996 11.1186L22.2641 11.6264C22.9281 11.724 23.2406 10.7377 22.5668 10.4545L19.3442 9.0873Z" fill="var(--color-primary)"/>
 </g>
</svg>
