<?xml version="1.0" encoding="UTF-8"?>
<!--Generator: Apple Native CoreSVG 326-->
<!DOCTYPE svg
PUBLIC "-//W3C//DTD SVG 1.1//EN"
       "http://www.w3.org/Graphics/SVG/1.1/DTD/svg11.dtd">
<svg version="1.1" xmlns="http://www.w3.org/2000/svg" xmlns:xlink="http://www.w3.org/1999/xlink" viewBox="0 0 22.8516 22.1973">
 <g>
  <rect height="22.1973" opacity="0" width="22.8516" x="0" y="0"/>
  <path d="M11.25 3.76953C11.9629 3.76953 12.5293 3.13477 12.5293 2.31445C12.5293 1.47461 12.2656 0.927734 11.7969 0.380859C11.4844-0.00976562 11.0645-0.0195312 10.7422 0.322266C10.2734 0.888672 9.9707 1.44531 9.9707 2.31445C9.9707 3.13477 10.5469 3.76953 11.25 3.76953ZM10.6934 8.27148L11.7773 8.27148L11.7773 2.72461L10.6934 2.72461ZM4.87305 13.0469L6.44531 13.0469L6.44531 10.6836C6.44531 9.75586 6.96289 9.25781 7.85156 9.25781L14.6387 9.25781C15.5273 9.25781 16.0547 9.75586 16.0547 10.6836L16.0547 13.0469L17.627 13.0469L17.627 10.6055C17.627 8.67188 16.6309 7.68555 14.668 7.68555L7.83203 7.68555C5.87891 7.68555 4.87305 8.67188 4.87305 10.6055ZM1.54297 21.5137L3.11523 21.5137L3.11523 15.625C3.11523 14.6973 3.63281 14.1895 4.52148 14.1895L17.9688 14.1895C18.8574 14.1895 19.375 14.6973 19.375 15.625L19.375 21.5137L20.9473 21.5137L20.9473 15.5371C20.9473 13.6035 19.9512 12.6172 17.998 12.6172L4.50195 12.6172C2.54883 12.6172 1.54297 13.6035 1.54297 15.5371ZM11.2402 17.5293C12.0898 17.5293 12.7637 18.623 14.1992 18.623C15.5859 18.623 16.2012 17.5293 17.002 17.5293C17.8027 17.5293 18.4277 18.623 19.9414 18.623L20.2051 18.623L20.2051 17.0996L19.9414 17.0996C19.0137 17.0996 18.3496 16.0059 17.002 16.0059C15.6445 16.0059 15.1367 17.0996 14.1992 17.0996C13.0762 17.0996 12.6172 16.0059 11.2402 16.0059C9.85352 16.0059 9.4043 17.0996 8.28125 17.0996C7.34375 17.0996 6.83594 16.0059 5.47852 16.0059C4.12109 16.0059 3.4668 17.0996 2.53906 17.0996L2.2168 17.0996L2.2168 18.623L2.53906 18.623C4.05273 18.623 4.67773 17.5293 5.47852 17.5293C6.26953 17.5293 6.89453 18.623 8.28125 18.623C9.7168 18.623 10.3809 17.5293 11.2402 17.5293ZM0.78125 22.1973L21.709 22.1973C22.1387 22.1973 22.4902 21.8359 22.4902 21.4062C22.4902 20.9766 22.1387 20.625 21.709 20.625L0.78125 20.625C0.351562 20.625 0 20.9766 0 21.4062C0 21.8359 0.351562 22.1973 0.78125 22.1973Z" fill="white" fill-opacity="0.85"/>
 </g>
</svg>
