<?xml version="1.0" encoding="UTF-8"?>
<!--Generator: Apple Native CoreSVG 326-->
<!DOCTYPE svg
PUBLIC "-//W3C//DTD SVG 1.1//EN"
       "http://www.w3.org/Graphics/SVG/1.1/DTD/svg11.dtd">
<svg version="1.1" xmlns="http://www.w3.org/2000/svg" xmlns:xlink="http://www.w3.org/1999/xlink" viewBox="0 0 20.2832 19.9316">
 <g>
  <rect height="19.9316" opacity="0" width="20.2832" x="0" y="0"/>
  <path d="M19.9219 9.96094C19.9219 15.459 15.459 19.9219 9.96094 19.9219C4.46289 19.9219 0 15.459 0 9.96094C0 4.46289 4.46289 0 9.96094 0C15.459 0 19.9219 4.46289 19.9219 9.96094ZM1.66016 9.96094C1.66016 14.5508 5.37109 18.2617 9.96094 18.2617C14.5508 18.2617 18.2617 14.5508 18.2617 9.96094C18.2617 5.37109 14.5508 1.66016 9.96094 1.66016C5.37109 1.66016 1.66016 5.37109 1.66016 9.96094Z" fill="white" fill-opacity="0.85"/>
  <path d="M11.2379 12.8297L8.50586 16.2598C8.0957 16.7676 7.43164 16.4258 7.66602 15.8008L9.43359 11.0547L6.12305 11.0547C5.86914 11.0547 5.67383 10.8789 5.67383 10.6348C5.67383 10.5078 5.73242 10.3711 5.83984 10.2441L7.08681 8.67861ZM13.5742 8.74023C13.8281 8.74023 14.0234 8.91602 14.0234 9.16016C14.0234 9.28711 13.9648 9.42383 13.8574 9.54102L12.6568 11.0483L10.3462 8.74023ZM12.0312 3.99414L10.2861 8.68014L8.5037 6.89973L11.1914 3.52539C11.6016 3.02734 12.2656 3.36914 12.0312 3.99414Z" fill="white" fill-opacity="0.85"/>
  <path d="M14.1406 14.7461C14.3066 14.9121 14.5996 14.9219 14.7656 14.7461C14.9414 14.5703 14.9414 14.2969 14.7656 14.1211L5.82031 5.16602C5.63477 4.99023 5.36133 4.99023 5.18555 5.16602C5.00977 5.3418 5.00977 5.625 5.18555 5.79102Z" fill="white" fill-opacity="0.85"/>
 </g>
</svg>
