<?xml version="1.0" encoding="UTF-8"?>
<!--Generator: Apple Native CoreSVG 326-->
<!DOCTYPE svg
PUBLIC "-//W3C//DTD SVG 1.1//EN"
       "http://www.w3.org/Graphics/SVG/1.1/DTD/svg11.dtd">
<svg version="1.1" xmlns="http://www.w3.org/2000/svg" xmlns:xlink="http://www.w3.org/1999/xlink" viewBox="0 0 20.2832 19.9316">
 <g>
  <rect height="19.9316" opacity="0" width="20.2832" x="0" y="0"/>
  <path d="M19.9219 9.9707C19.9219 15.4688 15.459 19.9316 9.96094 19.9316C4.47266 19.9316 0 15.4688 0 9.9707C0 4.48242 4.47266 0.00976562 9.96094 0.00976562C15.459 0.00976562 19.9219 4.48242 19.9219 9.9707ZM11.2207 4.60938C10.8398 4.60938 10.6543 4.81445 10.6543 5.18555L10.6543 14.3359C10.6543 14.6973 10.8398 14.9023 11.2207 14.9023L12.3633 14.9023C12.7344 14.9023 12.9395 14.6973 12.9395 14.3359L12.9395 8.83789L14.1016 14.4629C14.1699 14.8145 14.4141 14.9902 14.7656 14.9023L15.498 14.7266C15.8594 14.6484 16.0156 14.4043 15.957 14.043L14.375 6.44531C14.3066 6.08398 14.0723 5.89844 13.7109 5.98633L12.9395 6.18164L12.9395 5.18555C12.9395 4.81445 12.7344 4.60938 12.3633 4.60938ZM4.81445 5.9082C4.43359 5.9082 4.21875 6.10352 4.21875 6.46484L4.21875 14.3359C4.21875 14.6973 4.43359 14.9023 4.81445 14.9023L5.68359 14.9023C6.05469 14.9023 6.25977 14.6973 6.25977 14.3359L6.25977 6.46484C6.25977 6.10352 6.05469 5.9082 5.68359 5.9082ZM7.50977 7.48047C7.14844 7.48047 6.93359 7.70508 6.93359 8.05664L6.93359 14.3359C6.93359 14.6973 7.14844 14.9023 7.50977 14.9023L9.39453 14.9023C9.77539 14.9023 9.96094 14.6973 9.96094 14.3359L9.96094 8.05664C9.96094 7.70508 9.77539 7.48047 9.39453 7.48047ZM9.26758 13.5352C9.26758 13.7109 9.14062 13.8477 8.96484 13.8477L7.94922 13.8477C7.7832 13.8477 7.65625 13.7109 7.65625 13.5352C7.65625 13.3594 7.77344 13.2324 7.94922 13.2324L8.96484 13.2324C9.14062 13.2324 9.26758 13.3691 9.26758 13.5352ZM9.26758 8.86719C9.26758 9.01367 9.14062 9.16992 8.96484 9.16992L7.94922 9.16992C7.77344 9.16992 7.65625 9.02344 7.65625 8.86719C7.65625 8.69141 7.7832 8.56445 7.94922 8.56445L8.96484 8.56445C9.14062 8.56445 9.26758 8.69141 9.26758 8.86719Z" fill="white" fill-opacity="0.85"/>
 </g>
</svg>
