<?xml version="1.0" encoding="UTF-8"?>
<!--Generator: Apple Native CoreSVG 326-->
<!DOCTYPE svg
PUBLIC "-//W3C//DTD SVG 1.1//EN"
       "http://www.w3.org/Graphics/SVG/1.1/DTD/svg11.dtd">
<svg version="1.1" xmlns="http://www.w3.org/2000/svg" xmlns:xlink="http://www.w3.org/1999/xlink" viewBox="0 0 30.2783 29.9082">
 <g>
  <rect height="29.9082" opacity="0" width="30.2783" x="0" y="0"/>
  <path d="M21.337 5.47991L19.7681 7.04883L8.67432 7.04883C6.69189 7.04883 5.76416 8.04493 5.76416 9.94922L5.76416 17.4199C5.76416 19.3242 6.69189 20.3301 8.67432 20.3301L9.86572 20.3301C10.4028 20.3301 10.5981 20.5352 10.5981 21.0625L10.5981 23.8945L13.7231 20.7891C14.0942 20.4082 14.3774 20.3301 14.9146 20.3301L21.2427 20.3301C23.2153 20.3301 24.1431 19.3242 24.1431 17.4199L24.1431 9.94922C24.1431 9.83537 24.1397 9.72475 24.1326 9.61785L25.4895 8.26096C25.6408 8.75898 25.7153 9.32429 25.7153 9.94922L25.7153 17.4297C25.7153 20.291 24.1528 21.9023 21.2427 21.9023L14.9829 21.9023L11.604 24.9004C11.0181 25.4277 10.686 25.6816 10.1978 25.6816C9.52393 25.6816 9.1333 25.1934 9.1333 24.4414L9.1333 21.9023L8.66455 21.9023C5.76416 21.9023 4.19189 20.3008 4.19189 17.4297L4.19189 9.94922C4.19189 7.07813 5.76416 5.47657 8.66455 5.47657L21.2427 5.47657C21.2751 5.47657 21.3073 5.47677 21.337 5.47991Z" fill="white" fill-opacity="0.85"/>
  <path d="M16.4673 14.0801L18.4595 13.1914L27.0532 4.59766L25.686 3.24024L17.1021 11.834L16.1548 13.7578C16.0767 13.9238 16.2817 14.1582 16.4673 14.0801ZM27.7856 3.86524L28.5083 3.12305C28.8599 2.77149 28.8599 2.28321 28.5278 1.95118L28.2935 1.7168C27.981 1.4043 27.4829 1.4336 27.1606 1.76563L26.4185 2.48829Z" fill="white" fill-opacity="0.85"/>
 </g>
</svg>
