<svg version="1.1" xmlns="http://www.w3.org/2000/svg" xmlns:xlink="http://www.w3.org/1999/xlink" width="30.3613" height="25.0293" viewBox="0 0 30.3613 25.0293">
 <g>
  <rect height="25.0293" opacity="0" width="30.3613" x="0" y="0"/>
  <path d="M22.4432 4.96094L15.6738 4.96094C12.0996 4.96094 10.0488 7.08008 10.0488 10.5762L10.0488 15.8594C10.0488 16.9779 10.2588 17.9555 10.6636 18.7659L8.38867 20.791C7.80273 21.3086 7.4707 21.5625 6.98242 21.5625C6.30859 21.5625 5.91797 21.084 5.91797 20.332L5.91797 17.7832L5.44922 17.7832C2.54883 17.7832 0.976562 16.1816 0.976562 13.3203L0.976562 5.83008C0.976562 2.96875 2.54883 1.35742 5.44922 1.35742L18.0273 1.35742C20.6272 1.35742 22.1514 2.64343 22.4432 4.96094Z" fill="var(--color-secondary)"/>
  <path d="M29.0234 10.5762L29.0234 15.8594C29.0234 18.623 27.5488 20.1367 24.7363 20.1367L24.541 20.1367L24.541 22.4805C24.541 23.2227 24.1602 23.7012 23.4863 23.7012C23.0078 23.7012 22.6855 23.4375 22.0898 22.9297L18.8281 20.1367L15.6738 20.1367C12.8613 20.1367 11.3867 18.6328 11.3867 15.8594L11.3867 10.5762C11.3867 7.80273 12.8613 6.28906 15.6738 6.28906L24.7363 6.28906C27.5488 6.28906 29.0234 7.80273 29.0234 10.5762ZM19.2578 16.1719C19.2578 16.6699 19.6973 17.0801 20.1953 17.0801C20.7031 17.0801 21.1426 16.6797 21.1426 16.1719C21.1426 15.6641 20.7129 15.2637 20.1953 15.2637C19.6875 15.2637 19.2578 15.6738 19.2578 16.1719ZM19.4043 10.4102L19.5215 13.6035C19.5312 14.0527 19.7656 14.2969 20.2051 14.2969C20.625 14.2969 20.8594 14.0625 20.8789 13.6035L20.9961 10.4199C21.0156 9.94141 20.6641 9.59961 20.1953 9.59961C19.7266 9.59961 19.3848 9.93164 19.4043 10.4102Z" fill="var(--color-primary)"/>
 </g>
</svg>
