<?xml version="1.0" encoding="UTF-8"?>
<!--Generator: Apple Native CoreSVG 326-->
<!DOCTYPE svg
PUBLIC "-//W3C//DTD SVG 1.1//EN"
       "http://www.w3.org/Graphics/SVG/1.1/DTD/svg11.dtd">
<svg version="1.1" xmlns="http://www.w3.org/2000/svg" xmlns:xlink="http://www.w3.org/1999/xlink" viewBox="0 0 22.0312 25.5371">
 <g>
  <rect height="25.5371" opacity="0" width="22.0312" x="0" y="0"/>
  <path d="M20.332 7.71484L20.332 22.5098C20.332 23.5254 19.7461 24.1895 18.7988 24.1895L15.4972 24.1895C15.7814 23.7169 15.9375 23.1425 15.9375 22.5098L15.9375 19.4238L17.5195 19.4238C17.7246 19.4238 17.8516 19.2969 17.8516 19.1113L17.8516 17.6074C17.8516 17.4121 17.7246 17.2852 17.5195 17.2852L15.9375 17.2852L15.9375 15.7715L17.5195 15.7715C17.7246 15.7715 17.8516 15.6445 17.8516 15.4492L17.8516 13.9551C17.8516 13.7598 17.7246 13.6328 17.5195 13.6328L15.9375 13.6328L15.9375 12.1191L17.5195 12.1191C17.7246 12.1191 17.8516 11.9824 17.8516 11.7969L17.8516 10.293C17.8516 10.1074 17.7246 9.9707 17.5195 9.9707L15.9375 9.9707L15.9375 6.02539L18.7988 6.02539C19.7461 6.02539 20.332 6.67969 20.332 7.71484Z" fill="white" fill-opacity="0.85"/>
  <path d="M4.11133 7.50977L4.11133 5.56641C4.11133 5.3125 4.26758 5.12695 4.52148 5.12695L6.5332 5.12695C6.78711 5.12695 6.97266 5.3125 6.97266 5.56641L6.97266 7.50977C6.97266 7.77344 6.78711 7.94922 6.5332 7.94922L4.52148 7.94922C4.26758 7.94922 4.11133 7.77344 4.11133 7.50977ZM8.97461 7.50977L8.97461 5.56641C8.97461 5.3125 9.14062 5.12695 9.4043 5.12695L11.4062 5.12695C11.6699 5.12695 11.8359 5.3125 11.8359 5.56641L11.8359 7.50977C11.8359 7.77344 11.6699 7.94922 11.4062 7.94922L9.4043 7.94922C9.14062 7.94922 8.97461 7.77344 8.97461 7.50977ZM4.11133 11.6211L4.11133 9.66797C4.11133 9.41406 4.26758 9.23828 4.52148 9.23828L6.5332 9.23828C6.78711 9.23828 6.97266 9.41406 6.97266 9.66797L6.97266 11.6211C6.97266 11.8848 6.78711 12.0508 6.5332 12.0508L4.52148 12.0508C4.26758 12.0508 4.11133 11.8848 4.11133 11.6211ZM8.97461 11.6211L8.97461 9.66797C8.97461 9.41406 9.14062 9.23828 9.4043 9.23828L11.4062 9.23828C11.6699 9.23828 11.8359 9.41406 11.8359 9.66797L11.8359 11.6211C11.8359 11.8848 11.6699 12.0508 11.4062 12.0508L9.4043 12.0508C9.14062 12.0508 8.97461 11.8848 8.97461 11.6211ZM4.11133 15.7227L4.11133 13.7793C4.11133 13.5156 4.26758 13.3398 4.52148 13.3398L6.5332 13.3398C6.78711 13.3398 6.97266 13.5156 6.97266 13.7793L6.97266 15.7227C6.97266 15.9766 6.78711 16.1621 6.5332 16.1621L4.52148 16.1621C4.26758 16.1621 4.11133 15.9766 4.11133 15.7227ZM8.97461 15.7227L8.97461 13.7793C8.97461 13.5156 9.14062 13.3398 9.4043 13.3398L11.4062 13.3398C11.6699 13.3398 11.8359 13.5156 11.8359 13.7793L11.8359 15.7227C11.8359 15.9766 11.6699 16.1621 11.4062 16.1621L9.4043 16.1621C9.14062 16.1621 8.97461 15.9766 8.97461 15.7227ZM2.87109 24.1895L13.0664 24.1895C14.0137 24.1895 14.6094 23.5254 14.6094 22.5098L14.6094 3.01758C14.6094 1.99219 14.0137 1.33789 13.0664 1.33789L2.87109 1.33789C1.92383 1.33789 1.32812 1.99219 1.32812 3.01758L1.32812 22.5098C1.32812 23.5254 1.92383 24.1895 2.87109 24.1895ZM5.60547 22.6855L5.60547 19.7754C5.60547 19.2676 5.91797 18.9648 6.41602 18.9648L9.53125 18.9648C10.0391 18.9648 10.332 19.2676 10.332 19.7754L10.332 22.6855Z" fill="white" fill-opacity="0.85"/>
 </g>
</svg>
