<?xml version="1.0" encoding="UTF-8"?>
<!--Generator: Apple Native CoreSVG 326-->
<!DOCTYPE svg
PUBLIC "-//W3C//DTD SVG 1.1//EN"
       "http://www.w3.org/Graphics/SVG/1.1/DTD/svg11.dtd">
<svg version="1.1" xmlns="http://www.w3.org/2000/svg" xmlns:xlink="http://www.w3.org/1999/xlink" viewBox="0 0 20.7715 24.0332">
 <g>
  <rect height="24.0332" opacity="0" width="20.7715" x="0" y="0"/>
  <path d="M1.36719 22.4023C1.36719 23.125 1.92383 23.6914 2.65625 23.6914L3.80859 23.6914C4.54102 23.6914 5.10742 23.125 5.10742 22.4023L5.10742 20.7812C7.03125 20.9082 8.62305 20.9863 10.2051 20.9863C11.7871 20.9863 13.3691 20.918 15.3027 20.7812L15.3027 22.4023C15.3027 23.125 15.8594 23.6914 16.5918 23.6914L17.7441 23.6914C18.4766 23.6914 19.043 23.125 19.043 22.4023L19.043 2.49023C19.043 1.24023 18.3008 0.507812 16.9727 0.361328C14.9121 0.117188 12.5488 0 10.2051 0C7.87109 0 5.51758 0.117188 3.42773 0.361328C2.09961 0.507812 1.36719 1.24023 1.36719 2.49023ZM3.1543 7.86133L3.1543 3.28125C3.1543 2.61719 3.51562 2.19727 4.12109 2.11914C6.15234 1.89453 8.17383 1.77734 10.2051 1.77734C12.2266 1.77734 14.2676 1.9043 16.2891 2.11914C16.8945 2.19727 17.2559 2.61719 17.2559 3.28125L17.2559 7.86133ZM3.1543 9.28711L17.2559 9.28711L17.2559 13.6621C17.2559 14.3262 16.8945 14.7461 16.2891 14.8145C14.3262 15.0391 12.2559 15.1562 10.2051 15.1562C8.14453 15.1562 6.08398 15.0488 4.12109 14.8145C3.51562 14.7461 3.1543 14.3262 3.1543 13.6621ZM4.9707 18.9551C4.31641 18.9551 3.79883 18.4375 3.79883 17.7832C3.79883 17.1191 4.31641 16.6113 4.9707 16.6113C5.63477 16.6113 6.14258 17.1191 6.14258 17.7832C6.14258 18.4375 5.63477 18.9551 4.9707 18.9551ZM8.50586 18.5938C8.03711 18.5938 7.68555 18.2422 7.68555 17.7734C7.68555 17.2949 8.02734 16.9531 8.50586 16.9531L11.8945 16.9531C12.3828 16.9531 12.7246 17.2949 12.7246 17.7734C12.7246 18.2422 12.373 18.5938 11.8945 18.5938ZM15.4395 18.9551C14.7754 18.9551 14.2676 18.4375 14.2676 17.7832C14.2676 17.1191 14.7754 16.6113 15.4395 16.6113C16.0938 16.6113 16.6113 17.1191 16.6113 17.7832C16.6113 18.4375 16.0938 18.9551 15.4395 18.9551ZM2.00195 11.5527L2.00195 6.51367L0.927734 6.51367C0.380859 6.51367 0 6.85547 0 7.37305L0 10.7031C0 11.2109 0.380859 11.5527 0.927734 11.5527ZM18.4082 11.5527L19.4824 11.5527C20.0293 11.5527 20.4102 11.2109 20.4102 10.7031L20.4102 7.37305C20.4102 6.85547 20.0293 6.51367 19.4824 6.51367L18.4082 6.51367Z" fill="white" fill-opacity="0.85"/>
 </g>
</svg>
