<svg version="1.1" xmlns="http://www.w3.org/2000/svg" xmlns:xlink="http://www.w3.org/1999/xlink" width="23.9355" height="23.877" viewBox="0 0 23.9355 23.877">
 <g>
  <rect height="23.877" opacity="0" width="23.9355" x="0" y="0"/>
  <path d="M23.9355 5.23438L23.9355 18.6133C23.9355 21.7969 21.8262 23.8379 18.5156 23.8379L15.332 23.8379C12.4316 23.8379 10.5762 21.6504 10.5762 18.6133L10.5762 15.8759L12.1484 14.4806L12.1484 18.6133C12.1484 20.6934 13.3887 22.2656 15.332 22.2656C17.2656 22.2656 18.5059 20.6934 18.5059 18.6133L18.5059 5.23438C18.5059 3.1543 17.2656 1.57227 15.332 1.57227C13.3887 1.57227 12.1484 3.1543 12.1484 5.23438L12.1484 9.35682L10.5762 7.96098L10.5762 5.23438C10.5762 2.1875 12.4316 0 15.332 0L18.5156 0C21.8262 0 23.9355 2.04102 23.9355 5.23438ZM20.0781 5.23438L20.0781 18.6133C20.0781 20.0731 19.6495 21.3366 18.8795 22.2515C21.0063 22.1118 22.3633 20.7215 22.3633 18.6133L22.3633 5.23438C22.3633 3.12584 21.0058 1.72668 18.8785 1.5864C19.6491 2.50274 20.0781 3.76919 20.0781 5.23438Z" fill="var(--color-secondary)"/>
  <path d="M12.6953 12.6465C13.1934 12.2266 13.1836 11.6016 12.6953 11.1914L9.74609 8.56445C9.04297 7.95898 8.07617 8.36914 8.07617 9.30664L8.07617 10.9277L2.95898 10.9277C2.39258 10.9277 1.95312 11.3672 1.95312 11.9336C1.95312 12.4805 2.39258 12.9199 2.95898 12.9199L8.07617 12.9199L8.07617 14.5312C8.07617 15.498 9.07227 15.8691 9.74609 15.2637Z" fill="var(--color-primary)"/>
 </g>
</svg>
