<?xml version="1.0" encoding="UTF-8"?>
<!--Generator: Apple Native CoreSVG 326-->
<!DOCTYPE svg
PUBLIC "-//W3C//DTD SVG 1.1//EN"
       "http://www.w3.org/Graphics/SVG/1.1/DTD/svg11.dtd">
<svg version="1.1" xmlns="http://www.w3.org/2000/svg" xmlns:xlink="http://www.w3.org/1999/xlink" viewBox="0 0 23.9355 26.5332">
 <g>
  <rect height="26.5332" opacity="0" width="23.9355" x="0" y="0"/>
  <path d="M23.9355 6.5625L23.9355 19.9414C23.9355 22.9004 22.1289 25.1367 19.209 25.1367C19.2071 25.1367 19.2052 25.1367 19.2035 25.1365C20.5982 23.9588 21.4062 22.1006 21.4062 19.9414L21.4062 6.5625C21.4062 4.39947 20.5995 2.54345 19.207 1.36728C19.2076 1.36719 19.2083 1.36719 19.209 1.36719C22.1289 1.36719 23.9355 3.60352 23.9355 6.5625Z" fill="white" fill-opacity="0.85"/>
  <path d="M20.0781 6.5625L20.0781 19.9414C20.0781 22.9785 18.2227 25.166 15.332 25.166C12.4316 25.166 10.5762 22.9785 10.5762 19.9414L10.5762 17.4262L13.4766 14.8438C14.4824 13.9551 14.4727 12.5293 13.4766 11.6504L10.5762 9.06693L10.5762 6.5625C10.5762 3.51562 12.4316 1.32812 15.332 1.32812C18.2227 1.32812 20.0781 3.51562 20.0781 6.5625Z" fill="white" fill-opacity="0.85"/>
  <path d="M12.5977 13.8477C13.0078 13.4863 12.998 12.998 12.5977 12.6465L9.63867 10.0195C9.04297 9.49219 8.23242 9.83398 8.23242 10.6348L8.23242 12.4219L2.95898 12.4219C2.48047 12.4219 2.11914 12.7832 2.11914 13.2617C2.11914 13.7207 2.48047 14.0918 2.95898 14.0918L8.23242 14.0918L8.23242 15.8594C8.23242 16.6895 9.07227 16.9824 9.63867 16.4648Z" fill="white" fill-opacity="0.85"/>
 </g>
</svg>
