<svg version="1.1" xmlns="http://www.w3.org/2000/svg" xmlns:xlink="http://www.w3.org/1999/xlink" width="16.2305" height="22.3926" viewBox="0 0 16.2305 22.3926">
 <g>
  <rect height="22.3926" opacity="0" width="16.2305" x="0" y="0"/>
  <path d="M2.25586 20.5762L13.6133 20.5762C14.9609 20.5762 15.8691 19.6484 15.8691 18.2422L15.8691 2.33398C15.8691 0.927734 14.9609 0 13.6133 0L2.25586 0C0.908203 0 0 0.927734 0 2.33398L0 18.2422C0 19.6484 0.908203 20.5762 2.25586 20.5762ZM2.33398 19.0039C1.875 19.0039 1.57227 18.7012 1.57227 18.2324L1.57227 2.34375C1.57227 1.875 1.875 1.57227 2.33398 1.57227L13.5352 1.57227C13.9941 1.57227 14.2969 1.875 14.2969 2.34375L14.2969 18.2324C14.2969 18.7012 13.9941 19.0039 13.5352 19.0039ZM7.29492 19.7363L8.57422 19.7363L8.57422 0.810547L7.29492 0.810547ZM5.40039 11.6797C5.9668 11.6797 6.43555 11.2207 6.43555 10.6543C6.43555 10.0781 5.9668 9.61914 5.40039 9.61914C4.83398 9.61914 4.36523 10.0781 4.36523 10.6543C4.36523 11.2207 4.83398 11.6797 5.40039 11.6797ZM10.459 11.6797C11.0254 11.6797 11.4941 11.2207 11.4941 10.6543C11.4941 10.0781 11.0254 9.61914 10.459 9.61914C9.89258 9.61914 9.42383 10.0781 9.42383 10.6543C9.42383 11.2207 9.89258 11.6797 10.459 11.6797ZM2.86133 22.3828C3.34961 22.3828 3.67188 22.0508 3.67188 21.5625L3.67188 19.5996L2.05078 19.5996L2.05078 21.5625C2.05078 22.0508 2.37305 22.3828 2.86133 22.3828ZM13.0078 22.3828C13.4961 22.3828 13.8184 22.0508 13.8184 21.5625L13.8184 19.5996L12.1973 19.5996L12.1973 21.5625C12.1973 22.0508 12.5195 22.3828 13.0078 22.3828Z" fill="var(--color-primary)"/>
 </g>
</svg>
