<?xml version="1.0" encoding="UTF-8"?>
<!--Generator: Apple Native CoreSVG 326-->
<!DOCTYPE svg
PUBLIC "-//W3C//DTD SVG 1.1//EN"
       "http://www.w3.org/Graphics/SVG/1.1/DTD/svg11.dtd">
<svg version="1.1" xmlns="http://www.w3.org/2000/svg" xmlns:xlink="http://www.w3.org/1999/xlink" viewBox="0 0 23.3887 17.9785">
 <g>
  <rect height="17.9785" opacity="0" width="23.3887" x="0" y="0"/>
  <path d="M3.06641 17.9785L10.8594 17.9785L10.8594 16.4062L3.08594 16.4062C2.10938 16.4062 1.57227 15.8887 1.57227 14.873L1.57227 9.6582L0 9.6582L0 14.9609C0 16.9727 1.02539 17.9785 3.06641 17.9785ZM12.1973 17.9785L19.9609 17.9785C22.0117 17.9785 23.0273 16.9727 23.0273 14.9609L23.0273 9.6582L21.4551 9.6582L21.4551 14.873C21.4551 15.8887 20.9082 16.4062 19.9414 16.4062L12.1973 16.4062ZM21.4551 8.33008L23.0273 8.33008L23.0273 3.02734C23.0273 1.01562 22.0117 0 19.9609 0L12.1973 0L12.1973 1.57227L19.9414 1.57227C20.9082 1.57227 21.4551 2.09961 21.4551 3.11523ZM0 8.33008L1.57227 8.33008L1.57227 3.11523C1.57227 2.09961 2.10938 1.57227 3.08594 1.57227L10.8594 1.57227L10.8594 0L3.06641 0C1.02539 0 0 1.01562 0 3.02734Z" fill="white" fill-opacity="0.85"/>
  <path d="M11.5332 12.207C13.3203 12.207 14.7656 10.7617 14.7656 8.98438C14.7656 7.19727 13.3203 5.75195 11.5332 5.75195C9.75586 5.75195 8.30078 7.19727 8.30078 8.98438C8.30078 10.7617 9.75586 12.207 11.5332 12.207Z" fill="white" fill-opacity="0.85"/>
 </g>
</svg>
