<svg version="1.1" xmlns="http://www.w3.org/2000/svg" xmlns:xlink="http://www.w3.org/1999/xlink" viewBox="0 0 20.2832 19.9316">
 <g>
  <rect height="19.9316" opacity="0" width="20.2832" x="0" y="0"/>
  <path d="M9.96094 19.9219C15.459 19.9219 19.9219 15.459 19.9219 9.96094C19.9219 4.46289 15.459 0 9.96094 0C4.46289 0 0 4.46289 0 9.96094C0 15.459 4.46289 19.9219 9.96094 19.9219ZM9.96094 18.2617C5.37109 18.2617 1.66016 14.5508 1.66016 9.96094C1.66016 5.37109 5.37109 1.66016 9.96094 1.66016C14.5508 1.66016 18.2617 5.37109 18.2617 9.96094C18.2617 14.5508 14.5508 18.2617 9.96094 18.2617Z" fill="var(--color-primary)"/>
  <path d="M10.3613 11.9531L10.3613 14.7038C10.6423 14.1134 11.033 13.5712 11.5223 13.1141L13.4178 15.0096C12.4136 15.6589 11.2004 16.0352 9.94141 16.0352C9.7168 16.0352 9.52148 15.8691 9.52148 15.6348L9.52148 11.1133ZM8.93555 13.7988L8.93555 15.6348C8.93555 15.7422 8.95508 15.8496 8.99414 15.9375C6.75781 15.6348 4.83398 14.1602 4.15039 12.1582C4.0332 11.8457 4.15039 11.6309 4.49219 11.6309C6.44531 11.6309 7.99805 12.5195 8.93555 13.7988ZM5.82031 5.16602L14.7656 14.1211C14.9414 14.2969 14.9414 14.5703 14.7656 14.7461C14.5996 14.9219 14.3066 14.9121 14.1406 14.7461L5.18555 5.79102C5.00977 5.625 5.00977 5.3418 5.18555 5.16602C5.36133 4.99023 5.63477 4.99023 5.82031 5.16602ZM15.7324 12.1582C15.572 12.6197 15.3452 13.0536 15.0611 13.45L13.5326 11.9231C14.098 11.7338 14.7206 11.6309 15.3906 11.6309C15.7227 11.6309 15.8496 11.8457 15.7324 12.1582ZM8.71191 10.3037C7.80522 9.97817 7.14397 9.28632 6.82324 8.41503ZM10.2441 5.2832L11.2012 6.5332L12.3145 5.38086C12.5098 5.17578 12.8125 5.21484 12.9199 5.45898C13.1738 6.03516 13.2812 6.60156 13.2812 7.1582C13.2812 8.40196 12.6915 9.49494 11.6796 10.0721L7.00881 5.40647C7.12481 5.21026 7.38815 5.19164 7.56836 5.38086L8.69141 6.5332L9.6582 5.2832C9.81445 5.06836 10.0879 5.06836 10.2441 5.2832Z" fill="var(--color-primary)"/>
 </g>
</svg>
