<svg version="1.1" xmlns="http://www.w3.org/2000/svg" xmlns:xlink="http://www.w3.org/1999/xlink" viewBox="0 0 19.043 15.8301">
 <g>
  <rect height="15.8301" opacity="0" width="19.043" x="0" y="0"/>
  <path d="M9.66797 15.7129C11.3184 15.7129 12.6074 14.4238 12.6074 12.7832C12.6074 11.1426 11.3184 9.85352 9.66797 9.85352C8.02734 9.85352 6.73828 11.1426 6.73828 12.7832C6.73828 14.4238 8.02734 15.7129 9.66797 15.7129ZM11.8359 3.69141L12.9785 4.60938L15.6641 1.875C15.8789 1.64062 16.1523 1.55273 16.4648 1.55273L17.959 1.55273C18.4082 1.55273 18.6816 1.26953 18.6816 0.849609C18.6816 0.429688 18.4082 0.146484 17.959 0.146484L16.6406 0.146484C15.8105 0.146484 15.0879 0.380859 14.5312 0.957031ZM0 0.15625L0 13.7012L5.69336 13.7012C5.63477 13.3984 5.5957 13.0957 5.5957 12.7832C5.5957 10.5078 7.39258 8.7207 9.66797 8.7207C11.9531 8.7207 13.7402 10.5078 13.7402 12.7832C13.7402 13.0957 13.7109 13.3984 13.6328 13.7012L14.2676 13.7012C16.4062 13.7012 17.3633 12.6855 17.3633 10.4199L17.3633 7.71484C17.3633 5.89844 16.4941 4.76562 14.6387 4.16016L13.0859 3.64258C11.1133 1.96289 8.39844 0 4.73633 0L3.25195 0C1.96289 0 0.908203 0.0390625 0 0.15625Z" fill="var(--color-primary)"/>
 </g>
</svg>
