<?xml version="1.0" encoding="UTF-8"?>
<!--Generator: Apple Native CoreSVG 326-->
<!DOCTYPE svg
PUBLIC "-//W3C//DTD SVG 1.1//EN"
       "http://www.w3.org/Graphics/SVG/1.1/DTD/svg11.dtd">
<svg version="1.1" xmlns="http://www.w3.org/2000/svg" xmlns:xlink="http://www.w3.org/1999/xlink" viewBox="0 0 27.0215 21.8848">
 <g>
  <rect height="21.8848" opacity="0" width="27.0215" x="0" y="0"/>
  <path d="M26.6602 9.93164L26.6602 8.30078C26.25 8.50586 25.8301 8.73047 25.4004 9.00391L21.8359 11.25L17.9297 11.7383C15.4883 12.0312 14.0137 13.5449 14.0137 15.625L14.0137 16.748C14.0137 18.7598 14.9023 19.6582 16.8262 19.6582L18.0762 19.6582L18.0762 18.2422L16.8262 18.2422C15.8691 18.2422 15.4297 17.7637 15.4297 16.6895L15.4297 15.625C15.4297 14.3164 16.4062 13.3398 18.1055 13.125L21.6309 12.6953C22.168 12.6367 22.5195 12.5098 22.8906 12.2852L26.1621 10.2246C26.3281 10.1172 26.4941 10.0195 26.6602 9.93164ZM26.6602 19.6582L26.6602 18.2422L22.7148 18.2422L22.7148 19.6582ZM20.498 21.5723C22.2559 21.5723 23.6328 20.1953 23.6328 18.4375C23.6328 16.6797 22.2559 15.3027 20.498 15.3027C18.7402 15.3027 17.373 16.6797 17.373 18.4375C17.373 20.1953 18.7402 21.5723 20.498 21.5723ZM20.498 20.2344C19.502 20.2344 18.7012 19.4434 18.7012 18.4375C18.7012 17.4219 19.502 16.6309 20.498 16.6309C21.5137 16.6309 22.3145 17.4219 22.3145 18.4375C22.3145 19.4434 21.5137 20.2344 20.498 20.2344ZM5.42969 21.5723C7.1875 21.5723 8.55469 20.1953 8.55469 18.4375C8.55469 16.6797 7.1875 15.3027 5.42969 15.3027C3.66211 15.3027 2.28516 16.6797 2.28516 18.4375C2.28516 20.1953 3.66211 21.5723 5.42969 21.5723ZM5.42969 20.2344C4.41406 20.2344 3.61328 19.4434 3.61328 18.4375C3.61328 17.4219 4.41406 16.6309 5.42969 16.6309C6.42578 16.6309 7.22656 17.4219 7.22656 18.4375C7.22656 19.4434 6.42578 20.2344 5.42969 20.2344ZM0 18.2422L0 19.6582L3.33008 19.6582L3.33008 18.2422ZM7.83203 19.6582L9.10156 19.6582C11.0449 19.6582 11.9043 18.75 11.9043 16.6895L11.9043 14.2578C11.9043 12.6172 11.1133 11.582 9.44336 11.0449L8.04688 10.5957C6.2207 9.02344 3.82812 7.30469 0.673828 7.30469L0 7.30469L0 8.73047L0.673828 8.73047C2.90039 8.73047 4.69727 9.60938 6.92383 11.5625C7.34375 11.9238 7.55859 12.0215 8.08594 12.1777L9.01367 12.4902C10.0293 12.8027 10.4883 13.3398 10.4883 14.2578L10.4883 16.6895C10.4883 17.7637 10.0586 18.2422 9.10156 18.2422L7.83203 18.2422Z" fill="white" fill-opacity="0.85"/>
  <path d="M13.3301 6.79688C13.7988 6.79688 14.0723 6.5332 14.082 6.02539L14.2188 0.878906C14.2285 0.380859 13.8379 0 13.3203 0C12.793 0 12.4219 0.371094 12.4316 0.869141L12.5586 6.02539C12.5684 6.52344 12.8418 6.79688 13.3301 6.79688ZM13.3301 9.9707C13.8965 9.9707 14.3848 9.53125 14.3848 8.95508C14.3848 8.38867 13.9062 7.94922 13.3301 7.94922C12.7539 7.94922 12.2754 8.39844 12.2754 8.95508C12.2754 9.52148 12.7637 9.9707 13.3301 9.9707Z" fill="white" fill-opacity="0.85"/>
 </g>
</svg>
