<?xml version="1.0" encoding="UTF-8"?>
<!--Generator: Apple Native CoreSVG 326-->
<!DOCTYPE svg
PUBLIC "-//W3C//DTD SVG 1.1//EN"
       "http://www.w3.org/Graphics/SVG/1.1/DTD/svg11.dtd">
<svg version="1.1" xmlns="http://www.w3.org/2000/svg" xmlns:xlink="http://www.w3.org/1999/xlink" viewBox="0 0 35.1562 24.1456">
 <g>
  <rect height="24.1456" opacity="0" width="35.1562" x="0" y="0"/>
  <path d="M3.10547 17.8589L3.7207 17.8589C3.66211 17.5562 3.62305 17.2535 3.62305 16.941C3.62305 14.6656 5.41016 12.8785 7.69531 12.8785C9.98047 12.8785 11.7676 14.6656 11.7676 16.941C11.7676 17.2535 11.7285 17.5562 11.6602 17.8589L23.1152 17.8589C23.0566 17.5562 23.0176 17.2535 23.0176 16.941C23.0176 14.6656 24.8145 12.8785 27.0898 12.8785C29.375 12.8785 31.1719 14.6656 31.1719 16.941C31.1719 17.2535 31.1328 17.5562 31.0645 17.8589L31.6895 17.8589C33.8281 17.8589 34.7949 16.8433 34.7949 14.5777L34.7949 11.8726C34.7949 10.0562 33.916 8.92338 32.0605 8.31791L30.5078 7.80033C28.5352 6.12065 25.8203 4.15776 22.1582 4.15776L20.6738 4.15776C16.6895 4.15776 15.0098 4.55815 12.6172 6.06205L8.66211 8.54252L4.33594 9.06986C1.63086 9.4019 0 11.0816 0 13.3863L0 14.6363C0 16.8628 0.986328 17.8589 3.10547 17.8589ZM7.69531 19.8706C9.3457 19.8706 10.6348 18.5816 10.6348 16.941C10.6348 15.3003 9.3457 14.0113 7.69531 14.0113C6.05469 14.0113 4.76562 15.3003 4.76562 16.941C4.76562 18.5816 6.05469 19.8706 7.69531 19.8706ZM27.0898 19.8706C28.7402 19.8706 30.0293 18.5816 30.0293 16.941C30.0293 15.3003 28.7402 14.0113 27.0898 14.0113C25.4492 14.0113 24.1602 15.3003 24.1602 16.941C24.1602 18.5816 25.4492 19.8706 27.0898 19.8706Z" fill="white" fill-opacity="0.85"/>
  <path d="M15.2246 19.4605C14.6973 19.4605 14.4727 19.8902 14.7559 20.3492L16.8652 23.816C17.1289 24.2652 17.6562 24.2456 17.9199 23.816L20.0488 20.3492C20.332 19.8902 20.0879 19.4605 19.5703 19.4605Z" fill="white" fill-opacity="0.85"/>
 </g>
</svg>
