<?xml version="1.0" encoding="UTF-8"?>
<!--Generator: Apple Native CoreSVG 326-->
<!DOCTYPE svg
PUBLIC "-//W3C//DTD SVG 1.1//EN"
       "http://www.w3.org/Graphics/SVG/1.1/DTD/svg11.dtd">
<svg version="1.1" xmlns="http://www.w3.org/2000/svg" xmlns:xlink="http://www.w3.org/1999/xlink" viewBox="0 0 22.998 25.8301">
 <g>
  <rect height="25.8301" opacity="0" width="22.998" x="0" y="0"/>
  <path d="M9.42383 25.8301L9.42383 20.9668C9.42383 19.2285 7.83203 18.2129 5.20508 18.2129C2.59766 18.2129 0.996094 19.2285 0.996094 20.9668L0.996094 25.8301ZM5.20508 24.4531C4.6875 24.4531 3.79883 24.4922 3.49609 24.4922C3.02734 24.4922 2.8125 24.2969 2.77344 23.7988L2.67578 22.7148C2.59766 21.8066 3.19336 21.4551 5.20508 21.4551C7.23633 21.4551 7.82227 21.8066 7.74414 22.7148L7.65625 23.7988C7.60742 24.2969 7.39258 24.4922 6.91406 24.4922C6.62109 24.4922 5.77148 24.4531 5.20508 24.4531ZM8.75977 24.1895L9.73633 24.1895C10.1172 24.1895 10.4102 23.8965 10.4102 23.5352L10.4102 23.252C10.4102 22.8809 10.1172 22.5879 9.73633 22.5879L8.75977 22.5879ZM1.66016 24.1895L1.66016 22.5879L0.683594 22.5879C0.302734 22.5879 0 22.8809 0 23.252L0 23.5352C0 23.8965 0.302734 24.1895 0.683594 24.1895Z" fill="white" fill-opacity="0.85"/>
  <path d="M9.73633 17.7246C10.9082 18.8867 12.3828 19.6191 13.9746 19.6191C14.375 19.6191 14.6387 19.3652 14.6387 19.0039C14.6387 18.6719 14.3848 18.457 13.9453 18.418C12.7051 18.3496 11.5039 17.832 10.5566 16.9043C9.61914 15.957 9.11133 14.7559 9.0332 13.5059C8.99414 13.0273 8.78906 12.832 8.4082 12.832C8.11523 12.832 7.82227 13.0469 7.85156 13.4766C7.94922 15.0781 8.57422 16.5527 9.73633 17.7246Z" fill="white" fill-opacity="0.85"/>
  <path d="M11.6113 15.8398C12.3926 16.6211 13.457 17.0117 14.1113 17.0117C14.4727 17.0117 14.7168 16.7676 14.7168 16.4355C14.7168 16.123 14.4922 15.8789 14.0234 15.8203C13.4473 15.752 12.9102 15.4883 12.4316 15.0293C11.9824 14.5508 11.7188 14.0039 11.6309 13.3594C11.5625 12.9395 11.3965 12.7539 11.0156 12.7539C10.6836 12.7441 10.4102 13.0176 10.459 13.4375C10.5566 14.3555 10.9473 15.1758 11.6113 15.8398Z" fill="white" fill-opacity="0.85"/>
  <path d="M17.4316 14.9121C20.3516 14.9121 21.6504 14.248 21.6504 12.5684L21.6504 2.76367C21.6504 1.02539 20.0586 0.00976562 17.4316 0.00976562C14.8145 0.00976562 13.2227 1.02539 13.2227 2.76367L13.2227 12.5684C13.2227 14.248 14.5215 14.9121 17.4316 14.9121ZM17.4316 6.24023C16.9043 6.24023 16.0156 6.29883 15.7227 6.29883C15.2441 6.29883 15.0195 6.09375 14.9805 5.5957L14.9023 4.51172C14.8145 3.60352 15.4102 3.25195 17.4316 3.25195C19.4531 3.25195 20.0488 3.60352 19.9707 4.51172L19.873 5.5957C19.8242 6.09375 19.6094 6.29883 19.1406 6.29883C18.8379 6.29883 17.998 6.24023 17.4316 6.24023ZM17.4316 12.5C15.4199 12.5 14.7852 12.207 14.9121 11.2695L14.9902 10.7324C15.0977 9.98047 15.7031 9.74609 17.4316 9.74609C19.1699 9.74609 19.7461 9.98047 19.8633 10.7324L19.9414 11.2695C20.0977 12.207 19.4531 12.5 17.4316 12.5ZM20.9766 5.98633L21.9531 5.98633C22.3438 5.98633 22.6367 5.69336 22.6367 5.33203L22.6367 5.04883C22.6367 4.67773 22.3438 4.38477 21.9531 4.38477L20.9766 4.38477ZM13.8867 5.98633L13.8867 4.38477L12.9004 4.38477C12.5293 4.38477 12.2266 4.67773 12.2266 5.04883L12.2266 5.33203C12.2266 5.69336 12.5293 5.98633 12.9004 5.98633Z" fill="white" fill-opacity="0.85"/>
 </g>
</svg>
