<?xml version="1.0" encoding="UTF-8"?>
<!--Generator: Apple Native CoreSVG 326-->
<!DOCTYPE svg
PUBLIC "-//W3C//DTD SVG 1.1//EN"
       "http://www.w3.org/Graphics/SVG/1.1/DTD/svg11.dtd">
<svg version="1.1" xmlns="http://www.w3.org/2000/svg" xmlns:xlink="http://www.w3.org/1999/xlink" viewBox="0 0 19.4043 26.3218">
 <g>
  <rect height="26.3218" opacity="0" width="19.4043" x="0" y="0"/>
  <path d="M9.52148 21.3884C11.5137 21.3884 14.0332 21.3201 15.8203 21.2127L15.8203 22.5896C15.8203 23.1853 16.2793 23.6345 16.875 23.6345L17.9785 23.6345C18.5742 23.6345 19.043 23.1853 19.043 22.5896L19.043 17.9314C19.043 16.5838 18.7695 15.8318 18.0273 14.8748L17.3535 14.0056C17.0605 12.5701 16.5332 11.0564 16.2598 10.4705C15.8203 9.56227 15 9.0154 13.9355 8.88844C13.4082 8.82008 11.5918 8.77126 9.52148 8.77126C7.45117 8.77126 5.63477 8.82008 5.10742 8.88844C4.04297 9.0154 3.21289 9.56227 2.7832 10.4705C2.50977 11.0564 1.98242 12.5701 1.68945 14.0056L1.01562 14.8748C0.273438 15.8318 0 16.5838 0 17.9314L0 22.5896C0 23.1853 0.46875 23.6345 1.06445 23.6345L2.16797 23.6345C2.76367 23.6345 3.22266 23.1853 3.22266 22.5896L3.22266 21.2127C5.00977 21.3201 7.5293 21.3884 9.52148 21.3884ZM3.36914 13.3416C3.55469 12.4627 3.94531 11.3298 4.20898 10.8611C4.42383 10.4802 4.6582 10.324 5.08789 10.2556C5.69336 10.1873 7.05078 10.1287 9.52148 10.1287C11.9922 10.1287 13.3496 10.1677 13.9551 10.2556C14.3848 10.324 14.6094 10.4802 14.834 10.8611C15.1074 11.3201 15.459 12.4627 15.6738 13.3416C15.752 13.6345 15.625 13.7517 15.3223 13.7322C13.9941 13.6345 12.4121 13.5564 9.52148 13.5564C6.63086 13.5564 5.04883 13.6345 3.7207 13.7322C3.41797 13.7517 3.30078 13.6345 3.36914 13.3416ZM3.75977 19.24C3.03711 19.24 2.4707 18.6834 2.4707 17.9509C2.4707 17.2185 3.03711 16.6716 3.75977 16.6716C4.49219 16.6716 5.03906 17.2185 5.03906 17.9509C5.03906 18.6834 4.49219 19.24 3.75977 19.24ZM7.41211 18.9177C6.86523 18.9177 6.48438 18.5466 6.48438 17.9998C6.48438 17.4431 6.86523 17.072 7.41211 17.072L11.6309 17.072C12.1777 17.072 12.5586 17.4431 12.5586 17.9998C12.5586 18.5466 12.1777 18.9177 11.6309 18.9177ZM15.2832 19.24C14.5508 19.24 14.0039 18.6834 14.0039 17.9509C14.0039 17.2185 14.5508 16.6716 15.2832 16.6716C16.0059 16.6716 16.5625 17.2185 16.5625 17.9509C16.5625 18.6834 16.0059 19.24 15.2832 19.24Z" fill="white" fill-opacity="0.85"/>
  <path d="M9.48242 5.08961C7.38281 5.08961 5.47852 4.36696 4.01367 3.0486C3.61328 2.69704 3.16406 2.59938 2.80273 2.91188C2.44141 3.22438 2.44141 3.77126 2.85156 4.15211C4.61914 5.77321 6.95312 6.68141 9.48242 6.68141C12.0117 6.68141 14.3555 5.77321 16.1133 4.15211C16.5332 3.77126 16.5332 3.22438 16.1621 2.91188C15.8105 2.59938 15.3613 2.69704 14.9512 3.0486C13.4961 4.36696 11.5918 5.08961 9.48242 5.08961Z" fill="white" fill-opacity="0.85"/>
  <path d="M9.50195 1.18336C8.48633 1.18336 7.56836 0.870865 6.81641 0.304459C6.38672 0.0017242 5.95703-0.134995 5.60547 0.177505C5.23438 0.499771 5.22461 1.08571 5.67383 1.43727C6.72852 2.28688 8.06641 2.77516 9.50195 2.77516C10.9375 2.77516 12.2754 2.28688 13.3301 1.43727C13.7793 1.08571 13.7695 0.499771 13.3984 0.177505C13.0469-0.134995 12.6074 0.0017242 12.1875 0.304459C11.4648 0.890396 10.5176 1.18336 9.50195 1.18336Z" fill="white" fill-opacity="0.85"/>
 </g>
</svg>
