<?xml version="1.0" encoding="UTF-8"?>
<!--Generator: Apple Native CoreSVG 326-->
<!DOCTYPE svg
PUBLIC "-//W3C//DTD SVG 1.1//EN"
       "http://www.w3.org/Graphics/SVG/1.1/DTD/svg11.dtd">
<svg version="1.1" xmlns="http://www.w3.org/2000/svg" xmlns:xlink="http://www.w3.org/1999/xlink" viewBox="0 0 23.8379 18.4668">
 <g>
  <rect height="18.4668" opacity="0" width="23.8379" x="0" y="0"/>
  <path d="M4.92188 18.4473L17.6367 18.4473C20.9277 18.4473 23.4766 15.957 23.4766 12.7734C23.4766 9.56055 20.8789 7.13867 17.3242 7.13867C16.0254 4.56055 13.6426 2.98828 10.752 2.98828C6.96289 2.98828 3.75 5.92773 3.4082 9.82422C1.45508 10.3809 0.136719 12.0215 0.136719 14.0918C0.136719 16.5039 1.88477 18.4473 4.92188 18.4473ZM4.90234 16.875C2.90039 16.875 1.70898 15.791 1.70898 14.1406C1.70898 12.7344 2.60742 11.7285 4.18945 11.3086C4.73633 11.1719 4.94141 10.918 4.98047 10.3516C5.21484 7.04102 7.69531 4.56055 10.752 4.56055C13.0957 4.56055 14.9219 5.86914 16.0156 8.11523C16.2402 8.59375 16.5234 8.75977 17.1191 8.75977C20.1758 8.75977 21.9043 10.6055 21.9043 12.8125C21.9043 15.0879 20.0781 16.875 17.7441 16.875ZM1.36719 8.88672C2.11914 8.88672 2.72461 8.28125 2.72461 7.51953C2.72461 6.76758 2.11914 6.16211 1.36719 6.16211C0.605469 6.16211 0 6.76758 0 7.51953C0 8.28125 0.605469 8.88672 1.36719 8.88672ZM15.6836 2.56836C16.3867 2.56836 16.9629 1.99219 16.9629 1.28906C16.9629 0.585938 16.3867 0 15.6836 0C14.9805 0 14.4043 0.585938 14.4043 1.28906C14.4043 1.99219 14.9805 2.56836 15.6836 2.56836ZM19.7949 5.94727C20.8496 5.94727 21.6992 5.09766 21.6992 4.02344C21.6992 2.95898 20.8496 2.10938 19.7949 2.10938C18.7207 2.10938 17.8613 2.95898 17.8613 4.02344C17.8613 5.09766 18.7207 5.94727 19.7949 5.94727Z" fill="white" fill-opacity="0.85"/>
  <path d="M8.59375 15.0781C9.86328 15.0781 10.6445 14.1602 10.6738 13.1641C10.6836 12.8223 10.4785 12.5879 10.1758 12.5879C9.88281 12.5879 9.72656 12.7539 9.64844 13.0859C9.54102 13.584 9.25781 14.1113 8.59375 14.1113C7.61719 14.1113 7.31445 13.0762 7.31445 11.9531C7.31445 10.8984 7.63672 9.83398 8.58398 9.83398C9.24805 9.83398 9.51172 10.3516 9.61914 10.8496C9.69727 11.1816 9.85352 11.3477 10.1465 11.3477C10.4492 11.3477 10.6543 11.123 10.6445 10.7715C10.6152 9.77539 9.83398 8.86719 8.56445 8.86719C6.96289 8.86719 6.24023 10.2539 6.24023 11.9531C6.24023 13.623 6.9043 15.0781 8.59375 15.0781ZM13.3203 15.0781C14.7363 15.0781 15.625 13.8672 15.625 11.9727C15.625 10.0684 14.7363 8.86719 13.3105 8.86719C11.8848 8.86719 10.9863 10.0684 10.9863 11.9727C10.9863 13.8672 11.8848 15.0781 13.3203 15.0781ZM13.3203 14.1113C12.5391 14.1113 12.0605 13.3203 12.0605 11.9727C12.0605 10.625 12.5391 9.83398 13.3105 9.83398C14.082 9.83398 14.5605 10.625 14.5605 11.9727C14.5605 13.3203 14.082 14.1113 13.3203 14.1113ZM16.2793 15.4688L17.8613 15.4688C18.0566 15.4688 18.2129 15.293 18.2129 15.0977C18.2129 14.9121 18.0469 14.7461 17.8613 14.7461L17.1094 14.7461L17.4219 14.4141C17.8125 14.0332 18.0859 13.6719 18.0859 13.2812C18.0859 12.7344 17.6367 12.334 17.0117 12.334C16.3477 12.334 15.9375 12.832 15.9375 13.252C15.9375 13.4961 16.1133 13.6426 16.3086 13.6426C16.543 13.6426 16.6504 13.4766 16.709 13.3398C16.7676 13.1543 16.8652 13.0566 17.0215 13.0566C17.168 13.0566 17.2754 13.1641 17.2754 13.3008C17.2754 13.5254 17.0605 13.7793 16.8457 13.9941L16.0938 14.7656C16.0059 14.8535 15.9473 15 15.9473 15.1172C15.9473 15.3125 16.0938 15.4688 16.2793 15.4688Z" fill="white" fill-opacity="0.85"/>
 </g>
</svg>
