<?xml version="1.0" encoding="UTF-8"?>
<!--Generator: Apple Native CoreSVG 326-->
<!DOCTYPE svg
PUBLIC "-//W3C//DTD SVG 1.1//EN"
       "http://www.w3.org/Graphics/SVG/1.1/DTD/svg11.dtd">
<svg version="1.1" xmlns="http://www.w3.org/2000/svg" xmlns:xlink="http://www.w3.org/1999/xlink" viewBox="0 0 22.4661 20.7129">
 <g>
  <rect height="20.7129" opacity="0" width="22.4661" x="0" y="0"/>
  <path d="M0.163739 16.5332C1.02311 19.7168 1.91179 20.6836 3.9235 20.6836L15.5153 20.6836C16.9606 20.6836 17.9274 19.9023 18.2887 18.4375L21.9606 3.53516C22.4977 1.36719 21.4821 0 19.5778 0C17.2829 0 15.4274 2.17773 16.3161 5.21484L16.5016 4.26758C14.2262 5.87891 13.0251 9.3457 13.3376 13.4961L13.7868 12.9199C11.6579 12.5488 9.17741 12.3438 6.71647 12.3438C1.49186 12.3438-0.637042 13.6133 0.163739 16.5332ZM1.66765 16.1133C1.23796 14.5508 2.42936 13.916 6.71647 13.916C10.193 13.916 12.693 14.3848 13.8063 14.4629C14.402 14.4727 14.7731 14.0918 14.7633 13.4961C14.695 9.82422 15.6618 6.86523 17.3708 5.58594C17.7419 5.2832 17.82 5.08789 17.7126 4.42383C17.4489 2.58789 18.4645 1.57227 19.5778 1.57227C20.3005 1.57227 20.6911 2.16797 20.4567 3.125L16.7555 18.0566C16.5895 18.7402 16.1696 19.1113 15.5153 19.1113L3.9235 19.1113C2.82975 19.1113 2.38054 18.7598 1.66765 16.1133Z" fill="white" fill-opacity="0.85"/>
  <path d="M4.69499 8.93555C6.47233 8.93555 7.6735 7.99805 7.6735 6.5918C7.6735 5.58594 6.92155 4.78516 5.8864 4.6582L5.8864 4.6582C6.72624 4.52148 7.40007 3.74023 7.40007 2.83203C7.40007 1.63086 6.30632 0.751953 4.76335 0.751953C3.36686 0.751953 2.31218 1.40625 2.06804 2.45117C2.03874 2.56836 2.02897 2.64648 2.02897 2.79297C2.02897 3.125 2.27311 3.36914 2.64421 3.36914C2.94694 3.36914 3.14225 3.22266 3.24968 2.91016C3.44499 2.25586 4.00163 1.88477 4.74382 1.88477C5.56413 1.88477 6.09147 2.29492 6.09147 2.96875C6.09147 3.66211 5.49577 4.16992 4.70475 4.16992L4.16765 4.16992C3.85515 4.16992 3.611 4.39453 3.611 4.7168C3.611 5.03906 3.84538 5.27344 4.16765 5.27344L4.76335 5.27344C5.71061 5.27344 6.36491 5.78125 6.36491 6.54297C6.36491 7.28516 5.70085 7.79297 4.71452 7.79297C3.90397 7.79297 3.3278 7.43164 3.09343 6.76758C2.97624 6.46484 2.78093 6.32812 2.48796 6.32812C2.12663 6.32812 1.87272 6.57227 1.87272 6.92383C1.87272 7.05078 1.88249 7.10938 1.91179 7.22656C2.1364 8.23242 3.2985 8.93555 4.69499 8.93555Z" fill="white" fill-opacity="0.85"/>
 </g>
</svg>
