<?xml version="1.0" encoding="UTF-8"?>
<!--Generator: Apple Native CoreSVG 326-->
<!DOCTYPE svg
PUBLIC "-//W3C//DTD SVG 1.1//EN"
       "http://www.w3.org/Graphics/SVG/1.1/DTD/svg11.dtd">
<svg version="1.1" xmlns="http://www.w3.org/2000/svg" xmlns:xlink="http://www.w3.org/1999/xlink" viewBox="0 0 22.168 20.8496">
 <g>
  <rect height="20.8496" opacity="0" width="22.168" x="0" y="0"/>
  <path d="M12.0996 0.341797L20.4395 5.15625C20.8008 5.36133 20.9668 5.61523 20.9668 5.9082C20.9668 6.30859 20.6543 6.69922 20.1172 6.69922L19.2578 6.69922L19.2578 17.9297L19.8828 17.9297C20.2832 17.9297 20.5078 18.1641 20.5078 18.5547L20.5078 19.2676L21.0156 19.2676C21.4453 19.2676 21.8066 19.6191 21.8066 20.0488C21.8066 20.4785 21.4453 20.8398 21.0156 20.8398L0.78125 20.8398C0.351562 20.8398 0 20.4785 0 20.0488C0 19.6191 0.351562 19.2676 0.78125 19.2676L1.29883 19.2676L1.29883 18.5547C1.29883 18.1641 1.5332 17.9297 1.93359 17.9297L2.54883 17.9297L2.54883 6.69922L1.68945 6.69922C1.15234 6.69922 0.839844 6.30859 0.839844 5.9082C0.839844 5.61523 0.996094 5.36133 1.36719 5.15625L9.70703 0.341797C10.0781 0.117188 10.498 0 10.8984 0C11.2988 0 11.709 0.117188 12.0996 0.341797ZM10.5762 5.92773L10.5762 6.72852C8.39844 6.91406 7.14844 8.69141 7.14844 11.0645C7.14844 13.3984 8.33008 15.2246 10.5762 15.4199L10.5762 16.2402C10.5762 16.4258 10.7227 16.5723 10.9082 16.5723C11.1035 16.5723 11.2305 16.4355 11.2305 16.2402L11.2305 15.4297C12.6074 15.3613 13.8184 14.7168 14.2578 13.4863C14.3164 13.3398 14.3457 13.2031 14.3457 13.0273C14.3457 12.7148 14.1309 12.5098 13.8184 12.5098C13.5156 12.5098 13.3594 12.6758 13.2617 12.9688C12.998 13.7988 12.1973 14.3359 11.2305 14.4141L11.2305 7.72461C12.1582 7.82227 12.9492 8.4082 13.2031 9.19922C13.3008 9.49219 13.4375 9.64844 13.75 9.64844C14.0625 9.64844 14.2773 9.45312 14.2773 9.13086C14.2773 8.90625 14.209 8.7207 14.1309 8.54492C13.6328 7.42188 12.5 6.78711 11.2305 6.71875L11.2305 5.92773C11.2305 5.73242 11.1035 5.5957 10.9082 5.5957C10.7227 5.5957 10.5762 5.73242 10.5762 5.92773ZM10.5762 14.3945C9.0332 14.1699 8.33984 12.6953 8.33984 11.0645C8.33984 9.42383 9.07227 7.96875 10.5762 7.75391Z" fill="white" fill-opacity="0.85"/>
 </g>
</svg>
