<?xml version="1.0" encoding="UTF-8"?>
<!--Generator: Apple Native CoreSVG 326-->
<!DOCTYPE svg
PUBLIC "-//W3C//DTD SVG 1.1//EN"
       "http://www.w3.org/Graphics/SVG/1.1/DTD/svg11.dtd">
<svg version="1.1" xmlns="http://www.w3.org/2000/svg" xmlns:xlink="http://www.w3.org/1999/xlink" viewBox="0 0 18.3398 17.9785">
 <g>
  <rect height="17.9785" opacity="0" width="18.3398" x="0" y="0"/>
  <path d="M17.9785 3.02734L17.9785 14.9609C17.9785 16.9727 16.9629 17.9785 14.9121 17.9785L3.06641 17.9785C1.02539 17.9785 0 16.9727 0 14.9609L0 3.02734C0 1.01562 1.02539 0 3.06641 0L14.9121 0C16.9629 0 17.9785 1.01562 17.9785 3.02734ZM8.66211 3.75977L8.66211 4.56055C6.48438 4.74609 5.23438 6.5332 5.23438 8.89648C5.23438 11.2305 6.41602 13.0566 8.66211 13.252L8.66211 14.0723C8.66211 14.2676 8.80859 14.4043 8.99414 14.4043C9.18945 14.4043 9.31641 14.2773 9.31641 14.0723L9.31641 13.2617C10.6934 13.2031 11.9043 12.5488 12.3438 11.3281C12.4023 11.1719 12.4316 11.0352 12.4316 10.8691C12.4316 10.5469 12.2266 10.3516 11.9043 10.3516C11.6016 10.3516 11.4453 10.5176 11.3574 10.8008C11.084 11.6309 10.2832 12.168 9.31641 12.2559L9.31641 5.56641C10.2441 5.6543 11.0449 6.24023 11.2891 7.03125C11.3867 7.32422 11.5332 7.48047 11.8359 7.48047C12.1484 7.48047 12.3633 7.28516 12.3633 6.96289C12.3633 6.73828 12.2949 6.55273 12.2168 6.37695C11.7188 5.25391 10.5859 4.61914 9.31641 4.55078L9.31641 3.75977C9.31641 3.57422 9.18945 3.42773 8.99414 3.42773C8.80859 3.42773 8.66211 3.57422 8.66211 3.75977ZM8.66211 12.2266C7.11914 12.002 6.42578 10.5273 6.42578 8.89648C6.42578 7.25586 7.16797 5.80078 8.66211 5.58594Z" fill="white" fill-opacity="0.85"/>
 </g>
</svg>
