<?xml version="1.0" encoding="UTF-8"?>
<!--Generator: Apple Native CoreSVG 326-->
<!DOCTYPE svg
PUBLIC "-//W3C//DTD SVG 1.1//EN"
       "http://www.w3.org/Graphics/SVG/1.1/DTD/svg11.dtd">
<svg version="1.1" xmlns="http://www.w3.org/2000/svg" xmlns:xlink="http://www.w3.org/1999/xlink" viewBox="0 0 18.3398 17.9785">
 <g>
  <rect height="17.9785" opacity="0" width="18.3398" x="0" y="0"/>
  <path d="M17.9785 3.02734L17.9785 14.9609C17.9785 16.9727 16.9629 17.9785 14.9121 17.9785L3.06641 17.9785C1.02539 17.9785 0 16.9727 0 14.9609L0 3.02734C0 1.01562 1.02539 0 3.06641 0L14.9121 0C16.9629 0 17.9785 1.01562 17.9785 3.02734ZM4.02344 6.94336C3.75 7.23633 3.75 7.69531 4.0625 8.01758L8.00781 12.207C8.64258 12.8809 9.375 12.8809 10.0098 12.207L13.9551 8.01758C14.2676 7.69531 14.2773 7.22656 13.9941 6.94336C13.6719 6.63086 13.1934 6.62109 12.9102 6.92383L9.01367 11.0547L5.10742 6.92383C4.82422 6.62109 4.33594 6.62109 4.02344 6.94336Z" fill="white" fill-opacity="0.85"/>
 </g>
</svg>
