<?xml version="1.0" encoding="UTF-8"?>
<!--Generator: Apple Native CoreSVG 326-->
<!DOCTYPE svg
PUBLIC "-//W3C//DTD SVG 1.1//EN"
       "http://www.w3.org/Graphics/SVG/1.1/DTD/svg11.dtd">
<svg version="1.1" xmlns="http://www.w3.org/2000/svg" xmlns:xlink="http://www.w3.org/1999/xlink" viewBox="0 0 20.2832 19.9316">
 <g>
  <rect height="19.9316" opacity="0" width="20.2832" x="0" y="0"/>
  <path d="M9.96094 19.9219C15.459 19.9219 19.9219 15.459 19.9219 9.96094C19.9219 4.46289 15.459 0 9.96094 0C4.46289 0 0 4.46289 0 9.96094C0 15.459 4.46289 19.9219 9.96094 19.9219ZM9.96094 18.2617C5.37109 18.2617 1.66016 14.5508 1.66016 9.96094C1.66016 5.37109 5.37109 1.66016 9.96094 1.66016C14.5508 1.66016 18.2617 5.37109 18.2617 9.96094C18.2617 14.5508 14.5508 18.2617 9.96094 18.2617Z" fill="white" fill-opacity="0.85"/>
  <path d="M7.73438 14.7949C7.98828 15.0391 8.49609 15.0195 8.76953 14.7656L12.832 10.9277C13.3887 10.4199 13.3887 9.52148 12.832 9.01367L8.76953 5.17578C8.4668 4.89258 8.01758 4.88281 7.74414 5.14648C7.43164 5.42969 7.42188 5.91797 7.72461 6.19141L11.7383 9.96094L7.72461 13.75C7.43164 14.0234 7.43164 14.4922 7.73438 14.7949Z" fill="white" fill-opacity="0.85"/>
 </g>
</svg>
