<?xml version="1.0" encoding="UTF-8"?>
<!--Generator: Apple Native CoreSVG 326-->
<!DOCTYPE svg
PUBLIC "-//W3C//DTD SVG 1.1//EN"
       "http://www.w3.org/Graphics/SVG/1.1/DTD/svg11.dtd">
<svg version="1.1" xmlns="http://www.w3.org/2000/svg" xmlns:xlink="http://www.w3.org/1999/xlink" viewBox="0 0 16.4355 17.6465">
 <g>
  <rect height="17.6465" opacity="0" width="16.4355" x="0" y="0"/>
  <path d="M14.2773 9.6582C14.2773 10.1562 14.6777 10.5566 15.1758 10.5566C15.6738 10.5566 16.0742 10.1562 16.0742 9.6582C16.0742 9.16016 15.6738 8.75977 15.1758 8.75977C14.6777 8.75977 14.2773 9.16016 14.2773 9.6582ZM12.4902 11.4355C12.4902 11.9336 12.8906 12.334 13.3887 12.334C13.8867 12.334 14.2871 11.9336 14.2871 11.4355C14.2871 10.9375 13.8867 10.5371 13.3887 10.5371C12.8906 10.5371 12.4902 10.9375 12.4902 11.4355ZM10.7031 13.2031C10.7031 13.7012 11.1035 14.1016 11.6016 14.1016C12.0996 14.1016 12.5 13.7012 12.5 13.2031C12.5 12.7051 12.0996 12.3047 11.6016 12.3047C11.1035 12.3047 10.7031 12.7051 10.7031 13.2031ZM8.92578 14.9805C8.92578 15.4785 9.31641 15.8789 9.82422 15.8789C10.3223 15.8789 10.7227 15.4785 10.7227 14.9805C10.7227 14.4824 10.3223 14.082 9.82422 14.082C9.31641 14.082 8.92578 14.4824 8.92578 14.9805ZM7.13867 16.748C7.13867 17.2461 7.53906 17.6465 8.03711 17.6465C8.53516 17.6465 8.93555 17.2461 8.93555 16.748C8.93555 16.25 8.53516 15.8496 8.03711 15.8496C7.53906 15.8496 7.13867 16.25 7.13867 16.748ZM5.35156 14.9805C5.35156 15.4785 5.75195 15.8789 6.25 15.8789C6.74805 15.8789 7.14844 15.4785 7.14844 14.9805C7.14844 14.4824 6.74805 14.082 6.25 14.082C5.75195 14.082 5.35156 14.4824 5.35156 14.9805ZM3.56445 13.2031C3.56445 13.7012 3.96484 14.1016 4.46289 14.1016C4.9707 14.1016 5.36133 13.7012 5.36133 13.2031C5.36133 12.7051 4.9707 12.3047 4.46289 12.3047C3.96484 12.3047 3.56445 12.7051 3.56445 13.2031ZM1.78711 11.4355C1.78711 11.9336 2.1875 12.334 2.68555 12.334C3.18359 12.334 3.58398 11.9336 3.58398 11.4355C3.58398 10.9375 3.18359 10.5371 2.68555 10.5371C2.1875 10.5371 1.78711 10.9375 1.78711 11.4355ZM0 9.6582C0 10.1562 0.400391 10.5566 0.898438 10.5566C1.39648 10.5566 1.79688 10.1562 1.79688 9.6582C1.79688 9.16016 1.39648 8.75977 0.898438 8.75977C0.400391 8.75977 0 9.16016 0 9.6582Z" fill="white" fill-opacity="0.85"/>
  <path d="M14.2773 0.9375C14.2773 1.43555 14.6777 1.83594 15.1758 1.83594C15.6738 1.83594 16.0742 1.43555 16.0742 0.9375C16.0742 0.429688 15.6738 0.0390625 15.1758 0.0390625C14.6777 0.0390625 14.2773 0.429688 14.2773 0.9375ZM12.4902 2.70508C12.4902 3.20312 12.8906 3.60352 13.3887 3.60352C13.8867 3.60352 14.2871 3.20312 14.2871 2.70508C14.2871 2.20703 13.8867 1.80664 13.3887 1.80664C12.8906 1.80664 12.4902 2.20703 12.4902 2.70508ZM10.7031 4.47266C10.7031 4.9707 11.1035 5.37109 11.6016 5.37109C12.0996 5.37109 12.5 4.9707 12.5 4.47266C12.5 3.97461 12.0996 3.57422 11.6016 3.57422C11.1035 3.57422 10.7031 3.97461 10.7031 4.47266ZM8.92578 6.25C8.92578 6.74805 9.31641 7.14844 9.82422 7.14844C10.3223 7.14844 10.7227 6.74805 10.7227 6.25C10.7227 5.75195 10.3223 5.35156 9.82422 5.35156C9.31641 5.35156 8.92578 5.75195 8.92578 6.25ZM7.13867 8.01758C7.13867 8.51562 7.53906 8.91602 8.03711 8.91602C8.53516 8.91602 8.93555 8.51562 8.93555 8.01758C8.93555 7.51953 8.53516 7.11914 8.03711 7.11914C7.53906 7.11914 7.13867 7.51953 7.13867 8.01758ZM5.35156 6.25C5.35156 6.74805 5.75195 7.14844 6.25 7.14844C6.74805 7.14844 7.14844 6.74805 7.14844 6.25C7.14844 5.75195 6.74805 5.35156 6.25 5.35156C5.75195 5.35156 5.35156 5.75195 5.35156 6.25ZM3.56445 4.47266C3.56445 4.9707 3.96484 5.37109 4.46289 5.37109C4.9707 5.37109 5.36133 4.9707 5.36133 4.47266C5.36133 3.97461 4.9707 3.57422 4.46289 3.57422C3.96484 3.57422 3.56445 3.97461 3.56445 4.47266ZM1.78711 2.70508C1.78711 3.20312 2.1875 3.60352 2.68555 3.60352C3.18359 3.60352 3.58398 3.20312 3.58398 2.70508C3.58398 2.20703 3.18359 1.80664 2.68555 1.80664C2.1875 1.80664 1.78711 2.20703 1.78711 2.70508ZM0 0.9375C0 1.43555 0.400391 1.83594 0.898438 1.83594C1.39648 1.83594 1.79688 1.43555 1.79688 0.9375C1.79688 0.429688 1.39648 0.0390625 0.898438 0.0390625C0.400391 0.0390625 0 0.429688 0 0.9375Z" fill="white" fill-opacity="0.85"/>
 </g>
</svg>
