<?xml version="1.0" encoding="UTF-8"?>
<!--Generator: Apple Native CoreSVG 326-->
<!DOCTYPE svg
PUBLIC "-//W3C//DTD SVG 1.1//EN"
       "http://www.w3.org/Graphics/SVG/1.1/DTD/svg11.dtd">
<svg version="1.1" xmlns="http://www.w3.org/2000/svg" xmlns:xlink="http://www.w3.org/1999/xlink" viewBox="0 0 17.7734 13.3301">
 <g>
  <rect height="13.3301" opacity="0" width="17.7734" x="0" y="0"/>
  <path d="M0.615234 10.3125L7.28516 12.9297C7.73438 13.1055 8.27148 13.3203 8.71094 13.3203C9.14062 13.3203 9.6875 13.1055 10.1367 12.9297L16.7969 10.3125C17.1777 10.166 17.4121 9.83398 17.4121 9.47266C17.4121 8.89648 16.9922 8.4668 16.4258 8.4668C16.1328 8.4668 15.7422 8.63281 15.498 8.7207L8.01758 11.6602L9.39453 11.6602L1.91406 8.7207C1.66992 8.63281 1.28906 8.4668 0.986328 8.4668C0.419922 8.4668 0 8.89648 0 9.47266C0 9.83398 0.244141 10.166 0.615234 10.3125ZM0.615234 3.00781C0.244141 3.1543 0 3.48633 0 3.84766C0 4.42383 0.419922 4.85352 0.986328 4.85352C1.28906 4.85352 1.66992 4.6875 1.91406 4.59961L9.39453 1.66016L8.01758 1.66016L15.498 4.59961C15.7422 4.6875 16.1328 4.85352 16.4258 4.85352C16.9922 4.85352 17.4121 4.42383 17.4121 3.84766C17.4121 3.48633 17.1777 3.1543 16.7969 3.00781L10.1367 0.390625C9.6875 0.214844 9.14062 0 8.71094 0C8.27148 0 7.73438 0.214844 7.28516 0.390625Z" fill="white" fill-opacity="0.85"/>
 </g>
</svg>
