<svg version="1.1" xmlns="http://www.w3.org/2000/svg" xmlns:xlink="http://www.w3.org/1999/xlink" viewBox="0 0 18.3398 17.9785">
 <g>
  <rect height="17.9785" opacity="0" width="18.3398" x="0" y="0"/>
  <path d="M17.9785 3.02734L17.9785 14.9609C17.9785 16.9727 16.9629 17.9785 14.9121 17.9785L3.06641 17.9785C1.02539 17.9785 0 16.9727 0 14.9609L0 3.02734C0 1.01562 1.02539 0 3.06641 0L14.9121 0C16.9629 0 17.9785 1.01562 17.9785 3.02734ZM9.89258 4.19922L5.83008 8.03711C5.27344 8.54492 5.27344 9.44336 5.83008 9.95117L9.89258 13.7891C10.166 14.043 10.6738 14.0625 10.9277 13.8184C11.2305 13.5156 11.2207 13.0469 10.9375 12.7734L6.92383 8.98438L10.9375 5.21484C11.2305 4.94141 11.2207 4.45312 10.918 4.16992C10.6445 3.90625 10.1953 3.91602 9.89258 4.19922Z" fill="var(--color-primary)"/>
 </g>
</svg>
