<svg version="1.1" xmlns="http://www.w3.org/2000/svg" xmlns:xlink="http://www.w3.org/1999/xlink" viewBox="0 0 23.7598 16.9824">
 <g>
  <rect height="16.9824" opacity="0" width="23.7598" x="0" y="0"/>
  <path d="M8.02734 16.6992C8.19336 16.8652 8.4082 16.9629 8.66211 16.9629C9.16992 16.9629 9.55078 16.582 9.55078 16.0742C9.55078 15.8301 9.45312 15.6055 9.29688 15.4395L1.65039 7.95898L1.65039 9.00391L9.29688 1.5332C9.45312 1.36719 9.55078 1.13281 9.55078 0.898438C9.55078 0.390625 9.16992 0 8.66211 0C8.4082 0 8.19336 0.0976562 8.02734 0.263672L0.292969 7.83203C0.107422 7.98828 0 8.23242 0 8.48633C0 8.73047 0.0976562 8.95508 0.283203 9.14062ZM15.3711 16.6992L23.1152 9.14062C23.291 8.95508 23.3984 8.73047 23.3984 8.48633C23.3984 8.23242 23.291 7.98828 23.1055 7.83203L15.3711 0.263672C15.2051 0.0976562 14.9902 0 14.7363 0C14.2285 0 13.8477 0.390625 13.8477 0.898438C13.8477 1.13281 13.9453 1.36719 14.1016 1.5332L21.7383 9.00391L21.7383 7.95898L14.1016 15.4395C13.9453 15.6055 13.8477 15.8301 13.8477 16.0742C13.8477 16.582 14.2285 16.9629 14.7363 16.9629C14.9902 16.9629 15.2051 16.8652 15.3711 16.6992Z" fill="var(--color-primary)"/>
 </g>
</svg>
