<?xml version="1.0" encoding="UTF-8"?>
<!--Generator: Apple Native CoreSVG 326-->
<!DOCTYPE svg
PUBLIC "-//W3C//DTD SVG 1.1//EN"
       "http://www.w3.org/Graphics/SVG/1.1/DTD/svg11.dtd">
<svg version="1.1" xmlns="http://www.w3.org/2000/svg" xmlns:xlink="http://www.w3.org/1999/xlink" viewBox="0 0 20.2832 19.9316">
 <g>
  <rect height="19.9316" opacity="0" width="20.2832" x="0" y="0"/>
  <path d="M9.96094 19.9219C15.459 19.9219 19.9219 15.459 19.9219 9.96094C19.9219 4.46289 15.459 0 9.96094 0C4.46289 0 0 4.46289 0 9.96094C0 15.459 4.46289 19.9219 9.96094 19.9219ZM9.96094 18.2617C5.37109 18.2617 1.66016 14.5508 1.66016 9.96094C1.66016 5.37109 5.37109 1.66016 9.96094 1.66016C14.5508 1.66016 18.2617 5.37109 18.2617 9.96094C18.2617 14.5508 14.5508 18.2617 9.96094 18.2617Z" fill="white" fill-opacity="0.85"/>
  <path d="M9.95117 14.541C10.2832 14.541 10.5176 14.3066 10.5176 13.9551L10.5176 10.7617L13.3008 6.2793C13.3887 6.13281 13.418 6.06445 13.418 5.89844C13.418 5.5957 13.1641 5.39062 12.8516 5.39062C12.6465 5.39062 12.4707 5.49805 12.3438 5.70312L9.98047 9.72656L9.94141 9.72656L7.56836 5.70312C7.45117 5.49805 7.30469 5.38086 7.05078 5.38086C6.72852 5.38086 6.48438 5.58594 6.48438 5.89844C6.48438 6.01562 6.52344 6.14258 6.61133 6.2793L9.38477 10.7617L9.38477 13.9551C9.38477 14.3066 9.61914 14.541 9.95117 14.541ZM7.14844 10.5371C7.14844 10.7227 7.29492 10.8691 7.48047 10.8691L12.4512 10.8691C12.6367 10.8691 12.7832 10.7227 12.7832 10.5371C12.7832 10.3418 12.6367 10.2051 12.4512 10.2051L7.48047 10.2051C7.29492 10.2051 7.14844 10.3418 7.14844 10.5371ZM7.14844 12.2266C7.14844 12.4121 7.29492 12.5586 7.48047 12.5586L12.4512 12.5586C12.6367 12.5586 12.7832 12.4121 12.7832 12.2266C12.7832 12.041 12.6367 11.8945 12.4512 11.8945L7.48047 11.8945C7.29492 11.8945 7.14844 12.041 7.14844 12.2266Z" fill="white" fill-opacity="0.85"/>
 </g>
</svg>
