<?xml version="1.0" encoding="UTF-8"?>
<!--Generator: Apple Native CoreSVG 326-->
<!DOCTYPE svg
PUBLIC "-//W3C//DTD SVG 1.1//EN"
       "http://www.w3.org/Graphics/SVG/1.1/DTD/svg11.dtd">
<svg version="1.1" xmlns="http://www.w3.org/2000/svg" xmlns:xlink="http://www.w3.org/1999/xlink" viewBox="0 0 27.7246 19.9316">
 <g>
  <rect height="19.9316" opacity="0" width="27.7246" x="0" y="0"/>
  <path d="M0 9.96094C0 9.54102 0.341797 9.18945 0.751953 9.18945L26.6113 9.18945C27.0215 9.18945 27.3633 9.54102 27.3633 9.96094C27.3633 10.3809 27.0215 10.7422 26.6113 10.7422L0.751953 10.7422C0.341797 10.7422 0 10.3809 0 9.96094ZM13.6914 19.9219C19.1797 19.9219 23.6523 15.4492 23.6523 9.96094C23.6523 4.46289 19.1797 0 13.6914 0C8.19336 0 3.73047 4.46289 3.73047 9.96094C3.73047 15.4492 8.19336 19.9219 13.6914 19.9219Z" fill="white" fill-opacity="0.85"/>
 </g>
</svg>
