<svg version="1.1" xmlns="http://www.w3.org/2000/svg" xmlns:xlink="http://www.w3.org/1999/xlink" viewBox="0 0 18.3398 17.9785">
 <g>
  <rect height="17.9785" opacity="0" width="18.3398" x="0" y="0"/>
  <path d="M3.06641 17.9785L14.9121 17.9785C16.9629 17.9785 17.9785 16.9727 17.9785 14.9609L17.9785 3.02734C17.9785 1.01562 16.9629 0 14.9121 0L3.06641 0C1.02539 0 0 1.01562 0 3.02734L0 14.9609C0 16.9727 1.02539 17.9785 3.06641 17.9785ZM3.08594 16.4062C2.10938 16.4062 1.57227 15.8887 1.57227 14.873L1.57227 3.11523C1.57227 2.09961 2.10938 1.57227 3.08594 1.57227L14.8926 1.57227C15.8594 1.57227 16.4062 2.09961 16.4062 3.11523L16.4062 14.873C16.4062 15.8887 15.8594 16.4062 14.8926 16.4062Z" fill="var(--color-primary)"/>
  <path d="M5.66406 13.1152C5.88867 13.1152 6.08398 13.0273 6.23047 12.8711L8.99414 10.0977L11.7773 12.8711C11.9238 13.0176 12.1094 13.1152 12.334 13.1152C12.7734 13.1152 13.1152 12.7637 13.1152 12.3242C13.1152 12.0996 13.0371 11.9238 12.8809 11.7676L10.1074 8.99414L12.8906 6.20117C13.0566 6.03516 13.125 5.86914 13.125 5.6543C13.125 5.22461 12.7832 4.87305 12.3438 4.87305C12.1387 4.87305 11.9727 4.95117 11.8066 5.11719L8.99414 7.90039L6.21094 5.12695C6.06445 4.9707 5.88867 4.89258 5.66406 4.89258C5.23438 4.89258 4.88281 5.23438 4.88281 5.66406C4.88281 5.87891 4.9707 6.06445 5.11719 6.21094L7.89062 8.99414L5.11719 11.7773C4.9707 11.9238 4.88281 12.1094 4.88281 12.3242C4.88281 12.7637 5.23438 13.1152 5.66406 13.1152Z" fill="var(--color-primary)"/>
 </g>
</svg>
