<?xml version="1.0" encoding="UTF-8"?>
<!--Generator: Apple Native CoreSVG 326-->
<!DOCTYPE svg
PUBLIC "-//W3C//DTD SVG 1.1//EN"
       "http://www.w3.org/Graphics/SVG/1.1/DTD/svg11.dtd">
<svg version="1.1" xmlns="http://www.w3.org/2000/svg" xmlns:xlink="http://www.w3.org/1999/xlink" viewBox="0 0 20.2832 19.9316">
 <g>
  <rect height="19.9316" opacity="0" width="20.2832" x="0" y="0"/>
  <path d="M19.9219 9.96094C19.9219 15.4492 15.459 19.9219 9.96094 19.9219C4.47266 19.9219 0 15.4492 0 9.96094C0 4.46289 4.47266 0 9.96094 0C15.459 0 19.9219 4.46289 19.9219 9.96094ZM4.55078 9.96094C4.55078 12.9102 7.01172 15.3613 9.96094 15.3613C12.9102 15.3613 15.3711 12.9102 15.3711 9.96094C15.3711 7.01172 12.9102 4.55078 9.95117 4.55078C7.00195 4.55078 4.55078 7.01172 4.55078 9.96094ZM10.459 6.61133L10.459 10.166C10.459 10.4395 10.2246 10.6445 9.95117 10.6445L7.2168 10.6445C6.93359 10.6445 6.71875 10.4492 6.71875 10.166C6.71875 9.88281 6.93359 9.67773 7.2168 9.67773L9.46289 9.67773L9.46289 6.61133C9.46289 6.33789 9.67773 6.12305 9.95117 6.12305C10.2344 6.12305 10.459 6.33789 10.459 6.61133Z" fill="white" fill-opacity="0.85"/>
 </g>
</svg>
