<?xml version="1.0" encoding="UTF-8"?>
<!--Generator: Apple Native CoreSVG 326-->
<!DOCTYPE svg
PUBLIC "-//W3C//DTD SVG 1.1//EN"
       "http://www.w3.org/Graphics/SVG/1.1/DTD/svg11.dtd">
<svg version="1.1" xmlns="http://www.w3.org/2000/svg" xmlns:xlink="http://www.w3.org/1999/xlink" viewBox="0 0 20.2832 19.9316">
 <g>
  <rect height="19.9316" opacity="0" width="20.2832" x="0" y="0"/>
  <path d="M19.9219 9.9707C19.9219 15.4688 15.459 19.9316 9.96094 19.9316C4.47266 19.9316 0 15.4688 0 9.9707C0 4.48242 4.47266 0.00976562 9.96094 0.00976562C15.459 0.00976562 19.9219 4.48242 19.9219 9.9707ZM7.83203 12.9297C7.68555 12.9297 7.61719 12.9688 7.56836 13.0762L6.9043 14.6191C6.8457 14.7461 6.9043 14.8438 7.03125 14.8438L7.90039 14.8438L7.22656 16.4746C7.17773 16.6016 7.32422 16.6797 7.44141 16.582L9.66797 14.3164C9.77539 14.1992 9.72656 14.0527 9.57031 14.0527L8.55469 14.0527L9.0332 13.1445C9.0918 13.0176 9.05273 12.9297 8.92578 12.9297ZM4.92188 8.76953C4.16016 9.0332 3.63281 9.69727 3.63281 10.5566C3.63281 11.6113 4.43359 12.3828 5.625 12.3828L10.6152 12.3828C11.9727 12.3828 13.0078 11.3574 13.0078 10.0293C13.0078 8.73047 11.9629 7.73438 10.5762 7.70508C10.0293 6.69922 9.0625 6.06445 7.91016 6.06445C6.37695 6.06445 5.08789 7.26562 4.92188 8.76953ZM10.6738 6.64062C10.7812 6.76758 10.8789 6.9043 10.9766 7.03125C12.4707 7.2168 13.5645 8.32031 13.7012 9.74609C15.3223 9.58984 16.3184 8.30078 16.3184 7.46094C16.3184 7.26562 16.2402 7.14844 16.0938 7.14844C15.8691 7.14844 15.498 7.44141 14.8535 7.44141C13.6719 7.44141 12.9297 6.74805 12.9297 5.66406C12.9297 5.03906 13.2812 4.58008 13.2812 4.33594C13.2812 4.17969 13.1641 4.0918 12.9785 4.0918C12.0312 4.14062 10.8398 5.25391 10.6738 6.64062Z" fill="white" fill-opacity="0.85"/>
 </g>
</svg>
