<?xml version="1.0" encoding="UTF-8"?>
<!--Generator: Apple Native CoreSVG 326-->
<!DOCTYPE svg
PUBLIC "-//W3C//DTD SVG 1.1//EN"
       "http://www.w3.org/Graphics/SVG/1.1/DTD/svg11.dtd">
<svg version="1.1" xmlns="http://www.w3.org/2000/svg" xmlns:xlink="http://www.w3.org/1999/xlink" viewBox="0 0 22.168 20.8496">
 <g>
  <rect height="20.8496" opacity="0" width="22.168" x="0" y="0"/>
  <path d="M12.0996 0.341797L20.4395 5.15625C20.8008 5.36133 20.9668 5.61523 20.9668 5.9082C20.9668 6.30859 20.6543 6.69922 20.1172 6.69922L19.2578 6.69922L19.2578 17.9297L19.8828 17.9297C20.2832 17.9297 20.5078 18.1641 20.5078 18.5547L20.5078 19.2676L21.0156 19.2676C21.4453 19.2676 21.8066 19.6191 21.8066 20.0488C21.8066 20.4785 21.4453 20.8398 21.0156 20.8398L0.78125 20.8398C0.351562 20.8398 0 20.4785 0 20.0488C0 19.6191 0.351562 19.2676 0.78125 19.2676L1.29883 19.2676L1.29883 18.5547C1.29883 18.1641 1.5332 17.9297 1.93359 17.9297L2.54883 17.9297L2.54883 6.69922L1.68945 6.69922C1.15234 6.69922 0.839844 6.30859 0.839844 5.9082C0.839844 5.61523 0.996094 5.36133 1.36719 5.15625L9.70703 0.341797C10.0781 0.117188 10.498 0 10.8984 0C11.2988 0 11.709 0.117188 12.0996 0.341797ZM12.9688 5.625L12.6465 6.9043C12.2852 6.74805 11.9043 6.64062 11.5137 6.60156L11.6895 5.85938C11.7188 5.77148 11.7285 5.71289 11.7285 5.68359C11.7285 5.49805 11.5918 5.36133 11.3867 5.36133C11.1914 5.36133 11.084 5.43945 11.0352 5.625L10.791 6.57227C8.41797 6.68945 7.06055 8.54492 7.06055 11.0645C7.06055 12.6953 7.61719 14.0918 8.70117 14.8828L8.31055 16.4551C8.29102 16.5137 8.28125 16.582 8.28125 16.6309C8.28125 16.8262 8.4375 16.9629 8.63281 16.9629C8.80859 16.9629 8.91602 16.8848 8.97461 16.6895L9.33594 15.2441C9.67773 15.4004 10.0586 15.498 10.4785 15.5469L10.2441 16.4551C10.2344 16.5137 10.2246 16.582 10.2246 16.6309C10.2246 16.8262 10.3711 16.9629 10.5664 16.9629C10.7422 16.9629 10.8594 16.8848 10.9082 16.6895L11.1914 15.5762L11.2012 15.5762C12.6758 15.5762 13.9551 14.7852 14.4043 13.5254C14.4629 13.3594 14.4922 13.2129 14.4922 13.0469C14.4922 12.666 14.2188 12.5 13.9453 12.5C13.623 12.5 13.4766 12.6953 13.3691 12.9688C13.0762 13.8477 12.3438 14.375 11.4648 14.502L12.959 8.53516C13.125 8.7207 13.2422 8.93555 13.3105 9.17969C13.3984 9.47266 13.5254 9.64844 13.877 9.64844C14.209 9.64844 14.4238 9.44336 14.4238 9.11133C14.4238 8.96484 14.375 8.76953 14.3164 8.62305C14.0918 8.05664 13.7207 7.60742 13.2715 7.27539L13.623 5.85938C13.6523 5.77148 13.6621 5.71289 13.6621 5.68359C13.6621 5.49805 13.5254 5.36133 13.3203 5.36133C13.125 5.36133 13.0176 5.43945 12.9688 5.625ZM12.373 7.99805L10.7324 14.5117C10.3027 14.4824 9.92188 14.3359 9.60938 14.1309L11.25 7.62695C11.6602 7.66602 12.0508 7.79297 12.373 7.99805ZM9.0332 13.5742C8.53516 12.9199 8.30078 12.0117 8.30078 11.0645C8.30078 9.4043 9.0332 7.93945 10.5176 7.66602Z" fill="white" fill-opacity="0.85"/>
 </g>
</svg>
