<?xml version="1.0" encoding="UTF-8"?>
<!--Generator: Apple Native CoreSVG 326-->
<!DOCTYPE svg
PUBLIC "-//W3C//DTD SVG 1.1//EN"
       "http://www.w3.org/Graphics/SVG/1.1/DTD/svg11.dtd">
<svg version="1.1" xmlns="http://www.w3.org/2000/svg" xmlns:xlink="http://www.w3.org/1999/xlink" viewBox="0 0 22.7809 24.0576">
 <g>
  <rect height="24.0576" opacity="0" width="22.7809" x="0" y="0"/>
  <path d="M1.04378 19.4263L5.43831 23.8306C5.74105 24.1333 6.25862 24.1333 6.56136 23.8306C6.86409 23.5181 6.85433 23.02 6.56136 22.7173L3.69026 19.8364L18.2215 5.30518L21.0926 8.17627C21.3953 8.479 21.8836 8.48877 22.1864 8.18604C22.4989 7.8833 22.4989 7.38525 22.1864 7.07275L17.7918 2.67822C16.3856 1.27197 14.5692 1.28174 13.1532 2.70752L1.07308 14.7876C-0.342938 16.2036-0.36247 18.02 1.04378 19.4263ZM17.0594 6.16455L16.1414 7.11182L19.2371 10.1978C19.5008 10.4712 19.9207 10.4712 20.1649 10.2075C20.4285 9.95361 20.4383 9.53369 20.1746 9.27002ZM15.1258 8.09814L14.2078 9.04541L17.3035 12.1313C17.5672 12.395 17.9871 12.395 18.2313 12.1411C18.4852 11.8872 18.495 11.4673 18.241 11.2134ZM13.202 10.0317L12.284 10.979L15.37 14.0747C15.6336 14.3286 16.0535 14.3286 16.2977 14.0845C16.5614 13.8208 16.5711 13.4009 16.3075 13.147ZM11.2782 11.9653L10.3504 12.8931L13.4461 15.9985C13.7098 16.2622 14.1297 16.2622 14.3739 15.9985C14.6278 15.7446 14.6375 15.3149 14.3836 15.0708ZM9.34456 13.8989L8.41683 14.8267L11.5125 17.9419C11.7664 18.1958 12.1864 18.1958 12.4403 17.9419C12.6942 17.6782 12.7039 17.2583 12.45 17.0044ZM7.41097 15.8325L6.48323 16.7603L9.57894 19.8755C9.84261 20.1294 10.2625 20.1294 10.5067 19.8755C10.7606 19.6118 10.7703 19.1919 10.5164 18.938ZM5.47737 17.7661L4.54964 18.6938L7.64534 21.8091C7.89925 22.063 8.31917 22.063 8.57308 21.8091C8.82698 21.5454 8.83675 21.1255 8.58284 20.8716Z" fill="white" fill-opacity="0.85"/>
 </g>
</svg>
