<?xml version="1.0" encoding="UTF-8"?>
<!--Generator: Apple Native CoreSVG 326-->
<!DOCTYPE svg
PUBLIC "-//W3C//DTD SVG 1.1//EN"
       "http://www.w3.org/Graphics/SVG/1.1/DTD/svg11.dtd">
<svg version="1.1" xmlns="http://www.w3.org/2000/svg" xmlns:xlink="http://www.w3.org/1999/xlink" viewBox="0 0 17.5293 25.9863">
 <g>
  <rect height="25.9863" opacity="0" width="17.5293" x="0" y="0"/>
  <path d="M3.06641 21.4746L7.8125 21.4746L7.8125 4.49219L3.06641 4.49219C1.02539 4.49219 0 5.50781 0 7.51953L0 18.457C0 20.4688 1.02539 21.4746 3.06641 21.4746ZM3.08594 19.9023C2.10938 19.9023 1.57227 19.3848 1.57227 18.3691L1.57227 7.60742C1.57227 6.5918 2.10938 6.06445 3.08594 6.06445L6.24023 6.06445L6.24023 19.9023ZM14.1016 21.4746C16.1523 21.4746 17.168 20.459 17.168 18.457L17.168 7.51953C17.168 5.50781 16.1523 4.49219 14.1016 4.49219L9.33594 4.49219L9.33594 21.4746ZM14.082 19.9023L10.9082 19.9023L10.9082 6.06445L14.082 6.06445C15.0391 6.06445 15.5957 6.5918 15.5957 7.60742L15.5957 18.3691C15.5957 19.3848 15.0391 19.9023 14.082 19.9023ZM8.57422 0C8.14453 0 7.8125 0.341797 7.8125 0.761719L7.8125 4.49219L9.33594 4.49219L9.33594 0.761719C9.33594 0.341797 9.00391 0 8.57422 0ZM8.57422 25.9668C9.00391 25.9668 9.33594 25.6348 9.33594 25.2051L9.33594 21.4746L7.8125 21.4746L7.8125 25.2051C7.8125 25.6348 8.14453 25.9668 8.57422 25.9668Z" fill="white" fill-opacity="0.85"/>
 </g>
</svg>
