<?xml version="1.0" encoding="UTF-8"?>
<!--Generator: Apple Native CoreSVG 326-->
<!DOCTYPE svg
PUBLIC "-//W3C//DTD SVG 1.1//EN"
       "http://www.w3.org/Graphics/SVG/1.1/DTD/svg11.dtd">
<svg version="1.1" xmlns="http://www.w3.org/2000/svg" xmlns:xlink="http://www.w3.org/1999/xlink" viewBox="0 0 36.3574 16.2402">
 <g>
  <rect height="16.2402" opacity="0" width="36.3574" x="0" y="0"/>
  <path d="M10.9668 13.3105C10.9668 14.9512 9.67773 16.2402 8.02734 16.2402C6.38672 16.2402 5.09766 14.9512 5.09766 13.3105C5.09766 11.6699 6.38672 10.3809 8.02734 10.3809C9.67773 10.3809 10.9668 11.6699 10.9668 13.3105ZM31.0449 13.3105C31.0449 14.9512 29.7559 16.2402 28.1055 16.2402C26.4551 16.2402 25.166 14.9512 25.166 13.3105C25.166 11.6699 26.4551 10.3809 28.1055 10.3809C29.7559 10.3809 31.0449 11.6699 31.0449 13.3105ZM18.6133 1.82617L14.4824 4.60938L25.5859 3.88672C26.123 3.83789 26.6504 3.88672 27.2168 3.99414L32.9297 5.09766C35.1465 5.52734 35.9961 6.49414 35.9961 8.80859L35.9961 10.5078C35.9961 12.4512 35.0879 13.4961 33.2031 13.6914L32.168 13.7988C32.1777 13.6816 32.1777 13.6328 32.1777 13.5059C32.1777 11.2402 30.3809 9.24805 28.1055 9.24805C25.8301 9.24805 24.0332 11.0449 24.0332 13.3105C24.0332 13.6035 24.0625 13.8965 24.1309 14.1113L12.0312 14.1113C12.0801 13.916 12.0996 13.5938 12.0996 13.3105C12.0996 11.0449 10.3027 9.24805 8.02734 9.24805C5.75195 9.24805 3.95508 11.0449 3.95508 13.3105C3.95508 13.6523 4.00391 14.1992 4.08203 14.5117L2.12891 14.2773C0.654297 14.1113 0 13.3887 0 11.9238L0 10.625C0 8.04688 1.5918 6.58203 4.76562 5.98633L11.416 4.73633L17.6758 0.556641C18.6328-0.0878906 19.502 1.23047 18.6133 1.82617ZM15.7324 6.44531C14.1992 6.44531 13.125 7.43164 13.125 8.82812C13.125 10.2051 14.1895 11.1719 15.7227 11.1719L19.4141 11.1719L19.4141 12.002C19.4141 12.5098 19.7754 12.7051 20.2344 12.4219L22.334 11.0254C22.6953 10.791 22.7051 10.3906 22.334 10.1465L20.2441 8.75977C19.7852 8.45703 19.4141 8.63281 19.4141 9.16016L19.4141 9.95117L15.7227 9.95117C14.9512 9.95117 14.4141 9.51172 14.4141 8.89648C14.4141 8.18359 14.9609 7.68555 15.7324 7.68555L21.1035 7.68555C21.4941 7.68555 21.7578 7.44141 21.7578 7.08008C21.7578 6.70898 21.4844 6.44531 21.084 6.44531Z" fill="white" fill-opacity="0.85"/>
 </g>
</svg>
