<?xml version="1.0" encoding="UTF-8"?>
<!--Generator: Apple Native CoreSVG 326-->
<!DOCTYPE svg
PUBLIC "-//W3C//DTD SVG 1.1//EN"
       "http://www.w3.org/Graphics/SVG/1.1/DTD/svg11.dtd">
<svg version="1.1" xmlns="http://www.w3.org/2000/svg" xmlns:xlink="http://www.w3.org/1999/xlink" viewBox="0 0 20.2832 19.9316">
 <g>
  <rect height="19.9316" opacity="0" width="20.2832" x="0" y="0"/>
  <path d="M19.9219 9.96094C19.9219 15.4492 15.459 19.9219 9.96094 19.9219C4.47266 19.9219 0 15.4492 0 9.96094C0 4.46289 4.47266 0 9.96094 0C15.459 0 19.9219 4.46289 19.9219 9.96094ZM6.45508 14.0332C6.60156 14.1699 6.76758 14.2969 6.94336 14.4141L7.98828 13.3887C8.125 13.252 8.32031 13.252 8.45703 13.3887C8.58398 13.5254 8.58398 13.7207 8.45703 13.8477L7.54883 14.7754C8.28125 15.1465 9.0918 15.3711 9.95117 15.3711C12.8906 15.3711 15.3516 12.9102 15.3516 9.9707C15.3516 9.11133 15.127 8.29102 14.7559 7.56836L13.8672 8.4375C13.7305 8.57422 13.5352 8.57422 13.4082 8.4375C13.2617 8.30078 13.2617 8.0957 13.4082 7.96875L14.4043 6.97266C14.2871 6.79688 14.1602 6.63086 14.0137 6.46484ZM4.56055 9.9707C4.56055 10.8301 4.77539 11.6406 5.14648 12.3633L6.06445 11.4746C6.19141 11.3477 6.38672 11.3477 6.52344 11.4746C6.66016 11.6113 6.66992 11.8164 6.52344 11.9531L5.50781 12.9688C5.61523 13.1543 5.74219 13.3105 5.88867 13.4668L13.4668 5.9082C13.3008 5.77148 13.1348 5.63477 12.959 5.52734L11.9336 6.52344C11.8066 6.66992 11.6113 6.66992 11.4648 6.52344C11.3379 6.39648 11.3477 6.20117 11.4648 6.06445L12.3633 5.16602C11.6309 4.79492 10.8105 4.57031 9.95117 4.57031C7.01172 4.57031 4.56055 7.03125 4.56055 9.9707ZM9.98047 11.8555C10.1172 11.9727 10.1172 12.1777 9.98047 12.3242L9.25781 13.0469C9.13086 13.1738 8.91602 13.1738 8.80859 13.0469C8.66211 12.9102 8.66211 12.7148 8.80859 12.5781L9.53125 11.8555C9.6582 11.7285 9.85352 11.7285 9.98047 11.8555ZM11.5137 10.3125C11.6602 10.4492 11.6602 10.6543 11.5137 10.7812L10.791 11.5137C10.6543 11.6406 10.459 11.6406 10.3125 11.5137C10.1953 11.3965 10.1953 11.1719 10.3125 11.0449L11.0645 10.3125C11.1816 10.1953 11.3965 10.1953 11.5137 10.3125ZM8.05664 9.95117C8.18359 10.0781 8.17383 10.2734 8.05664 10.4004L7.33398 11.1328C7.20703 11.2793 7.00195 11.2695 6.86523 11.1328C6.73828 11.0156 6.73828 10.8008 6.86523 10.6738L7.58789 9.95117C7.73438 9.80469 7.92969 9.80469 8.05664 9.95117ZM13.0566 8.76953C13.1836 8.90625 13.1836 9.12109 13.0566 9.24805L12.334 9.9707C12.1875 10.1172 12.002 10.1172 11.8652 9.9707C11.7383 9.84375 11.748 9.64844 11.8652 9.52148L12.5879 8.76953C12.7148 8.64258 12.9199 8.65234 13.0566 8.76953ZM9.59961 8.41797C9.7168 8.53516 9.7168 8.75 9.59961 8.86719L8.85742 9.61914C8.74023 9.73633 8.51562 9.73633 8.39844 9.61914C8.27148 9.47266 8.27148 9.27734 8.39844 9.14062L9.13086 8.41797C9.25781 8.27148 9.46289 8.27148 9.59961 8.41797ZM11.123 6.875C11.2598 7.01172 11.2598 7.20703 11.123 7.34375L10.3906 8.06641C10.2637 8.19336 10.0684 8.19336 9.94141 8.06641C9.79492 7.94922 9.79492 7.74414 9.94141 7.59766L10.6641 6.875C10.791 6.74805 10.9961 6.74805 11.123 6.875Z" fill="white" fill-opacity="0.85"/>
 </g>
</svg>
