<?xml version="1.0" encoding="UTF-8"?>
<!--Generator: Apple Native CoreSVG 326-->
<!DOCTYPE svg
PUBLIC "-//W3C//DTD SVG 1.1//EN"
       "http://www.w3.org/Graphics/SVG/1.1/DTD/svg11.dtd">
<svg version="1.1" xmlns="http://www.w3.org/2000/svg" xmlns:xlink="http://www.w3.org/1999/xlink" viewBox="0 0 25.7324 18.9551">
 <g>
  <rect height="18.9551" opacity="0" width="25.7324" x="0" y="0"/>
  <path d="M19.1211 10.8105C22.041 11.4941 23.8574 12.6074 23.8574 13.7793C23.8574 15.6836 18.9941 17.4414 12.6855 17.4414C6.37695 17.4414 1.51367 15.6836 1.51367 13.7793C1.51367 12.6172 3.28125 11.5234 6.14258 10.8203L5.40039 9.43359C2.03125 10.3223 0 11.875 0 13.7793C0 16.8457 5.27344 18.9551 12.6855 18.9551C20.1074 18.9551 25.3711 16.8457 25.3711 13.7793C25.3711 11.8262 23.2227 10.2344 19.7168 9.36523ZM20 4.0332L20 6.07422C20 10.293 17.3047 13.1641 13.1348 13.1641L12.2266 13.1641C8.04688 13.1641 5.37109 10.3125 5.37109 6.07422L5.37109 4.0332L3.79883 4.0332L3.79883 6.07422C3.79883 11.1621 7.1875 14.7363 12.2266 14.7363L13.1348 14.7363C18.1738 14.7363 21.5723 11.1523 21.5723 6.07422L21.5723 4.0332ZM12.6855 8.05664C17.9785 8.05664 21.5723 6.42578 21.5723 4.0332C21.5723 1.63086 17.9883 0 12.6855 0C7.38281 0 3.79883 1.63086 3.79883 4.0332C3.79883 6.42578 7.39258 8.05664 12.6855 8.05664ZM12.6855 6.48438C8.47656 6.48438 5.37109 5.41992 5.37109 4.0332C5.37109 2.64648 8.47656 1.57227 12.6855 1.57227C16.8945 1.57227 20 2.64648 20 4.0332C20 5.41992 16.8945 6.48438 12.6855 6.48438ZM20.4785 10.293L21.2793 10.293C23.5254 10.293 24.873 9.11133 24.873 7.14844C24.873 5.20508 23.5156 4.01367 21.2793 4.01367L20.625 4.01367L20.625 5.58594L21.2793 5.58594C22.5488 5.58594 23.3008 6.17188 23.3008 7.14844C23.3008 8.125 22.5488 8.7207 21.2793 8.7207L20.4785 8.7207Z" fill="white" fill-opacity="0.85"/>
 </g>
</svg>
