<?xml version="1.0" encoding="UTF-8"?>
<!--Generator: Apple Native CoreSVG 326-->
<!DOCTYPE svg
PUBLIC "-//W3C//DTD SVG 1.1//EN"
       "http://www.w3.org/Graphics/SVG/1.1/DTD/svg11.dtd">
<svg version="1.1" xmlns="http://www.w3.org/2000/svg" xmlns:xlink="http://www.w3.org/1999/xlink" viewBox="0 0 36.2695 22.4316">
 <g>
  <rect height="22.4316" opacity="0" width="36.2695" x="0" y="0"/>
  <path d="M22.6855 3.99414L22.6855 7.70508L18.2324 7.70508C16.2109 7.70508 14.8047 9.01367 14.8047 11.1133L14.8047 13.623L2.96875 13.623C2.67578 13.623 2.54883 13.5156 2.54883 13.2031L2.54883 3.99414C2.54883 3.55469 2.82227 3.29102 3.25195 3.29102L21.9824 3.29102C22.4121 3.29102 22.6855 3.55469 22.6855 3.99414Z" fill="white" fill-opacity="0.2125"/>
  <path d="M24.2578 3.96484L24.2578 7.70508L22.6855 7.70508L22.6855 3.99414C22.6855 3.55469 22.4121 3.29102 21.9824 3.29102L3.25195 3.29102C2.82227 3.29102 2.54883 3.55469 2.54883 3.99414L2.54883 13.2031C2.54883 13.5156 2.67578 13.623 2.96875 13.623L14.8047 13.623L14.8047 18.1836L14.6094 18.1836C13.4473 18.1836 12.4902 19.1406 12.4902 20.3027C12.4902 20.7041 12.6007 21.0785 12.7941 21.3965L9.47266 21.3965C9.04297 21.3965 8.69141 21.0449 8.69141 20.6055C8.69141 20.166 9.04297 19.8145 9.47266 19.8145L9.53125 19.8145L9.53125 17.9297L3.23242 17.9297C1.82617 17.9297 0.976562 17.0801 0.976562 15.6738L0.976562 3.96484C0.976562 2.55859 1.82617 1.71875 3.23242 1.71875L22.0117 1.71875C23.4082 1.71875 24.2578 2.55859 24.2578 3.96484Z" fill="white" fill-opacity="0.85"/>
  <path d="M17.7148 19.5215L17.7148 11.5527C17.7148 10.9277 18.0273 10.6152 18.6621 10.6152L30.2246 10.6152C30.8496 10.6152 31.1719 10.9277 31.1719 11.5527L31.1719 19.5117Z" fill="white" fill-opacity="0.2125"/>
  <path d="M13.8281 20.3027C13.8281 20.752 14.1797 21.1035 14.6094 21.1035L34.1406 21.0938C34.5801 21.0938 34.9316 20.7422 34.9316 20.293C34.9316 19.8633 34.5801 19.5117 34.1406 19.5117L32.7441 19.5117L32.7441 11.1133C32.7441 9.74609 32.0117 9.04297 30.6543 9.04297L18.2324 9.04297C16.9434 9.04297 16.1426 9.74609 16.1426 11.1133L16.1426 19.5215L14.6094 19.5215C14.1797 19.5215 13.8281 19.873 13.8281 20.3027ZM17.7148 19.5215L17.7148 11.5527C17.7148 10.9277 18.0273 10.6152 18.6621 10.6152L30.2246 10.6152C30.8496 10.6152 31.1719 10.9277 31.1719 11.5527L31.1719 19.5117Z" fill="white" fill-opacity="0.85"/>
 </g>
</svg>
