<?xml version="1.0" encoding="UTF-8"?>
<!--Generator: Apple Native CoreSVG 326-->
<!DOCTYPE svg
PUBLIC "-//W3C//DTD SVG 1.1//EN"
       "http://www.w3.org/Graphics/SVG/1.1/DTD/svg11.dtd">
<svg version="1.1" xmlns="http://www.w3.org/2000/svg" xmlns:xlink="http://www.w3.org/1999/xlink" viewBox="0 0 23.7402 18.1934">
 <g>
  <rect height="18.1934" opacity="0" width="23.7402" x="0" y="0"/>
  <path d="M4.55078 12.6465L18.8281 12.6465C20.2832 12.6465 21.0645 11.875 21.0645 10.4492L21.0645 7.72461C21.0645 6.30859 20.2832 5.52734 18.8281 5.52734L4.55078 5.52734C3.0957 5.52734 2.31445 6.30859 2.31445 7.72461L2.31445 10.4492C2.31445 11.875 3.0957 12.6465 4.55078 12.6465ZM4.57031 11.1719C4.07227 11.1719 3.78906 10.8887 3.78906 10.3711L3.78906 7.8125C3.78906 7.28516 4.07227 7.00195 4.57031 7.00195L18.8086 7.00195C19.3066 7.00195 19.5898 7.28516 19.5898 7.8125L19.5898 10.3711C19.5898 10.8887 19.3066 11.1719 18.8086 11.1719Z" fill="white" fill-opacity="0.85"/>
  <path d="M0.683594 1.43555L22.6953 1.43555C23.0762 1.43555 23.3789 1.09375 23.3789 0.712891C23.3789 0.332031 23.0762 0 22.6953 0L0.683594 0C0.292969 0 0 0.332031 0 0.712891C0 1.09375 0.292969 1.43555 0.683594 1.43555ZM0.683594 16.748C0.292969 16.748 0 17.0801 0 17.4707C0 17.8516 0.292969 18.1836 0.683594 18.1836L22.6953 18.1836C23.0762 18.1836 23.3789 17.8516 23.3789 17.4707C23.3789 17.0801 23.0762 16.748 22.6953 16.748Z" fill="white" fill-opacity="0.85"/>
 </g>
</svg>
