<?xml version="1.0" encoding="UTF-8"?>
<!--Generator: Apple Native CoreSVG 326-->
<!DOCTYPE svg
PUBLIC "-//W3C//DTD SVG 1.1//EN"
       "http://www.w3.org/Graphics/SVG/1.1/DTD/svg11.dtd">
<svg version="1.1" xmlns="http://www.w3.org/2000/svg" xmlns:xlink="http://www.w3.org/1999/xlink" viewBox="0 0 22.168 20.8496">
 <g>
  <rect height="20.8496" opacity="0" width="22.168" x="0" y="0"/>
  <path d="M12.0996 0.341797L20.4395 5.15625C20.8008 5.36133 20.9668 5.61523 20.9668 5.9082C20.9668 6.30859 20.6543 6.69922 20.1172 6.69922L19.2578 6.69922L19.2578 17.9297L19.8828 17.9297C20.2832 17.9297 20.5078 18.1641 20.5078 18.5547L20.5078 19.2676L21.0156 19.2676C21.4453 19.2676 21.8066 19.6191 21.8066 20.0488C21.8066 20.4785 21.4453 20.8398 21.0156 20.8398L0.78125 20.8398C0.351562 20.8398 0 20.4785 0 20.0488C0 19.6191 0.351562 19.2676 0.78125 19.2676L1.29883 19.2676L1.29883 18.5547C1.29883 18.1641 1.5332 17.9297 1.93359 17.9297L2.54883 17.9297L2.54883 6.69922L1.68945 6.69922C1.15234 6.69922 0.839844 6.30859 0.839844 5.9082C0.839844 5.61523 0.996094 5.36133 1.36719 5.15625L9.70703 0.341797C10.0781 0.117188 10.498 0 10.8984 0C11.2988 0 11.709 0.117188 12.0996 0.341797ZM8.33984 15.2246C8.13477 15.2246 7.96875 15.3809 7.96875 15.5762C7.96875 15.7715 8.13477 15.9277 8.33984 15.9277L13.3301 15.9277C13.5156 15.9277 13.6816 15.7715 13.6816 15.5762C13.6816 15.3809 13.5156 15.2246 13.3301 15.2246ZM12.2559 6.55273L12.2559 6.96289L10.332 6.96289C10.1465 6.96289 10 7.10938 10 7.28516C10 7.48047 10.1465 7.62695 10.332 7.62695L12.2559 7.62695L12.2559 9.67773L12.2168 9.67773C11.8555 8.89648 11.0449 8.53516 10.166 8.53516C8.68164 8.53516 7.46094 9.69727 7.46094 11.5137C7.46094 13.1738 8.52539 14.4922 10.166 14.4922C11.0352 14.4922 11.8555 14.1504 12.2559 13.3594L12.2949 13.3594L12.2949 14.0625C12.2949 14.375 12.5293 14.6191 12.8418 14.6191C13.1543 14.6191 13.3887 14.375 13.3887 14.0625L13.3887 7.62695L14.1309 7.62695C14.3164 7.62695 14.4629 7.4707 14.4629 7.28516C14.4629 7.10938 14.3164 6.96289 14.1309 6.96289L13.3887 6.96289L13.3887 6.55273C13.3887 6.21094 13.1641 5.97656 12.8223 5.97656C12.4707 5.97656 12.2559 6.21094 12.2559 6.55273ZM12.2656 11.5137C12.2656 12.666 11.5137 13.5254 10.459 13.5254C9.29688 13.5254 8.61328 12.6465 8.61328 11.5137C8.61328 10.3223 9.38477 9.51172 10.459 9.51172C11.6016 9.51172 12.2656 10.4492 12.2656 11.5137Z" fill="white" fill-opacity="0.85"/>
 </g>
</svg>
