<svg version="1.1" xmlns="http://www.w3.org/2000/svg" xmlns:xlink="http://www.w3.org/1999/xlink" viewBox="0 0 15.2441 20.7324">
 <g>
  <rect height="20.7324" opacity="0" width="15.2441" x="0" y="0"/>
  <path d="M14.1016 20.7227C14.5312 20.7227 14.8828 20.3711 14.8828 19.9414L14.8828 1.99219C14.8828 0.800781 14.0723 0 12.8418 0L2.04102 0C0.820312 0 0 0.800781 0 1.99219L0 19.9414C0 20.3711 0.351562 20.7227 0.78125 20.7227C1.2207 20.7227 1.57227 20.3711 1.57227 19.9414L1.57227 2.08984C1.57227 1.77734 1.77734 1.57227 2.07031 1.57227L12.8125 1.57227C13.1055 1.57227 13.3105 1.77734 13.3105 2.08984L13.3105 19.9414C13.3105 20.3711 13.6621 20.7227 14.1016 20.7227Z" fill="var(--color-primary)"/>
  <path d="M11.8457 20.3809C12.0215 20.3809 12.168 20.2246 12.168 20.0488L12.168 3.03711C12.168 2.85156 12.0215 2.70508 11.8457 2.70508L3.04688 2.70508C2.86133 2.70508 2.71484 2.85156 2.71484 3.03711L2.71484 20.0488C2.71484 20.2246 2.86133 20.3809 3.04688 20.3809ZM5.03906 12.5293C4.60938 12.5293 4.25781 12.1777 4.25781 11.748C4.25781 11.3086 4.60938 10.9668 5.03906 10.9668C5.46875 10.9668 5.82031 11.3086 5.82031 11.748C5.82031 12.1777 5.46875 12.5293 5.03906 12.5293Z" fill="var(--color-primary)"/>
 </g>
</svg>
