<?xml version="1.0" encoding="UTF-8"?>
<!--Generator: Apple Native CoreSVG 326-->
<!DOCTYPE svg
PUBLIC "-//W3C//DTD SVG 1.1//EN"
       "http://www.w3.org/Graphics/SVG/1.1/DTD/svg11.dtd">
<svg version="1.1" xmlns="http://www.w3.org/2000/svg" xmlns:xlink="http://www.w3.org/1999/xlink" viewBox="0 0 18.3398 17.9785">
 <g>
  <rect height="17.9785" opacity="0" width="18.3398" x="0" y="0"/>
  <path d="M17.9785 3.02734L17.9785 14.9609C17.9785 16.9727 16.9629 17.9785 14.9121 17.9785L3.06641 17.9785C1.02539 17.9785 0 16.9727 0 14.9609L0 3.02734C0 1.01562 1.02539 0 3.06641 0L14.9121 0C16.9629 0 17.9785 1.01562 17.9785 3.02734ZM6.67969 4.30664C6.15234 4.30664 5.88867 4.66797 5.88867 5.21484L5.88867 12.5684C5.88867 13.1152 6.15234 13.4766 6.67969 13.4766L11.4453 13.4766C11.8359 13.4766 12.1094 13.2227 12.1094 12.8223C12.1094 12.4023 11.8359 12.1582 11.4453 12.1582L7.5 12.1582L7.5 9.45312L11.1816 9.45312C11.5723 9.45312 11.8457 9.22852 11.8457 8.83789C11.8457 8.41797 11.5723 8.19336 11.1816 8.19336L7.5 8.19336L7.5 5.625L11.4453 5.625C11.8359 5.625 12.1094 5.36133 12.1094 4.96094C12.1094 4.54102 11.8359 4.30664 11.4453 4.30664Z" fill="white" fill-opacity="0.85"/>
 </g>
</svg>
