<?xml version="1.0" encoding="UTF-8"?>
<!--Generator: Apple Native CoreSVG 326-->
<!DOCTYPE svg
PUBLIC "-//W3C//DTD SVG 1.1//EN"
       "http://www.w3.org/Graphics/SVG/1.1/DTD/svg11.dtd">
<svg version="1.1" xmlns="http://www.w3.org/2000/svg" xmlns:xlink="http://www.w3.org/1999/xlink" viewBox="0 0 23.9258 16.8457">
 <g>
  <rect height="16.8457" opacity="0" width="23.9258" x="0" y="0"/>
  <path d="M3.06641 16.8457L20.791 16.8457C22.5391 16.8457 23.5645 15.8301 23.5645 13.8184L23.5645 3.03711C23.5645 1.02539 22.5293 0.00976562 20.498 0.00976562L2.77344 0.00976562C1.02539 0.00976562 0 1.02539 0 3.03711L0 13.8184C0 15.8301 1.03516 16.8457 3.06641 16.8457ZM3.00781 15.3516C2.04102 15.3516 1.49414 14.8145 1.49414 13.8086L1.49414 3.02734C1.49414 2.03125 2.04102 1.50391 3.00781 1.50391L20.5469 1.50391C21.5137 1.50391 22.0703 2.03125 22.0703 3.03711L22.0703 13.8184C22.0703 14.8145 21.5137 15.3516 20.5469 15.3516ZM17.2461 6.40625L19.7266 6.40625C20.166 6.40625 20.4883 6.08398 20.4883 5.6543L20.4883 3.83789C20.4883 3.4082 20.166 3.08594 19.7266 3.08594L17.2461 3.08594C16.8164 3.08594 16.4941 3.4082 16.4941 3.83789L16.4941 5.6543C16.4941 6.08398 16.8164 6.40625 17.2461 6.40625ZM8.02734 10.1074L15.5273 10.1074C15.8691 10.1074 16.1426 9.84375 16.1426 9.50195C16.1426 9.16992 15.8691 8.89648 15.5273 8.89648L8.02734 8.89648C7.69531 8.89648 7.42188 9.16992 7.42188 9.50195C7.42188 9.84375 7.69531 10.1074 8.02734 10.1074ZM8.02734 12.6855L13.7012 12.6855C14.043 12.6855 14.3066 12.4121 14.3066 12.0703C14.3066 11.7383 14.043 11.4746 13.7012 11.4746L8.02734 11.4746C7.69531 11.4746 7.42188 11.7383 7.42188 12.0703C7.42188 12.4121 7.69531 12.6855 8.02734 12.6855Z" fill="white" fill-opacity="0.85"/>
 </g>
</svg>
