<?xml version="1.0" encoding="UTF-8"?>
<!--Generator: Apple Native CoreSVG 326-->
<!DOCTYPE svg
PUBLIC "-//W3C//DTD SVG 1.1//EN"
       "http://www.w3.org/Graphics/SVG/1.1/DTD/svg11.dtd">
<svg version="1.1" xmlns="http://www.w3.org/2000/svg" xmlns:xlink="http://www.w3.org/1999/xlink" viewBox="0 0 14.7559 17.4707">
 <g>
  <rect height="17.4707" opacity="0" width="14.7559" x="0" y="0"/>
  <path d="M11.7188 17.4414C12.2852 17.4414 12.9785 17.4316 13.4863 17.3047C14.0234 17.1777 14.3945 16.9336 14.3945 16.416C14.3945 15.8301 14.0039 15.5957 13.4863 15.5957C12.9199 15.5957 12.6758 15.6934 11.7871 15.6934C7.56836 15.6934 4.78516 13.2324 4.78516 8.76953L4.78516 8.69141C4.78516 4.31641 7.44141 1.79688 11.7285 1.79688C12.3047 1.79688 13.252 1.88477 13.4863 1.88477C14.043 1.88477 14.3945 1.60156 14.3945 1.05469C14.3945 0.537109 14.0039 0.283203 13.4863 0.146484C12.9395 0.00976562 12.2461 0 11.7285 0C6.57227 0 2.79297 3.02734 2.79297 8.71094L2.79297 8.74023C2.79297 14.209 6.2793 17.4414 11.7188 17.4414ZM0 6.96289C0 7.33398 0.253906 7.58789 0.625 7.58789L11.416 7.59766C11.8164 7.59766 12.0605 7.34375 12.0605 6.96289C12.0605 6.57227 11.8164 6.30859 11.416 6.30859L0.625 6.30859C0.253906 6.30859 0 6.57227 0 6.96289ZM0 10.498C0 10.8691 0.253906 11.1328 0.625 11.1328L11.416 11.1328C11.8164 11.1328 12.0605 10.8789 12.0605 10.498C12.0605 10.1074 11.8164 9.84375 11.416 9.84375L0.625 9.84375C0.253906 9.84375 0 10.1172 0 10.498Z" fill="white" fill-opacity="0.85"/>
 </g>
</svg>
