<?xml version="1.0" encoding="UTF-8"?>
<!--Generator: Apple Native CoreSVG 326-->
<!DOCTYPE svg
PUBLIC "-//W3C//DTD SVG 1.1//EN"
       "http://www.w3.org/Graphics/SVG/1.1/DTD/svg11.dtd">
<svg version="1.1" xmlns="http://www.w3.org/2000/svg" xmlns:xlink="http://www.w3.org/1999/xlink" viewBox="0 0 30.2394 21.7871">
 <g>
  <rect height="21.7871" opacity="0" width="30.2394" x="0" y="0"/>
  <path d="M21.438 21.0449L21.438 2.48047C21.438 0.878906 20.5591 0 18.9576 0L11.0962 0C9.48491 0 8.6353 0.878906 8.6353 2.48047L8.6353 21.0449ZM11.4087 8.84766C10.6958 8.84766 10.2759 8.45703 10.2759 7.80273L10.2759 2.70508C10.2759 2.04102 10.6958 1.64062 11.4087 1.64062L18.6451 1.64062C19.358 1.64062 19.7974 2.04102 19.7974 2.70508L19.7974 7.80273C19.7974 8.45703 19.358 8.84766 18.6451 8.84766ZM7.09233 20.9766C7.09233 21.416 7.43413 21.7773 7.86382 21.7773L22.19 21.7773C22.6197 21.7773 22.981 21.416 22.981 20.9766C22.981 20.5566 22.6197 20.2051 22.19 20.2051L7.86382 20.2051C7.44389 20.2051 7.09233 20.5469 7.09233 20.9766ZM26.6724 9.87305L26.6724 16.1035C26.6724 17.4023 26.0962 18.1445 25.1099 18.1445C24.2115 18.1445 23.6353 17.5488 23.6353 16.5918C23.6353 15.1562 23.8697 13.252 23.8697 11.5039C23.8697 9.79492 23.0298 8.49609 20.9693 7.8125L20.4908 8.88672C22.063 9.36523 22.6978 10.332 22.6978 11.5039C22.6978 13.0664 22.4634 14.9707 22.4634 16.5918C22.4634 18.2715 23.4791 19.3359 25.1099 19.3359C26.8482 19.3359 27.8541 18.1543 27.8541 16.1035L27.8541 9.87305C27.8541 8.99414 28.5083 8.75977 28.9283 8.42773C29.5533 7.96875 29.8755 7.31445 29.8755 6.55273L29.8755 5.23438C29.8755 5.0293 29.7583 4.89258 29.5826 4.89258L28.9576 4.89258L28.9576 3.125C28.9576 2.86133 28.733 2.63672 28.4498 2.63672C28.1958 2.63672 27.9615 2.86133 27.9615 3.125L27.9615 4.89258L26.6529 4.89258L26.6626 3.125C26.6626 2.86133 26.4478 2.63672 26.1744 2.63672C25.9009 2.63672 25.6861 2.86133 25.6861 3.125L25.6861 4.89258L24.9439 4.89258C24.7583 4.89258 24.6314 5.0293 24.6314 5.23438L24.6314 6.55273C24.6314 7.31445 24.9732 7.96875 25.5884 8.42773C26.0181 8.75977 26.6724 8.99414 26.6724 9.87305Z" fill="white" fill-opacity="0.85"/>
  <path d="M0.285691 10.4102C-0.0854023 10.625-0.104934 11.1426 0.285691 11.3672L5.30522 14.3262C5.71538 14.5703 6.19389 14.375 6.19389 13.9551L6.19389 7.80273C6.19389 7.39258 5.68608 7.20703 5.30522 7.43164Z" fill="white" fill-opacity="0.85"/>
 </g>
</svg>
