<svg version="1.1" xmlns="http://www.w3.org/2000/svg" xmlns:xlink="http://www.w3.org/1999/xlink" viewBox="0 0 31.1816 21.7871">
 <g>
  <rect height="21.7871" opacity="0" width="31.1816" x="0" y="0"/>
  <path d="M1.55273 21.0547L3.11523 21.0547L3.11523 2.5C3.11523 1.89453 3.41797 1.57227 4.0332 1.57227L12.2461 1.57227C12.8516 1.57227 13.1641 1.88477 13.1641 2.5L13.1738 21.0547L14.7461 21.0547L14.7461 2.48047C14.7461 0.878906 13.8672 0 12.2754 0L4.01367 0C2.40234 0 1.55273 0.878906 1.55273 2.48047ZM4.63867 8.84766L11.6504 8.84766C11.9824 8.84766 12.2266 8.60352 12.2266 8.27148L12.2266 3.0957C12.2266 2.76367 11.9727 2.51953 11.6504 2.51953L4.63867 2.51953C4.30664 2.51953 4.0625 2.76367 4.0625 3.0957L4.0625 8.27148C4.0625 8.60352 4.30664 8.84766 4.63867 8.84766ZM0 20.9863C0 21.4258 0.341797 21.7871 0.771484 21.7871L15.5078 21.7871C15.9375 21.7871 16.2891 21.4258 16.2891 20.9863C16.2891 20.5664 15.9375 20.2148 15.5078 20.2148L0.771484 20.2148C0.351562 20.2148 0 20.5566 0 20.9863ZM19.9805 9.87305L19.9805 16.1035C19.9805 17.4023 19.4141 18.1445 18.418 18.1445C17.5195 18.1445 16.9531 17.5488 16.9531 16.5918C16.9531 15.1562 17.1875 13.252 17.1875 11.5039C17.1875 9.79492 16.3477 8.49609 14.2773 7.8125L13.7988 8.88672C15.3711 9.36523 16.0059 10.332 16.0059 11.5039C16.0059 13.0664 15.7715 14.9707 15.7715 16.5918C15.7715 18.2715 16.7969 19.3359 18.418 19.3359C20.166 19.3359 21.1621 18.1543 21.1621 16.1035L21.1621 9.87305C21.1621 8.99414 21.8164 8.75977 22.2363 8.42773C22.8613 7.96875 23.1934 7.31445 23.1934 6.55273L23.1934 5.23438C23.1934 5.0293 23.0664 4.89258 22.8906 4.89258L22.2656 4.89258L22.2656 3.125C22.2656 2.86133 22.041 2.63672 21.7676 2.63672C21.5039 2.63672 21.2695 2.86133 21.2695 3.125L21.2793 4.89258L19.9707 4.89258L19.9707 3.125C19.9707 2.86133 19.7559 2.63672 19.4922 2.63672C19.209 2.63672 18.9941 2.86133 18.9941 3.125L18.9941 4.89258L18.2617 4.89258C18.0664 4.89258 17.9492 5.0293 17.9492 5.23438L17.9492 6.55273C17.9492 7.31445 18.291 7.96875 18.8965 8.42773C19.3262 8.75977 19.9805 8.99414 19.9805 9.87305Z" fill="var(--color-primary)"/>
  <path d="M30.5371 10.4102L25.5176 7.43164C25.1367 7.20703 24.6289 7.39258 24.6289 7.80273L24.6289 13.9551C24.6289 14.375 25.1074 14.5703 25.5176 14.3262L30.5371 11.3672C30.9277 11.1426 30.9082 10.625 30.5371 10.4102Z" fill="var(--color-primary)"/>
 </g>
</svg>
