<?xml version="1.0" encoding="UTF-8"?>
<!--Generator: Apple Native CoreSVG 326-->
<!DOCTYPE svg
PUBLIC "-//W3C//DTD SVG 1.1//EN"
       "http://www.w3.org/Graphics/SVG/1.1/DTD/svg11.dtd">
<svg version="1.1" xmlns="http://www.w3.org/2000/svg" xmlns:xlink="http://www.w3.org/1999/xlink" viewBox="0 0 24.9121 18.5645">
 <g>
  <rect height="18.5645" opacity="0" width="24.9121" x="0" y="0"/>
  <path d="M21.4648 7.5C23.3691 8.30078 24.5508 10.0781 24.5508 12.1289C24.5508 14.8145 22.2461 16.9727 19.2969 16.9727L5.84961 16.9727C2.50977 16.9727 0 14.5605 0 11.6895C0 9.30664 1.37695 7.33398 3.58398 6.98242C3.63281 4.24805 6.25 2.42188 8.65234 3.125C9.82422 1.41602 11.709 0 14.3555 0C18.3496 0 21.4844 3.14453 21.4648 7.5ZM11.1816 12.4902C11.1816 13.0664 11.6895 13.5449 12.2754 13.5449C12.8613 13.5449 13.3691 13.0762 13.3691 12.4902C13.3691 11.9043 12.8711 11.4355 12.2754 11.4355C11.6797 11.4355 11.1816 11.9141 11.1816 12.4902ZM11.3574 5.82031L11.4941 9.51172C11.5137 10.0293 11.7773 10.3223 12.2852 10.3223C12.7734 10.3223 13.0469 10.0391 13.0664 9.51172L13.2031 5.83008C13.2227 5.27344 12.8125 4.88281 12.2754 4.88281C11.7285 4.88281 11.3379 5.26367 11.3574 5.82031Z" fill="white" fill-opacity="0.85"/>
 </g>
</svg>
