<?xml version="1.0" encoding="UTF-8"?>
<!--Generator: Apple Native CoreSVG 326-->
<!DOCTYPE svg
PUBLIC "-//W3C//DTD SVG 1.1//EN"
       "http://www.w3.org/Graphics/SVG/1.1/DTD/svg11.dtd">
<svg version="1.1" xmlns="http://www.w3.org/2000/svg" xmlns:xlink="http://www.w3.org/1999/xlink" viewBox="0 0 20.2832 19.9316">
 <g>
  <rect height="19.9316" opacity="0" width="20.2832" x="0" y="0"/>
  <path d="M19.9219 9.9707C19.9219 15.4688 15.459 19.9316 9.96094 19.9316C4.47266 19.9316 0 15.4688 0 9.9707C0 4.48242 4.47266 0.00976562 9.96094 0.00976562C15.459 0.00976562 19.9219 4.48242 19.9219 9.9707ZM7.73438 5.2832C7.2168 5.2832 6.94336 5.66406 6.94336 6.20117L6.94336 13.6719C6.94336 14.2188 7.2168 14.5898 7.74414 14.5898C8.27148 14.5898 8.55469 14.2383 8.55469 13.6719L8.55469 10.5664L12.1875 10.5664C12.5781 10.5664 12.8613 10.3516 12.8613 9.94141C12.8613 9.53125 12.5781 9.30664 12.1875 9.30664L8.55469 9.30664L8.55469 6.61133L12.5781 6.61133C12.9688 6.61133 13.252 6.34766 13.252 5.95703C13.252 5.53711 12.9688 5.2832 12.5781 5.2832Z" fill="white" fill-opacity="0.85"/>
 </g>
</svg>
