<?xml version="1.0" encoding="UTF-8"?>
<!--Generator: Apple Native CoreSVG 326-->
<!DOCTYPE svg
PUBLIC "-//W3C//DTD SVG 1.1//EN"
       "http://www.w3.org/Graphics/SVG/1.1/DTD/svg11.dtd">
<svg version="1.1" xmlns="http://www.w3.org/2000/svg" xmlns:xlink="http://www.w3.org/1999/xlink" viewBox="0 0 12.6465 17.2559">
 <g>
  <rect height="17.2559" opacity="0" width="12.6465" x="0" y="0"/>
  <path d="M2.27539 17.2559C4.49219 17.2559 5.95703 15.9863 6.30859 13.4375L7.53906 4.52148C7.7832 2.72461 8.54492 1.97266 9.88281 1.97266C10.8691 1.97266 11.1719 2.09961 11.5723 2.09961C11.9922 2.09961 12.2852 1.83594 12.2852 1.37695C12.2852 0.625 11.1426 0.419922 10.0098 0.419922C7.79297 0.419922 6.32812 1.68945 5.97656 4.23828L4.75586 13.1641C4.51172 14.9609 3.74023 15.7031 2.40234 15.7031C1.42578 15.7031 1.13281 15.5762 0.722656 15.5762C0.292969 15.5762 0 15.8398 0 16.2988C0 17.0605 1.14258 17.2559 2.27539 17.2559ZM1.77734 8.94531L11.2891 8.94531C11.7578 8.94531 12.0898 8.62305 12.0898 8.17383C12.0898 7.72461 11.748 7.39258 11.2793 7.39258L1.76758 7.39258C1.29883 7.39258 0.966797 7.71484 0.966797 8.17383C0.966797 8.62305 1.30859 8.94531 1.77734 8.94531Z" fill="white" fill-opacity="0.85"/>
 </g>
</svg>
