<?xml version="1.0" encoding="UTF-8"?>
<!--Generator: Apple Native CoreSVG 326-->
<!DOCTYPE svg
PUBLIC "-//W3C//DTD SVG 1.1//EN"
       "http://www.w3.org/Graphics/SVG/1.1/DTD/svg11.dtd">
<svg version="1.1" xmlns="http://www.w3.org/2000/svg" xmlns:xlink="http://www.w3.org/1999/xlink" viewBox="0 0 20.9617 24.3066">
 <g>
  <rect height="24.3066" opacity="0" width="20.9617" x="0" y="0"/>
  <path d="M10.3002 24.3066C12.9662 24.3066 13.3861 22.3242 14.9388 22.3242C16.5209 22.3242 16.7748 24.3066 19.8217 24.3066L19.8705 24.3066C20.2513 24.3066 20.5638 23.9941 20.5638 23.6133C20.5638 23.2324 20.2513 22.9297 19.8705 22.9297L19.8217 22.9297C18.7767 22.9297 18.181 22.4902 17.4486 21.9727C16.8138 21.5137 16.0228 20.9473 14.9388 20.9473C13.8158 20.9473 13.015 21.543 12.3803 22.0215C11.7064 22.5293 11.1791 22.9297 10.3002 22.9297C9.42127 22.9297 8.89393 22.5293 8.2201 22.0215C7.58533 21.543 6.78455 20.9473 5.6615 20.9473C4.57752 20.9473 3.7865 21.5137 3.15174 21.9727C2.41932 22.4902 1.83338 22.9297 0.778691 22.9297L0.729863 22.9297C0.349004 22.9297 0.0365035 23.2324 0.0365035 23.6133C0.0365035 23.9941 0.349004 24.3066 0.729863 24.3066L0.778691 24.3066C3.82557 24.3066 4.07947 22.3242 5.6615 22.3242C7.21424 22.3242 7.63416 24.3066 10.3002 24.3066ZM0.436894 15.625L4.02088 21.9531L5.20252 21.1621L1.66736 15.0195C1.24744 14.2773 1.41346 13.9355 1.95057 13.6914L9.05994 10.4297C9.52869 10.2148 9.85096 10.0586 10.3002 10.0586C10.7494 10.0586 11.0717 10.2148 11.5502 10.4297L18.6498 13.6914C19.1869 13.9355 19.3529 14.2773 18.933 15.0195L15.3978 21.1621L16.6478 21.8555L20.1635 15.625C20.9935 14.1602 20.6517 13.0957 19.1967 12.4414L12.0971 9.17969C11.6869 8.99414 11.1107 8.68164 10.3002 8.68164C9.49939 8.68164 8.92322 8.99414 8.5033 9.17969L1.40369 12.4414C-0.0416215 13.0957-0.383418 14.1602 0.436894 15.625ZM2.39002 12.2754L3.87439 11.582L4.91932 4.25781C4.97791 3.87695 5.20252 3.65234 5.55408 3.65234L15.0658 3.65234C15.4369 3.65234 15.6713 3.83789 15.7201 4.15039L16.7455 11.6309L18.2299 12.2754L17.1068 4.0625C16.9506 2.91992 16.1986 2.27539 15.0658 2.27539L5.55408 2.27539C4.45057 2.27539 3.70838 2.99805 3.52283 4.25781ZM6.27674 7.20703L9.30408 7.20703C9.59705 7.20703 9.79236 7.04102 9.79236 6.80664L9.79236 5.24414C9.79236 5.00977 9.59705 4.84375 9.30408 4.84375L6.27674 4.84375C6.04236 4.84375 5.88611 5.00977 5.88611 5.24414L5.88611 6.80664C5.88611 7.04102 6.04236 7.20703 6.27674 7.20703ZM11.1986 7.20703L14.2357 7.20703C14.5287 7.20703 14.724 7.04102 14.724 6.80664L14.724 5.24414C14.724 5.00977 14.5287 4.84375 14.2357 4.84375L11.1986 4.84375C10.974 4.84375 10.8178 5.00977 10.8178 5.24414L10.8178 6.80664C10.8178 7.04102 10.974 7.20703 11.1986 7.20703ZM6.05213 3.34961L7.42908 3.34961L7.42908 1.73828C7.42908 1.52344 7.54627 1.40625 7.75135 1.40625L12.8588 1.40625C13.0638 1.40625 13.181 1.52344 13.181 1.73828L13.181 3.34961L14.558 3.34961L14.558 1.64062C14.558 0.673828 13.9232 0.0292969 12.9564 0.0292969L7.65369 0.0292969C6.68689 0.0292969 6.05213 0.673828 6.05213 1.64062Z" fill="white" fill-opacity="0.85"/>
 </g>
</svg>
