<?xml version="1.0" encoding="UTF-8"?>
<!--Generator: Apple Native CoreSVG 326-->
<!DOCTYPE svg
PUBLIC "-//W3C//DTD SVG 1.1//EN"
       "http://www.w3.org/Graphics/SVG/1.1/DTD/svg11.dtd">
<svg version="1.1" xmlns="http://www.w3.org/2000/svg" xmlns:xlink="http://www.w3.org/1999/xlink" viewBox="0 0 20.2832 19.9316">
 <g>
  <rect height="19.9316" opacity="0" width="20.2832" x="0" y="0"/>
  <path d="M19.9219 9.96094C19.9219 15.4492 15.459 19.9219 9.96094 19.9219C4.47266 19.9219 0 15.4492 0 9.96094C0 4.46289 4.47266 0 9.96094 0C15.459 0 19.9219 4.46289 19.9219 9.96094ZM8.85742 7.8418C8.47656 7.8418 8.125 8.01758 7.89062 8.30078L6.48438 10.0098L5.11719 8.64258C4.87305 8.38867 4.47266 8.38867 4.23828 8.64258C3.98438 8.88672 3.99414 9.26758 4.23828 9.51172L6.10352 11.3867C6.35742 11.6406 6.76758 11.6406 7.03125 11.3281L8.20312 9.89258C8.27148 9.80469 8.39844 9.84375 8.39844 9.96094L8.39844 12.4316L6.29883 12.1875C5.57617 12.1094 5.3418 13.1738 6.03516 13.3887L8.41797 14.1797C8.30078 14.6777 8.73047 15.0977 9.21875 14.9512L9.96094 14.707L10.6836 14.9512C11.1816 15.0977 11.6016 14.6777 11.4844 14.1797L13.877 13.3887C14.5703 13.1738 14.3457 12.1094 13.6035 12.1875L11.5137 12.4316L11.5137 9.96094C11.5137 9.84375 11.6309 9.80469 11.6992 9.89258L12.8906 11.3281C13.1348 11.6406 13.5547 11.6406 13.8086 11.3867L15.6641 9.51172C15.9082 9.26758 15.918 8.88672 15.6641 8.64258C15.4297 8.38867 15.0293 8.38867 14.7852 8.64258L13.418 10.0098L12.0117 8.30078C11.7871 8.01758 11.4355 7.8418 11.0547 7.8418ZM8.73047 6.02539C8.73047 6.70898 9.27734 7.24609 9.96094 7.24609C10.625 7.24609 11.1719 6.70898 11.1719 6.02539C11.1719 5.36133 10.625 4.81445 9.96094 4.81445C9.27734 4.81445 8.73047 5.36133 8.73047 6.02539Z" fill="white" fill-opacity="0.85"/>
 </g>
</svg>
