<?xml version="1.0" encoding="UTF-8"?>
<!--Generator: Apple Native CoreSVG 326-->
<!DOCTYPE svg
PUBLIC "-//W3C//DTD SVG 1.1//EN"
       "http://www.w3.org/Graphics/SVG/1.1/DTD/svg11.dtd">
<svg version="1.1" xmlns="http://www.w3.org/2000/svg" xmlns:xlink="http://www.w3.org/1999/xlink" viewBox="0 0 20.2832 19.9316">
 <g>
  <rect height="19.9316" opacity="0" width="20.2832" x="0" y="0"/>
  <path d="M19.9219 9.96094C19.9219 15.4492 15.459 19.9219 9.96094 19.9219C4.47266 19.9219 0 15.4492 0 9.96094C0 4.46289 4.47266 0 9.96094 0C15.459 0 19.9219 4.46289 19.9219 9.96094ZM7.08984 3.38867L5.26367 8.17383C5.17578 8.4082 5.25391 8.62305 5.39062 8.75L6.79688 10.1758C7.02148 10.4004 7.39258 10.4004 7.60742 10.1758L8.24219 9.55078C8.33008 9.46289 8.45703 9.46289 8.48633 9.58984L8.82812 10.9473L6.86523 12.4121C6.71875 12.5195 6.66016 12.6855 6.63086 12.8516L6.10352 15.6934C6.05469 15.9961 6.26953 16.3086 6.58203 16.3672C6.89453 16.4258 7.17773 16.2207 7.23633 15.8984L7.72461 13.2617L9.94141 12.0508C10 12.0215 10.0684 12.041 10.0879 12.0898L11.2012 14.7949C11.2695 14.9316 11.377 15.0391 11.4941 15.1074L13.7207 16.3379C14.0527 16.5137 14.3652 16.377 14.502 16.123C14.668 15.8496 14.5703 15.498 14.2871 15.332L12.2266 14.1992L10.6445 7.85156C10.5664 7.48047 10.2246 7.19727 9.82422 7.19727L6.41602 7.19727L8.00781 3.82812C8.23242 3.36914 7.91016 3.06641 7.56836 3.06641C7.37305 3.06641 7.1875 3.16406 7.08984 3.38867ZM7.2168 8.95508L6.62109 8.35938L7.79297 8.35938ZM8.37891 5.41016C8.37891 6.08398 8.93555 6.61133 9.59961 6.61133C10.2637 6.61133 10.8203 6.08398 10.8203 5.41016C10.8203 4.74609 10.2637 4.19922 9.59961 4.19922C8.93555 4.19922 8.37891 4.74609 8.37891 5.41016Z" fill="white" fill-opacity="0.85"/>
 </g>
</svg>
