<?xml version="1.0" encoding="UTF-8"?>
<!--Generator: Apple Native CoreSVG 326-->
<!DOCTYPE svg
PUBLIC "-//W3C//DTD SVG 1.1//EN"
       "http://www.w3.org/Graphics/SVG/1.1/DTD/svg11.dtd">
<svg version="1.1" xmlns="http://www.w3.org/2000/svg" xmlns:xlink="http://www.w3.org/1999/xlink" viewBox="0 0 20.2832 19.9316">
 <g>
  <rect height="19.9316" opacity="0" width="20.2832" x="0" y="0"/>
  <path d="M9.96094 19.9219C15.459 19.9219 19.9219 15.459 19.9219 9.96094C19.9219 4.46289 15.459 0 9.96094 0C4.46289 0 0 4.46289 0 9.96094C0 15.459 4.46289 19.9219 9.96094 19.9219ZM9.96094 18.2617C5.37109 18.2617 1.66016 14.5508 1.66016 9.96094C1.66016 5.37109 5.37109 1.66016 9.96094 1.66016C14.5508 1.66016 18.2617 5.37109 18.2617 9.96094C18.2617 14.5508 14.5508 18.2617 9.96094 18.2617Z" fill="white" fill-opacity="0.85"/>
  <path d="M9.01367 8.1543C9.6582 8.1543 10.1855 7.63672 10.1855 6.97266C10.1855 6.32812 9.6582 5.81055 9.01367 5.81055C8.35938 5.81055 7.8418 6.32812 7.8418 6.97266C7.8418 7.63672 8.35938 8.1543 9.01367 8.1543ZM6.43555 16.3477L9.01367 16.3477C9.35547 16.3477 9.51172 16.1816 9.56055 15.8887L10.0391 13.291L12.2363 13.291L11.8066 15.6836C11.748 16.0742 11.9922 16.3184 12.2754 16.3477C12.5488 16.3672 12.8418 16.25 12.9004 15.8887L13.4375 12.8809C13.5156 12.4707 13.2812 12.207 12.9688 12.1777L11.0156 11.9629L11.1816 10.1074C11.1914 10.0195 11.2598 9.96094 11.3477 9.96094L12.9102 9.96094C13.2129 9.96094 13.4668 9.69727 13.4668 9.39453L13.4668 6.34766C13.4668 6.11328 13.3301 5.9082 13.1152 5.83008C12.9102 5.75195 12.6758 5.78125 12.5195 5.94727L9.46289 8.99414C9.18945 9.27734 9.02344 9.60938 8.98438 10.0195L8.50586 15.2344L6.43555 15.2344C6.12305 15.2344 5.88867 15.4785 5.88867 15.791C5.88867 16.0938 6.12305 16.3477 6.43555 16.3477ZM12.3535 7.67578L12.3535 8.83789L11.1914 8.83789ZM11.2402 6.05469L12.4902 7.16797L12.7832 6.8457L11.543 5.73242ZM8.14453 3.7793L10.9961 6.35742C11.1719 6.51367 11.3965 6.48438 11.5625 6.31836L11.8555 6.02539C12.0215 5.84961 11.9922 5.60547 11.8164 5.45898L8.95508 2.87109C8.7793 2.72461 8.54492 2.73438 8.38867 2.91016L8.11523 3.22266C7.96875 3.39844 7.96875 3.62305 8.14453 3.7793Z" fill="white" fill-opacity="0.85"/>
 </g>
</svg>
