<?xml version="1.0" encoding="UTF-8"?>
<!--Generator: Apple Native CoreSVG 326-->
<!DOCTYPE svg
PUBLIC "-//W3C//DTD SVG 1.1//EN"
       "http://www.w3.org/Graphics/SVG/1.1/DTD/svg11.dtd">
<svg version="1.1" xmlns="http://www.w3.org/2000/svg" xmlns:xlink="http://www.w3.org/1999/xlink" viewBox="0 0 19.0846 20.2832">
 <g>
  <rect height="20.2832" opacity="0" width="19.0846" x="0" y="0"/>
  <path d="M16.095 5.53711C17.5599 5.53711 18.722 4.31641 18.722 2.90039C18.722 1.42578 17.5599 0.234375 16.095 0.234375C14.6204 0.234375 13.4388 1.42578 13.4388 2.90039C13.4388 4.35547 14.6204 5.53711 16.095 5.53711ZM0.362623 19.5117C0.86067 20.0391 1.72981 20 2.35481 19.3555L6.55403 15.0195C6.69075 14.873 6.79817 14.834 7.01301 14.9219L10.2943 16.1621C12.4036 16.9727 14.3861 16.2793 15.3138 14.5996L17.4232 10.7617C18.2435 9.26758 17.9798 7.72461 16.554 6.96289C15.1771 6.21094 13.7513 6.77734 12.9115 8.31055L10.1771 13.3008L7.84309 12.4512C6.69075 12.0312 5.73372 12.168 4.81575 13.125L0.450514 17.6367C-0.164721 18.2617-0.106127 19.043 0.362623 19.5117Z" fill="white" fill-opacity="0.85"/>
  <path d="M0.167311 6.32812C0.167311 7.76367 1.4759 9.20898 2.68684 9.20898C3.80012 9.20898 4.36653 8.21289 5.03059 6.44531L5.2845 6.39648L5.2845 8.30078C5.2845 9.12109 5.70442 9.54102 6.5052 9.54102C7.93098 9.54102 9.3763 8.24219 9.3763 7.02148C9.3763 5.89844 8.3802 5.3418 6.60286 4.67773L6.5638 4.42383L8.46809 4.42383C9.2884 4.42383 9.69856 4.00391 9.69856 3.21289C9.69856 1.77734 8.39973 0.322266 7.17903 0.322266C6.06575 0.322266 5.50911 1.33789 4.83528 3.11523L4.59114 3.14453L4.59114 1.24023C4.59114 0.429688 4.17122 0 3.3802 0C1.93489 0 0.489576 1.30859 0.489576 2.51953C0.489576 3.64258 1.5052 4.19922 3.28255 4.86328L3.30208 5.11719L1.40755 5.11719C0.596998 5.11719 0.167311 5.54688 0.167311 6.32812ZM4.93294 5.75195C4.39583 5.75195 3.95637 5.3125 3.95637 4.76562C3.95637 4.22852 4.39583 3.78906 4.93294 3.78906C5.47005 3.78906 5.9095 4.22852 5.9095 4.76562C5.9095 5.3125 5.47005 5.75195 4.93294 5.75195Z" fill="white" fill-opacity="0.85"/>
 </g>
</svg>
