<?xml version="1.0" encoding="UTF-8"?>
<!--Generator: Apple Native CoreSVG 326-->
<!DOCTYPE svg
PUBLIC "-//W3C//DTD SVG 1.1//EN"
       "http://www.w3.org/Graphics/SVG/1.1/DTD/svg11.dtd">
<svg version="1.1" xmlns="http://www.w3.org/2000/svg" xmlns:xlink="http://www.w3.org/1999/xlink" viewBox="0 0 27.7657 19.6777">
 <g>
  <rect height="19.6777" opacity="0" width="27.7657" x="0" y="0"/>
  <path d="M14.4346 4.9707L14.4346 7.11914C14.4346 7.70508 14.8643 8.13477 15.4503 8.13477L17.042 8.13477C17.6378 8.13477 18.0772 7.70508 18.0772 7.11914L18.0772 4.9707C18.0772 4.38477 17.6378 3.94531 17.042 3.94531L15.4503 3.94531C14.8643 3.94531 14.4346 4.38477 14.4346 4.9707ZM19.0928 4.9707L19.0928 7.11914C19.0928 7.70508 19.5225 8.13477 20.1182 8.13477L21.7198 8.13477C22.3155 8.13477 22.7452 7.70508 22.7452 7.11914L22.7452 4.9707C22.7452 4.38477 22.3155 3.94531 21.7198 3.94531L20.1182 3.94531C19.5225 3.94531 19.0928 4.38477 19.0928 4.9707ZM23.7608 4.9707L23.7608 7.11914C23.7608 7.70508 24.1905 8.13477 24.7862 8.13477L26.3878 8.13477C26.9737 8.13477 27.4034 7.70508 27.4034 7.11914L27.4034 4.9707C27.4034 4.38477 26.9737 3.94531 26.3878 3.94531L24.7862 3.94531C24.1905 3.94531 23.7608 4.38477 23.7608 4.9707ZM14.4346 10.5566L14.4346 12.7051C14.4346 13.291 14.8643 13.7109 15.4503 13.7109L17.042 13.7109C17.6378 13.7109 18.0772 13.291 18.0772 12.7051L18.0772 10.5566C18.0772 9.9707 17.6378 9.54102 17.042 9.54102L15.4503 9.54102C14.8643 9.54102 14.4346 9.9707 14.4346 10.5566ZM19.0928 10.5566L19.0928 12.7051C19.0928 13.291 19.5225 13.7109 20.1182 13.7109L21.7198 13.7109C22.3155 13.7109 22.7452 13.291 22.7452 12.7051L22.7452 10.5566C22.7452 9.9707 22.3155 9.54102 21.7198 9.54102L20.1182 9.54102C19.5225 9.54102 19.0928 9.9707 19.0928 10.5566ZM23.7608 10.5566L23.7608 12.7051C23.7608 13.291 24.1905 13.7109 24.7862 13.7109L26.3878 13.7109C26.9737 13.7109 27.4034 13.291 27.4034 12.7051L27.4034 10.5566C27.4034 9.9707 26.9737 9.54102 26.3878 9.54102L24.7862 9.54102C24.1905 9.54102 23.7608 9.9707 23.7608 10.5566ZM14.4346 16.1426L14.4346 18.2812C14.4346 18.877 14.8643 19.3066 15.4503 19.3066L17.042 19.3066C17.6378 19.3066 18.0772 18.877 18.0772 18.2812L18.0772 16.1426C18.0772 15.5566 17.6378 15.127 17.042 15.127L15.4503 15.127C14.8643 15.127 14.4346 15.5566 14.4346 16.1426ZM19.0928 16.1426L19.0928 18.2812C19.0928 18.877 19.5225 19.3066 20.1182 19.3066L21.7198 19.3066C22.3155 19.3066 22.7452 18.877 22.7452 18.2812L22.7452 16.1426C22.7452 15.5566 22.3155 15.127 21.7198 15.127L20.1182 15.127C19.5225 15.127 19.0928 15.5566 19.0928 16.1426ZM23.7608 16.1426L23.7608 18.2812C23.7608 18.877 24.1905 19.3066 24.7862 19.3066L26.3878 19.3066C26.9737 19.3066 27.4034 18.877 27.4034 18.2812L27.4034 16.1426C27.4034 15.5566 26.9737 15.127 26.3878 15.127L24.7862 15.127C24.1905 15.127 23.7608 15.5566 23.7608 16.1426ZM16.2608 7.04102C15.7139 7.04102 15.2452 6.58203 15.2452 6.02539C15.2452 5.48828 15.7139 5.0293 16.2608 5.0293C16.8077 5.0293 17.2667 5.48828 17.2667 6.02539C17.2667 6.58203 16.8077 7.04102 16.2608 7.04102ZM20.9288 7.04102C20.3721 7.04102 19.9034 6.5918 19.9034 6.02539C19.9034 5.48828 20.3721 5.0293 20.9288 5.0293C21.4659 5.0293 21.9249 5.48828 21.9249 6.02539C21.9249 6.5918 21.4659 7.04102 20.9288 7.04102ZM25.587 7.04102C25.0401 7.04102 24.5713 6.5918 24.5713 6.02539C24.5713 5.48828 25.0401 5.0293 25.587 5.0293C26.1241 5.0293 26.5928 5.48828 26.5928 6.02539C26.5928 6.5918 26.1241 7.04102 25.587 7.04102ZM16.2608 12.627C15.7139 12.627 15.2452 12.1777 15.2452 11.6113C15.2452 11.0742 15.7139 10.625 16.2608 10.625C16.8077 10.625 17.2667 11.0742 17.2667 11.6113C17.2667 12.1777 16.8077 12.627 16.2608 12.627ZM20.9288 12.627C20.3721 12.627 19.9034 12.1777 19.9034 11.6113C19.9034 11.0742 20.3721 10.625 20.9288 10.625C21.4659 10.625 21.9249 11.0742 21.9249 11.6113C21.9249 12.1777 21.4659 12.627 20.9288 12.627ZM25.587 12.627C25.0401 12.627 24.5713 12.1777 24.5713 11.6113C24.5713 11.0742 25.0401 10.625 25.587 10.625C26.1241 10.625 26.5928 11.0742 26.5928 11.6113C26.5928 12.1777 26.1241 12.627 25.587 12.627ZM16.2608 18.2227C15.7139 18.2227 15.2452 17.7637 15.2452 17.207C15.2452 16.6602 15.7139 16.2109 16.2608 16.2109C16.8077 16.2109 17.2667 16.6602 17.2667 17.207C17.2667 17.7637 16.8077 18.2227 16.2608 18.2227ZM20.9288 18.2227C20.3721 18.2227 19.9034 17.7637 19.9034 17.207C19.9034 16.6602 20.3721 16.2109 20.9288 16.2109C21.4659 16.2109 21.9249 16.6602 21.9249 17.207C21.9249 17.7637 21.4659 18.2227 20.9288 18.2227ZM25.587 18.2227C25.0401 18.2227 24.5713 17.7637 24.5713 17.207C24.5713 16.6602 25.0401 16.2109 25.587 16.2109C26.1241 16.2109 26.5928 16.6602 26.5928 17.207C26.5928 17.7637 26.1241 18.2227 25.587 18.2227ZM18.9952 2.70508L22.8526 2.70508C23.1456 2.70508 23.2042 2.39258 22.9795 2.23633L21.2217 1.04492C21.0264 0.917969 20.8213 0.917969 20.626 1.04492L18.8682 2.23633C18.6436 2.39258 18.7022 2.70508 18.9952 2.70508Z" fill="white" fill-opacity="0.85"/>
  <path d="M5.66509 4.35547C6.86627 4.35547 7.81353 3.34961 7.81353 2.1875C7.81353 0.986328 6.86627 0 5.66509 0C4.45416 0 3.49713 0.986328 3.49713 2.1875C3.49713 3.36914 4.45416 4.35547 5.66509 4.35547ZM1.50494 12.4316L7.69634 5.55664C7.10064 5.32227 6.41705 5.22461 5.66509 5.22461C2.87213 5.22461 1.22174 6.57227 1.22174 8.82812C1.22174 9.375 1.24127 10.0977 1.31939 10.8398ZM9.82525 12.4316L10.001 10.8398C10.0792 10.0977 10.1085 9.375 10.1085 8.82812C10.1085 7.71484 9.71783 6.81641 8.95611 6.21094L4.044 11.6797C4.59088 11.5918 5.12799 11.5527 5.66509 11.5527C7.04205 11.5527 8.42877 11.7383 9.82525 12.4316ZM3.28228 19.6289C3.84869 19.5508 4.22955 19.1406 4.15142 18.4277L3.7608 14.8242L7.55963 14.8242L7.17877 18.4277C7.11041 19.1406 7.4815 19.5508 8.04791 19.6289C8.64361 19.6875 9.09283 19.3164 9.17095 18.6328L9.67877 13.877C8.40924 13.1445 7.00299 12.8613 5.66509 12.8613C4.3272 12.8613 2.91119 13.1445 1.67095 13.877L2.15924 18.6328C2.23736 19.3164 2.67681 19.6875 3.28228 19.6289ZM8.95611 6.20117L10.8116 4.14062C11.1338 3.7793 11.1045 3.37891 10.792 3.125C10.4991 2.86133 10.1085 2.85156 9.77642 3.23242L7.69634 5.55664C8.16509 5.73242 8.58502 5.95703 8.95611 6.20117ZM0.303766 13.1543C-0.047796 13.4082-0.0673273 13.8184 0.108454 14.082C0.27447 14.3652 0.626032 14.502 1.00689 14.2773C1.2315 14.1309 1.43658 14.0039 1.67095 13.877L1.50494 12.4316C1.06549 12.627 0.665095 12.8516 0.303766 13.1543ZM11.0264 13.1543C10.6553 12.8516 10.2647 12.627 9.82525 12.4316L9.669 13.877C9.88384 14.0039 10.0987 14.1309 10.3233 14.2773C10.7042 14.502 11.0362 14.375 11.212 14.1016C11.3878 13.8281 11.3878 13.418 11.0264 13.1543Z" fill="white" fill-opacity="0.85"/>
 </g>
</svg>
