<svg version="1.1" xmlns="http://www.w3.org/2000/svg" xmlns:xlink="http://www.w3.org/1999/xlink" viewBox="0 0 20.2832 19.9316">
 <g>
  <rect height="19.9316" opacity="0" width="20.2832" x="0" y="0"/>
  <path d="M19.9219 9.96094C19.9219 15.4492 15.459 19.9219 9.96094 19.9219C4.47266 19.9219 0 15.4492 0 9.96094C0 4.46289 4.47266 0 9.96094 0C15.459 0 19.9219 4.46289 19.9219 9.96094ZM3.79883 5.26367L3.11523 7.31445C2.98828 7.67578 3.24219 8.03711 3.61328 8.06641L4.78516 8.1543C4.86328 8.1543 4.92188 8.22266 4.92188 8.31055L4.92188 10.4395C4.92188 10.8691 5.05859 11.2891 5.32227 11.6211L6.68945 13.3887L5.99609 15.7129C5.89844 16.0156 6.07422 16.3379 6.37695 16.4258C6.66992 16.5039 6.99219 16.377 7.08984 16.0449L7.88086 13.4277C7.89062 13.3789 7.90039 13.3301 7.90039 13.2812L10.0195 15.9668C10.2148 16.2109 10.5859 16.2598 10.8203 16.0645C11.0742 15.8594 11.123 15.5078 10.918 15.2539L7.12891 10.4688L7.29492 8.75977C7.30469 8.64258 7.42188 8.58398 7.51953 8.63281L8.85742 9.28711C8.94531 9.33594 9.0918 9.375 9.23828 9.375L11.25 9.375C11.3965 9.375 11.5234 9.33594 11.6211 9.24805L12.5781 8.4082C12.6855 8.33008 12.8027 8.36914 12.8418 8.48633L13.3887 9.99023L11.1133 10.6055C10.8789 10.6738 10.7031 10.8691 10.6836 11.1133L10.4297 13.7305C10.3809 14.1016 10.7129 14.3555 10.9863 14.3555C11.2891 14.3555 11.5332 14.1406 11.5625 13.8281L11.7773 11.6602L13.3789 11.416L12.6074 12.9395C12.5195 13.1152 12.4805 13.291 12.5488 13.4668L13.5938 16.084C13.7305 16.4062 14.082 16.5137 14.3555 16.4062C14.6484 16.2891 14.7852 15.957 14.668 15.6738L13.7305 13.3301L15.0195 11.4941C15.3418 11.0352 15.459 10.4492 15.3613 9.90234L15.166 8.78906C15.1367 8.65234 15.2637 8.56445 15.3906 8.60352L16.0547 8.81836C16.5039 8.96484 16.8555 8.70117 16.7969 8.25195L16.582 5.91797C16.5527 5.58594 16.25 5.36133 15.9473 5.40039C15.6445 5.41992 15.3906 5.70312 15.4297 6.02539L15.5859 7.46094L14.0039 6.93359C13.3594 6.71875 12.6562 6.83594 12.1387 7.29492L11.0449 8.23242L9.28711 8.23242L7.60742 7.38281C7.34375 7.25586 7.08984 7.1875 6.80664 7.1582L4.43359 6.98242L4.88281 5.63477C4.98047 5.3125 4.82422 5.00977 4.52148 4.89258C4.22852 4.80469 3.90625 4.9707 3.79883 5.26367ZM5.67383 5.49805C5.67383 6.13281 6.19141 6.65039 6.81641 6.65039C7.45117 6.65039 7.96875 6.13281 7.96875 5.49805C7.96875 4.87305 7.45117 4.36523 6.81641 4.36523C6.19141 4.36523 5.67383 4.87305 5.67383 5.49805ZM12.3926 5.26367C12.3926 5.89844 12.9004 6.41602 13.5352 6.41602C14.1602 6.41602 14.6777 5.89844 14.6777 5.26367C14.6777 4.63867 14.1602 4.12109 13.5352 4.12109C12.9004 4.12109 12.3926 4.63867 12.3926 5.26367Z" fill="var(--color-primary)"/>
 </g>
</svg>
