<?xml version="1.0" encoding="UTF-8"?>
<!--Generator: Apple Native CoreSVG 326-->
<!DOCTYPE svg
PUBLIC "-//W3C//DTD SVG 1.1//EN"
       "http://www.w3.org/Graphics/SVG/1.1/DTD/svg11.dtd">
<svg version="1.1" xmlns="http://www.w3.org/2000/svg" xmlns:xlink="http://www.w3.org/1999/xlink" viewBox="0 0 14.1797 22.7051">
 <g>
  <rect height="22.7051" opacity="0" width="14.1797" x="0" y="0"/>
  <path d="M1.72851 21.9434L4.80468 18.2812C5.10741 17.9297 5.14647 17.832 5.27343 17.4609L5.51757 16.709L3.86718 14.6387L3.3496 17.0117L0.31249 20.6152C-0.673838 21.7676 0.917959 22.9004 1.72851 21.9434ZM9.22851 21.6406C9.85351 22.9297 11.748 22.1387 11.0644 20.752L8.9746 16.5137C8.81835 16.1914 8.58397 15.8496 8.39843 15.5762L7.06054 13.6816L7.15819 13.4082C7.52929 12.3535 7.64647 11.709 7.7246 10.6543L7.92968 7.69531C8.0371 6.28906 7.20702 5.21484 5.76171 5.21484C4.67772 5.21484 3.9453 5.76172 2.94921 6.73828L1.38671 8.28125C0.869131 8.78906 0.703115 9.19922 0.654287 9.86328L0.46874 12.2852C0.419912 12.8906 0.761709 13.3301 1.32811 13.3496C1.89452 13.3887 2.23632 13.0566 2.30468 12.4023L2.52929 9.74609L3.28124 9.0625C3.55468 8.81836 3.91601 8.98438 3.89647 9.25781L3.72069 11.5137C3.6328 12.6465 3.90624 13.1836 4.68749 14.1602L6.7578 16.7676C6.97265 17.0312 6.99218 17.1387 7.08007 17.2949ZM12.793 9.22852L10.4199 9.22852L8.87694 7.50977L8.72069 10L9.35546 10.625C9.68749 10.9668 9.98046 11.0645 10.5859 11.0645L12.793 11.0645C13.4082 11.0645 13.8183 10.7129 13.8183 10.1367C13.8183 9.58984 13.3984 9.22852 12.793 9.22852ZM6.90429 4.29688C8.09569 4.29688 9.05272 3.33984 9.05272 2.14844C9.05272 0.957031 8.09569 0 6.90429 0C5.71288 0 4.75585 0.957031 4.75585 2.14844C4.75585 3.33984 5.71288 4.29688 6.90429 4.29688Z" fill="white" fill-opacity="0.85"/>
 </g>
</svg>
