<?xml version="1.0" encoding="UTF-8"?>
<!--Generator: Apple Native CoreSVG 326-->
<!DOCTYPE svg
PUBLIC "-//W3C//DTD SVG 1.1//EN"
       "http://www.w3.org/Graphics/SVG/1.1/DTD/svg11.dtd">
<svg version="1.1" xmlns="http://www.w3.org/2000/svg" xmlns:xlink="http://www.w3.org/1999/xlink" viewBox="0 0 20.2832 19.9316">
 <g>
  <rect height="19.9316" opacity="0" width="20.2832" x="0" y="0"/>
  <path d="M19.9219 9.96094C19.9219 15.4492 15.459 19.9219 9.96094 19.9219C4.47266 19.9219 0 15.4492 0 9.96094C0 4.46289 4.47266 0 9.96094 0C15.459 0 19.9219 4.46289 19.9219 9.96094ZM7.19727 4.54102C6.62109 4.54102 6.44531 5.16602 6.80664 5.52734L7.69531 6.43555L3.49609 6.43555C3.30078 6.43555 3.1543 6.5918 3.1543 6.78711C3.1543 6.97266 3.30078 7.12891 3.49609 7.12891L7.05078 7.12891L6.97266 7.20703C6.51367 7.66602 6.5332 8.4668 6.99219 8.91602L7.97852 9.89258L7.97852 10.6641L7.01172 9.69727C6.88477 9.56055 6.66016 9.56055 6.52344 9.69727C6.39648 9.82422 6.40625 10.0488 6.52344 10.1855L7.97852 11.6406L7.97852 12.4023L5.57617 9.99023C5.44922 9.85352 5.22461 9.86328 5.08789 9.99023C4.96094 10.1367 4.96094 10.3613 5.08789 10.4785L11.1035 16.4941C11.4648 16.8555 11.8359 16.9922 12.2754 16.9922C12.4609 16.9922 12.6172 16.8262 12.6172 16.6504C12.6172 16.4551 12.4512 16.2891 12.2754 16.2891C11.9043 16.2891 11.8262 16.25 11.4941 15.9277L8.96484 13.3789C9.0625 13.291 9.13086 13.1445 9.13086 12.998L9.13086 12.7832L12.5293 16.1914C12.8809 16.5527 13.2812 16.6797 13.7109 16.6797C13.8965 16.6797 14.0527 16.5234 14.0527 16.3379C14.0527 16.1621 13.8965 15.9961 13.7109 15.9961C13.3398 15.9961 13.2617 15.9473 12.9395 15.625L10.5762 13.252C10.6641 13.1543 10.7422 13.0273 10.7422 12.8613L10.7422 10.1953C10.7422 10.0391 10.6641 9.89258 10.5664 9.78516L9.11133 8.32031L10.4102 7.01172C10.498 6.93359 10.6152 6.91406 10.7129 7.01172L11.6309 7.92969C11.7285 8.02734 11.875 8.0957 12.0312 8.0957L14.6289 8.0957L14.6289 12.8516C14.6289 13.0469 14.7754 13.2031 14.9707 13.2031C15.1562 13.2031 15.3125 13.0469 15.3125 12.8516L15.3125 7.49023C15.3125 7.1875 15.0098 6.93359 14.6973 6.93359L12.2559 6.93359L10.2637 4.95117C10.0098 4.6875 9.64844 4.54102 9.28711 4.54102ZM9.58008 10.4297L9.58008 12.2559L9.13086 11.8164L9.13086 9.98047ZM11.084 4.41406C11.084 5.08789 11.6406 5.64453 12.3145 5.64453C12.9785 5.64453 13.5254 5.08789 13.5254 4.41406C13.5254 3.75 12.9785 3.20312 12.3145 3.20312C11.6406 3.20312 11.084 3.75 11.084 4.41406Z" fill="white" fill-opacity="0.85"/>
 </g>
</svg>
