<?xml version="1.0" encoding="UTF-8"?>
<!--Generator: Apple Native CoreSVG 326-->
<!DOCTYPE svg
PUBLIC "-//W3C//DTD SVG 1.1//EN"
       "http://www.w3.org/Graphics/SVG/1.1/DTD/svg11.dtd">
<svg version="1.1" xmlns="http://www.w3.org/2000/svg" xmlns:xlink="http://www.w3.org/1999/xlink" viewBox="0 0 17.2207 21.2793">
 <g>
  <rect height="21.2793" opacity="0" width="17.2207" x="0" y="0"/>
  <path d="M6.54003 19.6973C6.92089 19.5898 7.15526 19.4727 7.31151 19.1797L9.45995 15.3125C9.49901 15.2441 9.52831 15.2148 9.6162 15.2148L14.8701 15.2148L14.8701 20.166C14.8701 20.7324 15.3193 21.1621 15.8564 21.1621C16.4228 21.1621 16.8623 20.7324 16.8623 20.166L16.8623 14.3359C16.8623 13.6816 16.5107 13.291 15.8271 13.2324L11.4033 12.832L11.4033 7.27539C11.4033 6.19141 10.6416 5.29297 9.3037 5.29297L8.83495 5.29297C8.04394 5.29297 7.43847 5.42969 6.65722 6.01562L3.37597 8.47656C2.80956 8.88672 2.84862 9.7168 3.4248 10.0977L7.43847 12.7637L7.43847 13.0176L5.69042 17.8613L0.729483 19.2285C0.20214 19.375-0.11036 19.9121 0.0361239 20.4395C0.192374 20.9961 0.690421 21.2793 1.25683 21.1328ZM5.69042 9.21875L7.1748 8.10547C7.29198 8.02734 7.43847 8.08594 7.43847 8.23242L7.43847 10.3809ZM9.3037 4.26758C10.4658 4.26758 11.4228 3.31055 11.4228 2.11914C11.4228 0.957031 10.4658 0 9.3037 0C8.1123 0 7.15526 0.957031 7.15526 2.11914C7.15526 3.31055 8.1123 4.26758 9.3037 4.26758Z" fill="white" fill-opacity="0.85"/>
 </g>
</svg>
