<?xml version="1.0" encoding="UTF-8"?>
<!--Generator: Apple Native CoreSVG 326-->
<!DOCTYPE svg
PUBLIC "-//W3C//DTD SVG 1.1//EN"
       "http://www.w3.org/Graphics/SVG/1.1/DTD/svg11.dtd">
<svg version="1.1" xmlns="http://www.w3.org/2000/svg" xmlns:xlink="http://www.w3.org/1999/xlink" viewBox="0 0 20.2832 19.9316">
 <g>
  <rect height="19.9316" opacity="0" width="20.2832" x="0" y="0"/>
  <path d="M19.9219 9.96094C19.9219 15.4492 15.459 19.9219 9.96094 19.9219C4.47266 19.9219 0 15.4492 0 9.96094C0 4.46289 4.47266 0 9.96094 0C15.459 0 19.9219 4.46289 19.9219 9.96094ZM6.60156 6.93359C6.19141 6.93359 5.91797 7.03125 5.64453 7.28516L4.14062 8.79883C3.95508 8.97461 3.93555 9.25781 4.05273 9.47266L5.11719 11.3379L5.11719 14.3848C5.11719 14.6875 5.38086 14.9512 5.67383 14.9512C5.99609 14.9512 6.25 14.6875 6.25 14.3848L6.25 11.7871L9.49219 12.0312L11.4453 13.1445L14.6973 14.873C15.0293 15.0488 15.3516 14.9023 15.4688 14.6484C15.6055 14.3848 15.5078 14.0234 15.2344 13.8867L11.9434 12.1094L9.82422 10.6445C9.66797 10.5273 9.52148 10.3906 9.39453 10.2441C9.60938 10.1074 9.69727 9.85352 9.63867 9.61914L9.22852 7.92969C9.07227 7.32422 8.52539 6.93359 7.91992 6.93359ZM7.00195 10.2734L6.40625 10.6152L6.01562 10.6152L5.25391 9.29688L6.23047 8.31055ZM6.17188 5.11719C6.17188 5.80078 6.71875 6.33789 7.39258 6.33789C8.05664 6.33789 8.60352 5.80078 8.60352 5.11719C8.60352 4.45312 8.05664 3.90625 7.39258 3.90625C6.71875 3.90625 6.17188 4.45312 6.17188 5.11719Z" fill="white" fill-opacity="0.85"/>
 </g>
</svg>
