<svg version="1.1" xmlns="http://www.w3.org/2000/svg" xmlns:xlink="http://www.w3.org/1999/xlink" width="27.041" height="16.6504" viewBox="0 0 27.041 16.6504">
 <g>
  <rect height="16.6504" opacity="0" width="27.041" x="0" y="0"/>
  <path d="M2.13867 12.1582C3.31055 12.1582 4.26758 11.2109 4.26758 10.0293C4.26758 8.84766 3.31055 7.89062 2.13867 7.89062C0.957031 7.89062 0 8.84766 0 10.0293C0 11.2109 0.957031 12.1582 2.13867 12.1582ZM4.46289 12.8418C4.08203 13.8184 4.45312 14.8242 5.26367 15.3906C6.58203 16.3086 7.8125 16.6504 9.77539 16.6504L12.8906 16.6504C15.293 16.6504 15.9375 14.7656 15.1172 13.1836L12.6074 8.33984L12.6074 1.01562C12.6074 0.439453 12.1582 0 11.5723 0C11.0059 0 10.5762 0.439453 10.5762 1.01562L10.5762 8.58398C10.5762 8.7207 10.5859 8.82812 10.6152 8.92578L12.0312 12.9785L10.1953 12.9785C9.01367 12.9785 8.33008 12.6465 7.40234 12.0898C7.1582 11.9434 7.08984 11.7188 7.19727 11.4355L9.47266 5.61523C9.67773 5.09766 9.41406 4.49219 8.88672 4.29688C8.33984 4.0918 7.77344 4.3457 7.56836 4.88281ZM16.4551 15.0684L20.0684 13.8867L25.8398 12.8418C26.3965 12.7441 26.7676 12.2363 26.6699 11.6602C26.5625 11.1035 26.0352 10.7422 25.4785 10.8398L19.4434 11.9336L15.957 12.5684L16.0352 12.7051C16.5039 13.4863 16.582 14.3457 16.4551 15.0684Z" fill="var(--color-primary)"/>
 </g>
</svg>
