<?xml version="1.0" encoding="UTF-8"?>
<!--Generator: Apple Native CoreSVG 326-->
<!DOCTYPE svg
PUBLIC "-//W3C//DTD SVG 1.1//EN"
       "http://www.w3.org/Graphics/SVG/1.1/DTD/svg11.dtd">
<svg version="1.1" xmlns="http://www.w3.org/2000/svg" xmlns:xlink="http://www.w3.org/1999/xlink" viewBox="0 0 24.4815 19.6777">
 <g>
  <rect height="19.6777" opacity="0" width="24.4815" x="0" y="0"/>
  <path d="M14.4234 6.25L14.4234 8.61328C14.4234 9.29688 14.9312 9.80469 15.6148 9.80469L17.48 9.80469C18.1636 9.80469 18.6714 9.29688 18.6714 8.61328L18.6714 6.25C18.6714 5.56641 18.1636 5.05859 17.48 5.05859L15.6148 5.05859C14.9312 5.05859 14.4234 5.56641 14.4234 6.25ZM19.8824 6.25L19.8824 8.61328C19.8824 9.29688 20.3804 9.80469 21.064 9.80469L22.9293 9.80469C23.6128 9.80469 24.1207 9.29688 24.1207 8.61328L24.1207 6.25C24.1207 5.56641 23.6128 5.05859 22.9293 5.05859L21.064 5.05859C20.3804 5.05859 19.8824 5.56641 19.8824 6.25ZM14.4234 13.1934L14.4234 15.5664C14.4234 16.25 14.9312 16.7578 15.6148 16.7578L17.48 16.7578C18.1636 16.7578 18.6714 16.25 18.6714 15.5664L18.6714 13.1934C18.6714 12.5098 18.1636 12.0117 17.48 12.0117L15.6148 12.0117C14.9312 12.0117 14.4234 12.5098 14.4234 13.1934ZM19.8824 13.1934L19.8824 15.5664C19.8824 16.25 20.3804 16.7578 21.064 16.7578L22.9293 16.7578C23.6128 16.7578 24.1207 16.25 24.1207 15.5664L24.1207 13.1934C24.1207 12.5098 23.6128 12.0117 22.9293 12.0117L21.064 12.0117C20.3804 12.0117 19.8824 12.5098 19.8824 13.1934ZM17.3433 3.61328L21.2007 3.61328C21.4937 3.61328 21.5523 3.30078 21.3277 3.14453L19.5699 1.95312C19.3746 1.82617 19.1695 1.82617 18.9742 1.95312L17.2164 3.14453C16.9918 3.30078 17.0503 3.61328 17.3433 3.61328Z" fill="white" fill-opacity="0.85"/>
  <path d="M5.66363 4.35547C6.8648 4.35547 7.82183 3.34961 7.82183 2.1875C7.82183 0.986328 6.8648 0 5.66363 0C4.45269 0 3.50542 0.986328 3.50542 2.1875C3.50542 3.36914 4.45269 4.35547 5.66363 4.35547ZM1.50347 12.4316L7.69488 5.55664C7.08941 5.32227 6.41558 5.22461 5.66363 5.22461C2.86089 5.22461 1.22027 6.57227 1.22027 8.82812C1.22027 9.375 1.23003 10.0977 1.31792 10.8398ZM9.82378 12.4316L9.99956 10.8398C10.0777 10.0977 10.1168 9.375 10.1168 8.82812C10.1168 7.71484 9.71636 6.81641 8.95464 6.21094L4.03277 11.6797C4.58941 11.5918 5.12652 11.5527 5.66363 11.5527C7.04058 11.5527 8.41753 11.7383 9.82378 12.4316ZM3.27105 19.6289C3.83745 19.5508 4.21831 19.1406 4.14995 18.4277L3.75933 14.8242L7.56792 14.8242L7.1773 18.4277C7.08941 19.1406 7.47027 19.5508 8.0562 19.6289C8.64214 19.6875 9.09136 19.3164 9.15972 18.6328L9.66753 13.877C8.40777 13.1445 7.01128 12.8613 5.66363 12.8613C4.31597 12.8613 2.90972 13.1445 1.66948 13.877L2.16753 18.6328C2.23589 19.3164 2.68511 19.6875 3.27105 19.6289ZM8.95464 6.20117L10.8101 4.14062C11.1421 3.78906 11.1031 3.37891 10.7906 3.125C10.4878 2.86133 10.1168 2.85156 9.77495 3.23242L7.69488 5.55664C8.15386 5.73242 8.58355 5.95703 8.95464 6.20117ZM0.292532 13.1543C-0.0492653 13.4082-0.0590309 13.8184 0.0972191 14.082C0.273 14.3652 0.624563 14.502 1.00542 14.2773C1.23003 14.1309 1.43511 14.0039 1.66948 13.877L1.50347 12.4316C1.06402 12.627 0.673391 12.8516 0.292532 13.1543ZM11.025 13.1543C10.6539 12.8516 10.2632 12.627 9.82378 12.4316L9.65777 13.877C9.89214 14.0039 10.0972 14.1309 10.3121 14.2773C10.6929 14.502 11.0347 14.375 11.2105 14.1016C11.3863 13.8281 11.3863 13.418 11.025 13.1543Z" fill="white" fill-opacity="0.85"/>
 </g>
</svg>
