<?xml version="1.0" encoding="UTF-8"?>
<!--Generator: Apple Native CoreSVG 326-->
<!DOCTYPE svg
PUBLIC "-//W3C//DTD SVG 1.1//EN"
       "http://www.w3.org/Graphics/SVG/1.1/DTD/svg11.dtd">
<svg version="1.1" xmlns="http://www.w3.org/2000/svg" xmlns:xlink="http://www.w3.org/1999/xlink" viewBox="0 0 20.2832 19.9316">
 <g>
  <rect height="19.9316" opacity="0" width="20.2832" x="0" y="0"/>
  <path d="M9.96094 19.9219C15.459 19.9219 19.9219 15.459 19.9219 9.96094C19.9219 4.46289 15.459 0 9.96094 0C4.46289 0 0 4.46289 0 9.96094C0 15.459 4.46289 19.9219 9.96094 19.9219ZM9.96094 18.2617C5.37109 18.2617 1.66016 14.5508 1.66016 9.96094C1.66016 5.37109 5.37109 1.66016 9.96094 1.66016C14.5508 1.66016 18.2617 5.37109 18.2617 9.96094C18.2617 14.5508 14.5508 18.2617 9.96094 18.2617Z" fill="white" fill-opacity="0.85"/>
  <path d="M9.7168 6.60156C10.3711 6.60156 10.8887 6.07422 10.8887 5.42969C10.8887 4.78516 10.3711 4.25781 9.7168 4.25781C9.07227 4.25781 8.54492 4.78516 8.54492 5.42969C8.54492 6.07422 9.07227 6.60156 9.7168 6.60156ZM13.8965 7.16797L7.7832 7.16797L7.94922 7.29492C8.20312 7.19727 8.31055 6.95312 8.24219 6.72852C8.18359 6.47461 7.94922 6.2793 7.54883 6.36719L5.95703 6.72852C4.93164 6.96289 4.95117 8.28125 6.02539 8.28125L7.75391 8.28125C7.91992 8.28125 8.04688 8.4082 8.04688 8.57422L8.04688 10.8496L6.37695 12.5C6.14258 12.7246 5.98633 12.959 5.89844 13.3105L5.30273 15.5762C5.19531 15.9863 5.42969 16.2305 5.71289 16.2793C5.98633 16.3184 6.28906 16.2012 6.37695 15.8594L6.94336 13.7402C7.01172 13.5352 7.05078 13.4375 7.20703 13.3105L8.51562 12.1973C8.7793 11.9727 9.22852 12.0215 9.4043 12.334L10.1953 13.7109L11.4062 15.9863C11.5918 16.3379 11.9824 16.3672 12.2266 16.2109C12.4512 16.0645 12.5488 15.7715 12.3926 15.459L11.1719 13.1543L10.459 11.5234C10.3418 11.25 10.2734 10.9473 10.2734 10.6348L10.2734 8.57422C10.2734 8.4082 10.4004 8.28125 10.5566 8.28125L13.8965 8.28125C14.209 8.28125 14.4629 8.03711 14.4629 7.73438C14.4629 7.42188 14.209 7.16797 13.8965 7.16797ZM14.9023 7.73438C14.9023 8.81836 14.6973 9.84375 14.2188 11.1426C14.082 11.5723 14.7168 11.7676 14.873 11.3574C15.3516 10.166 15.5664 9.0625 15.5664 7.73438C15.5664 6.44531 15.3516 5.3418 14.873 4.11133C14.7168 3.71094 14.0723 3.88672 14.2188 4.33594C14.6973 5.625 14.9023 6.66016 14.9023 7.73438Z" fill="white" fill-opacity="0.85"/>
 </g>
</svg>
