<svg version="1.1" xmlns="http://www.w3.org/2000/svg" xmlns:xlink="http://www.w3.org/1999/xlink" viewBox="0 0 20.2832 19.9316">
 <g>
  <rect height="19.9316" opacity="0" width="20.2832" x="0" y="0"/>
  <path d="M9.96094 19.9219C15.459 19.9219 19.9219 15.459 19.9219 9.96094C19.9219 4.46289 15.459 0 9.96094 0C4.46289 0 0 4.46289 0 9.96094C0 15.459 4.46289 19.9219 9.96094 19.9219ZM9.96094 18.2617C5.37109 18.2617 1.66016 14.5508 1.66016 9.96094C1.66016 5.37109 5.37109 1.66016 9.96094 1.66016C14.5508 1.66016 18.2617 5.37109 18.2617 9.96094C18.2617 14.5508 14.5508 18.2617 9.96094 18.2617Z" fill="var(--color-primary)"/>
  <path d="M6.29883 6.63086C6.94336 6.63086 7.4707 6.10352 7.4707 5.44922C7.4707 4.80469 6.94336 4.27734 6.29883 4.27734C5.6543 4.27734 5.11719 4.80469 5.11719 5.44922C5.11719 6.10352 5.6543 6.63086 6.29883 6.63086ZM5.10742 13.5352C5.37109 13.3594 5.70312 13.1641 6.24023 13.0469L6.32812 12.3242C6.32812 12.2656 6.41602 12.2559 6.42578 12.2949L6.76758 12.9688C6.91406 12.959 7.07031 12.9492 7.23633 12.9492C7.5293 12.9492 7.7832 12.9688 8.01758 12.998L7.46094 11.543L7.46094 8.29102C7.46094 7.69531 7.05078 7.19727 6.29883 7.19727L6.05469 7.19727C5.60547 7.19727 5.10742 7.25586 4.66797 7.69531L3.4375 8.91602C3.23242 9.11133 3.24219 9.46289 3.4375 9.6582L5.10742 11.3086ZM5.10742 9.85352L4.56055 9.28711L4.94141 8.89648C5.00977 8.82812 5.10742 8.86719 5.10742 8.95508ZM4.11133 12.0996L14.4238 5.78125C14.5703 5.69336 14.6094 5.49805 14.5117 5.3418C14.4238 5.19531 14.2383 5.15625 14.0918 5.25391L3.7793 11.5723C3.63281 11.6699 3.59375 11.8555 3.68164 12.002C3.7793 12.1484 3.95508 12.1973 4.11133 12.0996ZM10.0098 15.2539C11.4941 15.2539 11.8066 14.3652 12.7832 14.3652C13.7598 14.3652 14.082 15.2539 15.5566 15.2539L15.5762 15.2539C15.7617 15.2539 15.918 15.0977 15.918 14.9219C15.918 14.7461 15.7617 14.5898 15.5762 14.5898L15.5566 14.5898C14.5312 14.5898 14.1895 13.6914 12.7832 13.6914C11.377 13.6914 11.0254 14.5898 10.0098 14.5898C8.99414 14.5898 8.65234 13.6914 7.23633 13.6914C5.83984 13.6914 5.47852 14.5898 4.47266 14.5898L4.44336 14.5898C4.24805 14.5898 4.11133 14.7461 4.11133 14.9219C4.11133 15.0977 4.24805 15.2539 4.44336 15.2539L4.47266 15.2539C5.9375 15.2539 6.26953 14.3652 7.23633 14.3652C8.21289 14.3652 8.53516 15.2539 10.0098 15.2539Z" fill="var(--color-primary)"/>
 </g>
</svg>
