<?xml version="1.0" encoding="UTF-8"?>
<!--Generator: Apple Native CoreSVG 326-->
<!DOCTYPE svg
PUBLIC "-//W3C//DTD SVG 1.1//EN"
       "http://www.w3.org/Graphics/SVG/1.1/DTD/svg11.dtd">
<svg version="1.1" xmlns="http://www.w3.org/2000/svg" xmlns:xlink="http://www.w3.org/1999/xlink" viewBox="0 0 20.2832 19.9316">
 <g>
  <rect height="19.9316" opacity="0" width="20.2832" x="0" y="0"/>
  <path d="M9.96094 19.9219C15.459 19.9219 19.9219 15.459 19.9219 9.96094C19.9219 4.46289 15.459 0 9.96094 0C4.46289 0 0 4.46289 0 9.96094C0 15.459 4.46289 19.9219 9.96094 19.9219ZM9.96094 18.2617C5.37109 18.2617 1.66016 14.5508 1.66016 9.96094C1.66016 5.37109 5.37109 1.66016 9.96094 1.66016C14.5508 1.66016 18.2617 5.37109 18.2617 9.96094C18.2617 14.5508 14.5508 18.2617 9.96094 18.2617Z" fill="white" fill-opacity="0.85"/>
  <path d="M10.0488 5.58594C10.7031 5.58594 11.2207 5.05859 11.2207 4.4043C11.2207 3.75977 10.7031 3.23242 10.0488 3.23242C9.39453 3.23242 8.87695 3.75977 8.87695 4.4043C8.87695 5.05859 9.39453 5.58594 10.0488 5.58594ZM5.42969 15.8105C5.6543 15.9961 5.99609 15.9863 6.21094 15.752L7.93945 13.7793C8.03711 13.6621 8.0957 13.5352 8.11523 13.3887L8.35938 11.0156C8.36914 10.9473 8.44727 10.9082 8.50586 10.9766L10.0488 12.7637L10.0488 15.5176C10.0488 15.8203 10.3027 16.0742 10.6152 16.0742C10.9082 16.0742 11.1719 15.8203 11.1719 15.5176L11.1719 12.5781C11.1719 12.4219 11.123 12.3242 11.0547 12.2266L9.4043 9.82422L10.2148 7.44141C10.2539 7.31445 10.3418 7.26562 10.4688 7.26562L14.7852 7.26562C15.0879 7.26562 15.3516 7.02148 15.3516 6.70898C15.3516 6.40625 15.0879 6.15234 14.7852 6.15234L8.28125 6.15234C7.83203 6.15234 7.46094 6.2793 7.09961 6.64062L6.04492 7.71484C5.68359 8.07617 5.87891 8.66211 6.36719 8.66211L7.37305 8.66211L7.14844 9.30664C7.04102 9.64844 6.99219 10.0098 6.99219 10.3516L6.99219 13.1836L5.38086 15.0195C5.16602 15.2539 5.18555 15.6055 5.42969 15.8105ZM14.7852 7.83203C15.2344 7.83203 15.6152 7.45117 15.6152 6.98242C15.6152 6.5332 15.2344 6.15234 14.7852 6.15234C14.3164 6.15234 13.9355 6.5332 13.9355 6.98242C13.9355 7.45117 14.3164 7.83203 14.7852 7.83203Z" fill="white" fill-opacity="0.85"/>
 </g>
</svg>
