<?xml version="1.0" encoding="UTF-8"?>
<!--Generator: Apple Native CoreSVG 326-->
<!DOCTYPE svg
PUBLIC "-//W3C//DTD SVG 1.1//EN"
       "http://www.w3.org/Graphics/SVG/1.1/DTD/svg11.dtd">
<svg version="1.1" xmlns="http://www.w3.org/2000/svg" xmlns:xlink="http://www.w3.org/1999/xlink" viewBox="0 0 20.2832 19.9316">
 <g>
  <rect height="19.9316" opacity="0" width="20.2832" x="0" y="0"/>
  <path d="M19.9219 9.96094C19.9219 15.4492 15.459 19.9219 9.96094 19.9219C4.47266 19.9219 0 15.4492 0 9.96094C0 4.46289 4.47266 0 9.96094 0C15.459 0 19.9219 4.46289 19.9219 9.96094ZM6.41602 15.8203C6.23047 15.8203 6.08398 15.9766 6.08398 16.1621C6.08398 16.3379 6.23047 16.5039 6.41602 16.5039L8.70117 16.5039C8.89648 16.5039 9.07227 16.3379 9.07227 16.1621C9.07227 15.9668 8.89648 15.8203 8.70117 15.8203ZM13.1152 8.03711L12.6758 8.08594L12.6758 14.6875L10.7129 15.3418C10.4688 15.4199 10.4199 15.6445 10.4785 15.8105C10.5371 15.9473 10.7031 16.084 10.918 15.9961L13.0957 15.2734C13.2715 15.2148 13.3594 15.0977 13.3594 14.8828L13.3594 7.98828C13.2617 8.01758 13.2227 8.02734 13.1152 8.03711ZM7.75391 12.3242L6.38672 14.3555C6.13281 14.7168 6.31836 15.0879 6.61133 15.2051C6.83594 15.3223 7.11914 15.2832 7.31445 14.9902L8.78906 12.793C8.82812 12.7246 8.86719 12.627 8.88672 12.5L8.94531 11.5332L7.66602 10.7812ZM7.22656 6.91406L7.05078 8.85742C7.00195 9.44336 7.31445 10.0195 7.82227 10.3125L10.0977 11.6309L10.9961 13.8672C11.1426 14.2578 11.5332 14.3457 11.8066 14.2188C12.041 14.0918 12.1875 13.8281 12.041 13.4473L11.0547 11.0059C11.0352 10.9277 10.9766 10.8594 10.8496 10.7715L9.0625 9.44336L9.19922 7.4707C9.21875 7.36328 9.28711 7.32422 9.4043 7.36328L10.5469 7.76367C10.6738 7.79297 10.8008 7.80273 10.9277 7.79297L13.0859 7.54883C13.8574 7.46094 13.7109 6.33789 12.959 6.43555L10.8594 6.66992L8.73047 5.95703C7.95898 5.70312 7.28516 6.14258 7.22656 6.91406ZM7.69531 4.17969C7.69531 4.84375 8.24219 5.38086 8.90625 5.38086C9.58008 5.38086 10.127 4.84375 10.127 4.17969C10.127 3.50586 9.58008 2.95898 8.90625 2.95898C8.24219 2.95898 7.69531 3.50586 7.69531 4.17969Z" fill="white" fill-opacity="0.85"/>
 </g>
</svg>
