<svg version="1.1" xmlns="http://www.w3.org/2000/svg" xmlns:xlink="http://www.w3.org/1999/xlink" viewBox="0 0 20.2832 19.9316">
 <g>
  <rect height="19.9316" opacity="0" width="20.2832" x="0" y="0"/>
  <path d="M19.9219 9.96094C19.9219 15.4492 15.459 19.9219 9.96094 19.9219C4.47266 19.9219 0 15.4492 0 9.96094C0 4.46289 4.47266 0 9.96094 0C15.459 0 19.9219 4.46289 19.9219 9.96094ZM9.69727 6.39648C9.23828 6.39648 8.89648 6.47461 8.45703 6.80664L6.58203 8.20312C6.25977 8.4375 6.29883 8.90625 6.62109 9.13086L8.89648 10.6641L8.89648 10.8008L7.91016 13.5645L5.38086 14.248C5.08789 14.3262 4.90234 14.6387 4.99023 14.9414C5.07812 15.2539 5.37109 15.4199 5.68359 15.332L8.38867 14.5996C8.61328 14.541 8.74023 14.4727 8.82812 14.3066L10.0488 12.0996C10.0684 12.0605 10.0879 12.041 10.1465 12.041L13.1348 12.041L13.1348 14.873C13.1348 15.1953 13.3887 15.4297 13.7012 15.4297C14.0234 15.4297 14.2578 15.1953 14.2578 14.873L14.2578 11.5527C14.2578 11.1719 14.0625 10.957 13.6816 10.918L11.1621 10.6836L11.1621 7.5293C11.1621 6.9043 10.7227 6.39648 9.96094 6.39648ZM8.89648 8.07617L8.89648 9.29688L7.91016 8.63281L8.75 8.00781C8.80859 7.94922 8.89648 7.98828 8.89648 8.07617ZM8.74023 4.58984C8.74023 5.27344 9.28711 5.81055 9.96094 5.81055C10.625 5.81055 11.1719 5.27344 11.1719 4.58984C11.1719 3.92578 10.625 3.37891 9.96094 3.37891C9.28711 3.37891 8.74023 3.92578 8.74023 4.58984Z" fill="var(--color-primary)"/>
 </g>
</svg>
