<svg version="1.1" xmlns="http://www.w3.org/2000/svg" xmlns:xlink="http://www.w3.org/1999/xlink" viewBox="0 0 14.2487 22.7051">
 <g>
  <rect height="22.7051" opacity="0" width="14.2487" x="0" y="0"/>
  <path d="M6.92415 4.29688C8.11556 4.29688 9.07259 3.33984 9.07259 2.14844C9.07259 0.957031 8.11556 0 6.92415 0C5.73274 0 4.77571 0.957031 4.77571 2.14844C4.77571 3.33984 5.73274 4.29688 6.92415 4.29688ZM2.28548 11.9727L3.76985 11.9727C4.57063 11.9727 5.1761 11.3867 5.1761 10.625L5.1761 5.23438C5.1761 4.48242 4.57063 3.88672 3.76985 3.88672L2.75423 3.88672C1.61165 3.88672 0.937822 4.57031 0.937822 5.72266L0.937822 10.625C0.937822 11.4258 1.49446 11.9727 2.28548 11.9727ZM1.74837 21.9629L4.49251 18.7109C4.80501 18.3301 4.91243 18.1543 5.12727 17.6953L6.86556 13.9551C7.44173 12.7148 7.53938 12.0117 7.62727 10.752L7.74446 9.16992L9.27767 10.625C9.62923 10.957 9.90267 11.0645 10.5081 11.0645L12.8616 11.0645C13.4769 11.0645 13.887 10.7129 13.887 10.1367C13.887 9.58984 13.4671 9.22852 12.8616 9.22852L10.3519 9.22852L7.35384 5.9668C6.90462 5.47852 6.31868 5.20508 5.62532 5.20508C5.00032 5.20508 4.49251 5.39062 3.99446 5.72266L3.55501 11.6113C3.47688 12.5293 3.62337 13.0566 4.08235 13.7305L3.17415 17.2266L0.312822 20.6055C-0.683272 21.7969 0.947587 22.9199 1.74837 21.9629ZM10.889 20.7422L8.89681 16.7188C8.73079 16.3867 8.51595 16.0352 8.32063 15.752L7.55892 14.6973L6.55306 16.8555C6.77767 17.1582 6.88509 17.3242 6.97298 17.5098L9.02376 21.6504C9.65852 22.9492 11.5726 22.1387 10.889 20.7422ZM12.8616 6.33789C12.5784 6.33789 12.3538 6.5625 12.3538 6.8457L12.3538 8.28125L12.8616 8.28125C12.9886 8.28125 13.1546 8.30078 13.3695 8.33984L13.3695 6.8457C13.3695 6.5625 13.1449 6.33789 12.8616 6.33789ZM12.8519 22.3145C13.1351 22.3145 13.3695 22.0801 13.3695 21.7969L13.3695 11.9531C13.1839 11.9922 13.0081 12.0117 12.8616 12.0117L12.3538 12.0117L12.3538 21.7969C12.3538 22.0801 12.5687 22.3145 12.8519 22.3145Z" fill="var(--color-primary)"/>
 </g>
</svg>
