<?xml version="1.0" encoding="UTF-8"?>
<!--Generator: Apple Native CoreSVG 326-->
<!DOCTYPE svg
PUBLIC "-//W3C//DTD SVG 1.1//EN"
       "http://www.w3.org/Graphics/SVG/1.1/DTD/svg11.dtd">
<svg version="1.1" xmlns="http://www.w3.org/2000/svg" xmlns:xlink="http://www.w3.org/1999/xlink" viewBox="0 0 24.4669 21.8066">
 <g>
  <rect height="21.8066" opacity="0" width="24.4669" x="0" y="0"/>
  <path d="M6.5645 4.45312C7.67778 4.45312 8.58598 3.54492 8.58598 2.43164C8.58598 1.31836 7.67778 0.419922 6.5645 0.419922C5.45121 0.419922 4.55278 1.31836 4.55278 2.43164C4.55278 3.54492 5.45121 4.45312 6.5645 4.45312ZM18.3516 4.0332C19.4649 4.0332 20.3731 3.125 20.3731 2.01172C20.3731 0.908203 19.4649 0 18.3516 0C17.2383 0 16.3399 0.908203 16.3399 2.01172C16.3399 3.125 17.2383 4.0332 18.3516 4.0332ZM0.939495 6.93359L3.00004 7.09961C3.13676 7.10938 3.23442 7.20703 3.23442 7.36328L3.23442 11.1035C3.23442 11.8555 3.47856 12.5879 3.93754 13.1641L6.34965 16.2695L5.11918 20.3613C4.95317 20.8984 5.26567 21.4746 5.78325 21.6211C6.30082 21.7676 6.86723 21.5234 7.04301 20.9375L8.41996 16.3379C8.44926 16.25 8.45903 16.1816 8.45903 16.0938L12.1895 20.8105C12.5313 21.2402 13.1758 21.3281 13.586 20.9863C14.0254 20.6152 14.1036 20.0098 13.7618 19.5703L7.1016 11.1426L7.40434 8.1543C7.43364 7.93945 7.62895 7.83203 7.8145 7.91992L10.1289 9.08203C10.2852 9.16992 10.5684 9.22852 10.793 9.22852L14.3575 9.22852C14.5918 9.22852 14.836 9.14062 15.002 8.99414L16.6914 7.54883C16.8575 7.40234 17.0625 7.4707 17.1407 7.66602L18.0879 10.3027L14.0938 11.3965C13.6934 11.5039 13.3809 11.8555 13.3418 12.2754L12.8926 16.875C12.834 17.5293 13.4102 17.9688 13.8985 17.9688C14.4063 17.9688 14.8457 17.5977 14.8946 17.0703L15.2754 13.2422L18.0782 12.8125L16.7403 15.5078C16.5938 15.8008 16.5157 16.123 16.6329 16.4258L18.4786 21.0254C18.7032 21.582 19.3086 21.7773 19.7872 21.582C20.295 21.377 20.5489 20.791 20.3438 20.2734L18.7032 16.1816L20.9688 12.959C21.545 12.1582 21.75 11.123 21.5743 10.1562L21.2227 8.22266C21.1739 7.95898 21.3789 7.79297 21.6231 7.87109L22.7852 8.26172C23.5762 8.53516 24.1719 8.04688 24.1036 7.25586L23.6348 2.60742C23.586 2.03125 23.0684 1.64062 22.5411 1.69922C22.0039 1.75781 21.584 2.24609 21.6329 2.8125L21.9454 5.87891L19.1719 4.95117C18.0391 4.57031 16.8379 4.77539 15.9004 5.58594L13.9961 7.22656L10.9102 7.22656L7.93168 5.74219C7.48246 5.50781 7.04301 5.39062 6.54496 5.35156L2.37504 5.03906L3.34184 2.11914C3.52739 1.58203 3.23442 1.01562 2.71684 0.839844C2.1895 0.664062 1.61332 0.947266 1.44731 1.47461L0.0508236 5.60547C-0.154255 6.23047 0.285199 6.88477 0.939495 6.93359Z" fill="white" fill-opacity="0.85"/>
 </g>
</svg>
