<?xml version="1.0" encoding="UTF-8"?>
<!--Generator: Apple Native CoreSVG 326-->
<!DOCTYPE svg
PUBLIC "-//W3C//DTD SVG 1.1//EN"
       "http://www.w3.org/Graphics/SVG/1.1/DTD/svg11.dtd">
<svg version="1.1" xmlns="http://www.w3.org/2000/svg" xmlns:xlink="http://www.w3.org/1999/xlink" viewBox="0 0 21.9531 18.7012">
 <g>
  <rect height="18.7012" opacity="0" width="21.9531" x="0" y="0"/>
  <path d="M12.3535 4.26758C13.5254 4.26758 14.4824 3.32031 14.4824 2.12891C14.4824 0.957031 13.5254 0 12.3535 0C11.1621 0 10.2148 0.957031 10.2148 2.12891C10.2148 3.32031 11.1621 4.26758 12.3535 4.26758ZM13.8867 10.9961C14.4629 10.9961 14.9219 10.5469 14.9219 9.9707C14.9219 9.39453 14.4629 8.94531 13.8867 8.94531L10.3027 8.94531L10.3027 5.27344C10.3027 4.05273 9.27734 3.27148 8.14453 3.50586L2.10938 4.75586C-0.078125 5.20508-0.673828 7.79297 0.908203 9.18945L4.66797 12.4902L4.66797 17.666C4.66797 18.2227 5.13672 18.6914 5.69336 18.6914C6.25 18.6914 6.71875 18.2227 6.71875 17.666L6.71875 12.0996C6.71875 11.7383 6.64062 11.543 6.41602 11.2988L3.52539 8.38867C3.35938 8.22266 3.44727 7.99805 3.64258 7.95898L7.70508 7.20703C8.10547 7.12891 8.25195 7.26562 8.25195 7.61719L8.25195 9.9707C8.25195 10.5469 8.7207 10.9961 9.27734 10.9961ZM19.4043 14.873L20.8301 14.873C21.3184 14.873 21.6406 14.5508 21.6406 14.0625L21.6406 5.29297C21.6406 4.83398 21.3184 4.51172 20.8496 4.51172L19.3652 4.51172C15.8789 4.51172 13.7695 5.41992 11.5527 7.99805L12.9883 7.99805C13.0273 7.99805 13.0566 7.99805 13.0957 7.99805C14.8438 6.2793 16.6406 5.63477 19.3652 5.63477L20.5078 5.63477L20.5078 13.7305L19.4043 13.7305C19.043 13.7305 18.7695 13.5547 18.6133 13.252L17.7246 11.4746C17.5684 11.1816 17.2852 11.1133 17.0508 11.1914C16.7578 11.2891 16.5332 11.6016 16.7188 11.9824L17.6074 13.7695C17.9492 14.4434 18.6328 14.873 19.4043 14.873ZM7.66602 14.3262C8.60352 13.6523 9.35547 12.8125 10.0293 11.9434L9.27734 11.9434C9.0625 11.9434 8.84766 11.9043 8.64258 11.8262C8.33984 12.1973 8.01758 12.5293 7.66602 12.8516ZM0.576172 15.8984L2.25586 15.8984C2.77344 15.8984 3.26172 15.8691 3.7207 15.8008L3.7207 14.668C3.27148 14.7363 2.77344 14.7754 2.25586 14.7754L0.576172 14.7754C0.253906 14.7754 0 15.0098 0 15.3418C0 15.6348 0.253906 15.8984 0.576172 15.8984Z" fill="white" fill-opacity="0.85"/>
 </g>
</svg>
