<?xml version="1.0" encoding="UTF-8"?>
<!--Generator: Apple Native CoreSVG 326-->
<!DOCTYPE svg
PUBLIC "-//W3C//DTD SVG 1.1//EN"
       "http://www.w3.org/Graphics/SVG/1.1/DTD/svg11.dtd">
<svg version="1.1" xmlns="http://www.w3.org/2000/svg" xmlns:xlink="http://www.w3.org/1999/xlink" viewBox="0 0 20.2832 19.9316">
 <g>
  <rect height="19.9316" opacity="0" width="20.2832" x="0" y="0"/>
  <path d="M19.9219 9.96094C19.9219 15.4492 15.459 19.9219 9.96094 19.9219C4.47266 19.9219 0 15.4492 0 9.96094C0 4.46289 4.47266 0 9.96094 0C15.459 0 19.9219 4.46289 19.9219 9.96094ZM6.57227 3.68164L6.57227 5.78125C6.57227 5.9082 6.5918 6.00586 6.66992 6.10352L7.8418 7.80273C7.95898 7.95898 8.01758 8.05664 8.05664 8.32031C8.0957 8.93555 8.23242 10.0684 8.47656 10.9082L6.94336 13.0469C6.86523 13.1445 6.8457 13.252 6.8457 13.3691L6.8457 16.25C6.8457 16.543 7.07031 16.7969 7.38281 16.7969C7.69531 16.7969 7.94922 16.543 7.94922 16.25L7.94922 13.584L9.49219 11.9336C9.53125 11.8945 9.58984 11.8945 9.60938 11.9336L11.0938 13.9258L12.3633 16.4453C12.7148 17.1484 13.7012 16.6504 13.3691 15.9766L10.7617 10.752C10.5273 10.293 10.4102 9.6582 10.3516 9.02344C10.3418 8.80859 10.4785 8.7207 10.6641 8.80859L11.6895 9.32617L12.6367 11.2305C12.9688 11.9043 13.9844 11.4551 13.623 10.7227L12.5879 8.67188C12.5293 8.56445 12.4512 8.47656 12.3438 8.41797L10.8594 7.67578C10.4297 7.45117 9.98047 7.37305 9.55078 7.27539C9.08203 7.14844 8.65234 7.00195 8.35938 6.5918L7.68555 5.60547L7.68555 3.68164C7.68555 3.39844 7.44141 3.13477 7.12891 3.13477C6.81641 3.13477 6.57227 3.39844 6.57227 3.68164ZM8.7207 5.44922C8.7207 6.12305 9.26758 6.66992 9.94141 6.66992C10.5957 6.66992 11.1523 6.12305 11.1523 5.44922C11.1523 4.77539 10.5957 4.23828 9.94141 4.23828C9.26758 4.23828 8.7207 4.77539 8.7207 5.44922Z" fill="white" fill-opacity="0.85"/>
 </g>
</svg>
