<svg version="1.1" xmlns="http://www.w3.org/2000/svg" xmlns:xlink="http://www.w3.org/1999/xlink" viewBox="0 0 23.9355 22.0801">
 <g>
  <rect height="22.0801" opacity="0" width="23.9355" x="0" y="0"/>
  <path d="M9.62891 3.92578C10.7227 3.92578 11.6016 3.05664 11.6016 1.97266C11.6016 0.869141 10.7227 0 9.62891 0C8.54492 0 7.66602 0.869141 7.66602 1.97266C7.66602 3.05664 8.54492 3.92578 9.62891 3.92578ZM11.4062 18.6328C11.9629 19.7656 13.6133 19.0723 13.0176 17.8516L11.4453 14.6484C11.3086 14.3652 11.1133 14.0625 10.9375 13.8184L9.77539 12.168L9.85352 11.9238C10.1562 10.9961 10.293 10.4297 10.3516 9.51172L10.5273 6.91406C10.6152 5.67383 9.89258 4.73633 8.62305 4.73633C7.67578 4.73633 7.03125 5.21484 6.15234 6.08398L4.78516 7.43164C4.33594 7.87109 4.19922 8.23242 4.15039 8.80859L3.98438 10.9375C3.93555 11.4844 4.23828 11.8457 4.72656 11.875C5.23438 11.9141 5.53711 11.6113 5.58594 11.0449L5.78125 8.71094L6.45508 8.11523C6.68945 7.91016 7.00195 8.03711 6.99219 8.28125L6.8457 10.2539C6.76758 11.2598 7.00195 11.7383 7.67578 12.5879L9.51172 14.873C9.6875 15.0977 9.70703 15.1953 9.78516 15.3418ZM14.8047 8.25195L12.7246 8.25195L11.4258 6.81641L11.2598 8.97461L11.7773 9.49219C12.0703 9.78516 12.3242 9.87305 12.8613 9.87305L14.8047 9.87305C15.3516 9.87305 15.7129 9.56055 15.7129 9.0625C15.7129 8.56445 15.3418 8.25195 14.8047 8.25195ZM5.00977 19.502L7.79297 16.2012C8.05664 15.8887 8.08594 15.8203 8.19336 15.4785L8.36914 14.9512L6.92383 13.1543L6.51367 15.0977L3.76953 18.3203C2.91992 19.3359 4.29688 20.332 5.00977 19.502ZM17.9785 10.9473C18.0859 11.2012 18.418 11.3281 18.7109 11.1914L23.2617 9.07227C23.5352 8.93555 23.6523 8.61328 23.5254 8.33008C23.4082 8.07617 23.0859 7.95898 22.793 8.0957L18.2422 10.2148C17.9688 10.3516 17.8418 10.6738 17.9785 10.9473ZM18.4766 19.0137L19.3652 18.9551C19.4629 18.9551 19.5117 18.9453 19.5801 18.9551L21.2402 9.47266L20.0586 10ZM0.507812 22.0703L19.7266 22.0703C20.332 22.0703 20.8105 21.5918 20.8105 20.9668C20.8105 20.2539 20.2637 19.8535 19.5117 19.9023L0.507812 21.0352C0.224609 21.0645 0 21.2695 0 21.5625C0 21.8457 0.224609 22.0703 0.507812 22.0703Z" fill="var(--color-primary)"/>
 </g>
</svg>
