<?xml version="1.0" encoding="UTF-8"?>
<!--Generator: Apple Native CoreSVG 326-->
<!DOCTYPE svg
PUBLIC "-//W3C//DTD SVG 1.1//EN"
       "http://www.w3.org/Graphics/SVG/1.1/DTD/svg11.dtd">
<svg version="1.1" xmlns="http://www.w3.org/2000/svg" xmlns:xlink="http://www.w3.org/1999/xlink" viewBox="0 0 19.082 19.8926">
 <g>
  <rect height="19.8926" opacity="0" width="19.082" x="0" y="0"/>
  <path d="M2.62695 5.3418C1.17188 5.3418 0 4.12109 0 2.70508C0 1.23047 1.17188 0.0390625 2.62695 0.0390625C4.11133 0.0390625 5.2832 1.23047 5.2832 2.70508C5.2832 4.16016 4.11133 5.3418 2.62695 5.3418ZM18.3691 19.3164C17.8613 19.8438 16.9922 19.8047 16.3672 19.1602L12.168 14.8242C12.0312 14.6777 11.9336 14.6387 11.7188 14.7266L8.4375 15.9668C6.32812 16.7773 4.33594 16.084 3.41797 14.4043L1.30859 10.5664C0.488281 9.07227 0.742188 7.5293 2.16797 6.76758C3.54492 6.01562 4.98047 6.58203 5.81055 8.11523L8.54492 13.1055L10.8789 12.2559C12.0312 11.8359 12.998 11.9727 13.916 12.9297L18.2812 17.4414C18.8867 18.0664 18.8281 18.8477 18.3691 19.3164Z" fill="white" fill-opacity="0.85"/>
  <path d="M15.2344 0C14.7656 0 14.4043 0.361328 14.4043 0.830078L14.4043 5.32227L12.6367 5.32227C11.7969 5.32227 11.5137 6.16211 12.0215 6.72852L14.6387 9.6875C15.0098 10.0977 15.498 10.0879 15.8496 9.6875L18.4668 6.72852C19.0039 6.13281 18.6523 5.32227 17.8516 5.32227L16.0645 5.32227L16.0645 0.830078C16.0645 0.361328 15.7031 0 15.2344 0Z" fill="white" fill-opacity="0.85"/>
 </g>
</svg>
