<?xml version="1.0" encoding="UTF-8"?>
<!--Generator: Apple Native CoreSVG 326-->
<!DOCTYPE svg
PUBLIC "-//W3C//DTD SVG 1.1//EN"
       "http://www.w3.org/Graphics/SVG/1.1/DTD/svg11.dtd">
<svg version="1.1" xmlns="http://www.w3.org/2000/svg" xmlns:xlink="http://www.w3.org/1999/xlink" viewBox="0 0 23.7012 23.4082">
 <g>
  <rect height="23.4082" opacity="0" width="23.7012" x="0" y="0"/>
  <path d="M9.81445 4.47266C10.9863 4.47266 11.9336 3.52539 11.9336 2.34375C11.9336 1.17188 10.9863 0.224609 9.81445 0.224609C8.62305 0.224609 7.67578 1.17188 7.67578 2.34375C7.67578 3.52539 8.62305 4.47266 9.81445 4.47266ZM10.459 13.6426L15.8301 15.3027L20.9668 17.6367C22.2949 18.2324 23.0762 16.3672 21.8262 15.791L12.9785 11.7969L12.9785 7.05078C12.9785 6.66016 13.0762 6.61133 13.3594 6.50391L16.0254 5.41992C16.3574 5.2832 16.3867 5.20508 16.5527 5.00977L19.3555 1.75781C19.7266 1.32812 19.6582 0.693359 19.2383 0.341797C18.8184-0.0195312 18.1738 0.0390625 17.8223 0.458984L15.1465 3.57422L2.83203 8.60352C2.48047 8.74023 2.25586 8.88672 2.10938 9.0332L7.12891 9.0332L8.64258 8.42773C8.94531 8.31055 9.05273 8.41797 9.05273 8.60352L9.05273 11.709C9.05273 12.7344 9.52148 13.3594 10.459 13.6426ZM9.57031 22.1582C9.3457 22.9297 9.96094 23.4082 10.5566 23.4082C10.9668 23.4082 11.3867 23.1836 11.5137 22.6855L12.9492 17.4902C12.9688 17.3926 12.9785 17.2949 12.9785 17.2168L12.9785 15.3809L10.6445 14.668L10.9473 17.1582ZM0.546875 11.0938L8.08594 11.0938L8.08594 10.0098L0.546875 10.0098C0.234375 10.0098 0 10.2441 0 10.5469C0 10.8496 0.234375 11.0938 0.546875 11.0938ZM22.8027 11.0938C23.1055 11.0938 23.3398 10.8496 23.3398 10.5469C23.3398 10.2441 23.1055 10.0098 22.8027 10.0098L13.9551 10.0098L13.9551 10.7422L13.9551 11.0938Z" fill="white" fill-opacity="0.85"/>
 </g>
</svg>
