<svg version="1.1" xmlns="http://www.w3.org/2000/svg" xmlns:xlink="http://www.w3.org/1999/xlink" width="18.3398" height="17.998" viewBox="0 0 18.3398 17.998">
 <g>
  <rect height="17.998" opacity="0" width="18.3398" x="0" y="0"/>
  <path d="M3.06641 17.998L14.9121 17.998C16.9629 17.998 17.9785 16.9824 17.9785 14.9707L17.9785 3.04688C17.9785 1.03516 16.9629 0.0195312 14.9121 0.0195312L3.06641 0.0195312C1.02539 0.0195312 0 1.02539 0 3.04688L0 14.9707C0 16.9922 1.02539 17.998 3.06641 17.998Z" fill="var(--color-tertiary)"/>
  <path d="M6.5918 13.8477C6.16211 13.8477 5.83008 13.8184 5.58594 13.7109C5.24414 13.5938 5.07812 13.3789 5.07812 13.0859C5.07812 12.7832 5.29297 12.5488 5.6543 12.5488C5.78125 12.5488 5.85938 12.5586 5.94727 12.5781C6.11328 12.6074 6.23047 12.6465 6.5332 12.6465C7.42188 12.6465 7.83203 12.2266 8.00781 11.2109L8.32031 9.28711L6.45508 9.28711C6.12305 9.28711 5.9082 9.08203 5.9082 8.76953C5.9082 8.42773 6.12305 8.21289 6.45508 8.21289L8.47656 8.21289L8.74023 6.5625C9.01367 4.89258 9.86328 4.08203 11.3965 4.08203C11.8164 4.08203 12.1582 4.12109 12.4023 4.21875C12.7441 4.33594 12.9102 4.56055 12.9102 4.84375C12.9102 5.14648 12.6953 5.38086 12.334 5.38086C12.207 5.38086 12.1289 5.37109 12.041 5.35156C11.875 5.32227 11.7578 5.29297 11.4551 5.29297C10.5664 5.29297 10.1562 5.70312 9.99023 6.67969L9.75586 8.21289L11.6895 8.21289C12.041 8.21289 12.2461 8.42773 12.2461 8.76953C12.2461 9.08203 12.041 9.28711 11.6895 9.28711L9.58008 9.28711L9.24805 11.377C8.97461 13.0469 8.125 13.8477 6.5918 13.8477Z" fill="var(--color-primary)"/>
 </g>
</svg>
