<svg version="1.1" xmlns="http://www.w3.org/2000/svg" xmlns:xlink="http://www.w3.org/1999/xlink" viewBox="0 0 22.168 20.8496">
 <g>
  <rect height="20.8496" opacity="0" width="22.168" x="0" y="0"/>
  <path d="M1.29883 18.5156L20.5078 18.5156L20.5078 17.8613C20.5078 17.4707 20.2832 17.2363 19.8828 17.2363L19.2578 17.2363L19.2578 6.69922L20.1172 6.69922C20.6543 6.69922 20.9668 6.30859 20.9668 5.9082C20.9668 5.61523 20.8008 5.36133 20.4395 5.15625L12.0996 0.341797C11.709 0.117188 11.2988 0 10.8984 0C10.498 0 10.0781 0.117188 9.70703 0.341797L1.36719 5.15625C0.996094 5.36133 0.839844 5.61523 0.839844 5.9082C0.839844 6.30859 1.15234 6.69922 1.68945 6.69922L2.54883 6.69922L2.54883 17.2363L1.93359 17.2363C1.5332 17.2363 1.29883 17.4707 1.29883 17.8613ZM4.02344 17.2363L4.02344 5.44922L10.5176 1.80664C10.6348 1.73828 10.7715 1.69922 10.8984 1.69922C11.0254 1.69922 11.1621 1.73828 11.2891 1.80664L17.7832 5.44922L17.7832 17.2363ZM0.78125 20.8398L21.0156 20.8398C21.4453 20.8398 21.8066 20.4785 21.8066 20.0488C21.8066 19.6191 21.4453 19.2676 21.0156 19.2676L0.78125 19.2676C0.351562 19.2676 0 19.6191 0 20.0488C0 20.4785 0.351562 20.8398 0.78125 20.8398Z" fill="var(--color-primary)"/>
  <path d="M8.54492 14.6582C10.0781 14.6582 10.8203 13.8672 11.0547 12.373L11.377 10.4688L13.4766 10.4688C13.7207 10.4688 13.8965 10.3125 13.8965 10.0879C13.8965 9.85352 13.7207 9.6875 13.4766 9.6875L11.5039 9.6875L11.748 8.24219C11.9043 7.32422 12.373 6.875 13.291 6.875C13.6523 6.875 13.8867 6.95312 14.1113 6.95312C14.4043 6.95312 14.5508 6.80664 14.5508 6.55273C14.5508 6.30859 14.3652 6.14258 14.1309 6.05469C13.8672 5.9375 13.4668 5.9082 13.1934 5.9082C11.709 5.9082 10.8789 6.67969 10.6445 8.1543L10.3809 9.6875L8.4082 9.6875C8.16406 9.6875 7.99805 9.85352 7.99805 10.0879C7.99805 10.3125 8.16406 10.4688 8.4082 10.4688L10.2539 10.4688L9.96094 12.2363C9.80469 13.1836 9.4043 13.6816 8.4375 13.6816C8.04688 13.6816 7.92969 13.623 7.57812 13.623C7.33398 13.623 7.17773 13.7891 7.17773 14.0137C7.17773 14.2676 7.33398 14.4141 7.57812 14.5215C7.86133 14.6387 8.24219 14.6582 8.54492 14.6582Z" fill="var(--color-primary)"/>
 </g>
</svg>
