<?xml version="1.0" encoding="UTF-8"?>
<!--Generator: Apple Native CoreSVG 326-->
<!DOCTYPE svg
PUBLIC "-//W3C//DTD SVG 1.1//EN"
       "http://www.w3.org/Graphics/SVG/1.1/DTD/svg11.dtd">
<svg version="1.1" xmlns="http://www.w3.org/2000/svg" xmlns:xlink="http://www.w3.org/1999/xlink" viewBox="0 0 20.2832 19.9316">
 <g>
  <rect height="19.9316" opacity="0" width="20.2832" x="0" y="0"/>
  <path d="M19.9219 9.96094C19.9219 15.4492 15.459 19.9219 9.96094 19.9219C4.47266 19.9219 0 15.4492 0 9.96094C0 4.46289 4.47266 0 9.96094 0C15.459 0 19.9219 4.46289 19.9219 9.96094ZM7.40234 3.7793L7.34375 7.28516C7.34375 7.46094 7.2168 7.59766 7.01172 7.59766C6.83594 7.59766 6.69922 7.46094 6.69922 7.27539L6.74805 3.86719C6.74805 3.61328 6.61133 3.45703 6.37695 3.45703C6.15234 3.45703 6.00586 3.60352 5.99609 3.85742L5.83984 7.34375C5.79102 8.34961 6.11328 8.69141 6.875 9.01367C7.05078 9.0918 7.13867 9.24805 7.13867 9.44336L7.02148 15.8301C7.01172 16.2988 7.31445 16.5527 7.7832 16.5527C8.26172 16.5527 8.56445 16.2988 8.54492 15.8301L8.44727 9.44336C8.44727 9.24805 8.52539 9.0918 8.70117 9.01367C9.45312 8.69141 9.78516 8.34961 9.73633 7.34375L9.57031 3.85742C9.55078 3.60352 9.42383 3.45703 9.18945 3.45703C8.96484 3.45703 8.82812 3.61328 8.82812 3.86719L8.87695 7.27539C8.87695 7.46094 8.74023 7.59766 8.54492 7.59766C8.34961 7.59766 8.21289 7.46094 8.21289 7.28516L8.17383 3.7793C8.17383 3.52539 8.00781 3.38867 7.7832 3.38867C7.55859 3.38867 7.40234 3.52539 7.40234 3.7793ZM12.3242 3.76953C11.4062 5.04883 10.8008 7.45117 10.8008 9.7168L10.8008 10.0977C10.8008 10.498 10.957 10.7715 11.2402 10.9766L11.5625 11.2109C11.7676 11.3477 11.8652 11.5039 11.8555 11.7188L11.7285 15.8008C11.7188 16.2988 12.0312 16.5527 12.4902 16.5527C12.9785 16.5527 13.2715 16.3184 13.2715 15.8594L13.2715 3.80859C13.2715 3.51562 13.0664 3.38867 12.8613 3.38867C12.6562 3.38867 12.5 3.50586 12.3242 3.76953Z" fill="white" fill-opacity="0.85"/>
 </g>
</svg>
