<?xml version="1.0" encoding="UTF-8"?>
<!--Generator: Apple Native CoreSVG 326-->
<!DOCTYPE svg
PUBLIC "-//W3C//DTD SVG 1.1//EN"
       "http://www.w3.org/Graphics/SVG/1.1/DTD/svg11.dtd">
<svg version="1.1" xmlns="http://www.w3.org/2000/svg" xmlns:xlink="http://www.w3.org/1999/xlink" viewBox="0 0 21.6309 14.9316">
 <g>
  <rect height="14.9316" opacity="0" width="21.6309" x="0" y="0"/>
  <path d="M4.44336 14.9219C4.91211 14.9219 5.27344 14.5605 5.27344 14.1016L5.27344 0.820312C5.27344 0.361328 4.91211 0 4.44336 0C3.97461 0 3.60352 0.361328 3.60352 0.820312L3.60352 14.1016C3.60352 14.5605 3.97461 14.9219 4.44336 14.9219ZM8.33984 13.5645C8.33984 14.4824 8.86719 14.9219 9.50195 14.9219C9.78516 14.9219 10.0684 14.834 10.3516 14.6777L20.6055 8.70117C21.3477 8.27148 21.6309 7.94922 21.6309 7.46094C21.6309 6.97266 21.3477 6.65039 20.6055 6.2207L10.3516 0.244141C10.0684 0.078125 9.78516 0 9.50195 0C8.86719 0 8.33984 0.429688 8.33984 1.34766ZM9.91211 12.793L9.91211 2.12891C9.91211 2.01172 9.99023 1.93359 10.0879 1.93359C10.127 1.93359 10.166 1.94336 10.1953 1.97266L19.3164 7.31445C19.3848 7.35352 19.4141 7.40234 19.4141 7.46094C19.4141 7.50977 19.3848 7.56836 19.3164 7.60742L10.1953 12.9492C10.166 12.9688 10.127 12.9883 10.0879 12.9883C9.99023 12.9883 9.91211 12.9004 9.91211 12.793Z" fill="white" fill-opacity="0.85"/>
 </g>
</svg>
