<svg version="1.1" xmlns="http://www.w3.org/2000/svg" xmlns:xlink="http://www.w3.org/1999/xlink" viewBox="0 0 20.2832 19.9316">
 <g>
  <rect height="19.9316" opacity="0" width="20.2832" x="0" y="0"/>
  <path d="M9.96094 19.9219C15.459 19.9219 19.9219 15.459 19.9219 9.96094C19.9219 4.46289 15.459 0 9.96094 0C4.46289 0 0 4.46289 0 9.96094C0 15.459 4.46289 19.9219 9.96094 19.9219ZM9.96094 18.2617C5.37109 18.2617 1.66016 14.5508 1.66016 9.96094C1.66016 5.37109 5.37109 1.66016 9.96094 1.66016C14.5508 1.66016 18.2617 5.37109 18.2617 9.96094C18.2617 14.5508 14.5508 18.2617 9.96094 18.2617Z" fill="var(--color-primary)"/>
  <path d="M8.29102 14.5117C8.62305 14.5117 8.86719 14.2676 8.86719 13.9258L8.86719 12.8906L10.957 12.8906C11.1426 12.8906 11.2793 12.7539 11.2793 12.5684C11.2793 12.3828 11.1426 12.2461 10.957 12.2461L8.86719 12.2461L8.86719 10.459L12.0996 10.459C12.4023 10.459 12.6172 10.2539 12.6172 9.96094C12.6172 9.67773 12.4023 9.47266 12.0996 9.47266L8.86719 9.47266L8.86719 6.64062L12.4414 6.64062C12.7539 6.64062 12.9688 6.42578 12.9688 6.14258C12.9688 5.83984 12.7539 5.625 12.4414 5.625L8.29102 5.625C7.92969 5.625 7.70508 5.84961 7.70508 6.2207L7.70508 12.2461L6.76758 12.2461C6.57227 12.2461 6.43555 12.3828 6.43555 12.5684C6.43555 12.7539 6.57227 12.8906 6.76758 12.8906L7.70508 12.8906L7.70508 13.9258C7.70508 14.2676 7.93945 14.5117 8.29102 14.5117Z" fill="var(--color-primary)"/>
 </g>
</svg>
