<?xml version="1.0" encoding="UTF-8"?>
<!--Generator: Apple Native CoreSVG 326-->
<!DOCTYPE svg
PUBLIC "-//W3C//DTD SVG 1.1//EN"
       "http://www.w3.org/Graphics/SVG/1.1/DTD/svg11.dtd">
<svg version="1.1" xmlns="http://www.w3.org/2000/svg" xmlns:xlink="http://www.w3.org/1999/xlink" viewBox="0 0 13.1934 17.8027">
 <g>
  <rect height="17.8027" opacity="0" width="13.1934" x="0" y="0"/>
  <path d="M3.47656 17.7734C4.05273 17.7734 4.44336 17.3535 4.44336 16.7871L4.44336 14.4727L8.75 14.4727C9.11133 14.4727 9.36523 14.209 9.36523 13.8281C9.36523 13.457 9.11133 13.1836 8.75 13.1836L4.44336 13.1836L4.44336 9.48242L11.2305 9.48242C11.748 9.48242 12.1191 9.13086 12.1191 8.62305C12.1191 8.125 11.748 7.77344 11.2305 7.77344L4.44336 7.77344L4.44336 1.74805L11.9336 1.74805C12.4609 1.74805 12.832 1.38672 12.832 0.878906C12.832 0.371094 12.4609 0 11.9336 0L3.47656 0C2.88086 0 2.5 0.400391 2.5 1.00586L2.5 13.1836L0.634766 13.1836C0.253906 13.1836 0 13.457 0 13.8281C0 14.209 0.253906 14.4727 0.634766 14.4727L2.5 14.4727L2.5 16.7871C2.5 17.3438 2.88086 17.7734 3.47656 17.7734Z" fill="white" fill-opacity="0.85"/>
 </g>
</svg>
