<?xml version="1.0" encoding="UTF-8"?>
<!--Generator: Apple Native CoreSVG 326-->
<!DOCTYPE svg
PUBLIC "-//W3C//DTD SVG 1.1//EN"
       "http://www.w3.org/Graphics/SVG/1.1/DTD/svg11.dtd">
<svg version="1.1" xmlns="http://www.w3.org/2000/svg" xmlns:xlink="http://www.w3.org/1999/xlink" viewBox="0 0 22.168 20.8496">
 <g>
  <rect height="20.8496" opacity="0" width="22.168" x="0" y="0"/>
  <path d="M1.29883 18.5156L20.5078 18.5156L20.5078 17.8613C20.5078 17.4707 20.2832 17.2363 19.8828 17.2363L19.2578 17.2363L19.2578 6.69922L20.1172 6.69922C20.6543 6.69922 20.9668 6.30859 20.9668 5.9082C20.9668 5.61523 20.8008 5.36133 20.4395 5.15625L12.0996 0.341797C11.709 0.117188 11.2988 0 10.8984 0C10.498 0 10.0781 0.117188 9.70703 0.341797L1.36719 5.15625C0.996094 5.36133 0.839844 5.61523 0.839844 5.9082C0.839844 6.30859 1.15234 6.69922 1.68945 6.69922L2.54883 6.69922L2.54883 17.2363L1.93359 17.2363C1.5332 17.2363 1.29883 17.4707 1.29883 17.8613ZM4.02344 17.2363L4.02344 5.44922L10.5176 1.80664C10.6348 1.73828 10.7715 1.69922 10.8984 1.69922C11.0254 1.69922 11.1621 1.73828 11.2891 1.80664L17.7832 5.44922L17.7832 17.2363ZM0.78125 20.8398L21.0156 20.8398C21.4453 20.8398 21.8066 20.4785 21.8066 20.0488C21.8066 19.6191 21.4453 19.2676 21.0156 19.2676L0.78125 19.2676C0.351562 19.2676 0 19.6191 0 20.0488C0 20.4785 0.351562 20.8398 0.78125 20.8398Z" fill="white" fill-opacity="0.85"/>
  <path d="M9.24805 14.8242C9.58008 14.8242 9.82422 14.5898 9.82422 14.2383L9.82422 13.2031L11.9141 13.2031C12.0996 13.2031 12.2363 13.0762 12.2363 12.8809C12.2363 12.6953 12.0996 12.5586 11.9141 12.5586L9.82422 12.5586L9.82422 10.7715L13.0566 10.7715C13.3594 10.7715 13.5742 10.5664 13.5742 10.2734C13.5742 9.99023 13.3594 9.78516 13.0566 9.78516L9.82422 9.78516L9.82422 6.95312L13.3984 6.95312C13.7109 6.95312 13.9258 6.74805 13.9258 6.45508C13.9258 6.15234 13.7109 5.94727 13.3984 5.94727L9.24805 5.94727C8.88672 5.94727 8.66211 6.17188 8.66211 6.54297L8.66211 12.5586L7.72461 12.5586C7.5293 12.5586 7.39258 12.6953 7.39258 12.8809C7.39258 13.0762 7.5293 13.2031 7.72461 13.2031L8.66211 13.2031L8.66211 14.2383C8.66211 14.5898 8.89648 14.8242 9.24805 14.8242Z" fill="white" fill-opacity="0.85"/>
 </g>
</svg>
