<svg version="1.1" xmlns="http://www.w3.org/2000/svg" xmlns:xlink="http://www.w3.org/1999/xlink" viewBox="0 0 20.2832 19.9316">
 <g>
  <rect height="19.9316" opacity="0" width="20.2832" x="0" y="0"/>
  <path d="M19.9219 9.9707C19.9219 15.4688 15.459 19.9316 9.96094 19.9316C4.47266 19.9316 0 15.4688 0 9.9707C0 4.48242 4.47266 0.00976562 9.96094 0.00976562C15.459 0.00976562 19.9219 4.48242 19.9219 9.9707ZM9.43359 4.0918C9.15039 4.0918 8.93555 4.25781 8.87695 4.55078L8.57422 5.79102C8.35938 5.86914 8.13477 5.95703 7.94922 6.05469L6.85547 5.38086C6.61133 5.22461 6.35742 5.25391 6.14258 5.46875L5.41016 6.18164C5.18555 6.39648 5.19531 6.66992 5.3418 6.91406L6.00586 8.00781C5.9375 8.17383 5.83984 8.38867 5.76172 8.62305L4.52148 8.92578C4.22852 8.99414 4.07227 9.19922 4.07227 9.48242L4.07227 10.5078C4.07227 10.8008 4.22852 11.0156 4.52148 11.0742L5.77148 11.3672C5.83984 11.582 5.91797 11.7871 6.01562 11.9727L5.36133 13.0566C5.18555 13.3008 5.21484 13.5938 5.42969 13.7988L6.14258 14.5215C6.35742 14.7266 6.63086 14.7266 6.86523 14.5801L7.95898 13.916C8.13477 14.0039 8.35938 14.0918 8.57422 14.1699L8.87695 15.4102C8.93555 15.7031 9.15039 15.8789 9.43359 15.8789L10.4883 15.8789C10.7715 15.8789 10.9863 15.7031 11.0449 15.4102L11.3477 14.1699C11.5625 14.0918 11.7871 14.0039 11.9629 13.916L13.0566 14.5801C13.3008 14.7266 13.5742 14.7266 13.7793 14.5215L14.4922 13.7988C14.707 13.5938 14.7363 13.3008 14.5605 13.0566L13.9062 11.9727C14.0039 11.7871 14.082 11.582 14.1504 11.3672L15.4004 11.0742C15.6934 11.0156 15.8594 10.8008 15.8594 10.5078L15.8594 9.48242C15.8594 9.19922 15.6934 8.99414 15.4004 8.92578L14.1602 8.62305C14.082 8.38867 13.9844 8.17383 13.916 8.00781L14.5801 6.91406C14.7266 6.66992 14.7363 6.39648 14.5117 6.18164L13.7793 5.46875C13.5742 5.27344 13.3301 5.22461 13.0664 5.38086L11.9629 6.05469C11.7871 5.97656 11.5723 5.87891 11.3477 5.80078L11.0449 4.55078C10.9863 4.25781 10.7715 4.0918 10.4883 4.0918ZM11.9531 9.9707C11.9531 11.0645 11.0547 11.9531 9.96094 11.9531C8.86719 11.9531 7.96875 11.0645 7.96875 9.9707C7.96875 8.87695 8.86719 7.97852 9.96094 7.97852C11.0547 7.97852 11.9531 8.87695 11.9531 9.9707Z" fill="var(--color-primary)"/>
 </g>
</svg>
