<?xml version="1.0" encoding="UTF-8"?>
<!--Generator: Apple Native CoreSVG 326-->
<!DOCTYPE svg
PUBLIC "-//W3C//DTD SVG 1.1//EN"
       "http://www.w3.org/Graphics/SVG/1.1/DTD/svg11.dtd">
<svg version="1.1" xmlns="http://www.w3.org/2000/svg" xmlns:xlink="http://www.w3.org/1999/xlink" viewBox="0 0 23.3105 16.6895">
 <g>
  <rect height="16.6895" opacity="0" width="23.3105" x="0" y="0"/>
  <path d="M0 8.22266L7.29492 8.22266C5.98633 7.63672 5.07812 6.55273 5.07812 5.24414C5.07812 3.73047 6.20117 2.60742 7.69531 2.60742C9.00391 2.60742 10.166 3.41797 10.8398 4.74609L10.8398 0.00976562L12.1191 0.00976562L12.1191 4.74609C12.8027 3.41797 13.9648 2.60742 15.2637 2.60742C16.7676 2.60742 17.8809 3.73047 17.8809 5.24414C17.8809 6.55273 16.9824 7.63672 15.6641 8.22266L22.9492 8.22266L22.9492 9.38477L13.1348 9.38477C13.7305 10.625 15.7227 12.5 17.1582 12.6465C17.7051 12.6953 18.0078 13.0273 18.0078 13.5449C18.0078 14.0039 17.6367 14.4336 17.041 14.3555C15.4395 14.1211 12.8711 12.2363 12.1973 10.1074L12.1191 10.1074L12.1191 16.6895L10.8398 16.6895L10.8398 10.1074L10.7715 10.1074C10.0977 12.2363 7.5293 14.1211 5.92773 14.3555C5.33203 14.4336 4.96094 14.0039 4.96094 13.5449C4.96094 13.0273 5.26367 12.7051 5.80078 12.6465C7.24609 12.4805 9.22852 10.625 9.83398 9.38477L0 9.38477ZM10.3418 8.06641L10.6543 8.06641L10.6543 7.77344C10.6543 5.81055 9.31641 4.10156 7.77344 4.10156C7.03125 4.10156 6.55273 4.58008 6.55273 5.36133C6.55273 6.66992 8.30078 8.06641 10.3418 8.06641ZM12.6172 8.06641C14.668 8.06641 16.4062 6.66992 16.4062 5.36133C16.4062 4.58008 15.9375 4.10156 15.1855 4.10156C13.6426 4.10156 12.3047 5.81055 12.3047 7.77344L12.3047 8.06641ZM3.06641 16.6895L19.8828 16.6895C21.9336 16.6895 22.9492 15.6836 22.9492 13.6719L22.9492 3.03711C22.9492 1.02539 21.9336 0.00976562 19.8828 0.00976562L3.06641 0.00976562C1.02539 0.00976562 0 1.02539 0 3.03711L0 13.6719C0 15.6836 1.02539 16.6895 3.06641 16.6895Z" fill="white" fill-opacity="0.85"/>
 </g>
</svg>
