<?xml version="1.0" encoding="UTF-8"?>
<!--Generator: Apple Native CoreSVG 326-->
<!DOCTYPE svg
PUBLIC "-//W3C//DTD SVG 1.1//EN"
       "http://www.w3.org/Graphics/SVG/1.1/DTD/svg11.dtd">
<svg version="1.1" xmlns="http://www.w3.org/2000/svg" xmlns:xlink="http://www.w3.org/1999/xlink" viewBox="0 0 20.2832 19.9316">
 <g>
  <rect height="19.9316" opacity="0" width="20.2832" x="0" y="0"/>
  <path d="M10.8496 16.0156C11.6992 16.0156 12.2168 15.2344 12.2168 13.3984C12.2168 11.8652 13.9062 10.5176 14.541 10.5176C15.4199 10.5176 15.6152 13.3398 18.4863 13.457C18.8672 12.3145 19.1406 11.1328 19.1211 9.96094C19.0332 4.48242 14.4629 0.634766 9.94141 0.693359C8.16406 0.712891 6.44531 1.28906 4.90234 2.42188C5.44922 3.20312 5.55664 3.27148 5.55664 3.56445C5.55664 3.92578 4.85352 4.04297 4.73633 4.67773C4.6582 5.06836 4.38477 5.35156 4.05273 5.35156C3.68164 5.35156 3.17383 4.9707 3.05664 4.00391C1.5332 5.47852 0.78125 7.58789 0.78125 9.94141C0.78125 11.582 1.21094 13.2129 2.23633 14.7949C3.82812 14.5215 4.3457 13.8965 4.3457 12.6758C4.3457 11.4746 5.29297 11.4355 5.29297 10.4492C5.29297 10.0293 4.87305 9.7168 4.0625 9.0332L3.41797 8.49609C3.30078 8.39844 3.25195 8.27148 3.25195 8.13477C3.25195 7.88086 3.4375 7.63672 3.7207 7.63672C3.90625 7.63672 4.02344 7.75391 4.51172 8.17383C5.20508 8.75977 5.52734 9.04297 5.91797 9.04297C6.32812 9.04297 6.50391 8.76953 6.77734 8.76953C7.00195 8.76953 7.13867 8.90625 7.23633 9.16992L7.56836 10.0684C7.94922 11.1719 8.83789 11.0254 9.04297 12.207C9.52148 15.0977 9.95117 16.0156 10.8496 16.0156ZM9.96094 19.9219C15.459 19.9219 19.9219 15.459 19.9219 9.96094C19.9219 4.46289 15.459 0 9.96094 0C4.46289 0 0 4.46289 0 9.96094C0 15.459 4.46289 19.9219 9.96094 19.9219ZM9.96094 18.5938C5.19531 18.5938 1.32812 14.7266 1.32812 9.96094C1.32812 5.19531 5.19531 1.32812 9.96094 1.32812C14.7266 1.32812 18.5938 5.19531 18.5938 9.96094C18.5938 14.7266 14.7266 18.5938 9.96094 18.5938Z" fill="white" fill-opacity="0.85"/>
 </g>
</svg>
