<svg version="1.1" xmlns="http://www.w3.org/2000/svg" xmlns:xlink="http://www.w3.org/1999/xlink" viewBox="0 0 28.9008 17.8418">
 <g>
  <rect height="17.8418" opacity="0" width="28.9008" x="0" y="0"/>
  <path d="M25.6809 1.57227C26.2961 1.57227 26.9016 1.65039 27.4875 1.79688C28.5715 2.07031 29.0207 0.576172 27.8391 0.253906C27.2824 0.107422 26.4817 0 25.6809 0C20.1828 0 15.6516 5.01953 15.6516 11.0645C15.6516 15.0977 17.3606 17.832 19.968 17.832C22.5852 17.832 24.2942 15.0977 24.2942 11.0645C24.2942 5.01953 19.7727 0 14.2649 0C8.75705 0 4.24533 5.01953 4.24533 11.0645C4.24533 15.0977 5.95432 17.832 8.57151 17.832C11.1692 17.832 12.8781 15.0977 12.8781 11.0645C12.8781 5.01953 8.35666 0 2.85861 0C2.05783 0 1.25705 0.107422 0.700411 0.253906C-0.481229 0.576172-0.0320104 2.07031 1.04221 1.79688C1.63791 1.65039 2.24338 1.57227 2.85861 1.57227C7.46799 1.57227 11.3059 5.87891 11.3059 11.0645C11.3059 14.1992 10.1828 16.2598 8.57151 16.2598C6.95041 16.2598 5.8176 14.1895 5.8176 11.0645C5.8176 5.87891 9.65549 1.57227 14.2649 1.57227C18.884 1.57227 22.7219 5.87891 22.7219 11.0645C22.7219 14.1895 21.5793 16.2598 19.968 16.2598C18.3567 16.2598 17.2238 14.1992 17.2238 11.0645C17.2238 5.87891 21.0617 1.57227 25.6809 1.57227Z" fill="var(--color-primary)"/>
 </g>
</svg>
