<?xml version="1.0" encoding="UTF-8"?>
<!--Generator: Apple Native CoreSVG 326-->
<!DOCTYPE svg
PUBLIC "-//W3C//DTD SVG 1.1//EN"
       "http://www.w3.org/Graphics/SVG/1.1/DTD/svg11.dtd">
<svg version="1.1" xmlns="http://www.w3.org/2000/svg" xmlns:xlink="http://www.w3.org/1999/xlink" viewBox="0 0 18.3398 17.9785">
 <g>
  <rect height="17.9785" opacity="0" width="18.3398" x="0" y="0"/>
  <path d="M17.9785 3.02734L17.9785 14.9609C17.9785 16.9727 16.9629 17.9785 14.9121 17.9785L3.06641 17.9785C1.02539 17.9785 0 16.9727 0 14.9609L0 3.02734C0 1.01562 1.02539 0 3.06641 0L14.9121 0C16.9629 0 17.9785 1.01562 17.9785 3.02734ZM5.54688 5.53711C5.54688 5.91797 5.73242 6.16211 6.14258 6.35742L11.25 8.92578L11.25 8.98438L6.14258 11.4941C5.72266 11.6895 5.54688 11.9141 5.54688 12.3047C5.54688 12.7637 5.9082 13.1152 6.38672 13.1152C6.5918 13.1152 6.72852 13.0664 6.88477 12.998L12.8906 9.87305C13.3008 9.6582 13.4863 9.4043 13.4863 8.98438C13.4863 8.60352 13.2812 8.32031 12.8906 8.0957L6.88477 4.86328C6.71875 4.78516 6.5918 4.73633 6.36719 4.73633C5.89844 4.73633 5.54688 5.08789 5.54688 5.53711Z" fill="white" fill-opacity="0.85"/>
 </g>
</svg>
