<?xml version="1.0" encoding="UTF-8"?>
<!--Generator: Apple Native CoreSVG 326-->
<!DOCTYPE svg
PUBLIC "-//W3C//DTD SVG 1.1//EN"
       "http://www.w3.org/Graphics/SVG/1.1/DTD/svg11.dtd">
<svg version="1.1" xmlns="http://www.w3.org/2000/svg" xmlns:xlink="http://www.w3.org/1999/xlink" viewBox="0 0 22.168 20.8496">
 <g>
  <rect height="20.8496" opacity="0" width="22.168" x="0" y="0"/>
  <path d="M12.0996 0.341797L20.4395 5.15625C20.8008 5.36133 20.9668 5.61523 20.9668 5.9082C20.9668 6.30859 20.6543 6.69922 20.1172 6.69922L19.2578 6.69922L19.2578 17.9297L19.8828 17.9297C20.2832 17.9297 20.5078 18.1641 20.5078 18.5547L20.5078 19.2676L21.0156 19.2676C21.4453 19.2676 21.8066 19.6191 21.8066 20.0488C21.8066 20.4785 21.4453 20.8398 21.0156 20.8398L0.78125 20.8398C0.351562 20.8398 0 20.4785 0 20.0488C0 19.6191 0.351562 19.2676 0.78125 19.2676L1.29883 19.2676L1.29883 18.5547C1.29883 18.1641 1.5332 17.9297 1.93359 17.9297L2.54883 17.9297L2.54883 6.69922L1.68945 6.69922C1.15234 6.69922 0.839844 6.30859 0.839844 5.9082C0.839844 5.61523 0.996094 5.36133 1.36719 5.15625L9.70703 0.341797C10.0781 0.117188 10.498 0 10.8984 0C11.2988 0 11.709 0.117188 12.0996 0.341797ZM10.5762 5.79102L10.5762 6.62109C8.26172 6.79688 7.02148 8.70117 7.02148 11.0938C7.02148 13.584 8.32031 15.4102 10.5762 15.5957L10.5762 16.4355C10.5762 16.6211 10.7227 16.7676 10.9277 16.7676C11.123 16.7676 11.2695 16.6211 11.2695 16.4355L11.2695 15.6055C13.3203 15.4785 14.5117 14.1602 14.5117 11.9727L14.5117 11.5234C14.5117 11.1523 14.2773 10.9082 13.9258 10.9082L11.2695 10.9082L11.2695 7.65625C12.1777 7.76367 12.9785 8.32031 13.2324 9.16016C13.3496 9.46289 13.4863 9.58984 13.8184 9.58984C14.1309 9.58984 14.3359 9.39453 14.3359 9.08203C14.3359 8.95508 14.3164 8.78906 14.248 8.61328C13.7891 7.39258 12.5293 6.71875 11.2695 6.62109L11.2695 5.79102C11.2695 5.5957 11.123 5.44922 10.9277 5.44922C10.7227 5.44922 10.5762 5.5957 10.5762 5.79102ZM13.3594 12.2266C13.3594 13.5254 12.5977 14.4531 11.2695 14.5508L11.2695 11.875L13.3594 11.875ZM10.5762 14.541C9.0332 14.3164 8.26172 12.832 8.26172 11.084C8.26172 9.44336 8.96484 7.88086 10.5762 7.66602Z" fill="white" fill-opacity="0.85"/>
 </g>
</svg>
