<svg version="1.1" xmlns="http://www.w3.org/2000/svg" xmlns:xlink="http://www.w3.org/1999/xlink" width="16.7811" height="18.2084" viewBox="0 0 16.7811 18.2084">
 <g>
  <rect height="18.2084" opacity="0" width="16.7811" x="0" y="0"/>
  <path d="M12.0234 17.7321C16.0078 16.2868 17.3359 12.9763 15.7831 8.70867L15.1484 6.95086C14.5624 5.33953 13.4296 4.63641 12.5507 4.94891C12.3554 5.02703 12.2871 5.17352 12.3554 5.35906L12.6386 6.14031C12.7753 6.51141 12.6484 6.75555 12.4238 6.84344C12.1894 6.92156 11.9355 6.81414 11.7988 6.44305L11.6132 5.93523C11.2714 4.9782 10.4316 4.57781 9.61127 4.88055C9.24018 5.01727 9.13276 5.23211 9.24994 5.54461L9.6308 6.60906C9.76752 6.98016 9.64057 7.2243 9.42573 7.31219C9.18158 7.40008 8.92768 7.28289 8.80073 6.9118L8.4394 5.93523C8.04877 4.86102 7.24799 4.58758 6.44721 4.88055C6.09565 5.0075 5.96869 5.24188 6.08588 5.54461L6.83783 7.62469C6.97455 7.99578 6.85737 8.23992 6.63276 8.32781C6.39838 8.4157 6.14448 8.29852 6.00776 7.92742L3.46869 0.964531C3.22455 0.280938 2.61908 0.00750004 2.04291 0.212578C1.42768 0.437188 1.16401 1.03289 1.40815 1.71648L5.11908 11.9118C5.21674 12.1657 5.09955 12.3513 4.9433 12.4098C4.78705 12.4684 4.6308 12.4196 4.42573 12.2048L1.91596 9.50945C1.54487 9.11883 1.16401 9.02117 0.75385 9.17742C0.119085 9.40203-0.125056 9.9782 0.060491 10.5055C0.138616 10.7106 0.246038 10.8669 0.35346 10.9938L3.44916 14.8903C6.06635 18.1716 9.09369 18.7966 12.0234 17.7321Z" fill="var(--color-primary)"/>
 </g>
</svg>
