<?xml version="1.0" encoding="UTF-8"?>
<!--Generator: Apple Native CoreSVG 326-->
<!DOCTYPE svg
PUBLIC "-//W3C//DTD SVG 1.1//EN"
       "http://www.w3.org/Graphics/SVG/1.1/DTD/svg11.dtd">
<svg version="1.1" xmlns="http://www.w3.org/2000/svg" xmlns:xlink="http://www.w3.org/1999/xlink" viewBox="0 0 24.0859 21.7392">
 <g>
  <rect height="21.7392" opacity="0" width="24.0859" x="0" y="0"/>
  <path d="M6.05662 4.65376L6.18417 5.00251C3.28933 7.06453 2.26065 9.83404 2.18943 12.7983C2.17967 13.1499 1.93553 13.4135 1.59373 13.4233C1.2617 13.4331 0.968732 13.1303 0.968732 12.7788C0.968732 9.24685 2.4131 5.90752 5.84382 3.71579C5.8696 4.02263 5.94061 4.33721 6.05662 4.65376Z" fill="white" fill-opacity="0.85"/>
  <path d="M18.2148 19.9077C22.0918 18.5014 23.7422 14.9467 22.1797 10.6499L21.4472 8.6479C20.6855 6.52876 19.2305 5.65962 17.5215 6.25532C17.0625 5.65962 16.3594 5.45454 15.5976 5.72798C15.3144 5.8354 15.0605 5.98189 14.8359 6.15767C14.3379 5.51314 13.5664 5.269 12.7656 5.56196C12.5508 5.64009 12.3457 5.75728 12.1504 5.894L11.0371 2.84712C10.6172 1.68501 9.56248 1.19673 8.4785 1.58736C7.38475 1.98775 6.89647 3.03267 7.31639 4.19478L10.0996 11.851C10.1191 11.8999 10.1094 11.9389 10.0605 11.9584C10.0215 11.9682 9.99217 11.9584 9.96287 11.9194L8.81053 10.6792C8.24412 10.0737 7.57029 9.88814 6.916 10.1225C6.02733 10.4545 5.45115 11.3042 5.81248 12.31C5.91014 12.5932 6.10545 12.935 6.33006 13.2182L9.60154 17.1635C12.0722 20.1616 14.9726 21.0893 18.2148 19.9077ZM17.7949 18.6284C15.2363 19.5659 12.834 19.0874 10.5781 16.3627L7.30662 12.4272C7.20897 12.31 7.14061 12.2026 7.08201 12.0366C6.96483 11.7241 7.10154 11.3627 7.47264 11.226C7.78514 11.1186 8.02928 11.2358 8.28318 11.4995L10.539 13.8334C10.9199 14.2241 11.2519 14.2631 11.5742 14.1459C11.9648 14.0092 12.1211 13.5991 11.9648 13.1792L8.50779 3.66743C8.36131 3.27681 8.53709 2.90571 8.90818 2.769C9.28904 2.63228 9.64061 2.81782 9.78709 3.20845L12.2578 9.99556C12.375 10.3178 12.7363 10.4643 13.0586 10.3471C13.3711 10.2299 13.5371 9.88814 13.4199 9.57564L12.5312 7.12446C12.668 6.99751 12.8535 6.87056 13.039 6.8022C13.498 6.63618 13.8789 6.84126 14.0547 7.31978L14.8359 9.44868C14.9531 9.79048 15.3144 9.91743 15.6269 9.80025C15.9297 9.69282 16.125 9.37056 15.998 9.02876L15.3633 7.29048C15.5 7.16353 15.6855 7.03657 15.8711 6.96821C16.3301 6.8022 16.7109 7.00728 16.8867 7.48579L17.4043 8.91157C17.5312 9.25337 17.8926 9.38032 18.2051 9.26314C18.5078 9.15571 18.6933 8.82368 18.5762 8.49165L18.1855 7.43696C19.0058 7.144 19.7773 7.80806 20.3047 9.2729L20.9199 10.9428C22.2578 14.6342 21.0371 17.4467 17.7949 18.6284Z" fill="white" fill-opacity="0.85"/>
 </g>
</svg>
