<?xml version="1.0" encoding="UTF-8"?>
<!--Generator: Apple Native CoreSVG 326-->
<!DOCTYPE svg
PUBLIC "-//W3C//DTD SVG 1.1//EN"
       "http://www.w3.org/Graphics/SVG/1.1/DTD/svg11.dtd">
<svg version="1.1" xmlns="http://www.w3.org/2000/svg" xmlns:xlink="http://www.w3.org/1999/xlink" viewBox="0 0 28.5059 19.7363">
 <g>
  <rect height="19.7363" opacity="0" width="28.5059" x="0" y="0"/>
  <path d="M9.43705 14.5189C9.51802 14.932 9.61826 15.3465 9.73633 15.7617C9.76738 15.8691 9.79994 15.974 9.83689 16.072L2.16797 16.0645C1.74805 16.0645 1.38672 15.7227 1.38672 15.3027C1.38672 14.873 1.74805 14.5117 2.16797 14.5117ZM9.1296 12.4414L2.16797 12.4414C1.74805 12.4414 1.38672 12.0996 1.38672 11.6797C1.38672 11.25 1.74805 10.8887 2.16797 10.8887L9.03189 10.8887C9.04624 11.4035 9.07696 11.9212 9.1296 12.4414ZM9.03233 8.82513L2.16797 8.81836C1.75781 8.81836 1.38672 8.4668 1.38672 8.03711C1.38672 7.61719 1.74805 7.25586 2.16797 7.25586L9.13219 7.25586C9.07846 7.78219 9.04704 8.30528 9.03233 8.82513ZM9.73633 3.94531C9.6185 4.36381 9.51842 4.78061 9.43758 5.19531L2.16797 5.19531C1.74805 5.19531 1.38672 4.85352 1.38672 4.41406C1.38672 3.99414 1.74805 3.63281 2.16797 3.63281L9.83932 3.63281Z" fill="white" fill-opacity="0.85"/>
  <path d="M10.7617 9.86328C10.7617 11.6992 10.9082 13.4766 11.416 15.2832C11.9922 17.2559 13.1055 17.959 15.4395 17.959L15.9863 17.959C21.6895 17.959 26.7578 14.2383 26.7578 9.86328C26.7578 5.48828 21.6895 1.74805 15.9863 1.74805L15.4395 1.74805C13.1152 1.74805 12.002 2.46094 11.416 4.43359C10.9082 6.25 10.7617 8.02734 10.7617 9.86328Z" fill="white" fill-opacity="0.85"/>
 </g>
</svg>
