<svg version="1.1" xmlns="http://www.w3.org/2000/svg" xmlns:xlink="http://www.w3.org/1999/xlink" viewBox="0 0 26.084 17.4029">
 <g>
  <rect height="17.4029" opacity="0" width="26.084" x="0" y="0"/>
  <path d="M0.78125 4.19461C0.361328 4.19461 0 4.55594 0 4.98563C0 5.41532 0.371094 5.76688 0.78125 5.76688L8.21289 5.77664C8.28125 5.25907 8.34961 4.72196 8.45703 4.19461ZM0.78125 7.90555C0.361328 7.90555 0 8.28641 0 8.70633C0 9.13602 0.361328 9.47782 0.78125 9.47782L8.08594 9.47782C8.07617 9.19461 8.07617 8.19852 8.08594 7.90555ZM0.78125 11.6263C0.361328 11.6263 0 11.9973 0 12.4173C0 12.847 0.361328 13.1985 0.78125 13.1985L8.45703 13.2083C8.34961 12.6712 8.28125 12.1438 8.21289 11.636ZM3.37891 16.0208C2.55859 16.8118 3.62305 17.8958 4.46289 17.1341C6.38672 15.3274 6.77734 11.968 5.49805 8.74539L5.3125 8.27664C4.23828 5.55203 4.42383 2.79813 5.83008 1.37235C6.65039 0.581331 5.5957-0.502653 4.73633 0.259066C2.8125 2.07547 2.43164 5.41532 3.71094 8.63797L3.90625 9.10672C4.99023 11.8509 4.79492 14.5852 3.37891 16.0208Z" fill="var(--color-primary)"/>
  <path d="M9.4043 8.69657C9.38477 10.5813 9.54102 12.388 10.0586 14.2337C10.6543 16.2454 11.7871 16.9583 14.1699 16.9583L14.7168 16.9583C20.5371 16.9583 25.7227 13.1595 25.7227 8.69657C25.7227 4.23367 20.5371 0.415316 14.7168 0.415316L14.1699 0.415316C11.7969 0.415316 10.6641 1.13797 10.0586 3.14969C9.54102 5.00516 9.38477 6.8118 9.4043 8.69657ZM10.9766 8.69657C10.9668 6.59696 11.1426 5.08328 11.5723 3.58914C11.9238 2.41727 12.6367 1.97782 14.1699 1.97782L14.7168 1.97782C19.6289 1.97782 24.1504 5.13211 24.1504 8.69657C24.1504 12.261 19.6289 15.3958 14.7168 15.3958L14.1699 15.3958C12.6172 15.3958 11.9141 14.9563 11.5723 13.804C11.1426 12.3098 10.9668 10.7962 10.9766 8.69657Z" fill="var(--color-primary)"/>
 </g>
</svg>
