<?xml version="1.0" encoding="UTF-8"?>
<!--Generator: Apple Native CoreSVG 326-->
<!DOCTYPE svg
PUBLIC "-//W3C//DTD SVG 1.1//EN"
       "http://www.w3.org/Graphics/SVG/1.1/DTD/svg11.dtd">
<svg version="1.1" xmlns="http://www.w3.org/2000/svg" xmlns:xlink="http://www.w3.org/1999/xlink" viewBox="0 0 29.4922 13.0176">
 <g>
  <rect height="13.0176" opacity="0" width="29.4922" x="0" y="0"/>
  <path d="M3.01758 11.377L26.1035 11.377C28.1055 11.377 29.1309 10.3613 29.1309 8.39844L29.1309 2.97852C29.1309 1.01562 28.1055 0 26.1035 0L3.01758 0C1.03516 0 0 1.01562 0 2.97852L0 8.39844C0 10.3613 1.03516 11.377 3.01758 11.377ZM3.01758 9.80469C2.12891 9.80469 1.57227 9.25781 1.57227 8.39844L1.57227 2.97852C1.57227 2.11914 2.12891 1.57227 3.01758 1.57227L26.1035 1.57227C26.9922 1.57227 27.5586 2.11914 27.5586 2.97852L27.5586 8.39844C27.5586 9.25781 26.9922 9.80469 26.1035 9.80469ZM5.81055 7.79297C6.98242 7.79297 7.92969 6.8457 7.92969 5.67383C7.92969 4.49219 6.98242 3.54492 5.81055 3.54492C4.62891 3.54492 3.68164 4.49219 3.68164 5.67383C3.68164 6.8457 4.62891 7.79297 5.81055 7.79297ZM10.6445 7.80273L18.4766 7.80273C18.9648 7.80273 19.2773 7.49023 19.2773 7.01172L19.2773 4.375C19.2773 3.89648 18.9648 3.57422 18.4766 3.57422L10.6445 3.57422C10.166 3.57422 9.84375 3.89648 9.84375 4.375L9.84375 7.01172C9.84375 7.49023 10.166 7.80273 10.6445 7.80273ZM23.3203 7.79297C24.4922 7.79297 25.4395 6.8457 25.4395 5.67383C25.4395 4.49219 24.4922 3.54492 23.3203 3.54492C22.1484 3.54492 21.2012 4.49219 21.2012 5.67383C21.2012 6.8457 22.1484 7.79297 23.3203 7.79297ZM7.23633 10.7715L2.16797 10.7715L2.16797 12.207C2.16797 12.6855 2.49023 13.0078 2.96875 13.0078L6.43555 13.0078C6.92383 13.0078 7.23633 12.6855 7.23633 12.207ZM21.8945 10.7715L21.8945 12.207C21.8945 12.6855 22.207 13.0078 22.6953 13.0078L26.1523 13.0078C26.6406 13.0078 26.9629 12.6855 26.9629 12.207L26.9629 10.7715Z" fill="white" fill-opacity="0.85"/>
 </g>
</svg>
