<svg version="1.1" xmlns="http://www.w3.org/2000/svg" xmlns:xlink="http://www.w3.org/1999/xlink" viewBox="0 0 20.8887 20.2246">
 <g>
  <rect height="20.2246" opacity="0" width="20.8887" x="0" y="0"/>
  <path d="M2.77344 2.77344L2.77344 17.4414C2.77344 19.2871 3.69141 20.2148 5.51758 20.2148L15.0098 20.2148C16.8359 20.2148 17.7539 19.2871 17.7539 17.4414L17.7539 2.77344C17.7539 0.927734 16.8359 0 15.0098 0L5.51758 0C3.69141 0 2.77344 0.927734 2.77344 2.77344ZM10.2637 7.39258C8.99414 7.39258 7.97852 6.37695 7.97852 5.10742C7.97852 3.82812 9.00391 2.82227 10.2637 2.83203C11.5332 2.8418 12.5391 3.83789 12.5488 5.10742C12.5684 6.37695 11.5234 7.39258 10.2637 7.39258ZM10.2637 6.26953C10.9082 6.26953 11.4258 5.74219 11.4258 5.10742C11.4258 4.46289 10.8984 3.94531 10.2637 3.94531C9.60938 3.94531 9.10156 4.43359 9.10156 5.10742C9.10156 5.74219 9.61914 6.26953 10.2637 6.26953ZM0.761719 13.8672C0.351562 13.8672 0 13.5059 0 13.0859C0 12.666 0.351562 12.3145 0.761719 12.3145L9.23828 12.3145L10.5664 12.373L10 11.8359L8.67188 10.6152C8.51562 10.4785 8.4375 10.2734 8.4375 10.0879C8.4375 9.67773 8.73047 9.375 9.12109 9.375C9.33594 9.375 9.49219 9.45312 9.63867 9.59961L12.4512 12.5195C12.6367 12.7148 12.7051 12.8906 12.7051 13.0859C12.7051 13.2812 12.6367 13.457 12.4512 13.6523L9.63867 16.5625C9.49219 16.7188 9.33594 16.7969 9.12109 16.7969C8.73047 16.7969 8.4375 16.4941 8.4375 16.084C8.4375 15.8984 8.51562 15.6934 8.67188 15.5566L10 14.3359L10.5664 13.7988L9.23828 13.8574Z" fill="var(--color-primary)"/>
 </g>
</svg>
