<?xml version="1.0" encoding="UTF-8"?>
<!--Generator: Apple Native CoreSVG 326-->
<!DOCTYPE svg
PUBLIC "-//W3C//DTD SVG 1.1//EN"
       "http://www.w3.org/Graphics/SVG/1.1/DTD/svg11.dtd">
<svg version="1.1" xmlns="http://www.w3.org/2000/svg" xmlns:xlink="http://www.w3.org/1999/xlink" viewBox="0 0 24.2676 18.2324">
 <g>
  <rect height="18.2324" opacity="0" width="24.2676" x="0" y="0"/>
  <path d="M0.78125 12.2266L9.44336 12.2266C10.5371 12.2266 11.7578 12.4024 12.998 12.7637C15.5762 13.5059 18.0078 15.0488 20.3418 17.4414C21.7285 18.9356 23.9062 18.1738 23.9062 16.1133L23.9062 2.10938C23.9062 0.0488375 21.7285-0.712881 20.3418 0.781259C16.9141 4.33595 12.9297 5.9961 9.44336 5.9961L0.78125 5.9961L0.78125 7.56837L9.44336 7.56837C13.3301 7.56837 17.7051 5.75196 21.416 1.92384C21.9336 1.39649 22.334 1.50392 22.334 2.10938L22.334 16.1133C22.334 16.7188 21.9336 16.8164 21.416 16.2891C17.7051 12.4707 13.3301 10.6543 9.44336 10.6543L0.78125 10.6543ZM0.78125 13.3789C1.2207 13.3789 1.57227 13.0176 1.57227 12.5879L1.57227 5.61524C1.57227 5.18556 1.2207 4.83399 0.78125 4.83399C0.351562 4.83399 0 5.18556 0 5.61524L0 12.5879C0 13.0176 0.351562 13.3789 0.78125 13.3789ZM2.72461 13.75C2.72461 15.332 4.02344 16.6211 5.60547 16.6211L11.1426 16.6211C12.7246 16.6211 14.0234 15.332 14.0234 13.75C14.0234 12.168 12.7246 10.8691 11.1426 10.8691L5.60547 10.8691C4.02344 10.8691 2.72461 12.168 2.72461 13.75ZM4.29688 13.75C4.29688 13.0371 4.89258 12.4414 5.60547 12.4414L11.1426 12.4414C11.8555 12.4414 12.4512 13.0371 12.4512 13.75C12.4512 14.4629 11.8555 15.0391 11.1426 15.0391L5.60547 15.0391C4.89258 15.0391 4.29688 14.4629 4.29688 13.75Z" fill="white" fill-opacity="0.85"/>
 </g>
</svg>
