<?xml version="1.0" encoding="UTF-8"?>
<!--Generator: Apple Native CoreSVG 326-->
<!DOCTYPE svg
PUBLIC "-//W3C//DTD SVG 1.1//EN"
       "http://www.w3.org/Graphics/SVG/1.1/DTD/svg11.dtd">
<svg version="1.1" xmlns="http://www.w3.org/2000/svg" xmlns:xlink="http://www.w3.org/1999/xlink" viewBox="0 0 20.2832 19.9316">
 <g>
  <rect height="19.9316" opacity="0" width="20.2832" x="0" y="0"/>
  <path d="M9.96094 19.9219C15.459 19.9219 19.9219 15.459 19.9219 9.96094C19.9219 4.46289 15.459 0 9.96094 0C4.46289 0 0 4.46289 0 9.96094C0 15.459 4.46289 19.9219 9.96094 19.9219ZM9.96094 18.2617C5.37109 18.2617 1.66016 14.5508 1.66016 9.96094C1.66016 5.37109 5.37109 1.66016 9.96094 1.66016C14.5508 1.66016 18.2617 5.37109 18.2617 9.96094C18.2617 14.5508 14.5508 18.2617 9.96094 18.2617Z" fill="white" fill-opacity="0.85"/>
  <path d="M5.41992 13.7598C5.41992 14.4629 5.84961 14.8828 6.58203 14.8828L13.3398 14.8828C14.0723 14.8828 14.4922 14.4629 14.4922 13.7598L14.4922 9.6875L10.2637 6.13281C10.0684 5.9668 9.84375 5.97656 9.64844 6.13281L5.41992 9.67773ZM11.2891 13.9062L8.63281 13.9062L8.63281 10.7617C8.63281 10.5371 8.78906 10.3711 9.0332 10.3711L10.8887 10.3711C11.1426 10.3711 11.2891 10.5371 11.2891 10.7617ZM3.78906 9.16016C3.78906 9.38477 3.96484 9.60938 4.25781 9.60938C4.41406 9.60938 4.53125 9.52148 4.63867 9.42383L9.72656 5.16602C9.89258 5.01953 10.0391 5.03906 10.1953 5.16602L15.2734 9.42383C15.4004 9.52148 15.5078 9.60938 15.6543 9.60938C15.9082 9.60938 16.123 9.43359 16.123 9.17969C16.123 9.01367 16.0742 8.90625 15.957 8.79883L10.6641 4.35547C10.2344 3.99414 9.6875 3.99414 9.26758 4.35547L3.95508 8.79883C3.84766 8.90625 3.78906 9.0332 3.78906 9.16016ZM13.2031 6.83594L14.4922 7.92969L14.4922 5.54688C14.4922 5.33203 14.3555 5.17578 14.1309 5.17578L13.5742 5.17578C13.3594 5.17578 13.2031 5.33203 13.2031 5.54688Z" fill="white" fill-opacity="0.85"/>
 </g>
</svg>
