<?xml version="1.0" encoding="UTF-8"?>
<!--Generator: Apple Native CoreSVG 326-->
<!DOCTYPE svg
PUBLIC "-//W3C//DTD SVG 1.1//EN"
       "http://www.w3.org/Graphics/SVG/1.1/DTD/svg11.dtd">
<svg version="1.1" xmlns="http://www.w3.org/2000/svg" xmlns:xlink="http://www.w3.org/1999/xlink" viewBox="0 0 18.3203 19.0137">
 <g>
  <rect height="19.0137" opacity="0" width="18.3203" x="0" y="0"/>
  <path d="M3.32031 4.58008L14.6289 4.58008C13.916 3.48633 13.1055 2.36328 12.2656 1.23047C11.6406 0.410156 11.2695 0 10.2148 0L7.74414 0C6.68945 0 6.31836 0.410156 5.69336 1.23047C4.84375 2.36328 4.04297 3.48633 3.32031 4.58008ZM8.98438 10.0195C10.1562 10.0195 11.123 10.7617 11.4648 11.8262L17.9199 11.8262C17.6953 10.1855 16.8652 8.26172 15.6641 6.21094L2.28516 6.21094C1.09375 8.26172 0.263672 10.1855 0.0292969 11.8262L6.49414 11.8262C6.83594 10.7617 7.8125 10.0195 8.98438 10.0195ZM8.98438 13.8086C9.64844 13.8086 10.1562 13.3008 10.1562 12.627C10.1562 11.9727 9.64844 11.4453 8.98438 11.4453C8.32031 11.4453 7.80273 11.9727 7.80273 12.627C7.80273 13.3008 8.32031 13.8086 8.98438 13.8086ZM6.61133 18.9941L11.3379 18.9941C15.459 18.9941 17.6855 16.9531 17.959 13.457L11.4648 13.457C11.1328 14.4922 10.166 15.2344 8.98438 15.2344C7.8125 15.2344 6.82617 14.4922 6.49414 13.457L0 13.457C0.263672 16.9531 2.49023 18.9941 6.61133 18.9941Z" fill="white" fill-opacity="0.85"/>
 </g>
</svg>
