<?xml version="1.0" encoding="UTF-8"?>
<!--Generator: Apple Native CoreSVG 326-->
<!DOCTYPE svg
PUBLIC "-//W3C//DTD SVG 1.1//EN"
       "http://www.w3.org/Graphics/SVG/1.1/DTD/svg11.dtd">
<svg version="1.1" xmlns="http://www.w3.org/2000/svg" xmlns:xlink="http://www.w3.org/1999/xlink" viewBox="0 0 22.168 20.8496">
 <g>
  <rect height="20.8496" opacity="0" width="22.168" x="0" y="0"/>
  <path d="M12.0996 0.341797L20.4395 5.15625C20.8008 5.36133 20.9668 5.61523 20.9668 5.9082C20.9668 6.30859 20.6543 6.69922 20.1172 6.69922L19.2578 6.69922L19.2578 17.9297L19.8828 17.9297C20.2832 17.9297 20.5078 18.1641 20.5078 18.5547L20.5078 19.2676L21.0156 19.2676C21.4453 19.2676 21.8066 19.6191 21.8066 20.0488C21.8066 20.4785 21.4453 20.8398 21.0156 20.8398L0.78125 20.8398C0.351562 20.8398 0 20.4785 0 20.0488C0 19.6191 0.351562 19.2676 0.78125 19.2676L1.29883 19.2676L1.29883 18.5547C1.29883 18.1641 1.5332 17.9297 1.93359 17.9297L2.54883 17.9297L2.54883 6.69922L1.68945 6.69922C1.15234 6.69922 0.839844 6.30859 0.839844 5.9082C0.839844 5.61523 0.996094 5.36133 1.36719 5.15625L9.70703 0.341797C10.0781 0.117188 10.498 0 10.8984 0C11.2988 0 11.709 0.117188 12.0996 0.341797ZM8.06641 6.60156C7.80273 6.60156 7.65625 6.77734 7.65625 7.05078L7.65625 7.11914C7.65625 7.40234 7.80273 7.57812 8.06641 7.57812L9.70703 7.57812C10.7031 7.57812 11.5039 7.97852 11.6504 8.96484L8.00781 8.96484C7.82227 8.96484 7.66602 9.11133 7.66602 9.30664C7.66602 9.49219 7.82227 9.63867 8.00781 9.63867L11.6504 9.63867C11.5137 10.6543 10.7324 11.0156 9.70703 11.0156L8.30078 11.0156C7.91992 11.0156 7.68555 11.2598 7.68555 11.5918L7.68555 11.6211C7.68555 11.9141 7.80273 12.0801 8.03711 12.2852L11.4844 15.5176C11.6504 15.6738 11.7871 15.8008 12.0508 15.8008C12.3438 15.8008 12.5684 15.5566 12.5684 15.2832C12.5684 15.0879 12.4707 14.9512 12.3242 14.8145L9.32617 12.0117L9.84375 12.0117C11.4355 12.0117 12.6465 11.1816 12.8613 9.63867L13.6426 9.63867C13.8379 9.63867 13.9844 9.49219 13.9844 9.30664C13.9844 9.11133 13.8379 8.96484 13.6426 8.96484L12.8809 8.96484C12.8223 8.31055 12.5488 7.69531 12.0312 7.27539L13.6426 7.27539C13.8379 7.27539 13.9844 7.11914 13.9844 6.94336C13.9844 6.73828 13.8379 6.60156 13.6426 6.60156Z" fill="white" fill-opacity="0.85"/>
 </g>
</svg>
