<?xml version="1.0" encoding="UTF-8"?>
<!--Generator: Apple Native CoreSVG 326-->
<!DOCTYPE svg
PUBLIC "-//W3C//DTD SVG 1.1//EN"
       "http://www.w3.org/Graphics/SVG/1.1/DTD/svg11.dtd">
<svg version="1.1" xmlns="http://www.w3.org/2000/svg" xmlns:xlink="http://www.w3.org/1999/xlink" viewBox="0 0 29.043 20.6738">
 <g>
  <rect height="20.6738" opacity="0" width="29.043" x="0" y="0"/>
  <path d="M24.2871 4.46289L24.2871 4.61914L21.3574 4.61914C19.4043 4.61914 18.1152 5.88867 18.1152 7.7832L18.1152 17.5098C18.1152 17.5962 18.1179 17.6814 18.1262 17.7637L5.91797 17.7637C4.94141 17.7637 4.39453 17.2461 4.39453 16.2305L4.39453 4.46289C4.39453 3.44727 4.94141 2.92969 5.91797 2.92969L22.7637 2.92969C23.7305 2.92969 24.2871 3.44727 24.2871 4.46289Z" fill="white" fill-opacity="0.2125"/>
  <path d="M25.8594 4.38477L25.8594 4.62156C25.8406 4.61927 25.8207 4.61914 25.8008 4.61914L24.2871 4.61914L24.2871 4.46289C24.2871 3.44727 23.7305 2.92969 22.7637 2.92969L5.91797 2.92969C4.94141 2.92969 4.39453 3.44727 4.39453 4.46289L4.39453 16.2305C4.39453 17.2461 4.94141 17.7637 5.91797 17.7637L18.1262 17.7637C18.1613 18.3666 18.3347 18.8979 18.6217 19.3359L5.88867 19.3359C3.85742 19.3359 2.82227 18.3301 2.82227 16.3086L2.82227 4.38477C2.82227 2.36328 3.85742 1.35742 5.88867 1.35742L22.793 1.35742C24.834 1.35742 25.8594 2.37305 25.8594 4.38477ZM18.1152 17.0117L10.5664 17.0117C10.3027 17.0117 10.1074 16.8359 10.1074 16.5625C10.1074 16.2891 10.3027 16.1035 10.5664 16.1035L18.1152 16.1035Z" fill="white" fill-opacity="0.85"/>
  <path d="M21.377 18.0566C20.9473 18.0566 20.7227 17.832 20.7227 17.3828L20.7227 7.91016C20.7227 7.46094 20.9473 7.22656 21.377 7.22656L25.7812 7.22656C26.2109 7.22656 26.4258 7.46094 26.4258 7.91016L26.4258 17.3828C26.4258 17.832 26.2109 18.0566 25.7812 18.0566Z" fill="white" fill-opacity="0.2125"/>
  <path d="M21.3574 19.3359L25.8008 19.3359C27.0117 19.3359 27.7051 18.6719 27.7051 17.5098L27.7051 7.7832C27.7051 6.62109 27.0117 5.94727 25.8008 5.94727L21.3574 5.94727C20.1465 5.94727 19.4434 6.62109 19.4434 7.7832L19.4434 17.5098C19.4434 18.6719 20.1465 19.3359 21.3574 19.3359ZM21.377 18.0566C20.9473 18.0566 20.7227 17.832 20.7227 17.3828L20.7227 7.91016C20.7227 7.46094 20.9473 7.22656 21.377 7.22656L25.7812 7.22656C26.2109 7.22656 26.4258 7.46094 26.4258 7.91016L26.4258 17.3828C26.4258 17.832 26.2109 18.0566 25.7812 18.0566ZM22.2461 17.5586L24.8926 17.5586C25.0879 17.5586 25.2441 17.4219 25.2441 17.2168C25.2441 17.0312 25.0879 16.8848 24.8926 16.8848L22.2461 16.8848C22.0508 16.8848 21.9141 17.0312 21.9141 17.2168C21.9141 17.4316 22.0312 17.5586 22.2461 17.5586ZM22.793 8.62305L24.3262 8.62305C24.5801 8.62305 24.7852 8.42773 24.7852 8.16406C24.7852 7.91992 24.5801 7.72461 24.3262 7.72461L22.793 7.72461C22.5391 7.72461 22.3438 7.91992 22.3438 8.16406C22.3438 8.42773 22.5391 8.62305 22.793 8.62305Z" fill="white" fill-opacity="0.85"/>
 </g>
</svg>
