<?xml version="1.0" encoding="UTF-8"?>
<!--Generator: Apple Native CoreSVG 326-->
<!DOCTYPE svg
PUBLIC "-//W3C//DTD SVG 1.1//EN"
       "http://www.w3.org/Graphics/SVG/1.1/DTD/svg11.dtd">
<svg version="1.1" xmlns="http://www.w3.org/2000/svg" xmlns:xlink="http://www.w3.org/1999/xlink" viewBox="0 0 24.4727 22.0215">
 <g>
  <rect height="22.0215" opacity="0" width="24.4727" x="0" y="0"/>
  <path d="M20.2148 2.58789L20.2148 19.4238C20.2148 20.9668 19.1309 22.002 17.5098 22.002L6.60156 22.002C4.99023 22.002 3.89648 20.9668 3.89648 19.4238L3.89648 13.6133L5.46875 13.6133L5.46875 19.1602C5.46875 19.9609 5.9668 20.4297 6.80664 20.4297L17.3145 20.4297C18.1543 20.4297 18.6426 19.9609 18.6426 19.1602L18.6426 2.85156C18.6426 2.05078 18.1543 1.57227 17.3145 1.57227L6.80664 1.57227C5.9668 1.57227 5.46875 2.05078 5.46875 2.85156L5.46875 8.38867L3.89648 8.38867L3.89648 2.58789C3.89648 1.04492 4.99023 0 6.60156 0L17.5098 0C19.1309 0 20.2148 1.04492 20.2148 2.58789Z" fill="white" fill-opacity="0.85"/>
  <path d="M0 10.9961C0 11.416 0.351562 11.7773 0.761719 11.7773L8.59375 11.7773L10.0488 11.709L9.47266 12.2656L7.86133 13.7695C7.70508 13.9062 7.62695 14.1211 7.62695 14.3066C7.62695 14.7168 7.91992 15.0098 8.31055 15.0098C8.52539 15.0098 8.68164 14.9316 8.82812 14.7852L11.9336 11.5625C12.1289 11.3672 12.1875 11.2012 12.1875 10.9961C12.1875 10.8008 12.1289 10.625 11.9336 10.4297L8.82812 7.2168C8.68164 7.07031 8.52539 6.98242 8.31055 6.98242C7.91992 6.98242 7.62695 7.29492 7.62695 7.69531C7.62695 7.88086 7.70508 8.08594 7.86133 8.22266L9.47266 9.73633L10.0488 10.2832L8.59375 10.2246L0.761719 10.2246C0.351562 10.2246 0 10.5762 0 10.9961Z" fill="white" fill-opacity="0.85"/>
 </g>
</svg>
