<?xml version="1.0" encoding="UTF-8"?>
<!--Generator: Apple Native CoreSVG 326-->
<!DOCTYPE svg
PUBLIC "-//W3C//DTD SVG 1.1//EN"
       "http://www.w3.org/Graphics/SVG/1.1/DTD/svg11.dtd">
<svg version="1.1" xmlns="http://www.w3.org/2000/svg" xmlns:xlink="http://www.w3.org/1999/xlink" viewBox="0 0 20.2832 19.9316">
 <g>
  <rect height="19.9316" opacity="0" width="20.2832" x="0" y="0"/>
  <path d="M9.96094 19.9219C15.459 19.9219 19.9219 15.459 19.9219 9.96094C19.9219 4.46289 15.459 0 9.96094 0C4.46289 0 0 4.46289 0 9.96094C0 15.459 4.46289 19.9219 9.96094 19.9219ZM9.96094 18.2617C5.37109 18.2617 1.66016 14.5508 1.66016 9.96094C1.66016 5.37109 5.37109 1.66016 9.96094 1.66016C14.5508 1.66016 18.2617 5.37109 18.2617 9.96094C18.2617 14.5508 14.5508 18.2617 9.96094 18.2617Z" fill="white" fill-opacity="0.85"/>
  <path d="M6.23047 14.5898C6.23047 15.5078 6.86523 16.123 7.82227 16.123L12.0996 16.123C13.0566 16.123 13.6914 15.5078 13.6914 14.5898L13.6914 5.33203C13.6914 4.41406 13.0566 3.79883 12.0996 3.79883L7.82227 3.79883C6.86523 3.79883 6.23047 4.41406 6.23047 5.33203ZM7.1875 14.1309L7.1875 5.79102L12.7344 5.79102L12.7344 14.1309ZM9.9707 15.5273C9.69727 15.5273 9.47266 15.3027 9.47266 15.0293C9.47266 14.7559 9.69727 14.5312 9.9707 14.5312C10.2344 14.5312 10.4492 14.7559 10.4492 15.0293C10.4492 15.3027 10.2344 15.5273 9.9707 15.5273ZM8.84766 4.83398C8.84766 4.6875 8.94531 4.59961 9.08203 4.59961L10.8496 4.59961C10.9863 4.59961 11.0742 4.6875 11.0742 4.83398C11.0742 4.9707 10.9863 5.06836 10.8496 5.06836L9.08203 5.06836C8.94531 5.06836 8.84766 4.9707 8.84766 4.83398Z" fill="white" fill-opacity="0.85"/>
 </g>
</svg>
