<?xml version="1.0" encoding="UTF-8"?>
<!--Generator: Apple Native CoreSVG 326-->
<!DOCTYPE svg
PUBLIC "-//W3C//DTD SVG 1.1//EN"
       "http://www.w3.org/Graphics/SVG/1.1/DTD/svg11.dtd">
<svg version="1.1" xmlns="http://www.w3.org/2000/svg" xmlns:xlink="http://www.w3.org/1999/xlink" viewBox="0 0 20.2832 19.9316">
 <g>
  <rect height="19.9316" opacity="0" width="20.2832" x="0" y="0"/>
  <path d="M19.9219 9.9707C19.9219 15.4688 15.459 19.9316 9.96094 19.9316C4.47266 19.9316 0 15.4688 0 9.9707C0 4.48242 4.47266 0.00976562 9.96094 0.00976562C15.459 0.00976562 19.9219 4.48242 19.9219 9.9707ZM7.96875 4.19922C7.07031 4.19922 6.46484 4.77539 6.46484 5.6543L6.46484 14.2871C6.46484 15.1562 7.07031 15.7422 7.96875 15.7422L11.9531 15.7422C12.8516 15.7422 13.457 15.1562 13.457 14.2871L13.457 5.6543C13.457 4.77539 12.8516 4.19922 11.9531 4.19922ZM8.86719 5.21484L8.86719 5.33203C8.86719 5.56641 9.01367 5.74219 9.24805 5.74219L10.6738 5.74219C10.9082 5.74219 11.0547 5.56641 11.0547 5.33203L11.0547 5.21484C11.0547 5.13672 11.0938 5.09766 11.1719 5.09766L11.8457 5.09766C12.3047 5.09766 12.5586 5.3418 12.5586 5.77148L12.5586 14.1602C12.5586 14.5898 12.3047 14.8438 11.8457 14.8438L8.07617 14.8438C7.61719 14.8438 7.36328 14.5898 7.36328 14.1602L7.36328 5.77148C7.36328 5.3418 7.61719 5.09766 8.07617 5.09766L8.74023 5.09766C8.84766 5.09766 8.86719 5.14648 8.86719 5.21484ZM8.82812 13.9062C8.66211 13.9062 8.55469 14.0137 8.55469 14.1797C8.55469 14.3457 8.66211 14.4531 8.82812 14.4531L11.1133 14.4531C11.2695 14.4531 11.3672 14.3457 11.3672 14.1797C11.3672 14.0137 11.2695 13.9062 11.1133 13.9062ZM3.50586 6.99219C2.77344 7.79297 2.38281 8.85742 2.38281 9.9707C2.38281 11.0938 2.77344 12.1582 3.50586 12.9492C3.70117 13.1445 3.95508 13.1445 4.0918 12.959C4.22852 12.8027 4.18945 12.5879 4.0332 12.3926C3.4375 11.7285 3.125 10.8887 3.125 9.9707C3.125 9.05273 3.4375 8.21289 4.0332 7.54883C4.18945 7.35352 4.22852 7.14844 4.0918 6.98242C3.95508 6.79688 3.70117 6.79688 3.50586 6.99219ZM15.8008 6.98242C15.6641 7.14844 15.7031 7.35352 15.8691 7.54883C16.4551 8.21289 16.7773 9.05273 16.7773 9.9707C16.7773 10.8887 16.4551 11.7285 15.8691 12.3926C15.7031 12.5879 15.6641 12.8027 15.8008 12.959C15.9473 13.1445 16.2012 13.1445 16.3867 12.9492C17.1191 12.1582 17.5195 11.0938 17.5195 9.9707C17.5195 8.85742 17.1191 7.79297 16.3867 6.99219C16.2012 6.79688 15.9473 6.79688 15.8008 6.98242ZM4.94141 8.25195C4.56055 8.7207 4.3457 9.32617 4.3457 9.9707C4.3457 10.625 4.56055 11.2207 4.94141 11.6992C5.11719 11.9043 5.39062 11.9043 5.54688 11.7188C5.68359 11.5527 5.63477 11.3574 5.47852 11.1523C5.23438 10.8301 5.10742 10.4199 5.10742 9.9707C5.10742 9.52148 5.23438 9.10156 5.47852 8.78906C5.63477 8.58398 5.68359 8.38867 5.54688 8.22266C5.39062 8.03711 5.11719 8.04688 4.94141 8.25195ZM14.3457 8.22266C14.209 8.38867 14.2578 8.58398 14.4141 8.78906C14.6582 9.10156 14.7949 9.52148 14.7949 9.9707C14.7949 10.4199 14.6582 10.8301 14.4141 11.1523C14.2578 11.3574 14.209 11.5527 14.3457 11.7188C14.502 11.9043 14.7852 11.9043 14.9512 11.6992C15.332 11.2207 15.5566 10.625 15.5566 9.9707C15.5566 9.32617 15.332 8.7207 14.9512 8.25195C14.7852 8.04688 14.502 8.03711 14.3457 8.22266Z" fill="white" fill-opacity="0.85"/>
 </g>
</svg>
