<?xml version="1.0" encoding="UTF-8"?>
<!--Generator: Apple Native CoreSVG 326-->
<!DOCTYPE svg
PUBLIC "-//W3C//DTD SVG 1.1//EN"
       "http://www.w3.org/Graphics/SVG/1.1/DTD/svg11.dtd">
<svg version="1.1" xmlns="http://www.w3.org/2000/svg" xmlns:xlink="http://www.w3.org/1999/xlink" viewBox="0 0 20.2832 19.9316">
 <g>
  <rect height="19.9316" opacity="0" width="20.2832" x="0" y="0"/>
  <path d="M9.96094 19.9219C15.459 19.9219 19.9219 15.459 19.9219 9.96094C19.9219 4.46289 15.459 0 9.96094 0C4.46289 0 0 4.46289 0 9.96094C0 15.459 4.46289 19.9219 9.96094 19.9219ZM9.96094 18.2617C5.37109 18.2617 1.66016 14.5508 1.66016 9.96094C1.66016 5.37109 5.37109 1.66016 9.96094 1.66016C14.5508 1.66016 18.2617 5.37109 18.2617 9.96094C18.2617 14.5508 14.5508 18.2617 9.96094 18.2617Z" fill="white" fill-opacity="0.85"/>
  <path d="M7.82227 16.123L12.0898 16.123C13.0469 16.123 13.6914 15.5078 13.6914 14.5801L13.6914 5.33203C13.6914 4.4043 13.0469 3.79883 12.0898 3.79883L7.82227 3.79883C6.875 3.79883 6.23047 4.4043 6.23047 5.33203L6.23047 14.5801C6.23047 15.5078 6.875 16.123 7.82227 16.123ZM7.94922 15.166C7.45117 15.166 7.17773 14.9121 7.17773 14.4434L7.17773 5.46875C7.17773 5 7.45117 4.74609 7.94922 4.74609L11.9727 4.74609C12.4707 4.74609 12.7441 5 12.7441 5.46875L12.7441 14.4434C12.7441 14.9121 12.4707 15.166 11.9727 15.166ZM8.74023 14.7461L11.1816 14.7461C11.3477 14.7461 11.4648 14.6387 11.4648 14.4727C11.4648 14.2969 11.3477 14.1797 11.1816 14.1797L8.74023 14.1797C8.57422 14.1797 8.45703 14.2969 8.45703 14.4727C8.45703 14.6387 8.57422 14.7461 8.74023 14.7461ZM9.24805 6.05469L10.6641 6.05469C10.8984 6.05469 11.084 5.86914 11.084 5.63477C11.084 5.41016 10.8984 5.22461 10.6641 5.22461L9.24805 5.22461C9.01367 5.22461 8.82812 5.41016 8.82812 5.63477C8.82812 5.86914 9.01367 6.05469 9.24805 6.05469Z" fill="white" fill-opacity="0.85"/>
 </g>
</svg>
