<?xml version="1.0" encoding="UTF-8"?>
<!--Generator: Apple Native CoreSVG 326-->
<!DOCTYPE svg
PUBLIC "-//W3C//DTD SVG 1.1//EN"
       "http://www.w3.org/Graphics/SVG/1.1/DTD/svg11.dtd">
<svg version="1.1" xmlns="http://www.w3.org/2000/svg" xmlns:xlink="http://www.w3.org/1999/xlink" viewBox="0 0 13.9941 12.7832">
 <g>
  <rect height="12.7832" opacity="0" width="13.9941" x="0" y="0"/>
  <path d="M0 10.4199C0 11.8652 0.878906 12.7832 2.23633 12.7832L11.3965 12.7832C12.7539 12.7832 13.6328 11.8652 13.6328 10.4199L13.6328 2.36328C13.6328 0.917969 12.7246 0 11.3965 0L2.23633 0C0.878906 0 0 0.917969 0 2.36328ZM1.57227 10.2246L1.57227 2.55859C1.57227 1.94336 1.92383 1.57227 2.5 1.57227L11.1328 1.57227C11.6992 1.57227 12.0605 1.94336 12.0605 2.55859L12.0605 10.2246C12.0605 10.8398 11.6992 11.2109 11.1328 11.2109L2.5 11.2109C1.92383 11.2109 1.57227 10.8398 1.57227 10.2246ZM6.81641 10.1758C8.90625 10.1758 10.6055 8.47656 10.6055 6.38672C10.6055 4.29688 8.90625 2.59766 6.81641 2.59766C4.72656 2.59766 3.02734 4.29688 3.02734 6.38672C3.02734 8.47656 4.72656 10.1758 6.81641 10.1758ZM6.81641 8.92578C5.40039 8.92578 4.27734 7.80273 4.27734 6.38672C4.27734 4.9707 5.40039 3.84766 6.81641 3.84766C8.23242 3.84766 9.35547 4.9707 9.35547 6.38672C9.35547 7.80273 8.23242 8.92578 6.81641 8.92578Z" fill="white" fill-opacity="0.85"/>
 </g>
</svg>
