<?xml version="1.0" encoding="UTF-8"?>
<!--Generator: Apple Native CoreSVG 326-->
<!DOCTYPE svg
PUBLIC "-//W3C//DTD SVG 1.1//EN"
       "http://www.w3.org/Graphics/SVG/1.1/DTD/svg11.dtd">
<svg version="1.1" xmlns="http://www.w3.org/2000/svg" xmlns:xlink="http://www.w3.org/1999/xlink" viewBox="0 0 26.5106 21.2284">
 <g>
  <rect height="21.2284" opacity="0" width="26.5106" x="0" y="0"/>
  <path d="M7.82074 20.5312L12.3422 20.5312L12.3422 4.79875L11.2778 5.86321C10.7114 6.41008 9.91058 6.39055 9.35394 5.74602L6.46332 2.29875L5.69183 2.59172C4.60785 2.99211 4.1684 3.56828 3.86566 4.6718L0.0961315 18.2265C-0.187072 19.2616 0.154725 20.0429 1.13129 20.3066L3.35785 20.912C4.33441 21.1757 5.09613 21.0585 5.31098 20.082L6.28754 15.7851L5.75043 11.8984L5.50629 17.7577C5.4184 19.5351 5.97504 20.5312 7.82074 20.5312ZM8.43598 16.039C8.11371 16.2734 7.69379 16.1952 7.45941 15.873C7.24457 15.5605 7.30316 15.1308 7.62543 14.8964L9.61762 13.4413C9.93012 13.2265 10.3696 13.2851 10.5942 13.5976C10.8286 13.9101 10.7602 14.3398 10.4379 14.5741ZM13.8071 20.5312L18.3383 20.5312C20.1743 20.5312 20.7309 19.5351 20.643 17.7577L20.3989 11.6152L19.8227 15.5898L20.8481 20.082C21.0629 21.0585 21.8246 21.1757 22.7914 20.912L25.018 20.3066C25.9946 20.0429 26.3461 19.2616 26.0532 18.2265L22.2836 4.6718C21.9809 3.56828 21.5414 2.99211 20.4575 2.59172L19.6957 2.30852L16.8051 5.74602C16.2582 6.39055 15.4477 6.41008 14.8813 5.86321L13.8071 4.78899ZM17.7719 16.039L15.77 14.5741C15.4477 14.3398 15.3891 13.9101 15.6137 13.5976C15.8383 13.2851 16.2778 13.2265 16.5903 13.4413L18.5825 14.8964C18.9047 15.1308 18.9731 15.5605 18.7485 15.873C18.5141 16.1952 18.0942 16.2734 17.7719 16.039ZM9.97894 4.43743C10.3305 4.85735 10.6723 4.78899 11.0239 4.43743L12.2543 3.19719C12.5278 2.92375 12.5375 2.56243 12.2641 2.27922L10.2817 0.257738C9.97894-0.0449963 9.68598-0.0938244 9.37348 0.179613L8.05512 1.31243C7.78168 1.53703 7.78168 1.83977 7.99652 2.09368ZM16.1996 4.43743L18.1821 2.09368C18.3969 1.83977 18.3969 1.53703 18.1235 1.31243L16.8051 0.179613C16.4926-0.0938244 16.1996-0.0449963 15.8969 0.257738L13.9145 2.27922C13.6313 2.56243 13.6508 2.92375 13.9145 3.19719L15.1547 4.43743C15.4965 4.78899 15.8481 4.85735 16.1996 4.43743Z" fill="white" fill-opacity="0.85"/>
 </g>
</svg>
