<?xml version="1.0" encoding="UTF-8"?>
<!--Generator: Apple Native CoreSVG 326-->
<!DOCTYPE svg
PUBLIC "-//W3C//DTD SVG 1.1//EN"
       "http://www.w3.org/Graphics/SVG/1.1/DTD/svg11.dtd">
<svg version="1.1" xmlns="http://www.w3.org/2000/svg" xmlns:xlink="http://www.w3.org/1999/xlink" viewBox="0 0 24.9414 15.4395">
 <g>
  <rect height="15.4395" opacity="0" width="24.9414" x="0" y="0"/>
  <path d="M24.5801 3.01758L24.5801 12.4023C24.5801 14.4141 23.5449 15.4297 21.5137 15.4297L3.06641 15.4297C1.01562 15.4297 0 14.4141 0 12.4023L0 3.01758C0 1.00586 1.01562 0 3.06641 0L21.5137 0C23.5449 0 24.5801 1.01562 24.5801 3.01758ZM9.19922 10.0488C9.02344 10.0488 8.90625 10.1758 8.90625 10.3711L8.90625 11.5039C8.90625 11.709 9.02344 11.8262 9.19922 11.8262L9.95117 11.8262C10.127 11.8262 10.2441 11.709 10.2441 11.5039L10.2441 10.3711C10.2441 10.1758 10.127 10.0488 9.95117 10.0488ZM11.416 10.0488C11.2402 10.0488 11.1133 10.1758 11.1133 10.3711L11.1133 11.5039C11.1133 11.709 11.2402 11.8262 11.416 11.8262L18.7891 11.8262C18.9648 11.8262 19.082 11.709 19.082 11.5039L19.082 10.3711C19.082 10.1758 18.9648 10.0488 18.7891 10.0488ZM20.2637 10.0488C20.0684 10.0488 19.9609 10.1758 19.9609 10.3711L19.9609 11.5039C19.9609 11.709 20.0684 11.8262 20.2637 11.8262L20.9863 11.8262C21.1816 11.8262 21.2891 11.709 21.2891 11.5039L21.2891 10.3711C21.2891 10.1758 21.1816 10.0488 20.9863 10.0488ZM3.28125 4.6875L3.28125 10.7324C3.28125 11.2793 3.86719 11.4062 4.20898 11.084L7.1582 8.27148C7.5293 7.91992 7.5293 7.5 7.1582 7.14844L4.20898 4.3457C3.86719 4.02344 3.28125 4.15039 3.28125 4.6875ZM9.19922 6.81641C9.02344 6.81641 8.90625 6.92383 8.90625 7.13867L8.90625 8.26172C8.90625 8.47656 9.02344 8.58398 9.19922 8.58398L9.95117 8.58398C10.127 8.58398 10.2441 8.47656 10.2441 8.26172L10.2441 7.13867C10.2441 6.92383 10.127 6.81641 9.95117 6.81641ZM11.416 6.81641C11.2402 6.81641 11.1133 6.92383 11.1133 7.13867L11.1133 8.26172C11.1133 8.47656 11.2402 8.58398 11.416 8.58398L12.1582 8.58398C12.334 8.58398 12.4512 8.47656 12.4512 8.26172L12.4512 7.13867C12.4512 6.92383 12.334 6.81641 12.1582 6.81641ZM13.6328 6.81641C13.4375 6.81641 13.3301 6.92383 13.3301 7.13867L13.3301 8.26172C13.3301 8.47656 13.4375 8.58398 13.6328 8.58398L14.375 8.58398C14.541 8.58398 14.668 8.47656 14.668 8.26172L14.668 7.13867C14.668 6.92383 14.541 6.81641 14.375 6.81641ZM15.8398 6.81641C15.6445 6.81641 15.5371 6.92383 15.5371 7.13867L15.5371 8.26172C15.5371 8.47656 15.6445 8.58398 15.8398 8.58398L16.5625 8.58398C16.7578 8.58398 16.8652 8.47656 16.8652 8.26172L16.8652 7.13867C16.8652 6.92383 16.7578 6.81641 16.5625 6.81641ZM18.0371 6.81641C17.8613 6.81641 17.7539 6.92383 17.7539 7.13867L17.7539 8.26172C17.7539 8.47656 17.8613 8.58398 18.0371 8.58398L18.7891 8.58398C18.9648 8.58398 19.082 8.47656 19.082 8.26172L19.082 7.13867C19.082 6.92383 18.9648 6.81641 18.7891 6.81641ZM20.2637 6.81641C20.0684 6.81641 19.9609 6.92383 19.9609 7.13867L19.9609 8.26172C19.9609 8.47656 20.0684 8.58398 20.2637 8.58398L20.9863 8.58398C21.1816 8.58398 21.2891 8.47656 21.2891 8.26172L21.2891 7.13867C21.2891 6.92383 21.1816 6.81641 20.9863 6.81641ZM9.19922 3.57422C9.02344 3.57422 8.90625 3.69141 8.90625 3.89648L8.90625 5.0293C8.90625 5.22461 9.02344 5.35156 9.19922 5.35156L9.95117 5.35156C10.127 5.35156 10.2441 5.22461 10.2441 5.0293L10.2441 3.89648C10.2441 3.69141 10.127 3.57422 9.95117 3.57422ZM11.416 3.57422C11.2402 3.57422 11.1133 3.69141 11.1133 3.89648L11.1133 5.0293C11.1133 5.22461 11.2402 5.35156 11.416 5.35156L12.1582 5.35156C12.334 5.35156 12.4512 5.22461 12.4512 5.0293L12.4512 3.89648C12.4512 3.69141 12.334 3.57422 12.1582 3.57422ZM13.6328 3.57422C13.4375 3.57422 13.3301 3.69141 13.3301 3.89648L13.3301 5.0293C13.3301 5.22461 13.4375 5.35156 13.6328 5.35156L14.375 5.35156C14.541 5.35156 14.668 5.22461 14.668 5.0293L14.668 3.89648C14.668 3.69141 14.541 3.57422 14.375 3.57422ZM15.8398 3.57422C15.6445 3.57422 15.5371 3.69141 15.5371 3.89648L15.5371 5.0293C15.5371 5.22461 15.6445 5.35156 15.8398 5.35156L16.5625 5.35156C16.7578 5.35156 16.8652 5.22461 16.8652 5.0293L16.8652 3.89648C16.8652 3.69141 16.7578 3.57422 16.5625 3.57422ZM18.0371 3.57422C17.8613 3.57422 17.7539 3.69141 17.7539 3.89648L17.7539 5.0293C17.7539 5.22461 17.8613 5.35156 18.0371 5.35156L18.7891 5.35156C18.9648 5.35156 19.082 5.22461 19.082 5.0293L19.082 3.89648C19.082 3.69141 18.9648 3.57422 18.7891 3.57422ZM20.2637 3.57422C20.0684 3.57422 19.9609 3.69141 19.9609 3.89648L19.9609 5.0293C19.9609 5.22461 20.0684 5.35156 20.2637 5.35156L20.9863 5.35156C21.1816 5.35156 21.2891 5.22461 21.2891 5.0293L21.2891 3.89648C21.2891 3.69141 21.1816 3.57422 20.9863 3.57422Z" fill="white" fill-opacity="0.85"/>
 </g>
</svg>
