<?xml version="1.0" encoding="UTF-8"?>
<!--Generator: Apple Native CoreSVG 326-->
<!DOCTYPE svg
PUBLIC "-//W3C//DTD SVG 1.1//EN"
       "http://www.w3.org/Graphics/SVG/1.1/DTD/svg11.dtd">
<svg version="1.1" xmlns="http://www.w3.org/2000/svg" xmlns:xlink="http://www.w3.org/1999/xlink" viewBox="0 0 23.3887 17.998">
 <g>
  <rect height="17.998" opacity="0" width="23.3887" x="0" y="0"/>
  <path d="M4.26758 8.76953L5.08789 8.76953C5.3418 8.76953 5.49805 8.61328 5.49805 8.35938L5.49805 7.5293C5.49805 7.28516 5.3418 7.12891 5.08789 7.12891L4.26758 7.12891C4.01367 7.12891 3.85742 7.28516 3.85742 7.5293L3.85742 8.35938C3.85742 8.61328 4.01367 8.76953 4.26758 8.76953ZM7.00195 8.76953L7.83203 8.76953C8.08594 8.76953 8.23242 8.61328 8.23242 8.35938L8.23242 7.5293C8.23242 7.28516 8.08594 7.12891 7.83203 7.12891L7.00195 7.12891C6.75781 7.12891 6.60156 7.28516 6.60156 7.5293L6.60156 8.35938C6.60156 8.61328 6.75781 8.76953 7.00195 8.76953ZM9.73633 8.76953L10.5566 8.76953C10.8105 8.76953 10.9668 8.61328 10.9668 8.35938L10.9668 7.5293C10.9668 7.28516 10.8105 7.12891 10.5566 7.12891L9.73633 7.12891C9.48242 7.12891 9.33594 7.28516 9.33594 7.5293L9.33594 8.35938C9.33594 8.61328 9.48242 8.76953 9.73633 8.76953ZM12.4707 8.76953L13.3008 8.76953C13.5449 8.76953 13.6914 8.61328 13.6914 8.35938L13.6914 7.5293C13.6914 7.28516 13.5449 7.12891 13.3008 7.12891L12.4707 7.12891C12.2168 7.12891 12.0605 7.28516 12.0605 7.5293L12.0605 8.35938C12.0605 8.61328 12.2168 8.76953 12.4707 8.76953ZM15.1953 8.76953L16.0254 8.76953C16.2793 8.76953 16.4355 8.61328 16.4355 8.35938L16.4355 7.5293C16.4355 7.28516 16.2793 7.12891 16.0254 7.12891L15.1953 7.12891C14.9512 7.12891 14.8047 7.28516 14.8047 7.5293L14.8047 8.35938C14.8047 8.61328 14.9512 8.76953 15.1953 8.76953ZM17.9395 8.76953L18.7598 8.76953C19.0137 8.76953 19.1699 8.61328 19.1699 8.35938L19.1699 7.5293C19.1699 7.28516 19.0137 7.12891 18.7598 7.12891L17.9395 7.12891C17.6855 7.12891 17.5293 7.28516 17.5293 7.5293L17.5293 8.35938C17.5293 8.61328 17.6855 8.76953 17.9395 8.76953ZM4.26758 11.5039L5.08789 11.5039C5.3418 11.5039 5.49805 11.3477 5.49805 11.0938L5.49805 10.2734C5.49805 10.0293 5.3418 9.87305 5.08789 9.87305L4.26758 9.87305C4.01367 9.87305 3.85742 10.0293 3.85742 10.2734L3.85742 11.0938C3.85742 11.3477 4.01367 11.5039 4.26758 11.5039ZM7.00195 11.5039L7.83203 11.5039C8.08594 11.5039 8.23242 11.3477 8.23242 11.0938L8.23242 10.2734C8.23242 10.0293 8.08594 9.87305 7.83203 9.87305L7.00195 9.87305C6.75781 9.87305 6.60156 10.0293 6.60156 10.2734L6.60156 11.0938C6.60156 11.3477 6.75781 11.5039 7.00195 11.5039ZM9.73633 11.5039L10.5566 11.5039C10.8105 11.5039 10.9668 11.3477 10.9668 11.0938L10.9668 10.2734C10.9668 10.0293 10.8105 9.87305 10.5566 9.87305L9.73633 9.87305C9.48242 9.87305 9.33594 10.0293 9.33594 10.2734L9.33594 11.0938C9.33594 11.3477 9.48242 11.5039 9.73633 11.5039ZM12.4707 11.5039L13.3008 11.5039C13.5449 11.5039 13.6914 11.3477 13.6914 11.0938L13.6914 10.2734C13.6914 10.0293 13.5449 9.87305 13.3008 9.87305L12.4707 9.87305C12.2168 9.87305 12.0605 10.0293 12.0605 10.2734L12.0605 11.0938C12.0605 11.3477 12.2168 11.5039 12.4707 11.5039ZM15.1953 11.5039L16.0254 11.5039C16.2793 11.5039 16.4355 11.3477 16.4355 11.0938L16.4355 10.2734C16.4355 10.0293 16.2793 9.87305 16.0254 9.87305L15.1953 9.87305C14.9512 9.87305 14.8047 10.0293 14.8047 10.2734L14.8047 11.0938C14.8047 11.3477 14.9512 11.5039 15.1953 11.5039ZM17.9395 11.5039L18.7598 11.5039C19.0137 11.5039 19.1699 11.3477 19.1699 11.0938L19.1699 10.2734C19.1699 10.0293 19.0137 9.87305 18.7598 9.87305L17.9395 9.87305C17.6855 9.87305 17.5293 10.0293 17.5293 10.2734L17.5293 11.0938C17.5293 11.3477 17.6855 11.5039 17.9395 11.5039ZM4.26758 14.248L5.08789 14.248C5.3418 14.248 5.49805 14.0918 5.49805 13.8379L5.49805 13.0176C5.49805 12.7637 5.3418 12.6074 5.08789 12.6074L4.26758 12.6074C4.01367 12.6074 3.85742 12.7637 3.85742 13.0176L3.85742 13.8379C3.85742 14.0918 4.01367 14.248 4.26758 14.248ZM7.08984 14.248L15.9375 14.248C16.2598 14.248 16.4355 14.0625 16.4355 13.75L16.4355 13.1055C16.4355 12.793 16.2598 12.6074 15.9375 12.6074L7.08984 12.6074C6.77734 12.6074 6.60156 12.793 6.60156 13.1055L6.60156 13.75C6.60156 14.0625 6.77734 14.248 7.08984 14.248ZM17.9395 14.248L18.7598 14.248C19.0137 14.248 19.1699 14.0918 19.1699 13.8379L19.1699 13.0176C19.1699 12.7637 19.0137 12.6074 18.7598 12.6074L17.9395 12.6074C17.6855 12.6074 17.5293 12.7637 17.5293 13.0176L17.5293 13.8379C17.5293 14.0918 17.6855 14.248 17.9395 14.248ZM0 14.9707C0 16.9922 1.02539 17.998 3.06641 17.998L19.9609 17.998C22.0117 17.998 23.0273 16.9824 23.0273 14.9707L23.0273 3.04688C23.0273 1.03516 22.0117 0.0195312 19.9609 0.0195312L3.06641 0.0195312C1.02539 0.0195312 0 1.02539 0 3.04688ZM3.0957 3.34961C2.61719 3.34961 2.22656 2.93945 2.22656 2.48047C2.22656 2.02148 2.61719 1.61133 3.0957 1.61133C3.57422 1.61133 3.97461 2.02148 3.97461 2.48047C3.97461 2.93945 3.57422 3.34961 3.0957 3.34961ZM5.89844 3.34961C5.41992 3.34961 5.0293 2.93945 5.0293 2.48047C5.0293 2.02148 5.41992 1.61133 5.89844 1.61133C6.37695 1.61133 6.77734 2.02148 6.77734 2.48047C6.77734 2.93945 6.37695 3.34961 5.89844 3.34961ZM8.70117 3.34961C8.22266 3.34961 7.83203 2.93945 7.83203 2.48047C7.83203 2.02148 8.22266 1.61133 8.70117 1.61133C9.17969 1.61133 9.57031 2.02148 9.57031 2.48047C9.57031 2.93945 9.17969 3.34961 8.70117 3.34961ZM1.57227 14.8926L1.57227 4.94141L21.4551 4.94141L21.4551 14.8926C21.4551 15.9082 20.9082 16.4258 19.9414 16.4258L3.08594 16.4258C2.10938 16.4258 1.57227 15.9082 1.57227 14.8926Z" fill="white" fill-opacity="0.85"/>
 </g>
</svg>
