<?xml version="1.0" encoding="UTF-8"?>
<!--Generator: Apple Native CoreSVG 326-->
<!DOCTYPE svg
PUBLIC "-//W3C//DTD SVG 1.1//EN"
       "http://www.w3.org/Graphics/SVG/1.1/DTD/svg11.dtd">
<svg version="1.1" xmlns="http://www.w3.org/2000/svg" xmlns:xlink="http://www.w3.org/1999/xlink" viewBox="0 0 23.8867 19.5996">
 <g>
  <rect height="19.5996" opacity="0" width="23.8867" x="0" y="0"/>
  <path d="M23.5254 11.7578C23.5254 8.88672 22.4902 6.24023 20.7617 4.18945C20.5664 3.95508 20.2344 3.95508 20.0195 4.17969L17.7539 6.44531C17.5684 6.63086 17.5586 6.89453 17.7246 7.09961C18.7305 8.38867 19.3359 10.0098 19.3359 11.7578C19.3359 13.5156 18.7305 15.1367 17.666 16.4941C17.5293 16.6602 17.5391 16.875 17.6855 17.0312L20.0098 19.3555C20.2344 19.5801 20.5566 19.5801 20.7617 19.3359C22.4902 17.2852 23.5254 14.6387 23.5254 11.7578Z" fill="white" fill-opacity="0.85"/>
  <path d="M11.7578 4.18945C13.5254 4.18945 15.1465 4.80469 16.4453 5.81055C16.6406 5.9668 16.8945 5.94727 17.0801 5.76172L19.3457 3.49609C19.5703 3.27148 19.5605 2.94922 19.3262 2.75391C17.2852 1.03516 14.6387 0 11.7578 0C8.88672 0 6.24023 1.03516 4.19922 2.75391C3.96484 2.94922 3.95508 3.27148 4.17969 3.49609L6.44531 5.76172C6.63086 5.94727 6.89453 5.9668 7.10938 5.80078C8.39844 4.80469 10.0098 4.18945 11.7578 4.18945Z" fill="white" fill-opacity="0.85"/>
  <path d="M0 11.7578C0 14.6387 1.03516 17.2852 2.76367 19.3359C2.95898 19.5801 3.29102 19.5801 3.50586 19.3555L5.83008 17.0312C5.97656 16.875 5.99609 16.6602 5.85938 16.4941C4.79492 15.1367 4.18945 13.5156 4.18945 11.7578C4.18945 10.0098 4.78516 8.38867 5.80078 7.09961C5.95703 6.89453 5.95703 6.63086 5.77148 6.44531L3.50586 4.17969C3.28125 3.95508 2.95898 3.95508 2.76367 4.18945C1.03516 6.24023 0 8.88672 0 11.7578Z" fill="white" fill-opacity="0.85"/>
  <path d="M9.55078 16.377C9.90234 16.377 10.1172 16.1426 10.1172 15.791L10.1172 12.1484L10.7422 12.1484L13.7598 16.084C13.8867 16.2695 14.0332 16.377 14.2578 16.377C14.6289 16.377 14.7852 16.084 14.7852 15.8789C14.7852 15.7227 14.7266 15.6055 14.6289 15.4785L11.9922 12.1484L14.6875 12.1484C14.873 12.1484 15.0195 12.002 15.0195 11.8164C15.0195 11.6309 14.873 11.4941 14.6875 11.4941L12.0117 11.4941L14.6387 8.25195C14.7266 8.125 14.7754 7.99805 14.7754 7.88086C14.7754 7.58789 14.541 7.38281 14.2578 7.38281C14.0723 7.38281 13.8867 7.51953 13.7793 7.66602L10.752 11.4941L10.1172 11.4941L10.1172 7.95898C10.1172 7.59766 9.90234 7.38281 9.55078 7.38281C9.19922 7.38281 8.97461 7.59766 8.97461 7.95898L8.97461 11.4941L8.30078 11.4941C8.11523 11.4941 7.97852 11.6211 7.97852 11.8262C7.97852 12.0117 8.11523 12.1484 8.30078 12.1484L8.97461 12.1484L8.97461 15.791C8.97461 16.1426 9.19922 16.377 9.55078 16.377Z" fill="white" fill-opacity="0.85"/>
 </g>
</svg>
