<?xml version="1.0" encoding="UTF-8"?>
<!--Generator: Apple Native CoreSVG 326-->
<!DOCTYPE svg
PUBLIC "-//W3C//DTD SVG 1.1//EN"
       "http://www.w3.org/Graphics/SVG/1.1/DTD/svg11.dtd">
<svg version="1.1" xmlns="http://www.w3.org/2000/svg" xmlns:xlink="http://www.w3.org/1999/xlink" viewBox="0 0 18.7793 22.6855">
 <g>
  <rect height="22.6855" opacity="0" width="18.7793" x="0" y="0"/>
  <path d="M9.20898 5.14648C11.5137 5.14648 13.4082 3.82812 13.7695 1.92383C13.8965 1.2207 13.5645 0.703125 12.8711 0.517578C10.791-0.0390625 7.62695-0.0390625 5.55664 0.517578C4.86328 0.703125 4.53125 1.2207 4.6582 1.92383C5.01953 3.82812 6.9043 5.14648 9.20898 5.14648ZM8.42773 10.6055L10 10.6055L10 4.56055L8.42773 4.56055ZM9.20898 14.248C12.8223 14.248 15.8887 14.9121 17.7539 16.0938C16.875 14.3164 15.1953 12.5879 13.2129 11.6113C12.6465 9.7168 11.0254 8.53516 9.20898 8.53516C7.39258 8.53516 5.77148 9.7168 5.20508 11.6113C3.22266 12.5879 1.54297 14.3164 0.664062 16.0938C2.5293 14.9121 5.5957 14.248 9.20898 14.248ZM9.20898 22.6855C14.7363 22.6855 18.418 21.1523 18.418 18.8574C18.418 16.7578 13.9941 15.4785 9.20898 15.4785C4.42383 15.4785 0 16.7383 0 18.8574C0 21.1523 3.68164 22.6855 9.20898 22.6855ZM9.20898 19.5605C7.37305 19.5605 5.77148 18.4766 5.71289 17.0605C6.77734 16.8848 7.96875 16.7773 9.20898 16.7773C10.4395 16.7773 11.6406 16.8848 12.7051 17.0605C12.6367 18.4766 11.0742 19.5605 9.20898 19.5605Z" fill="white" fill-opacity="0.85"/>
 </g>
</svg>
