<?xml version="1.0" encoding="UTF-8"?>
<!--Generator: Apple Native CoreSVG 326-->
<!DOCTYPE svg
PUBLIC "-//W3C//DTD SVG 1.1//EN"
       "http://www.w3.org/Graphics/SVG/1.1/DTD/svg11.dtd">
<svg version="1.1" xmlns="http://www.w3.org/2000/svg" xmlns:xlink="http://www.w3.org/1999/xlink" viewBox="0 0 23.8867 19.5071">
 <g>
  <rect height="19.5071" opacity="0" width="23.8867" x="0" y="0"/>
  <path d="M23.5254 11.7116C23.5254 5.55921 18.7988 0.510381 12.7832 0.00256812C12.4707-0.0267288 12.2363 0.197881 12.2363 0.510381L12.2363 3.70374C12.2363 3.96741 12.4219 4.17249 12.6855 4.19202C16.4258 4.65101 19.3359 7.84436 19.3359 11.7116C19.3359 13.4694 18.7305 15.0905 17.666 16.4479C17.5293 16.6139 17.5391 16.8287 17.6855 16.985L20.0195 19.3092C20.2344 19.5241 20.5664 19.5241 20.7617 19.2897C22.4902 17.2389 23.5254 14.5924 23.5254 11.7116Z" fill="white" fill-opacity="0.85"/>
  <path d="M0 11.7116C0 14.6022 1.03516 17.2487 2.76367 19.2994C2.95898 19.5338 3.28125 19.5241 3.50586 19.3092L5.83984 16.985C5.98633 16.8287 5.99609 16.6139 5.85938 16.4479C4.78516 15.0905 4.18945 13.4694 4.18945 11.7116C4.18945 7.84436 7.09961 4.65101 10.8398 4.19202C11.1035 4.17249 11.2891 3.96741 11.2891 3.70374L11.2891 0.510381C11.2891 0.197881 11.0547-0.0267288 10.7422 0.00256812C4.72656 0.510381 0 5.55921 0 11.7116Z" fill="white" fill-opacity="0.85"/>
  <path d="M8.08594 16.1842L14.7852 16.1842C15.0684 16.1842 15.2734 15.9889 15.2734 15.7155C15.2734 15.442 15.0684 15.2467 14.7852 15.2467L12.5977 15.2467C10.293 15.2467 8.73047 13.5573 8.73047 11.5944C8.73047 9.62171 10.0781 8.49866 11.8066 8.49866C13.4863 8.49866 14.8047 9.65101 14.8535 11.1647C14.8633 11.4967 15.0586 11.7311 15.3906 11.7311C15.7031 11.7311 15.9082 11.4869 15.9082 11.1647C15.8984 9.07483 13.9746 7.50257 11.8066 7.50257C9.45312 7.50257 7.62695 9.1139 7.62695 11.4088C7.62695 12.9713 8.37891 14.5143 9.85352 15.2272L9.85352 15.2565L8.08594 15.2565C7.80273 15.2565 7.60742 15.442 7.60742 15.7155C7.60742 15.9889 7.80273 16.1842 8.08594 16.1842ZM10.8301 11.6139C11.0352 11.6139 11.1719 11.4772 11.1719 11.2721L11.1719 6.68226C11.1719 6.49671 11.0352 6.35999 10.8301 6.35999C10.6445 6.35999 10.5078 6.49671 10.5078 6.68226L10.5078 11.2721C10.5078 11.4772 10.6445 11.6139 10.8301 11.6139ZM12.8125 11.6139C13.0078 11.6139 13.1445 11.4772 13.1445 11.2721L13.1445 6.68226C13.1445 6.49671 13.0078 6.35999 12.8125 6.35999C12.6172 6.35999 12.4805 6.49671 12.4805 6.68226L12.4805 11.2721C12.4805 11.4772 12.6172 11.6139 12.8125 11.6139Z" fill="white" fill-opacity="0.85"/>
 </g>
</svg>
