<?xml version="1.0" encoding="UTF-8"?>
<!--Generator: Apple Native CoreSVG 326-->
<!DOCTYPE svg
PUBLIC "-//W3C//DTD SVG 1.1//EN"
       "http://www.w3.org/Graphics/SVG/1.1/DTD/svg11.dtd">
<svg version="1.1" xmlns="http://www.w3.org/2000/svg" xmlns:xlink="http://www.w3.org/1999/xlink" viewBox="0 0 17.3633 24.4043">
 <g>
  <rect height="24.4043" opacity="0" width="17.3633" x="0" y="0"/>
  <path d="M9.58984 20.2539C9.58984 21.5527 10.3223 22.2852 11.6211 22.2852L14.9609 22.2852C16.2598 22.2852 17.002 21.5527 17.002 20.2441L17.002 4.17969C17.002 2.87109 16.2598 2.13867 14.9609 2.13867L11.6211 2.13867C10.3223 2.13867 9.58984 2.87109 9.58984 4.16992ZM11.0645 20.1172L11.0645 4.30664C11.0645 3.85742 11.3281 3.61328 11.7773 3.61328L14.8242 3.61328C15.2734 3.61328 15.5273 3.85742 15.5273 4.30664L15.5273 20.1172C15.5273 20.5566 15.2734 20.8105 14.8242 20.8105L11.7773 20.8105C11.3281 20.8105 11.0645 20.5566 11.0645 20.1172ZM11.1328 21.5625L11.1328 23.75C11.1328 24.1113 11.416 24.3848 11.7773 24.3848C12.1387 24.3848 12.4219 24.1113 12.4219 23.75L12.4219 21.5625ZM14.1699 21.5625L14.1699 23.75C14.1699 24.1113 14.4434 24.3848 14.8047 24.3848C15.166 24.3848 15.459 24.1113 15.459 23.75L15.459 21.5625ZM13.291 6.86523C13.7891 6.86523 14.1797 6.46484 14.1797 5.97656C14.1797 5.48828 13.7891 5.08789 13.291 5.08789C12.8027 5.08789 12.4121 5.48828 12.4121 5.97656C12.4121 6.46484 12.8027 6.86523 13.291 6.86523ZM13.291 9.98047C13.7891 9.98047 14.1797 9.58008 14.1797 9.0918C14.1797 8.60352 13.7891 8.20312 13.291 8.20312C12.8027 8.20312 12.4121 8.60352 12.4121 9.0918C12.4121 9.58008 12.8027 9.98047 13.291 9.98047ZM13.291 13.0859C13.7891 13.0859 14.1797 12.6953 14.1797 12.207C14.1797 11.7188 13.7891 11.3184 13.291 11.3184C12.8027 11.3184 12.4121 11.7188 12.4121 12.207C12.4121 12.6953 12.8027 13.0859 13.291 13.0859ZM13.291 16.2012C13.7891 16.2012 14.1797 15.8008 14.1797 15.3125C14.1797 14.8242 13.7891 14.4336 13.291 14.4336C12.8027 14.4336 12.4121 14.8242 12.4121 15.3125C12.4121 15.8008 12.8027 16.2012 13.291 16.2012ZM13.291 19.3164C13.7891 19.3164 14.1797 18.916 14.1797 18.4277C14.1797 17.9395 13.7891 17.5391 13.291 17.5391C12.8027 17.5391 12.4121 17.9395 12.4121 18.4277C12.4121 18.916 12.8027 19.3164 13.291 19.3164Z" fill="white" fill-opacity="0.85"/>
  <path d="M0 20.2246C0 21.5234 0.732422 22.2559 2.02148 22.2559L5.37109 22.2559C6.66016 22.2559 7.40234 21.5234 7.40234 20.2148L7.40234 4.15039C7.40234 2.8418 6.66016 2.10938 5.37109 2.10938L2.02148 2.10938C0.732422 2.10938 0 2.8418 0 4.14062ZM1.47461 20.0879L1.47461 4.27734C1.47461 3.82812 1.73828 3.58398 2.1875 3.58398L5.22461 3.58398C5.67383 3.58398 5.92773 3.82812 5.92773 4.27734L5.92773 20.0879C5.92773 20.5273 5.67383 20.7812 5.22461 20.7812L2.1875 20.7812C1.73828 20.7812 1.47461 20.5273 1.47461 20.0879ZM1.54297 2.83203L2.83203 2.83203L2.83203 0.644531C2.83203 0.283203 2.53906 0 2.17773 0C1.81641 0 1.54297 0.283203 1.54297 0.644531ZM4.57031 2.83203L5.85938 2.83203L5.85938 0.644531C5.85938 0.283203 5.57617 0 5.21484 0C4.85352 0 4.57031 0.283203 4.57031 0.644531ZM3.70117 6.85547C4.18945 6.85547 4.58984 6.45508 4.58984 5.9668C4.58984 5.47852 4.18945 5.07812 3.70117 5.07812C3.21289 5.07812 2.82227 5.47852 2.82227 5.9668C2.82227 6.45508 3.21289 6.85547 3.70117 6.85547ZM3.70117 9.96094C4.18945 9.96094 4.58984 9.57031 4.58984 9.08203C4.58984 8.58398 4.18945 8.19336 3.70117 8.19336C3.21289 8.19336 2.82227 8.58398 2.82227 9.08203C2.82227 9.57031 3.21289 9.96094 3.70117 9.96094ZM3.70117 13.0664C4.18945 13.0664 4.58984 12.6758 4.58984 12.1875C4.58984 11.6992 4.18945 11.3086 3.70117 11.3086C3.21289 11.3086 2.82227 11.6992 2.82227 12.1875C2.82227 12.6758 3.21289 13.0664 3.70117 13.0664ZM3.70117 16.1914C4.18945 16.1914 4.58984 15.791 4.58984 15.3027C4.58984 14.8145 4.18945 14.4141 3.70117 14.4141C3.21289 14.4141 2.82227 14.8145 2.82227 15.3027C2.82227 15.791 3.21289 16.1914 3.70117 16.1914ZM3.70117 19.2969C4.18945 19.2969 4.58984 18.9062 4.58984 18.418C4.58984 17.9199 4.18945 17.5293 3.70117 17.5293C3.21289 17.5293 2.82227 17.9199 2.82227 18.418C2.82227 18.9062 3.21289 19.2969 3.70117 19.2969Z" fill="white" fill-opacity="0.85"/>
 </g>
</svg>
