<svg version="1.1" xmlns="http://www.w3.org/2000/svg" xmlns:xlink="http://www.w3.org/1999/xlink" width="18.3398" height="17.998" viewBox="0 0 18.3398 17.998">
 <g>
  <rect height="17.998" opacity="0" width="18.3398" x="0" y="0"/>
  <path d="M3.06641 17.998L14.9121 17.998C16.9629 17.998 17.9785 16.9824 17.9785 14.9707L17.9785 3.04688C17.9785 1.03516 16.9629 0.0195312 14.9121 0.0195312L3.06641 0.0195312C1.02539 0.0195312 0 1.02539 0 3.04688L0 14.9707C0 16.9922 1.02539 17.998 3.06641 17.998ZM3.08594 16.4258C2.10938 16.4258 1.57227 15.9082 1.57227 14.8926L1.57227 3.125C1.57227 2.10938 2.10938 1.5918 3.08594 1.5918L14.8926 1.5918C15.8594 1.5918 16.4062 2.10938 16.4062 3.125L16.4062 14.8926C16.4062 15.9082 15.8594 16.4258 14.8926 16.4258Z" fill="var(--color-secondary)"/>
  <path d="M6.38672 14.0918L11.5918 14.0918C12.002 14.0918 12.3047 13.7891 12.3047 13.3789L12.3047 4.63867C12.3047 4.20898 12.002 3.91602 11.5918 3.91602L6.38672 3.91602C5.97656 3.91602 5.67383 4.20898 5.67383 4.63867L5.67383 13.3789C5.67383 13.7891 5.97656 14.0918 6.38672 14.0918ZM7.09961 8.10547C6.91406 8.10547 6.77734 7.95898 6.77734 7.76367L6.77734 5.35156C6.77734 5.14648 6.91406 5.01953 7.09961 5.01953L10.8789 5.01953C11.0742 5.01953 11.2012 5.14648 11.2012 5.35156L11.2012 7.76367C11.2012 7.95898 11.0742 8.10547 10.8789 8.10547Z" fill="var(--color-primary)"/>
 </g>
</svg>
