<?xml version="1.0" encoding="UTF-8"?>
<!--Generator: Apple Native CoreSVG 326-->
<!DOCTYPE svg
PUBLIC "-//W3C//DTD SVG 1.1//EN"
       "http://www.w3.org/Graphics/SVG/1.1/DTD/svg11.dtd">
<svg version="1.1" xmlns="http://www.w3.org/2000/svg" xmlns:xlink="http://www.w3.org/1999/xlink" viewBox="0 0 20.2832 19.9316">
 <g>
  <rect height="19.9316" opacity="0" width="20.2832" x="0" y="0"/>
  <path d="M19.9219 9.96094C19.9219 15.4492 15.459 19.9219 9.96094 19.9219C4.47266 19.9219 0 15.4492 0 9.96094C0 4.46289 4.47266 0 9.96094 0C15.459 0 19.9219 4.46289 19.9219 9.96094ZM8.63281 15.2344C8.68164 15.752 9.22852 16.0938 9.96094 16.0938C10.6934 16.0938 11.2305 15.752 11.2891 15.2344ZM8.41797 13.8965C8.19336 13.8965 8.00781 14.082 8.00781 14.3066C8.00781 14.5312 8.19336 14.7168 8.41797 14.7168L11.5039 14.7168C11.7285 14.7168 11.9238 14.5312 11.9238 14.3066C11.9238 14.082 11.7285 13.8965 11.5039 13.8965ZM6.42578 7.03125C6.42578 9.05273 7.76367 9.54102 7.97852 13.0469C7.99805 13.2422 8.11523 13.3691 8.30078 13.3691L11.6016 13.3691C11.8066 13.3691 11.9336 13.2422 11.9434 13.0469C12.1387 9.54102 13.4961 9.10156 13.4961 7.08008C13.4961 5.25391 11.9336 3.81836 9.95117 3.81836C7.97852 3.81836 6.42578 5.20508 6.42578 7.03125Z" fill="white" fill-opacity="0.85"/>
 </g>
</svg>
