<svg version="1.1" xmlns="http://www.w3.org/2000/svg" xmlns:xlink="http://www.w3.org/1999/xlink" width="23.3358" height="22.02" viewBox="0 0 23.3358 22.02">
 <g>
  <rect height="22.02" opacity="0" width="23.3358" x="0" y="0"/>
  <path d="M0.945242 7.78248C-0.0215545 8.33912-0.265695 9.20826 0.300711 10.1848L1.70696 12.6262C2.10735 13.3196 2.67376 13.5637 3.34759 13.5637L10.5058 13.5637L6.16985 16.0735C5.21282 16.6301 4.97845 17.4895 5.52532 18.4563L6.93157 20.9075C7.49798 21.884 8.35735 22.0989 9.32415 21.5422L22.039 14.218C22.996 13.6614 23.2402 12.7825 22.6835 11.8157L21.2675 9.37428C20.8866 8.71022 20.3398 8.43678 19.6757 8.43678L12.4589 8.43678L16.8046 5.92701C17.7714 5.37037 17.996 4.50123 17.4491 3.5442L16.0429 1.09303C15.4765 0.106702 14.6171-0.108141 13.6601 0.458265ZM1.6679 8.81764L14.1972 1.59108C14.5195 1.39576 14.8124 1.48366 15.0175 1.83522L16.3163 4.06178C16.5116 4.39381 16.4238 4.70631 16.082 4.90162L3.5722 12.1184C3.24016 12.3137 2.92766 12.2258 2.73235 11.884L1.45305 9.67701C1.25774 9.32545 1.3261 9.01295 1.6679 8.81764ZM5.78899 12.304L10.2812 9.69655L17.1659 9.69655L12.6835 12.304ZM6.89251 17.0989L19.4023 9.87233C19.7343 9.67701 20.0468 9.76491 20.2421 10.1067L21.5214 12.3235C21.7167 12.6751 21.6484 12.9876 21.3066 13.1829L8.78704 20.3997C8.45501 20.595 8.16204 20.5071 7.95696 20.1653L6.6679 17.929C6.46282 17.5969 6.55071 17.2942 6.89251 17.0989ZM15.2616 1.01491L15.8085 1.97194L17.4589 1.01491C17.7226 0.858656 17.8202 0.53639 17.6542 0.272718C17.5077 0.00904624 17.1757-0.0788444 16.912 0.0774056ZM16.58 3.30006L17.1366 4.25709L18.7675 3.30983C19.0702 3.14381 19.1484 2.86061 18.9628 2.55787C18.8163 2.27467 18.4941 2.19655 18.2206 2.3528ZM13.1034 4.41334C13.2988 4.78444 13.7577 4.90162 14.1191 4.70631C14.4902 4.49147 14.6074 4.03248 14.4023 3.66139C14.1874 3.30006 13.7382 3.18287 13.3769 3.37819C13.0058 3.61256 12.8984 4.05201 13.1034 4.41334ZM10.6718 5.81959C10.8671 6.18092 11.3163 6.30787 11.6777 6.11256C12.0585 5.89772 12.1952 5.42897 11.9609 5.08717C11.7656 4.70631 11.2968 4.59889 10.9355 4.80397C10.5644 5.01881 10.457 5.45826 10.6718 5.81959ZM8.22063 7.24537C8.43548 7.59694 8.90423 7.70436 9.25579 7.51881C9.60735 7.2942 9.7343 6.83522 9.52923 6.49342C9.31438 6.12233 8.84563 5.99537 8.5136 6.20045C8.14251 6.42506 8.00579 6.87428 8.22063 7.24537ZM5.77923 8.65162C5.99407 9.00319 6.45305 9.12037 6.82415 8.92506C7.18548 8.71022 7.31243 8.24147 7.07805 7.89967C6.90227 7.52858 6.43352 7.40162 6.06243 7.61647C5.7011 7.81178 5.57415 8.2903 5.77923 8.65162ZM3.34759 10.0579C3.55266 10.4192 4.00188 10.5266 4.39251 10.3313C4.7343 10.1165 4.85149 9.65748 4.65618 9.30592C4.44134 8.93483 3.99212 8.81764 3.63079 9.01295C3.24993 9.21803 3.14251 9.69655 3.34759 10.0579ZM7.71282 20.9856L7.16595 20.0188L5.51555 20.9856C5.25188 21.1419 5.15423 21.4544 5.32024 21.7278C5.46673 21.9817 5.79876 22.0696 6.06243 21.9231ZM6.40423 18.7005L5.83782 17.7434L4.20696 18.6809C3.90423 18.8567 3.8261 19.1399 4.01165 19.4426C4.15813 19.7161 4.4804 19.804 4.75384 19.6477ZM18.3183 12.6946C18.5331 13.0657 18.9824 13.1829 19.3437 12.9778C19.7245 12.7727 19.832 12.304 19.6269 11.9426C19.4218 11.5813 18.9726 11.4641 18.582 11.6692C18.2402 11.884 18.123 12.343 18.3183 12.6946ZM15.9062 14.1008C16.082 14.4719 16.5409 14.5989 16.9218 14.384C17.2734 14.1887 17.4003 13.7102 17.1952 13.3489C16.9804 12.9973 16.5214 12.8704 16.1601 13.0755C15.789 13.2903 15.662 13.759 15.9062 14.1008ZM13.4452 15.5071C13.6601 15.8782 14.1288 15.9954 14.4609 15.7903C14.832 15.5755 14.9687 15.1262 14.7538 14.7551C14.5488 14.4036 14.0702 14.2864 13.7187 14.4817C13.3671 14.7063 13.2402 15.1653 13.4452 15.5071ZM11.0136 16.9036C11.2089 17.2942 11.6874 17.4016 12.039 17.1965C12.4101 16.9817 12.5175 16.5422 12.3027 16.1809C12.1074 15.8098 11.6581 15.6926 11.2968 15.888C10.9257 16.1028 10.7792 16.5618 11.0136 16.9036ZM8.5722 18.3391C8.78704 18.6907 9.24602 18.8176 9.59759 18.6223C9.96868 18.388 10.0761 17.9387 9.87102 17.5774C9.67571 17.2161 9.21673 17.0989 8.8554 17.2942C8.49407 17.509 8.36712 17.968 8.5722 18.3391Z" fill="var(--color-primary)"/>
 </g>
</svg>
