<svg version="1.1" xmlns="http://www.w3.org/2000/svg" xmlns:xlink="http://www.w3.org/1999/xlink" viewBox="0 0 23.6426 20.3613">
 <g>
  <rect height="20.3613" opacity="0" width="23.6426" x="0" y="0"/>
  <path d="M2.24609 16.8945L21.0254 16.8945C22.4316 16.8945 23.2812 16.0449 23.2812 14.6387L23.2812 2.92969C23.2812 1.52344 22.4316 0.683594 21.0254 0.683594L2.24609 0.683594C0.849609 0.683594 0 1.52344 0 2.92969L0 14.6387C0 16.0449 0.849609 16.8945 2.24609 16.8945ZM1.99219 12.5879C1.69922 12.5879 1.57227 12.4805 1.57227 12.168L1.57227 2.95898C1.57227 2.51953 1.8457 2.25586 2.27539 2.25586L21.0059 2.25586C21.4355 2.25586 21.709 2.51953 21.709 2.95898L21.709 12.168C21.709 12.4805 21.5723 12.5879 21.2793 12.5879ZM8.55469 19.2188L14.7266 19.2188L14.7266 16.7676L8.55469 16.7676ZM8.49609 20.3613L14.7852 20.3613C15.2148 20.3613 15.5664 20.0098 15.5664 19.5703C15.5664 19.1309 15.2148 18.7793 14.7852 18.7793L8.49609 18.7793C8.06641 18.7793 7.70508 19.1309 7.70508 19.5703C7.70508 20.0098 8.06641 20.3613 8.49609 20.3613Z" fill="var(--color-primary)"/>
  <path d="M8.13477 10C8.13477 10.5566 8.4082 10.8301 8.93555 10.8301L12.2461 10.8301C12.7734 10.8301 13.0371 10.5566 13.0371 10L13.0371 7.46094C13.0371 6.9043 12.7734 6.62109 12.2461 6.62109L8.93555 6.62109C8.4082 6.62109 8.13477 6.9043 8.13477 7.46094ZM11.4941 7.19727L12.4609 7.19727L12.4609 5.80078C12.4609 5.07812 12.8418 4.61914 13.5059 4.61914C14.1699 4.61914 14.5605 5.07812 14.5605 5.80078L14.5605 6.49414C14.5605 6.75781 14.7754 6.98242 15.0488 6.98242C15.3027 6.98242 15.5273 6.75781 15.5273 6.49414L15.5273 5.80078C15.5273 4.57031 14.7363 3.67188 13.5059 3.67188C12.2852 3.67188 11.4941 4.57031 11.4941 5.88867Z" fill="var(--color-primary)"/>
 </g>
</svg>
