<?xml version="1.0" encoding="UTF-8"?>
<!--Generator: Apple Native CoreSVG 326-->
<!DOCTYPE svg
PUBLIC "-//W3C//DTD SVG 1.1//EN"
       "http://www.w3.org/Graphics/SVG/1.1/DTD/svg11.dtd">
<svg version="1.1" xmlns="http://www.w3.org/2000/svg" xmlns:xlink="http://www.w3.org/1999/xlink" viewBox="0 0 16.3379 19.7168">
 <g>
  <rect height="19.7168" opacity="0" width="16.3379" x="0" y="0"/>
  <path d="M8.79883 0.439453C9.93164 0.830078 13.584 2.1582 14.7266 2.62695C15.5469 2.96875 15.9766 3.29102 15.9766 4.29688L15.9766 11.6602C15.9766 15.166 14.1895 16.6211 8.63281 19.5312C8.38867 19.6582 8.14453 19.7168 7.98828 19.7168C7.83203 19.7168 7.59766 19.668 7.34375 19.5312C1.88477 16.4551 0 15.166 0 11.6602L0 4.29688C0 3.29102 0.439453 2.95898 1.25 2.62695C2.39258 2.16797 6.04492 0.810547 7.1875 0.439453C7.44141 0.361328 7.71484 0.302734 7.98828 0.302734C8.26172 0.302734 8.53516 0.351562 8.79883 0.439453ZM5.24414 7.34375L5.24414 8.52539C4.6582 8.56445 4.36523 8.91602 4.36523 9.62891L4.36523 13.6328C4.36523 14.3848 4.69727 14.7363 5.39062 14.7363L10.6055 14.7363C11.2988 14.7363 11.6309 14.3848 11.6309 13.6328L11.6309 9.62891C11.6309 8.91602 11.3379 8.56445 10.752 8.52539L10.752 7.34375C10.752 5.48828 9.63867 4.23828 7.99805 4.23828C6.35742 4.23828 5.24414 5.48828 5.24414 7.34375ZM9.69727 7.22656L9.69727 8.51562L6.29883 8.51562L6.29883 7.22656C6.29883 6.04492 6.98242 5.26367 7.99805 5.26367C9.01367 5.26367 9.69727 6.04492 9.69727 7.22656Z" fill="white" fill-opacity="0.85"/>
 </g>
</svg>
