<?xml version="1.0" encoding="UTF-8"?>
<!--Generator: Apple Native CoreSVG 326-->
<!DOCTYPE svg
PUBLIC "-//W3C//DTD SVG 1.1//EN"
       "http://www.w3.org/Graphics/SVG/1.1/DTD/svg11.dtd">
<svg version="1.1" xmlns="http://www.w3.org/2000/svg" xmlns:xlink="http://www.w3.org/1999/xlink" viewBox="0 0 18.3398 17.9785">
 <g>
  <rect height="17.9785" opacity="0" width="18.3398" x="0" y="0"/>
  <path d="M17.9785 3.02734L17.9785 14.9609C17.9785 16.9727 16.9629 17.9785 14.9121 17.9785L3.06641 17.9785C1.02539 17.9785 0 16.9727 0 14.9609L0 3.02734C0 1.01562 1.02539 0 3.06641 0L14.9121 0C16.9629 0 17.9785 1.01562 17.9785 3.02734ZM6.24023 6.67969L6.24023 7.86133C5.6543 7.90039 5.36133 8.25195 5.36133 8.96484L5.36133 12.9688C5.36133 13.7207 5.69336 14.0723 6.38672 14.0723L11.6016 14.0723C12.3047 14.0723 12.6367 13.7207 12.6367 12.9688L12.6367 8.96484C12.6367 8.25195 12.3438 7.90039 11.748 7.86133L11.748 6.67969C11.748 4.82422 10.6348 3.58398 8.99414 3.58398C7.35352 3.58398 6.24023 4.82422 6.24023 6.67969ZM10.6934 6.5625L10.6934 7.85156L7.29492 7.85156L7.29492 6.5625C7.29492 5.39062 7.97852 4.59961 8.99414 4.59961C10.0098 4.59961 10.6934 5.39062 10.6934 6.5625Z" fill="white" fill-opacity="0.85"/>
 </g>
</svg>
