<svg version="1.1" xmlns="http://www.w3.org/2000/svg" xmlns:xlink="http://www.w3.org/1999/xlink" viewBox="0 0 16.7871 20.9473">
 <g>
  <rect height="20.9473" opacity="0" width="16.7871" x="0" y="0"/>
  <path d="M7.50977 7.16797C7.50977 8.41797 8.10547 9.01367 9.35547 9.01367L16.4258 9.01367L16.4258 17.8809C16.4258 19.9121 15.4199 20.9375 13.3984 20.9375L3.02734 20.9375C1.00586 20.9375 0 19.9219 0 17.8809L0 3.06641C0 1.03516 1.01562 0 3.02734 0L7.50977 0ZM5.94727 12.7832L5.94727 13.75C5.46875 13.7793 5.22461 14.082 5.22461 14.6582L5.22461 17.9492C5.22461 18.5645 5.51758 18.8672 6.08398 18.8672L10.3613 18.8672C10.9473 18.8672 11.2207 18.5645 11.2207 17.9492L11.2207 14.6582C11.2207 14.082 10.9766 13.7793 10.498 13.75L10.498 12.7832C10.498 11.2598 9.57031 10.2344 8.22266 10.2344C6.875 10.2344 5.94727 11.2598 5.94727 12.7832ZM9.60938 12.6953L9.60938 13.7402L6.83594 13.7402L6.83594 12.6953C6.83594 11.7285 7.39258 11.084 8.22266 11.084C9.05273 11.084 9.60938 11.7285 9.60938 12.6953ZM10.1172 0.927734L15.498 6.40625C15.9668 6.88477 16.25 7.27539 16.3086 7.67578L9.38477 7.67578C9.02344 7.67578 8.84766 7.5 8.84766 7.14844L8.84766 0.107422C9.25781 0.175781 9.6582 0.458984 10.1172 0.927734Z" fill="var(--color-primary)"/>
 </g>
</svg>
