<?xml version="1.0" encoding="UTF-8"?>
<!--Generator: Apple Native CoreSVG 326-->
<!DOCTYPE svg
PUBLIC "-//W3C//DTD SVG 1.1//EN"
       "http://www.w3.org/Graphics/SVG/1.1/DTD/svg11.dtd">
<svg version="1.1" xmlns="http://www.w3.org/2000/svg" xmlns:xlink="http://www.w3.org/1999/xlink" viewBox="0 0 23.6426 20.3613">
 <g>
  <rect height="20.3613" opacity="0" width="23.6426" x="0" y="0"/>
  <path d="M2.24609 16.8945L21.0254 16.8945C22.4316 16.8945 23.2812 16.0449 23.2812 14.6387L23.2812 2.92969C23.2812 1.52344 22.4316 0.683594 21.0254 0.683594L2.24609 0.683594C0.849609 0.683594 0 1.52344 0 2.92969L0 14.6387C0 16.0449 0.849609 16.8945 2.24609 16.8945ZM1.99219 12.5879C1.69922 12.5879 1.57227 12.4805 1.57227 12.168L1.57227 2.95898C1.57227 2.51953 1.8457 2.25586 2.27539 2.25586L21.0059 2.25586C21.4355 2.25586 21.709 2.51953 21.709 2.95898L21.709 12.168C21.709 12.4805 21.5723 12.5879 21.2793 12.5879ZM8.55469 19.2188L14.7266 19.2188L14.7266 16.7676L8.55469 16.7676ZM8.49609 20.3613L14.7852 20.3613C15.2148 20.3613 15.5664 20.0098 15.5664 19.5703C15.5664 19.1309 15.2148 18.7793 14.7852 18.7793L8.49609 18.7793C8.06641 18.7793 7.70508 19.1309 7.70508 19.5703C7.70508 20.0098 8.06641 20.3613 8.49609 20.3613Z" fill="white" fill-opacity="0.85"/>
  <path d="M9.98047 10.8398L13.3008 10.8398C13.8379 10.8398 14.1211 10.5566 14.1211 9.98047L14.1211 7.39258C14.1211 6.94336 13.9355 6.67969 13.5938 6.57227L13.5938 5.9668C13.5938 4.66797 12.8125 3.7793 11.6406 3.7793C10.4785 3.7793 9.6875 4.66797 9.6875 5.9668L9.6875 6.58203C9.35547 6.67969 9.16992 6.94336 9.16992 7.39258L9.16992 9.98047C9.16992 10.5566 9.44336 10.8398 9.98047 10.8398ZM10.6543 6.5332L10.6543 5.87891C10.6543 5.17578 11.0449 4.7168 11.6406 4.7168C12.2363 4.7168 12.627 5.17578 12.627 5.87891L12.627 6.5332Z" fill="white" fill-opacity="0.85"/>
 </g>
</svg>
