<svg version="1.1" xmlns="http://www.w3.org/2000/svg" xmlns:xlink="http://www.w3.org/1999/xlink" viewBox="0 0 23.9648 24.7363">
 <g>
  <rect height="24.7363" opacity="0" width="23.9648" x="0" y="0"/>
  <path d="M17.9647 2.79297L5.63882 2.79297C5.6789 1.99929 6.17978 1.54297 7.01172 1.54297L16.5918 1.54297C17.4237 1.54297 17.9246 1.99929 17.9647 2.79297Z" fill="var(--color-primary)"/>
  <path d="M19.9623 5.5825C19.6482 5.53257 19.3151 5.50781 18.9648 5.50781L4.63867 5.50781C4.2885 5.50781 3.95544 5.53256 3.64145 5.58247C3.74778 4.64426 4.38263 4.12109 5.41992 4.12109L18.1934 4.12109C19.2307 4.12109 19.8575 4.64428 19.9623 5.5825Z" fill="var(--color-primary)"/>
  <path d="M22.0312 10.1074L22.0312 20.1367C22.0312 22.1484 21.0059 23.1641 18.9648 23.1641L4.63867 23.1641C2.59766 23.1641 1.57227 22.1484 1.57227 20.1367L1.57227 10.1074C1.57227 8.0957 2.59766 7.08008 4.63867 7.08008L18.9648 7.08008C21.0059 7.08008 22.0312 8.0957 22.0312 10.1074ZM8.85742 12.8223L8.85742 14.0039C8.27148 14.043 7.97852 14.3945 7.97852 15.1074L7.97852 19.1113C7.97852 19.8633 8.31055 20.2148 9.00391 20.2148L14.2188 20.2148C14.9121 20.2148 15.2441 19.8633 15.2441 19.1113L15.2441 15.1074C15.2441 14.3945 14.9512 14.043 14.3652 14.0039L14.3652 12.8223C14.3652 10.9668 13.252 9.7168 11.6113 9.7168C9.9707 9.7168 8.85742 10.9668 8.85742 12.8223ZM13.3105 12.7051L13.3105 13.9941L9.91211 13.9941L9.91211 12.7051C9.91211 11.5234 10.5957 10.7324 11.6113 10.7324C12.627 10.7324 13.3105 11.5234 13.3105 12.7051Z" fill="var(--color-primary)"/>
 </g>
</svg>
