<?xml version="1.0" encoding="UTF-8"?>
<!--Generator: Apple Native CoreSVG 326-->
<!DOCTYPE svg
PUBLIC "-//W3C//DTD SVG 1.1//EN"
       "http://www.w3.org/Graphics/SVG/1.1/DTD/svg11.dtd">
<svg version="1.1" xmlns="http://www.w3.org/2000/svg" xmlns:xlink="http://www.w3.org/1999/xlink" viewBox="0 0 24.2773 13.0762">
 <g>
  <rect height="13.0762" opacity="0" width="24.2773" x="0" y="0"/>
  <path d="M3.06641 12.9688L20.8496 12.9688C22.8906 12.9688 23.916 11.9531 23.916 9.94141L23.916 3.02734C23.916 1.01562 22.8906 0 20.8496 0L3.06641 0C1.01562 0 0 1.00586 0 3.02734L0 9.94141C0 11.9629 1.01562 12.9688 3.06641 12.9688ZM3.50586 9.99023C3.125 9.98047 2.8418 9.69727 2.8418 9.31641L2.8418 7.71484C2.8418 7.33398 3.13477 7.04102 3.50586 7.05078C3.86719 7.04102 4.16992 7.33398 4.16992 7.71484L4.16992 9.32617C4.16992 9.6875 3.87695 9.98047 3.50586 9.99023ZM5.94727 9.99023C5.56641 9.98047 5.27344 9.69727 5.27344 9.31641L5.27344 7.71484C5.27344 7.33398 5.57617 7.04102 5.94727 7.05078C6.30859 7.04102 6.60156 7.33398 6.60156 7.71484L6.60156 9.32617C6.60156 9.6875 6.31836 9.98047 5.94727 9.99023ZM8.54492 9.17969C8.18359 9.17969 7.88086 8.87695 7.88086 8.51562C7.88086 8.1543 8.18359 7.86133 8.54492 7.86133L12.627 7.86133C12.9883 7.86133 13.291 8.1543 13.291 8.51562C13.291 8.87695 12.9883 9.17969 12.627 9.17969ZM20.0195 9.70703C19.375 9.7168 18.8281 9.16016 18.8281 8.52539C18.8281 7.88086 19.375 7.33398 20.0195 7.33398C20.6445 7.33398 21.1816 7.88086 21.1816 8.52539C21.1816 9.16016 20.6445 9.69727 20.0195 9.70703Z" fill="white" fill-opacity="0.85"/>
 </g>
</svg>
