<?xml version="1.0" encoding="UTF-8"?>
<!--Generator: Apple Native CoreSVG 326-->
<!DOCTYPE svg
PUBLIC "-//W3C//DTD SVG 1.1//EN"
       "http://www.w3.org/Graphics/SVG/1.1/DTD/svg11.dtd">
<svg version="1.1" xmlns="http://www.w3.org/2000/svg" xmlns:xlink="http://www.w3.org/1999/xlink" viewBox="0 0 20.2832 19.9316">
 <g>
  <rect height="19.9316" opacity="0" width="20.2832" x="0" y="0"/>
  <path d="M19.9219 9.96094C19.9219 15.4492 15.459 19.9219 9.96094 19.9219C4.47266 19.9219 0 15.4492 0 9.96094C0 4.46289 4.47266 0 9.96094 0C15.459 0 19.9219 4.46289 19.9219 9.96094ZM4.6875 8.80859C4.6875 11.1035 6.57227 12.998 8.87695 12.998C9.6875 12.998 10.4492 12.7441 11.0938 12.3438L13.6719 14.9121C13.877 15.127 14.0918 15.2246 14.3848 15.2246C14.873 15.2246 15.2051 14.8633 15.2051 14.3555C15.2051 14.1309 15.0977 13.916 14.9316 13.7402L12.3438 11.1328C12.793 10.4785 13.0664 9.66797 13.0664 8.80859C13.0664 6.49414 11.1816 4.60938 8.87695 4.60938C6.57227 4.60938 4.6875 6.50391 4.6875 8.80859ZM11.6797 8.80859C11.6797 10.3418 10.4102 11.6211 8.87695 11.6211C7.33398 11.6211 6.06445 10.3418 6.06445 8.80859C6.06445 7.26562 7.33398 5.98633 8.87695 5.98633C10.4102 5.98633 11.6797 7.25586 11.6797 8.80859Z" fill="white" fill-opacity="0.85"/>
 </g>
</svg>
