<svg version="1.1" xmlns="http://www.w3.org/2000/svg" xmlns:xlink="http://www.w3.org/1999/xlink" viewBox="0 0 13.6621 18.4473">
 <g>
  <rect height="18.4473" opacity="0" width="13.6621" x="0" y="0"/>
  <path d="M0.976562 18.4277C1.54297 18.4277 1.94336 18.0762 1.94336 17.4121L1.94336 11.2891C1.94336 7.80273 3.19336 4.7168 6.65039 4.7168C10.0879 4.7168 11.3672 7.71484 11.3672 11.2891L11.3672 17.4121C11.3672 18.0273 11.7578 18.4277 12.3438 18.4277C12.8809 18.4277 13.3008 18.0859 13.3008 17.4121L13.3008 11.1523C13.3008 6.46484 11.2305 2.94922 6.65039 2.94922C2.14844 2.94922 0 6.45508 0 11.1523L0 17.4121C0 18.0273 0.380859 18.4277 0.976562 18.4277ZM6.62109 18.4277C7.02148 18.4277 7.36328 18.125 7.36328 17.6758L7.36328 0.732422C7.36328 0.253906 7.03125 0 6.62109 0C6.21094 0 5.83984 0.214844 5.83984 0.732422L5.83984 17.6758C5.83984 18.1152 6.17188 18.4277 6.62109 18.4277Z" fill="var(--color-primary)"/>
 </g>
</svg>
