<svg version="1.1" xmlns="http://www.w3.org/2000/svg" xmlns:xlink="http://www.w3.org/1999/xlink" viewBox="0 0 18.3398 17.9785">
 <g>
  <rect height="17.9785" opacity="0" width="18.3398" x="0" y="0"/>
  <path d="M17.9785 3.02734L17.9785 14.9609C17.9785 16.9727 16.9629 17.9785 14.9121 17.9785L3.06641 17.9785C1.02539 17.9785 0 16.9727 0 14.9609L0 3.02734C0 1.01562 1.02539 0 3.06641 0L14.9121 0C16.9629 0 17.9785 1.01562 17.9785 3.02734ZM6.68945 5.21484C6.68945 6.24023 7.37305 7.09961 8.29102 7.39258L8.29102 12.4414C8.29102 13.916 8.53516 15.2344 8.99414 15.2344C9.46289 15.2344 9.6875 13.9355 9.6875 12.4414L9.6875 7.39258C10.625 7.10938 11.2988 6.25 11.2988 5.21484C11.2988 3.94531 10.2637 2.91992 8.99414 2.91992C7.73438 2.91992 6.68945 3.94531 6.68945 5.21484ZM9.13086 4.61914C9.13086 5.01953 8.79883 5.36133 8.39844 5.36133C8.01758 5.36133 7.67578 5.01953 7.67578 4.61914C7.66602 4.22852 8.01758 3.88672 8.39844 3.88672C8.79883 3.88672 9.14062 4.22852 9.13086 4.61914Z" fill="var(--color-primary)"/>
 </g>
</svg>
