<?xml version="1.0" encoding="UTF-8"?>
<!--Generator: Apple Native CoreSVG 326-->
<!DOCTYPE svg
PUBLIC "-//W3C//DTD SVG 1.1//EN"
       "http://www.w3.org/Graphics/SVG/1.1/DTD/svg11.dtd">
<svg version="1.1" xmlns="http://www.w3.org/2000/svg" xmlns:xlink="http://www.w3.org/1999/xlink" viewBox="0 0 26.2793 10.0684">
 <g>
  <rect height="10.0684" opacity="0" width="26.2793" x="0" y="0"/>
  <path d="M3.28125 10.0293L17.2949 10.0293C19.7852 10.0293 20.5762 8.82812 20.5762 5.01953C20.5762 1.20117 19.7949 0 17.2949 0L3.28125 0C0.78125 0 0 1.20117 0 5.01953C0 8.82812 0.78125 10.0293 3.28125 10.0293ZM3.28125 4.31641C2.71484 4.31641 2.26562 3.86719 2.26562 3.30078C2.26562 2.74414 2.71484 2.30469 3.28125 2.30469C3.83789 2.30469 4.27734 2.74414 4.27734 3.30078C4.27734 3.86719 3.83789 4.31641 3.28125 4.31641Z" fill="white" fill-opacity="0.85"/>
  <path d="M21.6797 7.77344L24.0527 7.77344C25.1758 7.77344 25.918 7.05078 25.918 6.00586L25.918 4.01367C25.918 2.97852 25.1758 2.24609 24.0527 2.24609L21.6797 2.24609C21.8359 3.01758 21.9043 3.93555 21.9043 5.01953C21.9043 6.08398 21.8262 7.00195 21.6797 7.77344Z" fill="white" fill-opacity="0.425"/>
 </g>
</svg>
