<?xml version="1.0" encoding="UTF-8"?>
<!--Generator: Apple Native CoreSVG 326-->
<!DOCTYPE svg
PUBLIC "-//W3C//DTD SVG 1.1//EN"
       "http://www.w3.org/Graphics/SVG/1.1/DTD/svg11.dtd">
<svg version="1.1" xmlns="http://www.w3.org/2000/svg" xmlns:xlink="http://www.w3.org/1999/xlink" viewBox="0 0 23.3887 17.9785">
 <g>
  <rect height="17.9785" opacity="0" width="23.3887" x="0" y="0"/>
  <path d="M1.04492 3.29102L1.04492 4.66797L21.9824 4.66797L21.9824 3.29102ZM3.06641 17.9785L19.9609 17.9785C22.0117 17.9785 23.0273 16.9727 23.0273 14.9609L23.0273 3.02734C23.0273 1.01562 22.0117 0 19.9609 0L3.06641 0C1.02539 0 0 1.01562 0 3.02734L0 14.9609C0 16.9727 1.02539 17.9785 3.06641 17.9785ZM3.08594 16.4062C2.10938 16.4062 1.57227 15.8887 1.57227 14.873L1.57227 3.11523C1.57227 2.09961 2.10938 1.57227 3.08594 1.57227L19.9414 1.57227C20.9082 1.57227 21.4551 2.09961 21.4551 3.11523L21.4551 14.873C21.4551 15.8887 20.9082 16.4062 19.9414 16.4062Z" fill="white" fill-opacity="0.85"/>
  <path d="M11.5234 6.55273C11.1035 6.55273 10.7422 6.89453 10.7422 7.30469L10.7422 10.5273L10.8105 12.168L9.9707 11.2891L8.70117 10.0195C8.54492 9.87305 8.34961 9.78516 8.1543 9.78516C7.74414 9.78516 7.45117 10.0684 7.45117 10.4785C7.45117 10.7031 7.53906 10.8691 7.70508 11.0254L10.957 14.0527C11.1621 14.2383 11.3184 14.3164 11.5234 14.3164C11.7188 14.3164 11.8848 14.2383 12.0898 14.0527L15.332 11.0254C15.5078 10.8691 15.5957 10.7031 15.5957 10.4785C15.5957 10.0684 15.293 9.78516 14.873 9.78516C14.6777 9.78516 14.4922 9.87305 14.3457 10.0195L13.0762 11.2891L12.2363 12.168L12.2949 10.5273L12.2949 7.30469C12.2949 6.89453 11.9434 6.55273 11.5234 6.55273Z" fill="white" fill-opacity="0.85"/>
 </g>
</svg>
