<svg version="1.1" xmlns="http://www.w3.org/2000/svg" xmlns:xlink="http://www.w3.org/1999/xlink" viewBox="0 0 23.8867 19.5996">
 <g>
  <rect height="19.5996" opacity="0" width="23.8867" x="0" y="0"/>
  <path d="M23.5254 11.7578C23.5254 8.88672 22.4902 6.24023 20.7617 4.18945C20.5664 3.95508 20.2344 3.95508 20.0195 4.17969L17.7539 6.44531C17.5684 6.63086 17.5586 6.89453 17.7246 7.09961C18.7305 8.38867 19.3359 10.0098 19.3359 11.7578C19.3359 13.5156 18.7305 15.1367 17.666 16.4941C17.5293 16.6602 17.5391 16.875 17.6855 17.0312L20.0098 19.3555C20.2344 19.5801 20.5566 19.5801 20.7617 19.3359C22.4902 17.2852 23.5254 14.6387 23.5254 11.7578Z" fill="var(--color-primary)"/>
  <path d="M11.7578 4.18945C13.5254 4.18945 15.1465 4.80469 16.4453 5.81055C16.6406 5.9668 16.8945 5.94727 17.0801 5.76172L19.3457 3.49609C19.5703 3.27148 19.5605 2.94922 19.3262 2.75391C17.2852 1.03516 14.6387 0 11.7578 0C8.88672 0 6.24023 1.03516 4.19922 2.75391C3.96484 2.94922 3.95508 3.27148 4.17969 3.49609L6.44531 5.76172C6.63086 5.94727 6.89453 5.9668 7.10938 5.80078C8.39844 4.80469 10.0098 4.18945 11.7578 4.18945Z" fill="var(--color-primary)"/>
  <path d="M0 11.7578C0 14.6387 1.03516 17.2852 2.76367 19.3359C2.95898 19.5801 3.29102 19.5801 3.50586 19.3555L5.83008 17.0312C5.97656 16.875 5.99609 16.6602 5.85938 16.4941C4.79492 15.1367 4.18945 13.5156 4.18945 11.7578C4.18945 10.0098 4.78516 8.38867 5.80078 7.09961C5.95703 6.89453 5.95703 6.63086 5.77148 6.44531L3.50586 4.17969C3.28125 3.95508 2.95898 3.95508 2.76367 4.18945C1.03516 6.24023 0 8.88672 0 11.7578Z" fill="var(--color-primary)"/>
  <path d="M8.68164 15.0684C9.01367 15.0684 9.18945 14.8438 9.18945 14.5508L9.18945 11.0059C9.18945 10.2637 9.54102 9.54102 10.3027 9.54102C10.9863 9.54102 11.2695 10.0586 11.2695 10.7324L11.2695 14.5508C11.2695 14.8535 11.4746 15.0684 11.7676 15.0684C12.0703 15.0684 12.2754 14.8535 12.2754 14.5508L12.2754 10.9277C12.2754 10.2246 12.627 9.54102 13.3691 9.54102C14.1016 9.54102 14.3555 10.0879 14.3555 10.8203L14.3555 14.5508C14.3555 14.8535 14.5605 15.0684 14.873 15.0684C15.1758 15.0684 15.3809 14.8535 15.3809 14.5508L15.3809 10.5664C15.3809 9.48242 14.8535 8.60352 13.6719 8.60352C12.8516 8.60352 12.2461 9.10156 12.0801 9.80469L12.0508 9.80469C11.875 9.0332 11.3867 8.60352 10.5859 8.60352C9.83398 8.60352 9.3457 9.0918 9.17969 9.77539L9.14062 9.77539L9.14062 9.13086C9.14062 8.81836 8.95508 8.62305 8.65234 8.62305C8.34961 8.62305 8.16406 8.81836 8.16406 9.13086L8.16406 14.5508C8.16406 14.8438 8.33984 15.0684 8.68164 15.0684ZM8.95508 17.5293C9.13086 17.5293 9.19922 17.4512 9.27734 17.2754L13.8867 6.73828C13.916 6.66992 13.9355 6.60156 13.9355 6.54297C13.9355 6.36719 13.7988 6.24023 13.623 6.24023C13.457 6.24023 13.3594 6.35742 13.291 6.50391L8.69141 17.041C8.65234 17.1094 8.64258 17.168 8.64258 17.2363C8.64258 17.4121 8.7793 17.5293 8.95508 17.5293Z" fill="var(--color-primary)"/>
 </g>
</svg>
