<?xml version="1.0" encoding="UTF-8"?>
<!--Generator: Apple Native CoreSVG 326-->
<!DOCTYPE svg
PUBLIC "-//W3C//DTD SVG 1.1//EN"
       "http://www.w3.org/Graphics/SVG/1.1/DTD/svg11.dtd">
<svg version="1.1" xmlns="http://www.w3.org/2000/svg" xmlns:xlink="http://www.w3.org/1999/xlink" viewBox="0 0 14.6094 22.666">
 <g>
  <rect height="22.666" opacity="0" width="14.6094" x="0" y="0"/>
  <path d="M0.908203 17.6074C1.47461 17.6074 1.81641 17.2266 1.81641 16.6992L1.81641 9.52148C1.81641 7.97852 2.56836 6.39648 4.16016 6.39648C5.625 6.39648 6.21094 7.5293 6.21094 8.90625L6.21094 16.6992C6.21094 17.1582 6.47461 17.6074 7.10938 17.6074C7.71484 17.6074 8.01758 17.1973 8.01758 16.6992L8.01758 9.33594C8.01758 7.80273 8.7793 6.39648 10.3418 6.39648C11.9238 6.39648 12.4219 7.58789 12.4219 9.08203L12.4219 16.6992C12.4219 17.1387 12.666 17.6074 13.3301 17.6074C13.8965 17.6074 14.248 17.2266 14.248 16.6992L14.248 8.67188C14.248 6.45508 13.1055 4.79492 10.8203 4.79492C9.21875 4.79492 7.97852 5.73242 7.62695 7.23633L7.55859 7.23633C7.24609 5.76172 6.31836 4.79492 4.61914 4.79492C3.02734 4.79492 2.08008 5.85938 1.77734 7.1582L1.71875 7.1582L1.71875 5.74219C1.71875 5.21484 1.37695 4.84375 0.859375 4.84375C0.332031 4.84375 0 5.21484 0 5.74219L0 16.6992C0 17.1973 0.302734 17.6074 0.908203 17.6074ZM1.50391 22.6367C1.86523 22.6367 2.01172 22.4512 2.14844 22.1289L11.1914 0.966797C11.25 0.839844 11.2793 0.693359 11.2793 0.566406C11.2793 0.214844 11.0156 0 10.6641 0C10.332 0 10.1562 0.214844 10.0293 0.488281L0.976562 21.6895C0.917969 21.8359 0.898438 21.9727 0.898438 22.0605C0.898438 22.4414 1.17188 22.6367 1.50391 22.6367Z" fill="white" fill-opacity="0.85"/>
 </g>
</svg>
