<?xml version="1.0" encoding="UTF-8"?>
<!--Generator: Apple Native CoreSVG 326-->
<!DOCTYPE svg
PUBLIC "-//W3C//DTD SVG 1.1//EN"
       "http://www.w3.org/Graphics/SVG/1.1/DTD/svg11.dtd">
<svg version="1.1" xmlns="http://www.w3.org/2000/svg" xmlns:xlink="http://www.w3.org/1999/xlink" viewBox="0 0 20.2832 19.9316">
 <g>
  <rect height="19.9316" opacity="0" width="20.2832" x="0" y="0"/>
  <path d="M9.96094 19.9219C15.459 19.9219 19.9219 15.459 19.9219 9.96094C19.9219 4.46289 15.459 0 9.96094 0C4.46289 0 0 4.46289 0 9.96094C0 15.459 4.46289 19.9219 9.96094 19.9219ZM9.96094 18.2617C5.37109 18.2617 1.66016 14.5508 1.66016 9.96094C1.66016 5.37109 5.37109 1.66016 9.96094 1.66016C14.5508 1.66016 18.2617 5.37109 18.2617 9.96094C18.2617 14.5508 14.5508 18.2617 9.96094 18.2617Z" fill="white" fill-opacity="0.85"/>
  <path d="M10.0391 15.6543C12.3926 15.6543 14.2773 14.1895 15.0488 12.4414C15.0977 12.3145 15.1074 12.1973 15.1074 12.1484C15.1074 11.9434 14.9414 11.8066 14.7852 11.8066C14.707 11.8066 14.6191 11.8359 14.4824 11.875C14.0527 11.9922 13.4473 12.1289 12.8027 12.1289C9.94141 12.1289 8.125 10.332 8.125 7.55859C8.125 6.875 8.28125 6.17188 8.53516 5.51758C8.57422 5.43945 8.59375 5.36133 8.59375 5.29297C8.59375 5.09766 8.44727 4.9707 8.25195 4.9707C8.1543 4.9707 8.04688 4.99023 7.96875 5.0293C5.9375 5.86914 4.52148 7.85156 4.52148 10.1465C4.52148 13.1836 6.99219 15.6543 10.0391 15.6543Z" fill="white" fill-opacity="0.85"/>
 </g>
</svg>
