<?xml version="1.0" encoding="UTF-8"?>
<!--Generator: Apple Native CoreSVG 326-->
<!DOCTYPE svg
PUBLIC "-//W3C//DTD SVG 1.1//EN"
       "http://www.w3.org/Graphics/SVG/1.1/DTD/svg11.dtd">
<svg version="1.1" xmlns="http://www.w3.org/2000/svg" xmlns:xlink="http://www.w3.org/1999/xlink" viewBox="0 0 20.2832 19.9316">
 <g>
  <rect height="19.9316" opacity="0" width="20.2832" x="0" y="0"/>
  <path d="M9.96094 19.9219C15.459 19.9219 19.9219 15.459 19.9219 9.96094C19.9219 4.46289 15.459 0 9.96094 0C4.46289 0 0 4.46289 0 9.96094C0 15.459 4.46289 19.9219 9.96094 19.9219ZM9.96094 18.2617C5.37109 18.2617 1.66016 14.5508 1.66016 9.96094C1.66016 5.37109 5.37109 1.66016 9.96094 1.66016C14.5508 1.66016 18.2617 5.37109 18.2617 9.96094C18.2617 14.5508 14.5508 18.2617 9.96094 18.2617Z" fill="white" fill-opacity="0.85"/>
  <path d="M4.80469 9.52148L4.80469 13.623C4.80469 13.9746 5.04883 14.1797 5.37109 14.1797C5.69336 14.1699 5.94727 13.9648 5.94727 13.623L5.94727 8.65234L5.72266 8.65234C5.16602 8.65234 4.80469 8.97461 4.80469 9.52148ZM6.35742 14.8926L13.6426 14.8926C14.6094 14.8926 15.0879 14.4238 15.0879 13.4766L15.0879 6.45508C15.0879 5.49805 14.6094 5.03906 13.6426 5.03906L8.28125 5.03906C7.31445 5.03906 6.83594 5.49805 6.83594 6.45508L6.83594 13.9355C6.83594 14.4238 6.71875 14.6973 6.35742 14.8926ZM8.71094 7.79297C8.52539 7.79297 8.38867 7.66602 8.38867 7.48047C8.38867 7.31445 8.51562 7.1875 8.71094 7.1875L13.2227 7.1875C13.3984 7.1875 13.5254 7.31445 13.5254 7.48047C13.5254 7.66602 13.3984 7.79297 13.2227 7.79297ZM8.71094 9.41406C8.52539 9.41406 8.38867 9.28711 8.38867 9.11133C8.38867 8.93555 8.51562 8.80859 8.71094 8.80859L13.2227 8.80859C13.3984 8.80859 13.5254 8.93555 13.5254 9.11133C13.5254 9.28711 13.3984 9.41406 13.2227 9.41406ZM11.5625 11.0645C11.377 11.0645 11.25 10.9375 11.25 10.7715C11.25 10.5957 11.377 10.4492 11.5625 10.4492L13.2227 10.4492C13.3984 10.4492 13.5254 10.5957 13.5254 10.7715C13.5254 10.9375 13.3984 11.0645 13.2227 11.0645ZM11.5625 12.6953C11.377 12.6953 11.25 12.5684 11.25 12.3926C11.25 12.2168 11.377 12.0898 11.5625 12.0898L13.2227 12.0898C13.3984 12.0898 13.5254 12.2168 13.5254 12.3926C13.5254 12.5684 13.3984 12.6953 13.2227 12.6953ZM8.92578 12.6953C8.58398 12.6953 8.38867 12.5 8.38867 12.1582L8.38867 10.9961C8.38867 10.6641 8.58398 10.4492 8.92578 10.4492L10.0781 10.4492C10.4199 10.4492 10.625 10.6641 10.625 10.9961L10.625 12.1582C10.625 12.5 10.4199 12.6953 10.0781 12.6953Z" fill="white" fill-opacity="0.85"/>
 </g>
</svg>
