<?xml version="1.0" encoding="UTF-8"?>
<!--Generator: Apple Native CoreSVG 326-->
<!DOCTYPE svg
PUBLIC "-//W3C//DTD SVG 1.1//EN"
       "http://www.w3.org/Graphics/SVG/1.1/DTD/svg11.dtd">
<svg version="1.1" xmlns="http://www.w3.org/2000/svg" xmlns:xlink="http://www.w3.org/1999/xlink" viewBox="0 0 18.3398 17.9785">
 <g>
  <rect height="17.9785" opacity="0" width="18.3398" x="0" y="0"/>
  <path d="M17.9785 3.02734L17.9785 14.9609C17.9785 16.9727 16.9629 17.9785 14.9121 17.9785L3.06641 17.9785C1.02539 17.9785 0 16.9727 0 14.9609L0 3.02734C0 1.01562 1.02539 0 3.06641 0L14.9121 0C16.9629 0 17.9785 1.01562 17.9785 3.02734ZM5.07812 5.00977L5.07812 12.5293C5.07812 12.8809 5.3125 13.1152 5.64453 13.1152C5.9668 13.1152 6.19141 12.8809 6.19141 12.5293L6.19141 10.8398L6.78711 10.2637L8.62305 12.832C8.75 13.0078 8.90625 13.1152 9.12109 13.1152C9.41406 13.1152 9.6582 12.9102 9.6582 12.627C9.6582 12.4805 9.58984 12.3535 9.49219 12.2266L7.58789 9.57031L9.36523 7.68555C9.49219 7.54883 9.57031 7.46094 9.57031 7.28516C9.57031 7.03125 9.35547 6.80664 9.07227 6.80664C8.91602 6.80664 8.74023 6.89453 8.63281 7.02148L6.2207 9.64844L6.19141 9.64844L6.19141 5.01953C6.19141 4.66797 5.9668 4.42383 5.64453 4.42383C5.3125 4.42383 5.07812 4.6582 5.07812 5.00977ZM11.8652 8.01758L11.8066 8.01758L11.8066 7.36328C11.8066 7.05078 11.582 6.80664 11.2988 6.80664C11.0059 6.80664 10.7812 7.05078 10.7812 7.36328L10.7812 12.5293C10.7812 12.8906 10.9766 13.1152 11.3184 13.1152C11.5723 13.1152 11.8555 12.9688 11.8555 12.5293L11.8555 9.375C11.8555 8.66211 12.1289 7.87109 12.9883 7.87109C13.2031 7.87109 13.3984 7.85156 13.5449 7.75391C13.6816 7.68555 13.7598 7.54883 13.7598 7.37305C13.7598 7.01172 13.4766 6.80664 13.1055 6.80664C12.4609 6.80664 12.0117 7.36328 11.8652 8.01758Z" fill="white" fill-opacity="0.85"/>
 </g>
</svg>
