<svg version="1.1" xmlns="http://www.w3.org/2000/svg" xmlns:xlink="http://www.w3.org/1999/xlink" width="18.9551" height="14.2871" viewBox="0 0 18.9551 14.2871">
 <g>
  <rect height="14.2871" opacity="0" width="18.9551" x="0" y="0"/>
  <path d="M15.1953 6.81641C17.1973 6.81641 18.5938 5.44922 18.5938 3.47656C18.5938 1.51367 17.1973 0.136719 15.1953 0.136719C13.252 0.136719 11.9043 1.51367 11.9043 3.47656C11.9043 5.44922 13.2617 6.81641 15.1953 6.81641ZM15.1953 5.51758C14.1602 5.51758 13.4375 4.67773 13.4375 3.47656C13.4375 2.27539 14.1602 1.44531 15.1953 1.44531C16.2988 1.44531 17.0508 2.27539 17.0508 3.47656C17.0508 4.67773 16.2891 5.51758 15.1953 5.51758ZM0.830078 14.2871C1.35742 14.2871 1.66992 13.9551 1.66992 13.4277L1.66992 3.22266L1.63086 3.22266L8.66211 13.6328C9.00391 14.1211 9.26758 14.2871 9.69727 14.2871C10.2637 14.2871 10.5957 13.9355 10.5957 13.3301L10.5957 1.06445C10.5957 0.527344 10.2832 0.185547 9.75586 0.185547C9.24805 0.185547 8.92578 0.527344 8.92578 1.06445L8.92578 11.2598L8.96484 11.2598L1.93359 0.839844C1.5918 0.341797 1.34766 0.185547 0.898438 0.185547C0.351562 0.185547 0 0.566406 0 1.14258L0 13.4277C0 13.9551 0.332031 14.2871 0.830078 14.2871ZM12.8613 9.25781L17.6465 9.25781C18.1152 9.25781 18.4766 8.96484 18.4766 8.48633C18.4766 8.00781 18.1152 7.69531 17.6465 7.69531L12.8613 7.69531C12.3926 7.69531 12.0508 8.00781 12.0508 8.48633C12.0508 8.96484 12.3926 9.25781 12.8613 9.25781Z" fill="var(--color-primary)"/>
 </g>
</svg>
