<svg version="1.1" xmlns="http://www.w3.org/2000/svg" xmlns:xlink="http://www.w3.org/1999/xlink" width="23.3887" height="17.5488" viewBox="0 0 23.3887 17.5488">
 <g>
  <rect height="17.5488" opacity="0" width="23.3887" x="0" y="0"/>
  <path d="M7.69531 17.5293L15.332 17.5293C20.9961 17.5293 23.0273 15.4297 23.0273 10.2051L23.0273 7.33398C23.0273 2.10938 20.9961 0 15.332 0L7.69531 0C2.03125 0 0 2.10938 0 7.33398L0 10.2051C0 15.4297 2.03125 17.5293 7.69531 17.5293ZM7.69531 15.957C3.08594 15.957 1.57227 14.4629 1.57227 10.2051L1.57227 7.33398C1.57227 3.07617 3.08594 1.57227 7.69531 1.57227L15.332 1.57227C19.9414 1.57227 21.4551 3.07617 21.4551 7.33398L21.4551 10.2051C21.4551 14.4629 19.9414 15.957 15.332 15.957Z" fill="var(--color-secondary)"/>
  <path d="M6.97266 12.8125C7.44141 12.8125 7.68555 12.5293 7.68555 12.0801L7.68555 10.0977L8.7207 10.0977C10.2051 10.0977 11.0742 8.96484 11.0742 7.46094C11.0742 5.97656 10.2344 4.80469 8.79883 4.80469L6.96289 4.80469C6.55273 4.80469 6.25977 5.07812 6.25977 5.55664L6.25977 12.0801C6.25977 12.5391 6.51367 12.8125 6.97266 12.8125ZM7.68555 8.97461L7.68555 5.95703L8.4375 5.95703C9.25781 5.95703 9.6582 6.54297 9.6582 7.46094C9.6582 8.33008 9.29688 8.97461 8.42773 8.97461ZM14.4824 12.8906C15.8789 12.8906 16.9531 12.0117 16.9531 10.5469C16.9531 9.33594 16.2305 8.74023 15.4102 8.65234L15.4102 8.62305C16.2891 8.38867 16.7188 7.59766 16.7188 6.77734C16.7188 5.42969 15.7129 4.6582 14.4434 4.6582C13.4277 4.6582 12.5586 5.22461 12.2754 6.09375C12.2266 6.2793 12.207 6.45508 12.207 6.62109C12.207 6.94336 12.4219 7.19727 12.8027 7.19727C13.1348 7.19727 13.3301 7.07031 13.4277 6.72852C13.584 6.15234 13.8965 5.79102 14.4434 5.79102C15.0879 5.79102 15.3906 6.28906 15.3906 6.93359C15.3906 7.64648 15 8.16406 14.2676 8.16406L14.0332 8.16406C13.7012 8.16406 13.4961 8.36914 13.4961 8.69141C13.4961 9.01367 13.7109 9.19922 14.0332 9.19922L14.2773 9.19922C15.1074 9.19922 15.5664 9.6582 15.5664 10.5078C15.5664 11.1816 15.2051 11.7578 14.4824 11.7578C13.7695 11.7578 13.457 11.2793 13.3301 10.8301C13.2422 10.5176 13.0273 10.3516 12.7148 10.3516C12.334 10.3516 12.0801 10.5859 12.0801 10.9668C12.0801 11.1426 12.1094 11.3184 12.1582 11.4746C12.4316 12.3828 13.4277 12.8906 14.4824 12.8906Z" fill="var(--color-primary)"/>
 </g>
</svg>
