<?xml version="1.0" encoding="UTF-8"?>
<!--Generator: Apple Native CoreSVG 326-->
<!DOCTYPE svg
PUBLIC "-//W3C//DTD SVG 1.1//EN"
       "http://www.w3.org/Graphics/SVG/1.1/DTD/svg11.dtd">
<svg version="1.1" xmlns="http://www.w3.org/2000/svg" xmlns:xlink="http://www.w3.org/1999/xlink" viewBox="0 0 24.9121 18.5645">
 <g>
  <rect height="18.5645" opacity="0" width="24.9121" x="0" y="0"/>
  <path d="M21.4648 7.5C23.3691 8.30078 24.5508 10.0781 24.5508 12.1289C24.5508 14.8145 22.2461 16.9727 19.2969 16.9727L5.84961 16.9727C2.50977 16.9727 0 14.5605 0 11.6895C0 9.30664 1.37695 7.33398 3.58398 6.98242C3.63281 4.24805 6.25 2.42188 8.65234 3.125C9.82422 1.41602 11.709 0 14.3555 0C18.3496 0 21.4844 3.14453 21.4648 7.5ZM7.46094 15.2441L18.457 15.2441C17.7539 13.6621 15.9082 11.9043 12.959 11.9043C10.0098 11.9043 8.16406 13.6621 7.46094 15.2441ZM10.3027 7.7832C10.3125 9.35547 11.4844 10.6738 12.959 10.6934C14.4238 10.7129 15.6152 9.35547 15.6152 7.7832C15.6152 6.23047 14.4238 4.95117 12.959 4.95117C11.4844 4.95117 10.3027 6.23047 10.3027 7.7832Z" fill="white" fill-opacity="0.85"/>
 </g>
</svg>
