<?xml version="1.0" encoding="UTF-8"?>
<!--Generator: Apple Native CoreSVG 326-->
<!DOCTYPE svg
PUBLIC "-//W3C//DTD SVG 1.1//EN"
       "http://www.w3.org/Graphics/SVG/1.1/DTD/svg11.dtd">
<svg version="1.1" xmlns="http://www.w3.org/2000/svg" xmlns:xlink="http://www.w3.org/1999/xlink" viewBox="0 0 23.9648 24.7363">
 <g>
  <rect height="24.7363" opacity="0" width="23.9648" x="0" y="0"/>
  <path d="M17.9647 2.79297L5.63882 2.79297C5.6789 1.99929 6.17978 1.54297 7.01172 1.54297L16.5918 1.54297C17.4237 1.54297 17.9246 1.99929 17.9647 2.79297Z" fill="white" fill-opacity="0.85"/>
  <path d="M19.9623 5.5825C19.6482 5.53257 19.3151 5.50781 18.9648 5.50781L4.63867 5.50781C4.2885 5.50781 3.95544 5.53256 3.64145 5.58247C3.74778 4.64426 4.38263 4.12109 5.41992 4.12109L18.1934 4.12109C19.2307 4.12109 19.8575 4.64428 19.9623 5.5825Z" fill="white" fill-opacity="0.85"/>
  <path d="M5.70312 22.373L17.9004 22.373C17.3828 19.8828 14.8828 18.0762 11.8066 18.0762C8.7207 18.0762 6.2207 19.8828 5.70312 22.373ZM11.8066 16.5918C13.4961 16.5918 14.834 15.1758 14.834 13.2812C14.834 11.4941 13.4961 10.0293 11.8066 10.0293C10.1074 10.0293 8.7793 11.4941 8.7793 13.2812C8.7793 15.1758 10.1074 16.5918 11.8066 16.5918ZM4.63867 23.1641L18.9648 23.1641C21.0059 23.1641 22.0312 22.1484 22.0312 20.1367L22.0312 10.1074C22.0312 8.0957 21.0059 7.08008 18.9648 7.08008L4.63867 7.08008C2.59766 7.08008 1.57227 8.0957 1.57227 10.1074L1.57227 20.1367C1.57227 22.1484 2.59766 23.1641 4.63867 23.1641ZM4.66797 21.5918C3.69141 21.5918 3.14453 21.0645 3.14453 20.0488L3.14453 10.1953C3.14453 9.17969 3.69141 8.65234 4.66797 8.65234L18.9453 8.65234C19.9023 8.65234 20.459 9.17969 20.459 10.1953L20.459 20.0488C20.459 21.0645 19.9023 21.5918 18.9453 21.5918Z" fill="white" fill-opacity="0.85"/>
 </g>
</svg>
