<svg version="1.1" xmlns="http://www.w3.org/2000/svg" xmlns:xlink="http://www.w3.org/1999/xlink" viewBox="0 0 23.8867 19.5071">
 <g>
  <rect height="19.5071" opacity="0" width="23.8867" x="0" y="0"/>
  <path d="M23.5254 11.7116C23.5254 5.55921 18.7988 0.510381 12.7832 0.00256812C12.4707-0.0267288 12.2363 0.197881 12.2363 0.510381L12.2363 3.70374C12.2363 3.96741 12.4219 4.17249 12.6855 4.19202C16.4258 4.65101 19.3359 7.84436 19.3359 11.7116C19.3359 13.4694 18.7305 15.0905 17.666 16.4479C17.5293 16.6139 17.5391 16.8287 17.6855 16.985L20.0195 19.3092C20.2344 19.5241 20.5664 19.5241 20.7617 19.2897C22.4902 17.2389 23.5254 14.5924 23.5254 11.7116Z" fill="var(--color-primary)"/>
  <path d="M0 11.7116C0 14.6022 1.03516 17.2487 2.76367 19.2994C2.95898 19.5338 3.28125 19.5241 3.50586 19.3092L5.83984 16.985C5.98633 16.8287 5.99609 16.6139 5.85938 16.4479C4.78516 15.0905 4.18945 13.4694 4.18945 11.7116C4.18945 7.84436 7.09961 4.65101 10.8398 4.19202C11.1035 4.17249 11.2891 3.96741 11.2891 3.70374L11.2891 0.510381C11.2891 0.197881 11.0547-0.0267288 10.7422 0.00256812C4.72656 0.510381 0 5.55921 0 11.7116Z" fill="var(--color-primary)"/>
  <path d="M9.49219 15.5104C11.123 15.5104 11.8945 14.5045 11.8945 13.2252C11.8945 11.8971 11.084 11.3893 10.0391 10.9987L9.48242 10.7838C8.78906 10.5201 8.31055 10.1979 8.31055 9.44593C8.31055 8.78186 8.70117 8.28382 9.45312 8.28382C10.0977 8.28382 10.5469 8.65491 10.7227 9.3678C10.791 9.64124 10.9766 9.75843 11.2402 9.75843C11.5234 9.75843 11.709 9.56311 11.709 9.27015C11.709 9.19202 11.6992 9.09436 11.6797 8.99671C11.4355 7.97132 10.5762 7.33655 9.46289 7.33655C8.00781 7.33655 7.20703 8.33265 7.20703 9.52405C7.20703 10.6959 7.91016 11.3502 9.01367 11.7506L9.58008 11.9459C10.293 12.1998 10.791 12.5807 10.791 13.3326C10.791 14.0162 10.3418 14.5631 9.52148 14.5631C8.7793 14.5631 8.31055 14.1627 8.13477 13.4303C8.06641 13.1569 7.89062 13.0299 7.62695 13.0299C7.33398 13.0299 7.13867 13.2545 7.13867 13.5573C7.13867 13.6744 7.1582 13.8209 7.1875 13.9283C7.50977 14.944 8.33984 15.5104 9.49219 15.5104ZM12.6367 17.3463C12.9395 17.3463 13.0859 17.1803 13.1445 16.858L14.6484 8.1178C14.6582 8.05921 14.6777 7.94202 14.6777 7.81507C14.6777 7.54163 14.4922 7.34632 14.209 7.34632C13.916 7.34632 13.7598 7.51233 13.7109 7.8346L12.207 16.5748C12.1973 16.6334 12.168 16.7506 12.168 16.8776C12.168 17.151 12.3535 17.3463 12.6367 17.3463ZM15.9668 15.4225C16.3672 15.4225 16.6699 15.1295 16.6699 14.7389C16.6699 14.358 16.3672 14.0553 15.9668 14.0553C15.5859 14.0553 15.293 14.358 15.293 14.7389C15.293 15.1295 15.5859 15.4225 15.9668 15.4225Z" fill="var(--color-primary)"/>
 </g>
</svg>
