<svg version="1.1" xmlns="http://www.w3.org/2000/svg" xmlns:xlink="http://www.w3.org/1999/xlink" viewBox="0 0 15.2734 17.8418">
 <g>
  <rect height="17.8418" opacity="0" width="15.2734" x="0" y="0"/>
  <path d="M2.92969 17.8125C3.48633 17.8125 3.89648 17.3926 3.89648 16.8262L3.89648 11.1426L7.59766 11.1426C11.0352 11.1426 13.3301 8.80859 13.3301 5.55664C13.3301 2.2168 10.9277 0 7.61719 0L2.92969 0C2.35352 0 1.95312 0.419922 1.95312 1.00586L1.95312 16.8262C1.95312 17.3926 2.36328 17.8125 2.92969 17.8125ZM3.89648 9.46289L3.89648 1.68945L7.14844 1.68945C9.72656 1.68945 11.3281 3.06641 11.3281 5.55664C11.3281 8.11523 9.69727 9.46289 7.14844 9.46289ZM0 5.44922C0 5.82031 0.273438 6.08398 0.654297 6.08398L14.2578 6.08398C14.6289 6.08398 14.9121 5.81055 14.9121 5.44922C14.9121 5.08789 14.6289 4.80469 14.2578 4.80469L0.654297 4.80469C0.273438 4.80469 0 5.08789 0 5.44922Z" fill="var(--color-primary)"/>
 </g>
</svg>
