<svg version="1.1" xmlns="http://www.w3.org/2000/svg" xmlns:xlink="http://www.w3.org/1999/xlink" viewBox="0 0 18.3398 17.9785">
 <g>
  <rect height="17.9785" opacity="0" width="18.3398" x="0" y="0"/>
  <path d="M17.9785 3.02734L17.9785 14.9609C17.9785 16.9727 16.9629 17.9785 14.9121 17.9785L3.06641 17.9785C1.02539 17.9785 0 16.9727 0 14.9609L0 3.02734C0 1.01562 1.02539 0 3.06641 0L14.9121 0C16.9629 0 17.9785 1.01562 17.9785 3.02734ZM6.99219 4.42383C6.62109 4.42383 6.40625 4.6582 6.40625 5.03906L6.40625 6.35742L5.73242 6.35742C5.53711 6.35742 5.38086 6.50391 5.38086 6.68945C5.38086 6.88477 5.53711 7.03125 5.73242 7.03125L6.40625 7.03125L6.40625 7.95898L5.73242 7.95898C5.53711 7.95898 5.38086 8.10547 5.38086 8.29102C5.38086 8.48633 5.53711 8.62305 5.73242 8.62305L6.40625 8.62305L6.40625 12.998C6.40625 13.3789 6.62109 13.6035 6.99219 13.6035C7.35352 13.6035 7.58789 13.3789 7.58789 12.998L7.58789 10.5469L9.42383 10.5469C10.8203 10.5469 11.8262 9.76562 12.2266 8.62305L12.8711 8.62305C13.0664 8.62305 13.2227 8.4668 13.2227 8.29102C13.2227 8.10547 13.0664 7.95898 12.8711 7.95898L12.3828 7.95898C12.4023 7.80273 12.4121 7.64648 12.4121 7.4707C12.4121 7.32422 12.4023 7.16797 12.3828 7.03125L12.8711 7.03125C13.0664 7.03125 13.2227 6.875 13.2227 6.68945C13.2227 6.50391 13.0664 6.35742 12.8711 6.35742L12.2363 6.35742C11.8457 5.23438 10.8691 4.42383 9.44336 4.42383ZM9.16016 9.57031L7.58789 9.57031L7.58789 8.62305L10.9473 8.62305C10.625 9.22852 10 9.57031 9.16016 9.57031ZM11.2109 7.4707C11.2109 7.64648 11.2012 7.80273 11.1719 7.95898L7.58789 7.95898L7.58789 7.03125L11.1719 7.03125C11.2012 7.16797 11.2109 7.31445 11.2109 7.4707ZM10.957 6.35742L7.58789 6.35742L7.58789 5.41016L9.16016 5.41016C10 5.41016 10.6348 5.74219 10.957 6.35742Z" fill="var(--color-primary)"/>
 </g>
</svg>
