<?xml version="1.0" encoding="UTF-8"?>
<!--Generator: Apple Native CoreSVG 326-->
<!DOCTYPE svg
PUBLIC "-//W3C//DTD SVG 1.1//EN"
       "http://www.w3.org/Graphics/SVG/1.1/DTD/svg11.dtd">
<svg version="1.1" xmlns="http://www.w3.org/2000/svg" xmlns:xlink="http://www.w3.org/1999/xlink" viewBox="0 0 20.2832 19.9316">
 <g>
  <rect height="19.9316" opacity="0" width="20.2832" x="0" y="0"/>
  <path d="M19.9219 9.96094C19.9219 15.4492 15.459 19.9219 9.96094 19.9219C4.47266 19.9219 0 15.4492 0 9.96094C0 4.46289 4.47266 0 9.96094 0C15.459 0 19.9219 4.46289 19.9219 9.96094ZM4.42383 5.22461C4.15039 5.22461 3.97461 5.42969 3.97461 5.70312L3.97461 14.2285C3.97461 14.5117 4.15039 14.707 4.42383 14.707L15.498 14.707C15.7715 14.707 15.957 14.5117 15.957 14.2285L15.957 5.70312C15.957 5.42969 15.7715 5.22461 15.498 5.22461ZM15.1367 6.16211L15.1367 13.7695C15.1367 13.8574 15.127 13.8672 15.0293 13.8672L4.89258 13.8672C4.80469 13.8672 4.78516 13.8574 4.78516 13.7695L4.78516 6.16211C4.78516 6.08398 4.80469 6.07422 4.89258 6.07422L15.0293 6.07422C15.127 6.07422 15.1367 6.08398 15.1367 6.16211ZM5.76172 6.66992C5.53711 6.66992 5.39062 6.81641 5.39062 7.03125L5.39062 12.9004C5.39062 13.125 5.53711 13.2715 5.76172 13.2715L14.1602 13.2715C14.3945 13.2715 14.5312 13.125 14.5312 12.9004L14.5312 7.03125C14.5312 6.81641 14.3945 6.66992 14.1602 6.66992ZM13.877 7.36328L13.877 11.7383L11.8457 9.83398C11.6699 9.67773 11.4453 9.58984 11.2305 9.58984C10.9863 9.58984 10.7812 9.6582 10.5957 9.81445L8.90625 11.3477L8.23242 10.7422C8.06641 10.5957 7.86133 10.5078 7.66602 10.5078C7.4707 10.5078 7.29492 10.5957 7.12891 10.7324L6.04492 11.7285L6.04492 7.36328C6.04492 7.31445 6.05469 7.31445 6.07422 7.31445L13.8477 7.31445C13.8867 7.31445 13.877 7.31445 13.877 7.36328ZM7.28516 9.02344C7.28516 9.56055 7.72461 10 8.27148 10C8.81836 10 9.25781 9.56055 9.25781 9.02344C9.25781 8.47656 8.81836 8.03711 8.27148 8.03711C7.72461 8.03711 7.28516 8.47656 7.28516 9.02344Z" fill="white" fill-opacity="0.85"/>
 </g>
</svg>
