<svg version="1.1" xmlns="http://www.w3.org/2000/svg" xmlns:xlink="http://www.w3.org/1999/xlink" width="26.6113" height="22.4512" viewBox="0 0 26.6113 22.4512">
 <g>
  <rect height="22.4512" opacity="0" width="26.6113" x="0" y="0"/>
  <path d="M20.4492 4.35547L20.4492 4.52148L8.86719 4.52148C6.08398 4.52148 4.47266 6.12305 4.47266 8.87695L4.47266 16.5918L4.04297 16.5918C2.00195 16.5918 0.976562 15.5859 0.976562 13.5645L0.976562 4.35547C0.976562 2.34375 2.00195 1.32812 4.04297 1.32812L17.3828 1.32812C19.4238 1.32812 20.4492 2.34375 20.4492 4.35547Z" fill="var(--color-secondary)"/>
  <path d="M25.2734 8.87695L25.2734 18.0859C25.2734 20.0977 24.248 21.1133 22.207 21.1133L8.86719 21.1133C6.82617 21.1133 5.80078 20.1074 5.80078 18.0859L5.80078 8.87695C5.80078 6.86523 6.82617 5.84961 8.86719 5.84961L22.207 5.84961C24.248 5.84961 25.2734 6.86523 25.2734 8.87695ZM17.4121 13.1152L13.4668 16.6113L11.9043 15.1953C11.5234 14.8535 11.123 14.6973 10.7031 14.6973C10.3223 14.6973 9.96094 14.8535 9.58008 15.1758L7.37305 17.1191L7.37305 18.0078C7.37305 19.0234 7.91992 19.541 8.89648 19.541L22.1875 19.541C23.1445 19.541 23.7012 19.0234 23.7012 18.0078L23.7012 16.5723L20.0488 13.125C19.668 12.7734 19.209 12.5977 18.7305 12.5977C18.2422 12.5977 17.8223 12.7539 17.4121 13.1152ZM10.6934 11.25C10.6934 12.3926 11.6211 13.3398 12.7637 13.3398C13.9062 13.3398 14.834 12.3926 14.834 11.25C14.834 10.127 13.9062 9.17969 12.7637 9.17969C11.6211 9.17969 10.6934 10.127 10.6934 11.25Z" fill="var(--color-primary)"/>
 </g>
</svg>
