<svg version="1.1" xmlns="http://www.w3.org/2000/svg" xmlns:xlink="http://www.w3.org/1999/xlink" viewBox="0 0 20.2832 19.9316">
 <g>
  <rect height="19.9316" opacity="0" width="20.2832" x="0" y="0"/>
  <path d="M19.9219 9.9707C19.9219 15.4688 15.459 19.9316 9.96094 19.9316C4.47266 19.9316 0 15.4688 0 9.9707C0 4.48242 4.47266 0.00976562 9.96094 0.00976562C15.459 0.00976562 19.9219 4.48242 19.9219 9.9707ZM5.69336 10.4395C4.49219 11.6406 4.47266 13.1836 5.61523 14.3164C6.76758 15.4492 8.31055 15.4297 9.50195 14.2383L11.5723 12.1582L7.76367 8.35938ZM10.4102 5.70312L8.33984 7.77344L12.1484 11.5918L14.2285 9.51172C15.4395 8.31055 15.459 6.76758 14.2871 5.64453C13.125 4.50195 11.5918 4.49219 10.4102 5.70312Z" fill="var(--color-primary)"/>
 </g>
</svg>
