<?xml version="1.0" encoding="UTF-8"?>
<!--Generator: Apple Native CoreSVG 326-->
<!DOCTYPE svg
PUBLIC "-//W3C//DTD SVG 1.1//EN"
       "http://www.w3.org/Graphics/SVG/1.1/DTD/svg11.dtd">
<svg version="1.1" xmlns="http://www.w3.org/2000/svg" xmlns:xlink="http://www.w3.org/1999/xlink" viewBox="0 0 15.5273 23.3691">
 <g>
  <rect height="23.3691" opacity="0" width="15.5273" x="0" y="0"/>
  <path d="M0 14.6973C0 15.5273 0.556641 16.0742 1.43555 16.0742L6.71875 16.0742L6.71875 20.6348C6.71875 22.1289 7.34375 23.3691 7.58789 23.3691C7.82227 23.3691 8.44727 22.1289 8.44727 20.6348L8.44727 16.0742L13.7305 16.0742C14.6094 16.0742 15.166 15.5273 15.166 14.6973C15.166 12.6367 13.5156 10.459 10.7715 9.46289L10.4492 4.98047C11.875 4.16992 13.0469 3.25195 13.5547 2.59766C13.8086 2.26562 13.9355 1.93359 13.9355 1.64062C13.9355 1.04492 13.4766 0.605469 12.793 0.605469L2.38281 0.605469C1.68945 0.605469 1.24023 1.04492 1.24023 1.64062C1.24023 1.93359 1.35742 2.26562 1.61133 2.59766C2.11914 3.25195 3.29102 4.16992 4.7168 4.98047L4.39453 9.46289C1.65039 10.459 0 12.6367 0 14.6973Z" fill="white" fill-opacity="0.85"/>
 </g>
</svg>
