<?xml version="1.0" encoding="UTF-8"?>
<!--Generator: Apple Native CoreSVG 326-->
<!DOCTYPE svg
PUBLIC "-//W3C//DTD SVG 1.1//EN"
       "http://www.w3.org/Graphics/SVG/1.1/DTD/svg11.dtd">
<svg version="1.1" xmlns="http://www.w3.org/2000/svg" xmlns:xlink="http://www.w3.org/1999/xlink" viewBox="0 0 25.2539 14.9316">
 <g>
  <rect height="14.9316" opacity="0" width="25.2539" x="0" y="0"/>
  <path d="M0 13.5645C0 14.4824 0.527344 14.9219 1.16211 14.9219C1.43555 14.9219 1.72852 14.834 2.01172 14.6777L12.2656 8.70117C13.0078 8.27148 13.291 7.94922 13.291 7.46094C13.291 6.97266 13.0078 6.65039 12.2656 6.2207L2.01172 0.244141C1.72852 0.078125 1.43555 0 1.16211 0C0.527344 0 0 0.429688 0 1.34766ZM1.57227 12.793L1.57227 2.12891C1.57227 2.01172 1.64062 1.93359 1.74805 1.93359C1.78711 1.93359 1.82617 1.94336 1.85547 1.97266L10.9766 7.31445C11.0449 7.35352 11.0742 7.40234 11.0742 7.46094C11.0742 7.50977 11.0449 7.56836 10.9766 7.60742L1.85547 12.9492C1.82617 12.9688 1.78711 12.9883 1.74805 12.9883C1.64062 12.9883 1.57227 12.9004 1.57227 12.793ZM17.5977 14.9219C18.0664 14.9219 18.4375 14.5605 18.4375 14.1016L18.4375 0.820312C18.4375 0.361328 18.0664 0 17.5977 0C17.1289 0 16.7676 0.361328 16.7676 0.820312L16.7676 14.1016C16.7676 14.5605 17.1289 14.9219 17.5977 14.9219ZM24.0527 14.9219C24.5215 14.9219 24.8926 14.5605 24.8926 14.1016L24.8926 0.820312C24.8926 0.361328 24.5215 0 24.0527 0C23.584 0 23.2227 0.361328 23.2227 0.820312L23.2227 14.1016C23.2227 14.5605 23.584 14.9219 24.0527 14.9219Z" fill="white" fill-opacity="0.85"/>
 </g>
</svg>
