<?xml version="1.0" encoding="UTF-8"?>
<!--Generator: Apple Native CoreSVG 326-->
<!DOCTYPE svg
PUBLIC "-//W3C//DTD SVG 1.1//EN"
       "http://www.w3.org/Graphics/SVG/1.1/DTD/svg11.dtd">
<svg version="1.1" xmlns="http://www.w3.org/2000/svg" xmlns:xlink="http://www.w3.org/1999/xlink" viewBox="0 0 22.5098 20.3613">
 <g>
  <rect height="20.3613" opacity="0" width="22.5098" x="0" y="0"/>
  <path d="M22.1484 8.87695C22.1484 13.7402 17.4805 17.7441 10.4395 17.7441C10.3125 17.7441 10.1855 17.7344 10.0586 17.7246C9.92188 17.7246 9.78516 17.7734 9.61914 17.8906C7.95898 19.082 5.03906 20.3613 3.86719 20.3613C3.11523 20.3613 2.90039 19.7461 3.28125 19.2578C3.65234 18.7695 4.62891 17.6953 5.17578 16.7969C5.25391 16.6504 5.20508 16.5039 5.05859 16.4258C1.92383 14.7461 0 12.002 0 8.87695C0 3.96484 4.92188 0 11.0742 0C17.2266 0 22.1484 3.96484 22.1484 8.87695ZM10.2246 5.06836L10.2246 8.11523L7.16797 8.11523C6.66016 8.11523 6.30859 8.4668 6.30859 8.98438C6.30859 9.47266 6.66016 9.81445 7.16797 9.81445L10.2246 9.81445L10.2246 12.8809C10.2246 13.3789 10.5664 13.7402 11.0645 13.7402C11.5723 13.7402 11.9238 13.3789 11.9238 12.8809L11.9238 9.81445L14.9902 9.81445C15.4883 9.81445 15.8496 9.47266 15.8496 8.98438C15.8496 8.4668 15.4883 8.11523 14.9902 8.11523L11.9238 8.11523L11.9238 5.06836C11.9238 4.55078 11.5723 4.19922 11.0645 4.19922C10.5664 4.19922 10.2246 4.56055 10.2246 5.06836Z" fill="white" fill-opacity="0.85"/>
 </g>
</svg>
