<?xml version="1.0" encoding="UTF-8"?>
<!--Generator: Apple Native CoreSVG 326-->
<!DOCTYPE svg
PUBLIC "-//W3C//DTD SVG 1.1//EN"
       "http://www.w3.org/Graphics/SVG/1.1/DTD/svg11.dtd">
<svg version="1.1" xmlns="http://www.w3.org/2000/svg" xmlns:xlink="http://www.w3.org/1999/xlink" viewBox="0 0 18.3398 17.9785">
 <g>
  <rect height="17.9785" opacity="0" width="18.3398" x="0" y="0"/>
  <path d="M3.06641 17.9785L14.9121 17.9785C16.9629 17.9785 17.9785 16.9727 17.9785 14.9609L17.9785 3.02734C17.9785 1.01562 16.9629 0 14.9121 0L3.06641 0C1.02539 0 0 1.01562 0 3.02734L0 14.9609C0 16.9727 1.02539 17.9785 3.06641 17.9785ZM3.08594 16.4062C2.10938 16.4062 1.57227 15.8887 1.57227 14.873L1.57227 3.11523C1.57227 2.09961 2.10938 1.57227 3.08594 1.57227L14.8926 1.57227C15.8594 1.57227 16.4062 2.09961 16.4062 3.11523L16.4062 14.873C16.4062 15.8887 15.8594 16.4062 14.8926 16.4062Z" fill="white" fill-opacity="0.85"/>
  <path d="M5.77148 12.9785L8.87695 12.9785C9.13086 12.9785 9.32617 12.793 9.32617 12.5488C9.32617 12.3047 9.13086 12.1191 8.87695 12.1191L6.65039 12.1191L6.65039 12.0117L9.0918 8.0957C9.19922 7.91016 9.28711 7.77344 9.28711 7.58789C9.28711 7.31445 9.13086 7.07031 8.74023 7.07031L5.71289 7.07031C5.46875 7.07031 5.27344 7.24609 5.27344 7.49023C5.27344 7.74414 5.46875 7.91992 5.71289 7.91992L7.99805 7.91992L7.99805 8.02734L5.43945 12.0508C5.3418 12.207 5.27344 12.334 5.27344 12.4902C5.27344 12.7832 5.47852 12.9785 5.77148 12.9785ZM11.2695 13.0859C11.6016 13.0859 11.8066 12.8613 11.8066 12.5098L11.8066 5.22461C11.8066 4.86328 11.6016 4.63867 11.2695 4.63867C10.9277 4.63867 10.7227 4.86328 10.7227 5.21484L10.7227 12.5098C10.7227 12.8613 10.9277 13.0859 11.2695 13.0859ZM10.3613 9.7168L12.6465 8.50586C12.8516 8.39844 12.9297 8.24219 12.9297 8.08594C12.9297 7.80273 12.627 7.5293 12.2852 7.70508L9.96094 8.94531C9.77539 9.04297 9.67773 9.20898 9.67773 9.36523C9.67773 9.6582 9.98047 9.91211 10.3613 9.7168Z" fill="white" fill-opacity="0.85"/>
 </g>
</svg>
