<?xml version="1.0" encoding="UTF-8"?>
<!--Generator: Apple Native CoreSVG 326-->
<!DOCTYPE svg
PUBLIC "-//W3C//DTD SVG 1.1//EN"
       "http://www.w3.org/Graphics/SVG/1.1/DTD/svg11.dtd">
<svg version="1.1" xmlns="http://www.w3.org/2000/svg" xmlns:xlink="http://www.w3.org/1999/xlink" viewBox="0 0 18.3398 17.9785">
 <g>
  <rect height="17.9785" opacity="0" width="18.3398" x="0" y="0"/>
  <path d="M3.06641 17.9785L14.9121 17.9785C16.9629 17.9785 17.9785 16.9727 17.9785 14.9609L17.9785 3.02734C17.9785 1.01562 16.9629 0 14.9121 0L3.06641 0C1.02539 0 0 1.01562 0 3.02734L0 14.9609C0 16.9727 1.02539 17.9785 3.06641 17.9785ZM3.08594 16.4062C2.10938 16.4062 1.57227 15.8887 1.57227 14.873L1.57227 3.11523C1.57227 2.09961 2.10938 1.57227 3.08594 1.57227L14.8926 1.57227C15.8594 1.57227 16.4062 2.09961 16.4062 3.11523L16.4062 14.873C16.4062 15.8887 15.8594 16.4062 14.8926 16.4062Z" fill="white" fill-opacity="0.85"/>
  <path d="M5.26367 13.5742L12.7734 13.5742C13.3008 13.5742 13.6914 13.1836 13.6914 12.6562L13.6914 5.33203C13.6914 4.80469 13.3008 4.41406 12.7734 4.41406L5.26367 4.41406C4.73633 4.41406 4.3457 4.80469 4.3457 5.33203L4.3457 12.6562C4.3457 13.1836 4.73633 13.5742 5.26367 13.5742ZM5.79102 8.50586C5.625 8.33984 5.625 8.14453 5.79102 7.97852L7.1875 6.5918C7.35352 6.41602 7.55859 6.41602 7.71484 6.58203L8.05664 6.92383C8.24219 7.08984 8.23242 7.30469 8.05664 7.4707L6.66992 8.84766C6.49414 9.0332 6.28906 9.0332 6.14258 8.84766ZM11.8945 8.84766C11.748 9.0332 11.5332 9.02344 11.3672 8.84766L9.9707 7.4707C9.79492 7.30469 9.79492 7.08984 9.9707 6.92383L10.3223 6.57227C10.4785 6.40625 10.6934 6.41602 10.8496 6.58203L12.2461 7.97852C12.4121 8.14453 12.4121 8.33984 12.2461 8.50586ZM8.76953 12.1484C8.55469 12.1484 8.38867 12.002 8.38867 11.7871L8.38867 10.0488C8.38867 9.82422 8.55469 9.6582 8.76953 9.6582L9.25781 9.6582C9.47266 9.6582 9.64844 9.82422 9.64844 10.0488L9.64844 11.7871C9.64844 12.0117 9.48242 12.1484 9.25781 12.1484Z" fill="white" fill-opacity="0.85"/>
 </g>
</svg>
