<?xml version="1.0" encoding="UTF-8"?>
<!--Generator: Apple Native CoreSVG 326-->
<!DOCTYPE svg
PUBLIC "-//W3C//DTD SVG 1.1//EN"
       "http://www.w3.org/Graphics/SVG/1.1/DTD/svg11.dtd">
<svg version="1.1" xmlns="http://www.w3.org/2000/svg" xmlns:xlink="http://www.w3.org/1999/xlink" viewBox="0 0 18.3398 17.9785">
 <g>
  <rect height="17.9785" opacity="0" width="18.3398" x="0" y="0"/>
  <path d="M17.9785 3.02734L17.9785 14.9609C17.9785 16.9727 16.9629 17.9785 14.9121 17.9785L3.06641 17.9785C1.02539 17.9785 0 16.9727 0 14.9609L0 3.02734C0 1.01562 1.02539 0 3.06641 0L14.9121 0C16.9629 0 17.9785 1.01562 17.9785 3.02734ZM7.22656 3.13477C6.67969 3.13477 6.2793 3.53516 6.2793 4.08203L6.2793 13.8867C6.2793 14.4434 6.67969 14.8438 7.22656 14.8438L10.752 14.8438C11.2988 14.8438 11.6992 14.4434 11.6992 13.8867L11.6992 4.08203C11.6992 3.53516 11.2988 3.13477 10.752 3.13477ZM10.0098 12.2656C10.0098 12.832 9.55078 13.291 8.99414 13.291C8.42773 13.291 7.96875 12.832 7.96875 12.2656C7.96875 11.6992 8.42773 11.25 8.99414 11.25C9.55078 11.25 10.0098 11.6992 10.0098 12.2656ZM10.0098 8.98438C10.0098 9.55078 9.55078 10 8.99414 10C8.42773 10 7.96875 9.55078 7.96875 8.98438C7.96875 8.41797 8.42773 7.96875 8.99414 7.96875C9.55078 7.96875 10.0098 8.41797 10.0098 8.98438ZM10.0098 5.70312C10.0098 6.25977 9.55078 6.71875 8.99414 6.71875C8.42773 6.71875 7.96875 6.25977 7.96875 5.70312C7.96875 5.13672 8.42773 4.67773 8.99414 4.67773C9.55078 4.67773 10.0098 5.13672 10.0098 5.70312Z" fill="white" fill-opacity="0.85"/>
 </g>
</svg>
