<?xml version="1.0" encoding="UTF-8"?>
<!--Generator: Apple Native CoreSVG 326-->
<!DOCTYPE svg
PUBLIC "-//W3C//DTD SVG 1.1//EN"
       "http://www.w3.org/Graphics/SVG/1.1/DTD/svg11.dtd">
<svg version="1.1" xmlns="http://www.w3.org/2000/svg" xmlns:xlink="http://www.w3.org/1999/xlink" viewBox="0 0 18.3398 17.9785">
 <g>
  <rect height="17.9785" opacity="0" width="18.3398" x="0" y="0"/>
  <path d="M3.06641 17.9785L14.9121 17.9785C16.9629 17.9785 17.9785 16.9727 17.9785 14.9609L17.9785 3.02734C17.9785 1.01562 16.9629 0 14.9121 0L3.06641 0C1.02539 0 0 1.01562 0 3.02734L0 14.9609C0 16.9727 1.02539 17.9785 3.06641 17.9785ZM3.08594 16.4062C2.10938 16.4062 1.57227 15.8887 1.57227 14.873L1.57227 3.11523C1.57227 2.09961 2.10938 1.57227 3.08594 1.57227L14.8926 1.57227C15.8594 1.57227 16.4062 2.09961 16.4062 3.11523L16.4062 14.873C16.4062 15.8887 15.8594 16.4062 14.8926 16.4062Z" fill="white" fill-opacity="0.85"/>
  <path d="M5.17578 13.5645L12.8027 13.5645C13.3301 13.5645 13.7207 13.1738 13.7207 12.6465L13.7207 5.32227C13.7207 4.79492 13.3301 4.4043 12.8027 4.4043L5.17578 4.4043C4.64844 4.4043 4.25781 4.79492 4.25781 5.32227L4.25781 12.6465C4.25781 13.1738 4.64844 13.5645 5.17578 13.5645ZM9.00391 8.32031C8.45703 8.32031 8.00781 7.88086 8.00781 7.33398C8.00781 6.78711 8.45703 6.35742 9.00391 6.35742C9.54102 6.35742 9.99023 6.78711 9.99023 7.33398C9.99023 7.88086 9.54102 8.32031 9.00391 8.32031ZM6.86523 11.6113C6.32812 11.6113 5.87891 11.1816 5.87891 10.6348C5.87891 10.0781 6.32812 9.63867 6.86523 9.63867C7.41211 9.63867 7.86133 10.0781 7.86133 10.6348C7.86133 11.1816 7.41211 11.6113 6.86523 11.6113ZM11.1328 11.6113C10.5859 11.6113 10.1367 11.1816 10.1367 10.6348C10.1367 10.0781 10.5859 9.63867 11.1328 9.63867C11.6797 9.63867 12.1191 10.0781 12.1191 10.6348C12.1191 11.1816 11.6797 11.6113 11.1328 11.6113Z" fill="white" fill-opacity="0.85"/>
 </g>
</svg>
