<?xml version="1.0" encoding="UTF-8"?>
<!--Generator: Apple Native CoreSVG 326-->
<!DOCTYPE svg
PUBLIC "-//W3C//DTD SVG 1.1//EN"
       "http://www.w3.org/Graphics/SVG/1.1/DTD/svg11.dtd">
<svg version="1.1" xmlns="http://www.w3.org/2000/svg" xmlns:xlink="http://www.w3.org/1999/xlink" viewBox="0 0 11.2012 21.3184">
 <g>
  <rect height="21.3184" opacity="0" width="11.2012" x="0" y="0"/>
  <path d="M10.8398 2.97852L10.8398 18.3398C10.8398 20.293 9.81445 21.3086 7.83203 21.3086L3.00781 21.3086C1.03516 21.3086 0 20.293 0 18.3398L0 2.97852C0 1.02539 1.03516 0 3.00781 0L7.83203 0C9.81445 0 10.8398 1.02539 10.8398 2.97852ZM3.90625 16.084C3.90625 16.9141 4.58984 17.5977 5.42969 17.5977C6.25977 17.5977 6.94336 16.9141 6.94336 16.084C6.94336 15.2539 6.25977 14.5801 5.42969 14.5801C4.58984 14.5801 3.90625 15.2539 3.90625 16.084ZM3.90625 10.6543C3.90625 11.4941 4.58984 12.168 5.42969 12.168C6.25977 12.168 6.94336 11.4941 6.94336 10.6543C6.94336 9.82422 6.25977 9.14062 5.42969 9.14062C4.58984 9.14062 3.90625 9.82422 3.90625 10.6543ZM3.90625 5.21484C3.90625 6.06445 4.58984 6.73828 5.42969 6.73828C6.25977 6.73828 6.94336 6.06445 6.94336 5.21484C6.94336 4.39453 6.25977 3.7207 5.42969 3.7207C4.58984 3.7207 3.90625 4.39453 3.90625 5.21484Z" fill="white" fill-opacity="0.85"/>
 </g>
</svg>
