<?xml version="1.0" encoding="UTF-8"?>
<!--Generator: Apple Native CoreSVG 326-->
<!DOCTYPE svg
PUBLIC "-//W3C//DTD SVG 1.1//EN"
       "http://www.w3.org/Graphics/SVG/1.1/DTD/svg11.dtd">
<svg version="1.1" xmlns="http://www.w3.org/2000/svg" xmlns:xlink="http://www.w3.org/1999/xlink" viewBox="0 0 18.3398 17.9785">
 <g>
  <rect height="17.9785" opacity="0" width="18.3398" x="0" y="0"/>
  <path d="M3.06641 17.9785L14.9121 17.9785C16.9629 17.9785 17.9785 16.9727 17.9785 14.9609L17.9785 3.02734C17.9785 1.01562 16.9629 0 14.9121 0L3.06641 0C1.02539 0 0 1.01562 0 3.02734L0 14.9609C0 16.9727 1.02539 17.9785 3.06641 17.9785ZM3.08594 16.4062C2.10938 16.4062 1.57227 15.8887 1.57227 14.873L1.57227 3.11523C1.57227 2.09961 2.10938 1.57227 3.08594 1.57227L14.8926 1.57227C15.8594 1.57227 16.4062 2.09961 16.4062 3.11523L16.4062 14.873C16.4062 15.8887 15.8594 16.4062 14.8926 16.4062Z" fill="white" fill-opacity="0.85"/>
  <path d="M8.99414 14.1113C11.8359 14.1113 14.1113 11.8262 14.1113 8.98438C14.1113 6.14258 11.8359 3.85742 8.99414 3.85742C6.14258 3.85742 3.86719 6.14258 3.86719 8.98438C3.86719 11.8262 6.14258 14.1113 8.99414 14.1113ZM6.5625 10.127C5.9375 10.127 5.41992 9.60938 5.41992 8.98438C5.41992 8.35938 5.9375 7.8418 6.5625 7.8418C7.19727 7.8418 7.70508 8.35938 7.70508 8.98438C7.70508 9.60938 7.19727 10.127 6.5625 10.127ZM11.416 10.127C10.791 10.127 10.2734 9.60938 10.2734 8.98438C10.2734 8.35938 10.791 7.8418 11.416 7.8418C12.041 7.8418 12.5586 8.35938 12.5586 8.98438C12.5586 9.60938 12.041 10.127 11.416 10.127Z" fill="white" fill-opacity="0.85"/>
 </g>
</svg>
