<svg version="1.1" xmlns="http://www.w3.org/2000/svg" xmlns:xlink="http://www.w3.org/1999/xlink" width="18.3398" height="17.998" viewBox="0 0 18.3398 17.998">
 <g>
  <rect height="17.998" opacity="0" width="18.3398" x="0" y="0"/>
  <path d="M3.06641 17.998L14.9121 17.998C16.9629 17.998 17.9785 16.9824 17.9785 14.9707L17.9785 3.04688C17.9785 1.03516 16.9629 0.0195312 14.9121 0.0195312L3.06641 0.0195312C1.02539 0.0195312 0 1.02539 0 3.04688L0 14.9707C0 16.9922 1.02539 17.998 3.06641 17.998Z" fill="var(--color-tertiary)"/>
  <path d="M7.22656 14.8535C6.67969 14.8535 6.2793 14.4531 6.2793 13.8965L6.2793 4.0918C6.2793 3.54492 6.67969 3.14453 7.22656 3.14453L10.752 3.14453C11.2988 3.14453 11.6992 3.54492 11.6992 4.0918L11.6992 13.8965C11.6992 14.4531 11.2988 14.8535 10.752 14.8535ZM8.99414 6.72852C9.55078 6.72852 10.0098 6.26953 10.0098 5.71289C10.0098 5.14648 9.55078 4.6875 8.99414 4.6875C8.42773 4.6875 7.96875 5.14648 7.96875 5.71289C7.96875 6.26953 8.42773 6.72852 8.99414 6.72852ZM8.99414 10.0098C9.55078 10.0098 10.0098 9.56055 10.0098 8.99414C10.0098 8.42773 9.55078 7.97852 8.99414 7.97852C8.42773 7.97852 7.96875 8.42773 7.96875 8.99414C7.96875 9.56055 8.42773 10.0098 8.99414 10.0098ZM8.99414 13.3008C9.55078 13.3008 10.0098 12.8418 10.0098 12.2754C10.0098 11.709 9.55078 11.2598 8.99414 11.2598C8.42773 11.2598 7.96875 11.709 7.96875 12.2754C7.96875 12.8418 8.42773 13.3008 8.99414 13.3008Z" fill="var(--color-primary)"/>
 </g>
</svg>
