<?xml version="1.0" encoding="UTF-8"?>
<!--Generator: Apple Native CoreSVG 326-->
<!DOCTYPE svg
PUBLIC "-//W3C//DTD SVG 1.1//EN"
       "http://www.w3.org/Graphics/SVG/1.1/DTD/svg11.dtd">
<svg version="1.1" xmlns="http://www.w3.org/2000/svg" xmlns:xlink="http://www.w3.org/1999/xlink" viewBox="0 0 20.2832 19.9316">
 <g>
  <rect height="19.9316" opacity="0" width="20.2832" x="0" y="0"/>
  <path d="M19.9219 9.96094C19.9219 15.4492 15.459 19.9219 9.96094 19.9219C4.47266 19.9219 0 15.4492 0 9.96094C0 4.46289 4.47266 0 9.96094 0C15.459 0 19.9219 4.46289 19.9219 9.96094ZM3.65234 10.0293C3.65234 11.0742 4.50195 11.9336 5.54688 11.9336C6.61133 11.9336 7.45117 11.0742 7.45117 10.0293C7.45117 8.98438 6.61133 8.125 5.54688 8.125C4.50195 8.125 3.65234 8.98438 3.65234 10.0293ZM12.4707 10.0293C12.4707 11.0742 13.3105 11.9336 14.375 11.9336C15.4199 11.9336 16.2695 11.0742 16.2695 10.0293C16.2695 8.98438 15.4199 8.125 14.375 8.125C13.3105 8.125 12.4707 8.98438 12.4707 10.0293ZM8.67188 5.33203C8.67188 6.03516 9.25781 6.62109 9.96094 6.62109C10.6641 6.62109 11.25 6.03516 11.25 5.33203C11.25 4.62891 10.6641 4.04297 9.96094 4.04297C9.25781 4.04297 8.67188 4.62891 8.67188 5.33203Z" fill="white" fill-opacity="0.85"/>
 </g>
</svg>
