<?xml version="1.0" encoding="UTF-8"?>
<!--Generator: Apple Native CoreSVG 326-->
<!DOCTYPE svg
PUBLIC "-//W3C//DTD SVG 1.1//EN"
       "http://www.w3.org/Graphics/SVG/1.1/DTD/svg11.dtd">
<svg version="1.1" xmlns="http://www.w3.org/2000/svg" xmlns:xlink="http://www.w3.org/1999/xlink" viewBox="0 0 18.3398 17.9785">
 <g>
  <rect height="17.9785" opacity="0" width="18.3398" x="0" y="0"/>
  <path d="M17.9785 3.02734L17.9785 14.9609C17.9785 16.9727 16.9629 17.9785 14.9121 17.9785L3.06641 17.9785C1.02539 17.9785 0 16.9727 0 14.9609L0 3.02734C0 1.01562 1.02539 0 3.06641 0L14.9121 0C16.9629 0 17.9785 1.01562 17.9785 3.02734ZM3.70117 8.98438C3.70117 11.9141 6.05469 14.2773 8.99414 14.2773C11.9238 14.2773 14.2773 11.9141 14.2773 8.98438C14.2773 6.05469 11.9238 3.69141 8.99414 3.69141C6.05469 3.69141 3.70117 6.05469 3.70117 8.98438ZM7.66602 8.98438C7.66602 9.62891 7.13867 10.166 6.48438 10.166C5.83984 10.166 5.30273 9.62891 5.30273 8.98438C5.30273 8.33984 5.83984 7.80273 6.48438 7.80273C7.13867 7.80273 7.66602 8.33984 7.66602 8.98438ZM12.6758 8.98438C12.6758 9.62891 12.1387 10.166 11.4941 10.166C10.8496 10.166 10.3125 9.62891 10.3125 8.98438C10.3125 8.33984 10.8496 7.80273 11.4941 7.80273C12.1387 7.80273 12.6758 8.33984 12.6758 8.98438Z" fill="white" fill-opacity="0.85"/>
 </g>
</svg>
