<svg version="1.1" xmlns="http://www.w3.org/2000/svg" xmlns:xlink="http://www.w3.org/1999/xlink" viewBox="0 0 22.4219 21.3574">
 <g>
  <rect height="21.3574" opacity="0" width="22.4219" x="0" y="0"/>
  <path d="M18.1934 3.07617L18.1934 4.45312L16.6797 4.45312L16.6797 2.96875C16.6797 2.14844 16.2695 1.74805 15.4492 1.74805L6.61133 1.74805C5.80078 1.74805 5.38086 2.14844 5.38086 2.96875L5.38086 4.47266L3.86719 4.47266L3.86719 3.07617C3.86719 1.17188 4.91211 0.322266 6.63086 0.322266L15.4297 0.322266C17.2461 0.322266 18.1934 1.17188 18.1934 3.07617Z" fill="var(--color-primary)"/>
  <path d="M22.0605 6.45508L22.0605 15.5957C22.0605 17.5 21.0547 18.457 19.1602 18.457L18.125 18.457L18.125 16.9824L19.1797 16.9824C20.0391 16.9824 20.4883 16.5332 20.4883 15.6738L20.4883 6.37695C20.4883 5.51758 20.0391 5.06836 19.1797 5.06836L2.89062 5.06836C2.02148 5.06836 1.58203 5.51758 1.58203 6.37695L1.58203 15.6738C1.58203 16.5332 2.02148 16.9824 2.89062 16.9824L3.93555 16.9824L3.93555 18.457L2.91016 18.457C1.00586 18.457 0 17.5 0 15.5957L0 6.45508C0 4.56055 1.10352 3.59375 2.91016 3.59375L19.1602 3.59375C21.0547 3.59375 22.0605 4.56055 22.0605 6.45508ZM18.2031 7.38281C18.2031 8.06641 17.6367 8.60352 16.9922 8.60352C16.3184 8.60352 15.7617 8.06641 15.7617 7.38281C15.7617 6.73828 16.3184 6.17188 16.9922 6.17188C17.6367 6.17188 18.2031 6.73828 18.2031 7.38281Z" fill="var(--color-primary)"/>
  <path d="M5.80078 21.3574L16.2598 21.3574C17.5 21.3574 18.125 20.791 18.125 19.4922L18.125 11.5234C18.125 10.2246 17.5 9.6582 16.2598 9.6582L5.80078 9.6582C4.61914 9.6582 3.93555 10.2246 3.93555 11.5234L3.93555 19.4922C3.93555 20.791 4.56055 21.3574 5.80078 21.3574ZM7.45117 14.1797C7.08008 14.1797 6.80664 13.9062 6.80664 13.5547C6.80664 13.1934 7.08008 12.9297 7.45117 12.9297L14.6387 12.9297C15 12.9297 15.2637 13.1934 15.2637 13.5547C15.2637 13.9062 15 14.1797 14.6387 14.1797ZM7.45117 18.0859C7.08008 18.0859 6.80664 17.8125 6.80664 17.4609C6.80664 17.1094 7.08008 16.8359 7.45117 16.8359L14.6387 16.8359C15 16.8359 15.2637 17.1094 15.2637 17.4609C15.2637 17.8125 15 18.0859 14.6387 18.0859Z" fill="var(--color-primary)"/>
 </g>
</svg>
