<?xml version="1.0" encoding="UTF-8"?>
<!--Generator: Apple Native CoreSVG 326-->
<!DOCTYPE svg
PUBLIC "-//W3C//DTD SVG 1.1//EN"
       "http://www.w3.org/Graphics/SVG/1.1/DTD/svg11.dtd">
<svg version="1.1" xmlns="http://www.w3.org/2000/svg" xmlns:xlink="http://www.w3.org/1999/xlink" viewBox="0 0 21.4941 21.2207">
 <g>
  <rect height="21.2207" opacity="0" width="21.4941" x="0" y="0"/>
  <path d="M7.5293 7.5293C7.86133 7.1875 7.85156 6.64062 7.5293 6.31836L4.29688 3.0957C3.97461 2.77344 3.42773 2.77344 3.0957 3.0957C2.77344 3.41797 2.77344 3.97461 3.0957 4.29688L6.31836 7.5293C6.64062 7.85156 7.1875 7.86133 7.5293 7.5293Z" fill="white" fill-opacity="0.85"/>
  <path d="M6.26953 10.5664C6.26953 10.0977 5.86914 9.7168 5.41016 9.7168L0.849609 9.7168C0.390625 9.7168 0 10.0977 0 10.5664C0 11.0254 0.390625 11.416 0.849609 11.416L5.41016 11.416C5.86914 11.416 6.26953 11.0449 6.26953 10.5664Z" fill="white" fill-opacity="0.85"/>
  <path d="M7.5293 13.6035C7.1875 13.2715 6.64062 13.2812 6.31836 13.6035L3.0957 16.8359C2.77344 17.1582 2.77344 17.7051 3.0957 18.0371C3.42773 18.3594 3.97461 18.3691 4.29688 18.0371L7.5293 14.8145C7.85156 14.4922 7.86133 13.9453 7.5293 13.6035Z" fill="white" fill-opacity="0.85"/>
  <path d="M10.5664 14.873C10.1074 14.873 9.7168 15.2637 9.7168 15.7227L9.7168 20.2832C9.7168 20.7422 10.0977 21.1328 10.5664 21.1328C11.0254 21.1328 11.416 20.7422 11.416 20.2832L11.416 15.7227C11.416 15.2637 11.0352 14.873 10.5664 14.873Z" fill="white" fill-opacity="0.85"/>
  <path d="M13.6035 13.6035C13.2715 13.9453 13.2812 14.4922 13.6035 14.8145L16.8359 18.0371C17.1582 18.3691 17.7148 18.3594 18.0371 18.0371C18.3691 17.7051 18.3594 17.1582 18.0371 16.8359L14.8145 13.6035C14.4922 13.2812 13.9453 13.2715 13.6035 13.6035Z" fill="white" fill-opacity="0.85"/>
  <path d="M14.8633 10.5664C14.8633 11.0449 15.2637 11.416 15.7324 11.416L20.2832 11.416C20.7422 11.416 21.1328 11.0254 21.1328 10.5664C21.1328 10.0977 20.7422 9.7168 20.2832 9.7168L15.7324 9.7168C15.2637 9.7168 14.8633 10.0977 14.8633 10.5664Z" fill="white" fill-opacity="0.85"/>
  <path d="M13.6035 7.5293C13.9453 7.86133 14.4922 7.85156 14.8145 7.5293L18.0371 4.29688C18.3691 3.97461 18.3594 3.41797 18.0371 3.0957C17.7051 2.77344 17.1582 2.77344 16.8359 3.0957L13.6035 6.31836C13.2812 6.64062 13.2715 7.1875 13.6035 7.5293Z" fill="white" fill-opacity="0.85"/>
  <path d="M10.5664 6.25977C11.0352 6.25977 11.416 5.86914 11.416 5.41016L11.416 0.849609C11.416 0.390625 11.0254 0 10.5664 0C10.0977 0 9.7168 0.390625 9.7168 0.849609L9.7168 5.41016C9.7168 5.86914 10.1074 6.25977 10.5664 6.25977Z" fill="white" fill-opacity="0.85"/>
 </g>
</svg>
