<?xml version="1.0" encoding="UTF-8"?>
<!--Generator: Apple Native CoreSVG 326-->
<!DOCTYPE svg
PUBLIC "-//W3C//DTD SVG 1.1//EN"
       "http://www.w3.org/Graphics/SVG/1.1/DTD/svg11.dtd">
<svg version="1.1" xmlns="http://www.w3.org/2000/svg" xmlns:xlink="http://www.w3.org/1999/xlink" viewBox="0 0 22.8223 29.1455">
 <g>
  <rect height="29.1455" opacity="0" width="22.8223" x="0" y="0"/>
  <path d="M22.4609 14.5679C22.4609 19.4572 19.3284 23.618 14.9627 25.148C15.0999 24.5859 15.0021 24.0199 14.7187 23.5696C18.334 22.1835 20.8887 18.6849 20.8887 14.5679C20.8887 9.21631 16.5723 4.8999 11.2305 4.8999C5.87891 4.8999 1.57227 9.21631 1.57227 14.5679C1.57227 18.6795 4.11441 22.1743 7.72376 23.5644C7.43796 24.015 7.33724 24.5805 7.47055 25.1382C3.11507 23.5995 0 19.4406 0 14.5679C0 8.3667 5.0293 3.32764 11.2305 3.32764C17.4219 3.32764 22.4609 8.3667 22.4609 14.5679Z" fill="white" fill-opacity="0.85"/>
  <path d="M9.46289 23.9722C8.75977 23.9722 8.55469 24.6655 8.93555 25.1831L10.7031 27.5366C10.9766 27.8979 11.4746 27.9077 11.7578 27.5366L13.4961 25.1929C13.9062 24.6558 13.6621 23.9722 12.9785 23.9722Z" fill="white" fill-opacity="0.85"/>
  <path d="M11.2305 6.76514C6.92383 6.76514 3.4375 10.2612 3.4375 14.5679C3.4375 18.8843 6.92383 22.3608 11.2305 22.3608C15.5371 22.3608 19.0234 18.8843 19.0234 14.5679C19.0234 10.2612 15.5371 6.76514 11.2305 6.76514ZM9.15039 18.4253C8.66211 18.4253 8.38867 18.0933 8.38867 17.5952L8.38867 11.4331C8.38867 10.9351 8.65234 10.5737 9.14062 10.5737L11.5137 10.5737C13.252 10.5737 14.375 11.5894 14.375 13.1323C14.375 14.1479 13.7598 15.0366 12.832 15.3979L13.9941 17.2144C14.1113 17.3901 14.1797 17.5659 14.1797 17.7612C14.1797 18.1421 13.8672 18.4253 13.4375 18.4253C13.1055 18.4253 12.8809 18.2886 12.666 17.9468L11.2988 15.6519L9.95117 15.6519L9.95117 17.5952C9.95117 18.103 9.64844 18.4253 9.15039 18.4253ZM9.95117 14.4409L11.3281 14.4409C12.2852 14.4409 12.832 14.0112 12.832 13.1616C12.832 12.3022 12.2559 11.814 11.3574 11.814L9.95117 11.814Z" fill="white" fill-opacity="0.85"/>
 </g>
</svg>
