<?xml version="1.0" encoding="UTF-8"?>
<!--Generator: Apple Native CoreSVG 326-->
<!DOCTYPE svg
PUBLIC "-//W3C//DTD SVG 1.1//EN"
       "http://www.w3.org/Graphics/SVG/1.1/DTD/svg11.dtd">
<svg version="1.1" xmlns="http://www.w3.org/2000/svg" xmlns:xlink="http://www.w3.org/1999/xlink" viewBox="0 0 22.8223 29.165">
 <g>
  <rect height="29.165" opacity="0" width="22.8223" x="0" y="0"/>
  <path d="M22.4609 14.5776C22.4609 20.7788 17.4219 25.8081 11.2305 25.8081C5.0293 25.8081 0 20.769 0 14.5776C0 9.69658 3.11593 5.53551 7.47235 3.99695C7.33669 4.55523 7.43521 5.12207 7.7199 5.57414C4.11261 6.96794 1.57227 10.4675 1.57227 14.5776C1.57227 19.9292 5.87891 24.2358 11.2305 24.2358C16.5723 24.2358 20.8887 19.9292 20.8887 14.5776C20.8887 10.4625 18.3364 6.95944 14.7238 5.5693C15.0075 5.1175 15.1049 4.55073 14.9656 3.98992C19.3297 5.52322 22.4609 9.68937 22.4609 14.5776Z" fill="white" fill-opacity="0.85"/>
  <path d="M9.46289 5.16357L12.9785 5.16357C13.6621 5.16357 13.9062 4.48975 13.4961 3.95264L11.7578 1.60889C11.4746 1.23779 10.9766 1.23779 10.7031 1.60889L8.93555 3.9624C8.55469 4.47998 8.75977 5.16357 9.46289 5.16357Z" fill="white" fill-opacity="0.85"/>
  <path d="M11.2305 22.3804C15.5371 22.3804 19.0234 18.8843 19.0234 14.5776C19.0234 10.2612 15.5371 6.78467 11.2305 6.78467C6.92383 6.78467 3.4375 10.2612 3.4375 14.5776C3.4375 18.8843 6.92383 22.3804 11.2305 22.3804ZM9.15039 18.4351C8.66211 18.4351 8.38867 18.103 8.38867 17.605L8.38867 11.4429C8.38867 10.9448 8.65234 10.5835 9.14062 10.5835L11.5137 10.5835C13.252 10.5835 14.375 11.5991 14.375 13.1421C14.375 14.1577 13.7598 15.0464 12.832 15.4077L13.9941 17.2241C14.1113 17.3999 14.1797 17.5757 14.1797 17.771C14.1797 18.1519 13.8672 18.4351 13.4375 18.4351C13.1055 18.4351 12.8809 18.2983 12.666 17.9565L11.2988 15.6616L9.95117 15.6616L9.95117 17.605C9.95117 18.1128 9.64844 18.4351 9.15039 18.4351ZM9.95117 14.4507L11.3281 14.4507C12.2852 14.4507 12.832 14.021 12.832 13.1714C12.832 12.312 12.2559 11.8237 11.3574 11.8237L9.95117 11.8237Z" fill="white" fill-opacity="0.85"/>
 </g>
</svg>
