<?xml version="1.0" encoding="UTF-8"?>
<!--Generator: Apple Native CoreSVG 326-->
<!DOCTYPE svg
PUBLIC "-//W3C//DTD SVG 1.1//EN"
       "http://www.w3.org/Graphics/SVG/1.1/DTD/svg11.dtd">
<svg version="1.1" xmlns="http://www.w3.org/2000/svg" xmlns:xlink="http://www.w3.org/1999/xlink" viewBox="0 0 18.3398 17.9785">
 <g>
  <rect height="17.9785" opacity="0" width="18.3398" x="0" y="0"/>
  <path d="M17.9785 3.02734L17.9785 14.9609C17.9785 16.9727 16.9629 17.9785 14.9121 17.9785L3.06641 17.9785C1.02539 17.9785 0 16.9727 0 14.9609L0 3.02734C0 1.01562 1.02539 0 3.06641 0L14.9121 0C16.9629 0 17.9785 1.01562 17.9785 3.02734ZM6.39648 4.29688C5.88867 4.29688 5.61523 4.66797 5.61523 5.21484L5.61523 12.6953C5.61523 13.2324 5.89844 13.6035 6.40625 13.6035C6.94336 13.6035 7.22656 13.252 7.22656 12.6953L7.22656 10.1953L9.10156 10.1953L10.8398 13.0664C11.084 13.457 11.2891 13.6035 11.6504 13.6035C12.0801 13.6035 12.3828 13.3203 12.3828 12.9102C12.3828 12.6855 12.3242 12.5293 12.207 12.3242L10.6934 9.96094C11.875 9.57031 12.6367 8.51562 12.6367 7.26562C12.6367 5.44922 11.3477 4.29688 9.30664 4.29688ZM11.0449 7.30469C11.0449 8.39844 10.2734 9.01367 9.0625 9.01367L7.22656 9.01367L7.22656 5.53711L9.10156 5.53711C10.2539 5.53711 11.0449 6.18164 11.0449 7.30469Z" fill="white" fill-opacity="0.85"/>
 </g>
</svg>
