<svg version="1.1" xmlns="http://www.w3.org/2000/svg" xmlns:xlink="http://www.w3.org/1999/xlink" width="17.7344" height="20.9863" viewBox="0 0 17.7344 20.9863">
 <g>
  <rect height="20.9863" opacity="0" width="17.7344" x="0" y="0"/>
  <path d="M11.5527 20.9766C15.0879 20.9766 17.373 18.7012 17.373 15.166L17.373 10.3516C17.373 9.01367 16.9531 7.93945 16.123 7.17773L9.96094 1.50391C8.75 0.400391 7.4707 0 5.94727 0L2.92969 0C1.17188 0 0 1.19141 0 2.95898L0 18.0469C0 19.8828 1.11328 20.9766 2.95898 20.9766ZM11.5234 19.4043L2.99805 19.4043C1.97266 19.4043 1.57227 19.0527 1.57227 18.0176L1.57227 2.97852C1.57227 2.13867 2.11914 1.57227 2.96875 1.57227L5.9082 1.57227C7.11914 1.57227 8.00781 1.86523 8.87695 2.65625L15.0293 8.31055C15.5664 8.79883 15.8008 9.39453 15.8008 10.3711L15.8008 15.1367C15.8008 17.8711 14.248 19.4043 11.5234 19.4043Z" fill="var(--color-secondary)"/>
  <path d="M4.44336 16.25C4.84375 16.25 5.08789 15.9766 5.08789 15.5566L5.08789 13.3496L5.94727 13.3496L6.88477 15.7031C7.01172 16.0449 7.20703 16.25 7.56836 16.25C7.87109 16.25 8.18359 16.0645 8.18359 15.6055C8.18359 15.5078 8.13477 15.3223 8.04688 15.1172L7.1875 13.0762C7.91992 12.6953 8.23242 11.9141 8.23242 11.1035C8.23242 9.63867 7.35352 8.85742 5.95703 8.85742L4.42383 8.85742C4.00391 8.85742 3.76953 9.11133 3.76953 9.54102L3.76953 15.5566C3.76953 15.9668 4.00391 16.25 4.44336 16.25ZM5.08789 12.3828L5.08789 9.89258L5.83008 9.89258C6.52344 9.89258 6.89453 10.4102 6.89453 11.1328C6.89453 11.8457 6.57227 12.3828 5.83008 12.3828ZM9.81445 16.123L12.9395 16.123C13.252 16.123 13.4473 15.9082 13.4473 15.5957C13.4473 15.2539 13.2422 15.0684 12.9395 15.0684L10.8008 15.0684L10.8008 14.9902L12.1094 13.3301C13.0176 12.207 13.3105 11.5527 13.3105 10.752C13.3105 9.54102 12.4902 8.65234 11.2402 8.65234C10.0879 8.65234 9.21875 9.60938 9.21875 10.5469C9.21875 10.8789 9.41406 11.1133 9.75586 11.1133C10.0586 11.1133 10.2344 10.9766 10.332 10.6836C10.498 10.0781 10.7227 9.69727 11.2402 9.69727C11.7773 9.69727 12.0801 10.1855 12.0801 10.8105C12.0801 11.5332 11.582 12.2656 11.1035 12.8711L9.54102 14.8828C9.375 15.0879 9.20898 15.3125 9.20898 15.5957C9.20898 15.8984 9.4043 16.123 9.81445 16.123Z" fill="var(--color-primary)"/>
 </g>
</svg>
