<svg version="1.1" xmlns="http://www.w3.org/2000/svg" xmlns:xlink="http://www.w3.org/1999/xlink" viewBox="0 0 23.3887 17.5488">
 <g>
  <rect height="17.5488" opacity="0" width="23.3887" x="0" y="0"/>
  <path d="M7.69531 17.5293L15.332 17.5293C20.9961 17.5293 23.0273 15.4297 23.0273 10.2051L23.0273 7.33398C23.0273 2.10938 20.9961 0 15.332 0L7.69531 0C2.03125 0 0 2.10938 0 7.33398L0 10.2051C0 15.4297 2.03125 17.5293 7.69531 17.5293ZM7.69531 15.957C3.08594 15.957 1.57227 14.4629 1.57227 10.2051L1.57227 7.33398C1.57227 3.07617 3.08594 1.57227 7.69531 1.57227L15.332 1.57227C19.9414 1.57227 21.4551 3.07617 21.4551 7.33398L21.4551 10.2051C21.4551 14.4629 19.9414 15.957 15.332 15.957Z" fill="var(--color-primary)"/>
  <path d="M6.83594 12.8516C7.27539 12.8516 7.53906 12.5684 7.53906 12.1094L7.53906 9.70703L8.4668 9.70703L9.49219 12.2656C9.62891 12.6367 9.84375 12.8516 10.2344 12.8516C10.5566 12.8516 10.8984 12.666 10.8984 12.1582C10.8984 12.0508 10.8398 11.8555 10.7422 11.6309L9.82422 9.41406C10.6055 9.00391 10.9473 8.1543 10.9473 7.27539C10.9473 5.68359 10 4.83398 8.47656 4.83398L6.82617 4.83398C6.36719 4.83398 6.10352 5.11719 6.10352 5.57617L6.10352 12.1094C6.10352 12.5586 6.36719 12.8516 6.83594 12.8516ZM7.53906 8.66211L7.53906 5.9668L8.34961 5.9668C9.10156 5.9668 9.50195 6.52344 9.50195 7.30469C9.50195 8.07617 9.15039 8.66211 8.34961 8.66211ZM15.6055 12.8418C15.9668 12.8418 16.2695 12.6172 16.2695 12.1484L16.2695 11.1719L16.6113 11.1719C16.9922 11.1719 17.168 10.9277 17.168 10.5957C17.168 10.2832 17.002 10.0391 16.6113 10.0391L16.2695 10.0391L16.2695 5.75195C16.2695 5.07812 15.8301 4.69727 15.1855 4.69727C14.502 4.69727 14.1797 5.04883 13.9062 5.6543L12.1582 9.44336C11.9922 9.82422 11.9434 10.0781 11.9434 10.3809C11.9434 10.8496 12.2656 11.1719 12.7441 11.1719L14.9219 11.1719L14.9219 12.1484C14.9219 12.666 15.293 12.8418 15.6055 12.8418ZM14.9512 10.0684L13.1445 10.0684L13.1445 10L14.9219 5.92773L14.9512 5.92773Z" fill="var(--color-primary)"/>
 </g>
</svg>
