<?xml version="1.0" encoding="UTF-8"?>
<!--Generator: Apple Native CoreSVG 326-->
<!DOCTYPE svg
PUBLIC "-//W3C//DTD SVG 1.1//EN"
       "http://www.w3.org/Graphics/SVG/1.1/DTD/svg11.dtd">
<svg version="1.1" xmlns="http://www.w3.org/2000/svg" xmlns:xlink="http://www.w3.org/1999/xlink" viewBox="0 0 27.4316 17.7441">
 <g>
  <rect height="17.7441" opacity="0" width="27.4316" x="0" y="0"/>
  <path d="M1.95312 8.48633L11.2988 8.48633C12.5977 8.48633 13.252 7.83203 13.252 6.48438L13.252 2.00195C13.252 0.654297 12.5977 0.00976562 11.2988 0.00976562L1.95312 0.00976562C0.654297 0.00976562 0 0.654297 0 2.00195L0 6.48438C0 7.83203 0.654297 8.48633 1.95312 8.48633ZM4.31641 17.7441L12.4902 17.7441C13.7988 17.7441 14.4531 17.0898 14.4531 15.752L14.4531 12.5195C14.4531 11.1719 13.7988 10.5176 12.4902 10.5176L4.31641 10.5176C3.00781 10.5176 2.35352 11.1719 2.35352 12.5195L2.35352 15.752C2.35352 17.0898 3.00781 17.7441 4.31641 17.7441ZM18.3301 16.4648L25.1074 16.4648C26.416 16.4648 27.0703 15.8105 27.0703 14.4629L27.0703 3.39844C27.0703 2.05078 26.416 1.39648 25.1074 1.39648L18.3301 1.39648C17.0215 1.39648 16.3672 2.05078 16.3672 3.39844L16.3672 14.4629C16.3672 15.8105 17.0215 16.4648 18.3301 16.4648Z" fill="white" fill-opacity="0.85"/>
 </g>
</svg>
