<svg version="1.1" xmlns="http://www.w3.org/2000/svg" xmlns:xlink="http://www.w3.org/1999/xlink" viewBox="0 0 27.2168 22.4512">
 <g>
  <rect height="22.4512" opacity="0" width="27.2168" x="0" y="0"/>
  <path d="M20.2344 3.13477L20.4792 4.52148L9.47266 4.52148C6.68945 4.52148 5.07812 6.12305 5.07812 8.87695L5.07812 18.0859C5.07812 18.0921 5.07813 18.0983 5.0788 18.1041C3.73892 18.0086 2.93857 17.1667 2.66602 15.5859L1.05469 6.51367C0.712891 4.53125 1.54297 3.35938 3.55469 2.99805L16.6895 0.683594C18.7012 0.332031 19.8828 1.15234 20.2344 3.13477Z" fill="var(--color-primary)"/>
  <path d="M9.47266 21.1133L22.8125 21.1133C24.8535 21.1133 25.8789 20.0977 25.8789 18.0859L25.8789 8.87695C25.8789 6.86523 24.8535 5.84961 22.8125 5.84961L9.47266 5.84961C7.43164 5.84961 6.40625 6.86523 6.40625 8.87695L6.40625 18.0859C6.40625 20.1074 7.43164 21.1133 9.47266 21.1133Z" fill="var(--color-primary)"/>
 </g>
</svg>
