<?xml version="1.0" encoding="UTF-8"?>
<!--Generator: Apple Native CoreSVG 326-->
<!DOCTYPE svg
PUBLIC "-//W3C//DTD SVG 1.1//EN"
       "http://www.w3.org/Graphics/SVG/1.1/DTD/svg11.dtd">
<svg version="1.1" xmlns="http://www.w3.org/2000/svg" xmlns:xlink="http://www.w3.org/1999/xlink" viewBox="0 0 22.8613 17.2559">
 <g>
  <rect height="17.2559" opacity="0" width="22.8613" x="0" y="0"/>
  <path d="M11.2402 9.62891C17.4902 9.62891 22.5 7.72461 22.5 4.82422C22.5 1.88477 17.4902-1.77636e-15 11.2402-1.77636e-15C5-1.77636e-15 0 1.88477 0 4.82422C0 7.72461 5 9.62891 11.2402 9.62891ZM11.2402 8.07617C6.44531 8.07617 1.78711 6.78711 1.78711 4.82422C1.78711 3.00781 5.33203 1.45508 11.2402 1.45508C17.1582 1.45508 20.7031 3.00781 20.7031 4.82422C20.7031 6.78711 16.0449 8.07617 11.2402 8.07617ZM11.2402 14.2578C17.4121 14.2578 22.5 12.373 22.5 9.4043L22.5 4.83398L20.7031 6.2793L20.7031 9.4043C20.7031 11.3672 16.1426 12.7051 11.2402 12.7051C6.34766 12.7051 1.80664 11.3672 1.80664 9.4043L1.80664 6.2793L0 4.83398L0 9.4043C0 12.373 5.07812 14.2578 11.2402 14.2578ZM7.91016 7.00195C8.45703 7.00195 8.91602 6.78711 8.91602 6.50391C8.91602 6.24023 8.45703 6.01562 7.91016 6.01562C7.36328 6.01562 6.91406 6.24023 6.91406 6.50391C6.91406 6.78711 7.36328 7.00195 7.91016 7.00195ZM11.2402 7.39258C11.7871 7.39258 12.2461 7.1582 12.2461 6.89453C12.2461 6.62109 11.7871 6.39648 11.2402 6.39648C10.7031 6.39648 10.2539 6.62109 10.2539 6.89453C10.2539 7.1582 10.7031 7.39258 11.2402 7.39258ZM14.5801 7.00195C15.127 7.00195 15.5859 6.78711 15.5859 6.50391C15.5859 6.24023 15.127 6.01562 14.5801 6.01562C14.0332 6.01562 13.584 6.24023 13.584 6.50391C13.584 6.78711 14.0332 7.00195 14.5801 7.00195ZM11.2402 4.9707C13.1641 4.9707 14.2383 4.46289 14.2383 3.7207C14.2383 2.99805 13.1836 2.46094 11.2402 2.46094C9.30664 2.46094 8.26172 2.99805 8.26172 3.7207C8.26172 4.46289 9.32617 4.9707 11.2402 4.9707ZM11.2402 4.21875C10.0293 4.21875 9.38477 4.00391 9.38477 3.7207C9.38477 3.44727 9.99023 3.21289 11.2402 3.21289C12.4902 3.21289 13.0859 3.44727 13.0859 3.7207C13.0859 4.00391 12.4512 4.21875 11.2402 4.21875ZM6.25977 17.0898L11.4648 14.1504C11.7578 13.9844 11.8652 13.6133 11.6992 13.3203C11.5234 13.0176 11.1523 12.9297 10.8594 13.0859L5.64453 16.0156C5.35156 16.1719 5.24414 16.5625 5.41016 16.8359C5.57617 17.1484 5.95703 17.2656 6.25977 17.0898ZM16.2402 17.0898C16.5332 17.2656 16.9141 17.1484 17.0801 16.8359C17.2461 16.5625 17.1387 16.1719 16.8457 16.0156L11.6309 13.0859C11.3281 12.9297 10.9668 13.0176 10.7812 13.3203C10.625 13.6133 10.7324 13.9844 11.0254 14.1504Z" fill="white" fill-opacity="0.85"/>
 </g>
</svg>
