<?xml version="1.0" encoding="UTF-8"?>
<!--Generator: Apple Native CoreSVG 326-->
<!DOCTYPE svg
PUBLIC "-//W3C//DTD SVG 1.1//EN"
       "http://www.w3.org/Graphics/SVG/1.1/DTD/svg11.dtd">
<svg version="1.1" xmlns="http://www.w3.org/2000/svg" xmlns:xlink="http://www.w3.org/1999/xlink" viewBox="0 0 22.168 20.8496">
 <g>
  <rect height="20.8496" opacity="0" width="22.168" x="0" y="0"/>
  <path d="M12.0996 0.341797L20.4395 5.15625C20.8008 5.36133 20.9668 5.61523 20.9668 5.9082C20.9668 6.30859 20.6543 6.69922 20.1172 6.69922L19.2578 6.69922L19.2578 17.9297L19.8828 17.9297C20.2832 17.9297 20.5078 18.1641 20.5078 18.5547L20.5078 19.2676L21.0156 19.2676C21.4453 19.2676 21.8066 19.6191 21.8066 20.0488C21.8066 20.4785 21.4453 20.8398 21.0156 20.8398L0.78125 20.8398C0.351562 20.8398 0 20.4785 0 20.0488C0 19.6191 0.351562 19.2676 0.78125 19.2676L1.29883 19.2676L1.29883 18.5547C1.29883 18.1641 1.5332 17.9297 1.93359 17.9297L2.54883 17.9297L2.54883 6.69922L1.68945 6.69922C1.15234 6.69922 0.839844 6.30859 0.839844 5.9082C0.839844 5.61523 0.996094 5.36133 1.36719 5.15625L9.70703 0.341797C10.0781 0.117188 10.498 0 10.8984 0C11.2988 0 11.709 0.117188 12.0996 0.341797ZM9.19922 6.63086C8.84766 6.63086 8.60352 6.89453 8.60352 7.25586L8.60352 11.543L7.55859 11.543C7.35352 11.543 7.2168 11.6699 7.2168 11.8848C7.2168 12.0898 7.35352 12.2168 7.55859 12.2168L8.60352 12.2168L8.60352 13.5156L7.55859 13.5156C7.35352 13.5156 7.2168 13.6523 7.2168 13.8477C7.2168 14.0625 7.35352 14.1992 7.55859 14.1992L8.60352 14.1992L8.60352 15.1758C8.60352 15.5566 8.81836 15.7812 9.18945 15.7812C9.56055 15.7812 9.78516 15.5566 9.78516 15.1758L9.78516 14.1992L12.1973 14.1992C12.3926 14.1992 12.5195 14.0625 12.5195 13.8477C12.5195 13.6523 12.3926 13.5156 12.1973 13.5156L9.78516 13.5156L9.78516 12.2168L11.582 12.2168C13.4668 12.2168 14.5215 10.957 14.5215 9.43359C14.5215 7.87109 13.4375 6.63086 11.6016 6.63086ZM13.3008 9.43359C13.3008 10.6055 12.5293 11.2402 11.2988 11.2402L9.78516 11.2402L9.78516 7.65625L11.2988 7.65625C12.7344 7.65625 13.3008 8.44727 13.3008 9.43359Z" fill="white" fill-opacity="0.85"/>
 </g>
</svg>
