<?xml version="1.0" encoding="UTF-8"?>
<!--Generator: Apple Native CoreSVG 326-->
<!DOCTYPE svg
PUBLIC "-//W3C//DTD SVG 1.1//EN"
       "http://www.w3.org/Graphics/SVG/1.1/DTD/svg11.dtd">
<svg version="1.1" xmlns="http://www.w3.org/2000/svg" xmlns:xlink="http://www.w3.org/1999/xlink" viewBox="0 0 18.3398 17.9785">
 <g>
  <rect height="17.9785" opacity="0" width="18.3398" x="0" y="0"/>
  <path d="M3.06641 17.9785L14.9121 17.9785C16.9629 17.9785 17.9785 16.9727 17.9785 14.9609L17.9785 3.02734C17.9785 1.01562 16.9629 0 14.9121 0L3.06641 0C1.02539 0 0 1.01562 0 3.02734L0 14.9609C0 16.9727 1.02539 17.9785 3.06641 17.9785ZM3.08594 16.4062C2.10938 16.4062 1.57227 15.8887 1.57227 14.873L1.57227 3.11523C1.57227 2.09961 2.10938 1.57227 3.08594 1.57227L14.8926 1.57227C15.8594 1.57227 16.4062 2.09961 16.4062 3.11523L16.4062 14.873C16.4062 15.8887 15.8594 16.4062 14.8926 16.4062Z" fill="white" fill-opacity="0.85"/>
  <path d="M7.32422 13.4766C7.68555 13.4766 7.90039 13.252 7.90039 12.8906L7.90039 11.9336L10.2441 11.9336C10.4297 11.9336 10.5566 11.8066 10.5566 11.6016C10.5566 11.4062 10.4297 11.2891 10.2441 11.2891L7.90039 11.2891L7.90039 10.0195L9.64844 10.0195C11.4844 10.0195 12.4902 8.79883 12.4902 7.32422C12.4902 5.80078 11.4453 4.60938 9.67773 4.60938L7.33398 4.60938C7.00195 4.60938 6.75781 4.86328 6.75781 5.21484L6.75781 9.36523L5.75195 9.36523C5.54688 9.36523 5.41992 9.50195 5.41992 9.69727C5.41992 9.89258 5.54688 10.0195 5.75195 10.0195L6.75781 10.0195L6.75781 11.2891L5.75195 11.2891C5.54688 11.2891 5.41992 11.4062 5.41992 11.6016C5.41992 11.8066 5.54688 11.9336 5.75195 11.9336L6.75781 11.9336L6.75781 12.8906C6.75781 13.252 6.98242 13.4766 7.32422 13.4766ZM7.90039 9.07227L7.90039 5.5957L9.375 5.5957C10.7617 5.5957 11.3184 6.36719 11.3184 7.32422C11.3184 8.45703 10.5664 9.07227 9.375 9.07227Z" fill="white" fill-opacity="0.85"/>
 </g>
</svg>
