<?xml version="1.0" encoding="UTF-8"?>
<!--Generator: Apple Native CoreSVG 326-->
<!DOCTYPE svg
PUBLIC "-//W3C//DTD SVG 1.1//EN"
       "http://www.w3.org/Graphics/SVG/1.1/DTD/svg11.dtd">
<svg version="1.1" xmlns="http://www.w3.org/2000/svg" xmlns:xlink="http://www.w3.org/1999/xlink" viewBox="0 0 20.2832 19.9316">
 <g>
  <rect height="19.9316" opacity="0" width="20.2832" x="0" y="0"/>
  <path d="M19.9219 9.96094C19.9219 15.4492 15.459 19.9219 9.96094 19.9219C4.47266 19.9219 0 15.4492 0 9.96094C0 4.46289 4.47266 0 9.96094 0C15.459 0 19.9219 4.46289 19.9219 9.96094ZM11.1035 9.57031C11.1035 10.5078 11.7188 11.0059 12.627 11.2402L13.4375 11.4551C13.9453 11.582 14.2676 11.8359 14.2676 12.334C14.2676 12.8809 13.8672 13.2422 13.2617 13.2422C12.5977 13.2422 12.2559 13.0176 11.9336 12.4316C11.8164 12.2168 11.6309 12.1191 11.4551 12.1191C11.1914 12.1191 11.0059 12.3047 11.0059 12.5684C11.0059 12.6367 11.0352 12.7246 11.0547 12.832C11.3281 13.6816 12.2852 14.082 13.2129 14.082C14.375 14.082 15.3711 13.4277 15.3711 12.2266C15.3711 11.25 14.7949 10.8301 13.8281 10.5762L13.0176 10.3516C12.5586 10.2344 12.1875 9.99023 12.1875 9.52148C12.1875 8.96484 12.627 8.62305 13.1836 8.62305C13.7598 8.62305 14.1211 8.94531 14.3359 9.41406C14.4043 9.56055 14.5605 9.6582 14.7266 9.6582C15.0488 9.6582 15.166 9.46289 15.166 9.25781C15.166 9.17969 15.1465 9.07227 15.1172 8.98438C14.9023 8.26172 14.1211 7.7832 13.2129 7.7832C11.9434 7.7832 11.1035 8.48633 11.1035 9.57031ZM6.02539 5.88867C5.67383 5.88867 5.45898 6.12305 5.45898 6.47461L5.45898 13.4668C5.45898 13.8379 5.67383 14.0723 6.03516 14.0723C6.40625 14.0723 6.62109 13.8379 6.62109 13.4668L6.62109 10.752L7.85156 10.752L9.08203 13.6523C9.18945 13.9258 9.36523 14.0723 9.6582 14.0723C9.98047 14.0723 10.2344 13.8574 10.2344 13.5352C10.2344 13.3887 10.166 13.2715 10.0977 13.1055L8.96484 10.5078C9.84375 10.1172 10.2539 9.24805 10.2539 8.30078C10.2539 6.95312 9.47266 5.88867 7.80273 5.88867ZM9.10156 8.32031C9.10156 9.23828 8.61328 9.82422 7.70508 9.82422L6.62109 9.82422L6.62109 6.85547L7.69531 6.85547C8.59375 6.85547 9.10156 7.42188 9.10156 8.32031Z" fill="white" fill-opacity="0.85"/>
 </g>
</svg>
