<?xml version="1.0" encoding="UTF-8"?>
<!--Generator: Apple Native CoreSVG 326-->
<!DOCTYPE svg
PUBLIC "-//W3C//DTD SVG 1.1//EN"
       "http://www.w3.org/Graphics/SVG/1.1/DTD/svg11.dtd">
<svg version="1.1" xmlns="http://www.w3.org/2000/svg" xmlns:xlink="http://www.w3.org/1999/xlink" viewBox="0 0 20.2832 19.9316">
 <g>
  <rect height="19.9316" opacity="0" width="20.2832" x="0" y="0"/>
  <path d="M9.96094 19.9219C15.459 19.9219 19.9219 15.459 19.9219 9.96094C19.9219 4.46289 15.459 0 9.96094 0C4.46289 0 0 4.46289 0 9.96094C0 15.459 4.46289 19.9219 9.96094 19.9219ZM9.96094 18.2617C5.37109 18.2617 1.66016 14.5508 1.66016 9.96094C1.66016 5.37109 5.37109 1.66016 9.96094 1.66016C14.5508 1.66016 18.2617 5.37109 18.2617 9.96094C18.2617 14.5508 14.5508 18.2617 9.96094 18.2617Z" fill="white" fill-opacity="0.85"/>
  <path d="M5.86914 14.8828L11.4746 12.1484C11.7871 11.9922 12.002 11.7773 12.1582 11.4746L14.8828 5.87891C15.1953 5.21484 14.7168 4.69727 14.0332 5.03906L8.44727 7.76367C8.14453 7.90039 7.93945 8.10547 7.77344 8.4375L5.0293 14.043C4.7168 14.6875 5.22461 15.1953 5.86914 14.8828ZM9.96094 11.1621C9.29688 11.1621 8.76953 10.625 8.76953 9.9707C8.76953 9.30664 9.29688 8.76953 9.96094 8.76953C10.625 8.76953 11.1621 9.30664 11.1621 9.9707C11.1621 10.625 10.625 11.1621 9.96094 11.1621Z" fill="white" fill-opacity="0.85"/>
 </g>
</svg>
