<?xml version="1.0" encoding="UTF-8"?>
<!--Generator: Apple Native CoreSVG 326-->
<!DOCTYPE svg
PUBLIC "-//W3C//DTD SVG 1.1//EN"
       "http://www.w3.org/Graphics/SVG/1.1/DTD/svg11.dtd">
<svg version="1.1" xmlns="http://www.w3.org/2000/svg" xmlns:xlink="http://www.w3.org/1999/xlink" viewBox="0 0 23.3105 17.998">
 <g>
  <rect height="17.998" opacity="0" width="23.3105" x="0" y="0"/>
  <path d="M0 14.9805C0 16.9922 1.02539 17.998 3.06641 17.998L19.8828 17.998C21.9141 17.998 22.9492 16.9824 22.9492 14.9805L22.9492 11.7773C22.9492 11.1328 22.7539 10.4102 22.2363 9.85352L18.5352 5.91797C17.6465 4.98047 16.9629 4.44336 15.6445 4.44336L7.11914 4.44336C5.97656 4.44336 5.30273 4.98047 4.41406 5.91797L0.712891 9.85352C0.195312 10.4102 0 11.1328 0 11.7773ZM2.17773 10.6641L5.70312 6.73828C6.20117 6.19141 6.5625 5.88867 7.14844 5.88867L15.791 5.88867C16.377 5.88867 16.748 6.18164 17.2461 6.73828L20.7715 10.6641C21.0352 10.9668 20.8887 11.416 20.4004 11.416L2.54883 11.416C2.06055 11.416 1.91406 10.9668 2.17773 10.6641ZM1.46484 1.40625L4.53125 4.50195C5.41016 5.40039 5.85938 5.69336 6.96289 5.69336L15.8984 5.69336C17.0801 5.69336 17.5391 5.40039 18.418 4.50195L21.4844 1.40625C21.9824 0.908203 21.7383 0.00976562 20.8691 0.00976562L2.08008 0.00976562C1.21094 0.00976562 0.966797 0.908203 1.46484 1.40625ZM5.57617 10.0098C5.6543 10.2441 5.91797 10.3516 6.16211 10.2637L10.6543 8.62305C10.9082 8.53516 11.0254 8.30078 10.9375 8.04688C10.8496 7.80273 10.6055 7.69531 10.3516 7.79297L5.85938 9.43359C5.60547 9.52148 5.48828 9.75586 5.57617 10.0098ZM5.72266 8.22266C5.81055 8.47656 6.06445 8.57422 6.30859 8.48633L9.4043 7.36328C9.64844 7.27539 9.78516 7.03125 9.6875 6.78711C9.59961 6.5332 9.3457 6.44531 9.11133 6.5332L6.00586 7.65625C5.75195 7.74414 5.63477 7.98828 5.72266 8.22266ZM15.5957 14.6973C15.5957 14.3848 15.8301 14.1602 16.1523 14.1602L18.8477 14.1602C19.1602 14.1602 19.3945 14.3848 19.3945 14.6973C19.3945 15.0098 19.1602 15.2246 18.8477 15.2246L16.1523 15.2246C15.8496 15.2246 15.5957 15.0098 15.5957 14.6973Z" fill="white" fill-opacity="0.85"/>
 </g>
</svg>
