<svg version="1.1" xmlns="http://www.w3.org/2000/svg" xmlns:xlink="http://www.w3.org/1999/xlink" width="24.4159" height="24.1474" viewBox="0 0 24.4159 24.1474">
 <g>
  <rect height="24.1474" opacity="0" width="24.4159" x="0" y="0"/>
  <path d="M8.72161 9.79344C8.25286 10.272 8.24309 10.8872 8.72161 11.3755L12.8036 15.4673C13.2822 15.9458 13.9072 15.9165 14.3857 15.438L15.4501 14.3637C15.0888 13.8266 15.1279 13.143 15.6064 12.6743C16.0849 12.2055 16.7587 12.1567 17.2958 12.5278L22.9794 6.83445C24.4052 5.40867 24.3954 3.92429 23.0282 2.54734L21.622 1.15086C20.245-0.226096 18.7411-0.21633 17.3251 1.18992L11.6415 6.87351C12.0224 7.40086 11.9736 8.09422 11.495 8.57273C11.0263 9.03172 10.3427 9.07078 9.79583 8.71922ZM14.2001 7.75242L18.8681 3.06492C19.0146 2.90867 19.288 2.93797 19.454 3.06492C19.62 3.2114 19.5907 3.47508 19.4443 3.62156L14.7568 8.30906C14.5907 8.46531 14.3564 8.45554 14.2197 8.31883C14.0536 8.14304 14.0439 7.90867 14.2001 7.75242ZM15.8798 9.40281L20.538 4.75437C20.7138 4.59812 20.9579 4.58836 21.1044 4.75437C21.2411 4.91062 21.2411 5.16453 21.1044 5.30125L16.4365 9.98875C16.2802 10.1548 16.0263 10.1255 15.8798 9.98875C15.6943 9.8032 15.6943 9.58836 15.8798 9.40281ZM1.9345 18.8462L0.137625 22.1372C-0.0186254 22.4302-0.0674535 22.6743 0.127859 22.8598L1.2802 24.022C1.48528 24.2173 1.71966 24.1587 2.00286 24.022L5.31341 22.2153C5.64544 22.0395 5.85052 21.6977 5.86028 21.4048L5.90911 20.3403L10.8603 15.3891L8.77044 13.2895L3.8095 18.2407L2.76458 18.2993C2.45208 18.2993 2.11028 18.5141 1.9345 18.8462Z" fill="var(--color-primary)"/>
 </g>
</svg>
