<?xml version="1.0" encoding="UTF-8"?>
<!--Generator: Apple Native CoreSVG 326-->
<!DOCTYPE svg
PUBLIC "-//W3C//DTD SVG 1.1//EN"
       "http://www.w3.org/Graphics/SVG/1.1/DTD/svg11.dtd">
<svg version="1.1" xmlns="http://www.w3.org/2000/svg" xmlns:xlink="http://www.w3.org/1999/xlink" viewBox="0 0 23.8867 19.5996">
 <g>
  <rect height="19.5996" opacity="0" width="23.8867" x="0" y="0"/>
  <path d="M23.5254 11.7578C23.5254 8.88672 22.4902 6.24023 20.7617 4.18945C20.5664 3.95508 20.2344 3.95508 20.0195 4.17969L17.7539 6.44531C17.5684 6.63086 17.5586 6.89453 17.7246 7.09961C18.7305 8.38867 19.3359 10.0098 19.3359 11.7578C19.3359 13.5156 18.7305 15.1367 17.666 16.4941C17.5293 16.6602 17.5391 16.875 17.6855 17.0312L20.0098 19.3555C20.2344 19.5801 20.5566 19.5801 20.7617 19.3359C22.4902 17.2852 23.5254 14.6387 23.5254 11.7578Z" fill="white" fill-opacity="0.85"/>
  <path d="M11.7578 4.18945C13.5254 4.18945 15.1465 4.80469 16.4453 5.81055C16.6406 5.9668 16.8945 5.94727 17.0801 5.76172L19.3457 3.49609C19.5703 3.27148 19.5605 2.94922 19.3262 2.75391C17.2852 1.03516 14.6387 0 11.7578 0C8.88672 0 6.24023 1.03516 4.19922 2.75391C3.96484 2.94922 3.95508 3.27148 4.17969 3.49609L6.44531 5.76172C6.63086 5.94727 6.89453 5.9668 7.10938 5.80078C8.39844 4.80469 10.0098 4.18945 11.7578 4.18945Z" fill="white" fill-opacity="0.85"/>
  <path d="M0 11.7578C0 14.6387 1.03516 17.2852 2.76367 19.3359C2.95898 19.5801 3.29102 19.5801 3.50586 19.3555L5.83008 17.0312C5.97656 16.875 5.99609 16.6602 5.85938 16.4941C4.79492 15.1367 4.18945 13.5156 4.18945 11.7578C4.18945 10.0098 4.78516 8.38867 5.80078 7.09961C5.95703 6.89453 5.95703 6.63086 5.77148 6.44531L3.50586 4.17969C3.28125 3.95508 2.95898 3.95508 2.76367 4.18945C1.03516 6.24023 0 8.88672 0 11.7578Z" fill="white" fill-opacity="0.85"/>
  <path d="M8.1543 16.2695C8.4375 16.2695 8.62305 16.0742 8.62305 15.7617L8.62305 8.67188L10.791 8.67188C11.9043 8.67188 12.4707 8.95508 12.4707 10.2246L12.4707 13.1641C12.4707 13.4863 12.6562 13.6816 12.959 13.6816C13.2617 13.6816 13.4473 13.4863 13.4473 13.1641L13.4473 10.0293C13.4473 8.42773 12.7344 7.59766 11.123 7.59766L8.39844 7.59766C7.92969 7.59766 7.65625 7.88086 7.65625 8.33984L7.65625 15.7617C7.65625 16.0742 7.85156 16.2695 8.1543 16.2695ZM10.7715 16.1816L13.6133 16.1816C15.293 16.1816 15.8496 15.2734 15.8496 13.584L15.8496 8.03711C15.8496 7.71484 15.6641 7.50977 15.3613 7.50977C15.0586 7.50977 14.8633 7.71484 14.8633 8.03711L14.8633 13.5449C14.8633 14.7949 14.5996 15.1074 13.3398 15.1074L11.0352 15.1074L11.0352 10.6055C11.0352 10.293 10.8496 10.0977 10.5566 10.0977C10.2539 10.0977 10.0586 10.293 10.0586 10.6055L10.0586 15.4785C10.0586 15.9277 10.3613 16.1816 10.7715 16.1816Z" fill="white" fill-opacity="0.85"/>
 </g>
</svg>
