<?xml version="1.0" encoding="UTF-8"?>
<!--Generator: Apple Native CoreSVG 326-->
<!DOCTYPE svg
PUBLIC "-//W3C//DTD SVG 1.1//EN"
       "http://www.w3.org/Graphics/SVG/1.1/DTD/svg11.dtd">
<svg version="1.1" xmlns="http://www.w3.org/2000/svg" xmlns:xlink="http://www.w3.org/1999/xlink" viewBox="0 0 18.3398 17.9785">
 <g>
  <rect height="17.9785" opacity="0" width="18.3398" x="0" y="0"/>
  <path d="M3.06641 17.9785L14.9121 17.9785C16.9629 17.9785 17.9785 16.9727 17.9785 14.9609L17.9785 3.02734C17.9785 1.01562 16.9629 0 14.9121 0L3.06641 0C1.02539 0 0 1.01562 0 3.02734L0 14.9609C0 16.9727 1.02539 17.9785 3.06641 17.9785ZM3.08594 16.4062C2.10938 16.4062 1.57227 15.8887 1.57227 14.873L1.57227 3.11523C1.57227 2.09961 2.10938 1.57227 3.08594 1.57227L14.8926 1.57227C15.8594 1.57227 16.4062 2.09961 16.4062 3.11523L16.4062 14.873C16.4062 15.8887 15.8594 16.4062 14.8926 16.4062Z" fill="white" fill-opacity="0.85"/>
  <path d="M5.40039 13.3691C5.68359 13.3691 5.86914 13.1738 5.86914 12.8613L5.86914 5.76172L8.03711 5.76172C9.15039 5.76172 9.7168 6.05469 9.7168 7.32422L9.7168 10.2637C9.7168 10.5762 9.90234 10.7812 10.2051 10.7812C10.498 10.7812 10.6836 10.5762 10.6836 10.2637L10.6836 7.12891C10.6836 5.51758 9.98047 4.69727 8.35938 4.69727L5.63477 4.69727C5.17578 4.69727 4.90234 4.98047 4.90234 5.43945L4.90234 12.8613C4.90234 13.1738 5.08789 13.3691 5.40039 13.3691ZM8.01758 13.2812L10.8496 13.2812C12.5391 13.2812 13.0957 12.3633 13.0957 10.6836L13.0957 5.13672C13.0957 4.81445 12.9102 4.60938 12.6074 4.60938C12.3047 4.60938 12.1094 4.81445 12.1094 5.13672L12.1094 10.6348C12.1094 11.8945 11.8359 12.207 10.5859 12.207L8.28125 12.207L8.28125 7.70508C8.28125 7.39258 8.0957 7.19727 7.80273 7.19727C7.5 7.19727 7.30469 7.39258 7.30469 7.70508L7.30469 12.5781C7.30469 13.0273 7.60742 13.2812 8.01758 13.2812Z" fill="white" fill-opacity="0.85"/>
 </g>
</svg>
