<?xml version="1.0" encoding="UTF-8"?>
<!--Generator: Apple Native CoreSVG 326-->
<!DOCTYPE svg
PUBLIC "-//W3C//DTD SVG 1.1//EN"
       "http://www.w3.org/Graphics/SVG/1.1/DTD/svg11.dtd">
<svg version="1.1" xmlns="http://www.w3.org/2000/svg" xmlns:xlink="http://www.w3.org/1999/xlink" viewBox="0 0 23.3594 22.0435">
 <g>
  <rect height="22.0435" opacity="0" width="23.3594" x="0" y="0"/>
  <path d="M15.8687 18.5765C14.8848 19.2212 13.6549 19.9042 12.1485 20.6946C11.8946 20.8215 11.6504 20.8801 11.4942 20.8801C11.3379 20.8801 11.1035 20.8313 10.8496 20.6946C5.40041 17.6184 3.50588 16.3294 3.50588 12.8235L3.50588 6.22035ZM12.3047 1.60279C13.4375 1.99341 17.0996 3.32154 18.2422 3.79029C19.0528 4.13209 19.4922 4.45435 19.4922 5.46021L19.4922 12.8235C19.4922 14.1084 19.2508 15.1178 18.6686 16.0233L5.96684 3.32156C7.52921 2.7284 9.82919 1.88347 10.6934 1.60279C10.9571 1.52466 11.2207 1.46607 11.4942 1.46607C11.7774 1.46607 12.041 1.5149 12.3047 1.60279Z" fill="white" fill-opacity="0.85"/>
  <path d="M19.5996 20.6848C19.8926 20.9778 20.3711 20.9778 20.6641 20.6848C20.9571 20.3919 20.9571 19.9133 20.6641 19.6204L2.4219 1.39771C2.1387 1.10474 1.65041 1.10474 1.35745 1.39771C1.06448 1.68091 1.06448 2.1692 1.35745 2.46216Z" fill="white" fill-opacity="0.85"/>
 </g>
</svg>
