<?xml version="1.0" encoding="UTF-8"?>
<!--Generator: Apple Native CoreSVG 326-->
<!DOCTYPE svg
PUBLIC "-//W3C//DTD SVG 1.1//EN"
       "http://www.w3.org/Graphics/SVG/1.1/DTD/svg11.dtd">
<svg version="1.1" xmlns="http://www.w3.org/2000/svg" xmlns:xlink="http://www.w3.org/1999/xlink" viewBox="0 0 20.6055 19.1895">
 <g>
  <rect height="19.1895" opacity="0" width="20.6055" x="0" y="0"/>
  <path d="M9.28711 10.6738L10.8594 10.6738L10.8594 2.69531C10.8594 2.01172 11.2988 1.57227 11.9824 1.57227C12.666 1.57227 13.1055 2.01172 13.1055 2.69531L13.1055 4.33594C13.1055 4.76562 13.4668 5.12695 13.8965 5.12695C14.3262 5.12695 14.6777 4.76562 14.6777 4.33594L14.6777 2.69531C14.6777 1.07422 13.6035 0 11.9824 0C10.3613 0 9.28711 1.07422 9.28711 2.69531ZM6.50391 10.6738L7.7832 10.6738L7.7832 8.11523C7.7832 7.63672 7.4707 7.33398 7.00195 7.33398L4.10156 7.33398C3.75 7.33398 3.45703 7.62695 3.45703 7.97852C3.45703 8.33008 3.75 8.61328 4.10156 8.61328L6.31836 8.61328C6.43555 8.61328 6.50391 8.69141 6.50391 8.79883ZM12.3633 10.6738L13.6426 10.6738L13.6426 8.79883C13.6426 8.69141 13.7109 8.61328 13.8281 8.61328L16.0449 8.61328C16.3965 8.61328 16.6797 8.33008 16.6797 7.97852C16.6797 7.62695 16.3965 7.33398 16.0449 7.33398L13.1445 7.33398C12.666 7.33398 12.3633 7.63672 12.3633 8.11523ZM0.78125 11.6406L19.4629 11.6406C19.8926 11.6406 20.2441 11.2793 20.2441 10.8496C20.2441 10.4199 19.8926 10.0684 19.4629 10.0684L0.78125 10.0684C0.351562 10.0684 0 10.4199 0 10.8496C0 11.2793 0.351562 11.6406 0.78125 11.6406ZM5.625 19.1602L14.6191 19.1602C17.5391 19.1602 19.2188 17.5977 19.2188 14.873L19.2188 11.123L17.6465 11.123L17.6465 14.873C17.6465 16.6992 16.6797 17.5879 14.6191 17.5879L5.625 17.5879C3.57422 17.5879 2.60742 16.6992 2.60742 14.873L2.60742 11.123L1.03516 11.123L1.03516 14.873C1.03516 17.5977 2.70508 19.1602 5.625 19.1602Z" fill="white" fill-opacity="0.85"/>
 </g>
</svg>
