<svg version="1.1" xmlns="http://www.w3.org/2000/svg" xmlns:xlink="http://www.w3.org/1999/xlink" viewBox="0 0 20.2832 19.9316">
 <g>
  <rect height="19.9316" opacity="0" width="20.2832" x="0" y="0"/>
  <path d="M9.96094 19.9219C15.459 19.9219 19.9219 15.459 19.9219 9.96094C19.9219 4.46289 15.459 0 9.96094 0C4.46289 0 0 4.46289 0 9.96094C0 15.459 4.46289 19.9219 9.96094 19.9219ZM9.96094 18.2617C5.37109 18.2617 1.66016 14.5508 1.66016 9.96094C1.66016 5.37109 5.37109 1.66016 9.96094 1.66016C14.5508 1.66016 18.2617 5.37109 18.2617 9.96094C18.2617 14.5508 14.5508 18.2617 9.96094 18.2617Z" fill="var(--color-primary)"/>
  <path d="M6.55273 14.1992C6.82617 14.1992 7.03125 14.0918 7.24609 13.877L13.8086 7.2168C14.0137 7.01172 14.1406 6.76758 14.1406 6.54297C14.1406 6.08398 13.7695 5.73242 13.3203 5.73242C13.0859 5.73242 12.8613 5.83984 12.6465 6.05469L6.09375 12.7148C5.87891 12.9297 5.76172 13.1641 5.76172 13.3984C5.76172 13.8379 6.08398 14.1992 6.55273 14.1992Z" fill="var(--color-primary)"/>
 </g>
</svg>
