<svg version="1.1" xmlns="http://www.w3.org/2000/svg" xmlns:xlink="http://www.w3.org/1999/xlink" viewBox="0 0 24.1895 18.1738">
 <g>
  <rect height="18.1738" opacity="0" width="24.1895" x="0" y="0"/>
  <path d="M8.81836 11.5137C10.332 11.5137 11.2012 10.6543 11.2012 9.16992L11.2012 2.72461C11.2012 1.23047 10.332 0.371094 8.81836 0.371094L2.38281 0.371094C0.869141 0.371094 0 1.23047 0 2.72461L0 9.16992C0 10.6543 0.869141 11.5137 2.38281 11.5137ZM8.79883 9.9707L2.40234 9.9707C1.81641 9.9707 1.54297 9.6875 1.54297 9.10156L1.54297 2.7832C1.54297 2.19727 1.81641 1.91406 2.40234 1.91406L8.79883 1.91406C9.375 1.91406 9.6582 2.19727 9.6582 2.7832L9.6582 9.10156C9.6582 9.6875 9.375 9.9707 8.79883 9.9707Z" fill="var(--color-primary)"/>
  <path d="M21.5039 11.3867C22.9785 11.3867 23.8281 10.5566 23.8281 9.0918L23.8281 2.79297C23.8281 1.32812 22.9785 0.498047 21.5039 0.498047L15.2148 0.498047C13.7402 0.498047 12.8809 1.33789 12.8809 2.79297L12.8809 9.0918C12.8809 10.5469 13.7402 11.3867 15.2148 11.3867ZM0.742188 15.0391C0.341797 15.0391 0 15.3906 0 15.8301C0 16.2695 0.341797 16.6113 0.742188 16.6113L3.89648 16.6113L3.89648 15.0391ZM5.5957 18.1738C6.88477 18.1738 7.93945 17.1191 7.93945 15.8301C7.93945 14.5312 6.88477 13.4766 5.5957 13.4766C4.30664 13.4766 3.25195 14.5312 3.25195 15.8301C3.25195 17.1191 4.30664 18.1738 5.5957 18.1738ZM5.5957 16.9727C4.95117 16.9727 4.45312 16.4648 4.45312 15.8203C4.45312 15.1758 4.95117 14.6777 5.5957 14.6777C6.23047 14.6777 6.73828 15.1758 6.73828 15.8203C6.73828 16.4648 6.23047 16.9727 5.5957 16.9727ZM7.14844 15.0391L7.14844 16.6113L23.0371 16.6113C23.4766 16.6113 23.8281 16.2695 23.8281 15.8301C23.8281 15.3906 23.4766 15.0391 23.0371 15.0391Z" fill="var(--color-primary)"/>
 </g>
</svg>
