<svg version="1.1" xmlns="http://www.w3.org/2000/svg" xmlns:xlink="http://www.w3.org/1999/xlink" viewBox="0 0 20.2832 19.9316">
 <g>
  <rect height="19.9316" opacity="0" width="20.2832" x="0" y="0"/>
  <path d="M19.9219 9.96094C19.9219 15.4492 15.459 19.9219 9.96094 19.9219C4.47266 19.9219 0 15.4492 0 9.96094C0 4.46289 4.47266 0 9.96094 0C15.459 0 19.9219 4.46289 19.9219 9.96094ZM4.75586 9.96094C4.75586 12.8125 7.11914 15.1758 9.9707 15.1758C12.8223 15.1758 15.1953 12.8125 15.1953 9.96094C15.1953 7.10938 12.8223 4.73633 9.96094 4.73633C7.10938 4.73633 4.75586 7.10938 4.75586 9.96094ZM11.5332 5.82031L10.2734 6.81641L10.2734 8.18359L11.6406 9.22852L12.9297 8.71094L13.4082 7.16797C14.0234 7.92969 14.4141 8.89648 14.4141 9.9707L13.1641 9.27734L11.8066 9.82422L11.2891 11.4062L12.0312 12.334L13.6914 12.3535C13.1152 13.252 12.2363 13.916 11.2109 14.2188L11.5527 12.7246L10.8789 11.8652L9.05273 11.8652L8.37891 12.7246L8.73047 14.2188C7.69531 13.916 6.81641 13.252 6.24023 12.3535L7.91016 12.334L8.64258 11.416L8.125 9.82422L6.76758 9.27734L5.51758 9.9707C5.51758 8.89648 5.9082 7.92969 6.5332 7.16797L7.00195 8.71094L8.29102 9.22852L9.66797 8.18359L9.66797 6.81641L8.39844 5.82031C8.88672 5.625 9.43359 5.52734 9.9707 5.52734C10.5176 5.52734 11.0449 5.625 11.5332 5.82031Z" fill="var(--color-primary)"/>
 </g>
</svg>
