<?xml version="1.0" encoding="UTF-8"?>
<!--Generator: Apple Native CoreSVG 326-->
<!DOCTYPE svg
PUBLIC "-//W3C//DTD SVG 1.1//EN"
       "http://www.w3.org/Graphics/SVG/1.1/DTD/svg11.dtd">
<svg version="1.1" xmlns="http://www.w3.org/2000/svg" xmlns:xlink="http://www.w3.org/1999/xlink" viewBox="0 0 20.2832 19.9316">
 <g>
  <rect height="19.9316" opacity="0" width="20.2832" x="0" y="0"/>
  <path d="M9.96094 19.9219C15.459 19.9219 19.9219 15.459 19.9219 9.96094C19.9219 4.46289 15.459 0 9.96094 0C4.46289 0 0 4.46289 0 9.96094C0 15.459 4.46289 19.9219 9.96094 19.9219ZM9.96094 18.2617C5.37109 18.2617 1.66016 14.5508 1.66016 9.96094C1.66016 5.37109 5.37109 1.66016 9.96094 1.66016C14.5508 1.66016 18.2617 5.37109 18.2617 9.96094C18.2617 14.5508 14.5508 18.2617 9.96094 18.2617Z" fill="white" fill-opacity="0.85"/>
  <path d="M9.95117 15.1855C12.8418 15.1855 15.1855 12.8516 15.1855 9.96094C15.1855 7.07031 12.8418 4.72656 9.95117 4.72656C7.06055 4.72656 4.72656 7.07031 4.72656 9.96094C4.72656 12.8516 7.06055 15.1855 9.95117 15.1855ZM6.23047 12.3828C5.78125 11.6895 5.52734 10.8789 5.51758 10L6.64062 9.35547L8.04688 9.93164L8.50586 11.3574L7.73438 12.3535ZM6.45508 7.20703C6.97266 6.57227 7.64648 6.05469 8.4375 5.78125L9.54102 6.66016L9.54102 8.1543L8.28125 9.11133L6.86523 8.53516ZM13.457 7.20703L13.0566 8.53516L11.6406 9.11133L10.3906 8.1543L10.3906 6.64062L11.4746 5.78125C12.2656 6.05469 12.9492 6.57227 13.457 7.20703ZM13.6816 12.4023L12.1875 12.373L11.416 11.3672L11.875 9.93164L13.2812 9.35547L14.4043 10C14.3945 10.8789 14.1309 11.709 13.6816 12.4023ZM9.96094 14.4043C9.53125 14.4043 9.12109 14.3359 8.73047 14.2285L8.4082 12.8613L9.0918 11.9824L10.8105 11.9824L11.5137 12.8906L11.1914 14.2285C10.8008 14.3457 10.3906 14.4043 9.96094 14.4043Z" fill="white" fill-opacity="0.85"/>
 </g>
</svg>
