<?xml version="1.0" encoding="UTF-8"?>
<!--Generator: Apple Native CoreSVG 326-->
<!DOCTYPE svg
PUBLIC "-//W3C//DTD SVG 1.1//EN"
       "http://www.w3.org/Graphics/SVG/1.1/DTD/svg11.dtd">
<svg version="1.1" xmlns="http://www.w3.org/2000/svg" xmlns:xlink="http://www.w3.org/1999/xlink" viewBox="0 0 18.3398 17.9785">
 <g>
  <rect height="17.9785" opacity="0" width="18.3398" x="0" y="0"/>
  <path d="M17.9785 3.02734L17.9785 14.9609C17.9785 16.9727 16.9629 17.9785 14.9121 17.9785L3.06641 17.9785C1.02539 17.9785 0 16.9727 0 14.9609L0 3.02734C0 1.01562 1.02539 0 3.06641 0L14.9121 0C16.9629 0 17.9785 1.01562 17.9785 3.02734ZM3.61328 13.7988C3.25195 13.7988 2.99805 14.0625 2.99805 14.4043C2.99805 14.7363 3.25195 15 3.61328 15L10.8496 15C11.2012 15 11.4551 14.7363 11.4551 14.4043C11.4551 14.0625 11.2012 13.7988 10.8496 13.7988ZM3.61328 10.459C3.25195 10.459 2.99805 10.7227 2.99805 11.0547C2.99805 11.3965 3.25195 11.6602 3.61328 11.6602L13.4277 11.6602C13.7695 11.6602 14.0234 11.3965 14.0234 11.0547C14.0234 10.7227 13.7695 10.459 13.4277 10.459ZM4.10156 2.66602C3.47656 2.66602 3.0957 3.04688 3.0957 3.66211L3.0957 6.12305C3.0957 6.73828 3.47656 7.11914 4.10156 7.11914L6.54297 7.11914C7.16797 7.11914 7.54883 6.73828 7.54883 6.12305L7.54883 3.66211C7.54883 3.04688 7.16797 2.66602 6.54297 2.66602Z" fill="white" fill-opacity="0.85"/>
 </g>
</svg>
