<svg version="1.1" xmlns="http://www.w3.org/2000/svg" xmlns:xlink="http://www.w3.org/1999/xlink" viewBox="0 0 17.6953 20.9473">
 <g>
  <rect height="20.9473" opacity="0" width="17.6953" x="0" y="0"/>
  <path d="M3.06641 20.9473L14.2676 20.9473C16.3086 20.9473 17.334 19.9316 17.334 17.9199L17.334 8.28125C17.334 6.26953 16.3086 5.25391 14.2676 5.25391L3.06641 5.25391C1.02539 5.25391 0 6.25977 0 8.28125L0 17.9199C0 19.9414 1.02539 20.9473 3.06641 20.9473ZM8.67188 0.0585938C9.0918 0.0585938 9.44336 0.400391 9.44336 0.810547L9.44336 10.7422L9.38477 12.207L9.93164 11.6309L11.4453 10.0195C11.582 9.86328 11.7773 9.78516 11.9727 9.78516C12.373 9.78516 12.6855 10.0684 12.6855 10.4688C12.6855 10.6836 12.5977 10.8398 12.4512 10.9863L9.22852 14.0918C9.0332 14.2871 8.86719 14.3457 8.67188 14.3457C8.4668 14.3457 8.30078 14.2871 8.10547 14.0918L4.88281 10.9863C4.73633 10.8398 4.64844 10.6836 4.64844 10.4688C4.64844 10.0684 4.94141 9.78516 5.35156 9.78516C5.54688 9.78516 5.75195 9.86328 5.88867 10.0195L7.40234 11.6309L7.94922 12.207L7.89062 10.7422L7.89062 0.810547C7.89062 0.400391 8.25195 0.0585938 8.67188 0.0585938Z" fill="var(--color-primary)"/>
 </g>
</svg>
