<svg version="1.1" xmlns="http://www.w3.org/2000/svg" xmlns:xlink="http://www.w3.org/1999/xlink" viewBox="0 0 25.2344 25.9668">
 <g>
  <rect height="25.9668" opacity="0" width="25.2344" x="0" y="0"/>
  <path d="M23.5352 13.3008L23.5352 22.9395C23.5352 24.9512 22.5195 25.9668 20.4785 25.9668L9.27734 25.9668C7.23633 25.9668 6.21094 24.9609 6.21094 22.9395L6.21094 22.7734L15.5957 22.7734C18.3789 22.7734 19.9902 21.1621 19.9902 18.4082L19.9902 10.2734L20.4785 10.2734C22.5195 10.2734 23.5352 11.2891 23.5352 13.3008Z" fill="var(--color-primary)"/>
  <path d="M4.39453 21.4355L15.5957 21.4355C17.6465 21.4355 18.6621 20.4199 18.6621 18.4082L18.6621 8.76953C18.6621 6.75781 17.6465 5.74219 15.5957 5.74219L4.39453 5.74219C2.36328 5.74219 1.32812 6.74805 1.32812 8.76953L1.32812 18.4082C1.32812 20.4297 2.36328 21.4355 4.39453 21.4355ZM10 0.546875C10.4199 0.546875 10.7715 0.888672 10.7715 1.29883L10.7715 11.2305L10.7129 12.6953L11.2598 12.1191L12.7734 10.5078C12.9102 10.3516 13.1152 10.2734 13.3008 10.2734C13.7012 10.2734 14.0137 10.5664 14.0137 10.957C14.0137 11.1719 13.9258 11.3281 13.7793 11.4746L10.5664 14.5801C10.3711 14.7754 10.1953 14.834 10 14.834C9.79492 14.834 9.62891 14.7754 9.43359 14.5801L6.21094 11.4746C6.06445 11.3281 5.98633 11.1719 5.98633 10.957C5.98633 10.5664 6.2793 10.2734 6.67969 10.2734C6.875 10.2734 7.08984 10.3516 7.22656 10.5078L8.73047 12.1191L9.28711 12.6953L9.21875 11.2305L9.21875 1.29883C9.21875 0.888672 9.58008 0.546875 10 0.546875Z" fill="var(--color-primary)"/>
 </g>
</svg>
