<svg version="1.1" xmlns="http://www.w3.org/2000/svg" xmlns:xlink="http://www.w3.org/1999/xlink" viewBox="0 0 18.3398 17.998">
 <g>
  <rect height="17.998" opacity="0" width="18.3398" x="0" y="0"/>
  <path d="M11.6699 17.998L16.1133 17.998C17.3535 17.998 17.9785 17.3828 17.9785 16.0938L17.9785 11.7188C17.9785 10.4395 17.3535 9.81445 16.1133 9.81445L11.6699 9.81445C10.4199 9.81445 9.79492 10.4395 9.79492 11.7188L9.79492 16.0938C9.79492 17.3828 10.4199 17.998 11.6699 17.998Z" fill="var(--color-primary)"/>
  <path d="M1.86523 17.998L6.31836 17.998C7.55859 17.998 8.18359 17.3828 8.18359 16.0938L8.18359 11.7188C8.18359 10.4395 7.55859 9.81445 6.31836 9.81445L1.86523 9.81445C0.625 9.81445 0 10.4395 0 11.7188L0 16.0938C0 17.3828 0.625 17.998 1.86523 17.998Z" fill="var(--color-primary)"/>
  <path d="M11.6699 8.20312L16.1133 8.20312C17.3535 8.20312 17.9785 7.57812 17.9785 6.28906L17.9785 1.92383C17.9785 0.634766 17.3535 0.0195312 16.1133 0.0195312L11.6699 0.0195312C10.4199 0.0195312 9.79492 0.634766 9.79492 1.92383L9.79492 6.28906C9.79492 7.57812 10.4199 8.20312 11.6699 8.20312Z" fill="var(--color-primary)"/>
  <path d="M1.86523 8.20312L6.31836 8.20312C7.55859 8.20312 8.18359 7.57812 8.18359 6.28906L8.18359 1.92383C8.18359 0.634766 7.55859 0.0195312 6.31836 0.0195312L1.86523 0.0195312C0.625 0.0195312 0 0.634766 0 1.92383L0 6.28906C0 7.57812 0.625 8.20312 1.86523 8.20312Z" fill="var(--color-primary)"/>
 </g>
</svg>
