<?xml version="1.0" encoding="UTF-8"?>
<!--Generator: Apple Native CoreSVG 326-->
<!DOCTYPE svg
PUBLIC "-//W3C//DTD SVG 1.1//EN"
       "http://www.w3.org/Graphics/SVG/1.1/DTD/svg11.dtd">
<svg version="1.1" xmlns="http://www.w3.org/2000/svg" xmlns:xlink="http://www.w3.org/1999/xlink" viewBox="0 0 20.3223 20.8301">
 <g>
  <rect height="20.8301" opacity="0" width="20.3223" x="0" y="0"/>
  <path d="M18.8574 13.2812C19.6484 13.75 19.9609 14.1016 19.9609 14.6387C19.9609 15.1758 19.6484 15.5273 18.8574 15.9863L11.2207 20.4297C10.752 20.7031 10.3711 20.8301 9.98047 20.8301C9.58008 20.8301 9.20898 20.7031 8.74023 20.4297L1.09375 15.9863C0.302734 15.5273 0 15.1758 0 14.6387C0 14.1016 0.302734 13.75 1.09375 13.2812L5.65806 10.6348L8.74023 12.4219C9.20898 12.6953 9.58008 12.8223 9.98047 12.8223C10.3711 12.8223 10.752 12.6953 11.2207 12.4219L14.2989 10.6348Z" fill="white" fill-opacity="0.85"/>
  <path d="M9.98047 12.8223C10.3711 12.8223 10.752 12.6953 11.2207 12.4219L18.8574 7.98828C19.6484 7.51953 19.9609 7.16797 19.9609 6.63086C19.9609 6.09375 19.6484 5.74219 18.8574 5.2832L11.2207 0.839844C10.752 0.566406 10.3711 0.439453 9.98047 0.439453C9.58008 0.439453 9.20898 0.566406 8.74023 0.839844L1.09375 5.2832C0.302734 5.74219 0 6.09375 0 6.63086C0 7.16797 0.302734 7.51953 1.09375 7.98828L8.74023 12.4219C9.20898 12.6953 9.58008 12.8223 9.98047 12.8223ZM9.98047 11.1133C9.84375 11.1133 9.70703 11.0742 9.54102 10.9766L2.10938 6.72852C2.07031 6.70898 2.04102 6.67969 2.04102 6.63086C2.04102 6.58203 2.07031 6.5625 2.10938 6.5332L9.54102 2.28516C9.70703 2.19727 9.84375 2.14844 9.98047 2.14844C10.1172 2.14844 10.2539 2.19727 10.4102 2.28516L17.8418 6.5332C17.8906 6.5625 17.9199 6.58203 17.9199 6.63086C17.9199 6.67969 17.8906 6.70898 17.8418 6.72852L10.4102 10.9766C10.2539 11.0742 10.1172 11.1133 9.98047 11.1133Z" fill="white" fill-opacity="0.85"/>
 </g>
</svg>
