<svg version="1.1" xmlns="http://www.w3.org/2000/svg" xmlns:xlink="http://www.w3.org/1999/xlink" width="21.8848" height="21.5723" viewBox="0 0 21.8848 21.5723">
 <g>
  <rect height="21.5723" opacity="0" width="21.8848" x="0" y="0"/>
  <path d="M5.80078 21.5723C6.18164 21.5723 6.46484 21.377 6.92383 20.9473L10.4492 17.7246L17.0508 17.7246C19.9609 17.7246 21.5234 16.123 21.5234 13.2617L21.5234 5.78125C21.5234 2.91992 19.9609 1.30859 17.0508 1.30859L4.47266 1.30859C1.5625 1.30859 0 2.91016 0 5.78125L0 13.2617C0 16.1328 1.5625 17.7246 4.47266 17.7246L4.93164 17.7246L4.93164 20.5664C4.93164 21.1719 5.24414 21.5723 5.80078 21.5723Z" fill="var(--color-tertiary)"/>
  <path d="M8.62305 13.3203C8.20312 13.6328 7.70508 13.3496 7.90039 12.793L8.75 10.2734L6.54297 8.70117C6.09375 8.37891 6.28906 7.86133 6.79688 7.86133L9.51172 7.86133L10.3223 5.36133C10.4883 4.86328 11.0645 4.86328 11.2207 5.36133L12.0215 7.86133L14.7363 7.86133C15.2441 7.86133 15.4395 8.37891 14.9902 8.70117L12.8027 10.2734L13.6426 12.793C13.8281 13.3496 13.3398 13.6328 12.9102 13.3203L10.7715 11.748Z" fill="var(--color-primary)"/>
 </g>
</svg>
