<?xml version="1.0" encoding="UTF-8"?>
<!--Generator: Apple Native CoreSVG 326-->
<!DOCTYPE svg
PUBLIC "-//W3C//DTD SVG 1.1//EN"
       "http://www.w3.org/Graphics/SVG/1.1/DTD/svg11.dtd">
<svg version="1.1" xmlns="http://www.w3.org/2000/svg" xmlns:xlink="http://www.w3.org/1999/xlink" viewBox="0 0 23.8867 19.5071">
 <g>
  <rect height="19.5071" opacity="0" width="23.8867" x="0" y="0"/>
  <path d="M23.5254 11.7116C23.5254 5.55921 18.7988 0.510381 12.7832 0.00256812C12.4707-0.0267288 12.2363 0.197881 12.2363 0.510381L12.2363 3.70374C12.2363 3.96741 12.4219 4.17249 12.6855 4.19202C16.4258 4.65101 19.3359 7.84436 19.3359 11.7116C19.3359 13.4694 18.7305 15.0905 17.666 16.4479C17.5293 16.6139 17.5391 16.8287 17.6855 16.985L20.0195 19.3092C20.2344 19.5241 20.5664 19.5241 20.7617 19.2897C22.4902 17.2389 23.5254 14.5924 23.5254 11.7116Z" fill="white" fill-opacity="0.85"/>
  <path d="M0 11.7116C0 14.6022 1.03516 17.2487 2.76367 19.2994C2.95898 19.5338 3.28125 19.5241 3.50586 19.3092L5.83984 16.985C5.98633 16.8287 5.99609 16.6139 5.85938 16.4479C4.78516 15.0905 4.18945 13.4694 4.18945 11.7116C4.18945 7.84436 7.09961 4.65101 10.8398 4.19202C11.1035 4.17249 11.2891 3.96741 11.2891 3.70374L11.2891 0.510381C11.2891 0.197881 11.0547-0.0267288 10.7422 0.00256812C4.72656 0.510381 0 5.55921 0 11.7116Z" fill="white" fill-opacity="0.85"/>
  <path d="M8.62305 16.1647L14.4336 16.1647C14.7266 16.1647 14.9512 15.9596 14.9512 15.6764C14.9512 15.403 14.7266 15.1881 14.4336 15.1881L9.91211 15.1881L9.91211 15.1588C10.6836 14.8561 11.0449 13.9674 11.0449 13.1178C11.0449 12.7858 11.0254 12.4928 10.957 12.2389L13.457 12.2389C13.7012 12.2389 13.8867 12.0631 13.8867 11.8385C13.8867 11.6139 13.6914 11.4381 13.457 11.4381L10.7422 11.4381C10.6055 10.8717 10.5664 10.569 10.5664 10.2174C10.5664 9.09436 11.416 8.4596 12.6465 8.4596C13.0859 8.4596 13.3887 8.51819 13.6426 8.57679C13.8184 8.62561 13.9844 8.65491 14.1113 8.65491C14.3848 8.65491 14.541 8.50843 14.541 8.23499C14.541 7.98108 14.3555 7.82483 14.1211 7.72718C13.584 7.53186 13.2031 7.48304 12.5293 7.48304C10.6543 7.48304 9.39453 8.51819 9.39453 10.2467C9.39453 10.6178 9.44336 10.9889 9.58008 11.4381L8.54492 11.4381C8.30078 11.4381 8.11523 11.6139 8.11523 11.8385C8.11523 12.0631 8.30078 12.2389 8.54492 12.2389L9.79492 12.2389C9.88281 12.5612 9.93164 12.8737 9.93164 13.1569C9.93164 14.0944 9.45312 14.778 8.57422 15.1002C8.30078 15.1979 8.125 15.3737 8.125 15.6569C8.125 15.9498 8.33008 16.1647 8.62305 16.1647Z" fill="white" fill-opacity="0.85"/>
 </g>
</svg>
