<?xml version="1.0" encoding="UTF-8"?>
<!--Generator: Apple Native CoreSVG 326-->
<!DOCTYPE svg
PUBLIC "-//W3C//DTD SVG 1.1//EN"
       "http://www.w3.org/Graphics/SVG/1.1/DTD/svg11.dtd">
<svg version="1.1" xmlns="http://www.w3.org/2000/svg" xmlns:xlink="http://www.w3.org/1999/xlink" viewBox="0 0 20.2832 19.9316">
 <g>
  <rect height="19.9316" opacity="0" width="20.2832" x="0" y="0"/>
  <path d="M9.96094 19.9219C15.459 19.9219 19.9219 15.459 19.9219 9.96094C19.9219 4.46289 15.459 0 9.96094 0C4.46289 0 0 4.46289 0 9.96094C0 15.459 4.46289 19.9219 9.96094 19.9219ZM9.96094 18.2617C5.37109 18.2617 1.66016 14.5508 1.66016 9.96094C1.66016 5.37109 5.37109 1.66016 9.96094 1.66016C14.5508 1.66016 18.2617 5.37109 18.2617 9.96094C18.2617 14.5508 14.5508 18.2617 9.96094 18.2617Z" fill="white" fill-opacity="0.85"/>
  <path d="M6.82617 14.2773L12.627 14.2773C12.9199 14.2773 13.1543 14.082 13.1543 13.7988C13.1543 13.5254 12.9199 13.3105 12.627 13.3105L8.11523 13.3105L8.11523 13.2715C8.88672 12.9785 9.24805 12.0898 9.24805 11.2402C9.24805 10.8984 9.21875 10.6055 9.16016 10.3516L11.6504 10.3516C11.8945 10.3516 12.0801 10.1758 12.0801 9.95117C12.0801 9.73633 11.8945 9.56055 11.6504 9.56055L8.93555 9.56055C8.79883 8.99414 8.76953 8.69141 8.76953 8.33984C8.76953 7.2168 9.61914 6.58203 10.8496 6.58203C11.2891 6.58203 11.5918 6.63086 11.8457 6.69922C12.0215 6.73828 12.1875 6.77734 12.3047 6.77734C12.5781 6.77734 12.7441 6.63086 12.7441 6.35742C12.7441 6.09375 12.5488 5.9375 12.3145 5.84961C11.7871 5.64453 11.4062 5.60547 10.7324 5.60547C8.85742 5.60547 7.59766 6.63086 7.59766 8.36914C7.59766 8.74023 7.64648 9.10156 7.7832 9.56055L6.74805 9.56055C6.50391 9.56055 6.31836 9.73633 6.31836 9.95117C6.31836 10.1758 6.50391 10.3516 6.74805 10.3516L7.99805 10.3516C8.07617 10.6836 8.13477 10.9863 8.13477 11.2793C8.13477 12.207 7.64648 12.9004 6.77734 13.2227C6.50391 13.3203 6.32812 13.4863 6.32812 13.7793C6.32812 14.0723 6.5332 14.2773 6.82617 14.2773Z" fill="white" fill-opacity="0.85"/>
 </g>
</svg>
