<svg version="1.1" xmlns="http://www.w3.org/2000/svg" xmlns:xlink="http://www.w3.org/1999/xlink" viewBox="0 0 18.3398 17.9785">
 <g>
  <rect height="17.9785" opacity="0" width="18.3398" x="0" y="0"/>
  <path d="M3.06641 17.9785L14.9121 17.9785C16.9629 17.9785 17.9785 16.9727 17.9785 14.9609L17.9785 3.02734C17.9785 1.01562 16.9629 0 14.9121 0L3.06641 0C1.02539 0 0 1.01562 0 3.02734L0 14.9609C0 16.9727 1.02539 17.9785 3.06641 17.9785ZM3.08594 16.4062C2.10938 16.4062 1.57227 15.8887 1.57227 14.873L1.57227 3.11523C1.57227 2.09961 2.10938 1.57227 3.08594 1.57227L14.8926 1.57227C15.8594 1.57227 16.4062 2.09961 16.4062 3.11523L16.4062 14.873C16.4062 15.8887 15.8594 16.4062 14.8926 16.4062Z" fill="var(--color-primary)"/>
  <path d="M5.86914 13.3008L11.6699 13.3008C11.9629 13.3008 12.1973 13.1055 12.1973 12.8223C12.1973 12.5488 11.9629 12.334 11.6699 12.334L7.1582 12.334L7.1582 12.2949C7.92969 12.002 8.29102 11.1133 8.29102 10.2637C8.29102 9.92188 8.27148 9.62891 8.20312 9.375L10.6934 9.375C10.9375 9.375 11.123 9.19922 11.123 8.97461C11.123 8.75977 10.9375 8.58398 10.6934 8.58398L7.98828 8.58398C7.85156 8.01758 7.8125 7.71484 7.8125 7.36328C7.8125 6.24023 8.66211 5.60547 9.89258 5.60547C10.332 5.60547 10.6348 5.6543 10.8887 5.72266C11.0645 5.76172 11.2305 5.80078 11.3477 5.80078C11.6211 5.80078 11.7871 5.6543 11.7871 5.38086C11.7871 5.11719 11.5918 4.96094 11.3574 4.87305C10.8301 4.66797 10.4492 4.62891 9.77539 4.62891C7.90039 4.62891 6.64062 5.6543 6.64062 7.39258C6.64062 7.76367 6.68945 8.125 6.82617 8.58398L5.79102 8.58398C5.54688 8.58398 5.36133 8.75977 5.36133 8.97461C5.36133 9.19922 5.54688 9.375 5.79102 9.375L7.04102 9.375C7.11914 9.70703 7.17773 10.0098 7.17773 10.3027C7.17773 11.2305 6.69922 11.9238 5.82031 12.2461C5.54688 12.3438 5.37109 12.5098 5.37109 12.8027C5.37109 13.0957 5.57617 13.3008 5.86914 13.3008Z" fill="var(--color-primary)"/>
 </g>
</svg>
