<?xml version="1.0" encoding="UTF-8"?>
<!--Generator: Apple Native CoreSVG 326-->
<!DOCTYPE svg
PUBLIC "-//W3C//DTD SVG 1.1//EN"
       "http://www.w3.org/Graphics/SVG/1.1/DTD/svg11.dtd">
<svg version="1.1" xmlns="http://www.w3.org/2000/svg" xmlns:xlink="http://www.w3.org/1999/xlink" viewBox="0 0 22.8027 21.416">
 <g>
  <rect height="21.416" opacity="0" width="22.8027" x="0" y="0"/>
  <path d="M3.34961 11.7676C4.43359 11.7676 5.38086 11.2695 5.97656 10.4785C6.5625 11.2695 7.50977 11.7676 8.59375 11.7676C9.6875 11.7676 10.6348 11.2695 11.2207 10.4785C11.8066 11.2695 12.7539 11.7676 13.8477 11.7676C14.9414 11.7676 15.8789 11.2695 16.4746 10.4785C17.0605 11.2695 18.0078 11.7676 19.0918 11.7676C20.9668 11.7676 22.4414 10.293 22.4414 8.4375L22.4414 8.27148C22.4414 7.89062 22.3438 7.54883 22.1484 7.2168L19.5605 2.79297L19.5605 1.98242C19.5605 0.742188 18.7988 0 17.5391 0L4.91211 0C3.65234 0 2.88086 0.742188 2.88086 1.98242L2.88086 2.79297L0.292969 7.2168C0.0976562 7.54883 0 7.89062 0 8.27148L0 8.4375C0 10.293 1.47461 11.7676 3.34961 11.7676ZM4.35547 2.49023L4.35547 2.25586C4.35547 1.76758 4.63867 1.47461 5.11719 1.47461L17.3242 1.47461C17.8027 1.47461 18.0859 1.76758 18.0859 2.25586L18.0859 2.49023ZM1.68945 7.69531L3.80859 3.96484L18.5547 3.96484L20.7324 7.69531ZM1.46484 9.07227L5.23438 9.07227C5.01953 9.86328 4.35547 10.3906 3.34961 10.3906C2.34375 10.3906 1.67969 9.86328 1.46484 9.07227ZM6.71875 9.07227L10.4785 9.07227C10.2637 9.86328 9.59961 10.3906 8.59375 10.3906C7.59766 10.3906 6.92383 9.86328 6.71875 9.07227ZM11.9629 9.07227L15.7324 9.07227C15.5176 9.86328 14.8535 10.3906 13.8477 10.3906C12.8418 10.3906 12.1777 9.86328 11.9629 9.07227ZM17.2168 9.07227L20.9766 9.07227C20.7617 9.86328 20.0977 10.3906 19.0918 10.3906C18.0957 10.3906 17.4219 9.86328 17.2168 9.07227ZM3.87695 21.4062L18.5645 21.4062C19.9512 21.4062 20.7617 20.6152 20.7617 19.248L20.7617 10.957L19.1895 11.0156L19.1895 18.8477C19.1895 19.4824 18.8574 19.834 18.2324 19.834L4.21875 19.834C3.59375 19.834 3.25195 19.4824 3.25195 18.8477L3.25195 11.0059L1.67969 10.9863L1.67969 19.248C1.67969 20.6152 2.49023 21.4062 3.87695 21.4062ZM4.80469 20.7617L10.4395 20.7617L10.4395 14.3555C10.4395 13.9062 10.1465 13.6133 9.69727 13.6133L5.55664 13.6133C5.10742 13.6133 4.80469 13.9062 4.80469 14.3555ZM12.2754 13.8379L12.2754 16.5918C12.2754 17.0508 12.5684 17.334 13.0273 17.334L16.9922 17.334C17.4414 17.334 17.7246 17.0508 17.7246 16.5918L17.7246 13.8379C17.7246 13.3789 17.4414 13.0957 16.9922 13.0957L13.0273 13.0957C12.5684 13.0957 12.2754 13.3789 12.2754 13.8379Z" fill="white" fill-opacity="0.85"/>
 </g>
</svg>
