<?xml version="1.0" encoding="UTF-8"?>
<!--Generator: Apple Native CoreSVG 326-->
<!DOCTYPE svg
PUBLIC "-//W3C//DTD SVG 1.1//EN"
       "http://www.w3.org/Graphics/SVG/1.1/DTD/svg11.dtd">
<svg version="1.1" xmlns="http://www.w3.org/2000/svg" xmlns:xlink="http://www.w3.org/1999/xlink" viewBox="0 0 25.3906 17.4902">
 <g>
  <rect height="17.4902" opacity="0" width="25.3906" x="0" y="0"/>
  <path d="M17.8027 11.25C17.8027 8.35938 15.4102 5.94727 12.5195 5.94727C9.61914 5.94727 7.22656 8.35938 7.22656 11.25C7.22656 11.9629 7.37305 12.6367 7.64648 13.252L17.3828 13.252C17.6562 12.6367 17.8027 11.9629 17.8027 11.25ZM2.11914 11.8066L4.52148 11.8066C5.0293 11.8066 5.41016 11.4551 5.40039 11.0156C5.39062 10.5762 5.01953 10.2246 4.52148 10.2246L2.11914 10.2246C1.61133 10.2246 1.25 10.5762 1.25 11.0156C1.25 11.4551 1.61133 11.8066 2.11914 11.8066ZM6.29883 6.17188C6.65039 6.5332 7.17773 6.54297 7.48047 6.23047C7.7832 5.91797 7.7832 5.40039 7.42188 5.04883L5.72266 3.34961C5.36133 2.97852 4.86328 2.99805 4.55078 3.30078C4.23828 3.60352 4.22852 4.11133 4.59961 4.47266ZM17.5488 6.23047C17.8613 6.5332 18.3789 6.5332 18.7305 6.17188L20.4297 4.47266C20.8008 4.11133 20.7812 3.61328 20.4785 3.30078C20.1758 2.98828 19.668 2.97852 19.3066 3.34961L17.6074 5.04883C17.2461 5.40039 17.2363 5.92773 17.5488 6.23047ZM20.5078 11.8066L22.9102 11.8066C23.418 11.8066 23.7793 11.4551 23.7793 11.0156C23.7793 10.5762 23.418 10.2246 22.9102 10.2246L20.5078 10.2246C20.0098 10.2246 19.6191 10.5762 19.6289 11.0156C19.6387 11.4551 20.0098 11.8066 20.5078 11.8066ZM12.5195 4.15039C12.9492 4.14062 13.3105 3.76953 13.3105 3.27148L13.3105 0.869141C13.3105 0.361328 12.9492 0 12.5195 0C12.0801 0 11.7188 0.361328 11.7188 0.869141L11.7188 3.27148C11.7188 3.76953 12.0801 4.16016 12.5195 4.15039Z" fill="white" fill-opacity="0.85"/>
  <path d="M0.849609 15.957L24.1797 15.957C24.6387 15.957 25.0293 15.6055 25.0293 15.1758C25.0293 14.7461 24.6387 14.3945 24.1797 14.3945L0.849609 14.3945C0.390625 14.3945 0 14.7461 0 15.1758C0 15.6055 0.390625 15.957 0.849609 15.957Z" fill="white" fill-opacity="0.85"/>
 </g>
</svg>
