<svg version="1.1" xmlns="http://www.w3.org/2000/svg" xmlns:xlink="http://www.w3.org/1999/xlink" viewBox="0 0 22.9004 23.5059">
 <g>
  <rect height="23.5059" opacity="0" width="22.9004" x="0" y="0"/>
  <path d="M16.5625 11.25C16.5625 8.36914 14.1602 5.95703 11.2695 5.95703C8.37891 5.95703 5.97656 8.36914 5.97656 11.25C5.97656 11.9531 6.13281 12.627 6.38672 13.2227L16.1426 13.2227C16.4062 12.627 16.5625 11.9531 16.5625 11.25ZM0.869141 11.8066L3.27148 11.8066C3.7793 11.8066 4.16016 11.4551 4.15039 11.0156C4.14062 10.5859 3.7793 10.2246 3.27148 10.2246L0.869141 10.2246C0.361328 10.2246 0 10.5762 0 11.0156C0 11.4551 0.361328 11.8066 0.869141 11.8066ZM6.23047 6.23047C6.5332 5.91797 6.5332 5.41016 6.17188 5.04883L4.47266 3.34961C4.11133 2.98828 3.61328 2.99805 3.30078 3.30078C2.98828 3.60352 2.98828 4.11133 3.34961 4.47266L5.04883 6.17188C5.41016 6.5332 5.92773 6.54297 6.23047 6.23047ZM11.2695 4.15039C11.709 4.14062 12.0605 3.76953 12.0605 3.27148L12.0605 0.869141C12.0605 0.361328 11.709 0 11.2695 0C10.8301 0 10.4785 0.361328 10.4785 0.869141L10.4785 3.27148C10.4785 3.76953 10.8301 4.16016 11.2695 4.15039ZM16.3086 6.23047C16.6113 6.5332 17.1289 6.5332 17.4902 6.17188L19.1895 4.47266C19.5508 4.11133 19.541 3.61328 19.2285 3.30078C18.9355 2.98828 18.4277 2.98828 18.0566 3.34961L16.3574 5.04883C16.0059 5.41016 15.9961 5.92773 16.3086 6.23047ZM19.2676 11.8066L21.6699 11.8066C22.1777 11.8164 22.5391 11.4551 22.5391 11.0156C22.5391 10.5859 22.1777 10.2246 21.6699 10.2246L19.2676 10.2246C18.7598 10.2246 18.3789 10.5762 18.3887 11.0156C18.3984 11.4551 18.7598 11.8066 19.2676 11.8066Z" fill="var(--color-primary)"/>
  <path d="M5.32227 20.166L6.5918 17.9688C6.76758 17.666 6.66992 17.3242 6.38672 17.1484C6.08398 16.9824 5.75195 17.0801 5.57617 17.373L4.29688 19.5996C4.13086 19.8828 4.20898 20.2246 4.51172 20.3906C4.80469 20.5566 5.15625 20.459 5.32227 20.166ZM7.58789 22.9492L10.4785 17.9492C10.6445 17.666 10.5566 17.334 10.2734 17.1582C10 16.9922 9.63867 17.0801 9.47266 17.373L6.60156 22.3535C6.43555 22.6562 6.52344 22.998 6.81641 23.1641C7.08984 23.3301 7.42188 23.2422 7.58789 22.9492ZM13.0859 20.1562L14.3652 17.959C14.541 17.6562 14.4434 17.3145 14.1504 17.1387C13.8574 16.9727 13.5254 17.0703 13.3398 17.3633L12.0605 19.5898C11.8945 19.873 11.9824 20.2148 12.2852 20.3809C12.5684 20.5469 12.9199 20.4492 13.0859 20.1562ZM15.3613 22.9395L18.2422 17.9395C18.418 17.6562 18.3301 17.3242 18.0469 17.1484C17.7637 16.9824 17.4121 17.0703 17.2363 17.3633L14.375 22.3438C14.209 22.6465 14.2871 22.9883 14.5801 23.1543C14.8633 23.3203 15.1953 23.2324 15.3613 22.9395Z" fill="var(--color-primary)"/>
  <path d="M1.32812 15.5957L21.1621 15.5957C21.5137 15.5957 21.7773 15.332 21.7773 14.9805C21.7773 14.6289 21.5137 14.3652 21.1621 14.3652L1.32812 14.3652C0.986328 14.3652 0.712891 14.6289 0.712891 14.9805C0.712891 15.332 0.986328 15.5957 1.32812 15.5957Z" fill="var(--color-primary)"/>
 </g>
</svg>
