<?xml version="1.0" encoding="UTF-8"?>
<!--Generator: Apple Native CoreSVG 326-->
<!DOCTYPE svg
PUBLIC "-//W3C//DTD SVG 1.1//EN"
       "http://www.w3.org/Graphics/SVG/1.1/DTD/svg11.dtd">
<svg version="1.1" xmlns="http://www.w3.org/2000/svg" xmlns:xlink="http://www.w3.org/1999/xlink" viewBox="0 0 35 27.041">
 <g>
  <rect height="27.041" opacity="0" width="35" x="0" y="0"/>
  <path d="M32.9785 7.86133L33.418 8.50586C34.1895 9.61914 34.6387 11.0156 34.6387 12.2363L34.6387 16.4062C34.6387 18.3398 33.8672 19.2188 32.1582 19.2188L30.6435 19.2187C30.1981 20.5301 28.9723 21.4453 27.4902 21.4453C26.0081 21.4453 24.7823 20.5301 24.337 19.2187L10.9169 19.2187C10.4716 20.5301 9.24576 21.4453 7.76367 21.4453C6.28158 21.4453 5.05576 20.5301 4.61041 19.2187L2.49023 19.2188C0.9375 19.2188 0 18.2617 0 16.6699L0 14.9902C0 12.3145 1.65039 10.791 4.98047 10.3809L8.62305 9.93164L12.5586 7.46094C14.1155 6.48868 15.3415 5.98369 17.1204 5.75133L17.1671 7.32907C15.7221 7.54185 14.7267 7.97917 13.3984 8.80859L9.16016 11.4453L5.18555 11.9434C2.74414 12.2559 1.57227 13.2422 1.57227 14.9902L1.57227 16.4746C1.57227 17.2168 1.94336 17.6465 2.57812 17.6465L4.45741 17.6465C4.67121 15.9961 6.04517 14.7656 7.76367 14.7656C9.48218 14.7656 10.8561 15.9961 11.0699 17.6465L24.184 17.6465C24.3978 15.9961 25.7717 14.7656 27.4902 14.7656C29.2087 14.7656 30.5827 15.9961 30.7965 17.6465L32.0703 17.6465C32.7637 17.6465 33.0664 17.2852 33.0664 16.5039L33.0664 12.2363C33.0664 11.3086 32.7148 10.2539 32.1191 9.39453L31.6797 8.75977C30.8789 7.61719 29.9023 7.14844 28.2129 7.14844L21.6273 7.14844L21.6739 5.57617L28.2129 5.57617C30.4785 5.57617 31.8555 6.23047 32.9785 7.86133ZM5.99609 18.1055C5.99609 19.1016 6.76758 19.873 7.76367 19.873C8.75977 19.873 9.53125 19.1016 9.53125 18.1055C9.53125 17.1094 8.75977 16.3379 7.76367 16.3379C6.76758 16.3379 5.99609 17.1094 5.99609 18.1055ZM25.7227 18.1055C25.7227 19.1016 26.4941 19.873 27.4902 19.873C28.4863 19.873 29.2578 19.1016 29.2578 18.1055C29.2578 17.1094 28.4863 16.3379 27.4902 16.3379C26.4941 16.3379 25.7227 17.1094 25.7227 18.1055Z" fill="white" fill-opacity="0.85"/>
  <path d="M19.3945 14.4629C20.0977 14.4629 20.6738 13.8867 20.6738 13.2227C20.6738 12.5488 20.1074 11.9922 19.3945 11.9922C18.6914 11.9922 18.1152 12.5488 18.1152 13.2227C18.1152 13.8867 18.7012 14.4629 19.3945 14.4629ZM19.3945 10.127C19.873 10.127 20.2148 9.78516 20.2344 9.28711L20.4395 2.37305C20.459 1.74805 20.0391 1.33789 19.3945 1.33789C18.75 1.33789 18.3398 1.74805 18.3594 2.37305L18.5645 9.28711C18.584 9.78516 18.916 10.127 19.3945 10.127Z" fill="white" fill-opacity="0.85"/>
 </g>
</svg>
