<?xml version="1.0" encoding="UTF-8"?>
<!--Generator: Apple Native CoreSVG 326-->
<!DOCTYPE svg
PUBLIC "-//W3C//DTD SVG 1.1//EN"
       "http://www.w3.org/Graphics/SVG/1.1/DTD/svg11.dtd">
<svg version="1.1" xmlns="http://www.w3.org/2000/svg" xmlns:xlink="http://www.w3.org/1999/xlink" viewBox="0 0 33.2432 27.1701">
 <g>
  <rect height="27.1701" opacity="0" width="33.2432" x="0" y="0"/>
  <path d="M8.5845 20.7677L10.7134 19.5274L10.0786 18.4239L8.00833 19.6251C7.56887 19.879 7.12942 19.7227 6.82669 19.2052L6.23098 18.17C5.51809 16.9395 5.93801 15.7774 7.52981 14.5665L10.1177 12.6036L12.022 9.03914C12.9888 7.22273 13.7603 6.48055 16.3872 4.96687L21.7388 1.88094C22.9204 1.19734 23.7993 1.12898 24.8247 1.59773L25.3911 1.87117C26.1529 2.2325 26.8267 2.8282 27.2075 3.47273L28.9361 6.47078C29.2486 7.01766 29.1802 7.39851 28.6919 7.68172L27.0122 8.64851L27.647 9.75203L29.395 8.74617C30.5962 8.05281 30.7818 7.12508 29.9907 5.76766L28.3111 2.83797C27.813 1.98836 26.9341 1.18758 25.938 0.718827L25.3716 0.44539C23.9263-0.238204 22.6958-0.140548 21.104 0.777421L15.7525 3.86336C12.9302 5.49422 11.9634 6.41219 10.8892 8.43367L9.13137 11.7637L6.74856 13.5509C4.58059 15.1915 4.04348 16.9298 5.12747 18.8048L5.8013 19.9864C6.44583 21.0997 7.49075 21.3927 8.5845 20.7677ZM13.9263 17.6817L24.5025 11.5684L23.8677 10.4747L13.2915 16.5782ZM13.1841 20.1915C14.5025 19.4298 14.9322 17.8087 14.1802 16.4903C13.4185 15.1817 11.7974 14.7423 10.479 15.504C9.17044 16.2657 8.73098 17.8868 9.4927 19.1954C10.2544 20.5137 11.8755 20.9532 13.1841 20.1915ZM12.5493 19.088C11.856 19.4884 10.9966 19.2637 10.5962 18.5606C10.1861 17.8673 10.4204 17.0079 11.1138 16.6075C11.8169 16.2071 12.6763 16.4317 13.0767 17.1251C13.4771 17.8282 13.2525 18.6876 12.5493 19.088ZM27.022 12.2032C28.3404 11.4415 28.7798 9.82039 28.0181 8.50203C27.2564 7.19344 25.6353 6.75398 24.3169 7.5157C23.0083 8.26766 22.5689 9.89851 23.3306 11.2071C24.0923 12.5255 25.7134 12.9552 27.022 12.2032ZM26.3872 11.0997C25.6939 11.5001 24.8345 11.2755 24.4341 10.5723C24.0337 9.87898 24.2583 9.01961 24.9517 8.61922C25.6548 8.20906 26.5142 8.44344 26.9146 9.1368C27.315 9.83992 27.0904 10.6895 26.3872 11.0997Z" fill="white" fill-opacity="0.85"/>
  <path d="M4.39505 21.9298L2.35403 18.3751C2.01223 17.7696 1.31887 17.9259 1.12356 18.502L0.0493421 21.5196C-0.0971423 21.9298 0.0884046 22.2618 0.527858 22.3399L3.66262 22.9259C4.27786 23.043 4.74661 22.5157 4.39505 21.9298ZM6.0845 26.7149C6.31887 27.1055 6.79739 27.213 7.15872 27.0177L32.5005 12.3887C32.8618 12.1934 32.9888 11.7052 32.7837 11.3341C32.5591 10.9434 32.0708 10.8262 31.7095 11.0313L6.3677 25.6602C6.01614 25.8555 5.87942 26.3438 6.0845 26.7149Z" fill="white" fill-opacity="0.85"/>
 </g>
</svg>
