<?xml version="1.0" encoding="UTF-8"?>
<!--Generator: Apple Native CoreSVG 326-->
<!DOCTYPE svg
PUBLIC "-//W3C//DTD SVG 1.1//EN"
       "http://www.w3.org/Graphics/SVG/1.1/DTD/svg11.dtd">
<svg version="1.1" xmlns="http://www.w3.org/2000/svg" xmlns:xlink="http://www.w3.org/1999/xlink" viewBox="0 0 35 24.1456">
 <g>
  <rect height="24.1456" opacity="0" width="35" x="0" y="0"/>
  <path d="M7.76367 19.6558C9.22852 19.6558 10.3809 18.5035 10.3809 17.0484C10.3809 15.5933 9.21875 14.4312 7.76367 14.4312C6.31836 14.4312 5.15625 15.5933 5.15625 17.0484C5.15625 18.4937 6.31836 19.6558 7.76367 19.6558ZM27.4414 19.6558C28.8965 19.6558 30.0586 18.4937 30.0586 17.0484C30.0586 15.5933 28.8965 14.4312 27.4414 14.4312C26.0059 14.4312 24.834 15.6031 24.834 17.0484C24.834 18.4937 25.9961 19.6558 27.4414 19.6558ZM33.418 7.05815L32.9785 6.41361C31.8555 4.78276 30.4785 4.12846 28.2129 4.12846L20.5859 4.12846C16.5625 4.12846 14.9512 4.51908 12.5586 6.01322L8.62305 8.48393L4.98047 8.93315C1.65039 9.3433 0 10.8667 0 13.5425L0 15.2222C0 16.814 0.9375 17.771 2.49023 17.771L4.08203 17.771C4.04297 17.5367 4.01367 17.3023 4.01367 17.0484C4.01367 14.9683 5.69336 13.2984 7.76367 13.2984C9.84375 13.2984 11.5137 14.9683 11.5137 17.0484C11.5137 17.3023 11.4941 17.5367 11.4453 17.771L23.7598 17.771C23.7207 17.5367 23.6914 17.3023 23.6914 17.0484C23.6914 14.9781 25.3809 13.2984 27.4414 13.2984C29.5215 13.2984 31.1914 14.9683 31.1914 17.0484C31.1914 17.3023 31.1719 17.5367 31.123 17.771L32.1582 17.771C33.8672 17.771 34.6387 16.8921 34.6387 14.9585L34.6387 10.7886C34.6387 9.56791 34.1895 8.17143 33.418 7.05815Z" fill="white" fill-opacity="0.85"/>
  <path d="M15.3711 19.4605C14.8438 19.4605 14.6191 19.8902 14.9023 20.3492L17.0117 23.816C17.2852 24.2652 17.8027 24.2456 18.0664 23.816L20.1953 20.3492C20.4785 19.8902 20.2344 19.4605 19.7168 19.4605Z" fill="white" fill-opacity="0.85"/>
 </g>
</svg>
