<svg version="1.1" xmlns="http://www.w3.org/2000/svg" xmlns:xlink="http://www.w3.org/1999/xlink" width="18.3398" height="17.998" viewBox="0 0 18.3398 17.998">
 <g>
  <rect height="17.998" opacity="0" width="18.3398" x="0" y="0"/>
  <path d="M3.06641 17.998L14.9121 17.998C16.9629 17.998 17.9785 16.9824 17.9785 14.9707L17.9785 3.04688C17.9785 1.03516 16.9629 0.0195312 14.9121 0.0195312L3.06641 0.0195312C1.02539 0.0195312 0 1.02539 0 3.04688L0 14.9707C0 16.9922 1.02539 17.998 3.06641 17.998Z" fill="var(--color-tertiary)"/>
  <path d="M8.97461 13.6523C8.44727 13.6523 8.17383 13.2715 8.17383 12.7344L8.17383 5.67383L5.70312 5.67383C5.3125 5.67383 5.01953 5.41016 5.01953 5.00977C5.01953 4.58984 5.3125 4.3457 5.70312 4.3457L12.2852 4.3457C12.6758 4.3457 12.9688 4.58984 12.9688 5.00977C12.9688 5.41016 12.6758 5.67383 12.2852 5.67383L9.78516 5.67383L9.78516 12.7344C9.78516 13.291 9.50195 13.6523 8.97461 13.6523Z" fill="var(--color-primary)"/>
 </g>
</svg>
