<svg version="1.1" xmlns="http://www.w3.org/2000/svg" xmlns:xlink="http://www.w3.org/1999/xlink" viewBox="0 0 20.2832 19.9316">
 <g>
  <rect height="19.9316" opacity="0" width="20.2832" x="0" y="0"/>
  <path d="M19.9219 9.9707C19.9219 15.4688 15.459 19.9316 9.96094 19.9316C4.47266 19.9316 0 15.4688 0 9.9707C0 4.48242 4.47266 0.00976562 9.96094 0.00976562C15.459 0.00976562 19.9219 4.48242 19.9219 9.9707ZM3.75 7.1875C3.34961 7.57812 3.13477 8.10547 3.13477 8.71094C3.13477 10.0684 4.17969 11.709 5.5957 13.1152C6.98242 14.502 8.66211 15.5859 10.0195 15.5859C10.6543 15.5859 11.2012 15.3223 11.5625 14.9219C11.9141 14.5215 12.0215 14.248 12.0215 13.9746C12.0215 13.7695 11.9043 13.5938 11.5918 13.3691L10.4199 12.5391C10.1367 12.334 10.0098 12.2949 9.83398 12.2949C9.67773 12.2949 9.56055 12.3242 9.31641 12.4609L8.55469 12.8711C8.45703 12.9297 8.41797 12.9492 8.34961 12.9492C8.26172 12.9492 8.21289 12.9199 8.11523 12.8711C7.74414 12.7051 7.23633 12.3145 6.77734 11.8555C6.33789 11.4062 5.99609 10.9375 5.79102 10.5859C5.78125 10.5371 5.75195 10.459 5.75195 10.3906C5.75195 10.3223 5.78125 10.2637 5.82031 10.2051L6.26953 9.44336C6.38672 9.21875 6.42578 9.12109 6.42578 8.94531C6.42578 8.75977 6.37695 8.56445 6.18164 8.30078L5.38086 7.1875C5.15625 6.875 4.98047 6.67969 4.72656 6.67969C4.4043 6.67969 4.0332 6.92383 3.75 7.1875ZM8.04688 9.4043C7.71484 9.4043 7.54883 9.57031 7.54883 9.91211L7.54883 10.7422C7.54883 11.0742 7.71484 11.25 8.04688 11.25L8.87695 11.25C9.22852 11.25 9.4043 11.0742 9.4043 10.7422L9.4043 9.91211C9.4043 9.57031 9.22852 9.4043 8.87695 9.4043ZM10.5078 9.4043C10.1758 9.4043 9.98047 9.57031 9.98047 9.91211L9.98047 10.7422C9.98047 11.0742 10.1758 11.25 10.5078 11.25L13.7988 11.25C14.1309 11.25 14.3066 11.0742 14.3066 10.7422L14.3066 9.91211C14.3066 9.57031 14.1309 9.4043 13.7988 9.4043ZM15.4004 9.4043C15.0879 9.4043 14.8926 9.57031 14.8926 9.91211L14.8926 10.7422C14.8926 11.0742 15.0879 11.25 15.4004 11.25L16.2402 11.25C16.5918 11.25 16.7578 11.0742 16.7578 10.7422L16.7578 9.91211C16.7578 9.57031 16.5918 9.4043 16.2402 9.4043ZM8.05664 6.95312C7.73438 6.95312 7.54883 7.12891 7.54883 7.4707L7.54883 8.28125C7.54883 8.60352 7.73438 8.80859 8.05664 8.80859L8.88672 8.80859C9.22852 8.80859 9.4043 8.60352 9.4043 8.28125L9.4043 7.4707C9.4043 7.12891 9.22852 6.95312 8.88672 6.95312ZM10.5176 6.95312C10.1855 6.95312 9.98047 7.12891 9.98047 7.4707L9.98047 8.28125C9.98047 8.60352 10.1855 8.80859 10.5176 8.80859L11.3477 8.80859C11.6699 8.80859 11.8457 8.60352 11.8457 8.28125L11.8457 7.4707C11.8457 7.12891 11.6699 6.95312 11.3477 6.95312ZM12.9395 6.95312C12.6172 6.95312 12.4414 7.12891 12.4414 7.4707L12.4414 8.28125C12.4414 8.60352 12.6172 8.80859 12.9395 8.80859L13.7793 8.80859C14.1016 8.80859 14.2969 8.60352 14.2969 8.28125L14.2969 7.4707C14.2969 7.12891 14.1016 6.95312 13.7793 6.95312ZM15.3906 6.95312C15.0684 6.95312 14.8828 7.12891 14.8828 7.4707L14.8828 8.28125C14.8828 8.60352 15.0684 8.80859 15.3906 8.80859L16.2207 8.80859C16.5723 8.80859 16.7578 8.60352 16.7578 8.28125L16.7578 7.4707C16.7578 7.12891 16.5723 6.95312 16.2207 6.95312Z" fill="var(--color-primary)"/>
 </g>
</svg>
