<?xml version="1.0" encoding="UTF-8"?>
<!--Generator: Apple Native CoreSVG 326-->
<!DOCTYPE svg
PUBLIC "-//W3C//DTD SVG 1.1//EN"
       "http://www.w3.org/Graphics/SVG/1.1/DTD/svg11.dtd">
<svg version="1.1" xmlns="http://www.w3.org/2000/svg" xmlns:xlink="http://www.w3.org/1999/xlink" viewBox="0 0 22.168 20.8496">
 <g>
  <rect height="20.8496" opacity="0" width="22.168" x="0" y="0"/>
  <path d="M12.0996 0.341797L20.4395 5.15625C20.8008 5.36133 20.9668 5.61523 20.9668 5.9082C20.9668 6.30859 20.6543 6.69922 20.1172 6.69922L19.2578 6.69922L19.2578 17.9297L19.8828 17.9297C20.2832 17.9297 20.5078 18.1641 20.5078 18.5547L20.5078 19.2676L21.0156 19.2676C21.4453 19.2676 21.8066 19.6191 21.8066 20.0488C21.8066 20.4785 21.4453 20.8398 21.0156 20.8398L0.78125 20.8398C0.351562 20.8398 0 20.4785 0 20.0488C0 19.6191 0.351562 19.2676 0.78125 19.2676L1.29883 19.2676L1.29883 18.5547C1.29883 18.1641 1.5332 17.9297 1.93359 17.9297L2.54883 17.9297L2.54883 6.69922L1.68945 6.69922C1.15234 6.69922 0.839844 6.30859 0.839844 5.9082C0.839844 5.61523 0.996094 5.36133 1.36719 5.15625L9.70703 0.341797C10.0781 0.117188 10.498 0 10.8984 0C11.2988 0 11.709 0.117188 12.0996 0.341797ZM7.92969 8.42773C7.65625 8.42773 7.46094 8.62305 7.46094 8.88672C7.46094 9.14062 7.65625 9.3457 7.92969 9.3457L10.332 9.3457L10.332 15.2539C10.332 15.6055 10.5859 15.8691 10.918 15.8691C11.2598 15.8691 11.5039 15.6055 11.5039 15.2539L11.5039 9.3457L13.8867 9.3457C14.1602 9.3457 14.3555 9.14062 14.3555 8.88672C14.3555 8.62305 14.1602 8.42773 13.8867 8.42773ZM7.77344 6.63086C7.58789 6.63086 7.43164 6.78711 7.43164 6.97266C7.43164 7.16797 7.58789 7.30469 7.77344 7.30469L14.0137 7.30469C14.1992 7.30469 14.3555 7.14844 14.3555 6.97266C14.3555 6.78711 14.1992 6.63086 14.0137 6.63086Z" fill="white" fill-opacity="0.85"/>
 </g>
</svg>
