<?xml version="1.0" encoding="UTF-8"?>
<!--Generator: Apple Native CoreSVG 326-->
<!DOCTYPE svg
PUBLIC "-//W3C//DTD SVG 1.1//EN"
       "http://www.w3.org/Graphics/SVG/1.1/DTD/svg11.dtd">
<svg version="1.1" xmlns="http://www.w3.org/2000/svg" xmlns:xlink="http://www.w3.org/1999/xlink" viewBox="0 0 20.4492 24.9121">
 <g>
  <rect height="24.9121" opacity="0" width="20.4492" x="0" y="0"/>
  <path d="M13.5156 24.1797C13.5156 24.5898 13.1836 24.9121 12.7734 24.9121L0.732422 24.9121C0.322266 24.9121 0 24.5898 0 24.1797C0 23.7695 0.322266 23.4375 0.732422 23.4375L12.7734 23.4375C13.1836 23.4375 13.5156 23.7695 13.5156 24.1797ZM20.0879 19.5898C20.0879 20.0098 19.7559 20.332 19.3457 20.332L0.732422 20.332C0.322266 20.332 0 20.0098 0 19.5898C0 19.1797 0.322266 18.8574 0.732422 18.8574L19.3457 18.8574C19.7559 18.8574 20.0879 19.1797 20.0879 19.5898Z" fill="white" fill-opacity="0.85"/>
  <path d="M20.0879 2.70508L20.0879 13.0664C20.0879 14.8438 19.1895 15.7324 17.373 15.7324L2.71484 15.7324C0.908203 15.7324 0 14.834 0 13.0664L0 2.70508C0 0.9375 0.917969 0.0195312 2.71484 0.0195312L17.373 0.0195312C19.1895 0.0195312 20.0879 0.927734 20.0879 2.70508ZM12.0996 8.07617L8.00781 11.709L6.38672 10.2344C6.00586 9.89258 5.57617 9.7168 5.15625 9.7168C4.77539 9.7168 4.36523 9.88281 3.99414 10.2148L1.48438 12.5195L1.48438 12.9297C1.48438 13.7695 1.97266 14.2578 2.80273 14.2578L17.334 14.2578C18.1445 14.2578 18.6523 13.7695 18.6523 12.9492L18.6523 11.7383L14.8242 8.0957C14.4434 7.71484 13.9355 7.53906 13.4766 7.53906C12.9785 7.53906 12.5195 7.71484 12.0996 8.07617ZM4.28711 5.97656C4.28711 7.13867 5.23438 8.08594 6.39648 8.08594C7.54883 8.08594 8.49609 7.13867 8.49609 5.97656C8.49609 4.82422 7.54883 3.87695 6.39648 3.87695C5.23438 3.87695 4.28711 4.82422 4.28711 5.97656Z" fill="white" fill-opacity="0.85"/>
 </g>
</svg>
