<?xml version="1.0" encoding="UTF-8"?>
<!--Generator: Apple Native CoreSVG 326-->
<!DOCTYPE svg
PUBLIC "-//W3C//DTD SVG 1.1//EN"
       "http://www.w3.org/Graphics/SVG/1.1/DTD/svg11.dtd">
<svg version="1.1" xmlns="http://www.w3.org/2000/svg" xmlns:xlink="http://www.w3.org/1999/xlink" viewBox="0 0 33.5938 23.5153">
 <g>
  <rect height="23.5153" opacity="0" width="33.5938" x="0" y="0"/>
  <path d="M0.263672 21.3621L2.88086 23.3153C3.4082 23.7059 4.07227 23.5008 4.07227 22.7977L4.07227 21.4207L29.1602 21.4207L29.1602 22.7977C29.1602 23.4813 29.8047 23.7254 30.3516 23.3153L32.959 21.3621C33.3203 21.0887 33.3105 20.5809 32.959 20.327L30.3516 18.3836C29.8047 17.9735 29.1602 18.2176 29.1602 18.8914L29.1602 20.2879L4.07227 20.2879L4.07227 18.8914C4.07227 18.2176 3.4375 17.9735 2.88086 18.3836L0.263672 20.327C-0.0878906 20.5906-0.0878906 21.0887 0.263672 21.3621Z" fill="white" fill-opacity="0.85"/>
  <path d="M1.01562 15.9324C1.37695 15.9324 1.73828 15.7176 1.91406 15.2098L3.18359 11.7235L9.00391 11.7235L10.2734 15.2098C10.459 15.7274 10.8105 15.9324 11.1719 15.9324C11.5918 15.9324 11.9922 15.6199 11.9922 15.1512C11.9922 14.9852 11.9629 14.8485 11.8848 14.6336L7.30469 2.44611C7.08984 1.86018 6.70898 1.57697 6.09375 1.57697C5.49805 1.57697 5.11719 1.86018 4.90234 2.43635L0.322266 14.6434C0.244141 14.8582 0.214844 14.9949 0.214844 15.161C0.214844 15.6395 0.595703 15.9324 1.01562 15.9324ZM3.63281 10.327L6.03516 3.67658L6.14258 3.67658L8.54492 10.327ZM14.2188 15.9324C14.6777 15.9324 15.0293 15.6102 15.0293 15.1024L15.0293 13.7547L15.0488 13.7547C15.5957 15.0926 16.8652 15.9422 18.4473 15.9422C21.0449 15.9422 22.7637 13.8719 22.7637 10.6883C22.7637 7.49494 21.0352 5.42463 18.4668 5.42463C16.9238 5.42463 15.6543 6.26447 15.0879 7.60236L15.0684 7.60236L15.0684 2.76838C15.0684 2.23127 14.7363 1.88947 14.2383 1.88947C13.7598 1.88947 13.418 2.23127 13.418 2.76838L13.418 15.1024C13.418 15.6199 13.7402 15.9324 14.2188 15.9324ZM18.0957 14.5067C16.3281 14.5067 15.0684 13.0028 15.0684 10.6883C15.0684 8.37385 16.3281 6.86994 18.0957 6.86994C19.9219 6.86994 21.0645 8.33479 21.0645 10.6883C21.0645 13.0516 19.9219 14.5067 18.0957 14.5067ZM28.6035 15.9422C30.4688 15.9422 32.0801 14.9071 32.6367 13.452C32.7051 13.286 32.7246 13.1199 32.7246 12.9832C32.7246 12.5633 32.4121 12.2703 32.002 12.2703C31.6406 12.2703 31.4453 12.4168 31.2207 12.8367C30.7324 13.911 29.8926 14.5067 28.6133 14.5067C26.7773 14.5067 25.5762 13.0613 25.5762 10.6883C25.5762 8.33479 26.7773 6.86018 28.6133 6.86018C29.834 6.86018 30.7031 7.42658 31.2012 8.54963C31.416 8.95002 31.6211 9.08674 31.9727 9.08674C32.3926 9.08674 32.6953 8.80354 32.6953 8.39338C32.6953 8.26643 32.666 8.11994 32.627 7.99299C32.1387 6.51838 30.5078 5.42463 28.5742 5.42463C25.7422 5.42463 23.8867 7.51447 23.8867 10.6981C23.8867 13.9012 25.7617 15.9422 28.6035 15.9422Z" fill="white" fill-opacity="0.85"/>
 </g>
</svg>
