<?xml version="1.0" encoding="UTF-8"?>
<!--Generator: Apple Native CoreSVG 326-->
<!DOCTYPE svg
PUBLIC "-//W3C//DTD SVG 1.1//EN"
       "http://www.w3.org/Graphics/SVG/1.1/DTD/svg11.dtd">
<svg version="1.1" xmlns="http://www.w3.org/2000/svg" xmlns:xlink="http://www.w3.org/1999/xlink" viewBox="0 0 20.0391 16.8848">
 <g>
  <rect height="16.8848" opacity="0" width="20.0391" x="0" y="0"/>
  <path d="M0.732422 1.47461L11.709 1.47461C12.1191 1.47461 12.4512 1.15234 12.4512 0.732422C12.4512 0.322266 12.1191 0 11.709 0L0.732422 0C0.322266 0 0 0.322266 0 0.732422C0 1.15234 0.322266 1.47461 0.732422 1.47461ZM14.6289 1.47461L18.9258 1.47461C19.3359 1.47461 19.6777 1.15234 19.6777 0.732422C19.6777 0.322266 19.3359 0 18.9258 0L14.6289 0C14.2188 0 13.8965 0.322266 13.8965 0.732422C13.8965 1.15234 14.2188 1.47461 14.6289 1.47461ZM0.742188 6.5918L2.80273 6.5918C3.22266 6.5918 3.54492 6.26953 3.54492 5.84961C3.54492 5.43945 3.22266 5.11719 2.80273 5.11719L0.742188 5.11719C0.332031 5.11719 0 5.43945 0 5.84961C0 6.26953 0.332031 6.5918 0.742188 6.5918ZM5.73242 6.5918L10.8691 6.5918C11.2891 6.5918 11.6113 6.26953 11.6113 5.84961C11.6113 5.43945 11.2891 5.11719 10.8691 5.11719L5.73242 5.11719C5.32227 5.11719 4.99023 5.43945 4.99023 5.84961C4.99023 6.26953 5.32227 6.5918 5.73242 6.5918ZM13.7988 6.5918L18.9355 6.5918C19.3457 6.5918 19.6777 6.26953 19.6777 5.84961C19.6777 5.43945 19.3457 5.11719 18.9355 5.11719L13.7988 5.11719C13.3887 5.11719 13.0469 5.43945 13.0469 5.84961C13.0469 6.26953 13.3887 6.5918 13.7988 6.5918ZM0.742188 11.709L5.03906 11.709C5.44922 11.709 5.78125 11.377 5.78125 10.9668C5.78125 10.5566 5.44922 10.2344 5.03906 10.2344L0.742188 10.2344C0.332031 10.2344 0 10.5566 0 10.9668C0 11.377 0.332031 11.709 0.742188 11.709ZM7.96875 11.709L18.9355 11.709C19.3457 11.709 19.6777 11.377 19.6777 10.9668C19.6777 10.5566 19.3457 10.2344 18.9355 10.2344L7.96875 10.2344C7.54883 10.2344 7.2168 10.5566 7.2168 10.9668C7.2168 11.377 7.54883 11.709 7.96875 11.709ZM0.732422 16.8164L11.1816 16.8164C11.5918 16.8164 11.9238 16.4941 11.9238 16.084C11.9238 15.6738 11.5918 15.3418 11.1816 15.3418L0.732422 15.3418C0.322266 15.3418 0 15.6738 0 16.084C0 16.4941 0.322266 16.8164 0.732422 16.8164Z" fill="white" fill-opacity="0.85"/>
 </g>
</svg>
