<?xml version="1.0" encoding="UTF-8"?>
<!--Generator: Apple Native CoreSVG 326-->
<!DOCTYPE svg
PUBLIC "-//W3C//DTD SVG 1.1//EN"
       "http://www.w3.org/Graphics/SVG/1.1/DTD/svg11.dtd">
<svg version="1.1" xmlns="http://www.w3.org/2000/svg" xmlns:xlink="http://www.w3.org/1999/xlink" viewBox="0 0 35.9898 25.2014">
 <g>
  <rect height="25.2014" opacity="0" width="35.9898" x="0" y="0"/>
  <path d="M22.3992 3.98256L32.0671 6.58998C33.9226 7.10756 34.6453 8.27943 34.1472 10.1154L32.3113 16.9611C30.9734 21.9904 27.3211 24.1876 22.5066 22.9083C20.2377 22.2962 18.5804 21.1398 17.6122 19.5581C20.1275 17.3752 21.0051 13.9981 19.9285 9.99818L18.844 5.96025C19.351 4.13293 20.5365 3.4807 22.3992 3.98256ZM20.1824 17.215C19.9773 17.5372 20.2019 17.8595 20.6023 17.7716C21.8523 17.4982 22.8191 17.5079 23.8445 17.7911C24.8699 18.0548 25.6902 18.5236 26.657 19.4025C26.95 19.6661 27.3211 19.5001 27.3015 19.1095C27.2429 17.547 26.0711 16.2384 24.3718 15.8087C22.7117 15.3497 21.0222 15.8966 20.1824 17.215ZM27.0769 12.4884C26.8914 13.172 27.282 13.8654 27.9558 14.0411C28.6394 14.2267 29.323 13.8263 29.4988 13.1525C29.6843 12.4689 29.2937 11.7755 28.6101 11.6095C27.9363 11.424 27.2527 11.8146 27.0769 12.4884ZM21.3347 10.965C21.1492 11.6583 21.5496 12.3419 22.2234 12.5079C22.907 12.6935 23.5906 12.3029 23.7761 11.629C23.9519 10.9552 23.5515 10.2619 22.8777 10.0763C22.1941 9.89076 21.5105 10.2911 21.3347 10.965Z" fill="white" fill-opacity="0.85"/>
  <path d="M13.1218 20.3986C17.9363 19.0997 19.9871 15.3693 18.6394 10.34L16.8035 3.50404C16.3152 1.6681 15.1043 1.00404 13.239 1.49232L3.56129 4.06068C1.67652 4.56849 0.983163 5.74037 1.49098 7.61537L3.30738 14.4415C4.64527 19.4611 8.29762 21.6876 13.1218 20.3986ZM7.28199 10.4865C6.5398 10.6915 6.45191 11.1798 6.12965 11.2286C5.99293 11.2579 5.80738 11.0919 5.72926 10.8087C5.49488 9.97865 6.02223 9.08998 6.8523 8.8849C7.70191 8.67982 8.57105 9.17787 8.79566 9.97865C8.88355 10.2716 8.80543 10.4962 8.64918 10.5548C8.28785 10.6818 7.94605 10.3107 7.28199 10.4865ZM13.239 8.87513C12.5066 9.08998 12.4089 9.56849 12.0867 9.60756C11.95 9.63685 11.7644 9.47084 11.6863 9.1974C11.4519 8.37709 11.9793 7.47865 12.8093 7.27357C13.6687 7.04896 14.5379 7.55677 14.7527 8.36732C14.8406 8.67006 14.7625 8.8849 14.6062 8.94349C14.2449 9.07045 13.9031 8.68959 13.239 8.87513ZM12.2039 16.9025C10.1629 17.4298 8.18043 16.7267 7.13551 15.0763C6.93043 14.7638 7.10621 14.4708 7.49683 14.5001C8.7859 14.6076 10.3289 14.3829 11.4519 14.0802C12.5457 13.797 13.9617 13.2306 15.0554 12.4786C15.3777 12.2443 15.6902 12.4103 15.6707 12.8107C15.6023 14.7638 14.2546 16.3361 12.2039 16.9025Z" fill="white" fill-opacity="0.85"/>
 </g>
</svg>
