<?xml version="1.0" encoding="UTF-8"?>
<!--Generator: Apple Native CoreSVG 326-->
<!DOCTYPE svg
PUBLIC "-//W3C//DTD SVG 1.1//EN"
       "http://www.w3.org/Graphics/SVG/1.1/DTD/svg11.dtd">
<svg version="1.1" xmlns="http://www.w3.org/2000/svg" xmlns:xlink="http://www.w3.org/1999/xlink" viewBox="0 0 14.2578 23.5645">
 <g>
  <rect height="23.5645" opacity="0" width="14.2578" x="0" y="0"/>
  <path d="M0.947266 1.57227L12.9492 1.57227C13.3789 1.57227 13.7305 1.21094 13.7305 0.78125C13.7305 0.351562 13.3789 0 12.9492 0L0.947266 0C0.517578 0 0.15625 0.351562 0.15625 0.78125C0.15625 1.21094 0.517578 1.57227 0.947266 1.57227ZM1.41602 9.72656L2.93945 9.08203L2.63672 4.04297L11.2598 4.04297L10.957 9.08203L12.4707 9.72656L12.9395 2.65625L0.947266 2.65625ZM6.94336 13.1348C11.0449 13.1348 13.8965 12.0898 13.8965 10.5859C13.8965 9.12109 11.0449 8.10547 6.94336 8.10547C2.85156 8.10547 0 9.12109 0 10.5859C0 12.0898 2.85156 13.1348 6.94336 13.1348ZM6.94336 11.8066C3.94531 11.8066 1.94336 11.3184 1.94336 10.5859C1.94336 9.90234 3.94531 9.43359 6.94336 9.43359C9.95117 9.43359 11.9531 9.90234 11.9531 10.5859C11.9531 11.3184 9.95117 11.8066 6.94336 11.8066ZM6.54297 17.7051L7.35352 17.7051C11.2305 17.7051 13.8965 14.8047 13.8965 10.5859L12.4512 10.5859C12.4512 13.9258 10.3809 16.2109 7.35352 16.2109L6.54297 16.2109C3.51562 16.2109 1.44531 13.9258 1.44531 10.5859L0 10.5859C0 14.8047 2.66602 17.7051 6.54297 17.7051ZM7.11914 23.5645C8.90625 23.5645 11.0156 23.1348 11.9434 22.207C12.1875 21.9531 12.1973 21.6211 12.0996 21.2695L10.4883 15.9473L9.08203 16.748L10.7129 22.1094L10.7812 21.1133C10.1465 21.6797 8.65234 21.9922 7.11914 21.9922C5.58594 21.9922 4.0918 21.6797 3.45703 21.1133L3.53516 22.1094L5.15625 16.748L3.75977 15.9473L2.13867 21.2695C2.04102 21.6211 2.05078 21.9531 2.30469 22.207C3.24219 23.1348 5.3418 23.5645 7.11914 23.5645Z" fill="white" fill-opacity="0.85"/>
 </g>
</svg>
