<?xml version="1.0" encoding="UTF-8"?>
<!--Generator: Apple Native CoreSVG 326-->
<!DOCTYPE svg
PUBLIC "-//W3C//DTD SVG 1.1//EN"
       "http://www.w3.org/Graphics/SVG/1.1/DTD/svg11.dtd">
<svg version="1.1" xmlns="http://www.w3.org/2000/svg" xmlns:xlink="http://www.w3.org/1999/xlink" viewBox="0 0 20.2832 19.9316">
 <g>
  <rect height="19.9316" opacity="0" width="20.2832" x="0" y="0"/>
  <path d="M19.9219 9.9707C19.9219 15.4688 15.459 19.9316 9.96094 19.9316C4.47266 19.9316 0 15.4688 0 9.9707C0 4.48242 4.47266 0.00976562 9.96094 0.00976562C15.459 0.00976562 19.9219 4.48242 19.9219 9.9707ZM10.5469 15.1758C10.2441 15.2148 9.92188 15.2246 9.61914 15.1855C9.29688 15.1367 9.10156 15.3223 9.07227 15.5469C9.04297 15.7812 9.17969 16.0156 9.52148 16.0645C9.88281 16.1035 10.2832 16.0938 10.6543 16.0547C10.9668 16.0156 11.1133 15.8008 11.1035 15.5469C11.0645 15.3125 10.8789 15.1367 10.5469 15.1758ZM12.8613 13.2422C11.9824 13.4766 10.9766 13.5449 10.0391 13.418C9.72656 13.3887 9.49219 13.5449 9.45312 13.8086C9.43359 14.0625 9.57031 14.2773 9.90234 14.3359C10.9082 14.4434 12.1289 14.4141 13.1738 14.1309C13.4766 14.0332 13.5938 13.7598 13.5156 13.5254C13.4277 13.2617 13.1836 13.1641 12.8613 13.2422ZM14.1113 11.1328C12.9004 11.5332 11.6895 11.7285 10.4004 11.7285C9.85352 11.7285 9.28711 11.6797 8.84766 11.6211C8.52539 11.5918 8.32031 11.7285 8.26172 11.9727C8.21289 12.2168 8.34961 12.4609 8.69141 12.5293C9.12109 12.6074 9.72656 12.6465 10.4004 12.6367C11.8652 12.627 13.2227 12.4219 14.4629 12.002C14.8047 11.8848 14.873 11.5723 14.7852 11.3574C14.6973 11.1133 14.4336 11.0352 14.1113 11.1328ZM14.0625 9.29688C13.0664 9.67773 11.6113 9.94141 10.0293 9.94141C8.85742 9.94141 7.53906 9.79492 6.49414 9.49219C6.20117 9.4043 5.9375 9.50195 5.84961 9.77539C5.78125 10.0293 5.92773 10.293 6.23047 10.3711C7.35352 10.6934 8.80859 10.8594 10.0293 10.8594C11.7676 10.8594 13.3594 10.5762 14.4824 10.1074C14.7559 10 14.873 9.72656 14.7559 9.47266C14.6191 9.22852 14.3555 9.17969 14.0625 9.29688ZM7.45117 3.94531C5.58594 4.51172 4.6582 5.50781 4.6582 6.57227C4.6582 8.21289 6.49414 9.05273 9.87305 9.05273C13.2422 9.05273 15.2539 8.19336 15.2539 6.95312C15.2539 5.81055 13.6523 5.13672 11.4355 5.13672C9.77539 5.13672 8.4668 5.44922 7.49023 5.91797C7.16797 6.07422 7.09961 6.40625 7.22656 6.63086C7.35352 6.89453 7.68555 6.96289 7.95898 6.83594C8.82812 6.47461 9.90234 6.12305 11.3867 6.12305C13.2031 6.12305 14.1992 6.52344 14.1992 6.94336C14.1992 7.43164 12.5977 8.03711 9.83398 8.03711C7.08984 8.03711 5.72266 7.50977 5.72266 6.55273C5.72266 5.99609 6.24023 5.39062 7.79297 4.90234C8.10547 4.79492 8.26172 4.52148 8.17383 4.23828C8.07617 3.95508 7.82227 3.84766 7.45117 3.94531Z" fill="white" fill-opacity="0.85"/>
 </g>
</svg>
