<?xml version="1.0" encoding="UTF-8"?>
<!--Generator: Apple Native CoreSVG 326-->
<!DOCTYPE svg
PUBLIC "-//W3C//DTD SVG 1.1//EN"
       "http://www.w3.org/Graphics/SVG/1.1/DTD/svg11.dtd">
<svg version="1.1" xmlns="http://www.w3.org/2000/svg" xmlns:xlink="http://www.w3.org/1999/xlink" viewBox="0 0 24.707 15.498">
 <g>
  <rect height="15.498" opacity="0" width="24.707" x="0" y="0"/>
  <path d="M0 12.5098C0 14.502 1.00586 15.498 3.02734 15.498L21.3184 15.498C23.3398 15.498 24.3457 14.502 24.3457 12.5098L24.3457 2.98828C24.3457 0.996094 23.3398 0 21.3184 0L5.39062 0C3.7207 0 2.75391 0.966797 2.25586 2.4707L0.332031 8.31055C0.0976562 8.99414 0 9.57031 0 10.3418ZM9.54102 7.57812L9.54102 4.57031C9.54102 3.98438 9.89258 3.64258 10.4688 3.64258L19.5117 3.64258C20.0977 3.64258 20.4395 3.98438 20.4395 4.57031L20.4395 7.57812C20.4395 8.13477 20.0977 8.47656 19.5117 8.47656L10.4688 8.47656C9.89258 8.47656 9.54102 8.13477 9.54102 7.57812ZM3.49609 8.47656C2.94922 8.47656 2.65625 8.03711 2.88086 7.34375L3.86719 4.3457C4.00391 3.91602 4.21875 3.64258 4.91211 3.64258L6.02539 3.64258C6.60156 3.64258 6.95312 3.98438 6.95312 4.57031L6.95312 7.57812C6.95312 8.13477 6.60156 8.47656 6.02539 8.47656Z" fill="white" fill-opacity="0.85"/>
 </g>
</svg>
