<?xml version="1.0" encoding="UTF-8"?>
<!--Generator: Apple Native CoreSVG 326-->
<!DOCTYPE svg
PUBLIC "-//W3C//DTD SVG 1.1//EN"
       "http://www.w3.org/Graphics/SVG/1.1/DTD/svg11.dtd">
<svg version="1.1" xmlns="http://www.w3.org/2000/svg" xmlns:xlink="http://www.w3.org/1999/xlink" viewBox="0 0 23.3887 25.4785">
 <g>
  <rect height="25.4785" opacity="0" width="23.3887" x="0" y="0"/>
  <path d="M19.1016 8.19336L22.4707 12.373C22.9102 12.9004 23.0273 13.3398 23.0273 14.2285L23.0273 20.0098C23.0273 22.0215 22.0117 23.0371 19.9609 23.0371L3.06641 23.0371C1.02539 23.0371 0 22.0215 0 20.0098L0 14.2285C0 13.3398 0.126953 12.9004 0.556641 12.373L3.93555 8.19336C5.07812 6.78711 5.57617 6.35742 7.31445 6.35742L8.90625 6.35742L8.90625 7.73438L7.19727 7.73438C6.48438 7.73438 5.9375 7.96875 5.45898 8.57422L1.83594 13.1543C1.66992 13.3594 1.73828 13.6328 2.06055 13.6328L8.49609 13.6328C9.00391 13.6328 9.24805 14.0234 9.24805 14.4238L9.24805 14.4629C9.24805 15.5957 10.1367 16.7871 11.5137 16.7871C12.9004 16.7871 13.7891 15.5957 13.7891 14.4629L13.7891 14.4238C13.7891 14.0234 14.0234 13.6328 14.5312 13.6328L20.9766 13.6328C21.2988 13.6328 21.3574 13.3594 21.2012 13.1543L17.5684 8.57422C17.0898 7.96875 16.543 7.73438 15.8301 7.73438L14.1211 7.73438L14.1211 6.35742L15.7129 6.35742C17.4512 6.35742 17.959 6.78711 19.1016 8.19336ZM1.57227 15.0684L1.57227 19.9219C1.57227 20.9375 2.10938 21.4648 3.08594 21.4648L19.9414 21.4648C20.9082 21.4648 21.4551 20.9375 21.4551 19.9219L21.4551 15.0684L15.2637 15.0684C15.0293 16.8848 13.4961 18.2422 11.5137 18.2422C9.53125 18.2422 7.99805 16.8945 7.76367 15.0684Z" fill="white" fill-opacity="0.85"/>
  <path d="M11.5137 13.3203C11.9336 13.3203 12.2949 12.9785 12.2949 12.5684L12.2949 3.60352L12.2266 2.14844L12.7832 2.72461L14.2871 4.33594C14.4238 4.49219 14.6289 4.57031 14.8145 4.57031C15.2246 4.57031 15.5273 4.27734 15.5273 3.87695C15.5273 3.67188 15.4492 3.51562 15.3027 3.36914L12.0801 0.263672C11.8848 0.0683594 11.7188 0 11.5137 0C11.3184 0 11.1426 0.0683594 10.9473 0.263672L7.72461 3.36914C7.57812 3.51562 7.5 3.67188 7.5 3.87695C7.5 4.27734 7.79297 4.57031 8.20312 4.57031C8.38867 4.57031 8.60352 4.49219 8.74023 4.33594L10.2441 2.72461L10.8008 2.13867L10.7422 3.60352L10.7422 12.5684C10.7422 12.9785 11.0938 13.3203 11.5137 13.3203Z" fill="white" fill-opacity="0.85"/>
 </g>
</svg>
