<?xml version="1.0" encoding="UTF-8"?>
<!--Generator: Apple Native CoreSVG 326-->
<!DOCTYPE svg
PUBLIC "-//W3C//DTD SVG 1.1//EN"
       "http://www.w3.org/Graphics/SVG/1.1/DTD/svg11.dtd">
<svg version="1.1" xmlns="http://www.w3.org/2000/svg" xmlns:xlink="http://www.w3.org/1999/xlink" viewBox="0 0 20.2832 19.9316">
 <g>
  <rect height="19.9316" opacity="0" width="20.2832" x="0" y="0"/>
  <path d="M9.96094 19.9219C15.459 19.9219 19.9219 15.459 19.9219 9.96094C19.9219 4.46289 15.459 0 9.96094 0C4.46289 0 0 4.46289 0 9.96094C0 15.459 4.46289 19.9219 9.96094 19.9219ZM9.96094 18.2617C5.37109 18.2617 1.66016 14.5508 1.66016 9.96094C1.66016 5.37109 5.37109 1.66016 9.96094 1.66016C14.5508 1.66016 18.2617 5.37109 18.2617 9.96094C18.2617 14.5508 14.5508 18.2617 9.96094 18.2617Z" fill="white" fill-opacity="0.85"/>
  <path d="M5.76172 13.9062L14.1602 13.9062C15.1758 13.9062 15.6836 13.3984 15.6836 12.4023L15.6836 9.73633C15.6836 9.28711 15.6055 9.0918 15.4004 8.80859L13.6816 6.48438C13.1152 5.71289 12.7832 5.52734 11.9336 5.52734L7.98828 5.52734C7.13867 5.52734 6.79688 5.71289 6.24023 6.48438L4.52148 8.80859C4.31641 9.0918 4.23828 9.28711 4.23828 9.73633L4.23828 12.4023C4.23828 13.3984 4.75586 13.9062 5.76172 13.9062ZM5.60547 9.41406C5.45898 9.41406 5.42969 9.28711 5.49805 9.18945L7.1875 6.88477C7.38281 6.61133 7.58789 6.50391 7.92969 6.50391L12.002 6.50391C12.3438 6.50391 12.5488 6.62109 12.7344 6.88477L14.4336 9.18945C14.502 9.27734 14.4629 9.41406 14.3164 9.41406L11.5039 9.41406C11.25 9.41406 11.1328 9.60938 11.1328 9.81445L11.1328 9.93164C11.1328 10.6055 10.6738 11.0352 9.96094 11.0352C9.24805 11.0352 8.80859 10.6055 8.80859 9.93164L8.80859 9.81445C8.80859 9.60938 8.67188 9.41406 8.41797 9.41406Z" fill="white" fill-opacity="0.85"/>
 </g>
</svg>
