<?xml version="1.0" encoding="UTF-8"?>
<!--Generator: Apple Native CoreSVG 326-->
<!DOCTYPE svg
PUBLIC "-//W3C//DTD SVG 1.1//EN"
       "http://www.w3.org/Graphics/SVG/1.1/DTD/svg11.dtd">
<svg version="1.1" xmlns="http://www.w3.org/2000/svg" xmlns:xlink="http://www.w3.org/1999/xlink" viewBox="0 0 20.7812 18.5645">
 <g>
  <rect height="18.5645" opacity="0" width="20.7812" x="0" y="0"/>
  <path d="M0 15.8105C0 17.3145 1.03516 18.5059 2.69531 18.5059L17.7246 18.5059C19.3848 18.5059 20.4199 17.3145 20.4199 15.8105C20.4199 15.3613 20.3027 14.9121 20.0586 14.4922L12.5293 1.36719C12.0215 0.478516 11.123 0 10.2051 0C9.29688 0 8.39844 0.478516 7.89062 1.36719L0.361328 14.4824C0.126953 14.9023 0 15.3613 0 15.8105ZM10.2051 16.9727L10.2051 1.5625C10.5859 1.5625 10.9766 1.73828 11.1914 2.10938L18.7109 15.2246C18.8086 15.4297 18.8379 15.6348 18.8379 15.8105C18.8379 16.416 18.3887 16.9727 17.7148 16.9727Z" fill="white" fill-opacity="0.85"/>
 </g>
</svg>
