<?xml version="1.0" encoding="UTF-8"?>
<!--Generator: Apple Native CoreSVG 326-->
<!DOCTYPE svg
PUBLIC "-//W3C//DTD SVG 1.1//EN"
       "http://www.w3.org/Graphics/SVG/1.1/DTD/svg11.dtd">
<svg version="1.1" xmlns="http://www.w3.org/2000/svg" xmlns:xlink="http://www.w3.org/1999/xlink" viewBox="0 0 20.2832 19.9316">
 <g>
  <rect height="19.9316" opacity="0" width="20.2832" x="0" y="0"/>
  <path d="M19.9219 9.9707C19.9219 15.4688 15.459 19.9316 9.96094 19.9316C4.47266 19.9316 0 15.4688 0 9.9707C0 4.48242 4.47266 0.00976562 9.96094 0.00976562C15.459 0.00976562 19.9219 4.48242 19.9219 9.9707ZM6.74805 9.9707C6.74805 11.7383 8.21289 13.1934 9.96094 13.1934C10.4492 13.1934 10.9082 13.0664 11.2988 12.832C10.3613 14.3848 8.64258 15.2832 6.5625 15.2832C6.21094 15.2832 5.97656 15.5469 5.97656 15.8691C5.97656 16.1719 6.21094 16.4355 6.5625 16.4355C10.2637 16.4355 13.1738 13.8965 13.1738 9.9707C13.1738 8.20312 11.709 6.74805 9.96094 6.74805C9.47266 6.74805 9.01367 6.875 8.62305 7.11914C9.56055 5.56641 11.2793 4.6582 13.3691 4.6582C13.7109 4.6582 13.9453 4.39453 13.9453 4.08203C13.9453 3.75977 13.7012 3.50586 13.3691 3.50586C9.6582 3.50586 6.74805 6.04492 6.74805 9.9707ZM12.0215 9.9707C12.0215 11.1133 11.1035 12.0312 9.96094 12.0312C8.81836 12.0312 7.90039 11.1133 7.90039 9.9707C7.90039 8.82812 8.81836 7.91016 9.96094 7.91016C11.1035 7.91016 12.0215 8.82812 12.0215 9.9707ZM8.96484 9.9707C8.96484 10.5176 9.41406 10.9668 9.96094 10.9668C10.5078 10.9668 10.957 10.5078 10.957 9.9707C10.957 9.42383 10.5078 8.97461 9.96094 8.97461C9.41406 8.97461 8.96484 9.42383 8.96484 9.9707Z" fill="white" fill-opacity="0.85"/>
 </g>
</svg>
