<?xml version="1.0" encoding="UTF-8"?>
<!--Generator: Apple Native CoreSVG 326-->
<!DOCTYPE svg
PUBLIC "-//W3C//DTD SVG 1.1//EN"
       "http://www.w3.org/Graphics/SVG/1.1/DTD/svg11.dtd">
<svg version="1.1" xmlns="http://www.w3.org/2000/svg" xmlns:xlink="http://www.w3.org/1999/xlink" viewBox="0 0 37.3926 23.755">
 <g>
  <rect height="23.755" opacity="0" width="37.3926" x="0" y="0"/>
  <path d="M2.49023 17.5757L5.10742 17.5757L5.10742 16.0035L2.57812 16.0035C1.94336 16.0035 1.57227 15.5738 1.57227 14.8316L1.57227 12.8589C1.57227 11.4624 2.46094 10.7203 4.50195 10.4078L8.47656 9.80229L12.7734 7.12651C14.6973 5.9351 16.377 5.50541 19.1797 5.50541L23.0371 5.50541C24.082 5.50541 24.668 6.03276 24.7852 7.05815L25.1074 10.0171L34.4629 10.0171C35.0879 10.0171 35.459 10.4566 35.459 11.189L35.459 14.8316C35.459 15.5738 35.0879 16.0035 34.4629 16.0035L30.5664 16.0035L30.5664 17.5757L34.5508 17.5757C36.1035 17.5757 37.0312 16.6187 37.0312 15.0269L37.0312 10.9937C37.0312 9.4019 36.1035 8.44486 34.5508 8.44486L26.543 8.44486L26.3574 6.8433C26.1328 4.90971 25.0488 3.93315 23.125 3.93315L19.1797 3.93315C16.0352 3.93315 14.1016 4.42143 11.9336 5.78861L7.93945 8.28861L4.29688 8.84526C1.33789 9.29447 0 10.564 0 12.8589L0 15.0269C0 16.6187 0.9375 17.5757 2.49023 17.5757ZM9.6875 17.5757L25.6641 17.5757L25.6641 16.0035L9.6875 16.0035ZM7.34375 19.8023C9.21875 19.8023 10.6836 18.3374 10.6836 16.4624C10.6836 14.5874 9.21875 13.1226 7.34375 13.1226C5.46875 13.1226 4.00391 14.5874 4.00391 16.4624C4.00391 18.3374 5.46875 19.8023 7.34375 19.8023ZM7.34375 18.23C6.34766 18.23 5.57617 17.4585 5.57617 16.4624C5.57617 15.4663 6.34766 14.6949 7.34375 14.6949C8.33984 14.6949 9.11133 15.4663 9.11133 16.4624C9.11133 17.4585 8.33984 18.23 7.34375 18.23ZM27.959 19.8023C29.834 19.8023 31.2988 18.3374 31.2988 16.4624C31.2988 14.5874 29.834 13.1226 27.959 13.1226C26.084 13.1226 24.6191 14.5874 24.6191 16.4624C24.6191 18.3374 26.084 19.8023 27.959 19.8023ZM27.959 18.23C26.9629 18.23 26.1914 17.4585 26.1914 16.4624C26.1914 15.4663 26.9629 14.6949 27.959 14.6949C28.9551 14.6949 29.7266 15.4663 29.7266 16.4624C29.7266 17.4585 28.9551 18.23 27.959 18.23Z" fill="white" fill-opacity="0.85"/>
  <path d="M15.5469 19.0699C15.0195 19.0699 14.7949 19.4996 15.0781 19.9585L17.1875 23.4253C17.4609 23.8746 17.9785 23.855 18.252 23.4253L20.3809 19.9585C20.6641 19.4996 20.4199 19.0699 19.9023 19.0699Z" fill="white" fill-opacity="0.85"/>
 </g>
</svg>
