<?xml version="1.0" encoding="UTF-8"?>
<!--Generator: Apple Native CoreSVG 326-->
<!DOCTYPE svg
PUBLIC "-//W3C//DTD SVG 1.1//EN"
       "http://www.w3.org/Graphics/SVG/1.1/DTD/svg11.dtd">
<svg version="1.1" xmlns="http://www.w3.org/2000/svg" xmlns:xlink="http://www.w3.org/1999/xlink" viewBox="0 0 37.3926 15.8887">
 <g>
  <rect height="15.8887" opacity="0" width="37.3926" x="0" y="0"/>
  <path d="M9.96094 12.9199C9.96094 14.375 8.80859 15.5273 7.34375 15.5273C5.89844 15.5273 4.73633 14.3652 4.73633 12.9199C4.73633 11.4648 5.89844 10.3027 7.34375 10.3027C8.79883 10.3027 9.96094 11.4648 9.96094 12.9199ZM30.5762 12.9199C30.5762 14.3652 29.4141 15.5273 27.959 15.5273C26.5039 15.5273 25.3418 14.3652 25.3418 12.9199C25.3418 11.4746 26.5137 10.3027 27.959 10.3027C29.4141 10.3027 30.5762 11.4648 30.5762 12.9199ZM26.3574 2.91016L26.5918 4.90234L34.5508 4.90234C36.1035 4.90234 37.0312 5.85938 37.0312 7.45117L37.0312 11.2891C37.0312 12.8809 36.1035 13.8379 34.5508 13.8379L31.5918 13.8379C31.6699 13.5352 31.709 13.2422 31.709 12.9199C31.709 10.8398 30.0391 9.16992 27.959 9.16992C25.8887 9.16992 24.209 10.8496 24.209 12.9199C24.209 13.2422 24.248 13.5352 24.3262 13.8379L10.9863 13.8379C11.0547 13.5449 11.0938 13.2422 11.0938 12.9199C11.0938 10.8398 9.42383 9.16992 7.34375 9.16992C5.27344 9.16992 3.59375 10.8398 3.59375 12.9199C3.59375 13.2422 3.64258 13.5352 3.71094 13.8379L2.49023 13.8379C0.9375 13.8379 0 12.8809 0 11.2891L0 8.92578C0 6.63086 1.33789 5.36133 4.29688 4.91211L7.93945 4.35547L11.9336 1.85547C14.1016 0.488281 16.0352 0 19.1797 0L23.125 0C25.0488 0 26.1328 0.976562 26.3574 2.91016ZM15.3223 3.66211C13.457 3.66211 12.1973 4.83398 12.1973 6.55273C12.1973 8.26172 13.457 9.4043 15.3125 9.4043L19.3262 9.4043L19.3262 10.3223C19.3262 10.8887 19.7266 11.0938 20.2246 10.7715L22.5684 9.22852C22.9395 8.99414 22.959 8.52539 22.5684 8.25195L20.2344 6.71875C19.7363 6.38672 19.3262 6.58203 19.3262 7.16797L19.3262 8.03711L15.3125 8.03711C14.2871 8.03711 13.6133 7.4707 13.6133 6.63086C13.6133 5.68359 14.2969 5.03906 15.3223 5.03906L21.2012 5.03906C21.6211 5.03906 21.9141 4.76562 21.9141 4.36523C21.9141 3.96484 21.6211 3.66211 21.1914 3.66211Z" fill="white" fill-opacity="0.85"/>
 </g>
</svg>
