<svg version="1.1" xmlns="http://www.w3.org/2000/svg" xmlns:xlink="http://www.w3.org/1999/xlink" viewBox="0 0 18.3398 17.9785">
 <g>
  <rect height="17.9785" opacity="0" width="18.3398" x="0" y="0"/>
  <path d="M17.9785 3.02734L17.9785 14.9609C17.9785 16.9727 16.9629 17.9785 14.9121 17.9785L3.06641 17.9785C1.02539 17.9785 0 16.9727 0 14.9609L0 3.02734C0 1.01562 1.02539 0 3.06641 0L14.9121 0C16.9629 0 17.9785 1.01562 17.9785 3.02734ZM5.97656 4.66797C5.63477 4.66797 5.41992 4.86328 5.41992 5.17578C5.41992 5.48828 5.64453 5.69336 5.97656 5.69336L8.4082 5.69336L8.4082 8.70117L6.75781 9.36523C6.5918 9.45312 6.51367 9.56055 6.51367 9.7168C6.51367 9.89258 6.65039 10.0391 6.8457 10.0391C6.9043 10.0391 6.97266 10.0293 7.04102 10.0098L8.4082 9.44336L8.4082 10.6934L6.75781 11.3574C6.5918 11.4258 6.51367 11.5332 6.51367 11.6895C6.51367 11.875 6.65039 12.0215 6.8457 12.0215C6.9043 12.0215 6.97266 12.0117 7.04102 11.9824L8.4082 11.4355L8.4082 13.1934C8.4082 13.5645 8.64258 13.7793 9.00391 13.7793C9.375 13.7793 9.58984 13.5645 9.58984 13.1934L9.58984 10.9473L11.2402 10.2832C11.416 10.2051 11.4941 10.1074 11.4941 9.94141C11.4941 9.72656 11.3379 9.60938 11.1719 9.60938C11.1133 9.60938 11.0449 9.62891 10.9766 9.64844L9.58984 10.2148L9.58984 8.97461L11.2402 8.30078C11.416 8.23242 11.4941 8.13477 11.4941 7.96875C11.4941 7.73438 11.3379 7.63672 11.1719 7.63672C11.1133 7.63672 11.0449 7.64648 10.9766 7.67578L9.58984 8.23242L9.58984 5.69336L12.0312 5.69336C12.373 5.69336 12.5879 5.46875 12.5879 5.17578C12.5879 4.86328 12.3633 4.66797 12.0312 4.66797Z" fill="var(--color-primary)"/>
 </g>
</svg>
