<?xml version="1.0" encoding="UTF-8"?>
<!--Generator: Apple Native CoreSVG 326-->
<!DOCTYPE svg
PUBLIC "-//W3C//DTD SVG 1.1//EN"
       "http://www.w3.org/Graphics/SVG/1.1/DTD/svg11.dtd">
<svg version="1.1" xmlns="http://www.w3.org/2000/svg" xmlns:xlink="http://www.w3.org/1999/xlink" viewBox="0 0 20.2832 19.9316">
 <g>
  <rect height="19.9316" opacity="0" width="20.2832" x="0" y="0"/>
  <path d="M19.9219 9.96094C19.9219 15.4492 15.459 19.9219 9.96094 19.9219C4.47266 19.9219 0 15.4492 0 9.96094C0 4.46289 4.47266 0 9.96094 0C15.459 0 19.9219 4.46289 19.9219 9.96094ZM7.35352 14.4824C7.07031 14.4824 6.83594 14.7168 6.83594 15C6.83594 15.2832 7.07031 15.5078 7.35352 15.5078L12.5879 15.5078C12.8711 15.5078 13.1055 15.2832 13.1055 15C13.1055 14.7168 12.8711 14.4824 12.5879 14.4824ZM5.44922 5.45898C4.62891 5.45898 4.04297 6.04492 4.04297 6.875L4.04297 12.0605C4.04297 12.8809 4.62891 13.457 5.44922 13.457L14.4531 13.457C15.2734 13.457 15.8691 12.8809 15.8691 12.0605L15.8691 6.875C15.8691 6.04492 15.2734 5.45898 14.4531 5.45898ZM14.8047 6.96289L14.8047 11.9629C14.8047 12.2461 14.6094 12.4414 14.3359 12.4414L5.57617 12.4414C5.30273 12.4414 5.10742 12.2461 5.10742 11.9629L5.10742 6.96289C5.10742 6.66992 5.30273 6.48438 5.57617 6.48438L14.3359 6.48438C14.6094 6.48438 14.8047 6.66992 14.8047 6.96289Z" fill="white" fill-opacity="0.85"/>
 </g>
</svg>
