<?xml version="1.0" encoding="UTF-8"?>
<!--Generator: Apple Native CoreSVG 326-->
<!DOCTYPE svg
PUBLIC "-//W3C//DTD SVG 1.1//EN"
       "http://www.w3.org/Graphics/SVG/1.1/DTD/svg11.dtd">
<svg version="1.1" xmlns="http://www.w3.org/2000/svg" xmlns:xlink="http://www.w3.org/1999/xlink" viewBox="0 0 20.2832 19.9316">
 <g>
  <rect height="19.9316" opacity="0" width="20.2832" x="0" y="0"/>
  <path d="M9.96094 19.9219C15.459 19.9219 19.9219 15.459 19.9219 9.96094C19.9219 4.46289 15.459 0 9.96094 0C4.46289 0 0 4.46289 0 9.96094C0 15.459 4.46289 19.9219 9.96094 19.9219ZM9.96094 18.2617C5.37109 18.2617 1.66016 14.5508 1.66016 9.96094C1.66016 5.37109 5.37109 1.66016 9.96094 1.66016C14.5508 1.66016 18.2617 5.37109 18.2617 9.96094C18.2617 14.5508 14.5508 18.2617 9.96094 18.2617Z" fill="white" fill-opacity="0.85"/>
  <path d="M7.32422 14.5312C7.85156 14.5312 8.20312 14.2676 8.32031 13.7793L9.90234 7.61719L9.9707 7.61719L11.5625 13.7793C11.6797 14.2676 12.0312 14.5312 12.5488 14.5312C13.0664 14.5312 13.3984 14.2578 13.5254 13.7598L15.459 6.34766C15.498 6.24023 15.5078 6.14258 15.5078 6.05469C15.5078 5.61523 15.2051 5.3125 14.7559 5.3125C14.2969 5.3125 14.082 5.52734 13.9551 6.08398L12.5 12.2949L12.4316 12.2949L10.791 5.97656C10.6738 5.53711 10.4004 5.33203 9.94141 5.33203C9.48242 5.33203 9.18945 5.53711 9.08203 5.97656L7.45117 12.2949L7.38281 12.2949L5.92773 6.08398C5.80078 5.52734 5.5957 5.3125 5.13672 5.3125C4.67773 5.3125 4.38477 5.61523 4.38477 6.05469C4.38477 6.14258 4.39453 6.24023 4.42383 6.34766L6.35742 13.7598C6.48438 14.2578 6.81641 14.5312 7.32422 14.5312Z" fill="white" fill-opacity="0.85"/>
 </g>
</svg>
