<?xml version="1.0" encoding="UTF-8"?>
<!--Generator: Apple Native CoreSVG 326-->
<!DOCTYPE svg
PUBLIC "-//W3C//DTD SVG 1.1//EN"
       "http://www.w3.org/Graphics/SVG/1.1/DTD/svg11.dtd">
<svg version="1.1" xmlns="http://www.w3.org/2000/svg" xmlns:xlink="http://www.w3.org/1999/xlink" viewBox="0 0 16.7871 20.9473">
 <g>
  <rect height="20.9473" opacity="0" width="16.7871" x="0" y="0"/>
  <path d="M3.02734 20.9375L13.3984 20.9375C15.4102 20.9375 16.4258 19.9121 16.4258 17.8809L16.4258 3.06641C16.4258 1.02539 15.4199 0 13.3984 0L10.918 0C10.5859 0 10.3613 0.234375 10.3613 0.585938C10.3613 0.634766 10.3613 0.683594 10.3613 0.722656C10.3613 1.99219 9.50195 2.75391 8.21289 2.75391C6.92383 2.75391 6.06445 1.99219 6.06445 0.722656C6.06445 0.683594 6.06445 0.634766 6.06445 0.585938C6.06445 0.234375 5.83984 0 5.50781 0L3.02734 0C1.00586 0 0 1.02539 0 3.06641L0 17.8809C0 19.9121 1.01562 20.9375 3.02734 20.9375ZM4.51172 7.27539C4.16016 7.27539 3.90625 7.01172 3.90625 6.66016C3.90625 6.32812 4.16016 6.06445 4.51172 6.06445L11.9238 6.06445C12.2656 6.06445 12.5195 6.32812 12.5195 6.66016C12.5195 7.01172 12.2656 7.27539 11.9238 7.27539ZM4.51172 10.7422C4.16016 10.7422 3.90625 10.4785 3.90625 10.1465C3.90625 9.80469 4.16016 9.54102 4.51172 9.54102L8.01758 9.54102C8.36914 9.54102 8.62305 9.80469 8.62305 10.1465C8.62305 10.4785 8.36914 10.7422 8.01758 10.7422Z" fill="white" fill-opacity="0.85"/>
 </g>
</svg>
