<svg version="1.1" xmlns="http://www.w3.org/2000/svg" xmlns:xlink="http://www.w3.org/1999/xlink" viewBox="0 0 20.2832 19.9316">
 <g>
  <rect height="19.9316" opacity="0" width="20.2832" x="0" y="0"/>
  <path d="M9.96094 19.9219C15.459 19.9219 19.9219 15.459 19.9219 9.96094C19.9219 4.46289 15.459 0 9.96094 0C4.46289 0 0 4.46289 0 9.96094C0 15.459 4.46289 19.9219 9.96094 19.9219ZM9.96094 18.2617C5.37109 18.2617 1.66016 14.5508 1.66016 9.96094C1.66016 5.37109 5.37109 1.66016 9.96094 1.66016C14.5508 1.66016 18.2617 5.37109 18.2617 9.96094C18.2617 14.5508 14.5508 18.2617 9.96094 18.2617Z" fill="var(--color-primary)"/>
  <path d="M9.95117 13.9941C12.1875 13.9941 14.3457 13.3398 16.084 12.1387C16.4062 11.9043 16.4941 11.5039 16.2695 11.2012C16.0449 10.8887 15.6445 10.8301 15.3125 11.0645C13.8477 12.1094 11.9336 12.6855 9.95117 12.6855C7.98828 12.6855 6.06445 12.0996 4.58984 11.0645C4.26758 10.8301 3.85742 10.8887 3.63281 11.2012C3.42773 11.4941 3.50586 11.8945 3.82812 12.1387C5.53711 13.3398 7.71484 13.9941 9.95117 13.9941Z" fill="var(--color-primary)"/>
  <path d="M9.95117 10.9375C11.6113 10.9375 13.1934 10.459 14.375 9.58984C14.6973 9.35547 14.7656 8.96484 14.5508 8.66211C14.3457 8.35938 13.9355 8.29102 13.5938 8.52539C12.627 9.21875 11.3184 9.60938 9.95117 9.60938C8.59375 9.60938 7.27539 9.21875 6.31836 8.52539C5.97656 8.29102 5.55664 8.35938 5.36133 8.66211C5.13672 8.96484 5.21484 9.35547 5.52734 9.58984C6.74805 10.459 8.32031 10.9375 9.95117 10.9375Z" fill="var(--color-primary)"/>
  <path d="M9.95117 7.88086C10.9473 7.88086 11.9629 7.57812 12.6758 7.07031C12.9785 6.83594 13.0566 6.44531 12.8613 6.14258C12.627 5.80078 12.207 5.74219 11.8555 5.99609C11.3965 6.34766 10.6836 6.55273 9.95117 6.55273C9.23828 6.55273 8.52539 6.34766 8.05664 5.99609C7.70508 5.75195 7.28516 5.81055 7.05078 6.14258C6.8457 6.44531 6.93359 6.8457 7.23633 7.07031C7.91992 7.57812 8.92578 7.88086 9.95117 7.88086Z" fill="var(--color-primary)"/>
 </g>
</svg>
