<svg version="1.1" xmlns="http://www.w3.org/2000/svg" xmlns:xlink="http://www.w3.org/1999/xlink" viewBox="0 0 16.0547 19.6973">
 <g>
  <rect height="19.6973" opacity="0" width="16.0547" x="0" y="0"/>
  <path d="M7.85156 15.7129C12.1777 15.7129 15.6934 12.1973 15.6934 7.85156C15.6934 3.51562 12.1777 0 7.85156 0C3.51562 0 0 3.51562 0 7.85156C0 12.1973 3.51562 15.7129 7.85156 15.7129ZM7.85156 14.1406C4.33594 14.1406 1.57227 11.377 1.57227 7.85156C1.57227 4.32617 4.33594 1.57227 7.85156 1.57227C11.3672 1.57227 14.1211 4.32617 14.1211 7.85156C14.1211 11.377 11.3672 14.1406 7.85156 14.1406ZM7.07031 18.8965L8.64258 18.8965L8.64258 14.9902L7.07031 14.9902ZM4.43359 19.6777L11.2695 19.6777C11.6992 19.6777 12.0508 19.3262 12.0508 18.8965C12.0508 18.4668 11.6992 18.1055 11.2695 18.1055L4.44336 18.1055C4.01367 18.1055 3.65234 18.4668 3.65234 18.8965C3.65234 19.3262 4.00391 19.6777 4.43359 19.6777Z" fill="var(--color-primary)"/>
  <path d="M7.85156 12.4121C10.4004 12.4121 12.3926 10.4004 12.3926 7.85156C12.3926 5.3125 10.4004 3.30078 7.85156 3.30078C5.3125 3.30078 3.30078 5.3125 3.30078 7.85156C3.30078 10.4004 5.3125 12.4121 7.85156 12.4121ZM7.85156 9.9707C6.66992 9.9707 5.73242 9.0332 5.73242 7.85156C5.73242 6.66992 6.66992 5.73242 7.85156 5.73242C9.0332 5.73242 9.96094 6.66992 9.96094 7.85156C9.96094 9.0332 9.0332 9.9707 7.85156 9.9707Z" fill="var(--color-primary)"/>
 </g>
</svg>
