<?xml version="1.0" encoding="UTF-8"?>
<!--Generator: Apple Native CoreSVG 326-->
<!DOCTYPE svg
PUBLIC "-//W3C//DTD SVG 1.1//EN"
       "http://www.w3.org/Graphics/SVG/1.1/DTD/svg11.dtd">
<svg version="1.1" xmlns="http://www.w3.org/2000/svg" xmlns:xlink="http://www.w3.org/1999/xlink" viewBox="0 0 28.2422 18.6426">
 <g>
  <rect height="18.6426" opacity="0" width="28.2422" x="0" y="0"/>
  <path d="M13.9258 0C11.6895 0 9.51172 0.664062 7.80273 1.85547C7.48047 2.09961 7.40234 2.5 7.60742 2.80273C7.8418 3.11523 8.24219 3.16406 8.56445 2.92969C10.0391 1.9043 11.9629 1.30859 13.9258 1.30859C15.918 1.30859 17.8223 1.89453 19.2969 2.92969C19.6191 3.16406 20.0195 3.11523 20.2441 2.80273C20.4688 2.49023 20.3906 2.08984 20.0586 1.85547C18.3301 0.664062 16.1621 0 13.9258 0Z" fill="white" fill-opacity="0.85"/>
  <path d="M13.9355 3.05664C12.3145 3.05664 10.7324 3.53516 9.51172 4.4043C9.19922 4.63867 9.12109 5.0293 9.3457 5.3418C9.55078 5.63477 9.96094 5.70312 10.3027 5.46875C11.2598 4.78516 12.5781 4.38477 13.9355 4.38477C15.3027 4.38477 16.6211 4.78516 17.5781 5.46875C17.9199 5.70312 18.3301 5.63477 18.5352 5.3418C18.7598 5.0293 18.6816 4.63867 18.3594 4.4043C17.1777 3.53516 15.5957 3.05664 13.9355 3.05664Z" fill="white" fill-opacity="0.85"/>
  <path d="M13.9258 6.11328C12.9102 6.11328 11.8945 6.41602 11.2109 6.93359C10.9082 7.14844 10.8203 7.55859 11.0254 7.86133C11.2695 8.19336 11.6797 8.25195 12.0312 8.00781C12.5098 7.64648 13.2129 7.44141 13.9258 7.44141C14.668 7.44141 15.3711 7.64648 15.8301 8.00781C16.1816 8.26172 16.6016 8.20312 16.8457 7.86133C17.041 7.55859 16.9531 7.1582 16.6602 6.93359C15.9375 6.41602 14.9219 6.11328 13.9258 6.11328Z" fill="white" fill-opacity="0.85"/>
  <path d="M2.71484 18.6133L25.166 18.6133C26.8359 18.6133 27.8809 17.5879 27.8809 15.9375L27.8809 12.8223C27.8809 11.1719 26.8359 10.1465 25.166 10.1465L2.71484 10.1465C1.04492 10.1465 0 11.1719 0 12.8223L0 15.9375C0 17.5879 1.04492 18.6133 2.71484 18.6133ZM2.71484 17.041C2.01172 17.041 1.57227 16.6211 1.57227 15.9375L1.57227 12.8223C1.57227 12.1387 2.01172 11.7188 2.71484 11.7188L25.166 11.7188C25.8691 11.7188 26.3086 12.1387 26.3086 12.8223L26.3086 15.9375C26.3086 16.6211 25.8691 17.041 25.166 17.041ZM4.01367 14.6582L7.32422 14.6582C7.72461 14.6582 8.01758 14.375 8.01758 13.9746C8.01758 13.5742 7.72461 13.2812 7.32422 13.2812L4.01367 13.2812C3.61328 13.2812 3.33008 13.5742 3.33008 13.9746C3.33008 14.375 3.61328 14.6582 4.01367 14.6582ZM12.2754 15.6445C12.959 15.6445 13.5352 15.0684 13.5352 14.3652C13.5352 13.6816 12.959 13.1055 12.2754 13.1055C11.5723 13.1055 10.9961 13.6816 10.9961 14.3652C10.9961 15.0684 11.5723 15.6445 12.2754 15.6445ZM15.9668 15.6445C16.6504 15.6445 17.2266 15.0684 17.2266 14.3652C17.2266 13.6816 16.6504 13.1055 15.9668 13.1055C15.2637 13.1055 14.6875 13.6816 14.6875 14.3652C14.6875 15.0684 15.2637 15.6445 15.9668 15.6445ZM19.6582 15.6445C20.3418 15.6445 20.918 15.0684 20.918 14.3652C20.918 13.6816 20.3418 13.1055 19.6582 13.1055C18.9551 13.1055 18.3789 13.6816 18.3789 14.3652C18.3789 15.0684 18.9551 15.6445 19.6582 15.6445ZM23.3496 15.6445C24.043 15.6445 24.6191 15.0684 24.6191 14.375C24.6191 13.6816 24.043 13.1055 23.3496 13.1055C22.6465 13.1055 22.0703 13.6816 22.0703 14.375C22.0703 15.0684 22.6465 15.6445 23.3496 15.6445Z" fill="white" fill-opacity="0.85"/>
 </g>
</svg>
