<?xml version="1.0" encoding="UTF-8"?>
<!--Generator: Apple Native CoreSVG 326-->
<!DOCTYPE svg
PUBLIC "-//W3C//DTD SVG 1.1//EN"
       "http://www.w3.org/Graphics/SVG/1.1/DTD/svg11.dtd">
<svg version="1.1" xmlns="http://www.w3.org/2000/svg" xmlns:xlink="http://www.w3.org/1999/xlink" viewBox="0 0 28.6876 20.166">
 <g>
  <rect height="20.166" opacity="0" width="28.6876" x="0" y="0"/>
  <path d="M27.6104 4.77539C28.4405 5.41992 28.5479 6.30859 27.8936 7.14844L21.2432 15.625C20.9503 16.0059 20.4522 16.0938 20.003 15.8594C18.3331 14.9805 16.087 14.4043 14.1631 14.4043C13.8023 14.4043 13.4299 14.4246 13.0499 14.4694L12.1964 13.0025C12.8766 12.8896 13.5367 12.832 14.1631 12.832C15.9405 12.832 18.0108 13.3008 20.003 14.1113C20.2471 14.209 20.3545 14.1895 20.5499 13.9453L26.3213 6.5918C26.5167 6.33789 26.4874 6.11328 26.2237 5.92773C22.8643 3.80859 18.5577 2.60742 14.1631 2.60742C11.6293 2.60742 9.12461 3.00677 6.82031 3.76275L5.94259 2.25422C8.37825 1.49873 11.2318 1.03516 14.1631 1.03516C19.6612 1.03516 24.8858 2.66602 27.6104 4.77539ZM5.31063 4.30915C4.16854 4.75658 3.09429 5.30216 2.10259 5.92773C1.83892 6.11328 1.80963 6.33789 1.99517 6.5918L7.77642 13.9453C7.97174 14.1895 8.07916 14.209 8.3233 14.1113C9.06905 13.8079 9.82437 13.5524 10.5713 13.3515L11.3843 14.7488C10.2857 14.9992 9.21437 15.3852 8.31353 15.8594C7.86431 16.0938 7.37603 16.0059 7.08306 15.625L0.432673 7.14844C-0.23139 6.30859-0.123968 5.41992 0.70611 4.77539C1.66733 4.03388 2.93629 3.35149 4.42141 2.78071Z" fill="white" fill-opacity="0.85"/>
  <path d="M12.7178 17.041L14.1143 16.2988L4.91509 0.488281C4.71002 0.126953 4.2608-0.0195312 3.82134 0.205078C3.42095 0.400391 3.33306 0.908203 3.54791 1.2793ZM14.1631 20.166C15.3545 20.166 16.3604 19.1699 16.3604 17.9688C16.3604 16.748 15.3643 15.7617 14.1631 15.7617C12.9522 15.7617 11.9659 16.748 11.9659 17.9688C11.9659 19.1797 12.9424 20.166 14.1631 20.166ZM14.1631 18.8672C13.6553 18.8672 13.2549 18.457 13.2549 17.9688C13.2549 17.4609 13.6553 17.041 14.1631 17.041C14.6514 17.041 15.0811 17.4609 15.0811 17.9688C15.0811 18.457 14.6514 18.8672 14.1631 18.8672Z" fill="white" fill-opacity="0.85"/>
 </g>
</svg>
