<?xml version="1.0" encoding="UTF-8"?>
<!--Generator: Apple Native CoreSVG 326-->
<!DOCTYPE svg
PUBLIC "-//W3C//DTD SVG 1.1//EN"
       "http://www.w3.org/Graphics/SVG/1.1/DTD/svg11.dtd">
<svg version="1.1" xmlns="http://www.w3.org/2000/svg" xmlns:xlink="http://www.w3.org/1999/xlink" viewBox="0 0 22.168 20.8496">
 <g>
  <rect height="20.8496" opacity="0" width="22.168" x="0" y="0"/>
  <path d="M1.29883 18.5156L20.5078 18.5156L20.5078 17.8613C20.5078 17.4707 20.2832 17.2363 19.8828 17.2363L19.2578 17.2363L19.2578 6.69922L20.1172 6.69922C20.6543 6.69922 20.9668 6.30859 20.9668 5.9082C20.9668 5.61523 20.8008 5.36133 20.4395 5.15625L12.0996 0.341797C11.709 0.117188 11.2988 0 10.8984 0C10.498 0 10.0781 0.117188 9.70703 0.341797L1.36719 5.15625C0.996094 5.36133 0.839844 5.61523 0.839844 5.9082C0.839844 6.30859 1.15234 6.69922 1.68945 6.69922L2.54883 6.69922L2.54883 17.2363L1.93359 17.2363C1.5332 17.2363 1.29883 17.4707 1.29883 17.8613ZM4.02344 17.2363L4.02344 5.44922L10.5176 1.80664C10.6348 1.73828 10.7715 1.69922 10.8984 1.69922C11.0254 1.69922 11.1621 1.73828 11.2891 1.80664L17.7832 5.44922L17.7832 17.2363ZM0.78125 20.8398L21.0156 20.8398C21.4453 20.8398 21.8066 20.4785 21.8066 20.0488C21.8066 19.6191 21.4453 19.2676 21.0156 19.2676L0.78125 19.2676C0.351562 19.2676 0 19.6191 0 20.0488C0 20.4785 0.351562 20.8398 0.78125 20.8398Z" fill="white" fill-opacity="0.85"/>
  <path d="M8.4082 14.8047C8.75977 14.8047 9.04297 14.5801 9.14062 14.209L10.8789 7.64648L10.9473 7.64648L12.666 14.209C12.7734 14.5898 13.0273 14.8047 13.418 14.8047C13.8281 14.8047 14.1016 14.5898 14.1797 14.1895L15.7129 6.64062C15.7227 6.5625 15.7324 6.45508 15.7324 6.36719C15.7324 6.01562 15.4688 5.84961 15.1758 5.84961C14.9219 5.84961 14.6777 6.00586 14.6289 6.30859L13.3789 13.3301L13.3301 13.3301L11.5039 6.34766C11.4258 6.03516 11.2402 5.85938 10.918 5.85938C10.6152 5.85938 10.4102 6.04492 10.3223 6.36719L8.49609 13.3301L8.4375 13.3301L7.19727 6.30859C7.14844 6.02539 6.92383 5.84961 6.64062 5.84961C6.30859 5.84961 6.07422 6.03516 6.07422 6.35742C6.07422 6.42578 6.08398 6.5332 6.11328 6.64062L7.64648 14.1895C7.71484 14.5703 7.99805 14.8047 8.4082 14.8047ZM5.36133 10.2734C5.36133 10.4688 5.50781 10.6152 5.70312 10.6152L16.123 10.6152C16.3184 10.6152 16.4648 10.4688 16.4648 10.2734C16.4648 10.0879 16.3184 9.95117 16.123 9.95117L5.70312 9.95117C5.50781 9.95117 5.36133 10.0879 5.36133 10.2734Z" fill="white" fill-opacity="0.85"/>
 </g>
</svg>
