<svg version="1.1" xmlns="http://www.w3.org/2000/svg" xmlns:xlink="http://www.w3.org/1999/xlink" viewBox="0 0 20.2832 19.9316">
 <g>
  <rect height="19.9316" opacity="0" width="20.2832" x="0" y="0"/>
  <path d="M19.9219 9.9707C19.9219 15.4688 15.459 19.9316 9.96094 19.9316C4.47266 19.9316 0 15.4688 0 9.9707C0 4.48242 4.47266 0.00976562 9.96094 0.00976562C15.459 0.00976562 19.9219 4.48242 19.9219 9.9707ZM4.89258 7.64648C4.36523 7.64648 3.96484 8.03711 3.96484 8.57422L3.96484 11.3379C3.96484 11.875 4.36523 12.2656 4.89258 12.2656L15.0488 12.2656C15.5762 12.2656 15.9668 11.8652 15.9668 11.3281L15.9668 8.57422C15.9668 8.03711 15.5762 7.64648 15.0488 7.64648Z" fill="var(--color-primary)"/>
 </g>
</svg>
