<?xml version="1.0" encoding="UTF-8"?>
<!--Generator: Apple Native CoreSVG 341-->
<!DOCTYPE svg
PUBLIC "-//W3C//DTD SVG 1.1//EN"
       "http://www.w3.org/Graphics/SVG/1.1/DTD/svg11.dtd">
<svg version="1.1" xmlns="http://www.w3.org/2000/svg" xmlns:xlink="http://www.w3.org/1999/xlink" viewBox="0 0 301 201">
 <path clip-rule="evenodd" d="M6.28331 98.8698C6.84471 76.4752-8.84376 48.8992 12.5924 33.2035C35.1945 16.654 74.4981 32.0325 105.264 26.3951C128.047 22.2204 144.614 7.34734 167.817 4.76073C196.595 1.55261 231.701-4.80893 253.063 9.91883C274.545 24.7289 258.959 52.215 267.053 73.176C275.082 93.97 302.723 110.251 300.128 131.803C297.428 154.219 277.901 174.99 253.227 187.962C229.418 200.479 198.417 200.234 169.286 200.593C143.177 200.915 118.967 195.328 93.8806 189.926C64.3195 183.56 27.1916 184.772 9.26005 166.132C-8.64016 147.526 5.70942 121.763 6.28331 98.8698Z" fill="black" fill-opacity="1" fill-rule="evenodd" style="fill:black;fill-opacity:1;"/>
</svg>
