<svg version="1.1" xmlns="http://www.w3.org/2000/svg" xmlns:xlink="http://www.w3.org/1999/xlink" width="23.3203" height="22.9785" viewBox="0 0 23.3203 22.9785">
 <g>
  <rect height="22.9785" opacity="0" width="23.3203" x="0" y="0"/>
  <path d="M22.959 3.78906L22.959 19.2188C22.959 21.709 21.6797 22.9785 19.1504 22.9785L3.79883 22.9785C1.2793 22.9785 0 21.7188 0 19.2188L0 3.78906C0 1.28906 1.2793 0.0292969 3.79883 0.0292969L19.1504 0.0292969C21.6797 0.0292969 22.959 1.29883 22.959 3.78906ZM4.23828 11.4844C4.23828 14.0039 4.95117 16.9531 7.49023 16.9531C10.0098 16.9531 10.7227 14.0039 10.7227 11.4844C10.7227 8.96484 10.0098 6.01562 7.49023 6.01562C4.95117 6.01562 4.23828 8.96484 4.23828 11.4844ZM12.2461 11.4844C12.2461 14.0039 12.959 16.9531 15.4883 16.9531C18.0176 16.9531 18.7305 14.0039 18.7305 11.4844C18.7305 8.96484 18.0176 6.01562 15.4883 6.01562C12.959 6.01562 12.2461 8.96484 12.2461 11.4844ZM9.07227 11.4844C9.07227 13.6328 8.69141 15.5957 7.49023 15.5957C6.2793 15.5957 5.9082 13.6328 5.9082 11.4844C5.9082 9.32617 6.2793 7.37305 7.49023 7.37305C8.69141 7.37305 9.07227 9.32617 9.07227 11.4844ZM17.0703 11.4844C17.0703 13.6328 16.6895 15.5957 15.4883 15.5957C14.2773 15.5957 13.9062 13.6328 13.9062 11.4844C13.9062 9.32617 14.2773 7.37305 15.4883 7.37305C16.6895 7.37305 17.0703 9.32617 17.0703 11.4844Z" fill="var(--color-primary)"/>
 </g>
</svg>
