<?xml version="1.0" encoding="UTF-8"?>
<!--Generator: Apple Native CoreSVG 232.5-->
<!DOCTYPE svg
PUBLIC "-//W3C//DTD SVG 1.1//EN"
       "http://www.w3.org/Graphics/SVG/1.1/DTD/svg11.dtd">
<svg version="1.1" xmlns="http://www.w3.org/2000/svg" xmlns:xlink="http://www.w3.org/1999/xlink" width="23.3203" height="22.9785">
 <g>
  <rect height="22.9785" opacity="0" width="23.3203" x="0" y="0"/>
  <path d="M3.79883 22.9785L19.1504 22.9785C21.6797 22.9785 22.959 21.709 22.959 19.2188L22.959 3.78906C22.959 1.29883 21.6797 0.0292969 19.1504 0.0292969L3.79883 0.0292969C1.2793 0.0292969 0 1.28906 0 3.78906L0 19.2188C0 21.7188 1.2793 22.9785 3.79883 22.9785Z" fill="#ffffff" fill-opacity="0.25"/>
  <path d="M7.41211 16.9531C4.89258 16.9531 4.17969 14.0039 4.17969 11.4844C4.17969 8.96484 4.89258 6.01562 7.41211 6.01562C9.95117 6.01562 10.6641 8.96484 10.6641 11.4844C10.6641 14.0039 9.95117 16.9531 7.41211 16.9531ZM7.41211 15.5957C8.62305 15.5957 8.99414 13.6328 8.99414 11.4844C8.99414 9.32617 8.62305 7.37305 7.41211 7.37305C6.21094 7.37305 5.83008 9.32617 5.83008 11.4844C5.83008 13.6328 6.21094 15.5957 7.41211 15.5957ZM15.2344 16.9141C13.8574 16.9141 12.6172 16.2207 12.2461 15.0391C12.1875 14.834 12.1484 14.5898 12.1484 14.3652C12.1484 13.9258 12.4414 13.6523 12.8809 13.6523C13.2715 13.6523 13.5059 13.8477 13.6133 14.2383C13.7598 14.8828 14.2383 15.5762 15.2344 15.5762C16.2695 15.5762 16.7773 14.7461 16.7773 13.7988C16.7773 12.5977 16.1328 11.9629 14.9707 11.9629L14.5996 11.9629C14.2188 11.9629 13.9648 11.7285 13.9648 11.3574C13.9648 10.9863 14.1992 10.7422 14.5996 10.7422L14.9609 10.7422C15.9668 10.7422 16.5527 10 16.5527 9.01367C16.5527 8.0957 16.0938 7.38281 15.1855 7.38281C14.375 7.38281 13.9355 7.94922 13.7402 8.75977C13.6328 9.15039 13.418 9.31641 13.0176 9.31641C12.5684 9.31641 12.3145 9.01367 12.3145 8.64258C12.3145 8.4375 12.3438 8.20312 12.4219 7.94922C12.7832 6.81641 13.8672 6.06445 15.1855 6.06445C16.8359 6.06445 18.0957 7.08984 18.0957 8.82812C18.0957 9.92188 17.5293 10.9668 16.3574 11.2793L16.3574 11.3184C17.5 11.4355 18.3984 12.2852 18.3984 13.8379C18.3984 15.752 17.0312 16.9141 15.2344 16.9141Z" fill="#ffffff" fill-opacity="0.85"/>
 </g>
</svg>
