<svg version="1.1" xmlns="http://www.w3.org/2000/svg" xmlns:xlink="http://www.w3.org/1999/xlink" width="23.3203" height="22.9785" viewBox="0 0 23.3203 22.9785">
 <g>
  <rect height="22.9785" opacity="0" width="23.3203" x="0" y="0"/>
  <path d="M3.79883 22.9785L19.1504 22.9785C21.6797 22.9785 22.959 21.709 22.959 19.2188L22.959 3.78906C22.959 1.29883 21.6797 0.0292969 19.1504 0.0292969L3.79883 0.0292969C1.2793 0.0292969 0 1.28906 0 3.78906L0 19.2188C0 21.7188 1.2793 22.9785 3.79883 22.9785ZM3.83789 21.25C2.4707 21.25 1.72852 20.5273 1.72852 19.1309L1.72852 3.87695C1.72852 2.48047 2.4707 1.75781 3.83789 1.75781L19.1211 1.75781C20.459 1.75781 21.2305 2.48047 21.2305 3.87695L21.2305 19.1309C21.2305 20.5273 20.459 21.25 19.1211 21.25Z" fill="var(--color-primary)"/>
  <path d="M7.5293 16.8262C9.99023 16.8262 10.6836 13.9355 10.6836 11.4844C10.6836 9.0332 9.99023 6.14258 7.5293 6.14258C5.06836 6.14258 4.375 9.0332 4.375 11.4844C4.375 13.9355 5.06836 16.8262 7.5293 16.8262ZM7.5293 15.5078C6.34766 15.5078 5.97656 13.5742 5.97656 11.4844C5.97656 9.38477 6.34766 7.46094 7.5293 7.46094C8.71094 7.46094 9.08203 9.38477 9.08203 11.4844C9.08203 13.5742 8.71094 15.5078 7.5293 15.5078ZM16.7188 16.7285C17.1289 16.7285 17.4707 16.4551 17.4707 15.9375L17.4707 14.4824L18.0078 14.4824C18.4277 14.4824 18.6426 14.209 18.6426 13.8281C18.6426 13.4668 18.4375 13.1934 18.0078 13.1934L17.4707 13.1934L17.4707 7.42188C17.4707 6.64062 16.9531 6.23047 16.25 6.23047C15.4785 6.23047 15.1172 6.63086 14.7949 7.32422L12.3438 12.5098C12.1582 12.9395 12.0898 13.2227 12.0898 13.5742C12.0898 14.1113 12.4609 14.4824 13.0176 14.4824L15.957 14.4824L15.957 15.9375C15.957 16.5137 16.3574 16.7285 16.7188 16.7285ZM15.9863 13.2227L13.4668 13.2227L13.4668 13.1543L15.9375 7.67578L15.9863 7.67578Z" fill="var(--color-primary)"/>
 </g>
</svg>
