<?xml version="1.0" encoding="UTF-8"?>
<!--Generator: Apple Native CoreSVG 232.5-->
<!DOCTYPE svg
PUBLIC "-//W3C//DTD SVG 1.1//EN"
       "http://www.w3.org/Graphics/SVG/1.1/DTD/svg11.dtd">
<svg version="1.1" xmlns="http://www.w3.org/2000/svg" xmlns:xlink="http://www.w3.org/1999/xlink" width="25.8008" height="25.459">
 <g>
  <rect height="25.459" opacity="0" width="25.8008" x="0" y="0"/>
  <path d="M12.7148 25.4395C19.6777 25.4395 25.4395 19.6777 25.4395 12.7246C25.4395 5.76172 19.668 0 12.7051 0C5.75195 0 0 5.76172 0 12.7246C0 19.6777 5.76172 25.4395 12.7148 25.4395Z" fill="#ffffff" fill-opacity="0.25"/>
  <path d="M8.73047 18.1934C6.21094 18.1934 5.48828 15.2441 5.48828 12.7246C5.48828 10.2051 6.21094 7.25586 8.73047 7.25586C11.2598 7.25586 11.9727 10.2051 11.9727 12.7246C11.9727 15.2441 11.2598 18.1934 8.73047 18.1934ZM8.73047 16.8359C9.93164 16.8359 10.3125 14.873 10.3125 12.7246C10.3125 10.5664 9.93164 8.61328 8.73047 8.61328C7.51953 8.61328 7.14844 10.5664 7.14844 12.7246C7.14844 14.873 7.51953 16.8359 8.73047 16.8359ZM16.5332 18.1934C15.3516 18.1934 14.2578 17.4609 13.8281 16.377C13.7305 16.1523 13.6621 15.8789 13.6621 15.625C13.6621 15.2051 13.9355 14.9316 14.3457 14.9316C14.6582 14.9316 14.9121 15.1074 15.0391 15.498C15.2734 16.2598 15.7422 16.8555 16.5137 16.8555C17.5488 16.8555 17.9785 15.6934 17.9785 14.541C17.9785 13.5254 17.5684 12.3047 16.543 12.3047C15.9766 12.3047 15.6055 12.6367 15.3125 13.1152C15.0684 13.4375 14.8828 13.584 14.5605 13.584C14.0332 13.584 13.7988 13.2031 13.7988 12.7637C13.7988 12.5977 13.8086 12.3926 13.8281 12.1875L14.0625 8.50586C14.1016 7.91016 14.375 7.5 14.9805 7.5L18.5156 7.5C18.8965 7.5 19.1602 7.79297 19.1602 8.17383C19.1602 8.58398 18.9062 8.86719 18.5156 8.86719L15.4199 8.86719L15.1953 12.2266L15.2441 12.2266C15.5859 11.4355 16.3086 11.084 17.0605 11.084C18.7207 11.084 19.5703 12.7344 19.5703 14.502C19.5703 16.4941 18.5059 18.1934 16.5332 18.1934Z" fill="#ffffff" fill-opacity="0.85"/>
 </g>
</svg>
