<svg version="1.1" xmlns="http://www.w3.org/2000/svg" xmlns:xlink="http://www.w3.org/1999/xlink" width="23.3203" height="22.9785" viewBox="0 0 23.3203 22.9785">
 <g>
  <rect height="22.9785" opacity="0" width="23.3203" x="0" y="0"/>
  <path d="M3.79883 22.9785L19.1504 22.9785C21.6797 22.9785 22.959 21.709 22.959 19.2188L22.959 3.78906C22.959 1.29883 21.6797 0.0292969 19.1504 0.0292969L3.79883 0.0292969C1.2793 0.0292969 0 1.28906 0 3.78906L0 19.2188C0 21.7188 1.2793 22.9785 3.79883 22.9785Z" fill="var(--color-tertiary)"/>
  <path d="M7.32422 16.9531C4.80469 16.9531 4.08203 14.0039 4.08203 11.4844C4.08203 8.96484 4.80469 6.01562 7.32422 6.01562C9.84375 6.01562 10.5566 8.96484 10.5566 11.4844C10.5566 14.0039 9.84375 16.9531 7.32422 16.9531ZM7.32422 15.5957C8.52539 15.5957 8.90625 13.6328 8.90625 11.4844C8.90625 9.32617 8.52539 7.37305 7.32422 7.37305C6.12305 7.37305 5.74219 9.32617 5.74219 11.4844C5.74219 13.6328 6.12305 15.5957 7.32422 15.5957ZM15.4004 16.9531C12.8516 16.9531 12.0898 14.0625 12.0898 11.6309C12.0898 9.08203 12.8223 6.03516 15.4199 6.03516C16.6797 6.03516 17.7441 6.72852 18.0273 7.85156C18.0762 8.01758 18.0957 8.18359 18.0957 8.32031C18.0957 8.70117 17.8906 8.99414 17.4316 8.99414C17.0508 8.99414 16.8555 8.81836 16.6895 8.4668C16.4551 7.85156 16.0352 7.37305 15.3809 7.37305C13.8379 7.37305 13.6426 10.1074 13.6426 11.6113C13.6426 11.6602 13.6426 11.7188 13.6426 11.7676L13.6914 11.7676C13.9746 10.6445 14.7656 9.88281 15.8496 9.88281C17.5684 9.88281 18.4082 11.5527 18.4082 13.291C18.4082 15.293 17.3242 16.9531 15.4004 16.9531ZM15.3809 15.6152C16.3477 15.6152 16.8164 14.3945 16.8164 13.3691C16.8457 12.334 16.4062 11.1426 15.3711 11.1426C14.375 11.1426 13.877 12.2852 13.877 13.3105C13.877 14.3262 14.3262 15.6152 15.3809 15.6152Z" fill="var(--color-primary)"/>
 </g>
</svg>
