<svg version="1.1" xmlns="http://www.w3.org/2000/svg" xmlns:xlink="http://www.w3.org/1999/xlink" width="23.3203" height="22.9785" viewBox="0 0 23.3203 22.9785">
 <g>
  <rect height="22.9785" opacity="0" width="23.3203" x="0" y="0"/>
  <path d="M22.959 3.78906L22.959 19.2188C22.959 21.709 21.6797 22.9785 19.1504 22.9785L3.79883 22.9785C1.2793 22.9785 0 21.7188 0 19.2188L0 3.78906C0 1.28906 1.2793 0.0292969 3.79883 0.0292969L19.1504 0.0292969C21.6797 0.0292969 22.959 1.29883 22.959 3.78906ZM4.28711 11.4844C4.28711 14.0039 5 16.9531 7.51953 16.9531C10.0488 16.9531 10.7715 14.0039 10.7715 11.4844C10.7715 8.96484 10.0488 6.01562 7.51953 6.01562C5 6.01562 4.28711 8.96484 4.28711 11.4844ZM12.2266 9.69727C12.2266 11.4355 13.0664 13.0957 14.7754 13.0957C15.8691 13.0957 16.6602 12.3438 16.9336 11.2207L16.9824 11.2207C16.9824 11.2695 16.9824 11.3281 16.9824 11.377C16.9824 12.8809 16.7871 15.5957 15.2441 15.5957C14.5996 15.5957 14.1797 15.1367 13.9355 14.502C13.7695 14.1016 13.5352 13.9453 13.2031 13.9453C12.7148 13.9453 12.5195 14.2676 12.5195 14.6484C12.5195 14.7949 12.5488 14.9609 12.5977 15.1172C12.8809 16.2598 13.9648 16.9336 15.2148 16.9336C17.8125 16.9336 18.5352 13.9355 18.5352 11.3574C18.5352 8.92578 17.7832 6.03516 15.2441 6.03516C13.3301 6.03516 12.2266 7.69531 12.2266 9.69727ZM9.10156 11.4844C9.10156 13.6328 8.7207 15.5957 7.51953 15.5957C6.31836 15.5957 5.9375 13.6328 5.9375 11.4844C5.9375 9.32617 6.31836 7.37305 7.51953 7.37305C8.7207 7.37305 9.10156 9.32617 9.10156 11.4844ZM16.7578 9.62891C16.7578 10.7031 16.2598 11.8262 15.2637 11.8262C14.2383 11.8262 13.7988 10.6641 13.7988 9.62891C13.7988 8.57422 14.2773 7.37305 15.2637 7.37305C16.3086 7.37305 16.7578 8.58398 16.7578 9.62891Z" fill="var(--color-primary)"/>
 </g>
</svg>
