<svg version="1.1" xmlns="http://www.w3.org/2000/svg" xmlns:xlink="http://www.w3.org/1999/xlink" width="23.3203" height="22.9785" viewBox="0 0 23.3203 22.9785">
 <g>
  <rect height="22.9785" opacity="0" width="23.3203" x="0" y="0"/>
  <path d="M3.79883 22.9785L19.1504 22.9785C21.6797 22.9785 22.959 21.709 22.959 19.2188L22.959 3.78906C22.959 1.29883 21.6797 0.0292969 19.1504 0.0292969L3.79883 0.0292969C1.2793 0.0292969 0 1.28906 0 3.78906L0 19.2188C0 21.7188 1.2793 22.9785 3.79883 22.9785ZM3.83789 21.25C2.4707 21.25 1.72852 20.5273 1.72852 19.1309L1.72852 3.87695C1.72852 2.48047 2.4707 1.75781 3.83789 1.75781L19.1211 1.75781C20.459 1.75781 21.2305 2.48047 21.2305 3.87695L21.2305 19.1309C21.2305 20.5273 20.459 21.25 19.1211 21.25Z" fill="var(--color-primary)"/>
  <path d="M8.24219 16.709C8.67188 16.709 9.04297 16.3477 9.04297 15.8984L9.04297 7.12891C9.04297 6.57227 8.68164 6.24023 8.125 6.24023C7.66602 6.24023 7.28516 6.48438 7.02148 6.69922L5.54688 7.86133C5.35156 8.01758 5.20508 8.22266 5.20508 8.50586C5.20508 8.85742 5.43945 9.10156 5.78125 9.10156C5.95703 9.10156 6.06445 9.04297 6.17188 8.95508L7.43164 7.94922L7.43164 15.8984C7.43164 16.3477 7.80273 16.709 8.24219 16.709ZM11.709 16.582L16.0742 16.582C16.4648 16.582 16.709 16.3184 16.709 15.9277C16.709 15.5176 16.4551 15.2734 16.0742 15.2734L12.9297 15.2734L12.9297 15.1855L14.9121 12.5977C16.1035 11.0742 16.5039 10.1465 16.5039 9.05273C16.5039 7.38281 15.4199 6.14258 13.7207 6.14258C12.1387 6.14258 10.9863 7.48047 10.9863 8.79883C10.9863 9.19922 11.2207 9.49219 11.6504 9.49219C12.0117 9.49219 12.2363 9.32617 12.3438 8.96484C12.5586 8.03711 12.9199 7.43164 13.7109 7.43164C14.5703 7.43164 15.0098 8.21289 15.0098 9.12109C15.0098 10.1172 14.3945 11.0938 13.6914 12.0117L11.3574 15.0586C11.1523 15.3223 10.9668 15.5957 10.9668 15.9277C10.9668 16.3086 11.2207 16.582 11.709 16.582Z" fill="var(--color-primary)"/>
 </g>
</svg>
