<?xml version="1.0" encoding="UTF-8"?>
<!--Generator: Apple Native CoreSVG 232.5-->
<!DOCTYPE svg
PUBLIC "-//W3C//DTD SVG 1.1//EN"
       "http://www.w3.org/Graphics/SVG/1.1/DTD/svg11.dtd">
<svg version="1.1" xmlns="http://www.w3.org/2000/svg" xmlns:xlink="http://www.w3.org/1999/xlink" width="23.3203" height="22.9785">
 <g>
  <rect height="22.9785" opacity="0" width="23.3203" x="0" y="0"/>
  <path d="M3.79883 22.9785L19.1504 22.9785C21.6797 22.9785 22.959 21.709 22.959 19.2188L22.959 3.78906C22.959 1.29883 21.6797 0.0292969 19.1504 0.0292969L3.79883 0.0292969C1.2793 0.0292969 0 1.28906 0 3.78906L0 19.2188C0 21.7188 1.2793 22.9785 3.79883 22.9785Z" fill="#ffffff" fill-opacity="0.25"/>
  <path d="M8.17383 16.8359C7.70508 16.8359 7.33398 16.4648 7.33398 16.0059L7.33398 7.87109L6.05469 8.90625C5.9375 8.99414 5.83008 9.05273 5.64453 9.05273C5.29297 9.05273 5.04883 8.79883 5.04883 8.4375C5.04883 8.14453 5.20508 7.92969 5.41016 7.77344L6.91406 6.58203C7.1875 6.36719 7.56836 6.10352 8.04688 6.10352C8.62305 6.10352 8.99414 6.45508 8.99414 7.03125L8.99414 16.0059C8.99414 16.4648 8.61328 16.8359 8.17383 16.8359ZM11.7383 16.709C11.2305 16.709 10.9668 16.4258 10.9668 16.0449C10.9668 15.6934 11.1621 15.4102 11.377 15.1367L13.7598 12.0312C14.4727 11.0938 15.1074 10.0879 15.1074 9.0625C15.1074 8.13477 14.6582 7.34375 13.7891 7.34375C12.9785 7.34375 12.6172 7.95898 12.3926 8.90625C12.2754 9.27734 12.0508 9.45312 11.6699 9.45312C11.2305 9.45312 10.9863 9.14062 10.9863 8.73047C10.9863 7.38281 12.168 6.01562 13.7988 6.01562C15.5371 6.01562 16.6504 7.28516 16.6504 8.99414C16.6504 10.1172 16.25 11.0645 15.0195 12.627L12.998 15.2637L12.998 15.3613L16.2109 15.3613C16.6016 15.3613 16.8652 15.6055 16.8652 16.0352C16.8652 16.4355 16.6113 16.709 16.2109 16.709Z" fill="#ffffff" fill-opacity="0.85"/>
 </g>
</svg>
