<?xml version="1.0" encoding="UTF-8"?>
<!--Generator: Apple Native CoreSVG 232.5-->
<!DOCTYPE svg
PUBLIC "-//W3C//DTD SVG 1.1//EN"
       "http://www.w3.org/Graphics/SVG/1.1/DTD/svg11.dtd">
<svg version="1.1" xmlns="http://www.w3.org/2000/svg" xmlns:xlink="http://www.w3.org/1999/xlink" width="25.8008" height="25.459">
 <g>
  <rect height="25.459" opacity="0" width="25.8008" x="0" y="0"/>
  <path d="M12.7148 25.4395C19.6777 25.4395 25.4395 19.6777 25.4395 12.7246C25.4395 5.76172 19.668 0 12.7051 0C5.75195 0 0 5.76172 0 12.7246C0 19.6777 5.76172 25.4395 12.7148 25.4395ZM12.7148 23.623C6.67969 23.623 1.82617 18.7598 1.82617 12.7246C1.82617 6.67969 6.66992 1.82617 12.7051 1.82617C18.75 1.82617 23.6133 6.67969 23.6133 12.7246C23.6133 18.7598 18.7598 23.623 12.7148 23.623Z" fill="#ffffff" fill-opacity="0.85"/>
  <path d="M9.36523 17.9492C9.79492 17.9492 10.166 17.5879 10.166 17.1387L10.166 8.36914C10.166 7.8125 9.80469 7.48047 9.24805 7.48047C8.7793 7.48047 8.4082 7.72461 8.14453 7.93945L6.66992 9.10156C6.47461 9.25781 6.32812 9.46289 6.32812 9.74609C6.32812 10.0977 6.5625 10.3418 6.9043 10.3418C7.08008 10.3418 7.1875 10.2832 7.29492 10.1953L8.55469 9.18945L8.55469 17.1387C8.55469 17.5879 8.91602 17.9492 9.36523 17.9492ZM15.1367 18.0664C17.0508 18.0664 18.0957 16.4062 18.0957 14.4629C18.0957 12.7344 17.2656 11.123 15.6348 11.123C14.9121 11.123 14.1992 11.4648 13.8672 12.2363L13.8184 12.2363L14.043 8.94531L17.0605 8.94531C17.4512 8.94531 17.6855 8.67188 17.6855 8.29102C17.6855 7.91992 17.4316 7.63672 17.0605 7.63672L13.623 7.63672C13.0273 7.63672 12.7637 8.01758 12.7148 8.60352L12.4902 12.207C12.4805 12.4023 12.4707 12.6074 12.4707 12.7637C12.4707 13.1934 12.6953 13.5645 13.2031 13.5645C13.5254 13.5645 13.7012 13.418 13.9258 13.1055C14.2285 12.6367 14.5898 12.3047 15.1465 12.3047C16.1426 12.3047 16.5527 13.5059 16.5527 14.502C16.5527 15.625 16.123 16.7676 15.1172 16.7676C14.3555 16.7676 13.8867 16.1816 13.6719 15.4297C13.5449 15.0488 13.3008 14.8828 12.998 14.8828C12.5879 14.8828 12.334 15.1465 12.334 15.5566C12.334 15.8008 12.4023 16.0645 12.4902 16.2891C12.9004 17.3438 13.9746 18.0664 15.1367 18.0664Z" fill="#ffffff" fill-opacity="0.85"/>
 </g>
</svg>
