<?xml version="1.0" encoding="UTF-8"?>
<!--Generator: Apple Native CoreSVG 232.5-->
<!DOCTYPE svg
PUBLIC "-//W3C//DTD SVG 1.1//EN"
       "http://www.w3.org/Graphics/SVG/1.1/DTD/svg11.dtd">
<svg version="1.1" xmlns="http://www.w3.org/2000/svg" xmlns:xlink="http://www.w3.org/1999/xlink" width="23.3203" height="22.9785">
 <g>
  <rect height="22.9785" opacity="0" width="23.3203" x="0" y="0"/>
  <path d="M22.959 3.78906L22.959 19.2188C22.959 21.709 21.6797 22.9785 19.1504 22.9785L3.79883 22.9785C1.2793 22.9785 0 21.7188 0 19.2188L0 3.78906C0 1.28906 1.2793 0.0292969 3.79883 0.0292969L19.1504 0.0292969C21.6797 0.0292969 22.959 1.29883 22.959 3.78906ZM10.7812 11.6309C10.7812 14.0625 11.543 16.9531 14.082 16.9531C16.0059 16.9531 17.0996 15.293 17.0996 13.291C17.0996 11.5527 16.2598 9.88281 14.541 9.88281C13.457 9.88281 12.666 10.6445 12.3828 11.7676L12.334 11.7676C12.334 11.7188 12.334 11.6602 12.334 11.6113C12.334 10.1074 12.5293 7.37305 14.0625 7.37305C14.7266 7.37305 15.1465 7.85156 15.3809 8.4668C15.5371 8.81836 15.7422 8.99414 16.123 8.99414C16.582 8.99414 16.7871 8.70117 16.7871 8.32031C16.7871 8.18359 16.7578 8.01758 16.7188 7.85156C16.4355 6.72852 15.3711 6.03516 14.1016 6.03516C11.5137 6.03516 10.7812 9.08203 10.7812 11.6309ZM6.62109 6.57227L5.11719 7.77344C4.91211 7.92969 4.76562 8.14453 4.76562 8.4375C4.76562 8.79883 5 9.05273 5.35156 9.05273C5.52734 9.05273 5.64453 8.99414 5.76172 8.89648L7.04102 7.87109L7.04102 15.9961C7.04102 16.4648 7.42188 16.8359 7.88086 16.8359C8.33008 16.8359 8.70117 16.4648 8.70117 15.9961L8.70117 7.03125C8.70117 6.45508 8.33984 6.10352 7.76367 6.10352C7.27539 6.10352 6.89453 6.36719 6.62109 6.57227ZM15.5176 13.3691C15.5176 14.3945 15.0488 15.6152 14.0625 15.6152C13.0176 15.6152 12.5586 14.3262 12.5586 13.3008C12.5586 12.2852 13.0566 11.1426 14.0527 11.1426C15.0879 11.1426 15.5371 12.334 15.5176 13.3691Z" fill="#ffffff" fill-opacity="0.85"/>
 </g>
</svg>
