<svg version="1.1" xmlns="http://www.w3.org/2000/svg" xmlns:xlink="http://www.w3.org/1999/xlink" width="23.3203" height="22.9785" viewBox="0 0 23.3203 22.9785">
 <g>
  <rect height="22.9785" opacity="0" width="23.3203" x="0" y="0"/>
  <path d="M3.79883 22.9785L19.1504 22.9785C21.6797 22.9785 22.959 21.709 22.959 19.2188L22.959 3.78906C22.959 1.29883 21.6797 0.0292969 19.1504 0.0292969L3.79883 0.0292969C1.2793 0.0292969 0 1.28906 0 3.78906L0 19.2188C0 21.7188 1.2793 22.9785 3.79883 22.9785ZM3.83789 21.25C2.4707 21.25 1.72852 20.5273 1.72852 19.1309L1.72852 3.87695C1.72852 2.48047 2.4707 1.75781 3.83789 1.75781L19.1211 1.75781C20.459 1.75781 21.2305 2.48047 21.2305 3.87695L21.2305 19.1309C21.2305 20.5273 20.459 21.25 19.1211 21.25Z" fill="var(--color-secondary)"/>
  <path d="M8.69141 16.709C9.12109 16.709 9.48242 16.3477 9.48242 15.8984L9.48242 7.12891C9.48242 6.57227 9.13086 6.24023 8.56445 6.24023C8.10547 6.24023 7.73438 6.48438 7.4707 6.69922L5.99609 7.86133C5.80078 8.01758 5.6543 8.22266 5.6543 8.50586C5.6543 8.85742 5.87891 9.10156 6.2207 9.10156C6.39648 9.10156 6.50391 9.04297 6.62109 8.95508L7.88086 7.94922L7.88086 15.8984C7.88086 16.3477 8.24219 16.709 8.69141 16.709ZM13.0176 16.7383C13.4277 16.7383 13.6133 16.5625 13.7598 16.1719L16.7383 8.18359C16.8555 7.85156 16.9434 7.57812 16.9434 7.24609C16.9434 6.73828 16.5527 6.39648 16.0449 6.39648L11.9434 6.39648C11.5625 6.39648 11.3086 6.66992 11.3086 7.05078C11.3086 7.43164 11.5625 7.70508 11.9434 7.70508L15.3418 7.70508L15.3418 7.80273L12.4316 15.3906C12.334 15.6348 12.2949 15.791 12.2949 16.0449C12.2949 16.3867 12.5098 16.7383 13.0176 16.7383Z" fill="var(--color-primary)"/>
 </g>
</svg>
