<?xml version="1.0" encoding="UTF-8"?>
<!--Generator: Apple Native CoreSVG 232.5-->
<!DOCTYPE svg
PUBLIC "-//W3C//DTD SVG 1.1//EN"
       "http://www.w3.org/Graphics/SVG/1.1/DTD/svg11.dtd">
<svg version="1.1" xmlns="http://www.w3.org/2000/svg" xmlns:xlink="http://www.w3.org/1999/xlink" width="23.3203" height="22.9785">
 <g>
  <rect height="22.9785" opacity="0" width="23.3203" x="0" y="0"/>
  <path d="M3.79883 22.9785L19.1504 22.9785C21.6797 22.9785 22.959 21.709 22.959 19.2188L22.959 3.78906C22.959 1.29883 21.6797 0.0292969 19.1504 0.0292969L3.79883 0.0292969C1.2793 0.0292969 0 1.28906 0 3.78906L0 19.2188C0 21.7188 1.2793 22.9785 3.79883 22.9785Z" fill="#ffffff" fill-opacity="0.25"/>
  <path d="M8.05664 16.8359C7.59766 16.8359 7.22656 16.4648 7.22656 15.9961L7.22656 7.87109L5.9375 8.89648C5.83008 8.99414 5.71289 9.05273 5.53711 9.05273C5.18555 9.05273 4.94141 8.79883 4.94141 8.4375C4.94141 8.14453 5.08789 7.92969 5.29297 7.77344L6.79688 6.57227C7.07031 6.36719 7.45117 6.10352 7.93945 6.10352C8.51562 6.10352 8.88672 6.45508 8.88672 7.03125L8.88672 15.9961C8.88672 16.4648 8.50586 16.8359 8.05664 16.8359ZM13.418 13.0957C11.709 13.0957 10.8691 11.4355 10.8691 9.69727C10.8691 7.69531 11.9727 6.03516 13.8867 6.03516C16.4258 6.03516 17.1875 8.92578 17.1875 11.3574C17.1875 13.9355 16.4551 16.9336 13.8574 16.9336C12.5977 16.9336 11.5234 16.2598 11.2402 15.1172C11.1914 14.9609 11.1621 14.7949 11.1621 14.6484C11.1621 14.2676 11.3574 13.9453 11.8457 13.9453C12.1875 13.9453 12.4121 14.1016 12.5781 14.502C12.8223 15.1367 13.2324 15.5957 13.8867 15.5957C15.4395 15.5957 15.625 12.8809 15.625 11.377C15.625 11.3281 15.625 11.2695 15.625 11.2207L15.5859 11.2207C15.293 12.3438 14.502 13.0957 13.418 13.0957ZM13.9062 11.8262C14.9023 11.8262 15.3906 10.7031 15.3906 9.62891C15.3906 8.58398 14.9512 7.37305 13.9062 7.37305C12.9199 7.37305 12.4414 8.57422 12.4414 9.62891C12.4414 10.6543 12.8809 11.8262 13.9062 11.8262Z" fill="#ffffff" fill-opacity="0.85"/>
 </g>
</svg>
