<svg version="1.1" xmlns="http://www.w3.org/2000/svg" xmlns:xlink="http://www.w3.org/1999/xlink" width="35.4102" height="24.3262" viewBox="0 0 35.4102 24.3262">
 <g>
  <rect height="24.3262" opacity="0" width="35.4102" x="0" y="0"/>
  <path d="M0 12.1582C0 16.0938 1.29883 19.7266 3.48633 22.6562C3.82812 23.1055 4.38477 23.1543 4.81445 22.8125C5.20508 22.4805 5.25391 21.9629 4.95117 21.5332C2.98828 18.9258 1.82617 15.6641 1.82617 12.1582C1.82617 8.63281 2.98828 5.39062 4.95117 2.76367C5.25391 2.35352 5.21484 1.83594 4.81445 1.49414C4.39453 1.15234 3.81836 1.21094 3.48633 1.66016C1.29883 4.58008 0 8.21289 0 12.1582ZM35.0488 12.1582C35.0488 8.21289 33.75 4.58008 31.5527 1.66016C31.2207 1.21094 30.6543 1.15234 30.2246 1.49414C29.834 1.83594 29.7949 2.35352 30.0977 2.76367C32.0605 5.39062 33.2129 8.63281 33.2129 12.1582C33.2129 15.6641 32.0605 18.9258 30.0977 21.5332C29.7949 21.9629 29.834 22.4805 30.2246 22.8125C30.6543 23.1543 31.2207 23.1055 31.5527 22.6562C33.75 19.7266 35.0488 16.0938 35.0488 12.1582Z" fill="var(--color-primary)"/>
  <path d="M17.5195 24.3066C24.1699 24.3066 29.6777 18.7988 29.6777 12.1582C29.6777 5.50781 24.1699 0 17.5098 0C10.8594 0 5.37109 5.49805 5.37109 12.1582C5.37109 18.7988 10.8691 24.3066 17.5195 24.3066ZM17.5195 22.4902C11.7969 22.4902 7.19727 17.8906 7.19727 12.1582C7.19727 6.42578 11.7871 1.81641 17.5098 1.81641C23.2324 1.81641 27.8516 6.42578 27.8613 12.1582C27.8711 17.8809 23.252 22.4902 17.5195 22.4902Z" fill="var(--color-primary)"/>
  <path d="M14.668 17.832L21.1328 17.832C21.5527 17.832 21.8555 17.5488 21.8555 17.1191C21.8555 16.6699 21.5527 16.3965 21.1328 16.3965L16.2793 16.3965L16.2793 16.3184L19.4434 12.9004C20.6055 11.6504 21.3184 10.6738 21.3184 9.35547C21.3184 7.46094 19.834 6.2207 17.5781 6.2207C15.8008 6.2207 14.2383 7.29492 13.877 8.73047C13.8281 8.89648 13.8184 9.04297 13.8184 9.19922C13.8184 9.61914 14.1016 9.90234 14.5312 9.90234C14.9316 9.90234 15.1367 9.66797 15.3027 9.33594C15.5957 8.45703 16.3477 7.60742 17.6465 7.60742C18.9258 7.60742 19.7656 8.34961 19.7656 9.46289C19.7656 10.3809 19.0723 11.1621 18.291 12.002L14.1797 16.4453C13.9844 16.6602 13.8867 16.8652 13.8867 17.1094C13.8867 17.5488 14.1797 17.832 14.668 17.832Z" fill="var(--color-primary)"/>
 </g>
</svg>
