<?xml version="1.0" encoding="UTF-8"?>
<!--Generator: Apple Native CoreSVG 232.5-->
<!DOCTYPE svg
PUBLIC "-//W3C//DTD SVG 1.1//EN"
       "http://www.w3.org/Graphics/SVG/1.1/DTD/svg11.dtd">
<svg version="1.1" xmlns="http://www.w3.org/2000/svg" xmlns:xlink="http://www.w3.org/1999/xlink" width="25.8008" height="25.459">
 <g>
  <rect height="25.459" opacity="0" width="25.8008" x="0" y="0"/>
  <path d="M12.7148 25.4395C19.6777 25.4395 25.4395 19.6777 25.4395 12.7246C25.4395 5.76172 19.668 0 12.7051 0C5.75195 0 0 5.76172 0 12.7246C0 19.6777 5.76172 25.4395 12.7148 25.4395Z" fill="#ffffff" fill-opacity="0.25"/>
  <path d="M9.80469 18.5449C9.29688 18.5449 8.99414 18.252 8.99414 17.793C8.99414 17.5586 9.10156 17.334 9.29688 17.1191L13.5059 12.5684C14.3066 11.709 15.0195 10.9082 15.0195 9.9707C15.0195 8.83789 14.1602 8.07617 12.8516 8.07617C11.5332 8.07617 10.7617 8.93555 10.459 9.83398C10.293 10.1758 10.0781 10.4199 9.66797 10.4199C9.21875 10.4199 8.92578 10.127 8.92578 9.69727C8.92578 9.53125 8.93555 9.38477 8.99414 9.20898C9.36523 7.74414 10.9668 6.64062 12.7832 6.64062C15.0977 6.64062 16.6211 7.91992 16.6211 9.85352C16.6211 11.2109 15.8887 12.2168 14.6973 13.4863L11.4746 16.9824L11.4746 17.0605L16.4258 17.0605C16.8652 17.0605 17.1777 17.3438 17.1777 17.8027C17.1777 18.252 16.8652 18.5449 16.4258 18.5449Z" fill="#ffffff" fill-opacity="0.85"/>
 </g>
</svg>
