<?xml version="1.0" encoding="UTF-8"?>
<!--Generator: Apple Native CoreSVG 232.5-->
<!DOCTYPE svg
PUBLIC "-//W3C//DTD SVG 1.1//EN"
       "http://www.w3.org/Graphics/SVG/1.1/DTD/svg11.dtd">
<svg version="1.1" xmlns="http://www.w3.org/2000/svg" xmlns:xlink="http://www.w3.org/1999/xlink" width="23.3203" height="22.9785">
 <g>
  <rect height="22.9785" opacity="0" width="23.3203" x="0" y="0"/>
  <path d="M3.79883 22.9785L19.1504 22.9785C21.6797 22.9785 22.959 21.709 22.959 19.2188L22.959 3.78906C22.959 1.29883 21.6797 0.0292969 19.1504 0.0292969L3.79883 0.0292969C1.2793 0.0292969 0 1.28906 0 3.78906L0 19.2188C0 21.7188 1.2793 22.9785 3.79883 22.9785Z" fill="#ffffff" fill-opacity="0.25"/>
  <path d="M8.57422 17.3047C8.06641 17.3047 7.76367 17.0117 7.76367 16.5527C7.76367 16.3184 7.87109 16.0938 8.06641 15.8789L12.2754 11.3281C13.0762 10.4688 13.7891 9.66797 13.7891 8.73047C13.7891 7.59766 12.9297 6.83594 11.6211 6.83594C10.3027 6.83594 9.52148 7.69531 9.22852 8.59375C9.05273 8.93555 8.84766 9.17969 8.4375 9.17969C7.98828 9.17969 7.68555 8.88672 7.68555 8.45703C7.68555 8.29102 7.70508 8.14453 7.76367 7.96875C8.13477 6.50391 9.73633 5.40039 11.5527 5.40039C13.8672 5.40039 15.3906 6.67969 15.3906 8.61328C15.3906 9.9707 14.6582 10.9766 13.4668 12.2461L10.2344 15.7422L10.2344 15.8203L15.1953 15.8203C15.6348 15.8203 15.9473 16.1035 15.9473 16.5625C15.9473 17.0117 15.6348 17.3047 15.1953 17.3047Z" fill="#ffffff" fill-opacity="0.85"/>
 </g>
</svg>
