<svg version="1.1" xmlns="http://www.w3.org/2000/svg" xmlns:xlink="http://www.w3.org/1999/xlink" width="23.3203" height="22.9785" viewBox="0 0 23.3203 22.9785">
 <g>
  <rect height="22.9785" opacity="0" width="23.3203" x="0" y="0"/>
  <path d="M22.959 3.78906L22.959 19.2188C22.959 21.709 21.6797 22.9785 19.1504 22.9785L3.79883 22.9785C1.2793 22.9785 0 21.7188 0 19.2188L0 3.78906C0 1.28906 1.2793 0.0292969 3.79883 0.0292969L19.1504 0.0292969C21.6797 0.0292969 22.959 1.29883 22.959 3.78906ZM14.5508 6.58203L13.0469 7.77344C12.8418 7.92969 12.6855 8.14453 12.6855 8.4375C12.6855 8.79883 12.9297 9.05273 13.2812 9.05273C13.4668 9.05273 13.5742 8.99414 13.6914 8.90625L14.9707 7.87109L14.9707 16.0059C14.9707 16.4648 15.3516 16.8359 15.8105 16.8359C16.25 16.8359 16.6309 16.4648 16.6309 16.0059L16.6309 7.03125C16.6309 6.45508 16.2598 6.10352 15.6836 6.10352C15.2148 6.10352 14.8242 6.36719 14.5508 6.58203ZM5.69336 8.73047C5.69336 9.14062 5.92773 9.45312 6.37695 9.45312C6.75781 9.45312 6.99219 9.27734 7.09961 8.90625C7.32422 7.95898 7.68555 7.34375 8.49609 7.34375C9.375 7.34375 9.82422 8.13477 9.82422 9.0625C9.82422 10.0879 9.17969 11.0938 8.4668 12.0312L6.08398 15.1367C5.86914 15.4102 5.68359 15.6934 5.68359 16.0449C5.68359 16.4258 5.92773 16.709 6.44531 16.709L10.918 16.709C11.3184 16.709 11.5723 16.4355 11.5723 16.0352C11.5723 15.6055 11.3086 15.3613 10.918 15.3613L7.70508 15.3613L7.70508 15.2637L9.72656 12.627C10.957 11.0645 11.3672 10.1172 11.3672 8.99414C11.3672 7.28516 10.2441 6.01562 8.50586 6.01562C6.88477 6.01562 5.69336 7.38281 5.69336 8.73047Z" fill="currentColor"/>
 </g>
</svg>
