<svg version="1.1" xmlns="http://www.w3.org/2000/svg" xmlns:xlink="http://www.w3.org/1999/xlink" width="23.3203" height="22.9785" viewBox="0 0 23.3203 22.9785">
 <g>
  <rect height="22.9785" opacity="0" width="23.3203" x="0" y="0"/>
  <path d="M22.959 3.78906L22.959 19.2188C22.959 21.709 21.6797 22.9785 19.1504 22.9785L3.79883 22.9785C1.2793 22.9785 0 21.7188 0 19.2188L0 3.78906C0 1.28906 1.2793 0.0292969 3.79883 0.0292969L19.1504 0.0292969C21.6797 0.0292969 22.959 1.29883 22.959 3.78906ZM12.9785 6.25977C12.5781 6.25977 12.3145 6.54297 12.3145 6.94336C12.3145 7.33398 12.5781 7.61719 12.9785 7.61719L16.4355 7.61719L16.4355 7.72461L13.4668 15.4785C13.3594 15.7422 13.3203 15.8887 13.3203 16.1523C13.3203 16.5039 13.5449 16.8652 14.082 16.8652C14.4922 16.8652 14.6777 16.6992 14.834 16.2793L17.8906 8.11523C18.0078 7.77344 18.0957 7.49023 18.0957 7.14844C18.0957 6.62109 17.6953 6.25977 17.1777 6.25977ZM5.29297 8.73047C5.29297 9.14062 5.52734 9.45312 5.97656 9.45312C6.35742 9.45312 6.5918 9.27734 6.69922 8.90625C6.92383 7.95898 7.28516 7.34375 8.0957 7.34375C8.96484 7.34375 9.41406 8.13477 9.41406 9.0625C9.41406 10.0879 8.76953 11.0938 8.06641 12.0312L5.68359 15.1367C5.46875 15.4102 5.2832 15.6934 5.2832 16.0449C5.2832 16.4258 5.52734 16.709 6.04492 16.709L10.5176 16.709C10.918 16.709 11.1719 16.4355 11.1719 16.0352C11.1719 15.6055 10.9082 15.3613 10.5176 15.3613L7.30469 15.3613L7.30469 15.2637L9.32617 12.627C10.5469 11.0645 10.957 10.1172 10.957 8.99414C10.957 7.28516 9.84375 6.01562 8.10547 6.01562C6.48438 6.01562 5.29297 7.38281 5.29297 8.73047Z" fill="var(--color-primary)"/>
 </g>
</svg>
