<?xml version="1.0" encoding="UTF-8"?>
<!--Generator: Apple Native CoreSVG 232.5-->
<!DOCTYPE svg
PUBLIC "-//W3C//DTD SVG 1.1//EN"
       "http://www.w3.org/Graphics/SVG/1.1/DTD/svg11.dtd">
<svg version="1.1" xmlns="http://www.w3.org/2000/svg" xmlns:xlink="http://www.w3.org/1999/xlink" width="23.3203" height="22.9785">
 <g>
  <rect height="22.9785" opacity="0" width="23.3203" x="0" y="0"/>
  <path d="M3.79883 22.9785L19.1504 22.9785C21.6797 22.9785 22.959 21.709 22.959 19.2188L22.959 3.78906C22.959 1.29883 21.6797 0.0292969 19.1504 0.0292969L3.79883 0.0292969C1.2793 0.0292969 0 1.28906 0 3.78906L0 19.2188C0 21.7188 1.2793 22.9785 3.79883 22.9785ZM3.83789 21.25C2.4707 21.25 1.72852 20.5273 1.72852 19.1309L1.72852 3.87695C1.72852 2.48047 2.4707 1.75781 3.83789 1.75781L19.1211 1.75781C20.459 1.75781 21.2305 2.48047 21.2305 3.87695L21.2305 19.1309C21.2305 20.5273 20.459 21.25 19.1211 21.25Z" fill="#ffffff" fill-opacity="0.55"/>
  <path d="M6.18164 16.582L10.5469 16.582C10.9375 16.582 11.1816 16.3184 11.1816 15.9277C11.1816 15.5176 10.9277 15.2734 10.5469 15.2734L7.40234 15.2734L7.40234 15.1855L9.38477 12.5977C10.5762 11.0742 10.9766 10.1465 10.9766 9.05273C10.9766 7.38281 9.89258 6.14258 8.19336 6.14258C6.61133 6.14258 5.45898 7.48047 5.45898 8.79883C5.45898 9.19922 5.69336 9.49219 6.12305 9.49219C6.48438 9.49219 6.70898 9.32617 6.81641 8.96484C7.03125 8.03711 7.39258 7.43164 8.18359 7.43164C9.04297 7.43164 9.48242 8.21289 9.48242 9.12109C9.48242 10.1172 8.86719 11.0938 8.16406 12.0117L5.83008 15.0586C5.625 15.3223 5.43945 15.5957 5.43945 15.9277C5.43945 16.3086 5.68359 16.582 6.18164 16.582ZM14.0039 16.7383C14.4141 16.7383 14.5996 16.5625 14.7461 16.1719L17.7344 8.18359C17.8516 7.85156 17.9395 7.57812 17.9395 7.24609C17.9395 6.73828 17.5488 6.39648 17.0312 6.39648L12.9395 6.39648C12.5586 6.39648 12.2949 6.66992 12.2949 7.05078C12.2949 7.43164 12.5586 7.70508 12.9395 7.70508L16.3281 7.70508L16.3281 7.80273L13.418 15.3906C13.3203 15.6348 13.2812 15.791 13.2812 16.0449C13.2812 16.3867 13.4961 16.7383 14.0039 16.7383Z" fill="#ffffff" fill-opacity="0.85"/>
 </g>
</svg>
