<svg version="1.1" xmlns="http://www.w3.org/2000/svg" xmlns:xlink="http://www.w3.org/1999/xlink" width="25.8008" height="25.459" viewBox="0 0 25.8008 25.459">
 <g>
  <rect height="25.459" opacity="0" width="25.8008" x="0" y="0"/>
  <path d="M12.7148 25.4395C19.6777 25.4395 25.4395 19.6777 25.4395 12.7246C25.4395 5.76172 19.668 0 12.7051 0C5.75195 0 0 5.76172 0 12.7246C0 19.6777 5.76172 25.4395 12.7148 25.4395ZM12.7148 23.623C6.67969 23.623 1.82617 18.7598 1.82617 12.7246C1.82617 6.67969 6.66992 1.82617 12.7051 1.82617C18.75 1.82617 23.6133 6.67969 23.6133 12.7246C23.6133 18.7598 18.7598 23.623 12.7148 23.623Z" fill="var(--color-primary)"/>
  <path d="M12.7539 18.6621C15.3418 18.6621 16.9922 17.2559 16.9922 15.3027C16.9922 13.8477 15.8691 12.6562 14.3555 12.5098L14.3555 12.4219C15.6152 12.2266 16.5918 11.0645 16.5918 9.74609C16.5918 8.01758 15.0293 6.78711 12.8418 6.78711C10.8691 6.78711 9.3457 7.73438 9.05273 9.17969C9.01367 9.3457 8.99414 9.47266 8.99414 9.64844C8.99414 10.0879 9.30664 10.3809 9.74609 10.3809C10.1367 10.3809 10.3809 10.1855 10.4883 9.79492C10.7422 8.80859 11.5918 8.17383 12.8125 8.17383C14.1406 8.17383 14.9707 8.85742 14.9707 9.94141C14.9707 11.0352 14.043 11.8652 12.793 11.8652L11.9336 11.8652C11.5332 11.8652 11.25 12.1387 11.25 12.5391C11.25 12.9297 11.5332 13.2129 11.9336 13.2129L12.8711 13.2129C14.3359 13.2129 15.3711 14.0527 15.3711 15.2441C15.3711 16.4551 14.3359 17.2656 12.7832 17.2656C11.4062 17.2656 10.5469 16.5723 10.2637 15.6445C10.1172 15.2441 9.88281 15.0684 9.50195 15.0684C9.0625 15.0684 8.75 15.3809 8.75 15.8105C8.75 15.9863 8.75977 16.0938 8.80859 16.2598C9.17969 17.6855 10.7715 18.6621 12.7539 18.6621Z" fill="var(--color-primary)"/>
 </g>
</svg>
