<?xml version="1.0" encoding="UTF-8"?>
<!--Generator: Apple Native CoreSVG 232.5-->
<!DOCTYPE svg
PUBLIC "-//W3C//DTD SVG 1.1//EN"
       "http://www.w3.org/Graphics/SVG/1.1/DTD/svg11.dtd">
<svg version="1.1" xmlns="http://www.w3.org/2000/svg" xmlns:xlink="http://www.w3.org/1999/xlink" width="23.3203" height="22.9785">
 <g>
  <rect height="22.9785" opacity="0" width="23.3203" x="0" y="0"/>
  <path d="M3.79883 22.9785L19.1504 22.9785C21.6797 22.9785 22.959 21.709 22.959 19.2188L22.959 3.78906C22.959 1.29883 21.6797 0.0292969 19.1504 0.0292969L3.79883 0.0292969C1.2793 0.0292969 0 1.28906 0 3.78906L0 19.2188C0 21.7188 1.2793 22.9785 3.79883 22.9785Z" fill="#ffffff" fill-opacity="0.25"/>
  <path d="M11.5332 17.5684C9.49219 17.5684 7.86133 16.5723 7.48047 15.1074C7.43164 14.9316 7.42188 14.8242 7.42188 14.6582C7.42188 14.1992 7.74414 13.877 8.20312 13.877C8.59375 13.877 8.82812 14.0625 8.97461 14.4727C9.27734 15.4199 10.1465 16.1328 11.5625 16.1328C13.1445 16.1328 14.1992 15.3027 14.1992 14.0625C14.1992 12.8516 13.1445 11.9922 11.6504 11.9922L10.6934 11.9922C10.2832 11.9922 9.99023 11.6992 9.99023 11.2988C9.99023 10.8789 10.2832 10.5957 10.6934 10.5957L11.5723 10.5957C12.8516 10.5957 13.7988 9.75586 13.7988 8.63281C13.7988 7.5293 12.9492 6.83594 11.5918 6.83594C10.3418 6.83594 9.47266 7.48047 9.21875 8.48633C9.0918 8.88672 8.84766 9.0918 8.4375 9.0918C7.98828 9.0918 7.67578 8.78906 7.67578 8.33008C7.67578 8.1543 7.69531 8.02734 7.72461 7.85156C8.03711 6.35742 9.59961 5.40039 11.6211 5.40039C13.8672 5.40039 15.4688 6.66016 15.4688 8.4375C15.4688 9.78516 14.4727 10.9766 13.1738 11.1719L13.1738 11.2598C14.7266 11.416 15.8789 12.6367 15.8789 14.1211C15.8789 16.1328 14.1895 17.5684 11.5332 17.5684Z" fill="#ffffff" fill-opacity="0.85"/>
 </g>
</svg>
