<svg version="1.1" xmlns="http://www.w3.org/2000/svg" xmlns:xlink="http://www.w3.org/1999/xlink" width="23.3203" height="22.9785" viewBox="0 0 23.3203 22.9785">
 <g>
  <rect height="22.9785" opacity="0" width="23.3203" x="0" y="0"/>
  <path d="M22.959 3.78906L22.959 19.2188C22.959 21.709 21.6797 22.9785 19.1504 22.9785L3.79883 22.9785C1.2793 22.9785 0 21.7188 0 19.2188L0 3.78906C0 1.28906 1.2793 0.0292969 3.79883 0.0292969L19.1504 0.0292969C21.6797 0.0292969 22.959 1.29883 22.959 3.78906ZM12.1191 11.4648C12.1191 13.9844 12.8418 16.9336 15.3711 16.9336C17.8906 16.9336 18.6035 13.9844 18.6035 11.4648C18.6035 8.94531 17.8906 5.99609 15.3711 5.99609C12.8418 5.99609 12.1191 8.94531 12.1191 11.4648ZM4.74609 7.93945C4.66797 8.19336 4.64844 8.42773 4.64844 8.62305C4.64844 9.00391 4.89258 9.30664 5.3418 9.30664C5.75195 9.30664 5.95703 9.14062 6.07422 8.74023C6.26953 7.92969 6.70898 7.37305 7.51953 7.37305C8.42773 7.37305 8.86719 8.08594 8.86719 8.99414C8.86719 9.98047 8.30078 10.7227 7.28516 10.7227L6.92383 10.7227C6.52344 10.7227 6.29883 10.9766 6.29883 11.3379C6.29883 11.7188 6.54297 11.9531 6.92383 11.9531L7.30469 11.9531C8.4668 11.9531 9.11133 12.5781 9.11133 13.7891C9.11133 14.7363 8.60352 15.5664 7.56836 15.5664C6.57227 15.5664 6.09375 14.873 5.94727 14.2188C5.83008 13.8281 5.5957 13.6328 5.21484 13.6328C4.77539 13.6328 4.48242 13.9062 4.48242 14.3555C4.48242 14.5703 4.52148 14.8145 4.58008 15.0293C4.95117 16.2109 6.18164 16.9043 7.56836 16.9043C9.36523 16.9043 10.7324 15.7324 10.7324 13.8281C10.7324 12.2754 9.83398 11.416 8.68164 11.3086L8.68164 11.2598C9.85352 10.957 10.4199 9.90234 10.4199 8.81836C10.4199 7.08008 9.16016 6.04492 7.51953 6.04492C6.19141 6.04492 5.10742 6.79688 4.74609 7.93945ZM16.9531 11.4648C16.9531 13.623 16.5723 15.5762 15.3711 15.5762C14.1602 15.5762 13.7891 13.623 13.7891 11.4648C13.7891 9.30664 14.1602 7.35352 15.3711 7.35352C16.5723 7.35352 16.9531 9.30664 16.9531 11.4648Z" fill="currentColor"/>
 </g>
</svg>
