<svg version="1.1" xmlns="http://www.w3.org/2000/svg" xmlns:xlink="http://www.w3.org/1999/xlink" width="23.3203" height="22.9785" viewBox="0 0 23.3203 22.9785">
 <g>
  <rect height="22.9785" opacity="0" width="23.3203" x="0" y="0"/>
  <path d="M3.79883 22.9785L19.1504 22.9785C21.6797 22.9785 22.959 21.709 22.959 19.2188L22.959 3.78906C22.959 1.29883 21.6797 0.0292969 19.1504 0.0292969L3.79883 0.0292969C1.2793 0.0292969 0 1.28906 0 3.78906L0 19.2188C0 21.7188 1.2793 22.9785 3.79883 22.9785ZM3.83789 21.25C2.4707 21.25 1.72852 20.5273 1.72852 19.1309L1.72852 3.87695C1.72852 2.48047 2.4707 1.75781 3.83789 1.75781L19.1211 1.75781C20.459 1.75781 21.2305 2.48047 21.2305 3.87695L21.2305 19.1309C21.2305 20.5273 20.459 21.25 19.1211 21.25Z" fill="var(--color-secondary)"/>
  <path d="M8.57422 16.7871C10.3223 16.7871 11.6602 15.6543 11.6602 13.7793C11.6602 12.2656 10.7812 11.4355 9.66797 11.3184L9.66797 11.2793C10.8105 10.9766 11.3574 9.96094 11.3574 8.88672C11.3574 7.19727 10.1367 6.19141 8.52539 6.19141C7.23633 6.19141 6.19141 6.92383 5.83008 8.03711C5.76172 8.28125 5.73242 8.50586 5.73242 8.71094C5.73242 9.07227 5.97656 9.36523 6.41602 9.36523C6.80664 9.36523 7.01172 9.20898 7.11914 8.81836C7.30469 8.02734 7.74414 7.4707 8.52539 7.4707C9.42383 7.4707 9.86328 8.17383 9.86328 9.07227C9.86328 10.0391 9.29688 10.7617 8.31055 10.7617L7.94922 10.7617C7.56836 10.7617 7.33398 10.9961 7.33398 11.3574C7.33398 11.7188 7.58789 11.9434 7.94922 11.9434L8.33008 11.9434C9.45312 11.9434 10.0879 12.5684 10.0879 13.7402C10.0879 14.6777 9.59961 15.4883 8.58398 15.4883C7.60742 15.4883 7.13867 14.8047 6.98242 14.1699C6.88477 13.7988 6.66016 13.6035 6.28906 13.6035C5.85938 13.6035 5.56641 13.8672 5.56641 14.2969C5.56641 14.5117 5.60547 14.7559 5.67383 14.9512C6.02539 16.1035 7.23633 16.7871 8.57422 16.7871ZM15.8105 16.709C16.2402 16.709 16.6016 16.3477 16.6016 15.8984L16.6016 7.12891C16.6016 6.57227 16.25 6.24023 15.6934 6.24023C15.2246 6.24023 14.8535 6.48438 14.5898 6.69922L13.1152 7.86133C12.9199 8.01758 12.7734 8.22266 12.7734 8.50586C12.7734 8.85742 13.0078 9.10156 13.3398 9.10156C13.5156 9.10156 13.623 9.04297 13.7402 8.95508L15 7.94922L15 15.8984C15 16.3477 15.3613 16.709 15.8105 16.709Z" fill="var(--color-primary)"/>
 </g>
</svg>
