<?xml version="1.0" encoding="UTF-8"?>
<!--Generator: Apple Native CoreSVG 232.5-->
<!DOCTYPE svg
PUBLIC "-//W3C//DTD SVG 1.1//EN"
       "http://www.w3.org/Graphics/SVG/1.1/DTD/svg11.dtd">
<svg version="1.1" xmlns="http://www.w3.org/2000/svg" xmlns:xlink="http://www.w3.org/1999/xlink" width="25.8008" height="25.459">
 <g>
  <rect height="25.459" opacity="0" width="25.8008" x="0" y="0"/>
  <path d="M12.7148 25.4395C19.6777 25.4395 25.4395 19.6777 25.4395 12.7246C25.4395 5.76172 19.668 0 12.7051 0C5.75195 0 0 5.76172 0 12.7246C0 19.6777 5.76172 25.4395 12.7148 25.4395Z" fill="#ffffff" fill-opacity="0.25"/>
  <path d="M8.89648 18.1543C7.51953 18.1543 6.2793 17.4609 5.9082 16.2793C5.84961 16.0742 5.81055 15.8301 5.81055 15.6055C5.81055 15.166 6.10352 14.8926 6.55273 14.8926C6.93359 14.8926 7.1582 15.0879 7.27539 15.4785C7.42188 16.123 7.90039 16.8164 8.89648 16.8164C9.93164 16.8164 10.4395 15.9863 10.4395 15.0293C10.4395 13.8379 9.79492 13.2031 8.63281 13.2031L8.25195 13.2031C7.88086 13.2031 7.62695 12.9688 7.62695 12.5977C7.62695 12.2266 7.86133 11.9824 8.25195 11.9824L8.62305 11.9824C9.63867 11.9824 10.2148 11.2402 10.2148 10.2539C10.2148 9.33594 9.75586 8.62305 8.84766 8.62305C8.03711 8.62305 7.60742 9.18945 7.40234 10C7.29492 10.3906 7.08008 10.5566 6.67969 10.5566C6.23047 10.5566 5.98633 10.2539 5.98633 9.88281C5.98633 9.66797 6.01562 9.44336 6.08398 9.18945C6.44531 8.05664 7.5293 7.30469 8.84766 7.30469C10.4883 7.30469 11.7578 8.33008 11.7578 10.0684C11.7578 11.1621 11.1914 12.207 10.0195 12.5195L10.0195 12.5586C11.1621 12.6758 12.0605 13.5254 12.0605 15.0781C12.0605 16.9922 10.6934 18.1543 8.89648 18.1543ZM16.5625 18.1543C15.1855 18.1543 13.9453 17.4609 13.584 16.2793C13.5156 16.0742 13.4766 15.8301 13.4766 15.6055C13.4766 15.166 13.7793 14.8926 14.2188 14.8926C14.5996 14.8926 14.834 15.0879 14.9316 15.4785C15.0977 16.123 15.5664 16.8164 16.5723 16.8164C17.6074 16.8164 18.1055 15.9863 18.1055 15.0293C18.1055 13.8379 17.4512 13.2031 16.3086 13.2031L15.918 13.2031C15.5469 13.2031 15.2832 12.9688 15.2832 12.5977C15.2832 12.2266 15.5273 11.9824 15.918 11.9824L16.2891 11.9824C17.2949 11.9824 17.8711 11.2402 17.8711 10.2539C17.8711 9.33594 17.4219 8.62305 16.5039 8.62305C15.7129 8.62305 15.2637 9.18945 15.0781 10C14.9609 10.3906 14.7461 10.5566 14.3457 10.5566C13.8965 10.5566 13.6426 10.2539 13.6426 9.88281C13.6426 9.66797 13.6719 9.44336 13.7402 9.18945C14.1113 8.05664 15.1855 7.30469 16.5039 7.30469C18.1641 7.30469 19.4141 8.33008 19.4141 10.0684C19.4141 11.1621 18.8574 12.207 17.6855 12.5195L17.6855 12.5586C18.8184 12.6758 19.7266 13.5254 19.7266 15.0781C19.7266 16.9922 18.3594 18.1543 16.5625 18.1543Z" fill="#ffffff" fill-opacity="0.85"/>
 </g>
</svg>
