<?xml version="1.0" encoding="UTF-8"?>
<!--Generator: Apple Native CoreSVG 232.5-->
<!DOCTYPE svg
PUBLIC "-//W3C//DTD SVG 1.1//EN"
       "http://www.w3.org/Graphics/SVG/1.1/DTD/svg11.dtd">
<svg version="1.1" xmlns="http://www.w3.org/2000/svg" xmlns:xlink="http://www.w3.org/1999/xlink" width="23.3203" height="22.9785">
 <g>
  <rect height="22.9785" opacity="0" width="23.3203" x="0" y="0"/>
  <path d="M3.79883 22.9785L19.1504 22.9785C21.6797 22.9785 22.959 21.709 22.959 19.2188L22.959 3.78906C22.959 1.29883 21.6797 0.0292969 19.1504 0.0292969L3.79883 0.0292969C1.2793 0.0292969 0 1.28906 0 3.78906L0 19.2188C0 21.7188 1.2793 22.9785 3.79883 22.9785ZM3.83789 21.25C2.4707 21.25 1.72852 20.5273 1.72852 19.1309L1.72852 3.87695C1.72852 2.48047 2.4707 1.75781 3.83789 1.75781L19.1211 1.75781C20.459 1.75781 21.2305 2.48047 21.2305 3.87695L21.2305 19.1309C21.2305 20.5273 20.459 21.25 19.1211 21.25Z" fill="#ffffff" fill-opacity="0.55"/>
  <path d="M7.72461 16.7871C9.48242 16.7871 10.8105 15.6543 10.8105 13.7793C10.8105 12.2656 9.93164 11.4355 8.81836 11.3184L8.81836 11.2793C9.96094 10.9766 10.5176 9.96094 10.5176 8.88672C10.5176 7.19727 9.28711 6.19141 7.67578 6.19141C6.39648 6.19141 5.3418 6.92383 4.99023 8.03711C4.91211 8.28125 4.89258 8.50586 4.89258 8.71094C4.89258 9.07227 5.12695 9.36523 5.56641 9.36523C5.95703 9.36523 6.16211 9.20898 6.26953 8.81836C6.46484 8.02734 6.89453 7.4707 7.67578 7.4707C8.57422 7.4707 9.01367 8.17383 9.01367 9.07227C9.01367 10.0391 8.45703 10.7617 7.46094 10.7617L7.09961 10.7617C6.71875 10.7617 6.49414 10.9961 6.49414 11.3574C6.49414 11.7188 6.73828 11.9434 7.09961 11.9434L7.48047 11.9434C8.60352 11.9434 9.24805 12.5684 9.24805 13.7402C9.24805 14.6777 8.75 15.4883 7.73438 15.4883C6.75781 15.4883 6.28906 14.8047 6.14258 14.1699C6.03516 13.7988 5.81055 13.6035 5.43945 13.6035C5.00977 13.6035 4.72656 13.8672 4.72656 14.2969C4.72656 14.5117 4.75586 14.7559 4.82422 14.9512C5.18555 16.1035 6.38672 16.7871 7.72461 16.7871ZM15.1953 16.8262C17.1191 16.8262 18.1543 15.166 18.1543 13.2227C18.1543 11.4941 17.3242 9.88281 15.7031 9.88281C14.9707 9.88281 14.2676 10.2246 13.9258 10.9961L13.877 10.9961L14.1016 7.70508L17.1289 7.70508C17.5098 7.70508 17.7539 7.43164 17.7539 7.05078C17.7539 6.67969 17.5 6.39648 17.1289 6.39648L13.6816 6.39648C13.0859 6.39648 12.8223 6.77734 12.7832 7.36328L12.5586 10.9668C12.5391 11.1621 12.5293 11.3672 12.5293 11.5234C12.5293 11.9531 12.7539 12.3242 13.2617 12.3242C13.584 12.3242 13.7598 12.1777 13.9941 11.8652C14.2871 11.3965 14.6484 11.0645 15.2051 11.0645C16.2109 11.0645 16.6113 12.2656 16.6113 13.2617C16.6113 14.3848 16.1914 15.5273 15.1758 15.5273C14.4141 15.5273 13.9551 14.9414 13.7402 14.1895C13.6035 13.8086 13.3594 13.6426 13.0664 13.6426C12.6562 13.6426 12.4023 13.9062 12.4023 14.3164C12.4023 14.5605 12.4707 14.8242 12.5586 15.0488C12.9688 16.1035 14.0332 16.8262 15.1953 16.8262Z" fill="#ffffff" fill-opacity="0.85"/>
 </g>
</svg>
