<svg version="1.1" xmlns="http://www.w3.org/2000/svg" xmlns:xlink="http://www.w3.org/1999/xlink" width="25.8008" height="25.459" viewBox="0 0 25.8008 25.459">
 <g>
  <rect height="25.459" opacity="0" width="25.8008" x="0" y="0"/>
  <path d="M12.7148 25.4395C19.6777 25.4395 25.4395 19.6777 25.4395 12.7246C25.4395 5.76172 19.668 0 12.7051 0C5.75195 0 0 5.76172 0 12.7246C0 19.6777 5.76172 25.4395 12.7148 25.4395Z" fill="var(--color-tertiary)"/>
  <path d="M8.73047 18.1543C7.35352 18.1543 6.11328 17.4609 5.75195 16.2793C5.68359 16.0742 5.64453 15.8301 5.64453 15.6055C5.64453 15.166 5.9375 14.8926 6.37695 14.8926C6.76758 14.8926 7.00195 15.0879 7.10938 15.4785C7.25586 16.123 7.73438 16.8164 8.74023 16.8164C9.77539 16.8164 10.2734 15.9863 10.2734 15.0293C10.2734 13.8379 9.62891 13.2031 8.4668 13.2031L8.0957 13.2031C7.71484 13.2031 7.46094 12.9688 7.46094 12.5977C7.46094 12.2266 7.70508 11.9824 8.0957 11.9824L8.45703 11.9824C9.47266 11.9824 10.0488 11.2402 10.0488 10.2539C10.0488 9.33594 9.58984 8.62305 8.68164 8.62305C7.88086 8.62305 7.44141 9.18945 7.24609 10C7.13867 10.3906 6.91406 10.5566 6.52344 10.5566C6.06445 10.5566 5.81055 10.2539 5.81055 9.88281C5.81055 9.66797 5.84961 9.44336 5.91797 9.18945C6.28906 8.05664 7.36328 7.30469 8.68164 7.30469C10.332 7.30469 11.5918 8.33008 11.5918 10.0684C11.5918 11.1621 11.0254 12.207 9.85352 12.5195L9.85352 12.5586C10.9961 12.6758 11.8945 13.5254 11.8945 15.0781C11.8945 16.9922 10.5273 18.1543 8.73047 18.1543ZM16.6113 18.1934C14.0723 18.1934 13.3203 15.3027 13.3203 12.8711C13.3203 10.3223 14.043 7.27539 16.6406 7.27539C17.8906 7.27539 18.9648 7.96875 19.248 9.0918C19.2969 9.25781 19.3164 9.42383 19.3164 9.56055C19.3164 9.94141 19.1113 10.2344 18.6621 10.2344C18.2812 10.2344 18.0664 10.0586 17.9102 9.70703C17.6758 9.0918 17.2559 8.61328 16.6016 8.61328C15.0684 8.61328 14.873 11.3477 14.873 12.8516C14.873 12.9004 14.873 12.959 14.873 13.0078L14.9219 13.0078C15.1953 11.8848 15.9863 11.123 17.0801 11.123C18.7891 11.123 19.6289 12.793 19.6289 14.5312C19.6289 16.5332 18.5449 18.1934 16.6113 18.1934ZM16.5918 16.8555C17.5781 16.8555 18.0469 15.6348 18.0469 14.6094C18.0664 13.5742 17.6172 12.3828 16.5918 12.3828C15.5957 12.3828 15.0977 13.5254 15.0977 14.541C15.0977 15.5664 15.5469 16.8555 16.5918 16.8555Z" fill="var(--color-primary)"/>
 </g>
</svg>
