<?xml version="1.0" encoding="UTF-8"?>
<!--Generator: Apple Native CoreSVG 232.5-->
<!DOCTYPE svg
PUBLIC "-//W3C//DTD SVG 1.1//EN"
       "http://www.w3.org/Graphics/SVG/1.1/DTD/svg11.dtd">
<svg version="1.1" xmlns="http://www.w3.org/2000/svg" xmlns:xlink="http://www.w3.org/1999/xlink" width="23.3203" height="22.9785">
 <g>
  <rect height="22.9785" opacity="0" width="23.3203" x="0" y="0"/>
  <path d="M3.79883 22.9785L19.1504 22.9785C21.6797 22.9785 22.959 21.709 22.959 19.2188L22.959 3.78906C22.959 1.29883 21.6797 0.0292969 19.1504 0.0292969L3.79883 0.0292969C1.2793 0.0292969 0 1.28906 0 3.78906L0 19.2188C0 21.7188 1.2793 22.9785 3.79883 22.9785Z" fill="#ffffff" fill-opacity="0.25"/>
  <path d="M7.5 16.9141C6.12305 16.9141 4.88281 16.2207 4.51172 15.0391C4.45312 14.834 4.41406 14.5898 4.41406 14.3652C4.41406 13.9258 4.70703 13.6523 5.14648 13.6523C5.53711 13.6523 5.77148 13.8477 5.87891 14.2383C6.02539 14.8828 6.50391 15.5762 7.5 15.5762C8.54492 15.5762 9.04297 14.7461 9.04297 13.7891C9.04297 12.5977 8.39844 11.9629 7.23633 11.9629L6.86523 11.9629C6.48438 11.9629 6.23047 11.7285 6.23047 11.3574C6.23047 10.9863 6.46484 10.7422 6.86523 10.7422L7.22656 10.7422C8.24219 10.7422 8.81836 10 8.81836 9.01367C8.81836 8.0957 8.35938 7.38281 7.45117 7.38281C6.64062 7.38281 6.21094 7.94922 6.00586 8.75977C5.89844 9.15039 5.68359 9.31641 5.2832 9.31641C4.83398 9.31641 4.58008 9.01367 4.58008 8.64258C4.58008 8.42773 4.61914 8.20312 4.6875 7.94922C5.05859 6.81641 6.13281 6.06445 7.45117 6.06445C9.10156 6.06445 10.3613 7.08984 10.3613 8.82812C10.3613 9.92188 9.79492 10.9668 8.62305 11.2793L8.62305 11.3184C9.76562 11.4355 10.6641 12.2852 10.6641 13.8379C10.6641 15.752 9.29688 16.9141 7.5 16.9141ZM15.3809 16.9531C12.8418 16.9531 12.0898 14.0625 12.0898 11.6309C12.0898 9.08203 12.8125 6.03516 15.4004 6.03516C16.6602 6.03516 17.7344 6.72852 18.0176 7.85156C18.0664 8.01758 18.0859 8.18359 18.0859 8.32031C18.0859 8.70117 17.8809 8.99414 17.4316 8.99414C17.0508 8.99414 16.8359 8.81836 16.6797 8.4668C16.4453 7.85156 16.0254 7.37305 15.3711 7.37305C13.8379 7.37305 13.6426 10.1074 13.6426 11.6113C13.6426 11.6602 13.6426 11.7188 13.6426 11.7676L13.6914 11.7676C13.9648 10.6445 14.7559 9.88281 15.8496 9.88281C17.5586 9.88281 18.3984 11.5527 18.3984 13.291C18.3984 15.293 17.3145 16.9531 15.3809 16.9531ZM15.3613 15.6152C16.3477 15.6152 16.8164 14.3945 16.8164 13.3691C16.8359 12.334 16.3867 11.1426 15.3613 11.1426C14.3652 11.1426 13.8672 12.2852 13.8672 13.3008C13.8672 14.3262 14.3164 15.6152 15.3613 15.6152Z" fill="#ffffff" fill-opacity="0.85"/>
 </g>
</svg>
