<?xml version="1.0" encoding="UTF-8"?>
<!--Generator: Apple Native CoreSVG 232.5-->
<!DOCTYPE svg
PUBLIC "-//W3C//DTD SVG 1.1//EN"
       "http://www.w3.org/Graphics/SVG/1.1/DTD/svg11.dtd">
<svg version="1.1" xmlns="http://www.w3.org/2000/svg" xmlns:xlink="http://www.w3.org/1999/xlink" width="23.3203" height="22.9785">
 <g>
  <rect height="22.9785" opacity="0" width="23.3203" x="0" y="0"/>
  <path d="M3.79883 22.9785L19.1504 22.9785C21.6797 22.9785 22.959 21.709 22.959 19.2188L22.959 3.78906C22.959 1.29883 21.6797 0.0292969 19.1504 0.0292969L3.79883 0.0292969C1.2793 0.0292969 0 1.28906 0 3.78906L0 19.2188C0 21.7188 1.2793 22.9785 3.79883 22.9785ZM3.83789 21.25C2.4707 21.25 1.72852 20.5273 1.72852 19.1309L1.72852 3.87695C1.72852 2.48047 2.4707 1.75781 3.83789 1.75781L19.1211 1.75781C20.459 1.75781 21.2305 2.48047 21.2305 3.87695L21.2305 19.1309C21.2305 20.5273 20.459 21.25 19.1211 21.25Z" fill="#ffffff" fill-opacity="0.85"/>
  <path d="M7.57812 16.7871C9.33594 16.7871 10.6641 15.6543 10.6641 13.7793C10.6641 12.2656 9.79492 11.4355 8.67188 11.3184L8.67188 11.2793C9.81445 10.9766 10.3711 9.96094 10.3711 8.88672C10.3711 7.19727 9.14062 6.19141 7.5293 6.19141C6.25 6.19141 5.19531 6.92383 4.84375 8.03711C4.76562 8.28125 4.74609 8.50586 4.74609 8.71094C4.74609 9.07227 4.98047 9.36523 5.41992 9.36523C5.81055 9.36523 6.01562 9.20898 6.12305 8.81836C6.31836 8.02734 6.74805 7.4707 7.5293 7.4707C8.42773 7.4707 8.86719 8.17383 8.86719 9.07227C8.86719 10.0391 8.31055 10.7617 7.31445 10.7617L6.95312 10.7617C6.57227 10.7617 6.34766 10.9961 6.34766 11.3574C6.34766 11.7188 6.5918 11.9434 6.95312 11.9434L7.33398 11.9434C8.45703 11.9434 9.10156 12.5684 9.10156 13.7402C9.10156 14.6777 8.60352 15.4883 7.58789 15.4883C6.61133 15.4883 6.14258 14.8047 5.99609 14.1699C5.88867 13.7988 5.66406 13.6035 5.29297 13.6035C4.86328 13.6035 4.58008 13.8672 4.58008 14.2969C4.58008 14.5117 4.61914 14.7559 4.67773 14.9512C5.03906 16.1035 6.24023 16.7871 7.57812 16.7871ZM15.1953 16.7871C17.1289 16.7871 18.3594 15.5371 18.3594 13.8281C18.3594 12.4805 17.5195 11.4551 16.5039 11.2207L16.5039 11.1816C17.373 10.9082 18.0762 10.0586 18.0762 8.91602C18.0762 7.32422 16.9336 6.19141 15.1953 6.19141C13.6523 6.19141 12.334 7.1875 12.334 8.90625C12.334 10.1367 13.0664 10.918 13.916 11.1816L13.916 11.2207C12.8418 11.4648 12.041 12.4902 12.041 13.8281C12.041 15.625 13.3789 16.7871 15.1953 16.7871ZM15.2051 10.6641C14.375 10.6641 13.8672 9.91211 13.8672 9.0625C13.8672 8.17383 14.3652 7.39258 15.2051 7.39258C16.0938 7.39258 16.5332 8.20312 16.5332 9.0625C16.5332 9.95117 16.0449 10.6641 15.2051 10.6641ZM15.2051 15.5762C14.209 15.5762 13.6914 14.707 13.6914 13.7109C13.6914 12.7148 14.2188 11.8848 15.2051 11.8848C16.1426 11.8848 16.7188 12.6562 16.7188 13.7109C16.7188 14.707 16.2012 15.5762 15.2051 15.5762Z" fill="#ffffff" fill-opacity="0.85"/>
 </g>
</svg>
