<?xml version="1.0" encoding="UTF-8"?>
<!--Generator: Apple Native CoreSVG 232.5-->
<!DOCTYPE svg
PUBLIC "-//W3C//DTD SVG 1.1//EN"
       "http://www.w3.org/Graphics/SVG/1.1/DTD/svg11.dtd">
<svg version="1.1" xmlns="http://www.w3.org/2000/svg" xmlns:xlink="http://www.w3.org/1999/xlink" width="23.3203" height="22.9785">
 <g>
  <rect height="22.9785" opacity="0" width="23.3203" x="0" y="0"/>
  <path d="M3.79883 22.9785L19.1504 22.9785C21.6797 22.9785 22.959 21.709 22.959 19.2188L22.959 3.78906C22.959 1.29883 21.6797 0.0292969 19.1504 0.0292969L3.79883 0.0292969C1.2793 0.0292969 0 1.28906 0 3.78906L0 19.2188C0 21.7188 1.2793 22.9785 3.79883 22.9785Z" fill="#ffffff" fill-opacity="0.25"/>
  <path d="M6.74805 13.8867C6.74805 13.6426 6.80664 13.4082 6.94336 13.1641C8.29102 10.7617 9.67773 8.33008 11.0156 6.00586C11.2207 5.63477 11.4648 5.45898 11.8164 5.45898C12.334 5.45898 12.6074 5.84961 12.6074 6.2793C12.6074 6.46484 12.5488 6.62109 12.4609 6.80664C11.2695 9.01367 9.99023 11.1719 8.84766 13.3105L12.666 13.3105L12.666 10.3809C12.666 9.78516 12.9688 9.44336 13.4766 9.44336C14.0137 9.44336 14.3164 9.77539 14.3164 10.3809L14.3164 13.3105L15.3223 13.3105C15.8203 13.3105 16.1328 13.6035 16.1328 14.0332C16.1328 14.502 15.8203 14.8047 15.3223 14.8047L14.3164 14.8047L14.3164 16.3965C14.3164 17.0117 14.0137 17.3438 13.4766 17.3438C12.9688 17.3438 12.666 17.002 12.666 16.3965L12.666 14.8047L7.75391 14.8047C7.12891 14.8047 6.74805 14.4434 6.74805 13.8867Z" fill="#ffffff" fill-opacity="0.85"/>
 </g>
</svg>
