<?xml version="1.0" encoding="UTF-8"?>
<!--Generator: Apple Native CoreSVG 232.5-->
<!DOCTYPE svg
PUBLIC "-//W3C//DTD SVG 1.1//EN"
       "http://www.w3.org/Graphics/SVG/1.1/DTD/svg11.dtd">
<svg version="1.1" xmlns="http://www.w3.org/2000/svg" xmlns:xlink="http://www.w3.org/1999/xlink" width="25.8008" height="25.459">
 <g>
  <rect height="25.459" opacity="0" width="25.8008" x="0" y="0"/>
  <path d="M12.7148 25.4395C19.6777 25.4395 25.4395 19.6777 25.4395 12.7246C25.4395 5.76172 19.668 0 12.7051 0C5.75195 0 0 5.76172 0 12.7246C0 19.6777 5.76172 25.4395 12.7148 25.4395Z" fill="#ffffff" fill-opacity="0.25"/>
  <path d="M14.3555 18.5742C13.8477 18.5742 13.5352 18.2227 13.5352 17.6465L13.5352 16.084L8.80859 16.084C8.08594 16.084 7.62695 15.6445 7.62695 14.9707C7.62695 14.6387 7.70508 14.3555 7.92969 13.9844C8.98438 12.2559 10.8203 9.55078 12.1191 7.60742C12.5781 6.91406 13.0664 6.64062 13.8379 6.64062C14.6484 6.64062 15.1953 7.11914 15.1953 7.83203L15.1953 14.5996L16.3086 14.5996C16.7578 14.5996 17.0605 14.9023 17.0605 15.3516C17.0605 15.7812 16.748 16.084 16.3086 16.084L15.1953 16.084L15.1953 17.6465C15.1953 18.2324 14.8926 18.5742 14.3555 18.5742ZM13.5352 14.5996L13.5352 8.13477L13.4473 8.13477C12.1973 10.0098 10.2441 12.9102 9.29688 14.5312L9.29688 14.5996Z" fill="#ffffff" fill-opacity="0.85"/>
 </g>
</svg>
