<svg version="1.1" xmlns="http://www.w3.org/2000/svg" xmlns:xlink="http://www.w3.org/1999/xlink" width="23.3203" height="22.9785" viewBox="0 0 23.3203 22.9785">
 <g>
  <rect height="22.9785" opacity="0" width="23.3203" x="0" y="0"/>
  <path d="M3.79883 22.9785L19.1504 22.9785C21.6797 22.9785 22.959 21.709 22.959 19.2188L22.959 3.78906C22.959 1.29883 21.6797 0.0292969 19.1504 0.0292969L3.79883 0.0292969C1.2793 0.0292969 0 1.28906 0 3.78906L0 19.2188C0 21.7188 1.2793 22.9785 3.79883 22.9785Z" fill="var(--color-tertiary)"/>
  <path d="M13.125 17.334C12.6172 17.334 12.3047 16.9824 12.3047 16.4062L12.3047 14.8438L7.57812 14.8438C6.8457 14.8438 6.39648 14.4043 6.39648 13.7305C6.39648 13.3984 6.47461 13.1152 6.69922 12.7441C7.75391 11.0156 9.58984 8.31055 10.8887 6.36719C11.3477 5.67383 11.8359 5.40039 12.6074 5.40039C13.418 5.40039 13.9648 5.87891 13.9648 6.5918L13.9648 13.3594L15.0781 13.3594C15.5273 13.3594 15.8203 13.6621 15.8203 14.1113C15.8203 14.541 15.5176 14.8438 15.0781 14.8438L13.9648 14.8438L13.9648 16.4062C13.9648 16.9922 13.6621 17.334 13.125 17.334ZM12.3047 13.3594L12.3047 6.89453L12.2168 6.89453C10.9668 8.76953 9.01367 11.6699 8.06641 13.291L8.06641 13.3594Z" fill="var(--color-primary)"/>
 </g>
</svg>
