<?xml version="1.0" encoding="UTF-8"?>
<!--Generator: Apple Native CoreSVG 232.5-->
<!DOCTYPE svg
PUBLIC "-//W3C//DTD SVG 1.1//EN"
       "http://www.w3.org/Graphics/SVG/1.1/DTD/svg11.dtd">
<svg version="1.1" xmlns="http://www.w3.org/2000/svg" xmlns:xlink="http://www.w3.org/1999/xlink" width="25.8008" height="25.459">
 <g>
  <rect height="25.459" opacity="0" width="25.8008" x="0" y="0"/>
  <path d="M12.7148 25.4395C19.6777 25.4395 25.4395 19.6777 25.4395 12.7246C25.4395 5.76172 19.668 0 12.7051 0C5.75195 0 0 5.76172 0 12.7246C0 19.6777 5.76172 25.4395 12.7148 25.4395Z" fill="#ffffff" fill-opacity="0.25"/>
  <path d="M10.8301 18.1055C10.459 18.1055 10.0293 17.8711 10.0293 17.2852L10.0293 15.8008L7.04102 15.8008C6.46484 15.8008 6.08398 15.4199 6.08398 14.8633C6.08398 14.502 6.15234 14.209 6.34766 13.7695L8.84766 8.4668C9.16992 7.75391 9.55078 7.34375 10.3418 7.34375C11.0742 7.34375 11.6016 7.75391 11.6016 8.57422L11.6016 14.4727L12.1387 14.4727C12.5977 14.4727 12.793 14.7559 12.793 15.127C12.793 15.5176 12.5879 15.8008 12.1387 15.8008L11.6016 15.8008L11.6016 17.2852C11.6016 17.8223 11.25 18.1055 10.8301 18.1055ZM10.0586 14.502L10.0586 8.82812L10.0098 8.82812L7.49023 14.4336L7.49023 14.502ZM16.9336 18.0762C16.4648 18.0762 16.0938 17.7051 16.0938 17.2363L16.0938 9.11133L14.8047 10.1367C14.6875 10.2344 14.5801 10.293 14.3945 10.293C14.043 10.293 13.7988 10.0391 13.7988 9.67773C13.7988 9.38477 13.9551 9.16992 14.1504 9.01367L15.6738 7.8125C15.9277 7.60742 16.3281 7.34375 16.7969 7.34375C17.3828 7.34375 17.7441 7.69531 17.7441 8.27148L17.7441 17.2363C17.7441 17.7051 17.373 18.0762 16.9336 18.0762Z" fill="#ffffff" fill-opacity="0.85"/>
 </g>
</svg>
