<svg version="1.1" xmlns="http://www.w3.org/2000/svg" xmlns:xlink="http://www.w3.org/1999/xlink" width="23.3203" height="22.9785" viewBox="0 0 23.3203 22.9785">
 <g>
  <rect height="22.9785" opacity="0" width="23.3203" x="0" y="0"/>
  <path d="M22.959 3.78906L22.959 19.2188C22.959 21.709 21.6797 22.9785 19.1504 22.9785L3.79883 22.9785C1.2793 22.9785 0 21.7188 0 19.2188L0 3.78906C0 1.28906 1.2793 0.0292969 3.79883 0.0292969L19.1504 0.0292969C21.6797 0.0292969 22.959 1.29883 22.959 3.78906ZM7.61719 7.22656L5.11719 12.5293C4.92188 12.9688 4.85352 13.2617 4.85352 13.623C4.85352 14.1797 5.23438 14.5605 5.80078 14.5605L8.79883 14.5605L8.79883 16.0449C8.79883 16.6309 9.21875 16.8652 9.59961 16.8652C10.0195 16.8652 10.3613 16.582 10.3613 16.0449L10.3613 14.5605L10.9082 14.5605C11.3574 14.5605 11.5625 14.2773 11.5625 13.8867C11.5625 13.5156 11.3672 13.2324 10.9082 13.2324L10.3613 13.2324L10.3613 7.33398C10.3613 6.51367 9.84375 6.10352 9.11133 6.10352C8.32031 6.10352 7.93945 6.51367 7.61719 7.22656ZM14.4336 6.57227L12.9199 7.77344C12.7246 7.92969 12.5684 8.14453 12.5684 8.4375C12.5684 8.79883 12.8125 9.05273 13.1641 9.05273C13.3496 9.05273 13.457 8.99414 13.5645 8.89648L14.8535 7.87109L14.8535 15.9961C14.8535 16.4648 15.2344 16.8359 15.6934 16.8359C16.1426 16.8359 16.5137 16.4648 16.5137 15.9961L16.5137 7.03125C16.5137 6.45508 16.1523 6.10352 15.5664 6.10352C15.0977 6.10352 14.6973 6.36719 14.4336 6.57227ZM8.82812 13.2617L6.25977 13.2617L6.25977 13.1934L8.7793 7.58789L8.82812 7.58789Z" fill="currentColor"/>
 </g>
</svg>
