<?xml version="1.0" encoding="UTF-8"?>
<!--Generator: Apple Native CoreSVG 232.5-->
<!DOCTYPE svg
PUBLIC "-//W3C//DTD SVG 1.1//EN"
       "http://www.w3.org/Graphics/SVG/1.1/DTD/svg11.dtd">
<svg version="1.1" xmlns="http://www.w3.org/2000/svg" xmlns:xlink="http://www.w3.org/1999/xlink" width="23.3203" height="22.9785">
 <g>
  <rect height="22.9785" opacity="0" width="23.3203" x="0" y="0"/>
  <path d="M3.79883 22.9785L19.1504 22.9785C21.6797 22.9785 22.959 21.709 22.959 19.2188L22.959 3.78906C22.959 1.29883 21.6797 0.0292969 19.1504 0.0292969L3.79883 0.0292969C1.2793 0.0292969 0 1.28906 0 3.78906L0 19.2188C0 21.7188 1.2793 22.9785 3.79883 22.9785Z" fill="#ffffff" fill-opacity="0.25"/>
  <path d="M9.59961 16.8652C9.21875 16.8652 8.79883 16.6309 8.79883 16.0449L8.79883 14.5605L5.80078 14.5605C5.23438 14.5605 4.85352 14.1797 4.85352 13.623C4.85352 13.2617 4.92188 12.9688 5.11719 12.5293L7.61719 7.22656C7.93945 6.51367 8.32031 6.10352 9.11133 6.10352C9.84375 6.10352 10.3613 6.51367 10.3613 7.33398L10.3613 13.2324L10.9082 13.2324C11.3672 13.2324 11.5625 13.5156 11.5625 13.8867C11.5625 14.2773 11.3574 14.5605 10.9082 14.5605L10.3613 14.5605L10.3613 16.0449C10.3613 16.582 10.0195 16.8652 9.59961 16.8652ZM8.82812 13.2617L8.82812 7.58789L8.7793 7.58789L6.25977 13.1934L6.25977 13.2617ZM15.6934 16.8359C15.2344 16.8359 14.8535 16.4648 14.8535 15.9961L14.8535 7.87109L13.5645 8.89648C13.457 8.99414 13.3496 9.05273 13.1641 9.05273C12.8125 9.05273 12.5684 8.79883 12.5684 8.4375C12.5684 8.14453 12.7246 7.92969 12.9199 7.77344L14.4336 6.57227C14.6973 6.36719 15.0977 6.10352 15.5664 6.10352C16.1523 6.10352 16.5137 6.45508 16.5137 7.03125L16.5137 15.9961C16.5137 16.4648 16.1426 16.8359 15.6934 16.8359Z" fill="#ffffff" fill-opacity="0.85"/>
 </g>
</svg>
