<svg version="1.1" xmlns="http://www.w3.org/2000/svg" xmlns:xlink="http://www.w3.org/1999/xlink" width="23.3203" height="22.9785" viewBox="0 0 23.3203 22.9785">
 <g>
  <rect height="22.9785" opacity="0" width="23.3203" x="0" y="0"/>
  <path d="M3.79883 22.9785L19.1504 22.9785C21.6797 22.9785 22.959 21.709 22.959 19.2188L22.959 3.78906C22.959 1.29883 21.6797 0.0292969 19.1504 0.0292969L3.79883 0.0292969C1.2793 0.0292969 0 1.28906 0 3.78906L0 19.2188C0 21.7188 1.2793 22.9785 3.79883 22.9785ZM3.83789 21.25C2.4707 21.25 1.72852 20.5273 1.72852 19.1309L1.72852 3.87695C1.72852 2.48047 2.4707 1.75781 3.83789 1.75781L19.1211 1.75781C20.459 1.75781 21.2305 2.48047 21.2305 3.87695L21.2305 19.1309C21.2305 20.5273 20.459 21.25 19.1211 21.25Z" fill="var(--color-secondary)"/>
  <path d="M8.67188 16.7285C9.08203 16.7285 9.41406 16.4551 9.41406 15.9375L9.41406 14.4824L9.95117 14.4824C10.3809 14.4824 10.5859 14.209 10.5859 13.8281C10.5859 13.4668 10.3906 13.1934 9.95117 13.1934L9.41406 13.1934L9.41406 7.42188C9.41406 6.64062 8.90625 6.23047 8.20312 6.23047C7.43164 6.23047 7.06055 6.63086 6.74805 7.32422L4.29688 12.5098C4.11133 12.9395 4.04297 13.2227 4.04297 13.5742C4.04297 14.1113 4.41406 14.4824 4.9707 14.4824L7.90039 14.4824L7.90039 15.9375C7.90039 16.5137 8.31055 16.7285 8.67188 16.7285ZM7.92969 13.2227L5.41016 13.2227L5.41016 13.1543L7.88086 7.67578L7.92969 7.67578ZM16.4648 16.7285C16.875 16.7285 17.2168 16.4551 17.2168 15.9375L17.2168 14.4824L17.7539 14.4824C18.1738 14.4824 18.3789 14.209 18.3789 13.8281C18.3789 13.4668 18.1836 13.1934 17.7539 13.1934L17.2168 13.1934L17.2168 7.42188C17.2168 6.64062 16.6992 6.23047 15.9961 6.23047C15.2246 6.23047 14.8633 6.63086 14.541 7.32422L12.0898 12.5098C11.9043 12.9395 11.8359 13.2227 11.8359 13.5742C11.8359 14.1113 12.207 14.4824 12.7637 14.4824L15.7031 14.4824L15.7031 15.9375C15.7031 16.5137 16.1035 16.7285 16.4648 16.7285ZM15.7324 13.2227L13.2031 13.2227L13.2031 13.1543L15.6836 7.67578L15.7324 7.67578Z" fill="var(--color-primary)"/>
 </g>
</svg>
