<?xml version="1.0" encoding="UTF-8"?>
<!--Generator: Apple Native CoreSVG 232.5-->
<!DOCTYPE svg
PUBLIC "-//W3C//DTD SVG 1.1//EN"
       "http://www.w3.org/Graphics/SVG/1.1/DTD/svg11.dtd">
<svg version="1.1" xmlns="http://www.w3.org/2000/svg" xmlns:xlink="http://www.w3.org/1999/xlink" width="23.3203" height="22.9785">
 <g>
  <rect height="22.9785" opacity="0" width="23.3203" x="0" y="0"/>
  <path d="M3.79883 22.9785L19.1504 22.9785C21.6797 22.9785 22.959 21.709 22.959 19.2188L22.959 3.78906C22.959 1.29883 21.6797 0.0292969 19.1504 0.0292969L3.79883 0.0292969C1.2793 0.0292969 0 1.28906 0 3.78906L0 19.2188C0 21.7188 1.2793 22.9785 3.79883 22.9785Z" fill="#ffffff" fill-opacity="0.25"/>
  <path d="M8.57422 16.8652C8.20312 16.8652 7.79297 16.6309 7.79297 16.0352L7.79297 14.5605L4.78516 14.5605C4.21875 14.5605 3.82812 14.1797 3.82812 13.623C3.82812 13.2617 3.90625 12.9688 4.0918 12.5293L6.5918 7.22656C6.92383 6.51367 7.29492 6.10352 8.10547 6.10352C8.81836 6.10352 9.35547 6.51367 9.35547 7.33398L9.35547 13.2324L9.90234 13.2324C10.3418 13.2324 10.5566 13.5156 10.5566 13.8867C10.5566 14.2773 10.3418 14.5605 9.90234 14.5605L9.35547 14.5605L9.35547 16.0352C9.35547 16.582 9.00391 16.8652 8.57422 16.8652ZM7.82227 13.2617L7.82227 7.58789L7.77344 7.58789L5.25391 13.1934L5.25391 13.2617ZM15.1367 16.9141C13.2715 16.9141 11.9043 15.7422 11.9043 13.8867C11.9043 12.5098 12.7246 11.4648 13.8281 11.2109L13.8281 11.1719C12.959 10.9082 12.1973 10.1074 12.1973 8.83789C12.1973 7.08008 13.5449 6.06445 15.1367 6.06445C16.9141 6.06445 18.0957 7.2168 18.0957 8.84766C18.0957 10.0293 17.373 10.8984 16.4844 11.1719L16.4844 11.2109C17.5195 11.4551 18.3887 12.5 18.3887 13.8867C18.3887 15.6348 17.1094 16.9141 15.1367 16.9141ZM15.1367 10.6445C15.9961 10.6445 16.5039 9.91211 16.5039 9.00391C16.5039 8.125 16.0547 7.30469 15.1367 7.30469C14.2871 7.30469 13.7891 8.0957 13.7891 9.00391C13.7891 9.87305 14.2969 10.6445 15.1367 10.6445ZM15.1367 15.6641C16.1621 15.6641 16.6895 14.7754 16.6895 13.7598C16.6895 12.6855 16.1035 11.8945 15.1367 11.8945C14.1406 11.8945 13.5938 12.7441 13.5938 13.7598C13.5938 14.7754 14.1309 15.6641 15.1367 15.6641Z" fill="#ffffff" fill-opacity="0.85"/>
 </g>
</svg>
