<svg version="1.1" xmlns="http://www.w3.org/2000/svg" xmlns:xlink="http://www.w3.org/1999/xlink" width="23.3203" height="22.9785" viewBox="0 0 23.3203 22.9785">
 <g>
  <rect height="22.9785" opacity="0" width="23.3203" x="0" y="0"/>
  <path d="M3.79883 22.9785L19.1504 22.9785C21.6797 22.9785 22.959 21.709 22.959 19.2188L22.959 3.78906C22.959 1.29883 21.6797 0.0292969 19.1504 0.0292969L3.79883 0.0292969C1.2793 0.0292969 0 1.28906 0 3.78906L0 19.2188C0 21.7188 1.2793 22.9785 3.79883 22.9785Z" fill="var(--color-tertiary)"/>
  <path d="M7.67578 16.9629C6.48438 16.9629 5.38086 16.2402 4.9707 15.1562C4.86328 14.9316 4.79492 14.6582 4.79492 14.3945C4.79492 13.9844 5.06836 13.7109 5.47852 13.7109C5.79102 13.7109 6.04492 13.8867 6.18164 14.2773C6.40625 15.0293 6.875 15.625 7.65625 15.625C8.69141 15.625 9.11133 14.4629 9.11133 13.3203C9.11133 12.3047 8.70117 11.084 7.68555 11.084C7.10938 11.084 6.74805 11.416 6.44531 11.8945C6.20117 12.2168 6.02539 12.3633 5.69336 12.3633C5.16602 12.3633 4.94141 11.9824 4.94141 11.543C4.94141 11.377 4.95117 11.1719 4.96094 10.957L5.19531 7.28516C5.23438 6.68945 5.50781 6.2793 6.12305 6.2793L9.6582 6.2793C10.0293 6.2793 10.293 6.57227 10.293 6.95312C10.293 7.36328 10.0488 7.64648 9.6582 7.64648L6.55273 7.64648L6.32812 10.9961L6.37695 10.9961C6.72852 10.2148 7.44141 9.86328 8.18359 9.86328C9.85352 9.86328 10.7031 11.5137 10.7031 13.2812C10.7031 15.2734 9.63867 16.9629 7.67578 16.9629ZM15.4102 16.9629C12.8906 16.9629 12.1777 14.0137 12.1777 11.4941C12.1777 8.97461 12.8906 6.02539 15.4102 6.02539C17.9395 6.02539 18.6621 8.97461 18.6621 11.4941C18.6621 14.0137 17.9395 16.9629 15.4102 16.9629ZM15.4102 15.6055C16.6113 15.6055 16.9922 13.6523 16.9922 11.4941C16.9922 9.3457 16.6113 7.38281 15.4102 7.38281C14.209 7.38281 13.8281 9.3457 13.8281 11.4941C13.8281 13.6523 14.209 15.6055 15.4102 15.6055Z" fill="var(--color-primary)"/>
 </g>
</svg>
