<svg version="1.1" xmlns="http://www.w3.org/2000/svg" xmlns:xlink="http://www.w3.org/1999/xlink" width="25.8008" height="25.459" viewBox="0 0 25.8008 25.459">
 <g>
  <rect height="25.459" opacity="0" width="25.8008" x="0" y="0"/>
  <path d="M12.7148 25.4395C19.6777 25.4395 25.4395 19.6777 25.4395 12.7246C25.4395 5.76172 19.668 0 12.7051 0C5.75195 0 0 5.76172 0 12.7246C0 19.6777 5.76172 25.4395 12.7148 25.4395Z" fill="var(--color-tertiary)"/>
  <path d="M12.7441 18.8086C10.127 18.8086 8.33984 17.1289 8.33984 14.707C8.33984 13.3301 8.89648 11.9531 10.2148 10.2148C10.791 9.44336 11.7578 8.23242 12.5781 7.16797C12.7734 6.91406 12.998 6.66992 13.3594 6.66992C13.8965 6.66992 14.1211 7.01172 14.1211 7.34375C14.1211 7.56836 14.0234 7.75391 13.8574 7.96875C13.1836 8.83789 12.168 10.0879 11.5918 10.8398C11.1914 11.3574 11.0254 11.5918 10.8789 11.8359L11.0059 11.8652C11.4746 11.4062 12.373 11.084 13.2617 11.084C15.5273 11.084 17.1289 12.6465 17.1289 14.7754C17.1289 17.1387 15.3418 18.8086 12.7441 18.8086ZM12.7441 17.3926C14.3652 17.3926 15.5566 16.2988 15.5566 14.8535C15.5566 13.4082 14.3652 12.3535 12.7344 12.3535C11.123 12.3535 9.92188 13.3984 9.92188 14.834C9.92188 16.2793 11.1426 17.3926 12.7441 17.3926Z" fill="var(--color-primary)"/>
 </g>
</svg>
