<svg version="1.1" xmlns="http://www.w3.org/2000/svg" xmlns:xlink="http://www.w3.org/1999/xlink" width="23.3203" height="22.9785" viewBox="0 0 23.3203 22.9785">
 <g>
  <rect height="22.9785" opacity="0" width="23.3203" x="0" y="0"/>
  <path d="M3.79883 22.9785L19.1504 22.9785C21.6797 22.9785 22.959 21.709 22.959 19.2188L22.959 3.78906C22.959 1.29883 21.6797 0.0292969 19.1504 0.0292969L3.79883 0.0292969C1.2793 0.0292969 0 1.28906 0 3.78906L0 19.2188C0 21.7188 1.2793 22.9785 3.79883 22.9785Z" fill="var(--color-tertiary)"/>
  <path d="M11.582 17.5684C10.0684 17.5684 8.69141 16.9824 7.90039 15.6348C7.38281 14.7949 7.08984 13.5059 7.08984 11.7871C7.08984 7.56836 8.91602 5.40039 11.875 5.40039C13.584 5.40039 14.9414 6.30859 15.3027 7.22656C15.3711 7.39258 15.4102 7.53906 15.4102 7.71484C15.4102 8.11523 15.1074 8.38867 14.7266 8.38867C14.3359 8.38867 14.1211 8.18359 13.7793 7.82227C13.3984 7.26562 12.7734 6.83594 11.8262 6.83594C9.96094 6.83594 8.73047 8.61328 8.73047 11.4453C8.73047 11.4941 8.73047 11.5332 8.73047 11.5918C8.75977 11.5918 8.78906 11.5918 8.81836 11.5918C9.27734 10.5762 10.3125 9.70703 12.0508 9.70703C14.1016 9.70703 15.8887 11.1133 15.8887 13.4863C15.8887 16.0449 14.1211 17.5684 11.582 17.5684ZM11.5137 16.2012C13.1055 16.2012 14.1406 15.166 14.1406 13.5742C14.1406 12.0605 13.0762 11.0059 11.5332 11.0059C9.99023 11.0059 8.89648 12.0801 8.89648 13.5547C8.89648 15.0879 10 16.2012 11.5137 16.2012Z" fill="var(--color-primary)"/>
 </g>
</svg>
