<svg version="1.1" xmlns="http://www.w3.org/2000/svg" xmlns:xlink="http://www.w3.org/1999/xlink" width="23.3203" height="22.9785" viewBox="0 0 23.3203 22.9785">
 <g>
  <rect height="22.9785" opacity="0" width="23.3203" x="0" y="0"/>
  <path d="M22.959 3.78906L22.959 19.2188C22.959 21.709 21.6797 22.9785 19.1504 22.9785L3.79883 22.9785C1.2793 22.9785 0 21.7188 0 19.2188L0 3.78906C0 1.28906 1.2793 0.0292969 3.79883 0.0292969L19.1504 0.0292969C21.6797 0.0292969 22.959 1.29883 22.959 3.78906ZM7.08984 11.7871C7.08984 13.5059 7.38281 14.7949 7.90039 15.6348C8.69141 16.9824 10.0684 17.5684 11.582 17.5684C14.1211 17.5684 15.8887 16.0449 15.8887 13.4863C15.8887 11.1133 14.1016 9.70703 12.0508 9.70703C10.3125 9.70703 9.27734 10.5762 8.81836 11.5918C8.78906 11.5918 8.75977 11.5918 8.73047 11.5918C8.73047 11.5332 8.73047 11.4941 8.73047 11.4453C8.73047 8.61328 9.96094 6.83594 11.8262 6.83594C12.7734 6.83594 13.3984 7.26562 13.7793 7.82227C14.1211 8.18359 14.3359 8.38867 14.7266 8.38867C15.1074 8.38867 15.4102 8.11523 15.4102 7.71484C15.4102 7.53906 15.3711 7.39258 15.3027 7.22656C14.9414 6.30859 13.584 5.40039 11.875 5.40039C8.91602 5.40039 7.08984 7.56836 7.08984 11.7871ZM14.1406 13.5742C14.1406 15.166 13.1055 16.2012 11.5137 16.2012C10 16.2012 8.89648 15.0879 8.89648 13.5547C8.89648 12.0801 9.99023 11.0059 11.5332 11.0059C13.0762 11.0059 14.1406 12.0605 14.1406 13.5742Z" fill="var(--color-primary)"/>
 </g>
</svg>
