<svg version="1.1" xmlns="http://www.w3.org/2000/svg" xmlns:xlink="http://www.w3.org/1999/xlink" width="23.3203" height="22.9785" viewBox="0 0 23.3203 22.9785">
 <g>
  <rect height="22.9785" opacity="0" width="23.3203" x="0" y="0"/>
  <path d="M3.79883 22.9785L19.1504 22.9785C21.6797 22.9785 22.959 21.709 22.959 19.2188L22.959 3.78906C22.959 1.29883 21.6797 0.0292969 19.1504 0.0292969L3.79883 0.0292969C1.2793 0.0292969 0 1.28906 0 3.78906L0 19.2188C0 21.7188 1.2793 22.9785 3.79883 22.9785Z" fill="var(--color-tertiary)"/>
  <path d="M7.24609 17.4707C6.72852 17.4707 6.40625 17.1582 6.40625 16.6992C6.40625 16.5332 6.43555 16.377 6.52344 16.1328L10.2344 6.19141C10.459 5.60547 10.8691 5.3125 11.4648 5.3125C12.0703 5.3125 12.5 5.60547 12.7148 6.19141L16.4258 16.1328C16.5234 16.377 16.543 16.5332 16.543 16.709C16.543 17.1582 16.2109 17.4707 15.7227 17.4707C15.3027 17.4707 15.0293 17.2852 14.8438 16.7578L13.8281 13.8574L9.12109 13.8574L8.10547 16.7578C7.92969 17.2852 7.64648 17.4707 7.24609 17.4707ZM9.58008 12.4902L13.3691 12.4902L11.5332 7.28516L11.416 7.28516Z" fill="var(--color-primary)"/>
 </g>
</svg>
