<svg version="1.1" xmlns="http://www.w3.org/2000/svg" xmlns:xlink="http://www.w3.org/1999/xlink" width="25.9961" height="22.2363" viewBox="0 0 25.9961 22.2363">
 <g>
  <rect height="22.2363" opacity="0" width="25.9961" x="0" y="0"/>
  <path d="M7.85156 22.2266L17.7832 22.2266C23.1055 22.2266 25.6348 19.6973 25.6348 14.375L25.6348 8.60352L19.4629 8.60352C19.2188 9.19922 18.6523 9.57031 17.9492 9.57031L7.68555 9.57031C6.99219 9.57031 6.41602 9.19922 6.19141 8.60352L0 8.60352L0 14.375C0 19.6973 2.5293 22.2266 7.85156 22.2266ZM12.8125 14.6191C12.1582 14.6289 11.6113 14.0723 11.6113 13.4277C11.6113 12.7637 12.1582 12.2168 12.8125 12.2168C13.4766 12.2168 14.0234 12.7637 14.0234 13.4277C14.0234 14.0332 13.4766 14.5996 12.8125 14.6191ZM0 7.31445L6.16211 7.31445C6.38672 6.71875 6.96289 6.34766 7.65625 6.34766L17.9297 6.34766C18.623 6.34766 19.1992 6.71875 19.4238 7.31445L25.5859 7.31445L25.5859 6.88477C25.5859 2.23633 22.7539 0 17.7344 0L7.85156 0C2.83203 0 0 2.23633 0 6.88477Z" fill="currentColor"/>
 </g>
</svg>
