<?xml version="1.0" encoding="UTF-8"?>
<!--Generator: Apple Native CoreSVG 232.5-->
<!DOCTYPE svg
PUBLIC "-//W3C//DTD SVG 1.1//EN"
       "http://www.w3.org/Graphics/SVG/1.1/DTD/svg11.dtd">
<svg version="1.1" xmlns="http://www.w3.org/2000/svg" xmlns:xlink="http://www.w3.org/1999/xlink" width="33.3301" height="21.9043">
 <g>
  <rect height="21.9043" opacity="0" width="33.3301" x="0" y="0"/>
  <path d="M28.3398 19.4141C28.6816 19.8145 29.2871 19.8047 29.6973 19.3555C31.7773 17.1387 32.9688 14.1699 32.9688 10.9473C32.9688 7.71484 31.7773 4.75586 29.6973 2.5293C29.2871 2.08008 28.6816 2.08008 28.3398 2.48047C27.998 2.86133 28.1055 3.36914 28.4863 3.79883C30.2344 5.69336 31.2207 8.18359 31.2207 10.9473C31.2207 13.7012 30.2344 16.1914 28.4863 18.0859C28.1055 18.5156 27.998 19.0234 28.3398 19.4141Z" fill="#ffffff" fill-opacity="0.55"/>
  <path d="M24.8535 15.8594C25.2051 16.2598 25.8496 16.2598 26.2305 15.7812C27.334 14.4629 27.9785 12.7734 27.9785 10.9473C27.9785 9.12109 27.334 7.42188 26.2305 6.10352C25.8496 5.625 25.2051 5.63477 24.8535 6.03516C24.5117 6.41602 24.6484 6.9043 24.9902 7.35352C25.8203 8.30078 26.2305 9.58008 26.2305 10.9473C26.2305 12.3145 25.8203 13.584 24.9902 14.5312C24.6484 14.9805 24.5117 15.4688 24.8535 15.8594Z" fill="#ffffff" fill-opacity="0.55"/>
  <path d="M10.9473 21.8945C16.9336 21.8945 21.8945 16.9336 21.8945 10.9473C21.8945 4.96094 16.9434 0 10.957 0C4.9707 0 0 4.96094 0 10.9473C0 16.9336 4.96094 21.8945 10.9473 21.8945ZM10.957 20.166C5.84961 20.166 1.72852 16.0547 1.73828 10.9473C1.73828 5.83008 5.85938 1.72852 10.9668 1.72852C16.0547 1.72852 20.166 5.83008 20.166 10.9473C20.166 16.0547 16.0645 20.166 10.957 20.166ZM11.0547 14.6094C11.8066 14.6094 11.9727 14.9902 12.6172 14.9902C13.2715 14.9902 13.7109 14.3945 14.1211 13.8086C14.5898 13.1445 14.7754 12.4805 14.7754 12.4609C14.7266 12.4414 13.4961 11.9434 13.4961 10.5176C13.4961 9.28711 14.4629 8.74023 14.5215 8.69141C13.877 7.75391 12.9004 7.74414 12.6172 7.74414C11.9043 7.74414 11.3184 8.18359 10.9375 8.18359C10.5371 8.18359 10.0195 7.75391 9.38477 7.75391C8.18359 7.75391 6.98242 8.75 6.98242 10.6152C6.98242 11.7773 7.43164 12.998 7.97852 13.7891C8.44727 14.4629 8.86719 15.0098 9.47266 15.0098C10.0586 15.0098 10.3223 14.6094 11.0547 14.6094ZM12.2852 6.94336C12.5781 6.5918 12.793 6.11328 12.793 5.60547C12.793 5.53711 12.793 5.47852 12.7832 5.41992C12.2852 5.42969 11.7188 5.74219 11.377 6.15234C11.1035 6.47461 10.8398 6.94336 10.8398 7.45117C10.8398 7.51953 10.8594 7.59766 10.8594 7.62695C10.8984 7.62695 10.9375 7.63672 10.9863 7.63672C11.4258 7.63672 11.9727 7.34375 12.2852 6.94336Z" fill="#ffffff" fill-opacity="0.85"/>
 </g>
</svg>
