<?xml version="1.0" encoding="UTF-8"?>
<!--Generator: Apple Native CoreSVG 232.5-->
<!DOCTYPE svg
PUBLIC "-//W3C//DTD SVG 1.1//EN"
       "http://www.w3.org/Graphics/SVG/1.1/DTD/svg11.dtd">
<svg version="1.1" xmlns="http://www.w3.org/2000/svg" xmlns:xlink="http://www.w3.org/1999/xlink" width="29.9512" height="22.959">
 <g>
  <rect height="22.959" opacity="0" width="29.9512" x="0" y="0"/>
  <path d="M3.79883 22.959L25.7812 22.959C28.3105 22.959 29.5898 21.6797 29.5898 19.1992L29.5898 3.76953C29.5898 1.2793 28.3105 0 25.7812 0L3.79883 0C1.2793 0 0 1.26953 0 3.76953L0 19.1992C0 21.6992 1.2793 22.959 3.79883 22.959Z" fill="#ffffff" fill-opacity="0.25"/>
  <path d="M17.8223 18.1934C17.334 18.1934 17.0117 17.832 17.0117 17.3047L17.0117 11.3184C17.0117 10.6738 17.3633 10.4004 17.9297 10.4004L23.9453 10.4004C24.4727 10.4004 24.8145 10.7227 24.8145 11.2109C24.8145 11.709 24.4629 12.0312 23.9258 12.0312L21.4355 12.0312L19.5508 11.875L21.3965 13.6133L25.7617 17.9688C25.9277 18.1348 26.0352 18.3496 26.0352 18.5742C26.0352 19.082 25.7129 19.4043 25.2148 19.4043C24.9414 19.4043 24.7363 19.3066 24.5703 19.1504L20.2148 14.7852L18.4961 12.959L18.6426 15.0391L18.6426 17.3242C18.6426 17.8613 18.3203 18.1934 17.8223 18.1934Z" fill="#ffffff" fill-opacity="0.85"/>
 </g>
</svg>
