<?xml version="1.0" encoding="UTF-8"?>
<!--Generator: Apple Native CoreSVG 232.5-->
<!DOCTYPE svg
PUBLIC "-//W3C//DTD SVG 1.1//EN"
       "http://www.w3.org/Graphics/SVG/1.1/DTD/svg11.dtd">
<svg version="1.1" xmlns="http://www.w3.org/2000/svg" xmlns:xlink="http://www.w3.org/1999/xlink" width="25.8008" height="25.459">
 <g>
  <rect height="25.459" opacity="0" width="25.8008" x="0" y="0"/>
  <path d="M12.7148 25.4395C19.6777 25.4395 25.4395 19.6777 25.4395 12.7246C25.4395 5.76172 19.668 0 12.7051 0C5.75195 0 0 5.76172 0 12.7246C0 19.6777 5.76172 25.4395 12.7148 25.4395Z" fill="#ffffff" fill-opacity="0.25"/>
  <path d="M16.8555 9.56055C17.334 9.56055 17.666 9.92188 17.666 10.4492L17.666 16.748C17.666 17.3926 17.3047 17.666 16.748 17.666L10.4102 17.666C9.89258 17.666 9.55078 17.3438 9.55078 16.8457C9.55078 16.3574 9.90234 16.0352 10.4297 16.0352L13.2422 16.0352L15.127 16.1914L13.2812 14.4531L8.02734 9.20898C7.86133 9.04297 7.75391 8.82812 7.75391 8.60352C7.75391 8.0957 8.07617 7.77344 8.56445 7.77344C8.84766 7.77344 9.05273 7.87109 9.21875 8.03711L14.4531 13.2812L16.1816 15.1074L16.0254 13.0273L16.0254 10.4297C16.0254 9.89258 16.3574 9.56055 16.8555 9.56055Z" fill="#ffffff" fill-opacity="0.85"/>
 </g>
</svg>
