<?xml version="1.0" encoding="UTF-8"?>
<!--Generator: Apple Native CoreSVG 232.5-->
<!DOCTYPE svg
PUBLIC "-//W3C//DTD SVG 1.1//EN"
       "http://www.w3.org/Graphics/SVG/1.1/DTD/svg11.dtd">
<svg version="1.1" xmlns="http://www.w3.org/2000/svg" xmlns:xlink="http://www.w3.org/1999/xlink" width="25.8008" height="25.459">
 <g>
  <rect height="25.459" opacity="0" width="25.8008" x="0" y="0"/>
  <path d="M12.7148 25.4395C19.6777 25.4395 25.4395 19.6777 25.4395 12.7246C25.4395 5.76172 19.668 0 12.7051 0C5.75195 0 0 5.76172 0 12.7246C0 19.6777 5.76172 25.4395 12.7148 25.4395ZM12.7148 23.623C6.67969 23.623 1.82617 18.7598 1.82617 12.7246C1.82617 6.67969 6.66992 1.82617 12.7051 1.82617C18.75 1.82617 23.6133 6.67969 23.6133 12.7246C23.6133 18.7598 18.7598 23.623 12.7148 23.623Z" fill="#ffffff" fill-opacity="0.85"/>
  <path d="M18.252 13.3008C18.252 10.2344 15.752 7.83203 12.8906 7.83203C12.7051 7.83203 12.5 7.86133 12.3438 7.88086L13.4961 6.71875C13.623 6.58203 13.6914 6.39648 13.6914 6.20117C13.6914 5.81055 13.3887 5.49805 12.9883 5.49805C12.793 5.49805 12.6074 5.58594 12.4707 5.73242L10 8.25195C9.72656 8.53516 9.72656 9.0332 10 9.30664L12.5 11.8359C12.6172 11.9531 12.8027 12.041 12.9883 12.041C13.3789 12.041 13.6816 11.7285 13.6816 11.3477C13.6816 11.1426 13.6133 10.9668 13.4668 10.8203L11.9922 9.36523C12.1875 9.31641 12.4414 9.29688 12.7051 9.29688C14.9609 9.29688 16.748 11.084 16.748 13.3301C16.748 15.5859 14.9609 17.3926 12.7051 17.3926C10.459 17.3926 8.67188 15.5859 8.67188 13.3301C8.67188 12.9297 8.33008 12.5879 7.91016 12.5879C7.50977 12.5879 7.16797 12.9297 7.16797 13.3301C7.16797 16.416 9.61914 18.8965 12.7051 18.8965C15.7812 18.8965 18.252 16.416 18.252 13.3008Z" fill="#ffffff" fill-opacity="0.85"/>
 </g>
</svg>
