<svg version="1.1" xmlns="http://www.w3.org/2000/svg" xmlns:xlink="http://www.w3.org/1999/xlink" width="23.3203" height="22.9785" viewBox="0 0 23.3203 22.9785">
 <g>
  <rect height="22.9785" opacity="0" width="23.3203" x="0" y="0"/>
  <path d="M3.79883 22.9785L19.1504 22.9785C21.6797 22.9785 22.959 21.709 22.959 19.2188L22.959 3.78906C22.959 1.29883 21.6797 0.0292969 19.1504 0.0292969L3.79883 0.0292969C1.2793 0.0292969 0 1.28906 0 3.78906L0 19.2188C0 21.7188 1.2793 22.9785 3.79883 22.9785Z" fill="var(--color-tertiary)"/>
  <path d="M5.80078 12.0703C5.80078 8.93555 8.35938 6.47461 11.2891 6.47461C11.4746 6.47461 11.6797 6.50391 11.8359 6.51367L10.6738 5.33203C10.5469 5.20508 10.4688 5.00977 10.4688 4.80469C10.4688 4.39453 10.7812 4.07227 11.2012 4.07227C11.4062 4.07227 11.6016 4.16992 11.7383 4.32617L14.2676 6.9043C14.541 7.19727 14.5508 7.70508 14.2676 7.98828L11.6992 10.5762C11.582 10.6934 11.3867 10.791 11.2109 10.791C10.791 10.791 10.4785 10.4688 10.4785 10.0684C10.4785 9.86328 10.5566 9.67773 10.7129 9.53125L12.207 8.04688C12.002 7.99805 11.748 7.97852 11.4844 7.97852C9.17969 7.97852 7.35352 9.81445 7.35352 12.1094C7.35352 14.4141 9.17969 16.2598 11.4844 16.2598C13.7793 16.2598 15.6152 14.4141 15.6152 12.1094C15.6152 11.6895 15.9668 11.3379 16.3965 11.3379C16.8066 11.3379 17.168 11.6895 17.168 12.1094C17.168 15.2637 14.6484 17.8125 11.4844 17.8125C8.33008 17.8125 5.80078 15.2637 5.80078 12.0703Z" fill="var(--color-primary)"/>
 </g>
</svg>
