<?xml version="1.0" encoding="UTF-8"?>
<!--Generator: Apple Native CoreSVG 232.5-->
<!DOCTYPE svg
PUBLIC "-//W3C//DTD SVG 1.1//EN"
       "http://www.w3.org/Graphics/SVG/1.1/DTD/svg11.dtd">
<svg version="1.1" xmlns="http://www.w3.org/2000/svg" xmlns:xlink="http://www.w3.org/1999/xlink" width="25.8008" height="25.459">
 <g>
  <rect height="25.459" opacity="0" width="25.8008" x="0" y="0"/>
  <path d="M12.7148 25.4395C19.6777 25.4395 25.4395 19.6777 25.4395 12.7246C25.4395 5.76172 19.668 0 12.7051 0C5.75195 0 0 5.76172 0 12.7246C0 19.6777 5.76172 25.4395 12.7148 25.4395ZM12.7148 23.623C6.67969 23.623 1.82617 18.7598 1.82617 12.7246C1.82617 6.67969 6.66992 1.82617 12.7051 1.82617C18.75 1.82617 23.6133 6.67969 23.6133 12.7246C23.6133 18.7598 18.7598 23.623 12.7148 23.623Z" fill="#ffffff" fill-opacity="0.85"/>
  <path d="M12.0605 17.4512C12.3633 17.9492 13.0469 17.9688 13.3594 17.4512L17.6172 10.2637C17.9492 9.7168 17.6953 9.08203 17.1289 9.08203L8.28125 9.08203C7.71484 9.08203 7.4707 9.75586 7.77344 10.2637Z" fill="#ffffff" fill-opacity="0.85"/>
 </g>
</svg>
