<?xml version="1.0" encoding="UTF-8"?>
<!--Generator: Apple Native CoreSVG 232.5-->
<!DOCTYPE svg
PUBLIC "-//W3C//DTD SVG 1.1//EN"
       "http://www.w3.org/Graphics/SVG/1.1/DTD/svg11.dtd">
<svg version="1.1" xmlns="http://www.w3.org/2000/svg" xmlns:xlink="http://www.w3.org/1999/xlink" width="23.2715" height="22.9199">
 <g>
  <rect height="22.9199" opacity="0" width="23.2715" x="0" y="0"/>
  <path d="M21.4844 1.44531C20.2637 0.234375 18.5742 0 16.3379 0L6.50391 0C4.3457 0 2.64648 0.234375 1.43555 1.44531C0.224609 2.65625 0 4.33594 0 6.50391L0 16.3379C0 18.584 0.214844 20.2637 1.42578 21.4648C2.64648 22.6758 4.33594 22.9102 6.57227 22.9102L16.3379 22.9102C18.5742 22.9102 20.2734 22.6758 21.4844 21.4648C22.6953 20.2539 22.9102 18.584 22.9102 16.3379L22.9102 6.5625C22.9102 4.32617 22.6953 2.64648 21.4844 1.44531Z" fill="#ffffff" fill-opacity="0.25"/>
  <path d="M11.4551 4.93164C11.9531 4.93164 12.2949 5.27344 12.2949 5.77148L12.2949 12.8418L12.207 15.3809L13.5938 13.7891L15.3125 12.0508C15.4688 11.8848 15.6738 11.8066 15.9082 11.8066C16.3672 11.8066 16.7285 12.1484 16.7285 12.6074C16.7285 12.8418 16.6406 13.0371 16.4941 13.1836L12.0996 17.5684C11.8945 17.7734 11.6992 17.8809 11.4551 17.8809C11.2109 17.8809 11.0352 17.7832 10.8105 17.5684L6.41602 13.1836C6.26953 13.0371 6.19141 12.8418 6.19141 12.6074C6.19141 12.1484 6.54297 11.8066 7.00195 11.8066C7.23633 11.8066 7.44141 11.8945 7.59766 12.0508L9.32617 13.7891L10.7031 15.3613L10.6152 12.8418L10.6152 5.77148C10.6152 5.27344 10.9668 4.93164 11.4551 4.93164Z" fill="#ffffff" fill-opacity="0.85"/>
 </g>
</svg>
