<?xml version="1.0" encoding="UTF-8"?>
<!--Generator: Apple Native CoreSVG 232.5-->
<!DOCTYPE svg
PUBLIC "-//W3C//DTD SVG 1.1//EN"
       "http://www.w3.org/Graphics/SVG/1.1/DTD/svg11.dtd">
<svg version="1.1" xmlns="http://www.w3.org/2000/svg" xmlns:xlink="http://www.w3.org/1999/xlink" width="23.3203" height="22.9785">
 <g>
  <rect height="22.9785" opacity="0" width="23.3203" x="0" y="0"/>
  <path d="M3.79883 22.9785L19.1504 22.9785C21.6797 22.9785 22.959 21.709 22.959 19.2188L22.959 3.78906C22.959 1.29883 21.6797 0.0292969 19.1504 0.0292969L3.79883 0.0292969C1.2793 0.0292969 0 1.28906 0 3.78906L0 19.2188C0 21.7188 1.2793 22.9785 3.79883 22.9785ZM3.83789 21.25C2.4707 21.25 1.72852 20.5273 1.72852 19.1309L1.72852 3.87695C1.72852 2.48047 2.4707 1.75781 3.83789 1.75781L19.1211 1.75781C20.459 1.75781 21.2305 2.48047 21.2305 3.87695L21.2305 19.1309C21.2305 20.5273 20.459 21.25 19.1211 21.25Z" fill="#ffffff" fill-opacity="0.85"/>
  <path d="M5.9375 12.0605C5.9375 15.1758 8.4082 17.6562 11.4844 17.6562C14.5703 17.6562 17.0312 15.1758 17.0312 12.0898C17.0312 11.6895 16.6797 11.3477 16.2793 11.3477C15.8691 11.3477 15.5176 11.6895 15.5176 12.0898C15.5176 14.3457 13.7305 16.1523 11.4844 16.1523C9.22852 16.1523 7.44141 14.3457 7.44141 12.0898C7.44141 9.84375 9.22852 8.05664 11.4844 8.05664C11.748 8.05664 12.002 8.07617 12.207 8.125L10.7324 9.58008C10.5762 9.72656 10.5078 9.90234 10.5078 10.1074C10.5078 10.4883 10.8105 10.8008 11.2109 10.8008C11.3867 10.8008 11.5723 10.7129 11.6895 10.5957L14.1992 8.06641C14.4727 7.79297 14.4629 7.29492 14.1992 7.01172L11.7285 4.49219C11.5918 4.3457 11.4062 4.25781 11.2012 4.25781C10.8008 4.25781 10.498 4.57031 10.498 4.96094C10.498 5.15625 10.5664 5.3418 10.6934 5.47852L11.8457 6.64062C11.6895 6.62109 11.4844 6.5918 11.2988 6.5918C8.4375 6.5918 5.9375 8.99414 5.9375 12.0605Z" fill="#ffffff" fill-opacity="0.85"/>
 </g>
</svg>
