<?xml version="1.0" encoding="UTF-8"?>
<!--Generator: Apple Native CoreSVG 232.5-->
<!DOCTYPE svg
PUBLIC "-//W3C//DTD SVG 1.1//EN"
       "http://www.w3.org/Graphics/SVG/1.1/DTD/svg11.dtd">
<svg version="1.1" xmlns="http://www.w3.org/2000/svg" xmlns:xlink="http://www.w3.org/1999/xlink" width="23.3203" height="22.9785">
 <g>
  <rect height="22.9785" opacity="0" width="23.3203" x="0" y="0"/>
  <path d="M3.79883 22.9785L19.1504 22.9785C21.6797 22.9785 22.959 21.709 22.959 19.2188L22.959 3.78906C22.959 1.29883 21.6797 0.0292969 19.1504 0.0292969L3.79883 0.0292969C1.2793 0.0292969 0 1.28906 0 3.78906L0 19.2188C0 21.7188 1.2793 22.9785 3.79883 22.9785ZM3.83789 21.25C2.4707 21.25 1.72852 20.5273 1.72852 19.1309L1.72852 3.87695C1.72852 2.48047 2.4707 1.75781 3.83789 1.75781L19.1211 1.75781C20.459 1.75781 21.2305 2.48047 21.2305 3.87695L21.2305 19.1309C21.2305 20.5273 20.459 21.25 19.1211 21.25Z" fill="#ffffff" fill-opacity="0.85"/>
  <path d="M4.25781 11.4941C4.25781 11.9336 4.56055 12.2363 4.98047 12.2363L11.0742 12.2363L13.3984 12.1094L10.8887 14.3945L9.88281 15.3516C9.72656 15.4883 9.6582 15.6641 9.6582 15.8887C9.6582 16.3184 9.96094 16.6016 10.3711 16.6016C10.5664 16.6016 10.8008 16.4941 10.9473 16.3477L15.3125 12.041C15.4883 11.8945 15.5664 11.6992 15.5664 11.4941C15.5664 11.2988 15.4785 11.1035 15.3125 10.9473L10.9277 6.60156C10.7715 6.43555 10.5762 6.36719 10.3809 6.36719C9.98047 6.36719 9.6582 6.66016 9.6582 7.07031C9.6582 7.28516 9.72656 7.48047 9.88281 7.62695L10.8691 8.59375L13.3887 10.8789L11.0742 10.7715L4.98047 10.7715C4.56055 10.7715 4.25781 11.0742 4.25781 11.4941ZM17.3242 16.9238C17.7539 16.9238 18.0664 16.6309 18.0664 16.2109L18.0664 6.76758C18.0664 6.34766 17.7539 6.04492 17.3242 6.04492C16.9141 6.04492 16.6113 6.34766 16.6113 6.76758L16.6113 16.2109C16.6113 16.6309 16.9141 16.9238 17.3242 16.9238Z" fill="#ffffff" fill-opacity="0.85"/>
 </g>
</svg>
