<?xml version="1.0" encoding="UTF-8"?>
<!--Generator: Apple Native CoreSVG 232.5-->
<!DOCTYPE svg
PUBLIC "-//W3C//DTD SVG 1.1//EN"
       "http://www.w3.org/Graphics/SVG/1.1/DTD/svg11.dtd">
<svg version="1.1" xmlns="http://www.w3.org/2000/svg" xmlns:xlink="http://www.w3.org/1999/xlink" width="29.9512" height="22.959">
 <g>
  <rect height="22.959" opacity="0" width="29.9512" x="0" y="0"/>
  <path d="M3.79883 22.959L25.7812 22.959C28.3105 22.959 29.5898 21.6797 29.5898 19.1992L29.5898 3.76953C29.5898 1.2793 28.3105 0 25.7812 0L3.79883 0C1.2793 0 0 1.26953 0 3.76953L0 19.1992C0 21.6992 1.2793 22.959 3.79883 22.959Z" fill="#ffffff" fill-opacity="0.25"/>
  <path d="M4.41406 13.418C4.41406 13.2129 4.49219 13.0176 4.70703 12.8125L10.2051 7.31445L11.3965 6.19141L7.91016 6.30859L6.58203 6.30859C6.12305 6.30859 5.76172 5.98633 5.76172 5.51758C5.76172 5.03906 6.10352 4.72656 6.58203 4.72656L13.0859 4.72656C13.5742 4.72656 13.916 5.04883 13.916 5.53711L13.916 11.7285C13.916 12.2168 13.584 12.5391 13.125 12.5391C12.6465 12.5391 12.334 12.2168 12.334 11.7285L12.334 10.4102L12.4316 7.2168L11.3184 8.41797L5.82031 13.916C5.60547 14.1309 5.41016 14.2188 5.21484 14.2188C4.77539 14.2188 4.41406 13.8379 4.41406 13.418ZM25.4883 9.55078C25.4883 9.75586 25.4102 9.95117 25.1953 10.1562L19.6973 15.6543L18.5059 16.7773L21.9922 16.6699L23.3203 16.6699C23.7793 16.6699 24.1309 16.9824 24.1309 17.4512C24.1309 17.9297 23.7988 18.252 23.3203 18.252L16.8066 18.252C16.3184 18.252 15.9863 17.9199 15.9863 17.4316L15.9863 11.2402C15.9863 10.752 16.3086 10.4297 16.7676 10.4297C17.2461 10.4297 17.5684 10.752 17.5684 11.2402L17.5684 12.5586L17.4609 15.752L18.5742 14.5508L24.082 9.05273C24.2871 8.83789 24.4922 8.75977 24.6777 8.75977C25.1172 8.75977 25.4883 9.13086 25.4883 9.55078Z" fill="#ffffff" fill-opacity="0.85"/>
 </g>
</svg>
