<?xml version="1.0" encoding="UTF-8"?>
<!--Generator: Apple Native CoreSVG 232.5-->
<!DOCTYPE svg
PUBLIC "-//W3C//DTD SVG 1.1//EN"
       "http://www.w3.org/Graphics/SVG/1.1/DTD/svg11.dtd">
<svg version="1.1" xmlns="http://www.w3.org/2000/svg" xmlns:xlink="http://www.w3.org/1999/xlink" width="23.3203" height="22.9785">
 <g>
  <rect height="22.9785" opacity="0" width="23.3203" x="0" y="0"/>
  <path d="M3.79883 22.9785L19.1504 22.9785C21.6797 22.9785 22.959 21.709 22.959 19.2188L22.959 3.78906C22.959 1.29883 21.6797 0.0292969 19.1504 0.0292969L3.79883 0.0292969C1.2793 0.0292969 0 1.28906 0 3.78906L0 19.2188C0 21.7188 1.2793 22.9785 3.79883 22.9785ZM3.83789 21.25C2.4707 21.25 1.72852 20.5273 1.72852 19.1309L1.72852 3.87695C1.72852 2.48047 2.4707 1.75781 3.83789 1.75781L19.1211 1.75781C20.459 1.75781 21.2305 2.48047 21.2305 3.87695L21.2305 19.1309C21.2305 20.5273 20.459 21.25 19.1211 21.25Z" fill="#ffffff" fill-opacity="0.85"/>
  <path d="M15.5273 8.39844C15.0488 8.39844 14.7266 8.73047 14.7266 9.23828L14.7266 11.7969L14.873 13.8281L13.2031 12.0508L8.05664 6.9043C7.90039 6.74805 7.70508 6.65039 7.43164 6.65039C6.95312 6.65039 6.64062 6.96289 6.64062 7.45117C6.64062 7.67578 6.74805 7.89062 6.9043 8.03711L12.0605 13.1934L13.8574 14.8828L12.0215 14.7266L9.24805 14.7266C8.74023 14.7266 8.39844 15.0391 8.39844 15.5176C8.39844 15.9961 8.73047 16.2988 9.22852 16.2988L15.4297 16.2988C15.9668 16.2988 16.3184 16.0449 16.3184 15.4199L16.3184 9.25781C16.3184 8.75977 15.9961 8.39844 15.5273 8.39844Z" fill="#ffffff" fill-opacity="0.85"/>
 </g>
</svg>
