<?xml version="1.0" encoding="UTF-8"?>
<!--Generator: Apple Native CoreSVG 232.5-->
<!DOCTYPE svg
PUBLIC "-//W3C//DTD SVG 1.1//EN"
       "http://www.w3.org/Graphics/SVG/1.1/DTD/svg11.dtd">
<svg version="1.1" xmlns="http://www.w3.org/2000/svg" xmlns:xlink="http://www.w3.org/1999/xlink" width="23.3203" height="22.9785">
 <g>
  <rect height="22.9785" opacity="0" width="23.3203" x="0" y="0"/>
  <path d="M3.79883 22.9785L19.1504 22.9785C21.6797 22.9785 22.959 21.709 22.959 19.2188L22.959 3.78906C22.959 1.29883 21.6797 0.0292969 19.1504 0.0292969L3.79883 0.0292969C1.2793 0.0292969 0 1.28906 0 3.78906L0 19.2188C0 21.7188 1.2793 22.9785 3.79883 22.9785Z" fill="#ffffff" fill-opacity="0.25"/>
  <path d="M11.4941 17.9102C11.0059 17.9102 10.6543 17.5586 10.6543 17.0703L10.6543 10L10.7422 7.4707L9.375 9.05273L7.64648 10.7812C7.48047 10.9473 7.28516 11.0352 7.05078 11.0352C6.58203 11.0352 6.24023 10.6934 6.24023 10.2344C6.24023 10 6.30859 9.80469 6.46484 9.64844L10.8594 5.27344C11.0742 5.04883 11.2598 4.96094 11.4941 4.96094C11.748 4.96094 11.9336 5.05859 12.1484 5.27344L16.5332 9.64844C16.6895 9.80469 16.7676 10 16.7676 10.2344C16.7676 10.6934 16.416 11.0352 15.9473 11.0352C15.7129 11.0352 15.5078 10.957 15.3516 10.7812L13.6328 9.05273L12.2461 7.46094L12.334 10L12.334 17.0703C12.334 17.5586 11.9922 17.9102 11.4941 17.9102Z" fill="#ffffff" fill-opacity="0.85"/>
 </g>
</svg>
