<svg version="1.1" xmlns="http://www.w3.org/2000/svg" xmlns:xlink="http://www.w3.org/1999/xlink" width="23.3203" height="22.9785" viewBox="0 0 23.3203 22.9785">
 <g>
  <rect height="22.9785" opacity="0" width="23.3203" x="0" y="0"/>
  <path d="M3.79883 22.9785L19.1504 22.9785C21.6797 22.9785 22.959 21.709 22.959 19.2188L22.959 3.78906C22.959 1.29883 21.6797 0.0292969 19.1504 0.0292969L3.79883 0.0292969C1.2793 0.0292969 0 1.28906 0 3.78906L0 19.2188C0 21.7188 1.2793 22.9785 3.79883 22.9785ZM3.83789 21.25C2.4707 21.25 1.72852 20.5273 1.72852 19.1309L1.72852 3.87695C1.72852 2.48047 2.4707 1.75781 3.83789 1.75781L19.1211 1.75781C20.459 1.75781 21.2305 2.48047 21.2305 3.87695L21.2305 19.1309C21.2305 20.5273 20.459 21.25 19.1211 21.25Z" fill="var(--color-secondary)"/>
  <path d="M6.07422 11.2793C6.49414 11.2793 6.8457 10.9375 6.8457 10.5176L6.8457 9.81445L6.73828 7.74414L9.6582 10.7812C9.98047 11.123 10.4883 11.1133 10.8105 10.791C11.123 10.4785 11.1133 9.95117 10.8008 9.63867L7.77344 6.73828L9.75586 6.83594L10.498 6.8457C10.9277 6.8457 11.2695 6.49414 11.2695 6.07422C11.2695 5.6543 10.9277 5.3125 10.498 5.3125L6.19141 5.3125C5.64453 5.3125 5.3125 5.56641 5.3125 6.19141L5.3125 10.5176C5.3125 10.9375 5.6543 11.2793 6.07422 11.2793ZM12.4707 17.666L16.7773 17.666C17.334 17.666 17.666 17.4121 17.666 16.7773L17.666 12.4609C17.666 12.0312 17.3145 11.6895 16.8945 11.6895C16.4746 11.6895 16.1328 12.0312 16.1328 12.4609L16.1328 13.1641L16.2305 15.2344L13.3203 12.1875C12.998 11.8457 12.4805 11.8555 12.1582 12.1777C11.8457 12.5 11.8555 13.0273 12.168 13.3301L15.1953 16.2402L13.2129 16.1426L12.4707 16.1328C12.041 16.1328 11.6992 16.4746 11.6992 16.8945C11.6992 17.3242 12.041 17.666 12.4707 17.666Z" fill="var(--color-primary)"/>
 </g>
</svg>
