<?xml version="1.0" encoding="UTF-8"?>
<!--Generator: Apple Native CoreSVG 232.5-->
<!DOCTYPE svg
PUBLIC "-//W3C//DTD SVG 1.1//EN"
       "http://www.w3.org/Graphics/SVG/1.1/DTD/svg11.dtd">
<svg version="1.1" xmlns="http://www.w3.org/2000/svg" xmlns:xlink="http://www.w3.org/1999/xlink" width="23.3203" height="22.9785">
 <g>
  <rect height="22.9785" opacity="0" width="23.3203" x="0" y="0"/>
  <path d="M3.79883 22.9785L19.1504 22.9785C21.6797 22.9785 22.959 21.709 22.959 19.2188L22.959 3.78906C22.959 1.29883 21.6797 0.0292969 19.1504 0.0292969L3.79883 0.0292969C1.2793 0.0292969 0 1.28906 0 3.78906L0 19.2188C0 21.7188 1.2793 22.9785 3.79883 22.9785Z" fill="#ffffff" fill-opacity="0.25"/>
  <path d="M19.3066 11.4746C19.3066 11.709 19.209 11.8945 18.9941 12.1191L15.2344 15.8984C15.0879 16.0449 14.8828 16.123 14.6484 16.123C14.1895 16.123 13.8477 15.7812 13.8477 15.3223C13.8477 15.0684 13.9453 14.8828 14.1016 14.7168L15.2148 13.6133L16.7969 12.2266L14.2773 12.3242L8.67188 12.3242L6.15234 12.2266L7.73438 13.6133L8.85742 14.7168C9.00391 14.8828 9.10156 15.0684 9.10156 15.3223C9.10156 15.7812 8.75977 16.123 8.31055 16.123C8.06641 16.123 7.86133 16.0449 7.72461 15.8984L3.96484 12.1191C3.75 11.8945 3.64258 11.709 3.64258 11.4746C3.64258 11.2402 3.75 11.0449 3.96484 10.8301L7.72461 7.06055C7.86133 6.91406 8.06641 6.82617 8.31055 6.82617C8.75977 6.82617 9.10156 7.17773 9.10156 7.63672C9.10156 7.88086 9.01367 8.07617 8.85742 8.24219L7.73438 9.33594L6.14258 10.7324L8.67188 10.6348L14.2773 10.6348L16.8066 10.7324L15.2148 9.33594L14.1016 8.24219C13.9355 8.07617 13.8477 7.88086 13.8477 7.63672C13.8477 7.17773 14.1895 6.82617 14.6484 6.82617C14.8828 6.82617 15.0879 6.91406 15.2344 7.06055L18.9941 10.8301C19.209 11.0449 19.3066 11.2402 19.3066 11.4746Z" fill="#ffffff" fill-opacity="0.85"/>
 </g>
</svg>
