<svg version="1.1" xmlns="http://www.w3.org/2000/svg" xmlns:xlink="http://www.w3.org/1999/xlink" width="23.3203" height="22.9785" viewBox="0 0 23.3203 22.9785">
 <g>
  <rect height="22.9785" opacity="0" width="23.3203" x="0" y="0"/>
  <path d="M3.79883 22.9785L19.1504 22.9785C21.6797 22.9785 22.959 21.709 22.959 19.2188L22.959 3.78906C22.959 1.29883 21.6797 0.0292969 19.1504 0.0292969L3.79883 0.0292969C1.2793 0.0292969 0 1.28906 0 3.78906L0 19.2188C0 21.7188 1.2793 22.9785 3.79883 22.9785Z" fill="var(--color-tertiary)"/>
  <path d="M10.8301 16.3086L6.43555 8.94531C6.12305 8.42773 6.37695 7.73438 6.95312 7.73438L16.0156 7.73438C16.5918 7.73438 16.8457 8.38867 16.5234 8.94531L12.1582 16.3086C11.8457 16.8457 11.1328 16.8164 10.8301 16.3086Z" fill="var(--color-primary)"/>
 </g>
</svg>
