<svg version="1.1" xmlns="http://www.w3.org/2000/svg" xmlns:xlink="http://www.w3.org/1999/xlink" width="23.3203" height="22.9785" viewBox="0 0 23.3203 22.9785">
 <g>
  <rect height="22.9785" opacity="0" width="23.3203" x="0" y="0"/>
  <path d="M3.79883 22.9785L19.1504 22.9785C21.6797 22.9785 22.959 21.709 22.959 19.2188L22.959 3.78906C22.959 1.29883 21.6797 0.0292969 19.1504 0.0292969L3.79883 0.0292969C1.2793 0.0292969 0 1.28906 0 3.78906L0 19.2188C0 21.7188 1.2793 22.9785 3.79883 22.9785ZM3.83789 21.25C2.4707 21.25 1.72852 20.5273 1.72852 19.1309L1.72852 3.87695C1.72852 2.48047 2.4707 1.75781 3.83789 1.75781L19.1211 1.75781C20.459 1.75781 21.2305 2.48047 21.2305 3.87695L21.2305 19.1309C21.2305 20.5273 20.459 21.25 19.1211 21.25Z" fill="var(--color-primary)"/>
  <path d="M16.9141 11.2305C17.3438 11.2305 17.6855 10.8887 17.6855 10.459C17.6855 10.0391 17.3438 9.69727 16.9141 9.69727L16.1719 9.69727L14.1895 9.80469L17.7539 6.34766C18.0664 6.04492 18.0762 5.51758 17.7637 5.20508C17.4512 4.88281 16.9336 4.88281 16.6113 5.21484L13.1543 8.79883L13.252 6.72852L13.252 6.02539C13.252 5.5957 12.9102 5.25391 12.4902 5.25391C12.0703 5.25391 11.7188 5.5957 11.7188 6.02539L11.7188 10.3418C11.7188 10.9668 12.0605 11.2305 12.6074 11.2305ZM10.4785 17.6855C10.8984 17.6855 11.2402 17.3438 11.2402 16.9238L11.2402 12.5977C11.2402 11.9727 10.9082 11.7188 10.3613 11.7188L6.04492 11.7188C5.625 11.7188 5.2832 12.0605 5.2832 12.4805C5.2832 12.9102 5.625 13.252 6.04492 13.252L6.79688 13.2422L8.76953 13.1445L5.21484 16.5918C4.89258 16.8945 4.88281 17.4219 5.20508 17.7441C5.51758 18.0664 6.03516 18.0664 6.35742 17.7344L9.81445 14.1504L9.70703 16.2207L9.70703 16.9238C9.70703 17.3438 10.0488 17.6855 10.4785 17.6855Z" fill="var(--color-primary)"/>
 </g>
</svg>
