<svg version="1.1" xmlns="http://www.w3.org/2000/svg" xmlns:xlink="http://www.w3.org/1999/xlink" width="23.3203" height="22.9785" viewBox="0 0 23.3203 22.9785">
 <g>
  <rect height="22.9785" opacity="0" width="23.3203" x="0" y="0"/>
  <path d="M22.959 3.78906L22.959 19.2188C22.959 21.709 21.6797 22.9785 19.1504 22.9785L3.79883 22.9785C1.2793 22.9785 0 21.7188 0 19.2188L0 3.78906C0 1.28906 1.2793 0.0292969 3.79883 0.0292969L19.1504 0.0292969C21.6797 0.0292969 22.959 1.29883 22.959 3.78906ZM4.98047 12.5L4.98047 17.0508C4.98047 17.7148 5.33203 17.9883 5.92773 17.9883L10.459 17.9883C10.918 17.9883 11.2793 17.627 11.2793 17.1777C11.2793 16.7188 10.918 16.3574 10.459 16.3574L9.6875 16.3672L7.61719 16.4648L10.7715 13.4375C11.1035 13.1152 11.1133 12.5488 10.7812 12.207C10.4395 11.8652 9.88281 11.8555 9.54102 12.2168L6.51367 15.3906L6.61133 13.2324L6.61133 12.5C6.61133 12.041 6.25 11.6797 5.80078 11.6797C5.3418 11.6797 4.98047 12.041 4.98047 12.5ZM12.5098 4.98047C12.0508 4.98047 11.6895 5.3418 11.6895 5.80078C11.6895 6.25 12.0508 6.61133 12.5098 6.61133L13.2812 6.61133L15.3516 6.50391L12.1973 9.53125C11.8652 9.86328 11.8555 10.4297 12.1875 10.7617C12.5293 11.1035 13.0859 11.1133 13.4277 10.752L16.4648 7.57812L16.3574 9.74609L16.3574 10.4785C16.3574 10.9277 16.7188 11.2891 17.168 11.2891C17.627 11.2891 17.9883 10.9277 17.9883 10.4785L17.9883 5.92773C17.9883 5.26367 17.6367 4.98047 17.041 4.98047Z" fill="currentColor"/>
 </g>
</svg>
