<svg version="1.1" xmlns="http://www.w3.org/2000/svg" xmlns:xlink="http://www.w3.org/1999/xlink" width="23.3203" height="23.291" viewBox="0 0 23.3203 23.291">
 <g>
  <rect height="23.291" opacity="0" width="23.3203" x="0" y="0"/>
  <path d="M22.959 3.76953L22.959 19.1992C22.959 21.6797 21.6797 22.959 19.1504 22.959L3.79883 22.959C1.2793 22.959 0 21.6992 0 19.1992L0 3.76953C0 1.26953 1.2793 0 3.79883 0L19.1504 0C21.6797 0 22.959 1.2793 22.959 3.76953ZM12.7637 5.64453C12.7637 5.86914 12.8613 6.08398 13.0176 6.23047L14.541 7.71484L15.332 8.33008L14.0527 8.28125L10.1074 8.28125C7.1582 8.28125 5.19531 10.1074 5.19531 12.8711C5.19531 15.752 7.16797 17.6465 10.1172 17.6465L11.875 17.6465C12.3828 17.6465 12.7344 17.3242 12.7344 16.8359C12.7344 16.3574 12.3926 16.0254 11.8945 16.0254L10.1172 16.0254C8.14453 16.0254 6.80664 14.7656 6.80664 12.8711C6.80664 11.084 8.125 9.89258 10.1074 9.89258L14.0527 9.89258L15.3223 9.84375L14.7461 10.2637L13.0176 11.9336C12.8613 12.0996 12.7637 12.2949 12.7637 12.5391C12.7637 13.0078 13.1152 13.3691 13.5645 13.3691C13.8086 13.3691 14.0137 13.2812 14.1602 13.1348L17.4414 9.78516C17.6465 9.57031 17.7441 9.33594 17.7441 9.08203C17.7441 8.82812 17.6367 8.57422 17.4414 8.36914L14.1699 5.05859C14.0137 4.89258 13.8184 4.80469 13.5742 4.80469C13.1055 4.80469 12.7637 5.17578 12.7637 5.64453Z" fill="var(--color-primary)"/>
 </g>
</svg>
