<svg version="1.1" xmlns="http://www.w3.org/2000/svg" xmlns:xlink="http://www.w3.org/1999/xlink" width="25.8008" height="25.7324" viewBox="0 0 25.8008 25.7324">
 <g>
  <rect height="25.7324" opacity="0" width="25.8008" x="0" y="0"/>
  <path d="M25.4395 12.7148C25.4395 19.6777 19.6777 25.4297 12.7148 25.4297C5.76172 25.4297 0 19.6777 0 12.7148C0 5.75195 5.75195 0 12.7051 0C19.668 0 25.4395 5.75195 25.4395 12.7148ZM10 6.30859L6.71875 9.62891C6.52344 9.83398 6.42578 10.0879 6.42578 10.332C6.42578 10.5859 6.51367 10.8203 6.71875 11.0352L10.0098 14.3848C10.1562 14.541 10.3516 14.6289 10.5957 14.6289C11.0547 14.6289 11.3965 14.2578 11.3965 13.7891C11.3965 13.5547 11.2988 13.3496 11.1426 13.1836L9.42383 11.5234L8.83789 11.0938L10.1172 11.1426L14.0625 11.1426C16.0449 11.1426 17.3535 12.3438 17.3535 14.1309C17.3535 16.0254 16.0254 17.2852 14.0527 17.2852L12.2754 17.2852C11.7676 17.2852 11.4258 17.6074 11.4258 18.0859C11.4258 18.5742 11.7773 18.8965 12.2949 18.8965L14.0527 18.8965C16.9922 18.8965 18.9746 17.002 18.9746 14.1309C18.9746 11.3672 17.002 9.53125 14.0625 9.53125L10.1172 9.53125L8.82812 9.58984L9.61914 8.96484L11.1426 7.48047C11.2988 7.33398 11.3965 7.11914 11.3965 6.89453C11.3965 6.42578 11.0645 6.06445 10.5859 6.06445C10.3418 6.06445 10.1562 6.14258 10 6.30859Z" fill="currentColor"/>
 </g>
</svg>
