<?xml version="1.0" encoding="UTF-8"?>
<!--Generator: Apple Native CoreSVG 232.5-->
<!DOCTYPE svg
PUBLIC "-//W3C//DTD SVG 1.1//EN"
       "http://www.w3.org/Graphics/SVG/1.1/DTD/svg11.dtd">
<svg version="1.1" xmlns="http://www.w3.org/2000/svg" xmlns:xlink="http://www.w3.org/1999/xlink" width="23.3203" height="22.9785">
 <g>
  <rect height="22.9785" opacity="0" width="23.3203" x="0" y="0"/>
  <path d="M3.79883 22.9785L19.1504 22.9785C21.6797 22.9785 22.959 21.709 22.959 19.2188L22.959 3.78906C22.959 1.29883 21.6797 0.0292969 19.1504 0.0292969L3.79883 0.0292969C1.2793 0.0292969 0 1.28906 0 3.78906L0 19.2188C0 21.7188 1.2793 22.9785 3.79883 22.9785Z" fill="#ffffff" fill-opacity="0.25"/>
  <path d="M11.4746 15.7324C11.2695 15.7324 11.0742 15.6543 10.9082 15.4688L6.48438 10.9766C6.33789 10.8301 6.24023 10.5957 6.24023 10.4004C6.24023 9.9707 6.5332 9.66797 6.97266 9.66797C7.20703 9.66797 7.39258 9.73633 7.5293 9.90234L8.4668 10.8984L10.8398 13.4961L10.7129 11.1133L10.7129 4.89258C10.7129 4.45312 11.0156 4.13086 11.4746 4.13086C11.9043 4.13086 12.2266 4.45312 12.2266 4.89258L12.2266 11.1133L12.1094 13.4863L14.4336 10.918L15.4395 9.90234C15.5859 9.73633 15.791 9.66797 16.0059 9.66797C16.4355 9.66797 16.7285 9.99023 16.7285 10.4004C16.7285 10.625 16.6504 10.8203 16.4648 10.9961L12.041 15.4688C11.875 15.6348 11.6797 15.7324 11.4746 15.7324ZM6.65039 18.3008C6.21094 18.3008 5.9082 17.9883 5.9082 17.5293C5.9082 17.1094 6.21094 16.7969 6.65039 16.7969L16.3281 16.7969C16.7578 16.7969 17.0605 17.1094 17.0605 17.5293C17.0605 17.9883 16.7578 18.3008 16.3281 18.3008Z" fill="#ffffff" fill-opacity="0.85"/>
 </g>
</svg>
