<svg version="1.1" xmlns="http://www.w3.org/2000/svg" xmlns:xlink="http://www.w3.org/1999/xlink" width="23.3203" height="22.9785" viewBox="0 0 23.3203 22.9785">
 <g>
  <rect height="22.9785" opacity="0" width="23.3203" x="0" y="0"/>
  <path d="M3.79883 22.9785L19.1504 22.9785C21.6797 22.9785 22.959 21.709 22.959 19.2188L22.959 3.78906C22.959 1.29883 21.6797 0.0292969 19.1504 0.0292969L3.79883 0.0292969C1.2793 0.0292969 0 1.28906 0 3.78906L0 19.2188C0 21.7188 1.2793 22.9785 3.79883 22.9785ZM3.83789 21.25C2.4707 21.25 1.72852 20.5273 1.72852 19.1309L1.72852 3.87695C1.72852 2.48047 2.4707 1.75781 3.83789 1.75781L19.1211 1.75781C20.459 1.75781 21.2305 2.48047 21.2305 3.87695L21.2305 19.1309C21.2305 20.5273 20.459 21.25 19.1211 21.25Z" fill="var(--color-primary)"/>
  <path d="M7.08984 5.51758L3.86719 8.78906C3.73047 8.93555 3.64258 9.14062 3.64258 9.30664C3.64258 9.70703 3.94531 10.0098 4.3457 10.0098C4.53125 10.0098 4.7168 9.92188 4.85352 9.78516L6.26953 8.33008L6.91406 7.64648L6.89453 8.38867L6.89453 16.9727C6.89453 17.373 7.20703 17.6758 7.60742 17.6758C8.01758 17.6758 8.32031 17.373 8.32031 16.9727L8.32031 8.37891L8.28125 7.64648L8.93555 8.33008L10.3613 9.79492C10.498 9.93164 10.6836 10.0098 10.8691 10.0098C11.2695 10.0098 11.5625 9.7168 11.5625 9.30664C11.5625 9.12109 11.4746 8.91602 11.3477 8.78906L8.125 5.51758C7.85156 5.25391 7.40234 5.20508 7.08984 5.51758ZM15.8887 17.4609L19.1016 14.1992C19.2383 14.0527 19.3262 13.8574 19.3262 13.6719C19.3262 13.2715 19.0332 12.9785 18.6328 12.9785C18.4375 12.9785 18.252 13.0566 18.1152 13.1836L16.6992 14.6387L16.0547 15.3223L16.0742 14.5996L16.0742 6.00586C16.0742 5.5957 15.7715 5.30273 15.3613 5.30273C14.9609 5.30273 14.6484 5.60547 14.6484 6.00586L14.6484 14.6094L14.6875 15.332L14.0332 14.6387L12.6074 13.1836C12.4707 13.0469 12.2949 12.9785 12.0996 12.9785C11.6895 12.9785 11.4062 13.2617 11.4062 13.6719C11.4062 13.8574 11.4844 14.043 11.6113 14.1992L14.834 17.4609C15.0977 17.7246 15.5957 17.7637 15.8887 17.4609Z" fill="var(--color-primary)"/>
 </g>
</svg>
