<svg version="1.1" xmlns="http://www.w3.org/2000/svg" xmlns:xlink="http://www.w3.org/1999/xlink" width="25.8008" height="25.459" viewBox="0 0 25.8008 25.459">
 <g>
  <rect height="25.459" opacity="0" width="25.8008" x="0" y="0"/>
  <path d="M12.7148 25.4395C19.6777 25.4395 25.4395 19.6777 25.4395 12.7246C25.4395 5.76172 19.668 0 12.7051 0C5.75195 0 0 5.76172 0 12.7246C0 19.6777 5.76172 25.4395 12.7148 25.4395ZM12.7148 23.623C6.67969 23.623 1.82617 18.7598 1.82617 12.7246C1.82617 6.67969 6.66992 1.82617 12.7051 1.82617C18.75 1.82617 23.6133 6.67969 23.6133 12.7246C23.6133 18.7598 18.7598 23.623 12.7148 23.623Z" fill="var(--color-secondary)"/>
  <path d="M16.748 15.791C17.2168 15.791 17.5391 15.4395 17.5391 14.9316L17.5391 8.7793C17.5391 8.14453 17.1875 7.89062 16.6504 7.89062L10.4492 7.89062C9.95117 7.89062 9.61914 8.20312 9.61914 8.67188C9.61914 9.15039 9.96094 9.47266 10.4688 9.47266L13.2422 9.47266L15.0781 9.31641L13.2812 10.9961L8.125 16.1523C7.96875 16.3086 7.86133 16.5137 7.86133 16.7383C7.86133 17.2266 8.17383 17.5391 8.66211 17.5391C8.92578 17.5391 9.12109 17.4414 9.27734 17.2949L14.4238 12.1484L16.0938 10.3613L15.9473 12.4023L15.9473 14.9512C15.9473 15.4688 16.2695 15.791 16.748 15.791Z" fill="var(--color-primary)"/>
 </g>
</svg>
