<?xml version="1.0" encoding="UTF-8"?>
<!--Generator: Apple Native CoreSVG 232.5-->
<!DOCTYPE svg
PUBLIC "-//W3C//DTD SVG 1.1//EN"
       "http://www.w3.org/Graphics/SVG/1.1/DTD/svg11.dtd">
<svg version="1.1" xmlns="http://www.w3.org/2000/svg" xmlns:xlink="http://www.w3.org/1999/xlink" width="25.7129" height="25.2441">
 <g>
  <rect height="25.2441" opacity="0" width="25.7129" x="0" y="0"/>
  <path d="M12.6758 1.98242C13.2227 1.98242 13.6621 1.5332 13.6621 0.986328C13.6621 0.449219 13.2227 0 12.6758 0C12.1387 0 11.6895 0.449219 11.6895 0.986328C11.6895 1.5332 12.1387 1.98242 12.6758 1.98242ZM16.2695 2.56836C16.8164 2.56836 17.2559 2.11914 17.2559 1.58203C17.2559 1.03516 16.8164 0.585938 16.2695 0.585938C15.7324 0.585938 15.2832 1.03516 15.2832 1.58203C15.2832 2.11914 15.7324 2.56836 16.2695 2.56836ZM19.5312 4.20898C20.0684 4.20898 20.5176 3.76953 20.5176 3.22266C20.5176 2.68555 20.0684 2.23633 19.5312 2.23633C18.9941 2.23633 18.5449 2.68555 18.5449 3.22266C18.5449 3.76953 18.9941 4.20898 19.5312 4.20898ZM22.1094 6.78711C22.6465 6.78711 23.0957 6.33789 23.0957 5.80078C23.0957 5.25391 22.6465 4.80469 22.1094 4.80469C21.5625 4.80469 21.1133 5.25391 21.1133 5.80078C21.1133 6.33789 21.5625 6.78711 22.1094 6.78711ZM23.75 10.0098C24.2871 10.0098 24.7363 9.56055 24.7363 9.01367C24.7363 8.47656 24.2871 8.02734 23.75 8.02734C23.2129 8.02734 22.7637 8.47656 22.7637 9.01367C22.7637 9.56055 23.2129 10.0098 23.75 10.0098ZM24.3652 13.6133C24.9023 13.6133 25.3516 13.1641 25.3516 12.6172C25.3516 12.0801 24.9023 11.6309 24.3652 11.6309C23.8184 11.6309 23.3789 12.0801 23.3789 12.6172C23.3789 13.1641 23.8184 13.6133 24.3652 13.6133ZM23.75 17.2168C24.2871 17.2168 24.7363 16.7676 24.7363 16.2207C24.7363 15.6836 24.2871 15.2344 23.75 15.2344C23.2129 15.2344 22.7637 15.6836 22.7637 16.2207C22.7637 16.7676 23.2129 17.2168 23.75 17.2168ZM22.1094 20.4297C22.6465 20.4297 23.0957 19.9805 23.0957 19.4434C23.0957 18.8965 22.6465 18.457 22.1094 18.457C21.5625 18.457 21.1133 18.8965 21.1133 19.4434C21.1133 19.9805 21.5625 20.4297 22.1094 20.4297ZM19.5312 23.0078C20.0684 23.0078 20.5176 22.5586 20.5176 22.0215C20.5176 21.4746 20.0684 21.0254 19.5312 21.0254C18.9941 21.0254 18.5449 21.4746 18.5449 22.0215C18.5449 22.5586 18.9941 23.0078 19.5312 23.0078ZM16.2695 24.6484C16.8164 24.6484 17.2559 24.1992 17.2559 23.6621C17.2559 23.1152 16.8164 22.6758 16.2695 22.6758C15.7324 22.6758 15.2832 23.1152 15.2832 23.6621C15.2832 24.1992 15.7324 24.6484 16.2695 24.6484ZM12.6758 25.2344C13.2227 25.2344 13.6621 24.7949 13.6621 24.248C13.6621 23.7109 13.2227 23.2617 12.6758 23.2617C12.1387 23.2617 11.6895 23.7109 11.6895 24.248C11.6895 24.7949 12.1387 25.2344 12.6758 25.2344ZM9.08203 24.6484C9.62891 24.6484 10.0684 24.1992 10.0684 23.6621C10.0684 23.1152 9.62891 22.6758 9.08203 22.6758C8.54492 22.6758 8.0957 23.1152 8.0957 23.6621C8.0957 24.1992 8.54492 24.6484 9.08203 24.6484ZM5.82031 23.0078C6.36719 23.0078 6.81641 22.5586 6.81641 22.0215C6.81641 21.4746 6.36719 21.0254 5.82031 21.0254C5.2832 21.0254 4.83398 21.4746 4.83398 22.0215C4.83398 22.5586 5.2832 23.0078 5.82031 23.0078ZM3.25195 20.4297C3.78906 20.4297 4.23828 19.9805 4.23828 19.4434C4.23828 18.8965 3.78906 18.457 3.25195 18.457C2.70508 18.457 2.25586 18.8965 2.25586 19.4434C2.25586 19.9805 2.70508 20.4297 3.25195 20.4297ZM1.60156 17.2168C2.14844 17.2168 2.59766 16.7676 2.59766 16.2207C2.59766 15.6836 2.14844 15.2344 1.60156 15.2344C1.06445 15.2344 0.615234 15.6836 0.615234 16.2207C0.615234 16.7676 1.06445 17.2168 1.60156 17.2168ZM0.986328 13.6133C1.5332 13.6133 1.98242 13.1641 1.98242 12.6172C1.98242 12.0801 1.5332 11.6309 0.986328 11.6309C0.449219 11.6309 0 12.0801 0 12.6172C0 13.1641 0.449219 13.6133 0.986328 13.6133ZM1.60156 10.0098C2.14844 10.0098 2.59766 9.56055 2.59766 9.01367C2.59766 8.47656 2.14844 8.02734 1.60156 8.02734C1.06445 8.02734 0.615234 8.47656 0.615234 9.01367C0.615234 9.56055 1.06445 10.0098 1.60156 10.0098ZM3.25195 6.78711C3.78906 6.78711 4.23828 6.33789 4.23828 5.80078C4.23828 5.25391 3.78906 4.80469 3.25195 4.80469C2.70508 4.80469 2.25586 5.25391 2.25586 5.80078C2.25586 6.33789 2.70508 6.78711 3.25195 6.78711ZM5.82031 4.20898C6.36719 4.20898 6.81641 3.76953 6.81641 3.22266C6.81641 2.68555 6.36719 2.23633 5.82031 2.23633C5.2832 2.23633 4.83398 2.68555 4.83398 3.22266C4.83398 3.76953 5.2832 4.20898 5.82031 4.20898ZM9.08203 2.56836C9.62891 2.56836 10.0684 2.11914 10.0684 1.58203C10.0684 1.03516 9.62891 0.585938 9.08203 0.585938C8.54492 0.585938 8.0957 1.03516 8.0957 1.58203C8.0957 2.11914 8.54492 2.56836 9.08203 2.56836Z" fill="#ffffff" fill-opacity="0.55"/>
  <path d="M12.6855 6.25C12.2168 6.25 11.875 6.58203 11.875 7.06055L11.875 14.0039L11.9531 16.4453L10.6152 14.9121L8.91602 13.2031C8.75977 13.0566 8.57422 12.9688 8.33984 12.9688C7.89062 12.9688 7.55859 13.3008 7.55859 13.7402C7.55859 13.9648 7.62695 14.1602 7.77344 14.2969L12.0605 18.5742C12.2754 18.7891 12.4609 18.8867 12.6855 18.8867C12.9199 18.8867 13.1152 18.7793 13.3203 18.5742L17.6074 14.2969C17.7539 14.1602 17.832 13.9648 17.832 13.7402C17.832 13.3008 17.4805 12.9688 17.041 12.9688C16.8066 12.9688 16.6113 13.0469 16.4648 13.2031L14.7754 14.9121L13.418 16.4648L13.4961 14.0039L13.4961 7.06055C13.4961 6.58203 13.1641 6.25 12.6855 6.25Z" fill="#ffffff" fill-opacity="0.85"/>
 </g>
</svg>
