<?xml version="1.0" encoding="UTF-8"?>
<!--Generator: Apple Native CoreSVG 232.5-->
<!DOCTYPE svg
PUBLIC "-//W3C//DTD SVG 1.1//EN"
       "http://www.w3.org/Graphics/SVG/1.1/DTD/svg11.dtd">
<svg version="1.1" xmlns="http://www.w3.org/2000/svg" xmlns:xlink="http://www.w3.org/1999/xlink" width="23.3203" height="22.9785">
 <g>
  <rect height="22.9785" opacity="0" width="23.3203" x="0" y="0"/>
  <path d="M3.79883 22.9785L19.1504 22.9785C21.6797 22.9785 22.959 21.709 22.959 19.2188L22.959 3.78906C22.959 1.29883 21.6797 0.0292969 19.1504 0.0292969L3.79883 0.0292969C1.2793 0.0292969 0 1.28906 0 3.78906L0 19.2188C0 21.7188 1.2793 22.9785 3.79883 22.9785Z" fill="#ffffff" fill-opacity="0.25"/>
  <path d="M5.36133 7.08984L8.70117 3.80859C8.84766 3.66211 9.05273 3.57422 9.23828 3.57422C9.6582 3.57422 9.96094 3.87695 9.96094 4.28711C9.96094 4.49219 9.88281 4.67773 9.73633 4.82422L8.26172 6.26953L7.57812 6.91406L8.30078 6.89453L17.0898 6.89453C17.5098 6.89453 17.8223 7.20703 17.8223 7.63672C17.8223 8.04688 17.5 8.36914 17.0898 8.36914L8.29102 8.36914L7.56836 8.33008L8.26172 8.99414L9.73633 10.4395C9.88281 10.5859 9.96094 10.7715 9.96094 10.9668C9.96094 11.3867 9.6582 11.6797 9.23828 11.6797C9.05273 11.6797 8.85742 11.6016 8.70117 11.4746L5.36133 8.17383C5.06836 7.88086 5.06836 7.37305 5.36133 7.08984ZM17.5879 15.9082L14.248 19.209C14.0918 19.3457 13.8965 19.4336 13.7109 19.4336C13.3008 19.4336 12.9883 19.1211 12.9883 18.7109C12.9883 18.5059 13.0762 18.3398 13.2227 18.1836L14.6973 16.7383L15.3906 16.0938L14.6484 16.1133L5.85938 16.1133C5.44922 16.1133 5.14648 15.8008 5.14648 15.3711C5.14648 14.9512 5.45898 14.6387 5.85938 14.6387L14.6582 14.6387L15.3906 14.6777L14.6973 14.0137L13.2031 12.5684C13.0566 12.4219 12.9883 12.2461 12.9883 12.041C12.9883 11.6309 13.2812 11.3281 13.7109 11.3281C13.9062 11.3281 14.1113 11.416 14.248 11.543L17.5879 14.8438C17.8809 15.1465 17.8906 15.6055 17.5879 15.9082Z" fill="#ffffff" fill-opacity="0.85"/>
 </g>
</svg>
