<svg version="1.1" xmlns="http://www.w3.org/2000/svg" xmlns:xlink="http://www.w3.org/1999/xlink" width="30.9766" height="24.541" viewBox="0 0 30.9766 24.541">
 <g>
  <rect height="24.541" opacity="0" width="30.9766" x="0" y="0"/>
  <path d="M3.79883 23.7598L26.8164 23.7598C29.3359 23.7598 30.6152 22.4902 30.6152 20L30.6152 6.77734C30.6152 4.29688 29.3359 3.01758 26.8164 3.01758L23.1543 3.01758C22.1484 3.01758 21.8652 2.86133 21.2695 2.19727L20.2344 1.03516C19.5898 0.332031 18.9844 0 17.7148 0L12.7539 0C11.4844 0 10.8789 0.332031 10.2344 1.03516L9.19922 2.19727C8.62305 2.8418 8.31055 3.01758 7.31445 3.01758L3.79883 3.01758C1.2793 3.01758 0 4.29688 0 6.77734L0 20C0 22.4902 1.2793 23.7598 3.79883 23.7598Z" fill="var(--color-tertiary)"/>
  <path d="M6.71875 12.8809L8.63281 10.1172C8.97461 9.63867 9.50195 9.6582 9.82422 10.1172L11.7773 12.8809C12.0703 13.2812 11.9336 13.7598 11.4258 13.7598L10.0586 13.7598C10.5957 16.1426 12.7246 17.9199 15.332 17.9199C16.5918 17.9199 17.5879 17.5098 18.6035 16.6699C19.043 16.3379 19.5312 16.2793 19.9023 16.6895C20.293 17.0801 20.166 17.6465 19.6484 18.0664C18.5352 19.0332 16.9238 19.6289 15.332 19.6289C11.8066 19.6289 9.01367 17.2461 8.42773 13.7598L7.05078 13.7598C6.5332 13.7598 6.43555 13.291 6.71875 12.8809ZM10.7324 8.70117C10.3516 8.31055 10.4688 7.74414 10.9961 7.32422C12.1094 6.35742 13.7207 5.76172 15.3125 5.76172C18.8379 5.76172 21.6309 8.14453 22.2168 11.6309L23.5352 11.6309C24.0527 11.6309 24.1504 12.0996 23.8672 12.5098L21.9434 15.2734C21.6113 15.752 21.084 15.7324 20.7617 15.2734L18.8086 12.5098C18.5156 12.1094 18.6426 11.6309 19.1602 11.6309L20.5859 11.6309C20.0488 9.23828 17.9199 7.4707 15.3125 7.4707C14.0527 7.4707 13.0371 7.87109 12.041 8.7207C11.6016 9.05273 11.123 9.10156 10.7324 8.70117Z" fill="var(--color-primary)"/>
 </g>
</svg>
