<?xml version="1.0" encoding="UTF-8"?>
<!--Generator: Apple Native CoreSVG 232.5-->
<!DOCTYPE svg
PUBLIC "-//W3C//DTD SVG 1.1//EN"
       "http://www.w3.org/Graphics/SVG/1.1/DTD/svg11.dtd">
<svg version="1.1" xmlns="http://www.w3.org/2000/svg" xmlns:xlink="http://www.w3.org/1999/xlink" width="25.8008" height="25.459">
 <g>
  <rect height="25.459" opacity="0" width="25.8008" x="0" y="0"/>
  <path d="M12.7148 25.459C19.6777 25.459 25.4395 19.6973 25.4395 12.7344C25.4395 5.78125 19.668 0.0195312 12.7051 0.0195312C5.75195 0.0195312 0 5.78125 0 12.7344C0 19.6973 5.76172 25.459 12.7148 25.459Z" fill="#ffffff" fill-opacity="0.25"/>
  <path d="M12.7148 4.81445C12.9492 4.81445 13.1934 4.89258 13.4863 5.18555L18.7305 10.8301C19.043 11.1523 19.1797 11.3574 19.1797 11.6699C19.1797 12.1289 18.8184 12.4414 18.3887 12.4414L15.4395 12.4414L15.4395 18.457C15.4395 19.4531 14.8828 20.0195 13.916 20.0195L11.4941 20.0195C10.5273 20.0195 9.9707 19.4531 9.9707 18.457L9.9707 12.4414L7.01172 12.4414C6.5625 12.4414 6.25 12.1289 6.25 11.6895C6.25 11.3672 6.39648 11.123 6.66016 10.8301L11.9629 5.18555C12.2461 4.89258 12.4902 4.81445 12.7148 4.81445Z" fill="#ffffff" fill-opacity="0.85"/>
 </g>
</svg>
