<svg version="1.1" xmlns="http://www.w3.org/2000/svg" xmlns:xlink="http://www.w3.org/1999/xlink" width="23.3203" height="22.9785" viewBox="0 0 23.3203 22.9785">
 <g>
  <rect height="22.9785" opacity="0" width="23.3203" x="0" y="0"/>
  <path d="M22.959 3.78906L22.959 19.2188C22.959 21.709 21.6797 22.9785 19.1504 22.9785L3.79883 22.9785C1.2793 22.9785 0 21.7188 0 19.2188L0 3.78906C0 1.28906 1.2793 0.0292969 3.79883 0.0292969L19.1504 0.0292969C21.6797 0.0292969 22.959 1.29883 22.959 3.78906ZM4.0332 10.293L4.07227 14.9805C4.08203 15.1953 4.15039 15.4102 4.28711 15.5371C4.58008 15.8301 5.01953 15.8301 5.30273 15.5371C5.45898 15.3809 5.51758 15.2051 5.52734 14.9902L5.49805 12.9102L5.45898 11.9727L5.9668 12.5195L12.1875 18.7207C12.4902 19.0234 12.9199 19.0137 13.2227 18.7207C13.5156 18.418 13.5156 17.9883 13.2227 17.6855L7.01172 11.4746L6.46484 10.9766L7.42188 10.9961L9.50195 11.0254C9.70703 11.0254 9.88281 10.9473 10.0293 10.8105C10.332 10.5078 10.332 10.0977 10.0195 9.79492C9.88281 9.6582 9.66797 9.56055 9.49219 9.56055L4.78516 9.54102C4.375 9.54102 4.0332 9.85352 4.0332 10.293ZM9.72656 4.27734C9.43359 4.57031 9.44336 5.00977 9.72656 5.3125L15.9375 11.5234L16.4844 12.0215L15.5273 12.002L13.457 11.9727C13.252 11.9727 13.0664 12.041 12.9199 12.1973C12.627 12.4902 12.627 12.9199 12.9297 13.2031C13.0664 13.3398 13.252 13.4277 13.4668 13.4375L18.1641 13.4668C18.5645 13.4766 18.9258 13.1152 18.9258 12.6953L18.8867 8.01758C18.8867 7.82227 18.8086 7.59766 18.6621 7.4707C18.3789 7.16797 17.9492 7.16797 17.6465 7.4707C17.5 7.60742 17.4121 7.80273 17.4219 8.00781L17.4414 10.0781L17.4707 11.0156L16.9824 10.4785L10.7715 4.26758C10.4688 3.97461 10.0195 3.98438 9.72656 4.27734Z" fill="var(--color-primary)"/>
 </g>
</svg>
