<svg version="1.1" xmlns="http://www.w3.org/2000/svg" xmlns:xlink="http://www.w3.org/1999/xlink" width="25.8008" height="25.7324" viewBox="0 0 25.8008 25.7324">
 <g>
  <rect height="25.7324" opacity="0" width="25.8008" x="0" y="0"/>
  <path d="M12.7148 25.4297C19.6777 25.4297 25.4395 19.6777 25.4395 12.7148C25.4395 5.75195 19.668 0 12.7051 0C5.75195 0 0 5.75195 0 12.7148C0 19.6777 5.76172 25.4297 12.7148 25.4297Z" fill="var(--color-tertiary)"/>
  <path d="M18.9746 14.1309C18.9746 17.002 16.9922 18.8965 14.0527 18.8965L12.2949 18.8965C11.7773 18.8965 11.4258 18.5742 11.4258 18.0859C11.4258 17.6074 11.7676 17.2852 12.2754 17.2852L14.0527 17.2852C16.0254 17.2852 17.3535 16.0254 17.3535 14.1309C17.3535 12.3438 16.0449 11.1426 14.0625 11.1426L10.1172 11.1426L8.83789 11.0938L9.42383 11.5234L11.1426 13.1836C11.2988 13.3496 11.3965 13.5547 11.3965 13.7891C11.3965 14.2578 11.0547 14.6289 10.5957 14.6289C10.3516 14.6289 10.1562 14.541 10.0098 14.3848L6.71875 11.0352C6.51367 10.8203 6.42578 10.5859 6.42578 10.332C6.42578 10.0879 6.52344 9.83398 6.71875 9.62891L10 6.30859C10.1562 6.14258 10.3418 6.06445 10.5859 6.06445C11.0645 6.06445 11.3965 6.42578 11.3965 6.89453C11.3965 7.11914 11.2988 7.33398 11.1426 7.48047L9.61914 8.96484L8.82812 9.58984L10.1172 9.53125L14.0625 9.53125C17.002 9.53125 18.9746 11.3672 18.9746 14.1309Z" fill="var(--color-primary)"/>
 </g>
</svg>
