<svg version="1.1" xmlns="http://www.w3.org/2000/svg" xmlns:xlink="http://www.w3.org/1999/xlink" width="28.6523" height="25.9863" viewBox="0 0 28.6523 25.9863">
 <g>
  <rect height="25.9863" opacity="0" width="28.6523" x="0" y="0"/>
  <path d="M5.38086 25.9766C7.00195 25.9766 10.293 24.4238 12.8125 22.6953C21.377 23.1055 28.291 18.1445 28.291 11.377C28.291 5.08789 22.0117 0 14.1504 0C6.2793 0 0 5.08789 0 11.377C0 15.4883 2.63672 19.1309 6.62109 20.9961C6.05469 22.0898 5.03906 23.457 4.48242 24.1699C3.83789 25 4.18945 25.9766 5.38086 25.9766ZM6.45508 24.1895C6.35742 24.2188 6.31836 24.1602 6.38672 24.0723C7.06055 23.252 8.07617 21.9727 8.52539 21.084C8.82812 20.5273 8.74023 20.0293 8.06641 19.7168C4.11133 17.8809 1.77734 14.8535 1.77734 11.377C1.77734 6.07422 7.26562 1.77734 14.1504 1.77734C21.0254 1.77734 26.5137 6.07422 26.5137 11.377C26.5137 16.6699 21.0254 20.9766 14.1504 20.9766C13.7988 20.9766 13.3496 20.957 12.8027 20.9277C12.3438 20.9277 11.9727 21.0645 11.5625 21.377C9.86328 22.5195 7.57812 23.8281 6.45508 24.1895Z" fill="var(--color-primary)"/>
  <path d="M14.1602 5.10742C13.6816 5.10742 13.3398 5.44922 13.3398 5.91797L13.3398 12.8613L13.4277 15.3125L12.0801 13.7695L10.3809 12.0605C10.2344 11.9141 10.0391 11.8262 9.80469 11.8262C9.36523 11.8262 9.02344 12.1582 9.02344 12.5977C9.02344 12.8223 9.10156 13.0176 9.23828 13.1543L13.5352 17.4414C13.75 17.6465 13.9258 17.7441 14.1602 17.7441C14.3945 17.7441 14.5801 17.6367 14.7852 17.4414L19.0723 13.1543C19.2188 13.0176 19.2969 12.8223 19.2969 12.5977C19.2969 12.1582 18.9551 11.8262 18.5156 11.8262C18.2715 11.8262 18.0859 11.9043 17.9297 12.0605L16.25 13.7695L14.8828 15.3223L14.9707 12.8613L14.9707 5.91797C14.9707 5.44922 14.6289 5.10742 14.1602 5.10742Z" fill="var(--color-primary)"/>
 </g>
</svg>
