<svg version="1.1" xmlns="http://www.w3.org/2000/svg" xmlns:xlink="http://www.w3.org/1999/xlink" width="23.3203" height="22.9785" viewBox="0 0 23.3203 22.9785">
 <g>
  <rect height="22.9785" opacity="0" width="23.3203" x="0" y="0"/>
  <path d="M22.959 3.78906L22.959 19.2188C22.959 21.709 21.6797 22.9785 19.1504 22.9785L3.79883 22.9785C1.2793 22.9785 0 21.7188 0 19.2188L0 3.78906C0 1.28906 1.2793 0.0292969 3.79883 0.0292969L19.1504 0.0292969C21.6797 0.0292969 22.959 1.29883 22.959 3.78906ZM10.8301 6.8457L6.43555 14.2188C6.12305 14.7363 6.37695 15.4297 6.95312 15.4297L16.0156 15.4297C16.5918 15.4297 16.8457 14.7754 16.5234 14.2188L12.1582 6.8457C11.8457 6.30859 11.1328 6.33789 10.8301 6.8457Z" fill="currentColor"/>
 </g>
</svg>
