<?xml version="1.0" encoding="UTF-8"?>
<!--Generator: Apple Native CoreSVG 232.5-->
<!DOCTYPE svg
PUBLIC "-//W3C//DTD SVG 1.1//EN"
       "http://www.w3.org/Graphics/SVG/1.1/DTD/svg11.dtd">
<svg version="1.1" xmlns="http://www.w3.org/2000/svg" xmlns:xlink="http://www.w3.org/1999/xlink" width="25.8008" height="25.459">
 <g>
  <rect height="25.459" opacity="0" width="25.8008" x="0" y="0"/>
  <path d="M12.7148 25.4395C19.6777 25.4395 25.4395 19.6777 25.4395 12.7246C25.4395 5.76172 19.668 0 12.7051 0C5.75195 0 0 5.76172 0 12.7246C0 19.6777 5.76172 25.4395 12.7148 25.4395Z" fill="#ffffff" fill-opacity="0.25"/>
  <path d="M5.60547 17.5684L8.18359 7.54883C8.32031 7.02148 8.71094 6.71875 9.20898 6.71875C9.69727 6.71875 10.0684 7.02148 10.1953 7.54883L12.7148 17.5684C12.8711 18.2227 12.4805 18.5547 12.041 18.5547C11.6895 18.5547 11.3867 18.3691 11.2988 17.9492L10.6836 15.3418L7.64648 15.3418L7.05078 17.9492C6.97266 18.3691 6.64062 18.5547 6.29883 18.5547C5.87891 18.5547 5.43945 18.2227 5.60547 17.5684ZM7.90039 14.1797L10.4297 14.1797L9.18945 8.88672L9.10156 8.88672ZM16.4355 19.375C16.1621 19.375 15.9375 19.1504 15.9375 18.877L15.9375 17.9688C14.4043 17.8027 13.4668 16.7969 13.3301 15.4102C13.2422 14.834 13.6133 14.5117 14.0039 14.5117C14.3164 14.5117 14.5898 14.7168 14.6289 15.1074C14.6777 15.9961 15.0977 16.5918 15.9375 16.7285L15.9375 13.1836L15.4688 12.9492C14.1797 12.2852 13.3691 11.4453 13.3691 10.0293C13.3691 8.54492 14.4336 7.5293 15.9375 7.37305L15.9375 6.51367C15.9375 6.25 16.1621 6.02539 16.4355 6.02539C16.6797 6.02539 16.9043 6.25 16.9043 6.51367L16.9043 7.38281C18.3398 7.58789 19.1699 8.59375 19.2969 9.90234C19.375 10.5176 19.0137 10.8105 18.623 10.8105C18.3008 10.8105 18.0078 10.5859 17.9785 10.2148C17.9395 9.42383 17.5684 8.82812 16.9043 8.64258L16.9043 12.0898L17.3242 12.3145C18.8281 13.1152 19.4922 13.9551 19.4922 15.2148C19.4922 16.7871 18.457 17.8125 16.9043 17.9785L16.9043 18.877C16.9043 19.1504 16.6797 19.375 16.4355 19.375ZM14.7559 9.98047C14.7559 10.7812 15.2637 11.1816 15.7812 11.4844L15.9375 11.5723L15.9375 8.61328C15.2246 8.74023 14.7559 9.22852 14.7559 9.98047ZM18.1055 15.3125C18.1055 14.5898 17.6562 14.1113 17.0215 13.75L16.9043 13.6914L16.9043 16.7285C17.666 16.5918 18.1055 16.0547 18.1055 15.3125Z" fill="#ffffff" fill-opacity="0.85"/>
 </g>
</svg>
