<svg version="1.1" xmlns="http://www.w3.org/2000/svg" xmlns:xlink="http://www.w3.org/1999/xlink" width="23.3203" height="22.9785" viewBox="0 0 23.3203 22.9785">
 <g>
  <rect height="22.9785" opacity="0" width="23.3203" x="0" y="0"/>
  <path d="M3.79883 22.9785L19.1504 22.9785C21.6797 22.9785 22.959 21.709 22.959 19.2188L22.959 3.78906C22.959 1.29883 21.6797 0.0292969 19.1504 0.0292969L3.79883 0.0292969C1.2793 0.0292969 0 1.28906 0 3.78906L0 19.2188C0 21.7188 1.2793 22.9785 3.79883 22.9785Z" fill="var(--color-tertiary)"/>
  <path d="M6.41602 14.0527C6.41602 13.7305 6.64062 13.4766 6.98242 13.4766L8.0957 13.4766L8.47656 12.334L6.98242 12.334C6.64062 12.334 6.41602 12.0898 6.41602 11.7676C6.41602 11.4453 6.64062 11.1914 6.98242 11.1914L8.86719 11.1914L10.5957 6.05469C10.7422 5.64453 11.0059 5.40039 11.4746 5.40039C11.9238 5.40039 12.1973 5.6543 12.3438 6.05469L14.0723 11.1914L15.957 11.1914C16.3086 11.1914 16.5234 11.4453 16.5234 11.7676C16.5234 12.0898 16.3086 12.334 15.957 12.334L14.4629 12.334L14.8438 13.4766L15.957 13.4766C16.3086 13.4766 16.5234 13.7305 16.5234 14.0527C16.5234 14.375 16.3086 14.6191 15.957 14.6191L15.2148 14.6191L15.9277 16.6797C15.9766 16.8555 16.0059 16.9629 16.0059 17.0605C16.0059 17.4512 15.7031 17.7344 15.2637 17.7344C14.8926 17.7344 14.668 17.5684 14.5605 17.1973L13.7207 14.6191L9.22852 14.6191L8.38867 17.1875C8.28125 17.5586 8.02734 17.7344 7.67578 17.7344C7.24609 17.7344 6.94336 17.4512 6.94336 17.0605C6.94336 16.9629 6.96289 16.8555 7.01172 16.6797L7.72461 14.6191L6.98242 14.6191C6.64062 14.6191 6.41602 14.375 6.41602 14.0527ZM9.58008 13.4766L13.3691 13.4766L12.998 12.334L9.95117 12.334ZM10.3125 11.1914L12.6367 11.1914L11.4746 7.59766Z" fill="var(--color-primary)"/>
 </g>
</svg>
