<svg version="1.1" xmlns="http://www.w3.org/2000/svg" xmlns:xlink="http://www.w3.org/1999/xlink" width="23.3203" height="22.9785" viewBox="0 0 23.3203 22.9785">
 <g>
  <rect height="22.9785" opacity="0" width="23.3203" x="0" y="0"/>
  <path d="M3.79883 22.9785L19.1504 22.9785C21.6797 22.9785 22.959 21.709 22.959 19.2188L22.959 3.78906C22.959 1.29883 21.6797 0.0292969 19.1504 0.0292969L3.79883 0.0292969C1.2793 0.0292969 0 1.28906 0 3.78906L0 19.2188C0 21.7188 1.2793 22.9785 3.79883 22.9785ZM3.83789 21.25C2.4707 21.25 1.72852 20.5273 1.72852 19.1309L1.72852 3.87695C1.72852 2.48047 2.4707 1.75781 3.83789 1.75781L19.1211 1.75781C20.459 1.75781 21.2305 2.48047 21.2305 3.87695L21.2305 19.1309C21.2305 20.5273 20.459 21.25 19.1211 21.25Z" fill="var(--color-primary)"/>
  <path d="M5.21484 17.168C5.54688 17.168 5.85938 16.9922 5.94727 16.582L7.95898 7.73438L8.03711 7.73438L10.0977 16.582C10.1855 16.9922 10.4883 17.168 10.8203 17.168C11.2402 17.168 11.6309 16.8457 11.4648 16.2109L9.01367 6.42578C8.88672 5.91797 8.53516 5.625 8.05664 5.625C7.57812 5.625 7.19727 5.91797 7.07031 6.42578L4.54102 16.2109C4.375 16.8457 4.80469 17.168 5.21484 17.168ZM5.99609 14.0332L10.0293 14.0332L10.0293 12.9004L5.99609 12.9004ZM15.1074 16.6309C16.875 16.6309 18.0859 15.5957 18.0859 13.916C18.0859 12.6855 17.4512 11.8457 15.9668 11.084L14.8145 10.4883C14.1699 10.1562 13.4668 9.7168 13.4668 8.79883C13.4668 7.93945 14.1016 7.40234 15.0293 7.40234C16.0254 7.40234 16.5723 8.06641 16.6211 9.0332C16.6504 9.39453 16.9238 9.60938 17.2363 9.60938C17.6172 9.60938 17.9688 9.32617 17.8906 8.73047C17.7539 7.30469 16.7383 6.24023 15.0293 6.24023C13.3398 6.24023 12.1191 7.26562 12.1191 8.85742C12.1191 10.2344 12.9102 11.0645 14.1699 11.6992L15.3027 12.2559C16.0547 12.627 16.748 13.1738 16.748 14.0137C16.748 14.873 16.1426 15.459 15.1074 15.459C13.9453 15.459 13.3984 14.834 13.3301 13.8086C13.291 13.4277 13.0371 13.2324 12.7246 13.2324C12.3438 13.2324 12.002 13.5449 12.0801 14.1016C12.2363 15.5957 13.3301 16.6309 15.1074 16.6309ZM15.0977 17.9688C15.3418 17.9688 15.5664 17.7539 15.5664 17.4902L15.5664 5.41992C15.5664 5.16602 15.3418 4.95117 15.0977 4.95117C14.8438 4.95117 14.6289 5.16602 14.6289 5.41992L14.6289 17.4902C14.6289 17.7539 14.8438 17.9688 15.0977 17.9688Z" fill="var(--color-primary)"/>
 </g>
</svg>
