<?xml version="1.0" encoding="UTF-8"?>
<!--Generator: Apple Native CoreSVG 232.5-->
<!DOCTYPE svg
PUBLIC "-//W3C//DTD SVG 1.1//EN"
       "http://www.w3.org/Graphics/SVG/1.1/DTD/svg11.dtd">
<svg version="1.1" xmlns="http://www.w3.org/2000/svg" xmlns:xlink="http://www.w3.org/1999/xlink" width="27.8442" height="27.4977">
 <g>
  <rect height="27.4977" opacity="0" width="27.8442" x="0" y="0"/>
  <path d="M23.0508 26.1686C23.0065 26.1789 22.96 26.1878 22.9114 26.1951L18.1458 26.8592C17.4915 26.9568 17.1204 26.576 17.2473 25.9314L18.2024 21.3201ZM4.6318 7.74951C3.49858 9.46382 2.84561 11.5235 2.85279 13.7439C2.86255 17.4842 4.73755 20.7459 7.58912 22.7088C8.02857 23.0311 8.16529 23.5389 7.89185 23.9881C7.63794 24.4178 7.05201 24.5447 6.57349 24.1834C3.28248 21.8103 1.02662 18.0408 1.02662 13.7439C1.02662 11.0509 1.88851 8.53759 3.35549 6.4732ZM26.4661 13.7439C26.4661 16.446 25.574 18.9396 24.0924 21.0077L22.8256 19.7404C23.9732 18.0286 24.6438 15.9711 24.6497 13.7439C24.6692 7.69902 19.7864 2.84551 13.7512 2.84551C11.5237 2.84551 9.45527 3.50457 7.73488 4.64334L6.45752 3.36544C8.52586 1.88776 11.048 1.01933 13.7512 1.01933C20.7044 1.01933 26.4661 6.78105 26.4661 13.7439ZM12.2571 15.3748L11.4368 15.3748L10.4407 18.2068C10.2747 18.7244 10.0012 18.9002 9.6106 18.9002C9.12232 18.9002 8.80005 18.6072 8.80005 18.158C8.80005 17.992 8.83912 17.8357 8.91724 17.6014L10.432 13.5497ZM14.9426 7.88457L17.3033 14.2159L14.757 11.6685L13.8001 8.95879L13.6829 8.95879L13.2562 10.167L12.1212 9.03155L12.5501 7.88457C12.7551 7.32793 13.1555 7.04472 13.7415 7.04472C14.3176 7.04472 14.7376 7.32793 14.9426 7.88457Z" fill="#ffffff" fill-opacity="0.55"/>
  <path d="M24.6985 25.9021C25.0305 26.2244 25.5579 26.2146 25.8801 25.8924C26.2024 25.5603 26.2024 25.0428 25.8801 24.7107L2.78443 1.61504C2.47193 1.29277 1.93482 1.28301 1.60279 1.61504C1.28052 1.9373 1.28052 2.47441 1.60279 2.79668Z" fill="#ffffff" fill-opacity="0.85"/>
 </g>
</svg>
