<?xml version="1.0" encoding="UTF-8"?>
<!--Generator: Apple Native CoreSVG 232.5-->
<!DOCTYPE svg
PUBLIC "-//W3C//DTD SVG 1.1//EN"
       "http://www.w3.org/Graphics/SVG/1.1/DTD/svg11.dtd">
<svg version="1.1" xmlns="http://www.w3.org/2000/svg" xmlns:xlink="http://www.w3.org/1999/xlink" width="28.2246" height="25.459">
 <g>
  <rect height="25.459" opacity="0" width="28.2246" x="0" y="0"/>
  <path d="M15.1475 25.4395C22.1104 25.4395 27.8623 19.6777 27.8623 12.7246C27.8623 5.76172 22.1104 0 15.1475 0C8.18458 0 2.43263 5.75195 2.43263 12.7148L4.24904 12.7148C4.24904 6.66992 9.10255 1.83594 15.1475 1.83594C21.1826 1.83594 26.0459 6.67969 26.0459 12.7246C26.0459 18.7598 21.1826 23.6426 15.1475 23.623C11.4072 23.6133 8.13576 21.7383 6.18263 18.877C5.86037 18.4375 5.34279 18.3008 4.90333 18.5742C4.47365 18.8281 4.34669 19.4141 4.70802 19.8926C7.08107 23.1836 10.8408 25.4395 15.1475 25.4395ZM0.801772 10.3613C0.000990731 10.3613-0.223619 10.9082 0.235366 11.543L3.0088 15.4883C3.3799 16.0254 3.91701 16.0156 4.27833 15.4883L7.05177 11.5332C7.49123 10.9082 7.27638 10.3613 6.48537 10.3613Z" fill="#ffffff" fill-opacity="0.85"/>
  <path d="M15.294 20.0488C15.6065 20.0488 15.8408 19.8242 15.8408 19.4922L15.8408 18.5645L16.0459 18.5645C18.3701 18.5645 19.8252 17.3145 19.8252 15.3418C19.8252 13.9551 18.9756 12.9199 17.6865 12.5293C18.624 12.0801 19.2588 11.0938 19.2588 10.0293C19.2588 8.33984 17.9502 7.11914 16.0361 7.11914L15.8408 7.11914L15.8408 6.14258C15.8408 5.81055 15.6065 5.58594 15.294 5.58594C14.9815 5.58594 14.7471 5.81055 14.7471 6.14258L14.7471 7.11914L12.8037 7.11914C12.3057 7.11914 11.9444 7.4707 11.9444 7.97852L11.9444 17.7051C11.9444 18.2227 12.2959 18.5645 12.8037 18.5645L14.7471 18.5645L14.7471 19.4922C14.7471 19.8242 14.9815 20.0488 15.294 20.0488ZM13.3506 17.2754L13.3506 13.3105L14.7471 13.3105L14.7471 17.2656ZM15.8408 17.2559L15.8408 13.3203C17.5498 13.3887 18.419 14.0723 18.419 15.293C18.419 16.5234 17.5694 17.207 15.8408 17.2559ZM13.3506 12.0312L13.3506 8.38867L14.7471 8.38867L14.7471 12.0312ZM15.8408 11.9824L15.8408 8.4082C17.1397 8.48633 17.8428 9.10156 17.8428 10.127C17.8428 11.1816 17.169 11.8457 15.8408 11.9824Z" fill="#ffffff" fill-opacity="0.85"/>
 </g>
</svg>
