<?xml version="1.0" encoding="UTF-8"?>
<!--Generator: Apple Native CoreSVG 232.5-->
<!DOCTYPE svg
PUBLIC "-//W3C//DTD SVG 1.1//EN"
       "http://www.w3.org/Graphics/SVG/1.1/DTD/svg11.dtd">
<svg version="1.1" xmlns="http://www.w3.org/2000/svg" xmlns:xlink="http://www.w3.org/1999/xlink" width="25.8008" height="25.459">
 <g>
  <rect height="25.459" opacity="0" width="25.8008" x="0" y="0"/>
  <path d="M12.7148 25.459C19.6777 25.459 25.4395 19.6973 25.4395 12.7344C25.4395 5.78125 19.668 0.0195312 12.7051 0.0195312C5.75195 0.0195312 0 5.78125 0 12.7344C0 19.6973 5.76172 25.459 12.7148 25.459Z" fill="#ffffff" fill-opacity="0.25"/>
  <path d="M7.03125 13.6719C7.03125 13.5254 7.08984 13.3594 7.22656 13.1934L14.4238 4.16016C14.9219 3.54492 15.752 3.95508 15.4492 4.72656L13.0664 11.1426L17.5195 11.1426C17.8223 11.1426 18.0566 11.3574 18.0566 11.6602C18.0566 11.8066 17.9883 11.9727 17.8613 12.1387L10.6641 21.1719C10.166 21.7871 9.33594 21.377 9.63867 20.6055L12.0215 14.1895L7.56836 14.1895C7.25586 14.1895 7.03125 13.9746 7.03125 13.6719Z" fill="#ffffff" fill-opacity="0.85"/>
 </g>
</svg>
