<svg version="1.1" xmlns="http://www.w3.org/2000/svg" xmlns:xlink="http://www.w3.org/1999/xlink" width="25.8008" height="25.459" viewBox="0 0 25.8008 25.459">
 <g>
  <rect height="25.459" opacity="0" width="25.8008" x="0" y="0"/>
  <path d="M12.7148 25.4395C19.6777 25.4395 25.4395 19.6777 25.4395 12.7246C25.4395 5.76172 19.668 0 12.7051 0C5.75195 0 0 5.76172 0 12.7246C0 19.6777 5.76172 25.4395 12.7148 25.4395ZM12.7148 23.623C6.67969 23.623 1.82617 18.7598 1.82617 12.7246C1.82617 6.67969 6.66992 1.82617 12.7051 1.82617C18.75 1.82617 23.6133 6.67969 23.6133 12.7246C23.6133 18.7598 18.7598 23.623 12.7148 23.623Z" fill="var(--color-secondary)"/>
  <path d="M7.23633 18.3789C7.65625 18.3789 7.94922 18.0859 7.94922 17.6562L7.94922 13.4863L9.0918 13.4863C9.17969 13.4863 9.25781 13.4863 9.39453 13.4766L11.1523 17.9199C11.2793 18.2422 11.5332 18.3789 11.8164 18.3789C12.2852 18.3789 12.7539 18.0078 12.5 17.373L10.7715 13.2031C11.875 12.832 12.4609 11.5234 12.4609 10.1855C12.4609 8.20312 11.4551 7.07031 9.38477 7.07031L7.33398 7.07031C6.80664 7.07031 6.51367 7.46094 6.51367 8.04688L6.51367 17.6562C6.51367 18.0859 6.80664 18.3789 7.23633 18.3789ZM7.94922 12.3535L7.94922 8.24219L9.22852 8.24219C10.4297 8.24219 11.0059 8.98438 11.0059 10.2344C11.0059 11.5039 10.459 12.3535 9.24805 12.3535ZM16.5625 17.8711C18.3301 17.8711 19.541 16.8359 19.541 15.1562C19.541 13.9258 18.9062 13.0859 17.4219 12.3242L16.2695 11.7285C15.625 11.3965 14.9219 10.957 14.9219 10.0391C14.9219 9.17969 15.5566 8.64258 16.4844 8.64258C17.4805 8.64258 18.0273 9.30664 18.0762 10.2734C18.1055 10.6348 18.3789 10.8496 18.6914 10.8496C19.0723 10.8496 19.4238 10.5664 19.3457 9.9707C19.209 8.54492 18.1934 7.48047 16.4844 7.48047C14.7949 7.48047 13.5742 8.50586 13.5742 10.0977C13.5742 11.4746 14.3652 12.3047 15.625 12.9395L16.748 13.4961C17.5098 13.8672 18.1934 14.4141 18.1934 15.2539C18.1934 16.1133 17.5977 16.6992 16.5625 16.6992C15.4004 16.6992 14.8535 16.0742 14.7852 15.0488C14.7461 14.668 14.4922 14.4727 14.1797 14.4727C13.7988 14.4727 13.457 14.7852 13.5352 15.3418C13.6914 16.8359 14.7852 17.8711 16.5625 17.8711ZM16.5527 19.209C16.7969 19.209 17.0215 18.9941 17.0215 18.7305L17.0215 6.66016C17.0215 6.40625 16.7969 6.19141 16.5527 6.19141C16.2988 6.19141 16.084 6.40625 16.084 6.66016L16.084 18.7305C16.084 18.9941 16.2988 19.209 16.5527 19.209Z" fill="var(--color-primary)"/>
 </g>
</svg>
