<?xml version="1.0" encoding="UTF-8"?>
<!--Generator: Apple Native CoreSVG 232.5-->
<!DOCTYPE svg
PUBLIC "-//W3C//DTD SVG 1.1//EN"
       "http://www.w3.org/Graphics/SVG/1.1/DTD/svg11.dtd">
<svg version="1.1" xmlns="http://www.w3.org/2000/svg" xmlns:xlink="http://www.w3.org/1999/xlink" width="25.8008" height="25.459">
 <g>
  <rect height="25.459" opacity="0" width="25.8008" x="0" y="0"/>
  <path d="M12.7148 25.459C19.6777 25.459 25.4395 19.6973 25.4395 12.7344C25.4395 5.78125 19.668 0.0195312 12.7051 0.0195312C5.75195 0.0195312 0 5.78125 0 12.7344C0 19.6973 5.76172 25.459 12.7148 25.459Z" fill="#ffffff" fill-opacity="0.25"/>
  <path d="M16.0742 20.166C15.8496 20.166 15.6934 20.0684 15.4395 19.8242L13.0957 17.7246L8.4668 17.7246C6.67969 17.7246 5.6543 16.6797 5.6543 14.8926L5.6543 9.77539C5.6543 8.00781 6.67969 6.97266 8.4668 6.97266L16.9629 6.97266C18.7598 6.97266 19.7754 8.00781 19.7754 9.77539L19.7754 14.8926C19.7754 16.6895 18.7598 17.7246 16.9629 17.7246L16.582 17.7246L16.582 19.5898C16.582 19.9414 16.3867 20.166 16.0742 20.166Z" fill="#ffffff" fill-opacity="0.85"/>
 </g>
</svg>
