<?xml version="1.0" encoding="UTF-8"?>
<!--Generator: Apple Native CoreSVG 232.5-->
<!DOCTYPE svg
PUBLIC "-//W3C//DTD SVG 1.1//EN"
       "http://www.w3.org/Graphics/SVG/1.1/DTD/svg11.dtd">
<svg version="1.1" xmlns="http://www.w3.org/2000/svg" xmlns:xlink="http://www.w3.org/1999/xlink" width="19.1113" height="26.6699">
 <g>
  <rect height="26.6699" opacity="0" width="19.1113" x="0" y="0"/>
  <path d="M0 24.5312C0 25.8594 0.742188 26.6699 1.98242 26.6699L16.7676 26.6699C18.0078 26.6699 18.75 25.8594 18.75 24.5312L18.75 2.1582C18.75 0.830078 18.0078 0.0195312 16.7676 0.0195312L1.98242 0.0195312C0.742188 0.0195312 0 0.830078 0 2.1582ZM5.19531 24.9414L5.19531 20.8594C5.19531 20.3125 5.55664 19.9609 6.10352 19.9609L12.8516 19.9609C13.3984 19.9609 13.75 20.3125 13.75 20.8594L13.75 24.9414ZM4.7168 6.74805L4.7168 4.20898C4.7168 3.91602 4.90234 3.71094 5.20508 3.71094L7.80273 3.71094C8.10547 3.71094 8.30078 3.91602 8.30078 4.20898L8.30078 6.74805C8.30078 7.05078 8.10547 7.25586 7.80273 7.25586L5.20508 7.25586C4.90234 7.25586 4.7168 7.05078 4.7168 6.74805ZM10.6348 6.74805L10.6348 4.20898C10.6348 3.91602 10.8301 3.71094 11.123 3.71094L13.7305 3.71094C14.0234 3.71094 14.2188 3.91602 14.2188 4.20898L14.2188 6.74805C14.2188 7.05078 14.0234 7.25586 13.7305 7.25586L11.123 7.25586C10.8301 7.25586 10.6348 7.05078 10.6348 6.74805ZM4.7168 11.9922L4.7168 9.45312C4.7168 9.16016 4.90234 8.95508 5.20508 8.95508L7.80273 8.95508C8.10547 8.95508 8.30078 9.16016 8.30078 9.45312L8.30078 11.9922C8.30078 12.2949 8.10547 12.5 7.80273 12.5L5.20508 12.5C4.90234 12.5 4.7168 12.2949 4.7168 11.9922ZM10.6348 11.9922L10.6348 9.45312C10.6348 9.16016 10.8301 8.95508 11.123 8.95508L13.7305 8.95508C14.0234 8.95508 14.2188 9.16016 14.2188 9.45312L14.2188 11.9922C14.2188 12.2949 14.0234 12.5 13.7305 12.5L11.123 12.5C10.8301 12.5 10.6348 12.2949 10.6348 11.9922ZM4.7168 17.2363L4.7168 14.6973C4.7168 14.4043 4.90234 14.1992 5.20508 14.1992L7.80273 14.1992C8.10547 14.1992 8.30078 14.4043 8.30078 14.6973L8.30078 17.2363C8.30078 17.5391 8.10547 17.7344 7.80273 17.7344L5.20508 17.7344C4.90234 17.7344 4.7168 17.5391 4.7168 17.2363ZM10.6348 17.2363L10.6348 14.6973C10.6348 14.4043 10.8301 14.1992 11.123 14.1992L13.7305 14.1992C14.0234 14.1992 14.2188 14.4043 14.2188 14.6973L14.2188 17.2363C14.2188 17.5391 14.0234 17.7344 13.7305 17.7344L11.123 17.7344C10.8301 17.7344 10.6348 17.5391 10.6348 17.2363Z" fill="#ffffff" fill-opacity="0.85"/>
 </g>
</svg>
