<?xml version="1.0" encoding="UTF-8"?>
<!--Generator: Apple Native CoreSVG 232.5-->
<!DOCTYPE svg
PUBLIC "-//W3C//DTD SVG 1.1//EN"
       "http://www.w3.org/Graphics/SVG/1.1/DTD/svg11.dtd">
<svg version="1.1" xmlns="http://www.w3.org/2000/svg" xmlns:xlink="http://www.w3.org/1999/xlink" width="34.3555" height="22.9785">
 <g>
  <rect height="22.9785" opacity="0" width="34.3555" x="0" y="0"/>
  <path d="M32.0312 19.2188C32.0312 21.7188 30.752 22.9785 28.2324 22.9785L10.8105 22.9785C8.28125 22.9785 7.01172 21.709 7.01172 19.2188L7.01172 13.8184L8.74023 13.8184L8.74023 19.2969C8.74023 20.5859 9.45312 21.25 10.6836 21.25L28.3691 21.25C29.6191 21.25 30.3027 20.5859 30.3027 19.2969L30.3027 13.8184L32.0312 13.8184ZM32.0312 3.78906L32.0312 9.16992L30.3027 9.16992L30.3027 3.71094C30.3027 2.42188 29.6191 1.75781 28.3691 1.75781L10.6836 1.75781C9.45312 1.75781 8.74023 2.42188 8.74023 3.71094L8.74023 9.16992L7.01172 9.16992L7.01172 3.78906C7.01172 1.29883 8.28125 0.0292969 10.8105 0.0292969L28.2324 0.0292969C30.752 0.0292969 32.0312 1.28906 32.0312 3.78906Z" fill="#ffffff" fill-opacity="0.55"/>
  <path d="M4.96094 21.3281C4.96094 22.1094 4.33594 22.7344 3.55469 22.7344C2.77344 22.7344 2.14844 22.1094 2.14844 21.3281C2.14844 20.5469 2.77344 19.9219 3.55469 19.9219C4.33594 19.9219 4.96094 20.5469 4.96094 21.3281Z" fill="#ffffff" fill-opacity="0.55"/>
  <path d="M4.96094 16.3965C4.96094 17.1777 4.33594 17.8027 3.55469 17.8027C2.77344 17.8027 2.14844 17.1777 2.14844 16.3965C2.14844 15.6152 2.77344 14.9902 3.55469 14.9902C4.33594 14.9902 4.96094 15.6152 4.96094 16.3965Z" fill="#ffffff" fill-opacity="0.55"/>
  <path d="M4.96094 6.5332C4.96094 7.31445 4.33594 7.94922 3.55469 7.94922C2.77344 7.94922 2.14844 7.31445 2.14844 6.5332C2.14844 5.76172 2.77344 5.12695 3.55469 5.12695C4.33594 5.12695 4.96094 5.76172 4.96094 6.5332Z" fill="#ffffff" fill-opacity="0.55"/>
  <path d="M4.96094 1.60156C4.96094 2.38281 4.33594 3.01758 3.55469 3.01758C2.77344 3.01758 2.14844 2.38281 2.14844 1.60156C2.14844 0.830078 2.77344 0.195312 3.55469 0.195312C4.33594 0.195312 4.96094 0.830078 4.96094 1.60156Z" fill="#ffffff" fill-opacity="0.55"/>
  <path d="M3.54492 13.0762C4.14062 13.0762 4.64844 12.7539 4.91211 12.2656L32.0312 12.2656C32.4609 12.2656 32.8027 11.9238 32.8027 11.4941C32.8027 11.0742 32.4609 10.7324 32.0312 10.7324L4.93164 10.7324C4.67773 10.2246 4.14062 9.89258 3.54492 9.89258C2.67578 9.89258 1.95312 10.6055 1.95312 11.4844C1.95312 12.3535 2.67578 13.0762 3.54492 13.0762Z" fill="#ffffff" fill-opacity="0.85"/>
 </g>
</svg>
