<?xml version="1.0" encoding="UTF-8"?>
<!--Generator: Apple Native CoreSVG 232.5-->
<!DOCTYPE svg
PUBLIC "-//W3C//DTD SVG 1.1//EN"
       "http://www.w3.org/Graphics/SVG/1.1/DTD/svg11.dtd">
<svg version="1.1" xmlns="http://www.w3.org/2000/svg" xmlns:xlink="http://www.w3.org/1999/xlink" width="25.8008" height="25.459">
 <g>
  <rect height="25.459" opacity="0" width="25.8008" x="0" y="0"/>
  <path d="M12.7148 25.459C19.6777 25.459 25.4395 19.6973 25.4395 12.7344C25.4395 5.78125 19.668 0.0195312 12.7051 0.0195312C5.75195 0.0195312 0 5.78125 0 12.7344C0 19.6973 5.76172 25.459 12.7148 25.459Z" fill="#ffffff" fill-opacity="0.25"/>
  <path d="M7.97852 19.0137C6.5918 19.0137 5.88867 18.3203 5.88867 16.9531L5.88867 8.52539C5.88867 7.1582 6.5918 6.46484 7.97852 6.46484L17.4609 6.46484C18.8379 6.46484 19.541 7.1582 19.541 8.52539L19.541 16.9531C19.541 18.3203 18.8379 19.0137 17.4609 19.0137ZM7.91992 17.9492L17.5098 17.9492C18.1543 17.9492 18.4668 17.6465 18.4668 16.9922L18.4668 10.6152C18.4668 9.92188 18.0859 9.56055 17.4121 9.56055L8.00781 9.56055C7.33398 9.56055 6.97266 9.92188 6.97266 10.6152L6.97266 16.9922C6.97266 17.6465 7.28516 17.9492 7.91992 17.9492ZM11.3281 12.1191C11.0449 12.1191 10.9766 12.041 10.9766 11.7871L10.9766 11.2891C10.9766 11.0254 11.0449 10.9375 11.3281 10.9375L11.7969 10.9375C12.0801 10.9375 12.1484 11.0254 12.1484 11.2891L12.1484 11.7871C12.1484 12.041 12.0801 12.1191 11.7969 12.1191ZM13.6426 12.1191C13.3594 12.1191 13.2812 12.041 13.2812 11.7871L13.2812 11.2891C13.2812 11.0254 13.3594 10.9375 13.6426 10.9375L14.1113 10.9375C14.3848 10.9375 14.4629 11.0254 14.4629 11.2891L14.4629 11.7871C14.4629 12.041 14.3848 12.1191 14.1113 12.1191ZM15.9473 12.1191C15.6641 12.1191 15.5859 12.041 15.5859 11.7871L15.5859 11.2891C15.5859 11.0254 15.6641 10.9375 15.9473 10.9375L16.416 10.9375C16.6992 10.9375 16.7871 11.0254 16.7871 11.2891L16.7871 11.7871C16.7871 12.041 16.6992 12.1191 16.416 12.1191ZM9.01367 14.3848C8.74023 14.3848 8.65234 14.3262 8.65234 14.0527L8.65234 13.5742C8.65234 13.291 8.74023 13.2227 9.01367 13.2227L9.48242 13.2227C9.76562 13.2227 9.84375 13.291 9.84375 13.5742L9.84375 14.0527C9.84375 14.3262 9.76562 14.3848 9.48242 14.3848ZM11.3281 14.3848C11.0449 14.3848 10.9766 14.3262 10.9766 14.0527L10.9766 13.5742C10.9766 13.291 11.0449 13.2227 11.3281 13.2227L11.7969 13.2227C12.0801 13.2227 12.1484 13.291 12.1484 13.5742L12.1484 14.0527C12.1484 14.3262 12.0801 14.3848 11.7969 14.3848ZM13.6426 14.3848C13.3594 14.3848 13.2812 14.3262 13.2812 14.0527L13.2812 13.5742C13.2812 13.291 13.3594 13.2227 13.6426 13.2227L14.1113 13.2227C14.3848 13.2227 14.4629 13.291 14.4629 13.5742L14.4629 14.0527C14.4629 14.3262 14.3848 14.3848 14.1113 14.3848ZM15.9473 14.3848C15.6641 14.3848 15.5859 14.3262 15.5859 14.0527L15.5859 13.5742C15.5859 13.291 15.6641 13.2227 15.9473 13.2227L16.416 13.2227C16.6992 13.2227 16.7871 13.291 16.7871 13.5742L16.7871 14.0527C16.7871 14.3262 16.6992 14.3848 16.416 14.3848ZM9.01367 16.6699C8.74023 16.6699 8.65234 16.5918 8.65234 16.3184L8.65234 15.8301C8.65234 15.5664 8.74023 15.498 9.01367 15.498L9.48242 15.498C9.76562 15.498 9.84375 15.5664 9.84375 15.8301L9.84375 16.3184C9.84375 16.5918 9.76562 16.6699 9.48242 16.6699ZM11.3281 16.6699C11.0449 16.6699 10.9766 16.5918 10.9766 16.3184L10.9766 15.8301C10.9766 15.5664 11.0449 15.498 11.3281 15.498L11.7969 15.498C12.0801 15.498 12.1484 15.5664 12.1484 15.8301L12.1484 16.3184C12.1484 16.5918 12.0801 16.6699 11.7969 16.6699ZM13.6426 16.6699C13.3594 16.6699 13.2812 16.5918 13.2812 16.3184L13.2812 15.8301C13.2812 15.5664 13.3594 15.498 13.6426 15.498L14.1113 15.498C14.3848 15.498 14.4629 15.5664 14.4629 15.8301L14.4629 16.3184C14.4629 16.5918 14.3848 16.6699 14.1113 16.6699Z" fill="#ffffff" fill-opacity="0.85"/>
 </g>
</svg>
