<svg version="1.1" xmlns="http://www.w3.org/2000/svg" xmlns:xlink="http://www.w3.org/1999/xlink" width="29.9512" height="22.959" viewBox="0 0 29.9512 22.959">
 <g>
  <rect height="22.959" opacity="0" width="29.9512" x="0" y="0"/>
  <path d="M3.79883 22.959L14.0332 22.959L14.0332 21.2305L3.83789 21.2305C2.4707 21.2305 1.72852 20.5078 1.72852 19.1016L1.72852 12.2559L0 12.2559L0 19.1992C0 21.6992 1.2793 22.959 3.79883 22.959ZM15.5859 22.959L25.7812 22.959C28.3105 22.959 29.5898 21.6797 29.5898 19.1992L29.5898 12.2559L27.8516 12.2559L27.8516 19.1016C27.8516 20.5078 27.0898 21.2305 25.752 21.2305L15.5859 21.2305ZM27.8516 10.7031L29.5898 10.7031L29.5898 3.76953C29.5898 1.2793 28.3105 0 25.7812 0L15.5859 0L15.5859 1.72852L25.752 1.72852C27.0898 1.72852 27.8516 2.46094 27.8516 3.85742ZM0 10.7031L1.72852 10.7031L1.72852 3.85742C1.72852 2.46094 2.4707 1.72852 3.83789 1.72852L14.0332 1.72852L14.0332 0L3.79883 0C1.2793 0 0 1.26953 0 3.76953Z" fill="currentColor"/>
  <path d="M14.834 15.6348C17.0996 15.6348 18.9844 13.7598 18.9844 11.4551C18.9844 9.18945 17.0996 7.30469 14.834 7.30469C12.5293 7.30469 10.6543 9.18945 10.6543 11.4551C10.6543 13.7598 12.5293 15.6348 14.834 15.6348Z" fill="currentColor"/>
 </g>
</svg>
