<?xml version="1.0" encoding="UTF-8"?>
<!--Generator: Apple Native CoreSVG 232.5-->
<!DOCTYPE svg
PUBLIC "-//W3C//DTD SVG 1.1//EN"
       "http://www.w3.org/Graphics/SVG/1.1/DTD/svg11.dtd">
<svg version="1.1" xmlns="http://www.w3.org/2000/svg" xmlns:xlink="http://www.w3.org/1999/xlink" width="25.8008" height="25.459">
 <g>
  <rect height="25.459" opacity="0" width="25.8008" x="0" y="0"/>
  <path d="M12.7148 25.4395C19.6777 25.4395 25.4395 19.6777 25.4395 12.7246C25.4395 5.76172 19.668 0 12.7051 0C5.75195 0 0 5.76172 0 12.7246C0 19.6777 5.76172 25.4395 12.7148 25.4395ZM12.7148 23.623C6.67969 23.623 1.82617 18.7598 1.82617 12.7246C1.82617 6.67969 6.66992 1.82617 12.7051 1.82617C18.75 1.82617 23.6133 6.67969 23.6133 12.7246C23.6133 18.7598 18.7598 23.623 12.7148 23.623Z" fill="#ffffff" fill-opacity="0.85"/>
  <path d="M8.87695 6.81641C8.54492 7.54883 8.38867 8.28125 8.38867 9.00391C8.38867 11.4258 10.1074 13.3594 12.7051 13.3594C15.3223 13.3594 17.0312 11.4258 17.0312 9.00391C17.0312 8.28125 16.8848 7.54883 16.5527 6.81641C16.4355 6.52344 16.084 6.48438 15.8594 6.71875L14.3457 8.27148L13.0469 6.5918C12.8711 6.33789 12.5586 6.33789 12.3828 6.5918L11.0742 8.27148L9.55078 6.71875C9.33594 6.48438 8.98438 6.52344 8.87695 6.81641ZM12.2266 20.127C12.2266 20.3906 12.4414 20.5859 12.7051 20.5859C16.0352 20.5859 19.1113 18.5059 20.127 15.5469C20.2637 15.1953 20.1172 14.9316 19.7363 14.9316C16.4258 14.9316 13.916 16.9336 12.9688 19.5801L13.1934 19.7656L13.1934 12.6953L12.2266 12.6953ZM11.5332 17.9199C10.3125 16.1426 8.22266 14.9316 5.67383 14.9316C5.29297 14.9316 5.14648 15.1953 5.27344 15.5469C6.18164 18.1836 8.70117 20.1172 11.6016 20.4883C11.5625 20.3809 11.5332 20.2539 11.5332 20.127Z" fill="#ffffff" fill-opacity="0.85"/>
 </g>
</svg>
