<svg version="1.1" xmlns="http://www.w3.org/2000/svg" xmlns:xlink="http://www.w3.org/1999/xlink" width="25.8008" height="25.459" viewBox="0 0 25.8008 25.459">
 <g>
  <rect height="25.459" opacity="0" width="25.8008" x="0" y="0"/>
  <path d="M12.7148 25.459C19.6777 25.459 25.4395 19.6973 25.4395 12.7344C25.4395 5.78125 19.668 0.0195312 12.7051 0.0195312C5.75195 0.0195312 0 5.78125 0 12.7344C0 19.6973 5.76172 25.459 12.7148 25.459Z" fill="var(--color-tertiary)"/>
  <path d="M6.875 18.5742C5.56641 18.5742 4.89258 17.9102 4.89258 16.6113L4.89258 9.73633C4.89258 8.41797 5.56641 7.76367 6.875 7.76367L8.55469 7.76367C9.07227 7.76367 9.21875 7.66602 9.53125 7.33398L10.0781 6.73828C10.4004 6.36719 10.7227 6.20117 11.377 6.20117L13.9648 6.20117C14.6289 6.20117 14.9414 6.36719 15.2734 6.73828L15.8203 7.33398C16.123 7.68555 16.2891 7.76367 16.7969 7.76367L18.5449 7.76367C19.8535 7.76367 20.5371 8.41797 20.5371 9.73633L20.5371 16.6113C20.5371 17.9102 19.8535 18.5742 18.5449 18.5742ZM12.7246 16.9727C14.8633 16.9727 16.582 15.293 16.582 13.0957C16.582 10.957 14.8633 9.22852 12.7246 9.22852C10.5762 9.22852 8.84766 10.957 8.84766 13.0957C8.84766 15.2637 10.5762 16.9727 12.7246 16.9727ZM12.7148 15.9766C11.1328 15.9766 9.84375 14.6973 9.84375 13.0957C9.84375 11.5039 11.1328 10.2246 12.7148 10.2246C14.2969 10.2246 15.5859 11.5137 15.5859 13.0957C15.5859 14.6973 14.2969 15.9766 12.7148 15.9766ZM17.8809 11.2402C18.3398 11.2402 18.7109 10.8789 18.7012 10.4102C18.7012 9.95117 18.3398 9.58984 17.8809 9.58984C17.4316 9.58984 17.0508 9.95117 17.0508 10.4102C17.0508 10.8789 17.4316 11.2402 17.8809 11.2402Z" fill="var(--color-primary)"/>
 </g>
</svg>
