<?xml version="1.0" encoding="UTF-8"?>
<!--Generator: Apple Native CoreSVG 232.5-->
<!DOCTYPE svg
PUBLIC "-//W3C//DTD SVG 1.1//EN"
       "http://www.w3.org/Graphics/SVG/1.1/DTD/svg11.dtd">
<svg version="1.1" xmlns="http://www.w3.org/2000/svg" xmlns:xlink="http://www.w3.org/1999/xlink" width="44.3945" height="30.3882">
 <g>
  <rect height="30.3882" opacity="0" width="44.3945" x="0" y="0"/>
  <path d="M3.17383 22.5427L5.09766 22.5427C5.01953 22.1912 4.9707 21.8201 4.9707 21.4295C4.9707 18.7634 7.08008 16.6541 9.74609 16.6541C12.4121 16.6541 14.5215 18.7634 14.5215 21.4295C14.5215 21.8201 14.4727 22.1912 14.3945 22.5427L30.332 22.5427C30.2539 22.1912 30.2051 21.8201 30.2051 21.4295C30.2051 18.7634 32.3145 16.6541 34.9805 16.6541C37.6562 16.6541 39.7656 18.7634 39.7656 21.4295C39.7656 21.8201 39.707 22.1912 39.6289 22.5427L41.25 22.5427C42.9883 22.5427 44.0332 21.4587 44.0332 19.6716L44.0332 14.6228C44.0332 12.8943 43.457 11.5173 41.3086 10.8533L38.7109 10.0916C37.1094 8.1775 34.3066 5.37476 29.1309 5.37476L26.2012 5.37476C21.0645 5.37476 19.0527 5.86305 16.0059 7.76734L10.9473 10.9412L5.2832 11.6443C1.95312 12.0447 0 13.9685 0 16.8396L0 19.2908C0 21.4099 1.10352 22.5427 3.17383 22.5427ZM9.74609 24.8474C11.6602 24.8474 13.1641 23.3435 13.1641 21.4295C13.1641 19.5252 11.6504 18.0115 9.74609 18.0115C7.8418 18.0115 6.32812 19.5252 6.32812 21.4295C6.32812 23.3337 7.8418 24.8474 9.74609 24.8474ZM34.9805 24.8474C36.8848 24.8474 38.3984 23.3337 38.3984 21.4295C38.3984 19.5252 36.8848 18.0115 34.9805 18.0115C33.0957 18.0115 31.5625 19.5349 31.5625 21.4295C31.5625 23.3337 33.0859 24.8474 34.9805 24.8474Z" fill="#ffffff" fill-opacity="0.25"/>
  <path d="M19.6289 24.4763C19.0039 24.4763 18.7598 24.9841 19.082 25.5115L21.8164 30.0037C22.1289 30.5212 22.7539 30.5115 23.0664 30.0037L25.8203 25.5115C26.1426 24.9841 25.8691 24.4763 25.2539 24.4763Z" fill="#ffffff" fill-opacity="0.85"/>
 </g>
</svg>
