<?xml version="1.0" encoding="UTF-8"?>
<!--Generator: Apple Native CoreSVG 232.5-->
<!DOCTYPE svg
PUBLIC "-//W3C//DTD SVG 1.1//EN"
       "http://www.w3.org/Graphics/SVG/1.1/DTD/svg11.dtd">
<svg version="1.1" xmlns="http://www.w3.org/2000/svg" xmlns:xlink="http://www.w3.org/1999/xlink" width="44.3945" height="36.5137">
 <g>
  <rect height="36.5137" opacity="0" width="44.3945" x="0" y="0"/>
  <path d="M38.7109 12.959L41.3086 13.7207C43.457 14.375 44.0332 15.7617 44.0332 17.4805L44.0332 22.5391C44.0332 24.3262 42.9883 25.4102 41.25 25.4102L39.0044 25.4102C38.4607 27.0792 36.9103 28.252 35.0293 28.252C33.1561 28.252 31.6072 27.0792 31.0639 25.4102L13.7691 25.4102C13.2232 27.0792 11.6681 28.252 9.79492 28.252C7.9217 28.252 6.36662 27.0792 5.82079 25.4102L3.17383 25.4102C1.10352 25.4102 0 24.2773 0 22.1582L0 19.707C0 16.8262 1.95312 14.9121 5.2832 14.502L10.9473 13.8086L16.0059 10.6348C16.7825 10.1468 17.492 9.75221 18.2031 9.436L18.2031 11.1523C18.2031 11.2288 18.2051 11.304 18.2119 11.3761C17.8 11.5891 17.3763 11.8366 16.9238 12.1191L11.5234 15.4785L5.49805 16.2207C3.07617 16.5137 1.72852 17.7734 1.72852 19.707L1.72852 21.9531C1.72852 23.1055 2.23633 23.6816 3.26172 23.6816L5.6246 23.6816C5.81426 21.5184 7.58274 19.8828 9.79492 19.8828C12.0071 19.8828 13.7756 21.5184 13.9652 23.6816L30.8686 23.6816C31.0573 21.5184 32.8171 19.8828 35.0293 19.8828C37.2507 19.8828 39.011 21.5184 39.1997 23.6816L40.957 23.6816C41.8164 23.6816 42.3047 23.1152 42.3047 22.1484L42.3047 17.4805C42.3047 16.4648 41.9336 15.7617 40.7812 15.4688L37.7246 14.6777C35.568 11.6991 33.0833 10.2564 30.0879 10.0136L30.0879 8.27559C34.6577 8.59451 37.2111 11.1664 38.7109 12.959ZM7.34375 24.0723C7.34375 25.4492 8.41797 26.5234 9.79492 26.5234C11.1719 26.5234 12.2461 25.4492 12.2461 24.0723C12.2461 22.6855 11.1719 21.6113 9.79492 21.6113C8.41797 21.6113 7.34375 22.6855 7.34375 24.0723ZM32.5781 24.0723C32.5781 25.4492 33.6523 26.5234 35.0293 26.5234C36.416 26.5234 37.4902 25.4492 37.4902 24.0723C37.4902 22.6855 36.416 21.6113 35.0293 21.6113C33.6523 21.6113 32.5781 22.6855 32.5781 24.0723Z" fill="#ffffff" fill-opacity="0.85"/>
  <path d="M21.0449 12.5L27.2949 12.5C28.1445 12.5 28.5547 12.0703 28.5547 11.1523L28.5547 6.26953C28.5547 5.3418 28.1445 4.92188 27.2949 4.92188L21.0449 4.92188C20.1855 4.92188 19.7754 5.3418 19.7754 6.26953L19.7754 11.1523C19.7754 12.0703 20.1855 12.5 21.0449 12.5ZM26.0156 5.38086L27.4512 5.37109L27.4512 3.54492C27.4512 2.20703 28.1543 1.43555 29.2969 1.43555C30.4492 1.43555 31.1426 2.20703 31.1426 3.54492L31.1426 4.69727C31.1426 5.08789 31.4648 5.41016 31.8555 5.41016C32.2461 5.41016 32.5684 5.08789 32.5684 4.69727L32.5684 3.65234C32.5684 1.46484 31.25 0 29.2969 0C27.3438 0 26.0156 1.46484 26.0156 3.65234Z" fill="#ffffff" fill-opacity="0.85"/>
 </g>
</svg>
