<svg version="1.1" xmlns="http://www.w3.org/2000/svg" xmlns:xlink="http://www.w3.org/1999/xlink" width="25.8008" height="25.459" viewBox="0 0 25.8008 25.459">
 <g>
  <rect height="25.459" opacity="0" width="25.8008" x="0" y="0"/>
  <path d="M12.7148 25.4395C19.6777 25.4395 25.4395 19.6777 25.4395 12.7246C25.4395 5.76172 19.668 0 12.7051 0C5.75195 0 0 5.76172 0 12.7246C0 19.6777 5.76172 25.4395 12.7148 25.4395ZM12.7148 23.623C6.67969 23.623 1.82617 18.7598 1.82617 12.7246C1.82617 6.67969 6.66992 1.82617 12.7051 1.82617C18.75 1.82617 23.6133 6.67969 23.6133 12.7246C23.6133 18.7598 18.7598 23.623 12.7148 23.623Z" fill="var(--color-secondary)"/>
  <path d="M7.82227 12.7539C7.82227 16.1328 9.48242 18.3398 12.1289 18.6523L12.1289 19.6777C12.1289 20.0293 12.373 20.2441 12.6855 20.2441C13.0078 20.2441 13.2422 20.0293 13.2422 19.6777L13.2422 18.6621C15.166 18.5352 16.5332 17.4707 17.0508 15.957C17.1191 15.7617 17.168 15.5469 17.168 15.3418C17.168 14.9414 16.8945 14.6582 16.4941 14.6582C16.1328 14.6582 15.8984 14.8633 15.7812 15.2441C15.5273 16.377 14.5605 17.1875 13.2422 17.334L13.2422 8.24219C14.4922 8.39844 15.4492 9.27734 15.7129 10.3809C15.8301 10.8008 16.0352 10.957 16.4258 10.957C16.8359 10.957 17.1094 10.6836 17.0898 10.2637C17.0898 10.0684 17.0508 9.86328 16.9824 9.67773C16.4648 8.1543 15.0293 7.05078 13.2422 6.88477L13.2422 5.9375C13.2422 5.5957 13.0078 5.37109 12.6855 5.37109C12.3633 5.37109 12.1289 5.5957 12.1289 5.9375L12.1289 6.9043C9.48242 7.22656 7.82227 9.42383 7.82227 12.7539ZM9.28711 12.7539C9.28711 10.2832 10.3516 8.59375 12.1289 8.26172L12.1289 17.2949C10.3516 16.9629 9.28711 15.2637 9.28711 12.7539Z" fill="var(--color-primary)"/>
 </g>
</svg>
