<svg version="1.1" xmlns="http://www.w3.org/2000/svg" xmlns:xlink="http://www.w3.org/1999/xlink" width="28.2246" height="25.459" viewBox="0 0 28.2246 25.459">
 <g>
  <rect height="25.459" opacity="0" width="28.2246" x="0" y="0"/>
  <path d="M15.1475 25.4395C22.1104 25.4395 27.8623 19.6777 27.8623 12.7246C27.8623 5.76172 22.1104 0 15.1475 0C8.18458 0 2.43263 5.75195 2.43263 12.7148L4.24904 12.7148C4.24904 6.66992 9.10255 1.83594 15.1475 1.83594C21.1826 1.83594 26.0459 6.67969 26.0459 12.7246C26.0459 18.7598 21.1826 23.6426 15.1475 23.623C11.4072 23.6133 8.13576 21.7383 6.18263 18.877C5.86037 18.4375 5.34279 18.3008 4.90333 18.5742C4.47365 18.8281 4.34669 19.4141 4.70802 19.8926C7.08107 23.1836 10.8408 25.4395 15.1475 25.4395ZM0.801772 10.3613C0.000990731 10.3613-0.223619 10.9082 0.235366 11.543L3.0088 15.4883C3.3799 16.0254 3.91701 16.0156 4.27833 15.4883L7.05177 11.5332C7.49123 10.9082 7.27638 10.3613 6.48537 10.3613Z" fill="var(--color-secondary)"/>
  <path d="M10.2647 12.7539C10.2647 16.1328 11.9248 18.3398 14.5713 18.6523L14.5713 19.6777C14.5713 20.0293 14.8154 20.2441 15.1279 20.2441C15.4502 20.2441 15.6944 20.0293 15.6944 19.6777L15.6944 18.6621C17.6084 18.5352 18.9854 17.4707 19.4932 15.957C19.5615 15.7617 19.6104 15.5469 19.6104 15.3418C19.6104 14.9414 19.3369 14.6582 18.9463 14.6582C18.5752 14.6582 18.3408 14.8633 18.2334 15.2441C17.9697 16.377 17.0029 17.1875 15.6944 17.334L15.6944 8.24219C16.9346 8.39844 17.8916 9.27734 18.1651 10.3809C18.2822 10.8008 18.4873 10.957 18.8682 10.957C19.2783 10.957 19.5518 10.6836 19.542 10.2637C19.542 10.0684 19.4932 9.86328 19.4248 9.67773C18.9072 8.1543 17.4717 7.05078 15.6944 6.88477L15.6944 5.9375C15.6944 5.5957 15.4502 5.37109 15.1279 5.37109C14.8154 5.37109 14.5713 5.5957 14.5713 5.9375L14.5713 6.9043C11.9346 7.22656 10.2647 9.42383 10.2647 12.7539ZM11.7295 12.7539C11.7295 10.2832 12.8037 8.59375 14.5713 8.26172L14.5713 17.2949C12.794 16.9629 11.7295 15.2637 11.7295 12.7539Z" fill="var(--color-primary)"/>
 </g>
</svg>
