<svg version="1.1" xmlns="http://www.w3.org/2000/svg" xmlns:xlink="http://www.w3.org/1999/xlink" width="25.8008" height="25.459" viewBox="0 0 25.8008 25.459">
 <g>
  <rect height="25.459" opacity="0" width="25.8008" x="0" y="0"/>
  <path d="M25.4395 12.7246C25.4395 19.6777 19.6777 25.4395 12.7148 25.4395C5.76172 25.4395 0 19.6777 0 12.7246C0 5.76172 5.75195 0 12.7051 0C19.668 0 25.4395 5.76172 25.4395 12.7246ZM12.1191 5.76172L12.1191 6.75781C9.4043 7.08008 7.70508 9.33594 7.70508 12.7539C7.70508 16.2207 9.4043 18.4863 12.1191 18.7988L12.1191 19.8633C12.1191 20.2148 12.373 20.4395 12.6953 20.4395C13.0273 20.4395 13.2617 20.2148 13.2617 19.8633L13.2617 18.8184C15.2344 18.6816 16.6406 17.5879 17.168 16.0449C17.2363 15.8398 17.2852 15.625 17.2852 15.4102C17.2852 15 17.0117 14.707 16.6016 14.707C16.2207 14.707 15.9766 14.9121 15.8691 15.3125C15.5957 16.4648 14.6094 17.2949 13.2617 17.4414L13.2617 8.125C14.541 8.30078 15.5176 9.17969 15.791 10.3125C15.918 10.752 16.123 10.9082 16.5234 10.9082C16.9434 10.9082 17.2266 10.625 17.2168 10.1953C17.2168 10 17.168 9.78516 17.0996 9.58984C16.5625 8.02734 15.0977 6.9043 13.2617 6.73828L13.2617 5.76172C13.2617 5.40039 13.0273 5.17578 12.6953 5.17578C12.3633 5.17578 12.1191 5.40039 12.1191 5.76172ZM12.1191 17.4023C10.3027 17.0605 9.21875 15.3223 9.21875 12.7539C9.21875 10.2246 10.3027 8.49609 12.1191 8.1543Z" fill="currentColor"/>
 </g>
</svg>
