<?xml version="1.0" encoding="UTF-8"?>
<!--Generator: Apple Native CoreSVG 232.5-->
<!DOCTYPE svg
PUBLIC "-//W3C//DTD SVG 1.1//EN"
       "http://www.w3.org/Graphics/SVG/1.1/DTD/svg11.dtd">
<svg version="1.1" xmlns="http://www.w3.org/2000/svg" xmlns:xlink="http://www.w3.org/1999/xlink" width="23.3203" height="22.9785">
 <g>
  <rect height="22.9785" opacity="0" width="23.3203" x="0" y="0"/>
  <path d="M3.79883 22.9785L19.1504 22.9785C21.6797 22.9785 22.959 21.709 22.959 19.2188L22.959 3.78906C22.959 1.29883 21.6797 0.0292969 19.1504 0.0292969L3.79883 0.0292969C1.2793 0.0292969 0 1.28906 0 3.78906L0 19.2188C0 21.7188 1.2793 22.9785 3.79883 22.9785ZM3.83789 21.25C2.4707 21.25 1.72852 20.5273 1.72852 19.1309L1.72852 3.87695C1.72852 2.48047 2.4707 1.75781 3.83789 1.75781L19.1211 1.75781C20.459 1.75781 21.2305 2.48047 21.2305 3.87695L21.2305 19.1309C21.2305 20.5273 20.459 21.25 19.1211 21.25Z" fill="#ffffff" fill-opacity="0.85"/>
  <path d="M7.41211 11.4844C7.41211 14.043 8.78906 15.7227 10.918 15.9863L10.918 16.9531C10.918 17.2754 11.1523 17.5098 11.4746 17.5098C11.7969 17.5098 12.041 17.2754 12.041 16.9531L12.041 15.9961C13.6035 15.8301 14.7363 14.9316 15.0977 13.7891C15.1367 13.6621 15.166 13.5254 15.166 13.3887C15.166 12.998 14.8926 12.7344 14.5117 12.7344C14.1992 12.7344 13.9941 12.9199 13.8672 13.2324C13.5742 14.0039 12.9395 14.5508 12.041 14.6973L12.041 8.27148C12.9297 8.41797 13.5645 8.97461 13.8477 9.72656C13.9941 10.0781 14.1992 10.2344 14.5215 10.2344C14.9023 10.2344 15.1562 9.98047 15.1562 9.58984C15.1562 9.45312 15.127 9.32617 15.0879 9.19922C14.7266 8.05664 13.584 7.14844 12.041 6.98242L12.041 6.02539C12.041 5.70312 11.7969 5.46875 11.4746 5.46875C11.1523 5.46875 10.918 5.70312 10.918 6.02539L10.918 6.99219C8.78906 7.25586 7.41211 8.94531 7.41211 11.4844ZM8.80859 11.4844C8.80859 9.72656 9.61914 8.57422 10.918 8.29102L10.918 14.6777C9.60938 14.4141 8.80859 13.2715 8.80859 11.4844Z" fill="#ffffff" fill-opacity="0.85"/>
 </g>
</svg>
