<?xml version="1.0" encoding="UTF-8"?>
<!--Generator: Apple Native CoreSVG 232.5-->
<!DOCTYPE svg
PUBLIC "-//W3C//DTD SVG 1.1//EN"
       "http://www.w3.org/Graphics/SVG/1.1/DTD/svg11.dtd">
<svg version="1.1" xmlns="http://www.w3.org/2000/svg" xmlns:xlink="http://www.w3.org/1999/xlink" width="23.3203" height="22.9785">
 <g>
  <rect height="22.9785" opacity="0" width="23.3203" x="0" y="0"/>
  <path d="M3.79883 22.9785L19.1504 22.9785C21.6797 22.9785 22.959 21.709 22.959 19.2188L22.959 3.78906C22.959 1.29883 21.6797 0.0292969 19.1504 0.0292969L3.79883 0.0292969C1.2793 0.0292969 0 1.28906 0 3.78906L0 19.2188C0 21.7188 1.2793 22.9785 3.79883 22.9785Z" fill="#ffffff" fill-opacity="0.25"/>
  <path d="M7.30469 11.4844C7.30469 8.87695 8.71094 7.14844 10.8984 6.875L10.8984 5.88867C10.8984 5.54688 11.1426 5.30273 11.4746 5.30273C11.8066 5.30273 12.0508 5.54688 12.0508 5.88867L12.0508 6.86523C13.6328 7.04102 14.8047 7.96875 15.1855 9.14062C15.2148 9.26758 15.2441 9.39453 15.2441 9.54102C15.2441 9.94141 14.9805 10.2051 14.5898 10.2051C14.2578 10.2051 14.043 10.0488 13.8965 9.6875C13.6035 8.91602 12.959 8.34961 12.0508 8.19336L12.0508 14.7754C12.9688 14.6191 13.6133 14.0625 13.916 13.2715C14.043 12.959 14.2578 12.7637 14.5801 12.7637C14.9707 12.7637 15.2637 13.0371 15.2637 13.4375C15.2637 13.584 15.2246 13.7207 15.1953 13.8477C14.8145 15.0195 13.6523 15.9375 12.0508 16.1133L12.0508 17.0898C12.0508 17.4219 11.8066 17.666 11.4746 17.666C11.1426 17.666 10.8984 17.4219 10.8984 17.0898L10.8984 16.1035C8.71094 15.8301 7.30469 14.1113 7.30469 11.4844ZM8.74023 11.4844C8.74023 13.3105 9.56055 14.4824 10.8984 14.7461L10.8984 8.22266C9.57031 8.49609 8.74023 9.6875 8.74023 11.4844Z" fill="#ffffff" fill-opacity="0.85"/>
 </g>
</svg>
