<svg version="1.1" xmlns="http://www.w3.org/2000/svg" xmlns:xlink="http://www.w3.org/1999/xlink" width="25.8008" height="25.459" viewBox="0 0 25.8008 25.459">
 <g>
  <rect height="25.459" opacity="0" width="25.8008" x="0" y="0"/>
  <path d="M12.7148 25.4395C19.6777 25.4395 25.4395 19.6777 25.4395 12.7246C25.4395 5.76172 19.668 0 12.7051 0C5.75195 0 0 5.76172 0 12.7246C0 19.6777 5.76172 25.4395 12.7148 25.4395ZM12.7148 23.623C6.67969 23.623 1.82617 18.7598 1.82617 12.7246C1.82617 6.67969 6.66992 1.82617 12.7051 1.82617C18.75 1.82617 23.6133 6.67969 23.6133 12.7246C23.6133 18.7598 18.7598 23.623 12.7148 23.623Z" fill="var(--color-primary)"/>
  <path d="M6.01562 17.5781C6.01562 18.125 6.36719 18.4863 6.91406 18.4863L19.0332 18.4863C19.3555 18.4863 19.6387 18.2129 19.6387 17.8711C19.6387 17.5391 19.3652 17.2559 19.0332 17.2559L7.30469 17.2559C7.24609 17.2559 7.24609 17.2656 7.24609 17.207L7.24609 7.27539C7.24609 6.94336 6.96289 6.66016 6.63086 6.66016C6.29883 6.66016 6.01562 6.94336 6.01562 7.27539ZM7.01172 8.75977L6.16211 9.63867L8.91602 12.4316C9.18945 12.7148 9.49219 12.8516 9.84375 12.8516C10.1855 12.8516 10.4785 12.7148 10.752 12.4316L13.0957 10.0586C13.1836 9.98047 13.252 9.98047 13.3301 10.0684L15.7715 12.5391L14.8145 13.4961C14.5312 13.7598 14.6875 14.1992 15.0977 14.2969L18.6621 15.1367C19.043 15.2344 19.3652 14.9219 19.2676 14.5508L18.4082 10.9668C18.3008 10.5566 17.8906 10.4102 17.6074 10.6836L16.6406 11.6602L14.1309 9.11133C13.8574 8.82812 13.5547 8.68164 13.2129 8.68164C12.8711 8.68164 12.5781 8.82812 12.2852 9.11133L9.9707 11.4453C9.88281 11.543 9.80469 11.543 9.7168 11.4453Z" fill="var(--color-primary)"/>
 </g>
</svg>
