<?xml version="1.0" encoding="UTF-8"?>
<!--Generator: Apple Native CoreSVG 232.5-->
<!DOCTYPE svg
PUBLIC "-//W3C//DTD SVG 1.1//EN"
       "http://www.w3.org/Graphics/SVG/1.1/DTD/svg11.dtd">
<svg version="1.1" xmlns="http://www.w3.org/2000/svg" xmlns:xlink="http://www.w3.org/1999/xlink" width="25.8008" height="25.459">
 <g>
  <rect height="25.459" opacity="0" width="25.8008" x="0" y="0"/>
  <path d="M12.7148 25.4395C19.6777 25.4395 25.4395 19.6777 25.4395 12.7246C25.4395 5.76172 19.668 0 12.7051 0C5.75195 0 0 5.76172 0 12.7246C0 19.6777 5.76172 25.4395 12.7148 25.4395ZM12.7148 23.623C6.67969 23.623 1.82617 18.7598 1.82617 12.7246C1.82617 6.67969 6.66992 1.82617 12.7051 1.82617C18.75 1.82617 23.6133 6.67969 23.6133 12.7246C23.6133 18.7598 18.7598 23.623 12.7148 23.623Z" fill="#ffffff" fill-opacity="0.55"/>
  <path d="M11.3379 18.7012C11.6992 18.7012 11.9922 18.5352 12.207 18.2031L18.1934 8.81836C18.3203 8.62305 18.4473 8.37891 18.4473 8.14453C18.4473 7.66602 18.0176 7.34375 17.5781 7.34375C17.2949 7.34375 17.0215 7.51953 16.8262 7.83203L11.2988 16.6113L8.54492 13.1641C8.29102 12.832 8.04688 12.7344 7.75391 12.7344C7.28516 12.7344 6.91406 13.1152 6.91406 13.5938C6.91406 13.8281 7.01172 14.0625 7.16797 14.2676L10.4297 18.2031C10.7031 18.5547 10.9766 18.7012 11.3379 18.7012Z" fill="#ffffff" fill-opacity="0.85"/>
 </g>
</svg>
