<?xml version="1.0" encoding="UTF-8"?>
<!--Generator: Apple Native CoreSVG 232.5-->
<!DOCTYPE svg
PUBLIC "-//W3C//DTD SVG 1.1//EN"
       "http://www.w3.org/Graphics/SVG/1.1/DTD/svg11.dtd">
<svg version="1.1" xmlns="http://www.w3.org/2000/svg" xmlns:xlink="http://www.w3.org/1999/xlink" width="21.1328" height="25.3418">
 <g>
  <rect height="25.3418" opacity="0" width="21.1328" x="0" y="0"/>
  <path d="M10.1855 25.3418C10.4102 25.3418 10.7129 25.2441 11.0156 25.0879C18.1152 21.2402 20.3711 19.502 20.3711 15.1367L20.3711 5.63477C20.3711 4.31641 19.8535 3.88672 18.7402 3.42773C17.0703 2.76367 12.8613 1.20117 11.1914 0.634766C10.8594 0.527344 10.5273 0.449219 10.1855 0.449219C9.84375 0.449219 9.51172 0.537109 9.17969 0.634766C7.50977 1.20117 3.30078 2.77344 1.63086 3.42773C0.517578 3.86719 0 4.31641 0 5.63477L0 15.1367C0 19.502 2.37305 21.0449 9.35547 25.0879C9.64844 25.2539 9.96094 25.3418 10.1855 25.3418Z" fill="#ffffff" fill-opacity="0.25"/>
  <path d="M8.79883 18.5059C8.41797 18.5059 8.13477 18.3594 7.85156 17.9883L4.52148 13.9746C4.35547 13.7598 4.25781 13.5059 4.25781 13.2617C4.25781 12.7734 4.63867 12.3828 5.12695 12.3828C5.42969 12.3828 5.67383 12.4902 5.9375 12.832L8.75 16.3477L14.3945 7.36328C14.5898 7.04102 14.873 6.875 15.166 6.875C15.6348 6.875 16.0742 7.20703 16.0742 7.69531C16.0742 7.92969 15.9375 8.18359 15.8105 8.39844L9.6875 17.9883C9.46289 18.3398 9.16016 18.5059 8.79883 18.5059Z" fill="#ffffff" fill-opacity="0.85"/>
 </g>
</svg>
