<?xml version="1.0" encoding="UTF-8"?>
<!--Generator: Apple Native CoreSVG 232.5-->
<!DOCTYPE svg
PUBLIC "-//W3C//DTD SVG 1.1//EN"
       "http://www.w3.org/Graphics/SVG/1.1/DTD/svg11.dtd">
<svg version="1.1" xmlns="http://www.w3.org/2000/svg" xmlns:xlink="http://www.w3.org/1999/xlink" width="23.3203" height="22.9785">
 <g>
  <rect height="22.9785" opacity="0" width="23.3203" x="0" y="0"/>
  <path d="M22.959 3.78906L22.959 19.2188C22.959 21.709 21.6797 22.9785 19.1504 22.9785L3.79883 22.9785C1.2793 22.9785 0 21.7188 0 19.2188L0 3.78906C0 1.28906 1.2793 0.0292969 3.79883 0.0292969L19.1504 0.0292969C21.6797 0.0292969 22.959 1.29883 22.959 3.78906ZM12.7832 5.3125L7.40234 10.4297C6.78711 11.0059 6.78711 11.9727 7.40234 12.5391L12.7832 17.6562C13.0859 17.959 13.6426 17.9688 13.9355 17.6855C14.2676 17.3633 14.2578 16.8359 13.9355 16.5234L8.63281 11.4746L13.9355 6.43555C14.2676 6.13281 14.2578 5.5957 13.9258 5.2832C13.6133 4.98047 13.1152 4.99023 12.7832 5.3125Z" fill="#ffffff" fill-opacity="0.85"/>
 </g>
</svg>
