<svg version="1.1" xmlns="http://www.w3.org/2000/svg" xmlns:xlink="http://www.w3.org/1999/xlink" width="23.3203" height="22.9785" viewBox="0 0 23.3203 22.9785">
 <g>
  <rect height="22.9785" opacity="0" width="23.3203" x="0" y="0"/>
  <path d="M3.79883 22.9785L19.1504 22.9785C21.6797 22.9785 22.959 21.709 22.959 19.2188L22.959 3.78906C22.959 1.29883 21.6797 0.0292969 19.1504 0.0292969L3.79883 0.0292969C1.2793 0.0292969 0 1.28906 0 3.78906L0 19.2188C0 21.7188 1.2793 22.9785 3.79883 22.9785ZM3.83789 21.25C2.4707 21.25 1.72852 20.5273 1.72852 19.1309L1.72852 3.87695C1.72852 2.48047 2.4707 1.75781 3.83789 1.75781L19.1211 1.75781C20.459 1.75781 21.2305 2.48047 21.2305 3.87695L21.2305 19.1309C21.2305 20.5273 20.459 21.25 19.1211 21.25Z" fill="var(--color-primary)"/>
  <path d="M8.67188 17.6855C8.96484 17.9688 9.52148 17.959 9.83398 17.6562L15.2051 12.5391C15.8203 11.9727 15.8203 11.0059 15.2051 10.4297L9.83398 5.3125C9.49219 4.99023 8.99414 4.98047 8.68164 5.2832C8.34961 5.5957 8.33984 6.13281 8.67188 6.43555L13.9746 11.4746L8.67188 16.5234C8.34961 16.8359 8.34961 17.3633 8.67188 17.6855Z" fill="var(--color-primary)"/>
 </g>
</svg>
