<svg version="1.1" xmlns="http://www.w3.org/2000/svg" xmlns:xlink="http://www.w3.org/1999/xlink" width="23.3203" height="22.9785" viewBox="0 0 23.3203 22.9785">
 <g>
  <rect height="22.9785" opacity="0" width="23.3203" x="0" y="0"/>
  <path d="M22.959 3.78906L22.959 19.2188C22.959 21.709 21.6797 22.9785 19.1504 22.9785L3.79883 22.9785C1.2793 22.9785 0 21.7188 0 19.2188L0 3.78906C0 1.28906 1.2793 0.0292969 3.79883 0.0292969L19.1504 0.0292969C21.6797 0.0292969 22.959 1.29883 22.959 3.78906ZM5.12695 8.95508C4.81445 9.28711 4.82422 9.79492 5.16602 10.1562L10.3906 15.6543C11.0938 16.3965 11.9043 16.3867 12.5977 15.6543L17.832 10.1562C18.1738 9.79492 18.1934 9.27734 17.8711 8.95508C17.5195 8.61328 16.9824 8.59375 16.6602 8.94531L11.4941 14.3652L6.33789 8.94531C6.01562 8.59375 5.46875 8.60352 5.12695 8.95508Z" fill="var(--color-primary)"/>
 </g>
</svg>
