<svg version="1.1" xmlns="http://www.w3.org/2000/svg" xmlns:xlink="http://www.w3.org/1999/xlink" width="26.875" height="24.6387" viewBox="0 0 26.875 24.6387">
 <g>
  <rect height="24.6387" opacity="0" width="26.875" x="0" y="0"/>
  <path d="M8.70117 8.27148C10.9473 8.27148 12.832 6.39648 12.832 4.14062C12.832 1.88477 10.9473 0 8.70117 0C6.44531 0 4.56055 1.88477 4.56055 4.14062C4.56055 6.39648 6.44531 8.27148 8.70117 8.27148ZM8.70117 6.5332C7.39258 6.5332 6.28906 5.43945 6.28906 4.14062C6.28906 2.83203 7.39258 1.73828 8.70117 1.73828C10.0098 1.73828 11.1035 2.83203 11.1035 4.14062C11.1035 5.43945 10.0098 6.5332 8.70117 6.5332ZM17.8125 8.27148C20.0684 8.27148 21.9531 6.39648 21.9531 4.14062C21.9531 1.88477 20.0684 0 17.8125 0C15.5664 0 13.6816 1.88477 13.6816 4.14062C13.6816 6.39648 15.5664 8.27148 17.8125 8.27148ZM17.8125 6.5332C16.5039 6.5332 15.4102 5.43945 15.4102 4.14062C15.4102 2.83203 16.5039 1.73828 17.8125 1.73828C19.1211 1.73828 20.2246 2.83203 20.2246 4.14062C20.2246 5.43945 19.1211 6.5332 17.8125 6.5332ZM4.14062 16.4453C6.39648 16.4453 8.27148 14.5703 8.27148 12.3145C8.27148 10.0586 6.39648 8.17383 4.14062 8.17383C1.88477 8.17383 0 10.0586 0 12.3145C0 14.5703 1.88477 16.4453 4.14062 16.4453ZM4.14062 14.7168C2.83203 14.7168 1.72852 13.623 1.72852 12.3145C1.72852 11.0059 2.83203 9.90234 4.14062 9.90234C5.44922 9.90234 6.54297 11.0059 6.54297 12.3145C6.54297 13.623 5.44922 14.7168 4.14062 14.7168ZM22.373 16.4453C24.6289 16.4453 26.5137 14.5703 26.5137 12.3145C26.5137 10.0586 24.6289 8.17383 22.373 8.17383C20.1172 8.17383 18.2422 10.0586 18.2422 12.3145C18.2422 14.5703 20.1172 16.4453 22.373 16.4453ZM22.373 14.7168C21.0645 14.7168 19.9707 13.623 19.9707 12.3145C19.9707 11.0059 21.0645 9.90234 22.373 9.90234C23.6816 9.90234 24.7852 11.0059 24.7852 12.3145C24.7852 13.623 23.6816 14.7168 22.373 14.7168ZM8.70117 24.6191C10.9473 24.6191 12.832 22.7344 12.832 20.4785C12.832 18.2227 10.9473 16.3574 8.70117 16.3574C6.44531 16.3574 4.56055 18.2227 4.56055 20.4785C4.56055 22.7344 6.44531 24.6191 8.70117 24.6191ZM8.70117 22.8906C7.39258 22.8906 6.28906 21.7871 6.28906 20.4785C6.28906 19.1797 7.39258 18.0859 8.70117 18.0859C10.0098 18.0859 11.1035 19.1797 11.1035 20.4785C11.1035 21.7871 10.0098 22.8906 8.70117 22.8906ZM17.8125 24.6191C20.0684 24.6191 21.9531 22.7344 21.9531 20.4785C21.9531 18.2227 20.0684 16.3574 17.8125 16.3574C15.5664 16.3574 13.6816 18.2227 13.6816 20.4785C13.6816 22.7344 15.5664 24.6191 17.8125 24.6191ZM17.8125 22.8906C16.5039 22.8906 15.4102 21.7871 15.4102 20.4785C15.4102 19.1797 16.5039 18.0859 17.8125 18.0859C19.1211 18.0859 20.2246 19.1797 20.2246 20.4785C20.2246 21.7871 19.1211 22.8906 17.8125 22.8906Z" fill="currentColor"/>
 </g>
</svg>
