<svg version="1.1" xmlns="http://www.w3.org/2000/svg" xmlns:xlink="http://www.w3.org/1999/xlink" width="23.3203" height="22.9785" viewBox="0 0 23.3203 22.9785">
 <g>
  <rect height="22.9785" opacity="0" width="23.3203" x="0" y="0"/>
  <path d="M22.959 3.78906L22.959 19.2188C22.959 21.709 21.6797 22.9785 19.1504 22.9785L3.79883 22.9785C1.2793 22.9785 0 21.7188 0 19.2188L0 3.78906C0 1.28906 1.2793 0.0292969 3.79883 0.0292969L19.1504 0.0292969C21.6797 0.0292969 22.959 1.29883 22.959 3.78906ZM5.21484 11.4941C5.21484 14.9414 8.125 17.8516 11.5625 17.8516C15.0293 17.8516 17.9199 14.9512 17.9199 11.4941C17.9199 8.04688 15.0098 5.13672 11.5625 5.13672C8.10547 5.13672 5.21484 8.03711 5.21484 11.4941Z" fill="var(--color-primary)"/>
 </g>
</svg>
