<svg version="1.1" xmlns="http://www.w3.org/2000/svg" xmlns:xlink="http://www.w3.org/1999/xlink" width="32.6758" height="14.3848" viewBox="0 0 32.6758 14.3848">
 <g>
  <rect height="14.3848" opacity="0" width="32.6758" x="0" y="0"/>
  <path d="M25.1465 14.375C29.0723 14.375 32.3145 11.1328 32.3145 7.1875C32.3145 3.25195 29.0723 0 25.1465 0C21.1719 0 17.9492 3.25195 17.9492 7.1875C17.9492 11.1328 21.1719 14.375 25.1465 14.375ZM25.1465 12.6465C22.1387 12.6465 19.6875 10.1953 19.6875 7.1875C19.6875 4.17969 22.1387 1.72852 25.1465 1.72852C28.1152 1.72852 30.5859 4.20898 30.5859 7.1875C30.5859 10.1758 28.1152 12.6465 25.1465 12.6465Z" fill="currentColor"/>
  <path d="M7.1875 14.375C11.123 14.375 14.3652 11.1328 14.3652 7.1875C14.3652 3.25195 11.123 0 7.1875 0C3.22266 0 0 3.25195 0 7.1875C0 11.1328 3.22266 14.375 7.1875 14.375ZM7.1875 12.6465C4.18945 12.6465 1.72852 10.1953 1.72852 7.1875C1.72852 4.17969 4.18945 1.72852 7.1875 1.72852C10.166 1.72852 12.6367 4.20898 12.6367 7.1875C12.6367 10.1758 10.166 12.6465 7.1875 12.6465Z" fill="currentColor"/>
 </g>
</svg>
