<?xml version="1.0" encoding="UTF-8"?>
<!--Generator: Apple Native CoreSVG 232.5-->
<!DOCTYPE svg
PUBLIC "-//W3C//DTD SVG 1.1//EN"
       "http://www.w3.org/Graphics/SVG/1.1/DTD/svg11.dtd">
<svg version="1.1" xmlns="http://www.w3.org/2000/svg" xmlns:xlink="http://www.w3.org/1999/xlink" width="30.6563" height="25.459">
 <g>
  <rect height="25.459" opacity="0" width="30.6563" x="0" y="0"/>
  <path d="M15.1475 0C8.98537 0 3.77052 4.50195 2.65724 10.3613L0.801772 10.3613C0.000990731 10.3613-0.223619 10.9082 0.235366 11.543L3.0088 15.4883C3.3799 16.0254 3.91701 16.0156 4.27833 15.4883L7.05177 11.5332C7.49123 10.9082 7.27638 10.3613 6.48537 10.3613L4.51271 10.3613C5.5674 5.46875 9.9131 1.83594 15.1475 1.83594C18.8877 1.8457 22.1592 3.71094 24.1123 6.5625C24.4346 7.00195 24.9424 7.13867 25.3916 6.875C25.8213 6.61133 25.9483 6.02539 25.5869 5.54688C23.2139 2.26562 19.4444 0 15.1475 0ZM15.1475 25.4395C21.3096 25.4395 26.5244 20.9375 27.6377 15.0781L29.4932 15.0781C30.294 15.0781 30.5088 14.5312 30.0596 13.8965L27.2861 9.95117C26.9151 9.42383 26.3779 9.43359 26.0166 9.95117L23.2432 13.9062C22.794 14.5312 23.0186 15.0781 23.8096 15.0781L25.792 15.0781C24.7178 19.9707 20.3819 23.623 15.1475 23.623C11.4072 23.6133 8.13576 21.7383 6.18263 18.877C5.86037 18.4375 5.34279 18.3008 4.90333 18.5742C4.47365 18.8281 4.34669 19.4141 4.70802 19.8926C7.08107 23.1836 10.8408 25.4395 15.1475 25.4395Z" fill="#ffffff" fill-opacity="0.55"/>
  <path d="M14.6592 5.43945C14.1807 5.43945 13.7998 5.82031 13.7998 6.28906L13.7998 13.252C13.7998 13.5254 13.8877 13.75 14.0733 13.9941L17.2276 18.1543C17.5694 18.6133 18.0772 18.6816 18.5069 18.3789C18.9072 18.0957 18.9463 17.5977 18.624 17.168L14.5615 11.7285L15.5088 14.6387L15.5088 6.28906C15.5088 5.82031 15.1279 5.43945 14.6592 5.43945Z" fill="#ffffff" fill-opacity="0.85"/>
 </g>
</svg>
