<?xml version="1.0" encoding="UTF-8"?>
<!--Generator: Apple Native CoreSVG 232.5-->
<!DOCTYPE svg
PUBLIC "-//W3C//DTD SVG 1.1//EN"
       "http://www.w3.org/Graphics/SVG/1.1/DTD/svg11.dtd">
<svg version="1.1" xmlns="http://www.w3.org/2000/svg" xmlns:xlink="http://www.w3.org/1999/xlink" width="25.8008" height="25.459">
 <g>
  <rect height="25.459" opacity="0" width="25.8008" x="0" y="0"/>
  <path d="M12.7148 25.4395C19.6777 25.4395 25.4395 19.6777 25.4395 12.7246C25.4395 5.76172 19.668 0 12.7051 0C5.75195 0 0 5.76172 0 12.7246C0 19.6777 5.76172 25.4395 12.7148 25.4395ZM12.7148 23.623C6.67969 23.623 1.82617 18.7598 1.82617 12.7246C1.82617 6.67969 6.66992 1.82617 12.7051 1.82617C18.75 1.82617 23.6133 6.67969 23.6133 12.7246C23.6133 18.7598 18.7598 23.623 12.7148 23.623Z" fill="#ffffff" fill-opacity="0.55"/>
  <path d="M8.08594 17.3145L16.6309 17.3145C18.8086 17.3145 20.498 15.6738 20.498 13.584C20.498 11.4453 18.75 9.86328 16.4258 9.88281C15.5762 8.13477 13.9941 7.07031 12.0215 7.07031C9.48242 7.07031 7.38281 9.07227 7.16797 11.6309C5.86914 11.9922 4.94141 13.0762 4.94141 14.4629C4.94141 16.1133 6.17188 17.3145 8.08594 17.3145Z" fill="#ffffff" fill-opacity="0.85"/>
 </g>
</svg>
