<?xml version="1.0" encoding="UTF-8"?>
<!--Generator: Apple Native CoreSVG 232.5-->
<!DOCTYPE svg
PUBLIC "-//W3C//DTD SVG 1.1//EN"
       "http://www.w3.org/Graphics/SVG/1.1/DTD/svg11.dtd">
<svg version="1.1" xmlns="http://www.w3.org/2000/svg" xmlns:xlink="http://www.w3.org/1999/xlink" width="23.3203" height="22.9785">
 <g>
  <rect height="22.9785" opacity="0" width="23.3203" x="0" y="0"/>
  <path d="M3.79883 22.9785L19.1504 22.9785C21.6797 22.9785 22.959 21.709 22.959 19.2188L22.959 3.78906C22.959 1.29883 21.6797 0.0292969 19.1504 0.0292969L3.79883 0.0292969C1.2793 0.0292969 0 1.28906 0 3.78906L0 19.2188C0 21.7188 1.2793 22.9785 3.79883 22.9785Z" fill="#ffffff" fill-opacity="0.25"/>
  <path d="M6.36719 11.5918C6.36719 8.04688 8.20312 5.74219 11.1133 5.57617L11.3672 4.60938C11.4453 4.29688 11.6699 4.16016 11.9531 4.16016C12.3047 4.16016 12.5293 4.38477 12.5293 4.72656C12.5293 4.81445 12.5 4.90234 12.4707 4.99023L12.3145 5.625C12.7344 5.71289 13.1445 5.83008 13.5059 6.00586L13.877 4.60938C13.9648 4.28711 14.1797 4.16016 14.4629 4.16016C14.8047 4.16016 15.0293 4.38477 15.0293 4.72656C15.0293 4.81445 15.0098 4.89258 14.9902 4.99023L14.5508 6.66016C15.0977 7.13867 15.5078 7.73438 15.752 8.42773C15.8203 8.63281 15.8691 8.82812 15.8691 9.04297C15.8691 9.47266 15.5957 9.75586 15.1758 9.75586C14.7852 9.75586 14.6094 9.49219 14.4922 9.18945C14.4336 8.87695 14.2773 8.60352 14.1016 8.4082L12.0508 16.25C13.3203 16.1035 14.248 15.2734 14.5215 14.1406C14.6289 13.7891 14.8535 13.5254 15.2441 13.5254C15.6738 13.5254 15.9473 13.8281 15.9473 14.248C15.9473 14.4531 15.8887 14.6875 15.8203 14.8828C15.2832 16.5137 13.7695 17.5879 11.6992 17.666L11.3965 18.8281C11.3184 19.1406 11.0938 19.2773 10.8008 19.2773C10.4688 19.2773 10.2539 19.0625 10.2539 18.7012C10.2539 18.6133 10.2637 18.5449 10.293 18.457L10.5078 17.5977C10.0781 17.5293 9.66797 17.4023 9.30664 17.2168L8.88672 18.8281C8.80859 19.1406 8.59375 19.2773 8.30078 19.2773C7.97852 19.2773 7.73438 19.043 7.73438 18.7012C7.73438 18.6133 7.74414 18.5352 7.77344 18.4473L8.26172 16.5723C7.05078 15.5371 6.36719 13.7988 6.36719 11.5918ZM7.87109 11.5918C7.87109 12.9102 8.17383 14.0039 8.7207 14.7949L10.7422 7.03125C8.94531 7.37305 7.87109 9.0918 7.87109 11.5918ZM9.6582 15.8105C10.0098 16.0449 10.3906 16.2012 10.8496 16.2695L13.1543 7.41211C12.8027 7.1875 12.4023 7.03125 11.9727 6.97266Z" fill="#ffffff" fill-opacity="0.85"/>
 </g>
</svg>
