<?xml version="1.0" encoding="UTF-8"?>
<!--Generator: Apple Native CoreSVG 232.5-->
<!DOCTYPE svg
PUBLIC "-//W3C//DTD SVG 1.1//EN"
       "http://www.w3.org/Graphics/SVG/1.1/DTD/svg11.dtd">
<svg version="1.1" xmlns="http://www.w3.org/2000/svg" xmlns:xlink="http://www.w3.org/1999/xlink" width="25.8008" height="25.459">
 <g>
  <rect height="25.459" opacity="0" width="25.8008" x="0" y="0"/>
  <path d="M12.7148 25.4395C19.6777 25.4395 25.4395 19.6777 25.4395 12.7246C25.4395 5.76172 19.668 0 12.7051 0C5.75195 0 0 5.76172 0 12.7246C0 19.6777 5.76172 25.4395 12.7148 25.4395ZM12.7148 23.623C6.67969 23.623 1.82617 18.7598 1.82617 12.7246C1.82617 6.67969 6.66992 1.82617 12.7051 1.82617C18.75 1.82617 23.6133 6.67969 23.6133 12.7246C23.6133 18.7598 18.7598 23.623 12.7148 23.623Z" fill="#ffffff" fill-opacity="0.55"/>
  <path d="M7.40234 17.8809L18.0078 17.8809C19.2285 17.8809 19.8535 17.2656 19.8535 16.0547L19.8535 11.3184L5.56641 11.3184L5.56641 16.0547C5.56641 17.2656 6.18164 17.8809 7.40234 17.8809ZM8.02734 16.0254C7.67578 16.0254 7.43164 15.7812 7.43164 15.4395L7.43164 14.3066C7.43164 13.9551 7.67578 13.7207 8.02734 13.7207L9.53125 13.7207C9.89258 13.7207 10.127 13.9551 10.127 14.3066L10.127 15.4395C10.127 15.7812 9.89258 16.0254 9.53125 16.0254ZM5.56641 9.94141L19.8535 9.94141L19.8535 9.4043C19.8535 8.20312 19.2285 7.57812 18.0078 7.57812L7.40234 7.57812C6.18164 7.57812 5.56641 8.19336 5.56641 9.4043Z" fill="#ffffff" fill-opacity="0.85"/>
 </g>
</svg>
