<?xml version="1.0" encoding="UTF-8"?>
<!--Generator: Apple Native CoreSVG 232.5-->
<!DOCTYPE svg
PUBLIC "-//W3C//DTD SVG 1.1//EN"
       "http://www.w3.org/Graphics/SVG/1.1/DTD/svg11.dtd">
<svg version="1.1" xmlns="http://www.w3.org/2000/svg" xmlns:xlink="http://www.w3.org/1999/xlink" width="25.8008" height="25.459">
 <g>
  <rect height="25.459" opacity="0" width="25.8008" x="0" y="0"/>
  <path d="M12.7148 25.4395C19.6777 25.4395 25.4395 19.6777 25.4395 12.7246C25.4395 5.76172 19.668 0 12.7051 0C5.75195 0 0 5.76172 0 12.7246C0 19.6777 5.76172 25.4395 12.7148 25.4395Z" fill="#ffffff" fill-opacity="0.25"/>
  <path d="M9.26758 18.4766C8.70117 18.4766 8.39844 18.0762 8.39844 17.4707L8.39844 7.79297C8.39844 7.19727 8.70117 6.79688 9.26758 6.79688L12.5977 6.79688C16.1914 6.79688 18.2227 8.89648 18.2227 12.5977C18.2227 16.3867 16.1621 18.4766 12.5977 18.4766ZM10.1367 17.0703L12.3926 17.0703C14.9707 17.0703 16.416 15.5762 16.416 12.627C16.416 9.77539 14.9512 8.19336 12.3926 8.19336L10.1367 8.19336Z" fill="#ffffff" fill-opacity="0.85"/>
 </g>
</svg>
