<svg version="1.1" xmlns="http://www.w3.org/2000/svg" xmlns:xlink="http://www.w3.org/1999/xlink" width="23.3203" height="22.9785" viewBox="0 0 23.3203 22.9785">
 <g>
  <rect height="22.9785" opacity="0" width="23.3203" x="0" y="0"/>
  <path d="M22.959 3.78906L22.959 19.2188C22.959 21.709 21.6797 22.9785 19.1504 22.9785L3.79883 22.9785C1.2793 22.9785 0 21.7188 0 19.2188L0 3.78906C0 1.28906 1.2793 0.0292969 3.79883 0.0292969L19.1504 0.0292969C21.6797 0.0292969 22.959 1.29883 22.959 3.78906ZM8.03711 5.55664C7.4707 5.55664 7.16797 5.95703 7.16797 6.55273L7.16797 16.2305C7.16797 16.8359 7.4707 17.2363 8.03711 17.2363L11.3672 17.2363C14.9316 17.2363 16.9922 15.1465 16.9922 11.3574C16.9922 7.65625 14.9609 5.55664 11.3672 5.55664ZM15.1855 11.3867C15.1855 14.3359 13.7305 15.8301 11.1621 15.8301L8.90625 15.8301L8.90625 6.95312L11.1621 6.95312C13.7207 6.95312 15.1855 8.53516 15.1855 11.3867Z" fill="var(--color-primary)"/>
 </g>
</svg>
