<svg version="1.1" xmlns="http://www.w3.org/2000/svg" xmlns:xlink="http://www.w3.org/1999/xlink" width="23.3203" height="22.9785" viewBox="0 0 23.3203 22.9785">
 <g>
  <rect height="22.9785" opacity="0" width="23.3203" x="0" y="0"/>
  <path d="M3.79883 22.9785L19.1504 22.9785C21.6797 22.9785 22.959 21.709 22.959 19.2188L22.959 3.78906C22.959 1.29883 21.6797 0.0292969 19.1504 0.0292969L3.79883 0.0292969C1.2793 0.0292969 0 1.28906 0 3.78906L0 19.2188C0 21.7188 1.2793 22.9785 3.79883 22.9785ZM3.83789 21.25C2.4707 21.25 1.72852 20.5273 1.72852 19.1309L1.72852 3.87695C1.72852 2.48047 2.4707 1.75781 3.83789 1.75781L19.1211 1.75781C20.459 1.75781 21.2305 2.48047 21.2305 3.87695L21.2305 19.1309C21.2305 20.5273 20.459 21.25 19.1211 21.25Z" fill="currentColor"/>
  <path d="M8.11523 17.0996L11.3672 17.0996C14.8438 17.0996 16.8457 15.0586 16.8457 11.3574C16.8457 7.74414 14.8633 5.69336 11.3672 5.69336L8.11523 5.69336C7.56836 5.69336 7.27539 6.08398 7.27539 6.66016L7.27539 16.123C7.27539 16.6992 7.56836 17.0996 8.11523 17.0996ZM8.95508 15.7324L8.95508 7.06055L11.1621 7.06055C13.6621 7.06055 15.0977 8.59375 15.0977 11.3867C15.0977 14.2676 13.6719 15.7324 11.1621 15.7324Z" fill="currentColor"/>
 </g>
</svg>
