<?xml version="1.0" encoding="UTF-8"?>
<!--Generator: Apple Native CoreSVG 232.5-->
<!DOCTYPE svg
PUBLIC "-//W3C//DTD SVG 1.1//EN"
       "http://www.w3.org/Graphics/SVG/1.1/DTD/svg11.dtd">
<svg version="1.1" xmlns="http://www.w3.org/2000/svg" xmlns:xlink="http://www.w3.org/1999/xlink" width="13.125" height="23.4277">
 <g>
  <rect height="23.4277" opacity="0" width="13.125" x="0" y="0"/>
  <path d="M0.820312 23.3691C1.2793 23.3691 1.63086 22.998 1.63086 22.5391L1.63086 0.820312C1.63086 0.361328 1.2793 0 0.820312 0C0.351562 0 0 0.361328 0 0.820312L0 22.5391C0 22.998 0.351562 23.3691 0.820312 23.3691Z" fill="#ffffff" fill-opacity="0.85"/>
  <path d="M10.8789 15.3711C11.7676 15.9668 12.7637 15.625 12.7637 14.5605L12.7637 8.84766C12.7637 7.73438 11.8066 7.39258 10.8789 8.01758L6.89453 10.7324C6.21094 11.2012 6.18164 12.2266 6.89453 12.7051Z" fill="#ffffff" fill-opacity="0.85"/>
 </g>
</svg>
