<?xml version="1.0" encoding="UTF-8"?>
<!--Generator: Apple Native CoreSVG 232.5-->
<!DOCTYPE svg
PUBLIC "-//W3C//DTD SVG 1.1//EN"
       "http://www.w3.org/Graphics/SVG/1.1/DTD/svg11.dtd">
<svg version="1.1" xmlns="http://www.w3.org/2000/svg" xmlns:xlink="http://www.w3.org/1999/xlink" width="26.8555" height="34.2871">
 <g>
  <rect height="34.2871" opacity="0" width="26.8555" x="0" y="0"/>
  <path d="M15.7617 6.37695C15.3125 7.35352 14.6387 8.82812 14.6387 10.4785C14.6387 14.0039 17.1777 16.4551 20.752 16.4551C21.358 16.4551 21.9344 16.3842 22.4707 16.244L22.4707 25.7324C22.4707 27.7217 21.5858 28.9283 19.8926 29.2692L19.8926 30.625C19.8926 31.1328 19.541 31.4844 19.0332 31.4844C18.5156 31.4844 18.1641 31.1328 18.1641 30.625L18.1641 29.375L8.33008 29.375L8.33008 30.625C8.33008 31.1328 7.96875 31.4844 7.46094 31.4844C6.94336 31.4844 6.5918 31.1328 6.5918 30.625L6.5918 29.2675C4.9022 28.924 4.01367 27.7182 4.01367 25.7324L4.01367 6.41602C4.01367 4.0332 5.3125 2.77344 7.69531 2.77344L17.7355 2.77344C17.0017 3.97953 16.2834 5.26087 15.7617 6.37695ZM7.75391 24.6191C7.33398 24.6191 7.00195 24.9512 7.00195 25.3711C7.00195 25.791 7.33398 26.123 7.75391 26.123L11.582 26.123C12.002 26.123 12.334 25.791 12.334 25.3711C12.334 24.9512 12.002 24.6191 11.582 24.6191ZM14.9121 24.6191C14.4824 24.6191 14.1602 24.9512 14.1602 25.3711C14.1602 25.791 14.4824 26.123 14.9121 26.123L18.7402 26.123C19.1602 26.123 19.4922 25.791 19.4922 25.3711C19.4922 24.9512 19.1602 24.6191 18.7402 24.6191ZM7.75391 21.4453C7.33398 21.4453 7.00195 21.7773 7.00195 22.1973C7.00195 22.6172 7.33398 22.9492 7.75391 22.9492L11.582 22.9492C12.002 22.9492 12.334 22.6172 12.334 22.1973C12.334 21.7773 12.002 21.4453 11.582 21.4453ZM14.9121 21.4453C14.4824 21.4453 14.1602 21.7773 14.1602 22.1973C14.1602 22.6172 14.4824 22.9492 14.9121 22.9492L18.7402 22.9492C19.1602 22.9492 19.4922 22.6172 19.4922 22.1973C19.4922 21.7773 19.1602 21.4453 18.7402 21.4453ZM7.75391 18.2812C7.33398 18.2812 7.00195 18.6035 7.00195 19.0234C7.00195 19.4531 7.33398 19.7754 7.75391 19.7754L11.582 19.7754C12.002 19.7754 12.334 19.4531 12.334 19.0234C12.334 18.6035 12.002 18.2812 11.582 18.2812ZM14.9121 18.2812C14.4824 18.2812 14.1602 18.6035 14.1602 19.0234C14.1602 19.4531 14.4824 19.7754 14.9121 19.7754L18.7402 19.7754C19.1602 19.7754 19.4922 19.4531 19.4922 19.0234C19.4922 18.6035 19.1602 18.2812 18.7402 18.2812ZM7.12891 7.64648C7.12891 8.62305 7.91992 9.42383 8.88672 9.42383C9.85352 9.42383 10.6445 8.62305 10.6445 7.64648C10.6445 6.69922 9.85352 5.89844 8.88672 5.89844C7.91992 5.89844 7.12891 6.69922 7.12891 7.64648Z" fill="#ffffff" fill-opacity="0.55"/>
  <path d="M20.752 14.8926C23.4766 14.8926 25.3027 13.125 25.3027 10.4785C25.3027 9.20898 24.7656 8.00781 24.3164 7.01172C23.584 5.44922 22.4414 3.55469 21.416 1.98242C21.2207 1.68945 21.0156 1.55273 20.752 1.55273C20.4785 1.55273 20.2734 1.68945 20.0781 1.98242C19.043 3.55469 17.9102 5.44922 17.1777 7.01172C16.7285 8.00781 16.1914 9.20898 16.1914 10.4785C16.1914 13.125 18.0176 14.8926 20.752 14.8926Z" fill="#ffffff" fill-opacity="0.85"/>
 </g>
</svg>
