<svg version="1.1" xmlns="http://www.w3.org/2000/svg" xmlns:xlink="http://www.w3.org/1999/xlink" width="29.9902" height="34.7168" viewBox="0 0 29.9902 34.7168">
 <g>
  <rect height="34.7168" opacity="0" width="29.9902" x="0" y="0"/>
  <path d="M29.6289 7.87109L29.6289 23.3105C29.6289 24.9121 28.6523 25.8887 27.0508 25.8887L18.7207 25.8887L18.7207 28.5156L18.8477 28.5156C19.3262 28.5156 19.7168 28.9062 19.7168 29.3945C19.7168 29.873 19.3262 30.2539 18.8477 30.2539L10.7812 30.2539C10.3027 30.2539 9.91211 29.873 9.91211 29.3945C9.91211 28.9062 10.3027 28.5156 10.7812 28.5156L10.9082 28.5156L10.9082 25.8887L2.57812 25.8887C0.976562 25.8887 0 24.9121 0 23.3105L0 7.87109C0 6.26953 0.976562 5.29297 2.57812 5.29297L12.4805 5.29297L12.4805 7.02148L2.61719 7.02148C2.07031 7.02148 1.72852 7.36328 1.72852 7.91016L1.72852 19.9512C1.72852 20.3711 1.91406 20.5371 2.30469 20.5371L27.3242 20.5371C27.7148 20.5371 27.9004 20.3711 27.9004 19.9512L27.9004 7.91016C27.9004 7.36328 27.5586 7.02148 27.0117 7.02148L17.1484 7.02148L17.1484 5.29297L27.0508 5.29297C28.6523 5.29297 29.6289 6.26953 29.6289 7.87109Z" fill="var(--color-primary)"/>
  <path d="M14.8145 1.55273C14.4141 1.55273 14.043 1.85547 14.043 2.34375L14.043 12.6074L14.1406 15.0879L11.6211 12.334L10.7812 11.5039C10.6348 11.3574 10.4297 11.2695 10.2051 11.2695C9.76562 11.2695 9.45312 11.5918 9.45312 12.0215C9.45312 12.2363 9.54102 12.4316 9.6875 12.5879L14.2383 17.1484C14.4238 17.334 14.6289 17.4316 14.8145 17.4316C15 17.4316 15.2148 17.334 15.3906 17.1484L19.9414 12.5879C20.0879 12.4316 20.1758 12.2363 20.1758 12.0215C20.1758 11.5918 19.8633 11.2695 19.4238 11.2695C19.1992 11.2695 19.0039 11.3574 18.8477 11.5039L18.0078 12.334L15.4883 15.0879L15.5859 12.6074L15.5859 2.34375C15.5859 1.85547 15.2148 1.55273 14.8145 1.55273Z" fill="var(--color-primary)"/>
 </g>
</svg>
