<?xml version="1.0" encoding="UTF-8"?>
<!--Generator: Apple Native CoreSVG 232.5-->
<!DOCTYPE svg
PUBLIC "-//W3C//DTD SVG 1.1//EN"
       "http://www.w3.org/Graphics/SVG/1.1/DTD/svg11.dtd">
<svg version="1.1" xmlns="http://www.w3.org/2000/svg" xmlns:xlink="http://www.w3.org/1999/xlink" width="25.8008" height="25.459">
 <g>
  <rect height="25.459" opacity="0" width="25.8008" x="0" y="0"/>
  <path d="M25.4395 12.7246C25.4395 19.6777 19.6777 25.4395 12.7148 25.4395C5.76172 25.4395 0 19.6777 0 12.7246C0 5.76172 5.75195 0 12.7051 0C19.668 0 25.4395 5.76172 25.4395 12.7246ZM11.6895 6.10352L6.10352 11.6895C5.41992 12.373 5.44922 13.0859 6.12305 13.7598L11.6797 19.3262C12.3633 20.0098 13.0664 20.0293 13.75 19.3457L19.3359 13.7598C20.0293 13.0664 20 12.3633 19.3164 11.6797L13.7598 6.12305C13.0762 5.43945 12.373 5.41992 11.6895 6.10352Z" fill="#ffffff" fill-opacity="0.85"/>
 </g>
</svg>
