<svg version="1.1" xmlns="http://www.w3.org/2000/svg" xmlns:xlink="http://www.w3.org/1999/xlink" width="23.3203" height="22.9785" viewBox="0 0 23.3203 22.9785">
 <g>
  <rect height="22.9785" opacity="0" width="23.3203" x="0" y="0"/>
  <path d="M3.79883 22.9785L19.1504 22.9785C21.6797 22.9785 22.959 21.709 22.959 19.2188L22.959 3.78906C22.959 1.29883 21.6797 0.0292969 19.1504 0.0292969L3.79883 0.0292969C1.2793 0.0292969 0 1.28906 0 3.78906L0 19.2188C0 21.7188 1.2793 22.9785 3.79883 22.9785ZM3.83789 21.25C2.4707 21.25 1.72852 20.5273 1.72852 19.1309L1.72852 3.87695C1.72852 2.48047 2.4707 1.75781 3.83789 1.75781L19.1211 1.75781C20.459 1.75781 21.2305 2.48047 21.2305 3.87695L21.2305 19.1309C21.2305 20.5273 20.459 21.25 19.1211 21.25Z" fill="var(--color-primary)"/>
  <path d="M11.4648 8.18359C12.2559 8.18359 12.8418 7.64648 12.8418 6.94336C12.8418 6.16211 12.2656 5.60547 11.4648 5.60547C10.7227 5.60547 10.1367 6.17188 10.1367 6.95312C10.1367 7.65625 10.7227 8.18359 11.4648 8.18359ZM6.39648 12.3926L16.582 12.3926C17.1777 12.3926 17.5781 12.0801 17.5781 11.5039C17.5781 10.9277 17.1973 10.6055 16.582 10.6055L6.39648 10.6055C5.78125 10.6055 5.39062 10.9277 5.39062 11.5039C5.39062 12.0801 5.80078 12.3926 6.39648 12.3926ZM11.4648 17.3926C12.2559 17.3926 12.8418 16.8359 12.8418 16.1328C12.8418 15.3516 12.2656 14.8047 11.4648 14.8047C10.7227 14.8047 10.1367 15.3613 10.1367 16.1426C10.1367 16.8457 10.7227 17.3926 11.4648 17.3926Z" fill="var(--color-primary)"/>
 </g>
</svg>
