<svg version="1.1" xmlns="http://www.w3.org/2000/svg" xmlns:xlink="http://www.w3.org/1999/xlink" width="24.9707" height="30.5762" viewBox="0 0 24.9707 30.5762">
 <g>
  <rect height="30.5762" opacity="0" width="24.9707" x="0" y="0"/>
  <path d="M22.7832 5.16602L22.7832 18.4316C22.2987 17.8287 21.7151 17.3098 21.0547 16.9034L21.0547 5.19531C21.0547 3.83789 20.293 3.0957 18.9355 3.0957L5.67383 3.0957C4.27734 3.0957 3.55469 3.85742 3.55469 5.19531L3.55469 24.4434C3.55469 25.7812 4.27734 26.543 5.67383 26.543L11.4198 26.543C11.8306 27.208 12.3552 27.7952 12.9646 28.2812L5.58594 28.2812C3.0957 28.2812 1.81641 26.9922 1.81641 24.4727L1.81641 5.16602C1.81641 2.64648 3.0957 1.36719 5.58594 1.36719L19.0234 1.36719C21.5234 1.36719 22.7832 2.63672 22.7832 5.16602Z" fill="var(--color-primary)"/>
  <path d="M17.8809 11.9336C17.8809 12.3145 17.5879 12.6172 17.1973 12.6172L7.42188 12.6172C7.02148 12.6172 6.72852 12.3145 6.72852 11.9336C6.72852 11.5527 7.02148 11.2598 7.42188 11.2598L17.1973 11.2598C17.5879 11.2598 17.8809 11.5527 17.8809 11.9336Z" fill="var(--color-primary)"/>
  <path d="M17.8809 7.51953C17.8809 7.90039 17.5879 8.20312 17.1973 8.20312L7.42188 8.20312C7.02148 8.20312 6.72852 7.90039 6.72852 7.51953C6.72852 7.14844 7.02148 6.85547 7.42188 6.85547L17.1973 6.85547C17.5879 6.85547 17.8809 7.14844 17.8809 7.51953Z" fill="var(--color-primary)"/>
  <path d="M17.3535 28.2812C20.3516 28.2812 22.7832 25.8398 22.7832 22.8418C22.7832 19.8242 20.3516 17.3926 17.3535 17.3926C14.3555 17.3926 11.8945 19.8438 11.8945 22.8418C11.8945 25.8398 14.3555 28.2812 17.3535 28.2812ZM17.3535 26.7285C15.2051 26.7285 13.4473 24.9805 13.4473 22.8418C13.4473 20.7129 15.2051 18.9551 17.3535 18.9551C19.4727 18.9551 21.2207 20.7129 21.2207 22.8418C21.2207 24.9805 19.4824 26.7285 17.3535 26.7285ZM24.0723 30.5762C24.5898 30.5762 24.9707 30.1758 24.9707 29.6289C24.9707 29.375 24.8438 29.1406 24.6484 28.9453L21.1816 25.4688L19.7852 26.7188L23.2715 30.2148C23.5352 30.4688 23.7793 30.5762 24.0723 30.5762Z" fill="var(--color-primary)"/>
 </g>
</svg>
