<svg version="1.1" xmlns="http://www.w3.org/2000/svg" xmlns:xlink="http://www.w3.org/1999/xlink" width="25.8008" height="25.459" viewBox="0 0 25.8008 25.459">
 <g>
  <rect height="25.459" opacity="0" width="25.8008" x="0" y="0"/>
  <path d="M12.7148 25.4395C19.6777 25.4395 25.4395 19.6777 25.4395 12.7246C25.4395 5.76172 19.668 0 12.7051 0C5.75195 0 0 5.76172 0 12.7246C0 19.6777 5.76172 25.4395 12.7148 25.4395Z" fill="var(--color-tertiary)"/>
  <path d="M9.62891 19.6191C8.24219 19.6191 7.54883 18.9258 7.54883 17.5195L7.54883 7.5293C7.54883 6.14258 8.25195 5.42969 9.62891 5.42969L12.1289 5.42969L12.1289 10.5762C12.1289 11.4258 12.5293 11.8262 13.3691 11.8262L18.4668 11.8262L18.4668 17.5195C18.4668 18.9062 17.7734 19.6191 16.3867 19.6191ZM13.4961 10.8594C13.2324 10.8594 13.0957 10.7227 13.0957 10.4492L13.0957 5.50781C13.3398 5.54688 13.6035 5.73242 13.8867 6.02539L17.8711 10.0586C18.1543 10.3516 18.3398 10.6055 18.3789 10.8594Z" fill="var(--color-primary)"/>
 </g>
</svg>
