<?xml version="1.0" encoding="UTF-8"?>
<!--Generator: Apple Native CoreSVG 232.5-->
<!DOCTYPE svg
PUBLIC "-//W3C//DTD SVG 1.1//EN"
       "http://www.w3.org/Graphics/SVG/1.1/DTD/svg11.dtd">
<svg version="1.1" xmlns="http://www.w3.org/2000/svg" xmlns:xlink="http://www.w3.org/1999/xlink" width="23.3203" height="22.9785">
 <g>
  <rect height="22.9785" opacity="0" width="23.3203" x="0" y="0"/>
  <path d="M3.79883 22.9785L19.1504 22.9785C21.6797 22.9785 22.959 21.709 22.959 19.2188L22.959 3.78906C22.959 1.29883 21.6797 0.0292969 19.1504 0.0292969L3.79883 0.0292969C1.2793 0.0292969 0 1.28906 0 3.78906L0 19.2188C0 21.7188 1.2793 22.9785 3.79883 22.9785ZM3.83789 21.25C2.4707 21.25 1.72852 20.5273 1.72852 19.1309L1.72852 3.87695C1.72852 2.48047 2.4707 1.75781 3.83789 1.75781L19.1211 1.75781C20.459 1.75781 21.2305 2.48047 21.2305 3.87695L21.2305 19.1309C21.2305 20.5273 20.459 21.25 19.1211 21.25Z" fill="#ffffff" fill-opacity="0.55"/>
  <path d="M11.4844 18.6133C11.7871 18.6133 12.0215 18.3984 12.0215 18.0762L12.0215 17.1582C14.0039 16.9824 15.498 15.8301 15.498 13.9941C15.498 12.3438 14.4141 11.3477 12.2559 10.9277L12.0215 10.8887L12.0215 7.19727C13.0371 7.34375 13.75 7.93945 13.9844 8.83789C14.0918 9.17969 14.2969 9.39453 14.6582 9.39453C15.0391 9.39453 15.3125 9.12109 15.3125 8.74023C15.3125 8.61328 15.2832 8.49609 15.2539 8.36914C14.9414 7.03125 13.6523 6.08398 12.0215 5.91797L12.0215 5.04883C12.0215 4.72656 11.7871 4.51172 11.4844 4.51172C11.1719 4.51172 10.957 4.72656 10.957 5.04883L10.957 5.91797C9.07227 6.11328 7.69531 7.29492 7.69531 8.96484C7.69531 10.5078 8.75977 11.4453 10.8398 11.9336L10.957 11.9629L10.957 15.8887C9.72656 15.7422 8.95508 15.0586 8.76953 14.1113C8.65234 13.7402 8.42773 13.5449 8.08594 13.5449C7.71484 13.5449 7.45117 13.8184 7.45117 14.209C7.45117 14.3359 7.4707 14.4531 7.5 14.5801C7.8418 16.0352 9.22852 16.9824 10.957 17.1387L10.957 18.0762C10.957 18.3984 11.1816 18.6133 11.4844 18.6133ZM10.957 10.6152L10.8691 10.5859C9.62891 10.2441 9.05273 9.72656 9.05273 8.90625C9.05273 8.04688 9.80469 7.36328 10.957 7.19727ZM12.0215 12.2363L12.2949 12.3047C13.6328 12.6562 14.1406 13.1934 14.1406 14.0625C14.1406 15.0391 13.3984 15.7617 12.0215 15.8887Z" fill="#ffffff" fill-opacity="0.85"/>
 </g>
</svg>
