<svg version="1.1" xmlns="http://www.w3.org/2000/svg" xmlns:xlink="http://www.w3.org/1999/xlink" width="23.3203" height="22.9785" viewBox="0 0 23.3203 22.9785">
 <g>
  <rect height="22.9785" opacity="0" width="23.3203" x="0" y="0"/>
  <path d="M22.959 3.78906L22.959 19.2188C22.959 21.709 21.6797 22.9785 19.1504 22.9785L3.79883 22.9785C1.2793 22.9785 0 21.7188 0 19.2188L0 3.78906C0 1.28906 1.2793 0.0292969 3.79883 0.0292969L19.1504 0.0292969C21.6797 0.0292969 22.959 1.29883 22.959 3.78906ZM7.46094 11.4551C7.46094 13.7012 9.28711 15.5176 11.5137 15.5176C13.7207 15.5176 15.5469 13.7012 15.5469 11.4551C15.5469 9.24805 13.7207 7.44141 11.5137 7.44141C9.28711 7.44141 7.46094 9.24805 7.46094 11.4551Z" fill="var(--color-primary)"/>
 </g>
</svg>
