<?xml version="1.0" encoding="UTF-8"?>
<!--Generator: Apple Native CoreSVG 232.5-->
<!DOCTYPE svg
PUBLIC "-//W3C//DTD SVG 1.1//EN"
       "http://www.w3.org/Graphics/SVG/1.1/DTD/svg11.dtd">
<svg version="1.1" xmlns="http://www.w3.org/2000/svg" xmlns:xlink="http://www.w3.org/1999/xlink" width="27.7441" height="20.0488">
 <g>
  <rect height="20.0488" opacity="0" width="27.7441" x="0" y="0"/>
  <path d="M3.79883 20.0488L23.584 20.0488C26.1133 20.0488 27.3828 18.7695 27.3828 16.2793L27.3828 3.79883C27.3828 1.30859 26.1133 0.0292969 23.584 0.0292969L3.79883 0.0292969C1.2793 0.0292969 0 1.29883 0 3.79883L0 16.2793C0 18.7793 1.2793 20.0488 3.79883 20.0488Z" fill="#ffffff" fill-opacity="0.25"/>
  <path d="M8.80859 15.7324C6.47461 15.7324 4.91211 14.2188 4.91211 11.9531C4.91211 10.8594 5.35156 9.83398 5.75195 8.97461C6.37695 7.62695 7.35352 6.01562 8.22266 4.66797C8.39844 4.41406 8.56445 4.29688 8.80859 4.29688C9.0332 4.29688 9.19922 4.41406 9.375 4.66797C10.2539 6.01562 11.2305 7.62695 11.8457 8.97461C12.2461 9.83398 12.6953 10.8594 12.6953 11.9531C12.6953 14.2188 11.1328 15.7324 8.80859 15.7324ZM16.8555 7.48047C16.0449 7.48047 15.4004 6.83594 15.4004 6.02539C15.4004 5.21484 16.0449 4.57031 16.8555 4.57031C17.666 4.57031 18.3105 5.21484 18.3105 6.02539C18.3105 6.83594 17.666 7.48047 16.8555 7.48047ZM21.3086 7.48047C20.498 7.48047 19.8438 6.83594 19.8438 6.02539C19.8438 5.21484 20.498 4.57031 21.3086 4.57031C22.1094 4.57031 22.7637 5.21484 22.7637 6.02539C22.7637 6.83594 22.1094 7.48047 21.3086 7.48047ZM16.8555 11.4746C16.0449 11.4746 15.4004 10.8203 15.4004 10.0195C15.4004 9.20898 16.0449 8.55469 16.8555 8.55469C17.666 8.55469 18.3105 9.20898 18.3105 10.0195C18.3105 10.8203 17.666 11.4746 16.8555 11.4746ZM21.3086 11.4746C20.498 11.4746 19.8438 10.8203 19.8438 10.0195C19.8438 9.20898 20.498 8.55469 21.3086 8.55469C22.1094 8.55469 22.7637 9.20898 22.7637 10.0195C22.7637 10.8203 22.1094 11.4746 21.3086 11.4746ZM16.8555 15.4688C16.0449 15.4688 15.4004 14.8145 15.4004 14.0039C15.4004 13.2031 16.0449 12.5488 16.8555 12.5488C17.666 12.5488 18.3105 13.2031 18.3105 14.0039C18.3105 14.8145 17.666 15.4688 16.8555 15.4688ZM21.3086 15.4688C20.498 15.4688 19.8438 14.8145 19.8438 14.0039C19.8438 13.2031 20.498 12.5488 21.3086 12.5488C22.1094 12.5488 22.7637 13.2031 22.7637 14.0039C22.7637 14.8145 22.1094 15.4688 21.3086 15.4688Z" fill="#ffffff" fill-opacity="0.85"/>
 </g>
</svg>
