<svg version="1.1" xmlns="http://www.w3.org/2000/svg" xmlns:xlink="http://www.w3.org/1999/xlink" width="25.8008" height="25.459" viewBox="0 0 25.8008 25.459">
 <g>
  <rect height="25.459" opacity="0" width="25.8008" x="0" y="0"/>
  <path d="M12.7148 25.4395C19.6777 25.4395 25.4395 19.6777 25.4395 12.7246C25.4395 5.76172 19.668 0 12.7051 0C5.75195 0 0 5.76172 0 12.7246C0 19.6777 5.76172 25.4395 12.7148 25.4395ZM12.7148 23.623C6.67969 23.623 1.82617 18.7598 1.82617 12.7246C1.82617 6.67969 6.66992 1.82617 12.7051 1.82617C18.75 1.82617 23.6133 6.67969 23.6133 12.7246C23.6133 18.7598 18.7598 23.623 12.7148 23.623Z" fill="var(--color-secondary)"/>
  <path d="M12.7051 18.9941C15.3027 18.9941 17.0508 17.3145 17.0508 14.7852C17.0508 13.5742 16.5527 12.4219 16.1035 11.4453C15.4102 9.95117 14.3359 8.14453 13.3398 6.64062C13.1641 6.35742 12.959 6.24023 12.7051 6.24023C12.4512 6.24023 12.2559 6.35742 12.0703 6.64062C11.084 8.14453 10 9.95117 9.30664 11.4453C8.86719 12.4219 8.35938 13.5742 8.35938 14.7852C8.35938 17.3145 10.1074 18.9941 12.7051 18.9941Z" fill="var(--color-primary)"/>
 </g>
</svg>
