<?xml version="1.0" encoding="UTF-8"?>
<!--Generator: Apple Native CoreSVG 232.5-->
<!DOCTYPE svg
PUBLIC "-//W3C//DTD SVG 1.1//EN"
       "http://www.w3.org/Graphics/SVG/1.1/DTD/svg11.dtd">
<svg version="1.1" xmlns="http://www.w3.org/2000/svg" xmlns:xlink="http://www.w3.org/1999/xlink" width="25.8008" height="25.459">
 <g>
  <rect height="25.459" opacity="0" width="25.8008" x="0" y="0"/>
  <path d="M25.4395 12.7246C25.4395 19.6777 19.6777 25.4395 12.7148 25.4395C5.76172 25.4395 0 19.6777 0 12.7246C0 5.76172 5.75195 0 12.7051 0C19.668 0 25.4395 5.76172 25.4395 12.7246ZM9.70703 6.79688C9.14062 6.79688 8.83789 7.19727 8.83789 7.79297L8.83789 17.4707C8.83789 18.0762 9.14062 18.4766 9.70703 18.4766L15.8594 18.4766C16.2988 18.4766 16.6016 18.1836 16.6016 17.7344C16.6016 17.2852 16.2988 17.002 15.8594 17.002L10.6152 17.002L10.6152 13.2422L15.5273 13.2422C15.9668 13.2422 16.2695 12.9785 16.2695 12.5391C16.2695 12.0801 15.9668 11.8262 15.5273 11.8262L10.6152 11.8262L10.6152 8.27148L15.8594 8.27148C16.2988 8.27148 16.6016 7.96875 16.6016 7.5293C16.6016 7.07031 16.2988 6.79688 15.8594 6.79688Z" fill="#ffffff" fill-opacity="0.85"/>
 </g>
</svg>
