<svg version="1.1" xmlns="http://www.w3.org/2000/svg" xmlns:xlink="http://www.w3.org/1999/xlink" width="23.3203" height="22.9785" viewBox="0 0 23.3203 22.9785">
 <g>
  <rect height="22.9785" opacity="0" width="23.3203" x="0" y="0"/>
  <path d="M3.79883 22.9785L19.1504 22.9785C21.6797 22.9785 22.959 21.709 22.959 19.2188L22.959 3.78906C22.959 1.29883 21.6797 0.0292969 19.1504 0.0292969L3.79883 0.0292969C1.2793 0.0292969 0 1.28906 0 3.78906L0 19.2188C0 21.7188 1.2793 22.9785 3.79883 22.9785Z" fill="var(--color-tertiary)"/>
  <path d="M6.49414 14.7168C5.92773 14.7168 5.51758 14.4238 5.51758 13.8672C5.51758 13.3008 5.9082 13.0078 6.49414 13.0078L16.4551 13.0078C17.041 13.0078 17.4219 13.3008 17.4219 13.8672C17.4219 14.4238 17.0215 14.7168 16.4551 14.7168ZM6.49414 9.99023C5.92773 9.99023 5.51758 9.70703 5.51758 9.15039C5.51758 8.57422 5.9082 8.28125 6.49414 8.28125L16.4551 8.28125C17.041 8.28125 17.4219 8.57422 17.4219 9.15039C17.4219 9.70703 17.0215 9.99023 16.4551 9.99023Z" fill="var(--color-primary)"/>
 </g>
</svg>
