<?xml version="1.0" encoding="UTF-8"?>
<!--Generator: Apple Native CoreSVG 232.5-->
<!DOCTYPE svg
PUBLIC "-//W3C//DTD SVG 1.1//EN"
       "http://www.w3.org/Graphics/SVG/1.1/DTD/svg11.dtd">
<svg version="1.1" xmlns="http://www.w3.org/2000/svg" xmlns:xlink="http://www.w3.org/1999/xlink" width="25.8008" height="25.459">
 <g>
  <rect height="25.459" opacity="0" width="25.8008" x="0" y="0"/>
  <path d="M25.4395 12.7246C25.4395 19.6777 19.6777 25.4395 12.7148 25.4395C5.76172 25.4395 0 19.6777 0 12.7246C0 5.76172 5.75195 0 12.7051 0C19.668 0 25.4395 5.76172 25.4395 12.7246ZM7.01172 7.54883C6.50391 7.54883 6.23047 7.89062 6.23047 8.37891L6.23047 17.0605C6.23047 17.5293 6.49414 17.8809 7.01172 17.8809L10.9961 17.8809C11.4258 17.8809 11.709 17.6465 11.709 17.2266C11.709 16.7676 11.3574 16.543 10.9961 16.543L7.83203 16.543L7.83203 13.2715L10.8594 13.2715C11.2305 13.2715 11.4941 13.0566 11.4941 12.6367C11.4941 12.207 11.2402 11.9922 10.8594 11.9922L7.83203 11.9922L7.83203 8.88672L10.9961 8.88672C11.3574 8.88672 11.709 8.67188 11.709 8.21289C11.709 7.80273 11.416 7.54883 10.9961 7.54883ZM13.877 7.54883C13.4668 7.54883 13.1738 7.82227 13.1738 8.22266C13.1738 8.62305 13.4668 8.88672 13.877 8.88672L17.5586 8.88672L17.5586 8.95508L13.3105 16.4453C13.2324 16.6016 13.1445 16.875 13.1445 17.1289C13.1445 17.5977 13.4766 17.8809 13.9453 17.8809L18.8184 17.8809C19.2188 17.8809 19.4727 17.6074 19.4727 17.2168C19.4727 16.8164 19.2188 16.543 18.8184 16.543L14.9512 16.543L14.9512 16.4258L19.1211 9.01367C19.2285 8.83789 19.3164 8.65234 19.3164 8.36914C19.3164 7.82227 18.9258 7.54883 18.4668 7.54883Z" fill="#ffffff" fill-opacity="0.85"/>
 </g>
</svg>
