<?xml version="1.0" encoding="UTF-8"?>
<!--Generator: Apple Native CoreSVG 232.5-->
<!DOCTYPE svg
PUBLIC "-//W3C//DTD SVG 1.1//EN"
       "http://www.w3.org/Graphics/SVG/1.1/DTD/svg11.dtd">
<svg version="1.1" xmlns="http://www.w3.org/2000/svg" xmlns:xlink="http://www.w3.org/1999/xlink" width="34.5312" height="27.8223">
 <g>
  <rect height="27.8223" opacity="0" width="34.5312" x="0" y="0"/>
  <path d="M32.6855 22.1387C33.4863 22.1387 34.1699 21.4746 34.1699 20.7031C34.1699 19.9023 33.4961 19.2578 32.6855 19.2578C31.8555 19.2578 31.1914 19.9023 31.1914 20.7031C31.1914 21.4746 31.875 22.1387 32.6855 22.1387ZM32.6855 16.6992C33.2031 16.6992 33.5742 16.3184 33.5938 15.7812L33.8086 6.78711C33.8281 6.10352 33.3789 5.6543 32.6855 5.6543C31.9824 5.6543 31.5332 6.10352 31.5527 6.78711L31.7676 15.7812C31.7871 16.3184 32.1582 16.6992 32.6855 16.6992Z" fill="#ffffff" fill-opacity="0.85"/>
  <path d="M19.3359 26.9824L19.3359 3.18359C19.3359 1.13281 18.2129 0 16.1523 0L5.0293 0C2.95898 0 1.86523 1.12305 1.86523 3.18359L1.86523 26.9824L3.58398 26.9824L3.58398 3.21289C3.58398 2.24609 4.07227 1.73828 5.05859 1.73828L16.123 1.73828C17.0801 1.73828 17.5977 2.24609 17.5977 3.21289L17.6074 26.9824ZM0 26.9336C0 27.4121 0.371094 27.8125 0.849609 27.8125L20.332 27.8125C20.8105 27.8125 21.1914 27.4121 21.1914 26.9336C21.1914 26.4746 20.8008 26.084 20.332 26.084L0.849609 26.084C0.380859 26.084 0 26.4648 0 26.9336ZM6.36719 13.6328L14.8145 13.6328C15.6055 13.6328 16.1523 13.1348 16.1523 12.4023L16.1523 4.58984C16.1523 3.84766 15.5957 3.33984 14.8145 3.33984L6.36719 3.33984C5.58594 3.33984 5.04883 3.84766 5.04883 4.58984L5.04883 12.4023C5.04883 13.1348 5.57617 13.6328 6.36719 13.6328ZM22.9688 8.44727L24.248 8.44727L24.2578 5.66406C24.2578 5.3125 23.9648 5.01953 23.6133 5.01953C23.252 5.01953 22.9688 5.3125 22.9688 5.66406ZM27.3828 8.44727L27.3828 5.66406C27.3828 5.3125 27.0996 5.01953 26.7285 5.01953C26.3867 5.01953 26.0938 5.3125 26.0938 5.66406L26.1035 8.44727ZM18.8184 16.3965L19.4629 16.3965C20.0977 16.3965 20.5078 16.7773 20.5078 17.4609L20.5078 21.7285C20.5078 23.3887 21.5332 24.4141 23.2031 24.4141C24.8633 24.4141 25.8691 23.3887 25.8691 21.7285L25.8691 15.1465C25.8691 13.9062 26.7578 13.5547 27.3828 13.0566C28.2129 12.4219 28.7109 11.582 28.7109 10.498L28.7109 8.62305C28.7109 8.32031 28.5352 8.13477 28.2715 8.13477L21.9434 8.13477C21.6699 8.13477 21.5039 8.32031 21.5039 8.62305L21.5039 10.498C21.5039 11.582 21.9922 12.4219 22.832 13.0566C23.457 13.5547 24.3359 13.9062 24.3359 15.1465L24.3359 21.7285C24.3359 22.4414 23.9062 22.8809 23.2031 22.8809C22.4805 22.8809 22.041 22.4414 22.041 21.7285L22.041 17.4609C22.041 15.8203 21.0547 14.8633 19.4629 14.8633L18.8184 14.8633Z" fill="#ffffff" fill-opacity="0.85"/>
 </g>
</svg>
