<svg version="1.1" xmlns="http://www.w3.org/2000/svg" xmlns:xlink="http://www.w3.org/1999/xlink" width="23.3203" height="22.9785" viewBox="0 0 23.3203 22.9785">
 <g>
  <rect height="22.9785" opacity="0" width="23.3203" x="0" y="0"/>
  <path d="M22.959 3.78906L22.959 19.2188C22.959 21.709 21.6797 22.9785 19.1504 22.9785L3.79883 22.9785C1.2793 22.9785 0 21.7188 0 19.2188L0 3.78906C0 1.28906 1.2793 0.0292969 3.79883 0.0292969L19.1504 0.0292969C21.6797 0.0292969 22.959 1.29883 22.959 3.78906ZM10.2051 16.6504C10.2051 17.3242 10.8008 17.8809 11.4844 17.8809C12.168 17.8809 12.7637 17.334 12.7637 16.6504C12.7637 15.957 12.1777 15.4102 11.4844 15.4102C10.791 15.4102 10.2051 15.9668 10.2051 16.6504ZM10.4492 6.01562L10.5957 12.8906C10.6055 13.4766 10.9277 13.8086 11.4844 13.8086C12.0312 13.8086 12.3438 13.4863 12.3535 12.8906L12.5195 6.02539C12.5293 5.43945 12.0801 5.00977 11.4746 5.00977C10.8594 5.00977 10.4395 5.42969 10.4492 6.01562Z" fill="var(--color-primary)"/>
 </g>
</svg>
