<svg version="1.1" xmlns="http://www.w3.org/2000/svg" xmlns:xlink="http://www.w3.org/1999/xlink" width="25.8008" height="25.459" viewBox="0 0 25.8008 25.459">
 <g>
  <rect height="25.459" opacity="0" width="25.8008" x="0" y="0"/>
  <path d="M25.4395 12.7344C25.4395 19.6973 19.6777 25.459 12.7148 25.459C5.76172 25.459 0 19.6973 0 12.7344C0 5.78125 5.75195 0.0195312 12.7051 0.0195312C19.668 0.0195312 25.4395 5.78125 25.4395 12.7344ZM4.17969 12.7441C4.17969 14.0137 7.74414 18.125 12.7148 18.125C17.7246 18.125 21.25 14.0137 21.25 12.7441C21.25 11.4648 17.7051 7.36328 12.7148 7.36328C7.69531 7.36328 4.17969 11.4648 4.17969 12.7441ZM16.25 12.7441C16.25 14.6582 14.6582 16.2695 12.7148 16.2695C10.752 16.2695 9.17969 14.6582 9.17969 12.7441C9.16992 10.7812 10.752 9.21875 12.7148 9.21875C14.6582 9.21875 16.25 10.7812 16.25 12.7441ZM11.2207 12.7441C11.2207 13.5352 11.9141 14.2285 12.7344 14.2285C13.5254 14.2285 14.209 13.5352 14.209 12.7441C14.209 11.9434 13.5254 11.25 12.7344 11.25C11.9141 11.25 11.2207 11.9434 11.2207 12.7441Z" fill="var(--color-primary)"/>
 </g>
</svg>
