<?xml version="1.0" encoding="UTF-8"?>
<!--Generator: Apple Native CoreSVG 232.5-->
<!DOCTYPE svg
PUBLIC "-//W3C//DTD SVG 1.1//EN"
       "http://www.w3.org/Graphics/SVG/1.1/DTD/svg11.dtd">
<svg version="1.1" xmlns="http://www.w3.org/2000/svg" xmlns:xlink="http://www.w3.org/1999/xlink" width="23.3203" height="22.9785">
 <g>
  <rect height="22.9785" opacity="0" width="23.3203" x="0" y="0"/>
  <path d="M22.959 3.78906L22.959 19.2188C22.959 21.709 21.6797 22.9785 19.1504 22.9785L3.79883 22.9785C1.2793 22.9785 0 21.7188 0 19.2188L0 3.78906C0 1.28906 1.2793 0.0292969 3.79883 0.0292969L19.1504 0.0292969C21.6797 0.0292969 22.959 1.29883 22.959 3.78906ZM8.62305 5.54688C8.05664 5.54688 7.75391 5.95703 7.75391 6.55273L7.75391 16.377C7.75391 16.9629 8.06641 17.373 8.63281 17.373C9.21875 17.373 9.53125 16.9824 9.53125 16.377L9.53125 12.1484L14.3359 12.1484C14.7754 12.1484 15.0879 11.8945 15.0879 11.4551C15.0879 10.9961 14.7754 10.7324 14.3359 10.7324L9.53125 10.7324L9.53125 7.03125L14.8242 7.03125C15.2734 7.03125 15.5762 6.72852 15.5762 6.28906C15.5762 5.83008 15.2734 5.54688 14.8242 5.54688Z" fill="#ffffff" fill-opacity="0.85"/>
 </g>
</svg>
