<?xml version="1.0" encoding="UTF-8"?>
<!--Generator: Apple Native CoreSVG 232.5-->
<!DOCTYPE svg
PUBLIC "-//W3C//DTD SVG 1.1//EN"
       "http://www.w3.org/Graphics/SVG/1.1/DTD/svg11.dtd">
<svg version="1.1" xmlns="http://www.w3.org/2000/svg" xmlns:xlink="http://www.w3.org/1999/xlink" width="24.6777" height="24.3457">
 <g>
  <rect height="24.3457" opacity="0" width="24.6777" x="0" y="0"/>
  <path d="M0.869141 7.85156C1.42578 7.85156 1.72852 7.5293 1.72852 6.97266L1.72852 3.88672C1.72852 2.48047 2.4707 1.75781 3.83789 1.75781L6.98242 1.75781C7.53906 1.75781 7.86133 1.44531 7.86133 0.898438C7.86133 0.341797 7.53906 0.0292969 6.98242 0.0292969L3.79883 0.0292969C1.2793 0.0292969 0 1.28906 0 3.78906L0 6.97266C0 7.5293 0.3125 7.85156 0.869141 7.85156ZM23.4473 7.85156C24.0137 7.85156 24.3164 7.5293 24.3164 6.97266L24.3164 3.78906C24.3164 1.30859 23.0469 0.0292969 20.5176 0.0292969L17.334 0.0292969C16.7773 0.0292969 16.4551 0.341797 16.4551 0.898438C16.4551 1.44531 16.7773 1.75781 17.334 1.75781L20.4785 1.75781C21.8164 1.75781 22.5879 2.48047 22.5879 3.88672L22.5879 6.97266C22.5879 7.5293 22.9004 7.85156 23.4473 7.85156ZM3.79883 24.3457L6.98242 24.3457C7.53906 24.3457 7.86133 24.0332 7.86133 23.4766C7.86133 22.9297 7.53906 22.6172 6.98242 22.6172L3.83789 22.6172C2.4707 22.6172 1.72852 21.8945 1.72852 20.4883L1.72852 17.4023C1.72852 16.8457 1.41602 16.5234 0.869141 16.5234C0.302734 16.5234 0 16.8457 0 17.4023L0 20.5859C0 23.0859 1.2793 24.3457 3.79883 24.3457ZM17.334 24.3457L20.5176 24.3457C23.0469 24.3457 24.3164 23.0664 24.3164 20.5859L24.3164 17.4023C24.3164 16.8457 24.0039 16.5234 23.4473 16.5234C22.8906 16.5234 22.5879 16.8457 22.5879 17.4023L22.5879 20.4883C22.5879 21.8945 21.8164 22.6172 20.4785 22.6172L17.334 22.6172C16.7773 22.6172 16.4551 22.9297 16.4551 23.4766C16.4551 24.0332 16.7773 24.3457 17.334 24.3457Z" fill="#ffffff" fill-opacity="0.55"/>
  <path d="M7.43164 11.25C7.96875 11.25 8.33984 10.8789 8.33984 10.332L8.33984 8.62305C8.33984 8.08594 7.96875 7.71484 7.43164 7.71484C6.9043 7.71484 6.5332 8.0957 6.5332 8.62305L6.5332 10.332C6.5332 10.8789 6.9043 11.25 7.43164 11.25ZM11.1426 14.1992C11.1719 14.1992 11.2109 14.1992 11.25 14.1992C12.4512 14.1992 13.0957 13.5547 13.0957 12.3438L13.0957 8.4082C13.0957 7.96875 12.8223 7.69531 12.3926 7.69531C11.9531 7.69531 11.6699 7.96875 11.6699 8.4082L11.6699 12.4609C11.6699 12.6465 11.543 12.7539 11.377 12.7539L10.957 12.7539C10.5566 12.7539 10.2441 13.0469 10.2441 13.4473C10.2441 13.9258 10.5664 14.1992 11.1426 14.1992ZM16.8262 11.25C17.3438 11.25 17.7148 10.8789 17.7148 10.332L17.7148 8.62305C17.7148 8.0957 17.3438 7.71484 16.8262 7.71484C16.2793 7.71484 15.9082 8.08594 15.9082 8.62305L15.9082 10.332C15.9082 10.8789 16.2793 11.25 16.8262 11.25ZM12.0801 18.3301C13.5547 18.3301 15.0586 17.6953 16.1328 16.6211C16.2598 16.4941 16.3379 16.3086 16.3379 16.0742C16.3379 15.6641 16.0254 15.3809 15.625 15.3809C15.4199 15.3809 15.2637 15.4492 15.0391 15.6836C14.3359 16.4062 13.2129 16.9141 12.0801 16.9141C10.9766 16.9141 9.85352 16.4258 9.11133 15.6836C8.93555 15.498 8.7793 15.3809 8.51562 15.3809C8.11523 15.3809 7.80273 15.6641 7.80273 16.0742C7.80273 16.2793 7.88086 16.4551 8.01758 16.6113C9.0332 17.7344 10.5859 18.3301 12.0801 18.3301Z" fill="#ffffff" fill-opacity="0.85"/>
 </g>
</svg>
