<?xml version="1.0" encoding="UTF-8"?>
<!--Generator: Apple Native CoreSVG 232.5-->
<!DOCTYPE svg
PUBLIC "-//W3C//DTD SVG 1.1//EN"
       "http://www.w3.org/Graphics/SVG/1.1/DTD/svg11.dtd">
<svg version="1.1" xmlns="http://www.w3.org/2000/svg" xmlns:xlink="http://www.w3.org/1999/xlink" width="20.3223" height="28.6035">
 <g>
  <rect height="28.6035" opacity="0" width="20.3223" x="0" y="0"/>
  <path d="M4.50195 28.6035L15.4395 28.6035C15.8496 28.6035 16.1133 28.3105 16.1133 27.8906C16.1133 27.0703 15.459 26.4844 14.4043 26.4844L10.8496 26.4844L10.8496 19.9023C15.9473 19.4629 19.9609 15.1855 19.9609 9.9707C19.9609 4.47266 15.4688 0 9.9707 0C4.47266 0 0 4.47266 0 9.9707C0 15.1953 4.01367 19.4824 9.12109 19.9121L9.12109 26.4844L5.53711 26.4844C4.48242 26.4844 3.82812 27.0703 3.82812 27.8906C3.82812 28.3105 4.0918 28.6035 4.50195 28.6035Z" fill="#ffffff" fill-opacity="0.25"/>
  <path d="M6.73828 16.4258C4.90234 16.4258 3.01758 14.3457 3.01758 12.2266C3.01758 11.1035 3.64258 10.5176 4.80469 10.5176L7.22656 10.5176C7.19727 10.3516 7.17773 10.0781 7.1875 9.89258C4.82422 9.12109 3.56445 8.29102 3.56445 6.76758C3.56445 4.93164 5.67383 3.03711 7.7832 3.03711C8.90625 3.03711 9.49219 3.67188 9.49219 4.81445L9.49219 7.19727C9.6875 7.14844 9.96094 7.14844 10.127 7.1582C10.8887 4.83398 11.7285 3.60352 13.2324 3.60352C15.0781 3.60352 16.9531 5.69336 16.9531 7.80273C16.9531 8.92578 16.3281 9.51172 15.1758 9.51172L12.7734 9.51172C12.8027 9.7168 12.8027 9.96094 12.8027 10.1465C15.1562 10.918 16.4062 11.7383 16.4062 13.2715C16.4062 15.1074 14.3066 16.9922 12.1875 16.9922C11.0742 16.9922 10.4785 16.377 10.4785 15.2246L10.4785 12.7344C10.293 12.7832 10.127 12.7734 9.89258 12.7637C9.11133 15.166 8.27148 16.4258 6.73828 16.4258ZM9.98047 11.5332C10.8301 11.5332 11.4941 10.8594 11.4941 10.0293C11.4941 9.17969 10.8301 8.50586 9.98047 8.50586C9.14062 8.50586 8.47656 9.17969 8.47656 10.0293C8.47656 10.8594 9.14062 11.5332 9.98047 11.5332Z" fill="#ffffff" fill-opacity="0.85"/>
 </g>
</svg>
