<?xml version="1.0" encoding="UTF-8"?>
<!--Generator: Apple Native CoreSVG 232.5-->
<!DOCTYPE svg
PUBLIC "-//W3C//DTD SVG 1.1//EN"
       "http://www.w3.org/Graphics/SVG/1.1/DTD/svg11.dtd">
<svg version="1.1" xmlns="http://www.w3.org/2000/svg" xmlns:xlink="http://www.w3.org/1999/xlink" width="25.8008" height="25.459">
 <g>
  <rect height="25.459" opacity="0" width="25.8008" x="0" y="0"/>
  <path d="M12.7148 25.4395C19.6777 25.4395 25.4395 19.6777 25.4395 12.7246C25.4395 5.76172 19.668 0 12.7051 0C5.75195 0 0 5.76172 0 12.7246C0 19.6777 5.76172 25.4395 12.7148 25.4395ZM12.7148 23.623C6.67969 23.623 1.82617 18.7598 1.82617 12.7246C1.82617 6.67969 6.66992 1.82617 12.7051 1.82617C18.75 1.82617 23.6133 6.67969 23.6133 12.7246C23.6133 18.7598 18.7598 23.623 12.7148 23.623Z" fill="#ffffff" fill-opacity="0.55"/>
  <path d="M12.7246 8.4375C13.6816 8.4375 14.4434 7.67578 14.4434 6.71875C14.4434 5.76172 13.6816 4.99023 12.7246 4.99023C11.7773 4.99023 10.9961 5.76172 10.9961 6.71875C10.9961 7.67578 11.7773 8.4375 12.7246 8.4375ZM12.7148 14.502C12.9492 14.502 13.125 14.6387 13.2129 14.9121L14.3848 19.4238C14.6387 20.4199 16.0059 20.0781 15.8594 19.1602C15.8008 18.7695 14.7852 14.9414 14.6484 14.0918C14.541 13.4766 14.5801 11.9141 14.5801 11.1133C14.5801 10.9082 14.7559 10.8008 14.9512 10.8789L16.9922 11.6992C17.5098 11.9141 17.8809 11.6504 17.9883 11.3086C18.1152 10.9668 17.959 10.5469 17.4609 10.3516L15.3125 9.46289C14.7949 9.25781 14.3262 9.14062 13.7988 9.07227C13.4668 9.22852 13.1055 9.30664 12.7148 9.30664C12.3242 9.30664 11.9629 9.22852 11.6406 9.07227C11.1133 9.14062 10.6348 9.25781 10.1172 9.46289L7.97852 10.3516C7.4707 10.5469 7.32422 10.9668 7.44141 11.3086C7.54883 11.6504 7.91992 11.9141 8.4375 11.6992L10.4785 10.8789C10.6836 10.8008 10.8496 10.9082 10.8496 11.1133C10.8496 11.9141 10.8984 13.4766 10.791 14.0918C10.6445 14.9414 9.63867 18.7695 9.57031 19.1602C9.43359 20.0781 10.8008 20.4199 11.0449 19.4238L12.2266 14.9121C12.3047 14.6387 12.4902 14.502 12.7148 14.502Z" fill="#ffffff" fill-opacity="0.85"/>
 </g>
</svg>
