<svg version="1.1" xmlns="http://www.w3.org/2000/svg" xmlns:xlink="http://www.w3.org/1999/xlink" width="26.3379" height="32.8418" viewBox="0 0 26.3379 32.8418">
 <g>
  <rect height="32.8418" opacity="0" width="26.3379" x="0" y="0"/>
  <path d="M18.6363 3.53516L7.34027 3.53516C7.40282 2.64931 7.97728 2.12891 8.91602 2.12891L17.0605 2.12891C17.9993 2.12891 18.5737 2.64931 18.6363 3.53516Z" fill="currentColor"/>
  <path d="M21.1564 6.942C20.8094 6.88925 20.4418 6.86523 20.0586 6.86523L5.91797 6.86523C5.53117 6.86523 5.16046 6.88947 4.81065 6.94255C4.9444 5.91296 5.65963 5.33203 6.80664 5.33203L19.1699 5.33203C20.3167 5.33203 21.0241 5.91275 21.1564 6.942Z" fill="currentColor"/>
  <path d="M5.91797 30.7324L20.0586 30.7324C22.5781 30.7324 23.8574 29.4531 23.8574 26.9629L23.8574 12.7441C23.8574 10.2637 22.5781 8.98438 20.0586 8.98438L5.91797 8.98438C3.38867 8.98438 2.11914 10.2539 2.11914 12.7441L2.11914 26.9629C2.11914 29.4629 3.38867 30.7324 5.91797 30.7324ZM5.94727 29.0039C4.58984 29.0039 3.84766 28.2715 3.84766 26.875L3.84766 12.8418C3.84766 11.4355 4.58984 10.7129 5.94727 10.7129L20.0293 10.7129C21.3574 10.7129 22.1289 11.4355 22.1289 12.8418L22.1289 26.875C22.1289 28.2715 21.3574 29.0039 20.0293 29.0039Z" fill="currentColor"/>
  <path d="M14.7559 15.7031C15.6055 15.7031 16.2891 15.0195 16.2891 14.1699C16.2891 13.3203 15.6055 12.627 14.7559 12.627C13.9062 12.627 13.2227 13.3203 13.2227 14.1699C13.2227 15.0195 13.9062 15.7031 14.7559 15.7031ZM12.3535 21.8652L15.0684 23.3984L13.3203 24.9023C12.9492 25.2246 12.9297 25.6348 13.1641 25.8887C13.4082 26.1621 13.8184 26.2012 14.209 25.8789L16.6504 23.7988C16.9727 23.5156 16.9141 22.9199 16.5234 22.6465L13.8672 20.9082L14.3848 19.0723C14.4629 18.7891 14.7754 18.75 14.9316 18.9941L15.7227 20.127C15.8984 20.3906 16.2305 20.4883 16.5234 20.3613L18.7793 19.3555C19.1602 19.1895 19.3164 18.8477 19.1406 18.4766C18.9746 18.125 18.6328 18.0273 18.252 18.2031L16.4453 18.9941L15.2344 17.2949C14.5898 16.4062 13.7891 16.0645 12.5098 16.1426L10.0098 16.3281C9.61914 16.3574 9.35547 16.6211 9.29688 17.0117L8.96484 19.541C8.91602 19.9805 9.11133 20.2734 9.51172 20.3125C9.89258 20.3613 10.1465 20.127 10.2051 19.6973L10.5078 17.627L11.5137 17.5586C11.748 17.5488 11.9531 17.6953 11.8848 17.9785L11.3184 20.0098C10.9766 21.1914 11.7383 21.5137 12.3535 21.8652ZM7.60742 27.998C7.87109 28.2129 8.27148 28.2324 8.62305 27.8906L10.9082 25.625C11.1133 25.4297 11.1523 25.3809 11.2695 25.0879L12.2461 22.5586L12.0312 22.4414C11.4746 22.1484 11.1035 21.8457 10.8496 21.5332L10 24.5508L7.61719 26.9238C7.25586 27.2852 7.31445 27.7344 7.60742 27.998Z" fill="currentColor"/>
 </g>
</svg>
