<?xml version="1.0" encoding="UTF-8"?>
<!--Generator: Apple Native CoreSVG 232.5-->
<!DOCTYPE svg
PUBLIC "-//W3C//DTD SVG 1.1//EN"
       "http://www.w3.org/Graphics/SVG/1.1/DTD/svg11.dtd">
<svg version="1.1" xmlns="http://www.w3.org/2000/svg" xmlns:xlink="http://www.w3.org/1999/xlink" width="20.7324" height="25.3418">
 <g>
  <rect height="25.3418" opacity="0" width="20.7324" x="0" y="0"/>
  <path d="M11.1914 0.634766C12.8613 1.20117 17.0703 2.76367 18.7402 3.42773C19.8535 3.88672 20.3711 4.31641 20.3711 5.63477L20.3711 15.1367C20.3711 19.502 18.1152 21.2402 11.0156 25.0879C10.7129 25.2441 10.4102 25.3418 10.1855 25.3418C9.96094 25.3418 9.64844 25.2539 9.35547 25.0879C2.37305 21.0449 0 19.502 0 15.1367L0 5.63477C0 4.31641 0.517578 3.86719 1.63086 3.42773C3.30078 2.77344 7.50977 1.20117 9.17969 0.634766C9.51172 0.537109 9.84375 0.449219 10.1855 0.449219C10.5273 0.449219 10.8594 0.527344 11.1914 0.634766ZM7.75391 13.1348L4.56055 15.3027C4.18945 15.5566 4.19922 16.0059 4.53125 16.2305L7.73438 18.4082C8.11523 18.6621 8.62305 18.4961 8.62305 17.9688L8.62305 16.5039L15.0977 16.5039C15.5078 16.5039 15.8398 16.1719 15.8398 15.7715C15.8398 15.3613 15.5078 15.0293 15.0977 15.0293L8.62305 15.0293L8.62305 13.5352C8.62305 13.0273 8.125 12.8906 7.75391 13.1348ZM11.4844 6.94336L11.4844 8.4375L5.00977 8.4375C4.60938 8.4375 4.27734 8.76953 4.27734 9.17969C4.27734 9.58008 4.60938 9.91211 5.00977 9.91211L11.4844 9.91211L11.4844 11.377C11.4844 11.9043 12.002 12.0703 12.3828 11.8164L15.5859 9.63867C15.918 9.41406 15.918 8.96484 15.5566 8.71094L12.3535 6.54297C11.9922 6.29883 11.4844 6.43555 11.4844 6.94336Z" fill="#ffffff" fill-opacity="0.85"/>
 </g>
</svg>
