<svg version="1.1" xmlns="http://www.w3.org/2000/svg" xmlns:xlink="http://www.w3.org/1999/xlink" width="25.8008" height="25.459" viewBox="0 0 25.8008 25.459">
 <g>
  <rect height="25.459" opacity="0" width="25.8008" x="0" y="0"/>
  <path d="M12.7148 25.459C19.6777 25.459 25.4395 19.6973 25.4395 12.7344C25.4395 5.78125 19.668 0.0195312 12.7051 0.0195312C5.75195 0.0195312 0 5.78125 0 12.7344C0 19.6973 5.76172 25.459 12.7148 25.459Z" fill="var(--color-tertiary)"/>
  <path d="M7.77344 19.6387C7.4707 19.6387 7.22656 19.3848 7.22656 19.1016L7.22656 8.21289C7.22656 7.70508 7.48047 7.33398 7.98828 7.10938C8.4375 6.9043 8.86719 6.77734 9.84375 6.77734C12.1875 6.77734 13.6426 7.94922 15.8594 7.94922C16.9434 7.94922 17.5195 7.65625 17.8906 7.65625C18.3594 7.65625 18.5547 7.91016 18.5547 8.27148L18.5547 14.6484C18.5547 15.1855 18.3105 15.5176 17.793 15.7715C17.3047 15.9961 16.875 16.0938 15.9277 16.0938C13.6621 16.0938 12.2266 14.9512 9.91211 14.9512C9.08203 14.9512 8.55469 15.1074 8.30078 15.2148L8.30078 19.1016C8.30078 19.3945 8.08594 19.6387 7.77344 19.6387ZM8.14453 12.373C8.25195 12.1484 8.81836 11.8652 9.82422 11.8652C10.1367 11.8652 10.3027 11.8848 10.5078 11.9043L10.5078 14.0332C11.3965 14.1113 12.1777 14.3359 12.9297 14.5605L12.9297 12.4609C13.7793 12.7441 14.4824 12.9102 15.3418 12.9883L15.3418 15.1172C15.5273 15.166 15.7422 15.1758 15.9668 15.1758C16.9824 15.1758 17.5488 14.8828 17.6562 14.6484L17.6562 12.793C17.1289 12.9395 16.5527 13.0176 15.8887 13.0176C15.6738 13.0176 15.4883 12.998 15.3418 12.9883L15.3418 10.8105C15.4883 10.8203 15.6934 10.8301 15.8887 10.8301C16.6699 10.8301 17.3242 10.6934 17.6562 10.6152L17.6562 8.61328C17.1289 8.76953 16.5527 8.83789 15.8887 8.83789C15.7031 8.83789 15.5176 8.83789 15.3418 8.82812L15.3418 10.8105C14.502 10.7422 13.7305 10.5469 12.9297 10.293L12.9297 8.30078C12.1484 8.05664 11.377 7.80273 10.5078 7.72461L10.5078 9.72656C10.2832 9.69727 10.0391 9.6875 9.82422 9.6875C8.82812 9.6875 8.25195 9.9707 8.14453 10.1953ZM10.5078 11.9043L10.5078 9.72656C11.3965 9.81445 12.1191 10.0391 12.9297 10.293L12.9297 12.4609C12.0703 12.207 11.3965 11.9922 10.5078 11.9043Z" fill="var(--color-primary)"/>
 </g>
</svg>
