<?xml version="1.0" encoding="UTF-8"?>
<!--Generator: Apple Native CoreSVG 232.5-->
<!DOCTYPE svg
PUBLIC "-//W3C//DTD SVG 1.1//EN"
       "http://www.w3.org/Graphics/SVG/1.1/DTD/svg11.dtd">
<svg version="1.1" xmlns="http://www.w3.org/2000/svg" xmlns:xlink="http://www.w3.org/1999/xlink" width="25.8008" height="25.459">
 <g>
  <rect height="25.459" opacity="0" width="25.8008" x="0" y="0"/>
  <path d="M12.7148 25.459C19.6777 25.459 25.4395 19.6973 25.4395 12.7344C25.4395 5.78125 19.668 0.0195312 12.7051 0.0195312C5.75195 0.0195312 0 5.78125 0 12.7344C0 19.6973 5.76172 25.459 12.7148 25.459Z" fill="#ffffff" fill-opacity="0.25"/>
  <path d="M6.72852 5.97656L19.4824 18.7402C19.6973 18.9453 19.6973 19.2676 19.4824 19.4922C19.2773 19.6973 18.9258 19.6875 18.7305 19.4922L5.9668 6.72852C5.76172 6.5332 5.76172 6.19141 5.9668 5.97656C6.18164 5.77148 6.51367 5.77148 6.72852 5.97656ZM13.7911 15.7735C12.5556 15.4365 11.4205 14.9512 9.91211 14.9512C9.08203 14.9512 8.55469 15.1074 8.30078 15.2148L8.30078 19.1016C8.30078 19.3945 8.08594 19.6387 7.77344 19.6387C7.4707 19.6387 7.22656 19.3848 7.22656 19.1016L7.22656 9.20898ZM15.8594 7.94922C16.9434 7.94922 17.5195 7.65625 17.8906 7.65625C18.3594 7.65625 18.5547 7.91016 18.5547 8.27148L18.5547 14.6484C18.5547 15.1855 18.3105 15.5176 17.793 15.7715C17.7794 15.7777 17.7658 15.7839 17.7525 15.7896L8.81208 6.84919C9.08018 6.80269 9.40736 6.77734 9.84375 6.77734C12.1875 6.77734 13.6426 7.94922 15.8594 7.94922Z" fill="#ffffff" fill-opacity="0.85"/>
 </g>
</svg>
