<?xml version="1.0" encoding="UTF-8"?>
<!--Generator: Apple Native CoreSVG 232.5-->
<!DOCTYPE svg
PUBLIC "-//W3C//DTD SVG 1.1//EN"
       "http://www.w3.org/Graphics/SVG/1.1/DTD/svg11.dtd">
<svg version="1.1" xmlns="http://www.w3.org/2000/svg" xmlns:xlink="http://www.w3.org/1999/xlink" width="25.8008" height="25.459">
 <g>
  <rect height="25.459" opacity="0" width="25.8008" x="0" y="0"/>
  <path d="M12.7148 25.4395C19.6777 25.4395 25.4395 19.6777 25.4395 12.7246C25.4395 5.76172 19.668 0 12.7051 0C5.75195 0 0 5.76172 0 12.7246C0 19.6777 5.76172 25.4395 12.7148 25.4395ZM12.7148 23.623C6.67969 23.623 1.82617 18.7598 1.82617 12.7246C1.82617 6.67969 6.66992 1.82617 12.7051 1.82617C18.75 1.82617 23.6133 6.67969 23.6133 12.7246C23.6133 18.7598 18.7598 23.623 12.7148 23.623Z" fill="#ffffff" fill-opacity="0.55"/>
  <path d="M9.33594 6.13281L16.1035 6.13281L16.1035 5.87891C16.1035 4.99023 15.6641 4.53125 14.7754 4.53125L10.6445 4.53125C9.76562 4.53125 9.33594 4.99023 9.33594 5.87891ZM12.0605 20.9082L13.3691 20.9082C14.1992 20.9082 14.668 20.4297 14.668 19.5605L14.668 11.5723C14.668 10.791 14.8438 10.2637 15.127 9.84375L15.5273 9.21875C15.8789 8.69141 16.1035 8.21289 16.1035 7.58789L16.1035 6.875L9.33594 6.875L9.33594 7.58789C9.33594 8.21289 9.56055 8.68164 9.90234 9.21875L10.3027 9.84375C10.5762 10.2734 10.7617 10.791 10.7617 11.5723L10.7617 19.5605C10.7617 20.4297 11.2305 20.9082 12.0605 20.9082ZM11.5137 12.1973C11.5137 11.5234 12.0312 10.9863 12.7148 10.9863C13.3887 10.9863 13.9258 11.5234 13.9258 12.1973L13.9258 14.248C13.9258 14.9121 13.3887 15.459 12.7148 15.459C12.0312 15.459 11.5137 14.9121 11.5137 14.248ZM12.7148 15.0195C13.1738 15.0195 13.4863 14.6777 13.4863 14.248C13.4863 13.8184 13.1543 13.4668 12.7148 13.4668C12.2852 13.4668 11.9434 13.8184 11.9434 14.248C11.9434 14.6777 12.2754 15.0195 12.7148 15.0195Z" fill="#ffffff" fill-opacity="0.85"/>
 </g>
</svg>
