<svg version="1.1" xmlns="http://www.w3.org/2000/svg" xmlns:xlink="http://www.w3.org/1999/xlink" width="25.8496" height="20.4785" viewBox="0 0 25.8496 20.4785">
 <g>
  <rect height="20.4785" opacity="0" width="25.8496" x="0" y="0"/>
  <path d="M3.79883 20.4785C4.30664 20.4785 4.7168 20.0879 4.7168 19.5898L4.7168 0.908203C4.7168 0.400391 4.30664 0.00976562 3.79883 0.00976562C3.30078 0.00976562 2.89062 0.400391 2.89062 0.908203L2.89062 19.5898C2.89062 20.0879 3.30078 20.4785 3.79883 20.4785ZM10.4492 19.9707C10.9277 19.9707 11.3379 19.8047 11.8066 19.541L24.7168 11.9434C25.498 11.4746 25.8496 10.9082 25.8496 10.2441C25.8496 9.57031 25.498 9.01367 24.7168 8.54492L11.8066 0.947266C11.3379 0.683594 10.9277 0.517578 10.4492 0.517578C9.54102 0.517578 8.75977 1.20117 8.75977 2.5293L8.75977 17.959C8.75977 19.2871 9.54102 19.9707 10.4492 19.9707ZM10.8887 18.0078C10.6934 18.0078 10.4785 17.8711 10.4785 17.5391L10.4785 2.94922C10.4785 2.61719 10.6934 2.48047 10.8887 2.48047C10.9863 2.48047 11.1035 2.50977 11.2598 2.60742L23.4766 9.84375C23.6816 9.96094 23.7891 10.0488 23.7891 10.2441C23.7891 10.4297 23.6719 10.5371 23.4766 10.6445L11.2598 17.8809C11.1035 17.9785 10.9863 18.0078 10.8887 18.0078Z" fill="var(--color-primary)"/>
 </g>
</svg>
