<?xml version="1.0" encoding="UTF-8"?>
<!--Generator: Apple Native CoreSVG 232.5-->
<!DOCTYPE svg
PUBLIC "-//W3C//DTD SVG 1.1//EN"
       "http://www.w3.org/Graphics/SVG/1.1/DTD/svg11.dtd">
<svg version="1.1" xmlns="http://www.w3.org/2000/svg" xmlns:xlink="http://www.w3.org/1999/xlink" width="36.2305" height="20.4785">
 <g>
  <rect height="20.4785" opacity="0" width="36.2305" x="0" y="0"/>
  <path d="M34.9609 20.4785C35.459 20.4785 35.8691 20.0879 35.8691 19.5898L35.8691 0.908203C35.8691 0.400391 35.459 0.00976562 34.9609 0.00976562C34.4531 0.00976562 34.043 0.400391 34.043 0.908203L34.043 19.5898C34.043 20.0879 34.4531 20.4785 34.9609 20.4785ZM1.68945 19.9707C2.1582 19.9707 2.57812 19.8047 3.03711 19.541L15.9473 11.9434C16.7285 11.4746 17.0898 10.9082 17.0898 10.2441C17.0898 9.57031 16.7383 9.01367 15.9473 8.54492L3.03711 0.947266C2.56836 0.683594 2.1582 0.517578 1.68945 0.517578C0.78125 0.517578 0 1.20117 0 2.5293L0 17.959C0 19.2871 0.78125 19.9707 1.68945 19.9707ZM2.12891 18.0078C1.92383 18.0078 1.71875 17.8711 1.71875 17.5391L1.71875 2.94922C1.71875 2.61719 1.92383 2.48047 2.12891 2.48047C2.22656 2.48047 2.33398 2.50977 2.5 2.60742L14.707 9.84375C14.9121 9.96094 15.0195 10.0488 15.0195 10.2441C15.0195 10.4297 14.9121 10.5371 14.707 10.6445L2.5 17.8809C2.34375 17.9785 2.22656 18.0078 2.12891 18.0078ZM18.7109 19.9707C19.1895 19.9707 19.5996 19.8047 20.0586 19.541L32.9688 11.9434C33.75 11.4746 34.1113 10.9082 34.1113 10.2441C34.1113 9.57031 33.7598 9.01367 32.9688 8.54492L20.0586 0.947266C19.5996 0.683594 19.1895 0.517578 18.7109 0.517578C17.8027 0.517578 17.0215 1.20117 17.0215 2.5293L17.0215 17.959C17.0215 19.2871 17.8027 19.9707 18.7109 19.9707ZM19.1504 18.0078C18.9453 18.0078 18.7402 17.8711 18.7402 17.5391L18.7402 2.94922C18.7402 2.61719 18.9453 2.48047 19.1504 2.48047C19.248 2.48047 19.3555 2.50977 19.5215 2.60742L31.7285 9.84375C31.9336 9.96094 32.041 10.0488 32.041 10.2441C32.041 10.4297 31.9336 10.5371 31.7285 10.6445L19.5215 17.8809C19.3652 17.9785 19.248 18.0078 19.1504 18.0078Z" fill="#ffffff" fill-opacity="0.85"/>
 </g>
</svg>
