<svg version="1.1" xmlns="http://www.w3.org/2000/svg" xmlns:xlink="http://www.w3.org/1999/xlink" width="23.3203" height="22.9785" viewBox="0 0 23.3203 22.9785">
 <g>
  <rect height="22.9785" opacity="0" width="23.3203" x="0" y="0"/>
  <path d="M22.959 3.78906L22.959 19.2188C22.959 21.709 21.6797 22.9785 19.1504 22.9785L3.79883 22.9785C1.2793 22.9785 0 21.7188 0 19.2188L0 3.78906C0 1.28906 1.2793 0.0292969 3.79883 0.0292969L19.1504 0.0292969C21.6797 0.0292969 22.959 1.29883 22.959 3.78906ZM9.19922 5.76172C8.75977 5.76172 8.47656 6.05469 8.47656 6.51367L8.47656 14.4629L7.45117 14.4629C7.10938 14.4629 6.89453 14.6973 6.89453 15.0293C6.89453 15.3613 7.10938 15.6055 7.45117 15.6055L8.47656 15.6055L8.47656 17.0898C8.47656 17.5293 8.78906 17.8223 9.20898 17.8223C9.64844 17.8223 9.95117 17.5195 9.95117 17.0801L9.95117 15.6055L12.7246 15.6055C13.0664 15.6055 13.291 15.3613 13.291 15.0293C13.291 14.6973 13.0664 14.4629 12.7246 14.4629L9.95117 14.4629L9.95117 12.2656L14.3457 12.2656C14.7461 12.2656 15.0391 11.9922 15.0391 11.582C15.0391 11.1621 14.7461 10.8984 14.3457 10.8984L9.95117 10.8984L9.95117 7.13867L14.8145 7.13867C15.2148 7.13867 15.5078 6.85547 15.5078 6.44531C15.5078 6.02539 15.2148 5.76172 14.8145 5.76172Z" fill="var(--color-primary)"/>
 </g>
</svg>
