<?xml version="1.0" encoding="UTF-8"?>
<!--Generator: Apple Native CoreSVG 232.5-->
<!DOCTYPE svg
PUBLIC "-//W3C//DTD SVG 1.1//EN"
       "http://www.w3.org/Graphics/SVG/1.1/DTD/svg11.dtd">
<svg version="1.1" xmlns="http://www.w3.org/2000/svg" xmlns:xlink="http://www.w3.org/1999/xlink" width="34.5923" height="33.6451">
 <g>
  <rect height="33.6451" opacity="0" width="34.5923" x="0" y="0"/>
  <path d="M8.62427 13.8598L8.62427 14.6204C8.62427 15.4603 9.17115 15.9778 10.0696 15.9778L10.7446 15.9778L22.9114 28.1315L22.9114 28.9954L23.7762 28.9954L24.7644 29.9825C24.6977 30.398 24.3304 30.7239 23.9075 30.7239L5.62623 30.7239C5.16724 30.7239 4.77662 30.3235 4.77662 29.845C4.77662 29.3763 5.17701 28.9954 5.62623 28.9954L6.65162 28.9954L6.65162 11.8893ZM27.2083 4.85478L28.9465 7.65752C29.2786 8.18486 29.4446 8.68291 29.4446 9.34697L29.4446 24.6399C29.4446 25.815 28.9407 26.6721 28.0555 27.0703L26.777 25.7922C26.7775 25.7923 26.778 25.7923 26.7786 25.7923C27.4817 25.7923 27.9211 25.3528 27.9211 24.6399L27.9211 15.3138L25.8606 12.9017C25.3626 12.306 25.304 11.681 25.7825 11.0169L27.4036 8.73174C27.5403 8.53642 27.5501 8.30205 27.4329 8.10674L25.9094 5.65556C25.3528 4.75713 26.6516 3.95635 27.2083 4.85478ZM16.9591 15.9778L19.4836 15.9778C20.3723 15.9778 20.9387 15.4603 20.9387 14.6204L20.9387 6.2708C20.9387 5.42119 20.3723 4.90361 19.4836 4.90361L10.0696 4.90361C9.17115 4.90361 8.62427 5.42119 8.62427 6.2708L8.62427 7.646L6.6675 5.68992C6.80307 3.88741 7.87591 2.91142 9.80591 2.91142L19.7376 2.91142C21.7883 2.91142 22.9114 4.04424 22.9114 6.09502L22.9114 17.7747L23.0383 17.7747C24.6399 17.7747 25.6165 18.7317 25.6165 20.3724L25.6165 24.6321L24.093 23.1092L24.093 20.3724C24.093 19.6888 23.6731 19.3079 23.0383 19.3079L22.9114 19.3079L22.9114 21.928Z" fill="#ffffff" fill-opacity="0.85"/>
  <path d="M28.7512 32.0423C29.0833 32.3743 29.6106 32.3743 29.9329 32.0423C30.2551 31.7103 30.2649 31.1829 29.9329 30.8606L2.79419 3.7415C2.47193 3.41924 1.94459 3.40947 1.60279 3.7415C1.28052 4.054 1.28052 4.60088 1.60279 4.91338Z" fill="#ffffff" fill-opacity="0.85"/>
 </g>
</svg>
