<?xml version="1.0" encoding="UTF-8"?>
<!--Generator: Apple Native CoreSVG 232.5-->
<!DOCTYPE svg
PUBLIC "-//W3C//DTD SVG 1.1//EN"
       "http://www.w3.org/Graphics/SVG/1.1/DTD/svg11.dtd">
<svg version="1.1" xmlns="http://www.w3.org/2000/svg" xmlns:xlink="http://www.w3.org/1999/xlink" width="25.8008" height="30.2765">
 <g>
  <rect height="30.2765" opacity="0" width="25.8008" x="0" y="0"/>
  <path d="M0 15.1431C0 22.106 5.76172 27.858 12.7148 27.858C19.6777 27.858 25.4395 22.106 25.4395 15.1431C25.4395 10.8365 23.2227 6.99861 19.8926 4.70369C19.4141 4.34236 18.8281 4.46931 18.5645 4.899C18.3008 5.34822 18.4375 5.85603 18.877 6.1783C21.7285 8.12165 23.6035 11.4029 23.6133 15.1431C23.623 21.1783 18.7598 26.0416 12.7148 26.0416C6.67969 26.0416 1.82617 21.1783 1.82617 15.1431C1.82617 9.90876 5.46875 5.56306 10.3613 4.50837L10.3613 6.48103C10.3613 7.27205 10.9082 7.48689 11.5332 7.04744L15.4883 4.274C16.0059 3.91267 16.0156 3.37556 15.4883 3.00447L11.543 0.23103C10.9082-0.218189 10.3613-0.0033455 10.3613 0.797436L10.3613 2.6529C4.50195 3.76619 0 8.98103 0 15.1431Z" fill="#ffffff" fill-opacity="0.85"/>
  <path d="M9.4043 20.2701C9.88281 20.2701 10.166 19.9381 10.166 19.4595L10.166 11.2467C10.166 10.7095 9.83398 10.397 9.29688 10.397C8.85742 10.397 8.54492 10.5826 8.20312 10.8463L6.63086 11.9986C6.41602 12.1646 6.2793 12.3502 6.2793 12.6236C6.2793 12.9459 6.51367 13.19 6.83594 13.19C6.99219 13.19 7.10938 13.1412 7.23633 13.0533L8.62305 12.0181L8.63281 12.0181L8.63281 19.4595C8.63281 19.9381 8.92578 20.2701 9.4043 20.2701ZM15.4785 20.3482C17.4219 20.3482 18.6328 18.9029 18.6328 16.9595C18.6328 15.2506 17.6465 13.815 15.957 13.815C15.1074 13.815 14.375 14.2056 14.0039 14.8697L13.9648 14.8697L14.2285 11.7838L17.5684 11.7838C17.9395 11.7838 18.1934 11.5299 18.1934 11.1588C18.1934 10.7779 17.9492 10.5338 17.5684 10.5338L13.8574 10.5338C13.2617 10.5338 12.9883 10.8463 12.9492 11.442L12.6465 15.2701C12.6074 15.7681 12.8711 16.1392 13.3496 16.1392C13.7207 16.1392 13.8867 15.9732 14.1211 15.6998C14.4531 15.2408 14.9316 14.9576 15.5078 14.9576C16.5723 14.9576 17.1582 15.9146 17.1582 16.9986C17.1582 18.1314 16.5527 19.108 15.4688 19.108C14.6387 19.108 14.0625 18.5611 13.8184 17.8385C13.6719 17.5064 13.4473 17.3404 13.1543 17.3404C12.7539 17.3404 12.5098 17.5943 12.5098 17.9849C12.5098 18.1217 12.5391 18.2779 12.5781 18.4146C12.9004 19.6256 14.2285 20.3482 15.4785 20.3482Z" fill="#ffffff" fill-opacity="0.85"/>
 </g>
</svg>
