<svg version="1.1" xmlns="http://www.w3.org/2000/svg" xmlns:xlink="http://www.w3.org/1999/xlink" width="23.3203" height="22.9785" viewBox="0 0 23.3203 22.9785">
 <g>
  <rect height="22.9785" opacity="0" width="23.3203" x="0" y="0"/>
  <path d="M22.959 3.78906L22.959 19.2188C22.959 21.709 21.6797 22.9785 19.1504 22.9785L3.79883 22.9785C1.2793 22.9785 0 21.7188 0 19.2188L0 3.78906C0 1.28906 1.2793 0.0292969 3.79883 0.0292969L19.1504 0.0292969C21.6797 0.0292969 22.959 1.29883 22.959 3.78906ZM7.27539 7.12891C7.27539 7.54883 7.48047 7.82227 7.92969 8.04688L14.5312 11.416L14.5312 11.4941L7.92969 14.8145C7.4707 15.0293 7.27539 15.293 7.27539 15.7129C7.27539 16.2207 7.66602 16.6113 8.20312 16.6113C8.42773 16.6113 8.57422 16.5527 8.75 16.4648L16.3379 12.4707C16.7871 12.2363 16.9922 11.9531 16.9922 11.4844C16.9922 11.0645 16.7676 10.7422 16.3379 10.498L8.75 6.38672C8.56445 6.29883 8.42773 6.25 8.18359 6.25C7.65625 6.25 7.27539 6.63086 7.27539 7.12891Z" fill="var(--color-primary)"/>
 </g>
</svg>
