<?xml version="1.0" encoding="UTF-8"?>
<!--Generator: Apple Native CoreSVG 232.5-->
<!DOCTYPE svg
PUBLIC "-//W3C//DTD SVG 1.1//EN"
       "http://www.w3.org/Graphics/SVG/1.1/DTD/svg11.dtd">
<svg version="1.1" xmlns="http://www.w3.org/2000/svg" xmlns:xlink="http://www.w3.org/1999/xlink" width="25.8008" height="25.459">
 <g>
  <rect height="25.459" opacity="0" width="25.8008" x="0" y="0"/>
  <path d="M12.7148 25.4395C19.6777 25.4395 25.4395 19.6777 25.4395 12.7246C25.4395 5.76172 19.668 0 12.7051 0C5.75195 0 0 5.76172 0 12.7246C0 19.6777 5.76172 25.4395 12.7148 25.4395ZM12.7148 23.623C6.67969 23.623 1.82617 18.7598 1.82617 12.7246C1.82617 6.67969 6.66992 1.82617 12.7051 1.82617C18.75 1.82617 23.6133 6.67969 23.6133 12.7246C23.6133 18.7598 18.7598 23.623 12.7148 23.623Z" fill="#ffffff" fill-opacity="0.55"/>
  <path d="M5.55664 15.1855C5.55664 15.6738 5.85938 15.957 6.35742 15.957L9.45312 15.957L9.45312 19.043C9.45312 19.5508 9.73633 19.8535 10.2246 19.8535C10.6738 19.8535 10.9766 19.5508 10.9766 19.043L10.9766 15.957L14.4434 15.957L14.4434 19.043C14.4434 19.5508 14.7266 19.8535 15.2051 19.8535C15.6641 19.8535 15.9668 19.5508 15.9668 19.043L15.9668 15.957L19.0527 15.957C19.5508 15.957 19.8535 15.6738 19.8535 15.1855C19.8535 14.7266 19.5508 14.4336 19.0527 14.4336L15.9668 14.4336L15.9668 10.9863L19.0527 10.9863C19.5508 10.9863 19.8535 10.6836 19.8535 10.2246C19.8535 9.74609 19.5508 9.46289 19.0527 9.46289L15.9668 9.46289L15.9668 6.36719C15.9668 5.86914 15.6641 5.56641 15.2051 5.56641C14.7266 5.56641 14.4434 5.86914 14.4434 6.36719L14.4434 9.46289L10.9766 9.46289L10.9766 6.36719C10.9766 5.86914 10.6738 5.56641 10.2246 5.56641C9.73633 5.56641 9.45312 5.86914 9.45312 6.36719L9.45312 9.46289L6.35742 9.46289C5.85938 9.46289 5.55664 9.74609 5.55664 10.2246C5.55664 10.6836 5.85938 10.9863 6.35742 10.9863L9.45312 10.9863L9.45312 14.4336L6.35742 14.4336C5.85938 14.4336 5.55664 14.7266 5.55664 15.1855ZM10.9863 14.4336L10.9863 10.9863L14.4531 10.9863L14.4531 14.4336Z" fill="#ffffff" fill-opacity="0.85"/>
 </g>
</svg>
