<svg version="1.1" xmlns="http://www.w3.org/2000/svg" xmlns:xlink="http://www.w3.org/1999/xlink" width="23.3203" height="23.2715" viewBox="0 0 23.3203 23.2715">
 <g>
  <rect height="23.2715" opacity="0" width="23.3203" x="0" y="0"/>
  <path d="M3.79883 23.2715L19.1504 23.2715C21.6797 23.2715 22.959 21.9922 22.959 19.5117L22.959 4.08203C22.959 1.5918 21.6797 0.3125 19.1504 0.3125L3.79883 0.3125C1.2793 0.3125 0 1.58203 0 4.08203L0 19.5117C0 22.0117 1.2793 23.2715 3.79883 23.2715ZM3.83789 21.543C2.4707 21.543 1.72852 20.8203 1.72852 19.4141L1.72852 4.16992C1.72852 2.77344 2.4707 2.05078 3.83789 2.05078L19.1211 2.05078C20.459 2.05078 21.2305 2.77344 21.2305 4.16992L21.2305 19.4141C21.2305 20.8203 20.459 21.543 19.1211 21.543Z" fill="var(--color-primary)"/>
  <path d="M6.14258 14.1699C6.14258 17.4707 8.27148 19.3848 11.2109 19.3848C13.5059 19.3848 15.1172 18.3984 16.1133 16.0547C16.6309 14.9219 17.041 13.6328 17.4707 12.1777C17.627 11.6406 17.8418 11.0254 17.8418 10.7324C17.8418 10.332 17.5391 10.0684 17.1289 10.0684C16.709 10.0684 16.4355 10.3223 16.1426 10.9375L15.1172 13.1836C15.0098 13.4473 14.873 13.5352 14.7461 13.5352C14.5703 13.5352 14.4531 13.418 14.4531 13.1445L14.4531 5.46875C14.4531 5.04883 14.1016 4.69727 13.6719 4.69727C13.2422 4.69727 12.9004 5.04883 12.9004 5.46875L12.9004 10.8984C12.6855 10.8301 12.4609 10.752 12.2266 10.7031L12.2266 4.30664C12.2266 3.88672 11.8848 3.52539 11.4551 3.52539C11.0254 3.52539 10.6738 3.88672 10.6738 4.30664L10.6738 10.6152C10.4297 10.6348 10.1758 10.6641 9.94141 10.7129L9.94141 5C9.94141 4.57031 9.58008 4.22852 9.15039 4.22852C8.73047 4.22852 8.36914 4.57031 8.36914 5L8.36914 11.2109C8.11523 11.3184 7.91016 11.4648 7.70508 11.5918L7.70508 7.31445C7.70508 6.88477 7.35352 6.5332 6.92383 6.5332C6.49414 6.5332 6.14258 6.88477 6.14258 7.31445Z" fill="var(--color-primary)"/>
 </g>
</svg>
