<svg version="1.1" xmlns="http://www.w3.org/2000/svg" xmlns:xlink="http://www.w3.org/1999/xlink" width="25.8008" height="25.459" viewBox="0 0 25.8008 25.459">
 <g>
  <rect height="25.459" opacity="0" width="25.8008" x="0" y="0"/>
  <path d="M25.4395 12.7246C25.4395 19.6777 19.6777 25.4395 12.7148 25.4395C5.76172 25.4395 0 19.6777 0 12.7246C0 5.76172 5.75195 0 12.7051 0C19.668 0 25.4395 5.76172 25.4395 12.7246ZM5.9668 5.95703C5.76172 6.17188 5.76172 6.51367 5.9668 6.70898L18.7305 19.4824C18.9258 19.6777 19.2773 19.6777 19.4824 19.4824C19.6973 19.2578 19.6973 18.9355 19.4824 18.7207L6.72852 5.95703C6.51367 5.75195 6.18164 5.75195 5.9668 5.95703ZM5.85938 10.8984C5.85938 14.3652 9.58008 17.5195 12.1191 19.1211C12.3242 19.2578 12.5879 19.4043 12.7344 19.4043C12.8906 19.4043 13.1152 19.2578 13.3105 19.1211C13.9835 18.6698 14.7499 18.1151 15.5097 17.4746L6.56731 8.53903C6.1159 9.17986 5.85938 9.99006 5.85938 10.8984ZM12.7148 8.94531C12.0801 7.80273 10.9961 6.99219 9.60938 6.99219C9.40472 6.99219 9.20529 7.00689 9.01391 7.03997L17.5066 15.5262C18.6953 14.1506 19.5703 12.5687 19.5703 10.8984C19.5703 8.64258 17.9883 6.99219 15.8203 6.99219C14.4531 6.99219 13.3496 7.80273 12.7148 8.94531Z" fill="var(--color-primary)"/>
 </g>
</svg>
