<svg version="1.1" xmlns="http://www.w3.org/2000/svg" xmlns:xlink="http://www.w3.org/1999/xlink" width="25.2344" height="27.0362" viewBox="0 0 25.2344 27.0362">
 <g>
  <rect height="27.0362" opacity="0" width="25.2344" x="0" y="0"/>
  <path d="M1.66016 21.3745L10.498 26.4722C11.7969 27.2241 13.0664 27.2241 14.3848 26.4722L23.2129 21.3745C24.3164 20.7398 24.873 20.105 24.873 18.4741L24.873 8.38625C24.873 6.87258 24.3066 6.29641 23.3691 5.74953L14.4922 0.593284C13.1055-0.207497 11.7383-0.187966 10.3809 0.593284L1.51367 5.74953C0.576172 6.29641 0 6.87258 0 8.38625L0 18.4741C0 20.105 0.556641 20.7398 1.66016 21.3745ZM23.1445 13.5132L1.72852 13.5132L1.72852 8.42532C1.72852 7.85891 1.92383 7.59524 2.46094 7.28274L11.123 2.23391C12.0312 1.70657 12.8223 1.68703 13.7598 2.23391L22.4121 7.28274C22.959 7.59524 23.1445 7.85891 23.1445 8.42532Z" fill="currentColor"/>
 </g>
</svg>
