<svg version="1.1" xmlns="http://www.w3.org/2000/svg" xmlns:xlink="http://www.w3.org/1999/xlink" width="25.8008" height="25.459" viewBox="0 0 25.8008 25.459">
 <g>
  <rect height="25.459" opacity="0" width="25.8008" x="0" y="0"/>
  <path d="M25.4395 12.7246C25.4395 19.6777 19.6777 25.4395 12.7148 25.4395C5.76172 25.4395 0 19.6777 0 12.7246C0 5.76172 5.75195 0 12.7051 0C19.668 0 25.4395 5.76172 25.4395 12.7246ZM9.16992 5.16602C8.38867 5.16602 7.90039 5.625 7.90039 6.44531L7.90039 6.62109C7.90039 8.57422 10.0195 10.752 11.2598 11.9922C11.7285 12.4414 11.7578 12.9395 11.2598 13.4375C10.0195 14.6777 7.90039 16.8555 7.90039 18.7891L7.90039 19.0039C7.90039 19.8145 8.38867 20.2734 9.16992 20.2734L16.2598 20.2734C17.041 20.2734 17.5391 19.8145 17.5391 19.0039L17.5391 18.7891C17.5391 16.8555 15.4199 14.6777 14.1699 13.4375C13.6719 12.9395 13.7109 12.4414 14.1699 11.9922C15.4199 10.752 17.5391 8.57422 17.5391 6.62109L17.5391 6.44531C17.5391 5.625 17.041 5.16602 16.2598 5.16602ZM15.2441 9.62891C14.707 10.2246 14.0723 10.8496 13.457 11.4746C13.2227 11.709 13.1543 11.8555 13.1543 12.1777L13.1543 15.752C13.1543 15.8789 13.1934 15.9277 13.291 16.0254L15.8398 18.6719C16.0742 18.877 15.9961 19.248 15.6641 19.248L9.76562 19.248C9.44336 19.248 9.36523 18.877 9.58984 18.6719L12.1484 16.0254C12.2363 15.9277 12.2754 15.8789 12.2754 15.752L12.2754 12.1777C12.2754 11.8555 12.207 11.709 11.9824 11.4746C11.3574 10.8496 10.7227 10.2246 10.1953 9.62891C9.99023 9.41406 10.0977 9.18945 10.3418 9.18945L15.0879 9.18945C15.332 9.18945 15.4395 9.41406 15.2441 9.62891Z" fill="currentColor"/>
 </g>
</svg>
