<svg version="1.1" xmlns="http://www.w3.org/2000/svg" xmlns:xlink="http://www.w3.org/1999/xlink" width="17.7637" height="23.0762" viewBox="0 0 17.7637 23.0762">
 <g>
  <rect height="23.0762" opacity="0" width="17.7637" x="0" y="0"/>
  <path d="M8.58398 0C5.83008 0 3.41797 1.18164 2.31445 3.53516C2.07031 3.89648 1.93359 4.26758 1.92383 4.6875C1.92383 5.19531 2.23633 5.58594 2.83203 5.58594C3.21289 5.58594 3.53516 5.41992 3.75 4.90234C4.44336 2.93945 6.36719 1.79688 8.64258 1.79688C11.4453 1.79688 13.6426 3.21289 13.6426 5.69336C13.6426 6.79688 13.0371 8.04688 11.6895 8.62305L14.0137 8.62305C15.0586 7.89062 15.6055 6.69922 15.6055 5.56641C15.6055 2.09961 12.5098 0 8.58398 0ZM0.712891 9.74609L16.6797 9.74609C17.0898 9.74609 17.4023 9.44336 17.4023 9.04297C17.4023 8.62305 17.0898 8.33008 16.6797 8.33008L0.712891 8.33008C0.3125 8.33008 0 8.62305 0 9.04297C0 9.44336 0.3125 9.74609 0.712891 9.74609ZM0.712891 14.0723L16.6797 14.0723C17.0898 14.0723 17.4023 13.75 17.4023 13.3594C17.4023 12.9395 17.0898 12.6465 16.6797 12.6465L0.712891 12.6465C0.3125 12.6465 0 12.9395 0 13.3594C0 13.75 0.3125 14.0723 0.712891 14.0723ZM8.71094 23.0566C12.1777 23.0566 14.6582 21.5234 15.6543 19.1016C15.8789 18.7305 16.0352 18.3887 16.0352 17.9492C16.0352 17.4219 15.6641 17.0508 15.1367 17.0508C14.6094 17.0508 14.3359 17.3438 14.1602 17.7539C13.418 20.0293 11.4746 21.2598 8.65234 21.2598C5.40039 21.2598 3.34961 19.4531 3.34961 17.334C3.34961 15.8691 4.23828 14.4824 6.18164 13.75L3.75977 13.75C2.28516 14.4629 1.38672 15.8496 1.38672 17.4219C1.38672 20.5566 4.22852 23.0566 8.71094 23.0566Z" fill="currentColor"/>
 </g>
</svg>
