<?xml version="1.0" encoding="UTF-8"?>
<!--Generator: Apple Native CoreSVG 232.5-->
<!DOCTYPE svg
PUBLIC "-//W3C//DTD SVG 1.1//EN"
       "http://www.w3.org/Graphics/SVG/1.1/DTD/svg11.dtd">
<svg version="1.1" xmlns="http://www.w3.org/2000/svg" xmlns:xlink="http://www.w3.org/1999/xlink" width="25.8008" height="25.459">
 <g>
  <rect height="25.459" opacity="0" width="25.8008" x="0" y="0"/>
  <path d="M12.7148 25.459C19.6777 25.459 25.4395 19.6973 25.4395 12.7344C25.4395 5.78125 19.668 0.0195312 12.7051 0.0195312C5.75195 0.0195312 0 5.78125 0 12.7344C0 19.6973 5.76172 25.459 12.7148 25.459Z" fill="#ffffff" fill-opacity="0.25"/>
  <path d="M8.62305 12.7344C8.62305 7.77344 12.3828 4.4043 17.1484 4.4043C17.5391 4.4043 17.8223 4.6875 17.8223 5.04883C17.8223 5.41016 17.5488 5.70312 17.1484 5.70312C14.2969 5.70312 11.9434 7.06055 10.752 9.26758C11.3086 8.85742 11.9922 8.63281 12.7148 8.63281C14.9414 8.63281 16.8164 10.4883 16.8164 12.7344C16.8164 17.6953 13.0469 21.0742 8.29102 21.0742C7.89062 21.0742 7.60742 20.7715 7.60742 20.4297C7.60742 20.0684 7.89062 19.7656 8.29102 19.7656C11.123 19.7656 13.4766 18.418 14.6777 16.2207C14.1211 16.6113 13.4473 16.8457 12.7148 16.8457C10.4883 16.8457 8.62305 14.9902 8.62305 12.7344ZM11.4746 12.7344C11.4746 13.418 12.041 13.9746 12.7148 13.9746C13.3984 13.9746 13.9551 13.4082 13.9551 12.7344C13.9551 12.0508 13.3984 11.4941 12.7148 11.4941C12.041 11.4941 11.4746 12.0508 11.4746 12.7344Z" fill="#ffffff" fill-opacity="0.85"/>
 </g>
</svg>
