<svg version="1.1" xmlns="http://www.w3.org/2000/svg" xmlns:xlink="http://www.w3.org/1999/xlink" width="25.8008" height="25.459" viewBox="0 0 25.8008 25.459">
 <g>
  <rect height="25.459" opacity="0" width="25.8008" x="0" y="0"/>
  <path d="M12.7148 25.4395C19.6777 25.4395 25.4395 19.6777 25.4395 12.7246C25.4395 5.76172 19.668 0 12.7051 0C5.75195 0 0 5.76172 0 12.7246C0 19.6777 5.76172 25.4395 12.7148 25.4395ZM12.7148 23.623C6.67969 23.623 1.82617 18.7598 1.82617 12.7246C1.82617 6.67969 6.66992 1.82617 12.7051 1.82617C18.75 1.82617 23.6133 6.67969 23.6133 12.7246C23.6133 18.7598 18.7598 23.623 12.7148 23.623Z" fill="var(--color-secondary)"/>
  <path d="M12.6953 18.4668C13.2617 18.4668 13.5645 18.0957 13.5645 17.5098L13.5645 7.76367C13.5645 7.16797 13.2617 6.80664 12.6953 6.80664C12.1484 6.80664 11.8457 7.1875 11.8457 7.76367L11.8457 17.5098C11.8457 18.0762 12.1484 18.4668 12.6953 18.4668Z" fill="var(--color-primary)"/>
 </g>
</svg>
