<?xml version="1.0" encoding="UTF-8"?>
<!--Generator: Apple Native CoreSVG 232.5-->
<!DOCTYPE svg
PUBLIC "-//W3C//DTD SVG 1.1//EN"
       "http://www.w3.org/Graphics/SVG/1.1/DTD/svg11.dtd">
<svg version="1.1" xmlns="http://www.w3.org/2000/svg" xmlns:xlink="http://www.w3.org/1999/xlink" width="23.3203" height="22.9785">
 <g>
  <rect height="22.9785" opacity="0" width="23.3203" x="0" y="0"/>
  <path d="M3.79883 22.9785L19.1504 22.9785C21.6797 22.9785 22.959 21.709 22.959 19.2188L22.959 3.78906C22.959 1.29883 21.6797 0.0292969 19.1504 0.0292969L3.79883 0.0292969C1.2793 0.0292969 0 1.28906 0 3.78906L0 19.2188C0 21.7188 1.2793 22.9785 3.79883 22.9785Z" fill="#ffffff" fill-opacity="0.25"/>
  <path d="M6.8457 16.2012C4.92188 16.2012 3.53516 15.0293 3.53516 12.9688C3.53516 11.5332 4.44336 10.3809 5.64453 9.90234C5.78125 8.57422 6.89453 7.60742 8.23242 7.60742C8.39844 7.60742 8.63281 7.63672 8.81836 7.67578C9.66797 6.45508 11.084 5.69336 12.6758 5.69336C15.3809 5.69336 17.4316 7.8125 17.4316 10.4297C17.4316 10.5664 17.4219 10.7422 17.4121 10.8984C18.5742 11.1328 19.4531 12.207 19.4531 13.5059C19.4531 15.0098 18.291 16.2012 16.7383 16.2012Z" fill="#ffffff" fill-opacity="0.85"/>
 </g>
</svg>
