<?xml version="1.0" encoding="UTF-8"?>
<!--Generator: Apple Native CoreSVG 232.5-->
<!DOCTYPE svg
PUBLIC "-//W3C//DTD SVG 1.1//EN"
       "http://www.w3.org/Graphics/SVG/1.1/DTD/svg11.dtd">
<svg version="1.1" xmlns="http://www.w3.org/2000/svg" xmlns:xlink="http://www.w3.org/1999/xlink" width="23.3203" height="22.9785">
 <g>
  <rect height="22.9785" opacity="0" width="23.3203" x="0" y="0"/>
  <path d="M3.79883 22.9785L19.1504 22.9785C21.6797 22.9785 22.959 21.709 22.959 19.2188L22.959 3.78906C22.959 1.29883 21.6797 0.0292969 19.1504 0.0292969L3.79883 0.0292969C1.2793 0.0292969 0 1.28906 0 3.78906L0 19.2188C0 21.7188 1.2793 22.9785 3.79883 22.9785ZM3.83789 21.25C2.4707 21.25 1.72852 20.5273 1.72852 19.1309L1.72852 3.87695C1.72852 2.48047 2.4707 1.75781 3.83789 1.75781L19.1211 1.75781C20.459 1.75781 21.2305 2.48047 21.2305 3.87695L21.2305 19.1309C21.2305 20.5273 20.459 21.25 19.1211 21.25Z" fill="#ffffff" fill-opacity="0.85"/>
  <path d="M13.1055 17.666C13.4668 17.666 13.7695 17.4023 13.7695 17.0117C13.7695 16.7871 13.6523 16.5918 13.4766 16.4355L9.55078 12.7734L10.0098 12.7734C12.5 12.7734 13.7402 11.5234 13.9746 9.91211L15.1172 9.91211C15.4492 9.91211 15.6738 9.6582 15.6738 9.35547C15.6738 9.02344 15.4492 8.78906 15.1172 8.78906L13.9844 8.78906C13.9062 8.0957 13.6523 7.49023 13.1934 7.02148L15.0586 7.02148C15.3906 7.02148 15.6152 6.76758 15.6152 6.46484C15.6152 6.14258 15.3906 5.9082 15.0586 5.9082L12.5098 5.9082C12.1094 5.9082 11.709 5.9082 11.3184 5.9082L7.95898 5.9082C7.58789 5.9082 7.30469 6.19141 7.30469 6.5625C7.30469 6.91406 7.58789 7.2168 7.95898 7.2168L10.3711 7.2168C11.4844 7.2168 12.2754 7.8125 12.4902 8.78906L7.93945 8.78906C7.62695 8.78906 7.38281 9.02344 7.38281 9.35547C7.38281 9.6582 7.62695 9.91211 7.93945 9.91211L12.5098 9.91211C12.2949 10.9375 11.3965 11.4551 10.0293 11.4551L8.1543 11.4551C7.71484 11.4551 7.39258 11.748 7.39258 12.207C7.39258 12.5684 7.55859 12.7539 7.7832 12.9688L12.4609 17.3535C12.7051 17.5879 12.8711 17.666 13.1055 17.666Z" fill="#ffffff" fill-opacity="0.85"/>
 </g>
</svg>
