<svg version="1.1" xmlns="http://www.w3.org/2000/svg" xmlns:xlink="http://www.w3.org/1999/xlink" width="25.8008" height="25.459" viewBox="0 0 25.8008 25.459">
 <g>
  <rect height="25.459" opacity="0" width="25.8008" x="0" y="0"/>
  <path d="M12.7148 25.4395C19.6777 25.4395 25.4395 19.6777 25.4395 12.7246C25.4395 5.76172 19.668 0 12.7051 0C5.75195 0 0 5.76172 0 12.7246C0 19.6777 5.76172 25.4395 12.7148 25.4395ZM12.7148 23.623C6.67969 23.623 1.82617 18.7598 1.82617 12.7246C1.82617 6.67969 6.66992 1.82617 12.7051 1.82617C18.75 1.82617 23.6133 6.67969 23.6133 12.7246C23.6133 18.7598 18.7598 23.623 12.7148 23.623Z" fill="var(--color-primary)"/>
  <path d="M14.3262 18.9062C14.6875 18.9062 15 18.6426 15 18.252C15 18.0273 14.873 17.832 14.707 17.6758L10.7715 14.0137L11.2305 14.0137C13.7207 14.0137 14.9609 12.7637 15.1953 11.1523L16.3379 11.1523C16.6699 11.1523 16.8945 10.8984 16.8945 10.5957C16.8945 10.2637 16.6699 10.0293 16.3379 10.0293L15.2051 10.0293C15.127 9.33594 14.873 8.73047 14.4141 8.26172L16.2793 8.26172C16.6113 8.26172 16.8359 8.00781 16.8359 7.70508C16.8359 7.38281 16.6113 7.14844 16.2793 7.14844L13.7305 7.14844C13.3301 7.14844 12.9297 7.14844 12.5391 7.14844L9.17969 7.14844C8.80859 7.14844 8.52539 7.43164 8.52539 7.80273C8.52539 8.1543 8.80859 8.45703 9.17969 8.45703L11.5918 8.45703C12.7051 8.45703 13.4961 9.05273 13.7109 10.0293L9.16016 10.0293C8.84766 10.0293 8.60352 10.2637 8.60352 10.5957C8.60352 10.8984 8.84766 11.1523 9.16016 11.1523L13.7305 11.1523C13.5156 12.1777 12.6172 12.6953 11.25 12.6953L9.38477 12.6953C8.93555 12.6953 8.61328 12.9883 8.61328 13.4473C8.61328 13.8086 8.7793 13.9941 9.00391 14.209L13.6816 18.5938C13.9258 18.8281 14.0918 18.9062 14.3262 18.9062Z" fill="var(--color-primary)"/>
 </g>
</svg>
