<?xml version="1.0" encoding="UTF-8"?>
<!--Generator: Apple Native CoreSVG 232.5-->
<!DOCTYPE svg
PUBLIC "-//W3C//DTD SVG 1.1//EN"
       "http://www.w3.org/Graphics/SVG/1.1/DTD/svg11.dtd">
<svg version="1.1" xmlns="http://www.w3.org/2000/svg" xmlns:xlink="http://www.w3.org/1999/xlink" width="23.3203" height="22.9785">
 <g>
  <rect height="22.9785" opacity="0" width="23.3203" x="0" y="0"/>
  <path d="M3.79883 22.9785L19.1504 22.9785C21.6797 22.9785 22.959 21.709 22.959 19.2188L22.959 3.78906C22.959 1.29883 21.6797 0.0292969 19.1504 0.0292969L3.79883 0.0292969C1.2793 0.0292969 0 1.28906 0 3.78906L0 19.2188C0 21.7188 1.2793 22.9785 3.79883 22.9785Z" fill="#ffffff" fill-opacity="0.25"/>
  <path d="M9.19922 18.6621C8.73047 18.6621 8.37891 18.3203 8.37891 17.8613C8.37891 17.4219 8.73047 17.0703 9.19922 17.0703L10.9473 17.0703L10.9473 10.6934L9.375 10.6934C8.92578 10.6934 8.56445 10.3516 8.56445 9.89258C8.56445 9.45312 8.92578 9.10156 9.375 9.10156L11.8457 9.10156C12.4121 9.10156 12.7148 9.51172 12.7148 10.0977L12.7148 17.0703L14.4629 17.0703C14.9316 17.0703 15.293 17.4219 15.293 17.8613C15.293 18.3203 14.9316 18.6621 14.4629 18.6621ZM11.3965 6.83594C10.5469 6.83594 9.87305 6.15234 9.87305 5.30273C9.87305 4.45312 10.5469 3.76953 11.3965 3.76953C12.2461 3.76953 12.9102 4.45312 12.9102 5.30273C12.9102 6.15234 12.2461 6.83594 11.3965 6.83594Z" fill="#ffffff" fill-opacity="0.85"/>
 </g>
</svg>
