<?xml version="1.0" encoding="UTF-8"?>
<!--Generator: Apple Native CoreSVG 232.5-->
<!DOCTYPE svg
PUBLIC "-//W3C//DTD SVG 1.1//EN"
       "http://www.w3.org/Graphics/SVG/1.1/DTD/svg11.dtd">
<svg version="1.1" xmlns="http://www.w3.org/2000/svg" xmlns:xlink="http://www.w3.org/1999/xlink" width="25.8008" height="25.459">
 <g>
  <rect height="25.459" opacity="0" width="25.8008" x="0" y="0"/>
  <path d="M25.4395 12.7344C25.4395 19.6973 19.6777 25.459 12.7148 25.459C5.76172 25.459 0 19.6973 0 12.7344C0 5.78125 5.75195 0.0195312 12.7051 0.0195312C19.668 0.0195312 25.4395 5.78125 25.4395 12.7344ZM7.83203 18.8965C7.83203 20.166 8.65234 20.957 9.95117 20.957L15.498 20.957C16.5669 20.957 17.3118 20.4213 17.5407 19.5231L16.4941 18.4766L16.4941 18.75C16.4941 19.4531 16.1133 19.8242 15.3711 19.8242L10.0781 19.8242C9.33594 19.8242 8.95508 19.4531 8.95508 18.75L8.95508 10.9375L7.83203 9.81445ZM5.9668 5.97656C5.76172 6.19141 5.76172 6.5332 5.9668 6.72852L18.7305 19.4922C18.9258 19.6875 19.2773 19.6973 19.4824 19.4922C19.6973 19.2676 19.6973 18.9453 19.4824 18.7402L6.72852 5.97656C6.51367 5.77148 6.18164 5.77148 5.9668 5.97656ZM11.1035 18.5449C10.8984 18.5449 10.7422 18.7012 10.7422 18.9258C10.7422 19.1309 10.8984 19.2773 11.1035 19.2773L14.3457 19.2773C14.5508 19.2773 14.707 19.1309 14.707 18.9258C14.707 18.7012 14.5508 18.5449 14.3457 18.5449ZM9.95117 4.51172C8.88512 4.51172 8.14143 5.05119 7.91014 5.94725L8.95508 6.99219L8.95508 6.72852C8.95508 6.02539 9.33594 5.6543 10.0781 5.6543L15.3711 5.6543C16.1133 5.6543 16.4941 6.02539 16.4941 6.72852L16.4941 14.5312L17.6172 15.6543L17.6172 6.58203C17.6172 5.3125 16.7969 4.51172 15.498 4.51172ZM11.7773 6.30859C11.4746 6.30859 11.25 6.5332 11.25 6.82617C11.25 7.12891 11.4746 7.34375 11.7773 7.34375L13.6621 7.34375C13.9648 7.34375 14.1895 7.12891 14.1895 6.82617C14.1895 6.5332 13.9648 6.30859 13.6621 6.30859Z" fill="#ffffff" fill-opacity="0.85"/>
 </g>
</svg>
