<?xml version="1.0" encoding="UTF-8"?>
<!--Generator: Apple Native CoreSVG 232.5-->
<!DOCTYPE svg
PUBLIC "-//W3C//DTD SVG 1.1//EN"
       "http://www.w3.org/Graphics/SVG/1.1/DTD/svg11.dtd">
<svg version="1.1" xmlns="http://www.w3.org/2000/svg" xmlns:xlink="http://www.w3.org/1999/xlink" width="25.8008" height="25.459">
 <g>
  <rect height="25.459" opacity="0" width="25.8008" x="0" y="0"/>
  <path d="M12.7148 25.459C19.6777 25.459 25.4395 19.6973 25.4395 12.7344C25.4395 5.78125 19.668 0.0195312 12.7051 0.0195312C5.75195 0.0195312 0 5.78125 0 12.7344C0 19.6973 5.76172 25.459 12.7148 25.459Z" fill="#ffffff" fill-opacity="0.25"/>
  <path d="M5.22461 16.5918C5.06836 16.8164 4.75586 16.8164 4.53125 16.5918C3.57422 15.5566 3.04688 14.1797 3.04688 12.7344C3.04688 11.2988 3.57422 9.92188 4.53125 8.88672C4.75586 8.66211 5.06836 8.66211 5.22461 8.88672C5.40039 9.08203 5.35156 9.32617 5.15625 9.55078C4.35547 10.4297 3.93555 11.5332 3.93555 12.7344C3.93555 13.9453 4.35547 15.0488 5.15625 15.9277C5.35156 16.1523 5.40039 16.3965 5.22461 16.5918ZM20.2344 16.5918C20.0586 16.3965 20.1172 16.1523 20.3125 15.9277C21.1035 15.0488 21.5332 13.9453 21.5332 12.7344C21.5332 11.5332 21.1035 10.4297 20.3125 9.55078C20.1172 9.32617 20.0586 9.08203 20.2344 8.88672C20.3906 8.66211 20.7031 8.66211 20.9277 8.88672C21.8945 9.92188 22.4219 11.2988 22.4219 12.7344C22.4219 14.1797 21.8945 15.5566 20.9277 16.5918C20.7031 16.8164 20.3906 16.8164 20.2344 16.5918Z" fill="#ffffff" fill-opacity="0.85"/>
  <path d="M7.08008 14.9902C6.89453 15.2051 6.5625 15.2051 6.37695 14.9609C5.85938 14.3555 5.55664 13.5742 5.55664 12.7344C5.55664 11.9043 5.85938 11.123 6.37695 10.5078C6.5625 10.2734 6.89453 10.2637 7.08008 10.4883C7.23633 10.6836 7.1875 10.918 7.01172 11.1621C6.65039 11.543 6.46484 12.1094 6.46484 12.7344C6.46484 13.3594 6.65039 13.9062 7.01172 14.3164C7.1875 14.5508 7.23633 14.7852 7.08008 14.9902ZM18.3887 14.9902C18.2227 14.7852 18.2812 14.5508 18.457 14.3164C18.8086 13.9062 18.9941 13.3594 18.9941 12.7344C18.9941 12.1094 18.8086 11.543 18.457 11.1621C18.2812 10.918 18.2227 10.6836 18.3887 10.4883C18.5645 10.2637 18.8965 10.2734 19.0918 10.5078C19.5996 11.123 19.9023 11.9043 19.9023 12.7344C19.9023 13.5742 19.5996 14.3555 19.0918 14.9609C18.8965 15.2051 18.5645 15.2051 18.3887 14.9902Z" fill="#ffffff" fill-opacity="0.85"/>
  <path d="M8.27148 18.3301L8.27148 7.14844C8.27148 6.00586 9.02344 5.27344 10.2051 5.27344L15.2539 5.27344C16.4355 5.27344 17.1777 6.00586 17.1777 7.14844L17.1777 18.3301C17.1777 19.4824 16.4355 20.2051 15.2539 20.2051L10.2051 20.2051C9.02344 20.2051 8.27148 19.4824 8.27148 18.3301ZM9.33594 17.8223L16.123 17.8223L16.123 7.65625L9.33594 7.65625ZM12.7344 19.4629C13.0469 19.4629 13.2812 19.209 13.2812 18.8867C13.2812 18.5938 13.0469 18.3398 12.7344 18.3398C12.4219 18.3398 12.168 18.5938 12.168 18.8867C12.168 19.209 12.4219 19.4629 12.7344 19.4629ZM11.4355 6.51367C11.4355 6.66992 11.5527 6.78711 11.6992 6.78711L13.75 6.78711C13.9062 6.78711 14.0137 6.66992 14.0137 6.51367C14.0137 6.34766 13.9062 6.24023 13.75 6.24023L11.6992 6.24023C11.5527 6.24023 11.4355 6.34766 11.4355 6.51367Z" fill="#ffffff" fill-opacity="0.85"/>
 </g>
</svg>
