<svg version="1.1" xmlns="http://www.w3.org/2000/svg" xmlns:xlink="http://www.w3.org/1999/xlink" width="25.8008" height="25.459" viewBox="0 0 25.8008 25.459">
 <g>
  <rect height="25.459" opacity="0" width="25.8008" x="0" y="0"/>
  <path d="M25.4395 12.7246C25.4395 19.6777 19.6777 25.4395 12.7148 25.4395C5.76172 25.4395 0 19.6777 0 12.7246C0 5.76172 5.75195 0 12.7051 0C19.668 0 25.4395 5.76172 25.4395 12.7246ZM1.82617 12.7246C1.82617 18.7598 6.67969 23.623 12.7148 23.623C18.7598 23.623 23.6133 18.7598 23.6133 12.7246C23.6133 6.67969 18.75 1.82617 12.7051 1.82617C6.66992 1.82617 1.82617 6.67969 1.82617 12.7246Z" fill="var(--color-primary)"/>
  <path d="M9.0332 10.957L9.0332 18.5938C9.0332 19.2871 9.4043 19.6484 10.1367 19.6484L15.293 19.6484C16.0254 19.6484 16.3965 19.2871 16.3965 18.5938L16.3965 18.3203L17.4155 19.3394C17.1909 20.2184 16.4579 20.7422 15.4199 20.7422L10.0098 20.7422C8.74023 20.7422 7.93945 19.9707 7.93945 18.7305L7.93945 9.86328ZM14.6484 18.7695C14.6484 18.9746 14.502 19.1113 14.2969 19.1113L11.1426 19.1113C10.9277 19.1113 10.7812 18.9746 10.7812 18.7695C10.7812 18.5547 10.9277 18.3984 11.1426 18.3984L14.2969 18.3984C14.502 18.3984 14.6484 18.5547 14.6484 18.7695ZM17.4902 6.71875L17.4902 15.5859L16.3965 14.4922L16.3965 6.85547C16.3965 6.15234 16.0254 5.79102 15.293 5.79102L10.1367 5.79102C9.4043 5.79102 9.0332 6.15234 9.0332 6.85547L9.0332 7.12891L8.0134 6.1091C8.23591 5.22767 8.96372 4.69727 10.0098 4.69727L15.4199 4.69727C16.6797 4.69727 17.4902 5.47852 17.4902 6.71875ZM14.1406 6.94336C14.1406 7.22656 13.9258 7.45117 13.6328 7.45117L11.7871 7.45117C11.4941 7.45117 11.2793 7.22656 11.2793 6.94336C11.2793 6.66016 11.4941 6.43555 11.7871 6.43555L13.6328 6.43555C13.9258 6.43555 14.1406 6.66016 14.1406 6.94336Z" fill="var(--color-primary)"/>
  <path d="M18.5742 19.3164C18.7793 19.5215 19.1113 19.5215 19.3066 19.3164C19.5215 19.1016 19.5215 18.7988 19.3066 18.584L6.8457 6.11328C6.64062 5.9082 6.30859 5.9082 6.10352 6.11328C5.89844 6.31836 5.9082 6.65039 6.10352 6.8457Z" fill="var(--color-primary)"/>
 </g>
</svg>
