<?xml version="1.0" encoding="UTF-8"?>
<!--Generator: Apple Native CoreSVG 232.5-->
<!DOCTYPE svg
PUBLIC "-//W3C//DTD SVG 1.1//EN"
       "http://www.w3.org/Graphics/SVG/1.1/DTD/svg11.dtd">
<svg version="1.1" xmlns="http://www.w3.org/2000/svg" xmlns:xlink="http://www.w3.org/1999/xlink" width="29.8438" height="28.9551">
 <g>
  <rect height="28.9551" opacity="0" width="29.8438" x="0" y="0"/>
  <path d="M27.9297 10.9375L27.9297 23.6621C27.9297 26.1621 26.6504 27.4316 24.1211 27.4316L11.4746 27.4316C8.95508 27.4316 7.66602 26.1523 7.66602 23.6621L7.66602 23.3691L18.0176 23.3691C21.3965 23.3691 23.3691 21.416 23.3691 18.0469L23.3691 7.16797L24.1211 7.16797C26.6504 7.16797 27.9297 8.4375 27.9297 10.9375Z" fill="#ffffff" fill-opacity="0.25"/>
  <path d="M18.0176 1.55273L5.36133 1.55273C2.8418 1.55273 1.55273 2.83203 1.55273 5.3125L1.55273 18.0469C1.55273 20.5371 2.8418 21.8164 5.36133 21.8164L18.0176 21.8164C20.5371 21.8164 21.8164 20.5469 21.8164 18.0469L21.8164 5.3125C21.8164 2.82227 20.5371 1.55273 18.0176 1.55273Z" fill="#ffffff" fill-opacity="0.25"/>
  <path d="M11.1133 17.6758C9.35547 17.6758 7.98828 16.7773 7.58789 15.4395C7.51953 15.2539 7.49023 15.0781 7.49023 14.8926C7.49023 14.3848 7.82227 14.0527 8.32031 14.0527C8.70117 14.0527 8.95508 14.2383 9.14062 14.6582C9.42383 15.5762 10.1562 16.1426 11.1914 16.1426C12.334 16.1426 13.0566 15.3125 13.0566 13.9648L13.0566 6.60156C13.0566 6.01562 13.3691 5.61523 13.9355 5.61523C14.5215 5.61523 14.834 5.99609 14.834 6.60156L14.834 13.9844C14.834 16.3379 13.5156 17.6758 11.1133 17.6758Z" fill="#ffffff" fill-opacity="0.85"/>
 </g>
</svg>
