<?xml version="1.0" encoding="UTF-8"?>
<!--Generator: Apple Native CoreSVG 232.5-->
<!DOCTYPE svg
PUBLIC "-//W3C//DTD SVG 1.1//EN"
       "http://www.w3.org/Graphics/SVG/1.1/DTD/svg11.dtd">
<svg version="1.1" xmlns="http://www.w3.org/2000/svg" xmlns:xlink="http://www.w3.org/1999/xlink" width="23.3203" height="22.9785">
 <g>
  <rect height="22.9785" opacity="0" width="23.3203" x="0" y="0"/>
  <path d="M3.79883 22.9785L19.1504 22.9785C21.6797 22.9785 22.959 21.709 22.959 19.2188L22.959 3.78906C22.959 1.29883 21.6797 0.0292969 19.1504 0.0292969L3.79883 0.0292969C1.2793 0.0292969 0 1.28906 0 3.78906L0 19.2188C0 21.7188 1.2793 22.9785 3.79883 22.9785Z" fill="#ffffff" fill-opacity="0.25"/>
  <path d="M10.9082 17.4707C9.16016 17.4707 7.7832 16.5723 7.38281 15.2344C7.31445 15.0488 7.28516 14.873 7.28516 14.6875C7.28516 14.1797 7.61719 13.8477 8.11523 13.8477C8.49609 13.8477 8.75 14.0332 8.93555 14.4629C9.21875 15.3809 9.95117 15.9375 10.9863 15.9375C12.1289 15.9375 12.8516 15.1172 12.8516 13.7598L12.8516 6.40625C12.8516 5.81055 13.1641 5.41016 13.7305 5.41016C14.3164 5.41016 14.6289 5.79102 14.6289 6.40625L14.6289 13.7793C14.6289 16.1328 13.3105 17.4707 10.9082 17.4707Z" fill="#ffffff" fill-opacity="0.85"/>
 </g>
</svg>
