<?xml version="1.0" encoding="UTF-8"?>
<!--Generator: Apple Native CoreSVG 232.5-->
<!DOCTYPE svg
PUBLIC "-//W3C//DTD SVG 1.1//EN"
       "http://www.w3.org/Graphics/SVG/1.1/DTD/svg11.dtd">
<svg version="1.1" xmlns="http://www.w3.org/2000/svg" xmlns:xlink="http://www.w3.org/1999/xlink" width="25.8008" height="25.459">
 <g>
  <rect height="25.459" opacity="0" width="25.8008" x="0" y="0"/>
  <path d="M12.7148 25.4395C19.6777 25.4395 25.4395 19.6777 25.4395 12.7246C25.4395 5.76172 19.668 0 12.7051 0C5.75195 0 0 5.76172 0 12.7246C0 19.6777 5.76172 25.4395 12.7148 25.4395ZM12.7148 23.623C6.67969 23.623 1.82617 18.7598 1.82617 12.7246C1.82617 6.67969 6.66992 1.82617 12.7051 1.82617C18.75 1.82617 23.6133 6.67969 23.6133 12.7246C23.6133 18.7598 18.7598 23.623 12.7148 23.623Z" fill="#ffffff" fill-opacity="0.85"/>
  <path d="M8.04688 12.8613C8.04688 13.1738 8.28125 13.4277 8.60352 13.4277L9.41406 13.4277L9.41406 18.1152C9.41406 18.5645 9.7168 18.8379 10.127 18.8379C10.5371 18.8379 10.8301 18.5645 10.8301 18.1152L10.8301 13.4277L11.4453 13.4277L15.6055 18.5156C15.7812 18.75 15.9668 18.8379 16.1816 18.8379C16.543 18.8379 16.8457 18.5547 16.8457 18.1836C16.8457 18.0371 16.7969 17.8613 16.6602 17.6953L13.125 13.4277L16.5625 13.4277C16.8945 13.4277 17.1191 13.1738 17.1191 12.8613C17.1191 12.5391 16.8945 12.3047 16.5625 12.3047L13.1152 12.3047L16.6602 8.06641C16.7871 7.91016 16.8457 7.73438 16.8457 7.58789C16.8457 7.22656 16.5625 6.94336 16.1816 6.94336C15.9668 6.94336 15.7812 7.03125 15.5859 7.27539L11.4355 12.3047L10.8301 12.3047L10.8301 7.66602C10.8301 7.2168 10.5469 6.95312 10.127 6.95312C9.69727 6.95312 9.41406 7.2168 9.41406 7.66602L9.41406 12.3047L8.60352 12.3047C8.28125 12.3047 8.04688 12.5391 8.04688 12.8613Z" fill="#ffffff" fill-opacity="0.85"/>
 </g>
</svg>
