<svg version="1.1" xmlns="http://www.w3.org/2000/svg" xmlns:xlink="http://www.w3.org/1999/xlink" width="28.9941" height="21.6504" viewBox="0 0 28.9941 21.6504">
 <g>
  <rect height="21.6504" opacity="0" width="28.9941" x="0" y="0"/>
  <path d="M10.2441 21.6309L18.3887 21.6309C25.5371 21.6309 28.6328 18.3203 28.6328 11.6406L28.6328 3.67188C28.6328 1.25977 27.373 0 24.9316 0L3.71094 0C1.25977 0 0 1.25 0 3.67188L0 11.6406C0 18.3203 3.10547 21.6309 10.2441 21.6309Z" fill="var(--color-tertiary)"/>
  <path d="M12.2168 16.0645C11.6602 16.0645 11.3281 15.6641 11.3281 15.0879L11.3281 6.41602C11.3281 5.83984 11.6504 5.41992 12.2168 5.41992C12.7734 5.41992 13.1445 5.83008 13.1445 6.41602L13.1445 14.5312L17.3242 14.5312C17.7441 14.5312 18.1152 14.8633 18.1152 15.3027C18.1152 15.752 17.7539 16.0645 17.3242 16.0645Z" fill="var(--color-primary)"/>
 </g>
</svg>
