<svg version="1.1" xmlns="http://www.w3.org/2000/svg" xmlns:xlink="http://www.w3.org/1999/xlink" width="25.8008" height="25.459" viewBox="0 0 25.8008 25.459">
 <g>
  <rect height="25.459" opacity="0" width="25.8008" x="0" y="0"/>
  <path d="M12.7148 25.4395C19.6777 25.4395 25.4395 19.6777 25.4395 12.7246C25.4395 5.76172 19.668 0 12.7051 0C5.75195 0 0 5.76172 0 12.7246C0 19.6777 5.76172 25.4395 12.7148 25.4395ZM12.7148 23.623C6.67969 23.623 1.82617 18.7598 1.82617 12.7246C1.82617 6.67969 6.66992 1.82617 12.7051 1.82617C18.75 1.82617 23.6133 6.67969 23.6133 12.7246C23.6133 18.7598 18.7598 23.623 12.7148 23.623Z" fill="var(--color-secondary)"/>
  <path d="M8.56445 18.6035L16.2598 18.6035C16.6504 18.6035 16.9043 18.3398 16.9043 17.9688C16.9043 17.6172 16.6406 17.3535 16.2598 17.3535L14.2676 17.3535C11.5137 17.3535 9.36523 15.2832 9.36523 12.5195C9.36523 10.7227 10 9.48242 11.0938 8.86719L11.0938 12.1582C11.0938 12.4805 11.3281 12.7051 11.6406 12.7051C11.9629 12.7051 12.1875 12.4805 12.1875 12.1582L12.1875 8.49609C12.4121 8.4668 12.627 8.44727 12.832 8.44727C13.0371 8.44727 13.2324 8.4668 13.3984 8.49609L13.3984 12.1582C13.3984 12.4805 13.6328 12.7051 13.9453 12.7051C14.2676 12.7051 14.502 12.4805 14.502 12.1582L14.502 8.90625C15.4785 9.50195 16.1133 10.625 16.1328 12.0898C16.1426 12.5293 16.416 12.832 16.8164 12.832C17.1973 12.832 17.4805 12.5293 17.4805 12.1094C17.4609 9.89258 16.2793 8.11523 14.502 7.44141L14.502 6.17188C14.502 5.84961 14.2676 5.61523 13.9453 5.61523C13.6328 5.61523 13.3984 5.84961 13.3984 6.17188L13.3984 7.16797C13.2227 7.13867 13.0273 7.13867 12.8418 7.13867C12.627 7.13867 12.4121 7.14844 12.1875 7.17773L12.1875 6.17188C12.1875 5.84961 11.9629 5.61523 11.6406 5.61523C11.3281 5.61523 11.0938 5.84961 11.0938 6.17188L11.0938 7.40234C9.16016 8.07617 7.95898 9.88281 7.95898 12.3828C7.95898 14.5605 9.01367 16.3965 10.5859 17.3535L8.57422 17.3535C8.20312 17.3535 7.93945 17.6172 7.93945 17.9688C7.93945 18.3496 8.18359 18.6035 8.56445 18.6035Z" fill="var(--color-primary)"/>
 </g>
</svg>
