<svg version="1.1" xmlns="http://www.w3.org/2000/svg" xmlns:xlink="http://www.w3.org/1999/xlink" width="25.8008" height="25.459" viewBox="0 0 25.8008 25.459">
 <g>
  <rect height="25.459" opacity="0" width="25.8008" x="0" y="0"/>
  <path d="M12.7148 25.4395C19.6777 25.4395 25.4395 19.6777 25.4395 12.7246C25.4395 5.76172 19.668 0 12.7051 0C5.75195 0 0 5.76172 0 12.7246C0 19.6777 5.76172 25.4395 12.7148 25.4395ZM12.7148 23.623C6.67969 23.623 1.82617 18.7598 1.82617 12.7246C1.82617 6.67969 6.66992 1.82617 12.7051 1.82617C18.75 1.82617 23.6133 6.67969 23.6133 12.7246C23.6133 18.7598 18.7598 23.623 12.7148 23.623Z" fill="currentColor"/>
  <path d="M15.8984 17.7051C16.416 17.7051 16.7969 17.3438 16.7969 16.8457C16.7969 16.4355 16.6211 16.1914 16.1719 15.9766L9.7168 12.7344L9.7168 12.6562L16.1719 9.36523C16.6113 9.14062 16.7969 8.87695 16.7969 8.47656C16.7969 7.99805 16.4258 7.62695 15.918 7.62695C15.6836 7.62695 15.5469 7.66602 15.3711 7.75391L7.97852 11.7676C7.54883 12.0117 7.34375 12.3145 7.34375 12.7246C7.34375 13.1738 7.5293 13.4473 7.97852 13.6816L15.3711 17.5781C15.5371 17.666 15.6836 17.7051 15.8984 17.7051Z" fill="currentColor"/>
 </g>
</svg>
