<?xml version="1.0" encoding="UTF-8"?>
<!--Generator: Apple Native CoreSVG 232.5-->
<!DOCTYPE svg
PUBLIC "-//W3C//DTD SVG 1.1//EN"
       "http://www.w3.org/Graphics/SVG/1.1/DTD/svg11.dtd">
<svg version="1.1" xmlns="http://www.w3.org/2000/svg" xmlns:xlink="http://www.w3.org/1999/xlink" width="23.3203" height="22.9785">
 <g>
  <rect height="22.9785" opacity="0" width="23.3203" x="0" y="0"/>
  <path d="M3.79883 22.9785L19.1504 22.9785C21.6797 22.9785 22.959 21.709 22.959 19.2188L22.959 3.78906C22.959 1.29883 21.6797 0.0292969 19.1504 0.0292969L3.79883 0.0292969C1.2793 0.0292969 0 1.28906 0 3.78906L0 19.2188C0 21.7188 1.2793 22.9785 3.79883 22.9785ZM3.83789 21.25C2.4707 21.25 1.72852 20.5273 1.72852 19.1309L1.72852 3.87695C1.72852 2.48047 2.4707 1.75781 3.83789 1.75781L19.1211 1.75781C20.459 1.75781 21.2305 2.48047 21.2305 3.87695L21.2305 19.1309C21.2305 20.5273 20.459 21.25 19.1211 21.25Z" fill="#ffffff" fill-opacity="0.55"/>
  <path d="M14.6777 16.4648C15.1953 16.4648 15.5762 16.1035 15.5762 15.6055C15.5762 15.1953 15.4004 14.9512 14.9414 14.7363L8.49609 11.4941L8.49609 11.416L14.9414 8.125C15.3906 7.90039 15.5762 7.63672 15.5762 7.23633C15.5762 6.75781 15.2051 6.38672 14.6973 6.38672C14.4629 6.38672 14.3262 6.42578 14.1504 6.51367L6.75781 10.5273C6.32812 10.7715 6.12305 11.0742 6.12305 11.4844C6.12305 11.9336 6.30859 12.207 6.75781 12.4414L14.1504 16.3379C14.3164 16.4258 14.4629 16.4648 14.6777 16.4648Z" fill="#ffffff" fill-opacity="0.85"/>
 </g>
</svg>
