<svg version="1.1" xmlns="http://www.w3.org/2000/svg" xmlns:xlink="http://www.w3.org/1999/xlink" width="23.3203" height="22.9785" viewBox="0 0 23.3203 22.9785">
 <g>
  <rect height="22.9785" opacity="0" width="23.3203" x="0" y="0"/>
  <path d="M3.79883 22.9785L19.1504 22.9785C21.6797 22.9785 22.959 21.709 22.959 19.2188L22.959 3.78906C22.959 1.29883 21.6797 0.0292969 19.1504 0.0292969L3.79883 0.0292969C1.2793 0.0292969 0 1.28906 0 3.78906L0 19.2188C0 21.7188 1.2793 22.9785 3.79883 22.9785Z" fill="var(--color-tertiary)"/>
  <path d="M14.7754 16.6113C14.5508 16.6113 14.4043 16.5527 14.2285 16.4648L6.65039 12.4707C6.19141 12.2363 5.99609 11.9531 5.99609 11.4844C5.99609 11.0645 6.21094 10.7422 6.65039 10.498L14.2285 6.38672C14.4141 6.29883 14.5508 6.25 14.8047 6.25C15.3223 6.25 15.7031 6.63086 15.7031 7.12891C15.7031 7.54883 15.5078 7.82227 15.0586 8.04688L8.44727 11.416L8.44727 11.4941L15.0586 14.8145C15.5176 15.0293 15.7031 15.293 15.7031 15.7129C15.7031 16.2207 15.3125 16.6113 14.7754 16.6113Z" fill="var(--color-primary)"/>
 </g>
</svg>
