<svg version="1.1" xmlns="http://www.w3.org/2000/svg" xmlns:xlink="http://www.w3.org/1999/xlink" width="18.3594" height="27.5879" viewBox="0 0 18.3594 27.5879">
 <g>
  <rect height="27.5879" opacity="0" width="18.3594" x="0" y="0"/>
  <path d="M3.75977 0.00976562C1.25977 0.00976562 0 1.28906 0 3.80859L0 23.7891C0 26.3184 1.25977 27.5879 3.75977 27.5879L14.2383 27.5879C16.7285 27.5879 17.998 26.3184 17.998 23.7891L17.998 3.80859C17.998 1.28906 16.7285 0.00976562 14.2383 0.00976562Z" fill="var(--color-tertiary)"/>
  <path d="M4.20898 16.0547L13.75 16.0547C14.6484 16.0547 15.0488 16.4355 15.0488 17.334L15.0488 23.3203C15.0488 24.2188 14.6484 24.5996 13.75 24.5996L4.20898 24.5996C3.30078 24.5996 2.91016 24.2188 2.91016 23.3203L2.91016 17.334C2.91016 16.4355 3.30078 16.0547 4.20898 16.0547Z" fill="var(--color-primary)"/>
 </g>
</svg>
