<?xml version="1.0" encoding="UTF-8"?>
<!--Generator: Apple Native CoreSVG 232.5-->
<!DOCTYPE svg
PUBLIC "-//W3C//DTD SVG 1.1//EN"
       "http://www.w3.org/Graphics/SVG/1.1/DTD/svg11.dtd">
<svg version="1.1" xmlns="http://www.w3.org/2000/svg" xmlns:xlink="http://www.w3.org/1999/xlink" width="23.3203" height="22.9785">
 <g>
  <rect height="22.9785" opacity="0" width="23.3203" x="0" y="0"/>
  <path d="M3.79883 22.9785L19.1504 22.9785C21.6797 22.9785 22.959 21.709 22.959 19.2188L22.959 3.78906C22.959 1.29883 21.6797 0.0292969 19.1504 0.0292969L3.79883 0.0292969C1.2793 0.0292969 0 1.28906 0 3.78906L0 19.2188C0 21.7188 1.2793 22.9785 3.79883 22.9785Z" fill="#ffffff" fill-opacity="0.25"/>
  <path d="M8.04688 18.1641C7.51953 18.1641 7.14844 17.7832 7.14844 17.2559L7.14844 5.73242C7.14844 5.20508 7.51953 4.83398 8.04688 4.83398L14.9023 4.83398C15.4297 4.83398 15.8105 5.20508 15.8105 5.73242L15.8105 17.2559C15.8105 17.7832 15.4297 18.1641 14.9023 18.1641ZM8.90625 10.3223L14.043 10.3223C14.2871 10.3223 14.4531 10.1562 14.4531 9.90234L14.4531 6.61133C14.4531 6.35742 14.2871 6.19141 14.043 6.19141L8.90625 6.19141C8.67188 6.19141 8.50586 6.35742 8.50586 6.61133L8.50586 9.90234C8.50586 10.1562 8.67188 10.3223 8.90625 10.3223Z" fill="#ffffff" fill-opacity="0.85"/>
 </g>
</svg>
