<svg version="1.1" xmlns="http://www.w3.org/2000/svg" xmlns:xlink="http://www.w3.org/1999/xlink" width="23.3203" height="22.9785" viewBox="0 0 23.3203 22.9785">
 <g>
  <rect height="22.9785" opacity="0" width="23.3203" x="0" y="0"/>
  <path d="M22.959 3.78906L22.959 19.2188C22.959 21.709 21.6797 22.9785 19.1504 22.9785L3.79883 22.9785C1.2793 22.9785 0 21.7188 0 19.2188L0 3.78906C0 1.28906 1.2793 0.0292969 3.79883 0.0292969L19.1504 0.0292969C21.6797 0.0292969 22.959 1.29883 22.959 3.78906ZM8.04688 4.83398C7.51953 4.83398 7.14844 5.20508 7.14844 5.73242L7.14844 17.2559C7.14844 17.7832 7.51953 18.1641 8.04688 18.1641L14.9023 18.1641C15.4297 18.1641 15.8105 17.7832 15.8105 17.2559L15.8105 5.73242C15.8105 5.20508 15.4297 4.83398 14.9023 4.83398ZM14.4531 6.61133L14.4531 9.90234C14.4531 10.1562 14.2871 10.3223 14.043 10.3223L8.90625 10.3223C8.67188 10.3223 8.50586 10.1562 8.50586 9.90234L8.50586 6.61133C8.50586 6.35742 8.67188 6.19141 8.90625 6.19141L14.043 6.19141C14.2871 6.19141 14.4531 6.35742 14.4531 6.61133Z" fill="var(--color-primary)"/>
 </g>
</svg>
