<?xml version="1.0" encoding="UTF-8"?>
<!--Generator: Apple Native CoreSVG 232.5-->
<!DOCTYPE svg
PUBLIC "-//W3C//DTD SVG 1.1//EN"
       "http://www.w3.org/Graphics/SVG/1.1/DTD/svg11.dtd">
<svg version="1.1" xmlns="http://www.w3.org/2000/svg" xmlns:xlink="http://www.w3.org/1999/xlink" width="23.3203" height="22.9785">
 <g>
  <rect height="22.9785" opacity="0" width="23.3203" x="0" y="0"/>
  <path d="M3.79883 22.9785L19.1504 22.9785C21.6797 22.9785 22.959 21.709 22.959 19.2188L22.959 3.78906C22.959 1.29883 21.6797 0.0292969 19.1504 0.0292969L3.79883 0.0292969C1.2793 0.0292969 0 1.28906 0 3.78906L0 19.2188C0 21.7188 1.2793 22.9785 3.79883 22.9785Z" fill="#ffffff" fill-opacity="0.25"/>
  <path d="M6.89453 16.748C6.89453 16.3867 7.07031 16.1426 7.48047 16.0254C8.4668 15.7715 9.21875 14.9219 9.31641 13.7695C9.32617 13.6035 9.32617 13.4375 9.30664 13.2715L7.62695 13.2715C7.24609 13.2715 6.98242 13.0176 6.98242 12.6562C6.98242 12.2852 7.24609 12.0312 7.62695 12.0312L9.12109 12.0312C9.0332 11.6406 8.90625 11.2598 8.80859 10.8594L7.62695 10.8594C7.24609 10.8594 6.98242 10.6055 6.98242 10.2441C6.98242 9.88281 7.24609 9.62891 7.62695 9.62891L8.62305 9.62891C8.59375 9.49219 8.58398 9.35547 8.58398 9.21875C8.58398 6.88477 10.1074 5.38086 12.7246 5.38086C13.5645 5.38086 14.3164 5.51758 14.8633 5.74219C15.2637 5.9082 15.4004 6.14258 15.4004 6.43555C15.4004 6.81641 15.1562 7.06055 14.7168 7.02148C14.2969 6.93359 13.7207 6.71875 12.8027 6.71875C11.0352 6.71875 10.0586 7.70508 10.0586 9.12109C10.0586 9.29688 10.0684 9.46289 10.0879 9.62891L13.8965 9.62891C14.2676 9.62891 14.5312 9.88281 14.5312 10.2441C14.5312 10.6055 14.2676 10.8594 13.8965 10.8594L10.3125 10.8594C10.4102 11.25 10.5176 11.6309 10.625 12.0312L13.8965 12.0312C14.2676 12.0312 14.5312 12.2852 14.5312 12.6562C14.5312 13.0176 14.2676 13.2715 13.8965 13.2715L10.7617 13.2715C10.7617 13.4863 10.7617 13.6816 10.7422 13.8965C10.6445 14.7754 10.2148 15.6152 9.62891 16.0938L15.2832 16.0938C15.6934 16.0938 15.9766 16.3672 15.9766 16.7578C15.9766 17.1582 15.6934 17.4219 15.2832 17.4219L7.56836 17.4219C7.1582 17.4219 6.89453 17.1582 6.89453 16.748Z" fill="#ffffff" fill-opacity="0.85"/>
 </g>
</svg>
