<svg version="1.1" xmlns="http://www.w3.org/2000/svg" xmlns:xlink="http://www.w3.org/1999/xlink" width="25.8008" height="25.459" viewBox="0 0 25.8008 25.459">
 <g>
  <rect height="25.459" opacity="0" width="25.8008" x="0" y="0"/>
  <path d="M12.7148 25.4395C19.6777 25.4395 25.4395 19.6777 25.4395 12.7246C25.4395 5.76172 19.668 0 12.7051 0C5.75195 0 0 5.76172 0 12.7246C0 19.6777 5.76172 25.4395 12.7148 25.4395ZM12.7148 23.623C6.67969 23.623 1.82617 18.7598 1.82617 12.7246C1.82617 6.67969 6.66992 1.82617 12.7051 1.82617C18.75 1.82617 23.6133 6.67969 23.6133 12.7246C23.6133 18.7598 18.7598 23.623 12.7148 23.623Z" fill="var(--color-primary)"/>
  <path d="M7.08984 18.2422C6.79688 18.9746 7.59766 19.5898 8.26172 18.916L12.4121 14.7656C12.5879 14.5898 12.8125 14.5898 12.998 14.7656L17.1387 18.916C17.8125 19.5898 18.6035 18.9746 18.3203 18.2422L13.4766 5.83984C13.1836 5.08789 12.2168 5.09766 11.9141 5.85938Z" fill="var(--color-primary)"/>
 </g>
</svg>
