<svg version="1.1" xmlns="http://www.w3.org/2000/svg" xmlns:xlink="http://www.w3.org/1999/xlink" width="25.8008" height="25.459" viewBox="0 0 25.8008 25.459">
 <g>
  <rect height="25.459" opacity="0" width="25.8008" x="0" y="0"/>
  <path d="M25.4395 12.7246C25.4395 19.6777 19.6777 25.4395 12.7148 25.4395C5.76172 25.4395 0 19.6777 0 12.7246C0 5.76172 5.75195 0 12.7051 0C19.668 0 25.4395 5.76172 25.4395 12.7246ZM1.82617 12.7246C1.82617 18.7598 6.67969 23.623 12.7148 23.623C18.7598 23.623 23.6133 18.7598 23.6133 12.7246C23.6133 6.67969 18.75 1.82617 12.7051 1.82617C6.66992 1.82617 1.82617 6.67969 1.82617 12.7246Z" fill="var(--color-secondary)"/>
  <path d="M14.5944 16.5182L13.0273 19.8535C12.6953 20.5762 11.6309 20.4785 11.6309 19.4824L11.6309 14.0137C11.6309 13.7988 11.4941 13.6719 11.2891 13.6719L5.75195 13.6621C4.79492 13.6621 4.6582 12.6172 5.40039 12.2656L8.75407 10.6779ZM18.7305 7.71484L15.818 13.9137L11.3522 9.44787L17.5293 6.52344C18.4082 6.11328 19.1504 6.83594 18.7305 7.71484Z" fill="var(--color-primary)"/>
  <path d="M18.5742 19.3164C18.7793 19.5215 19.1113 19.5215 19.3066 19.3164C19.5215 19.1016 19.5215 18.7988 19.3066 18.584L6.8457 6.11328C6.64062 5.9082 6.30859 5.9082 6.10352 6.11328C5.89844 6.31836 5.9082 6.65039 6.10352 6.8457Z" fill="var(--color-primary)"/>
 </g>
</svg>
