<?xml version="1.0" encoding="UTF-8"?>
<!--Generator: Apple Native CoreSVG 232.5-->
<!DOCTYPE svg
PUBLIC "-//W3C//DTD SVG 1.1//EN"
       "http://www.w3.org/Graphics/SVG/1.1/DTD/svg11.dtd">
<svg version="1.1" xmlns="http://www.w3.org/2000/svg" xmlns:xlink="http://www.w3.org/1999/xlink" width="26.1719" height="28.3252">
 <g>
  <rect height="28.3252" opacity="0" width="26.1719" x="0" y="0"/>
  <path d="M20.2212 25.7674C19.8187 25.9888 19.3216 26.1011 18.7402 26.1011L7.07031 26.1011C5.32227 26.1011 4.33594 25.0855 4.33594 23.2105L4.33594 14.3238C4.33594 12.8687 4.93613 11.9307 6.03227 11.5914ZM19.248 8.48391L19.248 11.477C20.6789 11.6585 21.4746 12.6484 21.4746 14.3238L21.4746 20.8116L12.0974 11.4429L17.5293 11.4429L17.5293 8.27883C17.5293 5.02688 15.4492 3.18117 12.9004 3.18117C10.5164 3.18117 8.55963 4.79582 8.31722 7.66611L6.85596 6.20618C7.66909 3.14075 10.1479 1.55031 12.9004 1.55031C16.2793 1.55031 19.248 3.93313 19.248 8.48391Z" fill="#ffffff" fill-opacity="0.85"/>
  <path d="M23.1055 26.7261C23.4277 27.0484 23.9648 27.0484 24.2773 26.7261C24.5996 26.3843 24.6094 25.8667 24.2773 25.5445L2.79297 4.06008C2.4707 3.74758 1.93359 3.72805 1.60156 4.06008C1.28906 4.38234 1.28906 4.92922 1.60156 5.24172Z" fill="#ffffff" fill-opacity="0.85"/>
 </g>
</svg>
