<?xml version="1.0" encoding="UTF-8"?>
<!--Generator: Apple Native CoreSVG 232.5-->
<!DOCTYPE svg
PUBLIC "-//W3C//DTD SVG 1.1//EN"
       "http://www.w3.org/Graphics/SVG/1.1/DTD/svg11.dtd">
<svg version="1.1" xmlns="http://www.w3.org/2000/svg" xmlns:xlink="http://www.w3.org/1999/xlink" width="26.1719" height="28.3252">
 <g>
  <rect height="28.3252" opacity="0" width="26.1719" x="0" y="0"/>
  <path d="M7.52578 13.0835L7.10938 13.0835C6.47461 13.0835 6.07422 13.5034 6.07422 14.2163L6.07422 23.3277C6.07422 24.0405 6.47461 24.4702 7.10938 24.4702L18.7109 24.4702C18.7795 24.4702 18.8451 24.4652 18.907 24.4544L20.2228 25.769C19.8201 25.9895 19.3224 26.1011 18.7402 26.1011L7.07031 26.1011C5.32227 26.1011 4.33594 25.0952 4.33594 23.2202L4.33594 14.3335C4.33594 12.8679 4.93855 11.9334 6.03889 11.598ZM19.248 8.48391L19.248 11.4865C20.6789 11.6665 21.4746 12.6494 21.4746 14.3335L21.4746 20.8116L19.7266 19.0651L19.7266 14.2163C19.7266 13.5034 19.3457 13.0835 18.7109 13.0835L13.7395 13.0835L12.1072 11.4527L17.5293 11.4527L17.5293 8.28859C17.5293 5.03664 15.4492 3.19094 12.9004 3.19094C10.5189 3.19094 8.56369 4.80224 8.3183 7.6672L6.85677 6.20699C7.67099 3.1493 10.1489 1.56008 12.9004 1.56008C16.2793 1.56008 19.248 3.94289 19.248 8.48391Z" fill="#ffffff" fill-opacity="0.55"/>
  <path d="M23.1055 26.7261C23.4277 27.0484 23.9648 27.0484 24.2773 26.7261C24.5996 26.3843 24.6094 25.8667 24.2773 25.5445L2.79297 4.06008C2.4707 3.74758 1.93359 3.72805 1.60156 4.06008C1.28906 4.38234 1.28906 4.92922 1.60156 5.24172Z" fill="#ffffff" fill-opacity="0.85"/>
 </g>
</svg>
