<?xml version="1.0" encoding="UTF-8"?>
<!--Generator: Apple Native CoreSVG 232.5-->
<!DOCTYPE svg
PUBLIC "-//W3C//DTD SVG 1.1//EN"
       "http://www.w3.org/Graphics/SVG/1.1/DTD/svg11.dtd">
<svg version="1.1" xmlns="http://www.w3.org/2000/svg" xmlns:xlink="http://www.w3.org/1999/xlink" width="28.2227" height="25.459">
 <g>
  <rect height="25.459" opacity="0" width="28.2227" x="0" y="0"/>
  <path d="M0 12.7246C0 19.6777 5.76172 25.4395 12.7148 25.4395C17.0215 25.4395 20.8008 23.1934 23.1543 19.8926C23.5156 19.4141 23.3984 18.8281 22.959 18.5742C22.5195 18.3008 22.0117 18.4375 21.6797 18.877C19.7168 21.7285 16.4551 23.6133 12.7148 23.623C6.67969 23.6328 1.81641 18.7598 1.81641 12.7246C1.81641 6.67969 6.67969 1.83594 12.7148 1.83594C17.9492 1.83594 22.2949 5.46875 23.3496 10.3613L21.377 10.3613C20.5859 10.3613 20.3711 10.9082 20.8105 11.5332L23.584 15.4883C23.9453 16.0156 24.4824 16.0254 24.8535 15.4883L27.6367 11.543C28.0859 10.9082 27.8613 10.3613 27.0703 10.3613L25.2051 10.3613C24.0918 4.50195 18.877 0 12.7148 0C5.76172 0 0 5.76172 0 12.7246Z" fill="#ffffff" fill-opacity="0.55"/>
  <path d="M9.56055 19.1406L16.0645 19.1406C16.9531 19.1406 17.3828 18.7012 17.3828 17.7344L17.3828 12.666C17.3828 11.6992 16.9531 11.2598 16.0645 11.2598L10.5957 11.25L10.5957 9.57031C10.5957 8.05664 11.4844 7.05078 12.8125 7.05078C14.1504 7.05078 15.0391 7.95898 15.0391 9.31641L15.0391 9.60938C15.0391 9.9707 15.3027 10.1855 15.6348 10.1855C15.9668 10.1855 16.2012 9.96094 16.2012 9.60938L16.2012 9.31641C16.2012 7.27539 14.8438 5.9082 12.8125 5.9082C10.791 5.9082 9.42383 7.42188 9.42383 9.67773L9.42383 11.2598C8.63281 11.2988 8.25195 11.7383 8.25195 12.6562L8.25195 17.7344C8.25195 18.7012 8.67188 19.1406 9.56055 19.1406Z" fill="#ffffff" fill-opacity="0.85"/>
 </g>
</svg>
