<svg version="1.1" xmlns="http://www.w3.org/2000/svg" xmlns:xlink="http://www.w3.org/1999/xlink" width="29.6387" height="22.2949" viewBox="0 0 29.6387 22.2949">
 <g>
  <rect height="22.2949" opacity="0" width="29.6387" x="0" y="0"/>
  <path d="M9.59961 22.2754L19.6777 22.2754C26.8164 22.2754 29.2773 19.6094 29.2773 13.0371L29.2773 9.23828C29.2773 2.66602 26.8164 0 19.6777 0L9.59961 0C2.46094 0 0 2.66602 0 9.23828L0 13.0371C0 19.6094 2.46094 22.2754 9.59961 22.2754Z" fill="var(--color-tertiary)"/>
  <path d="M7.36328 16.543C6.91406 16.543 6.62109 16.2305 6.62109 15.752L6.62109 6.95312C6.62109 6.2207 7.08008 5.78125 7.80273 5.78125C8.42773 5.78125 8.80859 6.10352 8.97461 6.75781L10.918 14.1895L10.9766 14.1895L12.9004 6.75781C13.0664 6.10352 13.4375 5.78125 14.0918 5.78125C14.8242 5.78125 15.2734 6.19141 15.2734 6.95312L15.2734 15.752C15.2734 16.2305 15.0098 16.543 14.5215 16.543C14.0625 16.543 13.7891 16.2402 13.7891 15.752L13.7891 8.37891L13.7207 8.37891L11.8164 15.5664C11.6895 16.0449 11.4453 16.3672 10.9473 16.3672C10.4785 16.3672 10.2051 16.0352 10.0879 15.5762L8.18359 8.37891L8.11523 8.37891L8.11523 15.752C8.11523 16.2305 7.82227 16.543 7.36328 16.543ZM17.7734 16.3672C17.2559 16.3672 17.0117 16.084 17.0117 15.7031C17.0117 15.3418 17.1973 15.0684 17.4121 14.7949L19.7949 11.6895C20.5078 10.752 21.1426 9.74609 21.1426 8.7207C21.1426 7.79297 20.6934 7.00195 19.8242 7.00195C19.0137 7.00195 18.6523 7.61719 18.4277 8.56445C18.3203 8.93555 18.0859 9.11133 17.7051 9.11133C17.2656 9.11133 17.0215 8.79883 17.0215 8.38867C17.0215 7.04102 18.2129 5.67383 19.834 5.67383C21.5723 5.67383 22.6855 6.94336 22.6855 8.65234C22.6855 9.77539 22.2754 10.7227 21.0547 12.2852L19.0332 14.9219L19.0332 15.0195L22.2461 15.0195C22.6367 15.0195 22.9004 15.2637 22.9004 15.6934C22.9004 16.0938 22.6465 16.3672 22.2461 16.3672Z" fill="var(--color-primary)"/>
 </g>
</svg>
