<?xml version="1.0" encoding="UTF-8"?>
<!--Generator: Apple Native CoreSVG 232.5-->
<!DOCTYPE svg
PUBLIC "-//W3C//DTD SVG 1.1//EN"
       "http://www.w3.org/Graphics/SVG/1.1/DTD/svg11.dtd">
<svg version="1.1" xmlns="http://www.w3.org/2000/svg" xmlns:xlink="http://www.w3.org/1999/xlink" width="25.8008" height="25.459">
 <g>
  <rect height="25.459" opacity="0" width="25.8008" x="0" y="0"/>
  <path d="M12.7148 25.4395C19.6777 25.4395 25.4395 19.6777 25.4395 12.7246C25.4395 5.76172 19.668 0 12.7051 0C5.75195 0 0 5.76172 0 12.7246C0 19.6777 5.76172 25.4395 12.7148 25.4395Z" fill="#ffffff" fill-opacity="0.25"/>
  <path d="M11.2988 16.543C8.37891 16.543 5.97656 14.1504 5.97656 11.2305C5.97656 8.30078 8.37891 5.89844 11.2988 5.89844C14.2285 5.89844 16.6113 8.29102 16.6113 11.2305C16.6113 12.373 16.2402 13.4277 15.625 14.2871L19.1016 17.7832C19.2969 17.9785 19.4238 18.2227 19.4238 18.4863C19.4238 19.0527 19.043 19.4629 18.4961 19.4629C18.1543 19.4629 17.9199 19.3555 17.6758 19.1016L14.2188 15.6445C13.3789 16.2012 12.373 16.543 11.2988 16.543ZM11.2988 15.0098C13.3789 15.0098 15.0781 13.291 15.0781 11.2207C15.0781 9.14062 13.3789 7.43164 11.2988 7.43164C9.21875 7.43164 7.50977 9.15039 7.50977 11.2207C7.50977 13.291 9.21875 15.0098 11.2988 15.0098Z" fill="#ffffff" fill-opacity="0.85"/>
 </g>
</svg>
