<?xml version="1.0" encoding="UTF-8"?>
<!--Generator: Apple Native CoreSVG 232.5-->
<!DOCTYPE svg
PUBLIC "-//W3C//DTD SVG 1.1//EN"
       "http://www.w3.org/Graphics/SVG/1.1/DTD/svg11.dtd">
<svg version="1.1" xmlns="http://www.w3.org/2000/svg" xmlns:xlink="http://www.w3.org/1999/xlink" width="23.3203" height="22.9785">
 <g>
  <rect height="22.9785" opacity="0" width="23.3203" x="0" y="0"/>
  <path d="M3.79883 22.9785L19.1504 22.9785C21.6797 22.9785 22.959 21.709 22.959 19.2188L22.959 3.78906C22.959 1.29883 21.6797 0.0292969 19.1504 0.0292969L3.79883 0.0292969C1.2793 0.0292969 0 1.28906 0 3.78906L0 19.2188C0 21.7188 1.2793 22.9785 3.79883 22.9785Z" fill="#ffffff" fill-opacity="0.25"/>
  <path d="M7.80273 17.3047C7.37305 17.3047 7.05078 17.0215 7.05078 16.5527L7.05078 12.2852C7.05078 9.04297 8.56445 7.19727 10.8398 6.92383L10.8398 5.51758C10.8398 5.11719 11.1133 4.89258 11.4844 4.89258C11.8066 4.89258 12.0996 5.11719 12.0996 5.51758L12.0996 6.91406C14.3945 7.1875 15.918 9.0332 15.918 12.2852L15.918 16.5527C15.918 17.0215 15.625 17.3047 15.1758 17.3047C14.7461 17.3047 14.4531 17.0215 14.4531 16.5527L14.4531 12.3926C14.4531 9.98047 13.5547 8.60352 12.0996 8.33008L12.0996 16.6699C12.0996 17.0508 11.8066 17.3047 11.4844 17.3047C11.1133 17.3047 10.8398 17.0508 10.8398 16.6699L10.8398 8.33984C9.41406 8.64258 8.52539 10.0098 8.52539 12.3926L8.52539 16.5527C8.52539 17.0215 8.23242 17.3047 7.80273 17.3047Z" fill="#ffffff" fill-opacity="0.85"/>
 </g>
</svg>
