<?xml version="1.0" encoding="UTF-8"?>
<!--Generator: Apple Native CoreSVG 232.5-->
<!DOCTYPE svg
PUBLIC "-//W3C//DTD SVG 1.1//EN"
       "http://www.w3.org/Graphics/SVG/1.1/DTD/svg11.dtd">
<svg version="1.1" xmlns="http://www.w3.org/2000/svg" xmlns:xlink="http://www.w3.org/1999/xlink" width="25.8008" height="25.459">
 <g>
  <rect height="25.459" opacity="0" width="25.8008" x="0" y="0"/>
  <path d="M25.4395 12.7246C25.4395 19.6777 19.6777 25.4395 12.7148 25.4395C5.76172 25.4395 0 19.6777 0 12.7246C0 5.76172 5.75195 0 12.7051 0C19.668 0 25.4395 5.76172 25.4395 12.7246ZM1.82617 12.7246C1.82617 18.7598 6.67969 23.623 12.7148 23.623C18.7598 23.623 23.6133 18.7598 23.6133 12.7246C23.6133 6.67969 18.75 1.82617 12.7051 1.82617C6.66992 1.82617 1.82617 6.67969 1.82617 12.7246Z" fill="#ffffff" fill-opacity="0.85"/>
  <path d="M13.4473 15.3711L13.4473 17.4316C13.4473 19.1602 13.1836 20.5371 12.7051 20.5371C12.2266 20.5371 11.9531 19.1309 11.9531 17.4316L11.9531 13.877ZM15.4492 7.88086C15.4492 9.14062 14.6094 10.1855 13.4473 10.498L13.4473 11.543L9.96871 8.06442C9.96302 8.00406 9.96094 7.94271 9.96094 7.88086C9.96094 6.36719 11.1914 5.13672 12.7051 5.13672C14.2188 5.13672 15.4492 6.36719 15.4492 7.88086ZM11.1133 7.17773C11.123 7.64648 11.5332 8.05664 12.002 8.05664C12.4902 8.05664 12.8809 7.64648 12.8809 7.17773C12.8906 6.68945 12.4902 6.2793 12.002 6.2793C11.5332 6.2793 11.1035 6.68945 11.1133 7.17773Z" fill="#ffffff" fill-opacity="0.85"/>
  <path d="M18.5742 19.3164C18.7793 19.5215 19.1113 19.5215 19.3066 19.3164C19.5215 19.1016 19.5215 18.7988 19.3066 18.584L6.8457 6.11328C6.64062 5.9082 6.30859 5.9082 6.10352 6.11328C5.89844 6.31836 5.9082 6.65039 6.10352 6.8457Z" fill="#ffffff" fill-opacity="0.85"/>
 </g>
</svg>
