<?xml version="1.0" encoding="UTF-8"?>
<!--Generator: Apple Native CoreSVG 232.5-->
<!DOCTYPE svg
PUBLIC "-//W3C//DTD SVG 1.1//EN"
       "http://www.w3.org/Graphics/SVG/1.1/DTD/svg11.dtd">
<svg version="1.1" xmlns="http://www.w3.org/2000/svg" xmlns:xlink="http://www.w3.org/1999/xlink" width="25.8008" height="25.459">
 <g>
  <rect height="25.459" opacity="0" width="25.8008" x="0" y="0"/>
  <path d="M12.7148 25.459C19.6777 25.459 25.4395 19.6973 25.4395 12.7344C25.4395 5.78125 19.668 0.0195312 12.7051 0.0195312C5.75195 0.0195312 0 5.78125 0 12.7344C0 19.6973 5.76172 25.459 12.7148 25.459Z" fill="#ffffff" fill-opacity="0.25"/>
  <path d="M13.4863 15.4688L13.4863 17.5293C13.4863 19.3164 13.2129 20.7422 12.7148 20.7422C12.2168 20.7422 11.9336 19.2871 11.9336 17.5293L11.9336 13.916ZM6.72852 5.97656L19.4824 18.7402C19.6973 18.9453 19.6973 19.2676 19.4824 19.4922C19.2773 19.6973 18.9258 19.6875 18.7305 19.4922L5.9668 6.72852C5.76172 6.5332 5.76172 6.19141 5.9668 5.97656C6.18164 5.77148 6.51367 5.77148 6.72852 5.97656ZM15.5371 7.77344C15.5371 9.07227 14.668 10.1465 13.4863 10.4688L13.4863 11.5234L9.89951 7.93662C9.89418 7.88304 9.89258 7.82843 9.89258 7.77344C9.89258 6.2207 11.1621 4.96094 12.7148 4.96094C14.2676 4.96094 15.5371 6.2207 15.5371 7.77344ZM11.084 7.05078C11.0938 7.53906 11.5137 7.95898 11.9922 7.95898C12.4902 7.95898 12.8906 7.53906 12.8906 7.05078C12.9004 6.5625 12.4902 6.13281 11.9922 6.13281C11.5137 6.13281 11.0742 6.5625 11.084 7.05078Z" fill="#ffffff" fill-opacity="0.85"/>
 </g>
</svg>
