<?xml version="1.0" encoding="UTF-8"?>
<!--Generator: Apple Native CoreSVG 232.5-->
<!DOCTYPE svg
PUBLIC "-//W3C//DTD SVG 1.1//EN"
       "http://www.w3.org/Graphics/SVG/1.1/DTD/svg11.dtd">
<svg version="1.1" xmlns="http://www.w3.org/2000/svg" xmlns:xlink="http://www.w3.org/1999/xlink" width="23.3203" height="22.9785">
 <g>
  <rect height="22.9785" opacity="0" width="23.3203" x="0" y="0"/>
  <path d="M22.959 3.78906L22.959 19.2188C22.959 21.709 21.6797 22.9785 19.1504 22.9785L3.79883 22.9785C1.2793 22.9785 0 21.7188 0 19.2188L0 3.78906C0 1.28906 1.2793 0.0292969 3.79883 0.0292969L19.1504 0.0292969C21.6797 0.0292969 22.959 1.29883 22.959 3.78906ZM15.1953 10.1465L15.1953 11.7285C15.1953 13.8867 13.7012 15.3809 11.4844 15.3809C9.26758 15.3809 7.7832 13.8867 7.7832 11.7285L7.7832 10.1465C7.7832 9.82422 7.50977 9.54102 7.17773 9.54102C6.85547 9.54102 6.57227 9.82422 6.57227 10.1465L6.57227 11.7285C6.57227 14.3164 8.30078 16.25 10.8691 16.5137L10.8691 18.0371L8.26172 18.0371C7.91992 18.0371 7.62695 18.3301 7.62695 18.6719C7.62695 19.0039 7.91992 19.2773 8.26172 19.2773L14.7168 19.2773C15.0488 19.2773 15.3418 18.9941 15.3418 18.6719C15.3418 18.3301 15.0586 18.0371 14.7168 18.0371L12.1094 18.0371L12.1094 16.5137C14.6777 16.2402 16.4062 14.3164 16.4062 11.7285L16.4062 10.1465C16.4062 9.82422 16.123 9.54102 15.8008 9.54102C15.4688 9.54102 15.1953 9.82422 15.1953 10.1465ZM9.33594 6.08398L9.33594 11.6699C9.33594 12.9785 10.2051 13.9746 11.4844 13.9746C12.7637 13.9746 13.6328 12.9785 13.6328 11.6699L13.6328 6.08398C13.6328 4.77539 12.7637 3.79883 11.4844 3.79883C10.2051 3.79883 9.33594 4.77539 9.33594 6.08398Z" fill="#ffffff" fill-opacity="0.85"/>
 </g>
</svg>
