<svg version="1.1" xmlns="http://www.w3.org/2000/svg" xmlns:xlink="http://www.w3.org/1999/xlink" width="25.8008" height="25.459" viewBox="0 0 25.8008 25.459">
 <g>
  <rect height="25.459" opacity="0" width="25.8008" x="0" y="0"/>
  <path d="M12.7148 25.4395C19.6777 25.4395 25.4395 19.6777 25.4395 12.7246C25.4395 5.76172 19.668 0 12.7051 0C5.75195 0 0 5.76172 0 12.7246C0 19.6777 5.76172 25.4395 12.7148 25.4395ZM12.7148 23.623C6.67969 23.623 1.82617 18.7598 1.82617 12.7246C1.82617 6.67969 6.66992 1.82617 12.7051 1.82617C18.75 1.82617 23.6133 6.67969 23.6133 12.7246C23.6133 18.7598 18.7598 23.623 12.7148 23.623Z" fill="var(--color-primary)"/>
  <path d="M12.7148 17.1387C15.1562 17.1387 17.1387 15.166 17.1387 12.7246C17.1387 10.293 15.1562 8.31055 12.7148 8.31055C10.2832 8.31055 8.30078 10.293 8.30078 12.7246C8.30078 15.166 10.2832 17.1387 12.7148 17.1387ZM12.7344 7.08984C13.2129 7.08984 13.5742 6.72852 13.5742 6.25C13.5742 5.76172 13.2129 5.41016 12.7344 5.41016C12.2461 5.41016 11.8945 5.76172 11.8945 6.25C11.8945 6.72852 12.2461 7.08984 12.7344 7.08984ZM15.9766 7.95898C16.4648 7.95898 16.8164 7.59766 16.8164 7.10938C16.8164 6.63086 16.4648 6.26953 15.9766 6.26953C15.498 6.26953 15.1367 6.63086 15.1367 7.10938C15.1367 7.59766 15.498 7.95898 15.9766 7.95898ZM18.3496 10.332C18.8281 10.332 19.1895 9.9707 19.1895 9.49219C19.1895 9.00391 18.8281 8.64258 18.3496 8.64258C17.8613 8.64258 17.5098 9.00391 17.5098 9.49219C17.5098 9.9707 17.8613 10.332 18.3496 10.332ZM19.2188 13.5645C19.6973 13.5645 20.0586 13.2031 20.0586 12.7246C20.0586 12.2363 19.6973 11.8848 19.2188 11.8848C18.7305 11.8848 18.3691 12.2363 18.3691 12.7246C18.3691 13.2031 18.7305 13.5645 19.2188 13.5645ZM18.3496 16.7969C18.8281 16.7969 19.1895 16.4355 19.1895 15.957C19.1895 15.4688 18.8281 15.1172 18.3496 15.1172C17.8613 15.1172 17.5098 15.4688 17.5098 15.957C17.5098 16.4355 17.8613 16.7969 18.3496 16.7969ZM15.9766 19.1699C16.4648 19.1699 16.8164 18.8086 16.8164 18.3301C16.8164 17.8516 16.4648 17.4902 15.9766 17.4902C15.498 17.4902 15.1367 17.8516 15.1367 18.3301C15.1367 18.8086 15.498 19.1699 15.9766 19.1699ZM12.7344 20.0391C13.2129 20.0391 13.5742 19.6777 13.5742 19.1992C13.5742 18.7109 13.2129 18.3594 12.7344 18.3594C12.2461 18.3594 11.8945 18.7109 11.8945 19.1992C11.8945 19.6777 12.2461 20.0391 12.7344 20.0391ZM9.48242 19.1699C9.9707 19.1699 10.332 18.8086 10.332 18.3301C10.332 17.8516 9.9707 17.4902 9.48242 17.4902C9.00391 17.4902 8.64258 17.8516 8.64258 18.3301C8.64258 18.8086 9.00391 19.1699 9.48242 19.1699ZM7.11914 16.7969C7.59766 16.7969 7.95898 16.4355 7.95898 15.957C7.95898 15.4688 7.59766 15.1172 7.11914 15.1172C6.64062 15.1172 6.2793 15.4688 6.2793 15.957C6.2793 16.4355 6.64062 16.7969 7.11914 16.7969ZM6.25 13.5645C6.73828 13.5645 7.08984 13.2031 7.08984 12.7246C7.08984 12.2363 6.73828 11.8848 6.25 11.8848C5.77148 11.8848 5.41016 12.2363 5.41016 12.7246C5.41016 13.2031 5.77148 13.5645 6.25 13.5645ZM7.11914 10.332C7.59766 10.332 7.95898 9.9707 7.95898 9.49219C7.95898 9.00391 7.59766 8.64258 7.11914 8.64258C6.64062 8.64258 6.2793 9.00391 6.2793 9.49219C6.2793 9.9707 6.64062 10.332 7.11914 10.332ZM9.48242 7.95898C9.9707 7.95898 10.332 7.59766 10.332 7.10938C10.332 6.63086 9.9707 6.26953 9.48242 6.26953C9.00391 6.26953 8.64258 6.63086 8.64258 7.10938C8.64258 7.59766 9.00391 7.95898 9.48242 7.95898Z" fill="var(--color-primary)"/>
 </g>
</svg>
