<?xml version="1.0" encoding="UTF-8"?>
<!--Generator: Apple Native CoreSVG 232.5-->
<!DOCTYPE svg
PUBLIC "-//W3C//DTD SVG 1.1//EN"
       "http://www.w3.org/Graphics/SVG/1.1/DTD/svg11.dtd">
<svg version="1.1" xmlns="http://www.w3.org/2000/svg" xmlns:xlink="http://www.w3.org/1999/xlink" width="28.2246" height="25.459">
 <g>
  <rect height="25.459" opacity="0" width="28.2246" x="0" y="0"/>
  <path d="M15.1475 25.4395C22.1104 25.4395 27.8623 19.6777 27.8623 12.7246C27.8623 5.76172 22.1104 0 15.1475 0C8.18458 0 2.43263 5.75195 2.43263 12.7148L4.24904 12.7148C4.24904 6.66992 9.10255 1.83594 15.1475 1.83594C21.1826 1.83594 26.0459 6.67969 26.0459 12.7246C26.0459 18.7598 21.1826 23.6426 15.1475 23.623C11.4072 23.6133 8.13576 21.7383 6.18263 18.877C5.86037 18.4375 5.34279 18.3008 4.90333 18.5742C4.47365 18.8281 4.34669 19.4141 4.70802 19.8926C7.08107 23.1836 10.8408 25.4395 15.1475 25.4395ZM0.801772 10.3613C0.000990731 10.3613-0.223619 10.9082 0.235366 11.543L3.0088 15.4883C3.3799 16.0254 3.91701 16.0156 4.27833 15.4883L7.05177 11.5332C7.49123 10.9082 7.27638 10.3613 6.48537 10.3613Z" fill="#ffffff" fill-opacity="0.85"/>
  <path d="M11.1729 17.168C11.5733 17.168 11.8467 16.8848 11.8467 16.4746L11.8467 11.6895C11.8467 10.6445 12.3545 9.94141 13.2236 9.94141C13.9463 9.94141 14.4834 10.5176 14.4834 11.3281L14.4834 11.7285L11.8662 19.1211C11.8272 19.2285 11.7979 19.3359 11.7979 19.4531C11.7979 19.7461 12.0322 19.9609 12.335 19.9609C12.5889 19.9609 12.7744 19.8145 12.8721 19.5508L14.4834 14.9609L14.4834 16.4746C14.4834 16.8848 14.7666 17.168 15.167 17.168C15.5576 17.168 15.8408 16.8848 15.8408 16.4746L15.8408 11.5723C15.8408 10.5762 16.3682 9.95117 17.1983 9.95117C17.999 9.95117 18.4776 10.5273 18.4776 11.4746L18.4776 16.4746C18.4776 16.8945 18.7608 17.168 19.1611 17.168C19.5518 17.168 19.835 16.8945 19.835 16.4746L19.835 11.3574C19.835 9.70703 18.8975 8.71094 17.4912 8.71094C17.2373 8.71094 17.0127 8.75977 16.8174 8.84766L17.7744 6.39648C17.8135 6.29883 17.833 6.20117 17.833 6.09375C17.833 5.79102 17.5986 5.57617 17.2959 5.57617C17.042 5.57617 16.8565 5.73242 16.7588 5.98633L15.2744 9.79492C14.9229 9.07227 14.2783 8.70117 13.4776 8.70117C12.7647 8.70117 12.169 9.0332 11.7881 9.7168L11.7881 9.47266C11.7881 9.00391 11.5147 8.75977 11.1338 8.75977C10.7529 8.75977 10.4795 9.0332 10.4795 9.44336L10.4795 16.4941C10.4795 16.9043 10.7725 17.168 11.1729 17.168Z" fill="#ffffff" fill-opacity="0.85"/>
 </g>
</svg>
