<?xml version="1.0" encoding="UTF-8"?>
<!--Generator: Apple Native CoreSVG 232.5-->
<!DOCTYPE svg
PUBLIC "-//W3C//DTD SVG 1.1//EN"
       "http://www.w3.org/Graphics/SVG/1.1/DTD/svg11.dtd">
<svg version="1.1" xmlns="http://www.w3.org/2000/svg" xmlns:xlink="http://www.w3.org/1999/xlink" width="23.3203" height="22.9785">
 <g>
  <rect height="22.9785" opacity="0" width="23.3203" x="0" y="0"/>
  <path d="M3.79883 22.9785L19.1504 22.9785C21.6797 22.9785 22.959 21.709 22.959 19.2188L22.959 3.78906C22.959 1.29883 21.6797 0.0292969 19.1504 0.0292969L3.79883 0.0292969C1.2793 0.0292969 0 1.28906 0 3.78906L0 19.2188C0 21.7188 1.2793 22.9785 3.79883 22.9785ZM3.83789 21.25C2.4707 21.25 1.72852 20.5273 1.72852 19.1309L1.72852 3.87695C1.72852 2.48047 2.4707 1.75781 3.83789 1.75781L19.1211 1.75781C20.459 1.75781 21.2305 2.48047 21.2305 3.87695L21.2305 19.1309C21.2305 20.5273 20.459 21.25 19.1211 21.25Z" fill="#ffffff" fill-opacity="0.55"/>
  <path d="M6.32812 12.4023L16.6504 12.4023C17.2461 12.4023 17.666 12.0703 17.666 11.5137C17.666 10.9375 17.2656 10.5957 16.6504 10.5957L6.32812 10.5957C5.71289 10.5957 5.3125 10.9375 5.3125 11.5137C5.3125 12.0703 5.73242 12.4023 6.32812 12.4023Z" fill="#ffffff" fill-opacity="0.85"/>
 </g>
</svg>
