<?xml version="1.0" encoding="UTF-8"?>
<!--Generator: Apple Native CoreSVG 232.5-->
<!DOCTYPE svg
PUBLIC "-//W3C//DTD SVG 1.1//EN"
       "http://www.w3.org/Graphics/SVG/1.1/DTD/svg11.dtd">
<svg version="1.1" xmlns="http://www.w3.org/2000/svg" xmlns:xlink="http://www.w3.org/1999/xlink" width="25.8008" height="25.459">
 <g>
  <rect height="25.459" opacity="0" width="25.8008" x="0" y="0"/>
  <path d="M1.81641 12.7246C1.82617 6.67969 6.68945 1.82617 12.7246 1.82617C13.1934 1.82617 13.6523 1.85547 14.0918 1.92383C10.3027 3.95508 8.07617 7.87109 8.07617 12.7344C8.07617 17.5586 10.2832 21.4746 14.043 23.5254C13.6035 23.5938 13.1641 23.623 12.7148 23.623C6.67969 23.623 1.80664 18.7598 1.81641 12.7246Z" fill="#ffffff" fill-opacity="0.2125"/>
  <path d="M25.4395 12.7246C25.4395 5.76172 19.6875 0 12.7246 0C5.77148 0 0 5.76172 0 12.7246C0 19.6777 5.76172 25.4395 12.7148 25.4395C19.6777 25.4395 25.4395 19.6777 25.4395 12.7246ZM1.81641 12.7246C1.82617 6.67969 6.68945 1.82617 12.7246 1.82617C13.1934 1.82617 13.6523 1.85547 14.0918 1.92383C10.3027 3.95508 8.07617 7.87109 8.07617 12.7344C8.07617 17.5586 10.2832 21.4746 14.043 23.5254C13.6035 23.5938 13.1641 23.623 12.7148 23.623C6.67969 23.623 1.80664 18.7598 1.81641 12.7246Z" fill="#ffffff" fill-opacity="0.85"/>
 </g>
</svg>
