<?xml version="1.0" encoding="UTF-8"?>
<!--Generator: Apple Native CoreSVG 232.5-->
<!DOCTYPE svg
PUBLIC "-//W3C//DTD SVG 1.1//EN"
       "http://www.w3.org/Graphics/SVG/1.1/DTD/svg11.dtd">
<svg version="1.1" xmlns="http://www.w3.org/2000/svg" xmlns:xlink="http://www.w3.org/1999/xlink" width="32.6562" height="25.8887">
 <g>
  <rect height="25.8887" opacity="0" width="32.6562" x="0" y="0"/>
  <path d="M7.56836 22.7832L23.9551 22.7832C24.5117 22.1484 24.9902 21.4258 25.3516 20.5957C25.5566 20.127 25.5273 19.7266 25.2832 19.4727C25.0781 19.2578 24.707 19.2383 24.2969 19.3848C23.3496 19.7461 22.2363 19.9414 20.8594 19.9414C15.3711 19.9414 11.9336 16.5723 11.9336 11.1621C11.9336 9.78516 12.1875 8.33008 12.5879 7.5C12.8125 7.06055 12.8125 6.63086 12.5684 6.38672C12.3242 6.12305 11.9043 6.05469 11.3867 6.2793C7.74414 7.87109 5.26367 11.6699 5.26367 16.123C5.26367 18.7012 6.09375 21.0156 7.56836 22.7832Z" fill="#ffffff" fill-opacity="0.55"/>
  <path d="M0.9375 25.8594L31.3574 25.8594C31.8652 25.8594 32.2949 25.4785 32.2949 25.0098C32.2949 24.5312 31.8652 24.1504 31.3574 24.1504L0.9375 24.1504C0.429688 24.1504 0 24.5312 0 25.0098C0 25.4785 0.429688 25.8594 0.9375 25.8594Z" fill="#ffffff" fill-opacity="0.85"/>
  <path d="M22.6074 0C22.1387 0 21.7285 0.419922 21.7285 0.947266L21.7285 7.48047L21.8555 9.47266L20.918 8.4082L19.1211 6.5918C18.9551 6.42578 18.75 6.33789 18.5352 6.33789C18.1055 6.33789 17.793 6.64062 17.793 7.07031C17.793 7.30469 17.8809 7.48047 18.0664 7.66602L22.0215 11.4062C22.2461 11.6016 22.4121 11.6797 22.6074 11.6797C22.8027 11.6797 22.9688 11.6016 23.1934 11.4062L27.1484 7.66602C27.334 7.48047 27.4219 7.30469 27.4219 7.07031C27.4219 6.64062 27.1094 6.33789 26.6797 6.33789C26.4648 6.33789 26.2598 6.42578 26.0938 6.5918L24.3945 8.31055L23.3594 9.47266L23.4863 7.48047L23.4863 0.947266C23.4863 0.419922 23.0762 0 22.6074 0Z" fill="#ffffff" fill-opacity="0.85"/>
 </g>
</svg>
