<svg version="1.1" xmlns="http://www.w3.org/2000/svg" xmlns:xlink="http://www.w3.org/1999/xlink" width="24.8633" height="24.6777" viewBox="0 0 24.8633 24.6777">
 <g>
  <rect height="24.6777" opacity="0" width="24.8633" x="0" y="0"/>
  <path d="M19.1895 16.748C12.4609 16.748 8.05664 12.4121 8.05664 5.67383C8.05664 4.14062 8.36914 2.29492 8.82812 1.19141C8.93555 0.947266 8.95508 0.78125 8.95508 0.673828C8.95508 0.341797 8.71094 0 8.27148 0C8.13477 0 7.89062 0.0292969 7.65625 0.117188C3.07617 1.97266 0 6.9043 0 12.1191C0 19.3555 5.55664 24.6387 12.793 24.6387C18.1055 24.6387 22.8418 21.4062 24.3945 17.3242C24.4824 17.0801 24.502 16.8262 24.502 16.7188C24.502 16.2891 24.1602 15.9961 23.8086 15.9961C23.6719 15.9961 23.5547 16.0156 23.3496 16.084C22.3828 16.4062 20.791 16.748 19.1895 16.748Z" fill="var(--color-primary)"/>
 </g>
</svg>
