<?xml version="1.0" encoding="UTF-8"?>
<!--Generator: Apple Native CoreSVG 232.5-->
<!DOCTYPE svg
PUBLIC "-//W3C//DTD SVG 1.1//EN"
       "http://www.w3.org/Graphics/SVG/1.1/DTD/svg11.dtd">
<svg version="1.1" xmlns="http://www.w3.org/2000/svg" xmlns:xlink="http://www.w3.org/1999/xlink" width="25.8008" height="25.459">
 <g>
  <rect height="25.459" opacity="0" width="25.8008" x="0" y="0"/>
  <path d="M12.7148 25.4395C19.6777 25.4395 25.4395 19.6777 25.4395 12.7246C25.4395 5.76172 19.668 0 12.7051 0C5.75195 0 0 5.76172 0 12.7246C0 19.6777 5.76172 25.4395 12.7148 25.4395Z" fill="#ffffff" fill-opacity="0.25"/>
  <path d="M4.55078 16.9434C4.16992 16.9434 3.94531 16.6895 3.94531 16.3184L3.94531 9.44336C3.94531 8.95508 4.24805 8.48633 4.92188 8.48633C5.42969 8.48633 5.74219 8.69141 5.86914 9.27734L7.10938 15.0391L7.12891 15.0391L8.33008 9.27734C8.44727 8.73047 8.76953 8.48633 9.29688 8.48633C9.88281 8.48633 10.2637 8.84766 10.2637 9.44336L10.2637 16.3184C10.2637 16.6992 10.0586 16.9434 9.67773 16.9434C9.30664 16.9434 9.0918 16.6895 9.0918 16.3184L9.0918 10.4883L9.04297 10.4883L7.82227 16.1133C7.74414 16.5234 7.51953 16.8066 7.10938 16.8066C6.71875 16.8066 6.48438 16.5234 6.39648 16.123L5.18555 10.4883L5.14648 10.4883L5.14648 16.3184C5.14648 16.6992 4.93164 16.9434 4.55078 16.9434ZM12.0801 16.9238C11.748 16.9238 11.4258 16.7285 11.4258 16.2402L11.4258 9.29688C11.4258 8.83789 11.6992 8.60352 12.0703 8.60352L13.75 8.60352C15.166 8.60352 15.8984 9.86328 15.8984 11.3086C15.8984 12.7246 15.1465 14.0234 13.6719 14.0234L12.7441 14.0234L12.7441 16.2402C12.7441 16.6895 12.4707 16.9238 12.0801 16.9238ZM12.7441 12.9492L13.4082 12.9492C14.2773 12.9492 14.5996 12.1973 14.5996 11.3086C14.5996 10.4395 14.2773 9.67773 13.418 9.67773L12.7441 9.67773ZM17.4609 16.9434C17.0215 16.9434 16.7969 16.6504 16.7969 16.2305L16.7969 9.19922C16.7969 8.76953 17.0215 8.48633 17.4609 8.48633C17.8809 8.48633 18.125 8.76953 18.125 9.19922L18.125 12.0801L20.2832 12.0801L20.2832 9.19922C20.2832 8.7793 20.5078 8.48633 20.9473 8.48633C21.3574 8.48633 21.6016 8.75 21.6016 9.19922L21.6016 16.2305C21.6016 16.6699 21.3672 16.9434 20.9473 16.9434C20.498 16.9434 20.2832 16.6113 20.2832 16.2305L20.2832 13.2031L18.125 13.2031L18.125 16.2305C18.125 16.6504 17.8809 16.9434 17.4609 16.9434Z" fill="#ffffff" fill-opacity="0.85"/>
 </g>
</svg>
