<svg version="1.1" xmlns="http://www.w3.org/2000/svg" xmlns:xlink="http://www.w3.org/1999/xlink" width="23.3203" height="22.9785" viewBox="0 0 23.3203 22.9785">
 <g>
  <rect height="22.9785" opacity="0" width="23.3203" x="0" y="0"/>
  <path d="M3.79883 22.9785L19.1504 22.9785C21.6797 22.9785 22.959 21.709 22.959 19.2188L22.959 3.78906C22.959 1.29883 21.6797 0.0292969 19.1504 0.0292969L3.79883 0.0292969C1.2793 0.0292969 0 1.28906 0 3.78906L0 19.2188C0 21.7188 1.2793 22.9785 3.79883 22.9785Z" fill="var(--color-tertiary)"/>
  <path d="M7.24609 16.6406C6.74805 16.6406 6.34766 16.2402 6.34766 15.7324C6.34766 15.498 6.44531 15.2734 6.61133 15.0977L10.2148 11.4941L6.61133 7.89062C6.44531 7.71484 6.34766 7.5 6.34766 7.25586C6.34766 6.75781 6.74805 6.37695 7.24609 6.37695C7.5 6.37695 7.69531 6.46484 7.87109 6.64062L11.4844 10.2441L15.1172 6.63086C15.3027 6.43555 15.5078 6.35742 15.752 6.35742C16.2402 6.35742 16.6406 6.74805 16.6406 7.23633C16.6406 7.49023 16.5723 7.68555 16.377 7.88086L12.7637 11.4941L16.3672 15.0879C16.5527 15.2637 16.6309 15.4883 16.6309 15.7324C16.6309 16.2402 16.2305 16.6406 15.7324 16.6406C15.4785 16.6406 15.2441 16.543 15.0781 16.3672L11.4844 12.7637L7.90039 16.3672C7.72461 16.543 7.5 16.6406 7.24609 16.6406Z" fill="var(--color-primary)"/>
 </g>
</svg>
