<svg version="1.1" xmlns="http://www.w3.org/2000/svg" xmlns:xlink="http://www.w3.org/1999/xlink" width="23.3203" height="22.9785" viewBox="0 0 23.3203 22.9785">
 <g>
  <rect height="22.9785" opacity="0" width="23.3203" x="0" y="0"/>
  <path d="M3.79883 22.9785L19.1504 22.9785C21.6797 22.9785 22.959 21.709 22.959 19.2188L22.959 3.78906C22.959 1.29883 21.6797 0.0292969 19.1504 0.0292969L3.79883 0.0292969C1.2793 0.0292969 0 1.28906 0 3.78906L0 19.2188C0 21.7188 1.2793 22.9785 3.79883 22.9785Z" fill="var(--color-tertiary)"/>
  <path d="M7.59766 17.373C7.07031 17.373 6.75781 17.0312 6.75781 16.4844L6.75781 6.39648C6.75781 5.78125 7.08984 5.41016 7.66602 5.41016C8.05664 5.41016 8.32031 5.55664 8.61328 5.98633L14.4434 14.4629L14.5312 14.4629L14.5312 6.30859C14.5312 5.76172 14.834 5.41016 15.3516 5.41016C15.8887 5.41016 16.2012 5.74219 16.2012 6.30859L16.2012 16.416C16.2012 17.0215 15.8496 17.373 15.2832 17.373C14.8926 17.373 14.6582 17.2363 14.3555 16.8066L8.51562 8.41797L8.4375 8.41797L8.4375 16.4844C8.4375 17.0508 8.11523 17.373 7.59766 17.373Z" fill="var(--color-primary)"/>
 </g>
</svg>
