<?xml version="1.0" encoding="UTF-8"?>
<!--Generator: Apple Native CoreSVG 232.5-->
<!DOCTYPE svg
PUBLIC "-//W3C//DTD SVG 1.1//EN"
       "http://www.w3.org/Graphics/SVG/1.1/DTD/svg11.dtd">
<svg version="1.1" xmlns="http://www.w3.org/2000/svg" xmlns:xlink="http://www.w3.org/1999/xlink" width="25.8008" height="25.459">
 <g>
  <rect height="25.459" opacity="0" width="25.8008" x="0" y="0"/>
  <path d="M12.7148 25.4395C19.6777 25.4395 25.4395 19.6777 25.4395 12.7246C25.4395 5.76172 19.668 0 12.7051 0C5.75195 0 0 5.76172 0 12.7246C0 19.6777 5.76172 25.4395 12.7148 25.4395ZM12.7148 23.623C6.67969 23.623 1.82617 18.7598 1.82617 12.7246C1.82617 6.67969 6.66992 1.82617 12.7051 1.82617C18.75 1.82617 23.6133 6.67969 23.6133 12.7246C23.6133 18.7598 18.7598 23.623 12.7148 23.623Z" fill="#ffffff" fill-opacity="0.55"/>
  <path d="M8.64258 17.959C9.0332 17.959 9.35547 17.6367 9.35547 17.2461L9.35547 15.2246L10.0684 14.541L12.1973 17.5586C12.4902 17.998 12.9492 18.0176 13.2422 17.8027C13.5156 17.6074 13.6426 17.2168 13.3301 16.7676L11.1133 13.6426L13.3105 11.3574C13.623 11.0352 13.5449 10.6738 13.3203 10.4688C13.0762 10.2148 12.6367 10.1465 12.3047 10.5176L9.39453 13.7109L9.35547 13.7109L9.35547 8.125C9.35547 7.73438 9.0332 7.41211 8.64258 7.41211C8.25195 7.41211 7.91992 7.73438 7.91992 8.125L7.91992 17.2461C7.91992 17.6367 8.25195 17.959 8.64258 17.959ZM15.6152 17.9688C15.9961 17.9688 16.2988 17.666 16.2988 17.2852L16.2988 13.4766C16.2988 12.5098 16.6602 11.6797 17.6367 11.6797C17.9102 11.6797 18.2129 11.6309 18.3887 11.5039C18.5449 11.416 18.6523 11.25 18.6523 11.0156C18.6523 10.791 18.5742 10.6152 18.4473 10.498C18.2812 10.3613 18.0664 10.3027 17.8223 10.3027C17.041 10.3027 16.4746 10.9668 16.3086 11.7871L16.2598 11.7871L16.2598 10.9375C16.2598 10.5762 15.9668 10.2832 15.5957 10.2832C15.2246 10.2832 14.9316 10.5762 14.9316 10.9375L14.9316 17.2852C14.9316 17.666 15.2344 17.9688 15.6152 17.9688Z" fill="#ffffff" fill-opacity="0.85"/>
 </g>
</svg>
