<?xml version="1.0" encoding="UTF-8"?>
<!--Generator: Apple Native CoreSVG 232.5-->
<!DOCTYPE svg
PUBLIC "-//W3C//DTD SVG 1.1//EN"
       "http://www.w3.org/Graphics/SVG/1.1/DTD/svg11.dtd">
<svg version="1.1" xmlns="http://www.w3.org/2000/svg" xmlns:xlink="http://www.w3.org/1999/xlink" width="23.3203" height="22.9785">
 <g>
  <rect height="22.9785" opacity="0" width="23.3203" x="0" y="0"/>
  <path d="M22.959 3.78906L22.959 19.2188C22.959 21.709 21.6797 22.9785 19.1504 22.9785L3.79883 22.9785C1.2793 22.9785 0 21.7188 0 19.2188L0 3.78906C0 1.28906 1.2793 0.0292969 3.79883 0.0292969L19.1504 0.0292969C21.6797 0.0292969 22.959 1.29883 22.959 3.78906ZM13.916 5.82031L13.3301 8.55469L10.8203 8.55469L11.3477 6.03516C11.4453 5.56641 11.123 5.16602 10.6445 5.16602C10.1953 5.16602 9.91211 5.39062 9.82422 5.82031L9.25781 8.55469L7.8125 8.55469C7.37305 8.55469 7.05078 8.87695 7.05078 9.31641C7.05078 9.69727 7.32422 9.98047 7.70508 9.98047L8.94531 9.98047L8.38867 12.7148L6.9043 12.7148C6.45508 12.7148 6.14258 13.0469 6.14258 13.4766C6.14258 13.8672 6.40625 14.1406 6.78711 14.1406L8.07617 14.1406L7.51953 16.7969C7.43164 17.2656 7.76367 17.6562 8.24219 17.6562C8.68164 17.6562 8.95508 17.4316 9.04297 17.002L9.64844 14.1504L12.1582 14.1504L11.6016 16.7969C11.5039 17.2656 11.8359 17.6562 12.2949 17.6562C12.7637 17.6562 13.0469 17.4316 13.1348 17.002L13.7305 14.1406L15.1367 14.1406C15.5859 14.1406 15.8984 13.8086 15.8984 13.3789C15.8984 12.998 15.6348 12.7148 15.2539 12.7148L14.0332 12.7148L14.6191 9.98047L16.0547 9.98047C16.5039 9.98047 16.8164 9.6582 16.8164 9.21875C16.8164 8.82812 16.543 8.55469 16.1621 8.55469L14.9121 8.55469L15.4492 6.03516C15.5371 5.55664 15.1953 5.16602 14.7168 5.16602C14.2773 5.16602 14.0039 5.39062 13.916 5.82031ZM12.5195 12.832L9.86328 12.832L10.4785 9.87305L13.1445 9.87305Z" fill="#ffffff" fill-opacity="0.85"/>
 </g>
</svg>
