<svg version="1.1" xmlns="http://www.w3.org/2000/svg" xmlns:xlink="http://www.w3.org/1999/xlink" width="25.8008" height="25.459" viewBox="0 0 25.8008 25.459">
 <g>
  <rect height="25.459" opacity="0" width="25.8008" x="0" y="0"/>
  <path d="M12.7148 25.4395C19.6777 25.4395 25.4395 19.6777 25.4395 12.7246C25.4395 5.76172 19.668 0 12.7051 0C5.75195 0 0 5.76172 0 12.7246C0 19.6777 5.76172 25.4395 12.7148 25.4395Z" fill="var(--color-tertiary)"/>
  <path d="M12.7148 18.7402C9.46289 18.7402 7.22656 16.25 7.22656 12.6367C7.22656 9.01367 9.46289 6.52344 12.7148 6.52344C15.9668 6.52344 18.2031 9.01367 18.2031 12.6367C18.2031 16.25 15.9668 18.7402 12.7148 18.7402ZM12.7148 17.3242C14.9512 17.3242 16.4258 15.4492 16.4258 12.6367C16.4258 9.81445 14.9512 7.94922 12.7148 7.94922C10.4883 7.94922 9.00391 9.81445 9.00391 12.6367C9.00391 15.4492 10.4883 17.3242 12.7148 17.3242Z" fill="var(--color-primary)"/>
 </g>
</svg>
