<?xml version="1.0" encoding="UTF-8"?>
<!--Generator: Apple Native CoreSVG 232.5-->
<!DOCTYPE svg
PUBLIC "-//W3C//DTD SVG 1.1//EN"
       "http://www.w3.org/Graphics/SVG/1.1/DTD/svg11.dtd">
<svg version="1.1" xmlns="http://www.w3.org/2000/svg" xmlns:xlink="http://www.w3.org/1999/xlink" width="25.8008" height="25.459">
 <g>
  <rect height="25.459" opacity="0" width="25.8008" x="0" y="0"/>
  <path d="M12.7148 25.4395C19.6777 25.4395 25.4395 19.6777 25.4395 12.7246C25.4395 5.76172 19.668 0 12.7051 0C5.75195 0 0 5.76172 0 12.7246C0 19.6777 5.76172 25.4395 12.7148 25.4395Z" fill="#ffffff" fill-opacity="0.25"/>
  <path d="M12.7051 9.78516C11.3574 9.78516 10.2734 8.63281 10.2734 7.11914C10.2734 5.69336 11.3672 4.50195 12.7051 4.50195C14.0527 4.50195 15.127 5.69336 15.127 7.11914C15.127 8.63281 14.0625 9.79492 12.7051 9.78516ZM8.41797 15.0781C7.96875 15.0781 7.69531 14.8047 7.69531 14.4043C7.69531 13.1445 9.43359 10.6934 12.7051 10.6934C15.9766 10.6934 17.7148 13.1445 17.7148 14.4043C17.7148 14.8047 17.4414 15.0781 16.9824 15.0781ZM7.22656 19.9316C6.92383 19.9316 6.68945 19.6973 6.68945 19.4043C6.68945 19.1113 6.92383 18.8672 7.22656 18.8672L7.34375 18.8672L7.34375 17.0117C7.34375 16.3477 7.66602 15.9766 8.37891 15.9766L17.041 15.9766C17.7637 15.9766 18.0859 16.3477 18.0859 17.0117L18.0859 18.8672L18.2031 18.8672C18.4961 18.8672 18.7305 19.1113 18.7305 19.4043C18.7305 19.6973 18.4961 19.9316 18.2031 19.9316ZM11.1621 18.3789L14.2578 18.3789C14.4824 18.3789 14.668 18.1934 14.668 17.9785C14.668 17.7539 14.4824 17.5879 14.2578 17.5879L11.1621 17.5879C10.9277 17.5879 10.7715 17.7539 10.7715 17.9785C10.7715 18.1934 10.9277 18.3789 11.1621 18.3789Z" fill="#ffffff" fill-opacity="0.85"/>
 </g>
</svg>
