<svg version="1.1" xmlns="http://www.w3.org/2000/svg" xmlns:xlink="http://www.w3.org/1999/xlink" width="23.3203" height="22.9785" viewBox="0 0 23.3203 22.9785">
 <g>
  <rect height="22.9785" opacity="0" width="23.3203" x="0" y="0"/>
  <path d="M3.79883 22.9785L19.1504 22.9785C21.6797 22.9785 22.959 21.709 22.959 19.2188L22.959 3.78906C22.959 1.29883 21.6797 0.0292969 19.1504 0.0292969L3.79883 0.0292969C1.2793 0.0292969 0 1.28906 0 3.78906L0 19.2188C0 21.7188 1.2793 22.9785 3.79883 22.9785Z" fill="var(--color-tertiary)"/>
  <path d="M6.9043 10.7031C6.9043 10.3613 7.13867 10.1172 7.46094 10.1172L8.23242 10.1172L8.23242 9.22852L7.46094 9.22852C7.13867 9.22852 6.9043 8.96484 6.9043 8.64258C6.9043 8.30078 7.13867 8.07617 7.46094 8.07617L8.23242 8.07617L8.23242 6.50391C8.23242 6.04492 8.52539 5.75195 8.97461 5.75195L11.9922 5.75195C13.7402 5.75195 15.0586 6.65039 15.6152 8.07617L16.4941 8.07617C16.8262 8.07617 17.0508 8.30078 17.0508 8.64258C17.0508 8.96484 16.8262 9.22852 16.4941 9.22852L15.8691 9.22852C15.8887 9.39453 15.8984 9.53125 15.8984 9.67773C15.8984 9.82422 15.8887 9.98047 15.8691 10.1172L16.4941 10.1172C16.8262 10.1172 17.0508 10.3613 17.0508 10.7031C17.0508 11.0254 16.8262 11.2695 16.4941 11.2695L15.6152 11.2695C15.0586 12.7051 13.7402 13.6133 11.9922 13.6133L9.7168 13.6133L9.7168 17.0801C9.7168 17.5195 9.42383 17.8223 8.99414 17.8223C8.56445 17.8223 8.23242 17.5195 8.23242 17.0801L8.23242 11.2695L7.46094 11.2695C7.13867 11.2695 6.9043 11.0254 6.9043 10.7031ZM9.72656 12.2559L11.7871 12.2559C12.7832 12.2559 13.5352 11.9043 13.9551 11.2695L9.72656 11.2695ZM9.72656 10.1172L14.4141 10.1172C14.4336 9.98047 14.4434 9.82422 14.4434 9.67773C14.4434 9.51172 14.4336 9.36523 14.4141 9.22852L9.72656 9.22852ZM9.72656 8.07617L13.9551 8.07617C13.5254 7.46094 12.7832 7.09961 11.7871 7.09961L9.72656 7.09961Z" fill="var(--color-primary)"/>
 </g>
</svg>
