<svg version="1.1" xmlns="http://www.w3.org/2000/svg" xmlns:xlink="http://www.w3.org/1999/xlink" width="25.8008" height="25.459" viewBox="0 0 25.8008 25.459">
 <g>
  <rect height="25.459" opacity="0" width="25.8008" x="0" y="0"/>
  <path d="M12.7148 25.4395C19.6777 25.4395 25.4395 19.6777 25.4395 12.7246C25.4395 5.76172 19.668 0 12.7051 0C5.75195 0 0 5.76172 0 12.7246C0 19.6777 5.76172 25.4395 12.7148 25.4395ZM12.7148 23.623C6.67969 23.623 1.82617 18.7598 1.82617 12.7246C1.82617 6.67969 6.66992 1.82617 12.7051 1.82617C18.75 1.82617 23.6133 6.67969 23.6133 12.7246C23.6133 18.7598 18.7598 23.623 12.7148 23.623Z" fill="var(--color-secondary)"/>
  <path d="M9.54102 15.7129C12.4609 18.6328 16.2793 20.5566 18.5254 18.3105C18.6035 18.2324 18.6523 18.1641 18.7109 18.0957C19.3457 17.4023 19.4824 16.582 18.8086 16.0352C18.3203 15.6738 17.7832 15.3027 16.4941 14.4141C15.8008 13.9258 15.3027 14.0137 14.707 14.5996L14.1895 15.0977C14.043 15.2441 13.8086 15.2344 13.6328 15.127C13.1934 14.873 12.4316 14.2871 11.6992 13.5547C10.9766 12.832 10.3711 12.0508 10.1367 11.6309C10.0488 11.4746 10 11.2695 10.166 11.1035L10.6738 10.5566C11.25 9.93164 11.3281 9.45312 10.8398 8.76953L9.25781 6.52344C8.7207 5.75195 7.91992 6.02539 7.12891 6.5918C7.06055 6.63086 7.01172 6.68945 6.96289 6.73828C4.7168 8.98438 6.63086 12.8027 9.54102 15.7129Z" fill="var(--color-primary)"/>
 </g>
</svg>
