<?xml version="1.0" encoding="UTF-8"?>
<!--Generator: Apple Native CoreSVG 232.5-->
<!DOCTYPE svg
PUBLIC "-//W3C//DTD SVG 1.1//EN"
       "http://www.w3.org/Graphics/SVG/1.1/DTD/svg11.dtd">
<svg version="1.1" xmlns="http://www.w3.org/2000/svg" xmlns:xlink="http://www.w3.org/1999/xlink" width="23.4375" height="27.4334">
 <g>
  <rect height="27.4334" opacity="0" width="23.4375" x="0" y="0"/>
  <path d="M0 13.7118C0 18.3993 1.11328 23.038 3.59375 25.5477C4.76562 26.7294 6.26953 27.452 8.17383 27.4227C10.0098 27.3837 11.2988 26.2606 10.9863 24.5028L10.2148 20.079C9.98047 18.6825 9.35547 18.0673 7.77344 18.0673L7.00195 18.0673C5.60547 18.0673 5.35156 16.7977 5.35156 13.7118C5.35156 10.6259 5.60547 9.34657 7.00195 9.34657L7.77344 9.34657C9.33594 9.34657 9.9707 8.75087 10.2148 7.34462L10.9863 2.92079C11.2988 1.15321 10.0098 0.0301663 8.17383 0.00086938C6.26953-0.0284275 4.76562 0.684463 3.59375 1.87587C1.11328 4.37587 0 9.01454 0 13.7118Z" fill="#ffffff" fill-opacity="0.85"/>
  <path d="M10.7617 14.4833L17.9395 14.4833L20.4199 14.3856L17.666 16.9052L16.1328 18.4384C15.9766 18.5946 15.8984 18.7899 15.8984 19.0243C15.8984 19.4638 16.2207 19.7665 16.6406 19.7665C16.8652 19.7665 17.0605 19.6884 17.2168 19.5321L22.4707 14.288C22.6562 14.1024 22.7539 13.8974 22.7539 13.7118C22.7539 13.5263 22.6562 13.3212 22.4707 13.1356L17.2168 7.88173C17.0605 7.73524 16.8652 7.64735 16.6406 7.64735C16.2207 7.64735 15.8984 7.95985 15.8984 8.39931C15.8984 8.62392 15.9766 8.82899 16.1328 8.97548L17.666 10.5184L20.4199 13.0282L17.9395 12.9306L10.7617 12.9306C10.2734 12.9306 9.9707 13.3017 9.9707 13.7118C9.9707 14.1122 10.2734 14.4833 10.7617 14.4833Z" fill="#ffffff" fill-opacity="0.85"/>
 </g>
</svg>
