<?xml version="1.0" encoding="UTF-8"?>
<!--Generator: Apple Native CoreSVG 232.5-->
<!DOCTYPE svg
PUBLIC "-//W3C//DTD SVG 1.1//EN"
       "http://www.w3.org/Graphics/SVG/1.1/DTD/svg11.dtd">
<svg version="1.1" xmlns="http://www.w3.org/2000/svg" xmlns:xlink="http://www.w3.org/1999/xlink" width="25.8008" height="25.459">
 <g>
  <rect height="25.459" opacity="0" width="25.8008" x="0" y="0"/>
  <path d="M12.7148 25.459C19.6777 25.459 25.4395 19.6973 25.4395 12.7344C25.4395 5.78125 19.668 0.0195312 12.7051 0.0195312C5.75195 0.0195312 0 5.78125 0 12.7344C0 19.6973 5.76172 25.459 12.7148 25.459Z" fill="#ffffff" fill-opacity="0.25"/>
  <path d="M3.95508 13.9746L3.95508 13.8379C3.95508 10.4004 8.47656 8.79883 12.7148 8.79883C16.9531 8.79883 21.4844 10.4004 21.4844 13.8379L21.4844 13.9746C21.4844 14.8438 21.0645 15.6543 20.0488 15.6543C19.3262 15.6543 18.4766 15.625 17.0312 15.1758C16.2402 14.9316 15.8594 14.5703 15.8398 13.6426L15.8203 12.832C15.8203 12.6758 15.7422 12.5684 15.5371 12.5C15.1074 12.3535 14.0918 12.1777 12.7148 12.1777C11.3477 12.1777 10.332 12.3535 9.89258 12.5C9.69727 12.5684 9.60938 12.6758 9.60938 12.832L9.58984 13.6426C9.58008 14.5703 9.18945 14.9316 8.39844 15.1758C6.95312 15.625 6.11328 15.6543 5.38086 15.6543C4.36523 15.6543 3.95508 14.8438 3.95508 13.9746Z" fill="#ffffff" fill-opacity="0.85"/>
 </g>
</svg>
