<?xml version="1.0" encoding="UTF-8"?>
<!--Generator: Apple Native CoreSVG 232.5-->
<!DOCTYPE svg
PUBLIC "-//W3C//DTD SVG 1.1//EN"
       "http://www.w3.org/Graphics/SVG/1.1/DTD/svg11.dtd">
<svg version="1.1" xmlns="http://www.w3.org/2000/svg" xmlns:xlink="http://www.w3.org/1999/xlink" width="25.8008" height="25.459">
 <g>
  <rect height="25.459" opacity="0" width="25.8008" x="0" y="0"/>
  <path d="M12.7148 25.459C19.6777 25.459 25.4395 19.6973 25.4395 12.7344C25.4395 5.78125 19.668 0.0195312 12.7051 0.0195312C5.75195 0.0195312 0 5.78125 0 12.7344C0 19.6973 5.76172 25.459 12.7148 25.459Z" fill="#ffffff" fill-opacity="0.25"/>
  <path d="M10.6543 10.1074C10.2344 9.57031 9.56055 9.24805 8.85742 9.24805C8.4082 9.24805 7.98828 9.375 7.62695 9.58008C7.48047 9.30664 7.42188 9.04297 7.42188 8.74023C7.42188 7.79297 8.19336 7.02148 9.13086 7.04102C9.13086 6.5332 9.58984 6.08398 10.0977 6.15234C10.2344 5.60547 10.8105 5.09766 11.6699 5.09766C12.3438 5.09766 12.9492 5.48828 13.2031 6.11328C13.418 6.06445 13.6523 6.07422 13.8379 6.13281C14.1406 5.85938 14.5312 5.69336 14.9707 5.69336C15.6445 5.69336 16.1523 6.12305 16.3867 6.74805C17.373 6.75781 18.0859 7.5293 18.0859 8.59375C18.0859 8.95508 17.9688 9.30664 17.7734 9.59961C17.4121 9.375 16.9922 9.24805 16.543 9.24805C15.8398 9.24805 15.1562 9.57031 14.7461 10.1074C14.2969 9.45312 13.4863 9.07227 12.6953 9.07227C11.9043 9.07227 11.1035 9.45312 10.6543 10.1074ZM10.1953 20.1855C9.32617 20.1855 8.90625 19.707 8.74023 18.8672L7.44141 12.002C7.20703 10.7812 7.99805 10.1172 8.85742 10.1172C9.55078 10.1172 10.1953 10.5664 10.2637 11.4062L11.0645 20.1855ZM11.9043 20.1855L11.123 11.582C11.0352 10.4395 11.9727 9.93164 12.6953 9.93164C13.4277 9.93164 14.3652 10.4395 14.2676 11.582L13.4863 20.1855ZM15.2051 20.1855L14.3359 20.1855L15.127 11.4062C15.2051 10.5664 15.8496 10.1172 16.543 10.1172C17.3926 10.1172 18.1934 10.7812 17.959 12.002L16.6504 18.8672C16.4941 19.707 16.0742 20.1855 15.2051 20.1855Z" fill="#ffffff" fill-opacity="0.85"/>
 </g>
</svg>
