<svg version="1.1" xmlns="http://www.w3.org/2000/svg" xmlns:xlink="http://www.w3.org/1999/xlink" width="23.3203" height="22.9785" viewBox="0 0 23.3203 22.9785">
 <g>
  <rect height="22.9785" opacity="0" width="23.3203" x="0" y="0"/>
  <path d="M22.959 3.78906L22.959 19.2188C22.959 21.709 21.6797 22.9785 19.1504 22.9785L3.79883 22.9785C1.2793 22.9785 0 21.7188 0 19.2188L0 3.78906C0 1.28906 1.2793 0.0292969 3.79883 0.0292969L19.1504 0.0292969C21.6797 0.0292969 22.959 1.29883 22.959 3.78906ZM6.62109 5.48828C5.95703 5.48828 5.46875 5.9668 5.46875 6.63086L5.46875 16.3477C5.46875 17.0117 5.95703 17.5 6.62109 17.5L16.4551 17.5C17.1289 17.5 17.6074 17.0117 17.6074 16.3477L17.6074 6.63086C17.6074 5.9668 17.1289 5.48828 16.4551 5.48828ZM12.2949 12.7441L12.2949 15.0684C12.2949 15.3418 12.1094 15.5176 11.8359 15.5176L11.2402 15.5176C10.9766 15.5176 10.7812 15.332 10.7812 15.0684L10.7812 12.7441C10.7812 12.4707 10.9766 12.2754 11.2402 12.2754L11.8359 12.2754C12.0996 12.2754 12.2949 12.4707 12.2949 12.7441ZM9.89258 8.34961L10.3125 8.76953C10.5273 8.96484 10.5176 9.23828 10.3125 9.43359L8.49609 11.2305C8.30078 11.4355 8.04688 11.4355 7.86133 11.2305L7.43164 10.8105C7.23633 10.6152 7.24609 10.3711 7.43164 10.1758L9.24805 8.35938C9.44336 8.16406 9.69727 8.16406 9.89258 8.34961ZM13.8379 8.35938L15.6445 10.1758C15.8398 10.3711 15.8496 10.6152 15.6543 10.8105L15.2246 11.2305C15.0391 11.4355 14.7852 11.4355 14.5801 11.2305L12.7637 9.43359C12.5586 9.23828 12.5586 8.96484 12.7637 8.76953L13.1836 8.33984C13.3887 8.14453 13.6426 8.16406 13.8379 8.35938Z" fill="currentColor"/>
 </g>
</svg>
