<?xml version="1.0" encoding="UTF-8"?>
<!--Generator: Apple Native CoreSVG 232.5-->
<!DOCTYPE svg
PUBLIC "-//W3C//DTD SVG 1.1//EN"
       "http://www.w3.org/Graphics/SVG/1.1/DTD/svg11.dtd">
<svg version="1.1" xmlns="http://www.w3.org/2000/svg" xmlns:xlink="http://www.w3.org/1999/xlink" width="23.3203" height="22.9785">
 <g>
  <rect height="22.9785" opacity="0" width="23.3203" x="0" y="0"/>
  <path d="M22.959 3.78906L22.959 19.2188C22.959 21.709 21.6797 22.9785 19.1504 22.9785L3.79883 22.9785C1.2793 22.9785 0 21.7188 0 19.2188L0 3.78906C0 1.28906 1.2793 0.0292969 3.79883 0.0292969L19.1504 0.0292969C21.6797 0.0292969 22.959 1.29883 22.959 3.78906ZM6.43555 5.47852C5.76172 5.47852 5.2832 5.95703 5.2832 6.62109L5.2832 16.3379C5.2832 17.002 5.76172 17.4902 6.43555 17.4902L16.5234 17.4902C17.1875 17.4902 17.6758 17.002 17.6758 16.3379L17.6758 6.62109C17.6758 5.95703 17.1875 5.47852 16.5234 5.47852ZM9.98047 13.6523C9.98047 14.3555 9.41406 14.9219 8.71094 14.9219C7.99805 14.9219 7.43164 14.3555 7.43164 13.6523C7.43164 12.9492 7.99805 12.373 8.71094 12.373C9.41406 12.373 9.98047 12.9492 9.98047 13.6523ZM15.5469 13.6523C15.5469 14.3555 14.9707 14.9219 14.2676 14.9219C13.5645 14.9219 12.998 14.3555 12.998 13.6523C12.998 12.9492 13.5645 12.373 14.2676 12.373C14.9707 12.373 15.5469 12.9492 15.5469 13.6523ZM12.7637 9.30664C12.7637 10.0195 12.1973 10.5859 11.4844 10.5859C10.7812 10.5859 10.2148 10.0195 10.2148 9.30664C10.2148 8.60352 10.7812 8.03711 11.4844 8.03711C12.1973 8.03711 12.7637 8.60352 12.7637 9.30664Z" fill="#ffffff" fill-opacity="0.85"/>
 </g>
</svg>
