<svg version="1.1" xmlns="http://www.w3.org/2000/svg" xmlns:xlink="http://www.w3.org/1999/xlink" width="24.1406" height="22.9785" viewBox="0 0 24.1406 22.9785">
 <g>
  <rect height="22.9785" opacity="0" width="24.1406" x="0" y="0"/>
  <path d="M3.79883 22.9785L19.9805 22.9785C22.5098 22.9785 23.7793 21.709 23.7793 19.2188L23.7793 3.78906C23.7793 1.29883 22.5098 0.0292969 19.9805 0.0292969L3.79883 0.0292969C1.2793 0.0292969 0 1.28906 0 3.78906L0 19.2188C0 21.7188 1.2793 22.9785 3.79883 22.9785Z" fill="var(--color-tertiary)"/>
  <path d="M7.44141 17.5586C6.40625 17.5586 5.55664 16.7188 5.55664 15.6738C5.55664 14.6484 6.40625 13.7988 7.44141 13.7988C8.47656 13.7988 9.31641 14.6484 9.31641 15.6738C9.31641 16.7188 8.47656 17.5586 7.44141 17.5586ZM16.3477 17.5586C15.3125 17.5586 14.4629 16.7188 14.4629 15.6738C14.4629 14.6484 15.3125 13.7988 16.3477 13.7988C17.373 13.7988 18.2227 14.6484 18.2227 15.6738C18.2227 16.7188 17.373 17.5586 16.3477 17.5586ZM11.8945 9.16016C10.8496 9.16016 10.0098 8.30078 10.0098 7.27539C10.0098 6.24023 10.8496 5.40039 11.8945 5.40039C12.9199 5.40039 13.7695 6.24023 13.7695 7.27539C13.7695 8.30078 12.9199 9.16016 11.8945 9.16016Z" fill="var(--color-primary)"/>
 </g>
</svg>
