<?xml version="1.0" encoding="UTF-8"?>
<!--Generator: Apple Native CoreSVG 232.5-->
<!DOCTYPE svg
PUBLIC "-//W3C//DTD SVG 1.1//EN"
       "http://www.w3.org/Graphics/SVG/1.1/DTD/svg11.dtd">
<svg version="1.1" xmlns="http://www.w3.org/2000/svg" xmlns:xlink="http://www.w3.org/1999/xlink" width="25.8008" height="25.459">
 <g>
  <rect height="25.459" opacity="0" width="25.8008" x="0" y="0"/>
  <path d="M12.7148 25.4395C19.6777 25.4395 25.4395 19.6777 25.4395 12.7246C25.4395 5.76172 19.668 0 12.7051 0C5.75195 0 0 5.76172 0 12.7246C0 19.6777 5.76172 25.4395 12.7148 25.4395Z" fill="#ffffff" fill-opacity="0.25"/>
  <path d="M12.7246 19.4141C9.0625 19.4141 6.02539 16.3672 6.02539 12.7246C6.02539 10.8496 6.85547 9.00391 8.27148 7.76367C9.04297 7.04102 10.0879 8.14453 9.29688 8.88672C8.20312 9.87305 7.58789 11.2402 7.58789 12.7246C7.58789 15.5859 9.87305 17.8711 12.7246 17.8711C15.5762 17.8711 17.8711 15.5859 17.8711 12.7246C17.8613 11.2402 17.2363 9.87305 16.1523 8.89648C15.3613 8.1543 16.4062 7.05078 17.1777 7.76367C18.5938 9.02344 19.4238 10.8594 19.4238 12.7246C19.4238 16.3672 16.3867 19.4141 12.7246 19.4141ZM12.7246 12.959C12.2852 12.959 11.9824 12.6367 11.9824 12.1875L11.9824 6.42578C11.9824 5.97656 12.2852 5.66406 12.7246 5.66406C13.1641 5.66406 13.4766 5.97656 13.4766 6.42578L13.4766 12.1875C13.4766 12.6367 13.1641 12.959 12.7246 12.959Z" fill="#ffffff" fill-opacity="0.85"/>
 </g>
</svg>
