<?xml version="1.0" encoding="UTF-8"?>
<!--Generator: Apple Native CoreSVG 232.5-->
<!DOCTYPE svg
PUBLIC "-//W3C//DTD SVG 1.1//EN"
       "http://www.w3.org/Graphics/SVG/1.1/DTD/svg11.dtd">
<svg version="1.1" xmlns="http://www.w3.org/2000/svg" xmlns:xlink="http://www.w3.org/1999/xlink" width="31.7383" height="21.5527">
 <g>
  <rect height="21.5527" opacity="0" width="31.7383" x="0" y="0"/>
  <path d="M0 13.2129C0 14.8535 0.927734 15.7715 2.59766 15.7715L6.73828 15.7715C8.49609 15.7715 9.4043 16.2305 10.5566 17.7051C12.4609 20.1758 15.3906 21.5332 18.457 21.5332L22.2754 21.5332C23.2422 21.5332 23.8965 20.8887 23.8965 19.9316L23.8965 1.54297C23.8965 0.625 23.2422 0 22.2754 0L18.457 0C15.3906 0 12.4609 1.35742 10.5566 3.81836C9.4043 5.30273 8.49609 5.77148 6.73828 5.77148L2.59766 5.77148C0.927734 5.77148 0 6.67969 0 8.32031ZM1.72852 13.0566L1.72852 8.47656C1.72852 7.83203 2.08008 7.5 2.70508 7.5L6.73828 7.5C9.02344 7.5 10.4395 6.78711 11.9238 4.87305C13.4961 2.82227 15.8887 1.73828 18.457 1.73828L21.7285 1.73828C22.0117 1.73828 22.168 1.875 22.168 2.13867L22.168 19.3945C22.168 19.6582 22.0117 19.8047 21.7285 19.8047L18.457 19.8047C15.8887 19.8047 13.4961 18.7207 11.9238 16.6699C10.4395 14.7559 9.02344 14.0332 6.73828 14.0332L2.70508 14.0332C2.08008 14.0332 1.72852 13.7012 1.72852 13.0566ZM22.7832 8.21289L29.5605 8.21289C30.5664 8.21289 31.377 7.40234 31.377 6.39648C31.377 5.39062 30.5664 4.57031 29.5605 4.57031L22.7832 4.57031ZM22.7832 16.9629L29.5605 16.9629C30.5664 16.9629 31.377 16.1523 31.377 15.1465C31.377 14.1309 30.5664 13.3203 29.5605 13.3203L22.7832 13.3203Z" fill="#ffffff" fill-opacity="0.85"/>
 </g>
</svg>
