<?xml version="1.0" encoding="UTF-8"?>
<!--Generator: Apple Native CoreSVG 232.5-->
<!DOCTYPE svg
PUBLIC "-//W3C//DTD SVG 1.1//EN"
       "http://www.w3.org/Graphics/SVG/1.1/DTD/svg11.dtd">
<svg version="1.1" xmlns="http://www.w3.org/2000/svg" xmlns:xlink="http://www.w3.org/1999/xlink" width="23.3203" height="22.9785">
 <g>
  <rect height="22.9785" opacity="0" width="23.3203" x="0" y="0"/>
  <path d="M3.79883 22.9785L19.1504 22.9785C21.6797 22.9785 22.959 21.709 22.959 19.2188L22.959 3.78906C22.959 1.29883 21.6797 0.0292969 19.1504 0.0292969L3.79883 0.0292969C1.2793 0.0292969 0 1.28906 0 3.78906L0 19.2188C0 21.7188 1.2793 22.9785 3.79883 22.9785Z" fill="#ffffff" fill-opacity="0.25"/>
  <path d="M11.4746 18.2031C7.75391 18.2031 4.75586 15.2051 4.75586 11.4844C4.75586 7.75391 7.75391 4.75586 11.4746 4.75586C15.2051 4.75586 18.2031 7.75391 18.2031 11.4844C18.2031 15.2051 15.2051 18.2031 11.4746 18.2031ZM11.4746 9.04297C12.0117 9.04297 12.4316 8.61328 12.4316 8.08594C12.4316 7.55859 12.0117 7.13867 11.4746 7.13867C10.9473 7.13867 10.5273 7.55859 10.5273 8.08594C10.5273 8.61328 10.9473 9.04297 11.4746 9.04297ZM8.14453 12.959C8.93555 12.959 9.58984 12.2949 9.58984 11.5039C9.58984 10.7031 8.93555 10.0488 8.14453 10.0488C7.34375 10.0488 6.68945 10.7031 6.68945 11.5039C6.68945 12.2949 7.34375 12.959 8.14453 12.959ZM14.8145 12.9297C15.6152 12.9297 16.2695 12.2754 16.2695 11.4844C16.2695 10.6836 15.6152 10.0293 14.8145 10.0293C14.0137 10.0293 13.3594 10.6836 13.3594 11.4844C13.3594 12.2754 14.0137 12.9297 14.8145 12.9297Z" fill="#ffffff" fill-opacity="0.85"/>
 </g>
</svg>
