<svg version="1.1" xmlns="http://www.w3.org/2000/svg" xmlns:xlink="http://www.w3.org/1999/xlink" width="23.3203" height="22.9785" viewBox="0 0 23.3203 22.9785">
 <g>
  <rect height="22.9785" opacity="0" width="23.3203" x="0" y="0"/>
  <path d="M3.79883 22.9785L19.1504 22.9785C21.6797 22.9785 22.959 21.709 22.959 19.2188L22.959 3.78906C22.959 1.29883 21.6797 0.0292969 19.1504 0.0292969L3.79883 0.0292969C1.2793 0.0292969 0 1.28906 0 3.78906L0 19.2188C0 21.7188 1.2793 22.9785 3.79883 22.9785Z" fill="var(--color-tertiary)"/>
  <path d="M8.18359 17.373C7.62695 17.373 7.31445 16.9727 7.31445 16.3867L7.31445 6.55273C7.31445 5.95703 7.61719 5.54688 8.17383 5.54688L11.8555 5.54688C14.3457 5.54688 15.957 7.00195 15.957 9.24805C15.957 10.8691 14.9609 12.1973 13.4277 12.6562L15.4785 15.9473C15.625 16.1816 15.6836 16.3574 15.6836 16.6113C15.6836 17.0605 15.3613 17.373 14.8828 17.373C14.4824 17.373 14.2578 17.207 13.9941 16.7773L11.6699 12.9102L9.0918 12.9102L9.0918 16.3867C9.0918 16.9922 8.76953 17.373 8.18359 17.373ZM9.0918 11.5723L11.6211 11.5723C13.1836 11.5723 14.1992 10.7227 14.1992 9.28711C14.1992 7.8125 13.1641 6.93359 11.6602 6.93359L9.0918 6.93359Z" fill="var(--color-primary)"/>
 </g>
</svg>
