<?xml version="1.0" encoding="UTF-8"?>
<!--Generator: Apple Native CoreSVG 232.5-->
<!DOCTYPE svg
PUBLIC "-//W3C//DTD SVG 1.1//EN"
       "http://www.w3.org/Graphics/SVG/1.1/DTD/svg11.dtd">
<svg version="1.1" xmlns="http://www.w3.org/2000/svg" xmlns:xlink="http://www.w3.org/1999/xlink" width="29.6387" height="22.2949">
 <g>
  <rect height="22.2949" opacity="0" width="29.6387" x="0" y="0"/>
  <path d="M9.59961 22.2754L19.6777 22.2754C26.8164 22.2754 29.2773 19.6094 29.2773 13.0371L29.2773 9.23828C29.2773 2.66602 26.8164 0 19.6777 0L9.59961 0C2.46094 0 0 2.66602 0 9.23828L0 13.0371C0 19.6094 2.46094 22.2754 9.59961 22.2754Z" fill="#ffffff" fill-opacity="0.25"/>
  <path d="M8.52539 16.5137C7.98828 16.5137 7.68555 16.1621 7.68555 15.6445L7.68555 6.77734C7.68555 6.24023 7.97852 5.91797 8.50586 5.91797L10.6836 5.91797C12.666 5.91797 13.8672 7.05078 13.8672 9.08203C13.8672 10.332 13.3496 11.416 12.3047 11.9141L13.6621 15.0977C13.7598 15.3516 13.8379 15.5859 13.8379 15.7129C13.8379 16.2695 13.4277 16.5137 13.0469 16.5137C12.6074 16.5137 12.3535 16.2695 12.1875 15.8496L10.7227 12.2656L9.3457 12.2656L9.3457 15.6445C9.3457 16.1719 9.0332 16.5137 8.52539 16.5137ZM9.3457 11.0156L10.5273 11.0156C11.6699 11.0156 12.1777 10.2148 12.1777 9.12109C12.1777 7.98828 11.582 7.25586 10.5273 7.25586L9.3457 7.25586ZM19.9512 16.5234C19.5801 16.5234 19.1699 16.2891 19.1699 15.6934L19.1699 14.2188L16.1621 14.2188C15.5859 14.2188 15.2051 13.8379 15.2051 13.2812C15.2051 12.9199 15.2734 12.627 15.4688 12.1875L17.9688 6.88477C18.3008 6.17188 18.6719 5.76172 19.4629 5.76172C20.1953 5.76172 20.7324 6.17188 20.7324 6.99219L20.7324 12.8906L21.2695 12.8906C21.7188 12.8906 21.9238 13.1738 21.9238 13.5449C21.9238 13.9355 21.709 14.2188 21.2695 14.2188L20.7324 14.2188L20.7324 15.6934C20.7324 16.2402 20.3711 16.5234 19.9512 16.5234ZM19.1992 12.9199L19.1992 7.24609L19.1504 7.24609L16.6113 12.8516L16.6113 12.9199Z" fill="#ffffff" fill-opacity="0.85"/>
 </g>
</svg>
