<?xml version="1.0" encoding="UTF-8"?>
<!--Generator: Apple Native CoreSVG 232.5-->
<!DOCTYPE svg
PUBLIC "-//W3C//DTD SVG 1.1//EN"
       "http://www.w3.org/Graphics/SVG/1.1/DTD/svg11.dtd">
<svg version="1.1" xmlns="http://www.w3.org/2000/svg" xmlns:xlink="http://www.w3.org/1999/xlink" width="25.8008" height="25.459">
 <g>
  <rect height="25.459" opacity="0" width="25.8008" x="0" y="0"/>
  <path d="M12.7148 25.4395C19.6777 25.4395 25.4395 19.6777 25.4395 12.7246C25.4395 5.76172 19.668 0 12.7051 0C5.75195 0 0 5.76172 0 12.7246C0 19.6777 5.76172 25.4395 12.7148 25.4395Z" fill="#ffffff" fill-opacity="0.25"/>
  <path d="M4.51172 12.7246C4.51172 10.6641 6.17188 8.98438 8.22266 8.98438C10.2832 8.98438 11.9531 10.6641 11.9531 12.7246C11.9531 13.6523 11.6016 14.5312 10.9668 15.1758L14.4531 15.1758C13.8281 14.5312 13.4766 13.6523 13.4766 12.7246C13.4766 10.6641 15.1367 8.98438 17.1973 8.98438C19.2578 8.98438 20.918 10.6641 20.918 12.7246C20.918 14.7754 19.2578 16.4453 17.1973 16.4453L8.22266 16.4453C6.17188 16.4453 4.51172 14.7754 4.51172 12.7246ZM5.78125 12.7148C5.78125 14.0723 6.875 15.1758 8.23242 15.1758C9.58984 15.1758 10.6738 14.082 10.6738 12.7148C10.6738 11.3672 9.58008 10.2637 8.23242 10.2637C6.88477 10.2637 5.78125 11.3672 5.78125 12.7148ZM14.7559 12.7148C14.7559 14.082 15.8398 15.1758 17.1875 15.1758C18.5449 15.1758 19.6484 14.0723 19.6484 12.7148C19.6484 11.3672 18.5352 10.2637 17.1875 10.2637C15.8496 10.2637 14.7559 11.3672 14.7559 12.7148Z" fill="#ffffff" fill-opacity="0.85"/>
 </g>
</svg>
