<?xml version="1.0" encoding="UTF-8"?>
<!--Generator: Apple Native CoreSVG 232.5-->
<!DOCTYPE svg
PUBLIC "-//W3C//DTD SVG 1.1//EN"
       "http://www.w3.org/Graphics/SVG/1.1/DTD/svg11.dtd">
<svg version="1.1" xmlns="http://www.w3.org/2000/svg" xmlns:xlink="http://www.w3.org/1999/xlink" width="23.3203" height="22.9785">
 <g>
  <rect height="22.9785" opacity="0" width="23.3203" x="0" y="0"/>
  <path d="M3.79883 22.9785L19.1504 22.9785C21.6797 22.9785 22.959 21.709 22.959 19.2188L22.959 3.78906C22.959 1.29883 21.6797 0.0292969 19.1504 0.0292969L3.79883 0.0292969C1.2793 0.0292969 0 1.28906 0 3.78906L0 19.2188C0 21.7188 1.2793 22.9785 3.79883 22.9785Z" fill="#ffffff" fill-opacity="0.25"/>
  <path d="M18.9746 9.63867L18.9746 15.7422C18.9746 16.8848 18.3984 17.4609 17.2559 17.4609L8.47656 17.4609C7.33398 17.4609 6.75781 16.8848 6.75781 15.7422L6.75781 9.63867C6.75781 8.52539 7.33398 7.93945 8.47656 7.93945L17.2559 7.93945C18.3984 7.93945 18.9746 8.52539 18.9746 9.63867ZM16.1719 7.00195L16.1719 7.1875L8.47656 7.1875C6.9043 7.1875 6.00586 8.10547 6.00586 9.63867L6.00586 14.8145L5.67383 14.8145C4.52148 14.8145 3.95508 14.2578 3.95508 13.1152L3.95508 7.00195C3.95508 5.88867 4.52148 5.30273 5.67383 5.30273L14.4531 5.30273C15.5957 5.30273 16.1719 5.88867 16.1719 7.00195Z" fill="#ffffff" fill-opacity="0.85"/>
 </g>
</svg>
