<?xml version="1.0" encoding="UTF-8"?>
<!--Generator: Apple Native CoreSVG 232.5-->
<!DOCTYPE svg
PUBLIC "-//W3C//DTD SVG 1.1//EN"
       "http://www.w3.org/Graphics/SVG/1.1/DTD/svg11.dtd">
<svg version="1.1" xmlns="http://www.w3.org/2000/svg" xmlns:xlink="http://www.w3.org/1999/xlink" width="23.3203" height="23.2715">
 <g>
  <rect height="23.2715" opacity="0" width="23.3203" x="0" y="0"/>
  <path d="M22.959 4.08203L22.959 19.5117C22.959 21.9922 21.6797 23.2715 19.1504 23.2715L3.79883 23.2715C1.2793 23.2715 0 22.0117 0 19.5117L0 4.08203C0 1.58203 1.2793 0.3125 3.79883 0.3125L19.1504 0.3125C21.6797 0.3125 22.959 1.5918 22.959 4.08203ZM3.83789 2.05078C2.4707 2.05078 1.72852 2.77344 1.72852 4.16992L1.72852 19.4141C1.72852 20.8203 2.4707 21.543 3.83789 21.543L19.1211 21.543C20.459 21.543 21.2305 20.8203 21.2305 19.4141L21.2305 4.16992C21.2305 2.77344 20.459 2.05078 19.1211 2.05078Z" fill="#ffffff" fill-opacity="0.85"/>
  <path d="M16.0645 7.41211L16.0645 7.59766L8.55469 7.59766C7.03125 7.59766 6.15234 8.48633 6.15234 9.98047L6.15234 15.0391L5.82031 15.0391C4.70703 15.0391 4.14062 14.4824 4.14062 13.3691L4.14062 7.41211C4.14062 6.32812 4.70703 5.75195 5.82031 5.75195L14.3945 5.75195C15.5078 5.75195 16.0645 6.32812 16.0645 7.41211Z" fill="#ffffff" fill-opacity="0.85"/>
  <path d="M8.55469 17.6074L17.1289 17.6074C18.2422 17.6074 18.8086 17.0605 18.8086 15.9473L18.8086 9.98047C18.8086 8.89648 18.2422 8.32031 17.1289 8.32031L8.55469 8.32031C7.44141 8.32031 6.88477 8.89648 6.88477 9.98047L6.88477 15.9473C6.88477 17.0605 7.44141 17.6074 8.55469 17.6074Z" fill="#ffffff" fill-opacity="0.85"/>
 </g>
</svg>
