<svg version="1.1" xmlns="http://www.w3.org/2000/svg" xmlns:xlink="http://www.w3.org/1999/xlink" width="23.3203" height="22.9785" viewBox="0 0 23.3203 22.9785">
 <g>
  <rect height="22.9785" opacity="0" width="23.3203" x="0" y="0"/>
  <path d="M22.959 3.78906L22.959 19.2188C22.959 21.709 21.6797 22.9785 19.1504 22.9785L3.79883 22.9785C1.2793 22.9785 0 21.7188 0 19.2188L0 3.78906C0 1.28906 1.2793 0.0292969 3.79883 0.0292969L19.1504 0.0292969C21.6797 0.0292969 22.959 1.29883 22.959 3.78906ZM8.47656 7.93945C7.33398 7.93945 6.75781 8.52539 6.75781 9.63867L6.75781 15.7422C6.75781 16.8848 7.33398 17.4609 8.47656 17.4609L17.2559 17.4609C18.3984 17.4609 18.9746 16.8848 18.9746 15.7422L18.9746 9.63867C18.9746 8.52539 18.3984 7.93945 17.2559 7.93945ZM5.67383 5.30273C4.52148 5.30273 3.95508 5.88867 3.95508 7.00195L3.95508 13.1152C3.95508 14.2578 4.52148 14.8145 5.67383 14.8145L6.00586 14.8145L6.00586 9.63867C6.00586 8.10547 6.9043 7.1875 8.47656 7.1875L16.1719 7.1875L16.1719 7.00195C16.1719 5.88867 15.5957 5.30273 14.4531 5.30273Z" fill="var(--color-primary)"/>
 </g>
</svg>
