<svg version="1.1" xmlns="http://www.w3.org/2000/svg" xmlns:xlink="http://www.w3.org/1999/xlink" width="20.127" height="28.3496" viewBox="0 0 20.127 28.3496">
 <g>
  <rect height="28.3496" opacity="0" width="20.127" x="0" y="0"/>
  <path d="M0 9.91211C0 12.7734 1.24023 15.3809 3.21289 17.1875L3.22266 26.9629C3.22266 27.627 3.56445 27.9199 4.0332 27.9199C4.44336 27.9199 4.74609 27.6758 5.05859 27.373L9.25781 23.1934C9.53125 22.9297 9.7168 22.832 9.89258 22.832C10.0684 22.832 10.2539 22.9297 10.5273 23.1934L14.7168 27.373C15.0488 27.6953 15.3613 27.9199 15.7422 27.9199C16.2305 27.9199 16.5723 27.627 16.5723 26.9629L16.5723 17.1484C18.5254 15.3516 19.7559 12.7637 19.7656 9.91211C19.7754 4.45312 15.3027 0 9.88281 0C4.45312 0 0 4.45312 0 9.91211ZM1.74805 9.91211C1.74805 5.36133 5.33203 1.70898 9.89258 1.70898C14.4434 1.70898 18.0176 5.36133 18.0273 9.91211C18.0371 14.4629 14.4434 18.125 9.89258 18.1152C5.33203 18.1055 1.74805 14.4629 1.74805 9.91211Z" fill="var(--color-primary)"/>
 </g>
</svg>
