<?xml version="1.0" encoding="UTF-8"?>
<!--Generator: Apple Native CoreSVG 232.5-->
<!DOCTYPE svg
PUBLIC "-//W3C//DTD SVG 1.1//EN"
       "http://www.w3.org/Graphics/SVG/1.1/DTD/svg11.dtd">
<svg version="1.1" xmlns="http://www.w3.org/2000/svg" xmlns:xlink="http://www.w3.org/1999/xlink" width="25.8008" height="25.459">
 <g>
  <rect height="25.459" opacity="0" width="25.8008" x="0" y="0"/>
  <path d="M12.7148 25.459C19.6777 25.459 25.4395 19.6973 25.4395 12.7344C25.4395 5.78125 19.668 0.0195312 12.7051 0.0195312C5.75195 0.0195312 0 5.78125 0 12.7344C0 19.6973 5.76172 25.459 12.7148 25.459Z" fill="#ffffff" fill-opacity="0.25"/>
  <path d="M9.99023 14.3555C7.05078 14.1113 5.23438 13.4863 5.23438 12.7246C5.23438 9.12109 7.86133 6.06445 11.2793 5.38086C10.4688 6.78711 9.94141 9.44336 9.94141 12.7344C9.94141 13.291 9.96094 13.8281 9.99023 14.3555ZM11.0449 14.4043C11.0156 13.877 11.0059 13.3203 11.0059 12.7344C11.0059 8.28125 11.748 5.26367 12.7148 5.25391C16.8066 5.25391 20.2051 8.63281 20.2051 12.7344C20.1953 13.6914 17.168 14.4434 12.7148 14.4434C12.1387 14.4434 11.5723 14.4238 11.0449 14.4043ZM10.0586 15.3809C10.2637 17.4414 10.7031 19.0918 11.2793 20.0879C8.32031 19.502 5.95703 17.1387 5.36133 14.1699C6.35742 14.7461 7.99805 15.1855 10.0586 15.3809ZM11.1035 15.4492C11.6113 15.4785 12.1484 15.5078 12.7148 15.5078C16.0059 15.5078 18.6621 14.9805 20.0684 14.1699C19.3848 17.5879 16.3379 20.2148 12.7148 20.2246C11.9531 20.2246 11.3281 18.3887 11.1035 15.4492Z" fill="#ffffff" fill-opacity="0.85"/>
 </g>
</svg>
