<?xml version="1.0" encoding="UTF-8"?>
<!--Generator: Apple Native CoreSVG 232.5-->
<!DOCTYPE svg
PUBLIC "-//W3C//DTD SVG 1.1//EN"
       "http://www.w3.org/Graphics/SVG/1.1/DTD/svg11.dtd">
<svg version="1.1" xmlns="http://www.w3.org/2000/svg" xmlns:xlink="http://www.w3.org/1999/xlink" width="23.3203" height="22.9785">
 <g>
  <rect height="22.9785" opacity="0" width="23.3203" x="0" y="0"/>
  <path d="M3.79883 22.9785L19.1504 22.9785C21.6797 22.9785 22.959 21.709 22.959 19.2188L22.959 3.78906C22.959 1.29883 21.6797 0.0292969 19.1504 0.0292969L3.79883 0.0292969C1.2793 0.0292969 0 1.28906 0 3.78906L0 19.2188C0 21.7188 1.2793 22.9785 3.79883 22.9785Z" fill="#ffffff" fill-opacity="0.25"/>
  <path d="M9.29688 17.7832C8.85742 17.7832 8.54492 17.4902 8.54492 17.0508L8.54492 15.5664L7.39258 15.5664C7.05078 15.5664 6.82617 15.3223 6.82617 14.9902C6.82617 14.6582 7.05078 14.4141 7.39258 14.4141L8.54492 14.4141L8.54492 13.1152L7.38281 13.1152C7.04102 13.1152 6.80664 12.8711 6.80664 12.5391C6.80664 12.207 7.04102 11.9629 7.38281 11.9629L8.54492 11.9629L8.54492 6.41602C8.54492 5.95703 8.82812 5.66406 9.28711 5.66406L12.2852 5.66406C14.6484 5.66406 16.123 7.20703 16.123 9.38477C16.123 11.582 14.6387 13.1152 12.2754 13.1152L10.0195 13.1152L10.0195 14.4141L13.0371 14.4141C13.3789 14.4141 13.6035 14.6582 13.6035 14.9902C13.6035 15.3223 13.3789 15.5664 13.0371 15.5664L10.0195 15.5664L10.0195 17.041C10.0195 17.4805 9.72656 17.7832 9.29688 17.7832ZM10.0293 11.7773L12.041 11.7969C13.7305 11.7969 14.6387 10.8691 14.6387 9.39453C14.6387 7.92969 13.7402 7.02148 12.041 7.02148L10.0293 7.02148Z" fill="#ffffff" fill-opacity="0.85"/>
 </g>
</svg>
