<svg version="1.1" xmlns="http://www.w3.org/2000/svg" xmlns:xlink="http://www.w3.org/1999/xlink" width="23.3203" height="22.9785" viewBox="0 0 23.3203 22.9785">
 <g>
  <rect height="22.9785" opacity="0" width="23.3203" x="0" y="0"/>
  <path d="M22.959 3.78906L22.959 19.2188C22.959 21.709 21.6797 22.9785 19.1504 22.9785L3.79883 22.9785C1.2793 22.9785 0 21.7188 0 19.2188L0 3.78906C0 1.28906 1.2793 0.0292969 3.79883 0.0292969L19.1504 0.0292969C21.6797 0.0292969 22.959 1.29883 22.959 3.78906ZM7.14844 8.74023C7.14844 10.3223 8.1543 11.2207 10.127 11.7578L11.9922 12.2754C13.6035 12.7246 14.1797 13.1543 14.1797 14.1113C14.1797 15.2832 12.9883 16.0254 11.4941 16.0254C10.0488 16.0254 9.00391 15.4102 8.61328 14.3164C8.41797 13.8965 8.17383 13.6914 7.76367 13.6914C7.26562 13.6914 6.95312 13.9941 6.95312 14.502C6.95312 14.6777 6.98242 14.873 7.08008 15.0977C7.50977 16.377 9.0918 17.5 11.3672 17.5C14.1895 17.5 16.0352 16.123 16.0352 13.9551C16.0352 12.3145 14.8633 11.4062 12.5977 10.8008L10.8691 10.332C9.55078 9.9707 9.00391 9.48242 9.00391 8.65234C9.00391 7.51953 10 6.72852 11.4453 6.72852C12.8125 6.72852 13.7207 7.31445 14.1211 8.4375C14.2773 8.82812 14.5117 9.0332 14.9512 9.0332C15.4199 9.0332 15.752 8.7793 15.752 8.25195C15.752 8.0957 15.7129 7.90039 15.6348 7.68555C15.1855 6.28906 13.6523 5.29297 11.5137 5.29297C8.94531 5.29297 7.14844 6.71875 7.14844 8.74023Z" fill="currentColor"/>
 </g>
</svg>
