<svg version="1.1" xmlns="http://www.w3.org/2000/svg" xmlns:xlink="http://www.w3.org/1999/xlink" width="25.8008" height="25.459" viewBox="0 0 25.8008 25.459">
 <g>
  <rect height="25.459" opacity="0" width="25.8008" x="0" y="0"/>
  <path d="M25.4395 12.7344C25.4395 19.6973 19.6777 25.459 12.7148 25.459C5.76172 25.459 0 19.6973 0 12.7344C0 5.78125 5.75195 0.0195312 12.7051 0.0195312C19.668 0.0195312 25.4395 5.78125 25.4395 12.7344ZM11.9336 4.36523L11.9336 4.99023C11.9336 7.16797 10.0684 11.084 7.10938 13.2031C6.54297 13.623 6.83594 14.3164 7.43164 14.3164L11.9336 14.3164L11.9336 16.0156L6.52344 16.0156C5.9375 16.0156 5.63477 16.4453 5.82031 17.0703L6.41602 18.9844C6.58203 19.5312 7.01172 19.8535 7.69531 19.8535L16.8848 19.8535C17.3047 19.8535 17.627 19.7168 17.9102 19.4043L19.9414 17.168C20.3516 16.709 20.0781 16.0156 19.3848 16.0156L13.0078 16.0156L13.0078 14.3164L15.0586 14.3164C16.9727 14.3164 18.1152 13.3008 18.1152 11.6602C18.1152 9.27734 15.7422 6.51367 13.0078 4.96094L13.0078 4.36523C13.0078 4.07227 12.7637 3.83789 12.4609 3.83789C12.168 3.83789 11.9336 4.07227 11.9336 4.36523ZM14.5508 10.0293C14.5508 11.2988 14.0234 12.5879 12.998 13.291L12.998 6.04492C13.8672 6.79688 14.5508 8.42773 14.5508 10.0293Z" fill="var(--color-primary)"/>
 </g>
</svg>
