<svg version="1.1" xmlns="http://www.w3.org/2000/svg" xmlns:xlink="http://www.w3.org/1999/xlink" width="25.8008" height="25.459" viewBox="0 0 25.8008 25.459">
 <g>
  <rect height="25.459" opacity="0" width="25.8008" x="0" y="0"/>
  <path d="M25.4395 12.7246C25.4395 19.6777 19.6777 25.4395 12.7148 25.4395C5.76172 25.4395 0 19.6777 0 12.7246C0 5.76172 5.75195 0 12.7051 0C19.668 0 25.4395 5.76172 25.4395 12.7246ZM1.82617 12.7246C1.82617 18.7598 6.67969 23.623 12.7148 23.623C18.7598 23.623 23.6133 18.7598 23.6133 12.7246C23.6133 6.67969 18.75 1.82617 12.7051 1.82617C6.66992 1.82617 1.82617 6.67969 1.82617 12.7246Z" fill="var(--color-secondary)"/>
  <path d="M20.7031 15.6445C20.4395 16.4551 19.5215 16.6113 18.1055 16.0938L13.5575 14.4368L15.9942 13.1409ZM10.1953 9.29688C10.1953 9.84375 10.1758 10.0488 10.5273 10.2344L11.8906 10.9592C11.5614 11.2149 11.331 11.5398 11.1711 11.9527C11.1385 11.934 11.1027 11.9146 11.0645 11.8945L9.93164 11.2793C9.80469 11.2109 9.72656 11.2012 9.61914 11.2012C9.14062 11.2012 8.89648 11.6992 7.7832 11.6992C6.43555 11.6992 5.37109 10.6348 5.37109 9.29688C5.37109 7.94922 6.43555 6.875 7.7832 6.875C9.11133 6.875 10.1953 7.93945 10.1953 9.29688ZM6.2793 9.29688C6.2793 10.1367 6.95312 10.8008 7.7832 10.8008C8.61328 10.8008 9.28711 10.1367 9.28711 9.29688C9.28711 8.45703 8.61328 7.7832 7.7832 7.7832C6.95312 7.7832 6.2793 8.45703 6.2793 9.29688Z" fill="var(--color-primary)"/>
  <path d="M7.7832 18.5742C9.11133 18.5742 10.1953 17.5 10.1953 16.1426C10.1953 15.5957 10.1758 15.4004 10.5273 15.2051L20.7031 9.79492C20.4395 8.99414 19.5215 8.82812 18.1055 9.3457L12.959 11.2207C12.2656 11.4746 11.9531 11.8164 11.7773 12.4609L11.6602 12.9004C11.5918 13.1934 11.4746 13.3301 11.0645 13.5547L9.93164 14.1602C9.80469 14.2188 9.72656 14.248 9.61914 14.248C9.14062 14.248 8.89648 13.7402 7.7832 13.7402C6.43555 13.7402 5.37109 14.8047 5.37109 16.1426C5.37109 17.4902 6.43555 18.5742 7.7832 18.5742ZM7.7832 17.666C6.95312 17.666 6.2793 16.9922 6.2793 16.1426C6.2793 15.3125 6.95312 14.6387 7.7832 14.6387C8.61328 14.6387 9.28711 15.3125 9.28711 16.1426C9.28711 16.9922 8.61328 17.666 7.7832 17.666ZM13.0762 12.8711C12.8516 12.8711 12.6367 12.666 12.6367 12.4316C12.6367 12.1777 12.8418 11.9824 13.0762 11.9824C13.3301 11.9824 13.5352 12.1777 13.5352 12.4316C13.5352 12.6758 13.3301 12.8711 13.0762 12.8711Z" fill="var(--color-primary)"/>
 </g>
</svg>
