<?xml version="1.0" encoding="UTF-8"?>
<!--Generator: Apple Native CoreSVG 232.5-->
<!DOCTYPE svg
PUBLIC "-//W3C//DTD SVG 1.1//EN"
       "http://www.w3.org/Graphics/SVG/1.1/DTD/svg11.dtd">
<svg version="1.1" xmlns="http://www.w3.org/2000/svg" xmlns:xlink="http://www.w3.org/1999/xlink" width="25.8008" height="25.459">
 <g>
  <rect height="25.459" opacity="0" width="25.8008" x="0" y="0"/>
  <path d="M25.4395 12.7246C25.4395 19.6777 19.6777 25.4395 12.7148 25.4395C5.76172 25.4395 0 19.6777 0 12.7246C0 5.76172 5.75195 0 12.7051 0C19.668 0 25.4395 5.76172 25.4395 12.7246ZM8.85742 6.97266C8.33008 6.97266 7.98828 7.32422 7.98828 7.86133L7.98828 18.3301C7.98828 18.75 8.28125 19.0332 8.68164 19.0332C9.08203 19.0332 9.3457 18.7402 9.3457 18.3203L9.3457 8.4375L11.1523 8.4375C12.5293 8.4375 13.1055 8.86719 13.1055 10.3516L13.1055 14.9707C13.1055 15.4004 13.3984 15.6738 13.7988 15.6738C14.1992 15.6738 14.4629 15.4004 14.4629 14.9707L14.4629 10.1562C14.4629 7.92969 13.5059 6.97266 11.4551 6.97266ZM15.6836 7.57812L15.6836 15.459C15.6836 17.1094 15.1465 17.4512 13.7109 17.4512L11.9238 17.4512L11.9238 10.8887C11.9238 10.459 11.6504 10.1855 11.2598 10.1855C10.8594 10.1855 10.5762 10.459 10.5762 10.8887L10.5762 18.0371C10.5762 18.5742 10.8984 18.9062 11.416 18.9062L13.9551 18.9062C16.0938 18.9062 17.041 17.9297 17.041 15.459L17.041 7.57812C17.041 7.1582 16.7676 6.86523 16.3672 6.86523C15.957 6.86523 15.6836 7.14844 15.6836 7.57812Z" fill="#ffffff" fill-opacity="0.85"/>
 </g>
</svg>
