<?xml version="1.0" encoding="UTF-8"?>
<!--Generator: Apple Native CoreSVG 232.5-->
<!DOCTYPE svg
PUBLIC "-//W3C//DTD SVG 1.1//EN"
       "http://www.w3.org/Graphics/SVG/1.1/DTD/svg11.dtd">
<svg version="1.1" xmlns="http://www.w3.org/2000/svg" xmlns:xlink="http://www.w3.org/1999/xlink" width="43.9551" height="22.002">
 <g>
  <rect height="22.002" opacity="0" width="43.9551" x="0" y="0"/>
  <path d="M17.9199 1.32812L24.6289 5.24414C25.8301 5.9375 26.1133 5.99609 27.2754 5.99609C28.4473 5.99609 31.5039 5.50781 32.8516 5.50781C35.7066 5.50781 37.6089 7.35518 37.6164 10.1383C37.0763 10.1868 36.4689 10.2554 35.8731 10.323C35.8776 10.2686 35.8789 10.2127 35.8789 10.1562C35.8789 10.1145 35.8784 10.0732 35.8748 10.0348C35.8368 10.1394 35.789 10.2407 35.7289 10.3393C34.9232 10.4306 34.1498 10.5167 33.6035 10.5449C35.3248 9.59427 35.4877 8.68669 34.9121 8.27148L35.3719 8.26755C34.887 7.58183 34.044 7.23633 32.8418 7.23633C31.6309 7.23633 28.5645 7.72461 27.2754 7.72461C27.1907 7.72461 27.1088 7.72412 27.0293 7.72299L23.8867 5.88867C22.8342 5.27394 21.8236 4.97365 20.8676 5.04798L17.041 2.83203C15.2539 1.79688 14.3359 1.875 13.0566 3.51562C11.3184 5.76172 9.21875 6.875 7.13867 6.875C5.40039 6.875 4.11133 6.45508 2.91992 5.9082C2.34375 5.61523 1.72852 5.84961 1.72852 6.5625L1.72852 12.373C1.72852 12.5002 1.73106 12.6229 1.7383 12.7374C2.11231 13.0455 2.7224 13.1641 3.7793 13.1641L5.9668 13.1641L5.9668 14.4043L3.7793 14.4043C3.01087 14.4043 2.47819 14.3186 1.9615 14.0971C2.37065 15.3278 3.32023 15.7031 4.69727 15.7031L5.9668 15.7031L5.9668 16.9336C5.9668 17.1055 5.97125 17.2721 5.98152 17.4316L4.70703 17.4316C2.26562 17.4316 0 16.25 0 12.373L0 6.57227C0 4.41406 2.01172 3.58398 3.79883 4.4043C4.81445 4.88281 5.76172 5.13672 7.13867 5.13672C8.71094 5.13672 10.2246 4.32617 11.6895 2.46094C13.4766 0.146484 15.5957-0.0292969 17.9199 1.32812Z" fill="#ffffff" fill-opacity="0.85"/>
  <path d="M23.8867 5.88867C21.5625 4.53125 19.4434 4.70703 17.6562 7.02148C16.1914 8.89648 14.6777 9.69727 13.1055 9.69727C11.7285 9.69727 10.7812 9.44336 9.76562 8.96484C7.98828 8.14453 5.9668 8.98438 5.9668 11.1426L5.9668 16.9336C5.9668 20.8105 8.23242 22.002 10.6836 22.002L30.8301 22.002C34.6582 22.002 36.9141 21.3965 40.0391 19.668C42.4902 18.3008 43.5938 16.6504 43.5938 14.7168C43.5938 11.9238 41.6895 10.0684 38.8184 10.0684C37.4707 10.0684 34.4141 10.5566 33.252 10.5566C32.0801 10.5566 31.8066 10.498 30.5957 9.80469ZM23.0176 7.39258L29.7461 11.2988C31.2305 12.1582 31.875 12.2852 33.252 12.2852C34.5312 12.2852 37.5977 11.7969 38.8086 11.7969C40.8496 11.7969 41.8457 12.7832 41.8457 14.7168C41.8457 16.0938 41.1035 17.1094 39.209 18.1641C36.3379 19.7559 34.4238 20.2637 30.8301 20.2637L10.6738 20.2637C8.7793 20.2637 7.70508 19.5605 7.70508 16.9336L7.70508 11.1328C7.70508 10.4102 8.32031 10.1758 8.88672 10.4688C10.0781 11.0254 11.377 11.4355 13.1055 11.4355C15.1953 11.4355 17.2949 10.3223 19.0234 8.07617C20.3027 6.43555 21.2305 6.35742 23.0176 7.39258ZM7.66602 18.5352C8.28125 18.8477 8.85742 18.9746 9.75586 18.9746L30.8301 18.9746C33.8379 18.9746 35.4199 18.5938 37.3047 17.6172L39.9805 16.3086C41.9922 15.2734 42.0703 14.3945 42.0215 12.832L40.8789 12.832C41.4746 13.2617 41.2793 14.2188 39.3945 15.2051L36.7188 16.5527C35.0781 17.4121 33.7402 17.7246 30.8301 17.7246L9.75586 17.7246C8.66211 17.7246 8.04688 17.5977 7.66602 17.2656ZM24.1309 7.10938L21.9238 10.166C21.7188 10.4395 21.748 10.8301 22.0117 11.0352C22.2754 11.25 22.6855 11.2207 22.8906 10.9473L25.1074 7.87109ZM26.9336 8.58398L24.7852 11.5527C24.5703 11.8555 24.6094 12.207 24.873 12.4121C25.1758 12.6465 25.5371 12.6172 25.7617 12.3145L27.9102 9.3457ZM29.7168 10.0586L27.627 12.9492C27.4121 13.2422 27.4414 13.5938 27.7051 13.8086C27.9883 14.043 28.3594 14.0039 28.584 13.7109L30.6934 10.8008Z" fill="#ffffff" fill-opacity="0.85"/>
 </g>
</svg>
