<?xml version="1.0" encoding="UTF-8"?>
<!--Generator: Apple Native CoreSVG 232.5-->
<!DOCTYPE svg
PUBLIC "-//W3C//DTD SVG 1.1//EN"
       "http://www.w3.org/Graphics/SVG/1.1/DTD/svg11.dtd">
<svg version="1.1" xmlns="http://www.w3.org/2000/svg" xmlns:xlink="http://www.w3.org/1999/xlink" width="25.8008" height="25.459">
 <g>
  <rect height="25.459" opacity="0" width="25.8008" x="0" y="0"/>
  <path d="M12.7148 25.4395C19.6777 25.4395 25.4395 19.6777 25.4395 12.7246C25.4395 5.76172 19.668 0 12.7051 0C5.75195 0 0 5.76172 0 12.7246C0 19.6777 5.76172 25.4395 12.7148 25.4395Z" fill="#ffffff" fill-opacity="0.25"/>
  <path d="M4.81445 16.2109C4.81445 15.8301 5.12695 15.5371 5.53711 15.5371L7.10938 15.5371C7.79297 15.5371 8.22266 15.3125 8.79883 14.6191L10.4102 12.7246L8.79883 10.8301C8.23242 10.1465 7.79297 9.91211 7.10938 9.91211L5.53711 9.91211C5.12695 9.91211 4.81445 9.61914 4.81445 9.23828C4.81445 8.83789 5.11719 8.56445 5.53711 8.56445L7.08984 8.56445C8.23242 8.56445 8.92578 8.89648 9.76562 9.87305L11.3086 11.6797L12.8516 9.87305C13.6914 8.89648 14.3848 8.56445 15.5371 8.56445L16.7285 8.56445L16.7285 7.05078C16.7285 6.69922 16.9336 6.48438 17.2754 6.48438C17.4414 6.48438 17.5977 6.5332 17.7246 6.63086L20.3027 8.73047C20.5957 8.97461 20.5859 9.39453 20.293 9.63867L17.7344 11.6992C17.627 11.8164 17.4512 11.875 17.2754 11.875C16.9434 11.875 16.7285 11.6504 16.7285 11.2988L16.7285 9.91211L15.5762 9.91211C14.8145 9.91211 14.3945 10.1465 13.8281 10.8301L12.207 12.7246L13.8281 14.6191C14.3945 15.3027 14.8145 15.5371 15.5762 15.5371L16.7285 15.5371L16.7285 14.1797C16.7285 13.8281 16.9434 13.6035 17.2754 13.6035C17.4512 13.6035 17.627 13.6621 17.7344 13.7793L20.3027 15.8594C20.5957 16.1035 20.5957 16.5137 20.293 16.7578L17.7246 18.8477C17.5977 18.9453 17.4414 18.9941 17.2754 18.9941C16.9336 18.9941 16.7285 18.7793 16.7285 18.4277L16.7285 16.8848L15.5371 16.8848C14.3848 16.8848 13.6914 16.5527 12.8516 15.5762L11.3086 13.7695L9.76562 15.5762C8.92578 16.5527 8.23242 16.8848 7.08984 16.8848L5.53711 16.8848C5.11719 16.8848 4.81445 16.6016 4.81445 16.2109Z" fill="#ffffff" fill-opacity="0.85"/>
 </g>
</svg>
