<?xml version="1.0" encoding="UTF-8"?>
<!--Generator: Apple Native CoreSVG 232.5-->
<!DOCTYPE svg
PUBLIC "-//W3C//DTD SVG 1.1//EN"
       "http://www.w3.org/Graphics/SVG/1.1/DTD/svg11.dtd">
<svg version="1.1" xmlns="http://www.w3.org/2000/svg" xmlns:xlink="http://www.w3.org/1999/xlink" width="25.8008" height="25.459">
 <g>
  <rect height="25.459" opacity="0" width="25.8008" x="0" y="0"/>
  <path d="M12.7148 25.459C19.6777 25.459 25.4395 19.6973 25.4395 12.7344C25.4395 5.78125 19.668 0.0195312 12.7051 0.0195312C5.75195 0.0195312 0 5.78125 0 12.7344C0 19.6973 5.76172 25.459 12.7148 25.459Z" fill="#ffffff" fill-opacity="0.25"/>
  <path d="M17.4902 13.9941L13.3691 13.9844L13.3691 18.5742L15.2441 18.5742C15.5957 18.5742 15.8887 18.8574 15.8887 19.2188C15.8887 19.5605 15.5957 19.8535 15.2441 19.8535L10.2051 19.8535C9.86328 19.8535 9.57031 19.5605 9.57031 19.2188C9.57031 18.8574 9.86328 18.5742 10.2051 18.5742L12.0996 18.5742L12.0996 13.9844L8.83789 13.9844C8.28125 13.9844 7.99805 13.8086 7.69531 13.5156L5.9375 11.8652C5.26367 11.2305 5.24414 10.5566 5.94727 9.91211L7.69531 8.26172C7.99805 7.94922 8.28125 7.79297 8.83789 7.79297L12.0996 7.79297L12.0996 6.25977C12.0996 5.89844 12.3828 5.61523 12.7246 5.61523C13.0859 5.61523 13.3691 5.89844 13.3691 6.25977L13.3691 7.79297L17.4902 7.79297C18.3398 7.79297 18.8184 8.25195 18.8184 9.08203L18.8184 12.6855C18.8184 13.5156 18.3398 13.9941 17.4902 13.9941Z" fill="#ffffff" fill-opacity="0.85"/>
 </g>
</svg>
