<svg version="1.1" xmlns="http://www.w3.org/2000/svg" xmlns:xlink="http://www.w3.org/1999/xlink" width="25.8008" height="25.459" viewBox="0 0 25.8008 25.459">
 <g>
  <rect height="25.459" opacity="0" width="25.8008" x="0" y="0"/>
  <path d="M12.7148 25.4395C19.6777 25.4395 25.4395 19.6777 25.4395 12.7246C25.4395 5.76172 19.668 0 12.7051 0C5.75195 0 0 5.76172 0 12.7246C0 19.6777 5.76172 25.4395 12.7148 25.4395ZM12.7148 23.623C6.67969 23.623 1.82617 18.7598 1.82617 12.7246C1.82617 6.67969 6.66992 1.82617 12.7051 1.82617C18.75 1.82617 23.6133 6.67969 23.6133 12.7246C23.6133 18.7598 18.7598 23.623 12.7148 23.623Z" fill="var(--color-secondary)"/>
  <path d="M8.04688 13.9355L12.0801 13.9258L12.0801 18.4375L10.2441 18.4375C9.90234 18.4375 9.61914 18.7109 9.61914 19.0527C9.61914 19.3945 9.90234 19.668 10.2441 19.668L15.166 19.668C15.498 19.668 15.7812 19.3945 15.7812 19.0527C15.7812 18.7109 15.498 18.4375 15.166 18.4375L13.3105 18.4375L13.3105 13.9258L16.4941 13.9258C17.041 13.9258 17.3145 13.7598 17.6172 13.4668L19.3359 11.8555C19.9902 11.2402 20.0098 10.5859 19.3262 9.95117L17.6172 8.33984C17.3145 8.04688 17.041 7.89062 16.4941 7.89062L13.3105 7.89062L13.3105 6.38672C13.3105 6.04492 13.0371 5.76172 12.7051 5.76172C12.3535 5.76172 12.0801 6.04492 12.0801 6.38672L12.0801 7.89062L8.04688 7.89062C7.2168 7.89062 6.74805 8.33984 6.74805 9.14062L6.74805 12.6562C6.74805 13.4668 7.2168 13.9355 8.04688 13.9355Z" fill="var(--color-primary)"/>
 </g>
</svg>
