<?xml version="1.0" encoding="UTF-8"?>
<!--Generator: Apple Native CoreSVG 232.5-->
<!DOCTYPE svg
PUBLIC "-//W3C//DTD SVG 1.1//EN"
       "http://www.w3.org/Graphics/SVG/1.1/DTD/svg11.dtd">
<svg version="1.1" xmlns="http://www.w3.org/2000/svg" xmlns:xlink="http://www.w3.org/1999/xlink" width="25.8008" height="25.459">
 <g>
  <rect height="25.459" opacity="0" width="25.8008" x="0" y="0"/>
  <path d="M12.7148 25.459C19.6777 25.459 25.4395 19.6973 25.4395 12.7344C25.4395 5.78125 19.668 0.0195312 12.7051 0.0195312C5.75195 0.0195312 0 5.78125 0 12.7344C0 19.6973 5.76172 25.459 12.7148 25.459Z" fill="#ffffff" fill-opacity="0.25"/>
  <path d="M4.81445 12.7344C4.81445 8.4082 8.39844 4.83398 12.7148 4.83398C17.041 4.83398 20.6348 8.4082 20.6348 12.7344C20.6348 17.0703 17.0508 20.6445 12.7246 20.6445C8.39844 20.6445 4.81445 17.0703 4.81445 12.7344ZM6.44531 12.7344C6.44531 13.5449 6.5918 14.3066 6.875 15.0098L18.584 15.0098C18.8672 14.3066 19.0234 13.5449 19.0234 12.7344C19.0137 9.23828 16.2012 6.44531 12.7148 6.44531C9.22852 6.44531 6.44531 9.23828 6.44531 12.7344ZM7.69531 16.4941C8.83789 18.0371 10.6543 19.0332 12.7246 19.0332C14.7949 19.0332 16.6309 18.0371 17.7637 16.4941Z" fill="#ffffff" fill-opacity="0.85"/>
 </g>
</svg>
