<svg version="1.1" xmlns="http://www.w3.org/2000/svg" xmlns:xlink="http://www.w3.org/1999/xlink" width="25.8008" height="25.459" viewBox="0 0 25.8008 25.459">
 <g>
  <rect height="25.459" opacity="0" width="25.8008" x="0" y="0"/>
  <path d="M25.4395 12.7246C25.4395 19.6777 19.6777 25.4395 12.7148 25.4395C5.76172 25.4395 0 19.6777 0 12.7246C0 5.76172 5.75195 0 12.7051 0C19.668 0 25.4395 5.76172 25.4395 12.7246ZM7.94922 12.7051C7.94922 15.3418 10.0977 17.4805 12.7148 17.4805C15.3125 17.4805 17.4707 15.3418 17.4707 12.7051C17.4707 10.1074 15.3125 7.97852 12.7148 7.97852C10.0977 7.97852 7.94922 10.1074 7.94922 12.7051ZM15.7031 12.7051C15.7031 14.375 14.3555 15.7227 12.7246 15.7227C11.0742 15.7227 9.72656 14.375 9.72656 12.7051C9.72656 11.084 11.084 9.72656 12.7246 9.72656C14.3555 9.72656 15.7031 11.084 15.7031 12.7051Z" fill="var(--color-primary)"/>
 </g>
</svg>
