<svg version="1.1" xmlns="http://www.w3.org/2000/svg" xmlns:xlink="http://www.w3.org/1999/xlink" width="25.8008" height="25.459" viewBox="0 0 25.8008 25.459">
 <g>
  <rect height="25.459" opacity="0" width="25.8008" x="0" y="0"/>
  <path d="M25.4395 12.7246C25.4395 19.6777 19.6777 25.4395 12.7148 25.4395C5.76172 25.4395 0 19.6777 0 12.7246C0 5.76172 5.75195 0 12.7051 0C19.668 0 25.4395 5.76172 25.4395 12.7246ZM1.82617 12.7246C1.82617 18.7598 6.67969 23.623 12.7148 23.623C18.7598 23.623 23.6133 18.7598 23.6133 12.7246C23.6133 6.67969 18.75 1.82617 12.7051 1.82617C6.66992 1.82617 1.82617 6.67969 1.82617 12.7246Z" fill="var(--color-secondary)"/>
  <path d="M15.752 17.6758L15.752 18.0469C15.752 18.457 15.4688 18.7402 15.0684 18.7402C14.7656 18.7402 14.5215 18.6328 14.2383 18.3594L11.25 15.5176C11.2012 15.4688 11.1133 15.4395 11.0352 15.4395L9.00391 15.4395C8.13477 15.4395 7.64648 14.9414 7.64648 14.0332L7.64648 11.4355C7.64648 10.8292 7.86412 10.4057 8.26849 10.1923ZM15.752 7.42188L15.752 13.8477L11.5603 9.65604L14.2383 7.10938C14.5508 6.81641 14.7559 6.68945 15.0586 6.68945C15.4688 6.68945 15.752 7.02148 15.752 7.42188Z" fill="var(--color-primary)"/>
  <path d="M18.5742 19.3164C18.7793 19.5215 19.1113 19.5215 19.3066 19.3164C19.5215 19.1016 19.5215 18.7988 19.3066 18.584L6.8457 6.11328C6.64062 5.9082 6.30859 5.9082 6.10352 6.11328C5.89844 6.31836 5.9082 6.65039 6.10352 6.8457Z" fill="var(--color-primary)"/>
 </g>
</svg>
