<?xml version="1.0" encoding="UTF-8"?>
<!--Generator: Apple Native CoreSVG 232.5-->
<!DOCTYPE svg
PUBLIC "-//W3C//DTD SVG 1.1//EN"
       "http://www.w3.org/Graphics/SVG/1.1/DTD/svg11.dtd">
<svg version="1.1" xmlns="http://www.w3.org/2000/svg" xmlns:xlink="http://www.w3.org/1999/xlink" width="25.8008" height="25.459">
 <g>
  <rect height="25.459" opacity="0" width="25.8008" x="0" y="0"/>
  <path d="M12.7148 25.459C19.6777 25.459 25.4395 19.6973 25.4395 12.7344C25.4395 5.78125 19.668 0.0195312 12.7051 0.0195312C5.75195 0.0195312 0 5.78125 0 12.7344C0 19.6973 5.76172 25.459 12.7148 25.459Z" fill="#ffffff" fill-opacity="0.25"/>
  <path d="M17.6562 17.3633C17.3633 17.1777 17.3145 16.7969 17.5195 16.5039C18.2715 15.5371 18.6816 14.1504 18.6816 12.7246C18.6816 11.3184 18.2812 9.99023 17.5293 8.93555C17.334 8.64258 17.3828 8.28125 17.6562 8.07617C17.9395 7.88086 18.291 7.94922 18.4863 8.24219C19.3945 9.54102 19.873 11.1133 19.873 12.7246C19.873 14.4629 19.3555 16.0254 18.4766 17.2168C18.2812 17.4805 17.9492 17.5391 17.6562 17.3633Z" fill="#ffffff" fill-opacity="0.85"/>
  <path d="M15.3027 15.625C15.0098 15.4004 14.9512 15.0684 15.1562 14.7656C15.5371 14.2383 15.7617 13.4961 15.7617 12.7246C15.7617 11.9141 15.5371 11.1719 15.166 10.7031C14.9512 10.3906 15.0195 10.0391 15.3027 9.82422C15.5469 9.61914 15.9277 9.69727 16.1328 9.96094C16.6602 10.6836 16.9727 11.6992 16.9727 12.7246C16.9727 13.7695 16.6699 14.7949 16.1328 15.4883C15.918 15.752 15.5469 15.8301 15.3027 15.625Z" fill="#ffffff" fill-opacity="0.85"/>
  <path d="M12.3438 18.5547C12.0508 18.5547 11.8164 18.4277 11.5527 18.1836L8.65234 15.4297C8.60352 15.3809 8.53516 15.3613 8.45703 15.3613L6.48438 15.3613C5.67383 15.3613 5.17578 14.8633 5.17578 14.0039L5.17578 11.4844C5.17578 10.6152 5.67383 10.127 6.48438 10.127L8.45703 10.127C8.53516 10.127 8.60352 10.1074 8.65234 10.0684L11.5527 7.31445C11.8457 7.04102 12.041 6.9043 12.3242 6.9043C12.7344 6.9043 13.0078 7.22656 13.0078 7.61719L13.0078 17.8711C13.0078 18.252 12.7344 18.5547 12.3438 18.5547Z" fill="#ffffff" fill-opacity="0.85"/>
 </g>
</svg>
