<svg version="1.1" xmlns="http://www.w3.org/2000/svg" xmlns:xlink="http://www.w3.org/1999/xlink" width="25.8008" height="25.459" viewBox="0 0 25.8008 25.459">
 <g>
  <rect height="25.459" opacity="0" width="25.8008" x="0" y="0"/>
  <path d="M12.7148 25.4395C19.6777 25.4395 25.4395 19.6777 25.4395 12.7246C25.4395 5.76172 19.668 0 12.7051 0C5.75195 0 0 5.76172 0 12.7246C0 19.6777 5.76172 25.4395 12.7148 25.4395ZM12.7148 23.623C6.67969 23.623 1.82617 18.7598 1.82617 12.7246C1.82617 6.67969 6.66992 1.82617 12.7051 1.82617C18.75 1.82617 23.6133 6.67969 23.6133 12.7246C23.6133 18.7598 18.7598 23.623 12.7148 23.623Z" fill="var(--color-primary)"/>
  <path d="M4.96094 14.7656L6.64062 14.7656C6.9043 14.7656 7.07031 14.6094 7.07031 14.3262L7.07031 11.1523C7.07031 10.8789 6.9043 10.7129 6.64062 10.7129L4.96094 10.7129ZM6.71875 18.0469L12.2559 18.0469L12.2559 15.7031C10.8203 15.498 9.70703 14.248 9.70703 12.7441C9.70703 11.25 10.8203 10 12.2559 9.80469L12.2559 7.44141L6.71875 7.44141C5.55664 7.44141 4.96094 8.02734 4.96094 9.17969L4.96094 9.87305L6.67969 9.87305C7.43164 9.87305 7.91992 10.3516 7.91992 11.123L7.91992 14.3652C7.91992 15.127 7.43164 15.6055 6.67969 15.6055L4.96094 15.6055L4.96094 16.3086C4.96094 17.4609 5.55664 18.0469 6.71875 18.0469ZM12.2559 14.8535L12.2559 10.6543C11.2598 10.8301 10.5469 11.6699 10.5469 12.7441C10.5469 13.8281 11.2598 14.668 12.2559 14.8535ZM13.0957 14.8535C14.1113 14.668 14.8145 13.8379 14.8145 12.7441C14.8145 11.6699 14.1113 10.8301 13.0957 10.6543ZM13.0957 18.0469L18.6914 18.0469C19.8535 18.0469 20.4492 17.4512 20.4492 16.3086L20.4492 15.6055L18.7305 15.6055C17.9785 15.6055 17.5 15.127 17.5 14.3652L17.5 11.123C17.5 10.3516 17.9785 9.87305 18.7305 9.87305L20.4492 9.87305L20.4492 9.17969C20.4492 8.03711 19.8535 7.44141 18.6914 7.44141L13.0957 7.44141L13.0957 9.80469C14.5508 10 15.6543 11.25 15.6543 12.7441C15.6543 14.248 14.5508 15.498 13.0957 15.7031ZM20.4492 14.7656L20.4492 10.7129L18.7695 10.7129C18.5059 10.7129 18.3398 10.8789 18.3398 11.1523L18.3398 14.3262C18.3398 14.6094 18.5059 14.7656 18.7695 14.7656Z" fill="var(--color-primary)"/>
 </g>
</svg>
