<svg version="1.1" xmlns="http://www.w3.org/2000/svg" xmlns:xlink="http://www.w3.org/1999/xlink" width="25.4785" height="21.5137" viewBox="0 0 25.4785 21.5137">
 <g>
  <rect height="21.5137" opacity="0" width="25.4785" x="0" y="0"/>
  <path d="M11.6211 1.63086L24.2871 1.63086C24.7461 1.63086 25.1172 1.2793 25.1172 0.810547C25.1172 0.351562 24.7461 0 24.2871 0L11.6211 0C11.1621 0 10.8105 0.351562 10.8105 0.810547C10.8105 1.2793 11.1621 1.63086 11.6211 1.63086ZM11.6211 8.24219L24.2871 8.24219C24.7461 8.24219 25.1172 7.88086 25.1172 7.42188C25.1172 6.96289 24.7461 6.60156 24.2871 6.60156L11.6211 6.60156C11.1621 6.60156 10.8105 6.96289 10.8105 7.42188C10.8105 7.88086 11.1621 8.24219 11.6211 8.24219ZM11.6211 14.8438L24.2871 14.8438C24.7461 14.8438 25.1172 14.4922 25.1172 14.0332C25.1172 13.5645 24.7461 13.2129 24.2871 13.2129L11.6211 13.2129C11.1621 13.2129 10.8105 13.5645 10.8105 14.0332C10.8105 14.4922 11.1621 14.8438 11.6211 14.8438ZM11.6211 21.4551L24.2871 21.4551C24.7461 21.4551 25.1172 21.0938 25.1172 20.6348C25.1172 20.1758 24.7461 19.8242 24.2871 19.8242L11.6211 19.8242C11.1621 19.8242 10.8105 20.1758 10.8105 20.6348C10.8105 21.0938 11.1621 21.4551 11.6211 21.4551Z" fill="var(--color-primary)"/>
  <path d="M2.00195 8.24219L6.24023 8.24219C7.5 8.24219 8.24219 7.50977 8.24219 6.2793L8.24219 1.96289C8.24219 0.732422 7.5 0 6.24023 0L2.00195 0C0.742188 0 0 0.732422 0 1.96289L0 6.2793C0 7.50977 0.742188 8.24219 2.00195 8.24219ZM2.00195 21.4551L6.24023 21.4551C7.5 21.4551 8.24219 20.7227 8.24219 19.4922L8.24219 15.1758C8.24219 13.9453 7.5 13.2129 6.24023 13.2129L2.00195 13.2129C0.742188 13.2129 0 13.9453 0 15.1758L0 19.4922C0 20.7227 0.742188 21.4551 2.00195 21.4551Z" fill="var(--color-primary)"/>
 </g>
</svg>
