<svg version="1.1" xmlns="http://www.w3.org/2000/svg" xmlns:xlink="http://www.w3.org/1999/xlink" width="25.8008" height="25.4395" viewBox="0 0 25.8008 25.4395">
 <g>
  <rect height="25.4395" opacity="0" width="25.8008" x="0" y="0"/>
  <path d="M12.7148 25.4395C19.6777 25.4395 25.4395 19.6777 25.4395 12.7148C25.4395 5.76172 19.668 0 12.7051 0C5.75195 0 0 5.76172 0 12.7148C0 19.6777 5.76172 25.4395 12.7148 25.4395Z" fill="var(--color-tertiary)"/>
  <path d="M8.61328 18.4766C8.21289 18.4766 7.94922 18.2129 7.94922 17.8027C7.94922 17.4121 8.13477 17.1973 8.54492 17.0703C9.59961 16.8066 10.4199 15.8398 10.4199 14.502C10.4199 14.0527 10.332 13.5938 10.2148 13.125L8.69141 13.125C8.32031 13.125 8.05664 12.8711 8.05664 12.5C8.05664 12.1289 8.32031 11.8848 8.69141 11.8848L9.91211 11.8848C9.76562 11.3574 9.66797 10.8105 9.66797 10.2539C9.66797 7.92969 11.1914 6.42578 13.7988 6.42578C14.668 6.42578 15.3711 6.5625 15.9277 6.76758C16.377 6.95312 16.5137 7.19727 16.5137 7.5C16.5137 7.86133 16.3281 8.0957 15.8984 8.0957C15.5664 8.0957 15.0586 7.76367 13.8867 7.76367C12.1191 7.76367 11.1426 8.75 11.1426 10.166C11.1426 10.8105 11.2695 11.3574 11.3965 11.8848L15 11.8848C15.3711 11.8848 15.6348 12.1289 15.6348 12.5C15.6348 12.8711 15.3711 13.125 15 13.125L11.709 13.125C11.7969 13.5352 11.8652 13.9648 11.8652 14.4531C11.8652 15.5371 11.3867 16.582 10.7129 17.1387L16.4062 17.1387C16.8066 17.1387 17.0898 17.4023 17.0898 17.8027C17.0898 18.2129 16.8066 18.4766 16.4062 18.4766Z" fill="var(--color-primary)"/>
 </g>
</svg>
