<?xml version="1.0" encoding="UTF-8"?>
<!--Generator: Apple Native CoreSVG 232.5-->
<!DOCTYPE svg
PUBLIC "-//W3C//DTD SVG 1.1//EN"
       "http://www.w3.org/Graphics/SVG/1.1/DTD/svg11.dtd">
<svg version="1.1" xmlns="http://www.w3.org/2000/svg" xmlns:xlink="http://www.w3.org/1999/xlink" width="25.8008" height="25.459">
 <g>
  <rect height="25.459" opacity="0" width="25.8008" x="0" y="0"/>
  <path d="M25.4395 12.7246C25.4395 19.6777 19.6777 25.4395 12.7148 25.4395C5.76172 25.4395 0 19.6777 0 12.7246C0 5.76172 5.75195 0 12.7051 0C19.668 0 25.4395 5.76172 25.4395 12.7246ZM14.9805 10.8984L14.9805 17.4023C14.9805 17.793 15.293 18.1055 15.6836 18.1055C16.084 18.1055 16.3965 17.793 16.3965 17.4023L16.3965 13.4961C16.3965 12.5098 16.7578 11.6504 17.7539 11.6504C18.0371 11.6504 18.3496 11.6113 18.5449 11.4844C18.6914 11.3867 18.7988 11.2207 18.7988 10.9766C18.7988 10.7422 18.7207 10.5664 18.5938 10.4492C18.418 10.3027 18.2031 10.2441 17.9492 10.2441C17.1484 10.2441 16.5723 10.9277 16.4062 11.7676L16.3477 11.7676L16.3477 10.8984C16.3477 10.5273 16.0449 10.2246 15.6641 10.2246C15.2832 10.2246 14.9805 10.5273 14.9805 10.8984ZM7.79297 8.01758L7.79297 17.3535C7.79297 17.7539 8.125 18.0859 8.53516 18.0859C8.94531 18.0859 9.27734 17.7539 9.27734 17.3535L9.27734 15.293L10 14.5898L12.168 17.6758C12.4707 18.1348 12.9492 18.1543 13.252 17.9395C13.5352 17.7344 13.6621 17.3242 13.3398 16.8555L11.084 13.6621L13.3203 11.3281C13.6426 10.9961 13.5645 10.625 13.3301 10.4102C13.0859 10.1562 12.627 10.0781 12.2852 10.4688L9.31641 13.7305L9.27734 13.7305L9.27734 8.01758C9.27734 7.61719 8.94531 7.28516 8.53516 7.28516C8.125 7.28516 7.79297 7.61719 7.79297 8.01758Z" fill="#ffffff" fill-opacity="0.85"/>
 </g>
</svg>
