<?xml version="1.0" encoding="UTF-8"?>
<!--Generator: Apple Native CoreSVG 232.5-->
<!DOCTYPE svg
PUBLIC "-//W3C//DTD SVG 1.1//EN"
       "http://www.w3.org/Graphics/SVG/1.1/DTD/svg11.dtd">
<svg version="1.1" xmlns="http://www.w3.org/2000/svg" xmlns:xlink="http://www.w3.org/1999/xlink" width="23.3203" height="22.9785">
 <g>
  <rect height="22.9785" opacity="0" width="23.3203" x="0" y="0"/>
  <path d="M3.79883 22.9785L19.1504 22.9785C21.6797 22.9785 22.959 21.709 22.959 19.2188L22.959 3.78906C22.959 1.29883 21.6797 0.0292969 19.1504 0.0292969L3.79883 0.0292969C1.2793 0.0292969 0 1.28906 0 3.78906L0 19.2188C0 21.7188 1.2793 22.9785 3.79883 22.9785ZM3.83789 21.25C2.4707 21.25 1.72852 20.5273 1.72852 19.1309L1.72852 3.87695C1.72852 2.48047 2.4707 1.75781 3.83789 1.75781L19.1211 1.75781C20.459 1.75781 21.2305 2.48047 21.2305 3.87695L21.2305 19.1309C21.2305 20.5273 20.459 21.25 19.1211 21.25Z" fill="#ffffff" fill-opacity="0.85"/>
  <path d="M9.04297 18.0566C9.72656 18.75 10.4199 18.7598 11.1328 18.0469L17.3438 11.8848C17.8027 11.4355 18.1348 11.1133 18.1348 10.3809L18.1348 7.97852C18.1348 7.43164 17.9883 7.11914 17.6172 6.74805L16.4941 5.64453C16.123 5.2832 15.8203 5.05859 15.2637 5.05859L12.8027 5.05859C12.0801 5.05859 11.7383 5.39062 11.2891 5.84961L5.13672 12.0508C4.43359 12.7637 4.44336 13.4473 5.12695 14.1309ZM13.8379 9.3457C13.5059 9.02344 13.5059 8.47656 13.8379 8.125C14.1602 7.79297 14.7168 7.79297 15.0488 8.125C15.3809 8.45703 15.3809 8.99414 15.0391 9.33594C14.707 9.6875 14.1699 9.67773 13.8379 9.3457Z" fill="#ffffff" fill-opacity="0.85"/>
 </g>
</svg>
