<svg version="1.1" xmlns="http://www.w3.org/2000/svg" xmlns:xlink="http://www.w3.org/1999/xlink" width="36.6018" height="26.5179" viewBox="0 0 36.6018 26.5179">
 <g>
  <rect height="26.5179" opacity="0" width="36.6018" x="0" y="0"/>
  <path d="M22.4806 24.8849C23.7794 23.5959 23.4181 22.5705 22.0216 21.4377L18.5157 18.6056C17.1974 17.5314 16.3575 17.9611 15.4005 18.8595L15.1466 19.0939C14.3263 19.8556 13.1251 19.2502 10.2052 16.3205C7.43176 13.547 6.67005 12.1115 7.422 11.3693L7.66614 11.1252C8.6134 10.1681 8.9845 9.31851 7.92005 8.00015L5.07825 4.49429C3.9552 3.08804 2.92005 2.73648 1.63098 4.02554C-1.91394 7.58023 0.576295 13.8498 6.62122 19.8947C12.6661 25.9494 18.9454 28.4298 22.4806 24.8849ZM12.4611 8.7814L14.6974 8.7814C15.5665 8.7814 16.0548 8.29312 16.0548 7.40445L16.0548 5.15836C16.0548 4.27945 15.5665 3.7814 14.6974 3.7814L12.4611 3.7814C11.5822 3.7814 11.0743 4.27945 11.0743 5.15836L11.0743 7.40445C11.0743 8.29312 11.5822 8.7814 12.4611 8.7814ZM19.0822 8.7814L21.3185 8.7814C22.1876 8.7814 22.6857 8.29312 22.6857 7.40445L22.6857 5.15836C22.6857 4.27945 22.1876 3.7814 21.3185 3.7814L19.0822 3.7814C18.1935 3.7814 17.6759 4.27945 17.6759 5.15836L17.6759 7.40445C17.6759 8.29312 18.1935 8.7814 19.0822 8.7814ZM25.674 8.7814L27.9103 8.7814C28.7794 8.7814 29.3068 8.29312 29.3068 7.40445L29.3068 5.15836C29.3068 4.27945 28.7794 3.7814 27.9103 3.7814L25.674 3.7814C24.8048 3.7814 24.3068 4.27945 24.3068 5.15836L24.3068 7.40445C24.3068 8.29312 24.8048 8.7814 25.674 8.7814ZM32.2853 8.7814L34.5216 8.7814C35.4005 8.7814 35.9279 8.29312 35.9279 7.40445L35.9279 5.15836C35.9279 4.27945 35.4005 3.7814 34.5216 3.7814L32.2853 3.7814C31.4161 3.7814 30.9279 4.27945 30.9279 5.15836L30.9279 7.40445C30.9279 8.29312 31.4161 8.7814 32.2853 8.7814ZM12.4318 15.4123L14.6681 15.4123C15.5568 15.4123 16.0548 14.9142 16.0548 14.0353L16.0548 11.7697C16.0548 10.9005 15.5568 10.4025 14.6681 10.4025L12.4318 10.4025C11.5626 10.4025 11.0743 10.9005 11.0743 11.7697L11.0743 14.0353C11.0743 14.9142 11.5626 15.4123 12.4318 15.4123ZM19.0529 15.4123L27.9493 15.4123C28.8282 15.4123 29.3165 14.9142 29.3165 14.0353L29.3165 11.7697C29.3165 10.9005 28.8282 10.4025 27.9493 10.4025L19.0529 10.4025C18.174 10.4025 17.6759 10.9005 17.6759 11.7697L17.6759 14.0353C17.6759 14.9142 18.174 15.4123 19.0529 15.4123ZM32.3341 15.4123L34.5704 15.4123C35.4493 15.4123 35.9279 14.9142 35.9279 14.0353L35.9279 11.7697C35.9279 10.9005 35.4493 10.4025 34.5704 10.4025L32.3341 10.4025C31.4454 10.4025 30.9376 10.9005 30.9376 11.7697L30.9376 14.0353C30.9376 14.9142 31.4454 15.4123 32.3341 15.4123Z" fill="currentColor"/>
 </g>
</svg>
