<?xml version="1.0" encoding="UTF-8"?>
<!--Generator: Apple Native CoreSVG 232.5-->
<!DOCTYPE svg
PUBLIC "-//W3C//DTD SVG 1.1//EN"
       "http://www.w3.org/Graphics/SVG/1.1/DTD/svg11.dtd">
<svg version="1.1" xmlns="http://www.w3.org/2000/svg" xmlns:xlink="http://www.w3.org/1999/xlink" width="25.8008" height="25.459">
 <g>
  <rect height="25.459" opacity="0" width="25.8008" x="0" y="0"/>
  <path d="M12.7148 25.459C19.6777 25.459 25.4395 19.6973 25.4395 12.7344C25.4395 5.78125 19.668 0.0195312 12.7051 0.0195312C5.75195 0.0195312 0 5.78125 0 12.7344C0 19.6973 5.76172 25.459 12.7148 25.459Z" fill="#ffffff" fill-opacity="0.25"/>
  <path d="M14.6191 19.3848C12.8516 21.1719 9.6875 19.9316 6.66016 16.8848C3.60352 13.8379 2.36328 10.7031 4.14062 8.90625C4.79492 8.26172 5.29297 8.44727 5.87891 9.15039L7.30469 10.8984C7.83203 11.5527 7.64648 11.9727 7.16797 12.4707L7.05078 12.5977C6.68945 12.998 7.05078 13.6914 8.44727 15.0977C9.92188 16.5527 10.498 16.8555 10.9375 16.4844L11.0645 16.3672C11.5527 15.9277 11.9531 15.6934 12.627 16.2305L14.3945 17.6758C15.0977 18.2227 15.2832 18.75 14.6191 19.3848ZM9.77539 11.1035C9.3457 11.1035 9.0918 10.8301 9.0918 10.4102L9.0918 9.28711C9.0918 8.83789 9.3457 8.60352 9.77539 8.60352L10.8984 8.60352C11.3477 8.60352 11.6016 8.83789 11.6016 9.28711L11.6016 10.4102C11.6016 10.8301 11.3477 11.1035 10.8984 11.1035ZM13.1055 11.1035C12.666 11.1035 12.3828 10.8301 12.3828 10.4102L12.3828 9.28711C12.3828 8.83789 12.666 8.60352 13.1055 8.60352L14.2383 8.60352C14.668 8.60352 14.9121 8.83789 14.9121 9.28711L14.9121 10.4102C14.9121 10.8301 14.668 11.1035 14.2383 11.1035ZM16.4062 11.1035C15.9766 11.1035 15.7324 10.8301 15.7324 10.4102L15.7324 9.28711C15.7324 8.83789 15.9766 8.60352 16.4062 8.60352L17.5391 8.60352C17.9785 8.60352 18.2422 8.83789 18.2422 9.28711L18.2422 10.4102C18.2422 10.8301 17.9785 11.1035 17.5391 11.1035ZM19.7363 11.1035C19.3066 11.1035 19.0527 10.8301 19.0527 10.4102L19.0527 9.28711C19.0527 8.83789 19.3066 8.60352 19.7363 8.60352L20.8594 8.60352C21.3281 8.60352 21.5723 8.83789 21.5723 9.28711L21.5723 10.4102C21.5723 10.8301 21.3281 11.1035 20.8594 11.1035ZM9.76562 14.4336C9.31641 14.4336 9.0918 14.1797 9.0918 13.7402L9.0918 12.6074C9.0918 12.1582 9.31641 11.9238 9.76562 11.9238L10.8887 11.9238C11.3477 11.9238 11.6016 12.1582 11.6016 12.6074L11.6016 13.7402C11.6016 14.1797 11.3477 14.4336 10.8887 14.4336ZM13.0859 14.4336C12.6562 14.4336 12.3828 14.1797 12.3828 13.7402L12.3828 12.6074C12.3828 12.1582 12.6562 11.9238 13.0859 11.9238L17.5586 11.9238C17.998 11.9238 18.252 12.1582 18.252 12.6074L18.252 13.7402C18.252 14.1797 17.998 14.4336 17.5586 14.4336ZM19.7461 14.4336C19.3359 14.4336 19.0625 14.1797 19.0625 13.7402L19.0625 12.6074C19.0625 12.1582 19.3359 11.9238 19.7461 11.9238L20.8887 11.9238C21.3379 11.9238 21.5723 12.1582 21.5723 12.6074L21.5723 13.7402C21.5723 14.1797 21.3379 14.4336 20.8887 14.4336Z" fill="#ffffff" fill-opacity="0.85"/>
 </g>
</svg>
