<?xml version="1.0" encoding="UTF-8"?>
<!--Generator: Apple Native CoreSVG 232.5-->
<!DOCTYPE svg
PUBLIC "-//W3C//DTD SVG 1.1//EN"
       "http://www.w3.org/Graphics/SVG/1.1/DTD/svg11.dtd">
<svg version="1.1" xmlns="http://www.w3.org/2000/svg" xmlns:xlink="http://www.w3.org/1999/xlink" width="25.8008" height="25.459">
 <g>
  <rect height="25.459" opacity="0" width="25.8008" x="0" y="0"/>
  <path d="M12.7148 25.4395C19.6777 25.4395 25.4395 19.6777 25.4395 12.7246C25.4395 5.76172 19.668 0 12.7051 0C5.75195 0 0 5.76172 0 12.7246C0 19.6777 5.76172 25.4395 12.7148 25.4395Z" fill="#ffffff" fill-opacity="0.25"/>
  <path d="M18.8965 6.51367C20.5957 8.20312 20.3613 11.1133 18.3984 13.0957C17.2363 14.248 15.791 14.6875 14.3945 14.7266C12.5781 14.7461 11.5039 14.9121 9.9707 16.2695C10.0879 16.5234 10.0293 16.8164 9.80469 17.041L7.1582 19.6973C6.875 19.9902 6.43555 19.9902 6.15234 19.6973L5.69336 19.2383C5.40039 18.9355 5.41016 18.5254 5.69336 18.2422L8.34961 15.5762C8.57422 15.3418 8.90625 15.3125 9.16016 15.4395C10.5176 13.8965 10.6934 12.7832 10.6934 10.9863C10.6738 9.62891 11.1816 8.1543 12.3145 7.00195C14.2773 5.03906 17.1875 4.82422 18.8965 6.51367ZM14.5996 6.68945L15.498 7.57812L16.6309 6.44531C15.9961 6.30859 15.2832 6.39648 14.5996 6.68945ZM16.1133 8.20312L17.3145 9.4043L18.7012 8.00781C18.5645 7.73438 18.3789 7.48047 18.1543 7.24609C17.959 7.06055 17.7539 6.89453 17.5391 6.77734ZM17.9297 10.0195L18.7305 10.8105C18.9844 10.1953 19.0723 9.56055 18.9746 8.98438ZM12.4707 8.4375L13.5547 9.52148L14.8828 8.20312L13.8184 7.12891C13.5547 7.30469 13.3008 7.50977 13.0664 7.74414C12.832 7.96875 12.6367 8.20312 12.4707 8.4375ZM14.1699 10.1367L15.3809 11.3574L16.709 10.0195L15.498 8.81836ZM15.9961 11.9629L16.9629 12.9297C17.1973 12.7734 17.4316 12.5781 17.666 12.3535C17.9004 12.1191 18.1152 11.8555 18.291 11.6016L17.3242 10.6348ZM11.7578 11.3281L12.9395 10.1367L12.0312 9.22852C11.709 9.93164 11.6211 10.6641 11.7578 11.3281ZM12.0801 12.2266C12.207 12.4512 12.373 12.6562 12.5586 12.8418C12.793 13.0859 13.0566 13.2617 13.3398 13.3984L14.7656 11.9629L13.5547 10.752ZM14.2871 13.6621C14.8926 13.7598 15.5469 13.6621 16.1719 13.3789L15.3809 12.5684Z" fill="#ffffff" fill-opacity="0.85"/>
 </g>
</svg>
