<?xml version="1.0" encoding="UTF-8"?>
<!--Generator: Apple Native CoreSVG 232.5-->
<!DOCTYPE svg
PUBLIC "-//W3C//DTD SVG 1.1//EN"
       "http://www.w3.org/Graphics/SVG/1.1/DTD/svg11.dtd">
<svg version="1.1" xmlns="http://www.w3.org/2000/svg" xmlns:xlink="http://www.w3.org/1999/xlink" width="25.8008" height="25.459">
 <g>
  <rect height="25.459" opacity="0" width="25.8008" x="0" y="0"/>
  <path d="M12.7148 25.4395C19.6777 25.4395 25.4395 19.6777 25.4395 12.7246C25.4395 5.76172 19.668 0 12.7051 0C5.75195 0 0 5.76172 0 12.7246C0 19.6777 5.76172 25.4395 12.7148 25.4395ZM12.7148 23.623C6.67969 23.623 1.82617 18.7598 1.82617 12.7246C1.82617 6.67969 6.66992 1.82617 12.7051 1.82617C18.75 1.82617 23.6133 6.67969 23.6133 12.7246C23.6133 18.7598 18.7598 23.623 12.7148 23.623Z" fill="#ffffff" fill-opacity="0.85"/>
  <path d="M18.75 6.65039C17.0801 5 14.2285 5.21484 12.3145 7.12891C11.2012 8.26172 10.7129 9.69727 10.7324 11.0254C10.7422 13.0176 10.498 14.1504 8.63281 15.9961L9.4043 16.7676C11.25 14.9023 12.3438 14.707 14.3457 14.6777C15.7129 14.6484 17.1289 14.2188 18.2617 13.0859C20.1758 11.1523 20.4102 8.30078 18.75 6.65039ZM18.0273 7.36328C19.3164 8.65234 19.1309 10.8008 17.5488 12.3633C15.9668 13.9355 13.8379 14.1309 12.5488 12.8418C11.2598 11.5625 11.4551 9.42383 13.0469 7.85156C14.6094 6.26953 16.748 6.07422 18.0273 7.36328ZM5.84961 19.082L6.28906 19.541C6.58203 19.8242 7.00195 19.8242 7.28516 19.541L9.86328 16.9434C10.1562 16.6504 10.1562 16.2598 9.86328 15.9668L9.42383 15.5078C9.15039 15.2344 8.73047 15.2246 8.4375 15.5078L5.84961 18.1152C5.57617 18.3984 5.56641 18.7988 5.84961 19.082ZM18.4473 11.9238L19.0234 11.2988L14.1406 6.41602L13.5352 7.00195ZM16.5137 13.7988L17.1582 13.2422L12.2363 8.32031L11.6309 8.91602ZM11.543 11.582L11.9141 12.4023L17.5195 6.79688L16.8164 6.30859ZM13.1934 13.5156L13.9648 13.9258L19.1504 8.74023L18.6523 8.02734Z" fill="#ffffff" fill-opacity="0.85"/>
 </g>
</svg>
