<?xml version="1.0" encoding="UTF-8"?>
<!--Generator: Apple Native CoreSVG 232.5-->
<!DOCTYPE svg
PUBLIC "-//W3C//DTD SVG 1.1//EN"
       "http://www.w3.org/Graphics/SVG/1.1/DTD/svg11.dtd">
<svg version="1.1" xmlns="http://www.w3.org/2000/svg" xmlns:xlink="http://www.w3.org/1999/xlink" width="37.8223" height="25.7746">
 <g>
  <rect height="25.7746" opacity="0" width="37.8223" x="0" y="0"/>
  <path d="M8.59375 11.1246L32.0703 11.1246C32.5293 11.1246 32.8906 10.7633 32.8906 10.3043C32.8906 9.84529 32.5293 9.49373 32.0703 9.49373L8.59375 9.49373C8.13477 9.49373 7.7832 9.84529 7.7832 10.3043C7.7832 10.7633 8.13477 11.1246 8.59375 11.1246ZM8.59375 17.6285L32.0703 17.6285C32.5293 17.6285 32.8906 17.2769 32.8906 16.8179C32.8906 16.3492 32.5293 15.9976 32.0703 15.9976L8.59375 15.9976C8.13477 15.9976 7.7832 16.3492 7.7832 16.8179C7.7832 17.2769 8.13477 17.6285 8.59375 17.6285ZM8.59375 24.1324L32.0703 24.1324C32.5293 24.1324 32.8906 23.7808 32.8906 23.3219C32.8906 22.8629 32.5293 22.5015 32.0703 22.5015L8.59375 22.5015C8.13477 22.5015 7.7832 22.8629 7.7832 23.3219C7.7832 23.7808 8.13477 24.1324 8.59375 24.1324Z" fill="#ffffff" fill-opacity="0.55"/>
  <path d="M1.03516 6.87654L5.52734 4.14217C6.04492 3.82967 6.03516 3.20467 5.52734 2.89217L1.03516 0.138262C0.507812-0.184004 0 0.0796681 0 0.694902L0 6.3199C0 6.9449 0.507812 7.19881 1.03516 6.87654ZM9.20898 5.3824L31.4648 5.3824C32.4121 5.3824 32.8906 4.90389 32.8906 3.95662L32.8906 3.02889C32.8906 2.10115 32.4121 1.62264 31.4648 1.62264L9.20898 1.62264C8.26172 1.62264 7.7832 2.10115 7.7832 3.02889L7.7832 3.95662C7.7832 4.90389 8.26172 5.3824 9.20898 5.3824Z" fill="#ffffff" fill-opacity="0.85"/>
 </g>
</svg>
