<svg version="1.1" xmlns="http://www.w3.org/2000/svg" xmlns:xlink="http://www.w3.org/1999/xlink" width="23.3203" height="22.9785" viewBox="0 0 23.3203 22.9785">
 <g>
  <rect height="22.9785" opacity="0" width="23.3203" x="0" y="0"/>
  <path d="M3.79883 22.9785L19.1504 22.9785C21.6797 22.9785 22.959 21.709 22.959 19.2188L22.959 3.78906C22.959 1.29883 21.6797 0.0292969 19.1504 0.0292969L3.79883 0.0292969C1.2793 0.0292969 0 1.28906 0 3.78906L0 19.2188C0 21.7188 1.2793 22.9785 3.79883 22.9785ZM3.83789 21.25C2.4707 21.25 1.72852 20.5273 1.72852 19.1309L1.72852 3.87695C1.72852 2.48047 2.4707 1.75781 3.83789 1.75781L19.1211 1.75781C20.459 1.75781 21.2305 2.48047 21.2305 3.87695L21.2305 19.1309C21.2305 20.5273 20.459 21.25 19.1211 21.25Z" fill="currentColor"/>
  <path d="M4.05273 11.4941C4.05273 15.5762 7.40234 18.9258 11.4844 18.9258C15.5664 18.9258 18.916 15.5762 18.916 11.4941C18.916 7.42188 15.5664 4.0625 11.4941 4.0625C10.9961 4.0625 10.6934 4.375 10.6934 4.87305L10.6934 7.45117C10.6934 7.88086 10.9961 8.19336 11.416 8.19336C11.8262 8.19336 12.1387 7.86133 12.1387 7.45117L12.1387 5.68359C15.0781 5.99609 17.3438 8.4668 17.3438 11.4941C17.3438 14.7363 14.7363 17.3535 11.4844 17.3535C8.24219 17.3535 5.61523 14.7363 5.625 11.4941C5.625 10.0488 6.14258 8.68164 7.09961 7.60742C7.38281 7.25586 7.39258 6.82617 7.09961 6.50391C6.77734 6.17188 6.26953 6.20117 5.92773 6.60156C4.72656 7.94922 4.05273 9.70703 4.05273 11.4941ZM12.6074 12.5293C13.1641 11.9434 13.0566 11.1133 12.373 10.6641L8.88672 8.26172C8.42773 7.95898 8.01758 8.34961 8.32031 8.80859L10.7422 12.2949C11.2109 12.9785 12.0312 13.0957 12.6074 12.5293Z" fill="currentColor"/>
 </g>
</svg>
