<?xml version="1.0" encoding="UTF-8"?>
<!--Generator: Apple Native CoreSVG 232.5-->
<!DOCTYPE svg
PUBLIC "-//W3C//DTD SVG 1.1//EN"
       "http://www.w3.org/Graphics/SVG/1.1/DTD/svg11.dtd">
<svg version="1.1" xmlns="http://www.w3.org/2000/svg" xmlns:xlink="http://www.w3.org/1999/xlink" width="25.8008" height="25.459">
 <g>
  <rect height="25.459" opacity="0" width="25.8008" x="0" y="0"/>
  <path d="M12.7148 25.4395C19.6777 25.4395 25.4395 19.6777 25.4395 12.7246C25.4395 5.76172 19.6875 0 12.7246 0C12.0898 0 11.8066 0.361328 11.8066 0.947266L11.8066 5.86914C11.8066 6.34766 12.1191 6.71875 12.6074 6.71875C13.0859 6.71875 13.3984 6.34766 13.3984 5.86914L13.3984 0.839844L12.6855 1.82617C18.7695 1.82617 23.6035 6.67969 23.6035 12.7246C23.6035 18.7598 18.7598 23.623 12.7148 23.623C6.67969 23.623 1.80664 18.7598 1.81641 12.7246C1.82617 9.96094 2.85156 7.45117 4.53125 5.53711C4.86328 5.12695 4.89258 4.61914 4.53125 4.24805C4.17969 3.86719 3.59375 3.89648 3.20312 4.36523C1.2207 6.61133 0 9.54102 0 12.7246C0 19.6777 5.76172 25.4395 12.7148 25.4395Z" fill="#ffffff" fill-opacity="0.85"/>
  <path d="M14.6191 14.3945C15.5566 13.4082 15.3613 12.0898 14.2285 11.2988L7.64648 6.64062C7.07031 6.24023 6.48438 6.83594 6.89453 7.41211L11.5332 13.9941C12.3242 15.1172 13.6426 15.332 14.6191 14.3945Z" fill="#ffffff" fill-opacity="0.85"/>
 </g>
</svg>
