<svg version="1.1" xmlns="http://www.w3.org/2000/svg" xmlns:xlink="http://www.w3.org/1999/xlink" width="25.8008" height="25.5566" viewBox="0 0 25.8008 25.5566">
 <g>
  <rect height="25.5566" opacity="0" width="25.8008" x="0" y="0"/>
  <path d="M25.4395 12.832C25.4395 19.7949 19.6777 25.5566 12.7148 25.5566C5.76172 25.5566 0 19.7949 0 12.832C0 5.87891 5.75195 0.117188 12.7051 0.117188C19.668 0.117188 25.4395 5.87891 25.4395 12.832ZM11.1621 6.97266L6.31836 15.4102C5.52734 16.7773 6.11328 18.125 7.70508 18.125L17.7539 18.125C19.3457 18.125 19.9316 16.7773 19.1406 15.4102L14.2676 6.94336C13.5352 5.6543 11.9629 5.58594 11.1621 6.97266ZM13.0273 7.91992L17.6758 16.0059C17.8516 16.2793 17.793 16.5527 17.4219 16.5527L8.03711 16.5527C7.66602 16.5527 7.60742 16.2793 7.7832 16.0059L12.4121 7.92969C12.5586 7.65625 12.8809 7.66602 13.0273 7.91992Z" fill="var(--color-primary)"/>
 </g>
</svg>
