<?xml version="1.0" encoding="UTF-8"?>
<!--Generator: Apple Native CoreSVG 232.5-->
<!DOCTYPE svg
PUBLIC "-//W3C//DTD SVG 1.1//EN"
       "http://www.w3.org/Graphics/SVG/1.1/DTD/svg11.dtd">
<svg version="1.1" xmlns="http://www.w3.org/2000/svg" xmlns:xlink="http://www.w3.org/1999/xlink" width="44.2086" height="33.0567">
 <g>
  <rect height="33.0567" opacity="0" width="44.2086" x="0" y="0"/>
  <path d="M10.4881 24.0527L11.8553 23.2617C11.6892 23.0859 11.4939 22.832 11.3767 22.627C10.3611 20.8496 10.9568 18.6035 12.7244 17.5879C14.492 16.5625 16.7381 17.1777 17.7635 18.9356C17.8709 19.1406 17.9881 19.3945 18.0467 19.668L28.6521 13.5352C28.4568 13.3496 28.281 13.1348 28.1736 12.9199C27.1482 11.1621 27.7537 8.90626 29.5017 7.89063C31.2791 6.87501 33.5154 7.47071 34.5408 9.23829C34.658 9.45313 34.7557 9.66798 34.824 10L38.2517 7.98829C39.5994 7.17774 39.9119 5.93751 39.1404 4.58985L37.1873 1.16212C36.533 0.00977347 35.1365-0.371086 33.7791 0.410164L27.0799 4.30665L25.8982 2.70509C24.7654 1.16212 23.3006 0.88868 21.6697 1.83595L18.4568 3.68165C15.4881 5.39063 14.1014 6.74805 12.8416 9.0918L10.6736 13.2129L7.783 15.4981C5.38065 17.3828 4.84355 19.2481 5.97636 21.2402L7.05058 23.0957C7.84159 24.4727 9.13065 24.8438 10.4881 24.0527ZM15.8689 23.0469C17.1482 22.3145 17.5682 20.7227 16.8357 19.4629C16.1033 18.2031 14.5213 17.7734 13.2615 18.5059C11.992 19.2383 11.5623 20.8203 12.2947 22.0801C13.0174 23.3496 14.6092 23.7793 15.8689 23.0469ZM32.6658 13.3594C33.9256 12.627 34.365 11.0254 33.6228 9.76563C32.8904 8.4961 31.2986 8.07618 30.0389 8.8086C28.7791 9.53126 28.3494 11.1328 29.0721 12.3926C29.7947 13.6524 31.3963 14.082 32.6658 13.3594Z" fill="#ffffff" fill-opacity="0.55"/>
  <path d="M5.38065 25.625L2.88065 21.2891C2.4998 20.6152 1.72831 20.7813 1.48417 21.4453L0.0681547 25.1465C-0.127158 25.6445 0.107217 26.0449 0.644327 26.1426L4.55058 26.7481C5.24394 26.875 5.77128 26.2988 5.38065 25.625ZM7.08964 31.9336C7.33378 32.3633 7.86112 32.5 8.26151 32.2656L43.4178 11.9336C43.8084 11.7188 43.9744 11.1914 43.7303 10.7813C43.4861 10.3516 42.9392 10.2149 42.5486 10.4395L7.39237 30.7715C7.00175 30.9961 6.85526 31.5332 7.08964 31.9336Z" fill="#ffffff" fill-opacity="0.85"/>
 </g>
</svg>
