<svg version="1.1" xmlns="http://www.w3.org/2000/svg" xmlns:xlink="http://www.w3.org/1999/xlink" width="47.8516" height="36.5137" viewBox="0 0 47.8516 36.5137">
 <g>
  <rect height="36.5137" opacity="0" width="47.8516" x="0" y="0"/>
  <path d="M12.793 24.4922C12.793 26.4062 11.2793 27.9102 9.36523 27.9102C7.4707 27.9102 5.94727 26.3965 5.94727 24.4922C5.94727 22.5879 7.4707 21.0742 9.36523 21.0742C11.2695 21.0742 12.793 22.5879 12.793 24.4922ZM39.2676 24.4922C39.2676 26.3965 37.7539 27.9102 35.8496 27.9102C33.9453 27.9102 32.4316 26.3965 32.4316 24.4922C32.4316 22.5977 33.9551 21.0742 35.8496 21.0742C37.7539 21.0742 39.2676 22.5879 39.2676 24.4922ZM33.6523 11.7969L33.9551 14.4531L44.6289 14.4531C46.4355 14.4531 47.4902 15.3906 47.4902 17.0117L47.4902 22.4805C47.4902 24.4531 46.3672 25.6055 44.4434 25.6055L40.4883 25.6055C40.5762 25.2441 40.6348 24.8828 40.6348 24.4922C40.6348 21.8457 38.5059 19.7168 35.8496 19.7168C33.2129 19.7168 31.0742 21.8555 31.0742 24.4922C31.0742 24.8828 31.123 25.2441 31.2109 25.6055L14.0234 25.6055C14.1016 25.2539 14.1504 24.8828 14.1504 24.4922C14.1504 21.8457 12.0215 19.7168 9.36523 19.7168C6.71875 19.7168 4.58984 21.8457 4.58984 24.4922C4.58984 24.8828 4.63867 25.2441 4.72656 25.6055L3.03711 25.6055C1.12305 25.6055 0 24.4531 0 22.4805L0 19.6484C0 16.6992 1.74805 15.0488 5.55664 14.4922L10.2539 13.8086L15.4395 10.5371C16.2435 10.0335 17.0131 9.62718 17.8027 9.30679L17.8027 11.1523C17.8027 12.959 18.9355 14.0625 20.625 14.0625L26.875 14.0625C28.5645 14.0625 29.6973 12.959 29.6973 11.1523L29.6973 8.23242C32.0312 8.23242 33.3789 9.44336 33.6523 11.7969Z" fill="var(--color-primary)"/>
  <path d="M20.4785 5.38086L21.9043 5.37109L21.9043 3.54492C21.9043 2.20703 22.6074 1.43555 23.75 1.43555C24.9023 1.43555 25.5957 2.20703 25.5957 3.54492L25.5957 5.37109L27.0312 5.38086L27.0312 3.65234C27.0312 1.46484 25.7031 0 23.75 0C21.7969 0 20.4785 1.46484 20.4785 3.65234ZM20.625 12.5L26.875 12.5C27.7344 12.5 28.1348 12.0703 28.1348 11.1523L28.1348 6.26953C28.1348 5.3418 27.7344 4.92188 26.875 4.92188L20.625 4.92188C19.7754 4.92188 19.3652 5.3418 19.3652 6.26953L19.3652 11.1523C19.3652 12.0703 19.7754 12.5 20.625 12.5Z" fill="var(--color-primary)"/>
 </g>
</svg>
