<?xml version="1.0" encoding="UTF-8"?>
<!--Generator: Apple Native CoreSVG 232.5-->
<!DOCTYPE svg
PUBLIC "-//W3C//DTD SVG 1.1//EN"
       "http://www.w3.org/Graphics/SVG/1.1/DTD/svg11.dtd">
<svg version="1.1" xmlns="http://www.w3.org/2000/svg" xmlns:xlink="http://www.w3.org/1999/xlink" width="25.8008" height="25.459">
 <g>
  <rect height="25.459" opacity="0" width="25.8008" x="0" y="0"/>
  <path d="M12.7148 25.4395C19.6777 25.4395 25.4395 19.6777 25.4395 12.7246C25.4395 5.76172 19.668 0 12.7051 0C5.75195 0 0 5.76172 0 12.7246C0 19.6777 5.76172 25.4395 12.7148 25.4395ZM12.7148 23.623C6.67969 23.623 1.82617 18.7598 1.82617 12.7246C1.82617 6.67969 6.66992 1.82617 12.7051 1.82617C18.75 1.82617 23.6133 6.67969 23.6133 12.7246C23.6133 18.7598 18.7598 23.623 12.7148 23.623Z" fill="#ffffff" fill-opacity="0.55"/>
  <path d="M12.7148 18.8184C13.125 18.8184 13.418 18.5352 13.418 18.0859L13.418 15.1562L15.5762 14.1992C15.8398 14.0723 15.957 13.9062 15.957 13.6621C15.957 13.3496 15.7422 13.1152 15.4297 13.1152C15.3125 13.1152 15.2051 13.1543 15.1172 13.1934L13.418 13.9648L13.418 12.6953L15.5762 11.7285C15.8398 11.6113 15.957 11.4355 15.957 11.2012C15.957 10.8789 15.752 10.6543 15.4199 10.6543C15.332 10.6543 15.2344 10.6836 15.1465 10.7129L13.418 11.5039L13.418 8.39844L16.5234 8.39844C16.9238 8.39844 17.2168 8.13477 17.2168 7.73438C17.2168 7.34375 16.9238 7.07031 16.5234 7.07031L8.88672 7.07031C8.47656 7.07031 8.19336 7.34375 8.19336 7.73438C8.19336 8.13477 8.47656 8.39844 8.88672 8.39844L11.9922 8.39844L11.9922 12.0996L9.84375 13.0566C9.57031 13.1836 9.46289 13.3398 9.46289 13.584C9.46289 13.8965 9.66797 14.1309 10 14.1309C10.0977 14.1309 10.2051 14.0918 10.3027 14.0527L11.9922 13.291L11.9922 14.5605L9.84375 15.5176C9.57031 15.6445 9.46289 15.8105 9.46289 16.0449C9.46289 16.3672 9.66797 16.5918 10 16.5918C10.0977 16.5918 10.2051 16.5625 10.3027 16.5137L11.9922 15.752L11.9922 18.0859C11.9922 18.5352 12.2852 18.8184 12.7148 18.8184Z" fill="#ffffff" fill-opacity="0.85"/>
 </g>
</svg>
