<svg version="1.1" xmlns="http://www.w3.org/2000/svg" xmlns:xlink="http://www.w3.org/1999/xlink" width="25.8008" height="25.459" viewBox="0 0 25.8008 25.459">
 <g>
  <rect height="25.459" opacity="0" width="25.8008" x="0" y="0"/>
  <path d="M25.4395 12.7246C25.4395 19.6777 19.6777 25.4395 12.7148 25.4395C5.76172 25.4395 0 19.6777 0 12.7246C0 5.76172 5.75195 0 12.7051 0C19.668 0 25.4395 5.76172 25.4395 12.7246ZM10.3418 7.5L10.3418 9.93164L8.78906 10.6152C8.51562 10.7227 8.4082 10.8984 8.4082 11.1523C8.4082 11.4844 8.63281 11.709 8.95508 11.709C9.0625 11.709 9.15039 11.6797 9.24805 11.6406L10.3418 11.1621L10.3418 12.4512L8.78906 13.1152C8.51562 13.2422 8.4082 13.3984 8.4082 13.6621C8.4082 13.9941 8.63281 14.2285 8.95508 14.2285C9.0625 14.2285 9.15039 14.1992 9.24805 14.1602L10.3418 13.6816L10.3418 17.8418C10.3418 18.3594 10.6641 18.7305 11.3086 18.7305C14.8438 18.7305 17.0117 15.957 17.0117 13.6035C17.0117 13.1445 16.7578 12.8418 16.3379 12.8418C15.9668 12.8418 15.7129 13.0664 15.6445 13.584C15.4492 15.5176 13.8867 17.2852 11.748 17.2852L11.748 13.0957L14.5215 11.9043C14.7949 11.7969 14.9023 11.6211 14.9023 11.3672C14.9023 11.0449 14.6875 10.8105 14.3555 10.8105C14.2578 10.8105 14.1602 10.8301 14.0625 10.8789L11.748 11.8652L11.748 10.5762L14.5215 9.4043C14.7949 9.27734 14.9023 9.12109 14.9023 8.85742C14.9023 8.52539 14.6875 8.29102 14.3555 8.29102C14.2578 8.29102 14.1602 8.32031 14.0625 8.36914L11.748 9.35547L11.748 7.5C11.748 7.04102 11.4746 6.74805 11.0547 6.74805C10.625 6.74805 10.3418 7.04102 10.3418 7.5Z" fill="currentColor"/>
 </g>
</svg>
