<svg version="1.1" xmlns="http://www.w3.org/2000/svg" xmlns:xlink="http://www.w3.org/1999/xlink" width="23.3203" height="22.9785" viewBox="0 0 23.3203 22.9785">
 <g>
  <rect height="22.9785" opacity="0" width="23.3203" x="0" y="0"/>
  <path d="M22.959 3.78906L22.959 19.2188C22.959 21.709 21.6797 22.9785 19.1504 22.9785L3.79883 22.9785C1.2793 22.9785 0 21.7188 0 19.2188L0 3.78906C0 1.28906 1.2793 0.0292969 3.79883 0.0292969L19.1504 0.0292969C21.6797 0.0292969 22.959 1.29883 22.959 3.78906ZM16.8945 6.29883L14.8242 14.9219L14.7461 14.9219L12.4609 6.20117C12.3242 5.70312 12.0117 5.45898 11.4648 5.45898C10.9375 5.45898 10.6055 5.70312 10.4785 6.20117L8.19336 14.9219L8.11523 14.9219L6.05469 6.29883C5.91797 5.66406 5.67383 5.41992 5.15625 5.41992C4.63867 5.41992 4.30664 5.76172 4.30664 6.25977C4.30664 6.36719 4.31641 6.47461 4.3457 6.60156L6.91406 16.5625C7.07031 17.1582 7.45117 17.4707 8.05664 17.4707C8.67188 17.4707 9.08203 17.168 9.21875 16.5918L11.4258 8.08594L11.5137 8.08594L13.7207 16.5918C13.8574 17.168 14.2676 17.4707 14.873 17.4707C15.4883 17.4707 15.8691 17.1582 16.0254 16.5625L18.6035 6.60156C18.6328 6.47461 18.6426 6.36719 18.6426 6.25977C18.6426 5.76172 18.3105 5.41992 17.793 5.41992C17.2754 5.41992 17.0312 5.66406 16.8945 6.29883Z" fill="var(--color-primary)"/>
 </g>
</svg>
