<?xml version="1.0" encoding="UTF-8"?>
<!--Generator: Apple Native CoreSVG 232.5-->
<!DOCTYPE svg
PUBLIC "-//W3C//DTD SVG 1.1//EN"
       "http://www.w3.org/Graphics/SVG/1.1/DTD/svg11.dtd">
<svg version="1.1" xmlns="http://www.w3.org/2000/svg" xmlns:xlink="http://www.w3.org/1999/xlink" width="25.8008" height="25.459">
 <g>
  <rect height="25.459" opacity="0" width="25.8008" x="0" y="0"/>
  <path d="M12.7148 25.459C19.6777 25.459 25.4395 19.6973 25.4395 12.7344C25.4395 5.78125 19.668 0.0195312 12.7051 0.0195312C5.75195 0.0195312 0 5.78125 0 12.7344C0 19.6973 5.76172 25.459 12.7148 25.459Z" fill="#ffffff" fill-opacity="0.25"/>
  <path d="M17.0312 5.61523C17.9492 5.61523 18.5352 6.24023 18.5352 7.1875L18.5352 9.0332L6.81641 9.0332L6.81641 7.1875C6.81641 6.24023 7.41211 5.61523 8.32031 5.61523ZM9.21875 8.24219C9.57031 8.24219 9.84375 7.95898 9.84375 7.61719C9.84375 7.26562 9.57031 6.98242 9.21875 6.98242C8.87695 6.98242 8.59375 7.26562 8.59375 7.61719C8.59375 7.95898 8.87695 8.24219 9.21875 8.24219ZM11.0352 8.24219C11.377 8.24219 11.6504 7.95898 11.6504 7.61719C11.6504 7.26562 11.377 6.98242 11.0352 6.98242C10.6836 6.98242 10.4199 7.26562 10.4199 7.61719C10.4199 7.95898 10.6836 8.24219 11.0352 8.24219ZM14.7559 7.97852L16.5137 7.97852C16.7285 7.97852 16.8848 7.82227 16.8848 7.61719C16.8848 7.40234 16.7285 7.24609 16.5137 7.24609L14.7559 7.24609C14.5508 7.24609 14.3945 7.40234 14.3945 7.61719C14.3945 7.82227 14.5508 7.97852 14.7559 7.97852ZM8.32031 19.8242C7.41211 19.8242 6.81641 19.1895 6.81641 18.252L6.81641 9.93164L18.5352 9.93164L18.5352 18.252C18.5352 19.1895 17.9492 19.8242 17.0312 19.8242ZM12.6758 18.2324C14.6875 18.2324 16.3184 16.6016 16.3184 14.5996C16.3184 12.5879 14.6875 10.957 12.6758 10.957C10.6641 10.957 9.0332 12.5879 9.0332 14.5996C9.0332 16.6016 10.6641 18.2324 12.6758 18.2324ZM12.6758 17.3633C11.123 17.3633 9.90234 16.1523 9.90234 14.5996C9.90234 13.0371 11.123 11.8164 12.6758 11.8164C14.2285 11.8164 15.4492 13.0371 15.4492 14.5996C15.4492 16.1523 14.2285 17.3633 12.6758 17.3633Z" fill="#ffffff" fill-opacity="0.85"/>
 </g>
</svg>
