<?xml version="1.0" encoding="UTF-8"?>
<!--Generator: Apple Native CoreSVG 232.5-->
<!DOCTYPE svg
PUBLIC "-//W3C//DTD SVG 1.1//EN"
       "http://www.w3.org/Graphics/SVG/1.1/DTD/svg11.dtd">
<svg version="1.1" xmlns="http://www.w3.org/2000/svg" xmlns:xlink="http://www.w3.org/1999/xlink" width="25.8008" height="25.459">
 <g>
  <rect height="25.459" opacity="0" width="25.8008" x="0" y="0"/>
  <path d="M12.7148 25.459C19.6777 25.459 25.4395 19.6973 25.4395 12.7344C25.4395 5.78125 19.668 0.0195312 12.7051 0.0195312C5.75195 0.0195312 0 5.78125 0 12.7344C0 19.6973 5.76172 25.459 12.7148 25.459Z" fill="#ffffff" fill-opacity="0.25"/>
  <path d="M19.2676 15.2539C18.877 15.2539 18.5742 14.9609 18.5742 14.5703L18.5742 10.8789C18.5742 10.4883 18.877 10.1855 19.2676 10.1855C19.6582 10.1855 19.9414 10.4785 19.9414 10.8789L19.9414 14.5703C19.9414 14.9707 19.6582 15.2539 19.2676 15.2539Z" fill="#ffffff" fill-opacity="0.85"/>
  <path d="M16.6406 18.0469C16.25 18.0469 15.9473 17.7539 15.9473 17.373L15.9473 8.07617C15.9473 7.69531 16.25 7.39258 16.6406 7.39258C17.0312 7.39258 17.3242 7.69531 17.3242 8.07617L17.3242 17.373C17.3242 17.7539 17.0312 18.0469 16.6406 18.0469Z" fill="#ffffff" fill-opacity="0.85"/>
  <path d="M14.0137 15.7812C13.6328 15.7812 13.3398 15.4883 13.3398 15.1074L13.3398 10.3418C13.3398 9.96094 13.6328 9.66797 14.0137 9.66797C14.4043 9.66797 14.707 9.96094 14.707 10.3418L14.707 15.1074C14.707 15.4883 14.4043 15.7812 14.0137 15.7812Z" fill="#ffffff" fill-opacity="0.85"/>
  <path d="M11.4062 19.9902C11.0059 19.9902 10.7227 19.707 10.7227 19.3066L10.7227 6.14258C10.7227 5.75195 11.0156 5.45898 11.4062 5.45898C11.7871 5.45898 12.0898 5.75195 12.0898 6.14258L12.0898 19.3066C12.0898 19.6973 11.7871 19.9902 11.4062 19.9902Z" fill="#ffffff" fill-opacity="0.85"/>
  <path d="M8.78906 16.9629C8.39844 16.9629 8.10547 16.6699 8.10547 16.2695L8.10547 9.16992C8.10547 8.7793 8.39844 8.47656 8.78906 8.47656C9.17969 8.47656 9.47266 8.7793 9.47266 9.16992L9.47266 16.2695C9.47266 16.6699 9.17969 16.9629 8.78906 16.9629Z" fill="#ffffff" fill-opacity="0.85"/>
  <path d="M6.16211 14.6191C5.79102 14.6191 5.48828 14.3262 5.48828 13.9355L5.48828 11.5039C5.48828 11.123 5.78125 10.8203 6.16211 10.8203C6.55273 10.8203 6.85547 11.123 6.85547 11.5039L6.85547 13.9355C6.85547 14.3262 6.55273 14.6191 6.16211 14.6191Z" fill="#ffffff" fill-opacity="0.85"/>
 </g>
</svg>
