<svg version="1.1" xmlns="http://www.w3.org/2000/svg" xmlns:xlink="http://www.w3.org/1999/xlink" width="25.8008" height="25.459" viewBox="0 0 25.8008 25.459">
 <g>
  <rect height="25.459" opacity="0" width="25.8008" x="0" y="0"/>
  <path d="M25.4395 12.7246C25.4395 19.6777 19.6777 25.4395 12.7148 25.4395C5.76172 25.4395 0 19.6777 0 12.7246C0 5.76172 5.75195 0 12.7051 0C19.668 0 25.4395 5.76172 25.4395 12.7246ZM1.82617 12.7246C1.82617 18.7598 6.67969 23.623 12.7148 23.623C18.7598 23.623 23.6133 18.7598 23.6133 12.7246C23.6133 6.67969 18.75 1.82617 12.7051 1.82617C6.66992 1.82617 1.82617 6.67969 1.82617 12.7246Z" fill="currentColor"/>
  <path d="M17.9688 13.2031C18.1055 13.3496 18.0859 13.5645 17.9395 13.7012L16.8848 14.7461C16.7285 14.9316 16.4941 14.9219 16.3184 14.7363C15.7884 14.154 15.0814 13.6967 14.3148 13.428L14.3286 11.113C15.8067 11.4325 17.1325 12.1795 17.9688 13.2031ZM11.1145 13.4292C10.3546 13.6972 9.65772 14.1514 9.14062 14.7266C8.94531 14.9121 8.7207 14.9316 8.54492 14.7461L7.5 13.7012C7.34375 13.5547 7.33398 13.3594 7.4707 13.2031C8.30563 12.1883 9.6286 11.4386 11.1 11.1161ZM11.0851 9.16993C9.19027 9.48915 7.51187 10.3925 6.19141 11.7969C6.02539 11.9824 5.76172 11.9824 5.61523 11.8066L4.6875 10.8594C4.55078 10.7129 4.53125 10.5176 4.6582 10.3516C6.06812 8.61132 8.495 7.343 11.0673 6.95483ZM20.7812 10.3516C20.9082 10.5176 20.8984 10.7129 20.752 10.8594L19.8242 11.7969C19.668 11.9727 19.4238 11.9727 19.2578 11.8066C17.9497 10.3761 16.2521 9.47893 14.3402 9.16593L14.3534 6.95387C16.9338 7.3417 19.361 8.61657 20.7812 10.3516Z" fill="currentColor"/>
  <path d="M12.7148 15.3711C13.0469 15.3711 13.2812 15.127 13.291 14.7949C13.3105 12.0703 13.3203 9.32617 13.3496 6.60156C13.3496 6.2207 13.0469 5.97656 12.7051 5.97656C12.373 5.97656 12.0703 6.2207 12.0703 6.60156C12.0996 9.32617 12.1191 12.0703 12.1387 14.7949C12.1484 15.127 12.373 15.3711 12.7148 15.3711ZM12.7051 18.5254C13.2812 18.5254 13.7598 18.0566 13.7598 17.4707C13.7598 16.8945 13.2812 16.4258 12.7051 16.4258C12.1387 16.4258 11.6504 16.8945 11.6504 17.4707C11.6504 18.0566 12.1387 18.5254 12.7051 18.5254Z" fill="currentColor"/>
 </g>
</svg>
