<svg version="1.1" xmlns="http://www.w3.org/2000/svg" xmlns:xlink="http://www.w3.org/1999/xlink" width="25.8008" height="25.459" viewBox="0 0 25.8008 25.459">
 <g>
  <rect height="25.459" opacity="0" width="25.8008" x="0" y="0"/>
  <path d="M25.4395 12.7344C25.4395 19.6973 19.6777 25.459 12.7148 25.459C5.76172 25.459 0 19.6973 0 12.7344C0 5.78125 5.75195 0.0195312 12.7051 0.0195312C19.668 0.0195312 25.4395 5.78125 25.4395 12.7344ZM4.9707 15.3223C4.62891 15.459 4.45312 15.7812 4.57031 16.0742C4.6582 16.3867 4.99023 16.5918 5.37109 16.4551C6.64062 15.9863 8.0957 15.7129 9.55078 15.7129C12.4219 15.7129 13.8672 16.416 13.8672 17.5293C13.8672 18.2227 13.418 18.623 12.8125 18.623C12.2168 18.623 11.875 18.2715 11.7676 17.6074C11.7285 17.3047 11.4746 17.0117 11.1035 17.041C10.6738 17.0605 10.5078 17.4414 10.5566 17.7637C10.6934 18.9258 11.5723 19.8047 12.8125 19.8047C14.0723 19.8047 15.0586 18.8574 15.0586 17.5293C15.0586 15.5957 13.0762 14.5312 9.55078 14.5312C8.03711 14.5312 6.34766 14.834 4.9707 15.3223ZM15.4297 10.9277C15.3613 11.3086 15.6055 11.6016 15.918 11.6406C16.25 11.6797 16.543 11.4648 16.6113 11.0742C16.7285 10.2539 17.373 9.66797 18.2129 9.66797C19.1699 9.66797 19.8926 10.3613 19.8926 11.3574C19.8926 12.3926 19.1211 13.0566 17.832 13.0566C15.4102 13.0566 12.793 11.6699 9.56055 11.6699C7.91016 11.6699 6.38672 11.9727 4.9707 12.4805C4.61914 12.6074 4.46289 12.9395 4.57031 13.2422C4.6582 13.5645 4.99023 13.7402 5.37109 13.6035C6.64062 13.0859 7.97852 12.8711 9.56055 12.8711C12.7051 12.8711 15.1172 14.2578 17.832 14.2578C19.7559 14.2578 21.0938 13.0469 21.0938 11.3574C21.0938 9.7168 19.8047 8.47656 18.2129 8.47656C16.7285 8.47656 15.5957 9.55078 15.4297 10.9277ZM10.7617 7.1582C10.6445 7.44141 10.7227 7.8125 11.0547 7.93945C11.3477 8.06641 11.6797 7.94922 11.8457 7.59766C12.002 7.17773 12.3926 6.8457 12.9102 6.8457C13.5449 6.8457 14.0039 7.27539 14.0039 7.96875C14.0039 8.66211 13.5449 9.0918 12.8027 9.0918C11.4258 9.0918 10.3613 8.81836 8.76953 8.81836C7.4707 8.81836 6.14258 9.08203 4.98047 9.49219C4.59961 9.59961 4.46289 9.94141 4.57031 10.2441C4.66797 10.5566 5 10.7324 5.36133 10.6152C6.47461 10.2148 7.62695 10.0195 8.76953 10.0195C10.2832 10.0195 11.3574 10.2637 12.8027 10.2637C14.248 10.2637 15.2051 9.27734 15.2051 7.96875C15.2051 6.64062 14.1699 5.66406 12.9102 5.66406C11.9141 5.66406 11.0645 6.30859 10.7617 7.1582Z" fill="var(--color-primary)"/>
 </g>
</svg>
