<svg version="1.1" xmlns="http://www.w3.org/2000/svg" xmlns:xlink="http://www.w3.org/1999/xlink" width="25.8008" height="25.459" viewBox="0 0 25.8008 25.459">
 <g>
  <rect height="25.459" opacity="0" width="25.8008" x="0" y="0"/>
  <path d="M25.4395 12.7246C25.4395 19.6777 19.6777 25.4395 12.7148 25.4395C5.76172 25.4395 0 19.6777 0 12.7246C0 5.76172 5.75195 0 12.7051 0C19.668 0 25.4395 5.76172 25.4395 12.7246ZM16.1816 7.40234L15.5859 11.9336L14.3652 11.9336L13.5547 7.51953C13.4863 7.06055 13.1152 6.80664 12.7051 6.80664C12.2949 6.80664 11.9434 7.06055 11.875 7.5293L11.0645 11.9434L9.86328 11.9434L9.28711 7.41211C9.22852 7.01172 8.92578 6.79688 8.56445 6.79688C8.13477 6.79688 7.83203 7.05078 7.83203 7.46094C7.83203 7.58789 7.86133 7.70508 7.88086 7.83203L8.52539 11.9434L7.95898 11.9434C7.62695 11.9434 7.38281 12.1875 7.38281 12.5195C7.38281 12.832 7.62695 13.0957 7.95898 13.0957L8.71094 13.0957L9.53125 18.3008C9.59961 18.7402 9.92188 18.9941 10.3223 18.9941C10.7422 18.9941 11.0547 18.7695 11.1328 18.3105L12.0703 13.0859L13.3691 13.0859L14.3262 18.3105C14.3945 18.7598 14.7168 18.9941 15.1367 18.9941C15.5273 18.9941 15.8594 18.75 15.9277 18.3008L16.7383 13.0859L17.4707 13.0859C17.8125 13.0859 18.0469 12.8223 18.0469 12.5098C18.0469 12.1777 17.8125 11.9336 17.4707 11.9336L16.9238 11.9336L17.5684 7.75391C17.5879 7.63672 17.6074 7.54883 17.6074 7.43164C17.6074 7.04102 17.3047 6.79688 16.8945 6.79688C16.5527 6.79688 16.2402 7.00195 16.1816 7.40234ZM15.0879 16.2695L14.5508 13.0762L15.459 13.0762ZM10.3711 16.2109L10.0195 13.0762L10.8887 13.0762ZM13.1738 11.9434L12.2754 11.9434L12.7246 9.25781Z" fill="currentColor"/>
 </g>
</svg>
