<svg version="1.1" xmlns="http://www.w3.org/2000/svg" xmlns:xlink="http://www.w3.org/1999/xlink" width="28.2246" height="25.459" viewBox="0 0 28.2246 25.459">
 <g>
  <rect height="25.459" opacity="0" width="28.2246" x="0" y="0"/>
  <path d="M15.1475 25.4395C22.1104 25.4395 27.8623 19.6777 27.8623 12.7246C27.8623 5.76172 22.1104 0 15.1475 0C8.18458 0 2.43263 5.75195 2.43263 12.7148L4.24904 12.7148C4.24904 6.66992 9.10255 1.83594 15.1475 1.83594C21.1826 1.83594 26.0459 6.67969 26.0459 12.7246C26.0459 18.7598 21.1826 23.6426 15.1475 23.623C11.4072 23.6133 8.13576 21.7383 6.18263 18.877C5.86037 18.4375 5.34279 18.3008 4.90333 18.5742C4.47365 18.8281 4.34669 19.4141 4.70802 19.8926C7.08107 23.1836 10.8408 25.4395 15.1475 25.4395ZM0.801772 10.3613C0.000990731 10.3613-0.223619 10.9082 0.235366 11.543L3.0088 15.4883C3.3799 16.0254 3.91701 16.0156 4.27833 15.4883L7.05177 11.5332C7.49123 10.9082 7.27638 10.3613 6.48537 10.3613Z" fill="var(--color-secondary)"/>
  <path d="M9.95216 12.5293C9.95216 12.832 10.1865 13.0859 10.5088 13.0859L11.2412 13.0859L12.042 18.1641C12.1104 18.5938 12.4229 18.8281 12.8233 18.8281C13.2139 18.8281 13.5264 18.6133 13.5947 18.1836L14.5127 13.0762L15.792 13.0762L16.7295 18.1836C16.7979 18.6133 17.1104 18.8281 17.5108 18.8281C17.8916 18.8281 18.2139 18.5938 18.2822 18.1738L19.0733 13.0762L19.7861 13.0762C20.1182 13.0762 20.3428 12.8223 20.3428 12.5195C20.3428 12.1973 20.1182 11.9629 19.7861 11.9629L19.249 11.9629L19.874 7.88086C19.8936 7.76367 19.9131 7.67578 19.9131 7.56836C19.9131 7.1875 19.6299 6.95312 19.2393 6.95312C18.8975 6.95312 18.5947 7.14844 18.5459 7.53906L17.9502 11.9629L16.7588 11.9629L15.958 7.64648C15.8897 7.20703 15.5381 6.96289 15.1377 6.96289C14.7373 6.96289 14.4053 7.20703 14.3369 7.65625L13.5361 11.9727L12.3643 11.9727L11.7979 7.54883C11.749 7.1582 11.4463 6.95312 11.0947 6.95312C10.6944 6.95312 10.3916 7.19727 10.3916 7.58789C10.3916 7.71484 10.4209 7.83203 10.4404 7.94922L11.0654 11.9727L10.5088 11.9727C10.1865 11.9727 9.95216 12.207 9.95216 12.5293ZM12.5108 13.0664L13.3701 13.0664L12.8623 16.1328ZM14.7178 11.9727L15.1572 9.35547L15.5967 11.9727ZM16.9346 13.0664L17.833 13.0664L17.4619 16.1914Z" fill="var(--color-primary)"/>
 </g>
</svg>
