<svg version="1.1" xmlns="http://www.w3.org/2000/svg" xmlns:xlink="http://www.w3.org/1999/xlink" width="25.8008" height="25.459" viewBox="0 0 25.8008 25.459">
 <g>
  <rect height="25.459" opacity="0" width="25.8008" x="0" y="0"/>
  <path d="M12.7148 25.4395C19.6777 25.4395 25.4395 19.6777 25.4395 12.7246C25.4395 5.76172 19.668 0 12.7051 0C5.75195 0 0 5.76172 0 12.7246C0 19.6777 5.76172 25.4395 12.7148 25.4395Z" fill="var(--color-tertiary)"/>
  <path d="M7.38281 12.5195C7.38281 12.1875 7.62695 11.9434 7.95898 11.9434L8.52539 11.9434L7.88086 7.83203C7.86133 7.70508 7.83203 7.58789 7.83203 7.46094C7.83203 7.05078 8.13477 6.79688 8.56445 6.79688C8.92578 6.79688 9.22852 7.01172 9.28711 7.41211L9.86328 11.9434L11.0645 11.9434L11.875 7.5293C11.9434 7.06055 12.2949 6.80664 12.7051 6.80664C13.1152 6.80664 13.4863 7.06055 13.5547 7.51953L14.3652 11.9336L15.5859 11.9336L16.1816 7.40234C16.2402 7.00195 16.5527 6.79688 16.8945 6.79688C17.3047 6.79688 17.6074 7.04102 17.6074 7.43164C17.6074 7.54883 17.5879 7.63672 17.5684 7.75391L16.9238 11.9336L17.4707 11.9336C17.8125 11.9336 18.0469 12.1777 18.0469 12.5098C18.0469 12.8223 17.8125 13.0859 17.4707 13.0859L16.7383 13.0859L15.9277 18.3008C15.8594 18.75 15.5273 18.9941 15.1367 18.9941C14.7168 18.9941 14.3945 18.7598 14.3262 18.3105L13.3691 13.0859L12.0703 13.0859L11.1328 18.3105C11.0547 18.7695 10.7422 18.9941 10.3223 18.9941C9.92188 18.9941 9.59961 18.7402 9.53125 18.3008L8.71094 13.0957L7.95898 13.0957C7.62695 13.0957 7.38281 12.832 7.38281 12.5195ZM10.0195 13.0762L10.3711 16.2109L10.8887 13.0762ZM12.2754 11.9434L13.1738 11.9434L12.7246 9.25781ZM14.5508 13.0762L15.0879 16.2695L15.459 13.0762Z" fill="var(--color-primary)"/>
 </g>
</svg>
