<?xml version="1.0" encoding="UTF-8"?>
<!--Generator: Apple Native CoreSVG 232.5-->
<!DOCTYPE svg
PUBLIC "-//W3C//DTD SVG 1.1//EN"
       "http://www.w3.org/Graphics/SVG/1.1/DTD/svg11.dtd">
<svg version="1.1" xmlns="http://www.w3.org/2000/svg" xmlns:xlink="http://www.w3.org/1999/xlink" width="23.2715" height="22.9199">
 <g>
  <rect height="22.9199" opacity="0" width="23.2715" x="0" y="0"/>
  <path d="M21.4844 1.44531C20.2637 0.234375 18.5742 0 16.3379 0L6.50391 0C4.3457 0 2.64648 0.234375 1.43555 1.44531C0.224609 2.65625 0 4.33594 0 6.50391L0 16.3379C0 18.584 0.214844 20.2637 1.42578 21.4648C2.64648 22.6758 4.33594 22.9102 6.57227 22.9102L16.3379 22.9102C18.5742 22.9102 20.2734 22.6758 21.4844 21.4648C22.6953 20.2539 22.9102 18.584 22.9102 16.3379L22.9102 6.5625C22.9102 4.32617 22.6953 2.64648 21.4844 1.44531Z" fill="#ffffff" fill-opacity="0.25"/>
  <path d="M7.19727 16.6113C6.70898 16.6113 6.30859 16.2109 6.30859 15.7031C6.30859 15.4688 6.39648 15.2441 6.57227 15.0684L10.1758 11.4648L6.57227 7.86133C6.39648 7.68555 6.30859 7.4707 6.30859 7.22656C6.30859 6.72852 6.70898 6.34766 7.19727 6.34766C7.46094 6.34766 7.64648 6.43555 7.83203 6.61133L11.4453 10.2148L15.0781 6.60156C15.2637 6.40625 15.4688 6.32812 15.7031 6.32812C16.2012 6.32812 16.6016 6.71875 16.6016 7.20703C16.6016 7.46094 16.5234 7.65625 16.3281 7.85156L12.7148 11.4648L16.3184 15.0586C16.5039 15.2344 16.5918 15.459 16.5918 15.7031C16.5918 16.2109 16.1914 16.6113 15.6836 16.6113C15.4297 16.6113 15.2051 16.5137 15.0293 16.3379L11.4453 12.7344L7.86133 16.3379C7.67578 16.5137 7.46094 16.6113 7.19727 16.6113Z" fill="#ffffff" fill-opacity="0.85"/>
 </g>
</svg>
