<svg version="1.1" xmlns="http://www.w3.org/2000/svg" xmlns:xlink="http://www.w3.org/1999/xlink" width="23.3203" height="22.9785" viewBox="0 0 23.3203 22.9785">
 <g>
  <rect height="22.9785" opacity="0" width="23.3203" x="0" y="0"/>
  <path d="M22.959 3.78906L22.959 19.2188C22.959 21.709 21.6797 22.9785 19.1504 22.9785L3.79883 22.9785C1.2793 22.9785 0 21.7188 0 19.2188L0 3.78906C0 1.28906 1.2793 0.0292969 3.79883 0.0292969L19.1504 0.0292969C21.6797 0.0292969 22.959 1.29883 22.959 3.78906ZM14.6289 5.9668L11.5332 11.0254L11.4551 11.0254L8.35938 5.9668C8.125 5.54688 7.91016 5.41016 7.51953 5.41016C7.05078 5.41016 6.68945 5.76172 6.68945 6.19141C6.68945 6.36719 6.74805 6.54297 6.85547 6.71875L10.5957 12.7344L10.5957 16.377C10.5957 16.9727 10.9082 17.373 11.4746 17.373C12.0605 17.373 12.3828 17.002 12.3828 16.377L12.3828 12.7148L16.1035 6.71875C16.2109 6.5625 16.2598 6.37695 16.2598 6.21094C16.2598 5.75195 15.9277 5.41016 15.4492 5.41016C15.0684 5.41016 14.8535 5.55664 14.6289 5.9668Z" fill="var(--color-primary)"/>
 </g>
</svg>
