<?xml version="1.0" encoding="UTF-8"?>
<!--Generator: Apple Native CoreSVG 232.5-->
<!DOCTYPE svg
PUBLIC "-//W3C//DTD SVG 1.1//EN"
       "http://www.w3.org/Graphics/SVG/1.1/DTD/svg11.dtd">
<svg version="1.1" xmlns="http://www.w3.org/2000/svg" xmlns:xlink="http://www.w3.org/1999/xlink" width="28.9941" height="21.6504">
 <g>
  <rect height="21.6504" opacity="0" width="28.9941" x="0" y="0"/>
  <path d="M10.2441 0C3.10547 0 0 3.31055 0 9.99023L0 17.959C0 20.3906 1.25977 21.6309 3.71094 21.6309L24.9316 21.6309C27.373 21.6309 28.6328 20.3809 28.6328 17.959L28.6328 9.99023C28.6328 3.31055 25.5371 0 18.3887 0Z" fill="#ffffff" fill-opacity="0.25"/>
  <path d="M8.93555 15.9375C8.45703 15.9375 8.125 15.6543 8.125 15.166C8.125 14.9121 8.18359 14.7363 8.31055 14.4922L12.2461 7.2168L12.2461 7.13867L8.82812 7.13867C8.44727 7.13867 8.13477 6.83594 8.13477 6.46484C8.13477 6.10352 8.44727 5.79102 8.82812 5.79102L13.2031 5.79102C13.7012 5.79102 14.0234 6.11328 14.0234 6.57227C14.0234 6.8457 13.9355 7.02148 13.8184 7.23633L9.93164 14.502L9.93164 14.5801L13.4961 14.5801C13.8574 14.5801 14.1699 14.8926 14.1699 15.2539C14.1699 15.625 13.8574 15.9375 13.4961 15.9375ZM16.6211 15.9082C16.123 15.9082 15.8301 15.5859 15.8301 15.0684L15.8301 6.42578C15.8301 5.98633 16.1914 5.625 16.6406 5.625C17.0605 5.625 17.4316 5.98633 17.4316 6.42578L17.4316 14.541L20.2637 14.541C20.6348 14.541 20.9473 14.8535 20.9473 15.2246C20.9473 15.5957 20.6348 15.9082 20.2637 15.9082Z" fill="#ffffff" fill-opacity="0.85"/>
 </g>
</svg>
