<?xml version="1.0" encoding="UTF-8"?>
<!--Generator: Apple Native CoreSVG 326-->
<!DOCTYPE svg
PUBLIC "-//W3C//DTD SVG 1.1//EN"
       "http://www.w3.org/Graphics/SVG/1.1/DTD/svg11.dtd">
<svg version="1.1" xmlns="http://www.w3.org/2000/svg" xmlns:xlink="http://www.w3.org/1999/xlink" viewBox="0 0 14.5898 14.248">
 <g>
  <rect height="14.248" opacity="0" width="14.5898" x="0" y="0"/>
  <path d="M14.2285 2.4707L14.2285 11.7871C14.2285 13.4277 13.4082 14.248 11.7383 14.248L2.49023 14.248C0.830078 14.248 0 13.4277 0 11.7871L0 2.4707C0 0.830078 0.830078 0.00976562 2.49023 0.00976562L11.7383 0.00976562C13.4082 0.00976562 14.2285 0.830078 14.2285 2.4707ZM4.23828 7.11914C4.23828 9.41406 5.39062 10.9375 7.11914 10.9375C8.84766 10.9375 10 9.41406 10 7.11914C10 4.82422 8.84766 3.30078 7.11914 3.30078C5.39062 3.30078 4.23828 4.82422 4.23828 7.11914ZM8.61328 7.11914C8.61328 8.7207 8.00781 9.78516 7.11914 9.78516C6.2207 9.78516 5.61523 8.7207 5.61523 7.11914C5.61523 5.51758 6.2207 4.45312 7.11914 4.45312C8.00781 4.45312 8.61328 5.51758 8.61328 7.11914Z" fill="white" fill-opacity="0.85"/>
 </g>
</svg>
