<?xml version="1.0" encoding="UTF-8"?>
<!--Generator: Apple Native CoreSVG 326-->
<!DOCTYPE svg
PUBLIC "-//W3C//DTD SVG 1.1//EN"
       "http://www.w3.org/Graphics/SVG/1.1/DTD/svg11.dtd">
<svg version="1.1" xmlns="http://www.w3.org/2000/svg" xmlns:xlink="http://www.w3.org/1999/xlink" viewBox="0 0 16.1328 15.7715">
 <g>
  <rect height="15.7715" opacity="0" width="16.1328" x="0" y="0"/>
  <path d="M15.7715 7.88086C15.7715 12.2266 12.2363 15.7617 7.88086 15.7617C3.53516 15.7617 0 12.2266 0 7.88086C0 3.53516 3.53516 0 7.88086 0C12.2363 0 15.7715 3.53516 15.7715 7.88086ZM3.32031 7.88086C3.32031 9.53125 3.81836 11.2598 5.43945 11.2598C7.05078 11.2598 7.55859 9.53125 7.55859 7.88086C7.55859 6.23047 7.05078 4.50195 5.43945 4.50195C3.81836 4.50195 3.32031 6.23047 3.32031 7.88086ZM8.39844 6.16211C8.39844 6.49414 8.59375 6.71875 8.93555 6.71875C9.22852 6.71875 9.41406 6.5918 9.50195 6.29883C9.66797 5.82031 9.83398 5.51758 10.2441 5.51758C10.6641 5.51758 10.918 5.87891 10.918 6.42578C10.918 7.07031 10.4297 7.74414 10.0293 8.24219L8.74023 9.86328C8.56445 10.0586 8.38867 10.2832 8.38867 10.5762C8.38867 10.8691 8.58398 11.0938 8.99414 11.0938L11.7578 11.0938C12.0703 11.0938 12.2559 10.8887 12.2559 10.5762C12.2559 10.2344 12.0605 10.0488 11.7578 10.0488L9.9707 10.0488L9.9707 9.98047L11.0352 8.67188C11.8652 7.65625 12.1387 7.08008 12.1387 6.36719C12.1387 5.27344 11.3672 4.50195 10.2539 4.50195C9.21875 4.50195 8.39844 5.3418 8.39844 6.16211ZM6.25 7.88086C6.25 9.31641 5.99609 10.2148 5.43945 10.2148C4.88281 10.2148 4.62891 9.31641 4.62891 7.88086C4.62891 6.44531 4.88281 5.54688 5.43945 5.54688C5.99609 5.54688 6.25 6.44531 6.25 7.88086Z" fill="white" fill-opacity="0.85"/>
 </g>
</svg>
