<?xml version="1.0" encoding="UTF-8"?>
<!--Generator: Apple Native CoreSVG 326-->
<!DOCTYPE svg
PUBLIC "-//W3C//DTD SVG 1.1//EN"
       "http://www.w3.org/Graphics/SVG/1.1/DTD/svg11.dtd">
<svg version="1.1" xmlns="http://www.w3.org/2000/svg" xmlns:xlink="http://www.w3.org/1999/xlink" viewBox="0 0 16.1328 15.7715">
 <g>
  <rect height="15.7715" opacity="0" width="16.1328" x="0" y="0"/>
  <path d="M15.7715 7.88086C15.7715 12.2266 12.2363 15.7617 7.88086 15.7617C3.53516 15.7617 0 12.2266 0 7.88086C0 3.53516 3.53516 0 7.88086 0C12.2363 0 15.7715 3.53516 15.7715 7.88086ZM3.24219 7.88086C3.24219 9.53125 3.75 11.2598 5.36133 11.2598C6.98242 11.2598 7.49023 9.53125 7.49023 7.88086C7.49023 6.23047 6.98242 4.50195 5.36133 4.50195C3.75 4.50195 3.24219 6.23047 3.24219 7.88086ZM9.41406 4.67773C8.96484 4.67773 8.75977 4.98047 8.73047 5.41992L8.61328 7.5C8.60352 7.62695 8.59375 7.73438 8.59375 7.86133C8.59375 8.19336 8.76953 8.49609 9.17969 8.49609C9.4043 8.49609 9.55078 8.4082 9.73633 8.17383C9.90234 7.93945 10.0781 7.7832 10.3711 7.7832C10.9082 7.7832 11.1035 8.4375 11.1035 8.97461C11.1035 9.59961 10.8984 10.2344 10.3613 10.2344C9.96094 10.2344 9.73633 9.95117 9.58984 9.56055C9.48242 9.29688 9.28711 9.15039 9.05273 9.15039C8.73047 9.15039 8.51562 9.35547 8.51562 9.67773C8.51562 9.89258 8.56445 10.0781 8.64258 10.2539C8.94531 10.8691 9.67773 11.2598 10.3809 11.2598C11.6406 11.2598 12.3438 10.2344 12.3438 8.94531C12.3438 7.85156 11.8262 6.85547 10.8008 6.85547C10.3223 6.85547 9.90234 7.07031 9.7168 7.51953L9.67773 7.51953L9.78516 5.72266L11.6113 5.72266C11.9141 5.72266 12.0996 5.50781 12.0996 5.19531C12.0996 4.90234 11.9043 4.67773 11.6113 4.67773ZM6.17188 7.88086C6.17188 9.31641 5.91797 10.2148 5.36133 10.2148C4.80469 10.2148 4.55078 9.31641 4.55078 7.88086C4.55078 6.44531 4.80469 5.54688 5.36133 5.54688C5.91797 5.54688 6.17188 6.44531 6.17188 7.88086Z" fill="white" fill-opacity="0.85"/>
 </g>
</svg>
