<svg version="1.1" xmlns="http://www.w3.org/2000/svg" xmlns:xlink="http://www.w3.org/1999/xlink" viewBox="0 0 16.1328 15.7715">
 <g>
  <rect height="15.7715" opacity="0" width="16.1328" x="0" y="0"/>
  <path d="M7.88086 15.7617C12.2363 15.7617 15.7715 12.2363 15.7715 7.88086C15.7715 3.52539 12.2363 0 7.88086 0C3.53516 0 0 3.52539 0 7.88086C0 12.2363 3.53516 15.7617 7.88086 15.7617ZM7.88086 14.2773C4.3457 14.2773 1.49414 11.416 1.49414 7.88086C1.49414 4.3457 4.3457 1.48438 7.88086 1.48438C11.416 1.48438 14.2773 4.3457 14.2773 7.88086C14.2773 11.416 11.416 14.2773 7.88086 14.2773Z" fill="var(--color-primary)"/>
  <path d="M5.71289 11.1426C7.26562 11.1426 7.75391 9.46289 7.75391 7.88086C7.75391 6.29883 7.26562 4.61914 5.71289 4.61914C4.16016 4.61914 3.67188 6.29883 3.67188 7.88086C3.67188 9.46289 4.16016 11.1426 5.71289 11.1426ZM5.71289 10.127C5.17578 10.127 4.93164 9.25781 4.93164 7.88086C4.93164 6.50391 5.17578 5.63477 5.71289 5.63477C6.25 5.63477 6.50391 6.50391 6.50391 7.88086C6.50391 9.25781 6.25 10.127 5.71289 10.127ZM9.57031 11.084C9.88281 11.084 10.0293 10.957 10.1367 10.6543L11.8262 6.16211C11.9238 5.89844 11.9922 5.69336 11.9922 5.43945C11.9922 5.04883 11.6895 4.79492 11.3184 4.79492L8.85742 4.79492C8.56445 4.79492 8.36914 5 8.36914 5.29297C8.36914 5.58594 8.56445 5.80078 8.85742 5.80078L10.7324 5.80078L10.7324 5.86914L9.11133 10.0586C9.0332 10.2539 9.00391 10.3516 9.00391 10.5566C9.00391 10.8008 9.16016 11.084 9.57031 11.084Z" fill="var(--color-primary)"/>
 </g>
</svg>
