<?xml version="1.0" encoding="UTF-8"?>
<!--Generator: Apple Native CoreSVG 326-->
<!DOCTYPE svg
PUBLIC "-//W3C//DTD SVG 1.1//EN"
       "http://www.w3.org/Graphics/SVG/1.1/DTD/svg11.dtd">
<svg version="1.1" xmlns="http://www.w3.org/2000/svg" xmlns:xlink="http://www.w3.org/1999/xlink" viewBox="0 0 16.1328 15.7715">
 <g>
  <rect height="15.7715" opacity="0" width="16.1328" x="0" y="0"/>
  <path d="M15.7715 7.88086C15.7715 12.2266 12.2363 15.7617 7.88086 15.7617C3.53516 15.7617 0 12.2266 0 7.88086C0 3.53516 3.53516 0 7.88086 0C12.2363 0 15.7715 3.53516 15.7715 7.88086ZM7.35352 4.41406L5.98633 5.35156C5.79102 5.49805 5.71289 5.625 5.71289 5.85938C5.71289 6.13281 5.92773 6.38672 6.21094 6.38672C6.34766 6.38672 6.44531 6.36719 6.66016 6.2207L7.56836 5.61523L7.61719 5.61523L7.61719 10.8789C7.61719 11.3965 7.88086 11.6992 8.33984 11.6992C8.80859 11.6992 9.07227 11.3965 9.07227 10.8789L9.07227 4.88281C9.07227 4.35547 8.78906 4.0625 8.30078 4.0625C7.96875 4.0625 7.73438 4.15039 7.35352 4.41406Z" fill="white" fill-opacity="0.85"/>
 </g>
</svg>
