<?xml version="1.0" encoding="UTF-8"?>
<!--Generator: Apple Native CoreSVG 326-->
<!DOCTYPE svg
PUBLIC "-//W3C//DTD SVG 1.1//EN"
       "http://www.w3.org/Graphics/SVG/1.1/DTD/svg11.dtd">
<svg version="1.1" xmlns="http://www.w3.org/2000/svg" xmlns:xlink="http://www.w3.org/1999/xlink" viewBox="0 0 14.5898 14.248">
 <g>
  <rect height="14.248" opacity="0" width="14.5898" x="0" y="0"/>
  <path d="M14.2285 2.4707L14.2285 11.7871C14.2285 13.4277 13.4082 14.248 11.7383 14.248L2.49023 14.248C0.830078 14.248 0 13.4277 0 11.7871L0 2.4707C0 0.830078 0.830078 0.00976562 2.49023 0.00976562L11.7383 0.00976562C13.4082 0.00976562 14.2285 0.830078 14.2285 2.4707ZM6.92383 7.11914C6.92383 8.76953 7.43164 10.498 9.04297 10.498C10.6543 10.498 11.1621 8.76953 11.1621 7.11914C11.1621 5.46875 10.6543 3.74023 9.04297 3.74023C7.43164 3.74023 6.92383 5.46875 6.92383 7.11914ZM4.0332 4.16016L3.21289 4.78516C3.05664 4.90234 2.92969 5.07812 2.92969 5.3125C2.92969 5.58594 3.11523 5.78125 3.37891 5.78125C3.51562 5.78125 3.60352 5.74219 3.70117 5.66406L4.36523 5.13672L4.36523 9.76562C4.36523 10.127 4.64844 10.4199 5.01953 10.4199C5.37109 10.4199 5.67383 10.127 5.67383 9.76562L5.67383 4.53125C5.67383 4.0625 5.38086 3.79883 4.92188 3.79883C4.54102 3.79883 4.23828 4.00391 4.0332 4.16016ZM9.85352 7.11914C9.85352 8.55469 9.59961 9.45312 9.04297 9.45312C8.48633 9.45312 8.23242 8.55469 8.23242 7.11914C8.23242 5.68359 8.48633 4.78516 9.04297 4.78516C9.59961 4.78516 9.85352 5.68359 9.85352 7.11914Z" fill="white" fill-opacity="0.85"/>
 </g>
</svg>
