<?xml version="1.0" encoding="UTF-8"?>
<!--Generator: Apple Native CoreSVG 326-->
<!DOCTYPE svg
PUBLIC "-//W3C//DTD SVG 1.1//EN"
       "http://www.w3.org/Graphics/SVG/1.1/DTD/svg11.dtd">
<svg version="1.1" xmlns="http://www.w3.org/2000/svg" xmlns:xlink="http://www.w3.org/1999/xlink" viewBox="0 0 14.5898 14.248">
 <g>
  <rect height="14.248" opacity="0" width="14.5898" x="0" y="0"/>
  <path d="M14.2285 2.4707L14.2285 11.7871C14.2285 13.4277 13.4082 14.248 11.7383 14.248L2.49023 14.248C0.830078 14.248 0 13.4277 0 11.7871L0 2.4707C0 0.830078 0.830078 0.00976562 2.49023 0.00976562L11.7383 0.00976562C13.4082 0.00976562 14.2285 0.830078 14.2285 2.4707ZM4.04297 4.16992L3.22266 4.78516C3.06641 4.90234 2.92969 5.07812 2.92969 5.3125C2.92969 5.58594 3.11523 5.78125 3.38867 5.78125C3.52539 5.78125 3.61328 5.74219 3.70117 5.67383L4.36523 5.13672L4.36523 9.77539C4.36523 10.127 4.6582 10.4199 5.0293 10.4199C5.38086 10.4199 5.67383 10.127 5.67383 9.77539L5.67383 4.53125C5.67383 4.0625 5.39062 3.79883 4.91211 3.79883C4.55078 3.79883 4.24805 4.00391 4.04297 4.16992ZM6.88477 5.40039C6.88477 5.73242 7.08984 5.9668 7.42188 5.9668C7.71484 5.9668 7.89062 5.83008 7.98828 5.53711C8.14453 5.05859 8.32031 4.75586 8.73047 4.75586C9.15039 4.75586 9.4043 5.11719 9.4043 5.66406C9.4043 6.30859 8.91602 6.98242 8.51562 7.48047L7.22656 9.10156C7.05078 9.30664 6.875 9.53125 6.875 9.81445C6.875 10.1074 7.07031 10.332 7.48047 10.332L10.2441 10.332C10.5566 10.332 10.752 10.127 10.752 9.81445C10.752 9.47266 10.5469 9.29688 10.2441 9.29688L8.45703 9.29688L8.45703 9.21875L9.52148 7.91016C10.3613 6.89453 10.6348 6.31836 10.6348 5.60547C10.6348 4.51172 9.85352 3.74023 8.74023 3.74023C7.69531 3.74023 6.88477 4.58008 6.88477 5.40039Z" fill="white" fill-opacity="0.85"/>
 </g>
</svg>
