<?xml version="1.0" encoding="UTF-8"?>
<!--Generator: Apple Native CoreSVG 326-->
<!DOCTYPE svg
PUBLIC "-//W3C//DTD SVG 1.1//EN"
       "http://www.w3.org/Graphics/SVG/1.1/DTD/svg11.dtd">
<svg version="1.1" xmlns="http://www.w3.org/2000/svg" xmlns:xlink="http://www.w3.org/1999/xlink" viewBox="0 0 14.5898 14.248">
 <g>
  <rect height="14.248" opacity="0" width="14.5898" x="0" y="0"/>
  <path d="M2.49023 14.248L11.7383 14.248C13.4082 14.248 14.2285 13.4277 14.2285 11.7871L14.2285 2.4707C14.2285 0.830078 13.4082 0.00976562 11.7383 0.00976562L2.49023 0.00976562C0.830078 0.00976562 0 0.830078 0 2.4707L0 11.7871C0 13.4277 0.830078 14.248 2.49023 14.248ZM2.50977 12.832C1.80664 12.832 1.40625 12.4512 1.40625 11.7188L1.40625 2.53906C1.40625 1.79688 1.80664 1.42578 2.50977 1.42578L11.7188 1.42578C12.4219 1.42578 12.8223 1.79688 12.8223 2.53906L12.8223 11.7188C12.8223 12.4512 12.4219 12.832 11.7188 12.832Z" fill="white" fill-opacity="0.85"/>
  <path d="M5.09766 10.3027C5.42969 10.3027 5.71289 10.0195 5.71289 9.66797L5.71289 4.62891C5.71289 4.16992 5.43945 3.91602 4.99023 3.91602C4.62891 3.91602 4.33594 4.12109 4.14062 4.26758L3.34961 4.87305C3.20312 4.98047 3.07617 5.15625 3.07617 5.38086C3.07617 5.64453 3.26172 5.83008 3.51562 5.83008C3.64258 5.83008 3.73047 5.79102 3.81836 5.72266L4.46289 5.20508L4.46289 9.66797C4.46289 10.0195 4.74609 10.3027 5.09766 10.3027ZM7.45117 10.2148L10.1172 10.2148C10.4199 10.2148 10.6055 10.0195 10.6055 9.7168C10.6055 9.39453 10.4102 9.20898 10.1172 9.20898L8.38867 9.20898L8.38867 9.15039L9.42383 7.89062C10.2344 6.9043 10.4883 6.33789 10.4883 5.66406C10.4883 4.59961 9.74609 3.85742 8.66211 3.85742C7.66602 3.85742 6.88477 4.66797 6.88477 5.45898C6.88477 5.78125 7.08008 6.00586 7.40234 6.00586C7.68555 6.00586 7.85156 5.87891 7.94922 5.5957C8.0957 5.12695 8.26172 4.84375 8.66211 4.84375C9.0625 4.84375 9.31641 5.19531 9.31641 5.72266C9.31641 6.33789 8.83789 6.98242 8.45703 7.4707L7.20703 9.02344C7.05078 9.22852 6.875 9.44336 6.875 9.7168C6.875 10 7.06055 10.2148 7.45117 10.2148Z" fill="white" fill-opacity="0.85"/>
 </g>
</svg>
