<?xml version="1.0" encoding="UTF-8"?>
<!--Generator: Apple Native CoreSVG 326-->
<!DOCTYPE svg
PUBLIC "-//W3C//DTD SVG 1.1//EN"
       "http://www.w3.org/Graphics/SVG/1.1/DTD/svg11.dtd">
<svg version="1.1" xmlns="http://www.w3.org/2000/svg" xmlns:xlink="http://www.w3.org/1999/xlink" viewBox="0 0 16.1328 15.7715">
 <g>
  <rect height="15.7715" opacity="0" width="16.1328" x="0" y="0"/>
  <path d="M15.7715 7.88086C15.7715 12.2266 12.2363 15.7617 7.88086 15.7617C3.53516 15.7617 0 12.2266 0 7.88086C0 3.53516 3.53516 0 7.88086 0C12.2363 0 15.7715 3.53516 15.7715 7.88086ZM8.83789 5.43945L7.53906 8.33984C7.39258 8.68164 7.34375 8.90625 7.34375 9.17969C7.34375 9.60938 7.63672 9.90234 8.06641 9.90234L9.77539 9.90234L9.77539 10.5664C9.77539 11.0352 10.1074 11.2012 10.3809 11.2012C10.7227 11.2012 10.9961 11.0059 10.9961 10.5664L10.9961 9.90234L11.2305 9.90234C11.5723 9.90234 11.7285 9.66797 11.7285 9.375C11.7285 9.0918 11.582 8.86719 11.2305 8.86719L10.9961 8.86719L10.9961 5.52734C10.9961 4.92188 10.5957 4.58008 10.0098 4.58008C9.375 4.58008 9.08203 4.89258 8.83789 5.43945ZM4.52148 4.92188L3.70117 5.54688C3.54492 5.66406 3.4082 5.83984 3.4082 6.07422C3.4082 6.34766 3.59375 6.54297 3.86719 6.54297C4.00391 6.54297 4.0918 6.50391 4.17969 6.42578L4.84375 5.89844L4.84375 10.5273C4.84375 10.8887 5.13672 11.1816 5.50781 11.1816C5.85938 11.1816 6.15234 10.8887 6.15234 10.5273L6.15234 5.29297C6.15234 4.82422 5.86914 4.56055 5.39062 4.56055C5.0293 4.56055 4.72656 4.76562 4.52148 4.92188ZM9.80469 8.89648L8.4375 8.89648L8.4375 8.83789L9.77539 5.66406L9.80469 5.66406Z" fill="white" fill-opacity="0.85"/>
 </g>
</svg>
