<svg version="1.1" xmlns="http://www.w3.org/2000/svg" xmlns:xlink="http://www.w3.org/1999/xlink" viewBox="0 0 16.1328 15.7715">
 <g>
  <rect height="15.7715" opacity="0" width="16.1328" x="0" y="0"/>
  <path d="M15.7715 7.88086C15.7715 12.2266 12.2363 15.7617 7.88086 15.7617C3.53516 15.7617 0 12.2266 0 7.88086C0 3.53516 3.53516 0 7.88086 0C12.2363 0 15.7715 3.53516 15.7715 7.88086ZM8.63281 4.67773C8.17383 4.67773 7.97852 4.9707 7.93945 5.41992L7.82227 7.5C7.8125 7.62695 7.8125 7.73438 7.8125 7.86133C7.8125 8.19336 7.98828 8.49609 8.38867 8.49609C8.62305 8.49609 8.75977 8.4082 8.95508 8.17383C9.12109 7.93945 9.29688 7.7832 9.58984 7.7832C10.127 7.7832 10.3223 8.4375 10.3223 8.97461C10.3223 9.59961 10.1172 10.2344 9.57031 10.2344C9.16016 10.2344 8.95508 9.95117 8.79883 9.55078C8.70117 9.28711 8.50586 9.15039 8.26172 9.15039C7.93945 9.15039 7.73438 9.35547 7.73438 9.67773C7.73438 9.89258 7.7832 10.0781 7.86133 10.2539C8.1543 10.8691 8.88672 11.2598 9.58984 11.2598C10.8594 11.2598 11.5625 10.2344 11.5625 8.94531C11.5625 7.85156 11.0352 6.85547 10.0195 6.85547C9.54102 6.85547 9.12109 7.07031 8.92578 7.50977L8.88672 7.50977L9.00391 5.71289L10.8301 5.71289C11.1328 5.71289 11.3184 5.50781 11.3184 5.19531C11.3184 4.90234 11.123 4.67773 10.8301 4.67773ZM4.6875 4.92188L3.87695 5.54688C3.7207 5.66406 3.59375 5.83984 3.59375 6.07422C3.59375 6.34766 3.7793 6.54297 4.04297 6.54297C4.18945 6.54297 4.26758 6.50391 4.35547 6.42578L5.0293 5.89844L5.0293 10.5273C5.0293 10.8887 5.32227 11.1816 5.67383 11.1816C6.03516 11.1816 6.32812 10.8887 6.32812 10.5273L6.32812 5.29297C6.32812 4.82422 6.04492 4.56055 5.57617 4.56055C5.20508 4.56055 4.89258 4.76562 4.6875 4.92188Z" fill="var(--color-primary)"/>
 </g>
</svg>
