<svg version="1.1" xmlns="http://www.w3.org/2000/svg" xmlns:xlink="http://www.w3.org/1999/xlink" width="16.1328" height="15.7715" viewBox="0 0 16.1328 15.7715">
 <g>
  <rect height="15.7715" opacity="0" width="16.1328" x="0" y="0"/>
  <path d="M7.88086 15.7617C12.1875 15.7617 15.7715 12.1875 15.7715 7.88086C15.7715 3.57422 12.1777 0 7.87109 0C3.57422 0 0 3.57422 0 7.88086C0 12.1875 3.58398 15.7617 7.88086 15.7617Z" fill="var(--color-tertiary)"/>
  <path d="M6.06445 11.5137C5.67383 11.5137 5.42969 11.2793 5.42969 10.9277C5.42969 10.7422 5.51758 10.5664 5.67383 10.3906L8.16406 7.75391C8.59375 7.29492 9.14062 6.80664 9.14062 6.23047C9.14062 5.61523 8.66211 5.20508 7.95898 5.20508C7.22656 5.20508 6.875 5.69336 6.63086 6.09375C6.46484 6.34766 6.30859 6.54297 5.99609 6.54297C5.64453 6.54297 5.41016 6.31836 5.41016 5.97656C5.41016 5.85938 5.41992 5.76172 5.46875 5.63477C5.75195 4.75586 6.75781 4.0625 7.89062 4.0625C9.4043 4.0625 10.4102 4.88281 10.4102 6.10352C10.4102 7.04102 9.87305 7.68555 9.19922 8.39844L7.43164 10.2734L7.43164 10.332L10.166 10.332C10.5176 10.332 10.7715 10.5469 10.7715 10.918C10.7715 11.2793 10.5176 11.5137 10.166 11.5137Z" fill="var(--color-primary)"/>
 </g>
</svg>
