<svg version="1.1" xmlns="http://www.w3.org/2000/svg" xmlns:xlink="http://www.w3.org/1999/xlink" width="14.5898" height="14.248" viewBox="0 0 14.5898 14.248">
 <g>
  <rect height="14.248" opacity="0" width="14.5898" x="0" y="0"/>
  <path d="M2.49023 14.248L11.7383 14.248C13.4082 14.248 14.2285 13.4277 14.2285 11.7871L14.2285 2.4707C14.2285 0.830078 13.4082 0.00976562 11.7383 0.00976562L2.49023 0.00976562C0.830078 0.00976562 0 0.830078 0 2.4707L0 11.7871C0 13.4277 0.830078 14.248 2.49023 14.248Z" fill="var(--color-tertiary)"/>
  <path d="M5.29297 10.752C4.90234 10.752 4.66797 10.5176 4.66797 10.166C4.66797 9.98047 4.74609 9.80469 4.90234 9.62891L7.39258 6.99219C7.83203 6.5332 8.36914 6.04492 8.36914 5.46875C8.36914 4.85352 7.89062 4.44336 7.1875 4.44336C6.46484 4.44336 6.10352 4.93164 5.85938 5.33203C5.70312 5.58594 5.53711 5.78125 5.22461 5.78125C4.87305 5.78125 4.63867 5.55664 4.63867 5.21484C4.63867 5.09766 4.64844 5 4.69727 4.87305C4.98047 3.99414 5.99609 3.30078 7.11914 3.30078C8.63281 3.30078 9.63867 4.12109 9.63867 5.3418C9.63867 6.2793 9.11133 6.92383 8.42773 7.63672L6.66016 9.51172L6.66016 9.57031L9.39453 9.57031C9.74609 9.57031 10 9.78516 10 10.1562C10 10.5176 9.74609 10.752 9.39453 10.752Z" fill="var(--color-primary)"/>
 </g>
</svg>
