<svg version="1.1" xmlns="http://www.w3.org/2000/svg" xmlns:xlink="http://www.w3.org/1999/xlink" viewBox="0 0 14.5898 14.248">
 <g>
  <rect height="14.248" opacity="0" width="14.5898" x="0" y="0"/>
  <path d="M14.2285 2.4707L14.2285 11.7871C14.2285 13.4277 13.4082 14.248 11.7383 14.248L2.49023 14.248C0.830078 14.248 0 13.4277 0 11.7871L0 2.4707C0 0.830078 0.830078 0.00976562 2.49023 0.00976562L11.7383 0.00976562C13.4082 0.00976562 14.2285 0.830078 14.2285 2.4707ZM7.5 7.17773C7.5 8.69141 7.99805 10.498 9.64844 10.498C10.8887 10.498 11.6113 9.48242 11.6113 8.22266C11.6113 7.1582 11.0938 6.14258 10.0391 6.14258C9.41406 6.14258 8.93555 6.54297 8.75 7.19727L8.7207 7.19727C8.7207 7.17773 8.7207 7.14844 8.7207 7.12891C8.7207 6.30859 8.80859 4.78516 9.62891 4.78516C9.94141 4.78516 10.166 5.00977 10.3027 5.30273C10.4297 5.56641 10.6055 5.67383 10.8789 5.67383C11.2402 5.67383 11.3867 5.42969 11.3867 5.14648C11.3867 5.04883 11.377 4.95117 11.3574 4.86328C11.1914 4.16992 10.4688 3.75977 9.6582 3.75977C7.99805 3.75977 7.5 5.52734 7.5 7.17773ZM2.74414 4.94141C2.70508 5.08789 2.67578 5.22461 2.67578 5.37109C2.67578 5.6543 2.87109 5.89844 3.23242 5.89844C3.52539 5.89844 3.71094 5.79102 3.79883 5.49805C3.92578 5.04883 4.15039 4.79492 4.55078 4.79492C5.03906 4.79492 5.26367 5.16602 5.26367 5.6543C5.26367 6.20117 4.9707 6.5918 4.4043 6.5918L4.25781 6.5918C3.95508 6.5918 3.75977 6.77734 3.75977 7.07031C3.75977 7.36328 3.96484 7.5293 4.25781 7.5293L4.41406 7.5293C5.05859 7.5293 5.39062 7.88086 5.39062 8.51562C5.39062 9.02344 5.12695 9.45312 4.58008 9.45312C4.04297 9.45312 3.81836 9.10156 3.7207 8.78906C3.63281 8.50586 3.44727 8.35938 3.1543 8.35938C2.8125 8.35938 2.57812 8.57422 2.57812 8.91602C2.57812 9.07227 2.59766 9.19922 2.63672 9.33594C2.87109 10.0879 3.73047 10.4785 4.58008 10.4785C5.76172 10.4785 6.66992 9.76562 6.66992 8.57422C6.66992 7.55859 6.04492 7.10938 5.40039 7.04102L5.40039 7.01172C6.12305 6.81641 6.48438 6.18164 6.48438 5.51758C6.48438 4.38477 5.61523 3.7793 4.55078 3.7793C3.73047 3.7793 2.96875 4.23828 2.74414 4.94141ZM10.3613 8.29102C10.3613 8.81836 10.1367 9.47266 9.62891 9.47266C9.08203 9.47266 8.87695 8.75977 8.87695 8.25195C8.87695 7.71484 9.10156 7.10938 9.62891 7.10938C10.166 7.10938 10.3809 7.75391 10.3613 8.29102Z" fill="var(--color-primary)"/>
 </g>
</svg>
