<svg version="1.1" xmlns="http://www.w3.org/2000/svg" xmlns:xlink="http://www.w3.org/1999/xlink" viewBox="0 0 16.1328 15.7715">
 <g>
  <rect height="15.7715" opacity="0" width="16.1328" x="0" y="0"/>
  <path d="M15.7715 7.88086C15.7715 12.2266 12.2363 15.7617 7.88086 15.7617C3.53516 15.7617 0 12.2266 0 7.88086C0 3.53516 3.53516 0 7.88086 0C12.2363 0 15.7715 3.53516 15.7715 7.88086ZM3.50586 5.70312C3.4668 5.84961 3.44727 5.98633 3.44727 6.13281C3.44727 6.41602 3.64258 6.66016 3.99414 6.66016C4.29688 6.66016 4.47266 6.55273 4.57031 6.25977C4.69727 5.81055 4.93164 5.55664 5.33203 5.55664C5.82031 5.55664 6.03516 5.92773 6.03516 6.41602C6.03516 6.96289 5.74219 7.35352 5.17578 7.35352L5.0293 7.35352C4.72656 7.35352 4.54102 7.53906 4.54102 7.83203C4.54102 8.125 4.72656 8.29102 5.0293 8.29102L5.18555 8.29102C5.83008 8.29102 6.17188 8.64258 6.17188 9.27734C6.17188 9.78516 5.89844 10.2148 5.36133 10.2148C4.82422 10.2148 4.59961 9.86328 4.49219 9.55078C4.4043 9.26758 4.20898 9.12109 3.93555 9.12109C3.58398 9.12109 3.34961 9.33594 3.34961 9.67773C3.34961 9.83398 3.36914 9.96094 3.4082 10.0977C3.64258 10.8496 4.49219 11.2402 5.36133 11.2402C6.5332 11.2402 7.44141 10.5273 7.44141 9.33594C7.44141 8.32031 6.82617 7.87109 6.18164 7.80273L6.18164 7.77344C6.9043 7.57812 7.24609 6.94336 7.24609 6.2793C7.24609 5.14648 6.38672 4.54102 5.33203 4.54102C4.49219 4.54102 3.74023 5 3.50586 5.70312ZM8.4375 6.25977C8.4375 7.09961 8.98438 7.55859 9.46289 7.69531L9.46289 7.72461C8.7793 7.88086 8.25195 8.47656 8.25195 9.36523C8.25195 10.5664 9.18945 11.2402 10.3711 11.2402C11.6797 11.2402 12.5 10.4492 12.5 9.36523C12.5 8.4668 11.9336 7.87109 11.2988 7.72461L11.2988 7.69531C11.8164 7.54883 12.3145 7.04102 12.3145 6.26953C12.3145 5.21484 11.5137 4.53125 10.3711 4.53125C9.38477 4.53125 8.4375 5.10742 8.4375 6.25977ZM11.1621 9.25781C11.1621 9.79492 10.918 10.2832 10.3809 10.2832C9.84375 10.2832 9.59961 9.79492 9.59961 9.25781C9.59961 8.73047 9.84375 8.24219 10.3809 8.24219C10.9082 8.24219 11.1621 8.71094 11.1621 9.25781ZM11.0645 6.39648C11.0645 6.875 10.8496 7.29492 10.3809 7.29492C9.88281 7.29492 9.67773 6.80664 9.67773 6.39648C9.67773 5.92773 9.92188 5.47852 10.3809 5.47852C10.8496 5.47852 11.0645 5.91797 11.0645 6.39648Z" fill="var(--color-primary)"/>
 </g>
</svg>
