<svg version="1.1" xmlns="http://www.w3.org/2000/svg" xmlns:xlink="http://www.w3.org/1999/xlink" viewBox="0 0 14.5898 14.248">
 <g>
  <rect height="14.248" opacity="0" width="14.5898" x="0" y="0"/>
  <path d="M14.2285 2.4707L14.2285 11.7871C14.2285 13.4277 13.4082 14.248 11.7383 14.248L2.49023 14.248C0.830078 14.248 0 13.4277 0 11.7871L0 2.4707C0 0.830078 0.830078 0.00976562 2.49023 0.00976562L11.7383 0.00976562C13.4082 0.00976562 14.2285 0.830078 14.2285 2.4707ZM2.73438 4.94141C2.69531 5.08789 2.67578 5.22461 2.67578 5.37109C2.67578 5.6543 2.88086 5.89844 3.22266 5.89844C3.53516 5.89844 3.71094 5.79102 3.79883 5.49805C3.92578 5.04883 4.16016 4.79492 4.56055 4.79492C5.04883 4.79492 5.26367 5.16602 5.26367 5.6543C5.26367 6.20117 4.9707 6.5918 4.4043 6.5918L4.25781 6.5918C3.95508 6.5918 3.76953 6.77734 3.76953 7.07031C3.76953 7.36328 3.95508 7.5293 4.25781 7.5293L4.41406 7.5293C5.05859 7.5293 5.40039 7.88086 5.40039 8.51562C5.40039 9.02344 5.13672 9.45312 4.58984 9.45312C4.05273 9.45312 3.82812 9.10156 3.7207 8.78906C3.64258 8.50586 3.4375 8.35938 3.16406 8.35938C2.8125 8.35938 2.57812 8.57422 2.57812 8.91602C2.57812 9.07227 2.59766 9.19922 2.63672 9.33594C2.87109 10.0879 3.73047 10.4785 4.58984 10.4785C5.76172 10.4785 6.67969 9.76562 6.67969 8.57422C6.67969 7.55859 6.05469 7.10938 5.41016 7.04102L5.41016 7.01172C6.13281 6.81641 6.48438 6.18164 6.48438 5.51758C6.48438 4.38477 5.61523 3.7793 4.56055 3.7793C3.73047 3.7793 2.96875 4.23828 2.73438 4.94141ZM7.66602 5.49805C7.66602 6.33789 8.21289 6.79688 8.70117 6.93359L8.70117 6.96289C8.01758 7.11914 7.48047 7.71484 7.48047 8.60352C7.48047 9.80469 8.42773 10.4785 9.60938 10.4785C10.9082 10.4785 11.7285 9.6875 11.7285 8.60352C11.7285 7.70508 11.1621 7.10938 10.5273 6.96289L10.5273 6.93359C11.0449 6.78711 11.543 6.2793 11.543 5.50781C11.543 4.45312 10.752 3.76953 9.60938 3.76953C8.61328 3.76953 7.66602 4.3457 7.66602 5.49805ZM10.3906 8.49609C10.3906 9.0332 10.1465 9.52148 9.60938 9.52148C9.07227 9.52148 8.82812 9.0332 8.82812 8.49609C8.82812 7.96875 9.08203 7.48047 9.60938 7.48047C10.1465 7.48047 10.3906 7.94922 10.3906 8.49609ZM10.293 5.63477C10.293 6.11328 10.0879 6.5332 9.60938 6.5332C9.11133 6.5332 8.91602 6.04492 8.91602 5.63477C8.91602 5.16602 9.15039 4.7168 9.60938 4.7168C10.0781 4.7168 10.293 5.15625 10.293 5.63477Z" fill="var(--color-primary)"/>
 </g>
</svg>
