<?xml version="1.0" encoding="UTF-8"?>
<!--Generator: Apple Native CoreSVG 326-->
<!DOCTYPE svg
PUBLIC "-//W3C//DTD SVG 1.1//EN"
       "http://www.w3.org/Graphics/SVG/1.1/DTD/svg11.dtd">
<svg version="1.1" xmlns="http://www.w3.org/2000/svg" xmlns:xlink="http://www.w3.org/1999/xlink" viewBox="0 0 16.1328 15.7715">
 <g>
  <rect height="15.7715" opacity="0" width="16.1328" x="0" y="0"/>
  <path d="M15.7715 7.88086C15.7715 12.2266 12.2363 15.7617 7.88086 15.7617C3.53516 15.7617 0 12.2266 0 7.88086C0 3.53516 3.53516 0 7.88086 0C12.2363 0 15.7715 3.53516 15.7715 7.88086ZM8.17383 7.88086C8.17383 9.53125 8.68164 11.2598 10.293 11.2598C11.9141 11.2598 12.4121 9.53125 12.4121 7.88086C12.4121 6.23047 11.9141 4.50195 10.293 4.50195C8.68164 4.50195 8.17383 6.23047 8.17383 7.88086ZM4.50195 5.43945L3.20312 8.33984C3.05664 8.68164 3.00781 8.90625 3.00781 9.17969C3.00781 9.60938 3.31055 9.90234 3.7207 9.90234L5.42969 9.90234L5.42969 10.5664C5.42969 11.0352 5.77148 11.2012 6.04492 11.2012C6.38672 11.2012 6.66016 11.0059 6.66016 10.5664L6.66016 9.90234L6.88477 9.90234C7.22656 9.90234 7.39258 9.66797 7.39258 9.375C7.39258 9.0918 7.24609 8.86719 6.88477 8.86719L6.66016 8.86719L6.66016 5.52734C6.66016 4.92188 6.25977 4.58008 5.66406 4.58008C5.03906 4.58008 4.74609 4.89258 4.50195 5.43945ZM11.1035 7.88086C11.1035 9.31641 10.8496 10.2148 10.293 10.2148C9.73633 10.2148 9.48242 9.31641 9.48242 7.88086C9.48242 6.44531 9.73633 5.54688 10.293 5.54688C10.8496 5.54688 11.1035 6.44531 11.1035 7.88086ZM5.45898 8.89648L4.10156 8.89648L4.10156 8.83789L5.42969 5.66406L5.45898 5.66406Z" fill="white" fill-opacity="0.85"/>
 </g>
</svg>
