<?xml version="1.0" encoding="UTF-8"?>
<!--Generator: Apple Native CoreSVG 326-->
<!DOCTYPE svg
PUBLIC "-//W3C//DTD SVG 1.1//EN"
       "http://www.w3.org/Graphics/SVG/1.1/DTD/svg11.dtd">
<svg version="1.1" xmlns="http://www.w3.org/2000/svg" xmlns:xlink="http://www.w3.org/1999/xlink" viewBox="0 0 16.1328 18.7687">
 <g>
  <rect height="18.7687" opacity="0" width="16.1328" x="0" y="0"/>
  <path d="M7.88086 17.2603C12.2363 17.2603 15.7715 13.735 15.7715 9.37949C15.7715 5.53183 12.998 2.33847 9.4043 1.64511L9.4043 0.609959C9.4043-0.00527584 8.98438-0.161526 8.52539 0.170505L6.05469 1.91855C5.66406 2.19199 5.67383 2.59238 6.05469 2.86582L8.53516 4.6041C8.98438 4.92636 9.4043 4.77011 9.4043 4.16465L9.4043 3.16855C12.1973 3.85215 14.2773 6.35215 14.2773 9.37949C14.2773 12.9146 11.416 15.776 7.88086 15.776C4.3457 15.776 1.49414 12.9146 1.49414 9.37949C1.49414 7.28965 2.49023 5.45371 4.01367 4.2916C4.36523 4.01816 4.48242 3.60801 4.25781 3.24668C4.04297 2.88535 3.53516 2.78769 3.14453 3.08066C1.23047 4.53574 0 6.78183 0 9.37949C0 13.735 3.53516 17.2603 7.88086 17.2603Z" fill="white" fill-opacity="0.85"/>
  <path d="M6.12305 12.5436C6.42578 12.5436 6.69922 12.3775 6.69922 11.9576L6.69922 11.3717L6.93359 11.3717C7.26562 11.3717 7.40234 11.1568 7.40234 10.9029C7.40234 10.6197 7.25586 10.4244 6.93359 10.4244L6.69922 10.4244L6.69922 7.42636C6.69922 6.85996 6.31836 6.55722 5.75195 6.55722C5.18555 6.55722 4.91211 6.85996 4.64844 7.35801C4.23828 8.10996 3.66211 9.24277 3.35938 9.90683C3.25195 10.1803 3.1543 10.4439 3.1543 10.7369C3.1543 11.1178 3.42773 11.3717 3.82812 11.3717L5.55664 11.3717L5.55664 11.9576C5.55664 12.3775 5.83008 12.5436 6.12305 12.5436ZM5.58594 10.4537L4.16016 10.4537L4.16016 10.3951C4.54102 9.47715 5.11719 8.36386 5.55664 7.54355L5.58594 7.54355ZM10.1855 12.6021C11.3867 12.6021 12.1289 11.7135 12.1289 10.5123C12.1289 9.49668 11.5723 8.61777 10.5762 8.61777C10.0684 8.61777 9.66797 8.84238 9.47266 9.22324L9.43359 9.22324L9.54102 7.60215L11.416 7.60215C11.6992 7.60215 11.8848 7.4166 11.8848 7.1334C11.8848 6.84043 11.6992 6.64511 11.416 6.64511L9.22852 6.64511C8.78906 6.64511 8.59375 6.87949 8.56445 7.32871L8.41797 9.45761C8.38867 9.82871 8.59375 10.1119 8.96484 10.1119C9.23828 10.1119 9.3457 10.024 9.52148 9.82871C9.6875 9.61386 9.91211 9.47715 10.1855 9.47715C10.7227 9.47715 10.9863 9.98496 10.9863 10.5416C10.9863 11.1568 10.6934 11.6451 10.1758 11.6451C9.76562 11.6451 9.50195 11.3814 9.35547 11.0299C9.22852 10.8053 9.0625 10.6881 8.83789 10.6881C8.53516 10.6881 8.34961 10.8736 8.34961 11.1764C8.34961 11.274 8.35938 11.3619 8.38867 11.4596C8.57422 12.1822 9.45312 12.6021 10.1855 12.6021Z" fill="white" fill-opacity="0.85"/>
 </g>
</svg>
