<svg version="1.1" xmlns="http://www.w3.org/2000/svg" xmlns:xlink="http://www.w3.org/1999/xlink" width="14.5898" height="14.248" viewBox="0 0 14.5898 14.248">
 <g>
  <rect height="14.248" opacity="0" width="14.5898" x="0" y="0"/>
  <path d="M2.49023 14.248L11.7383 14.248C13.4082 14.248 14.2285 13.4277 14.2285 11.7871L14.2285 2.4707C14.2285 0.830078 13.4082 0.00976562 11.7383 0.00976562L2.49023 0.00976562C0.830078 0.00976562 0 0.830078 0 2.4707L0 11.7871C0 13.4277 0.830078 14.248 2.49023 14.248Z" fill="var(--color-tertiary)"/>
  <path d="M5.41016 10.4395C5.13672 10.4395 4.78516 10.2734 4.78516 9.79492L4.78516 9.14062L3.08594 9.14062C2.66602 9.14062 2.37305 8.84766 2.37305 8.41797C2.37305 8.14453 2.41211 7.91992 2.55859 7.57812L3.85742 4.67773C4.10156 4.13086 4.4043 3.81836 5.01953 3.81836C5.625 3.81836 6.01562 4.16016 6.01562 4.76562L6.01562 8.10547L6.24023 8.10547C6.60156 8.10547 6.74805 8.33008 6.74805 8.61328C6.74805 8.90625 6.58203 9.14062 6.24023 9.14062L6.01562 9.14062L6.01562 9.79492C6.01562 10.2441 5.74219 10.4395 5.41016 10.4395ZM4.81445 8.13477L4.81445 4.90234L4.78516 4.90234L3.45703 8.07617L3.45703 8.13477ZM9.08203 8.11523C8.02734 8.11523 7.50977 7.09961 7.50977 6.03516C7.50977 4.77539 8.23242 3.75977 9.47266 3.75977C11.123 3.75977 11.6211 5.56641 11.6211 7.07031C11.6211 8.73047 11.123 10.4883 9.46289 10.4883C8.65234 10.4883 7.92969 10.0879 7.76367 9.39453C7.74414 9.30664 7.72461 9.20898 7.72461 9.11133C7.72461 8.82812 7.88086 8.57422 8.25195 8.57422C8.51562 8.57422 8.69141 8.68164 8.81836 8.95508C8.95508 9.24805 9.17969 9.46289 9.49219 9.46289C10.3125 9.46289 10.4004 7.94922 10.4004 7.12891C10.4004 7.10938 10.4004 7.08008 10.4004 7.05078L10.3711 7.05078C10.1855 7.71484 9.70703 8.11523 9.08203 8.11523ZM9.49219 7.13867C10.0195 7.13867 10.2441 6.54297 10.2441 5.9668C10.2441 5.41992 10.0391 4.78516 9.49219 4.78516C8.98438 4.78516 8.75 5.41992 8.75 5.9668C8.75 6.50391 8.95508 7.13867 9.49219 7.13867Z" fill="var(--color-primary)"/>
 </g>
</svg>
