<?xml version="1.0" encoding="UTF-8"?>
<!--Generator: Apple Native CoreSVG 326-->
<!DOCTYPE svg
PUBLIC "-//W3C//DTD SVG 1.1//EN"
       "http://www.w3.org/Graphics/SVG/1.1/DTD/svg11.dtd">
<svg version="1.1" xmlns="http://www.w3.org/2000/svg" xmlns:xlink="http://www.w3.org/1999/xlink" viewBox="0 0 16.1328 15.7715">
 <g>
  <rect height="15.7715" opacity="0" width="16.1328" x="0" y="0"/>
  <path d="M15.7715 7.88086C15.7715 12.2266 12.2363 15.7617 7.88086 15.7617C3.53516 15.7617 0 12.2266 0 7.88086C0 3.53516 3.53516 0 7.88086 0C12.2363 0 15.7715 3.53516 15.7715 7.88086ZM5.05859 6.64062C5.05859 8.17383 6.23047 8.99414 7.46094 8.99414C8.51562 8.99414 9.11133 8.4668 9.3457 7.93945L9.41406 7.93945C9.43359 9.56055 8.70117 10.5566 7.66602 10.5566C7.1582 10.5566 6.83594 10.3613 6.50391 9.94141C6.34766 9.74609 6.17188 9.59961 5.88867 9.59961C5.53711 9.59961 5.29297 9.84375 5.29297 10.1758C5.29297 10.2734 5.3125 10.3809 5.35156 10.4785C5.54688 11.0547 6.2793 11.6992 7.68555 11.6992C9.6582 11.6992 10.7227 10.3125 10.7227 7.66602C10.7227 5.3418 9.67773 4.0625 7.82227 4.0625C6.13281 4.0625 5.05859 5.06836 5.05859 6.64062ZM9.32617 6.5918C9.32617 7.40234 8.7207 7.99805 7.89062 7.99805C7.05078 7.99805 6.45508 7.40234 6.45508 6.58203C6.45508 5.69336 7.02148 5.11719 7.89062 5.11719C8.71094 5.11719 9.32617 5.74219 9.32617 6.5918Z" fill="white" fill-opacity="0.85"/>
 </g>
</svg>
