<?xml version="1.0" encoding="UTF-8"?>
<!--Generator: Apple Native CoreSVG 326-->
<!DOCTYPE svg
PUBLIC "-//W3C//DTD SVG 1.1//EN"
       "http://www.w3.org/Graphics/SVG/1.1/DTD/svg11.dtd">
<svg version="1.1" xmlns="http://www.w3.org/2000/svg" xmlns:xlink="http://www.w3.org/1999/xlink" viewBox="0 0 16.3184 13.5059">
 <g>
  <rect height="13.5059" opacity="0" width="16.3184" x="0" y="0"/>
  <path d="M4.73633 13.4961L11.2207 13.4961C14.4238 13.4961 15.957 11.9727 15.957 8.76953L15.957 5.19531L11.9824 5.19531C11.8457 5.54688 11.5039 5.77148 11.084 5.77148L4.87305 5.77148C4.46289 5.77148 4.11133 5.54688 3.97461 5.19531L0 5.19531L0 8.76953C0 11.9727 1.52344 13.4961 4.73633 13.4961ZM7.97852 8.80859C7.57812 8.81836 7.25586 8.47656 7.25586 8.08594C7.25586 7.69531 7.57812 7.36328 7.97852 7.36328C8.36914 7.36328 8.70117 7.69531 8.70117 8.08594C8.70117 8.45703 8.36914 8.79883 7.97852 8.80859ZM0 4.43359L3.96484 4.43359C4.0918 4.07227 4.44336 3.84766 4.85352 3.84766L11.0742 3.84766C11.4844 3.84766 11.8359 4.07227 11.9629 4.43359L15.9277 4.43359L15.9277 4.16992C15.9277 1.35742 14.2188 0 11.1914 0L4.73633 0C1.69922 0 0 1.35742 0 4.16992Z" fill="white" fill-opacity="0.85"/>
 </g>
</svg>
