<svg version="1.1" xmlns="http://www.w3.org/2000/svg" xmlns:xlink="http://www.w3.org/1999/xlink" viewBox="0 0 7.2168 15.2246">
 <g>
  <rect height="15.2246" opacity="0" width="7.2168" x="0" y="0"/>
  <path d="M3.45703 6.36719C5.29297 6.38672 6.88477 4.94141 6.85547 3.17383C6.82617 1.42578 5.29297 0 3.45703 0C1.69922 0 0.683594 1.11328 0.244141 1.76758C0.0683594 2.02148 0 2.30469 0 2.60742L0 3.75977C0 4.07227 0.078125 4.3457 0.244141 4.59961C0.664062 5.26367 1.69922 6.34766 3.45703 6.36719ZM1.45508 4.45312C1.24023 4.45312 1.06445 4.28711 1.06445 4.0625L1.06445 2.30469C1.06445 2.08984 1.24023 1.91406 1.45508 1.91406C1.67969 1.91406 1.8457 2.08984 1.8457 2.30469L1.8457 4.0625C1.8457 4.28711 1.67969 4.45312 1.45508 4.45312ZM3.80859 12.5684L6.08398 12.5684L6.08398 6.25977C5.44922 6.74805 4.6582 7.07031 3.80859 7.12891ZM4.60938 15.2051L5.27344 15.2051C5.76172 15.2051 6.08398 14.9609 6.08398 14.4824L6.08398 13.3789L3.80859 13.3789L3.80859 14.4824C3.80859 14.9609 4.13086 15.2051 4.60938 15.2051Z" fill="var(--color-primary)"/>
 </g>
</svg>
