<svg version="1.1" xmlns="http://www.w3.org/2000/svg" xmlns:xlink="http://www.w3.org/1999/xlink" viewBox="0 0 20.3057 13.877">
 <g>
  <rect height="13.877" opacity="0" width="20.3057" x="0" y="0"/>
  <path d="M1.67141 13.877L18.2437 13.877C18.6245 13.877 18.9468 13.5547 18.9468 13.1738C18.9468 12.7832 18.6245 12.4707 18.2437 12.4707L1.67141 12.4707C1.28078 12.4707 0.968284 12.7832 0.968284 13.1738C0.968284 13.5547 1.28078 13.877 1.67141 13.877Z" fill="var(--color-primary)"/>
  <path d="M4.44485 8.58398L17.6577 5.04883C19.103 4.6582 20.2652 3.53516 19.8648 2.41211C19.4839 1.39648 17.9312 1.15234 16.6421 1.5918L11.9155 3.20312C11.5738 3.32031 11.3394 3.31055 10.939 3.125L4.58157 0.126953C4.35696 0.0195312 4.11282 0 3.88821 0.0683594L3.33157 0.234375C3.14602 0.292969 3.08742 0.517578 3.26321 0.712891L7.6675 5.42969L7.83352 4.59961L3.86867 5.95703L5.59719 6.01562L0.997581 4.38477C0.772971 4.30664 0.587424 4.3457 0.372581 4.54102L0.12844 4.76562C-0.0375756 4.91211-0.0375756 5.10742 0.0991432 5.25391L2.76516 8.26172C3.15578 8.69141 3.73196 8.76953 4.44485 8.58398Z" fill="var(--color-primary)"/>
 </g>
</svg>
