<?xml version="1.0" encoding="UTF-8"?>
<!--Generator: Apple Native CoreSVG 326-->
<!DOCTYPE svg
PUBLIC "-//W3C//DTD SVG 1.1//EN"
       "http://www.w3.org/Graphics/SVG/1.1/DTD/svg11.dtd">
<svg version="1.1" xmlns="http://www.w3.org/2000/svg" xmlns:xlink="http://www.w3.org/1999/xlink" viewBox="0 0 16.1328 15.7715">
 <g>
  <rect height="15.7715" opacity="0" width="16.1328" x="0" y="0"/>
  <path d="M15.7715 7.89062C15.7715 12.2363 12.2363 15.7715 7.88086 15.7715C3.53516 15.7715 0 12.2363 0 7.89062C0 3.54492 3.53516 0.00976562 7.88086 0.00976562C12.2363 0.00976562 15.7715 3.54492 15.7715 7.89062ZM7.63672 8.79883L5.37109 11.3477C5.18555 11.5527 5.32227 11.8652 5.5957 11.8652L10.1562 11.8652C10.4297 11.8652 10.5664 11.5527 10.3809 11.3477L8.125 8.79883C8.00781 8.66211 7.77344 8.66211 7.63672 8.79883ZM4.55078 4.56055C3.85742 4.56055 3.37891 5.03906 3.37891 5.71289L3.37891 9.33594C3.37891 10.0195 3.85742 10.498 4.55078 10.498L5.20508 10.498L5.99609 9.59961L4.6582 9.59961C4.46289 9.59961 4.31641 9.46289 4.31641 9.25781L4.31641 5.80078C4.31641 5.58594 4.46289 5.43945 4.6582 5.43945L11.1035 5.43945C11.2988 5.43945 11.4453 5.58594 11.4453 5.80078L11.4453 9.25781C11.4453 9.46289 11.2988 9.59961 11.1035 9.59961L9.77539 9.59961L10.5469 10.498L11.2012 10.498C11.8945 10.498 12.3828 10.0195 12.3828 9.33594L12.3828 5.71289C12.3828 5.03906 11.8945 4.56055 11.2012 4.56055Z" fill="white" fill-opacity="0.85"/>
 </g>
</svg>
