<svg version="1.1" xmlns="http://www.w3.org/2000/svg" xmlns:xlink="http://www.w3.org/1999/xlink" width="16.1328" height="15.7715" viewBox="0 0 16.1328 15.7715">
 <g>
  <rect height="15.7715" opacity="0" width="16.1328" x="0" y="0"/>
  <path d="M7.88086 15.7715C12.1875 15.7715 15.7715 12.1973 15.7715 7.89062C15.7715 3.58398 12.1777 0.00976562 7.87109 0.00976562C3.57422 0.00976562 0 3.58398 0 7.89062C0 12.1973 3.58398 15.7715 7.88086 15.7715ZM7.88086 14.1504C4.39453 14.1504 1.62109 11.377 1.62109 7.88086C1.62109 4.38477 4.38477 1.61133 7.87109 1.61133C11.3672 1.61133 14.1504 4.38477 14.1602 7.88086C14.1699 11.3672 11.377 14.1504 7.88086 14.1504ZM7.88086 13.3887C10.957 13.3887 13.4082 10.9375 13.3984 7.88086C13.3887 4.80469 10.9473 2.37305 7.87109 2.37305C4.81445 2.37305 2.38281 4.80469 2.38281 7.88086C2.38281 10.9473 4.81445 13.3887 7.88086 13.3887ZM7.95898 9.9707C7.51953 9.9707 7.37305 10.2051 7.02148 10.2051C6.66016 10.2051 6.41602 9.89258 6.13281 9.49219C5.81055 9.02344 5.54688 8.31055 5.54688 7.61719C5.54688 6.52344 6.25977 5.92773 6.97266 5.92773C7.33398 5.92773 7.64648 6.18164 7.88086 6.18164C8.10547 6.18164 8.45703 5.92773 8.87695 5.92773C9.04297 5.92773 9.61914 5.92773 10 6.47461C9.9707 6.51367 9.39453 6.82617 9.39453 7.55859C9.39453 8.39844 10.127 8.70117 10.1465 8.70117C10.1465 8.7207 10.0391 9.11133 9.76562 9.50195C9.52148 9.85352 9.25781 10.1953 8.87695 10.1953C8.49609 10.1953 8.39844 9.9707 7.95898 9.9707ZM8.68164 5.44922C8.49609 5.68359 8.17383 5.85938 7.91016 5.85938C7.88086 5.85938 7.86133 5.84961 7.83203 5.84961C7.83203 5.83008 7.83203 5.79102 7.83203 5.75195C7.83203 5.44922 7.98828 5.16602 8.13477 4.98047C8.34961 4.73633 8.68164 4.56055 8.97461 4.55078C8.98438 4.58008 8.98438 4.61914 8.98438 4.6582C8.98438 4.96094 8.85742 5.23438 8.68164 5.44922Z" fill="var(--color-primary)"/>
 </g>
</svg>
