<svg version="1.1" xmlns="http://www.w3.org/2000/svg" xmlns:xlink="http://www.w3.org/1999/xlink" viewBox="0 0 18.4375 15.0684">
 <g>
  <rect height="15.0684" opacity="0" width="18.4375" x="0" y="0"/>
  <path d="M2.07031 8.18359L0.605469 8.18359C0.263672 8.18359 0 7.89062 0 7.54883C0 7.20703 0.263672 6.9043 0.605469 6.9043L2.07031 6.9043ZM18.0762 7.54883C18.0762 7.89062 17.8125 8.18359 17.4707 8.18359L16.0059 8.18359L16.0059 6.9043L17.4707 6.9043C17.8125 6.9043 18.0762 7.20703 18.0762 7.54883ZM9.72656 8.18359L8.34961 8.18359L8.34961 6.9043L9.72656 6.9043Z" fill="var(--color-primary)"/>
  <path d="M3.94531 15.0684L6.47461 15.0684C7.69531 15.0684 8.34961 14.4043 8.34961 13.1543L8.34961 1.94336C8.34961 0.693359 7.69531 0.0292969 6.47461 0.0292969L3.94531 0.0292969C2.71484 0.0292969 2.07031 0.693359 2.07031 1.94336L2.07031 13.1543C2.07031 14.4043 2.71484 15.0684 3.94531 15.0684ZM4.01367 13.75C3.60352 13.75 3.37891 13.5352 3.37891 13.1348L3.37891 1.96289C3.37891 1.5625 3.60352 1.34766 4.01367 1.34766L6.39648 1.34766C6.81641 1.34766 7.03125 1.5625 7.03125 1.96289L7.03125 13.1348C7.03125 13.5352 6.81641 13.75 6.39648 13.75ZM11.6016 12.2949L14.1309 12.2949C15.3613 12.2949 16.0059 11.6406 16.0059 10.3906L16.0059 4.70703C16.0059 3.45703 15.3613 2.80273 14.1309 2.80273L11.6016 2.80273C10.3809 2.80273 9.72656 3.45703 9.72656 4.70703L9.72656 10.3906C9.72656 11.6406 10.3809 12.2949 11.6016 12.2949ZM11.6797 10.9863C11.2598 10.9863 11.0449 10.7617 11.0449 10.3711L11.0449 4.72656C11.0449 4.33594 11.2598 4.11133 11.6797 4.11133L14.0625 4.11133C14.4824 4.11133 14.6973 4.33594 14.6973 4.72656L14.6973 10.3711C14.6973 10.7617 14.4824 10.9863 14.0625 10.9863Z" fill="var(--color-primary)"/>
 </g>
</svg>
