<?xml version="1.0" encoding="UTF-8"?>
<!--Generator: Apple Native CoreSVG 326-->
<!DOCTYPE svg
PUBLIC "-//W3C//DTD SVG 1.1//EN"
       "http://www.w3.org/Graphics/SVG/1.1/DTD/svg11.dtd">
<svg version="1.1" xmlns="http://www.w3.org/2000/svg" xmlns:xlink="http://www.w3.org/1999/xlink" viewBox="0 0 19.873 19.5605">
 <g>
  <rect height="19.5605" opacity="0" width="19.873" x="0" y="0"/>
  <path d="M6.5918 16.377C8.48633 16.377 10.0098 14.834 10.0098 12.9297C10.0098 11.0547 8.47656 9.53125 6.5918 9.53125C4.70703 9.53125 3.16406 11.0547 3.16406 12.9297C3.16406 14.834 4.70703 16.377 6.5918 16.377ZM12.5684 10.8789C14.7266 10.8789 16.5039 9.10156 16.5039 6.93359C16.5039 4.77539 14.7266 3.00781 12.5684 3.00781C10.4102 3.00781 8.63281 4.77539 8.63281 6.93359C8.63281 9.10156 10.4102 10.8789 12.5684 10.8789ZM8.47656 3.18359C8.95508 3.18359 9.33594 2.80273 9.33594 2.32422C9.33594 1.85547 8.95508 1.47461 8.47656 1.47461C8.00781 1.47461 7.62695 1.85547 7.62695 2.32422C7.62695 2.80273 8.00781 3.18359 8.47656 3.18359ZM12.8027 1.71875C13.2715 1.71875 13.6523 1.33789 13.6523 0.859375C13.6523 0.380859 13.2715 0 12.8027 0C12.3242 0 11.9434 0.380859 11.9434 0.859375C11.9434 1.33789 12.3242 1.71875 12.8027 1.71875ZM17.1875 3.70117C17.6562 3.70117 18.0371 3.32031 18.0371 2.8418C18.0371 2.36328 17.6562 1.98242 17.1875 1.98242C16.709 1.98242 16.3281 2.36328 16.3281 2.8418C16.3281 3.32031 16.709 3.70117 17.1875 3.70117ZM18.6523 8.04688C19.1309 8.04688 19.5117 7.66602 19.5117 7.1875C19.5117 6.70898 19.1309 6.32812 18.6523 6.32812C18.1738 6.32812 17.793 6.70898 17.793 7.1875C17.793 7.66602 18.1738 8.04688 18.6523 8.04688ZM16.6602 12.4121C17.1387 12.4121 17.5195 12.0312 17.5195 11.5527C17.5195 11.0742 17.1387 10.6934 16.6602 10.6934C16.1816 10.6934 15.8008 11.0742 15.8008 11.5527C15.8008 12.0312 16.1816 12.4121 16.6602 12.4121ZM12.4805 13.9941C12.959 13.9941 13.3398 13.6133 13.3398 13.1348C13.3398 12.6562 12.959 12.2754 12.4805 12.2754C12.002 12.2754 11.6211 12.6562 11.6211 13.1348C11.6211 13.6133 12.002 13.9941 12.4805 13.9941ZM10.5762 17.8613C11.0547 17.8613 11.4355 17.4805 11.4355 17.002C11.4355 16.5234 11.0547 16.1426 10.5762 16.1426C10.0977 16.1426 9.7168 16.5234 9.7168 17.002C9.7168 17.4805 10.0977 17.8613 10.5762 17.8613ZM6.38672 19.5508C6.86523 19.5508 7.24609 19.1699 7.24609 18.6914C7.24609 18.2129 6.86523 17.832 6.38672 17.832C5.91797 17.832 5.53711 18.2129 5.53711 18.6914C5.53711 19.1699 5.91797 19.5508 6.38672 19.5508ZM2.53906 17.7637C3.01758 17.7637 3.39844 17.3828 3.39844 16.9043C3.39844 16.4258 3.01758 16.0449 2.53906 16.0449C2.06055 16.0449 1.67969 16.4258 1.67969 16.9043C1.67969 17.3828 2.06055 17.7637 2.53906 17.7637ZM0.859375 13.6035C1.33789 13.6035 1.71875 13.2227 1.71875 12.7441C1.71875 12.2656 1.33789 11.8848 0.859375 11.8848C0.380859 11.8848 0 12.2656 0 12.7441C0 13.2227 0.380859 13.6035 0.859375 13.6035ZM2.83203 9.55078C3.31055 9.55078 3.69141 9.16992 3.69141 8.69141C3.69141 8.21289 3.31055 7.83203 2.83203 7.83203C2.35352 7.83203 1.97266 8.21289 1.97266 8.69141C1.97266 9.16992 2.35352 9.55078 2.83203 9.55078ZM6.66992 7.55859C7.14844 7.55859 7.5293 7.17773 7.5293 6.70898C7.5293 6.23047 7.14844 5.84961 6.66992 5.84961C6.20117 5.84961 5.81055 6.23047 5.81055 6.70898C5.81055 7.17773 6.20117 7.55859 6.66992 7.55859Z" fill="white" fill-opacity="0.85"/>
 </g>
</svg>
