<?xml version="1.0" encoding="UTF-8"?>
<!--Generator: Apple Native CoreSVG 326-->
<!DOCTYPE svg
PUBLIC "-//W3C//DTD SVG 1.1//EN"
       "http://www.w3.org/Graphics/SVG/1.1/DTD/svg11.dtd">
<svg version="1.1" xmlns="http://www.w3.org/2000/svg" xmlns:xlink="http://www.w3.org/1999/xlink" viewBox="0 0 15.9965 15.6388">
 <g>
  <rect height="15.6388" opacity="0" width="15.9965" x="0" y="0"/>
  <path d="M1.79708 15.2852C3.16427 15.6954 4.70723 15.7345 6.25997 15.4415L0.195516 9.36726C-0.107218 10.92-0.0583903 12.463 0.342 13.8302C0.615438 14.7286 0.908407 15.0216 1.79708 15.2852ZM12.2365 12.2286C13.4768 10.9981 14.3752 9.54304 14.9416 8.02937L7.59786 0.685622C6.09395 1.25203 4.63888 2.15047 3.39864 3.40047C2.15841 4.6407 1.25997 6.08601 0.693563 7.59968L8.03731 14.9434C9.54122 14.377 10.9963 13.4786 12.2365 12.2286ZM6.78731 10.9102C6.64083 11.0567 6.39669 11.0567 6.25997 10.9005L4.717 9.37703C4.58028 9.23054 4.58028 8.99617 4.717 8.83992C4.87325 8.69343 5.11739 8.69343 5.26388 8.83015L5.75216 9.33797L6.25997 8.83015L5.76192 8.33211C5.61544 8.19539 5.61544 7.95125 5.76192 7.80476C5.90841 7.64851 6.16231 7.64851 6.29903 7.795L6.79708 8.29304L7.30489 7.78523L6.79708 7.29695C6.66036 7.15047 6.65059 6.91609 6.79708 6.75984C6.95333 6.61336 7.19747 6.61336 7.33419 6.75008L7.83223 7.25789L8.34005 6.75008L7.842 6.25203C7.69552 6.11531 7.68575 5.87117 7.842 5.72468C7.99825 5.56843 8.23263 5.56843 8.37911 5.71492L8.87716 6.21297L9.38497 5.70515L8.88692 5.21687C8.74044 5.07039 8.73067 4.83601 8.88692 4.67976C9.03341 4.54304 9.26778 4.54304 9.41427 4.67L10.9475 6.2032C11.094 6.35945 11.094 6.59383 10.9475 6.75008C10.801 6.89656 10.5568 6.89656 10.4104 6.74031L9.91231 6.25203L9.4045 6.75008L9.91231 7.24812C10.0588 7.40437 10.0588 7.63875 9.91231 7.78523C9.75606 7.94148 9.52169 7.93172 9.3752 7.78523L8.87716 7.28718L8.36934 7.78523L8.86739 8.29304C9.02364 8.42976 9.02364 8.6739 8.86739 8.83015C8.72091 8.9864 8.47677 8.97664 8.34005 8.82039L7.83223 8.33211L7.32442 8.83015L7.83223 9.3282C7.97872 9.47468 7.97872 9.71883 7.83223 9.87508C7.67598 10.0118 7.44161 10.0118 7.29513 9.86531L6.79708 9.36726L6.29903 9.86531L6.78731 10.3731C6.94356 10.5098 6.94356 10.7637 6.78731 10.9102ZM15.2932 1.7989C15.0197 0.910232 14.7268 0.617263 13.8381 0.343825C12.4709-0.0565653 10.9279-0.105393 9.3752 0.187575L15.4397 6.26179C15.7424 4.70906 15.6936 3.16609 15.2932 1.7989Z" fill="white" fill-opacity="0.85"/>
 </g>
</svg>
