<svg version="1.1" xmlns="http://www.w3.org/2000/svg" xmlns:xlink="http://www.w3.org/1999/xlink" viewBox="0 0 16.1328 15.7715">
 <g>
  <rect height="15.7715" opacity="0" width="16.1328" x="0" y="0"/>
  <path d="M15.7715 7.89062C15.7715 12.2363 12.2363 15.7715 7.88086 15.7715C3.53516 15.7715 0 12.2363 0 7.89062C0 3.54492 3.53516 0.00976562 7.88086 0.00976562C12.2363 0.00976562 15.7715 3.54492 15.7715 7.89062ZM7.39258 12.4316C7.39258 12.7441 7.59766 12.9688 7.88086 12.9688C8.17383 12.9688 8.37891 12.7539 8.37891 12.4316L8.37891 9.76888L7.39258 8.78391ZM4.04297 4.05273C3.90625 4.19922 3.90625 4.46289 4.04297 4.59961L11.1816 11.7285C11.3281 11.875 11.582 11.875 11.7285 11.7285C11.8848 11.5723 11.8848 11.3281 11.7285 11.1816L4.60938 4.05273C4.45312 3.89648 4.20898 3.89648 4.04297 4.05273ZM2.87109 7.64648C2.87109 8.85742 3.29102 9.9707 4.08203 10.8398C4.30664 11.084 4.6582 11.1035 4.86328 10.8691C5.05859 10.6543 5.0293 10.3613 4.80469 10.0879C4.22852 9.43359 3.90625 8.58398 3.90625 7.64648C3.90625 6.97546 4.07845 6.33574 4.39781 5.79324L3.64574 5.0422C3.14099 5.80095 2.87109 6.70225 2.87109 7.64648ZM10.8984 4.45312C10.7129 4.6582 10.7324 4.96094 10.9668 5.23438C11.543 5.86914 11.8555 6.72852 11.8555 7.64648C11.8555 8.44939 11.6263 9.18783 11.1969 9.79328L11.9399 10.5343C12.5626 9.71716 12.9004 8.72021 12.9004 7.64648C12.9004 6.45508 12.4609 5.33203 11.6895 4.47266C11.4648 4.20898 11.1133 4.20898 10.8984 4.45312ZM4.81445 7.64648C4.81445 8.33008 5.03906 8.99414 5.43945 9.52148C5.6543 9.79492 6.04492 9.81445 6.25977 9.57031C6.43555 9.36523 6.41602 9.10156 6.20117 8.79883C5.97656 8.47656 5.84961 8.0957 5.84961 7.64648C5.84961 7.52272 5.86206 7.39984 5.8867 7.28008L5.05859 6.45311C4.89939 6.82514 4.81445 7.23212 4.81445 7.64648ZM9.50195 5.75195C9.33594 5.95703 9.35547 6.21094 9.57031 6.51367C9.78516 6.83594 9.92188 7.23633 9.92188 7.64648C9.92188 7.91826 9.87541 8.16501 9.78827 8.38851L10.5609 9.15903C10.8193 8.70502 10.957 8.18174 10.957 7.64648C10.957 6.97266 10.7324 6.31836 10.3223 5.80078C10.1172 5.51758 9.73633 5.49805 9.50195 5.75195Z" fill="var(--color-primary)"/>
 </g>
</svg>
