<svg version="1.1" xmlns="http://www.w3.org/2000/svg" xmlns:xlink="http://www.w3.org/1999/xlink" viewBox="0 0 10.5176 16.4941">
 <g>
  <rect height="16.4941" opacity="0" width="10.5176" x="0" y="0"/>
  <path d="M0 14.4531C0 15.6445 0.878906 16.4746 2.13867 16.4746L8.00781 16.4746C9.26758 16.4746 10.1562 15.6445 10.1562 14.4531L10.1562 2.02148C10.1562 0.830078 9.26758 0 8.00781 0L2.13867 0C0.878906 0 0 0.830078 0 2.02148ZM1.40625 14.209L1.40625 2.26562C1.40625 1.72852 1.75781 1.40625 2.32422 1.40625L7.82227 1.40625C8.39844 1.40625 8.74023 1.72852 8.74023 2.26562L8.74023 14.209C8.74023 14.7461 8.39844 15.0684 7.82227 15.0684L2.32422 15.0684C1.75781 15.0684 1.40625 14.7461 1.40625 14.209Z" fill="var(--color-primary)"/>
  <path d="M2.75391 14.082L3.48633 14.082C3.66211 14.082 3.78906 13.9648 3.78906 13.7988L3.78906 13.0469C3.78906 12.8809 3.66211 12.7637 3.48633 12.7637L2.75391 12.7637C2.58789 12.7637 2.4707 12.8809 2.4707 13.0469L2.4707 13.7988C2.4707 13.9648 2.58789 14.082 2.75391 14.082ZM4.70703 14.082L5.43945 14.082C5.60547 14.082 5.73242 13.9648 5.73242 13.7988L5.73242 13.0469C5.73242 12.8809 5.60547 12.7637 5.43945 12.7637L4.70703 12.7637C4.54102 12.7637 4.42383 12.8809 4.42383 13.0469L4.42383 13.7988C4.42383 13.9648 4.54102 14.082 4.70703 14.082ZM6.66016 14.082L7.38281 14.082C7.55859 14.082 7.68555 13.9648 7.68555 13.7988L7.68555 13.0469C7.68555 12.8809 7.55859 12.7637 7.38281 12.7637L6.66016 12.7637C6.49414 12.7637 6.37695 12.8809 6.37695 13.0469L6.37695 13.7988C6.37695 13.9648 6.49414 14.082 6.66016 14.082ZM2.75391 7.92969L3.48633 7.92969C3.66211 7.92969 3.78906 7.8125 3.78906 7.64648L3.78906 6.9043C3.78906 6.72852 3.66211 6.61133 3.48633 6.61133L2.75391 6.61133C2.58789 6.61133 2.4707 6.72852 2.4707 6.9043L2.4707 7.64648C2.4707 7.8125 2.58789 7.92969 2.75391 7.92969ZM4.70703 7.92969L5.43945 7.92969C5.60547 7.92969 5.73242 7.8125 5.73242 7.64648L5.73242 6.9043C5.73242 6.72852 5.60547 6.61133 5.43945 6.61133L4.70703 6.61133C4.54102 6.61133 4.42383 6.72852 4.42383 6.9043L4.42383 7.64648C4.42383 7.8125 4.54102 7.92969 4.70703 7.92969ZM2.75391 5.82031L3.48633 5.82031C3.66211 5.82031 3.78906 5.70312 3.78906 5.53711L3.78906 4.79492C3.78906 4.62891 3.66211 4.51172 3.48633 4.51172L2.75391 4.51172C2.58789 4.51172 2.4707 4.62891 2.4707 4.79492L2.4707 5.53711C2.4707 5.70312 2.58789 5.82031 2.75391 5.82031ZM4.70703 5.82031L5.43945 5.82031C5.60547 5.82031 5.73242 5.70312 5.73242 5.53711L5.73242 4.79492C5.73242 4.62891 5.60547 4.51172 5.43945 4.51172L4.70703 4.51172C4.54102 4.51172 4.42383 4.62891 4.42383 4.79492L4.42383 5.53711C4.42383 5.70312 4.54102 5.82031 4.70703 5.82031ZM6.66016 5.82031L7.38281 5.82031C7.55859 5.82031 7.68555 5.70312 7.68555 5.53711L7.68555 4.79492C7.68555 4.62891 7.55859 4.51172 7.38281 4.51172L6.66016 4.51172C6.49414 4.51172 6.37695 4.62891 6.37695 4.79492L6.37695 5.53711C6.37695 5.70312 6.49414 5.82031 6.66016 5.82031ZM2.75391 3.7207L3.48633 3.7207C3.66211 3.7207 3.78906 3.60352 3.78906 3.4375L3.78906 2.69531C3.78906 2.5293 3.66211 2.41211 3.48633 2.41211L2.75391 2.41211C2.58789 2.41211 2.4707 2.5293 2.4707 2.69531L2.4707 3.4375C2.4707 3.60352 2.58789 3.7207 2.75391 3.7207ZM4.70703 3.7207L5.43945 3.7207C5.60547 3.7207 5.73242 3.60352 5.73242 3.4375L5.73242 2.69531C5.73242 2.5293 5.60547 2.41211 5.43945 2.41211L4.70703 2.41211C4.54102 2.41211 4.42383 2.5293 4.42383 2.69531L4.42383 3.4375C4.42383 3.60352 4.54102 3.7207 4.70703 3.7207ZM6.66016 3.7207L7.38281 3.7207C7.55859 3.7207 7.68555 3.60352 7.68555 3.4375L7.68555 2.69531C7.68555 2.5293 7.55859 2.41211 7.38281 2.41211L6.66016 2.41211C6.49414 2.41211 6.37695 2.5293 6.37695 2.69531L6.37695 3.4375C6.37695 3.60352 6.49414 3.7207 6.66016 3.7207Z" fill="var(--color-primary)"/>
 </g>
</svg>
