<?xml version="1.0" encoding="UTF-8"?>
<!--Generator: Apple Native CoreSVG 326-->
<!DOCTYPE svg
PUBLIC "-//W3C//DTD SVG 1.1//EN"
       "http://www.w3.org/Graphics/SVG/1.1/DTD/svg11.dtd">
<svg version="1.1" xmlns="http://www.w3.org/2000/svg" xmlns:xlink="http://www.w3.org/1999/xlink" viewBox="0 0 16.1328 15.7715">
 <g>
  <rect height="15.7715" opacity="0" width="16.1328" x="0" y="0"/>
  <path d="M7.88086 15.7617C12.2363 15.7617 15.7715 12.2363 15.7715 7.88086C15.7715 3.52539 12.2363 0 7.88086 0C3.53516 0 0 3.52539 0 7.88086C0 12.2363 3.53516 15.7617 7.88086 15.7617ZM7.88086 14.2773C4.3457 14.2773 1.49414 11.416 1.49414 7.88086C1.49414 4.3457 4.3457 1.48438 7.88086 1.48438C11.416 1.48438 14.2773 4.3457 14.2773 7.88086C14.2773 11.416 11.416 14.2773 7.88086 14.2773Z" fill="white" fill-opacity="0.85"/>
  <path d="M2.73438 8.61328L5.60547 8.61328C6.00586 8.61328 6.09375 8.22266 5.86914 7.91992L4.57031 6.15234C4.35547 5.85938 3.97461 5.83008 3.75 6.15234L2.4707 7.91992C2.24609 8.22266 2.33398 8.61328 2.73438 8.61328ZM7.88086 12.2461C8.86719 12.2461 9.78516 11.9043 10.4297 11.416C10.8691 11.084 10.8887 10.625 10.6738 10.3418C10.4785 10.0879 10.0781 9.98047 9.62891 10.293C9.14062 10.6445 8.56445 10.8691 7.88086 10.8691C6.23047 10.8691 4.89258 9.53125 4.89258 7.88086L3.51562 7.88086C3.51562 10.293 5.46875 12.2461 7.88086 12.2461ZM13.0273 7.14844L10.1465 7.14844C9.75586 7.14844 9.66797 7.53906 9.88281 7.8418L11.1816 9.60938C11.3965 9.90234 11.7773 9.93164 12.0117 9.60938L13.291 7.8418C13.5059 7.53906 13.418 7.14844 13.0273 7.14844ZM7.88086 3.51562C6.88477 3.51562 5.97656 3.85742 5.32227 4.3457C4.88281 4.67773 4.86328 5.13672 5.08789 5.41992C5.2832 5.67383 5.67383 5.78125 6.12305 5.46875C6.61133 5.11719 7.19727 4.89258 7.88086 4.89258C9.52148 4.89258 10.8691 6.23047 10.8691 7.88086L12.2363 7.88086C12.2363 5.46875 10.2832 3.51562 7.88086 3.51562Z" fill="white" fill-opacity="0.85"/>
 </g>
</svg>
