<?xml version="1.0" encoding="UTF-8"?>
<!--Generator: Apple Native CoreSVG 326-->
<!DOCTYPE svg
PUBLIC "-//W3C//DTD SVG 1.1//EN"
       "http://www.w3.org/Graphics/SVG/1.1/DTD/svg11.dtd">
<svg version="1.1" xmlns="http://www.w3.org/2000/svg" xmlns:xlink="http://www.w3.org/1999/xlink" viewBox="0 0 18.4766 14.248">
 <g>
  <rect height="14.248" opacity="0" width="18.4766" x="0" y="0"/>
  <path d="M2.49023 14.248L15.625 14.248C17.2949 14.248 18.1152 13.4277 18.1152 11.7871L18.1152 2.4707C18.1152 0.830078 17.2949 0.00976562 15.625 0.00976562L2.49023 0.00976562C0.830078 0.00976562 0 0.830078 0 2.4707L0 11.7871C0 13.4277 0.830078 14.248 2.49023 14.248ZM2.50977 12.832C1.80664 12.832 1.40625 12.4512 1.40625 11.7188L1.40625 2.53906C1.40625 1.79688 1.80664 1.42578 2.50977 1.42578L15.6055 1.42578C16.3086 1.42578 16.709 1.79688 16.709 2.53906L16.709 11.7188C16.709 12.4512 16.3086 12.832 15.6055 12.832Z" fill="white" fill-opacity="0.85"/>
  <path d="M4.86328 6.83594C5.22461 6.83594 5.46875 6.57227 5.46875 6.19141L5.46875 5.40039L5.36133 4.47266L6.35742 5.54688L7.64648 6.82617C7.76367 6.95312 7.91992 7.02148 8.11523 7.02148C8.47656 7.02148 8.73047 6.76758 8.73047 6.39648C8.73047 6.23047 8.64258 6.06445 8.52539 5.95703L7.24609 4.6582L6.16211 3.67188L7.08008 3.7793L7.88086 3.7793C8.27148 3.7793 8.53516 3.53516 8.53516 3.16406C8.53516 2.80273 8.27148 2.55859 7.90039 2.55859L4.94141 2.55859C4.52148 2.55859 4.24805 2.75391 4.24805 3.24219L4.24805 6.17188C4.24805 6.55273 4.49219 6.83594 4.86328 6.83594ZM13.2617 7.42188C12.8906 7.42188 12.6465 7.68555 12.6465 8.06641L12.6465 8.85742L12.7637 9.77539L11.7578 8.71094L10.4785 7.43164C10.3516 7.30469 10.2051 7.23633 10.0098 7.23633C9.64844 7.23633 9.39453 7.48047 9.39453 7.86133C9.39453 8.01758 9.48242 8.19336 9.58984 8.30078L10.8789 9.59961L11.9629 10.5859L11.0352 10.4785L10.2441 10.4785C9.84375 10.4785 9.58008 10.7227 9.58008 11.0938C9.58008 11.4551 9.84375 11.6992 10.2246 11.6992L13.1738 11.6992C13.6035 11.6992 13.877 11.5039 13.877 11.0156L13.877 8.08594C13.877 7.70508 13.623 7.42188 13.2617 7.42188Z" fill="white" fill-opacity="0.85"/>
 </g>
</svg>
