<svg version="1.1" xmlns="http://www.w3.org/2000/svg" xmlns:xlink="http://www.w3.org/1999/xlink" viewBox="0 0 15.2539 15.3223">
 <g>
  <rect height="15.3223" opacity="0" width="15.2539" x="0" y="0"/>
  <path d="M1.50391 6.98242L5.55664 6.98242C6.45508 6.98242 6.97266 6.46484 6.97266 5.56641L6.97266 1.52344C6.97266 1.06445 6.63086 0.703125 6.16211 0.703125C5.70312 0.703125 5.36133 1.05469 5.36133 1.52344L5.36133 1.76758L5.53711 4.49219L3.70117 2.5293L1.43555 0.244141C1.2793 0.078125 1.08398 0.00976562 0.869141 0.00976562C0.371094 0.00976562 0 0.332031 0 0.830078C0 1.06445 0.0878906 1.2793 0.244141 1.44531L2.51953 3.71094L4.48242 5.54688L1.75781 5.38086L1.50391 5.38086C1.03516 5.38086 0.673828 5.70312 0.673828 6.17188C0.673828 6.64062 1.03516 6.98242 1.50391 6.98242ZM8.7207 14.6387C9.17969 14.6387 9.51172 14.2871 9.51172 13.8184L9.51172 13.5449L9.33594 10.8301L11.1719 12.7832L13.457 15.0879C13.6035 15.2441 13.8086 15.3223 14.0234 15.3223C14.5117 15.3223 14.8926 15 14.8926 14.502C14.8926 14.2676 14.8047 14.0527 14.6484 13.8867L12.3633 11.6016L10.4004 9.76562L13.125 9.94141L13.3984 9.94141C13.8672 9.94141 14.2188 9.60938 14.2188 9.14062C14.2188 8.67188 13.8672 8.33984 13.3984 8.33984L9.31641 8.33984C8.41797 8.33984 7.90039 8.85742 7.90039 9.75586L7.90039 13.8184C7.90039 14.2773 8.25195 14.6387 8.7207 14.6387Z" fill="var(--color-primary)"/>
 </g>
</svg>
