<?xml version="1.0" encoding="UTF-8"?>
<!--Generator: Apple Native CoreSVG 326-->
<!DOCTYPE svg
PUBLIC "-//W3C//DTD SVG 1.1//EN"
       "http://www.w3.org/Graphics/SVG/1.1/DTD/svg11.dtd">
<svg version="1.1" xmlns="http://www.w3.org/2000/svg" xmlns:xlink="http://www.w3.org/1999/xlink" viewBox="0 0 14.7559 12.3926">
 <g>
  <rect height="12.3926" opacity="0" width="14.7559" x="0" y="0"/>
  <path d="M0.830078 12.3926C1.28906 12.3926 1.61133 12.0703 1.61133 11.6113C1.61133 11.3086 1.5918 11.0742 1.5918 10.7422C1.5918 7.93945 2.5 6.79688 5.2832 6.79688L10.1758 6.79688L12.0801 6.65039L9.30664 9.16016L7.94922 10.5566C7.8125 10.6934 7.73438 10.8984 7.73438 11.1035C7.73438 11.543 8.07617 11.8652 8.50586 11.8652C8.71094 11.8652 8.90625 11.7871 9.08203 11.6211L14.1211 6.60156C14.2969 6.42578 14.3945 6.2207 14.3945 6.00586C14.3945 5.79102 14.2969 5.58594 14.1211 5.41016L9.08203 0.390625C8.90625 0.224609 8.71094 0.146484 8.50586 0.146484C8.07617 0.146484 7.73438 0.458984 7.73438 0.908203C7.73438 1.11328 7.8125 1.31836 7.94922 1.45508L9.30664 2.8418L12.0703 5.35156L10.1758 5.21484L5.20508 5.21484C1.47461 5.21484 0 6.86523 0 10.6641C0 11.1133 0.0195312 11.4844 0.078125 11.748C0.146484 12.0898 0.361328 12.3926 0.830078 12.3926Z" fill="white" fill-opacity="0.85"/>
 </g>
</svg>
