<?xml version="1.0" encoding="UTF-8"?>
<!--Generator: Apple Native CoreSVG 326-->
<!DOCTYPE svg
PUBLIC "-//W3C//DTD SVG 1.1//EN"
       "http://www.w3.org/Graphics/SVG/1.1/DTD/svg11.dtd">
<svg version="1.1" xmlns="http://www.w3.org/2000/svg" xmlns:xlink="http://www.w3.org/1999/xlink" viewBox="0 0 14.5898 14.248">
 <g>
  <rect height="14.248" opacity="0" width="14.5898" x="0" y="0"/>
  <path d="M2.49023 14.248L11.7383 14.248C13.4082 14.248 14.2285 13.4277 14.2285 11.7871L14.2285 2.4707C14.2285 0.830078 13.4082 0.00976562 11.7383 0.00976562L2.49023 0.00976562C0.830078 0.00976562 0 0.830078 0 2.4707L0 11.7871C0 13.4277 0.830078 14.248 2.49023 14.248ZM2.50977 12.832C1.80664 12.832 1.40625 12.4512 1.40625 11.7188L1.40625 2.53906C1.40625 1.79688 1.80664 1.42578 2.50977 1.42578L11.7188 1.42578C12.4219 1.42578 12.8223 1.79688 12.8223 2.53906L12.8223 11.7188C12.8223 12.4512 12.4219 12.832 11.7188 12.832Z" fill="white" fill-opacity="0.85"/>
  <path d="M3.21289 7.10938C3.21289 7.28516 3.27148 7.44141 3.44727 7.61719L5.83984 10.127C5.97656 10.2539 6.11328 10.332 6.29883 10.332C6.66016 10.332 6.91406 10.0684 6.91406 9.69727C6.91406 9.53125 6.8457 9.3457 6.70898 9.21875L5.53711 8.14453L5.11719 7.74414L6.2793 7.80273L10.3125 7.80273C10.6836 7.80273 10.9863 7.49023 10.9863 7.10938C10.9863 6.73828 10.6836 6.41602 10.3125 6.41602L6.2793 6.41602L5.11719 6.47461L5.53711 6.07422L6.70898 5C6.8457 4.87305 6.91406 4.69727 6.91406 4.53125C6.91406 4.16016 6.66016 3.88672 6.29883 3.88672C6.11328 3.88672 5.97656 3.96484 5.83984 4.10156L3.44727 6.60156C3.27148 6.77734 3.21289 6.93359 3.21289 7.10938Z" fill="white" fill-opacity="0.85"/>
 </g>
</svg>
