<?xml version="1.0" encoding="UTF-8"?>
<!--Generator: Apple Native CoreSVG 326-->
<!DOCTYPE svg
PUBLIC "-//W3C//DTD SVG 1.1//EN"
       "http://www.w3.org/Graphics/SVG/1.1/DTD/svg11.dtd">
<svg version="1.1" xmlns="http://www.w3.org/2000/svg" xmlns:xlink="http://www.w3.org/1999/xlink" viewBox="0 0 18.4766 14.248">
 <g>
  <rect height="14.248" opacity="0" width="18.4766" x="0" y="0"/>
  <path d="M18.1152 2.4707L18.1152 11.7871C18.1152 13.4277 17.2949 14.248 15.625 14.248L2.49023 14.248C0.830078 14.248 0 13.4277 0 11.7871L0 2.4707C0 0.830078 0.830078 0.00976562 2.49023 0.00976562L15.625 0.00976562C17.2949 0.00976562 18.1152 0.830078 18.1152 2.4707ZM9.4043 7.89062C9.4043 8.05664 9.49219 8.23242 9.60938 8.34961L10.9375 9.6875L12.0703 10.7227L11.1133 10.5957L10.2832 10.5957C9.87305 10.5957 9.59961 10.8496 9.59961 11.2402C9.59961 11.6211 9.87305 11.875 10.2637 11.875L13.3398 11.875C13.7695 11.875 14.0625 11.6699 14.0625 11.1621L14.0625 8.125C14.0625 7.72461 13.7988 7.43164 13.418 7.43164C13.0371 7.43164 12.7832 7.70508 12.7832 8.10547L12.7832 8.91602L12.9004 9.87305L11.8652 8.76953L10.5273 7.44141C10.4004 7.31445 10.2539 7.23633 10.0391 7.23633C9.66797 7.23633 9.4043 7.49023 9.4043 7.89062ZM4.78516 2.38281C4.35547 2.38281 4.0625 2.58789 4.0625 3.0957L4.0625 6.13281C4.0625 6.5332 4.31641 6.82617 4.69727 6.82617C5.08789 6.82617 5.3418 6.55273 5.3418 6.15234L5.3418 5.3418L5.22461 4.38477L6.25977 5.48828L7.58789 6.81641C7.71484 6.94336 7.87109 7.02148 8.07617 7.02148C8.45703 7.02148 8.7207 6.76758 8.7207 6.36719C8.7207 6.20117 8.62305 6.02539 8.50586 5.9082L7.17773 4.56055L6.04492 3.53516L7.01172 3.66211L7.83203 3.66211C8.24219 3.66211 8.51562 3.4082 8.51562 3.01758C8.51562 2.63672 8.24219 2.38281 7.85156 2.38281Z" fill="white" fill-opacity="0.85"/>
 </g>
</svg>
