<?xml version="1.0" encoding="UTF-8"?>
<!--Generator: Apple Native CoreSVG 326-->
<!DOCTYPE svg
PUBLIC "-//W3C//DTD SVG 1.1//EN"
       "http://www.w3.org/Graphics/SVG/1.1/DTD/svg11.dtd">
<svg version="1.1" xmlns="http://www.w3.org/2000/svg" xmlns:xlink="http://www.w3.org/1999/xlink" viewBox="0 0 15.2832 18.5645">
 <g>
  <rect height="18.5645" opacity="0" width="15.2832" x="0" y="0"/>
  <path d="M10.8594 1.86523L10.8594 2.98828L14.2773 2.98828C14.6289 2.98828 14.9219 3.28125 14.9219 3.64258C14.9219 4.00391 14.6387 4.29688 14.2773 4.29688L13.4694 4.29688L12.9688 15.2441C12.9102 16.416 12.1582 17.1387 10.9961 17.1387L3.93555 17.1387C2.75391 17.1387 2.02148 16.4258 1.96289 15.2539L1.45259 4.29688L0.644531 4.29688C0.302734 4.29688 0 4.00391 0 3.64258C0 3.28125 0.302734 2.98828 0.644531 2.98828L4.05273 2.98828L4.05273 1.86523C4.05273 0.712891 4.80469 0 6.02539 0L8.87695 0C10.1074 0 10.8594 0.712891 10.8594 1.86523ZM6.98242 6.93359L4.87305 8.96484C4.74609 9.07227 4.67773 9.20898 4.67773 9.38477C4.67773 9.7168 4.93164 9.96094 5.25391 9.96094C5.41992 9.96094 5.5957 9.89258 5.71289 9.76562L6.62109 8.76953L6.85547 8.53516L6.80664 9.375L6.80664 12.7832C6.80664 13.1152 7.11914 13.4082 7.45117 13.4082C7.79297 13.4082 8.10547 13.1152 8.10547 12.7832L8.10547 9.375L8.05664 8.53516L8.29102 8.76953L9.19922 9.76562C9.30664 9.89258 9.48242 9.96094 9.63867 9.96094C9.9707 9.96094 10.2344 9.7168 10.2344 9.38477C10.2344 9.20898 10.1562 9.07227 10.0391 8.96484L7.91992 6.93359C7.75391 6.77734 7.61719 6.71875 7.45117 6.71875C7.29492 6.71875 7.14844 6.77734 6.98242 6.93359ZM6.13281 1.29883C5.72266 1.29883 5.43945 1.5625 5.43945 1.96289L5.43945 2.98828L9.46289 2.98828L9.46289 1.96289C9.46289 1.5625 9.17969 1.29883 8.7793 1.29883Z" fill="white" fill-opacity="0.85"/>
 </g>
</svg>
