<?xml version="1.0" encoding="UTF-8"?>
<!--Generator: Apple Native CoreSVG 326-->
<!DOCTYPE svg
PUBLIC "-//W3C//DTD SVG 1.1//EN"
       "http://www.w3.org/Graphics/SVG/1.1/DTD/svg11.dtd">
<svg version="1.1" xmlns="http://www.w3.org/2000/svg" xmlns:xlink="http://www.w3.org/1999/xlink" viewBox="0 0 18.9844 14.3652">
 <g>
  <rect height="14.3652" opacity="0" width="18.9844" x="0" y="0"/>
  <path d="M11.3965 14.2969C11.8066 14.2969 12.1387 14.1309 12.5586 13.7402L18.6035 8.00781C18.877 7.76367 18.9844 7.44141 18.9844 7.1875C18.9844 6.91406 18.877 6.61133 18.6035 6.34766L12.5586 0.683594C12.0898 0.244141 11.8262 0.078125 11.416 0.078125C10.8398 0.078125 10.4102 0.537109 10.4102 1.10352L10.4102 3.98438L5.49805 3.98438C4.0625 3.98438 3.4668 4.56055 3.4668 5.95703L3.4668 7.61719L2.05078 7.61719C0.625 7.61719 0.0292969 8.19336 0.0292969 9.58984L0.0292969 12.3926C0.0292969 13.7891 0.625 14.3652 2.05078 14.3652L6.73828 14.3652C8.17383 14.3652 8.76953 13.7891 8.76953 12.3926L8.76953 10.6836L10.4102 10.6836L10.4102 13.3203C10.4102 13.8867 10.8398 14.2969 11.3965 14.2969ZM7.8125 12.5488L4.4043 11.1914C3.61328 10.8691 3.32031 10.5664 3.28125 9.91211C3.27148 9.76562 3.4375 9.73633 3.49609 9.86328C3.74023 10.4102 4.31641 10.6934 5.12695 10.6934L7.91016 10.6934L7.91016 12.5C7.91016 12.5488 7.86133 12.5684 7.8125 12.5488Z" fill="white" fill-opacity="0.85"/>
 </g>
</svg>
