<?xml version="1.0" encoding="UTF-8"?>
<!--Generator: Apple Native CoreSVG 326-->
<!DOCTYPE svg
PUBLIC "-//W3C//DTD SVG 1.1//EN"
       "http://www.w3.org/Graphics/SVG/1.1/DTD/svg11.dtd">
<svg version="1.1" xmlns="http://www.w3.org/2000/svg" xmlns:xlink="http://www.w3.org/1999/xlink" viewBox="0 0 14.6582 14.3066">
 <g>
  <rect height="14.3066" opacity="0" width="14.6582" x="0" y="0"/>
  <path d="M13.3789 0.927734C12.5488 0.107422 11.377 0 10.127 0L4.16992 0C2.91992 0 1.74805 0.107422 0.917969 0.927734C0.0976562 1.75781 0 2.91992 0 4.16992L0 10.127C0 11.3867 0.0976562 12.5391 0.917969 13.3691C1.74805 14.1895 2.91016 14.2969 4.16992 14.2969L10.127 14.2969C11.377 14.2969 12.5488 14.1895 13.3789 13.3691C14.1992 12.5391 14.2969 11.3867 14.2969 10.127L14.2969 4.16992C14.2969 2.91016 14.1992 1.75781 13.3789 0.927734ZM12.8906 3.95508L12.8906 10.3418C12.8906 11.0547 12.8125 11.8848 12.3535 12.3438C11.8945 12.8027 11.0547 12.8906 10.3418 12.8906L3.95508 12.8906C3.24219 12.8906 2.40234 12.8027 1.94336 12.3438C1.48438 11.8848 1.40625 11.0547 1.40625 10.3418L1.40625 3.96484C1.40625 3.24219 1.48438 2.41211 1.94336 1.95312C2.40234 1.49414 3.24219 1.40625 3.96484 1.40625L10.3418 1.40625C11.0547 1.40625 11.8945 1.49414 12.3535 1.95312C12.8125 2.41211 12.8906 3.24219 12.8906 3.95508Z" fill="white" fill-opacity="0.85"/>
  <path d="M7.1582 11.0352C7.33398 11.0352 7.49023 10.9766 7.66602 10.8008L10.166 8.4082C10.3027 8.27148 10.3711 8.13477 10.3711 7.94922C10.3711 7.58789 10.0977 7.33398 9.73633 7.33398C9.57031 7.33398 9.38477 7.40234 9.26758 7.53906L8.19336 8.71094L7.79297 9.13086L7.85156 7.96875L7.85156 3.93555C7.85156 3.57422 7.5293 3.26172 7.1582 3.26172C6.77734 3.26172 6.46484 3.57422 6.46484 3.93555L6.46484 7.96875L6.51367 9.13086L6.12305 8.71094L5.04883 7.53906C4.92188 7.40234 4.73633 7.33398 4.57031 7.33398C4.19922 7.33398 3.93555 7.58789 3.93555 7.94922C3.93555 8.13477 4.01367 8.27148 4.14062 8.4082L6.65039 10.8008C6.82617 10.9766 6.98242 11.0352 7.1582 11.0352Z" fill="white" fill-opacity="0.85"/>
 </g>
</svg>
