<svg version="1.1" xmlns="http://www.w3.org/2000/svg" xmlns:xlink="http://www.w3.org/1999/xlink" width="15.7031" height="14.7754" viewBox="0 0 15.7031 14.7754">
 <g>
  <rect height="14.7754" opacity="0" width="15.7031" x="0" y="0"/>
  <path d="M7.68555 14.7754C7.86133 14.7754 8.11523 14.6582 8.29102 14.541C12.6758 11.7676 15.3711 8.52539 15.3711 5.21484C15.3711 2.46094 13.4766 0.507812 11.0449 0.507812C9.51172 0.507812 8.39844 1.34766 7.68555 2.61719C6.98242 1.35742 5.85938 0.507812 4.32617 0.507812C1.89453 0.507812 0 2.46094 0 5.21484C0 8.52539 2.69531 11.7676 7.08008 14.541C7.25586 14.6582 7.51953 14.7754 7.68555 14.7754Z" fill="var(--color-tertiary)"/>
  <path d="M8.36914 10.3418C8.36914 10.7129 8.04688 11.0059 7.67578 11.0059C7.29492 11.0059 6.97266 10.7129 6.97266 10.3418L6.97266 7.77344L7.03125 6.57227L6.58203 7.05078L5.84961 7.79297C5.72266 7.91992 5.54688 7.99805 5.37109 7.99805C5 7.99805 4.73633 7.74414 4.73633 7.37305C4.73633 7.1875 4.81445 7.03125 4.95117 6.9043L7.16797 4.91211C7.36328 4.73633 7.49023 4.67773 7.67578 4.67773C7.85156 4.67773 7.97852 4.73633 8.17383 4.91211L10.4004 6.9043C10.5273 7.03125 10.6055 7.1875 10.6055 7.37305C10.6055 7.74414 10.3223 7.99805 9.9707 7.99805C9.78516 7.99805 9.61914 7.91992 9.49219 7.79297L8.75977 7.05078L8.31055 6.57227L8.36914 7.77344Z" fill="var(--color-primary)"/>
 </g>
</svg>
