<?xml version="1.0" encoding="UTF-8"?>
<!--Generator: Apple Native CoreSVG 326-->
<!DOCTYPE svg
PUBLIC "-//W3C//DTD SVG 1.1//EN"
       "http://www.w3.org/Graphics/SVG/1.1/DTD/svg11.dtd">
<svg version="1.1" xmlns="http://www.w3.org/2000/svg" xmlns:xlink="http://www.w3.org/1999/xlink" viewBox="0 0 14.6582 14.3066">
 <g>
  <rect height="14.3066" opacity="0" width="14.6582" x="0" y="0"/>
  <path d="M13.3789 0.927734C14.1992 1.75781 14.2969 2.91016 14.2969 4.16992L14.2969 10.127C14.2969 11.3867 14.1992 12.5391 13.3789 13.3691C12.5488 14.1895 11.377 14.2969 10.127 14.2969L4.16992 14.2969C2.91016 14.2969 1.74805 14.1895 0.917969 13.3691C0.0976562 12.5391 0 11.3867 0 10.127L0 4.16992C0 2.91992 0.0976562 1.75781 0.917969 0.927734C1.74805 0.107422 2.91992 0 4.16992 0L10.127 0C11.377 0 12.5488 0.107422 13.3789 0.927734ZM6.41602 3.81836L6.41602 7.99805L6.47461 9.20898L6.06445 8.76953L4.94141 7.55859C4.82422 7.41211 4.62891 7.34375 4.44336 7.34375C4.07227 7.34375 3.79883 7.60742 3.79883 7.97852C3.79883 8.17383 3.87695 8.32031 4.01367 8.45703L6.61133 10.9375C6.79688 11.123 6.95312 11.1816 7.13867 11.1816C7.32422 11.1816 7.48047 11.123 7.66602 10.9375L10.2637 8.45703C10.4004 8.32031 10.4785 8.17383 10.4785 7.97852C10.4785 7.60742 10.1953 7.34375 9.82422 7.34375C9.63867 7.34375 9.45312 7.41211 9.33594 7.55859L8.21289 8.76953L7.80273 9.20898L7.86133 7.99805L7.86133 3.81836C7.86133 3.42773 7.5293 3.11523 7.13867 3.11523C6.74805 3.11523 6.41602 3.42773 6.41602 3.81836Z" fill="white" fill-opacity="0.85"/>
 </g>
</svg>
