<svg version="1.1" xmlns="http://www.w3.org/2000/svg" xmlns:xlink="http://www.w3.org/1999/xlink" viewBox="0 0 19.8828 12.4707">
 <g>
  <rect height="12.4707" opacity="0" width="19.8828" x="0" y="0"/>
  <path d="M14.0625 2.41211L14.0625 10.0488C14.0625 11.5723 13.1348 12.4609 11.6113 12.4609L3.47656 12.4609C1.95312 12.4609 1.02539 11.5723 1.02539 10.0488L1.02539 2.41211C1.02539 0.888672 2.04102 0 3.47656 0L11.709 0C13.2227 0 14.0625 0.888672 14.0625 2.41211ZM19.8828 2.23633L19.8828 10.2246C19.8828 10.8691 19.4727 11.3281 18.8477 11.3281C18.5742 11.3281 18.252 11.1816 17.9883 10.9473L15.1953 8.49609L15.1953 3.96484L17.9883 1.51367C18.252 1.2793 18.5742 1.13281 18.8477 1.13281C19.4727 1.13281 19.8828 1.5918 19.8828 2.23633ZM5.79102 2.95898C5.41992 2.95898 5.13672 3.26172 5.13672 3.63281C5.13672 3.98438 5.43945 4.23828 5.79102 4.23828L6.61133 4.23828L8.90625 4.0918L7.54883 5.30273L4.48242 8.37891C4.33594 8.53516 4.26758 8.69141 4.26758 8.87695C4.26758 9.23828 4.56055 9.51172 4.94141 9.51172C5.13672 9.51172 5.27344 9.45312 5.41016 9.31641L8.48633 6.24023L9.69727 4.90234L9.54102 7.1875L9.54102 8.00781C9.54102 8.34961 9.80469 8.65234 10.1562 8.65234C10.5176 8.65234 10.8301 8.36914 10.8301 8.00781L10.8301 3.68164C10.8301 3.20312 10.5957 2.95898 10.1172 2.95898Z" fill="var(--color-primary)"/>
 </g>
</svg>
