<?xml version="1.0" encoding="UTF-8"?>
<!--Generator: Apple Native CoreSVG 326-->
<!DOCTYPE svg
PUBLIC "-//W3C//DTD SVG 1.1//EN"
       "http://www.w3.org/Graphics/SVG/1.1/DTD/svg11.dtd">
<svg version="1.1" xmlns="http://www.w3.org/2000/svg" xmlns:xlink="http://www.w3.org/1999/xlink" viewBox="0 0 16.1328 15.7715">
 <g>
  <rect height="15.7715" opacity="0" width="16.1328" x="0" y="0"/>
  <path d="M7.88086 15.7617C12.2363 15.7617 15.7715 12.2363 15.7715 7.88086C15.7715 3.52539 12.2363 0 7.88086 0C3.53516 0 0 3.52539 0 7.88086C0 12.2363 3.53516 15.7617 7.88086 15.7617ZM7.88086 14.2773C4.3457 14.2773 1.49414 11.416 1.49414 7.88086C1.49414 4.3457 4.3457 1.48438 7.88086 1.48438C11.416 1.48438 14.2773 4.3457 14.2773 7.88086C14.2773 11.416 11.416 14.2773 7.88086 14.2773Z" fill="white" fill-opacity="0.85"/>
  <path d="M4.50195 10.1855C4.50195 10.6934 4.75586 10.9863 5.20508 10.9766C5.6543 10.9668 5.9082 10.6934 5.9082 10.1855L5.9082 8.20312C5.9082 7.58789 6.24023 7.28516 6.81641 7.28516L8.71094 7.28516L8.71094 8.4668C8.71094 9.00391 9.31641 9.26758 9.78516 8.85742L11.6309 7.23633C12.1387 6.79688 12.1387 6.35742 11.6309 5.91797L9.78516 4.29688C9.31641 3.88672 8.71094 4.15039 8.71094 4.6875L8.71094 5.86914L6.79688 5.86914C5.25391 5.86914 4.50195 6.61133 4.50195 8.13477Z" fill="white" fill-opacity="0.85"/>
 </g>
</svg>
