<?xml version="1.0" encoding="UTF-8"?>
<!--Generator: Apple Native CoreSVG 326-->
<!DOCTYPE svg
PUBLIC "-//W3C//DTD SVG 1.1//EN"
       "http://www.w3.org/Graphics/SVG/1.1/DTD/svg11.dtd">
<svg version="1.1" xmlns="http://www.w3.org/2000/svg" xmlns:xlink="http://www.w3.org/1999/xlink" viewBox="0 0 14.5898 14.248">
 <g>
  <rect height="14.248" opacity="0" width="14.5898" x="0" y="0"/>
  <path d="M14.2285 2.4707L14.2285 11.7871C14.2285 13.4277 13.4082 14.248 11.7383 14.248L2.49023 14.248C0.830078 14.248 0 13.4277 0 11.7871L0 2.4707C0 0.830078 0.830078 0.00976562 2.49023 0.00976562L11.7383 0.00976562C13.4082 0.00976562 14.2285 0.830078 14.2285 2.4707ZM4.20898 3.4668L2.32422 5.40039C2.23633 5.51758 2.14844 5.68359 2.14844 5.81055C2.14844 6.14258 2.39258 6.38672 2.73438 6.38672C2.88086 6.38672 3.02734 6.31836 3.125 6.21094L3.87695 5.44922L4.07227 5.21484L4.0625 5.52734L4.0625 10.4102C4.0625 10.7324 4.30664 10.9766 4.63867 10.9766C4.98047 10.9766 5.22461 10.7324 5.22461 10.4102L5.22461 5.51758L5.20508 5.21484L5.41016 5.44922L6.15234 6.23047C6.25 6.32812 6.39648 6.38672 6.55273 6.38672C6.88477 6.38672 7.11914 6.15234 7.11914 5.81055C7.11914 5.67383 7.05078 5.49805 6.94336 5.40039L5.06836 3.4668C4.83398 3.23242 4.46289 3.21289 4.20898 3.4668ZM9.00391 3.85742L9.00391 8.75L9.02344 9.04297L8.82812 8.80859L8.07617 8.04688C7.97852 7.92969 7.83203 7.88086 7.67578 7.88086C7.33398 7.88086 7.10938 8.11523 7.10938 8.44727C7.10938 8.58398 7.17773 8.74023 7.27539 8.86719L9.15039 10.8008C9.38477 11.0352 9.79492 11.0352 10.0293 10.8008L11.8945 8.86719C12.002 8.75 12.0801 8.59375 12.0801 8.44727C12.0801 8.11523 11.8457 7.88086 11.5039 7.88086C11.3477 7.88086 11.2109 7.93945 11.1035 8.04688L10.3613 8.80859L10.1562 9.0332L10.166 8.74023L10.166 3.85742C10.166 3.52539 9.92188 3.28125 9.59961 3.28125C9.25781 3.28125 9.00391 3.52539 9.00391 3.85742Z" fill="white" fill-opacity="0.85"/>
 </g>
</svg>
