<svg version="1.1" xmlns="http://www.w3.org/2000/svg" xmlns:xlink="http://www.w3.org/1999/xlink" width="15.1758" height="14.834" viewBox="0 0 15.1758 14.834">
 <g>
  <rect height="14.834" opacity="0" width="15.1758" x="0" y="0"/>
  <path d="M0 4.23828C0 5.00977 0.820312 5.20508 1.31836 4.70703L4.70703 1.31836C5.20508 0.820312 5 0 4.23828 0L0.791016 0C0.3125 0 0 0.341797 0 0.800781ZM2.10938 3.21289L11.5918 12.7051L12.7051 11.6016L3.22266 2.10938ZM14.8145 10.5762C14.8145 9.80469 13.9941 9.60938 13.4961 10.1074L10.1074 13.4961C9.60938 13.9941 9.80469 14.8145 10.5762 14.8145L14.0234 14.8145C14.502 14.8145 14.8145 14.4727 14.8145 14.0137ZM14.8145 4.23828L14.8145 0.800781C14.8145 0.341797 14.502 0 14.0234 0L10.5762 0C9.80469 0 9.60938 0.820312 10.1074 1.31836L13.4961 4.70703C13.9941 5.20508 14.8145 5.00977 14.8145 4.23828ZM3.22266 12.7051L12.7051 3.21289L11.5918 2.10938L2.10938 11.6016ZM0 10.5762L0 14.0137C0 14.4727 0.3125 14.8145 0.791016 14.8145L4.23828 14.8145C5 14.8145 5.20508 13.9941 4.70703 13.4961L1.31836 10.1074C0.820312 9.60938 0 9.80469 0 10.5762Z" fill="var(--color-primary)"/>
 </g>
</svg>
