<?xml version="1.0" encoding="UTF-8"?>
<!--Generator: Apple Native CoreSVG 326-->
<!DOCTYPE svg
PUBLIC "-//W3C//DTD SVG 1.1//EN"
       "http://www.w3.org/Graphics/SVG/1.1/DTD/svg11.dtd">
<svg version="1.1" xmlns="http://www.w3.org/2000/svg" xmlns:xlink="http://www.w3.org/1999/xlink" viewBox="0 0 13.9941 18.2715">
 <g>
  <rect height="18.2715" opacity="0" width="13.9941" x="0" y="0"/>
  <path d="M0 9.7168C0 13.4766 3.04688 16.5332 6.81641 16.5332C10.5859 16.5332 13.6328 13.4766 13.6328 9.7168C13.6328 9.27734 13.3301 8.97461 12.9004 8.97461C12.4902 8.97461 12.2266 9.27734 12.2266 9.70703C12.2266 12.6953 9.80469 15.1074 6.81641 15.1074C3.82812 15.1074 1.40625 12.6953 1.40625 9.70703C1.40625 6.71875 3.82812 4.29688 6.81641 4.29688C7.32422 4.29688 7.7832 4.31641 8.19336 4.4043L6.12305 6.43555C5.98633 6.5625 5.92773 6.74805 5.92773 6.92383C5.92773 7.32422 6.23047 7.62695 6.61133 7.62695C6.83594 7.62695 6.99219 7.54883 7.11914 7.43164L10.2051 4.3457C10.3418 4.20898 10.4102 4.04297 10.4102 3.83789C10.4102 3.65234 10.332 3.4668 10.2051 3.33984L7.11914 0.214844C7.00195 0.078125 6.82617 0 6.61133 0C6.23047 0 5.92773 0.322266 5.92773 0.722656C5.92773 0.908203 5.99609 1.08398 6.11328 1.2207L7.91016 2.99805C7.55859 2.92969 7.1875 2.90039 6.81641 2.90039C3.04688 2.90039 0 5.94727 0 9.7168Z" fill="white" fill-opacity="0.85"/>
 </g>
</svg>
