<?xml version="1.0" encoding="UTF-8"?>
<!--Generator: Apple Native CoreSVG 326-->
<!DOCTYPE svg
PUBLIC "-//W3C//DTD SVG 1.1//EN"
       "http://www.w3.org/Graphics/SVG/1.1/DTD/svg11.dtd">
<svg version="1.1" xmlns="http://www.w3.org/2000/svg" xmlns:xlink="http://www.w3.org/1999/xlink" viewBox="0 0 14.7559 13.1543">
 <g>
  <rect height="13.1543" opacity="0" width="14.7559" x="0" y="0"/>
  <path d="M0.830078 0C0.361328 0 0.146484 0.302734 0.078125 0.644531C0.0195312 0.898438 0 1.2793 0 1.72852C0 5.51758 1.47461 7.17773 5.20508 7.17773L10.1758 7.17773L12.0703 7.04102L9.30664 9.54102L7.94922 10.9375C7.8125 11.0742 7.73438 11.2793 7.73438 11.4844C7.73438 11.9238 8.07617 12.2461 8.50586 12.2461C8.71094 12.2461 8.90625 12.168 9.08203 12.002L14.1211 6.98242C14.2969 6.80664 14.3945 6.60156 14.3945 6.38672C14.3945 6.17188 14.2969 5.9668 14.1211 5.79102L9.08203 0.771484C8.90625 0.595703 8.71094 0.527344 8.50586 0.527344C8.07617 0.527344 7.73438 0.839844 7.73438 1.28906C7.73438 1.49414 7.8125 1.69922 7.94922 1.83594L9.30664 3.22266L12.0801 5.74219L10.1758 5.5957L5.2832 5.5957C2.5 5.5957 1.5918 4.45312 1.5918 1.65039C1.5918 1.31836 1.61133 1.08398 1.61133 0.78125C1.61133 0.3125 1.28906 0 0.830078 0Z" fill="white" fill-opacity="0.85"/>
 </g>
</svg>
