<svg version="1.1" xmlns="http://www.w3.org/2000/svg" xmlns:xlink="http://www.w3.org/1999/xlink" viewBox="0 0 16.1328 15.7715">
 <g>
  <rect height="15.7715" opacity="0" width="16.1328" x="0" y="0"/>
  <path d="M15.7715 7.89062C15.7715 12.2363 12.2363 15.7715 7.88086 15.7715C3.53516 15.7715 0 12.2363 0 7.89062C0 3.54492 3.53516 0.00976562 7.88086 0.00976562C12.2363 0.00976562 15.7715 3.54492 15.7715 7.89062ZM7.1582 3.27148C6.54297 3.27148 6.16211 3.65234 6.16211 4.29688L6.16211 7.77344L4.48242 7.77344C4.16016 7.77344 3.94531 8.00781 3.94531 8.32031C3.94531 8.55469 4.0332 8.73047 4.24805 8.95508L7.42188 12.3145C7.56836 12.4707 7.74414 12.5293 7.88086 12.5293C8.03711 12.5293 8.20312 12.4707 8.34961 12.3145L11.4844 8.95508C11.7285 8.70117 11.8262 8.56445 11.8262 8.33984C11.8262 8.00781 11.5625 7.77344 11.2598 7.77344L9.60938 7.77344L9.60938 4.29688C9.60938 3.65234 9.23828 3.27148 8.60352 3.27148Z" fill="var(--color-primary)"/>
 </g>
</svg>
