<?xml version="1.0" encoding="UTF-8"?>
<!--Generator: Apple Native CoreSVG 326-->
<!DOCTYPE svg
PUBLIC "-//W3C//DTD SVG 1.1//EN"
       "http://www.w3.org/Graphics/SVG/1.1/DTD/svg11.dtd">
<svg version="1.1" xmlns="http://www.w3.org/2000/svg" xmlns:xlink="http://www.w3.org/1999/xlink" viewBox="0 0 16.1328 15.7715">
 <g>
  <rect height="15.7715" opacity="0" width="16.1328" x="0" y="0"/>
  <path d="M15.7715 7.89062C15.7715 12.2363 12.2363 15.7715 7.88086 15.7715C3.53516 15.7715 0 12.2363 0 7.89062C0 3.54492 3.53516 0.00976562 7.88086 0.00976562C12.2363 0.00976562 15.7715 3.54492 15.7715 7.89062ZM6.5332 3.83789L3.20312 6.95312C3.05664 7.08984 2.99805 7.25586 2.99805 7.41211C2.99805 7.56836 3.05664 7.72461 3.20312 7.87109L6.5332 11.0059C6.75781 11.2207 6.93359 11.3086 7.1582 11.3086C7.48047 11.3086 7.71484 11.084 7.71484 10.7812L7.71484 9.21875L7.8125 9.21875C9.35547 9.21875 10.3613 9.59961 11.123 10.9863C11.2695 11.2695 11.5039 11.3086 11.6895 11.3086C11.9336 11.3086 12.168 11.1035 12.168 10.6934C12.168 7.64648 10.9375 5.60547 7.8125 5.60547L7.71484 5.60547L7.71484 4.07227C7.71484 3.76953 7.48047 3.50586 7.14844 3.50586C6.92383 3.50586 6.78711 3.60352 6.5332 3.83789Z" fill="white" fill-opacity="0.85"/>
 </g>
</svg>
