<?xml version="1.0" encoding="UTF-8"?>
<!--Generator: Apple Native CoreSVG 326-->
<!DOCTYPE svg
PUBLIC "-//W3C//DTD SVG 1.1//EN"
       "http://www.w3.org/Graphics/SVG/1.1/DTD/svg11.dtd">
<svg version="1.1" xmlns="http://www.w3.org/2000/svg" xmlns:xlink="http://www.w3.org/1999/xlink" viewBox="0 0 16.1328 15.7715">
 <g>
  <rect height="15.7715" opacity="0" width="16.1328" x="0" y="0"/>
  <path d="M15.7715 7.89062C15.7715 12.2363 12.2363 15.7715 7.88086 15.7715C3.53516 15.7715 0 12.2363 0 7.89062C0 3.54492 3.53516 0.00976562 7.88086 0.00976562C12.2363 0.00976562 15.7715 3.54492 15.7715 7.89062ZM7.42188 5.61523L4.78516 8.33008C4.67773 8.4375 4.60938 8.63281 4.60938 8.75977C4.60938 9.11133 4.84375 9.35547 5.18555 9.35547C5.36133 9.35547 5.50781 9.30664 5.60547 9.18945L5.9375 8.80859L7.37305 7.1582L7.26562 8.61328L7.26562 12.0605C7.26562 12.4121 7.50977 12.666 7.87109 12.666C8.21289 12.666 8.4668 12.4121 8.4668 12.0605L8.4668 8.61328L8.37891 7.16797L9.79492 8.80859L10.1562 9.18945C10.2734 9.30664 10.4297 9.35547 10.5957 9.35547C10.9277 9.35547 11.1621 9.0918 11.1621 8.75977C11.1621 8.61328 11.123 8.45703 10.9766 8.33008L8.33008 5.61523C8.19336 5.48828 8.04688 5.40039 7.87109 5.40039C7.70508 5.40039 7.55859 5.46875 7.42188 5.61523ZM4.89258 3.64258C4.55078 3.64258 4.30664 3.89648 4.30664 4.24805C4.30664 4.58984 4.55078 4.84375 4.89258 4.84375L10.8789 4.84375C11.2207 4.84375 11.4648 4.58984 11.4648 4.24805C11.4648 3.89648 11.2207 3.64258 10.8789 3.64258Z" fill="white" fill-opacity="0.85"/>
 </g>
</svg>
