<svg version="1.1" xmlns="http://www.w3.org/2000/svg" xmlns:xlink="http://www.w3.org/1999/xlink" viewBox="0 0 16.1328 15.791">
 <g>
  <rect height="15.791" opacity="0" width="16.1328" x="0" y="0"/>
  <path d="M7.88086 15.7715C12.2363 15.7715 15.7715 12.2363 15.7715 7.89062C15.7715 3.53516 12.2363 0 7.88086 0C3.53516 0 0 3.53516 0 7.89062C0 12.2363 3.53516 15.7715 7.88086 15.7715ZM7.88086 14.2773C4.3457 14.2773 1.49414 11.4258 1.49414 7.89062C1.49414 4.35547 4.3457 1.49414 7.88086 1.49414C11.416 1.49414 14.2773 4.35547 14.2773 7.89062C14.2773 11.4258 11.416 14.2773 7.88086 14.2773Z" fill="var(--color-primary)"/>
  <path d="M7.90039 11.9824C8.34961 11.9824 8.60352 11.709 8.59375 11.2402L8.51562 9.02344L10.5273 10.3516C10.6543 10.4297 10.8008 10.4785 10.9668 10.4785C11.3281 10.4785 11.6602 10.2051 11.6602 9.74609C11.6602 9.47266 11.5234 9.26758 11.2402 9.12109L9.12109 7.94922L11.2402 6.79688C11.5234 6.64062 11.6602 6.44531 11.6602 6.16211C11.6602 5.71289 11.3281 5.43945 10.9668 5.43945C10.8008 5.43945 10.6445 5.48828 10.5273 5.56641L8.51562 6.85547L8.59375 4.56055C8.60352 4.08203 8.34961 3.80859 7.90039 3.80859C7.44141 3.80859 7.1582 4.10156 7.16797 4.56055L7.25586 6.85547L5.22461 5.57617C5.09766 5.48828 4.95117 5.43945 4.78516 5.43945C4.42383 5.43945 4.0918 5.71289 4.0918 6.16211C4.0918 6.44531 4.22852 6.64062 4.51172 6.80664L6.63086 7.94922L4.51172 9.12109C4.22852 9.26758 4.0918 9.46289 4.0918 9.74609C4.0918 10.1953 4.42383 10.4688 4.77539 10.4688C4.95117 10.4688 5.09766 10.4297 5.22461 10.3516L7.25586 9.02344L7.16797 11.2402C7.1582 11.6895 7.44141 11.9824 7.90039 11.9824Z" fill="var(--color-primary)"/>
 </g>
</svg>
