<svg version="1.1" xmlns="http://www.w3.org/2000/svg" xmlns:xlink="http://www.w3.org/1999/xlink" width="17.6218" height="15.7715" viewBox="0 0 17.6218 15.7715">
 <g>
  <rect height="15.7715" opacity="0" width="17.6218" x="0" y="0"/>
  <path d="M9.37242 15.7617C13.6791 15.7617 17.263 12.1875 17.263 7.88086C17.263 3.57422 13.6791 0 9.37242 0C5.06578 0 1.49156 3.56445 1.49156 7.87109L2.9857 7.87109C2.9857 4.31641 5.81773 1.49414 9.37242 1.49414C12.9271 1.49414 15.7689 4.32617 15.7689 7.88086C15.7689 11.4355 12.9271 14.2969 9.37242 14.2773C7.28258 14.2676 5.43687 13.291 4.28453 11.7578C4.02086 11.3965 3.60094 11.2891 3.23961 11.5137C2.87828 11.7285 2.79039 12.2168 3.08336 12.5977C4.55797 14.502 6.83336 15.7617 9.37242 15.7617ZM0.602889 6.35742C-0.0123451 6.35742-0.158829 6.77734 0.173202 7.24609L1.91148 9.7168C2.18492 10.0977 2.59508 10.0977 2.85875 9.7168L4.59703 7.23633C4.9193 6.77734 4.76305 6.35742 4.15758 6.35742Z" fill="var(--color-secondary)"/>
  <path d="M6.14 9.51172C6.14 9.74609 6.29625 9.93164 6.55015 9.93164L6.94078 9.93164L6.60875 10.9473C6.56969 11.084 6.55992 11.1621 6.55992 11.2305C6.55992 11.5137 6.78453 11.7383 7.11656 11.7383C7.39 11.7383 7.57555 11.6113 7.66344 11.3184L8.08336 9.93164L10.642 9.93164L11.0619 11.3281C11.1498 11.6211 11.3158 11.7383 11.6087 11.7383C11.9408 11.7383 12.1654 11.5137 12.1654 11.2305C12.1654 11.1621 12.1459 11.084 12.1068 10.9473L11.7748 9.93164L12.1849 9.93164C12.4388 9.93164 12.5951 9.74609 12.5951 9.51172C12.5951 9.27734 12.4388 9.0918 12.1849 9.0918L11.5111 9.0918L11.306 8.47656L12.1849 8.47656C12.4388 8.47656 12.5951 8.29102 12.5951 8.05664C12.5951 7.82227 12.4388 7.63672 12.1849 7.63672L11.0326 7.63672L10.0365 4.56055C9.92906 4.25781 9.72398 4.0625 9.36265 4.0625C9.00133 4.0625 8.78648 4.24805 8.68883 4.56055L7.68297 7.63672L6.55015 7.63672C6.29625 7.63672 6.14 7.82227 6.14 8.05664C6.14 8.29102 6.29625 8.47656 6.55015 8.47656L7.40953 8.47656L7.21422 9.0918L6.55015 9.0918C6.29625 9.0918 6.14 9.27734 6.14 9.51172ZM8.33726 9.0918L8.52281 8.47656L10.2025 8.47656L10.3978 9.0918ZM8.77672 7.63672L9.36265 5.67383L9.95836 7.63672Z" fill="var(--color-primary)"/>
 </g>
</svg>
