<?xml version="1.0" encoding="UTF-8"?>
<!--Generator: Apple Native CoreSVG 326-->
<!DOCTYPE svg
PUBLIC "-//W3C//DTD SVG 1.1//EN"
       "http://www.w3.org/Graphics/SVG/1.1/DTD/svg11.dtd">
<svg version="1.1" xmlns="http://www.w3.org/2000/svg" xmlns:xlink="http://www.w3.org/1999/xlink" viewBox="0 0 18.9844 15.498">
 <g>
  <rect height="15.498" opacity="0" width="18.9844" x="0" y="0"/>
  <path d="M18.623 9.30664C18.623 7.03125 17.8125 4.94141 16.4453 3.31055C16.2891 3.125 16.0352 3.125 15.8594 3.30078L14.0332 5.13672C13.8867 5.2832 13.8867 5.48828 14.0137 5.6543C14.8047 6.66016 15.2734 7.92969 15.2734 9.30664C15.2734 10.6836 14.8047 11.9531 13.9551 13.0371C13.8574 13.1641 13.8672 13.3203 13.9746 13.4277L15.8594 15.3125C16.0352 15.4883 16.2891 15.4883 16.4453 15.3027C17.8125 13.6816 18.623 11.5918 18.623 9.30664Z" fill="white" fill-opacity="0.85"/>
  <path d="M9.31641 3.34961C10.7031 3.34961 11.9727 3.82812 12.9883 4.61914C13.1445 4.73633 13.3398 4.72656 13.4863 4.58008L15.3223 2.75391C15.498 2.57812 15.4883 2.32422 15.3027 2.16797C13.6816 0.810547 11.5918 0 9.31641 0C7.04102 0 4.94141 0.810547 3.33008 2.16797C3.14453 2.32422 3.13477 2.57812 3.31055 2.75391L5.13672 4.58008C5.2832 4.72656 5.48828 4.73633 5.6543 4.60938C6.66992 3.82812 7.93945 3.34961 9.31641 3.34961Z" fill="white" fill-opacity="0.85"/>
  <path d="M0 9.30664C0 11.5918 0.820312 13.6816 2.17773 15.3027C2.33398 15.4883 2.58789 15.4883 2.76367 15.3125L4.64844 13.4277C4.76562 13.3203 4.77539 13.1641 4.66797 13.0371C3.82812 11.9531 3.35938 10.6836 3.35938 9.30664C3.35938 7.92969 3.82812 6.66016 4.61914 5.6543C4.74609 5.48828 4.74609 5.2832 4.59961 5.13672L2.76367 3.30078C2.58789 3.125 2.33398 3.125 2.17773 3.31055C0.820312 4.94141 0 7.03125 0 9.30664Z" fill="white" fill-opacity="0.85"/>
  <path d="M7.10938 13.0176C7.36328 13.0176 7.5 12.9004 7.57812 12.6465L9.28711 6.94336L9.31641 6.94336L11.0254 12.6562C11.084 12.8809 11.2207 13.0176 11.5039 13.0176C11.7676 13.0176 11.9824 12.8711 11.9824 12.5879C11.9824 12.5 11.9629 12.4023 11.9434 12.3242L9.98047 6.26953C9.87305 5.9375 9.66797 5.75195 9.30664 5.75195C8.94531 5.75195 8.7207 5.94727 8.61328 6.26953L6.65039 12.3535C6.62109 12.4414 6.60156 12.5195 6.60156 12.5879C6.60156 12.8613 6.83594 13.0176 7.10938 13.0176ZM6.26953 9.58984C6.26953 9.73633 6.39648 9.86328 6.54297 9.86328L12.0508 9.86328C12.207 9.86328 12.3242 9.73633 12.3242 9.58984C12.3242 9.43359 12.207 9.31641 12.0508 9.31641L6.54297 9.31641C6.39648 9.31641 6.26953 9.43359 6.26953 9.58984ZM6.26953 10.9961C6.26953 11.1523 6.39648 11.2695 6.54297 11.2695L12.0508 11.2695C12.207 11.2695 12.3242 11.1523 12.3242 10.9961C12.3242 10.8398 12.207 10.7227 12.0508 10.7227L6.54297 10.7227C6.39648 10.7227 6.26953 10.8398 6.26953 10.9961Z" fill="white" fill-opacity="0.85"/>
 </g>
</svg>
