<?xml version="1.0" encoding="UTF-8"?>
<!--Generator: Apple Native CoreSVG 326-->
<!DOCTYPE svg
PUBLIC "-//W3C//DTD SVG 1.1//EN"
       "http://www.w3.org/Graphics/SVG/1.1/DTD/svg11.dtd">
<svg version="1.1" xmlns="http://www.w3.org/2000/svg" xmlns:xlink="http://www.w3.org/1999/xlink" viewBox="0 0 20.752 17.3535">
 <g>
  <rect height="17.3535" opacity="0" width="20.752" x="0" y="0"/>
  <path d="M0.849609 15.9473C1.30859 15.9473 1.5625 15.7324 1.69922 15.2832L2.68555 11.875L7.51953 11.875L8.51562 15.2832C8.65234 15.7324 8.91602 15.9473 9.38477 15.9473C9.85352 15.9473 10.2246 15.6641 10.2246 15.1855C10.2246 15.0586 10.166 14.8242 10.127 14.6875L6.33789 2.40234C6.15234 1.77734 5.78125 1.38672 5.11719 1.38672C4.44336 1.38672 4.08203 1.76758 3.88672 2.41211L0.107422 14.6875C0.0585938 14.834 0 15.0195 0 15.1855C0 15.6641 0.371094 15.9473 0.849609 15.9473ZM3.11523 10.4004L5.06836 3.62305L5.12695 3.62305L7.09961 10.4004ZM16.1621 15.5371C18.5742 15.5371 20.3906 14.2676 20.3906 11.8848C20.3906 9.77539 18.9941 8.92578 17.1777 8.1543L15.8594 7.59766C14.7363 7.11914 13.7109 6.49414 13.7109 5.25391C13.7109 3.97461 14.8242 3.30078 16.1133 3.30078C17.4609 3.30078 18.2129 4.07227 18.5352 5.38086C18.623 5.77148 18.8672 6.08398 19.3555 6.08398C19.8926 6.08398 20.2051 5.74219 20.1953 5.24414C20.1953 5.11719 20.1758 4.94141 20.1465 4.81445C19.6973 2.8125 18.0859 1.79688 16.1133 1.79688C13.8574 1.79688 12.0215 3.08594 12.0215 5.36133C12.0215 7.35352 13.3887 8.33008 15.127 9.0625L16.4551 9.62891C17.6758 10.1465 18.7109 10.7031 18.7109 12.041C18.7109 13.4082 17.666 14.0332 16.1621 14.0332C14.6094 14.0332 13.7793 13.3496 13.4668 11.9238C13.3691 11.4746 13.0762 11.1914 12.627 11.1914C12.1387 11.1914 11.8164 11.5234 11.8164 12.002C11.8164 12.1582 11.8359 12.3242 11.8652 12.4609C12.3047 14.541 14.0625 15.5371 16.1621 15.5371ZM16.084 17.3438C16.3965 17.3438 16.6504 17.0898 16.6504 16.7773L16.6504 0.566406C16.6504 0.253906 16.3965 0 16.084 0C15.7715 0 15.5176 0.253906 15.5176 0.566406L15.5176 16.7773C15.5176 17.0898 15.7715 17.3438 16.084 17.3438Z" fill="white" fill-opacity="0.85"/>
 </g>
</svg>
