<?xml version="1.0" encoding="UTF-8"?>
<!--Generator: Apple Native CoreSVG 326-->
<!DOCTYPE svg
PUBLIC "-//W3C//DTD SVG 1.1//EN"
       "http://www.w3.org/Graphics/SVG/1.1/DTD/svg11.dtd">
<svg version="1.1" xmlns="http://www.w3.org/2000/svg" xmlns:xlink="http://www.w3.org/1999/xlink" viewBox="0 0 17.7734 16.5527">
 <g>
  <rect height="16.5527" opacity="0" width="17.7734" x="0" y="0"/>
  <path d="M9.6875 0.283203L16.2109 4.04297C16.5234 4.23828 16.6797 4.46289 16.6797 4.72656C16.6797 5.07812 16.3965 5.42969 15.918 5.42969L15.2637 5.42969L15.2637 13.9941L15.752 13.9941C16.1133 13.9941 16.3184 14.1992 16.3184 14.5508L16.3184 15.127L16.709 15.127C17.0898 15.127 17.4121 15.4492 17.4121 15.8301C17.4121 16.2207 17.0898 16.543 16.709 16.543L0.703125 16.543C0.322266 16.543 0 16.2207 0 15.8301C0 15.4492 0.322266 15.127 0.703125 15.127L1.10352 15.127L1.10352 14.5508C1.10352 14.1992 1.30859 13.9941 1.66992 13.9941L2.1582 13.9941L2.1582 5.42969L1.49414 5.42969C1.01562 5.42969 0.732422 5.07812 0.732422 4.72656C0.732422 4.46289 0.878906 4.23828 1.20117 4.04297L7.72461 0.283203C8.03711 0.0976562 8.37891 0 8.71094 0C9.0332 0 9.375 0.0976562 9.6875 0.283203ZM10.6641 5.41992L10.6641 5.94727C9.82422 6.02539 9.19922 6.5332 9.19922 7.39258C9.19922 8.16406 9.62891 8.55469 10.4004 8.91602L10.6641 9.04297L10.6641 10.7227C10.2441 10.6445 10.0488 10.3613 9.9707 10.0293C9.90234 9.77539 9.75586 9.6582 9.55078 9.6582C9.31641 9.6582 9.14062 9.81445 9.14062 10.0684C9.14062 10.1562 9.15039 10.2441 9.16992 10.3223C9.30664 10.9375 9.91211 11.377 10.6641 11.4551L10.6641 11.9727C10.6641 12.0996 10.7617 12.1875 10.8789 12.1875C10.9961 12.1875 11.0938 12.0996 11.0938 11.9727L11.0938 11.4551C11.9629 11.3965 12.627 10.8984 12.627 9.96094C12.627 9.12109 12.1387 8.80859 11.377 8.45703L11.0938 8.32031L11.0938 6.67969C11.4258 6.74805 11.5918 7.00195 11.709 7.39258C11.7773 7.58789 11.8945 7.70508 12.0996 7.70508C12.3535 7.70508 12.5195 7.56836 12.5195 7.31445C12.5195 7.22656 12.5 7.11914 12.4707 7.01172C12.2852 6.38672 11.7969 6.00586 11.0938 5.94727L11.0938 5.41992C11.0938 5.30273 10.9961 5.20508 10.8789 5.20508C10.7617 5.20508 10.6641 5.30273 10.6641 5.41992ZM5.94727 6.30859L4.62891 10.9473C4.60938 11.0254 4.58008 11.123 4.58008 11.2207C4.58008 11.5039 4.78516 11.6406 5.0293 11.6406C5.25391 11.6406 5.40039 11.5137 5.45898 11.25L5.75195 10.127L7.5 10.127L7.79297 11.25C7.87109 11.5137 7.99805 11.6406 8.25195 11.6406C8.47656 11.6406 8.68164 11.5039 8.68164 11.2207C8.68164 11.1426 8.67188 11.0449 8.64258 10.9473L7.30469 6.30859C7.19727 5.94727 7.00195 5.76172 6.63086 5.76172C6.26953 5.76172 6.05469 5.95703 5.94727 6.30859ZM11.7676 10.0488C11.7676 10.4688 11.5234 10.6836 11.0938 10.7324L11.0938 9.23828C11.4648 9.42383 11.7676 9.63867 11.7676 10.0488ZM7.31445 9.4043L5.9375 9.4043L6.58203 6.83594L6.64062 6.83594ZM10.6641 8.10547C10.3418 7.93945 10.0488 7.71484 10.0488 7.33398C10.0488 6.95312 10.3125 6.72852 10.6641 6.66992Z" fill="white" fill-opacity="0.85"/>
 </g>
</svg>
