<?xml version="1.0" encoding="UTF-8"?>
<!--Generator: Apple Native CoreSVG 326-->
<!DOCTYPE svg
PUBLIC "-//W3C//DTD SVG 1.1//EN"
       "http://www.w3.org/Graphics/SVG/1.1/DTD/svg11.dtd">
<svg version="1.1" xmlns="http://www.w3.org/2000/svg" xmlns:xlink="http://www.w3.org/1999/xlink" viewBox="0 0 14.6764 16.7519">
 <g>
  <rect height="16.7519" opacity="0" width="14.6764" x="0" y="0"/>
  <path d="M0.751288 5.29489L1.27863 5.49021C1.9134 5.71482 2.5091 5.42185 2.75324 4.76755L3.84699 1.75974C4.09113 1.10544 3.80793 0.499972 3.18293 0.265597L2.65559 0.0800497C2.02082-0.154325 1.42512 0.138643 1.18098 0.79294L0.0872258 3.80075C-0.156915 4.45505 0.126288 5.06052 0.751288 5.29489ZM11.1321 5.29489L11.6595 5.49021C12.2943 5.71482 12.89 5.42185 13.1341 4.76755L14.2279 1.75974C14.472 1.10544 14.1888 0.499972 13.5638 0.265597L13.0364 0.0800497C12.4017-0.154325 11.806 0.138643 11.5618 0.79294L10.4681 3.80075C10.2239 4.45505 10.5071 5.06052 11.1321 5.29489ZM2.68488 3.48825L11.6302 3.48825L11.6302 2.07224L2.68488 2.07224ZM6.43488 10.3242C6.64973 10.2656 6.8841 10.2265 7.13801 10.2265C7.39191 10.2265 7.62629 10.2656 7.84113 10.3242L7.84113 2.07224L6.43488 2.07224ZM1.68879 16.7402L2.24543 16.7402C2.91926 16.7402 3.37824 16.2519 3.37824 15.5586L3.37824 12.3554C3.37824 11.6718 2.91926 11.1836 2.24543 11.1836L1.68879 11.1836C1.01496 11.1836 0.54621 11.6718 0.54621 12.3554L0.54621 15.5586C0.54621 16.2519 1.01496 16.7402 1.68879 16.7402ZM12.0696 16.7402L12.6263 16.7402C13.3001 16.7402 13.7591 16.2519 13.7591 15.5586L13.7591 12.3554C13.7591 11.6718 13.3001 11.1836 12.6263 11.1836L12.0696 11.1836C11.3958 11.1836 10.9368 11.6718 10.9368 12.3554L10.9368 15.5586C10.9368 16.2519 11.3958 16.7402 12.0696 16.7402ZM2.68488 14.6699L4.43293 14.6699L4.43293 13.8886C4.43293 13.6543 4.47199 13.4492 4.55988 13.2539L2.68488 13.2539ZM9.84309 14.6699L11.6302 14.6699L11.6302 13.2539L9.71613 13.2539C9.80402 13.4492 9.84309 13.6543 9.84309 13.8886Z" fill="white" fill-opacity="0.85"/>
  <path d="M5.90754 16.584L8.36848 16.584C8.84699 16.584 9.1009 16.3203 9.1009 15.8027L9.1009 13.9668C9.1009 13.5664 8.94465 13.3222 8.64191 13.2343L8.64191 12.6484C8.64191 11.6328 8.05598 10.998 7.13801 10.998C6.2298 10.998 5.6341 11.6328 5.6341 12.6484L5.6341 13.2343C5.33137 13.3222 5.16535 13.5566 5.16535 13.9668L5.16535 15.8027C5.16535 16.3203 5.42902 16.584 5.90754 16.584ZM6.29816 13.1953L6.29816 12.541C6.29816 12.0039 6.62043 11.6621 7.13801 11.6621C7.65559 11.6621 7.98762 12.0039 7.98762 12.541L7.98762 13.1953Z" fill="white" fill-opacity="0.85"/>
 </g>
</svg>
