<?xml version="1.0" encoding="UTF-8"?>
<!--Generator: Apple Native CoreSVG 326-->
<!DOCTYPE svg
PUBLIC "-//W3C//DTD SVG 1.1//EN"
       "http://www.w3.org/Graphics/SVG/1.1/DTD/svg11.dtd">
<svg version="1.1" xmlns="http://www.w3.org/2000/svg" xmlns:xlink="http://www.w3.org/1999/xlink" viewBox="0 0 12.4512 11.8652">
 <g>
  <rect height="11.8652" opacity="0" width="12.4512" x="0" y="0"/>
  <path d="M12.0898 10.7129L12.0898 1.14258C12.0898 0.371094 11.6504 0 11.123 0C10.8789 0 10.6348 0.0683594 10.3906 0.205078L2.35352 4.85352C1.69922 5.23438 1.46484 5.50781 1.46484 5.92773C1.46484 6.34766 1.69922 6.62109 2.35352 7.00195L10.3906 11.6504C10.6348 11.7871 10.8789 11.8555 11.123 11.8555C11.6504 11.8555 12.0898 11.4844 12.0898 10.7129ZM10.6836 9.9707C10.6836 10.0488 10.6348 10.1074 10.5664 10.1074C10.5371 10.1074 10.5078 10.0977 10.4883 10.0879L3.55469 6.03516C3.49609 6.00586 3.47656 5.9668 3.47656 5.92773C3.47656 5.88867 3.49609 5.84961 3.55469 5.82031L10.4883 1.76758C10.5078 1.75781 10.5371 1.74805 10.5664 1.74805C10.6348 1.74805 10.6836 1.80664 10.6836 1.88477ZM0.751953 11.8555C1.17188 11.8555 1.50391 11.5332 1.50391 11.123L1.50391 0.732422C1.50391 0.322266 1.17188 0 0.751953 0C0.332031 0 0 0.322266 0 0.732422L0 11.123C0 11.5332 0.332031 11.8555 0.751953 11.8555Z" fill="white" fill-opacity="0.85"/>
 </g>
</svg>
