<?xml version="1.0" encoding="UTF-8"?>
<!--Generator: Apple Native CoreSVG 326-->
<!DOCTYPE svg
PUBLIC "-//W3C//DTD SVG 1.1//EN"
       "http://www.w3.org/Graphics/SVG/1.1/DTD/svg11.dtd">
<svg version="1.1" xmlns="http://www.w3.org/2000/svg" xmlns:xlink="http://www.w3.org/1999/xlink" viewBox="0 0 16.1328 15.7715">
 <g>
  <rect height="15.7715" opacity="0" width="16.1328" x="0" y="0"/>
  <path d="M15.7715 7.88086C15.7715 12.2266 12.2363 15.7617 7.88086 15.7617C3.53516 15.7617 0 12.2266 0 7.88086C0 3.53516 3.53516 0 7.88086 0C12.2363 0 15.7715 3.53516 15.7715 7.88086ZM11.3867 5.12695L7.70508 7.30469C7.53906 7.39258 7.43164 7.5 7.36328 7.62695L7.36328 5.64453C7.36328 5.21484 7.10938 4.99023 6.80664 4.99023C6.64062 4.99023 6.52344 5.0293 6.35742 5.12695L2.66602 7.30469C2.38281 7.4707 2.26562 7.66602 2.26562 7.89062C2.26562 8.11523 2.38281 8.31055 2.66602 8.48633L6.35742 10.6543C6.52344 10.752 6.64062 10.791 6.80664 10.791C7.10938 10.791 7.36328 10.5664 7.36328 10.1367L7.36328 8.1543C7.43164 8.28125 7.53906 8.38867 7.70508 8.48633L11.3867 10.6543C11.5527 10.752 11.6797 10.791 11.8457 10.791C12.1484 10.791 12.4023 10.5664 12.4023 10.1367L12.4023 5.64453C12.4023 5.21484 12.1484 4.99023 11.8457 4.99023C11.6797 4.99023 11.5527 5.0293 11.3867 5.12695Z" fill="white" fill-opacity="0.85"/>
 </g>
</svg>
