<svg version="1.1" xmlns="http://www.w3.org/2000/svg" xmlns:xlink="http://www.w3.org/1999/xlink" width="16.1328" height="15.7715" viewBox="0 0 16.1328 15.7715">
 <g>
  <rect height="15.7715" opacity="0" width="16.1328" x="0" y="0"/>
  <path d="M7.88086 15.7715C12.1875 15.7715 15.7715 12.1973 15.7715 7.89062C15.7715 3.58398 12.1777 0.00976562 7.87109 0.00976562C3.57422 0.00976562 0 3.58398 0 7.89062C0 12.1973 3.58398 15.7715 7.88086 15.7715Z" fill="var(--color-tertiary)"/>
  <path d="M5.54688 11.8359C4.64844 11.8359 4.19922 11.3965 4.19922 10.5273L4.19922 6.29883C4.19922 5.41992 4.64844 5 5.54688 5L6.14258 5C6.16211 4.0918 6.95312 3.34961 7.88086 3.34961C8.80859 3.34961 9.60938 4.0918 9.62891 5L10.2246 5C11.123 5 11.5723 5.41992 11.5723 6.29883L11.5723 10.5273C11.5723 11.3965 11.1328 11.8359 10.3809 11.8359ZM7.00195 5L8.76953 5C8.75 4.49219 8.4082 4.16016 7.88086 4.16016C7.35352 4.16016 7.02148 4.49219 7.00195 5Z" fill="var(--color-primary)"/>
 </g>
</svg>
