<?xml version="1.0" encoding="UTF-8"?>
<!--Generator: Apple Native CoreSVG 326-->
<!DOCTYPE svg
PUBLIC "-//W3C//DTD SVG 1.1//EN"
       "http://www.w3.org/Graphics/SVG/1.1/DTD/svg11.dtd">
<svg version="1.1" xmlns="http://www.w3.org/2000/svg" xmlns:xlink="http://www.w3.org/1999/xlink" viewBox="0 0 19.1159 15.7715">
 <g>
  <rect height="15.7715" opacity="0" width="19.1159" x="0" y="0"/>
  <path d="M9.37242 15.7617C13.7279 15.7617 17.263 12.2363 17.263 7.88086C17.263 3.52539 13.7279 0 9.37242 0C5.02672 0 1.49156 3.52539 1.49156 7.88086L2.9857 7.88086C2.9857 4.3457 5.83726 1.48438 9.37242 1.48438C12.9076 1.48438 15.7689 4.3457 15.7689 7.88086C15.7689 11.416 12.9076 14.2773 9.37242 14.2773C7.29234 14.2773 5.44664 13.2812 4.2943 11.7578C4.02086 11.3965 3.60094 11.2891 3.23961 11.5137C2.88805 11.7285 2.78062 12.2266 3.08336 12.6074C4.53844 14.5508 6.83336 15.7617 9.37242 15.7617ZM0.602889 6.35742C-0.0123451 6.35742-0.158829 6.77734 0.173202 7.24609L1.91148 9.7168C2.18492 10.0977 2.59508 10.0977 2.85875 9.7168L4.59703 7.23633C4.9193 6.77734 4.77281 6.35742 4.16734 6.35742Z" fill="white" fill-opacity="0.85"/>
  <path d="M7.84898 11.3086L9.74351 11.3086C11.0814 11.3086 12.1068 10.7031 12.1068 9.375C12.1068 8.4375 11.4818 7.79297 10.5345 7.68555L10.5345 7.63672C11.2474 7.5293 11.765 6.8457 11.765 6.14258C11.765 4.96094 10.7787 4.41406 9.74351 4.41406L7.84898 4.41406C7.44859 4.41406 7.23375 4.67773 7.23375 5.03906L7.23375 10.6934C7.23375 11.0449 7.45836 11.3086 7.84898 11.3086ZM8.22008 7.35352L8.22008 5.24414L9.49937 5.24414C10.2318 5.24414 10.7787 5.53711 10.7787 6.25977C10.7787 7.08008 10.0951 7.35352 9.27476 7.35352ZM8.22008 10.4883L8.22008 8.16406L9.48961 8.16406C10.3783 8.16406 11.1009 8.42773 11.1009 9.31641C11.1009 10.1855 10.4271 10.4883 9.55797 10.4883ZM9.37242 12.168C9.5482 12.168 9.65562 12.0508 9.65562 11.8848L9.65562 3.75C9.65562 3.58398 9.53844 3.4668 9.37242 3.4668C9.2064 3.4668 9.08922 3.58398 9.08922 3.75L9.08922 11.8848C9.08922 12.0508 9.2064 12.168 9.37242 12.168Z" fill="white" fill-opacity="0.85"/>
 </g>
</svg>
