<?xml version="1.0" encoding="UTF-8"?>
<!--Generator: Apple Native CoreSVG 326-->
<!DOCTYPE svg
PUBLIC "-//W3C//DTD SVG 1.1//EN"
       "http://www.w3.org/Graphics/SVG/1.1/DTD/svg11.dtd">
<svg version="1.1" xmlns="http://www.w3.org/2000/svg" xmlns:xlink="http://www.w3.org/1999/xlink" viewBox="0 0 16.9824 23.7207">
 <g>
  <rect height="23.7207" opacity="0" width="16.9824" x="0" y="0"/>
  <path d="M4.54102 6.36719C4.54102 9.37783 5.84135 12.0754 7.85654 13.409C7.34206 14.0346 6.70551 14.4885 5.99177 14.7023L6.21094 15.5664C6.28906 15.8691 6.14258 16.2012 5.73242 16.2012L5.37831 16.2012C5.52949 17.3052 6.67969 17.4249 6.67969 18.9062C6.67969 20.4297 5.35156 20.5762 5.35156 22.0312C5.35156 22.334 5.10742 22.5781 4.79492 22.5781C4.49219 22.5781 4.26758 22.334 4.26758 22.0312C4.26758 19.8926 5.60547 19.9121 5.60547 18.9062C5.60547 17.9683 4.39566 17.834 4.2862 16.2012L3.93555 16.2012C3.53516 16.2012 3.37891 15.8691 3.45703 15.5664L3.70695 14.581C1.98398 13.8479 0.78125 11.702 0.78125 9.21875C0.78125 6.93764 2.24307 4.95432 4.71867 4.80956C4.59973 5.30419 4.54102 5.82676 4.54102 6.36719Z" fill="white" fill-opacity="0.85"/>
  <path d="M10.752 13.1641C13.6035 13.1641 15.8398 10.1172 15.8398 6.36719C15.8398 3.39844 13.75 1.14258 10.752 1.14258C7.76367 1.14258 5.68359 3.39844 5.68359 6.36719C5.68359 10.1172 7.91016 13.1641 10.752 13.1641ZM9.59961 12.5586L9.20898 14.043C9.12109 14.3848 9.30664 14.7656 9.74609 14.7656L11.7676 14.7656C12.207 14.7656 12.3926 14.3848 12.3047 14.043L11.9043 12.5586ZM10.7129 22.4512C11.0449 22.4512 11.3281 22.168 11.3281 21.8359C11.3281 20.1855 12.8516 19.8047 12.8516 18.0762C12.8516 16.2793 11.3281 16.0156 11.3477 14.4922L10.1172 14.502C10.1074 16.6211 11.6211 16.9531 11.6211 18.0762C11.6211 19.2285 10.0977 19.4141 10.0977 21.8359C10.0977 22.168 10.3711 22.4512 10.7129 22.4512Z" fill="white" fill-opacity="0.85"/>
 </g>
</svg>
