<?xml version="1.0" encoding="UTF-8"?>
<!--Generator: Apple Native CoreSVG 326-->
<!DOCTYPE svg
PUBLIC "-//W3C//DTD SVG 1.1//EN"
       "http://www.w3.org/Graphics/SVG/1.1/DTD/svg11.dtd">
<svg version="1.1" xmlns="http://www.w3.org/2000/svg" xmlns:xlink="http://www.w3.org/1999/xlink" viewBox="0 0 16.0049 18.4763">
 <g>
  <rect height="18.4763" opacity="0" width="16.0049" x="0" y="0"/>
  <path d="M8.65184 4.18446L9.98974 4.67274L11.3081 1.03993C11.4643 0.629772 11.2983 0.239147 10.8979 0.0828971C10.5073-0.0635872 10.1265 0.131725 9.97997 0.551647ZM8.79833 1.38173C4.31591 0.541882 1.02489 3.57899 0.06786 6.2743C-0.127452 6.76258 0.126454 7.17274 0.478016 7.30946C0.751454 7.40712 1.00536 7.28993 1.22997 7.11415C1.9038 6.60633 2.53856 6.37196 3.32958 6.66493C3.79833 6.83094 4.08153 7.11415 4.27684 7.44618C4.4038 7.68055 4.62841 7.69032 4.687 7.42665C5.25341 4.91688 6.79638 2.78798 8.79833 1.38173ZM10.5268 1.00087C8.24169 2.69032 6.31786 5.3368 5.76122 8.02235C5.70263 8.30555 5.91747 8.50087 6.2495 8.37391C6.86474 8.1493 7.38231 8.08094 7.89013 8.26649C8.38817 8.45204 8.7495 8.84266 9.07177 9.3993C9.25731 9.70204 9.52099 9.70204 9.66747 9.44813C10.9663 7.03602 11.2007 3.75477 10.5268 1.00087ZM11.6597 2.42665C12.2944 4.78016 12.0893 7.38758 10.9272 9.70204C10.81 9.93641 10.9761 10.0829 11.23 9.97548C11.6011 9.84852 11.9917 9.80946 12.4604 9.98524C13.2515 10.2684 13.5933 10.8739 13.7788 11.6747C13.8276 11.9579 13.9546 12.2216 14.228 12.3095C14.5796 12.4364 15.0386 12.2802 15.2241 11.7821C16.2007 9.10633 15.644 4.66298 11.6597 2.42665ZM3.79833 17.5243C3.66161 17.8954 3.85692 18.3056 4.21825 18.4423C4.57958 18.5595 5.00927 18.3641 5.13622 18.0126L8.71044 8.18837L7.37255 7.70985Z" fill="white" fill-opacity="0.85"/>
 </g>
</svg>
