<?xml version="1.0" encoding="UTF-8"?>
<!--Generator: Apple Native CoreSVG 326-->
<!DOCTYPE svg
PUBLIC "-//W3C//DTD SVG 1.1//EN"
       "http://www.w3.org/Graphics/SVG/1.1/DTD/svg11.dtd">
<svg version="1.1" xmlns="http://www.w3.org/2000/svg" xmlns:xlink="http://www.w3.org/1999/xlink" viewBox="0 0 20.6348 16.1621">
 <g>
  <rect height="16.1621" opacity="0" width="20.6348" x="0" y="0"/>
  <path d="M6.28906 0C2.8418 0 0 3.96484 0 8.83789C0 11.1133 0.615234 13.6523 1.36719 13.6523C1.92383 13.6523 2.39258 12.9102 2.46094 12.1387C1.31836 11.7969 0.458984 10.7324 0.458984 9.49219C0.458984 8.74023 0.761719 8.06641 1.29883 7.5293C1.5625 4.19922 3.74023 1.25977 6.2207 1.25977C7.72461 1.25977 8.39844 2.38281 8.39844 4.45312L2.44141 7.55859C1.5625 8.01758 1.16211 8.74023 1.16211 9.49219C1.16211 10.6152 2.09961 11.543 3.21289 11.543C3.75977 11.543 4.12109 11.4062 4.88281 10.9863L7.89062 9.33594C9.20898 8.61328 9.66797 7.73438 9.66797 5.88867L9.66797 4.22852C9.66797 1.64062 8.52539 0 6.28906 0ZM3.1543 10.7617C2.44141 10.7617 1.875 10.1855 1.875 9.49219C1.875 8.78906 2.44141 8.22266 3.1543 8.22266C3.84766 8.22266 4.42383 8.78906 4.42383 9.49219C4.42383 10.1855 3.84766 10.7617 3.1543 10.7617ZM3.1543 10.2441C3.56445 10.2441 3.90625 9.90234 3.90625 9.49219C3.90625 9.08203 3.56445 8.74023 3.1543 8.74023C2.73438 8.74023 2.40234 9.08203 2.40234 9.49219C2.40234 9.90234 2.73438 10.2441 3.1543 10.2441ZM1.01562 16.1523L1.79688 16.1523L1.79688 13.3691L1.01562 13.3691ZM13.9746 0C11.748 0 10.5957 1.64062 10.5957 4.22852L10.5957 5.88867C10.5957 7.73438 11.0645 8.61328 12.373 9.33594L15.3906 10.9863C16.1523 11.4062 16.5137 11.543 17.0605 11.543C18.1738 11.543 19.1016 10.6152 19.1016 9.49219C19.1016 8.74023 18.7109 8.01758 17.832 7.55859L11.875 4.45312C11.875 2.38281 12.5488 1.25977 14.043 1.25977C16.5332 1.25977 18.7109 4.19922 18.9746 7.5293C19.5117 8.06641 19.8047 8.74023 19.8047 9.49219C19.8047 10.7324 18.9551 11.7969 17.8125 12.1387C17.8809 12.9102 18.3496 13.6523 18.9062 13.6523C19.6582 13.6523 20.2734 11.1133 20.2734 8.83789C20.2734 3.96484 17.4219 0 13.9746 0ZM17.1191 10.7617C16.4258 10.7617 15.8496 10.1855 15.8496 9.49219C15.8496 8.78906 16.4258 8.22266 17.1191 8.22266C17.8223 8.22266 18.3984 8.78906 18.3984 9.49219C18.3984 10.1855 17.8223 10.7617 17.1191 10.7617ZM17.1191 10.2441C17.5391 10.2441 17.8711 9.90234 17.8711 9.49219C17.8711 9.08203 17.5391 8.74023 17.1191 8.74023C16.709 8.74023 16.3672 9.08203 16.3672 9.49219C16.3672 9.90234 16.709 10.2441 17.1191 10.2441ZM19.2578 16.1523L19.2578 13.3691L18.4766 13.3691L18.4766 16.1523Z" fill="white" fill-opacity="0.85"/>
  <path d="M3.1543 10.7617C2.44141 10.7617 1.875 10.1855 1.875 9.49219C1.875 8.78906 2.44141 8.22266 3.1543 8.22266C3.84766 8.22266 4.42383 8.78906 4.42383 9.49219C4.42383 10.1855 3.84766 10.7617 3.1543 10.7617ZM3.1543 10.2441C3.56445 10.2441 3.90625 9.90234 3.90625 9.49219C3.90625 9.08203 3.56445 8.74023 3.1543 8.74023C2.73438 8.74023 2.40234 9.08203 2.40234 9.49219C2.40234 9.90234 2.73438 10.2441 3.1543 10.2441ZM17.1191 10.7617C16.4258 10.7617 15.8496 10.1855 15.8496 9.49219C15.8496 8.78906 16.4258 8.22266 17.1191 8.22266C17.8223 8.22266 18.3984 8.78906 18.3984 9.49219C18.3984 10.1855 17.8223 10.7617 17.1191 10.7617ZM17.1191 10.2441C17.5391 10.2441 17.8711 9.90234 17.8711 9.49219C17.8711 9.08203 17.5391 8.74023 17.1191 8.74023C16.709 8.74023 16.3672 9.08203 16.3672 9.49219C16.3672 9.90234 16.709 10.2441 17.1191 10.2441Z" fill="white" fill-opacity="0.2125"/>
 </g>
</svg>
