<?xml version="1.0" encoding="UTF-8"?>
<!--Generator: Apple Native CoreSVG 326-->
<!DOCTYPE svg
PUBLIC "-//W3C//DTD SVG 1.1//EN"
       "http://www.w3.org/Graphics/SVG/1.1/DTD/svg11.dtd">
<svg version="1.1" xmlns="http://www.w3.org/2000/svg" xmlns:xlink="http://www.w3.org/1999/xlink" viewBox="0 0 24.6191 13.0957">
 <g>
  <rect height="13.0957" opacity="0" width="24.6191" x="0" y="0"/>
  <path d="M0 6.54297C0 10.6738 2.89062 13.0859 8.25195 13.0859L16.0059 13.0859C21.3672 13.0859 24.2578 10.6738 24.2578 6.54297C24.2578 2.41211 21.3672 0 16.0059 0L8.25195 0C2.89062 0 0 2.41211 0 6.54297ZM1.40625 6.54297C1.40625 3.29102 3.7793 1.40625 8.25195 1.40625L16.0059 1.40625C20.4688 1.40625 22.8418 3.29102 22.8418 6.54297C22.8418 9.79492 20.4688 11.6797 16.0059 11.6797L8.25195 11.6797C3.7793 11.6797 1.40625 9.79492 1.40625 6.54297ZM0.712891 6.58203L23.5449 6.58203L23.5449 5.72266L0.712891 5.72266ZM6.69922 7.10938L17.5586 7.10938C18.125 7.10938 18.5254 6.71875 18.5254 6.15234C18.5254 5.58594 18.125 5.19531 17.5586 5.19531L6.69922 5.19531C6.15234 5.19531 5.73242 5.58594 5.73242 6.15234C5.73242 6.71875 6.15234 7.10938 6.69922 7.10938ZM12.1289 9.3457C12.5586 9.33594 12.9102 8.97461 12.9102 8.57422C12.9102 8.14453 12.5586 7.79297 12.1289 7.79297C11.6992 7.79297 11.3477 8.14453 11.3477 8.57422C11.3477 8.99414 11.6992 9.35547 12.1289 9.3457Z" fill="white" fill-opacity="0.85"/>
 </g>
</svg>
