<?xml version="1.0" encoding="UTF-8"?>
<!--Generator: Apple Native CoreSVG 326-->
<!DOCTYPE svg
PUBLIC "-//W3C//DTD SVG 1.1//EN"
       "http://www.w3.org/Graphics/SVG/1.1/DTD/svg11.dtd">
<svg version="1.1" xmlns="http://www.w3.org/2000/svg" xmlns:xlink="http://www.w3.org/1999/xlink" viewBox="0 0 21.0547 16.1621">
 <g>
  <rect height="16.1621" opacity="0" width="21.0547" x="0" y="0"/>
  <path d="M12.1484 16.1621L20.1758 16.1621C20.459 16.1621 20.6934 15.9473 20.6934 15.6543C20.6934 15.3613 20.459 15.1465 20.1758 15.1465L12.1484 15.1465C11.875 15.1465 11.6406 15.3613 11.6406 15.6543C11.6406 15.9473 11.875 16.1621 12.1484 16.1621Z" fill="white" fill-opacity="0.85"/>
  <path d="M16.1621 13.7305C18.9648 13.7305 20.6934 12.0605 20.6934 9.66797L20.6934 3.24219C20.6934 2.74414 20.3613 2.42188 19.8633 2.42188C19.3652 2.42188 19.0625 2.74414 19.0625 3.24219L19.0625 9.53125C19.0625 11.123 18.0078 12.2363 16.1621 12.2363C14.3262 12.2363 13.2715 11.123 13.2715 9.53125L13.2715 3.24219C13.2715 2.74414 12.9492 2.42188 12.4512 2.42188C11.9531 2.42188 11.6406 2.74414 11.6406 3.24219L11.6406 9.66797C11.6406 12.0605 13.3691 13.7305 16.1621 13.7305Z" fill="white" fill-opacity="0.85"/>
  <path d="M1.41602 13.5352L5.45898 13.5352C7.7832 13.5352 9.26758 12.2949 9.26758 10.4102C9.26758 8.91602 8.19336 7.83203 6.63086 7.76367L6.63086 7.69531C7.92969 7.5293 8.78906 6.5918 8.78906 5.38086C8.78906 3.65234 7.49023 2.61719 5.33203 2.61719L1.41602 2.61719C0.517578 2.61719 0 3.13477 0 4.0625L0 12.0898C0 13.0176 0.517578 13.5352 1.41602 13.5352ZM2.75391 11.6504L2.75391 8.78906L4.53125 8.78906C5.78125 8.78906 6.48438 9.27734 6.48438 10.2051C6.48438 11.1523 5.80078 11.6504 4.57031 11.6504ZM2.75391 7.10938L2.75391 4.53125L4.48242 4.53125C5.48828 4.53125 6.08398 5 6.08398 5.78125C6.08398 6.61133 5.41992 7.10938 4.31641 7.10938Z" fill="white" fill-opacity="0.85"/>
 </g>
</svg>
