<?xml version="1.0" encoding="UTF-8"?>
<!--Generator: Apple Native CoreSVG 326-->
<!DOCTYPE svg
PUBLIC "-//W3C//DTD SVG 1.1//EN"
       "http://www.w3.org/Graphics/SVG/1.1/DTD/svg11.dtd">
<svg version="1.1" xmlns="http://www.w3.org/2000/svg" xmlns:xlink="http://www.w3.org/1999/xlink" viewBox="0 0 11.4062 17.4991">
 <g>
  <rect height="17.4991" opacity="0" width="11.4062" x="0" y="0"/>
  <path d="M3.84766 17.0161L10.8301 8.01223C10.9668 7.82668 11.0449 7.66067 11.0449 7.47512C11.0449 7.12356 10.7812 6.86965 10.4199 6.86965L6.11328 6.86965L8.37891 1.00051C8.7207 0.111838 7.76367-0.376443 7.19727 0.355978L0.214844 9.35988C0.078125 9.54543 0 9.71145 0 9.89699C0 10.2486 0.273438 10.5025 0.625 10.5025L4.93164 10.5025L2.66602 16.3716C2.33398 17.2603 3.28125 17.7486 3.84766 17.0161ZM4.33594 14.6919L6.95312 9.20363L2.17773 9.20363L6.94336 2.81692L6.69922 2.6802L4.0918 8.16848L8.85742 8.16848L4.0918 14.5552Z" fill="white" fill-opacity="0.85"/>
 </g>
</svg>
