<?xml version="1.0" encoding="UTF-8"?>
<!--Generator: Apple Native CoreSVG 326-->
<!DOCTYPE svg
PUBLIC "-//W3C//DTD SVG 1.1//EN"
       "http://www.w3.org/Graphics/SVG/1.1/DTD/svg11.dtd">
<svg version="1.1" xmlns="http://www.w3.org/2000/svg" xmlns:xlink="http://www.w3.org/1999/xlink" viewBox="0 0 10.8789 16.6504">
 <g>
  <rect height="16.6504" opacity="0" width="10.8789" x="0" y="0"/>
  <path d="M0.888672 16.6211C1.29883 16.6211 1.54297 16.377 2.34375 15.6055L5.18555 12.8516C5.22461 12.8125 5.30273 12.8125 5.33203 12.8516L8.17383 15.6055C8.98438 16.377 9.21875 16.6211 9.63867 16.6211C10.1953 16.6211 10.5176 16.25 10.5176 15.5957L10.5176 2.27539C10.5176 0.761719 9.76562 0 8.27148 0L2.24609 0C0.751953 0 0 0.761719 0 2.27539L0 15.5957C0 16.25 0.322266 16.6211 0.888672 16.6211ZM1.60156 14.2285C1.49414 14.3262 1.37695 14.2969 1.37695 14.1504L1.37695 2.29492C1.37695 1.68945 1.69922 1.37695 2.31445 1.37695L8.20312 1.37695C8.81836 1.37695 9.14062 1.68945 9.14062 2.29492L9.14062 14.1504C9.14062 14.2969 9.02344 14.3262 8.92578 14.2285L5.70312 11.1719C5.42969 10.9082 5.08789 10.9082 4.81445 11.1719Z" fill="white" fill-opacity="0.85"/>
 </g>
</svg>
