<?xml version="1.0" encoding="UTF-8"?>
<!--Generator: Apple Native CoreSVG 326-->
<!DOCTYPE svg
PUBLIC "-//W3C//DTD SVG 1.1//EN"
       "http://www.w3.org/Graphics/SVG/1.1/DTD/svg11.dtd">
<svg version="1.1" xmlns="http://www.w3.org/2000/svg" xmlns:xlink="http://www.w3.org/1999/xlink" viewBox="0 0 21.1426 17.3926">
 <g>
  <rect height="17.3926" opacity="0" width="21.1426" x="0" y="0"/>
  <path d="M4.43359 12.8613C6.28906 12.8613 7.46094 11.6309 7.46094 9.98047C7.46094 9.50195 7.25586 8.92578 6.98242 8.67188C6.57227 8.29102 6.31836 8.18359 6.31836 7.74414C6.31836 7.38281 6.5918 7.13867 6.99219 7.13867C7.30469 7.13867 7.49023 7.23633 7.8125 7.5C8.03711 7.69531 8.22266 7.91992 8.37891 8.17383C9.55078 7.91016 9.98047 7.19727 9.98047 6.06445C9.98047 5.68359 10.3027 5.36133 10.6836 5.36133C11.0645 5.36133 11.3867 5.68359 11.3867 6.06445C11.3867 7.8125 10.5957 9.04297 8.80859 9.50195C8.82812 9.66797 8.83789 9.83398 8.83789 10.0098C8.83789 11.4941 8.20312 12.7051 7.10938 13.4668C7.88086 13.877 8.83789 14.1309 9.80469 14.1309C9.99023 14.1309 10.1855 14.1211 10.5762 14.1113C10.4883 13.7012 10.4492 13.3105 10.4492 12.959C10.4492 8.27148 17.1582 8.65234 17.1582 4.27734C17.1582 2.40234 15.3125 1.14258 13.5938 1.14258C13.4668 1.14258 13.2812 1.17188 13.0859 1.20117C12.4316 0.46875 11.4258 0 10.5176 0C8.87695 0 7.82227 1.04492 7.76367 2.49023C7.74414 2.93945 7.45117 3.19336 7.07031 3.19336C6.66016 3.19336 6.35742 2.89062 6.36719 2.43164C6.39648 1.89453 6.49414 1.40625 6.67969 0.966797C6.32812 0.869141 5.98633 0.830078 5.64453 0.830078C3.75977 0.830078 2.30469 2.01172 2.30469 3.49609C2.30469 4.44336 3.01758 5.20508 3.97461 5.20508C4.35547 5.20508 4.67773 5.52734 4.67773 5.9082C4.67773 6.29883 4.35547 6.61133 3.97461 6.61133C2.62695 6.61133 1.60156 6.00586 1.11328 5.00977C0.400391 5.86914 0 6.96289 0 8.125C0 10.8496 1.74805 12.8613 4.43359 12.8613ZM17.1582 17.3828C19.1895 17.3828 20.166 14.9414 20.166 12.7637C20.166 12.4121 20.1562 12.0996 20.1367 11.8164C19.4336 12.168 18.584 12.3242 17.5977 12.2461C17.207 12.2168 16.8945 11.9336 16.8945 11.543C16.8945 11.1621 17.207 10.8105 17.5977 10.8496C19.502 11.0254 20.7812 9.9707 20.7812 8.22266C20.7812 6.68945 19.9805 5.41992 18.6816 4.7168C17.5098 9.90234 11.9434 9.24805 11.7383 12.6855C11.6699 13.8672 12.5781 14.8047 13.8184 14.8047C14.2871 14.8047 14.5312 14.7949 14.7266 14.7852C14.9219 16.0547 15.7617 17.3828 17.1582 17.3828Z" fill="white" fill-opacity="0.85"/>
 </g>
</svg>
