<?xml version="1.0" encoding="UTF-8"?>
<!--Generator: Apple Native CoreSVG 326-->
<!DOCTYPE svg
PUBLIC "-//W3C//DTD SVG 1.1//EN"
       "http://www.w3.org/Graphics/SVG/1.1/DTD/svg11.dtd">
<svg version="1.1" xmlns="http://www.w3.org/2000/svg" xmlns:xlink="http://www.w3.org/1999/xlink" viewBox="0 0 19.5605 17.3535">
 <g>
  <rect height="17.3535" opacity="0" width="19.5605" x="0" y="0"/>
  <path d="M0.878906 15.9277C1.42578 15.9277 1.75781 15.5859 1.75781 15.0293L1.75781 10.0293L4.22852 10.0293C4.28711 10.0293 4.33594 10.0293 4.38477 10.0293L6.81641 15.3711C7.00195 15.7812 7.26562 15.9277 7.69531 15.9277C8.19336 15.9277 8.54492 15.5859 8.54492 15.127C8.54492 14.9609 8.48633 14.7559 8.36914 14.5215L6.11328 9.66797C7.70508 9.0332 8.59375 7.5293 8.59375 5.74219C8.59375 3.1543 6.85547 1.57227 4.25781 1.57227L0.859375 1.57227C0.341797 1.57227 0 1.92383 0 2.4707L0 15.0293C0 15.5859 0.341797 15.9277 0.878906 15.9277ZM1.75781 8.50586L1.75781 3.125L4.05273 3.125C5.76172 3.125 6.82617 4.0918 6.82617 5.80078C6.82617 7.43164 5.92773 8.50586 4.11133 8.50586ZM14.9609 15.5371C17.3535 15.5371 19.1992 14.2871 19.1992 11.8848C19.1992 9.76562 17.8027 8.93555 15.9766 8.1543L14.6582 7.59766C13.5449 7.10938 12.5098 6.47461 12.5098 5.25391C12.5098 3.97461 13.623 3.30078 14.9219 3.30078C16.3086 3.30078 17.0312 4.0918 17.334 5.38086C17.4512 5.82031 17.7441 6.08398 18.2031 6.08398C18.6816 6.08398 18.9941 5.77148 18.9941 5.29297C18.9941 5.17578 18.9746 4.94141 18.9453 4.79492C18.4961 2.8125 16.875 1.79688 14.9219 1.79688C12.6855 1.79688 10.8301 3.04688 10.8301 5.36133C10.8301 7.30469 12.1289 8.32031 13.9258 9.0625L15.2637 9.62891C16.4941 10.1465 17.5098 10.6934 17.5098 12.041C17.5098 13.4277 16.4453 14.0332 14.9707 14.0332C13.4082 14.0332 12.5879 13.3594 12.2754 11.9238C12.168 11.4746 11.875 11.1914 11.4258 11.1914C10.9375 11.1914 10.625 11.5137 10.625 12.002C10.625 12.1582 10.6445 12.3145 10.6738 12.4609C11.1035 14.5312 12.8516 15.5371 14.9609 15.5371ZM14.9023 17.3438C15.2246 17.3438 15.4688 17.1094 15.4688 16.7773L15.4688 0.566406C15.4688 0.234375 15.2246 0 14.9023 0C14.5605 0 14.3262 0.234375 14.3262 0.566406L14.3262 16.7773C14.3262 17.1094 14.5605 17.3438 14.9023 17.3438Z" fill="white" fill-opacity="0.85"/>
 </g>
</svg>
