<?xml version="1.0" encoding="UTF-8"?>
<!--Generator: Apple Native CoreSVG 326-->
<!DOCTYPE svg
PUBLIC "-//W3C//DTD SVG 1.1//EN"
       "http://www.w3.org/Graphics/SVG/1.1/DTD/svg11.dtd">
<svg version="1.1" xmlns="http://www.w3.org/2000/svg" xmlns:xlink="http://www.w3.org/1999/xlink" viewBox="0 0 16.1328 15.7715">
 <g>
  <rect height="15.7715" opacity="0" width="16.1328" x="0" y="0"/>
  <path d="M7.88086 15.7617C12.2363 15.7617 15.7715 12.2363 15.7715 7.88086C15.7715 3.52539 12.2363 0 7.88086 0C3.53516 0 0 3.52539 0 7.88086C0 12.2363 3.53516 15.7617 7.88086 15.7617ZM7.88086 14.2773C4.3457 14.2773 1.49414 11.416 1.49414 7.88086C1.49414 4.3457 4.3457 1.48438 7.88086 1.48438C11.416 1.48438 14.2773 4.3457 14.2773 7.88086C14.2773 11.416 11.416 14.2773 7.88086 14.2773ZM7.88086 15.0195C8.54492 15.0195 9.17969 14.9219 9.77539 14.7363L9.77539 5.22461C9.77539 4.72656 9.48242 4.375 9.01367 4.375L3.83789 4.375C3.37891 4.375 3.07617 4.72656 3.07617 5.22461L3.07617 12.8516C4.23828 14.1895 5.94727 15.0195 7.88086 15.0195ZM4.85352 12.9004C4.74609 12.9004 4.66797 12.8223 4.66797 12.6953L4.66797 11.9141C4.66797 11.7969 4.74609 11.709 4.85352 11.709L5.67383 11.709C5.79102 11.709 5.86914 11.7969 5.86914 11.9141L5.86914 12.6953C5.86914 12.8223 5.79102 12.9004 5.67383 12.9004ZM7.17773 12.9004C7.06055 12.9004 6.98242 12.8223 6.98242 12.6953L6.98242 11.9141C6.98242 11.7969 7.06055 11.709 7.17773 11.709L7.98828 11.709C8.10547 11.709 8.19336 11.7969 8.19336 11.9141L8.19336 12.6953C8.19336 12.8223 8.10547 12.9004 7.98828 12.9004ZM4.85352 10.9082C4.74609 10.9082 4.66797 10.8203 4.66797 10.7129L4.66797 9.92188C4.66797 9.80469 4.74609 9.7168 4.85352 9.7168L5.67383 9.7168C5.79102 9.7168 5.86914 9.80469 5.86914 9.92188L5.86914 10.7129C5.86914 10.8203 5.79102 10.9082 5.67383 10.9082ZM7.17773 10.9082C7.06055 10.9082 6.98242 10.8203 6.98242 10.7129L6.98242 9.92188C6.98242 9.80469 7.06055 9.7168 7.17773 9.7168L7.98828 9.7168C8.10547 9.7168 8.19336 9.80469 8.19336 9.92188L8.19336 10.7129C8.19336 10.8203 8.10547 10.9082 7.98828 10.9082ZM4.85352 8.91602C4.74609 8.91602 4.66797 8.82812 4.66797 8.7207L4.66797 7.92969C4.66797 7.8125 4.74609 7.73438 4.85352 7.73438L5.67383 7.73438C5.79102 7.73438 5.86914 7.8125 5.86914 7.92969L5.86914 8.7207C5.86914 8.82812 5.79102 8.91602 5.67383 8.91602ZM7.17773 8.91602C7.06055 8.91602 6.98242 8.82812 6.98242 8.7207L6.98242 7.92969C6.98242 7.8125 7.06055 7.73438 7.17773 7.73438L7.98828 7.73438C8.10547 7.73438 8.19336 7.8125 8.19336 7.92969L8.19336 8.7207C8.19336 8.82812 8.10547 8.91602 7.98828 8.91602ZM4.85352 6.94336C4.74609 6.94336 4.66797 6.85547 4.66797 6.74805L4.66797 5.95703C4.66797 5.83008 4.74609 5.76172 4.85352 5.76172L5.67383 5.76172C5.79102 5.76172 5.86914 5.83008 5.86914 5.95703L5.86914 6.74805C5.86914 6.85547 5.79102 6.94336 5.67383 6.94336ZM7.17773 6.94336C7.06055 6.94336 6.98242 6.85547 6.98242 6.74805L6.98242 5.95703C6.98242 5.83008 7.06055 5.76172 7.17773 5.76172L7.98828 5.76172C8.10547 5.76172 8.19336 5.83008 8.19336 5.95703L8.19336 6.74805C8.19336 6.85547 8.10547 6.94336 7.98828 6.94336ZM10.4199 14.5117C11.6797 13.9746 12.7344 13.0273 13.418 11.8457L13.418 7.14844C13.418 6.65039 13.1152 6.30859 12.6562 6.30859L10.4199 6.30859ZM11.5625 11.9531C11.4746 11.9531 11.4062 11.8848 11.4062 11.7969L11.4062 11.1328C11.4062 11.0547 11.4746 10.9766 11.5625 10.9766L12.2559 10.9766C12.3438 10.9766 12.4121 11.0547 12.4121 11.1328L12.4121 11.7969C12.4121 11.8848 12.3438 11.9531 12.2559 11.9531ZM11.5625 10.2539C11.4746 10.2539 11.4062 10.1855 11.4062 10.0879L11.4062 9.43359C11.4062 9.33594 11.4746 9.27734 11.5625 9.27734L12.2559 9.27734C12.3438 9.27734 12.4121 9.33594 12.4121 9.43359L12.4121 10.0879C12.4121 10.1855 12.3438 10.2539 12.2559 10.2539ZM11.5625 8.54492C11.4746 8.54492 11.4062 8.47656 11.4062 8.38867L11.4062 7.72461C11.4062 7.63672 11.4746 7.56836 11.5625 7.56836L12.2559 7.56836C12.3438 7.56836 12.4121 7.63672 12.4121 7.72461L12.4121 8.38867C12.4121 8.47656 12.3438 8.54492 12.2559 8.54492Z" fill="white" fill-opacity="0.85"/>
 </g>
</svg>
