<?xml version="1.0" encoding="UTF-8"?>
<!--Generator: Apple Native CoreSVG 326-->
<!DOCTYPE svg
PUBLIC "-//W3C//DTD SVG 1.1//EN"
       "http://www.w3.org/Graphics/SVG/1.1/DTD/svg11.dtd">
<svg version="1.1" xmlns="http://www.w3.org/2000/svg" xmlns:xlink="http://www.w3.org/1999/xlink" viewBox="0 0 17.3828 17.9199">
 <g>
  <rect height="17.9199" opacity="0" width="17.3828" x="0" y="0"/>
  <path d="M2.14844 17.9199L3.05664 17.9199C3.64258 17.9199 4.0918 17.4707 4.0918 16.8945L4.0918 15.6055C5.66406 15.7129 7.17773 15.7715 8.50586 15.7715C9.83398 15.7715 11.3477 15.7227 12.9297 15.6055L12.9297 16.8945C12.9297 17.4707 13.3691 17.9199 13.9551 17.9199L14.873 17.9199C15.4492 17.9199 15.8984 17.4707 15.8984 16.8945L15.8984 2.06055C15.8984 1.05469 15.3125 0.449219 14.2285 0.322266C12.6074 0.136719 10.4688 0.0292969 8.50586 0.0292969C6.5625 0.0292969 4.43359 0.126953 2.79297 0.322266C1.70898 0.449219 1.11328 1.05469 1.11328 2.06055L1.11328 16.8945C1.11328 17.4707 1.5625 17.9199 2.14844 17.9199ZM3.42773 10.4395C2.89062 10.3516 2.63672 10.0586 2.63672 9.49219L2.63672 2.7832C2.63672 2.12891 2.93945 1.78711 3.56445 1.71875C6.66992 1.38672 10.3516 1.38672 13.4766 1.71875C14.0918 1.78711 14.3848 2.12891 14.3848 2.7832L14.3848 9.49219C14.3848 10.0586 14.1309 10.3516 13.6035 10.4395C10.4199 10.9473 6.58203 10.9473 3.42773 10.4395ZM3.85742 13.9844C3.26172 13.9844 2.8125 13.5352 2.8125 12.9395C2.8125 12.3438 3.26172 11.8945 3.85742 11.8945C4.45312 11.8945 4.90234 12.3438 4.90234 12.9395C4.90234 13.5352 4.45312 13.9844 3.85742 13.9844ZM6.88477 13.623C6.46484 13.623 6.18164 13.3301 6.18164 12.9199C6.18164 12.5 6.46484 12.2266 6.88477 12.2266L10.127 12.2266C10.5469 12.2266 10.8301 12.5 10.8301 12.9199C10.8301 13.3301 10.5469 13.623 10.127 13.623ZM13.1641 13.9844C12.5684 13.9844 12.1191 13.5352 12.1191 12.9395C12.1191 12.3438 12.5684 11.8945 13.1641 11.8945C13.7598 11.8945 14.209 12.3438 14.209 12.9395C14.209 13.5352 13.7598 13.9844 13.1641 13.9844ZM1.11328 7.33398L1.11328 2.89062L0.78125 2.89062C0.332031 2.89062 0 3.17383 0 3.60352L0 6.62109C0 7.05078 0.332031 7.33398 0.78125 7.33398ZM15.8984 7.33398L16.2305 7.33398C16.6895 7.33398 17.0215 7.05078 17.0215 6.62109L17.0215 3.60352C17.0215 3.17383 16.6895 2.89062 16.2305 2.89062L15.8984 2.89062Z" fill="white" fill-opacity="0.85"/>
 </g>
</svg>
