<?xml version="1.0" encoding="UTF-8"?>
<!--Generator: Apple Native CoreSVG 326-->
<!DOCTYPE svg
PUBLIC "-//W3C//DTD SVG 1.1//EN"
       "http://www.w3.org/Graphics/SVG/1.1/DTD/svg11.dtd">
<svg version="1.1" xmlns="http://www.w3.org/2000/svg" xmlns:xlink="http://www.w3.org/1999/xlink" viewBox="0 0 16.9727 19.1309">
 <g>
  <rect height="19.1309" opacity="0" width="16.9727" x="0" y="0"/>
  <path d="M8.31055 16.4551C10.0781 16.4551 12.2754 16.3379 13.8281 16.1621C14.9023 16.0352 15.498 15.4395 15.498 14.4238L15.498 2.03125C15.498 1.02539 14.9023 0.419922 13.8281 0.292969C12.2754 0.117188 10.0781 0 8.31055 0C6.5332 0 4.33594 0.117188 2.79297 0.292969C1.70898 0.419922 1.11328 1.02539 1.11328 2.03125L1.11328 14.4238C1.11328 15.4395 1.70898 16.0352 2.79297 16.1621C4.33594 16.3379 6.5332 16.4551 8.31055 16.4551ZM8.31055 15.3223C6.45508 15.3223 4.38477 15.2148 3.10547 15.0586C2.4707 14.9805 2.24609 14.6387 2.24609 14.0527L2.24609 2.40234C2.24609 1.81641 2.4707 1.47461 3.10547 1.39648C4.38477 1.24023 6.45508 1.13281 8.31055 1.13281C10.1465 1.13281 12.2168 1.24023 13.5059 1.39648C14.1504 1.47461 14.3652 1.81641 14.3652 2.40234L14.3652 14.0527C14.3652 14.6387 14.1504 14.9805 13.5059 15.0586C12.2168 15.2148 10.1465 15.3223 8.31055 15.3223ZM2.53906 18.5938L3.44727 18.5938C4.0332 18.5938 4.48242 18.1445 4.48242 17.5781L4.48242 15.8496L1.50391 15.4004L1.50391 17.5781C1.50391 18.1445 1.95312 18.5938 2.53906 18.5938ZM13.1641 18.5938L14.082 18.5938C14.6582 18.5938 15.1074 18.1445 15.1074 17.5781L15.1074 15.4004L12.1387 15.8496L12.1387 17.5781C12.1387 18.1445 12.5781 18.5938 13.1641 18.5938ZM1.67969 9.33594L1.67969 5.35156L0.78125 5.35156C0.332031 5.35156 0 5.64453 0 6.07422L0 8.62305C0 9.05273 0.332031 9.33594 0.78125 9.33594ZM14.9316 9.33594L15.8301 9.33594C16.2891 9.33594 16.6113 9.05273 16.6113 8.62305L16.6113 6.07422C16.6113 5.64453 16.2891 5.35156 15.8301 5.35156L14.9316 5.35156ZM3.03711 6.25L13.5742 6.25L13.5742 3.27148C13.5742 2.65625 13.3008 2.34375 12.6367 2.26562C10.1855 1.99219 6.41602 1.99219 3.98438 2.26562C3.32031 2.34375 3.03711 2.65625 3.03711 3.27148ZM3.03711 7.38281L3.03711 10.2441C3.03711 10.7812 3.27148 11.0449 3.76953 11.1328C5.9375 11.5527 10.6055 11.582 12.8516 11.1328C13.2812 11.0547 13.5742 10.7812 13.5742 10.2441L13.5742 7.38281ZM4.21875 14.2188C4.72656 14.2188 5.11719 13.8184 5.11719 13.3203C5.11719 12.8125 4.72656 12.4219 4.21875 12.4219C3.7207 12.4219 3.32031 12.8125 3.32031 13.3203C3.32031 13.8184 3.7207 14.2188 4.21875 14.2188ZM6.86523 13.9844L9.74609 13.9844C10.127 13.9844 10.4199 13.6914 10.4199 13.3105C10.4199 12.9199 10.1367 12.6465 9.74609 12.6465L6.86523 12.6465C6.47461 12.6465 6.19141 12.9199 6.19141 13.3105C6.19141 13.6914 6.48438 13.9844 6.86523 13.9844ZM12.3926 14.2188C12.9004 14.2188 13.291 13.8184 13.291 13.3203C13.291 12.8125 12.9004 12.4219 12.3926 12.4219C11.8945 12.4219 11.4941 12.8125 11.4941 13.3203C11.4941 13.8184 11.8945 14.2188 12.3926 14.2188Z" fill="white" fill-opacity="0.85"/>
 </g>
</svg>
