<?xml version="1.0" encoding="UTF-8"?>
<!--Generator: Apple Native CoreSVG 326-->
<!DOCTYPE svg
PUBLIC "-//W3C//DTD SVG 1.1//EN"
       "http://www.w3.org/Graphics/SVG/1.1/DTD/svg11.dtd">
<svg version="1.1" xmlns="http://www.w3.org/2000/svg" xmlns:xlink="http://www.w3.org/1999/xlink" viewBox="0 0 14.5898 14.248">
 <g>
  <rect height="14.248" opacity="0" width="14.5898" x="0" y="0"/>
  <path d="M2.49023 14.248L11.7383 14.248C13.4082 14.248 14.2285 13.4277 14.2285 11.7871L14.2285 2.4707C14.2285 0.830078 13.4082 0.00976562 11.7383 0.00976562L2.49023 0.00976562C0.830078 0.00976562 0 0.830078 0 2.4707L0 11.7871C0 13.4277 0.830078 14.248 2.49023 14.248ZM2.50977 12.832C1.80664 12.832 1.40625 12.4512 1.40625 11.7188L1.40625 2.53906C1.40625 1.79688 1.80664 1.42578 2.50977 1.42578L11.7188 1.42578C12.4219 1.42578 12.8223 1.79688 12.8223 2.53906L12.8223 11.7188C12.8223 12.4512 12.4219 12.832 11.7188 12.832Z" fill="white" fill-opacity="0.85"/>
  <path d="M7.11914 11.5527C9.55078 11.5527 11.5332 9.57031 11.5332 7.12891C11.5332 4.6875 9.55078 2.70508 7.11914 2.70508C4.67773 2.70508 2.69531 4.6875 2.69531 7.12891C2.69531 9.57031 4.67773 11.5527 7.11914 11.5527ZM7.11914 10.3418C5.3418 10.3418 3.90625 8.89648 3.90625 7.12891C3.90625 5.36133 5.3418 3.92578 7.11914 3.92578C8.88672 3.92578 10.3223 5.36133 10.3223 7.12891C10.3223 8.89648 8.88672 10.3418 7.11914 10.3418ZM7.11914 9.50195C8.42773 9.50195 9.49219 8.4375 9.49219 7.12891C9.49219 5.82031 8.42773 4.75586 7.11914 4.75586C5.80078 4.75586 4.74609 5.82031 4.74609 7.12891C4.74609 8.4375 5.80078 9.50195 7.11914 9.50195Z" fill="white" fill-opacity="0.85"/>
 </g>
</svg>
