<?xml version="1.0" encoding="UTF-8"?>
<!--Generator: Apple Native CoreSVG 326-->
<!DOCTYPE svg
PUBLIC "-//W3C//DTD SVG 1.1//EN"
       "http://www.w3.org/Graphics/SVG/1.1/DTD/svg11.dtd">
<svg version="1.1" xmlns="http://www.w3.org/2000/svg" xmlns:xlink="http://www.w3.org/1999/xlink" viewBox="0 0 13.1836 17.9785">
 <g>
  <rect height="17.9785" opacity="0" width="13.1836" x="0" y="0"/>
  <path d="M1.86523 16.543L10.957 16.543C12.0703 16.543 12.8223 15.7812 12.8223 14.6387L12.8223 1.9043C12.8223 0.761719 12.0703 0 10.957 0L1.86523 0C0.751953 0 0 0.761719 0 1.9043L0 14.6387C0 15.7812 0.751953 16.543 1.86523 16.543ZM1.93359 15.1367C1.62109 15.1367 1.40625 14.9316 1.40625 14.6191L1.40625 1.92383C1.40625 1.61133 1.62109 1.40625 1.93359 1.40625L10.8887 1.40625C11.2012 1.40625 11.416 1.61133 11.416 1.92383L11.416 14.6191C11.416 14.9316 11.2012 15.1367 10.8887 15.1367ZM5.84961 15.8008L6.97266 15.8008L6.97266 0.732422L5.84961 0.732422ZM4.39453 9.4043C4.85352 9.4043 5.24414 9.02344 5.24414 8.56445C5.24414 8.0957 4.85352 7.71484 4.39453 7.71484C3.92578 7.71484 3.54492 8.0957 3.54492 8.56445C3.54492 9.02344 3.92578 9.4043 4.39453 9.4043ZM8.42773 9.4043C8.89648 9.4043 9.27734 9.02344 9.27734 8.56445C9.27734 8.0957 8.89648 7.71484 8.42773 7.71484C7.96875 7.71484 7.58789 8.0957 7.58789 8.56445C7.58789 9.02344 7.96875 9.4043 8.42773 9.4043ZM2.33398 17.9785C2.75391 17.9785 3.04688 17.6953 3.04688 17.2656L3.04688 15.6543L1.62109 15.6543L1.62109 17.2656C1.62109 17.6953 1.9043 17.9785 2.33398 17.9785ZM10.4883 17.9785C10.918 17.9785 11.2012 17.6953 11.2012 17.2656L11.2012 15.6543L9.78516 15.6543L9.78516 17.2656C9.78516 17.6953 10.0684 17.9785 10.4883 17.9785Z" fill="white" fill-opacity="0.85"/>
 </g>
</svg>
