<svg version="1.1" xmlns="http://www.w3.org/2000/svg" xmlns:xlink="http://www.w3.org/1999/xlink" viewBox="0 0 16.7871 16.5918">
 <g>
  <rect height="16.5918" opacity="0" width="16.7871" x="0" y="0"/>
  <path d="M13.8867 2.96875L15.918 2.96875C16.2305 2.96875 16.4258 2.76367 16.4258 2.4707L16.4258 2.10938C16.4258 1.81641 16.2305 1.61133 15.918 1.61133L13.8867 1.61133ZM12.2559 4.57031L12.6172 4.57031C12.9102 4.57031 13.1152 4.36523 13.1152 4.07227L13.1152 0.507812C13.1152 0.205078 12.9102 0 12.6172 0L12.2559 0C11.9629 0 11.7578 0.205078 11.7578 0.507812L11.7578 4.07227C11.7578 4.36523 11.9629 4.57031 12.2559 4.57031ZM7.90039 4.16992L10.9863 4.16992L10.9863 0.400391L7.90039 0.400391C7.20703 0.400391 6.93359 0.673828 6.93359 1.37695L6.93359 3.20312C6.93359 3.90625 7.20703 4.16992 7.90039 4.16992ZM0 5.2832C0 7.32422 1.66992 8.99414 3.71094 8.99414L12.7148 8.99414C13.9844 8.99414 15.0195 10.0195 15.0195 11.2988C15.0195 12.5684 13.9844 13.5938 12.7148 13.5938L10.2637 13.5938L10.2637 15L12.7148 15C14.7559 15 16.4258 13.3398 16.4258 11.2988C16.4258 9.25781 14.7559 7.58789 12.7148 7.58789L3.71094 7.58789C2.44141 7.58789 1.40625 6.5625 1.40625 5.2832C1.40625 4.01367 2.44141 2.98828 3.71094 2.98828L6.16211 2.98828L6.16211 1.58203L3.71094 1.58203C1.66992 1.58203 0 3.24219 0 5.2832ZM2.53906 14.9707L2.53906 13.6133L0.507812 13.6133C0.195312 13.6133 0 13.8184 0 14.1113L0 14.4727C0 14.7656 0.195312 14.9707 0.507812 14.9707ZM4.16992 16.582C4.46289 16.582 4.66797 16.377 4.66797 16.0742L4.66797 12.5098C4.66797 12.2168 4.46289 12.0117 4.16992 12.0117L3.80859 12.0117C3.51562 12.0117 3.31055 12.2168 3.31055 12.5098L3.31055 16.0742C3.31055 16.377 3.51562 16.582 3.80859 16.582ZM8.52539 16.1816C9.21875 16.1816 9.49219 15.9082 9.49219 15.2051L9.49219 13.3789C9.49219 12.6758 9.21875 12.4121 8.52539 12.4121L5.43945 12.4121L5.43945 16.1816Z" fill="var(--color-primary)"/>
 </g>
</svg>
