<?xml version="1.0" encoding="UTF-8"?>
<!--Generator: Apple Native CoreSVG 326-->
<!DOCTYPE svg
PUBLIC "-//W3C//DTD SVG 1.1//EN"
       "http://www.w3.org/Graphics/SVG/1.1/DTD/svg11.dtd">
<svg version="1.1" xmlns="http://www.w3.org/2000/svg" xmlns:xlink="http://www.w3.org/1999/xlink" viewBox="0 0 25.2441 16.5137">
 <g>
  <rect height="16.5137" opacity="0" width="25.2441" x="0" y="0"/>
  <path d="M20.0977 3.60352L20.0977 4.32547C19.8847 4.28093 19.6657 4.25781 19.4434 4.25781C18.8579 4.25781 18.2963 4.41954 17.8065 4.70949C17.7833 4.70757 17.7591 4.70703 17.7344 4.70703L7.13867 4.70703C6.5332 4.70703 6.19141 5.0293 6.19141 5.66406L6.19141 13.0078C6.19141 13.6426 6.5332 13.9648 7.13867 13.9648L13.712 13.9648C13.6577 14.1854 13.6328 14.4045 13.6328 14.6191C13.6328 14.8975 13.6877 15.1535 13.7889 15.3809L7.27539 15.3809C5.61523 15.3809 4.78516 14.5605 4.78516 12.9199L4.78516 3.60352C4.78516 1.96289 5.61523 1.14258 7.27539 1.14258L17.6074 1.14258C19.2773 1.14258 20.0977 1.96289 20.0977 3.60352ZM9.28711 11.582L9.28711 12.0312C9.28711 12.3145 9.18945 12.4121 8.89648 12.4121L8.44727 12.4121C8.16406 12.4121 8.05664 12.3145 8.05664 12.0312L8.05664 11.582C8.05664 11.2988 8.16406 11.2012 8.44727 11.2012L8.89648 11.2012C9.18945 11.2012 9.28711 11.2988 9.28711 11.582ZM11.7969 11.582L11.7969 12.0312C11.7969 12.3145 11.6992 12.4121 11.4062 12.4121L10.957 12.4121C10.6738 12.4121 10.5762 12.3145 10.5762 12.0312L10.5762 11.582C10.5762 11.2988 10.6738 11.2012 10.957 11.2012L11.4062 11.2012C11.6992 11.2012 11.7969 11.2988 11.7969 11.582ZM14.3066 11.582L14.3066 12.0312C14.3066 12.3145 14.209 12.4121 13.9258 12.4121L13.4766 12.4121C13.1836 12.4121 13.0859 12.3145 13.0859 12.0312L13.0859 11.582C13.0859 11.2988 13.1836 11.2012 13.4766 11.2012L13.9258 11.2012C14.209 11.2012 14.3066 11.2988 14.3066 11.582ZM9.28711 9.11133L9.28711 9.56055C9.28711 9.84375 9.18945 9.94141 8.89648 9.94141L8.44727 9.94141C8.16406 9.94141 8.05664 9.84375 8.05664 9.56055L8.05664 9.11133C8.05664 8.82812 8.16406 8.73047 8.44727 8.73047L8.89648 8.73047C9.18945 8.73047 9.28711 8.82812 9.28711 9.11133ZM11.7969 9.11133L11.7969 9.56055C11.7969 9.84375 11.6992 9.94141 11.4062 9.94141L10.957 9.94141C10.6738 9.94141 10.5762 9.84375 10.5762 9.56055L10.5762 9.11133C10.5762 8.82812 10.6738 8.73047 10.957 8.73047L11.4062 8.73047C11.6992 8.73047 11.7969 8.82812 11.7969 9.11133ZM14.3066 9.11133L14.3066 9.56055C14.3066 9.84375 14.209 9.94141 13.9258 9.94141L13.4766 9.94141C13.1836 9.94141 13.0859 9.84375 13.0859 9.56055L13.0859 9.11133C13.0859 8.82812 13.1836 8.73047 13.4766 8.73047L13.9258 8.73047C14.209 8.73047 14.3066 8.82812 14.3066 9.11133ZM16.7153 9.87525C16.6531 9.92201 16.5618 9.94141 16.4355 9.94141L15.9863 9.94141C15.6934 9.94141 15.5957 9.84375 15.5957 9.56055L15.5957 9.11133C15.5957 8.82812 15.6934 8.73047 15.9863 8.73047L16.1967 8.73047C16.3012 9.15053 16.4798 9.53677 16.7153 9.87525ZM11.7969 6.64062L11.7969 7.08984C11.7969 7.37305 11.6992 7.4707 11.4062 7.4707L10.957 7.4707C10.6738 7.4707 10.5762 7.37305 10.5762 7.08984L10.5762 6.64062C10.5762 6.35742 10.6738 6.25977 10.957 6.25977L11.4062 6.25977C11.6992 6.25977 11.7969 6.35742 11.7969 6.64062ZM14.3066 6.64062L14.3066 7.08984C14.3066 7.37305 14.209 7.4707 13.9258 7.4707L13.4766 7.4707C13.1836 7.4707 13.0859 7.37305 13.0859 7.08984L13.0859 6.64062C13.0859 6.35742 13.1836 6.25977 13.4766 6.25977L13.9258 6.25977C14.209 6.25977 14.3066 6.35742 14.3066 6.64062ZM16.0899 7.4707L15.9863 7.4707C15.6934 7.4707 15.5957 7.37305 15.5957 7.08984L15.5957 6.64062C15.5957 6.35742 15.6934 6.25977 15.9863 6.25977L16.41 6.25977C16.2361 6.62718 16.1249 7.03513 16.0899 7.4707Z" fill="white" fill-opacity="0.85"/>
  <path d="M15.752 15.3809L23.125 15.3809C23.7305 15.3809 24.1016 15.0977 24.1016 14.6191C24.1016 13.1934 22.3145 11.2109 19.4434 11.2109C16.5625 11.2109 14.7754 13.1934 14.7754 14.6191C14.7754 15.0977 15.1465 15.3809 15.752 15.3809ZM19.4434 10.2246C20.6152 10.2246 21.6602 9.16992 21.6602 7.77344C21.6602 6.39648 20.6152 5.40039 19.4434 5.40039C18.2617 5.40039 17.2168 6.41602 17.2168 7.79297C17.2168 9.16992 18.2617 10.2246 19.4434 10.2246Z" fill="white" fill-opacity="0.85"/>
 </g>
</svg>
