<svg version="1.1" xmlns="http://www.w3.org/2000/svg" xmlns:xlink="http://www.w3.org/1999/xlink" viewBox="0 0 16.1328 15.7715">
 <g>
  <rect height="15.7715" opacity="0" width="16.1328" x="0" y="0"/>
  <path d="M15.7715 7.88086C15.7715 12.2266 12.2363 15.7617 7.88086 15.7617C3.53516 15.7617 0 12.2266 0 7.88086C0 3.53516 3.53516 0 7.88086 0C12.2363 0 15.7715 3.53516 15.7715 7.88086ZM7.61719 4.12109L6.86523 5.08789L6.00586 4.19922C5.83008 4.02344 5.55664 4.05273 5.47852 4.27734C5.27344 4.74609 5.16602 5.19531 5.16602 5.64453C5.16602 7.00195 6.06445 8.17383 7.50977 8.33984L7.50977 12.4316C7.50977 12.6367 7.66602 12.7832 7.88086 12.7832C9.99023 12.7832 11.9629 11.4941 12.6172 9.6582C12.7148 9.375 12.6172 9.18945 12.3047 9.18945C10.3418 9.18945 8.92578 10.2539 8.25195 11.6016L8.25195 8.33984C9.69727 8.16406 10.5859 7.00195 10.5859 5.64453C10.5859 5.19531 10.4883 4.74609 10.293 4.27734C10.1953 4.05273 9.92188 4.02344 9.74609 4.19922L8.88672 5.08789L8.14453 4.12109C8.00781 3.92578 7.76367 3.92578 7.61719 4.12109ZM3.125 9.6582C3.68164 11.2402 5.23438 12.4316 7.03125 12.6953C6.99219 12.6172 6.97266 12.5195 6.97266 12.4316L6.97266 10.8301C6.2207 9.88281 5.01953 9.18945 3.44727 9.18945C3.13477 9.18945 3.02734 9.375 3.125 9.6582Z" fill="var(--color-primary)"/>
 </g>
</svg>
