<?xml version="1.0" encoding="UTF-8"?>
<!--Generator: Apple Native CoreSVG 326-->
<!DOCTYPE svg
PUBLIC "-//W3C//DTD SVG 1.1//EN"
       "http://www.w3.org/Graphics/SVG/1.1/DTD/svg11.dtd">
<svg version="1.1" xmlns="http://www.w3.org/2000/svg" xmlns:xlink="http://www.w3.org/1999/xlink" viewBox="0 0 16.1328 15.7715">
 <g>
  <rect height="15.7715" opacity="0" width="16.1328" x="0" y="0"/>
  <path d="M7.88086 15.7617C12.2363 15.7617 15.7715 12.2363 15.7715 7.88086C15.7715 3.52539 12.2363 0 7.88086 0C3.53516 0 0 3.52539 0 7.88086C0 12.2363 3.53516 15.7617 7.88086 15.7617ZM7.88086 14.2773C4.3457 14.2773 1.49414 11.416 1.49414 7.88086C1.49414 4.3457 4.3457 1.48438 7.88086 1.48438C11.416 1.48438 14.2773 4.3457 14.2773 7.88086C14.2773 11.416 11.416 14.2773 7.88086 14.2773Z" fill="white" fill-opacity="0.85"/>
  <path d="M4.50195 11.3477L11.25 11.3477C12.0801 11.3477 12.5 10.9375 12.5 10.1172L12.5 6.10352C12.5 5.27344 12.0801 4.86328 11.25 4.86328L10.3027 4.86328C10.0098 4.86328 9.91211 4.79492 9.74609 4.60938L9.44336 4.27734C9.25781 4.07227 9.05273 3.94531 8.65234 3.94531L7.08984 3.94531C6.68945 3.94531 6.48438 4.07227 6.29883 4.27734L5.98633 4.60938C5.82031 4.78516 5.73242 4.86328 5.43945 4.86328L4.50195 4.86328C3.66211 4.86328 3.24219 5.27344 3.24219 6.10352L3.24219 10.1172C3.24219 10.9375 3.66211 11.3477 4.50195 11.3477ZM7.88086 10.3613C6.61133 10.3613 5.58594 9.3457 5.58594 8.06641C5.58594 6.79688 6.61133 5.78125 7.88086 5.78125C9.15039 5.78125 10.166 6.79688 10.166 8.06641C10.166 9.375 9.15039 10.3613 7.88086 10.3613ZM7.87109 9.63867C8.74023 9.63867 9.44336 8.94531 9.44336 8.06641C9.44336 7.20703 8.74023 6.51367 7.87109 6.51367C7.01172 6.51367 6.30859 7.20703 6.30859 8.06641C6.30859 8.94531 7.01172 9.63867 7.87109 9.63867ZM10.9277 6.97266C10.6348 6.97266 10.3809 6.73828 10.3809 6.42578C10.3809 6.12305 10.6348 5.87891 10.9277 5.87891C11.2305 5.87891 11.4746 6.12305 11.4746 6.42578C11.4844 6.73828 11.2305 6.97266 10.9277 6.97266Z" fill="white" fill-opacity="0.85"/>
 </g>
</svg>
