<?xml version="1.0" encoding="UTF-8"?>
<!--Generator: Apple Native CoreSVG 326-->
<!DOCTYPE svg
PUBLIC "-//W3C//DTD SVG 1.1//EN"
       "http://www.w3.org/Graphics/SVG/1.1/DTD/svg11.dtd">
<svg version="1.1" xmlns="http://www.w3.org/2000/svg" xmlns:xlink="http://www.w3.org/1999/xlink" viewBox="0 0 19.3457 20.3618">
 <g>
  <rect height="20.3618" opacity="0" width="19.3457" x="0" y="0"/>
  <path d="M2.49023 17.3049L16.4941 17.3049C18.1543 17.3049 18.9844 16.4846 18.9844 14.844L18.9844 6.85569C18.9844 5.21506 18.1543 4.40451 16.4941 4.40451L14.3359 4.40451C13.7402 4.40451 13.5547 4.25803 13.2227 3.8967L12.627 3.22287C12.2461 2.81272 11.8359 2.55881 11.0352 2.55881L7.93945 2.55881C7.12891 2.55881 6.71875 2.81272 6.34766 3.22287L5.74219 3.8967C5.41992 4.25803 5.22461 4.40451 4.63867 4.40451L2.49023 4.40451C0.830078 4.40451 0 5.21506 0 6.85569L0 14.844C0 16.4846 0.830078 17.3049 2.49023 17.3049ZM2.50977 15.8889C1.80664 15.8889 1.40625 15.5178 1.40625 14.7756L1.40625 6.93381C1.40625 6.19162 1.80664 5.81076 2.50977 5.81076L5.00977 5.81076C5.69336 5.81076 6.07422 5.66428 6.45508 5.24436L7.03125 4.59006C7.4707 4.10178 7.69531 3.96506 8.39844 3.96506L10.5664 3.96506C11.2695 3.96506 11.4941 4.10178 11.9336 4.59006L12.5195 5.24436C12.8906 5.66428 13.2812 5.81076 13.9648 5.81076L16.4746 5.81076C17.168 5.81076 17.5684 6.19162 17.5684 6.93381L17.5684 14.7756C17.5684 15.5178 17.168 15.8889 16.4746 15.8889ZM9.49219 14.8733C11.7969 14.8733 13.6426 13.0276 13.6426 10.7033C13.6426 8.38889 11.7969 6.54319 9.49219 6.54319C7.1875 6.54319 5.33203 8.38889 5.33203 10.7033C5.33203 13.0276 7.1875 14.8733 9.49219 14.8733ZM9.49219 13.5549C7.92969 13.5549 6.64062 12.2854 6.64062 10.7033C6.64062 9.12131 7.91992 7.86155 9.49219 7.86155C11.0645 7.86155 12.334 9.12131 12.334 10.7033C12.334 12.2854 11.0645 13.5549 9.49219 13.5549ZM13.9258 7.88108C13.9258 8.41819 14.3652 8.84787 14.9023 8.84787C15.4297 8.84787 15.8691 8.41819 15.8691 7.88108C15.8691 7.35373 15.4297 6.90451 14.9023 6.90451C14.3652 6.90451 13.9258 7.35373 13.9258 7.88108Z" fill="white" fill-opacity="0.85"/>
  <path d="M1.00586 1.23069L3.18359 3.04709C3.34961 3.17405 3.51562 3.28147 3.70117 3.28147C3.89648 3.28147 4.0625 3.17405 4.21875 3.04709L6.39648 1.23069C7.10938 0.634984 6.2793-0.488063 5.46875 0.234593L3.70117 1.80686L1.94336 0.234593C1.12305-0.488063 0.292969 0.634984 1.00586 1.23069Z" fill="white" fill-opacity="0.85"/>
 </g>
</svg>
