<svg version="1.1" xmlns="http://www.w3.org/2000/svg" xmlns:xlink="http://www.w3.org/1999/xlink" viewBox="0 0 27.9199 12.627">
 <g>
  <rect height="12.627" opacity="0" width="27.9199" x="0" y="0"/>
  <path d="M2.5293 10.957L3.63281 10.957L3.63281 9.54102L2.5293 9.54102C1.74805 9.54102 1.40625 9.15039 1.40625 8.27148L1.40625 7.38281C1.40625 6.26953 2.22656 5.42969 3.69141 5.25391L6.73828 4.88281C7.1875 4.82422 7.53906 4.70703 7.87109 4.50195L10.7227 2.70508C12.4121 1.65039 13.4375 1.40625 16.3672 1.40625L17.5781 1.40625C19.5215 1.40625 21.0938 2.13867 23.0664 3.86719C23.4375 4.18945 23.6523 4.28711 24.1602 4.44336L24.9219 4.69727C25.752 4.96094 26.1523 5.40039 26.1523 6.15234L26.1523 8.27148C26.1523 9.15039 25.8105 9.54102 25.0293 9.54102L23.916 9.54102L23.916 10.957L25.0293 10.957C26.7871 10.957 27.5586 10.127 27.5586 8.27148L27.5586 6.15234C27.5586 4.6875 26.8359 3.74023 25.3613 3.26172L24.1504 2.87109C22.6953 1.5918 20.459 0 17.5781 0L16.3672 0C13.1836 0 11.875 0.3125 9.9707 1.50391L6.875 3.44727L3.51562 3.85742C1.31836 4.13086 0 5.49805 0 7.38281L0 8.33008C0 10.1465 0.791016 10.957 2.5293 10.957ZM7.62695 10.957L20.0391 10.957L20.0391 9.54102L7.62695 9.54102ZM5.74219 12.6172C7.32422 12.6172 8.56445 11.3867 8.56445 9.79492C8.56445 8.21289 7.32422 6.98242 5.74219 6.98242C4.16016 6.98242 2.91992 8.21289 2.91992 9.79492C2.91992 11.3867 4.16016 12.6172 5.74219 12.6172ZM5.74219 11.2988C4.90234 11.2988 4.23828 10.6445 4.23828 9.79492C4.23828 8.95508 4.90234 8.29102 5.74219 8.29102C6.58203 8.29102 7.24609 8.95508 7.24609 9.79492C7.24609 10.6445 6.58203 11.2988 5.74219 11.2988ZM21.8164 12.6172C23.3984 12.6172 24.6387 11.3867 24.6387 9.79492C24.6387 8.21289 23.3984 6.98242 21.8164 6.98242C20.2344 6.98242 18.9941 8.21289 18.9941 9.79492C18.9941 11.3867 20.2344 12.6172 21.8164 12.6172ZM21.8164 11.2988C20.9766 11.2988 20.3125 10.6445 20.3125 9.79492C20.3125 8.95508 20.9766 8.29102 21.8164 8.29102C22.6562 8.29102 23.3203 8.95508 23.3203 9.79492C23.3203 10.6445 22.6562 11.2988 21.8164 11.2988Z" fill="var(--color-primary)"/>
  <path d="M12.0801 8.32031L15.4785 8.32031C15.918 8.32031 16.1328 7.96875 15.8887 7.56836L14.2285 4.86328C14.0039 4.49219 13.5645 4.48242 13.3301 4.86328L11.6797 7.56836C11.4355 7.96875 11.6309 8.32031 12.0801 8.32031Z" fill="var(--color-primary)"/>
 </g>
</svg>
