<svg version="1.1" xmlns="http://www.w3.org/2000/svg" xmlns:xlink="http://www.w3.org/1999/xlink" viewBox="0 0 27.9199 12.627">
 <g>
  <rect height="12.627" opacity="0" width="27.9199" x="0" y="0"/>
  <path d="M8.49609 10.2148C8.49609 11.5137 7.49023 12.5293 6.19141 12.5293C4.89258 12.5293 3.87695 11.5137 3.87695 10.2148C3.87695 8.92578 4.89258 7.91016 6.19141 7.91016C7.49023 7.91016 8.49609 8.92578 8.49609 10.2148ZM23.6816 10.2148C23.6816 11.5137 22.666 12.5293 21.3672 12.5293C20.0781 12.5293 19.0625 11.5137 19.0625 10.2148C19.0625 8.92578 20.0781 7.91016 21.3672 7.91016C22.666 7.91016 23.6816 8.92578 23.6816 10.2148ZM24.1504 2.87109L25.3613 3.26172C26.8359 3.74023 27.5586 4.6875 27.5586 6.15234L27.5586 8.27148C27.5586 10.127 26.7871 10.957 25.0293 10.957L24.5508 10.957C24.6094 10.7129 24.6387 10.4688 24.6387 10.2148C24.6387 8.38867 23.2031 6.95312 21.3672 6.95312C19.541 6.95312 18.1055 8.38867 18.1055 10.2148C18.1055 10.4688 18.1348 10.7129 18.1836 10.957L9.36523 10.957C9.42383 10.7129 9.45312 10.4688 9.45312 10.2148C9.45312 8.38867 8.01758 6.95312 6.19141 6.95312C4.35547 6.95312 2.91992 8.38867 2.91992 10.2148C2.91992 10.4688 2.94922 10.7129 2.99805 10.957L2.5293 10.957C0.791016 10.957 0 10.1465 0 8.33008L0 7.38281C0 5.49805 1.31836 4.13086 3.51562 3.85742L6.875 3.44727L9.9707 1.50391C11.875 0.3125 13.1836 0 16.3672 0L17.5781 0C20.459 0 22.6953 1.60156 24.1504 2.87109ZM12.1484 2.99805C10.6348 2.99805 9.61914 3.94531 9.61914 5.3418C9.61914 6.72852 10.6348 7.66602 12.1387 7.66602L15.3027 7.66602L15.3027 8.29102C15.3027 8.78906 15.6641 8.95508 16.084 8.68164L17.9199 7.49023C18.2422 7.29492 18.2617 6.875 17.9199 6.65039L16.0938 5.45898C15.6641 5.17578 15.3027 5.35156 15.3027 5.85938L15.3027 6.44531L12.1387 6.44531C11.3672 6.44531 10.8789 6.02539 10.8789 5.40039C10.8789 4.69727 11.377 4.21875 12.1484 4.21875L16.8164 4.21875C17.1973 4.21875 17.4609 3.97461 17.4609 3.62305C17.4609 3.26172 17.1973 2.99805 16.8066 2.99805Z" fill="var(--color-primary)"/>
 </g>
</svg>
