<?xml version="1.0" encoding="UTF-8"?>
<!--Generator: Apple Native CoreSVG 326-->
<!DOCTYPE svg
PUBLIC "-//W3C//DTD SVG 1.1//EN"
       "http://www.w3.org/Graphics/SVG/1.1/DTD/svg11.dtd">
<svg version="1.1" xmlns="http://www.w3.org/2000/svg" xmlns:xlink="http://www.w3.org/1999/xlink" viewBox="0 0 11.1621 21.2988">
 <g>
  <rect height="21.2988" opacity="0" width="11.1621" x="0" y="0"/>
  <path d="M5.39062 1.29883C6.71875 1.29883 7.91016 1.78711 8.83789 2.57812C9.21875 2.90039 9.59961 2.93945 9.86328 2.67578C10.1562 2.38281 10.1367 1.97266 9.82422 1.65039C8.68164 0.507812 7.08008 0 5.39062 0C3.71094 0 2.10938 0.507812 0.966797 1.65039C0.654297 1.97266 0.634766 2.38281 0.927734 2.67578C1.19141 2.93945 1.57227 2.90039 1.95312 2.57812C2.88086 1.78711 4.07227 1.29883 5.39062 1.29883Z" fill="white" fill-opacity="0.85"/>
  <path d="M5.39062 4.02344C6.02539 4.02344 6.5918 4.20898 7.04102 4.55078C7.48047 4.86328 7.85156 4.83398 8.08594 4.58984C8.35938 4.32617 8.33984 3.94531 8.06641 3.66211C7.62695 3.23242 6.55273 2.72461 5.39062 2.72461C4.23828 2.72461 3.16406 3.23242 2.72461 3.66211C2.45117 3.94531 2.43164 4.32617 2.70508 4.58984C2.93945 4.83398 3.31055 4.86328 3.75 4.55078C4.19922 4.20898 4.76562 4.02344 5.39062 4.02344Z" fill="white" fill-opacity="0.85"/>
  <path d="M5.39062 21.2891C8.4375 21.2891 9.74609 20.625 9.74609 18.877L9.74609 8.95508C9.74609 7.1582 8.08594 6.09375 5.39062 6.09375C2.71484 6.09375 1.05469 7.1582 1.05469 8.95508L1.05469 18.877C1.05469 20.625 2.35352 21.2891 5.39062 21.2891ZM1.78711 12.2949L1.78711 10.5957L0.722656 10.5957C0.322266 10.5957 0 10.9082 0 11.3086L0 11.582C0 11.9727 0.322266 12.2949 0.722656 12.2949ZM9.00391 12.2949L10.0684 12.2949C10.4785 12.2949 10.8008 11.9727 10.8008 11.582L10.8008 11.3086C10.8008 10.9082 10.4785 10.5957 10.0684 10.5957L9.00391 10.5957ZM5.39062 12.4316C4.86328 12.4316 4.00391 12.4805 3.70117 12.4805C3.23242 12.4805 3.01758 12.2754 2.97852 11.7871L2.87109 10.6445C2.79297 9.72656 3.44727 9.39453 5.39062 9.39453C7.35352 9.39453 7.99805 9.72656 7.91992 10.6445L7.83203 11.7871C7.7832 12.2754 7.56836 12.4805 7.09961 12.4805C6.79688 12.4805 5.94727 12.4316 5.39062 12.4316ZM5.39062 18.7109C3.37891 18.7109 2.73438 18.4082 2.89062 17.4512L2.97852 16.9141C3.10547 16.1621 3.68164 15.9277 5.39062 15.9277C7.11914 15.9277 7.69531 16.1621 7.82227 16.9141L7.91016 17.4512C8.07617 18.4082 7.42188 18.7109 5.39062 18.7109Z" fill="white" fill-opacity="0.85"/>
 </g>
</svg>
