<?xml version="1.0" encoding="UTF-8"?>
<!--Generator: Apple Native CoreSVG 326-->
<!DOCTYPE svg
PUBLIC "-//W3C//DTD SVG 1.1//EN"
       "http://www.w3.org/Graphics/SVG/1.1/DTD/svg11.dtd">
<svg version="1.1" xmlns="http://www.w3.org/2000/svg" xmlns:xlink="http://www.w3.org/1999/xlink" viewBox="0 0 27.9199 12.6855">
 <g>
  <rect height="12.6855" opacity="0" width="27.9199" x="0" y="0"/>
  <path d="M10.459 6.06445C9.32617 6.06445 8.53516 5.66406 7.8418 4.75586L5.83984 2.10938C5.40039 1.5332 5.09766 1.40625 4.23828 1.40625L2.40234 1.40625C2.02148 1.40625 1.69922 1.08398 1.69922 0.703125C1.69922 0.3125 2.02148 0 2.40234 0L4.23828 0C5.45898 0 6.25977 0.351562 6.94336 1.24023L8.97461 3.88672C9.44336 4.51172 9.7168 4.6582 10.459 4.6582L12.1875 4.6582L12.1875 4.0918C12.1875 3.4668 12.7148 3.29102 13.1738 3.59375L15.1074 4.83398C15.5273 5.10742 15.5176 5.63477 15.1074 5.89844L13.1641 7.13867C12.7148 7.43164 12.1875 7.25586 12.1875 6.64062L12.1875 6.06445ZM2.5293 10.9863L2.99805 10.9863C2.94922 10.7422 2.91992 10.498 2.91992 10.2441C2.91992 8.41797 4.35547 6.98242 6.19141 6.98242C8.01758 6.98242 9.45312 8.41797 9.45312 10.2441C9.45312 10.498 9.42383 10.7422 9.36523 10.9863L18.1836 10.9863C18.1348 10.7422 18.1055 10.498 18.1055 10.2441C18.1055 8.41797 19.541 6.98242 21.3672 6.98242C23.2031 6.98242 24.6387 8.41797 24.6387 10.2441C24.6387 10.498 24.6094 10.7422 24.5508 10.9863L25.0293 10.9863C26.7871 10.9863 27.5586 10.1562 27.5586 8.30078L27.5586 6.18164C27.5586 4.7168 26.8359 3.76953 25.3613 3.29102L24.1504 2.90039C22.6953 1.63086 20.459 0.0292969 17.5781 0.0292969L16.3672 0.0292969C13.1836 0.0292969 11.875 0.341797 9.9707 1.5332L6.875 3.47656L3.51562 3.88672C1.31836 4.16016 0 5.52734 0 7.41211L0 8.35938C0 10.1758 0.791016 10.9863 2.5293 10.9863ZM6.19141 12.5586C7.49023 12.5586 8.49609 11.543 8.49609 10.2441C8.49609 8.95508 7.49023 7.93945 6.19141 7.93945C4.89258 7.93945 3.87695 8.95508 3.87695 10.2441C3.87695 11.543 4.89258 12.5586 6.19141 12.5586ZM21.3672 12.5586C22.666 12.5586 23.6816 11.543 23.6816 10.2441C23.6816 8.95508 22.666 7.93945 21.3672 7.93945C20.0781 7.93945 19.0625 8.95508 19.0625 10.2441C19.0625 11.543 20.0781 12.5586 21.3672 12.5586Z" fill="white" fill-opacity="0.85"/>
 </g>
</svg>
