<?xml version="1.0" encoding="UTF-8"?>
<!--Generator: Apple Native CoreSVG 326-->
<!DOCTYPE svg
PUBLIC "-//W3C//DTD SVG 1.1//EN"
       "http://www.w3.org/Graphics/SVG/1.1/DTD/svg11.dtd">
<svg version="1.1" xmlns="http://www.w3.org/2000/svg" xmlns:xlink="http://www.w3.org/1999/xlink" viewBox="0 0 27.9199 19.3628">
 <g>
  <rect height="19.3628" opacity="0" width="27.9199" x="0" y="0"/>
  <path d="M8.49609 13.5828C8.49609 14.8816 7.49023 15.8972 6.19141 15.8972C4.89258 15.8972 3.87695 14.8816 3.87695 13.5828C3.87695 12.2937 4.89258 11.2781 6.19141 11.2781C7.49023 11.2781 8.49609 12.2937 8.49609 13.5828ZM23.6816 13.5828C23.6816 14.8816 22.666 15.8972 21.3672 15.8972C20.0781 15.8972 19.0625 14.8816 19.0625 13.5828C19.0625 12.2937 20.0781 11.2781 21.3672 11.2781C22.666 11.2781 23.6816 12.2937 23.6816 13.5828ZM24.1504 6.23903L25.3613 6.62965C26.8359 7.10817 27.5586 8.05543 27.5586 9.52028L27.5586 11.6394C27.5586 13.4949 26.7871 14.325 25.0293 14.325L24.5508 14.325C24.6094 14.0808 24.6387 13.8367 24.6387 13.5828C24.6387 11.7566 23.2031 10.3211 21.3672 10.3211C19.541 10.3211 18.1055 11.7566 18.1055 13.5828C18.1055 13.8367 18.1348 14.0808 18.1836 14.325L9.36523 14.325C9.42383 14.0808 9.45312 13.8367 9.45312 13.5828C9.45312 11.7566 8.01758 10.3211 6.19141 10.3211C4.35547 10.3211 2.91992 11.7566 2.91992 13.5828C2.91992 13.8367 2.94922 14.0808 2.99805 14.325L2.5293 14.325C0.791016 14.325 0 13.5144 0 11.698L0 10.7507C0 8.86598 1.31836 7.49879 3.51562 7.22535L6.875 6.8152L9.9707 4.87184C11.875 3.68043 13.1836 3.36793 16.3672 3.36793L17.5781 3.36793C20.459 3.36793 22.6953 4.96949 24.1504 6.23903ZM13.3301 8.59254L11.6797 11.3074C11.4355 11.698 11.6309 12.0593 12.0801 12.0593L15.4785 12.0593C15.918 12.0593 16.1328 11.698 15.8887 11.3074L14.2285 8.59254C14.0039 8.22145 13.5645 8.21168 13.3301 8.59254Z" fill="white" fill-opacity="0.85"/>
  <path d="M15.8887 16.3757L14.2285 19.0808C14.0039 19.4519 13.5645 19.4617 13.3301 19.0808L11.6797 16.3757C11.4355 15.9754 11.6309 15.6238 12.0801 15.6238L15.4785 15.6238C15.918 15.6238 16.1328 15.9754 15.8887 16.3757Z" fill="white" fill-opacity="0.85"/>
 </g>
</svg>
