<?xml version="1.0" encoding="UTF-8"?>
<!--Generator: Apple Native CoreSVG 326-->
<!DOCTYPE svg
PUBLIC "-//W3C//DTD SVG 1.1//EN"
       "http://www.w3.org/Graphics/SVG/1.1/DTD/svg11.dtd">
<svg version="1.1" xmlns="http://www.w3.org/2000/svg" xmlns:xlink="http://www.w3.org/1999/xlink" viewBox="0 0 27.9199 14.5996">
 <g>
  <rect height="14.5996" opacity="0" width="27.9199" x="0" y="0"/>
  <path d="M24.1504 3.85742L25.3613 4.24805C26.8359 4.72656 27.5586 5.67383 27.5586 7.13867L27.5586 9.25781C27.5586 11.1133 26.7871 11.9434 25.0293 11.9434L24.3966 11.9434C23.9639 12.9343 22.9831 13.6035 21.8164 13.6035C20.6497 13.6035 19.6689 12.9343 19.2362 11.9434L8.32241 11.9434C7.8897 12.9343 6.90889 13.6035 5.74219 13.6035C4.57548 13.6035 3.59467 12.9343 3.16196 11.9434L2.5293 11.9434C0.791016 11.9434 0 11.1328 0 9.31641L0 8.36914C0 6.48438 1.31836 5.11719 3.51562 4.84375L5.77341 4.56809L6.75889 5.86603C6.75236 5.86729 6.74533 5.86822 6.73828 5.86914L3.69141 6.24023C2.22656 6.41602 1.40625 7.25586 1.40625 8.36914L1.40625 9.25781C1.40625 10.1367 1.74805 10.5273 2.5293 10.5273L2.93236 10.5273C3.0556 9.06924 4.24605 7.96875 5.74219 7.96875C7.23833 7.96875 8.42878 9.06924 8.55202 10.5273L19.0066 10.5273C19.1298 9.06924 20.3203 7.96875 21.8164 7.96875C23.3125 7.96875 24.503 9.06924 24.6262 10.5273L25.0293 10.5273C25.8105 10.5273 26.1523 10.1367 26.1523 9.25781L26.1523 7.13867C26.1523 6.38672 25.752 5.94727 24.9219 5.68359L24.1602 5.42969C23.6523 5.27344 23.4375 5.17578 23.0664 4.85352C21.0938 3.125 19.5215 2.39258 17.5781 2.39258L16.3672 2.39258C13.4375 2.39258 12.4121 2.63672 10.7227 3.69141L9.74842 4.30531L8.88537 3.17156L9.9707 2.49023C11.875 1.29883 13.1836 0.986328 16.3672 0.986328L17.5781 0.986328C20.459 0.986328 22.6953 2.57812 24.1504 3.85742ZM4.23828 10.7812C4.23828 11.6309 4.90234 12.2852 5.74219 12.2852C6.58203 12.2852 7.24609 11.6309 7.24609 10.7812C7.24609 9.94141 6.58203 9.27734 5.74219 9.27734C4.90234 9.27734 4.23828 9.94141 4.23828 10.7812ZM20.3125 10.7812C20.3125 11.6309 20.9766 12.2852 21.8164 12.2852C22.6562 12.2852 23.3203 11.6309 23.3203 10.7812C23.3203 9.94141 22.6562 9.27734 21.8164 9.27734C20.9766 9.27734 20.3125 9.94141 20.3125 10.7812Z" fill="white" fill-opacity="0.85"/>
  <path d="M2.40234 2.36328L4.23828 2.36328C5.09766 2.36328 5.40039 2.49023 5.83984 3.06641L7.8418 5.71289C8.53516 6.62109 9.32617 7.02148 10.459 7.02148L12.1875 7.02148L12.1875 7.59766C12.1875 8.21289 12.7148 8.38867 13.1641 8.0957L15.1074 6.85547C15.5176 6.5918 15.5273 6.06445 15.1074 5.79102L13.1738 4.55078C12.7148 4.24805 12.1875 4.42383 12.1875 5.04883L12.1875 5.61523L10.459 5.61523C9.7168 5.61523 9.44336 5.46875 8.97461 4.84375L6.94336 2.19727C6.25977 1.30859 5.45898 0.957031 4.23828 0.957031L2.40234 0.957031C2.02148 0.957031 1.69922 1.26953 1.69922 1.66016C1.69922 2.04102 2.02148 2.36328 2.40234 2.36328Z" fill="white" fill-opacity="0.85"/>
 </g>
</svg>
