<?xml version="1.0" encoding="UTF-8"?>
<!--Generator: Apple Native CoreSVG 326-->
<!DOCTYPE svg
PUBLIC "-//W3C//DTD SVG 1.1//EN"
       "http://www.w3.org/Graphics/SVG/1.1/DTD/svg11.dtd">
<svg version="1.1" xmlns="http://www.w3.org/2000/svg" xmlns:xlink="http://www.w3.org/1999/xlink" viewBox="0 0 27.9199 22.8027">
 <g>
  <rect height="22.8027" opacity="0" width="27.9199" x="0" y="0"/>
  <path d="M8.49609 15.3027C8.49609 16.6016 7.49023 17.6172 6.19141 17.6172C4.89258 17.6172 3.87695 16.6016 3.87695 15.3027C3.87695 14.0137 4.89258 12.998 6.19141 12.998C7.49023 12.998 8.49609 14.0137 8.49609 15.3027ZM23.6816 15.3027C23.6816 16.6016 22.666 17.6172 21.3672 17.6172C20.0781 17.6172 19.0625 16.6016 19.0625 15.3027C19.0625 14.0137 20.0781 12.998 21.3672 12.998C22.666 12.998 23.6816 14.0137 23.6816 15.3027ZM24.1504 7.95898L25.3613 8.34961C26.8359 8.82812 27.5586 9.77539 27.5586 11.2402L27.5586 13.3594C27.5586 15.2148 26.7871 16.0449 25.0293 16.0449L24.5508 16.0449C24.6094 15.8008 24.6387 15.5566 24.6387 15.3027C24.6387 13.4766 23.2031 12.041 21.3672 12.041C19.541 12.041 18.1055 13.4766 18.1055 15.3027C18.1055 15.5566 18.1348 15.8008 18.1836 16.0449L9.36523 16.0449C9.42383 15.8008 9.45312 15.5566 9.45312 15.3027C9.45312 13.4766 8.01758 12.041 6.19141 12.041C4.35547 12.041 2.91992 13.4766 2.91992 15.3027C2.91992 15.5566 2.94922 15.8008 2.99805 16.0449L2.5293 16.0449C0.791016 16.0449 0 15.2344 0 13.418L0 12.4707C0 10.5859 1.31836 9.21875 3.51562 8.94531L6.875 8.53516L9.9707 6.5918C10.3702 6.34183 10.7435 6.13056 11.1133 5.95478L11.1133 6.77734C11.1133 8.125 11.9727 9.00391 13.2812 9.00391L16.748 9.00391C18.0566 9.00391 18.916 8.125 18.916 6.77734L18.916 5.20791C21.1583 5.59461 22.9294 6.89369 24.1504 7.95898Z" fill="white" fill-opacity="0.85"/>
  <path d="M13.2812 7.86133L16.748 7.86133C17.4219 7.86133 17.7734 7.5 17.7734 6.77734L17.7734 4.17969C17.7734 3.4668 17.4219 3.10547 16.748 3.10547L13.2812 3.10547C12.6074 3.10547 12.2559 3.4668 12.2559 4.17969L12.2559 6.77734C12.2559 7.5 12.6074 7.86133 13.2812 7.86133ZM12.9004 3.75977L13.8281 3.75977L13.8281 2.16797C13.8281 1.40625 14.2871 0.917969 15.0098 0.917969C15.7422 0.917969 16.2109 1.40625 16.2109 2.16797L16.2109 3.75977L17.1289 3.75977L17.1289 2.32422C17.1289 0.898438 16.3086 0 15.0098 0C13.7305 0 12.9004 0.898438 12.9004 2.32422Z" fill="white" fill-opacity="0.85"/>
 </g>
</svg>
