<svg version="1.1" xmlns="http://www.w3.org/2000/svg" xmlns:xlink="http://www.w3.org/1999/xlink" width="14.7656" height="20.2246" viewBox="0 0 14.7656 20.2246">
 <g>
  <rect height="20.2246" opacity="0" width="14.7656" x="0" y="0"/>
  <path d="M13.6621 16.6016C14.1211 16.6016 14.4043 16.3184 14.4043 15.8594L14.4043 9.16016C14.4043 8.70117 14.1211 8.41797 13.6621 8.41797C13.2129 8.41797 12.9297 8.70117 12.9297 9.16016L12.9297 15.8594C12.9297 16.3184 13.2129 16.6016 13.6621 16.6016ZM13.6621 11.2109L13.6621 10.0781L10.8105 10.0781L10.8105 11.2109ZM5.68359 20.2148C9.72656 20.2148 11.3672 19.3652 11.3672 17.1582L11.3672 3.68164C11.3672 1.36719 9.26758 0 5.68359 0C2.10938 0 0 1.36719 0 3.68164L0 17.1582C0 19.3652 1.64062 20.2148 5.68359 20.2148ZM5.68359 8.32031C4.95117 8.32031 3.79883 8.36914 3.38867 8.36914C2.7832 8.36914 2.5293 8.13477 2.4707 7.51953L2.34375 5.9668C2.23633 4.79492 3.11523 4.3457 5.68359 4.3457C8.25195 4.3457 9.14062 4.79492 9.0332 5.9668L8.89648 7.51953C8.83789 8.13477 8.58398 8.36914 7.97852 8.36914C7.57812 8.36914 6.41602 8.32031 5.68359 8.32031ZM5.68359 16.8262C3.00781 16.8262 2.17773 16.4258 2.36328 15.2246L2.4707 14.4922C2.60742 13.5352 3.41797 13.2031 5.68359 13.2031C7.95898 13.2031 8.75977 13.5352 8.90625 14.4922L9.00391 15.2246C9.18945 16.4258 8.36914 16.8262 5.68359 16.8262Z" fill="var(--color-primary)"/>
 </g>
</svg>
