<svg version="1.1" xmlns="http://www.w3.org/2000/svg" xmlns:xlink="http://www.w3.org/1999/xlink" viewBox="0 0 17.019 18.1543">
 <g>
  <rect height="18.1543" opacity="0" width="17.019" x="0" y="0"/>
  <path d="M0.828834 18.0469L0.867896 18.0469C3.31907 18.0469 3.51438 16.4941 4.69602 16.4941C5.84836 16.4941 6.19016 18.0469 8.32883 18.0469C10.4675 18.0469 10.8093 16.4941 11.9616 16.4941C13.1433 16.4941 13.3386 18.0469 15.7898 18.0469L15.8288 18.0469C16.1706 18.0469 16.4441 17.7734 16.4441 17.4316C16.4441 17.0996 16.1706 16.8262 15.8288 16.8262L15.7898 16.8262C14.989 16.8262 14.5495 16.4941 13.9734 16.084C13.4753 15.7227 12.8308 15.2734 11.9616 15.2734C11.0632 15.2734 10.4089 15.752 9.91086 16.123C9.38352 16.5234 8.9929 16.8262 8.32883 16.8262C7.66477 16.8262 7.27415 16.5234 6.7468 16.123C6.24876 15.752 5.59446 15.2734 4.69602 15.2734C3.82688 15.2734 3.18235 15.7227 2.6843 16.084C2.10813 16.4941 1.66868 16.8262 0.867896 16.8262L0.828834 16.8262C0.487037 16.8262 0.213599 17.0996 0.213599 17.4316C0.213599 17.7734 0.487037 18.0469 0.828834 18.0469ZM0.369849 13.418L1.8054 15.3125C1.87376 15.2734 1.94211 15.2148 2.02024 15.166C2.97727 14.4727 3.72922 14.1309 4.69602 14.1309C5.69211 14.1309 6.44407 14.4922 7.4304 15.2148C7.97727 15.6348 8.08469 15.6836 8.32883 15.6836C8.55344 15.6836 8.67063 15.6348 9.11008 15.3027C10.1452 14.5117 10.9265 14.1309 11.9616 14.1309C12.9284 14.1309 13.6804 14.4727 14.6374 15.166C14.7156 15.2148 14.7839 15.2734 14.8523 15.3125L16.2878 13.418C17.0593 12.4023 16.5906 11.2695 15.2624 11.2695L1.40501 11.2695C0.0768805 11.2695-0.401635 12.4121 0.369849 13.418ZM4.06126 3.17383C4.18821 2.60742 4.46165 1.79688 4.64719 1.46484C4.78391 1.2207 4.9304 1.12305 5.19407 1.09375C5.60422 1.03516 6.53196 0.996094 8.32883 0.996094C10.1159 0.996094 11.0534 1.01562 11.4636 1.09375C11.7273 1.13281 11.864 1.2207 12.0105 1.46484C12.196 1.78711 12.4499 2.60742 12.5866 3.17383C12.6452 3.39844 12.5476 3.45703 12.3327 3.44727C11.4343 3.38867 10.321 3.33008 8.32883 3.33008C6.33665 3.33008 5.22336 3.38867 4.32493 3.44727C4.11008 3.45703 4.01243 3.39844 4.06126 3.17383ZM4.34446 7.34375C3.80735 7.34375 3.40696 6.94336 3.40696 6.41602C3.40696 5.87891 3.80735 5.47852 4.34446 5.47852C4.8718 5.47852 5.27219 5.87891 5.27219 6.41602C5.27219 6.94336 4.8718 7.34375 4.34446 7.34375ZM6.84446 7.08984C6.44407 7.08984 6.17063 6.81641 6.17063 6.41602C6.17063 6.02539 6.44407 5.74219 6.84446 5.74219L9.81321 5.74219C10.2136 5.74219 10.487 6.02539 10.487 6.41602C10.487 6.81641 10.2136 7.08984 9.81321 7.08984ZM12.3132 7.34375C11.7859 7.34375 11.3855 6.94336 11.3855 6.41602C11.3855 5.87891 11.7859 5.47852 12.3132 5.47852C12.8406 5.47852 13.2507 5.87891 13.2507 6.41602C13.2507 6.94336 12.8406 7.34375 12.3132 7.34375ZM8.32883 8.82812C10.2136 8.82812 12.6843 8.74023 13.7292 8.61328C14.5105 8.52539 14.9402 8.08594 14.9402 7.36328L14.9402 6.38672C14.9402 5.46875 14.7644 4.93164 14.2273 4.24805L13.7683 3.65234C13.5632 2.65625 13.1921 1.61133 13.0066 1.20117C12.7136 0.576172 12.1277 0.185547 11.3659 0.078125C10.9948 0.0292969 9.80344 0 8.32883 0C6.85422 0 5.65305 0.0390625 5.29172 0.078125C4.52024 0.166016 3.94407 0.576172 3.6511 1.20117C3.45579 1.61133 3.09446 2.65625 2.88938 3.65234L2.4304 4.24805C1.89329 4.93164 1.71751 5.46875 1.71751 6.38672L1.71751 7.36328C1.71751 8.08594 2.14719 8.52539 2.92844 8.61328C3.97336 8.74023 6.44407 8.82812 8.32883 8.82812ZM2.45969 10.3711L3.12376 10.3711C3.54368 10.3711 3.86594 10.0488 3.86594 9.63867L3.86594 8.24219L1.71751 7.2168L1.71751 9.63867C1.71751 10.0488 2.03977 10.3711 2.45969 10.3711ZM13.5339 10.3711L14.198 10.3711C14.6179 10.3711 14.9402 10.0488 14.9402 9.63867L14.9402 7.2168L12.7917 8.24219L12.7917 9.63867C12.7917 10.0488 13.114 10.3711 13.5339 10.3711Z" fill="var(--color-primary)"/>
 </g>
</svg>
