<svg version="1.1" xmlns="http://www.w3.org/2000/svg" xmlns:xlink="http://www.w3.org/1999/xlink" viewBox="0 0 18.8281 14.5605">
 <g>
  <rect height="14.5605" opacity="0" width="18.8281" x="0" y="0"/>
  <path d="M3.92578 14.541L13.8574 14.541C16.4551 14.541 18.4668 12.5684 18.4668 10.0391C18.4668 7.49023 16.4258 5.55664 13.6035 5.55664C12.5781 3.54492 10.6738 2.34375 8.45703 2.34375C5.46875 2.34375 2.91992 4.62891 2.64648 7.69531C1.11328 8.13477 0.117188 9.45312 0.117188 11.0742C0.117188 12.9883 1.50391 14.541 3.92578 14.541ZM3.90625 13.125C2.42188 13.125 1.52344 12.3633 1.52344 11.1133C1.52344 10.0684 2.17773 9.3457 3.36914 9.01367C3.83789 8.90625 4.01367 8.68164 4.05273 8.18359C4.24805 5.625 6.10352 3.75 8.45703 3.75C10.1953 3.75 11.582 4.7168 12.4414 6.45508C12.6367 6.86523 12.8711 7.01172 13.3887 7.01172C15.8008 7.01172 17.0605 8.41797 17.0605 10.0684C17.0605 11.7871 15.7031 13.125 13.9551 13.125ZM1.08398 6.99219C1.67969 6.99219 2.14844 6.51367 2.14844 5.9082C2.14844 5.3125 1.67969 4.83398 1.08398 4.83398C0.478516 4.83398 0 5.3125 0 5.9082C0 6.51367 0.478516 6.99219 1.08398 6.99219ZM12.3047 2.03125C12.8613 2.03125 13.3203 1.57227 13.3203 1.01562C13.3203 0.458984 12.8613 0 12.3047 0C11.748 0 11.2988 0.458984 11.2988 1.01562C11.2988 1.57227 11.748 2.03125 12.3047 2.03125ZM15.5469 4.69727C16.3867 4.69727 17.0605 4.02344 17.0605 3.18359C17.0605 2.34375 16.3867 1.66992 15.5469 1.66992C14.707 1.66992 14.0332 2.34375 14.0332 3.18359C14.0332 4.02344 14.707 4.69727 15.5469 4.69727Z" fill="var(--color-primary)"/>
  <path d="M6.80664 11.8457C7.8125 11.8457 8.44727 11.1328 8.45703 10.3711C8.45703 10.0781 8.29102 9.88281 8.01758 9.88281C7.76367 9.88281 7.63672 10.0293 7.56836 10.3125C7.49023 10.6152 7.29492 11.0059 6.80664 11.0059C6.11328 11.0059 5.89844 10.2734 5.89844 9.43359C5.89844 8.66211 6.12305 7.88086 6.79688 7.88086C7.28516 7.88086 7.46094 8.27148 7.53906 8.58398C7.60742 8.86719 7.73438 9.01367 7.99805 9.01367C8.26172 9.01367 8.42773 8.80859 8.42773 8.52539C8.41797 7.75391 7.7832 7.05078 6.78711 7.05078C5.52734 7.05078 4.96094 8.11523 4.96094 9.43359C4.96094 10.7422 5.48828 11.8457 6.80664 11.8457ZM10.5078 11.8457C11.6211 11.8457 12.3242 10.9082 12.3242 9.44336C12.3242 7.97852 11.6211 7.05078 10.5078 7.05078C9.38477 7.05078 8.67188 7.97852 8.67188 9.44336C8.67188 10.9082 9.38477 11.8457 10.5078 11.8457ZM10.5078 11.0059C9.95117 11.0059 9.60938 10.4297 9.60938 9.44336C9.60938 8.45703 9.95117 7.88086 10.5078 7.88086C11.0449 7.88086 11.3867 8.45703 11.3867 9.44336C11.3867 10.4297 11.0449 11.0059 10.5078 11.0059ZM12.832 12.1582L14.0625 12.1582C14.2188 12.1582 14.3555 12.0117 14.3555 11.8555C14.3555 11.6992 14.209 11.5527 14.0625 11.5527L13.5254 11.5527L13.75 11.3379C14.0625 11.0449 14.2676 10.7715 14.2676 10.4688C14.2676 10.0293 13.9062 9.7168 13.4082 9.7168C12.8809 9.7168 12.5488 10.1172 12.5488 10.4199C12.5488 10.6348 12.7051 10.752 12.8613 10.752C13.0664 10.752 13.1543 10.6152 13.1934 10.498C13.2422 10.3809 13.3105 10.3223 13.4082 10.3223C13.5059 10.3223 13.5742 10.3906 13.5742 10.4883C13.5742 10.6445 13.4082 10.8496 13.2617 10.9961L12.6855 11.5625C12.6074 11.6309 12.5488 11.7676 12.5488 11.8652C12.5488 12.0312 12.6758 12.1582 12.832 12.1582Z" fill="var(--color-primary)"/>
 </g>
</svg>
