<svg version="1.1" xmlns="http://www.w3.org/2000/svg" xmlns:xlink="http://www.w3.org/1999/xlink" viewBox="0 0 18.0394 19.0823">
 <g>
  <rect height="19.0823" opacity="0" width="18.0394" x="0" y="0"/>
  <path d="M17.5402 14.4093C18.2043 12.0363 16.466 10.9913 12.2179 10.9913C10.3039 10.9913 8.35074 11.1476 6.67105 11.4503L7.08121 11.9581C7.30582 8.72571 6.41715 6.10852 4.6691 4.79016L4.83511 5.63C5.59683 3.17883 4.06363 1.3136 2.12027 1.3136C0.489412 1.3136-0.321135 2.48547 0.118318 4.25305L3.00894 15.9425C3.30191 17.1241 4.06363 17.7491 5.23551 17.7491L14.5421 17.7491C16.173 17.7491 16.8371 16.9679 17.5402 14.4093ZM16.1925 14.0382C15.6164 16.1085 15.3429 16.3429 14.5421 16.3429L5.23551 16.3429C4.77652 16.3429 4.50308 16.089 4.37613 15.6007L1.47574 3.88196C1.29996 3.17883 1.56363 2.71985 2.12027 2.71985C3.00894 2.71985 3.79996 3.5304 3.57535 4.93665C3.47769 5.53235 3.55582 5.69836 3.87808 5.9718C5.11832 6.9679 5.81168 9.14563 5.80191 11.9874C5.80191 12.4952 6.12418 12.8273 6.62222 12.8273C7.37418 12.8077 9.33707 12.4073 12.2179 12.4073C15.6261 12.4073 16.5148 12.8663 16.1925 14.0382Z" fill="var(--color-primary)"/>
  <path d="M6.50504 2.71985C6.45621 2.95422 6.5441 3.1593 6.77847 3.25696C7.06168 3.35461 7.36441 3.2179 7.40347 2.91516C7.57926 1.75305 7.00308 0.542114 6.04605 0.073364C5.71402-0.102417 5.45035 0.0635984 5.35269 0.297973C5.28433 0.512817 5.33316 0.756958 5.58707 0.893677C6.25113 1.19641 6.61246 1.92883 6.50504 2.71985ZM8.55582 8.58899C8.45816 8.93079 8.63394 9.13586 8.84879 9.19446C9.08316 9.25305 9.37613 9.14563 9.45426 8.85266C9.85465 7.38782 9.22965 5.21008 7.60855 4.4386C7.29605 4.29211 7.05191 4.39954 6.93472 4.59485C6.81754 4.79993 6.84683 5.0929 7.15933 5.25891C8.48746 5.9718 8.84879 7.49524 8.55582 8.58899Z" fill="var(--color-primary)"/>
 </g>
</svg>
