<svg version="1.1" xmlns="http://www.w3.org/2000/svg" xmlns:xlink="http://www.w3.org/1999/xlink" viewBox="0 0 18.0394 16.4551">
 <g>
  <rect height="16.4551" opacity="0" width="18.0394" x="0" y="0"/>
  <path d="M17.5402 13.0957C18.2043 10.7227 16.466 9.67773 12.2179 9.67773C10.3039 9.67773 8.35074 9.83398 6.67105 10.1367L7.08121 10.6445C7.30582 7.41211 6.41715 4.79492 4.6691 3.47656L4.83511 4.31641C5.59683 1.86523 4.06363 0 2.12027 0C0.489412 0-0.321135 1.17188 0.118318 2.93945L3.00894 14.6289C3.30191 15.8105 4.06363 16.4355 5.23551 16.4355L14.5421 16.4355C16.173 16.4355 16.8371 15.6543 17.5402 13.0957ZM16.1925 12.7246C15.6164 14.7949 15.3429 15.0293 14.5421 15.0293L5.23551 15.0293C4.77652 15.0293 4.50308 14.7754 4.37613 14.2871L1.47574 2.56836C1.29996 1.86523 1.56363 1.40625 2.12027 1.40625C3.00894 1.40625 3.79996 2.2168 3.57535 3.62305C3.47769 4.21875 3.55582 4.38477 3.87808 4.6582C5.11832 5.6543 5.81168 7.83203 5.80191 10.6738C5.80191 11.1816 6.12418 11.5137 6.62222 11.5137C7.37418 11.4941 9.33707 11.0938 12.2179 11.0938C15.6261 11.0938 16.5148 11.5527 16.1925 12.7246Z" fill="var(--color-primary)"/>
  <path d="M12.2277 7.29492L15.9582 7.29492C16.2804 7.29492 16.505 7.06055 16.505 6.74805C16.505 6.43555 16.2804 6.21094 15.9582 6.21094L13.4484 6.21094L13.4484 6.19141L15.0109 4.52148C15.6066 3.89648 16.0851 3.32031 16.0851 2.49023C16.0851 1.37695 15.2062 0.634766 13.8195 0.634766C12.8234 0.634766 11.9152 1.24023 11.6613 2.05078C11.632 2.17773 11.6125 2.25586 11.6125 2.36328C11.6125 2.68555 11.8273 2.89062 12.1593 2.89062C12.4425 2.89062 12.5793 2.71484 12.7355 2.49023C12.9503 2.12891 13.2628 1.68945 13.8781 1.68945C14.4933 1.68945 14.9132 2.06055 14.9132 2.58789C14.9132 3.0957 14.4347 3.51562 14.0636 3.92578L11.8468 6.2793C11.7199 6.42578 11.6418 6.57227 11.6418 6.75781C11.6418 7.08008 11.8566 7.29492 12.2277 7.29492Z" fill="var(--color-primary)"/>
 </g>
</svg>
