<?xml version="1.0" encoding="UTF-8"?>
<!--Generator: Apple Native CoreSVG 326-->
<!DOCTYPE svg
PUBLIC "-//W3C//DTD SVG 1.1//EN"
       "http://www.w3.org/Graphics/SVG/1.1/DTD/svg11.dtd">
<svg version="1.1" xmlns="http://www.w3.org/2000/svg" xmlns:xlink="http://www.w3.org/1999/xlink" viewBox="0 0 17.8627 16.4355">
 <g>
  <rect height="16.4355" opacity="0" width="17.8627" x="0" y="0"/>
  <path d="M0.137389 13.0859C0.840514 15.6445 1.50458 16.4258 3.13544 16.4258L12.2565 16.4258C13.4284 16.4258 14.1901 15.8008 14.4831 14.6191L17.3737 2.92969C17.8718 0.908203 16.8757 0 15.7136 0C14.1804 0 12.4811 1.68945 13.4968 4.30664L13.7409 3.24219C11.3679 4.48242 10.3425 7.20703 10.7819 10.6348L11.0944 10.2148C9.53192 9.87305 7.44208 9.66797 5.45965 9.66797C1.21161 9.66797-0.526673 10.7129 0.137389 13.0859Z" fill="white" fill-opacity="0.85"/>
  <path d="M3.67255 7.10938C5.11786 7.10938 6.07489 6.36719 6.07489 5.24414C6.07489 4.44336 5.48895 3.81836 4.6784 3.7207L4.6784 3.71094C5.3327 3.61328 5.86005 2.99805 5.86005 2.28516C5.86005 1.32812 4.98114 0.625 3.7409 0.625C2.59833 0.625 1.75848 1.15234 1.54364 1.98242C1.52411 2.08984 1.51434 2.14844 1.51434 2.27539C1.51434 2.56836 1.73895 2.77344 2.05145 2.77344C2.32489 2.77344 2.4909 2.64648 2.59833 2.38281C2.75458 1.88477 3.16473 1.63086 3.72137 1.63086C4.32684 1.63086 4.7077 1.92383 4.7077 2.41211C4.7077 2.92969 4.26825 3.30078 3.67255 3.30078L3.28192 3.30078C3.00848 3.30078 2.8034 3.48633 2.8034 3.76953C2.8034 4.05273 3.00848 4.25781 3.28192 4.25781L3.72137 4.25781C4.43426 4.25781 4.92255 4.61914 4.92255 5.19531C4.92255 5.74219 4.4245 6.10352 3.69208 6.10352C3.07684 6.10352 2.66669 5.84961 2.47137 5.35156C2.36395 5.08789 2.19794 4.96094 1.93426 4.96094C1.62176 4.96094 1.39715 5.17578 1.39715 5.47852C1.39715 5.5957 1.40692 5.64453 1.42645 5.75195C1.62176 6.55273 2.52997 7.10938 3.67255 7.10938Z" fill="white" fill-opacity="0.85"/>
 </g>
</svg>
