<?xml version="1.0" encoding="UTF-8"?>
<!--Generator: Apple Native CoreSVG 326-->
<!DOCTYPE svg
PUBLIC "-//W3C//DTD SVG 1.1//EN"
       "http://www.w3.org/Graphics/SVG/1.1/DTD/svg11.dtd">
<svg version="1.1" xmlns="http://www.w3.org/2000/svg" xmlns:xlink="http://www.w3.org/1999/xlink" viewBox="0 0 18.0385 22.4707">
 <g>
  <rect height="22.4707" opacity="0" width="18.0385" x="0" y="0"/>
  <path d="M0.137389 13.1055C0.840514 15.6641 1.50458 16.4453 3.13544 16.4453L12.4421 16.4453C13.614 16.4453 14.3757 15.8203 14.6686 14.6289L17.5593 2.94922C17.9987 1.17188 17.1882 0 15.5573 0C13.614 0 12.0807 1.86523 12.8425 4.32617L13.0085 3.48633C11.2604 4.79492 10.3718 7.41211 10.5964 10.6445L11.0065 10.1367C9.32684 9.84375 7.37372 9.6875 5.45965 9.6875C1.21161 9.6875-0.526673 10.7324 0.137389 13.1055ZM1.48505 12.7246C1.16278 11.5625 2.05145 11.0938 5.45965 11.0938C8.34051 11.0938 10.3034 11.5039 11.0554 11.5137C11.5534 11.5234 11.8757 11.1914 11.8757 10.6836C11.8659 7.83203 12.5593 5.6543 13.7995 4.6582C14.1218 4.38477 14.1999 4.22852 14.1022 3.62305C13.8776 2.2168 14.6686 1.41602 15.5573 1.41602C16.114 1.41602 16.3776 1.875 16.2018 2.56836L13.3015 14.2969C13.1745 14.7754 12.9011 15.0391 12.4421 15.0391L3.13544 15.0391C2.33465 15.0391 2.06122 14.8047 1.48505 12.7246Z" fill="white" fill-opacity="0.85"/>
  <path d="M9.66864 21.8066C9.66864 22.2559 10.0202 22.4609 10.4206 22.207L13.1257 20.5566C13.5065 20.332 13.4968 19.8926 13.1257 19.6582L10.4206 17.998C10.0202 17.7539 9.66864 17.9688 9.66864 18.4082Z" fill="white" fill-opacity="0.85"/>
  <path d="M5.74286 21.8066L5.74286 18.4082C5.74286 17.9688 5.3913 17.7539 4.9909 17.998L2.28583 19.6582C1.91473 19.8926 1.90497 20.332 2.28583 20.5566L4.9909 22.207C5.3913 22.4609 5.74286 22.2559 5.74286 21.8066Z" fill="white" fill-opacity="0.85"/>
 </g>
</svg>
