<?xml version="1.0" encoding="UTF-8"?>
<!--Generator: Apple Native CoreSVG 326-->
<!DOCTYPE svg
PUBLIC "-//W3C//DTD SVG 1.1//EN"
       "http://www.w3.org/Graphics/SVG/1.1/DTD/svg11.dtd">
<svg version="1.1" xmlns="http://www.w3.org/2000/svg" xmlns:xlink="http://www.w3.org/1999/xlink" viewBox="0 0 18.5449 16.2402">
 <g>
  <rect height="16.2402" opacity="0" width="18.5449" x="0" y="0"/>
  <path d="M0 1.74805C0 2.09961 0.302734 2.40234 0.644531 2.40234L3.13477 2.40234L4.32617 10.6152C4.50195 11.7676 5.11719 12.5 6.29883 12.5L15.1465 12.5C15.4883 12.5 15.7812 12.2168 15.7812 11.8457C15.7812 11.4648 15.4883 11.1816 15.1465 11.1816L6.42578 11.1816C6.02539 11.1816 5.76172 10.8789 5.70312 10.4492L5.5957 9.76562L15.2148 9.76562C16.377 9.76562 16.9922 9.0332 17.168 7.88086L17.7637 3.89648C17.7832 3.79883 17.793 3.67188 17.793 3.60352C17.793 3.20312 17.4902 2.92969 17.0312 2.92969L4.60938 2.92969L4.49219 2.10938C4.39453 1.42578 4.16016 1.09375 3.27148 1.09375L0.644531 1.09375C0.302734 1.09375 0 1.38672 0 1.74805ZM5.50781 14.9707C5.50781 15.6836 6.07422 16.2402 6.77734 16.2402C7.49023 16.2402 8.04688 15.6836 8.04688 14.9707C8.04688 14.2676 7.49023 13.7012 6.77734 13.7012C6.07422 13.7012 5.50781 14.2676 5.50781 14.9707ZM12.7441 14.9707C12.7441 15.6836 13.3105 16.2402 14.0234 16.2402C14.7266 16.2402 15.293 15.6836 15.293 14.9707C15.293 14.2676 14.7266 13.7012 14.0234 13.7012C13.3105 13.7012 12.7441 14.2676 12.7441 14.9707Z" fill="white" fill-opacity="0.85"/>
 </g>
</svg>
