<?xml version="1.0" encoding="UTF-8"?>
<!--Generator: Apple Native CoreSVG 326-->
<!DOCTYPE svg
PUBLIC "-//W3C//DTD SVG 1.1//EN"
       "http://www.w3.org/Graphics/SVG/1.1/DTD/svg11.dtd">
<svg version="1.1" xmlns="http://www.w3.org/2000/svg" xmlns:xlink="http://www.w3.org/1999/xlink" viewBox="0 0 16.1328 15.7715">
 <g>
  <rect height="15.7715" opacity="0" width="16.1328" x="0" y="0"/>
  <path d="M15.7715 7.88086C15.7715 12.2266 12.2363 15.7617 7.88086 15.7617C3.53516 15.7617 0 12.2266 0 7.88086C0 3.53516 3.53516 0 7.88086 0C12.2363 0 15.7715 3.53516 15.7715 7.88086ZM7.55859 4.3457L7.55859 5.00977C6.11328 5.15625 5.25391 6.2793 5.25391 7.82227C5.25391 9.50195 6.19141 10.5078 7.55859 10.6445L7.55859 11.3086C7.55859 11.4746 7.69531 11.6113 7.86133 11.6113C8.02734 11.6113 8.1543 11.4746 8.1543 11.3086L8.1543 10.6445C8.76953 10.5957 9.35547 10.3516 9.73633 9.99023C10 9.7168 10.1953 9.36523 10.1953 9.07227C10.1953 8.79883 9.98047 8.63281 9.72656 8.63281C9.49219 8.63281 9.36523 8.78906 9.27734 8.94531C9.02344 9.44336 8.66211 9.7168 8.1543 9.78516L8.1543 5.86914C8.67188 5.9375 9.04297 6.21094 9.27734 6.71875C9.35547 6.9043 9.52148 7.03125 9.72656 7.03125C9.99023 7.03125 10.1855 6.85547 10.1855 6.57227C10.1855 6.26953 9.9707 5.92773 9.7168 5.67383C9.33594 5.30273 8.76953 5.06836 8.1543 5.00977L8.1543 4.3457C8.1543 4.18945 8.02734 4.05273 7.86133 4.05273C7.69531 4.05273 7.55859 4.18945 7.55859 4.3457ZM7.55859 9.77539C6.67969 9.61914 6.26953 8.83789 6.26953 7.82227C6.26953 6.80664 6.70898 6.03516 7.55859 5.87891Z" fill="white" fill-opacity="0.85"/>
 </g>
</svg>
