<svg version="1.1" xmlns="http://www.w3.org/2000/svg" xmlns:xlink="http://www.w3.org/1999/xlink" viewBox="0 0 18.9844 15.498">
 <g>
  <rect height="15.498" opacity="0" width="18.9844" x="0" y="0"/>
  <path d="M18.623 9.30664C18.623 7.03125 17.8125 4.94141 16.4453 3.31055C16.2891 3.125 16.0352 3.125 15.8594 3.30078L14.0332 5.13672C13.8867 5.2832 13.8867 5.48828 14.0137 5.6543C14.8047 6.66016 15.2734 7.92969 15.2734 9.30664C15.2734 10.6836 14.8047 11.9531 13.9551 13.0371C13.8574 13.1641 13.8672 13.3203 13.9746 13.4277L15.8594 15.3125C16.0352 15.4883 16.2891 15.4883 16.4453 15.3027C17.8125 13.6816 18.623 11.5918 18.623 9.30664Z" fill="var(--color-primary)"/>
  <path d="M9.31641 3.34961C10.7031 3.34961 11.9727 3.82812 12.9883 4.61914C13.1445 4.73633 13.3398 4.72656 13.4863 4.58008L15.3223 2.75391C15.498 2.57812 15.4883 2.32422 15.3027 2.16797C13.6816 0.810547 11.5918 0 9.31641 0C7.04102 0 4.94141 0.810547 3.33008 2.16797C3.14453 2.32422 3.13477 2.57812 3.31055 2.75391L5.13672 4.58008C5.2832 4.72656 5.48828 4.73633 5.6543 4.60938C6.66992 3.82812 7.93945 3.34961 9.31641 3.34961Z" fill="var(--color-primary)"/>
  <path d="M0 9.30664C0 11.5918 0.820312 13.6816 2.17773 15.3027C2.33398 15.4883 2.58789 15.4883 2.76367 15.3125L4.64844 13.4277C4.76562 13.3203 4.77539 13.1641 4.66797 13.0371C3.82812 11.9531 3.35938 10.6836 3.35938 9.30664C3.35938 7.92969 3.82812 6.66016 4.61914 5.6543C4.74609 5.48828 4.74609 5.2832 4.59961 5.13672L2.76367 3.30078C2.58789 3.125 2.33398 3.125 2.17773 3.31055C0.820312 4.94141 0 7.03125 0 9.30664Z" fill="var(--color-primary)"/>
  <path d="M9.30664 12.0801C9.98047 12.0801 10.6641 11.8359 11.084 11.4258C11.3379 11.1816 11.5137 10.8398 11.5137 10.5566C11.5137 10.293 11.3184 10.127 11.0742 10.127C10.8496 10.127 10.7324 10.2832 10.6445 10.4395C10.3418 10.9863 9.94141 11.2598 9.31641 11.2598C8.24219 11.2598 7.74414 10.4395 7.74414 9.35547C7.74414 8.25195 8.27148 7.45117 9.30664 7.45117C9.93164 7.45117 10.3809 7.71484 10.6348 8.28125C10.7227 8.4668 10.8789 8.58398 11.0742 8.58398C11.3281 8.58398 11.5039 8.41797 11.5039 8.14453C11.5039 7.85156 11.2988 7.51953 11.0645 7.28516C10.6445 6.86523 9.99023 6.63086 9.29688 6.63086C7.71484 6.63086 6.76758 7.75391 6.76758 9.35547C6.76758 11.1035 7.82227 12.0801 9.30664 12.0801ZM9.27734 12.998C9.43359 12.998 9.56055 12.8711 9.56055 12.7051L9.56055 6.00586C9.56055 5.83984 9.43359 5.71289 9.27734 5.71289C9.11133 5.71289 8.99414 5.83984 8.99414 6.00586L8.99414 12.7051C8.99414 12.8711 9.11133 12.998 9.27734 12.998Z" fill="var(--color-primary)"/>
 </g>
</svg>
