<?xml version="1.0" encoding="UTF-8"?>
<!--Generator: Apple Native CoreSVG 326-->
<!DOCTYPE svg
PUBLIC "-//W3C//DTD SVG 1.1//EN"
       "http://www.w3.org/Graphics/SVG/1.1/DTD/svg11.dtd">
<svg version="1.1" xmlns="http://www.w3.org/2000/svg" xmlns:xlink="http://www.w3.org/1999/xlink" viewBox="0 0 19.8145 14.4629">
 <g>
  <rect height="14.4629" opacity="0" width="19.8145" x="0" y="0"/>
  <path d="M15.5176 14.3457L17.7832 14.3457C18.8867 14.3457 19.4531 13.8086 19.4531 12.7734L19.4531 1.5625C19.4531 0.527344 18.8867 0 17.7832 0L15.5176 0C14.4238 0 13.8574 0.527344 13.8574 1.5625L13.8574 12.7734C13.8574 13.8086 14.4238 14.3457 15.5176 14.3457Z" fill="white" fill-opacity="0.85"/>
  <path d="M8.59375 14.3457L10.8594 14.3457C11.9629 14.3457 12.5293 13.8086 12.5293 12.7734L12.5293 3.80859C12.5293 2.77344 11.9629 2.24609 10.8594 2.24609L8.59375 2.24609C7.5 2.24609 6.92383 2.77344 6.92383 3.80859L6.92383 12.7734C6.92383 13.8086 7.5 14.3457 8.59375 14.3457Z" fill="white" fill-opacity="0.85"/>
  <path d="M1.66016 14.3457L3.92578 14.3457C5.0293 14.3457 5.5957 13.8086 5.5957 12.7734L5.5957 6.04492C5.5957 5.00977 5.0293 4.48242 3.92578 4.48242L1.66016 4.48242C0.566406 4.48242 0 5.00977 0 6.04492L0 12.7734C0 13.8086 0.566406 14.3457 1.66016 14.3457Z" fill="white" fill-opacity="0.85"/>
 </g>
</svg>
