<?xml version="1.0" encoding="UTF-8"?>
<!--Generator: Apple Native CoreSVG 326-->
<!DOCTYPE svg
PUBLIC "-//W3C//DTD SVG 1.1//EN"
       "http://www.w3.org/Graphics/SVG/1.1/DTD/svg11.dtd">
<svg version="1.1" xmlns="http://www.w3.org/2000/svg" xmlns:xlink="http://www.w3.org/1999/xlink" viewBox="0 0 16.8848 14.2676">
 <g>
  <rect height="14.2676" opacity="0" width="16.8848" x="0" y="0"/>
  <path d="M16.0449 2.25586L14.8438 6.80664C14.7266 7.24609 14.3262 7.44141 14.0137 7.12891L12.8223 5.9375L9.85352 8.91602C9.49219 9.27734 9.15039 9.45312 8.75977 9.45312C8.37891 9.45312 8.01758 9.27734 7.66602 8.91602L4.95117 6.09375C4.90234 6.04492 4.85352 6.02539 4.80469 6.02539C4.75586 6.02539 4.70703 6.04492 4.6582 6.09375L1.40625 9.44051L1.40625 7.2785L3.71094 4.92188C4.08203 4.55078 4.42383 4.38477 4.80469 4.38477C5.18555 4.38477 5.54688 4.56055 5.89844 4.92188L8.61328 7.74414C8.66211 7.79297 8.7207 7.8125 8.75977 7.8125C8.80859 7.8125 8.86719 7.79297 8.90625 7.74414L11.7578 4.86328L10.5566 3.66211C10.2441 3.34961 10.4395 2.95898 10.8789 2.83203L15.4102 1.64062C15.8008 1.5332 16.1523 1.86523 16.0449 2.25586Z" fill="white" fill-opacity="0.85"/>
  <path d="M0 13.6035C0 14.0039 0.263672 14.2676 0.664062 14.2676L15.8203 14.2676C16.2109 14.2676 16.5234 13.9551 16.5234 13.5645C16.5234 13.1836 16.2109 12.8613 15.8203 12.8613L1.65039 12.8613C1.46484 12.8613 1.40625 12.8125 1.40625 12.627L1.40625 0.810547C1.40625 0.429688 1.09375 0.107422 0.703125 0.107422C0.322266 0.107422 0 0.429688 0 0.810547Z" fill="white" fill-opacity="0.85"/>
 </g>
</svg>
