<?xml version="1.0" encoding="UTF-8"?>
<!--Generator: Apple Native CoreSVG 326-->
<!DOCTYPE svg
PUBLIC "-//W3C//DTD SVG 1.1//EN"
       "http://www.w3.org/Graphics/SVG/1.1/DTD/svg11.dtd">
<svg version="1.1" xmlns="http://www.w3.org/2000/svg" xmlns:xlink="http://www.w3.org/1999/xlink" viewBox="0 0 28.75 10.752">
 <g>
  <rect height="10.752" opacity="0" width="28.75" x="0" y="0"/>
  <path d="M24.1016 10.6836C25.9766 10.6836 27.4316 9.88281 28.1641 8.48633C28.291 8.22266 28.3691 7.97852 28.3691 7.74414C28.3691 7.33398 28.0762 7.06055 27.666 7.06055C27.3438 7.06055 27.1582 7.1875 26.9531 7.59766C26.416 8.75 25.4785 9.28711 24.1016 9.28711C22.1094 9.28711 20.8496 7.7832 20.8496 5.32227C20.8496 2.90039 22.1289 1.38672 24.1016 1.38672C25.3809 1.38672 26.4062 2.08984 26.9336 3.23242C27.1191 3.64258 27.3535 3.80859 27.7051 3.80859C28.1152 3.80859 28.3887 3.54492 28.3887 3.13477C28.3887 2.93945 28.3496 2.72461 28.2715 2.49023C27.666 0.917969 26.0059 0 24.1016 0C21.1426 0 19.2578 2.05078 19.2578 5.33203C19.2578 8.64258 21.123 10.6836 24.1016 10.6836Z" fill="white" fill-opacity="0.85"/>
  <path d="M10.8887 10.498L14.4434 10.498C16.7285 10.498 18.125 9.36523 18.125 7.64648C18.125 6.2207 17.1191 5.20508 15.6445 5.04883L15.6445 4.99023C16.7383 4.81445 17.5879 3.80859 17.5879 2.66602C17.5879 1.2207 16.3184 0.185547 14.4141 0.185547L10.8887 0.185547C10.4297 0.185547 10.1172 0.488281 10.1172 0.957031L10.1172 9.7168C10.1172 10.1953 10.4297 10.498 10.8887 10.498ZM11.6992 4.57031L11.6992 1.51367L14.0332 1.51367C15.293 1.51367 16.0156 2.08008 16.0156 2.90039C16.0156 3.96484 15.1758 4.57031 13.6914 4.57031ZM11.6992 9.18945L11.6992 5.80078L14.0137 5.80078C15.6445 5.80078 16.5039 6.39648 16.5039 7.54883C16.5039 8.56445 15.6738 9.18945 14.1309 9.18945Z" fill="white" fill-opacity="0.85"/>
  <path d="M0.693359 10.7422C1.13281 10.7422 1.34766 10.5469 1.51367 10.0879L2.34375 7.74414L6.46484 7.74414L7.30469 10.0879C7.46094 10.5469 7.67578 10.7422 8.10547 10.7422C8.54492 10.7422 8.82812 10.4492 8.82812 10.0293C8.82812 9.88281 8.80859 9.75586 8.75 9.58984L5.46875 0.810547C5.27344 0.292969 4.93164 0 4.4043 0C3.87695 0 3.53516 0.292969 3.34961 0.800781L0.0878906 9.59961C0.0195312 9.76562 0 9.89258 0 10.0391C0 10.4492 0.263672 10.7422 0.693359 10.7422ZM2.74414 6.49414L4.375 1.875L4.42383 1.875L6.05469 6.49414Z" fill="white" fill-opacity="0.85"/>
 </g>
</svg>
