<?xml version="1.0" encoding="UTF-8"?>
<!--Generator: Apple Native CoreSVG 326-->
<!DOCTYPE svg
PUBLIC "-//W3C//DTD SVG 1.1//EN"
       "http://www.w3.org/Graphics/SVG/1.1/DTD/svg11.dtd">
<svg version="1.1" xmlns="http://www.w3.org/2000/svg" xmlns:xlink="http://www.w3.org/1999/xlink" viewBox="0 0 16.1328 15.7715">
 <g>
  <rect height="15.7715" opacity="0" width="16.1328" x="0" y="0"/>
  <path d="M7.87109 8.10547C10.0879 8.10547 11.9434 6.26953 11.9434 4.0625C11.9434 1.8457 10.0879 0.00976562 7.87109 0.00976562C5.6543 0.00976562 3.81836 1.8457 3.81836 4.0625C3.81836 6.26953 5.67383 8.10547 7.87109 8.10547ZM7.87109 6.62109C6.42578 6.62109 5.30273 5.49805 5.30273 4.0625C5.30273 2.61719 6.42578 1.48438 7.87109 1.48438C9.32617 1.48438 10.459 2.61719 10.459 4.0625C10.459 5.49805 9.32617 6.62109 7.87109 6.62109ZM7.88086 15.7617C12.2363 15.7617 15.7715 12.2363 15.7715 7.88086C15.7715 3.52539 12.2363 0 7.88086 0C3.53516 0 0 3.52539 0 7.88086C0 12.2363 3.53516 15.7617 7.88086 15.7617ZM7.88086 14.2773C4.3457 14.2773 1.49414 11.416 1.49414 7.88086C1.49414 4.3457 4.3457 1.48438 7.88086 1.48438C11.416 1.48438 14.2773 4.3457 14.2773 7.88086C14.2773 11.416 11.416 14.2773 7.88086 14.2773Z" fill="white" fill-opacity="0.85"/>
 </g>
</svg>
