<?xml version="1.0" encoding="UTF-8"?>
<!--Generator: Apple Native CoreSVG 326-->
<!DOCTYPE svg
PUBLIC "-//W3C//DTD SVG 1.1//EN"
       "http://www.w3.org/Graphics/SVG/1.1/DTD/svg11.dtd">
<svg version="1.1" xmlns="http://www.w3.org/2000/svg" xmlns:xlink="http://www.w3.org/1999/xlink" viewBox="0 0 18.4766 14.248">
 <g>
  <rect height="14.248" opacity="0" width="18.4766" x="0" y="0"/>
  <path d="M18.1152 2.4707L18.1152 11.7871C18.1152 13.4277 17.2949 14.248 15.625 14.248L2.49023 14.248C0.830078 14.248 0 13.4277 0 11.7871L0 2.4707C0 0.830078 0.830078 0.00976562 2.49023 0.00976562L15.625 0.00976562C17.2949 0.00976562 18.1152 0.830078 18.1152 2.4707ZM11.2695 4.11133L8.1543 9.15039L6.74805 7.27539C6.5332 6.98242 6.33789 6.9043 6.09375 6.9043C5.69336 6.9043 5.39062 7.22656 5.39062 7.62695C5.39062 7.82227 5.46875 8.01758 5.5957 8.18359L7.41211 10.459C7.64648 10.7715 7.89062 10.8887 8.19336 10.8887C8.49609 10.8887 8.75 10.752 8.92578 10.459L12.4121 4.95117C12.5195 4.77539 12.6367 4.57031 12.6367 4.375C12.6367 3.95508 12.2754 3.70117 11.8945 3.70117C11.6602 3.70117 11.4355 3.83789 11.2695 4.11133Z" fill="white" fill-opacity="0.85"/>
 </g>
</svg>
