<?xml version="1.0" encoding="UTF-8"?>
<!--Generator: Apple Native CoreSVG 326-->
<!DOCTYPE svg
PUBLIC "-//W3C//DTD SVG 1.1//EN"
       "http://www.w3.org/Graphics/SVG/1.1/DTD/svg11.dtd">
<svg version="1.1" xmlns="http://www.w3.org/2000/svg" xmlns:xlink="http://www.w3.org/1999/xlink" viewBox="0 0 15.3418 14.9902">
 <g>
  <rect height="14.9902" opacity="0" width="15.3418" x="0" y="0"/>
  <path d="M5.6543 13.3594C5.17578 13.3594 4.84375 13.7305 4.84375 14.1699C4.84375 14.6484 5.17578 14.9805 5.6543 14.9805L14.1602 14.9805C14.6191 14.9805 14.9805 14.6289 14.9805 14.1602L14.9805 5.6543C14.9805 5.17578 14.6094 4.84375 14.1699 4.84375C13.6914 4.84375 13.3594 5.17578 13.3594 5.6543L13.3594 14.0723L14.0723 13.3594Z" fill="white" fill-opacity="0.85"/>
  <path d="M0.810547 8.50586C0.341797 8.50586 0 8.88672 0 9.32617C0 9.80469 0.341797 10.1367 0.810547 10.1367L9.31641 10.1367C9.78516 10.1367 10.1367 9.78516 10.1367 9.31641L10.1367 0.810547C10.1367 0.332031 9.77539 0 9.33594 0C8.85742 0 8.51562 0.332031 8.51562 0.810547L8.51562 9.22852L9.23828 8.50586Z" fill="white" fill-opacity="0.85"/>
 </g>
</svg>
