<?xml version="1.0" encoding="UTF-8"?>
<!--Generator: Apple Native CoreSVG 326-->
<!DOCTYPE svg
PUBLIC "-//W3C//DTD SVG 1.1//EN"
       "http://www.w3.org/Graphics/SVG/1.1/DTD/svg11.dtd">
<svg version="1.1" xmlns="http://www.w3.org/2000/svg" xmlns:xlink="http://www.w3.org/1999/xlink" viewBox="0 0 13.4277 14.1309">
 <g>
  <rect height="14.1309" opacity="0" width="13.4277" x="0" y="0"/>
  <path d="M11.5332 13.3594C11.5332 13.7891 11.875 14.1309 12.2949 14.1309C12.7246 14.1309 13.0664 13.7891 13.0664 13.3594C13.0664 12.9297 12.7246 12.5879 12.2949 12.5879C11.875 12.5879 11.5332 12.9297 11.5332 13.3594ZM10.0879 11.9336C10.0879 12.3535 10.4297 12.6953 10.8594 12.6953C11.2891 12.6953 11.6309 12.3535 11.6309 11.9336C11.6309 11.5039 11.2891 11.1621 10.8594 11.1621C10.4297 11.1621 10.0879 11.5039 10.0879 11.9336ZM8.64258 10.498C8.64258 10.9277 8.99414 11.2695 9.41406 11.2695C9.84375 11.2695 10.1855 10.9277 10.1855 10.498C10.1855 10.0684 9.84375 9.72656 9.41406 9.72656C8.99414 9.72656 8.64258 10.0684 8.64258 10.498ZM7.20703 9.0625C7.20703 9.49219 7.54883 9.83398 7.97852 9.83398C8.4082 9.83398 8.75 9.49219 8.75 9.0625C8.75 8.64258 8.4082 8.30078 7.97852 8.30078C7.54883 8.30078 7.20703 8.64258 7.20703 9.0625ZM5.76172 7.63672C5.76172 8.06641 6.10352 8.4082 6.5332 8.4082C6.96289 8.4082 7.30469 8.06641 7.30469 7.63672C7.30469 7.20703 6.96289 6.86523 6.5332 6.86523C6.10352 6.86523 5.76172 7.20703 5.76172 7.63672ZM4.32617 9.0625C4.32617 9.49219 4.66797 9.83398 5.09766 9.83398C5.51758 9.83398 5.85938 9.49219 5.85938 9.0625C5.85938 8.64258 5.51758 8.30078 5.09766 8.30078C4.66797 8.30078 4.32617 8.64258 4.32617 9.0625ZM2.88086 10.498C2.88086 10.9277 3.22266 11.2695 3.65234 11.2695C4.08203 11.2695 4.42383 10.9277 4.42383 10.498C4.42383 10.0684 4.08203 9.72656 3.65234 9.72656C3.22266 9.72656 2.88086 10.0684 2.88086 10.498ZM1.44531 11.9336C1.44531 12.3535 1.78711 12.6953 2.20703 12.6953C2.63672 12.6953 2.97852 12.3535 2.97852 11.9336C2.97852 11.5039 2.63672 11.1621 2.20703 11.1621C1.78711 11.1621 1.44531 11.5039 1.44531 11.9336ZM0 13.3594C0 13.7891 0.341797 14.1309 0.771484 14.1309C1.20117 14.1309 1.54297 13.7891 1.54297 13.3594C1.54297 12.9297 1.20117 12.5879 0.771484 12.5879C0.341797 12.5879 0 12.9297 0 13.3594Z" fill="white" fill-opacity="0.85"/>
  <path d="M11.5332 6.52344C11.5332 6.95312 11.875 7.29492 12.2949 7.29492C12.7246 7.29492 13.0664 6.95312 13.0664 6.52344C13.0664 6.09375 12.7246 5.75195 12.2949 5.75195C11.875 5.75195 11.5332 6.09375 11.5332 6.52344ZM10.0879 5.09766C10.0879 5.51758 10.4297 5.85938 10.8594 5.85938C11.2891 5.85938 11.6309 5.51758 11.6309 5.09766C11.6309 4.66797 11.2891 4.32617 10.8594 4.32617C10.4297 4.32617 10.0879 4.66797 10.0879 5.09766ZM8.64258 3.66211C8.64258 4.0918 8.99414 4.43359 9.41406 4.43359C9.84375 4.43359 10.1855 4.0918 10.1855 3.66211C10.1855 3.23242 9.84375 2.89062 9.41406 2.89062C8.99414 2.89062 8.64258 3.23242 8.64258 3.66211ZM7.20703 2.22656C7.20703 2.65625 7.54883 2.99805 7.97852 2.99805C8.4082 2.99805 8.75 2.65625 8.75 2.22656C8.75 1.80664 8.4082 1.46484 7.97852 1.46484C7.54883 1.46484 7.20703 1.80664 7.20703 2.22656ZM5.76172 0.800781C5.76172 1.23047 6.10352 1.57227 6.5332 1.57227C6.96289 1.57227 7.30469 1.23047 7.30469 0.800781C7.30469 0.371094 6.96289 0.0292969 6.5332 0.0292969C6.10352 0.0292969 5.76172 0.371094 5.76172 0.800781ZM4.32617 2.22656C4.32617 2.65625 4.66797 2.99805 5.09766 2.99805C5.51758 2.99805 5.85938 2.65625 5.85938 2.22656C5.85938 1.80664 5.51758 1.46484 5.09766 1.46484C4.66797 1.46484 4.32617 1.80664 4.32617 2.22656ZM2.88086 3.66211C2.88086 4.0918 3.22266 4.43359 3.65234 4.43359C4.08203 4.43359 4.42383 4.0918 4.42383 3.66211C4.42383 3.23242 4.08203 2.89062 3.65234 2.89062C3.22266 2.89062 2.88086 3.23242 2.88086 3.66211ZM1.44531 5.09766C1.44531 5.51758 1.78711 5.85938 2.20703 5.85938C2.63672 5.85938 2.97852 5.51758 2.97852 5.09766C2.97852 4.66797 2.63672 4.32617 2.20703 4.32617C1.78711 4.32617 1.44531 4.66797 1.44531 5.09766ZM0 6.52344C0 6.95312 0.341797 7.29492 0.771484 7.29492C1.20117 7.29492 1.54297 6.95312 1.54297 6.52344C1.54297 6.09375 1.20117 5.75195 0.771484 5.75195C0.341797 5.75195 0 6.09375 0 6.52344Z" fill="white" fill-opacity="0.85"/>
 </g>
</svg>
