<svg version="1.1" xmlns="http://www.w3.org/2000/svg" xmlns:xlink="http://www.w3.org/1999/xlink" width="16.1328" height="15.7715" viewBox="0 0 16.1328 15.7715">
 <g>
  <rect height="15.7715" opacity="0" width="16.1328" x="0" y="0"/>
  <path d="M7.88086 15.7617C12.1875 15.7617 15.7715 12.1875 15.7715 7.88086C15.7715 3.57422 12.1777 0 7.87109 0C3.57422 0 0 3.57422 0 7.88086C0 12.1875 3.58398 15.7617 7.88086 15.7617Z" fill="var(--color-tertiary)"/>
  <path d="M9.43359 11.6797C9.20898 11.9043 8.75 11.8848 8.51562 11.6602L5.40039 8.75C4.91211 8.30078 4.91211 7.49023 5.40039 7.03125L8.51562 4.13086C8.7793 3.88672 9.17969 3.86719 9.42383 4.10156C9.69727 4.35547 9.70703 4.78516 9.44336 5.03906L6.37695 7.89062L9.44336 10.752C9.69727 10.9961 9.70703 11.416 9.43359 11.6797Z" fill="var(--color-primary)"/>
 </g>
</svg>
