<?xml version="1.0" encoding="UTF-8"?>
<!--Generator: Apple Native CoreSVG 326-->
<!DOCTYPE svg
PUBLIC "-//W3C//DTD SVG 1.1//EN"
       "http://www.w3.org/Graphics/SVG/1.1/DTD/svg11.dtd">
<svg version="1.1" xmlns="http://www.w3.org/2000/svg" xmlns:xlink="http://www.w3.org/1999/xlink" viewBox="0 0 13.4277 14.1309">
 <g>
  <rect height="14.1309" opacity="0" width="13.4277" x="0" y="0"/>
  <path d="M11.5332 7.63672C11.5332 8.06641 11.875 8.4082 12.2949 8.4082C12.7246 8.4082 13.0664 8.06641 13.0664 7.63672C13.0664 7.20703 12.7246 6.86523 12.2949 6.86523C11.875 6.86523 11.5332 7.20703 11.5332 7.63672ZM10.0879 9.0625C10.0879 9.49219 10.4297 9.83398 10.8594 9.83398C11.2891 9.83398 11.6309 9.49219 11.6309 9.0625C11.6309 8.64258 11.2891 8.30078 10.8594 8.30078C10.4297 8.30078 10.0879 8.64258 10.0879 9.0625ZM8.64258 10.498C8.64258 10.9277 8.99414 11.2695 9.41406 11.2695C9.84375 11.2695 10.1855 10.9277 10.1855 10.498C10.1855 10.0684 9.84375 9.72656 9.41406 9.72656C8.99414 9.72656 8.64258 10.0684 8.64258 10.498ZM7.20703 11.9336C7.20703 12.3535 7.54883 12.6953 7.97852 12.6953C8.4082 12.6953 8.75 12.3535 8.75 11.9336C8.75 11.5039 8.4082 11.1621 7.97852 11.1621C7.54883 11.1621 7.20703 11.5039 7.20703 11.9336ZM5.76172 13.3594C5.76172 13.7891 6.10352 14.1309 6.5332 14.1309C6.96289 14.1309 7.30469 13.7891 7.30469 13.3594C7.30469 12.9297 6.96289 12.5879 6.5332 12.5879C6.10352 12.5879 5.76172 12.9297 5.76172 13.3594ZM4.32617 11.9336C4.32617 12.3535 4.66797 12.6953 5.09766 12.6953C5.51758 12.6953 5.85938 12.3535 5.85938 11.9336C5.85938 11.5039 5.51758 11.1621 5.09766 11.1621C4.66797 11.1621 4.32617 11.5039 4.32617 11.9336ZM2.88086 10.498C2.88086 10.9277 3.22266 11.2695 3.65234 11.2695C4.08203 11.2695 4.42383 10.9277 4.42383 10.498C4.42383 10.0684 4.08203 9.72656 3.65234 9.72656C3.22266 9.72656 2.88086 10.0684 2.88086 10.498ZM1.44531 9.0625C1.44531 9.49219 1.78711 9.83398 2.20703 9.83398C2.63672 9.83398 2.97852 9.49219 2.97852 9.0625C2.97852 8.64258 2.63672 8.30078 2.20703 8.30078C1.78711 8.30078 1.44531 8.64258 1.44531 9.0625ZM0 7.63672C0 8.06641 0.341797 8.4082 0.771484 8.4082C1.20117 8.4082 1.54297 8.06641 1.54297 7.63672C1.54297 7.20703 1.20117 6.86523 0.771484 6.86523C0.341797 6.86523 0 7.20703 0 7.63672Z" fill="white" fill-opacity="0.85"/>
  <path d="M11.5332 0.800781C11.5332 1.23047 11.875 1.57227 12.2949 1.57227C12.7246 1.57227 13.0664 1.23047 13.0664 0.800781C13.0664 0.371094 12.7246 0.0292969 12.2949 0.0292969C11.875 0.0292969 11.5332 0.371094 11.5332 0.800781ZM10.0879 2.22656C10.0879 2.65625 10.4297 2.99805 10.8594 2.99805C11.2891 2.99805 11.6309 2.65625 11.6309 2.22656C11.6309 1.80664 11.2891 1.46484 10.8594 1.46484C10.4297 1.46484 10.0879 1.80664 10.0879 2.22656ZM8.64258 3.66211C8.64258 4.0918 8.99414 4.43359 9.41406 4.43359C9.84375 4.43359 10.1855 4.0918 10.1855 3.66211C10.1855 3.23242 9.84375 2.89062 9.41406 2.89062C8.99414 2.89062 8.64258 3.23242 8.64258 3.66211ZM7.20703 5.09766C7.20703 5.51758 7.54883 5.85938 7.97852 5.85938C8.4082 5.85938 8.75 5.51758 8.75 5.09766C8.75 4.66797 8.4082 4.32617 7.97852 4.32617C7.54883 4.32617 7.20703 4.66797 7.20703 5.09766ZM5.76172 6.52344C5.76172 6.95312 6.10352 7.29492 6.5332 7.29492C6.96289 7.29492 7.30469 6.95312 7.30469 6.52344C7.30469 6.09375 6.96289 5.75195 6.5332 5.75195C6.10352 5.75195 5.76172 6.09375 5.76172 6.52344ZM4.32617 5.09766C4.32617 5.51758 4.66797 5.85938 5.09766 5.85938C5.51758 5.85938 5.85938 5.51758 5.85938 5.09766C5.85938 4.66797 5.51758 4.32617 5.09766 4.32617C4.66797 4.32617 4.32617 4.66797 4.32617 5.09766ZM2.88086 3.66211C2.88086 4.0918 3.22266 4.43359 3.65234 4.43359C4.08203 4.43359 4.42383 4.0918 4.42383 3.66211C4.42383 3.23242 4.08203 2.89062 3.65234 2.89062C3.22266 2.89062 2.88086 3.23242 2.88086 3.66211ZM1.44531 2.22656C1.44531 2.65625 1.78711 2.99805 2.20703 2.99805C2.63672 2.99805 2.97852 2.65625 2.97852 2.22656C2.97852 1.80664 2.63672 1.46484 2.20703 1.46484C1.78711 1.46484 1.44531 1.80664 1.44531 2.22656ZM0 0.800781C0 1.23047 0.341797 1.57227 0.771484 1.57227C1.20117 1.57227 1.54297 1.23047 1.54297 0.800781C1.54297 0.371094 1.20117 0.0292969 0.771484 0.0292969C0.341797 0.0292969 0 0.371094 0 0.800781Z" fill="white" fill-opacity="0.85"/>
 </g>
</svg>
