<?xml version="1.0" encoding="UTF-8"?>
<!--Generator: Apple Native CoreSVG 326-->
<!DOCTYPE svg
PUBLIC "-//W3C//DTD SVG 1.1//EN"
       "http://www.w3.org/Graphics/SVG/1.1/DTD/svg11.dtd">
<svg version="1.1" xmlns="http://www.w3.org/2000/svg" xmlns:xlink="http://www.w3.org/1999/xlink" viewBox="0 0 16.0742 15.0098">
 <g>
  <rect height="15.0098" opacity="0" width="16.0742" x="0" y="0"/>
  <path d="M13.4766 15.0098C14.707 15.0098 15.7031 14.0137 15.7031 12.7832C15.7031 11.5527 14.707 10.5566 13.4766 10.5566C12.2461 10.5566 11.25 11.5527 11.25 12.7832C11.25 14.0137 12.2461 15.0098 13.4766 15.0098ZM13.4766 13.75C12.9492 13.75 12.5098 13.3203 12.5098 12.7832C12.5098 12.2461 12.9492 11.8164 13.4766 11.8164C14.0137 11.8164 14.4434 12.2461 14.4434 12.7832C14.4434 13.3203 14.0137 13.75 13.4766 13.75Z" fill="white" fill-opacity="0.85"/>
  <path d="M7.85156 15.0098C9.08203 15.0098 10.0781 14.0137 10.0781 12.7832C10.0781 11.5527 9.08203 10.5566 7.85156 10.5566C6.62109 10.5566 5.625 11.5527 5.625 12.7832C5.625 14.0137 6.62109 15.0098 7.85156 15.0098ZM7.85156 13.75C7.31445 13.75 6.88477 13.3203 6.88477 12.7832C6.88477 12.2461 7.31445 11.8164 7.85156 11.8164C8.38867 11.8164 8.81836 12.2461 8.81836 12.7832C8.81836 13.3203 8.38867 13.75 7.85156 13.75Z" fill="white" fill-opacity="0.85"/>
  <path d="M2.22656 15.0098C3.45703 15.0098 4.45312 14.0137 4.45312 12.7832C4.45312 11.5527 3.45703 10.5566 2.22656 10.5566C0.996094 10.5566 0 11.5527 0 12.7832C0 14.0137 0.996094 15.0098 2.22656 15.0098ZM2.22656 13.75C1.68945 13.75 1.25977 13.3203 1.25977 12.7832C1.25977 12.2461 1.68945 11.8164 2.22656 11.8164C2.76367 11.8164 3.19336 12.2461 3.19336 12.7832C3.19336 13.3203 2.76367 13.75 2.22656 13.75Z" fill="white" fill-opacity="0.85"/>
  <path d="M13.4766 9.73633C14.707 9.73633 15.7031 8.74023 15.7031 7.50977C15.7031 6.2793 14.707 5.2832 13.4766 5.2832C12.2461 5.2832 11.25 6.2793 11.25 7.50977C11.25 8.74023 12.2461 9.73633 13.4766 9.73633ZM13.4766 8.47656C12.9492 8.47656 12.5098 8.04688 12.5098 7.50977C12.5098 6.97266 12.9492 6.54297 13.4766 6.54297C14.0137 6.54297 14.4434 6.97266 14.4434 7.50977C14.4434 8.04688 14.0137 8.47656 13.4766 8.47656Z" fill="white" fill-opacity="0.85"/>
  <path d="M7.85156 9.73633C9.08203 9.73633 10.0781 8.74023 10.0781 7.50977C10.0781 6.2793 9.08203 5.2832 7.85156 5.2832C6.62109 5.2832 5.625 6.2793 5.625 7.50977C5.625 8.74023 6.62109 9.73633 7.85156 9.73633ZM7.85156 8.47656C7.31445 8.47656 6.88477 8.04688 6.88477 7.50977C6.88477 6.97266 7.31445 6.54297 7.85156 6.54297C8.38867 6.54297 8.81836 6.97266 8.81836 7.50977C8.81836 8.04688 8.38867 8.47656 7.85156 8.47656Z" fill="white" fill-opacity="0.85"/>
  <path d="M2.22656 9.73633C3.45703 9.73633 4.45312 8.74023 4.45312 7.50977C4.45312 6.2793 3.45703 5.2832 2.22656 5.2832C0.996094 5.2832 0 6.2793 0 7.50977C0 8.74023 0.996094 9.73633 2.22656 9.73633ZM2.22656 8.47656C1.68945 8.47656 1.25977 8.04688 1.25977 7.50977C1.25977 6.97266 1.68945 6.54297 2.22656 6.54297C2.76367 6.54297 3.19336 6.97266 3.19336 7.50977C3.19336 8.04688 2.76367 8.47656 2.22656 8.47656Z" fill="white" fill-opacity="0.85"/>
  <path d="M13.4863 4.46289C14.7168 4.46289 15.7129 3.4668 15.7129 2.23633C15.7129 1.00586 14.7168 0.00976562 13.4863 0.00976562C12.2559 0.00976562 11.2598 1.00586 11.2598 2.23633C11.2598 3.4668 12.2559 4.46289 13.4863 4.46289ZM13.4863 3.20312C12.959 3.20312 12.5195 2.77344 12.5195 2.23633C12.5195 1.69922 12.959 1.26953 13.4863 1.26953C14.0234 1.26953 14.4531 1.69922 14.4531 2.23633C14.4531 2.77344 14.0234 3.20312 13.4863 3.20312Z" fill="white" fill-opacity="0.85"/>
  <path d="M7.86133 4.46289C9.0918 4.46289 10.0879 3.4668 10.0879 2.23633C10.0879 1.00586 9.0918 0.00976562 7.86133 0.00976562C6.63086 0.00976562 5.63477 1.00586 5.63477 2.23633C5.63477 3.4668 6.63086 4.46289 7.86133 4.46289ZM7.86133 3.20312C7.32422 3.20312 6.89453 2.77344 6.89453 2.23633C6.89453 1.69922 7.32422 1.26953 7.86133 1.26953C8.39844 1.26953 8.82812 1.69922 8.82812 2.23633C8.82812 2.77344 8.39844 3.20312 7.86133 3.20312Z" fill="white" fill-opacity="0.85"/>
  <path d="M2.23633 4.46289C3.4668 4.46289 4.46289 3.4668 4.46289 2.23633C4.46289 1.00586 3.4668 0.00976562 2.23633 0.00976562C1.00586 0.00976562 0.00976562 1.00586 0.00976562 2.23633C0.00976562 3.4668 1.00586 4.46289 2.23633 4.46289ZM2.23633 3.20312C1.69922 3.20312 1.26953 2.77344 1.26953 2.23633C1.26953 1.69922 1.69922 1.26953 2.23633 1.26953C2.77344 1.26953 3.20312 1.69922 3.20312 2.23633C3.20312 2.77344 2.77344 3.20312 2.23633 3.20312Z" fill="white" fill-opacity="0.85"/>
 </g>
</svg>
