<?xml version="1.0" encoding="UTF-8"?>
<!--Generator: Apple Native CoreSVG 326-->
<!DOCTYPE svg
PUBLIC "-//W3C//DTD SVG 1.1//EN"
       "http://www.w3.org/Graphics/SVG/1.1/DTD/svg11.dtd">
<svg version="1.1" xmlns="http://www.w3.org/2000/svg" xmlns:xlink="http://www.w3.org/1999/xlink" viewBox="0 0 16.1328 15.7715">
 <g>
  <rect height="15.7715" opacity="0" width="16.1328" x="0" y="0"/>
  <path d="M7.88086 15.7617C12.2363 15.7617 15.7715 12.2363 15.7715 7.88086C15.7715 3.52539 12.2363 0 7.88086 0C3.53516 0 0 3.52539 0 7.88086C0 12.2363 3.53516 15.7617 7.88086 15.7617ZM7.88086 14.2773C4.3457 14.2773 1.49414 11.416 1.49414 7.88086C1.49414 4.3457 4.3457 1.48438 7.88086 1.48438C11.416 1.48438 14.2773 4.3457 14.2773 7.88086C14.2773 11.416 11.416 14.2773 7.88086 14.2773Z" fill="white" fill-opacity="0.85"/>
  <path d="M6.25977 6.29883C6.99219 6.29883 7.57812 5.71289 7.57812 4.98047C7.57812 4.24805 6.99219 3.66211 6.25977 3.66211C5.52734 3.66211 4.94141 4.24805 4.94141 4.98047C4.94141 5.71289 5.52734 6.29883 6.25977 6.29883ZM9.49219 6.29883C10.2246 6.29883 10.8105 5.71289 10.8105 4.98047C10.8105 4.24805 10.2246 3.66211 9.49219 3.66211C8.75977 3.66211 8.16406 4.24805 8.16406 4.98047C8.16406 5.71289 8.75977 6.29883 9.49219 6.29883ZM4.64844 9.19922C5.38086 9.19922 5.9668 8.61328 5.9668 7.88086C5.9668 7.14844 5.38086 6.5625 4.64844 6.5625C3.90625 6.5625 3.32031 7.14844 3.32031 7.88086C3.32031 8.61328 3.90625 9.19922 4.64844 9.19922ZM7.87109 9.19922C8.61328 9.19922 9.19922 8.61328 9.19922 7.88086C9.19922 7.14844 8.61328 6.5625 7.87109 6.5625C7.13867 6.5625 6.55273 7.14844 6.55273 7.88086C6.55273 8.61328 7.13867 9.19922 7.87109 9.19922ZM11.1035 9.19922C11.8359 9.19922 12.4316 8.61328 12.4316 7.88086C12.4316 7.14844 11.8359 6.5625 11.1035 6.5625C10.3711 6.5625 9.78516 7.14844 9.78516 7.88086C9.78516 8.61328 10.3711 9.19922 11.1035 9.19922ZM6.25977 12.0996C6.97266 12.0996 7.56836 11.5039 7.56836 10.7812C7.56836 10.0684 6.97266 9.46289 6.25977 9.46289C5.53711 9.46289 4.94141 10.0684 4.94141 10.7812C4.94141 11.4941 5.52734 12.0996 6.25977 12.0996ZM9.49219 12.0996C10.2246 12.0996 10.8105 11.5137 10.8105 10.7812C10.8105 10.0488 10.2246 9.46289 9.49219 9.46289C8.75977 9.46289 8.16406 10.0488 8.16406 10.7812C8.16406 11.5137 8.75977 12.0996 9.49219 12.0996Z" fill="white" fill-opacity="0.85"/>
 </g>
</svg>
