<?xml version="1.0" encoding="UTF-8"?>
<!--Generator: Apple Native CoreSVG 326-->
<!DOCTYPE svg
PUBLIC "-//W3C//DTD SVG 1.1//EN"
       "http://www.w3.org/Graphics/SVG/1.1/DTD/svg11.dtd">
<svg version="1.1" xmlns="http://www.w3.org/2000/svg" xmlns:xlink="http://www.w3.org/1999/xlink" viewBox="0 0 16.1328 15.7715">
 <g>
  <rect height="15.7715" opacity="0" width="16.1328" x="0" y="0"/>
  <path d="M15.7715 7.89062C15.7715 12.2363 12.2363 15.7715 7.88086 15.7715C3.53516 15.7715 0 12.2363 0 7.89062C0 3.54492 3.53516 0.00976562 7.88086 0.00976562C12.2363 0.00976562 15.7715 3.54492 15.7715 7.89062ZM4.85352 11.1719L4.87305 11.4453L4.64844 11.2891C4.56055 11.2305 4.43359 11.2402 4.36523 11.3477C4.32617 11.416 4.32617 11.5723 4.46289 11.6309L4.69727 11.7578L4.46289 11.8555C4.32617 11.9238 4.30664 12.0605 4.35547 12.1484C4.42383 12.2559 4.55078 12.2754 4.64844 12.2168L4.87305 12.0605L4.86328 12.334C4.86328 12.4512 4.94141 12.5488 5.06836 12.5488C5.17578 12.5488 5.26367 12.4609 5.25391 12.334L5.23438 12.0605L5.45898 12.2168C5.54688 12.2754 5.69336 12.2363 5.74219 12.168C5.80078 12.0801 5.79102 11.9238 5.6543 11.8555L5.41016 11.7578L5.6543 11.6211C5.78125 11.5625 5.80078 11.4453 5.76172 11.3477C5.71289 11.25 5.54688 11.2305 5.45898 11.2891L5.23438 11.4453L5.25391 11.1719C5.26367 11.0352 5.17578 10.9473 5.06836 10.9473C4.94141 10.9473 4.84375 11.0449 4.85352 11.1719ZM7.03125 11.1719L7.05078 11.4453L6.81641 11.2891C6.73828 11.2305 6.5918 11.2402 6.5332 11.3477C6.49414 11.416 6.50391 11.5723 6.62109 11.6309L6.86523 11.7578L6.62109 11.8555C6.50391 11.9238 6.47461 12.0605 6.52344 12.1484C6.58203 12.2559 6.72852 12.2754 6.81641 12.2168L7.05078 12.0605L7.04102 12.334C7.04102 12.4512 7.10938 12.5488 7.23633 12.5488C7.34375 12.5488 7.44141 12.4609 7.42188 12.334L7.40234 12.0605L7.62695 12.2168C7.72461 12.2754 7.86133 12.2363 7.91016 12.168C7.97852 12.0801 7.96875 11.9238 7.83203 11.8555L7.57812 11.7578L7.83203 11.6211C7.94922 11.5625 7.97852 11.4453 7.92969 11.3477C7.88086 11.25 7.72461 11.2305 7.62695 11.2891L7.40234 11.4453L7.42188 11.1719C7.44141 11.0352 7.34375 10.9473 7.23633 10.9473C7.10938 10.9473 7.02148 11.0449 7.03125 11.1719ZM9.18945 11.1719L9.20898 11.4453L8.98438 11.2891C8.89648 11.2305 8.75977 11.2402 8.69141 11.3477C8.65234 11.416 8.65234 11.5723 8.78906 11.6309L9.0332 11.7578L8.78906 11.8555C8.65234 11.9238 8.63281 12.0605 8.68164 12.1484C8.75 12.2559 8.88672 12.2754 8.98438 12.2168L9.20898 12.0605L9.19922 12.334C9.19922 12.4512 9.27734 12.5488 9.39453 12.5488C9.51172 12.5488 9.59961 12.4609 9.58984 12.334L9.57031 12.0605L9.79492 12.2168C9.88281 12.2754 10.0195 12.2363 10.0684 12.168C10.1367 12.0801 10.1172 11.9238 10 11.8555L9.74609 11.7578L10 11.6211C10.1074 11.5625 10.127 11.4453 10.0879 11.3477C10.0391 11.25 9.88281 11.2305 9.79492 11.2891L9.57031 11.4453L9.58984 11.1719C9.59961 11.0352 9.51172 10.9473 9.39453 10.9473C9.27734 10.9473 9.17969 11.0449 9.18945 11.1719ZM5.77148 9.57031L5.36133 10.2734C5.26367 10.4492 5.3125 10.7031 5.50781 10.8105C5.70312 10.9277 5.94727 10.8398 6.04492 10.6738L6.45508 9.9707C6.55273 9.78516 6.50391 9.53125 6.29883 9.42383C6.11328 9.31641 5.86914 9.39453 5.77148 9.57031ZM7.93945 9.57031L7.5293 10.2734C7.43164 10.4492 7.49023 10.7031 7.67578 10.8105C7.87109 10.9277 8.11523 10.8398 8.22266 10.6738L8.62305 9.9707C8.7207 9.78516 8.66211 9.53125 8.47656 9.42383C8.29102 9.31641 8.03711 9.39453 7.93945 9.57031ZM10.0977 9.57031L9.6875 10.2734C9.59961 10.4492 9.64844 10.7031 9.84375 10.8105C10.0293 10.9277 10.2832 10.8398 10.3711 10.6738L10.7812 9.9707C10.8789 9.78516 10.8301 9.53125 10.6348 9.42383C10.4395 9.31641 10.1953 9.39453 10.0977 9.57031ZM4.94141 5.42969C4.25781 5.63477 3.75 6.2207 3.75 7.02148C3.75 7.93945 4.41406 8.67188 5.55664 8.67188L10.2148 8.67188C11.4648 8.67188 12.4023 7.71484 12.4023 6.5332C12.4023 5.3125 11.4062 4.42383 10.1172 4.42383C9.63867 3.50586 8.75977 2.90039 7.68555 2.90039C6.25 2.90039 5.06836 4.01367 4.94141 5.42969Z" fill="white" fill-opacity="0.85"/>
 </g>
</svg>
