<svg version="1.1" xmlns="http://www.w3.org/2000/svg" xmlns:xlink="http://www.w3.org/1999/xlink" viewBox="0 0 17.9688 17.7441">
 <g>
  <rect height="17.7441" opacity="0" width="17.9688" x="0" y="0"/>
  <path d="M12.2168 17.4023L14.4336 13.5742C14.5801 13.3203 14.502 13.0371 14.2578 12.8809C14.0137 12.7344 13.7012 12.8027 13.5449 13.0664L11.3574 16.875C11.2109 17.1387 11.2891 17.4414 11.543 17.5879C11.7871 17.7344 12.0801 17.6562 12.2168 17.4023Z" fill="var(--color-primary)"/>
  <path d="M10.4492 15.2246L11.3965 13.584C11.543 13.3301 11.4648 13.0273 11.2109 12.8711C10.9473 12.7246 10.6543 12.8027 10.498 13.0664L9.55078 14.7168C9.4043 14.9609 9.48242 15.2637 9.74609 15.4102C10 15.5566 10.3125 15.4688 10.4492 15.2246Z" fill="var(--color-primary)"/>
  <path d="M6.13281 17.4121L8.34961 13.584C8.49609 13.3301 8.41797 13.0371 8.17383 12.8906C7.92969 12.7441 7.60742 12.8125 7.46094 13.0762L5.27344 16.8848C5.12695 17.1484 5.20508 17.4512 5.45898 17.5977C5.70312 17.7441 5.99609 17.666 6.13281 17.4121Z" fill="var(--color-primary)"/>
  <path d="M4.36523 15.2344L5.3125 13.5938C5.45898 13.3301 5.38086 13.0371 5.12695 12.8809C4.86328 12.7344 4.57031 12.8125 4.41406 13.0762L3.45703 14.7266C3.32031 14.9707 3.39844 15.2734 3.66211 15.4199C3.91602 15.5664 4.22852 15.4785 4.36523 15.2344Z" fill="var(--color-primary)"/>
  <path d="M4.08203 11.6797L13.5449 11.6797C16.0938 11.6797 17.9688 9.74609 17.9688 7.36328C17.9688 4.88281 15.957 3.07617 13.3398 3.07617C12.3828 1.20117 10.5762 1.77636e-15 8.39844 1.77636e-15C5.48828 1.77636e-15 3.08594 2.25586 2.83203 5.09766C1.45508 5.49805 0.419922 6.72852 0.419922 8.34961C0.419922 10.1953 1.75781 11.6797 4.08203 11.6797ZM4.0625 10.2734C2.55859 10.2734 1.82617 9.46289 1.82617 8.38867C1.82617 7.55859 2.28516 6.76758 3.56445 6.42578C4.0332 6.30859 4.19922 6.08398 4.23828 5.5957C4.42383 3.125 6.23047 1.40625 8.39844 1.40625C10.0098 1.40625 11.3379 2.28516 12.1582 3.96484C12.3535 4.375 12.5977 4.52148 13.0957 4.52148C15.3711 4.52148 16.5625 5.83984 16.5625 7.39258C16.5625 8.99414 15.3027 10.2734 13.6328 10.2734Z" fill="var(--color-primary)"/>
 </g>
</svg>
