<svg version="1.1" xmlns="http://www.w3.org/2000/svg" xmlns:xlink="http://www.w3.org/1999/xlink" viewBox="0 0 16.1328 15.7715">
 <g>
  <rect height="15.7715" opacity="0" width="16.1328" x="0" y="0"/>
  <path d="M7.88086 15.7617C12.2363 15.7617 15.7715 12.2363 15.7715 7.88086C15.7715 3.52539 12.2363 0 7.88086 0C3.53516 0 0 3.52539 0 7.88086C0 12.2363 3.53516 15.7617 7.88086 15.7617ZM7.88086 14.2773C4.3457 14.2773 1.49414 11.416 1.49414 7.88086C1.49414 4.3457 4.3457 1.48438 7.88086 1.48438C11.416 1.48438 14.2773 4.3457 14.2773 7.88086C14.2773 11.416 11.416 14.2773 7.88086 14.2773Z" fill="var(--color-primary)"/>
  <path d="M5.13672 10.7031L10.2246 10.7031C11.5527 10.7031 12.5879 9.70703 12.5879 8.41797C12.5879 7.08984 11.5234 6.11328 10.0879 6.13281C9.58008 5.09766 8.59375 4.48242 7.46094 4.48242C5.91797 4.48242 4.61914 5.67383 4.49219 7.2168C3.71094 7.44141 3.18359 8.125 3.18359 8.93555C3.18359 9.99023 3.97461 10.7031 5.13672 10.7031Z" fill="var(--color-primary)"/>
 </g>
</svg>
