<?xml version="1.0" encoding="UTF-8"?>
<!--Generator: Apple Native CoreSVG 326-->
<!DOCTYPE svg
PUBLIC "-//W3C//DTD SVG 1.1//EN"
       "http://www.w3.org/Graphics/SVG/1.1/DTD/svg11.dtd">
<svg version="1.1" xmlns="http://www.w3.org/2000/svg" xmlns:xlink="http://www.w3.org/1999/xlink" viewBox="0 0 16.1328 15.7715">
 <g>
  <rect height="15.7715" opacity="0" width="16.1328" x="0" y="0"/>
  <path d="M15.7715 7.89062C15.7715 12.2363 12.2363 15.7715 7.88086 15.7715C3.53516 15.7715 0 12.2363 0 7.89062C0 3.54492 3.53516 0.00976562 7.88086 0.00976562C12.2363 0.00976562 15.7715 3.54492 15.7715 7.89062ZM5.76172 10.3711C5.6543 10.3711 5.60547 10.4004 5.56641 10.4785L5.04883 11.6895C5 11.7773 5.03906 11.8555 5.13672 11.8555L5.85938 11.8555L5.33203 13.1445C5.30273 13.2324 5.39062 13.291 5.46875 13.2227L7.37305 11.4062C7.45117 11.3184 7.42188 11.2109 7.31445 11.2109L6.45508 11.2109L6.82617 10.5176C6.86523 10.4395 6.83594 10.3711 6.74805 10.3711ZM3.59375 7.13867C3.01758 7.33398 2.60742 7.86133 2.60742 8.51562C2.60742 9.35547 3.25195 9.96094 4.16992 9.96094L8.01758 9.96094C9.08203 9.96094 9.88281 9.16016 9.88281 8.11523C9.88281 7.09961 9.07227 6.31836 7.97852 6.29883C7.55859 5.51758 6.80664 5.04883 5.91797 5.04883C4.73633 5.04883 3.73047 5.95703 3.59375 7.13867ZM10.9766 7.94922C10.8496 8.10547 10.8301 8.36914 10.9766 8.50586L11.4941 9.01367C11.6504 9.17969 11.9043 9.16016 12.0508 9.00391C12.1973 8.85742 12.207 8.59375 12.0508 8.44727L11.5527 7.94922C11.3965 7.80273 11.1426 7.8125 10.9766 7.94922ZM7.91016 5.26367C8.06641 5.40039 8.20312 5.55664 8.32031 5.74219C9.46289 5.89844 10.332 6.72852 10.4492 7.8418C10.9375 7.48047 11.2207 6.93359 11.2207 6.33789C11.2207 5.3125 10.4102 4.51172 9.38477 4.51172C8.78906 4.51172 8.23242 4.80469 7.91016 5.26367ZM12.041 5.94727C11.8457 5.94727 11.6504 6.11328 11.6504 6.33789C11.6504 6.5625 11.8457 6.72852 12.041 6.72852L12.7441 6.72852C12.9688 6.72852 13.1543 6.5625 13.1543 6.33789C13.1543 6.11328 12.9688 5.94727 12.7441 5.94727ZM6.71875 3.68164C6.57227 3.81836 6.57227 4.08203 6.71875 4.23828L7.22656 4.75586C7.37305 4.90234 7.63672 4.88281 7.79297 4.74609C7.91992 4.58984 7.93945 4.33594 7.79297 4.17969L7.27539 3.68164C7.11914 3.53516 6.86523 3.53516 6.71875 3.68164ZM11.4941 3.68164L10.9766 4.17969C10.8301 4.33594 10.8496 4.58984 10.9766 4.74609C11.1328 4.88281 11.4062 4.90234 11.5527 4.75586L12.0508 4.23828C12.207 4.08203 12.1973 3.81836 12.0508 3.68164C11.9043 3.53516 11.6504 3.52539 11.4941 3.68164ZM8.98438 2.96875L8.98438 3.68164C8.98438 3.89648 9.16992 4.07227 9.38477 4.07227C9.60938 4.07227 9.78516 3.89648 9.78516 3.68164L9.78516 2.96875C9.78516 2.75391 9.60938 2.56836 9.38477 2.56836C9.16992 2.56836 8.98438 2.75391 8.98438 2.96875Z" fill="white" fill-opacity="0.85"/>
 </g>
</svg>
