<?xml version="1.0" encoding="UTF-8"?>
<!--Generator: Apple Native CoreSVG 326-->
<!DOCTYPE svg
PUBLIC "-//W3C//DTD SVG 1.1//EN"
       "http://www.w3.org/Graphics/SVG/1.1/DTD/svg11.dtd">
<svg version="1.1" xmlns="http://www.w3.org/2000/svg" xmlns:xlink="http://www.w3.org/1999/xlink" viewBox="0 0 16.1328 15.7715">
 <g>
  <rect height="15.7715" opacity="0" width="16.1328" x="0" y="0"/>
  <path d="M7.88086 15.7617C12.2363 15.7617 15.7715 12.2363 15.7715 7.88086C15.7715 3.52539 12.2363 0 7.88086 0C3.53516 0 0 3.52539 0 7.88086C0 12.2363 3.53516 15.7617 7.88086 15.7617ZM7.88086 14.2773C4.3457 14.2773 1.49414 11.416 1.49414 7.88086C1.49414 4.3457 4.3457 1.48438 7.88086 1.48438C11.416 1.48438 14.2773 4.3457 14.2773 7.88086C14.2773 11.416 11.416 14.2773 7.88086 14.2773Z" fill="white" fill-opacity="0.85"/>
  <path d="M5.45898 8.92578L9.95117 8.92578C11.1523 8.92578 12.0508 7.99805 12.0508 6.86523C12.0508 5.68359 11.0938 4.82422 9.85352 4.82422C9.39453 3.94531 8.53516 3.35938 7.50977 3.35938C6.12305 3.35938 4.99023 4.44336 4.86328 5.79102C4.20898 5.98633 3.7207 6.5625 3.7207 7.33398C3.7207 8.21289 4.35547 8.92578 5.45898 8.92578ZM5.35156 11.0449L5.85938 10.166C5.9668 9.99023 5.9082 9.74609 5.71289 9.64844C5.53711 9.54102 5.30273 9.60938 5.20508 9.78516L4.6875 10.6641C4.58984 10.8496 4.64844 11.084 4.83398 11.1914C5.01953 11.2891 5.24414 11.2305 5.35156 11.0449ZM6.45508 12.2266L7.64648 10.166C7.75391 9.98047 7.69531 9.74609 7.5 9.64844C7.32422 9.54102 7.09961 9.59961 6.99219 9.78516L5.80078 11.8457C5.69336 12.0312 5.75195 12.2656 5.9375 12.373C6.12305 12.4707 6.34766 12.4121 6.45508 12.2266ZM8.91602 11.0449L9.42383 10.166C9.53125 9.99023 9.47266 9.74609 9.28711 9.64844C9.10156 9.54102 8.87695 9.60938 8.76953 9.78516L8.26172 10.6641C8.1543 10.8496 8.21289 11.084 8.4082 11.1914C8.58398 11.2891 8.80859 11.2305 8.91602 11.0449ZM10.0195 12.2266L11.2109 10.166C11.3184 9.98047 11.2598 9.74609 11.0742 9.64844C10.8887 9.54102 10.6641 9.59961 10.5566 9.78516L9.36523 11.8457C9.25781 12.0312 9.31641 12.2656 9.51172 12.373C9.6875 12.4707 9.92188 12.4121 10.0195 12.2266Z" fill="white" fill-opacity="0.85"/>
 </g>
</svg>
