<?xml version="1.0" encoding="UTF-8"?>
<!--Generator: Apple Native CoreSVG 326-->
<!DOCTYPE svg
PUBLIC "-//W3C//DTD SVG 1.1//EN"
       "http://www.w3.org/Graphics/SVG/1.1/DTD/svg11.dtd">
<svg version="1.1" xmlns="http://www.w3.org/2000/svg" xmlns:xlink="http://www.w3.org/1999/xlink" viewBox="0 0 22.6172 22.4575">
 <g>
  <rect height="22.4575" opacity="0" width="22.6172" x="0" y="0"/>
  <path d="M8.89648 17.3469L8.22236 18.6262L9.81445 18.6262C10.0293 18.6262 10.0781 18.8313 9.92188 18.9875L6.39648 22.3762C6.31836 22.4543 6.24023 22.4739 6.17188 22.4446C6.10352 22.4153 6.08398 22.3371 6.12305 22.2395L7.12196 19.8371L5.77148 19.8371C5.57617 19.8371 5.49805 19.72 5.58594 19.5442L6.57227 17.2883C6.64062 17.1418 6.70898 17.0637 6.91406 17.0637L8.75 17.0637C8.91602 17.0637 8.98438 17.1809 8.89648 17.3469Z" fill="white" fill-opacity="0.85"/>
  <path d="M18.9453 11.9661L20.0195 13.05C20.3027 13.3332 20.3027 13.802 20.0195 14.0852C19.7363 14.3684 19.2773 14.3684 18.9941 14.0852L17.9004 12.9914C17.627 12.7082 17.6367 12.2493 17.9004 11.9661C18.1738 11.6829 18.6523 11.6731 18.9453 11.9661ZM18.2031 8.4309C18.2031 10.1432 17.0976 11.5901 15.5564 12.0889C15.5566 12.0871 15.5566 12.0852 15.5566 12.0832C15.5566 11.6327 15.4821 11.2054 15.3397 10.8123C16.2782 10.4373 16.9238 9.52672 16.9238 8.4309C16.9238 6.98559 15.8008 5.87231 14.3652 5.87231C12.9948 5.87231 11.9181 6.88689 11.8257 8.23721C11.711 8.22425 11.5935 8.21805 11.4746 8.21606C11.2689 7.83365 11.0247 7.48607 10.7467 7.17936C11.2569 5.66931 12.6758 4.59301 14.3652 4.59301C16.4941 4.59301 18.2031 6.30199 18.2031 8.4309ZM22.3438 8.4309C22.3438 8.83129 22.0215 9.16332 21.6211 9.16332L20.0977 9.16332C19.707 9.16332 19.3652 8.83129 19.3652 8.4309C19.3652 8.03051 19.707 7.69848 20.0977 7.69848L21.6211 7.69848C22.0215 7.69848 22.3438 8.03051 22.3438 8.4309ZM20.0195 2.78637C20.3027 3.05981 20.3027 3.52856 20.0195 3.81176L18.9453 4.89574C18.6523 5.18871 18.1738 5.17895 17.9004 4.89574C17.6367 4.61254 17.627 4.15356 17.9004 3.88012L18.9941 2.78637C19.2773 2.50317 19.7363 2.50317 20.0195 2.78637ZM9.73633 2.78637L10.8301 3.88012C11.1133 4.15356 11.1035 4.61254 10.8301 4.89574C10.5566 5.17895 10.0781 5.18871 9.79492 4.89574L8.7207 3.81176C8.4375 3.52856 8.4375 3.05981 8.7207 2.78637C9.00391 2.50317 9.46289 2.50317 9.73633 2.78637ZM15.0977 1.16527L15.0977 2.68871C15.0977 3.0891 14.7754 3.42113 14.3652 3.42113C13.9648 3.42113 13.6328 3.0891 13.6328 2.68871L13.6328 1.16527C13.6328 0.764884 13.9648 0.432853 14.3652 0.432853C14.7754 0.432853 15.0977 0.764884 15.0977 1.16527Z" fill="white" fill-opacity="0.85"/>
  <path d="M3.32031 15.9797L11.5723 15.9797C13.8184 15.9797 15.5566 14.2805 15.5566 12.0832C15.5566 9.89574 13.7988 8.25512 11.4746 8.21606C10.5762 6.54613 8.94531 5.54027 7.08984 5.54027C4.52148 5.54027 2.37305 7.4934 2.10938 10.0129C0.830078 10.4329 0 11.5657 0 12.9524C0 14.7395 1.34766 15.9797 3.32031 15.9797ZM3.28125 14.5735C2.05078 14.5735 1.40625 13.8899 1.40625 12.9914C1.40625 12.2493 1.80664 11.5559 2.91992 11.2727C3.33008 11.1653 3.47656 10.9797 3.51562 10.5403C3.70117 8.4309 5.22461 6.94652 7.08984 6.94652C8.47656 6.94652 9.58984 7.69848 10.3027 9.12426C10.4785 9.48559 10.6934 9.60277 11.123 9.60277C13.1055 9.60277 14.1504 10.7649 14.1504 12.1223C14.1504 13.4895 13.0469 14.5735 11.5918 14.5735Z" fill="white" fill-opacity="0.85"/>
 </g>
</svg>
