<?xml version="1.0" encoding="UTF-8"?>
<!--Generator: Apple Native CoreSVG 326-->
<!DOCTYPE svg
PUBLIC "-//W3C//DTD SVG 1.1//EN"
       "http://www.w3.org/Graphics/SVG/1.1/DTD/svg11.dtd">
<svg version="1.1" xmlns="http://www.w3.org/2000/svg" xmlns:xlink="http://www.w3.org/1999/xlink" viewBox="0 0 28.7402 19.6191">
 <g>
  <rect height="19.6191" opacity="0" width="28.7402" x="0" y="0"/>
  <path d="M11.8739 6.90173L11.7657 6.97461L11.8762 6.96775L11.8945 7.5C11.9062 7.8149 11.9866 8.10629 12.1225 8.3593L8.90541 8.55855C8.88043 8.56374 8.8544 8.56896 8.82812 8.57422L4.00391 9.48242C2.27539 9.80469 1.40625 10.5762 1.40625 11.7871L1.40625 12.7148C1.40625 13.1348 1.63086 13.3496 2.11914 13.4082L2.92044 13.4952C2.92557 11.9182 4.16376 10.6836 5.74219 10.6836C7.23836 10.6836 8.42883 11.7929 8.55202 13.252L19.8269 13.252C19.9501 11.7929 21.1405 10.6836 22.6367 10.6836C24.0443 10.6836 25.1813 11.6654 25.4125 12.997L25.9473 12.9492C26.6309 12.8809 26.9727 12.4805 26.9727 11.7578L26.9727 10.4297C26.9727 9.45312 26.6309 9.05273 25.7129 8.87695L20.4785 7.8418L15.5372 8.14782C15.6165 7.94893 15.6631 7.73078 15.6738 7.5L15.7004 6.73041L20.1367 6.45508C20.625 6.42578 21.1035 6.45508 21.6113 6.5625L25.9668 7.42188C27.7051 7.75391 28.3789 8.53516 28.3789 10.4297L28.3789 11.7578C28.3789 13.3301 27.6367 14.1797 26.1328 14.3262L25.315 14.4068C24.9486 15.5348 23.902 16.3281 22.6367 16.3281C21.4678 16.3281 20.4854 15.651 20.0538 14.6582L8.32507 14.6582C7.89347 15.651 6.91113 16.3281 5.74219 16.3281C4.69628 16.3281 3.79977 15.7861 3.31492 14.9597L1.77734 14.7949C0.537109 14.6582 0 14.0527 0 12.8125L0 11.7871C0 9.76562 1.2793 8.57422 3.81836 8.0957L8.95508 7.14844L11.8163 5.23158ZM4.23828 13.5059C4.23828 14.3457 4.90234 15.0098 5.74219 15.0098C6.58203 15.0098 7.24609 14.3457 7.24609 13.5059C7.24609 12.666 6.58203 12.002 5.74219 12.002C4.90234 12.002 4.23828 12.666 4.23828 13.5059ZM21.1328 13.5059C21.1328 14.3457 21.7969 15.0098 22.6367 15.0098C23.4766 15.0098 24.1406 14.3457 24.1406 13.5059C24.1406 12.666 23.4766 12.002 22.6367 12.002C21.7969 12.002 21.1328 12.666 21.1328 13.5059Z" fill="white" fill-opacity="0.85"/>
  <path d="M13.7793 11.6895C14.3848 11.6895 14.8828 11.2109 14.8828 10.6348C14.8828 10.0586 14.3945 9.58008 13.7793 9.58008C13.1738 9.58008 12.6855 10.0586 12.6855 10.6348C12.6855 11.2109 13.1836 11.6895 13.7793 11.6895ZM13.7793 8.20312C14.2188 8.20312 14.5117 7.90039 14.5312 7.45117L14.7168 2.08008C14.7363 1.51367 14.3652 1.14258 13.7793 1.14258C13.2031 1.14258 12.832 1.51367 12.8418 2.08008L13.0371 7.45117C13.0469 7.90039 13.3496 8.20312 13.7793 8.20312Z" fill="white" fill-opacity="0.85"/>
 </g>
</svg>
