<svg version="1.1" xmlns="http://www.w3.org/2000/svg" xmlns:xlink="http://www.w3.org/1999/xlink" viewBox="0 0 28.9134 17.9733">
 <g>
  <rect height="17.9733" opacity="0" width="28.9134" x="0" y="0"/>
  <path d="M1.86394 13.972L3.778 14.1771L3.91472 12.7709L2.20574 12.5853C1.71745 12.5267 1.49284 12.3119 1.49284 11.8919L1.49284 10.9642C1.49284 9.75328 2.36199 8.98179 4.0905 8.65953L8.91472 7.75132C9.35417 7.66343 9.72527 7.58531 10.028 7.38023L14.8425 4.13804C15.6432 3.60093 14.8522 2.42906 14.0124 2.99546L9.04167 6.32554L3.90495 7.27281C1.36589 7.75132 0.0865949 8.94273 0.0865949 10.9642L0.0865949 11.9896C0.0865949 13.2298 0.623704 13.8353 1.86394 13.972ZM5.82878 15.5052C7.41081 15.5052 8.65105 14.265 8.65105 12.683C8.65105 11.1009 7.41081 9.8607 5.82878 9.8607C4.24675 9.8607 3.00652 11.1009 3.00652 12.683C3.00652 14.265 4.24675 15.5052 5.82878 15.5052ZM5.82878 14.1869C4.98894 14.1869 4.32488 13.5228 4.32488 12.683C4.32488 11.8431 4.98894 11.1791 5.82878 11.1791C6.66863 11.1791 7.33269 11.8431 7.33269 12.683C7.33269 13.5228 6.66863 14.1869 5.82878 14.1869ZM7.71355 13.8353L20.946 13.8353L20.946 12.4291L7.71355 12.4291ZM22.7233 15.5052C24.3053 15.5052 25.5456 14.265 25.5456 12.683C25.5456 11.1009 24.3053 9.8607 22.7233 9.8607C21.1413 9.8607 19.901 11.1009 19.901 12.683C19.901 14.265 21.1413 15.5052 22.7233 15.5052ZM22.7233 14.1869C21.8835 14.1869 21.2194 13.5228 21.2194 12.683C21.2194 11.8431 21.8835 11.1791 22.7233 11.1791C23.5632 11.1791 24.2272 11.8431 24.2272 12.683C24.2272 13.5228 23.5632 14.1869 22.7233 14.1869ZM24.8327 13.64L26.2194 13.5033C27.7233 13.3568 28.4655 12.5072 28.4655 10.9349L28.4655 9.60679C28.4655 7.71226 27.7917 6.93101 26.0534 6.59898L21.6979 5.7396C21.1901 5.63218 20.7116 5.60288 20.2233 5.63218L9.05144 6.32554L8.73894 7.75132L20.5651 7.0189L25.7995 8.05406C26.7175 8.22984 27.0593 8.63023 27.0593 9.60679L27.0593 10.9349C27.0593 11.6576 26.7175 12.058 26.0339 12.1263L24.8327 12.2337Z" fill="var(--color-primary)"/>
  <path d="M24.862 3.74742C24.6667 4.32359 24.9987 4.60679 25.5456 4.46031L28.446 3.68882C28.9147 3.56187 29.0417 3.19078 28.778 2.80992L27.0593 0.319682C26.7468-0.119771 26.3171-0.129537 26.1022 0.436869L25.7507 1.35484C23.7292 0.485697 21.3854 0.378276 19.7448 0.514994C19.3346 0.544291 19.0124 0.895854 19.0417 1.30601C19.071 1.72593 19.4323 2.03843 19.8522 2.00913C21.4245 1.89195 23.4948 1.9896 25.2331 2.77085Z" fill="var(--color-primary)"/>
 </g>
</svg>
