<?xml version="1.0" encoding="UTF-8"?>
<!--Generator: Apple Native CoreSVG 326-->
<!DOCTYPE svg
PUBLIC "-//W3C//DTD SVG 1.1//EN"
       "http://www.w3.org/Graphics/SVG/1.1/DTD/svg11.dtd">
<svg version="1.1" xmlns="http://www.w3.org/2000/svg" xmlns:xlink="http://www.w3.org/1999/xlink" viewBox="0 0 18.4668 13.252">
 <g>
  <rect height="13.252" opacity="0" width="18.4668" x="0" y="0"/>
  <path d="M3.17383 10.8301C2.72461 10.8301 2.42188 10.5273 2.42188 10.0977L2.42188 8.68164C2.42188 8.25195 2.72461 7.94922 3.17383 7.94922L5.04883 7.94922C5.49805 7.94922 5.80078 8.25195 5.80078 8.68164L5.80078 10.0977C5.80078 10.5273 5.49805 10.8301 5.04883 10.8301ZM0 4.96094L0 3.20312L18.1055 3.20312L18.1055 4.96094ZM2.49023 13.252L15.6152 13.252C17.2852 13.252 18.1055 12.4414 18.1055 10.8008L18.1055 2.46094C18.1055 0.820312 17.2852 0.00976562 15.6152 0.00976562L2.49023 0.00976562C0.830078 0.00976562 0 0.820312 0 2.46094L0 10.8008C0 12.4414 0.830078 13.252 2.49023 13.252Z" fill="white" fill-opacity="0.85"/>
 </g>
</svg>
