<svg version="1.1" xmlns="http://www.w3.org/2000/svg" xmlns:xlink="http://www.w3.org/1999/xlink" viewBox="0 0 11.0156 18.6426">
 <g>
  <rect height="18.6426" opacity="0" width="11.0156" x="0" y="0"/>
  <path d="M1.37695 2.20703C1.37695 3.11523 1.9043 3.65234 2.79297 3.65234L7.85156 3.65234C8.74023 3.65234 9.27734 3.11523 9.27734 2.20703L9.27734 1.44531C9.27734 0.537109 8.74023 0 7.85156 0L2.79297 0C1.9043 0 1.37695 0.537109 1.37695 1.44531ZM2.59766 2.1875L2.59766 1.46484C2.59766 1.30859 2.69531 1.21094 2.86133 1.21094L7.79297 1.21094C7.95898 1.21094 8.04688 1.30859 8.04688 1.46484L8.04688 2.1875C8.04688 2.33398 7.95898 2.44141 7.79297 2.44141L2.86133 2.44141C2.69531 2.44141 2.59766 2.33398 2.59766 2.1875ZM3.69141 5.06836L3.69141 3.19336L2.4707 3.19336L2.4707 5.06836ZM8.18359 5.06836L8.18359 3.19336L6.95312 3.19336L6.95312 5.06836ZM0 16.0254C0 17.5879 1.02539 18.6133 2.54883 18.6133L8.0957 18.6133C9.62891 18.6133 10.6543 17.5879 10.6543 16.0254L10.6543 7.34375C10.6543 5.78125 9.62891 4.75586 8.0957 4.75586L2.54883 4.75586C1.02539 4.75586 0 5.78125 0 7.34375ZM1.33789 16.0059L1.33789 7.36328C1.33789 6.60156 1.8457 6.09375 2.62695 6.09375L8.02734 6.09375C8.79883 6.09375 9.31641 6.60156 9.31641 7.36328L9.31641 16.0059C9.31641 16.7773 8.79883 17.2852 8.02734 17.2852L2.62695 17.2852C1.8457 17.2852 1.33789 16.7773 1.33789 16.0059Z" fill="var(--color-primary)"/>
  <path d="M2.45117 12.2461C2.45117 12.5586 2.66602 12.7734 2.97852 12.7734L4.23828 12.7734L4.23828 14.0137C4.23828 14.3359 4.44336 14.5508 4.76562 14.5508L5.87891 14.5508C6.20117 14.5508 6.40625 14.3359 6.40625 14.0137L6.40625 12.7734L7.66602 12.7734C7.97852 12.7734 8.20312 12.5586 8.20312 12.2461L8.20312 11.123C8.20312 10.8008 7.97852 10.5957 7.66602 10.5957L6.40625 10.5957L6.40625 9.3457C6.40625 9.0332 6.20117 8.81836 5.87891 8.81836L4.76562 8.81836C4.44336 8.81836 4.23828 9.0332 4.23828 9.3457L4.23828 10.5957L2.97852 10.5957C2.66602 10.5957 2.45117 10.8008 2.45117 11.123Z" fill="var(--color-primary)"/>
 </g>
</svg>
