<?xml version="1.0" encoding="UTF-8"?>
<!--Generator: Apple Native CoreSVG 326-->
<!DOCTYPE svg
PUBLIC "-//W3C//DTD SVG 1.1//EN"
       "http://www.w3.org/Graphics/SVG/1.1/DTD/svg11.dtd">
<svg version="1.1" xmlns="http://www.w3.org/2000/svg" xmlns:xlink="http://www.w3.org/1999/xlink" viewBox="0 0 16.1328 15.7715">
 <g>
  <rect height="15.7715" opacity="0" width="16.1328" x="0" y="0"/>
  <path d="M15.7715 7.89062C15.7715 12.2363 12.2363 15.7715 7.88086 15.7715C3.53516 15.7715 0 12.2363 0 7.89062C0 3.54492 3.53516 0.00976562 7.88086 0.00976562C12.2363 0.00976562 15.7715 3.54492 15.7715 7.89062ZM7.01172 3.45703C6.52344 3.45703 6.19141 3.7793 6.19141 4.28711L6.19141 6.19141L4.26758 6.19141C3.76953 6.19141 3.4375 6.5332 3.4375 7.02148L3.4375 8.75C3.4375 9.23828 3.7793 9.58008 4.26758 9.58008L6.19141 9.58008L6.19141 11.4941C6.19141 11.9922 6.52344 12.3242 7.01172 12.3242L8.74023 12.3242C9.22852 12.3242 9.56055 11.9922 9.56055 11.4941L9.56055 9.58008L11.4844 9.58008C11.9824 9.58008 12.3242 9.23828 12.3242 8.75L12.3242 7.02148C12.3242 6.5332 11.9824 6.19141 11.4844 6.19141L9.56055 6.19141L9.56055 4.28711C9.56055 3.7793 9.22852 3.45703 8.74023 3.45703Z" fill="white" fill-opacity="0.85"/>
 </g>
</svg>
