<?xml version="1.0" encoding="UTF-8"?>
<!--Generator: Apple Native CoreSVG 326-->
<!DOCTYPE svg
PUBLIC "-//W3C//DTD SVG 1.1//EN"
       "http://www.w3.org/Graphics/SVG/1.1/DTD/svg11.dtd">
<svg version="1.1" xmlns="http://www.w3.org/2000/svg" xmlns:xlink="http://www.w3.org/1999/xlink" viewBox="0 0 14.5898 14.248">
 <g>
  <rect height="14.248" opacity="0" width="14.5898" x="0" y="0"/>
  <path d="M2.49023 14.248L11.7383 14.248C13.4082 14.248 14.2285 13.4277 14.2285 11.7871L14.2285 2.4707C14.2285 0.830078 13.4082 0.00976562 11.7383 0.00976562L2.49023 0.00976562C0.830078 0.00976562 0 0.830078 0 2.4707L0 11.7871C0 13.4277 0.830078 14.248 2.49023 14.248ZM2.50977 12.832C1.80664 12.832 1.40625 12.4512 1.40625 11.7188L1.40625 2.53906C1.40625 1.79688 1.80664 1.42578 2.50977 1.42578L11.7188 1.42578C12.4219 1.42578 12.8223 1.79688 12.8223 2.53906L12.8223 11.7188C12.8223 12.4512 12.4219 12.832 11.7188 12.832Z" fill="white" fill-opacity="0.85"/>
  <path d="M4.17969 10.2148C4.45312 10.2148 4.64844 10.0195 4.64844 9.72656L4.64844 8.53516L5.06836 8.125L6.40625 9.9707C6.50391 10.127 6.64062 10.2148 6.82617 10.2148C7.07031 10.2148 7.27539 10.0391 7.27539 9.80469C7.27539 9.67773 7.2168 9.57031 7.13867 9.47266L5.74219 7.54883L7.03125 6.20117C7.14844 6.07422 7.20703 6.00586 7.20703 5.85938C7.20703 5.64453 7.02148 5.44922 6.78711 5.44922C6.65039 5.44922 6.50391 5.53711 6.41602 5.63477L4.66797 7.54883L4.64844 7.54883L4.64844 4.16992C4.64844 3.87695 4.45312 3.66211 4.17969 3.66211C3.90625 3.66211 3.71094 3.86719 3.71094 4.16016L3.71094 9.72656C3.71094 10.0195 3.90625 10.2148 4.17969 10.2148ZM8.54492 10.2148C8.75 10.2148 8.99414 10.0977 8.99414 9.72656L8.99414 7.42188C8.99414 6.89453 9.18945 6.34766 9.82422 6.34766C10 6.34766 10.1562 6.32812 10.2734 6.24023C10.3711 6.17188 10.4297 6.07422 10.4297 5.91797C10.4297 5.625 10.2246 5.44922 9.92188 5.44922C9.44336 5.44922 9.10156 5.86914 8.99414 6.35742L8.95508 6.35742L8.95508 5.92773C8.95508 5.6543 8.76953 5.44922 8.52539 5.44922C8.28125 5.44922 8.0957 5.6543 8.0957 5.92773L8.0957 9.72656C8.0957 10.0195 8.25195 10.2148 8.54492 10.2148ZM10.5859 10.1074C10.9277 10.1074 11.1719 9.86328 11.1719 9.53125C11.1719 9.18945 10.9277 8.94531 10.5859 8.94531C10.2441 8.94531 10.0098 9.18945 10.0098 9.53125C10.0098 9.86328 10.2441 10.1074 10.5859 10.1074Z" fill="white" fill-opacity="0.85"/>
 </g>
</svg>
