<?xml version="1.0" encoding="UTF-8"?>
<!--Generator: Apple Native CoreSVG 326-->
<!DOCTYPE svg
PUBLIC "-//W3C//DTD SVG 1.1//EN"
       "http://www.w3.org/Graphics/SVG/1.1/DTD/svg11.dtd">
<svg version="1.1" xmlns="http://www.w3.org/2000/svg" xmlns:xlink="http://www.w3.org/1999/xlink" viewBox="0 0 16.1328 15.7715">
 <g>
  <rect height="15.7715" opacity="0" width="16.1328" x="0" y="0"/>
  <path d="M15.7715 7.88086C15.7715 12.2266 12.2363 15.7617 7.88086 15.7617C3.53516 15.7617 0 12.2266 0 7.88086C0 3.53516 3.53516 0 7.88086 0C12.2363 0 15.7715 3.53516 15.7715 7.88086ZM7.2168 3.76953L3.7793 7.2168C3.35938 7.63672 3.37891 8.13477 3.79883 8.55469L7.20703 11.9727C7.63672 12.4023 8.125 12.4121 8.55469 11.9922L11.9922 8.54492C12.4219 8.125 12.4023 7.63672 11.9727 7.20703L8.56445 3.78906C8.13477 3.36914 7.64648 3.34961 7.2168 3.76953Z" fill="white" fill-opacity="0.85"/>
 </g>
</svg>
