<svg version="1.1" xmlns="http://www.w3.org/2000/svg" xmlns:xlink="http://www.w3.org/1999/xlink" viewBox="0 0 17.9103 17.5587">
 <g>
  <rect height="17.5587" opacity="0" width="17.9103" x="0" y="0"/>
  <path d="M0.888733 10.5323L7.02155 16.6553C8.19342 17.837 9.34576 17.8467 10.5176 16.6846L16.6797 10.5128C17.8516 9.35065 17.8321 8.1983 16.6505 7.01666L10.5274 0.893616C9.35553-0.288025 8.20319-0.297791 7.03131 0.864319L0.869202 7.03619C-0.302673 8.20807-0.283142 9.35065 0.888733 10.5323ZM16.0255 8.77448C16.0255 9.03815 15.8887 9.30182 15.6348 9.56549L9.56061 15.6299C9.03326 16.1573 8.49615 16.1475 7.98834 15.6495L1.90436 9.55573C1.66022 9.29205 1.5235 9.03815 1.5235 8.77448Z" fill="var(--color-primary)"/>
 </g>
</svg>
