<?xml version="1.0" encoding="UTF-8"?>
<!--Generator: Apple Native CoreSVG 326-->
<!DOCTYPE svg
PUBLIC "-//W3C//DTD SVG 1.1//EN"
       "http://www.w3.org/Graphics/SVG/1.1/DTD/svg11.dtd">
<svg version="1.1" xmlns="http://www.w3.org/2000/svg" xmlns:xlink="http://www.w3.org/1999/xlink" viewBox="0 0 16.1328 15.7715">
 <g>
  <rect height="15.7715" opacity="0" width="16.1328" x="0" y="0"/>
  <path d="M7.88086 15.7617C12.2363 15.7617 15.7715 12.2363 15.7715 7.88086C15.7715 3.52539 12.2363 0 7.88086 0C3.53516 0 0 3.52539 0 7.88086C0 12.2363 3.53516 15.7617 7.88086 15.7617ZM7.88086 14.2773C4.3457 14.2773 1.49414 11.416 1.49414 7.88086C1.49414 4.3457 4.3457 1.48438 7.88086 1.48438C11.416 1.48438 14.2773 4.3457 14.2773 7.88086C14.2773 11.416 11.416 14.2773 7.88086 14.2773Z" fill="white" fill-opacity="0.85"/>
  <path d="M7.88086 11.2695C9.20898 11.2695 10.3711 10.6543 10.3711 9.30664C10.3711 8.11523 9.41406 7.66602 8.36914 7.42188L7.62695 7.24609C6.96289 7.09961 6.44531 6.81641 6.44531 6.2207C6.44531 5.52734 7.19727 5.21484 7.88086 5.21484C8.63281 5.21484 9.10156 5.52734 9.31641 6.14258C9.41406 6.39648 9.56055 6.52344 9.80469 6.52344C10.0098 6.52344 10.2539 6.38672 10.2539 6.09375C10.2539 5.05859 8.93555 4.38477 7.88086 4.38477C6.62109 4.38477 5.49805 5.08789 5.49805 6.29883C5.49805 7.48047 6.47461 7.91992 7.42188 8.14453L8.16406 8.32031C8.82812 8.47656 9.42383 8.70117 9.42383 9.38477C9.42383 10.1953 8.64258 10.4297 7.90039 10.4297C7.11914 10.4297 6.61133 10.2051 6.30859 9.49219C6.19141 9.23828 6.06445 9.13086 5.83008 9.13086C5.58594 9.13086 5.38086 9.29688 5.38086 9.57031C5.38086 9.64844 5.40039 9.73633 5.42969 9.83398C5.73242 10.8398 6.88477 11.2695 7.88086 11.2695ZM7.87109 12.1777C8.02734 12.1777 8.1543 12.0508 8.1543 11.8945L8.1543 3.75C8.1543 3.60352 8.02734 3.47656 7.87109 3.47656C7.72461 3.47656 7.59766 3.60352 7.59766 3.75L7.59766 11.8945C7.59766 12.0508 7.72461 12.1777 7.87109 12.1777Z" fill="white" fill-opacity="0.85"/>
 </g>
</svg>
