<svg version="1.1" xmlns="http://www.w3.org/2000/svg" xmlns:xlink="http://www.w3.org/1999/xlink" width="19.4531" height="16.4355" viewBox="0 0 19.4531 16.4355">
 <g>
  <rect height="16.4355" opacity="0" width="19.4531" x="0" y="0"/>
  <path d="M0.703125 16.4258C1.09375 16.4258 1.40625 16.1035 1.40625 15.7227L1.40625 1.81641C1.40625 1.57227 1.5625 1.40625 1.79688 1.40625L17.2949 1.40625C17.5293 1.40625 17.6855 1.57227 17.6855 1.81641L17.6855 15.7227C17.6855 16.1035 18.0078 16.4258 18.3887 16.4258C18.7793 16.4258 19.0918 16.1035 19.0918 15.7227L19.0918 1.73828C19.0918 0.703125 18.3887 0 17.3145 0L1.77734 0C0.712891 0 0 0.703125 0 1.73828L0 15.7227C0 16.1035 0.322266 16.4258 0.703125 16.4258Z" fill="var(--color-secondary)"/>
  <path d="M2.36328 15.791C2.36328 15.9473 2.5 16.1133 2.65625 16.084L7.41211 15.0879C7.56836 15.0586 7.70508 14.9512 7.70508 14.7852L7.70508 3.34961C7.70508 3.18359 7.56836 3.07617 7.41211 3.04688L2.65625 2.05078C2.5 2.02148 2.36328 2.17773 2.36328 2.34375ZM6.35742 11.4551C6.46484 11.4453 6.54297 11.5137 6.54297 11.6406L6.54297 14.0039C6.54297 14.1309 6.46484 14.1895 6.36719 14.209L3.71094 14.707C3.60352 14.7266 3.52539 14.668 3.52539 14.541L3.52539 11.8555C3.52539 11.7285 3.60352 11.6602 3.71094 11.6504ZM3.52539 10.5078L3.52539 7.61719C3.52539 7.5 3.60352 7.43164 3.71094 7.44141L6.35742 7.58789C6.46484 7.59766 6.54297 7.66602 6.54297 7.7832L6.54297 10.3418C6.54297 10.4688 6.46484 10.5371 6.35742 10.5469L3.71094 10.6934C3.60352 10.7031 3.52539 10.6348 3.52539 10.5078ZM6.35742 6.66992L3.71094 6.47461C3.60352 6.46484 3.52539 6.41602 3.52539 6.29883L3.52539 3.58398C3.52539 3.45703 3.60352 3.4082 3.71094 3.41797L6.35742 3.91602C6.46484 3.93555 6.54297 3.99414 6.54297 4.12109L6.54297 6.47461C6.54297 6.5918 6.46484 6.67969 6.35742 6.66992ZM16.7285 15.791L16.7285 2.34375C16.7285 2.17773 16.5918 2.02148 16.4355 2.05078L11.6797 3.04688C11.5234 3.07617 11.3867 3.18359 11.3867 3.34961L11.3867 14.7852C11.3867 14.9512 11.5234 15.0586 11.6895 15.0879L16.4355 16.084C16.5918 16.1133 16.7285 15.9473 16.7285 15.791ZM12.7344 11.4551L15.3809 11.6504C15.4883 11.6602 15.5664 11.7285 15.5664 11.8555L15.5664 14.541C15.5664 14.668 15.4883 14.7266 15.3809 14.707L12.7344 14.209C12.627 14.1895 12.5488 14.1309 12.5488 14.0039L12.5488 11.6406C12.5488 11.5137 12.627 11.4453 12.7344 11.4551ZM15.5664 10.5078C15.5664 10.6348 15.4883 10.7031 15.3809 10.6934L12.7344 10.5469C12.627 10.5371 12.5488 10.4688 12.5488 10.3418L12.5488 7.7832C12.5488 7.66602 12.627 7.59766 12.7344 7.58789L15.3809 7.44141C15.4883 7.43164 15.5664 7.5 15.5664 7.61719ZM12.7344 6.66992C12.627 6.67969 12.5488 6.5918 12.5488 6.47461L12.5488 4.12109C12.5488 3.99414 12.627 3.93555 12.7344 3.91602L15.3809 3.41797C15.4883 3.4082 15.5664 3.45703 15.5664 3.58398L15.5664 6.29883C15.5664 6.41602 15.4883 6.46484 15.3809 6.47461Z" fill="var(--color-primary)"/>
 </g>
</svg>
