<?xml version="1.0" encoding="UTF-8"?>
<!--Generator: Apple Native CoreSVG 326-->
<!DOCTYPE svg
PUBLIC "-//W3C//DTD SVG 1.1//EN"
       "http://www.w3.org/Graphics/SVG/1.1/DTD/svg11.dtd">
<svg version="1.1" xmlns="http://www.w3.org/2000/svg" xmlns:xlink="http://www.w3.org/1999/xlink" viewBox="0 0 11.1426 15.6934">
 <g>
  <rect height="15.6934" opacity="0" width="11.1426" x="0" y="0"/>
  <path d="M5.39062 15.6641C8.62305 15.6641 10.7812 13.5547 10.7812 10.4004C10.7812 8.79883 10.1562 7.25586 9.76562 6.35742C8.94531 4.48242 7.62695 2.41211 6.50391 0.693359C6.21094 0.253906 5.86914 0 5.39062 0C4.90234 0 4.57031 0.253906 4.28711 0.693359C3.16406 2.41211 1.83594 4.48242 1.01562 6.35742C0.625 7.25586 0 8.79883 0 10.4004C0 13.5547 2.1582 15.6641 5.39062 15.6641ZM5.39062 14.2383C3.00781 14.2383 1.42578 12.7051 1.42578 10.4004C1.42578 9.11133 1.91406 7.92969 2.28516 7.04102C3.16406 4.9707 4.29688 3.34961 5.36133 1.75781C5.38086 1.71875 5.41016 1.71875 5.42969 1.75781C6.48438 3.34961 7.63672 4.9707 8.48633 7.04102C8.85742 7.92969 9.35547 9.11133 9.35547 10.4004C9.35547 12.7051 7.77344 14.2383 5.39062 14.2383Z" fill="white" fill-opacity="0.85"/>
 </g>
</svg>
