<?xml version="1.0" encoding="UTF-8"?>
<!--Generator: Apple Native CoreSVG 326-->
<!DOCTYPE svg
PUBLIC "-//W3C//DTD SVG 1.1//EN"
       "http://www.w3.org/Graphics/SVG/1.1/DTD/svg11.dtd">
<svg version="1.1" xmlns="http://www.w3.org/2000/svg" xmlns:xlink="http://www.w3.org/1999/xlink" viewBox="0 0 14.5898 14.248">
 <g>
  <rect height="14.248" opacity="0" width="14.5898" x="0" y="0"/>
  <path d="M14.2285 2.4707L14.2285 11.7871C14.2285 13.4277 13.4082 14.248 11.7383 14.248L2.49023 14.248C0.830078 14.248 0 13.4277 0 11.7871L0 2.4707C0 0.830078 0.830078 0.00976562 2.49023 0.00976562L11.7383 0.00976562C13.4082 0.00976562 14.2285 0.830078 14.2285 2.4707ZM5.3125 3.38867C4.84375 3.38867 4.59961 3.7207 4.59961 4.20898L4.59961 9.85352C4.59961 10.3418 4.84375 10.6738 5.3125 10.6738L9.04297 10.6738C9.38477 10.6738 9.63867 10.4492 9.63867 10.0879C9.63867 9.7168 9.38477 9.50195 9.04297 9.50195L6.04492 9.50195L6.04492 7.53906L8.82812 7.53906C9.16992 7.53906 9.42383 7.35352 9.42383 6.99219C9.42383 6.62109 9.16992 6.42578 8.82812 6.42578L6.04492 6.42578L6.04492 4.56055L9.04297 4.56055C9.38477 4.56055 9.63867 4.32617 9.63867 3.97461C9.63867 3.59375 9.38477 3.38867 9.04297 3.38867Z" fill="white" fill-opacity="0.85"/>
 </g>
</svg>
