<svg version="1.1" xmlns="http://www.w3.org/2000/svg" xmlns:xlink="http://www.w3.org/1999/xlink" viewBox="0 0 17.7734 16.5527">
 <g>
  <rect height="16.5527" opacity="0" width="17.7734" x="0" y="0"/>
  <path d="M9.6875 0.283203L16.2109 4.04297C16.5234 4.23828 16.6797 4.46289 16.6797 4.72656C16.6797 5.07812 16.3965 5.42969 15.918 5.42969L15.2637 5.42969L15.2637 13.9941L15.752 13.9941C16.1133 13.9941 16.3184 14.1992 16.3184 14.5508L16.3184 15.127L16.709 15.127C17.0898 15.127 17.4121 15.4492 17.4121 15.8301C17.4121 16.2207 17.0898 16.543 16.709 16.543L0.703125 16.543C0.322266 16.543 0 16.2207 0 15.8301C0 15.4492 0.322266 15.127 0.703125 15.127L1.10352 15.127L1.10352 14.5508C1.10352 14.1992 1.30859 13.9941 1.66992 13.9941L2.1582 13.9941L2.1582 5.42969L1.49414 5.42969C1.01562 5.42969 0.732422 5.07812 0.732422 4.72656C0.732422 4.46289 0.878906 4.23828 1.20117 4.04297L7.72461 0.283203C8.03711 0.0976562 8.37891 0 8.71094 0C9.0332 0 9.375 0.0976562 9.6875 0.283203ZM5.55664 5.92773C5.26367 5.92773 5.10742 6.09375 5.10742 6.38672L5.10742 11.1523C5.10742 11.4551 5.25391 11.6309 5.55664 11.6309L7.77344 11.6309C8.03711 11.6309 8.18359 11.4844 8.18359 11.2402C8.18359 10.9961 8.03711 10.8496 7.77344 10.8496L6.01562 10.8496L6.01562 9.0918L7.70508 9.0918C7.92969 9.0918 8.07617 8.94531 8.07617 8.7207C8.07617 8.49609 7.92969 8.34961 7.70508 8.34961L6.01562 8.34961L6.01562 6.69922L7.77344 6.69922C8.03711 6.69922 8.18359 6.55273 8.18359 6.30859C8.18359 6.05469 8.03711 5.92773 7.77344 5.92773ZM9.41406 5.92773C9.17969 5.92773 9.00391 6.06445 9.00391 6.30859C9.00391 6.54297 9.17969 6.69922 9.41406 6.69922L11.4453 6.69922L11.4453 6.72852L9.11133 10.8105C9.04297 10.9277 8.99414 11.0547 8.99414 11.1914C8.99414 11.4844 9.20898 11.6309 9.45312 11.6309L12.1875 11.6309C12.4219 11.6309 12.5586 11.4746 12.5586 11.2402C12.5586 11.0059 12.4219 10.8496 12.1875 10.8496L10.0391 10.8496L10.0391 10.8105L12.3438 6.74805C12.4219 6.63086 12.4805 6.51367 12.4805 6.36719C12.4805 6.13281 12.334 5.92773 12.0117 5.92773Z" fill="var(--color-primary)"/>
 </g>
</svg>
