<?xml version="1.0" encoding="UTF-8"?>
<!--Generator: Apple Native CoreSVG 326-->
<!DOCTYPE svg
PUBLIC "-//W3C//DTD SVG 1.1//EN"
       "http://www.w3.org/Graphics/SVG/1.1/DTD/svg11.dtd">
<svg version="1.1" xmlns="http://www.w3.org/2000/svg" xmlns:xlink="http://www.w3.org/1999/xlink" viewBox="0 0 16.1328 15.7715">
 <g>
  <rect height="15.7715" opacity="0" width="16.1328" x="0" y="0"/>
  <path d="M15.7715 7.88086C15.7715 12.2266 12.2363 15.7617 7.88086 15.7617C3.53516 15.7617 0 12.2266 0 7.88086C0 3.53516 3.53516 0 7.88086 0C12.2363 0 15.7715 3.53516 15.7715 7.88086ZM6.10352 11.7969C6.10352 12.7832 6.89453 13.5742 7.87109 13.5742C8.85742 13.5742 9.64844 12.7832 9.64844 11.7969C9.64844 10.8203 8.85742 10.0195 7.87109 10.0195C6.89453 10.0195 6.10352 10.8203 6.10352 11.7969ZM2.62695 9.80469C2.62695 10.498 3.20312 11.0742 3.89648 11.0742C4.59961 11.0742 5.16602 10.498 5.16602 9.80469C5.16602 9.10156 4.59961 8.53516 3.89648 8.53516C3.20312 8.53516 2.62695 9.10156 2.62695 9.80469ZM10.5859 9.80469C10.5859 10.498 11.1523 11.0742 11.8555 11.0742C12.5488 11.0742 13.125 10.498 13.125 9.80469C13.125 9.10156 12.5488 8.53516 11.8555 8.53516C11.1523 8.53516 10.5859 9.10156 10.5859 9.80469ZM3.30078 5.44922C3.30078 6.43555 4.0918 7.22656 5.07812 7.22656C6.06445 7.22656 6.85547 6.43555 6.85547 5.44922C6.85547 4.47266 6.06445 3.67188 5.07812 3.67188C4.0918 3.67188 3.30078 4.47266 3.30078 5.44922ZM8.89648 5.44922C8.89648 6.43555 9.6875 7.22656 10.6738 7.22656C11.6504 7.22656 12.4414 6.43555 12.4414 5.44922C12.4414 4.47266 11.6504 3.67188 10.6738 3.67188C9.6875 3.67188 8.89648 4.47266 8.89648 5.44922Z" fill="white" fill-opacity="0.85"/>
 </g>
</svg>
