<svg version="1.1" xmlns="http://www.w3.org/2000/svg" xmlns:xlink="http://www.w3.org/1999/xlink" width="10.8398" height="15.498" viewBox="0 0 10.8398 15.498">
 <g>
  <rect height="15.498" opacity="0" width="10.8398" x="0" y="0"/>
  <path d="M1.77734 15.0977L8.70117 15.0977C9.88281 15.0977 10.4785 14.4922 10.4785 13.2129L10.4785 8.06641C10.4785 6.79688 9.88281 6.19141 8.70117 6.19141L1.77734 6.19141C0.595703 6.19141 0 6.79688 0 8.06641L0 13.2129C0 14.4922 0.595703 15.0977 1.77734 15.0977ZM1.32812 6.86523L2.70508 6.86523L2.70508 4.13086C2.70508 2.23633 3.92578 1.30859 5.23438 1.30859C6.55273 1.30859 7.7832 2.23633 7.7832 4.13086L7.7832 6.86523L9.16016 6.86523L9.16016 4.32617C9.16016 1.33789 7.19727 0 5.23438 0C3.28125 0 1.32812 1.33789 1.32812 4.32617Z" fill="var(--color-tertiary)"/>
  <path d="M5.23438 11.416C4.91211 11.416 4.72656 11.2305 4.7168 10.8984L4.63867 8.48633C4.62891 8.1543 4.88281 7.91016 5.23438 7.91016C5.57617 7.91016 5.84961 8.16406 5.83984 8.49609L5.75195 10.8984C5.74219 11.2305 5.55664 11.416 5.23438 11.416ZM5.22461 13.2324C4.87305 13.2324 4.56055 12.9395 4.56055 12.5781C4.56055 12.207 4.86328 11.9141 5.22461 11.9141C5.60547 11.9141 5.91797 12.1973 5.91797 12.5781C5.91797 12.9395 5.60547 13.2324 5.22461 13.2324Z" fill="var(--color-primary)"/>
 </g>
</svg>
