<?xml version="1.0" encoding="UTF-8"?>
<!--Generator: Apple Native CoreSVG 326-->
<!DOCTYPE svg
PUBLIC "-//W3C//DTD SVG 1.1//EN"
       "http://www.w3.org/Graphics/SVG/1.1/DTD/svg11.dtd">
<svg version="1.1" xmlns="http://www.w3.org/2000/svg" xmlns:xlink="http://www.w3.org/1999/xlink" viewBox="0 0 13.0957 14.7559">
 <g>
  <rect height="14.7559" opacity="0" width="13.0957" x="0" y="0"/>
  <path d="M8.11523 10.4785C8.73047 10.4785 9.01367 10.0586 9.01367 9.49219C9.01367 9.44336 9.01367 9.4043 9.01367 9.35547C9.0332 8.38867 9.39453 7.99805 10.5859 7.19727C11.8457 6.34766 12.7344 5.29297 12.7344 3.7793C12.7344 1.40625 10.8105 0.126953 8.44727 0.126953C6.72852 0.126953 5.18555 0.878906 4.48242 2.35352C4.30664 2.70508 4.23828 3.08594 4.23828 3.4082C4.23828 3.90625 4.52148 4.25781 5.06836 4.25781C5.50781 4.25781 5.82031 3.99414 5.94727 3.57422C6.38672 2.1875 7.26562 1.77734 8.37891 1.77734C9.80469 1.77734 10.9082 2.5293 10.9082 3.76953C10.9082 4.87305 10.2051 5.41992 9.31641 6.03516C8.16406 6.82617 7.1875 7.75391 7.1875 9.12109C7.1875 9.25781 7.1875 9.38477 7.1875 9.51172C7.1875 10.0879 7.5 10.4785 8.11523 10.4785ZM8.10547 14.7559C8.78906 14.7559 9.32617 14.1992 9.32617 13.5352C9.32617 12.8516 8.78906 12.3145 8.10547 12.3145C7.43164 12.3145 6.88477 12.8516 6.88477 13.5352C6.88477 14.1992 7.43164 14.7559 8.10547 14.7559Z" fill="white" fill-opacity="0.85"/>
  <path d="M1.23047 10.4688C1.68945 10.4688 2.00195 10.1758 2.01172 9.69727L2.09961 1.00586C2.09961 1.00586 2.09961 1.00586 2.09961 1.00586C2.09961 0.498047 1.68945 0.15625 1.2207 0.15625C0.751953 0.15625 0.341797 0.498047 0.341797 1.00586C0.341797 1.00586 0.341797 1.00586 0.341797 1.00586L0.439453 9.69727C0.449219 10.1758 0.771484 10.4688 1.23047 10.4688ZM1.2207 14.7559C1.89453 14.7559 2.43164 14.1992 2.43164 13.5352C2.43164 12.8516 1.89453 12.3145 1.2207 12.3145C0.546875 12.3145 0 12.8516 0 13.5352C0 14.1992 0.546875 14.7559 1.2207 14.7559Z" fill="white" fill-opacity="0.85"/>
 </g>
</svg>
