<svg version="1.1" xmlns="http://www.w3.org/2000/svg" xmlns:xlink="http://www.w3.org/1999/xlink" width="16.4746" height="14.6191" viewBox="0 0 16.4746 14.6191">
 <g>
  <rect height="14.6191" opacity="0" width="16.4746" x="0" y="0"/>
  <path d="M2.1875 14.5801L13.9258 14.5801C15.2832 14.5801 16.1133 13.6328 16.1133 12.3926C16.1133 12.0312 16.0059 11.6504 15.8105 11.3086L9.93164 1.10352C9.51172 0.380859 8.79883 0 8.05664 0C7.31445 0 6.5918 0.380859 6.18164 1.10352L0.302734 11.3086C0.0976562 11.6602 0 12.0312 0 12.3926C0 13.6328 0.830078 14.5801 2.1875 14.5801Z" fill="var(--color-tertiary)"/>
  <path d="M8.05664 9.43359C7.60742 9.43359 7.35352 9.17969 7.34375 8.73047L7.23633 4.57031C7.22656 4.11133 7.56836 3.78906 8.04688 3.78906C8.51562 3.78906 8.87695 4.12109 8.86719 4.58008L8.74023 8.73047C8.73047 9.18945 8.48633 9.43359 8.05664 9.43359ZM8.05664 12.0801C7.55859 12.0801 7.11914 11.6895 7.11914 11.1914C7.11914 10.6934 7.54883 10.293 8.05664 10.293C8.55469 10.293 8.98438 10.6934 8.98438 11.1914C8.98438 11.6992 8.55469 12.0801 8.05664 12.0801Z" fill="var(--color-primary)"/>
 </g>
</svg>
