<svg version="1.1" xmlns="http://www.w3.org/2000/svg" xmlns:xlink="http://www.w3.org/1999/xlink" width="16.1328" height="15.7715" viewBox="0 0 16.1328 15.7715">
 <g>
  <rect height="15.7715" opacity="0" width="16.1328" x="0" y="0"/>
  <path d="M15.7715 7.88086C15.7715 12.1875 12.1875 15.7617 7.88086 15.7617C3.58398 15.7617 0 12.1875 0 7.88086C0 3.57422 3.57422 0 7.87109 0C12.1777 0 15.7715 3.57422 15.7715 7.88086ZM1.50391 7.88086C1.50391 11.4355 4.33594 14.2773 7.88086 14.2773C11.4355 14.2773 14.2773 11.4355 14.2773 7.88086C14.2773 4.32617 11.4258 1.48438 7.87109 1.48438C4.32617 1.48438 1.50391 4.32617 1.50391 7.88086Z" fill="var(--color-secondary)"/>
  <path d="M5.88692 7.22838C5.81784 7.43519 5.78125 7.6579 5.78125 7.89062C5.78125 9.02344 6.70898 9.98047 7.87109 9.98047C8.10409 9.98047 8.32767 9.942 8.5355 9.86983L9.50979 10.8415C9.00507 10.9939 8.45582 11.084 7.87109 11.084C4.87305 11.084 2.74414 8.65234 2.74414 7.89062C2.74414 7.47267 3.38509 6.55195 4.46181 5.80711ZM12.9883 7.89062C12.9883 8.30627 12.3689 9.21915 11.3093 9.96162L9.86341 8.51576C9.92699 8.31761 9.96094 8.10733 9.96094 7.89062C9.96094 6.71875 9.0332 5.80078 7.87109 5.80078C7.65158 5.80078 7.44043 5.83353 7.24242 5.89476L6.27696 4.9293C6.77169 4.78367 7.30595 4.69727 7.87109 4.69727C10.8984 4.69727 12.9883 7.12891 12.9883 7.89062Z" fill="var(--color-primary)"/>
  <path d="M11.2402 11.7676C11.3867 11.9141 11.6309 11.9141 11.7773 11.7676C11.9238 11.6113 11.9238 11.3867 11.7773 11.2305L4.53125 3.99414C4.38477 3.83789 4.14062 3.83789 3.99414 3.99414C3.84766 4.14062 3.84766 4.38477 3.99414 4.53125Z" fill="var(--color-primary)"/>
 </g>
</svg>
