<svg version="1.1" xmlns="http://www.w3.org/2000/svg" xmlns:xlink="http://www.w3.org/1999/xlink" viewBox="0 0 16.3672 19.2676">
 <g>
  <rect height="19.2676" opacity="0" width="16.3672" x="0" y="0"/>
  <path d="M8.00781 19.2676C12.5195 19.2676 16.0059 18.291 16.0059 16.582C16.0059 15.4883 14.5703 14.6875 12.3438 14.2578L11.582 15.4395C13.5254 15.7129 14.6973 16.1719 14.6973 16.582C14.6973 17.2168 11.9922 17.9492 8.00781 17.9492C4.01367 17.9492 1.31836 17.2168 1.31836 16.582C1.31836 16.1719 2.49023 15.7129 4.42383 15.4395L3.66211 14.2578C1.43555 14.6875 0 15.4883 0 16.582C0 18.291 3.48633 19.2676 8.00781 19.2676ZM3.02734 14.0039L3.81836 15.8691C3.95508 16.1719 4.30664 16.2305 4.55078 15.8789L5.53711 14.4629C5.75195 14.1602 5.66406 13.7891 5.26367 13.7207L3.52539 13.4082C3.10547 13.3301 2.90039 13.7012 3.02734 14.0039ZM12.9785 14.0039C13.1152 13.7012 12.9102 13.3301 12.4805 13.4082L10.7422 13.7207C10.3418 13.7891 10.2539 14.1602 10.4688 14.4629L11.4551 15.8789C11.6992 16.2305 12.0605 16.1719 12.1875 15.8691Z" fill="var(--color-primary)"/>
  <path d="M1.73828 8.33008C1.73828 10.2246 3.45703 12.2266 5.11719 12.2266C6.57227 12.2266 7.40234 10.9863 8.16406 8.87695C8.21289 8.87695 8.24219 8.87695 8.28125 8.87695L8.28125 10.752C8.28125 11.9238 8.91602 12.5684 10.0391 12.5684C11.9434 12.5684 13.9453 10.8496 13.9453 9.18945C13.9453 7.82227 12.8516 6.89453 10.5957 6.14258C10.5957 6.10352 10.5957 6.06445 10.5859 6.02539L12.4609 6.02539C13.6328 6.02539 14.2871 5.39062 14.2871 4.26758C14.2871 2.36328 12.5586 0.361328 10.8887 0.361328C9.47266 0.361328 8.63281 1.69922 7.85156 3.70117C7.80273 3.70117 7.77344 3.70117 7.73438 3.71094L7.73438 1.83594C7.73438 0.664062 7.10938 0.0195312 5.9668 0.0195312C4.08203 0.0292969 2.08008 1.73828 2.08008 3.4082C2.08008 4.85352 3.32031 5.69336 5.40039 6.44531C5.40039 6.48438 5.40039 6.52344 5.40039 6.5625L3.55469 6.5625C2.38281 6.5625 1.73828 7.19727 1.73828 8.33008ZM8.00781 7.45117C7.36328 7.45117 6.8457 6.93359 6.8457 6.28906C6.8457 5.64453 7.36328 5.12695 8.00781 5.12695C8.64258 5.12695 9.16992 5.64453 9.16992 6.28906C9.16992 6.93359 8.64258 7.45117 8.00781 7.45117Z" fill="var(--color-primary)"/>
 </g>
</svg>
