<?xml version="1.0" encoding="UTF-8"?>
<!--Generator: Apple Native CoreSVG 326-->
<!DOCTYPE svg
PUBLIC "-//W3C//DTD SVG 1.1//EN"
       "http://www.w3.org/Graphics/SVG/1.1/DTD/svg11.dtd">
<svg version="1.1" xmlns="http://www.w3.org/2000/svg" xmlns:xlink="http://www.w3.org/1999/xlink" viewBox="0 0 19.5703 14.7168">
 <g>
  <rect height="14.7168" opacity="0" width="19.5703" x="0" y="0"/>
  <path d="M0 0.703125C0 1.08398 0.322266 1.40625 0.703125 1.40625L18.5059 1.40625C18.8965 1.40625 19.209 1.08398 19.209 0.703125C19.209 0.3125 18.8965 0 18.5059 0L0.703125 0C0.322266 0 0 0.3125 0 0.703125ZM2.32422 8.07617L13.1836 8.07617L13.1836 10.6836C13.1836 11.2988 13.9453 11.6016 14.4043 11.1426L17.4512 8.03711C17.9492 7.5293 17.7832 6.64062 16.8945 6.64062L6.03516 6.64062L6.03516 4.0332C6.03516 3.41797 5.27344 3.11523 4.82422 3.57422L1.76758 6.67969C1.26953 7.1875 1.43555 8.07617 2.32422 8.07617ZM0 14.0137C0 14.3945 0.322266 14.7168 0.703125 14.7168L18.5059 14.7168C18.8965 14.7168 19.209 14.3945 19.209 14.0137C19.209 13.6328 18.8965 13.3105 18.5059 13.3105L0.703125 13.3105C0.322266 13.3105 0 13.6328 0 14.0137Z" fill="white" fill-opacity="0.85"/>
 </g>
</svg>
