<?xml version="1.0" encoding="UTF-8"?>
<!--Generator: Apple Native CoreSVG 326-->
<!DOCTYPE svg
PUBLIC "-//W3C//DTD SVG 1.1//EN"
       "http://www.w3.org/Graphics/SVG/1.1/DTD/svg11.dtd">
<svg version="1.1" xmlns="http://www.w3.org/2000/svg" xmlns:xlink="http://www.w3.org/1999/xlink" viewBox="0 0 23.8009 18.2715">
 <g>
  <rect height="18.2715" opacity="0" width="23.8009" x="0" y="0"/>
  <path d="M21.0948 5.82031L23.1456 8.86719C23.2237 8.97461 23.3018 9.0918 23.3604 9.19922C23.5264 9.49219 23.4385 9.92188 23.0284 10.1465C22.7159 10.3223 22.3546 10.2734 22.1202 10.0098C21.9053 9.76562 20.8702 8.28125 20.2549 7.42188C20.1866 7.31445 20.0401 7.36328 20.0401 7.49023C20.0401 8.38867 20.0694 10.0195 20.2061 10.8398C20.3624 11.8164 21.4854 16.5332 21.544 16.7383C21.6905 17.2266 21.378 17.6855 20.8799 17.6855C20.5089 17.6855 20.2549 17.4902 20.1182 16.9922C19.8546 16.0449 19.0831 12.7832 18.8096 12.002C18.6241 11.4453 18.5069 11.2305 18.1944 11.2305C17.8819 11.2305 17.7647 11.4453 17.5792 12.002C17.3057 12.7832 16.5342 16.0449 16.2706 16.9922C16.1339 17.4902 15.8799 17.6855 15.5089 17.6855C15.0108 17.6855 14.6983 17.2266 14.8448 16.7383C14.9034 16.5332 16.0264 11.8164 16.1827 10.8398C16.3194 10.0195 16.3487 8.39844 16.3487 7.5C16.3487 7.36328 16.2022 7.32422 16.1339 7.42188C15.8857 7.77239 15.5693 8.22137 15.2662 8.64801C15.2207 8.41501 15.1062 8.19311 14.9327 8.00781C14.7034 7.75464 14.3923 7.62765 14.0829 7.61965L15.294 5.82031C15.8897 4.94141 16.6319 4.46289 18.1944 4.46289C19.7569 4.46289 20.4991 4.94141 21.0948 5.82031ZM19.8936 1.98242C19.8936 2.92969 19.1319 3.68164 18.1944 3.68164C17.2569 3.68164 16.4952 2.92969 16.4952 1.98242C16.4952 1.04492 17.2569 0.292969 18.1944 0.292969C19.1319 0.292969 19.8936 1.04492 19.8936 1.98242Z" fill="white" fill-opacity="0.85"/>
  <path d="M8.14557 5.82031L9.35652 7.61944C9.04477 7.62667 8.73228 7.75367 8.5069 8.00781C8.33425 8.19224 8.21993 8.41293 8.17337 8.64474C7.87071 8.21731 7.55402 7.7687 7.30573 7.42188C7.22761 7.31445 7.09089 7.36328 7.09089 7.49023C7.09089 8.38867 7.12018 10.0195 7.2569 10.8398C7.41315 11.8164 8.5362 16.5332 8.59479 16.7383C8.74128 17.2266 8.42878 17.6855 7.92096 17.6855C7.55964 17.6855 7.30573 17.4902 7.16901 16.9922C6.90534 16.0449 6.12409 12.7832 5.86042 12.002C5.67487 11.4453 5.55768 11.2305 5.24518 11.2305C4.93268 11.2305 4.8155 11.4453 4.62995 12.002C4.35651 12.7832 3.57526 16.0449 3.31159 16.9922C3.18464 17.4902 2.93073 17.6855 2.55964 17.6855C2.06159 17.6855 1.74909 17.2266 1.89557 16.7383C1.95417 16.5332 3.06745 11.8164 3.23346 10.8398C3.37018 10.0195 3.39948 8.39844 3.39948 7.5C3.39948 7.36328 3.24323 7.32422 3.17487 7.42188C2.5694 8.29102 1.53425 9.76562 1.3194 10.0098C1.08503 10.2734 0.713934 10.3223 0.411199 10.1465C0.00104303 9.92188-0.0868476 9.49219 0.079168 9.19922C0.137762 9.0918 0.215887 8.97461 0.284246 8.86719L2.34479 5.82031C2.9405 4.94141 3.67292 4.46289 5.24518 4.46289C6.80768 4.46289 7.54011 4.94141 8.14557 5.82031ZM6.93464 1.98242C6.93464 2.92969 6.18268 3.68164 5.24518 3.68164C4.30768 3.68164 3.54596 2.92969 3.54596 1.98242C3.54596 1.04492 4.30768 0.292969 5.24518 0.292969C6.18268 0.292969 6.93464 1.04492 6.93464 1.98242Z" fill="white" fill-opacity="0.85"/>
  <path d="M11.7198 9.0332C12.4034 9.0332 12.9796 8.4668 12.9796 7.77344C12.9796 7.08984 12.4034 6.52344 11.7198 6.52344C11.0264 6.52344 10.4698 7.08984 10.4698 7.77344C10.4698 8.4668 11.0264 9.0332 11.7198 9.0332ZM10.0694 17.6855C10.3721 17.6855 10.6163 17.5098 10.7139 17.1191C10.8799 16.543 11.3585 14.5312 11.5147 14.043C11.6221 13.7207 11.6417 13.7012 11.7198 13.7012C11.7979 13.7012 11.8174 13.7207 11.9249 14.043C12.0811 14.5312 12.5596 16.543 12.7257 17.1191C12.8233 17.5098 13.0674 17.6855 13.3702 17.6855C13.8194 17.6855 14.0733 17.2656 13.9659 16.8652C13.9268 16.7285 13.253 13.8379 13.1456 13.2324C13.0674 12.7539 13.0479 11.7773 13.0479 11.3867C13.0479 11.1621 13.1163 11.0156 13.2432 10.8691C13.8096 10.166 14.5128 9.36523 14.6007 9.22852C14.7862 8.96484 14.7178 8.63281 14.503 8.4082C14.2589 8.13477 13.8487 8.14453 13.6339 8.36914L12.8135 9.24805C12.4717 9.61914 12.1885 9.78516 11.7198 9.78516C11.251 9.78516 10.9678 9.61914 10.626 9.24805L9.80573 8.36914C9.59089 8.14453 9.17096 8.13477 8.93659 8.4082C8.72175 8.63281 8.65339 8.96484 8.83893 9.22852C8.92682 9.36523 9.62995 10.166 10.1964 10.8691C10.3233 11.0156 10.3917 11.1621 10.3917 11.3867C10.3917 11.7773 10.3721 12.7539 10.294 13.2324C10.1866 13.8379 9.503 16.7285 9.46393 16.8652C9.35651 17.2656 9.62018 17.6855 10.0694 17.6855Z" fill="white" fill-opacity="0.85"/>
 </g>
</svg>
