<?xml version="1.0" encoding="UTF-8"?>
<!--Generator: Apple Native CoreSVG 326-->
<!DOCTYPE svg
PUBLIC "-//W3C//DTD SVG 1.1//EN"
       "http://www.w3.org/Graphics/SVG/1.1/DTD/svg11.dtd">
<svg version="1.1" xmlns="http://www.w3.org/2000/svg" xmlns:xlink="http://www.w3.org/1999/xlink" viewBox="0 0 16.3574 20.5176">
 <g>
  <rect height="20.5176" opacity="0" width="16.3574" x="0" y="0"/>
  <path d="M11.6088 2.29492L4.38726 2.29492C4.41186 1.58556 4.83789 1.19141 5.56641 1.19141L10.4297 1.19141C11.1582 1.19141 11.5842 1.58556 11.6088 2.29492Z" fill="white" fill-opacity="0.85"/>
  <path d="M13.2094 4.5969C12.9335 4.54621 12.6375 4.52148 12.3242 4.52148L3.68164 4.52148C3.36434 4.52148 3.06507 4.54642 2.78661 4.5976C2.87088 3.75876 3.42366 3.29102 4.3457 3.29102L11.6504 3.29102C12.5722 3.29102 13.1249 3.75849 13.2094 4.5969Z" fill="white" fill-opacity="0.85"/>
  <path d="M14.8145 8.16406L14.8145 16.875C14.8145 18.5156 13.9844 19.3359 12.3242 19.3359L3.68164 19.3359C2.01172 19.3359 1.19141 18.5156 1.19141 16.875L1.19141 8.16406C1.19141 6.52344 2.01172 5.71289 3.68164 5.71289L12.3242 5.71289C13.9844 5.71289 14.8145 6.52344 14.8145 8.16406ZM6.26953 15.0977L4.78516 16.5527C4.55078 16.7871 4.60938 17.0703 4.78516 17.2363C4.95117 17.3633 5.19531 17.3926 5.41992 17.168L6.83594 15.7617C6.96289 15.6348 6.99219 15.6152 7.06055 15.4199L7.67578 13.8867L7.51953 13.7988C7.19727 13.6133 6.95312 13.457 6.79688 13.2422ZM7.8125 9.90234L6.26953 10.0098C6.03516 10.0293 5.85938 10.1855 5.83008 10.4395L5.61523 12.002C5.57617 12.2754 5.72266 12.4707 5.9668 12.5C6.20117 12.5195 6.35742 12.373 6.40625 12.0996L6.58203 10.8203L7.20703 10.7812C7.33398 10.7715 7.4707 10.8594 7.42188 11.0254L7.06055 12.2852C6.85547 13.0371 7.33398 13.2422 7.71484 13.457L9.375 14.3848L8.30078 15.3125C8.06641 15.5078 8.07617 15.7715 8.22266 15.918C8.35938 16.084 8.62305 16.1328 8.86719 15.918L10.3809 14.6289C10.5957 14.4629 10.5566 14.082 10.3125 13.916L8.66211 12.8418L8.99414 11.709C9.0332 11.5527 9.21875 11.5332 9.30664 11.6699L9.79492 12.373C9.90234 12.5391 10.1172 12.5977 10.3125 12.5195L11.6895 11.9043C11.9336 11.7871 12.0312 11.5625 11.9238 11.3379C11.8164 11.1133 11.6113 11.0449 11.3574 11.1621L10.2637 11.6504L9.51172 10.5957C9.12109 10.0586 8.62305 9.84375 7.8125 9.90234ZM8.26172 8.68164C8.26172 9.19922 8.69141 9.63867 9.21875 9.63867C9.75586 9.63867 10.1758 9.19922 10.1758 8.68164C10.1758 8.1543 9.75586 7.71484 9.21875 7.71484C8.69141 7.71484 8.26172 8.1543 8.26172 8.68164Z" fill="white" fill-opacity="0.85"/>
 </g>
</svg>
