<?xml version="1.0" encoding="UTF-8"?>
<!--Generator: Apple Native CoreSVG 326-->
<!DOCTYPE svg
PUBLIC "-//W3C//DTD SVG 1.1//EN"
       "http://www.w3.org/Graphics/SVG/1.1/DTD/svg11.dtd">
<svg version="1.1" xmlns="http://www.w3.org/2000/svg" xmlns:xlink="http://www.w3.org/1999/xlink" viewBox="0 0 16.1328 15.7715">
 <g>
  <rect height="15.7715" opacity="0" width="16.1328" x="0" y="0"/>
  <path d="M15.7715 7.88086C15.7715 12.2266 12.2363 15.7617 7.88086 15.7617C3.53516 15.7617 0 12.2266 0 7.88086C0 3.53516 3.53516 0 7.88086 0C12.2363 0 15.7715 3.53516 15.7715 7.88086ZM7.87109 11.709C7.25586 11.709 6.97266 11.1328 6.08398 11.1328C5.12695 11.1328 4.86328 11.709 4.29688 11.709L4.10156 11.709C3.95508 11.709 3.83789 11.8262 3.83789 11.9824C3.83789 12.1094 3.95508 12.2266 4.10156 12.2266L4.29688 12.2266C5.22461 12.2266 5.47852 11.6504 6.08398 11.6504C6.68945 11.6504 6.94336 12.2266 7.87109 12.2266C8.80859 12.2266 9.0625 11.6504 9.66797 11.6504C10.2637 11.6504 10.5176 12.2266 11.4551 12.2266L11.6504 12.2266C11.7969 12.2266 11.9141 12.1094 11.9141 11.9824C11.9141 11.8262 11.7969 11.709 11.6504 11.709L11.4551 11.709C10.8789 11.709 10.625 11.1328 9.66797 11.1328C8.7793 11.1328 8.49609 11.709 7.87109 11.709ZM6.39648 5.12695C5.52734 5.12695 4.79492 5.63477 4.59961 6.38672L4.16992 8.00781C3.98438 8.73047 4.43359 9.18945 5.00977 9.18945C5.18555 9.18945 5.37109 9.13086 5.55664 9.04297L7.46094 8.04688L8.38867 7.00195L8.22266 6.9043C8.05664 6.79688 7.8418 6.79688 7.65625 6.88477L5.87891 7.66602L6.23047 6.40625C6.28906 6.18164 6.49414 6.02539 6.71875 6.02539L9.75586 6.02539L5.66406 10.7227C5.88867 10.7031 6.18164 10.6836 6.39648 10.7129L10.5762 5.9082C10.6836 5.78125 10.7227 5.69336 10.7227 5.56641C10.7227 5.30273 10.5371 5.12695 10.2637 5.12695ZM4.0332 10.0684C3.86719 10.0684 3.74023 10.2148 3.74023 10.3613C3.74023 10.5273 3.86719 10.6738 4.0332 10.6738L5.18555 10.6738L5.69336 10.0684ZM7.5 10.0684L6.96289 10.6738L11.7188 10.6738C11.8848 10.6738 12.0117 10.5273 12.0117 10.3613C12.0117 10.2148 11.8848 10.0684 11.7187 10.0684ZM9.02344 8.31055L10.5664 9.0918C10.8887 9.25781 11.1523 9.12109 11.2402 8.92578C11.3477 8.73047 11.2793 8.44727 10.9766 8.29102L9.62891 7.60742ZM5.53711 3.7207C5.53711 4.25781 5.95703 4.6875 6.49414 4.6875C7.02148 4.6875 7.44141 4.25781 7.44141 3.7207C7.44141 3.19336 7.02148 2.76367 6.49414 2.76367C5.95703 2.76367 5.53711 3.19336 5.53711 3.7207Z" fill="white" fill-opacity="0.85"/>
 </g>
</svg>
