<?xml version="1.0" encoding="UTF-8"?>
<!--Generator: Apple Native CoreSVG 326-->
<!DOCTYPE svg
PUBLIC "-//W3C//DTD SVG 1.1//EN"
       "http://www.w3.org/Graphics/SVG/1.1/DTD/svg11.dtd">
<svg version="1.1" xmlns="http://www.w3.org/2000/svg" xmlns:xlink="http://www.w3.org/1999/xlink" viewBox="0 0 24.7253 21.8701">
 <g>
  <rect height="21.8701" opacity="0" width="24.7253" x="0" y="0"/>
  <path d="M3.87632 7.27783C2.71421 7.27783 1.78647 6.30127 1.78647 5.17822C1.78647 4.00635 2.71421 3.04932 3.87632 3.04932C5.04819 3.04932 5.99546 4.00635 5.99546 5.17822C5.99546 6.31104 5.04819 7.27783 3.87632 7.27783ZM16.3861 18.3911C15.9857 18.811 15.3021 18.7817 14.8041 18.2739L11.4544 14.8267C11.347 14.7095 11.2689 14.6802 11.1029 14.7485L8.53452 15.7251C6.84507 16.3599 5.25327 15.8521 4.54038 14.5532L2.82163 11.438C2.1771 10.2466 2.38218 9.02588 3.50522 8.42041C4.60874 7.81494 5.74155 8.27393 6.40561 9.48486L8.58335 13.4595L10.4388 12.7856C11.347 12.4536 12.1185 12.561 12.8509 13.313L16.3177 16.9067C16.806 17.4048 16.7572 18.02 16.3861 18.3911Z" fill="white" fill-opacity="0.85"/>
  <path d="M16.0345 5.67627L18.1439 8.35205C18.2416 8.46924 18.3783 8.49854 18.515 8.42041C19.0326 8.14697 19.7455 7.97119 20.3021 7.97119C20.8685 7.97119 21.5912 8.14697 22.0794 8.42041C22.2259 8.49854 22.3822 8.46924 22.4701 8.35205L24.5794 5.67627C24.8041 5.3833 24.765 5.09033 24.4916 4.86572C23.6517 4.21143 22.0404 3.71338 20.3021 3.71338C18.5736 3.71338 16.9525 4.21143 16.1224 4.86572C15.8392 5.09033 15.8099 5.3833 16.0345 5.67627ZM18.1927 9.88525C17.9486 9.56299 17.8412 9.26025 17.8412 8.94775C17.8412 8.1958 18.4369 8.03955 18.4369 7.60986C18.4369 7.16064 17.8412 7.01416 17.8412 6.24268C17.8412 5.93994 17.9486 5.64697 18.1927 5.32471C18.4759 4.98291 18.9935 5.354 18.7103 5.71533C18.5443 5.95947 18.4955 6.08643 18.4955 6.24268C18.4955 6.77002 19.0814 6.90674 19.0814 7.60986C19.0814 8.29346 18.4955 8.43994 18.4955 8.94775C18.4955 9.1333 18.5443 9.25049 18.7103 9.50439C18.9935 9.85596 18.4759 10.2368 18.1927 9.88525ZM20.0189 9.88525C19.7943 9.56299 19.6869 9.26025 19.6869 8.94775C19.6869 8.1958 20.2728 8.03955 20.2728 7.60986C20.2728 7.16064 19.6869 7.01416 19.6869 6.24268C19.6869 5.93994 19.7943 5.64697 20.0189 5.32471C20.3119 4.98291 20.8392 5.354 20.556 5.71533C20.3802 5.95947 20.3412 6.08643 20.3412 6.24268C20.3412 6.77002 20.9271 6.90674 20.9271 7.60986C20.9271 8.29346 20.3412 8.43994 20.3412 8.94775C20.3412 9.1333 20.3802 9.25049 20.556 9.50439C20.8294 9.85596 20.3119 10.2368 20.0189 9.88525ZM21.8841 9.88525C21.6302 9.56299 21.5326 9.26025 21.5326 8.94775C21.5326 8.1958 22.1185 8.03955 22.1185 7.60986C22.1185 7.16064 21.5326 7.01416 21.5326 6.24268C21.5326 5.93994 21.6302 5.64697 21.8841 5.32471C22.1673 4.98291 22.6751 5.354 22.4017 5.71533C22.2357 5.95947 22.1869 6.08643 22.1869 6.24268C22.1869 6.77002 22.7728 6.90674 22.7728 7.60986C22.7728 8.29346 22.1869 8.43994 22.1869 8.94775C22.1869 9.1333 22.2357 9.25049 22.4017 9.50439C22.6751 9.85596 22.1673 10.2368 21.8841 9.88525ZM14.0912 5.47119C14.3939 5.49072 14.6283 5.23682 14.6283 4.92432L14.638 2.854L15.6537 2.854C16.2005 2.854 16.3861 2.31689 16.0541 1.95557L14.4623 0.197754C14.2279-0.065918 13.9349-0.065918 13.7005 0.197754L12.138 1.95557C11.7767 2.34619 11.9916 2.854 12.5189 2.854L13.5443 2.854L13.5443 4.92432C13.5443 5.23682 13.7787 5.48096 14.0912 5.47119ZM14.1009 6.88721C13.7982 6.89697 13.5443 7.13135 13.5443 7.44385L13.5345 9.50439L12.5189 9.50439C12.0013 9.50439 11.7962 10.022 12.138 10.4126L13.7103 12.1802C13.9349 12.4341 14.2181 12.4146 14.4525 12.1704L16.0638 10.4224C16.3958 10.061 16.2201 9.50439 15.6537 9.50439L14.638 9.50439L14.638 7.44385C14.638 7.12158 14.4037 6.88721 14.1009 6.88721Z" fill="white" fill-opacity="0.85"/>
 </g>
</svg>
