<?xml version="1.0" encoding="UTF-8"?>
<!--Generator: Apple Native CoreSVG 326-->
<!DOCTYPE svg
PUBLIC "-//W3C//DTD SVG 1.1//EN"
       "http://www.w3.org/Graphics/SVG/1.1/DTD/svg11.dtd">
<svg version="1.1" xmlns="http://www.w3.org/2000/svg" xmlns:xlink="http://www.w3.org/1999/xlink" viewBox="0 0 19.1504 17.5684">
 <g>
  <rect height="17.5684" opacity="0" width="19.1504" x="0" y="0"/>
  <path d="M9.39453 3.13477C10.2637 3.13477 10.9668 2.44141 10.9668 1.58203C10.9668 0.703125 10.2637 0 9.39453 0C8.53516 0 7.83203 0.703125 7.83203 1.58203C7.83203 2.44141 8.53516 3.13477 9.39453 3.13477ZM6.94336 9.38477L9.66797 10.918L7.91992 12.4219C7.5293 12.7637 7.54883 13.1934 7.76367 13.4473C8.00781 13.7012 8.4375 13.7695 8.83789 13.4375L11.3086 11.3281C11.6504 11.0352 11.5918 10.4199 11.1816 10.1465L8.50586 8.38867L9.0332 6.5332C9.10156 6.2793 9.4043 6.23047 9.56055 6.46484L10.3418 7.61719C10.5273 7.90039 10.8691 7.98828 11.1816 7.85156L13.457 6.83594C13.8574 6.65039 14.0137 6.30859 13.8281 5.9375C13.6719 5.56641 13.3105 5.45898 12.9004 5.64453L11.1133 6.43555L9.87305 4.72656C9.22852 3.84766 8.4375 3.4668 7.10938 3.56445L4.58008 3.75C4.17969 3.7793 3.91602 4.05273 3.85742 4.45312L3.51562 7.00195C3.45703 7.46094 3.67188 7.77344 4.07227 7.82227C4.48242 7.85156 4.72656 7.61719 4.79492 7.16797L5.10742 5.09766L6.12305 5.01953C6.31836 5 6.55273 5.14648 6.47461 5.42969L5.87891 7.48047C5.52734 8.69141 6.32812 9.0332 6.94336 9.38477ZM2.13867 15.5566C2.41211 15.791 2.82227 15.8301 3.20312 15.4688L5.52734 13.1641C5.72266 12.9785 5.76172 12.9297 5.87891 12.627L6.81641 10.1953L6.5625 10.0488C6.11328 9.79492 5.70312 9.54102 5.40039 9.16992L4.57031 12.0703L2.1582 14.4727C1.76758 14.8535 1.85547 15.3125 2.13867 15.5566ZM14.2773 8.63281C14.3652 8.84766 14.6582 8.95508 14.9121 8.83789L18.5156 7.1582C18.7598 7.04102 18.8574 6.75781 18.75 6.51367C18.6426 6.28906 18.3594 6.19141 18.1152 6.30859L14.502 7.98828C14.2676 8.10547 14.1504 8.38867 14.2773 8.63281ZM14.6582 15.0293L15.459 14.9805C15.5176 14.9805 15.5664 14.9707 15.625 14.9805L16.9434 7.40234L15.918 7.86133ZM0.439453 17.5586L15.6934 17.5586C16.1914 17.5586 16.5918 17.1582 16.5918 16.6406C16.5918 16.0449 16.1328 15.7129 15.5176 15.752L0.449219 16.6602C0.195312 16.6797 0 16.8555 0 17.1094C0 17.3535 0.195312 17.5586 0.439453 17.5586Z" fill="white" fill-opacity="0.85"/>
 </g>
</svg>
