<?xml version="1.0" encoding="UTF-8"?>
<!--Generator: Apple Native CoreSVG 326-->
<!DOCTYPE svg
PUBLIC "-//W3C//DTD SVG 1.1//EN"
       "http://www.w3.org/Graphics/SVG/1.1/DTD/svg11.dtd">
<svg version="1.1" xmlns="http://www.w3.org/2000/svg" xmlns:xlink="http://www.w3.org/1999/xlink" viewBox="0 0 15.2539 17.0881">
 <g>
  <rect height="17.0881" opacity="0" width="15.2539" x="0" y="0"/>
  <path d="M12.8027 4.88683C13.9648 4.88683 14.8926 3.91026 14.8926 2.78722C14.8926 1.61534 13.9648 0.658311 12.8027 0.658311C11.6211 0.658311 10.6836 1.61534 10.6836 2.78722C10.6836 3.92003 11.6211 4.88683 12.8027 4.88683ZM0.292969 16.0001C0.693359 16.42 1.37695 16.3907 1.875 15.8829L5.21484 12.4357C5.32227 12.3185 5.40039 12.2892 5.57617 12.3575L8.14453 13.3341C9.82422 13.9689 11.4258 13.461 12.1387 12.1622L13.8477 9.04698C14.502 7.85558 14.2969 6.63487 13.1738 6.0294C12.0703 5.42394 10.9375 5.88292 10.2734 7.09386L8.0957 11.0685L6.24023 10.3946C5.32227 10.0626 4.56055 10.17 3.82812 10.922L0.361328 14.5157C-0.126953 15.0138-0.078125 15.629 0.292969 16.0001Z" fill="white" fill-opacity="0.85"/>
  <path d="M0 2.85558C0 3.2755 0.332031 3.59776 0.751953 3.59776L4.22852 3.59776L4.22852 4.96495C4.22852 5.66808 4.93164 5.98058 5.44922 5.51183L7.82227 3.37315C8.16406 3.07042 8.16406 2.67003 7.82227 2.35753L5.44922 0.218858C4.96094-0.220595 4.22852 0.0235455 4.22852 0.755967L4.22852 2.11339L0.751953 2.11339C0.332031 2.11339 0 2.43565 0 2.85558Z" fill="white" fill-opacity="0.85"/>
 </g>
</svg>
