<?xml version="1.0" encoding="UTF-8"?>
<!--Generator: Apple Native CoreSVG 326-->
<!DOCTYPE svg
PUBLIC "-//W3C//DTD SVG 1.1//EN"
       "http://www.w3.org/Graphics/SVG/1.1/DTD/svg11.dtd">
<svg version="1.1" xmlns="http://www.w3.org/2000/svg" xmlns:xlink="http://www.w3.org/1999/xlink" viewBox="0 0 15.453 18.6423">
 <g>
  <rect height="18.6423" opacity="0" width="15.453" x="0" y="0"/>
  <path d="M6.51555 4.51157C7.45305 4.51157 8.22454 3.74985 8.22454 2.82212C8.22454 1.88462 7.45305 1.1229 6.51555 1.1229C5.57805 1.1229 4.8261 1.88462 4.8261 2.82212C4.8261 3.74985 5.57805 4.51157 6.51555 4.51157ZM12.5409 5.30258L3.71282 5.30258L3.95696 5.47837C4.33782 5.35141 4.4843 4.98032 4.39641 4.65805C4.29876 4.29672 3.95696 4.00376 3.37102 4.14047L1.08587 4.66782C-0.398508 5.00962-0.359445 6.91391 1.19329 6.91391L3.68352 6.91391C3.9179 6.91391 4.09368 7.09946 4.09368 7.3143L4.09368 10.6053L1.69134 12.9881C1.3593 13.3202 1.15423 13.6522 1.01751 14.16L0.0995393 17.578C-0.0567107 18.1639 0.285086 18.5155 0.695242 18.5838C1.08587 18.6522 1.50579 18.4666 1.64251 17.9881L2.51165 14.7752C2.58977 14.4823 2.65813 14.3553 2.89251 14.16L4.77727 12.5487C5.14837 12.2362 5.80266 12.2948 6.06634 12.7538L7.19915 14.7362L9.01555 18.1639C9.27923 18.662 9.8554 18.7108 10.2167 18.4764C10.5292 18.2811 10.6659 17.8514 10.4413 17.412L8.61516 13.9452L7.58001 11.5819C7.40423 11.1815 7.31634 10.7518 7.31634 10.3026L7.31634 7.3143C7.31634 7.09946 7.49212 6.91391 7.72649 6.91391L12.5409 6.91391C12.9902 6.91391 13.3515 6.55258 13.3515 6.11313C13.3515 5.66391 12.9902 5.30258 12.5409 5.30258ZM14.1425 6.11313C14.1425 7.83188 13.8105 9.36508 12.9609 11.5623C12.8632 11.826 12.9706 12.0897 13.205 12.1873C13.4589 12.2948 13.7031 12.1971 13.83 11.953C14.7382 9.95102 15.0898 8.32016 15.0898 6.11313C15.0898 3.94516 14.7382 2.3143 13.83 0.283053C13.7031 0.0291464 13.4589-0.0587442 13.205 0.0389121C12.9706 0.136568 12.8632 0.40024 12.9609 0.673678C13.8105 2.88071 14.1425 4.40415 14.1425 6.11313Z" fill="white" fill-opacity="0.85"/>
 </g>
</svg>
