<svg version="1.1" xmlns="http://www.w3.org/2000/svg" xmlns:xlink="http://www.w3.org/1999/xlink" viewBox="0 0 16.1328 15.7715">
 <g>
  <rect height="15.7715" opacity="0" width="16.1328" x="0" y="0"/>
  <path d="M15.7715 7.88086C15.7715 12.2266 12.2363 15.7617 7.88086 15.7617C3.53516 15.7617 0 12.2266 0 7.88086C0 3.53516 3.53516 0 7.88086 0C12.2363 0 15.7715 3.53516 15.7715 7.88086ZM6.78711 5.26367L4.07227 5.82031C3.0957 6.02539 2.83203 7.17773 3.52539 7.80273L5.22461 9.29688L5.22461 11.6113C5.22461 11.8652 5.42969 12.0703 5.68359 12.0703C5.9375 12.0703 6.15234 11.8652 6.15234 11.6113L6.15234 9.12109C6.15234 8.94531 6.11328 8.86719 6.00586 8.75L4.70703 7.44141C4.63867 7.37305 4.67773 7.26562 4.75586 7.25586L6.58203 6.9043C6.76758 6.875 6.83594 6.93359 6.83594 7.09961L6.83594 8.1543C6.83594 8.4082 7.04102 8.61328 7.29492 8.61328L9.35547 8.61328C9.61914 8.61328 9.82422 8.4082 9.82422 8.1543C9.82422 7.90039 9.61914 7.69531 9.35547 7.69531L7.75391 7.69531L7.75391 6.05469C7.75391 5.50781 7.29492 5.14648 6.78711 5.26367ZM4.14062 10.2539L3.37891 10.2539C3.21289 10.2539 3.06641 10.3906 3.06641 10.5762C3.06641 10.7324 3.21289 10.8887 3.37891 10.8887L4.14062 10.8887C4.38477 10.8887 4.61914 10.8789 4.83398 10.8398L4.83398 10.1953C4.61914 10.2344 4.39453 10.2539 4.14062 10.2539ZM11.8262 5.64453C10.2051 5.64453 9.23828 6.07422 8.20312 7.30469L9.00391 7.30469C9.02344 7.30469 9.05273 7.30469 9.0625 7.30469C9.83398 6.55273 10.6152 6.2793 11.8262 6.2793L12.2754 6.2793L12.2754 9.78516L11.8457 9.78516C11.6992 9.78516 11.6016 9.7168 11.5527 9.59961L11.1523 8.79883C11.0645 8.64258 10.8984 8.61328 10.7715 8.64258C10.5957 8.70117 10.4785 8.87695 10.5762 9.0918L10.9766 9.89258C11.1328 10.2051 11.4844 10.4199 11.8457 10.4199L12.4805 10.4199C12.7344 10.4199 12.9004 10.2344 12.9004 10L12.9004 6.06445C12.9004 5.82031 12.7344 5.64453 12.4902 5.64453ZM6.54297 9.38477L6.54297 10.2148C7.03125 9.88281 7.40234 9.44336 7.73438 9.00391L7.29492 9.00391C7.1875 9.00391 7.06055 8.98438 6.97266 8.94531C6.82617 9.11133 6.68945 9.24805 6.54297 9.38477ZM7.69531 4.64844C7.69531 5.17578 8.125 5.60547 8.66211 5.60547C9.18945 5.60547 9.60938 5.17578 9.60938 4.64844C9.60938 4.12109 9.18945 3.69141 8.66211 3.69141C8.125 3.69141 7.69531 4.12109 7.69531 4.64844Z" fill="var(--color-primary)"/>
 </g>
</svg>
