<?xml version="1.0" encoding="UTF-8"?>
<!--Generator: Apple Native CoreSVG 326-->
<!DOCTYPE svg
PUBLIC "-//W3C//DTD SVG 1.1//EN"
       "http://www.w3.org/Graphics/SVG/1.1/DTD/svg11.dtd">
<svg version="1.1" xmlns="http://www.w3.org/2000/svg" xmlns:xlink="http://www.w3.org/1999/xlink" viewBox="0 0 16.1328 15.7715">
 <g>
  <rect height="15.7715" opacity="0" width="16.1328" x="0" y="0"/>
  <path d="M15.7715 7.88086C15.7715 12.2266 12.2363 15.7617 7.88086 15.7617C3.53516 15.7617 0 12.2266 0 7.88086C0 3.53516 3.53516 0 7.88086 0C12.2363 0 15.7715 3.53516 15.7715 7.88086ZM7.29492 10.3516L6.66992 12.5977C6.58203 12.9492 6.85547 13.1641 7.11914 13.1641C7.30469 13.1641 7.5 13.0566 7.55859 12.832L8.19336 10.498C8.20312 10.4492 8.20312 10.4102 8.20312 10.3809L8.20312 9.54102L7.1582 9.21875ZM10.3809 2.85156L9.17969 4.24805L3.65234 6.50391C3.49609 6.57227 3.39844 6.64062 3.33008 6.69922L5.5957 6.69922L6.25977 6.42578C6.39648 6.36719 6.44531 6.42578 6.44531 6.50391L6.44531 7.91016C6.44531 8.36914 6.65039 8.65234 7.08008 8.7793L9.48242 9.52148L11.8066 10.5566C12.3926 10.8203 12.7344 9.99023 12.1777 9.74609L8.20312 7.93945L8.20312 5.81055C8.20312 5.63477 8.25195 5.61523 8.36914 5.56641L9.58008 5.08789C9.7168 5.0293 9.72656 4.99023 9.81445 4.90234L11.0742 3.4375C11.2305 3.25195 11.2109 2.95898 11.0156 2.80273C10.8301 2.63672 10.5469 2.66602 10.3809 2.85156ZM2.61719 7.09961C2.46094 7.09961 2.32422 7.23633 2.32422 7.40234C2.32422 7.55859 2.46094 7.69531 2.61719 7.69531L6.04492 7.69531L6.04492 7.09961ZM8.61328 7.09961L8.61328 7.69531L12.6172 7.69531C12.7734 7.69531 12.9199 7.55859 12.9199 7.40234C12.9199 7.23633 12.7734 7.09961 12.6172 7.09961ZM5.84961 3.70117C5.84961 4.23828 6.2793 4.66797 6.81641 4.66797C7.34375 4.66797 7.77344 4.23828 7.77344 3.70117C7.77344 3.17383 7.34375 2.75391 6.81641 2.75391C6.2793 2.75391 5.84961 3.17383 5.84961 3.70117Z" fill="white" fill-opacity="0.85"/>
 </g>
</svg>
