<svg version="1.1" xmlns="http://www.w3.org/2000/svg" xmlns:xlink="http://www.w3.org/1999/xlink" viewBox="0 0 16.1328 15.7715">
 <g>
  <rect height="15.7715" opacity="0" width="16.1328" x="0" y="0"/>
  <path d="M7.88086 15.7617C12.2363 15.7617 15.7715 12.2363 15.7715 7.88086C15.7715 3.52539 12.2363 0 7.88086 0C3.53516 0 0 3.52539 0 7.88086C0 12.2363 3.53516 15.7617 7.88086 15.7617ZM7.88086 14.2773C4.3457 14.2773 1.49414 11.416 1.49414 7.88086C1.49414 4.3457 4.3457 1.48438 7.88086 1.48438C11.416 1.48438 14.2773 4.3457 14.2773 7.88086C14.2773 11.416 11.416 14.2773 7.88086 14.2773Z" fill="var(--color-primary)"/>
  <path d="M9.3457 5.71289C9.86328 5.71289 10.2734 5.30273 10.2734 4.78516C10.2734 4.27734 9.86328 3.86719 9.3457 3.86719C8.83789 3.86719 8.42773 4.27734 8.42773 4.78516C8.42773 5.30273 8.83789 5.71289 9.3457 5.71289ZM6.38672 12.1484C6.57227 12.2168 6.80664 12.168 6.93359 11.9141L8.01758 9.75586C8.0957 9.58984 8.08594 9.39453 7.93945 9.24805L6.63086 7.93945L8.28125 7.11914C8.35938 7.08008 8.44727 7.09961 8.50586 7.1582L9.48242 8.13477C9.56055 8.21289 9.67773 8.26172 9.78516 8.26172L11.6406 8.26172C11.875 8.26172 12.0703 8.06641 12.0703 7.83203C12.0703 7.58789 11.875 7.39258 11.6406 7.39258L9.9707 7.39258L8.14453 5.56641C7.92969 5.35156 7.63672 5.23438 7.32422 5.23438L3.73047 5.23438C3.49609 5.23438 3.30078 5.42969 3.30078 5.66406C3.30078 5.89844 3.49609 6.09375 3.73047 6.09375L6.44531 6.09375C6.48438 6.09375 6.50391 6.17188 6.46484 6.19141L5.6543 6.5918C5.22461 6.80664 5.00977 7.20703 5.00977 7.60742C5.00977 7.95898 5.16602 8.31055 5.48828 8.54492L7.07031 9.69727L6.15234 11.5332C6.00586 11.8262 6.16211 12.0605 6.38672 12.1484ZM2.83203 10.4199L4.81445 10.4199C4.98047 10.4199 5.13672 10.332 5.20508 10.1855L5.69336 9.17969L5.25391 8.85742C5.00977 8.67188 4.91211 8.51562 4.86328 8.44727L4.50195 9.56055L2.83203 9.56055C2.59766 9.56055 2.41211 9.75586 2.41211 9.99023C2.41211 10.2246 2.59766 10.4199 2.83203 10.4199ZM11.7969 4.0332C11.2012 4.0332 10.7617 4.47266 10.7617 5.06836C10.7617 5.92773 11.5332 6.89453 11.6113 6.97266L11.9922 6.97266C12.0605 6.89453 12.832 5.92773 12.832 5.06836C12.832 4.47266 12.4023 4.0332 11.7969 4.0332ZM11.7969 4.60938C12.0898 4.60938 12.2656 4.79492 12.2656 5.06836C12.2656 5.43945 12.002 5.91797 11.7969 6.25977C11.5918 5.91797 11.3281 5.43945 11.3281 5.06836C11.3281 4.79492 11.5137 4.60938 11.7969 4.60938ZM11.5137 7.83203L12.0703 7.83203L12.0703 6.71875L11.5137 6.71875Z" fill="var(--color-primary)"/>
 </g>
</svg>
