<?xml version="1.0" encoding="UTF-8"?>
<!--Generator: Apple Native CoreSVG 326-->
<!DOCTYPE svg
PUBLIC "-//W3C//DTD SVG 1.1//EN"
       "http://www.w3.org/Graphics/SVG/1.1/DTD/svg11.dtd">
<svg version="1.1" xmlns="http://www.w3.org/2000/svg" xmlns:xlink="http://www.w3.org/1999/xlink" viewBox="0 0 16.1328 15.7715">
 <g>
  <rect height="15.7715" opacity="0" width="16.1328" x="0" y="0"/>
  <path d="M7.88086 15.7617C12.2363 15.7617 15.7715 12.2363 15.7715 7.88086C15.7715 3.52539 12.2363 0 7.88086 0C3.53516 0 0 3.52539 0 7.88086C0 12.2363 3.53516 15.7617 7.88086 15.7617ZM7.88086 14.2773C4.3457 14.2773 1.49414 11.416 1.49414 7.88086C1.49414 4.3457 4.3457 1.48438 7.88086 1.48438C11.416 1.48438 14.2773 4.3457 14.2773 7.88086C14.2773 11.416 11.416 14.2773 7.88086 14.2773Z" fill="white" fill-opacity="0.85"/>
  <path d="M10.2734 6.70898C10.7812 6.70898 11.1914 6.29883 11.1914 5.78125C11.1914 5.27344 10.7812 4.86328 10.2734 4.86328C9.75586 4.86328 9.3457 5.27344 9.3457 5.78125C9.3457 6.29883 9.75586 6.70898 10.2734 6.70898ZM7.37305 13.0859C7.56836 13.1836 7.83203 13.125 7.94922 12.9004L8.99414 10.8008C9.08203 10.625 9.10156 10.4199 8.90625 10.2246L7.64648 8.97461L9.28711 8.1543C9.36523 8.11523 9.45312 8.13477 9.51172 8.19336L11.7676 10.4395C11.9336 10.6055 12.207 10.5957 12.3633 10.4395C12.5293 10.2734 12.5293 10 12.3633 9.83398L9.04297 6.51367C8.89648 6.36719 8.74023 6.2793 8.53516 6.2793L6.88477 6.2793L5.81055 5.20508L6.14258 4.88281C6.64062 4.77539 7.35352 4.58984 7.69531 4.23828C8.32031 3.61328 8.33984 3.125 7.92969 2.71484C7.51953 2.30469 7.03125 2.32422 6.40625 2.94922C6.05469 3.30078 5.86914 4.01367 5.77148 4.52148L5.15625 5.12695C4.94141 5.3418 5 5.61523 5.17578 5.78125L6.41602 7.01172C6.49414 7.08984 6.5918 7.13867 6.70898 7.13867L7.55859 7.13867C7.58789 7.13867 7.59766 7.17773 7.56836 7.19727L6.68945 7.63672C5.94727 8.00781 5.77148 8.99414 6.5332 9.55078L8.0957 10.6934L7.1875 12.5098C7.08008 12.7246 7.16797 12.9883 7.37305 13.0859ZM7.56836 3.08594C7.77344 3.28125 7.71484 3.49609 7.33398 3.87695C7.10938 4.0918 6.68945 4.20898 6.34766 4.30664C6.43555 3.95508 6.55273 3.54492 6.77734 3.32031C7.16797 2.93945 7.35352 2.88086 7.56836 3.08594ZM3.29102 10.9863C3.29102 11.2305 3.48633 11.416 3.71094 11.416L5.85938 11.416C6.03516 11.416 6.18164 11.2891 6.25977 11.1328L6.74805 10.1758L6.30859 9.86328C6.05469 9.67773 5.95703 9.55078 5.91797 9.45312L5.54688 10.5566L3.71094 10.5566C3.48633 10.5566 3.29102 10.752 3.29102 10.9863Z" fill="white" fill-opacity="0.85"/>
 </g>
</svg>
