<?xml version="1.0" encoding="UTF-8"?>
<!--Generator: Apple Native CoreSVG 326-->
<!DOCTYPE svg
PUBLIC "-//W3C//DTD SVG 1.1//EN"
       "http://www.w3.org/Graphics/SVG/1.1/DTD/svg11.dtd">
<svg version="1.1" xmlns="http://www.w3.org/2000/svg" xmlns:xlink="http://www.w3.org/1999/xlink" viewBox="0 0 16.1328 15.7715">
 <g>
  <rect height="15.7715" opacity="0" width="16.1328" x="0" y="0"/>
  <path d="M15.7715 7.88086C15.7715 12.2266 12.2363 15.7617 7.88086 15.7617C3.53516 15.7617 0 12.2266 0 7.88086C0 3.53516 3.53516 0 7.88086 0C12.2363 0 15.7715 3.53516 15.7715 7.88086ZM6.70898 9.10156L6.20117 10.5469C6.18164 10.6055 6.18164 10.6055 6.17188 10.6445L5.76172 12.5977C5.69336 12.9102 5.87891 13.1152 6.09375 13.1543C6.30859 13.2031 6.54297 13.0957 6.61133 12.7832L7.03125 10.8984L7.87109 9.36523L8.7207 10.8984L9.13086 12.7832C9.19922 13.1055 9.45312 13.2031 9.67773 13.1543C9.88281 13.0957 10.0488 12.9004 9.98047 12.5977L9.57031 10.6445C9.56055 10.6152 9.56055 10.5859 9.55078 10.5469L9.04297 9.10156ZM7.35352 4.90234C6.9043 4.90234 6.54297 5.12695 6.34766 5.50781L5.06836 8.11523L4.08203 8.11523L4.08203 7.24609C4.08203 7.06055 3.95508 6.93359 3.7793 6.93359L3.55469 6.93359C3.35938 6.93359 3.24219 7.06055 3.24219 7.24609L3.24219 8.11523L2.88086 8.11523C2.71484 8.11523 2.57812 8.23242 2.57812 8.4082C2.57812 8.57422 2.71484 8.70117 2.88086 8.70117L3.24219 8.70117L3.24219 9.57031C3.24219 9.75586 3.35938 9.88281 3.55469 9.88281L3.7793 9.88281C3.95508 9.88281 4.08203 9.75586 4.08203 9.57031L4.08203 8.70117L4.76562 8.70117L4.73633 8.7793C4.63867 9.00391 4.72656 9.26758 4.92188 9.36523C5.14648 9.48242 5.41016 9.38477 5.51758 9.16992L5.74219 8.70117L10 8.70117L10.2246 9.16992C10.332 9.38477 10.6055 9.48242 10.8203 9.36523C11.0254 9.26758 11.1035 9.00391 11.0059 8.7793L10.9668 8.70117L11.6602 8.70117L11.6602 9.57031C11.6602 9.75586 11.7773 9.88281 11.9629 9.88281L12.1875 9.88281C12.3828 9.88281 12.4902 9.75586 12.4902 9.57031L12.4902 8.70117L12.8613 8.70117C13.0273 8.70117 13.1543 8.57422 13.1543 8.4082C13.1543 8.23242 13.0273 8.11523 12.8613 8.11523L12.4902 8.11523L12.4902 7.24609C12.4902 7.06055 12.3828 6.93359 12.1875 6.93359L11.9629 6.93359C11.7773 6.93359 11.6602 7.06055 11.6602 7.24609L11.6602 8.11523L10.6836 8.11523L9.4043 5.50781C9.20898 5.12695 8.84766 4.90234 8.39844 4.90234ZM6.91406 6.68945L6.91406 7.70508L8.83789 7.70508L8.83789 6.68945C8.83789 6.62109 8.94531 6.58203 8.99414 6.67969L9.69727 8.11523L6.03516 8.11523L6.75781 6.67969C6.80664 6.58203 6.91406 6.61133 6.91406 6.68945ZM6.91406 3.50586C6.91406 4.04297 7.34375 4.47266 7.87109 4.47266C8.39844 4.47266 8.82812 4.04297 8.82812 3.50586C8.82812 2.97852 8.39844 2.54883 7.87109 2.54883C7.34375 2.54883 6.91406 2.97852 6.91406 3.50586Z" fill="white" fill-opacity="0.85"/>
 </g>
</svg>
