<?xml version="1.0" encoding="UTF-8"?>
<!--Generator: Apple Native CoreSVG 326-->
<!DOCTYPE svg
PUBLIC "-//W3C//DTD SVG 1.1//EN"
       "http://www.w3.org/Graphics/SVG/1.1/DTD/svg11.dtd">
<svg version="1.1" xmlns="http://www.w3.org/2000/svg" xmlns:xlink="http://www.w3.org/1999/xlink" viewBox="0 0 15.774 19.5605">
 <g>
  <rect height="19.5605" opacity="0" width="15.774" x="0" y="0"/>
  <path d="M9.14674 3.39844C10.0745 3.39844 10.846 2.64648 10.846 1.68945C10.846 0.761719 10.0745 0 9.14674 0C8.19948 0 7.44752 0.761719 7.44752 1.68945C7.44752 2.64648 8.19948 3.39844 9.14674 3.39844ZM1.57838 12.7637L6.70534 12.7637C7.41823 12.7637 7.72096 11.9727 7.33034 11.4844L5.72877 9.51172L10.3089 9.20898L14.6253 9.20898C15.0549 9.20898 15.4163 8.85742 15.4163 8.41797C15.4163 7.99805 15.0549 7.63672 14.6253 7.63672L6.64674 7.63672L8.53151 5.74219C8.60963 5.66406 8.72682 5.60547 8.84401 5.625L14.4885 6.35742C14.9573 6.41602 15.3674 6.06445 15.3674 5.57617C15.3674 5.18555 15.0745 4.84375 14.6839 4.79492L2.85768 3.30078C2.60377 3.27148 2.37916 3.35938 2.20338 3.52539L0.230727 5.49805C-0.0817726 5.81055-0.072007 6.28906 0.230727 6.60156C0.504165 6.89453 1.02174 6.92383 1.34401 6.60156L3.04323 4.90234L4.88893 5.13672C5.06471 5.15625 5.13307 5.3418 5.00612 5.46875L3.26784 7.1875C2.58424 7.86133 2.54518 8.93555 3.26784 9.6582L4.79127 11.1914L1.57838 11.1914C1.13893 11.1914 0.787368 11.543 0.787368 11.9727C0.787368 12.4023 1.13893 12.7637 1.57838 12.7637ZM9.18581 19.5605C9.44948 19.5605 9.65456 19.3555 9.65456 19.0918L9.65456 10.9863C9.65456 10.7227 9.44948 10.5176 9.18581 10.5176C8.92213 10.5176 8.71706 10.7227 8.71706 10.9863L8.71706 19.0918C8.71706 19.3555 8.92213 19.5605 9.18581 19.5605Z" fill="white" fill-opacity="0.85"/>
 </g>
</svg>
