<?xml version="1.0" encoding="UTF-8"?>
<!--Generator: Apple Native CoreSVG 326-->
<!DOCTYPE svg
PUBLIC "-//W3C//DTD SVG 1.1//EN"
       "http://www.w3.org/Graphics/SVG/1.1/DTD/svg11.dtd">
<svg version="1.1" xmlns="http://www.w3.org/2000/svg" xmlns:xlink="http://www.w3.org/1999/xlink" viewBox="0 0 16.1328 15.7715">
 <g>
  <rect height="15.7715" opacity="0" width="16.1328" x="0" y="0"/>
  <path d="M7.88086 15.7617C12.2363 15.7617 15.7715 12.2363 15.7715 7.88086C15.7715 3.52539 12.2363 0 7.88086 0C3.53516 0 0 3.52539 0 7.88086C0 12.2363 3.53516 15.7617 7.88086 15.7617ZM7.88086 14.2773C4.3457 14.2773 1.49414 11.416 1.49414 7.88086C1.49414 4.3457 4.3457 1.48438 7.88086 1.48438C11.416 1.48438 14.2773 4.3457 14.2773 7.88086C14.2773 11.416 11.416 14.2773 7.88086 14.2773Z" fill="white" fill-opacity="0.85"/>
  <path d="M7.71484 5.27344C8.23242 5.27344 8.64258 4.86328 8.64258 4.35547C8.64258 3.84766 8.23242 3.4375 7.71484 3.4375C7.2168 3.4375 6.80664 3.84766 6.80664 4.35547C6.80664 4.86328 7.2168 5.27344 7.71484 5.27344ZM10.9961 5.70312L6.20117 5.70312L6.32812 5.81055C6.5332 5.73242 6.61133 5.53711 6.5625 5.36133C6.51367 5.16602 6.32812 5.00977 6.01562 5.07812L4.77539 5.36133C3.97461 5.54688 3.99414 6.58203 4.82422 6.58203L6.18164 6.58203C6.30859 6.58203 6.40625 6.67969 6.40625 6.80664L6.40625 8.59375L5.09766 9.88281C4.92188 10.0586 4.80469 10.2441 4.73633 10.5176L4.26758 12.2754C4.17969 12.5977 4.36523 12.793 4.58984 12.832C4.79492 12.8613 5.03906 12.7637 5.10742 12.5L5.54688 10.8594C5.5957 10.6934 5.625 10.625 5.75195 10.5176L6.77734 9.64844C6.98242 9.47266 7.33398 9.51172 7.4707 9.75586L8.0957 10.8398L9.04297 12.5977C9.18945 12.8711 9.49219 12.9004 9.6875 12.7734C9.86328 12.6562 9.94141 12.4316 9.81445 12.1875L8.85742 10.4004L8.30078 9.12109C8.20312 8.90625 8.1543 8.67188 8.1543 8.42773L8.1543 6.80664C8.1543 6.67969 8.25195 6.58203 8.37891 6.58203L10.9961 6.58203C11.2402 6.58203 11.4355 6.38672 11.4355 6.15234C11.4355 5.9082 11.2402 5.70312 10.9961 5.70312ZM11.748 6.15234C11.748 6.98242 11.5918 7.73438 11.2402 8.75C11.1133 9.12109 11.6699 9.28711 11.7969 8.93555C12.1582 7.99805 12.3145 7.1875 12.3145 6.15234C12.3145 5.11719 12.1582 4.30664 11.7969 3.36914C11.6699 3.01758 11.1133 3.17383 11.2402 3.54492C11.5918 4.56055 11.748 5.3125 11.748 6.15234Z" fill="white" fill-opacity="0.85"/>
 </g>
</svg>
