<?xml version="1.0" encoding="UTF-8"?>
<!--Generator: Apple Native CoreSVG 326-->
<!DOCTYPE svg
PUBLIC "-//W3C//DTD SVG 1.1//EN"
       "http://www.w3.org/Graphics/SVG/1.1/DTD/svg11.dtd">
<svg version="1.1" xmlns="http://www.w3.org/2000/svg" xmlns:xlink="http://www.w3.org/1999/xlink" viewBox="0 0 17.4829 15.4785">
 <g>
  <rect height="15.4785" opacity="0" width="17.4829" x="0" y="0"/>
  <path d="M11.3489 3.39844C12.2962 3.39844 13.0579 2.63672 13.0579 1.69922C13.0579 0.751953 12.2962 0 11.3489 0C10.4114 0 9.64968 0.751953 9.64968 1.69922C9.64968 2.63672 10.4114 3.39844 11.3489 3.39844ZM5.26491 13.5938C5.63601 13.8086 6.15358 13.6914 6.38796 13.3301L8.30202 10.2539L10.3821 10.3711L9.08327 12.4512C8.83913 12.8418 8.94655 13.3691 9.34694 13.5938C9.7278 13.8086 10.2258 13.7012 10.4602 13.3301L12.4719 10.0977C12.804 9.57031 12.5305 8.88672 11.7883 8.80859L8.38991 8.42773C8.05788 8.38867 7.93093 8.04688 8.09694 7.80273L9.50319 5.68359C9.59108 5.54688 9.76687 5.50781 9.90358 5.5957L15.0598 8.69141C15.4407 8.91602 15.968 8.79883 16.1829 8.41797C16.4075 8.02734 16.2903 7.5293 15.8997 7.29492L5.71413 1.17188C5.57741 1.09375 5.44069 1.06445 5.29421 1.06445L2.03249 1.06445C1.57351 1.06445 1.20241 1.42578 1.20241 1.875C1.20241 2.32422 1.57351 2.68555 2.03249 2.68555L5.05983 2.68555L6.48562 3.54492C6.64187 3.63281 6.68093 3.81836 6.58327 3.97461L4.81569 6.61133C3.86843 8.03711 4.64968 9.93164 6.43679 10.1562L5.00124 12.4512C4.7571 12.8418 4.86452 13.3496 5.26491 13.5938ZM2.35476 15.459L14.7669 15.459C15.636 15.459 16.3587 15.2734 16.9251 14.7949C17.179 14.5801 17.1594 14.3066 17.013 14.1211C16.8762 13.9355 16.5833 13.8477 16.3196 14.0527C15.9094 14.375 15.4895 14.5117 14.7669 14.5117L2.35476 14.5117C1.6321 14.5117 1.21218 14.375 0.802021 14.0527C0.557881 13.8672 0.294209 13.916 0.147725 14.0723C-0.0378223 14.2578-0.0768848 14.5605 0.196553 14.7949C0.762959 15.2734 1.48562 15.459 2.35476 15.459Z" fill="white" fill-opacity="0.85"/>
 </g>
</svg>
