<svg version="1.1" xmlns="http://www.w3.org/2000/svg" xmlns:xlink="http://www.w3.org/1999/xlink" viewBox="0 0 16.1328 15.7715">
 <g>
  <rect height="15.7715" opacity="0" width="16.1328" x="0" y="0"/>
  <path d="M15.7715 7.88086C15.7715 12.2266 12.2363 15.7617 7.88086 15.7617C3.53516 15.7617 0 12.2266 0 7.88086C0 3.53516 3.53516 0 7.88086 0C12.2363 0 15.7715 3.53516 15.7715 7.88086ZM11.6602 8.01758C11.5723 8.14453 11.5527 8.30078 11.7285 8.47656C12.041 8.75 12.2559 9.16992 12.2559 9.62891C12.2559 10.5078 11.5527 11.2012 10.6836 11.2012C9.81445 11.2012 9.10156 10.5078 9.10156 9.62891C9.10156 9.42383 9.15039 9.20898 9.22852 9.00391C9.32617 8.78906 9.22852 8.63281 9.08203 8.58398C8.94531 8.52539 8.7793 8.56445 8.71094 8.75977C8.58398 9.02344 8.51562 9.32617 8.51562 9.62891C8.51562 10.8301 9.48242 11.7871 10.6836 11.7871C11.875 11.7871 12.8516 10.8301 12.8516 9.62891C12.8516 8.99414 12.5586 8.39844 12.0996 7.99805C11.9531 7.87109 11.7676 7.92969 11.6602 8.01758ZM2.68555 9.60938C2.68555 10.8105 3.66211 11.7676 4.84375 11.7676C6.03516 11.7676 7.02148 10.8105 7.02148 9.60938C7.02148 8.41797 6.03516 7.45117 4.84375 7.45117C3.66211 7.45117 2.68555 8.41797 2.68555 9.60938ZM6.42578 9.60938C6.42578 10.4883 5.71289 11.1816 4.84375 11.1816C3.98438 11.1816 3.28125 10.4883 3.28125 9.60938C3.28125 8.74023 3.98438 8.03711 4.84375 8.03711C5.71289 8.03711 6.42578 8.74023 6.42578 9.60938ZM6.49414 4.31641C6.04492 4.31641 5.6543 4.58008 5.47852 4.98047C5.30273 5.40039 5.40039 5.87891 5.71289 6.19141L7.32422 7.82227L7.32422 9.82422C7.32422 10.0684 7.5293 10.2637 7.77344 10.2637C8.00781 10.2637 8.21289 10.0684 8.21289 9.82422L8.21289 7.62695C8.21289 7.51953 8.17383 7.42188 8.08594 7.33398L6.93359 6.05469C6.85547 5.9668 6.91406 5.84961 7.02148 5.84961L8.4375 5.84961C8.60352 5.84961 8.66211 5.9668 8.66211 6.09375L8.66211 7.1875C8.66211 7.42188 8.85742 7.62695 9.0918 7.62695L10.8594 7.62695C11.1035 7.62695 11.2988 7.42188 11.2988 7.1875C11.2988 6.94336 11.1035 6.73828 10.8594 6.73828L9.54102 6.73828L9.54102 5.18555C9.54102 4.69727 9.14062 4.31641 8.66211 4.31641ZM9.98047 4.53125C9.98047 5.05859 10.4004 5.48828 10.9375 5.48828C11.4648 5.48828 11.8848 5.05859 11.8848 4.53125C11.8848 4.00391 11.4648 3.57422 10.9375 3.57422C10.4004 3.57422 9.98047 4.00391 9.98047 4.53125Z" fill="var(--color-primary)"/>
 </g>
</svg>
