<?xml version="1.0" encoding="UTF-8"?>
<!--Generator: Apple Native CoreSVG 326-->
<!DOCTYPE svg
PUBLIC "-//W3C//DTD SVG 1.1//EN"
       "http://www.w3.org/Graphics/SVG/1.1/DTD/svg11.dtd">
<svg version="1.1" xmlns="http://www.w3.org/2000/svg" xmlns:xlink="http://www.w3.org/1999/xlink" viewBox="0 0 19.2017 22.4534">
 <g>
  <rect height="22.4534" opacity="0" width="19.2017" x="0" y="0"/>
  <path d="M3.98073 7.56949C2.81862 7.56949 1.89089 6.59293 1.89089 5.46988C1.89089 4.29801 2.81862 3.34098 3.98073 3.34098C5.15261 3.34098 6.09987 4.29801 6.09987 5.46988C6.09987 6.60269 5.15261 7.56949 3.98073 7.56949ZM16.4905 18.6828C16.0901 19.1027 15.4065 19.0734 14.9085 18.5656L11.5589 15.1183C11.4514 15.0011 11.3733 14.9718 11.2073 15.0402L8.63893 16.0168C6.94948 16.6515 5.35768 16.1437 4.64479 14.8449L2.92604 11.7296C2.28151 10.5382 2.48659 9.31754 3.60964 8.71207C4.71315 8.1066 5.84597 8.56559 6.51003 9.77652L8.68776 13.7511L10.5432 13.0773C11.4514 12.7453 12.2229 12.8527 12.9553 13.6046L16.4221 17.1984C16.9104 17.6964 16.8616 18.3117 16.4905 18.6828Z" fill="white" fill-opacity="0.85"/>
  <path d="M19.0198 5.03043C19.2639 4.78629 19.2639 4.3859 19.01 4.13199L16.9104 2.02262L17.7307 1.2023C18.1702 0.74332 17.887 0.157382 17.3206 0.128086L14.5764 0.00113242C14.1858-0.0183988 13.9514 0.215976 13.971 0.606601L14.1174 3.34098C14.1467 3.94644 14.7522 4.18082 15.1819 3.75113L16.012 2.93082L18.1116 5.03043C18.3655 5.28434 18.7659 5.28434 19.0198 5.03043ZM16.178 6.47574C16.178 6.13394 15.8948 5.85074 15.5237 5.85074L12.5549 5.85074L12.5549 4.68863C12.5549 4.05387 11.9299 3.83902 11.5003 4.22965L9.46901 6.05582C9.17604 6.32926 9.18581 6.66129 9.46901 6.92496L11.5003 8.7609C11.9397 9.17105 12.5549 8.89762 12.5549 8.30191L12.5549 7.13004L15.5237 7.13004C15.8948 7.13004 16.178 6.84684 16.178 6.47574ZM19.0198 7.92105C18.7659 7.66715 18.3655 7.66715 18.1116 7.92105L16.012 10.0304L15.1819 9.20035C14.7522 8.78043 14.1467 9.0148 14.1174 9.62027L13.971 12.3449C13.9514 12.7355 14.1858 12.9796 14.5764 12.9601L17.3206 12.8234C17.887 12.7941 18.1702 12.2082 17.7307 11.7589L16.9104 10.9289L19.01 8.82926C19.2639 8.57535 19.2639 8.17496 19.0198 7.92105Z" fill="white" fill-opacity="0.85"/>
 </g>
</svg>
