<?xml version="1.0" encoding="UTF-8"?>
<!--Generator: Apple Native CoreSVG 326-->
<!DOCTYPE svg
PUBLIC "-//W3C//DTD SVG 1.1//EN"
       "http://www.w3.org/Graphics/SVG/1.1/DTD/svg11.dtd">
<svg version="1.1" xmlns="http://www.w3.org/2000/svg" xmlns:xlink="http://www.w3.org/1999/xlink" viewBox="0 0 16.1328 15.7715">
 <g>
  <rect height="15.7715" opacity="0" width="16.1328" x="0" y="0"/>
  <path d="M7.88086 15.7617C12.2363 15.7617 15.7715 12.2363 15.7715 7.88086C15.7715 3.52539 12.2363 0 7.88086 0C3.53516 0 0 3.52539 0 7.88086C0 12.2363 3.53516 15.7617 7.88086 15.7617ZM7.88086 14.2773C4.3457 14.2773 1.49414 11.416 1.49414 7.88086C1.49414 4.3457 4.3457 1.48438 7.88086 1.48438C11.416 1.48438 14.2773 4.3457 14.2773 7.88086C14.2773 11.416 11.416 14.2773 7.88086 14.2773Z" fill="white" fill-opacity="0.85"/>
  <path d="M7.87109 4.20898C8.37891 4.20898 8.78906 3.79883 8.78906 3.29102C8.78906 2.7832 8.37891 2.36328 7.87109 2.36328C7.36328 2.36328 6.94336 2.7832 6.94336 3.29102C6.94336 3.79883 7.36328 4.20898 7.87109 4.20898ZM8.41797 11.1426C8.58398 11.1914 8.85742 11.1328 8.94531 10.8594L9.55078 8.82812C9.61914 8.60352 9.52148 8.37891 9.28711 8.30078L7.62695 7.72461L7.83203 6.30859C7.8418 6.23047 7.95898 6.21094 7.98828 6.28906L8.34961 6.97266C8.42773 7.12891 8.56445 7.20703 8.7207 7.20703L10.4199 7.20703C10.6543 7.20703 10.8496 7.02148 10.8496 6.78711C10.8496 6.55273 10.6543 6.36719 10.4199 6.36719L8.98438 6.36719L8.4375 5.26367C8.25195 4.91211 7.93945 4.66797 7.53906 4.58984L7.30469 4.54102C6.875 4.45312 6.52344 4.55078 6.25 4.7168L4.87305 5.57617C4.75586 5.6543 4.67773 5.79102 4.67773 5.9375L4.67773 7.63672C4.67773 7.87109 4.87305 8.06641 5.10742 8.06641C5.3418 8.06641 5.52734 7.87109 5.52734 7.63672L5.52734 6.17188L6.12305 5.80078C6.17188 5.77148 6.24023 5.80078 6.23047 5.86914L6.03516 7.43164C5.95703 8.03711 6.15234 8.44727 6.8457 8.60352L8.61328 9.02344L8.125 10.625C8.06641 10.8398 8.1543 11.0742 8.41797 11.1426ZM5.30273 12.6758C5.44922 12.7734 5.72266 12.7734 5.87891 12.5488L7.12891 10.6836C7.1875 10.5957 7.22656 10.5273 7.23633 10.4199L7.41211 9.17969L6.74805 9.02344C6.65039 8.99414 6.5625 8.96484 6.47461 8.93555L6.38672 10.2734L5.17578 12.0898C5.04883 12.2852 5.09766 12.5488 5.30273 12.6758ZM7.04102 13.3887L8.36914 13.3887C8.53516 13.3887 8.66211 13.2422 8.66211 13.0957L8.66211 12.334L9.70703 12.334C9.84375 12.334 9.98047 12.1973 9.98047 12.0508L9.98047 11.2793L11.0254 11.2793C11.2012 11.2793 11.3086 11.1426 11.3086 10.9961L11.3086 10.2246L12.3438 10.2246C12.5 10.2246 12.6367 10.0879 12.6367 9.94141C12.6367 9.78516 12.5098 9.6582 12.3438 9.6582L11.0254 9.6582C10.8594 9.6582 10.752 9.78516 10.752 9.94141L10.752 10.7129L9.70703 10.7129C9.53125 10.7129 9.41406 10.8398 9.41406 10.9961L9.41406 11.7676L8.36914 11.7676C8.22266 11.7676 8.08594 11.8945 8.08594 12.0508L8.08594 12.8223L7.04102 12.8223C6.89453 12.8223 6.75781 12.9492 6.75781 13.0957C6.75781 13.2422 6.88477 13.3887 7.04102 13.3887Z" fill="white" fill-opacity="0.85"/>
 </g>
</svg>
