<?xml version="1.0" encoding="UTF-8"?>
<!--Generator: Apple Native CoreSVG 326-->
<!DOCTYPE svg
PUBLIC "-//W3C//DTD SVG 1.1//EN"
       "http://www.w3.org/Graphics/SVG/1.1/DTD/svg11.dtd">
<svg version="1.1" xmlns="http://www.w3.org/2000/svg" xmlns:xlink="http://www.w3.org/1999/xlink" viewBox="0 0 16.1328 15.7715">
 <g>
  <rect height="15.7715" opacity="0" width="16.1328" x="0" y="0"/>
  <path d="M15.7715 7.88086C15.7715 12.2266 12.2363 15.7617 7.88086 15.7617C3.53516 15.7617 0 12.2266 0 7.88086C0 3.53516 3.53516 0 7.88086 0C12.2363 0 15.7715 3.53516 15.7715 7.88086ZM7.02148 6.21094C6.71875 6.21094 6.44531 6.34766 6.25977 6.57227L5.14648 7.91016L4.07227 6.82617C3.87695 6.64062 3.56445 6.64062 3.37891 6.82617C3.17383 7.02148 3.18359 7.32422 3.37891 7.51953L4.84375 9.00391C5.04883 9.19922 5.37109 9.19922 5.57617 8.95508L6.50391 7.82227C6.5625 7.75391 6.66016 7.7832 6.66016 7.87109L6.66016 9.82422L5 9.62891C4.43359 9.57031 4.24805 10.4102 4.78516 10.5859L6.66992 11.2012C6.58203 11.5918 6.92383 11.9238 7.30469 11.8066L7.89062 11.6113L8.4668 11.8066C8.85742 11.9238 9.17969 11.5918 9.0918 11.2012L10.9766 10.5859C11.5234 10.4102 11.3477 9.57031 10.7617 9.62891L9.11133 9.82422L9.11133 7.87109C9.11133 7.7832 9.20898 7.75391 9.26758 7.82227L10.1953 8.95508C10.3906 9.19922 10.7227 9.19922 10.9277 9.00391L12.3926 7.51953C12.5879 7.32422 12.5977 7.02148 12.3926 6.82617C12.207 6.64062 11.8945 6.64062 11.6992 6.82617L10.6152 7.91016L9.50195 6.57227C9.32617 6.34766 9.05273 6.21094 8.75977 6.21094ZM6.92383 4.78516C6.92383 5.32227 7.35352 5.75195 7.89062 5.75195C8.41797 5.75195 8.84766 5.32227 8.84766 4.78516C8.84766 4.26758 8.41797 3.83789 7.89062 3.83789C7.35352 3.83789 6.92383 4.26758 6.92383 4.78516Z" fill="white" fill-opacity="0.85"/>
 </g>
</svg>
