<?xml version="1.0" encoding="UTF-8"?>
<!--Generator: Apple Native CoreSVG 326-->
<!DOCTYPE svg
PUBLIC "-//W3C//DTD SVG 1.1//EN"
       "http://www.w3.org/Graphics/SVG/1.1/DTD/svg11.dtd">
<svg version="1.1" xmlns="http://www.w3.org/2000/svg" xmlns:xlink="http://www.w3.org/1999/xlink" viewBox="0 0 16.1328 15.7715">
 <g>
  <rect height="15.7715" opacity="0" width="16.1328" x="0" y="0"/>
  <path d="M15.7715 7.88086C15.7715 12.2266 12.2363 15.7617 7.88086 15.7617C3.53516 15.7617 0 12.2266 0 7.88086C0 3.53516 3.53516 0 7.88086 0C12.2363 0 15.7715 3.53516 15.7715 7.88086ZM9.74609 11.2891C9.74609 11.6016 10 11.8652 10.332 11.8652C10.6445 11.8652 10.9082 11.6016 10.9082 11.2891C10.9082 10.957 10.6445 10.6934 10.332 10.6934C10 10.6934 9.74609 10.957 9.74609 11.2891ZM5.52734 6.11328C4.80469 6.50391 4.6582 7.37305 5.35156 7.91992L6.93359 9.16992L5.97656 10.8984C5.85938 11.1035 5.94727 11.3477 6.15234 11.4648C6.30859 11.5625 6.58203 11.5234 6.70898 11.2988L7.83203 9.23828C7.92969 9.08203 7.89062 8.89648 7.77344 8.75977L6.52344 7.42188L6.88477 7.20703L5.77148 6.16211C5.73242 6.12305 5.69336 6.08398 5.6543 6.04492ZM7.04102 4.80469L6.13281 5.13672C5.87891 5.23438 5.74219 5.57617 6.01562 5.83984L8.35938 8.02734C8.47656 8.13477 8.64258 8.16406 8.78906 8.11523L9.49219 8.76953L9.49219 8.86719C9.49219 9.10156 9.67773 9.29688 9.90234 9.29688C9.94141 9.29688 9.99023 9.28711 10.0293 9.27734L11.7383 10.8789C11.9238 11.0547 12.1582 11.1426 12.4023 11.1426C12.8418 11.123 13.1641 10.8105 13.1445 10.3809C13.1445 10.1855 13.0078 9.96094 12.7832 9.9707C12.627 9.9707 12.5391 10.0781 12.5391 10.2246L12.5391 10.3711C12.5391 10.5176 12.3633 10.6152 12.1973 10.4688L10.332 8.81836L10.332 6.99219C10.332 6.86523 10.2637 6.75781 10.1367 6.65039L8.34961 5C8.00781 4.66797 7.4707 4.63867 7.04102 4.80469ZM4.51172 8.99414L2.82227 8.99414C2.59766 8.99414 2.41211 9.17969 2.41211 9.42383C2.41211 9.63867 2.59766 9.83398 2.82227 9.83398L4.80469 9.83398C4.9707 9.83398 5.10742 9.72656 5.17578 9.60938L5.6543 8.65234L5.10742 8.23242C5 8.13477 4.90234 8.04688 4.83398 7.96875ZM8.71094 6.46484L9.49219 7.1875L9.49219 8.07617L9.0625 7.70508C9.0625 7.60742 9.01367 7.49023 8.92578 7.41211L8.0957 6.63086L8.47656 6.43555C8.55469 6.39648 8.64258 6.40625 8.71094 6.46484ZM8.66211 4.29688C8.66211 4.82422 9.10156 5.25391 9.62891 5.25391C10.1465 5.25391 10.5762 4.82422 10.5762 4.29688C10.5762 3.76953 10.1465 3.33984 9.62891 3.33984C9.10156 3.33984 8.66211 3.76953 8.66211 4.29688Z" fill="white" fill-opacity="0.85"/>
 </g>
</svg>
