<svg version="1.1" xmlns="http://www.w3.org/2000/svg" xmlns:xlink="http://www.w3.org/1999/xlink" viewBox="0 0 16.1328 15.7715">
 <g>
  <rect height="15.7715" opacity="0" width="16.1328" x="0" y="0"/>
  <path d="M15.7715 7.88086C15.7715 12.2266 12.2363 15.7617 7.88086 15.7617C3.53516 15.7617 0 12.2266 0 7.88086C0 3.53516 3.53516 0 7.88086 0C12.2363 0 15.7715 3.53516 15.7715 7.88086ZM10.8789 4.96094C10.8789 5.69336 11.4258 6.50391 11.6602 6.80664L11.6602 7.37305C11.6211 7.37305 11.582 7.37305 11.543 7.37305L10.0586 7.37305L8.16406 5.47852C7.93945 5.25391 7.63672 5.13672 7.31445 5.13672L3.58398 5.13672C3.33984 5.13672 3.13477 5.33203 3.13477 5.57617C3.13477 5.82031 3.33984 6.02539 3.58398 6.02539L6.39648 6.02539C6.43555 6.02539 6.45508 6.10352 6.41602 6.13281L5.57617 6.54297C5.13672 6.76758 4.91211 7.17773 4.91211 7.58789C4.91211 7.95898 5.07812 8.32031 5.40039 8.56445L7.05078 9.76562L6.09375 11.6699C5.9375 11.9727 6.10352 12.2168 6.33789 12.3047C6.5332 12.373 6.77734 12.3242 6.9043 12.0605L8.03711 9.82422C8.11523 9.64844 8.10547 9.45312 7.94922 9.29688L6.5918 7.93945L8.31055 7.08984C8.38867 7.05078 8.47656 7.07031 8.54492 7.12891L9.56055 8.13477C9.63867 8.22266 9.74609 8.27148 9.86328 8.27148L11.7969 8.27148C12.041 8.27148 12.2363 8.06641 12.2363 7.82227L12.2363 6.81641C12.4707 6.5332 13.0273 5.70312 13.0273 4.96094C13.0273 4.33594 12.5879 3.88672 11.9531 3.88672C11.3379 3.88672 10.8789 4.33594 10.8789 4.96094ZM4.38477 9.61914L2.65625 9.61914C2.41211 9.61914 2.2168 9.82422 2.2168 10.0684C2.2168 10.3125 2.41211 10.5176 2.65625 10.5176L4.7168 10.5176C4.88281 10.5176 5.03906 10.4199 5.10742 10.2734L5.625 9.22852L5.16602 8.88672C4.90234 8.70117 4.80469 8.53516 4.76562 8.45703ZM12.4414 4.96094C12.4414 5.3418 12.168 5.83984 11.9531 6.19141C11.7383 5.83984 11.4746 5.3418 11.4746 4.96094C11.4746 4.67773 11.6602 4.47266 11.9531 4.47266C12.2559 4.47266 12.4414 4.67773 12.4414 4.96094ZM8.45703 4.66797C8.45703 5.20508 8.88672 5.63477 9.41406 5.63477C9.94141 5.63477 10.3711 5.20508 10.3711 4.66797C10.3711 4.14062 9.94141 3.71094 9.41406 3.71094C8.88672 3.71094 8.45703 4.14062 8.45703 4.66797Z" fill="var(--color-primary)"/>
 </g>
</svg>
