<?xml version="1.0" encoding="UTF-8"?>
<!--Generator: Apple Native CoreSVG 326-->
<!DOCTYPE svg
PUBLIC "-//W3C//DTD SVG 1.1//EN"
       "http://www.w3.org/Graphics/SVG/1.1/DTD/svg11.dtd">
<svg version="1.1" xmlns="http://www.w3.org/2000/svg" xmlns:xlink="http://www.w3.org/1999/xlink" viewBox="0 0 16.1328 15.7715">
 <g>
  <rect height="15.7715" opacity="0" width="16.1328" x="0" y="0"/>
  <path d="M7.88086 15.7617C12.2363 15.7617 15.7715 12.2363 15.7715 7.88086C15.7715 3.52539 12.2363 0 7.88086 0C3.53516 0 0 3.52539 0 7.88086C0 12.2363 3.53516 15.7617 7.88086 15.7617ZM7.88086 14.2773C4.3457 14.2773 1.49414 11.416 1.49414 7.88086C1.49414 4.3457 4.3457 1.48438 7.88086 1.48438C11.416 1.48438 14.2773 4.3457 14.2773 7.88086C14.2773 11.416 11.416 14.2773 7.88086 14.2773Z" fill="white" fill-opacity="0.85"/>
  <path d="M9.38477 5.22461C9.89258 5.22461 10.3027 4.81445 10.3027 4.30664C10.3027 3.78906 9.89258 3.37891 9.38477 3.37891C8.86719 3.37891 8.45703 3.78906 8.45703 4.30664C8.45703 4.81445 8.86719 5.22461 9.38477 5.22461ZM6.08398 10.7617C6.2793 10.8789 6.5625 10.8203 6.68945 10.6152L7.73438 8.95508L8.85742 9.01367L8.1543 10.1465C8.02734 10.3516 8.07617 10.6445 8.29102 10.7617C8.50586 10.8789 8.76953 10.8301 8.89648 10.6152L9.99023 8.86719C10.1758 8.57422 10.0195 8.21289 9.61914 8.16406L7.77344 7.95898C7.59766 7.93945 7.5293 7.75391 7.61719 7.61719L8.37891 6.46484C8.42773 6.39648 8.52539 6.37695 8.59375 6.41602L11.3965 8.10547C11.6016 8.22266 11.8848 8.16406 12.002 7.95898C12.1289 7.73438 12.0605 7.4707 11.8555 7.34375L6.31836 4.01367C6.25 3.96484 6.17188 3.96484 6.09375 3.96484L4.32617 3.96484C4.08203 3.96484 3.87695 4.16016 3.87695 4.39453C3.87695 4.63867 4.08203 4.84375 4.32617 4.84375L5.9668 4.84375L6.73828 5.30273C6.82617 5.35156 6.85547 5.44922 6.79688 5.53711L5.83984 6.97266C5.32227 7.74414 5.75195 8.7793 6.71875 8.89648L5.9375 10.1465C5.81055 10.3516 5.86914 10.6348 6.08398 10.7617ZM4.98047 11.8066L10.7617 11.8066C11.2305 11.8066 11.6406 11.709 11.9531 11.4355C12.1094 11.3086 12.0996 11.1426 12.002 11.0352C11.9238 10.918 11.748 10.8789 11.582 10.9961C11.377 11.1621 11.1523 11.2402 10.7617 11.2402L4.98047 11.2402C4.58984 11.2402 4.36523 11.1621 4.16016 10.9961C3.99414 10.8887 3.84766 10.918 3.75 11.0156C3.64258 11.1133 3.62305 11.3086 3.78906 11.4355C4.10156 11.709 4.51172 11.8066 4.98047 11.8066Z" fill="white" fill-opacity="0.85"/>
 </g>
</svg>
