<?xml version="1.0" encoding="UTF-8"?>
<!--Generator: Apple Native CoreSVG 326-->
<!DOCTYPE svg
PUBLIC "-//W3C//DTD SVG 1.1//EN"
       "http://www.w3.org/Graphics/SVG/1.1/DTD/svg11.dtd">
<svg version="1.1" xmlns="http://www.w3.org/2000/svg" xmlns:xlink="http://www.w3.org/1999/xlink" viewBox="0 0 16.1328 15.7715">
 <g>
  <rect height="15.7715" opacity="0" width="16.1328" x="0" y="0"/>
  <path d="M7.88086 15.7617C12.2363 15.7617 15.7715 12.2363 15.7715 7.88086C15.7715 3.52539 12.2363 0 7.88086 0C3.53516 0 0 3.52539 0 7.88086C0 12.2363 3.53516 15.7617 7.88086 15.7617ZM7.88086 14.2773C4.3457 14.2773 1.49414 11.416 1.49414 7.88086C1.49414 4.3457 4.3457 1.48438 7.88086 1.48438C11.416 1.48438 14.2773 4.3457 14.2773 7.88086C14.2773 11.416 11.416 14.2773 7.88086 14.2773Z" fill="white" fill-opacity="0.85"/>
  <path d="M3.94531 7.23633C4.45312 7.23633 4.87305 6.82617 4.87305 6.30859C4.87305 5.81055 4.45312 5.40039 3.94531 5.40039C3.44727 5.40039 3.02734 5.81055 3.02734 6.30859C3.02734 6.82617 3.44727 7.23633 3.94531 7.23633ZM6.70898 9.78516L7.91016 9.78516C8.91602 9.78516 9.18945 9.20898 9.11133 8.55469L8.83789 6.33789L10.5078 6.33789C10.752 6.33789 10.9375 6.14258 10.9375 5.89844C10.9375 5.6543 10.752 5.46875 10.5078 5.46875L8.30078 5.46875C8.04688 5.46875 7.86133 5.64453 7.86133 5.9375L7.86133 8.17383L7.13867 8.17383C6.74805 8.17383 6.42578 8.03711 6.24023 7.74414C6.20117 7.67578 6.20117 7.56836 6.2793 7.48047L7.36328 6.19141C7.61719 5.88867 7.41211 5.46875 7.05078 5.46875L5.51758 5.46875C5.2832 5.46875 5.08789 5.6543 5.08789 5.89844C5.08789 6.14258 5.27344 6.33789 5.51758 6.33789L6.14258 6.33789L5.50781 7.08984C5.05859 7.62695 4.63867 7.97852 3.97461 8.29102L3.32031 8.59375L3.52539 7.85156C3.59375 7.61719 3.42773 7.38281 3.21289 7.32422C2.96875 7.26562 2.73438 7.41211 2.67578 7.63672L2.26562 9.23828C2.1582 9.66797 2.53906 9.89258 2.91016 9.72656L4.27734 9.12109C4.41406 9.0625 4.49219 9.07227 4.59961 9.15039C5.03906 9.53125 5.74219 9.78516 6.70898 9.78516ZM13.4473 7.91992L11.3281 7.91992C11.2988 7.91992 11.25 7.92969 11.2012 7.92969L9.43359 8.08594L9.49219 8.50586C9.52148 8.74023 9.51172 8.97461 9.45312 9.18945L11.3672 8.79883L13.4473 8.79883C13.6914 8.79883 13.8867 8.60352 13.8867 8.35938C13.8867 8.11523 13.6914 7.91992 13.4473 7.91992Z" fill="white" fill-opacity="0.85"/>
 </g>
</svg>
