<?xml version="1.0" encoding="UTF-8"?>
<!--Generator: Apple Native CoreSVG 326-->
<!DOCTYPE svg
PUBLIC "-//W3C//DTD SVG 1.1//EN"
       "http://www.w3.org/Graphics/SVG/1.1/DTD/svg11.dtd">
<svg version="1.1" xmlns="http://www.w3.org/2000/svg" xmlns:xlink="http://www.w3.org/1999/xlink" viewBox="0 0 16.1328 15.7715">
 <g>
  <rect height="15.7715" opacity="0" width="16.1328" x="0" y="0"/>
  <path d="M7.88086 15.7617C12.2363 15.7617 15.7715 12.2363 15.7715 7.88086C15.7715 3.52539 12.2363 0 7.88086 0C3.53516 0 0 3.52539 0 7.88086C0 12.2363 3.53516 15.7617 7.88086 15.7617ZM7.88086 14.2773C4.3457 14.2773 1.49414 11.416 1.49414 7.88086C1.49414 4.3457 4.3457 1.48438 7.88086 1.48438C11.416 1.48438 14.2773 4.3457 14.2773 7.88086C14.2773 11.416 11.416 14.2773 7.88086 14.2773Z" fill="white" fill-opacity="0.85"/>
  <path d="M9.0332 5.29297C9.54102 5.29297 9.96094 4.87305 9.96094 4.36523C9.96094 3.86719 9.54102 3.44727 9.0332 3.44727C8.52539 3.44727 8.11523 3.86719 8.11523 4.36523C8.11523 4.87305 8.52539 5.29297 9.0332 5.29297ZM10.2148 12.6074C10.4004 12.5391 10.5371 12.3438 10.4688 12.0898L9.83398 9.86328C9.80469 9.75586 9.74609 9.67773 9.63867 9.61914L8.31055 8.83789L8.93555 6.95312C8.98438 6.80664 9.14062 6.79688 9.24805 6.9043L10.1855 7.8418C10.2734 7.91992 10.3711 7.95898 10.4883 7.95898C10.5957 7.95898 10.7031 7.92969 10.791 7.8418L12.0605 6.5625C12.2266 6.39648 12.2363 6.13281 12.0605 5.9668C11.8945 5.80078 11.6406 5.80078 11.4648 5.9668L10.4883 6.94336L9.66797 6.10352C9.29688 5.71289 8.89648 5.63477 8.11523 5.63477L4.20898 5.63477C3.97461 5.63477 3.7793 5.82031 3.7793 6.06445C3.7793 6.28906 3.97461 6.48438 4.20898 6.48438L7.08008 6.48438C7.20703 6.48438 7.32422 6.58203 7.26562 6.74805L6.76758 8.22266C6.58203 8.75977 6.83594 9.30664 7.34375 9.53125L9.0625 10.293L9.6582 12.3145C9.74609 12.6074 10.0098 12.6855 10.2148 12.6074ZM4.82422 12.4609C4.93164 12.6172 5.14648 12.7148 5.39062 12.5781L7.28516 11.5234C7.38281 11.4746 7.45117 11.3867 7.49023 11.2793L7.85156 10.1855L7.1875 9.89258C7.04102 9.82422 6.97266 9.79492 6.96289 9.76562L6.71875 10.8691L4.98047 11.8359C4.7168 11.9824 4.69727 12.2754 4.82422 12.4609ZM10.6934 8.99414L13.1445 8.99414L13.1445 8.41797L10.6934 8.41797C10.5371 8.41797 10.4102 8.55469 10.4102 8.71094C10.4102 8.85742 10.5371 8.99414 10.6934 8.99414ZM4.31641 5.81055L4.84375 5.81055L4.84375 5.15625L4.31641 5.15625ZM4.57031 3.59375C4.13086 3.59375 3.7793 3.94531 3.7793 4.39453C3.7793 4.80469 4.13086 5.2832 4.57031 5.39062C5.01953 5.2832 5.37109 4.80469 5.37109 4.39453C5.37109 3.94531 5.01953 3.59375 4.57031 3.59375Z" fill="white" fill-opacity="0.85"/>
 </g>
</svg>
