<?xml version="1.0" encoding="UTF-8"?>
<!--Generator: Apple Native CoreSVG 326-->
<!DOCTYPE svg
PUBLIC "-//W3C//DTD SVG 1.1//EN"
       "http://www.w3.org/Graphics/SVG/1.1/DTD/svg11.dtd">
<svg version="1.1" xmlns="http://www.w3.org/2000/svg" xmlns:xlink="http://www.w3.org/1999/xlink" viewBox="0 0 13.8575 19.0527">
 <g>
  <rect height="19.0527" opacity="0" width="13.8575" x="0" y="0"/>
  <path d="M6.13284 5C7.07034 5 7.8223 4.24805 7.8223 3.30078C7.8223 2.36328 7.07034 1.61133 6.13284 1.61133C5.18558 1.61133 4.42386 2.36328 4.42386 3.30078C4.42386 4.24805 5.18558 5 6.13284 5ZM1.83597 18.8965C2.27542 18.9746 2.67581 18.6914 2.7637 18.2324L3.49612 14.2578L6.59183 12.5781C6.68948 12.5195 6.76761 12.5488 6.80667 12.6367L8.36917 16.4062C8.45706 16.6113 8.60355 16.748 8.77933 16.8457L12.295 18.7988C12.7344 19.0527 13.2032 18.8477 13.3887 18.4961C13.6133 18.1055 13.4668 17.6074 13.0762 17.3926L9.80472 15.5762L7.58792 6.69922C7.4512 6.17188 7.00198 5.79102 6.42581 5.79102L1.66995 5.79102L3.89652 1.06445C4.19925 0.419922 3.74027 0 3.28128 0C3.01761 0 2.75394 0.136719 2.62698 0.458984L0.0488592 7.14844C-0.0683283 7.48047 0.0390936 7.77344 0.22464 7.95898L2.20706 9.95117C2.5098 10.2539 3.03714 10.2539 3.33987 9.95117L4.21878 9.0625C4.33597 8.94531 4.51175 8.94531 4.56058 9.12109L5.03909 11.0254L2.28519 13.0859C2.08987 13.2324 2.00198 13.4668 1.96292 13.6914L1.19144 17.9492C1.11331 18.3789 1.40628 18.8086 1.83597 18.8965ZM3.59378 7.39258L2.77347 8.22266L1.94339 7.39258Z" fill="white" fill-opacity="0.85"/>
 </g>
</svg>
