<?xml version="1.0" encoding="UTF-8"?>
<!--Generator: Apple Native CoreSVG 326-->
<!DOCTYPE svg
PUBLIC "-//W3C//DTD SVG 1.1//EN"
       "http://www.w3.org/Graphics/SVG/1.1/DTD/svg11.dtd">
<svg version="1.1" xmlns="http://www.w3.org/2000/svg" xmlns:xlink="http://www.w3.org/1999/xlink" viewBox="0 0 16.6809 19.6777">
 <g>
  <rect height="19.6777" opacity="0" width="16.6809" x="0" y="0"/>
  <path d="M7.39317 5.32227C8.3209 5.32227 9.09238 4.56055 9.09238 3.62305C9.09238 2.68555 8.3209 1.92383 7.39317 1.92383C6.45567 1.92383 5.69395 2.68555 5.69395 3.62305C5.69395 4.56055 6.45567 5.32227 7.39317 5.32227ZM3.27207 17.1191L6.90488 17.1191C7.20762 17.1191 7.50059 16.9824 7.65684 16.6895L9.31699 13.6328C9.37559 13.5156 9.52207 13.5254 9.56113 13.6426L10.44 15.9766L7.30527 18.0664C6.93418 18.3203 6.83652 18.8184 7.08067 19.1992C7.32481 19.5801 7.82285 19.668 8.20371 19.4238L11.7682 17.0508C12.1295 16.8066 12.3053 16.4258 12.1979 16.0059L10.0201 7.35352C9.94199 7.06055 10.0201 6.9043 10.235 6.79688L15.8697 3.98438C16.2799 3.7793 16.4361 3.28125 16.2408 2.89062C16.0357 2.48047 15.5475 2.31445 15.1373 2.51953L3.44785 8.37891L1.61192 6.54297C1.52402 6.45508 1.4459 6.37695 1.35801 6.30859L3.12559 3.20312L2.29551 2.72461L0.108009 6.57227C-0.0775376 6.88477-0.0189438 7.2168 0.244728 7.49023L2.6959 9.94141C2.91074 10.1562 3.30137 10.2734 3.71152 10.0684L6.4752 8.67188C6.67051 8.57422 6.84629 8.66211 6.88535 8.82812L7.71543 12.1777L6.38731 15.4883L3.27207 15.4883C2.81309 15.4883 2.45176 15.8496 2.45176 16.2988C2.45176 16.748 2.81309 17.1191 3.27207 17.1191ZM3.3209 3.4668C4.27793 3.4668 5.05918 2.68555 5.05918 1.72852C5.05918 0.771484 4.27793 0 3.3209 0C2.36387 0 1.58262 0.771484 1.58262 1.72852C1.58262 2.68555 2.36387 3.4668 3.3209 3.4668ZM3.3209 2.51953C2.86192 2.51953 2.52988 2.1875 2.52988 1.72852C2.52988 1.2793 2.86192 0.9375 3.3209 0.9375C3.77012 0.9375 4.11192 1.2793 4.11192 1.72852C4.11192 2.1875 3.77012 2.51953 3.3209 2.51953Z" fill="white" fill-opacity="0.85"/>
 </g>
</svg>
