<?xml version="1.0" encoding="UTF-8"?>
<!--Generator: Apple Native CoreSVG 326-->
<!DOCTYPE svg
PUBLIC "-//W3C//DTD SVG 1.1//EN"
       "http://www.w3.org/Graphics/SVG/1.1/DTD/svg11.dtd">
<svg version="1.1" xmlns="http://www.w3.org/2000/svg" xmlns:xlink="http://www.w3.org/1999/xlink" viewBox="0 0 16.1328 15.7715">
 <g>
  <rect height="15.7715" opacity="0" width="16.1328" x="0" y="0"/>
  <path d="M7.88086 15.7617C12.2363 15.7617 15.7715 12.2363 15.7715 7.88086C15.7715 3.52539 12.2363 0 7.88086 0C3.53516 0 0 3.52539 0 7.88086C0 12.2363 3.53516 15.7617 7.88086 15.7617ZM7.88086 14.2773C4.3457 14.2773 1.49414 11.416 1.49414 7.88086C1.49414 4.3457 4.3457 1.48438 7.88086 1.48438C11.416 1.48438 14.2773 4.3457 14.2773 7.88086C14.2773 11.416 11.416 14.2773 7.88086 14.2773Z" fill="white" fill-opacity="0.85"/>
  <path d="M3.39844 8.98438C3.90625 8.98438 4.31641 8.56445 4.31641 8.05664C4.31641 7.54883 3.90625 7.12891 3.39844 7.12891C2.88086 7.12891 2.4707 7.54883 2.4707 8.05664C2.4707 8.56445 2.88086 8.98438 3.39844 8.98438ZM4.38477 9.26758C4.21875 9.6875 4.38477 10.1172 4.73633 10.3711C5.30273 10.7617 5.83984 10.9082 6.68945 10.9082L8.03711 10.9082C9.07227 10.9082 9.35547 10.0977 9.00391 9.41406L7.91016 7.31445L7.91016 4.33594C7.91016 4.08203 7.71484 3.89648 7.46094 3.89648C7.22656 3.89648 7.03125 4.08203 7.03125 4.33594L7.03125 7.42188C7.03125 7.48047 7.04102 7.5293 7.05078 7.56836L7.66602 9.32617L6.86523 9.32617C6.35742 9.32617 6.06445 9.17969 5.66406 8.93555C5.55664 8.87695 5.51758 8.7793 5.56641 8.66211L6.55273 6.13281C6.64062 5.9082 6.5332 5.6543 6.30859 5.56641C6.06445 5.47852 5.82031 5.58594 5.73242 5.82031ZM9.58984 10.2246L11.1426 9.7168L13.0859 9.36523C13.3301 9.32617 13.4863 9.10156 13.4375 8.84766C13.3984 8.60352 13.1641 8.44727 12.9199 8.49609L10.9082 8.86719L9.375 9.14062L9.4043 9.19922C9.58008 9.55078 9.64844 9.91211 9.58984 10.2246Z" fill="white" fill-opacity="0.85"/>
 </g>
</svg>
