<svg version="1.1" xmlns="http://www.w3.org/2000/svg" xmlns:xlink="http://www.w3.org/1999/xlink" viewBox="0 0 16.1328 15.7715">
 <g>
  <rect height="15.7715" opacity="0" width="16.1328" x="0" y="0"/>
  <path d="M15.7715 7.88086C15.7715 12.2266 12.2363 15.7617 7.88086 15.7617C3.53516 15.7617 0 12.2266 0 7.88086C0 3.53516 3.53516 0 7.88086 0C12.2363 0 15.7715 3.53516 15.7715 7.88086ZM6.5918 2.19727L6.37695 2.44141C6.25 2.57812 6.25 2.77344 6.40625 2.90039L8.71094 4.99023C8.85742 5.10742 9.02344 5.09766 9.16016 4.9707L9.41406 5.19531L7.4707 7.13867C7.24609 7.36328 7.10938 7.63672 7.08008 7.96875L6.68945 12.2168L5.03906 12.2168C4.78516 12.2168 4.59961 12.4121 4.59961 12.666C4.59961 12.9199 4.78516 13.125 5.03906 13.125L7.10938 13.125C7.38281 13.125 7.50977 12.9883 7.55859 12.7441L7.93945 10.625L9.7168 10.625L9.375 12.5879C9.32617 12.9004 9.52148 13.1055 9.75586 13.125C9.9707 13.1445 10.2148 13.0371 10.2637 12.7441L10.7031 10.3027C10.7617 9.96094 10.5664 9.75586 10.3125 9.72656L8.73047 9.56055L8.87695 8.04688C8.88672 7.96875 8.93555 7.91992 9.00391 7.91992L10.2637 7.91992C10.5176 7.91992 10.7227 7.70508 10.7227 7.46094L10.7227 4.99023C10.7227 4.79492 10.6152 4.62891 10.4395 4.57031C10.2637 4.50195 10.0879 4.53125 9.95117 4.6582L9.67773 4.93164L9.42383 4.70703C9.55078 4.57031 9.52148 4.375 9.38477 4.25781L7.07031 2.16797C6.92383 2.04102 6.70898 2.05078 6.5918 2.19727ZM9.82422 7.01172L8.88672 7.01172L9.82422 6.06445ZM6.16211 5.50781C6.16211 6.04492 6.5918 6.47461 7.12891 6.47461C7.64648 6.47461 8.07617 6.04492 8.07617 5.50781C8.07617 4.98047 7.64648 4.55078 7.12891 4.55078C6.5918 4.55078 6.16211 4.98047 6.16211 5.50781Z" fill="var(--color-primary)"/>
 </g>
</svg>
