<?xml version="1.0" encoding="UTF-8"?>
<!--Generator: Apple Native CoreSVG 326-->
<!DOCTYPE svg
PUBLIC "-//W3C//DTD SVG 1.1//EN"
       "http://www.w3.org/Graphics/SVG/1.1/DTD/svg11.dtd">
<svg version="1.1" xmlns="http://www.w3.org/2000/svg" xmlns:xlink="http://www.w3.org/1999/xlink" viewBox="0 0 12.6392 18.252">
 <g>
  <rect height="18.252" opacity="0" width="12.6392" x="0" y="0"/>
  <path d="M10.4554 3.39844C11.3929 3.39844 12.1448 2.63672 12.1448 1.68945C12.1448 0.751953 11.3929 0 10.4554 0C9.5081 0 8.74638 0.751953 8.74638 1.68945C8.74638 2.63672 9.5081 3.39844 10.4554 3.39844ZM6.58818 15.3809C7.0374 15.3809 7.40849 15.0195 7.40849 14.5801L7.40849 10.498C7.40849 10.3027 7.34013 10.127 7.22294 9.99023L5.37724 7.73438C5.26005 7.58789 5.29912 7.43164 5.4456 7.35352L7.68193 6.19141C7.84794 6.10352 8.01396 6.16211 8.04326 6.34766L8.23857 7.73438C8.27763 8.03711 8.45341 8.24219 8.77568 8.39844L10.9925 9.51172C11.5979 9.81445 12.0667 9.58008 12.2229 9.19922C12.3694 8.83789 12.2522 8.35938 11.7542 8.10547L9.77177 7.09961L9.45927 4.74609C9.28349 3.49609 7.89677 2.72461 6.57841 3.41797L3.65849 4.94141C2.31083 5.64453 2.12529 7.17773 3.13115 8.17383L5.79716 10.8398L5.79716 14.5801C5.79716 15.0195 6.15849 15.3809 6.58818 15.3809ZM0.35771 10.3418C0.660444 10.8887 1.22685 11.0547 1.79326 10.9277L3.47294 10.5566C3.70732 10.5078 3.8538 10.332 3.8538 10.0879C3.8538 9.85352 3.68779 9.67773 3.45341 9.63867L0.582319 9.14062C0.103803 9.05273-0.140337 9.44336 0.0842722 9.84375ZM1.6663 10.3906L3.76591 16.6113L4.69365 16.2891L2.62333 10.1074ZM6.56865 18.2324C8.31669 18.2324 9.70341 16.8262 9.70341 15.1074C9.70341 13.8965 9.01005 12.8516 8.00419 12.334L8.00419 13.6035C8.40458 13.9844 8.63896 14.5117 8.63896 15.1074C8.63896 16.2402 7.71123 17.168 6.56865 17.168C5.45537 17.168 4.51787 16.2207 4.51787 15.1074C4.51787 14.5117 4.78154 13.9648 5.19169 13.5742L5.19169 12.3145C4.1663 12.8027 3.44365 13.8867 3.44365 15.1074C3.44365 16.8262 4.86943 18.2324 6.56865 18.2324ZM8.44365 16.3867L9.39091 16.709L11.3147 10.8398C11.4026 10.5957 11.2659 10.293 11.0218 10.2148C10.7386 10.1367 10.4847 10.2832 10.4065 10.5371ZM2.28154 17.5C1.94951 17.7246 2.0374 18.2324 2.43779 18.2324L10.6995 18.2324C11.0999 18.2324 11.1976 17.7148 10.8655 17.5L9.02958 16.2988L7.36943 17.4414L5.77763 17.4414L4.10771 16.2988Z" fill="white" fill-opacity="0.85"/>
 </g>
</svg>
