<?xml version="1.0" encoding="UTF-8"?>
<!--Generator: Apple Native CoreSVG 326-->
<!DOCTYPE svg
PUBLIC "-//W3C//DTD SVG 1.1//EN"
       "http://www.w3.org/Graphics/SVG/1.1/DTD/svg11.dtd">
<svg version="1.1" xmlns="http://www.w3.org/2000/svg" xmlns:xlink="http://www.w3.org/1999/xlink" viewBox="0 0 15.2539 15.8154">
 <g>
  <rect height="15.8154" opacity="0" width="15.2539" x="0" y="0"/>
  <path d="M2.08984 4.25049C0.927734 4.25049 0 3.27393 0 2.15088C0 0.979004 0.927734 0.0219727 2.08984 0.0219727C3.26172 0.0219727 4.20898 0.979004 4.20898 2.15088C4.20898 3.28369 3.26172 4.25049 2.08984 4.25049ZM14.5996 15.3638C14.1992 15.7837 13.5156 15.7544 13.0176 15.2466L9.66797 11.7993C9.56055 11.6821 9.48242 11.6528 9.31641 11.7212L6.74805 12.6978C5.05859 13.3325 3.4668 12.8247 2.75391 11.5259L1.03516 8.41064C0.390625 7.21924 0.595703 5.99854 1.71875 5.39307C2.82227 4.7876 3.95508 5.24658 4.61914 6.45752L6.79688 10.4321L8.65234 9.7583C9.56055 9.42627 10.332 9.53369 11.0645 10.2856L14.5312 13.8794C15.0195 14.3774 14.9707 14.9927 14.5996 15.3638Z" fill="white" fill-opacity="0.85"/>
  <path d="M12.0117 8.07861C12.4316 8.07861 12.7539 7.74658 12.7539 7.32666L12.7539 3.84033L14.1211 3.84033C14.8242 3.84033 15.1367 3.14697 14.668 2.61963L12.5293 0.256348C12.2266-0.0854492 11.8262-0.0854492 11.5137 0.256348L9.375 2.61963C8.93555 3.11768 9.17969 3.84033 9.91211 3.84033L11.2695 3.84033L11.2695 7.32666C11.2695 7.74658 11.5918 8.07861 12.0117 8.07861Z" fill="white" fill-opacity="0.85"/>
 </g>
</svg>
