<?xml version="1.0" encoding="UTF-8"?>
<!--Generator: Apple Native CoreSVG 326-->
<!DOCTYPE svg
PUBLIC "-//W3C//DTD SVG 1.1//EN"
       "http://www.w3.org/Graphics/SVG/1.1/DTD/svg11.dtd">
<svg version="1.1" xmlns="http://www.w3.org/2000/svg" xmlns:xlink="http://www.w3.org/1999/xlink" viewBox="0 0 16.1328 15.7715">
 <g>
  <rect height="15.7715" opacity="0" width="16.1328" x="0" y="0"/>
  <path d="M15.7715 7.88086C15.7715 12.2266 12.2363 15.7617 7.88086 15.7617C3.53516 15.7617 0 12.2266 0 7.88086C0 3.53516 3.53516 0 7.88086 0C12.2363 0 15.7715 3.53516 15.7715 7.88086ZM7.67578 5.06836C7.31445 5.06836 7.04102 5.12695 6.68945 5.39062L5.21484 6.49414C4.96094 6.67969 5 7.04102 5.25391 7.2168L7.04102 8.42773L7.04102 8.53516L6.25977 10.7227L4.31641 11.25C4.08203 11.3086 3.93555 11.5527 4.00391 11.7969C4.07227 12.041 4.30664 12.168 4.55078 12.0996L6.64062 11.5332C6.81641 11.4844 6.91406 11.4355 6.98242 11.2988L7.94922 9.57031C7.96875 9.53125 7.97852 9.52148 8.02734 9.52148L10.3906 9.52148L10.3906 11.748C10.3906 12.002 10.5859 12.1875 10.8301 12.1875C11.084 12.1875 11.2695 12.002 11.2695 11.748L11.2695 9.13086C11.2695 8.82812 11.1133 8.66211 10.8105 8.63281L8.82812 8.44727L8.82812 5.9668C8.82812 5.46875 8.48633 5.06836 7.88086 5.06836ZM7.04102 6.39648L7.04102 7.35352L6.25977 6.82617L6.92383 6.33789C6.97266 6.28906 7.04102 6.32812 7.04102 6.39648ZM6.91406 3.66211C6.91406 4.18945 7.34375 4.61914 7.88086 4.61914C8.4082 4.61914 8.83789 4.18945 8.83789 3.66211C8.83789 3.13477 8.4082 2.70508 7.88086 2.70508C7.34375 2.70508 6.91406 3.13477 6.91406 3.66211Z" fill="white" fill-opacity="0.85"/>
 </g>
</svg>
