<?xml version="1.0" encoding="UTF-8"?>
<!--Generator: Apple Native CoreSVG 326-->
<!DOCTYPE svg
PUBLIC "-//W3C//DTD SVG 1.1//EN"
       "http://www.w3.org/Graphics/SVG/1.1/DTD/svg11.dtd">
<svg version="1.1" xmlns="http://www.w3.org/2000/svg" xmlns:xlink="http://www.w3.org/1999/xlink" viewBox="0 0 16.1328 15.7715">
 <g>
  <rect height="15.7715" opacity="0" width="16.1328" x="0" y="0"/>
  <path d="M7.88086 15.7617C12.2363 15.7617 15.7715 12.2363 15.7715 7.88086C15.7715 3.52539 12.2363 0 7.88086 0C3.53516 0 0 3.52539 0 7.88086C0 12.2363 3.53516 15.7617 7.88086 15.7617ZM7.88086 14.2773C4.3457 14.2773 1.49414 11.416 1.49414 7.88086C1.49414 4.3457 4.3457 1.48438 7.88086 1.48438C11.416 1.48438 14.2773 4.3457 14.2773 7.88086C14.2773 11.416 11.416 14.2773 7.88086 14.2773Z" fill="white" fill-opacity="0.85"/>
  <path d="M9.0332 4.6582C9.55078 4.6582 9.95117 4.24805 9.95117 3.73047C9.95117 3.22266 9.55078 2.8125 9.0332 2.8125C8.52539 2.8125 8.11523 3.22266 8.11523 3.73047C8.11523 4.24805 8.52539 4.6582 9.0332 4.6582ZM4.45312 9.01367L6.88477 9.01367L9.14062 9.33594C9.98047 9.45312 10.5859 9.08203 10.5859 8.28125L10.5859 6.75781C10.5859 6.67969 10.6641 6.65039 10.7227 6.70898L11.1328 7.12891L11.1328 8.57422C11.1328 8.81836 11.3379 9.01367 11.5723 9.01367C11.8164 9.01367 12.0117 8.81836 12.0117 8.57422L12.0117 6.94336C12.0117 6.82617 11.9727 6.71875 11.8848 6.63086L10.8105 5.56641C10.498 5.25391 10.0879 5.07812 9.63867 5.07812L5.46875 5.07812C5.23438 5.07812 5.0293 5.2832 5.0293 5.51758C5.0293 5.76172 5.22461 5.95703 5.46875 5.95703L8.68164 5.95703C8.80859 5.95703 8.89648 6.05469 8.89648 6.17188L8.89648 8.13477L4.45312 8.13477C4.20898 8.13477 4.01367 8.33008 4.01367 8.57422C4.01367 8.81836 4.20898 9.01367 4.45312 9.01367ZM10.459 12.7539C10.6348 12.5879 10.625 12.3145 10.459 12.1387L9.0625 10.7227L9.56055 9.74609C9.41406 9.75586 9.24805 9.74609 9.08203 9.72656L8.48633 9.63867L8.10547 10.6641C8.04688 10.8203 8.08594 10.9961 8.21289 11.123L9.85352 12.7539C10.0195 12.9297 10.293 12.9297 10.459 12.7539ZM3.18359 7.14844C3.73047 7.69531 4.3457 7.63672 4.58008 7.40234C4.80469 7.16797 4.82422 6.60156 4.27734 6.05469C3.7207 5.49805 3.14453 5.50781 2.91992 5.75195C2.68555 5.97656 2.62695 6.5918 3.18359 7.14844Z" fill="white" fill-opacity="0.85"/>
 </g>
</svg>
