<?xml version="1.0" encoding="UTF-8"?>
<!--Generator: Apple Native CoreSVG 326-->
<!DOCTYPE svg
PUBLIC "-//W3C//DTD SVG 1.1//EN"
       "http://www.w3.org/Graphics/SVG/1.1/DTD/svg11.dtd">
<svg version="1.1" xmlns="http://www.w3.org/2000/svg" xmlns:xlink="http://www.w3.org/1999/xlink" viewBox="0 0 16.1328 15.7715">
 <g>
  <rect height="15.7715" opacity="0" width="16.1328" x="0" y="0"/>
  <path d="M15.7715 7.88086C15.7715 12.2266 12.2363 15.7617 7.88086 15.7617C3.53516 15.7617 0 12.2266 0 7.88086C0 3.53516 3.53516 0 7.88086 0C12.2363 0 15.7715 3.53516 15.7715 7.88086ZM7.57812 11.4355C7.57812 11.6016 7.70508 11.7383 7.87109 11.7383C8.04688 11.7383 8.17383 11.6016 8.17383 11.4355C8.17383 11.2695 8.04688 11.1328 7.87109 11.1328C7.70508 11.1328 7.57812 11.2695 7.57812 11.4355ZM6.78711 11.2891C6.78711 11.4551 6.91406 11.582 7.08984 11.582C7.26562 11.582 7.38281 11.4551 7.38281 11.2891C7.38281 11.1133 7.26562 10.9863 7.08984 10.9863C6.91406 10.9863 6.78711 11.1133 6.78711 11.2891ZM8.36914 11.2891C8.36914 11.4551 8.49609 11.582 8.67188 11.582C8.84766 11.582 8.96484 11.4551 8.96484 11.2891C8.96484 11.1133 8.84766 10.9863 8.67188 10.9863C8.49609 10.9863 8.36914 11.1133 8.36914 11.2891ZM2.83203 11.1914C2.83203 11.3477 2.96875 11.4844 3.13477 11.4844C3.31055 11.4844 3.4375 11.3477 3.4375 11.1914C3.4375 11.0156 3.31055 10.8789 3.13477 10.8789C2.96875 10.8789 2.83203 11.0156 2.83203 11.1914ZM3.60352 11.1914C3.60352 11.3477 3.74023 11.4844 3.90625 11.4844C4.07227 11.4844 4.20898 11.3477 4.20898 11.1914C4.20898 11.0156 4.07227 10.8789 3.90625 10.8789C3.74023 10.8789 3.60352 11.0156 3.60352 11.1914ZM11.5527 11.1914C11.5527 11.3477 11.6797 11.4844 11.8555 11.4844C12.0215 11.4844 12.1582 11.3477 12.1582 11.1914C12.1582 11.0156 12.0215 10.8789 11.8555 10.8789C11.6797 10.8789 11.5527 11.0156 11.5527 11.1914ZM12.3242 11.1914C12.3242 11.3477 12.4512 11.4844 12.627 11.4844C12.793 11.4844 12.9297 11.3477 12.9297 11.1914C12.9297 11.0156 12.793 10.8789 12.627 10.8789C12.4512 10.8789 12.3242 11.0156 12.3242 11.1914ZM4.375 10.9375C4.375 11.0938 4.51172 11.2305 4.67773 11.2305C4.85352 11.2305 4.98047 11.0938 4.98047 10.9375C4.98047 10.7617 4.85352 10.625 4.67773 10.625C4.51172 10.625 4.375 10.7617 4.375 10.9375ZM6.02539 10.9375C6.02539 11.0938 6.15234 11.2305 6.32812 11.2305C6.49414 11.2305 6.62109 11.0938 6.62109 10.9375C6.62109 10.7617 6.49414 10.625 6.32812 10.625C6.15234 10.625 6.02539 10.7617 6.02539 10.9375ZM9.14062 10.9375C9.14062 11.0938 9.25781 11.2305 9.43359 11.2305C9.60938 11.2305 9.73633 11.0938 9.73633 10.9375C9.73633 10.7617 9.60938 10.625 9.43359 10.625C9.25781 10.625 9.14062 10.7617 9.14062 10.9375ZM10.791 10.9375C10.791 11.0938 10.918 11.2305 11.0938 11.2305C11.2598 11.2305 11.3867 11.0938 11.3867 10.9375C11.3867 10.7617 11.2598 10.625 11.0938 10.625C10.918 10.625 10.791 10.7617 10.791 10.9375ZM5.19531 10.7324C5.19531 10.8887 5.33203 11.0254 5.50781 11.0254C5.67383 11.0254 5.80078 10.8887 5.80078 10.7324C5.80078 10.5566 5.67383 10.4297 5.50781 10.4297C5.33203 10.4297 5.19531 10.5566 5.19531 10.7324ZM9.9707 10.7324C9.9707 10.8887 10.0977 11.0254 10.2637 11.0254C10.4395 11.0254 10.5664 10.8887 10.5664 10.7324C10.5664 10.5566 10.4395 10.4297 10.2637 10.4297C10.0977 10.4297 9.9707 10.5566 9.9707 10.7324ZM7.87109 9.94141C7.08984 9.94141 6.80664 9.21875 5.66406 9.21875C4.51172 9.21875 4.24805 9.94141 3.45703 9.94141L3.13477 9.94141C2.97852 9.94141 2.83203 10.0684 2.83203 10.2344C2.83203 10.3809 2.97852 10.5273 3.13477 10.5273L3.45703 10.5273C4.64844 10.5273 4.89258 9.81445 5.66406 9.81445C6.42578 9.81445 6.66992 10.5273 7.87109 10.5273C9.08203 10.5273 9.31641 9.81445 10.0879 9.81445C10.8594 9.81445 11.0938 10.5273 12.2949 10.5273L12.627 10.5273C12.7832 10.5273 12.9297 10.3809 12.9297 10.2344C12.9297 10.0684 12.7832 9.94141 12.627 9.94141L12.2949 9.94141C11.5039 9.94141 11.2402 9.21875 10.0879 9.21875C8.94531 9.21875 8.66211 9.94141 7.87109 9.94141ZM11.6992 4.70703L8.53516 6.39648C7.99805 6.67969 7.51953 6.71875 6.875 6.37695L3.75977 4.70703C3.51562 4.57031 3.21289 4.67773 3.08594 4.92188C2.95898 5.15625 3.04688 5.45898 3.29102 5.58594L6.33789 7.22656C6.43555 7.27539 6.50391 7.39258 6.46484 7.50977L6.15234 8.68164C7.01172 8.78906 7.25586 9.30664 7.87109 9.30664C8.04688 9.30664 8.17383 9.26758 8.30078 9.20898L8.7207 7.63672C8.75977 7.4707 8.81836 7.38281 8.97461 7.29492L12.168 5.58594C12.4121 5.45898 12.5 5.15625 12.3828 4.92188C12.2363 4.67773 11.9434 4.57031 11.6992 4.70703ZM6.86523 5.21484C6.86523 5.73242 7.29492 6.16211 7.83203 6.16211C8.35938 6.16211 8.78906 5.73242 8.78906 5.21484C8.78906 4.67773 8.35938 4.24805 7.83203 4.24805C7.29492 4.24805 6.86523 4.67773 6.86523 5.21484Z" fill="white" fill-opacity="0.85"/>
 </g>
</svg>
