<?xml version="1.0" encoding="UTF-8"?>
<!--Generator: Apple Native CoreSVG 326-->
<!DOCTYPE svg
PUBLIC "-//W3C//DTD SVG 1.1//EN"
       "http://www.w3.org/Graphics/SVG/1.1/DTD/svg11.dtd">
<svg version="1.1" xmlns="http://www.w3.org/2000/svg" xmlns:xlink="http://www.w3.org/1999/xlink" viewBox="0 0 17.2949 19.7143">
 <g>
  <rect height="19.7143" opacity="0" width="17.2949" x="0" y="0"/>
  <path d="M12.8418 7.8503C13.7793 7.8503 14.541 7.08858 14.541 6.15108C14.541 5.20382 13.7793 4.45187 12.8418 4.45187C11.8945 4.45187 11.1328 5.20382 11.1328 6.15108C11.1328 7.08858 11.8945 7.8503 12.8418 7.8503ZM8.53516 0.506554C7.79297-0.245399 6.88477-0.206337 5.74219 0.936241C5.09766 1.58077 4.76562 2.88937 4.57031 3.8171L3.4375 4.94991C3.05664 5.33077 3.1543 5.82882 3.47656 6.15108L5.75195 8.41671C5.89844 8.55343 6.08398 8.64132 6.30859 8.64132L7.86133 8.64132C7.91016 8.64132 7.93945 8.71944 7.89062 8.74874L6.26953 9.54952C4.89258 10.2331 4.58008 12.0593 5.97656 13.0847L8.84766 15.1941L7.17773 18.5339C6.98242 18.9245 7.13867 19.4128 7.51953 19.5984C7.88086 19.7741 8.35938 19.6667 8.57422 19.2468L10.5078 15.3894C10.6641 15.0671 10.6934 14.6862 10.3418 14.3347L8.02734 12.0202L11.0449 10.5163C11.1914 10.4382 11.3574 10.4773 11.4648 10.5847L15.6055 14.7253C15.9082 15.028 16.4258 15.0085 16.709 14.7253C17.0117 14.4128 17.0215 13.9148 16.709 13.6023L10.5957 7.48898C10.3223 7.2253 10.0391 7.06905 9.6582 7.06905L6.62109 7.06905L4.63867 5.08663L5.24414 4.48116C6.17188 4.28585 7.48047 3.94405 8.11523 3.30929C9.26758 2.16671 9.30664 1.24874 8.53516 0.506554ZM7.88086 1.18038C8.26172 1.55148 8.14453 1.93233 7.44141 2.63546C7.02148 3.05538 6.25977 3.25069 5.625 3.43624C5.79102 2.79171 6.00586 2.02999 6.41602 1.61007C7.12891 0.906944 7.48047 0.789757 7.88086 1.18038ZM0.791016 16.5319L4.72656 16.5319C5.05859 16.5319 5.33203 16.2878 5.47852 15.9948L6.32812 14.2956L5.51758 13.7097C5.22461 13.4851 4.99023 13.2409 4.81445 12.9968L4.16016 14.9401L0.791016 14.9401C0.361328 14.9401 0 15.3015 0 15.7312C0 16.1804 0.361328 16.5319 0.791016 16.5319Z" fill="white" fill-opacity="0.85"/>
 </g>
</svg>
