<?xml version="1.0" encoding="UTF-8"?>
<!--Generator: Apple Native CoreSVG 326-->
<!DOCTYPE svg
PUBLIC "-//W3C//DTD SVG 1.1//EN"
       "http://www.w3.org/Graphics/SVG/1.1/DTD/svg11.dtd">
<svg version="1.1" xmlns="http://www.w3.org/2000/svg" xmlns:xlink="http://www.w3.org/1999/xlink" viewBox="0 0 18.6328 13.2324">
 <g>
  <rect height="13.2324" opacity="0" width="18.6328" x="0" y="0"/>
  <path d="M9.04297 3.39844C9.99023 3.39844 10.752 2.63672 10.752 1.69922C10.752 0.751953 9.99023 0 9.04297 0C8.10547 0 7.34375 0.751953 7.34375 1.69922C7.34375 2.63672 8.10547 3.39844 9.04297 3.39844ZM0.693359 2.19727L6.41602 5.27344C6.60156 5.37109 6.70898 5.56641 6.65039 5.77148L6.10352 7.7832C7.57812 8.05664 8.03711 8.96484 9.13086 8.96484C9.42383 8.96484 9.6582 8.89648 9.88281 8.78906L10.6445 5.98633C10.7227 5.70312 10.8008 5.55664 11.084 5.40039L17.0801 2.19727C17.5098 1.96289 17.6758 1.43555 17.4512 1.00586C17.207 0.576172 16.6797 0.400391 16.25 0.634766L10.3027 3.78906C9.36523 4.28711 8.48633 4.3457 7.36328 3.75L1.5332 0.634766C1.09375 0.400391 0.556641 0.576172 0.332031 1.00586C0.0976562 1.43555 0.263672 1.96289 0.693359 2.19727ZM0.46875 11.084L1.2793 11.084C3.36914 11.084 3.81836 9.82422 5.20508 9.82422C6.60156 9.82422 7.05078 11.084 9.13086 11.084C11.2207 11.084 11.6699 9.82422 13.0566 9.82422C14.4531 9.82422 14.9023 11.084 16.9824 11.084L17.793 11.084C18.0566 11.084 18.2715 10.8691 18.2715 10.6055C18.2715 10.3418 18.0566 10.1367 17.793 10.1367L16.9824 10.1367C15.5469 10.1367 15.0586 8.87695 13.0566 8.87695C11.0645 8.87695 10.5762 10.1367 9.13086 10.1367C7.69531 10.1367 7.20703 8.87695 5.20508 8.87695C3.21289 8.87695 2.72461 10.1367 1.2793 10.1367L0.46875 10.1367C0.205078 10.1367 0 10.3418 0 10.6055C0 10.8691 0.205078 11.084 0.46875 11.084ZM0.673828 13.2227C0.9375 13.2227 1.15234 13.0176 1.15234 12.7441C1.15234 12.4805 0.9375 12.2656 0.673828 12.2656C0.400391 12.2656 0.195312 12.4805 0.195312 12.7441C0.195312 13.0176 0.400391 13.2227 0.673828 13.2227ZM2.10938 12.959C2.37305 12.959 2.58789 12.7539 2.58789 12.4805C2.58789 12.2168 2.37305 12.002 2.10938 12.002C1.83594 12.002 1.63086 12.2168 1.63086 12.4805C1.63086 12.7539 1.83594 12.959 2.10938 12.959ZM3.45703 12.3242C3.73047 12.3242 3.93555 12.1094 3.93555 11.8457C3.93555 11.5723 3.73047 11.3672 3.45703 11.3672C3.19336 11.3672 2.97852 11.5723 2.97852 11.8457C2.97852 12.1094 3.19336 12.3242 3.45703 12.3242ZM4.92188 11.9727C5.18555 11.9727 5.40039 11.7578 5.40039 11.4941C5.40039 11.2207 5.18555 11.0156 4.92188 11.0156C4.64844 11.0156 4.44336 11.2207 4.44336 11.4941C4.44336 11.7578 4.64844 11.9727 4.92188 11.9727ZM6.37695 12.3242C6.65039 12.3242 6.85547 12.1094 6.85547 11.8457C6.85547 11.5723 6.65039 11.3672 6.37695 11.3672C6.11328 11.3672 5.89844 11.5723 5.89844 11.8457C5.89844 12.1094 6.11328 12.3242 6.37695 12.3242ZM7.74414 12.959C8.00781 12.959 8.22266 12.7539 8.22266 12.4805C8.22266 12.2168 8.00781 12.002 7.74414 12.002C7.48047 12.002 7.26562 12.2168 7.26562 12.4805C7.26562 12.7539 7.48047 12.959 7.74414 12.959ZM9.14062 13.2227C9.41406 13.2227 9.61914 13.0176 9.61914 12.7441C9.61914 12.4805 9.41406 12.2656 9.14062 12.2656C8.87695 12.2656 8.66211 12.4805 8.66211 12.7441C8.66211 13.0176 8.87695 13.2227 9.14062 13.2227ZM10.5469 12.959C10.8105 12.959 11.0254 12.7539 11.0254 12.4805C11.0254 12.2168 10.8105 12.002 10.5469 12.002C10.2734 12.002 10.0684 12.2168 10.0684 12.4805C10.0684 12.7539 10.2734 12.959 10.5469 12.959ZM11.9043 12.3242C12.1777 12.3242 12.3828 12.1094 12.3828 11.8457C12.3828 11.5723 12.1777 11.3672 11.9043 11.3672C11.6406 11.3672 11.4355 11.5723 11.4355 11.8457C11.4355 12.1094 11.6406 12.3242 11.9043 12.3242ZM13.3691 11.9727C13.6328 11.9727 13.8477 11.7578 13.8477 11.4941C13.8477 11.2207 13.6328 11.0156 13.3691 11.0156C13.1055 11.0156 12.8906 11.2207 12.8906 11.4941C12.8906 11.7578 13.1055 11.9727 13.3691 11.9727ZM14.8242 12.3242C15.0977 12.3242 15.3027 12.1094 15.3027 11.8457C15.3027 11.5723 15.0977 11.3672 14.8242 11.3672C14.5605 11.3672 14.3555 11.5723 14.3555 11.8457C14.3555 12.1094 14.5605 12.3242 14.8242 12.3242ZM16.1816 12.959C16.4551 12.959 16.6602 12.7539 16.6602 12.4805C16.6602 12.2168 16.4551 12.002 16.1816 12.002C15.918 12.002 15.7031 12.2168 15.7031 12.4805C15.7031 12.7539 15.918 12.959 16.1816 12.959ZM17.6172 13.2227C17.8809 13.2227 18.0957 13.0176 18.0957 12.7441C18.0957 12.4805 17.8809 12.2656 17.6172 12.2656C17.3535 12.2656 17.1387 12.4805 17.1387 12.7441C17.1387 13.0176 17.3535 13.2227 17.6172 13.2227Z" fill="white" fill-opacity="0.85"/>
 </g>
</svg>
