<?xml version="1.0" encoding="UTF-8"?>
<!--Generator: Apple Native CoreSVG 326-->
<!DOCTYPE svg
PUBLIC "-//W3C//DTD SVG 1.1//EN"
       "http://www.w3.org/Graphics/SVG/1.1/DTD/svg11.dtd">
<svg version="1.1" xmlns="http://www.w3.org/2000/svg" xmlns:xlink="http://www.w3.org/1999/xlink" viewBox="0 0 16.1328 15.7715">
 <g>
  <rect height="15.7715" opacity="0" width="16.1328" x="0" y="0"/>
  <path d="M15.7715 7.88086C15.7715 12.2266 12.2363 15.7617 7.88086 15.7617C3.53516 15.7617 0 12.2266 0 7.88086C0 3.53516 3.53516 0 7.88086 0C12.2363 0 15.7715 3.53516 15.7715 7.88086ZM5.75195 3.56445C5.30273 3.56445 5.16602 4.05273 5.44922 4.33594L6.15234 5.03906L2.83203 5.03906C2.66602 5.03906 2.53906 5.17578 2.53906 5.35156C2.53906 5.50781 2.66602 5.64453 2.83203 5.64453L5.60547 5.64453L5.57617 5.67383C5.21484 6.03516 5.23438 6.66016 5.5957 7.01172L6.37695 7.7832L6.37695 8.33984L5.63477 7.59766C5.52734 7.49023 5.33203 7.49023 5.22461 7.59766C5.10742 7.71484 5.11719 7.90039 5.22461 8.01758L6.37695 9.18945L6.37695 9.7168L4.51172 7.83203C4.39453 7.71484 4.19922 7.73438 4.08203 7.83203C3.97461 7.95898 3.97461 8.14453 4.08203 8.25195L8.83789 13.0176C9.12109 13.291 9.41406 13.3984 9.77539 13.3984C9.93164 13.3984 10.0684 13.2617 10.0684 13.1055C10.0684 12.9395 9.92188 12.793 9.77539 12.793C9.48242 12.793 9.43359 12.7637 9.17969 12.5098L7.17773 10.5078C7.23633 10.4395 7.27539 10.332 7.27539 10.2344L7.27539 10.0781L9.9707 12.7832C10.2344 13.0469 10.5566 13.1543 10.9082 13.1543C11.0645 13.1543 11.2012 13.0176 11.2012 12.8613C11.2012 12.7051 11.0645 12.5586 10.9082 12.5586C10.625 12.5586 10.5566 12.5293 10.3125 12.2754L8.44727 10.4102C8.49609 10.332 8.54492 10.2344 8.54492 10.127L8.54492 8.01758C8.54492 7.90039 8.48633 7.7832 8.4082 7.69531L7.25586 6.54297L8.29102 5.50781C8.35938 5.43945 8.45703 5.42969 8.52539 5.50781L9.24805 6.23047C9.32617 6.30859 9.43359 6.36719 9.56055 6.36719L11.5625 6.36719L11.5625 10.1172C11.5625 10.2832 11.6895 10.4199 11.8652 10.4199C12.0215 10.4199 12.1582 10.2832 12.1582 10.1172L12.1582 5.88867C12.1582 5.64453 11.9141 5.45898 11.6699 5.45898L9.73633 5.45898L8.17383 3.88672C7.96875 3.68164 7.68555 3.56445 7.40234 3.56445ZM7.63672 8.20312L7.63672 9.59961L7.27539 9.23828L7.27539 7.8418ZM8.81836 3.48633C8.81836 4.01367 9.25781 4.45312 9.78516 4.45312C10.3125 4.45312 10.7324 4.01367 10.7324 3.48633C10.7324 2.96875 10.3125 2.53906 9.78516 2.53906C9.25781 2.53906 8.81836 2.96875 8.81836 3.48633Z" fill="white" fill-opacity="0.85"/>
 </g>
</svg>
