<svg version="1.1" xmlns="http://www.w3.org/2000/svg" xmlns:xlink="http://www.w3.org/1999/xlink" viewBox="0 0 12.0792 18.2324">
 <g>
  <rect height="18.2324" opacity="0" width="12.0792" x="0" y="0"/>
  <path d="M4.87262 3.38867C5.81012 3.38867 6.57184 2.62695 6.57184 1.69922C6.57184 0.761719 5.81012 0 4.87262 0C3.94489 0 3.1734 0.761719 3.1734 1.69922C3.1734 2.62695 3.94489 3.38867 4.87262 3.38867ZM0.380432 7.35352C-0.537536 8.63281 0.273011 10.3613 2.08942 10.0879L4.94098 9.6582L3.84723 12.9004C3.4859 13.9844 5.00934 14.4434 5.35114 13.4082L6.80621 8.99414C6.98199 8.45703 6.64996 7.92969 6.02496 7.92969L3.2027 7.92969L4.67731 5.95703C4.82379 5.75195 4.92145 5.73242 5.11676 5.73242L10.9371 5.73242C11.3668 5.73242 11.7183 5.39062 11.7183 4.96094C11.7183 4.53125 11.3765 4.17969 10.9371 4.17969L3.53473 4.17969C2.98785 4.17969 2.47028 4.46289 2.12848 4.93164ZM1.06403 17.6074C1.06403 17.9785 1.3277 18.2227 1.70856 18.2227L7.48004 18.2227C7.8609 18.2227 8.12457 17.9785 8.12457 17.6074L8.12457 15.332C8.12457 14.9609 7.8609 14.707 7.48004 14.707L1.70856 14.707C1.3277 14.707 1.06403 14.9609 1.06403 15.332Z" fill="var(--color-primary)"/>
 </g>
</svg>
