<?xml version="1.0" encoding="UTF-8"?>
<!--Generator: Apple Native CoreSVG 326-->
<!DOCTYPE svg
PUBLIC "-//W3C//DTD SVG 1.1//EN"
       "http://www.w3.org/Graphics/SVG/1.1/DTD/svg11.dtd">
<svg version="1.1" xmlns="http://www.w3.org/2000/svg" xmlns:xlink="http://www.w3.org/1999/xlink" viewBox="0 0 12.8293 19.1895">
 <g>
  <rect height="19.1895" opacity="0" width="12.8293" x="0" y="0"/>
  <path d="M4.59825 3.1543C5.48692 3.1543 6.17051 2.46094 6.17051 1.57227C6.17051 0.693359 5.48692 0 4.59825 0C3.70957 0 3.01621 0.693359 3.01621 1.57227C3.01621 2.46094 3.70957 3.1543 4.59825 3.1543ZM4.59825 2.20703C4.24668 2.20703 3.96348 1.92383 3.96348 1.57227C3.96348 1.23047 4.24668 0.957031 4.59825 0.957031C4.94004 0.957031 5.21348 1.23047 5.21348 1.57227C5.21348 1.92383 4.94004 2.20703 4.59825 2.20703ZM1.2584 5.61523C1.86387 4.25781 2.74278 3.49609 4.96934 3.49609L7.89903 3.49609L7.89903 2.1875L4.96934 2.1875C2.18614 2.1875 0.799418 3.39844 0.0572304 5.07812C-0.128317 5.48828 0.154887 5.99609 0.652933 5.99609C0.926371 5.99609 1.15098 5.83984 1.2584 5.61523ZM6.97129 2.27539L6.97129 3.4082C6.97129 3.76953 7.24473 4.0625 7.60606 4.0918L11.6979 4.45312C12.1275 4.49219 12.4693 4.17969 12.4693 3.73047L12.4693 1.95312C12.4693 1.51367 12.1275 1.19141 11.6979 1.23047L7.60606 1.5918C7.24473 1.62109 6.97129 1.91406 6.97129 2.27539ZM4.10996 3.37891L4.10996 5.32227L5.62364 5.32227L5.62364 3.37891ZM3.06504 19.1797L6.66856 19.1797C7.72325 19.1797 8.45567 18.4473 8.45567 17.3926L8.45567 8.4668C8.45567 6.35742 6.97129 4.86328 4.86192 4.86328C2.76231 4.86328 1.27793 6.35742 1.27793 8.4668L1.27793 17.3926C1.27793 18.4473 2.01036 19.1797 3.06504 19.1797ZM3.25059 17.7734C2.92832 17.7734 2.68418 17.5195 2.68418 17.207L2.68418 8.4668C2.68418 7.1875 3.58262 6.2793 4.86192 6.2793C6.15098 6.2793 7.04942 7.1875 7.04942 8.4668L7.04942 17.207C7.04942 17.5195 6.79551 17.7734 6.48301 17.7734Z" fill="white" fill-opacity="0.85"/>
 </g>
</svg>
