<?xml version="1.0" encoding="UTF-8"?>
<!--Generator: Apple Native CoreSVG 326-->
<!DOCTYPE svg
PUBLIC "-//W3C//DTD SVG 1.1//EN"
       "http://www.w3.org/Graphics/SVG/1.1/DTD/svg11.dtd">
<svg version="1.1" xmlns="http://www.w3.org/2000/svg" xmlns:xlink="http://www.w3.org/1999/xlink" viewBox="0 0 16.1328 15.7715">
 <g>
  <rect height="15.7715" opacity="0" width="16.1328" x="0" y="0"/>
  <path d="M15.7715 7.89062C15.7715 12.2363 12.2363 15.7715 7.88086 15.7715C3.53516 15.7715 0 12.2363 0 7.89062C0 3.54492 3.53516 0.00976562 7.88086 0.00976562C12.2363 0.00976562 15.7715 3.54492 15.7715 7.89062ZM6.8457 4.30664C6.68945 4.375 6.66992 4.51172 6.80664 4.69727C7.12891 5.11719 7.23633 5.36133 7.29492 5.72266C6.69922 5.94727 6.15234 6.2793 5.6543 6.76758C5.03906 6.05469 4.32617 5.64453 3.47656 5.64453C3.32031 5.64453 3.20312 5.73242 3.19336 5.87891C3.11523 6.61133 3.45703 7.41211 3.98438 7.89062C3.45703 8.35938 3.13477 9.15039 3.19336 9.89258C3.20312 10.0586 3.32031 10.1367 3.47656 10.1367C4.32617 10.1172 5.03906 9.73633 5.6543 9.01367C6.30859 9.64844 7.06055 10.0391 7.8418 10.2246L7.71484 11.2305C7.67578 11.5234 7.8418 11.6895 8.17383 11.6406C9.0625 11.4941 10.0684 10.8301 10.5859 10.0586C11.8555 9.64844 13.0078 8.85742 13.0078 7.89062C13.0078 6.95312 11.9043 6.17188 10.6641 5.74219C10.2441 4.22852 8.26172 3.52539 6.8457 4.30664ZM11.543 7.72461C11.543 7.97852 11.3574 8.16406 11.1133 8.16406C10.8594 8.16406 10.6738 7.97852 10.6738 7.72461C10.6738 7.48047 10.8594 7.29492 11.1133 7.29492C11.3574 7.29492 11.543 7.48047 11.543 7.72461Z" fill="white" fill-opacity="0.85"/>
 </g>
</svg>
