<?xml version="1.0" encoding="UTF-8"?>
<!--Generator: Apple Native CoreSVG 326-->
<!DOCTYPE svg
PUBLIC "-//W3C//DTD SVG 1.1//EN"
       "http://www.w3.org/Graphics/SVG/1.1/DTD/svg11.dtd">
<svg version="1.1" xmlns="http://www.w3.org/2000/svg" xmlns:xlink="http://www.w3.org/1999/xlink" viewBox="0 0 16.1328 15.7715">
 <g>
  <rect height="15.7715" opacity="0" width="16.1328" x="0" y="0"/>
  <path d="M15.7715 7.89062C15.7715 12.2363 12.2363 15.7715 7.88086 15.7715C3.53516 15.7715 0 12.2363 0 7.89062C0 3.54492 3.53516 0.00976562 7.88086 0.00976562C12.2363 0.00976562 15.7715 3.54492 15.7715 7.89062ZM5.46875 3.99414C5.46875 4.10156 5.51758 4.22852 5.60547 4.33594C6.09375 4.92188 6.61133 5.625 6.61133 6.48438C6.61133 6.5625 6.61133 6.63086 6.60156 6.70898C6.35742 6.23047 5.95703 5.9082 5.55664 5.9082C5.36133 5.9082 5.22461 6.06445 5.22461 6.2793C5.22461 6.37695 5.25391 6.64062 5.25391 6.83594C5.25391 7.73438 4.52148 8.33008 4.52148 9.88281C4.52148 11.6406 5.86914 12.8223 7.89062 12.8223C10.1758 12.8223 11.6895 11.2695 11.6895 8.97461C11.6895 5.11719 8.4082 3.52539 6.17188 3.52539C5.74219 3.52539 5.46875 3.68164 5.46875 3.99414ZM8.0957 7.74414C9.07227 8.19336 9.55078 9.15039 9.55078 10C9.55078 10.8594 9.05273 11.6309 8.00781 11.6309C7.19727 11.6309 6.64062 11.1328 6.64062 10.4004C6.64062 9.62891 7.19727 9.35547 7.27539 8.86719C7.27539 8.80859 7.30469 8.79883 7.33398 8.83789C7.53906 9.00391 7.64648 9.22852 7.77344 9.48242C8.00781 9.16992 8.10547 8.49609 8.03711 7.8125C8.02734 7.74414 8.05664 7.73438 8.0957 7.74414Z" fill="white" fill-opacity="0.85"/>
 </g>
</svg>
