<?xml version="1.0" encoding="UTF-8"?>
<!--Generator: Apple Native CoreSVG 326-->
<!DOCTYPE svg
PUBLIC "-//W3C//DTD SVG 1.1//EN"
       "http://www.w3.org/Graphics/SVG/1.1/DTD/svg11.dtd">
<svg version="1.1" xmlns="http://www.w3.org/2000/svg" xmlns:xlink="http://www.w3.org/1999/xlink" viewBox="0 0 17.7734 16.5527">
 <g>
  <rect height="16.5527" opacity="0" width="17.7734" x="0" y="0"/>
  <path d="M9.6875 0.283203L16.2109 4.04297C16.5234 4.23828 16.6797 4.46289 16.6797 4.72656C16.6797 5.07812 16.3965 5.42969 15.918 5.42969L15.2637 5.42969L15.2637 13.9941L15.752 13.9941C16.1133 13.9941 16.3184 14.1992 16.3184 14.5508L16.3184 15.127L16.709 15.127C17.0898 15.127 17.4121 15.4492 17.4121 15.8301C17.4121 16.2207 17.0898 16.543 16.709 16.543L0.703125 16.543C0.322266 16.543 0 16.2207 0 15.8301C0 15.4492 0.322266 15.127 0.703125 15.127L1.10352 15.127L1.10352 14.5508C1.10352 14.1992 1.30859 13.9941 1.66992 13.9941L2.1582 13.9941L2.1582 5.42969L1.49414 5.42969C1.01562 5.42969 0.732422 5.07812 0.732422 4.72656C0.732422 4.46289 0.878906 4.23828 1.20117 4.04297L7.72461 0.283203C8.03711 0.0976562 8.37891 0 8.71094 0C9.0332 0 9.375 0.0976562 9.6875 0.283203ZM8.44727 7.03125L8.24219 8.27148L6.67969 8.27148C6.46484 8.27148 6.30859 8.42773 6.30859 8.62305C6.30859 8.82812 6.46484 8.97461 6.67969 8.97461L8.13477 8.97461L7.91016 10.3516C7.7832 11.1133 7.46094 11.5039 6.67969 11.5039C6.36719 11.5039 6.28906 11.4746 5.97656 11.4746C5.75195 11.4746 5.625 11.6113 5.625 11.8164C5.625 12.0508 5.75195 12.168 5.97656 12.2656C6.21094 12.3633 6.52344 12.373 6.77734 12.373C8.06641 12.373 8.70117 11.7285 8.89648 10.4785L9.15039 8.97461L10.8105 8.97461C11.0352 8.97461 11.1914 8.82812 11.1914 8.62305C11.1914 8.42773 11.0352 8.27148 10.8105 8.27148L9.24805 8.27148L9.45312 7.10938C9.58008 6.38672 9.95117 6.03516 10.6934 6.03516C10.9766 6.03516 11.1719 6.08398 11.3867 6.08398C11.6211 6.06445 11.748 5.9668 11.748 5.72266C11.748 5.50781 11.5723 5.36133 11.377 5.2832C11.1719 5.19531 10.8398 5.16602 10.6055 5.16602C9.36523 5.16602 8.65234 5.80078 8.44727 7.03125Z" fill="white" fill-opacity="0.85"/>
 </g>
</svg>
