<?xml version="1.0" encoding="UTF-8"?>
<!--Generator: Apple Native CoreSVG 326-->
<!DOCTYPE svg
PUBLIC "-//W3C//DTD SVG 1.1//EN"
       "http://www.w3.org/Graphics/SVG/1.1/DTD/svg11.dtd">
<svg version="1.1" xmlns="http://www.w3.org/2000/svg" xmlns:xlink="http://www.w3.org/1999/xlink" viewBox="0 0 16.9531 18.457">
 <g>
  <rect height="18.457" opacity="0" width="16.9531" x="0" y="0"/>
  <path d="M2.00195 6.49902L14.5898 6.49902C15.8496 6.49902 16.5918 5.7666 16.5918 4.53613L16.5918 2.17285C16.5918 0.932617 15.8496 0.200195 14.5898 0.200195L2.00195 0.200195C0.742188 0.200195 0 0.932617 0 2.17285L0 4.53613C0 5.7666 0.742188 6.49902 2.00195 6.49902ZM7.66602 8.43262L8.93555 8.43262L8.93555 5.78613L7.66602 5.78613ZM2.00195 13.8818L14.5898 13.8818C15.8496 13.8818 16.5918 13.1494 16.5918 11.9189L16.5918 9.5459C16.5918 8.31543 15.8496 7.58301 14.5898 7.58301L2.00195 7.58301C0.742188 7.58301 0 8.31543 0 9.5459L0 11.9189C0 13.1494 0.742188 13.8818 2.00195 13.8818ZM7.66602 15.5127L8.93555 15.5127L8.93555 12.915L7.66602 12.915ZM7.86133 18.2373C8.11523 18.5303 8.51562 18.5303 8.76953 18.2373L10.5957 16.0107C10.9668 15.5518 10.7422 14.9463 10.1367 14.9463L6.48438 14.9463C5.86914 14.9463 5.625 15.542 6.01562 16.0107Z" fill="white" fill-opacity="0.85"/>
 </g>
</svg>
