<?xml version="1.0" encoding="UTF-8"?>
<!--Generator: Apple Native CoreSVG 326-->
<!DOCTYPE svg
PUBLIC "-//W3C//DTD SVG 1.1//EN"
       "http://www.w3.org/Graphics/SVG/1.1/DTD/svg11.dtd">
<svg version="1.1" xmlns="http://www.w3.org/2000/svg" xmlns:xlink="http://www.w3.org/1999/xlink" viewBox="0 0 22.5195 11.8652">
 <g>
  <rect height="11.8652" opacity="0" width="22.5195" x="0" y="0"/>
  <path d="M1.29883 10.7129C1.29883 11.4844 1.73828 11.8555 2.27539 11.8555C2.50977 11.8555 2.76367 11.7871 3.00781 11.6504L11.0449 7.00195C11.6895 6.62109 11.9336 6.34766 11.9336 5.92773C11.9336 5.50781 11.6895 5.23438 11.0449 4.85352L3.00781 0.205078C2.76367 0.0683594 2.50977 0 2.27539 0C1.73828 0 1.29883 0.371094 1.29883 1.14258ZM2.70508 9.9707L2.70508 1.88477C2.70508 1.80664 2.75391 1.74805 2.83203 1.74805C2.86133 1.74805 2.88086 1.75781 2.90039 1.76758L9.84375 5.82031C9.89258 5.84961 9.91211 5.88867 9.91211 5.92773C9.91211 5.9668 9.89258 6.00586 9.84375 6.03516L2.90039 10.0879C2.88086 10.0977 2.86133 10.1074 2.83203 10.1074C2.75391 10.1074 2.70508 10.0488 2.70508 9.9707ZM11.8945 10.7129C11.8945 11.4844 12.334 11.8555 12.8711 11.8555C13.1055 11.8555 13.3496 11.7871 13.5938 11.6504L21.6309 7.00195C22.2852 6.62109 22.5195 6.34766 22.5195 5.92773C22.5195 5.50781 22.2852 5.23438 21.6309 4.85352L13.5938 0.205078C13.3496 0.0683594 13.1055 0 12.8711 0C12.334 0 11.8945 0.371094 11.8945 1.14258ZM13.3008 9.9707L13.3008 1.88477C13.3008 1.80664 13.3496 1.74805 13.418 1.74805C13.4473 1.74805 13.4766 1.75781 13.4961 1.76758L20.4395 5.82031C20.4883 5.84961 20.5078 5.88867 20.5078 5.92773C20.5078 5.9668 20.4883 6.00586 20.4395 6.03516L13.4961 10.0879C13.4766 10.0977 13.4473 10.1074 13.418 10.1074C13.3496 10.1074 13.3008 10.0488 13.3008 9.9707Z" fill="white" fill-opacity="0.85"/>
 </g>
</svg>
