<?xml version="1.0" encoding="UTF-8"?>
<!--Generator: Apple Native CoreSVG 326-->
<!DOCTYPE svg
PUBLIC "-//W3C//DTD SVG 1.1//EN"
       "http://www.w3.org/Graphics/SVG/1.1/DTD/svg11.dtd">
<svg version="1.1" xmlns="http://www.w3.org/2000/svg" xmlns:xlink="http://www.w3.org/1999/xlink" viewBox="0 0 16.1328 15.7715">
 <g>
  <rect height="15.7715" opacity="0" width="16.1328" x="0" y="0"/>
  <path d="M7.88086 15.7617C12.2363 15.7617 15.7715 12.2363 15.7715 7.88086C15.7715 3.52539 12.2363 0 7.88086 0C3.53516 0 0 3.52539 0 7.88086C0 12.2363 3.53516 15.7617 7.88086 15.7617ZM7.88086 14.2773C4.3457 14.2773 1.49414 11.416 1.49414 7.88086C1.49414 4.3457 4.3457 1.48438 7.88086 1.48438C11.416 1.48438 14.2773 4.3457 14.2773 7.88086C14.2773 11.416 11.416 14.2773 7.88086 14.2773Z" fill="white" fill-opacity="0.85"/>
  <path d="M8.95508 10.6836C9.10156 10.6836 9.21875 10.6445 9.38477 10.5469L12.9395 8.4668C13.2129 8.30078 13.3301 8.10547 13.3301 7.89062C13.3301 7.67578 13.2129 7.48047 12.9395 7.31445L9.38477 5.23438C9.21875 5.13672 9.10156 5.09766 8.95508 5.09766C8.65234 5.09766 8.41797 5.3125 8.41797 5.73242L8.41797 10.0488C8.41797 10.4688 8.65234 10.6836 8.95508 10.6836ZM4.05273 10.6836C4.20898 10.6836 4.33594 10.6445 4.49219 10.5469L8.04688 8.4668C8.32031 8.30078 8.4375 8.10547 8.4375 7.89062C8.4375 7.67578 8.32031 7.48047 8.04688 7.31445L4.49219 5.23438C4.33594 5.13672 4.20898 5.09766 4.05273 5.09766C3.75977 5.09766 3.51562 5.3125 3.51562 5.73242L3.51562 10.0488C3.51562 10.4688 3.75977 10.6836 4.05273 10.6836Z" fill="white" fill-opacity="0.85"/>
 </g>
</svg>
