<?xml version="1.0" encoding="UTF-8"?>
<!--Generator: Apple Native CoreSVG 326-->
<!DOCTYPE svg
PUBLIC "-//W3C//DTD SVG 1.1//EN"
       "http://www.w3.org/Graphics/SVG/1.1/DTD/svg11.dtd">
<svg version="1.1" xmlns="http://www.w3.org/2000/svg" xmlns:xlink="http://www.w3.org/1999/xlink" viewBox="0 0 14.9023 11.8652">
 <g>
  <rect height="11.8652" opacity="0" width="14.9023" x="0" y="0"/>
  <path d="M0 10.7129C0 11.4844 0.439453 11.8555 0.976562 11.8555C1.21094 11.8555 1.46484 11.7871 1.70898 11.6504L9.74609 7.00195C10.3906 6.62109 10.6348 6.34766 10.6348 5.92773C10.6348 5.50781 10.3906 5.23438 9.74609 4.85352L1.70898 0.205078C1.46484 0.0683594 1.21094 0 0.976562 0C0.439453 0 0 0.371094 0 1.14258ZM11.6797 11.7969L13.4473 11.7969C14.1602 11.7969 14.541 11.4258 14.541 10.7129L14.541 1.13281C14.541 0.390625 14.1602 0.0488281 13.4473 0.0488281L11.6797 0.0488281C10.9766 0.0488281 10.5957 0.429688 10.5957 1.13281L10.5957 10.7129C10.5957 11.4258 10.9766 11.7969 11.6797 11.7969Z" fill="white" fill-opacity="0.85"/>
 </g>
</svg>
