<?xml version="1.0" encoding="UTF-8"?>
<!--Generator: Apple Native CoreSVG 326-->
<!DOCTYPE svg
PUBLIC "-//W3C//DTD SVG 1.1//EN"
       "http://www.w3.org/Graphics/SVG/1.1/DTD/svg11.dtd">
<svg version="1.1" xmlns="http://www.w3.org/2000/svg" xmlns:xlink="http://www.w3.org/1999/xlink" viewBox="0 0 19.5312 15.166">
 <g>
  <rect height="15.166" opacity="0" width="19.5312" x="0" y="0"/>
  <path d="M8.92578 15.166C14.1211 15.166 18.0762 11.5918 19.1406 6.81641C19.2773 6.21094 18.877 5.73242 18.2422 5.73242L11.3477 5.73242L11.3477 7.08008L18.3887 7.08008L17.832 6.61133C16.7969 10.8594 13.3398 13.8379 8.92578 13.8379C4.35547 13.8379 1.32812 11.0059 1.32812 6.95312C1.32812 3.65234 3.63281 1.33789 6.69922 1.33789C9.08203 1.33789 10.7324 2.85156 10.7324 5.00977C10.7324 6.80664 9.64844 8.06641 8.08594 8.06641C6.74805 8.06641 5.85938 7.20703 5.85938 6.12305C5.85938 5.25391 6.41602 4.59961 7.2168 4.59961C7.86133 4.59961 8.21289 4.9707 8.21289 5.45898C8.21289 5.83008 8.00781 6.07422 7.69531 6.07422C7.44141 6.07422 7.35352 5.95703 7.27539 5.83008C7.1875 5.68359 7.06055 5.5957 6.8457 5.5957C6.58203 5.5957 6.29883 5.81055 6.29883 6.20117C6.29883 6.72852 6.75781 7.42188 7.69531 7.42188C8.7207 7.42188 9.56055 6.65039 9.56055 5.45898C9.56055 4.23828 8.52539 3.26172 7.2168 3.26172C5.75195 3.26172 4.51172 4.52148 4.51172 6.12305C4.51172 7.95898 6.00586 9.4043 8.08594 9.4043C11.1133 9.4043 12.0703 6.67969 12.0703 5.00977C12.0703 2.08984 9.84375 0.00976562 6.69922 0.00976562C2.87109 0.00976562 0 2.88086 0 6.95312C0 11.7676 3.57422 15.166 8.92578 15.166ZM10.4102 1.38672L7.5293 4.27734L8.23242 4.9707L11.1035 2.09961ZM6.26953 0.263672L6.26953 4.35547L7.24609 4.35547L7.24609 0.263672ZM2.41211 2.08008L5.3125 5L6.01562 4.29688L3.10547 1.37695ZM1.01562 6.51367L5.17578 6.51367L5.17578 5.51758L1.01562 5.51758ZM2.58789 11.7578L6.01562 8.32031L5.32227 7.61719L1.875 11.0645ZM7.29492 14.4141L8.29102 14.4141L8.29102 8.95508L7.29492 8.95508ZM14.0723 12.8711L14.7754 12.168L10.2539 7.63672L9.55078 8.33984Z" fill="white" fill-opacity="0.85"/>
 </g>
</svg>
