<svg version="1.1" xmlns="http://www.w3.org/2000/svg" xmlns:xlink="http://www.w3.org/1999/xlink" viewBox="0 0 14.5898 14.248">
 <g>
  <rect height="14.248" opacity="0" width="14.5898" x="0" y="0"/>
  <path d="M14.2285 2.4707L14.2285 11.7871C14.2285 13.4277 13.4082 14.248 11.7383 14.248L2.49023 14.248C0.830078 14.248 0 13.4277 0 11.7871L0 2.4707C0 0.830078 0.830078 0.00976562 2.49023 0.00976562L11.7383 0.00976562C13.4082 0.00976562 14.2285 0.830078 14.2285 2.4707ZM5.73242 3.52539C5.40039 3.52539 5.19531 3.73047 5.19531 4.07227L5.19531 8.98438L4.42383 8.98438C4.26758 8.98438 4.14062 9.11133 4.14062 9.26758C4.14062 9.44336 4.26758 9.56055 4.42383 9.56055L5.19531 9.56055L5.19531 10.332C5.19531 10.6543 5.41016 10.8789 5.73242 10.8789C6.03516 10.8789 6.25 10.6543 6.25 10.332L6.25 9.56055L7.91016 9.56055C8.07617 9.56055 8.19336 9.44336 8.19336 9.26758C8.19336 9.11133 8.07617 8.98438 7.91016 8.98438L6.25 8.98438L6.25 7.56836L8.83789 7.56836C9.11133 7.56836 9.30664 7.38281 9.30664 7.11914C9.30664 6.86523 9.11133 6.66992 8.83789 6.66992L6.25 6.66992L6.25 4.44336L9.11133 4.44336C9.38477 4.44336 9.58984 4.24805 9.58984 3.98438C9.58984 3.71094 9.38477 3.52539 9.11133 3.52539Z" fill="var(--color-primary)"/>
 </g>
</svg>
