<?xml version="1.0" encoding="UTF-8"?>
<!--Generator: Apple Native CoreSVG 326-->
<!DOCTYPE svg
PUBLIC "-//W3C//DTD SVG 1.1//EN"
       "http://www.w3.org/Graphics/SVG/1.1/DTD/svg11.dtd">
<svg version="1.1" xmlns="http://www.w3.org/2000/svg" xmlns:xlink="http://www.w3.org/1999/xlink" viewBox="0 0 16.1328 15.7715">
 <g>
  <rect height="15.7715" opacity="0" width="16.1328" x="0" y="0"/>
  <path d="M7.88086 15.7617C12.2363 15.7617 15.7715 12.2363 15.7715 7.88086C15.7715 3.52539 12.2363 0 7.88086 0C3.53516 0 0 3.52539 0 7.88086C0 12.2363 3.53516 15.7617 7.88086 15.7617ZM7.88086 14.2773C4.3457 14.2773 1.49414 11.416 1.49414 7.88086C1.49414 4.3457 4.3457 1.48438 7.88086 1.48438C11.416 1.48438 14.2773 4.3457 14.2773 7.88086C14.2773 11.416 11.416 14.2773 7.88086 14.2773Z" fill="white" fill-opacity="0.85"/>
  <path d="M4.89258 11.5625C5.2832 11.5625 5.60547 11.2402 5.60547 10.8496C5.60547 10.459 5.2832 10.1367 4.89258 10.1367C4.50195 10.1367 4.17969 10.459 4.17969 10.8496C4.17969 11.2402 4.50195 11.5625 4.89258 11.5625ZM3.64258 8.59375C4.0332 8.59375 4.36523 8.27148 4.36523 7.88086C4.36523 7.49023 4.0332 7.16797 3.64258 7.16797C3.25195 7.16797 2.92969 7.49023 2.92969 7.88086C2.92969 8.27148 3.25195 8.59375 3.64258 8.59375ZM4.89258 5.625C5.2832 5.625 5.60547 5.30273 5.60547 4.91211C5.60547 4.52148 5.2832 4.19922 4.89258 4.19922C4.50195 4.19922 4.17969 4.52148 4.17969 4.91211C4.17969 5.30273 4.50195 5.625 4.89258 5.625ZM10.8789 5.625C11.2695 5.625 11.5918 5.30273 11.5918 4.91211C11.5918 4.52148 11.2695 4.19922 10.8789 4.19922C10.4883 4.19922 10.166 4.52148 10.166 4.91211C10.166 5.30273 10.4883 5.625 10.8789 5.625ZM12.1191 8.59375C12.5098 8.59375 12.832 8.27148 12.832 7.88086C12.832 7.49023 12.5098 7.16797 12.1191 7.16797C11.7285 7.16797 11.4062 7.49023 11.4062 7.88086C11.4062 8.27148 11.7285 8.59375 12.1191 8.59375ZM10.8789 11.5625C11.2695 11.5625 11.5918 11.2402 11.5918 10.8496C11.5918 10.459 11.2695 10.1367 10.8789 10.1367C10.4883 10.1367 10.166 10.459 10.166 10.8496C10.166 11.2402 10.4883 11.5625 10.8789 11.5625ZM7.88086 9.77539C8.64258 9.77539 9.17969 9.22852 9.17969 8.47656C9.17969 8.33008 9.13086 8.04688 9.10156 7.89062L8.27148 3.51562C8.22266 3.27148 8.05664 3.1543 7.88086 3.1543C7.71484 3.1543 7.53906 3.27148 7.5 3.51562L6.66992 7.89062C6.64062 8.04688 6.5918 8.33008 6.5918 8.47656C6.5918 9.22852 7.12891 9.77539 7.88086 9.77539Z" fill="white" fill-opacity="0.85"/>
 </g>
</svg>
