<?xml version="1.0" encoding="UTF-8"?>
<!--Generator: Apple Native CoreSVG 326-->
<!DOCTYPE svg
PUBLIC "-//W3C//DTD SVG 1.1//EN"
       "http://www.w3.org/Graphics/SVG/1.1/DTD/svg11.dtd">
<svg version="1.1" xmlns="http://www.w3.org/2000/svg" xmlns:xlink="http://www.w3.org/1999/xlink" viewBox="0 0 14.5898 14.248">
 <g>
  <rect height="14.248" opacity="0" width="14.5898" x="0" y="0"/>
  <path d="M14.2285 2.4707L14.2285 11.7871C14.2285 13.4277 13.4082 14.248 11.7383 14.248L2.49023 14.248C0.830078 14.248 0 13.4277 0 11.7871L0 2.4707C0 0.830078 0.830078 0.00976562 2.49023 0.00976562L11.7383 0.00976562C13.4082 0.00976562 14.2285 0.830078 14.2285 2.4707ZM4.83398 9.7168C4.46289 9.7168 4.16992 10.0098 4.16992 10.3711C4.16992 10.7031 4.46289 11.0156 4.83398 11.0156L9.41406 11.0156C9.78516 11.0156 10.0781 10.7031 10.0781 10.3711C10.0781 10.0098 9.78516 9.7168 9.41406 9.7168ZM4.46289 3.98438C4.46289 4.23828 4.61914 4.48242 4.87305 4.59961L8.00781 5.9668L8.00781 5.98633L4.87305 7.36328C4.61914 7.46094 4.46289 7.70508 4.46289 7.96875C4.46289 8.29102 4.73633 8.62305 5.13672 8.62305C5.22461 8.62305 5.33203 8.60352 5.53711 8.49609L9.375 6.82617C9.82422 6.64062 9.9707 6.36719 9.9707 5.97656C9.9707 5.625 9.81445 5.32227 9.375 5.12695L5.53711 3.44727C5.33203 3.35938 5.22461 3.33984 5.13672 3.33984C4.73633 3.33984 4.46289 3.65234 4.46289 3.98438Z" fill="white" fill-opacity="0.85"/>
 </g>
</svg>
