<svg version="1.1" xmlns="http://www.w3.org/2000/svg" xmlns:xlink="http://www.w3.org/1999/xlink" viewBox="0 0 16.1328 15.7715">
 <g>
  <rect height="15.7715" opacity="0" width="16.1328" x="0" y="0"/>
  <path d="M15.7715 7.88086C15.7715 12.2266 12.2363 15.7617 7.88086 15.7617C3.53516 15.7617 0 12.2266 0 7.88086C0 3.53516 3.53516 0 7.88086 0C12.2363 0 15.7715 3.53516 15.7715 7.88086ZM5.60547 10.4785C5.23438 10.4785 4.94141 10.7715 4.94141 11.1328C4.94141 11.4648 5.23438 11.7773 5.60547 11.7773L10.1855 11.7773C10.5566 11.7773 10.8496 11.4648 10.8496 11.1328C10.8496 10.7715 10.5566 10.4785 10.1855 10.4785ZM5.23438 4.74609C5.23438 5 5.38086 5.24414 5.63477 5.36133L8.7793 6.72852L8.7793 6.74805L5.63477 8.125C5.38086 8.22266 5.23438 8.4668 5.23438 8.73047C5.23438 9.05273 5.50781 9.38477 5.89844 9.38477C5.99609 9.38477 6.10352 9.36523 6.30859 9.25781L10.1465 7.58789C10.5957 7.40234 10.7422 7.12891 10.7422 6.73828C10.7422 6.38672 10.5859 6.08398 10.1465 5.88867L6.30859 4.20898C6.10352 4.12109 5.99609 4.10156 5.89844 4.10156C5.50781 4.10156 5.23438 4.41406 5.23438 4.74609Z" fill="var(--color-primary)"/>
 </g>
</svg>
