<svg version="1.1" xmlns="http://www.w3.org/2000/svg" xmlns:xlink="http://www.w3.org/1999/xlink" width="11.6113" height="17.1973" viewBox="0 0 11.6113 17.1973">
 <g>
  <rect height="17.1973" opacity="0" width="11.6113" x="0" y="0"/>
  <path d="M5.91797 15.6348C9.42383 15.6348 11.25 13.4277 11.25 9.88281L11.25 9.18945C11.25 8.64258 10.918 8.31055 10.4004 8.31055L6.25977 8.31055L6.25977 9.78516L9.57031 9.78516L9.57031 10.2637C9.57031 12.5586 8.24219 14.0918 5.92773 14.0918C3.42773 14.0918 1.77734 11.9629 1.77734 8.59375C1.77734 5.24414 3.44727 3.14453 5.91797 3.14453C7.5293 3.14453 8.92578 4.0918 9.375 5.46875C9.54102 5.97656 9.75586 6.17188 10.2148 6.17188C10.6836 6.17188 10.9961 5.86914 10.9961 5.40039C10.9961 5.17578 10.957 4.94141 10.8691 4.7168C10.1562 2.85156 8.22266 1.60156 5.91797 1.60156C2.38281 1.60156 0 4.31641 0 8.59375C0 12.9004 2.35352 15.6348 5.91797 15.6348ZM5.86914 17.1973C6.19141 17.1973 6.43555 16.9727 6.43555 16.6406L6.43555 0.576172C6.43555 0.234375 6.19141 0.00976562 5.86914 0.00976562C5.54688 0.00976562 5.30273 0.234375 5.30273 0.576172L5.30273 16.6406C5.30273 16.9727 5.54688 17.1973 5.86914 17.1973Z" fill="var(--color-primary)"/>
 </g>
</svg>
