<svg version="1.1" xmlns="http://www.w3.org/2000/svg" xmlns:xlink="http://www.w3.org/1999/xlink" viewBox="0 0 18.9844 15.4424">
 <g>
  <rect height="15.4424" opacity="0" width="18.9844" x="0" y="0"/>
  <path d="M18.623 9.27882C18.623 4.40578 14.8926 0.411637 10.127 0.00148111C9.88281-0.0180501 9.69727 0.157731 9.69727 0.401872L9.69727 2.98C9.69727 3.18507 9.84375 3.34132 10.0488 3.36086C12.9883 3.73195 15.2734 6.24172 15.2734 9.27882C15.2734 10.6558 14.8047 11.9253 13.9551 13.0093C13.8574 13.1362 13.8672 13.2925 13.9746 13.3999L15.8594 15.2847C16.0352 15.4605 16.2891 15.4605 16.4453 15.2749C17.8125 13.6538 18.623 11.564 18.623 9.27882Z" fill="var(--color-primary)"/>
  <path d="M0 9.27882C0 11.564 0.820312 13.6538 2.17773 15.2749C2.33398 15.4605 2.58789 15.4605 2.76367 15.2847L4.64844 13.3999C4.76562 13.2925 4.77539 13.1362 4.66797 13.0093C3.82812 11.9253 3.35938 10.6558 3.35938 9.27882C3.35938 6.24172 5.63477 3.73195 8.57422 3.36086C8.7793 3.34132 8.92578 3.18507 8.92578 2.98L8.92578 0.401872C8.92578 0.157731 8.74023-0.0180501 8.49609 0.00148111C3.74023 0.411637 0 4.40578 0 9.27882Z" fill="var(--color-primary)"/>
  <path d="M9.33594 12.814C11.1035 12.814 12.0898 11.7495 12.0898 9.99172L12.0898 9.67922C12.0898 9.35695 11.8945 9.16164 11.6016 9.16164L9.51172 9.16164L9.51172 9.97218L11.1133 9.97218L11.1133 10.2066C11.1133 11.2515 10.4688 11.9351 9.3457 11.9351C7.98828 11.9351 7.32422 10.7339 7.32422 9.32765C7.32422 8.00929 7.92969 6.74953 9.32617 6.74953C10.0586 6.74953 10.7715 7.14992 11.0156 7.83351C11.1133 8.08742 11.2305 8.20461 11.5039 8.20461C11.7676 8.20461 11.9434 8.03859 11.9434 7.76515C11.9434 7.67726 11.9336 7.54054 11.875 7.39406C11.4941 6.40773 10.3809 5.87062 9.32617 5.87062C7.33398 5.87062 6.2793 7.40382 6.2793 9.33742C6.2793 11.3687 7.41211 12.814 9.33594 12.814ZM9.30664 13.6831C9.47266 13.6831 9.58008 13.5659 9.58008 13.4097L9.58008 5.27492C9.58008 5.1089 9.47266 4.99172 9.30664 4.99172C9.14062 4.99172 9.02344 5.1089 9.02344 5.27492L9.02344 13.4097C9.02344 13.5659 9.14062 13.6831 9.30664 13.6831Z" fill="var(--color-primary)"/>
 </g>
</svg>
