<?xml version="1.0" encoding="UTF-8"?>
<!--Generator: Apple Native CoreSVG 326-->
<!DOCTYPE svg
PUBLIC "-//W3C//DTD SVG 1.1//EN"
       "http://www.w3.org/Graphics/SVG/1.1/DTD/svg11.dtd">
<svg version="1.1" xmlns="http://www.w3.org/2000/svg" xmlns:xlink="http://www.w3.org/1999/xlink" viewBox="0 0 19.0137 18.6035">
 <g>
  <rect height="18.6035" opacity="0" width="19.0137" x="0" y="0"/>
  <path d="M17.5098 7.26562L17.5098 15.0195C17.5098 16.6602 16.6895 17.4707 15.0195 17.4707L7.34375 17.4707C5.68359 17.4707 4.85352 16.6602 4.85352 15.0195L4.85352 14.9414L11.3086 14.9414C13.6035 14.9414 14.9414 13.623 14.9414 11.3477L14.9414 4.81445L15.0195 4.81445C16.6895 4.81445 17.5098 5.625 17.5098 7.26562Z" fill="white" fill-opacity="0.85"/>
  <path d="M13.7988 3.59375L13.7988 11.3477C13.7988 12.9883 12.9785 13.7988 11.3086 13.7988L3.63281 13.7988C1.97266 13.7988 1.14258 12.9883 1.14258 11.3477L1.14258 3.59375C1.14258 1.95312 1.97266 1.14258 3.63281 1.14258L11.3086 1.14258C12.9785 1.14258 13.7988 1.95312 13.7988 3.59375ZM9.25781 4.45312L9.25781 6.72852L5.67383 6.72852L5.67383 4.45312C5.67383 3.92578 5.41016 3.64258 4.94141 3.64258C4.49219 3.64258 4.22852 3.93555 4.22852 4.45312L4.22852 10.3125C4.22852 10.8301 4.49219 11.1328 4.94141 11.1328C5.41016 11.1328 5.67383 10.8398 5.67383 10.3125L5.67383 7.83203L9.25781 7.83203L9.25781 10.3125C9.25781 10.8301 9.52148 11.1328 9.9707 11.1328C10.4395 11.1328 10.7031 10.8398 10.7031 10.3125L10.7031 4.45312C10.7031 3.92578 10.4395 3.64258 9.9707 3.64258C9.52148 3.64258 9.25781 3.93555 9.25781 4.45312Z" fill="white" fill-opacity="0.85"/>
 </g>
</svg>
