<svg version="1.1" xmlns="http://www.w3.org/2000/svg" xmlns:xlink="http://www.w3.org/1999/xlink" width="13.4961" height="17.7441" viewBox="0 0 13.4961 17.7441">
 <g>
  <rect height="17.7441" opacity="0" width="13.4961" x="0" y="0"/>
  <path d="M6.26953 16.9043C9.0332 16.9043 10.9668 15.4102 12.0215 12.4316L13.3496 8.7207C13.4473 8.4375 13.4961 8.18359 13.4961 7.93945C13.4961 7.08008 12.8516 6.49414 12.041 6.49414C11.4844 6.49414 11.0059 6.81641 10.7422 7.43164L10.332 8.4082C10.3223 8.4375 10.3027 8.45703 10.2734 8.45703C10.2344 8.45703 10.2148 8.42773 10.2148 8.38867L10.2148 2.48047C10.2148 1.5625 9.63867 0.976562 8.73047 0.976562C8.41797 0.976562 8.13477 1.08398 7.91992 1.26953C7.80273 0.478516 7.27539 0 6.50391 0C5.75195 0 5.22461 0.488281 5.08789 1.25C4.89258 1.07422 4.62891 0.976562 4.35547 0.976562C3.52539 0.976562 2.97852 1.55273 2.97852 2.41211L2.97852 3.21289C2.77344 3.00781 2.46094 2.89062 2.13867 2.89062C1.30859 2.89062 0.732422 3.50586 0.732422 4.38477L0.732422 11.0156C0.732422 14.6191 2.91992 16.9043 6.26953 16.9043ZM6.2207 15.7031C3.47656 15.7031 1.875 13.916 1.875 10.8691L1.875 4.52148C1.875 4.22852 2.07031 4.0332 2.36328 4.0332C2.64648 4.0332 2.85156 4.22852 2.85156 4.52148L2.85156 8.4668C2.85156 8.76953 3.10547 8.98438 3.38867 8.98438C3.68164 8.98438 3.94531 8.76953 3.94531 8.4668L3.94531 2.58789C3.94531 2.29492 4.14062 2.08984 4.43359 2.08984C4.7168 2.08984 4.92188 2.29492 4.92188 2.58789L4.92188 8.07617C4.92188 8.37891 5.17578 8.59375 5.45898 8.59375C5.75195 8.59375 6.01562 8.37891 6.01562 8.07617L6.01562 1.61133C6.01562 1.32812 6.2207 1.12305 6.50391 1.12305C6.78711 1.12305 6.99219 1.32812 6.99219 1.61133L6.99219 8.07617C6.99219 8.36914 7.24609 8.59375 7.5293 8.59375C7.82227 8.59375 8.08594 8.36914 8.08594 8.07617L8.08594 2.58789C8.08594 2.29492 8.29102 2.08984 8.57422 2.08984C8.85742 2.08984 9.0625 2.29492 9.0625 2.58789L9.0625 10.166C9.0625 10.5664 9.29688 10.8105 9.62891 10.8105C9.92188 10.8105 10.166 10.6836 10.3613 10.2637L11.4941 7.79297C11.6309 7.5 11.8945 7.40234 12.1387 7.5C12.4121 7.59766 12.4902 7.85156 12.3633 8.20312L10.9668 12.0605C10 14.7754 8.35938 15.7031 6.2207 15.7031Z" fill="var(--color-primary)"/>
 </g>
</svg>
