<?xml version="1.0" encoding="UTF-8"?>
<!--Generator: Apple Native CoreSVG 326-->
<!DOCTYPE svg
PUBLIC "-//W3C//DTD SVG 1.1//EN"
       "http://www.w3.org/Graphics/SVG/1.1/DTD/svg11.dtd">
<svg version="1.1" xmlns="http://www.w3.org/2000/svg" xmlns:xlink="http://www.w3.org/1999/xlink" viewBox="0 0 12.6758 15.8887">
 <g>
  <rect height="15.8887" opacity="0" width="12.6758" x="0" y="0"/>
  <path d="M7.03125 15.8887C10.3906 15.8887 12.3145 13.7207 12.3145 10.1758L12.3145 8.64258C12.3145 7.29492 11.6699 6.46484 10.9375 6.46484C10.7715 6.46484 10.6836 6.55273 10.6836 6.70898L10.6836 7.33398C10.6836 7.67578 10.5078 7.83203 10.3125 7.83203C10.0879 7.83203 9.92188 7.67578 9.92188 7.33398L9.92188 6.93359C9.92188 6.14258 9.41406 5.625 8.73047 5.625C8.41797 5.625 8.28125 5.75195 8.28125 6.01562L8.28125 6.875C8.28125 7.2168 8.10547 7.37305 7.91016 7.37305C7.68555 7.37305 7.51953 7.2168 7.51953 6.875L7.51953 6.08398C7.51953 5.19531 7.00195 4.77539 6.33789 4.77539C6.04492 4.77539 5.88867 4.91211 5.88867 5.16602L5.88867 6.875C5.88867 7.2168 5.71289 7.37305 5.51758 7.37305C5.29297 7.37305 5.12695 7.2168 5.12695 6.875L5.12695 0.986328C5.12695 0.419922 4.74609 0.0390625 4.26758 0.0390625C3.75 0.0390625 3.38867 0.419922 3.38867 0.986328L3.38867 9.73633C3.38867 9.95117 3.26172 10.0684 3.125 10.0684C2.98828 10.0684 2.88086 9.98047 2.7832 9.76562L1.65039 7.07031C1.48438 6.67969 1.23047 6.50391 0.878906 6.50391C0.351562 6.50391 0 6.86523 0 7.29492C0 7.48047 0.0390625 7.62695 0.078125 7.74414L1.30859 11.3867C2.41211 14.6484 4.53125 15.8887 7.03125 15.8887Z" fill="white" fill-opacity="0.85"/>
 </g>
</svg>
