<?xml version="1.0" encoding="UTF-8"?>
<!--Generator: Apple Native CoreSVG 326-->
<!DOCTYPE svg
PUBLIC "-//W3C//DTD SVG 1.1//EN"
       "http://www.w3.org/Graphics/SVG/1.1/DTD/svg11.dtd">
<svg version="1.1" xmlns="http://www.w3.org/2000/svg" xmlns:xlink="http://www.w3.org/1999/xlink" viewBox="0 0 16.7285 16.3379">
 <g>
  <rect height="16.3379" opacity="0" width="16.7285" x="0" y="0"/>
  <path d="M12.6562 2.46094L12.6562 3.68164L11.25 3.68164L11.25 2.53906C11.25 1.79688 10.8496 1.41602 10.1465 1.41602L2.50977 1.41602C1.80664 1.41602 1.40625 1.79688 1.40625 2.53906L1.40625 10.1367C1.40625 10.8789 1.80664 11.2598 2.50977 11.2598L3.71094 11.2598L3.71094 12.666L2.49023 12.666C0.820312 12.666 0 11.8555 0 10.2148L0 2.46094C0 0.820312 0.820312 0.00976562 2.49023 0.00976562L10.166 0.00976562C11.8262 0.00976562 12.6562 0.820312 12.6562 2.46094Z" fill="white" fill-opacity="0.85"/>
  <path d="M6.20117 16.3379L13.877 16.3379C15.5371 16.3379 16.3672 15.5273 16.3672 13.8867L16.3672 6.13281C16.3672 4.49219 15.5371 3.68164 13.877 3.68164L6.20117 3.68164C4.53125 3.68164 3.71094 4.49219 3.71094 6.13281L3.71094 13.8867C3.71094 15.5273 4.53125 16.3379 6.20117 16.3379ZM6.2207 14.9316C5.51758 14.9316 5.11719 14.5508 5.11719 13.8086L5.11719 6.21094C5.11719 5.46875 5.51758 5.08789 6.2207 5.08789L13.8574 5.08789C14.5605 5.08789 14.9609 5.46875 14.9609 6.21094L14.9609 13.8086C14.9609 14.5508 14.5605 14.9316 13.8574 14.9316Z" fill="white" fill-opacity="0.85"/>
  <path d="M7.16797 11.2598C7.16797 12.9395 8.26172 14.0332 9.88281 14.0332C11.0547 14.0332 11.8262 13.584 12.3828 12.5879C12.7051 12.0215 12.9395 11.3379 13.2129 10.4883C13.3203 10.1172 13.4961 9.62891 13.4961 9.42383C13.4961 9.19922 13.3301 9.04297 13.0957 9.04297C12.8125 9.04297 12.666 9.21875 12.4512 9.62891L11.9043 10.7422C11.8555 10.8496 11.8164 10.8887 11.7578 10.8887C11.6992 10.8887 11.6699 10.8398 11.6699 10.752L11.6699 6.60156C11.6699 6.36719 11.4648 6.16211 11.2207 6.16211C10.9668 6.16211 10.7715 6.36719 10.7715 6.60156L10.7715 9.56055C10.6738 9.53125 10.5859 9.50195 10.4785 9.48242L10.4785 6.09375C10.4785 5.84961 10.2734 5.64453 10.0293 5.64453C9.77539 5.64453 9.58984 5.84961 9.58984 6.09375L9.58984 9.44336C9.48242 9.45312 9.38477 9.46289 9.27734 9.48242L9.27734 6.39648C9.27734 6.14258 9.07227 5.94727 8.81836 5.94727C8.57422 5.94727 8.36914 6.14258 8.36914 6.39648L8.36914 9.76562C8.26172 9.81445 8.16406 9.87305 8.07617 9.93164L8.07617 7.60742C8.07617 7.35352 7.86133 7.1582 7.63672 7.1582C7.38281 7.1582 7.16797 7.35352 7.16797 7.60742Z" fill="white" fill-opacity="0.85"/>
 </g>
</svg>
