<svg version="1.1" xmlns="http://www.w3.org/2000/svg" xmlns:xlink="http://www.w3.org/1999/xlink" width="12.1387" height="17.9395" viewBox="0 0 12.1387 17.9395">
 <g>
  <rect height="17.9395" opacity="0" width="12.1387" x="0" y="0"/>
  <path d="M0.224609 12.9297C0.224609 15.1074 1.55273 16.4746 3.67188 16.4746C5.21484 16.4746 6.36719 15.8203 7.10938 14.541L7.86133 13.2129C9.47266 10.3906 12.1387 9.88281 12.1387 6.05469C12.1387 2.42188 9.78516 0 6.25977 0C2.64648 0 0.224609 2.42188 0.224609 6.06445ZM1.54297 12.832L1.54297 6.06445C1.54297 3.20312 3.42773 1.30859 6.25977 1.30859C9.00391 1.30859 10.8203 3.21289 10.8203 6.05469C10.8203 9.17969 8.34961 9.86328 6.68945 12.627L5.9668 13.8281C5.43945 14.7168 4.73633 15.127 3.73047 15.127C2.35352 15.127 1.54297 14.2676 1.54297 12.832Z" fill="var(--color-secondary)"/>
  <path d="M2.63672 10.6543C2.63672 11.4941 3.27148 12.0508 4.20898 12.0508C5.39062 12.041 6.18164 11.0254 6.18164 9.75586C6.18164 7.55859 3.95508 7.1582 3.95508 5.66406C3.95508 4.55078 4.88281 3.73047 6.25977 3.73047C7.66602 3.73047 8.57422 4.64844 8.57422 6.05469C8.57422 6.40625 8.87695 6.70898 9.23828 6.70898C9.58984 6.70898 9.89258 6.40625 9.89258 6.05469C9.89258 3.87695 8.4375 2.42188 6.25977 2.42188C4.0918 2.42188 2.63672 3.75977 2.63672 5.66406C2.63672 7.29492 4.21875 7.83203 4.21875 8.55469C4.21875 9.28711 2.63672 9.16992 2.63672 10.6543Z" fill="var(--color-primary)"/>
 </g>
</svg>
