<?xml version="1.0" encoding="UTF-8"?>
<!--Generator: Apple Native CoreSVG 326-->
<!DOCTYPE svg
PUBLIC "-//W3C//DTD SVG 1.1//EN"
       "http://www.w3.org/Graphics/SVG/1.1/DTD/svg11.dtd">
<svg version="1.1" xmlns="http://www.w3.org/2000/svg" xmlns:xlink="http://www.w3.org/1999/xlink" viewBox="0 0 15.9668 17.4902">
 <g>
  <rect height="17.4902" opacity="0" width="15.9668" x="0" y="0"/>
  <path d="M14.6777 13.7891C15.2637 13.4473 15.6055 12.8516 15.6055 12.1777L15.6055 5.30273C15.6055 4.62891 15.2637 4.0332 14.6777 3.69141L8.73047 0.263672C8.13477-0.0878906 7.4707-0.0878906 6.875 0.263672L0.927734 3.69141C0.341797 4.0332 0 4.62891 0 5.30273L0 12.1777C0 12.8516 0.341797 13.4473 0.927734 13.7891L6.875 17.2168C7.4707 17.5684 8.13477 17.5684 8.73047 17.2168ZM7.80273 15.9863C7.63672 15.9863 7.4707 15.9375 7.33398 15.8496L1.875 12.7051C1.58203 12.5293 1.40625 12.2266 1.40625 11.8945L1.40625 5.58594C1.40625 5.25391 1.58203 4.95117 1.875 4.77539L7.33398 1.63086C7.4707 1.54297 7.63672 1.49414 7.80273 1.49414Z" fill="white" fill-opacity="0.85"/>
 </g>
</svg>
