<?xml version="1.0" encoding="UTF-8"?>
<!--Generator: Apple Native CoreSVG 326-->
<!DOCTYPE svg
PUBLIC "-//W3C//DTD SVG 1.1//EN"
       "http://www.w3.org/Graphics/SVG/1.1/DTD/svg11.dtd">
<svg version="1.1" xmlns="http://www.w3.org/2000/svg" xmlns:xlink="http://www.w3.org/1999/xlink" viewBox="0 0 16.1328 15.7715">
 <g>
  <rect height="15.7715" opacity="0" width="16.1328" x="0" y="0"/>
  <path d="M15.7715 7.88086C15.7715 12.2266 12.2363 15.7617 7.88086 15.7617C3.53516 15.7617 0 12.2266 0 7.88086C0 3.53516 3.53516 0 7.88086 0C12.2363 0 15.7715 3.53516 15.7715 7.88086ZM7.88086 9.0918C6.11328 9.0918 4.50195 8.62305 3.64258 7.8125L3.64258 8.75C3.64258 10.0879 5.50781 11.1621 7.88086 11.1621C10.2637 11.1621 12.1191 10.0879 12.1191 8.75L12.1191 7.8125C11.2793 8.62305 9.66797 9.0918 7.88086 9.0918ZM3.64258 6.52344C3.64258 7.61719 5.50781 8.48633 7.88086 8.48633C10.2539 8.48633 12.1191 7.61719 12.1191 6.52344C12.1191 5.43945 10.2539 4.59961 7.88086 4.59961C5.50781 4.59961 3.64258 5.43945 3.64258 6.52344Z" fill="white" fill-opacity="0.85"/>
 </g>
</svg>
