<?xml version="1.0" encoding="UTF-8"?>
<!--Generator: Apple Native CoreSVG 326-->
<!DOCTYPE svg
PUBLIC "-//W3C//DTD SVG 1.1//EN"
       "http://www.w3.org/Graphics/SVG/1.1/DTD/svg11.dtd">
<svg version="1.1" xmlns="http://www.w3.org/2000/svg" xmlns:xlink="http://www.w3.org/1999/xlink" viewBox="0 0 18.9844 15.4424">
 <g>
  <rect height="15.4424" opacity="0" width="18.9844" x="0" y="0"/>
  <path d="M18.623 9.27882C18.623 4.40578 14.8926 0.411637 10.127 0.00148111C9.88281-0.0180501 9.69727 0.157731 9.69727 0.401872L9.69727 2.98C9.69727 3.18507 9.84375 3.34132 10.0488 3.36086C12.9883 3.73195 15.2734 6.24172 15.2734 9.27882C15.2734 10.6558 14.8047 11.9253 13.9551 13.0093C13.8574 13.1362 13.8672 13.2925 13.9746 13.3999L15.8594 15.2847C16.0352 15.4605 16.2891 15.4605 16.4453 15.2749C17.8125 13.6538 18.623 11.564 18.623 9.27882Z" fill="white" fill-opacity="0.85"/>
  <path d="M0 9.27882C0 11.564 0.820312 13.6538 2.17773 15.2749C2.33398 15.4605 2.58789 15.4605 2.76367 15.2847L4.64844 13.3999C4.76562 13.2925 4.77539 13.1362 4.66797 13.0093C3.82812 11.9253 3.35938 10.6558 3.35938 9.27882C3.35938 6.24172 5.63477 3.73195 8.57422 3.36086C8.7793 3.34132 8.92578 3.18507 8.92578 2.98L8.92578 0.401872C8.92578 0.157731 8.74023-0.0180501 8.49609 0.00148111C3.74023 0.411637 0 4.40578 0 9.27882Z" fill="white" fill-opacity="0.85"/>
  <path d="M8.51562 10.0894C9.73633 10.0894 10.6348 9.41554 10.8105 8.25343L11.3867 8.25343C11.5527 8.25343 11.6797 8.12648 11.6797 7.97023C11.6797 7.82375 11.5527 7.69679 11.3867 7.69679L10.8301 7.69679C10.7812 7.19875 10.5762 6.74953 10.2051 6.42726L11.3867 6.42726C11.5527 6.42726 11.6797 6.30031 11.6797 6.14406C11.6797 5.98781 11.5527 5.87062 11.3867 5.87062L7.12891 5.87062C6.9043 5.87062 6.77734 6.01711 6.77734 6.25148L6.77734 6.31007C6.77734 6.54445 6.9043 6.69093 7.12891 6.69093L8.34961 6.69093C9.08203 6.69093 9.67773 6.97414 9.79492 7.69679L7.08008 7.69679C6.91406 7.69679 6.78711 7.82375 6.78711 7.97023C6.78711 8.12648 6.91406 8.25343 7.08008 8.25343L9.79492 8.25343C9.67773 8.99562 9.11133 9.25929 8.36914 9.25929L7.32422 9.25929C7.00195 9.25929 6.79688 9.45461 6.79688 9.73781L6.79688 9.76711C6.79688 10.0112 6.9043 10.1382 7.09961 10.314L9.6582 12.7163C9.79492 12.853 9.91211 12.9605 10.127 12.9605C10.3711 12.9605 10.5664 12.7554 10.5664 12.521C10.5664 12.3648 10.4883 12.2476 10.3613 12.1304L8.18359 10.0894Z" fill="white" fill-opacity="0.85"/>
 </g>
</svg>
