<?xml version="1.0" encoding="UTF-8"?>
<!--Generator: Apple Native CoreSVG 326-->
<!DOCTYPE svg
PUBLIC "-//W3C//DTD SVG 1.1//EN"
       "http://www.w3.org/Graphics/SVG/1.1/DTD/svg11.dtd">
<svg version="1.1" xmlns="http://www.w3.org/2000/svg" xmlns:xlink="http://www.w3.org/1999/xlink" viewBox="0 0 18.4766 14.248">
 <g>
  <rect height="14.248" opacity="0" width="18.4766" x="0" y="0"/>
  <path d="M2.49023 14.248L15.625 14.248C17.2949 14.248 18.1152 13.4277 18.1152 11.7871L18.1152 2.4707C18.1152 0.830078 17.2949 0.00976562 15.625 0.00976562L2.49023 0.00976562C0.830078 0.00976562 0 0.830078 0 2.4707L0 11.7871C0 13.4277 0.830078 14.248 2.49023 14.248ZM2.50977 12.832C1.80664 12.832 1.40625 12.4512 1.40625 11.7188L1.40625 2.53906C1.40625 1.79688 1.80664 1.42578 2.50977 1.42578L15.6055 1.42578C16.3086 1.42578 16.709 1.79688 16.709 2.53906L16.709 11.7188C16.709 12.4512 16.3086 12.832 15.6055 12.832Z" fill="white" fill-opacity="0.85"/>
  <path d="M10.2344 11.6992L14.9707 11.6992C15.4102 11.6992 15.5664 11.5234 15.5664 11.0742L15.5664 8.33008C15.5664 7.87109 15.4102 7.70508 14.9707 7.70508L10.2344 7.70508C9.78516 7.70508 9.62891 7.87109 9.62891 8.33008L9.62891 11.0742C9.62891 11.5234 9.78516 11.6992 10.2344 11.6992Z" fill="white" fill-opacity="0.85"/>
  <path d="M10.2344 6.55273L14.9707 6.55273C15.4102 6.55273 15.5664 6.38672 15.5664 5.92773L15.5664 3.18359C15.5664 2.72461 15.4102 2.55859 14.9707 2.55859L10.2344 2.55859C9.78516 2.55859 9.62891 2.72461 9.62891 3.18359L9.62891 5.92773C9.62891 6.38672 9.78516 6.55273 10.2344 6.55273Z" fill="white" fill-opacity="0.85"/>
  <path d="M3.14453 11.6992L7.89062 11.6992C8.33008 11.6992 8.48633 11.5234 8.48633 11.0742L8.48633 8.33008C8.48633 7.87109 8.33008 7.70508 7.89062 7.70508L3.14453 7.70508C2.70508 7.70508 2.54883 7.87109 2.54883 8.33008L2.54883 11.0742C2.54883 11.5234 2.70508 11.6992 3.14453 11.6992Z" fill="white" fill-opacity="0.85"/>
  <path d="M3.14453 6.55273L7.89062 6.55273C8.33008 6.55273 8.48633 6.38672 8.48633 5.92773L8.48633 3.18359C8.48633 2.72461 8.33008 2.55859 7.89062 2.55859L3.14453 2.55859C2.70508 2.55859 2.54883 2.72461 2.54883 3.18359L2.54883 5.92773C2.54883 6.38672 2.70508 6.55273 3.14453 6.55273Z" fill="white" fill-opacity="0.85"/>
 </g>
</svg>
