<?xml version="1.0" encoding="UTF-8"?>
<!--Generator: Apple Native CoreSVG 326-->
<!DOCTYPE svg
PUBLIC "-//W3C//DTD SVG 1.1//EN"
       "http://www.w3.org/Graphics/SVG/1.1/DTD/svg11.dtd">
<svg version="1.1" xmlns="http://www.w3.org/2000/svg" xmlns:xlink="http://www.w3.org/1999/xlink" viewBox="0 0 18.6328 13.291">
 <g>
  <rect height="13.291" opacity="0" width="18.6328" x="0" y="0"/>
  <path d="M6.92383 10.498C6.92383 10.752 7.11914 10.957 7.38281 10.957C7.62695 10.957 7.83203 10.752 7.83203 10.498L7.83203 8.91602C7.83203 8.66211 7.62695 8.4668 7.38281 8.4668C7.11914 8.4668 6.92383 8.66211 6.92383 8.91602ZM8.68164 10.498C8.68164 10.752 8.87695 10.957 9.14062 10.957C9.38477 10.957 9.58984 10.752 9.58984 10.498L9.58984 8.91602C9.58984 8.66211 9.38477 8.4668 9.14062 8.4668C8.87695 8.4668 8.68164 8.66211 8.68164 8.91602ZM10.4395 10.498C10.4395 10.752 10.6348 10.957 10.8984 10.957C11.1426 10.957 11.3477 10.752 11.3477 10.498L11.3477 8.91602C11.3477 8.66211 11.1426 8.4668 10.8984 8.4668C10.6348 8.4668 10.4395 8.66211 10.4395 8.91602ZM12.1973 10.498C12.1973 10.752 12.3926 10.957 12.6562 10.957C12.9004 10.957 13.1055 10.752 13.1055 10.498L13.1055 8.91602C13.1055 8.66211 12.9004 8.4668 12.6562 8.4668C12.3926 8.4668 12.1973 8.66211 12.1973 8.91602ZM13.9551 10.498C13.9551 10.752 14.1504 10.957 14.4141 10.957C14.6582 10.957 14.8633 10.752 14.8633 10.498L14.8633 8.91602C14.8633 8.66211 14.6582 8.4668 14.4141 8.4668C14.1504 8.4668 13.9551 8.66211 13.9551 8.91602ZM0 9.70703C0 11.7285 1.55273 13.291 3.79883 13.291L14.4727 13.291C16.7188 13.291 18.2715 11.7285 18.2715 9.70703C18.2715 9.11133 18.0957 8.58398 17.9004 8.08594L15.4102 1.96289C14.8926 0.673828 13.7891 0.00976562 12.3438 0.00976562L5.9375 0.00976562C4.48242 0.00976562 3.37891 0.673828 2.86133 1.96289L0.371094 8.08594C0.175781 8.58398 0 9.11133 0 9.70703ZM1.40625 9.70703C1.40625 8.45703 2.33398 7.5293 3.79883 7.5293L14.4727 7.5293C15.9375 7.5293 16.8652 8.45703 16.8652 9.70703C16.8652 11.1328 15.9375 11.875 14.4727 11.875L3.79883 11.875C2.33398 11.875 1.40625 10.9473 1.40625 9.70703ZM2.72461 6.25977L4.21875 2.32422C4.50195 1.60156 5.13672 1.24023 6.03516 1.24023L12.2461 1.24023C13.1348 1.24023 13.7793 1.60156 14.0527 2.32422L15.5469 6.25977C15.2051 6.17188 14.8535 6.12305 14.4727 6.12305L3.79883 6.12305C3.41797 6.12305 3.06641 6.17188 2.72461 6.25977Z" fill="white" fill-opacity="0.85"/>
 </g>
</svg>
