<?xml version="1.0" encoding="UTF-8"?>
<!--Generator: Apple Native CoreSVG 326-->
<!DOCTYPE svg
PUBLIC "-//W3C//DTD SVG 1.1//EN"
       "http://www.w3.org/Graphics/SVG/1.1/DTD/svg11.dtd">
<svg version="1.1" xmlns="http://www.w3.org/2000/svg" xmlns:xlink="http://www.w3.org/1999/xlink" viewBox="0 0 10.5176 16.4941">
 <g>
  <rect height="16.4941" opacity="0" width="10.5176" x="0" y="0"/>
  <path d="M2.32422 15.0684C1.75781 15.0684 1.40625 14.7461 1.40625 14.209L1.40625 2.26562C1.40625 1.72852 1.75781 1.40625 2.32422 1.40625L7.82227 1.40625C8.39844 1.40625 8.74023 1.72852 8.74023 2.26562L8.74023 14.209C8.74023 14.7461 8.39844 15.0684 7.82227 15.0684Z" fill="white" fill-opacity="0.2125"/>
  <path d="M2.13867 16.4746L8.00781 16.4746C9.26758 16.4746 10.1562 15.6445 10.1562 14.4531L10.1562 2.02148C10.1562 0.830078 9.26758 0 8.00781 0L2.13867 0C0.878906 0 0 0.830078 0 2.02148L0 14.4531C0 15.6445 0.878906 16.4746 2.13867 16.4746ZM2.32422 15.0684C1.75781 15.0684 1.40625 14.7461 1.40625 14.209L1.40625 2.26562C1.40625 1.72852 1.75781 1.40625 2.32422 1.40625L7.82227 1.40625C8.39844 1.40625 8.74023 1.72852 8.74023 2.26562L8.74023 14.209C8.74023 14.7461 8.39844 15.0684 7.82227 15.0684ZM3.4375 14.4922L6.72852 14.4922C6.95312 14.4922 7.11914 14.3359 7.11914 14.1016C7.11914 13.8672 6.95312 13.7109 6.72852 13.7109L3.4375 13.7109C3.20312 13.7109 3.04688 13.8672 3.04688 14.1016C3.04688 14.3359 3.20312 14.4922 3.4375 14.4922ZM4.13086 3.16406L6.02539 3.16406C6.34766 3.16406 6.61133 2.90039 6.61133 2.56836C6.61133 2.24609 6.34766 1.98242 6.02539 1.98242L4.13086 1.98242C3.79883 1.98242 3.53516 2.24609 3.53516 2.56836C3.53516 2.90039 3.79883 3.16406 4.13086 3.16406Z" fill="white" fill-opacity="0.85"/>
 </g>
</svg>
