<?xml version="1.0" encoding="UTF-8"?>
<!--Generator: Apple Native CoreSVG 326-->
<!DOCTYPE svg
PUBLIC "-//W3C//DTD SVG 1.1//EN"
       "http://www.w3.org/Graphics/SVG/1.1/DTD/svg11.dtd">
<svg version="1.1" xmlns="http://www.w3.org/2000/svg" xmlns:xlink="http://www.w3.org/1999/xlink" viewBox="0 0 16.1328 15.7715">
 <g>
  <rect height="15.7715" opacity="0" width="16.1328" x="0" y="0"/>
  <path d="M15.7715 7.88086C15.7715 12.2363 12.2363 15.7617 7.88086 15.7617C3.53516 15.7617 0 12.2363 0 7.88086C0 3.52539 3.53516 0 7.88086 0C12.2363 0 15.7715 3.52539 15.7715 7.88086ZM1.49414 7.88086C1.49414 11.416 4.3457 14.2773 7.88086 14.2773C11.416 14.2773 14.2773 11.416 14.2773 7.88086C14.2773 4.3457 11.416 1.48438 7.88086 1.48438C4.3457 1.48438 1.49414 4.3457 1.49414 7.88086Z" fill="white" fill-opacity="0.85"/>
  <path d="M5.75195 7.08706L5.75195 11.3477C5.75195 11.6504 5.94727 11.8457 6.28906 11.8457L9.46289 11.8457C9.80469 11.8457 10 11.6504 10 11.3477L10 11.3291L10.6543 11.9824C10.6682 11.9956 10.6824 12.0083 10.6974 12.0196C10.5042 12.4138 10.0917 12.6562 9.57031 12.6562L6.17188 12.6562C5.44922 12.6562 4.93164 12.1777 4.93164 11.4746L4.93164 6.26792ZM9.05273 11.2793C9.05273 11.416 8.96484 11.5039 8.82812 11.5039L6.92383 11.5039C6.78711 11.5039 6.69922 11.416 6.69922 11.2793C6.69922 11.1426 6.78711 11.0547 6.92383 11.0547L8.82812 11.0547C8.96484 11.0547 9.05273 11.1426 9.05273 11.2793ZM10.8203 4.27734L10.8203 9.47266L10 8.65234L10 4.41406C10 4.10156 9.80469 3.90625 9.46289 3.90625L8.92578 3.90625C8.84766 3.90625 8.80859 3.94531 8.80859 4.02344L8.80859 4.13086C8.80859 4.32617 8.68164 4.46289 8.48633 4.46289L7.25586 4.46289C7.06055 4.46289 6.94336 4.32617 6.94336 4.13086L6.94336 4.02344C6.94336 3.94531 6.91406 3.90625 6.82617 3.90625L6.28906 3.90625C5.95077 3.90625 5.75598 4.09757 5.75233 4.40467L5.14648 3.79883C5.11861 3.77095 5.08958 3.74511 5.05927 3.72195C5.25416 3.33395 5.66197 3.0957 6.17188 3.0957L9.57031 3.0957C10.3027 3.0957 10.8203 3.57422 10.8203 4.27734Z" fill="white" fill-opacity="0.85"/>
  <path d="M11.0645 11.5723C11.2012 11.7188 11.4551 11.7188 11.5918 11.5723C11.748 11.416 11.748 11.1914 11.5918 11.0352L4.74609 4.18945C4.58984 4.0332 4.35547 4.0332 4.19922 4.18945C4.0625 4.33594 4.0625 4.58008 4.19922 4.72656Z" fill="white" fill-opacity="0.85"/>
 </g>
</svg>
