<?xml version="1.0" encoding="UTF-8"?>
<!--Generator: Apple Native CoreSVG 326-->
<!DOCTYPE svg
PUBLIC "-//W3C//DTD SVG 1.1//EN"
       "http://www.w3.org/Graphics/SVG/1.1/DTD/svg11.dtd">
<svg version="1.1" xmlns="http://www.w3.org/2000/svg" xmlns:xlink="http://www.w3.org/1999/xlink" viewBox="0 0 16.1328 15.8496">
 <g>
  <rect height="15.8496" opacity="0" width="16.1328" x="0" y="0"/>
  <path d="M7.88086 15.7715C12.2363 15.7715 15.7715 12.2363 15.7715 7.88086C15.7715 3.53516 12.2363 0 7.88086 0C3.53516 0 0 3.53516 0 7.88086C0 12.2363 3.53516 15.7715 7.88086 15.7715ZM7.88086 14.2773C4.3457 14.2773 1.49414 11.416 1.49414 7.88086C1.49414 4.3457 4.3457 1.49414 7.88086 1.49414C11.416 1.49414 14.2773 4.3457 14.2773 7.88086C14.2773 11.416 11.416 14.2773 7.88086 14.2773Z" fill="white" fill-opacity="0.85"/>
  <path d="M3.44727 10.1465C3.56445 10.0098 3.53516 9.83398 3.39844 9.67773C2.96875 9.18945 2.74414 8.56445 2.74414 7.88086C2.74414 7.20703 2.96875 6.57227 3.39844 6.09375C3.53516 5.92773 3.56445 5.76172 3.44727 5.625C3.33984 5.47852 3.125 5.47852 2.97852 5.63477C2.43164 6.24023 2.13867 7.03125 2.13867 7.88086C2.13867 8.73047 2.43164 9.53125 2.97852 10.1367C3.125 10.2832 3.33984 10.2832 3.44727 10.1465ZM12.2949 10.1465C12.4023 10.2832 12.6172 10.2832 12.7637 10.1367C13.3105 9.53125 13.6035 8.73047 13.6035 7.88086C13.6035 7.03125 13.3105 6.24023 12.7637 5.63477C12.6172 5.47852 12.4023 5.47852 12.2949 5.625C12.1777 5.76172 12.207 5.92773 12.3438 6.09375C12.7734 6.57227 12.998 7.20703 12.998 7.88086C12.998 8.56445 12.7734 9.18945 12.3438 9.67773C12.207 9.83398 12.1777 10.0098 12.2949 10.1465Z" fill="white" fill-opacity="0.85"/>
  <path d="M4.56055 9.20898C4.67773 9.07227 4.62891 8.91602 4.51172 8.74023C4.33594 8.50586 4.24805 8.20312 4.24805 7.88086C4.24805 7.55859 4.33594 7.25586 4.51172 7.02148C4.62891 6.8457 4.67773 6.69922 4.56055 6.55273C4.44336 6.40625 4.20898 6.40625 4.07227 6.58203C3.79883 6.94336 3.63281 7.39258 3.63281 7.88086C3.63281 8.36914 3.79883 8.81836 4.07227 9.18945C4.20898 9.35547 4.44336 9.35547 4.56055 9.20898ZM11.1816 9.20898C11.2988 9.35547 11.5332 9.35547 11.6699 9.18945C11.9434 8.81836 12.1094 8.36914 12.1094 7.88086C12.1094 7.39258 11.9434 6.94336 11.6699 6.58203C11.5332 6.40625 11.2988 6.40625 11.1816 6.55273C11.0645 6.69922 11.1133 6.8457 11.2305 7.02148C11.4062 7.25586 11.4844 7.55859 11.4844 7.88086C11.4844 8.20312 11.4062 8.50586 11.2305 8.74023C11.1133 8.91602 11.0645 9.07227 11.1816 9.20898Z" fill="white" fill-opacity="0.85"/>
  <path d="M6.33789 12.2168L9.42383 12.2168C10.0879 12.2168 10.5566 11.7773 10.5566 11.1426L10.5566 4.61914C10.5566 3.98438 10.0879 3.54492 9.42383 3.54492L6.33789 3.54492C5.68359 3.54492 5.21484 3.98438 5.21484 4.61914L5.21484 11.1426C5.21484 11.7773 5.68359 12.2168 6.33789 12.2168ZM6.44531 11.4746C6.13281 11.4746 5.95703 11.2988 5.95703 11.0254L5.95703 4.73633C5.95703 4.45312 6.13281 4.28711 6.44531 4.28711L9.32617 4.28711C9.62891 4.28711 9.81445 4.45312 9.81445 4.73633L9.81445 11.0254C9.81445 11.2988 9.62891 11.4746 9.32617 11.4746ZM7.37305 5.23438L8.37891 5.23438C8.54492 5.23438 8.68164 5.08789 8.68164 4.92188C8.68164 4.75586 8.54492 4.60938 8.37891 4.60938L7.37305 4.60938C7.19727 4.60938 7.07031 4.75586 7.07031 4.92188C7.07031 5.08789 7.19727 5.23438 7.37305 5.23438ZM7.02148 11.1719L8.75 11.1719C8.87695 11.1719 8.95508 11.084 8.95508 10.9668C8.95508 10.8301 8.87695 10.752 8.75 10.752L7.02148 10.752C6.89453 10.752 6.80664 10.8301 6.80664 10.9668C6.80664 11.084 6.89453 11.1719 7.02148 11.1719Z" fill="white" fill-opacity="0.85"/>
 </g>
</svg>
