<svg version="1.1" xmlns="http://www.w3.org/2000/svg" xmlns:xlink="http://www.w3.org/1999/xlink" width="16.1328" height="15.7715" viewBox="0 0 16.1328 15.7715">
 <g>
  <rect height="15.7715" opacity="0" width="16.1328" x="0" y="0"/>
  <path d="M15.7715 7.88086C15.7715 12.1875 12.1875 15.7617 7.88086 15.7617C3.58398 15.7617 0 12.1875 0 7.88086C0 3.57422 3.57422 0 7.87109 0C12.1777 0 15.7715 3.57422 15.7715 7.88086ZM1.50391 7.88086C1.50391 11.4355 4.33594 14.2773 7.88086 14.2773C11.4355 14.2773 14.2773 11.4355 14.2773 7.88086C14.2773 4.32617 11.4258 1.48438 7.87109 1.48438C4.32617 1.48438 1.50391 4.32617 1.50391 7.88086Z" fill="var(--color-secondary)"/>
  <path d="M5.75195 7.09377L5.75195 11.3477C5.75195 11.6504 5.94727 11.8457 6.28906 11.8457L9.46289 11.8457C9.80469 11.8457 10 11.6504 10 11.3477L10 11.3304L10.6954 12.0239C10.5012 12.4155 10.0898 12.6562 9.57031 12.6562L6.17188 12.6562C5.44922 12.6562 4.93164 12.1777 4.93164 11.4746L4.93164 6.27567ZM9.05273 11.2793C9.05273 11.416 8.96484 11.5039 8.82812 11.5039L6.92383 11.5039C6.78711 11.5039 6.69922 11.416 6.69922 11.2793C6.69922 11.1426 6.78711 11.0547 6.92383 11.0547L8.82812 11.0547C8.96484 11.0547 9.05273 11.1426 9.05273 11.2793ZM10.8203 4.27734L10.8203 9.47266L10 8.65234L10 4.41406C10 4.10156 9.80469 3.90625 9.46289 3.90625L8.92578 3.90625C8.84766 3.90625 8.80859 3.94531 8.80859 4.02344L8.80859 4.13086C8.80859 4.32617 8.68164 4.46289 8.48633 4.46289L7.25586 4.46289C7.06055 4.46289 6.94336 4.32617 6.94336 4.13086L6.94336 4.02344C6.94336 3.94531 6.91406 3.90625 6.82617 3.90625L6.28906 3.90625C5.95077 3.90625 5.75598 4.09757 5.75233 4.40467L5.06262 3.71496C5.259 3.33113 5.66499 3.0957 6.17188 3.0957L9.57031 3.0957C10.3027 3.0957 10.8203 3.57422 10.8203 4.27734Z" fill="var(--color-primary)"/>
  <path d="M11.2402 11.7676C11.3867 11.9141 11.6309 11.9141 11.7773 11.7676C11.9238 11.6113 11.9238 11.3867 11.7773 11.2305L4.53125 3.99414C4.38477 3.83789 4.14062 3.83789 3.99414 3.99414C3.84766 4.14062 3.84766 4.38477 3.99414 4.53125Z" fill="var(--color-primary)"/>
 </g>
</svg>
