<svg version="1.1" xmlns="http://www.w3.org/2000/svg" xmlns:xlink="http://www.w3.org/1999/xlink" width="8.7793" height="16.4941" viewBox="0 0 8.7793 16.4941">
 <g>
  <rect height="16.4941" opacity="0" width="8.7793" x="0" y="0"/>
  <path d="M4.20898 7.71484C5.54688 7.71484 6.64062 6.62109 6.64062 5.2832C6.64062 3.94531 5.54688 2.85156 4.20898 2.85156C2.86133 2.85156 1.78711 3.94531 1.78711 5.2832C1.78711 6.62109 2.86133 7.71484 4.20898 7.71484ZM4.20898 6.71875C3.41797 6.71875 2.7832 6.08398 2.7832 5.2832C2.7832 4.48242 3.41797 3.84766 4.20898 3.84766C5.00977 3.84766 5.64453 4.48242 5.64453 5.2832C5.64453 6.08398 5.00977 6.71875 4.20898 6.71875ZM2.13867 16.4844L6.2793 16.4844C7.57812 16.4844 8.41797 15.6836 8.41797 14.4629L8.41797 2.02148C8.41797 0.810547 7.57812 0 6.2793 0L2.13867 0C0.849609 0 0 0.810547 0 2.02148L0 14.4629C0 15.6836 0.849609 16.4844 2.13867 16.4844ZM2.32422 15.0781C1.76758 15.0781 1.40625 14.7461 1.40625 14.2188L1.40625 2.26562C1.40625 1.73828 1.76758 1.40625 2.32422 1.40625L6.09375 1.40625C6.66016 1.40625 7.01172 1.73828 7.01172 2.26562L7.01172 14.2188C7.01172 14.7461 6.66016 15.0781 6.09375 15.0781Z" fill="var(--color-primary)"/>
 </g>
</svg>
