<?xml version="1.0" encoding="UTF-8"?>
<!--Generator: Apple Native CoreSVG 326-->
<!DOCTYPE svg
PUBLIC "-//W3C//DTD SVG 1.1//EN"
       "http://www.w3.org/Graphics/SVG/1.1/DTD/svg11.dtd">
<svg version="1.1" xmlns="http://www.w3.org/2000/svg" xmlns:xlink="http://www.w3.org/1999/xlink" viewBox="0 0 14.5898 14.248">
 <g>
  <rect height="14.248" opacity="0" width="14.5898" x="0" y="0"/>
  <path d="M14.2285 2.4707L14.2285 11.7871C14.2285 13.4277 13.4082 14.248 11.7383 14.248L2.49023 14.248C0.830078 14.248 0 13.4277 0 11.7871L0 2.4707C0 0.830078 0.830078 0.00976562 2.49023 0.00976562L11.7383 0.00976562C13.4082 0.00976562 14.2285 0.830078 14.2285 2.4707ZM7.77344 4.10156L7.77344 8.4375C7.77344 9.18945 7.39258 9.63867 6.78711 9.63867C6.25 9.63867 5.89844 9.39453 5.68359 8.91602C5.51758 8.58398 5.3125 8.44727 5.01953 8.44727C4.61914 8.44727 4.3457 8.7207 4.3457 9.11133C4.3457 9.26758 4.36523 9.38477 4.42383 9.52148C4.72656 10.3516 5.5957 10.8691 6.70898 10.8691C8.35938 10.8691 9.21875 10.0391 9.21875 8.45703L9.21875 4.10156C9.21875 3.59375 8.96484 3.28125 8.48633 3.28125C8.01758 3.28125 7.77344 3.61328 7.77344 4.10156Z" fill="white" fill-opacity="0.85"/>
 </g>
</svg>
