<?xml version="1.0" encoding="UTF-8"?>
<!--Generator: Apple Native CoreSVG 326-->
<!DOCTYPE svg
PUBLIC "-//W3C//DTD SVG 1.1//EN"
       "http://www.w3.org/Graphics/SVG/1.1/DTD/svg11.dtd">
<svg version="1.1" xmlns="http://www.w3.org/2000/svg" xmlns:xlink="http://www.w3.org/1999/xlink" viewBox="0 0 22.3242 12.8223">
 <g>
  <rect height="12.8223" opacity="0" width="22.3242" x="0" y="0"/>
  <path d="M4.01367 10.9375L6.14258 12.5195C6.58203 12.8516 7.1582 12.6758 7.1582 12.0703L7.1582 11.0156L17.7246 11.0156L17.7246 12.0703C17.7246 12.666 18.2715 12.8711 18.7402 12.5195L20.8594 10.9375C21.1621 10.7129 21.1523 10.293 20.8594 10.0781L18.7402 8.50586C18.2715 8.1543 17.7246 8.35938 17.7246 8.94531L17.7246 10.0195L7.1582 10.0195L7.1582 8.94531C7.1582 8.35938 6.60156 8.1543 6.14258 8.50586L4.01367 10.0781C3.7207 10.3027 3.7207 10.7129 4.01367 10.9375Z" fill="white" fill-opacity="0.85"/>
  <path d="M10.4102 5.87891L13.8965 5.87891C15.7129 5.87891 16.2695 5.36133 17.0117 4.27734L17.3926 3.58398C17.9785 2.20703 18.4766 1.48438 19.375 1.48438C20.2246 1.48438 20.8008 2.37305 20.8008 3.22266C20.8008 4.04297 20.3223 4.36523 19.541 4.36523C18.4375 4.36523 17.4219 3.75977 16.9434 3.01758L16.4258 4.30664C16.8848 5.16602 18.0566 5.87891 19.4434 5.87891C20.9766 5.87891 21.9629 4.92188 21.9629 3.20312C21.9629 1.5918 20.957 0 19.5215 0C18.4277 0 17.6855 0.673828 17.0312 1.93359L16.6211 2.74414C16.0938 3.7793 15.5566 4.31641 14.0723 4.31641L10.5859 4.31641C8.74023 4.31641 8.34961 3.70117 7.97852 2.48047C7.57812 1.2207 6.8457 0 5.50781 0C3.83789 0 2.7832 1.79688 2.49023 3.61328L3.55469 3.89648C3.85742 2.37305 4.60938 1.47461 5.41016 1.47461C6.25977 1.47461 6.73828 2.28516 6.85547 2.99805C7.00195 3.98438 6.37695 4.4043 5.625 4.4043C4.64844 4.4043 3.75977 3.89648 3.34961 3.17383L2.5293 4.26758C2.97852 5.10742 4.08203 5.87891 5.46875 5.87891C6.85547 5.87891 7.8418 5.09766 7.75391 3.61328L7.33398 3.82812C7.58789 5.01953 8.38867 5.87891 10.4102 5.87891ZM0.625 11.2891C0.966797 11.2891 1.23047 11.0254 1.23047 10.6641L1.23047 5.71289C1.23047 4.90234 1.50391 4.76562 2.17773 4.67773L3.47656 4.50195L3.14453 3.125L2.10938 3.29102C0.664062 3.52539 0 4.01367 0 5.71289L0.00976562 10.6738C0.00976562 11.0352 0.263672 11.2891 0.625 11.2891Z" fill="white" fill-opacity="0.85"/>
 </g>
</svg>
