<?xml version="1.0" encoding="UTF-8"?>
<!--Generator: Apple Native CoreSVG 326-->
<!DOCTYPE svg
PUBLIC "-//W3C//DTD SVG 1.1//EN"
       "http://www.w3.org/Graphics/SVG/1.1/DTD/svg11.dtd">
<svg version="1.1" xmlns="http://www.w3.org/2000/svg" xmlns:xlink="http://www.w3.org/1999/xlink" viewBox="0 0 18.4082 23.3887">
 <g>
  <rect height="23.3887" opacity="0" width="18.4082" x="0" y="0"/>
  <path d="M18.0469 11.6895C18.0469 15.5885 15.569 18.919 12.0986 20.1716C12.2544 19.6622 12.1782 19.1435 11.9248 18.7347C14.6977 17.6003 16.6406 14.8794 16.6406 11.6895C16.6406 7.4707 13.2422 4.07227 9.02344 4.07227C4.80469 4.07227 1.40625 7.4707 1.40625 11.6895C1.40625 14.8722 3.34054 17.5881 6.10315 18.7278C5.84614 19.1377 5.7694 19.6575 5.92437 20.1628C2.46646 18.9036 0 15.5795 0 11.6895C0 6.70898 4.04297 2.65625 9.02344 2.65625C14.0039 2.65625 18.0469 6.70898 18.0469 11.6895Z" fill="white" fill-opacity="0.85"/>
  <path d="M7.60742 19.0723C7.00195 19.0723 6.81641 19.6582 7.14844 20.1074L8.58398 22.0215C8.80859 22.3242 9.22852 22.334 9.46289 22.0215L10.8691 20.1172C11.2207 19.6484 11.0156 19.0723 10.4297 19.0723Z" fill="white" fill-opacity="0.85"/>
  <path d="M9.02344 5.50781C5.61523 5.50781 2.85156 8.28125 2.85156 11.6895C2.85156 15.1074 5.61523 17.8613 9.02344 17.8613C12.4316 17.8613 15.1953 15.1074 15.1953 11.6895C15.1953 8.28125 12.4316 5.50781 9.02344 5.50781ZM7.89062 14.7363C7.46094 14.7363 7.22656 14.4336 7.22656 13.9844L7.22656 9.28711C7.22656 8.83789 7.46094 8.51562 7.89062 8.51562C8.33008 8.51562 8.60352 8.82812 8.60352 9.28711L8.60352 13.5938L10.7031 13.5938C11.0254 13.5938 11.2988 13.8379 11.2988 14.1699C11.2988 14.5117 11.0254 14.7363 10.7031 14.7363Z" fill="white" fill-opacity="0.85"/>
 </g>
</svg>
