<?xml version="1.0" encoding="UTF-8"?>
<!--Generator: Apple Native CoreSVG 326-->
<!DOCTYPE svg
PUBLIC "-//W3C//DTD SVG 1.1//EN"
       "http://www.w3.org/Graphics/SVG/1.1/DTD/svg11.dtd">
<svg version="1.1" xmlns="http://www.w3.org/2000/svg" xmlns:xlink="http://www.w3.org/1999/xlink" viewBox="0 0 14.5898 14.248">
 <g>
  <rect height="14.248" opacity="0" width="14.5898" x="0" y="0"/>
  <path d="M14.2285 2.4707L14.2285 11.7871C14.2285 13.4277 13.4082 14.248 11.7383 14.248L2.49023 14.248C0.830078 14.248 0 13.4277 0 11.7871L0 2.4707C0 0.830078 0.830078 0.00976562 2.49023 0.00976562L11.7383 0.00976562C13.4082 0.00976562 14.2285 0.830078 14.2285 2.4707ZM4.9707 4.10156L4.9707 9.85352C4.9707 10.332 5.21484 10.6738 5.68359 10.6738L9.30664 10.6738C9.6582 10.6738 9.91211 10.4492 9.91211 10.0781C9.91211 9.7168 9.6582 9.49219 9.30664 9.49219L6.41602 9.49219L6.41602 4.10156C6.41602 3.59375 6.16211 3.27148 5.68359 3.27148C5.21484 3.27148 4.9707 3.61328 4.9707 4.10156Z" fill="white" fill-opacity="0.85"/>
 </g>
</svg>
