<?xml version="1.0" encoding="UTF-8"?>
<!--Generator: Apple Native CoreSVG 326-->
<!DOCTYPE svg
PUBLIC "-//W3C//DTD SVG 1.1//EN"
       "http://www.w3.org/Graphics/SVG/1.1/DTD/svg11.dtd">
<svg version="1.1" xmlns="http://www.w3.org/2000/svg" xmlns:xlink="http://www.w3.org/1999/xlink" viewBox="0 0 16.1328 15.7715">
 <g>
  <rect height="15.7715" opacity="0" width="16.1328" x="0" y="0"/>
  <path d="M15.7715 7.88086C15.7715 12.2266 12.2363 15.7617 7.88086 15.7617C3.53516 15.7617 0 12.2266 0 7.88086C0 3.53516 3.53516 0 7.88086 0C12.2363 0 15.7715 3.53516 15.7715 7.88086ZM9.27734 5.06836L8.49609 5.66406C8.34961 5.77148 8.23242 5.94727 8.23242 6.17188C8.23242 6.42578 8.39844 6.61133 8.65234 6.61133C8.78906 6.61133 8.86719 6.57227 8.95508 6.50391L9.58984 5.99609L9.58984 10.3906C9.58984 10.7422 9.86328 11.0156 10.2148 11.0156C10.5469 11.0156 10.8301 10.7422 10.8301 10.3906L10.8301 5.41992C10.8301 4.98047 10.5566 4.72656 10.1074 4.72656C9.75586 4.72656 9.47266 4.92188 9.27734 5.06836ZM4.86328 5.36133L4.86328 10.3027C4.86328 10.7031 5.07812 10.9473 5.47852 10.9473L7.61719 10.9473C7.89062 10.9473 8.125 10.7129 8.125 10.4297C8.125 10.1465 7.89062 9.91211 7.61719 9.91211L6.10352 9.91211L6.10352 5.36133C6.10352 5.01953 5.82031 4.74609 5.48828 4.74609C5.15625 4.74609 4.86328 5.01953 4.86328 5.36133Z" fill="white" fill-opacity="0.85"/>
 </g>
</svg>
