<?xml version="1.0" encoding="UTF-8"?>
<!--Generator: Apple Native CoreSVG 326-->
<!DOCTYPE svg
PUBLIC "-//W3C//DTD SVG 1.1//EN"
       "http://www.w3.org/Graphics/SVG/1.1/DTD/svg11.dtd">
<svg version="1.1" xmlns="http://www.w3.org/2000/svg" xmlns:xlink="http://www.w3.org/1999/xlink" viewBox="0 0 16.1328 15.7715">
 <g>
  <rect height="15.7715" opacity="0" width="16.1328" x="0" y="0"/>
  <path d="M7.88086 15.7617C12.2363 15.7617 15.7715 12.2363 15.7715 7.88086C15.7715 3.52539 12.2363 0 7.88086 0C3.53516 0 0 3.52539 0 7.88086C0 12.2363 3.53516 15.7617 7.88086 15.7617ZM7.88086 14.2773C4.3457 14.2773 1.49414 11.416 1.49414 7.88086C1.49414 4.3457 4.3457 1.48438 7.88086 1.48438C11.416 1.48438 14.2773 4.3457 14.2773 7.88086C14.2773 11.416 11.416 14.2773 7.88086 14.2773Z" fill="white" fill-opacity="0.85"/>
  <path d="M4.96094 11.3379L10.2539 11.3379C10.498 11.3379 10.6836 11.1719 10.6836 10.9375C10.6836 10.6934 10.498 10.5273 10.2539 10.5273L8.54492 10.5273C6.74805 10.5273 5.54688 9.19922 5.54688 7.67578C5.54688 6.15234 6.57227 5.30273 7.91992 5.30273C9.20898 5.30273 10.2246 6.19141 10.2637 7.33398C10.2734 7.61719 10.4492 7.8125 10.7324 7.8125C11.0059 7.8125 11.1816 7.60742 11.1816 7.33398C11.1816 5.72266 9.66797 4.43359 7.91992 4.43359C6.05469 4.43359 4.58008 5.70312 4.58008 7.51953C4.58008 8.69141 5.10742 9.92188 6.2793 10.5176L6.2793 10.5371L4.96094 10.5371C4.7168 10.5371 4.55078 10.6934 4.55078 10.9375C4.55078 11.1719 4.7168 11.3379 4.96094 11.3379ZM7.14844 7.71484C7.32422 7.71484 7.43164 7.60742 7.43164 7.43164L7.43164 3.82812C7.43164 3.66211 7.32422 3.54492 7.14844 3.54492C6.99219 3.54492 6.875 3.66211 6.875 3.82812L6.875 7.43164C6.875 7.60742 6.99219 7.71484 7.14844 7.71484ZM8.70117 7.71484C8.86719 7.71484 8.98438 7.60742 8.98438 7.43164L8.98438 3.82812C8.98438 3.66211 8.86719 3.54492 8.70117 3.54492C8.53516 3.54492 8.42773 3.66211 8.42773 3.82812L8.42773 7.43164C8.42773 7.60742 8.53516 7.71484 8.70117 7.71484Z" fill="white" fill-opacity="0.85"/>
 </g>
</svg>
