<?xml version="1.0" encoding="UTF-8"?>
<!--Generator: Apple Native CoreSVG 326-->
<!DOCTYPE svg
PUBLIC "-//W3C//DTD SVG 1.1//EN"
       "http://www.w3.org/Graphics/SVG/1.1/DTD/svg11.dtd">
<svg version="1.1" xmlns="http://www.w3.org/2000/svg" xmlns:xlink="http://www.w3.org/1999/xlink" viewBox="0 0 16.1328 15.7715">
 <g>
  <rect height="15.7715" opacity="0" width="16.1328" x="0" y="0"/>
  <path d="M15.7715 7.88086C15.7715 12.2266 12.2363 15.7617 7.88086 15.7617C3.53516 15.7617 0 12.2266 0 7.88086C0 3.53516 3.53516 0 7.88086 0C12.2363 0 15.7715 3.53516 15.7715 7.88086ZM8.45703 3.68164L8.45703 4.3457C8.28125 4.32617 8.10547 4.31641 7.92969 4.31641C7.76367 4.31641 7.59766 4.32617 7.42188 4.3457L7.42188 3.68164C7.42188 3.51562 7.31445 3.39844 7.12891 3.39844C6.96289 3.39844 6.8457 3.51562 6.8457 3.68164L6.8457 4.46289C5.44922 4.85352 4.46289 6.00586 4.46289 7.51953C4.46289 8.74023 5.01953 10.0098 6.2207 10.6348L6.2207 10.6543L4.86328 10.6543C4.60938 10.6543 4.42383 10.8203 4.42383 11.0645C4.42383 11.3086 4.60938 11.4844 4.86328 11.4844L10.3516 11.4844C10.6152 11.4844 10.8008 11.3086 10.8008 11.0645C10.8008 10.8203 10.6152 10.6445 10.3516 10.6445L8.58398 10.6445C6.71875 10.6445 5.46875 9.25781 5.46875 7.68555C5.46875 6.55273 6.01562 5.77148 6.8457 5.42969L6.8457 7.43164C6.8457 7.61719 6.96289 7.72461 7.12891 7.72461C7.31445 7.72461 7.42188 7.61719 7.42188 7.43164L7.42188 5.25391C7.59766 5.23438 7.76367 5.21484 7.92969 5.21484C8.10547 5.21484 8.28125 5.23438 8.45703 5.26367L8.45703 7.43164C8.45703 7.61719 8.57422 7.72461 8.74023 7.72461C8.91602 7.72461 9.04297 7.61719 9.04297 7.43164L9.04297 5.45898C9.81445 5.80078 10.3418 6.49414 10.3711 7.32422C10.3809 7.62695 10.5566 7.83203 10.8496 7.83203C11.1328 7.83203 11.3281 7.61719 11.3281 7.32422C11.3184 6.00586 10.3418 4.90234 9.04297 4.48242L9.04297 3.68164C9.04297 3.51562 8.91602 3.39844 8.74023 3.39844C8.57422 3.39844 8.45703 3.51562 8.45703 3.68164Z" fill="white" fill-opacity="0.85"/>
 </g>
</svg>
