<?xml version="1.0" encoding="UTF-8"?>
<!--Generator: Apple Native CoreSVG 326-->
<!DOCTYPE svg
PUBLIC "-//W3C//DTD SVG 1.1//EN"
       "http://www.w3.org/Graphics/SVG/1.1/DTD/svg11.dtd">
<svg version="1.1" xmlns="http://www.w3.org/2000/svg" xmlns:xlink="http://www.w3.org/1999/xlink" viewBox="0 0 14.5898 14.248">
 <g>
  <rect height="14.248" opacity="0" width="14.5898" x="0" y="0"/>
  <path d="M14.2285 2.4707L14.2285 11.7871C14.2285 13.4277 13.4082 14.248 11.7383 14.248L2.49023 14.248C0.830078 14.248 0 13.4277 0 11.7871L0 2.4707C0 0.830078 0.830078 0.00976562 2.49023 0.00976562L11.7383 0.00976562C13.4082 0.00976562 14.2285 0.830078 14.2285 2.4707ZM7.68555 2.91992L7.68555 3.58398C7.51953 3.56445 7.33398 3.55469 7.1582 3.55469C6.99219 3.55469 6.82617 3.56445 6.66016 3.58398L6.66016 2.91992C6.66016 2.75391 6.54297 2.63672 6.36719 2.63672C6.19141 2.63672 6.07422 2.75391 6.07422 2.91992L6.07422 3.70117C4.67773 4.0918 3.69141 5.24414 3.69141 6.75781C3.69141 7.97852 4.24805 9.24805 5.44922 9.87305L5.44922 9.89258L4.0918 9.89258C3.83789 9.89258 3.66211 10.0586 3.66211 10.3027C3.66211 10.5469 3.83789 10.7227 4.0918 10.7227L9.58984 10.7227C9.84375 10.7227 10.0293 10.5469 10.0293 10.3027C10.0293 10.0586 9.84375 9.88281 9.58984 9.88281L7.8125 9.88281C5.94727 9.88281 4.69727 8.49609 4.69727 6.92383C4.69727 5.79102 5.24414 5.00977 6.07422 4.66797L6.07422 6.66992C6.07422 6.85547 6.19141 6.96289 6.36719 6.96289C6.54297 6.96289 6.66016 6.85547 6.66016 6.66992L6.66016 4.49219C6.82617 4.47266 6.99219 4.45312 7.1582 4.45312C7.33398 4.45312 7.51953 4.47266 7.68555 4.50195L7.68555 6.66992C7.68555 6.85547 7.8125 6.96289 7.96875 6.96289C8.14453 6.96289 8.27148 6.85547 8.27148 6.66992L8.27148 4.69727C9.04297 5.03906 9.57031 5.73242 9.59961 6.5625C9.60938 6.86523 9.78516 7.07031 10.0781 7.07031C10.3613 7.07031 10.5566 6.85547 10.5566 6.5625C10.5566 5.24414 9.57031 4.14062 8.27148 3.7207L8.27148 2.91992C8.27148 2.75391 8.14453 2.63672 7.96875 2.63672C7.8125 2.63672 7.68555 2.75391 7.68555 2.91992Z" fill="white" fill-opacity="0.85"/>
 </g>
</svg>
