<svg version="1.1" xmlns="http://www.w3.org/2000/svg" xmlns:xlink="http://www.w3.org/1999/xlink" viewBox="0 0 16.1328 15.7715">
 <g>
  <rect height="15.7715" opacity="0" width="16.1328" x="0" y="0"/>
  <path d="M15.7715 7.88086C15.7715 12.2266 12.2363 15.7617 7.88086 15.7617C3.53516 15.7617 0 12.2266 0 7.88086C0 3.53516 3.53516 0 7.88086 0C12.2363 0 15.7715 3.53516 15.7715 7.88086ZM9.55078 4.51172L4.75586 7.08984C4.39453 7.28516 4.21875 7.53906 4.21875 7.88086C4.21875 8.26172 4.375 8.48633 4.75586 8.67188L9.55078 11.1328C9.6875 11.2012 9.80469 11.2402 9.99023 11.2402C10.4199 11.2402 10.7422 10.918 10.7422 10.5176C10.7422 10.166 10.5859 9.96094 10.2148 9.79492L6.2207 7.87109L6.2207 7.82227L10.2148 5.85938C10.5762 5.68359 10.7422 5.45898 10.7422 5.12695C10.7422 4.72656 10.4297 4.41406 10.0098 4.41406C9.80469 4.41406 9.69727 4.45312 9.55078 4.51172Z" fill="var(--color-primary)"/>
 </g>
</svg>
