<?xml version="1.0" encoding="UTF-8"?>
<!--Generator: Apple Native CoreSVG 326-->
<!DOCTYPE svg
PUBLIC "-//W3C//DTD SVG 1.1//EN"
       "http://www.w3.org/Graphics/SVG/1.1/DTD/svg11.dtd">
<svg version="1.1" xmlns="http://www.w3.org/2000/svg" xmlns:xlink="http://www.w3.org/1999/xlink" viewBox="0 0 14.5898 14.248">
 <g>
  <rect height="14.248" opacity="0" width="14.5898" x="0" y="0"/>
  <path d="M14.2285 2.4707L14.2285 11.7871C14.2285 13.4277 13.4082 14.248 11.7383 14.248L2.49023 14.248C0.830078 14.248 0 13.4277 0 11.7871L0 2.4707C0 0.830078 0.830078 0.00976562 2.49023 0.00976562L11.7383 0.00976562C13.4082 0.00976562 14.2285 0.830078 14.2285 2.4707ZM5.27344 5.74219C5.27344 5.81055 5.27344 5.86914 5.27344 5.94727L4.54102 5.94727C4.35547 5.94727 4.20898 6.07422 4.20898 6.26953C4.20898 6.45508 4.35547 6.5918 4.54102 6.5918L5.37109 6.5918C5.44922 6.91406 5.54688 7.1875 5.61523 7.49023L4.54102 7.49023C4.35547 7.49023 4.20898 7.61719 4.20898 7.8125C4.20898 7.99805 4.35547 8.13477 4.54102 8.13477L5.69336 8.13477C5.69336 8.22266 5.67383 8.34961 5.6543 8.45703C5.52734 9.10156 5.07812 9.50195 4.64844 9.64844C4.4043 9.74609 4.23828 9.87305 4.23828 10.1465C4.23828 10.4492 4.46289 10.6055 4.69727 10.6055L9.45312 10.6055C9.70703 10.6055 9.89258 10.4102 9.89258 10.166C9.89258 9.92188 9.70703 9.74609 9.45312 9.74609L5.81055 9.74609L5.81055 9.7168C6.33789 9.48242 6.61133 8.97461 6.69922 8.35938C6.70898 8.29102 6.71875 8.22266 6.71875 8.13477L8.64258 8.13477C8.83789 8.13477 8.98438 7.99805 8.98438 7.8125C8.98438 7.61719 8.83789 7.49023 8.64258 7.49023L6.66992 7.49023C6.61133 7.16797 6.51367 6.88477 6.43555 6.5918L8.64258 6.5918C8.83789 6.5918 8.98438 6.45508 8.98438 6.26953C8.98438 6.07422 8.83789 5.94727 8.64258 5.94727L6.33789 5.94727C6.32812 5.86914 6.31836 5.80078 6.31836 5.72266C6.31836 4.80469 7.07031 4.33594 7.99805 4.33594C8.28125 4.33594 8.63281 4.39453 8.87695 4.44336C8.98438 4.47266 9.08203 4.48242 9.16016 4.48242C9.46289 4.48242 9.56055 4.30664 9.56055 4.10156C9.56055 3.86719 9.4043 3.73047 9.19922 3.65234C8.7793 3.47656 8.29102 3.45703 7.89062 3.45703C6.34766 3.45703 5.27344 4.28711 5.27344 5.74219Z" fill="white" fill-opacity="0.85"/>
 </g>
</svg>
