<?xml version="1.0" encoding="UTF-8"?>
<!--Generator: Apple Native CoreSVG 326-->
<!DOCTYPE svg
PUBLIC "-//W3C//DTD SVG 1.1//EN"
       "http://www.w3.org/Graphics/SVG/1.1/DTD/svg11.dtd">
<svg version="1.1" xmlns="http://www.w3.org/2000/svg" xmlns:xlink="http://www.w3.org/1999/xlink" viewBox="0 0 13.3691 21.5527">
 <g>
  <rect height="21.5527" opacity="0" width="13.3691" x="0" y="0"/>
  <path d="M2.40234 3.39844L2.40234 4.21875C2.40234 5.26367 3.11523 5.99609 4.12109 5.99609L8.87695 5.99609C9.88281 5.99609 10.6055 5.26367 10.6055 4.21875L10.6055 3.39844C10.6055 3.32216 10.6016 3.24755 10.593 3.17533C12.2033 3.18995 13.0078 4.01995 13.0078 5.66406L13.0078 17.1582C13.0078 18.8281 12.1875 19.6484 10.5469 19.6484L2.45117 19.6484C0.810547 19.6484 0 18.8281 0 17.1582L0 5.66406C0 4.0166 0.798199 3.18657 2.41473 3.17502C2.40615 3.24733 2.40234 3.32205 2.40234 3.39844ZM3.05664 14.5801C2.74414 14.5801 2.5 14.8242 2.5 15.127C2.5 15.4297 2.75391 15.6934 3.05664 15.6934L6.41602 15.6934C6.71875 15.6934 6.97266 15.4297 6.97266 15.127C6.97266 14.8242 6.72852 14.5801 6.41602 14.5801ZM3.05664 11.6406C2.74414 11.6406 2.5 11.8848 2.5 12.1973C2.5 12.5098 2.74414 12.7539 3.05664 12.7539L9.95117 12.7539C10.2637 12.7539 10.5078 12.5098 10.5078 12.1973C10.5078 11.8848 10.2637 11.6406 9.95117 11.6406ZM3.05664 8.84766C2.75391 8.84766 2.5 9.10156 2.5 9.4043C2.5 9.70703 2.75391 9.96094 3.05664 9.96094L9.95117 9.96094C10.2539 9.96094 10.5078 9.70703 10.5078 9.4043C10.5078 9.10156 10.2539 8.84766 9.95117 8.84766Z" fill="white" fill-opacity="0.85"/>
  <path d="M8.24219 2.57812L8.87695 2.57812C9.35547 2.57812 9.64844 2.88086 9.64844 3.39844L9.64844 4.21875C9.64844 4.73633 9.35547 5.03906 8.87695 5.03906L4.12109 5.03906C3.64258 5.03906 3.35938 4.73633 3.35938 4.21875L3.35938 3.39844C3.35938 2.88086 3.64258 2.57812 4.12109 2.57812L4.75586 2.57812C4.82422 1.67969 5.57617 0.957031 6.50391 0.957031C7.43164 0.957031 8.18359 1.67969 8.24219 2.57812ZM5.83984 2.64648C5.83984 3.00781 6.14258 3.31055 6.50391 3.31055C6.86523 3.31055 7.1582 3.00781 7.1582 2.64648C7.1582 2.28516 6.86523 1.99219 6.50391 1.99219C6.14258 1.99219 5.83984 2.28516 5.83984 2.64648Z" fill="white" fill-opacity="0.85"/>
 </g>
</svg>
