<?xml version="1.0" encoding="UTF-8"?>
<!--Generator: Apple Native CoreSVG 326-->
<!DOCTYPE svg
PUBLIC "-//W3C//DTD SVG 1.1//EN"
       "http://www.w3.org/Graphics/SVG/1.1/DTD/svg11.dtd">
<svg version="1.1" xmlns="http://www.w3.org/2000/svg" xmlns:xlink="http://www.w3.org/1999/xlink" viewBox="0 0 17.6855 17.3291">
 <g>
  <rect height="17.3291" opacity="0" width="17.6855" x="0" y="0"/>
  <path d="M9.07227 16.7847C9.07227 17.019 8.88672 17.1948 8.66211 17.1948C8.42773 17.1948 8.24219 17.019 8.24219 16.7847C8.24219 16.5503 8.42773 16.3745 8.66211 16.3745C8.88672 16.3745 9.07227 16.5503 9.07227 16.7847ZM7.65625 16.6577C7.65625 16.8921 7.4707 17.0679 7.24609 17.0679C7.01172 17.0679 6.83594 16.8921 6.83594 16.6577C6.83594 16.4233 7.01172 16.2476 7.24609 16.2476C7.4707 16.2476 7.65625 16.4233 7.65625 16.6577ZM10.4883 16.6577C10.4883 16.8921 10.3027 17.0679 10.0781 17.0679C9.84375 17.0679 9.6582 16.8921 9.6582 16.6577C9.6582 16.4233 9.84375 16.2476 10.0781 16.2476C10.3027 16.2476 10.4883 16.4233 10.4883 16.6577ZM6.28906 16.2964C6.28906 16.5308 6.11328 16.7065 5.87891 16.7065C5.64453 16.7065 5.46875 16.5308 5.46875 16.2964C5.46875 16.062 5.64453 15.8862 5.87891 15.8862C6.11328 15.8862 6.28906 16.062 6.28906 16.2964ZM11.8555 16.2964C11.8555 16.5308 11.6699 16.7065 11.4355 16.7065C11.2109 16.7065 11.0254 16.5308 11.0254 16.2964C11.0254 16.062 11.2109 15.8862 11.4355 15.8862C11.6699 15.8862 11.8555 16.062 11.8555 16.2964ZM5 15.6812C5 15.9155 4.82422 16.0913 4.58984 16.0913C4.36523 16.0913 4.17969 15.9155 4.17969 15.6812C4.17969 15.4468 4.36523 15.271 4.58984 15.271C4.82422 15.271 5 15.4468 5 15.6812ZM13.1445 15.6812C13.1445 15.9155 12.959 16.0913 12.7246 16.0913C12.5 16.0913 12.3145 15.9155 12.3145 15.6812C12.3145 15.4468 12.5 15.271 12.7246 15.271C12.959 15.271 13.1445 15.4468 13.1445 15.6812ZM3.84766 14.8706C3.84766 15.105 3.66211 15.2905 3.42773 15.2905C3.20312 15.2905 3.01758 15.105 3.01758 14.8706C3.01758 14.646 3.20312 14.4604 3.42773 14.4604C3.66211 14.4604 3.84766 14.646 3.84766 14.8706ZM2.8418 13.8647C2.8418 14.0991 2.65625 14.2847 2.42188 14.2847C2.19727 14.2847 2.01172 14.0991 2.01172 13.8647C2.01172 13.6401 2.19727 13.4546 2.42188 13.4546C2.65625 13.4546 2.8418 13.6401 2.8418 13.8647ZM2.02148 12.7026C2.02148 12.9272 1.83594 13.1128 1.61133 13.1128C1.37695 13.1128 1.19141 12.9272 1.19141 12.7026C1.19141 12.4683 1.37695 12.2827 1.61133 12.2827C1.83594 12.2827 2.02148 12.4683 2.02148 12.7026ZM16.123 12.7026C16.123 12.9272 15.9375 13.1128 15.7129 13.1128C15.4785 13.1128 15.293 12.9272 15.293 12.7026C15.293 12.4683 15.4785 12.2827 15.7129 12.2827C15.9375 12.2827 16.123 12.4683 16.123 12.7026ZM1.42578 11.4233C1.42578 11.6479 1.24023 11.8335 1.01562 11.8335C0.78125 11.8335 0.595703 11.6479 0.595703 11.4233C0.595703 11.189 0.78125 11.0034 1.01562 11.0034C1.24023 11.0034 1.42578 11.189 1.42578 11.4233ZM16.7188 11.4233C16.7188 11.6479 16.5332 11.8335 16.3086 11.8335C16.0742 11.8335 15.8887 11.6479 15.8887 11.4233C15.8887 11.189 16.0742 11.0034 16.3086 11.0034C16.5332 11.0034 16.7188 11.189 16.7188 11.4233ZM17.0801 10.0562C17.0801 10.2905 16.8945 10.4663 16.6699 10.4663C16.4355 10.4663 16.25 10.2905 16.25 10.0562C16.25 9.82178 16.4355 9.646 16.6699 9.646C16.8945 9.646 17.0801 9.82178 17.0801 10.0562ZM1.06445 10.0562C1.06445 10.2905 0.878906 10.4663 0.654297 10.4663C0.419922 10.4663 0.234375 10.2905 0.234375 10.0562C0.234375 9.82178 0.419922 9.646 0.654297 9.646C0.878906 9.646 1.06445 9.82178 1.06445 10.0562ZM17.207 8.65967C17.207 8.89404 17.0215 9.06982 16.7969 9.06982C16.5625 9.06982 16.377 8.89404 16.377 8.65967C16.377 8.42529 16.5625 8.24951 16.7969 8.24951C17.0215 8.24951 17.207 8.42529 17.207 8.65967ZM0.9375 8.65967C0.9375 8.89404 0.751953 9.06982 0.527344 9.06982C0.292969 9.06982 0.107422 8.89404 0.107422 8.65967C0.107422 8.42529 0.292969 8.24951 0.527344 8.24951C0.751953 8.24951 0.9375 8.42529 0.9375 8.65967ZM17.0801 7.26318C17.0801 7.49756 16.8945 7.67334 16.6699 7.67334C16.4355 7.67334 16.25 7.49756 16.25 7.26318C16.25 7.02881 16.4355 6.85303 16.6699 6.85303C16.8945 6.85303 17.0801 7.02881 17.0801 7.26318ZM1.06445 7.26318C1.06445 7.49756 0.878906 7.67334 0.654297 7.67334C0.419922 7.67334 0.234375 7.49756 0.234375 7.26318C0.234375 7.02881 0.419922 6.85303 0.654297 6.85303C0.878906 6.85303 1.06445 7.02881 1.06445 7.26318ZM16.7188 5.896C16.7188 6.13037 16.5332 6.31592 16.3086 6.31592C16.0742 6.31592 15.8887 6.13037 15.8887 5.896C15.8887 5.67139 16.0742 5.48584 16.3086 5.48584C16.5332 5.48584 16.7188 5.67139 16.7188 5.896ZM1.42578 5.896C1.42578 6.13037 1.24023 6.31592 1.01562 6.31592C0.78125 6.31592 0.595703 6.13037 0.595703 5.896C0.595703 5.67139 0.78125 5.48584 1.01562 5.48584C1.24023 5.48584 1.42578 5.67139 1.42578 5.896ZM16.123 4.6167C16.123 4.85107 15.9375 5.03662 15.7129 5.03662C15.4785 5.03662 15.293 4.85107 15.293 4.6167C15.293 4.39209 15.4785 4.20654 15.7129 4.20654C15.9375 4.20654 16.123 4.39209 16.123 4.6167ZM2.02148 4.6167C2.02148 4.85107 1.83594 5.03662 1.61133 5.03662C1.37695 5.03662 1.19141 4.85107 1.19141 4.6167C1.19141 4.39209 1.37695 4.20654 1.61133 4.20654C1.83594 4.20654 2.02148 4.39209 2.02148 4.6167ZM15.3027 3.45459C15.3027 3.6792 15.127 3.86475 14.8926 3.86475C14.6582 3.86475 14.4824 3.6792 14.4824 3.45459C14.4824 3.22021 14.6582 3.03467 14.8926 3.03467C15.127 3.03467 15.3027 3.22021 15.3027 3.45459ZM14.2969 2.44873C14.2969 2.67334 14.1211 2.85889 13.8867 2.85889C13.6523 2.85889 13.4766 2.67334 13.4766 2.44873C13.4766 2.21436 13.6523 2.02881 13.8867 2.02881C14.1211 2.02881 14.2969 2.21436 14.2969 2.44873ZM5 1.63818C5 1.87256 4.82422 2.04834 4.58984 2.04834C4.36523 2.04834 4.17969 1.87256 4.17969 1.63818C4.17969 1.40381 4.36523 1.22803 4.58984 1.22803C4.82422 1.22803 5 1.40381 5 1.63818ZM13.1445 1.63818C13.1445 1.87256 12.959 2.04834 12.7246 2.04834C12.5 2.04834 12.3145 1.87256 12.3145 1.63818C12.3145 1.40381 12.5 1.22803 12.7246 1.22803C12.959 1.22803 13.1445 1.40381 13.1445 1.63818ZM11.8555 1.02295C11.8555 1.25732 11.6699 1.43311 11.4355 1.43311C11.2109 1.43311 11.0254 1.25732 11.0254 1.02295C11.0254 0.788574 11.2109 0.612793 11.4355 0.612793C11.6699 0.612793 11.8555 0.788574 11.8555 1.02295ZM6.28906 1.02295C6.28906 1.25732 6.11328 1.43311 5.87891 1.43311C5.64453 1.43311 5.46875 1.25732 5.46875 1.02295C5.46875 0.788574 5.64453 0.612793 5.87891 0.612793C6.11328 0.612793 6.28906 0.788574 6.28906 1.02295ZM10.4883 0.661621C10.4883 0.895996 10.3027 1.07178 10.0781 1.07178C9.84375 1.07178 9.6582 0.895996 9.6582 0.661621C9.6582 0.427246 9.84375 0.251465 10.0781 0.251465C10.3027 0.251465 10.4883 0.427246 10.4883 0.661621ZM7.65625 0.661621C7.65625 0.895996 7.4707 1.07178 7.24609 1.07178C7.01172 1.07178 6.83594 0.895996 6.83594 0.661621C6.83594 0.427246 7.01172 0.251465 7.24609 0.251465C7.4707 0.251465 7.65625 0.427246 7.65625 0.661621ZM9.07227 0.534668C9.07227 0.769043 8.88672 0.944824 8.66211 0.944824C8.42773 0.944824 8.24219 0.769043 8.24219 0.534668C8.24219 0.300293 8.42773 0.124512 8.66211 0.124512C8.88672 0.124512 9.07227 0.300293 9.07227 0.534668Z" fill="white" fill-opacity="0.85"/>
  <path d="M3.84196 6.15906C3.45105 6.90515 3.23242 7.75596 3.23242 8.65967C3.23242 11.687 5.63477 14.0894 8.66211 14.0894C9.56854 14.0894 10.4217 13.8694 11.1696 13.4765L11.7696 14.0757C10.8571 14.6081 9.79494 14.9097 8.66211 14.9097C5.18555 14.9097 2.41211 12.1362 2.41211 8.65967C2.41211 7.52587 2.70979 6.4652 3.23606 5.55399ZM14.9023 8.65967C14.9023 9.79248 14.6024 10.854 14.0734 11.7663L13.4774 11.1703C13.8712 10.4217 14.0918 9.56735 14.0918 8.65967C14.0918 5.66162 11.6602 3.22998 8.66211 3.22998C7.75443 3.22998 6.90011 3.45053 6.15147 3.84434L5.54666 3.23953C6.45995 2.70951 7.52421 2.40967 8.66211 2.40967C12.0996 2.40967 14.9023 5.22217 14.9023 8.65967Z" fill="white" fill-opacity="0.85"/>
  <path d="M9.49129 11.8005C9.22776 11.8743 8.94935 11.9116 8.66211 11.9116C6.85547 11.9116 5.42969 10.4761 5.42969 8.6792C5.42969 8.39334 5.46642 8.11624 5.53914 7.85388ZM11.8945 8.6792C11.8945 8.95725 11.8595 9.22703 11.79 9.48287L7.85779 5.55066C8.1135 5.48153 8.38346 5.44678 8.66211 5.44678C10.4492 5.44678 11.8945 6.89209 11.8945 8.6792Z" fill="white" fill-opacity="0.85"/>
  <path d="M15.2246 16.1597C15.4785 16.4136 15.918 16.4233 16.1719 16.1597C16.4258 15.896 16.4355 15.4761 16.1719 15.2124L2.10938 1.15967C1.8457 0.895996 1.41602 0.895996 1.15234 1.15967C0.898438 1.41357 0.898438 1.85303 1.15234 2.10693Z" fill="white" fill-opacity="0.85"/>
 </g>
</svg>
