<?xml version="1.0" encoding="UTF-8"?>
<!--Generator: Apple Native CoreSVG 326-->
<!DOCTYPE svg
PUBLIC "-//W3C//DTD SVG 1.1//EN"
       "http://www.w3.org/Graphics/SVG/1.1/DTD/svg11.dtd">
<svg version="1.1" xmlns="http://www.w3.org/2000/svg" xmlns:xlink="http://www.w3.org/1999/xlink" viewBox="0 0 10.918 19.834">
 <g>
  <rect height="19.834" opacity="0" width="10.918" x="0" y="0"/>
  <path d="M1.03516 18.7891C1.44531 18.7891 1.875 18.5547 2.20703 18.2422L5.04883 15.5176C5.14648 15.4199 5.21484 15.3711 5.27344 15.3711C5.3418 15.3711 5.41016 15.4199 5.50781 15.5176L8.33984 18.2422C8.68164 18.5547 9.10156 18.7891 9.51172 18.7891C10.1074 18.7891 10.5566 18.2422 10.5566 17.6758C10.5566 17.3242 10.4004 16.9336 10.2148 16.4355L6.45508 6.66016C6.16211 5.89844 5.76172 5.5957 5.27344 5.5957C4.79492 5.5957 4.38477 5.89844 4.0918 6.66016L0.332031 16.4355C0.146484 16.9336 0 17.3242 0 17.6758C0 18.2422 0.439453 18.7891 1.03516 18.7891ZM1.60156 16.875C1.58203 16.8457 1.57227 16.8164 1.5918 16.7578L5.16602 7.55859C5.18555 7.5 5.22461 7.45117 5.27344 7.45117C5.33203 7.45117 5.36133 7.50977 5.38086 7.55859L8.95508 16.7578C8.97461 16.8164 8.97461 16.8555 8.94531 16.875C8.92578 16.8848 8.89648 16.9141 8.84766 16.8652L5.92773 14.209C5.68359 13.9844 5.48828 13.8672 5.27344 13.8672C5.06836 13.8672 4.86328 13.9844 4.62891 14.209L1.69922 16.8652C1.67969 16.8848 1.63086 16.9141 1.60156 16.875ZM5.27344 4.69727C5.69336 4.69727 5.97656 4.39453 5.97656 3.94531L5.97656 0.751953C5.97656 0.292969 5.69336 0 5.27344 0C4.85352 0 4.57031 0.292969 4.57031 0.751953L4.57031 3.94531C4.57031 4.39453 4.85352 4.69727 5.27344 4.69727Z" fill="white" fill-opacity="0.85"/>
 </g>
</svg>
