<?xml version="1.0" encoding="UTF-8"?>
<!--Generator: Apple Native CoreSVG 326-->
<!DOCTYPE svg
PUBLIC "-//W3C//DTD SVG 1.1//EN"
       "http://www.w3.org/Graphics/SVG/1.1/DTD/svg11.dtd">
<svg version="1.1" xmlns="http://www.w3.org/2000/svg" xmlns:xlink="http://www.w3.org/1999/xlink" viewBox="0 0 16.1328 15.7715">
 <g>
  <rect height="15.7715" opacity="0" width="16.1328" x="0" y="0"/>
  <path d="M15.7715 7.88086C15.7715 12.2363 12.2363 15.7617 7.88086 15.7617C3.53516 15.7617 0 12.2363 0 7.88086C0 3.52539 3.53516 0 7.88086 0C12.2363 0 15.7715 3.52539 15.7715 7.88086ZM1.49414 7.88086C1.49414 11.416 4.3457 14.2773 7.88086 14.2773C11.416 14.2773 14.2773 11.416 14.2773 7.88086C14.2773 4.3457 11.416 1.48438 7.88086 1.48438C4.3457 1.48438 1.49414 4.3457 1.49414 7.88086Z" fill="white" fill-opacity="0.85"/>
  <path d="M8.97652 10.307L8.0957 12.1875C7.8418 12.7441 7.04102 12.666 7.04102 11.8945L7.04102 8.88672C7.04102 8.71094 6.93359 8.60352 6.75781 8.60352L3.71094 8.60352C2.94922 8.60352 2.87109 7.80273 3.41797 7.54883L5.31093 6.64667ZM11.4258 5.07812L9.83083 8.48318L7.12823 5.78058L10.5078 4.16992C11.1719 3.85742 11.7285 4.43359 11.4258 5.07812Z" fill="white" fill-opacity="0.85"/>
  <path d="M11.0645 11.5723C11.2012 11.7188 11.4551 11.7188 11.5918 11.5723C11.748 11.416 11.748 11.1914 11.5918 11.0352L4.74609 4.18945C4.58984 4.0332 4.35547 4.0332 4.19922 4.18945C4.0625 4.33594 4.0625 4.58008 4.19922 4.72656Z" fill="white" fill-opacity="0.85"/>
 </g>
</svg>
