<?xml version="1.0" encoding="UTF-8"?>
<!--Generator: Apple Native CoreSVG 326-->
<!DOCTYPE svg
PUBLIC "-//W3C//DTD SVG 1.1//EN"
       "http://www.w3.org/Graphics/SVG/1.1/DTD/svg11.dtd">
<svg version="1.1" xmlns="http://www.w3.org/2000/svg" xmlns:xlink="http://www.w3.org/1999/xlink" viewBox="0 0 16.6211 17.8907">
 <g>
  <rect height="17.8907" opacity="0" width="16.6211" x="0" y="0"/>
  <path d="M12.0094 15.757C11.716 16.1191 11.2502 16.294 10.6152 16.294L3.69141 16.294C2.50977 16.294 1.91406 15.6885 1.91406 14.4092L1.91406 9.26272C1.91406 8.16612 2.35853 7.56499 3.24219 7.42263L3.24219 7.00276ZM11.0742 5.52249L11.0742 7.4245C11.9515 7.56954 12.3926 8.17026 12.3926 9.26272L12.3926 11.531L8.24623 7.38772L9.69727 7.38772L9.69727 5.32718C9.69727 3.43264 8.4668 2.50491 7.14844 2.50491C6.19218 2.50491 5.28285 3.00032 4.86478 4.00877L3.86416 3.00889C4.59103 1.76977 5.86973 1.19632 7.14844 1.19632C9.11133 1.19632 11.0742 2.53421 11.0742 5.52249Z" fill="white" fill-opacity="0.85"/>
  <path d="M14.3457 16.7334C14.6094 16.9971 15.0391 16.9971 15.293 16.7334C15.5469 16.4698 15.5566 16.0498 15.293 15.7862L2.10938 2.60257C1.8457 2.33889 1.40625 2.33889 1.14258 2.60257C0.888672 2.85647 0.888672 3.30569 1.14258 3.5596Z" fill="white" fill-opacity="0.85"/>
 </g>
</svg>
