<?xml version="1.0" encoding="UTF-8"?>
<!--Generator: Apple Native CoreSVG 326-->
<!DOCTYPE svg
PUBLIC "-//W3C//DTD SVG 1.1//EN"
       "http://www.w3.org/Graphics/SVG/1.1/DTD/svg11.dtd">
<svg version="1.1" xmlns="http://www.w3.org/2000/svg" xmlns:xlink="http://www.w3.org/1999/xlink" viewBox="0 0 13.3398 17.4902">
 <g>
  <rect height="17.4902" opacity="0" width="13.3398" x="0" y="0"/>
  <path d="M0 15.4395C0 16.6309 0.888672 17.4707 2.14844 17.4707L10.8301 17.4707C12.0996 17.4707 12.9785 16.6309 12.9785 15.4395L12.9785 2.04102C12.9785 0.839844 12.0996 0 10.8301 0L2.14844 0C0.888672 0 0 0.839844 0 2.04102ZM1.40625 15.1953L1.40625 2.27539C1.40625 1.73828 1.75781 1.40625 2.33398 1.40625L10.6445 1.40625C11.2207 1.40625 11.5723 1.73828 11.5723 2.27539L11.5723 15.1953C11.5723 15.7324 11.2207 16.0645 10.6445 16.0645L2.33398 16.0645C1.75781 16.0645 1.40625 15.7324 1.40625 15.1953Z" fill="white" fill-opacity="0.85"/>
  <path d="M5.19531 11.3574L7.79297 11.3574C8.21289 11.3574 8.42773 11.1328 8.42773 10.6836L8.42773 8.69141C8.42773 8.34961 8.29102 8.14453 8.04688 8.05664L8.04688 7.56836C8.04688 6.52344 7.42188 5.81055 6.49414 5.81055C5.56641 5.81055 4.93164 6.52344 4.93164 7.56836L4.93164 8.06641C4.6875 8.14453 4.56055 8.34961 4.56055 8.69141L4.56055 10.6836C4.56055 11.1328 4.77539 11.3574 5.19531 11.3574ZM5.76172 8.02734L5.76172 7.49023C5.76172 6.95312 6.04492 6.60156 6.49414 6.60156C6.93359 6.60156 7.22656 6.95312 7.22656 7.49023L7.22656 8.02734Z" fill="white" fill-opacity="0.85"/>
 </g>
</svg>
