<?xml version="1.0" encoding="UTF-8"?>
<!--Generator: Apple Native CoreSVG 326-->
<!DOCTYPE svg
PUBLIC "-//W3C//DTD SVG 1.1//EN"
       "http://www.w3.org/Graphics/SVG/1.1/DTD/svg11.dtd">
<svg version="1.1" xmlns="http://www.w3.org/2000/svg" xmlns:xlink="http://www.w3.org/1999/xlink" viewBox="0 0 20.4199 13.9822">
 <g>
  <rect height="13.9822" opacity="0" width="20.4199" x="0" y="0"/>
  <path d="M20.0586 7.85535L20.0586 3.03113C20.0586 1.61511 19.0723 0.63855 17.6562 0.63855L2.38281 0.648316C0.976562 0.648316 0 1.63464 0 3.06043L0 7.85535C0 9.8866 0.888672 11.1561 2.96875 11.7616L9.61914 13.6952C11.4258 14.2225 12.6074 14.0077 14.2188 13.1776L18.5156 10.9608C19.7656 10.3261 20.0586 9.52527 20.0586 7.85535ZM18.6523 7.85535C18.6523 8.93933 18.3984 9.46668 17.6172 9.8573L13.4668 11.9764C12.168 12.6405 11.1914 12.7675 9.58984 12.2889L3.37891 10.453C2.00195 10.0428 1.40625 9.203 1.40625 7.85535L1.40625 3.08972C1.40625 2.48425 1.81641 2.05457 2.40234 2.05457L17.6367 2.0448C18.2324 2.0448 18.6523 2.46472 18.6523 3.06043Z" fill="white" fill-opacity="0.85"/>
  <path d="M4.58008 9.47644L6.64062 9.47644C6.91406 9.47644 7.13867 9.25183 7.13867 8.98816C7.13867 8.71472 6.91406 8.49011 6.64062 8.49011L5.18555 8.49011L5.18555 4.08582C5.18555 3.76355 4.91211 3.49011 4.58984 3.49011C4.26758 3.49011 3.99414 3.76355 3.99414 4.08582L3.99414 8.86121C3.99414 9.24207 4.19922 9.47644 4.58008 9.47644ZM9.57031 9.61316C10.7227 9.61316 11.4551 8.97839 11.4551 7.82605C11.4551 6.88855 10.9863 6.43933 10.1172 6.11707L9.70703 5.96082C9.24805 5.78503 8.91602 5.56043 8.91602 5.07214C8.91602 4.67175 9.16992 4.38855 9.55078 4.38855C9.96094 4.38855 10.1758 4.69128 10.2637 5.02332C10.3418 5.30652 10.5469 5.40418 10.8008 5.40418C11.123 5.40418 11.3184 5.20886 11.3184 4.90613C11.3184 4.8573 11.3184 4.79871 11.2793 4.64246C11.0547 3.85144 10.3711 3.42175 9.55078 3.42175C8.50586 3.42175 7.75391 4.08582 7.75391 5.1698C7.75391 6.09753 8.33008 6.60535 9.0625 6.88855L9.47266 7.0448C9.91211 7.21082 10.2832 7.43543 10.2832 7.93347C10.2832 8.36316 10.0195 8.65613 9.58008 8.65613C9.15039 8.65613 8.88672 8.37293 8.80859 8.03113C8.74023 7.74793 8.52539 7.62097 8.26172 7.62097C7.94922 7.62097 7.73438 7.84558 7.73438 8.15808C7.73438 8.2948 7.74414 8.34363 7.79297 8.48035C8.01758 9.24207 8.75 9.61316 9.57031 9.61316ZM12.9297 9.47644L14.5117 9.47644C15.5566 9.47644 16.1523 8.78308 16.1523 7.79675C16.1523 7.09363 15.7129 6.43933 15.0195 6.37097L15.0195 6.34168C15.5859 6.24402 15.9766 5.62878 15.9766 5.06238C15.9766 4.09558 15.3223 3.578 14.4727 3.578L12.9297 3.578C12.5488 3.578 12.3438 3.85144 12.3438 4.21277L12.3438 8.86121C12.3438 9.2323 12.5586 9.47644 12.9297 9.47644ZM13.5156 6.04871L13.5156 4.48621L14.1211 4.48621C14.6484 4.48621 14.834 4.81824 14.834 5.24793C14.834 5.74597 14.541 6.04871 14.0332 6.04871ZM13.5156 8.58777L13.5156 6.83972L14.1211 6.83972C14.5996 6.83972 14.9512 7.08386 14.9512 7.6991C14.9512 8.25574 14.6875 8.58777 14.1406 8.58777Z" fill="white" fill-opacity="0.85"/>
 </g>
</svg>
