<?xml version="1.0" encoding="UTF-8"?>
<!--Generator: Apple Native CoreSVG 326-->
<!DOCTYPE svg
PUBLIC "-//W3C//DTD SVG 1.1//EN"
       "http://www.w3.org/Graphics/SVG/1.1/DTD/svg11.dtd">
<svg version="1.1" xmlns="http://www.w3.org/2000/svg" xmlns:xlink="http://www.w3.org/1999/xlink" viewBox="0 0 20.8792 14.9902">
 <g>
  <rect height="14.9902" opacity="0" width="20.8792" x="0" y="0"/>
  <path d="M5.88884 13.9941L2.86149 14.5801C0.752118 14.9805-0.400225 13.6426 0.127118 11.6602L2.54899 2.4707C2.94938 0.996094 4.14079 0 5.52751 0C7.18767 0 8.30095 1.07422 8.30095 2.65625L8.30095 8.83789L7.42204 9.0332L6.8947 8.554L6.8947 2.65625C6.8947 1.9043 6.35759 1.41602 5.52751 1.41602C4.78532 1.41602 4.15056 1.97266 3.91618 2.83203L1.51384 11.9629C1.2697 12.8809 1.80681 13.3496 2.60759 13.1934L5.63493 12.6074C6.62126 12.4121 6.8947 12.0898 6.8947 10.9863L6.8947 10.5782L8.30095 10.2832L8.30095 10.9863C8.30095 12.7539 7.54899 13.6719 5.88884 13.9941ZM14.9904 0C16.3869 0 17.5783 0.996094 17.9689 2.4707L20.3908 11.6602C20.9279 13.6426 19.7658 14.9805 17.6564 14.5801L14.6291 13.9941C12.9689 13.6719 12.217 12.7539 12.217 10.9863L12.217 10.2832L13.6232 10.5782L13.6232 10.9863C13.6232 12.0898 13.8966 12.4121 14.883 12.6074L17.9103 13.1934C18.7209 13.3496 19.2482 12.8809 19.0138 11.9629L16.6115 2.83203C16.3674 1.97266 15.7326 1.41602 14.9904 1.41602C14.1603 1.41602 13.6232 1.9043 13.6232 2.65625L13.6232 8.554L13.0959 9.0332L12.217 8.83789L12.217 2.65625C12.217 1.07422 13.34 0 14.9904 0Z" fill="white" fill-opacity="0.85"/>
  <path d="M4.11149 11.1621L8.30095 10.2832L8.30095 8.83789L7.42204 9.0332L5.06852 6.89453C4.79509 6.65039 4.32634 6.66016 4.06267 6.94336C3.80876 7.23633 3.84782 7.69531 4.13102 7.94922L5.73259 9.38477L3.80876 9.79492C3.4572 9.87305 3.20329 10.2539 3.27165 10.625C3.34001 11.0059 3.7404 11.2402 4.11149 11.1621ZM16.4064 11.1621C16.7775 11.2402 17.1779 11.0059 17.2463 10.625C17.3244 10.2539 17.0705 9.87305 16.7091 9.79492L14.7853 9.38477L16.3869 7.94922C16.6701 7.69531 16.7091 7.23633 16.4552 6.94336C16.1916 6.66016 15.7228 6.65039 15.4494 6.89453L13.0959 9.0332L12.217 8.83789L12.217 10.2832Z" fill="white" fill-opacity="0.85"/>
  <path d="M10.2638 9.86328L12.217 10.2832L12.217 8.83789L10.9572 8.57422L10.9572 1.05469C10.9572 0.673828 10.6447 0.351562 10.2638 0.351562C9.87321 0.351562 9.56071 0.673828 9.56071 1.05469L9.56071 8.57422L8.30095 8.83789L8.30095 10.2832Z" fill="white" fill-opacity="0.85"/>
 </g>
</svg>
