<svg version="1.1" xmlns="http://www.w3.org/2000/svg" xmlns:xlink="http://www.w3.org/1999/xlink" viewBox="0 0 14.5898 14.248">
 <g>
  <rect height="14.248" opacity="0" width="14.5898" x="0" y="0"/>
  <path d="M14.2285 2.4707L14.2285 11.7871C14.2285 13.4277 13.4082 14.248 11.7383 14.248L2.49023 14.248C0.830078 14.248 0 13.4277 0 11.7871L0 2.4707C0 0.830078 0.830078 0.00976562 2.49023 0.00976562L11.7383 0.00976562C13.4082 0.00976562 14.2285 0.830078 14.2285 2.4707ZM9.16992 3.83789L7.13867 8.92578L7.09961 8.92578L5.05859 3.83789C4.90234 3.47656 4.61914 3.28125 4.18945 3.28125C3.70117 3.28125 3.35938 3.61328 3.35938 4.10156L3.35938 10.0879C3.35938 10.5566 3.60352 10.8301 4.01367 10.8301C4.42383 10.8301 4.66797 10.5566 4.66797 10.0879L4.66797 5.85938L4.74609 5.85938L6.44531 10.0879C6.57227 10.4004 6.78711 10.5566 7.10938 10.5566C7.43164 10.5566 7.64648 10.4004 7.7832 10.0879L9.48242 5.85938L9.56055 5.85938L9.56055 10.0879C9.56055 10.5566 9.80469 10.8301 10.1953 10.8301C10.625 10.8301 10.8691 10.5566 10.8691 10.0879L10.8691 4.10156C10.8691 3.61328 10.5273 3.28125 10.0391 3.28125C9.60938 3.28125 9.32617 3.47656 9.16992 3.83789Z" fill="var(--color-primary)"/>
 </g>
</svg>
