<?xml version="1.0" encoding="UTF-8"?>
<!--Generator: Apple Native CoreSVG 326-->
<!DOCTYPE svg
PUBLIC "-//W3C//DTD SVG 1.1//EN"
       "http://www.w3.org/Graphics/SVG/1.1/DTD/svg11.dtd">
<svg version="1.1" xmlns="http://www.w3.org/2000/svg" xmlns:xlink="http://www.w3.org/1999/xlink" viewBox="0 0 19.2383 9.36523">
 <g>
  <rect height="9.36523" opacity="0" width="19.2383" x="0" y="0"/>
  <path d="M15.0879 6.60156C15.6348 6.5918 16.084 6.14258 16.084 5.5957C16.084 5.04883 15.6348 4.58008 15.0879 4.58008C14.5508 4.58008 14.082 5.04883 14.082 5.5957C14.082 6.14258 14.5508 6.61133 15.0879 6.60156ZM2.49023 9.25781L16.3867 9.25781C18.0469 9.25781 18.877 8.44727 18.877 6.80664L18.877 2.45117C18.877 0.810547 18.0469 0 16.3867 0L2.49023 0C0.820312 0 0 0.810547 0 2.45117L0 6.80664C0 8.44727 0.820312 9.25781 2.49023 9.25781ZM2.50977 7.85156C1.80664 7.85156 1.40625 7.4707 1.40625 6.73828L1.40625 2.5293C1.40625 1.78711 1.80664 1.40625 2.50977 1.40625L16.3672 1.40625C17.0703 1.40625 17.4707 1.78711 17.4707 2.5293L17.4707 6.73828C17.4707 7.4707 17.0703 7.85156 16.3672 7.85156Z" fill="white" fill-opacity="0.85"/>
 </g>
</svg>
