<svg version="1.1" xmlns="http://www.w3.org/2000/svg" xmlns:xlink="http://www.w3.org/1999/xlink" viewBox="0 0 19.8145 12.1777">
 <g>
  <rect height="12.1777" opacity="0" width="19.8145" x="0" y="0"/>
  <path d="M3.32031 9.51172C3.67188 9.51172 3.95508 9.22852 3.95508 8.86719L3.95508 3.28125C3.95508 2.92969 3.67188 2.63672 3.32031 2.63672C2.95898 2.63672 2.66602 2.92969 2.66602 3.28125L2.66602 8.86719C2.66602 9.22852 2.95898 9.51172 3.32031 9.51172ZM5.70312 9.00391C6.06445 9.00391 6.34766 8.71094 6.34766 8.34961C6.34766 7.99805 6.06445 7.69531 5.70312 7.69531C5.35156 7.69531 5.04883 7.99805 5.04883 8.34961C5.04883 8.71094 5.35156 9.00391 5.70312 9.00391ZM7.71484 9.00391C8.06641 9.00391 8.35938 8.71094 8.35938 8.34961C8.35938 7.99805 8.06641 7.69531 7.71484 7.69531C7.35352 7.69531 7.06055 7.99805 7.06055 8.34961C7.06055 8.71094 7.35352 9.00391 7.71484 9.00391ZM9.72656 9.00391C10.0781 9.00391 10.3711 8.71094 10.3711 8.34961C10.3711 7.99805 10.0781 7.69531 9.72656 7.69531C9.375 7.69531 9.07227 7.99805 9.07227 8.34961C9.07227 8.71094 9.375 9.00391 9.72656 9.00391ZM11.7285 9.00391C12.0703 9.00391 12.373 8.71094 12.373 8.34961C12.373 7.99805 12.0703 7.69531 11.7285 7.69531C11.3672 7.69531 11.084 7.99805 11.084 8.34961C11.084 8.71094 11.3672 9.00391 11.7285 9.00391ZM13.7207 9.00391C14.0723 9.00391 14.3652 8.71094 14.3652 8.34961C14.3652 7.99805 14.0723 7.69531 13.7207 7.69531C13.3691 7.69531 13.0762 7.99805 13.0762 8.34961C13.0762 8.71094 13.3691 9.00391 13.7207 9.00391ZM6.70898 6.72852C7.06055 6.72852 7.35352 6.42578 7.35352 6.07422C7.35352 5.71289 7.06055 5.41992 6.70898 5.41992C6.34766 5.41992 6.05469 5.71289 6.05469 6.07422C6.05469 6.42578 6.34766 6.72852 6.70898 6.72852ZM8.71094 6.72852C9.07227 6.72852 9.36523 6.42578 9.36523 6.07422C9.36523 5.71289 9.07227 5.41992 8.71094 5.41992C8.35938 5.41992 8.05664 5.71289 8.05664 6.07422C8.05664 6.42578 8.35938 6.72852 8.71094 6.72852ZM10.7227 6.72852C11.0742 6.72852 11.3672 6.42578 11.3672 6.07422C11.3672 5.71289 11.0742 5.41992 10.7227 5.41992C10.3613 5.41992 10.0684 5.71289 10.0684 6.07422C10.0684 6.42578 10.3613 6.72852 10.7227 6.72852ZM12.7246 6.72852C13.0664 6.72852 13.3691 6.42578 13.3691 6.07422C13.3691 5.71289 13.0664 5.41992 12.7246 5.41992C12.3633 5.41992 12.0703 5.71289 12.0703 6.07422C12.0703 6.42578 12.3633 6.72852 12.7246 6.72852ZM5.70312 4.46289C6.06445 4.46289 6.34766 4.16016 6.34766 3.80859C6.34766 3.44727 6.06445 3.1543 5.70312 3.1543C5.35156 3.1543 5.04883 3.44727 5.04883 3.80859C5.04883 4.16016 5.35156 4.46289 5.70312 4.46289ZM7.71484 4.46289C8.06641 4.46289 8.35938 4.16016 8.35938 3.80859C8.35938 3.44727 8.06641 3.1543 7.71484 3.1543C7.35352 3.1543 7.06055 3.44727 7.06055 3.80859C7.06055 4.16016 7.35352 4.46289 7.71484 4.46289ZM9.72656 4.46289C10.0781 4.46289 10.3711 4.16016 10.3711 3.80859C10.3711 3.44727 10.0781 3.1543 9.72656 3.1543C9.375 3.1543 9.07227 3.44727 9.07227 3.80859C9.07227 4.16016 9.375 4.46289 9.72656 4.46289ZM11.7285 4.46289C12.0703 4.46289 12.373 4.16016 12.373 3.80859C12.373 3.44727 12.0703 3.1543 11.7285 3.1543C11.3672 3.1543 11.084 3.44727 11.084 3.80859C11.084 4.16016 11.3672 4.46289 11.7285 4.46289ZM13.7207 4.46289C14.0723 4.46289 14.3652 4.16016 14.3652 3.80859C14.3652 3.44727 14.0723 3.1543 13.7207 3.1543C13.3691 3.1543 13.0762 3.44727 13.0762 3.80859C13.0762 4.16016 13.3691 4.46289 13.7207 4.46289ZM16.1133 9.51172C16.4648 9.51172 16.748 9.22852 16.748 8.86719L16.748 3.28125C16.748 2.92969 16.4648 2.63672 16.1133 2.63672C15.752 2.63672 15.459 2.92969 15.459 3.28125L15.459 8.86719C15.459 9.22852 15.752 9.51172 16.1133 9.51172ZM2.49023 12.168L16.9629 12.168C18.623 12.168 19.4531 11.3574 19.4531 9.7168L19.4531 2.45117C19.4531 0.810547 18.623 0 16.9629 0L2.49023 0C0.820312 0 0 0.810547 0 2.45117L0 9.7168C0 11.3574 0.820312 12.168 2.49023 12.168ZM2.50977 10.7617C1.80664 10.7617 1.40625 10.3809 1.40625 9.63867L1.40625 2.5293C1.40625 1.78711 1.80664 1.40625 2.50977 1.40625L16.9434 1.40625C17.6465 1.40625 18.0469 1.78711 18.0469 2.5293L18.0469 9.63867C18.0469 10.3809 17.6465 10.7617 16.9434 10.7617Z" fill="var(--color-primary)"/>
 </g>
</svg>
