<?xml version="1.0" encoding="UTF-8"?>
<!--Generator: Apple Native CoreSVG 326-->
<!DOCTYPE svg
PUBLIC "-//W3C//DTD SVG 1.1//EN"
       "http://www.w3.org/Graphics/SVG/1.1/DTD/svg11.dtd">
<svg version="1.1" xmlns="http://www.w3.org/2000/svg" xmlns:xlink="http://www.w3.org/1999/xlink" viewBox="0 0 9.9783 17.5879">
 <g>
  <rect height="17.5879" opacity="0" width="9.9783" x="0" y="0"/>
  <path d="M4.8036 17.5781C7.50868 17.5781 9.1493 16.25 9.40321 13.5645C9.69618 10.5078 9.68641 7.20703 9.38368 3.82812C9.15907 1.32812 7.50868 0 4.8036 0C2.10829 0 0.457899 1.32812 0.233289 3.82812C-0.069445 7.20703-0.0792106 10.5078 0.213758 13.5645C0.467664 16.25 2.10829 17.5781 4.8036 17.5781ZM4.8036 14.3457C4.55946 14.3457 4.47157 14.4727 4.27626 14.4727C4.08095 14.4727 3.95399 14.2969 3.79774 14.0723C3.6122 13.8086 3.46571 13.418 3.46571 13.0469C3.46571 12.4414 3.8661 12.1191 4.25673 12.1191C4.45204 12.1191 4.59852 12.2461 4.76454 12.2461C4.92079 12.2461 5.05751 12.1191 5.31141 12.1191C5.3993 12.1191 5.72157 12.1191 5.92665 12.4121C5.90712 12.4316 5.59462 12.6074 5.59462 13.0176C5.59462 13.4668 5.99501 13.623 6.00477 13.6328C6.00477 13.6426 5.94618 13.8672 5.78993 14.082C5.65321 14.2773 5.51649 14.4727 5.31141 14.4727C5.09657 14.4727 5.03798 14.3457 4.8036 14.3457ZM4.73524 12.0801C4.73524 11.6602 5.02821 11.3477 5.35048 11.3477C5.40907 11.6992 5.09657 12.0898 4.73524 12.0801Z" fill="white" fill-opacity="0.85"/>
 </g>
</svg>
