<?xml version="1.0" encoding="UTF-8"?>
<!--Generator: Apple Native CoreSVG 326-->
<!DOCTYPE svg
PUBLIC "-//W3C//DTD SVG 1.1//EN"
       "http://www.w3.org/Graphics/SVG/1.1/DTD/svg11.dtd">
<svg version="1.1" xmlns="http://www.w3.org/2000/svg" xmlns:xlink="http://www.w3.org/1999/xlink" viewBox="0 0 16.1328 15.7715">
 <g>
  <rect height="15.7715" opacity="0" width="16.1328" x="0" y="0"/>
  <path d="M7.88086 15.7617C12.2363 15.7617 15.7715 12.2363 15.7715 7.88086C15.7715 3.52539 12.2363 0 7.88086 0C3.53516 0 0 3.52539 0 7.88086C0 12.2363 3.53516 15.7617 7.88086 15.7617ZM7.88086 14.2773C4.3457 14.2773 1.49414 11.416 1.49414 7.88086C1.49414 4.3457 4.3457 1.48438 7.88086 1.48438C11.416 1.48438 14.2773 4.3457 14.2773 7.88086C14.2773 11.416 11.416 14.2773 7.88086 14.2773Z" fill="white" fill-opacity="0.85"/>
  <path d="M7.06055 10.2246C8.82812 10.2246 10.2734 8.7793 10.2734 7.01172C10.2734 5.23438 8.82812 3.79883 7.06055 3.79883C5.29297 3.79883 3.84766 5.24414 3.84766 7.01172C3.84766 8.76953 5.29297 10.2246 7.06055 10.2246ZM7.06055 9.04297C5.94727 9.04297 5.01953 8.125 5.01953 7.01172C5.01953 5.9082 5.94727 4.98047 7.06055 4.98047C8.17383 4.98047 9.0918 5.89844 9.0918 7.01172C9.0918 8.125 8.17383 9.04297 7.06055 9.04297ZM11.1719 11.8848C11.582 11.8848 11.875 11.582 11.875 11.1523C11.875 10.957 11.7773 10.7715 11.6504 10.6348L9.25781 8.23242L8.16406 9.22852L10.5664 11.6309C10.7422 11.8066 10.9277 11.8848 11.1719 11.8848Z" fill="white" fill-opacity="0.85"/>
 </g>
</svg>
