<?xml version="1.0" encoding="UTF-8"?>
<!--Generator: Apple Native CoreSVG 326-->
<!DOCTYPE svg
PUBLIC "-//W3C//DTD SVG 1.1//EN"
       "http://www.w3.org/Graphics/SVG/1.1/DTD/svg11.dtd">
<svg version="1.1" xmlns="http://www.w3.org/2000/svg" xmlns:xlink="http://www.w3.org/1999/xlink" viewBox="0 0 18.4766 14.248">
 <g>
  <rect height="14.248" opacity="0" width="18.4766" x="0" y="0"/>
  <path d="M3.78906 4.85352C3.4375 4.85352 3.18359 4.58008 3.18359 4.23828C3.18359 3.89648 3.4375 3.63281 3.78906 3.63281L8.59375 3.63281C8.93555 3.63281 9.19922 3.89648 9.19922 4.23828C9.19922 4.58008 8.93555 4.85352 8.59375 4.85352ZM3.78906 6.95312C3.4375 6.95312 3.18359 6.68945 3.18359 6.34766C3.18359 6.00586 3.4375 5.73242 3.78906 5.73242L7.29492 5.73242C7.63672 5.73242 7.91016 6.00586 7.91016 6.34766C7.91016 6.68945 7.63672 6.95312 7.29492 6.95312ZM13.0957 7.07031C12.0801 7.07031 11.2598 6.25 11.2598 5.23438C11.2598 4.21875 12.0801 3.39844 13.0957 3.39844C14.1016 3.39844 14.9219 4.21875 14.9219 5.23438C14.9219 6.25 14.1016 7.07031 13.0957 7.07031ZM2.49023 14.248L15.625 14.248C17.2949 14.248 18.1152 13.4277 18.1152 11.7871L18.1152 2.4707C18.1152 0.830078 17.2949 0.00976562 15.625 0.00976562L2.49023 0.00976562C0.830078 0.00976562 0 0.830078 0 2.4707L0 11.7871C0 13.4277 0.830078 14.248 2.49023 14.248Z" fill="white" fill-opacity="0.85"/>
 </g>
</svg>
