<?xml version="1.0" encoding="UTF-8"?>
<!--Generator: Apple Native CoreSVG 326-->
<!DOCTYPE svg
PUBLIC "-//W3C//DTD SVG 1.1//EN"
       "http://www.w3.org/Graphics/SVG/1.1/DTD/svg11.dtd">
<svg version="1.1" xmlns="http://www.w3.org/2000/svg" xmlns:xlink="http://www.w3.org/1999/xlink" viewBox="0 0 14.5898 14.248">
 <g>
  <rect height="14.248" opacity="0" width="14.5898" x="0" y="0"/>
  <path d="M14.2285 2.4707L14.2285 11.7871C14.2285 13.4277 13.4082 14.248 11.7383 14.248L2.49023 14.248C0.830078 14.248 0 13.4277 0 11.7871L0 2.4707C0 0.830078 0.830078 0.00976562 2.49023 0.00976562L11.7383 0.00976562C13.4082 0.00976562 14.2285 0.830078 14.2285 2.4707ZM6.74805 3.35938L6.74805 4.21875C5.05859 4.39453 4.27734 5.81055 4.27734 7.67578L4.27734 10.0977C4.27734 10.4199 4.46289 10.625 4.78516 10.625C5.10742 10.625 5.30273 10.4199 5.30273 10.0977L5.30273 7.72461C5.30273 6.46484 5.68359 5.37109 6.74805 5.16602L6.74805 10.2637C6.74805 10.4883 6.88477 10.625 7.11914 10.625C7.33398 10.625 7.4707 10.4883 7.4707 10.2637L7.4707 5.15625C8.58398 5.33203 8.95508 6.45508 8.95508 7.72461L8.95508 10.0977C8.95508 10.4199 9.15039 10.625 9.47266 10.625C9.79492 10.625 9.98047 10.4199 9.98047 10.0977L9.98047 7.67578C9.98047 5.78125 9.17969 4.375 7.4707 4.21875L7.4707 3.35938C7.4707 3.14453 7.33398 3.00781 7.11914 3.00781C6.88477 3.00781 6.74805 3.14453 6.74805 3.35938Z" fill="white" fill-opacity="0.85"/>
 </g>
</svg>
