<svg version="1.1" xmlns="http://www.w3.org/2000/svg" xmlns:xlink="http://www.w3.org/1999/xlink" viewBox="0 0 19.6484 15.7715">
 <g>
  <rect height="15.7715" opacity="0" width="19.6484" x="0" y="0"/>
  <path d="M9.63867 15.7617C13.9941 15.7617 17.5293 12.2266 17.5293 7.88086C17.5293 3.52539 13.9941 0 9.63867 0C5.29297 0 1.75781 3.52539 1.75781 7.88086L2.68555 7.88086L1.32812 5.86914C1.18164 5.66406 0.976562 5.53711 0.722656 5.53711C0.322266 5.53711 0 5.82031 0 6.23047C0 6.39648 0.0488281 6.5625 0.15625 6.69922L1.72852 8.64258C2.01172 8.99414 2.24609 9.13086 2.59766 9.13086C2.82227 9.13086 2.99805 9.0625 3.22266 8.90625L5.19531 7.49023C5.39062 7.35352 5.49805 7.13867 5.49805 6.91406C5.49805 6.50391 5.16602 6.21094 4.80469 6.21094C4.63867 6.21094 4.49219 6.25977 4.35547 6.34766L2.37305 7.88086L3.25195 7.88086C3.25195 4.3457 6.10352 1.48438 9.63867 1.48438C13.1738 1.48438 16.0352 4.3457 16.0352 7.88086C16.0352 11.416 13.1738 14.2773 9.63867 14.2773C7.26562 14.2773 5.61523 12.998 4.83398 12.0996C4.64844 11.875 4.41406 11.7871 4.19922 11.7871C3.82812 11.7871 3.50586 12.0703 3.50586 12.4707C3.50586 12.666 3.55469 12.8906 3.75977 13.1152C4.55078 14.0527 6.5918 15.7617 9.63867 15.7617Z" fill="var(--color-primary)"/>
  <path d="M7.66602 10.3418C7.66602 10.7031 8.06641 10.8691 8.41797 10.6543L12.4609 8.29102C12.7637 8.10547 12.7539 7.65625 12.4609 7.49023L8.41797 5.11719C8.0957 4.92188 7.66602 5.06836 7.66602 5.42969Z" fill="var(--color-primary)"/>
 </g>
</svg>
