<?xml version="1.0" encoding="UTF-8"?>
<!--Generator: Apple Native CoreSVG 326-->
<!DOCTYPE svg
PUBLIC "-//W3C//DTD SVG 1.1//EN"
       "http://www.w3.org/Graphics/SVG/1.1/DTD/svg11.dtd">
<svg version="1.1" xmlns="http://www.w3.org/2000/svg" xmlns:xlink="http://www.w3.org/1999/xlink" viewBox="0 0 12.666 17.4536">
 <g>
  <rect height="17.4536" opacity="0" width="12.666" x="0" y="0"/>
  <path d="M1.50391 15.929L9.86328 17.4036C11.3965 17.677 12.3047 16.8176 12.3047 15.138L12.3047 5.95827C12.3047 4.386 11.5039 3.85866 9.9707 3.58522L1.88477 2.15944C0.751953 1.96413 0 2.60866 0 3.73171L0 14.2005C0 15.177 0.507812 15.763 1.50391 15.929ZM2.92969 6.50514C2.63672 6.45632 2.4707 6.23171 2.4707 5.91921C2.4707 5.54811 2.76367 5.31374 3.17383 5.37233L9.08203 6.40749C9.39453 6.47585 9.56055 6.64186 9.56055 6.99342C9.56055 7.36452 9.29688 7.62819 8.88672 7.55983ZM2.92969 9.63014C2.63672 9.59108 2.4707 9.35671 2.4707 9.05397C2.4707 8.68288 2.76367 8.4485 3.17383 8.51686L9.08203 9.54225C9.39453 9.60085 9.56055 9.78639 9.56055 10.1184C9.56055 10.509 9.29688 10.763 8.88672 10.6946ZM3.67188 1.30983L10.166 2.46217C10.8691 2.58913 11.4453 2.77467 11.9141 3.03835L11.9141 2.55983C11.9141 0.870378 10.791 0.0598308 8.88672 0.391862Z" fill="white" fill-opacity="0.85"/>
 </g>
</svg>
