<?xml version="1.0" encoding="UTF-8"?>
<!--Generator: Apple Native CoreSVG 326-->
<!DOCTYPE svg
PUBLIC "-//W3C//DTD SVG 1.1//EN"
       "http://www.w3.org/Graphics/SVG/1.1/DTD/svg11.dtd">
<svg version="1.1" xmlns="http://www.w3.org/2000/svg" xmlns:xlink="http://www.w3.org/1999/xlink" viewBox="0 0 17.1509 14.6191">
 <g>
  <rect height="14.6191" opacity="0" width="17.1509" x="0" y="0"/>
  <path d="M16.1585 11.3086C16.3538 11.6504 16.4612 12.0312 16.4612 12.3926C16.4612 13.6328 15.6311 14.5801 14.2737 14.5801L2.53541 14.5801C1.17798 14.5801 0.347906 13.6328 0.347906 12.3926C0.347906 12.0312 0.445563 11.6602 0.650641 11.3086L0.937554 10.8105L15.8715 10.8105ZM5.26978 9.67773L1.59014 9.67773L2.9351 7.34305ZM10.2795 1.10352L15.219 9.67773L10.4833 9.67773L9.08814 8.28417L9.08814 3.54492C9.08814 3.11523 8.82447 2.83203 8.39478 2.83203C7.96509 2.83203 7.70142 3.11523 7.70142 3.54492L7.70142 6.89905L4.83833 4.03927L6.52955 1.10352C6.9397 0.380859 7.66236 0 8.40455 0C9.13697 0 9.85963 0.380859 10.2795 1.10352Z" fill="white" fill-opacity="0.85"/>
  <path d="M7.06666 9.85352L9.01978 9.83398L2.35963 3.17383C2.06666 2.88086 1.67603 2.87109 1.3733 3.16406C1.0608 3.4668 1.08033 3.87695 1.3733 4.16992Z" fill="white" fill-opacity="0.85"/>
 </g>
</svg>
