<svg version="1.1" xmlns="http://www.w3.org/2000/svg" xmlns:xlink="http://www.w3.org/1999/xlink" width="16.1328" height="15.7715" viewBox="0 0 16.1328 15.7715">
 <g>
  <rect height="15.7715" opacity="0" width="16.1328" x="0" y="0"/>
  <path d="M15.7715 7.88086C15.7715 12.1875 12.1875 15.7617 7.88086 15.7617C3.58398 15.7617 0 12.1875 0 7.88086C0 3.57422 3.57422 0 7.87109 0C12.1777 0 15.7715 3.57422 15.7715 7.88086ZM1.50391 7.88086C1.50391 11.4355 4.33594 14.2773 7.88086 14.2773C11.4355 14.2773 14.2773 11.4355 14.2773 7.88086C14.2773 4.32617 11.4258 1.48438 7.87109 1.48438C4.32617 1.48438 1.50391 4.32617 1.50391 7.88086Z" fill="var(--color-secondary)"/>
  <path d="M5.78125 7.12299L5.78125 7.95898C5.78125 9.18945 6.66016 10.0684 7.88086 10.0684C8.14268 10.0684 8.38943 10.0273 8.61409 9.94821L9.28805 10.6203C9.00302 10.7601 8.68442 10.8543 8.33984 10.8984L8.33984 11.5332L9.86328 11.5332C10.1074 11.5332 10.3125 11.748 10.3125 11.9922C10.3125 12.2363 10.0977 12.4512 9.86328 12.4512L5.9082 12.4512C5.66406 12.4512 5.43945 12.2461 5.43945 11.9922C5.43945 11.748 5.66406 11.5332 5.9082 11.5332L7.42188 11.5332L7.42188 10.8984C5.89844 10.7129 4.88281 9.53125 4.88281 7.95898L4.88281 6.93359C4.88281 6.7467 5.00872 6.58269 5.17305 6.51643ZM8.01328 9.34901C7.97003 9.35335 7.92584 9.35547 7.88086 9.35547C7.13867 9.35547 6.61133 8.7793 6.61133 8.00781L6.61133 7.95084ZM10.8789 6.93359L10.8789 7.95898C10.8789 8.43633 10.7853 8.87677 10.611 9.26337L9.9035 8.55585C9.95447 8.3696 9.98047 8.16943 9.98047 7.95898L9.98047 6.93359C9.98047 6.68945 10.1855 6.48438 10.4297 6.48438C10.6641 6.48438 10.8789 6.68945 10.8789 6.93359ZM9.15039 4.74609L9.15039 7.80273L6.61133 5.26367L6.61133 4.74609C6.61133 3.97461 7.13867 3.4082 7.88086 3.4082C8.62305 3.4082 9.15039 3.97461 9.15039 4.74609Z" fill="var(--color-primary)"/>
  <path d="M11.2402 11.7676C11.3867 11.9141 11.6309 11.9141 11.7773 11.7676C11.9238 11.6113 11.9238 11.3867 11.7773 11.2305L4.53125 3.99414C4.38477 3.83789 4.14062 3.83789 3.99414 3.99414C3.84766 4.14062 3.84766 4.38477 3.99414 4.53125Z" fill="var(--color-primary)"/>
 </g>
</svg>
