<?xml version="1.0" encoding="UTF-8"?>
<!--Generator: Apple Native CoreSVG 326-->
<!DOCTYPE svg
PUBLIC "-//W3C//DTD SVG 1.1//EN"
       "http://www.w3.org/Graphics/SVG/1.1/DTD/svg11.dtd">
<svg version="1.1" xmlns="http://www.w3.org/2000/svg" xmlns:xlink="http://www.w3.org/1999/xlink" viewBox="0 0 14.5898 14.248">
 <g>
  <rect height="14.248" opacity="0" width="14.5898" x="0" y="0"/>
  <path d="M14.2285 2.4707L14.2285 11.7871C14.2285 13.4277 13.4082 14.248 11.7383 14.248L2.49023 14.248C0.830078 14.248 0 13.4277 0 11.7871L0 2.4707C0 0.830078 0.830078 0.00976562 2.49023 0.00976562L11.7383 0.00976562C13.4082 0.00976562 14.2285 0.830078 14.2285 2.4707ZM9.29688 6.13281L9.29688 7.19727C9.29688 8.47656 8.37891 9.39453 7.11914 9.39453C5.84961 9.39453 4.94141 8.47656 4.94141 7.19727L4.94141 6.13281C4.94141 5.88867 4.72656 5.66406 4.47266 5.66406C4.22852 5.66406 4.01367 5.88867 4.01367 6.13281L4.01367 7.19727C4.01367 8.83789 5.06836 10.0488 6.64062 10.2539L6.64062 10.9082L5.06836 10.9082C4.81445 10.9082 4.58984 11.1328 4.58984 11.3867C4.58984 11.6504 4.81445 11.8555 5.06836 11.8555L9.16992 11.8555C9.41406 11.8555 9.64844 11.6406 9.64844 11.3867C9.64844 11.1328 9.42383 10.9082 9.16992 10.9082L7.59766 10.9082L7.59766 10.2539C9.17969 10.0391 10.2246 8.83789 10.2246 7.19727L10.2246 6.13281C10.2246 5.88867 10 5.66406 9.75586 5.66406C9.50195 5.66406 9.29688 5.88867 9.29688 6.13281ZM5.80078 3.86719L5.80078 7.24609C5.80078 8.04688 6.34766 8.65234 7.11914 8.65234C7.89062 8.65234 8.42773 8.04688 8.42773 7.24609L8.42773 3.86719C8.42773 3.06641 7.89062 2.48047 7.11914 2.48047C6.34766 2.48047 5.80078 3.06641 5.80078 3.86719Z" fill="white" fill-opacity="0.85"/>
 </g>
</svg>
