<?xml version="1.0" encoding="UTF-8"?>
<!--Generator: Apple Native CoreSVG 326-->
<!DOCTYPE svg
PUBLIC "-//W3C//DTD SVG 1.1//EN"
       "http://www.w3.org/Graphics/SVG/1.1/DTD/svg11.dtd">
<svg version="1.1" xmlns="http://www.w3.org/2000/svg" xmlns:xlink="http://www.w3.org/1999/xlink" viewBox="0 0 11.5723 17.5293">
 <g>
  <rect height="17.5293" opacity="0" width="11.5723" x="0" y="0"/>
  <path d="M0 8.10547C0 11.1719 2.01172 13.3105 4.94141 13.5938L4.94141 15.1855L2.1875 15.1855C1.81641 15.1855 1.52344 15.4785 1.52344 15.8398C1.52344 16.2109 1.81641 16.5039 2.1875 16.5039L9.02344 16.5039C9.38477 16.5039 9.67773 16.2109 9.67773 15.8398C9.67773 15.4785 9.38477 15.1855 9.02344 15.1855L6.25977 15.1855L6.25977 13.5938C9.19922 13.3105 11.2109 11.1719 11.2109 8.10547L11.2109 6.52344C11.2109 6.15234 10.918 5.85938 10.5469 5.85938C10.1855 5.85938 9.89258 6.15234 9.89258 6.52344L9.89258 8.04688C9.89258 10.6738 8.20312 12.4023 5.60547 12.4023C3.00781 12.4023 1.31836 10.6738 1.31836 8.04688L1.31836 6.52344C1.31836 6.15234 1.02539 5.85938 0.654297 5.85938C0.292969 5.85938 0 6.15234 0 6.52344ZM2.72461 7.8418C2.72461 9.67773 3.90625 10.9375 5.60547 10.9375C7.29492 10.9375 8.48633 9.67773 8.48633 7.8418L8.48633 3.0957C8.48633 1.25977 7.29492 0 5.60547 0C3.90625 0 2.72461 1.25977 2.72461 3.0957ZM4.04297 7.8418L4.04297 3.0957C4.04297 1.97266 4.66797 1.29883 5.60547 1.29883C6.5332 1.29883 7.16797 1.97266 7.16797 3.0957L7.16797 7.8418C7.16797 8.96484 6.5332 9.63867 5.60547 9.63867C4.66797 9.63867 4.04297 8.96484 4.04297 7.8418Z" fill="white" fill-opacity="0.85"/>
 </g>
</svg>
