<?xml version="1.0" encoding="UTF-8"?>
<!--Generator: Apple Native CoreSVG 326-->
<!DOCTYPE svg
PUBLIC "-//W3C//DTD SVG 1.1//EN"
       "http://www.w3.org/Graphics/SVG/1.1/DTD/svg11.dtd">
<svg version="1.1" xmlns="http://www.w3.org/2000/svg" xmlns:xlink="http://www.w3.org/1999/xlink" viewBox="0 0 16.1328 15.7715">
 <g>
  <rect height="15.7715" opacity="0" width="16.1328" x="0" y="0"/>
  <path d="M15.7715 7.88086C15.7715 12.2266 12.2363 15.7617 7.88086 15.7617C3.53516 15.7617 0 12.2266 0 7.88086C0 3.53516 3.53516 0 7.88086 0C12.2363 0 15.7715 3.53516 15.7715 7.88086ZM4.77539 6.89453L4.77539 7.95898C4.77539 9.59961 5.83008 10.8105 7.41211 11.0156L7.41211 11.6699L5.83984 11.6699C5.58594 11.6699 5.35156 11.8945 5.35156 12.1484C5.35156 12.4121 5.58594 12.6172 5.83984 12.6172L9.94141 12.6172C10.1855 12.6172 10.4102 12.4023 10.4102 12.1484C10.4102 11.8945 10.1953 11.6699 9.94141 11.6699L8.36914 11.6699L8.36914 11.0156C8.72373 10.9672 9.0515 10.8685 9.34472 10.7236L8.65019 10.03C8.41507 10.1131 8.15624 10.1562 7.88086 10.1562C6.62109 10.1562 5.70312 9.23828 5.70312 7.95898L5.70313 7.087L5.07657 6.4613C4.90608 6.53344 4.77539 6.7083 4.77539 6.89453ZM4.04297 4.04297C3.90625 4.18945 3.90625 4.45312 4.04297 4.58984L11.1816 11.7188C11.3281 11.8652 11.582 11.8652 11.7285 11.7188C11.8848 11.5625 11.8848 11.3184 11.7285 11.1719L4.60938 4.04297C4.45312 3.88672 4.20898 3.88672 4.04297 4.04297ZM6.57227 8.00781C6.57227 8.80859 7.10938 9.41406 7.88086 9.41406C7.93017 9.41406 7.97857 9.41159 8.0259 9.4066L6.57227 7.95495ZM10.0684 6.89453L10.0684 7.95898C10.0684 8.17743 10.0416 8.38534 9.98898 8.57891L10.7155 9.30344C10.8919 8.90562 10.9863 8.45216 10.9863 7.95898L10.9863 6.89453C10.9863 6.65039 10.7715 6.42578 10.5273 6.42578C10.2734 6.42578 10.0684 6.65039 10.0684 6.89453ZM6.57227 4.62891L6.57227 5.17155L9.19922 7.79131L9.19922 4.62891C9.19922 3.82812 8.65234 3.24219 7.88086 3.24219C7.10938 3.24219 6.57227 3.82812 6.57227 4.62891Z" fill="white" fill-opacity="0.85"/>
 </g>
</svg>
