<?xml version="1.0" encoding="UTF-8"?>
<!--Generator: Apple Native CoreSVG 326-->
<!DOCTYPE svg
PUBLIC "-//W3C//DTD SVG 1.1//EN"
       "http://www.w3.org/Graphics/SVG/1.1/DTD/svg11.dtd">
<svg version="1.1" xmlns="http://www.w3.org/2000/svg" xmlns:xlink="http://www.w3.org/1999/xlink" viewBox="0 0 16.4648 16.123">
 <g>
  <rect height="16.123" opacity="0" width="16.4648" x="0" y="0"/>
  <path d="M8.04688 12.8613C10.6934 12.8613 12.8516 10.7129 12.8516 8.05664C12.8516 5.40039 10.6934 3.25195 8.04688 3.25195C5.39062 3.25195 3.23242 5.40039 3.23242 8.05664C3.23242 10.7129 5.39062 12.8613 8.04688 12.8613ZM8.05664 1.71875C8.53516 1.71875 8.91602 1.33789 8.91602 0.859375C8.91602 0.380859 8.53516 0 8.05664 0C7.57812 0 7.19727 0.380859 7.19727 0.859375C7.19727 1.33789 7.57812 1.71875 8.05664 1.71875ZM11.6406 2.68555C12.1191 2.68555 12.5 2.30469 12.5 1.82617C12.5 1.34766 12.1191 0.966797 11.6406 0.966797C11.1621 0.966797 10.7812 1.34766 10.7812 1.82617C10.7812 2.30469 11.1621 2.68555 11.6406 2.68555ZM14.2773 5.3125C14.7559 5.3125 15.1367 4.93164 15.1367 4.46289C15.1367 3.98438 14.7559 3.60352 14.2773 3.60352C13.8086 3.60352 13.4277 3.98438 13.4277 4.46289C13.4277 4.93164 13.8086 5.3125 14.2773 5.3125ZM15.2539 8.91602C15.7227 8.91602 16.1035 8.53516 16.1035 8.05664C16.1035 7.57812 15.7227 7.19727 15.2539 7.19727C14.7754 7.19727 14.3945 7.57812 14.3945 8.05664C14.3945 8.53516 14.7754 8.91602 15.2539 8.91602ZM14.2773 12.5098C14.7559 12.5098 15.1367 12.1289 15.1367 11.6504C15.1367 11.1816 14.7559 10.8008 14.2773 10.8008C13.8086 10.8008 13.4277 11.1816 13.4277 11.6504C13.4277 12.1289 13.8086 12.5098 14.2773 12.5098ZM11.6406 15.1465C12.1191 15.1465 12.5 14.7656 12.5 14.2871C12.5 13.8086 12.1191 13.4277 11.6406 13.4277C11.1621 13.4277 10.7812 13.8086 10.7812 14.2871C10.7812 14.7656 11.1621 15.1465 11.6406 15.1465ZM8.05664 16.1133C8.53516 16.1133 8.91602 15.7324 8.91602 15.2539C8.91602 14.7754 8.53516 14.3945 8.05664 14.3945C7.57812 14.3945 7.19727 14.7754 7.19727 15.2539C7.19727 15.7324 7.57812 16.1133 8.05664 16.1133ZM4.46289 15.1465C4.94141 15.1465 5.32227 14.7656 5.32227 14.2871C5.32227 13.8086 4.94141 13.4277 4.46289 13.4277C3.98438 13.4277 3.60352 13.8086 3.60352 14.2871C3.60352 14.7656 3.98438 15.1465 4.46289 15.1465ZM1.82617 12.5098C2.30469 12.5098 2.68555 12.1289 2.68555 11.6504C2.68555 11.1816 2.30469 10.8008 1.82617 10.8008C1.34766 10.8008 0.966797 11.1816 0.966797 11.6504C0.966797 12.1289 1.34766 12.5098 1.82617 12.5098ZM0.859375 8.91602C1.33789 8.91602 1.71875 8.53516 1.71875 8.05664C1.71875 7.57812 1.33789 7.19727 0.859375 7.19727C0.380859 7.19727 0 7.57812 0 8.05664C0 8.53516 0.380859 8.91602 0.859375 8.91602ZM1.82617 5.3125C2.30469 5.3125 2.68555 4.93164 2.68555 4.46289C2.68555 3.98438 2.30469 3.60352 1.82617 3.60352C1.34766 3.60352 0.966797 3.98438 0.966797 4.46289C0.966797 4.93164 1.34766 5.3125 1.82617 5.3125ZM4.46289 2.68555C4.94141 2.68555 5.32227 2.30469 5.32227 1.82617C5.32227 1.34766 4.94141 0.966797 4.46289 0.966797C3.98438 0.966797 3.60352 1.34766 3.60352 1.82617C3.60352 2.30469 3.98438 2.68555 4.46289 2.68555Z" fill="white" fill-opacity="0.85"/>
 </g>
</svg>
