<svg version="1.1" xmlns="http://www.w3.org/2000/svg" xmlns:xlink="http://www.w3.org/1999/xlink" viewBox="0 0 17.7734 16.5527">
 <g>
  <rect height="16.5527" opacity="0" width="17.7734" x="0" y="0"/>
  <path d="M1.10352 14.541L16.3184 14.541L16.3184 13.9746C16.3184 13.623 16.1133 13.418 15.752 13.418L15.2637 13.418L15.2637 5.42969L15.918 5.42969C16.3965 5.42969 16.6797 5.07812 16.6797 4.72656C16.6797 4.46289 16.5234 4.23828 16.2109 4.04297L9.6875 0.283203C9.375 0.0976562 9.0332 0 8.71094 0C8.37891 0 8.03711 0.0976562 7.72461 0.283203L1.20117 4.04297C0.878906 4.23828 0.732422 4.46289 0.732422 4.72656C0.732422 5.07812 1.01562 5.42969 1.49414 5.42969L2.1582 5.42969L2.1582 13.418L1.66992 13.418C1.30859 13.418 1.10352 13.623 1.10352 13.9746ZM3.47656 13.418L3.47656 4.375L8.44727 1.60156C8.52539 1.55273 8.62305 1.52344 8.71094 1.52344C8.78906 1.52344 8.88672 1.55273 8.96484 1.60156L13.9551 4.375L13.9551 13.418ZM0.703125 16.543L16.709 16.543C17.0898 16.543 17.4121 16.2207 17.4121 15.8301C17.4121 15.4492 17.0898 15.127 16.709 15.127L0.703125 15.127C0.322266 15.127 0 15.4492 0 15.8301C0 16.2207 0.322266 16.543 0.703125 16.543Z" fill="var(--color-primary)"/>
  <path d="M6.28906 10.6348C6.58203 10.6348 6.72852 10.4297 6.72852 10.1758L6.72852 7.36328C6.72852 6.80664 6.99219 6.26953 7.56836 6.26953C8.08594 6.26953 8.29102 6.66016 8.29102 7.16797L8.29102 10.1758C8.29102 10.4395 8.4668 10.6348 8.7207 10.6348C8.98438 10.6348 9.16016 10.4395 9.16016 10.1758L9.16016 7.32422C9.16016 6.79688 9.42383 6.26953 9.98047 6.26953C10.5371 6.26953 10.7227 6.68945 10.7227 7.24609L10.7227 10.1758C10.7227 10.4395 10.8984 10.6348 11.1621 10.6348C11.4258 10.6348 11.6113 10.4395 11.6113 10.1758L11.6113 7.02148C11.6113 6.17188 11.2012 5.45898 10.2441 5.45898C9.63867 5.45898 9.12109 5.82031 8.99414 6.40625L8.97461 6.40625C8.83789 5.79102 8.44727 5.45898 7.82227 5.45898C7.23633 5.45898 6.8457 5.83984 6.71875 6.36719L6.69922 6.36719L6.69922 5.91797C6.69922 5.64453 6.5332 5.46875 6.26953 5.46875C6.00586 5.46875 5.83984 5.64453 5.83984 5.91797L5.83984 10.1758C5.83984 10.4297 5.99609 10.6348 6.28906 10.6348ZM6.44531 12.5781C6.5918 12.5781 6.65039 12.5098 6.71875 12.373L10.459 4.0332C10.4883 3.97461 10.498 3.91602 10.498 3.86719C10.498 3.7207 10.3809 3.61328 10.2344 3.61328C10.0879 3.61328 10.0098 3.71094 9.95117 3.83789L6.2207 12.168C6.19141 12.2266 6.18164 12.2754 6.18164 12.334C6.18164 12.4805 6.28906 12.5781 6.44531 12.5781Z" fill="var(--color-primary)"/>
 </g>
</svg>
