<?xml version="1.0" encoding="UTF-8"?>
<!--Generator: Apple Native CoreSVG 326-->
<!DOCTYPE svg
PUBLIC "-//W3C//DTD SVG 1.1//EN"
       "http://www.w3.org/Graphics/SVG/1.1/DTD/svg11.dtd">
<svg version="1.1" xmlns="http://www.w3.org/2000/svg" xmlns:xlink="http://www.w3.org/1999/xlink" viewBox="0 0 23.1055 14.248">
 <g>
  <rect height="14.248" opacity="0" width="23.1055" x="0" y="0"/>
  <path d="M21.6406 12.3926C22.2363 12.3926 22.7441 11.9043 22.7441 11.3379C22.7441 10.752 22.2461 10.2832 21.6406 10.2832C21.0352 10.2832 20.5371 10.752 20.5371 11.3379C20.5371 11.9043 21.0449 12.3926 21.6406 12.3926ZM21.6406 8.90625C22.0703 8.90625 22.373 8.60352 22.3926 8.1543L22.5781 2.77344C22.5977 2.2168 22.2266 1.83594 21.6406 1.83594C21.0645 1.83594 20.6836 2.2168 20.7031 2.77344L20.8887 8.1543C20.9082 8.60352 21.2109 8.90625 21.6406 8.90625Z" fill="white" fill-opacity="0.85"/>
  <path d="M3.7793 8.75977C3.4082 8.75977 3.11523 8.4668 3.11523 8.0957C3.11523 7.72461 3.4082 7.43164 3.7793 7.43164L7.00195 7.43164C7.37305 7.43164 7.66602 7.72461 7.66602 8.0957C7.66602 8.4668 7.37305 8.75977 7.00195 8.75977ZM12.7051 10.5664C12.334 10.5664 12.0312 10.2734 12.0312 9.90234L12.0312 8.75977L10.8984 8.75977C10.5176 8.75977 10.2246 8.4668 10.2246 8.0957C10.2246 7.72461 10.5176 7.43164 10.8984 7.43164L12.0312 7.43164L12.0312 6.28906C12.0312 5.91797 12.334 5.625 12.7051 5.625C13.0762 5.625 13.3691 5.91797 13.3691 6.28906L13.3691 7.43164L14.5117 7.43164C14.8828 7.43164 15.1758 7.72461 15.1758 8.0957C15.1758 8.4668 14.8828 8.75977 14.5117 8.75977L13.3691 8.75977L13.3691 9.90234C13.3691 10.2734 13.0762 10.5664 12.7051 10.5664ZM2.49023 14.2383L15.625 14.2383C17.2949 14.2383 18.1152 13.418 18.1152 11.7773L18.1152 4.41406C18.1152 2.77344 17.2949 1.95312 15.625 1.95312L14.6289 1.95312L14.6289 0.986328C14.6289 0.371094 14.2773 0 13.6719 0L11.4941 0C10.8887 0 10.5273 0.371094 10.5273 0.986328L10.5273 1.95312L7.58789 1.95312L7.58789 0.986328C7.58789 0.371094 7.23633 0 6.62109 0L4.45312 0C3.84766 0 3.48633 0.371094 3.48633 0.986328L3.48633 1.95312L2.49023 1.95312C0.830078 1.95312 0 2.77344 0 4.41406L0 11.7773C0 13.418 0.830078 14.2383 2.49023 14.2383Z" fill="white" fill-opacity="0.85"/>
 </g>
</svg>
