<?xml version="1.0" encoding="UTF-8"?>
<!--Generator: Apple Native CoreSVG 326-->
<!DOCTYPE svg
PUBLIC "-//W3C//DTD SVG 1.1//EN"
       "http://www.w3.org/Graphics/SVG/1.1/DTD/svg11.dtd">
<svg version="1.1" xmlns="http://www.w3.org/2000/svg" xmlns:xlink="http://www.w3.org/1999/xlink" viewBox="0 0 20.5451 19.0332">
 <g>
  <rect height="19.0332" opacity="0" width="20.5451" x="0" y="0"/>
  <path d="M0.643648 19.0137L1.59091 19.0137C2.05966 19.0137 2.28427 18.7891 2.41123 18.4668C3.68076 15.3418 4.95029 12.1973 6.21982 9.07227C6.32724 8.80859 6.21005 8.57422 5.92685 8.57422L5.4288 8.57422C5.15537 8.57422 4.97959 8.71094 4.8624 8.94531C3.2706 12.0117 1.6788 15.0879 0.0870075 18.1543C-0.118071 18.5547 0.0284138 19.0137 0.643648 19.0137ZM18.5929 19.0137L19.5499 19.0137C20.1554 19.0137 20.3116 18.5547 20.0968 18.1543C18.5147 15.0879 16.9132 12.0117 15.3311 8.94531C15.2042 8.71094 15.0284 8.57422 14.755 8.57422L14.2569 8.57422C13.9737 8.57422 13.8565 8.80859 13.964 9.07227C15.2335 12.1973 16.503 15.3418 17.7726 18.4668C17.8995 18.7891 18.1339 19.0137 18.5929 19.0137ZM9.91123 10.5469L10.2628 10.5469C10.5851 10.5469 10.8292 10.3125 10.8292 9.98047C10.8292 9.70703 10.8292 9.42383 10.8292 9.14062C10.8292 8.81836 10.5851 8.57422 10.2628 8.57422L9.91123 8.57422C9.58896 8.57422 9.34482 8.81836 9.34482 9.14062C9.34482 9.42383 9.34482 9.70703 9.34482 9.98047C9.34482 10.3125 9.58896 10.5469 9.91123 10.5469ZM9.91123 14.502L10.2628 14.502C10.5851 14.502 10.8292 14.2578 10.8292 13.9355C10.8292 13.457 10.8292 12.9785 10.8292 12.5098C10.8292 12.1875 10.5851 11.9434 10.2628 11.9434L9.91123 11.9434C9.58896 11.9434 9.34482 12.1875 9.34482 12.5098C9.34482 12.9785 9.34482 13.457 9.34482 13.9355C9.34482 14.2578 9.58896 14.502 9.91123 14.502ZM9.91123 19.0137L10.2628 19.0137C10.5851 19.0137 10.8292 18.7793 10.8292 18.4473C10.8292 17.793 10.8292 17.1289 10.8292 16.4746C10.8292 16.1426 10.5851 15.9082 10.2628 15.9082L9.91123 15.9082C9.58896 15.9082 9.34482 16.1426 9.34482 16.4746C9.34482 17.1289 9.34482 17.793 9.34482 18.4473C9.34482 18.7793 9.58896 19.0137 9.91123 19.0137Z" fill="white" fill-opacity="0.85"/>
  <path d="M13.0362 6.31836C14.4229 6.31836 15.5558 5.46875 15.9854 4.44336C16.0538 4.27734 16.0147 4.0625 15.7999 4.0625C15.712 4.05273 15.6534 4.08203 15.5558 4.10156C15.3311 4.16016 14.9991 4.23828 14.6573 4.23828C12.9581 4.23828 11.8644 3.19336 11.8644 1.46484C11.8644 1.15234 11.9718 0.605469 12.0792 0.351562C12.1476 0.185547 12.0987 0 11.8741 0C11.8351 0 11.7667 0.0195312 11.6983 0.0488281C10.5265 0.527344 9.73545 1.77734 9.73545 3.10547C9.73545 5.00977 11.171 6.31836 13.0362 6.31836Z" fill="white" fill-opacity="0.85"/>
 </g>
</svg>
