<?xml version="1.0" encoding="UTF-8"?>
<!--Generator: Apple Native CoreSVG 326-->
<!DOCTYPE svg
PUBLIC "-//W3C//DTD SVG 1.1//EN"
       "http://www.w3.org/Graphics/SVG/1.1/DTD/svg11.dtd">
<svg version="1.1" xmlns="http://www.w3.org/2000/svg" xmlns:xlink="http://www.w3.org/1999/xlink" viewBox="0 0 10.6714 10.3271">
 <g>
  <rect height="10.3271" opacity="0" width="10.6714" x="0" y="0"/>
  <path d="M0.223404 10.1001C0.526138 10.4028 1.04372 10.4028 1.34645 10.1001L5.15504 6.28174L8.9734 10.1001C9.26637 10.4028 9.78395 10.4028 10.0867 10.1001C10.3992 9.79736 10.3894 9.27979 10.0867 8.98682L6.26833 5.16846L10.0867 1.35986C10.3894 1.05713 10.3992 0.539551 10.0867 0.236816C9.78395-0.065918 9.26637-0.0561523 8.9734 0.236816L5.15504 4.05518L1.34645 0.236816C1.04372-0.0561523 0.526138-0.065918 0.223404 0.236816C-0.0793307 0.539551-0.0695651 1.05713 0.223404 1.35986L4.04176 5.16846L0.223404 8.98682C-0.0695651 9.27979-0.0793307 9.79736 0.223404 10.1001Z" fill="white" fill-opacity="0.85"/>
 </g>
</svg>
