<?xml version="1.0" encoding="UTF-8"?>
<!--Generator: Apple Native CoreSVG 326-->
<!DOCTYPE svg
PUBLIC "-//W3C//DTD SVG 1.1//EN"
       "http://www.w3.org/Graphics/SVG/1.1/DTD/svg11.dtd">
<svg version="1.1" xmlns="http://www.w3.org/2000/svg" xmlns:xlink="http://www.w3.org/1999/xlink" viewBox="0 0 14.5898 14.248">
 <g>
  <rect height="14.248" opacity="0" width="14.5898" x="0" y="0"/>
  <path d="M2.49023 14.248L11.7383 14.248C13.4082 14.248 14.2285 13.4277 14.2285 11.7871L14.2285 2.4707C14.2285 0.830078 13.4082 0.00976562 11.7383 0.00976562L2.49023 0.00976562C0.830078 0.00976562 0 0.830078 0 2.4707L0 11.7871C0 13.4277 0.830078 14.248 2.49023 14.248ZM2.50977 12.832C1.80664 12.832 1.40625 12.4512 1.40625 11.7188L1.40625 2.53906C1.40625 1.79688 1.80664 1.42578 2.50977 1.42578L11.7188 1.42578C12.4219 1.42578 12.8223 1.79688 12.8223 2.53906L12.8223 11.7188C12.8223 12.4512 12.4219 12.832 11.7188 12.832Z" fill="white" fill-opacity="0.85"/>
  <path d="M4.81445 10.6348C5.22461 10.6348 5.46875 10.3809 5.46875 9.94141L5.46875 5.82031L5.51758 5.82031L8.73047 10.2441C8.94531 10.5469 9.12109 10.6348 9.39453 10.6348C9.81445 10.6348 10.0586 10.3809 10.0586 9.94141L10.0586 4.12109C10.0586 3.68164 9.81445 3.42773 9.4043 3.42773C8.99414 3.42773 8.75977 3.70117 8.75977 4.12109L8.75977 8.33984L8.70117 8.33984L5.49805 3.82812C5.2832 3.51562 5.08789 3.42773 4.81445 3.42773C4.4043 3.42773 4.16992 3.70117 4.16992 4.13086L4.16992 9.94141C4.16992 10.3711 4.4043 10.6348 4.81445 10.6348Z" fill="white" fill-opacity="0.85"/>
 </g>
</svg>
