<?xml version="1.0" encoding="UTF-8"?>
<!--Generator: Apple Native CoreSVG 326-->
<!DOCTYPE svg
PUBLIC "-//W3C//DTD SVG 1.1//EN"
       "http://www.w3.org/Graphics/SVG/1.1/DTD/svg11.dtd">
<svg version="1.1" xmlns="http://www.w3.org/2000/svg" xmlns:xlink="http://www.w3.org/1999/xlink" viewBox="0 0 16.1328 15.7715">
 <g>
  <rect height="15.7715" opacity="0" width="16.1328" x="0" y="0"/>
  <path d="M15.7715 7.88086C15.7715 12.2266 12.2363 15.7617 7.88086 15.7617C3.53516 15.7617 0 12.2266 0 7.88086C0 3.53516 3.53516 0 7.88086 0C12.2363 0 15.7715 3.53516 15.7715 7.88086ZM4.7168 4.81445L4.7168 10.5859C4.7168 10.8984 4.92188 11.1035 5.20508 11.1035C5.48828 11.1035 5.68359 10.8984 5.68359 10.5859L5.68359 9.35547L6.13281 8.92578L7.50977 10.8496C7.62695 11.0059 7.75391 11.1035 7.94922 11.1035C8.21289 11.1035 8.41797 10.918 8.41797 10.6738C8.41797 10.5469 8.35938 10.4395 8.27148 10.3223L6.83594 8.32031L8.17383 6.93359C8.28125 6.80664 8.34961 6.73828 8.34961 6.58203C8.34961 6.35742 8.16406 6.16211 7.91016 6.16211C7.77344 6.16211 7.61719 6.24023 7.5293 6.34766L5.71289 8.33008L5.68359 8.33008L5.68359 4.82422C5.68359 4.51172 5.48828 4.30664 5.20508 4.30664C4.92188 4.30664 4.7168 4.50195 4.7168 4.81445ZM10.2051 7.09961L10.166 7.09961L10.166 6.65039C10.166 6.37695 9.9707 6.16211 9.7168 6.16211C9.46289 6.16211 9.26758 6.37695 9.26758 6.65039L9.26758 10.5859C9.26758 10.8984 9.43359 11.1035 9.73633 11.1035C9.95117 11.1035 10.2051 10.9766 10.2051 10.5859L10.2051 8.20312C10.2051 7.65625 10.4102 7.08984 11.0645 7.08984C11.2402 7.08984 11.416 7.07031 11.5332 6.97266C11.6406 6.91406 11.6992 6.79688 11.6992 6.64062C11.6992 6.33789 11.4844 6.16211 11.1719 6.16211C10.6738 6.16211 10.3125 6.60156 10.2051 7.09961Z" fill="white" fill-opacity="0.85"/>
 </g>
</svg>
