<svg version="1.1" xmlns="http://www.w3.org/2000/svg" xmlns:xlink="http://www.w3.org/1999/xlink" width="14.5898" height="14.248" viewBox="0 0 14.5898 14.248">
 <g>
  <rect height="14.248" opacity="0" width="14.5898" x="0" y="0"/>
  <path d="M2.49023 14.248L11.7383 14.248C13.4082 14.248 14.2285 13.4277 14.2285 11.7871L14.2285 2.4707C14.2285 0.830078 13.4082 0.00976562 11.7383 0.00976562L2.49023 0.00976562C0.830078 0.00976562 0 0.830078 0 2.4707L0 11.7871C0 13.4277 0.830078 14.248 2.49023 14.248ZM2.50977 12.832C1.80664 12.832 1.40625 12.4609 1.40625 11.7188L1.40625 2.53906C1.40625 1.80664 1.80664 1.42578 2.50977 1.42578L11.7188 1.42578C12.4219 1.42578 12.8223 1.80664 12.8223 2.53906L12.8223 11.7188C12.8223 12.4609 12.4219 12.832 11.7188 12.832Z" fill="var(--color-secondary)"/>
  <path d="M7.11914 10.7324C9.10156 10.7324 10.4883 9.20898 10.4883 7.04102C10.4883 4.85352 9.10156 3.33008 7.11914 3.33008C5.13672 3.33008 3.75 4.85352 3.75 7.04102C3.75 9.20898 5.13672 10.7324 7.11914 10.7324ZM7.11914 9.64844C5.91797 9.64844 5.13672 8.62305 5.13672 7.04102C5.13672 5.43945 5.91797 4.41406 7.11914 4.41406C8.32031 4.41406 9.0918 5.43945 9.0918 7.04102C9.0918 8.62305 8.32031 9.64844 7.11914 9.64844Z" fill="var(--color-primary)"/>
 </g>
</svg>
