<?xml version="1.0" encoding="UTF-8"?>
<!--Generator: Apple Native CoreSVG 326-->
<!DOCTYPE svg
PUBLIC "-//W3C//DTD SVG 1.1//EN"
       "http://www.w3.org/Graphics/SVG/1.1/DTD/svg11.dtd">
<svg version="1.1" xmlns="http://www.w3.org/2000/svg" xmlns:xlink="http://www.w3.org/1999/xlink" viewBox="0 0 18.6621 13.9551">
 <g>
  <rect height="13.9551" opacity="0" width="18.6621" x="0" y="0"/>
  <path d="M18.3008 5.87891L18.3008 8.06641C18.3008 12.2656 16.6113 13.9453 12.0801 13.9453L6.2207 13.9453C1.68945 13.9453 0 12.2656 0 8.06641L0 5.87891C0 1.67969 1.68945 0 6.2207 0L12.0801 0C16.6113 0 18.3008 1.67969 18.3008 5.87891ZM5.42969 3.75C5.05859 3.75 4.78516 4.00391 4.78516 4.43359L4.78516 9.58984C4.78516 10.0098 5.0293 10.2637 5.43945 10.2637C5.86914 10.2637 6.09375 10.0098 6.09375 9.58984L6.09375 8.13477L6.875 8.13477C8.11523 8.13477 8.82812 7.1875 8.82812 5.94727C8.82812 4.72656 8.14453 3.75 6.95312 3.75ZM9.60938 5.25391C9.60938 5.58594 9.80469 5.82031 10.1367 5.82031C10.4297 5.82031 10.6152 5.68359 10.7031 5.39062C10.8691 4.91211 11.0449 4.60938 11.4453 4.60938C11.875 4.60938 12.1289 4.9707 12.1289 5.51758C12.1289 6.16211 11.6406 6.83594 11.2305 7.33398L9.94141 8.95508C9.77539 9.16016 9.59961 9.38477 9.59961 9.66797C9.59961 9.96094 9.79492 10.1855 10.1953 10.1855L12.959 10.1855C13.2812 10.1855 13.457 9.98047 13.457 9.66797C13.457 9.32617 13.2617 9.15039 12.959 9.15039L11.1719 9.15039L11.1719 9.07227L12.2363 7.76367C13.0859 6.74805 13.3496 6.17188 13.3496 5.45898C13.3496 4.36523 12.5781 3.59375 11.4551 3.59375C10.4199 3.59375 9.60938 4.43359 9.60938 5.25391ZM7.53906 5.94727C7.53906 6.62109 7.28516 7.11914 6.61133 7.11914L6.09375 7.11914L6.09375 4.79492L6.62109 4.79492C7.23633 4.79492 7.53906 5.22461 7.53906 5.94727Z" fill="white" fill-opacity="0.85"/>
 </g>
</svg>
