<?xml version="1.0" encoding="UTF-8"?>
<!--Generator: Apple Native CoreSVG 326-->
<!DOCTYPE svg
PUBLIC "-//W3C//DTD SVG 1.1//EN"
       "http://www.w3.org/Graphics/SVG/1.1/DTD/svg11.dtd">
<svg version="1.1" xmlns="http://www.w3.org/2000/svg" xmlns:xlink="http://www.w3.org/1999/xlink" viewBox="0 0 12.3535 20.6805">
 <g>
  <rect height="20.6805" opacity="0" width="12.3535" x="0" y="0"/>
  <path d="M11.9922 11.9955C11.9922 8.76309 10.7031 4.26114 7.53906 0.950589C6.875 0.257229 5.81055-0.299411 4.58984 0.179104L3.83789 0.472073C2.37305 1.04824 1.94336 2.03457 2.54883 3.42129C3.75977 6.15567 4.0625 8.13809 4.0625 9.85684C4.0625 10.56 3.70117 10.9897 2.92969 10.9897L1.04492 10.9897C0.449219 10.9897 0 11.4682 0 12.1029L0 13.851C0 14.4076 0.390625 14.8568 0.898438 14.8568L2.33398 14.8568C2.86133 14.8568 3.16406 15.1107 3.16406 15.56C3.16406 15.9311 2.98828 16.2924 2.98828 16.8002C2.98828 17.9916 3.67188 18.9096 5.04883 19.5736L6.60156 20.3256C7.93945 20.9701 9.26758 20.599 10.0488 19.3393C11.4062 17.1029 11.9922 14.8471 11.9922 11.9955ZM10.5762 11.9955C10.5762 14.6713 10.0879 16.5463 8.84766 18.6068C8.45703 19.2221 7.79297 19.4076 7.08984 19.0561L5.71289 18.3529C4.60938 17.7963 4.31641 17.3959 4.31641 16.5365C4.31641 15.5404 5.48828 12.9135 5.48828 9.41739C5.48828 8.14785 5.21484 5.90176 3.84766 2.85489C3.62305 2.3666 3.75 2.00528 4.23828 1.82949L5 1.53653C5.78125 1.24356 6.05469 1.4291 6.47461 1.85879C9.50195 5.02285 10.5762 9.07559 10.5762 11.9955Z" fill="white" fill-opacity="0.85"/>
 </g>
</svg>
