<?xml version="1.0" encoding="UTF-8"?>
<!--Generator: Apple Native CoreSVG 326-->
<!DOCTYPE svg
PUBLIC "-//W3C//DTD SVG 1.1//EN"
       "http://www.w3.org/Graphics/SVG/1.1/DTD/svg11.dtd">
<svg version="1.1" xmlns="http://www.w3.org/2000/svg" xmlns:xlink="http://www.w3.org/1999/xlink" viewBox="0 0 10.0195 12.8418">
 <g>
  <rect height="12.8418" opacity="0" width="10.0195" x="0" y="0"/>
  <path d="M1.09375 12.832L2.86133 12.832C3.56445 12.832 3.94531 12.4512 3.94531 11.7383L3.94531 1.09375C3.94531 0.341797 3.56445 0 2.86133 0L1.09375 0C0.380859 0 0 0.380859 0 1.09375L0 11.7383C0 12.4512 0.380859 12.832 1.09375 12.832ZM6.80664 12.832L8.57422 12.832C9.27734 12.832 9.6582 12.4512 9.6582 11.7383L9.6582 1.09375C9.6582 0.341797 9.27734 0 8.57422 0L6.80664 0C6.09375 0 5.71289 0.380859 5.71289 1.09375L5.71289 11.7383C5.71289 12.4512 6.09375 12.832 6.80664 12.832Z" fill="white" fill-opacity="0.85"/>
 </g>
</svg>
