<?xml version="1.0" encoding="UTF-8"?>
<!--Generator: Apple Native CoreSVG 326-->
<!DOCTYPE svg
PUBLIC "-//W3C//DTD SVG 1.1//EN"
       "http://www.w3.org/Graphics/SVG/1.1/DTD/svg11.dtd">
<svg version="1.1" xmlns="http://www.w3.org/2000/svg" xmlns:xlink="http://www.w3.org/1999/xlink" viewBox="0 0 18.4766 14.248">
 <g>
  <rect height="14.248" opacity="0" width="18.4766" x="0" y="0"/>
  <path d="M18.1152 2.4707L18.1152 11.7871C18.1152 13.4277 17.2949 14.248 15.625 14.248L2.49023 14.248C0.830078 14.248 0 13.4277 0 11.7871L0 2.4707C0 0.830078 0.830078 0.00976562 2.49023 0.00976562L15.625 0.00976562C17.2949 0.00976562 18.1152 0.830078 18.1152 2.4707ZM6.79688 3.99414C6.38672 3.99414 6.20117 4.21875 6.20117 4.54102L6.20117 9.70703C6.20117 10.0293 6.38672 10.2441 6.79688 10.2441L7.56836 10.2441C7.97852 10.2441 8.16406 10.0293 8.16406 9.70703L8.16406 4.54102C8.16406 4.21875 7.97852 3.99414 7.56836 3.99414ZM10.5664 3.99414C10.1562 3.99414 9.96094 4.21875 9.96094 4.54102L9.96094 9.70703C9.96094 10.0293 10.1562 10.2441 10.5664 10.2441L11.3379 10.2441C11.748 10.2441 11.9336 10.0293 11.9336 9.70703L11.9336 4.54102C11.9336 4.21875 11.748 3.99414 11.3379 3.99414Z" fill="white" fill-opacity="0.85"/>
 </g>
</svg>
