<?xml version="1.0" encoding="UTF-8"?>
<!--Generator: Apple Native CoreSVG 326-->
<!DOCTYPE svg
PUBLIC "-//W3C//DTD SVG 1.1//EN"
       "http://www.w3.org/Graphics/SVG/1.1/DTD/svg11.dtd">
<svg version="1.1" xmlns="http://www.w3.org/2000/svg" xmlns:xlink="http://www.w3.org/1999/xlink" viewBox="0 0 14.082 16.8066">
 <g>
  <rect height="16.8066" opacity="0" width="14.082" x="0" y="0"/>
  <path d="M6.85547 5.68359C8.31055 5.70312 9.47266 4.44336 9.47266 2.8125C9.47266 1.2793 8.31055 0 6.85547 0C5.41016 0 4.22852 1.2793 4.22852 2.8125C4.22852 4.44336 5.40039 5.67383 6.85547 5.68359ZM2.27539 11.25L11.4453 11.25C11.9043 11.25 12.1484 10.9375 12.1484 10.5176C12.1484 9.38477 10.4297 6.57227 6.85547 6.57227C3.27148 6.57227 1.57227 9.38477 1.57227 10.5176C1.57227 10.9375 1.80664 11.25 2.27539 11.25ZM0.703125 16.7578L13.0078 16.7578C13.3984 16.7578 13.7207 16.4355 13.7207 16.0547C13.7207 15.6641 13.3984 15.3516 13.0078 15.3516L12.5391 15.3516L12.5391 13.75C12.5391 12.8613 12.1289 12.3926 11.1719 12.3926L2.54883 12.3926C1.58203 12.3926 1.18164 12.8613 1.18164 13.75L1.18164 15.3516L0.703125 15.3516C0.322266 15.3516 0 15.6641 0 16.0547C0 16.4355 0.322266 16.7578 0.703125 16.7578ZM5.41992 15.0586C5.14648 15.0586 4.95117 14.8535 4.95117 14.5703C4.95117 14.2969 5.14648 14.0918 5.41992 14.0918L8.30078 14.0918C8.57422 14.0918 8.7793 14.2969 8.7793 14.5703C8.7793 14.8535 8.57422 15.0586 8.30078 15.0586Z" fill="white" fill-opacity="0.85"/>
 </g>
</svg>
