<?xml version="1.0" encoding="UTF-8"?>
<!--Generator: Apple Native CoreSVG 326-->
<!DOCTYPE svg
PUBLIC "-//W3C//DTD SVG 1.1//EN"
       "http://www.w3.org/Graphics/SVG/1.1/DTD/svg11.dtd">
<svg version="1.1" xmlns="http://www.w3.org/2000/svg" xmlns:xlink="http://www.w3.org/1999/xlink" viewBox="0 0 14.082 16.709">
 <g>
  <rect height="16.709" opacity="0" width="14.082" x="0" y="0"/>
  <path d="M6.85547 5.61523C8.33008 5.61523 9.48242 4.35547 9.48242 2.76367C9.48242 1.2207 8.33008 0 6.85547 0C5.38086 0 4.21875 1.23047 4.21875 2.7832C4.21875 4.36523 5.38086 5.61523 6.85547 5.61523ZM6.85547 4.39453C6.08398 4.39453 5.51758 3.7207 5.51758 2.7832C5.51758 1.86523 6.08398 1.2207 6.85547 1.2207C7.62695 1.2207 8.19336 1.86523 8.19336 2.76367C8.19336 3.71094 7.62695 4.39453 6.85547 4.39453ZM2.57812 11.2012L11.123 11.2012C11.7578 11.2012 12.1289 10.8008 12.1289 10.1953C12.1289 8.62305 10.1367 6.30859 6.85547 6.30859C3.57422 6.30859 1.57227 8.62305 1.57227 10.1953C1.57227 10.8008 1.94336 11.2012 2.57812 11.2012ZM3.02734 9.9707C2.93945 9.9707 2.87109 9.92188 2.89062 9.84375C3.06641 9.05273 4.42383 7.53906 6.85547 7.53906C9.27734 7.53906 10.6348 9.05273 10.8105 9.84375C10.8301 9.92188 10.7715 9.9707 10.6836 9.9707ZM0.703125 16.709L13.0078 16.709C13.3984 16.709 13.7207 16.3867 13.7207 16.0059C13.7207 15.6152 13.3984 15.3027 13.0078 15.3027L12.5391 15.3027L12.5391 13.7012C12.5391 12.8125 12.1289 12.3438 11.1719 12.3438L2.54883 12.3438C1.58203 12.3438 1.18164 12.8125 1.18164 13.7012L1.18164 15.3027L0.703125 15.3027C0.322266 15.3027 0 15.6152 0 16.0059C0 16.3867 0.322266 16.709 0.703125 16.709ZM5.41992 15.0098C5.14648 15.0098 4.95117 14.8047 4.95117 14.5215C4.95117 14.248 5.14648 14.043 5.41992 14.043L8.30078 14.043C8.57422 14.043 8.7793 14.248 8.7793 14.5215C8.7793 14.8047 8.57422 15.0098 8.30078 15.0098Z" fill="white" fill-opacity="0.85"/>
 </g>
</svg>
