<?xml version="1.0" encoding="UTF-8"?>
<!--Generator: Apple Native CoreSVG 326-->
<!DOCTYPE svg
PUBLIC "-//W3C//DTD SVG 1.1//EN"
       "http://www.w3.org/Graphics/SVG/1.1/DTD/svg11.dtd">
<svg version="1.1" xmlns="http://www.w3.org/2000/svg" xmlns:xlink="http://www.w3.org/1999/xlink" viewBox="0 0 17.5732 17.6367">
 <g>
  <rect height="17.6367" opacity="0" width="17.5732" x="0" y="0"/>
  <path d="M8.94226 11.0638C8.83502 11.0524 8.72137 11.0498 8.60596 11.0498C5.14893 11.0498 3.27393 13.3643 3.27393 14.5068C3.27393 14.6143 3.33252 14.6436 3.43994 14.6436L12.522 14.6436L13.8204 15.942C13.6697 15.9554 13.507 15.9619 13.3325 15.9619L3.87939 15.9619C2.52197 15.9619 1.86768 15.5615 1.86768 14.6826C1.86768 12.8267 4.0371 10.181 7.66646 9.78804ZM11.9653 5.2002C11.9653 6.36466 11.4431 7.41456 10.6357 8.07958L9.68456 7.12841C10.2069 6.71028 10.5591 6.00118 10.5591 5.2002C10.5591 3.9209 9.68018 2.9834 8.60596 2.9834C7.82628 2.9834 7.14092 3.49685 6.83164 4.27549L5.80874 3.25259C6.41143 2.29339 7.44276 1.66504 8.60596 1.66504C10.4712 1.66504 11.9653 3.21777 11.9653 5.2002Z" fill="white" fill-opacity="0.85"/>
  <path d="M15.4517 16.1865C15.7153 16.4502 16.145 16.4404 16.3989 16.1768C16.6528 15.9131 16.6626 15.4932 16.3989 15.2295L2.34619 1.17676C2.08252 0.913086 1.65283 0.913086 1.38916 1.17676C1.13525 1.43066 1.13525 1.87012 1.38916 2.12402Z" fill="white" fill-opacity="0.85"/>
 </g>
</svg>
