<?xml version="1.0" encoding="UTF-8"?>
<!--Generator: Apple Native CoreSVG 326-->
<!DOCTYPE svg
PUBLIC "-//W3C//DTD SVG 1.1//EN"
       "http://www.w3.org/Graphics/SVG/1.1/DTD/svg11.dtd">
<svg version="1.1" xmlns="http://www.w3.org/2000/svg" xmlns:xlink="http://www.w3.org/1999/xlink" viewBox="0 0 19.0918 19.4238">
 <g>
  <rect height="19.4238" opacity="0" width="19.0918" x="0" y="0"/>
  <path d="M13.4961 3.19336L13.6896 4.28711L7.35352 4.28711C5.22461 4.28711 3.96484 5.51758 3.96484 7.65625L3.96484 15.5395C3.05638 15.4333 2.50633 14.8214 2.30469 13.7012L0.839844 5.41992C0.576172 3.95508 1.20117 3.10547 2.67578 2.8418L10.8984 1.39648C12.3828 1.13281 13.2324 1.72852 13.4961 3.19336Z" fill="white" fill-opacity="0.85"/>
  <path d="M7.35352 18.2812L15.7031 18.2812C17.207 18.2812 17.9492 17.5391 17.9492 16.0547L17.9492 7.65625C17.9492 6.16211 17.207 5.42969 15.7031 5.42969L7.35352 5.42969C5.85938 5.42969 5.09766 6.16211 5.09766 7.65625L5.09766 16.0547C5.09766 17.5391 5.85938 18.2812 7.35352 18.2812ZM6.9043 16.9629C7.50977 15.3613 9.31641 14.209 11.5234 14.209C13.7402 14.209 15.5469 15.3613 16.1426 16.9629ZM11.5234 13.0469C10.1953 13.0469 9.15039 11.9336 9.15039 10.4492C9.15039 9.04297 10.1953 7.90039 11.5234 7.90039C12.8516 7.90039 13.9062 9.04297 13.9062 10.4492C13.9062 11.9336 12.8516 13.0469 11.5234 13.0469Z" fill="white" fill-opacity="0.85"/>
 </g>
</svg>
