<?xml version="1.0" encoding="UTF-8"?>
<!--Generator: Apple Native CoreSVG 326-->
<!DOCTYPE svg
PUBLIC "-//W3C//DTD SVG 1.1//EN"
       "http://www.w3.org/Graphics/SVG/1.1/DTD/svg11.dtd">
<svg version="1.1" xmlns="http://www.w3.org/2000/svg" xmlns:xlink="http://www.w3.org/1999/xlink" viewBox="0 0 22.5684 12.7051">
 <g>
  <rect height="12.7051" opacity="0" width="22.5684" x="0" y="0"/>
  <path d="M4.55078 9.17969L5.0293 9.17969C4.9707 8.73047 4.93164 8.22266 4.99023 7.77344L4.63867 7.77344C2.80273 7.77344 1.50391 6.48438 1.50391 4.61914C1.50391 2.77344 2.80273 1.47461 4.63867 1.47461L11.4648 1.47461C13.3008 1.47461 14.5996 2.77344 14.5996 4.61914C14.5996 6.48438 13.3008 7.77344 11.4648 7.77344L8.82812 7.77344C8.71094 8.11523 8.75977 8.7793 9.04297 9.17969L11.5527 9.17969C14.2188 9.17969 16.1035 7.31445 16.1035 4.61914C16.1035 1.93359 14.2188 0.0683594 11.5527 0.0683594L4.55078 0.0683594C1.88477 0.0683594 0 1.93359 0 4.61914C0 7.31445 1.88477 9.17969 4.55078 9.17969ZM10.6543 12.7051L17.666 12.7051C20.332 12.7051 22.207 10.8398 22.207 8.1543C22.207 5.45898 20.332 3.59375 17.666 3.59375L17.1777 3.59375C17.2363 4.04297 17.2852 4.55078 17.2266 5L17.5781 5C19.4043 5 20.7129 6.28906 20.7129 8.1543C20.7129 10 19.4043 11.2988 17.5781 11.2988L10.7422 11.2988C8.91602 11.2988 7.60742 10 7.60742 8.1543C7.60742 6.28906 8.91602 5 10.7422 5L13.3789 5C13.5059 4.6582 13.457 3.99414 13.1641 3.59375L10.6543 3.59375C7.99805 3.59375 6.11328 5.45898 6.11328 8.1543C6.11328 10.8398 7.99805 12.7051 10.6543 12.7051Z" fill="white" fill-opacity="0.85"/>
 </g>
</svg>
