<?xml version="1.0" encoding="UTF-8"?>
<!--Generator: Apple Native CoreSVG 326-->
<!DOCTYPE svg
PUBLIC "-//W3C//DTD SVG 1.1//EN"
       "http://www.w3.org/Graphics/SVG/1.1/DTD/svg11.dtd">
<svg version="1.1" xmlns="http://www.w3.org/2000/svg" xmlns:xlink="http://www.w3.org/1999/xlink" viewBox="0 0 18.8477 16.5723">
 <g>
  <rect height="16.5723" opacity="0" width="18.8477" x="0" y="0"/>
  <path d="M2.71484 14.541C2.71484 14.7912 2.75088 15.0402 2.83539 15.2734L0.703125 15.2734C0.322266 15.2734 0 14.9512 0 14.5703C0 14.1797 0.322266 13.8672 0.703125 13.8672L2.79215 13.8672C2.73857 14.0945 2.71484 14.3199 2.71484 14.541ZM18.4863 14.5703C18.4863 14.9512 18.1738 15.2734 17.7832 15.2734L15.6607 15.2734C15.7452 15.0402 15.7812 14.7912 15.7812 14.541C15.7812 14.3199 15.7574 14.0945 15.7037 13.8672L17.7832 13.8672C18.1738 13.8672 18.4863 14.1797 18.4863 14.5703ZM3.59547 12.1191L0.703125 12.1191C0.322266 12.1191 0 11.7969 0 11.416C0 11.0254 0.322266 10.7129 0.703125 10.7129L5.05741 10.7129C4.46021 11.1179 3.96713 11.6002 3.59547 12.1191ZM18.4863 11.416C18.4863 11.7969 18.1738 12.1191 17.7832 12.1191L14.8983 12.1191C14.5259 11.6002 14.0321 11.1179 13.4346 10.7129L17.7832 10.7129C18.1738 10.7129 18.4863 11.0254 18.4863 11.416ZM6.10454 8.96484L0.703125 8.96484C0.322266 8.96484 0 8.64258 0 8.26172C0 7.88086 0.322266 7.55859 0.703125 7.55859L5.54713 7.55859C5.64704 8.06944 5.83927 8.54519 6.10454 8.96484ZM18.4863 8.26172C18.4863 8.64258 18.1738 8.96484 17.7832 8.96484L12.3862 8.96484C12.6514 8.54563 12.8445 8.07016 12.9455 7.55859L17.7832 7.55859C18.1738 7.55859 18.4863 7.88086 18.4863 8.26172ZM5.57785 5.81055L0.703125 5.81055C0.322266 5.81055 0 5.49805 0 5.10742C0 4.72656 0.322266 4.4043 0.703125 4.4043L6.20049 4.4043C5.9088 4.81413 5.69315 5.28929 5.57785 5.81055ZM18.4863 5.10742C18.4863 5.49805 18.1738 5.81055 17.7832 5.81055L12.9233 5.81055C12.8097 5.28769 12.5955 4.81312 12.3057 4.4043L17.7832 4.4043C18.1738 4.4043 18.4863 4.72656 18.4863 5.10742ZM18.4863 1.95312C18.4863 2.34375 18.1738 2.65625 17.7832 2.65625L0.703125 2.65625C0.322266 2.65625 0 2.34375 0 1.95312C0 1.57227 0.322266 1.25 0.703125 1.25L17.7832 1.25C18.1738 1.25 18.4863 1.57227 18.4863 1.95312Z" fill="white" fill-opacity="0.85"/>
  <path d="M9.24805 9.63867C10.6445 9.63867 11.8848 8.35938 11.8848 6.72852C11.8848 5.09766 10.6445 3.91602 9.24805 3.91602C7.85156 3.91602 6.61133 5.12695 6.61133 6.74805C6.61133 8.35938 7.85156 9.63867 9.24805 9.63867ZM5.33203 15.4297L13.1641 15.4297C14.2969 15.4297 14.6387 15.1074 14.6387 14.541C14.6387 12.8906 12.5781 10.6055 9.24805 10.6055C5.91797 10.6055 3.85742 12.8906 3.85742 14.541C3.85742 15.1074 4.19922 15.4297 5.33203 15.4297Z" fill="white" fill-opacity="0.85"/>
 </g>
</svg>
