<?xml version="1.0" encoding="UTF-8"?>
<!--Generator: Apple Native CoreSVG 326-->
<!DOCTYPE svg
PUBLIC "-//W3C//DTD SVG 1.1//EN"
       "http://www.w3.org/Graphics/SVG/1.1/DTD/svg11.dtd">
<svg version="1.1" xmlns="http://www.w3.org/2000/svg" xmlns:xlink="http://www.w3.org/1999/xlink" viewBox="0 0 16.1328 15.7715">
 <g>
  <rect height="15.7715" opacity="0" width="16.1328" x="0" y="0"/>
  <path d="M7.88086 15.7617C12.2363 15.7617 15.7715 12.2363 15.7715 7.88086C15.7715 3.52539 12.2363 0 7.88086 0C3.53516 0 0 3.52539 0 7.88086C0 12.2363 3.53516 15.7617 7.88086 15.7617ZM7.88086 14.2773C4.3457 14.2773 1.49414 11.416 1.49414 7.88086C1.49414 4.3457 4.3457 1.48438 7.88086 1.48438C11.416 1.48438 14.2773 4.3457 14.2773 7.88086C14.2773 11.416 11.416 14.2773 7.88086 14.2773Z" fill="white" fill-opacity="0.85"/>
  <path d="M4.41406 11.748L11.3379 11.748C11.6699 11.748 11.8359 11.5137 11.8359 11.2109C11.8359 10.3809 10.5664 8.24219 7.87109 8.24219C5.18555 8.24219 3.91602 10.3809 3.91602 11.2109C3.91602 11.5137 4.08203 11.748 4.41406 11.748ZM7.87109 7.61719C8.96484 7.62695 9.84375 6.68945 9.84375 5.45898C9.84375 4.30664 8.96484 3.34961 7.87109 3.34961C6.78711 3.34961 5.9082 4.30664 5.9082 5.45898C5.9082 6.68945 6.78711 7.60742 7.87109 7.61719Z" fill="white" fill-opacity="0.85"/>
 </g>
</svg>
