<?xml version="1.0" encoding="UTF-8"?>
<!--Generator: Apple Native CoreSVG 326-->
<!DOCTYPE svg
PUBLIC "-//W3C//DTD SVG 1.1//EN"
       "http://www.w3.org/Graphics/SVG/1.1/DTD/svg11.dtd">
<svg version="1.1" xmlns="http://www.w3.org/2000/svg" xmlns:xlink="http://www.w3.org/1999/xlink" viewBox="0 0 14.5898 14.248">
 <g>
  <rect height="14.248" opacity="0" width="14.5898" x="0" y="0"/>
  <path d="M14.2285 2.4707L14.2285 11.7871C14.2285 13.4277 13.4082 14.248 11.7383 14.248L2.49023 14.248C0.830078 14.248 0 13.4277 0 11.7871L0 2.4707C0 0.830078 0.830078 0.00976562 2.49023 0.00976562L11.7383 0.00976562C13.4082 0.00976562 14.2285 0.830078 14.2285 2.4707ZM5.53711 3.47656C5.20508 3.47656 5.00977 3.68164 5.00977 4.01367L5.00977 5.49805L4.50195 5.49805C4.33594 5.49805 4.19922 5.63477 4.19922 5.79102C4.19922 5.95703 4.33594 6.08398 4.50195 6.08398L5.00977 6.08398L5.00977 10.293C5.00977 10.6152 5.19531 10.8203 5.52734 10.8203C5.84961 10.8203 6.04492 10.6152 6.04492 10.293L6.04492 8.22266L7.48047 8.22266C8.80859 8.22266 9.75586 7.36328 9.86328 6.08398L10.2148 6.08398C10.3906 6.08398 10.5176 5.94727 10.5176 5.79102C10.5176 5.63477 10.3906 5.49805 10.2148 5.49805L9.85352 5.49805C9.70703 4.24805 8.76953 3.47656 7.5 3.47656ZM7.2168 7.37305L6.04492 7.37305L6.04492 6.08398L8.78906 6.08398C8.70117 6.92383 8.13477 7.37305 7.2168 7.37305ZM8.7793 5.49805L6.04492 5.49805L6.04492 4.33594L7.23633 4.33594C8.06641 4.33594 8.65234 4.7168 8.7793 5.49805Z" fill="white" fill-opacity="0.85"/>
 </g>
</svg>
