<?xml version="1.0" encoding="UTF-8"?>
<!--Generator: Apple Native CoreSVG 326-->
<!DOCTYPE svg
PUBLIC "-//W3C//DTD SVG 1.1//EN"
       "http://www.w3.org/Graphics/SVG/1.1/DTD/svg11.dtd">
<svg version="1.1" xmlns="http://www.w3.org/2000/svg" xmlns:xlink="http://www.w3.org/1999/xlink" viewBox="0 0 19.1159 15.7715">
 <g>
  <rect height="15.7715" opacity="0" width="19.1159" x="0" y="0"/>
  <path d="M9.37242 15.7617C13.7279 15.7617 17.263 12.2363 17.263 7.88086C17.263 3.52539 13.7279 0 9.37242 0C5.02672 0 1.49156 3.52539 1.49156 7.88086L2.9857 7.88086C2.9857 4.3457 5.83726 1.48438 9.37242 1.48438C12.9076 1.48438 15.7689 4.3457 15.7689 7.88086C15.7689 11.416 12.9076 14.2773 9.37242 14.2773C7.29234 14.2773 5.44664 13.2812 4.2943 11.7578C4.02086 11.3965 3.60094 11.2891 3.23961 11.5137C2.88805 11.7285 2.78062 12.2266 3.08336 12.6074C4.53844 14.5508 6.83336 15.7617 9.37242 15.7617ZM0.602889 6.35742C-0.0123451 6.35742-0.158829 6.77734 0.173202 7.24609L1.91148 9.7168C2.18492 10.0977 2.59508 10.0977 2.85875 9.7168L4.59703 7.23633C4.9193 6.77734 4.77281 6.35742 4.16734 6.35742Z" fill="white" fill-opacity="0.85"/>
  <path d="M7.83922 11.4355C8.15172 11.4355 8.34703 11.2402 8.34703 10.9277L8.34703 9.14062L9.72398 9.14062C11.14 9.14062 12.0287 8.08594 12.0287 6.74805C12.0287 5.45898 11.1986 4.36523 9.74351 4.36523L7.84898 4.36523C7.53648 4.36523 7.35094 4.56055 7.35094 4.87305L7.35094 10.9277C7.35094 11.2402 7.53648 11.4355 7.83922 11.4355ZM8.34703 8.32031L8.34703 5.18555L9.49937 5.18555C10.4466 5.18555 11.0228 5.74219 11.0228 6.74805C11.0228 7.71484 10.4662 8.32031 9.49937 8.32031ZM6.55992 6.14258C6.55992 6.30859 6.68687 6.41602 6.84312 6.41602L12.3607 6.41602C12.5267 6.41602 12.6439 6.29883 12.6439 6.14258C12.6439 5.98633 12.5267 5.86914 12.3607 5.86914L6.84312 5.86914C6.68687 5.86914 6.55992 5.98633 6.55992 6.14258ZM6.55992 7.37305C6.55992 7.5293 6.68687 7.64648 6.84312 7.64648L12.3607 7.64648C12.5267 7.64648 12.6439 7.51953 12.6439 7.37305C12.6439 7.2168 12.5267 7.08984 12.3607 7.08984L6.84312 7.08984C6.68687 7.08984 6.55992 7.2168 6.55992 7.37305Z" fill="white" fill-opacity="0.85"/>
 </g>
</svg>
