<?xml version="1.0" encoding="UTF-8"?>
<!--Generator: Apple Native CoreSVG 326-->
<!DOCTYPE svg
PUBLIC "-//W3C//DTD SVG 1.1//EN"
       "http://www.w3.org/Graphics/SVG/1.1/DTD/svg11.dtd">
<svg version="1.1" xmlns="http://www.w3.org/2000/svg" xmlns:xlink="http://www.w3.org/1999/xlink" viewBox="0 0 16.1328 15.7715">
 <g>
  <rect height="15.7715" opacity="0" width="16.1328" x="0" y="0"/>
  <path d="M7.88086 15.7617C12.2363 15.7617 15.7715 12.2363 15.7715 7.88086C15.7715 3.52539 12.2363 0 7.88086 0C3.53516 0 0 3.52539 0 7.88086C0 12.2363 3.53516 15.7617 7.88086 15.7617ZM7.88086 14.2773C4.3457 14.2773 1.49414 11.416 1.49414 7.88086C1.49414 4.3457 4.3457 1.48438 7.88086 1.48438C11.416 1.48438 14.2773 4.3457 14.2773 7.88086C14.2773 11.416 11.416 14.2773 7.88086 14.2773Z" fill="white" fill-opacity="0.85"/>
  <path d="M6.33789 11.4355C6.65039 11.4355 6.8457 11.2402 6.8457 10.9277L6.8457 9.14062L8.22266 9.14062C9.63867 9.14062 10.5371 8.08594 10.5371 6.74805C10.5371 5.45898 9.69727 4.36523 8.24219 4.36523L6.34766 4.36523C6.03516 4.36523 5.84961 4.56055 5.84961 4.87305L5.84961 10.9277C5.84961 11.2402 6.03516 11.4355 6.33789 11.4355ZM6.8457 8.32031L6.8457 5.18555L7.99805 5.18555C8.94531 5.18555 9.52148 5.74219 9.52148 6.74805C9.52148 7.71484 8.96484 8.32031 7.99805 8.32031ZM5.05859 6.14258C5.05859 6.30859 5.18555 6.41602 5.3418 6.41602L10.8594 6.41602C11.0254 6.41602 11.1523 6.29883 11.1523 6.14258C11.1523 5.98633 11.0254 5.86914 10.8594 5.86914L5.3418 5.86914C5.18555 5.86914 5.05859 5.98633 5.05859 6.14258ZM5.05859 7.37305C5.05859 7.5293 5.18555 7.64648 5.3418 7.64648L10.8594 7.64648C11.0254 7.64648 11.1523 7.51953 11.1523 7.37305C11.1523 7.2168 11.0254 7.08984 10.8594 7.08984L5.3418 7.08984C5.18555 7.08984 5.05859 7.2168 5.05859 7.37305Z" fill="white" fill-opacity="0.85"/>
 </g>
</svg>
