<?xml version="1.0" encoding="UTF-8"?>
<!--Generator: Apple Native CoreSVG 326-->
<!DOCTYPE svg
PUBLIC "-//W3C//DTD SVG 1.1//EN"
       "http://www.w3.org/Graphics/SVG/1.1/DTD/svg11.dtd">
<svg version="1.1" xmlns="http://www.w3.org/2000/svg" xmlns:xlink="http://www.w3.org/1999/xlink" viewBox="0 0 14.7656 14.4434">
 <g>
  <rect height="14.4434" opacity="0" width="14.7656" x="0" y="0"/>
  <path d="M3.95508 10.4199C6.23047 12.6953 8.94531 14.4336 11.1328 14.4336C12.168 14.4336 13.0664 14.0234 13.6523 13.3594C14.209 12.7246 14.4043 12.2559 14.4043 11.8359C14.4043 11.5137 14.1992 11.2207 13.7012 10.8594L11.8066 9.50195C11.3379 9.16992 11.123 9.11133 10.8496 9.11133C10.6152 9.11133 10.4102 9.15039 10.0098 9.375L8.76953 10.0586C8.62305 10.1367 8.55469 10.1562 8.44727 10.1562C8.30078 10.1562 8.20312 10.1172 8.05664 10.0586C7.4707 9.78516 6.64062 9.13086 5.9082 8.4082C5.17578 7.67578 4.59961 6.91406 4.31641 6.33789C4.27734 6.25977 4.22852 6.14258 4.22852 6.01562C4.22852 5.91797 4.28711 5.83008 4.3457 5.72266L5.06836 4.47266C5.26367 4.13086 5.32227 3.94531 5.32227 3.68164C5.32227 3.37891 5.22461 3.05664 4.93164 2.65625L3.64258 0.839844C3.27148 0.322266 2.98828 0 2.56836 0C2.05078 0 1.43555 0.400391 0.986328 0.830078C0.341797 1.45508 0 2.32422 0 3.29102C0 5.49805 1.68945 8.16406 3.95508 10.4199Z" fill="white" fill-opacity="0.85"/>
  <path d="M8.82812 6.69922C9.00391 6.69922 9.15039 6.64062 9.27734 6.51367L12.4219 3.35938L13.5938 2.07031L13.4473 4.28711L13.4473 5.25391C13.4473 5.5957 13.7012 5.85938 14.043 5.87891C14.3848 5.88867 14.6875 5.61523 14.6875 5.25391L14.6875 0.898438C14.6875 0.439453 14.4629 0.195312 14.0039 0.195312L9.63867 0.195312C9.28711 0.195312 9.00391 0.488281 9.02344 0.849609C9.0332 1.19141 9.29688 1.43555 9.63867 1.43555L10.6055 1.43555L12.832 1.28906L11.5332 2.46094L8.38867 5.61523C8.24219 5.76172 8.18359 5.9082 8.18359 6.09375C8.18359 6.43555 8.45703 6.69922 8.82812 6.69922Z" fill="white" fill-opacity="0.85"/>
 </g>
</svg>
