<?xml version="1.0" encoding="UTF-8"?>
<!--Generator: Apple Native CoreSVG 326-->
<!DOCTYPE svg
PUBLIC "-//W3C//DTD SVG 1.1//EN"
       "http://www.w3.org/Graphics/SVG/1.1/DTD/svg11.dtd">
<svg version="1.1" xmlns="http://www.w3.org/2000/svg" xmlns:xlink="http://www.w3.org/1999/xlink" viewBox="0 0 18.6328 7.54883">
 <g>
  <rect height="7.54883" opacity="0" width="18.6328" x="0" y="0"/>
  <path d="M9.14062 0C5.45898 0 2.71484 0.927734 1.2207 2.41211C0.478516 3.17383 0 4.15039 0 5.25391C0 6.34766 0.371094 7.50977 1.81641 7.5293C2.00195 7.53906 2.22656 7.5293 2.45117 7.49023L4.67773 7.07031C5.40039 6.93359 5.72266 6.60156 5.99609 5.83008L6.39648 4.6582C6.48438 4.4043 6.61133 4.29688 6.9043 4.22852C7.17773 4.16016 7.83203 4.10156 9.14062 4.10156C10.4395 4.10156 11.0938 4.16016 11.3672 4.22852C11.6602 4.29688 11.7871 4.4043 11.875 4.6582L12.2852 5.83008C12.5586 6.60156 12.8809 6.93359 13.6035 7.07031L15.8203 7.49023C16.0449 7.5293 16.2695 7.53906 16.4648 7.5293C17.9004 7.50977 18.2715 6.34766 18.2715 5.25391C18.2715 4.15039 17.8027 3.17383 17.0508 2.41211C15.5566 0.927734 12.8125 0 9.14062 0ZM9.14062 1.30859C12.1289 1.30859 14.8633 1.98242 16.1523 3.33008C16.6211 3.82812 16.9238 4.50195 16.9238 5.09766C16.9238 5.71289 16.7188 6.23047 16.25 6.25C16.2109 6.25977 16.1426 6.26953 16.084 6.25L14.0625 5.83984C13.8281 5.79102 13.6621 5.67383 13.5742 5.42969L13.125 4.16016C12.8711 3.4375 12.5684 3.1543 11.9336 3.04688C11.3086 2.93945 10.4395 2.86133 9.14062 2.86133C7.8418 2.86133 6.96289 2.93945 6.34766 3.04688C5.70312 3.1543 5.40039 3.4375 5.14648 4.16016L4.69727 5.42969C4.60938 5.67383 4.45312 5.79102 4.21875 5.83984L2.19727 6.25C2.12891 6.26953 2.07031 6.25977 2.02148 6.25C1.55273 6.23047 1.35742 5.71289 1.35742 5.09766C1.35742 4.50195 1.65039 3.82812 2.12891 3.33008C3.4082 1.98242 6.14258 1.30859 9.14062 1.30859Z" fill="white" fill-opacity="0.85"/>
 </g>
</svg>
