<?xml version="1.0" encoding="UTF-8"?>
<!--Generator: Apple Native CoreSVG 326-->
<!DOCTYPE svg
PUBLIC "-//W3C//DTD SVG 1.1//EN"
       "http://www.w3.org/Graphics/SVG/1.1/DTD/svg11.dtd">
<svg version="1.1" xmlns="http://www.w3.org/2000/svg" xmlns:xlink="http://www.w3.org/1999/xlink" viewBox="0 0 18.7793 19.5801">
 <g>
  <rect height="19.5801" opacity="0" width="18.7793" x="0" y="0"/>
  <path d="M14.031 2.26562L4.38693 2.26562C4.40825 1.55962 4.8348 1.16211 5.56641 1.16211L12.8516 1.16211C13.5832 1.16211 14.0097 1.55962 14.031 2.26562Z" fill="white" fill-opacity="0.85"/>
  <path d="M15.6315 4.56702C15.3557 4.51675 15.0597 4.49219 14.7461 4.49219L3.68164 4.49219C3.36425 4.49219 3.06488 4.51714 2.78635 4.56833C2.86989 3.72053 3.42283 3.25195 4.3457 3.25195L14.0723 3.25195C14.9947 3.25195 15.5475 3.72004 15.6315 4.56702Z" fill="white" fill-opacity="0.85"/>
  <path d="M3.78906 18.1836L14.6582 18.1836C16.1621 18.1836 16.9531 17.4219 16.9531 15.9277L16.9531 15.4395L13.0957 11.7773C12.793 11.4844 12.3926 11.3477 12.0117 11.3477C11.6113 11.3477 11.25 11.4746 10.918 11.7676L7.58789 14.7266L6.25 13.5352C5.9375 13.252 5.5957 13.1152 5.25391 13.1152C4.93164 13.1152 4.61914 13.2617 4.30664 13.5254L1.49414 15.9375C1.49414 17.4219 2.28516 18.1836 3.78906 18.1836ZM3.68164 18.3887L14.7461 18.3887C16.4062 18.3887 17.2363 17.5781 17.2363 15.9375L17.2363 8.125C17.2363 6.49414 16.4062 5.67383 14.7461 5.67383L3.68164 5.67383C2.01172 5.67383 1.19141 6.48438 1.19141 8.125L1.19141 15.9375C1.19141 17.5781 2.01172 18.3887 3.68164 18.3887ZM3.70117 16.9824C2.99805 16.9824 2.59766 16.6016 2.59766 15.8594L2.59766 8.20312C2.59766 7.46094 2.99805 7.08008 3.70117 7.08008L14.7266 7.08008C15.4297 7.08008 15.8301 7.46094 15.8301 8.20312L15.8301 15.8594C15.8301 16.6016 15.4297 16.9824 14.7266 16.9824Z" fill="white" fill-opacity="0.85"/>
  <path d="M6.95312 11.9824C7.91992 11.9824 8.70117 11.1816 8.70117 10.2148C8.70117 9.26758 7.91992 8.47656 6.95312 8.47656C5.98633 8.47656 5.20508 9.26758 5.20508 10.2148C5.20508 11.1816 5.98633 11.9824 6.95312 11.9824Z" fill="white" fill-opacity="0.85"/>
 </g>
</svg>
