<svg version="1.1" xmlns="http://www.w3.org/2000/svg" xmlns:xlink="http://www.w3.org/1999/xlink" viewBox="0 0 21.6406 18.0371">
 <g>
  <rect height="18.0371" opacity="0" width="21.6406" x="0" y="0"/>
  <path d="M15.9375 2.65625L16.1167 3.66211L7.66602 3.66211C5.36133 3.66211 4.0332 4.98047 4.0332 7.25586L4.0332 14.4216C2.96069 14.3403 2.3232 13.6647 2.09961 12.3926L0.849609 5.3125C0.566406 3.70117 1.24023 2.75391 2.87109 2.4707L13.0664 0.673828C14.707 0.380859 15.6641 1.04492 15.9375 2.65625Z" fill="var(--color-primary)"/>
  <path d="M10.1855 11.0156C9.29688 11.0156 8.56445 10.2832 8.56445 9.39453C8.56445 8.50586 9.29688 7.76367 10.1855 7.76367C11.084 7.76367 11.8164 8.50586 11.8164 9.39453C11.8164 10.2832 11.084 11.0156 10.1855 11.0156ZM7.31445 15.6836C6.73828 15.6836 6.34766 15.2832 6.34766 14.707L6.34766 14.2969L8.22266 12.627C8.51562 12.373 8.81836 12.2461 9.11133 12.2461C9.43359 12.2461 9.76562 12.373 10.0391 12.627L11.2988 13.7598L14.3945 10.9961C14.707 10.7129 15.0488 10.5957 15.4199 10.5957C15.7812 10.5957 16.1426 10.7227 16.4355 11.0059L19.3359 13.7207L19.3359 14.7168C19.3359 15.293 18.9355 15.6836 18.3789 15.6836ZM7.66602 16.8945L18.0078 16.8945C19.668 16.8945 20.498 16.0742 20.498 14.4434L20.498 7.25586C20.498 5.61523 19.668 4.80469 18.0078 4.80469L7.66602 4.80469C5.99609 4.80469 5.17578 5.61523 5.17578 7.25586L5.17578 14.4434C5.17578 16.084 5.99609 16.8945 7.66602 16.8945Z" fill="var(--color-primary)"/>
 </g>
</svg>
