<?xml version="1.0" encoding="UTF-8"?>
<!--Generator: Apple Native CoreSVG 326-->
<!DOCTYPE svg
PUBLIC "-//W3C//DTD SVG 1.1//EN"
       "http://www.w3.org/Graphics/SVG/1.1/DTD/svg11.dtd">
<svg version="1.1" xmlns="http://www.w3.org/2000/svg" xmlns:xlink="http://www.w3.org/1999/xlink" viewBox="0 0 16.1328 15.7715">
 <g>
  <rect height="15.7715" opacity="0" width="16.1328" x="0" y="0"/>
  <path d="M15.7715 7.88086C15.7715 12.2266 12.2363 15.7617 7.88086 15.7617C3.53516 15.7617 0 12.2266 0 7.88086C0 3.53516 3.53516 0 7.88086 0C12.2363 0 15.7715 3.53516 15.7715 7.88086ZM3.58398 4.16016C3.35938 4.16016 3.21289 4.32617 3.21289 4.56055L3.21289 11.2207C3.21289 11.4551 3.35938 11.6211 3.58398 11.6211L12.1875 11.6211C12.4121 11.6211 12.5586 11.4551 12.5586 11.2207L12.5586 4.56055C12.5586 4.32617 12.4121 4.16016 12.1875 4.16016ZM11.8652 4.95117L11.8652 10.8301C11.8652 10.8984 11.8652 10.8984 11.7871 10.8984L3.98438 10.8984C3.90625 10.8984 3.90625 10.8984 3.90625 10.8301L3.90625 4.95117C3.90625 4.88281 3.90625 4.88281 3.98438 4.88281L11.7871 4.88281C11.8652 4.88281 11.8652 4.88281 11.8652 4.95117ZM4.7168 5.38086C4.52148 5.38086 4.4043 5.48828 4.4043 5.67383L4.4043 10.1074C4.4043 10.2832 4.52148 10.4004 4.7168 10.4004L11.0547 10.4004C11.25 10.4004 11.3672 10.2832 11.3672 10.1074L11.3672 5.67383C11.3672 5.48828 11.25 5.38086 11.0547 5.38086ZM10.8301 5.95703L10.8301 9.20898L9.29688 7.76367C9.16992 7.64648 8.99414 7.58789 8.84766 7.58789C8.66211 7.58789 8.50586 7.62695 8.36914 7.75391L7.08984 8.90625L6.5918 8.45703C6.45508 8.34961 6.29883 8.29102 6.15234 8.29102C6.02539 8.29102 5.87891 8.34961 5.75195 8.44727L4.94141 9.18945L4.94141 5.95703C4.94141 5.9082 4.95117 5.9082 4.98047 5.9082L10.791 5.9082C10.8301 5.9082 10.8301 5.9082 10.8301 5.95703ZM5.85938 7.1875C5.85938 7.58789 6.19141 7.92969 6.60156 7.92969C7.01172 7.92969 7.34375 7.58789 7.34375 7.1875C7.34375 6.77734 7.01172 6.44531 6.60156 6.44531C6.19141 6.44531 5.85938 6.77734 5.85938 7.1875Z" fill="white" fill-opacity="0.85"/>
 </g>
</svg>
