<?xml version="1.0" encoding="UTF-8"?>
<!--Generator: Apple Native CoreSVG 326-->
<!DOCTYPE svg
PUBLIC "-//W3C//DTD SVG 1.1//EN"
       "http://www.w3.org/Graphics/SVG/1.1/DTD/svg11.dtd">
<svg version="1.1" xmlns="http://www.w3.org/2000/svg" xmlns:xlink="http://www.w3.org/1999/xlink" viewBox="0 0 18.7793 19.5801">
 <g>
  <rect height="19.5801" opacity="0" width="18.7793" x="0" y="0"/>
  <path d="M14.031 2.26562L4.38693 2.26562C4.40825 1.55962 4.8348 1.16211 5.56641 1.16211L12.8516 1.16211C13.5832 1.16211 14.0097 1.55962 14.031 2.26562Z" fill="white" fill-opacity="0.85"/>
  <path d="M15.6315 4.56702C15.3557 4.51675 15.0597 4.49219 14.7461 4.49219L3.68164 4.49219C3.36425 4.49219 3.06488 4.51714 2.78635 4.56833C2.86989 3.72053 3.42283 3.25195 4.3457 3.25195L14.0723 3.25195C14.9947 3.25195 15.5475 3.72004 15.6315 4.56702Z" fill="white" fill-opacity="0.85"/>
  <path d="M17.2363 8.125L17.2363 15.9375C17.2363 17.5781 16.4062 18.3887 14.7461 18.3887L3.68164 18.3887C2.01172 18.3887 1.19141 17.5781 1.19141 15.9375L1.19141 8.125C1.19141 6.48438 2.01172 5.67383 3.68164 5.67383L14.7461 5.67383C16.4062 5.67383 17.2363 6.49414 17.2363 8.125ZM10.7324 11.7773L7.54883 14.5898L6.26953 13.457C5.97656 13.1934 5.6543 13.0566 5.32227 13.0566C5.01953 13.0566 4.72656 13.1934 4.42383 13.4473L2.7832 14.8535L2.7832 15.7422C2.7832 16.4453 3.16406 16.8066 3.82812 16.8066L14.5996 16.8066C15.2637 16.8066 15.6445 16.4453 15.6445 15.7422L15.6445 14.4629L12.8223 11.7871C12.5293 11.5039 12.1484 11.377 11.7773 11.377C11.4062 11.377 11.0547 11.4941 10.7324 11.7773ZM5.26367 10.2148C5.26367 11.1426 6.00586 11.9043 6.93359 11.9043C7.86133 11.9043 8.60352 11.1426 8.60352 10.2148C8.60352 9.31641 7.86133 8.56445 6.93359 8.56445C6.00586 8.56445 5.26367 9.31641 5.26367 10.2148Z" fill="white" fill-opacity="0.85"/>
 </g>
</svg>
