<?xml version="1.0" encoding="UTF-8"?>
<!--Generator: Apple Native CoreSVG 326-->
<!DOCTYPE svg
PUBLIC "-//W3C//DTD SVG 1.1//EN"
       "http://www.w3.org/Graphics/SVG/1.1/DTD/svg11.dtd">
<svg version="1.1" xmlns="http://www.w3.org/2000/svg" xmlns:xlink="http://www.w3.org/1999/xlink" viewBox="0 0 18.4766 14.248">
 <g>
  <rect height="14.248" opacity="0" width="18.4766" x="0" y="0"/>
  <path d="M0.664062 0.00976562C0.263672 0.00976562 0 0.283203 0 0.673828L0 13.5742C0 13.9746 0.263672 14.248 0.664062 14.248L17.4512 14.248C17.8516 14.248 18.1152 13.9746 18.1152 13.5742L18.1152 0.673828C18.1152 0.283203 17.8516 0.00976562 17.4512 0.00976562ZM1.65039 1.42578L16.4746 1.42578C16.6504 1.42578 16.709 1.48438 16.709 1.66016L16.709 12.5977C16.709 12.7734 16.6504 12.832 16.4746 12.832L1.65039 12.832C1.46484 12.832 1.40625 12.7734 1.40625 12.5977L1.40625 1.66016C1.40625 1.48438 1.46484 1.42578 1.65039 1.42578Z" fill="white" fill-opacity="0.85"/>
  <path d="M2.69531 2.2168C2.38281 2.2168 2.19727 2.39258 2.19727 2.69531L2.19727 11.5625C2.19727 11.8652 2.38281 12.041 2.69531 12.041L15.4297 12.041C15.7422 12.041 15.918 11.8652 15.918 11.5625L15.918 2.69531C15.918 2.39258 15.7422 2.2168 15.4297 2.2168ZM3.24219 3.06641L14.873 3.06641C15 3.06641 15.0684 3.13477 15.0684 3.25195L15.0684 10.9961C15.0684 11.123 15 11.1914 14.873 11.1914L3.24219 11.1914C3.11523 11.1914 3.05664 11.123 3.05664 10.9961L3.05664 3.25195C3.05664 3.13477 3.11523 3.06641 3.24219 3.06641ZM15.2539 10.1953L11.8359 6.96289C11.5723 6.72852 11.2695 6.62109 10.9668 6.62109C10.6445 6.62109 10.3516 6.70898 10.0879 6.95312L7.46094 9.30664L6.39648 8.34961C6.15234 8.125 5.86914 8.02734 5.60547 8.02734C5.35156 8.02734 5.09766 8.125 4.85352 8.33984L2.60742 10.3516L2.60742 10.8984C2.60742 11.4453 2.91992 11.6602 3.36914 11.6602L14.4922 11.6602C14.9414 11.6602 15.2539 11.4453 15.2539 10.8984Z" fill="white" fill-opacity="0.85"/>
  <path d="M6.49414 7.09961C7.25586 7.09961 7.87109 6.47461 7.87109 5.71289C7.87109 4.96094 7.25586 4.33594 6.49414 4.33594C5.74219 4.33594 5.11719 4.96094 5.11719 5.71289C5.11719 6.47461 5.74219 7.09961 6.49414 7.09961Z" fill="white" fill-opacity="0.85"/>
 </g>
</svg>
