<?xml version="1.0" encoding="UTF-8"?>
<!--Generator: Apple Native CoreSVG 326-->
<!DOCTYPE svg
PUBLIC "-//W3C//DTD SVG 1.1//EN"
       "http://www.w3.org/Graphics/SVG/1.1/DTD/svg11.dtd">
<svg version="1.1" xmlns="http://www.w3.org/2000/svg" xmlns:xlink="http://www.w3.org/1999/xlink" viewBox="0 0 12.5391 18.4473">
 <g>
  <rect height="18.4473" opacity="0" width="12.5391" x="0" y="0"/>
  <path d="M6.08398 18.4473C6.29883 18.4473 6.8457 17.373 6.8457 16.0742L6.8457 12.0703L5.33203 12.0703L5.33203 16.0742C5.33203 17.373 5.87891 18.4473 6.08398 18.4473ZM1.20117 12.793L10.9668 12.793C11.709 12.793 12.1777 12.3242 12.1777 11.6211C12.1777 9.35547 9.59961 7.02148 6.08398 7.02148C2.57812 7.02148 0 9.35547 0 11.6211C0 12.3242 0.46875 12.793 1.20117 12.793ZM1.57227 11.4746C1.40625 11.4746 1.33789 11.3867 1.37695 11.1719C1.57227 9.93164 3.24219 8.29102 6.08398 8.29102C8.93555 8.29102 10.5957 9.93164 10.8008 11.1719C10.8398 11.3867 10.7617 11.4746 10.5957 11.4746ZM0.908203 1.2793C0.908203 1.5332 1.00586 1.80664 1.2207 2.08008C1.61133 2.58789 2.5293 3.31055 3.55469 3.98438L3.27148 8.05664L4.66797 8.05664L4.95117 3.32031C4.96094 3.20312 4.94141 3.16406 4.86328 3.125C3.66211 2.5293 2.8418 1.9043 2.77344 1.79688C2.69531 1.69922 2.76367 1.63086 2.8418 1.63086L9.33594 1.63086C9.4043 1.63086 9.47266 1.69922 9.4043 1.79688C9.32617 1.9043 8.51562 2.5293 7.30469 3.125C7.23633 3.16406 7.2168 3.20312 7.22656 3.32031L7.50977 8.05664L8.90625 8.05664L8.61328 3.98438C9.63867 3.31055 10.5566 2.58789 10.9473 2.08008C11.1719 1.80664 11.2695 1.5332 11.2695 1.2793C11.2695 0.78125 10.8789 0.410156 10.3125 0.410156L1.86523 0.410156C1.28906 0.410156 0.908203 0.78125 0.908203 1.2793Z" fill="white" fill-opacity="0.85"/>
 </g>
</svg>
