<?xml version="1.0" encoding="UTF-8"?>
<!--Generator: Apple Native CoreSVG 326-->
<!DOCTYPE svg
PUBLIC "-//W3C//DTD SVG 1.1//EN"
       "http://www.w3.org/Graphics/SVG/1.1/DTD/svg11.dtd">
<svg version="1.1" xmlns="http://www.w3.org/2000/svg" xmlns:xlink="http://www.w3.org/1999/xlink" viewBox="0 0 13.3691 16.4746">
 <g>
  <rect height="16.4746" opacity="0" width="13.3691" x="0" y="0"/>
  <path d="M13.0078 2.49023L13.0078 13.9746C13.0078 15.6445 12.1875 16.4648 10.5469 16.4648L2.45117 16.4648C0.810547 16.4648 0 15.6445 0 13.9746L0 2.49023C0 0.830078 0.810547 0 2.45117 0L10.5469 0C12.1875 0 13.0078 0.830078 13.0078 2.49023ZM5.74219 5.19531L5.74219 7.4707L3.45703 7.4707C2.99805 7.4707 2.68555 7.7832 2.68555 8.24219C2.68555 8.69141 2.99805 8.99414 3.45703 8.99414L5.74219 8.99414L5.74219 11.2891C5.74219 11.7383 6.04492 12.0508 6.49414 12.0508C6.95312 12.0508 7.26562 11.7383 7.26562 11.2891L7.26562 8.99414L9.55078 8.99414C10 8.99414 10.3223 8.69141 10.3223 8.24219C10.3223 7.7832 10 7.4707 9.55078 7.4707L7.26562 7.4707L7.26562 5.19531C7.26562 4.72656 6.95312 4.41406 6.49414 4.41406C6.04492 4.41406 5.74219 4.73633 5.74219 5.19531Z" fill="white" fill-opacity="0.85"/>
 </g>
</svg>
