<?xml version="1.0" encoding="UTF-8"?>
<!--Generator: Apple Native CoreSVG 326-->
<!DOCTYPE svg
PUBLIC "-//W3C//DTD SVG 1.1//EN"
       "http://www.w3.org/Graphics/SVG/1.1/DTD/svg11.dtd">
<svg version="1.1" xmlns="http://www.w3.org/2000/svg" xmlns:xlink="http://www.w3.org/1999/xlink" viewBox="0 0 16.1328 15.7715">
 <g>
  <rect height="15.7715" opacity="0" width="16.1328" x="0" y="0"/>
  <path d="M15.7715 7.89062C15.7715 12.2363 12.2363 15.7715 7.88086 15.7715C3.53516 15.7715 0 12.2363 0 7.89062C0 3.54492 3.53516 0.00976562 7.88086 0.00976562C12.2363 0.00976562 15.7715 3.54492 15.7715 7.89062ZM4.6582 7.56836L5.40039 11.4355C5.51758 12.0215 5.79102 12.3633 6.36719 12.3633L6.82617 12.3633L6.36719 7.2168C6.32812 6.71875 5.91797 6.46484 5.51758 6.46484C5.01953 6.46484 4.52148 6.83594 4.6582 7.56836ZM6.94336 7.27539L7.40234 12.3633L8.33984 12.3633L8.79883 7.27539C8.85742 6.5625 8.27148 6.31836 7.87109 6.31836C7.4707 6.31836 6.88477 6.5625 6.94336 7.27539ZM9.38477 7.2168L8.91602 12.3633L9.375 12.3633C9.96094 12.3633 10.2246 12.0215 10.3418 11.4355L11.084 7.56836C11.2207 6.83594 10.7227 6.46484 10.2344 6.46484C9.82422 6.46484 9.42383 6.71875 9.38477 7.2168ZM6.2207 3.92578C5.95703 3.91602 5.74219 4.18945 5.74219 4.4043C5.12695 4.39453 4.62891 4.86328 4.62891 5.48828C4.62891 5.67383 4.66797 5.84961 4.77539 6.04492C4.99023 5.9375 5.24414 5.86914 5.51758 5.86914C5.92773 5.86914 6.33789 6.03516 6.60156 6.32812C6.88477 5.9375 7.38281 5.72266 7.87109 5.72266C8.35938 5.72266 8.85742 5.9375 9.14062 6.32812C9.4043 6.03516 9.81445 5.86914 10.2344 5.86914C10.4785 5.86914 10.7129 5.92773 10.9277 6.02539C11.0547 5.83984 11.123 5.61523 11.123 5.39062C11.123 4.69727 10.7031 4.22852 10.0879 4.21875C9.90234 3.83789 9.60938 3.58398 9.18945 3.58398C8.91602 3.58398 8.67188 3.68164 8.47656 3.84766C8.39844 3.81836 8.28125 3.80859 8.19336 3.83789C8.01758 3.45703 7.64648 3.23242 7.22656 3.23242C6.65039 3.23242 6.29883 3.58398 6.2207 3.92578Z" fill="white" fill-opacity="0.85"/>
 </g>
</svg>
