<svg version="1.1" xmlns="http://www.w3.org/2000/svg" xmlns:xlink="http://www.w3.org/1999/xlink" viewBox="0 0 15.0488 14.248">
 <g>
  <rect height="14.248" opacity="0" width="15.0488" x="0" y="0"/>
  <path d="M2.49023 14.248L12.1973 14.248C13.8672 14.248 14.6875 13.4277 14.6875 11.7871L14.6875 2.4707C14.6875 0.830078 13.8672 0.00976562 12.1973 0.00976562L2.49023 0.00976562C0.830078 0.00976562 0 0.830078 0 2.4707L0 11.7871C0 13.4277 0.830078 14.248 2.49023 14.248ZM2.50977 12.832C1.80664 12.832 1.40625 12.4609 1.40625 11.7188L1.40625 2.53906C1.40625 1.80664 1.80664 1.42578 2.50977 1.42578L12.1777 1.42578C12.8809 1.42578 13.2812 1.80664 13.2812 2.53906L13.2812 11.7188C13.2812 12.4609 12.8809 12.832 12.1777 12.832Z" fill="var(--color-primary)"/>
  <path d="M4.73633 10.3223C5.39062 10.3223 5.91797 9.78516 5.91797 9.13086C5.91797 8.48633 5.39062 7.94922 4.73633 7.94922C4.08203 7.94922 3.55469 8.48633 3.55469 9.13086C3.55469 9.78516 4.08203 10.3223 4.73633 10.3223ZM9.95117 10.3223C10.6055 10.3223 11.1328 9.78516 11.1328 9.13086C11.1328 8.48633 10.6055 7.94922 9.95117 7.94922C9.29688 7.94922 8.76953 8.48633 8.76953 9.13086C8.76953 9.78516 9.29688 10.3223 9.95117 10.3223ZM7.34375 6.29883C7.98828 6.29883 8.52539 5.76172 8.52539 5.10742C8.52539 4.46289 7.98828 3.92578 7.34375 3.92578C6.68945 3.92578 6.15234 4.46289 6.15234 5.10742C6.15234 5.76172 6.68945 6.29883 7.34375 6.29883Z" fill="var(--color-primary)"/>
 </g>
</svg>
