<?xml version="1.0" encoding="UTF-8"?>
<!--Generator: Apple Native CoreSVG 326-->
<!DOCTYPE svg
PUBLIC "-//W3C//DTD SVG 1.1//EN"
       "http://www.w3.org/Graphics/SVG/1.1/DTD/svg11.dtd">
<svg version="1.1" xmlns="http://www.w3.org/2000/svg" xmlns:xlink="http://www.w3.org/1999/xlink" viewBox="0 0 14.5898 14.248">
 <g>
  <rect height="14.248" opacity="0" width="14.5898" x="0" y="0"/>
  <path d="M2.49023 14.248L11.7383 14.248C13.4082 14.248 14.2285 13.4277 14.2285 11.7871L14.2285 2.4707C14.2285 0.830078 13.4082 0.00976562 11.7383 0.00976562L2.49023 0.00976562C0.830078 0.00976562 0 0.830078 0 2.4707L0 11.7871C0 13.4277 0.830078 14.248 2.49023 14.248ZM2.50977 12.832C1.80664 12.832 1.40625 12.4512 1.40625 11.7188L1.40625 2.53906C1.40625 1.79688 1.80664 1.42578 2.50977 1.42578L11.7188 1.42578C12.4219 1.42578 12.8223 1.79688 12.8223 2.53906L12.8223 11.7188C12.8223 12.4512 12.4219 12.832 11.7188 12.832Z" fill="white" fill-opacity="0.85"/>
  <path d="M5.76172 11.6406L8.4668 11.6406C8.90625 11.6406 9.22852 11.3184 9.22852 10.8887L9.22852 3.34961C9.22852 2.91992 8.90625 2.60742 8.4668 2.60742L5.76172 2.60742C5.32227 2.60742 5 2.91992 5 3.34961L5 10.8887C5 11.3184 5.32227 11.6406 5.76172 11.6406ZM7.11914 5.38086C6.67969 5.38086 6.31836 5.03906 6.31836 4.58984C6.31836 4.15039 6.67969 3.80859 7.11914 3.80859C7.54883 3.80859 7.91016 4.15039 7.91016 4.58984C7.91016 5.03906 7.54883 5.38086 7.11914 5.38086ZM7.11914 7.91016C6.67969 7.91016 6.31836 7.55859 6.31836 7.11914C6.31836 6.67969 6.67969 6.32812 7.11914 6.32812C7.54883 6.32812 7.91016 6.67969 7.91016 7.11914C7.91016 7.55859 7.54883 7.91016 7.11914 7.91016ZM7.11914 10.4297C6.67969 10.4297 6.31836 10.0879 6.31836 9.64844C6.31836 9.19922 6.67969 8.85742 7.11914 8.85742C7.54883 8.85742 7.91016 9.19922 7.91016 9.64844C7.91016 10.0879 7.54883 10.4297 7.11914 10.4297Z" fill="white" fill-opacity="0.85"/>
 </g>
</svg>
