<svg version="1.1" xmlns="http://www.w3.org/2000/svg" xmlns:xlink="http://www.w3.org/1999/xlink" viewBox="0 0 14.5898 14.248">
 <g>
  <rect height="14.248" opacity="0" width="14.5898" x="0" y="0"/>
  <path d="M14.2285 2.4707L14.2285 11.7871C14.2285 13.4277 13.4082 14.248 11.7383 14.248L2.49023 14.248C0.830078 14.248 0 13.4277 0 11.7871L0 2.4707C0 0.830078 0.830078 0.00976562 2.49023 0.00976562L11.7383 0.00976562C13.4082 0.00976562 14.2285 0.830078 14.2285 2.4707ZM2.91016 7.11914C2.91016 9.45312 4.78516 11.3281 7.11914 11.3281C9.44336 11.3281 11.3281 9.45312 11.3281 7.11914C11.3281 4.78516 9.44336 2.91016 7.11914 2.91016C4.78516 2.91016 2.91016 4.78516 2.91016 7.11914ZM7.94922 9.16992L7.94922 9.52148C7.94922 10 7.58789 10.3516 7.11914 10.3516C6.63086 10.3516 6.2793 10 6.2793 9.52148L6.2793 9.16992C6.2793 9.01367 6.35742 8.91602 6.54297 8.91602L7.69531 8.91602C7.87109 8.91602 7.94922 9.01367 7.94922 9.16992ZM6.08398 7.11914C6.08398 7.64648 5.6543 8.08594 5.12695 8.08594C4.58984 8.08594 4.16016 7.64648 4.16016 7.11914C4.16016 6.5918 4.58984 6.15234 5.12695 6.15234C5.6543 6.15234 6.08398 6.5918 6.08398 7.11914ZM10.0684 7.11914C10.0684 7.64648 9.63867 8.08594 9.11133 8.08594C8.57422 8.08594 8.14453 7.64648 8.14453 7.11914C8.14453 6.5918 8.57422 6.15234 9.11133 6.15234C9.63867 6.15234 10.0684 6.5918 10.0684 7.11914Z" fill="var(--color-primary)"/>
 </g>
</svg>
