<?xml version="1.0" encoding="UTF-8"?>
<!--Generator: Apple Native CoreSVG 326-->
<!DOCTYPE svg
PUBLIC "-//W3C//DTD SVG 1.1//EN"
       "http://www.w3.org/Graphics/SVG/1.1/DTD/svg11.dtd">
<svg version="1.1" xmlns="http://www.w3.org/2000/svg" xmlns:xlink="http://www.w3.org/1999/xlink" viewBox="0 0 21.8359 14.7559">
 <g>
  <rect height="14.7559" opacity="0" width="21.8359" x="0" y="0"/>
  <path d="M3.87695 10.4785C4.49219 10.4785 4.77539 10.0586 4.77539 9.49219C4.77539 9.44336 4.77539 9.4043 4.77539 9.35547C4.79492 8.38867 5.15625 7.99805 6.34766 7.19727C7.61719 6.34766 8.50586 5.29297 8.50586 3.7793C8.50586 1.40625 6.58203 0.126953 4.20898 0.126953C2.49023 0.126953 0.947266 0.878906 0.244141 2.35352C0.078125 2.70508 0 3.08594 0 3.4082C0 3.90625 0.292969 4.25781 0.830078 4.25781C1.26953 4.25781 1.58203 3.99414 1.70898 3.57422C2.14844 2.1875 3.02734 1.77734 4.15039 1.77734C5.56641 1.77734 6.66992 2.5293 6.66992 3.76953C6.66992 4.87305 5.9668 5.41992 5.07812 6.03516C3.92578 6.82617 2.94922 7.75391 2.94922 9.12109C2.94922 9.25781 2.94922 9.38477 2.94922 9.51172C2.94922 10.0879 3.26172 10.4785 3.87695 10.4785ZM3.86719 14.7559C4.55078 14.7559 5.08789 14.1992 5.08789 13.5352C5.08789 12.8516 4.55078 12.3145 3.86719 12.3145C3.20312 12.3145 2.65625 12.8516 2.65625 13.5352C2.65625 14.1992 3.20312 14.7559 3.86719 14.7559Z" fill="white" fill-opacity="0.85"/>
  <path d="M21.4746 7.37305C21.4746 5.53711 20 4.0625 18.1738 4.0625C16.8066 4.0625 15.6055 4.86328 15.0977 6.11328L10.2344 6.11328C10.0879 6.11328 9.96094 6.16211 9.84375 6.2793L8.99414 7.11914C8.87695 7.23633 8.85742 7.48047 8.99414 7.62695L10.5762 9.21875C10.7324 9.375 10.957 9.36523 11.1035 9.21875L11.9922 8.31055L13.2617 9.58984C13.4082 9.72656 13.623 9.72656 13.7793 9.58008L15.0098 8.36914C15.6445 9.84375 16.7969 10.6836 18.1738 10.6836C19.9902 10.6836 21.4746 9.19922 21.4746 7.37305ZM18.584 7.55859C18.584 7.06055 18.9844 6.66016 19.4824 6.66016C19.9902 6.66016 20.3906 7.05078 20.3906 7.55859C20.3906 8.04688 19.9805 8.45703 19.4824 8.45703C18.9844 8.45703 18.584 8.04688 18.584 7.55859Z" fill="white" fill-opacity="0.85"/>
 </g>
</svg>
