<?xml version="1.0" encoding="UTF-8"?>
<!--Generator: Apple Native CoreSVG 326-->
<!DOCTYPE svg
PUBLIC "-//W3C//DTD SVG 1.1//EN"
       "http://www.w3.org/Graphics/SVG/1.1/DTD/svg11.dtd">
<svg version="1.1" xmlns="http://www.w3.org/2000/svg" xmlns:xlink="http://www.w3.org/1999/xlink" viewBox="0 0 18.2715 13.5645">
 <g>
  <rect height="13.5645" opacity="0" width="18.2715" x="0" y="0"/>
  <path d="M17.9102 2.41211L17.9102 7.1875C17.9102 11.4844 15.8301 13.5547 11.2988 13.5547L6.61133 13.5547C2.08008 13.5547 0 11.4844 0 7.1875L0 2.41211C0 0.810547 0.820312 0 2.45117 0L15.459 0C17.0801 0 17.9102 0.810547 17.9102 2.41211ZM7.13867 3.30078C6.65039 3.30078 6.39648 3.66211 6.39648 4.16016L6.39648 9.29688C6.39648 9.78516 6.65039 10.1172 7.13867 10.1172C7.62695 10.1172 7.92969 9.79492 7.92969 9.29688L7.92969 7.79297L8.95508 7.79297L10.0586 9.64844C10.2637 9.98047 10.498 10.1172 10.8105 10.1172C11.2305 10.1172 11.543 9.83398 11.543 9.45312C11.543 9.26758 11.4844 9.0918 11.3672 8.93555L10.4492 7.54883C11.2207 7.20703 11.748 6.42578 11.748 5.56641C11.748 4.19922 10.7422 3.30078 9.17969 3.30078ZM10.2344 5.5957C10.2344 6.30859 9.78516 6.63086 8.98438 6.63086L7.92969 6.63086L7.92969 4.51172L9.01367 4.51172C9.75586 4.51172 10.2344 4.89258 10.2344 5.5957Z" fill="white" fill-opacity="0.85"/>
 </g>
</svg>
