<?xml version="1.0" encoding="UTF-8"?>
<!--Generator: Apple Native CoreSVG 326-->
<!DOCTYPE svg
PUBLIC "-//W3C//DTD SVG 1.1//EN"
       "http://www.w3.org/Graphics/SVG/1.1/DTD/svg11.dtd">
<svg version="1.1" xmlns="http://www.w3.org/2000/svg" xmlns:xlink="http://www.w3.org/1999/xlink" viewBox="0 0 18.2031 20.3027">
 <g>
  <rect height="20.3027" opacity="0" width="18.2031" x="0" y="0"/>
  <path d="M11.9043 15.3613C11.9043 16.8848 10.791 17.7832 8.91602 17.7832C7.05078 17.7832 5.9375 16.8848 5.9375 15.3613L5.9375 15.0928C6.84963 15.2896 7.84947 15.3906 8.91602 15.3906C9.9865 15.3906 10.9896 15.2892 11.9043 15.0916Z" fill="white" fill-opacity="0.85"/>
  <path d="M8.91602 14.4336C13.7109 14.4336 16.8848 12.3242 16.8848 9.18945C16.8848 6.04492 13.7012 3.93555 8.90625 3.93555C4.13086 3.93555 0.957031 6.04492 0.957031 9.18945C0.957031 12.3242 4.13086 14.4336 8.91602 14.4336ZM8.91602 12.9199C5.09766 12.9199 2.54883 11.416 2.54883 9.18945C2.54883 6.95312 5.09766 5.44922 8.90625 5.44922C12.7344 5.44922 15.293 6.95312 15.293 9.18945C15.293 11.416 12.7441 12.9199 8.91602 12.9199Z" fill="white" fill-opacity="0.85"/>
  <path d="M7.60742 11.5527C7.27539 11.5527 7.07031 11.3184 7.07031 10.9473L7.07031 7.35352C7.07031 6.98242 7.27539 6.73828 7.60742 6.73828L9.04297 6.73828C10.1367 6.73828 10.8398 7.36328 10.8398 8.33984C10.8398 8.95508 10.498 9.48242 9.95117 9.72656L10.5957 10.7227C10.6738 10.8398 10.7129 10.9473 10.7129 11.0938C10.7129 11.377 10.4785 11.5723 10.2051 11.5723C9.98047 11.5723 9.83398 11.4746 9.6875 11.2305L8.86719 9.91211L8.1543 9.91211L8.1543 10.9473C8.1543 11.3184 7.93945 11.5527 7.60742 11.5527ZM8.1543 9.08203L8.89648 9.08203C9.46289 9.08203 9.75586 8.82812 9.75586 8.35938C9.75586 7.89062 9.45312 7.61719 8.91602 7.61719L8.1543 7.61719Z" fill="white" fill-opacity="0.85"/>
  <path d="M6.91406 1.01562L8.48633 3.14453C8.71094 3.4375 9.12109 3.4375 9.3457 3.14453L10.9277 1.01562C11.2598 0.566406 11.0938 0 10.4785 0L7.35352 0C6.76758 0 6.5625 0.546875 6.91406 1.01562Z" fill="white" fill-opacity="0.85"/>
 </g>
</svg>
