<?xml version="1.0" encoding="UTF-8"?>
<!--Generator: Apple Native CoreSVG 326-->
<!DOCTYPE svg
PUBLIC "-//W3C//DTD SVG 1.1//EN"
       "http://www.w3.org/Graphics/SVG/1.1/DTD/svg11.dtd">
<svg version="1.1" xmlns="http://www.w3.org/2000/svg" xmlns:xlink="http://www.w3.org/1999/xlink" viewBox="0 0 16.1328 15.7715">
 <g>
  <rect height="15.7715" opacity="0" width="16.1328" x="0" y="0"/>
  <path d="M7.88086 15.7617C12.2363 15.7617 15.7715 12.2363 15.7715 7.88086C15.7715 3.52539 12.2363 0 7.88086 0C3.53516 0 0 3.52539 0 7.88086C0 12.2363 3.53516 15.7617 7.88086 15.7617ZM7.88086 14.2773C4.3457 14.2773 1.49414 11.416 1.49414 7.88086C1.49414 4.3457 4.3457 1.48438 7.88086 1.48438C11.416 1.48438 14.2773 4.3457 14.2773 7.88086C14.2773 11.416 11.416 14.2773 7.88086 14.2773Z" fill="white" fill-opacity="0.85"/>
  <path d="M4.45312 11.0938C4.84375 11.0938 5.07812 10.8398 5.07812 10.4395L5.07812 8.69141L5.70312 8.69141L6.44531 10.5762C6.5625 10.8984 6.74805 11.0938 7.09961 11.0938C7.37305 11.0938 7.68555 10.9375 7.68555 10.4883C7.68555 10.3906 7.62695 10.2148 7.54883 10.0098L6.89453 8.42773C7.50977 8.08594 7.73438 7.40234 7.73438 6.75781C7.73438 5.46875 6.96289 4.81445 5.75195 4.81445L4.44336 4.81445C4.04297 4.81445 3.81836 5.05859 3.81836 5.45898L3.81836 10.4395C3.81836 10.8301 4.04297 11.0938 4.45312 11.0938ZM5.07812 7.7832L5.07812 5.79102L5.63477 5.79102C6.19141 5.79102 6.46484 6.23047 6.46484 6.77734C6.46484 7.35352 6.21094 7.7832 5.64453 7.7832ZM9.11133 10.9766L11.7676 10.9766C12.0703 10.9766 12.2559 10.7812 12.2559 10.4785C12.2559 10.1562 12.0605 9.9707 11.7676 9.9707L10.0488 9.9707L10.0488 9.91211L11.0742 8.65234C11.8848 7.66602 12.1484 7.09961 12.1484 6.42578C12.1484 5.36133 11.3965 4.61914 10.3223 4.61914C9.31641 4.61914 8.54492 5.42969 8.54492 6.2207C8.54492 6.54297 8.73047 6.76758 9.05273 6.76758C9.33594 6.76758 9.50195 6.64062 9.59961 6.35742C9.75586 5.88867 9.91211 5.60547 10.3125 5.60547C10.7227 5.60547 10.9668 5.95703 10.9668 6.48438C10.9668 7.09961 10.498 7.74414 10.1074 8.23242L8.85742 9.78516C8.70117 9.99023 8.53516 10.2051 8.53516 10.4785C8.53516 10.7617 8.71094 10.9766 9.11133 10.9766Z" fill="white" fill-opacity="0.85"/>
 </g>
</svg>
