<?xml version="1.0" encoding="UTF-8"?>
<!--Generator: Apple Native CoreSVG 326-->
<!DOCTYPE svg
PUBLIC "-//W3C//DTD SVG 1.1//EN"
       "http://www.w3.org/Graphics/SVG/1.1/DTD/svg11.dtd">
<svg version="1.1" xmlns="http://www.w3.org/2000/svg" xmlns:xlink="http://www.w3.org/1999/xlink" viewBox="0 0 18.4766 21.0327">
 <g>
  <rect height="21.0327" opacity="0" width="18.4766" x="0" y="0"/>
  <path d="M14.1602 8.81226C13.457 8.82203 12.8809 8.23609 12.8809 7.54273C12.8809 6.84937 13.457 6.25367 14.1602 6.26344C14.873 6.2732 15.4395 6.84937 15.4395 7.54273C15.4395 8.23609 14.873 8.8025 14.1602 8.81226ZM14.1602 12.533C13.457 12.533 12.8809 11.9568 12.8809 11.2537C12.8809 10.5505 13.457 9.97437 14.1602 9.97437C14.873 9.97437 15.4395 10.5505 15.4395 11.2537C15.4395 11.9568 14.873 12.533 14.1602 12.533ZM7.1875 7.20094C6.85547 7.20094 6.60156 6.9275 6.60156 6.59547C6.60156 6.2732 6.85547 6.00953 7.1875 6.00953C7.50977 6.00953 7.77344 6.2732 7.77344 6.59547C7.77344 6.9275 7.50977 7.20094 7.1875 7.20094ZM9.14062 7.76734C8.81836 7.76734 8.56445 7.49391 8.56445 7.17164C8.56445 6.83961 8.81836 6.56617 9.14062 6.56617C9.48242 6.56617 9.73633 6.83961 9.73633 7.17164C9.73633 7.49391 9.48242 7.76734 9.14062 7.76734ZM10.6055 9.20289C10.2832 9.20289 10.0391 8.93922 10.0391 8.61695C10.0391 8.27516 10.2832 8.00172 10.6055 8.00172C10.9277 8.00172 11.2012 8.27516 11.2012 8.61695C11.2012 8.93922 10.9277 9.20289 10.6055 9.20289ZM11.1133 11.0877C10.791 11.0877 10.5273 10.824 10.5273 10.5017C10.5273 10.1795 10.791 9.91578 11.1133 9.91578C11.4355 9.91578 11.6992 10.1795 11.6992 10.5017C11.6992 10.824 11.4355 11.0877 11.1133 11.0877ZM10.6055 13.0017C10.2832 13.0017 10.0391 12.7283 10.0391 12.3865C10.0391 12.0642 10.2832 11.8005 10.6055 11.8005C10.9277 11.8005 11.2012 12.0642 11.2012 12.3865C11.2012 12.7283 10.9277 13.0017 10.6055 13.0017ZM9.14062 14.447C8.81836 14.447 8.56445 14.1736 8.56445 13.8416C8.56445 13.5193 8.81836 13.2459 9.14062 13.2459C9.48242 13.2459 9.73633 13.5193 9.73633 13.8416C9.73633 14.1736 9.48242 14.447 9.14062 14.447ZM7.1875 15.0134C6.85547 15.0134 6.60156 14.7595 6.60156 14.4275C6.60156 14.0955 6.85547 13.822 7.1875 13.822C7.50977 13.822 7.77344 14.0955 7.77344 14.4275C7.77344 14.7595 7.50977 15.0134 7.1875 15.0134ZM5.22461 14.447C4.90234 14.447 4.64844 14.1736 4.64844 13.8416C4.64844 13.5193 4.90234 13.2459 5.22461 13.2459C5.54688 13.2459 5.80078 13.5193 5.80078 13.8416C5.80078 14.1736 5.54688 14.447 5.22461 14.447ZM3.75977 13.0017C3.4375 13.0017 3.17383 12.7283 3.17383 12.3865C3.17383 12.0642 3.4375 11.8005 3.75977 11.8005C4.08203 11.8005 4.33594 12.0642 4.33594 12.3865C4.33594 12.7283 4.08203 13.0017 3.75977 13.0017ZM3.25195 11.0877C2.93945 11.0877 2.67578 10.824 2.67578 10.5017C2.67578 10.1795 2.93945 9.91578 3.25195 9.91578C3.57422 9.91578 3.84766 10.1795 3.84766 10.5017C3.84766 10.824 3.57422 11.0877 3.25195 11.0877ZM3.75977 9.20289C3.4375 9.20289 3.17383 8.93922 3.17383 8.61695C3.17383 8.27516 3.4375 8.00172 3.75977 8.00172C4.08203 8.00172 4.33594 8.27516 4.33594 8.61695C4.33594 8.93922 4.08203 9.20289 3.75977 9.20289ZM5.22461 7.76734C4.90234 7.76734 4.64844 7.49391 4.64844 7.17164C4.64844 6.83961 4.90234 6.56617 5.22461 6.56617C5.54688 6.56617 5.80078 6.83961 5.80078 7.17164C5.80078 7.49391 5.54688 7.76734 5.22461 7.76734ZM7.1875 9.21266C6.85547 9.21266 6.60156 8.94898 6.60156 8.62672C6.60156 8.28492 6.85547 8.02125 7.1875 8.02125C7.50977 8.02125 7.77344 8.28492 7.77344 8.62672C7.77344 8.94898 7.50977 9.21266 7.1875 9.21266ZM9.02344 10.0037C8.70117 10.0037 8.4375 9.73023 8.4375 9.41773C8.4375 9.0857 8.70117 8.82203 9.02344 8.82203C9.3457 8.82203 9.59961 9.0857 9.59961 9.41773C9.59961 9.73023 9.3457 10.0037 9.02344 10.0037ZM9.02344 12.2107C8.70117 12.2107 8.4375 11.947 8.4375 11.615C8.4375 11.283 8.70117 11.0193 9.02344 11.0193C9.3457 11.0193 9.59961 11.283 9.59961 11.615C9.59961 11.947 9.3457 12.2107 9.02344 12.2107ZM7.1875 13.0115C6.85547 13.0115 6.60156 12.7283 6.60156 12.3962C6.60156 12.074 6.85547 11.8103 7.1875 11.8103C7.50977 11.8103 7.77344 12.074 7.77344 12.3962C7.77344 12.7283 7.50977 13.0115 7.1875 13.0115ZM5.3418 12.2107C5.01953 12.2107 4.77539 11.947 4.77539 11.615C4.77539 11.283 5.01953 11.0193 5.3418 11.0193C5.67383 11.0193 5.94727 11.283 5.94727 11.615C5.94727 11.947 5.67383 12.2107 5.3418 12.2107ZM5.3418 10.0037C5.01953 10.0037 4.77539 9.73023 4.77539 9.41773C4.77539 9.0857 5.01953 8.82203 5.3418 8.82203C5.67383 8.82203 5.94727 9.0857 5.94727 9.41773C5.94727 9.73023 5.67383 10.0037 5.3418 10.0037ZM7.1875 11.0974C6.85547 11.0974 6.60156 10.8337 6.60156 10.5115C6.60156 10.1892 6.85547 9.92555 7.1875 9.92555C7.50977 9.92555 7.77344 10.1892 7.77344 10.5115C7.77344 10.8337 7.50977 11.0974 7.1875 11.0974ZM14.5996 4.81812L15.0391 3.47047L4.45312 0.0329676C4.0918-0.0842199 3.68164 0.120858 3.57422 0.491952C3.44727 0.85328 3.65234 1.25367 4.02344 1.38062ZM2.49023 17.6404L15.625 17.6404C17.2949 17.6404 18.1152 16.8201 18.1152 15.1795L18.1152 5.86305C18.1152 4.22242 17.2949 3.40211 15.625 3.40211L2.49023 3.40211C0.830078 3.40211 0 4.22242 0 5.86305L0 15.1795C0 16.8201 0.830078 17.6404 2.49023 17.6404Z" fill="white" fill-opacity="0.85"/>
 </g>
</svg>
