<?xml version="1.0" encoding="UTF-8"?>
<!--Generator: Apple Native CoreSVG 326-->
<!DOCTYPE svg
PUBLIC "-//W3C//DTD SVG 1.1//EN"
       "http://www.w3.org/Graphics/SVG/1.1/DTD/svg11.dtd">
<svg version="1.1" xmlns="http://www.w3.org/2000/svg" xmlns:xlink="http://www.w3.org/1999/xlink" viewBox="0 0 20.0803 16.824">
 <g>
  <rect height="16.824" opacity="0" width="20.0803" x="0" y="0"/>
  <path d="M15.1574 2.04972L15.5372 4.19816L14.1138 4.19816L13.7902 2.36222C13.6534 1.63956 13.1945 1.33683 12.5011 1.45402L2.35462 3.24113C1.66126 3.36808 1.32923 3.80753 1.46594 4.53995L2.68665 11.4638C2.8136 12.1962 3.27258 12.4892 3.96594 12.372L4.38587 12.2981L4.38587 13.7245L4.19055 13.7587C2.54016 14.0517 1.5929 13.3974 1.31946 11.786L0.0596938 4.70597C-0.213744 3.09464 0.450319 2.14738 2.09094 1.86417L12.2765 0.0672983C13.9171-0.22567 14.8741 0.438392 15.1574 2.04972Z" fill="white" fill-opacity="0.85"/>
  <path d="M6.8761 16.288L17.2277 16.288C18.8781 16.288 19.7179 15.4677 19.7179 13.8368L19.7179 6.64933C19.7179 5.0087 18.8781 4.19816 17.2277 4.19816L6.8761 4.19816C5.20618 4.19816 4.38587 5.0087 4.38587 6.64933L4.38587 13.8368C4.38587 15.4775 5.20618 16.288 6.8761 16.288ZM6.89563 14.8818C6.19251 14.8818 5.79212 14.5009 5.79212 13.7587L5.79212 6.72745C5.79212 5.98527 6.19251 5.60441 6.89563 5.60441L17.2081 5.60441C17.9015 5.60441 18.3019 5.98527 18.3019 6.72745L18.3019 13.7587C18.3019 14.5009 17.9015 14.8818 17.2081 14.8818Z" fill="white" fill-opacity="0.85"/>
 </g>
</svg>
