<svg version="1.1" xmlns="http://www.w3.org/2000/svg" xmlns:xlink="http://www.w3.org/1999/xlink" viewBox="0 0 20.0098 16.4746">
 <g>
  <rect height="16.4746" opacity="0" width="20.0098" x="0" y="0"/>
  <path d="M13.8281 2.49023L13.8281 6.00586L12.4121 6.00586L12.4121 2.50977C12.4121 1.80664 12.0312 1.40625 11.2988 1.40625L3.34961 1.40625C2.60742 1.40625 2.22656 1.80664 2.22656 2.50977L2.22656 13.9551C2.22656 14.6582 2.60742 15.0586 3.34961 15.0586L11.2988 15.0586C12.0312 15.0586 12.4121 14.6582 12.4121 13.9551L12.4121 10.459L13.8281 10.459L13.8281 13.9746C13.8281 15.6445 13.0078 16.4648 11.3672 16.4648L3.27148 16.4648C1.63086 16.4648 0.820312 15.6445 0.820312 13.9746L0.820312 2.49023C0.820312 0.830078 1.63086 0 3.27148 0L11.3672 0C13.0078 0 13.8281 0.830078 13.8281 2.49023Z" fill="var(--color-primary)"/>
  <path d="M7.4707 8.23242C7.4707 8.60352 7.7832 8.92578 8.1543 8.92578L15.7617 8.92578L16.9238 8.86719L16.5039 9.26758L15.332 10.3418C15.1953 10.4688 15.127 10.6445 15.127 10.8105C15.127 11.1816 15.3809 11.4551 15.7422 11.4551C15.9277 11.4551 16.0645 11.377 16.2012 11.2402L18.5938 8.74023C18.7695 8.56445 18.8281 8.4082 18.8281 8.23242C18.8281 8.05664 18.7695 7.90039 18.5938 7.72461L16.2012 5.22461C16.0645 5.08789 15.9277 5.00977 15.7422 5.00977C15.3809 5.00977 15.127 5.27344 15.127 5.64453C15.127 5.81055 15.1953 5.99609 15.332 6.12305L16.5039 7.19727L16.9238 7.59766L15.7617 7.53906L8.1543 7.53906C7.7832 7.53906 7.4707 7.86133 7.4707 8.23242Z" fill="var(--color-primary)"/>
 </g>
</svg>
