<?xml version="1.0" encoding="UTF-8"?>
<!--Generator: Apple Native CoreSVG 326-->
<!DOCTYPE svg
PUBLIC "-//W3C//DTD SVG 1.1//EN"
       "http://www.w3.org/Graphics/SVG/1.1/DTD/svg11.dtd">
<svg version="1.1" xmlns="http://www.w3.org/2000/svg" xmlns:xlink="http://www.w3.org/1999/xlink" viewBox="0 0 17.168 14.2871">
 <g>
  <rect height="14.2871" opacity="0" width="17.168" x="0" y="0"/>
  <path d="M0.722656 7.46094C1.12305 7.46094 1.43555 7.14844 1.43555 6.73828L1.43555 5.99609C1.43555 4.74609 2.33398 3.89648 3.66211 3.89648L8.14453 3.89648L8.14453 5.68359C8.14453 6.02539 8.33984 6.21094 8.68164 6.21094C8.83789 6.21094 8.99414 6.15234 9.11133 6.05469L12.0312 3.60352C12.2949 3.37891 12.3047 3.06641 12.0312 2.8418L9.11133 0.380859C8.99414 0.283203 8.83789 0.224609 8.68164 0.224609C8.33984 0.224609 8.14453 0.410156 8.14453 0.751953L8.14453 2.48047L3.80859 2.48047C1.49414 2.48047 0 3.79883 0 5.88867L0 6.73828C0 7.14844 0.3125 7.46094 0.722656 7.46094ZM16.0449 6.83594C15.6348 6.83594 15.3223 7.14844 15.3223 7.55859L15.3223 8.30078C15.3223 9.55078 14.4238 10.4004 13.1055 10.4004L6.97266 10.4004L6.97266 8.63281C6.97266 8.29102 6.76758 8.10547 6.42578 8.10547C6.2793 8.10547 6.11328 8.16406 5.99609 8.26172L3.07617 10.7129C2.82227 10.9375 2.8125 11.25 3.07617 11.4746L5.99609 13.9355C6.11328 14.0332 6.2793 14.0918 6.42578 14.0918C6.76758 14.0918 6.97266 13.9062 6.97266 13.5645L6.97266 11.8164L12.959 11.8164C15.2734 11.8164 16.7676 10.498 16.7676 8.4082L16.7676 7.55859C16.7676 7.14844 16.4551 6.83594 16.0449 6.83594Z" fill="white" fill-opacity="0.85"/>
  <path d="M16.0547 5.24414C16.5234 5.24414 16.8066 4.96094 16.8066 4.48242L16.8066 0.947266C16.8066 0.380859 16.4453 0 15.8887 0C15.4297 0 15.166 0.146484 14.8145 0.429688L13.8184 1.21094C13.6328 1.35742 13.584 1.48438 13.584 1.66016C13.584 1.91406 13.7891 2.09961 14.082 2.09961C14.1895 2.09961 14.3066 2.06055 14.4238 1.97266L15.2148 1.32812L15.293 1.32812L15.293 4.48242C15.293 4.96094 15.5762 5.24414 16.0547 5.24414Z" fill="white" fill-opacity="0.85"/>
 </g>
</svg>
