<?xml version="1.0" encoding="UTF-8"?>
<!--Generator: Apple Native CoreSVG 326-->
<!DOCTYPE svg
PUBLIC "-//W3C//DTD SVG 1.1//EN"
       "http://www.w3.org/Graphics/SVG/1.1/DTD/svg11.dtd">
<svg version="1.1" xmlns="http://www.w3.org/2000/svg" xmlns:xlink="http://www.w3.org/1999/xlink" viewBox="0 0 22.7946 11.6113">
 <g>
  <rect height="11.6113" opacity="0" width="22.7946" x="0" y="0"/>
  <path d="M0.71372 11.6113L1.76841 11.6113C2.28599 11.6113 2.53989 11.3672 2.68638 11.0059C4.09263 7.5293 5.50864 4.04297 6.91489 0.566406C7.03208 0.263672 6.89536 0.00976562 6.59263 0.00976562L6.03599 0.00976562C5.73325 0.00976562 5.53794 0.166016 5.40122 0.429688C3.63364 3.83789 1.87583 7.24609 0.0984852 10.6543C-0.13589 11.1035 0.0398915 11.6113 0.71372 11.6113ZM20.6649 11.6113L21.7196 11.6113C22.3934 11.6113 22.5692 11.1035 22.3348 10.6543C20.5672 7.24609 18.7997 3.83789 17.0321 0.429688C16.8954 0.166016 16.7 0.00976562 16.3973 0.00976562L15.8407 0.00976562C15.5282 0.00976562 15.4012 0.263672 15.5184 0.566406C16.9247 4.04297 18.3407 7.5293 19.7469 11.0059C19.8934 11.3672 20.1473 11.6113 20.6649 11.6113ZM11.0067 2.20703L11.4071 2.20703C11.7586 2.20703 12.0321 1.94336 12.0321 1.57227C12.0321 1.26953 12.0321 0.947266 12.0321 0.644531C12.0321 0.273438 11.7586 0.00976562 11.4071 0.00976562L11.0067 0.00976562C10.6551 0.00976562 10.3817 0.273438 10.3817 0.644531C10.3817 0.947266 10.3817 1.26953 10.3817 1.57227C10.3817 1.94336 10.6551 2.20703 11.0067 2.20703ZM11.0067 6.5918L11.4071 6.5918C11.7586 6.5918 12.0321 6.32812 12.0321 5.9668C12.0321 5.43945 12.0321 4.91211 12.0321 4.38477C12.0321 4.02344 11.7586 3.75977 11.4071 3.75977L11.0067 3.75977C10.6551 3.75977 10.3817 4.02344 10.3817 4.38477C10.3817 4.91211 10.3817 5.43945 10.3817 5.9668C10.3817 6.32812 10.6551 6.5918 11.0067 6.5918ZM11.0067 11.6113L11.4071 11.6113C11.7586 11.6113 12.0321 11.3477 12.0321 10.9863C12.0321 10.2539 12.0321 9.52148 12.0321 8.78906C12.0321 8.41797 11.7586 8.1543 11.4071 8.1543L11.0067 8.1543C10.6551 8.1543 10.3817 8.41797 10.3817 8.78906C10.3817 9.52148 10.3817 10.2539 10.3817 10.9863C10.3817 11.3477 10.6551 11.6113 11.0067 11.6113Z" fill="white" fill-opacity="0.85"/>
 </g>
</svg>
