<?xml version="1.0" encoding="UTF-8"?>
<!--Generator: Apple Native CoreSVG 326-->
<!DOCTYPE svg
PUBLIC "-//W3C//DTD SVG 1.1//EN"
       "http://www.w3.org/Graphics/SVG/1.1/DTD/svg11.dtd">
<svg version="1.1" xmlns="http://www.w3.org/2000/svg" xmlns:xlink="http://www.w3.org/1999/xlink" viewBox="0 0 16.1328 15.7715">
 <g>
  <rect height="15.7715" opacity="0" width="16.1328" x="0" y="0"/>
  <path d="M7.88086 15.7617C12.2363 15.7617 15.7715 12.2363 15.7715 7.88086C15.7715 3.52539 12.2363 0 7.88086 0C3.53516 0 0 3.52539 0 7.88086C0 12.2363 3.53516 15.7617 7.88086 15.7617ZM7.88086 14.2773C4.3457 14.2773 1.49414 11.416 1.49414 7.88086C1.49414 4.3457 4.3457 1.48438 7.88086 1.48438C11.416 1.48438 14.2773 4.3457 14.2773 7.88086C14.2773 11.416 11.416 14.2773 7.88086 14.2773Z" fill="white" fill-opacity="0.85"/>
  <path d="M7.79297 11.4941C9.55078 11.4941 10.7031 10.6445 10.7031 9.29688C10.7031 8.25195 9.93164 7.67578 8.57422 7.31445L7.55859 7.04102C6.875 6.85547 6.58203 6.5918 6.58203 6.15234C6.58203 5.54688 7.04102 5.19531 7.8125 5.19531C8.53516 5.19531 8.97461 5.44922 9.25781 6.05469C9.39453 6.33789 9.57031 6.48438 9.90234 6.48438C10.2539 6.48438 10.5176 6.28906 10.5176 5.88867C10.5176 5.78125 10.4883 5.6543 10.4297 5.49805C10.127 4.70703 9.19922 4.10156 7.87109 4.10156C6.25977 4.10156 5.12695 4.99023 5.12695 6.24023C5.12695 7.22656 5.79102 7.79297 6.99219 8.13477L8.11523 8.44727C8.96484 8.70117 9.25781 8.89648 9.25781 9.4043C9.25781 10.0586 8.66211 10.3711 7.87109 10.3711C7.11914 10.3711 6.62109 10.1172 6.32812 9.53125C6.17188 9.22852 5.98633 9.0918 5.67383 9.0918C5.30273 9.0918 5.05859 9.32617 5.05859 9.69727C5.05859 9.83398 5.08789 9.9707 5.14648 10.1074C5.43945 10.8105 6.35742 11.4941 7.79297 11.4941Z" fill="white" fill-opacity="0.85"/>
 </g>
</svg>
