<?xml version="1.0" encoding="UTF-8"?>
<!--Generator: Apple Native CoreSVG 326-->
<!DOCTYPE svg
PUBLIC "-//W3C//DTD SVG 1.1//EN"
       "http://www.w3.org/Graphics/SVG/1.1/DTD/svg11.dtd">
<svg version="1.1" xmlns="http://www.w3.org/2000/svg" xmlns:xlink="http://www.w3.org/1999/xlink" viewBox="0 0 19.6191 14.7559">
 <g>
  <rect height="14.7559" opacity="0" width="19.6191" x="0" y="0"/>
  <path d="M3.78906 8.88672L3.78906 10.5078C3.78906 11.2305 3.41797 11.5918 2.67578 11.5918L1.11328 11.5918C0.371094 11.5918 0 11.2305 0 10.5078L0 8.88672C0 8.16406 0.371094 7.80273 1.11328 7.80273L2.67578 7.80273C3.41797 7.80273 3.78906 8.16406 3.78906 8.88672Z" fill="white" fill-opacity="0.425"/>
  <path d="M9.98047 1.08398L9.98047 2.08369C8.11205 2.21562 6.53327 3.83581 6.52438 5.95703L3.23242 5.95703C2.48047 5.95703 2.10938 5.5957 2.10938 4.86328L2.10938 1.08398C2.10938 0.361328 2.48047 0 3.23242 0L8.86719 0C9.61914 0 9.98047 0.361328 9.98047 1.08398Z" fill="white" fill-opacity="0.425"/>
  <path d="M19.2578 4.47266L19.2578 8.99414C19.2578 9.72656 18.8867 10.0879 18.1348 10.0879L15.8496 10.0879C15.1074 10.0879 14.7363 9.72656 14.7363 8.99414L14.7363 4.47266C14.7363 3.74023 15.1074 3.37891 15.8496 3.37891L18.1348 3.37891C18.8867 3.37891 19.2578 3.74023 19.2578 4.47266Z" fill="white" fill-opacity="0.425"/>
  <path d="M10.2344 8.79883C11.5918 8.79883 12.8027 7.55859 12.8027 5.95703C12.8027 4.36523 11.5918 3.21289 10.2344 3.21289C8.87695 3.21289 7.66602 4.38477 7.66602 5.97656C7.66602 7.55859 8.87695 8.79883 10.2344 8.79883ZM5.97656 14.7363L14.4824 14.7363C15.1953 14.7363 15.625 14.4141 15.625 13.8672C15.625 12.2168 13.5547 9.93164 10.2344 9.93164C6.91406 9.93164 4.84375 12.2168 4.84375 13.8672C4.84375 14.4141 5.26367 14.7363 5.97656 14.7363Z" fill="white" fill-opacity="0.85"/>
 </g>
</svg>
