<?xml version="1.0" encoding="UTF-8"?>
<!--Generator: Apple Native CoreSVG 326-->
<!DOCTYPE svg
PUBLIC "-//W3C//DTD SVG 1.1//EN"
       "http://www.w3.org/Graphics/SVG/1.1/DTD/svg11.dtd">
<svg version="1.1" xmlns="http://www.w3.org/2000/svg" xmlns:xlink="http://www.w3.org/1999/xlink" viewBox="0 0 14.5898 14.248">
 <g>
  <rect height="14.248" opacity="0" width="14.5898" x="0" y="0"/>
  <path d="M2.49023 14.248L11.7383 14.248C13.4082 14.248 14.2285 13.4277 14.2285 11.7871L14.2285 2.4707C14.2285 0.830078 13.4082 0.00976562 11.7383 0.00976562L2.49023 0.00976562C0.830078 0.00976562 0 0.830078 0 2.4707L0 11.7871C0 13.4277 0.830078 14.248 2.49023 14.248ZM2.50977 12.832C1.80664 12.832 1.40625 12.4512 1.40625 11.7188L1.40625 2.53906C1.40625 1.79688 1.80664 1.42578 2.50977 1.42578L11.7188 1.42578C12.4219 1.42578 12.8223 1.79688 12.8223 2.53906L12.8223 11.7188C12.8223 12.4512 12.4219 12.832 11.7188 12.832Z" fill="white" fill-opacity="0.85"/>
  <path d="M4.26758 10.6055C4.52148 10.6055 4.67773 10.4395 4.67773 10.166L4.67773 4.64844L6.31836 4.64844C7.17773 4.64844 7.64648 4.84375 7.64648 5.83008L7.64648 8.07617C7.64648 8.34961 7.80273 8.53516 8.06641 8.53516C8.33008 8.53516 8.49609 8.34961 8.49609 8.07617L8.49609 5.66406C8.49609 4.35547 7.89062 3.71094 6.60156 3.71094L4.48242 3.71094C4.07227 3.71094 3.82812 3.95508 3.82812 4.35547L3.82812 10.166C3.82812 10.4395 4.00391 10.6055 4.26758 10.6055ZM6.35742 10.5273L8.60352 10.5273C9.95117 10.5273 10.4004 9.78516 10.4004 8.4375L10.4004 4.0918C10.4004 3.80859 10.2441 3.63281 9.98047 3.63281C9.7168 3.63281 9.54102 3.80859 9.54102 4.0918L9.54102 8.39844C9.54102 9.375 9.3457 9.59961 8.36914 9.59961L6.5918 9.59961L6.5918 6.16211C6.5918 5.88867 6.42578 5.71289 6.17188 5.71289C5.9082 5.71289 5.73242 5.88867 5.73242 6.16211L5.73242 9.92188C5.73242 10.3125 5.99609 10.5273 6.35742 10.5273Z" fill="white" fill-opacity="0.85"/>
 </g>
</svg>
