<?xml version="1.0" encoding="UTF-8"?>
<!--Generator: Apple Native CoreSVG 326-->
<!DOCTYPE svg
PUBLIC "-//W3C//DTD SVG 1.1//EN"
       "http://www.w3.org/Graphics/SVG/1.1/DTD/svg11.dtd">
<svg version="1.1" xmlns="http://www.w3.org/2000/svg" xmlns:xlink="http://www.w3.org/1999/xlink" viewBox="0 0 23.9355 11.1426">
 <g>
  <rect height="11.1426" opacity="0" width="23.9355" x="0" y="0"/>
  <path d="M11.3281 0.869141C9.81445-0.00976562 8.4082 0.107422 7.24609 1.62109C6.37695 2.73438 5.49805 3.20312 4.58008 3.20312C3.76953 3.20312 3.21289 3.0957 2.59766 2.83203C1.33789 2.29492 0 2.8418 0 4.32617L0 7.67578C0 10.4492 1.71875 11.1426 3.18359 11.1426L15.293 11.1426C17.8809 11.1426 19.3457 10.7617 21.2891 9.67773C22.8418 8.81836 23.5742 7.71484 23.5742 6.47461C23.5742 4.67773 22.2949 3.42773 20.459 3.42773C19.6094 3.42773 17.7246 3.73047 17.0215 3.73047C16.3184 3.73047 16.1816 3.70117 15.4688 3.29102ZM1.40625 7.76367C1.40625 7.74414 1.40625 7.70508 1.40625 7.67578L1.40625 4.31641C1.40625 4.0332 1.65039 3.95508 1.875 4.05273C2.64648 4.375 3.47656 4.60938 4.58008 4.60938C5.9082 4.60938 7.27539 3.88672 8.36914 2.4707C9.10156 1.52344 9.55078 1.48438 10.6152 2.08984L14.7754 4.50195C15.7227 5.04883 16.1621 5.13672 17.0215 5.13672C17.8125 5.13672 19.7168 4.83398 20.4492 4.83398C20.9375 4.83398 21.5527 4.93164 21.5527 5.40039C21.5527 5.72266 21.1914 6.16211 20.3223 6.63086L19.209 7.22656C18.0762 7.83203 17.2266 8.06641 15.293 8.06641L2.74414 8.06641C2.01172 8.06641 1.63086 7.98828 1.40625 7.76367ZM1.55273 8.80859C1.89453 8.96484 2.24609 9.02344 2.74414 9.02344L15.293 9.02344C17.3242 9.02344 18.3887 8.73047 19.668 8.05664L20.7715 7.4707C21.6992 6.97266 22.0117 6.63086 22.1094 6.02539C22.1387 6.17188 22.1582 6.33789 22.1582 6.50391C22.1484 7.27539 21.6699 7.87109 20.6152 8.44727C18.8574 9.42383 17.6953 9.72656 15.293 9.72656L3.17383 9.72656C2.38281 9.72656 1.80664 9.57031 1.55273 8.80859ZM11.2988 1.75781L9.93164 3.62305C9.77539 3.82812 9.79492 4.13086 9.99023 4.29688C10.1855 4.45312 10.5078 4.44336 10.6641 4.23828L12.0312 2.36328ZM13.0664 2.63672L11.6895 4.49219C11.5137 4.73633 11.543 5 11.748 5.15625C11.9824 5.35156 12.2559 5.33203 12.4219 5.09766L13.7891 3.23242ZM14.8145 3.51562L13.4473 5.36133C13.2812 5.58594 13.3008 5.85938 13.4961 6.02539C13.7109 6.21094 13.9941 6.19141 14.1699 5.9668L15.5371 4.10156Z" fill="white" fill-opacity="0.85"/>
 </g>
</svg>
