<?xml version="1.0" encoding="UTF-8"?>
<!--Generator: Apple Native CoreSVG 326-->
<!DOCTYPE svg
PUBLIC "-//W3C//DTD SVG 1.1//EN"
       "http://www.w3.org/Graphics/SVG/1.1/DTD/svg11.dtd">
<svg version="1.1" xmlns="http://www.w3.org/2000/svg" xmlns:xlink="http://www.w3.org/1999/xlink" viewBox="0 0 14.6289 16.3965">
 <g>
  <rect height="16.3965" opacity="0" width="14.6289" x="0" y="0"/>
  <path d="M7.83203 0.712891L7.83203 1.79688L12.5586 1.79688C13.6621 1.79688 14.2676 2.39258 14.2676 3.47656L14.2676 8.42773C14.2676 9.51172 13.6621 10.1074 12.5586 10.1074L7.83203 10.1074L7.83203 14.9707L10.1465 14.9707C10.5371 14.9707 10.8496 15.293 10.8496 15.6738C10.8496 16.0645 10.5371 16.3867 10.1465 16.3867L4.12109 16.3867C3.74023 16.3867 3.41797 16.0645 3.41797 15.6738C3.41797 15.293 3.74023 14.9707 4.12109 14.9707L6.42578 14.9707L6.42578 10.1074L1.70898 10.1074C0.605469 10.1074 0 9.51172 0 8.42773L0 3.47656C0 2.39258 0.605469 1.79688 1.70898 1.79688L6.42578 1.79688L6.42578 0.712891C6.42578 0.322266 6.74805 0 7.12891 0C7.51953 0 7.83203 0.322266 7.83203 0.712891ZM6.65039 4.24805L4.83398 6.82617C4.48242 7.31445 4.63867 7.74414 5.29297 7.74414L8.99414 7.74414C9.61914 7.74414 9.79492 7.31445 9.45312 6.83594L7.63672 4.24805C7.36328 3.84766 6.92383 3.84766 6.65039 4.24805Z" fill="white" fill-opacity="0.85"/>
 </g>
</svg>
