<?xml version="1.0" encoding="UTF-8"?>
<!--Generator: Apple Native CoreSVG 326-->
<!DOCTYPE svg
PUBLIC "-//W3C//DTD SVG 1.1//EN"
       "http://www.w3.org/Graphics/SVG/1.1/DTD/svg11.dtd">
<svg version="1.1" xmlns="http://www.w3.org/2000/svg" xmlns:xlink="http://www.w3.org/1999/xlink" viewBox="0 0 16.1328 15.7715">
 <g>
  <rect height="15.7715" opacity="0" width="16.1328" x="0" y="0"/>
  <path d="M7.88086 15.7617C12.2363 15.7617 15.7715 12.2363 15.7715 7.88086C15.7715 3.52539 12.2363 0 7.88086 0C3.53516 0 0 3.52539 0 7.88086C0 12.2363 3.53516 15.7617 7.88086 15.7617ZM7.88086 14.2773C4.3457 14.2773 1.49414 11.416 1.49414 7.88086C1.49414 4.3457 4.3457 1.48438 7.88086 1.48438C11.416 1.48438 14.2773 4.3457 14.2773 7.88086C14.2773 11.416 11.416 14.2773 7.88086 14.2773Z" fill="white" fill-opacity="0.85"/>
  <path d="M10.5176 8.79883C11.0547 8.79883 11.3477 8.50586 11.3477 7.98828L11.3477 5.85938C11.3477 5.3418 11.0547 5.05859 10.5176 5.05859L8.35938 5.05859L8.35938 4.25781C8.35938 3.98438 8.14453 3.7793 7.87109 3.7793C7.61719 3.7793 7.41211 3.98438 7.41211 4.25781L7.41211 5.05859L5.63477 5.05859C5.29297 5.05859 5.12695 5.16602 4.94141 5.36133L3.93555 6.31836C3.48633 6.73828 3.50586 7.12891 3.92578 7.5293L4.94141 8.49609C5.12695 8.69141 5.29297 8.79883 5.63477 8.79883L7.41211 8.79883L7.41211 11.0254L6.42578 11.0254C6.16211 11.0254 5.94727 11.2402 5.94727 11.5039C5.94727 11.7676 6.16211 11.9727 6.42578 11.9727L9.33594 11.9727C9.59961 11.9727 9.81445 11.7676 9.81445 11.5039C9.81445 11.2402 9.59961 11.0254 9.33594 11.0254L8.35938 11.0254L8.35938 8.79883Z" fill="white" fill-opacity="0.85"/>
 </g>
</svg>
