<svg version="1.1" xmlns="http://www.w3.org/2000/svg" xmlns:xlink="http://www.w3.org/1999/xlink" width="16.1328" height="15.7715" viewBox="0 0 16.1328 15.7715">
 <g>
  <rect height="15.7715" opacity="0" width="16.1328" x="0" y="0"/>
  <path d="M7.88086 15.7715C12.1875 15.7715 15.7715 12.1973 15.7715 7.89062C15.7715 3.58398 12.1777 0.00976562 7.87109 0.00976562C3.57422 0.00976562 0 3.58398 0 7.89062C0 12.1973 3.58398 15.7715 7.88086 15.7715Z" fill="var(--color-tertiary)"/>
  <path d="M5.13672 8.84766C4.58008 8.84766 4.27734 8.54492 4.27734 8.00781L4.27734 5.80078C4.27734 5.26367 4.58008 4.9707 5.13672 4.9707L7.37305 4.9707L7.37305 4.13086C7.37305 3.84766 7.58789 3.63281 7.87109 3.63281C8.13477 3.63281 8.35938 3.84766 8.35938 4.13086L8.35938 4.9707L10.1953 4.9707C10.5664 4.9707 10.7324 5.07812 10.9277 5.27344L11.9629 6.26953C12.4219 6.70898 12.4023 7.10938 11.9727 7.5293L10.9277 8.53516C10.7324 8.73047 10.5664 8.84766 10.1953 8.84766L8.35938 8.84766L8.35938 11.1621L9.38477 11.1621C9.6582 11.1621 9.87305 11.377 9.87305 11.6504C9.87305 11.9238 9.6582 12.1387 9.38477 12.1387L6.35742 12.1387C6.08398 12.1387 5.85938 11.9238 5.85938 11.6504C5.85938 11.377 6.08398 11.1621 6.35742 11.1621L7.37305 11.1621L7.37305 8.84766Z" fill="var(--color-primary)"/>
 </g>
</svg>
