<?xml version="1.0" encoding="UTF-8"?>
<!--Generator: Apple Native CoreSVG 326-->
<!DOCTYPE svg
PUBLIC "-//W3C//DTD SVG 1.1//EN"
       "http://www.w3.org/Graphics/SVG/1.1/DTD/svg11.dtd">
<svg version="1.1" xmlns="http://www.w3.org/2000/svg" xmlns:xlink="http://www.w3.org/1999/xlink" viewBox="0 0 19.1159 15.7715">
 <g>
  <rect height="15.7715" opacity="0" width="19.1159" x="0" y="0"/>
  <path d="M9.37242 15.7617C13.7279 15.7617 17.263 12.2363 17.263 7.88086C17.263 3.52539 13.7279 0 9.37242 0C5.02672 0 1.49156 3.52539 1.49156 7.88086L2.9857 7.88086C2.9857 4.3457 5.83726 1.48438 9.37242 1.48438C12.9076 1.48438 15.7689 4.3457 15.7689 7.88086C15.7689 11.416 12.9076 14.2773 9.37242 14.2773C7.29234 14.2773 5.44664 13.2812 4.2943 11.7578C4.02086 11.3965 3.60094 11.2891 3.23961 11.5137C2.88805 11.7285 2.78062 12.2266 3.08336 12.6074C4.53844 14.5508 6.83336 15.7617 9.37242 15.7617ZM0.602889 6.35742C-0.0123451 6.35742-0.158829 6.77734 0.173202 7.24609L1.91148 9.7168C2.18492 10.0977 2.59508 10.0977 2.85875 9.7168L4.59703 7.23633C4.9193 6.77734 4.77281 6.35742 4.16734 6.35742Z" fill="white" fill-opacity="0.85"/>
  <path d="M7.24351 10.9473C8.57164 10.9473 9.16734 10.1367 9.16734 9.15039C9.16734 8.0957 8.52281 7.70508 7.7025 7.40234L7.25328 7.23633C6.7357 7.04102 6.37437 6.81641 6.37437 6.25977C6.37437 5.78125 6.65758 5.40039 7.21422 5.40039C7.6732 5.40039 8.015 5.6543 8.16148 6.19141C8.22008 6.42578 8.38609 6.52344 8.6107 6.52344C8.85484 6.52344 9.02086 6.34766 9.02086 6.10352C9.02086 6.04492 9.01109 5.95703 8.99156 5.87891C8.78648 5.07812 8.10289 4.58984 7.22398 4.58984C6.03258 4.58984 5.41734 5.39062 5.41734 6.31836C5.41734 7.23633 5.97398 7.76367 6.84312 8.06641L7.29234 8.22266C7.81969 8.4082 8.21031 8.68164 8.21031 9.24805C8.21031 9.74609 7.85875 10.127 7.26305 10.127C6.7357 10.127 6.38414 9.86328 6.23765 9.32617C6.17906 9.0918 6.02281 8.98438 5.7982 8.98438C5.5443 8.98438 5.36851 9.17969 5.36851 9.44336C5.36851 9.54102 5.38805 9.6582 5.41734 9.73633C5.68101 10.5371 6.34508 10.9473 7.24351 10.9473ZM11.5697 10.7129C12.6537 10.7129 13.4252 10.1367 13.4252 9.12109C13.4252 8.20312 12.8587 7.86133 12.097 7.50977L11.5209 7.23633C11.0619 7.01172 10.681 6.75781 10.681 6.31836C10.681 5.83008 11.0619 5.58594 11.5599 5.58594C12.1166 5.58594 12.3412 5.9375 12.4486 6.37695C12.4974 6.57227 12.6146 6.71875 12.888 6.71875C13.1517 6.71875 13.3177 6.5625 13.3177 6.30859C13.3177 6.20117 13.308 6.14258 13.2884 6.06445C13.0736 5.18555 12.3802 4.83398 11.5599 4.83398C10.5736 4.83398 9.77281 5.36133 9.77281 6.37695C9.77281 7.24609 10.2806 7.62695 11.0619 7.99805L11.638 8.27148C12.097 8.49609 12.5072 8.71094 12.5072 9.20898C12.5072 9.67773 12.1752 9.94141 11.5795 9.94141C10.9642 9.94141 10.7005 9.67773 10.5931 9.14062C10.5541 8.96484 10.4173 8.79883 10.1537 8.79883C9.89976 8.79883 9.72398 8.96484 9.72398 9.21875C9.72398 9.28711 9.73375 9.375 9.75328 9.45312C9.96812 10.3516 10.7298 10.7129 11.5697 10.7129ZM11.5599 11.4844C11.6869 11.4844 11.7943 11.3867 11.7943 11.2598L11.7943 4.27734C11.7943 4.15039 11.6869 4.04297 11.5599 4.04297C11.433 4.04297 11.3353 4.15039 11.3353 4.27734L11.3353 11.2598C11.3353 11.3867 11.433 11.4844 11.5599 11.4844Z" fill="white" fill-opacity="0.85"/>
 </g>
</svg>
