<?xml version="1.0" encoding="UTF-8"?>
<!--Generator: Apple Native CoreSVG 326-->
<!DOCTYPE svg
PUBLIC "-//W3C//DTD SVG 1.1//EN"
       "http://www.w3.org/Graphics/SVG/1.1/DTD/svg11.dtd">
<svg version="1.1" xmlns="http://www.w3.org/2000/svg" xmlns:xlink="http://www.w3.org/1999/xlink" viewBox="0 0 16.1328 15.7715">
 <g>
  <rect height="15.7715" opacity="0" width="16.1328" x="0" y="0"/>
  <path d="M7.88086 15.7617C12.2363 15.7617 15.7715 12.2363 15.7715 7.88086C15.7715 3.52539 12.2363 0 7.88086 0C3.53516 0 0 3.52539 0 7.88086C0 12.2363 3.53516 15.7617 7.88086 15.7617ZM7.88086 14.2773C4.3457 14.2773 1.49414 11.416 1.49414 7.88086C1.49414 4.3457 4.3457 1.48438 7.88086 1.48438C11.416 1.48438 14.2773 4.3457 14.2773 7.88086C14.2773 11.416 11.416 14.2773 7.88086 14.2773Z" fill="white" fill-opacity="0.85"/>
  <path d="M7.87109 11.9824C10.1367 11.9824 11.9727 10.1465 11.9727 7.88086C11.9727 5.61523 10.1367 3.7793 7.87109 3.7793C5.61523 3.7793 3.7793 5.61523 3.7793 7.88086C3.7793 10.1465 5.61523 11.9824 7.87109 11.9824ZM7.87109 4.45312C8.29102 4.45312 8.69141 4.52148 9.0625 4.66797L8.11523 5.41992L8.11523 6.50391L9.16992 7.29492L10.1855 6.88477L10.5469 5.74219C11.0156 6.32812 11.3184 7.06055 11.3184 7.88086L10.3711 7.35352L9.31641 7.7832L8.90625 9.00391L9.49219 9.73633L10.7422 9.75586C10.3027 10.4395 9.62891 10.9375 8.84766 11.1719L9.11133 10.0586L8.57422 9.375L7.16797 9.375L6.63086 10.0586L6.89453 11.1719C6.11328 10.9375 5.43945 10.4395 5 9.75586L6.25 9.73633L6.83594 9.00391L6.42578 7.7832L5.36133 7.35352L4.42383 7.88086C4.42383 7.06055 4.7168 6.32812 5.19531 5.74219L5.54688 6.88477L6.57227 7.29492L7.62695 6.50391L7.62695 5.41992L6.66992 4.66797C7.05078 4.52148 7.46094 4.45312 7.87109 4.45312Z" fill="white" fill-opacity="0.85"/>
 </g>
</svg>
