<svg version="1.1" xmlns="http://www.w3.org/2000/svg" xmlns:xlink="http://www.w3.org/1999/xlink" width="15.4395" height="15.2246" viewBox="0 0 15.4395 15.2246">
 <g>
  <rect height="15.2246" opacity="0" width="15.4395" x="0" y="0"/>
  <path d="M0 6.21094C0 9.63867 2.7832 12.4121 6.21094 12.4121C7.5293 12.4121 8.74023 12.002 9.74609 11.2988L13.3789 14.9414C13.584 15.1367 13.8379 15.2246 14.1016 15.2246C14.668 15.2246 15.0781 14.7949 15.0781 14.2285C15.0781 13.9551 14.9707 13.7109 14.8047 13.5254L11.1914 9.90234C11.9629 8.86719 12.4121 7.59766 12.4121 6.21094C12.4121 2.7832 9.63867 0 6.21094 0C2.7832 0 0 2.7832 0 6.21094ZM1.50391 6.21094C1.50391 3.60352 3.60352 1.50391 6.21094 1.50391C8.80859 1.50391 10.918 3.60352 10.918 6.21094C10.918 8.80859 8.80859 10.918 6.21094 10.918C3.60352 10.918 1.50391 8.80859 1.50391 6.21094Z" fill="var(--color-primary)"/>
  <path d="M6.2207 9.3457C6.34766 9.3457 6.45508 9.23828 6.49414 9.11133C6.88477 7.19727 7.08008 6.75781 9.0918 6.48438C9.24805 6.46484 9.3457 6.34766 9.3457 6.21094C9.3457 6.06445 9.24805 5.95703 9.0918 5.92773C7.08984 5.64453 6.77734 5.17578 6.49414 3.32031C6.46484 3.17383 6.34766 3.06641 6.2207 3.06641C6.07422 3.06641 5.9668 3.16406 5.92773 3.32031C5.54688 5.21484 5.35156 5.64453 3.33008 5.92773C3.18359 5.95703 3.07617 6.06445 3.07617 6.21094C3.07617 6.34766 3.18359 6.45508 3.33008 6.48438C5.35156 6.73828 5.64453 7.19727 5.92773 9.10156C5.95703 9.23828 6.06445 9.3457 6.2207 9.3457Z" fill="var(--color-primary)"/>
 </g>
</svg>
