<?xml version="1.0" encoding="UTF-8"?>
<!--Generator: Apple Native CoreSVG 326-->
<!DOCTYPE svg
PUBLIC "-//W3C//DTD SVG 1.1//EN"
       "http://www.w3.org/Graphics/SVG/1.1/DTD/svg11.dtd">
<svg version="1.1" xmlns="http://www.w3.org/2000/svg" xmlns:xlink="http://www.w3.org/1999/xlink" viewBox="0 0 19.3262 13.6816">
 <g>
  <rect height="13.6816" opacity="0" width="19.3262" x="0" y="0"/>
  <path d="M18.4863 4.95117L16.6797 4.95117L16.6797 4.90234L18.5547 2.43164C18.7305 2.19727 18.7988 2.05078 18.7988 1.89453C18.7988 1.62109 18.584 1.45508 18.3008 1.45508L15.625 1.45508C15.3516 1.45508 15.1562 1.63086 15.1562 1.91406C15.1562 2.20703 15.3516 2.38281 15.625 2.38281L17.3242 2.38281L17.3242 2.42188L15.4297 4.88281C15.2344 5.11719 15.1855 5.26367 15.1855 5.43945C15.1855 5.69336 15.3809 5.87891 15.6738 5.87891L18.4863 5.87891C18.7598 5.87891 18.9648 5.71289 18.9648 5.41016C18.9648 5.13672 18.7598 4.95117 18.4863 4.95117ZM13.7988 8.08594L12.5879 8.08594L12.5879 8.05664L13.8672 6.37695C14.0332 6.16211 14.0918 6.01562 14.0918 5.86914C14.0918 5.60547 13.8965 5.45898 13.623 5.45898L11.6309 5.45898C11.377 5.45898 11.1914 5.625 11.1914 5.87891C11.1914 6.17188 11.377 6.33789 11.6309 6.33789L12.7051 6.33789L12.7051 6.36719L11.4453 8.03711C11.2891 8.24219 11.2207 8.38867 11.2207 8.55469C11.2207 8.78906 11.4062 8.96484 11.6699 8.96484L13.7988 8.96484C14.0723 8.96484 14.248 8.80859 14.248 8.53516C14.248 8.26172 14.0723 8.08594 13.7988 8.08594ZM17.334 11.0059L16.2891 11.0059L16.2891 10.9766L17.3828 9.50195C17.5391 9.27734 17.5977 9.16016 17.5977 9.01367C17.5977 8.76953 17.4121 8.62305 17.1582 8.62305L15.3906 8.62305C15.1367 8.62305 14.9707 8.7793 14.9707 9.0332C14.9707 9.30664 15.1367 9.44336 15.3906 9.44336L16.2793 9.44336L16.2793 9.47266L15.2051 10.9473C15.0586 11.1523 14.9902 11.2793 14.9902 11.4355C14.9902 11.6699 15.1758 11.8359 15.4199 11.8359L17.334 11.8359C17.5684 11.8359 17.7441 11.6699 17.7441 11.4062C17.7441 11.1621 17.5684 11.0059 17.334 11.0059Z" fill="white" fill-opacity="0.85"/>
  <path d="M1.68945 10.0488L3.82812 10.0488C3.88672 10.0488 3.94531 10.0684 3.98438 10.1074L7.38281 13.1543C7.79297 13.5156 8.10547 13.6816 8.50586 13.6816C9.0332 13.6816 9.45312 13.291 9.45312 12.7441L9.45312 0.996094C9.45312 0.458984 9.0332 0.00976562 8.48633 0.00976562C8.08594 0.00976562 7.83203 0.185547 7.38281 0.595703L3.98438 3.58398C3.94531 3.62305 3.88672 3.64258 3.82812 3.64258L1.68945 3.64258C0.556641 3.64258 0 4.21875 0 5.42969L0 8.27148C0 9.47266 0.566406 10.0488 1.68945 10.0488ZM1.74805 8.7793C1.49414 8.7793 1.35742 8.65234 1.35742 8.38867L1.35742 5.30273C1.35742 5.04883 1.49414 4.91211 1.74805 4.91211L4.20898 4.91211C4.39453 4.91211 4.54102 4.88281 4.7168 4.7168L7.89062 1.8457C7.91992 1.81641 7.95898 1.79688 7.99805 1.79688C8.04688 1.79688 8.08594 1.83594 8.08594 1.89453L8.08594 11.7871C8.08594 11.8555 8.04688 11.8945 7.99805 11.8945C7.95898 11.8945 7.91992 11.875 7.89062 11.8359L4.7168 8.97461C4.54102 8.81836 4.39453 8.7793 4.20898 8.7793Z" fill="white" fill-opacity="0.85"/>
 </g>
</svg>
