<?xml version="1.0" encoding="UTF-8"?>
<!--Generator: Apple Native CoreSVG 326-->
<!DOCTYPE svg
PUBLIC "-//W3C//DTD SVG 1.1//EN"
       "http://www.w3.org/Graphics/SVG/1.1/DTD/svg11.dtd">
<svg version="1.1" xmlns="http://www.w3.org/2000/svg" xmlns:xlink="http://www.w3.org/1999/xlink" viewBox="0 0 17.6465 17.2949">
 <g>
  <rect height="17.2949" opacity="0" width="17.6465" x="0" y="0"/>
  <path d="M6.12305 2.29492C5.94727 2.46094 5.87891 2.64648 5.87891 2.82227C5.87891 3.125 6.13281 3.37891 6.50391 3.37891L10.7812 3.37891C11.1523 3.37891 11.4062 3.125 11.4062 2.82227C11.4062 2.64648 11.3379 2.46094 11.1621 2.29492L9.19922 0.253906C9.0332 0.078125 8.83789 0 8.64258 0C8.44727 0 8.25195 0.078125 8.08594 0.253906ZM6.12305 14.9902L8.08594 17.0312C8.25195 17.207 8.44727 17.2852 8.64258 17.2852C8.83789 17.2852 9.0332 17.207 9.19922 17.0312L11.1621 14.9902C11.3379 14.8242 11.4062 14.6387 11.4062 14.4629C11.4062 14.1602 11.1523 13.9062 10.7812 13.9062L6.50391 13.9062C6.13281 13.9062 5.87891 14.1602 5.87891 14.4629C5.87891 14.6387 5.94727 14.8242 6.12305 14.9902ZM14.9902 6.13281C14.8242 5.95703 14.6387 5.88867 14.4629 5.88867C14.1602 5.88867 13.9062 6.14258 13.9062 6.51367L13.9062 10.791C13.9062 11.1621 14.1602 11.416 14.4629 11.416C14.6387 11.416 14.8242 11.3477 14.9902 11.1719L17.0312 9.20898C17.207 9.04297 17.2852 8.84766 17.2852 8.65234C17.2852 8.45703 17.207 8.26172 17.0312 8.0957ZM2.29492 6.13281L0.253906 8.0957C0.078125 8.26172 0 8.45703 0 8.65234C0 8.84766 0.078125 9.04297 0.253906 9.20898L2.29492 11.1719C2.46094 11.3477 2.64648 11.416 2.82227 11.416C3.125 11.416 3.37891 11.1621 3.37891 10.791L3.37891 6.51367C3.37891 6.14258 3.125 5.88867 2.82227 5.88867C2.64648 5.88867 2.46094 5.95703 2.29492 6.13281Z" fill="white" fill-opacity="0.85"/>
  <path d="M9.42383 12.0703C9.6875 12.0703 9.90234 11.875 9.90234 11.6016L9.90234 5.71289C9.90234 5.43945 9.6875 5.22461 9.41406 5.22461C9.21875 5.22461 9.0918 5.3125 8.86719 5.51758L7.25586 7.02148C7.23633 7.04102 7.20703 7.04102 7.17773 7.04102L6.10352 7.04102C5.53711 7.04102 5.25391 7.33398 5.25391 7.93945L5.25391 9.35547C5.25391 9.96094 5.53711 10.2441 6.10352 10.2441L7.17773 10.2441C7.20703 10.2441 7.23633 10.2539 7.25586 10.2734L8.86719 11.8066C9.0625 11.9922 9.22852 12.0703 9.42383 12.0703Z" fill="white" fill-opacity="0.85"/>
  <path d="M11.1328 10.3613C11.3184 10.5078 11.582 10.4492 11.7383 10.2441C12.041 9.85352 12.2168 9.26758 12.2168 8.64258C12.2168 8.03711 12.0312 7.44141 11.7383 7.04102C11.5918 6.83594 11.3184 6.77734 11.1328 6.92383C10.9082 7.08008 10.8691 7.34375 11.0352 7.57812C11.2109 7.82227 11.3281 8.23242 11.3281 8.64258C11.3281 9.04297 11.2109 9.44336 11.0352 9.70703C10.8691 9.95117 10.9082 10.2051 11.1328 10.3613Z" fill="white" fill-opacity="0.85"/>
 </g>
</svg>
