<?xml version="1.0" encoding="UTF-8"?>
<!--Generator: Apple Native CoreSVG 326-->
<!DOCTYPE svg
PUBLIC "-//W3C//DTD SVG 1.1//EN"
       "http://www.w3.org/Graphics/SVG/1.1/DTD/svg11.dtd">
<svg version="1.1" xmlns="http://www.w3.org/2000/svg" xmlns:xlink="http://www.w3.org/1999/xlink" viewBox="0 0 19.1016 15.166">
 <g>
  <rect height="15.166" opacity="0" width="19.1016" x="0" y="0"/>
  <path d="M8.59375 0.869141L4.52148 0.439453C3.80859 0.361328 3.30078 0.820312 3.30078 1.49414C3.30078 2.17773 3.80859 2.63672 4.52148 2.55859L8.59375 2.12891ZM9.33594 2.99805C10.166 2.99805 10.8398 2.32422 10.8398 1.49414C10.8398 0.664062 10.166 0 9.33594 0C8.50586 0 7.83203 0.664062 7.83203 1.49414C7.83203 2.32422 8.50586 2.99805 9.33594 2.99805ZM10.0684 0.869141L10.0684 2.12891L14.1406 2.55859C14.8535 2.63672 15.3613 2.17773 15.3613 1.49414C15.3613 0.820312 14.8535 0.361328 14.1406 0.439453ZM8.57422 2.44141L8.57422 4.30664L10.0879 4.30664L10.0879 2.44141ZM7.12891 5.81055L11.5137 5.81055L11.5137 4.81445C11.5137 4.16016 11.1133 3.75977 10.459 3.75977L8.18359 3.75977C7.5293 3.75977 7.12891 4.16016 7.12891 4.81445ZM9.32617 13.6426C10.5664 13.6426 11.3477 13.1738 12.2168 12.3438C12.5781 11.9727 13.0469 11.7871 13.457 11.7871C14.209 11.7871 14.834 12.3535 14.834 13.3887L14.834 14.3848C14.834 14.7168 14.9902 14.8828 15.332 14.8828L18.2422 14.8828C18.5742 14.8828 18.7402 14.7168 18.7402 14.3848L18.7402 13.6914C18.7402 9.11133 15.9863 7.75391 13.6035 7.75391L13.3008 7.75391C13.0859 7.75391 12.9395 7.62695 12.8711 7.46094L12.4219 6.24023C12.2656 5.81055 12.1289 5.70312 11.7578 5.70312L6.88477 5.70312C6.51367 5.70312 6.37695 5.81055 6.2207 6.24023L5.77148 7.46094C5.70312 7.62695 5.55664 7.75391 5.3418 7.75391L0.820312 7.75391L0.820312 11.7188L5.19531 11.7188C5.67383 11.7188 5.9375 11.7871 6.28906 12.2168C7.03125 13.0859 8.06641 13.6426 9.32617 13.6426ZM0.703125 13.8086C1.09375 13.8086 1.40625 13.4863 1.40625 13.1055L1.40625 6.63086C1.40625 6.25 1.09375 5.92773 0.703125 5.92773C0.322266 5.92773 0 6.25 0 6.63086L0 13.1055C0 13.4863 0.322266 13.8086 0.703125 13.8086Z" fill="white" fill-opacity="0.85"/>
 </g>
</svg>
