<?xml version="1.0" encoding="UTF-8"?>
<!--Generator: Apple Native CoreSVG 326-->
<!DOCTYPE svg
PUBLIC "-//W3C//DTD SVG 1.1//EN"
       "http://www.w3.org/Graphics/SVG/1.1/DTD/svg11.dtd">
<svg version="1.1" xmlns="http://www.w3.org/2000/svg" xmlns:xlink="http://www.w3.org/1999/xlink" viewBox="0 0 21.3379 14.248">
 <g>
  <rect height="14.248" opacity="0" width="21.3379" x="0" y="0"/>
  <path d="M0 9.6582L1.86523 9.6582C2.39258 9.6582 2.67578 9.375 2.67578 8.84766L2.67578 5.40039C2.67578 4.87305 2.39258 4.58984 1.86523 4.58984L0 4.58984ZM2.99805 14.2383L9.85352 14.2383L9.85352 10.8789C8.04688 10.5762 6.67969 9.00391 6.67969 7.11914C6.67969 5.23438 8.04688 3.66211 9.85352 3.35938L9.85352 0L2.99805 0C1.05469 0 0 1.06445 0 3.00781L0 3.36914L1.86523 3.36914C3.18359 3.36914 3.89648 4.08203 3.89648 5.40039L3.89648 8.84766C3.89648 10.166 3.18359 10.8789 1.86523 10.8789L0 10.8789L0 11.2402C0 13.1738 1.05469 14.2383 2.99805 14.2383ZM9.85352 9.66797L9.85352 8.30078C9.43359 8.07617 9.14062 7.63672 9.14062 7.11914C9.14062 6.60156 9.43359 6.16211 9.85352 5.9375L9.85352 4.57031C8.70117 4.85352 7.85156 5.87891 7.85156 7.11914C7.85156 8.35938 8.70117 9.38477 9.85352 9.66797ZM11.1328 9.66797C12.2754 9.38477 13.125 8.35938 13.125 7.11914C13.125 5.87891 12.2754 4.85352 11.1328 4.57031L11.1328 5.9375C11.5527 6.16211 11.8359 6.60156 11.8359 7.11914C11.8359 7.63672 11.5527 8.07617 11.1328 8.30078ZM11.1328 14.2383L17.9785 14.2383C19.9219 14.2383 20.9766 13.1738 20.9766 11.2402L20.9766 10.8789L19.1113 10.8789C17.793 10.8789 17.0801 10.166 17.0801 8.84766L17.0801 5.40039C17.0801 4.08203 17.793 3.36914 19.1113 3.36914L20.9766 3.36914L20.9766 3.00781C20.9766 1.06445 19.9219 0 17.9785 0L11.1328 0L11.1328 3.35938C12.9297 3.66211 14.3066 5.23438 14.3066 7.11914C14.3066 9.00391 12.9297 10.5762 11.1328 10.8789ZM20.9766 9.6582L20.9766 4.58984L19.1113 4.58984C18.584 4.58984 18.3008 4.87305 18.3008 5.40039L18.3008 8.84766C18.3008 9.375 18.584 9.6582 19.1113 9.6582Z" fill="white" fill-opacity="0.85"/>
 </g>
</svg>
