<?xml version="1.0" encoding="UTF-8"?>
<!--Generator: Apple Native CoreSVG 326-->
<!DOCTYPE svg
PUBLIC "-//W3C//DTD SVG 1.1//EN"
       "http://www.w3.org/Graphics/SVG/1.1/DTD/svg11.dtd">
<svg version="1.1" xmlns="http://www.w3.org/2000/svg" xmlns:xlink="http://www.w3.org/1999/xlink" viewBox="0 0 18.584 17.8027">
 <g>
  <rect height="17.8027" opacity="0" width="18.584" x="0" y="0"/>
  <path d="M12.3673 4.43359L10.9747 4.43359C10.2421 2.59165 8.45696 1.31836 6.32812 1.31836C3.52539 1.31836 1.32812 3.52539 1.32812 6.32812C1.32812 8.65789 2.84637 10.5693 4.9707 11.1433L4.9707 12.5067C2.12673 11.8887 0 9.35776 0 6.32812C0 2.83203 2.83203 0 6.32812 0C9.16408 0 11.5631 1.8635 12.3673 4.43359Z" fill="white" fill-opacity="0.85"/>
  <path d="M7.46094 17.0898L15.1465 17.0898C16.7969 17.0898 17.6367 16.2793 17.6367 14.6387L17.6367 6.88477C17.6367 5.24414 16.7969 4.43359 15.1465 4.43359L7.46094 4.43359C5.80078 4.43359 4.9707 5.24414 4.9707 6.88477L4.9707 14.6387C4.9707 16.2793 5.80078 17.0898 7.46094 17.0898ZM7.48047 15.6836C6.77734 15.6836 6.38672 15.3027 6.38672 14.5605L6.38672 6.96289C6.38672 6.2207 6.77734 5.83984 7.48047 5.83984L15.127 5.83984C15.8301 5.83984 16.2207 6.2207 16.2207 6.96289L16.2207 14.5605C16.2207 15.3027 15.8301 15.6836 15.127 15.6836Z" fill="white" fill-opacity="0.85"/>
 </g>
</svg>
