<?xml version="1.0" encoding="UTF-8"?>
<!--Generator: Apple Native CoreSVG 326-->
<!DOCTYPE svg
PUBLIC "-//W3C//DTD SVG 1.1//EN"
       "http://www.w3.org/Graphics/SVG/1.1/DTD/svg11.dtd">
<svg version="1.1" xmlns="http://www.w3.org/2000/svg" xmlns:xlink="http://www.w3.org/1999/xlink" viewBox="0 0 16.1328 15.7715">
 <g>
  <rect height="15.7715" opacity="0" width="16.1328" x="0" y="0"/>
  <path d="M15.7715 7.89062C15.7715 12.2363 12.2363 15.7715 7.88086 15.7715C3.53516 15.7715 0 12.2363 0 7.89062C0 3.54492 3.53516 0.00976562 7.88086 0.00976562C12.2363 0.00976562 15.7715 3.54492 15.7715 7.89062ZM5.46875 4.375C4.56055 4.375 4.0918 4.84375 4.0918 5.74219L4.0918 10.3223C4.0918 11.2207 4.56055 11.6797 5.46875 11.6797L10.1562 11.6797C10.918 11.6797 11.3867 11.2207 11.3867 10.3223L11.3867 6.30859L10.4785 7.2168L10.4785 10.2734C10.4785 10.6152 10.3223 10.7617 10.1465 10.7617L5.48828 10.7617C5.16602 10.7617 5.00977 10.6152 5.00977 10.2734L5.00977 5.79102C5.00977 5.43945 5.16602 5.29297 5.48828 5.29297L8.59375 5.29297L9.51172 4.375ZM7.01172 8.06641L6.63086 8.86719C6.55273 9.0332 6.72852 9.19922 6.88477 9.14062L7.74414 8.78906L11.3477 5.18555L10.6055 4.45312ZM11.3379 3.73047L10.9668 4.0918L11.709 4.82422L12.0508 4.43359C12.2266 4.24805 12.2363 4.00391 12.0508 3.82812L11.9531 3.7207C11.7773 3.54492 11.5039 3.56445 11.3379 3.73047Z" fill="white" fill-opacity="0.85"/>
 </g>
</svg>
