<svg version="1.1" xmlns="http://www.w3.org/2000/svg" xmlns:xlink="http://www.w3.org/1999/xlink" viewBox="0 0 16.7285 16.3379">
 <g>
  <rect height="16.3379" opacity="0" width="16.7285" x="0" y="0"/>
  <path d="M12.6562 2.46094L12.6562 3.68164L11.25 3.68164L11.25 2.53906C11.25 1.79688 10.8496 1.41602 10.1465 1.41602L2.50977 1.41602C1.80664 1.41602 1.40625 1.79688 1.40625 2.53906L1.40625 10.1367C1.40625 10.8789 1.80664 11.2598 2.50977 11.2598L3.71094 11.2598L3.71094 12.666L2.49023 12.666C0.820312 12.666 0 11.8555 0 10.2148L0 2.46094C0 0.820312 0.820312 0.00976562 2.49023 0.00976562L10.166 0.00976562C11.8262 0.00976562 12.6562 0.820312 12.6562 2.46094Z" fill="var(--color-primary)"/>
  <path d="M6.20117 16.3379L13.877 16.3379C15.5371 16.3379 16.3672 15.5273 16.3672 13.8867L16.3672 6.13281C16.3672 4.49219 15.5371 3.68164 13.877 3.68164L6.20117 3.68164C4.53125 3.68164 3.71094 4.49219 3.71094 6.13281L3.71094 13.8867C3.71094 15.5273 4.53125 16.3379 6.20117 16.3379ZM6.2207 14.9316C5.51758 14.9316 5.11719 14.5508 5.11719 13.8086L5.11719 6.21094C5.11719 5.46875 5.51758 5.08789 6.2207 5.08789L13.8574 5.08789C14.5605 5.08789 14.9609 5.46875 14.9609 6.21094L14.9609 13.8086C14.9609 14.5508 14.5605 14.9316 13.8574 14.9316Z" fill="var(--color-primary)"/>
  <path d="M8.29102 13.2227L10.0391 11.9336L11.7773 13.2227C12.1875 13.5254 12.6074 13.2031 12.4512 12.7344L11.7578 10.6738L13.5254 9.41406C13.8965 9.14062 13.7793 8.61328 13.2715 8.62305L11.1035 8.64258L10.4395 6.5625C10.293 6.10352 9.77539 6.10352 9.62891 6.5625L8.96484 8.64258L6.80664 8.62305C6.28906 8.61328 6.17188 9.14062 6.55273 9.41406L8.32031 10.6738L7.61719 12.7344C7.46094 13.2031 7.89062 13.5254 8.29102 13.2227Z" fill="var(--color-primary)"/>
 </g>
</svg>
