<?xml version="1.0" encoding="UTF-8"?>
<!--Generator: Apple Native CoreSVG 326-->
<!DOCTYPE svg
PUBLIC "-//W3C//DTD SVG 1.1//EN"
       "http://www.w3.org/Graphics/SVG/1.1/DTD/svg11.dtd">
<svg version="1.1" xmlns="http://www.w3.org/2000/svg" xmlns:xlink="http://www.w3.org/1999/xlink" viewBox="0 0 16.582 18.9941">
 <g>
  <rect height="18.9941" opacity="0" width="16.582" x="0" y="0"/>
  <path d="M8.11523 18.9844C10.2539 18.9844 10.5957 17.4316 11.748 17.4316C12.9297 17.4316 13.125 18.9844 15.5762 18.9844L15.6152 18.9844C15.9473 18.9844 16.2207 18.7109 16.2207 18.3789C16.2207 18.0371 15.9473 17.7637 15.6152 17.7637L15.5762 17.7637C14.7754 17.7637 14.3262 17.4316 13.75 17.0215C13.252 16.6602 12.6172 16.2109 11.748 16.2109C10.8398 16.2109 10.1953 16.6895 9.69727 17.0605C9.16992 17.4609 8.76953 17.7637 8.11523 17.7637C7.45117 17.7637 7.05078 17.4609 6.52344 17.0605C6.02539 16.6895 5.38086 16.2109 4.48242 16.2109C3.60352 16.2109 2.96875 16.6602 2.4707 17.0215C1.89453 17.4316 1.44531 17.7637 0.654297 17.7637L0.615234 17.7637C0.273438 17.7637 0 18.0371 0 18.3789C0 18.7109 0.273438 18.9844 0.615234 18.9844L0.654297 18.9844C3.10547 18.9844 3.30078 17.4316 4.48242 17.4316C5.63477 17.4316 5.9668 18.9844 8.11523 18.9844Z" fill="white" fill-opacity="0.85"/>
  <path d="M8.10547 15.0195C12.2559 15.0195 15.6152 11.6504 15.6152 7.50977C15.6152 3.35938 12.2559 0 8.10547 0C3.96484 0 0.595703 3.35938 0.595703 7.50977C0.595703 11.6504 3.96484 15.0195 8.10547 15.0195ZM3.20312 3.88672C4.29688 2.38281 6.07422 1.41602 8.08594 1.41602C10.1074 1.41602 11.8848 2.38281 12.9883 3.87695C13.3203 4.33594 13.1738 4.87305 12.6074 4.87305L3.58398 4.87305C3.02734 4.87305 2.86133 4.33594 3.20312 3.88672ZM8.0957 9.43359C7.17773 9.43359 6.45508 8.71094 6.45508 7.79297C6.45508 6.88477 7.17773 6.15234 8.0957 6.15234C9.00391 6.15234 9.73633 6.88477 9.73633 7.79297C9.73633 8.71094 9.00391 9.43359 8.0957 9.43359ZM2.24609 9.16992C2.09961 8.66211 2.39258 8.44727 2.80273 8.50586C4.77539 8.79883 6.28906 10.5176 6.26953 12.5781C6.26953 12.9785 5.9668 13.2422 5.53711 13.0371C3.89648 12.2656 2.71484 10.8691 2.24609 9.16992ZM13.9551 9.16992C13.4863 10.8691 12.2949 12.2656 10.6543 13.0371C10.2344 13.2422 9.92188 12.9785 9.92188 12.5781C9.90234 10.5176 11.416 8.79883 13.3984 8.50586C13.7988 8.44727 14.0918 8.66211 13.9551 9.16992Z" fill="white" fill-opacity="0.85"/>
 </g>
</svg>
