<?xml version="1.0" encoding="UTF-8"?>
<!--Generator: Apple Native CoreSVG 326-->
<!DOCTYPE svg
PUBLIC "-//W3C//DTD SVG 1.1//EN"
       "http://www.w3.org/Graphics/SVG/1.1/DTD/svg11.dtd">
<svg version="1.1" xmlns="http://www.w3.org/2000/svg" xmlns:xlink="http://www.w3.org/1999/xlink" viewBox="0 0 16.1328 15.7715">
 <g>
  <rect height="15.7715" opacity="0" width="16.1328" x="0" y="0"/>
  <path d="M7.88086 15.7617C12.2363 15.7617 15.7715 12.2363 15.7715 7.88086C15.7715 3.52539 12.2363 0 7.88086 0C3.53516 0 0 3.52539 0 7.88086C0 12.2363 3.53516 15.7617 7.88086 15.7617ZM7.88086 14.2773C4.3457 14.2773 1.49414 11.416 1.49414 7.88086C1.49414 4.3457 4.3457 1.48438 7.88086 1.48438C11.416 1.48438 14.2773 4.3457 14.2773 7.88086C14.2773 11.416 11.416 14.2773 7.88086 14.2773Z" fill="white" fill-opacity="0.85"/>
  <path d="M5.40039 11.3281L9.96094 11.3281C10.2148 11.3281 10.4199 11.1523 10.4199 10.9082C10.4199 10.6738 10.2148 10.4883 9.96094 10.4883L6.49414 10.4883L6.49414 10.459C7.08008 10.2051 7.35352 9.53125 7.35352 8.86719C7.35352 8.63281 7.34375 8.4082 7.29492 8.23242L9.20898 8.23242C9.41406 8.23242 9.58008 8.07617 9.58008 7.89062C9.58008 7.69531 9.41406 7.54883 9.20898 7.54883L7.10938 7.54883C7.00195 7.08008 6.98242 6.86523 6.98242 6.62109C6.98242 5.74219 7.68555 5.2832 8.58398 5.2832C8.92578 5.2832 9.15039 5.32227 9.32617 5.36133C9.47266 5.39062 9.60938 5.41992 9.7168 5.41992C9.95117 5.41992 10.0977 5.29297 10.0977 5.05859C10.0977 4.83398 9.92188 4.6875 9.73633 4.61914C9.30664 4.46289 9.04297 4.43359 8.48633 4.43359C6.98242 4.43359 5.9668 5.26367 5.9668 6.65039C5.9668 6.91406 5.99609 7.1875 6.10352 7.54883L5.3125 7.54883C5.09766 7.54883 4.94141 7.69531 4.94141 7.89062C4.94141 8.07617 5.09766 8.23242 5.3125 8.23242L6.28906 8.23242C6.34766 8.4668 6.37695 8.70117 6.37695 8.89648C6.37695 9.61914 6.02539 10.1367 5.36133 10.4102C5.11719 10.498 4.9707 10.6348 4.9707 10.8887C4.9707 11.1523 5.14648 11.3281 5.40039 11.3281Z" fill="white" fill-opacity="0.85"/>
 </g>
</svg>
