<?xml version="1.0" encoding="UTF-8"?>
<!--Generator: Apple Native CoreSVG 326-->
<!DOCTYPE svg
PUBLIC "-//W3C//DTD SVG 1.1//EN"
       "http://www.w3.org/Graphics/SVG/1.1/DTD/svg11.dtd">
<svg version="1.1" xmlns="http://www.w3.org/2000/svg" xmlns:xlink="http://www.w3.org/1999/xlink" viewBox="0 0 16.1328 18.7793">
 <g>
  <rect height="18.7793" opacity="0" width="16.1328" x="0" y="0"/>
  <path d="M7.88086 17.2656C12.1875 17.2656 15.7715 13.6914 15.7715 9.38477C15.7715 5.07812 12.1777 1.50391 7.87109 1.50391C3.57422 1.50391 0 5.07812 0 9.38477C0 13.6914 3.58398 17.2656 7.88086 17.2656ZM7.88086 15.7812C4.33594 15.7812 1.50391 12.9395 1.50391 9.38477C1.50391 5.83008 4.32617 2.98828 7.87109 2.98828C11.4258 2.98828 14.2676 5.83008 14.2773 9.38477C14.2871 12.9395 11.4355 15.7812 7.88086 15.7812ZM6.95312 2.01172L8.79883 2.01172L8.79883 0.957031C8.79883 0.429688 8.38867 0 7.87109 0C7.37305 0 6.95312 0.429688 6.95312 0.957031ZM12.627 3.59375L13.9062 4.90234L14.6484 4.15039C14.8438 3.95508 14.9609 3.69141 14.9609 3.45703C14.9609 2.96875 14.5703 2.57812 14.0723 2.57812C13.7793 2.57812 13.5742 2.66602 13.3691 2.86133Z" fill="white" fill-opacity="0.85"/>
  <path d="M7.88086 10.7227C8.62305 10.7227 9.20898 10.1172 9.20898 9.39453C9.20898 8.86719 8.91602 8.41797 8.47656 8.20312L8.47656 4.61914C8.47656 4.27734 8.21289 4.01367 7.87109 4.01367C7.53906 4.01367 7.27539 4.27734 7.27539 4.61914L7.27539 8.20312C6.8457 8.42773 6.55273 8.87695 6.55273 9.39453C6.55273 10.1172 7.13867 10.7227 7.88086 10.7227Z" fill="white" fill-opacity="0.85"/>
 </g>
</svg>
