<?xml version="1.0" encoding="UTF-8"?>
<!--Generator: Apple Native CoreSVG 326-->
<!DOCTYPE svg
PUBLIC "-//W3C//DTD SVG 1.1//EN"
       "http://www.w3.org/Graphics/SVG/1.1/DTD/svg11.dtd">
<svg version="1.1" xmlns="http://www.w3.org/2000/svg" xmlns:xlink="http://www.w3.org/1999/xlink" viewBox="0 0 16.1328 15.7715">
 <g>
  <rect height="15.7715" opacity="0" width="16.1328" x="0" y="0"/>
  <path d="M15.7715 7.89062C15.7715 12.2363 12.2363 15.7715 7.88086 15.7715C3.53516 15.7715 0 12.2363 0 7.89062C0 3.54492 3.53516 0.00976562 7.88086 0.00976562C12.2363 0.00976562 15.7715 3.54492 15.7715 7.89062ZM3.85742 10.3613C3.60352 10.3613 3.37891 10.5566 3.37891 10.8105C3.37891 11.0645 3.61328 11.2598 3.85742 11.2598L11.9141 11.2598C12.1582 11.2598 12.3926 11.0645 12.3926 10.8105C12.3926 10.5566 12.168 10.3613 11.9141 10.3613ZM5.68359 9.24805C5.68359 9.45312 5.72266 9.6582 5.78125 9.85352L9.98047 9.85352C10.0488 9.6582 10.0781 9.45312 10.0781 9.24805C10.0781 8.05664 9.08203 7.05078 7.88086 7.05078C6.68945 7.05078 5.68359 8.05664 5.68359 9.24805ZM3.86719 8.70117C3.58398 8.70117 3.37891 8.90625 3.37891 9.16016C3.37891 9.4043 3.58398 9.60938 3.86719 9.60938L4.69727 9.60938C4.98047 9.60938 5.19531 9.41406 5.19531 9.16016C5.19531 8.89648 4.98047 8.70117 4.69727 8.70117ZM11.0742 8.70117C10.791 8.70117 10.5664 8.89648 10.5664 9.16016C10.5664 9.41406 10.791 9.60938 11.0742 9.60938L11.9043 9.60938C12.1875 9.60938 12.3926 9.4043 12.3926 9.16016C12.3926 8.90625 12.1875 8.70117 11.9043 8.70117ZM4.6875 6.06445C4.52148 6.25 4.52148 6.52344 4.72656 6.72852L5.32227 7.32422C5.51758 7.51953 5.81055 7.53906 5.99609 7.35352C6.17188 7.16797 6.15234 6.875 5.95703 6.67969L5.36133 6.08398C5.15625 5.87891 4.87305 5.88867 4.6875 6.06445ZM10.4102 6.08398L9.81445 6.67969C9.60938 6.88477 9.60938 7.16797 9.78516 7.35352C9.96094 7.5293 10.2539 7.5293 10.459 7.32422L11.0449 6.72852C11.2402 6.52344 11.25 6.25 11.0742 6.06445C10.8984 5.86914 10.6055 5.88867 10.4102 6.08398ZM7.43164 3.4375L7.43164 4.81445L7.45117 5.03906L7.46094 5.04883L6.96289 4.56055C6.875 4.48242 6.76758 4.43359 6.66016 4.43359C6.42578 4.43359 6.26953 4.59961 6.26953 4.81445C6.26953 4.93164 6.29883 5.01953 6.39648 5.11719L7.57812 6.21094C7.68555 6.29883 7.7832 6.34766 7.88086 6.34766C7.98828 6.34766 8.08594 6.29883 8.18359 6.21094L9.375 5.11719C9.47266 5.01953 9.50195 4.93164 9.50195 4.81445C9.50195 4.59961 9.33594 4.43359 9.11133 4.43359C9.00391 4.43359 8.87695 4.48242 8.80859 4.56055L8.36914 5.00977L8.32031 5.06836L8.33984 4.81445L8.33984 3.4375C8.33984 3.17383 8.14453 2.94922 7.88086 2.94922C7.62695 2.94922 7.43164 3.17383 7.43164 3.4375Z" fill="white" fill-opacity="0.85"/>
 </g>
</svg>
