<?xml version="1.0" encoding="UTF-8"?>
<!--Generator: Apple Native CoreSVG 326-->
<!DOCTYPE svg
PUBLIC "-//W3C//DTD SVG 1.1//EN"
       "http://www.w3.org/Graphics/SVG/1.1/DTD/svg11.dtd">
<svg version="1.1" xmlns="http://www.w3.org/2000/svg" xmlns:xlink="http://www.w3.org/1999/xlink" viewBox="0 0 27.8906 12.7246">
 <g>
  <rect height="12.7246" opacity="0" width="27.8906" x="0" y="0"/>
  <path d="M2.05078 10.9473L4.52148 10.9473L4.52148 9.54102L2.12891 9.54102C1.68945 9.54102 1.40625 9.20898 1.40625 8.66211L1.40625 7.5293C1.40625 6.20117 2.32422 5.43945 4.18945 5.20508L7.34375 4.80469L10.7129 2.71484C12.4023 1.66016 13.4082 1.41602 16.3477 1.41602L22.3633 1.41602C23.6816 1.41602 24.4141 1.76758 25.0391 2.64648L25.3906 3.14453C25.8398 3.79883 26.123 4.63867 26.123 5.3418L26.123 8.67188C26.123 9.26758 25.8984 9.54102 25.4004 9.54102L23.4375 9.54102L23.4375 10.9473L25.4785 10.9473C26.9043 10.9473 27.5293 10.2246 27.5293 8.57422L27.5293 5.3418C27.5293 4.38477 27.168 3.23242 26.5527 2.35352L26.2012 1.8457C25.2832 0.517578 24.209 0 22.3633 0L16.3477 0C13.1543 0 11.8652 0.3125 9.96094 1.51367L6.86523 3.44727L4.01367 3.79883C1.32812 4.13086 0 5.36133 0 7.5293L0 8.84766C0 10.1465 0.78125 10.9473 2.05078 10.9473ZM8.01758 10.9473L20.0195 10.9473L20.0195 9.54102L8.01758 9.54102ZM6.2207 12.7148C7.72461 12.7148 8.90625 11.5332 8.90625 10.0195C8.90625 8.50586 7.72461 7.32422 6.2207 7.32422C4.70703 7.32422 3.52539 8.50586 3.52539 10.0195C3.52539 11.5332 4.70703 12.7148 6.2207 12.7148ZM6.2207 11.2988C5.49805 11.2988 4.93164 10.7422 4.93164 10.0195C4.93164 9.29688 5.49805 8.74023 6.2207 8.74023C6.94336 8.74023 7.5 9.29688 7.5 10.0195C7.5 10.7422 6.94336 11.2988 6.2207 11.2988ZM21.7969 12.7148C23.3105 12.7148 24.4922 11.5332 24.4922 10.0195C24.4922 8.50586 23.3105 7.32422 21.7969 7.32422C20.293 7.32422 19.1113 8.50586 19.1113 10.0195C19.1113 11.5332 20.293 12.7148 21.7969 12.7148ZM21.7969 11.2988C21.084 11.2988 20.5176 10.7422 20.5176 10.0195C20.5176 9.29688 21.084 8.74023 21.7969 8.74023C22.5195 8.74023 23.0859 9.29688 23.0859 10.0195C23.0859 10.7422 22.5195 11.2988 21.7969 11.2988Z" fill="white" fill-opacity="0.85"/>
 </g>
</svg>
