<?xml version="1.0" encoding="UTF-8"?>
<!--Generator: Apple Native CoreSVG 326-->
<!DOCTYPE svg
PUBLIC "-//W3C//DTD SVG 1.1//EN"
       "http://www.w3.org/Graphics/SVG/1.1/DTD/svg11.dtd">
<svg version="1.1" xmlns="http://www.w3.org/2000/svg" xmlns:xlink="http://www.w3.org/1999/xlink" viewBox="0 0 14.7754 14.1309">
 <g>
  <rect height="14.1309" opacity="0" width="14.7754" x="0" y="0"/>
  <path d="M7.08008 14.1309C8.4082 14.1309 9.45312 13.0664 9.45312 11.7383C9.45312 10.4102 8.39844 9.3457 7.08008 9.3457C5.75195 9.3457 4.6875 10.4102 4.6875 11.7383C4.6875 13.0566 5.75195 14.1309 7.08008 14.1309ZM14.4141 12.3926L14.4141 0.400391C13.3008 0.654297 12.3926 1.08398 11.2891 1.77734L7.80273 3.96484L4.58984 4.35547C1.57227 4.7168 0.0878906 6.10352 0.0878906 8.53516L0.0878906 10.0293C0.0878906 11.4844 0.966797 12.3926 2.38281 12.3926L3.78906 12.3926C3.75 12.1777 3.73047 11.9727 3.73047 11.7383C3.73047 9.88281 5.22461 8.38867 7.08008 8.38867C8.92578 8.38867 10.4199 9.88281 10.4199 11.7383C10.4199 11.9727 10.4004 12.1777 10.3516 12.3926ZM0.644531 1.38672L3.51562 1.38672C3.7793 1.38672 4.01367 1.45508 4.18945 1.63086L7.60742 5.04883L8.7793 4.4043L5.19531 0.820312C4.7168 0.341797 4.07227 0.136719 3.35938 0.136719L0.644531 0.136719C0.244141 0.136719 0 0.380859 0 0.751953C0 1.13281 0.244141 1.38672 0.644531 1.38672Z" fill="white" fill-opacity="0.85"/>
 </g>
</svg>
