<?xml version="1.0" encoding="UTF-8"?>
<!--Generator: Apple Native CoreSVG 326-->
<!DOCTYPE svg
PUBLIC "-//W3C//DTD SVG 1.1//EN"
       "http://www.w3.org/Graphics/SVG/1.1/DTD/svg11.dtd">
<svg version="1.1" xmlns="http://www.w3.org/2000/svg" xmlns:xlink="http://www.w3.org/1999/xlink" viewBox="0 0 17.7734 16.5527">
 <g>
  <rect height="16.5527" opacity="0" width="17.7734" x="0" y="0"/>
  <path d="M1.10352 14.541L16.3184 14.541L16.3184 13.9746C16.3184 13.623 16.1133 13.418 15.752 13.418L15.2637 13.418L15.2637 5.42969L15.918 5.42969C16.3965 5.42969 16.6797 5.07812 16.6797 4.72656C16.6797 4.46289 16.5234 4.23828 16.2109 4.04297L9.6875 0.283203C9.375 0.0976562 9.0332 0 8.71094 0C8.37891 0 8.03711 0.0976562 7.72461 0.283203L1.20117 4.04297C0.878906 4.23828 0.732422 4.46289 0.732422 4.72656C0.732422 5.07812 1.01562 5.42969 1.49414 5.42969L2.1582 5.42969L2.1582 13.418L1.66992 13.418C1.30859 13.418 1.10352 13.623 1.10352 13.9746ZM3.47656 13.418L3.47656 4.375L8.44727 1.60156C8.52539 1.55273 8.62305 1.52344 8.71094 1.52344C8.78906 1.52344 8.88672 1.55273 8.96484 1.60156L13.9551 4.375L13.9551 13.418ZM0.703125 16.543L16.709 16.543C17.0898 16.543 17.4121 16.2207 17.4121 15.8301C17.4121 15.4492 17.0898 15.127 16.709 15.127L0.703125 15.127C0.322266 15.127 0 15.4492 0 15.8301C0 16.2207 0.322266 16.543 0.703125 16.543Z" fill="white" fill-opacity="0.85"/>
  <path d="M6.14258 11.1914C6.41602 11.1914 6.60156 10.9863 6.60156 10.6934L6.60156 9.50195L7.03125 9.0918L8.35938 10.9473C8.4668 11.0938 8.59375 11.1914 8.78906 11.1914C9.0332 11.1914 9.22852 11.0059 9.22852 10.7715C9.22852 10.6445 9.16992 10.5469 9.10156 10.4395L7.70508 8.51562L8.99414 7.16797C9.10156 7.04102 9.16016 6.98242 9.16016 6.82617C9.16016 6.61133 8.98438 6.42578 8.75 6.42578C8.61328 6.42578 8.4668 6.50391 8.37891 6.60156L6.62109 8.51562L6.60156 8.51562L6.60156 5.13672C6.60156 4.84375 6.41602 4.63867 6.14258 4.63867C5.86914 4.63867 5.66406 4.83398 5.66406 5.12695L5.66406 10.6934C5.66406 10.9863 5.86914 11.1914 6.14258 11.1914ZM10.5078 11.1914C10.7031 11.1914 10.9473 11.0645 10.9473 10.6934L10.9473 8.38867C10.9473 7.86133 11.1523 7.32422 11.7773 7.32422C11.9531 7.32422 12.1191 7.29492 12.2363 7.20703C12.334 7.14844 12.3926 7.04102 12.3926 6.88477C12.3926 6.5918 12.1777 6.42578 11.8848 6.42578C11.4062 6.42578 11.0645 6.8457 10.957 7.32422L10.9082 7.32422L10.9082 6.89453C10.9082 6.63086 10.7227 6.42578 10.4883 6.42578C10.2441 6.42578 10.0488 6.63086 10.0488 6.89453L10.0488 10.6934C10.0488 10.9863 10.2148 11.1914 10.5078 11.1914Z" fill="white" fill-opacity="0.85"/>
 </g>
</svg>
