<?xml version="1.0" encoding="UTF-8"?>
<!--Generator: Apple Native CoreSVG 326-->
<!DOCTYPE svg
PUBLIC "-//W3C//DTD SVG 1.1//EN"
       "http://www.w3.org/Graphics/SVG/1.1/DTD/svg11.dtd">
<svg version="1.1" xmlns="http://www.w3.org/2000/svg" xmlns:xlink="http://www.w3.org/1999/xlink" viewBox="0 0 17.5879 17.9395">
 <g>
  <rect height="17.9395" opacity="0" width="17.5879" x="0" y="0"/>
  <path d="M9.15041 17.0801L16.582 9.63867C17.1875 9.0332 17.2266 8.67188 17.2266 7.87109L17.2266 4.96094C17.2266 4.10156 17.002 3.83789 16.416 3.26172L14.6777 1.51367C14.1016 0.9375 13.8281 0.712891 12.9785 0.712891L10.0684 0.712891C9.26759 0.712891 8.90627 0.742188 8.3008 1.34766L0.859391 8.78906C-0.273422 9.92188-0.302719 11.0938 0.869156 12.2461L5.69337 17.0703C6.86525 18.2324 8.01759 18.2227 9.15041 17.0801ZM11.6699 6.99219C11.0352 6.99219 10.5567 6.49414 10.5567 5.86914C10.5567 5.25391 11.0352 4.75586 11.6699 4.75586C12.3145 4.75586 12.793 5.25391 12.793 5.86914C12.793 6.49414 12.3145 6.99219 11.6699 6.99219Z" fill="white" fill-opacity="0.85"/>
 </g>
</svg>
