<?xml version="1.0" encoding="UTF-8"?>
<!--Generator: Apple Native CoreSVG 326-->
<!DOCTYPE svg
PUBLIC "-//W3C//DTD SVG 1.1//EN"
       "http://www.w3.org/Graphics/SVG/1.1/DTD/svg11.dtd">
<svg version="1.1" xmlns="http://www.w3.org/2000/svg" xmlns:xlink="http://www.w3.org/1999/xlink" viewBox="0 0 16.1328 15.7715">
 <g>
  <rect height="15.7715" opacity="0" width="16.1328" x="0" y="0"/>
  <path d="M7.88086 15.7617C12.2363 15.7617 15.7715 12.2363 15.7715 7.88086C15.7715 3.52539 12.2363 0 7.88086 0C3.53516 0 0 3.52539 0 7.88086C0 12.2363 3.53516 15.7617 7.88086 15.7617ZM7.88086 14.2773C4.3457 14.2773 1.49414 11.416 1.49414 7.88086C1.49414 4.3457 4.3457 1.48438 7.88086 1.48438C11.416 1.48438 14.2773 4.3457 14.2773 7.88086C14.2773 11.416 11.416 14.2773 7.88086 14.2773Z" fill="white" fill-opacity="0.85"/>
  <path d="M3.80859 7.22656C4.04297 7.29492 4.28711 7.32422 4.55078 7.32422C5.99609 7.32422 7.09961 6.23047 7.09961 4.77539C7.09961 4.46289 7.05078 4.16992 6.95312 3.89648C5.35156 4.26758 4.0918 5.5957 3.80859 7.22656ZM7.86133 12.0215C7.96875 12.0215 8.06641 12.0215 8.17383 12.0117C8.06641 11.6992 8.01758 11.377 8.01758 11.0352C8.01758 9.27734 9.43359 7.85156 11.1914 7.85156C11.4551 7.85156 11.7188 7.89062 11.9824 7.96875C11.9824 7.94922 11.9824 7.92969 11.9824 7.91016C11.9824 5.6543 10.1074 3.78906 7.86133 3.78906C7.76367 3.78906 7.67578 3.78906 7.56836 3.79883C7.67578 4.10156 7.72461 4.43359 7.72461 4.77539C7.72461 6.52344 6.29883 7.93945 4.55078 7.93945C4.28711 7.93945 4.01367 7.91016 3.75 7.8418C3.75 7.87109 3.75 7.88086 3.75 7.91016C3.75 10.1562 5.625 12.0215 7.86133 12.0215ZM8.79883 11.9141C10.3906 11.5332 11.6504 10.2148 11.9238 8.59375C11.6797 8.51562 11.4551 8.47656 11.1914 8.47656C9.73633 8.47656 8.64258 9.58008 8.64258 11.0352C8.64258 11.3574 8.69141 11.6504 8.79883 11.9141Z" fill="white" fill-opacity="0.85"/>
 </g>
</svg>
