<svg version="1.1" xmlns="http://www.w3.org/2000/svg" xmlns:xlink="http://www.w3.org/1999/xlink" width="17.3828" height="17.1582" viewBox="0 0 17.3828 17.1582">
 <g>
  <rect height="17.1582" opacity="0" width="17.3828" x="0" y="0"/>
  <path d="M4.70703 17.1582C5.04883 17.1582 5.2832 16.9824 5.69336 16.6016L8.45703 14.043L13.3594 14.043C15.7617 14.043 17.0215 12.7539 17.0215 10.3906L17.0215 4.70703C17.0215 2.34375 15.7617 1.04492 13.3594 1.04492L3.66211 1.04492C1.25977 1.04492 0 2.34375 0 4.70703L0 10.3906C0 12.7539 1.25977 14.043 3.66211 14.043L3.93555 14.043L3.93555 16.2793C3.93555 16.8066 4.21875 17.1582 4.70703 17.1582Z" fill="var(--color-tertiary)"/>
  <path d="M4.49219 5.41992C4.20898 5.41992 3.98438 5.19531 3.98438 4.90234C3.98438 4.62891 4.20898 4.4043 4.49219 4.4043L12.5 4.4043C12.7832 4.4043 13.0176 4.62891 13.0176 4.90234C13.0176 5.19531 12.7832 5.41992 12.5 5.41992ZM4.49219 8.00781C4.20898 8.00781 3.98438 7.7832 3.98438 7.49023C3.98438 7.2168 4.20898 6.98242 4.49219 6.98242L12.5 6.98242C12.7832 6.98242 13.0176 7.2168 13.0176 7.49023C13.0176 7.7832 12.7832 8.00781 12.5 8.00781ZM4.49219 10.5859C4.20898 10.5859 3.98438 10.3613 3.98438 10.0781C3.98438 9.78516 4.20898 9.56055 4.49219 9.56055L9.67773 9.56055C9.96094 9.56055 10.1855 9.78516 10.1855 10.0781C10.1855 10.3613 9.96094 10.5859 9.67773 10.5859Z" fill="var(--color-primary)"/>
 </g>
</svg>
