<?xml version="1.0" encoding="UTF-8"?>
<!--Generator: Apple Native CoreSVG 326-->
<!DOCTYPE svg
PUBLIC "-//W3C//DTD SVG 1.1//EN"
       "http://www.w3.org/Graphics/SVG/1.1/DTD/svg11.dtd">
<svg version="1.1" xmlns="http://www.w3.org/2000/svg" xmlns:xlink="http://www.w3.org/1999/xlink" viewBox="0 0 18.2812 11.3184">
 <g>
  <rect height="11.3184" opacity="0" width="18.2812" x="0" y="0"/>
  <path d="M13.7793 11.3086C15.0293 11.3086 15.9863 10.752 16.4648 9.73633L16.5137 9.73633L16.5137 10.5664C16.5137 11.0254 16.7969 11.3086 17.207 11.3086C17.627 11.3086 17.9199 11.0156 17.9199 10.5566L17.9199 3.54492C17.9199 3.08594 17.627 2.7832 17.207 2.7832C16.7969 2.7832 16.5137 3.08594 16.5137 3.54492L16.5137 4.35547L16.4648 4.35547C15.9766 3.36914 14.9902 2.79297 13.7793 2.79297C11.7285 2.79297 10.3613 4.50195 10.3613 7.05078C10.3613 9.60938 11.7285 11.3086 13.7793 11.3086ZM14.1504 10.0293C12.7539 10.0293 11.8848 8.88672 11.8848 7.05078C11.8848 5.21484 12.7539 4.0625 14.1504 4.0625C15.5566 4.0625 16.4648 5.24414 16.4648 7.06055C16.4648 8.87695 15.5664 10.0293 14.1504 10.0293Z" fill="white" fill-opacity="0.85"/>
  <path d="M0.742188 11.3086C1.20117 11.3086 1.43555 11.1328 1.60156 10.6445L2.49023 8.16406L6.8457 8.16406L7.73438 10.6445C7.90039 11.1328 8.13477 11.3086 8.59375 11.3086C9.05273 11.3086 9.35547 11.0254 9.35547 10.5859C9.35547 10.4395 9.32617 10.3027 9.25781 10.1172L5.80078 0.810547C5.5957 0.263672 5.23438 0 4.66797 0C4.11133 0 3.75 0.263672 3.55469 0.810547L0.0976562 10.127C0.0292969 10.3125 0 10.4395 0 10.5957C0 11.0352 0.283203 11.3086 0.742188 11.3086ZM2.91016 6.8457L4.63867 1.94336L4.6875 1.94336L6.41602 6.8457Z" fill="white" fill-opacity="0.85"/>
 </g>
</svg>
