<?xml version="1.0" encoding="UTF-8"?>
<!--Generator: Apple Native CoreSVG 326-->
<!DOCTYPE svg
PUBLIC "-//W3C//DTD SVG 1.1//EN"
       "http://www.w3.org/Graphics/SVG/1.1/DTD/svg11.dtd">
<svg version="1.1" xmlns="http://www.w3.org/2000/svg" xmlns:xlink="http://www.w3.org/1999/xlink" viewBox="0 0 17.3828 17.041">
 <g>
  <rect height="17.041" opacity="0" width="17.3828" x="0" y="0"/>
  <path d="M4.90234 17.041C5.33203 17.041 5.625 16.8164 6.15234 16.3379L8.76953 13.9941L13.3594 13.9941C15.7617 13.9941 17.0215 12.6953 17.0215 10.332L17.0215 4.64844C17.0215 2.28516 15.7617 0.986328 13.3594 0.986328L3.66211 0.986328C1.25977 0.986328 0 2.28516 0 4.64844L0 10.332C0 12.6953 1.25977 13.9941 3.66211 13.9941L3.94531 13.9941L3.94531 15.9375C3.94531 16.6113 4.28711 17.041 4.90234 17.041ZM5.26367 15.4395L5.26367 13.2422C5.26367 12.7637 5.08789 12.5879 4.60938 12.5879L3.66211 12.5879C2.08984 12.5879 1.40625 11.8359 1.40625 10.332L1.40625 4.64844C1.40625 3.1543 2.08984 2.40234 3.66211 2.40234L13.3594 2.40234C14.9316 2.40234 15.6152 3.1543 15.6152 4.64844L15.6152 10.332C15.6152 11.8359 14.9316 12.5879 13.3594 12.5879L8.69141 12.5879C8.22266 12.5879 7.97852 12.6562 7.66602 12.9883Z" fill="white" fill-opacity="0.85"/>
  <path d="M4.63867 5.44922L12.3535 5.44922C12.627 5.44922 12.8516 5.23438 12.8516 4.95117C12.8516 4.6875 12.627 4.46289 12.3535 4.46289L4.63867 4.46289C4.36523 4.46289 4.15039 4.6875 4.15039 4.95117C4.15039 5.23438 4.36523 5.44922 4.63867 5.44922ZM4.63867 7.93945L12.3535 7.93945C12.627 7.93945 12.8516 7.72461 12.8516 7.44141C12.8516 7.17773 12.627 6.94336 12.3535 6.94336L4.63867 6.94336C4.36523 6.94336 4.15039 7.17773 4.15039 7.44141C4.15039 7.72461 4.36523 7.93945 4.63867 7.93945ZM4.63867 10.4297L9.62891 10.4297C9.90234 10.4297 10.127 10.2148 10.127 9.94141C10.127 9.6582 9.90234 9.43359 9.62891 9.43359L4.63867 9.43359C4.36523 9.43359 4.15039 9.6582 4.15039 9.94141C4.15039 10.2148 4.36523 10.4297 4.63867 10.4297Z" fill="white" fill-opacity="0.85"/>
 </g>
</svg>
