<?xml version="1.0" encoding="UTF-8"?>
<!--Generator: Apple Native CoreSVG 326-->
<!DOCTYPE svg
PUBLIC "-//W3C//DTD SVG 1.1//EN"
       "http://www.w3.org/Graphics/SVG/1.1/DTD/svg11.dtd">
<svg version="1.1" xmlns="http://www.w3.org/2000/svg" xmlns:xlink="http://www.w3.org/1999/xlink" viewBox="0 0 23.8867 15.7543">
 <g>
  <rect height="15.7543" opacity="0" width="23.8867" x="0" y="0"/>
  <path d="M5.60547 7.05196L19.8535 7.05196C20.2246 7.05196 20.5273 6.75899 20.5273 6.39766C20.5273 6.02657 20.2246 5.7336 19.8535 5.7336L5.60547 5.7336C5.24414 5.7336 4.95117 6.02657 4.95117 6.39766C4.95117 6.75899 5.24414 7.05196 5.60547 7.05196ZM5.60547 10.968L19.8535 10.968C20.2246 10.968 20.5273 10.675 20.5273 10.3039C20.5273 9.94258 20.2246 9.64962 19.8535 9.64962L5.60547 9.64962C5.24414 9.64962 4.95117 9.94258 4.95117 10.3039C4.95117 10.675 5.24414 10.968 5.60547 10.968ZM5.60547 14.8742L19.8535 14.8742C20.2246 14.8742 20.5273 14.5813 20.5273 14.2199C20.5273 13.8488 20.2246 13.5656 19.8535 13.5656L5.60547 13.5656C5.24414 13.5656 4.95117 13.8488 4.95117 14.2199C4.95117 14.5813 5.24414 14.8742 5.60547 14.8742Z" fill="white" fill-opacity="0.85"/>
  <path d="M0.751953 4.31758L3.45703 2.65743C3.83789 2.43282 3.82812 1.99337 3.45703 1.76876L0.751953 0.1086C0.351562-0.145307 0 0.0695371 0 0.50899L0 3.91719C0 4.36641 0.351562 4.56172 0.751953 4.31758ZM6.01562 3.53633L19.4629 3.53633C20.1758 3.53633 20.5273 3.19454 20.5273 2.49141L20.5273 1.91524C20.5273 1.22188 20.1758 0.870318 19.4629 0.870318L6.01562 0.870318C5.30273 0.870318 4.95117 1.22188 4.95117 1.91524L4.95117 2.49141C4.95117 3.19454 5.30273 3.53633 6.01562 3.53633Z" fill="white" fill-opacity="0.85"/>
 </g>
</svg>
