<?xml version="1.0" encoding="UTF-8"?>
<!--Generator: Apple Native CoreSVG 326-->
<!DOCTYPE svg
PUBLIC "-//W3C//DTD SVG 1.1//EN"
       "http://www.w3.org/Graphics/SVG/1.1/DTD/svg11.dtd">
<svg version="1.1" xmlns="http://www.w3.org/2000/svg" xmlns:xlink="http://www.w3.org/1999/xlink" viewBox="0 0 13.3691 16.4746">
 <g>
  <rect height="16.4746" opacity="0" width="13.3691" x="0" y="0"/>
  <path d="M3.55469 4.50195C3.23242 4.50195 2.99805 4.25781 2.99805 3.94531C2.99805 3.64258 3.23242 3.4082 3.55469 3.4082L9.45312 3.4082C9.76562 3.4082 10 3.64258 10 3.94531C10 4.25781 9.76562 4.50195 9.45312 4.50195ZM3.55469 7.26562C3.23242 7.26562 2.99805 7.02148 2.99805 6.70898C2.99805 6.40625 3.23242 6.17188 3.55469 6.17188L9.45312 6.17188C9.76562 6.17188 10 6.40625 10 6.70898C10 7.02148 9.76562 7.26562 9.45312 7.26562ZM3.55469 10.0293C3.23242 10.0293 2.99805 9.78516 2.99805 9.49219C2.99805 9.17969 3.23242 8.93555 3.55469 8.93555L6.31836 8.93555C6.64062 8.93555 6.86523 9.17969 6.86523 9.49219C6.86523 9.78516 6.64062 10.0293 6.31836 10.0293ZM0 13.9746C0 15.6445 0.810547 16.4648 2.45117 16.4648L10.5469 16.4648C12.1875 16.4648 13.0078 15.6445 13.0078 13.9746L13.0078 2.49023C13.0078 0.830078 12.1875 0 10.5469 0L2.45117 0C0.810547 0 0 0.830078 0 2.49023Z" fill="white" fill-opacity="0.85"/>
 </g>
</svg>
