<svg version="1.1" xmlns="http://www.w3.org/2000/svg" xmlns:xlink="http://www.w3.org/1999/xlink" viewBox="0 0 22.7441 15.0879">
 <g>
  <rect height="15.0879" opacity="0" width="22.7441" x="0" y="0"/>
  <path d="M0 7.53906C0 9.99023 0.78125 12.2461 2.11914 14.1016C2.39258 14.4727 2.86133 14.5117 3.20312 14.2285C3.52539 13.9648 3.56445 13.5352 3.32031 13.1934C2.16797 11.6016 1.50391 9.63867 1.50391 7.53906C1.50391 5.42969 2.16797 3.47656 3.32031 1.875C3.56445 1.54297 3.53516 1.11328 3.20312 0.839844C2.86133 0.556641 2.39258 0.605469 2.11914 0.976562C0.78125 2.82227 0 5.08789 0 7.53906ZM22.3828 7.53906C22.3828 5.08789 21.6016 2.82227 20.2637 0.976562C19.9902 0.605469 19.5215 0.556641 19.1797 0.839844C18.8477 1.11328 18.8184 1.54297 19.0625 1.875C20.2148 3.47656 20.8789 5.42969 20.8789 7.53906C20.8789 9.63867 20.2148 11.6016 19.0625 13.1934C18.8184 13.5352 18.8574 13.9648 19.1797 14.2285C19.5215 14.5117 19.9902 14.4727 20.2637 14.1016C21.6016 12.2461 22.3828 9.99023 22.3828 7.53906Z" fill="var(--color-primary)"/>
  <path d="M11.1914 15.0781C15.3613 15.0781 18.7305 11.709 18.7305 7.53906C18.7305 3.36914 15.3613 0 11.1914 0C7.03125 0 3.65234 3.36914 3.65234 7.53906C3.65234 11.709 7.03125 15.0781 11.1914 15.0781ZM11.1914 13.5938C7.85156 13.5938 5.13672 10.8789 5.13672 7.53906C5.13672 4.19922 7.85156 1.48438 11.1914 1.48438C14.5312 1.48438 17.2461 4.19922 17.2461 7.53906C17.2461 10.8789 14.5312 13.5938 11.1914 13.5938Z" fill="var(--color-primary)"/>
  <path d="M10.8984 11.709C11.8652 11.709 12.6465 10.9277 12.6465 9.95117C12.6465 9.27734 12.2656 8.7207 11.709 8.41797C11.5527 8.32031 11.4844 8.20312 11.4844 7.93945L11.4844 4.15039C11.4844 3.82812 11.2207 3.56445 10.8984 3.56445C10.5762 3.56445 10.3125 3.82812 10.3125 4.15039L10.3125 7.93945C10.3125 8.20312 10.2539 8.32031 10.0879 8.41797C9.53125 8.7207 9.15039 9.27734 9.15039 9.95117C9.15039 10.9277 9.93164 11.709 10.8984 11.709ZM12.7832 5.27344L14.2383 5.27344C14.4629 5.27344 14.6582 5.08789 14.6582 4.86328C14.6582 4.62891 14.4629 4.44336 14.2383 4.44336L12.7832 4.44336C12.5488 4.44336 12.3633 4.62891 12.3633 4.86328C12.3633 5.08789 12.5488 5.27344 12.7832 5.27344ZM12.7832 6.66992L14.2383 6.66992C14.4629 6.66992 14.6582 6.48438 14.6582 6.25C14.6582 6.02539 14.4629 5.83984 14.2383 5.83984L12.7832 5.83984C12.5488 5.83984 12.3633 6.02539 12.3633 6.25C12.3633 6.48438 12.5488 6.66992 12.7832 6.66992ZM12.7832 8.07617L14.2383 8.07617C14.4629 8.07617 14.6582 7.88086 14.6582 7.64648C14.6582 7.43164 14.4629 7.23633 14.2383 7.23633L12.7832 7.23633C12.5488 7.23633 12.3633 7.43164 12.3633 7.64648C12.3633 7.88086 12.5488 8.07617 12.7832 8.07617Z" fill="var(--color-primary)"/>
 </g>
</svg>
