<svg version="1.1" xmlns="http://www.w3.org/2000/svg" xmlns:xlink="http://www.w3.org/1999/xlink" viewBox="0 0 16.1328 15.7715">
 <g>
  <rect height="15.7715" opacity="0" width="16.1328" x="0" y="0"/>
  <path d="M7.88086 15.7617C12.2363 15.7617 15.7715 12.2363 15.7715 7.88086C15.7715 3.52539 12.2363 0 7.88086 0C3.53516 0 0 3.52539 0 7.88086C0 12.2363 3.53516 15.7617 7.88086 15.7617ZM7.88086 14.2773C4.3457 14.2773 1.49414 11.416 1.49414 7.88086C1.49414 4.3457 4.3457 1.48438 7.88086 1.48438C11.416 1.48438 14.2773 4.3457 14.2773 7.88086C14.2773 11.416 11.416 14.2773 7.88086 14.2773Z" fill="var(--color-primary)"/>
  <path d="M7.82227 7.2168C10.4199 7.2168 11.8848 6.55273 11.8848 5.60547C11.8848 4.7168 10.6641 4.19922 8.98438 4.19922C7.71484 4.19922 6.74805 4.43359 6.02539 4.78516C5.76172 4.91211 5.70312 5.18555 5.80078 5.38086C5.9082 5.5957 6.19141 5.6543 6.40625 5.55664C7.05078 5.29297 7.85156 5.0293 8.94531 5.0293C10.2832 5.0293 10.9961 5.32227 10.9961 5.5957C10.9961 5.91797 9.87305 6.36719 7.7832 6.36719C5.76172 6.36719 4.76562 5.98633 4.76562 5.29297C4.76562 4.90234 5.11719 4.47266 6.2793 4.10156C6.54297 4.00391 6.67969 3.7793 6.60156 3.53516C6.51367 3.31055 6.30859 3.21289 6.00586 3.30078C4.56055 3.74023 3.87695 4.50195 3.87695 5.3125C3.87695 6.57227 5.25391 7.2168 7.82227 7.2168ZM7.93945 8.58398C9.23828 8.58398 10.4297 8.36914 11.2793 8.02734C11.4941 7.93945 11.6016 7.70508 11.4941 7.5C11.3965 7.30469 11.1719 7.26562 10.9375 7.35352C10.2051 7.62695 9.12109 7.82227 7.93945 7.82227C7.07031 7.82227 6.11328 7.72461 5.30273 7.49023C5.06836 7.42188 4.85352 7.5 4.78516 7.72461C4.72656 7.93945 4.84375 8.1543 5.09766 8.22266C5.95703 8.4668 7.03125 8.58398 7.93945 8.58398ZM8.21289 9.93164C9.28711 9.92188 10.3027 9.78516 11.25 9.46289C11.543 9.35547 11.5918 9.10156 11.5137 8.92578C11.4453 8.7207 11.2207 8.66211 10.957 8.75C10.0293 9.04297 9.15039 9.17969 8.21289 9.17969C7.80273 9.17969 7.39258 9.14062 7.06055 9.10156C6.79688 9.07227 6.63086 9.18945 6.58203 9.38477C6.54297 9.59961 6.66016 9.79492 6.94336 9.85352C7.25586 9.91211 7.70508 9.94141 8.21289 9.93164ZM7.83203 11.2109C8.59375 11.2891 9.49219 11.2695 10.2832 11.0645C10.5469 10.9863 10.6348 10.7617 10.5859 10.5664C10.5078 10.3516 10.3027 10.2637 10.0391 10.332C9.39453 10.498 8.65234 10.5469 7.95898 10.459C7.69531 10.4395 7.5 10.5664 7.4707 10.7812C7.45117 10.9961 7.55859 11.1719 7.83203 11.2109ZM7.54883 12.5195C7.8418 12.5488 8.11523 12.5488 8.39844 12.5195C8.65234 12.4805 8.7793 12.3145 8.76953 12.0996C8.74023 11.9141 8.58398 11.7578 8.32031 11.7969C8.0957 11.8262 7.85156 11.8262 7.62695 11.7969C7.36328 11.7578 7.20703 11.9238 7.17773 12.0996C7.1582 12.2949 7.27539 12.4805 7.54883 12.5195Z" fill="var(--color-primary)"/>
 </g>
</svg>
