<svg version="1.1" xmlns="http://www.w3.org/2000/svg" xmlns:xlink="http://www.w3.org/1999/xlink" viewBox="0 0 14.5898 14.4238">
 <g>
  <rect height="14.4238" opacity="0" width="14.5898" x="0" y="0"/>
  <path d="M14.2285 2.64648L14.2285 11.9629C14.2285 13.6035 13.4082 14.4238 11.7383 14.4238L2.49023 14.4238C0.830078 14.4238 0 13.6035 0 11.9629L0 2.64648C0 1.00586 0.830078 0.185547 2.49023 0.185547L11.7383 0.185547C13.4082 0.185547 14.2285 1.00586 14.2285 2.64648ZM2.50977 1.60156C1.80664 1.60156 1.40625 1.97266 1.40625 2.71484L1.40625 11.8945C1.40625 12.627 1.80664 13.0078 2.50977 13.0078L11.7188 13.0078C12.4219 13.0078 12.8223 12.627 12.8223 11.8945L12.8223 2.71484C12.8223 1.97266 12.4219 1.60156 11.7188 1.60156Z" fill="var(--color-primary)"/>
  <path d="M5.40017 6.94609L5.49805 10.3418C5.49805 10.498 5.625 10.6152 5.79102 10.6152C5.97656 10.6152 6.07422 10.498 6.07422 10.3418L5.99978 7.544L6.80664 8.34857L6.80664 10.3418C6.80664 10.498 6.92383 10.6152 7.10938 10.6152C7.28516 10.6152 7.41211 10.498 7.41211 10.3418L7.41211 8.95231L8.1521 9.6902L8.13477 10.3418C8.13477 10.498 8.24219 10.6152 8.41797 10.6152C8.58398 10.6152 8.7207 10.498 8.7207 10.3418L8.7229 10.2594L9.86017 11.3934C9.73256 11.6615 9.47268 11.7969 9.10156 11.7969L5.11719 11.7969C4.58984 11.7969 4.29688 11.5234 4.27734 10.9863L4.05573 5.60548ZM8.99414 3.75L8.99414 4.33594L10.7715 4.33594C10.9668 4.33594 11.1426 4.50195 11.1328 4.69727C11.123 4.89258 10.9668 5.05859 10.7715 5.05859L10.1953 5.05859L10.0373 8.89474L8.79233 7.64975L8.83789 5.9375C8.83789 5.77148 8.73047 5.6543 8.54492 5.6543C8.37891 5.6543 8.25195 5.77148 8.25195 5.9375L8.22158 7.079L7.41211 6.26953L7.41211 5.9375C7.41211 5.77148 7.28516 5.6543 7.10938 5.6543C7.01291 5.6543 6.93492 5.68597 6.88251 5.73993L5.22461 4.08203L5.22461 3.75C5.22461 3.08594 5.64453 2.67578 6.33789 2.67578L7.86133 2.67578C8.55469 2.67578 8.99414 3.08594 8.99414 3.75ZM6.39648 3.49609C6.21094 3.49609 6.08398 3.61328 6.08398 3.79883L6.08398 4.33594L8.13477 4.33594L8.13477 3.79883C8.13477 3.61328 7.99805 3.49609 7.8125 3.49609Z" fill="var(--color-primary)"/>
  <path d="M10.2734 10.9961C10.4199 11.1426 10.6641 11.1426 10.8105 10.9961C10.957 10.8398 10.957 10.6152 10.8105 10.459L3.95508 3.61328C3.80859 3.45703 3.56445 3.45703 3.41797 3.61328C3.27148 3.75977 3.27148 4.00391 3.41797 4.15039Z" fill="var(--color-primary)"/>
 </g>
</svg>
