<svg version="1.1" xmlns="http://www.w3.org/2000/svg" xmlns:xlink="http://www.w3.org/1999/xlink" viewBox="0 0 16.1328 15.7715">
 <g>
  <rect height="15.7715" opacity="0" width="16.1328" x="0" y="0"/>
  <path d="M15.7715 7.89062C15.7715 12.2363 12.2363 15.7715 7.88086 15.7715C3.53516 15.7715 0 12.2363 0 7.89062C0 3.54492 3.53516 0.00976562 7.88086 0.00976562C12.2363 0.00976562 15.7715 3.54492 15.7715 7.89062ZM7.08008 3.0957C6.35742 3.0957 5.91797 3.52539 5.91797 4.20898L5.91797 4.82422L4.07227 4.82422C3.87695 4.82422 3.71094 5 3.71094 5.20508C3.71094 5.40039 3.87695 5.56641 4.07227 5.56641L4.67773 5.56641L4.94141 11.7285C4.96094 12.2852 5.26367 12.5684 5.81055 12.5684L9.95117 12.5684C10.4883 12.5684 10.8105 12.2852 10.8301 11.7285L11.084 5.56641L11.6797 5.56641C11.8848 5.56641 12.041 5.40039 12.0508 5.20508C12.0605 5 11.8848 4.82422 11.6797 4.82422L9.83398 4.82422L9.83398 4.20898C9.83398 3.52539 9.38477 3.0957 8.66211 3.0957ZM6.67969 6.48438L6.80664 11.0547C6.80664 11.2207 6.69922 11.3379 6.51367 11.3379C6.33789 11.3379 6.20117 11.2207 6.20117 11.0547L6.07422 6.49414C6.07422 6.30859 6.18164 6.19141 6.38672 6.19141C6.5625 6.19141 6.67969 6.30859 6.67969 6.48438ZM8.19336 6.49414L8.19336 11.0547C8.19336 11.2207 8.06641 11.3379 7.87109 11.3379C7.68555 11.3379 7.56836 11.2207 7.56836 11.0547L7.56836 6.49414C7.56836 6.30859 7.68555 6.19141 7.87109 6.19141C8.06641 6.19141 8.19336 6.30859 8.19336 6.49414ZM9.66797 6.49414L9.55078 11.0547C9.55078 11.2207 9.4043 11.3379 9.23828 11.3379C9.05273 11.3379 8.93555 11.2207 8.93555 11.0547L9.0625 6.48438C9.0625 6.30859 9.18945 6.19141 9.375 6.19141C9.56055 6.19141 9.66797 6.30859 9.66797 6.49414ZM8.93555 4.25781L8.93555 4.82422L6.81641 4.82422L6.81641 4.25781C6.81641 4.07227 6.94336 3.94531 7.13867 3.94531L8.61328 3.94531C8.80859 3.94531 8.93555 4.07227 8.93555 4.25781Z" fill="var(--color-primary)"/>
 </g>
</svg>
