<svg version="1.1" xmlns="http://www.w3.org/2000/svg" xmlns:xlink="http://www.w3.org/1999/xlink" viewBox="0 0 28.0357 20.9163">
 <g>
  <rect height="20.9163" opacity="0" width="28.0357" x="0" y="0"/>
  <path d="M6.99149 15.6291L8.44657 14.7892L7.88017 13.7931L6.48368 14.6037C6.17118 14.7794 5.83915 14.6623 5.62431 14.2814L4.97001 13.1584C4.56962 12.465 4.81376 11.8302 5.75126 11.0587L7.77274 9.42788L9.28642 6.59585C9.97001 5.32632 10.8001 4.51577 12.304 3.64663L14.4036 2.42593C14.97 2.10366 15.4388 2.19155 15.8099 2.70913L16.9524 4.26187L22.1087 1.28335C22.4212 1.10757 22.7532 1.22476 22.9681 1.60562L24.1204 3.5978C24.345 3.97866 24.2766 4.33023 23.9641 4.50601L21.8938 5.70718L22.4602 6.69351L24.5989 5.46304C25.4876 4.94546 25.7122 4.06655 25.1849 3.15835L23.886 0.902492C23.3587-0.00571127 22.4798-0.249852 21.6009 0.267726L17.2845 2.75796L16.7278 2.00601C15.9466 0.961086 15.0091 0.756007 13.8958 1.40054L11.7278 2.65054C9.99931 3.6564 9.05204 4.58413 8.27079 6.04898L6.88407 8.67593L5.0579 10.1505C3.57352 11.3517 3.25126 12.465 3.98368 13.7345L4.70634 14.9845C5.23368 15.8927 6.10282 16.1369 6.99149 15.6291ZM10.8977 13.3732L19.7845 8.24624L19.2083 7.25015L10.3313 12.3771ZM10.3509 15.3361C11.4153 14.7209 11.7669 13.4123 11.1516 12.3576C10.5364 11.2931 9.22782 10.9513 8.17313 11.5568C7.11845 12.172 6.76688 13.4806 7.37235 14.5353C7.98759 15.5998 9.29618 15.9416 10.3509 15.3361ZM9.78446 14.3498C9.27665 14.6427 8.65165 14.4767 8.35868 13.9689C8.07548 13.4611 8.24149 12.8361 8.73954 12.5431C9.24735 12.2501 9.87235 12.4162 10.1653 12.924C10.4583 13.4318 10.2923 14.0568 9.78446 14.3498ZM21.7278 8.76382C22.7923 8.15835 23.1438 6.84976 22.5286 5.7853C21.9134 4.73062 20.6048 4.37905 19.5501 4.99429C18.4954 5.59976 18.1438 6.90835 18.7493 7.96304C19.3645 9.02749 20.6731 9.37905 21.7278 8.76382ZM21.1614 7.77749C20.6536 8.07046 20.0286 7.90444 19.7356 7.39663C19.4524 6.88882 19.6184 6.27359 20.1165 5.98062C20.6243 5.68765 21.2493 5.85366 21.5423 6.36148C21.8352 6.86929 21.6692 7.48452 21.1614 7.77749Z" fill="var(--color-primary)"/>
  <path d="M3.62235 16.5861L1.9329 13.6466C1.63017 13.1193 1.01493 13.256 0.858681 13.7736L0.0383686 16.2345C-0.0788189 16.5861 0.0774311 16.8595 0.438759 16.9376L2.96806 17.4552C3.51493 17.5724 3.92509 17.1037 3.62235 16.5861ZM4.76493 20.4533C4.97001 20.8048 5.3997 20.9123 5.73173 20.7267L27.3235 8.27554C27.6556 8.08023 27.7727 7.65054 27.5872 7.32827C27.3821 6.97671 26.9524 6.85952 26.6204 7.05484L5.0286 19.506C4.69657 19.6916 4.57938 20.131 4.76493 20.4533Z" fill="var(--color-primary)"/>
 </g>
</svg>
