<?xml version="1.0" encoding="UTF-8"?>
<!--Generator: Apple Native CoreSVG 326-->
<!DOCTYPE svg
PUBLIC "-//W3C//DTD SVG 1.1//EN"
       "http://www.w3.org/Graphics/SVG/1.1/DTD/svg11.dtd">
<svg version="1.1" xmlns="http://www.w3.org/2000/svg" xmlns:xlink="http://www.w3.org/1999/xlink" viewBox="0 0 14.2383 14.1895">
 <g>
  <rect height="14.1895" opacity="0" width="14.2383" x="0" y="0"/>
  <path d="M13.877 12.4805L13.877 0.253906C12.6562 0.498047 11.6016 0.957031 10.4883 1.65039L7.00195 3.84766L3.7793 4.35547C1.16211 4.76562 0 5.87891 0 7.90039L0 10.127C0 11.582 0.878906 12.4805 2.30469 12.4805L3.32031 12.4805C3.24219 12.207 3.19336 11.9238 3.19336 11.6211C3.19336 9.77539 4.69727 8.27148 6.55273 8.27148C8.39844 8.27148 9.89258 9.77539 9.89258 11.6211C9.89258 11.9238 9.84375 12.2168 9.79492 12.4805ZM6.55273 14.0137C7.88086 14.0137 8.92578 12.9492 8.92578 11.6211C8.92578 10.293 7.87109 9.22852 6.55273 9.22852C5.21484 9.22852 4.16016 10.293 4.16016 11.6211C4.16016 12.9395 5.21484 14.0137 6.55273 14.0137ZM1.09375 1.25L3.51562 1.25C3.7793 1.25 4.00391 1.31836 4.18945 1.49414L7.37305 4.6875L8.55469 4.04297L5.19531 0.673828C4.7168 0.195312 4.07227 0 3.35938 0L1.09375 0C0.693359 0 0.439453 0.244141 0.439453 0.615234C0.439453 0.996094 0.693359 1.25 1.09375 1.25Z" fill="white" fill-opacity="0.85"/>
 </g>
</svg>
