<?xml version="1.0" encoding="UTF-8"?>
<!--Generator: Apple Native CoreSVG 326-->
<!DOCTYPE svg
PUBLIC "-//W3C//DTD SVG 1.1//EN"
       "http://www.w3.org/Graphics/SVG/1.1/DTD/svg11.dtd">
<svg version="1.1" xmlns="http://www.w3.org/2000/svg" xmlns:xlink="http://www.w3.org/1999/xlink" viewBox="0 0 16.1328 15.7715">
 <g>
  <rect height="15.7715" opacity="0" width="16.1328" x="0" y="0"/>
  <path d="M15.7715 7.88086C15.7715 12.2266 12.2363 15.7617 7.88086 15.7617C3.53516 15.7617 0 12.2266 0 7.88086C0 3.53516 3.53516 0 7.88086 0C12.2363 0 15.7715 3.53516 15.7715 7.88086ZM9.29688 3.93555C8.78906 4.16992 8.41797 4.28711 7.86133 4.28711C7.30469 4.28711 6.92383 4.16992 6.41602 3.93555C6.2793 3.86719 6.12305 3.86719 5.9668 3.93555L3.33984 5.0293C2.98828 5.18555 2.8418 5.43945 2.93945 5.82031L3.27148 7.1582C3.34961 7.5293 3.59375 7.68555 3.95508 7.60742L4.83398 7.41211L4.88281 11.0352C4.89258 11.748 5.25391 12.0801 5.95703 12.0801L9.75586 12.0801C10.4688 12.0801 10.8203 11.748 10.8301 11.0352L10.8789 7.41211L11.7578 7.60742C12.1191 7.68555 12.373 7.5293 12.4609 7.1582L12.7832 5.82031C12.8711 5.43945 12.7246 5.18555 12.3828 5.0293L9.74609 3.93555C9.58984 3.86719 9.44336 3.86719 9.29688 3.93555ZM7.86133 5.45898C7.25586 5.45898 6.83594 5.18555 6.63086 4.6875C7.00195 4.82422 7.42188 4.89258 7.86133 4.89258C8.29102 4.89258 8.71094 4.82422 9.08203 4.6875C8.87695 5.17578 8.47656 5.45898 7.86133 5.45898Z" fill="white" fill-opacity="0.85"/>
 </g>
</svg>
