<?xml version="1.0" encoding="UTF-8"?>
<!--Generator: Apple Native CoreSVG 326-->
<!DOCTYPE svg
PUBLIC "-//W3C//DTD SVG 1.1//EN"
       "http://www.w3.org/Graphics/SVG/1.1/DTD/svg11.dtd">
<svg version="1.1" xmlns="http://www.w3.org/2000/svg" xmlns:xlink="http://www.w3.org/1999/xlink" viewBox="0 0 14.5898 14.248">
 <g>
  <rect height="14.248" opacity="0" width="14.5898" x="0" y="0"/>
  <path d="M2.49023 14.248L11.7383 14.248C13.4082 14.248 14.2285 13.4277 14.2285 11.7871L14.2285 2.4707C14.2285 0.830078 13.4082 0.00976562 11.7383 0.00976562L2.49023 0.00976562C0.830078 0.00976562 0 0.830078 0 2.4707L0 11.7871C0 13.4277 0.830078 14.248 2.49023 14.248ZM2.50977 12.832C1.80664 12.832 1.40625 12.4512 1.40625 11.7188L1.40625 2.53906C1.40625 1.79688 1.80664 1.42578 2.50977 1.42578L11.7188 1.42578C12.4219 1.42578 12.8223 1.79688 12.8223 2.53906L12.8223 11.7188C12.8223 12.4512 12.4219 12.832 11.7188 12.832Z" fill="white" fill-opacity="0.85"/>
  <path d="M6.21094 10.5078L6.30859 10.5078C7.2168 10.5078 8.24219 10.166 8.85742 9.55078C9.35547 9.05273 9.72656 8.34961 9.72656 7.69531C9.72656 7.43164 9.59961 7.22656 9.27734 7.22656C8.99414 7.22656 8.83789 7.39258 8.79883 7.67578C8.73047 8.13477 8.53516 8.52539 8.27148 8.82812C7.8418 9.30664 7.20703 9.56055 6.55273 9.56055L6.55273 7.14844L8.0957 6.5332C8.22266 6.47461 8.30078 6.37695 8.30078 6.25977C8.30078 6.09375 8.18359 5.97656 8.02734 5.97656C7.97852 5.97656 7.92969 5.99609 7.88086 6.01562L6.55273 6.54297L6.55273 5.625L8.0957 5.00977C8.22266 4.96094 8.30078 4.86328 8.30078 4.72656C8.30078 4.62891 8.24219 4.46289 8.03711 4.46289C7.98828 4.46289 7.92969 4.48242 7.88086 4.50195L6.55273 5.0293L6.55273 4.05273C6.55273 3.75 6.35742 3.54492 6.06445 3.54492C5.76172 3.54492 5.55664 3.75 5.55664 4.05273L5.55664 5.42969L4.59961 5.81055C4.46289 5.85938 4.4043 5.94727 4.4043 6.07422C4.4043 6.23047 4.52148 6.34766 4.66797 6.34766C4.70703 6.34766 4.76562 6.33789 4.82422 6.31836L5.55664 6.02539L5.55664 6.94336L4.59961 7.32422C4.46289 7.38281 4.4043 7.46094 4.4043 7.59766C4.4043 7.74414 4.52148 7.87109 4.66797 7.87109C4.70703 7.87109 4.77539 7.86133 4.82422 7.8418L5.55664 7.53906L5.55664 9.88281C5.55664 10.2539 5.83008 10.5078 6.21094 10.5078Z" fill="white" fill-opacity="0.85"/>
 </g>
</svg>
