<svg version="1.1" xmlns="http://www.w3.org/2000/svg" xmlns:xlink="http://www.w3.org/1999/xlink" viewBox="0 0 16.1328 15.7715">
 <g>
  <rect height="15.7715" opacity="0" width="16.1328" x="0" y="0"/>
  <path d="M15.7715 7.88086C15.7715 12.2266 12.2363 15.7617 7.88086 15.7617C3.53516 15.7617 0 12.2266 0 7.88086C0 3.53516 3.53516 0 7.88086 0C12.2363 0 15.7715 3.53516 15.7715 7.88086ZM4.04297 4.04297C3.90625 4.18945 3.90625 4.45312 4.04297 4.58984L11.1816 11.7188C11.3281 11.8652 11.582 11.8652 11.7285 11.7188C11.8848 11.5625 11.8848 11.3184 11.7285 11.1719L4.60938 4.04297C4.45312 3.88672 4.20898 3.88672 4.04297 4.04297ZM2.55859 7.8418C2.55859 9.52148 3.63281 10.8301 5.07812 10.8301C6.54297 10.8301 7.27539 9.64844 7.88086 9.64844C8.10076 9.64844 8.33564 9.7994 8.61437 9.99426L7.37748 8.75907C6.52765 9.01673 6.06175 9.86328 5.07812 9.86328C4.0918 9.86328 3.51562 9.16016 3.51562 7.8418C3.51562 6.87537 3.92142 6.3496 4.68139 6.06666L3.97204 5.35828C3.09822 5.79014 2.55859 6.54508 2.55859 7.8418ZM6.22987 4.8301L7.15132 5.74902C7.38197 5.74375 7.62645 5.74219 7.88086 5.74219C10.6543 5.74219 12.2559 5.92773 12.2559 7.8418C12.2559 8.9118 11.8699 9.57654 11.2023 9.7889L11.9005 10.4852C12.6978 9.99016 13.2129 9.00495 13.2129 7.8418C13.2129 5.07812 10.7617 4.77539 7.88086 4.77539C7.30791 4.77539 6.75168 4.78745 6.22987 4.8301Z" fill="var(--color-primary)"/>
 </g>
</svg>
