<?xml version="1.0" encoding="UTF-8"?>
<!--Generator: Apple Native CoreSVG 326-->
<!DOCTYPE svg
PUBLIC "-//W3C//DTD SVG 1.1//EN"
       "http://www.w3.org/Graphics/SVG/1.1/DTD/svg11.dtd">
<svg version="1.1" xmlns="http://www.w3.org/2000/svg" xmlns:xlink="http://www.w3.org/1999/xlink" viewBox="0 0 16.1328 15.7715">
 <g>
  <rect height="15.7715" opacity="0" width="16.1328" x="0" y="0"/>
  <path d="M15.7715 7.88086C15.7715 12.2363 12.2363 15.7617 7.88086 15.7617C3.53516 15.7617 0 12.2363 0 7.88086C0 3.52539 3.53516 0 7.88086 0C12.2363 0 15.7715 3.52539 15.7715 7.88086ZM1.49414 7.88086C1.49414 11.416 4.3457 14.2773 7.88086 14.2773C11.416 14.2773 14.2773 11.416 14.2773 7.88086C14.2773 4.3457 11.416 1.48438 7.88086 1.48438C4.3457 1.48438 1.49414 4.3457 1.49414 7.88086Z" fill="white" fill-opacity="0.85"/>
  <path d="M4.79372 6.13019C4.05699 6.40172 3.66211 6.90807 3.66211 7.8418C3.66211 9.11133 4.22852 9.79492 5.16602 9.79492C6.11954 9.79492 6.56619 8.97126 7.39206 8.72484L8.58688 9.91795C8.31479 9.7279 8.08536 9.58008 7.87109 9.58008C7.27539 9.58008 6.57227 10.7227 5.16602 10.7227C3.7793 10.7227 2.74414 9.46289 2.74414 7.8418C2.74414 6.59104 3.26597 5.86427 4.11196 5.44941ZM13.0078 7.8418C13.0078 8.96651 12.5095 9.91729 11.7407 10.393L11.0715 9.72382C11.7154 9.51887 12.0898 8.874 12.0898 7.8418C12.0898 5.99609 10.5469 5.82031 7.87109 5.82031C7.62831 5.82031 7.39484 5.82177 7.17438 5.82673L6.29175 4.94409C6.79094 4.90403 7.32281 4.89258 7.87109 4.89258C10.6543 4.89258 13.0078 5.18555 13.0078 7.8418Z" fill="white" fill-opacity="0.85"/>
  <path d="M11.0645 11.5723C11.2012 11.7188 11.4551 11.7188 11.5918 11.5723C11.748 11.416 11.748 11.1914 11.5918 11.0352L4.74609 4.18945C4.58984 4.0332 4.35547 4.0332 4.19922 4.18945C4.0625 4.33594 4.0625 4.58008 4.19922 4.72656Z" fill="white" fill-opacity="0.85"/>
 </g>
</svg>
