<?xml version="1.0" encoding="UTF-8"?>
<!--Generator: Apple Native CoreSVG 326-->
<!DOCTYPE svg
PUBLIC "-//W3C//DTD SVG 1.1//EN"
       "http://www.w3.org/Graphics/SVG/1.1/DTD/svg11.dtd">
<svg version="1.1" xmlns="http://www.w3.org/2000/svg" xmlns:xlink="http://www.w3.org/1999/xlink" viewBox="0 0 8.84766 18.3105">
 <g>
  <rect height="18.3105" opacity="0" width="8.84766" x="0" y="0"/>
  <path d="M2.1582 2.00195L6.33789 2.00195C6.74805 2.00195 7.05078 1.69922 7.05078 1.28906L7.05078 0.712891C7.05078 0.292969 6.74805 0 6.33789 0L2.1582 0C1.73828 0 1.44531 0.292969 1.44531 0.712891L1.44531 1.28906C1.44531 1.69922 1.73828 2.00195 2.1582 2.00195ZM0.00976562 5.69336L8.47656 5.69336C8.4375 4.85352 8.29102 4.20898 7.7832 3.54492L7.64648 3.35938C7.43164 3.08594 7.07031 2.86133 6.71875 2.86133L1.75781 2.86133C1.41602 2.86133 1.04492 3.08594 0.839844 3.35938L0.703125 3.54492C0.195312 4.20898 0.0488281 4.85352 0.00976562 5.69336ZM0 6.78711L0 14.5215L8.48633 14.5215L8.48633 6.78711ZM4.23828 13.3301C3.125 13.3301 2.39258 12.6172 2.39258 11.5332C2.39258 10.9863 2.64648 10.5371 2.77344 10.2441C3.06641 9.61914 3.55469 8.80859 3.95508 8.18359C4.0332 8.05664 4.14062 7.98828 4.23828 7.98828C4.3457 7.98828 4.44336 8.05664 4.52148 8.18359C4.93164 8.80859 5.42969 9.61914 5.71289 10.2441C5.84961 10.5371 6.09375 10.9863 6.09375 11.5332C6.09375 12.6172 5.36133 13.3301 4.23828 13.3301ZM0 15.6152L0 15.6738C0 17.3633 0.839844 18.291 2.34375 18.291L6.14258 18.291C7.64648 18.291 8.48633 17.3633 8.48633 15.6738L8.48633 15.6152Z" fill="white" fill-opacity="0.85"/>
 </g>
</svg>
