<?xml version="1.0" encoding="UTF-8"?>
<!--Generator: Apple Native CoreSVG 326-->
<!DOCTYPE svg
PUBLIC "-//W3C//DTD SVG 1.1//EN"
       "http://www.w3.org/Graphics/SVG/1.1/DTD/svg11.dtd">
<svg version="1.1" xmlns="http://www.w3.org/2000/svg" xmlns:xlink="http://www.w3.org/1999/xlink" viewBox="0 0 18.4766 14.248">
 <g>
  <rect height="14.248" opacity="0" width="18.4766" x="0" y="0"/>
  <path d="M0 7.86133L0 6.74805L2.92969 6.74805L4.25781 3.50586C4.45312 3.02734 5.14648 3.01758 5.30273 3.48633L6.95312 8.50586L7.43164 7.19727C7.5293 6.91406 7.70508 6.74805 8.04688 6.74805L9.75586 6.74805L11.084 3.50586C11.2793 3.02734 11.9727 3.01758 12.1191 3.48633L13.7695 8.50586L14.248 7.19727C14.3555 6.91406 14.5312 6.74805 14.873 6.74805L18.1152 6.74805L18.1152 7.86133L15.1953 7.86133L14.3066 10.6836C14.1504 11.1621 13.3984 11.1719 13.252 10.7129L11.6016 5.32227L10.7031 7.41211C10.5859 7.69531 10.4199 7.86133 10.0781 7.86133L8.36914 7.86133L7.48047 10.6836C7.33398 11.1621 6.57227 11.1719 6.43555 10.7129L4.77539 5.32227L3.92578 7.41211C3.80859 7.69531 3.64258 7.86133 3.11523 7.86133ZM2.49023 14.248L15.625 14.248C17.2949 14.248 18.1152 13.4277 18.1152 11.7871L18.1152 2.4707C18.1152 0.830078 17.2949 0.00976562 15.625 0.00976562L2.49023 0.00976562C0.830078 0.00976562 0 0.830078 0 2.4707L0 11.7871C0 13.4277 0.830078 14.248 2.49023 14.248Z" fill="white" fill-opacity="0.85"/>
 </g>
</svg>
