<svg version="1.1" xmlns="http://www.w3.org/2000/svg" xmlns:xlink="http://www.w3.org/1999/xlink" width="11.6797" height="18.4884" viewBox="0 0 11.6797 18.4884">
 <g>
  <rect height="18.4884" opacity="0" width="11.6797" x="0" y="0"/>
  <path d="M0 9.2491C0 12.5303 1.02539 15.5772 2.8418 18.087C3.50586 19.005 4.75586 18.1846 4.08203 17.2667C2.41211 14.9913 1.50391 12.2178 1.50391 9.2491C1.50391 6.28035 2.41211 3.50691 4.08203 1.22176C4.76562 0.294021 3.47656-0.477463 2.8418 0.411209C1.02539 2.92097 0 5.96785 0 9.2491Z" fill="var(--color-primary)"/>
  <path d="M4.20898 9.2491C4.20898 11.6905 4.98047 13.9659 6.35742 15.8116C7.06055 16.7491 8.28125 15.8409 7.61719 14.9815C6.37695 13.3604 5.71289 11.378 5.71289 9.2491C5.71289 7.12019 6.37695 5.12801 7.61719 3.51668C8.28125 2.64754 7.06055 1.73933 6.35742 2.6866C4.98047 4.5323 4.20898 6.80769 4.20898 9.2491Z" fill="var(--color-primary)"/>
  <path d="M8.41797 9.2491C8.41797 10.8409 8.96484 12.335 9.93164 13.4874C10.6445 14.3468 11.709 13.38 11.1719 12.6866C10.2539 11.4854 9.92188 10.5772 9.92188 9.2491C9.92188 7.91121 10.2539 7.01277 11.1719 5.8116C11.709 5.11824 10.6445 4.15144 9.93164 5.01082C8.96484 6.16316 8.41797 7.6573 8.41797 9.2491Z" fill="var(--color-primary)"/>
 </g>
</svg>
