<svg version="1.1" xmlns="http://www.w3.org/2000/svg" xmlns:xlink="http://www.w3.org/1999/xlink" viewBox="0 0 16.1328 15.7715">
 <g>
  <rect height="15.7715" opacity="0" width="16.1328" x="0" y="0"/>
  <path d="M7.88086 15.7617C12.2363 15.7617 15.7715 12.2363 15.7715 7.88086C15.7715 3.52539 12.2363 0 7.88086 0C3.53516 0 0 3.52539 0 7.88086C0 12.2363 3.53516 15.7617 7.88086 15.7617ZM7.88086 14.2773C4.3457 14.2773 1.49414 11.416 1.49414 7.88086C1.49414 4.3457 4.3457 1.48438 7.88086 1.48438C11.416 1.48438 14.2773 4.3457 14.2773 7.88086C14.2773 11.416 11.416 14.2773 7.88086 14.2773Z" fill="var(--color-primary)"/>
  <path d="M7.87109 11.0645C9.60938 11.0645 11.2988 10.5566 12.627 9.63867C12.9199 9.43359 12.998 9.08203 12.793 8.80859C12.5977 8.53516 12.2363 8.48633 11.9531 8.69141C10.8203 9.47266 9.36523 9.91211 7.87109 9.91211C6.40625 9.91211 4.93164 9.46289 3.79883 8.69141C3.50586 8.48633 3.1543 8.53516 2.94922 8.80859C2.76367 9.07227 2.8418 9.42383 3.125 9.63867C4.43359 10.5566 6.13281 11.0645 7.87109 11.0645Z" fill="var(--color-primary)"/>
  <path d="M7.87109 8.70117C9.15039 8.70117 10.3906 8.33008 11.3086 7.66602C11.5918 7.45117 11.6602 7.10938 11.4648 6.83594C11.2793 6.57227 10.918 6.51367 10.6152 6.71875C9.89258 7.22656 8.88672 7.5293 7.87109 7.5293C6.86523 7.5293 5.85938 7.22656 5.13672 6.71875C4.83398 6.51367 4.46289 6.57227 4.28711 6.83594C4.0918 7.10938 4.16016 7.45117 4.43359 7.66602C5.39062 8.33008 6.63086 8.70117 7.87109 8.70117Z" fill="var(--color-primary)"/>
  <path d="M7.87109 6.32812C8.65234 6.32812 9.44336 6.09375 10 5.70312C10.2637 5.50781 10.3418 5.15625 10.166 4.88281C9.96094 4.58008 9.58008 4.53125 9.26758 4.75586C8.94531 5.00977 8.41797 5.15625 7.87109 5.15625C7.34375 5.15625 6.81641 5.00977 6.47461 4.75586C6.17188 4.54102 5.80078 4.58984 5.5957 4.88281C5.41016 5.15625 5.48828 5.51758 5.76172 5.70312C6.2793 6.09375 7.07031 6.32812 7.87109 6.32812Z" fill="var(--color-primary)"/>
 </g>
</svg>
