<?xml version="1.0" encoding="UTF-8"?>
<!--Generator: Apple Native CoreSVG 326-->
<!DOCTYPE svg
PUBLIC "-//W3C//DTD SVG 1.1//EN"
       "http://www.w3.org/Graphics/SVG/1.1/DTD/svg11.dtd">
<svg version="1.1" xmlns="http://www.w3.org/2000/svg" xmlns:xlink="http://www.w3.org/1999/xlink" viewBox="0 0 19.9316 18.6035">
 <g>
  <rect height="18.6035" opacity="0" width="19.9316" x="0" y="0"/>
  <path d="M4.16992 18.5938L15.4004 18.5938C16.6602 18.5938 17.832 18.4863 18.6523 17.666C19.4824 16.8359 19.5703 15.6836 19.5703 14.4238L19.5703 4.16992C19.5703 2.91016 19.4824 1.75781 18.6523 0.927734C17.8223 0.107422 16.6602 0 15.4004 0L4.16992 0C2.91992 0 1.74805 0.107422 0.917969 0.927734C0.0976562 1.75781 0 2.91016 0 4.16016L0 14.4238C0 15.6836 0.0976562 16.8359 0.917969 17.666C1.74805 18.4863 2.91016 18.5938 4.16992 18.5938ZM3.95508 17.1875C3.24219 17.1875 2.40234 17.0996 1.94336 16.6406C1.48438 16.1816 1.40625 15.3516 1.40625 14.6387L1.40625 3.96484C1.40625 3.24219 1.48438 2.41211 1.94336 1.95312C2.40234 1.49414 3.24219 1.40625 3.96484 1.40625L15.6152 1.40625C16.3281 1.40625 17.168 1.49414 17.627 1.95312C18.0859 2.41211 18.1641 3.24219 18.1641 3.95508L18.1641 14.6387C18.1641 15.3516 18.0859 16.1816 17.627 16.6406C17.168 17.0996 16.3281 17.1875 15.6152 17.1875Z" fill="white" fill-opacity="0.85"/>
  <path d="M3.4375 11.5527L16.1426 11.5527C16.4355 11.5527 16.6797 11.3184 16.6797 11.0156C16.6797 10.7227 16.4355 10.4883 16.1426 10.4883L3.4375 10.4883C3.14453 10.4883 2.90039 10.7227 2.90039 11.0156C2.90039 11.3184 3.14453 11.5527 3.4375 11.5527ZM3.4375 13.7109L16.1426 13.7109C16.4355 13.7109 16.6797 13.4766 16.6797 13.1738C16.6797 12.8809 16.4355 12.6465 16.1426 12.6465L3.4375 12.6465C3.14453 12.6465 2.90039 12.8809 2.90039 13.1738C2.90039 13.4766 3.14453 13.7109 3.4375 13.7109ZM3.4375 15.8691L11.2598 15.8691C11.5625 15.8691 11.7969 15.6348 11.7969 15.332C11.7969 15.0391 11.5625 14.8047 11.2598 14.8047L3.4375 14.8047C3.14453 14.8047 2.90039 15.0391 2.90039 15.332C2.90039 15.6348 3.14453 15.8691 3.4375 15.8691ZM3.87695 5.98633L5.53711 5.98633C6.20117 5.98633 6.66016 5.52734 6.66016 4.86328L6.66016 3.69141C6.66016 3.02734 6.20117 2.56836 5.53711 2.56836L3.87695 2.56836C3.21289 2.56836 2.75391 3.02734 2.75391 3.69141L2.75391 4.86328C2.75391 5.52734 3.21289 5.98633 3.87695 5.98633Z" fill="white" fill-opacity="0.85"/>
 </g>
</svg>
