<?xml version="1.0" encoding="UTF-8"?>
<!--Generator: Apple Native CoreSVG 326-->
<!DOCTYPE svg
PUBLIC "-//W3C//DTD SVG 1.1//EN"
       "http://www.w3.org/Graphics/SVG/1.1/DTD/svg11.dtd">
<svg version="1.1" xmlns="http://www.w3.org/2000/svg" xmlns:xlink="http://www.w3.org/1999/xlink" viewBox="0 0 16.1328 15.7715">
 <g>
  <rect height="15.7715" opacity="0" width="16.1328" x="0" y="0"/>
  <path d="M15.7715 7.89062C15.7715 12.2363 12.2363 15.7715 7.88086 15.7715C3.53516 15.7715 0 12.2363 0 7.89062C0 3.54492 3.53516 0.00976562 7.88086 0.00976562C12.2363 0.00976562 15.7715 3.54492 15.7715 7.89062ZM7.1582 10.8789C7.1582 11.2598 7.49023 11.582 7.87109 11.582C8.27148 11.582 8.59375 11.2598 8.59375 10.8789C8.59375 10.4785 8.27148 10.166 7.87109 10.166C7.49023 10.166 7.1582 10.4785 7.1582 10.8789ZM7.36328 4.27734C7.39258 5.81055 7.41211 7.37305 7.43164 8.90625C7.44141 9.16992 7.61719 9.3457 7.88086 9.3457C8.14453 9.3457 8.32031 9.16992 8.33008 8.90625C8.34961 7.37305 8.35938 5.81055 8.38867 4.27734C8.38867 3.97461 8.14453 3.78906 7.87109 3.78906C7.60742 3.78906 7.36328 3.97461 7.36328 4.27734ZM4.62891 8.16406C4.54102 8.27148 4.55078 8.4082 4.6582 8.52539L5.33203 9.19922C5.45898 9.33594 5.63477 9.35547 5.78125 9.18945C6.04589 8.88986 6.38713 8.64643 6.7621 8.48188L6.74187 6.87792C5.89672 7.0982 5.13785 7.55333 4.62891 8.16406ZM8.99003 8.46789C9.38393 8.63331 9.746 8.88502 10.0293 9.19922C10.166 9.3457 10.3223 9.33594 10.459 9.19922L11.1328 8.52539C11.2402 8.41797 11.25 8.26172 11.1523 8.16406C10.6432 7.54489 9.87242 7.08565 9.01019 6.86944ZM2.92969 6.43555C2.83203 6.5625 2.85156 6.69922 2.94922 6.80664L3.55469 7.42188C3.66211 7.55859 3.85742 7.55859 3.99414 7.41211C4.73726 6.61127 5.67226 6.08761 6.72914 5.8708L6.70997 4.35513C5.19238 4.62199 3.77664 5.38657 2.92969 6.43555ZM9.02291 5.86315C10.0959 6.07781 11.0513 6.60576 11.8164 7.42188C11.9336 7.54883 12.1094 7.53906 12.2363 7.42188L12.832 6.80664C12.9395 6.69922 12.959 6.5625 12.8613 6.43555C12.0004 5.37894 10.5749 4.61089 9.04206 4.34888Z" fill="white" fill-opacity="0.85"/>
 </g>
</svg>
