<?xml version="1.0" encoding="UTF-8"?>
<!--Generator: Apple Native CoreSVG 326-->
<!DOCTYPE svg
PUBLIC "-//W3C//DTD SVG 1.1//EN"
       "http://www.w3.org/Graphics/SVG/1.1/DTD/svg11.dtd">
<svg version="1.1" xmlns="http://www.w3.org/2000/svg" xmlns:xlink="http://www.w3.org/1999/xlink" viewBox="0 0 11.7773 18.5645">
 <g>
  <rect height="18.5645" opacity="0" width="11.7773" x="0" y="0"/>
  <path d="M5.70312 11.4844C9.13086 11.4844 11.416 9.44336 11.416 6.34766C11.416 4.73633 10.752 2.63672 9.76562 1.13281C9.29688 0.400391 7.8125 0 5.70312 0C3.60352 0 2.11914 0.400391 1.64062 1.13281C0.664062 2.63672 0 4.73633 0 6.34766C0 9.44336 2.27539 11.4844 5.70312 11.4844ZM5.70312 10.1758C2.99805 10.1758 1.31836 8.70117 1.31836 6.34766C1.31836 5.22461 1.68945 3.79883 2.32422 2.57812C3.02734 2.91992 4.21875 3.11523 5.70312 3.11523C7.19727 3.11523 8.37891 2.91992 9.08203 2.57812C9.7168 3.79883 10.1074 5.22461 10.1074 6.34766C10.1074 8.70117 8.41797 10.1758 5.70312 10.1758ZM5.70312 1.88477C4.17969 1.88477 2.8418 1.71875 2.8418 1.55273C2.8418 1.40625 4.19922 1.24023 5.70312 1.24023C7.20703 1.24023 8.57422 1.40625 8.57422 1.55273C8.57422 1.71875 7.22656 1.88477 5.70312 1.88477ZM5.70312 16.5723C6.06445 16.5723 6.36719 16.2695 6.36719 15.918L6.36719 10.791L5.05859 10.791L5.05859 15.918C5.05859 16.2695 5.35156 16.5723 5.70312 16.5723ZM5.70312 18.5547C8.57422 18.5449 10.2832 17.832 10.2832 16.5723C10.2832 15.3125 8.57422 14.5898 5.70312 14.5898C2.83203 14.5898 1.13281 15.3125 1.13281 16.5723C1.13281 17.832 2.83203 18.5449 5.70312 18.5547ZM5.70312 17.2754C3.75 17.2754 2.53906 16.9922 2.53906 16.5723C2.53906 16.1523 3.75 15.8594 5.70312 15.8594C7.65625 15.8594 8.87695 16.1523 8.87695 16.5723C8.87695 16.9922 7.65625 17.2754 5.70312 17.2754Z" fill="white" fill-opacity="0.85"/>
 </g>
</svg>
