<?xml version="1.0" encoding="UTF-8"?>
<!--Generator: Apple Native CoreSVG 326-->
<!DOCTYPE svg
PUBLIC "-//W3C//DTD SVG 1.1//EN"
       "http://www.w3.org/Graphics/SVG/1.1/DTD/svg11.dtd">
<svg version="1.1" xmlns="http://www.w3.org/2000/svg" xmlns:xlink="http://www.w3.org/1999/xlink" viewBox="0 0 16.1328 15.7715">
 <g>
  <rect height="15.7715" opacity="0" width="16.1328" x="0" y="0"/>
  <path d="M15.7715 7.88086C15.7715 12.2266 12.2363 15.7617 7.88086 15.7617C3.53516 15.7617 0 12.2266 0 7.88086C0 3.53516 3.53516 0 7.88086 0C12.2363 0 15.7715 3.53516 15.7715 7.88086ZM10.8594 4.6582L10.3613 7.61719L9.16992 7.61719L8.42773 4.6875C8.35938 4.4043 8.17383 4.23828 7.89062 4.23828C7.62695 4.23828 7.43164 4.41406 7.35352 4.70703L6.61133 7.61719L5.41992 7.61719L4.91211 4.6582C4.87305 4.4043 4.66797 4.23828 4.41406 4.23828C4.10156 4.23828 3.90625 4.41406 3.90625 4.69727C3.90625 4.75586 3.91602 4.86328 3.93555 4.95117L4.46289 7.61719L3.58398 7.61719C3.41797 7.61719 3.29102 7.73438 3.29102 7.90039C3.29102 8.07617 3.41797 8.20312 3.58398 8.20312L4.58008 8.20312L5.14648 11.0645C5.21484 11.416 5.46875 11.6309 5.83984 11.6309C6.16211 11.6309 6.41602 11.4258 6.51367 11.084L7.25586 8.20312L8.51562 8.20312L9.25781 11.084C9.35547 11.4355 9.58984 11.6309 9.94141 11.6309C10.3027 11.6309 10.5566 11.4355 10.625 11.0645L11.2012 8.20312L12.1875 8.20312C12.3633 8.20312 12.4902 8.07617 12.4902 7.90039C12.4902 7.73438 12.3633 7.61719 12.1875 7.61719L11.3086 7.61719L11.8457 4.95117C11.8555 4.89258 11.8652 4.79492 11.8652 4.69727C11.8652 4.39453 11.6309 4.23828 11.3574 4.23828C11.123 4.23828 10.9082 4.38477 10.8594 4.6582ZM5.91797 10.3125L5.87891 10.3125L5.51758 8.20312L6.46484 8.20312ZM9.90234 10.3125L9.86328 10.3125L9.32617 8.20312L10.2637 8.20312ZM8.36914 7.61719L7.40234 7.61719L7.86133 5.83984L7.91016 5.83984Z" fill="white" fill-opacity="0.85"/>
 </g>
</svg>
