<svg version="1.1" xmlns="http://www.w3.org/2000/svg" xmlns:xlink="http://www.w3.org/1999/xlink" width="17.6218" height="15.7715" viewBox="0 0 17.6218 15.7715">
 <g>
  <rect height="15.7715" opacity="0" width="17.6218" x="0" y="0"/>
  <path d="M9.37242 15.7617C13.6791 15.7617 17.263 12.1875 17.263 7.88086C17.263 3.57422 13.6791 0 9.37242 0C5.06578 0 1.49156 3.56445 1.49156 7.87109L2.9857 7.87109C2.9857 4.31641 5.81773 1.49414 9.37242 1.49414C12.9271 1.49414 15.7689 4.32617 15.7689 7.88086C15.7689 11.4355 12.9271 14.2969 9.37242 14.2773C7.28258 14.2676 5.43687 13.291 4.28453 11.7578C4.02086 11.3965 3.60094 11.2891 3.23961 11.5137C2.87828 11.7285 2.79039 12.2168 3.08336 12.5977C4.55797 14.502 6.83336 15.7617 9.37242 15.7617ZM0.602889 6.35742C-0.0123451 6.35742-0.158829 6.77734 0.173202 7.24609L1.91148 9.7168C2.18492 10.0977 2.59508 10.0977 2.85875 9.7168L4.59703 7.23633C4.9193 6.77734 4.76305 6.35742 4.15758 6.35742Z" fill="var(--color-secondary)"/>
  <path d="M5.96422 7.71484C5.96422 7.93945 6.14976 8.13477 6.37437 8.13477L6.85289 8.13477L7.3607 11.2305C7.4193 11.5723 7.6732 11.7578 7.9857 11.7578C8.2982 11.7578 8.54234 11.5918 8.60094 11.2305L9.07945 8.125L9.67515 8.125L10.1732 11.2305C10.222 11.5918 10.4759 11.7578 10.7884 11.7578C11.1009 11.7578 11.3548 11.5723 11.4134 11.2305L11.9017 8.125L12.3705 8.125C12.6146 8.125 12.7806 7.92969 12.7806 7.70508C12.7806 7.46094 12.6146 7.28516 12.3705 7.28516L12.0287 7.28516L12.3998 4.92188C12.4095 4.84375 12.4291 4.77539 12.4291 4.67773C12.4291 4.375 12.2045 4.19922 11.9017 4.19922C11.638 4.19922 11.4037 4.3457 11.3646 4.63867L11.0326 7.28516L10.4173 7.28516L10.0267 4.76562C9.96812 4.4043 9.68492 4.20898 9.36265 4.20898C9.03062 4.20898 8.77672 4.4043 8.71812 4.77539L8.31773 7.29492L7.7318 7.29492L7.4193 4.6582C7.38023 4.35547 7.14586 4.20898 6.87242 4.20898C6.55992 4.20898 6.32555 4.39453 6.32555 4.69727C6.32555 4.80469 6.34508 4.88281 6.35484 4.95117L6.72594 7.29492L6.37437 7.29492C6.14976 7.29492 5.96422 7.4707 5.96422 7.71484ZM7.83922 8.11523L8.21031 8.11523L8.00523 9.85352ZM9.21617 7.29492L9.38219 5.88867L9.55797 7.29492ZM10.5345 8.11523L10.9545 8.11523L10.7591 9.91211Z" fill="var(--color-primary)"/>
 </g>
</svg>
