<svg version="1.1" xmlns="http://www.w3.org/2000/svg" xmlns:xlink="http://www.w3.org/1999/xlink" viewBox="0 0 17.7734 16.5527">
 <g>
  <rect height="16.5527" opacity="0" width="17.7734" x="0" y="0"/>
  <path d="M9.6875 0.283203L16.2109 4.04297C16.5234 4.23828 16.6797 4.46289 16.6797 4.72656C16.6797 5.07812 16.3965 5.42969 15.918 5.42969L15.2637 5.42969L15.2637 13.9941L15.752 13.9941C16.1133 13.9941 16.3184 14.1992 16.3184 14.5508L16.3184 15.127L16.709 15.127C17.0898 15.127 17.4121 15.4492 17.4121 15.8301C17.4121 16.2207 17.0898 16.543 16.709 16.543L0.703125 16.543C0.322266 16.543 0 16.2207 0 15.8301C0 15.4492 0.322266 15.127 0.703125 15.127L1.10352 15.127L1.10352 14.5508C1.10352 14.1992 1.30859 13.9941 1.66992 13.9941L2.1582 13.9941L2.1582 5.42969L1.49414 5.42969C1.01562 5.42969 0.732422 5.07812 0.732422 4.72656C0.732422 4.46289 0.878906 4.23828 1.20117 4.04297L7.72461 0.283203C8.03711 0.0976562 8.37891 0 8.71094 0C9.0332 0 9.375 0.0976562 9.6875 0.283203ZM11.6797 5.54688L11.1816 8.50586L9.99023 8.50586L9.24805 5.57617C9.17969 5.29297 9.00391 5.12695 8.7207 5.12695C8.44727 5.12695 8.25195 5.30273 8.17383 5.5957L7.43164 8.50586L6.24023 8.50586L5.74219 5.54688C5.70312 5.30273 5.48828 5.12695 5.23438 5.12695C4.93164 5.12695 4.72656 5.3125 4.72656 5.5957C4.72656 5.6543 4.73633 5.75195 4.75586 5.83984L5.2832 8.50586L4.4043 8.50586C4.23828 8.50586 4.11133 8.62305 4.11133 8.79883C4.11133 8.96484 4.23828 9.0918 4.4043 9.0918L5.40039 9.0918L5.97656 11.9531C6.03516 12.3047 6.28906 12.5195 6.66016 12.5195C6.98242 12.5195 7.23633 12.3145 7.33398 11.9727L8.07617 9.0918L9.33594 9.0918L10.0781 11.9727C10.1758 12.3242 10.4102 12.5195 10.7617 12.5195C11.1328 12.5195 11.3867 12.3242 11.4453 11.9531L12.0215 9.0918L13.0176 9.0918C13.1836 9.0918 13.3105 8.96484 13.3105 8.79883C13.3105 8.62305 13.1836 8.50586 13.0176 8.50586L12.1387 8.50586L12.666 5.83984C12.6758 5.78125 12.6855 5.68359 12.6855 5.5957C12.6855 5.29297 12.4512 5.12695 12.1777 5.12695C11.9531 5.12695 11.7285 5.2832 11.6797 5.54688ZM6.73828 11.2012L6.69922 11.2012L6.33789 9.0918L7.28516 9.0918ZM10.7227 11.2012L10.6836 11.2012L10.1465 9.0918L11.084 9.0918ZM9.19922 8.50586L8.22266 8.50586L8.69141 6.72852L8.74023 6.72852Z" fill="var(--color-primary)"/>
 </g>
</svg>
