<?xml version="1.0" encoding="UTF-8"?>
<!--Generator: Apple Native CoreSVG 326-->
<!DOCTYPE svg
PUBLIC "-//W3C//DTD SVG 1.1//EN"
       "http://www.w3.org/Graphics/SVG/1.1/DTD/svg11.dtd">
<svg version="1.1" xmlns="http://www.w3.org/2000/svg" xmlns:xlink="http://www.w3.org/1999/xlink" viewBox="0 0 16.1328 15.7715">
 <g>
  <rect height="15.7715" opacity="0" width="16.1328" x="0" y="0"/>
  <path d="M15.7715 7.89062C15.7715 12.2363 12.2363 15.7715 7.88086 15.7715C3.53516 15.7715 0 12.2363 0 7.89062C0 3.54492 3.53516 0.00976562 7.88086 0.00976562C12.2363 0.00976562 15.7715 3.54492 15.7715 7.89062ZM3.80859 7.19727L4.36523 11.0742C4.49219 11.9238 4.82422 12.3633 5.66406 12.3633L10.1074 12.3633C10.9473 12.3633 11.2793 11.9238 11.4062 11.0742L11.9629 7.19727ZM9.45312 8.50586C9.45312 8.60352 9.41406 8.68164 9.33594 8.75977L8.4082 9.69727L9.33594 10.6348C9.39453 10.7031 9.44336 10.7812 9.44336 10.8887C9.44336 11.084 9.26758 11.2598 9.08203 11.2598C8.96484 11.2598 8.88672 11.2012 8.81836 11.1523L7.87109 10.2246L6.94336 11.1523C6.88477 11.2109 6.79688 11.2598 6.68945 11.2598C6.48438 11.2598 6.31836 11.084 6.31836 10.8887C6.31836 10.7812 6.36719 10.7031 6.43555 10.6348L7.36328 9.69727L6.43555 8.75977C6.36719 8.69141 6.31836 8.61328 6.31836 8.50586C6.31836 8.30078 6.48438 8.14453 6.68945 8.14453C6.79688 8.14453 6.875 8.17383 6.93359 8.24219L7.87109 9.17969L8.82812 8.24219C8.89648 8.17383 8.97461 8.13477 9.08203 8.13477C9.28711 8.13477 9.45312 8.29102 9.45312 8.50586ZM3.65234 4.58008C3.17383 4.58008 2.90039 4.87305 2.90039 5.37109L2.90039 5.72266C2.90039 6.21094 3.1543 6.49414 3.65234 6.49414L12.1191 6.49414C12.6172 6.49414 12.8711 6.21094 12.8711 5.72266L12.8711 5.37109C12.8711 4.87305 12.6172 4.58008 12.1191 4.58008Z" fill="white" fill-opacity="0.85"/>
 </g>
</svg>
