<svg version="1.1" xmlns="http://www.w3.org/2000/svg" xmlns:xlink="http://www.w3.org/1999/xlink" viewBox="0 0 14.5898 14.248">
 <g>
  <rect height="14.248" opacity="0" width="14.5898" x="0" y="0"/>
  <path d="M14.2285 2.4707L14.2285 11.7871C14.2285 13.4277 13.4082 14.248 11.7383 14.248L2.49023 14.248C0.830078 14.248 0 13.4277 0 11.7871L0 2.4707C0 0.830078 0.830078 0.00976562 2.49023 0.00976562L11.7383 0.00976562C13.4082 0.00976562 14.2285 0.830078 14.2285 2.4707ZM8.81836 3.74023L7.1582 6.72852L7.10938 6.72852L5.44922 3.74023C5.26367 3.39844 5.08789 3.28125 4.76562 3.28125C4.38477 3.28125 4.10156 3.56445 4.10156 3.91602C4.10156 4.04297 4.13086 4.18945 4.21875 4.32617L6.40625 8.08594L6.40625 9.95117C6.40625 10.4395 6.65039 10.7812 7.11914 10.7812C7.59766 10.7812 7.85156 10.4688 7.85156 9.95117L7.85156 8.06641L10.0098 4.32617C10.0977 4.20898 10.1367 4.05273 10.1367 3.93555C10.1367 3.55469 9.86328 3.28125 9.48242 3.28125C9.16992 3.28125 8.99414 3.4082 8.81836 3.74023Z" fill="var(--color-primary)"/>
 </g>
</svg>
