<?xml version="1.0" encoding="UTF-8"?>
<!--Generator: Apple Native CoreSVG 232.5-->
<!DOCTYPE svg
PUBLIC "-//W3C//DTD SVG 1.1//EN"
       "http://www.w3.org/Graphics/SVG/1.1/DTD/svg11.dtd">
<svg version="1.1" xmlns="http://www.w3.org/2000/svg" xmlns:xlink="http://www.w3.org/1999/xlink" width="20.2832" height="19.9316">
 <g>
  <rect height="19.9316" opacity="0" width="20.2832" x="0" y="0"/>
  <path d="M9.96094 19.9219C15.4102 19.9219 19.9219 15.4004 19.9219 9.96094C19.9219 4.51172 15.4004 0 9.95117 0C4.51172 0 0 4.51172 0 9.96094C0 15.4004 4.52148 19.9219 9.96094 19.9219Z" fill="#ffffff" fill-opacity="0.25"/>
  <path d="M9.96094 14.7559C7.83203 14.7559 6.40625 12.832 6.40625 9.96094C6.40625 7.08984 7.83203 5.16602 9.96094 5.16602C12.0996 5.16602 13.5254 7.08984 13.5254 9.96094C13.5254 12.832 12.0996 14.7559 9.96094 14.7559ZM9.96094 13.457C11.1621 13.457 11.9727 12.0605 11.9727 9.96094C11.9727 7.86133 11.1621 6.46484 9.96094 6.46484C8.75977 6.46484 7.94922 7.86133 7.94922 9.96094C7.94922 12.0605 8.75977 13.457 9.96094 13.457Z" fill="#ffffff" fill-opacity="0.85"/>
 </g>
</svg>
