<?xml version="1.0" encoding="UTF-8"?>
<!--Generator: Apple Native CoreSVG 232.5-->
<!DOCTYPE svg
PUBLIC "-//W3C//DTD SVG 1.1//EN"
       "http://www.w3.org/Graphics/SVG/1.1/DTD/svg11.dtd">
<svg version="1.1" xmlns="http://www.w3.org/2000/svg" xmlns:xlink="http://www.w3.org/1999/xlink" width="18.3398" height="17.998">
 <g>
  <rect height="17.998" opacity="0" width="18.3398" x="0" y="0"/>
  <path d="M3.06641 17.998L14.9121 17.998C16.9629 17.998 17.9785 16.9824 17.9785 14.9707L17.9785 3.04688C17.9785 1.03516 16.9629 0.0195312 14.9121 0.0195312L3.06641 0.0195312C1.02539 0.0195312 0 1.02539 0 3.04688L0 14.9707C0 16.9922 1.02539 17.998 3.06641 17.998ZM3.08594 16.4258C2.10938 16.4258 1.57227 15.9082 1.57227 14.8926L1.57227 3.125C1.57227 2.10938 2.10938 1.5918 3.08594 1.5918L14.8926 1.5918C15.8594 1.5918 16.4062 2.10938 16.4062 3.125L16.4062 14.8926C16.4062 15.9082 15.8594 16.4258 14.8926 16.4258Z" fill="#ffffff" fill-opacity="0.55"/>
  <path d="M5.89844 13.1445C7.8418 13.1445 8.42773 10.957 8.42773 8.99414C8.42773 7.03125 7.8418 4.84375 5.89844 4.84375C3.95508 4.84375 3.36914 7.03125 3.36914 8.99414C3.36914 10.957 3.95508 13.1445 5.89844 13.1445ZM5.89844 11.9824C5.09766 11.9824 4.79492 10.6836 4.79492 8.99414C4.79492 7.29492 5.09766 5.99609 5.89844 5.99609C6.69922 5.99609 7.00195 7.29492 7.00195 8.99414C7.00195 10.6836 6.69922 11.9824 5.89844 11.9824ZM12.0898 13.1445C14.043 13.1445 14.6191 10.957 14.6191 8.99414C14.6191 7.03125 14.043 4.84375 12.0898 4.84375C10.1465 4.84375 9.56055 7.03125 9.56055 8.99414C9.56055 10.957 10.1465 13.1445 12.0898 13.1445ZM12.0898 11.9824C11.2891 11.9824 10.9863 10.6836 10.9863 8.99414C10.9863 7.29492 11.2891 5.99609 12.0898 5.99609C12.8906 5.99609 13.1934 7.29492 13.1934 8.99414C13.1934 10.6836 12.8906 11.9824 12.0898 11.9824Z" fill="#ffffff" fill-opacity="0.85"/>
 </g>
</svg>
