<?xml version="1.0" encoding="UTF-8"?>
<!--Generator: Apple Native CoreSVG 232.5-->
<!DOCTYPE svg
PUBLIC "-//W3C//DTD SVG 1.1//EN"
       "http://www.w3.org/Graphics/SVG/1.1/DTD/svg11.dtd">
<svg version="1.1" xmlns="http://www.w3.org/2000/svg" xmlns:xlink="http://www.w3.org/1999/xlink" width="20.2832" height="19.9316">
 <g>
  <rect height="19.9316" opacity="0" width="20.2832" x="0" y="0"/>
  <path d="M19.9219 9.96094C19.9219 15.4004 15.4102 19.9219 9.96094 19.9219C4.52148 19.9219 0 15.4004 0 9.96094C0 4.51172 4.51172 0 9.95117 0C15.4004 0 19.9219 4.51172 19.9219 9.96094ZM4.13086 9.96094C4.13086 11.9922 4.72656 14.2383 6.74805 14.2383C8.75 14.2383 9.3457 11.9922 9.3457 9.96094C9.3457 7.92969 8.75 5.68359 6.74805 5.68359C4.72656 5.68359 4.13086 7.92969 4.13086 9.96094ZM12.4609 6.74805L10.6641 10.6543C10.5078 11.0449 10.4395 11.3086 10.4395 11.6211C10.4395 12.1094 10.7812 12.4414 11.2695 12.4414L13.5254 12.4414L13.5254 13.4473C13.5254 13.9746 13.8965 14.1602 14.2188 14.1602C14.5996 14.1602 14.9121 13.9258 14.9121 13.4473L14.9121 12.4414L15.2734 12.4414C15.6543 12.4414 15.8496 12.1875 15.8496 11.8457C15.8496 11.5234 15.6738 11.2695 15.2734 11.2695L14.9121 11.2695L14.9121 6.85547C14.9121 6.15234 14.4531 5.76172 13.7988 5.76172C13.0762 5.76172 12.7441 6.12305 12.4609 6.74805ZM7.87109 9.96094C7.87109 11.709 7.55859 13.0371 6.74805 13.0371C5.92773 13.0371 5.61523 11.709 5.61523 9.96094C5.61523 8.20312 5.92773 6.88477 6.74805 6.88477C7.55859 6.88477 7.87109 8.20312 7.87109 9.96094ZM13.5547 11.2988L11.6895 11.2988L11.6895 11.2305L13.5156 7.03125L13.5547 7.03125Z" fill="#ffffff" fill-opacity="0.85"/>
 </g>
</svg>
