<?xml version="1.0" encoding="UTF-8"?>
<!--Generator: Apple Native CoreSVG 232.5-->
<!DOCTYPE svg
PUBLIC "-//W3C//DTD SVG 1.1//EN"
       "http://www.w3.org/Graphics/SVG/1.1/DTD/svg11.dtd">
<svg version="1.1" xmlns="http://www.w3.org/2000/svg" xmlns:xlink="http://www.w3.org/1999/xlink" width="18.3398" height="17.998">
 <g>
  <rect height="17.998" opacity="0" width="18.3398" x="0" y="0"/>
  <path d="M3.06641 17.998L14.9121 17.998C16.9629 17.998 17.9785 16.9824 17.9785 14.9707L17.9785 3.04688C17.9785 1.03516 16.9629 0.0195312 14.9121 0.0195312L3.06641 0.0195312C1.02539 0.0195312 0 1.02539 0 3.04688L0 14.9707C0 16.9922 1.02539 17.998 3.06641 17.998ZM3.08594 16.4258C2.10938 16.4258 1.57227 15.9082 1.57227 14.8926L1.57227 3.125C1.57227 2.10938 2.10938 1.5918 3.08594 1.5918L14.8926 1.5918C15.8594 1.5918 16.4062 2.10938 16.4062 3.125L16.4062 14.8926C16.4062 15.9082 15.8594 16.4258 14.8926 16.4258Z" fill="#ffffff" fill-opacity="0.55"/>
  <path d="M5.89844 13.1445C7.8418 13.1445 8.42773 10.957 8.42773 8.99414C8.42773 7.03125 7.8418 4.84375 5.89844 4.84375C3.95508 4.84375 3.36914 7.03125 3.36914 8.99414C3.36914 10.957 3.95508 13.1445 5.89844 13.1445ZM5.89844 11.9824C5.09766 11.9824 4.79492 10.6836 4.79492 8.99414C4.79492 7.29492 5.09766 5.99609 5.89844 5.99609C6.69922 5.99609 7.00195 7.29492 7.00195 8.99414C7.00195 10.6836 6.69922 11.9824 5.89844 11.9824ZM12.0801 13.1152C13.623 13.1152 14.6094 12.1484 14.6094 10.8105C14.6094 9.74609 13.9355 8.97461 13.1543 8.79883L13.1543 8.76953C13.8086 8.56445 14.3945 7.92969 14.3945 7.00195C14.3945 5.74219 13.457 4.88281 12.0801 4.88281C10.8691 4.88281 9.77539 5.625 9.77539 6.99219C9.77539 7.98828 10.4004 8.57422 11.0254 8.76953L11.0254 8.79883C10.1855 8.98438 9.55078 9.75586 9.55078 10.8105C9.55078 12.2559 10.6445 13.1152 12.0801 13.1152ZM12.0801 8.32031C11.4551 8.32031 11.1328 7.71484 11.1328 7.13867C11.1328 6.51367 11.4746 5.92773 12.0801 5.92773C12.7148 5.92773 13.0176 6.51367 13.0176 7.13867C13.0176 7.7832 12.6953 8.32031 12.0801 8.32031ZM12.0801 12.0605C11.3672 12.0605 11.0156 11.4258 11.0156 10.7031C11.0156 10 11.377 9.375 12.0801 9.375C12.7734 9.375 13.1445 9.96094 13.1445 10.7031C13.1445 11.4258 12.793 12.0605 12.0801 12.0605Z" fill="#ffffff" fill-opacity="0.85"/>
 </g>
</svg>
