<?xml version="1.0" encoding="UTF-8"?>
<!--Generator: Apple Native CoreSVG 232.5-->
<!DOCTYPE svg
PUBLIC "-//W3C//DTD SVG 1.1//EN"
       "http://www.w3.org/Graphics/SVG/1.1/DTD/svg11.dtd">
<svg version="1.1" xmlns="http://www.w3.org/2000/svg" xmlns:xlink="http://www.w3.org/1999/xlink" width="18.3398" height="17.998">
 <g>
  <rect height="17.998" opacity="0" width="18.3398" x="0" y="0"/>
  <path d="M3.06641 17.998L14.9121 17.998C16.9629 17.998 17.9785 16.9824 17.9785 14.9707L17.9785 3.04688C17.9785 1.03516 16.9629 0.0195312 14.9121 0.0195312L3.06641 0.0195312C1.02539 0.0195312 0 1.02539 0 3.04688L0 14.9707C0 16.9922 1.02539 17.998 3.06641 17.998ZM3.08594 16.4258C2.10938 16.4258 1.57227 15.9082 1.57227 14.8926L1.57227 3.125C1.57227 2.10938 2.10938 1.5918 3.08594 1.5918L14.8926 1.5918C15.8594 1.5918 16.4062 2.10938 16.4062 3.125L16.4062 14.8926C16.4062 15.9082 15.8594 16.4258 14.8926 16.4258Z" fill="#ffffff" fill-opacity="0.85"/>
  <path d="M5.95703 13.1445C7.90039 13.1445 8.48633 10.957 8.48633 8.99414C8.48633 7.03125 7.90039 4.84375 5.95703 4.84375C4.01367 4.84375 3.42773 7.03125 3.42773 8.99414C3.42773 10.957 4.01367 13.1445 5.95703 13.1445ZM5.95703 11.9824C5.15625 11.9824 4.85352 10.6836 4.85352 8.99414C4.85352 7.29492 5.15625 5.99609 5.95703 5.99609C6.75781 5.99609 7.06055 7.29492 7.06055 8.99414C7.06055 10.6836 6.75781 11.9824 5.95703 11.9824ZM11.5039 10.2148C12.3047 10.2148 12.9004 9.6875 13.125 8.84766L13.1641 8.84766C13.1641 8.88672 13.1641 8.92578 13.1641 8.95508C13.1641 10.0391 13.0273 11.9922 11.9336 11.9922C11.4941 11.9922 11.2012 11.6895 11.0254 11.2695C10.8789 10.9473 10.6934 10.8203 10.4004 10.8203C9.99023 10.8203 9.81445 11.0938 9.81445 11.416C9.81445 11.5332 9.84375 11.6504 9.87305 11.7676C10.0781 12.6172 10.9277 13.1348 11.9043 13.1348C13.9062 13.1348 14.4922 10.918 14.4922 8.91602C14.4922 7.07031 13.9062 4.86328 11.9238 4.86328C10.4395 4.86328 9.58008 6.11328 9.58008 7.64648C9.58008 8.96484 10.2148 10.2148 11.5039 10.2148ZM11.9434 9.14062C11.2207 9.14062 10.9277 8.31055 10.9277 7.58789C10.9277 6.85547 11.2598 5.99609 11.9434 5.99609C12.6758 5.99609 12.9785 6.85547 12.9785 7.58789C12.9785 8.33984 12.6465 9.14062 11.9434 9.14062Z" fill="#ffffff" fill-opacity="0.85"/>
 </g>
</svg>
