<svg version="1.1" xmlns="http://www.w3.org/2000/svg" xmlns:xlink="http://www.w3.org/1999/xlink" width="18.3398" height="17.998" viewBox="0 0 18.3398 17.998">
 <g>
  <rect height="17.998" opacity="0" width="18.3398" x="0" y="0"/>
  <path d="M17.9785 3.04688L17.9785 14.9707C17.9785 16.9824 16.9629 17.998 14.9121 17.998L3.06641 17.998C1.02539 17.998 0 16.9922 0 14.9707L0 3.04688C0 1.02539 1.02539 0.0195312 3.06641 0.0195312L14.9121 0.0195312C16.9629 0.0195312 17.9785 1.03516 17.9785 3.04688ZM8.42773 4.58984L6.61133 5.82031C6.39648 5.98633 6.29883 6.13281 6.29883 6.38672C6.29883 6.69922 6.55273 6.99219 6.875 6.99219C7.03125 6.99219 7.13867 6.97266 7.37305 6.81641L8.67188 5.95703L8.74023 5.95703L8.74023 12.8809C8.74023 13.4473 9.0332 13.7891 9.54102 13.7891C10.0586 13.7891 10.3613 13.4473 10.3613 12.8809L10.3613 5.10742C10.3613 4.52148 10.0488 4.19922 9.50195 4.19922C9.12109 4.19922 8.85742 4.29688 8.42773 4.58984Z" fill="currentColor"/>
 </g>
</svg>
