<svg version="1.1" xmlns="http://www.w3.org/2000/svg" xmlns:xlink="http://www.w3.org/1999/xlink" width="18.3398" height="17.998" viewBox="0 0 18.3398 17.998">
 <g>
  <rect height="17.998" opacity="0" width="18.3398" x="0" y="0"/>
  <path d="M17.9785 3.04688L17.9785 14.9707C17.9785 16.9824 16.9629 17.998 14.9121 17.998L3.06641 17.998C1.02539 17.998 0 16.9922 0 14.9707L0 3.04688C0 1.02539 1.02539 0.0195312 3.06641 0.0195312L14.9121 0.0195312C16.9629 0.0195312 17.9785 1.03516 17.9785 3.04688ZM5.26367 5.21484L4.16016 6.06445C3.97461 6.20117 3.82812 6.39648 3.82812 6.66016C3.82812 6.97266 4.04297 7.19727 4.3457 7.19727C4.51172 7.19727 4.60938 7.14844 4.7168 7.08008L5.63477 6.32812L5.63477 12.4414C5.63477 12.8418 5.9668 13.1738 6.37695 13.1738C6.77734 13.1738 7.10938 12.8418 7.10938 12.4414L7.10938 5.61523C7.10938 5.09766 6.78711 4.79492 6.25977 4.79492C5.83984 4.79492 5.49805 5.0293 5.26367 5.21484ZM8.65234 6.82617C8.65234 7.20703 8.87695 7.4707 9.25781 7.4707C9.59961 7.4707 9.80469 7.31445 9.91211 6.98242C10.0977 6.30859 10.3418 5.88867 10.9277 5.88867C11.5234 5.88867 11.8652 6.41602 11.8652 7.12891C11.8652 7.93945 11.2988 8.75977 10.7715 9.44336L9.02344 11.6699C8.83789 11.9141 8.64258 12.168 8.64258 12.4805C8.64258 12.8223 8.86719 13.0664 9.33594 13.0664L12.832 13.0664C13.1836 13.0664 13.3984 12.832 13.3984 12.4805C13.3984 12.0898 13.1738 11.8848 12.832 11.8848L10.4395 11.8848L10.4395 11.7969L11.9043 9.94141C12.9102 8.69141 13.2422 7.94922 13.2422 7.06055C13.2422 5.70312 12.3145 4.7168 10.9277 4.7168C9.63867 4.7168 8.65234 5.78125 8.65234 6.82617Z" fill="var(--color-primary)"/>
 </g>
</svg>
