<?xml version="1.0" encoding="UTF-8"?>
<!--Generator: Apple Native CoreSVG 232.5-->
<!DOCTYPE svg
PUBLIC "-//W3C//DTD SVG 1.1//EN"
       "http://www.w3.org/Graphics/SVG/1.1/DTD/svg11.dtd">
<svg version="1.1" xmlns="http://www.w3.org/2000/svg" xmlns:xlink="http://www.w3.org/1999/xlink" width="23.3887" height="17.9785">
 <g>
  <rect height="17.9785" opacity="0" width="23.3887" x="0" y="0"/>
  <path d="M3.06641 17.9785L19.9609 17.9785C22.0117 17.9785 23.0273 16.9727 23.0273 14.9609L23.0273 3.02734C23.0273 1.01562 22.0117 0 19.9609 0L3.06641 0C1.02539 0 0 1.01562 0 3.02734L0 14.9609C0 16.9727 1.02539 17.9785 3.06641 17.9785ZM3.08594 16.4062C2.10938 16.4062 1.57227 15.8887 1.57227 14.873L1.57227 3.11523C1.57227 2.09961 2.10938 1.57227 3.08594 1.57227L19.9414 1.57227C20.9082 1.57227 21.4551 2.09961 21.4551 3.11523L21.4551 14.873C21.4551 15.8887 20.9082 16.4062 19.9414 16.4062Z" fill="#ffffff" fill-opacity="0.85"/>
  <path d="M5.75195 12.9785C6.18164 12.9785 6.42578 12.7051 6.42578 12.2461L6.42578 5.6543C6.42578 5.17578 6.16211 4.91211 5.72266 4.91211C5.40039 4.91211 5.19531 4.99023 4.83398 5.24414L3.27148 6.29883C3.08594 6.42578 3.01758 6.5625 3.01758 6.75781C3.01758 7.02148 3.23242 7.24609 3.47656 7.24609C3.60352 7.24609 3.70117 7.22656 3.90625 7.08008L5.01953 6.34766L5.10742 6.34766L5.10742 12.2461C5.10742 12.6953 5.35156 12.9785 5.75195 12.9785ZM8.53516 12.8613L12.9199 12.8613C13.252 12.8613 13.4863 12.6172 13.4863 12.2852C13.4863 11.9531 13.252 11.7285 12.9199 11.7285L9.79492 11.7285L9.79492 11.6895L11.8164 9.52148C12.5781 8.70117 13.1152 8.02734 13.1152 7.08984C13.1152 5.77148 12.0703 4.90234 10.4883 4.90234C9.28711 4.90234 8.20312 5.63477 7.92969 6.62109C7.90039 6.75781 7.88086 6.8457 7.88086 6.96289C7.88086 7.29492 8.0957 7.51953 8.44727 7.51953C8.75 7.51953 8.91602 7.33398 9.0625 7.08984C9.26758 6.5625 9.72656 6.01562 10.5469 6.01562C11.3477 6.01562 11.8848 6.48438 11.8848 7.1875C11.8848 7.79297 11.377 8.32031 10.8789 8.84766L8.14453 11.7871C7.99805 11.9336 7.91992 12.0898 7.91992 12.2949C7.91992 12.6367 8.16406 12.8613 8.53516 12.8613ZM16.9922 12.9883C18.75 12.9883 19.9316 12.0703 19.9316 10.6836C19.9316 9.67773 19.1797 8.88672 18.1543 8.7793L18.1543 8.75977C19.0039 8.62305 19.6582 7.8418 19.6582 6.94336C19.6582 5.75195 18.5742 4.89258 17.0605 4.89258C15.6836 4.89258 14.6387 5.55664 14.4043 6.5625C14.3848 6.68945 14.375 6.76758 14.375 6.9043C14.375 7.22656 14.6094 7.46094 14.9609 7.46094C15.2637 7.46094 15.4492 7.32422 15.5469 7.02148C15.7324 6.36719 16.2891 5.99609 17.041 5.99609C17.8711 5.99609 18.3984 6.41602 18.3984 7.08984C18.3984 7.7832 17.8027 8.29102 17.002 8.29102L16.4648 8.29102C16.1621 8.29102 15.9375 8.50586 15.9375 8.81836C15.9375 9.13086 16.1621 9.35547 16.4648 9.35547L17.0605 9.35547C18.0078 9.35547 18.6621 9.86328 18.6621 10.6348C18.6621 11.3867 17.998 11.8945 17.0117 11.8945C16.2012 11.8945 15.625 11.5234 15.4004 10.8594C15.2734 10.5664 15.0977 10.4297 14.8047 10.4297C14.4434 10.4297 14.2188 10.6738 14.2188 11.0156C14.2188 11.1328 14.2285 11.1914 14.248 11.3086C14.4629 12.2949 15.6152 12.9883 16.9922 12.9883Z" fill="#ffffff" fill-opacity="0.85"/>
 </g>
</svg>
