<svg version="1.1" xmlns="http://www.w3.org/2000/svg" xmlns:xlink="http://www.w3.org/1999/xlink" width="18.3398" height="17.998" viewBox="0 0 18.3398 17.998">
 <g>
  <rect height="17.998" opacity="0" width="18.3398" x="0" y="0"/>
  <path d="M17.9785 3.04688L17.9785 14.9707C17.9785 16.9824 16.9629 17.998 14.9121 17.998L3.06641 17.998C1.02539 17.998 0 16.9922 0 14.9707L0 3.04688C0 1.02539 1.02539 0.0195312 3.06641 0.0195312L14.9121 0.0195312C16.9629 0.0195312 17.9785 1.03516 17.9785 3.04688ZM8.81836 6.23047C8.75977 6.42578 8.74023 6.60156 8.74023 6.77734C8.74023 7.10938 8.96484 7.37305 9.36523 7.37305C9.7168 7.37305 9.91211 7.24609 10.0098 6.89453C10.166 6.29883 10.4883 5.92773 11.0547 5.92773C11.7188 5.92773 12.0312 6.43555 12.0312 7.09961C12.0312 7.83203 11.6211 8.36914 10.8691 8.36914L10.6348 8.36914C10.2832 8.36914 10.0781 8.58398 10.0781 8.91602C10.0781 9.24805 10.293 9.44336 10.6348 9.44336L10.8789 9.44336C11.7383 9.44336 12.207 9.91211 12.207 10.7812C12.207 11.4746 11.8457 12.0703 11.0938 12.0703C10.3711 12.0703 10.0391 11.582 9.91211 11.123C9.81445 10.791 9.59961 10.625 9.27734 10.625C8.87695 10.625 8.61328 10.8691 8.61328 11.2598C8.61328 11.4453 8.64258 11.6211 8.69141 11.7871C8.98438 12.7246 10.0098 13.2422 11.0938 13.2422C12.5293 13.2422 13.6523 12.334 13.6523 10.8301C13.6523 9.58008 12.9102 8.96484 12.0508 8.87695L12.0508 8.84766C12.9688 8.60352 13.4082 7.7832 13.4082 6.94336C13.4082 5.54688 12.373 4.75586 11.0547 4.75586C10.0098 4.75586 9.11133 5.3418 8.81836 6.23047ZM5.16602 5.20508L4.0625 6.06445C3.87695 6.20117 3.75 6.39648 3.75 6.66016C3.75 6.97266 3.96484 7.19727 4.26758 7.19727C4.41406 7.19727 4.52148 7.14844 4.61914 7.07031L5.54688 6.32812L5.54688 12.4316C5.54688 12.8418 5.87891 13.1738 6.28906 13.1738C6.68945 13.1738 7.02148 12.8418 7.02148 12.4316L7.02148 5.61523C7.02148 5.09766 6.69922 4.79492 6.17188 4.79492C5.75195 4.79492 5.41016 5.0293 5.16602 5.20508Z" fill="var(--color-primary)"/>
 </g>
</svg>
