<svg version="1.1" xmlns="http://www.w3.org/2000/svg" xmlns:xlink="http://www.w3.org/1999/xlink" width="20.2832" height="19.9316" viewBox="0 0 20.2832 19.9316">
 <g>
  <rect height="19.9316" opacity="0" width="20.2832" x="0" y="0"/>
  <path d="M19.9219 9.96094C19.9219 15.4004 15.4102 19.9219 9.96094 19.9219C4.52148 19.9219 0 15.4004 0 9.96094C0 4.51172 4.51172 0 9.95117 0C15.4004 0 19.9219 4.51172 19.9219 9.96094ZM9.46289 10.0586C9.46289 11.9629 10.0684 14.2383 12.1094 14.2383C13.6426 14.2383 14.5312 12.9492 14.5312 11.3672C14.5312 10.0098 13.877 8.7207 12.5391 8.7207C11.7285 8.7207 11.1133 9.26758 10.8789 10.127L10.8398 10.127C10.8398 10.0879 10.8398 10.0488 10.8398 10.0195C10.8398 8.90625 10.9766 6.88477 12.0898 6.88477C12.5586 6.88477 12.8516 7.20703 13.0273 7.62695C13.1641 7.93945 13.3594 8.07617 13.6816 8.07617C14.1016 8.07617 14.2676 7.80273 14.2676 7.4707C14.2676 7.36328 14.248 7.23633 14.2188 7.10938C14.0137 6.24023 13.1348 5.70312 12.1191 5.70312C10.0586 5.70312 9.46289 8.01758 9.46289 10.0586ZM5.98633 6.17188L4.88281 7.03125C4.69727 7.16797 4.56055 7.36328 4.56055 7.62695C4.56055 7.93945 4.77539 8.16406 5.07812 8.16406C5.23438 8.16406 5.3418 8.11523 5.43945 8.03711L6.35742 7.29492L6.35742 13.3984C6.35742 13.8086 6.69922 14.1406 7.09961 14.1406C7.50977 14.1406 7.8418 13.8086 7.8418 13.3984L7.8418 6.58203C7.8418 6.06445 7.51953 5.76172 6.99219 5.76172C6.5625 5.76172 6.2207 5.99609 5.98633 6.17188ZM13.1152 11.4355C13.1152 12.168 12.793 13.0566 12.0898 13.0566C11.3281 13.0566 11.0254 12.1094 11.0254 11.3867C11.0254 10.6543 11.3574 9.82422 12.0801 9.82422C12.832 9.82422 13.1348 10.6934 13.1152 11.4355Z" fill="currentColor"/>
 </g>
</svg>
