<?xml version="1.0" encoding="UTF-8"?>
<!--Generator: Apple Native CoreSVG 232.5-->
<!DOCTYPE svg
PUBLIC "-//W3C//DTD SVG 1.1//EN"
       "http://www.w3.org/Graphics/SVG/1.1/DTD/svg11.dtd">
<svg version="1.1" xmlns="http://www.w3.org/2000/svg" xmlns:xlink="http://www.w3.org/1999/xlink" width="18.3398" height="17.998">
 <g>
  <rect height="17.998" opacity="0" width="18.3398" x="0" y="0"/>
  <path d="M17.9785 3.04688L17.9785 14.9707C17.9785 16.9824 16.9629 17.998 14.9121 17.998L3.06641 17.998C1.02539 17.998 0 16.9922 0 14.9707L0 3.04688C0 1.02539 1.02539 0.0195312 3.06641 0.0195312L14.9121 0.0195312C16.9629 0.0195312 17.9785 1.03516 17.9785 3.04688ZM9.49219 4.92188C9.15039 4.92188 8.90625 5.17578 8.90625 5.51758C8.90625 5.86914 9.15039 6.12305 9.49219 6.12305L12.0801 6.12305L12.0801 6.21094L9.84375 11.9824C9.75586 12.207 9.72656 12.334 9.72656 12.5781C9.72656 12.8711 9.91211 13.2031 10.3906 13.2031C10.7715 13.2031 10.9277 13.0566 11.0742 12.6855L13.3691 6.55273C13.4766 6.24023 13.5547 5.99609 13.5547 5.70312C13.5547 5.23438 13.1934 4.92188 12.7441 4.92188ZM5.61523 5.20508L4.51172 6.06445C4.33594 6.20117 4.19922 6.39648 4.19922 6.66016C4.19922 6.97266 4.41406 7.19727 4.7168 7.19727C4.87305 7.19727 4.9707 7.14844 5.07812 7.07031L5.99609 6.32812L5.99609 12.4316C5.99609 12.8418 6.32812 13.1738 6.73828 13.1738C7.13867 13.1738 7.4707 12.8418 7.4707 12.4316L7.4707 5.61523C7.4707 5.09766 7.14844 4.79492 6.63086 4.79492C6.20117 4.79492 5.85938 5.0293 5.61523 5.20508Z" fill="#ffffff" fill-opacity="0.85"/>
 </g>
</svg>
