<?xml version="1.0" encoding="UTF-8"?>
<!--Generator: Apple Native CoreSVG 232.5-->
<!DOCTYPE svg
PUBLIC "-//W3C//DTD SVG 1.1//EN"
       "http://www.w3.org/Graphics/SVG/1.1/DTD/svg11.dtd">
<svg version="1.1" xmlns="http://www.w3.org/2000/svg" xmlns:xlink="http://www.w3.org/1999/xlink" width="18.3398" height="17.998">
 <g>
  <rect height="17.998" opacity="0" width="18.3398" x="0" y="0"/>
  <path d="M3.06641 17.998L14.9121 17.998C16.9629 17.998 17.9785 16.9824 17.9785 14.9707L17.9785 3.04688C17.9785 1.03516 16.9629 0.0195312 14.9121 0.0195312L3.06641 0.0195312C1.02539 0.0195312 0 1.02539 0 3.04688L0 14.9707C0 16.9922 1.02539 17.998 3.06641 17.998Z" fill="#ffffff" fill-opacity="0.25"/>
  <path d="M6.26953 13.1738C5.85938 13.1738 5.52734 12.8418 5.52734 12.4316L5.52734 6.32812L4.60938 7.07031C4.50195 7.14844 4.4043 7.19727 4.23828 7.19727C3.93555 7.19727 3.73047 6.97266 3.73047 6.66016C3.73047 6.39648 3.86719 6.20117 4.04297 6.06445L5.14648 5.20508C5.39062 5.0293 5.73242 4.79492 6.16211 4.79492C6.66992 4.79492 7.01172 5.09766 7.01172 5.61523L7.01172 12.4316C7.01172 12.8418 6.66016 13.1738 6.26953 13.1738ZM11.1914 13.2422C9.70703 13.2422 8.57422 12.3633 8.57422 10.8691C8.57422 9.77539 9.23828 8.98438 10.0977 8.78906L10.0977 8.75977C9.45312 8.56445 8.80859 7.95898 8.80859 6.93359C8.80859 5.51758 9.94141 4.75586 11.1914 4.75586C12.6074 4.75586 13.584 5.63477 13.584 6.94336C13.584 7.90039 12.9785 8.55469 12.3047 8.75977L12.3047 8.78906C13.1055 8.97461 13.7988 9.76562 13.7988 10.8691C13.7988 12.2461 12.7832 13.2422 11.1914 13.2422ZM11.1914 8.30078C11.8262 8.30078 12.1582 7.74414 12.1582 7.08008C12.1582 6.43555 11.8457 5.83984 11.1914 5.83984C10.5664 5.83984 10.2148 6.43555 10.2148 7.08008C10.2148 7.67578 10.5469 8.30078 11.1914 8.30078ZM11.1914 12.1484C11.9238 12.1484 12.2852 11.4941 12.2852 10.752C12.2852 9.99023 11.9043 9.38477 11.1914 9.38477C10.4688 9.38477 10.0977 10.0293 10.0977 10.752C10.0977 11.4941 10.459 12.1484 11.1914 12.1484Z" fill="#ffffff" fill-opacity="0.85"/>
 </g>
</svg>
