<?xml version="1.0" encoding="UTF-8"?>
<!--Generator: Apple Native CoreSVG 232.5-->
<!DOCTYPE svg
PUBLIC "-//W3C//DTD SVG 1.1//EN"
       "http://www.w3.org/Graphics/SVG/1.1/DTD/svg11.dtd">
<svg version="1.1" xmlns="http://www.w3.org/2000/svg" xmlns:xlink="http://www.w3.org/1999/xlink" width="18.3398" height="14.7363">
 <g>
  <rect height="14.7363" opacity="0" width="18.3398" x="0" y="0"/>
  <path d="M0 13.9453C0 14.375 0.351562 14.7363 0.78125 14.7363C1.2207 14.7363 1.57227 14.375 1.57227 13.9453L1.57227 0.800781C1.57227 0.371094 1.2207 0.0195312 0.78125 0.0195312C0.351562 0.0195312 0 0.371094 0 0.800781ZM16.4062 13.9453C16.4062 14.375 16.7676 14.7363 17.1973 14.7363C17.627 14.7363 17.9785 14.375 17.9785 13.9453L17.9785 0.800781C17.9785 0.371094 17.627 0.0195312 17.1973 0.0195312C16.7676 0.0195312 16.4062 0.371094 16.4062 0.800781Z" fill="#ffffff" fill-opacity="0.55"/>
  <path d="M7.03125 11.9043L11.1133 11.9043C11.5039 11.9043 11.748 11.6602 11.748 11.2695C11.748 10.8887 11.5039 10.6543 11.1133 10.6543L8.26172 10.6543L8.26172 10.5664L9.91211 8.73047C10.3125 8.28125 10.625 7.89062 10.8691 7.56836C11.2988 6.97266 11.543 6.40625 11.543 5.68359C11.543 4.15039 10.4004 3.23242 8.90625 3.23242C7.65625 3.23242 6.63086 4.0625 6.37695 5.01953C6.34766 5.16602 6.31836 5.30273 6.31836 5.43945C6.31836 5.83984 6.57227 6.09375 6.97266 6.09375C7.31445 6.09375 7.5293 5.91797 7.65625 5.5957C7.8418 4.90234 8.24219 4.45312 8.90625 4.45312C9.63867 4.45312 10.0488 5.01953 10.0488 5.74219C10.0488 6.2793 9.86328 6.67969 9.56055 7.11914C9.375 7.38281 9.11133 7.71484 8.7793 8.10547L6.71875 10.4297C6.49414 10.6641 6.29883 10.9082 6.29883 11.2598C6.29883 11.5723 6.47461 11.9043 7.03125 11.9043Z" fill="#ffffff" fill-opacity="0.85"/>
 </g>
</svg>
