<svg version="1.1" xmlns="http://www.w3.org/2000/svg" xmlns:xlink="http://www.w3.org/1999/xlink" width="18.3398" height="17.998" viewBox="0 0 18.3398 17.998">
 <g>
  <rect height="17.998" opacity="0" width="18.3398" x="0" y="0"/>
  <path d="M17.9785 3.04688L17.9785 14.9707C17.9785 16.9824 16.9629 17.998 14.9121 17.998L3.06641 17.998C1.02539 17.998 0 16.9922 0 14.9707L0 3.04688C0 1.02539 1.02539 0.0195312 3.06641 0.0195312L14.9121 0.0195312C16.9629 0.0195312 17.9785 1.03516 17.9785 3.04688ZM9.4043 8.99414C9.4043 11.0254 10 13.2715 12.0117 13.2715C14.0234 13.2715 14.6191 11.0254 14.6191 8.99414C14.6191 6.96289 14.0234 4.7168 12.0117 4.7168C10 4.7168 9.4043 6.96289 9.4043 8.99414ZM3.60352 6.82617C3.60352 7.20703 3.82812 7.46094 4.20898 7.46094C4.55078 7.46094 4.74609 7.31445 4.86328 6.98242C5.03906 6.30859 5.29297 5.88867 5.86914 5.88867C6.47461 5.88867 6.80664 6.41602 6.80664 7.12891C6.80664 7.93945 6.25 8.75977 5.72266 9.43359L3.97461 11.6699C3.7793 11.9043 3.59375 12.1582 3.59375 12.4805C3.59375 12.8223 3.81836 13.0664 4.27734 13.0664L7.77344 13.0664C8.13477 13.0664 8.34961 12.832 8.34961 12.4805C8.34961 12.0898 8.125 11.875 7.77344 11.875L5.39062 11.875L5.39062 11.7969L6.85547 9.94141C7.86133 8.69141 8.19336 7.94922 8.19336 7.06055C8.19336 5.70312 7.26562 4.7168 5.87891 4.7168C4.58984 4.7168 3.60352 5.78125 3.60352 6.82617ZM13.1348 8.99414C13.1348 10.7422 12.832 12.0703 12.0117 12.0703C11.1914 12.0703 10.8789 10.7422 10.8789 8.99414C10.8789 7.23633 11.1914 5.91797 12.0117 5.91797C12.832 5.91797 13.1348 7.23633 13.1348 8.99414Z" fill="currentColor"/>
 </g>
</svg>
