<?xml version="1.0" encoding="UTF-8"?>
<!--Generator: Apple Native CoreSVG 232.5-->
<!DOCTYPE svg
PUBLIC "-//W3C//DTD SVG 1.1//EN"
       "http://www.w3.org/Graphics/SVG/1.1/DTD/svg11.dtd">
<svg version="1.1" xmlns="http://www.w3.org/2000/svg" xmlns:xlink="http://www.w3.org/1999/xlink" width="20.2832" height="19.9316">
 <g>
  <rect height="19.9316" opacity="0" width="20.2832" x="0" y="0"/>
  <path d="M19.9219 9.96094C19.9219 15.4004 15.4102 19.9219 9.96094 19.9219C4.52148 19.9219 0 15.4004 0 9.96094C0 4.51172 4.51172 0 9.95117 0C15.4004 0 19.9219 4.51172 19.9219 9.96094ZM10.5957 7.19727C10.5469 7.39258 10.5273 7.57812 10.5273 7.74414C10.5273 8.07617 10.7324 8.33984 11.1426 8.33984C11.4844 8.33984 11.6895 8.21289 11.7871 7.86133C11.9531 7.26562 12.2559 6.89453 12.832 6.89453C13.4961 6.89453 13.8086 7.40234 13.8086 8.06641C13.8086 8.79883 13.3984 9.33594 12.6367 9.33594L12.4121 9.33594C12.0703 9.33594 11.8457 9.55078 11.8457 9.88281C11.8457 10.2148 12.0703 10.4102 12.4121 10.4102L12.6562 10.4102C13.5156 10.4102 13.9844 10.8789 13.9844 11.7578C13.9844 12.4512 13.6133 13.0371 12.8711 13.0371C12.1387 13.0371 11.8066 12.5488 11.6895 12.0898C11.582 11.7578 11.377 11.5918 11.0547 11.5918C10.6543 11.5918 10.3809 11.8359 10.3809 12.2266C10.3809 12.4121 10.4102 12.5879 10.459 12.7539C10.752 13.6914 11.7871 14.209 12.8613 14.209C14.3164 14.209 15.4199 13.3105 15.4199 11.7969C15.4199 10.5469 14.6777 9.93164 13.8184 9.84375L13.8184 9.81445C14.7363 9.57031 15.1855 8.75 15.1855 7.91016C15.1855 6.51367 14.1406 5.72266 12.832 5.72266C11.7871 5.72266 10.8887 6.30859 10.5957 7.19727ZM4.58984 7.79297C4.58984 8.17383 4.80469 8.4375 5.19531 8.4375C5.52734 8.4375 5.73242 8.28125 5.83984 7.94922C6.02539 7.27539 6.26953 6.85547 6.8457 6.85547C7.46094 6.85547 7.80273 7.38281 7.80273 8.0957C7.80273 8.90625 7.23633 9.72656 6.69922 10.4004L4.95117 12.6367C4.76562 12.8809 4.58008 13.125 4.58008 13.4473C4.58008 13.7891 4.79492 14.0332 5.25391 14.0332L8.75 14.0332C9.11133 14.0332 9.32617 13.7988 9.32617 13.4473C9.32617 13.0566 9.10156 12.8418 8.75 12.8418L6.36719 12.8418L6.36719 12.7637L7.83203 10.9082C8.83789 9.6582 9.17969 8.91602 9.17969 8.02734C9.17969 6.66992 8.24219 5.68359 6.85547 5.68359C5.56641 5.68359 4.58984 6.74805 4.58984 7.79297Z" fill="#ffffff" fill-opacity="0.85"/>
 </g>
</svg>
