<?xml version="1.0" encoding="UTF-8"?>
<!--Generator: Apple Native CoreSVG 232.5-->
<!DOCTYPE svg
PUBLIC "-//W3C//DTD SVG 1.1//EN"
       "http://www.w3.org/Graphics/SVG/1.1/DTD/svg11.dtd">
<svg version="1.1" xmlns="http://www.w3.org/2000/svg" xmlns:xlink="http://www.w3.org/1999/xlink" width="18.3398" height="17.998">
 <g>
  <rect height="17.998" opacity="0" width="18.3398" x="0" y="0"/>
  <path d="M3.06641 17.998L14.9121 17.998C16.9629 17.998 17.9785 16.9824 17.9785 14.9707L17.9785 3.04688C17.9785 1.03516 16.9629 0.0195312 14.9121 0.0195312L3.06641 0.0195312C1.02539 0.0195312 0 1.02539 0 3.04688L0 14.9707C0 16.9922 1.02539 17.998 3.06641 17.998ZM3.08594 16.4258C2.10938 16.4258 1.57227 15.9082 1.57227 14.8926L1.57227 3.125C1.57227 2.10938 2.10938 1.5918 3.08594 1.5918L14.8926 1.5918C15.8594 1.5918 16.4062 2.10938 16.4062 3.125L16.4062 14.8926C16.4062 15.9082 15.8594 16.4258 14.8926 16.4258Z" fill="#ffffff" fill-opacity="0.85"/>
  <path d="M4.42383 12.9395L7.8125 12.9395C8.1543 12.9395 8.35938 12.7148 8.35938 12.373C8.35938 12.002 8.14453 11.7969 7.8125 11.7969L5.48828 11.7969L5.48828 11.7188L6.91406 9.91211C7.89062 8.70117 8.21289 7.97852 8.21289 7.11914C8.21289 5.80078 7.31445 4.84375 5.9668 4.84375C4.72656 4.84375 3.76953 5.87891 3.76953 6.89453C3.76953 7.25586 3.98438 7.50977 4.35547 7.50977C4.67773 7.50977 4.88281 7.36328 4.98047 7.04102C5.16602 6.38672 5.40039 5.97656 5.9668 5.97656C6.55273 5.97656 6.88477 6.49414 6.88477 7.1875C6.88477 7.96875 6.33789 8.75977 5.82031 9.42383L4.12109 11.5918C3.94531 11.8262 3.75977 12.0703 3.75977 12.373C3.75977 12.7051 3.97461 12.9395 4.42383 12.9395ZM12.8711 13.0664C13.2324 13.0664 13.5352 12.8418 13.5352 12.373L13.5352 11.3965L13.877 11.3965C14.2578 11.3965 14.4336 11.1523 14.4336 10.8203C14.4336 10.5078 14.2676 10.2637 13.877 10.2637L13.5352 10.2637L13.5352 5.97656C13.5352 5.30273 13.0957 4.92188 12.4512 4.92188C11.7676 4.92188 11.4453 5.27344 11.1719 5.87891L9.42383 9.66797C9.25781 10.0488 9.19922 10.3027 9.19922 10.6055C9.19922 11.0742 9.53125 11.3965 10.0098 11.3965L12.1875 11.3965L12.1875 12.373C12.1875 12.8906 12.5586 13.0664 12.8711 13.0664ZM12.2168 10.293L10.4102 10.293L10.4102 10.2246L12.1875 6.15234L12.2168 6.15234Z" fill="#ffffff" fill-opacity="0.85"/>
 </g>
</svg>
