<?xml version="1.0" encoding="UTF-8"?>
<!--Generator: Apple Native CoreSVG 232.5-->
<!DOCTYPE svg
PUBLIC "-//W3C//DTD SVG 1.1//EN"
       "http://www.w3.org/Graphics/SVG/1.1/DTD/svg11.dtd">
<svg version="1.1" xmlns="http://www.w3.org/2000/svg" xmlns:xlink="http://www.w3.org/1999/xlink" width="18.3398" height="17.998">
 <g>
  <rect height="17.998" opacity="0" width="18.3398" x="0" y="0"/>
  <path d="M17.9785 3.04688L17.9785 14.9707C17.9785 16.9824 16.9629 17.998 14.9121 17.998L3.06641 17.998C1.02539 17.998 0 16.9922 0 14.9707L0 3.04688C0 1.02539 1.02539 0.0195312 3.06641 0.0195312L14.9121 0.0195312C16.9629 0.0195312 17.9785 1.03516 17.9785 3.04688ZM5.9668 6.15234C5.92773 6.29883 5.91797 6.40625 5.91797 6.55273C5.91797 6.95312 6.20117 7.22656 6.60156 7.22656C6.96289 7.22656 7.17773 7.05078 7.30469 6.69922C7.51953 5.94727 8.1543 5.47852 9.08203 5.47852C10.0879 5.47852 10.7129 5.97656 10.7129 6.78711C10.7129 7.61719 10.0098 8.22266 9.05273 8.22266L8.41797 8.22266C8.05664 8.22266 7.7832 8.47656 7.7832 8.85742C7.7832 9.20898 8.05664 9.47266 8.41797 9.47266L9.10156 9.47266C10.2344 9.47266 11.0254 10.0977 11.0254 11.0059C11.0254 11.9141 10.2344 12.5 9.0625 12.5C7.95898 12.5 7.36328 11.9727 7.10938 11.2793C6.98242 10.9277 6.76758 10.7617 6.41602 10.7617C6.00586 10.7617 5.72266 11.0449 5.72266 11.4551C5.72266 11.6016 5.73242 11.6895 5.76172 11.8359C6.06445 12.998 7.37305 13.7891 9.0332 13.7891C11.1914 13.7891 12.5293 12.6562 12.5293 11.0645C12.5293 9.88281 11.6309 8.93555 10.4102 8.81836L10.4102 8.74023C11.4258 8.59375 12.207 7.66602 12.207 6.61133C12.207 5.20508 10.918 4.19922 9.11133 4.19922C7.4707 4.19922 6.23047 4.96094 5.9668 6.15234Z" fill="#ffffff" fill-opacity="0.85"/>
 </g>
</svg>
