<svg version="1.1" xmlns="http://www.w3.org/2000/svg" xmlns:xlink="http://www.w3.org/1999/xlink" width="18.3398" height="17.998" viewBox="0 0 18.3398 17.998">
 <g>
  <rect height="17.998" opacity="0" width="18.3398" x="0" y="0"/>
  <path d="M3.06641 17.998L14.9121 17.998C16.9629 17.998 17.9785 16.9824 17.9785 14.9707L17.9785 3.04688C17.9785 1.03516 16.9629 0.0195312 14.9121 0.0195312L3.06641 0.0195312C1.02539 0.0195312 0 1.02539 0 3.04688L0 14.9707C0 16.9922 1.02539 17.998 3.06641 17.998Z" fill="var(--color-tertiary)"/>
  <path d="M5.99609 13.2422C4.90234 13.2422 3.88672 12.7246 3.59375 11.7871C3.54492 11.6211 3.51562 11.4453 3.51562 11.2598C3.51562 10.8691 3.7793 10.625 4.16992 10.625C4.50195 10.625 4.7168 10.791 4.80469 11.123C4.94141 11.582 5.26367 12.0703 5.99609 12.0703C6.73828 12.0703 7.10938 11.4844 7.10938 10.791C7.10938 9.91211 6.63086 9.44336 5.78125 9.44336L5.52734 9.44336C5.19531 9.44336 4.9707 9.24805 4.9707 8.91602C4.9707 8.58398 5.18555 8.36914 5.52734 8.36914L5.77148 8.36914C6.52344 8.36914 6.93359 7.83203 6.93359 7.09961C6.93359 6.43555 6.61133 5.92773 5.94727 5.92773C5.39062 5.92773 5.06836 6.29883 4.91211 6.89453C4.80469 7.24609 4.60938 7.37305 4.25781 7.37305C3.86719 7.37305 3.64258 7.10938 3.64258 6.77734C3.64258 6.61133 3.66211 6.42578 3.7207 6.23047C4.00391 5.3418 4.91211 4.75586 5.94727 4.75586C7.26562 4.75586 8.31055 5.54688 8.31055 6.94336C8.31055 7.7832 7.87109 8.60352 6.95312 8.84766L6.95312 8.87695C7.79297 8.96484 8.55469 9.58008 8.55469 10.8301C8.55469 12.3438 7.43164 13.2422 5.99609 13.2422ZM10.2637 13.0664C9.81445 13.0664 9.58984 12.8223 9.58984 12.4805C9.58984 12.1582 9.78516 11.9141 9.96094 11.6699L11.709 9.43359C12.2461 8.75977 12.8125 7.93945 12.8125 7.12891C12.8125 6.41602 12.4707 5.88867 11.8652 5.88867C11.2891 5.88867 11.0352 6.30859 10.8594 6.98242C10.7422 7.31445 10.5371 7.4707 10.2051 7.4707C9.82422 7.4707 9.59961 7.20703 9.59961 6.82617C9.59961 5.78125 10.5762 4.7168 11.8652 4.7168C13.2617 4.7168 14.1895 5.70312 14.1895 7.06055C14.1895 7.94922 13.8574 8.69141 12.8516 9.94141L11.377 11.7969L11.377 11.875L13.7695 11.875C14.1211 11.875 14.3359 12.0898 14.3359 12.4805C14.3359 12.832 14.1309 13.0664 13.7695 13.0664Z" fill="var(--color-primary)"/>
 </g>
</svg>
