<?xml version="1.0" encoding="UTF-8"?>
<!--Generator: Apple Native CoreSVG 232.5-->
<!DOCTYPE svg
PUBLIC "-//W3C//DTD SVG 1.1//EN"
       "http://www.w3.org/Graphics/SVG/1.1/DTD/svg11.dtd">
<svg version="1.1" xmlns="http://www.w3.org/2000/svg" xmlns:xlink="http://www.w3.org/1999/xlink" width="18.3398" height="17.998">
 <g>
  <rect height="17.998" opacity="0" width="18.3398" x="0" y="0"/>
  <path d="M3.06641 17.998L14.9121 17.998C16.9629 17.998 17.9785 16.9824 17.9785 14.9707L17.9785 3.04688C17.9785 1.03516 16.9629 0.0195312 14.9121 0.0195312L3.06641 0.0195312C1.02539 0.0195312 0 1.02539 0 3.04688L0 14.9707C0 16.9922 1.02539 17.998 3.06641 17.998ZM3.08594 16.4258C2.10938 16.4258 1.57227 15.9082 1.57227 14.8926L1.57227 3.125C1.57227 2.10938 2.10938 1.5918 3.08594 1.5918L14.8926 1.5918C15.8594 1.5918 16.4062 2.10938 16.4062 3.125L16.4062 14.8926C16.4062 15.9082 15.8594 16.4258 14.8926 16.4258Z" fill="#ffffff" fill-opacity="0.55"/>
  <path d="M6.02539 13.1152C7.43164 13.1152 8.50586 12.2363 8.50586 10.7715C8.50586 9.56055 7.7832 8.96484 6.95312 8.87695L6.95312 8.84766C7.8418 8.61328 8.27148 7.82227 8.27148 7.00195C8.27148 5.6543 7.26562 4.88281 5.98633 4.88281C4.98047 4.88281 4.11133 5.44922 3.82812 6.31836C3.7793 6.50391 3.75 6.67969 3.75 6.8457C3.75 7.16797 3.96484 7.42188 4.35547 7.42188C4.6875 7.42188 4.88281 7.29492 4.98047 6.95312C5.12695 6.37695 5.43945 6.01562 5.98633 6.01562C6.64062 6.01562 6.94336 6.51367 6.94336 7.1582C6.94336 7.87109 6.54297 8.38867 5.81055 8.38867L5.57617 8.38867C5.25391 8.38867 5.03906 8.59375 5.03906 8.91602C5.03906 9.23828 5.25391 9.42383 5.57617 9.42383L5.83008 9.42383C6.66016 9.42383 7.10938 9.88281 7.10938 10.7324C7.10938 11.4062 6.75781 11.9824 6.03516 11.9824C5.32227 11.9824 5 11.5039 4.88281 11.0547C4.78516 10.7422 4.58008 10.5762 4.26758 10.5762C3.88672 10.5762 3.62305 10.8105 3.62305 11.1914C3.62305 11.3672 3.65234 11.543 3.70117 11.6992C3.98438 12.6074 4.98047 13.1152 6.02539 13.1152ZM11.9531 13.1445C13.4766 13.1445 14.3164 11.8652 14.3164 10.3223C14.3164 8.97461 13.6719 7.74414 12.4121 7.74414C11.8359 7.74414 11.3086 8.00781 11.0547 8.57422L11.0059 8.57422L11.1719 6.20117L13.457 6.20117C13.7988 6.20117 14.0039 5.9668 14.0039 5.625C14.0039 5.30273 13.7891 5.04883 13.457 5.04883L10.7812 5.04883C10.2637 5.04883 10.0391 5.38086 10 5.88867L9.84375 8.56445C9.83398 8.71094 9.83398 8.86719 9.83398 8.99414C9.83398 9.36523 10.0195 9.69727 10.4688 9.69727C10.7324 9.69727 10.8887 9.58984 11.0938 9.32617C11.3184 9.00391 11.5625 8.76953 11.9531 8.76953C12.6758 8.76953 12.9492 9.63867 12.9492 10.3613C12.9492 11.1719 12.666 12.002 11.9336 12.002C11.3965 12.002 11.084 11.6113 10.9082 11.0742C10.791 10.7617 10.5762 10.6152 10.3125 10.6152C9.95117 10.6152 9.72656 10.8398 9.72656 11.2012C9.72656 11.4258 9.78516 11.6406 9.86328 11.8359C10.2051 12.627 11.0742 13.1445 11.9531 13.1445Z" fill="#ffffff" fill-opacity="0.85"/>
 </g>
</svg>
