<svg version="1.1" xmlns="http://www.w3.org/2000/svg" xmlns:xlink="http://www.w3.org/1999/xlink" width="18.3398" height="17.998" viewBox="0 0 18.3398 17.998">
 <g>
  <rect height="17.998" opacity="0" width="18.3398" x="0" y="0"/>
  <path d="M3.06641 17.998L14.9121 17.998C16.9629 17.998 17.9785 16.9824 17.9785 14.9707L17.9785 3.04688C17.9785 1.03516 16.9629 0.0195312 14.9121 0.0195312L3.06641 0.0195312C1.02539 0.0195312 0 1.02539 0 3.04688L0 14.9707C0 16.9922 1.02539 17.998 3.06641 17.998Z" fill="var(--color-tertiary)"/>
  <path d="M5.83008 13.2422C4.74609 13.2422 3.7207 12.7246 3.42773 11.7871C3.37891 11.6211 3.35938 11.4453 3.35938 11.2598C3.35938 10.8691 3.62305 10.625 4.01367 10.625C4.33594 10.625 4.56055 10.791 4.64844 11.123C4.77539 11.582 5.10742 12.0703 5.83984 12.0703C6.58203 12.0703 6.95312 11.4746 6.95312 10.7812C6.95312 9.91211 6.48438 9.44336 5.625 9.44336L5.38086 9.44336C5.03906 9.44336 4.81445 9.24805 4.81445 8.91602C4.81445 8.58398 5.0293 8.36914 5.38086 8.36914L5.61523 8.36914C6.35742 8.36914 6.76758 7.83203 6.76758 7.09961C6.76758 6.43555 6.46484 5.92773 5.80078 5.92773C5.22461 5.92773 4.91211 6.29883 4.75586 6.89453C4.64844 7.24609 4.45312 7.37305 4.10156 7.37305C3.71094 7.37305 3.48633 7.10938 3.48633 6.77734C3.48633 6.60156 3.50586 6.42578 3.55469 6.23047C3.84766 5.3418 4.74609 4.75586 5.80078 4.75586C7.10938 4.75586 8.14453 5.54688 8.14453 6.94336C8.14453 7.7832 7.70508 8.60352 6.79688 8.84766L6.79688 8.87695C7.64648 8.96484 8.38867 9.58008 8.38867 10.8301C8.38867 12.334 7.27539 13.2422 5.83008 13.2422ZM12.0605 13.2422C10.5859 13.2422 9.45312 12.3633 9.45312 10.8691C9.45312 9.77539 10.1074 8.98438 10.9668 8.78906L10.9668 8.75977C10.3223 8.56445 9.6875 7.95898 9.6875 6.93359C9.6875 5.51758 10.8203 4.75586 12.0605 4.75586C13.4766 4.75586 14.4434 5.63477 14.4434 6.94336C14.4434 7.90039 13.8477 8.55469 13.1738 8.75977L13.1738 8.78906C13.9844 8.97461 14.6777 9.76562 14.6777 10.8691C14.6777 12.2461 13.6621 13.2422 12.0605 13.2422ZM12.0703 8.30078C12.7051 8.30078 13.0273 7.74414 13.0273 7.08008C13.0273 6.43555 12.7148 5.83984 12.0703 5.83984C11.4453 5.83984 11.0938 6.43555 11.0938 7.08008C11.0938 7.67578 11.4258 8.30078 12.0703 8.30078ZM12.0703 12.1484C12.8027 12.1484 13.1641 11.4941 13.1641 10.752C13.1641 9.99023 12.7832 9.38477 12.0703 9.38477C11.3379 9.38477 10.9766 10.0293 10.9766 10.752C10.9766 11.4941 11.3379 12.1484 12.0703 12.1484Z" fill="var(--color-primary)"/>
 </g>
</svg>
