<?xml version="1.0" encoding="UTF-8"?>
<!--Generator: Apple Native CoreSVG 232.5-->
<!DOCTYPE svg
PUBLIC "-//W3C//DTD SVG 1.1//EN"
       "http://www.w3.org/Graphics/SVG/1.1/DTD/svg11.dtd">
<svg version="1.1" xmlns="http://www.w3.org/2000/svg" xmlns:xlink="http://www.w3.org/1999/xlink" width="20.2832" height="19.9316">
 <g>
  <rect height="19.9316" opacity="0" width="20.2832" x="0" y="0"/>
  <path d="M19.9219 9.96094C19.9219 15.4004 15.4102 19.9219 9.96094 19.9219C4.52148 19.9219 0 15.4004 0 9.96094C0 4.51172 4.51172 0 9.95117 0C15.4004 0 19.9219 4.51172 19.9219 9.96094ZM9.41406 5.68359C8.34961 7.56836 7.37305 9.29688 6.28906 11.1914C6.17188 11.3965 6.12305 11.6113 6.12305 11.8262C6.12305 12.334 6.45508 12.666 7.01172 12.666L10.8008 12.666L10.8008 13.7012C10.8008 14.2383 11.0742 14.5508 11.5234 14.5508C12.0117 14.5508 12.2852 14.248 12.2852 13.7012L12.2852 12.666L12.959 12.666C13.3984 12.666 13.6816 12.3926 13.6816 11.9727C13.6816 11.582 13.3984 11.3281 12.959 11.3281L12.2852 11.3281L12.2852 9.16016C12.2852 8.61328 12.0117 8.31055 11.5234 8.31055C11.0742 8.31055 10.8008 8.62305 10.8008 9.16016L10.8008 11.3281L8.00781 11.3281C8.91602 9.63867 9.78516 8.13477 10.7227 6.41602C10.8008 6.25 10.8496 6.09375 10.8496 5.9375C10.8496 5.53711 10.6055 5.19531 10.1465 5.19531C9.82422 5.19531 9.60938 5.35156 9.41406 5.68359Z" fill="#ffffff" fill-opacity="0.85"/>
 </g>
</svg>
