<svg version="1.1" xmlns="http://www.w3.org/2000/svg" xmlns:xlink="http://www.w3.org/1999/xlink" width="20.2832" height="19.9316" viewBox="0 0 20.2832 19.9316">
 <g>
  <rect height="19.9316" opacity="0" width="20.2832" x="0" y="0"/>
  <path d="M9.96094 19.9219C15.4102 19.9219 19.9219 15.4004 19.9219 9.96094C19.9219 4.51172 15.4004 0 9.95117 0C4.51172 0 0 4.51172 0 9.96094C0 15.4004 4.52148 19.9219 9.96094 19.9219Z" fill="var(--color-tertiary)"/>
  <path d="M6.12305 11.8262C6.12305 11.6113 6.17188 11.3965 6.28906 11.1914C7.37305 9.29688 8.34961 7.56836 9.41406 5.68359C9.60938 5.35156 9.82422 5.19531 10.1465 5.19531C10.6055 5.19531 10.8496 5.53711 10.8496 5.9375C10.8496 6.09375 10.8008 6.25 10.7227 6.41602C9.78516 8.13477 8.91602 9.63867 8.00781 11.3281L10.8008 11.3281L10.8008 9.16016C10.8008 8.62305 11.0742 8.31055 11.5234 8.31055C12.0117 8.31055 12.2852 8.61328 12.2852 9.16016L12.2852 11.3281L12.959 11.3281C13.3984 11.3281 13.6816 11.582 13.6816 11.9727C13.6816 12.3926 13.3984 12.666 12.959 12.666L12.2852 12.666L12.2852 13.7012C12.2852 14.248 12.0117 14.5508 11.5234 14.5508C11.0742 14.5508 10.8008 14.2383 10.8008 13.7012L10.8008 12.666L7.01172 12.666C6.45508 12.666 6.12305 12.334 6.12305 11.8262Z" fill="var(--color-primary)"/>
 </g>
</svg>
