<svg version="1.1" xmlns="http://www.w3.org/2000/svg" xmlns:xlink="http://www.w3.org/1999/xlink" width="18.3398" height="17.998" viewBox="0 0 18.3398 17.998">
 <g>
  <rect height="17.998" opacity="0" width="18.3398" x="0" y="0"/>
  <path d="M17.9785 3.04688L17.9785 14.9707C17.9785 16.9824 16.9629 17.998 14.9121 17.998L3.06641 17.998C1.02539 17.998 0 16.9922 0 14.9707L0 3.04688C0 1.02539 1.02539 0.0195312 3.06641 0.0195312L14.9121 0.0195312C16.9629 0.0195312 17.9785 1.03516 17.9785 3.04688ZM8.45703 4.7168C7.38281 6.60156 6.40625 8.33008 5.32227 10.2246C5.20508 10.4297 5.15625 10.6445 5.15625 10.8594C5.15625 11.3672 5.49805 11.6992 6.04492 11.6992L9.83398 11.6992L9.83398 12.7344C9.83398 13.2715 10.1074 13.584 10.5664 13.584C11.0449 13.584 11.3184 13.2812 11.3184 12.7344L11.3184 11.6992L11.9922 11.6992C12.4414 11.6992 12.7148 11.4258 12.7148 11.0059C12.7148 10.6152 12.4414 10.3613 11.9922 10.3613L11.3184 10.3613L11.3184 8.19336C11.3184 7.64648 11.0449 7.34375 10.5664 7.34375C10.1074 7.34375 9.83398 7.65625 9.83398 8.19336L9.83398 10.3613L7.04102 10.3613C7.94922 8.67188 8.81836 7.16797 9.75586 5.44922C9.83398 5.2832 9.89258 5.12695 9.89258 4.9707C9.89258 4.57031 9.63867 4.22852 9.17969 4.22852C8.85742 4.22852 8.64258 4.38477 8.45703 4.7168Z" fill="currentColor"/>
 </g>
</svg>
