<?xml version="1.0" encoding="UTF-8"?>
<!--Generator: Apple Native CoreSVG 232.5-->
<!DOCTYPE svg
PUBLIC "-//W3C//DTD SVG 1.1//EN"
       "http://www.w3.org/Graphics/SVG/1.1/DTD/svg11.dtd">
<svg version="1.1" xmlns="http://www.w3.org/2000/svg" xmlns:xlink="http://www.w3.org/1999/xlink" width="20.2832" height="19.9316">
 <g>
  <rect height="19.9316" opacity="0" width="20.2832" x="0" y="0"/>
  <path d="M9.96094 19.9219C15.4102 19.9219 19.9219 15.4004 19.9219 9.96094C19.9219 4.51172 15.4004 0 9.95117 0C4.51172 0 0 4.51172 0 9.96094C0 15.4004 4.52148 19.9219 9.96094 19.9219ZM9.96094 18.2617C5.35156 18.2617 1.66992 14.5703 1.66992 9.96094C1.66992 5.35156 5.3418 1.66016 9.95117 1.66016C14.5605 1.66016 18.2617 5.35156 18.2617 9.96094C18.2617 14.5703 14.5703 18.2617 9.96094 18.2617Z" fill="#ffffff" fill-opacity="0.55"/>
  <path d="M6.23047 11.7676C6.23047 12.2559 6.55273 12.5781 7.08984 12.5781L10.7617 12.5781L10.7617 13.7891C10.7617 14.3066 11.0254 14.6094 11.4648 14.6094C11.9336 14.6094 12.1973 14.3164 12.1973 13.7891L12.1973 12.5781L12.8516 12.5781C13.2812 12.5781 13.5547 12.3145 13.5547 11.9043C13.5547 11.5332 13.2812 11.2891 12.8516 11.2891L12.1973 11.2891L12.1973 9.17969C12.1973 8.65234 11.9336 8.35938 11.4648 8.35938C11.0254 8.35938 10.7617 8.66211 10.7617 9.17969L10.7617 11.2891L8.04688 11.2891C8.92578 9.64844 9.78516 8.16406 10.6934 6.49414C10.7715 6.33789 10.8301 6.19141 10.8301 6.03516C10.8301 5.6543 10.5859 5.32227 10.1367 5.32227C9.83398 5.32227 9.61914 5.46875 9.44336 5.79102C8.4082 7.61719 7.44141 9.31641 6.39648 11.1523C6.2793 11.3477 6.23047 11.5625 6.23047 11.7676Z" fill="#ffffff" fill-opacity="0.85"/>
 </g>
</svg>
