<svg version="1.1" xmlns="http://www.w3.org/2000/svg" xmlns:xlink="http://www.w3.org/1999/xlink" width="18.3398" height="17.998" viewBox="0 0 18.3398 17.998">
 <g>
  <rect height="17.998" opacity="0" width="18.3398" x="0" y="0"/>
  <path d="M17.9785 3.04688L17.9785 14.9707C17.9785 16.9824 16.9629 17.998 14.9121 17.998L3.06641 17.998C1.02539 17.998 0 16.9922 0 14.9707L0 3.04688C0 1.02539 1.02539 0.0195312 3.06641 0.0195312L14.9121 0.0195312C16.9629 0.0195312 17.9785 1.03516 17.9785 3.04688ZM5.71289 5.78125L3.91602 9.6875C3.74023 10.0781 3.69141 10.3418 3.69141 10.6543C3.69141 11.1426 4.02344 11.4746 4.52148 11.4746L6.76758 11.4746L6.76758 12.4805C6.76758 13.0078 7.14844 13.1934 7.4707 13.1934C7.8418 13.1934 8.1543 12.959 8.1543 12.4805L8.1543 11.4746L8.51562 11.4746C8.90625 11.4746 9.08203 11.2207 9.08203 10.8789C9.08203 10.5566 8.92578 10.3027 8.51562 10.3027L8.1543 10.3027L8.1543 5.88867C8.1543 5.18555 7.70508 4.79492 7.03125 4.79492C6.32812 4.79492 5.99609 5.15625 5.71289 5.78125ZM11.25 5.20508L10.1367 6.06445C9.96094 6.20117 9.81445 6.39648 9.81445 6.66016C9.81445 6.97266 10.0293 7.19727 10.3418 7.19727C10.498 7.19727 10.5957 7.14844 10.6934 7.07031L11.6211 6.32812L11.6211 12.4316C11.6211 12.8418 11.9531 13.1738 12.373 13.1738C12.7637 13.1738 13.0957 12.8418 13.0957 12.4316L13.0957 5.61523C13.0957 5.09766 12.7734 4.79492 12.2461 4.79492C11.8262 4.79492 11.4746 5.0293 11.25 5.20508ZM6.79688 10.332L4.93164 10.332L4.93164 10.2637L6.75781 6.06445L6.79688 6.06445Z" fill="currentColor"/>
 </g>
</svg>
