<svg version="1.1" xmlns="http://www.w3.org/2000/svg" xmlns:xlink="http://www.w3.org/1999/xlink" width="18.3398" height="17.998" viewBox="0 0 18.3398 17.998">
 <g>
  <rect height="17.998" opacity="0" width="18.3398" x="0" y="0"/>
  <path d="M17.9785 3.04688L17.9785 14.9707C17.9785 16.9824 16.9629 17.998 14.9121 17.998L3.06641 17.998C1.02539 17.998 0 16.9922 0 14.9707L0 3.04688C0 1.02539 1.02539 0.0195312 3.06641 0.0195312L14.9121 0.0195312C16.9629 0.0195312 17.9785 1.03516 17.9785 3.04688ZM5.14648 5.79102L3.34961 9.6875C3.17383 10.0781 3.11523 10.3418 3.11523 10.6543C3.11523 11.1426 3.45703 11.4746 3.94531 11.4746L6.20117 11.4746L6.20117 12.4805C6.20117 13.0176 6.58203 13.1934 6.9043 13.1934C7.28516 13.1934 7.59766 12.959 7.59766 12.4805L7.59766 11.4746L7.94922 11.4746C8.33984 11.4746 8.52539 11.2207 8.52539 10.8789C8.52539 10.5566 8.34961 10.3027 7.94922 10.3027L7.59766 10.3027L7.59766 5.88867C7.59766 5.19531 7.12891 4.79492 6.47461 4.79492C5.76172 4.79492 5.42969 5.15625 5.14648 5.79102ZM9.53125 6.82617C9.53125 7.20703 9.74609 7.4707 10.1367 7.4707C10.4688 7.4707 10.6738 7.31445 10.7715 6.98242C10.9668 6.30859 11.2109 5.88867 11.7871 5.88867C12.3926 5.88867 12.7246 6.41602 12.7246 7.12891C12.7246 7.93945 12.168 8.75977 11.6309 9.44336L9.89258 11.6699C9.69727 11.9141 9.52148 12.168 9.52148 12.4805C9.52148 12.8223 9.72656 13.0664 10.1953 13.0664L13.6914 13.0664C14.043 13.0664 14.2676 12.832 14.2676 12.4805C14.2676 12.0898 14.0332 11.8848 13.6914 11.8848L11.3086 11.8848L11.3086 11.7969L12.7734 9.94141C13.7793 8.69141 14.1113 7.94922 14.1113 7.06055C14.1113 5.70312 13.1836 4.7168 11.7969 4.7168C10.5078 4.7168 9.53125 5.78125 9.53125 6.82617ZM6.23047 10.332L4.36523 10.332L4.36523 10.2637L6.19141 6.06445L6.23047 6.06445Z" fill="var(--color-primary)"/>
 </g>
</svg>
