<?xml version="1.0" encoding="UTF-8"?>
<!--Generator: Apple Native CoreSVG 232.5-->
<!DOCTYPE svg
PUBLIC "-//W3C//DTD SVG 1.1//EN"
       "http://www.w3.org/Graphics/SVG/1.1/DTD/svg11.dtd">
<svg version="1.1" xmlns="http://www.w3.org/2000/svg" xmlns:xlink="http://www.w3.org/1999/xlink" width="18.3398" height="17.998">
 <g>
  <rect height="17.998" opacity="0" width="18.3398" x="0" y="0"/>
  <path d="M3.06641 17.998L14.9121 17.998C16.9629 17.998 17.9785 16.9824 17.9785 14.9707L17.9785 3.04688C17.9785 1.03516 16.9629 0.0195312 14.9121 0.0195312L3.06641 0.0195312C1.02539 0.0195312 0 1.02539 0 3.04688L0 14.9707C0 16.9922 1.02539 17.998 3.06641 17.998ZM3.08594 16.4258C2.10938 16.4258 1.57227 15.9082 1.57227 14.8926L1.57227 3.125C1.57227 2.10938 2.10938 1.5918 3.08594 1.5918L14.8926 1.5918C15.8594 1.5918 16.4062 2.10938 16.4062 3.125L16.4062 14.8926C16.4062 15.9082 15.8594 16.4258 14.8926 16.4258Z" fill="#ffffff" fill-opacity="0.85"/>
  <path d="M6.89453 13.0664C7.25586 13.0664 7.55859 12.8418 7.55859 12.373L7.55859 11.3965L7.91016 11.3965C8.28125 11.3965 8.4668 11.1523 8.4668 10.8203C8.4668 10.5078 8.30078 10.2637 7.91016 10.2637L7.55859 10.2637L7.55859 5.97656C7.55859 5.30273 7.11914 4.92188 6.48438 4.92188C5.79102 4.92188 5.46875 5.27344 5.19531 5.87891L3.44727 9.66797C3.29102 10.0488 3.23242 10.3027 3.23242 10.6055C3.23242 11.0742 3.55469 11.3965 4.0332 11.3965L6.2207 11.3965L6.2207 12.373C6.2207 12.8906 6.58203 13.0664 6.89453 13.0664ZM6.25 10.293L4.43359 10.293L4.43359 10.2246L6.21094 6.15234L6.25 6.15234ZM11.8555 13.1152C13.2617 13.1152 14.3359 12.2363 14.3359 10.7715C14.3359 9.56055 13.6133 8.96484 12.793 8.87695L12.793 8.84766C13.6719 8.61328 14.1016 7.82227 14.1016 7.00195C14.1016 5.6543 13.0957 4.88281 11.8262 4.88281C10.8105 4.88281 9.94141 5.44922 9.6582 6.31836C9.60938 6.50391 9.58984 6.67969 9.58984 6.8457C9.58984 7.16797 9.80469 7.42188 10.1855 7.42188C10.5176 7.42188 10.7129 7.29492 10.8105 6.95312C10.9668 6.37695 11.2695 6.01562 11.8262 6.01562C12.4707 6.01562 12.7734 6.51367 12.7734 7.1582C12.7734 7.87109 12.3828 8.38867 11.6504 8.38867L11.416 8.38867C11.084 8.38867 10.8691 8.59375 10.8691 8.91602C10.8691 9.23828 11.0938 9.42383 11.416 9.42383L11.6602 9.42383C12.4902 9.42383 12.9492 9.88281 12.9492 10.7324C12.9492 11.4062 12.5879 11.9824 11.8652 11.9824C11.1523 11.9824 10.8301 11.5039 10.7129 11.0547C10.625 10.7422 10.4102 10.5762 10.0977 10.5762C9.7168 10.5762 9.46289 10.8105 9.46289 11.1914C9.46289 11.3672 9.48242 11.543 9.54102 11.6992C9.81445 12.6074 10.8105 13.1152 11.8555 13.1152Z" fill="#ffffff" fill-opacity="0.85"/>
 </g>
</svg>
