<svg version="1.1" xmlns="http://www.w3.org/2000/svg" xmlns:xlink="http://www.w3.org/1999/xlink" width="18.3398" height="17.998" viewBox="0 0 18.3398 17.998">
 <g>
  <rect height="17.998" opacity="0" width="18.3398" x="0" y="0"/>
  <path d="M3.06641 17.998L14.9121 17.998C16.9629 17.998 17.9785 16.9824 17.9785 14.9707L17.9785 3.04688C17.9785 1.03516 16.9629 0.0195312 14.9121 0.0195312L3.06641 0.0195312C1.02539 0.0195312 0 1.02539 0 3.04688L0 14.9707C0 16.9922 1.02539 17.998 3.06641 17.998ZM3.08594 16.4258C2.10938 16.4258 1.57227 15.9082 1.57227 14.8926L1.57227 3.125C1.57227 2.10938 2.10938 1.5918 3.08594 1.5918L14.8926 1.5918C15.8594 1.5918 16.4062 2.10938 16.4062 3.125L16.4062 14.8926C16.4062 15.9082 15.8594 16.4258 14.8926 16.4258Z" fill="var(--color-primary)"/>
  <path d="M6.77734 13.0664C7.13867 13.0664 7.44141 12.8418 7.44141 12.373L7.44141 11.3965L7.79297 11.3965C8.16406 11.3965 8.33984 11.1523 8.33984 10.8203C8.33984 10.5078 8.18359 10.2637 7.79297 10.2637L7.44141 10.2637L7.44141 5.97656C7.44141 5.30273 7.00195 4.92188 6.35742 4.92188C5.67383 4.92188 5.35156 5.27344 5.07812 5.87891L3.33008 9.66797C3.17383 10.0488 3.11523 10.3027 3.11523 10.6055C3.11523 11.0742 3.4375 11.3965 3.91602 11.3965L6.10352 11.3965L6.10352 12.373C6.10352 12.8906 6.46484 13.0664 6.77734 13.0664ZM6.13281 10.293L4.31641 10.293L4.31641 10.2246L6.09375 6.15234L6.13281 6.15234ZM12.9395 13.0664C13.3008 13.0664 13.6035 12.8418 13.6035 12.373L13.6035 11.3965L13.9551 11.3965C14.3262 11.3965 14.502 11.1523 14.502 10.8203C14.502 10.5078 14.3457 10.2637 13.9551 10.2637L13.6035 10.2637L13.6035 5.97656C13.6035 5.30273 13.1641 4.92188 12.5195 4.92188C11.8359 4.92188 11.5137 5.27344 11.2402 5.87891L9.49219 9.66797C9.33594 10.0488 9.27734 10.3027 9.27734 10.6055C9.27734 11.0742 9.59961 11.3965 10.0781 11.3965L12.2656 11.3965L12.2656 12.373C12.2656 12.8906 12.627 13.0664 12.9395 13.0664ZM12.2949 10.293L10.4785 10.293L10.4785 10.2246L12.2559 6.15234L12.2949 6.15234Z" fill="var(--color-primary)"/>
 </g>
</svg>
