<svg version="1.1" xmlns="http://www.w3.org/2000/svg" xmlns:xlink="http://www.w3.org/1999/xlink" width="20.2832" height="19.9316" viewBox="0 0 20.2832 19.9316">
 <g>
  <rect height="19.9316" opacity="0" width="20.2832" x="0" y="0"/>
  <path d="M9.96094 19.9219C15.4102 19.9219 19.9219 15.4004 19.9219 9.96094C19.9219 4.51172 15.4004 0 9.95117 0C4.51172 0 0 4.51172 0 9.96094C0 15.4004 4.52148 19.9219 9.96094 19.9219ZM9.96094 18.2617C5.35156 18.2617 1.66992 14.5703 1.66992 9.96094C1.66992 5.35156 5.3418 1.66016 9.95117 1.66016C14.5605 1.66016 18.2617 5.35156 18.2617 9.96094C18.2617 14.5703 14.5703 18.2617 9.96094 18.2617Z" fill="var(--color-secondary)"/>
  <path d="M7.72461 14.0332C8.0957 14.0332 8.39844 13.8086 8.39844 13.3398L8.39844 12.3633L8.74023 12.3633C9.12109 12.3633 9.29688 12.1191 9.29688 11.7871C9.29688 11.4746 9.13086 11.2305 8.74023 11.2305L8.39844 11.2305L8.39844 6.94336C8.39844 6.26953 7.94922 5.88867 7.31445 5.88867C6.63086 5.88867 6.30859 6.24023 6.03516 6.8457L4.28711 10.6348C4.12109 11.0156 4.0625 11.2695 4.0625 11.5723C4.0625 12.041 4.39453 12.3633 4.86328 12.3633L7.05078 12.3633L7.05078 13.3398C7.05078 13.8574 7.42188 14.0332 7.72461 14.0332ZM7.08008 11.2598L5.26367 11.2598L5.26367 11.1914L7.04102 7.11914L7.08008 7.11914ZM12.8809 14.1113C14.3652 14.1113 15.2246 12.8613 15.2246 11.3281C15.2246 10.0098 14.5898 8.75977 13.291 8.75977C12.5 8.75977 11.9043 9.28711 11.6797 10.127L11.6406 10.127C11.6406 10.0879 11.6406 10.0488 11.6406 10.0195C11.6406 8.93555 11.7773 6.97266 12.8613 6.97266C13.3105 6.97266 13.6035 7.28516 13.7695 7.69531C13.9062 7.99805 14.0918 8.13477 14.4141 8.13477C14.8047 8.13477 14.9707 7.87109 14.9707 7.54883C14.9707 7.44141 14.9609 7.32422 14.9219 7.19727C14.7168 6.35742 13.877 5.83008 12.8906 5.83008C10.8887 5.83008 10.3125 8.07617 10.3125 10.0586C10.3125 11.9043 10.8984 14.1113 12.8809 14.1113ZM12.8613 12.9688C12.1191 12.9688 11.8262 12.0508 11.8262 11.3477C11.8262 10.6348 12.1582 9.82422 12.8613 9.82422C13.584 9.82422 13.8867 10.6641 13.8672 11.3867C13.8672 12.0996 13.5449 12.9688 12.8613 12.9688Z" fill="var(--color-primary)"/>
 </g>
</svg>
