<?xml version="1.0" encoding="UTF-8"?>
<!--Generator: Apple Native CoreSVG 232.5-->
<!DOCTYPE svg
PUBLIC "-//W3C//DTD SVG 1.1//EN"
       "http://www.w3.org/Graphics/SVG/1.1/DTD/svg11.dtd">
<svg version="1.1" xmlns="http://www.w3.org/2000/svg" xmlns:xlink="http://www.w3.org/1999/xlink" width="18.3398" height="17.998">
 <g>
  <rect height="17.998" opacity="0" width="18.3398" x="0" y="0"/>
  <path d="M3.06641 17.998L14.9121 17.998C16.9629 17.998 17.9785 16.9824 17.9785 14.9707L17.9785 3.04688C17.9785 1.03516 16.9629 0.0195312 14.9121 0.0195312L3.06641 0.0195312C1.02539 0.0195312 0 1.02539 0 3.04688L0 14.9707C0 16.9922 1.02539 17.998 3.06641 17.998ZM3.08594 16.4258C2.10938 16.4258 1.57227 15.9082 1.57227 14.8926L1.57227 3.125C1.57227 2.10938 2.10938 1.5918 3.08594 1.5918L14.8926 1.5918C15.8594 1.5918 16.4062 2.10938 16.4062 3.125L16.4062 14.8926C16.4062 15.9082 15.8594 16.4258 14.8926 16.4258Z" fill="#ffffff" fill-opacity="0.55"/>
  <path d="M7.26562 13.0664C7.62695 13.0664 7.92969 12.8418 7.92969 12.373L7.92969 11.3965L8.28125 11.3965C8.65234 11.3965 8.83789 11.1523 8.83789 10.8203C8.83789 10.5078 8.67188 10.2637 8.28125 10.2637L7.92969 10.2637L7.92969 5.97656C7.92969 5.30273 7.49023 4.92188 6.85547 4.92188C6.16211 4.92188 5.83984 5.27344 5.56641 5.87891L3.81836 9.66797C3.66211 10.0488 3.60352 10.3027 3.60352 10.6055C3.60352 11.0742 3.92578 11.3965 4.4043 11.3965L6.5918 11.3965L6.5918 12.373C6.5918 12.8906 6.95312 13.0664 7.26562 13.0664ZM6.62109 10.293L4.80469 10.293L4.80469 10.2246L6.58203 6.15234L6.62109 6.15234ZM11.0059 13.0762C11.3672 13.0762 11.5234 12.9297 11.6602 12.5781L13.8867 6.62109C13.9941 6.31836 14.0723 6.08398 14.0723 5.80078C14.0723 5.35156 13.7305 5.04883 13.291 5.04883L10.1367 5.04883C9.80469 5.04883 9.57031 5.29297 9.57031 5.625C9.57031 5.95703 9.80469 6.20117 10.1367 6.20117L12.6465 6.20117L12.6465 6.28906L10.4785 11.8945C10.4004 12.1094 10.3613 12.2363 10.3613 12.4707C10.3613 12.7539 10.5469 13.0762 11.0059 13.0762Z" fill="#ffffff" fill-opacity="0.85"/>
 </g>
</svg>
