<svg version="1.1" xmlns="http://www.w3.org/2000/svg" xmlns:xlink="http://www.w3.org/1999/xlink" width="18.3398" height="17.998" viewBox="0 0 18.3398 17.998">
 <g>
  <rect height="17.998" opacity="0" width="18.3398" x="0" y="0"/>
  <path d="M3.06641 17.998L14.9121 17.998C16.9629 17.998 17.9785 16.9824 17.9785 14.9707L17.9785 3.04688C17.9785 1.03516 16.9629 0.0195312 14.9121 0.0195312L3.06641 0.0195312C1.02539 0.0195312 0 1.02539 0 3.04688L0 14.9707C0 16.9922 1.02539 17.998 3.06641 17.998ZM3.08594 16.4258C2.10938 16.4258 1.57227 15.9082 1.57227 14.8926L1.57227 3.125C1.57227 2.10938 2.10938 1.5918 3.08594 1.5918L14.8926 1.5918C15.8594 1.5918 16.4062 2.10938 16.4062 3.125L16.4062 14.8926C16.4062 15.9082 15.8594 16.4258 14.8926 16.4258Z" fill="var(--color-primary)"/>
  <path d="M6.77734 13.0664C7.13867 13.0664 7.44141 12.8418 7.44141 12.373L7.44141 11.3965L7.79297 11.3965C8.16406 11.3965 8.33984 11.1523 8.33984 10.8203C8.33984 10.5078 8.18359 10.2637 7.79297 10.2637L7.44141 10.2637L7.44141 5.97656C7.44141 5.30273 7.00195 4.92188 6.35742 4.92188C5.67383 4.92188 5.35156 5.27344 5.07812 5.87891L3.33008 9.66797C3.17383 10.0488 3.11523 10.3027 3.11523 10.6055C3.11523 11.0742 3.4375 11.3965 3.91602 11.3965L6.10352 11.3965L6.10352 12.373C6.10352 12.8906 6.46484 13.0664 6.77734 13.0664ZM6.13281 10.293L4.31641 10.293L4.31641 10.2246L6.09375 6.15234L6.13281 6.15234ZM11.8555 13.1152C13.3984 13.1152 14.3945 12.1484 14.3945 10.8105C14.3945 9.74609 13.7109 8.97461 12.9297 8.79883L12.9297 8.76953C13.584 8.56445 14.1699 7.92969 14.1699 7.00195C14.1699 5.74219 13.2324 4.88281 11.8555 4.88281C10.6445 4.88281 9.55078 5.625 9.55078 6.99219C9.55078 7.98828 10.1758 8.57422 10.8008 8.76953L10.8008 8.79883C9.9707 8.98438 9.32617 9.75586 9.32617 10.8105C9.32617 12.2559 10.4199 13.1152 11.8555 13.1152ZM11.8555 8.32031C11.2305 8.32031 10.918 7.71484 10.918 7.13867C10.918 6.51367 11.25 5.92773 11.8555 5.92773C12.4902 5.92773 12.793 6.51367 12.793 7.13867C12.793 7.7832 12.4707 8.32031 11.8555 8.32031ZM11.8555 12.0605C11.1426 12.0605 10.791 11.4258 10.791 10.7031C10.791 10 11.1523 9.375 11.8555 9.375C12.5488 9.375 12.9297 9.96094 12.9297 10.7031C12.9297 11.4258 12.5781 12.0605 11.8555 12.0605Z" fill="var(--color-primary)"/>
 </g>
</svg>
