<svg version="1.1" xmlns="http://www.w3.org/2000/svg" xmlns:xlink="http://www.w3.org/1999/xlink" width="20.2832" height="19.9316" viewBox="0 0 20.2832 19.9316">
 <g>
  <rect height="19.9316" opacity="0" width="20.2832" x="0" y="0"/>
  <path d="M9.96094 19.9219C15.4102 19.9219 19.9219 15.4004 19.9219 9.96094C19.9219 4.51172 15.4004 0 9.95117 0C4.51172 0 0 4.51172 0 9.96094C0 15.4004 4.52148 19.9219 9.96094 19.9219ZM9.96094 18.2617C5.35156 18.2617 1.66992 14.5703 1.66992 9.96094C1.66992 5.35156 5.3418 1.66016 9.95117 1.66016C14.5605 1.66016 18.2617 5.35156 18.2617 9.96094C18.2617 14.5703 14.5703 18.2617 9.96094 18.2617Z" fill="currentColor"/>
  <path d="M7.88086 14.0332C8.25195 14.0332 8.54492 13.8086 8.54492 13.3398L8.54492 12.3633L8.89648 12.3633C9.27734 12.3633 9.45312 12.1191 9.45312 11.7871C9.45312 11.4746 9.28711 11.2305 8.89648 11.2305L8.54492 11.2305L8.54492 6.94336C8.54492 6.26953 8.10547 5.88867 7.4707 5.88867C6.77734 5.88867 6.45508 6.24023 6.18164 6.8457L4.44336 10.6348C4.27734 11.0156 4.21875 11.2695 4.21875 11.5723C4.21875 12.041 4.54102 12.3633 5.01953 12.3633L7.20703 12.3633L7.20703 13.3398C7.20703 13.8574 7.57812 14.0332 7.88086 14.0332ZM7.23633 11.2598L5.41992 11.2598L5.41992 11.1914L7.19727 7.11914L7.23633 7.11914ZM12.3438 11.1816C13.1445 11.1816 13.7402 10.6543 13.9648 9.81445L14.0039 9.81445C14.0039 9.85352 14.0039 9.89258 14.0039 9.92188C14.0039 11.0059 13.8672 12.959 12.7734 12.959C12.334 12.959 12.041 12.6562 11.8652 12.2363C11.7285 11.9141 11.5332 11.7871 11.2402 11.7871C10.8301 11.7871 10.6543 12.0605 10.6543 12.3828C10.6543 12.5 10.6836 12.6172 10.7129 12.7344C10.918 13.584 11.7676 14.1016 12.7441 14.1016C14.7461 14.1016 15.332 11.8848 15.332 9.88281C15.332 8.03711 14.7461 5.83008 12.7637 5.83008C11.2793 5.83008 10.4199 7.08008 10.4199 8.61328C10.4199 9.93164 11.0547 11.1816 12.3438 11.1816ZM12.7832 10.1074C12.0605 10.1074 11.7676 9.27734 11.7676 8.55469C11.7676 7.82227 12.0996 6.96289 12.7832 6.96289C13.5156 6.96289 13.8184 7.82227 13.8184 8.55469C13.8184 9.30664 13.4863 10.1074 12.7832 10.1074Z" fill="currentColor"/>
 </g>
</svg>
