<?xml version="1.0" encoding="UTF-8"?>
<!--Generator: Apple Native CoreSVG 232.5-->
<!DOCTYPE svg
PUBLIC "-//W3C//DTD SVG 1.1//EN"
       "http://www.w3.org/Graphics/SVG/1.1/DTD/svg11.dtd">
<svg version="1.1" xmlns="http://www.w3.org/2000/svg" xmlns:xlink="http://www.w3.org/1999/xlink" width="20.2832" height="19.9316">
 <g>
  <rect height="19.9316" opacity="0" width="20.2832" x="0" y="0"/>
  <path d="M9.96094 19.9219C15.4102 19.9219 19.9219 15.4004 19.9219 9.96094C19.9219 4.51172 15.4004 0 9.95117 0C4.51172 0 0 4.51172 0 9.96094C0 15.4004 4.52148 19.9219 9.96094 19.9219ZM9.96094 18.2617C5.35156 18.2617 1.66992 14.5703 1.66992 9.96094C1.66992 5.35156 5.3418 1.66016 9.95117 1.66016C14.5605 1.66016 18.2617 5.35156 18.2617 9.96094C18.2617 14.5703 14.5703 18.2617 9.96094 18.2617Z" fill="#ffffff" fill-opacity="0.55"/>
  <path d="M7.45117 14.0332C7.82227 14.0332 8.125 13.8086 8.125 13.3398L8.125 12.3633L8.4668 12.3633C8.84766 12.3633 9.02344 12.1191 9.02344 11.7871C9.02344 11.4746 8.85742 11.2305 8.4668 11.2305L8.125 11.2305L8.125 6.94336C8.125 6.26953 7.67578 5.88867 7.04102 5.88867C6.35742 5.88867 6.03516 6.24023 5.75195 6.8457L4.01367 10.6348C3.84766 11.0156 3.78906 11.2695 3.78906 11.5723C3.78906 12.041 4.12109 12.3633 4.58984 12.3633L6.77734 12.3633L6.77734 13.3398C6.77734 13.8574 7.14844 14.0332 7.45117 14.0332ZM6.80664 11.2598L4.99023 11.2598L4.99023 11.1914L6.76758 7.11914L6.80664 7.11914ZM10.5762 14.043C10.9473 14.043 11.2012 13.8574 11.2793 13.3984L11.5918 12.0605L13.7891 12.0605L14.1113 13.4082C14.209 13.9062 14.502 14.043 14.8438 14.043C15.2246 14.043 15.498 13.75 15.498 13.3691C15.498 13.1934 15.4688 13.0762 15.4297 12.9199L13.7891 6.77734C13.6328 6.16211 13.2422 5.89844 12.6855 5.89844C12.1094 5.89844 11.7578 6.20117 11.6113 6.77734L9.9707 12.9297C9.94141 13.0469 9.90234 13.252 9.90234 13.3691C9.90234 13.7695 10.166 14.043 10.5762 14.043ZM11.8457 10.9863L12.6367 7.51953L12.7148 7.51953L13.5352 10.9863Z" fill="#ffffff" fill-opacity="0.85"/>
 </g>
</svg>
