<svg version="1.1" xmlns="http://www.w3.org/2000/svg" xmlns:xlink="http://www.w3.org/1999/xlink" width="20.2832" height="19.9316" viewBox="0 0 20.2832 19.9316">
 <g>
  <rect height="19.9316" opacity="0" width="20.2832" x="0" y="0"/>
  <path d="M9.96094 19.9219C15.4102 19.9219 19.9219 15.4004 19.9219 9.96094C19.9219 4.51172 15.4004 0 9.95117 0C4.51172 0 0 4.51172 0 9.96094C0 15.4004 4.52148 19.9219 9.96094 19.9219ZM9.96094 18.2617C5.35156 18.2617 1.66992 14.5703 1.66992 9.96094C1.66992 5.35156 5.3418 1.66016 9.95117 1.66016C14.5605 1.66016 18.2617 5.35156 18.2617 9.96094C18.2617 14.5703 14.5703 18.2617 9.96094 18.2617Z" fill="var(--color-primary)"/>
  <path d="M8.06641 14.0332C8.42773 14.0332 8.73047 13.8086 8.73047 13.3398L8.73047 12.3633L9.08203 12.3633C9.45312 12.3633 9.63867 12.1191 9.63867 11.7871C9.63867 11.4746 9.47266 11.2305 9.08203 11.2305L8.73047 11.2305L8.73047 6.94336C8.73047 6.26953 8.29102 5.88867 7.64648 5.88867C6.96289 5.88867 6.64062 6.24023 6.36719 6.8457L4.61914 10.6348C4.46289 11.0156 4.4043 11.2695 4.4043 11.5723C4.4043 12.041 4.72656 12.3633 5.20508 12.3633L7.39258 12.3633L7.39258 13.3398C7.39258 13.8574 7.75391 14.0332 8.06641 14.0332ZM7.42188 11.2598L5.60547 11.2598L5.60547 11.1914L7.38281 7.11914L7.42188 7.11914ZM11.5234 13.9062L14.3066 13.9062C14.6582 13.9062 14.9219 13.7012 14.9219 13.3105C14.9219 12.9297 14.6582 12.7246 14.3066 12.7246L12.2461 12.7246L12.2461 6.65039C12.2461 6.2207 12.041 5.88867 11.5332 5.88867C11.0742 5.88867 10.8301 6.18164 10.8301 6.65039L10.8301 13.1738C10.8301 13.6328 11.0742 13.9062 11.5234 13.9062Z" fill="var(--color-primary)"/>
 </g>
</svg>
