<svg version="1.1" xmlns="http://www.w3.org/2000/svg" xmlns:xlink="http://www.w3.org/1999/xlink" width="22.666" height="14.4434" viewBox="0 0 22.666 14.4434">
 <g>
  <rect height="14.4434" opacity="0" width="22.666" x="0" y="0"/>
  <path d="M7.76367 14.4238C8.24219 14.4238 8.59375 14.0527 8.59375 13.5449L8.59375 11.2207L9.88281 11.2207C10.3418 11.2207 10.6543 10.9473 10.6543 10.4883C10.6543 10.0586 10.332 9.75586 9.88281 9.75586L8.59375 9.75586L8.59375 1.36719C8.59375 0.576172 8.00781 0.00976562 7.1875 0.00976562C6.30859 0.00976562 5.80078 0.654297 5.3418 1.37695L0.361328 9.01367C0.126953 9.38477 0 9.77539 0 10.127C0 10.752 0.410156 11.2207 1.19141 11.2207L6.93359 11.2207L6.93359 13.5449C6.93359 14.1504 7.36328 14.4238 7.76367 14.4238ZM6.94336 9.77539L1.63086 9.77539L1.63086 9.6875L6.85547 1.74805L6.94336 1.74805ZM14.4434 14.2188L21.4844 14.2188C21.9629 14.2188 22.3047 13.8965 22.3047 13.4473C22.3047 13.0078 21.9629 12.7051 21.4844 12.7051L15.3223 12.7051L15.3223 0.869141C15.3223 0.380859 14.9316 0 14.4531 0C13.9746 0 13.584 0.380859 13.584 0.869141L13.584 13.3105C13.584 13.9648 14.0039 14.2188 14.4434 14.2188Z" fill="currentColor"/>
 </g>
</svg>
