<?xml version="1.0" encoding="UTF-8"?>
<!--Generator: Apple Native CoreSVG 232.5-->
<!DOCTYPE svg
PUBLIC "-//W3C//DTD SVG 1.1//EN"
       "http://www.w3.org/Graphics/SVG/1.1/DTD/svg11.dtd">
<svg version="1.1" xmlns="http://www.w3.org/2000/svg" xmlns:xlink="http://www.w3.org/1999/xlink" width="18.3398" height="14.7363">
 <g>
  <rect height="14.7363" opacity="0" width="18.3398" x="0" y="0"/>
  <path d="M0 13.9453C0 14.375 0.351562 14.7363 0.78125 14.7363C1.2207 14.7363 1.57227 14.375 1.57227 13.9453L1.57227 0.800781C1.57227 0.371094 1.2207 0.0195312 0.78125 0.0195312C0.351562 0.0195312 0 0.371094 0 0.800781ZM16.4062 13.9453C16.4062 14.375 16.7676 14.7363 17.1973 14.7363C17.627 14.7363 17.9785 14.375 17.9785 13.9453L17.9785 0.800781C17.9785 0.371094 17.627 0.0195312 17.1973 0.0195312C16.7676 0.0195312 16.4062 0.371094 16.4062 0.800781Z" fill="#ffffff" fill-opacity="0.55"/>
  <path d="M9.0332 12.0215C10.7617 12.0215 11.8457 10.7324 11.8457 9.00391C11.8457 7.50977 10.9961 6.23047 9.52148 6.23047C8.78906 6.23047 8.17383 6.57227 7.86133 7.13867L7.82227 7.13867L8.01758 4.59961L10.8496 4.59961C11.2207 4.59961 11.4648 4.35547 11.4648 3.98438C11.4648 3.60352 11.2305 3.34961 10.8496 3.34961L7.62695 3.34961C7.04102 3.34961 6.77734 3.66211 6.73828 4.24805L6.50391 7.49023C6.46484 7.97852 6.72852 8.34961 7.20703 8.34961C7.56836 8.34961 7.72461 8.21289 7.94922 7.94922C8.21289 7.58789 8.59375 7.36328 9.04297 7.36328C9.91211 7.36328 10.3516 8.1543 10.3516 9.04297C10.3516 9.98047 9.87305 10.7715 9.01367 10.7715C8.35938 10.7715 7.91016 10.3418 7.69531 9.76562C7.53906 9.45312 7.31445 9.29688 7.02148 9.29688C6.63086 9.29688 6.38672 9.54102 6.38672 9.93164C6.38672 10.0586 6.40625 10.1953 6.44531 10.3223C6.71875 11.3867 7.94922 12.0215 9.0332 12.0215Z" fill="#ffffff" fill-opacity="0.85"/>
 </g>
</svg>
