<?xml version="1.0" encoding="UTF-8"?>
<!--Generator: Apple Native CoreSVG 232.5-->
<!DOCTYPE svg
PUBLIC "-//W3C//DTD SVG 1.1//EN"
       "http://www.w3.org/Graphics/SVG/1.1/DTD/svg11.dtd">
<svg version="1.1" xmlns="http://www.w3.org/2000/svg" xmlns:xlink="http://www.w3.org/1999/xlink" width="18.3398" height="17.998">
 <g>
  <rect height="17.998" opacity="0" width="18.3398" x="0" y="0"/>
  <path d="M17.9785 3.04688L17.9785 14.9707C17.9785 16.9824 16.9629 17.998 14.9121 17.998L3.06641 17.998C1.02539 17.998 0 16.9922 0 14.9707L0 3.04688C0 1.02539 1.02539 0.0195312 3.06641 0.0195312L14.9121 0.0195312C16.9629 0.0195312 17.9785 1.03516 17.9785 3.04688ZM8.7793 4.61914C8.11523 5.48828 7.50977 6.25977 6.98242 6.95312C5.94727 8.33008 5.50781 9.43359 5.50781 10.5273C5.50781 12.4609 6.92383 13.7891 9.02344 13.7891C11.0938 13.7891 12.5195 12.4609 12.5195 10.5859C12.5195 8.92578 11.2695 7.68555 9.51172 7.68555C8.82812 7.68555 8.13477 7.94922 7.79297 8.29102L7.69531 8.26172C7.79297 8.08594 7.92969 7.91016 8.24219 7.5C8.75 6.83594 9.41406 6.01562 9.91211 5.38086C10.0586 5.17578 10.1465 5.01953 10.1465 4.82422C10.1465 4.52148 9.94141 4.20898 9.45312 4.20898C9.13086 4.20898 8.93555 4.42383 8.7793 4.61914ZM11.1035 10.6641C11.1035 11.709 10.2148 12.5195 9.02344 12.5195C7.83203 12.5195 6.93359 11.709 6.93359 10.6445C6.93359 9.59961 7.82227 8.82812 9.01367 8.82812C10.2148 8.82812 11.1035 9.59961 11.1035 10.6641Z" fill="#ffffff" fill-opacity="0.85"/>
 </g>
</svg>
