<?xml version="1.0" encoding="UTF-8"?>
<!--Generator: Apple Native CoreSVG 232.5-->
<!DOCTYPE svg
PUBLIC "-//W3C//DTD SVG 1.1//EN"
       "http://www.w3.org/Graphics/SVG/1.1/DTD/svg11.dtd">
<svg version="1.1" xmlns="http://www.w3.org/2000/svg" xmlns:xlink="http://www.w3.org/1999/xlink" width="20.2832" height="19.9316">
 <g>
  <rect height="19.9316" opacity="0" width="20.2832" x="0" y="0"/>
  <path d="M9.96094 19.9219C15.4102 19.9219 19.9219 15.4004 19.9219 9.96094C19.9219 4.51172 15.4004 0 9.95117 0C4.51172 0 0 4.51172 0 9.96094C0 15.4004 4.52148 19.9219 9.96094 19.9219ZM9.96094 18.2617C5.35156 18.2617 1.66992 14.5703 1.66992 9.96094C1.66992 5.35156 5.3418 1.66016 9.95117 1.66016C14.5605 1.66016 18.2617 5.35156 18.2617 9.96094C18.2617 14.5703 14.5703 18.2617 9.96094 18.2617Z" fill="#ffffff" fill-opacity="0.55"/>
  <path d="M9.93164 14.6094C12.0117 14.6094 13.4277 13.5352 13.4277 11.9629C13.4277 10.8789 12.627 9.98047 11.4648 9.74609L11.4648 9.6875C12.4316 9.4043 13.0469 8.62305 13.0469 7.67578C13.0469 6.2793 11.7676 5.3125 9.95117 5.3125C8.13477 5.3125 6.85547 6.2793 6.85547 7.67578C6.85547 8.62305 7.45117 9.38477 8.4375 9.6875L8.4375 9.74609C7.26562 9.98047 6.48438 10.8887 6.48438 11.9727C6.48438 13.5547 7.86133 14.6094 9.93164 14.6094ZM9.96094 13.5352C8.80859 13.5352 7.96875 12.8516 7.96875 11.8945C7.96875 10.9668 8.81836 10.2734 9.96094 10.2734C11.123 10.2734 11.9531 10.957 11.9531 11.8945C11.9531 12.8516 11.1035 13.5352 9.96094 13.5352ZM9.95117 9.24805C8.98438 9.24805 8.29102 8.64258 8.29102 7.80273C8.29102 6.98242 8.97461 6.38672 9.95117 6.38672C10.9277 6.38672 11.6113 6.98242 11.6113 7.80273C11.6113 8.64258 10.918 9.24805 9.95117 9.24805Z" fill="#ffffff" fill-opacity="0.85"/>
 </g>
</svg>
