<svg version="1.1" xmlns="http://www.w3.org/2000/svg" xmlns:xlink="http://www.w3.org/1999/xlink" width="18.3398" height="17.998" viewBox="0 0 18.3398 17.998">
 <g>
  <rect height="17.998" opacity="0" width="18.3398" x="0" y="0"/>
  <path d="M17.9785 3.04688L17.9785 14.9707C17.9785 16.9824 16.9629 17.998 14.9121 17.998L3.06641 17.998C1.02539 17.998 0 16.9922 0 14.9707L0 3.04688C0 1.02539 1.02539 0.0195312 3.06641 0.0195312L14.9121 0.0195312C16.9629 0.0195312 17.9785 1.03516 17.9785 3.04688ZM5.49805 7.40234C5.49805 9.0918 6.77734 10.3223 8.52539 10.3223C9.18945 10.3223 9.90234 10.0879 10.2441 9.73633L10.3711 9.73633C10.293 9.88281 10.1367 10.0977 9.92188 10.3613C9.35547 11.0742 8.69141 11.875 8.10547 12.6074C7.92969 12.8027 7.85156 12.9883 7.85156 13.1836C7.85156 13.4863 8.11523 13.7793 8.52539 13.7793C8.91602 13.7793 9.07227 13.5449 9.36523 13.1836C9.88281 12.5293 10.6445 11.5527 11.1816 10.8398C12.1094 9.59961 12.5488 8.57422 12.5488 7.48047C12.5488 5.52734 11.1133 4.19922 9.02344 4.19922C6.93359 4.19922 5.49805 5.51758 5.49805 7.40234ZM11.1133 7.34375C11.1133 8.41797 10.2148 9.18945 9.0332 9.18945C7.83203 9.18945 6.92383 8.4082 6.92383 7.34375C6.92383 6.2793 7.83203 5.48828 9.02344 5.48828C10.2051 5.48828 11.1133 6.28906 11.1133 7.34375Z" fill="var(--color-primary)"/>
 </g>
</svg>
