<?xml version="1.0" encoding="UTF-8"?>
<!--Generator: Apple Native CoreSVG 232.5-->
<!DOCTYPE svg
PUBLIC "-//W3C//DTD SVG 1.1//EN"
       "http://www.w3.org/Graphics/SVG/1.1/DTD/svg11.dtd">
<svg version="1.1" xmlns="http://www.w3.org/2000/svg" xmlns:xlink="http://www.w3.org/1999/xlink" width="18.3398" height="17.998">
 <g>
  <rect height="17.998" opacity="0" width="18.3398" x="0" y="0"/>
  <path d="M3.06641 17.998L14.9121 17.998C16.9629 17.998 17.9785 16.9824 17.9785 14.9707L17.9785 3.04688C17.9785 1.03516 16.9629 0.0195312 14.9121 0.0195312L3.06641 0.0195312C1.02539 0.0195312 0 1.02539 0 3.04688L0 14.9707C0 16.9922 1.02539 17.998 3.06641 17.998ZM3.08594 16.4258C2.10938 16.4258 1.57227 15.9082 1.57227 14.8926L1.57227 3.125C1.57227 2.10938 2.10938 1.5918 3.08594 1.5918L14.8926 1.5918C15.8594 1.5918 16.4062 2.10938 16.4062 3.125L16.4062 14.8926C16.4062 15.9082 15.8594 16.4258 14.8926 16.4258Z" fill="#ffffff" fill-opacity="0.55"/>
  <path d="M8.75977 13.6426C11.1133 13.6426 12.4023 11.9531 12.4023 8.68164C12.4023 5.86914 11.123 4.3457 8.92578 4.3457C6.91406 4.3457 5.60547 5.56641 5.60547 7.46094C5.60547 9.29688 7.00195 10.3418 8.52539 10.3418C9.82422 10.3418 10.5957 9.69727 10.9082 8.97461L10.9863 8.97461C11.0059 11.123 10.0879 12.4023 8.74023 12.4023C8.06641 12.4023 7.61719 12.1191 7.20703 11.5723C7.04102 11.3477 6.85547 11.1816 6.54297 11.1816C6.16211 11.1816 5.89844 11.4355 5.89844 11.8164C5.89844 11.9238 5.91797 12.0312 5.95703 12.1484C6.19141 12.8223 7.10938 13.6426 8.75977 13.6426ZM8.98438 9.23828C7.88086 9.23828 7.11914 8.4668 7.11914 7.39258C7.11914 6.25977 7.86133 5.50781 8.99414 5.50781C10.0586 5.50781 10.8594 6.30859 10.8594 7.41211C10.8594 8.4668 10.0781 9.23828 8.98438 9.23828Z" fill="#ffffff" fill-opacity="0.85"/>
 </g>
</svg>
