<svg version="1.1" xmlns="http://www.w3.org/2000/svg" xmlns:xlink="http://www.w3.org/1999/xlink" width="20.2832" height="19.9316" viewBox="0 0 20.2832 19.9316">
 <g>
  <rect height="19.9316" opacity="0" width="20.2832" x="0" y="0"/>
  <path d="M19.9219 9.96094C19.9219 15.4004 15.4102 19.9219 9.96094 19.9219C4.52148 19.9219 0 15.4004 0 9.96094C0 4.51172 4.51172 0 9.95117 0C15.4004 0 19.9219 4.51172 19.9219 9.96094ZM8.82812 5.85938L6.00586 13.457C5.91797 13.6816 5.89844 13.8281 5.89844 13.9844C5.89844 14.3945 6.19141 14.6777 6.65039 14.6777C7.01172 14.6777 7.27539 14.5117 7.43164 14.0332L8.16406 11.8945L11.7578 11.8945L12.4902 14.0332C12.6465 14.502 12.9004 14.6777 13.2715 14.6777C13.7207 14.6777 14.0234 14.3945 14.0234 13.9844C14.0234 13.8281 13.9941 13.6816 13.916 13.457L11.084 5.85938C10.8887 5.33203 10.5078 5.05859 9.95117 5.05859C9.4043 5.05859 9.0332 5.33203 8.82812 5.85938ZM11.3477 10.6738L8.56445 10.6738L9.90234 6.78711L10.0098 6.78711Z" fill="currentColor"/>
 </g>
</svg>
