<svg version="1.1" xmlns="http://www.w3.org/2000/svg" xmlns:xlink="http://www.w3.org/1999/xlink" width="18.3398" height="17.998" viewBox="0 0 18.3398 17.998">
 <g>
  <rect height="17.998" opacity="0" width="18.3398" x="0" y="0"/>
  <path d="M17.9785 3.04688L17.9785 14.9707C17.9785 16.9824 16.9629 17.998 14.9121 17.998L3.06641 17.998C1.02539 17.998 0 16.9922 0 14.9707L0 3.04688C0 1.02539 1.02539 0.0195312 3.06641 0.0195312L14.9121 0.0195312C16.9629 0.0195312 17.9785 1.03516 17.9785 3.04688ZM7.86133 4.89258L5.03906 12.4902C4.96094 12.7148 4.93164 12.8613 4.93164 13.0176C4.93164 13.4277 5.23438 13.7109 5.68359 13.7109C6.04492 13.7109 6.30859 13.5449 6.46484 13.0664L7.19727 10.9277L10.791 10.9277L11.5234 13.0664C11.6797 13.5352 11.9434 13.7109 12.3047 13.7109C12.7539 13.7109 13.0566 13.4277 13.0566 13.0176C13.0566 12.8613 13.0273 12.7148 12.9492 12.4902L10.127 4.89258C9.92188 4.36523 9.54102 4.0918 8.98438 4.0918C8.4375 4.0918 8.06641 4.36523 7.86133 4.89258ZM10.3906 9.70703L7.59766 9.70703L8.94531 5.82031L9.04297 5.82031Z" fill="var(--color-primary)"/>
 </g>
</svg>
