<?xml version="1.0" encoding="UTF-8"?>
<!--Generator: Apple Native CoreSVG 232.5-->
<!DOCTYPE svg
PUBLIC "-//W3C//DTD SVG 1.1//EN"
       "http://www.w3.org/Graphics/SVG/1.1/DTD/svg11.dtd">
<svg version="1.1" xmlns="http://www.w3.org/2000/svg" xmlns:xlink="http://www.w3.org/1999/xlink" width="20.2832" height="19.9316">
 <g>
  <rect height="19.9316" opacity="0" width="20.2832" x="0" y="0"/>
  <path d="M19.9219 9.96094C19.9219 15.4004 15.4102 19.9219 9.96094 19.9219C4.52148 19.9219 0 15.4004 0 9.96094C0 4.51172 4.51172 0 9.95117 0C15.4004 0 19.9219 4.51172 19.9219 9.96094ZM12.8809 8.4375C12.8809 9.45312 13.4668 9.93164 14.1406 10.2832L14.4922 10.459C15 10.7227 15.3125 10.957 15.3125 11.5234C15.3125 11.9922 15.0684 12.3438 14.6289 12.3438C14.209 12.3438 14.0039 12.0215 13.8965 11.5918C13.8281 11.3184 13.6426 11.1816 13.3594 11.1816C13.0566 11.1816 12.8711 11.3965 12.8711 11.6992C12.8711 11.8066 12.8906 11.9141 12.9102 12.0215C13.125 12.8027 13.7305 13.2812 14.6289 13.2812C15.8008 13.2812 16.4453 12.5293 16.4453 11.4062C16.4453 10.3809 15.8984 9.92188 15.166 9.56055L14.8047 9.38477C14.3262 9.14062 14.0039 8.88672 14.0039 8.33984C14.0039 7.91992 14.1992 7.56836 14.6094 7.56836C15.0293 7.56836 15.1953 7.91016 15.3027 8.32031C15.3613 8.55469 15.5664 8.69141 15.8398 8.69141C16.1328 8.69141 16.3086 8.49609 16.3086 8.22266C16.3086 8.08594 16.2793 7.94922 16.2305 7.80273C15.9961 7.09961 15.4199 6.61133 14.6094 6.61133C13.6621 6.61133 12.8809 7.25586 12.8809 8.4375ZM4.62891 7.40234L3.50586 12.3242C3.4668 12.4512 3.4375 12.5781 3.4375 12.6953C3.4375 13.0762 3.69141 13.2422 3.98438 13.2422C4.31641 13.2422 4.50195 13.0371 4.55078 12.7148L4.76562 11.709L6.25977 11.709L6.47461 12.7246C6.55273 13.1055 6.75781 13.2422 7.06055 13.2422C7.36328 13.2422 7.59766 12.998 7.59766 12.6953C7.59766 12.6367 7.56836 12.4121 7.53906 12.3242L6.39648 7.40234C6.28906 6.91406 5.99609 6.66992 5.49805 6.66992C5.0293 6.66992 4.74609 6.9043 4.62891 7.40234ZM9.00391 6.76758C8.67188 6.76758 8.4375 6.95312 8.4375 7.37305L8.4375 12.5391C8.4375 12.9199 8.63281 13.1445 9.00391 13.1445L10.5176 13.1445C11.5918 13.1445 12.1289 12.3242 12.1289 11.3379C12.1289 10.6152 11.6992 9.84375 11.0156 9.78516L11.0156 9.74609C11.6602 9.59961 11.9531 8.92578 11.9531 8.34961C11.9531 7.40234 11.4258 6.76758 10.4785 6.76758ZM10.9766 11.25C10.9766 11.8359 10.7324 12.2656 10.1465 12.2656L9.58008 12.2656L9.58008 10.2539L10.127 10.2539C10.7031 10.2539 10.9766 10.6641 10.9766 11.25ZM6.09375 10.8301L4.92188 10.8301L5.47852 8.03711L5.51758 8.03711ZM10.8594 8.52539C10.8594 9.08203 10.6152 9.46289 10.0488 9.46289L9.58008 9.46289L9.58008 7.64648L10.1367 7.64648C10.6641 7.64648 10.8594 7.99805 10.8594 8.52539Z" fill="#ffffff" fill-opacity="0.85"/>
 </g>
</svg>
