<?xml version="1.0" encoding="UTF-8"?>
<!--Generator: Apple Native CoreSVG 232.5-->
<!DOCTYPE svg
PUBLIC "-//W3C//DTD SVG 1.1//EN"
       "http://www.w3.org/Graphics/SVG/1.1/DTD/svg11.dtd">
<svg version="1.1" xmlns="http://www.w3.org/2000/svg" xmlns:xlink="http://www.w3.org/1999/xlink" width="25.1816" height="23.4668">
 <g>
  <rect height="23.4668" opacity="0" width="25.1816" x="0" y="0"/>
  <path d="M4.34374 23.4668L10.3984 23.4668C11.7461 23.4668 12.6152 22.6074 12.6152 21.2891L12.6152 2.17773C12.6152 0.859375 11.7461 0 10.3984 0L4.34374 0C2.99608 0 2.12694 0.859375 2.12694 2.17773L2.12694 21.2891C2.12694 22.6074 2.99608 23.4668 4.34374 23.4668ZM9.93944 7.61719C9.64648 7.61719 9.43163 7.38281 9.43163 7.09961L9.43163 3.125C9.43163 2.8418 9.64648 2.60742 9.93944 2.60742C10.2226 2.60742 10.4473 2.8418 10.4473 3.125L10.4473 7.09961C10.4473 7.38281 10.2226 7.61719 9.93944 7.61719ZM7.86913 7.61719C7.57616 7.61719 7.34179 7.38281 7.34179 7.09961L7.34179 3.125C7.34179 2.8418 7.57616 2.60742 7.86913 2.60742C8.14257 2.60742 8.36718 2.8418 8.36718 3.125L8.36718 7.09961C8.36718 7.38281 8.14257 7.61719 7.86913 7.61719ZM9.93944 14.1992C9.64648 14.1992 9.43163 13.9746 9.43163 13.6816L9.43163 9.70703C9.43163 9.42383 9.64648 9.19922 9.93944 9.19922C10.2226 9.19922 10.4473 9.42383 10.4473 9.70703L10.4473 13.6816C10.4473 13.9746 10.2226 14.1992 9.93944 14.1992ZM7.86913 14.1992C7.57616 14.1992 7.34179 13.9746 7.34179 13.6816L7.34179 9.70703C7.34179 9.42383 7.57616 9.19922 7.86913 9.19922C8.14257 9.19922 8.36718 9.42383 8.36718 9.70703L8.36718 13.6816C8.36718 13.9746 8.14257 14.1992 7.86913 14.1992ZM9.93944 20.8008C9.64648 20.8008 9.43163 20.5664 9.43163 20.293L9.43163 16.3184C9.43163 16.0254 9.64648 15.791 9.93944 15.791C10.2226 15.791 10.4473 16.0254 10.4473 16.3184L10.4473 20.293C10.4473 20.5664 10.2226 20.8008 9.93944 20.8008ZM7.86913 20.8008C7.57616 20.8008 7.34179 20.5664 7.34179 20.293L7.34179 16.3184C7.34179 16.0254 7.57616 15.791 7.86913 15.791C8.14257 15.791 8.36718 16.0254 8.36718 16.3184L8.36718 20.293C8.36718 20.5664 8.14257 20.8008 7.86913 20.8008Z" fill="#ffffff" fill-opacity="0.55"/>
  <path d="M16.9219 7.51953C17.1367 7.51953 17.293 7.32422 17.2734 7.10938L17.2246 6.29883L17.8984 6.75781C18.0644 6.86523 18.3184 6.82617 18.4355 6.64062C18.5625 6.45508 18.4746 6.20117 18.2598 6.11328L17.5273 5.75195L18.2793 5.38086C18.4648 5.2832 18.5527 5.04883 18.4453 4.85352C18.3476 4.67773 18.0742 4.61914 17.8887 4.74609L17.2246 5.20508L17.2832 4.39453C17.3027 4.17969 17.1465 3.98438 16.9219 3.98438C16.6875 3.98438 16.5312 4.16016 16.5508 4.38477L16.5996 5.21484L15.916 4.74609C15.7305 4.62891 15.4961 4.6582 15.3887 4.85352C15.2715 5.04883 15.3496 5.2832 15.5449 5.38086L16.2773 5.75195L15.5547 6.10352C15.3496 6.19141 15.2617 6.43555 15.3789 6.64062C15.4766 6.82617 15.7305 6.86523 15.916 6.75781L16.5996 6.29883L16.5605 7.10938C16.5508 7.33398 16.6973 7.51953 16.9219 7.51953ZM22.2539 19.4043C22.4785 19.4043 22.6445 19.2285 22.625 19.0039L22.5762 18.1836L23.2598 18.6523C23.4355 18.7695 23.6797 18.7305 23.7773 18.5449C23.8945 18.3398 23.8164 18.1055 23.6211 18.0176L22.8887 17.6465L23.6113 17.2754C23.8262 17.1973 23.9043 16.9531 23.7969 16.748C23.6992 16.5625 23.4355 16.5137 23.2598 16.6309L22.5762 17.0898L22.6152 16.2793C22.625 16.0547 22.4687 15.8789 22.2539 15.8789C22.0391 15.8789 21.8828 16.0645 21.9023 16.2793L21.9512 17.0996L21.2676 16.6406C21.1113 16.5332 20.8574 16.5723 20.7402 16.748C20.6133 16.9336 20.7012 17.1973 20.916 17.2852L21.6387 17.6465L20.8965 18.0176C20.7109 18.1152 20.623 18.3398 20.7305 18.5449C20.8281 18.7207 21.1016 18.7793 21.2773 18.6523L21.9512 18.1934L21.8926 18.9941C21.873 19.209 22.0293 19.4043 22.2539 19.4043ZM16.4726 10.5566C19.0801 10.5566 20.4277 8.4375 22.7031 8.4375C23.2305 8.4375 23.6797 8.54492 24.2363 8.85742C24.5879 9.05273 24.9004 8.91602 25.0566 8.69141C25.2519 8.4082 25.2324 7.97852 24.8027 7.73438C24.1582 7.35352 23.4551 7.16797 22.7031 7.16797C20.0566 7.16797 18.709 9.29688 16.4726 9.29688C15.9453 9.29688 15.4961 9.17969 14.9297 8.85742C14.5976 8.67188 14.2754 8.79883 14.1094 9.05273C13.9336 9.32617 13.9531 9.75586 14.3633 9.99023C15.0078 10.3906 15.7207 10.5566 16.4726 10.5566ZM16.4824 13.4277C19.0801 13.4277 20.4375 11.3086 22.7031 11.3086C23.2402 11.3086 23.6894 11.416 24.2461 11.7285C24.5879 11.9238 24.9101 11.7871 25.0664 11.5625C25.2519 11.2793 25.2422 10.8496 24.8223 10.6055C24.168 10.2246 23.4551 10.0391 22.7031 10.0391C20.0664 10.0391 18.7187 12.168 16.4824 12.168C15.9453 12.168 15.4961 12.0508 14.9394 11.7383C14.6074 11.543 14.2754 11.6699 14.1094 11.9238C13.9336 12.1973 13.9531 12.627 14.373 12.8613C15.0176 13.2617 15.7305 13.4277 16.4824 13.4277ZM16.4726 16.2988C19.0801 16.2988 20.4277 14.1797 22.7031 14.1797C23.2305 14.1797 23.6797 14.2871 24.2363 14.6094C24.5879 14.8047 24.9004 14.6582 25.0566 14.4336C25.2519 14.1504 25.2324 13.7207 24.8027 13.4766C24.1582 13.0957 23.4551 12.9102 22.7031 12.9102C20.0566 12.9102 18.709 15.0391 16.4726 15.0391C15.9453 15.0391 15.4961 14.9219 14.9297 14.6094C14.5976 14.4141 14.2754 14.541 14.1094 14.7949C13.9336 15.0684 13.9531 15.5078 14.3633 15.7422C15.0078 16.1328 15.7207 16.2988 16.4726 16.2988Z" fill="#ffffff" fill-opacity="0.85"/>
 </g>
</svg>
