<?xml version="1.0" encoding="UTF-8"?>
<!--Generator: Apple Native CoreSVG 232.5-->
<!DOCTYPE svg
PUBLIC "-//W3C//DTD SVG 1.1//EN"
       "http://www.w3.org/Graphics/SVG/1.1/DTD/svg11.dtd">
<svg version="1.1" xmlns="http://www.w3.org/2000/svg" xmlns:xlink="http://www.w3.org/1999/xlink" width="23.0345" height="22.9785">
 <g>
  <rect height="22.9785" opacity="0" width="23.0345" x="0" y="0"/>
  <path d="M6.93715 21.2402L15.7457 21.2402C17.7379 21.2402 18.7536 20.2246 18.7536 18.2617L18.7536 2.96875C18.7536 0.996094 17.7184 0 15.7457 0L6.93715 0C4.9645 0 3.91957 0.996094 3.91957 2.96875L3.91957 18.2617C3.91957 20.2246 4.94496 21.2402 6.93715 21.2402ZM7.87465 5.41016C7.0934 5.41016 6.45864 4.76562 6.45864 3.97461C6.45864 3.20312 7.0934 2.56836 7.87465 2.56836C8.6559 2.56836 9.30043 3.20312 9.30043 3.97461C9.30043 4.76562 8.6559 5.41016 7.87465 5.41016ZM7.03481 13.584C6.68325 13.584 6.40004 13.3105 6.40004 12.9492C6.40004 12.5977 6.68325 12.3145 7.03481 12.3145L9.9645 12.3145C10.3258 12.3145 10.609 12.5977 10.609 12.9492C10.609 13.3105 10.3258 13.584 9.9645 13.584ZM7.03481 16.1035C6.68325 16.1035 6.40004 15.8301 6.40004 15.4688C6.40004 15.1074 6.68325 14.834 7.03481 14.834L9.9645 14.834C10.3258 14.834 10.609 15.1074 10.609 15.4688C10.609 15.8301 10.3258 16.1035 9.9645 16.1035ZM7.03481 18.623C6.68325 18.623 6.40004 18.3398 6.40004 17.9883C6.40004 17.627 6.68325 17.3438 7.03481 17.3438L9.9645 17.3438C10.3258 17.3438 10.609 17.627 10.609 17.9883C10.609 18.3398 10.3258 18.623 9.9645 18.623ZM12.7086 13.584C12.3473 13.584 12.0641 13.3105 12.0641 12.9492C12.0641 12.5977 12.3473 12.3145 12.7086 12.3145L15.6383 12.3145C15.9899 12.3145 16.2731 12.5977 16.2731 12.9492C16.2731 13.3105 15.9899 13.584 15.6383 13.584ZM12.7086 16.1035C12.3473 16.1035 12.0641 15.8301 12.0641 15.4688C12.0641 15.1074 12.3473 14.834 12.7086 14.834L15.6383 14.834C15.9899 14.834 16.2731 15.1074 16.2731 15.4688C16.2731 15.8301 15.9899 16.1035 15.6383 16.1035ZM12.7086 18.623C12.3473 18.623 12.0641 18.3398 12.0641 17.9883C12.0641 17.627 12.3473 17.3438 12.7086 17.3438L15.6383 17.3438C15.9899 17.3438 16.2731 17.627 16.2731 17.9883C16.2731 18.3398 15.9899 18.623 15.6383 18.623ZM14.32 5.09766C13.5778 5.09766 12.8649 4.93164 12.2204 4.53125C11.8102 4.29688 11.7907 3.86719 11.9664 3.59375C12.1227 3.33984 12.4547 3.21289 12.7868 3.39844C13.3532 3.7207 13.7926 3.83789 14.32 3.83789C16.5563 3.83789 17.9137 1.70898 20.5602 1.70898C21.3024 1.70898 22.0055 1.89453 22.6598 2.27539C23.0895 2.51953 23.0993 2.94922 22.9137 3.23242C22.7575 3.45703 22.445 3.59375 22.0934 3.39844C21.527 3.08594 21.0875 2.97852 20.5602 2.97852C18.2848 2.97852 16.9274 5.09766 14.32 5.09766ZM14.3297 7.82227C13.5875 7.82227 12.8747 7.64648 12.2301 7.25586C11.8102 7.02148 11.7907 6.5918 11.9664 6.31836C12.1227 6.06445 12.4645 5.92773 12.7965 6.12305C13.3532 6.43555 13.7926 6.5625 14.3297 6.5625C16.5661 6.5625 17.9235 4.42383 20.5602 4.42383C21.3024 4.42383 22.0153 4.60938 22.6793 4.99023C23.0993 5.23438 23.0993 5.67383 22.9235 5.94727C22.7672 6.18164 22.445 6.31836 22.1032 6.12305C21.5368 5.80078 21.0973 5.69336 20.5602 5.69336C18.2946 5.69336 16.9274 7.82227 14.3297 7.82227ZM14.32 10.5371C13.5778 10.5371 12.8649 10.3711 12.2204 9.9707C11.8102 9.73633 11.7907 9.30664 11.9664 9.0332C12.1227 8.7793 12.4547 8.65234 12.7868 8.83789C13.3532 9.16016 13.7926 9.27734 14.32 9.27734C16.5563 9.27734 17.9137 7.14844 20.5602 7.14844C21.3024 7.14844 22.0055 7.33398 22.6598 7.71484C23.0895 7.95898 23.0993 8.38867 22.9137 8.67188C22.7575 8.89648 22.445 9.0332 22.0934 8.83789C21.527 8.52539 21.0875 8.41797 20.5602 8.41797C18.2848 8.41797 16.9274 10.5371 14.32 10.5371ZM6.7516 22.959C7.22035 22.959 7.53285 22.6367 7.53285 22.168L7.53285 20.2539L5.96059 20.2539L5.96059 22.168C5.96059 22.6367 6.28285 22.959 6.7516 22.959ZM15.9215 22.959C16.4 22.959 16.7125 22.6367 16.7125 22.168L16.7125 20.2539L15.1403 20.2539L15.1403 22.168C15.1403 22.6367 15.4528 22.959 15.9215 22.959Z" fill="#ffffff" fill-opacity="0.85"/>
 </g>
</svg>
