<svg version="1.1" xmlns="http://www.w3.org/2000/svg" xmlns:xlink="http://www.w3.org/1999/xlink" width="40.5469" height="17.041" viewBox="0 0 40.5469 17.041">
 <g>
  <rect height="17.041" opacity="0" width="40.5469" x="0" y="0"/>
  <path d="M3.76953 15.1953C4.08203 14.8438 3.98438 14.3848 3.63281 13.9844C2.32422 12.5293 1.5918 10.6152 1.5918 8.51562C1.5918 6.41602 2.32422 4.50195 3.63281 3.04688C3.98438 2.64648 4.08203 2.1875 3.76953 1.83594C3.45703 1.46484 2.91016 1.47461 2.53906 1.88477C0.917969 3.64258 0 5.98633 0 8.51562C0 11.0449 0.917969 13.3789 2.53906 15.1465C2.91016 15.5566 3.45703 15.5566 3.76953 15.1953ZM36.416 15.1953C36.7285 15.5566 37.2754 15.5566 37.6562 15.1465C39.2773 13.3789 40.1855 11.0449 40.1855 8.51562C40.1855 5.98633 39.2773 3.64258 37.6562 1.88477C37.2754 1.47461 36.7285 1.46484 36.416 1.83594C36.1035 2.1875 36.2012 2.64648 36.5527 3.04688C37.8613 4.50195 38.5938 6.41602 38.5938 8.51562C38.5938 10.6152 37.8613 12.5293 36.5527 13.9844C36.2012 14.3848 36.1035 14.8438 36.416 15.1953Z" fill="var(--color-secondary)"/>
  <path d="M6.50391 12.4121C6.81641 12.0605 6.68945 11.6211 6.37695 11.2012C5.79102 10.4688 5.50781 9.53125 5.50781 8.51562C5.50781 7.5 5.79102 6.55273 6.37695 5.83008C6.68945 5.41016 6.81641 4.9707 6.50391 4.61914C6.18164 4.24805 5.5957 4.24805 5.25391 4.6875C4.4043 5.74219 3.91602 7.08008 3.91602 8.51562C3.91602 9.95117 4.4043 11.2891 5.25391 12.3438C5.5957 12.7832 6.18164 12.7734 6.50391 12.4121ZM33.6816 12.4121C34.0039 12.7734 34.5898 12.7832 34.9316 12.3438C35.7812 11.2891 36.2793 9.95117 36.2793 8.51562C36.2793 7.08008 35.7812 5.74219 34.9316 4.6875C34.5898 4.24805 34.0039 4.24805 33.6816 4.61914C33.3691 4.9707 33.4961 5.41016 33.8086 5.83008C34.3945 6.55273 34.6875 7.5 34.6875 8.51562C34.6875 9.53125 34.3945 10.4688 33.8086 11.2012C33.4961 11.6211 33.3691 12.0605 33.6816 12.4121Z" fill="var(--color-secondary)"/>
  <path d="M14.9609 17.0312L25.2246 17.0312C29.2188 17.0312 31.1523 15.1172 31.1523 11.1426L31.1523 5.88867C31.1523 1.91406 29.2188 0 25.2246 0L14.9609 0C10.9668 0 9.0332 1.91406 9.0332 5.88867L9.0332 11.1426C9.0332 15.1172 10.9668 17.0312 14.9609 17.0312ZM14.9609 15.459C11.9531 15.459 10.6055 14.1211 10.6055 11.1426L10.6055 5.88867C10.6055 2.91016 11.9531 1.57227 14.9609 1.57227L25.2246 1.57227C28.2324 1.57227 29.5801 2.91016 29.5801 5.88867L29.5801 11.1426C29.5801 14.1211 28.2324 15.459 25.2246 15.459ZM9.83398 6.55273L30.3516 6.55273L30.3516 5.56641L9.83398 5.56641ZM16.1816 7.22656L24.0039 7.22656C24.6875 7.22656 25.1758 6.74805 25.1758 6.05469C25.1758 5.37109 24.6875 4.89258 24.0039 4.89258L16.1816 4.89258C15.5176 4.89258 15.0098 5.37109 15.0098 6.05469C15.0098 6.74805 15.5176 7.22656 16.1816 7.22656ZM20.0977 10.5566C20.6152 10.5469 21.0352 10.1172 21.0352 9.62891C21.0352 9.11133 20.6152 8.68164 20.0977 8.68164C19.5703 8.68164 19.1504 9.11133 19.1504 9.62891C19.1504 10.1367 19.5703 10.5664 20.0977 10.5566Z" fill="var(--color-primary)"/>
 </g>
</svg>
