<svg version="1.1" xmlns="http://www.w3.org/2000/svg" xmlns:xlink="http://www.w3.org/1999/xlink" width="19.7754" height="19.0527" viewBox="0 0 19.7754 19.0527">
 <g>
  <rect height="19.0527" opacity="0" width="19.7754" x="0" y="0"/>
  <path d="M4.29688 7.91992C6.58203 7.93945 8.54492 6.14258 8.51562 3.94531C8.48633 1.77734 6.58203 0 4.29688 0C2.19727 0 0.908203 1.29883 0.292969 2.20703C0.0878906 2.51953 0 2.86133 0 3.24219L0 4.67773C0 5.05859 0.0976562 5.40039 0.292969 5.71289C0.888672 6.62109 2.19727 7.89062 4.29688 7.91992ZM1.77734 5.50781C1.52344 5.50781 1.31836 5.30273 1.31836 5.03906L1.31836 2.87109C1.31836 2.60742 1.52344 2.40234 1.77734 2.40234C2.05078 2.40234 2.24609 2.60742 2.24609 2.87109L2.24609 5.03906C2.24609 5.30273 2.05078 5.50781 1.77734 5.50781ZM4.79492 15.8008L7.54883 15.8008L7.54883 7.77344C6.77734 8.36914 5.82031 8.75977 4.79492 8.83789ZM5.75195 19.0234L6.58203 19.0234C7.17773 19.0234 7.54883 18.7305 7.54883 18.1543L7.54883 16.7773L4.79492 16.7773L4.79492 18.1543C4.79492 18.7305 5.17578 19.0234 5.75195 19.0234ZM15.1172 7.91992C17.2168 7.89062 18.5352 6.62109 19.1211 5.71289C19.3164 5.40039 19.4141 5.05859 19.4141 4.67773L19.4141 3.24219C19.4141 2.86133 19.3262 2.51953 19.1211 2.20703C18.5156 1.29883 17.2168 0 15.1172 0C12.832 0 10.9277 1.77734 10.8984 3.94531C10.8691 6.14258 12.832 7.93945 15.1172 7.91992ZM17.6367 5.50781C17.3633 5.50781 17.168 5.30273 17.168 5.03906L17.168 2.87109C17.168 2.60742 17.3633 2.40234 17.6367 2.40234C17.8906 2.40234 18.0957 2.60742 18.0957 2.87109L18.0957 5.03906C18.0957 5.30273 17.8906 5.50781 17.6367 5.50781ZM14.6191 15.8008L14.6191 8.83789C13.5938 8.75977 12.6367 8.36914 11.8652 7.77344L11.8652 15.8008ZM13.6621 19.0234C14.2383 19.0234 14.6191 18.7305 14.6191 18.1543L14.6191 16.7773L11.8652 16.7773L11.8652 18.1543C11.8652 18.7305 12.2363 19.0234 12.832 19.0234Z" fill="currentColor"/>
 </g>
</svg>
