<svg version="1.1" xmlns="http://www.w3.org/2000/svg" xmlns:xlink="http://www.w3.org/1999/xlink" width="24.2773" height="11.6309" viewBox="0 0 24.2773 11.6309">
 <g>
  <rect height="11.6309" opacity="0" width="24.2773" x="0" y="0"/>
  <path d="M19.1992 8.24219C19.873 8.22266 20.4395 7.66602 20.4395 6.99219C20.4395 6.30859 19.873 5.73242 19.1992 5.73242C18.5352 5.73242 17.959 6.30859 17.959 6.99219C17.959 7.66602 18.5352 8.25195 19.1992 8.24219ZM3.06641 11.5234L20.8496 11.5234C22.8906 11.5234 23.916 10.5078 23.916 8.49609L23.916 3.01758C23.916 1.01562 22.8906 0 20.8496 0L3.06641 0C1.01562 0 0 1.00586 0 3.01758L0 8.49609C0 10.5176 1.01562 11.5234 3.06641 11.5234ZM3.08594 9.95117C2.10938 9.95117 1.57227 9.43359 1.57227 8.41797L1.57227 3.10547C1.57227 2.08984 2.10938 1.57227 3.08594 1.57227L20.8301 1.57227C21.7969 1.57227 22.3438 2.08984 22.3438 3.10547L22.3438 8.41797C22.3438 9.43359 21.7969 9.95117 20.8301 9.95117ZM23.0273 4.41406L23.0273 3.13477L0.908203 3.13477L0.908203 4.41406Z" fill="currentColor"/>
 </g>
</svg>
