<?xml version="1.0" encoding="UTF-8"?>
<!--Generator: Apple Native CoreSVG 232.5-->
<!DOCTYPE svg
PUBLIC "-//W3C//DTD SVG 1.1//EN"
       "http://www.w3.org/Graphics/SVG/1.1/DTD/svg11.dtd">
<svg version="1.1" xmlns="http://www.w3.org/2000/svg" xmlns:xlink="http://www.w3.org/1999/xlink" width="20.2832" height="19.9316">
 <g>
  <rect height="19.9316" opacity="0" width="20.2832" x="0" y="0"/>
  <path d="M9.96094 19.9219C15.4102 19.9219 19.9219 15.4004 19.9219 9.96094C19.9219 4.51172 15.4004 0 9.95117 0C4.51172 0 0 4.51172 0 9.96094C0 15.4004 4.52148 19.9219 9.96094 19.9219ZM9.96094 18.2617C5.35156 18.2617 1.66992 14.5703 1.66992 9.96094C1.66992 5.35156 5.3418 1.66016 9.95117 1.66016C14.5605 1.66016 18.2617 5.35156 18.2617 9.96094C18.2617 14.5703 14.5703 18.2617 9.96094 18.2617Z" fill="#ffffff" fill-opacity="0.55"/>
  <path d="M5.54688 12.5781L5.9668 15.3223C6.01562 15.6055 6.15234 15.7715 6.41602 15.7715C6.67969 15.7715 6.875 15.5762 6.82617 15.2539L6.44531 12.7246C6.39648 12.4219 6.49414 12.2949 6.8457 12.1973C6.97266 12.1582 7.09961 12.1289 7.23633 12.0898C7.16797 12.2754 7.13867 12.4805 7.13867 12.7344C7.13867 14.4629 8.44727 16.0938 9.96094 16.0938C11.4746 16.0938 12.7832 14.4629 12.7832 12.7344C12.7832 12.4805 12.7539 12.2754 12.6855 12.0898C12.8125 12.1289 12.9395 12.1582 13.0762 12.1973C13.4277 12.2949 13.5156 12.4219 13.4766 12.7246L13.0859 15.2539C13.0371 15.5762 13.2324 15.7715 13.5059 15.7715C13.7695 15.7715 13.9062 15.6055 13.9453 15.3223L14.375 12.5781C14.4824 11.9531 14.2188 11.6113 13.5352 11.4355L11.2305 10.8887C11.3965 10.8203 11.6016 10.5957 11.6895 10.293L13.2129 10.0781C13.877 9.98047 14.1895 9.60938 14.1895 8.94531L14.1895 7.10938C14.1895 6.8457 14.0332 6.67969 13.75 6.67969C13.4863 6.67969 13.3301 6.8457 13.3301 7.10938L13.3301 8.7793C13.3301 9.14062 13.1348 9.24805 12.8027 9.29688L11.6699 9.46289C11.6211 9.28711 11.5137 9.13086 11.4062 9.04297C12.2754 8.86719 12.7148 8.33008 12.7148 7.50977C12.7148 6.8457 12.4805 6.23047 12.0703 5.75195L12.0996 5.72266C12.6172 5.35156 12.7246 4.78516 12.373 4.18945L12.0703 3.68164C11.9629 3.49609 11.8457 3.4082 11.6602 3.4082C11.4355 3.4082 11.2598 3.57422 11.2598 3.79883C11.2598 3.89648 11.2793 3.96484 11.3379 4.0625L11.6113 4.47266C11.7578 4.72656 11.8164 4.94141 11.6211 5.09766L11.4941 5.20508C11.0352 4.91211 10.459 4.73633 9.96094 4.73633C9.45312 4.73633 8.87695 4.91211 8.41797 5.20508L8.29102 5.09766C8.10547 4.94141 8.16406 4.72656 8.31055 4.47266L8.57422 4.0625C8.64258 3.96484 8.65234 3.89648 8.65234 3.79883C8.65234 3.57422 8.48633 3.4082 8.25195 3.4082C8.07617 3.4082 7.93945 3.48633 7.8418 3.68164L7.53906 4.18945C7.20703 4.79492 7.29492 5.35156 7.82227 5.72266L7.8418 5.75195C7.43164 6.23047 7.19727 6.8457 7.19727 7.50977C7.19727 8.32031 7.64648 8.86719 8.51562 9.0332C8.4082 9.12109 8.29102 9.28711 8.25195 9.46289L7.10938 9.29688C6.78711 9.25781 6.58203 9.14062 6.58203 8.7793L6.58203 7.10938C6.58203 6.8457 6.43555 6.67969 6.16211 6.67969C5.88867 6.67969 5.73242 6.8457 5.73242 7.10938L5.73242 8.94531C5.73242 9.60938 6.03516 9.98047 6.70898 10.0781L8.23242 10.293C8.31055 10.5957 8.51562 10.8105 8.69141 10.8887L6.38672 11.4355C5.70312 11.6016 5.43945 11.9531 5.54688 12.5781Z" fill="#ffffff" fill-opacity="0.85"/>
 </g>
</svg>
