<?xml version="1.0" encoding="UTF-8"?>
<!--Generator: Apple Native CoreSVG 232.5-->
<!DOCTYPE svg
PUBLIC "-//W3C//DTD SVG 1.1//EN"
       "http://www.w3.org/Graphics/SVG/1.1/DTD/svg11.dtd">
<svg version="1.1" xmlns="http://www.w3.org/2000/svg" xmlns:xlink="http://www.w3.org/1999/xlink" width="22.1875" height="20.9082">
 <g>
  <rect height="20.9082" opacity="0" width="22.1875" x="0" y="0"/>
  <path d="M14.4141 0.927734L14.7363 1.98242C14.9316 2.62695 15.2441 2.98828 15.7812 3.27148C16.8848 3.88672 17.4805 4.99023 17.4805 6.50391L17.4805 6.65039L17.6172 6.65039C18.125 6.65039 18.457 6.99219 18.457 7.54883L18.457 8.86719C18.457 9.42383 18.125 9.76562 17.6172 9.76562L17.4805 9.76563L17.4805 14.4043C17.4805 15.918 16.8848 17.0312 15.7812 17.6367C15.2441 17.9199 14.9316 18.2812 14.7363 18.9355L14.4141 19.9805C14.2285 20.6152 13.8184 20.9082 13.1445 20.9082L8.63281 20.9082C7.97852 20.9082 7.53906 20.6055 7.35352 19.9805L7.04102 18.9355C6.8457 18.2812 6.5332 17.9199 5.99609 17.6367C4.89258 17.0312 4.29688 15.918 4.29688 14.4043L4.29688 12.4707L5.72266 12.4707L5.72266 14.1992C5.72266 15.6445 6.57227 16.5234 7.99805 16.5234L13.7793 16.5234C15.2051 16.5234 16.0547 15.6445 16.0547 14.1992L16.0547 6.71875C16.0547 5.26367 15.2051 4.38477 13.7793 4.38477L7.99805 4.38477C6.57227 4.38477 5.72266 5.26367 5.72266 6.71875L5.72266 8.4082L4.29688 8.4082L4.29688 6.50391C4.29688 4.9707 4.90234 3.85742 5.99609 3.27148C6.54297 2.99805 6.85547 2.61719 7.04102 1.98242L7.35352 0.927734C7.53906 0.302734 7.97852 0 8.63281 0L13.1445 0C13.8086 0 14.248 0.3125 14.4141 0.927734Z" fill="#ffffff" fill-opacity="0.55"/>
  <path d="M2.04102 11.1328L8.35938 11.1328L10.2246 11.0352L8.0957 12.9492L7.61719 13.4277C7.49023 13.5645 7.41211 13.75 7.41211 13.9551C7.41211 14.3457 7.69531 14.6191 8.07617 14.6191C8.28125 14.6191 8.45703 14.5508 8.59375 14.4141L12.0605 10.957C12.2266 10.791 12.3145 10.6055 12.3145 10.4395C12.3145 10.2734 12.2266 10.0684 12.0605 9.91211L8.59375 6.46484C8.45703 6.32812 8.28125 6.25 8.07617 6.25C7.69531 6.25 7.41211 6.52344 7.41211 6.92383C7.41211 7.12891 7.49023 7.31445 7.61719 7.45117L8.0957 7.92969L10.2246 9.83398L8.35938 9.73633L2.04102 9.73633C1.60156 9.73633 1.32812 10.0781 1.32812 10.4395C1.32812 10.8008 1.60156 11.1328 2.04102 11.1328Z" fill="#ffffff" fill-opacity="0.85"/>
 </g>
</svg>
