<svg version="1.1" xmlns="http://www.w3.org/2000/svg" xmlns:xlink="http://www.w3.org/1999/xlink" width="9.375" height="21.6309" viewBox="0 0 9.375 21.6309">
 <g>
  <rect height="21.6309" opacity="0" width="9.375" x="0" y="0"/>
  <path d="M2.54883 21.5723L6.47461 21.5723C8.02734 21.5723 9.01367 20.6152 9.01367 19.1406L9.01367 2.43164C9.01367 0.957031 8.02734 0 6.47461 0L2.54883 0C0.986328 0 0 0.957031 0 2.43164L0 19.1406C0 20.6152 0.986328 21.5723 2.54883 21.5723ZM2.71484 20.1465C1.93359 20.1465 1.44531 19.6777 1.44531 18.9355L1.44531 2.64648C1.44531 1.89453 1.93359 1.42578 2.71484 1.42578L6.29883 1.42578C7.08008 1.42578 7.56836 1.89453 7.56836 2.64648L7.56836 18.9355C7.56836 19.6777 7.08008 20.1465 6.29883 20.1465ZM4.51172 8.33984C6.02539 8.33984 7.25586 7.12891 7.25586 5.60547C7.25586 4.0918 6.02539 2.88086 4.51172 2.88086C2.99805 2.88086 1.76758 4.0918 1.76758 5.60547C1.76758 7.12891 2.99805 8.33984 4.51172 8.33984ZM3.1543 11.0352C3.70117 11.0352 4.15039 10.5859 4.15039 10.0391C4.15039 9.50195 3.71094 9.05273 3.1543 9.05273C2.59766 9.05273 2.16797 9.50195 2.16797 10.0391C2.16797 10.5859 2.59766 11.0352 3.1543 11.0352ZM5.87891 11.0352C6.41602 11.0352 6.85547 10.5859 6.85547 10.0391C6.85547 9.50195 6.41602 9.05273 5.87891 9.05273C5.32227 9.05273 4.86328 9.50195 4.86328 10.0391C4.86328 10.5859 5.32227 11.0352 5.87891 11.0352ZM3.1543 13.6523C3.71094 13.6523 4.15039 13.2129 4.15039 12.6562C4.15039 12.1094 3.71094 11.6602 3.1543 11.6602C2.59766 11.6602 2.16797 12.1191 2.16797 12.6562C2.16797 13.2129 2.59766 13.6523 3.1543 13.6523ZM3.1543 16.2695C3.71094 16.2695 4.15039 15.8301 4.15039 15.2832C4.15039 14.7266 3.70117 14.2773 3.1543 14.2773C2.59766 14.2773 2.16797 14.7266 2.16797 15.2832C2.16797 15.8301 2.59766 16.2695 3.1543 16.2695ZM5.85938 16.2695C6.37695 16.2695 6.80664 15.8496 6.80664 15.3516L6.80664 12.6074C6.80664 12.0898 6.37695 11.6602 5.85938 11.6602C5.3418 11.6602 4.94141 12.0801 4.94141 12.6074L4.94141 15.3516C4.94141 15.8496 5.35156 16.2695 5.85938 16.2695Z" fill="currentColor"/>
 </g>
</svg>
