<svg version="1.1" xmlns="http://www.w3.org/2000/svg" xmlns:xlink="http://www.w3.org/1999/xlink" width="10.7715" height="20.5371" viewBox="0 0 10.7715 20.5371">
 <g>
  <rect height="20.5371" opacity="0" width="10.7715" x="0" y="0"/>
  <path d="M1.8457 15.459L8.56445 15.459C9.24805 15.459 9.89258 15.6738 10.4102 16.0547L10.4102 2.53906C10.4102 0.986328 9.38477 0 7.75391 0L2.65625 0C1.02539 0 0 0.986328 0 2.53906L0 16.0547C0.517578 15.6738 1.16211 15.459 1.8457 15.459ZM5.21484 4.50195C4.56055 4.50195 4.0332 3.97461 4.0332 3.33008C4.0332 2.67578 4.56055 2.14844 5.21484 2.14844C5.85938 2.14844 6.39648 2.67578 6.39648 3.33008C6.39648 3.97461 5.85938 4.50195 5.21484 4.50195ZM1.8457 20.4785L8.56445 20.4785C9.58008 20.4785 10.4102 19.6484 10.4102 18.6328C10.4102 17.6172 9.58008 16.7871 8.56445 16.7871L1.8457 16.7871C0.830078 16.7871 0 17.6172 0 18.6328C0 19.6484 0.830078 20.4785 1.8457 20.4785Z" fill="currentColor"/>
 </g>
</svg>
