<svg version="1.1" xmlns="http://www.w3.org/2000/svg" xmlns:xlink="http://www.w3.org/1999/xlink" width="18.9551" height="20.5566" viewBox="0 0 18.9551 20.5566">
 <g>
  <rect height="20.5566" opacity="0" width="18.9551" x="0" y="0"/>
  <path d="M11.3672 15.752C11.3672 18.4473 8.88672 20.5469 5.69336 20.5469C2.48047 20.5469 0 18.4473 0 15.752C0 13.7367 1.37663 12.0575 3.4082 11.3336L3.4082 13.0419C2.29087 13.6102 1.57227 14.5971 1.57227 15.752C1.57227 17.5684 3.36914 18.9746 5.69336 18.9746C8.01758 18.9746 9.79492 17.5684 9.79492 15.752C9.79492 14.576 9.05796 13.5742 7.91016 13.0125L7.91016 11.3125C9.9644 12.0258 11.3672 13.7177 11.3672 15.752Z" fill="var(--color-primary)"/>
  <path d="M5.6543 16.6895C6.26953 16.6895 6.77734 16.3965 6.77734 15.9863L6.77734 5.9082L4.55078 5.9082L4.55078 15.9863C4.55078 16.3965 5.03906 16.6895 5.6543 16.6895ZM5.6543 8.38867C7.96875 8.38867 9.83398 6.50391 9.83398 4.17969C9.83398 1.875 7.94922 0 5.6543 0C3.33984 0 1.44531 1.89453 1.44531 4.17969C1.44531 6.52344 3.33984 8.38867 5.6543 8.38867Z" fill="var(--color-primary)"/>
  <path d="M10.9277 8.66211C10.9277 9.0918 11.2695 9.43359 11.6992 9.43359L14.4043 9.43359L14.4043 10.7422C14.4043 11.416 15.0586 11.6602 15.5957 11.25L18.3203 9.19922C18.6816 8.92578 18.6719 8.42773 18.3203 8.16406L15.5957 6.10352C15.0781 5.71289 14.4043 5.91797 14.4043 6.61133L14.4043 7.91016L11.6992 7.91016C11.2695 7.91016 10.9277 8.24219 10.9277 8.66211Z" fill="var(--color-primary)"/>
 </g>
</svg>
