<svg version="1.1" xmlns="http://www.w3.org/2000/svg" xmlns:xlink="http://www.w3.org/1999/xlink" width="19.4629" height="20.5566" viewBox="0 0 19.4629 20.5566">
 <g>
  <rect height="20.5566" opacity="0" width="19.4629" x="0" y="0"/>
  <path d="M11.3672 15.752C11.3672 18.4473 8.88672 20.5469 5.69336 20.5469C2.48047 20.5469 0 18.4473 0 15.752C0 13.7367 1.37663 12.0575 3.4082 11.3336L3.4082 13.0419C2.29087 13.6102 1.57227 14.5971 1.57227 15.752C1.57227 17.5684 3.36914 18.9746 5.69336 18.9746C8.01758 18.9746 9.79492 17.5684 9.79492 15.752C9.79492 14.576 9.05796 13.5742 7.91016 13.0125L7.91016 11.3125C9.9644 12.0258 11.3672 13.7177 11.3672 15.752Z" fill="var(--color-secondary)"/>
  <path d="M5.6543 16.6895C6.26953 16.6895 6.77734 16.3965 6.77734 15.9863L6.77734 5.9082L4.55078 5.9082L4.55078 15.9863C4.55078 16.3965 5.03906 16.6895 5.6543 16.6895ZM5.6543 8.38867C7.96875 8.38867 9.83398 6.50391 9.83398 4.17969C9.83398 1.875 7.94922 0 5.6543 0C3.33984 0 1.44531 1.89453 1.44531 4.17969C1.44531 6.52344 3.33984 8.38867 5.6543 8.38867Z" fill="var(--color-secondary)"/>
  <path d="M16.3379 8.74023C16.7578 8.74023 17.0996 8.4082 17.0996 7.97852L17.0996 5.26367L18.3887 5.26367C19.0918 5.26367 19.2969 4.58984 18.9062 4.07227L16.8457 1.34766C16.5723 0.996094 16.084 0.986328 15.8105 1.34766L13.7598 4.07227C13.3496 4.60938 13.5938 5.26367 14.2676 5.26367L15.5762 5.26367L15.5762 7.97852C15.5762 8.4082 15.9082 8.74023 16.3379 8.74023ZM16.3379 11.8066C15.9082 11.8066 15.5762 12.1387 15.5762 12.5684L15.5762 15.2832L14.2676 15.2832C13.5938 15.2832 13.3496 15.9375 13.7598 16.4746L15.8105 19.1992C16.084 19.5508 16.5723 19.5508 16.8457 19.1992L18.9062 16.4746C19.2969 15.957 19.0918 15.2832 18.3887 15.2832L17.0996 15.2832L17.0996 12.5684C17.0996 12.1387 16.7578 11.8066 16.3379 11.8066Z" fill="var(--color-primary)"/>
 </g>
</svg>
