<svg version="1.1" xmlns="http://www.w3.org/2000/svg" xmlns:xlink="http://www.w3.org/1999/xlink" width="18.3691" height="18.0176" viewBox="0 0 18.3691 18.0176">
 <g>
  <rect height="18.0176" opacity="0" width="18.3691" x="0" y="0"/>
  <path d="M16.8652 1.15234C15.8691 0.15625 14.4629 0 12.793 0L5.18555 0C3.54492 0 2.13867 0.15625 1.14258 1.15234C0.146484 2.14844 0 3.54492 0 5.18555L0 12.793C0 14.4629 0.146484 15.8594 1.14258 16.8555C2.13867 17.8516 3.54492 18.0078 5.20508 18.0078L12.793 18.0078C14.4629 18.0078 15.8691 17.8516 16.8652 16.8555C17.8613 15.8594 18.0078 14.4629 18.0078 12.793L18.0078 5.20508C18.0078 3.53516 17.8613 2.14844 16.8652 1.15234ZM16.4355 4.94141L16.4355 13.0664C16.4355 14.0723 16.3086 15.1172 15.7129 15.7031C15.127 16.2988 14.0723 16.4355 13.0664 16.4355L4.94141 16.4355C3.93555 16.4355 2.88086 16.2988 2.28516 15.7031C1.69922 15.1172 1.57227 14.0723 1.57227 13.0664L1.57227 4.9707C1.57227 3.93555 1.69922 2.89062 2.28516 2.29492C2.88086 1.70898 3.94531 1.57227 4.9707 1.57227L13.0664 1.57227C14.0723 1.57227 15.127 1.70898 15.7129 2.30469C16.3086 2.89062 16.4355 3.93555 16.4355 4.94141Z" fill="var(--color-secondary)"/>
  <path d="M9.01367 4.0332C8.59375 4.0332 8.29102 4.33594 8.29102 4.76562L8.29102 9.64844L8.35938 11.709L7.38281 10.5371L6.2207 9.36523C6.09375 9.22852 5.91797 9.15039 5.70312 9.15039C5.30273 9.15039 5 9.45312 5 9.85352C5 10.0586 5.05859 10.2344 5.19531 10.3613L8.45703 13.6035C8.65234 13.7988 8.80859 13.8867 9.01367 13.8867C9.23828 13.8867 9.4043 13.7891 9.58984 13.6035L12.8516 10.3613C12.9785 10.2344 13.0469 10.0586 13.0469 9.85352C13.0469 9.45312 12.7344 9.15039 12.334 9.15039C12.1191 9.15039 11.9434 9.21875 11.8164 9.36523L10.6641 10.5371L9.67773 11.7188L9.74609 9.64844L9.74609 4.76562C9.74609 4.33594 9.44336 4.0332 9.01367 4.0332Z" fill="var(--color-primary)"/>
 </g>
</svg>
