<svg version="1.1" xmlns="http://www.w3.org/2000/svg" xmlns:xlink="http://www.w3.org/1999/xlink" width="18.9746" height="18.6426" viewBox="0 0 18.9746 18.6426">
 <g>
  <rect height="18.6426" opacity="0" width="18.9746" x="0" y="0"/>
  <path d="M0.898438 7.90039C1.41602 7.90039 1.78711 7.50977 1.78711 6.99219L1.78711 6.17188L1.5918 2.76367L4.16016 5.46875L7.16797 8.49609C7.33398 8.67188 7.54883 8.75 7.7832 8.75C8.33984 8.75 8.75 8.38867 8.75 7.8418C8.75 7.57812 8.66211 7.34375 8.48633 7.16797L5.46875 4.16016L2.76367 1.5918L6.18164 1.78711L6.99219 1.78711C7.50977 1.78711 7.91016 1.42578 7.91016 0.898438C7.91016 0.371094 7.51953 0 6.99219 0L1.57227 0C0.576172 0 0 0.576172 0 1.57227L0 6.99219C0 7.5 0.380859 7.90039 0.898438 7.90039ZM11.6113 18.6328L17.0312 18.6328C18.0273 18.6328 18.6133 18.0566 18.6133 17.0605L18.6133 11.6406C18.6133 11.1328 18.2324 10.7324 17.7051 10.7324C17.1973 10.7324 16.8164 11.123 16.8164 11.6406L16.8164 12.4609L17.0215 15.8691L14.4434 13.1641L11.4453 10.1367C11.2793 9.96094 11.0547 9.88281 10.8203 9.88281C10.2734 9.88281 9.85352 10.2441 9.85352 10.791C9.85352 11.0547 9.95117 11.2891 10.127 11.4648L13.1348 14.4727L15.8496 17.041L12.4316 16.8457L11.6113 16.8457C11.0938 16.8457 10.6934 17.207 10.6934 17.7344C10.6934 18.2617 11.0938 18.6328 11.6113 18.6328Z" fill="currentColor"/>
 </g>
</svg>
