<svg version="1.1" xmlns="http://www.w3.org/2000/svg" xmlns:xlink="http://www.w3.org/1999/xlink" width="18.3691" height="18.0176" viewBox="0 0 18.3691 18.0176">
 <g>
  <rect height="18.0176" opacity="0" width="18.3691" x="0" y="0"/>
  <path d="M16.8652 1.15234C17.8613 2.14844 18.0078 3.53516 18.0078 5.20508L18.0078 12.793C18.0078 14.4629 17.8613 15.8594 16.8652 16.8555C15.8691 17.8516 14.4629 18.0078 12.793 18.0078L5.20508 18.0078C3.54492 18.0078 2.13867 17.8516 1.14258 16.8555C0.146484 15.8594 0 14.4629 0 12.793L0 5.18555C0 3.54492 0.146484 2.14844 1.14258 1.15234C2.13867 0.15625 3.54492 0 5.18555 0L12.793 0C14.4629 0 15.8691 0.15625 16.8652 1.15234ZM8.24219 4.63867L8.24219 9.64844L8.32031 11.7871L7.31445 10.5762L6.12305 9.375C5.98633 9.22852 5.80078 9.15039 5.58594 9.15039C5.16602 9.15039 4.85352 9.46289 4.85352 9.88281C4.85352 10.0977 4.91211 10.2734 5.05859 10.4102L8.41797 13.75C8.62305 13.9551 8.7793 14.043 8.99414 14.043C9.22852 14.043 9.39453 13.9453 9.58984 13.75L12.9492 10.4102C13.0859 10.2734 13.1543 10.0977 13.1543 9.88281C13.1543 9.46289 12.832 9.15039 12.4121 9.15039C12.1973 9.15039 12.0117 9.21875 11.875 9.375L10.6934 10.5762L9.67773 11.7969L9.75586 9.64844L9.75586 4.63867C9.75586 4.18945 9.44336 3.87695 8.99414 3.87695C8.55469 3.87695 8.24219 4.18945 8.24219 4.63867Z" fill="currentColor"/>
 </g>
</svg>
