<svg version="1.1" xmlns="http://www.w3.org/2000/svg" xmlns:xlink="http://www.w3.org/1999/xlink" width="20.2832" height="19.9316" viewBox="0 0 20.2832 19.9316">
 <g>
  <rect height="19.9316" opacity="0" width="20.2832" x="0" y="0"/>
  <path d="M19.9219 9.96094C19.9219 15.4004 15.4102 19.9219 9.96094 19.9219C4.52148 19.9219 0 15.4004 0 9.96094C0 4.51172 4.51172 0 9.95117 0C15.4004 0 19.9219 4.51172 19.9219 9.96094ZM13.623 6.17188L13.623 13.7402C13.623 14.1309 13.9062 14.4043 14.2871 14.4043C14.6973 14.4043 14.9805 14.1309 14.9805 13.7402L14.9805 6.17188C14.9805 5.78125 14.6973 5.50781 14.2871 5.50781C13.9062 5.50781 13.623 5.78125 13.623 6.17188ZM7.97852 6.47461C7.97852 6.66016 8.03711 6.8457 8.18359 6.97266L8.80859 7.58789L10.8594 9.4043L9.01367 9.29688L4.4043 9.29688C4.01367 9.29688 3.73047 9.58008 3.73047 9.9707C3.73047 10.3809 4.01367 10.6543 4.4043 10.6543L9.01367 10.6543L10.8691 10.5371L8.81836 12.3535L8.18359 12.9395C8.03711 13.0566 7.97852 13.2227 7.97852 13.4277C7.97852 13.8184 8.26172 14.082 8.65234 14.082C8.80859 14.082 9.02344 13.9941 9.16016 13.8574L12.627 10.4785C12.7832 10.332 12.8516 10.1562 12.8516 9.9707C12.8516 9.77539 12.7637 9.60938 12.627 9.45312L9.15039 6.04492C9.00391 5.88867 8.82812 5.83008 8.65234 5.83008C8.28125 5.83008 7.97852 6.09375 7.97852 6.47461Z" fill="var(--color-primary)"/>
 </g>
</svg>
