<svg version="1.1" xmlns="http://www.w3.org/2000/svg" xmlns:xlink="http://www.w3.org/1999/xlink" width="20.2832" height="19.9316" viewBox="0 0 20.2832 19.9316">
 <g>
  <rect height="19.9316" opacity="0" width="20.2832" x="0" y="0"/>
  <path d="M9.96094 19.9219C15.4102 19.9219 19.9219 15.4004 19.9219 9.96094C19.9219 4.51172 15.4004 0 9.95117 0C4.51172 0 0 4.51172 0 9.96094C0 15.4004 4.52148 19.9219 9.96094 19.9219ZM9.96094 18.2617C5.35156 18.2617 1.66992 14.5703 1.66992 9.96094C1.66992 5.35156 5.3418 1.66016 9.95117 1.66016C14.5605 1.66016 18.2617 5.35156 18.2617 9.96094C18.2617 14.5703 14.5703 18.2617 9.96094 18.2617Z" fill="currentColor"/>
  <path d="M5.73242 9.95117C6.11328 9.95117 6.42578 9.64844 6.42578 9.26758L6.42578 8.78906L6.31836 7.24609L8.4375 9.46289C8.7207 9.77539 9.18945 9.76562 9.47266 9.47266C9.75586 9.18945 9.74609 8.71094 9.46289 8.4375L7.26562 6.33789L8.75977 6.43555L9.23828 6.43555C9.61914 6.43555 9.92188 6.13281 9.92188 5.75195C9.92188 5.37109 9.61914 5.05859 9.23828 5.05859L5.84961 5.05859C5.3418 5.05859 5.04883 5.2832 5.04883 5.86914L5.04883 9.26758C5.04883 9.64844 5.35156 9.95117 5.73242 9.95117ZM10.6738 14.8828L14.0527 14.8828C14.5605 14.8828 14.8633 14.6582 14.8633 14.0723L14.8633 10.6738C14.8633 10.293 14.5508 9.99023 14.1699 9.99023C13.7891 9.99023 13.4863 10.293 13.4863 10.6738L13.4863 11.1523L13.584 12.6953L11.4746 10.4785C11.1816 10.166 10.7227 10.1758 10.4297 10.4688C10.1465 10.752 10.1562 11.2305 10.4395 11.5039L12.6465 13.6035L11.1523 13.5059L10.6738 13.5059C10.293 13.5059 9.98047 13.8086 9.98047 14.1895C9.98047 14.5703 10.293 14.8828 10.6738 14.8828Z" fill="currentColor"/>
 </g>
</svg>
