<?xml version="1.0" encoding="UTF-8"?>
<!--Generator: Apple Native CoreSVG 232.5-->
<!DOCTYPE svg
PUBLIC "-//W3C//DTD SVG 1.1//EN"
       "http://www.w3.org/Graphics/SVG/1.1/DTD/svg11.dtd">
<svg version="1.1" xmlns="http://www.w3.org/2000/svg" xmlns:xlink="http://www.w3.org/1999/xlink" width="21.582" height="17.9199">
 <g>
  <rect height="17.9199" opacity="0" width="21.582" x="0" y="0"/>
  <path d="M21.582 8.95508C21.582 8.62305 21.4648 8.26172 21.084 7.90039L13.3789 0.693359C12.8613 0.205078 12.5391 0 12.0605 0C11.377 0 10.8887 0.537109 10.8887 1.19141L10.8887 5.10742L2.77344 5.10742C1.35742 5.10742 0.527344 5.9082 0.527344 7.30469L0.527344 10.6152C0.527344 12.0117 1.35742 12.8125 2.77344 12.8125L10.8887 12.8125L10.8887 16.7676C10.8887 17.4219 11.377 17.9102 12.041 17.9102C12.5195 17.9102 12.9102 17.7148 13.3789 17.2754L21.084 10C21.4551 9.64844 21.582 9.27734 21.582 8.95508Z" fill="#ffffff" fill-opacity="0.85"/>
 </g>
</svg>
