<svg version="1.1" xmlns="http://www.w3.org/2000/svg" xmlns:xlink="http://www.w3.org/1999/xlink" width="18.3398" height="17.998" viewBox="0 0 18.3398 17.998">
 <g>
  <rect height="17.998" opacity="0" width="18.3398" x="0" y="0"/>
  <path d="M3.06641 17.998L14.9121 17.998C16.9629 17.998 17.9785 16.9824 17.9785 14.9707L17.9785 3.04688C17.9785 1.03516 16.9629 0.0195312 14.9121 0.0195312L3.06641 0.0195312C1.02539 0.0195312 0 1.02539 0 3.04688L0 14.9707C0 16.9922 1.02539 17.998 3.06641 17.998Z" fill="var(--color-tertiary)"/>
  <path d="M8.44727 12.7734L5.05859 7.04102C4.80469 6.61133 5 6.03516 5.48828 6.03516L12.5 6.03516C12.9785 6.03516 13.1934 6.57227 12.9199 7.04102L9.54102 12.7734C9.28711 13.2227 8.70117 13.1934 8.44727 12.7734Z" fill="var(--color-primary)"/>
 </g>
</svg>
