<svg version="1.1" xmlns="http://www.w3.org/2000/svg" xmlns:xlink="http://www.w3.org/1999/xlink" width="29.4361" height="20.4395" viewBox="0 0 29.4361 20.4395">
 <g>
  <rect height="20.4395" opacity="0" width="29.4361" x="0" y="0"/>
  <path d="M0.421151 11.0449L8.68287 15.8301C9.30787 16.1914 10.0794 15.8301 10.0794 15.1562L10.0794 5.35156C10.0794 4.66797 9.2981 4.27734 8.68287 4.63867L0.421151 9.48242C-0.13549 9.80469-0.145256 10.7031 0.421151 11.0449ZM14.5325 20.4395C14.9133 20.4395 15.2551 20.1367 15.2551 19.7559L15.2551 0.693359C15.2551 0.3125 14.9133 0.0195312 14.5325 0.0195312C14.1516 0.0195312 13.8196 0.3125 13.8196 0.693359L13.8196 19.7559C13.8196 20.1367 14.1516 20.4395 14.5325 20.4395ZM28.6536 11.0449C29.22 10.7031 29.2102 9.80469 28.6536 9.48242L20.3919 4.63867C19.7766 4.27734 18.9954 4.66797 18.9954 5.35156L18.9954 15.1562C18.9954 15.8301 19.7669 16.1914 20.3919 15.8301Z" fill="var(--color-primary)"/>
 </g>
</svg>
