<svg version="1.1" xmlns="http://www.w3.org/2000/svg" xmlns:xlink="http://www.w3.org/1999/xlink" width="20.2832" height="19.9316" viewBox="0 0 20.2832 19.9316">
 <g>
  <rect height="19.9316" opacity="0" width="20.2832" x="0" y="0"/>
  <path d="M9.96094 19.9219C15.4102 19.9219 19.9219 15.4004 19.9219 9.96094C19.9219 4.51172 15.4004 0 9.95117 0C4.51172 0 0 4.51172 0 9.96094C0 15.4004 4.52148 19.9219 9.96094 19.9219Z" fill="var(--color-tertiary)"/>
  <path d="M5.51758 9.83398C5.11719 9.83398 4.79492 9.51172 4.79492 9.11133C4.79492 8.7207 5.11719 8.4082 5.51758 8.4082L6.00586 8.4082L7.54883 8.50586L4.83398 5.9082C4.54102 5.60547 4.52148 5.12695 4.82422 4.83398C5.11719 4.53125 5.5957 4.53125 5.88867 4.84375L8.51562 7.56836L8.41797 5.97656L8.41797 5.48828C8.41797 5.08789 8.73047 4.77539 9.12109 4.77539C9.52148 4.77539 9.84375 5.08789 9.84375 5.48828L9.84375 8.99414C9.84375 9.59961 9.53125 9.83398 9.00391 9.83398ZM10.8008 15.1367C10.4004 15.1367 10.0781 14.8242 10.0781 14.4238L10.0781 10.9082C10.0781 10.3125 10.3906 10.0781 10.918 10.0781L14.4043 10.0781C14.8047 10.0781 15.127 10.3906 15.127 10.8008C15.127 11.1914 14.8047 11.5039 14.4043 11.5039L13.916 11.5039L12.373 11.4062L15.0879 14.0039C15.3809 14.2969 15.4004 14.7852 15.0977 15.0781C14.8047 15.3809 14.3262 15.3809 14.0332 15.0684L11.4062 12.3438L11.5039 13.9355L11.5039 14.4238C11.5039 14.8242 11.1914 15.1367 10.8008 15.1367Z" fill="var(--color-primary)"/>
 </g>
</svg>
