<svg version="1.1" xmlns="http://www.w3.org/2000/svg" xmlns:xlink="http://www.w3.org/1999/xlink" width="20.2832" height="19.9316" viewBox="0 0 20.2832 19.9316">
 <g>
  <rect height="19.9316" opacity="0" width="20.2832" x="0" y="0"/>
  <path d="M9.96094 19.9219C15.4102 19.9219 19.9219 15.4004 19.9219 9.96094C19.9219 4.51172 15.4004 0 9.95117 0C4.51172 0 0 4.51172 0 9.96094C0 15.4004 4.52148 19.9219 9.96094 19.9219Z" fill="var(--color-tertiary)"/>
  <path d="M4.15039 10.8203L4.19922 7.29492C4.19922 7.11914 4.27734 6.92383 4.39453 6.80664C4.6582 6.5332 5.03906 6.5332 5.3125 6.80664C5.43945 6.93359 5.50781 7.09961 5.49805 7.27539L5.47852 8.76953L5.45898 9.30664L5.77148 8.96484L10.3809 4.35547C10.6543 4.0918 11.0449 4.0918 11.3086 4.35547C11.582 4.62891 11.5723 5.01953 11.3086 5.2832L6.70898 9.89258L6.34766 10.2148L6.91406 10.1953L8.39844 10.1758C8.57422 10.1758 8.73047 10.2344 8.86719 10.3711C9.13086 10.6348 9.13086 11.0059 8.85742 11.2695C8.74023 11.3867 8.57422 11.4648 8.38867 11.4746L4.84375 11.5137C4.48242 11.5234 4.15039 11.2012 4.15039 10.8203ZM15.7715 9.11133L15.7324 12.6562C15.7227 12.8418 15.6641 13.0273 15.5469 13.1348C15.2734 13.3984 14.8926 13.3984 14.6289 13.1348C14.502 12.998 14.4434 12.8418 14.4434 12.666L14.4629 11.1719L14.502 10.6152L14.1699 10.9766L9.55078 15.5762C9.28711 15.8496 8.89648 15.8398 8.63281 15.5762C8.35938 15.3027 8.35938 14.9219 8.62305 14.6582L13.2422 10.0391L13.5938 9.72656L13.0371 9.74609L11.5332 9.77539C11.3574 9.77539 11.2109 9.70703 11.0742 9.58008C10.8008 9.31641 10.8008 8.94531 11.084 8.66211C11.2012 8.55469 11.3965 8.4668 11.5527 8.4668L15.0977 8.4375C15.4688 8.4375 15.7715 8.7207 15.7715 9.11133Z" fill="var(--color-primary)"/>
 </g>
</svg>
