<?xml version="1.0" encoding="UTF-8"?>
<!--Generator: Apple Native CoreSVG 232.5-->
<!DOCTYPE svg
PUBLIC "-//W3C//DTD SVG 1.1//EN"
       "http://www.w3.org/Graphics/SVG/1.1/DTD/svg11.dtd">
<svg version="1.1" xmlns="http://www.w3.org/2000/svg" xmlns:xlink="http://www.w3.org/1999/xlink" width="20.2832" height="19.9316">
 <g>
  <rect height="19.9316" opacity="0" width="20.2832" x="0" y="0"/>
  <path d="M9.96094 19.9219C15.4102 19.9219 19.9219 15.4004 19.9219 9.96094C19.9219 4.51172 15.4004 0 9.95117 0C4.51172 0 0 4.51172 0 9.96094C0 15.4004 4.52148 19.9219 9.96094 19.9219ZM9.96094 18.2617C5.35156 18.2617 1.66992 14.5703 1.66992 9.96094C1.66992 5.35156 5.3418 1.66016 9.95117 1.66016C14.5605 1.66016 18.2617 5.35156 18.2617 9.96094C18.2617 14.5703 14.5703 18.2617 9.96094 18.2617Z" fill="#ffffff" fill-opacity="0.85"/>
  <path d="M5.63477 9.83398L9.02344 9.83398C9.53125 9.83398 9.82422 9.60938 9.82422 9.02344L9.82422 5.625C9.82422 5.24414 9.52148 4.94141 9.14062 4.94141C8.75977 4.94141 8.44727 5.24414 8.44727 5.625L8.44727 6.10352L8.55469 7.64648L6.00586 5C5.72266 4.69727 5.25391 4.69727 4.9707 4.99023C4.6875 5.27344 4.69727 5.74219 4.98047 6.02539L7.61719 8.55469L6.12305 8.45703L5.63477 8.45703C5.25391 8.45703 4.95117 8.75977 4.95117 9.14062C4.95117 9.52148 5.25391 9.83398 5.63477 9.83398ZM10.7617 14.9707C11.1426 14.9707 11.4453 14.668 11.4453 14.2871L11.4453 13.8086L11.3477 12.2656L13.8965 14.9121C14.1797 15.2148 14.6484 15.2148 14.9316 14.9219C15.2148 14.6387 15.2051 14.1602 14.9219 13.8867L12.2852 11.3574L13.7793 11.4551L14.2578 11.4551C14.6387 11.4551 14.9512 11.1523 14.9512 10.7715C14.9512 10.3809 14.6387 10.0781 14.2578 10.0781L10.8789 10.0781C10.3711 10.0781 10.0684 10.3027 10.0684 10.8789L10.0684 14.2871C10.0684 14.668 10.3809 14.9707 10.7617 14.9707Z" fill="#ffffff" fill-opacity="0.85"/>
 </g>
</svg>
