<svg version="1.1" xmlns="http://www.w3.org/2000/svg" xmlns:xlink="http://www.w3.org/1999/xlink" width="22.5098" height="20.3613" viewBox="0 0 22.5098 20.3613">
 <g>
  <rect height="20.3613" opacity="0" width="22.5098" x="0" y="0"/>
  <path d="M3.86719 20.3613C5.03906 20.3613 7.95898 19.082 9.61914 17.8906C9.78516 17.7734 9.92188 17.7246 10.0586 17.7246C10.1855 17.7344 10.3125 17.7441 10.4395 17.7441C17.4805 17.7441 22.1484 13.7402 22.1484 8.87695C22.1484 3.96484 17.2266 0 11.0742 0C4.92188 0 0 3.96484 0 8.87695C0 12.002 1.92383 14.7461 5.05859 16.4258C5.20508 16.5039 5.25391 16.6504 5.17578 16.7969C4.62891 17.6953 3.65234 18.7695 3.28125 19.2578C2.90039 19.7461 3.11523 20.3613 3.86719 20.3613Z" fill="var(--color-tertiary)"/>
  <path d="M11.084 3.83789C11.5332 3.83789 11.8457 4.16016 11.8457 4.59961L11.8457 9.61914L11.7578 11.7578L12.7832 10.5371L13.9648 9.3457C14.1016 9.18945 14.2871 9.12109 14.502 9.12109C14.9219 9.12109 15.2441 9.43359 15.2441 9.85352C15.2441 10.0586 15.166 10.2344 15.0293 10.3711L11.6797 13.7207C11.4844 13.916 11.3184 14.0039 11.084 14.0039C10.8691 14.0039 10.7031 13.9258 10.498 13.7207L7.13867 10.3711C7.00195 10.2344 6.94336 10.0586 6.94336 9.85352C6.94336 9.43359 7.25586 9.12109 7.67578 9.12109C7.88086 9.12109 8.07617 9.19922 8.21289 9.3457L9.4043 10.5371L10.4102 11.748L10.3223 9.61914L10.3223 4.59961C10.3223 4.16016 10.6445 3.83789 11.084 3.83789Z" fill="var(--color-primary)"/>
 </g>
</svg>
