<svg version="1.1" xmlns="http://www.w3.org/2000/svg" xmlns:xlink="http://www.w3.org/1999/xlink" width="18.3398" height="17.998" viewBox="0 0 18.3398 17.998">
 <g>
  <rect height="17.998" opacity="0" width="18.3398" x="0" y="0"/>
  <path d="M3.06641 17.998L14.9121 17.998C16.9629 17.998 17.9785 16.9824 17.9785 14.9707L17.9785 3.04688C17.9785 1.03516 16.9629 0.0195312 14.9121 0.0195312L3.06641 0.0195312C1.02539 0.0195312 0 1.02539 0 3.04688L0 14.9707C0 16.9922 1.02539 17.998 3.06641 17.998ZM3.08594 16.4258C2.10938 16.4258 1.57227 15.9082 1.57227 14.8926L1.57227 3.125C1.57227 2.10938 2.10938 1.5918 3.08594 1.5918L14.8926 1.5918C15.8594 1.5918 16.4062 2.10938 16.4062 3.125L16.4062 14.8926C16.4062 15.9082 15.8594 16.4258 14.8926 16.4258Z" fill="currentColor"/>
  <path d="M4.63867 9.44336C4.63867 11.8848 6.58203 13.8379 8.99414 13.8379C11.4062 13.8379 13.3496 11.8848 13.3496 9.47266C13.3496 9.11133 13.0371 8.80859 12.6758 8.80859C12.3145 8.80859 12.002 9.11133 12.002 9.47266C12.002 11.1426 10.6641 12.4902 8.99414 12.4902C7.32422 12.4902 5.98633 11.1523 5.98633 9.47266C5.98633 7.80273 7.32422 6.46484 8.99414 6.46484C9.12109 6.46484 9.25781 6.47461 9.35547 6.49414L8.39844 7.42188C8.28125 7.54883 8.21289 7.69531 8.21289 7.88086C8.21289 8.22266 8.48633 8.48633 8.82812 8.48633C8.99414 8.48633 9.15039 8.4082 9.25781 8.31055L11.1523 6.41602C11.3965 6.18164 11.377 5.74219 11.1523 5.50781L9.27734 3.60352C9.16992 3.48633 9.00391 3.4082 8.82812 3.4082C8.48633 3.4082 8.21289 3.68164 8.21289 4.0332C8.21289 4.19922 8.28125 4.36523 8.38867 4.47266L9.08203 5.17578C9.00391 5.17578 8.89648 5.15625 8.80859 5.15625C6.61133 5.15625 4.63867 7.04102 4.63867 9.44336Z" fill="currentColor"/>
 </g>
</svg>
