<?xml version="1.0" encoding="UTF-8"?>
<!--Generator: Apple Native CoreSVG 232.5-->
<!DOCTYPE svg
PUBLIC "-//W3C//DTD SVG 1.1//EN"
       "http://www.w3.org/Graphics/SVG/1.1/DTD/svg11.dtd">
<svg version="1.1" xmlns="http://www.w3.org/2000/svg" xmlns:xlink="http://www.w3.org/1999/xlink" width="20.332" height="24.5996">
 <g>
  <rect height="24.5996" opacity="0" width="20.332" x="0" y="0"/>
  <path d="M19.9707 3.06641L19.9707 16.6309C19.9707 18.6621 18.9551 19.6973 16.9434 19.6973L15.2344 19.6973L15.2344 7.93945C15.2344 5.89844 14.2285 4.87305 12.207 4.87305L4.73633 4.87305L4.73633 3.06641C4.73633 1.02539 5.74219 0 7.76367 0L16.9434 0C18.9551 0 19.9707 1.02539 19.9707 3.06641ZM9.9707 1.99219C9.54102 1.99219 9.3457 2.26562 9.3457 2.56836L9.3457 2.77344C9.3457 3.06641 9.54102 3.34961 9.9707 3.34961L14.7363 3.34961C15.1562 3.34961 15.3613 3.06641 15.3613 2.77344L15.3613 2.56836C15.3613 2.26562 15.1562 1.99219 14.7363 1.99219Z" fill="#ffffff" fill-opacity="0.55"/>
  <path d="M0 21.5039C0 23.5449 1.00586 24.5703 3.02734 24.5703L12.207 24.5703C14.2285 24.5703 15.2344 23.5352 15.2344 21.5039L15.2344 7.93945C15.2344 5.89844 14.2285 4.87305 12.207 4.87305L3.02734 4.87305C1.00586 4.87305 0 5.88867 0 7.93945ZM1.57227 21.4746L1.57227 7.95898C1.57227 6.99219 2.08984 6.44531 3.0957 6.44531L12.1289 6.44531C13.1348 6.44531 13.6621 6.99219 13.6621 7.95898L13.6621 21.4746C13.6621 22.4512 13.1348 22.998 12.1289 22.998L3.0957 22.998C2.08984 22.998 1.57227 22.4512 1.57227 21.4746Z" fill="#ffffff" fill-opacity="0.85"/>
  <path d="M3.34961 14.707C3.34961 15.0684 3.60352 15.332 3.95508 15.332L8.18359 15.332L9.94141 15.2637L8.91602 16.1328L7.95898 17.0703C7.8418 17.1875 7.77344 17.334 7.77344 17.5098C7.77344 17.8418 8.02734 18.1152 8.36914 18.1152C8.53516 18.1152 8.68164 18.0469 8.78906 17.9395L11.5234 15.1953C11.6797 15.0391 11.7676 14.9023 11.7676 14.707C11.7676 14.541 11.6895 14.4043 11.5234 14.2383L8.78906 11.4844C8.68164 11.377 8.53516 11.3184 8.36914 11.3184C8.02734 11.3184 7.77344 11.582 7.77344 11.9141C7.77344 12.0898 7.85156 12.2363 7.95898 12.3535L8.91602 13.3008L9.93164 14.1602L8.18359 14.1016L3.95508 14.1016C3.60352 14.1016 3.34961 14.3457 3.34961 14.707Z" fill="#ffffff" fill-opacity="0.85"/>
 </g>
</svg>
