<?xml version="1.0" encoding="UTF-8"?>
<!--Generator: Apple Native CoreSVG 232.5-->
<!DOCTYPE svg
PUBLIC "-//W3C//DTD SVG 1.1//EN"
       "http://www.w3.org/Graphics/SVG/1.1/DTD/svg11.dtd">
<svg version="1.1" xmlns="http://www.w3.org/2000/svg" xmlns:xlink="http://www.w3.org/1999/xlink" width="18.3398" height="17.998">
 <g>
  <rect height="17.998" opacity="0" width="18.3398" x="0" y="0"/>
  <path d="M3.06641 17.998L14.9121 17.998C16.9629 17.998 17.9785 16.9824 17.9785 14.9707L17.9785 3.04688C17.9785 1.03516 16.9629 0.0195312 14.9121 0.0195312L3.06641 0.0195312C1.02539 0.0195312 0 1.02539 0 3.04688L0 14.9707C0 16.9922 1.02539 17.998 3.06641 17.998Z" fill="#ffffff" fill-opacity="0.25"/>
  <path d="M8.98438 14.7363C8.57422 14.7363 8.30078 14.4434 8.30078 14.0527L8.30078 9.44336L8.41797 7.58789L6.58203 9.64844L6.01562 10.2734C5.88867 10.4199 5.73242 10.4785 5.52734 10.4785C5.13672 10.4785 4.87305 10.1953 4.87305 9.80469C4.87305 9.64844 4.95117 9.43359 5.07812 9.30664L8.47656 5.83984C8.62305 5.67383 8.79883 5.60547 8.98438 5.60547C9.17969 5.60547 9.3457 5.69336 9.49219 5.83984L12.9004 9.29688C13.0664 9.45312 13.125 9.62891 13.125 9.80469C13.125 10.1758 12.8516 10.4785 12.4805 10.4785C12.2949 10.4785 12.1094 10.4199 11.9824 10.2734L11.3574 9.63867L9.55078 7.59766L9.6582 9.44336L9.6582 14.0527C9.6582 14.4434 9.375 14.7363 8.98438 14.7363ZM5.21484 4.83398C4.82422 4.83398 4.55078 4.55078 4.55078 4.16992C4.55078 3.75977 4.82422 3.47656 5.21484 3.47656L12.7832 3.47656C13.1738 3.47656 13.4473 3.75977 13.4473 4.16992C13.4473 4.55078 13.1738 4.83398 12.7832 4.83398Z" fill="#ffffff" fill-opacity="0.85"/>
 </g>
</svg>
