<svg version="1.1" xmlns="http://www.w3.org/2000/svg" xmlns:xlink="http://www.w3.org/1999/xlink" width="24.043" height="17.9395" viewBox="0 0 24.043 17.9395">
 <g>
  <rect height="17.9395" opacity="0" width="24.043" x="0" y="0"/>
  <path d="M2.54883 17.8613L8.4375 17.8613C10.127 17.8613 10.8496 17.1582 10.8496 15.498L10.8496 13.2715L13.3594 13.2715L13.3594 16.7773C13.3594 17.4316 13.8379 17.9199 14.502 17.9199C14.9805 17.9199 15.3711 17.7246 15.8398 17.2852L23.5449 10.0098C23.9258 9.6582 24.043 9.28711 24.043 8.96484C24.043 8.63281 23.9258 8.26172 23.5449 7.91016L15.8398 0.703125C15.3223 0.214844 15 0 14.5215 0C13.8379 0 13.3594 0.546875 13.3594 1.20117L13.3594 4.99023L7.02148 4.99023C5.33203 4.99023 4.60938 5.69336 4.60938 7.35352L4.60938 9.39453L2.54883 9.39453C0.859375 9.39453 0.136719 10.0879 0.136719 11.748L0.136719 15.498C0.136719 17.1582 0.859375 17.8613 2.54883 17.8613ZM2.66602 16.3281C2.02148 16.3281 1.70898 15.9766 1.70898 15.2637L1.70898 11.9824C1.70898 11.2695 2.02148 10.9277 2.66602 10.9277L4.62891 10.9277L4.62891 11.3965C4.62891 11.9922 4.81445 12.4219 5.36133 12.7637L9.27734 15.1562L9.27734 15.2637C9.27734 15.9766 8.96484 16.3281 8.32031 16.3281ZM15.0684 15.8203C14.9805 15.8203 14.9316 15.7617 14.9316 15.6738L14.9316 11.8945C14.9316 11.6699 14.8242 11.5723 14.5996 11.5723L7.13867 11.5723C6.49414 11.5723 6.18164 11.2207 6.18164 10.5078L6.18164 7.43164C6.18164 6.70898 6.49414 6.36719 7.13867 6.36719L14.5996 6.36719C14.8242 6.36719 14.9316 6.26953 14.9316 6.04492L14.9316 2.16797C14.9316 2.08984 14.9805 2.03125 15.0684 2.03125C15.127 2.03125 15.1855 2.07031 15.2344 2.10938L22.1875 8.7793C22.2656 8.84766 22.2949 8.90625 22.2949 8.96484C22.2949 9.02344 22.2656 9.07227 22.1875 9.15039L15.2344 15.7324C15.1758 15.791 15.1172 15.8203 15.0684 15.8203Z" fill="var(--color-primary)"/>
 </g>
</svg>
