<svg version="1.1" xmlns="http://www.w3.org/2000/svg" xmlns:xlink="http://www.w3.org/1999/xlink" width="27.0312" height="20.4395" viewBox="0 0 27.0312 20.4395">
 <g>
  <rect height="20.4395" opacity="0" width="27.0312" x="0" y="0"/>
  <path d="M9.36523 11.377C10.3223 10.7812 10.3516 9.67773 9.36523 9.08203L1.96289 4.55078C1.02539 3.97461 0 4.4043 0 5.56641L0 14.8828C0 16.0742 1.04492 16.4746 1.96289 15.9082ZM8.32031 10.4297L1.76758 14.4922C1.65039 14.5605 1.41602 14.5703 1.41602 14.3262L1.41602 6.13281C1.41602 5.86914 1.66992 5.89844 1.76758 5.9668L8.31055 10.0195C8.55469 10.1758 8.4668 10.3418 8.32031 10.4297ZM13.3301 20.4395C13.7109 20.4395 14.0527 20.1367 14.0527 19.7559L14.0527 0.693359C14.0527 0.3125 13.7109 0.0195312 13.3301 0.0195312C12.9492 0.0195312 12.6172 0.3125 12.6172 0.693359L12.6172 19.7559C12.6172 20.1367 12.9492 20.4395 13.3301 20.4395ZM24.6973 15.9082C25.625 16.4746 26.6699 16.0742 26.6699 14.8828L26.6699 5.56641C26.6699 4.4043 25.6445 3.97461 24.6973 4.55078L17.2949 9.08203C16.3184 9.67773 16.3379 10.7812 17.2949 11.377ZM24.8926 14.4922L18.3496 10.4297C18.1934 10.3418 18.1152 10.1758 18.3496 10.0195L24.8926 5.9668C25 5.89844 25.2441 5.86914 25.2441 6.13281L25.2441 14.3262C25.2441 14.5703 25.0195 14.5605 24.8926 14.4922Z" fill="var(--color-primary)"/>
 </g>
</svg>
