<svg version="1.1" xmlns="http://www.w3.org/2000/svg" xmlns:xlink="http://www.w3.org/1999/xlink" width="30.0879" height="18.5645" viewBox="0 0 30.0879 18.5645">
 <g>
  <rect height="18.5645" opacity="0" width="30.0879" x="0" y="0"/>
  <path d="M14.8633 18.5645C15.3711 18.5645 15.7324 18.2031 15.7324 17.6953L15.7324 0.849609C15.7324 0.351562 15.3711 0 14.8633 0C14.3555 0 13.9844 0.351562 13.9844 0.849609L13.9844 17.6953C13.9844 18.2031 14.3555 18.5645 14.8633 18.5645Z" fill="var(--color-secondary)"/>
  <path d="M0 9.27734C0 9.78516 0.351562 10.1562 0.859375 10.1562L7.51953 10.1562L9.46289 10.0879L6.24023 13.2031C6.07422 13.3594 5.99609 13.5938 5.99609 13.8281C5.99609 14.3164 6.36719 14.6777 6.85547 14.6777C7.09961 14.6777 7.31445 14.5801 7.50977 14.3848L11.9727 9.93164C12.1582 9.74609 12.2754 9.52148 12.2754 9.27734C12.2754 9.0332 12.1582 8.80859 11.9727 8.62305L7.50977 4.16992C7.31445 3.97461 7.09961 3.87695 6.85547 3.87695C6.36719 3.87695 5.99609 4.23828 5.99609 4.72656C5.99609 4.96094 6.07422 5.19531 6.24023 5.35156L9.46289 8.4668L7.51953 8.4082L0.859375 8.4082C0.351562 8.4082 0 8.76953 0 9.27734ZM29.7266 9.27734C29.7266 8.76953 29.3652 8.4082 28.8574 8.4082L22.207 8.4082L20.2539 8.4668L23.4766 5.35156C23.6426 5.19531 23.7207 4.96094 23.7207 4.72656C23.7207 4.23828 23.3496 3.87695 22.8711 3.87695C22.627 3.87695 22.4023 3.97461 22.207 4.16992L17.7441 8.62305C17.5586 8.80859 17.4512 9.0332 17.4512 9.27734C17.4512 9.52148 17.5586 9.74609 17.7441 9.93164L22.207 14.3848C22.4023 14.5801 22.627 14.6777 22.8711 14.6777C23.3496 14.6777 23.7207 14.3164 23.7207 13.8281C23.7207 13.5938 23.6426 13.3594 23.4766 13.2031L20.2539 10.0879L22.207 10.1562L28.8574 10.1562C29.3652 10.1562 29.7266 9.78516 29.7266 9.27734Z" fill="var(--color-primary)"/>
 </g>
</svg>
