<svg version="1.1" xmlns="http://www.w3.org/2000/svg" xmlns:xlink="http://www.w3.org/1999/xlink" width="17.6172" height="23.3691" viewBox="0 0 17.6172 23.3691">
 <g>
  <rect height="23.3691" opacity="0" width="17.6172" x="0" y="0"/>
  <path d="M0 12.3828C0 17.1777 3.84766 21.0254 8.63281 21.0254C13.418 21.0254 17.2559 17.1777 17.2559 12.3828C17.2559 7.59766 13.418 3.75977 8.63281 3.75977C8.02734 3.75977 7.45117 3.82812 6.94336 3.92578L9.54102 1.35742C9.6875 1.20117 9.75586 1.00586 9.75586 0.800781C9.75586 0.351562 9.42383 0 8.99414 0C8.75 0 8.55469 0.078125 8.41797 0.234375L4.39453 4.31641C4.23828 4.47266 4.15039 4.6875 4.15039 4.90234C4.15039 5.12695 4.22852 5.32227 4.39453 5.48828L8.41797 9.53125C8.56445 9.67773 8.75 9.75586 8.98438 9.75586C9.42383 9.75586 9.75586 9.42383 9.75586 8.97461C9.75586 8.76953 9.6875 8.57422 9.53125 8.41797L6.62109 5.52734C7.1875 5.39062 7.88086 5.33203 8.63281 5.33203C12.5488 5.33203 15.6836 8.4668 15.6836 12.3828C15.6836 16.3086 12.5488 19.4531 8.63281 19.4531C4.7168 19.4531 1.57227 16.3086 1.57227 12.3828C1.57227 11.9141 1.2793 11.5723 0.810547 11.5723C0.332031 11.5723 0 11.9141 0 12.3828Z" fill="var(--color-primary)"/>
 </g>
</svg>
