<?xml version="1.0" encoding="UTF-8"?>
<!--Generator: Apple Native CoreSVG 232.5-->
<!DOCTYPE svg
PUBLIC "-//W3C//DTD SVG 1.1//EN"
       "http://www.w3.org/Graphics/SVG/1.1/DTD/svg11.dtd">
<svg version="1.1" xmlns="http://www.w3.org/2000/svg" xmlns:xlink="http://www.w3.org/1999/xlink" width="20.2832" height="19.9316">
 <g>
  <rect height="19.9316" opacity="0" width="20.2832" x="0" y="0"/>
  <path d="M9.96094 19.9219C15.4102 19.9219 19.9219 15.4004 19.9219 9.96094C19.9219 4.51172 15.4004 0 9.95117 0C4.51172 0 0 4.51172 0 9.96094C0 15.4004 4.52148 19.9219 9.96094 19.9219ZM9.96094 18.2617C5.35156 18.2617 1.66992 14.5703 1.66992 9.96094C1.66992 5.35156 5.3418 1.66016 9.95117 1.66016C14.5605 1.66016 18.2617 5.35156 18.2617 9.96094C18.2617 14.5703 14.5703 18.2617 9.96094 18.2617Z" fill="#ffffff" fill-opacity="0.85"/>
  <path d="M5.84961 14.2676C6.2207 14.2676 6.49414 14.0039 6.49414 13.623L6.49414 6.28906C6.49414 5.9082 6.2207 5.64453 5.84961 5.64453C5.46875 5.64453 5.18555 5.9082 5.18555 6.28906L5.18555 13.623C5.18555 14.0039 5.46875 14.2676 5.84961 14.2676ZM16.0938 9.9707C16.0938 9.58984 15.8105 9.31641 15.4395 9.31641L10.957 9.31641L9.16992 9.42383L11.1523 7.66602L11.7676 7.06055C11.9043 6.93359 11.9629 6.75781 11.9629 6.58203C11.9629 6.21094 11.6797 5.95703 11.3184 5.95703C11.1426 5.95703 10.9766 6.01562 10.8398 6.16211L7.4707 9.47266C7.32422 9.61914 7.24609 9.78516 7.24609 9.9707C7.24609 10.1465 7.31445 10.3223 7.4707 10.459L10.8301 13.7402C10.957 13.8672 11.1621 13.9551 11.3281 13.9551C11.6992 13.9551 11.9629 13.7012 11.9629 13.3203C11.9629 13.125 11.9043 12.9688 11.7676 12.8516L11.1426 12.2754L9.16016 10.5176L10.957 10.625L15.4395 10.625C15.8105 10.625 16.0938 10.3613 16.0938 9.9707Z" fill="#ffffff" fill-opacity="0.85"/>
 </g>
</svg>
