<svg version="1.1" xmlns="http://www.w3.org/2000/svg" xmlns:xlink="http://www.w3.org/1999/xlink" width="20.2832" height="19.9316" viewBox="0 0 20.2832 19.9316">
 <g>
  <rect height="19.9316" opacity="0" width="20.2832" x="0" y="0"/>
  <path d="M9.96094 19.9219C15.4102 19.9219 19.9219 15.4004 19.9219 9.96094C19.9219 4.51172 15.4004 0 9.95117 0C4.51172 0 0 4.51172 0 9.96094C0 15.4004 4.52148 19.9219 9.96094 19.9219Z" fill="var(--color-tertiary)"/>
  <path d="M4.79492 9.95117C4.79492 9.72656 4.87305 9.57031 5.07812 9.36523L8.47656 5.94727C8.61328 5.81055 8.78906 5.74219 9.00391 5.74219C9.42383 5.74219 9.73633 6.05469 9.73633 6.47461C9.73633 6.68945 9.63867 6.875 9.51172 7.02148L8.26172 8.26172L7.05078 9.27734L9.17969 9.18945L14.4043 9.18945C14.8438 9.18945 15.166 9.50195 15.166 9.95117C15.166 10.3906 14.8535 10.7031 14.4043 10.7031L9.17969 10.7031L7.04102 10.625L8.26172 11.6406L9.51172 12.8809C9.64844 13.0176 9.73633 13.2031 9.73633 13.418C9.73633 13.8379 9.42383 14.1602 9.00391 14.1602C8.78906 14.1602 8.61328 14.082 8.47656 13.9453L5.07812 10.5371C4.89258 10.3516 4.79492 10.1758 4.79492 9.95117Z" fill="var(--color-primary)"/>
 </g>
</svg>
