<?xml version="1.0" encoding="UTF-8"?>
<!--Generator: Apple Native CoreSVG 232.5-->
<!DOCTYPE svg
PUBLIC "-//W3C//DTD SVG 1.1//EN"
       "http://www.w3.org/Graphics/SVG/1.1/DTD/svg11.dtd">
<svg version="1.1" xmlns="http://www.w3.org/2000/svg" xmlns:xlink="http://www.w3.org/1999/xlink" width="20.2832" height="19.9316">
 <g>
  <rect height="19.9316" opacity="0" width="20.2832" x="0" y="0"/>
  <path d="M9.96094 19.9219C15.4102 19.9219 19.9219 15.4004 19.9219 9.96094C19.9219 4.51172 15.4004 0 9.95117 0C4.51172 0 0 4.51172 0 9.96094C0 15.4004 4.52148 19.9219 9.96094 19.9219ZM9.96094 18.2617C5.35156 18.2617 1.66992 14.5703 1.66992 9.96094C1.66992 5.35156 5.3418 1.66016 9.95117 1.66016C14.5605 1.66016 18.2617 5.35156 18.2617 9.96094C18.2617 14.5703 14.5703 18.2617 9.96094 18.2617Z" fill="#ffffff" fill-opacity="0.55"/>
  <path d="M3.98438 9.96094C3.98438 10.127 4.05273 10.332 4.25781 10.5273L8.45703 14.4922C8.71094 14.7168 8.91602 14.8242 9.17969 14.8242C9.53125 14.8242 9.79492 14.5703 9.79492 14.209L9.79492 12.0508L14.2188 12.0508C14.9902 12.0508 15.4395 11.6211 15.4395 10.8691L15.4395 9.0625C15.4395 8.30078 14.9902 7.87109 14.2188 7.87109L9.79492 7.87109L9.79492 5.73242C9.79492 5.38086 9.53125 5.09766 9.16016 5.09766C8.90625 5.09766 8.74023 5.20508 8.45703 5.46875L4.25781 9.38477C4.05273 9.58008 3.98438 9.78516 3.98438 9.96094Z" fill="#ffffff" fill-opacity="0.85"/>
 </g>
</svg>
