<?xml version="1.0" encoding="UTF-8"?>
<!--Generator: Apple Native CoreSVG 232.5-->
<!DOCTYPE svg
PUBLIC "-//W3C//DTD SVG 1.1//EN"
       "http://www.w3.org/Graphics/SVG/1.1/DTD/svg11.dtd">
<svg version="1.1" xmlns="http://www.w3.org/2000/svg" xmlns:xlink="http://www.w3.org/1999/xlink" width="20.2832" height="19.9316">
 <g>
  <rect height="19.9316" opacity="0" width="20.2832" x="0" y="0"/>
  <path d="M9.96094 19.9219C15.4102 19.9219 19.9219 15.4004 19.9219 9.96094C19.9219 4.51172 15.4004 0 9.95117 0C4.51172 0 0 4.51172 0 9.96094C0 15.4004 4.52148 19.9219 9.96094 19.9219ZM9.96094 18.2617C5.35156 18.2617 1.66992 14.5703 1.66992 9.96094C1.66992 5.35156 5.3418 1.66016 9.95117 1.66016C14.5605 1.66016 18.2617 5.35156 18.2617 9.96094C18.2617 14.5703 14.5703 18.2617 9.96094 18.2617Z" fill="#ffffff" fill-opacity="0.55"/>
  <path d="M10.8691 4.94141C8.51562 4.94141 7.09961 6.63086 7.09961 8.91602L7.09961 11.8262L7.12891 12.9883L6.52344 12.2168L5.54688 11.2012C5.41992 11.0742 5.24414 10.9863 5.03906 10.9863C4.63867 10.9863 4.32617 11.2891 4.32617 11.6797C4.32617 11.8848 4.39453 12.0508 4.54102 12.1875L7.17773 14.7754C7.34375 14.9414 7.54883 15.0391 7.77344 15.0391C8.00781 15.0391 8.20312 14.9414 8.36914 14.7754L11.0254 12.1777C11.1621 12.041 11.2305 11.875 11.2305 11.6699C11.2305 11.2891 10.9277 10.9863 10.5176 10.9863C10.332 10.9863 10.1465 11.0547 10.0195 11.1914L8.83789 12.4219L8.41797 12.9883L8.4668 11.8262L8.4668 8.91602C8.4668 7.48047 9.28711 6.37695 10.791 6.37695C12.334 6.37695 13.2812 7.45117 13.2812 8.92578C13.2812 9.04297 13.2812 10.2441 13.2812 10.2832C13.2812 10.6934 13.5254 11.0156 13.9746 11.0156C14.4336 11.0156 14.6777 10.6934 14.6777 10.2637C14.6777 10.2148 14.6777 9.04297 14.6777 8.92578C14.6777 6.64062 13.2129 4.94141 10.8691 4.94141Z" fill="#ffffff" fill-opacity="0.85"/>
 </g>
</svg>
