<?xml version="1.0" encoding="UTF-8"?>
<!--Generator: Apple Native CoreSVG 232.5-->
<!DOCTYPE svg
PUBLIC "-//W3C//DTD SVG 1.1//EN"
       "http://www.w3.org/Graphics/SVG/1.1/DTD/svg11.dtd">
<svg version="1.1" xmlns="http://www.w3.org/2000/svg" xmlns:xlink="http://www.w3.org/1999/xlink" width="18.3398" height="17.998">
 <g>
  <rect height="17.998" opacity="0" width="18.3398" x="0" y="0"/>
  <path d="M3.06641 17.998L14.9121 17.998C16.9629 17.998 17.9785 16.9824 17.9785 14.9707L17.9785 3.04688C17.9785 1.03516 16.9629 0.0195312 14.9121 0.0195312L3.06641 0.0195312C1.02539 0.0195312 0 1.02539 0 3.04688L0 14.9707C0 16.9922 1.02539 17.998 3.06641 17.998ZM3.08594 16.4258C2.10938 16.4258 1.57227 15.9082 1.57227 14.8926L1.57227 3.125C1.57227 2.10938 2.10938 1.5918 3.08594 1.5918L14.8926 1.5918C15.8594 1.5918 16.4062 2.10938 16.4062 3.125L16.4062 14.8926C16.4062 15.9082 15.8594 16.4258 14.8926 16.4258Z" fill="#ffffff" fill-opacity="0.55"/>
  <path d="M13.2129 8.98438C13.5938 8.98438 13.9062 8.68164 13.9062 8.30078L13.9062 4.90234C13.9062 4.31641 13.6035 4.0918 13.0957 4.0918L9.7168 4.0918C9.33594 4.0918 9.02344 4.4043 9.02344 4.78516C9.02344 5.16602 9.33594 5.46875 9.7168 5.46875L10.1953 5.46875L11.6895 5.37109L9.48242 7.4707C9.19922 7.74414 9.18945 8.22266 9.47266 8.50586C9.76562 8.79883 10.2246 8.80859 10.5176 8.49609L12.627 6.2793L12.5293 7.82227L12.5293 8.30078C12.5293 8.68164 12.832 8.98438 13.2129 8.98438ZM8.28125 13.916C8.66211 13.916 8.96484 13.6035 8.96484 13.2227C8.96484 12.8418 8.66211 12.5391 8.28125 12.5391L7.80273 12.5391L6.30859 12.6367L8.50586 10.5371C8.78906 10.2637 8.79883 9.78516 8.51562 9.50195C8.23242 9.20898 7.76367 9.19922 7.48047 9.51172L5.37109 11.7285L5.46875 10.1855L5.46875 9.70703C5.46875 9.32617 5.15625 9.02344 4.77539 9.02344C4.39453 9.02344 4.0918 9.32617 4.0918 9.70703L4.0918 13.1055C4.0918 13.6914 4.38477 13.916 4.89258 13.916Z" fill="#ffffff" fill-opacity="0.85"/>
 </g>
</svg>
