<svg version="1.1" xmlns="http://www.w3.org/2000/svg" xmlns:xlink="http://www.w3.org/1999/xlink" width="20.2832" height="20.166" viewBox="0 0 20.2832 20.166">
 <g>
  <rect height="20.166" opacity="0" width="20.2832" x="0" y="0"/>
  <path d="M19.9219 9.96094C19.9219 15.4102 15.4102 19.9219 9.96094 19.9219C4.52148 19.9219 0 15.4102 0 9.96094C0 4.52148 4.51172 0 9.95117 0C15.4004 0 19.9219 4.52148 19.9219 9.96094ZM7.76367 4.89258L5.21484 7.48047C5.03906 7.65625 4.95117 7.88086 4.95117 8.0957C4.95117 8.32031 5.0293 8.53516 5.21484 8.71094L7.77344 11.3281C7.91016 11.4648 8.08594 11.543 8.31055 11.543C8.71094 11.543 9.02344 11.2109 9.02344 10.791C9.02344 10.5859 8.94531 10.4004 8.79883 10.2539L7.61719 9.12109L7.1582 8.78906L8.1543 8.83789L11.0059 8.83789C12.5 8.83789 13.4863 9.72656 13.4863 11.0645C13.4863 12.5 12.4805 13.457 10.9961 13.457L9.66797 13.457C9.20898 13.457 8.90625 13.7598 8.90625 14.1895C8.90625 14.6289 9.21875 14.9121 9.6875 14.9121L10.9961 14.9121C13.3594 14.9121 14.9414 13.3887 14.9414 11.0645C14.9414 8.84766 13.3691 7.38281 11.0059 7.38281L8.1543 7.38281L7.14844 7.42188L7.8125 6.9043L8.79883 5.94727C8.94531 5.81055 9.02344 5.625 9.02344 5.41992C9.02344 5 8.7207 4.66797 8.30078 4.66797C8.07617 4.66797 7.91016 4.74609 7.76367 4.89258Z" fill="var(--color-primary)"/>
 </g>
</svg>
