<?xml version="1.0" encoding="UTF-8"?>
<!--Generator: Apple Native CoreSVG 232.5-->
<!DOCTYPE svg
PUBLIC "-//W3C//DTD SVG 1.1//EN"
       "http://www.w3.org/Graphics/SVG/1.1/DTD/svg11.dtd">
<svg version="1.1" xmlns="http://www.w3.org/2000/svg" xmlns:xlink="http://www.w3.org/1999/xlink" width="20.2832" height="19.9316">
 <g>
  <rect height="19.9316" opacity="0" width="20.2832" x="0" y="0"/>
  <path d="M9.96094 19.9219C15.4102 19.9219 19.9219 15.4004 19.9219 9.96094C19.9219 4.51172 15.4004 0 9.95117 0C4.51172 0 0 4.51172 0 9.96094C0 15.4004 4.52148 19.9219 9.96094 19.9219ZM9.96094 18.2617C5.35156 18.2617 1.66992 14.5703 1.66992 9.96094C1.66992 5.35156 5.3418 1.66016 9.95117 1.66016C14.5605 1.66016 18.2617 5.35156 18.2617 9.96094C18.2617 14.5703 14.5703 18.2617 9.96094 18.2617Z" fill="#ffffff" fill-opacity="0.85"/>
  <path d="M3.91602 9.9707C3.91602 10.3613 4.18945 10.625 4.56055 10.625L9.04297 10.625L10.8398 10.5176L8.85742 12.2754L8.23242 12.8516C8.0957 12.9688 8.03711 13.125 8.03711 13.3203C8.03711 13.7012 8.31055 13.9551 8.68164 13.9551C8.83789 13.9551 9.04297 13.8672 9.17969 13.7402L12.5391 10.459C12.6855 10.3223 12.7539 10.1465 12.7539 9.9707C12.7539 9.78516 12.6758 9.61914 12.5391 9.47266L9.16992 6.16211C9.02344 6.01562 8.85742 5.95703 8.68164 5.95703C8.33008 5.95703 8.03711 6.21094 8.03711 6.58203C8.03711 6.75781 8.0957 6.93359 8.23242 7.06055L8.84766 7.66602L10.8301 9.42383L9.04297 9.31641L4.56055 9.31641C4.18945 9.31641 3.91602 9.58984 3.91602 9.9707ZM14.1504 14.2676C14.541 14.2676 14.8145 14.0039 14.8145 13.623L14.8145 6.28906C14.8145 5.9082 14.541 5.64453 14.1504 5.64453C13.7793 5.64453 13.5059 5.9082 13.5059 6.28906L13.5059 13.623C13.5059 14.0039 13.7793 14.2676 14.1504 14.2676Z" fill="#ffffff" fill-opacity="0.85"/>
 </g>
</svg>
