<?xml version="1.0" encoding="UTF-8"?>
<!--Generator: Apple Native CoreSVG 232.5-->
<!DOCTYPE svg
PUBLIC "-//W3C//DTD SVG 1.1//EN"
       "http://www.w3.org/Graphics/SVG/1.1/DTD/svg11.dtd">
<svg version="1.1" xmlns="http://www.w3.org/2000/svg" xmlns:xlink="http://www.w3.org/1999/xlink" width="19.5996" height="18.2324">
 <g>
  <rect height="18.2324" opacity="0" width="19.5996" x="0" y="0"/>
  <path d="M19.4043 6.20117C19.4043 10.3613 15.918 14.4531 10.4102 17.9688C10.1953 18.0957 9.90234 18.2324 9.69727 18.2324C9.50195 18.2324 9.19922 18.0957 8.99414 17.9688C3.48633 14.4531 0 10.3613 0 6.20117C0 2.74414 2.37305 0.302734 5.43945 0.302734C7.35352 0.302734 8.82812 1.36719 9.69727 2.96875C10.5859 1.35742 12.0508 0.302734 13.9551 0.302734C17.0312 0.302734 19.4043 2.74414 19.4043 6.20117ZM8.99414 5.69336L8.99414 6.51367C7.41211 6.74805 6.14258 8.20312 6.14258 9.89258C6.14258 11.8457 7.68555 13.4082 9.61914 13.4082C11.5527 13.4082 13.0957 11.8457 13.0957 9.91211C13.0957 9.57031 12.8125 9.28711 12.4805 9.28711C12.1387 9.28711 11.8555 9.57031 11.8555 9.91211C11.8555 11.1523 10.8594 12.1484 9.61914 12.1484C8.37891 12.1484 7.38281 11.1523 7.38281 9.91211C7.38281 8.89648 8.06641 8.04688 8.99414 7.77344L8.99414 8.74023C8.99414 9.11133 9.4043 9.25781 9.6875 9.01367L11.3184 7.60742C11.5918 7.36328 11.5918 7.04102 11.3184 6.80664L9.6875 5.41992C9.4043 5.17578 8.99414 5.3125 8.99414 5.69336Z" fill="#ffffff" fill-opacity="0.85"/>
 </g>
</svg>
