<?xml version="1.0" encoding="UTF-8"?>
<!--Generator: Apple Native CoreSVG 232.5-->
<!DOCTYPE svg
PUBLIC "-//W3C//DTD SVG 1.1//EN"
       "http://www.w3.org/Graphics/SVG/1.1/DTD/svg11.dtd">
<svg version="1.1" xmlns="http://www.w3.org/2000/svg" xmlns:xlink="http://www.w3.org/1999/xlink" width="18.3398" height="17.998">
 <g>
  <rect height="17.998" opacity="0" width="18.3398" x="0" y="0"/>
  <path d="M17.9785 3.04688L17.9785 14.9707C17.9785 16.9824 16.9629 17.998 14.9121 17.998L3.06641 17.998C1.02539 17.998 0 16.9922 0 14.9707L0 3.04688C0 1.02539 1.02539 0.0195312 3.06641 0.0195312L14.9121 0.0195312C16.9629 0.0195312 17.9785 1.03516 17.9785 3.04688ZM8.41797 4.15039L5.05859 7.5C4.92188 7.63672 4.86328 7.8125 4.86328 8.02734C4.86328 8.4375 5.17578 8.75977 5.5957 8.75977C5.81055 8.75977 5.99609 8.67188 6.13281 8.53516L7.32422 7.33398L8.33008 6.12305L8.24219 8.26172L8.24219 13.2715C8.24219 13.7207 8.56445 14.0332 9.00391 14.0332C9.45312 14.0332 9.76562 13.7207 9.76562 13.2715L9.76562 8.26172L9.67773 6.11328L10.7031 7.33398L11.8848 8.53516C12.0215 8.68164 12.207 8.75977 12.4219 8.75977C12.8418 8.75977 13.1641 8.4375 13.1641 8.02734C13.1641 7.8125 13.0957 7.63672 12.9492 7.5L9.59961 4.15039C9.4043 3.95508 9.23828 3.86719 9.00391 3.86719C8.78906 3.86719 8.62305 3.94531 8.41797 4.15039Z" fill="#ffffff" fill-opacity="0.85"/>
 </g>
</svg>
