<svg version="1.1" xmlns="http://www.w3.org/2000/svg" xmlns:xlink="http://www.w3.org/1999/xlink" width="18.3398" height="17.998" viewBox="0 0 18.3398 17.998">
 <g>
  <rect height="17.998" opacity="0" width="18.3398" x="0" y="0"/>
  <path d="M17.9785 3.04688L17.9785 14.9707C17.9785 16.9824 16.9629 17.998 14.9121 17.998L3.06641 17.998C1.02539 17.998 0 16.9922 0 14.9707L0 3.04688C0 1.02539 1.02539 0.0195312 3.06641 0.0195312L14.9121 0.0195312C16.9629 0.0195312 17.9785 1.03516 17.9785 3.04688ZM10.0488 9.51172C10.0488 9.69727 10.1172 9.85352 10.2344 9.98047L11.3086 11.0059L11.7285 11.3965L11.25 11.3672L4.72656 11.3672C4.36523 11.3672 4.08203 11.6406 4.08203 12.0215C4.08203 12.4023 4.35547 12.6855 4.72656 12.6855L11.2402 12.6855L11.7285 12.6758L11.3086 13.0371L10.2539 14.0723C10.127 14.209 10.0488 14.3555 10.0488 14.541C10.0488 14.9121 10.332 15.1855 10.6934 15.1855C10.8496 15.1855 11.0352 15.1074 11.1719 14.9805L13.6914 12.5C13.9746 12.2266 13.9551 11.8164 13.6914 11.5527L11.1719 9.07227C11.0547 8.95508 10.8691 8.87695 10.6934 8.87695C10.3125 8.87695 10.0488 9.14062 10.0488 9.51172ZM6.80664 3.04688L4.27734 5.49805C4.01367 5.76172 4.01367 6.2207 4.27734 6.47461L6.80664 8.95508C6.94336 9.0625 7.11914 9.14062 7.28516 9.14062C7.65625 9.14062 7.92969 8.87695 7.92969 8.50586C7.92969 8.32031 7.86133 8.16406 7.73438 8.03711L6.67969 7.01172L6.25977 6.62109L6.72852 6.65039L13.252 6.65039C13.623 6.65039 13.9062 6.35742 13.9062 5.98633C13.9062 5.60547 13.6328 5.33203 13.252 5.33203L6.73828 5.33203L6.26953 5.3418L6.67969 4.98047L7.73438 3.94531C7.86133 3.81836 7.92969 3.65234 7.92969 3.47656C7.92969 3.0957 7.65625 2.83203 7.28516 2.83203C7.11914 2.83203 6.93359 2.91016 6.80664 3.04688Z" fill="currentColor"/>
 </g>
</svg>
