<svg version="1.1" xmlns="http://www.w3.org/2000/svg" xmlns:xlink="http://www.w3.org/1999/xlink" width="18.3691" height="18.0176" viewBox="0 0 18.3691 18.0176">
 <g>
  <rect height="18.0176" opacity="0" width="18.3691" x="0" y="0"/>
  <path d="M16.8652 1.15234C15.8691 0.15625 14.4629 0 12.793 0L5.18555 0C3.54492 0 2.13867 0.15625 1.14258 1.15234C0.146484 2.14844 0 3.54492 0 5.18555L0 12.793C0 14.4629 0.146484 15.8594 1.14258 16.8555C2.13867 17.8516 3.54492 18.0078 5.20508 18.0078L12.793 18.0078C14.4629 18.0078 15.8691 17.8516 16.8652 16.8555C17.8613 15.8594 18.0078 14.4629 18.0078 12.793L18.0078 5.20508C18.0078 3.53516 17.8613 2.14844 16.8652 1.15234ZM16.4355 4.94141L16.4355 13.0664C16.4355 14.0723 16.3086 15.1172 15.7129 15.7031C15.127 16.2988 14.0723 16.4355 13.0664 16.4355L4.94141 16.4355C3.93555 16.4355 2.88086 16.2988 2.28516 15.7031C1.69922 15.1172 1.57227 14.0723 1.57227 13.0664L1.57227 4.9707C1.57227 3.93555 1.69922 2.89062 2.28516 2.29492C2.88086 1.70898 3.94531 1.57227 4.9707 1.57227L13.0664 1.57227C14.0723 1.57227 15.127 1.70898 15.7129 2.30469C16.3086 2.89062 16.4355 3.93555 16.4355 4.94141Z" fill="currentColor"/>
  <path d="M12.0703 11.4258C12.5 11.4258 12.7832 11.0938 12.7832 10.6445L12.7832 6.03516C12.7832 5.45898 12.4707 5.23438 11.9727 5.23438L7.33398 5.23438C6.875 5.23438 6.58203 5.51758 6.58203 5.94727C6.58203 6.37695 6.88477 6.66016 7.35352 6.66016L9.13086 6.66016L10.5762 6.50391L9.05273 7.91992L5.45898 11.5234C5.32227 11.6602 5.22461 11.8555 5.22461 12.0508C5.22461 12.4902 5.50781 12.7734 5.9375 12.7734C6.17188 12.7734 6.35742 12.6855 6.49414 12.5488L10.0879 8.95508L11.4941 7.45117L11.3477 8.97461L11.3477 10.6641C11.3477 11.123 11.6309 11.4258 12.0703 11.4258Z" fill="currentColor"/>
 </g>
</svg>
