<svg version="1.1" xmlns="http://www.w3.org/2000/svg" xmlns:xlink="http://www.w3.org/1999/xlink" width="18.3398" height="17.998" viewBox="0 0 18.3398 17.998">
 <g>
  <rect height="17.998" opacity="0" width="18.3398" x="0" y="0"/>
  <path d="M3.06641 17.998L14.9121 17.998C16.9629 17.998 17.9785 16.9824 17.9785 14.9707L17.9785 3.04688C17.9785 1.03516 16.9629 0.0195312 14.9121 0.0195312L3.06641 0.0195312C1.02539 0.0195312 0 1.02539 0 3.04688L0 14.9707C0 16.9922 1.02539 17.998 3.06641 17.998ZM3.08594 16.4258C2.10938 16.4258 1.57227 15.9082 1.57227 14.8926L1.57227 3.125C1.57227 2.10938 2.10938 1.5918 3.08594 1.5918L14.8926 1.5918C15.8594 1.5918 16.4062 2.10938 16.4062 3.125L16.4062 14.8926C16.4062 15.9082 15.8594 16.4258 14.8926 16.4258Z" fill="var(--color-primary)"/>
  <path d="M5.92773 6.57227C5.49805 6.57227 5.21484 6.89453 5.21484 7.35352L5.21484 11.9629C5.21484 12.5391 5.52734 12.7637 6.02539 12.7637L10.6543 12.7637C11.1133 12.7637 11.4062 12.4805 11.4062 12.0508C11.4062 11.6211 11.1035 11.3379 10.6348 11.3379L8.85742 11.3379L7.41211 11.4941L8.93555 10.0684L12.5391 6.47461C12.6758 6.33789 12.7734 6.14258 12.7734 5.94727C12.7734 5.50781 12.4805 5.22461 12.0508 5.22461C11.8164 5.22461 11.6406 5.3125 11.4941 5.44922L7.90039 9.04297L6.49414 10.5469L6.64062 9.02344L6.64062 7.33398C6.64062 6.86523 6.35742 6.57227 5.92773 6.57227Z" fill="var(--color-primary)"/>
 </g>
</svg>
