<?xml version="1.0" encoding="UTF-8"?>
<!--Generator: Apple Native CoreSVG 232.5-->
<!DOCTYPE svg
PUBLIC "-//W3C//DTD SVG 1.1//EN"
       "http://www.w3.org/Graphics/SVG/1.1/DTD/svg11.dtd">
<svg version="1.1" xmlns="http://www.w3.org/2000/svg" xmlns:xlink="http://www.w3.org/1999/xlink" width="18.584" height="18.5645">
 <g>
  <rect height="18.5645" opacity="0" width="18.584" x="0" y="0"/>
  <path d="M6.23047 18.5645C9.9707 18.5645 12.5391 16.0449 12.5391 11.582L12.5391 4.9707L12.4023 1.94336L11.9531 2.11914L14.0234 4.53125L16.7676 7.34375C16.9238 7.5 17.1191 7.58789 17.3633 7.58789C17.8711 7.58789 18.2227 7.23633 18.2227 6.71875C18.2227 6.50391 18.125 6.25 17.959 6.08398L12.3242 0.341797C12.1387 0.146484 11.9043 0.0585938 11.6699 0.0585938C11.4258 0.0585938 11.2012 0.146484 11.0156 0.341797L5.38086 6.08398C5.21484 6.25 5.10742 6.50391 5.10742 6.71875C5.10742 7.23633 5.46875 7.58789 5.9668 7.58789C6.2207 7.58789 6.41602 7.5 6.57227 7.34375L9.31641 4.53125L11.3867 2.11914L10.9277 1.94336L10.8008 4.9707L10.8008 11.7285C10.8008 15.0586 8.95508 16.8262 6.32812 16.8262C3.70117 16.8262 1.73828 15.0586 1.73828 11.7285L1.73828 9.48242C1.73828 8.94531 1.34766 8.59375 0.869141 8.59375C0.390625 8.59375 0 8.94531 0 9.48242L0 11.7383C0 16.1133 2.49023 18.5645 6.23047 18.5645Z" fill="#ffffff" fill-opacity="0.85"/>
 </g>
</svg>
