<svg version="1.1" xmlns="http://www.w3.org/2000/svg" xmlns:xlink="http://www.w3.org/1999/xlink" width="23.3887" height="17.9785" viewBox="0 0 23.3887 17.9785">
 <g>
  <rect height="17.9785" opacity="0" width="23.3887" x="0" y="0"/>
  <path d="M3.06641 17.9785L19.9609 17.9785C22.0117 17.9785 23.0273 16.9727 23.0273 14.9609L23.0273 3.02734C23.0273 1.01562 22.0117 0 19.9609 0L3.06641 0C1.02539 0 0 1.01562 0 3.02734L0 14.9609C0 16.9727 1.02539 17.9785 3.06641 17.9785ZM3.08594 16.4062C2.10938 16.4062 1.57227 15.8887 1.57227 14.873L1.57227 3.11523C1.57227 2.09961 2.10938 1.57227 3.08594 1.57227L19.9414 1.57227C20.9082 1.57227 21.4551 2.09961 21.4551 3.11523L21.4551 14.873C21.4551 15.8887 20.9082 16.4062 19.9414 16.4062Z" fill="var(--color-secondary)"/>
  <path d="M13.7695 14.082C14.1992 14.082 14.4824 13.7793 14.4824 13.3203L14.4824 11.7578L14.3359 10.2441L15.7422 11.748L18.6914 14.6875C18.8281 14.8242 19.0039 14.9121 19.248 14.9121C19.6777 14.9121 19.9609 14.6289 19.9609 14.1895C19.9609 13.9941 19.8633 13.7988 19.7266 13.6621L16.7773 10.7129L15.2539 9.29688L16.6992 9.45312L18.3496 9.45312C18.8086 9.45312 19.1113 9.16992 19.1113 8.74023C19.1113 8.31055 18.8184 8.02734 18.3691 8.02734L13.8672 8.02734C13.3691 8.02734 13.0566 8.25195 13.0566 8.82812L13.0566 13.3008C13.0566 13.75 13.3398 14.082 13.7695 14.082Z" fill="var(--color-primary)"/>
 </g>
</svg>
