<?xml version="1.0" encoding="UTF-8"?>
<!--Generator: Apple Native CoreSVG 232.5-->
<!DOCTYPE svg
PUBLIC "-//W3C//DTD SVG 1.1//EN"
       "http://www.w3.org/Graphics/SVG/1.1/DTD/svg11.dtd">
<svg version="1.1" xmlns="http://www.w3.org/2000/svg" xmlns:xlink="http://www.w3.org/1999/xlink" width="18.3398" height="17.998">
 <g>
  <rect height="17.998" opacity="0" width="18.3398" x="0" y="0"/>
  <path d="M3.06641 17.998L14.9121 17.998C16.9629 17.998 17.9785 16.9824 17.9785 14.9707L17.9785 3.04688C17.9785 1.03516 16.9629 0.0195312 14.9121 0.0195312L3.06641 0.0195312C1.02539 0.0195312 0 1.02539 0 3.04688L0 14.9707C0 16.9922 1.02539 17.998 3.06641 17.998ZM3.08594 16.4258C2.10938 16.4258 1.57227 15.9082 1.57227 14.8926L1.57227 3.125C1.57227 2.10938 2.10938 1.5918 3.08594 1.5918L14.8926 1.5918C15.8594 1.5918 16.4062 2.10938 16.4062 3.125L16.4062 14.8926C16.4062 15.9082 15.8594 16.4258 14.8926 16.4258Z" fill="#ffffff" fill-opacity="0.85"/>
  <path d="M15.0586 9.00391C15.0586 8.7793 14.9707 8.61328 14.7852 8.42773L11.9629 5.60547C11.8359 5.46875 11.6602 5.40039 11.4551 5.40039C11.0547 5.40039 10.752 5.71289 10.752 6.11328C10.752 6.31836 10.8301 6.50391 10.9668 6.63086L11.709 7.35352L12.9004 8.34961L10.8301 8.27148L7.1582 8.27148L5.08789 8.34961L6.26953 7.35352L7.01172 6.63086C7.14844 6.50391 7.22656 6.31836 7.22656 6.11328C7.22656 5.71289 6.92383 5.40039 6.52344 5.40039C6.31836 5.40039 6.14258 5.46875 6.01562 5.60547L3.19336 8.42773C3.00781 8.61328 2.91992 8.7793 2.91992 9.00391C2.91992 9.20898 3.00781 9.36523 3.19336 9.56055L6.01562 12.4023C6.14258 12.5293 6.31836 12.5977 6.52344 12.5977C6.92383 12.5977 7.22656 12.2852 7.22656 11.8945C7.22656 11.6797 7.13867 11.5039 7.01172 11.3672L6.26953 10.6348L5.09766 9.6582L7.1582 9.72656L10.8301 9.72656L12.8906 9.6582L11.709 10.6348L10.9668 11.3672C10.8398 11.5039 10.752 11.6797 10.752 11.8945C10.752 12.2852 11.0547 12.5977 11.4551 12.5977C11.6602 12.5977 11.8359 12.5293 11.9629 12.4023L14.7852 9.56055C14.9707 9.36523 15.0586 9.20898 15.0586 9.00391Z" fill="#ffffff" fill-opacity="0.85"/>
 </g>
</svg>
