<svg version="1.1" xmlns="http://www.w3.org/2000/svg" xmlns:xlink="http://www.w3.org/1999/xlink" width="20.2832" height="19.9316" viewBox="0 0 20.2832 19.9316">
 <g>
  <rect height="19.9316" opacity="0" width="20.2832" x="0" y="0"/>
  <path d="M9.96094 19.9219C15.4102 19.9219 19.9219 15.4004 19.9219 9.96094C19.9219 4.51172 15.4004 0 9.95117 0C4.51172 0 0 4.51172 0 9.96094C0 15.4004 4.52148 19.9219 9.96094 19.9219ZM9.96094 18.2617C5.35156 18.2617 1.66992 14.5703 1.66992 9.96094C1.66992 5.35156 5.3418 1.66016 9.95117 1.66016C14.5605 1.66016 18.2617 5.35156 18.2617 9.96094C18.2617 14.5703 14.5703 18.2617 9.96094 18.2617Z" fill="currentColor"/>
  <path d="M15.5859 10.8008L15.5469 7.37305C15.5469 7.20703 15.4688 7.02148 15.3613 6.9043C15.1074 6.64062 14.7363 6.64062 14.4727 6.9043C14.3555 7.02148 14.2773 7.1875 14.2871 7.35352L14.3066 8.80859L14.3359 9.33594L14.0234 9.00391L9.54102 4.52148C9.28711 4.26758 8.89648 4.26758 8.64258 4.52148C8.38867 4.78516 8.38867 5.16602 8.64258 5.41992L13.125 9.90234L13.4766 10.2148L12.9199 10.1953L11.4746 10.1758C11.2988 10.1758 11.1426 10.2344 11.0254 10.3613C10.7715 10.6152 10.7715 10.9766 11.0352 11.2305C11.1328 11.3477 11.3086 11.416 11.4844 11.4258L14.9219 11.4648C15.2734 11.4746 15.5859 11.1621 15.5859 10.8008ZM4.31641 9.13086L4.35547 12.5781C4.36523 12.7539 4.43359 12.9297 4.53125 13.0371C4.79492 13.291 5.17578 13.291 5.42969 13.0371C5.54688 12.9102 5.5957 12.7539 5.60547 12.5879L5.57617 11.1328L5.54688 10.5859L5.87891 10.9375L10.3613 15.4102C10.6152 15.6738 10.9863 15.6641 11.25 15.4102C11.5137 15.1465 11.5137 14.7754 11.25 14.5215L6.76758 10.0293L6.41602 9.72656L6.97266 9.74609L8.42773 9.77539C8.59375 9.77539 8.75 9.70703 8.87695 9.58984C9.13086 9.33594 9.13086 8.97461 8.86719 8.70117C8.75977 8.59375 8.57422 8.51562 8.41797 8.51562L4.98047 8.48633C4.61914 8.48633 4.31641 8.75977 4.31641 9.13086Z" fill="currentColor"/>
 </g>
</svg>
