<svg version="1.1" xmlns="http://www.w3.org/2000/svg" xmlns:xlink="http://www.w3.org/1999/xlink" width="18.3398" height="17.998" viewBox="0 0 18.3398 17.998">
 <g>
  <rect height="17.998" opacity="0" width="18.3398" x="0" y="0"/>
  <path d="M3.06641 17.998L14.9121 17.998C16.9629 17.998 17.9785 16.9824 17.9785 14.9707L17.9785 3.04688C17.9785 1.03516 16.9629 0.0195312 14.9121 0.0195312L3.06641 0.0195312C1.02539 0.0195312 0 1.02539 0 3.04688L0 14.9707C0 16.9922 1.02539 17.998 3.06641 17.998ZM3.08594 16.4258C2.10938 16.4258 1.57227 15.9082 1.57227 14.8926L1.57227 3.125C1.57227 2.10938 2.10938 1.5918 3.08594 1.5918L14.8926 1.5918C15.8594 1.5918 16.4062 2.10938 16.4062 3.125L16.4062 14.8926C16.4062 15.9082 15.8594 16.4258 14.8926 16.4258Z" fill="var(--color-secondary)"/>
  <path d="M14.043 10.1855C14.043 7.8418 12.3438 6.41602 10.0684 6.41602L7.14844 6.41602L5.99609 6.44531L6.76758 5.83984L7.77344 4.86328C7.91016 4.74609 7.99805 4.56055 7.99805 4.35547C7.99805 3.95508 7.69531 3.65234 7.29492 3.65234C7.08984 3.65234 6.93359 3.71094 6.79688 3.85742L4.19922 6.49414C4.04297 6.66016 3.94531 6.86523 3.94531 7.08984C3.94531 7.32422 4.04297 7.51953 4.19922 7.68555L6.80664 10.3418C6.94336 10.4785 7.09961 10.5469 7.30469 10.5469C7.69531 10.5469 7.99805 10.2441 7.99805 9.83398C7.99805 9.6582 7.92969 9.46289 7.7832 9.33594L6.5625 8.16406L5.99609 7.73438L7.14844 7.7832L10.0684 7.7832C11.5039 7.7832 12.6074 8.60352 12.6074 10.1074C12.6074 11.6504 11.5332 12.5977 10.0586 12.5977C9.94141 12.5977 8.74023 12.5977 8.70117 12.5977C8.28125 12.5977 7.95898 12.8418 7.95898 13.3008C7.95898 13.75 8.28125 13.9941 8.7207 13.9941C8.76953 13.9941 9.94141 13.9941 10.0586 13.9941C12.334 13.9941 14.043 12.5293 14.043 10.1855Z" fill="var(--color-primary)"/>
 </g>
</svg>
