<?xml version="1.0" encoding="UTF-8"?>
<!--Generator: Apple Native CoreSVG 232.5-->
<!DOCTYPE svg
PUBLIC "-//W3C//DTD SVG 1.1//EN"
       "http://www.w3.org/Graphics/SVG/1.1/DTD/svg11.dtd">
<svg version="1.1" xmlns="http://www.w3.org/2000/svg" xmlns:xlink="http://www.w3.org/1999/xlink" width="18.3398" height="17.998">
 <g>
  <rect height="17.998" opacity="0" width="18.3398" x="0" y="0"/>
  <path d="M3.06641 17.998L14.9121 17.998C16.9629 17.998 17.9785 16.9824 17.9785 14.9707L17.9785 3.04688C17.9785 1.03516 16.9629 0.0195312 14.9121 0.0195312L3.06641 0.0195312C1.02539 0.0195312 0 1.02539 0 3.04688L0 14.9707C0 16.9922 1.02539 17.998 3.06641 17.998Z" fill="#ffffff" fill-opacity="0.25"/>
  <path d="M3.82812 8.98438C3.82812 8.75977 3.90625 8.60352 4.11133 8.39844L7.50977 4.98047C7.64648 4.84375 7.83203 4.77539 8.03711 4.77539C8.4668 4.77539 8.76953 5.08789 8.76953 5.50781C8.76953 5.72266 8.68164 5.9082 8.54492 6.05469L7.29492 7.29492L6.08398 8.31055L8.21289 8.22266L13.4375 8.22266C13.877 8.22266 14.1992 8.53516 14.1992 8.98438C14.1992 9.42383 13.8867 9.73633 13.4375 9.73633L8.21289 9.73633L6.07422 9.6582L7.29492 10.6738L8.54492 11.9141C8.69141 12.0508 8.76953 12.2363 8.76953 12.4512C8.76953 12.8711 8.4668 13.1934 8.03711 13.1934C7.83203 13.1934 7.64648 13.1152 7.50977 12.9785L4.11133 9.57031C3.92578 9.38477 3.82812 9.20898 3.82812 8.98438Z" fill="#ffffff" fill-opacity="0.85"/>
 </g>
</svg>
