<svg version="1.1" xmlns="http://www.w3.org/2000/svg" xmlns:xlink="http://www.w3.org/1999/xlink" width="18.3398" height="17.998" viewBox="0 0 18.3398 17.998">
 <g>
  <rect height="17.998" opacity="0" width="18.3398" x="0" y="0"/>
  <path d="M3.06641 17.998L14.9121 17.998C16.9629 17.998 17.9785 16.9824 17.9785 14.9707L17.9785 3.04688C17.9785 1.03516 16.9629 0.0195312 14.9121 0.0195312L3.06641 0.0195312C1.02539 0.0195312 0 1.02539 0 3.04688L0 14.9707C0 16.9922 1.02539 17.998 3.06641 17.998ZM3.08594 16.4258C2.10938 16.4258 1.57227 15.9082 1.57227 14.8926L1.57227 3.125C1.57227 2.10938 2.10938 1.5918 3.08594 1.5918L14.8926 1.5918C15.8594 1.5918 16.4062 2.10938 16.4062 3.125L16.4062 14.8926C16.4062 15.9082 15.8594 16.4258 14.8926 16.4258Z" fill="var(--color-secondary)"/>
  <path d="M4.77539 8.98438C5.15625 8.98438 5.46875 8.68164 5.46875 8.30078L5.46875 7.82227L5.37109 6.2793L7.48047 8.49609C7.76367 8.80859 8.23242 8.79883 8.51562 8.50586C8.79883 8.22266 8.78906 7.74414 8.50586 7.4707L6.30859 5.37109L7.80273 5.46875L8.28125 5.46875C8.66211 5.46875 8.96484 5.16602 8.96484 4.78516C8.96484 4.4043 8.66211 4.0918 8.28125 4.0918L4.89258 4.0918C4.38477 4.0918 4.0918 4.31641 4.0918 4.90234L4.0918 8.30078C4.0918 8.68164 4.39453 8.98438 4.77539 8.98438ZM9.7168 13.916L13.0957 13.916C13.6035 13.916 13.9062 13.6914 13.9062 13.1055L13.9062 9.70703C13.9062 9.32617 13.5938 9.02344 13.2129 9.02344C12.832 9.02344 12.5293 9.32617 12.5293 9.70703L12.5293 10.1855L12.627 11.7285L10.5176 9.51172C10.2246 9.19922 9.76562 9.20898 9.47266 9.50195C9.18945 9.78516 9.19922 10.2637 9.48242 10.5371L11.6895 12.6367L10.1953 12.5391L9.7168 12.5391C9.33594 12.5391 9.02344 12.8418 9.02344 13.2227C9.02344 13.6035 9.33594 13.916 9.7168 13.916Z" fill="var(--color-primary)"/>
 </g>
</svg>
