<svg version="1.1" xmlns="http://www.w3.org/2000/svg" xmlns:xlink="http://www.w3.org/1999/xlink" width="18.3398" height="17.998" viewBox="0 0 18.3398 17.998">
 <g>
  <rect height="17.998" opacity="0" width="18.3398" x="0" y="0"/>
  <path d="M3.06641 17.998L14.9121 17.998C16.9629 17.998 17.9785 16.9824 17.9785 14.9707L17.9785 3.04688C17.9785 1.03516 16.9629 0.0195312 14.9121 0.0195312L3.06641 0.0195312C1.02539 0.0195312 0 1.02539 0 3.04688L0 14.9707C0 16.9922 1.02539 17.998 3.06641 17.998Z" fill="var(--color-tertiary)"/>
  <path d="M9.00391 14.0332C8.56445 14.0332 8.24219 13.7207 8.24219 13.2715L8.24219 8.26172L8.33008 6.12305L7.32422 7.33398L6.13281 8.53516C5.99609 8.67188 5.81055 8.75977 5.5957 8.75977C5.17578 8.75977 4.86328 8.4375 4.86328 8.02734C4.86328 7.8125 4.92188 7.63672 5.05859 7.5L8.41797 4.15039C8.62305 3.94531 8.78906 3.86719 9.00391 3.86719C9.23828 3.86719 9.4043 3.95508 9.59961 4.15039L12.9492 7.5C13.0957 7.63672 13.1641 7.8125 13.1641 8.02734C13.1641 8.4375 12.8418 8.75977 12.4219 8.75977C12.207 8.75977 12.0215 8.68164 11.8848 8.53516L10.7031 7.33398L9.67773 6.11328L9.76562 8.26172L9.76562 13.2715C9.76562 13.7207 9.45312 14.0332 9.00391 14.0332Z" fill="var(--color-primary)"/>
 </g>
</svg>
