<?xml version="1.0" encoding="UTF-8"?>
<!--Generator: Apple Native CoreSVG 232.5-->
<!DOCTYPE svg
PUBLIC "-//W3C//DTD SVG 1.1//EN"
       "http://www.w3.org/Graphics/SVG/1.1/DTD/svg11.dtd">
<svg version="1.1" xmlns="http://www.w3.org/2000/svg" xmlns:xlink="http://www.w3.org/1999/xlink" width="18.3398" height="17.998">
 <g>
  <rect height="17.998" opacity="0" width="18.3398" x="0" y="0"/>
  <path d="M17.9785 3.04688L17.9785 14.9707C17.9785 16.9824 16.9629 17.998 14.9121 17.998L3.06641 17.998C1.02539 17.998 0 16.9922 0 14.9707L0 3.04688C0 1.02539 1.02539 0.0195312 3.06641 0.0195312L14.9121 0.0195312C16.9629 0.0195312 17.9785 1.03516 17.9785 3.04688ZM8.18359 3.87695C8.18359 4.05273 8.26172 4.22852 8.36914 4.33594L9.07227 5.05859C8.99414 5.05859 8.88672 5.03906 8.79883 5.03906C6.5332 5.03906 4.50195 6.98242 4.50195 9.45312C4.50195 11.9727 6.50391 13.9941 8.99414 13.9941C11.4844 13.9941 13.4863 11.9727 13.4863 9.49219C13.4863 9.11133 13.1641 8.79883 12.793 8.79883C12.4121 8.79883 12.0898 9.11133 12.0898 9.49219C12.0898 11.2109 10.7129 12.5977 8.99414 12.5977C7.27539 12.5977 5.89844 11.2207 5.89844 9.49219C5.89844 7.77344 7.27539 6.38672 8.99414 6.38672C9.12109 6.38672 9.25781 6.39648 9.35547 6.41602L8.37891 7.37305C8.26172 7.5 8.18359 7.65625 8.18359 7.8418C8.18359 8.20312 8.4668 8.47656 8.82812 8.47656C8.99414 8.47656 9.16016 8.38867 9.26758 8.29102L11.2207 6.33789C11.4746 6.09375 11.4551 5.64453 11.2207 5.40039L9.28711 3.4375C9.17969 3.31055 9.00391 3.23242 8.82812 3.23242C8.4668 3.23242 8.18359 3.51562 8.18359 3.87695Z" fill="#ffffff" fill-opacity="0.85"/>
 </g>
</svg>
