<?xml version="1.0" encoding="UTF-8"?>
<!--Generator: Apple Native CoreSVG 232.5-->
<!DOCTYPE svg
PUBLIC "-//W3C//DTD SVG 1.1//EN"
       "http://www.w3.org/Graphics/SVG/1.1/DTD/svg11.dtd">
<svg version="1.1" xmlns="http://www.w3.org/2000/svg" xmlns:xlink="http://www.w3.org/1999/xlink" width="20.2832" height="19.9316">
 <g>
  <rect height="19.9316" opacity="0" width="20.2832" x="0" y="0"/>
  <path d="M9.96094 19.9316C15.4102 19.9316 19.9219 15.4199 19.9219 9.9707C19.9219 4.53125 15.4004 0.00976562 9.95117 0.00976562C4.51172 0.00976562 0 4.53125 0 9.9707C0 15.4199 4.52148 19.9316 9.96094 19.9316Z" fill="#ffffff" fill-opacity="0.25"/>
  <path d="M16.0742 9.9707C16.0742 10.1465 16.0059 10.3809 15.8008 10.5762L11.3281 14.7852C11.0645 15.0293 10.8301 15.1465 10.5469 15.1465C10.1758 15.1465 9.89258 14.8828 9.89258 14.4922L9.89258 12.207L5.20508 12.207C4.38477 12.207 3.90625 11.7383 3.90625 10.9375L3.90625 9.01367C3.90625 8.21289 4.38477 7.74414 5.20508 7.74414L9.89258 7.74414L9.89258 5.48828C9.89258 5.10742 10.1758 4.79492 10.5762 4.79492C10.8398 4.79492 11.0352 4.91211 11.3281 5.19531L15.8008 9.35547C16.0059 9.57031 16.0742 9.78516 16.0742 9.9707Z" fill="#ffffff" fill-opacity="0.85"/>
 </g>
</svg>
