<?xml version="1.0" encoding="UTF-8"?>
<!--Generator: Apple Native CoreSVG 232.5-->
<!DOCTYPE svg
PUBLIC "-//W3C//DTD SVG 1.1//EN"
       "http://www.w3.org/Graphics/SVG/1.1/DTD/svg11.dtd">
<svg version="1.1" xmlns="http://www.w3.org/2000/svg" xmlns:xlink="http://www.w3.org/1999/xlink" width="18.3398" height="17.998">
 <g>
  <rect height="17.998" opacity="0" width="18.3398" x="0" y="0"/>
  <path d="M17.9785 3.04688L17.9785 14.9707C17.9785 16.9824 16.9629 17.998 14.9121 17.998L3.06641 17.998C1.02539 17.998 0 16.9922 0 14.9707L0 3.04688C0 1.02539 1.02539 0.0195312 3.06641 0.0195312L14.9121 0.0195312C16.9629 0.0195312 17.9785 1.03516 17.9785 3.04688ZM11.5625 5.3418L7.88086 9.0332L6.42578 10.5859L6.57227 9.01367L6.57227 7.28516C6.57227 6.79688 6.2793 6.49414 5.83008 6.49414C5.39062 6.49414 5.09766 6.82617 5.09766 7.30469L5.09766 12.0508C5.09766 12.6465 5.41992 12.8809 5.9375 12.8809L10.7031 12.8809C11.1816 12.8809 11.4844 12.5879 11.4844 12.1387C11.4844 11.6992 11.1719 11.4062 10.6836 11.4062L8.86719 11.4062L7.37305 11.5625L8.94531 10.0879L12.6465 6.40625C12.793 6.25977 12.8906 6.05469 12.8906 5.85938C12.8906 5.40039 12.5879 5.10742 12.1484 5.10742C11.9043 5.10742 11.7188 5.19531 11.5625 5.3418Z" fill="#ffffff" fill-opacity="0.85"/>
 </g>
</svg>
