<svg version="1.1" xmlns="http://www.w3.org/2000/svg" xmlns:xlink="http://www.w3.org/1999/xlink" width="20.6152" height="21.5918" viewBox="0 0 20.6152 21.5918">
 <g>
  <rect height="21.5918" opacity="0" width="20.6152" x="0" y="0"/>
  <path d="M0 11.25C0 17.6855 4.35547 21.5918 10.3516 21.5918C11.9727 21.5918 13.5156 21.3672 14.4727 21.0547C15.1465 20.8398 15.3613 20.4883 15.3613 20.127C15.3613 19.7656 15.0781 19.4922 14.7168 19.4922C14.5996 19.4922 14.4434 19.5117 14.2578 19.5605C13.0664 19.8535 12.041 20.0488 10.6641 20.0488C5.32227 20.0488 1.67969 16.8262 1.67969 11.3086C1.67969 6.02539 5.11719 2.34375 10.293 2.34375C14.873 2.34375 18.7012 5.16602 18.7012 10.2344C18.7012 13.1934 17.7051 15.1855 16.0938 15.1855C15.0195 15.1855 14.4141 14.5605 14.4141 13.4961L14.4141 6.875C14.4141 6.34766 14.1211 6.02539 13.623 6.02539C13.1348 6.02539 12.832 6.34766 12.832 6.875L12.832 7.98828L12.7441 7.98828C12.2461 6.78711 11.0254 6.02539 9.57031 6.02539C7.04102 6.02539 5.26367 8.18359 5.26367 11.2793C5.26367 14.4043 7.03125 16.582 9.60938 16.582C11.123 16.582 12.2949 15.7617 12.8613 14.375L12.9492 14.375C13.1348 15.752 14.2969 16.5918 15.8398 16.5918C18.5645 16.5918 20.2539 13.916 20.2539 10.166C20.2539 4.49219 16.084 0.810547 10.3125 0.810547C4.24805 0.810547 0 4.96094 0 11.25ZM9.87305 15.0391C8.125 15.0391 7.01172 13.584 7.01172 11.2695C7.01172 8.99414 8.13477 7.53906 9.88281 7.53906C11.6797 7.53906 12.8125 8.96484 12.8125 11.2305C12.8125 13.5449 11.6504 15.0391 9.87305 15.0391Z" fill="var(--color-primary)"/>
 </g>
</svg>
