<?xml version="1.0" encoding="UTF-8"?>
<!--Generator: Apple Native CoreSVG 232.5-->
<!DOCTYPE svg
PUBLIC "-//W3C//DTD SVG 1.1//EN"
       "http://www.w3.org/Graphics/SVG/1.1/DTD/svg11.dtd">
<svg version="1.1" xmlns="http://www.w3.org/2000/svg" xmlns:xlink="http://www.w3.org/1999/xlink" width="20.2832" height="19.9316">
 <g>
  <rect height="19.9316" opacity="0" width="20.2832" x="0" y="0"/>
  <path d="M9.96094 19.9219C15.4102 19.9219 19.9219 15.4004 19.9219 9.96094C19.9219 4.51172 15.4004 0 9.95117 0C4.51172 0 0 4.51172 0 9.96094C0 15.4004 4.52148 19.9219 9.96094 19.9219Z" fill="#ffffff" fill-opacity="0.25"/>
  <path d="M4.35547 13.6914L6.29883 5.9375C6.41602 5.47852 6.76758 5.19531 7.22656 5.19531C7.66602 5.19531 7.99805 5.46875 8.10547 5.9375L10 13.6914C10.1367 14.2871 9.78516 14.5703 9.39453 14.5703C9.08203 14.5703 8.80859 14.4043 8.73047 14.0332L8.30078 12.1289L6.06445 12.1289L5.6543 14.0332C5.57617 14.4043 5.29297 14.5703 4.98047 14.5703C4.59961 14.5703 4.19922 14.2871 4.35547 13.6914ZM6.2793 11.1035L8.0957 11.1035L7.20703 7.11914L7.12891 7.11914ZM12.8906 15.1855C12.6562 15.1855 12.4609 14.9902 12.4609 14.7656L12.4609 14.0723C11.2891 13.9355 10.5664 13.1934 10.4297 12.1582C10.3418 11.6309 10.6738 11.3379 11.0254 11.3379C11.2988 11.3379 11.5332 11.5137 11.5723 11.8555C11.6211 12.4609 11.9043 12.8613 12.4609 12.9785L12.4609 10.3906L12.1094 10.2148C11.0547 9.67773 10.4297 8.98438 10.4297 7.89062C10.4297 6.71875 11.2695 5.89844 12.4609 5.76172L12.4609 5.10742C12.4609 4.87305 12.6562 4.67773 12.8906 4.67773C13.1055 4.67773 13.3008 4.87305 13.3008 5.10742L13.3008 5.77148C14.4043 5.94727 15.0488 6.69922 15.1758 7.67578C15.2539 8.23242 14.9219 8.49609 14.5801 8.49609C14.3066 8.49609 14.043 8.30078 14.0137 7.97852C13.9746 7.45117 13.7402 7.05078 13.3008 6.89453L13.3008 9.41406L13.623 9.58984C14.8145 10.2344 15.3418 10.9082 15.3418 11.8848C15.3418 13.1348 14.5215 13.9355 13.3008 14.082L13.3008 14.7656C13.3008 14.9902 13.1055 15.1855 12.8906 15.1855ZM11.6699 7.8418C11.6699 8.36914 11.9922 8.66211 12.3828 8.90625L12.4609 8.95508L12.4609 6.86523C11.9727 6.97266 11.6699 7.33398 11.6699 7.8418ZM14.1113 11.9727C14.1113 11.5039 13.8086 11.1426 13.3594 10.8789L13.3008 10.8398L13.3008 12.9785C13.8184 12.8613 14.1113 12.4902 14.1113 11.9727Z" fill="#ffffff" fill-opacity="0.85"/>
 </g>
</svg>
