<svg version="1.1" xmlns="http://www.w3.org/2000/svg" xmlns:xlink="http://www.w3.org/1999/xlink" width="20.2832" height="20.6574" viewBox="0 0 20.2832 20.6574">
 <g>
  <rect height="20.6574" opacity="0" width="20.2832" x="0" y="0"/>
  <path d="M0 10.3238C0 13.6149 1.67969 16.525 4.16992 18.3805C4.59961 18.7125 5.13672 18.6051 5.38086 18.2047C5.625 17.8043 5.49805 17.3356 5.09766 17.0426C3.01758 15.5484 1.66992 13.107 1.66016 10.3238C1.64062 5.71446 5.35156 2.02305 9.96094 2.02305C14.5703 2.02305 18.2812 5.71446 18.2617 10.3238C18.252 13.107 16.9043 15.5484 14.8242 17.0426C14.4238 17.3356 14.2969 17.8043 14.541 18.2047C14.7852 18.6051 15.3223 18.7125 15.752 18.3805C18.2422 16.525 19.9219 13.6149 19.9219 10.3238C19.9219 4.87462 15.4102 0.362898 9.96094 0.362898C4.52148 0.362898 0 4.87462 0 10.3238ZM17.4805 19.0543L14.3945 15.8316C13.9062 15.3238 13.4375 15.5387 13.3105 16.1734L12.5488 19.8453C12.4414 20.3922 12.7637 20.7242 13.3301 20.6461L17.0703 20.1188C17.7441 20.0211 17.959 19.5719 17.4805 19.0543Z" fill="var(--color-primary)"/>
  <path d="M6.74805 14.3277C7.09961 14.3277 7.35352 14.152 7.5 13.7027L8.21289 11.6227L11.709 11.6227L12.4219 13.7027C12.5684 14.152 12.8125 14.3277 13.1738 14.3277C13.6035 14.3277 13.8965 14.0445 13.8965 13.6539C13.8965 13.4977 13.8574 13.3609 13.7891 13.1461L11.0449 5.77305C10.8594 5.26524 10.4883 5.00157 9.95117 5.00157C9.42383 5.00157 9.0625 5.26524 8.86719 5.77305L6.13281 13.1461C6.05469 13.3609 6.02539 13.4977 6.02539 13.6441C6.02539 14.0543 6.30859 14.3277 6.74805 14.3277ZM8.60352 10.4508L9.90234 6.67149L10.0098 6.67149L11.3086 10.4508Z" fill="var(--color-primary)"/>
 </g>
</svg>
