<?xml version="1.0" encoding="UTF-8"?>
<!--Generator: Apple Native CoreSVG 232.5-->
<!DOCTYPE svg
PUBLIC "-//W3C//DTD SVG 1.1//EN"
       "http://www.w3.org/Graphics/SVG/1.1/DTD/svg11.dtd">
<svg version="1.1" xmlns="http://www.w3.org/2000/svg" xmlns:xlink="http://www.w3.org/1999/xlink" width="22.0654" height="21.7067">
 <g>
  <rect height="21.7067" opacity="0" width="22.0654" x="0" y="0"/>
  <path d="M17.9543 20.6457L14.2212 21.1707C13.6646 21.2488 13.3325 20.9168 13.4497 20.3699L14.1689 16.8582ZM3.78888 6.47258C2.9952 7.73624 2.54444 9.23619 2.55127 10.8484C2.56104 13.6316 3.90869 16.0731 5.99854 17.5672C6.39893 17.8602 6.51611 18.3289 6.27197 18.7293C6.0376 19.1297 5.49072 19.2371 5.06104 18.9051C2.58057 17.0496 0.891113 14.1395 0.891113 10.8484C0.891113 8.80235 1.52859 6.88844 2.61305 5.29612ZM20.813 10.8484C20.813 12.9002 20.1601 14.804 19.067 16.3962L17.9026 15.2312C18.6936 13.9657 19.1472 12.4647 19.1528 10.8484C19.1724 6.23907 15.4614 2.54766 10.8521 2.54766C9.24147 2.54766 7.73865 3.00026 6.47168 3.79406L5.29323 2.61496C6.88767 1.52658 8.80485 0.887505 10.8521 0.887505C16.3013 0.887505 20.813 5.39922 20.813 10.8484ZM9.46048 12.1473L9.11377 12.1473L8.39111 14.2273C8.24463 14.6766 8.00049 14.8523 7.64893 14.8523C7.20947 14.8523 6.92627 14.5789 6.92627 14.1688C6.92627 14.0223 6.95557 13.8856 7.02393 13.6707L8.09822 10.7843ZM11.9458 6.29766L13.6992 11.0255L11.455 8.78011L10.9106 7.1961L10.8032 7.1961L10.5649 7.88952L9.55258 6.87664L9.76807 6.29766C9.95361 5.78985 10.3247 5.52618 10.8423 5.52618C11.3794 5.52618 11.7505 5.78985 11.9458 6.29766Z" fill="#ffffff" fill-opacity="0.55"/>
  <path d="M19.2798 20.3504C19.5728 20.6434 20.061 20.6336 20.3442 20.3406C20.6372 20.0477 20.6372 19.5691 20.3442 19.2762L2.43408 1.36602C2.14111 1.07305 1.65283 1.06329 1.35986 1.36602C1.06689 1.64922 1.06689 2.13751 1.35986 2.43047Z" fill="#ffffff" fill-opacity="0.85"/>
 </g>
</svg>
