<svg version="1.1" xmlns="http://www.w3.org/2000/svg" xmlns:xlink="http://www.w3.org/1999/xlink" width="18.0951" height="21.0242" viewBox="0 0 18.0951 21.0242">
 <g>
  <rect height="21.0242" opacity="0" width="18.0951" x="0" y="0"/>
  <path d="M0.89815 6.5033L1.63057 6.76697C2.39229 7.05018 3.10518 6.69861 3.38838 5.91736L4.76534 2.13807C5.04854 1.35682 4.72627 0.643927 3.96456 0.360724L3.23213 0.0970522C2.47042-0.186151 1.76729 0.165412 1.47432 0.956427L0.107134 4.72596C-0.185834 5.50721 0.136431 6.2201 0.89815 6.5033ZM13.7595 6.5033L14.5017 6.76697C15.2634 7.05018 15.9665 6.69861 16.2497 5.91736L17.6267 2.13807C17.9196 1.35682 17.5876 0.643927 16.8356 0.360724L16.0935 0.0970522C15.3317-0.186151 14.6384 0.165412 14.3454 0.956427L12.9685 4.72596C12.6853 5.50721 13.0075 6.22986 13.7595 6.5033ZM2.04073 20.9857L2.82198 20.9857C3.63252 20.9857 4.1794 20.4193 4.1794 19.5892L4.1794 15.5756C4.1794 14.7357 3.63252 14.1693 2.82198 14.1693L2.04073 14.1693C1.23995 14.1693 0.693072 14.7357 0.693072 15.5756L0.693072 19.5892C0.693072 20.4193 1.23995 20.9857 2.04073 20.9857ZM14.9021 20.9857L15.6833 20.9857C16.4939 20.9857 17.0407 20.4193 17.0407 19.5892L17.0407 15.5756C17.0407 14.7357 16.4939 14.1693 15.6833 14.1693L14.9021 14.1693C14.1013 14.1693 13.5544 14.7357 13.5544 15.5756L13.5544 19.5892C13.5544 20.4193 14.1013 20.9857 14.9021 20.9857ZM3.40792 4.21815L14.3356 4.21815L14.3356 2.64588L3.40792 2.64588ZM8.07588 17.7826L9.64815 17.7826L9.64815 2.64588L8.07588 2.64588ZM3.40792 18.3685L14.3356 18.3685L14.3356 16.7963L3.40792 16.7963Z" fill="var(--color-primary)"/>
 </g>
</svg>
