<svg version="1.1" xmlns="http://www.w3.org/2000/svg" xmlns:xlink="http://www.w3.org/1999/xlink" width="17.6953" height="19.6582" viewBox="0 0 17.6953 19.6582">
 <g>
  <rect height="19.6582" opacity="0" width="17.6953" x="0" y="0"/>
  <path d="M3.06641 19.6484L14.5605 19.6484C16.3086 19.6484 17.334 18.6328 17.334 16.6211L17.334 6.51367C17.334 4.50195 16.2988 3.48633 14.2676 3.48633L3.06641 3.48633C1.02539 3.48633 0 4.49219 0 6.51367L0 16.6211C0 18.6426 1.02539 19.6484 3.06641 19.6484ZM3.08594 18.0762C2.10938 18.0762 1.57227 17.5586 1.57227 16.543L1.57227 6.5918C1.57227 5.57617 2.10938 5.05859 3.08594 5.05859L14.2383 5.05859C15.2051 5.05859 15.7617 5.57617 15.7617 6.5918L15.7617 16.543C15.7617 17.5586 15.2051 18.0762 14.5312 18.0762ZM4.81445 3.86719L6.38672 3.87695C6.38672 2.48047 7.30469 1.48438 8.66211 1.48438C10.0195 1.48438 10.9473 2.48047 10.9473 3.87695L12.5195 3.86719C12.5195 1.70898 10.8496 0 8.66211 0C6.47461 0 4.81445 1.70898 4.81445 3.86719Z" fill="currentColor"/>
 </g>
</svg>
