<svg version="1.1" xmlns="http://www.w3.org/2000/svg" xmlns:xlink="http://www.w3.org/1999/xlink" width="20.2832" height="19.9316" viewBox="0 0 20.2832 19.9316">
 <g>
  <rect height="19.9316" opacity="0" width="20.2832" x="0" y="0"/>
  <path d="M7.72461 18.9551L8.68164 19.1895C9.52148 16.5918 9.32617 13.6621 7.86133 11.1426C6.40625 8.63281 3.98438 6.98242 1.32812 6.41602L1.05469 7.35352C3.44727 7.86133 5.63477 9.35547 6.97266 11.6602C8.31055 13.9746 8.49609 16.6113 7.72461 18.9551ZM3.70117 8.91602L4.59961 7.26562C4.7168 7.05078 4.64844 6.78711 4.43359 6.67969C4.20898 6.55273 3.93555 6.61133 3.81836 6.83594L2.92969 8.47656C2.80273 8.70117 2.88086 8.97461 3.10547 9.08203C3.32031 9.20898 3.57422 9.14062 3.70117 8.91602ZM5.48828 10.2148L6.79688 8.87695C6.98242 8.69141 6.97266 8.41797 6.79688 8.26172C6.62109 8.07617 6.34766 8.05664 6.16211 8.24219L4.85352 9.58008C4.66797 9.75586 4.67773 10.0488 4.86328 10.2051C5.03906 10.3809 5.30273 10.3906 5.48828 10.2148ZM6.875 12.2168L8.50586 11.2988C8.74023 11.1719 8.79883 10.8984 8.67188 10.6934C8.54492 10.4785 8.28125 10.3906 8.06641 10.5176L6.43555 11.4258C6.21094 11.5527 6.14258 11.8359 6.2793 12.041C6.40625 12.2559 6.65039 12.334 6.875 12.2168ZM7.60742 14.4824L9.42383 14.0137C9.6582 13.9453 9.79492 13.7012 9.73633 13.4668C9.66797 13.2227 9.44336 13.0762 9.18945 13.1445L7.38281 13.6133C7.13867 13.6719 7.00195 13.916 7.06055 14.1504C7.12891 14.3945 7.36328 14.541 7.60742 14.4824ZM7.74414 16.7773L9.60938 16.8262C9.86328 16.8359 10.0586 16.6309 10.0586 16.3867C10.0684 16.1523 9.87305 15.9473 9.62891 15.9375L7.76367 15.8887C7.50977 15.8789 7.31445 16.084 7.30469 16.3281C7.30469 16.5723 7.5 16.7676 7.74414 16.7773ZM18.5645 13.4863L18.8281 12.5293C16.416 12.0312 14.2285 10.5469 12.8906 8.24219C11.5625 5.91797 11.3672 3.27148 12.1387 0.9375L11.1816 0.722656C10.3418 3.31055 10.5469 6.2207 12.002 8.75C13.457 11.2793 15.8887 12.9004 18.5645 13.4863ZM12.1387 4.0332C12.3926 4.04297 12.5781 3.85742 12.5781 3.60352C12.5879 3.35938 12.3926 3.1543 12.1484 3.14453L10.2832 3.08594C10.0293 3.0957 9.83398 3.29102 9.83398 3.54492C9.82422 3.78906 10.0098 3.98438 10.2637 3.98438ZM12.373 6.24023C12.6172 6.17188 12.7539 5.9375 12.6758 5.70312C12.627 5.45898 12.3926 5.3125 12.1484 5.38086L10.332 5.83984C10.0781 5.9082 9.96094 6.15234 10.0391 6.38672C10.0781 6.63086 10.3125 6.76758 10.5566 6.69922ZM13.4277 8.44727C13.6523 8.32031 13.7109 8.07617 13.5938 7.8418C13.4766 7.63672 13.2129 7.53906 12.998 7.67578L11.3574 8.60352C11.1426 8.7207 11.084 8.99414 11.2109 9.20898C11.3086 9.41406 11.582 9.51172 11.7969 9.375ZM15.0391 10.2051C15.2246 10.0098 15.2148 9.73633 15.0293 9.56055C14.8633 9.39453 14.5801 9.38477 14.4043 9.57031L13.0859 10.9082C12.9102 11.0742 12.9199 11.3574 13.1055 11.5234C13.2715 11.6895 13.5449 11.6992 13.7207 11.5234ZM16.9629 11.4551C17.0898 11.2305 17.002 10.9766 16.7871 10.8398C16.5723 10.7324 16.2988 10.8008 16.1914 11.0156L15.293 12.6562C15.166 12.8711 15.2441 13.1445 15.459 13.2617C15.6641 13.3789 15.957 13.3105 16.0645 13.0859ZM9.96094 19.9219C15.4102 19.9219 19.9219 15.4004 19.9219 9.96094C19.9219 4.51172 15.4004 0 9.95117 0C4.51172 0 0 4.51172 0 9.96094C0 15.4004 4.52148 19.9219 9.96094 19.9219ZM9.96094 18.5938C5.24414 18.5938 1.32812 14.6777 1.32812 9.96094C1.32812 5.24414 5.23438 1.32812 9.95117 1.32812C14.668 1.32812 18.5938 5.24414 18.5938 9.96094C18.5938 14.6777 14.6777 18.5938 9.96094 18.5938Z" fill="var(--color-primary)"/>
 </g>
</svg>
