<?xml version="1.0" encoding="UTF-8"?>
<!--Generator: Apple Native CoreSVG 232.5-->
<!DOCTYPE svg
PUBLIC "-//W3C//DTD SVG 1.1//EN"
       "http://www.w3.org/Graphics/SVG/1.1/DTD/svg11.dtd">
<svg version="1.1" xmlns="http://www.w3.org/2000/svg" xmlns:xlink="http://www.w3.org/1999/xlink" width="23.3887" height="17.998">
 <g>
  <rect height="17.998" opacity="0" width="23.3887" x="0" y="0"/>
  <path d="M3.06641 17.9785L19.9609 17.9785C22.0117 17.9785 23.0273 16.9727 23.0273 14.9609L23.0273 5.51758C23.0273 3.50586 22.0117 2.5 19.9609 2.5L18.6133 2.5L18.6133 1.19141C18.6133 0.449219 18.1836 0 17.4316 0L14.5508 0C13.8086 0 13.3789 0.449219 13.3789 1.19141L13.3789 2.5L9.6582 2.5L9.6582 1.19141C9.6582 0.449219 9.22852 0 8.47656 0L5.5957 0C4.84375 0 4.42383 0.449219 4.42383 1.19141L4.42383 2.5L3.06641 2.5C1.02539 2.5 0 3.50586 0 5.51758L0 14.9609C0 16.9727 1.02539 17.9785 3.06641 17.9785ZM1.57227 14.873L1.57227 5.60547C1.57227 4.58984 2.10938 4.07227 3.08594 4.07227L19.9414 4.07227C20.9082 4.07227 21.4551 4.58984 21.4551 5.60547L21.4551 14.873C21.4551 15.8887 20.9082 16.4062 19.9414 16.4062L3.08594 16.4062C2.10938 16.4062 1.57227 15.8887 1.57227 14.873Z" fill="#ffffff" fill-opacity="0.85"/>
 </g>
</svg>
