<?xml version="1.0" encoding="UTF-8"?>
<!--Generator: Apple Native CoreSVG 232.5-->
<!DOCTYPE svg
PUBLIC "-//W3C//DTD SVG 1.1//EN"
       "http://www.w3.org/Graphics/SVG/1.1/DTD/svg11.dtd">
<svg version="1.1" xmlns="http://www.w3.org/2000/svg" xmlns:xlink="http://www.w3.org/1999/xlink" width="19.8633" height="19.4043">
 <g>
  <rect height="19.4043" opacity="0" width="19.8633" x="0" y="0"/>
  <path d="M5.98633 19.3945L13.4863 19.3945C17.4414 19.3945 19.502 17.3438 19.502 13.4082L19.502 5.98633C19.502 2.05078 17.4414 0 13.4863 0L5.98633 0C2.05078 0 0 2.05078 0 5.98633L0 13.4082C0 17.3438 2.05078 19.3945 5.98633 19.3945ZM5.77148 17.8223C3.00781 17.8223 1.57227 16.377 1.57227 13.623L1.57227 5.77148C1.57227 3.00781 3.00781 1.57227 5.77148 1.57227L13.7598 1.57227C16.4941 1.57227 17.9297 2.99805 17.9297 5.71289L17.9297 13.6816C17.9297 16.3965 16.4941 17.8223 13.7598 17.8223ZM9.74609 14.3164C12.3047 14.3164 14.3652 12.2168 14.3652 9.69727C14.3652 7.14844 12.2559 5.09766 9.74609 5.09766C9.29688 5.09766 8.88672 5.13672 8.52539 5.24414L8.52539 7.86133C8.88672 7.59766 9.31641 7.45117 9.74609 7.45117C10.9473 7.45117 11.9727 8.48633 11.9727 9.69727C11.9727 10.9082 10.9668 11.8945 9.74609 11.8945C8.50586 11.8945 7.5293 10.9277 7.5293 9.69727L7.5293 5.64453C6.06445 6.46484 5.13672 7.98828 5.13672 9.69727C5.13672 12.2656 7.19727 14.3164 9.74609 14.3164ZM9.74609 10.918C10.4004 10.918 10.957 10.3418 10.957 9.69727C10.957 9.07227 10.3809 8.49609 9.74609 8.49609C9.11133 8.49609 8.54492 9.04297 8.54492 9.69727C8.54492 10.3711 9.0918 10.918 9.74609 10.918Z" fill="#ffffff" fill-opacity="0.85"/>
 </g>
</svg>
