<svg version="1.1" xmlns="http://www.w3.org/2000/svg" xmlns:xlink="http://www.w3.org/1999/xlink" width="25.293" height="19.3457" viewBox="0 0 25.293 19.3457">
 <g>
  <rect height="19.3457" opacity="0" width="25.293" x="0" y="0"/>
  <path d="M0 14.5801C0 17.3047 2.44141 19.3457 5.42969 19.3457C8.4082 19.3457 10.8398 17.3047 10.8398 14.5801L10.8398 12.0801C11.3184 11.8945 11.8945 11.7871 12.4707 11.7871C13.1055 11.7871 13.6523 11.8555 14.0918 12.0117L14.0918 14.5801C14.0918 17.3047 16.5234 19.3457 19.502 19.3457C22.4805 19.3457 24.9316 17.3047 24.9316 14.5801C24.9316 13.8672 24.8242 13.2031 24.4238 12.2754L20.3711 2.82227C19.8145 1.55273 18.6523 0.810547 17.1875 0.810547C15.3125 0.810547 14.0918 2.00195 14.0918 3.78906L14.0918 4.73633C13.6035 4.60938 13.0664 4.54102 12.4707 4.54102C11.9043 4.54102 11.3574 4.62891 10.8398 4.79492L10.8398 3.78906C10.8398 2.00195 9.61914 0.810547 7.74414 0.810547C6.2793 0.810547 5.10742 1.55273 4.56055 2.82227L0.498047 12.2754C0.0976562 13.2031 0 13.8672 0 14.5801ZM1.5332 14.5801C1.5332 12.6172 3.22266 11.2793 5.42969 11.2793C7.62695 11.2793 9.375 12.6172 9.375 14.5801C9.375 16.543 7.62695 17.8809 5.42969 17.8809C3.22266 17.8809 1.5332 16.543 1.5332 14.5801ZM15.5566 14.5801C15.5566 12.6172 17.2949 11.2793 19.502 11.2793C21.6992 11.2793 23.3887 12.6172 23.3887 14.5801C23.3887 16.543 21.6992 17.8809 19.502 17.8809C17.2949 17.8809 15.5566 16.543 15.5566 14.5801ZM10.8398 9.10156L10.8398 7.77344C11.3574 7.60742 11.9043 7.5293 12.4707 7.5293C13.0664 7.5293 13.6035 7.58789 14.0918 7.71484L14.0918 9.02344C13.6523 8.87695 13.1152 8.80859 12.4707 8.80859C11.8945 8.80859 11.3184 8.91602 10.8398 9.10156Z" fill="currentColor"/>
 </g>
</svg>
