<svg version="1.1" xmlns="http://www.w3.org/2000/svg" xmlns:xlink="http://www.w3.org/1999/xlink" width="23.3064" height="25.8797" viewBox="0 0 23.3064 25.8797">
 <g>
  <rect height="25.8797" opacity="0" width="23.3064" x="0" y="0"/>
  <path d="M16.2382 6.42128C14.7733 6.42128 13.6796 7.23183 12.9081 9.16543C10.0858 6.28457 5.58388 3.71621 1.09169 3.37441C0.183489 3.31582 0.037005 3.98964 0.0174738 4.55605C-0.295026 9.52675 3.62099 13.8139 8.79677 14.185C7.38076 17.5443 5.13466 20.1518 2.91786 22.2221C2.5663 22.5443 2.65419 22.9838 2.88857 23.3353C4.02138 25.0736 7.5663 26.1186 9.96865 25.2885C10.496 25.0932 10.5936 24.8393 10.5936 24.3998L10.5936 20.6889C13.2206 20.5717 17.4686 18.8725 16.7753 13.4623L16.6679 12.6908C18.6893 12.2123 20.037 10.9428 20.037 9.64394C20.037 8.09121 18.328 6.42128 16.2382 6.42128ZM17.2636 9.80996C16.9315 9.80996 16.6581 9.54628 16.6581 9.21425C16.6581 8.89199 16.9315 8.60878 17.2636 8.60878C17.5858 8.60878 17.8593 8.89199 17.8593 9.21425C17.8593 9.54628 17.5858 9.80996 17.2636 9.80996ZM18.6991 11.0795L22.2636 11.5873C22.9276 11.685 23.2401 10.6986 22.5663 10.4154L19.3436 9.04824ZM14.9784 5.25918C13.7186 3.01308 12.1171 1.37246 10.0565 0.190816C9.30458-0.238871 8.54286 0.0833943 8.33779 0.893941C8.05458 1.8998 7.8788 2.91543 7.82021 3.92128C9.57802 4.78066 11.1893 5.85488 12.5565 7.02675C13.2304 6.09902 14.0507 5.52285 14.9784 5.25918Z" fill="var(--color-primary)"/>
 </g>
</svg>
