<svg version="1.1" xmlns="http://www.w3.org/2000/svg" xmlns:xlink="http://www.w3.org/1999/xlink" width="18.3398" height="17.998" viewBox="0 0 18.3398 17.998">
 <g>
  <rect height="17.998" opacity="0" width="18.3398" x="0" y="0"/>
  <path d="M3.06641 17.998L14.9121 17.998C16.9629 17.998 17.9785 16.9824 17.9785 14.9707L17.9785 3.04688C17.9785 1.03516 16.9629 0.0195312 14.9121 0.0195312L3.06641 0.0195312C1.02539 0.0195312 0 1.02539 0 3.04688L0 14.9707C0 16.9922 1.02539 17.998 3.06641 17.998Z" fill="var(--color-tertiary)"/>
  <path d="M6.24023 12.9199L6.24023 5.37109C6.24023 4.91211 6.5625 4.59961 7.01172 4.59961L7.42188 4.59961L7.42188 3.84766C7.42188 3.56445 7.62695 3.36914 7.89062 3.36914C8.16406 3.36914 8.36914 3.56445 8.36914 3.84766L8.36914 4.59961L8.99414 4.59961L8.99414 3.84766C8.99414 3.56445 9.19922 3.36914 9.47266 3.36914C9.73633 3.36914 9.94141 3.56445 9.94141 3.84766L9.94141 4.63867C11.25 4.83398 12.0801 5.71289 12.0801 6.92383C12.0801 7.75391 11.5723 8.52539 10.8496 8.87695C11.8652 9.17969 12.5098 10 12.5098 11.1035C12.5098 12.5391 11.5625 13.4766 9.94141 13.6523L9.94141 14.4531C9.94141 14.7363 9.73633 14.9316 9.47266 14.9316C9.19922 14.9316 8.99414 14.7363 8.99414 14.4531L8.99414 13.6816L8.36914 13.6816L8.36914 14.4531C8.36914 14.7363 8.16406 14.9316 7.89062 14.9316C7.62695 14.9316 7.42188 14.7363 7.42188 14.4531L7.42188 13.6816L7.01172 13.6816C6.55273 13.6816 6.24023 13.3691 6.24023 12.9199ZM7.5 12.5391L9.25781 12.5293C10.5664 12.5195 11.2598 12.0215 11.2598 11.0547C11.2598 10.0684 10.5371 9.57031 9.14062 9.57031L7.5 9.57031ZM7.5 8.42773L8.88672 8.4375C10.1367 8.44727 10.8203 7.93945 10.8203 7.02148C10.8203 6.19141 10.2148 5.73242 9.16992 5.73242L7.5 5.73242Z" fill="var(--color-primary)"/>
 </g>
</svg>
