<svg version="1.1" xmlns="http://www.w3.org/2000/svg" xmlns:xlink="http://www.w3.org/1999/xlink" width="19.5996" height="18.5254" viewBox="0 0 19.5996 18.5254">
 <g>
  <rect height="18.5254" opacity="0" width="19.5996" x="0" y="0"/>
  <path d="M9.69727 18.5254C9.90234 18.5254 10.1953 18.3887 10.4102 18.2617C15.918 14.7461 19.4043 10.6543 19.4043 6.49414C19.4043 3.03711 17.0312 0.595703 13.9551 0.595703C12.0508 0.595703 10.5859 1.65039 9.69727 3.26172C8.82812 1.66016 7.35352 0.595703 5.43945 0.595703C2.37305 0.595703 0 3.03711 0 6.49414C0 10.6543 3.48633 14.7461 8.99414 18.2617C9.19922 18.3887 9.50195 18.5254 9.69727 18.5254Z" fill="var(--color-tertiary)"/>
  <path d="M6.42578 10.5566C6.42578 10.4492 6.47461 10.3613 6.55273 10.2637L10.5859 5.19531C10.8887 4.81445 11.3965 5.06836 11.2207 5.54688L9.89258 9.11133L12.3828 9.11133C12.5684 9.11133 12.7344 9.25781 12.7344 9.43359C12.7344 9.53125 12.6855 9.63867 12.5977 9.72656L8.57422 14.7949C8.26172 15.1758 7.75391 14.9121 7.92969 14.4434L9.26758 10.8691L6.76758 10.8691C6.58203 10.8691 6.42578 10.7324 6.42578 10.5566Z" fill="var(--color-primary)"/>
 </g>
</svg>
