<svg version="1.1" xmlns="http://www.w3.org/2000/svg" xmlns:xlink="http://www.w3.org/1999/xlink" width="23.4668" height="18.1543" viewBox="0 0 23.4668 18.1543">
 <g>
  <rect height="18.1543" opacity="0" width="23.4668" x="0" y="0"/>
  <path d="M16.875 0.136719C18.1738 0.3125 19.1797 0.966797 19.707 2.07031C20.0391 2.79297 20.6934 4.63867 21.0449 6.39648L21.875 7.46094C22.7734 8.63281 23.1055 9.55078 23.1055 11.2012L23.1055 16.8262C23.1055 17.5488 22.5488 18.1152 21.8164 18.1152L20.6641 18.1152C19.9316 18.1152 19.375 17.5488 19.375 16.8262L19.375 15.1901C17.213 15.3324 14.0651 15.4297 11.5527 15.4297C9.04264 15.4297 5.90391 15.3325 3.74023 15.1905L3.74023 16.8262C3.74023 17.5488 3.17383 18.1152 2.44141 18.1152L1.29883 18.1152C0.566406 18.1152 0 17.5488 0 16.8262L0 11.2012C0 9.55078 0.332031 8.63281 1.24023 7.46094L2.06055 6.39648C2.42188 4.63867 3.06641 2.79297 3.4082 2.07031C3.92578 0.966797 4.94141 0.292969 6.24023 0.136719C6.89453 0.0585938 9.0332 0 11.5527 0C14.082 0 16.2207 0.0488281 16.875 0.136719ZM12.5293 2.97852L8.49609 8.04688C8.41797 8.14453 8.36914 8.23242 8.36914 8.33984C8.36914 8.51562 8.52539 8.65234 8.71094 8.65234L11.2109 8.65234L9.87305 12.2266C9.6875 12.6953 10.2051 12.959 10.5176 12.5781L14.5312 7.50977C14.6289 7.42188 14.6777 7.31445 14.6777 7.2168C14.6777 7.04102 14.5117 6.89453 14.3262 6.89453L11.8359 6.89453L13.1641 3.33008C13.3398 2.85156 12.832 2.59766 12.5293 2.97852Z" fill="var(--color-primary)"/>
 </g>
</svg>
