<svg version="1.1" xmlns="http://www.w3.org/2000/svg" xmlns:xlink="http://www.w3.org/1999/xlink" width="20.2832" height="19.9316" viewBox="0 0 20.2832 19.9316">
 <g>
  <rect height="19.9316" opacity="0" width="20.2832" x="0" y="0"/>
  <path d="M19.9219 9.96094C19.9219 15.4004 15.4102 19.9219 9.96094 19.9219C4.52148 19.9219 0 15.4004 0 9.96094C0 4.51172 4.51172 0 9.95117 0C15.4004 0 19.9219 4.51172 19.9219 9.96094ZM1.66992 9.96094C1.66992 14.5703 5.35156 18.2617 9.96094 18.2617C14.5703 18.2617 18.2617 14.5703 18.2617 9.96094C18.2617 5.35156 14.5605 1.66016 9.95117 1.66016C5.3418 1.66016 1.66992 5.35156 1.66992 9.96094Z" fill="var(--color-primary)"/>
  <path d="M11.2324 12.8367L8.50586 16.2598C8.0957 16.7676 7.43164 16.4258 7.66602 15.8008L9.43359 11.0547L6.12305 11.0547C5.86914 11.0547 5.67383 10.8789 5.67383 10.6348C5.67383 10.5078 5.73242 10.3711 5.83984 10.2441L7.07937 8.68795ZM13.5742 8.74023C13.8281 8.74023 14.0234 8.91602 14.0234 9.16016C14.0234 9.28711 13.9648 9.42383 13.8574 9.54102L12.6494 11.0576L10.332 8.74023ZM12.0312 3.99414L10.2822 8.69043L8.49831 6.90651L11.1914 3.52539C11.6016 3.02734 12.2656 3.36914 12.0312 3.99414Z" fill="var(--color-primary)"/>
  <path d="M14.3652 15C14.5312 15.166 14.8242 15.166 14.9902 15C15.166 14.8145 15.166 14.5508 14.9902 14.375L5.54688 4.92188C5.37109 4.74609 5.08789 4.74609 4.91211 4.92188C4.73633 5.08789 4.74609 5.38086 4.91211 5.54688Z" fill="var(--color-primary)"/>
 </g>
</svg>
