<svg version="1.1" xmlns="http://www.w3.org/2000/svg" xmlns:xlink="http://www.w3.org/1999/xlink" width="20.2832" height="19.9316" viewBox="0 0 20.2832 19.9316">
 <g>
  <rect height="19.9316" opacity="0" width="20.2832" x="0" y="0"/>
  <path d="M9.96094 19.9219C15.4102 19.9219 19.9219 15.4004 19.9219 9.96094C19.9219 4.51172 15.4004 0 9.95117 0C4.51172 0 0 4.51172 0 9.96094C0 15.4004 4.52148 19.9219 9.96094 19.9219ZM9.96094 18.2617C5.35156 18.2617 1.66992 14.5703 1.66992 9.96094C1.66992 5.35156 5.3418 1.66016 9.95117 1.66016C14.5605 1.66016 18.2617 5.35156 18.2617 9.96094C18.2617 14.5703 14.5703 18.2617 9.96094 18.2617Z" fill="var(--color-secondary)"/>
  <path d="M4.59961 13.1934C4.59961 13.5352 4.86328 13.7891 5.20508 13.7891L5.74219 13.7891C6.07422 13.7891 6.33789 13.5352 6.33789 13.1934L6.33789 12.4414C7.34375 12.5 8.79883 12.5488 9.96094 12.5488C11.123 12.5488 12.5684 12.5 13.5742 12.4414L13.5742 13.1934C13.5742 13.5352 13.8379 13.7891 14.1797 13.7891L14.7168 13.7891C15.0488 13.7891 15.3125 13.5352 15.3125 13.1934L15.3125 10.5859C15.3125 9.83398 15.1562 9.4043 14.7363 8.85742L14.3555 8.36914C14.1797 7.54883 13.8867 6.68945 13.7402 6.35742C13.4961 5.84961 13.0273 5.55664 12.4219 5.46875C12.1191 5.42969 11.123 5.41016 9.96094 5.41016C8.78906 5.41016 7.80273 5.42969 7.49023 5.46875C6.89453 5.54688 6.42578 5.84961 6.18164 6.35742C6.02539 6.68945 5.73242 7.54883 5.56641 8.36914L5.17578 8.85742C4.76562 9.4043 4.59961 9.83398 4.59961 10.5859ZM8.34961 9.33594C8.34961 9.27734 8.36914 9.21875 8.41797 9.16016L10.3809 6.65039C10.5664 6.40625 10.8594 6.5625 10.752 6.8457L10.1465 8.47656L11.3672 8.47656C11.4844 8.47656 11.5723 8.56445 11.5723 8.68164C11.5723 8.73047 11.5332 8.79883 11.5039 8.84766L9.56055 11.3574C9.375 11.6016 9.0625 11.4355 9.16992 11.1523L9.77539 9.51172L8.55469 9.51172C8.4375 9.51172 8.34961 9.43359 8.34961 9.33594Z" fill="var(--color-primary)"/>
 </g>
</svg>
