<svg version="1.1" xmlns="http://www.w3.org/2000/svg" xmlns:xlink="http://www.w3.org/1999/xlink" width="19.5996" height="18.5254" viewBox="0 0 19.5996 18.5254">
 <g>
  <rect height="18.5254" opacity="0" width="19.5996" x="0" y="0"/>
  <path d="M0 6.49414C0 10.6543 3.48633 14.7461 8.99414 18.2617C9.19922 18.3887 9.50195 18.5254 9.69727 18.5254C9.90234 18.5254 10.1953 18.3887 10.4102 18.2617C15.918 14.7461 19.4043 10.6543 19.4043 6.49414C19.4043 3.03711 17.0312 0.595703 13.8574 0.595703C12.0508 0.595703 10.5859 1.45508 9.69727 2.77344C8.82812 1.46484 7.35352 0.595703 5.53711 0.595703C2.37305 0.595703 0 3.03711 0 6.49414ZM1.57227 6.49414C1.57227 3.89648 3.25195 2.16797 5.51758 2.16797C7.36328 2.16797 8.4082 3.31055 9.04297 4.28711C9.30664 4.67773 9.47266 4.78516 9.69727 4.78516C9.93164 4.78516 10.0781 4.66797 10.3613 4.28711C11.0352 3.33008 12.0508 2.16797 13.877 2.16797C16.1523 2.16797 17.832 3.89648 17.832 6.49414C17.832 10.127 13.9941 14.043 9.90234 16.7578C9.80469 16.8262 9.73633 16.875 9.69727 16.875C9.66797 16.875 9.59961 16.8262 9.50195 16.7578C5.41016 14.043 1.57227 10.127 1.57227 6.49414Z" fill="var(--color-primary)"/>
  <path d="M6.52344 10.5176C6.52344 10.6934 6.66992 10.8203 6.85547 10.8203L9.27734 10.8203L7.97852 14.2871C7.8125 14.7461 8.30078 15 8.60352 14.6289L12.5098 9.7168C12.5879 9.62891 12.6367 9.52148 12.6367 9.43359C12.6367 9.25781 12.4805 9.12109 12.2949 9.12109L9.88281 9.12109L11.1719 5.66406C11.3379 5.19531 10.8496 4.95117 10.5566 5.32227L6.64062 10.2344C6.57227 10.332 6.52344 10.4199 6.52344 10.5176Z" fill="var(--color-primary)"/>
 </g>
</svg>
