<?xml version="1.0" encoding="UTF-8"?>
<!--Generator: Apple Native CoreSVG 232.5-->
<!DOCTYPE svg
PUBLIC "-//W3C//DTD SVG 1.1//EN"
       "http://www.w3.org/Graphics/SVG/1.1/DTD/svg11.dtd">
<svg version="1.1" xmlns="http://www.w3.org/2000/svg" xmlns:xlink="http://www.w3.org/1999/xlink" width="20.2832" height="19.9316">
 <g>
  <rect height="19.9316" opacity="0" width="20.2832" x="0" y="0"/>
  <path d="M9.96094 19.9316C15.4102 19.9316 19.9219 15.4199 19.9219 9.9707C19.9219 4.53125 15.4004 0.00976562 9.95117 0.00976562C4.51172 0.00976562 0 4.53125 0 9.9707C0 15.4199 4.52148 19.9316 9.96094 19.9316Z" fill="#ffffff" fill-opacity="0.25"/>
  <path d="M4.21875 14.3359L4.21875 6.46484C4.21875 6.10352 4.43359 5.9082 4.81445 5.9082L5.68359 5.9082C6.05469 5.9082 6.25977 6.10352 6.25977 6.46484L6.25977 14.3359C6.25977 14.6973 6.05469 14.9023 5.68359 14.9023L4.81445 14.9023C4.43359 14.9023 4.21875 14.6973 4.21875 14.3359ZM6.93359 14.3359L6.93359 8.05664C6.93359 7.70508 7.14844 7.48047 7.50977 7.48047L9.39453 7.48047C9.77539 7.48047 9.96094 7.70508 9.96094 8.05664L9.96094 14.3359C9.96094 14.6973 9.77539 14.9023 9.39453 14.9023L7.50977 14.9023C7.14844 14.9023 6.93359 14.6973 6.93359 14.3359ZM7.65625 13.5352C7.65625 13.7109 7.7832 13.8477 7.94922 13.8477L8.96484 13.8477C9.14062 13.8477 9.26758 13.7109 9.26758 13.5352C9.26758 13.3691 9.14062 13.2324 8.96484 13.2324L7.94922 13.2324C7.77344 13.2324 7.65625 13.3594 7.65625 13.5352ZM7.65625 8.86719C7.65625 9.02344 7.77344 9.16992 7.94922 9.16992L8.96484 9.16992C9.14062 9.16992 9.26758 9.01367 9.26758 8.86719C9.26758 8.69141 9.14062 8.56445 8.96484 8.56445L7.94922 8.56445C7.7832 8.56445 7.65625 8.69141 7.65625 8.86719ZM10.6543 14.3359L10.6543 5.18555C10.6543 4.81445 10.8398 4.60938 11.2207 4.60938L12.3633 4.60938C12.7344 4.60938 12.9395 4.81445 12.9395 5.18555L12.9395 6.18164L13.7109 5.98633C14.0723 5.89844 14.3066 6.08398 14.375 6.44531L15.957 14.043C16.0156 14.4043 15.8594 14.6484 15.498 14.7266L14.7656 14.9023C14.4141 14.9902 14.1699 14.8145 14.1016 14.4629L12.9395 8.83789L12.9395 14.3359C12.9395 14.6973 12.7344 14.9023 12.3633 14.9023L11.2207 14.9023C10.8398 14.9023 10.6543 14.6973 10.6543 14.3359Z" fill="#ffffff" fill-opacity="0.85"/>
 </g>
</svg>
