<svg version="1.1" xmlns="http://www.w3.org/2000/svg" xmlns:xlink="http://www.w3.org/1999/xlink" width="20.2832" height="19.9316" viewBox="0 0 20.2832 19.9316">
 <g>
  <rect height="19.9316" opacity="0" width="20.2832" x="0" y="0"/>
  <path d="M9.96094 19.9219C15.4102 19.9219 19.9219 15.4004 19.9219 9.96094C19.9219 4.51172 15.4004 0 9.95117 0C4.51172 0 0 4.51172 0 9.96094C0 15.4004 4.52148 19.9219 9.96094 19.9219ZM9.96094 18.2617C5.35156 18.2617 1.66992 14.5703 1.66992 9.96094C1.66992 5.35156 5.3418 1.66016 9.95117 1.66016C14.5605 1.66016 18.2617 5.35156 18.2617 9.96094C18.2617 14.5703 14.5703 18.2617 9.96094 18.2617Z" fill="var(--color-primary)"/>
  <path d="M7.06055 15.1367C7.31445 15.1367 7.46094 14.9902 7.91016 14.5508L9.90234 12.5879C9.93164 12.5586 9.9707 12.5586 10 12.5879L12.002 14.5508C12.4414 14.9902 12.5879 15.1367 12.8418 15.1367C13.1641 15.1367 13.3691 14.9023 13.3691 14.5117L13.3691 6.28906C13.3691 5.3418 12.8809 4.84375 11.9336 4.84375L7.96875 4.84375C7.02148 4.84375 6.5332 5.3418 6.5332 6.28906L6.5332 14.5117C6.5332 14.9023 6.73828 15.1367 7.06055 15.1367Z" fill="var(--color-primary)"/>
 </g>
</svg>
