<?xml version="1.0" encoding="UTF-8"?>
<!--Generator: Apple Native CoreSVG 232.5-->
<!DOCTYPE svg
PUBLIC "-//W3C//DTD SVG 1.1//EN"
       "http://www.w3.org/Graphics/SVG/1.1/DTD/svg11.dtd">
<svg version="1.1" xmlns="http://www.w3.org/2000/svg" xmlns:xlink="http://www.w3.org/1999/xlink" width="18.3398" height="17.998">
 <g>
  <rect height="17.998" opacity="0" width="18.3398" x="0" y="0"/>
  <path d="M3.06641 17.998L14.9121 17.998C16.9629 17.998 17.9785 16.9824 17.9785 14.9707L17.9785 3.04688C17.9785 1.03516 16.9629 0.0195312 14.9121 0.0195312L3.06641 0.0195312C1.02539 0.0195312 0 1.02539 0 3.04688L0 14.9707C0 16.9922 1.02539 17.998 3.06641 17.998ZM3.08594 16.4258C2.10938 16.4258 1.57227 15.9082 1.57227 14.8926L1.57227 3.125C1.57227 2.10938 2.10938 1.5918 3.08594 1.5918L14.8926 1.5918C15.8594 1.5918 16.4062 2.10938 16.4062 3.125L16.4062 14.8926C16.4062 15.9082 15.8594 16.4258 14.8926 16.4258Z" fill="#ffffff" fill-opacity="0.85"/>
  <path d="M4.69727 13.4082C5.06836 13.4082 5.33203 13.1445 5.33203 12.7637L5.33203 9.61914L6.10352 9.61914C6.17188 9.61914 6.23047 9.61914 6.30859 9.61914L7.60742 12.998C7.71484 13.291 7.94922 13.4082 8.20312 13.4082C8.61328 13.4082 9.0332 13.0859 8.80859 12.5293L7.53906 9.375C8.36914 9.05273 8.79883 8.01758 8.79883 6.99219C8.79883 5.42969 8.02734 4.53125 6.37695 4.53125L4.79492 4.53125C4.31641 4.53125 4.05273 4.89258 4.05273 5.41992L4.05273 12.7637C4.05273 13.1445 4.31641 13.4082 4.69727 13.4082ZM5.33203 8.62305L5.33203 5.56641L6.24023 5.56641C7.09961 5.56641 7.5 6.12305 7.5 7.04102C7.5 7.96875 7.11914 8.62305 6.25 8.62305ZM12.0117 13.0078C13.418 13.0078 14.3848 12.1973 14.3848 10.8594C14.3848 9.91211 13.877 9.23828 12.7246 8.63281L11.8555 8.17383C11.3477 7.91016 10.8203 7.57812 10.8203 6.93359C10.8203 6.32812 11.2695 5.9375 11.9434 5.9375C12.6855 5.9375 13.0566 6.40625 13.1055 7.07031C13.1348 7.38281 13.3789 7.56836 13.6426 7.56836C13.9844 7.56836 14.3066 7.31445 14.2285 6.77734C14.0918 5.71289 13.2812 4.90234 11.9434 4.90234C10.6055 4.90234 9.61914 5.72266 9.61914 6.98242C9.61914 8.04688 10.2246 8.73047 11.2598 9.23828L12.0996 9.6582C12.6562 9.93164 13.1934 10.3613 13.1934 10.9473C13.1934 11.5625 12.7637 11.9727 12.0117 11.9727C11.1621 11.9727 10.791 11.543 10.7227 10.8301C10.6836 10.498 10.459 10.332 10.1953 10.332C9.86328 10.332 9.54102 10.6152 9.61914 11.123C9.77539 12.2461 10.6348 13.0078 12.0117 13.0078ZM12.002 14.0527C12.2168 14.0527 12.4023 13.8672 12.4023 13.6523L12.4023 4.28711C12.4023 4.0625 12.2168 3.87695 12.002 3.87695C11.7871 3.87695 11.5918 4.0625 11.5918 4.28711L11.5918 13.6523C11.5918 13.8672 11.7871 14.0527 12.002 14.0527Z" fill="#ffffff" fill-opacity="0.85"/>
 </g>
</svg>
