<?xml version="1.0" encoding="UTF-8"?>
<!--Generator: Apple Native CoreSVG 232.5-->
<!DOCTYPE svg
PUBLIC "-//W3C//DTD SVG 1.1//EN"
       "http://www.w3.org/Graphics/SVG/1.1/DTD/svg11.dtd">
<svg version="1.1" xmlns="http://www.w3.org/2000/svg" xmlns:xlink="http://www.w3.org/1999/xlink" width="18.3398" height="17.998">
 <g>
  <rect height="17.998" opacity="0" width="18.3398" x="0" y="0"/>
  <path d="M3.06641 17.998L14.9121 17.998C16.9629 17.998 17.9785 16.9824 17.9785 14.9707L17.9785 3.04688C17.9785 1.03516 16.9629 0.0195312 14.9121 0.0195312L3.06641 0.0195312C1.02539 0.0195312 0 1.02539 0 3.04688L0 14.9707C0 16.9922 1.02539 17.998 3.06641 17.998Z" fill="#ffffff" fill-opacity="0.25"/>
  <path d="M4.74609 13.5449C4.35547 13.5449 4.08203 13.2812 4.08203 12.8906L4.08203 5.3125C4.08203 4.76562 4.35547 4.39453 4.85352 4.39453L6.48438 4.39453C8.18359 4.39453 8.98438 5.32227 8.98438 6.94336C8.98438 7.99805 8.53516 9.0625 7.68555 9.38477L8.99414 12.6367C9.22852 13.2227 8.78906 13.5449 8.35938 13.5449C8.0957 13.5449 7.85156 13.4277 7.74414 13.1348L6.40625 9.63867C6.32812 9.64844 6.26953 9.64844 6.20117 9.64844L5.41016 9.64844L5.41016 12.8906C5.41016 13.2812 5.13672 13.5449 4.74609 13.5449ZM5.41016 8.62305L6.34766 8.62305C7.24609 8.62305 7.63672 7.94922 7.63672 6.99219C7.63672 6.04492 7.22656 5.46875 6.33789 5.46875L5.41016 5.46875ZM12.2852 14.2285C12.0605 14.2285 11.8652 14.0332 11.8652 13.7988L11.8652 13.1152C10.6934 12.9785 9.9707 12.2363 9.82422 11.1914C9.74609 10.6738 10.0781 10.3809 10.4199 10.3809C10.6934 10.3809 10.9277 10.5566 10.9668 10.8887C11.0254 11.4941 11.3086 11.9043 11.8652 12.0117L11.8652 9.43359L11.5234 9.25781C10.459 8.71094 9.82422 8.02734 9.82422 6.93359C9.82422 5.75195 10.6641 4.93164 11.8652 4.80469L11.8652 4.14062C11.8652 3.91602 12.0605 3.7207 12.2852 3.7207C12.5098 3.7207 12.7051 3.91602 12.7051 4.14062L12.7051 4.81445C13.7988 4.98047 14.4629 5.73242 14.5801 6.70898C14.668 7.27539 14.3262 7.5293 13.9746 7.5293C13.7012 7.5293 13.4473 7.34375 13.418 7.01172C13.3789 6.49414 13.1445 6.08398 12.7051 5.9375L12.7051 8.44727L13.0371 8.63281C14.209 9.26758 14.7461 9.95117 14.7461 10.918C14.7461 12.168 13.9355 12.9785 12.7051 13.125L12.7051 13.7988C12.7051 14.0332 12.5098 14.2285 12.2852 14.2285ZM11.8652 5.89844C11.377 6.01562 11.0742 6.36719 11.0742 6.88477C11.0742 7.42188 11.4258 7.73438 11.8164 7.96875L11.8652 7.99805ZM12.7051 12.0117C13.2227 11.9043 13.5156 11.5234 13.5156 11.0059C13.5156 10.5371 13.1738 10.1758 12.7441 9.90234L12.7051 9.89258Z" fill="#ffffff" fill-opacity="0.85"/>
 </g>
</svg>
