<svg version="1.1" xmlns="http://www.w3.org/2000/svg" xmlns:xlink="http://www.w3.org/1999/xlink" width="21.8848" height="21.8066" viewBox="0 0 21.8848 21.8066">
 <g>
  <rect height="21.8066" opacity="0" width="21.8848" x="0" y="0"/>
  <path d="M10.7422 0C10.3027 0 9.89258 0.185547 9.50195 0.859375L7.69531 3.87695L4.47266 3.87695C1.5625 3.87695 0 5.47852 0 8.34961L0 15.8301C0 18.7012 1.5625 20.3027 4.47266 20.3027L17.0508 20.3027C19.9609 20.3027 21.5234 18.6914 21.5234 15.8301L21.5234 8.34961C21.5234 5.48828 19.9609 3.87695 17.0508 3.87695L13.7891 3.87695L11.9824 0.859375C11.5918 0.185547 11.1816 0 10.7422 0ZM10.7422 1.60156L12.373 4.6582C12.6953 5.29297 12.9297 5.44922 13.623 5.44922L17.0508 5.44922C19.0137 5.44922 19.9512 6.44531 19.9512 8.34961L19.9512 15.8203C19.9512 17.7246 19.0137 18.7305 17.0508 18.7305L4.47266 18.7305C2.5 18.7305 1.57227 17.7246 1.57227 15.8203L1.57227 8.34961C1.57227 6.44531 2.5 5.44922 4.47266 5.44922L7.86133 5.44922C8.55469 5.44922 8.78906 5.29297 9.11133 4.6582Z" fill="currentColor"/>
 </g>
</svg>
