<svg version="1.1" xmlns="http://www.w3.org/2000/svg" xmlns:xlink="http://www.w3.org/1999/xlink" width="20.2832" height="19.9316" viewBox="0 0 20.2832 19.9316">
 <g>
  <rect height="19.9316" opacity="0" width="20.2832" x="0" y="0"/>
  <path d="M9.96094 19.9219C15.4102 19.9219 19.9219 15.4004 19.9219 9.96094C19.9219 4.51172 15.4004 0 9.95117 0C4.51172 0 0 4.51172 0 9.96094C0 15.4004 4.52148 19.9219 9.96094 19.9219ZM9.96094 18.2617C5.35156 18.2617 1.66992 14.5703 1.66992 9.96094C1.66992 5.35156 5.3418 1.66016 9.95117 1.66016C14.5605 1.66016 18.2617 5.35156 18.2617 9.96094C18.2617 14.5703 14.5703 18.2617 9.96094 18.2617Z" fill="currentColor"/>
  <path d="M12.4121 15.5957C12.6758 15.5957 12.832 15.4102 12.832 15.1172L12.832 13.7207L13.0664 13.7207C14.4824 13.7207 15.2637 12.9297 15.2637 11.5137L15.2637 7.83203C15.2637 6.42578 14.4824 5.63477 13.0664 5.63477L6.85547 5.63477C5.43945 5.63477 4.6582 6.43555 4.6582 7.83203L4.6582 11.5137C4.6582 12.9297 5.43945 13.7207 6.85547 13.7207L10.127 13.7207L11.875 15.3027C12.0898 15.5078 12.2168 15.5957 12.4121 15.5957Z" fill="currentColor"/>
 </g>
</svg>
