<svg version="1.1" xmlns="http://www.w3.org/2000/svg" xmlns:xlink="http://www.w3.org/1999/xlink" width="20.2832" height="19.9316" viewBox="0 0 20.2832 19.9316">
 <g>
  <rect height="19.9316" opacity="0" width="20.2832" x="0" y="0"/>
  <path d="M19.9219 9.9707C19.9219 15.4199 15.4102 19.9316 9.96094 19.9316C4.52148 19.9316 0 15.4199 0 9.9707C0 4.53125 4.51172 0.00976562 9.95117 0.00976562C15.4004 0.00976562 19.9219 4.53125 19.9219 9.9707ZM6.75781 5.49805C5.30273 5.49805 4.49219 6.31836 4.49219 7.75391L4.49219 11.5527C4.49219 13.0078 5.30273 13.8281 6.75781 13.8281L10.127 13.8281L11.9238 15.459C12.1484 15.6836 12.2852 15.7715 12.4805 15.7715C12.7539 15.7715 12.9199 15.5664 12.9199 15.2637L12.9199 13.8281L13.1641 13.8281C14.6191 13.8281 15.4297 13.0078 15.4297 11.5527L15.4297 7.75391C15.4297 6.31836 14.6191 5.49805 13.1641 5.49805Z" fill="var(--color-primary)"/>
 </g>
</svg>
