<svg version="1.1" xmlns="http://www.w3.org/2000/svg" xmlns:xlink="http://www.w3.org/1999/xlink" width="15.2441" height="20.8301" viewBox="0 0 15.2441 20.8301">
 <g>
  <rect height="20.8301" opacity="0" width="15.2441" x="0" y="0"/>
  <path d="M0 19.0527C0 20.1367 0.625 20.8301 1.62109 20.8301L13.2617 20.8301C14.2578 20.8301 14.8828 20.1367 14.8828 19.0527L14.8828 1.78711C14.8828 0.703125 14.2578 0.00976562 13.2617 0.00976562L1.62109 0.00976562C0.625 0.00976562 0 0.703125 0 1.78711ZM4.0625 19.2578L4.0625 16.084C4.0625 15.6348 4.35547 15.3418 4.80469 15.3418L10.166 15.3418C10.6152 15.3418 10.9082 15.6348 10.9082 16.084L10.9082 19.2578ZM3.74023 5.25391L3.74023 3.35938C3.74023 3.11523 3.89648 2.93945 4.14062 2.93945L6.09375 2.93945C6.33789 2.93945 6.51367 3.11523 6.51367 3.35938L6.51367 5.25391C6.51367 5.50781 6.33789 5.67383 6.09375 5.67383L4.14062 5.67383C3.89648 5.67383 3.74023 5.50781 3.74023 5.25391ZM8.45703 5.25391L8.45703 3.35938C8.45703 3.11523 8.61328 2.93945 8.86719 2.93945L10.8105 2.93945C11.0547 2.93945 11.2305 3.11523 11.2305 3.35938L11.2305 5.25391C11.2305 5.50781 11.0547 5.67383 10.8105 5.67383L8.86719 5.67383C8.61328 5.67383 8.45703 5.50781 8.45703 5.25391ZM3.74023 9.23828L3.74023 7.34375C3.74023 7.09961 3.89648 6.92383 4.14062 6.92383L6.09375 6.92383C6.33789 6.92383 6.51367 7.09961 6.51367 7.34375L6.51367 9.23828C6.51367 9.49219 6.33789 9.6582 6.09375 9.6582L4.14062 9.6582C3.89648 9.6582 3.74023 9.49219 3.74023 9.23828ZM8.45703 9.23828L8.45703 7.34375C8.45703 7.09961 8.61328 6.92383 8.86719 6.92383L10.8105 6.92383C11.0547 6.92383 11.2305 7.09961 11.2305 7.34375L11.2305 9.23828C11.2305 9.49219 11.0547 9.6582 10.8105 9.6582L8.86719 9.6582C8.61328 9.6582 8.45703 9.49219 8.45703 9.23828ZM3.74023 13.2227L3.74023 11.3281C3.74023 11.0742 3.89648 10.9082 4.14062 10.9082L6.09375 10.9082C6.33789 10.9082 6.51367 11.0742 6.51367 11.3281L6.51367 13.2227C6.51367 13.4668 6.33789 13.6426 6.09375 13.6426L4.14062 13.6426C3.89648 13.6426 3.74023 13.4668 3.74023 13.2227ZM8.45703 13.2227L8.45703 11.3281C8.45703 11.0742 8.61328 10.9082 8.86719 10.9082L10.8105 10.9082C11.0547 10.9082 11.2305 11.0742 11.2305 11.3281L11.2305 13.2227C11.2305 13.4668 11.0547 13.6426 10.8105 13.6426L8.86719 13.6426C8.61328 13.6426 8.45703 13.4668 8.45703 13.2227Z" fill="currentColor"/>
 </g>
</svg>
