<svg version="1.1" xmlns="http://www.w3.org/2000/svg" xmlns:xlink="http://www.w3.org/1999/xlink" width="20.2832" height="19.9316" viewBox="0 0 20.2832 19.9316">
 <g>
  <rect height="19.9316" opacity="0" width="20.2832" x="0" y="0"/>
  <path d="M9.96094 19.9219C15.4102 19.9219 19.9219 15.4004 19.9219 9.96094C19.9219 4.51172 15.4004 0 9.95117 0C4.51172 0 0 4.51172 0 9.96094C0 15.4004 4.52148 19.9219 9.96094 19.9219ZM9.96094 18.2617C5.35156 18.2617 1.66992 14.5703 1.66992 9.96094C1.66992 5.35156 5.3418 1.66016 9.95117 1.66016C14.5605 1.66016 18.2617 5.35156 18.2617 9.96094C18.2617 14.5703 14.5703 18.2617 9.96094 18.2617Z" fill="var(--color-secondary)"/>
  <path d="M4.79492 7.30469C4.79492 7.51953 4.96094 7.72461 5.23438 7.72461L14.6777 7.72461C14.9512 7.72461 15.1172 7.51953 15.1172 7.30469C15.1172 7.1582 15.0391 7.02148 14.8438 6.91406L10.5762 4.46289C10.3711 4.33594 10.166 4.27734 9.95117 4.27734C9.73633 4.27734 9.54102 4.33594 9.33594 4.46289L5.05859 6.91406C4.87305 7.02148 4.79492 7.1582 4.79492 7.30469ZM5.43945 12.9688C5.43945 13.1738 5.56641 13.3008 5.78125 13.3008L7.06055 13.3008C7.26562 13.3008 7.39258 13.1738 7.39258 12.9688L7.39258 12.8418C7.39258 12.6562 7.26562 12.5098 7.06055 12.5098L6.81641 12.5098L6.81641 9.10156L7.06055 9.10156C7.26562 9.10156 7.39258 8.98438 7.39258 8.7793L7.39258 8.65234C7.39258 8.44727 7.26562 8.32031 7.06055 8.32031L5.78125 8.32031C5.56641 8.32031 5.43945 8.44727 5.43945 8.65234L5.43945 8.7793C5.43945 8.98438 5.56641 9.10156 5.78125 9.10156L6.02539 9.10156L6.02539 12.5098L5.78125 12.5098C5.56641 12.5098 5.43945 12.6562 5.43945 12.8418ZM7.82227 12.9688C7.82227 13.1738 7.93945 13.3008 8.14453 13.3008L9.43359 13.3008C9.64844 13.3008 9.77539 13.1738 9.77539 12.9688L9.77539 12.8418C9.77539 12.6562 9.63867 12.5098 9.43359 12.5098L9.18945 12.5098L9.18945 9.10156L9.43359 9.10156C9.64844 9.10156 9.77539 8.98438 9.77539 8.7793L9.77539 8.65234C9.77539 8.44727 9.63867 8.32031 9.43359 8.32031L8.14453 8.32031C7.93945 8.32031 7.82227 8.44727 7.82227 8.65234L7.82227 8.7793C7.82227 8.98438 7.93945 9.10156 8.14453 9.10156L8.39844 9.10156L8.39844 12.5098L8.14453 12.5098C7.93945 12.5098 7.82227 12.6562 7.82227 12.8418ZM10.1953 12.9688C10.1953 13.1738 10.3223 13.3008 10.5371 13.3008L11.8164 13.3008C12.0117 13.3008 12.1582 13.1738 12.1582 12.9688L12.1582 12.8418C12.1582 12.6562 12.0117 12.5098 11.8164 12.5098L11.5625 12.5098L11.5625 9.10156L11.8164 9.10156C12.0117 9.10156 12.1582 8.98438 12.1582 8.7793L12.1582 8.65234C12.1582 8.44727 12.0117 8.32031 11.8164 8.32031L10.5371 8.32031C10.3223 8.32031 10.1953 8.44727 10.1953 8.65234L10.1953 8.7793C10.1953 8.98438 10.3223 9.10156 10.5371 9.10156L10.7812 9.10156L10.7812 12.5098L10.5371 12.5098C10.3223 12.5098 10.1953 12.6562 10.1953 12.8418ZM12.5684 12.9688C12.5684 13.1738 12.6953 13.3008 12.9102 13.3008L14.1895 13.3008C14.3945 13.3008 14.5312 13.1738 14.5312 12.9688L14.5312 12.8418C14.5312 12.6562 14.3848 12.5098 14.1895 12.5098L13.9453 12.5098L13.9453 9.10156L14.1895 9.10156C14.3945 9.10156 14.5312 8.98438 14.5312 8.7793L14.5312 8.65234C14.5312 8.44727 14.3848 8.32031 14.1895 8.32031L12.9102 8.32031C12.6953 8.32031 12.5684 8.44727 12.5684 8.65234L12.5684 8.7793C12.5684 8.98438 12.6953 9.10156 12.9102 9.10156L13.1641 9.10156L13.1641 12.5098L12.9102 12.5098C12.6953 12.5098 12.5684 12.6562 12.5684 12.8418ZM4.58008 14.3164C4.58008 14.541 4.76562 14.7266 4.99023 14.7266L14.9219 14.7266C15.1465 14.7266 15.332 14.541 15.332 14.3164C15.332 14.082 15.1562 13.8965 14.9219 13.8965L4.99023 13.8965C4.76562 13.8965 4.58008 14.082 4.58008 14.3164Z" fill="var(--color-primary)"/>
 </g>
</svg>
