<svg version="1.1" xmlns="http://www.w3.org/2000/svg" xmlns:xlink="http://www.w3.org/1999/xlink" width="21.709" height="22.6074" viewBox="0 0 21.709 22.6074">
 <g>
  <rect height="22.6074" opacity="0" width="21.709" x="0" y="0"/>
  <path d="M2.65625 22.6074L3.80859 22.6074C4.54102 22.6074 5.10742 22.041 5.10742 21.3184L5.10742 19.6973C7.04102 19.834 8.95508 19.9023 10.6738 19.9023C12.3926 19.9023 14.3066 19.8438 16.25 19.6973L16.25 21.3184C16.25 22.041 16.8066 22.6074 17.5391 22.6074L18.6914 22.6074C19.4238 22.6074 19.9902 22.041 19.9902 21.3184L19.9902 2.5293C19.9902 1.26953 19.248 0.546875 17.9297 0.390625C15.8496 0.146484 13.1836 0.0195312 10.6738 0.0195312C8.18359 0.0195312 5.51758 0.146484 3.42773 0.390625C2.09961 0.546875 1.36719 1.26953 1.36719 2.5293L1.36719 21.3184C1.36719 22.041 1.92383 22.6074 2.65625 22.6074ZM4.19922 13.2324C3.55469 13.125 3.23242 12.7637 3.23242 12.0703L3.23242 3.39844C3.23242 2.61719 3.60352 2.19727 4.3457 2.11914C8.41797 1.68945 12.959 1.68945 17.0215 2.11914C17.7734 2.19727 18.125 2.61719 18.125 3.39844L18.125 12.0703C18.125 12.7637 17.8125 13.125 17.1582 13.2324C13.1055 13.8281 8.21289 13.8281 4.19922 13.2324ZM4.80469 17.5879C4.08203 17.5879 3.54492 17.041 3.54492 16.3281C3.54492 15.6055 4.08203 15.0684 4.80469 15.0684C5.52734 15.0684 6.06445 15.6055 6.06445 16.3281C6.06445 17.041 5.52734 17.5879 4.80469 17.5879ZM8.54492 17.1582C8.03711 17.1582 7.68555 16.8066 7.68555 16.3086C7.68555 15.8008 8.03711 15.459 8.54492 15.459L12.793 15.459C13.291 15.459 13.6426 15.8008 13.6426 16.3086C13.6426 16.8066 13.291 17.1582 12.793 17.1582ZM16.543 17.5879C15.8301 17.5879 15.293 17.041 15.293 16.3281C15.293 15.6055 15.8301 15.0684 16.543 15.0684C17.2656 15.0684 17.8125 15.6055 17.8125 16.3281C17.8125 17.041 17.2656 17.5879 16.543 17.5879ZM1.36719 9.16016L1.36719 3.63281L0.927734 3.63281C0.380859 3.63281 0 3.97461 0 4.49219L0 8.31055C0 8.82812 0.380859 9.16016 0.927734 9.16016ZM19.9902 9.16016L20.4199 9.16016C20.9668 9.16016 21.3477 8.82812 21.3477 8.31055L21.3477 4.49219C21.3477 3.97461 20.9668 3.63281 20.4199 3.63281L19.9902 3.63281Z" fill="var(--color-primary)"/>
 </g>
</svg>
