<?xml version="1.0" encoding="UTF-8"?>
<!--Generator: Apple Native CoreSVG 232.5-->
<!DOCTYPE svg
PUBLIC "-//W3C//DTD SVG 1.1//EN"
       "http://www.w3.org/Graphics/SVG/1.1/DTD/svg11.dtd">
<svg version="1.1" xmlns="http://www.w3.org/2000/svg" xmlns:xlink="http://www.w3.org/1999/xlink" width="17.7344" height="20.9863">
 <g>
  <rect height="20.9863" opacity="0" width="17.7344" x="0" y="0"/>
  <path d="M11.5527 20.9766C15.0879 20.9766 17.373 18.7012 17.373 15.166L17.373 10.3516C17.373 9.01367 16.9531 7.93945 16.123 7.17773L9.96094 1.50391C8.75 0.400391 7.4707 0 5.94727 0L2.92969 0C1.17188 0 0 1.19141 0 2.95898L0 18.0469C0 19.8828 1.11328 20.9766 2.95898 20.9766ZM11.5234 19.4043L2.99805 19.4043C1.97266 19.4043 1.57227 19.0527 1.57227 18.0176L1.57227 2.97852C1.57227 2.13867 2.11914 1.57227 2.96875 1.57227L5.9082 1.57227C7.11914 1.57227 8.00781 1.86523 8.87695 2.65625L15.0293 8.31055C15.5664 8.79883 15.8008 9.39453 15.8008 10.3711L15.8008 15.1367C15.8008 17.8711 14.248 19.4043 11.5234 19.4043Z" fill="#ffffff" fill-opacity="0.85"/>
 </g>
</svg>
