<?xml version="1.0" encoding="UTF-8"?>
<!--Generator: Apple Native CoreSVG 232.5-->
<!DOCTYPE svg
PUBLIC "-//W3C//DTD SVG 1.1//EN"
       "http://www.w3.org/Graphics/SVG/1.1/DTD/svg11.dtd">
<svg version="1.1" xmlns="http://www.w3.org/2000/svg" xmlns:xlink="http://www.w3.org/1999/xlink" width="25.6348" height="17.5727">
 <g>
  <rect height="17.5727" opacity="0" width="25.6348" x="0" y="0"/>
  <path d="M25.2734 9.89476L25.2734 3.77172C25.2734 2.0139 24.0918 0.822498 22.3242 0.822498L2.92969 0.832264C1.18164 0.832264 0 2.03344 0 3.80101L0 9.89476C0 12.4241 1.08398 13.9768 3.69141 14.7483L12.1484 17.2092C14.4141 17.8733 15.8691 17.6096 17.8906 16.5647L23.3789 13.7424C24.9316 12.9416 25.2734 11.9846 25.2734 9.89476ZM23.7012 9.89476C23.7012 11.3401 23.4277 11.9748 22.3828 12.5022L17.0508 15.2268C15.3711 16.0764 14.1797 16.2522 12.1484 15.6467L4.15039 13.2737C2.31445 12.7366 1.57227 11.6721 1.57227 9.89476L1.57227 3.83031C1.57227 2.97094 2.11914 2.40453 2.95898 2.40453L22.3047 2.39476C23.1445 2.39476 23.7012 2.9514 23.7012 3.80101Z" fill="#ffffff" fill-opacity="0.85"/>
 </g>
</svg>
