<?xml version="1.0" encoding="UTF-8"?>
<!--Generator: Apple Native CoreSVG 232.5-->
<!DOCTYPE svg
PUBLIC "-//W3C//DTD SVG 1.1//EN"
       "http://www.w3.org/Graphics/SVG/1.1/DTD/svg11.dtd">
<svg version="1.1" xmlns="http://www.w3.org/2000/svg" xmlns:xlink="http://www.w3.org/1999/xlink" width="24.1992" height="25.5566">
 <g>
  <rect height="25.5566" opacity="0" width="24.1992" x="0" y="0"/>
  <path d="M23.8379 14.375L23.8379 17.5586C23.8379 20.8691 21.7969 22.9883 18.6133 22.9883L5.22461 22.9883C2.04102 22.9883 0 20.8691 0 17.5586L0 14.375C0 11.4746 2.1875 9.62891 5.22461 9.62891L7.96092 9.62891L9.35618 11.2012L5.22461 11.2012C3.14453 11.2012 1.57227 12.4414 1.57227 14.375C1.57227 16.3086 3.14453 17.5488 5.22461 17.5488L18.6133 17.5488C20.6836 17.5488 22.2656 16.3086 22.2656 14.375C22.2656 12.4414 20.6836 11.2012 18.6133 11.2012L14.4755 11.2012L15.8754 9.62891L18.6133 9.62891C21.6504 9.62891 23.8379 11.4746 23.8379 14.375ZM18.6133 19.1211L5.22461 19.1211C3.76491 19.1211 2.50146 18.6947 1.58652 17.9262C1.72805 20.0599 3.12637 21.416 5.22461 21.416L18.6133 21.416C20.7115 21.416 22.1098 20.0599 22.2514 17.9262C21.3364 18.6947 20.073 19.1211 18.6133 19.1211Z" fill="#ffffff" fill-opacity="0.55"/>
  <path d="M12.6465 11.748L15.2637 8.78906C15.8691 8.11523 15.498 7.11914 14.5215 7.11914L12.9199 7.11914L12.9199 2.00195C12.9199 1.44531 12.4805 1.00586 11.9238 1.00586C11.3672 1.00586 10.9277 1.44531 10.9277 2.00195L10.9277 7.11914L9.30664 7.11914C8.36914 7.11914 7.94922 8.08594 8.56445 8.78906L11.1816 11.748C11.6016 12.2266 12.2168 12.2363 12.6465 11.748Z" fill="#ffffff" fill-opacity="0.85"/>
 </g>
</svg>
