<svg version="1.1" xmlns="http://www.w3.org/2000/svg" xmlns:xlink="http://www.w3.org/1999/xlink" width="18.3398" height="17.998" viewBox="0 0 18.3398 17.998">
 <g>
  <rect height="17.998" opacity="0" width="18.3398" x="0" y="0"/>
  <path d="M17.9785 3.04688L17.9785 14.9707C17.9785 16.9824 16.9629 17.998 14.9121 17.998L3.06641 17.998C1.02539 17.998 0 16.9922 0 14.9707L0 3.04688C0 1.02539 1.02539 0.0195312 3.06641 0.0195312L14.9121 0.0195312C16.9629 0.0195312 17.9785 1.03516 17.9785 3.04688ZM4.72656 8.90625C4.72656 11.8457 6.38672 13.7207 9.01367 13.7207C10.8008 13.7207 12.2168 12.8809 12.7051 11.5234C12.7734 11.3379 12.793 11.2012 12.793 11.0547C12.793 10.625 12.5195 10.3613 12.0996 10.3613C11.7871 10.3613 11.5918 10.5176 11.4258 10.8594C11.0059 11.8457 10.166 12.3828 9.0332 12.3828C7.43164 12.3828 6.35742 10.9863 6.35742 8.90625C6.35742 6.82617 7.43164 5.41992 9.0332 5.41992C10.166 5.41992 11.0059 5.95703 11.4258 6.95312C11.5918 7.29492 11.7871 7.44141 12.0996 7.44141C12.5195 7.44141 12.793 7.17773 12.793 6.74805C12.793 6.58203 12.7734 6.46484 12.7051 6.2793C12.2168 4.93164 10.791 4.08203 9.01367 4.08203C6.39648 4.08203 4.72656 5.9668 4.72656 8.90625Z" fill="currentColor"/>
 </g>
</svg>
