<svg version="1.1" xmlns="http://www.w3.org/2000/svg" xmlns:xlink="http://www.w3.org/1999/xlink" width="24.3457" height="25.4796" viewBox="0 0 24.3457 25.4796">
 <g>
  <rect height="25.4796" opacity="0" width="24.3457" x="0" y="0"/>
  <path d="M3.06641 21.7388L20.918 21.7388C22.9492 21.7388 23.9844 20.7232 23.9844 18.7115L23.9844 8.48689C23.9844 6.47517 22.9492 5.46931 20.918 5.46931L18.125 5.46931C17.3535 5.46931 17.1191 5.31306 16.6797 4.82478L15.8984 3.94587C15.4102 3.40876 14.9121 3.11579 13.9062 3.11579L10.0098 3.11579C9.00391 3.11579 8.50586 3.40876 8.01758 3.94587L7.23633 4.82478C6.79688 5.30329 6.55273 5.46931 5.79102 5.46931L3.06641 5.46931C1.02539 5.46931 0 6.47517 0 8.48689L0 18.7115C0 20.7232 1.02539 21.7388 3.06641 21.7388ZM3.08594 20.1666C2.12891 20.1666 1.57227 19.649 1.57227 18.6334L1.57227 8.57478C1.57227 7.55915 2.12891 7.04158 3.08594 7.04158L6.18164 7.04158C7.06055 7.04158 7.53906 6.87556 8.02734 6.32869L8.78906 5.46931C9.3457 4.84431 9.63867 4.68806 10.498 4.68806L13.418 4.68806C14.2773 4.68806 14.5703 4.84431 15.127 5.46931L15.8887 6.32869C16.377 6.87556 16.8555 7.04158 17.7344 7.04158L20.8887 7.04158C21.8555 7.04158 22.4121 7.55915 22.4121 8.57478L22.4121 18.6334C22.4121 19.649 21.8555 20.1666 20.8887 20.1666ZM11.9922 18.7603C14.9414 18.7603 17.3145 16.397 17.3145 13.4185C17.3145 10.4498 14.9512 8.0865 11.9922 8.0865C9.0332 8.0865 6.66016 10.4498 6.66016 13.4185C6.66016 16.397 9.0332 18.7603 11.9922 18.7603ZM11.9922 17.276C9.87305 17.276 8.13477 15.567 8.13477 13.4185C8.13477 11.2799 9.86328 9.56111 11.9922 9.56111C14.1211 9.56111 15.8398 11.2799 15.8398 13.4185C15.8398 15.567 14.1211 17.276 11.9922 17.276ZM17.7148 9.82478C17.7148 10.5084 18.2715 11.0455 18.9453 11.0455C19.5898 11.0455 20.1562 10.4986 20.1562 9.82478C20.1562 9.18025 19.5898 8.61384 18.9453 8.61384C18.2715 8.61384 17.7148 9.18025 17.7148 9.82478Z" fill="currentColor"/>
  <path d="M1.30859 1.38728L4.05273 3.74079C4.22852 3.88728 4.41406 4.00447 4.61914 4.00447C4.83398 4.00447 5.01953 3.88728 5.19531 3.74079L7.93945 1.38728C8.75 0.703685 7.79297-0.546315 6.89453 0.264232L4.61914 2.34431L2.35352 0.264232C1.44531-0.546315 0.498047 0.703685 1.30859 1.38728Z" fill="currentColor"/>
 </g>
</svg>
