<?xml version="1.0" encoding="UTF-8"?>
<!--Generator: Apple Native CoreSVG 232.5-->
<!DOCTYPE svg
PUBLIC "-//W3C//DTD SVG 1.1//EN"
       "http://www.w3.org/Graphics/SVG/1.1/DTD/svg11.dtd">
<svg version="1.1" xmlns="http://www.w3.org/2000/svg" xmlns:xlink="http://www.w3.org/1999/xlink" width="21.8848" height="21.4551">
 <g>
  <rect height="21.4551" opacity="0" width="21.8848" x="0" y="0"/>
  <path d="M6.00586 21.4551C6.48438 21.4551 6.81641 21.2012 7.41211 20.6738L10.7812 17.6758L17.0508 17.6758C19.9609 17.6758 21.5234 16.0645 21.5234 13.2031L21.5234 5.72266C21.5234 2.86133 19.9609 1.25 17.0508 1.25L4.47266 1.25C1.5625 1.25 0 2.85156 0 5.72266L0 13.2031C0 16.0742 1.5625 17.6758 4.47266 17.6758L4.94141 17.6758L4.94141 20.2148C4.94141 20.9668 5.32227 21.4551 6.00586 21.4551ZM6.40625 19.668L6.40625 16.8359C6.40625 16.3086 6.20117 16.1035 5.67383 16.1035L4.47266 16.1035C2.5 16.1035 1.57227 15.0977 1.57227 13.1934L1.57227 5.72266C1.57227 3.81836 2.5 2.82227 4.47266 2.82227L17.0508 2.82227C19.0137 2.82227 19.9512 3.81836 19.9512 5.72266L19.9512 13.1934C19.9512 15.0977 19.0137 16.1035 17.0508 16.1035L10.7227 16.1035C10.1758 16.1035 9.90234 16.1816 9.53125 16.5625Z" fill="#ffffff" fill-opacity="0.85"/>
  <path d="M4.58984 10.5957L8.61328 10.5957C8.92578 10.5957 9.17969 10.3418 9.17969 10.0195C9.17969 9.7168 8.92578 9.46289 8.61328 9.46289L4.58984 9.46289C4.27734 9.46289 4.02344 9.7168 4.02344 10.0195C4.02344 10.3418 4.27734 10.5957 4.58984 10.5957ZM10.6348 10.5957L16.9531 10.5957C17.2656 10.5957 17.5098 10.3418 17.5098 10.0195C17.5098 9.7168 17.2656 9.46289 16.9531 9.46289L10.6348 9.46289C10.3223 9.46289 10.0684 9.7168 10.0684 10.0195C10.0684 10.3418 10.3223 10.5957 10.6348 10.5957ZM4.58984 13.1445L6.25 13.1445C6.5625 13.1445 6.80664 12.9004 6.80664 12.5879C6.80664 12.2656 6.5625 12.0117 6.25 12.0117L4.58984 12.0117C4.27734 12.0117 4.02344 12.2656 4.02344 12.5879C4.02344 12.9004 4.27734 13.1445 4.58984 13.1445ZM8.26172 13.1445L13.1543 13.1445C13.4668 13.1445 13.7207 12.9004 13.7207 12.5879C13.7207 12.2656 13.4668 12.0117 13.1543 12.0117L8.26172 12.0117C7.94922 12.0117 7.70508 12.2656 7.70508 12.5879C7.70508 12.9004 7.94922 13.1445 8.26172 13.1445ZM15.1758 13.1445L16.9531 13.1445C17.2656 13.1445 17.5098 12.9004 17.5098 12.5879C17.5098 12.2656 17.2656 12.0117 16.9531 12.0117L15.1758 12.0117C14.8633 12.0117 14.6094 12.2656 14.6094 12.5879C14.6094 12.9004 14.8633 13.1445 15.1758 13.1445Z" fill="#ffffff" fill-opacity="0.85"/>
 </g>
</svg>
