<?xml version="1.0" encoding="UTF-8"?>
<!--Generator: Apple Native CoreSVG 232.5-->
<!DOCTYPE svg
PUBLIC "-//W3C//DTD SVG 1.1//EN"
       "http://www.w3.org/Graphics/SVG/1.1/DTD/svg11.dtd">
<svg version="1.1" xmlns="http://www.w3.org/2000/svg" xmlns:xlink="http://www.w3.org/1999/xlink" width="28.5061" height="14.6387">
 <g>
  <rect height="14.6387" opacity="0" width="28.5061" x="0" y="0"/>
  <path d="M0.800904 14.6387L2.07044 14.6387C2.65637 14.6387 2.94934 14.3555 3.11536 13.9355L8.50598 0.625C8.6427 0.302734 8.48645 0.0195312 8.14465 0.0195312L7.50989 0.0195312C7.16809 0.0195312 6.95325 0.185547 6.80676 0.478516L0.11731 13.5547C-0.156127 14.0527 0.039185 14.6387 0.800904 14.6387ZM26.0743 14.6387L27.3536 14.6387C28.1056 14.6387 28.3009 14.0527 28.0275 13.5547L21.3478 0.478516C21.1915 0.185547 20.9767 0.0195312 20.6349 0.0195312L20.0001 0.0195312C19.6583 0.0195312 19.5118 0.302734 19.6388 0.625L25.0294 13.9355C25.1954 14.3555 25.4884 14.6387 26.0743 14.6387Z" fill="#ffffff" fill-opacity="0.55"/>
  <path d="M7.87122 11.4062C7.87122 11.7871 8.17395 12.0898 8.55481 12.0898L9.17004 12.0898C9.56067 12.0898 9.85364 11.7871 9.85364 11.4062L9.85364 10.6543L18.1544 10.6543L18.1544 11.4062C18.1544 11.7871 18.4572 12.0898 18.8478 12.0898L19.4532 12.0898C19.8439 12.0898 20.1466 11.7871 20.1466 11.4062L20.1466 7.93945C20.1466 7.07031 20.0197 6.54297 19.4825 5.95703L18.965 5.39062L18.4181 3.82812C18.1251 2.97852 17.549 2.62695 16.8263 2.53906C16.4845 2.5 15.3517 2.4707 14.004 2.4707C12.6661 2.4707 11.5333 2.5 11.1818 2.53906C10.4591 2.62695 9.8927 2.97852 9.58997 3.82812L9.05286 5.39062L8.52551 5.95703C7.9884 6.54297 7.87122 7.07031 7.87122 7.93945ZM10.4689 5.41992C10.2247 5.41992 10.1368 5.23438 10.215 5.00977L10.5372 4.04297C10.6544 3.68164 10.8497 3.56445 11.1622 3.52539C11.5236 3.47656 12.5294 3.4375 14.004 3.4375C15.4884 3.4375 16.4845 3.47656 16.8458 3.52539C17.1583 3.56445 17.3536 3.68164 17.4708 4.04297L17.8029 5.00977C17.881 5.23438 17.7833 5.41992 17.5392 5.41992ZM9.74622 8.66211C9.42395 8.66211 9.18958 8.42773 9.18958 8.10547L9.18958 7.29492C9.18958 6.98242 9.42395 6.74805 9.74622 6.74805C10.0685 6.74805 10.3029 6.97266 10.3029 7.29492L10.3029 8.10547C10.3029 8.42773 10.0685 8.66211 9.74622 8.66211ZM12.8224 8.4082C12.5685 8.4082 12.4025 8.24219 12.4025 7.96875L12.4025 7.44141C12.4025 7.16797 12.5685 7.00195 12.8224 7.00195L15.1661 7.00195C15.4298 7.00195 15.5958 7.16797 15.5958 7.44141L15.5958 7.96875C15.5958 8.24219 15.4298 8.4082 15.1661 8.4082ZM18.3107 8.66211C18.0079 8.66211 17.7638 8.41797 17.7638 8.10547L17.7638 7.29492C17.7638 6.98242 18.0079 6.74805 18.3107 6.74805C18.6329 6.74805 18.8673 6.97266 18.8673 7.29492L18.8673 8.10547C18.8673 8.42773 18.6329 8.66211 18.3107 8.66211Z" fill="#ffffff" fill-opacity="0.85"/>
 </g>
</svg>
