<?xml version="1.0" encoding="UTF-8"?>
<!--Generator: Apple Native CoreSVG 232.5-->
<!DOCTYPE svg
PUBLIC "-//W3C//DTD SVG 1.1//EN"
       "http://www.w3.org/Graphics/SVG/1.1/DTD/svg11.dtd">
<svg version="1.1" xmlns="http://www.w3.org/2000/svg" xmlns:xlink="http://www.w3.org/1999/xlink" width="25.1229" height="25.3223">
 <g>
  <rect height="25.3223" opacity="0" width="25.1229" x="0" y="0"/>
  <path d="M2.44424 22.8613C3.93838 24.3652 5.84268 25.3125 7.91299 25.3125C8.41104 25.3125 8.75283 24.9902 8.75283 24.5312C8.75283 24.1113 8.4208 23.8379 7.86416 23.7988C6.2626 23.7012 4.7001 23.0371 3.4794 21.8262C2.26846 20.6055 1.6044 19.0527 1.50674 17.4414C1.45791 16.8164 1.20401 16.5723 0.715726 16.5723C0.334866 16.5723-0.0362275 16.8457 0.00283499 17.3828C0.129788 19.4531 0.930569 21.3672 2.44424 22.8613ZM22.3173 22.8613C23.831 21.3672 24.6317 19.4531 24.7587 17.3828C24.7978 16.8457 24.4267 16.5723 24.0458 16.5723C23.5673 16.5723 23.3036 16.8164 23.2548 17.4414C23.1571 19.0527 22.5028 20.6055 21.2821 21.8262C20.0614 23.0371 18.5087 23.7012 16.8974 23.7988C16.3505 23.8379 16.0185 24.1113 16.0185 24.5312C16.0185 24.9902 16.3505 25.3125 16.8583 25.3125C18.9189 25.3125 20.8231 24.3652 22.3173 22.8613Z" fill="#ffffff" fill-opacity="0.85"/>
  <path d="M4.86612 20.4297C5.87198 21.4355 7.23916 21.9336 8.07901 21.9336C8.53799 21.9336 8.85049 21.6406 8.85049 21.2207C8.85049 20.8301 8.57705 20.5176 7.97158 20.4297C7.21963 20.3516 6.51651 20 5.90127 19.3945C5.31533 18.7988 4.97354 18.0762 4.86612 17.2461C4.77823 16.6992 4.56338 16.4746 4.08487 16.4746C3.65518 16.4746 3.31338 16.8066 3.38174 17.334C3.50869 18.5254 4.01651 19.5801 4.86612 20.4297ZM19.8954 20.4297C20.7548 19.5801 21.2528 18.5254 21.3798 17.334C21.4481 16.8066 21.1064 16.4746 20.6767 16.4746C20.1981 16.4746 19.9931 16.6992 19.9052 17.2461C19.788 18.0762 19.4462 18.7988 18.8603 19.3945C18.245 20 17.5419 20.3516 16.7899 20.4297C16.1845 20.5176 15.9208 20.8301 15.9208 21.2207C15.911 21.6406 16.2333 21.9336 16.6825 21.9336C17.5224 21.9336 18.8896 21.4355 19.8954 20.4297Z" fill="#ffffff" fill-opacity="0.85"/>
  <path d="M12.3856 19.2285C16.1356 19.2285 17.8153 18.3789 17.8153 16.2207L17.8153 3.54492C17.8153 1.31836 15.7646 0 12.3856 0C9.00674 0 6.95596 1.31836 6.95596 3.54492L6.95596 16.2207C6.95596 18.3789 8.62588 19.2285 12.3856 19.2285ZM12.3759 8.03711C11.7021 8.03711 10.5595 8.0957 10.1786 8.0957C9.58291 8.0957 9.29971 7.8418 9.25088 7.20703L9.12393 5.80078C9.02627 4.63867 9.78799 4.19922 12.3759 4.19922C14.9833 4.19922 15.745 4.63867 15.6474 5.80078L15.5302 7.20703C15.4716 7.8418 15.1981 8.0957 14.5927 8.0957C14.2021 8.0957 13.1083 8.03711 12.3759 8.03711ZM12.3759 16.1133C9.78799 16.1133 8.96768 15.7324 9.15323 14.5312L9.26065 13.8477C9.40713 12.8906 10.1493 12.5879 12.3759 12.5879C14.622 12.5879 15.3642 12.8906 15.5204 13.8477L15.6181 14.5312C15.8134 15.7324 14.9833 16.1133 12.3759 16.1133ZM7.78604 7.69531L7.78604 5.66406L6.53604 5.66406C6.04776 5.66406 5.67666 6.02539 5.67666 6.49414L5.67666 6.86523C5.67666 7.32422 6.04776 7.69531 6.53604 7.69531ZM16.9853 7.69531L18.2353 7.69531C18.7235 7.69531 19.0946 7.32422 19.0946 6.86523L19.0946 6.49414C19.0946 6.02539 18.7235 5.66406 18.2353 5.66406L16.9853 5.66406Z" fill="#ffffff" fill-opacity="0.85"/>
 </g>
</svg>
