<?xml version="1.0" encoding="UTF-8"?>
<!--Generator: Apple Native CoreSVG 232.5-->
<!DOCTYPE svg
PUBLIC "-//W3C//DTD SVG 1.1//EN"
       "http://www.w3.org/Graphics/SVG/1.1/DTD/svg11.dtd">
<svg version="1.1" xmlns="http://www.w3.org/2000/svg" xmlns:xlink="http://www.w3.org/1999/xlink" width="19.4043" height="23.8274">
 <g>
  <rect height="23.8274" opacity="0" width="19.4043" x="0" y="0"/>
  <path d="M9.52148 21.3913C11.5137 21.3913 14.0332 21.3229 15.8203 21.2155L15.8203 22.5924C15.8203 23.1784 16.2793 23.6373 16.875 23.6373L17.9785 23.6373C18.5742 23.6373 19.043 23.1784 19.043 22.5924L19.043 17.9342C19.043 16.5866 18.7695 15.8248 18.0273 14.8678L17.3535 14.0084C17.0605 12.5631 16.5332 11.0592 16.2598 10.4733C15.8203 9.56508 15 9.01821 13.9355 8.89126C13.4082 8.8229 11.5918 8.77407 9.52148 8.77407C7.45117 8.77407 5.63477 8.8229 5.10742 8.89126C4.04297 9.01821 3.21289 9.56508 2.7832 10.4733C2.50977 11.0592 1.98242 12.5631 1.68945 14.0084L1.01562 14.8678C0.273438 15.8248 0 16.5866 0 17.9342L0 22.5924C0 23.1784 0.46875 23.6373 1.06445 23.6373L2.16797 23.6373C2.76367 23.6373 3.22266 23.1784 3.22266 22.5924L3.22266 21.2155C5.00977 21.3229 7.5293 21.3913 9.52148 21.3913ZM3.36914 13.3444C3.55469 12.4655 3.94531 11.3229 4.20898 10.8639C4.42383 10.4831 4.6582 10.3268 5.08789 10.2584C5.69336 10.1803 7.05078 10.1315 9.52148 10.1315C11.9922 10.1315 13.3496 10.1608 13.9551 10.2584C14.3848 10.3268 14.6094 10.4831 14.834 10.8639C15.1074 11.3131 15.459 12.4655 15.6738 13.3444C15.752 13.6373 15.625 13.7545 15.3223 13.7252C13.9941 13.6373 12.4121 13.5592 9.52148 13.5592C6.63086 13.5592 5.04883 13.6373 3.7207 13.7252C3.41797 13.7545 3.30078 13.6373 3.36914 13.3444ZM3.75977 19.2428C3.03711 19.2428 2.4707 18.6764 2.4707 17.9538C2.4707 17.2213 3.03711 16.6745 3.75977 16.6745C4.49219 16.6745 5.03906 17.2213 5.03906 17.9538C5.03906 18.6764 4.49219 19.2428 3.75977 19.2428ZM7.41211 18.9206C6.86523 18.9206 6.48438 18.5397 6.48438 17.9928C6.48438 17.4459 6.86523 17.0748 7.41211 17.0748L11.6309 17.0748C12.1777 17.0748 12.5586 17.4459 12.5586 17.9928C12.5586 18.5397 12.1777 18.9206 11.6309 18.9206ZM15.2832 19.2428C14.5508 19.2428 14.0039 18.6764 14.0039 17.9538C14.0039 17.2213 14.5508 16.6745 15.2832 16.6745C16.0059 16.6745 16.5625 17.2213 16.5625 17.9538C16.5625 18.6764 16.0059 19.2428 15.2832 19.2428Z" fill="#ffffff" fill-opacity="0.85"/>
  <path d="M9.48242 5.09243C7.38281 5.09243 5.47852 4.36001 4.01367 3.05141C3.61328 2.69985 3.16406 2.60219 2.80273 2.91469C2.44141 3.22719 2.44141 3.77407 2.85156 4.14516C4.61914 5.77602 6.95312 6.68422 9.48242 6.68422C12.0117 6.68422 14.3555 5.77602 16.1133 4.14516C16.5332 3.77407 16.5332 3.22719 16.1621 2.91469C15.8105 2.60219 15.3613 2.69985 14.9512 3.05141C13.4961 4.36001 11.5918 5.09243 9.48242 5.09243Z" fill="#ffffff" fill-opacity="0.55"/>
  <path d="M9.50195 1.17641C8.48633 1.17641 7.56836 0.863912 6.81641 0.307271C6.38672 0.00453667 5.95703-0.132182 5.60547 0.180318C5.23438 0.502584 5.22461 1.08852 5.67383 1.43032C6.72852 2.27993 8.06641 2.76821 9.50195 2.76821C10.9375 2.76821 12.2754 2.27993 13.3301 1.43032C13.7793 1.08852 13.7695 0.502584 13.3984 0.180318C13.0469-0.132182 12.6074-0.00522895 12.1875 0.307271C11.4648 0.893209 10.5176 1.17641 9.50195 1.17641Z" fill="#ffffff" fill-opacity="0.55"/>
 </g>
</svg>
