<svg version="1.1" xmlns="http://www.w3.org/2000/svg" xmlns:xlink="http://www.w3.org/1999/xlink" width="22.0534" height="23.1348" viewBox="0 0 22.0534 23.1348">
 <g>
  <rect height="23.1348" opacity="0" width="22.0534" x="0" y="0"/>
  <path d="M1.27084 22.9785L1.31966 22.9785C4.36654 22.9785 4.62045 20.9961 6.21224 20.9961C7.75521 20.9961 8.1849 22.9785 10.8509 22.9785C13.5072 22.9785 13.9369 20.9961 15.4798 20.9961C17.0716 20.9961 17.3255 22.9785 20.3724 22.9785L20.4212 22.9785C20.8021 22.9785 21.1048 22.6758 21.1048 22.2949C21.1048 21.9141 20.8021 21.6016 20.4212 21.6016L20.3724 21.6016C19.3177 21.6016 18.7318 21.1719 17.9896 20.6445C17.3548 20.1855 16.5638 19.6191 15.4798 19.6191C14.3665 19.6191 13.5658 20.2246 12.9212 20.6934C12.2572 21.2109 11.7201 21.6016 10.8509 21.6016C9.97201 21.6016 9.4349 21.2109 8.77084 20.6934C8.12631 20.2246 7.32552 19.6191 6.21224 19.6191C5.12826 19.6191 4.33724 20.1855 3.70248 20.6445C2.96029 21.1719 2.37435 21.6016 1.31966 21.6016L1.27084 21.6016C0.889977 21.6016 0.587243 21.9141 0.587243 22.2949C0.587243 22.6758 0.889977 22.9785 1.27084 22.9785ZM3.76107 21.3867L5.09896 20.9961L1.67123 16.3379C1.45638 16.0547 1.58334 15.7129 1.97396 15.7129L19.7181 15.7129C20.1185 15.7129 20.2454 16.0547 20.0208 16.3477L16.5931 20.9863L17.9408 21.377L21.2611 16.9727C22.1595 15.8008 21.6029 14.4531 20.0599 14.4531L1.63216 14.4531C0.0891958 14.4531-0.467445 15.8008 0.430993 16.9727ZM5.72396 4.64844C5.66537 4.91211 5.78256 5.00977 6.05599 4.99023C7.19857 4.91211 8.55599 4.84375 10.8411 4.84375C13.1263 4.84375 14.4837 4.91211 15.6263 4.99023C15.8997 5.00977 16.0169 4.91211 15.9583 4.64844C15.7826 3.87695 15.4603 2.89062 15.2259 2.5C15.0404 2.16797 14.8158 2.03125 14.4544 1.97266C13.9466 1.9043 12.7943 1.85547 10.8411 1.85547C8.88802 1.85547 7.73568 1.9043 7.22787 1.97266C6.86654 2.03125 6.64193 2.16797 6.44662 2.5C6.22201 2.89062 5.89974 3.87695 5.72396 4.64844ZM5.6849 9.51172C6.34896 9.51172 6.84701 9.01367 6.84701 8.35938C6.84701 7.70508 6.34896 7.20703 5.6849 7.20703C5.0306 7.20703 4.53256 7.70508 4.53256 8.35938C4.53256 9.01367 5.0306 9.51172 5.6849 9.51172ZM8.95638 9.23828L12.7259 9.23828C13.224 9.23828 13.5658 8.89648 13.5658 8.39844C13.5658 7.91016 13.2142 7.56836 12.7259 7.56836L8.95638 7.56836C8.45834 7.56836 8.11654 7.91016 8.11654 8.39844C8.11654 8.89648 8.45834 9.23828 8.95638 9.23828ZM15.9876 9.51172C16.6517 9.51172 17.1497 9.01367 17.1497 8.35938C17.1497 7.70508 16.6517 7.20703 15.9876 7.20703C15.3333 7.20703 14.8353 7.70508 14.8353 8.35938C14.8353 9.01367 15.3333 9.51172 15.9876 9.51172ZM10.8411 11.5918C13.2435 11.5918 16.4369 11.4746 17.804 11.3184C18.8587 11.1914 19.4544 10.5859 19.4544 9.60938L19.4544 8.33984C19.4544 7.08984 19.1908 6.38672 18.5169 5.51758L17.931 4.77539C17.6673 3.47656 17.1986 2.13867 16.9447 1.60156C16.554 0.771484 15.7728 0.244141 14.7572 0.0976562C14.2786 0.0390625 12.7454 0 10.8411 0C8.96615 0 7.41341 0.0390625 6.9349 0.0976562C5.91927 0.224609 5.13802 0.751953 4.72787 1.60156C4.48373 2.13867 4.00521 3.47656 3.74154 4.77539L3.17513 5.51758C2.49154 6.38672 2.23763 7.08984 2.23763 8.33984L2.23763 9.60938C2.23763 10.5859 2.82357 11.1914 3.87826 11.3184C5.24545 11.4746 8.43881 11.5918 10.8411 11.5918ZM10.8411 10.3418C8.41927 10.3418 5.29427 10.2441 4.16146 10.0977C3.67318 10.0293 3.48763 9.82422 3.48763 9.32617L3.48763 8.33984C3.48763 7.40234 3.62435 6.98242 4.16146 6.2793L4.92318 5.29297C5.09896 4.25781 5.57748 2.80273 5.87045 2.1582C6.08529 1.70898 6.48568 1.43555 7.08138 1.36719C7.5306 1.31836 8.97591 1.24023 10.8411 1.24023C12.7161 1.24023 14.181 1.31836 14.5814 1.36719C15.1869 1.44531 15.5872 1.70898 15.8119 2.1582C16.1244 2.8125 16.5931 4.27734 16.7591 5.29297L17.5208 6.2793C18.0482 6.98242 18.2044 7.41211 18.2044 8.33984L18.2044 9.32617C18.2044 9.83398 18.0091 10.0391 17.5111 10.0977C16.3783 10.2344 13.263 10.3418 10.8411 10.3418ZM3.70248 13.4082L4.54232 13.4082C5.0892 13.4082 5.50912 12.998 5.50912 12.4609L5.50912 10.752L2.74545 10.3516L2.74545 12.4609C2.74545 12.998 3.16537 13.4082 3.70248 13.4082ZM17.14 13.4082L17.9798 13.4082C18.5169 13.4082 18.9369 12.998 18.9369 12.4609L18.9369 10.3516L16.1732 10.752L16.1829 12.4609C16.1829 12.998 16.5931 13.4082 17.14 13.4082Z" fill="var(--color-primary)"/>
 </g>
</svg>
