<svg version="1.1" xmlns="http://www.w3.org/2000/svg" xmlns:xlink="http://www.w3.org/1999/xlink" width="22.9785" height="25.2246" viewBox="0 0 22.9785 25.2246">
 <g>
  <rect height="25.2246" opacity="0" width="22.9785" x="0" y="0"/>
  <path d="M5.00977 6.80664L0.234375 11.5527C-0.078125 11.875-0.078125 12.3926 0.234375 12.7148C0.556641 13.0273 1.07422 13.0371 1.39648 12.7148L5.00977 9.10156ZM11.3086 25.2148C16.2402 25.2148 18.3398 24.1309 18.3398 21.4746L18.3398 4.52148C18.3398 1.66992 15.752 0 11.3086 0C6.875 0 4.27734 1.66992 4.27734 4.52148L4.27734 21.4746C4.27734 24.1309 6.38672 25.2148 11.3086 25.2148ZM11.3086 23.5938C7.53906 23.5938 5.9082 22.959 5.9082 21.3965L5.9082 4.52148C5.9082 2.69531 7.90039 1.63086 11.3086 1.63086C14.7266 1.63086 16.709 2.69531 16.709 4.52148L16.709 21.3965C16.709 22.959 15.0879 23.5938 11.3086 23.5938ZM11.3086 10.4883C12.1875 10.4883 13.6621 10.5566 14.1602 10.5566C14.8926 10.5566 15.2148 10.2734 15.2734 9.51172L15.4395 7.67578C15.5664 6.26953 14.5801 5.70312 11.3086 5.70312C8.04688 5.70312 7.06055 6.26953 7.1875 7.67578L7.34375 9.51172C7.41211 10.2734 7.72461 10.5566 8.4668 10.5566C8.95508 10.5566 10.3809 10.4883 11.3086 10.4883ZM11.3086 20.9082C14.5996 20.9082 15.6055 20.4199 15.4004 18.9844L15.2734 18.0957C15.1172 16.9238 14.1406 16.5332 11.3086 16.5332C8.48633 16.5332 7.50977 16.9238 7.35352 18.0957L7.22656 18.9844C7.02148 20.4199 8.02734 20.9082 11.3086 20.9082ZM17.6074 14.1895L17.6074 16.4844L21.2207 20.0977C21.5527 20.4199 22.0605 20.4102 22.3828 20.0977C22.6953 19.7754 22.6953 19.248 22.3828 18.9355Z" fill="currentColor"/>
 </g>
</svg>
