<svg version="1.1" xmlns="http://www.w3.org/2000/svg" xmlns:xlink="http://www.w3.org/1999/xlink" width="21.0547" height="17.8809" viewBox="0 0 21.0547 17.8809">
 <g>
  <rect height="17.8809" opacity="0" width="21.0547" x="0" y="0"/>
  <path d="M17.627 17.8809C19.6875 17.8809 20.6934 16.9043 20.6934 14.8633L20.6934 10.0879C20.6934 8.69141 20.3027 7.93945 19.1797 7.08984L11.5918 1.31836C10.3027 0.351562 9.30664 0.00976562 7.71484 0.00976562L2.97852 0.00976562C1.00586 0.00976562 0 1.00586 0 2.95898L0 14.8633C0 16.9043 0.996094 17.8809 3.06641 17.8809ZM17.5684 8.87695L3.00781 8.87695C2.10938 8.87695 1.57227 8.35938 1.57227 7.42188L1.57227 3.03711C1.57227 2.08984 2.09961 1.58203 3.00781 1.58203L7.71484 1.58203C8.96484 1.58203 9.6875 1.79688 10.5176 2.46094L17.793 8.02734C18.1934 8.32031 18.0859 8.87695 17.5684 8.87695Z" fill="currentColor"/>
 </g>
</svg>
