<svg version="1.1" xmlns="http://www.w3.org/2000/svg" xmlns:xlink="http://www.w3.org/1999/xlink" width="35" height="28.6816" viewBox="0 0 35 28.6816">
 <g>
  <rect height="28.6816" opacity="0" width="35" x="0" y="0"/>
  <path d="M30.4004 10.0684L32.4121 10.6836C34.2285 11.25 34.6387 12.4121 34.6387 13.7793L34.6387 17.7148C34.6387 19.1504 33.7793 20.0391 32.373 20.0391L30.6435 20.0391C30.1981 21.3504 28.9723 22.2656 27.4902 22.2656C26.0081 22.2656 24.7823 21.3504 24.337 20.0391L10.9169 20.0391C10.4716 21.3504 9.24576 22.2656 7.76367 22.2656C6.28158 22.2656 5.05576 21.3504 4.61041 20.0391L2.54883 20.0391C0.927734 20.0391 0 19.0918 0 17.4316L0 15.498C0 13.1738 1.5918 11.6211 4.28711 11.2891L8.62305 10.7617L12.5586 8.29102C13.1192 7.94006 13.6362 7.64973 14.1504 7.41303L14.1504 8.80859C14.1504 8.93517 14.1572 9.05758 14.173 9.17396C13.924 9.31066 13.6679 9.46187 13.3984 9.62891L9.16016 12.2656L4.49219 12.8516C2.60742 13.0859 1.57227 14.0332 1.57227 15.498L1.57227 17.2363C1.57227 18.0371 1.94336 18.4668 2.63672 18.4668L4.45741 18.4668C4.67121 16.8165 6.04517 15.5859 7.76367 15.5859C9.48218 15.5859 10.8561 16.8165 11.0699 18.4668L24.184 18.4668C24.3978 16.8165 25.7717 15.5859 27.4902 15.5859C29.2087 15.5859 30.5827 16.8165 30.7965 18.4668L32.0898 18.4668C32.7051 18.4668 33.0664 18.0371 33.0664 17.3242L33.0664 13.7793C33.0664 13.0273 32.8223 12.4902 31.9238 12.2656L29.5312 11.6406C27.882 9.34567 25.9911 8.22029 23.7109 8.00949L23.7109 6.43082C27.2243 6.69991 29.2211 8.66223 30.4004 10.0684ZM5.99609 18.9258C5.99609 19.9219 6.76758 20.6934 7.76367 20.6934C8.75977 20.6934 9.53125 19.9219 9.53125 18.9258C9.53125 17.9297 8.75977 17.1582 7.76367 17.1582C6.76758 17.1582 5.99609 17.9297 5.99609 18.9258ZM25.7227 18.9258C25.7227 19.9219 26.4941 20.6934 27.4902 20.6934C28.4863 20.6934 29.2578 19.9219 29.2578 18.9258C29.2578 17.9297 28.4863 17.1582 27.4902 17.1582C26.4941 17.1582 25.7227 17.9297 25.7227 18.9258Z" fill="var(--color-secondary)"/>
  <path d="M16.4746 9.85352L21.4258 9.85352C22.0898 9.85352 22.4023 9.52148 22.4023 8.80859L22.4023 5.00977C22.4023 4.29688 22.0898 3.96484 21.4258 3.96484L16.4746 3.96484C15.8105 3.96484 15.498 4.29688 15.498 5.00977L15.498 8.80859C15.498 9.52148 15.8105 9.85352 16.4746 9.85352ZM20.293 4.25781L21.5723 4.24805L21.5723 2.8418C21.5723 1.82617 22.0703 1.2793 22.9102 1.2793C23.7598 1.2793 24.248 1.82617 24.248 2.8418L24.248 3.67188C24.248 4.02344 24.541 4.31641 24.8926 4.31641C25.2441 4.31641 25.5273 4.02344 25.5273 3.67188L25.5273 2.94922C25.5273 1.18164 24.4727 0 22.9102 0C21.3574 0 20.293 1.18164 20.293 2.94922Z" fill="var(--color-primary)"/>
 </g>
</svg>
