<svg version="1.1" xmlns="http://www.w3.org/2000/svg" xmlns:xlink="http://www.w3.org/1999/xlink" width="33.4375" height="20.8301" viewBox="0 0 33.4375 20.8301">
 <g>
  <rect height="20.8301" opacity="0" width="33.4375" x="0" y="0"/>
  <path d="M11.1816 2.8418L11.1145 2.99412C8.97594 3.01227 7.72592 3.07317 7.10938 3.1543C6.58203 3.22266 6.29883 3.42773 6.03516 3.88672C5.71289 4.45312 5.24414 5.84961 5.00977 6.91406C4.93164 7.27539 5.06836 7.41211 5.44922 7.39258C6.58586 7.31726 7.87613 7.24674 9.76347 7.21146L9.16992 7.97852C8.08594 9.38477 7.65625 10.5957 7.65625 12.5391L7.65625 16.6734C6.58921 16.6355 5.57692 16.5874 4.7168 16.5332L4.7168 18.1641C4.7168 18.8867 4.15039 19.4531 3.42773 19.4531L2.27539 19.4531C1.54297 19.4531 0.976562 18.8867 0.976562 18.1641L0.976562 12.5391C0.976562 10.8887 1.30859 9.9707 2.2168 8.79883L3.03711 7.73438C3.39844 5.97656 4.04297 4.13086 4.38477 3.4082C4.90234 2.30469 5.91797 1.63086 7.2168 1.47461C7.85197 1.39877 9.88601 1.34133 12.3106 1.33821C11.8463 1.74433 11.4634 2.24827 11.1816 2.8418ZM3.22266 12.168C3.22266 12.9785 3.83789 13.6035 4.6582 13.6035C5.46875 13.6035 6.09375 12.9785 6.09375 12.168C6.09375 11.3477 5.46875 10.7324 4.6582 10.7324C3.83789 10.7324 3.22266 11.3477 3.22266 12.168Z" fill="currentColor"/>
  <path d="M13.0176 6.91406C13.252 5.84961 13.7305 4.45312 14.0527 3.88672C14.3164 3.42773 14.5996 3.22266 15.127 3.1543C15.8594 3.05664 17.5195 2.98828 20.5469 2.98828C23.5645 2.98828 25.2246 3.03711 25.9668 3.1543C26.4941 3.23242 26.7676 3.42773 27.041 3.88672C27.373 4.44336 27.8125 5.84961 28.0664 6.91406C28.1641 7.27539 28.0078 7.41211 27.627 7.39258C26.0059 7.28516 24.0723 7.1875 20.5469 7.1875C17.0117 7.1875 15.0781 7.28516 13.457 7.39258C13.0859 7.41211 12.9395 7.27539 13.0176 6.91406ZM13.5059 14.1309C12.6074 14.1309 11.9336 13.4473 11.9336 12.5586C11.9336 11.6602 12.6074 10.9863 13.5059 10.9863C14.3945 10.9863 15.0684 11.6602 15.0684 12.5586C15.0684 13.4473 14.3945 14.1309 13.5059 14.1309ZM17.959 13.7402C17.2949 13.7402 16.8359 13.2812 16.8359 12.6074C16.8359 11.9434 17.2949 11.4844 17.959 11.4844L23.125 11.4844C23.7988 11.4844 24.2578 11.9434 24.2578 12.6074C24.2578 13.2812 23.7988 13.7402 23.125 13.7402ZM27.5879 14.1309C26.6992 14.1309 26.0156 13.4473 26.0156 12.5586C26.0156 11.6602 26.6992 10.9863 27.5879 10.9863C28.4766 10.9863 29.1602 11.6602 29.1602 12.5586C29.1602 13.4473 28.4766 14.1309 27.5879 14.1309ZM20.5469 16.7676C23.8281 16.7676 28.1836 16.6016 30.0391 16.3867C31.3574 16.2402 32.0996 15.5078 32.0996 14.2578L32.0996 12.5391C32.0996 10.8887 31.7676 9.9707 30.8594 8.79883L30.0391 7.73438C29.6777 5.97656 29.0332 4.13086 28.6914 3.4082C28.1738 2.30469 27.1582 1.65039 25.8594 1.47461C25.2051 1.38672 23.0664 1.33789 20.5469 1.33789C18.0176 1.33789 15.8789 1.39648 15.2246 1.47461C13.9258 1.63086 12.9199 2.30469 12.3926 3.4082C12.0605 4.13086 11.4062 5.97656 11.0547 7.73438L10.2246 8.79883C9.32617 9.9707 8.99414 10.8887 8.99414 12.5391L8.99414 14.2578C8.99414 15.5078 9.72656 16.2402 11.0547 16.3867C12.9004 16.6016 17.2656 16.7676 20.5469 16.7676ZM10.2832 19.4531L11.4355 19.4531C12.168 19.4531 12.7246 18.8867 12.7246 18.1641L12.7246 15.7324L8.99414 13.9551L8.99414 18.1641C8.99414 18.8867 9.55078 19.4531 10.2832 19.4531ZM29.6582 19.4531L30.8008 19.4531C31.5332 19.4531 32.0996 18.8867 32.0996 18.1641L32.0996 13.9551L28.3594 15.7324L28.3594 18.1641C28.3594 18.8867 28.9258 19.4531 29.6582 19.4531Z" fill="currentColor"/>
 </g>
</svg>
