<svg version="1.1" xmlns="http://www.w3.org/2000/svg" xmlns:xlink="http://www.w3.org/1999/xlink" width="22.2559" height="25.2246" viewBox="0 0 22.2559 25.2246">
 <g>
  <rect height="25.2246" opacity="0" width="22.2559" x="0" y="0"/>
  <path d="M17.2461 6.80664L17.2461 9.10156L20.8691 12.7148C21.1914 13.0371 21.6992 13.0273 22.0215 12.7148C22.334 12.3926 22.334 11.875 22.0215 11.5527ZM10.9473 25.2148C15.8789 25.2148 17.9785 24.1309 17.9785 21.4746L17.9785 4.52148C17.9785 1.66992 15.3906 0 10.9473 0C6.51367 0 3.91602 1.66992 3.91602 4.52148L3.91602 21.4746C3.91602 24.1309 6.02539 25.2148 10.9473 25.2148ZM10.9473 23.5938C7.17773 23.5938 5.54688 22.959 5.54688 21.3965L5.54688 4.52148C5.54688 2.69531 7.53906 1.63086 10.9473 1.63086C14.3652 1.63086 16.3477 2.69531 16.3477 4.52148L16.3477 21.3965C16.3477 22.959 14.7266 23.5938 10.9473 23.5938ZM10.957 10.4883C11.8262 10.4883 13.3105 10.5566 13.7988 10.5566C14.541 10.5566 14.8535 10.2734 14.9219 9.51172L15.0781 7.67578C15.2051 6.26953 14.2188 5.70312 10.957 5.70312C7.68555 5.70312 6.69922 6.26953 6.82617 7.67578L6.98242 9.51172C7.05078 10.2734 7.37305 10.5566 8.10547 10.5566C8.60352 10.5566 10.0293 10.4883 10.957 10.4883ZM10.957 20.9082C14.2383 20.9082 15.2441 20.4199 15.0391 18.9844L14.9121 18.0957C14.7559 16.9238 13.7793 16.5332 10.957 16.5332C8.125 16.5332 7.14844 16.9238 6.99219 18.0957L6.86523 18.9844C6.66016 20.4199 7.66602 20.9082 10.957 20.9082ZM17.2461 14.1895L17.2461 16.4844L20.8691 20.0977C21.1914 20.4199 21.6992 20.4102 22.0215 20.0977C22.334 19.7754 22.334 19.248 22.0215 18.9355Z" fill="currentColor"/>
 </g>
</svg>
