<svg version="1.1" xmlns="http://www.w3.org/2000/svg" xmlns:xlink="http://www.w3.org/1999/xlink" width="22.0198" height="19.834" viewBox="0 0 22.0198 19.834">
 <g>
  <rect height="19.834" opacity="0" width="22.0198" x="0" y="0"/>
  <path d="M2.55288 15.0684L2.55288 19.209C2.55288 19.541 2.30874 19.7852 1.98648 19.7852L1.45913 19.7852C1.1271 19.7852 0.882959 19.541 0.882959 19.209L0.882959 15.0684C0.882959 14.7363 1.1271 14.4922 1.45913 14.4922L1.98648 14.4922C2.30874 14.4922 2.55288 14.7363 2.55288 15.0684ZM20.7755 15.0684L20.7755 19.209C20.7755 19.5312 20.5314 19.7754 20.1994 19.7754L19.6818 19.7754C19.3498 19.7754 19.1056 19.5312 19.1056 19.209L19.1056 15.0684C19.1056 14.7363 19.3498 14.4922 19.6818 14.4922L20.1994 14.4922C20.5314 14.4922 20.7755 14.7363 20.7755 15.0684ZM2.55288 7.82227L2.55288 11.9531C2.55288 12.2852 2.30874 12.5293 1.98648 12.5293L1.45913 12.5293C1.1271 12.5293 0.882959 12.2852 0.882959 11.9531L0.882959 7.82227C0.882959 7.5 1.1271 7.25586 1.45913 7.25586L1.98648 7.25586C2.30874 7.25586 2.55288 7.5 2.55288 7.82227ZM2.55288 0.576172L2.55288 4.7168C2.55288 5.04883 2.30874 5.29297 1.98648 5.29297L1.45913 5.29297C1.1271 5.29297 0.882959 5.04883 0.882959 4.7168L0.882959 0.576172C0.882959 0.244141 1.1271 0 1.45913 0L1.98648 0C2.30874 0 2.55288 0.244141 2.55288 0.576172ZM20.7755 0.576172L20.7755 3.77651C20.3369 3.33165 19.7779 2.90418 19.1056 2.50528L19.1056 0.576172C19.1056 0.244141 19.3498 0 19.6818 0L20.1994 0C20.5314 0 20.7755 0.244141 20.7755 0.576172Z" fill="var(--color-primary)"/>
  <path d="M10.0626 17.7246C13.0607 19.4434 14.799 19.5508 15.7951 17.832L21.6251 7.71484C22.6603 5.9375 21.6251 3.94531 18.9201 2.39258C16.2345 0.849609 13.9982 0.9375 12.9728 2.71484L7.13296 12.832C6.13687 14.5508 7.08413 16.0059 10.0626 17.7246ZM15.2287 8.78906C14.6525 8.45703 13.7443 8.01758 13.4416 7.82227C12.9435 7.54883 12.8654 7.2168 13.0998 6.69922L13.6369 5.51758C14.0959 4.53125 14.9162 4.54102 16.9865 5.74219C19.0763 6.94336 19.4767 7.64648 18.8712 8.52539L18.1193 9.58984C17.7677 10.0879 17.4357 10.1465 16.9669 9.87305C16.6642 9.69727 15.7755 9.11133 15.2287 8.78906ZM11.4982 15.2539C9.43765 14.0625 8.94937 13.3789 9.64273 12.5L10.0431 12.002C10.5998 11.3086 11.3419 11.416 13.1193 12.4512C14.9162 13.4766 15.3751 14.0527 15.0431 14.8926L14.8185 15.4883C14.4279 16.5234 13.5685 16.4551 11.4982 15.2539ZM11.7228 6.39648L12.6505 4.79492L11.6642 4.21875C11.2834 3.99414 10.8244 4.11133 10.6095 4.48242L10.4337 4.77539C10.2189 5.13672 10.3556 5.61523 10.7267 5.83008ZM19.0666 10.6348L20.0529 11.2109C20.4337 11.4355 20.9123 11.3086 21.1173 10.9473L21.2834 10.6445C21.4884 10.2734 21.3712 9.81445 20.9806 9.58984L19.9943 9.02344Z" fill="var(--color-primary)"/>
 </g>
</svg>
