<svg version="1.1" xmlns="http://www.w3.org/2000/svg" xmlns:xlink="http://www.w3.org/1999/xlink" width="28.4955" height="23.4424" viewBox="0 0 28.4955 23.4424">
 <g>
  <rect height="23.4424" opacity="0" width="28.4955" x="0" y="0"/>
  <path d="M18.1309 18.4652L17.3044 18.7085L19.3552 22.5562C19.5212 22.8687 19.2087 23.1031 18.9548 22.8784L15.488 19.7534L13.4275 23.1519C13.3005 23.3472 13.0466 23.3179 13.0368 23.0445L13.0075 20.3296L9.79464 21.0523C9.45285 21.1402 9.36495 20.7593 9.59933 20.6031L12.1482 18.8843L10.2634 18.7476C9.96066 18.7281 9.91183 18.4058 10.195 18.2984L11.8845 17.6734L9.08175 15.9839C8.81808 15.8277 8.8962 15.4859 9.238 15.5347L12.2068 15.9546L11.5622 15.1148C11.3669 14.8609 11.5622 14.6656 11.8259 14.7827L12.9782 15.3003L12.0993 12.6929C12.0659 12.5927 12.0748 12.5086 12.1095 12.4498ZM7.06027 8.75735L3.11495 18.6206C2.93917 19.0406 2.65597 19.3238 2.07003 19.3238L0.790736 19.3238C0.0387829 19.3238-0.146764 18.7378 0.107142 18.2398L4.98019 8.6011C5.13644 8.30813 5.34152 8.15188 5.67355 8.15188L6.69894 8.15188C7.04074 8.15188 7.18722 8.42532 7.06027 8.75735ZM23.154 8.6011L28.0271 18.2398C28.281 18.7378 28.1052 19.3238 27.3435 19.3238L26.0739 19.3238C25.488 19.3238 25.195 19.0406 25.029 18.6206L21.0837 8.75735C20.947 8.42532 21.0935 8.15188 21.4353 8.15188L22.4607 8.15188C22.7927 8.15188 23.0075 8.30813 23.154 8.6011ZM10.3218 10.6639C10.2223 10.8565 10.0225 10.9839 9.78488 10.9839L9.238 10.9839C8.8962 10.9839 8.63253 10.7202 8.63253 10.3784L8.63253 8.97626ZM16.5622 2.53664C17.197 2.605 17.7048 2.9175 17.9685 3.66946L18.4568 5.05618L18.9157 5.55422C19.3845 6.0718 19.4919 6.54055 19.4919 7.31204L19.4919 10.3784C19.4919 10.7202 19.2282 10.9839 18.8864 10.9839L18.3493 10.9839C17.9978 10.9839 17.7341 10.7202 17.7341 10.3784L17.7341 9.71438L14.7308 9.71438L9.7782 4.76421L10.156 3.66946C10.4196 2.9175 10.9275 2.605 11.5622 2.53664C11.8747 2.49758 12.8806 2.46829 14.0622 2.46829C15.2536 2.46829 16.2595 2.49758 16.5622 2.53664ZM17.3923 6.74563L17.3923 7.45852C17.3923 7.74172 17.6071 7.9468 17.8806 7.9468C18.1638 7.9468 18.3689 7.75149 18.3689 7.45852L18.3689 6.74563C18.3689 6.46243 18.1638 6.26711 17.8806 6.26711C17.6071 6.26711 17.3923 6.46243 17.3923 6.74563ZM13.0173 6.48196C12.7927 6.48196 12.6462 6.62844 12.6462 6.87258L12.6462 7.33157C12.6462 7.57571 12.7927 7.73196 13.0173 7.73196L15.0876 7.73196C15.322 7.73196 15.4685 7.57571 15.4685 7.33157L15.4685 6.87258C15.4685 6.62844 15.322 6.48196 15.0876 6.48196ZM11.5427 3.39602C11.2693 3.43508 11.0935 3.5425 10.986 3.855L10.7028 4.71438C10.6345 4.91946 10.7126 5.08547 10.9275 5.08547L17.1872 5.08547C17.4118 5.08547 17.49 4.91946 17.4216 4.71438L17.1286 3.855C17.0212 3.5425 16.8552 3.43508 16.5818 3.39602C16.2595 3.35696 15.3708 3.31789 14.0622 3.31789C12.7536 3.31789 11.865 3.35696 11.5427 3.39602Z" fill="var(--color-primary)"/>
  <path d="M23.3591 22.0777C23.6521 22.3706 24.1403 22.3804 24.4235 22.0777C24.7165 21.7847 24.7165 21.3062 24.4235 21.0132L4.78488 1.3843C4.49191 1.09133 4.00363 1.08157 3.71066 1.3843C3.41769 1.6675 3.41769 2.15579 3.71066 2.44875Z" fill="var(--color-primary)"/>
 </g>
</svg>
