<?xml version="1.0" encoding="UTF-8"?>
<!--Generator: Apple Native CoreSVG 232.5-->
<!DOCTYPE svg
PUBLIC "-//W3C//DTD SVG 1.1//EN"
       "http://www.w3.org/Graphics/SVG/1.1/DTD/svg11.dtd">
<svg version="1.1" xmlns="http://www.w3.org/2000/svg" xmlns:xlink="http://www.w3.org/1999/xlink" width="22.8424" height="22.782">
 <g>
  <rect height="22.782" opacity="0" width="22.8424" x="0" y="0"/>
  <path d="M15.9769 6.24938C17.5199 5.26305 19.1019 0.819691 17.3636 0.390003C15.5765-0.0201529 15.0199 4.67711 15.9769 6.24938ZM16.2113 6.63024C18.4769 6.64 23.1058 2.93883 21.5042 1.3275C19.9027-0.274059 16.2015 4.35485 16.2113 6.63024ZM16.5921 6.85485C18.1546 7.83141 22.8617 7.25524 22.4515 5.49743C22.0316 3.72985 17.5784 5.32164 16.5921 6.85485ZM16.3577 5.57555C13.8675 3.04625 10.5765 3.68102 8.46712 7.03063L0.312825 19.9896C-0.23405 20.8685-0.009441 21.6498 0.566731 22.2259C1.06478 22.7338 1.8265 23.056 2.77376 22.4603L15.762 14.306C19.0921 12.2162 19.6878 8.95446 17.1976 6.42516ZM15.3226 6.62047L16.1527 7.47008C17.9984 9.34508 17.6663 11.3568 15.0003 13.0365L2.03157 21.181C1.70931 21.3861 1.37728 21.0638 1.58236 20.7513L9.73665 7.78258C11.4261 5.1068 13.4671 4.75524 15.3226 6.62047ZM12.2659 9.66735C12.5101 9.41344 12.5101 9.03258 12.2464 8.76891L9.97103 6.52282L9.08236 7.45055L11.3577 9.67711C11.6214 9.94078 12.012 9.93102 12.2659 9.66735ZM10.0492 11.0443C10.3031 10.7904 10.3031 10.3998 10.0394 10.1361L8.23275 8.36852L7.34407 9.28649L9.14095 11.0443C9.40462 11.308 9.78548 11.2982 10.0492 11.0443ZM7.86165 15.1361C7.61751 15.39 7.60775 15.7806 7.87142 16.0443L9.46322 17.5873L10.5765 16.8939L8.76986 15.1263C8.51595 14.8724 8.12532 14.8822 7.86165 15.1361ZM6.12337 16.9525C5.86947 17.2064 5.86947 17.6068 6.13314 17.8607L7.23665 18.9642L8.36947 18.2709L7.03157 16.9525C6.7679 16.6888 6.37728 16.6986 6.12337 16.9525Z" fill="#ffffff" fill-opacity="0.85"/>
 </g>
</svg>
