<?xml version="1.0" encoding="UTF-8"?>
<!--Generator: Apple Native CoreSVG 232.5-->
<!DOCTYPE svg
PUBLIC "-//W3C//DTD SVG 1.1//EN"
       "http://www.w3.org/Graphics/SVG/1.1/DTD/svg11.dtd">
<svg version="1.1" xmlns="http://www.w3.org/2000/svg" xmlns:xlink="http://www.w3.org/1999/xlink" width="22.2806" height="23.8245">
 <g>
  <rect height="23.8245" opacity="0" width="22.2806" x="0" y="0"/>
  <path d="M0.163739 18.089C1.02311 21.2726 1.91179 22.2394 3.9235 22.2394L15.32 22.2394C16.7653 22.2394 17.7321 21.4582 18.0934 19.9933L21.7653 5.09098C22.361 2.65934 21.1501 1.56559 19.7438 1.56559C17.8786 1.56559 15.8473 3.55778 16.9899 6.78043L17.2731 5.57926C14.3337 7.12223 12.9958 10.6964 13.5329 15.0617L13.8844 14.5734C11.8727 14.1535 9.24577 13.8996 6.71647 13.8996C1.49186 13.8996-0.637042 15.1691 0.163739 18.089Z" fill="#ffffff" fill-opacity="0.85"/>
  <path d="M14.1286 3.41129C13.9919 2.3859 14.4508 1.42887 15.3395 1.01871C15.6227 0.87223 15.6813 0.589027 15.5934 0.335121C15.486 0.0714489 15.1833-0.114098 14.8024 0.0812145C13.6012 0.676918 12.8786 2.18082 13.0934 3.64567C13.152 3.98746 13.4938 4.15348 13.8161 4.04606C14.0798 3.93864 14.1872 3.70426 14.1286 3.41129ZM11.4528 10.8625C11.0622 9.43668 11.5407 7.45426 13.2594 6.53629C13.611 6.35075 13.6501 6.01871 13.5231 5.78434C13.3962 5.55973 13.113 5.42301 12.7419 5.59879C10.7008 6.56559 9.9196 9.29996 10.4176 11.1652C10.5055 11.4972 10.8473 11.6242 11.111 11.5558C11.3649 11.4875 11.5602 11.2433 11.4528 10.8625Z" fill="#ffffff" fill-opacity="0.85"/>
 </g>
</svg>
