<?xml version="1.0" encoding="UTF-8"?>
<!--Generator: Apple Native CoreSVG 232.5-->
<!DOCTYPE svg
PUBLIC "-//W3C//DTD SVG 1.1//EN"
       "http://www.w3.org/Graphics/SVG/1.1/DTD/svg11.dtd">
<svg version="1.1" xmlns="http://www.w3.org/2000/svg" xmlns:xlink="http://www.w3.org/1999/xlink" width="22.4638" height="20.7129">
 <g>
  <rect height="20.7129" opacity="0" width="22.4638" x="0" y="0"/>
  <path d="M21.9399 16.5332C22.7407 13.6133 20.6118 12.3438 15.3872 12.3438C12.9262 12.3438 10.4458 12.5488 8.30711 12.9199L8.76609 13.4961C9.07859 9.3457 7.87742 5.87891 5.60203 4.26758L5.78757 5.21484C6.67625 2.17773 4.81101 0 2.51609 0C0.621559 0-0.394066 1.36719 0.143043 3.53516L3.81492 18.4375C4.17625 19.9023 5.14304 20.6836 6.57859 20.6836L18.1802 20.6836C20.1919 20.6836 21.0805 19.7168 21.9399 16.5332ZM20.436 16.1133C19.7231 18.7598 19.2739 19.1113 18.1802 19.1113L6.57859 19.1113C5.93406 19.1113 5.51414 18.7402 5.34812 18.0566L1.64695 3.125C1.41257 2.16797 1.8032 1.57227 2.52586 1.57227C3.63914 1.57227 4.65476 2.58789 4.38132 4.42383C4.28367 5.08789 4.35203 5.2832 4.72312 5.58594C6.44187 6.86523 7.40867 9.82422 7.33054 13.4961C7.33054 14.0918 7.70164 14.4727 8.29734 14.4629C9.41062 14.3848 11.9106 13.916 15.3872 13.916C19.6743 13.916 20.8559 14.5508 20.436 16.1133Z" fill="#ffffff" fill-opacity="0.55"/>
  <path d="M15.1626 9.10156L19.8403 9.10156C20.2114 9.10156 20.4653 8.84766 20.4653 8.49609C20.4653 8.13477 20.2016 7.88086 19.8403 7.88086L16.5298 7.88086L16.5298 7.85156L18.6489 5.56641C19.4009 4.76562 19.9673 4.0625 19.9673 3.05664C19.9673 1.66992 18.8833 0.751953 17.1938 0.751953C15.9243 0.751953 14.8012 1.51367 14.5083 2.54883C14.479 2.69531 14.4497 2.79297 14.4497 2.91992C14.4497 3.28125 14.6841 3.52539 15.0649 3.52539C15.3969 3.52539 15.563 3.32031 15.729 3.04688C15.9536 2.50977 16.4223 1.95312 17.2524 1.95312C18.0825 1.95312 18.6391 2.44141 18.6391 3.1543C18.6391 3.78906 18.0923 4.32617 17.5844 4.88281L14.7427 7.93945C14.5766 8.10547 14.4887 8.28125 14.4887 8.49609C14.4887 8.86719 14.7427 9.10156 15.1626 9.10156Z" fill="#ffffff" fill-opacity="0.85"/>
 </g>
</svg>
