<svg version="1.1" xmlns="http://www.w3.org/2000/svg" xmlns:xlink="http://www.w3.org/1999/xlink" width="20.2832" height="19.9316" viewBox="0 0 20.2832 19.9316">
 <g>
  <rect height="19.9316" opacity="0" width="20.2832" x="0" y="0"/>
  <path d="M19.9219 9.9707C19.9219 15.4199 15.4102 19.9316 9.96094 19.9316C4.52148 19.9316 0 15.4199 0 9.9707C0 4.53125 4.51172 0.00976562 9.95117 0.00976562C15.4004 0.00976562 19.9219 4.53125 19.9219 9.9707ZM7.5293 14.9512C7.5293 15.459 7.92969 15.8496 8.42773 15.8496C8.93555 15.8496 9.33594 15.459 9.33594 14.9512C9.33594 14.4336 8.93555 14.043 8.42773 14.043C7.92969 14.043 7.5293 14.4336 7.5293 14.9512ZM12.0117 14.9512C12.0117 15.459 12.4316 15.8496 12.9297 15.8496C13.4375 15.8496 13.8379 15.459 13.8379 14.9512C13.8379 14.4336 13.4375 14.043 12.9297 14.043C12.4316 14.043 12.0117 14.4336 12.0117 14.9512ZM4.36523 5.52734C4.05273 5.52734 3.83789 5.74219 3.83789 6.06445C3.83789 6.37695 4.05273 6.5918 4.36523 6.5918L5.92773 6.5918L6.71875 12.1582C6.83594 12.959 7.36328 13.3789 8.27148 13.3789L13.75 13.3789C14.0625 13.3789 14.2676 13.1738 14.2676 12.8418C14.2676 12.5293 14.0625 12.3242 13.75 12.3242L8.29102 12.3242C7.98828 12.3242 7.7832 12.1387 7.74414 11.8262L7.70508 11.4453L13.9844 11.4453C14.7363 11.4453 15.1172 10.9961 15.2246 10.2637L15.625 7.5293C15.6445 7.4707 15.6543 7.38281 15.6543 7.34375C15.6543 7.09961 15.4785 6.92383 15.1855 6.92383L7.04102 6.92383L6.95312 6.25C6.89453 5.82031 6.5332 5.52734 6.07422 5.52734Z" fill="var(--color-primary)"/>
 </g>
</svg>
