<svg version="1.1" xmlns="http://www.w3.org/2000/svg" xmlns:xlink="http://www.w3.org/1999/xlink" width="20.2832" height="19.9316" viewBox="0 0 20.2832 19.9316">
 <g>
  <rect height="19.9316" opacity="0" width="20.2832" x="0" y="0"/>
  <path d="M9.96094 19.9219C15.4102 19.9219 19.9219 15.4004 19.9219 9.96094C19.9219 4.51172 15.4004 0 9.95117 0C4.51172 0 0 4.51172 0 9.96094C0 15.4004 4.52148 19.9219 9.96094 19.9219Z" fill="var(--color-tertiary)"/>
  <path d="M6.60156 9.96094C6.60156 7.89062 7.71484 6.51367 9.45312 6.2793L9.45312 5.52734C9.45312 5.23438 9.66797 5.01953 9.95117 5.01953C10.2441 5.01953 10.4492 5.23438 10.4492 5.52734L10.4492 6.26953C11.709 6.42578 12.627 7.1582 12.9199 8.05664C12.9492 8.1543 12.9785 8.26172 12.9785 8.38867C12.9785 8.75 12.7441 8.99414 12.3926 8.99414C12.1094 8.99414 11.9043 8.84766 11.7871 8.55469C11.5527 7.99805 11.1035 7.58789 10.4492 7.45117L10.4492 12.4707C11.1133 12.334 11.5625 11.9336 11.7969 11.3574C11.9043 11.1035 12.0996 10.9375 12.3828 10.9375C12.7344 10.9375 12.9883 11.1816 12.9883 11.5332C12.9883 11.6602 12.959 11.7773 12.9297 11.8848C12.6367 12.7832 11.7285 13.5059 10.4492 13.6621L10.4492 14.4043C10.4492 14.6973 10.2441 14.9023 9.95117 14.9023C9.66797 14.9023 9.45312 14.6973 9.45312 14.4043L9.45312 13.6523C7.71484 13.418 6.60156 12.0508 6.60156 9.96094ZM7.88086 9.96094C7.88086 11.3379 8.48633 12.2168 9.45312 12.4414L9.45312 7.48047C8.48633 7.71484 7.88086 8.60352 7.88086 9.96094Z" fill="var(--color-primary)"/>
 </g>
</svg>
