<svg version="1.1" xmlns="http://www.w3.org/2000/svg" xmlns:xlink="http://www.w3.org/1999/xlink" width="18.3398" height="17.998" viewBox="0 0 18.3398 17.998">
 <g>
  <rect height="17.998" opacity="0" width="18.3398" x="0" y="0"/>
  <path d="M3.06641 17.998L14.9121 17.998C16.9629 17.998 17.9785 16.9824 17.9785 14.9707L17.9785 3.04688C17.9785 1.03516 16.9629 0.0195312 14.9121 0.0195312L3.06641 0.0195312C1.02539 0.0195312 0 1.02539 0 3.04688L0 14.9707C0 16.9922 1.02539 17.998 3.06641 17.998Z" fill="var(--color-tertiary)"/>
  <path d="M5.63477 8.99414C5.63477 6.92383 6.74805 5.54688 8.48633 5.3125L8.48633 4.56055C8.48633 4.26758 8.70117 4.05273 8.98438 4.05273C9.27734 4.05273 9.48242 4.26758 9.48242 4.56055L9.48242 5.30273C10.752 5.45898 11.6602 6.19141 11.9531 7.08984C11.9824 7.1875 12.0117 7.29492 12.0117 7.42188C12.0117 7.7832 11.7773 8.02734 11.4258 8.02734C11.1426 8.02734 10.9375 7.88086 10.8203 7.58789C10.5957 7.03125 10.1465 6.62109 9.48242 6.48438L9.48242 11.5039C10.1562 11.3672 10.6055 10.9668 10.8301 10.3906C10.9375 10.1367 11.1426 9.9707 11.416 9.9707C11.7676 9.9707 12.0215 10.2148 12.0215 10.5664C12.0215 10.6934 11.9922 10.8105 11.9629 10.918C11.6699 11.8164 10.7617 12.5391 9.48242 12.6953L9.48242 13.4375C9.48242 13.7305 9.27734 13.9355 8.98438 13.9355C8.70117 13.9355 8.48633 13.7305 8.48633 13.4375L8.48633 12.6855C6.74805 12.4512 5.63477 11.084 5.63477 8.99414ZM6.91406 8.99414C6.91406 10.3711 7.51953 11.25 8.48633 11.4746L8.48633 6.51367C7.51953 6.74805 6.91406 7.63672 6.91406 8.99414Z" fill="var(--color-primary)"/>
 </g>
</svg>
