<?xml version="1.0" encoding="UTF-8"?>
<!--Generator: Apple Native CoreSVG 232.5-->
<!DOCTYPE svg
PUBLIC "-//W3C//DTD SVG 1.1//EN"
       "http://www.w3.org/Graphics/SVG/1.1/DTD/svg11.dtd">
<svg version="1.1" xmlns="http://www.w3.org/2000/svg" xmlns:xlink="http://www.w3.org/1999/xlink" width="20.2832" height="19.9316">
 <g>
  <rect height="19.9316" opacity="0" width="20.2832" x="0" y="0"/>
  <path d="M9.96094 19.9219C15.4102 19.9219 19.9219 15.4004 19.9219 9.96094C19.9219 4.51172 15.4004 0 9.95117 0C4.51172 0 0 4.51172 0 9.96094C0 15.4004 4.52148 19.9219 9.96094 19.9219ZM9.96094 18.2617C5.35156 18.2617 1.66992 14.5703 1.66992 9.96094C1.66992 5.35156 5.3418 1.66016 9.95117 1.66016C14.5605 1.66016 18.2617 5.35156 18.2617 9.96094C18.2617 14.5703 14.5703 18.2617 9.96094 18.2617Z" fill="#ffffff" fill-opacity="0.55"/>
  <path d="M6.69922 9.96094C6.69922 11.9824 7.7832 13.3105 9.46289 13.5352L9.46289 14.2676C9.46289 14.5508 9.66797 14.7461 9.94141 14.7461C10.2246 14.7461 10.4297 14.5508 10.4297 14.2676L10.4297 13.5449C11.6699 13.3984 12.5488 12.6953 12.832 11.8262C12.8613 11.7188 12.8906 11.6016 12.8906 11.4844C12.8906 11.1426 12.6465 10.9082 12.3047 10.9082C12.0312 10.9082 11.8457 11.0645 11.7383 11.3184C11.5137 11.875 11.0742 12.2656 10.4297 12.3926L10.4297 7.5293C11.0645 7.65625 11.5039 8.05664 11.7285 8.59375C11.8457 8.87695 12.041 9.02344 12.3145 9.02344C12.6562 9.02344 12.8809 8.78906 12.8809 8.4375C12.8809 8.32031 12.8516 8.21289 12.8223 8.11523C12.5391 7.24609 11.6504 6.5332 10.4297 6.38672L10.4297 5.66406C10.4297 5.38086 10.2246 5.17578 9.94141 5.17578C9.66797 5.17578 9.46289 5.38086 9.46289 5.66406L9.46289 6.39648C7.7832 6.62109 6.69922 7.95898 6.69922 9.96094ZM7.93945 9.96094C7.93945 8.64258 8.52539 7.7832 9.46289 7.54883L9.46289 12.373C8.52539 12.1484 7.93945 11.2988 7.93945 9.96094Z" fill="#ffffff" fill-opacity="0.85"/>
 </g>
</svg>
