<?xml version="1.0" encoding="UTF-8"?>
<!--Generator: Apple Native CoreSVG 232.5-->
<!DOCTYPE svg
PUBLIC "-//W3C//DTD SVG 1.1//EN"
       "http://www.w3.org/Graphics/SVG/1.1/DTD/svg11.dtd">
<svg version="1.1" xmlns="http://www.w3.org/2000/svg" xmlns:xlink="http://www.w3.org/1999/xlink" width="19.7852" height="17.1582">
 <g>
  <rect height="17.1582" opacity="0" width="19.7852" x="0" y="0"/>
  <path d="M2.88086 5.74219L4.52148 5.74219L4.52148 2.44141C4.52148 1.95312 4.84375 1.64062 5.3125 1.64062L14.1016 1.64062C14.5801 1.64062 14.8926 1.95312 14.8926 2.44141L14.8926 5.74219L16.5332 5.74219L16.5332 2.43164C16.5332 0.966797 15.5859 0 14.1895 0L5.23438 0C3.82812 0 2.88086 0.966797 2.88086 2.43164ZM0 12.8125C0 14.2188 0.927734 15.1465 2.31445 15.1465L17.1094 15.1465C18.4863 15.1465 19.4238 14.2188 19.4238 12.8125L19.4238 6.875C19.4238 5.47852 18.4863 4.54102 17.1094 4.54102L15.9668 4.54102C14.5801 4.54102 13.6523 5.47852 13.6523 6.875L13.6523 9.42383L5.77148 9.42383L5.77148 6.875C5.77148 5.47852 4.83398 4.54102 3.45703 4.54102L2.31445 4.54102C0.927734 4.54102 0 5.47852 0 6.875ZM1.66016 12.793L1.66016 6.89453C1.66016 6.46484 1.95312 6.18164 2.39258 6.18164L3.37891 6.18164C3.81836 6.18164 4.11133 6.46484 4.11133 6.89453L4.11133 11.0645L15.3125 11.0645L15.3125 6.89453C15.3125 6.46484 15.6055 6.18164 16.0449 6.18164L17.0312 6.18164C17.4707 6.18164 17.7637 6.46484 17.7637 6.89453L17.7637 12.793C17.7637 13.2227 17.4707 13.5059 17.0312 13.5059L2.39258 13.5059C1.95312 13.5059 1.66016 13.2227 1.66016 12.793ZM3.55469 17.1387L4.16016 17.1387C4.6875 17.1387 5.0293 16.8066 5.0293 16.2793L5.0293 14.209L2.68555 14.209L2.68555 16.2793C2.68555 16.8066 3.02734 17.1387 3.55469 17.1387ZM15.2637 17.1387L15.8594 17.1387C16.3867 17.1387 16.7285 16.8066 16.7285 16.2793L16.7285 14.209L14.3945 14.209L14.3945 16.2793C14.3945 16.8066 14.7363 17.1387 15.2637 17.1387Z" fill="#ffffff" fill-opacity="0.85"/>
 </g>
</svg>
