<svg version="1.1" xmlns="http://www.w3.org/2000/svg" xmlns:xlink="http://www.w3.org/1999/xlink" width="22.1484" height="18.0371" viewBox="0 0 22.1484 18.0371">
 <g>
  <rect height="18.0371" opacity="0" width="22.1484" x="0" y="0"/>
  <path d="M0.78125 18.0371L20.9961 18.0371C21.4258 18.0371 21.7871 17.6953 21.7871 17.2559C21.7871 16.8262 21.4258 16.4746 20.9961 16.4746L0.78125 16.4746C0.361328 16.4746 0 16.8262 0 17.2559C0 17.6953 0.361328 18.0371 0.78125 18.0371Z" fill="var(--color-secondary)"/>
  <path d="M16.7871 13.9941C16.7871 14.541 17.1289 14.8633 17.6855 14.8633L19.9414 14.8633C20.5078 14.8633 20.8594 14.541 20.8594 13.9941L20.8594 0.869141C20.8594 0.322266 20.5078 0 19.9414 0L17.6855 0C17.1289 0 16.7871 0.322266 16.7871 0.869141Z" fill="var(--color-primary)"/>
  <path d="M11.4941 13.9941C11.4941 14.541 11.8457 14.8633 12.4023 14.8633L14.6582 14.8633C15.2246 14.8633 15.5762 14.541 15.5762 13.9941L15.5762 3.66211C15.5762 3.11523 15.2246 2.79297 14.6582 2.79297L12.4023 2.79297C11.8457 2.79297 11.4941 3.11523 11.4941 3.66211Z" fill="var(--color-primary)"/>
  <path d="M6.21094 13.9941C6.21094 14.541 6.55273 14.8633 7.10938 14.8633L9.375 14.8633C9.93164 14.8633 10.2832 14.541 10.2832 13.9941L10.2832 6.45508C10.2832 5.92773 9.93164 5.5957 9.375 5.5957L7.10938 5.5957C6.55273 5.5957 6.21094 5.92773 6.21094 6.45508Z" fill="var(--color-primary)"/>
  <path d="M0.917969 13.9941C0.917969 14.541 1.26953 14.8633 1.83594 14.8633L4.0918 14.8633C4.64844 14.8633 5 14.541 5 13.9941L5 9.25781C5 8.71094 4.64844 8.37891 4.0918 8.37891L1.83594 8.37891C1.26953 8.37891 0.917969 8.71094 0.917969 9.25781Z" fill="var(--color-primary)"/>
 </g>
</svg>
