<?xml version="1.0" encoding="UTF-8"?>
<!--Generator: Apple Native CoreSVG 232.5-->
<!DOCTYPE svg
PUBLIC "-//W3C//DTD SVG 1.1//EN"
       "http://www.w3.org/Graphics/SVG/1.1/DTD/svg11.dtd">
<svg version="1.1" xmlns="http://www.w3.org/2000/svg" xmlns:xlink="http://www.w3.org/1999/xlink" width="20.2832" height="23.7188">
 <g>
  <rect height="23.7188" opacity="0" width="20.2832" x="0" y="0"/>
  <path d="M0 11.8545C0 17.3037 4.52148 21.8155 9.96094 21.8155C15.4102 21.8155 19.9219 17.3037 19.9219 11.8545C19.9219 7.04983 16.416 2.97756 11.8457 2.07912L11.8457 0.692405C11.8457-0.000954238 11.3672-0.186501 10.8398 0.194358L7.72461 2.37209C7.27539 2.68459 7.26562 3.15334 7.72461 3.47561L10.8301 5.66311C11.3672 6.05373 11.8457 5.86819 11.8457 5.16506L11.8457 3.77834C15.5371 4.61819 18.252 7.89944 18.252 11.8545C18.252 16.4639 14.5703 20.1553 9.96094 20.1553C5.35156 20.1553 1.65039 16.4639 1.66016 11.8545C1.66992 9.08108 3.01758 6.62991 5.09766 5.14553C5.49805 4.8428 5.625 4.38381 5.38086 3.97366C5.13672 3.57326 4.59961 3.46584 4.16992 3.79787C1.66016 5.62405 0 8.57326 0 11.8545Z" fill="#ffffff" fill-opacity="0.85"/>
  <path d="M8.94531 16.4932C9.26758 16.4932 9.54102 16.3369 9.73633 16.0342L14.1992 9.01272C14.3066 8.81741 14.4336 8.60256 14.4336 8.38772C14.4336 7.94826 14.043 7.66506 13.6328 7.66506C13.3887 7.66506 13.1445 7.82131 12.959 8.10451L8.90625 14.6084L6.98242 12.1182C6.74805 11.8057 6.5332 11.7276 6.25977 11.7276C5.83984 11.7276 5.50781 12.0694 5.50781 12.499C5.50781 12.7139 5.5957 12.919 5.73242 13.1045L8.11523 16.0342C8.35938 16.3565 8.62305 16.4932 8.94531 16.4932Z" fill="#ffffff" fill-opacity="0.85"/>
 </g>
</svg>
