<svg version="1.1" xmlns="http://www.w3.org/2000/svg" xmlns:xlink="http://www.w3.org/1999/xlink" width="22.5098" height="20.3613" viewBox="0 0 22.5098 20.3613">
 <g>
  <rect height="20.3613" opacity="0" width="22.5098" x="0" y="0"/>
  <path d="M22.1484 8.87695C22.1484 13.7402 17.4805 17.7441 10.4395 17.7441C10.3125 17.7441 10.1855 17.7344 10.0586 17.7246C9.92188 17.7246 9.78516 17.7734 9.61914 17.8906C7.95898 19.082 5.03906 20.3613 3.86719 20.3613C3.11523 20.3613 2.90039 19.7461 3.28125 19.2578C3.65234 18.7695 4.62891 17.6953 5.17578 16.7969C5.25391 16.6504 5.20508 16.5039 5.05859 16.4258C1.92383 14.7461 0 12.002 0 8.87695C0 3.96484 4.92188 0 11.0742 0C17.2266 0 22.1484 3.96484 22.1484 8.87695ZM14.1113 5.09766L9.94141 11.7871L7.95898 9.23828C7.71484 8.91602 7.5 8.81836 7.22656 8.81836C6.77734 8.81836 6.43555 9.17969 6.43555 9.62891C6.43555 9.84375 6.52344 10.0684 6.66992 10.2637L9.12109 13.2715C9.375 13.6133 9.64844 13.7402 9.98047 13.7402C10.3125 13.7402 10.5957 13.584 10.8008 13.2715L15.3906 6.03516C15.5078 5.83984 15.6348 5.60547 15.6348 5.39062C15.6348 4.94141 15.2344 4.64844 14.8145 4.64844C14.5508 4.64844 14.2969 4.79492 14.1113 5.09766Z" fill="var(--color-primary)"/>
 </g>
</svg>
