<?xml version="1.0" encoding="UTF-8"?>
<!--Generator: Apple Native CoreSVG 232.5-->
<!DOCTYPE svg
PUBLIC "-//W3C//DTD SVG 1.1//EN"
       "http://www.w3.org/Graphics/SVG/1.1/DTD/svg11.dtd">
<svg version="1.1" xmlns="http://www.w3.org/2000/svg" xmlns:xlink="http://www.w3.org/1999/xlink" width="23.3887" height="17.9785">
 <g>
  <rect height="17.9785" opacity="0" width="23.3887" x="0" y="0"/>
  <path d="M23.0273 3.02734L23.0273 14.9609C23.0273 16.9727 22.0117 17.9785 19.9609 17.9785L3.06641 17.9785C1.02539 17.9785 0 16.9727 0 14.9609L0 3.02734C0 1.01562 1.02539 0 3.06641 0L19.9609 0C22.0117 0 23.0273 1.01562 23.0273 3.02734ZM14.5605 5.11719L10.3906 11.8164L8.39844 9.25781C8.16406 8.93555 7.93945 8.84766 7.66602 8.84766C7.2168 8.84766 6.88477 9.20898 6.88477 9.64844C6.88477 9.87305 6.96289 10.0879 7.11914 10.2832L9.56055 13.291C9.82422 13.6328 10.0879 13.7695 10.4297 13.7695C10.7617 13.7695 11.0449 13.6133 11.2402 13.291L15.8398 6.06445C15.957 5.85938 16.084 5.63477 16.084 5.41992C16.084 4.96094 15.6836 4.66797 15.2539 4.66797C14.9902 4.66797 14.7363 4.82422 14.5605 5.11719Z" fill="#ffffff" fill-opacity="0.85"/>
 </g>
</svg>
