<svg version="1.1" xmlns="http://www.w3.org/2000/svg" xmlns:xlink="http://www.w3.org/1999/xlink" width="24.9121" height="18.5645" viewBox="0 0 24.9121 18.5645">
 <g>
  <rect height="18.5645" opacity="0" width="24.9121" x="0" y="0"/>
  <path d="M19.2969 16.9727C22.2461 16.9727 24.5508 14.8145 24.5508 12.1289C24.5508 10.0781 23.3691 8.30078 21.4648 7.5C21.4844 3.14453 18.3496 0 14.3555 0C11.709 0 9.82422 1.41602 8.65234 3.125C6.25 2.42188 3.63281 4.24805 3.58398 6.98242C1.37695 7.33398 0 9.30664 0 11.6895C0 14.5605 2.50977 16.9727 5.84961 16.9727Z" fill="var(--color-tertiary)"/>
  <path d="M11.582 13.1348C11.2598 13.1348 10.9961 12.998 10.7617 12.6953L8.57422 9.94141C8.42773 9.74609 8.34961 9.55078 8.34961 9.3457C8.34961 8.88672 8.70117 8.53516 9.14062 8.53516C9.43359 8.53516 9.67773 8.67188 9.86328 8.92578L11.543 11.123L14.8828 5.54688C15.0391 5.27344 15.3027 5.10742 15.5762 5.10742C16.0352 5.10742 16.4062 5.42969 16.4062 5.85938C16.4062 6.08398 16.2793 6.30859 16.1816 6.46484L12.3633 12.6855C12.1777 12.9785 11.9043 13.1348 11.582 13.1348Z" fill="var(--color-primary)"/>
 </g>
</svg>
