<svg version="1.1" xmlns="http://www.w3.org/2000/svg" xmlns:xlink="http://www.w3.org/1999/xlink" width="18.3398" height="17.998" viewBox="0 0 18.3398 17.998">
 <g>
  <rect height="17.998" opacity="0" width="18.3398" x="0" y="0"/>
  <path d="M3.06641 17.998L14.9121 17.998C16.9629 17.998 17.9785 16.9824 17.9785 14.9707L17.9785 3.04688C17.9785 1.03516 16.9629 0.0195312 14.9121 0.0195312L3.06641 0.0195312C1.02539 0.0195312 0 1.02539 0 3.04688L0 14.9707C0 16.9922 1.02539 17.998 3.06641 17.998ZM3.08594 16.4258C2.10938 16.4258 1.57227 15.9082 1.57227 14.8926L1.57227 3.125C1.57227 2.10938 2.10938 1.5918 3.08594 1.5918L14.8926 1.5918C15.8594 1.5918 16.4062 2.10938 16.4062 3.125L16.4062 14.8926C16.4062 15.9082 15.8594 16.4258 14.8926 16.4258Z" fill="var(--color-primary)"/>
  <path d="M6.77734 13.8281C7.03125 14.0723 7.53906 14.0527 7.8125 13.7988L11.875 9.96094C12.4316 9.45312 12.4316 8.55469 11.875 8.04688L7.8125 4.20898C7.50977 3.92578 7.06055 3.91602 6.78711 4.17969C6.48438 4.46289 6.47461 4.95117 6.76758 5.22461L10.7812 8.99414L6.76758 12.7832C6.48438 13.0566 6.47461 13.5254 6.77734 13.8281Z" fill="var(--color-primary)"/>
 </g>
</svg>
