<?xml version="1.0" encoding="UTF-8"?>
<!--Generator: Apple Native CoreSVG 232.5-->
<!DOCTYPE svg
PUBLIC "-//W3C//DTD SVG 1.1//EN"
       "http://www.w3.org/Graphics/SVG/1.1/DTD/svg11.dtd">
<svg version="1.1" xmlns="http://www.w3.org/2000/svg" xmlns:xlink="http://www.w3.org/1999/xlink" width="20.625" height="18.7793">
 <g>
  <rect height="18.7793" opacity="0" width="20.625" x="0" y="0"/>
  <path d="M6.55273 5.92773C8.17383 5.92773 9.52148 4.58008 9.52148 2.96875C9.52148 1.34766 8.17383 0 6.55273 0C4.93164 0 3.58398 1.34766 3.58398 2.96875C3.58398 4.57031 4.92188 5.92773 6.55273 5.92773ZM13.7109 5.92773C15.332 5.92773 16.6895 4.58008 16.6895 2.96875C16.6895 1.34766 15.332 0 13.7109 0C12.0898 0 10.7422 1.34766 10.7422 2.96875C10.7422 4.58008 12.0898 5.92773 13.7109 5.92773ZM2.96875 12.3535C4.59961 12.3535 5.94727 11.0059 5.94727 9.38477C5.94727 7.76367 4.59961 6.41602 2.96875 6.41602C1.34766 6.41602 0 7.76367 0 9.38477C0 10.9961 1.33789 12.3535 2.96875 12.3535ZM17.2949 12.3535C18.916 12.3535 20.2637 11.0059 20.2637 9.38477C20.2637 7.76367 18.916 6.41602 17.2949 6.41602C15.6738 6.41602 14.3164 7.76367 14.3164 9.38477C14.3164 11.0059 15.6738 12.3535 17.2949 12.3535ZM6.55273 18.7695C8.17383 18.7695 9.52148 17.4219 9.52148 15.8008C9.52148 14.1797 8.17383 12.832 6.55273 12.832C4.93164 12.832 3.58398 14.1797 3.58398 15.8008C3.58398 17.4121 4.92188 18.7695 6.55273 18.7695ZM13.7109 18.7695C15.332 18.7695 16.6895 17.4219 16.6895 15.8008C16.6895 14.1797 15.332 12.832 13.7109 12.832C12.0898 12.832 10.7422 14.1797 10.7422 15.8008C10.7422 17.4219 12.0898 18.7695 13.7109 18.7695Z" fill="#ffffff" fill-opacity="0.85"/>
 </g>
</svg>
