<svg version="1.1" xmlns="http://www.w3.org/2000/svg" xmlns:xlink="http://www.w3.org/1999/xlink" width="23.3887" height="17.9785" viewBox="0 0 23.3887 17.9785">
 <g>
  <rect height="17.9785" opacity="0" width="23.3887" x="0" y="0"/>
  <path d="M23.0273 3.02734L23.0273 14.9609C23.0273 16.9727 22.0117 17.9785 19.9609 17.9785L3.06641 17.9785C1.02539 17.9785 0 16.9727 0 14.9609L0 3.02734C0 1.01562 1.02539 0 3.06641 0L19.9609 0C22.0117 0 23.0273 1.01562 23.0273 3.02734ZM16.2305 1.57227L13.7388 4.06398C13.2377 3.82723 12.6924 3.67024 12.1186 3.60607L14.1577 1.57227L8.82812 1.57227L1.57227 8.82812L1.57227 14.1602L6.07884 9.65359C6.14356 10.2251 6.30032 10.7679 6.536 11.2666L1.87417 15.9203C2.12803 16.2432 2.53774 16.4062 3.08594 16.4062L6.79688 16.4062L9.24822 13.9549C9.75265 14.1862 10.3006 14.3384 10.8764 14.3992L8.87513 16.4062L14.1985 16.4062L21.4551 9.14116L21.4551 3.81836L16.8707 8.40273C16.8106 7.83277 16.6607 7.28972 16.4332 6.78894L21.1501 2.06403C20.8946 1.73846 20.4841 1.57227 19.9414 1.57227ZM16.2881 16.4062L19.9414 16.4062C20.9082 16.4062 21.4551 15.8887 21.4551 14.873L21.4551 11.2312ZM3.08594 1.57227C2.10938 1.57227 1.57227 2.09961 1.57227 3.11523L1.57227 6.74713L6.73959 1.57227Z" fill="currentColor"/>
  <path d="M11.4746 14.4336C14.4727 14.4336 16.9043 12.002 16.9043 8.99414C16.9043 5.99609 14.4727 3.56445 11.4746 3.56445C8.4668 3.56445 6.03516 5.99609 6.03516 8.99414C6.03516 12.002 8.4668 14.4336 11.4746 14.4336ZM11.4746 13.1738C9.15039 13.1738 7.29492 11.3184 7.29492 8.99414C7.29492 6.66992 9.15039 4.82422 11.4746 4.82422C13.7988 4.82422 15.6445 6.66992 15.6445 8.99414C15.6445 11.3184 13.7988 13.1738 11.4746 13.1738Z" fill="currentColor"/>
 </g>
</svg>
