<?xml version="1.0" encoding="UTF-8"?>
<!--Generator: Apple Native CoreSVG 232.5-->
<!DOCTYPE svg
PUBLIC "-//W3C//DTD SVG 1.1//EN"
       "http://www.w3.org/Graphics/SVG/1.1/DTD/svg11.dtd">
<svg version="1.1" xmlns="http://www.w3.org/2000/svg" xmlns:xlink="http://www.w3.org/1999/xlink" width="20.2832" height="19.9316">
 <g>
  <rect height="19.9316" opacity="0" width="20.2832" x="0" y="0"/>
  <path d="M9.96094 19.9219C15.4102 19.9219 19.9219 15.4004 19.9219 9.96094C19.9219 4.51172 15.4004 0 9.95117 0C4.51172 0 0 4.51172 0 9.96094C0 15.4004 4.52148 19.9219 9.96094 19.9219ZM9.96094 18.2617C5.35156 18.2617 1.66992 14.5703 1.66992 9.96094C1.66992 5.35156 5.3418 1.66016 9.95117 1.66016C14.5605 1.66016 18.2617 5.35156 18.2617 9.96094C18.2617 14.5703 14.5703 18.2617 9.96094 18.2617Z" fill="#ffffff" fill-opacity="0.85"/>
  <path d="M7.87109 7.91016C8.78906 7.91016 9.56055 7.13867 9.56055 6.2207C9.56055 5.2832 8.78906 4.51172 7.87109 4.51172C6.93359 4.51172 6.16211 5.2832 6.16211 6.2207C6.16211 7.13867 6.92383 7.91016 7.87109 7.91016ZM12.0312 7.91016C12.9688 7.91016 13.7402 7.13867 13.7402 6.2207C13.7402 5.2832 12.9688 4.51172 12.0312 4.51172C11.1133 4.51172 10.3418 5.2832 10.3418 6.2207C10.3418 7.13867 11.1133 7.91016 12.0312 7.91016ZM5.78125 11.6602C6.70898 11.6602 7.48047 10.8789 7.48047 9.95117C7.48047 9.0332 6.70898 8.25195 5.78125 8.25195C4.85352 8.25195 4.08203 9.0332 4.08203 9.95117C4.08203 10.8789 4.84375 11.6602 5.78125 11.6602ZM9.95117 11.6602C10.8789 11.6602 11.6602 10.8789 11.6602 9.95117C11.6602 9.0332 10.8789 8.25195 9.95117 8.25195C9.0332 8.25195 8.25195 9.0332 8.25195 9.95117C8.25195 10.8789 9.0332 11.6602 9.95117 11.6602ZM14.1211 11.6602C15.0586 11.6602 15.8301 10.8789 15.8301 9.95117C15.8301 9.0332 15.0586 8.25195 14.1211 8.25195C13.2031 8.25195 12.4316 9.0332 12.4316 9.95117C12.4316 10.8789 13.2031 11.6602 14.1211 11.6602ZM7.87109 15.4004C8.78906 15.4004 9.56055 14.6289 9.56055 13.6914C9.56055 12.7734 8.78906 12.002 7.87109 12.002C6.93359 12.002 6.16211 12.7734 6.16211 13.6914C6.16211 14.6191 6.92383 15.4004 7.87109 15.4004ZM12.0312 15.4004C12.9688 15.4004 13.7402 14.6289 13.7402 13.6914C13.7402 12.7734 12.9688 12.002 12.0312 12.002C11.1133 12.002 10.3418 12.7734 10.3418 13.6914C10.3418 14.6289 11.1133 15.4004 12.0312 15.4004Z" fill="#ffffff" fill-opacity="0.85"/>
 </g>
</svg>
