<svg version="1.1" xmlns="http://www.w3.org/2000/svg" xmlns:xlink="http://www.w3.org/1999/xlink" width="12.9199" height="20.6934" viewBox="0 0 12.9199 20.6934">
 <g>
  <rect height="20.6934" opacity="0" width="12.9199" x="0" y="0"/>
  <path d="M2.65625 20.6738L9.90234 20.6738C11.4941 20.6738 12.5586 19.6582 12.5586 18.1348L12.5586 2.53906C12.5586 1.01562 11.4941 0 9.90234 0L2.65625 0C1.06445 0 0 1.01562 0 2.53906L0 18.1348C0 19.6582 1.06445 20.6738 2.65625 20.6738Z" fill="var(--color-tertiary)"/>
  <path d="M6.28906 14.082C4.22852 14.082 2.53906 12.3926 2.53906 10.332C2.53906 8.27148 4.22852 6.58203 6.28906 6.58203C8.34961 6.58203 10.0391 8.27148 10.0391 10.332C10.0391 12.3926 8.34961 14.082 6.28906 14.082Z" fill="var(--color-primary)"/>
 </g>
</svg>
