<svg version="1.1" xmlns="http://www.w3.org/2000/svg" xmlns:xlink="http://www.w3.org/1999/xlink" width="21.2109" height="19.3652" viewBox="0 0 21.2109 19.3652">
 <g>
  <rect height="19.3652" opacity="0" width="21.2109" x="0" y="0"/>
  <path d="M6.8457 6.51367C8.62305 6.51367 10.1074 5.03906 10.1074 3.26172C10.1074 1.48438 8.62305 0 6.8457 0C5.06836 0 3.58398 1.48438 3.58398 3.26172C3.58398 5.03906 5.06836 6.51367 6.8457 6.51367ZM6.8457 4.94141C5.92773 4.94141 5.15625 4.16992 5.15625 3.26172C5.15625 2.34375 5.92773 1.57227 6.8457 1.57227C7.76367 1.57227 8.53516 2.34375 8.53516 3.26172C8.53516 4.16992 7.76367 4.94141 6.8457 4.94141ZM14.0039 6.51367C15.7812 6.51367 17.2656 5.03906 17.2656 3.26172C17.2656 1.48438 15.7812 0 14.0039 0C12.2266 0 10.7422 1.48438 10.7422 3.26172C10.7422 5.03906 12.2266 6.51367 14.0039 6.51367ZM14.0039 4.94141C13.0859 4.94141 12.3145 4.16992 12.3145 3.26172C12.3145 2.34375 13.0859 1.57227 14.0039 1.57227C14.9219 1.57227 15.6934 2.34375 15.6934 3.26172C15.6934 4.16992 14.9219 4.94141 14.0039 4.94141ZM3.26172 12.9395C5.04883 12.9395 6.5332 11.4551 6.5332 9.67773C6.5332 7.90039 5.04883 6.41602 3.26172 6.41602C1.48438 6.41602 0 7.90039 0 9.67773C0 11.4551 1.48438 12.9395 3.26172 12.9395ZM3.26172 11.3672C2.34375 11.3672 1.57227 10.5957 1.57227 9.67773C1.57227 8.75977 2.34375 7.98828 3.26172 7.98828C4.17969 7.98828 4.96094 8.75977 4.96094 9.67773C4.96094 10.5957 4.17969 11.3672 3.26172 11.3672ZM17.5879 12.9395C19.3652 12.9395 20.8496 11.4551 20.8496 9.67773C20.8496 7.90039 19.3652 6.41602 17.5879 6.41602C15.8105 6.41602 14.3164 7.90039 14.3164 9.67773C14.3164 11.4551 15.8105 12.9395 17.5879 12.9395ZM17.5879 11.3672C16.6699 11.3672 15.8887 10.5957 15.8887 9.67773C15.8887 8.75977 16.6699 7.98828 17.5879 7.98828C18.5059 7.98828 19.2773 8.75977 19.2773 9.67773C19.2773 10.5957 18.5059 11.3672 17.5879 11.3672ZM6.8457 19.3555C8.62305 19.3555 10.1074 17.8711 10.1074 16.0938C10.1074 14.3066 8.62305 12.832 6.8457 12.832C5.06836 12.832 3.58398 14.3066 3.58398 16.0938C3.58398 17.8711 5.06836 19.3555 6.8457 19.3555ZM6.8457 17.7832C5.92773 17.7832 5.15625 17.0117 5.15625 16.0938C5.15625 15.1758 5.92773 14.4043 6.8457 14.4043C7.76367 14.4043 8.53516 15.1758 8.53516 16.0938C8.53516 17.0117 7.76367 17.7832 6.8457 17.7832ZM14.0039 19.3555C15.7812 19.3555 17.2656 17.8711 17.2656 16.0938C17.2656 14.3066 15.7812 12.832 14.0039 12.832C12.2266 12.832 10.7422 14.3066 10.7422 16.0938C10.7422 17.8711 12.2266 19.3555 14.0039 19.3555ZM14.0039 17.7832C13.0859 17.7832 12.3145 17.0117 12.3145 16.0938C12.3145 15.1758 13.0859 14.4043 14.0039 14.4043C14.9219 14.4043 15.6934 15.1758 15.6934 16.0938C15.6934 17.0117 14.9219 17.7832 14.0039 17.7832Z" fill="currentColor"/>
 </g>
</svg>
