<svg version="1.1" xmlns="http://www.w3.org/2000/svg" xmlns:xlink="http://www.w3.org/1999/xlink" width="16.7871" height="27.0605" viewBox="0 0 16.7871 27.0605">
 <g>
  <rect height="27.0605" opacity="0" width="16.7871" x="0" y="0"/>
  <path d="M16.4258 6.91406L16.4258 21.7285C16.4258 23.7793 15.4199 24.7949 13.3984 24.7949L3.02734 24.7949C1.00586 24.7949 0 23.7793 0 21.7285L0 6.91406C0 4.86328 1.00586 3.84766 3.02734 3.84766L3.15794 3.84766C3.14873 3.93003 3.14453 4.01489 3.14453 4.10156L3.14453 5.12695C3.14453 6.35742 4.00391 7.22656 5.19531 7.22656L11.2305 7.22656C12.4219 7.22656 13.2812 6.35742 13.2812 5.12695L13.2812 4.10156C13.2812 4.01489 13.2771 3.93003 13.2678 3.84766L13.3984 3.84766C15.4199 3.84766 16.4258 4.86328 16.4258 6.91406Z" fill="var(--color-primary)"/>
  <path d="M5.19531 6.09375L11.2305 6.09375C11.7969 6.09375 12.1387 5.73242 12.1387 5.12695L12.1387 4.10156C12.1387 3.49609 11.7969 3.13477 11.2305 3.13477L10.332 3.13477C10.2637 2.03125 9.3457 1.13281 8.21289 1.13281C7.08008 1.13281 6.16211 2.03125 6.09375 3.13477L5.19531 3.13477C4.62891 3.13477 4.28711 3.49609 4.28711 4.10156L4.28711 5.12695C4.28711 5.73242 4.62891 6.09375 5.19531 6.09375ZM8.21289 4.0625C7.74414 4.0625 7.36328 3.67188 7.36328 3.21289C7.36328 2.73438 7.74414 2.35352 8.21289 2.35352C8.68164 2.35352 9.0625 2.73438 9.0625 3.21289C9.0625 3.67188 8.68164 4.0625 8.21289 4.0625Z" fill="var(--color-primary)"/>
 </g>
</svg>
