<?xml version="1.0" encoding="UTF-8"?>
<!--Generator: Apple Native CoreSVG 232.5-->
<!DOCTYPE svg
PUBLIC "-//W3C//DTD SVG 1.1//EN"
       "http://www.w3.org/Graphics/SVG/1.1/DTD/svg11.dtd">
<svg version="1.1" xmlns="http://www.w3.org/2000/svg" xmlns:xlink="http://www.w3.org/1999/xlink" width="20.2832" height="19.9316">
 <g>
  <rect height="19.9316" opacity="0" width="20.2832" x="0" y="0"/>
  <path d="M9.96094 19.9316C15.4102 19.9316 19.9219 15.4199 19.9219 9.9707C19.9219 4.53125 15.4004 0.00976562 9.95117 0.00976562C4.51172 0.00976562 0 4.53125 0 9.9707C0 15.4199 4.52148 19.9316 9.96094 19.9316Z" fill="#ffffff" fill-opacity="0.25"/>
  <path d="M5.07812 14.209C3.81836 14.209 2.95898 13.3887 2.95898 12.2754C2.95898 11.3867 3.53516 10.6641 4.33594 10.4004C4.51172 8.79883 5.86914 7.53906 7.49023 7.53906C8.7207 7.53906 9.72656 8.20312 10.293 9.26758C11.7773 9.29688 12.8711 10.3418 12.8711 11.7188C12.8711 13.125 11.7871 14.209 10.3516 14.209ZM9.32617 7.10938L8.57422 6.34766C8.4082 6.15234 8.4082 5.83984 8.57422 5.66406C8.75977 5.48828 9.0625 5.48828 9.25781 5.66406L10.0293 6.42578C10.1953 6.60156 10.1855 6.91406 10.0293 7.09961C9.83398 7.27539 9.51172 7.29492 9.32617 7.10938ZM12.1973 6.19141C11.9336 6.19141 11.709 5.9668 11.709 5.71289L11.709 4.63867C11.709 4.36523 11.9336 4.16016 12.1973 4.16016C12.4707 4.16016 12.6855 4.36523 12.6855 4.63867L12.6855 5.71289C12.6855 5.9668 12.4707 6.19141 12.1973 6.19141ZM14.3848 7.09961C14.209 6.91406 14.1992 6.60156 14.3848 6.42578L15.1367 5.66406C15.332 5.47852 15.6445 5.48828 15.8301 5.66406C16.0059 5.84961 16.0059 6.15234 15.8301 6.34766L15.0781 7.10938C14.9023 7.29492 14.5703 7.27539 14.3848 7.09961ZM15.7812 9.76562C15.5078 9.76562 15.293 9.55078 15.293 9.28711C15.293 9.01367 15.5078 8.80859 15.7812 8.80859L16.8262 8.80859C17.0996 8.80859 17.3145 9.01367 17.3145 9.28711C17.3145 9.55078 17.0996 9.76562 16.8262 9.76562ZM15.1367 12.9199L14.3848 12.168C14.1992 11.9727 14.209 11.6699 14.3848 11.4844C14.5801 11.2988 14.8926 11.2988 15.0781 11.4844L15.8301 12.2266C16.0156 12.4023 16.0059 12.7246 15.8301 12.9102C15.6445 13.0957 15.332 13.1152 15.1367 12.9199ZM14.6875 9.28711C14.6875 10.1172 14.2773 10.8691 13.5938 11.3379C13.4375 9.87305 12.2656 8.75977 10.7324 8.56445C10.5664 8.30078 10.3809 8.07617 10.1562 7.88086C10.5957 7.22656 11.3477 6.80664 12.1973 6.80664C13.5742 6.80664 14.6875 7.89062 14.6875 9.28711Z" fill="#ffffff" fill-opacity="0.85"/>
 </g>
</svg>
