<svg version="1.1" xmlns="http://www.w3.org/2000/svg" xmlns:xlink="http://www.w3.org/1999/xlink" width="29.873" height="21.1035" viewBox="0 0 29.873 21.1035">
 <g>
  <rect height="21.1035" opacity="0" width="29.873" x="0" y="0"/>
  <path d="M25.4199 14.9512L26.9336 16.4551C27.2461 16.7676 27.2461 17.2852 26.9336 17.5879C26.6211 17.9004 26.1035 17.9199 25.8008 17.5977L24.2773 16.0938C23.9648 15.7812 23.9648 15.2637 24.2773 14.9512C24.5898 14.6484 25.1074 14.6484 25.4199 14.9512ZM24.5898 10.4297C24.5898 12.1704 23.6504 13.7099 22.2576 14.5596C21.9842 11.7184 19.7028 9.57947 16.709 9.27734C16.3967 8.78437 16.0391 8.3347 15.6397 7.93678C16.4876 6.53355 18.0276 5.58594 19.7656 5.58594C22.4023 5.58594 24.5898 7.7832 24.5898 10.4297ZM29.873 10.4297C29.873 10.8789 29.5117 11.2402 29.0723 11.2402L26.9531 11.2402C26.5234 11.2402 26.1426 10.8789 26.1426 10.4297C26.1426 10 26.5234 9.61914 26.9531 9.61914L29.0723 9.61914C29.5117 9.61914 29.873 10 29.873 10.4297ZM26.9336 3.27148C27.2461 3.58398 27.2461 4.11133 26.9336 4.42383L25.4297 5.91797C25.1074 6.24023 24.5898 6.23047 24.2773 5.91797C23.9648 5.60547 23.9648 5.08789 24.2773 4.78516L25.8008 3.27148C26.1035 2.95898 26.6211 2.95898 26.9336 3.27148ZM13.75 3.27148L15.2539 4.78516C15.5566 5.07812 15.5566 5.61523 15.2441 5.91797C14.9316 6.23047 14.4141 6.23047 14.1016 5.91797L12.6074 4.41406C12.2949 4.11133 12.3047 3.58398 12.6172 3.27148C12.9297 2.95898 13.4473 2.96875 13.75 3.27148ZM20.5762 1.10352L20.5762 3.23242C20.5762 3.66211 20.2051 4.0332 19.7656 4.0332C19.3262 4.0332 18.9551 3.66211 18.9551 3.23242L18.9551 1.10352C18.9551 0.673828 19.3262 0.292969 19.7656 0.292969C20.2051 0.292969 20.5762 0.673828 20.5762 1.10352Z" fill="currentColor"/>
  <path d="M5.64453 19.9609L16.2109 19.9609C18.9941 19.9609 21.1523 17.8516 21.1523 15.1367C21.1523 12.4414 18.9551 10.4004 16.0352 10.3809C14.9121 8.24219 12.8906 6.93359 10.4785 6.93359C7.29492 6.93359 4.59961 9.4043 4.29688 12.6172C2.67578 13.1055 1.57227 14.4922 1.57227 16.25C1.57227 18.418 3.20312 19.9609 5.64453 19.9609Z" fill="currentColor"/>
 </g>
</svg>
