<?xml version="1.0" encoding="UTF-8"?>
<!--Generator: Apple Native CoreSVG 232.5-->
<!DOCTYPE svg
PUBLIC "-//W3C//DTD SVG 1.1//EN"
       "http://www.w3.org/Graphics/SVG/1.1/DTD/svg11.dtd">
<svg version="1.1" xmlns="http://www.w3.org/2000/svg" xmlns:xlink="http://www.w3.org/1999/xlink" width="27.1973" height="18.3496">
 <g>
  <rect height="18.3496" opacity="0" width="27.1973" x="0" y="0"/>
  <path d="M20.5273 1.12305C20.5273 1.64062 19.8438 2.57812 19.8438 3.87695C19.8438 6.11328 21.2793 7.5 23.7012 7.5C25.0781 7.5 25.791 6.875 26.2695 6.875C26.582 6.875 26.748 7.14844 26.748 7.5293C26.748 9.00021 25.1856 11.643 21.9511 12.0851C21.8345 9.05182 19.4848 6.74895 16.3672 6.42578C16.0763 5.96728 15.7487 5.54888 15.3872 5.17614C15.9327 2.51758 18.1926 0.693198 19.9316 0.625C20.3223 0.615234 20.5273 0.820312 20.5273 1.12305Z" fill="#ffffff" fill-opacity="0.55"/>
  <path d="M5.26367 17.1387L15.8301 17.1387C18.6035 17.1387 20.752 15.0391 20.752 12.334C20.752 9.64844 18.5645 7.61719 15.6445 7.59766C14.502 5.41016 12.4609 4.14062 10.1074 4.14062C6.92383 4.14062 4.23828 6.61133 3.93555 9.82422C2.27539 10.3223 1.21094 11.7285 1.21094 13.4473C1.21094 15.6348 2.86133 17.1387 5.26367 17.1387Z" fill="#ffffff" fill-opacity="0.85"/>
 </g>
</svg>
