<svg version="1.1" xmlns="http://www.w3.org/2000/svg" xmlns:xlink="http://www.w3.org/1999/xlink" width="20.2832" height="19.9316" viewBox="0 0 20.2832 19.9316">
 <g>
  <rect height="19.9316" opacity="0" width="20.2832" x="0" y="0"/>
  <path d="M9.96094 19.9219C15.4102 19.9219 19.9219 15.4004 19.9219 9.96094C19.9219 4.51172 15.4004 0 9.95117 0C4.51172 0 0 4.51172 0 9.96094C0 15.4004 4.52148 19.9219 9.96094 19.9219ZM9.96094 18.2617C5.35156 18.2617 1.66992 14.5703 1.66992 9.96094C1.66992 5.35156 5.3418 1.66016 9.95117 1.66016C14.5605 1.66016 18.2617 5.35156 18.2617 9.96094C18.2617 14.5703 14.5703 18.2617 9.96094 18.2617Z" fill="currentColor"/>
  <path d="M6.81641 11.2695L12.6367 11.2695C14.1504 11.2695 15.3125 10.0977 15.3125 8.66211C15.3125 7.16797 14.0918 6.07422 12.5098 6.07422C11.9141 4.92188 10.8301 4.16992 9.48242 4.16992C7.72461 4.16992 6.26953 5.55664 6.10352 7.30469C5.26367 7.54883 4.61914 8.28125 4.61914 9.26758C4.61914 10.3711 5.41992 11.2695 6.81641 11.2695ZM6.69922 14.043L7.39258 12.8418C7.50977 12.6367 7.44141 12.3535 7.22656 12.2363C7.01172 12.1094 6.74805 12.1875 6.62109 12.4023L5.92773 13.5938C5.80078 13.8086 5.86914 14.0918 6.09375 14.209C6.30859 14.3359 6.57227 14.2578 6.69922 14.043ZM8.07617 15.5469L9.64844 12.8418C9.76562 12.627 9.69727 12.3535 9.47266 12.2363C9.26758 12.1094 9.00391 12.1777 8.87695 12.4023L7.30469 15.1074C7.1875 15.3125 7.25586 15.5957 7.48047 15.7129C7.68555 15.8398 7.94922 15.7617 8.07617 15.5469ZM11.1914 14.043L11.8848 12.8418C12.0117 12.6367 11.9434 12.3535 11.7188 12.2363C11.5137 12.1094 11.2402 12.1875 11.123 12.4023L10.4199 13.5938C10.3027 13.8086 10.3711 14.0918 10.5957 14.209C10.8008 14.3359 11.0645 14.2578 11.1914 14.043ZM12.5684 15.5469L14.1406 12.8418C14.2676 12.627 14.1895 12.3535 13.9746 12.2363C13.7598 12.1094 13.4961 12.1777 13.3691 12.4023L11.8066 15.1074C11.6797 15.3125 11.748 15.5957 11.9727 15.7129C12.1777 15.8398 12.4512 15.7617 12.5684 15.5469Z" fill="currentColor"/>
 </g>
</svg>
