<?xml version="1.0" encoding="UTF-8"?>
<!--Generator: Apple Native CoreSVG 232.5-->
<!DOCTYPE svg
PUBLIC "-//W3C//DTD SVG 1.1//EN"
       "http://www.w3.org/Graphics/SVG/1.1/DTD/svg11.dtd">
<svg version="1.1" xmlns="http://www.w3.org/2000/svg" xmlns:xlink="http://www.w3.org/1999/xlink" width="20.2832" height="19.9316">
 <g>
  <rect height="19.9316" opacity="0" width="20.2832" x="0" y="0"/>
  <path d="M9.96094 19.9219C15.4102 19.9219 19.9219 15.4004 19.9219 9.96094C19.9219 4.51172 15.4004 0 9.95117 0C4.51172 0 0 4.51172 0 9.96094C0 15.4004 4.52148 19.9219 9.96094 19.9219ZM9.96094 18.2617C5.35156 18.2617 1.66992 14.5703 1.66992 9.96094C1.66992 5.35156 5.3418 1.66016 9.95117 1.66016C14.5605 1.66016 18.2617 5.35156 18.2617 9.96094C18.2617 14.5703 14.5703 18.2617 9.96094 18.2617Z" fill="#ffffff" fill-opacity="0.55"/>
  <path d="M6.89453 10.9277L12.7148 10.9277C14.2285 10.9277 15.3906 9.75586 15.3906 8.32031C15.3906 6.81641 14.1699 5.73242 12.5879 5.73242C11.9922 4.58008 10.9082 3.82812 9.56055 3.82812C7.80273 3.82812 6.34766 5.21484 6.18164 6.95312C5.3418 7.20703 4.69727 7.92969 4.69727 8.92578C4.69727 10.0293 5.49805 10.9277 6.89453 10.9277ZM8.24219 15.0879L9.73633 12.5C9.87305 12.2754 9.79492 12.0117 9.57031 11.8848C9.35547 11.7676 9.10156 11.8359 8.97461 12.0605L7.4707 14.6387C7.34375 14.8535 7.41211 15.127 7.63672 15.2539C7.85156 15.3711 8.11523 15.3027 8.24219 15.0879ZM12.6758 15.0879L14.1797 12.5C14.3164 12.2754 14.2383 12.0117 14.0137 11.8848C13.7988 11.7676 13.5449 11.8359 13.4082 12.0605L11.9141 14.6387C11.7871 14.8535 11.8555 15.127 12.0801 15.2539C12.2949 15.3711 12.5586 15.3027 12.6758 15.0879ZM10.459 15.0879L11.9531 12.5C12.0898 12.2754 12.0117 12.0117 11.7871 11.8848C11.5723 11.7676 11.3184 11.8359 11.1816 12.0605L9.6875 14.6387C9.56055 14.8535 9.62891 15.127 9.85352 15.2539C10.0684 15.3711 10.332 15.3027 10.459 15.0879ZM6.01562 15.0879L7.50977 12.5C7.64648 12.2754 7.56836 12.0117 7.34375 11.8848C7.13867 11.7676 6.875 11.8359 6.74805 12.0605L5.24414 14.6387C5.11719 14.8535 5.18555 15.127 5.41016 15.2539C5.625 15.3711 5.88867 15.3027 6.01562 15.0879Z" fill="#ffffff" fill-opacity="0.85"/>
 </g>
</svg>
