<?xml version="1.0" encoding="UTF-8"?>
<!--Generator: Apple Native CoreSVG 232.5-->
<!DOCTYPE svg
PUBLIC "-//W3C//DTD SVG 1.1//EN"
       "http://www.w3.org/Graphics/SVG/1.1/DTD/svg11.dtd">
<svg version="1.1" xmlns="http://www.w3.org/2000/svg" xmlns:xlink="http://www.w3.org/1999/xlink" width="20.2832" height="19.9316">
 <g>
  <rect height="19.9316" opacity="0" width="20.2832" x="0" y="0"/>
  <path d="M9.96094 19.9219C15.4102 19.9219 19.9219 15.4004 19.9219 9.96094C19.9219 4.51172 15.4004 0 9.95117 0C4.51172 0 0 4.51172 0 9.96094C0 15.4004 4.52148 19.9219 9.96094 19.9219ZM9.96094 18.2617C5.35156 18.2617 1.66992 14.5703 1.66992 9.96094C1.66992 5.35156 5.3418 1.66016 9.95117 1.66016C14.5605 1.66016 18.2617 5.35156 18.2617 9.96094C18.2617 14.5703 14.5703 18.2617 9.96094 18.2617Z" fill="#ffffff" fill-opacity="0.55"/>
  <path d="M6.89453 11.2012L12.7051 11.2012C14.2285 11.2012 15.3809 10.0391 15.3809 8.59375C15.3809 7.09961 14.1602 6.01562 12.5781 6.01562C11.9922 4.86328 10.9082 4.10156 9.56055 4.10156C7.79297 4.10156 6.34766 5.48828 6.18164 7.23633C5.3418 7.48047 4.6875 8.21289 4.6875 9.19922C4.6875 10.3027 5.49805 11.2012 6.89453 11.2012ZM6.55273 13.252L13.3691 13.252C13.6133 13.252 13.8184 13.0566 13.8184 12.8027C13.8184 12.5586 13.6133 12.3633 13.3691 12.3633L6.55273 12.3633C6.30859 12.3633 6.11328 12.5586 6.11328 12.8027C6.11328 13.0566 6.30859 13.252 6.55273 13.252ZM6.55273 15.2344L13.3691 15.2344C13.6133 15.2344 13.8184 15.0391 13.8184 14.7949C13.8184 14.5508 13.6133 14.3555 13.3691 14.3555L6.55273 14.3555C6.30859 14.3555 6.11328 14.5508 6.11328 14.7949C6.11328 15.0391 6.30859 15.2344 6.55273 15.2344Z" fill="#ffffff" fill-opacity="0.85"/>
 </g>
</svg>
