<?xml version="1.0" encoding="UTF-8"?>
<!--Generator: Apple Native CoreSVG 232.5-->
<!DOCTYPE svg
PUBLIC "-//W3C//DTD SVG 1.1//EN"
       "http://www.w3.org/Graphics/SVG/1.1/DTD/svg11.dtd">
<svg version="1.1" xmlns="http://www.w3.org/2000/svg" xmlns:xlink="http://www.w3.org/1999/xlink" width="20.2832" height="19.9316">
 <g>
  <rect height="19.9316" opacity="0" width="20.2832" x="0" y="0"/>
  <path d="M9.96094 19.9219C15.4102 19.9219 19.9219 15.4004 19.9219 9.96094C19.9219 4.51172 15.4004 0 9.95117 0C4.51172 0 0 4.51172 0 9.96094C0 15.4004 4.52148 19.9219 9.96094 19.9219ZM9.96094 18.2617C5.35156 18.2617 1.66992 14.5703 1.66992 9.96094C1.66992 5.35156 5.3418 1.66016 9.95117 1.66016C14.5605 1.66016 18.2617 5.35156 18.2617 9.96094C18.2617 14.5703 14.5703 18.2617 9.96094 18.2617Z" fill="#ffffff" fill-opacity="0.85"/>
  <path d="M5.97656 10.0488C5.97656 11.7578 6.51367 13.0859 7.45117 13.8965L7.08984 15.3125C7.07031 15.3906 7.06055 15.459 7.06055 15.5273C7.06055 15.8203 7.24609 16.0156 7.5293 16.0156C7.77344 16.0156 7.94922 15.8984 8.01758 15.6348L8.32031 14.4336C8.59375 14.5508 8.87695 14.6387 9.17969 14.6875L9.02344 15.3223C8.99414 15.4004 8.98438 15.459 8.98438 15.5273C8.98438 15.8203 9.16992 16.0156 9.46289 16.0156C9.69727 16.0156 9.88281 15.8984 9.95117 15.6348L10.1758 14.7461C11.7578 14.668 12.9004 13.8477 13.3301 12.627C13.3887 12.4707 13.4277 12.2949 13.4277 12.1289C13.4277 11.7773 13.1934 11.5137 12.8223 11.5137C12.4902 11.5137 12.2949 11.748 12.1973 12.041C11.9824 12.8125 11.3477 13.3887 10.4883 13.5156L11.9629 7.74414C12.0508 7.83203 12.1289 7.97852 12.1777 8.1543C12.2754 8.38867 12.4219 8.62305 12.7637 8.62305C13.125 8.62305 13.3594 8.38867 13.3594 8.01758C13.3594 7.86133 13.3203 7.69531 13.2617 7.53906C13.0762 7.02148 12.7539 6.57227 12.3438 6.2207L12.6562 4.9707C12.6855 4.89258 12.6953 4.82422 12.6953 4.75586C12.6953 4.47266 12.5098 4.27734 12.2168 4.27734C11.9824 4.27734 11.7969 4.39453 11.7285 4.6582L11.4551 5.68359C11.2012 5.56641 10.918 5.48828 10.6152 5.42969L10.7227 4.9707C10.752 4.90234 10.7617 4.82422 10.7617 4.75586C10.7617 4.47266 10.5762 4.27734 10.2832 4.27734C10.0488 4.27734 9.86328 4.39453 9.79492 4.6582L9.60938 5.39062C7.40234 5.54688 5.97656 7.33398 5.97656 10.0488ZM7.28516 10.0488C7.28516 8.23242 8.03711 6.96289 9.28711 6.65039L7.8418 12.3438C7.48047 11.7578 7.28516 10.9863 7.28516 10.0488ZM8.62305 13.2227L10.3223 6.5918C10.625 6.63086 10.9082 6.73828 11.1621 6.88477L9.47266 13.5449C9.15039 13.4961 8.87695 13.3887 8.62305 13.2227Z" fill="#ffffff" fill-opacity="0.85"/>
 </g>
</svg>
