<svg version="1.1" xmlns="http://www.w3.org/2000/svg" xmlns:xlink="http://www.w3.org/1999/xlink" width="18.3398" height="17.998" viewBox="0 0 18.3398 17.998">
 <g>
  <rect height="17.998" opacity="0" width="18.3398" x="0" y="0"/>
  <path d="M17.9785 3.04688L17.9785 14.9707C17.9785 16.9824 16.9629 17.998 14.9121 17.998L3.06641 17.998C1.02539 17.998 0 16.9922 0 14.9707L0 3.04688C0 1.02539 1.02539 0.0195312 3.06641 0.0195312L14.9121 0.0195312C16.9629 0.0195312 17.9785 1.03516 17.9785 3.04688ZM10.8203 3.52539L10.5566 4.58008C10.2832 4.46289 9.99023 4.38477 9.67773 4.31641L9.79492 3.84766C9.81445 3.7793 9.83398 3.70117 9.83398 3.62305C9.83398 3.33008 9.63867 3.13477 9.3457 3.13477C9.0918 3.13477 8.89648 3.25195 8.82812 3.52539L8.63281 4.27734C6.35742 4.44336 4.89258 6.28906 4.89258 9.0918C4.89258 10.8496 5.43945 12.2266 6.40625 13.0566L6.03516 14.5215C6.01562 14.5996 6.00586 14.668 6.00586 14.7461C6.00586 15.0488 6.20117 15.2441 6.49414 15.2441C6.74805 15.2441 6.94336 15.127 7.00195 14.8535L7.31445 13.6133C7.58789 13.7402 7.88086 13.8281 8.19336 13.877L8.03711 14.5312C8.01758 14.6094 8.00781 14.668 8.00781 14.7461C8.00781 15.0488 8.18359 15.2441 8.48633 15.2441C8.74023 15.2441 8.93555 15.127 8.99414 14.8535L9.23828 13.9355C10.8594 13.8574 12.041 13.0078 12.4805 11.748C12.5391 11.5918 12.5781 11.4062 12.5781 11.2402C12.5781 10.8691 12.3438 10.5957 11.9531 10.5957C11.6113 10.5957 11.4062 10.8398 11.3086 11.1426C11.084 11.9336 10.4297 12.5293 9.55078 12.666L11.0645 6.71875C11.1523 6.80664 11.2402 6.95312 11.2891 7.12891C11.3867 7.37305 11.543 7.61719 11.8945 7.61719C12.2656 7.61719 12.5098 7.37305 12.5098 6.99219C12.5098 6.82617 12.4707 6.66016 12.4121 6.49414C12.2168 5.95703 11.8848 5.49805 11.4648 5.13672L11.7871 3.84766C11.8164 3.76953 11.8262 3.70117 11.8262 3.62305C11.8262 3.33008 11.6309 3.13477 11.3379 3.13477C11.084 3.13477 10.8984 3.25195 10.8203 3.52539ZM10.2344 5.83008L8.49609 12.6953C8.16406 12.6465 7.89062 12.5293 7.62695 12.3633L9.375 5.52734C9.6875 5.56641 9.98047 5.67383 10.2344 5.83008ZM6.81641 11.4453C6.44531 10.8496 6.25 10.0488 6.25 9.0918C6.25 7.2168 7.02148 5.9082 8.30078 5.58594Z" fill="var(--color-primary)"/>
 </g>
</svg>
