<svg version="1.1" xmlns="http://www.w3.org/2000/svg" xmlns:xlink="http://www.w3.org/1999/xlink" width="18.8086" height="18.4668" viewBox="0 0 18.8086 18.4668">
 <g>
  <rect height="18.4668" opacity="0" width="18.8086" x="0" y="0"/>
  <path d="M5.44922 6.95312L5.44922 11.5137L3.48633 11.5137C1.5625 11.5137 0 13.0273 0 14.9609C0 16.8945 1.5625 18.457 3.48633 18.457C5.41016 18.457 6.97266 16.8945 6.97266 14.9609L6.97266 13.0078L11.4746 13.0078L11.4746 14.9609C11.4746 16.8945 13.0371 18.457 14.9609 18.457C16.8848 18.457 18.4473 16.8945 18.4473 14.9609C18.4473 13.0273 16.8848 11.5137 14.9609 11.5137L12.998 11.5137L12.998 6.95312L14.9609 6.95312C16.8848 6.95312 18.4473 5.43945 18.4473 3.50586C18.4473 1.57227 16.8848 0 14.9609 0C13.0371 0 11.4746 1.57227 11.4746 3.50586L11.4746 5.45898L6.97266 5.45898L6.97266 3.50586C6.97266 1.57227 5.41016 0 3.48633 0C1.5625 0 0 1.57227 0 3.50586C0 5.43945 1.5625 6.95312 3.48633 6.95312ZM3.48633 5.47852C2.41211 5.47852 1.52344 4.58984 1.52344 3.50586C1.52344 2.42188 2.41211 1.52344 3.48633 1.52344C4.56055 1.52344 5.44922 2.42188 5.44922 3.50586L5.44922 5.47852ZM14.9609 5.47852L12.998 5.47852L12.998 3.50586C12.998 2.42188 13.8867 1.52344 14.9609 1.52344C16.0352 1.52344 16.9238 2.42188 16.9238 3.50586C16.9238 4.58984 16.0352 5.47852 14.9609 5.47852ZM6.97266 11.5332L6.97266 6.93359L11.4746 6.93359L11.4746 11.5332ZM3.48633 12.9785L5.44922 12.9785L5.44922 14.9512C5.44922 16.0352 4.56055 16.9238 3.48633 16.9238C2.41211 16.9238 1.52344 16.0352 1.52344 14.9512C1.52344 13.8672 2.41211 12.9785 3.48633 12.9785ZM14.9609 12.9785C16.0352 12.9785 16.9238 13.8672 16.9238 14.9512C16.9238 16.0352 16.0352 16.9238 14.9609 16.9238C13.8867 16.9238 12.998 16.0352 12.998 14.9512L12.998 12.9785Z" fill="var(--color-primary)"/>
 </g>
</svg>
