<svg version="1.1" xmlns="http://www.w3.org/2000/svg" xmlns:xlink="http://www.w3.org/1999/xlink" width="22.1804" height="19.9316" viewBox="0 0 22.1804 19.9316">
 <g>
  <rect height="19.9316" opacity="0" width="22.1804" x="0" y="0"/>
  <path d="M11.8568 19.9219C17.2962 19.9219 21.8177 15.4004 21.8177 9.96094C21.8177 4.51172 17.2962 0 11.8568 0C6.40757 0 1.89585 4.50195 1.89585 9.95117L3.55601 9.95117C3.55601 5.3418 7.24741 1.66992 11.8568 1.66992C16.4662 1.66992 20.1576 5.35156 20.1576 9.96094C20.1576 14.5703 16.4662 18.2812 11.8568 18.2617C9.07358 18.252 6.63218 16.9043 5.13804 14.8242C4.8353 14.4238 4.37632 14.2969 3.96616 14.541C3.57554 14.7852 3.46811 15.3223 3.80015 15.752C5.65561 18.2422 8.56577 19.9219 11.8568 19.9219ZM0.694677 8.07617C-0.00844799 8.07617-0.184229 8.55469 0.19663 9.10156L2.38413 12.207C2.7064 12.6562 3.17515 12.6465 3.48765 12.207L5.67515 9.0918C6.04624 8.55469 5.87046 8.07617 5.1771 8.07617Z" fill="var(--color-primary)"/>
  <path d="M7.90171 9.9707C7.90171 12.8613 9.46421 14.6582 11.8568 14.6582C13.5853 14.6582 14.8158 13.7988 15.265 12.5C15.3236 12.3535 15.3529 12.1973 15.3529 12.0312C15.3529 11.6797 15.1185 11.4453 14.7474 11.4453C14.4251 11.4453 14.2298 11.6211 14.1224 11.9531C13.888 12.793 13.1166 13.3887 12.1205 13.4766L12.1205 12.0605C12.1205 11.123 12.7064 10.4688 13.5365 10.4688C13.722 10.4688 13.8685 10.5078 13.9759 10.5078C14.2689 10.5078 14.4642 10.332 14.4642 10.0781C14.4642 9.72656 14.0931 9.49219 13.5755 9.49219C12.9798 9.49219 12.4134 9.79492 12.1107 10.3711L12.1107 9.96094C12.1107 9.64844 11.9154 9.46289 11.6419 9.46289C11.3587 9.46289 11.1537 9.66797 11.1537 9.96094L11.1537 13.3887C9.94272 13.0469 9.2103 11.7773 9.2103 9.96094C9.2103 7.8418 10.2455 6.46484 11.847 6.46484C12.9017 6.46484 13.7611 7.11914 14.0541 8.02734C14.1712 8.33008 14.3373 8.53516 14.6888 8.53516C15.0501 8.53516 15.2845 8.30078 15.2845 7.93945C15.2845 7.77344 15.2552 7.59766 15.1966 7.44141C14.7474 6.16211 13.4193 5.2832 11.8568 5.2832C9.47397 5.2832 7.90171 7.10938 7.90171 9.9707Z" fill="var(--color-primary)"/>
 </g>
</svg>
