<svg version="1.1" xmlns="http://www.w3.org/2000/svg" xmlns:xlink="http://www.w3.org/1999/xlink" width="20.2832" height="19.9316" viewBox="0 0 20.2832 19.9316">
 <g>
  <rect height="19.9316" opacity="0" width="20.2832" x="0" y="0"/>
  <path d="M19.9219 9.96094C19.9219 15.4004 15.4102 19.9219 9.96094 19.9219C4.52148 19.9219 0 15.4004 0 9.96094C0 4.51172 4.51172 0 9.95117 0C15.4004 0 19.9219 4.51172 19.9219 9.96094ZM5.87891 9.9707C5.87891 12.959 7.5 14.8145 9.96094 14.8145C11.7383 14.8145 13.0078 13.9258 13.4766 12.5879C13.5352 12.4316 13.5645 12.2754 13.5742 12.0996C13.5742 11.7383 13.3301 11.4941 12.9492 11.4941C12.6074 11.4941 12.4121 11.6699 12.3047 12.0215C12.0508 12.8809 11.2598 13.4961 10.2441 13.584L10.2441 12.1289C10.2441 11.1621 10.8398 10.4883 11.6895 10.4883C11.8945 10.4883 12.0312 10.5273 12.1484 10.5273C12.4414 10.5273 12.6465 10.3418 12.6465 10.0781C12.6465 9.7168 12.2754 9.47266 11.7285 9.47266C11.123 9.47266 10.5469 9.78516 10.2344 10.3809L10.2344 9.96094C10.2344 9.63867 10.0195 9.44336 9.73633 9.44336C9.44336 9.44336 9.23828 9.6582 9.23828 9.96094L9.23828 13.4961C7.98828 13.1348 7.23633 11.8359 7.23633 9.96094C7.23633 7.77344 8.30078 6.35742 9.95117 6.35742C11.0449 6.35742 11.9141 7.03125 12.2363 7.95898C12.3438 8.27148 12.5195 8.48633 12.8809 8.48633C13.2617 8.48633 13.4961 8.24219 13.4961 7.87109C13.4961 7.69531 13.4668 7.51953 13.4082 7.35352C12.9395 6.03516 11.5723 5.12695 9.96094 5.12695C7.5 5.12695 5.87891 7.02148 5.87891 9.9707Z" fill="currentColor"/>
 </g>
</svg>
