<?xml version="1.0" encoding="UTF-8"?>
<!--Generator: Apple Native CoreSVG 232.5-->
<!DOCTYPE svg
PUBLIC "-//W3C//DTD SVG 1.1//EN"
       "http://www.w3.org/Graphics/SVG/1.1/DTD/svg11.dtd">
<svg version="1.1" xmlns="http://www.w3.org/2000/svg" xmlns:xlink="http://www.w3.org/1999/xlink" width="20.1758" height="21.4746">
 <g>
  <rect height="21.4746" opacity="0" width="20.1758" x="0" y="0"/>
  <path d="M10.5273 7.63672L10.5273 9.93164L19.1113 5.05859C18.9648 4.91211 18.7891 4.79492 18.5742 4.67773L11.6797 0.751953C11.2988 0.527344 10.9082 0.380859 10.5273 0.292969L10.5273 2.77344L9.18945 2.77344L9.18945 0.322266C8.83789 0.400391 8.49609 0.546875 8.13477 0.751953L1.25 4.67773C1.03516 4.79492 0.859375 4.91211 0.703125 5.05859L9.18945 9.87305L9.18945 7.63672ZM9.18945 6.45508L9.18945 3.96484L10.5273 3.96484L10.5273 6.45508ZM10.5762 21.4746C10.6445 21.4551 10.7031 21.4258 10.7715 21.3867L18.418 17.0312C18.7402 16.8555 19.0137 16.6602 19.2285 16.4355L17.2559 15.4492L17.8613 14.248L19.7656 15.2051C19.8047 15.0098 19.8145 14.8047 19.8145 14.5703L19.8145 6.96289C19.8145 6.66992 19.7949 6.43555 19.7363 6.2207L11.3379 11.0156L13.457 12.0605L12.8613 13.2617L10.5762 12.1387ZM16.0547 14.8535L14.0723 13.8672L14.6777 12.666L16.6504 13.6523ZM9.23828 21.4746L9.23828 12.1387L6.95312 13.2617L6.35742 12.0605L8.47656 11.0156L0.078125 6.2207C0.0195312 6.43555 0 6.66992 0 6.96289L0 14.5703C0 14.7949 0.0195312 15.0098 0.0488281 15.1953L1.95312 14.248L2.55859 15.4492L0.585938 16.4355C0.800781 16.6602 1.08398 16.8555 1.39648 17.0312L9.05273 21.3867C9.11133 21.4258 9.16992 21.4551 9.23828 21.4746ZM3.75977 14.8535L3.16406 13.6523L5.14648 12.666L5.74219 13.8672Z" fill="#ffffff" fill-opacity="0.85"/>
 </g>
</svg>
