<svg version="1.1" xmlns="http://www.w3.org/2000/svg" xmlns:xlink="http://www.w3.org/1999/xlink" width="17.1582" height="20.5957" viewBox="0 0 17.1582 20.5957">
 <g>
  <rect height="20.5957" opacity="0" width="17.1582" x="0" y="0"/>
  <path d="M8.39844 20.5762C13.4375 20.5762 16.7969 18.6719 16.7969 15.9766L16.7969 4.16016L15.2246 4.16016L15.2246 15.9766C15.2246 17.7832 12.4902 19.1016 8.39844 19.1016C4.30664 19.1016 1.57227 17.7832 1.57227 15.9766L1.57227 4.16016L0 4.16016L0 15.9766C0 18.6719 3.35938 20.5762 8.39844 20.5762ZM8.39844 8.31055C13.4375 8.31055 16.7969 6.62109 16.7969 4.16016C16.7969 1.69922 13.4375 0 8.39844 0C3.35938 0 0 1.69922 0 4.16016C0 6.62109 3.35938 8.31055 8.39844 8.31055ZM8.39844 6.83594C4.30664 6.83594 1.57227 5.73242 1.57227 4.16016C1.57227 2.51953 4.30664 1.37695 8.39844 1.37695C12.4902 1.37695 15.2246 2.51953 15.2246 4.16016C15.2246 5.73242 12.4902 6.83594 8.39844 6.83594Z" fill="var(--color-primary)"/>
 </g>
</svg>
