<?xml version="1.0" encoding="UTF-8"?>
<!--Generator: Apple Native CoreSVG 232.5-->
<!DOCTYPE svg
PUBLIC "-//W3C//DTD SVG 1.1//EN"
       "http://www.w3.org/Graphics/SVG/1.1/DTD/svg11.dtd">
<svg version="1.1" xmlns="http://www.w3.org/2000/svg" xmlns:xlink="http://www.w3.org/1999/xlink" width="22.1804" height="19.9316">
 <g>
  <rect height="19.9316" opacity="0" width="22.1804" x="0" y="0"/>
  <path d="M11.8568 19.9219C17.2962 19.9219 21.8177 15.4004 21.8177 9.96094C21.8177 4.51172 17.2962 0 11.8568 0C6.40757 0 1.89585 4.50195 1.89585 9.95117L3.55601 9.95117C3.55601 5.3418 7.24741 1.66992 11.8568 1.66992C16.4662 1.66992 20.1576 5.35156 20.1576 9.96094C20.1576 14.5703 16.4662 18.2812 11.8568 18.2617C9.07358 18.252 6.63218 16.9043 5.13804 14.8242C4.8353 14.4238 4.37632 14.2969 3.96616 14.541C3.57554 14.7852 3.46811 15.3223 3.80015 15.752C5.65561 18.2422 8.56577 19.9219 11.8568 19.9219ZM0.694677 8.07617C-0.00844799 8.07617-0.184229 8.55469 0.19663 9.10156L2.38413 12.207C2.7064 12.6562 3.17515 12.6465 3.48765 12.207L5.67515 9.0918C6.04624 8.55469 5.87046 8.07617 5.1771 8.07617Z" fill="#ffffff" fill-opacity="0.55"/>
  <path d="M8.14585 14.043C8.49741 14.043 8.78061 13.7598 8.78061 13.4082L8.78061 11.9531L9.29819 11.4648L10.8021 13.6719C11.0658 14.0625 11.4759 14.082 11.7396 13.8965C11.974 13.7207 12.0912 13.3691 11.8177 12.9688L10.2162 10.6738L11.8275 9.00391C12.0912 8.7207 12.0326 8.39844 11.8373 8.22266C11.6126 7.99805 11.222 7.92969 10.9291 8.26172L8.80991 10.6348L8.78061 10.6348L8.78061 6.47461C8.78061 6.12305 8.49741 5.83008 8.14585 5.83008C7.78452 5.83008 7.50132 6.12305 7.50132 6.47461L7.50132 13.4082C7.50132 13.7598 7.78452 14.043 8.14585 14.043ZM13.6537 14.0527C13.9857 14.0527 14.2591 13.7793 14.2591 13.4473L14.2591 10.5957C14.2591 9.88281 14.5033 9.28711 15.2162 9.28711C15.4505 9.28711 15.7044 9.23828 15.8607 9.11133C15.9681 9.02344 16.0462 8.87695 16.0462 8.69141C16.0462 8.49609 15.9876 8.34961 15.8802 8.24219C15.7533 8.125 15.597 8.06641 15.3919 8.06641C14.7865 8.06641 14.3763 8.60352 14.2591 9.22852L14.2103 9.22852L14.2103 8.63281C14.2103 8.31055 13.9564 8.05664 13.6341 8.05664C13.3119 8.05664 13.0482 8.31055 13.0482 8.63281L13.0482 13.4473C13.0482 13.7793 13.3216 14.0527 13.6537 14.0527ZM16.515 13.9941C16.9349 13.9941 17.2669 13.6621 17.2669 13.2324C17.2669 12.8223 16.9349 12.4805 16.515 12.4805C16.0951 12.4805 15.763 12.8223 15.763 13.2324C15.763 13.6621 16.0951 13.9941 16.515 13.9941Z" fill="#ffffff" fill-opacity="0.85"/>
 </g>
</svg>
