<?xml version="1.0" encoding="UTF-8"?>
<!--Generator: Apple Native CoreSVG 232.5-->
<!DOCTYPE svg
PUBLIC "-//W3C//DTD SVG 1.1//EN"
       "http://www.w3.org/Graphics/SVG/1.1/DTD/svg11.dtd">
<svg version="1.1" xmlns="http://www.w3.org/2000/svg" xmlns:xlink="http://www.w3.org/1999/xlink" width="22.0215" height="17.998">
 <g>
  <rect height="17.998" opacity="0" width="22.0215" x="0" y="0"/>
  <path d="M18.0957 17.998C20.1367 17.998 21.1621 16.9922 21.1621 14.9707L21.1621 3.04688C21.1621 1.02539 20.1367 0.0195312 18.0957 0.0195312L9.60938 0.0195312C8.4668 0.0195312 7.48047 0.3125 6.67969 1.16211L0.927734 7.13867C0.292969 7.79297 0 8.37891 0 8.99414C0 9.59961 0.283203 10.1953 0.927734 10.8496L6.68945 16.7969C7.5 17.6367 8.47656 17.9883 9.61914 17.9883Z" fill="#ffffff" fill-opacity="0.25"/>
  <path d="M9.0918 13.1055C8.64258 13.1055 8.28125 12.7441 8.28125 12.2852C8.28125 12.0703 8.36914 11.875 8.51562 11.7188L11.2305 9.01367L8.51562 6.29883C8.36914 6.14258 8.28125 5.94727 8.28125 5.73242C8.28125 5.2832 8.64258 4.93164 9.0918 4.93164C9.31641 4.93164 9.49219 5.01953 9.64844 5.16602L12.373 7.88086L15.1172 5.15625C15.2832 4.99023 15.459 4.91211 15.6738 4.91211C16.123 4.91211 16.4746 5.27344 16.4746 5.71289C16.4746 5.9375 16.416 6.11328 16.2402 6.28906L13.5254 9.01367L16.2305 11.709C16.3965 11.8652 16.4648 12.0605 16.4648 12.2852C16.4648 12.7441 16.1133 13.1055 15.6543 13.1055C15.4297 13.1055 15.2246 13.0176 15.0781 12.8711L12.373 10.1465L9.67773 12.8711C9.52148 13.0176 9.31641 13.1055 9.0918 13.1055Z" fill="#ffffff" fill-opacity="0.85"/>
 </g>
</svg>
