<?xml version="1.0" encoding="UTF-8"?>
<!--Generator: Apple Native CoreSVG 232.5-->
<!DOCTYPE svg
PUBLIC "-//W3C//DTD SVG 1.1//EN"
       "http://www.w3.org/Graphics/SVG/1.1/DTD/svg11.dtd">
<svg version="1.1" xmlns="http://www.w3.org/2000/svg" xmlns:xlink="http://www.w3.org/1999/xlink" width="21.2988" height="17.998">
 <g>
  <rect height="17.998" opacity="0" width="21.2988" x="0" y="0"/>
  <path d="M3.20312 17.998L11.6797 17.9883C12.8223 17.9883 13.8086 17.6367 14.6094 16.7969L20.3711 10.8496C21.0156 10.1953 21.2988 9.59961 21.2988 8.99414C21.2988 8.37891 21.0156 7.79297 20.3711 7.13867L14.6191 1.16211C13.8184 0.3125 12.832 0.0195312 11.6895 0.0195312L3.20312 0.0195312C1.17188 0.0195312 0.136719 1.02539 0.136719 3.04688L0.136719 14.9707C0.136719 16.9922 1.17188 17.998 3.20312 17.998ZM3.23242 16.4258C2.25586 16.4258 1.70898 15.9082 1.70898 14.8926L1.70898 3.125C1.70898 2.10938 2.25586 1.5918 3.23242 1.5918L11.7188 1.5918C12.4512 1.5918 12.9395 1.71875 13.4375 2.23633L19.1504 8.16406C19.4727 8.50586 19.5898 8.74023 19.5898 8.99414C19.5898 9.23828 19.4824 9.47266 19.1504 9.81445L13.4277 15.7227C12.9199 16.25 12.4512 16.4258 11.709 16.4258Z" fill="#ffffff" fill-opacity="0.55"/>
  <path d="M5.60547 13.1348C5.83008 13.1348 6.02539 13.0469 6.17188 12.8906L8.93555 10.1074L11.7188 12.8906C11.8652 13.0371 12.0508 13.1348 12.2754 13.1348C12.7148 13.1348 13.0566 12.7734 13.0566 12.3438C13.0566 12.1191 12.9785 11.9336 12.8223 11.7871L10.0488 9.01367L12.832 6.2207C12.998 6.05469 13.0664 5.88867 13.0664 5.67383C13.0664 5.23438 12.7246 4.89258 12.2852 4.89258C12.0801 4.89258 11.9141 4.96094 11.748 5.12695L8.93555 7.91992L6.15234 5.13672C6.00586 4.98047 5.83008 4.91211 5.60547 4.91211C5.17578 4.91211 4.82422 5.24414 4.82422 5.68359C4.82422 5.89844 4.91211 6.08398 5.05859 6.23047L7.83203 9.01367L5.05859 11.7969C4.91211 11.9336 4.82422 12.1289 4.82422 12.3438C4.82422 12.7734 5.17578 13.1348 5.60547 13.1348Z" fill="#ffffff" fill-opacity="0.85"/>
 </g>
</svg>
