<svg version="1.1" xmlns="http://www.w3.org/2000/svg" xmlns:xlink="http://www.w3.org/1999/xlink" width="20.2832" height="20.1855" viewBox="0 0 20.2832 20.1855">
 <g>
  <rect height="20.1855" opacity="0" width="20.2832" x="0" y="0"/>
  <path d="M4.99023 20.1855L1.86523 20.1855C0.664062 20.1855 0.0976562 19.6387 0.0976562 18.457L0.0976562 15.498C1.25977 17.5977 2.85156 19.1406 4.99023 20.1855ZM19.8242 18.457C19.8242 19.6387 19.2578 20.1855 18.0566 20.1855L14.9414 20.1855C17.0703 19.1406 18.6621 17.5977 19.8242 15.498ZM19.9219 10.0879C19.9219 15.5273 15.4102 20.0488 9.96094 20.0488C4.52148 20.0488 0 15.5273 0 10.0879C0 4.63867 4.51172 0.126953 9.95117 0.126953C15.4004 0.126953 19.9219 4.63867 19.9219 10.0879ZM14.0527 5.09766L9.95117 9.19922L7.46094 6.69922C7.16797 6.41602 6.74805 6.41602 6.46484 6.69922C6.19141 6.97266 6.18164 7.40234 6.46484 7.68555L9.45312 10.6836C9.73633 10.9766 10.1758 10.9668 10.459 10.6836L15.0391 6.09375C15.3223 5.82031 15.332 5.37109 15.0391 5.09766C14.7461 4.82422 14.3359 4.81445 14.0527 5.09766Z" fill="var(--color-primary)"/>
 </g>
</svg>
