<?xml version="1.0" encoding="UTF-8"?>
<!--Generator: Apple Native CoreSVG 232.5-->
<!DOCTYPE svg
PUBLIC "-//W3C//DTD SVG 1.1//EN"
       "http://www.w3.org/Graphics/SVG/1.1/DTD/svg11.dtd">
<svg version="1.1" xmlns="http://www.w3.org/2000/svg" xmlns:xlink="http://www.w3.org/1999/xlink" width="23.4961" height="20.0293">
 <g>
  <rect height="20.0293" opacity="0" width="23.4961" x="0" y="0"/>
  <path d="M11.5723 18.6719C15.4785 18.6719 18.6719 15.5078 18.6719 11.5723C18.6719 7.64648 15.4785 4.47266 11.5723 4.47266C7.65625 4.47266 4.46289 7.64648 4.46289 11.5723C4.46289 13.2422 5.03906 14.7656 5.99609 15.9766L11.084 10.8887C11.3574 10.6152 11.8457 10.6152 12.0996 10.8887C12.3926 11.2012 12.3926 11.6309 12.0996 11.9238L7.01172 17.0215C8.24219 18.0566 9.83398 18.6719 11.5723 18.6719Z" fill="#ffffff" fill-opacity="0.85"/>
  <path d="M4.08203 20.0293C4.64844 20.0293 5.09766 19.5801 5.09766 19.0137C5.09766 18.4473 4.64844 17.998 4.08203 17.998C3.51562 17.998 3.06641 18.4473 3.06641 19.0137C3.06641 19.5801 3.51562 20.0293 4.08203 20.0293ZM1.01562 12.5781C1.58203 12.5781 2.03125 12.1289 2.03125 11.5625C2.03125 11.0059 1.58203 10.5566 1.01562 10.5566C0.449219 10.5566 0 11.0059 0 11.5625C0 12.1289 0.449219 12.5781 1.01562 12.5781ZM4.08203 5.15625C4.64844 5.15625 5.09766 4.70703 5.09766 4.14062C5.09766 3.57422 4.64844 3.125 4.08203 3.125C3.51562 3.125 3.06641 3.57422 3.06641 4.14062C3.06641 4.70703 3.51562 5.15625 4.08203 5.15625ZM11.5723 2.03125C12.1289 2.03125 12.5781 1.58203 12.5781 1.01562C12.5781 0.449219 12.1289 0 11.5723 0C11.0059 0 10.5566 0.449219 10.5566 1.01562C10.5566 1.58203 11.0059 2.03125 11.5723 2.03125ZM19.0527 5.15625C19.6191 5.15625 20.0684 4.70703 20.0684 4.14062C20.0684 3.57422 19.6191 3.125 19.0527 3.125C18.4863 3.125 18.0371 3.57422 18.0371 4.14062C18.0371 4.70703 18.4863 5.15625 19.0527 5.15625ZM22.1191 12.5781C22.6855 12.5781 23.1348 12.1289 23.1348 11.5625C23.1348 11.0059 22.6855 10.5566 22.1191 10.5566C21.5527 10.5566 21.1035 11.0059 21.1035 11.5625C21.1035 12.1289 21.5527 12.5781 22.1191 12.5781ZM19.0527 20.0293C19.6191 20.0293 20.0684 19.5801 20.0684 19.0137C20.0684 18.4473 19.6191 17.998 19.0527 17.998C18.4863 17.998 18.0371 18.4473 18.0371 19.0137C18.0371 19.5801 18.4863 20.0293 19.0527 20.0293Z" fill="#ffffff" fill-opacity="0.55"/>
 </g>
</svg>
