<?xml version="1.0" encoding="UTF-8"?>
<!--Generator: Apple Native CoreSVG 232.5-->
<!DOCTYPE svg
PUBLIC "-//W3C//DTD SVG 1.1//EN"
       "http://www.w3.org/Graphics/SVG/1.1/DTD/svg11.dtd">
<svg version="1.1" xmlns="http://www.w3.org/2000/svg" xmlns:xlink="http://www.w3.org/1999/xlink" width="20.2832" height="19.9316">
 <g>
  <rect height="19.9316" opacity="0" width="20.2832" x="0" y="0"/>
  <path d="M9.96094 19.9219C15.4102 19.9219 19.9219 15.4004 19.9219 9.96094C19.9219 4.51172 15.4004 0 9.95117 0C4.51172 0 0 4.51172 0 9.96094C0 15.4004 4.52148 19.9219 9.96094 19.9219Z" fill="#ffffff" fill-opacity="0.25"/>
  <path d="M4.78516 10.791C4.25781 10.2637 4.23828 9.66797 4.76562 9.13086L9.13086 4.77539C9.66797 4.23828 10.2539 4.25781 10.791 4.79492L15.1172 9.12109C15.6641 9.6582 15.6836 10.2441 15.1367 10.791L10.7812 15.1465C10.2441 15.6836 9.6582 15.6641 9.12109 15.127Z" fill="#ffffff" fill-opacity="0.85"/>
 </g>
</svg>
