<svg version="1.1" xmlns="http://www.w3.org/2000/svg" xmlns:xlink="http://www.w3.org/1999/xlink" width="18.3398" height="17.998" viewBox="0 0 18.3398 17.998">
 <g>
  <rect height="17.998" opacity="0" width="18.3398" x="0" y="0"/>
  <path d="M17.9785 3.04688L17.9785 14.9707C17.9785 16.9824 16.9629 17.998 14.9121 17.998L3.06641 17.998C1.02539 17.998 0 16.9922 0 14.9707L0 3.04688C0 1.02539 1.02539 0.0195312 3.06641 0.0195312L14.9121 0.0195312C16.9629 0.0195312 17.9785 1.03516 17.9785 3.04688ZM7.36328 8.99414C7.36328 9.91211 8.0957 10.625 9.00391 10.6348C9.89258 10.6445 10.6348 9.91211 10.6348 8.99414C10.6348 8.08594 9.89258 7.36328 9.00391 7.36328C8.0957 7.36328 7.36328 8.08594 7.36328 8.99414Z" fill="currentColor"/>
 </g>
</svg>
