<svg version="1.1" xmlns="http://www.w3.org/2000/svg" xmlns:xlink="http://www.w3.org/1999/xlink" width="25.0488" height="19.7559" viewBox="0 0 25.0488 19.7559">
 <g>
  <rect height="19.7559" opacity="0" width="25.0488" x="0" y="0"/>
  <path d="M5.95703 2.88086L4.55078 2.88086C4.19922 2.88086 3.91602 3.17383 3.91602 3.52539C3.91602 3.87695 4.19922 4.16016 4.55078 4.16016L5.52734 4.16016C5.37109 4.70703 5.24414 5.27344 5.14648 5.87891L3.88672 5.87891C3.53516 5.87891 3.25195 6.16211 3.25195 6.51367C3.25195 6.86523 3.53516 7.1582 3.88672 7.1582L4.96094 7.1582C4.89258 7.79297 4.84375 8.4668 4.83398 9.11133L3.64258 9.11133C3.29102 9.11133 2.99805 9.4043 2.99805 9.75586C2.99805 10.1074 3.29102 10.3906 3.64258 10.3906L4.82422 10.3906C4.83398 10.9961 4.88281 11.7188 4.94141 12.3535L3.88672 12.3535C3.53516 12.3535 3.25195 12.6465 3.25195 12.998C3.25195 13.3496 3.53516 13.6328 3.88672 13.6328L5.10742 13.6328C5.19531 14.1797 5.3125 14.7852 5.45898 15.3516L4.55078 15.3516C4.19922 15.3516 3.91602 15.6348 3.91602 15.9863C3.91602 16.3379 4.19922 16.6309 4.55078 16.6309L5.86914 16.6309C6.37695 17.9688 7.05078 19.0234 7.88086 19.7461L6.76758 19.7461C2.68555 19.7461 0.966797 16.0156 0.966797 9.87305C0.966797 3.7207 2.68555 0 6.76758 0L7.88086 0C7.09961 0.673828 6.45508 1.65039 5.95703 2.88086ZM14.8568 6.0491L12.3535 8.27148C11.3574 9.14062 11.3477 10.5859 12.3535 11.4648L14.8581 13.6874C14.2345 17.2785 12.6937 19.4922 10.6641 19.4922C7.98828 19.4922 6.16211 15.6445 6.16211 9.87305C6.16211 4.10156 7.98828 0.244141 10.6641 0.244141C12.6922 0.244141 14.2322 2.46017 14.8568 6.0491Z" fill="var(--color-secondary)"/>
  <path d="M13.2422 10.4688L16.1914 13.0859C16.7578 13.6035 17.5977 13.3105 17.5977 12.4805L17.5977 10.7129L22.8809 10.7129C23.3496 10.7129 23.7109 10.3418 23.7109 9.88281C23.7109 9.4043 23.3496 9.04297 22.8809 9.04297L17.5977 9.04297L17.5977 7.25586C17.5977 6.45508 16.7871 6.11328 16.1914 6.64062L13.2422 9.26758C12.832 9.61914 12.832 10.1074 13.2422 10.4688Z" fill="var(--color-primary)"/>
 </g>
</svg>
