<svg version="1.1" xmlns="http://www.w3.org/2000/svg" xmlns:xlink="http://www.w3.org/1999/xlink" width="23.6426" height="27.5488" viewBox="0 0 23.6426 27.5488">
 <g>
  <rect height="27.5488" opacity="0" width="23.6426" x="0" y="0"/>
  <path d="M23.2812 6.52344L23.2812 18.2324C23.2812 19.6387 22.4316 20.4883 21.0254 20.4883L14.7266 20.4883L14.7266 22.373L14.7852 22.373C15.2148 22.373 15.5664 22.7246 15.5664 23.1641C15.5664 23.6035 15.2148 23.9551 14.7852 23.9551L8.49609 23.9551C8.06641 23.9551 7.70508 23.6035 7.70508 23.1641C7.70508 22.7246 8.06641 22.373 8.49609 22.373L8.55469 22.373L8.55469 20.4883L2.24609 20.4883C0.849609 20.4883 0 19.6387 0 18.2324L0 6.52344C0 5.11719 0.849609 4.27734 2.24609 4.27734L9.60938 4.27734L9.60938 5.84961L2.27539 5.84961C1.8457 5.84961 1.57227 6.11328 1.57227 6.55273L1.57227 18.2129C1.57227 18.6426 1.8457 18.916 2.27539 18.916L21.0059 18.916C21.4355 18.916 21.709 18.6426 21.709 18.2129L21.709 6.55273C21.709 6.11328 21.4355 5.84961 21.0059 5.84961L13.6719 5.84961L13.6719 4.27734L21.0254 4.27734C22.4316 4.27734 23.2812 5.11719 23.2812 6.52344Z" fill="var(--color-secondary)"/>
  <path d="M11.6406 1.33789C11.2793 1.33789 10.9375 1.60156 10.9375 2.04102L10.9375 9.80469L11.0352 11.8652L9.13086 9.72656L8.56445 9.17969C8.42773 9.04297 8.25195 8.96484 8.03711 8.96484C7.64648 8.96484 7.37305 9.24805 7.37305 9.62891C7.37305 9.83398 7.44141 10.0098 7.58789 10.1465L11.1133 13.6914C11.2793 13.8574 11.4648 13.9551 11.6406 13.9551C11.8066 13.9551 12.002 13.8574 12.1582 13.6914L15.6934 10.1465C15.8301 10.0098 15.9082 9.83398 15.9082 9.62891C15.9082 9.24805 15.625 8.96484 15.2344 8.96484C15.0293 8.96484 14.8438 9.04297 14.707 9.17969L14.1504 9.72656L12.2363 11.8652L12.334 9.80469L12.334 2.04102C12.334 1.60156 12.002 1.33789 11.6406 1.33789Z" fill="var(--color-primary)"/>
 </g>
</svg>
