<svg version="1.1" xmlns="http://www.w3.org/2000/svg" xmlns:xlink="http://www.w3.org/1999/xlink" width="20.2832" height="19.9316" viewBox="0 0 20.2832 19.9316">
 <g>
  <rect height="19.9316" opacity="0" width="20.2832" x="0" y="0"/>
  <path d="M19.9219 9.96094C19.9219 15.4004 15.4102 19.9219 9.96094 19.9219C4.52148 19.9219 0 15.4004 0 9.96094C0 4.51172 4.51172 0 9.95117 0C15.4004 0 19.9219 4.51172 19.9219 9.96094ZM8.74023 13.6914C8.74023 14.3164 9.26758 14.8145 9.94141 14.8145C10.6738 14.8145 11.1816 14.3164 11.1816 13.6914C11.1816 12.9785 10.6836 12.4805 9.94141 12.4805C9.26758 12.4805 8.74023 12.9785 8.74023 13.6914ZM6.04492 9.13086C5.44922 9.13086 5.08789 9.43359 5.08789 9.98047C5.08789 10.5176 5.46875 10.8203 6.04492 10.8203L13.8867 10.8203C14.4531 10.8203 14.834 10.5176 14.834 9.98047C14.834 9.43359 14.4727 9.13086 13.8867 9.13086ZM8.74023 6.34766C8.74023 6.97266 9.26758 7.46094 9.94141 7.46094C10.6738 7.46094 11.1816 6.97266 11.1816 6.34766C11.1816 5.625 10.6836 5.12695 9.94141 5.12695C9.26758 5.12695 8.74023 5.63477 8.74023 6.34766Z" fill="currentColor"/>
 </g>
</svg>
