<svg version="1.1" xmlns="http://www.w3.org/2000/svg" xmlns:xlink="http://www.w3.org/1999/xlink" width="18.3398" height="17.998" viewBox="0 0 18.3398 17.998">
 <g>
  <rect height="17.998" opacity="0" width="18.3398" x="0" y="0"/>
  <path d="M17.9785 3.04688L17.9785 14.9707C17.9785 16.9824 16.9629 17.998 14.9121 17.998L3.06641 17.998C1.02539 17.998 0 16.9922 0 14.9707L0 3.04688C0 1.02539 1.02539 0.0195312 3.06641 0.0195312L14.9121 0.0195312C16.9629 0.0195312 17.9785 1.03516 17.9785 3.04688ZM7.77344 12.7246C7.77344 13.3496 8.30078 13.8477 8.97461 13.8477C9.70703 13.8477 10.2148 13.3496 10.2148 12.7246C10.2148 12.0117 9.7168 11.5137 8.97461 11.5137C8.30078 11.5137 7.77344 12.0117 7.77344 12.7246ZM5.07812 8.16406C4.49219 8.16406 4.12109 8.4668 4.12109 9.01367C4.12109 9.55078 4.51172 9.85352 5.07812 9.85352L12.9199 9.85352C13.4863 9.85352 13.8672 9.55078 13.8672 9.01367C13.8672 8.4668 13.5059 8.16406 12.9199 8.16406ZM7.77344 5.38086C7.77344 6.00586 8.30078 6.49414 8.97461 6.49414C9.70703 6.49414 10.2148 6.00586 10.2148 5.38086C10.2148 4.6582 9.7168 4.16016 8.97461 4.16016C8.30078 4.16016 7.77344 4.66797 7.77344 5.38086Z" fill="var(--color-primary)"/>
 </g>
</svg>
