<?xml version="1.0" encoding="UTF-8"?>
<!--Generator: Apple Native CoreSVG 232.5-->
<!DOCTYPE svg
PUBLIC "-//W3C//DTD SVG 1.1//EN"
       "http://www.w3.org/Graphics/SVG/1.1/DTD/svg11.dtd">
<svg version="1.1" xmlns="http://www.w3.org/2000/svg" xmlns:xlink="http://www.w3.org/1999/xlink" width="16.7871" height="20.9473">
 <g>
  <rect height="20.9473" opacity="0" width="16.7871" x="0" y="0"/>
  <path d="M4.3457 4.85352C3.97461 4.85352 3.71094 4.58008 3.71094 4.22852C3.71094 3.87695 3.97461 3.60352 4.3457 3.60352L12.4609 3.60352C12.8223 3.60352 13.0859 3.87695 13.0859 4.22852C13.0859 4.58008 12.8223 4.85352 12.4609 4.85352ZM4.3457 7.77344C3.97461 7.77344 3.71094 7.5 3.71094 7.14844C3.71094 6.80664 3.97461 6.5332 4.3457 6.5332L9.10156 6.5332C9.46289 6.5332 9.73633 6.80664 9.73633 7.14844C9.73633 7.5 9.46289 7.77344 9.10156 7.77344ZM4.50195 17.7344C3.64258 17.7344 3.1543 17.2754 3.1543 16.3867L3.1543 10.8008C3.1543 9.91211 3.64258 9.45312 4.50195 9.45312L11.9336 9.45312C12.8223 9.45312 13.2715 9.91211 13.2715 10.8008L13.2715 16.3867C13.2715 17.2754 12.8223 17.7344 11.9336 17.7344ZM0 17.8809C0 19.9219 1.00586 20.9375 3.02734 20.9375L13.3984 20.9375C15.4199 20.9375 16.4258 19.9219 16.4258 17.8809L16.4258 3.06641C16.4258 1.03516 15.4199 0 13.3984 0L3.02734 0C1.00586 0 0 1.03516 0 3.06641Z" fill="#ffffff" fill-opacity="0.85"/>
 </g>
</svg>
