<?xml version="1.0" encoding="UTF-8"?>
<!--Generator: Apple Native CoreSVG 232.5-->
<!DOCTYPE svg
PUBLIC "-//W3C//DTD SVG 1.1//EN"
       "http://www.w3.org/Graphics/SVG/1.1/DTD/svg11.dtd">
<svg version="1.1" xmlns="http://www.w3.org/2000/svg" xmlns:xlink="http://www.w3.org/1999/xlink" width="16.7871" height="20.9473">
 <g>
  <rect height="20.9473" opacity="0" width="16.7871" x="0" y="0"/>
  <path d="M4.46289 5.01953L12.334 5.01953C12.6855 5.01953 12.9395 4.75586 12.9395 4.41406C12.9395 4.08203 12.6855 3.81836 12.334 3.81836L4.46289 3.81836C4.10156 3.81836 3.84766 4.08203 3.84766 4.41406C3.84766 4.75586 4.10156 5.01953 4.46289 5.01953ZM4.46289 7.85156L9.08203 7.85156C9.42383 7.85156 9.6875 7.58789 9.6875 7.24609C9.6875 6.91406 9.42383 6.65039 9.08203 6.65039L4.46289 6.65039C4.10156 6.65039 3.84766 6.91406 3.84766 7.24609C3.84766 7.58789 4.10156 7.85156 4.46289 7.85156ZM4.60938 17.5195L11.8262 17.5195C12.6855 17.5195 13.125 17.0801 13.125 16.2207L13.125 10.791C13.125 9.93164 12.6855 9.48242 11.8262 9.48242L4.60938 9.48242C3.7793 9.48242 3.30078 9.93164 3.30078 10.791L3.30078 16.2207C3.30078 17.0801 3.7793 17.5195 4.60938 17.5195ZM0 17.8809C0 19.9219 1.00586 20.9375 3.02734 20.9375L13.3984 20.9375C15.4199 20.9375 16.4258 19.9219 16.4258 17.8809L16.4258 3.06641C16.4258 1.03516 15.4199 0 13.3984 0L3.02734 0C1.00586 0 0 1.03516 0 3.06641ZM1.57227 17.8516L1.57227 3.0957C1.57227 2.11914 2.08984 1.57227 3.10547 1.57227L13.3203 1.57227C14.3359 1.57227 14.8535 2.11914 14.8535 3.0957L14.8535 17.8516C14.8535 18.8281 14.3359 19.3652 13.3203 19.3652L3.10547 19.3652C2.08984 19.3652 1.57227 18.8281 1.57227 17.8516Z" fill="#ffffff" fill-opacity="0.85"/>
 </g>
</svg>
