<?xml version="1.0" encoding="UTF-8"?>
<!--Generator: Apple Native CoreSVG 232.5-->
<!DOCTYPE svg
PUBLIC "-//W3C//DTD SVG 1.1//EN"
       "http://www.w3.org/Graphics/SVG/1.1/DTD/svg11.dtd">
<svg version="1.1" xmlns="http://www.w3.org/2000/svg" xmlns:xlink="http://www.w3.org/1999/xlink" width="20.2832" height="19.9316">
 <g>
  <rect height="19.9316" opacity="0" width="20.2832" x="0" y="0"/>
  <path d="M9.96094 19.9219C15.4102 19.9219 19.9219 15.4004 19.9219 9.96094C19.9219 4.51172 15.4004 0 9.95117 0C4.51172 0 0 4.51172 0 9.96094C0 15.4004 4.52148 19.9219 9.96094 19.9219Z" fill="#ffffff" fill-opacity="0.25"/>
  <path d="M7.56836 15.3809C6.45508 15.3809 5.88867 14.8242 5.88867 13.6816L5.88867 5.97656C5.88867 4.85352 6.45508 4.27734 7.56836 4.27734L9.48242 4.27734L9.48242 8.33008C9.48242 9.0332 9.81445 9.35547 10.5078 9.35547L14.502 9.35547L14.502 13.6816C14.502 14.8047 13.9453 15.3809 12.8223 15.3809ZM10.5859 8.53516C10.4004 8.53516 10.293 8.4375 10.293 8.24219L10.293 4.33594C10.5176 4.36523 10.752 4.52148 11.0059 4.78516L13.9844 7.82227C14.248 8.08594 14.4043 8.31055 14.4336 8.53516Z" fill="#ffffff" fill-opacity="0.85"/>
 </g>
</svg>
