<?xml version="1.0" encoding="UTF-8"?>
<!--Generator: Apple Native CoreSVG 232.5-->
<!DOCTYPE svg
PUBLIC "-//W3C//DTD SVG 1.1//EN"
       "http://www.w3.org/Graphics/SVG/1.1/DTD/svg11.dtd">
<svg version="1.1" xmlns="http://www.w3.org/2000/svg" xmlns:xlink="http://www.w3.org/1999/xlink" width="20.2832" height="19.9316">
 <g>
  <rect height="19.9316" opacity="0" width="20.2832" x="0" y="0"/>
  <path d="M9.96094 19.9219C15.4102 19.9219 19.9219 15.4004 19.9219 9.96094C19.9219 4.51172 15.4004 0 9.95117 0C4.51172 0 0 4.51172 0 9.96094C0 15.4004 4.52148 19.9219 9.96094 19.9219ZM9.96094 18.2617C5.35156 18.2617 1.66992 14.5703 1.66992 9.96094C1.66992 5.35156 5.3418 1.66016 9.95117 1.66016C14.5605 1.66016 18.2617 5.35156 18.2617 9.96094C18.2617 14.5703 14.5703 18.2617 9.96094 18.2617Z" fill="#ffffff" fill-opacity="0.55"/>
  <path d="M6.46484 10.3125C6.46484 12.0996 7.64648 13.3496 9.24805 13.3496C10.0488 13.3496 10.752 13.0371 11.1914 12.4805L11.1914 12.8711C11.1914 13.2227 11.4355 13.4668 11.7871 13.4668C12.1289 13.4668 12.3633 13.2227 12.3633 12.8711L12.3633 6.55273L12.9883 6.55273C13.252 6.55273 13.4473 6.35742 13.4473 6.09375C13.4473 5.83008 13.2617 5.625 12.9883 5.625L12.3633 5.625L12.3633 5.16602C12.3633 4.78516 12.1191 4.54102 11.748 4.54102C11.3867 4.54102 11.1426 4.78516 11.1426 5.16602L11.1426 5.625L9.36523 5.625C9.0918 5.625 8.90625 5.83008 8.90625 6.09375C8.90625 6.35742 9.10156 6.55273 9.36523 6.55273L11.1426 6.55273L11.1426 8.11523C10.7227 7.58789 10.0391 7.27539 9.23828 7.27539C7.63672 7.27539 6.46484 8.51562 6.46484 10.3125ZM7.71484 10.3223C7.71484 9.16992 8.41797 8.4082 9.45312 8.4082C10.4492 8.4082 11.1719 9.21875 11.1719 10.3223C11.1719 11.4355 10.4492 12.2363 9.45312 12.2363C8.41797 12.2363 7.71484 11.4844 7.71484 10.3223ZM6.96289 14.4629C6.96289 14.7266 7.16797 14.9414 7.43164 14.9414L12.1973 14.9414C12.4609 14.9414 12.666 14.7266 12.666 14.4629C12.666 14.1895 12.4707 13.9941 12.1973 13.9941L7.43164 13.9941C7.1582 13.9941 6.96289 14.1992 6.96289 14.4629Z" fill="#ffffff" fill-opacity="0.85"/>
 </g>
</svg>
