<?xml version="1.0" encoding="UTF-8"?>
<!--Generator: Apple Native CoreSVG 232.5-->
<!DOCTYPE svg
PUBLIC "-//W3C//DTD SVG 1.1//EN"
       "http://www.w3.org/Graphics/SVG/1.1/DTD/svg11.dtd">
<svg version="1.1" xmlns="http://www.w3.org/2000/svg" xmlns:xlink="http://www.w3.org/1999/xlink" width="18.3398" height="17.998">
 <g>
  <rect height="17.998" opacity="0" width="18.3398" x="0" y="0"/>
  <path d="M3.06641 17.998L14.9121 17.998C16.9629 17.998 17.9785 16.9824 17.9785 14.9707L17.9785 3.04688C17.9785 1.03516 16.9629 0.0195312 14.9121 0.0195312L3.06641 0.0195312C1.02539 0.0195312 0 1.02539 0 3.04688L0 14.9707C0 16.9922 1.02539 17.998 3.06641 17.998Z" fill="#ffffff" fill-opacity="0.25"/>
  <path d="M5.39062 9.35547C5.39062 7.5 6.61133 6.2207 8.26172 6.2207C9.08203 6.2207 9.78516 6.54297 10.2246 7.08008L10.2246 5.47852L8.38867 5.47852C8.11523 5.47852 7.91992 5.27344 7.91992 5C7.91992 4.72656 8.10547 4.51172 8.38867 4.51172L10.2246 4.51172L10.2246 4.04297C10.2246 3.64258 10.4785 3.39844 10.8594 3.39844C11.2305 3.39844 11.4844 3.64258 11.4844 4.04297L11.4844 4.51172L12.1289 4.51172C12.4121 4.51172 12.6074 4.72656 12.6074 5C12.6074 5.27344 12.4023 5.47852 12.1289 5.47852L11.4844 5.47852L11.4844 11.9922C11.4844 12.3633 11.2402 12.6074 10.8887 12.6074C10.5273 12.6074 10.2734 12.3633 10.2734 11.9922L10.2734 11.5918C9.81445 12.168 9.0918 12.4902 8.27148 12.4902C6.62109 12.4902 5.39062 11.2012 5.39062 9.35547ZM6.68945 9.36523C6.68945 10.5566 7.41211 11.3379 8.47656 11.3379C9.51172 11.3379 10.2539 10.5078 10.2539 9.36523C10.2539 8.22266 9.51172 7.39258 8.47656 7.39258C7.41211 7.39258 6.68945 8.17383 6.68945 9.36523ZM5.9082 13.6426C5.9082 13.3691 6.11328 13.1543 6.39648 13.1543L11.3086 13.1543C11.5918 13.1543 11.7969 13.3594 11.7969 13.6426C11.7969 13.916 11.582 14.1309 11.3086 14.1309L6.39648 14.1309C6.12305 14.1309 5.9082 13.916 5.9082 13.6426Z" fill="#ffffff" fill-opacity="0.85"/>
 </g>
</svg>
