<svg version="1.1" xmlns="http://www.w3.org/2000/svg" xmlns:xlink="http://www.w3.org/1999/xlink" width="21.8262" height="15.8496" viewBox="0 0 21.8262 15.8496">
 <g>
  <rect height="15.8496" opacity="0" width="21.8262" x="0" y="0"/>
  <path d="M3.06641 15.8496L18.4082 15.8496C20.4492 15.8496 21.4648 14.834 21.4648 12.8223L21.4648 3.04688C21.4648 1.03516 20.4492 0.0195312 18.4082 0.0195312L3.06641 0.0195312C1.02539 0.0195312 0 1.03516 0 3.04688L0 12.8223C0 14.834 1.02539 15.8496 3.06641 15.8496ZM3.08594 14.2773C2.10938 14.2773 1.57227 13.75 1.57227 12.7344L1.57227 3.13477C1.57227 2.11914 2.10938 1.5918 3.08594 1.5918L18.3789 1.5918C19.3457 1.5918 19.8926 2.11914 19.8926 3.13477L19.8926 12.7344C19.8926 13.75 19.3457 14.2773 18.3789 14.2773Z" fill="var(--color-primary)"/>
  <path d="M7.08008 12.2363C8.85742 12.2363 10.0391 11.084 10.0391 9.375C10.0391 8.50586 9.6875 7.76367 9.42383 7.17773C8.95508 6.17188 8.19336 4.91211 7.5293 3.88672C7.39258 3.68164 7.25586 3.60352 7.08008 3.60352C6.9043 3.60352 6.76758 3.68164 6.63086 3.88672C5.97656 4.91211 5.21484 6.17188 4.73633 7.17773C4.47266 7.76367 4.11133 8.50586 4.11133 9.375C4.11133 11.084 5.3125 12.2363 7.08008 12.2363ZM13.1738 6.04492C13.7988 6.04492 14.3164 5.52734 14.3164 4.90234C14.3164 4.27734 13.7988 3.75977 13.1738 3.75977C12.5391 3.75977 12.0312 4.27734 12.0312 4.90234C12.0312 5.52734 12.5391 6.04492 13.1738 6.04492ZM16.5332 6.04492C17.1582 6.04492 17.6758 5.52734 17.6758 4.90234C17.6758 4.27734 17.1582 3.75977 16.5332 3.75977C15.9082 3.75977 15.3906 4.27734 15.3906 4.90234C15.3906 5.52734 15.9082 6.04492 16.5332 6.04492ZM13.1738 9.0625C13.7988 9.0625 14.3164 8.54492 14.3164 7.91992C14.3164 7.29492 13.7988 6.77734 13.1738 6.77734C12.5391 6.77734 12.0312 7.29492 12.0312 7.91992C12.0312 8.54492 12.5391 9.0625 13.1738 9.0625ZM16.5332 9.0625C17.1582 9.0625 17.6758 8.54492 17.6758 7.91992C17.6758 7.29492 17.1582 6.77734 16.5332 6.77734C15.9082 6.77734 15.3906 7.29492 15.3906 7.91992C15.3906 8.54492 15.9082 9.0625 16.5332 9.0625ZM13.1738 12.0801C13.7988 12.0801 14.3164 11.5625 14.3164 10.9375C14.3164 10.3125 13.7988 9.79492 13.1738 9.79492C12.5391 9.79492 12.0312 10.3125 12.0312 10.9375C12.0312 11.5625 12.5391 12.0801 13.1738 12.0801ZM16.5332 12.0801C17.1582 12.0801 17.6758 11.5625 17.6758 10.9375C17.6758 10.3125 17.1582 9.79492 16.5332 9.79492C15.9082 9.79492 15.3906 10.3125 15.3906 10.9375C15.3906 11.5625 15.9082 12.0801 16.5332 12.0801Z" fill="var(--color-primary)"/>
 </g>
</svg>
