<svg version="1.1" xmlns="http://www.w3.org/2000/svg" xmlns:xlink="http://www.w3.org/1999/xlink" width="20.2832" height="19.9316" viewBox="0 0 20.2832 19.9316">
 <g>
  <rect height="19.9316" opacity="0" width="20.2832" x="0" y="0"/>
  <path d="M9.96094 19.9219C15.4102 19.9219 19.9219 15.4004 19.9219 9.96094C19.9219 4.51172 15.4004 0 9.95117 0C4.51172 0 0 4.51172 0 9.96094C0 15.4004 4.52148 19.9219 9.96094 19.9219ZM9.96094 18.2617C5.35156 18.2617 1.66992 14.5703 1.66992 9.96094C1.66992 5.35156 5.3418 1.66016 9.95117 1.66016C14.5605 1.66016 18.2617 5.35156 18.2617 9.96094C18.2617 14.5703 14.5703 18.2617 9.96094 18.2617Z" fill="currentColor"/>
  <path d="M7.70508 14.3164L12.3242 14.3164C12.6953 14.3164 12.9688 14.0723 12.9688 13.6816C12.9688 13.2812 12.6953 13.0371 12.3242 13.0371L8.49609 13.0371L8.49609 10.4102L12.0703 10.4102C12.4414 10.4102 12.7148 10.1953 12.7148 9.81445C12.7148 9.41406 12.4414 9.18945 12.0703 9.18945L8.49609 9.18945L8.49609 6.69922L12.3242 6.69922C12.6953 6.69922 12.9688 6.44531 12.9688 6.05469C12.9688 5.6543 12.6953 5.41992 12.3242 5.41992L7.70508 5.41992C7.19727 5.41992 6.93359 5.77148 6.93359 6.29883L6.93359 13.4375C6.93359 13.9648 7.19727 14.3164 7.70508 14.3164Z" fill="currentColor"/>
 </g>
</svg>
