<?xml version="1.0" encoding="UTF-8"?>
<!--Generator: Apple Native CoreSVG 232.5-->
<!DOCTYPE svg
PUBLIC "-//W3C//DTD SVG 1.1//EN"
       "http://www.w3.org/Graphics/SVG/1.1/DTD/svg11.dtd">
<svg version="1.1" xmlns="http://www.w3.org/2000/svg" xmlns:xlink="http://www.w3.org/1999/xlink" width="18.3398" height="17.998">
 <g>
  <rect height="17.998" opacity="0" width="18.3398" x="0" y="0"/>
  <path d="M3.06641 17.998L14.9121 17.998C16.9629 17.998 17.9785 16.9824 17.9785 14.9707L17.9785 3.04688C17.9785 1.03516 16.9629 0.0195312 14.9121 0.0195312L3.06641 0.0195312C1.02539 0.0195312 0 1.02539 0 3.04688L0 14.9707C0 16.9922 1.02539 17.998 3.06641 17.998Z" fill="#ffffff" fill-opacity="0.25"/>
  <path d="M6.67969 13.4863C6.15234 13.4863 5.88867 13.125 5.88867 12.5781L5.88867 5.22461C5.88867 4.67773 6.15234 4.31641 6.67969 4.31641L11.4453 4.31641C11.8359 4.31641 12.1094 4.55078 12.1094 4.9707C12.1094 5.37109 11.8359 5.63477 11.4453 5.63477L7.5 5.63477L7.5 8.20312L11.1816 8.20312C11.5723 8.20312 11.8457 8.42773 11.8457 8.84766C11.8457 9.23828 11.5723 9.46289 11.1816 9.46289L7.5 9.46289L7.5 12.168L11.4453 12.168C11.8359 12.168 12.1094 12.4121 12.1094 12.832C12.1094 13.2324 11.8359 13.4863 11.4453 13.4863Z" fill="#ffffff" fill-opacity="0.85"/>
 </g>
</svg>
