<svg version="1.1" xmlns="http://www.w3.org/2000/svg" xmlns:xlink="http://www.w3.org/1999/xlink" width="23.6621" height="15.498" viewBox="0 0 23.6621 15.498">
 <g>
  <rect height="15.498" opacity="0" width="23.6621" x="0" y="0"/>
  <path d="M6.02539 15.4883L17.2754 15.4883C21.3379 15.4883 23.3008 13.5742 23.3008 9.61914L23.3008 6.5625L0 6.5625L0 9.61914C0 13.5742 1.96289 15.4883 6.02539 15.4883ZM11.6504 10.1855C11.1328 10.1855 10.7129 9.76562 10.7129 9.24805C10.7129 8.73047 11.1328 8.30078 11.6504 8.30078C12.168 8.30078 12.5977 8.73047 12.5977 9.24805C12.5977 9.76562 12.168 10.1855 11.6504 10.1855ZM0 5.57617L23.3008 5.57617L23.3008 5.2832C23.3008 1.73828 21.1719 0 17.2949 0L6.02539 0C2.14844 0 0 1.73828 0 5.2832Z" fill="currentColor"/>
 </g>
</svg>
