<svg version="1.1" xmlns="http://www.w3.org/2000/svg" xmlns:xlink="http://www.w3.org/1999/xlink" width="21.8848" height="21.5723" viewBox="0 0 21.8848 21.5723">
 <g>
  <rect height="21.5723" opacity="0" width="21.8848" x="0" y="0"/>
  <path d="M21.5234 5.78125L21.5234 13.2617C21.5234 16.123 19.9609 17.7246 17.0508 17.7246L10.4492 17.7246L6.92383 20.9473C6.46484 21.377 6.18164 21.5723 5.80078 21.5723C5.24414 21.5723 4.93164 21.1719 4.93164 20.5664L4.93164 17.7246L4.47266 17.7246C1.5625 17.7246 0 16.1328 0 13.2617L0 5.78125C0 2.91016 1.5625 1.30859 4.47266 1.30859L17.0508 1.30859C19.9609 1.30859 21.5234 2.91992 21.5234 5.78125ZM14.2578 9.51172C14.2578 10.3125 14.9023 10.957 15.7031 10.957C16.5039 10.957 17.1484 10.3125 17.1484 9.51172C17.1484 8.71094 16.5039 8.06641 15.7031 8.06641C14.9023 8.06641 14.2578 8.71094 14.2578 9.51172ZM9.31641 9.51172C9.31641 10.3125 9.9707 10.957 10.7715 10.957C11.5625 10.957 12.2168 10.3125 12.2168 9.51172C12.2168 8.71094 11.5625 8.06641 10.7715 8.06641C9.9707 8.06641 9.31641 8.71094 9.31641 9.51172ZM4.38477 9.51172C4.38477 10.3125 5.03906 10.957 5.83008 10.957C6.63086 10.957 7.27539 10.3125 7.27539 9.51172C7.27539 8.71094 6.63086 8.06641 5.83008 8.06641C5.03906 8.06641 4.38477 8.71094 4.38477 9.51172Z" fill="var(--color-primary)"/>
 </g>
</svg>
