<?xml version="1.0" encoding="UTF-8"?>
<!--Generator: Apple Native CoreSVG 232.5-->
<!DOCTYPE svg
PUBLIC "-//W3C//DTD SVG 1.1//EN"
       "http://www.w3.org/Graphics/SVG/1.1/DTD/svg11.dtd">
<svg version="1.1" xmlns="http://www.w3.org/2000/svg" xmlns:xlink="http://www.w3.org/1999/xlink" width="21.8848" height="21.4551">
 <g>
  <rect height="21.4551" opacity="0" width="21.8848" x="0" y="0"/>
  <path d="M6.00586 21.4551C6.48438 21.4551 6.81641 21.2012 7.41211 20.6738L10.7812 17.6758L17.0508 17.6758C19.9609 17.6758 21.5234 16.0645 21.5234 13.2031L21.5234 5.72266C21.5234 2.86133 19.9609 1.25 17.0508 1.25L4.47266 1.25C1.5625 1.25 0 2.85156 0 5.72266L0 13.2031C0 16.0742 1.5625 17.6758 4.47266 17.6758L4.94141 17.6758L4.94141 20.2148C4.94141 20.9668 5.32227 21.4551 6.00586 21.4551ZM6.40625 19.668L6.40625 16.8359C6.40625 16.3086 6.20117 16.1035 5.67383 16.1035L4.47266 16.1035C2.5 16.1035 1.57227 15.0977 1.57227 13.1934L1.57227 5.72266C1.57227 3.81836 2.5 2.82227 4.47266 2.82227L17.0508 2.82227C19.0137 2.82227 19.9512 3.81836 19.9512 5.72266L19.9512 13.1934C19.9512 15.0977 19.0137 16.1035 17.0508 16.1035L10.7227 16.1035C10.1758 16.1035 9.90234 16.1816 9.53125 16.5625Z" fill="#ffffff" fill-opacity="0.55"/>
  <path d="M10.7715 6.76758C11.5137 6.76758 12.1094 6.16211 12.1094 5.42969C12.1094 4.6875 11.5137 4.08203 10.7715 4.08203C10.0293 4.08203 9.43359 4.6875 9.43359 5.42969C9.43359 6.16211 10.0293 6.76758 10.7715 6.76758Z" fill="#ffffff" fill-opacity="0.85"/>
  <path d="M10.7715 10.8008C11.5137 10.8008 12.1094 10.2051 12.1094 9.46289C12.1094 8.7207 11.5137 8.125 10.7715 8.125C10.0293 8.125 9.43359 8.7207 9.43359 9.46289C9.43359 10.2051 10.0293 10.8008 10.7715 10.8008Z" fill="#ffffff" fill-opacity="0.85"/>
  <path d="M10.7715 14.834C11.5137 14.834 12.1094 14.2383 12.1094 13.4961C12.1094 12.7539 11.5137 12.1582 10.7715 12.1582C10.0293 12.1582 9.43359 12.7539 9.43359 13.4961C9.43359 14.2383 10.0293 14.834 10.7715 14.834Z" fill="#ffffff" fill-opacity="0.85"/>
 </g>
</svg>
