<?xml version="1.0" encoding="UTF-8"?>
<!--Generator: Apple Native CoreSVG 232.5-->
<!DOCTYPE svg
PUBLIC "-//W3C//DTD SVG 1.1//EN"
       "http://www.w3.org/Graphics/SVG/1.1/DTD/svg11.dtd">
<svg version="1.1" xmlns="http://www.w3.org/2000/svg" xmlns:xlink="http://www.w3.org/1999/xlink" width="17.4805" height="20.5176">
 <g>
  <rect height="20.5176" opacity="0" width="17.4805" x="0" y="0"/>
  <path d="M15.4102 3.02734L15.4102 12.8516L13.8379 12.8516L13.8379 3.10547C13.8379 2.08984 13.291 1.57227 12.3242 1.57227L4.79492 1.57227C3.81836 1.57227 3.27148 2.08984 3.27148 3.10547L3.27148 17.373C3.27148 18.3887 3.81836 18.9062 4.79492 18.9062L12.3242 18.9062C13.291 18.9062 13.8379 18.3887 13.8379 17.373L13.8379 16.9824L15.4102 16.9824L15.4102 17.4512C15.4102 19.4629 14.3945 20.4785 12.3535 20.4785L4.76562 20.4785C2.73438 20.4785 1.69922 19.4727 1.69922 17.4512L1.69922 3.02734C1.69922 1.00586 2.73438 0 4.76562 0L12.3535 0C14.3945 0 15.4102 1.01562 15.4102 3.02734Z" fill="#ffffff" fill-opacity="0.55"/>
  <path d="M6.74805 9.55078C6.74805 10.2051 6.23047 10.7227 5.58594 10.7227C4.94141 10.7227 4.42383 10.2051 4.42383 9.55078C4.42383 8.91602 4.94141 8.38867 5.58594 8.38867C6.23047 8.38867 6.74805 8.91602 6.74805 9.55078ZM9.72656 9.55078C9.72656 10.2051 9.21875 10.7227 8.55469 10.7227C7.91016 10.7227 7.40234 10.2051 7.40234 9.55078C7.40234 8.91602 7.91016 8.38867 8.55469 8.38867C9.21875 8.38867 9.72656 8.91602 9.72656 9.55078ZM12.6953 9.55078C12.6953 10.2051 12.1875 10.7227 11.543 10.7227C10.8887 10.7227 10.3809 10.2051 10.3809 9.55078C10.3809 8.91602 10.8887 8.38867 11.543 8.38867C12.1875 8.38867 12.6953 8.91602 12.6953 9.55078ZM6.74805 6.68945C6.74805 7.33398 6.23047 7.85156 5.58594 7.85156C4.94141 7.85156 4.42383 7.33398 4.42383 6.68945C4.42383 6.03516 4.94141 5.51758 5.58594 5.51758C6.23047 5.51758 6.74805 6.03516 6.74805 6.68945ZM9.72656 6.68945C9.72656 7.33398 9.21875 7.85156 8.55469 7.85156C7.91016 7.85156 7.40234 7.33398 7.40234 6.68945C7.40234 6.03516 7.91016 5.51758 8.55469 5.51758C9.21875 5.51758 9.72656 6.03516 9.72656 6.68945ZM12.6953 6.68945C12.6953 7.33398 12.1875 7.85156 11.543 7.85156C10.8887 7.85156 10.3809 7.33398 10.3809 6.68945C10.3809 6.03516 10.8887 5.51758 11.543 5.51758C12.1875 5.51758 12.6953 6.03516 12.6953 6.68945ZM6.74805 3.83789C6.74805 4.46289 6.23047 4.99023 5.58594 4.99023C4.94141 4.99023 4.42383 4.46289 4.42383 3.83789C4.42383 3.18359 4.94141 2.66602 5.58594 2.66602C6.23047 2.66602 6.74805 3.18359 6.74805 3.83789ZM9.72656 3.83789C9.72656 4.46289 9.21875 4.99023 8.55469 4.99023C7.91016 4.99023 7.40234 4.46289 7.40234 3.83789C7.40234 3.18359 7.91016 2.66602 8.55469 2.66602C9.21875 2.66602 9.72656 3.18359 9.72656 3.83789ZM12.6953 3.83789C12.6953 4.46289 12.1875 4.99023 11.543 4.99023C10.8887 4.99023 10.3809 4.46289 10.3809 3.83789C10.3809 3.18359 10.8887 2.66602 11.543 2.66602C12.1875 2.66602 12.6953 3.18359 12.6953 3.83789Z" fill="#ffffff" fill-opacity="0.55"/>
  <path d="M8.55469 17.793C10.1562 17.793 11.4355 16.5137 11.4355 14.9219C11.4355 13.3398 10.1562 12.0605 8.55469 12.0605C6.96289 12.0605 5.68359 13.3398 5.68359 14.9219C5.68359 16.5137 6.96289 17.793 8.55469 17.793ZM8.73047 16.0449L15.4102 16.0449C16.0254 16.0449 16.5332 15.5469 16.5332 14.9219C16.5332 14.2969 16.0254 13.7988 15.4102 13.7988L8.73047 13.7988C8.11523 13.7988 7.60742 14.2969 7.60742 14.9219C7.60742 15.5469 8.11523 16.0449 8.73047 16.0449Z" fill="#ffffff" fill-opacity="0.85"/>
 </g>
</svg>
