<svg version="1.1" xmlns="http://www.w3.org/2000/svg" xmlns:xlink="http://www.w3.org/1999/xlink" width="19.1602" height="20.5176" viewBox="0 0 19.1602 20.5176">
 <g>
  <rect height="20.5176" opacity="0" width="19.1602" x="0" y="0"/>
  <path d="M16.25 3.02734L16.25 13.2422L11.5436 13.2422C10.9966 12.6928 10.2374 12.3535 9.39453 12.3535C7.72461 12.3535 6.37695 13.7012 6.37695 15.3711C6.37695 17.041 7.72461 18.3887 9.39453 18.3887C10.2422 18.3887 11.0052 18.0455 11.5525 17.4902L16.2494 17.4902C16.2431 19.4697 15.2275 20.4785 13.1934 20.4785L5.60547 20.4785C3.56445 20.4785 2.53906 19.4727 2.53906 17.4707L2.53906 3.02734C2.53906 1.00586 3.56445 0 5.60547 0L13.1934 0C15.2344 0 16.25 1.01562 16.25 3.02734ZM5.05859 9.69727C5.05859 10.3809 5.5957 10.9277 6.2793 10.9277C6.95312 10.9277 7.5 10.3809 7.5 9.69727C7.5 9.02344 6.95312 8.47656 6.2793 8.47656C5.5957 8.47656 5.05859 9.02344 5.05859 9.69727ZM8.18359 9.69727C8.18359 10.3809 8.7207 10.9277 9.39453 10.9277C10.0879 10.9277 10.625 10.3809 10.625 9.69727C10.625 9.02344 10.0879 8.47656 9.39453 8.47656C8.7207 8.47656 8.18359 9.02344 8.18359 9.69727ZM11.3086 9.69727C11.3086 10.3809 11.8457 10.9277 12.5293 10.9277C13.2129 10.9277 13.7402 10.3809 13.7402 9.69727C13.7402 9.02344 13.2129 8.47656 12.5293 8.47656C11.8457 8.47656 11.3086 9.02344 11.3086 9.69727ZM5.05859 6.68945C5.05859 7.36328 5.5957 7.91016 6.2793 7.91016C6.95312 7.91016 7.5 7.36328 7.5 6.68945C7.5 6.00586 6.95312 5.45898 6.2793 5.45898C5.5957 5.45898 5.05859 6.00586 5.05859 6.68945ZM8.18359 6.68945C8.18359 7.36328 8.7207 7.91016 9.39453 7.91016C10.0879 7.91016 10.625 7.36328 10.625 6.68945C10.625 6.00586 10.0879 5.45898 9.39453 5.45898C8.7207 5.45898 8.18359 6.00586 8.18359 6.68945ZM11.3086 6.68945C11.3086 7.36328 11.8457 7.91016 12.5293 7.91016C13.2129 7.91016 13.7402 7.36328 13.7402 6.68945C13.7402 6.00586 13.2129 5.45898 12.5293 5.45898C11.8457 5.45898 11.3086 6.00586 11.3086 6.68945ZM5.05859 3.69141C5.05859 4.35547 5.5957 4.90234 6.2793 4.90234C6.95312 4.90234 7.5 4.35547 7.5 3.69141C7.5 3.00781 6.95312 2.46094 6.2793 2.46094C5.5957 2.46094 5.05859 3.00781 5.05859 3.69141ZM8.18359 3.69141C8.18359 4.35547 8.7207 4.90234 9.39453 4.90234C10.0879 4.90234 10.625 4.35547 10.625 3.69141C10.625 3.00781 10.0879 2.46094 9.39453 2.46094C8.7207 2.46094 8.18359 3.00781 8.18359 3.69141ZM11.3086 3.69141C11.3086 4.35547 11.8457 4.90234 12.5293 4.90234C13.2129 4.90234 13.7402 4.35547 13.7402 3.69141C13.7402 3.00781 13.2129 2.46094 12.5293 2.46094C11.8457 2.46094 11.3086 3.00781 11.3086 3.69141Z" fill="var(--color-primary)"/>
  <path d="M9.39453 16.5527L17.0312 16.5527C17.6855 16.5527 18.2129 16.0156 18.2129 15.3711C18.2129 14.7168 17.6855 14.1895 17.0312 14.1895L9.39453 14.1895C8.75 14.1895 8.21289 14.7168 8.21289 15.3711C8.21289 16.0156 8.75 16.5527 9.39453 16.5527Z" fill="var(--color-primary)"/>
 </g>
</svg>
