<svg version="1.1" xmlns="http://www.w3.org/2000/svg" xmlns:xlink="http://www.w3.org/1999/xlink" width="23.9258" height="22.5879" viewBox="0 0 23.9258 22.5879">
 <g>
  <rect height="22.5879" opacity="0" width="23.9258" x="0" y="0"/>
  <path d="M3.06641 22.5879L20.791 22.5879C22.5391 22.5879 23.5645 21.5723 23.5645 19.5703L23.5645 9.66797C23.5645 8.26172 23.3105 7.57812 22.334 6.9043L13.7402 0.947266C12.2656-0.078125 11.2598-0.078125 9.78516 0.947266L1.2207 6.9043C0.253906 7.58789 0 8.26172 0 9.66797L0 19.5703C0 21.5723 1.03516 22.5879 3.06641 22.5879ZM3.00781 21.0938C2.04102 21.0938 1.49414 20.5664 1.49414 19.5605L1.49414 9.4043C1.49414 8.71094 1.66016 8.33984 2.14844 8.00781L10.8301 2.01172C11.5234 1.5332 12.002 1.5332 12.6855 2.01172L21.416 8.00781C21.9043 8.33008 22.0703 8.71094 22.0703 9.4043L22.0703 19.5703C22.0703 20.5664 21.5137 21.0938 20.5469 21.0938ZM11.7773 12.002C11.1523 12.002 10.5469 12.2363 9.99023 12.7441L0.800781 21.0156L1.81641 22.0312L10.8398 13.9062C11.1426 13.6328 11.4551 13.5059 11.7773 13.5059C12.0996 13.5059 12.4121 13.6328 12.7148 13.9062L21.7383 22.0312L22.7539 21.0156L13.5645 12.7441C13.0078 12.2363 12.4023 12.002 11.7773 12.002ZM1.85547 7.50977L0.839844 8.53516L7.77344 15.4688L8.78906 14.4531ZM21.7188 7.5L14.7656 14.4531L15.791 15.4688L22.7344 8.52539Z" fill="var(--color-primary)"/>
 </g>
</svg>
