<svg version="1.1" xmlns="http://www.w3.org/2000/svg" xmlns:xlink="http://www.w3.org/1999/xlink" width="20.2832" height="19.9316" viewBox="0 0 20.2832 19.9316">
 <g>
  <rect height="19.9316" opacity="0" width="20.2832" x="0" y="0"/>
  <path d="M19.9219 9.9707C19.9219 15.4199 15.4102 19.9316 9.96094 19.9316C4.52148 19.9316 0 15.4199 0 9.9707C0 4.53125 4.51172 0.00976562 9.95117 0.00976562C15.4004 0.00976562 19.9219 4.53125 19.9219 9.9707ZM10.8887 10.918C10.5957 11.1719 10.2734 11.2988 9.96094 11.2988C9.64844 11.2988 9.32617 11.1719 9.04297 10.918L8.33008 10.2832L4.56055 14.043C4.75586 14.1699 5.0293 14.248 5.38086 14.248L14.541 14.248C14.8926 14.248 15.166 14.1602 15.3613 14.043L11.5918 10.2832ZM3.96484 7.22656L3.96484 12.7148C3.96484 13.0273 4.01367 13.2422 4.10156 13.4375L7.74414 9.77539L4.08203 6.54297C4.0332 6.65039 3.96484 6.9043 3.96484 7.22656ZM12.168 9.77539L15.8301 13.4375C15.9082 13.2422 15.9473 13.0176 15.9473 12.7148L15.9473 7.22656C15.9473 6.9043 15.8887 6.65039 15.8398 6.55273ZM5.52734 5.69336C5.10742 5.69336 4.81445 5.76172 4.54102 5.92773L9.50195 10.3027C9.64844 10.4395 9.81445 10.498 9.96094 10.498C10.1172 10.498 10.2734 10.4395 10.4199 10.3027L15.3906 5.9375C15.1074 5.77148 14.8047 5.69336 14.4043 5.69336Z" fill="currentColor"/>
 </g>
</svg>
