<?xml version="1.0" encoding="UTF-8"?>
<!--Generator: Apple Native CoreSVG 232.5-->
<!DOCTYPE svg
PUBLIC "-//W3C//DTD SVG 1.1//EN"
       "http://www.w3.org/Graphics/SVG/1.1/DTD/svg11.dtd">
<svg version="1.1" xmlns="http://www.w3.org/2000/svg" xmlns:xlink="http://www.w3.org/1999/xlink" width="18.3398" height="17.998">
 <g>
  <rect height="17.998" opacity="0" width="18.3398" x="0" y="0"/>
  <path d="M3.06641 17.998L14.9121 17.998C16.9629 17.998 17.9785 16.9824 17.9785 14.9707L17.9785 3.04688C17.9785 1.03516 16.9629 0.0195312 14.9121 0.0195312L3.06641 0.0195312C1.02539 0.0195312 0 1.02539 0 3.04688L0 14.9707C0 16.9922 1.02539 17.998 3.06641 17.998ZM3.08594 16.4258C2.10938 16.4258 1.57227 15.9082 1.57227 14.8926L1.57227 3.125C1.57227 2.10938 2.10938 1.5918 3.08594 1.5918L14.8926 1.5918C15.8594 1.5918 16.4062 2.10938 16.4062 3.125L16.4062 14.8926C16.4062 15.9082 15.8594 16.4258 14.8926 16.4258Z" fill="#ffffff" fill-opacity="0.55"/>
  <path d="M5.3125 11.5527L12.666 11.5527C13.1641 11.5527 13.5059 11.3086 13.5059 10.8203C13.5059 10.3223 13.1836 10.0684 12.666 10.0684L5.3125 10.0684C4.79492 10.0684 4.46289 10.3223 4.46289 10.8203C4.46289 11.3086 4.81445 11.5527 5.3125 11.5527ZM5.3125 7.94922L12.666 7.94922C13.1641 7.94922 13.5059 7.70508 13.5059 7.20703C13.5059 6.70898 13.1836 6.45508 12.666 6.45508L5.3125 6.45508C4.79492 6.45508 4.46289 6.70898 4.46289 7.20703C4.46289 7.70508 4.81445 7.94922 5.3125 7.94922Z" fill="#ffffff" fill-opacity="0.85"/>
 </g>
</svg>
