<svg version="1.1" xmlns="http://www.w3.org/2000/svg" xmlns:xlink="http://www.w3.org/1999/xlink" width="20.2832" height="19.9316" viewBox="0 0 20.2832 19.9316">
 <g>
  <rect height="19.9316" opacity="0" width="20.2832" x="0" y="0"/>
  <path d="M19.9219 9.96094C19.9219 15.4004 15.4102 19.9219 9.96094 19.9219C4.52148 19.9219 0 15.4004 0 9.96094C0 4.51172 4.51172 0 9.95117 0C15.4004 0 19.9219 4.51172 19.9219 9.96094ZM5.52734 5.88867C5.06836 5.88867 4.83398 6.19141 4.83398 6.63086L4.83398 13.2812C4.83398 13.7012 5.05859 14.0234 5.52734 14.0234L8.55469 14.0234C8.93555 14.0234 9.18945 13.8086 9.18945 13.4375C9.18945 13.0273 8.87695 12.8418 8.55469 12.8418L6.26953 12.8418L6.26953 10.459L8.4668 10.459C8.78906 10.459 9.02344 10.2734 9.02344 9.90234C9.02344 9.51172 8.79883 9.33594 8.4668 9.33594L6.26953 9.33594L6.26953 7.08008L8.55469 7.08008C8.87695 7.08008 9.18945 6.89453 9.18945 6.47461C9.18945 6.11328 8.92578 5.88867 8.55469 5.88867ZM10.9082 5.88867C10.5469 5.88867 10.2832 6.13281 10.2832 6.48438C10.2832 6.8457 10.5469 7.08008 10.9082 7.08008L13.5742 7.08008L13.5742 7.12891L10.4199 12.7637C10.3516 12.9004 10.2734 13.1348 10.2734 13.3496C10.2734 13.7695 10.5762 14.0234 10.9863 14.0234L14.6875 14.0234C15.0391 14.0234 15.2734 13.7695 15.2734 13.4277C15.2734 13.0762 15.0391 12.8418 14.6875 12.8418L11.875 12.8418L11.875 12.7344L14.9707 7.16797C15.0684 7.01172 15.1367 6.85547 15.1367 6.60156C15.1367 6.11328 14.7949 5.88867 14.4141 5.88867Z" fill="currentColor"/>
 </g>
</svg>
