<?xml version="1.0" encoding="UTF-8"?>
<!--Generator: Apple Native CoreSVG 232.5-->
<!DOCTYPE svg
PUBLIC "-//W3C//DTD SVG 1.1//EN"
       "http://www.w3.org/Graphics/SVG/1.1/DTD/svg11.dtd">
<svg version="1.1" xmlns="http://www.w3.org/2000/svg" xmlns:xlink="http://www.w3.org/1999/xlink" width="18.3398" height="17.998">
 <g>
  <rect height="17.998" opacity="0" width="18.3398" x="0" y="0"/>
  <path d="M17.9785 3.04688L17.9785 14.9707C17.9785 16.9824 16.9629 17.998 14.9121 17.998L3.06641 17.998C1.02539 17.998 0 16.9922 0 14.9707L0 3.04688C0 1.02539 1.02539 0.0195312 3.06641 0.0195312L14.9121 0.0195312C16.9629 0.0195312 17.9785 1.03516 17.9785 3.04688ZM4.56055 4.92188C4.10156 4.92188 3.86719 5.22461 3.86719 5.66406L3.86719 12.3145C3.86719 12.7344 4.0918 13.0566 4.56055 13.0566L7.58789 13.0566C7.96875 13.0566 8.22266 12.8418 8.22266 12.4707C8.22266 12.0605 7.91992 11.875 7.58789 11.875L5.30273 11.875L5.30273 9.49219L7.5 9.49219C7.82227 9.49219 8.05664 9.30664 8.05664 8.93555C8.05664 8.54492 7.83203 8.36914 7.5 8.36914L5.30273 8.36914L5.30273 6.11328L7.58789 6.11328C7.91992 6.11328 8.22266 5.92773 8.22266 5.50781C8.22266 5.14648 7.95898 4.92188 7.58789 4.92188ZM9.94141 4.92188C9.58008 4.92188 9.31641 5.16602 9.31641 5.51758C9.31641 5.87891 9.58008 6.11328 9.94141 6.11328L12.6074 6.11328L12.6074 6.16211L9.45312 11.7969C9.38477 11.9336 9.30664 12.168 9.30664 12.3828C9.30664 12.8027 9.60938 13.0566 10.0195 13.0566L13.7207 13.0566C14.082 13.0566 14.3066 12.8027 14.3066 12.4609C14.3066 12.1094 14.082 11.875 13.7207 11.875L10.9082 11.875L10.9082 11.7676L14.0039 6.20117C14.1016 6.04492 14.1699 5.88867 14.1699 5.63477C14.1699 5.14648 13.8281 4.92188 13.4473 4.92188Z" fill="#ffffff" fill-opacity="0.85"/>
 </g>
</svg>
