<svg version="1.1" xmlns="http://www.w3.org/2000/svg" xmlns:xlink="http://www.w3.org/1999/xlink" width="30.3663" height="21.7871" viewBox="0 0 30.3663 21.7871">
 <g>
  <rect height="21.7871" opacity="0" width="30.3663" x="0" y="0"/>
  <path d="M22.4732 21.0547L22.4732 2.48047C22.4732 0.878906 21.5943 0 19.9927 0L11.1353 0C9.52397 0 8.67436 0.878906 8.67436 2.48047L8.67436 21.0547L10.2466 21.0547L10.2466 2.5C10.2466 1.89453 10.5396 1.57227 11.1646 1.57227L19.9732 1.57227C20.5689 1.57227 20.8912 1.88477 20.8912 2.5L20.8912 21.0547ZM7.13139 20.9863C7.13139 21.4258 7.47319 21.7871 7.90288 21.7871L23.2251 21.7871C23.6548 21.7871 24.0162 21.4258 24.0162 20.9863C24.0162 20.5664 23.6548 20.2148 23.2251 20.2148L7.90288 20.2148C7.48296 20.2148 7.13139 20.5566 7.13139 20.9863ZM12.4439 10.752L18.6939 10.752C19.3384 10.752 19.7876 10.3613 19.7876 9.76562L19.7876 3.84766C19.7876 3.25195 19.3287 2.8418 18.6939 2.8418L12.4439 2.8418C11.7994 2.8418 11.3599 3.25195 11.3599 3.84766L11.3599 9.76562C11.3599 10.3613 11.7994 10.752 12.4439 10.752ZM25.2759 6.42578L26.3794 6.42578L26.3892 4.24805C26.3892 3.94531 26.1353 3.69141 25.8326 3.69141C25.5201 3.69141 25.2759 3.94531 25.2759 4.24805ZM28.9576 6.42578L28.9576 4.24805C28.9576 3.94531 28.7134 3.69141 28.3912 3.69141C28.0982 3.69141 27.8443 3.94531 27.8443 4.24805L27.8443 6.42578ZM22.024 12.8613L22.5708 12.8613C23.0201 12.8613 23.3033 13.1152 23.3033 13.6035L23.3033 16.8359C23.3033 18.2227 24.1333 19.0625 25.5201 19.0625C26.9068 19.0625 27.7369 18.2227 27.7369 16.8359L27.7369 11.7871C27.7369 10.8203 28.4595 10.5469 28.9185 10.1953C29.6216 9.66797 30.0025 8.93555 30.0025 8.06641L30.0025 6.60156C30.0025 6.36719 29.8658 6.23047 29.6509 6.23047L24.4458 6.23047C24.231 6.23047 24.0943 6.36719 24.0943 6.60156L24.0943 8.06641C24.0943 8.93555 24.4751 9.66797 25.1783 10.1953C25.6373 10.5469 26.3599 10.8203 26.3599 11.7871L26.3599 16.8359C26.3599 17.3633 26.0376 17.6855 25.5201 17.6855C24.9927 17.6855 24.6802 17.3633 24.6802 16.8359L24.6802 13.6035C24.6802 12.2559 23.8794 11.4844 22.5708 11.4844L22.024 11.4844Z" fill="currentColor"/>
  <path d="M0.285691 10.4199C-0.0854023 10.6348-0.104934 11.1523 0.285691 11.377L5.30522 14.3359C5.71538 14.5801 6.19389 14.3848 6.19389 13.9648L6.19389 7.8125C6.19389 7.40234 5.68608 7.2168 5.30522 7.44141Z" fill="currentColor"/>
 </g>
</svg>
