<svg version="1.1" xmlns="http://www.w3.org/2000/svg" xmlns:xlink="http://www.w3.org/1999/xlink" width="30.0537" height="26.6016" viewBox="0 0 30.0537 26.6016">
 <g>
  <rect height="26.6016" opacity="0" width="30.0537" x="0" y="0"/>
  <path d="M7.10205 11.4704L7.10205 11.5576C7.10205 12.2119 7.52197 12.6026 8.23486 12.6026L8.23574 12.6026L18.2544 22.6073L18.2544 22.6221L18.2692 22.6221L19.5847 23.9358C19.441 24.0947 19.2366 24.1944 19.0161 24.1944L4.68018 24.1944C4.26025 24.1944 3.90869 23.833 3.90869 23.3936C3.90869 22.9639 4.27002 22.6221 4.68018 22.6221L5.46143 22.6221L5.46143 9.83209ZM24.7388 6.6553L24.7388 8.63772L25.4321 8.63772C25.647 8.63772 25.7837 8.77444 25.7837 9.00881L25.7837 10.4737C25.7837 11.3428 25.4028 12.0752 24.6997 12.6026C24.2407 12.9541 23.5181 13.2276 23.5181 14.1944L23.5181 19.2432C23.5181 20.259 23.0779 20.9814 22.2958 21.2933L21.069 20.0671C21.1431 20.0844 21.2241 20.0928 21.311 20.0928C21.8286 20.0928 22.1411 19.7705 22.1411 19.2432L22.1411 14.1944C22.1411 13.2276 21.4185 12.9541 20.9595 12.6026C20.2661 12.0752 19.8853 11.3428 19.8853 10.4737L19.8853 9.00881C19.8853 8.77444 20.0122 8.63772 20.2368 8.63772L21.0669 8.63772L21.0669 6.6553C21.0669 6.35256 21.3013 6.09866 21.6235 6.09866C21.9165 6.09866 22.1704 6.35256 22.1704 6.6553L22.1704 8.63772L23.6344 8.63772L23.6255 6.6553C23.6255 6.35256 23.8794 6.09866 24.1821 6.09866C24.4946 6.09866 24.7388 6.35256 24.7388 6.6553ZM13.601 12.6026L15.4712 12.6026C16.1743 12.6026 16.6138 12.2119 16.6138 11.5576L16.6138 5.11233C16.6138 4.45803 16.1743 4.05764 15.4712 4.05764L8.23486 4.05764C7.52197 4.05764 7.10205 4.45803 7.10205 5.11233L7.10205 6.10664L5.483 4.48834C5.615 3.1399 6.4512 2.40725 7.92236 2.40725L15.7837 2.40725C17.3755 2.40725 18.2544 3.28616 18.2544 4.88772L18.2544 13.8916L18.3521 13.8916C19.6704 13.8916 20.4614 14.6631 20.4614 16.0108L20.4614 19.2432C20.4614 19.3299 20.4699 19.4111 20.4872 19.4856L19.0845 18.0835L19.0845 16.0108C19.0845 15.5225 18.8013 15.2686 18.3521 15.2686L18.2544 15.2686L18.2544 17.2538Z" fill="var(--color-primary)"/>
  <path d="M22.5024 25.249C22.8052 25.542 23.2837 25.542 23.5669 25.249C23.8599 24.9463 23.8696 24.4678 23.5669 24.1748L2.42432 3.05178C2.13135 2.75881 1.65283 2.75881 1.3501 3.05178C1.06689 3.33499 1.06689 3.83303 1.3501 4.11624Z" fill="var(--color-primary)"/>
 </g>
</svg>
