<svg version="1.1" xmlns="http://www.w3.org/2000/svg" xmlns:xlink="http://www.w3.org/1999/xlink" width="20.2832" height="19.9316" viewBox="0 0 20.2832 19.9316">
 <g>
  <rect height="19.9316" opacity="0" width="20.2832" x="0" y="0"/>
  <path d="M19.9219 9.96094C19.9219 15.4004 15.4102 19.9219 9.96094 19.9219C4.52148 19.9219 0 15.4004 0 9.96094C0 4.51172 4.51172 0 9.95117 0C15.4004 0 19.9219 4.51172 19.9219 9.96094ZM7.68555 15C7.68555 16.25 8.70117 17.2656 9.95117 17.2656C11.2012 17.2656 12.2168 16.25 12.2168 15C12.2168 13.7598 11.2012 12.7344 9.95117 12.7344C8.70117 12.7344 7.68555 13.7598 7.68555 15ZM3.25195 12.4609C3.25195 13.3398 3.98438 14.082 4.86328 14.082C5.76172 14.082 6.48438 13.3398 6.48438 12.4609C6.48438 11.5625 5.76172 10.8398 4.86328 10.8398C3.98438 10.8398 3.25195 11.5625 3.25195 12.4609ZM13.418 12.4609C13.418 13.3398 14.1406 14.082 15.0391 14.082C15.9277 14.082 16.6602 13.3398 16.6602 12.4609C16.6602 11.5625 15.9277 10.8398 15.0391 10.8398C14.1406 10.8398 13.418 11.5625 13.418 12.4609ZM4.11133 6.88477C4.11133 8.13477 5.12695 9.14062 6.37695 9.14062C7.63672 9.14062 8.64258 8.13477 8.64258 6.88477C8.64258 5.63477 7.63672 4.61914 6.37695 4.61914C5.12695 4.61914 4.11133 5.63477 4.11133 6.88477ZM11.2598 6.88477C11.2598 8.13477 12.2754 9.14062 13.5254 9.14062C14.7754 9.14062 15.791 8.13477 15.791 6.88477C15.791 5.63477 14.7754 4.61914 13.5254 4.61914C12.2754 4.61914 11.2598 5.63477 11.2598 6.88477Z" fill="currentColor"/>
 </g>
</svg>
