<svg version="1.1" xmlns="http://www.w3.org/2000/svg" xmlns:xlink="http://www.w3.org/1999/xlink" width="23.0371" height="17.5293" viewBox="0 0 23.0371 17.5293">
 <g>
  <rect height="17.5293" opacity="0" width="23.0371" x="0" y="0"/>
  <path d="M5.23438 17.5293C8.16406 17.5293 10.498 13.9746 10.498 8.75977C10.498 3.54492 8.16406 0 5.23438 0C2.49023 0 0.263672 3.13477 0 7.8418C0.458984 6.94336 1.33789 6.40625 2.49023 6.40625C4.18945 6.40625 5.3125 7.59766 5.3125 9.35547C5.3125 11.1426 4.18945 12.3242 2.49023 12.3242C1.45508 12.3242 0.634766 11.8945 0.146484 11.1523C0.742188 15.0293 2.7832 17.5293 5.23438 17.5293ZM1.68945 9.00391C2.04102 9.07227 2.36328 8.75 2.46094 8.31055C2.54883 7.87109 2.33398 7.45117 1.96289 7.38281C1.62109 7.31445 1.25977 7.63672 1.18164 8.07617C1.10352 8.52539 1.33789 8.94531 1.68945 9.00391ZM17.4121 17.5293C20.3418 17.5293 22.6758 13.9746 22.6758 8.75977C22.6758 3.54492 20.3418 0 17.4121 0C14.668 0 12.4414 3.13477 12.1777 7.8418C12.6367 6.94336 13.5156 6.40625 14.6582 6.40625C16.3672 6.40625 17.4902 7.59766 17.4902 9.35547C17.4902 11.1426 16.3672 12.3242 14.6582 12.3242C13.6328 12.3242 12.8125 11.8945 12.3242 11.1523C12.9199 15.0293 14.9609 17.5293 17.4121 17.5293ZM13.8672 9.00391C14.209 9.07227 14.5508 8.75 14.6387 8.31055C14.7168 7.87109 14.502 7.44141 14.1406 7.38281C13.7988 7.31445 13.4375 7.63672 13.3594 8.07617C13.2812 8.52539 13.5059 8.93555 13.8672 9.00391Z" fill="var(--color-primary)"/>
 </g>
</svg>
