<?xml version="1.0" encoding="UTF-8"?>
<!--Generator: Apple Native CoreSVG 232.5-->
<!DOCTYPE svg
PUBLIC "-//W3C//DTD SVG 1.1//EN"
       "http://www.w3.org/Graphics/SVG/1.1/DTD/svg11.dtd">
<svg version="1.1" xmlns="http://www.w3.org/2000/svg" xmlns:xlink="http://www.w3.org/1999/xlink" width="19.4824" height="19.1309">
 <g>
  <rect height="19.1309" opacity="0" width="19.4824" x="0" y="0"/>
  <path d="M0.78125 6.23047C1.29883 6.23047 1.57227 5.9375 1.57227 5.42969L1.57227 3.125C1.57227 2.10938 2.10938 1.5918 3.08594 1.5918L5.44922 1.5918C5.9668 1.5918 6.25 1.30859 6.25 0.800781C6.25 0.292969 5.9668 0.0195312 5.44922 0.0195312L3.06641 0.0195312C1.02539 0.0195312 0 1.02539 0 3.03711L0 5.42969C0 5.9375 0.283203 6.23047 0.78125 6.23047ZM18.3301 6.23047C18.8477 6.23047 19.1211 5.9375 19.1211 5.42969L19.1211 3.03711C19.1211 1.02539 18.0957 0.0195312 16.0547 0.0195312L13.6621 0.0195312C13.1543 0.0195312 12.8711 0.292969 12.8711 0.800781C12.8711 1.30859 13.1543 1.5918 13.6621 1.5918L16.0254 1.5918C16.9922 1.5918 17.5488 2.10938 17.5488 3.125L17.5488 5.42969C17.5488 5.9375 17.832 6.23047 18.3301 6.23047ZM3.06641 19.1309L5.44922 19.1309C5.9668 19.1309 6.25 18.8477 6.25 18.3496C6.25 17.8418 5.9668 17.5586 5.44922 17.5586L3.08594 17.5586C2.10938 17.5586 1.57227 17.041 1.57227 16.0254L1.57227 13.7207C1.57227 13.2031 1.28906 12.9199 0.78125 12.9199C0.273438 12.9199 0 13.2031 0 13.7207L0 16.1035C0 18.125 1.02539 19.1309 3.06641 19.1309ZM13.6621 19.1309L16.0547 19.1309C18.0957 19.1309 19.1211 18.1152 19.1211 16.1035L19.1211 13.7207C19.1211 13.2031 18.8379 12.9199 18.3301 12.9199C17.8223 12.9199 17.5488 13.2031 17.5488 13.7207L17.5488 16.0254C17.5488 17.041 16.9922 17.5586 16.0254 17.5586L13.6621 17.5586C13.1543 17.5586 12.8711 17.8418 12.8711 18.3496C12.8711 18.8477 13.1543 19.1309 13.6621 19.1309Z" fill="#ffffff" fill-opacity="0.85"/>
  <path d="M5.83984 8.91602C6.29883 8.91602 6.63086 8.59375 6.63086 8.125L6.63086 6.79688C6.63086 6.32812 6.29883 6.00586 5.83984 6.00586C5.38086 6.00586 5.05859 6.32812 5.05859 6.79688L5.05859 8.125C5.05859 8.59375 5.38086 8.91602 5.83984 8.91602ZM8.7793 11.2207C8.79883 11.2207 8.82812 11.2207 8.85742 11.2207C9.84375 11.2207 10.3809 10.6836 10.3809 9.69727L10.3809 6.62109C10.3809 6.24023 10.127 5.99609 9.75586 5.99609C9.36523 5.99609 9.11133 6.24023 9.11133 6.62109L9.11133 9.78516C9.11133 9.88281 9.05273 9.93164 8.96484 9.93164L8.62305 9.93164C8.27148 9.93164 7.99805 10.2051 7.99805 10.5566C7.99805 10.9766 8.28125 11.2207 8.7793 11.2207ZM13.252 8.91602C13.7012 8.91602 14.0234 8.59375 14.0234 8.125L14.0234 6.79688C14.0234 6.32812 13.7012 6.00586 13.252 6.00586C12.7832 6.00586 12.4609 6.32812 12.4609 6.79688L12.4609 8.125C12.4609 8.59375 12.7832 8.91602 13.252 8.91602ZM9.50195 14.502C10.6836 14.502 11.875 13.9941 12.7246 13.1445C12.8418 13.0371 12.9004 12.8711 12.9004 12.6758C12.9004 12.3047 12.627 12.041 12.2656 12.041C12.0801 12.041 11.9434 12.1094 11.7578 12.3047C11.2207 12.8613 10.3711 13.2422 9.50195 13.2422C8.68164 13.2422 7.82227 12.8809 7.25586 12.3047C7.09961 12.1582 6.97266 12.041 6.73828 12.041C6.37695 12.041 6.10352 12.3047 6.10352 12.6758C6.10352 12.8418 6.16211 12.998 6.28906 13.1348C7.08008 14.0332 8.32031 14.502 9.50195 14.502Z" fill="#ffffff" fill-opacity="0.85"/>
 </g>
</svg>
