<?xml version="1.0" encoding="UTF-8"?>
<!--Generator: Apple Native CoreSVG 232.5-->
<!DOCTYPE svg
PUBLIC "-//W3C//DTD SVG 1.1//EN"
       "http://www.w3.org/Graphics/SVG/1.1/DTD/svg11.dtd">
<svg version="1.1" xmlns="http://www.w3.org/2000/svg" xmlns:xlink="http://www.w3.org/1999/xlink" width="20.1367" height="22.7441">
 <g>
  <rect height="22.7441" opacity="0" width="20.1367" x="0" y="0"/>
  <path d="M19.7754 9.89258C19.7754 15.0977 15.7715 19.3457 10.6738 19.7461L10.6738 20.8496L14.1504 20.8496C15.0781 20.8496 15.6738 21.3672 15.6738 22.0996C15.6738 22.4805 15.4395 22.7441 15.0684 22.7441L4.70703 22.7441C4.3457 22.7441 4.11133 22.4805 4.11133 22.0996C4.11133 21.3672 4.70703 20.8496 5.63477 20.8496L9.10156 20.8496L9.10156 19.7461C4.00391 19.3555 0 15.0977 0 9.89258C0 4.42383 4.42383 0 9.89258 0C15.3516 0 19.7754 4.43359 19.7754 9.89258ZM3.53516 6.73828C3.53516 8.23242 4.78516 9.01367 7.03125 9.86328C7.03125 10.0488 7.05078 10.2734 7.08984 10.459L4.84375 10.459C3.69141 10.459 3.06641 11.0352 3.06641 12.168C3.06641 14.2285 4.92188 16.2988 6.67969 16.2988C8.18359 16.2988 8.97461 15.0391 9.84375 12.7441C10.0488 12.7539 10.2148 12.7441 10.4004 12.7148L10.4004 14.9902C10.4004 16.1523 10.9766 16.7773 12.1094 16.7773C14.1602 16.7773 16.2402 14.9121 16.2402 13.1641C16.2402 11.6602 15 10.8887 12.7539 10.0391C12.7637 9.83398 12.7539 9.64844 12.7344 9.43359L14.9316 9.43359C16.084 9.43359 16.7188 8.85742 16.7188 7.72461C16.7188 5.67383 14.8535 3.59375 13.1055 3.59375C11.6211 3.59375 10.8398 4.81445 10 7.02148C9.82422 7.02148 9.58984 7.02148 9.38477 7.07031L9.38477 4.90234C9.38477 3.75 8.80859 3.125 7.67578 3.125C5.61523 3.125 3.53516 4.98047 3.53516 6.73828ZM11.3184 9.95117C11.3184 10.7422 10.6836 11.377 9.89258 11.377C9.0918 11.377 8.45703 10.7422 8.45703 9.95117C8.45703 9.15039 9.0918 8.51562 9.89258 8.51562C10.6836 8.51562 11.3184 9.15039 11.3184 9.95117Z" fill="#ffffff" fill-opacity="0.85"/>
 </g>
</svg>
