<svg version="1.1" xmlns="http://www.w3.org/2000/svg" xmlns:xlink="http://www.w3.org/1999/xlink" width="29.2857" height="17.1582" viewBox="0 0 29.2857 17.1582">
 <g>
  <rect height="17.1582" opacity="0" width="29.2857" x="0" y="0"/>
  <path d="M0.927011 9.84375L12.3528 16.0254C13.2512 16.5137 13.8176 16.7773 14.4622 16.7773C15.1067 16.7773 15.6731 16.5137 16.5715 16.0254L27.9973 9.84375C28.9251 9.3457 29.218 8.22266 28.593 7.31445C25.4387 2.87109 20.2239 0 14.4622 0C8.70045 0 3.4856 2.87109 0.331307 7.31445C-0.293693 8.22266-0.000723836 9.3457 0.927011 9.84375ZM1.91334 8.61328C1.6692 8.4668 1.6106 8.22266 1.80592 7.95898C4.70631 3.99414 9.22779 1.57227 14.4622 1.57227C19.7063 1.57227 24.2473 4.00391 27.1379 7.97852C27.3137 8.23242 27.2551 8.4668 27.011 8.61328L15.6633 14.7363C15.1751 15 14.843 15.1367 14.4622 15.1367C14.0813 15.1367 13.7493 15 13.261 14.7363Z" fill="currentColor"/>
 </g>
</svg>
