<svg version="1.1" xmlns="http://www.w3.org/2000/svg" xmlns:xlink="http://www.w3.org/1999/xlink" width="21.582" height="24.2676" viewBox="0 0 21.582 24.2676">
 <g>
  <rect height="24.2676" opacity="0" width="21.582" x="0" y="0"/>
  <path d="M16.0254 4.39453C17.1875 4.39453 18.1543 3.4375 18.1543 2.26562C18.1543 1.09375 17.1875 0.126953 16.0254 0.126953C14.8535 0.126953 13.8867 1.09375 13.8867 2.26562C13.8867 3.4375 14.8535 4.39453 16.0254 4.39453ZM12.2363 18.0957C12.8027 18.0957 13.2324 17.6465 13.2324 17.0996L13.2324 12.3926C13.2324 12.1191 13.1445 11.8555 12.959 11.6895L10.3711 9.11133L12.6758 6.79688C12.8223 6.65039 13.0664 6.65039 13.2129 6.79688L14.8242 8.41797C15 8.60352 15.2637 8.70117 15.5176 8.70117L20.2246 8.70117C20.7812 8.70117 21.2207 8.26172 21.2207 7.69531C21.2207 7.14844 20.7812 6.69922 20.2246 6.69922L15.9277 6.69922L12.4316 3.18359C11.9922 2.73438 11.3477 2.48047 10.7227 2.48047L7.04102 2.48047C6.04492 2.48047 5.75195 3.57422 6.37695 4.19922L8.01758 5.83008L6.69922 7.11914C5.86914 7.93945 5.86914 9.33594 6.69922 10.1465L8.4375 11.8652L8.4375 17.334C8.4375 17.8809 8.86719 18.3301 9.43359 18.3301C9.98047 18.3301 10.4297 17.8809 10.4297 17.334L10.4297 12.002L11.2402 12.8027L11.2402 17.0996C11.2402 17.6465 11.6895 18.0957 12.2363 18.0957ZM0.546875 6.94336L10.0098 6.94336L10.0098 5.85938L0.546875 5.85938C0.244141 5.85938 0 6.10352 0 6.40625C0 6.69922 0.244141 6.94336 0.546875 6.94336ZM20.6543 17.6172C20.9473 17.6172 21.2012 17.3633 21.2012 17.0703L21.2012 7.72461L20.1172 7.72461L20.1172 17.0703C20.1172 17.3633 20.3613 17.6172 20.6543 17.6172ZM15.9863 24.2676C16.2891 24.2676 16.5332 24.0234 16.5332 23.7207C16.5332 23.418 16.2891 23.1836 15.9863 23.1836C15.3125 23.1836 15.127 23.0664 14.5605 22.5098L4.16016 12.0996C3.93555 11.8848 3.59375 11.8848 3.38867 12.0996C3.17383 12.3047 3.17383 12.6465 3.38867 12.8613L13.9453 23.418C14.5605 24.0332 15.2344 24.2676 15.9863 24.2676ZM18.5156 23.7402C18.8184 23.7402 19.0527 23.4961 19.0527 23.1934C19.0527 22.8906 18.8184 22.6562 18.5156 22.6562C17.8418 22.6562 17.6465 22.5391 17.0801 21.9824L6.67969 11.582C6.45508 11.3574 6.12305 11.3574 5.9082 11.5723C5.70312 11.7871 5.70312 12.1191 5.9082 12.334L16.4648 22.8906C17.0801 23.5059 17.7539 23.7402 18.5156 23.7402Z" fill="currentColor"/>
 </g>
</svg>
