<?xml version="1.0" encoding="UTF-8"?>
<!--Generator: Apple Native CoreSVG 232.5-->
<!DOCTYPE svg
PUBLIC "-//W3C//DTD SVG 1.1//EN"
       "http://www.w3.org/Graphics/SVG/1.1/DTD/svg11.dtd">
<svg version="1.1" xmlns="http://www.w3.org/2000/svg" xmlns:xlink="http://www.w3.org/1999/xlink" width="28.3008" height="21.5527">
 <g>
  <rect height="21.5527" opacity="0" width="28.3008" x="0" y="0"/>
  <path d="M8.47656 4.26758C9.6582 4.26758 10.6055 3.32031 10.6055 2.14844C10.6055 0.966797 9.6582 0.0195312 8.47656 0.0195312C7.29492 0.0195312 6.34766 0.966797 6.34766 2.14844C6.34766 3.32031 7.29492 4.26758 8.47656 4.26758ZM19.4531 4.26758C20.625 4.26758 21.5723 3.32031 21.5723 2.14844C21.5723 0.966797 20.625 0.0195312 19.4531 0.0195312C18.2715 0.0195312 17.3242 0.966797 17.3242 2.14844C17.3242 3.32031 18.2715 4.26758 19.4531 4.26758ZM8.4668 13.4375C8.88672 13.4375 9.0625 13.6914 9.27734 14.4141C9.58008 15.3809 10.6152 19.4824 10.9082 20.6934C11.0547 21.2988 11.377 21.5527 11.8359 21.5527C12.4609 21.5527 12.832 20.9863 12.666 20.3711C12.6074 20.1074 11.1719 14.1895 10.9863 12.9688C10.8008 11.7188 10.7812 8.99414 10.791 8.21289C10.8105 7.53906 11.1133 7.2168 11.709 7.11914C12.2754 7.02148 13.1738 6.97266 13.9746 6.98242C14.8047 6.98242 15.6641 7.02148 16.2402 7.11914C16.8359 7.2168 17.1387 7.53906 17.1484 8.21289C17.168 8.99414 17.1387 11.7188 16.9336 12.9688C16.7383 14.1895 15.3223 20.1074 15.2441 20.3711C15.0781 20.9863 15.4688 21.5527 16.084 21.5527C16.543 21.5527 16.8555 21.2988 17.0215 20.6934C17.3438 19.4922 18.3496 15.4004 18.6621 14.4141C18.8965 13.7109 19.0527 13.4375 19.4531 13.4375C19.8633 13.4375 20.0488 13.6914 20.2637 14.4141C20.5566 15.3809 21.6016 19.4824 21.8945 20.6934C22.041 21.2988 22.373 21.5527 22.8223 21.5527C23.4473 21.5527 23.8184 20.9863 23.6523 20.3711C23.584 20.1074 22.1582 14.1895 21.9629 12.9688C21.7773 11.7188 21.7773 8.99414 21.7871 8.1543C21.7871 7.56836 22.041 7.19727 22.5293 7.08984C22.9883 6.98242 26.7188 6.58203 27.2363 6.41602C27.6465 6.28906 27.9395 5.94727 27.9395 5.49805C27.9395 4.93164 27.5 4.58984 27.1094 4.58984C26.9434 4.58984 26.7871 4.62891 26.6016 4.66797C25.0879 4.94141 21.7969 5.20508 19.4531 5.29297C17.4609 5.35156 15.3418 5.40039 14.0137 5.40039C12.666 5.40039 10.498 5.35156 8.4668 5.29297C6.15234 5.22461 2.83203 4.96094 1.30859 4.66797C1.15234 4.62891 0.976562 4.58984 0.830078 4.58984C0.400391 4.58984 0 4.93164 0 5.49805C0 5.94727 0.273438 6.32812 0.693359 6.41602C1.23047 6.5332 4.94141 7.00195 5.40039 7.08984C5.86914 7.17773 6.15234 7.56836 6.17188 8.1543C6.18164 8.99414 6.15234 11.7188 5.94727 12.9688C5.75195 14.1895 4.33594 20.1074 4.26758 20.3711C4.0918 20.9863 4.48242 21.5527 5.09766 21.5527C5.55664 21.5527 5.87891 21.2988 6.04492 20.6934C6.36719 19.4922 7.36328 15.4004 7.68555 14.4141C7.91992 13.7109 8.06641 13.4375 8.4668 13.4375Z" fill="#ffffff" fill-opacity="0.85"/>
 </g>
</svg>
