<svg version="1.1" xmlns="http://www.w3.org/2000/svg" xmlns:xlink="http://www.w3.org/1999/xlink" width="19.2541" height="18.5384" viewBox="0 0 19.2541 18.5384">
 <g>
  <rect height="18.5384" opacity="0" width="19.2541" x="0" y="0"/>
  <path d="M3.83605 4.84049C5.01769 4.84049 5.96495 3.89323 5.96495 2.71159C5.96495 1.53971 5.01769 0.582681 3.83605 0.582681C2.6544 0.582681 1.70714 1.53971 1.70714 2.71159C1.70714 3.89323 2.6544 4.84049 3.83605 4.84049ZM0.0274516 8.94206L0.593858 12.4382C0.818467 13.7272 2.57628 13.4635 2.3712 12.1842L1.87315 9.16667L3.85558 8.39518C4.15831 8.27799 4.42198 8.31706 4.54894 8.60026L6.37511 12.2135C6.92198 13.2975 7.3712 13.6296 7.82042 13.9518L13.7091 18.278C14.7442 19.0397 15.9845 17.5358 14.8224 16.6764L10.2423 13.3171C10.0177 13.151 10.0372 12.8483 10.2814 12.7116L13.3966 10.9147L17.4786 12.8678C18.6505 13.4147 19.5782 11.7839 18.211 11.1296L13.8556 9.05924C13.3185 8.80534 12.8204 8.88346 12.3907 9.13737L10.34 10.3385C10.0665 10.4948 9.8712 10.4167 9.77355 10.2116L8.12315 6.85221C7.9669 6.53971 8.00597 6.23698 8.34776 6.07096L9.85167 5.38737C10.3497 5.15299 10.5353 4.98698 10.672 4.50846L11.629 1.19792C11.9806-0.0520842 10.3009-0.511069 9.93956 0.738931L9.01183 3.98112L0.691514 7.64323C0.125108 7.88737-0.0799702 8.31706 0.0274516 8.94206Z" fill="currentColor"/>
 </g>
</svg>
