<?xml version="1.0" encoding="UTF-8"?>
<!--Generator: Apple Native CoreSVG 232.5-->
<!DOCTYPE svg
PUBLIC "-//W3C//DTD SVG 1.1//EN"
       "http://www.w3.org/Graphics/SVG/1.1/DTD/svg11.dtd">
<svg version="1.1" xmlns="http://www.w3.org/2000/svg" xmlns:xlink="http://www.w3.org/1999/xlink" width="16.5137" height="23.7988">
 <g>
  <rect height="23.7988" opacity="0" width="16.5137" x="0" y="0"/>
  <path d="M7.8125 4.84375C8.98438 4.84375 9.94141 3.89648 9.94141 2.69531C9.94141 1.5332 8.98438 0.576172 7.8125 0.576172C6.62109 0.576172 5.67383 1.5332 5.67383 2.69531C5.67383 3.89648 6.62109 4.84375 7.8125 4.84375ZM0.996094 23.5547C1.42578 23.7793 2.05078 23.6914 2.34375 23.1641L4.80469 18.7305L6.25977 15.459C6.28906 15.3906 6.38672 15.3613 6.44531 15.4199L10.3516 18.252L10.3516 22.6758C10.3516 23.2324 10.791 23.6719 11.3379 23.6719C11.8945 23.6719 12.3242 23.2324 12.3242 22.6758L12.3242 17.8125C12.3242 17.5293 12.2461 17.2363 12.0215 17.0312L7.94922 13.1836L8.33008 10.0879C8.33984 9.9707 8.49609 9.96094 8.53516 10.0586L9.44336 12.2168C9.59961 12.5977 9.95117 12.8223 10.3516 12.8223L14.541 12.8223C15.0879 12.8223 15.5273 12.3828 15.5273 11.8359C15.5273 11.2891 15.0879 10.8496 14.541 10.8496L10.9961 10.8496L9.58984 7.53906C9.21875 6.67969 8.67188 6.19141 7.42188 5.84961L6.85547 5.69336C5.49805 5.3125 4.57031 5.25391 3.47656 5.73242L1.97266 6.37695L1.97266 2.71484C1.97266 2.17773 1.52344 1.73828 0.986328 1.73828C0.439453 1.73828 0 2.17773 0 2.71484L0 7.99805C0 8.70117 0.732422 9.08203 1.37695 8.79883L4.16992 7.57812C4.29688 7.5293 4.41406 7.60742 4.39453 7.74414L2.98828 17.9395L0.605469 22.2168C0.351562 22.6758 0.517578 23.3105 0.996094 23.5547ZM13.877 9.3457L14.9609 9.3457L14.9609 0.537109C14.9609 0.234375 14.7168 0 14.4141 0C14.1113 0 13.877 0.234375 13.877 0.537109ZM13.0664 9.91211L15.7617 9.91211C16.084 9.91211 16.2207 9.63867 16.1133 9.3457C15.8691 8.61328 15.1953 8.10547 14.4141 8.10547C13.6328 8.10547 12.959 8.61328 12.7148 9.3457C12.6074 9.63867 12.7441 9.91211 13.0664 9.91211Z" fill="#ffffff" fill-opacity="0.85"/>
 </g>
</svg>
