<svg version="1.1" xmlns="http://www.w3.org/2000/svg" xmlns:xlink="http://www.w3.org/1999/xlink" width="22.1533" height="22.4707" viewBox="0 0 22.1533 22.4707">
 <g>
  <rect height="22.4707" opacity="0" width="22.1533" x="0" y="0"/>
  <path d="M10.5786 4.24805C11.7603 4.24805 12.7173 3.28125 12.7173 2.12891C12.7173 0.947266 11.7603 0 10.5786 0C9.40674 0 8.45947 0.947266 8.45947 2.12891C8.45947 3.28125 9.40674 4.24805 10.5786 4.24805ZM2.98096 20.127C2.45361 20.6543 2.5708 21.2988 2.96143 21.6504C3.31299 21.9629 3.91846 22.0312 4.40674 21.543L8.12744 17.8223C8.20557 17.7441 8.23486 17.7148 8.30322 17.5879L10.1392 14.1406C10.4028 13.6328 11.1255 13.6133 11.5747 13.9453L15.7349 17.0996L15.7349 21.3965C15.7349 22.0605 16.145 22.4707 16.7505 22.4707C17.356 22.4707 17.7661 22.0605 17.7661 21.3965L17.7661 16.6113C17.7661 16.3184 17.6489 16.0645 17.3853 15.8301L12.6978 11.8066L12.6978 7.43164C12.6978 7.1875 12.8638 6.99219 13.1567 6.94336L20.9302 5.76172C21.4771 5.67383 21.8579 5.14648 21.77 4.59961C21.6919 4.05273 21.1743 3.67188 20.6274 3.75977L5.13916 6.10352L5.13916 2.99805L3.12744 2.99805L3.12744 7.28516C3.12744 7.91992 3.64502 8.36914 4.28955 8.27148L7.63916 7.76367C7.94189 7.71484 8.1665 7.91016 8.1665 8.21289L8.1665 12.168L6.55518 16.5527ZM3.38135 4.10156C4.53369 4.10156 5.81299 3.56445 6.56494 2.71484C6.81885 2.43164 6.81885 2.06055 6.56494 1.76758C5.81299 0.917969 4.53369 0.380859 3.38135 0.380859C2.23877 0.380859 0.959473 0.917969 0.197754 1.76758C-0.065918 2.06055-0.065918 2.43164 0.197754 2.72461C0.959473 3.56445 2.23877 4.10156 3.38135 4.10156Z" fill="currentColor"/>
 </g>
</svg>
