<?xml version="1.0" encoding="UTF-8"?>
<!--Generator: Apple Native CoreSVG 232.5-->
<!DOCTYPE svg
PUBLIC "-//W3C//DTD SVG 1.1//EN"
       "http://www.w3.org/Graphics/SVG/1.1/DTD/svg11.dtd">
<svg version="1.1" xmlns="http://www.w3.org/2000/svg" xmlns:xlink="http://www.w3.org/1999/xlink" width="19.2593" height="23.3646">
 <g>
  <rect height="23.3646" opacity="0" width="19.2593" x="0" y="0"/>
  <path d="M8.17459 5.58368C9.35623 5.58368 10.3133 4.62665 10.3133 3.46454C10.3133 2.29267 9.35623 1.33564 8.17459 1.33564C7.00272 1.33564 6.05545 2.29267 6.05545 3.46454C6.05545 4.62665 7.00272 5.58368 8.17459 5.58368ZM15.743 6.60907L4.65897 6.60907L4.9617 6.84345C5.44022 6.66767 5.62576 6.20868 5.51834 5.80829C5.39139 5.35907 4.9617 4.98798 4.23905 5.154L1.35819 5.81806C-0.497282 6.24775-0.448454 8.63056 1.48514 8.63056L4.62967 8.63056C4.91287 8.63056 5.13748 8.86493 5.13748 9.14814L5.13748 13.2692L2.11991 16.2673C1.70975 16.6774 1.43631 17.0974 1.2703 17.7321L0.127718 22.0192C-0.0675949 22.7517 0.362093 23.2106 0.869905 23.2888C1.35819 23.3767 1.8953 23.1423 2.06131 22.5368L3.1453 18.5134C3.25272 18.1325 3.33084 17.9763 3.62381 17.7321L5.98709 15.7106C6.46561 15.32 7.27616 15.3884 7.60819 15.9645L9.04373 18.4645L11.3191 22.7517C11.6512 23.3864 12.364 23.4548 12.823 23.1618C13.2234 22.8981 13.3894 22.361 13.0965 21.8142L10.8113 17.4587L9.51248 14.4997C9.29764 14.0017 9.18045 13.4548 9.18045 12.8884L9.18045 9.14814C9.18045 8.86493 9.40506 8.63056 9.69803 8.63056L15.743 8.63056C16.3094 8.63056 16.7586 8.18134 16.7586 7.63446C16.7586 7.06806 16.3094 6.60907 15.743 6.60907ZM17.784 7.63446C17.784 9.7829 17.364 11.7946 16.3094 14.4802C16.1922 14.7927 16.3191 15.1052 16.5926 15.2224C16.8855 15.3395 17.1785 15.2321 17.325 14.9392C18.448 12.4684 18.8972 10.3493 18.8972 7.63446C18.8972 5.00751 18.448 2.87861 17.3152 0.329777C17.1785 0.0368086 16.8855-0.0706133 16.5926 0.0465742C16.3094 0.163762 16.1922 0.476262 16.3094 0.788762C17.364 3.49384 17.784 5.49579 17.784 7.63446Z" fill="#ffffff" fill-opacity="0.85"/>
 </g>
</svg>
