<svg version="1.1" xmlns="http://www.w3.org/2000/svg" xmlns:xlink="http://www.w3.org/1999/xlink" width="19.0918" height="21.2577" viewBox="0 0 19.0918 21.2577">
 <g>
  <rect height="21.2577" opacity="0" width="19.0918" x="0" y="0"/>
  <path d="M16.0938 6.02435C17.5586 6.02435 18.7305 4.80365 18.7305 3.38763C18.7305 1.91302 17.5586 0.721616 16.0938 0.721616C14.6191 0.721616 13.4375 1.91302 13.4375 3.38763C13.4375 4.84271 14.6191 6.02435 16.0938 6.02435ZM0.361328 19.999C0.869141 20.5263 1.73828 20.4872 2.35352 19.8427L6.5625 15.5068C6.69922 15.3603 6.79688 15.3212 7.01172 15.4091L10.293 16.6494C12.4023 17.4599 14.3848 16.7665 15.3125 15.0869L17.4219 11.249C18.2422 9.75482 17.9785 8.21185 16.5625 7.45013C15.1855 6.69818 13.75 7.26458 12.9199 8.79779L10.1758 13.788L7.85156 12.9384C6.69922 12.5185 5.73242 12.6552 4.81445 13.6122L0.449219 18.124C-0.15625 18.749-0.0976562 19.5302 0.361328 19.999Z" fill="currentColor"/>
  <path d="M0 3.45599C0 3.92474 0.361328 4.29583 0.830078 4.29583L5.33203 4.29583L5.33203 6.08294C5.33203 6.88373 6.14258 7.23529 6.73828 6.69818L9.69727 4.08099C10.0977 3.72943 10.0977 3.24115 9.69727 2.87005L6.73828 0.252866C6.17188-0.254947 5.33203 0.0282564 5.33203 0.8681L5.33203 2.63568L0.830078 2.63568C0.361328 2.63568 0 2.99701 0 3.45599Z" fill="currentColor"/>
 </g>
</svg>
