<svg version="1.1" xmlns="http://www.w3.org/2000/svg" xmlns:xlink="http://www.w3.org/1999/xlink" width="27.2754" height="20.9473" viewBox="0 0 27.2754 20.9473">
 <g>
  <rect height="20.9473" opacity="0" width="27.2754" x="0" y="0"/>
  <path d="M10.0879 2.99805C10.918 2.99805 11.582 2.34375 11.582 1.50391C11.582 0.673828 10.918 0 10.0879 0C9.25781 0 8.58398 0.673828 8.58398 1.50391C8.58398 2.34375 9.25781 2.99805 10.0879 2.99805ZM0.986328 16.3086L6.32812 16.3086C6.62109 16.3086 6.74805 16.2793 6.96289 16.2305L12.373 14.9219C12.4609 14.9023 12.5391 14.9805 12.5293 15.0684L12.168 18.0176L10.0488 16.5039C9.59961 16.1816 8.97461 16.2891 8.66211 16.7383C8.33008 17.1875 8.42773 17.8125 8.87695 18.1348L12.1484 20.4395C12.8711 20.9473 13.75 20.7812 13.9355 20.0391L16.6309 9.22852C16.6699 9.10156 16.7969 9.02344 16.9238 9.05273L25.7324 10.8008C26.4844 10.957 26.9141 10.3906 26.9141 9.83398C26.9141 9.4043 26.6699 8.96484 26.123 8.85742L17.4414 7.10938C14.8633 6.60156 13.2617 6.35742 11.4258 6.35742L8.97461 6.35742L8.97461 3.85742C8.97461 3.29102 8.52539 2.86133 7.97852 2.86133C7.41211 2.86133 6.97266 3.29102 6.97266 3.85742L6.97266 7.34375C6.97266 7.89062 7.41211 8.33984 7.97852 8.33984L12.0996 8.33984C12.2852 8.33984 12.4121 8.50586 12.3633 8.68164L11.5625 11.7676C11.4355 12.2656 11.0938 12.6465 10.6055 12.8223L6.30859 14.3164L0.986328 14.3164C0.429688 14.3164 0 14.7656 0 15.3223C0 15.8789 0.429688 16.3086 0.986328 16.3086ZM15.6543 5.77148C16.8262 5.77148 17.7832 4.81445 17.7832 3.62305C17.7832 2.45117 16.8262 1.50391 15.6543 1.50391C14.4629 1.50391 13.5156 2.45117 13.5156 3.62305C13.5156 4.81445 14.4629 5.77148 15.6543 5.77148Z" fill="currentColor"/>
 </g>
</svg>
