<svg version="1.1" xmlns="http://www.w3.org/2000/svg" xmlns:xlink="http://www.w3.org/1999/xlink" width="23.4766" height="16.6309" viewBox="0 0 23.4766 16.6309">
 <g>
  <rect height="16.6309" opacity="0" width="23.4766" x="0" y="0"/>
  <path d="M11.4844 4.27734C12.666 4.27734 13.623 3.32031 13.623 2.13867C13.623 0.957031 12.666 0 11.4844 0C10.3027 0 9.35547 0.957031 9.35547 2.13867C9.35547 3.32031 10.3027 4.27734 11.4844 4.27734ZM1.00586 2.8125L8.18359 6.66016C8.41797 6.78711 8.55469 7.03125 8.47656 7.29492L7.7832 9.82422C9.59961 10.1953 10.2148 11.3086 11.5527 11.3086C11.9238 11.3086 12.2363 11.2109 12.5391 11.0645L13.4863 7.56836C13.584 7.20703 13.6816 7.01172 14.0527 6.82617L21.5723 2.8125C22.1094 2.51953 22.3145 1.8457 22.041 1.30859C21.7285 0.771484 21.0742 0.556641 20.5273 0.849609L13.0664 4.80469C11.8945 5.42969 10.7812 5.50781 9.375 4.75586L2.05078 0.849609C1.50391 0.556641 0.830078 0.771484 0.546875 1.30859C0.253906 1.8457 0.46875 2.51953 1.00586 2.8125ZM0.546875 13.8867L1.5332 13.8867C4.14062 13.8867 4.73633 12.2754 6.54297 12.2754C8.34961 12.2754 8.94531 13.8867 11.5527 13.8867C14.1699 13.8867 14.7559 12.2754 16.5723 12.2754C18.3789 12.2754 18.9648 13.8867 21.582 13.8867L22.5684 13.8867C22.8711 13.8867 23.1152 13.6523 23.1152 13.3496C23.1152 13.0469 22.8711 12.8027 22.5684 12.8027L21.582 12.8027C19.707 12.8027 19.0723 11.1914 16.5723 11.1914C14.0625 11.1914 13.4277 12.8027 11.5527 12.8027C9.67773 12.8027 9.05273 11.1914 6.54297 11.1914C4.04297 11.1914 3.4082 12.8027 1.5332 12.8027L0.546875 12.8027C0.234375 12.8027 0 13.0469 0 13.3496C0 13.6523 0.234375 13.8867 0.546875 13.8867ZM0.800781 16.6016C1.12305 16.6016 1.37695 16.3477 1.37695 16.0254C1.37695 15.7129 1.12305 15.459 0.800781 15.459C0.488281 15.459 0.234375 15.7129 0.234375 16.0254C0.234375 16.3477 0.488281 16.6016 0.800781 16.6016ZM2.63672 16.2695C2.94922 16.2695 3.20312 16.0156 3.20312 15.7031C3.20312 15.3809 2.94922 15.127 2.63672 15.127C2.31445 15.127 2.06055 15.3809 2.06055 15.7031C2.06055 16.0156 2.31445 16.2695 2.63672 16.2695ZM4.3457 15.459C4.66797 15.459 4.92188 15.2148 4.92188 14.8926C4.92188 14.5703 4.66797 14.3262 4.3457 14.3262C4.0332 14.3262 3.7793 14.5703 3.7793 14.8926C3.7793 15.2148 4.0332 15.459 4.3457 15.459ZM6.19141 15.0293C6.51367 15.0293 6.76758 14.7754 6.76758 14.4531C6.76758 14.1406 6.51367 13.8867 6.19141 13.8867C5.87891 13.8867 5.625 14.1406 5.625 14.4531C5.625 14.7754 5.87891 15.0293 6.19141 15.0293ZM8.03711 15.459C8.35938 15.459 8.60352 15.2148 8.60352 14.8926C8.60352 14.5703 8.35938 14.3262 8.03711 14.3262C7.71484 14.3262 7.4707 14.5703 7.4707 14.8926C7.4707 15.2148 7.71484 15.459 8.03711 15.459ZM9.76562 16.2695C10.0879 16.2695 10.3418 16.0156 10.3418 15.7031C10.3418 15.3809 10.0879 15.127 9.76562 15.127C9.45312 15.127 9.19922 15.3809 9.19922 15.7031C9.19922 16.0156 9.45312 16.2695 9.76562 16.2695ZM11.5723 16.6016C11.8848 16.6016 12.1387 16.3477 12.1387 16.0254C12.1387 15.7129 11.8848 15.459 11.5723 15.459C11.25 15.459 10.9961 15.7129 10.9961 16.0254C10.9961 16.3477 11.25 16.6016 11.5723 16.6016ZM13.3691 16.2695C13.6914 16.2695 13.9355 16.0156 13.9355 15.7031C13.9355 15.3809 13.6914 15.127 13.3691 15.127C13.0469 15.127 12.8027 15.3809 12.8027 15.7031C12.8027 16.0156 13.0469 16.2695 13.3691 16.2695ZM15.0977 15.459C15.4199 15.459 15.6738 15.2148 15.6738 14.8926C15.6738 14.5703 15.4199 14.3262 15.0977 14.3262C14.7852 14.3262 14.5312 14.5703 14.5312 14.8926C14.5312 15.2148 14.7852 15.459 15.0977 15.459ZM16.9434 15.0293C17.2656 15.0293 17.5098 14.7754 17.5098 14.4531C17.5098 14.1406 17.2656 13.8867 16.9434 13.8867C16.6211 13.8867 16.377 14.1406 16.377 14.4531C16.377 14.7754 16.6211 15.0293 16.9434 15.0293ZM18.7891 15.459C19.1113 15.459 19.3555 15.2148 19.3555 14.8926C19.3555 14.5703 19.1113 14.3262 18.7891 14.3262C18.4668 14.3262 18.2227 14.5703 18.2227 14.8926C18.2227 15.2148 18.4668 15.459 18.7891 15.459ZM20.5078 16.2695C20.8301 16.2695 21.0742 16.0156 21.0742 15.7031C21.0742 15.3809 20.8301 15.127 20.5078 15.127C20.1855 15.127 19.9414 15.3809 19.9414 15.7031C19.9414 16.0156 20.1855 16.2695 20.5078 16.2695ZM22.3242 16.6016C22.6465 16.6016 22.9004 16.3477 22.9004 16.0254C22.9004 15.7129 22.6465 15.459 22.3242 15.459C22.0117 15.459 21.7578 15.7129 21.7578 16.0254C21.7578 16.3477 22.0117 16.6016 22.3242 16.6016Z" fill="currentColor"/>
 </g>
</svg>
