<?xml version="1.0" encoding="UTF-8"?>
<!--Generator: Apple Native CoreSVG 232.5-->
<!DOCTYPE svg
PUBLIC "-//W3C//DTD SVG 1.1//EN"
       "http://www.w3.org/Graphics/SVG/1.1/DTD/svg11.dtd">
<svg version="1.1" xmlns="http://www.w3.org/2000/svg" xmlns:xlink="http://www.w3.org/1999/xlink" width="19.502" height="25.4036">
 <g>
  <rect height="25.4036" opacity="0" width="19.502" x="0" y="0"/>
  <path d="M17.0215 9.44496C18.1934 9.44496 19.1406 8.48793 19.1406 7.29652C19.1406 6.12465 18.1934 5.17738 17.0215 5.17738C15.8301 5.17738 14.873 6.12465 14.873 7.29652C14.873 8.48793 15.8301 9.44496 17.0215 9.44496ZM8.28125 17.1012L11.9043 19.7477L9.79492 23.9567C9.55078 24.4352 9.74609 25.0504 10.2441 25.3043C10.6934 25.5192 11.2988 25.3922 11.5625 24.8551L14.0332 19.9137C14.248 19.4743 14.1699 19.0348 13.8281 18.7028L11.9629 16.9547L15.1367 16.9547C15.7129 16.9547 16.1328 16.5055 16.1328 15.9586L16.1328 11.984C16.1328 10.3532 14.8145 9.01527 13.1641 9.01527L9.50195 9.01527L10.1367 6.78871C10.2832 6.27113 10 5.72426 9.46289 5.56801C8.93555 5.41176 8.38867 5.72426 8.24219 6.24183L7.25586 9.7184C7.07031 10.3825 7.46094 10.9879 8.16406 10.9879L11.7285 10.9879C11.7676 10.9879 11.7969 11.0465 11.7578 11.0758L8.65234 12.6481C6.9043 13.527 6.68945 15.9293 8.28125 17.1012ZM12.041 15.0114L14.0137 14.0739C14.1016 14.0348 14.209 14.0934 14.209 14.1911L14.209 15.0114ZM6.83594 16.9254L5.98633 19.4254L1.01562 19.4254C0.449219 19.4254 0 19.8746 0 20.4215C0 20.9879 0.449219 21.4371 1.01562 21.4371L6.69922 21.4371C7.07031 21.4371 7.44141 21.2223 7.60742 20.861L8.74023 18.5953L7.72461 17.8629C7.36328 17.5895 7.06055 17.2672 6.83594 16.9254ZM8.78906 4.39613L9.58984 4.39613C10.1758 3.68324 10.8496 2.48207 10.8496 1.68129C10.8496 0.694959 10.166 0.0113649 9.19922 0.0113649C8.21289 0.0113649 7.51953 0.694959 7.51953 1.68129C7.51953 2.56996 8.19336 3.76136 8.78906 4.39613ZM8.63281 14.65L9.73633 14.65L9.73633 4.0348L8.63281 4.0348Z" fill="#ffffff" fill-opacity="0.85"/>
 </g>
</svg>
