<?xml version="1.0" encoding="UTF-8"?>
<!--Generator: Apple Native CoreSVG 232.5-->
<!DOCTYPE svg
PUBLIC "-//W3C//DTD SVG 1.1//EN"
       "http://www.w3.org/Graphics/SVG/1.1/DTD/svg11.dtd">
<svg version="1.1" xmlns="http://www.w3.org/2000/svg" xmlns:xlink="http://www.w3.org/1999/xlink" width="19.5508" height="22.041">
 <g>
  <rect height="22.041" opacity="0" width="19.5508" x="0" y="0"/>
  <path d="M0 20.8496C0 21.2988 0.371094 21.6602 0.810547 21.6602C1.25977 21.6602 1.63086 21.2988 1.63086 20.8496L1.63086 0.810547C1.63086 0.361328 1.25977 0 0.810547 0C0.371094 0 0 0.361328 0 0.810547Z" fill="#ffffff" fill-opacity="0.55"/>
  <path d="M7.67578 21.1035L10.6055 17.6074C10.8984 17.2656 10.9375 17.1875 11.0547 16.8262L11.2695 16.1621L9.69727 14.1895L9.22852 16.3965L6.32812 19.834C5.41016 20.9375 6.91406 22.0117 7.67578 21.1035ZM14.8242 20.8105C15.4199 22.0312 17.2266 21.2793 16.5723 19.9512L14.5801 15.918C14.4238 15.6152 14.209 15.2832 14.0234 15.0195L12.7637 13.2324L12.8516 12.9688C13.1934 11.9531 13.3203 11.3477 13.3887 10.3418L13.584 7.51953C13.6816 6.18164 12.8906 5.16602 11.5234 5.16602C10.4883 5.16602 9.79492 5.68359 8.84766 6.61133L7.35352 8.08594C6.86523 8.56445 6.70898 8.95508 6.66016 9.58984L6.47461 11.8945C6.42578 12.4805 6.74805 12.8906 7.29492 12.9102C7.8418 12.9492 8.17383 12.627 8.22266 12.002L8.4375 9.47266L9.16016 8.82812C9.41406 8.59375 9.75586 8.75 9.73633 9.01367L9.58008 11.1523C9.49219 12.2363 9.74609 12.7539 10.498 13.6816L12.4707 16.1621C12.6758 16.416 12.6953 16.5137 12.7832 16.6699ZM18.2129 8.97461L15.9668 8.97461L14.541 7.40234L14.375 9.75586L14.9414 10.3223C15.2539 10.6348 15.5371 10.7324 16.1133 10.7324L18.2129 10.7324C18.8086 10.7324 19.1895 10.4004 19.1895 9.85352C19.1895 9.32617 18.7988 8.97461 18.2129 8.97461ZM12.6074 4.28711C13.7891 4.28711 14.7363 3.33008 14.7363 2.1582C14.7363 0.976562 13.7891 0.0292969 12.6074 0.0292969C11.4258 0.0292969 10.4785 0.976562 10.4785 2.1582C10.4785 3.33008 11.4258 4.28711 12.6074 4.28711Z" fill="#ffffff" fill-opacity="0.85"/>
 </g>
</svg>
