<svg version="1.1" xmlns="http://www.w3.org/2000/svg" xmlns:xlink="http://www.w3.org/1999/xlink" width="19.0846" height="19.8145" viewBox="0 0 19.0846 19.8145">
 <g>
  <rect height="19.8145" opacity="0" width="19.0846" x="0" y="0"/>
  <path d="M16.095 5.30273C17.5599 5.30273 18.722 4.08203 18.722 2.66602C18.722 1.19141 17.5599 0 16.095 0C14.6204 0 13.4388 1.19141 13.4388 2.66602C13.4388 4.12109 14.6204 5.30273 16.095 5.30273ZM0.362623 19.2773C0.86067 19.8047 1.72981 19.7656 2.35481 19.1211L6.55403 14.7852C6.69075 14.6387 6.79817 14.5996 7.01301 14.6875L10.2943 15.9277C12.4036 16.7383 14.3861 16.0449 15.3138 14.3652L17.4232 10.5273C18.2435 9.0332 17.9798 7.49023 16.554 6.72852C15.1771 5.97656 13.7513 6.54297 12.9115 8.07617L10.1771 13.0664L7.84309 12.2168C6.69075 11.7969 5.73372 11.9336 4.81575 12.8906L0.450514 17.4023C-0.164721 18.0273-0.106127 18.8086 0.362623 19.2773Z" fill="var(--color-primary)"/>
 </g>
</svg>
