<?xml version="1.0" encoding="UTF-8"?>
<!--Generator: Apple Native CoreSVG 232.5-->
<!DOCTYPE svg
PUBLIC "-//W3C//DTD SVG 1.1//EN"
       "http://www.w3.org/Graphics/SVG/1.1/DTD/svg11.dtd">
<svg version="1.1" xmlns="http://www.w3.org/2000/svg" xmlns:xlink="http://www.w3.org/1999/xlink" width="26.4437" height="23.4473">
 <g>
  <rect height="23.4473" opacity="0" width="26.4437" x="0" y="0"/>
  <path d="M21.9133 5.6543C22.9875 5.6543 23.8371 4.78516 23.8371 3.7207C23.8371 2.64648 22.9875 1.79688 21.9133 1.79688C20.8488 1.79688 19.9797 2.64648 19.9797 3.7207C19.9797 4.78516 20.8488 5.6543 21.9133 5.6543ZM20.7512 21.5137C21.2394 21.5137 21.6105 21.1328 21.6105 20.6543L21.6105 14.3652C21.6105 14.209 21.757 14.0723 21.9133 14.0723C22.0695 14.0723 22.2062 14.209 22.2062 14.3652L22.2062 20.6543C22.2062 21.1328 22.5969 21.5137 23.0754 21.5137C23.5539 21.5137 23.9348 21.1328 23.9348 20.6543L23.9348 10.3223C23.9348 10.1562 24.0617 10.0391 24.2277 10.0391C24.384 10.0391 24.5109 10.1562 24.5109 10.3223L24.5109 13.7305C24.5109 14.1797 24.8625 14.5312 25.3019 14.5312C25.7316 14.5312 26.0832 14.1797 26.0832 13.7305L26.0832 9.92188C26.0832 7.96875 24.6476 6.66992 22.5578 6.66992L21.2687 6.66992C19.1691 6.66992 17.7336 7.96875 17.7336 9.92188L17.7336 13.7305C17.7336 14.1797 18.0851 14.5312 18.5246 14.5312C18.9641 14.5312 19.3156 14.1797 19.3156 13.7305L19.3156 10.3223C19.3156 10.1562 19.4426 10.0391 19.5988 10.0391C19.7551 10.0391 19.8918 10.1562 19.8918 10.3223L19.8918 20.6543C19.8918 21.1328 20.2726 21.5137 20.7512 21.5137Z" fill="#ffffff" fill-opacity="0.85"/>
  <path d="M13.8566 23.4375C14.2961 23.4375 14.6476 23.1152 14.6476 22.6758L14.6476 0.761719C14.6476 0.322266 14.2961 0 13.8566 0C13.4172 0 13.0754 0.322266 13.0754 0.761719L13.0754 22.6758C13.0754 23.1152 13.4172 23.4375 13.8566 23.4375Z" fill="#ffffff" fill-opacity="0.85"/>
  <path d="M5.29218 5.6543C6.35663 5.6543 7.21601 4.78516 7.21601 3.7207C7.21601 2.64648 6.35663 1.79688 5.29218 1.79688C4.21796 1.79688 3.35859 2.64648 3.35859 3.7207C3.35859 4.78516 4.21796 5.6543 5.29218 5.6543ZM4.13007 21.5137C4.60859 21.5137 4.98945 21.1328 4.98945 20.6543L4.98945 17.0312C4.98945 16.8652 5.12616 16.7383 5.29218 16.7383C5.44843 16.7383 5.58515 16.8652 5.58515 17.0312L5.58515 20.6543C5.58515 21.1328 5.95624 21.5137 6.44452 21.5137C6.92304 21.5137 7.3039 21.1328 7.3039 20.6543L7.3039 17.0312L8.4953 17.0312C8.98359 17.0312 9.18866 16.6211 9.04218 16.1523L7.25507 10.4395C7.12812 10.0195 7.69452 9.85352 7.82148 10.2832L8.93476 13.8477C9.27655 14.9414 10.8684 14.5117 10.5266 13.3984L9.4914 10.0977C8.81757 7.92969 8.10468 6.66016 5.58515 6.66016L4.98945 6.66016C2.46991 6.66016 1.74726 7.92969 1.07343 10.0977L0.0480393 13.3984C-0.293758 14.5117 1.28827 14.9414 1.63984 13.8477L2.75312 10.2832C2.88007 9.85352 3.44648 10.0195 3.30976 10.4395L1.53241 16.1523C1.38593 16.6211 1.59101 17.0312 2.06952 17.0312L3.26093 17.0312L3.26093 20.6543C3.26093 21.1328 3.65155 21.5137 4.13007 21.5137Z" fill="#ffffff" fill-opacity="0.85"/>
 </g>
</svg>
