<?xml version="1.0" encoding="UTF-8"?>
<!--Generator: Apple Native CoreSVG 232.5-->
<!DOCTYPE svg
PUBLIC "-//W3C//DTD SVG 1.1//EN"
       "http://www.w3.org/Graphics/SVG/1.1/DTD/svg11.dtd">
<svg version="1.1" xmlns="http://www.w3.org/2000/svg" xmlns:xlink="http://www.w3.org/1999/xlink" width="19.209" height="23.1934">
 <g>
  <rect height="23.1934" opacity="0" width="19.209" x="0" y="0"/>
  <path d="M2.14844 4.26758C3.31055 4.26758 4.26758 3.31055 4.26758 2.11914C4.26758 0.947266 3.31055 0 2.14844 0C0.957031 0 0 0.947266 0 2.11914C0 3.31055 0.957031 4.26758 2.14844 4.26758ZM1.02539 12.2168L5.06836 12.2168L5.3125 12.4609C5.80078 12.9492 6.46484 13.1934 7.10938 13.1934C7.64648 13.1934 8.16406 13.0273 8.62305 12.6855L13.5059 9.0332L18.3594 6.11328C18.8281 5.83984 18.9844 5.23438 18.7207 4.76562C18.4277 4.29688 17.8223 4.15039 17.3535 4.43359L8.10547 9.9707L5.53711 7.39258C5.46875 7.33398 5.50781 7.24609 5.5957 7.24609L7.94922 7.24609C8.49609 7.24609 8.94531 6.80664 8.94531 6.25977L8.94531 1.94336C8.94531 1.38672 8.49609 0.947266 7.94922 0.947266C7.40234 0.947266 6.96289 1.38672 6.96289 1.94336L6.96289 5.2832L2.00195 5.2832C0.927734 5.2832 0.0390625 6.16211 0.0390625 7.24609L0.0390625 11.2305C0.0390625 11.7578 0.46875 12.2168 1.02539 12.2168ZM1.93359 10.2832L1.93359 9.3457C1.93359 9.20898 2.08984 9.14062 2.1875 9.23828L3.23242 10.2832ZM7.25586 23.0957C7.76367 23.1934 8.33008 22.8613 8.4375 22.3145L9.42383 17.3633C9.45312 17.2363 9.45312 17.1387 9.43359 17.002L9.24805 13.3984C8.57422 13.9062 7.83203 14.1309 7.10938 14.1309C7.02148 14.1309 6.92383 14.1309 6.82617 14.1211L7.43164 17.168L6.48438 21.9238C6.37695 22.4609 6.72852 22.9883 7.25586 23.0957ZM8.44727 3.41797C9.26758 3.41797 9.94141 2.76367 9.94141 1.94336C9.94141 1.11328 9.26758 0.458984 8.44727 0.458984C7.63672 0.458984 6.96289 1.11328 6.96289 1.94336C6.96289 2.76367 7.63672 3.41797 8.44727 3.41797Z" fill="#ffffff" fill-opacity="0.85"/>
 </g>
</svg>
