<svg version="1.1" xmlns="http://www.w3.org/2000/svg" xmlns:xlink="http://www.w3.org/1999/xlink" width="21.0913" height="18.0957" viewBox="0 0 21.0913 18.0957">
 <g>
  <rect height="18.0957" opacity="0" width="21.0913" x="0" y="0"/>
  <path d="M0.325938 8.24219L3.59742 11.5234C4.04664 11.9727 4.77906 11.9824 5.21852 11.4355L7.27906 8.89648C7.41578 8.74023 7.63063 8.82812 7.63063 9.02344L7.63063 13.3496L3.93922 12.9395C2.66969 12.793 2.25953 14.6582 3.48023 15.0586L7.66969 16.4453C7.46461 17.3145 8.21656 18.0566 9.07594 17.7734L10.365 17.3535L11.6541 17.7734C12.5134 18.0566 13.2654 17.3145 13.0603 16.4453L17.2595 15.0586C18.4802 14.6582 18.0603 12.793 16.7908 12.9395L13.0994 13.3496L13.0994 9.02344C13.0994 8.82812 13.324 8.74023 13.4509 8.89648L15.5115 11.4355C15.9509 11.9824 16.6834 11.9727 17.1326 11.5234L20.4041 8.24219C20.8338 7.80273 20.8435 7.12891 20.4041 6.69922C19.9841 6.2793 19.2908 6.2793 18.8611 6.69922L16.449 9.12109L13.988 6.10352C13.5779 5.60547 12.9627 5.29297 12.3084 5.29297L8.43141 5.29297C7.76734 5.29297 7.16188 5.60547 6.74195 6.10352L4.28102 9.12109L1.86891 6.69922C1.43922 6.2793 0.74586 6.2793 0.325938 6.69922C-0.113515 7.12891-0.103749 7.80273 0.325938 8.24219ZM10.365 4.26758C11.5369 4.26758 12.4841 3.31055 12.4841 2.11914C12.4841 0.947266 11.5369 0 10.365 0C9.17359 0 8.21656 0.947266 8.21656 2.11914C8.21656 3.31055 9.17359 4.26758 10.365 4.26758Z" fill="currentColor"/>
 </g>
</svg>
