<svg version="1.1" xmlns="http://www.w3.org/2000/svg" xmlns:xlink="http://www.w3.org/1999/xlink" width="20.2832" height="19.9316" viewBox="0 0 20.2832 19.9316">
 <g>
  <rect height="19.9316" opacity="0" width="20.2832" x="0" y="0"/>
  <path d="M19.9219 9.96094C19.9219 15.4004 15.4102 19.9219 9.96094 19.9219C4.52148 19.9219 0 15.4004 0 9.96094C0 4.51172 4.51172 0 9.95117 0C15.4004 0 19.9219 4.51172 19.9219 9.96094ZM10.7031 4.28711L10.0879 6.39648L9.22852 6.74805C8.31055 7.10938 7.02148 7.67578 5.36133 8.45703L4.6582 8.79883C4.26758 8.98438 4.11133 9.25781 4.16992 9.62891L4.58008 11.9922C4.7168 12.8809 5.91797 12.6758 5.79102 11.7969L5.48828 9.86328L6.89453 9.30664C7.01172 9.26758 7.08008 9.29688 7.11914 9.39453L8.34961 11.8359C8.7207 12.5586 9.0332 12.793 9.31641 13.0078L13.1836 15.8301C13.9062 16.3574 14.7266 15.332 13.9453 14.7363L11.0059 12.4805C10.8984 12.4023 10.8984 12.2559 11.0254 12.1875L12.998 11.0352L15.6641 12.3047C16.4453 12.6758 17.1191 11.4746 16.1621 11.0254L13.3008 9.7168C12.9492 9.56055 12.627 9.57031 12.3047 9.76562L10.9473 10.5859C10.8203 10.6543 10.7031 10.625 10.6445 10.5176L9.47266 8.11523C9.43359 8.02734 9.46289 7.97852 9.55078 7.92969L10.5566 7.4707C10.8203 7.34375 11.123 7.24609 11.2109 6.93359L11.8848 4.62891C12.1387 3.75977 10.9473 3.42773 10.7031 4.28711ZM5.40039 5.68359C5.40039 6.45508 6.02539 7.08008 6.78711 7.08008C7.56836 7.08008 8.21289 6.44531 8.21289 5.68359C8.21289 4.88281 7.57812 4.24805 6.78711 4.24805C6.01562 4.24805 5.40039 4.88281 5.40039 5.68359Z" fill="currentColor"/>
 </g>
</svg>
