<svg version="1.1" xmlns="http://www.w3.org/2000/svg" xmlns:xlink="http://www.w3.org/1999/xlink" width="22.5124" height="22.1608" viewBox="0 0 22.5124 22.1608">
 <g>
  <rect height="22.1608" opacity="0" width="22.5124" x="0" y="0"/>
  <path d="M1.09505 13.2337L8.91731 21.056C10.3626 22.5013 11.7884 22.5111 13.224 21.0853L21.0853 13.2142C22.5111 11.7884 22.5013 10.3529 21.056 8.90755L13.2435 1.09505C11.7982-0.350264 10.3724-0.369795 8.93685 1.06575L1.06575 8.92708C-0.369795 10.3626-0.350264 11.7884 1.09505 13.2337ZM2.22786 12.1497C1.5345 11.4466 1.51497 10.7142 2.23763 9.99153L9.99153 2.23763C10.7142 1.51497 11.4466 1.52474 12.1497 2.22786L19.9232 10.0013C20.6165 10.6947 20.6361 11.4368 19.9134 12.1595L12.1595 19.9134C11.4368 20.6361 10.6849 20.6165 10.0013 19.9329Z" fill="var(--color-secondary)"/>
  <path d="M13.39 17.0325C13.6927 17.0325 13.9954 16.8275 13.9954 16.4564C13.9954 16.3099 13.9564 16.1829 13.8783 16.0267L12.7259 13.6732C12.6087 13.429 12.4818 13.263 12.3841 13.1263L11.7005 12.14L11.7591 11.974C11.9642 11.3783 12.0618 10.9876 12.1009 10.4017L12.2083 8.83919C12.2669 7.99935 11.7884 7.31575 10.8607 7.31575C10.2552 7.31575 9.69856 7.61849 9.11263 8.19466L8.21419 9.0638C7.91145 9.35677 7.82356 9.59114 7.79427 9.96224L7.67708 11.2708C7.64778 11.6615 7.87239 11.9154 8.22395 11.9447C8.55599 11.9642 8.80013 11.7689 8.83919 11.349L8.94661 9.9427L9.43489 9.52278C9.58138 9.39583 9.75716 9.47395 9.73763 9.6888L9.64974 10.8802C9.59114 11.5345 9.91341 12.0033 10.2357 12.4036L11.3587 13.8197C11.4661 13.9466 11.4857 13.9954 11.5443 14.1029L12.7845 16.6322C12.9115 16.9056 13.1263 17.0325 13.39 17.0325ZM8.07747 17.0325C8.26302 17.0325 8.42903 16.9642 8.54622 16.8275L10.3333 14.6986C10.5286 14.4642 10.5482 14.4544 10.597 14.2396L10.6947 13.8197L9.7181 12.5892L9.42513 13.9661L7.77474 15.9193C7.64778 16.0755 7.52083 16.2318 7.52083 16.4661C7.52083 16.8177 7.7552 17.0325 8.07747 17.0325ZM13.7122 10.7435L15.099 10.7435C15.5091 10.7435 15.7435 10.5189 15.7435 10.1575C15.7435 9.81575 15.5091 9.58138 15.099 9.58138L13.6243 9.58138L12.7161 8.56575L12.6087 10.0892L13.0091 10.4896C13.2044 10.6947 13.3802 10.7435 13.7122 10.7435ZM11.6029 6.85677C12.2962 6.85677 12.8724 6.2806 12.8724 5.597C12.8724 4.88411 12.2962 4.32747 11.6029 4.32747C10.8997 4.32747 10.3431 4.88411 10.3431 5.597C10.3431 6.2806 10.8997 6.85677 11.6029 6.85677Z" fill="var(--color-primary)"/>
 </g>
</svg>
