<svg version="1.1" xmlns="http://www.w3.org/2000/svg" xmlns:xlink="http://www.w3.org/1999/xlink" width="20.6348" height="25.8301" viewBox="0 0 20.6348 25.8301">
 <g>
  <rect height="25.8301" opacity="0" width="20.6348" x="0" y="0"/>
  <path d="M14.635 2.8418L5.63845 2.8418C5.67486 2.04279 6.17642 1.5918 7.01172 1.5918L13.2617 1.5918C14.097 1.5918 14.5986 2.04279 14.635 2.8418Z" fill="var(--color-primary)"/>
  <path d="M16.6322 5.63132C16.3182 5.5814 15.985 5.55664 15.6348 5.55664L4.63867 5.55664C4.28852 5.55664 3.95548 5.58124 3.6415 5.63091C3.74795 4.69295 4.38277 4.16992 5.41992 4.16992L14.8633 4.16992C15.9006 4.16992 16.5274 4.6931 16.6322 5.63132Z" fill="var(--color-primary)"/>
  <path d="M4.63867 24.2578L15.6348 24.2578C17.6758 24.2578 18.7012 23.2422 18.7012 21.2305L18.7012 10.1562C18.7012 8.14453 17.6758 7.12891 15.6348 7.12891L4.63867 7.12891C2.59766 7.12891 1.57227 8.13477 1.57227 10.1562L1.57227 21.2305C1.57227 23.2422 2.59766 24.2578 4.63867 24.2578ZM4.66797 22.6855C3.69141 22.6855 3.14453 22.1582 3.14453 21.1426L3.14453 10.2344C3.14453 9.22852 3.69141 8.70117 4.66797 8.70117L15.6152 8.70117C16.5723 8.70117 17.1289 9.22852 17.1289 10.2344L17.1289 21.1426C17.1289 22.1582 16.5723 22.6855 15.6152 22.6855Z" fill="var(--color-primary)"/>
  <path d="M11.4258 12.3145C12.0898 12.3145 12.627 11.7773 12.627 11.1133C12.627 10.4395 12.0898 9.90234 11.4258 9.90234C10.752 9.90234 10.2148 10.4395 10.2148 11.1133C10.2148 11.7773 10.752 12.3145 11.4258 12.3145ZM9.54102 17.1289L11.6504 18.3203L10.293 19.4824C10 19.7461 10 20.0684 10.1758 20.2734C10.3613 20.4785 10.6934 20.5176 10.9961 20.2637L12.9004 18.6328C13.1641 18.4082 13.1152 17.9395 12.8027 17.7246L10.7324 16.3672L11.1328 14.9414C11.2012 14.7266 11.4355 14.6973 11.5625 14.8828L12.168 15.7715C12.3047 15.9766 12.5684 16.0547 12.8027 15.9473L14.5703 15.166C14.873 15.0293 14.9902 14.7656 14.8535 14.4727C14.7168 14.1992 14.4531 14.1211 14.1504 14.2578L12.7441 14.873L11.7969 13.5449C11.2891 12.8516 10.6738 12.5781 9.66797 12.6465L7.71484 12.793C7.41211 12.8125 7.19727 13.0273 7.14844 13.3301L6.89453 15.3027C6.8457 15.6543 7.01172 15.8789 7.32422 15.918C7.62695 15.9473 7.83203 15.7715 7.87109 15.4297L8.10547 13.8184L8.88672 13.7598C9.0625 13.75 9.22852 13.8672 9.16992 14.082L8.73047 15.6738C8.45703 16.6016 9.0625 16.8555 9.54102 17.1289ZM5.83008 21.9141C6.03516 22.0801 6.34766 22.1094 6.63086 21.8262L8.42773 20.0586C8.58398 19.9121 8.61328 19.873 8.71094 19.6387L9.45312 17.6855L9.27734 17.5879C8.85742 17.3633 8.56445 17.1289 8.35938 16.8848L7.70508 19.2188L5.84961 21.0742C5.55664 21.3574 5.60547 21.709 5.83008 21.9141Z" fill="var(--color-primary)"/>
 </g>
</svg>
