<?xml version="1.0" encoding="UTF-8"?>
<!--Generator: Apple Native CoreSVG 232.5-->
<!DOCTYPE svg
PUBLIC "-//W3C//DTD SVG 1.1//EN"
       "http://www.w3.org/Graphics/SVG/1.1/DTD/svg11.dtd">
<svg version="1.1" xmlns="http://www.w3.org/2000/svg" xmlns:xlink="http://www.w3.org/1999/xlink" width="22.5124" height="22.1608">
 <g>
  <rect height="22.1608" opacity="0" width="22.5124" x="0" y="0"/>
  <path d="M1.09505 13.2337L8.91731 21.056C10.3626 22.5013 11.7884 22.5111 13.224 21.0853L21.0853 13.2142C22.5111 11.7884 22.5013 10.3529 21.056 8.90755L13.2435 1.09505C11.7982-0.350264 10.3724-0.369795 8.93685 1.06575L1.06575 8.92708C-0.369795 10.3626-0.350264 11.7884 1.09505 13.2337Z" fill="#ffffff" fill-opacity="0.25"/>
  <path d="M13.4779 17.2962C13.2142 17.2962 13.0189 17.1693 12.9017 16.9056L11.5931 14.2591C11.5247 14.1419 11.4954 14.0833 11.388 13.9564L10.1966 12.4622C9.86458 12.0423 9.55208 11.5638 9.60091 10.89L9.69856 9.54231C9.7181 9.33724 9.51302 9.22005 9.35677 9.36653L8.77083 9.88411L8.65364 11.3783C8.62435 11.7689 8.38997 11.974 8.05794 11.9544C7.70638 11.9251 7.5013 11.681 7.5306 11.3001L7.64778 9.93294C7.68685 9.55208 7.7845 9.30794 8.07747 9.02474L9.02474 8.10677C9.6302 7.52083 10.1966 7.20833 10.8216 7.20833C11.72 7.20833 12.2474 7.82356 12.179 8.7513L12.0716 10.3919C12.0325 10.9876 11.8958 11.388 11.7103 12.0228L11.6419 12.2279L12.3841 13.2728C12.4915 13.4095 12.6185 13.595 12.7259 13.849L13.9466 16.3197C14.0247 16.4759 14.0638 16.6029 14.0638 16.7396C14.0638 17.0618 13.8099 17.2962 13.4779 17.2962ZM7.89192 17.306C7.56966 17.306 7.36458 17.0814 7.36458 16.7591C7.36458 16.5443 7.472 16.3978 7.61849 16.222L9.36653 14.1517L9.64974 12.7943L10.597 13.9954L10.4993 14.4056C10.4505 14.6107 10.4408 14.6107 10.2357 14.8646L8.35091 17.1009C8.23372 17.2376 8.0677 17.306 7.89192 17.306ZM13.8099 10.6947C13.4681 10.6947 13.3021 10.6361 13.1165 10.4408L12.7064 10.0306L12.804 8.58528L13.7025 9.58138L15.265 9.58138C15.6556 9.58138 15.8997 9.79622 15.8997 10.138C15.8997 10.4798 15.6654 10.6947 15.265 10.6947ZM11.6029 6.61263C10.9095 6.61263 10.3333 6.02669 10.3333 5.33333C10.3333 4.62044 10.8997 4.04427 11.6029 4.04427C12.3158 4.04427 12.8919 4.62044 12.8919 5.33333C12.8919 6.01692 12.2962 6.61263 11.6029 6.61263Z" fill="#ffffff" fill-opacity="0.85"/>
 </g>
</svg>
