<svg version="1.1" xmlns="http://www.w3.org/2000/svg" xmlns:xlink="http://www.w3.org/1999/xlink" width="20.2832" height="19.9316" viewBox="0 0 20.2832 19.9316">
 <g>
  <rect height="19.9316" opacity="0" width="20.2832" x="0" y="0"/>
  <path d="M9.96094 19.9219C15.4102 19.9219 19.9219 15.4004 19.9219 9.96094C19.9219 4.51172 15.4004 0 9.95117 0C4.51172 0 0 4.51172 0 9.96094C0 15.4004 4.52148 19.9219 9.96094 19.9219Z" fill="var(--color-tertiary)"/>
  <path d="M12.3535 16.1816C12.0898 16.1816 11.8945 16.0547 11.7773 15.791L10.4785 13.1445C10.4004 13.0273 10.3711 12.9688 10.2637 12.8418L9.07227 11.3477C8.74023 10.9277 8.42773 10.4492 8.47656 9.77539L8.58398 8.42773C8.59375 8.22266 8.39844 8.10547 8.23242 8.25195L7.64648 8.76953L7.5293 10.2637C7.5 10.6543 7.27539 10.8594 6.93359 10.8398C6.58203 10.8105 6.37695 10.5664 6.41602 10.1855L6.52344 8.81836C6.5625 8.4375 6.66992 8.19336 6.95312 7.91016L7.90039 6.99219C8.51562 6.40625 9.07227 6.09375 9.70703 6.09375C10.5957 6.09375 11.123 6.70898 11.0645 7.63672L10.9473 9.27734C10.9082 9.87305 10.7812 10.2734 10.5859 10.9082L10.5273 11.1133L11.2695 12.1582C11.3672 12.2949 11.4941 12.4805 11.6113 12.7344L12.8223 15.2051C12.9004 15.3613 12.9492 15.4883 12.9492 15.625C12.9492 15.9473 12.6953 16.1816 12.3535 16.1816ZM6.76758 16.1914C6.45508 16.1914 6.24023 15.9668 6.24023 15.6445C6.24023 15.4297 6.35742 15.2832 6.50391 15.1074L8.25195 13.0371L8.52539 11.6797L9.48242 12.8809L9.38477 13.291C9.32617 13.4961 9.31641 13.4961 9.11133 13.75L7.22656 15.9863C7.11914 16.123 6.94336 16.1914 6.76758 16.1914ZM12.6953 9.58008C12.3438 9.58008 12.1875 9.52148 11.9922 9.32617L11.582 8.91602L11.6797 7.4707L12.5781 8.4668L14.1504 8.4668C14.541 8.4668 14.7852 8.68164 14.7852 9.02344C14.7852 9.36523 14.5508 9.58008 14.1504 9.58008ZM10.4785 5.49805C9.78516 5.49805 9.20898 4.91211 9.20898 4.21875C9.20898 3.50586 9.77539 2.92969 10.4785 2.92969C11.1914 2.92969 11.7676 3.50586 11.7676 4.21875C11.7676 4.90234 11.1816 5.49805 10.4785 5.49805Z" fill="var(--color-primary)"/>
 </g>
</svg>
