<svg version="1.1" xmlns="http://www.w3.org/2000/svg" xmlns:xlink="http://www.w3.org/1999/xlink" width="27.5068" height="21.3959" viewBox="0 0 27.5068 21.3959">
 <g>
  <rect height="21.3959" opacity="0" width="27.5068" x="0" y="0"/>
  <path d="M0.0278372 16.6794C0.0571341 17.0993 0.330572 17.3141 0.750493 17.3044C3.09424 17.2653 5.0669 16.1618 6.79542 14.1598C8.61182 15.9665 10.7114 17.0602 12.9185 17.5583L12.5767 20.361C12.4888 21.0934 12.8892 21.5134 13.7388 21.3669C16.1606 20.9958 18.895 19.2087 20.3208 17.1481C23.8755 16.0348 27.147 13.818 27.147 11.1227C27.147 8.53485 24.1196 6.38641 20.7114 5.2243C19.5005 1.06414 13.9927-0.859685 10.106 1.29852C9.68604 1.51336 9.63721 1.85516 9.97901 2.31414C10.8774 3.49578 11.1704 4.19891 11.3462 5.15594C9.70557 5.76141 8.18213 6.71844 6.79542 8.10516C5.0669 6.09344 3.09424 4.98992 0.750493 4.95086C0.330572 4.9411 0.0571341 5.15594 0.0278372 5.57586C-0.177241 7.62664 0.770025 9.82391 2.23487 11.1227C0.770025 12.4313-0.177241 14.6384 0.0278372 16.6794ZM21.9321 11.7184C21.3755 11.7184 20.9067 11.2497 20.9067 10.693C20.9067 10.1364 21.3755 9.66766 21.9321 9.66766C22.4985 9.66766 22.9673 10.1364 22.9673 10.693C22.9673 11.2497 22.4985 11.7184 21.9321 11.7184Z" fill="currentColor"/>
 </g>
</svg>
