<svg version="1.1" xmlns="http://www.w3.org/2000/svg" xmlns:xlink="http://www.w3.org/1999/xlink" width="20.2832" height="19.9316" viewBox="0 0 20.2832 19.9316">
 <g>
  <rect height="19.9316" opacity="0" width="20.2832" x="0" y="0"/>
  <path d="M9.96094 19.9219C15.4102 19.9219 19.9219 15.4004 19.9219 9.96094C19.9219 4.51172 15.4004 0 9.95117 0C4.51172 0 0 4.51172 0 9.96094C0 15.4004 4.52148 19.9219 9.96094 19.9219Z" fill="var(--color-tertiary)"/>
  <path d="M12.1875 14.1602C11.9824 14.2773 11.7285 14.2188 11.6113 13.9941L9.13086 9.7168C8.94531 9.79492 8.70117 9.87305 8.42773 10.0391C7.49023 10.5664 7.09961 11.4746 6.04492 12.0801C5.76172 12.2559 5.41016 12.4316 5.04883 12.4316C4.70703 12.4316 4.47266 12.2754 4.30664 11.9727L2.68555 9.17969C2.50977 8.88672 2.65625 8.60352 2.91992 8.45703C3.0957 8.35938 3.45703 8.26172 3.88672 8.00781C4.84375 7.46094 5.21484 6.58203 6.26953 5.9668C6.57227 5.79102 6.91406 5.63477 7.1875 5.63477C7.5 5.63477 7.79297 5.71289 8.00781 6.06445L12.3438 13.5742C12.4609 13.7793 12.3926 14.043 12.1875 14.1602ZM14.8242 12.4316C14.4629 12.4316 14.1211 12.2559 13.8281 12.0801C12.8125 11.5039 12.1582 10.2539 11.0059 9.81445L10.3516 8.70117L11.875 6.07422C12.0801 5.71289 12.3828 5.63477 12.6953 5.63477C12.9688 5.63477 13.3008 5.79102 13.6133 5.9668C14.668 6.58203 15.0293 7.46094 15.9961 8.00781C16.416 8.26172 16.7871 8.35938 16.9629 8.45703C17.2266 8.61328 17.373 8.88672 17.1973 9.17969L15.5762 11.9727C15.4004 12.2754 15.1758 12.4316 14.8242 12.4316ZM7.69531 14.1602C7.48047 14.043 7.42188 13.7793 7.53906 13.5742L9.04297 10.9863L9.53125 11.8262L8.27148 13.9941C8.1543 14.2188 7.90039 14.2871 7.69531 14.1602Z" fill="var(--color-primary)"/>
 </g>
</svg>
