<svg version="1.1" xmlns="http://www.w3.org/2000/svg" xmlns:xlink="http://www.w3.org/1999/xlink" width="19.0332" height="20.498" viewBox="0 0 19.0332 20.498">
 <g>
  <rect height="20.498" opacity="0" width="19.0332" x="0" y="0"/>
  <path d="M2.66602 20.4785L16.0059 20.4785C17.666 20.4785 18.6719 19.3262 18.6719 17.832C18.6719 17.334 18.4277 16.6699 17.9688 16.0059L12.6855 8.42773L11.4355 9.29688L16.9043 17.1387C17.0801 17.4023 17.0898 17.6367 17.0898 17.8223C17.0898 18.418 16.6699 18.9453 15.9961 18.9453L2.67578 18.9453C1.99219 18.9453 1.58203 18.418 1.58203 17.8223C1.58203 17.6367 1.5918 17.4023 1.76758 17.1387L7.22656 9.29688L5.98633 8.42773L0.615234 16.123C0.205078 16.709 0 17.334 0 17.832C0 19.3262 1.00586 20.4785 2.66602 20.4785ZM5.66406 9.29688L7.22656 9.29688L7.22656 0.820312L5.66406 0.820312ZM13.0078 9.29688L13.0078 0.820312L11.4355 0.820312L11.4355 9.29688ZM5.5957 1.64062L13.0664 1.64062C13.5547 1.64062 13.8965 1.25977 13.8965 0.810547C13.8965 0.361328 13.5547 0 13.0664 0L5.5957 0C5.10742 0 4.77539 0.361328 4.77539 0.810547C4.77539 1.25977 5.10742 1.64062 5.5957 1.64062ZM6.40625 4.16992L9.00391 4.16992C9.32617 4.16992 9.57031 3.92578 9.57031 3.59375C9.57031 3.29102 9.30664 3.02734 8.99414 3.02734L6.40625 3.02734ZM6.41602 6.96289L9.01367 6.96289C9.33594 6.96289 9.58008 6.70898 9.58008 6.37695C9.58008 6.07422 9.31641 5.82031 9.00391 5.82031L6.41602 5.82031ZM6.41602 9.74609L9.01367 9.74609C9.33594 9.74609 9.58008 9.50195 9.58008 9.16992C9.58008 8.86719 9.32617 8.60352 9.01367 8.60352L6.41602 8.60352Z" fill="currentColor"/>
 </g>
</svg>
