<?xml version="1.0" encoding="UTF-8"?>
<!--Generator: Apple Native CoreSVG 232.5-->
<!DOCTYPE svg
PUBLIC "-//W3C//DTD SVG 1.1//EN"
       "http://www.w3.org/Graphics/SVG/1.1/DTD/svg11.dtd">
<svg version="1.1" xmlns="http://www.w3.org/2000/svg" xmlns:xlink="http://www.w3.org/1999/xlink" width="19.0723" height="21.748">
 <g>
  <rect height="21.748" opacity="0" width="19.0723" x="0" y="0"/>
  <path d="M1.67969 12.793C1.67969 17.1191 4.86328 21.748 11.2012 21.748C13.9355 21.748 16.0254 20.459 16.0254 18.8379C16.0254 18.0762 15.4883 17.5 14.4629 17.3828C14.1992 17.3438 13.9355 17.4512 13.8867 17.7734C13.7207 19.1211 12.793 20.0781 11.543 20.0781C10.6543 20.0781 10.1074 19.5508 10.1074 18.8672C10.1074 16.5723 16.9141 16.0742 16.9141 11.748C16.9141 9.61914 15.4102 8.14453 13.4082 8.14453C11.543 8.14453 10.0781 9.18945 9.41406 10.791C9.55078 8.38867 8.06641 7.07031 6.24023 7.07031C3.27148 7.07031 1.67969 9.69727 1.67969 12.793ZM3.1543 12.793C3.1543 10.127 4.28711 8.54492 6.13281 8.54492C7.71484 8.54492 8.63281 9.96094 8.69141 11.7578C8.71094 12.4414 9.55078 12.4609 9.78516 11.9922C10.5957 10.4102 11.9922 9.61914 13.3789 9.61914C14.5898 9.61914 15.4395 10.4688 15.4395 11.8457C15.4395 15.0586 8.66211 15.4785 8.66211 18.8672C8.66211 19.3262 8.83789 19.7559 9.14062 20.0879C5.11719 19.3066 3.1543 16.1816 3.1543 12.793ZM4.04297 2.04102C7.16797 2.04102 10.1465 6.65039 14.8535 6.65039C17.3047 6.65039 18.7109 5.11719 18.7109 3.14453C18.7109 2.49023 18.5449 1.76758 18.1934 1.09375C17.7637 0.263672 16.4844 0.810547 16.9629 1.72852C17.2363 2.25586 17.3828 2.79297 17.3828 3.27148C17.3828 4.48242 16.5137 5.27344 14.8535 5.27344C10.8887 5.27344 7.91016 0.664062 4.04297 0.664062C1.51367 0.664062 0 2.33398 0 4.28711C0 4.92188 0.146484 5.56641 0.478516 6.20117C0.908203 7.02148 2.16797 6.45508 1.70898 5.56641C1.45508 5.07812 1.33789 4.59961 1.33789 4.16992C1.33789 2.94922 2.29492 2.04102 4.04297 2.04102ZM8.79883 10.8496L9.41406 11.0352L10.166 10.5469C10.5957 7.72461 12.5684 6.00586 12.5684 3.36914C12.5684 1.66016 11.3867 0.273438 9.82422 0.273438C8.44727 0.273438 7.33398 1.30859 7.29492 2.71484L8.57422 3.08594C8.59375 2.22656 9.08203 1.65039 9.82422 1.65039C10.625 1.65039 11.1914 2.34375 11.1914 3.36914C11.1914 5.47852 9.0625 7.30469 8.79883 10.8496Z" fill="#ffffff" fill-opacity="0.85"/>
 </g>
</svg>
