<?xml version="1.0" encoding="UTF-8"?>
<!--Generator: Apple Native CoreSVG 232.5-->
<!DOCTYPE svg
PUBLIC "-//W3C//DTD SVG 1.1//EN"
       "http://www.w3.org/Graphics/SVG/1.1/DTD/svg11.dtd">
<svg version="1.1" xmlns="http://www.w3.org/2000/svg" xmlns:xlink="http://www.w3.org/1999/xlink" width="22.1804" height="19.9316">
 <g>
  <rect height="19.9316" opacity="0" width="22.1804" x="0" y="0"/>
  <path d="M11.8568 19.9219C17.2962 19.9219 21.8177 15.4004 21.8177 9.96094C21.8177 4.51172 17.2962 0 11.8568 0C6.40757 0 1.89585 4.50195 1.89585 9.95117L3.55601 9.95117C3.55601 5.3418 7.24741 1.66992 11.8568 1.66992C16.4662 1.66992 20.1576 5.35156 20.1576 9.96094C20.1576 14.5703 16.4662 18.2812 11.8568 18.2617C9.07358 18.252 6.63218 16.9043 5.13804 14.8242C4.8353 14.4238 4.37632 14.2969 3.96616 14.541C3.57554 14.7852 3.46811 15.3223 3.80015 15.752C5.65561 18.2422 8.56577 19.9219 11.8568 19.9219ZM0.694677 8.07617C-0.00844799 8.07617-0.184229 8.55469 0.19663 9.10156L2.38413 12.207C2.7064 12.6562 3.17515 12.6465 3.48765 12.207L5.67515 9.0918C6.04624 8.55469 5.87046 8.07617 5.1771 8.07617Z" fill="#ffffff" fill-opacity="0.85"/>
  <path d="M9.5228 14.6582C11.0169 14.6582 11.8275 13.8867 12.0912 12.2656L12.4232 10.2441L14.474 10.2441C14.7962 10.2441 15.0013 10.0391 15.0013 9.73633C15.0013 9.41406 14.7962 9.19922 14.474 9.19922L12.5794 9.19922L12.8236 7.71484C12.9798 6.76758 13.3802 6.36719 14.2298 6.36719C14.5228 6.36719 14.6498 6.39648 14.806 6.42578C14.8841 6.44531 14.9623 6.45508 15.0794 6.45508C15.431 6.45508 15.6361 6.23047 15.6361 5.9375C15.6361 5.66406 15.4798 5.44922 15.1478 5.33203C14.9134 5.24414 14.5912 5.20508 14.1712 5.20508C12.6869 5.20508 11.8666 5.98633 11.6126 7.60742L11.349 9.19922L9.39585 9.19922C9.06382 9.19922 8.85874 9.41406 8.85874 9.73633C8.85874 10.0391 9.06382 10.2441 9.39585 10.2441L11.1927 10.2441L10.89 12.1094C10.7337 13.0957 10.3333 13.5059 9.46421 13.5059C9.18101 13.5059 9.05405 13.4668 8.8978 13.4375C8.81968 13.418 8.73179 13.4082 8.62436 13.4082C8.2728 13.4082 8.06772 13.6328 8.06772 13.9258C8.06772 14.209 8.22397 14.4141 8.55601 14.5312C8.79038 14.6289 9.11265 14.6582 9.5228 14.6582Z" fill="#ffffff" fill-opacity="0.85"/>
 </g>
</svg>
