<?xml version="1.0" encoding="UTF-8"?>
<!--Generator: Apple Native CoreSVG 232.5-->
<!DOCTYPE svg
PUBLIC "-//W3C//DTD SVG 1.1//EN"
       "http://www.w3.org/Graphics/SVG/1.1/DTD/svg11.dtd">
<svg version="1.1" xmlns="http://www.w3.org/2000/svg" xmlns:xlink="http://www.w3.org/1999/xlink" width="20.1087" height="19.7473">
 <g>
  <rect height="19.7473" opacity="0" width="20.1087" x="0" y="0"/>
  <path d="M2.18812 19.2926C3.97523 19.8199 5.97718 19.8785 7.9889 19.4781L0.264292 11.7535C-0.136099 13.7653-0.0872707 15.7672 0.449839 17.5543C0.772104 18.6285 1.1139 18.9703 2.18812 19.2926ZM15.4303 15.4254C17.0416 13.8336 18.2037 11.9489 18.9069 9.99573L9.74671 0.835571C7.79359 1.5387 5.91859 2.70081 4.30726 4.31213C2.69593 5.90393 1.54359 7.7887 0.830698 9.74182L9.99085 18.902C11.9537 18.1989 13.8287 17.0367 15.4303 15.4254ZM8.50648 13.8629C8.3307 14.0289 8.05726 14.0289 7.88148 13.8531L5.87953 11.8512C5.71351 11.6852 5.71351 11.4117 5.87953 11.236C6.05531 11.0504 6.33851 11.0504 6.50453 11.2262L7.19789 11.9196L7.92054 11.1871L7.22718 10.5035C7.06117 10.3375 7.06117 10.0543 7.22718 9.87854C7.40296 9.70276 7.68617 9.70276 7.86195 9.86877L8.54554 10.5719L9.2682 9.83948L8.57484 9.15588C8.40882 8.98987 8.39906 8.70667 8.57484 8.53088C8.75062 8.3551 9.04359 8.3551 9.19984 8.52112L9.8932 9.21448L10.6256 8.49182L9.92249 7.80823C9.75648 7.64221 9.74671 7.35901 9.92249 7.18323C10.0983 7.00745 10.3815 7.00745 10.5475 7.17346L11.2409 7.86682L11.9733 7.14417L11.2799 6.45081C11.1041 6.28479 11.0944 6.01135 11.2799 5.83557C11.4459 5.66956 11.7291 5.66956 11.8952 5.82581L13.9069 7.83752C14.0729 8.01331 14.0729 8.28674 13.9069 8.46252C13.7311 8.63831 13.4479 8.62854 13.2721 8.45276L12.5885 7.76917L11.8659 8.49182L12.5592 9.18518C12.735 9.36096 12.735 9.6344 12.5592 9.81995C12.3737 9.98596 12.1002 9.9762 11.9342 9.81018L11.2409 9.12659L10.5182 9.83948L11.2116 10.5328C11.3873 10.6989 11.3873 10.9821 11.2116 11.1676C11.026 11.3434 10.7526 11.3336 10.5866 11.1578L9.8932 10.4742L9.17054 11.1871L9.85414 11.8805C10.0299 12.0465 10.0299 12.3395 9.85414 12.5153C9.67835 12.6813 9.40492 12.6813 9.2389 12.5055L8.54554 11.8219L7.82289 12.5446L8.50648 13.2281C8.68226 13.4039 8.68226 13.6871 8.50648 13.8629ZM19.2975 2.18323C18.9655 1.10901 18.6334 0.776978 17.5592 0.444946C15.7721-0.0823975 13.7702-0.140991 11.7584 0.269165L19.4733 7.98401C19.8834 5.97229 19.8248 3.97034 19.2975 2.18323Z" fill="#ffffff" fill-opacity="0.85"/>
 </g>
</svg>
