<?xml version="1.0" encoding="UTF-8"?>
<!--Generator: Apple Native CoreSVG 232.5-->
<!DOCTYPE svg
PUBLIC "-//W3C//DTD SVG 1.1//EN"
       "http://www.w3.org/Graphics/SVG/1.1/DTD/svg11.dtd">
<svg version="1.1" xmlns="http://www.w3.org/2000/svg" xmlns:xlink="http://www.w3.org/1999/xlink" width="20.2832" height="19.9316">
 <g>
  <rect height="19.9316" opacity="0" width="20.2832" x="0" y="0"/>
  <path d="M9.96094 19.9219C15.4102 19.9219 19.9219 15.4004 19.9219 9.96094C19.9219 4.51172 15.4004 0 9.95117 0C4.51172 0 0 4.51172 0 9.96094C0 15.4004 4.52148 19.9219 9.96094 19.9219ZM9.96094 18.2617C5.35156 18.2617 1.66992 14.5703 1.66992 9.96094C1.66992 5.35156 5.3418 1.66016 9.95117 1.66016C14.5605 1.66016 18.2617 5.35156 18.2617 9.96094C18.2617 14.5703 14.5703 18.2617 9.96094 18.2617Z" fill="#ffffff" fill-opacity="0.85"/>
  <path d="M7.89062 16.3574C8.34961 16.3574 8.64258 16.1035 8.63281 15.6543L8.52539 9.46289C8.52539 9.26758 8.60352 9.12109 8.7793 9.04297C9.50195 8.73047 9.83398 8.39844 9.77539 7.42188L9.61914 4.04297C9.60938 3.79883 9.47266 3.65234 9.24805 3.65234C9.0332 3.65234 8.89648 3.80859 8.89648 4.05273L8.94531 7.35352C8.94531 7.53906 8.80859 7.66602 8.63281 7.66602C8.4375 7.66602 8.30078 7.53906 8.30078 7.36328L8.26172 3.96484C8.26172 3.7207 8.10547 3.58398 7.89062 3.58398C7.66602 3.58398 7.51953 3.7207 7.51953 3.96484L7.46094 7.36328C7.46094 7.53906 7.33398 7.66602 7.14844 7.66602C6.97266 7.66602 6.83594 7.53906 6.83594 7.35352L6.88477 4.05273C6.88477 3.80859 6.74805 3.65234 6.5332 3.65234C6.30859 3.65234 6.16211 3.79883 6.15234 4.04297L6.00586 7.42188C5.9668 8.39844 6.2793 8.73047 7.01172 9.04297C7.17773 9.12109 7.25586 9.26758 7.25586 9.46289L7.14844 15.6543C7.13867 16.1035 7.43164 16.3574 7.89062 16.3574ZM11.7188 11.6699L11.5918 15.625C11.5723 16.1035 11.875 16.3574 12.3242 16.3574C12.8027 16.3574 13.0859 16.123 13.0859 15.6836L13.0859 3.99414C13.0859 3.71094 12.8809 3.58398 12.6953 3.58398C12.4805 3.58398 12.3438 3.70117 12.168 3.95508C11.2793 5.19531 10.6934 7.5293 10.6934 9.72656L10.6934 10.0977C10.6934 10.4883 10.8398 10.752 11.1133 10.9473L11.4355 11.1719C11.6309 11.3086 11.7188 11.4551 11.7188 11.6699Z" fill="#ffffff" fill-opacity="0.85"/>
 </g>
</svg>
