<svg version="1.1" xmlns="http://www.w3.org/2000/svg" xmlns:xlink="http://www.w3.org/1999/xlink" width="18.6035" height="15.9082" viewBox="0 0 18.6035 15.9082">
 <g>
  <rect height="15.9082" opacity="0" width="18.6035" x="0" y="0"/>
  <path d="M14.7168 15.9082L16.9434 15.9082C17.8027 15.9082 18.2422 15.459 18.2422 14.5996L18.2422 1.29883C18.2422 0.410156 17.8027 0 16.9434 0L14.7168 0C13.8672 0 13.418 0.449219 13.418 1.29883L13.418 14.5996C13.418 15.459 13.8672 15.9082 14.7168 15.9082ZM1.40625 15.6152C1.80664 15.6152 2.12891 15.4883 2.5293 15.2539L12.4805 9.4043C13.1738 8.99414 13.4668 8.50586 13.4668 7.94922C13.4668 7.38281 13.1738 6.9043 12.4805 6.49414L2.5293 0.634766C2.12891 0.400391 1.80664 0.273438 1.40625 0.273438C0.634766 0.273438 0 0.859375 0 1.95312L0 13.9453C0 15.0391 0.634766 15.6152 1.40625 15.6152Z" fill="currentColor"/>
 </g>
</svg>
