<svg version="1.1" xmlns="http://www.w3.org/2000/svg" xmlns:xlink="http://www.w3.org/1999/xlink" width="18.3398" height="17.998" viewBox="0 0 18.3398 17.998">
 <g>
  <rect height="17.998" opacity="0" width="18.3398" x="0" y="0"/>
  <path d="M3.06641 17.998L14.9121 17.998C16.9629 17.998 17.9785 16.9824 17.9785 14.9707L17.9785 3.04688C17.9785 1.03516 16.9629 0.0195312 14.9121 0.0195312L3.06641 0.0195312C1.02539 0.0195312 0 1.02539 0 3.04688L0 14.9707C0 16.9922 1.02539 17.998 3.06641 17.998ZM3.08594 16.4258C2.10938 16.4258 1.57227 15.9082 1.57227 14.8926L1.57227 3.125C1.57227 2.10938 2.10938 1.5918 3.08594 1.5918L14.8926 1.5918C15.8594 1.5918 16.4062 2.10938 16.4062 3.125L16.4062 14.8926C16.4062 15.9082 15.8594 16.4258 14.8926 16.4258Z" fill="var(--color-secondary)"/>
  <path d="M7.28516 13.8867C7.65625 13.8867 7.91016 13.623 7.91016 13.252L7.91016 12.2266L9.92188 12.2266C10.2051 12.2266 10.4004 12.0117 10.4004 11.7383C10.4004 11.4648 10.2051 11.2598 9.92188 11.2598L7.91016 11.2598L7.91016 9.66797L11.1719 9.66797C11.5234 9.66797 11.7773 9.43359 11.7773 9.08203C11.7773 8.73047 11.5234 8.50586 11.1719 8.50586L7.91016 8.50586L7.91016 5.74219L11.5332 5.74219C11.875 5.74219 12.1387 5.50781 12.1387 5.15625C12.1387 4.79492 11.875 4.56055 11.5332 4.56055L7.27539 4.56055C6.88477 4.56055 6.64062 4.81445 6.64062 5.21484L6.64062 11.2598L5.85938 11.2598C5.57617 11.2598 5.39062 11.4648 5.39062 11.7383C5.39062 12.0117 5.57617 12.2266 5.85938 12.2266L6.64062 12.2266L6.64062 13.2617C6.64062 13.6426 6.91406 13.8867 7.28516 13.8867Z" fill="var(--color-primary)"/>
 </g>
</svg>
