<?xml version="1.0" encoding="UTF-8"?>
<!--Generator: Apple Native CoreSVG 232.5-->
<!DOCTYPE svg
PUBLIC "-//W3C//DTD SVG 1.1//EN"
       "http://www.w3.org/Graphics/SVG/1.1/DTD/svg11.dtd">
<svg version="1.1" xmlns="http://www.w3.org/2000/svg" xmlns:xlink="http://www.w3.org/1999/xlink" width="20.2832" height="19.9316">
 <g>
  <rect height="19.9316" opacity="0" width="20.2832" x="0" y="0"/>
  <path d="M9.96094 19.9219C15.4102 19.9219 19.9219 15.4004 19.9219 9.96094C19.9219 4.51172 15.4004 0 9.95117 0C4.51172 0 0 4.51172 0 9.96094C0 15.4004 4.52148 19.9219 9.96094 19.9219Z" fill="#ffffff" fill-opacity="0.25"/>
  <path d="M8.19336 15.0098C7.8125 15.0098 7.5293 14.7559 7.5293 14.3652L7.5293 13.3008L6.71875 13.3008C6.42578 13.3008 6.24023 13.0762 6.24023 12.793C6.24023 12.5098 6.42578 12.2949 6.71875 12.2949L7.5293 12.2949L7.5293 6.06445C7.5293 5.6543 7.7832 5.39062 8.18359 5.39062L12.5781 5.39062C12.9297 5.39062 13.1934 5.625 13.1934 6.00586C13.1934 6.36719 12.9297 6.61133 12.5781 6.61133L8.84766 6.61133L8.84766 9.45312L12.207 9.45312C12.5586 9.45312 12.832 9.6875 12.832 10.0586C12.832 10.4199 12.5586 10.6641 12.207 10.6641L8.84766 10.6641L8.84766 12.2949L10.918 12.2949C11.2109 12.2949 11.416 12.5098 11.416 12.793C11.416 13.0762 11.2109 13.3008 10.918 13.3008L8.84766 13.3008L8.84766 14.3555C8.84766 14.7363 8.58398 15.0098 8.19336 15.0098Z" fill="#ffffff" fill-opacity="0.85"/>
 </g>
</svg>
