<?xml version="1.0" encoding="UTF-8"?>
<!--Generator: Apple Native CoreSVG 232.5-->
<!DOCTYPE svg
PUBLIC "-//W3C//DTD SVG 1.1//EN"
       "http://www.w3.org/Graphics/SVG/1.1/DTD/svg11.dtd">
<svg version="1.1" xmlns="http://www.w3.org/2000/svg" xmlns:xlink="http://www.w3.org/1999/xlink" width="20.2832" height="19.9316">
 <g>
  <rect height="19.9316" opacity="0" width="20.2832" x="0" y="0"/>
  <path d="M9.96094 19.9316C15.4102 19.9316 19.9219 15.4199 19.9219 9.9707C19.9219 4.53125 15.4004 0.00976562 9.95117 0.00976562C4.51172 0.00976562 0 4.53125 0 9.9707C0 15.4199 4.52148 19.9316 9.96094 19.9316Z" fill="#ffffff" fill-opacity="0.25"/>
  <path d="M9.96094 15.625C9.84375 15.625 9.70703 15.6152 9.59961 15.6152L9.29688 16.1426C9.21875 16.3281 9.0332 16.4258 8.82812 16.3867C8.63281 16.3574 8.48633 16.2109 8.44727 15.9961L8.37891 15.3906C8.13477 15.332 7.91016 15.2344 7.67578 15.1465L7.23633 15.5371C7.08984 15.6934 6.875 15.7129 6.69922 15.6152C6.52344 15.5078 6.44531 15.332 6.47461 15.1172L6.60156 14.5215C6.38672 14.3652 6.19141 14.1992 6.04492 14.0625L5.48828 14.2871C5.29297 14.375 5.09766 14.3262 4.95117 14.1406C4.83398 14.0137 4.80469 13.7988 4.91211 13.623L5.23438 13.1055C5.10742 12.8809 4.99023 12.6855 4.88281 12.4609L4.26758 12.5C4.07227 12.5 3.89648 12.3828 3.82812 12.1973C3.75977 12.002 3.81836 11.8066 3.97461 11.6797L4.46289 11.2988C4.39453 11.0449 4.36523 10.8008 4.32617 10.5664L3.75977 10.3906C3.55469 10.3125 3.4375 10.166 3.4375 9.96094C3.4375 9.75586 3.55469 9.59961 3.75977 9.52148L4.32617 9.3457C4.36523 9.11133 4.39453 8.88672 4.46289 8.62305L3.97461 8.24219C3.81836 8.0957 3.75977 7.91016 3.83789 7.73438C3.89648 7.5293 4.08203 7.42188 4.27734 7.43164L4.88281 7.45117C4.99023 7.25586 5.10742 7.03125 5.24414 6.81641L4.91211 6.28906C4.80469 6.12305 4.83398 5.9082 4.96094 5.77148C5.09766 5.60547 5.2832 5.55664 5.47852 5.63477L6.04492 5.85938C6.20117 5.70312 6.40625 5.54688 6.60156 5.40039L6.47461 4.80469C6.44531 4.58008 6.5332 4.4043 6.69922 4.30664C6.875 4.19922 7.08984 4.23828 7.23633 4.38477L7.67578 4.76562C7.91016 4.6875 8.125 4.58984 8.37891 4.52148L8.44727 3.90625C8.48633 3.7207 8.63281 3.56445 8.81836 3.53516C9.02344 3.49609 9.21875 3.58398 9.29688 3.76953L9.59961 4.31641C9.70703 4.30664 9.84375 4.29688 9.96094 4.29688C10.0977 4.29688 10.2051 4.30664 10.332 4.31641L10.6152 3.76953C10.7031 3.60352 10.8984 3.49609 11.1035 3.53516C11.2891 3.56445 11.4355 3.7207 11.4648 3.90625L11.5527 4.52148C11.7969 4.58984 12.0215 4.67773 12.2461 4.76562L12.6855 4.38477C12.832 4.22852 13.0469 4.19922 13.2324 4.30664C13.3984 4.4043 13.4668 4.58008 13.4375 4.80469L13.3008 5.40039C13.5156 5.54688 13.7109 5.70312 13.8672 5.85938L14.4434 5.63477C14.6387 5.55664 14.8145 5.61523 14.9609 5.77148C15.0879 5.91797 15.1074 6.13281 15 6.29883L14.6777 6.81641C14.7949 7.00195 14.9121 7.20703 15.0391 7.45117L15.6445 7.43164C15.8398 7.42188 16.0254 7.5293 16.0938 7.73438C16.1621 7.91992 16.1035 8.10547 15.9375 8.24219L15.459 8.62305C15.5078 8.85742 15.5664 9.0918 15.5957 9.3457L16.1621 9.53125C16.3672 9.59961 16.4844 9.75586 16.4844 9.96094C16.4844 10.166 16.377 10.3125 16.1621 10.3906L15.5957 10.5664C15.5664 10.8301 15.5078 11.0742 15.459 11.2988L15.9375 11.6797C16.0938 11.7969 16.1621 11.9922 16.0938 12.1973C16.0254 12.3828 15.8496 12.5 15.6543 12.5L15.0391 12.4609C14.9316 12.6855 14.8145 12.8906 14.6777 13.1055L15 13.623C15.1074 13.7891 15.0977 14.0039 14.9707 14.1406C14.8145 14.3262 14.6387 14.375 14.4336 14.2871L13.8672 14.0625C13.7207 14.1992 13.5352 14.3652 13.3008 14.5215L13.4375 15.1172C13.4668 15.3418 13.3984 15.5176 13.2324 15.6152C13.0273 15.7129 12.832 15.6934 12.6855 15.5371L12.2461 15.1465C12.0215 15.2344 11.7871 15.3223 11.5527 15.3906L11.4648 16.0059C11.4355 16.2109 11.2891 16.3574 11.1035 16.3867C10.8887 16.4258 10.7031 16.3281 10.6152 16.1426L10.332 15.6152C10.2051 15.6152 10.0879 15.625 9.96094 15.625ZM5.47852 9.9707C5.47852 11.4453 6.14258 12.7344 7.19727 13.5547L8.75977 11.0156C8.47656 10.7031 8.33984 10.3516 8.33984 9.98047C8.33984 9.59961 8.47656 9.24805 8.75977 8.93555L7.23633 6.32812C6.16211 7.1582 5.47852 8.4668 5.47852 9.9707ZM9.96094 5.41992C9.29688 5.41992 8.67188 5.55664 8.10547 5.81055L9.61914 8.39844C9.75586 8.36914 9.86328 8.35938 9.94141 8.35938C10.6348 8.35938 11.1914 8.75977 11.4844 9.46289L14.4141 9.46289C14.1797 7.1582 12.3145 5.41992 9.96094 5.41992ZM9.96094 14.502C12.3145 14.502 14.1797 12.7637 14.4141 10.4688L11.4844 10.4688C11.1914 11.1914 10.6348 11.6016 9.94141 11.6016C9.87305 11.6016 9.75586 11.5918 9.61914 11.5625L8.06641 14.1016C8.64258 14.3555 9.27734 14.502 9.96094 14.502ZM9.38477 9.9707C9.38477 10.2832 9.64844 10.5469 9.95117 10.5469C10.2832 10.5469 10.5469 10.2832 10.5469 9.9707C10.5469 9.66797 10.2832 9.43359 9.95117 9.43359C9.64844 9.43359 9.38477 9.67773 9.38477 9.9707Z" fill="#ffffff" fill-opacity="0.85"/>
 </g>
</svg>
