<?xml version="1.0" encoding="UTF-8"?>
<!--Generator: Apple Native CoreSVG 232.5-->
<!DOCTYPE svg
PUBLIC "-//W3C//DTD SVG 1.1//EN"
       "http://www.w3.org/Graphics/SVG/1.1/DTD/svg11.dtd">
<svg version="1.1" xmlns="http://www.w3.org/2000/svg" xmlns:xlink="http://www.w3.org/1999/xlink" width="20.2832" height="23.7188">
 <g>
  <rect height="23.7188" opacity="0" width="20.2832" x="0" y="0"/>
  <path d="M0 11.8545C0 17.3037 4.52148 21.8155 9.96094 21.8155C15.4102 21.8155 19.9219 17.3037 19.9219 11.8545C19.9219 7.04983 16.416 2.97756 11.8457 2.07912L11.8457 0.692405C11.8457-0.000954238 11.3672-0.186501 10.8398 0.194358L7.72461 2.37209C7.27539 2.68459 7.26562 3.15334 7.72461 3.47561L10.8301 5.66311C11.3672 6.05373 11.8457 5.86819 11.8457 5.16506L11.8457 3.77834C15.5371 4.61819 18.252 7.89944 18.252 11.8545C18.252 16.4639 14.5703 20.1553 9.96094 20.1553C5.35156 20.1553 1.65039 16.4639 1.66016 11.8545C1.66992 9.08108 3.01758 6.62991 5.09766 5.14553C5.49805 4.8428 5.625 4.38381 5.38086 3.97366C5.13672 3.57326 4.59961 3.46584 4.16992 3.79787C1.66016 5.62405 0 8.57326 0 11.8545Z" fill="#ffffff" fill-opacity="0.55"/>
  <path d="M6.88477 15.9268C8.32031 15.9268 9.46289 15.0967 9.46289 13.71C9.46289 12.5869 8.7207 12.001 7.82227 11.9131L7.82227 11.8936C8.69141 11.6983 9.20898 11.0049 9.20898 10.1553C9.20898 8.88576 8.16406 8.17287 6.85547 8.17287C5.76172 8.17287 4.82422 8.78811 4.60938 9.66701C4.58008 9.77444 4.56055 9.90139 4.56055 10.0186C4.56055 10.3213 4.72656 10.5752 5.12695 10.5752C5.45898 10.5752 5.63477 10.4385 5.74219 10.126C5.92773 9.54006 6.29883 9.24709 6.86523 9.24709C7.51953 9.24709 7.91992 9.66701 7.91992 10.3213C7.91992 11.0342 7.43164 11.4541 6.70898 11.4541L6.42578 11.4541C6.09375 11.4541 5.89844 11.6494 5.89844 11.9522C5.89844 12.2744 6.10352 12.4502 6.42578 12.4502L6.72852 12.4502C7.51953 12.4502 8.0957 12.792 8.0957 13.6514C8.0957 14.3447 7.60742 14.8233 6.89453 14.8233C6.21094 14.8233 5.81055 14.4717 5.63477 13.9346C5.50781 13.6709 5.29297 13.5049 5.0293 13.5049C4.6582 13.5049 4.42383 13.7295 4.42383 14.0908C4.42383 14.208 4.44336 14.3252 4.47266 14.4424C4.7168 15.4287 5.84961 15.9268 6.88477 15.9268ZM13.1445 15.9268C15.0586 15.9268 15.7422 13.9639 15.7422 12.0303C15.7422 10.1065 15.0586 8.14358 13.1445 8.14358C11.2109 8.14358 10.5371 10.1162 10.5371 12.0303C10.5371 13.9737 11.2207 15.9268 13.1445 15.9268ZM13.1445 14.8233C12.3242 14.8233 11.9141 13.6221 11.9141 12.0303C11.9141 10.4483 12.3242 9.25686 13.1445 9.25686C13.9551 9.25686 14.3652 10.4483 14.3652 12.0303C14.3652 13.6221 13.9551 14.8233 13.1445 14.8233Z" fill="#ffffff" fill-opacity="0.85"/>
 </g>
</svg>
