<?xml version="1.0" encoding="UTF-8"?>
<!--Generator: Apple Native CoreSVG 232.5-->
<!DOCTYPE svg
PUBLIC "-//W3C//DTD SVG 1.1//EN"
       "http://www.w3.org/Graphics/SVG/1.1/DTD/svg11.dtd">
<svg version="1.1" xmlns="http://www.w3.org/2000/svg" xmlns:xlink="http://www.w3.org/1999/xlink" width="20.2832" height="23.7125">
 <g>
  <rect height="23.7125" opacity="0" width="20.2832" x="0" y="0"/>
  <path d="M0 11.8514C0 17.3006 4.52148 21.8123 9.96094 21.8123C15.4102 21.8123 19.9219 17.3006 19.9219 11.8514C19.9219 8.57011 18.2617 5.62089 15.752 3.79472C15.3223 3.46269 14.7852 3.57011 14.541 3.9705C14.2969 4.38065 14.4238 4.83964 14.8242 5.14237C16.9043 6.62675 18.252 9.07792 18.2617 11.8514C18.2715 16.4607 14.5703 20.1521 9.96094 20.1521C5.35156 20.1521 1.66992 16.4607 1.66992 11.8514C1.66992 7.89628 4.38477 4.61503 8.07617 3.77519L8.07617 5.17167C8.07617 5.86503 8.55469 6.05058 9.0918 5.66972L12.207 3.48222C12.6465 3.17948 12.6562 2.71073 12.207 2.38847L9.10156 0.200966C8.55469-0.189659 8.07617-0.00411175 8.07617 0.699013L8.07617 2.07597C3.50586 2.9744 0 7.04667 0 11.8514Z" fill="#ffffff" fill-opacity="0.85"/>
  <path d="M5.43945 11.8514C5.43945 12.3299 5.77148 12.6521 6.26953 12.6521L9.14062 12.6521L9.14062 15.533C9.14062 16.0213 9.47266 16.3631 9.95117 16.3631C10.4395 16.3631 10.7812 16.031 10.7812 15.533L10.7812 12.6521L13.6621 12.6521C14.1504 12.6521 14.4922 12.3299 14.4922 11.8514C14.4922 11.3631 14.1504 11.0213 13.6621 11.0213L10.7812 11.0213L10.7812 8.15019C10.7812 7.65214 10.4395 7.31034 9.95117 7.31034C9.47266 7.31034 9.14062 7.65214 9.14062 8.15019L9.14062 11.0213L6.26953 11.0213C5.77148 11.0213 5.43945 11.3631 5.43945 11.8514Z" fill="#ffffff" fill-opacity="0.85"/>
 </g>
</svg>
