<svg version="1.1" xmlns="http://www.w3.org/2000/svg" xmlns:xlink="http://www.w3.org/1999/xlink" width="20.2832" height="23.7125" viewBox="0 0 20.2832 23.7125">
 <g>
  <rect height="23.7125" opacity="0" width="20.2832" x="0" y="0"/>
  <path d="M0 11.8514C0 17.3006 4.52148 21.8123 9.96094 21.8123C15.4102 21.8123 19.9219 17.3006 19.9219 11.8514C19.9219 8.57011 18.2617 5.62089 15.752 3.79472C15.3223 3.46269 14.7852 3.57011 14.541 3.9705C14.2969 4.38065 14.4238 4.83964 14.8242 5.14237C16.9043 6.62675 18.252 9.07792 18.2617 11.8514C18.2715 16.4607 14.5703 20.1521 9.96094 20.1521C5.35156 20.1521 1.66992 16.4607 1.66992 11.8514C1.66992 7.89628 4.38477 4.61503 8.07617 3.77519L8.07617 5.17167C8.07617 5.86503 8.55469 6.05058 9.0918 5.66972L12.207 3.48222C12.6465 3.17948 12.6562 2.71073 12.207 2.38847L9.10156 0.200966C8.55469-0.189659 8.07617-0.00411175 8.07617 0.699013L8.07617 2.07597C3.50586 2.9744 0 7.04667 0 11.8514Z" fill="var(--color-secondary)"/>
  <path d="M6.83594 15.9236C8.27148 15.9236 9.41406 15.0935 9.41406 13.7068C9.41406 12.5838 8.67188 11.9978 7.77344 11.91L7.77344 11.8904C8.64258 11.6951 9.16016 11.0017 9.16016 10.1521C9.16016 8.88261 8.11523 8.16972 6.80664 8.16972C5.71289 8.16972 4.77539 8.78495 4.56055 9.66386C4.53125 9.77128 4.51172 9.89823 4.51172 10.0154C4.51172 10.3182 4.67773 10.5721 5.07812 10.5721C5.41016 10.5721 5.58594 10.4353 5.69336 10.1228C5.87891 9.5369 6.25977 9.24394 6.81641 9.24394C7.4707 9.24394 7.87109 9.66386 7.87109 10.3182C7.87109 11.031 7.38281 11.451 6.66016 11.451L6.37695 11.451C6.04492 11.451 5.84961 11.6463 5.84961 11.949C5.84961 12.2713 6.05469 12.4471 6.37695 12.4471L6.67969 12.4471C7.4707 12.4471 8.04688 12.7889 8.04688 13.6482C8.04688 14.3416 7.55859 14.8201 6.8457 14.8201C6.16211 14.8201 5.76172 14.4685 5.58594 13.9314C5.45898 13.6678 5.24414 13.5017 4.98047 13.5017C4.60938 13.5017 4.375 13.7264 4.375 14.0877C4.375 14.2049 4.39453 14.3221 4.42383 14.4392C4.66797 15.4256 5.80078 15.9236 6.83594 15.9236ZM13.0957 15.9236C15.0098 15.9236 15.6934 13.9607 15.6934 12.0271C15.6934 10.1033 15.0098 8.14042 13.0957 8.14042C11.1621 8.14042 10.4883 10.1131 10.4883 12.0271C10.4883 13.9705 11.1719 15.9236 13.0957 15.9236ZM13.0957 14.8201C12.2754 14.8201 11.8652 13.6189 11.8652 12.0271C11.8652 10.4451 12.2754 9.2537 13.0957 9.2537C13.9062 9.2537 14.3164 10.4451 14.3164 12.0271C14.3164 13.6189 13.9062 14.8201 13.0957 14.8201Z" fill="var(--color-primary)"/>
 </g>
</svg>
