<svg version="1.1" xmlns="http://www.w3.org/2000/svg" xmlns:xlink="http://www.w3.org/1999/xlink" width="20.2832" height="19.9316" viewBox="0 0 20.2832 19.9316">
 <g>
  <rect height="19.9316" opacity="0" width="20.2832" x="0" y="0"/>
  <path d="M9.96094 19.9219C15.4102 19.9219 19.9219 15.4004 19.9219 9.96094C19.9219 4.51172 15.4004 0 9.95117 0C4.51172 0 0 4.51172 0 9.96094C0 15.4004 4.52148 19.9219 9.96094 19.9219Z" fill="var(--color-tertiary)"/>
  <path d="M10.1074 15.9863C9.82422 15.9863 9.60938 15.7812 9.60938 15.4785L9.60938 14.7949C7.45117 14.541 6.08398 12.7441 6.08398 9.9707C6.08398 7.25586 7.4707 5.44922 9.60938 5.18555L9.60938 4.51172C9.60938 4.20898 9.81445 4.01367 10.1074 4.01367C10.3906 4.01367 10.6055 4.20898 10.6055 4.51172L10.6055 5.16602C12.0312 5.3125 13.1641 6.16211 13.6035 7.36328C13.6523 7.5293 13.6914 7.68555 13.6914 7.86133C13.6914 8.22266 13.4473 8.47656 13.0762 8.47656C12.7148 8.47656 12.5488 8.33984 12.4121 7.93945C12.1973 7.14844 11.4941 6.55273 10.6055 6.40625L10.6055 9.6875L13.1641 9.6875C13.5742 9.6875 13.8379 9.94141 13.8379 10.3711L13.8379 10.8789C13.8379 13.1641 12.6953 14.6387 10.6055 14.8047L10.6055 15.4785C10.6055 15.7812 10.3906 15.9863 10.1074 15.9863ZM9.60938 13.5449L9.60938 6.42578C8.27148 6.70898 7.44141 8.03711 7.44141 9.9707C7.44141 11.9336 8.27148 13.2617 9.60938 13.5449ZM10.6055 13.584C11.8164 13.3984 12.5293 12.4609 12.5293 11.1035L12.5293 10.8789L10.6055 10.8789Z" fill="var(--color-primary)"/>
 </g>
</svg>
