<svg version="1.1" xmlns="http://www.w3.org/2000/svg" xmlns:xlink="http://www.w3.org/1999/xlink" width="26.5083" height="21.9238" viewBox="0 0 26.5083 21.9238">
 <g>
  <rect height="21.9238" opacity="0" width="26.5083" x="0" y="0"/>
  <path d="M22.3459 0.966797L22.4924 3.37891C22.512 3.54492 22.4436 3.65234 22.2483 3.7793C22.0139 3.93555 21.9553 4.05273 21.9553 4.46289L21.9553 10.2539C23.5959 10.4492 24.5334 11.2891 24.5334 12.6074C24.5334 13.418 24.2502 14.0039 24.2502 14.668C24.2502 15.5371 25.5588 16.0352 25.5588 18.0273C25.5588 20.0195 23.8694 21.2695 21.2229 21.2695C19.6627 21.2695 18.435 20.8351 17.6942 20.0675C18.2167 19.3562 18.5081 18.467 18.5081 17.4512C18.5081 16.4701 18.279 15.7531 18.0201 15.2277C18.1273 15.0456 18.1956 14.8665 18.1956 14.668C18.1956 14.0039 17.9123 13.418 17.9123 12.6074C17.9123 11.2891 18.8498 10.4492 20.4807 10.2539L20.4807 4.46289C20.4807 4.05273 20.4319 3.93555 20.1975 3.7793C20.0022 3.65234 19.9338 3.54492 19.9534 3.37891L20.0998 0.966797C20.1096 0.771484 20.2463 0.634766 20.4221 0.634766L22.0237 0.634766C22.1995 0.634766 22.3362 0.771484 22.3459 0.966797ZM19.9338 17.3242C19.6995 17.3242 19.4846 17.5391 19.4846 17.7832C19.4846 18.0273 19.6897 18.2227 19.9338 18.2227L22.4924 18.2227C22.7366 18.2227 22.9416 18.0273 22.9416 17.7832C22.9416 17.5293 22.7366 17.3242 22.4924 17.3242ZM20.1291 14.3848C20.1291 14.9805 20.6077 15.4688 21.2229 15.4688C21.8284 15.4688 22.3069 14.9805 22.3069 14.3848C22.3069 13.7793 21.8284 13.291 21.2229 13.291C20.6174 13.291 20.1291 13.7793 20.1291 14.3848Z" fill="currentColor"/>
  <path d="M13.9573 0.78125L14.7873 1.51367C14.9338 1.64062 15.0022 1.80664 14.9924 1.98242L14.7971 3.97461C14.7678 4.24805 14.7092 4.36523 14.4944 4.43359C14.3186 4.49219 14.3088 4.53125 14.3088 4.82422L14.2991 10.8203C14.2991 11.1621 14.3284 11.6211 14.5725 11.6211C14.7092 11.6211 14.8557 11.416 15.0608 11.1426C15.3049 10.791 15.6565 10.4297 16.2522 10.4297C16.9065 10.4297 17.3655 10.9277 17.3655 11.6309C17.3655 12.6074 16.7014 13.2227 16.7014 13.9844C16.7014 14.6289 17.9123 15.5176 17.9123 17.4512C17.9123 19.7852 16.1838 21.3281 13.5666 21.3281C12.7718 21.3281 12.0589 21.1858 11.4532 20.9204C11.6531 20.4322 11.6322 19.8375 11.4084 19.3262L9.70045 15.4735C10.0385 14.7984 10.4319 14.3517 10.4319 13.9844C10.4319 13.2227 9.76782 12.6074 9.76782 11.6309C9.76782 10.9277 10.2268 10.4297 10.8811 10.4297C11.4768 10.4297 11.8284 10.791 12.0823 11.1426C12.2776 11.416 12.4241 11.6211 12.5608 11.6211C12.8049 11.6211 12.8342 11.1621 12.8342 10.8203L12.8245 4.82422C12.8245 4.53125 12.8147 4.49219 12.6389 4.43359C12.4241 4.36523 12.3655 4.24805 12.3362 3.97461L12.1409 1.98242C12.1311 1.80664 12.1995 1.64062 12.3459 1.51367L13.176 0.78125C13.303 0.673828 13.4495 0.634766 13.5666 0.634766C13.6936 0.634766 13.8303 0.673828 13.9573 0.78125ZM12.0139 14.4629L11.1741 16.7676C11.1057 16.9727 11.2131 17.2168 11.4182 17.2852C11.6331 17.3633 11.8674 17.2559 11.9456 17.041L12.7854 14.7461C12.8635 14.5312 12.7463 14.2871 12.5413 14.2188C12.3264 14.1406 12.092 14.248 12.0139 14.4629ZM14.6018 14.2188C14.3967 14.2871 14.2698 14.5312 14.3479 14.7461L15.1877 17.041C15.2659 17.2559 15.5002 17.3633 15.7151 17.2852C15.9202 17.2168 16.0373 16.9727 15.969 16.7676L15.1291 14.4629C15.051 14.248 14.8166 14.1406 14.6018 14.2188Z" fill="currentColor"/>
  <path d="M0.734614 19.5605C0.383051 20.3613 0.666255 21.2988 1.71118 21.2988C2.09204 21.2988 2.4143 21.1328 2.87329 20.752L5.54907 18.5156C5.65649 18.4277 5.73461 18.3887 5.79321 18.3887C5.86157 18.3887 5.92993 18.4277 6.03735 18.5156L8.71313 20.752C9.18188 21.1328 9.49438 21.2988 9.885 21.2988C10.9202 21.2988 11.2131 20.3613 10.8518 19.5605L6.5354 9.80469L6.5354 5.27344C6.5354 3.04688 6.90649 1.38672 6.90649 1.07422C6.90649 0.800781 6.74047 0.634766 6.48657 0.634766C6.31079 0.634766 6.1643 0.742188 5.92993 0.996094L3.77172 3.4668C3.59594 3.67188 3.64477 3.91602 3.86938 4.0332C4.72875 4.4043 5.05102 4.55078 5.05102 5.27344L5.05102 9.79492ZM7.18969 15.7422C6.92602 15.7422 6.71118 15.5176 6.71118 15.2734C6.71118 15 6.93579 14.7656 7.18969 14.7656C7.46313 14.7656 7.67797 14.9902 7.67797 15.2734C7.67797 15.5273 7.46313 15.7422 7.18969 15.7422ZM7.52172 16.5234C7.25805 16.5234 7.02368 16.2988 7.02368 16.0352C7.02368 15.7715 7.25805 15.5371 7.52172 15.5371C7.7854 15.5371 8.01977 15.7617 8.01977 16.0352C8.01977 16.2988 7.7854 16.5234 7.52172 16.5234ZM7.83422 17.2852C7.57055 17.2852 7.36547 17.0703 7.36547 16.8066C7.36547 16.543 7.58032 16.3086 7.83422 16.3086C8.11743 16.3086 8.33227 16.543 8.33227 16.8066C8.33227 17.0605 8.0979 17.2852 7.83422 17.2852Z" fill="currentColor"/>
 </g>
</svg>
