<svg version="1.1" xmlns="http://www.w3.org/2000/svg" xmlns:xlink="http://www.w3.org/1999/xlink" width="20.2832" height="19.9316" viewBox="0 0 20.2832 19.9316">
 <g>
  <rect height="19.9316" opacity="0" width="20.2832" x="0" y="0"/>
  <path d="M19.9219 9.96094C19.9219 15.4004 15.4102 19.9219 9.96094 19.9219C4.52148 19.9219 0 15.4004 0 9.96094C0 4.51172 4.51172 0 9.95117 0C15.4004 0 19.9219 4.51172 19.9219 9.96094ZM12.3047 6.06445L12.3047 9.0918L7.59766 9.0918L7.59766 6.06445C7.59766 5.48828 7.30469 5.15625 6.77734 5.15625C6.2793 5.15625 5.98633 5.49805 5.98633 6.06445L5.98633 13.6719C5.98633 14.2383 6.2793 14.5801 6.77734 14.5801C7.30469 14.5801 7.59766 14.248 7.59766 13.6719L7.59766 10.3613L12.3047 10.3613L12.3047 13.6719C12.3047 14.2383 12.6074 14.5801 13.1055 14.5801C13.6328 14.5801 13.9258 14.248 13.9258 13.6719L13.9258 6.06445C13.9258 5.48828 13.6328 5.15625 13.1055 5.15625C12.6074 5.15625 12.3047 5.49805 12.3047 6.06445Z" fill="var(--color-primary)"/>
 </g>
</svg>
