<svg version="1.1" xmlns="http://www.w3.org/2000/svg" xmlns:xlink="http://www.w3.org/1999/xlink" width="22.168" height="16.8087" viewBox="0 0 22.168 16.8087">
 <g>
  <rect height="16.8087" opacity="0" width="22.168" x="0" y="0"/>
  <path d="M0 9.503C0 13.8389 2.91016 16.7491 7.70508 16.7491L9.94141 16.7491C12.3047 16.7491 13.6914 15.626 13.7109 13.7217C14.4727 13.4874 14.9219 12.8624 14.9219 12.0128C14.9219 11.7003 14.8633 11.3975 14.7754 11.1143C15.5957 10.8507 16.1035 10.1671 16.1035 9.27839C16.1035 9.04401 16.0742 8.79987 15.9961 8.55573L19.4043 8.55573C20.7129 8.55573 21.5625 7.69636 21.5625 6.47565C21.5625 5.25495 20.7129 4.39557 19.4043 4.39557L10.8594 4.39557C10.8105 4.39557 10.7715 4.37604 10.7715 4.31745C10.7715 4.27839 10.791 4.23932 10.8398 4.22956L12.4805 3.54596C13.2812 3.20417 13.7012 2.60846 13.7012 1.87604C13.7012 0.879949 13.0664 0.00104279 11.9434 0.00104279C11.6309-0.00872284 11.2207 0.0498709 10.8691 0.18659L5.79102 1.99323C1.94336 3.36042 0 5.87995 0 9.503ZM1.40625 9.56159C1.40625 6.6905 2.73438 4.49323 6.23047 3.24323L11.2988 1.42682C11.4453 1.36823 11.582 1.3487 11.7578 1.3487C12.1191 1.3487 12.4219 1.61237 12.4219 2.02253C12.4219 2.37409 12.2168 2.5694 11.8652 2.72565L8.74023 4.11237C8.23242 4.34675 8.06641 4.66901 8.06641 5.03034C8.06641 5.46003 8.4082 5.76276 8.86719 5.76276L19.502 5.76276C19.9414 5.76276 20.2441 6.05573 20.2441 6.47565C20.2441 6.90534 19.9414 7.18854 19.502 7.18854L11.9141 7.18854C11.5625 7.18854 11.2793 7.49128 11.2793 7.85261C11.2793 8.1944 11.5625 8.49714 11.9141 8.49714L14.6484 8.49714C14.7266 8.66315 14.7852 8.90729 14.7852 9.10261C14.7852 9.61042 14.4434 9.93268 13.9062 9.93268L11.5332 9.93268C11.1523 9.93268 10.8887 10.2354 10.8887 10.5772C10.8887 10.919 11.1523 11.2217 11.5332 11.2217L13.4668 11.2217C13.5449 11.3975 13.5938 11.6417 13.5938 11.837C13.5938 12.3546 13.2617 12.6573 12.7344 12.6573L11.1328 12.6573C10.7617 12.6573 10.498 12.9796 10.498 13.3214C10.498 13.6632 10.7617 13.9561 11.1328 13.9561L12.3047 13.9561C12.3047 14.8741 11.3672 15.3917 9.73633 15.3917L7.87109 15.3917C3.74023 15.3917 1.40625 13.1846 1.40625 9.56159Z" fill="currentColor"/>
 </g>
</svg>
