<svg version="1.1" xmlns="http://www.w3.org/2000/svg" xmlns:xlink="http://www.w3.org/1999/xlink" width="18.3691" height="18.0176" viewBox="0 0 18.3691 18.0176">
 <g>
  <rect height="18.0176" opacity="0" width="18.3691" x="0" y="0"/>
  <path d="M16.8652 1.15234C17.8613 2.14844 18.0078 3.53516 18.0078 5.20508L18.0078 12.793C18.0078 14.4629 17.8613 15.8594 16.8652 16.8555C15.8691 17.8516 14.4629 18.0078 12.793 18.0078L5.20508 18.0078C3.54492 18.0078 2.13867 17.8516 1.14258 16.8555C0.146484 15.8594 0 14.4629 0 12.793L0 5.18555C0 3.54492 0.146484 2.14844 1.14258 1.15234C2.13867 0.15625 3.54492 0 5.18555 0L12.793 0C14.4629 0 15.8691 0.15625 16.8652 1.15234ZM8.44727 3.13477L8.44727 8.13477C8.27148 8.1543 8.10547 8.17383 7.93945 8.20312L7.93945 3.63281C7.93945 3.28125 7.63672 2.99805 7.28516 2.99805C6.93359 2.99805 6.64062 3.28125 6.64062 3.63281L6.64062 8.62305C6.45508 8.70117 6.30859 8.79883 6.16211 8.88672L6.16211 5.46875C6.16211 5.11719 5.85938 4.81445 5.51758 4.81445C5.14648 4.81445 4.85352 5.11719 4.85352 5.46875L4.85352 10.9082C4.85352 13.457 6.51367 15.0293 8.88672 15.0293C10.6641 15.0293 11.8848 14.3164 12.6953 12.6562C13.1445 11.7871 13.4863 10.752 13.8477 9.55078C14.0039 9.05273 14.2285 8.4375 14.2285 8.16406C14.2285 7.8418 13.9844 7.61719 13.6426 7.61719C13.252 7.61719 13.0371 7.85156 12.7637 8.4082L11.9434 10.127C11.875 10.3125 11.7871 10.3711 11.6992 10.3711C11.5723 10.3711 11.5039 10.293 11.5039 10.1172L11.5039 3.98438C11.5039 3.63281 11.2109 3.33984 10.8691 3.33984C10.5078 3.33984 10.2246 3.63281 10.2246 3.98438L10.2246 8.33984C10.0684 8.30078 9.90234 8.24219 9.73633 8.19336L9.73633 3.13477C9.73633 2.79297 9.45312 2.49023 9.0918 2.49023C8.73047 2.49023 8.44727 2.79297 8.44727 3.13477Z" fill="var(--color-primary)"/>
 </g>
</svg>
