<svg version="1.1" xmlns="http://www.w3.org/2000/svg" xmlns:xlink="http://www.w3.org/1999/xlink" width="23.5205" height="23.1226" viewBox="0 0 23.5205 23.1226">
 <g>
  <rect height="23.1226" opacity="0" width="23.5205" x="0" y="0"/>
  <path d="M6.6333 11.3152L6.6333 11.4978C6.66945 11.4737 6.70615 11.4498 6.74476 11.4265L15.6126 20.2844C14.4938 21.1994 13.0702 21.6541 11.2329 21.6541C7.35596 21.6541 4.53369 19.1052 4.53369 14.7986L4.53369 9.21793ZM12.6196 1.82984L12.6196 10.3259C12.9321 10.3845 13.2251 10.4627 13.4888 10.5603L13.4888 3.23609C13.4888 2.65992 13.9575 2.19117 14.5337 2.19117C15.1099 2.19117 15.5786 2.65992 15.5786 3.23609L15.5786 13.4802C15.5786 13.822 15.7153 13.9392 15.9204 13.9392C16.0767 13.9392 16.2329 13.822 16.3696 13.5095L17.7271 10.658C18.1763 9.73023 18.5474 9.33961 19.1626 9.33961C19.7192 9.33961 20.1001 9.69117 20.1001 10.2185C20.1001 10.6873 19.7388 11.7322 19.4849 12.5525C18.9518 14.2957 18.448 15.8335 17.8333 17.1525L10.52 9.84332L10.52 1.82984C10.52 1.25367 10.9985 0.775152 11.5747 0.775152C12.1509 0.775152 12.6196 1.25367 12.6196 1.82984ZM9.60205 2.65992L9.60205 8.92586L7.51221 6.8372L7.51221 2.65992C7.51221 2.08375 7.98096 1.615 8.55713 1.615C9.1333 1.615 9.60205 2.08375 9.60205 2.65992ZM6.6333 5.69703L6.6333 5.95879L5.35339 4.67959C5.42888 4.6613 5.50767 4.65211 5.58838 4.65211C6.16455 4.65211 6.6333 5.12086 6.6333 5.69703Z" fill="var(--color-secondary)"/>
  <path d="M18.7036 21.7712C18.9966 22.0544 19.4849 22.0642 19.7681 21.7712C20.061 21.4685 20.0708 20.9998 19.7681 20.7068L2.42432 3.36304C2.13135 3.07007 1.65283 3.07007 1.3501 3.36304C1.06689 3.65601 1.06689 4.14429 1.3501 4.4275Z" fill="var(--color-primary)"/>
 </g>
</svg>
