<?xml version="1.0" encoding="UTF-8"?>
<!--Generator: Apple Native CoreSVG 232.5-->
<!DOCTYPE svg
PUBLIC "-//W3C//DTD SVG 1.1//EN"
       "http://www.w3.org/Graphics/SVG/1.1/DTD/svg11.dtd">
<svg version="1.1" xmlns="http://www.w3.org/2000/svg" xmlns:xlink="http://www.w3.org/1999/xlink" width="20.2832" height="19.9316">
 <g>
  <rect height="19.9316" opacity="0" width="20.2832" x="0" y="0"/>
  <path d="M19.9219 9.9707C19.9219 15.4199 15.4102 19.9316 9.96094 19.9316C4.52148 19.9316 0 15.4199 0 9.9707C0 4.53125 4.51172 0.00976562 9.95117 0.00976562C15.4004 0.00976562 19.9219 4.53125 19.9219 9.9707ZM10.9473 10.9766L10.9473 11.3086C10.9473 11.6699 10.7422 11.875 10.3809 11.875L9.46289 11.875C9.10156 11.875 8.89648 11.6699 8.89648 11.3086L8.89648 10.9766C7.49023 10.7324 6.18164 9.95117 5.3418 8.41797C5.24414 8.58398 5.17578 8.7793 5.14648 9.01367L4.7168 12.7637C4.57031 14.082 5.14648 14.7949 6.37695 14.7949L13.4668 14.7949C14.6973 14.7949 15.2734 14.082 15.127 12.7637L14.6973 9.01367C14.668 8.7793 14.5996 8.58398 14.502 8.41797C13.6523 9.95117 12.3535 10.7324 10.9473 10.9766ZM6.73828 7.09961L6.73828 7.62695L6.66016 7.62695C6.36719 7.62695 6.10352 7.68555 5.89844 7.80273C6.74805 9.53125 8.24219 10.1953 9.92188 10.1953C11.6016 10.1953 13.0957 9.53125 13.9355 7.80273C13.7402 7.68555 13.4863 7.62695 13.1836 7.62695L13.1055 7.62695L13.1055 7.09961C13.1055 5.35156 11.7188 4.02344 9.92188 4.02344C8.125 4.02344 6.73828 5.35156 6.73828 7.09961ZM12.2461 7.09961L12.2461 7.62695L7.59766 7.62695L7.59766 7.09961C7.59766 5.83008 8.60352 4.87305 9.92188 4.87305C11.2402 4.87305 12.2461 5.83008 12.2461 7.09961Z" fill="#ffffff" fill-opacity="0.85"/>
 </g>
</svg>
