<svg version="1.1" xmlns="http://www.w3.org/2000/svg" xmlns:xlink="http://www.w3.org/1999/xlink" width="24.8633" height="21.416" viewBox="0 0 24.8633 21.416">
 <g>
  <rect height="21.416" opacity="0" width="24.8633" x="0" y="0"/>
  <path d="M0 17.666C0 18.7207 0.722656 19.6777 2.03125 19.6777L22.4805 19.6777C23.7891 19.6777 24.502 18.7207 24.502 17.666C24.502 16.8848 24.0918 16.0547 23.252 15.5859L12.2559 9.41406L1.25 15.5859C0.410156 16.0547 0 16.8848 0 17.666ZM1.58203 17.5781C1.58203 17.3242 1.70898 17.0996 2.04102 16.9141L12.2559 11.2012L22.4707 16.9141C22.8027 17.0996 22.9297 17.3242 22.9297 17.5781C22.9297 17.8809 22.7344 18.125 22.3145 18.125L2.1875 18.125C1.77734 18.125 1.58203 17.8809 1.58203 17.5781ZM11.4941 10.1465L13.0078 10.1465L13.0078 9.11133C13.0078 8.23242 13.4375 7.89062 14.1992 7.27539C14.9902 6.63086 16.25 5.73242 16.25 3.75977C16.25 1.50391 14.668 0 12.3047 0C9.96094 0 8.39844 1.65039 8.39844 4.12109C8.39844 4.58984 8.7207 4.91211 9.14062 4.91211C9.55078 4.91211 9.87305 4.58984 9.87305 4.21875C9.87305 2.57812 10.8496 1.48438 12.3047 1.48438C13.7891 1.48438 14.7852 2.39258 14.7852 3.75977C14.7852 4.98047 14.1309 5.52734 13.4668 6.06445C12.5977 6.76758 11.4941 7.38281 11.4941 9.11133Z" fill="var(--color-primary)"/>
 </g>
</svg>
