<?xml version="1.0" encoding="UTF-8"?>
<!--Generator: Apple Native CoreSVG 232.5-->
<!DOCTYPE svg
PUBLIC "-//W3C//DTD SVG 1.1//EN"
       "http://www.w3.org/Graphics/SVG/1.1/DTD/svg11.dtd">
<svg version="1.1" xmlns="http://www.w3.org/2000/svg" xmlns:xlink="http://www.w3.org/1999/xlink" width="20.2832" height="19.9316">
 <g>
  <rect height="19.9316" opacity="0" width="20.2832" x="0" y="0"/>
  <path d="M19.9219 9.96094C19.9219 15.4004 15.4102 19.9219 9.96094 19.9219C4.52148 19.9219 0 15.4004 0 9.96094C0 4.51172 4.51172 0 9.95117 0C15.4004 0 19.9219 4.51172 19.9219 9.96094ZM5.25391 13.6133C5.25391 14.248 5.88867 14.6582 6.89453 14.6582C7.80273 14.6582 8.34961 14.4824 8.80859 14.1699L7.35352 12.959C7.27539 12.959 7.20703 12.9785 7.09961 12.9785C6.875 12.9785 6.52344 12.9102 6.10352 12.9102C5.57617 12.9102 5.25391 13.1836 5.25391 13.6133ZM9.15039 5.45898C9.15039 5.83984 9.91211 6.36719 10.5078 6.72852L13.2129 8.37891C12.998 8.58398 12.8125 8.69141 12.5781 8.69141C12.207 8.69141 11.8262 8.47656 11.2598 8.14453C9.81445 7.31445 8.69141 6.50391 7.1875 6.50391C5.625 6.50391 4.42383 7.41211 3.78906 9.16992C3.28125 9.17969 2.90039 9.50195 2.90039 9.99023C2.90039 10.5273 3.33984 10.8691 3.92578 10.8789C4.61914 11.8457 5.75195 12.2168 7.08008 12.2168C7.14844 12.2168 7.22656 12.207 7.28516 12.207L9.19922 13.7891C9.6875 14.209 9.93164 14.2773 10.293 14.2773C10.625 14.2773 10.918 14.1211 11.543 14.1211C12.1582 14.1211 12.3242 14.2773 12.793 14.2773C13.4863 14.2773 13.8477 14.0137 13.8477 13.5156C13.8477 12.6758 12.9492 12.1387 11.5332 12.1387C10.8398 12.1387 10.5176 12.1973 10.1172 12.2949L9.61914 11.1426C9.13086 10.0098 8.32031 9.29688 7.17773 9.29688L6.62109 9.29688C6.43555 9.29688 6.31836 9.22852 6.31836 9.04297C6.31836 8.75 6.70898 8.68164 7.12891 8.68164C8.50586 8.68164 9.52148 9.43359 10.1562 10.957L10.4785 11.7383C10.791 11.6797 11.1426 11.6504 11.4941 11.6504C11.7676 11.6504 12.0117 11.6699 12.2754 11.6992C12.5684 11.4941 12.8906 11.2695 13.3691 11.0645C13.8965 11.4258 14.4922 11.6602 15.1367 11.6602C16.4258 11.6602 17.0117 11.3672 17.0117 10.1367C17.0117 8.66211 15.9375 7.54883 14.5117 7.56836L13.2324 5.86914C12.5391 4.96094 11.6895 4.50195 10.8594 4.50195C10.166 4.50195 9.15039 4.89258 9.15039 5.45898ZM15.4004 9.50195C15.4004 9.7168 15.2246 9.92188 15.0195 9.92188C14.8047 9.92188 14.6387 9.72656 14.6387 9.54102C14.6387 9.31641 14.8145 9.13086 15.0293 9.13086C15.2344 9.13086 15.4004 9.30664 15.4004 9.50195Z" fill="#ffffff" fill-opacity="0.85"/>
 </g>
</svg>
