<svg version="1.1" xmlns="http://www.w3.org/2000/svg" xmlns:xlink="http://www.w3.org/1999/xlink" width="20.2832" height="19.9316" viewBox="0 0 20.2832 19.9316">
 <g>
  <rect height="19.9316" opacity="0" width="20.2832" x="0" y="0"/>
  <path d="M19.9219 9.9707C19.9219 15.4199 15.4102 19.9316 9.96094 19.9316C4.52148 19.9316 0 15.4199 0 9.9707C0 4.53125 4.51172 0.00976562 9.95117 0.00976562C15.4004 0.00976562 19.9219 4.53125 19.9219 9.9707ZM4.52148 9.96094C4.52148 11.8555 4.9707 13.3008 5.74219 14.6387C5.92773 14.9609 6.2793 15.0879 6.62109 14.9609C6.89453 15.2539 7.30469 15.3613 7.75391 15.2148C8.42773 15.0391 8.74023 14.4629 8.54492 13.7988L7.82227 11.2988C7.62695 10.625 7.05078 10.3027 6.37695 10.498C6.20117 10.5566 6.04492 10.6348 5.91797 10.7324C5.88867 10.4883 5.88867 10.2344 5.88867 9.96094C5.88867 7.26562 7.51953 5.47852 9.9707 5.47852C12.4316 5.47852 14.0723 7.27539 14.0723 9.96094C14.0723 10.2344 14.0625 10.498 14.043 10.752C13.916 10.6445 13.75 10.5566 13.5547 10.498C12.9004 10.3027 12.3242 10.625 12.1289 11.2988L11.3965 13.8086C11.2109 14.4727 11.5137 15.0391 12.1875 15.2148C12.6465 15.3516 13.0469 15.2539 13.3203 14.9609C13.6621 15.0879 14.0137 14.9609 14.209 14.6387C14.9902 13.2617 15.4395 11.8262 15.4395 9.96094C15.4395 6.47461 13.2422 4.11133 9.9707 4.11133C6.70898 4.11133 4.52148 6.46484 4.52148 9.96094Z" fill="var(--color-primary)"/>
 </g>
</svg>
