<?xml version="1.0" encoding="UTF-8"?>
<!--Generator: Apple Native CoreSVG 232.5-->
<!DOCTYPE svg
PUBLIC "-//W3C//DTD SVG 1.1//EN"
       "http://www.w3.org/Graphics/SVG/1.1/DTD/svg11.dtd">
<svg version="1.1" xmlns="http://www.w3.org/2000/svg" xmlns:xlink="http://www.w3.org/1999/xlink" width="22.0215" height="20.8496">
 <g>
  <rect height="20.8496" opacity="0" width="22.0215" x="0" y="0"/>
  <path d="M6.66016 16.4062C6.66016 19.1113 8.33984 20.8301 10.9766 20.8301C12.9297 20.8301 14.3945 19.9609 15.3223 18.3008L16.2012 16.7285C18.2617 12.9688 21.6602 12.4707 21.6602 7.63672C21.6602 3.05664 18.7012 0 14.2676 0C9.72656 0 6.66016 3.07617 6.66016 7.66602ZM9.52148 13.7109C9.52148 11.8262 11.5918 12.0508 11.5918 10.9766C11.5918 9.99023 9.52148 9.27734 9.52148 7.09961C9.52148 4.60938 11.4258 2.83203 14.2578 2.83203C17.0996 2.83203 18.9941 4.72656 18.9941 7.56836C18.9941 7.98828 18.6523 8.33008 18.2324 8.33008C17.8223 8.33008 17.4609 7.98828 17.4609 7.56836C17.4609 5.625 16.2109 4.36523 14.2578 4.36523C12.334 4.36523 11.0547 5.51758 11.0547 7.09961C11.0547 9.14062 14.0527 9.61914 14.0527 12.5293C14.0527 14.1406 13.0176 15.4395 11.4941 15.4492C10.3125 15.4492 9.52148 14.7559 9.52148 13.7109Z" fill="#ffffff" fill-opacity="0.85"/>
  <path d="M1.64062 4.42383C2.53906 4.42383 3.27148 3.69141 3.27148 2.79297C3.27148 1.88477 2.53906 1.15234 1.64062 1.15234C0.732422 1.15234 0 1.88477 0 2.79297C0 3.69141 0.732422 4.42383 1.64062 4.42383Z" fill="#ffffff" fill-opacity="0.85"/>
  <path d="M1.64062 9.50195C2.53906 9.50195 3.27148 8.76953 3.27148 7.87109C3.27148 6.96289 2.53906 6.23047 1.64062 6.23047C0.732422 6.23047 0 6.96289 0 7.87109C0 8.76953 0.732422 9.50195 1.64062 9.50195Z" fill="#ffffff" fill-opacity="0.85"/>
  <path d="M1.64062 14.5996C2.53906 14.5996 3.27148 13.8672 3.27148 12.9688C3.27148 12.0605 2.53906 11.3281 1.64062 11.3281C0.732422 11.3281 0 12.0605 0 12.9688C0 13.8672 0.732422 14.5996 1.64062 14.5996Z" fill="#ffffff" fill-opacity="0.85"/>
  <path d="M1.64062 19.6777C2.53906 19.6777 3.27148 18.9453 3.27148 18.0469C3.27148 17.1387 2.53906 16.4062 1.64062 16.4062C0.732422 16.4062 0 17.1387 0 18.0469C0 18.9453 0.732422 19.6777 1.64062 19.6777Z" fill="#ffffff" fill-opacity="0.85"/>
 </g>
</svg>
