<?xml version="1.0" encoding="UTF-8"?>
<!--Generator: Apple Native CoreSVG 232.5-->
<!DOCTYPE svg
PUBLIC "-//W3C//DTD SVG 1.1//EN"
       "http://www.w3.org/Graphics/SVG/1.1/DTD/svg11.dtd">
<svg version="1.1" xmlns="http://www.w3.org/2000/svg" xmlns:xlink="http://www.w3.org/1999/xlink" width="23.3887" height="17.9785">
 <g>
  <rect height="17.9785" opacity="0" width="23.3887" x="0" y="0"/>
  <path d="M3.06641 17.9785L19.9609 17.9785C22.0117 17.9785 23.0273 16.9727 23.0273 14.9609L23.0273 3.02734C23.0273 1.01562 22.0117 0 19.9609 0L3.06641 0C1.02539 0 0 1.01562 0 3.02734L0 14.9609C0 16.9727 1.02539 17.9785 3.06641 17.9785ZM3.08594 16.4062C2.10938 16.4062 1.57227 15.8887 1.57227 14.873L1.57227 3.11523C1.57227 2.09961 2.10938 1.57227 3.08594 1.57227L19.9414 1.57227C20.9082 1.57227 21.4551 2.09961 21.4551 3.11523L21.4551 14.873C21.4551 15.8887 20.9082 16.4062 19.9414 16.4062Z" fill="#ffffff" fill-opacity="0.55"/>
  <path d="M9.18945 4.67773C7.5293 4.67773 6.33789 5.92773 6.33789 7.65625C6.33789 10.2246 9.04297 12.5879 11.0449 13.8574C11.2109 13.9551 11.4258 14.0918 11.5527 14.0918C11.6699 14.0918 11.8652 13.9648 12.0117 13.8574C14.0039 12.5586 16.7285 10.2246 16.7285 7.65625C16.7285 5.92773 15.5273 4.67773 13.877 4.67773C12.8418 4.67773 12.0117 5.27344 11.5332 6.16211C11.0449 5.27344 10.2344 4.67773 9.18945 4.67773Z" fill="#ffffff" fill-opacity="0.85"/>
 </g>
</svg>
