<svg version="1.1" xmlns="http://www.w3.org/2000/svg" xmlns:xlink="http://www.w3.org/1999/xlink" width="28.0371" height="24.3457" viewBox="0 0 28.0371 24.3457">
 <g>
  <rect height="24.3457" opacity="0" width="28.0371" x="0" y="0"/>
  <path d="M14.5508 2.99805L14.5508 5.86876C12.4896 6.2748 10.9411 7.10852 9.92188 8.35938C9.81395 8.4815 9.70959 8.60677 9.61663 8.74144C9.08256 8.44153 8.46692 8.27148 7.8125 8.27148C5.76172 8.27148 4.0918 9.94141 4.0918 12.002C4.0918 14.0175 5.68956 15.6499 7.67978 15.716C7.74582 16.4326 7.88798 17.1356 8.10191 17.8125L3.33008 17.8125C1.85547 17.8125 1.08398 17.0312 1.08398 15.5469L1.08398 2.99805C1.08398 1.51367 1.85547 0.732422 3.33008 0.732422L12.3047 0.732422C13.7793 0.732422 14.5508 1.51367 14.5508 2.99805ZM8.5035 10.5715C8.08048 11.4955 7.80663 12.5026 7.69822 13.5489C6.88312 13.4919 6.25 12.813 6.25 11.9824C6.25 11.1133 6.94336 10.4102 7.8125 10.4102C8.06087 10.4102 8.29569 10.4676 8.5035 10.5715ZM5.76172 4.90234C5.76172 6.02539 6.67969 6.95312 7.8125 6.95312C8.94531 6.95312 9.87305 6.02539 9.87305 4.90234C9.87305 3.76953 8.94531 2.85156 7.8125 2.85156C6.67969 2.85156 5.76172 3.76953 5.76172 4.90234ZM8.85742 4.90234C8.85742 5.46875 8.38867 5.94727 7.8125 5.94727C7.23633 5.94727 6.77734 5.46875 6.77734 4.90234C6.77734 4.32617 7.23633 3.86719 7.8125 3.86719C8.38867 3.86719 8.85742 4.32617 8.85742 4.90234Z" fill="var(--color-primary)"/>
  <path d="M9.61663 8.74144C9.16872 9.29521 8.79759 9.91192 8.5035 10.5715C8.29569 10.4676 8.06087 10.4102 7.8125 10.4102C6.94336 10.4102 6.25 11.1133 6.25 11.9824C6.25 12.813 6.88312 13.4919 7.69822 13.5489C7.64833 13.9262 7.62695 14.3103 7.62695 14.6973C7.62695 15.0391 7.64358 15.3793 7.67978 15.716C5.68956 15.6499 4.0918 14.0175 4.0918 12.002C4.0918 9.94141 5.76172 8.27148 7.8125 8.27148C8.46692 8.27148 9.08256 8.44153 9.61663 8.74144ZM9.87305 4.90234C9.87305 6.02539 8.94531 6.95312 7.8125 6.95312C6.67969 6.95312 5.76172 6.02539 5.76172 4.90234C5.76172 3.76953 6.67969 2.85156 7.8125 2.85156C8.94531 2.85156 9.87305 3.76953 9.87305 4.90234ZM6.77734 4.90234C6.77734 5.46875 7.23633 5.94727 7.8125 5.94727C8.38867 5.94727 8.85742 5.46875 8.85742 4.90234C8.85742 4.32617 8.38867 3.86719 7.8125 3.86719C7.23633 3.86719 6.77734 4.32617 6.77734 4.90234Z" fill="var(--color-secondary)"/>
  <path d="M17.832 22.9004C21.0645 22.9004 22.4316 22.4902 23.7109 21.2891C25.5176 19.6387 26.5918 17.2363 26.5918 14.6973C26.5918 12.6074 25.8691 10.6641 24.4824 9.07227C24.1602 8.66211 23.8184 8.64258 23.457 8.88672C22.1387 9.89258 20.7031 10.4102 17.832 10.4102C14.9609 10.4102 13.5156 9.89258 12.207 8.88672C11.8555 8.64258 11.5039 8.66211 11.1719 9.07227C9.79492 10.6641 9.07227 12.6074 9.07227 14.6973C9.07227 17.2363 10.1367 19.6387 11.9434 21.2891C13.2324 22.4902 14.6094 22.9004 17.832 22.9004Z" fill="#ffffff" fill-opacity="0.425"/>
  <path d="M17.832 9.17969C20.2734 9.17969 22.0117 8.69141 22.0117 8.04688C22.0117 7.39258 20.2734 6.91406 17.832 6.91406C15.3809 6.91406 13.6523 7.39258 13.6523 8.04688C13.6523 8.69141 15.3809 9.17969 17.832 9.17969Z" fill="var(--color-primary)"/>
 </g>
</svg>
