<svg version="1.1" xmlns="http://www.w3.org/2000/svg" xmlns:xlink="http://www.w3.org/1999/xlink" width="25.9766" height="25.3418" viewBox="0 0 25.9766 25.3418">
 <g>
  <rect height="25.3418" opacity="0" width="25.9766" x="0" y="0"/>
  <path d="M14.2802 2.79682C13.7172 2.87928 13.1927 2.99372 12.7053 3.14195C12.4846 2.86454 12.1267 2.71484 11.6406 2.71484L3.79883 2.71484C2.92969 2.71484 2.46094 3.19336 2.46094 4.02344L2.46094 15.5176C2.46094 16.3477 2.92969 16.8262 3.79883 16.8262L7.59766 16.8262L7.59766 17.7441C7.59766 17.9395 7.60212 18.1309 7.61985 18.3105L3.71094 18.3105C1.9043 18.3105 0.976562 17.373 0.976562 15.5469L0.976562 3.99414C0.976562 2.17773 1.9043 1.23047 3.71094 1.23047L11.7188 1.23047C13.0741 1.23047 13.9348 1.76357 14.2802 2.79682ZM7.74542 8.55622C7.6469 9.08789 7.59766 9.67378 7.59766 10.3125L7.59766 10.6406C6.80303 10.6988 6.18164 11.3579 6.18164 12.168C6.18164 12.9691 6.79476 13.628 7.59766 13.6856L7.59766 15.7656C5.65929 15.7073 4.11133 14.1206 4.11133 12.168C4.11133 10.166 5.72266 8.55469 7.71484 8.55469C7.72517 8.55469 7.73549 8.55473 7.74542 8.55622ZM9.51202 4.99496C9.33569 5.16678 9.17056 5.35172 9.01367 5.54688C8.89973 5.69247 8.79154 5.84495 8.69014 6.00542C8.7038 5.93939 8.71094 5.87094 8.71094 5.80078C8.71094 5.25391 8.26172 4.80469 7.70508 4.80469C7.1582 4.80469 6.69922 5.25391 6.69922 5.80078C6.69922 6.35742 7.1582 6.80664 7.70508 6.80664C7.97046 6.80664 8.21143 6.70453 8.3902 6.53657C8.19906 6.9086 8.04019 7.31786 7.92038 7.77074C7.84972 7.7792 7.77782 7.7832 7.70508 7.7832C6.62109 7.7832 5.72266 6.89453 5.72266 5.80078C5.72266 4.7168 6.62109 3.82812 7.70508 3.82812C8.50941 3.82812 9.20283 4.30871 9.51202 4.99496Z" fill="var(--color-primary)"/>
  <path d="M16.7871 24.0137C22.168 24.0137 24.6387 22.0996 24.6387 17.7441L24.6387 10.3125C24.6387 8.47656 24.1992 7.23633 23.5059 6.35742C23.2715 6.06445 22.9004 6.04492 22.6074 6.2793C21.6797 7.09961 19.2285 7.80273 16.7871 7.80273C14.3457 7.80273 11.8945 7.09961 10.9668 6.2793C10.6738 6.04492 10.293 6.06445 10.0586 6.35742C9.375 7.23633 8.92578 8.47656 8.92578 10.3125L8.92578 17.7441C8.92578 22.0996 11.4062 24.0137 16.7871 24.0137ZM16.7871 22.4414C12.2656 22.4414 10.498 20.9277 10.498 17.5879L10.498 10.4004C10.498 9.54102 10.6445 8.74023 11.0156 8.04688C12.1777 8.95508 14.3652 9.375 16.7871 9.375C19.209 9.375 21.3965 8.95508 22.5586 8.04688C22.9199 8.74023 23.0664 9.54102 23.0664 10.4004L23.0664 17.5879C23.0664 20.9277 21.2988 22.4414 16.7871 22.4414Z" fill="#ffffff" fill-opacity="0.425"/>
  <path d="M16.7871 6.46484C19.2871 6.46484 21.2988 5.91797 21.2988 5.21484C21.2988 4.49219 19.2871 3.95508 16.7871 3.95508C14.2773 3.95508 12.2656 4.49219 12.2656 5.21484C12.2656 5.91797 14.2773 6.46484 16.7871 6.46484Z" fill="var(--color-primary)"/>
 </g>
</svg>
