<svg version="1.1" xmlns="http://www.w3.org/2000/svg" xmlns:xlink="http://www.w3.org/1999/xlink" width="27.9199" height="24.3457" viewBox="0 0 27.9199 24.3457">
 <g>
  <rect height="24.3457" opacity="0" width="27.9199" x="0" y="0"/>
  <path d="M14.4434 3.49609L14.4434 5.86667C13.9135 5.96945 13.4188 6.10154 12.959 6.26228L12.959 3.52539C12.959 2.69531 12.5 2.2168 11.6309 2.2168L3.78906 2.2168C2.91992 2.2168 2.45117 2.69531 2.45117 3.52539L2.45117 15.0195C2.45117 15.8496 2.91992 16.3281 3.78906 16.3281L7.65067 16.3281C7.71608 16.8352 7.83121 17.3308 7.98472 17.8125L3.70117 17.8125C1.89453 17.8125 0.966797 16.875 0.966797 15.0488L0.966797 3.49609C0.966797 1.67969 1.89453 0.732422 3.70117 0.732422L11.709 0.732422C13.5156 0.732422 14.4434 1.67969 14.4434 3.49609ZM9.6114 8.6013C9.1649 9.13034 8.79067 9.72022 8.48987 10.3531C8.26134 10.2151 7.99273 10.1367 7.70508 10.1367C6.85547 10.1367 6.17188 10.8203 6.17188 11.6699C6.17188 12.484 6.80507 13.1513 7.62725 13.1895C7.54686 13.6827 7.50977 14.1875 7.50977 14.6973C7.50977 14.8878 7.51493 15.0778 7.53921 15.2651C5.62357 15.1825 4.10156 13.6061 4.10156 11.6699C4.10156 9.66797 5.71289 8.05664 7.70508 8.05664C8.40679 8.05664 9.06051 8.25461 9.6114 8.6013ZM9.67773 5.30273C9.67773 6.39648 8.7793 7.28516 7.69531 7.28516C6.61133 7.28516 5.71289 6.39648 5.71289 5.30273C5.71289 4.21875 6.61133 3.33008 7.69531 3.33008C8.78906 3.33008 9.67773 4.21875 9.67773 5.30273ZM6.68945 5.30273C6.68945 5.85938 7.14844 6.30859 7.69531 6.30859C8.25195 6.30859 8.70117 5.85938 8.70117 5.30273C8.70117 4.75586 8.25195 4.30664 7.69531 4.30664C7.14844 4.30664 6.68945 4.75586 6.68945 5.30273Z" fill="currentColor"/>
  <path d="M17.7148 23.0176C21.0059 23.0176 22.3828 22.5879 23.6719 21.377C25.5078 19.707 26.5918 17.2656 26.5918 14.6973C26.5918 12.6172 25.8789 10.6348 24.5996 9.18945C24.2188 8.70117 23.5645 8.60352 23.0078 8.93555C21.9238 9.73633 20.5762 10.293 17.7148 10.293C14.8633 10.293 13.5059 9.73633 12.4219 8.93555C11.8652 8.60352 11.2207 8.69141 10.8301 9.18945C9.55078 10.6348 8.83789 12.6074 8.83789 14.6973C8.83789 17.2656 9.91211 19.707 11.748 21.377C13.0469 22.5879 14.4336 23.0176 17.7148 23.0176ZM17.7148 21.3477C14.9414 21.3477 13.877 21.084 12.8906 20.1465C11.3672 18.7598 10.5176 16.7969 10.5176 14.6973C10.5176 12.9395 11.1328 11.2305 12.4121 9.87305L11.1719 10.2148C12.5 11.3379 14.6875 11.9629 17.7148 11.9629C20.752 11.9629 22.9395 11.3379 24.2676 10.2051L23.0078 9.87305C24.3066 11.2207 24.9219 12.9297 24.9219 14.6973C24.9219 16.7969 24.0527 18.7598 22.5391 20.1465C21.543 21.084 20.4883 21.3477 17.7148 21.3477Z" fill="#ffffff" fill-opacity="0.425"/>
  <path d="M17.7148 9.17969C20.1562 9.17969 21.8945 8.69141 21.8945 8.04688C21.8945 7.39258 20.1562 6.91406 17.7148 6.91406C15.2637 6.91406 13.5352 7.39258 13.5352 8.04688C13.5352 8.69141 15.2637 9.17969 17.7148 9.17969Z" fill="currentColor"/>
 </g>
</svg>
