<svg version="1.1" xmlns="http://www.w3.org/2000/svg" xmlns:xlink="http://www.w3.org/1999/xlink" width="26.0059" height="25.3809" viewBox="0 0 26.0059 25.3809">
 <g>
  <rect height="25.3809" opacity="0" width="26.0059" x="0" y="0"/>
  <path d="M14.3652 3.68164L14.3652 6.66016L12.8516 6.66016C11.1816 6.66016 9.69727 6.88477 8.56445 8.01758C8.17065 8.41138 7.88896 8.84649 7.69099 9.31717C7.68604 9.31642 7.68091 9.31641 7.67578 9.31641C5.64453 9.31641 4.00391 10.957 4.00391 12.9883C4.00391 14.8581 5.40754 16.402 7.22656 16.6203L7.22656 19.0918L3.36914 19.0918C1.78711 19.0918 0.966797 18.2617 0.966797 16.6699L0.966797 3.68164C0.966797 2.09961 1.78711 1.26953 3.36914 1.26953L11.9629 1.26953C13.5449 1.26953 14.3652 2.09961 14.3652 3.68164ZM7.22656 12.2852L7.22656 14.4803C6.57956 14.2977 6.11328 13.7078 6.11328 12.998C6.11328 12.2895 6.58875 11.6896 7.24579 11.5116C7.23171 11.7639 7.22656 12.0222 7.22656 12.2852ZM5.71289 5.72266C5.71289 6.80664 6.5918 7.67578 7.66602 7.67578C8.74023 7.67578 9.61914 6.80664 9.61914 5.72266C9.61914 4.64844 8.75 3.76953 7.66602 3.76953C6.5918 3.76953 5.71289 4.64844 5.71289 5.72266ZM8.64258 5.71289C8.64258 6.25977 8.22266 6.68945 7.66602 6.68945C7.11914 6.68945 6.68945 6.25977 6.68945 5.71289C6.68945 5.14648 7.11914 4.72656 7.66602 4.72656C8.21289 4.72656 8.64258 5.16602 8.64258 5.71289Z" fill="var(--color-primary)"/>
  <path d="M12.8711 24.0527L20.3809 24.0527C21.748 24.0527 22.9199 23.9258 23.7402 23.1055C24.5605 22.2656 24.6777 21.123 24.6777 19.7461L24.6777 12.3047C24.6777 10.9277 24.5605 9.77539 23.7402 8.95508C22.9102 8.13477 21.748 7.99805 20.3809 7.99805L12.8516 7.99805C11.4941 7.99805 10.332 8.13477 9.51172 8.95508C8.69141 9.78516 8.56445 10.9277 8.56445 12.2852L8.56445 19.7461C8.56445 21.123 8.69141 22.2754 9.51172 23.1055C10.332 23.9258 11.4941 24.0527 12.8711 24.0527ZM12.8906 14.209C12.8711 13.5938 13.3789 12.9883 14.043 12.9492C14.0918 13.5547 13.5742 14.2871 12.8906 14.209ZM15.1855 17.0898C15.0684 17.5195 14.7852 18.0176 14.4141 18.3887C14.3066 18.4863 14.1406 18.5645 13.9355 18.5645C13.75 18.5645 13.6328 18.4961 13.457 18.4375C13.3594 18.4082 13.2129 18.3301 13.0273 18.3301C12.6172 18.3301 12.4316 18.5742 12.0996 18.5742C11.8652 18.5742 11.6797 18.4375 11.4258 18.1543C10.9473 17.627 10.625 16.7871 10.625 16.0547C10.625 15.6055 10.7422 15.1953 11.0254 14.8438C11.2598 14.541 11.6211 14.3652 12.0605 14.3652C12.4609 14.3652 12.7051 14.6094 12.9199 14.6094C13.1738 14.6094 13.4668 14.3555 13.9844 14.3555C14.4336 14.3555 14.8145 14.5312 15.0586 14.8926C14.7266 15.0781 14.6094 15.3125 14.541 15.5078C14.4336 15.7812 14.4141 16.1133 14.541 16.4453C14.668 16.748 14.8633 16.9531 15.1855 17.0898ZM17.4609 13.3594L17.4609 14.3555L18.2617 14.3555L18.2617 15.0098L17.4609 15.0098L17.4609 17.3242C17.4609 17.7051 17.627 17.8613 17.9688 17.8613C18.0469 17.8613 18.2031 17.8613 18.252 17.832L18.252 18.5352C18.1738 18.5449 17.9688 18.5645 17.7832 18.5645C16.9238 18.5645 16.5918 18.2617 16.5918 17.4316L16.5918 15.0098L16.0156 15.0098L16.0156 14.3555L16.5918 14.3555L16.5918 13.3594ZM21.0938 18.5352L20.1855 18.5352L18.6523 14.3555L19.5605 14.3555L20.6445 17.7051L21.6602 14.3555L22.5977 14.3555Z" fill="var(--color-primary)"/>
 </g>
</svg>
