<svg version="1.1" xmlns="http://www.w3.org/2000/svg" xmlns:xlink="http://www.w3.org/1999/xlink" width="18.3789" height="19.0137" viewBox="0 0 18.3789 19.0137">
 <g>
  <rect height="19.0137" opacity="0" width="18.3789" x="0" y="0"/>
  <path d="M6.64062 18.9941L11.3672 18.9941C15.7812 18.9941 18.0176 16.6699 18.0176 12.7051C18.0176 9.59961 15.459 5.44922 12.2949 1.23047C11.6699 0.410156 11.2988 0 10.2441 0L7.77344 0C6.71875 0 6.34766 0.410156 5.72266 1.23047C2.55859 5.44922 0 9.59961 0 12.7051C0 16.6699 2.23633 18.9941 6.64062 18.9941ZM1.57227 12.7051C1.57227 10.1465 3.63281 6.66016 7.01172 2.03125C7.24609 1.71875 7.42188 1.57227 7.80273 1.57227L10.2148 1.57227C10.5957 1.57227 10.7617 1.71875 10.9961 2.03125C14.3848 6.66016 16.4453 10.1465 16.4453 12.7051C16.4453 15.6738 14.7754 17.4219 11.3672 17.4219L6.64062 17.4219C3.23242 17.4219 1.57227 15.6738 1.57227 12.7051ZM4.08203 4.74609L3.78906 6.31836L14.2285 6.31836L13.9355 4.74609ZM1.25 13.3398L7.05078 13.3398L7.05078 11.7676L1.25 11.7676ZM9.01367 15.0684C10.4297 15.0684 11.5332 13.9648 11.5332 12.5391C11.5332 11.1328 10.4297 10.0195 9.01367 10.0195C7.59766 10.0195 6.48438 11.1328 6.48438 12.5391C6.48438 13.9648 7.59766 15.0684 9.01367 15.0684ZM9.01367 13.6914C8.36914 13.6914 7.86133 13.1934 7.86133 12.5391C7.86133 11.9043 8.36914 11.3965 9.01367 11.3965C9.6582 11.3965 10.1562 11.9043 10.1562 12.5391C10.1562 13.1934 9.6582 13.6914 9.01367 13.6914ZM10.9668 13.3398L16.8164 13.3398L16.8164 11.7676L10.9668 11.7676Z" fill="currentColor"/>
 </g>
</svg>
