<svg version="1.1" xmlns="http://www.w3.org/2000/svg" xmlns:xlink="http://www.w3.org/1999/xlink" width="18.3398" height="17.998" viewBox="0 0 18.3398 17.998">
 <g>
  <rect height="17.998" opacity="0" width="18.3398" x="0" y="0"/>
  <path d="M17.9785 3.04688L17.9785 14.9707C17.9785 16.9824 16.9629 17.998 14.9121 17.998L3.06641 17.998C1.02539 17.998 0 16.9922 0 14.9707L0 3.04688C0 1.02539 1.02539 0.0195312 3.06641 0.0195312L14.9121 0.0195312C16.9629 0.0195312 17.9785 1.03516 17.9785 3.04688ZM6.92383 6.02539C6.78711 5.99609 6.64062 5.97656 6.52344 5.97656C5.47852 5.97656 4.59961 6.72852 4.45312 7.76367C3.51562 8.14453 2.82227 9.05273 2.82227 10.1562C2.82227 11.8164 3.93555 12.7051 5.40039 12.7051L13.0469 12.7051C14.248 12.7051 15.1855 11.748 15.1855 10.5762C15.1855 9.57031 14.5117 8.73047 13.6133 8.51562C13.623 8.4082 13.6328 8.31055 13.6328 8.22266C13.6328 6.18164 12.002 4.51172 9.91211 4.51172C8.68164 4.51172 7.59766 5.09766 6.92383 6.02539Z" fill="currentColor"/>
 </g>
</svg>
