<svg version="1.1" xmlns="http://www.w3.org/2000/svg" xmlns:xlink="http://www.w3.org/1999/xlink" width="20.2832" height="19.9316" viewBox="0 0 20.2832 19.9316">
 <g>
  <rect height="19.9316" opacity="0" width="20.2832" x="0" y="0"/>
  <path d="M9.96094 19.9219C15.4102 19.9219 19.9219 15.4004 19.9219 9.96094C19.9219 4.51172 15.4004 0 9.95117 0C4.51172 0 0 4.51172 0 9.96094C0 15.4004 4.52148 19.9219 9.96094 19.9219ZM9.96094 18.2617C5.35156 18.2617 1.66992 14.5703 1.66992 9.96094C1.66992 5.35156 5.3418 1.66016 9.95117 1.66016C14.5605 1.66016 18.2617 5.35156 18.2617 9.96094C18.2617 14.5703 14.5703 18.2617 9.96094 18.2617Z" fill="var(--color-primary)"/>
  <path d="M11.1426 14.8535C11.4648 14.8535 11.7285 14.6387 11.7285 14.2871C11.7285 14.082 11.6211 13.916 11.4746 13.7793L8.58398 11.084L8.84766 11.084C10.7715 11.084 11.7188 10.0098 11.9238 8.7793L12.832 8.7793C13.1152 8.7793 13.3105 8.56445 13.3105 8.30078C13.3105 8.01758 13.1152 7.8125 12.832 7.8125L11.9336 7.8125C11.8652 7.30469 11.6699 6.85547 11.3574 6.50391L12.7832 6.50391C13.0664 6.50391 13.2617 6.2793 13.2617 6.01562C13.2617 5.73242 13.0664 5.53711 12.7832 5.53711L10.7324 5.53711C10.4199 5.53711 10.1074 5.53711 9.79492 5.53711L7.16797 5.53711C6.8457 5.53711 6.5918 5.78125 6.5918 6.11328C6.5918 6.42578 6.8457 6.69922 7.16797 6.69922L8.92578 6.69922C9.79492 6.69922 10.4004 7.10938 10.5859 7.8125L7.1582 7.8125C6.88477 7.8125 6.67969 8.01758 6.67969 8.30078C6.67969 8.56445 6.88477 8.7793 7.1582 8.7793L10.6055 8.7793C10.4297 9.54102 9.78516 9.92188 8.79883 9.92188L7.37305 9.92188C6.97266 9.92188 6.67969 10.1758 6.67969 10.5859C6.67969 10.918 6.83594 11.0742 7.03125 11.2598L10.5664 14.5898C10.7812 14.7949 10.9375 14.8535 11.1426 14.8535Z" fill="var(--color-primary)"/>
 </g>
</svg>
