<?xml version="1.0" encoding="UTF-8"?>
<!--Generator: Apple Native CoreSVG 232.5-->
<!DOCTYPE svg
PUBLIC "-//W3C//DTD SVG 1.1//EN"
       "http://www.w3.org/Graphics/SVG/1.1/DTD/svg11.dtd">
<svg version="1.1" xmlns="http://www.w3.org/2000/svg" xmlns:xlink="http://www.w3.org/1999/xlink" width="20.2832" height="19.9316">
 <g>
  <rect height="19.9316" opacity="0" width="20.2832" x="0" y="0"/>
  <path d="M9.96094 19.9219C15.4102 19.9219 19.9219 15.4004 19.9219 9.96094C19.9219 4.51172 15.4004 0 9.95117 0C4.51172 0 0 4.51172 0 9.96094C0 15.4004 4.52148 19.9219 9.96094 19.9219Z" fill="#ffffff" fill-opacity="0.25"/>
  <path d="M3.18359 9.96094C3.18359 8.04688 4.39453 6.76758 6.19141 6.76758C7.1582 6.76758 7.96875 7.17773 8.83789 8.00781L9.9707 9.10156L11.1133 8.00781C12.002 7.14844 12.8027 6.76758 13.75 6.76758C15.5566 6.76758 16.7676 8.04688 16.7676 9.96094C16.7676 11.8652 15.5566 13.1445 13.75 13.1445C12.8125 13.1445 12.0117 12.7637 11.1133 11.9043L9.9707 10.8203L8.83789 11.9043C7.95898 12.7441 7.14844 13.1445 6.19141 13.1445C4.39453 13.1445 3.18359 11.8652 3.18359 9.96094ZM4.43359 9.96094C4.43359 11.1426 5.12695 11.9043 6.19141 11.9043C6.77734 11.9043 7.28516 11.6309 7.94922 11.0059L9.08203 9.96094L7.94922 8.91602C7.26562 8.27148 6.76758 8.00781 6.19141 8.00781C5.12695 8.00781 4.43359 8.7793 4.43359 9.96094ZM10.8691 9.96094L11.9922 11.0059C12.6562 11.6309 13.1641 11.9043 13.75 11.9043C14.8145 11.9043 15.5176 11.1426 15.5176 9.96094C15.5176 8.7793 14.8145 8.00781 13.75 8.00781C13.1836 8.00781 12.6758 8.27148 11.9922 8.91602Z" fill="#ffffff" fill-opacity="0.85"/>
 </g>
</svg>
