<svg version="1.1" xmlns="http://www.w3.org/2000/svg" xmlns:xlink="http://www.w3.org/1999/xlink" width="18.3398" height="17.998" viewBox="0 0 18.3398 17.998">
 <g>
  <rect height="17.998" opacity="0" width="18.3398" x="0" y="0"/>
  <path d="M17.9785 3.04688L17.9785 14.9707C17.9785 16.9824 16.9629 17.998 14.9121 17.998L3.06641 17.998C1.02539 17.998 0 16.9922 0 14.9707L0 3.04688C0 1.02539 1.02539 0.0195312 3.06641 0.0195312L14.9121 0.0195312C16.9629 0.0195312 17.9785 1.03516 17.9785 3.04688ZM7.40234 7.1875C6.99219 7.1875 6.66992 7.50977 6.66992 7.90039C6.66992 8.32031 6.99219 8.62305 7.40234 8.62305L8.47656 8.62305L8.47656 13.2129L7.23633 13.2129C6.81641 13.2129 6.49414 13.5352 6.49414 13.9258C6.49414 14.3457 6.81641 14.6484 7.23633 14.6484L11.3281 14.6484C11.748 14.6484 12.0703 14.3457 12.0703 13.9258C12.0703 13.5352 11.748 13.2129 11.3281 13.2129L10.0879 13.2129L10.0879 8.10547C10.0879 7.55859 9.81445 7.1875 9.29688 7.1875ZM7.58789 4.19922C7.58789 4.94141 8.17383 5.52734 8.90625 5.52734C9.63867 5.52734 10.2148 4.94141 10.2148 4.19922C10.2148 3.45703 9.63867 2.87109 8.90625 2.87109C8.17383 2.87109 7.58789 3.45703 7.58789 4.19922Z" fill="var(--color-primary)"/>
 </g>
</svg>
