<?xml version="1.0" encoding="UTF-8"?>
<!--Generator: Apple Native CoreSVG 232.5-->
<!DOCTYPE svg
PUBLIC "-//W3C//DTD SVG 1.1//EN"
       "http://www.w3.org/Graphics/SVG/1.1/DTD/svg11.dtd">
<svg version="1.1" xmlns="http://www.w3.org/2000/svg" xmlns:xlink="http://www.w3.org/1999/xlink" width="21.8848" height="21.4551">
 <g>
  <rect height="21.4551" opacity="0" width="21.8848" x="0" y="0"/>
  <path d="M6.00586 21.4551C6.48438 21.4551 6.81641 21.2012 7.41211 20.6738L10.7812 17.6758L17.0508 17.6758C19.9609 17.6758 21.5234 16.0645 21.5234 13.2031L21.5234 5.72266C21.5234 2.86133 19.9609 1.25 17.0508 1.25L4.47266 1.25C1.5625 1.25 0 2.85156 0 5.72266L0 13.2031C0 16.0742 1.5625 17.6758 4.47266 17.6758L4.94141 17.6758L4.94141 20.2148C4.94141 20.9668 5.32227 21.4551 6.00586 21.4551ZM6.40625 19.668L6.40625 16.8359C6.40625 16.3086 6.20117 16.1035 5.67383 16.1035L4.47266 16.1035C2.5 16.1035 1.57227 15.0977 1.57227 13.1934L1.57227 5.72266C1.57227 3.81836 2.5 2.82227 4.47266 2.82227L17.0508 2.82227C19.0137 2.82227 19.9512 3.81836 19.9512 5.72266L19.9512 13.1934C19.9512 15.0977 19.0137 16.1035 17.0508 16.1035L10.7227 16.1035C10.1758 16.1035 9.90234 16.1816 9.53125 16.5625Z" fill="#ffffff" fill-opacity="0.55"/>
  <path d="M9.18945 14.5312L12.8711 14.5312C13.2422 14.5312 13.5352 14.2676 13.5352 13.8965C13.5352 13.5352 13.2422 13.2617 12.8711 13.2617L11.748 13.2617L11.748 8.65234C11.748 8.16406 11.5039 7.8418 11.0449 7.8418L9.3457 7.8418C8.97461 7.8418 8.68164 8.125 8.68164 8.47656C8.68164 8.84766 8.97461 9.11133 9.3457 9.11133L10.3125 9.11133L10.3125 13.2617L9.18945 13.2617C8.81836 13.2617 8.53516 13.5352 8.53516 13.8965C8.53516 14.2676 8.81836 14.5312 9.18945 14.5312ZM10.6934 6.33789C11.3574 6.33789 11.875 5.81055 11.875 5.15625C11.875 4.49219 11.3574 3.97461 10.6934 3.97461C10.0391 3.97461 9.51172 4.49219 9.51172 5.15625C9.51172 5.81055 10.0391 6.33789 10.6934 6.33789Z" fill="#ffffff" fill-opacity="0.85"/>
 </g>
</svg>
