<svg version="1.1" xmlns="http://www.w3.org/2000/svg" xmlns:xlink="http://www.w3.org/1999/xlink" width="23.418" height="16.6895" viewBox="0 0 23.418 16.6895">
 <g>
  <rect height="16.6895" opacity="0" width="23.418" x="0" y="0"/>
  <path d="M8.74023 13.291C8.74023 13.5938 8.97461 13.8379 9.28711 13.8379C9.58008 13.8379 9.82422 13.5938 9.82422 13.291L9.82422 11.2695C9.82422 10.9766 9.58008 10.7324 9.28711 10.7324C8.97461 10.7324 8.74023 10.9766 8.74023 11.2695ZM10.9766 13.291C10.9766 13.5938 11.2207 13.8379 11.5332 13.8379C11.8262 13.8379 12.0703 13.5938 12.0703 13.291L12.0703 11.2695C12.0703 10.9766 11.8262 10.7324 11.5332 10.7324C11.2207 10.7324 10.9766 10.9766 10.9766 11.2695ZM13.2227 13.291C13.2227 13.5938 13.4668 13.8379 13.7695 13.8379C14.0723 13.8379 14.3164 13.5938 14.3164 13.291L14.3164 11.2695C14.3164 10.9766 14.0723 10.7324 13.7695 10.7324C13.4668 10.7324 13.2227 10.9766 13.2227 11.2695ZM15.4688 13.291C15.4688 13.5938 15.7031 13.8379 16.0156 13.8379C16.3184 13.8379 16.5527 13.5938 16.5527 13.291L16.5527 11.2695C16.5527 10.9766 16.3184 10.7324 16.0156 10.7324C15.7031 10.7324 15.4688 10.9766 15.4688 11.2695ZM17.7148 13.291C17.7148 13.5938 17.9492 13.8379 18.2617 13.8379C18.5547 13.8379 18.7988 13.5938 18.7988 13.291L18.7988 11.2695C18.7988 10.9766 18.5547 10.7324 18.2617 10.7324C17.9492 10.7324 17.7148 10.9766 17.7148 11.2695ZM0 12.2852C0 14.7656 1.92383 16.6895 4.63867 16.6895L18.418 16.6895C21.1328 16.6895 23.0566 14.7656 23.0566 12.2852C23.0566 11.5527 22.8418 10.8984 22.5879 10.2832L19.2969 2.38281C18.6523 0.820312 17.3242 0.0195312 15.5762 0.0195312L7.48047 0.0195312C5.73242 0.0195312 4.4043 0.820312 3.75977 2.38281L0.458984 10.2832C0.214844 10.8887 0 11.5527 0 12.2852ZM1.57227 12.2852C1.57227 10.6738 2.79297 9.45312 4.63867 9.45312L18.418 9.45312C20.2637 9.45312 21.4844 10.6738 21.4844 12.2852C21.4844 14.0918 20.2637 15.1172 18.418 15.1172L4.63867 15.1172C2.79297 15.1172 1.57227 13.8965 1.57227 12.2852ZM3.1543 8.13477L5.2832 2.7832C5.6543 1.85547 6.45508 1.38672 7.55859 1.38672L15.498 1.38672C16.6016 1.38672 17.4121 1.85547 17.7734 2.7832L19.9023 8.13477C19.4434 7.96875 18.9551 7.88086 18.418 7.88086L4.63867 7.88086C4.10156 7.88086 3.60352 7.96875 3.1543 8.13477Z" fill="var(--color-primary)"/>
 </g>
</svg>
