<?xml version="1.0" encoding="UTF-8"?>
<!--Generator: Apple Native CoreSVG 232.5-->
<!DOCTYPE svg
PUBLIC "-//W3C//DTD SVG 1.1//EN"
       "http://www.w3.org/Graphics/SVG/1.1/DTD/svg11.dtd">
<svg version="1.1" xmlns="http://www.w3.org/2000/svg" xmlns:xlink="http://www.w3.org/1999/xlink" width="16.6797" height="22.0215">
 <g>
  <rect height="22.0215" opacity="0" width="16.6797" x="0" y="0"/>
  <path d="M1.57227 18.6914L1.57227 3.32031L14.7461 3.32031L14.7461 18.6914ZM8.17383 21.0352C7.69531 21.0352 7.32422 20.6543 7.32422 20.1855C7.32422 19.7266 7.69531 19.3457 8.17383 19.3457C8.63281 19.3457 9.01367 19.7266 9.01367 20.1855C9.01367 20.6543 8.63281 21.0352 8.17383 21.0352ZM8.1543 2.32422C7.86133 2.32422 7.62695 2.08008 7.62695 1.78711C7.62695 1.50391 7.86133 1.25 8.1543 1.25C8.44727 1.25 8.69141 1.50391 8.69141 1.78711C8.69141 2.08008 8.44727 2.32422 8.1543 2.32422Z" fill="#ffffff" fill-opacity="0.25"/>
  <path d="M2.70508 22.002L13.6133 22.002C15.2344 22.002 16.3184 20.9668 16.3184 19.4238L16.3184 2.58789C16.3184 1.04492 15.2344 0 13.6133 0L2.70508 0C1.08398 0 0 1.04492 0 2.58789L0 19.4238C0 20.9668 1.08398 22.002 2.70508 22.002ZM1.57227 18.6914L1.57227 3.32031L14.7461 3.32031L14.7461 18.6914ZM8.17383 21.0352C7.69531 21.0352 7.32422 20.6543 7.32422 20.1855C7.32422 19.7266 7.69531 19.3457 8.17383 19.3457C8.63281 19.3457 9.01367 19.7266 9.01367 20.1855C9.01367 20.6543 8.63281 21.0352 8.17383 21.0352ZM8.1543 2.32422C7.86133 2.32422 7.62695 2.08008 7.62695 1.78711C7.62695 1.50391 7.86133 1.25 8.1543 1.25C8.44727 1.25 8.69141 1.50391 8.69141 1.78711C8.69141 2.08008 8.44727 2.32422 8.1543 2.32422Z" fill="#ffffff" fill-opacity="0.85"/>
 </g>
</svg>
