<?xml version="1.0" encoding="UTF-8"?>
<!--Generator: Apple Native CoreSVG 232.5-->
<!DOCTYPE svg
PUBLIC "-//W3C//DTD SVG 1.1//EN"
       "http://www.w3.org/Graphics/SVG/1.1/DTD/svg11.dtd">
<svg version="1.1" xmlns="http://www.w3.org/2000/svg" xmlns:xlink="http://www.w3.org/1999/xlink" width="21.9531" height="24.1504">
 <g>
  <rect height="24.1504" opacity="0" width="21.9531" x="0" y="0"/>
  <path d="M18.9551 3.65234L18.9551 8.48834C18.9396 8.48642 18.9229 8.48633 18.9062 8.48633L15.1465 8.48633L15.1465 4.70703C15.1465 4.35547 14.8633 4.0625 14.5117 4.0625C14.1602 4.0625 13.8672 4.35547 13.8672 4.70703L13.8672 8.53128C12.318 8.75918 11.416 9.91373 11.416 11.4648L11.416 21.1816C11.416 21.9185 11.6219 22.5666 12.0073 23.0664L5.3418 23.0664C3.73047 23.0664 2.63672 22.0312 2.63672 20.4883L2.63672 3.65234C2.63672 2.10938 3.73047 1.06445 5.3418 1.06445L16.25 1.06445C17.8711 1.06445 18.9551 2.10938 18.9551 3.65234ZM8.89648 4.70703L8.89648 19.4336C8.89648 19.7852 9.17969 20.0781 9.53125 20.0781C9.88281 20.0781 10.1758 19.7852 10.1758 19.4336L10.1758 4.70703C10.1758 4.35547 9.88281 4.0625 9.53125 4.0625C9.17969 4.0625 8.89648 4.35547 8.89648 4.70703Z" fill="#ffffff" fill-opacity="0.85"/>
  <path d="M14.4531 23.0078L18.9062 23.0078C20.1172 23.0078 20.8105 22.3438 20.8105 21.1816L20.8105 11.4648C20.8105 10.3027 20.1074 9.62891 18.9062 9.62891L14.4531 9.62891C13.2422 9.62891 12.5488 10.3027 12.5488 11.4648L12.5488 21.1816C12.5488 22.3438 13.2422 23.0078 14.4531 23.0078ZM14.3359 13.4668C13.8574 13.4668 13.5938 13.2129 13.5938 12.7637L13.5938 11.4453C13.5938 11.0254 13.8574 10.7422 14.3359 10.7422L15.5664 10.7422C16.0352 10.7422 16.3086 11.0254 16.3086 11.4453L16.3086 12.7637C16.3086 13.2129 16.0352 13.4668 15.5664 13.4668Z" fill="#ffffff" fill-opacity="0.85"/>
 </g>
</svg>
