<?xml version="1.0" encoding="UTF-8"?>
<!--Generator: Apple Native CoreSVG 232.5-->
<!DOCTYPE svg
PUBLIC "-//W3C//DTD SVG 1.1//EN"
       "http://www.w3.org/Graphics/SVG/1.1/DTD/svg11.dtd">
<svg version="1.1" xmlns="http://www.w3.org/2000/svg" xmlns:xlink="http://www.w3.org/1999/xlink" width="20.2832" height="19.9316">
 <g>
  <rect height="19.9316" opacity="0" width="20.2832" x="0" y="0"/>
  <path d="M19.9219 9.9707C19.9219 15.4199 15.4102 19.9316 9.96094 19.9316C4.52148 19.9316 0 15.4199 0 9.9707C0 4.53125 4.51172 0.00976562 9.95117 0.00976562C15.4004 0.00976562 19.9219 4.53125 19.9219 9.9707ZM7.75391 3.62305C6.76758 3.62305 6.11328 4.24805 6.11328 5.19531L6.11328 14.7559C6.11328 15.6934 6.76758 16.3281 7.75391 16.3281L12.168 16.3281C13.1543 16.3281 13.8086 15.6934 13.8086 14.7559L13.8086 5.19531C13.8086 4.24805 13.1543 3.62305 12.168 3.62305ZM10.4688 15.1953C10.4688 15.4785 10.2441 15.7129 9.9707 15.7129C9.6875 15.7129 9.45312 15.4785 9.45312 15.1953C9.45312 14.9219 9.6875 14.6777 9.9707 14.6777C10.2441 14.6777 10.4688 14.9219 10.4688 15.1953ZM12.8223 14.2773L7.09961 14.2773L7.09961 5.67383L12.8223 5.67383ZM11.1133 4.6875C11.1133 4.82422 11.0156 4.93164 10.8789 4.93164L9.05273 4.93164C8.91602 4.93164 8.80859 4.82422 8.80859 4.6875C8.80859 4.53125 8.91602 4.44336 9.05273 4.44336L10.8789 4.44336C11.0156 4.44336 11.1133 4.53125 11.1133 4.6875Z" fill="#ffffff" fill-opacity="0.85"/>
 </g>
</svg>
