<?xml version="1.0" encoding="UTF-8"?>
<!--Generator: Apple Native CoreSVG 232.5-->
<!DOCTYPE svg
PUBLIC "-//W3C//DTD SVG 1.1//EN"
       "http://www.w3.org/Graphics/SVG/1.1/DTD/svg11.dtd">
<svg version="1.1" xmlns="http://www.w3.org/2000/svg" xmlns:xlink="http://www.w3.org/1999/xlink" width="20.3369" height="20.6934">
 <g>
  <rect height="20.6934" opacity="0" width="20.3369" x="0" y="0"/>
  <path d="M5.28564 8.36628L5.28564 17.373L14.2978 17.373L16.081 19.1551C15.715 20.1008 14.8118 20.6836 13.606 20.6836L6.36963 20.6836C4.77783 20.6836 3.71338 19.668 3.71338 18.1445L3.71338 6.79497ZM9.15283 18.8672C9.15283 19.3359 9.53369 19.7168 10.0024 19.7168C10.4614 19.7168 10.8423 19.3359 10.8423 18.8672C10.8423 18.4082 10.4614 18.0273 10.0024 18.0273C9.53369 18.0273 9.15283 18.4082 9.15283 18.8672ZM16.2622 2.53906L16.2622 13.9765L14.6899 12.4052L14.6899 3.31055L5.5898 3.31055L3.8721 1.59389C4.22001 0.609391 5.13661 0 6.36963 0L13.606 0C15.1978 0 16.2622 1.01562 16.2622 2.53906ZM8.5083 1.33789C8.29346 1.33789 8.13721 1.48438 8.13721 1.70898C8.13721 1.93359 8.29346 2.07031 8.5083 2.07031L11.4771 2.07031C11.7017 2.07031 11.8481 1.93359 11.8481 1.70898C11.8481 1.48438 11.7017 1.33789 11.4771 1.33789Z" fill="#ffffff" fill-opacity="0.85"/>
  <path d="M17.5513 19.0039C17.8442 19.3066 18.3325 19.2969 18.6157 19.0039C18.9087 18.7207 18.9087 18.2422 18.6157 17.9395L2.43408 1.76758C2.14111 1.47461 1.65283 1.46484 1.35986 1.76758C1.07666 2.05078 1.07666 2.54883 1.35986 2.83203Z" fill="#ffffff" fill-opacity="0.85"/>
 </g>
</svg>
