<?xml version="1.0" encoding="UTF-8"?>
<!--Generator: Apple Native CoreSVG 232.5-->
<!DOCTYPE svg
PUBLIC "-//W3C//DTD SVG 1.1//EN"
       "http://www.w3.org/Graphics/SVG/1.1/DTD/svg11.dtd">
<svg version="1.1" xmlns="http://www.w3.org/2000/svg" xmlns:xlink="http://www.w3.org/1999/xlink" width="20.2832" height="19.9316">
 <g>
  <rect height="19.9316" opacity="0" width="20.2832" x="0" y="0"/>
  <path d="M19.9219 9.9707C19.9219 15.4199 15.4102 19.9316 9.96094 19.9316C4.52148 19.9316 0 15.4199 0 9.9707C0 4.53125 4.51172 0.00976562 9.95117 0.00976562C15.4004 0.00976562 19.9219 4.53125 19.9219 9.9707ZM6.12305 14.7363C6.12305 15.6934 6.78711 16.3281 7.76367 16.3281L12.168 16.3281C12.9167 16.3281 13.4798 15.9623 13.7067 15.3669L12.8418 14.502L12.8418 14.5898C12.8418 15.0684 12.5586 15.3418 12.0508 15.3418L7.89062 15.3418C7.38281 15.3418 7.09961 15.0684 7.09961 14.5898L7.09961 8.75977L6.12305 7.7832ZM4.77539 4.77539C4.59961 4.96094 4.59961 5.25391 4.77539 5.41992L14.5215 15.166C14.6875 15.332 14.9902 15.332 15.166 15.166C15.3418 14.9707 15.3418 14.6973 15.166 14.5215L5.41992 4.77539C5.24414 4.59961 4.96094 4.59961 4.77539 4.77539ZM8.71094 14.3164C8.54492 14.3164 8.41797 14.4336 8.41797 14.6191C8.41797 14.7852 8.54492 14.9023 8.71094 14.9023L11.2305 14.9023C11.3965 14.9023 11.5234 14.7852 11.5234 14.6191C11.5234 14.4336 11.3965 14.3164 11.2305 14.3164ZM7.76367 3.61328C7.01829 3.61328 6.45497 3.97739 6.23118 4.58048L7.09961 5.44804L7.09961 5.35156C7.09961 4.87305 7.38281 4.59961 7.89062 4.59961L12.0508 4.59961C12.5586 4.59961 12.8418 4.87305 12.8418 5.35156L12.8418 11.1845L13.8184 12.1601L13.8184 5.20508C13.8184 4.23828 13.1543 3.61328 12.168 3.61328ZM9.23828 5.08789C8.99414 5.08789 8.79883 5.2832 8.79883 5.51758C8.79883 5.76172 8.99414 5.94727 9.23828 5.94727L10.6934 5.94727C10.9375 5.94727 11.1328 5.76172 11.1328 5.51758C11.1328 5.2832 10.9375 5.08789 10.6934 5.08789Z" fill="#ffffff" fill-opacity="0.85"/>
 </g>
</svg>
