<svg version="1.1" xmlns="http://www.w3.org/2000/svg" xmlns:xlink="http://www.w3.org/1999/xlink" width="20.2832" height="19.9316" viewBox="0 0 20.2832 19.9316">
 <g>
  <rect height="19.9316" opacity="0" width="20.2832" x="0" y="0"/>
  <path d="M9.96094 19.9219C15.4102 19.9219 19.9219 15.4004 19.9219 9.96094C19.9219 4.51172 15.4004 0 9.95117 0C4.51172 0 0 4.51172 0 9.96094C0 15.4004 4.52148 19.9219 9.96094 19.9219ZM9.96094 18.2617C5.35156 18.2617 1.66992 14.5703 1.66992 9.96094C1.66992 5.35156 5.3418 1.66016 9.95117 1.66016C14.5605 1.66016 18.2617 5.35156 18.2617 9.96094C18.2617 14.5703 14.5703 18.2617 9.96094 18.2617Z" fill="var(--color-secondary)"/>
  <path d="M7.8125 16.123L12.0801 16.123C13.0371 16.123 13.6816 15.5078 13.6816 14.5801L13.6816 5.33203C13.6816 4.4043 13.0371 3.79883 12.0801 3.79883L7.8125 3.79883C6.86523 3.79883 6.2207 4.4043 6.2207 5.33203L6.2207 14.5801C6.2207 15.5078 6.86523 16.123 7.8125 16.123ZM7.93945 15.166C7.44141 15.166 7.16797 14.9121 7.16797 14.4434L7.16797 5.46875C7.16797 5 7.44141 4.74609 7.93945 4.74609L8.63281 4.74609C8.73047 4.74609 8.75977 4.78516 8.75977 4.87305L8.75977 5C8.75977 5.24414 8.91602 5.41992 9.16992 5.41992L10.7324 5.41992C10.9766 5.41992 11.1426 5.24414 11.1426 5L11.1426 4.87305C11.1426 4.78516 11.1816 4.74609 11.2695 4.74609L11.9629 4.74609C12.4609 4.74609 12.7344 5 12.7344 5.46875L12.7344 14.4434C12.7344 14.9121 12.4609 15.166 11.9629 15.166ZM8.73047 14.7461L11.1719 14.7461C11.3379 14.7461 11.4551 14.6387 11.4551 14.4727C11.4551 14.2969 11.3379 14.1797 11.1719 14.1797L8.73047 14.1797C8.56445 14.1797 8.44727 14.2969 8.44727 14.4727C8.44727 14.6387 8.56445 14.7461 8.73047 14.7461Z" fill="var(--color-primary)"/>
 </g>
</svg>
