<?xml version="1.0" encoding="UTF-8"?>
<!--Generator: Apple Native CoreSVG 232.5-->
<!DOCTYPE svg
PUBLIC "-//W3C//DTD SVG 1.1//EN"
       "http://www.w3.org/Graphics/SVG/1.1/DTD/svg11.dtd">
<svg version="1.1" xmlns="http://www.w3.org/2000/svg" xmlns:xlink="http://www.w3.org/1999/xlink" width="20.2832" height="19.9316">
 <g>
  <rect height="19.9316" opacity="0" width="20.2832" x="0" y="0"/>
  <path d="M19.9219 9.96094C19.9219 15.4004 15.4102 19.9219 9.96094 19.9219C4.52148 19.9219 0 15.4004 0 9.96094C0 4.51172 4.51172 0 9.95117 0C15.4004 0 19.9219 4.51172 19.9219 9.96094ZM1.66992 9.96094C1.66992 14.5703 5.35156 18.2617 9.96094 18.2617C14.5703 18.2617 18.2617 14.5703 18.2617 9.96094C18.2617 5.35156 14.5605 1.66016 9.95117 1.66016C5.3418 1.66016 1.66992 5.35156 1.66992 9.96094Z" fill="#ffffff" fill-opacity="0.85"/>
  <path d="M7.16797 8.77646L7.16797 14.4434C7.16797 14.9121 7.44141 15.166 7.93945 15.166L11.9629 15.166C12.4609 15.166 12.7344 14.9121 12.7344 14.4434L12.7344 14.3371L13.5774 15.1793C13.3604 15.7637 12.8115 16.123 12.0801 16.123L7.8125 16.123C6.86523 16.123 6.2207 15.5078 6.2207 14.5801L6.2207 7.83017ZM11.4551 14.4727C11.4551 14.6387 11.3379 14.7461 11.1719 14.7461L8.73047 14.7461C8.56445 14.7461 8.44727 14.6387 8.44727 14.4727C8.44727 14.2969 8.56445 14.1797 8.73047 14.1797L11.1719 14.1797C11.3379 14.1797 11.4551 14.2969 11.4551 14.4727ZM13.6816 5.33203L13.6816 12.0898L12.7344 11.1426L12.7344 5.46875C12.7344 5 12.4609 4.74609 11.9629 4.74609L11.2695 4.74609C11.1816 4.74609 11.1426 4.78516 11.1426 4.87305L11.1426 5C11.1426 5.24414 10.9766 5.41992 10.7324 5.41992L9.16992 5.41992C8.91602 5.41992 8.75977 5.24414 8.75977 5L8.75977 4.87305C8.75977 4.78516 8.73047 4.74609 8.63281 4.74609L7.93945 4.74609C7.44141 4.74609 7.16797 5 7.16797 5.46875L7.16797 5.57617L6.32513 4.73334C6.54191 4.15215 7.08888 3.79883 7.8125 3.79883L12.0801 3.79883C13.0371 3.79883 13.6816 4.4043 13.6816 5.33203Z" fill="#ffffff" fill-opacity="0.85"/>
  <path d="M14.3652 15C14.5312 15.166 14.8242 15.166 14.9902 15C15.166 14.8145 15.166 14.5508 14.9902 14.375L5.54688 4.92188C5.37109 4.74609 5.08789 4.74609 4.91211 4.92188C4.73633 5.08789 4.74609 5.38086 4.91211 5.54688Z" fill="#ffffff" fill-opacity="0.85"/>
 </g>
</svg>
