<?xml version="1.0" encoding="UTF-8"?>
<!--Generator: Apple Native CoreSVG 232.5-->
<!DOCTYPE svg
PUBLIC "-//W3C//DTD SVG 1.1//EN"
       "http://www.w3.org/Graphics/SVG/1.1/DTD/svg11.dtd">
<svg version="1.1" xmlns="http://www.w3.org/2000/svg" xmlns:xlink="http://www.w3.org/1999/xlink" width="18.6719" height="22.9395">
 <g>
  <rect height="22.9395" opacity="0" width="18.6719" x="0" y="0"/>
  <path d="M13.3398 3.66211L13.3398 3.99414L11.7676 3.99414L11.7676 3.91602C11.7676 3.13477 11.2988 2.69531 10.4785 2.69531L3.64258 2.69531C2.82227 2.69531 2.35352 3.13477 2.35352 3.91602L2.35352 19.0039C2.35352 19.7852 2.82227 20.2246 3.64258 20.2246L6.41982 20.2246C6.51727 20.8353 6.76716 21.3687 7.13459 21.7969L3.4375 21.7969C1.8457 21.7969 0.78125 20.7812 0.78125 19.2578L0.78125 3.66211C0.78125 2.13867 1.8457 1.12305 3.4375 1.12305L10.6836 1.12305C12.2754 1.12305 13.3398 2.13867 13.3398 3.66211ZM8.93555 4.07227L8.93472 4.08874C8.38863 4.20454 7.90725 4.43768 7.51482 4.76563L5.87891 4.76562C5.49805 4.76562 5.18555 4.46289 5.18555 4.07227C5.18555 3.69141 5.49805 3.38867 5.87891 3.38867L8.24219 3.38867C8.62305 3.38867 8.93555 3.69141 8.93555 4.07227Z" fill="#ffffff" fill-opacity="0.85"/>
  <path d="M9.79492 21.7969L15.2441 21.7969C16.6211 21.7969 17.5293 20.9277 17.5293 19.6094L17.5293 7.32422C17.5293 6.00586 16.6211 5.13672 15.2441 5.13672L9.79492 5.13672C8.41797 5.13672 7.50977 6.00586 7.50977 7.32422L7.50977 19.6094C7.50977 20.9277 8.41797 21.7969 9.79492 21.7969ZM10.0781 20.3223C9.375 20.3223 8.98438 19.9414 8.98438 19.2773L8.98438 7.65625C8.98438 6.99219 9.375 6.61133 10.0781 6.61133L14.9609 6.61133C15.6445 6.61133 16.0547 6.99219 16.0547 7.65625L16.0547 19.2773C16.0547 19.9414 15.6445 20.3223 14.9609 20.3223ZM11.4551 8.62305L13.6426 8.62305C13.9941 8.62305 14.2871 8.33984 14.2871 7.96875C14.2871 7.59766 13.9941 7.30469 13.6426 7.30469L11.4551 7.30469C11.084 7.30469 10.791 7.59766 10.791 7.96875C10.791 8.33984 11.084 8.62305 11.4551 8.62305Z" fill="#ffffff" fill-opacity="0.85"/>
 </g>
</svg>
