<svg version="1.1" xmlns="http://www.w3.org/2000/svg" xmlns:xlink="http://www.w3.org/1999/xlink" width="20.2832" height="19.9316" viewBox="0 0 20.2832 19.9316">
 <g>
  <rect height="19.9316" opacity="0" width="20.2832" x="0" y="0"/>
  <path d="M9.96094 19.9316C15.4102 19.9316 19.9219 15.4199 19.9219 9.9707C19.9219 4.53125 15.4004 0.00976562 9.95117 0.00976562C4.51172 0.00976562 0 4.53125 0 9.9707C0 15.4199 4.52148 19.9316 9.96094 19.9316Z" fill="var(--color-tertiary)"/>
  <path d="M7.08984 8.75L7.08984 14.5898C7.08984 15.0684 7.36328 15.3418 7.88086 15.3418L12.041 15.3418C12.5488 15.3418 12.832 15.0684 12.832 14.5898L12.832 14.4922L13.6994 15.3596C13.4745 15.9594 12.9099 16.3281 12.1582 16.3281L7.75391 16.3281C6.76758 16.3281 6.11328 15.6934 6.11328 14.7363L6.11328 7.77344ZM5.41992 4.77539L15.166 14.5215C15.3418 14.6973 15.3418 14.9707 15.166 15.166C14.9902 15.332 14.6875 15.332 14.5215 15.166L4.77539 5.41992C4.59961 5.25391 4.59961 4.96094 4.77539 4.77539C4.96094 4.59961 5.24414 4.59961 5.41992 4.77539ZM11.5137 14.6191C11.5137 14.7852 11.3867 14.9023 11.2207 14.9023L8.70117 14.9023C8.53516 14.9023 8.4082 14.7852 8.4082 14.6191C8.4082 14.4336 8.53516 14.3164 8.70117 14.3164L11.2207 14.3164C11.3867 14.3164 11.5137 14.4336 11.5137 14.6191ZM13.8086 5.20508L13.8086 12.1503L12.832 11.1747L12.832 5.35156C12.832 4.87305 12.5488 4.59961 12.041 4.59961L11.3184 4.59961C11.2305 4.59961 11.1914 4.63867 11.1914 4.72656L11.1914 4.86328C11.1914 5.12695 11.0156 5.29297 10.7715 5.29297L9.14062 5.29297C8.89648 5.29297 8.73047 5.12695 8.73047 4.86328L8.73047 4.72656C8.73047 4.63867 8.69141 4.59961 8.60352 4.59961L7.88086 4.59961C7.36328 4.59961 7.08984 4.87305 7.08984 5.35156L7.08984 5.43829L6.22293 4.57224C6.44669 3.97414 7.00444 3.61328 7.75391 3.61328L12.1582 3.61328C13.1445 3.61328 13.8086 4.23828 13.8086 5.20508Z" fill="var(--color-primary)"/>
 </g>
</svg>
