<?xml version="1.0" encoding="UTF-8"?>
<!--Generator: Apple Native CoreSVG 232.5-->
<!DOCTYPE svg
PUBLIC "-//W3C//DTD SVG 1.1//EN"
       "http://www.w3.org/Graphics/SVG/1.1/DTD/svg11.dtd">
<svg version="1.1" xmlns="http://www.w3.org/2000/svg" xmlns:xlink="http://www.w3.org/1999/xlink" width="21.0547" height="13.0762">
 <g>
  <rect height="13.0762" opacity="0" width="21.0547" x="0" y="0"/>
  <path d="M17.373 11.5039L3.31055 11.5039L3.31055 2.09961L17.373 2.09961ZM19.7168 6.78711C19.7168 7.25586 19.3457 7.63672 18.8672 7.63672C18.4082 7.63672 18.0273 7.25586 18.0273 6.78711C18.0273 6.32812 18.4082 5.94727 18.8672 5.94727C19.3457 5.94727 19.7168 6.32812 19.7168 6.78711ZM2.22656 6.78711C2.22656 7.10938 1.96289 7.36328 1.65039 7.36328C1.32812 7.36328 1.07422 7.10938 1.07422 6.78711C1.07422 6.46484 1.32812 6.2207 1.65039 6.2207C1.96289 6.2207 2.22656 6.46484 2.22656 6.78711Z" fill="#ffffff" fill-opacity="0.2125"/>
  <path d="M18.1445 13.0762C19.668 13.0762 20.6934 12.0117 20.6934 10.4199L20.6934 3.18359C20.6934 1.5918 19.668 0.527344 18.1445 0.527344L2.53906 0.527344C1.01562 0.527344 0 1.5918 0 3.18359L0 10.4199C0 12.0117 1.01562 13.0762 2.53906 13.0762ZM17.373 11.5039L3.31055 11.5039L3.31055 2.09961L17.373 2.09961ZM19.7168 6.78711C19.7168 7.25586 19.3457 7.63672 18.8672 7.63672C18.4082 7.63672 18.0273 7.25586 18.0273 6.78711C18.0273 6.32812 18.4082 5.94727 18.8672 5.94727C19.3457 5.94727 19.7168 6.32812 19.7168 6.78711ZM2.22656 6.78711C2.22656 7.10938 1.96289 7.36328 1.65039 7.36328C1.32812 7.36328 1.07422 7.10938 1.07422 6.78711C1.07422 6.46484 1.32812 6.2207 1.65039 6.2207C1.96289 6.2207 2.22656 6.46484 2.22656 6.78711Z" fill="#ffffff" fill-opacity="0.85"/>
 </g>
</svg>
