<?xml version="1.0" encoding="UTF-8"?>
<!--Generator: Apple Native CoreSVG 232.5-->
<!DOCTYPE svg
PUBLIC "-//W3C//DTD SVG 1.1//EN"
       "http://www.w3.org/Graphics/SVG/1.1/DTD/svg11.dtd">
<svg version="1.1" xmlns="http://www.w3.org/2000/svg" xmlns:xlink="http://www.w3.org/1999/xlink" width="18.3398" height="17.998">
 <g>
  <rect height="17.998" opacity="0" width="18.3398" x="0" y="0"/>
  <path d="M17.9785 3.04688L17.9785 14.9707C17.9785 16.9824 16.9629 17.998 14.9121 17.998L3.06641 17.998C1.02539 17.998 0 16.9922 0 14.9707L0 3.04688C0 1.02539 1.02539 0.0195312 3.06641 0.0195312L14.9121 0.0195312C16.9629 0.0195312 17.9785 1.03516 17.9785 3.04688ZM11.2109 4.51172L7.24609 8.55469L7.1875 8.55469L7.1875 5.10742C7.1875 4.53125 6.89453 4.18945 6.36719 4.18945C5.86914 4.18945 5.56641 4.53125 5.56641 5.10742L5.56641 12.6953C5.56641 13.2715 5.86914 13.6133 6.36719 13.6133C6.89453 13.6133 7.1875 13.2715 7.1875 12.6953L7.1875 10.6152L8.41797 9.3457L11.3477 13.2129C11.5527 13.4863 11.7676 13.6133 12.0508 13.6133C12.5098 13.6133 12.832 13.291 12.832 12.8516C12.832 12.6465 12.7441 12.4316 12.6074 12.2363L9.59961 8.30078L12.3633 5.46875C12.5391 5.27344 12.6074 5.10742 12.6074 4.88281C12.6074 4.50195 12.2852 4.18945 11.8652 4.18945C11.6211 4.18945 11.4453 4.28711 11.2109 4.51172Z" fill="#ffffff" fill-opacity="0.85"/>
 </g>
</svg>
