<?xml version="1.0" encoding="UTF-8"?>
<!--Generator: Apple Native CoreSVG 232.5-->
<!DOCTYPE svg
PUBLIC "-//W3C//DTD SVG 1.1//EN"
       "http://www.w3.org/Graphics/SVG/1.1/DTD/svg11.dtd">
<svg version="1.1" xmlns="http://www.w3.org/2000/svg" xmlns:xlink="http://www.w3.org/1999/xlink" width="24.9121" height="18.5645">
 <g>
  <rect height="18.5645" opacity="0" width="24.9121" x="0" y="0"/>
  <path d="M21.4648 7.5C23.3691 8.30078 24.5508 10.0781 24.5508 12.1289C24.5508 14.8145 22.2461 16.9727 19.2969 16.9727L5.84961 16.9727C2.50977 16.9727 0 14.5605 0 11.6895C0 9.30664 1.37695 7.33398 3.58398 6.98242C3.63281 4.24805 6.25 2.42188 8.65234 3.125C9.82422 1.41602 11.709 0 14.3555 0C18.3496 0 21.4844 3.14453 21.4648 7.5ZM12.002 8.54492L7.36328 8.54492C7.25586 8.54492 7.16797 8.57422 7.06055 8.67188L6.2793 9.45312C6.20117 9.54102 6.19141 9.6875 6.2793 9.78516L7.76367 11.2695C7.86133 11.377 7.99805 11.377 8.10547 11.2695L9.02344 10.3418L10.2832 11.6211C10.3613 11.7188 10.5078 11.709 10.6152 11.6016L11.8848 10.3516C12.4512 11.8066 13.5352 12.6074 14.8145 12.6074C16.4746 12.6074 17.8125 11.2793 17.8125 9.61914C17.8125 7.94922 16.4746 6.62109 14.8145 6.62109C13.5547 6.62109 12.4512 7.36328 12.002 8.54492ZM16.377 9.60938C16.377 10.1172 15.9473 10.5273 15.4492 10.5273C14.9219 10.5273 14.5215 10.1172 14.5215 9.60938C14.5215 9.10156 14.9219 8.69141 15.4492 8.69141C15.9473 8.69141 16.377 9.0918 16.377 9.60938Z" fill="#ffffff" fill-opacity="0.85"/>
 </g>
</svg>
