<svg version="1.1" xmlns="http://www.w3.org/2000/svg" xmlns:xlink="http://www.w3.org/1999/xlink" width="20.2832" height="19.9316" viewBox="0 0 20.2832 19.9316">
 <g>
  <rect height="19.9316" opacity="0" width="20.2832" x="0" y="0"/>
  <path d="M19.9219 9.96094C19.9219 15.4004 15.4102 19.9219 9.96094 19.9219C4.52148 19.9219 0 15.4004 0 9.96094C0 4.51172 4.51172 0 9.95117 0C15.4004 0 19.9219 4.51172 19.9219 9.96094ZM7.28516 6.06445L7.28516 13.5449C7.28516 14.082 7.56836 14.4531 8.08594 14.4531L12.7246 14.4531C13.1152 14.4531 13.3984 14.1992 13.3984 13.7891C13.3984 13.3789 13.1152 13.125 12.7246 13.125L8.90625 13.125L8.90625 6.06445C8.90625 5.50781 8.62305 5.14648 8.08594 5.14648C7.56836 5.14648 7.28516 5.52734 7.28516 6.06445Z" fill="currentColor"/>
 </g>
</svg>
