<svg version="1.1" xmlns="http://www.w3.org/2000/svg" xmlns:xlink="http://www.w3.org/1999/xlink" width="22.7734" height="25.2441" viewBox="0 0 22.7734 25.2441">
 <g>
  <rect height="25.2441" opacity="0" width="22.7734" x="0" y="0"/>
  <path d="M11.2109 19.1699C12.564 19.1699 13.8291 19.0417 14.9805 18.7928L14.9805 19.1895C14.9805 21.0645 13.5742 22.1777 11.2109 22.1777C8.83789 22.1777 7.43164 21.0645 7.43164 19.1895L7.43164 18.7917C8.58551 19.0413 9.85389 19.1699 11.2109 19.1699Z" fill="var(--color-primary)"/>
  <path d="M11.2109 18.0371C17.3047 18.0371 21.2793 15.3418 21.2793 11.4453C21.2793 7.55859 17.2949 4.86328 11.1914 4.86328C5.10742 4.86328 1.14258 7.55859 1.14258 11.4453C1.14258 15.3418 5.10742 18.0371 11.2109 18.0371ZM11.2109 16.3574C6.24023 16.3574 2.91016 14.3652 2.91016 11.4453C2.91016 8.52539 6.24023 6.54297 11.1914 6.54297C16.1621 6.54297 19.5117 8.52539 19.5117 11.4453C19.5117 14.3652 16.1719 16.3574 11.2109 16.3574Z" fill="var(--color-primary)"/>
  <path d="M9.84375 14.502L12.8516 14.502C13.2324 14.502 13.4961 14.2383 13.4961 13.877C13.4961 13.4961 13.2324 13.2422 12.8516 13.2422L10.5664 13.2422L10.5664 8.83789C10.5664 8.34961 10.2832 8.05664 9.84375 8.05664C9.41406 8.05664 9.12109 8.35938 9.12109 8.83789L9.12109 13.7207C9.12109 14.1895 9.4043 14.502 9.84375 14.502Z" fill="var(--color-primary)"/>
  <path d="M8.75 1.19141L10.6934 3.80859C10.957 4.16992 11.4551 4.16992 11.7188 3.80859L13.6816 1.19141C14.0723 0.673828 13.8672 0 13.1641 0L9.24805 0C8.58398 0 8.33984 0.654297 8.75 1.19141Z" fill="var(--color-primary)"/>
 </g>
</svg>
