<svg version="1.1" xmlns="http://www.w3.org/2000/svg" xmlns:xlink="http://www.w3.org/1999/xlink" width="19.1898" height="23.1152" viewBox="0 0 19.1898 23.1152">
 <g>
  <rect height="23.1152" opacity="0" width="19.1898" x="0" y="0"/>
  <path d="M9.424 5.57617C11.8068 5.57617 13.799 4.19922 14.1799 2.19727C14.3263 1.38672 13.926 0.78125 13.1252 0.556641C10.8205-0.0488281 8.02751-0.0488281 5.73259 0.556641C4.93181 0.78125 4.53142 1.38672 4.6779 2.19727C5.05876 4.19922 7.04119 5.57617 9.424 5.57617ZM9.424 4.29688C7.61736 4.29688 6.18181 3.31055 5.93767 1.94336C5.9279 1.875 5.97673 1.81641 6.06462 1.78711C8.16423 1.23047 10.6935 1.23047 12.7834 1.78711C12.881 1.81641 12.9299 1.875 12.9201 1.94336C12.676 3.31055 11.2404 4.29688 9.424 4.29688ZM8.64275 9.54102L10.215 9.54102L10.215 4.79492L8.64275 4.79492ZM9.41423 23.1152C15.0881 23.1152 18.8576 21.4062 18.8283 18.8672C18.8283 16.3086 16.4943 13.1348 13.5646 11.6992C13.0275 9.85352 11.3283 8.57422 9.41423 8.57422C7.50017 8.57422 5.80095 9.85352 5.26384 11.6992C2.33415 13.1348 0.000169564 16.3086 0.000169564 18.8672C-0.0291273 21.4062 3.7404 23.1152 9.41423 23.1152ZM9.41423 21.748C4.59001 21.748 1.37712 20.6152 1.36736 18.8672C1.37712 16.6113 3.7697 13.7402 6.48454 12.6562C6.66033 11.0938 7.91033 9.96094 9.41423 9.96094C10.9181 9.96094 12.1681 11.0938 12.3439 12.6562C15.0295 13.7207 17.4513 16.5918 17.4611 18.8672C17.4513 20.6152 14.2482 21.748 9.41423 21.748ZM9.41423 15.9766C14.2482 15.9766 17.4513 17.1094 17.4611 18.8672L18.8283 18.8672C18.8576 16.3281 15.0881 14.6094 9.41423 14.6094C3.7404 14.6094-0.0291273 16.3281 0.000169564 18.8672L1.36736 18.8672C1.37712 17.1094 4.59001 15.9766 9.41423 15.9766ZM9.41423 19.5996C11.1818 19.5996 12.8908 18.5059 12.8908 17.1777C11.8849 17.0215 10.7033 16.9238 9.41423 16.9238C8.12517 16.9238 6.94353 17.0215 5.93767 17.1777C5.93767 18.5059 7.64665 19.5996 9.41423 19.5996Z" fill="var(--color-primary)"/>
 </g>
</svg>
