<svg version="1.1" xmlns="http://www.w3.org/2000/svg" xmlns:xlink="http://www.w3.org/1999/xlink" width="21.0547" height="18.5254" viewBox="0 0 21.0547 18.5254">
 <g>
  <rect height="18.5254" opacity="0" width="21.0547" x="0" y="0"/>
  <path d="M0 4.4043C0 11.6895 4.36523 16.4746 11.084 16.4746C15.7715 16.4746 19.0918 13.4473 19.0918 9.16992C19.0918 5.05859 15.7422 2.08984 11.123 2.08984C9.53125 2.08984 7.91992 2.53906 6.13281 2.53906C4.62891 2.53906 3.33008 2.08008 2.25586 0.859375C1.68945 0.195312 0.566406 0.136719 0.292969 1.25977C0.0585938 2.20703 0 3.87695 0 4.4043ZM1.47461 4.4043C1.47461 3.75977 1.48438 3.03711 1.57227 2.50977C1.5918 2.38281 1.66016 2.37305 1.74805 2.45117C2.8418 3.44727 4.56055 4.01367 6.13281 4.01367C7.1875 4.01367 8.14453 3.87695 9.00391 3.75977C9.78516 3.65234 10.4688 3.56445 11.123 3.56445C14.9316 3.56445 17.6172 5.89844 17.6172 9.16992C17.6172 12.6172 14.9512 15 11.084 15C5.19531 15 1.47461 10.8789 1.47461 4.4043ZM5.71289 6.67969C6.32812 8.58398 8.17383 9.3457 10.4785 9.91211C13.7891 10.7031 15.3027 11.3477 16.6309 13.0078C17.7148 14.3457 17.9785 15.957 18.584 17.8906C18.7305 18.3594 19.0527 18.5254 19.3945 18.5254C20.1172 18.5254 20.6934 17.8516 20.6934 17.041C20.6934 15.6934 19.1602 13.3594 18.1348 11.9629C16.8164 10.2148 14.5605 9.20898 10.9766 8.63281C9.12109 8.32031 7.48047 7.83203 6.35742 6.36719C6.04492 5.94727 5.56641 6.24023 5.71289 6.67969Z" fill="currentColor"/>
 </g>
</svg>
