<?xml version="1.0" encoding="UTF-8"?>
<!--Generator: Apple Native CoreSVG 232.5-->
<!DOCTYPE svg
PUBLIC "-//W3C//DTD SVG 1.1//EN"
       "http://www.w3.org/Graphics/SVG/1.1/DTD/svg11.dtd">
<svg version="1.1" xmlns="http://www.w3.org/2000/svg" xmlns:xlink="http://www.w3.org/1999/xlink" width="18.3398" height="17.998">
 <g>
  <rect height="17.998" opacity="0" width="18.3398" x="0" y="0"/>
  <path d="M3.06641 17.998L14.9121 17.998C16.9629 17.998 17.9785 16.9824 17.9785 14.9707L17.9785 3.04688C17.9785 1.03516 16.9629 0.0195312 14.9121 0.0195312L3.06641 0.0195312C1.02539 0.0195312 0 1.02539 0 3.04688L0 14.9707C0 16.9922 1.02539 17.998 3.06641 17.998ZM3.08594 16.4258C2.10938 16.4258 1.57227 15.9082 1.57227 14.8926L1.57227 3.125C1.57227 2.10938 2.10938 1.5918 3.08594 1.5918L14.8926 1.5918C15.8594 1.5918 16.4062 2.10938 16.4062 3.125L16.4062 14.8926C16.4062 15.9082 15.8594 16.4258 14.8926 16.4258Z" fill="#ffffff" fill-opacity="0.85"/>
  <path d="M11.5137 12.9883C11.9824 12.9883 12.3242 12.6562 12.3242 12.207C12.3242 11.8359 12.168 11.6211 11.7578 11.4258L6.80664 8.99414L6.80664 8.93555L11.7578 6.44531C12.1582 6.25 12.3242 6.01562 12.3242 5.6543C12.3242 5.21484 11.9922 4.88281 11.5332 4.88281C11.3281 4.88281 11.2012 4.92188 11.0449 5L5.22461 8.13477C4.83398 8.34961 4.64844 8.62305 4.64844 8.99414C4.64844 9.39453 4.81445 9.63867 5.22461 9.85352L11.0449 12.8809C11.1914 12.9492 11.3281 12.9883 11.5137 12.9883Z" fill="#ffffff" fill-opacity="0.85"/>
 </g>
</svg>
