<?xml version="1.0" encoding="UTF-8"?>
<!--Generator: Apple Native CoreSVG 232.5-->
<!DOCTYPE svg
PUBLIC "-//W3C//DTD SVG 1.1//EN"
       "http://www.w3.org/Graphics/SVG/1.1/DTD/svg11.dtd">
<svg version="1.1" xmlns="http://www.w3.org/2000/svg" xmlns:xlink="http://www.w3.org/1999/xlink" width="18.3398" height="17.998">
 <g>
  <rect height="17.998" opacity="0" width="18.3398" x="0" y="0"/>
  <path d="M17.9785 3.04688L17.9785 14.9707C17.9785 16.9824 16.9629 17.998 14.9121 17.998L3.06641 17.998C1.02539 17.998 0 16.9922 0 14.9707L0 3.04688C0 1.02539 1.02539 0.0195312 3.06641 0.0195312L14.9121 0.0195312C16.9629 0.0195312 17.9785 1.03516 17.9785 3.04688ZM6.30859 3.75C5.87891 3.75 5.56641 4.0625 5.56641 4.50195L5.56641 13.5156C5.56641 13.9453 5.87891 14.2578 6.30859 14.2578L11.6699 14.2578C12.0996 14.2578 12.4121 13.9453 12.4121 13.5156L12.4121 4.50195C12.4121 4.0625 12.0996 3.75 11.6699 3.75ZM11.2695 5.23438L11.2695 7.72461C11.2695 7.92969 11.1328 8.07617 10.9375 8.07617L7.04102 8.07617C6.8457 8.07617 6.70898 7.92969 6.70898 7.72461L6.70898 5.23438C6.70898 5.0293 6.8457 4.89258 7.04102 4.89258L10.9375 4.89258C11.1328 4.89258 11.2695 5.0293 11.2695 5.23438Z" fill="#ffffff" fill-opacity="0.85"/>
 </g>
</svg>
