<?xml version="1.0" encoding="UTF-8"?>
<!--Generator: Apple Native CoreSVG 232.5-->
<!DOCTYPE svg
PUBLIC "-//W3C//DTD SVG 1.1//EN"
       "http://www.w3.org/Graphics/SVG/1.1/DTD/svg11.dtd">
<svg version="1.1" xmlns="http://www.w3.org/2000/svg" xmlns:xlink="http://www.w3.org/1999/xlink" width="13.4277" height="23.3301">
 <g>
  <rect height="23.3301" opacity="0" width="13.4277" x="0" y="0"/>
  <path d="M3.44727 19.8926L9.62891 19.8926C9.95117 19.8926 10.1953 19.6387 10.1953 19.3164C10.1953 19.0039 9.95117 18.75 9.62891 18.75L3.44727 18.75C3.125 18.75 2.87109 19.0039 2.87109 19.3164C2.87109 19.6387 3.125 19.8926 3.44727 19.8926ZM6.5332 22.7246C8.04688 22.7246 9.30664 21.9824 9.4043 20.8594L3.67188 20.8594C3.74023 21.9824 5.00977 22.7246 6.5332 22.7246Z" fill="#ffffff" fill-opacity="0.85"/>
  <path d="M0 6.01562C0 9.76562 2.4707 10.6934 2.87109 17.207C2.89062 17.5586 3.10547 17.7832 3.47656 17.7832L9.58984 17.7832C9.9707 17.7832 10.1758 17.5586 10.2051 17.207C10.6055 10.6934 13.0664 9.76562 13.0664 6.01562C13.0664 2.64648 10.1855 0 6.5332 0C2.88086 0 0 2.64648 0 6.01562Z" fill="#ffffff" fill-opacity="0.85"/>
 </g>
</svg>
