<svg version="1.1" xmlns="http://www.w3.org/2000/svg" xmlns:xlink="http://www.w3.org/1999/xlink" width="23.4766" height="22.1973" viewBox="0 0 23.4766 22.1973">
 <g>
  <rect height="22.1973" opacity="0" width="23.4766" x="0" y="0"/>
  <path d="M2.70508 12.4023C3.16406 12.4023 3.56445 12.0215 3.56445 11.5723C3.56445 11.1035 3.16406 10.7227 2.70508 10.7227L0.830078 10.7227C0.380859 10.7227 0 11.1133 0 11.5723C0 12.0117 0.380859 12.4023 0.830078 12.4023ZM4.70703 5.9082C5.0293 6.23047 5.56641 6.24023 5.88867 5.9082C6.2207 5.57617 6.21094 5.04883 5.88867 4.72656L4.57031 3.39844C4.25781 3.06641 3.71094 3.06641 3.37891 3.39844C3.05664 3.73047 3.05664 4.24805 3.37891 4.58008ZM10.7129 2.72461C10.7129 3.18359 11.0938 3.57422 11.5527 3.57422C12.0215 3.57422 12.4023 3.18359 12.4023 2.72461L12.4023 0.849609C12.4023 0.390625 12.0117 0 11.5527 0C11.0938 0 10.7129 0.390625 10.7129 0.849609ZM17.207 4.72656C16.8848 5.04883 16.875 5.57617 17.207 5.9082C17.5488 6.24023 18.0664 6.23047 18.3887 5.9082L19.7266 4.58008C20.0488 4.24805 20.0488 3.73047 19.7266 3.39844C19.3848 3.06641 18.8672 3.06641 18.5449 3.39844ZM22.2656 12.4023C22.7246 12.4023 23.1152 12.0117 23.1152 11.5723C23.1152 11.1133 22.7246 10.7227 22.2656 10.7227L20.3906 10.7227C19.9414 10.7227 19.5508 11.1035 19.5508 11.5723C19.5508 12.0215 19.9414 12.4023 20.3906 12.4023Z" fill="var(--color-primary)"/>
  <path d="M16.2891 18.9648L17.8613 18.9648L17.8613 11.6992C17.8613 8.13477 15.1172 5.38086 11.5527 5.38086C7.99805 5.38086 5.25391 8.13477 5.25391 11.6992L5.25391 18.9648L6.82617 18.9648L6.82617 11.6992C6.82617 9.00391 8.86719 6.95312 11.5527 6.95312C14.248 6.95312 16.2891 9.00391 16.2891 11.6992ZM19.0527 19.7559C19.4922 19.7559 19.8535 19.4043 19.8535 18.9746C19.8535 18.5352 19.4922 18.1738 19.0527 18.1738L4.04297 18.1738C3.61328 18.1738 3.27148 18.5352 3.27148 18.9746C3.27148 19.4043 3.61328 19.7559 4.04297 19.7559ZM12.3438 11.9141C12.3438 11.4844 11.9824 11.123 11.5527 11.123C11.123 11.123 10.7812 11.4844 10.7812 11.9141L10.7812 18.9648L12.3438 18.9648Z" fill="var(--color-primary)"/>
 </g>
</svg>
