<svg version="1.1" xmlns="http://www.w3.org/2000/svg" xmlns:xlink="http://www.w3.org/1999/xlink" width="28.0469" height="16.7285" viewBox="0 0 28.0469 16.7285">
 <g>
  <rect height="16.7285" opacity="0" width="28.0469" x="0" y="0"/>
  <path d="M13.8281 16.709C22.0703 16.709 27.6855 12.9297 27.6855 8.35938C27.6855 3.78906 22.0703 0 13.8281 0C5.60547 0 0 3.78906 0 8.35938C0 12.9297 5.60547 16.709 13.8281 16.709ZM13.8281 13.7695C8.63281 13.7695 4.67773 11.6016 4.67773 8.62305C4.67773 5.66406 8.63281 3.49609 13.8281 3.49609C19.0527 3.49609 23.0176 5.66406 23.0176 8.62305C23.0176 11.5918 19.043 13.7695 13.8281 13.7695ZM13.8184 9.21875C16.8066 9.21875 19.4141 7.87109 20.4199 5.99609C18.9844 5.0293 16.6992 4.43359 13.8281 4.43359C10.9473 4.43359 8.64258 5.03906 7.20703 6.03516C8.23242 7.90039 10.8301 9.21875 13.8184 9.21875Z" fill="currentColor"/>
 </g>
</svg>
