<svg version="1.1" xmlns="http://www.w3.org/2000/svg" xmlns:xlink="http://www.w3.org/1999/xlink" width="24.3605" height="16.8457" viewBox="0 0 24.3605 16.8457">
 <g>
  <rect height="16.8457" opacity="0" width="24.3605" x="0" y="0"/>
  <path d="M23.2398 1.5332C23.65 1.52344 24.0015 1.18164 24.0015 0.771484C24.0015 0.371094 23.6597 0.00976562 23.2398 0.00976562L4.37262 0C3.9527 0 3.6109 0.361328 3.6109 0.771484C3.6109 1.18164 3.96246 1.52344 4.37262 1.52344L6.41363 1.52344C6.69684 5.54688 9.63629 8.29102 13.816 8.29102C17.9761 8.29102 20.9156 5.54688 21.2086 1.5332ZM0.222227 9.4043C0.554258 9.72656 0.983946 9.73633 1.30621 9.41406L5.94488 4.77539C5.72027 4.26758 5.54449 3.73047 5.41754 3.14453L0.231993 8.33008C-0.0707417 8.65234-0.0805074 9.0918 0.222227 9.4043ZM2.58551 11.7676C2.91754 12.0898 3.35699 12.1094 3.67926 11.7773L7.9566 7.49023C7.57574 7.1582 7.23395 6.77734 6.92145 6.36719L2.59527 10.6934C2.29254 11.0156 2.27301 11.4551 2.58551 11.7676ZM4.95856 14.1406C5.28082 14.4531 5.72027 14.4531 6.04254 14.1406L11.023 9.15039C10.4859 8.99414 9.95856 8.78906 9.48981 8.53516L4.95856 13.0566C4.65582 13.3789 4.64606 13.8086 4.95856 14.1406ZM7.32184 16.5039C7.6441 16.8164 8.08356 16.8164 8.40582 16.5039L15.4957 9.4043C14.6363 9.56055 14.2554 9.53125 13.2398 9.53125L7.32184 15.4297C7.00934 15.7422 7.00934 16.1816 7.32184 16.5039Z" fill="var(--color-primary)"/>
 </g>
</svg>
