<svg version="1.1" xmlns="http://www.w3.org/2000/svg" xmlns:xlink="http://www.w3.org/1999/xlink" width="32.2266" height="23.2324" viewBox="0 0 32.2266 23.2324">
 <g>
  <rect height="23.2324" opacity="0" width="32.2266" x="0" y="0"/>
  <path d="M15.9473 23.2324C20.2148 23.2324 23.4473 21.2305 23.4473 18.5645C23.4473 15.8887 20.2148 13.8965 15.9473 13.8965C11.6699 13.8965 8.42773 15.8789 8.42773 18.5645C8.42773 21.2402 11.6699 23.2324 15.9473 23.2324ZM15.9375 21.4453C13.1152 21.4453 11.0645 20.2734 11.0645 18.6914C11.0645 17.1094 13.1152 15.9473 15.9375 15.9473C18.7598 15.9473 20.8301 17.1094 20.8301 18.6914C20.8301 20.2637 18.7598 21.4453 15.9375 21.4453ZM11.9531 18.6914C11.9531 19.7168 13.7207 20.5566 15.9277 20.5566C18.1445 20.5566 19.9414 19.7168 19.9414 18.6914C19.9414 18.3008 19.6777 17.959 19.2578 17.666C18.623 18.5156 17.3633 19.0527 15.9277 19.0527C14.4922 19.0527 13.2227 18.5254 12.5586 17.6855C12.1875 17.959 11.9531 18.3105 11.9531 18.6914Z" fill="currentColor"/>
  <path d="M24.3652 13.4961C28.6133 13.4961 31.8652 11.5039 31.8652 8.83789C31.8652 6.16211 28.6133 4.16016 24.3652 4.16016C20.0781 4.16016 16.8457 6.15234 16.8457 8.83789C16.8457 11.5137 20.0781 13.4961 24.3652 13.4961ZM24.3457 11.709C21.5332 11.709 19.4727 10.5469 19.4727 8.97461C19.4727 7.38281 21.5332 6.2207 24.3457 6.2207C27.168 6.2207 29.2285 7.38281 29.2285 8.97461C29.2285 10.5371 27.168 11.709 24.3457 11.709ZM20.3613 8.97461C20.3613 9.98047 22.1387 10.8301 24.3359 10.8301C26.5527 10.8301 28.3496 9.98047 28.3496 8.97461C28.3496 8.56445 28.0957 8.22266 27.666 7.92969C27.0312 8.7793 25.7812 9.33594 24.3359 9.33594C22.9004 9.33594 21.6406 8.78906 20.9668 7.94922C20.5957 8.23242 20.3613 8.57422 20.3613 8.97461Z" fill="currentColor"/>
  <path d="M7.51953 13.4863C11.7871 13.4863 15.0195 11.4941 15.0195 8.82812C15.0195 6.15234 11.7871 4.15039 7.51953 4.15039C3.24219 4.15039 0 6.14258 0 8.82812C0 11.5039 3.24219 13.4863 7.51953 13.4863ZM7.50977 11.6992C4.69727 11.6992 2.63672 10.5371 2.63672 8.96484C2.63672 7.37305 4.69727 6.21094 7.50977 6.21094C10.332 6.21094 12.4023 7.37305 12.4023 8.96484C12.4023 10.5273 10.332 11.6992 7.50977 11.6992ZM3.52539 8.96484C3.52539 9.9707 5.30273 10.8203 7.5 10.8203C9.7168 10.8203 11.5137 9.9707 11.5137 8.96484C11.5137 8.55469 11.2598 8.21289 10.8301 7.92969C10.1953 8.76953 8.93555 9.32617 7.5 9.32617C6.06445 9.32617 4.80469 8.7793 4.14062 7.93945C3.75977 8.22266 3.52539 8.56445 3.52539 8.96484Z" fill="currentColor"/>
 </g>
</svg>
