<svg version="1.1" xmlns="http://www.w3.org/2000/svg" xmlns:xlink="http://www.w3.org/1999/xlink" width="16.4746" height="25.7324" viewBox="0 0 16.4746 25.7324">
 <g>
  <rect height="25.7324" opacity="0" width="16.4746" x="0" y="0"/>
  <path d="M2.77344 22.4512L13.3398 22.4512C14.8926 22.4512 15.9082 21.3672 15.9082 19.7266L15.9082 13.252C15.9082 10.9766 15.6445 8.67188 15.2637 7.08984C14.873 5.3418 13.7207 4.07227 11.9434 3.88672C11.4844 3.84766 9.92188 3.71094 8.05664 3.71094C6.14258 3.71094 4.62891 3.84766 4.16992 3.88672C2.39258 4.07227 1.25 5.3418 0.849609 7.08984C0.46875 8.68164 0.214844 10.957 0.214844 13.2227L0.214844 19.7266C0.214844 21.3672 1.2207 22.4512 2.77344 22.4512ZM8.05664 16.0254C5.88867 16.0156 3.88672 15.918 2.87109 15.791C2.30469 15.7227 2.08984 15.3613 2.08984 14.834L2.08984 13.0859C2.08984 11.2109 2.27539 9.82422 2.42188 9.18945C2.51953 8.7793 2.77344 8.47656 3.20312 8.42773C4.23828 8.31055 5.57617 8.23242 8.05664 8.22266C10.5371 8.21289 11.875 8.31055 12.9102 8.42773C13.3398 8.47656 13.6035 8.7793 13.6914 9.18945C13.8379 9.82422 14.0234 11.2109 14.0234 13.0859L14.0234 14.834C14.0234 15.3711 13.8086 15.7324 13.2422 15.791C11.7285 15.9473 9.73633 16.0352 8.05664 16.0254ZM3.76953 20.1855C3.02734 20.1855 2.5 19.6387 2.5 18.8867C2.5 18.1445 3.02734 17.5977 3.76953 17.5977C4.52148 17.5977 5.06836 18.1445 5.06836 18.8867C5.06836 19.6387 4.50195 20.1855 3.76953 20.1855ZM12.3242 20.1953C11.5723 20.1953 11.0156 19.6289 11.0156 18.8867C11.0156 18.1543 11.5723 17.5879 12.3242 17.5879C13.0566 17.5879 13.6035 18.1543 13.6035 18.8867C13.6035 19.6289 13.0469 20.1953 12.3242 20.1953ZM5.68359 6.63086C5.3418 6.63086 5.10742 6.40625 5.10742 6.06445C5.10742 5.71289 5.3418 5.49805 5.68359 5.49805L10.4395 5.49805C10.7715 5.49805 11.0059 5.71289 11.0059 6.06445C11.0059 6.40625 10.7715 6.63086 10.4395 6.63086ZM0 1.95312C0 2.35352 0.292969 2.59766 0.664062 2.59766C0.859375 2.59766 1.05469 2.5 1.2207 2.29492C1.76758 1.60156 2.36328 1.34766 3.48633 1.34766L12.6367 1.34766C13.75 1.34766 14.3457 1.60156 14.8926 2.29492C15.0586 2.5 15.2637 2.59766 15.459 2.59766C15.8203 2.59766 16.1133 2.35352 16.1133 1.95312C16.1133 1.66016 15.9082 1.35742 15.6348 1.09375C14.7949 0.283203 13.8379 0.00976562 12.6367 0.00976562L3.48633 0.00976562C2.28516 0.00976562 1.31836 0.283203 0.488281 1.09375C0.205078 1.35742 0 1.66016 0 1.95312ZM7.34375 4.20898L4.91211 1.23047L3.10547 1.23047L5.54688 4.20898ZM8.76953 4.20898L10.5664 4.20898L13.0078 1.23047L11.2012 1.23047ZM3.06641 22.3242L1.46484 24.8926C1.21094 25.293 1.44531 25.7324 1.9043 25.7324L2.45117 25.7324C2.71484 25.7324 2.87109 25.6445 3.01758 25.4102L4.93164 22.3242ZM11.1914 22.3242L13.1055 25.4102C13.252 25.6445 13.4082 25.7324 13.6816 25.7324L14.2285 25.7324C14.6777 25.7324 14.8828 25.2832 14.6387 24.8926L13.0566 22.3242Z" fill="currentColor"/>
 </g>
</svg>
