<?xml version="1.0" encoding="UTF-8"?>
<!--Generator: Apple Native CoreSVG 232.5-->
<!DOCTYPE svg
PUBLIC "-//W3C//DTD SVG 1.1//EN"
       "http://www.w3.org/Graphics/SVG/1.1/DTD/svg11.dtd">
<svg version="1.1" xmlns="http://www.w3.org/2000/svg" xmlns:xlink="http://www.w3.org/1999/xlink" width="24.3652" height="16.8457">
 <g>
  <rect height="16.8457" opacity="0" width="24.3652" x="0" y="0"/>
  <path d="M0.751953 1.5332L19.6289 1.52344C20.0391 1.52344 20.3809 1.18164 20.3809 0.771484C20.3809 0.361328 20.0391 0 19.6289 0L0.751953 0.00976562C0.332031 0.00976562 0 0.371094 0 0.771484C0 1.18164 0.341797 1.52344 0.751953 1.5332ZM10.1855 8.29102C14.6094 8.29102 17.6367 5.22461 17.5977 0.791016L16.0938 0.791016C16.1133 4.32617 13.7109 6.76758 10.1855 6.76758C6.66992 6.76758 4.25781 4.32617 4.27734 0.791016L2.76367 0.791016C2.74414 5.22461 5.77148 8.29102 10.1855 8.29102ZM15.5859 16.5039C15.918 16.8164 16.3477 16.8164 16.6699 16.5039C16.9824 16.1816 16.9922 15.7422 16.6699 15.4297L10.752 9.53125C9.73633 9.53125 9.35547 9.56055 8.49609 9.4043ZM17.959 14.1406C18.2812 14.4531 18.7109 14.4531 19.043 14.1406C19.3555 13.8086 19.3457 13.3789 19.043 13.0566L14.5117 8.53516C14.0332 8.78906 13.5156 8.99414 12.9688 9.15039ZM20.3223 11.7773C20.6445 12.1094 21.0742 12.0898 21.4062 11.7676C21.7188 11.4551 21.709 11.0156 21.3965 10.6934L17.0703 6.36719C16.7676 6.77734 16.4258 7.1582 16.0449 7.49023ZM22.6855 9.41406C23.0078 9.73633 23.4473 9.72656 23.7793 9.4043C24.082 9.0918 24.0723 8.65234 23.7598 8.33008L18.584 3.14453C18.457 3.73047 18.2812 4.26758 18.0469 4.77539Z" fill="#ffffff" fill-opacity="0.85"/>
 </g>
</svg>
