<?xml version="1.0" encoding="UTF-8"?>
<!--Generator: Apple Native CoreSVG 232.5-->
<!DOCTYPE svg
PUBLIC "-//W3C//DTD SVG 1.1//EN"
       "http://www.w3.org/Graphics/SVG/1.1/DTD/svg11.dtd">
<svg version="1.1" xmlns="http://www.w3.org/2000/svg" xmlns:xlink="http://www.w3.org/1999/xlink" width="28.0469" height="16.7285">
 <g>
  <rect height="16.7285" opacity="0" width="28.0469" x="0" y="0"/>
  <path d="M13.8379 16.709C22.0703 16.709 27.6855 12.9297 27.6855 8.35938C27.6855 3.78906 22.0703 0 13.8379 0C5.60547 0 0 3.78906 0 8.35938C0 12.9297 5.60547 16.709 13.8379 16.709ZM13.8379 13.9648C8.4668 13.9648 4.48242 11.6992 4.48242 8.62305C4.48242 5.56641 8.47656 3.30078 13.8379 3.30078C19.209 3.30078 23.2129 5.56641 23.2129 8.62305C23.2129 11.6895 19.1992 13.9648 13.8379 13.9648ZM13.8379 12.6855C18.4082 12.6855 21.9336 10.8594 21.9336 8.62305C21.9336 7.70508 21.3379 6.85547 20.3125 6.18164C19.2285 7.96875 16.6992 9.21875 13.7988 9.21875C10.9082 9.21875 8.4082 7.98828 7.31445 6.2207C6.32812 6.89453 5.76172 7.71484 5.76172 8.62305C5.76172 10.8594 9.24805 12.6855 13.8379 12.6855Z" fill="#ffffff" fill-opacity="0.85"/>
 </g>
</svg>
