<svg version="1.1" xmlns="http://www.w3.org/2000/svg" xmlns:xlink="http://www.w3.org/1999/xlink" width="20.2832" height="19.9316" viewBox="0 0 20.2832 19.9316">
 <g>
  <rect height="19.9316" opacity="0" width="20.2832" x="0" y="0"/>
  <path d="M9.96094 19.9219C15.4102 19.9219 19.9219 15.4004 19.9219 9.96094C19.9219 4.51172 15.4004 0 9.95117 0C4.51172 0 0 4.51172 0 9.96094C0 15.4004 4.52148 19.9219 9.96094 19.9219Z" fill="var(--color-tertiary)"/>
  <path d="M4.90234 7.33398C4.44336 7.33398 4.13086 7.05078 4.13086 6.62109C4.13086 6.19141 4.44336 5.9082 4.90234 5.9082L15.0586 5.9082C15.5078 5.9082 15.8301 6.19141 15.8301 6.62109C15.8301 7.05078 15.5078 7.33398 15.0586 7.33398ZM4.90234 10.6738C4.44336 10.6738 4.13086 10.3906 4.13086 9.95117C4.13086 9.52148 4.44336 9.23828 4.90234 9.23828L15.0586 9.23828C15.5078 9.23828 15.8301 9.52148 15.8301 9.95117C15.8301 10.3906 15.5078 10.6738 15.0586 10.6738ZM4.90234 14.0137C4.44336 14.0137 4.13086 13.7207 4.13086 13.291C4.13086 12.8711 4.44336 12.5879 4.90234 12.5879L15.0586 12.5879C15.5078 12.5879 15.8301 12.8711 15.8301 13.291C15.8301 13.7207 15.5078 14.0137 15.0586 14.0137Z" fill="var(--color-primary)"/>
 </g>
</svg>
