<?xml version="1.0" encoding="UTF-8"?>
<!--Generator: Apple Native CoreSVG 232.5-->
<!DOCTYPE svg
PUBLIC "-//W3C//DTD SVG 1.1//EN"
       "http://www.w3.org/Graphics/SVG/1.1/DTD/svg11.dtd">
<svg version="1.1" xmlns="http://www.w3.org/2000/svg" xmlns:xlink="http://www.w3.org/1999/xlink" width="20.2832" height="19.9316">
 <g>
  <rect height="19.9316" opacity="0" width="20.2832" x="0" y="0"/>
  <path d="M9.96094 19.9219C12.1582 19.9219 14.209 19.1797 15.8691 17.9395C13.3203 17.6172 11.3379 16.3867 10.166 14.3555C9.59961 13.3594 9.32617 12.3926 9.21875 11.3184C8.57422 11.8066 8.05664 12.3535 7.61719 13.0957C6.48438 15.0293 6.67969 17.3242 8.13477 19.7266C8.73047 19.8535 9.33594 19.9219 9.96094 19.9219ZM6.02539 19.0918C5.00977 16.709 5.06836 14.3457 6.25 12.3145C6.80664 11.3672 7.48047 10.6543 8.32031 10.0293C7.54883 9.7168 6.86523 9.58008 6.07422 9.58008C3.85742 9.58008 1.96289 10.8887 0.625 13.3984C1.57227 15.9375 3.54492 18.0176 6.02539 19.0918ZM0.0878906 11.2598C1.65039 9.16016 3.71094 8.00781 6.07422 8.00781C7.16797 8.00781 8.11523 8.23242 9.08203 8.66211C8.98438 7.77344 8.75977 7.08984 8.34961 6.37695C7.24609 4.45312 5.17578 3.47656 2.38281 3.56445C0.898438 5.29297 0 7.5293 0 9.96094C0 10.4004 0.0390625 10.8301 0.0878906 11.2598ZM10.6543 8.51562C11.377 7.98828 11.8555 7.45117 12.2656 6.75781C13.3887 4.84375 13.1934 2.56836 11.7188 0.175781C11.1523 0.0585938 10.5566 0 9.95117 0C7.71484 0 5.625 0.771484 3.95508 2.05078C6.52344 2.35352 8.53516 3.55469 9.7168 5.60547C10.2539 6.55273 10.5371 7.4707 10.6543 8.51562ZM13.9062 10.4297C16.1133 10.4297 17.998 9.15039 19.3262 6.70898C18.4277 4.07227 16.3965 1.89453 13.8184 0.800781C14.8438 3.17383 14.8047 5.50781 13.623 7.5293C13.0469 8.53516 12.3242 9.24805 11.4453 9.87305C12.2168 10.2148 12.9688 10.4297 13.9062 10.4297ZM17.4609 16.4258C18.9844 14.6875 19.9219 12.4219 19.9219 9.96094C19.9219 9.58008 19.9023 9.21875 19.8535 8.84766C18.291 10.8887 16.2402 12.002 13.9062 12.002C12.7539 12.002 11.7676 11.748 10.791 11.3086C10.8887 12.0996 11.0938 12.8223 11.5332 13.584C12.627 15.498 14.6973 16.4844 17.4609 16.4258Z" fill="#ffffff" fill-opacity="0.85"/>
 </g>
</svg>
