<?xml version="1.0" encoding="UTF-8"?>
<!--Generator: Apple Native CoreSVG 232.5-->
<!DOCTYPE svg
PUBLIC "-//W3C//DTD SVG 1.1//EN"
       "http://www.w3.org/Graphics/SVG/1.1/DTD/svg11.dtd">
<svg version="1.1" xmlns="http://www.w3.org/2000/svg" xmlns:xlink="http://www.w3.org/1999/xlink" width="20.2832" height="19.9316">
 <g>
  <rect height="19.9316" opacity="0" width="20.2832" x="0" y="0"/>
  <path d="M9.96094 19.9219C15.4102 19.9219 19.9219 15.4004 19.9219 9.96094C19.9219 4.51172 15.4004 0 9.95117 0C4.51172 0 0 4.51172 0 9.96094C0 15.4004 4.52148 19.9219 9.96094 19.9219Z" fill="#ffffff" fill-opacity="0.25"/>
  <path d="M4.49219 7.95898C4.04297 7.95898 3.7207 7.67578 3.7207 7.24609C3.7207 6.81641 4.04297 6.5332 4.49219 6.5332L15.4688 6.5332C15.9082 6.5332 16.2402 6.81641 16.2402 7.24609C16.2402 7.67578 15.9082 7.95898 15.4688 7.95898ZM5.98633 11.2988C5.52734 11.2988 5.21484 11.0156 5.21484 10.5762C5.21484 10.1465 5.52734 9.86328 5.98633 9.86328L13.9746 9.86328C14.4238 9.86328 14.7363 10.1465 14.7363 10.5762C14.7363 11.0156 14.4238 11.2988 13.9746 11.2988ZM7.53906 14.6387C7.08984 14.6387 6.77734 14.3457 6.77734 13.916C6.77734 13.4961 7.08984 13.2129 7.53906 13.2129L12.4121 13.2129C12.8613 13.2129 13.1836 13.4961 13.1836 13.916C13.1836 14.3457 12.8613 14.6387 12.4121 14.6387Z" fill="#ffffff" fill-opacity="0.85"/>
 </g>
</svg>
