<svg version="1.1" xmlns="http://www.w3.org/2000/svg" xmlns:xlink="http://www.w3.org/1999/xlink" width="18.3398" height="17.998" viewBox="0 0 18.3398 17.998">
 <g>
  <rect height="17.998" opacity="0" width="18.3398" x="0" y="0"/>
  <path d="M17.9785 3.04688L17.9785 14.9707C17.9785 16.9824 16.9629 17.998 14.9121 17.998L3.06641 17.998C1.02539 17.998 0 16.9922 0 14.9707L0 3.04688C0 1.02539 1.02539 0.0195312 3.06641 0.0195312L14.9121 0.0195312C16.9629 0.0195312 17.9785 1.03516 17.9785 3.04688ZM6.66016 7.22656C6.66016 7.30469 6.66992 7.36328 6.67969 7.44141L5.9082 7.44141C5.58594 7.44141 5.35156 7.65625 5.35156 7.97852C5.35156 8.30078 5.58594 8.52539 5.9082 8.52539L6.8457 8.52539C6.91406 8.81836 7.00195 9.10156 7.07031 9.39453L5.9082 9.39453C5.58594 9.39453 5.35156 9.60938 5.35156 9.93164C5.35156 10.2539 5.58594 10.4785 5.9082 10.4785L7.22656 10.4785C7.23633 10.5859 7.22656 10.6934 7.2168 10.8105C7.11914 11.6992 6.5332 12.2949 5.84961 12.4902C5.47852 12.6074 5.32227 12.8125 5.32227 13.1445C5.32227 13.5059 5.55664 13.7402 5.91797 13.7402L12.0117 13.7402C12.373 13.7402 12.627 13.5059 12.627 13.1445C12.627 12.793 12.373 12.5586 12.0117 12.5586L7.65625 12.5586C8.0957 12.207 8.38867 11.5918 8.48633 10.9277C8.50586 10.7812 8.51562 10.6348 8.51562 10.4785L10.918 10.4785C11.25 10.4785 11.4844 10.2539 11.4844 9.93164C11.4844 9.60938 11.25 9.39453 10.918 9.39453L8.4082 9.39453C8.33008 9.0918 8.25195 8.80859 8.18359 8.52539L10.918 8.52539C11.25 8.52539 11.4844 8.30078 11.4844 7.97852C11.4844 7.65625 11.25 7.44141 10.918 7.44141L7.99805 7.44141C7.98828 7.34375 7.97852 7.24609 7.97852 7.13867C7.97852 6.05469 8.75977 5.3125 10.0879 5.3125C10.8301 5.3125 11.2695 5.48828 11.582 5.52734C11.9727 5.54688 12.1582 5.33203 12.1582 5C12.1582 4.73633 12.0312 4.52148 11.6797 4.38477C11.2012 4.18945 10.625 4.12109 10.0098 4.12109C7.93945 4.12109 6.66016 5.32227 6.66016 7.22656Z" fill="var(--color-primary)"/>
 </g>
</svg>
