<svg version="1.1" xmlns="http://www.w3.org/2000/svg" xmlns:xlink="http://www.w3.org/1999/xlink" width="27.4245" height="25.9473" viewBox="0 0 27.4245 25.9473">
 <g>
  <rect height="25.9473" opacity="0" width="27.4245" x="0" y="0"/>
  <path d="M16.6322 25.9473C23.9173 25.9473 27.0618 19.4141 27.0618 15.7715C27.0618 14.5605 25.6068 14.5312 25.47 15.6348C24.9818 19.6289 21.5247 22.2754 18.0482 22.2754C14.3763 22.2754 11.6224 19.7266 11.6224 16.3184C11.6224 12.9297 14.1908 9.22852 16.974 9.22852C17.6185 9.22852 17.9212 10.459 19.5618 10.459C21.3685 10.459 25.6751 7.37305 25.3431 5.26367C25.0697 3.60352 22.97 2.59766 19.2786 2.59766C17.2181 2.59766 16.2513 3.60352 16.222 4.78516C16.1927 5.40039 15.89 5.58594 15.3138 5.58594C9.70833 5.58594 5.18685 9.93164 5.18685 15.5176C5.18685 21.6504 9.92317 25.9473 16.6322 25.9473ZM16.6322 24.4727C10.5482 24.4727 6.66145 20.9375 6.66145 15.5176C6.66145 10.625 10.3626 7.06055 15.3138 7.06055C16.5833 7.06055 17.6283 6.26953 17.6673 4.99023C17.6868 4.54102 17.9505 4.05273 19.2786 4.05273C22.1107 4.05273 23.7122 4.52148 23.8685 5.26367C24.1517 6.62109 20.8411 8.98438 19.5618 8.98438C18.5658 8.98438 18.429 7.85156 17.0033 7.85156C13.0091 7.85156 10.1478 12.3047 10.1478 16.3184C10.1478 20.498 13.6536 23.75 18.0482 23.75C19.7474 23.75 21.3685 23.0664 22.5404 21.9434C21.2611 23.2715 19.3275 24.4727 16.6322 24.4727ZM9.35677 4.90234C9.05403 5.49805 9.21028 6.19141 9.79622 6.5332L11.3197 7.42188L14.2103 6.38672L11.2904 5.00977L11.6419 3.55469L13.5853 3.21289C14.3861 3.06641 14.1517 1.74805 13.1654 2.06055C12.7064 2.20703 12.3743 1.74805 12.6283 1.33789C13.0775 0.566406 11.7689 0.0292969 11.515 0.800781C11.3587 1.25 10.8509 1.31836 10.6263 0.830078C10.2357 0.00976562 9.04427 0.556641 9.52278 1.35742L10.4017 2.82227ZM14.181 13.8867L16.5052 14.0137L17.345 15.5273C17.7845 16.3379 18.9466 15.5078 18.3607 14.8828C18.0286 14.5117 18.3509 13.9844 18.8099 14.082C19.6107 14.248 19.806 12.832 18.9075 12.8418C18.4193 12.8418 18.1849 12.334 18.5365 12.0117C19.3177 11.3086 18.2923 10.459 17.7552 11.0742L16.4857 12.5781L15.0697 12.168L15.3138 9.0332L12.9798 10.8887L12.9896 12.6953C12.9896 13.3789 13.5169 13.8574 14.181 13.8867ZM3.66341 17.4316L2.39388 19.3848L0.64583 19.3457C-0.281905 19.3262-0.154952 20.6445 0.675126 20.5566C1.18294 20.5176 1.49544 20.9961 1.18294 21.3477C0.606767 21.9629 1.74935 22.8711 2.20833 22.0508C2.45247 21.6113 3.00911 21.6699 3.11653 22.1387C3.36067 23.2031 4.61067 22.7344 4.32747 21.9336L3.65364 20.0879L4.7181 19.0625L7.33528 20.8594L6.72005 17.8125L5.30403 17.002C4.69856 16.6602 4.02474 16.8652 3.66341 17.4316ZM14.1517 16.4551C13.5853 16.0938 12.8919 16.1816 12.4818 16.7285L11.4173 18.1738L12.2376 21.0352L13.8587 18.3691L15.2552 18.877L15.3822 20.8398C15.4505 21.6602 16.7982 21.5527 16.5736 20.5371C16.4759 20.0684 16.974 19.7852 17.3646 20.0879C18.0872 20.625 18.7513 19.3457 17.9993 19.0234C17.5599 18.8281 17.6185 18.1445 18.1263 18.1055C18.9661 18.0762 18.4974 16.5918 17.6575 16.9922L16.1048 17.7246Z" fill="currentColor"/>
 </g>
</svg>
