<?xml version="1.0" encoding="UTF-8"?>
<!--Generator: Apple Native CoreSVG 232.5-->
<!DOCTYPE svg
PUBLIC "-//W3C//DTD SVG 1.1//EN"
       "http://www.w3.org/Graphics/SVG/1.1/DTD/svg11.dtd">
<svg version="1.1" xmlns="http://www.w3.org/2000/svg" xmlns:xlink="http://www.w3.org/1999/xlink" width="27.4831" height="25.127">
 <g>
  <rect height="25.127" opacity="0" width="27.4831" x="0" y="0"/>
  <path d="M16.6419 25.127C23.6536 25.127 27.1204 18.7988 27.1204 15.3613C27.1204 14.1406 25.6263 14.1016 25.4896 15.2344C24.9915 19.3945 21.7005 22.3145 18.0579 22.3145C14.2298 22.3145 11.2025 19.5215 11.2025 15.9277C11.2025 12.4121 13.6146 8.75 17.1204 8.75C18.1654 8.75 18.1556 9.39453 19.3861 9.39453C21.095 9.39453 24.8255 6.78711 24.8255 4.87305C24.8255 3.62305 22.8919 2.86133 19.7767 2.86133C17.5501 2.86133 16.7493 3.41797 16.6029 4.45312C16.4857 5.21484 16.0755 5.625 15.3236 5.625C9.95247 5.625 5.6263 9.78516 5.6263 15.127C5.6263 21.0059 10.1575 25.127 16.6419 25.127ZM9.35677 4.49219C9.05403 5.08789 9.21028 5.78125 9.79622 6.12305L11.349 7.03125L14.2103 5.97656L11.2904 4.59961L11.6419 3.14453L13.5853 2.80273C14.3861 2.65625 14.1517 1.33789 13.1654 1.65039C12.7064 1.79688 12.3743 1.33789 12.6283 0.927734C13.0775 0.15625 11.7689-0.380859 11.515 0.390625C11.3587 0.839844 10.8509 0.908203 10.6263 0.419922C10.2357-0.400391 9.04427 0.146484 9.51302 0.927734L10.4017 2.41211ZM14.181 13.2812L16.5052 13.418L17.3548 14.9414C17.7845 15.7324 18.9466 14.9121 18.3607 14.2773C18.0286 13.9062 18.3509 13.3789 18.8099 13.4766C19.6107 13.6426 19.806 12.2266 18.9075 12.2363C18.4193 12.2363 18.1849 11.7285 18.5365 11.4062C19.3177 10.7031 18.2923 9.85352 17.7552 10.4688L16.4857 11.9727L15.0697 11.5625L15.3236 8.34961L12.9798 10.2832L12.9896 12.0898C12.9896 12.7734 13.5169 13.252 14.181 13.2812ZM3.66341 17.0215L2.39388 18.9746L0.64583 18.9355C-0.281905 18.916-0.154952 20.2344 0.675126 20.1465C1.18294 20.1074 1.49544 20.5859 1.18294 20.9375C0.606767 21.5527 1.75911 22.4609 2.20833 21.6406C2.45247 21.2012 3.00911 21.2598 3.11653 21.7285C3.35091 22.793 4.61067 22.3242 4.32747 21.5234L3.65364 19.6777L4.7181 18.6523L7.33528 20.4492L6.8177 17.4512L5.30403 16.5918C4.69856 16.25 4.02474 16.4551 3.66341 17.0215ZM14.1517 16.0449C13.5853 15.6836 12.8919 15.7715 12.4818 16.3184L11.4173 17.7637L12.179 20.7129L13.8587 17.959L15.2552 18.4668L15.3822 20.4297C15.4505 21.25 16.7982 21.1426 16.5736 20.127C16.4759 19.6582 16.974 19.375 17.3646 19.6777C18.0872 20.2148 18.7513 18.9355 17.9993 18.6133C17.5599 18.418 17.6185 17.7344 18.1263 17.6953C18.9661 17.666 18.4974 16.1816 17.6868 16.5723L16.1048 17.3145Z" fill="#ffffff" fill-opacity="0.85"/>
 </g>
</svg>
