<?xml version="1.0" encoding="UTF-8"?>
<!--Generator: Apple Native CoreSVG 232.5-->
<!DOCTYPE svg
PUBLIC "-//W3C//DTD SVG 1.1//EN"
       "http://www.w3.org/Graphics/SVG/1.1/DTD/svg11.dtd">
<svg version="1.1" xmlns="http://www.w3.org/2000/svg" xmlns:xlink="http://www.w3.org/1999/xlink" width="20.2832" height="19.9316">
 <g>
  <rect height="19.9316" opacity="0" width="20.2832" x="0" y="0"/>
  <path d="M9.96094 19.9219C15.4102 19.9219 19.9219 15.4004 19.9219 9.96094C19.9219 4.51172 15.4004 0 9.95117 0C4.51172 0 0 4.51172 0 9.96094C0 15.4004 4.52148 19.9219 9.96094 19.9219Z" fill="#ffffff" fill-opacity="0.25"/>
  <path d="M4.45312 10.791C3.57422 10.791 3.4668 9.85352 4.12109 9.54102L13.6328 5.0293C14.4238 4.6582 15.0879 5.32227 14.7266 6.10352L10.2539 15.6348C9.95117 16.2793 8.99414 16.1914 8.99414 15.293L8.99414 11.123C8.99414 10.9277 8.86719 10.8008 8.67188 10.8008Z" fill="#ffffff" fill-opacity="0.85"/>
 </g>
</svg>
