<svg version="1.1" xmlns="http://www.w3.org/2000/svg" xmlns:xlink="http://www.w3.org/1999/xlink" width="20.2832" height="19.9316" viewBox="0 0 20.2832 19.9316">
 <g>
  <rect height="19.9316" opacity="0" width="20.2832" x="0" y="0"/>
  <path d="M9.96094 19.9219C15.4102 19.9219 19.9219 15.4004 19.9219 9.96094C19.9219 4.51172 15.4004 0 9.95117 0C4.51172 0 0 4.51172 0 9.96094C0 15.4004 4.52148 19.9219 9.96094 19.9219ZM9.96094 18.2617C5.35156 18.2617 1.66992 14.5703 1.66992 9.96094C1.66992 5.35156 5.3418 1.66016 9.95117 1.66016C14.5605 1.66016 18.2617 5.35156 18.2617 9.96094C18.2617 14.5703 14.5703 18.2617 9.96094 18.2617Z" fill="currentColor"/>
  <path d="M4.59961 10.7812L8.69141 10.791C8.87695 10.791 9.00391 10.9082 9.00391 11.1035L9.00391 15.1465C9.00391 16.0156 9.92188 16.1035 10.2148 15.4785L14.5508 6.23047C14.9121 5.47852 14.2578 4.83398 13.4961 5.19531L4.27734 9.57031C3.64258 9.87305 3.74023 10.7812 4.59961 10.7812Z" fill="currentColor"/>
 </g>
</svg>
