<svg version="1.1" xmlns="http://www.w3.org/2000/svg" xmlns:xlink="http://www.w3.org/1999/xlink" width="16.6797" height="22.0215" viewBox="0 0 16.6797 22.0215">
 <g>
  <rect height="22.0215" opacity="0" width="16.6797" x="0" y="0"/>
  <path d="M0 19.4238C0 20.9668 1.08398 22.002 2.70508 22.002L13.6133 22.002C15.2344 22.002 16.3184 20.9668 16.3184 19.4238L16.3184 2.58789C16.3184 1.04492 15.2344 0 13.6133 0L2.70508 0C1.08398 0 0 1.04492 0 2.58789ZM1.57227 19.1602L1.57227 2.85156C1.57227 2.05078 2.06055 1.57227 2.90039 1.57227L13.418 1.57227C14.248 1.57227 14.7461 2.05078 14.7461 2.85156L14.7461 19.1602C14.7461 19.9609 14.248 20.4297 13.418 20.4297L2.90039 20.4297C2.06055 20.4297 1.57227 19.9609 1.57227 19.1602Z" fill="currentColor"/>
  <path d="M4.6582 13.4863C4.6582 14.043 4.92188 14.3164 5.44922 14.3164L8.76953 14.3164C9.29688 14.3164 9.56055 14.043 9.56055 13.4863L9.56055 10.9473C9.56055 10.3906 9.29688 10.1074 8.76953 10.1074L5.44922 10.1074C4.92188 10.1074 4.6582 10.3906 4.6582 10.9473ZM8.01758 10.6738L8.98438 10.6738L8.98438 9.28711C8.98438 8.56445 9.36523 8.0957 10.0293 8.0957C10.6934 8.0957 11.084 8.56445 11.084 9.28711L11.084 9.98047C11.084 10.2441 11.2988 10.4688 11.5723 10.4688C11.8262 10.4688 12.0508 10.2441 12.0508 9.98047L12.0508 9.28711C12.0508 8.05664 11.25 7.1582 10.0293 7.1582C8.80859 7.1582 8.01758 8.05664 8.01758 9.375Z" fill="currentColor"/>
 </g>
</svg>
