<svg version="1.1" xmlns="http://www.w3.org/2000/svg" xmlns:xlink="http://www.w3.org/1999/xlink" width="23.6426" height="20.3613" viewBox="0 0 23.6426 20.3613">
 <g>
  <rect height="20.3613" opacity="0" width="23.6426" x="0" y="0"/>
  <path d="M2.24609 16.8945L21.0254 16.8945C22.4316 16.8945 23.2812 16.0449 23.2812 14.6387L23.2812 2.92969C23.2812 1.52344 22.4316 0.683594 21.0254 0.683594L2.24609 0.683594C0.849609 0.683594 0 1.52344 0 2.92969L0 14.6387C0 16.0449 0.849609 16.8945 2.24609 16.8945ZM2.27539 15.3223C1.8457 15.3223 1.57227 15.0488 1.57227 14.6191L1.57227 2.95898C1.57227 2.51953 1.8457 2.25586 2.27539 2.25586L21.0059 2.25586C21.4355 2.25586 21.709 2.51953 21.709 2.95898L21.709 14.6191C21.709 15.0488 21.4355 15.3223 21.0059 15.3223ZM8.55469 19.2188L14.7266 19.2188L14.7266 16.7676L8.55469 16.7676ZM8.49609 20.3613L14.7852 20.3613C15.2148 20.3613 15.5664 20.0098 15.5664 19.5703C15.5664 19.1309 15.2148 18.7793 14.7852 18.7793L8.49609 18.7793C8.06641 18.7793 7.70508 19.1309 7.70508 19.5703C7.70508 20.0098 8.06641 20.3613 8.49609 20.3613Z" fill="currentColor"/>
  <path d="M9.99023 12.0996L13.3008 12.0996C13.8281 12.0996 14.0918 11.8164 14.0918 11.2598L14.0918 8.7207C14.0918 8.29102 13.9258 8.03711 13.6133 7.91992L13.6133 7.26562C13.6133 5.94727 12.8125 5.04883 11.6504 5.04883C10.4785 5.04883 9.6875 5.94727 9.6875 7.26562L9.6875 7.93945C9.36523 8.03711 9.19922 8.29102 9.19922 8.7207L9.19922 11.2598C9.19922 11.8164 9.46289 12.0996 9.99023 12.0996ZM10.6543 7.89062L10.6543 7.17773C10.6543 6.44531 11.0352 5.98633 11.6504 5.98633C12.2461 5.98633 12.6465 6.44531 12.6465 7.17773L12.6465 7.89062Z" fill="currentColor"/>
 </g>
</svg>
