<svg version="1.1" xmlns="http://www.w3.org/2000/svg" xmlns:xlink="http://www.w3.org/1999/xlink" width="18.3398" height="17.998" viewBox="0 0 18.3398 17.998">
 <g>
  <rect height="17.998" opacity="0" width="18.3398" x="0" y="0"/>
  <path d="M17.9785 3.04688L17.9785 14.9707C17.9785 16.9824 16.9629 17.998 14.9121 17.998L3.06641 17.998C1.02539 17.998 0 16.9922 0 14.9707L0 3.04688C0 1.02539 1.02539 0.0195312 3.06641 0.0195312L14.9121 0.0195312C16.9629 0.0195312 17.9785 1.03516 17.9785 3.04688ZM11.6895 4.84375L9.02344 11.5332L8.97461 11.5332L6.28906 4.84375C6.11328 4.41406 5.79102 4.18945 5.30273 4.18945C4.73633 4.18945 4.35547 4.57031 4.35547 5.12695L4.35547 12.8418C4.35547 13.3594 4.62891 13.6719 5.07812 13.6719C5.53711 13.6719 5.82031 13.3691 5.82031 12.8418L5.82031 7.05078L5.9082 7.05078L8.21289 12.832C8.36914 13.1934 8.61328 13.3594 8.98438 13.3594C9.35547 13.3594 9.60938 13.1934 9.75586 12.832L12.0801 7.05078L12.168 7.05078L12.168 12.8418C12.168 13.3594 12.4414 13.6719 12.8809 13.6719C13.3594 13.6719 13.6328 13.3691 13.6328 12.8418L13.6328 5.12695C13.6328 4.57031 13.2422 4.18945 12.6855 4.18945C12.1973 4.18945 11.875 4.41406 11.6895 4.84375Z" fill="currentColor"/>
 </g>
</svg>
