<svg version="1.1" xmlns="http://www.w3.org/2000/svg" xmlns:xlink="http://www.w3.org/1999/xlink" width="33.0469" height="19.6973" viewBox="0 0 33.0469 19.6973">
 <g>
  <rect height="19.6973" opacity="0" width="33.0469" x="0" y="0"/>
  <path d="M27.1875 3.98438L27.1875 4.58984L25.6152 4.58984L25.6152 4.42383C25.6152 3.79883 25.293 3.48633 24.668 3.48633L8.01758 3.48633C7.38281 3.48633 7.07031 3.79883 7.07031 4.42383L7.07031 15.5762L14.5898 15.5762L14.5898 16.1816C14.5898 16.7937 14.6946 17.3384 14.8971 17.8027L3.35938 17.8027C2.75391 17.8027 2.25586 17.3047 2.25586 16.6895C2.25586 16.0742 2.75391 15.5762 3.35938 15.5762L5.49805 15.5762L5.49805 3.98438C5.49805 2.61719 6.29883 1.91406 7.58789 1.91406L25.0977 1.91406C26.4551 1.91406 27.1875 2.61719 27.1875 3.98438Z" fill="currentColor"/>
  <path d="M18.125 18.3691L29.502 18.3691C30.9668 18.3691 31.7188 17.6172 31.7188 16.1816L31.7188 8.125C31.7188 6.67969 30.9668 5.92773 29.502 5.92773L18.125 5.92773C16.6699 5.92773 15.918 6.66992 15.918 8.125L15.918 16.1816C15.918 17.6172 16.6699 18.3691 18.125 18.3691ZM18.1348 16.9922C17.5684 16.9922 17.2949 16.7578 17.2949 16.1426L17.2949 8.14453C17.2949 7.54883 17.5684 7.29492 18.1348 7.29492L29.4922 7.29492C30.0488 7.29492 30.3418 7.54883 30.3418 8.14453L30.3418 16.1426C30.3418 16.7578 30.0488 16.9922 29.4922 16.9922ZM21.2988 16.1328L26.3379 16.1328C26.6016 16.1328 26.7969 15.957 26.7969 15.6836C26.7969 15.4102 26.6016 15.2246 26.3379 15.2246L21.2988 15.2246C21.0352 15.2246 20.8398 15.4102 20.8398 15.6836C20.8398 15.957 21.0352 16.1328 21.2988 16.1328Z" fill="currentColor"/>
 </g>
</svg>
