<svg version="1.1" xmlns="http://www.w3.org/2000/svg" xmlns:xlink="http://www.w3.org/1999/xlink" width="14.2285" height="20.0488" viewBox="0 0 14.2285 20.0488">
 <g>
  <rect height="20.0488" opacity="0" width="14.2285" x="0" y="0"/>
  <path d="M2.71484 20.0391L11.1523 20.0391C12.7832 20.0391 13.8672 19.0039 13.8672 17.4707L13.8672 2.56836C13.8672 1.02539 12.7832 0 11.1523 0L2.71484 0C1.08398 0 0 1.02539 0 2.56836L0 17.4707C0 19.0039 1.08398 20.0391 2.71484 20.0391ZM6.94336 16.6602C6.5918 16.6602 6.29883 16.377 6.29883 16.0254L6.29883 14.1504C6.29883 13.7988 6.5918 13.5156 6.94336 13.5156C7.29492 13.5156 7.57812 13.7988 7.57812 14.1504L7.57812 16.0254C7.57812 16.377 7.29492 16.6602 6.94336 16.6602ZM6.94336 11.9043C4.0625 11.9043 1.72852 9.56055 1.72852 6.68945C1.72852 3.81836 4.0625 1.48438 6.94336 1.48438C9.80469 1.48438 12.1484 3.81836 12.1484 6.68945C12.1484 9.56055 9.80469 11.9043 6.94336 11.9043ZM6.94336 10.6738C9.13086 10.6738 10.918 8.88672 10.918 6.68945C10.918 4.49219 9.13086 2.71484 6.94336 2.71484C4.73633 2.71484 2.95898 4.49219 2.95898 6.68945C2.95898 8.88672 4.73633 10.6738 6.94336 10.6738Z" fill="var(--color-primary)"/>
  <path d="M6.94336 16.6602C6.5918 16.6602 6.29883 16.377 6.29883 16.0254L6.29883 14.1504C6.29883 13.7988 6.5918 13.5156 6.94336 13.5156C7.29492 13.5156 7.57812 13.7988 7.57812 14.1504L7.57812 16.0254C7.57812 16.377 7.29492 16.6602 6.94336 16.6602ZM6.94336 11.9043C4.0625 11.9043 1.72852 9.56055 1.72852 6.68945C1.72852 3.81836 4.0625 1.48438 6.94336 1.48438C9.80469 1.48438 12.1484 3.81836 12.1484 6.68945C12.1484 9.56055 9.80469 11.9043 6.94336 11.9043ZM6.94336 10.6738C9.13086 10.6738 10.918 8.88672 10.918 6.68945C10.918 4.49219 9.13086 2.71484 6.94336 2.71484C4.73633 2.71484 2.95898 4.49219 2.95898 6.68945C2.95898 8.88672 4.73633 10.6738 6.94336 10.6738Z" fill="var(--color-secondary)"/>
 </g>
</svg>
