<svg version="1.1" xmlns="http://www.w3.org/2000/svg" xmlns:xlink="http://www.w3.org/1999/xlink" width="20.2832" height="19.9316" viewBox="0 0 20.2832 19.9316">
 <g>
  <rect height="19.9316" opacity="0" width="20.2832" x="0" y="0"/>
  <path d="M9.96094 19.9219C15.4102 19.9219 19.9219 15.4004 19.9219 9.96094C19.9219 4.51172 15.4004 0 9.95117 0C4.51172 0 0 4.51172 0 9.96094C0 15.4004 4.52148 19.9219 9.96094 19.9219Z" fill="var(--color-tertiary)"/>
  <path d="M7.03125 14.6191C6.64062 14.6191 6.35742 14.3652 6.35742 13.9453L6.35742 10.6543C6.35742 8.00781 7.55859 6.50391 9.4043 6.26953L9.4043 5.22461C9.4043 4.87305 9.63867 4.67773 9.96094 4.67773C10.2441 4.67773 10.5078 4.87305 10.5078 5.22461L10.5078 6.25977C12.3535 6.49414 13.5742 7.99805 13.5742 10.6543L13.5742 13.9453C13.5742 14.3652 13.3008 14.6191 12.9102 14.6191C12.5293 14.6191 12.2656 14.3652 12.2656 13.9453L12.2656 10.7422C12.2656 8.83789 11.5918 7.76367 10.5078 7.51953L10.5078 14.0625C10.5078 14.3945 10.2441 14.6191 9.96094 14.6191C9.63867 14.6191 9.4043 14.3945 9.4043 14.0625L9.4043 7.5293C8.33008 7.80273 7.68555 8.86719 7.68555 10.7422L7.68555 13.9453C7.68555 14.3652 7.42188 14.6191 7.03125 14.6191Z" fill="var(--color-primary)"/>
 </g>
</svg>
