<svg version="1.1" xmlns="http://www.w3.org/2000/svg" xmlns:xlink="http://www.w3.org/1999/xlink" width="20.2832" height="19.9316" viewBox="0 0 20.2832 19.9316">
 <g>
  <rect height="19.9316" opacity="0" width="20.2832" x="0" y="0"/>
  <path d="M9.96094 19.9219C15.4102 19.9219 19.9219 15.4004 19.9219 9.96094C19.9219 4.51172 15.4004 0 9.95117 0C4.51172 0 0 4.51172 0 9.96094C0 15.4004 4.52148 19.9219 9.96094 19.9219ZM9.96094 18.2617C5.35156 18.2617 1.66992 14.5703 1.66992 9.96094C1.66992 5.35156 5.3418 1.66016 9.95117 1.66016C14.5605 1.66016 18.2617 5.35156 18.2617 9.96094C18.2617 14.5703 14.5703 18.2617 9.96094 18.2617Z" fill="var(--color-secondary)"/>
  <path d="M7.10938 14.4727C7.49023 14.4727 7.74414 14.2285 7.74414 13.8184L7.74414 10.7129C7.74414 8.89648 8.36914 7.86133 9.41406 7.59766L9.41406 13.9355C9.41406 14.2578 9.63867 14.4727 9.95117 14.4727C10.2246 14.4727 10.4785 14.2578 10.4785 13.9355L10.4785 7.58789C11.5332 7.83203 12.1875 8.86719 12.1875 10.7129L12.1875 13.8184C12.1875 14.2285 12.4414 14.4727 12.8125 14.4727C13.1836 14.4727 13.4473 14.2285 13.4473 13.8184L13.4473 10.6348C13.4473 8.05664 12.2656 6.60156 10.4785 6.37695L10.4785 5.37109C10.4785 5.0293 10.2246 4.84375 9.95117 4.84375C9.63867 4.84375 9.41406 5.0293 9.41406 5.37109L9.41406 6.38672C7.62695 6.61133 6.46484 8.06641 6.46484 10.6348L6.46484 13.8184C6.46484 14.2285 6.73828 14.4727 7.10938 14.4727Z" fill="var(--color-primary)"/>
 </g>
</svg>
