<svg version="1.1" xmlns="http://www.w3.org/2000/svg" xmlns:xlink="http://www.w3.org/1999/xlink" width="20.2832" height="19.9316" viewBox="0 0 20.2832 19.9316">
 <g>
  <rect height="19.9316" opacity="0" width="20.2832" x="0" y="0"/>
  <path d="M9.96094 19.9219C15.4102 19.9219 19.9219 15.4004 19.9219 9.96094C19.9219 4.51172 15.4004 0 9.95117 0C4.51172 0 0 4.51172 0 9.96094C0 15.4004 4.52148 19.9219 9.96094 19.9219ZM9.96094 18.2617C5.35156 18.2617 1.66992 14.5703 1.66992 9.96094C1.66992 5.35156 5.3418 1.66016 9.95117 1.66016C14.5605 1.66016 18.2617 5.35156 18.2617 9.96094C18.2617 14.5703 14.5703 18.2617 9.96094 18.2617Z" fill="currentColor"/>
  <path d="M7.91992 5.87891C7.91992 6.80664 8.54492 7.59766 9.4043 7.8418L9.4043 11.1523C9.4043 12.6855 9.66797 13.5645 9.95117 13.5645C10.2441 13.5645 10.5078 12.7051 10.5078 11.1523L10.5078 7.8418C11.3574 7.59766 11.9824 6.80664 11.9824 5.87891C11.9824 4.75586 11.084 3.84766 9.95117 3.84766C8.81836 3.84766 7.91992 4.75586 7.91992 5.87891ZM9.38477 5.9668C9.05273 5.9668 8.73047 5.67383 8.73047 5.3125C8.73047 4.95117 9.05273 4.6582 9.38477 4.6582C9.75586 4.6582 10.0488 4.95117 10.0488 5.3125C10.0488 5.67383 9.75586 5.9668 9.38477 5.9668ZM9.95117 15.4785C13.125 15.4785 14.9902 14.3652 14.9902 13.1641C14.9902 11.6992 12.666 10.8496 11.2012 10.8594L11.2012 11.7578C12.2168 11.748 13.8086 12.2949 13.8086 13.0371C13.8086 13.8965 12.1973 14.5215 9.95117 14.5215C7.69531 14.5215 6.10352 13.8965 6.10352 13.0371C6.10352 12.2949 7.68555 11.748 8.70117 11.7578L8.70117 10.8594C7.23633 10.8496 4.91211 11.6992 4.91211 13.1641C4.91211 14.3652 6.77734 15.4785 9.95117 15.4785Z" fill="currentColor"/>
 </g>
</svg>
