<svg version="1.1" xmlns="http://www.w3.org/2000/svg" xmlns:xlink="http://www.w3.org/1999/xlink" width="18.3398" height="17.998" viewBox="0 0 18.3398 17.998">
 <g>
  <rect height="17.998" opacity="0" width="18.3398" x="0" y="0"/>
  <path d="M17.9785 3.04688L17.9785 14.9707C17.9785 16.9824 16.9629 17.998 14.9121 17.998L3.06641 17.998C1.02539 17.998 0 16.9922 0 14.9707L0 3.04688C0 1.02539 1.02539 0.0195312 3.06641 0.0195312L14.9121 0.0195312C16.9629 0.0195312 17.9785 1.03516 17.9785 3.04688ZM6.68945 5.22461C6.68945 6.25 7.37305 7.10938 8.29102 7.40234L8.29102 12.4512C8.29102 13.9258 8.53516 15.2441 8.99414 15.2441C9.46289 15.2441 9.6875 13.9453 9.6875 12.4512L9.6875 7.40234C10.625 7.11914 11.2988 6.25977 11.2988 5.22461C11.2988 3.95508 10.2637 2.92969 8.99414 2.92969C7.73438 2.92969 6.68945 3.95508 6.68945 5.22461ZM9.13086 4.62891C9.13086 5.0293 8.79883 5.37109 8.39844 5.37109C8.01758 5.37109 7.67578 5.0293 7.67578 4.62891C7.66602 4.23828 8.01758 3.89648 8.39844 3.89648C8.79883 3.89648 9.14062 4.23828 9.13086 4.62891Z" fill="var(--color-primary)"/>
 </g>
</svg>
