<svg version="1.1" xmlns="http://www.w3.org/2000/svg" xmlns:xlink="http://www.w3.org/1999/xlink" width="20.2832" height="19.9316" viewBox="0 0 20.2832 19.9316">
 <g>
  <rect height="19.9316" opacity="0" width="20.2832" x="0" y="0"/>
  <path d="M9.96094 19.9316C15.4102 19.9316 19.9219 15.4199 19.9219 9.9707C19.9219 4.53125 15.4004 0.00976562 9.95117 0.00976562C4.51172 0.00976562 0 4.53125 0 9.9707C0 15.4199 4.52148 19.9316 9.96094 19.9316Z" fill="var(--color-tertiary)"/>
  <path d="M10.6543 12.3145L10.6543 13.4277C10.6543 14.9316 10.4297 16.2305 9.96094 16.2305C9.50195 16.2305 9.25781 14.9023 9.25781 13.4277L9.25781 10.918ZM5.41992 4.77539L15.166 14.5215C15.3418 14.6973 15.3418 14.9707 15.166 15.166C14.9902 15.332 14.6875 15.332 14.5215 15.166L4.77539 5.41992C4.59961 5.25391 4.59961 4.96094 4.77539 4.77539C4.96094 4.59961 5.24414 4.59961 5.41992 4.77539ZM12.2656 6.20117C12.2656 7.24609 11.582 8.10547 10.6543 8.37891L10.6543 8.99917L7.66586 6.01372C7.76098 4.83195 8.76398 3.90625 9.96094 3.90625C11.2305 3.90625 12.2656 4.93164 12.2656 6.20117ZM8.64258 5.61523C8.64258 6.00586 8.98438 6.34766 9.36523 6.34766C9.76562 6.34766 10.0977 6.00586 10.0977 5.61523C10.0977 5.21484 9.76562 4.87305 9.36523 4.87305C8.98438 4.87305 8.63281 5.21484 8.64258 5.61523Z" fill="var(--color-primary)"/>
 </g>
</svg>
