<svg version="1.1" xmlns="http://www.w3.org/2000/svg" xmlns:xlink="http://www.w3.org/1999/xlink" width="21.6064" height="21.5186" viewBox="0 0 21.6064 21.5186">
 <g>
  <rect height="21.5186" opacity="0" width="21.6064" x="0" y="0"/>
  <path d="M14.7583 1.34033L20.1782 6.77002L20.2271 6.72119C21.6919 5.26611 21.5259 2.95166 20.0513 1.48682C18.5767 0.012207 16.2622-0.153809 14.8071 1.2915ZM1.88721 17.7856L3.73291 19.6313L4.95361 18.4106C7.41455 15.9595 10.2954 16.6626 12.8638 14.0942L19.397 7.56104L13.9575 2.12158L7.42432 8.66455C4.73877 11.3501 5.56885 14.104 3.10791 16.5649ZM10.5981 10.9692C9.96338 10.3345 9.98291 9.33838 10.5981 8.72314L13.5474 5.75439C14.1626 5.13916 15.1587 5.11963 15.7642 5.75439C16.3989 6.3501 16.3989 7.33643 15.7642 7.97119L12.8149 10.9497C12.1997 11.5649 11.2036 11.5747 10.5981 10.9692ZM8.479 11.9263C8.20557 11.6724 8.26416 11.311 8.479 11.0864C8.70361 10.8521 9.04541 10.8325 9.30908 11.0864L10.4419 12.2095C10.7056 12.4634 10.6665 12.8247 10.4419 13.0591C10.2271 13.2739 9.87549 13.3032 9.60205 13.0396ZM11.3013 10.2466C11.5454 10.4907 11.9067 10.5591 12.1704 10.3052L15.1294 7.32666C15.3931 7.06299 15.3149 6.70166 15.0708 6.46729C14.8071 6.22314 14.436 6.19385 14.1724 6.45752L11.3013 9.33838C11.0474 9.59229 11.0474 9.99268 11.3013 10.2466ZM0.432129 21.0864C0.98877 21.6626 1.73096 21.6626 2.29736 21.0864L2.80518 20.5884L0.939941 18.7231L0.432129 19.231C-0.144043 19.8071-0.144043 20.5396 0.432129 21.0864Z" fill="currentColor"/>
 </g>
</svg>
