<svg version="1.1" xmlns="http://www.w3.org/2000/svg" xmlns:xlink="http://www.w3.org/1999/xlink" width="18.96" height="22.0996" viewBox="0 0 18.96 22.0996">
 <g>
  <rect height="22.0996" opacity="0" width="18.96" x="0" y="0"/>
  <path d="M3.7915 8.24219L3.7915 10.166C3.7915 13.4961 5.95947 15.7031 9.29932 15.7031C10.305 15.7031 11.2053 15.503 11.97 15.1291L13.0109 16.1679C12.1527 16.654 11.1499 16.9577 10.0415 17.0508L10.0415 19.3262L13.6646 19.3262C14.0747 19.3262 14.397 19.6582 14.397 20.0684C14.397 20.4785 14.0747 20.8008 13.6646 20.8008L4.93408 20.8008C4.52393 20.8008 4.20166 20.4785 4.20166 20.0684C4.20166 19.6582 4.52393 19.3262 4.93408 19.3262L8.56689 19.3262L8.56689 17.0508C4.83643 16.7383 2.31689 14.0527 2.31689 10.2246L2.31689 8.24219C2.31689 7.83203 2.63916 7.50977 3.04932 7.50977C3.45947 7.50977 3.7915 7.83203 3.7915 8.24219ZM10.2997 13.462C9.99086 13.555 9.65583 13.6035 9.29932 13.6035C7.35596 13.6035 6.0376 12.1484 6.0376 10.0684L6.0376 9.20811ZM16.2915 8.24219L16.2915 10.2246C16.2915 11.4076 16.05 12.4814 15.6051 13.4089L14.475 12.2803C14.7003 11.6468 14.8169 10.9365 14.8169 10.166L14.8169 8.24219C14.8169 7.83203 15.1392 7.50977 15.5493 7.50977C15.9595 7.50977 16.2915 7.83203 16.2915 8.24219ZM12.561 3.53516L12.561 10.0684C12.561 10.1666 12.5581 10.2634 12.5496 10.3574L6.0376 3.8538L6.0376 3.53516C6.0376 1.44531 7.35596 0 9.29932 0C11.2524 0 12.561 1.44531 12.561 3.53516Z" fill="var(--color-primary)"/>
  <path d="M16.4771 18.0176C16.77 18.3105 17.2485 18.3105 17.5415 18.0176C17.8247 17.7148 17.8345 17.2461 17.5415 16.9531L2.43408 1.85547C2.14111 1.57227 1.65283 1.5625 1.35986 1.85547C1.07666 2.14844 1.07666 2.63672 1.35986 2.91992Z" fill="var(--color-primary)"/>
 </g>
</svg>
