<?xml version="1.0" encoding="UTF-8"?>
<!--Generator: Apple Native CoreSVG 232.5-->
<!DOCTYPE svg
PUBLIC "-//W3C//DTD SVG 1.1//EN"
       "http://www.w3.org/Graphics/SVG/1.1/DTD/svg11.dtd">
<svg version="1.1" xmlns="http://www.w3.org/2000/svg" xmlns:xlink="http://www.w3.org/1999/xlink" width="20.2832" height="19.9316">
 <g>
  <rect height="19.9316" opacity="0" width="20.2832" x="0" y="0"/>
  <path d="M9.96094 19.9219C15.4102 19.9219 19.9219 15.4004 19.9219 9.96094C19.9219 4.51172 15.4004 0 9.95117 0C4.51172 0 0 4.51172 0 9.96094C0 15.4004 4.52148 19.9219 9.96094 19.9219Z" fill="#ffffff" fill-opacity="0.25"/>
  <path d="M9.9707 13.4375C8.05664 13.4375 6.49414 11.875 6.49414 9.96094C6.49414 8.04688 8.05664 6.48438 9.9707 6.48438C11.8848 6.48438 13.4473 8.04688 13.4473 9.96094C13.4473 11.875 11.8848 13.4375 9.9707 13.4375ZM9.98047 5.57617C9.57031 5.57617 9.26758 5.27344 9.26758 4.84375C9.26758 4.43359 9.57031 4.13086 9.98047 4.13086C10.3906 4.13086 10.6934 4.43359 10.6934 4.84375C10.6934 5.27344 10.3906 5.57617 9.98047 5.57617ZM12.5488 6.25C12.1289 6.25 11.8262 5.94727 11.8262 5.52734C11.8262 5.11719 12.1289 4.81445 12.5488 4.81445C12.959 4.81445 13.2617 5.11719 13.2617 5.52734C13.2617 5.94727 12.959 6.25 12.5488 6.25ZM14.4141 8.125C13.9941 8.125 13.6914 7.82227 13.6914 7.40234C13.6914 6.99219 13.9941 6.68945 14.4141 6.68945C14.8242 6.68945 15.127 6.99219 15.127 7.40234C15.127 7.82227 14.8242 8.125 14.4141 8.125ZM15.0977 10.6738C14.6777 10.6738 14.375 10.3711 14.375 9.96094C14.375 9.55078 14.6777 9.24805 15.0977 9.24805C15.5078 9.24805 15.8105 9.55078 15.8105 9.96094C15.8105 10.3711 15.5078 10.6738 15.0977 10.6738ZM14.4141 13.2324C13.9941 13.2324 13.6914 12.9297 13.6914 12.5195C13.6914 12.0996 13.9941 11.7969 14.4141 11.7969C14.8242 11.7969 15.127 12.0996 15.127 12.5195C15.127 12.9297 14.8242 13.2324 14.4141 13.2324ZM12.5488 15.1074C12.1289 15.1074 11.8262 14.8047 11.8262 14.3848C11.8262 13.9648 12.1289 13.6621 12.5488 13.6621C12.959 13.6621 13.2617 13.9648 13.2617 14.3848C13.2617 14.8047 12.959 15.1074 12.5488 15.1074ZM9.98047 15.7812C9.57031 15.7812 9.26758 15.4785 9.26758 15.0684C9.26758 14.6484 9.57031 14.3457 9.98047 14.3457C10.3906 14.3457 10.6934 14.6484 10.6934 15.0684C10.6934 15.4785 10.3906 15.7812 9.98047 15.7812ZM7.42188 15.1074C7.01172 15.1074 6.70898 14.8047 6.70898 14.3848C6.70898 13.9648 7.01172 13.6621 7.42188 13.6621C7.8418 13.6621 8.14453 13.9648 8.14453 14.3848C8.14453 14.8047 7.8418 15.1074 7.42188 15.1074ZM5.54688 13.2324C5.13672 13.2324 4.83398 12.9297 4.83398 12.5195C4.83398 12.0996 5.13672 11.7969 5.54688 11.7969C5.97656 11.7969 6.2793 12.0996 6.2793 12.5195C6.2793 12.9297 5.97656 13.2324 5.54688 13.2324ZM4.87305 10.6738C4.46289 10.6738 4.16016 10.3711 4.16016 9.96094C4.16016 9.55078 4.46289 9.24805 4.87305 9.24805C5.29297 9.24805 5.5957 9.55078 5.5957 9.96094C5.5957 10.3711 5.29297 10.6738 4.87305 10.6738ZM5.54688 8.125C5.13672 8.125 4.83398 7.82227 4.83398 7.40234C4.83398 6.99219 5.13672 6.68945 5.54688 6.68945C5.97656 6.68945 6.2793 6.99219 6.2793 7.40234C6.2793 7.82227 5.97656 8.125 5.54688 8.125ZM7.42188 6.25C7.01172 6.25 6.70898 5.94727 6.70898 5.52734C6.70898 5.11719 7.01172 4.81445 7.42188 4.81445C7.8418 4.81445 8.14453 5.11719 8.14453 5.52734C8.14453 5.94727 7.8418 6.25 7.42188 6.25Z" fill="#ffffff" fill-opacity="0.85"/>
 </g>
</svg>
