<svg version="1.1" xmlns="http://www.w3.org/2000/svg" xmlns:xlink="http://www.w3.org/1999/xlink" width="14.375" height="22.8418" viewBox="0 0 14.375 22.8418">
 <g>
  <rect height="22.8418" opacity="0" width="14.375" x="0" y="0"/>
  <path d="M0.869141 17.8516C1.41602 17.8516 1.75781 17.4805 1.75781 16.9531L1.75781 9.83398C1.75781 8.10547 2.62695 6.70898 4.0918 6.70898C5.47852 6.70898 6.12305 7.7832 6.12305 9.21875L6.12305 16.9531C6.12305 17.4805 6.45508 17.8516 6.99219 17.8516C7.53906 17.8516 7.88086 17.4805 7.88086 16.9531L7.88086 9.63867C7.88086 7.97852 8.73047 6.70898 10.1953 6.70898C11.6504 6.70898 12.2559 7.77344 12.2559 9.375L12.2559 16.9531C12.2559 17.4805 12.5879 17.8516 13.125 17.8516C13.6719 17.8516 14.0137 17.4805 14.0137 16.9531L14.0137 8.98438C14.0137 6.71875 12.7832 5.15625 10.6348 5.15625C9.02344 5.15625 7.8125 6.11328 7.4707 7.57812L7.43164 7.57812C7.11914 6.06445 6.13281 5.15625 4.52148 5.15625C3.04688 5.15625 2.04102 6.09375 1.69922 7.5L1.66016 7.5L1.66016 6.08398C1.66016 5.56641 1.29883 5.20508 0.830078 5.20508C0.332031 5.20508 0 5.56641 0 6.08398L0 16.9531C0 17.4805 0.332031 17.8516 0.869141 17.8516ZM1.47461 22.8418C1.82617 22.8418 1.99219 22.6367 2.11914 22.334L10.9863 1.34766C11.0449 1.23047 11.0742 1.08398 11.0742 0.966797C11.0742 0.615234 10.8203 0.390625 10.4688 0.390625C10.1465 0.390625 9.96094 0.595703 9.83398 0.898438L0.966797 21.8945C0.908203 22.002 0.878906 22.1484 0.878906 22.2754C0.878906 22.627 1.13281 22.8418 1.47461 22.8418Z" fill="var(--color-primary)"/>
 </g>
</svg>
