<svg version="1.1" xmlns="http://www.w3.org/2000/svg" xmlns:xlink="http://www.w3.org/1999/xlink" width="23.7939" height="23.4424" viewBox="0 0 23.7939 23.4424">
 <g>
  <rect height="23.4424" opacity="0" width="23.7939" x="0" y="0"/>
  <path d="M18.0178 20.7007L3.27393 20.7007C1.23291 20.7007 0.20752 19.6948 0.20752 17.6831L0.20752 8.23977C0.20752 6.4746 0.996978 5.48385 2.56975 5.26796ZM9.85596 3.9136L9.85596 5.22219L13.5864 5.22219L13.5864 3.9136C13.5864 3.17141 14.0063 2.72219 14.7583 2.72219L17.6392 2.72219C18.3911 2.72219 18.8208 3.17141 18.8208 3.9136L18.8208 5.22219L20.1685 5.22219C22.2192 5.22219 23.2349 6.22805 23.2349 8.23977L23.2349 17.6831C23.2349 18.6405 23.0048 19.3701 22.5398 19.8691L17.0728 14.4048L17.0728 13.7085L18.6255 13.7085C19.0454 13.7085 19.3774 13.3863 19.3774 12.9663C19.3774 12.5366 19.0454 12.2144 18.6255 12.2144L17.0728 12.2144L17.0728 10.6616C17.0728 10.2417 16.7505 9.90969 16.3306 9.90969C15.9204 9.90969 15.5786 10.2417 15.5786 10.6616L15.5786 12.2144L14.8813 12.2144L5.42799 2.76579C5.54186 2.73688 5.66727 2.72219 5.80322 2.72219L8.68408 2.72219C9.43604 2.72219 9.85596 3.17141 9.85596 3.9136ZM4.99268 12.2144C4.57275 12.2144 4.24072 12.5366 4.24072 12.9663C4.24072 13.3863 4.57275 13.7085 4.99268 13.7085L9.18213 13.7085C9.60205 13.7085 9.92432 13.3863 9.92432 12.9663C9.92432 12.5366 9.60205 12.2144 9.18213 12.2144Z" fill="currentColor"/>
  <path d="M21.0083 22.0777C21.311 22.3706 21.7896 22.3804 22.0728 22.0777C22.3657 21.7847 22.3755 21.3062 22.0728 21.0132L2.43408 1.3843C2.14111 1.09133 1.65283 1.08157 1.35986 1.3843C1.06689 1.6675 1.06689 2.15579 1.35986 2.44875Z" fill="currentColor"/>
 </g>
</svg>
