<svg version="1.1" xmlns="http://www.w3.org/2000/svg" xmlns:xlink="http://www.w3.org/1999/xlink" width="18.8379" height="18.4473" viewBox="0 0 18.8379 18.4473">
 <g>
  <rect height="18.4473" opacity="0" width="18.8379" x="0" y="0"/>
  <path d="M0.693359 5.53711L6.04492 5.53711C6.42578 5.53711 6.73828 5.23438 6.73828 4.85352C6.73828 4.47266 6.42578 4.16016 6.04492 4.16016L0.693359 4.16016C0.302734 4.16016 0 4.47266 0 4.85352C0 5.23438 0.302734 5.53711 0.693359 5.53711ZM3.51562 18.4473C3.83789 18.4473 4.02344 18.3105 4.27734 17.9492L10 9.46289L15.5664 1.24023C15.7031 1.05469 15.752 0.888672 15.752 0.693359C15.752 0.302734 15.4102 0 15.0098 0C14.668 0 14.4824 0.107422 14.209 0.507812L8.62305 8.79883L2.92969 17.1875C2.80273 17.373 2.73438 17.5293 2.73438 17.7441C2.73438 18.1641 3.08594 18.4473 3.51562 18.4473ZM11.7383 14.1797C11.7383 14.5605 12.041 14.8633 12.4219 14.8633L14.4238 14.8633L14.4238 16.8652C14.4238 17.2461 14.7266 17.5488 15.1074 17.5488C15.4883 17.5488 15.8008 17.2461 15.8008 16.8652L15.8008 14.8633L17.7832 14.8633C18.1641 14.8633 18.4766 14.5605 18.4766 14.1797C18.4766 13.7988 18.1641 13.4863 17.7832 13.4863L15.8008 13.4863L15.8008 11.5039C15.8008 11.1133 15.4785 10.8105 15.1074 10.8105C14.7168 10.8105 14.4238 11.123 14.4238 11.5039L14.4238 13.4863L12.4219 13.4863C12.041 13.4863 11.7383 13.7988 11.7383 14.1797Z" fill="currentColor"/>
 </g>
</svg>
