<svg version="1.1" xmlns="http://www.w3.org/2000/svg" xmlns:xlink="http://www.w3.org/1999/xlink" width="32.9004" height="15.127" viewBox="0 0 32.9004 15.127">
 <g>
  <rect height="15.127" opacity="0" width="32.9004" x="0" y="0"/>
  <path d="M21.9629 0.507812C25.4682 0.939237 27.7641 2.71989 28.5707 5.5957L26.8963 5.5957C26.1421 3.61883 24.4017 2.38783 21.8262 2.08984C18.623 1.72852 13.0371 1.57227 9.9707 1.57227C8.28125 1.57227 7.59766 2.25586 7.75391 3.65234L8.52539 10.5859C8.71094 12.2266 9.41406 12.8223 11.2109 12.8223L22.3535 12.8223C24.7943 12.8223 26.475 11.8027 27.0777 9.88281L28.7249 9.88281C28.1054 12.8278 25.8206 14.3945 22.3242 14.3945L7.49023 14.3945C5.98633 14.3945 4.70703 14.541 3.50586 14.8438C2.49023 15.0977 1.67969 14.6777 1.67969 13.6328L1.67969 8.95508C1.67969 8.29102 2.1582 7.80273 2.83203 7.80273L5.35156 7.80273C6.17188 7.80273 6.57227 7.45117 6.49414 6.68945L6.20117 3.82812C5.95703 1.44531 7.31445 0 9.9707 0C13.0469 0.00976562 18.7109 0.126953 21.9629 0.507812Z" fill="var(--color-primary)"/>
  <path d="M32.0703 5.49805L32.0703 4.20898C32.0703 3.75 31.6992 3.36914 31.2402 3.36914C30.7812 3.36914 30.4102 3.75 30.4102 4.20898L30.4102 5.49805C30.4102 6.39648 29.834 6.92383 28.8574 6.92383L23.6719 6.92383L23.6719 5.85938C23.6719 5.19531 23.2031 4.94141 22.6367 5.3418L19.9316 7.19727C19.4824 7.5 19.4824 8.03711 19.9316 8.33984L22.6562 10.1953C23.2031 10.5762 23.6719 10.3418 23.6719 9.67773L23.6719 8.55469L28.8574 8.55469C30.8789 8.55469 32.0703 7.41211 32.0703 5.49805Z" fill="var(--color-primary)"/>
 </g>
</svg>
