<svg version="1.1" xmlns="http://www.w3.org/2000/svg" xmlns:xlink="http://www.w3.org/1999/xlink" width="25.3906" height="20.4004" viewBox="0 0 25.3906 20.4004">
 <g>
  <rect height="20.4004" opacity="0" width="25.3906" x="0" y="0"/>
  <path d="M5.47852 17.6758L18.6133 17.6758C18.9648 17.2266 19.2773 16.7285 19.5117 16.1719C19.6875 15.7617 19.6582 15.4199 19.4434 15.2051C19.2676 15.0195 18.9648 15 18.6133 15.127C17.8906 15.4004 17.0312 15.5371 16.0059 15.5371C11.8555 15.5371 9.22852 12.9883 9.22852 8.92578C9.22852 7.88086 9.42383 6.71875 9.7168 6.12305C9.90234 5.75195 9.90234 5.39062 9.69727 5.18555C9.49219 4.96094 9.15039 4.88281 8.7207 5.06836C5.83008 6.25977 3.87695 9.26758 3.87695 12.7344C3.87695 14.6191 4.45312 16.3281 5.47852 17.6758Z" fill="var(--color-secondary)"/>
  <path d="M0.849609 20.3809L24.1797 20.3809C24.6387 20.3809 25.0293 20.0293 25.0293 19.5996C25.0293 19.1699 24.6387 18.8184 24.1797 18.8184L0.849609 18.8184C0.390625 18.8184 0 19.1699 0 19.5996C0 20.0293 0.390625 20.3809 0.849609 20.3809Z" fill="var(--color-primary)"/>
  <path d="M17.4609 0C17.0312 0 16.6602 0.390625 16.6602 0.869141L16.6602 5.80078L16.7773 7.27539L16.1523 6.5332L14.834 5.20508C14.6973 5.06836 14.502 4.98047 14.3164 4.98047C13.9258 4.98047 13.6426 5.25391 13.6426 5.63477C13.6426 5.83984 13.7109 5.99609 13.877 6.15234L16.9238 8.99414C17.1387 9.17969 17.2754 9.24805 17.4609 9.24805C17.6367 9.24805 17.7832 9.17969 17.9883 8.99414L21.0352 6.15234C21.2012 5.99609 21.2695 5.83984 21.2695 5.63477C21.2695 5.25391 20.9863 4.98047 20.5957 4.98047C20.4102 4.98047 20.2246 5.06836 20.0781 5.20508L18.8574 6.43555L18.1348 7.27539L18.252 5.80078L18.252 0.869141C18.252 0.390625 17.8906 0 17.4609 0Z" fill="var(--color-primary)"/>
 </g>
</svg>
