<svg version="1.1" xmlns="http://www.w3.org/2000/svg" xmlns:xlink="http://www.w3.org/1999/xlink" width="20.2832" height="19.9316" viewBox="0 0 20.2832 19.9316">
 <g>
  <rect height="19.9316" opacity="0" width="20.2832" x="0" y="0"/>
  <path d="M19.9219 9.9707C19.9219 15.4199 15.4102 19.9316 9.96094 19.9316C4.52148 19.9316 0 15.4199 0 9.9707C0 4.53125 4.51172 0.00976562 9.95117 0.00976562C15.4004 0.00976562 19.9219 4.53125 19.9219 9.9707ZM5.77148 15.5078C5.77148 15.7715 5.99609 15.9863 6.25 15.9863C6.51367 15.9863 6.73828 15.7715 6.73828 15.5078C6.73828 15.2539 6.51367 15.0293 6.25 15.0293C5.99609 15.0293 5.77148 15.2539 5.77148 15.5078ZM8.25195 15.5078C8.25195 15.7715 8.4668 15.9863 8.73047 15.9863C8.99414 15.9863 9.20898 15.7715 9.20898 15.5078C9.20898 15.2539 8.99414 15.0293 8.73047 15.0293C8.4668 15.0293 8.25195 15.2539 8.25195 15.5078ZM10.7129 15.5078C10.7129 15.7715 10.9375 15.9863 11.2012 15.9863C11.4648 15.9863 11.6797 15.7715 11.6797 15.5078C11.6797 15.2539 11.4648 15.0293 11.2012 15.0293C10.9375 15.0293 10.7129 15.2539 10.7129 15.5078ZM13.1836 15.5078C13.1836 15.7715 13.4082 15.9863 13.6719 15.9863C13.9258 15.9863 14.1504 15.7715 14.1504 15.5078C14.1504 15.2539 13.9258 15.0293 13.6719 15.0293C13.4082 15.0293 13.1836 15.2539 13.1836 15.5078ZM4.54102 14.1504C4.54102 14.4141 4.76562 14.6387 5.0293 14.6387C5.29297 14.6387 5.50781 14.4141 5.50781 14.1504C5.50781 13.8867 5.29297 13.6719 5.0293 13.6719C4.76562 13.6719 4.54102 13.8867 4.54102 14.1504ZM7.02148 14.1504C7.02148 14.4141 7.23633 14.6387 7.5 14.6387C7.76367 14.6387 7.97852 14.4141 7.97852 14.1504C7.97852 13.8867 7.76367 13.6719 7.5 13.6719C7.23633 13.6719 7.02148 13.8867 7.02148 14.1504ZM9.48242 14.1504C9.48242 14.4141 9.70703 14.6387 9.9707 14.6387C10.2344 14.6387 10.459 14.4141 10.459 14.1504C10.459 13.8867 10.2344 13.6719 9.9707 13.6719C9.70703 13.6719 9.48242 13.8867 9.48242 14.1504ZM11.9629 14.1504C11.9629 14.4141 12.1777 14.6387 12.4414 14.6387C12.7051 14.6387 12.9199 14.4141 12.9199 14.1504C12.9199 13.8867 12.7051 13.6719 12.4414 13.6719C12.1777 13.6719 11.9629 13.8867 11.9629 14.1504ZM14.4336 14.1504C14.4336 14.4141 14.6582 14.6387 14.9121 14.6387C15.1758 14.6387 15.3906 14.4141 15.3906 14.1504C15.3906 13.8867 15.1758 13.6719 14.9121 13.6719C14.6582 13.6719 14.4336 13.8867 14.4336 14.1504ZM4.31641 11.7383C4.00391 11.7383 3.73047 11.9727 3.73047 12.2852C3.73047 12.5977 4.01367 12.8418 4.31641 12.8418L15.5957 12.8418C15.9082 12.8418 16.1914 12.5977 16.1914 12.2852C16.1914 11.9727 15.918 11.7383 15.5957 11.7383ZM7.87109 3.83789C6.2207 4.51172 5.10742 6.24023 5.10742 8.23242C5.10742 9.28711 5.41016 10.2344 5.98633 11.0059L13.5742 11.0059C13.7793 10.7617 13.916 10.4883 14.0527 10.1855C14.1602 9.94141 14.1406 9.73633 14.0039 9.59961C13.9062 9.51172 13.7305 9.48242 13.5156 9.56055C13.1152 9.72656 12.6172 9.80469 12.041 9.80469C9.67773 9.80469 8.20312 8.34961 8.20312 6.06445C8.20312 5.43945 8.29102 4.79492 8.4668 4.45312C8.58398 4.24805 8.56445 4.04297 8.4668 3.89648C8.35938 3.75977 8.11523 3.73047 7.87109 3.83789Z" fill="currentColor"/>
 </g>
</svg>
