<svg version="1.1" xmlns="http://www.w3.org/2000/svg" xmlns:xlink="http://www.w3.org/1999/xlink" width="25.3906" height="20.4004" viewBox="0 0 25.3906 20.4004">
 <g>
  <rect height="20.4004" opacity="0" width="25.3906" x="0" y="0"/>
  <path d="M5.47852 17.6758L18.6133 17.6758C18.9648 17.2266 19.2773 16.7285 19.5117 16.1719C19.6875 15.7617 19.6582 15.4199 19.4434 15.2051C19.2676 15.0195 18.9648 15 18.6133 15.127C17.8906 15.4004 17.0312 15.5371 16.0059 15.5371C11.8555 15.5371 9.22852 12.9883 9.22852 8.92578C9.22852 7.88086 9.42383 6.71875 9.7168 6.12305C9.90234 5.75195 9.90234 5.39062 9.69727 5.18555C9.49219 4.96094 9.15039 4.88281 8.7207 5.06836C5.83008 6.25977 3.87695 9.26758 3.87695 12.7344C3.87695 14.6191 4.45312 16.3281 5.47852 17.6758Z" fill="var(--color-primary)"/>
  <path d="M0.849609 20.3809L24.1797 20.3809C24.6387 20.3809 25.0293 20.0293 25.0293 19.5996C25.0293 19.1699 24.6387 18.8184 24.1797 18.8184L0.849609 18.8184C0.390625 18.8184 0 19.1699 0 19.5996C0 20.0293 0.390625 20.3809 0.849609 20.3809Z" fill="var(--color-primary)"/>
  <path d="M17.4609 9.24805C17.8906 9.24805 18.252 8.85742 18.252 8.37891L18.252 3.44727L18.1348 1.97266L18.8574 2.80273L20.0781 4.04297C20.2246 4.17969 20.4102 4.26758 20.5957 4.26758C20.9863 4.26758 21.2695 3.99414 21.2695 3.61328C21.2695 3.4082 21.2012 3.25195 21.0352 3.0957L17.9883 0.253906C17.7832 0.0683594 17.6367 0 17.4609 0C17.2754 0 17.1387 0.0683594 16.9238 0.253906L13.877 3.0957C13.7109 3.25195 13.6426 3.4082 13.6426 3.61328C13.6426 3.99414 13.9258 4.26758 14.3164 4.26758C14.502 4.26758 14.6973 4.17969 14.834 4.04297L16.1523 2.70508L16.7773 1.97266L16.6602 3.44727L16.6602 8.37891C16.6602 8.85742 17.0312 9.24805 17.4609 9.24805Z" fill="var(--color-primary)"/>
 </g>
</svg>
