<svg version="1.1" xmlns="http://www.w3.org/2000/svg" xmlns:xlink="http://www.w3.org/1999/xlink" width="20.2832" height="19.9316" viewBox="0 0 20.2832 19.9316">
 <g>
  <rect height="19.9316" opacity="0" width="20.2832" x="0" y="0"/>
  <path d="M1.66992 9.96094C1.66992 5.68359 4.83398 2.20703 8.95508 1.72852C11.748 3.37891 13.3105 6.2793 13.3105 9.96094C13.3105 13.6426 11.7578 16.5332 8.99414 18.1934C4.85352 17.7246 1.66992 14.2383 1.66992 9.96094Z" fill="var(--color-secondary)"/>
  <path d="M0 9.96094C0 15.4004 4.52148 19.9219 9.96094 19.9219C15.4102 19.9219 19.9219 15.4004 19.9219 9.96094C19.9219 4.52148 15.4004 0 9.95117 0C4.51172 0 0 4.51172 0 9.96094ZM1.66992 9.96094C1.66992 5.68359 4.83398 2.20703 8.95508 1.72852C11.748 3.37891 13.3105 6.2793 13.3105 9.96094C13.3105 13.6426 11.7578 16.5332 8.99414 18.1934C4.85352 17.7246 1.66992 14.2383 1.66992 9.96094Z" fill="var(--color-primary)"/>
 </g>
</svg>
