<svg version="1.1" xmlns="http://www.w3.org/2000/svg" xmlns:xlink="http://www.w3.org/1999/xlink" width="20.2832" height="19.9316" viewBox="0 0 20.2832 19.9316">
 <g>
  <rect height="19.9316" opacity="0" width="20.2832" x="0" y="0"/>
  <path d="M18.252 9.96094C18.252 14.2383 15.0684 17.7246 10.9277 18.1934C8.16406 16.5332 6.61133 13.6426 6.61133 9.96094C6.61133 6.2793 8.17383 3.37891 10.9766 1.72852C15.0879 2.20703 18.252 5.68359 18.252 9.96094Z" fill="none"/>
  <path d="M19.9219 9.96094C19.9219 4.51172 15.4199 0 9.9707 0C4.53125 0 0 4.52148 0 9.96094C0 15.4004 4.52148 19.9219 9.96094 19.9219C15.4102 19.9219 19.9219 15.4004 19.9219 9.96094ZM18.252 9.96094C18.252 14.2383 15.0684 17.7246 10.9277 18.1934C8.16406 16.5332 6.61133 13.6426 6.61133 9.96094C6.61133 6.2793 8.17383 3.37891 10.9766 1.72852C15.0879 2.20703 18.252 5.68359 18.252 9.96094Z" fill="currentColor"/>
 </g>
</svg>
