<svg version="1.1" xmlns="http://www.w3.org/2000/svg" xmlns:xlink="http://www.w3.org/1999/xlink" width="36.6595" height="20.2441" viewBox="0 0 36.6595 20.2441">
 <g>
  <rect height="20.2441" opacity="0" width="36.6595" x="0" y="0"/>
  <path d="M12.116 12.4577L10.029 15.2051C9.12758 16.3808 9.09925 17.8646 9.78161 18.916L2.78287 18.916C0.927406 18.916 0.487953 17.1191 1.53287 15.8203L4.86295 11.6992C5.79069 11.7578 6.21061 12.8027 7.69498 12.8027C9.15983 12.8027 9.74577 11.6406 10.5563 11.6406C11.0684 11.6406 11.4926 12.1158 12.116 12.4577ZM12.236 6.72852L14.4139 9.43279L12.8171 11.5348C12.2405 11.2052 11.5917 10.5664 10.5563 10.5664C9.15006 10.5664 8.4567 11.7285 7.69498 11.7285C7.12858 11.7285 6.57194 10.9863 5.63444 10.752L8.87662 6.72852C9.37467 6.10352 9.97037 5.79102 10.5563 5.79102C11.1325 5.79102 11.7282 6.10352 12.236 6.72852Z" fill="var(--color-primary)"/>
  <path d="M19.7067 9.23828C20.5856 9.23828 21.3766 7.91016 22.988 7.91016C24.5895 7.91016 25.3805 9.23828 26.2594 9.23828C26.9821 9.23828 27.6559 8.31055 28.8083 8.02734L24.6774 2.60742C23.7204 1.34766 22.2555 1.32812 21.2887 2.60742L17.1579 8.02734C18.3102 8.32031 18.9938 9.23828 19.7067 9.23828ZM12.4118 18.916L33.5641 18.916C35.3317 18.916 35.7614 17.168 34.8825 16.0156L29.6579 9.16992C28.486 9.27734 27.8512 10.459 26.2594 10.459C24.5895 10.459 23.9157 9.13086 22.988 9.13086C22.0505 9.13086 21.3766 10.459 19.7067 10.459C18.1149 10.459 17.4801 9.27734 16.318 9.16992L11.0837 16.0156C10.2047 17.168 10.6344 18.916 12.4118 18.916Z" fill="var(--color-primary)"/>
 </g>
</svg>
