<svg version="1.1" xmlns="http://www.w3.org/2000/svg" xmlns:xlink="http://www.w3.org/1999/xlink" width="23.1697" height="24.8386" viewBox="0 0 23.1697 24.8386">
 <g>
  <rect height="24.8386" opacity="0" width="23.1697" x="0" y="0"/>
  <path d="M21.3407 2.19958L21.5946 3.15661C21.8583 4.182 21.37 5.07067 20.2958 5.35388L9.59264 8.22497L20.9989 8.22497C22.1024 8.22497 22.8055 8.9281 22.8055 10.0121L22.8055 19.1234C22.8055 21.0375 21.8387 22.014 19.8758 22.014L3.82115 22.014C1.86803 22.014 0.881701 21.0472 0.881701 19.1234L0.881701 10.5687L0.149279 7.88317C-0.339002 6.03747 0.373888 4.8363 2.23912 4.32849L17.7469 0.158566C19.6219-0.339481 20.8622 0.334347 21.3407 2.19958ZM2.40514 13.8597L2.40514 19.0355C2.40514 19.9925 2.92272 20.4906 3.84069 20.4906L19.8465 20.4906C20.7645 20.4906 21.2919 19.9925 21.2919 19.0355L21.2919 13.8597ZM7.19029 9.74841L4.64147 9.8656L3.24498 12.4633L6.45787 12.4633L7.92272 9.74841ZM10.9012 9.74841L9.44615 12.4633L12.8934 12.4633L14.3583 9.74841ZM17.3368 9.74841L15.8817 12.4633L19.0848 12.4633L20.5497 9.74841ZM3.50865 5.56872L2.77623 8.56677L5.89147 7.72692L6.59459 4.72888ZM9.48522 3.95739L8.78209 6.95544L12.1122 6.07653L12.8153 3.06872ZM18.0497 1.65271L15.6962 2.29724L14.9833 5.29528L18.0887 4.46521L18.7821 1.48669C18.5477 1.53552 18.3036 1.58435 18.0497 1.65271Z" fill="var(--color-primary)"/>
 </g>
</svg>
