<svg version="1.1" xmlns="http://www.w3.org/2000/svg" xmlns:xlink="http://www.w3.org/1999/xlink" width="23.6719" height="22.1631" viewBox="0 0 23.6719 22.1631">
 <g>
  <rect height="22.1631" opacity="0" width="23.6719" x="0" y="0"/>
  <path d="M5.01953 20.5103L18.2324 20.5103C19.6191 20.5103 20.4297 19.7192 20.4297 18.3521L20.4297 7.56104L18.8574 6.48682L18.8574 17.9517C18.8574 18.5864 18.5156 18.938 17.9004 18.938L5.35156 18.938C4.72656 18.938 4.38477 18.5864 4.38477 17.9517L4.38477 6.49658L2.8125 7.56104L2.8125 18.3521C2.8125 19.7192 3.62305 20.5103 5.01953 20.5103ZM0 9.64111C0 10.0415 0.3125 10.4224 0.839844 10.4224C1.11328 10.4224 1.33789 10.2759 1.54297 10.1099L11.3184 1.90674C11.5332 1.71143 11.7969 1.71143 12.0117 1.90674L21.7871 10.1099C21.9824 10.2759 22.207 10.4224 22.4805 10.4224C22.9395 10.4224 23.3105 10.1392 23.3105 9.67041C23.3105 9.37744 23.2129 9.18213 23.0078 9.00635L12.8418 0.461426C12.1191-0.153809 11.2207-0.153809 10.4883 0.461426L0.3125 9.00635C0.0976562 9.18213 0 9.4165 0 9.64111ZM17.9785 5.23682L20.4297 7.30713L20.4297 2.79541C20.4297 2.36572 20.1562 2.09229 19.7266 2.09229L18.6816 2.09229C18.2617 2.09229 17.9785 2.36572 17.9785 2.79541Z" fill="var(--color-secondary)"/>
  <path d="M14.3848 10.2563C14.8633 10.1392 15 10.0317 15 9.45557L15 7.52197C15 7.15088 14.873 6.98486 14.3457 7.11182L11.4648 7.82471C10.9766 7.94189 10.8691 8.04932 10.8691 8.63525L10.8691 13.0786C10.8691 13.5181 10.8398 13.5962 10.332 13.7329L9.43359 13.9771C8.53516 14.2114 7.7832 14.7388 7.7832 15.7056C7.7832 16.5454 8.4082 17.1509 9.4043 17.1509C10.8105 17.1509 11.7676 16.145 11.7676 14.7095L11.7676 11.3208C11.7676 10.9497 11.8457 10.8618 12.0703 10.813Z" fill="var(--color-primary)"/>
 </g>
</svg>
