<svg version="1.1" xmlns="http://www.w3.org/2000/svg" xmlns:xlink="http://www.w3.org/1999/xlink" width="28.0176" height="11.1816" viewBox="0 0 28.0176 11.1816">
 <g>
  <rect height="11.1816" opacity="0" width="28.0176" x="0" y="0"/>
  <path d="M7.54883 11.1816C10.1758 11.1816 12.4219 10.3223 13.8281 8.7793C15.2344 10.3223 17.4805 11.1816 20.1074 11.1816C24.3555 11.1816 27.6562 8.60352 27.6562 5.2832C27.6562 3.89648 27.0801 3.07617 26.0645 3.07617C25.6445 3.07617 25.2832 3.25195 24.9512 3.61328C24.541 4.0625 23.916 4.375 23.2031 4.375C20.752 4.375 20.1855 1.00586 16.1719 1.00586C15.2734 1.00586 14.4727 1.25977 13.8281 1.71875C13.1836 1.25977 12.3828 1.00586 11.4844 1.00586C7.4707 1.00586 6.9043 4.375 4.45312 4.375C3.74023 4.375 3.11523 4.0625 2.70508 3.61328C2.37305 3.25195 2.01172 3.07617 1.5918 3.07617C0.576172 3.07617 0 3.89648 0 5.2832C0 8.60352 3.30078 11.1816 7.54883 11.1816ZM7.54883 9.60938C4.18945 9.60938 1.57227 7.69531 1.57227 5.27344C1.57227 5 1.81641 4.98047 1.97266 5.08789C2.55859 5.64453 3.49609 5.94727 4.45312 5.94727C6.16211 5.94727 7.29492 4.99023 8.26172 4.16016C9.25781 3.32031 10.0977 2.57812 11.4844 2.57812C12.4121 2.57812 13.1348 2.98828 13.5059 3.66211C13.6523 3.94531 14.0039 3.95508 14.1406 3.66211C14.5117 2.98828 15.2441 2.57812 16.1719 2.57812C17.5586 2.57812 18.3984 3.32031 19.3945 4.16016C20.3613 4.99023 21.4941 5.94727 23.2031 5.94727C24.1602 5.94727 25.0977 5.63477 25.7129 5.04883C25.8789 4.93164 26.084 4.94141 26.084 5.27344C26.084 7.69531 23.4668 9.60938 20.1074 9.60938C17.207 9.60938 15.0391 8.44727 14.2188 6.5625C14.0625 6.20117 13.5938 6.19141 13.4375 6.5625C12.627 8.44727 10.459 9.60938 7.54883 9.60938Z" fill="var(--color-primary)"/>
 </g>
</svg>
