<?xml version="1.0" encoding="UTF-8"?>
<!--Generator: Apple Native CoreSVG 232.5-->
<!DOCTYPE svg
PUBLIC "-//W3C//DTD SVG 1.1//EN"
       "http://www.w3.org/Graphics/SVG/1.1/DTD/svg11.dtd">
<svg version="1.1" xmlns="http://www.w3.org/2000/svg" xmlns:xlink="http://www.w3.org/1999/xlink" width="18.3398" height="17.998">
 <g>
  <rect height="17.998" opacity="0" width="18.3398" x="0" y="0"/>
  <path d="M3.06641 17.998L14.9121 17.998C16.9629 17.998 17.9785 16.9824 17.9785 14.9707L17.9785 3.04688C17.9785 1.03516 16.9629 0.0195312 14.9121 0.0195312L3.06641 0.0195312C1.02539 0.0195312 0 1.02539 0 3.04688L0 14.9707C0 16.9922 1.02539 17.998 3.06641 17.998ZM3.08594 16.4258C2.10938 16.4258 1.57227 15.9082 1.57227 14.8926L1.57227 3.125C1.57227 2.10938 2.10938 1.5918 3.08594 1.5918L14.8926 1.5918C15.8594 1.5918 16.4062 2.10938 16.4062 3.125L16.4062 14.8926C16.4062 15.9082 15.8594 16.4258 14.8926 16.4258Z" fill="#ffffff" fill-opacity="0.85"/>
  <path d="M6.04492 13.4668C6.51367 13.4668 6.78711 13.1836 6.78711 12.6855L6.78711 7.00195L6.8457 7.00195L11.1035 12.998C11.3672 13.3594 11.5625 13.4668 11.8848 13.4668C12.3633 13.4668 12.6562 13.1738 12.6562 12.6562L12.6562 5.11719C12.6562 4.62891 12.3828 4.33594 11.9141 4.33594C11.4648 4.33594 11.1914 4.64844 11.1914 5.11719L11.1914 10.9082L11.1328 10.9082L6.875 4.80469C6.62109 4.45312 6.40625 4.33594 6.08398 4.33594C5.60547 4.33594 5.33203 4.6582 5.33203 5.15625L5.33203 12.6855C5.33203 13.1641 5.5957 13.4668 6.04492 13.4668Z" fill="#ffffff" fill-opacity="0.85"/>
 </g>
</svg>
