<?xml version="1.0" encoding="UTF-8"?>
<!--Generator: Apple Native CoreSVG 232.5-->
<!DOCTYPE svg
PUBLIC "-//W3C//DTD SVG 1.1//EN"
       "http://www.w3.org/Graphics/SVG/1.1/DTD/svg11.dtd">
<svg version="1.1" xmlns="http://www.w3.org/2000/svg" xmlns:xlink="http://www.w3.org/1999/xlink" width="18.3398" height="17.998">
 <g>
  <rect height="17.998" opacity="0" width="18.3398" x="0" y="0"/>
  <path d="M3.06641 17.998L14.9121 17.998C16.9629 17.998 17.9785 16.9824 17.9785 14.9707L17.9785 3.04688C17.9785 1.03516 16.9629 0.0195312 14.9121 0.0195312L3.06641 0.0195312C1.02539 0.0195312 0 1.02539 0 3.04688L0 14.9707C0 16.9922 1.02539 17.998 3.06641 17.998Z" fill="#ffffff" fill-opacity="0.25"/>
  <path d="M4.76562 9.15039C4.76562 8.85742 4.98047 8.64258 5.25391 8.64258L5.81055 8.64258L5.81055 5.06836C5.81055 4.58984 6.13281 4.25781 6.63086 4.25781C7.05078 4.25781 7.33398 4.48242 7.50977 4.85352L9.43359 8.65234L10.8594 8.65234L10.8594 4.93164C10.8594 4.53125 11.1328 4.26758 11.5137 4.26758C11.8945 4.26758 12.1582 4.53125 12.1582 4.93164L12.1582 8.65234L12.7344 8.65234C13.0078 8.65234 13.2324 8.85742 13.2324 9.15039C13.2324 9.42383 13.0078 9.6582 12.7344 9.6582L12.1582 9.6582L12.1582 13.1934C12.1582 13.6816 11.8359 14.0137 11.3379 14.0137C10.918 14.0137 10.6445 13.7891 10.459 13.418L8.55469 9.64844L7.10938 9.64844L7.10938 13.3398C7.10938 13.7402 6.8457 14.0039 6.46484 14.0039C6.08398 14.0039 5.81055 13.7402 5.81055 13.3398L5.81055 9.64844L5.25391 9.64844C4.9707 9.64844 4.76562 9.42383 4.76562 9.15039ZM7.10938 8.64258L8.05664 8.64258L7.10938 6.61133ZM9.92188 9.6582L10.8594 11.6797L10.8594 9.6582Z" fill="#ffffff" fill-opacity="0.85"/>
 </g>
</svg>
