<svg version="1.1" xmlns="http://www.w3.org/2000/svg" xmlns:xlink="http://www.w3.org/1999/xlink" width="20.2832" height="19.9316" viewBox="0 0 20.2832 19.9316">
 <g>
  <rect height="19.9316" opacity="0" width="20.2832" x="0" y="0"/>
  <path d="M19.9219 9.96094C19.9219 15.4004 15.4102 19.9219 9.96094 19.9219C4.52148 19.9219 0 15.4004 0 9.96094C0 4.51172 4.51172 0 9.95117 0C15.4004 0 19.9219 4.51172 19.9219 9.96094ZM6.77734 6.03516L6.77734 9.60938L6.2207 9.60938C5.94727 9.60938 5.73242 9.82422 5.73242 10.1172C5.73242 10.3906 5.9375 10.6152 6.2207 10.6152L6.77734 10.6152L6.77734 14.3066C6.77734 14.707 7.05078 14.9707 7.43164 14.9707C7.8125 14.9707 8.07617 14.707 8.07617 14.3066L8.07617 10.6152L9.52148 10.6152L11.4258 14.3848C11.6016 14.7559 11.8848 14.9805 12.3047 14.9805C12.8027 14.9805 13.125 14.6484 13.125 14.1602L13.125 10.625L13.7012 10.625C13.9746 10.625 14.1895 10.3906 14.1895 10.1172C14.1895 9.82422 13.9746 9.61914 13.7012 9.61914L13.125 9.61914L13.125 5.89844C13.125 5.49805 12.8516 5.23438 12.4707 5.23438C12.0898 5.23438 11.8262 5.49805 11.8262 5.89844L11.8262 9.61914L10.3906 9.61914L8.47656 5.82031C8.30078 5.44922 8.01758 5.22461 7.59766 5.22461C7.09961 5.22461 6.77734 5.55664 6.77734 6.03516ZM11.8262 12.6465L10.8887 10.625L11.8262 10.625ZM9.02344 9.60938L8.07617 9.60938L8.07617 7.57812Z" fill="var(--color-primary)"/>
 </g>
</svg>
