<svg version="1.1" xmlns="http://www.w3.org/2000/svg" xmlns:xlink="http://www.w3.org/1999/xlink" width="18.3398" height="17.998" viewBox="0 0 18.3398 17.998">
 <g>
  <rect height="17.998" opacity="0" width="18.3398" x="0" y="0"/>
  <path d="M17.9785 3.04688L17.9785 14.9707C17.9785 16.9824 16.9629 17.998 14.9121 17.998L3.06641 17.998C1.02539 17.998 0 16.9922 0 14.9707L0 3.04688C0 1.02539 1.02539 0.0195312 3.06641 0.0195312L14.9121 0.0195312C16.9629 0.0195312 17.9785 1.03516 17.9785 3.04688ZM10.7715 7.62695L10.7715 12.5879C10.7715 12.9297 11.0449 13.2129 11.3965 13.2129C11.748 13.2129 12.0215 12.9297 12.0215 12.5879L12.0215 9.64844C12.0215 8.91602 12.2656 8.30078 13.0078 8.30078C13.252 8.30078 13.5156 8.25195 13.6816 8.125C13.7891 8.02734 13.8672 7.88086 13.8672 7.68555C13.8672 7.48047 13.8086 7.33398 13.7012 7.22656C13.5645 7.09961 13.3984 7.04102 13.1934 7.04102C12.5586 7.04102 12.1484 7.59766 12.0312 8.24219L11.9727 8.24219L11.9727 7.62695C11.9727 7.29492 11.709 7.03125 11.377 7.03125C11.0352 7.03125 10.7715 7.29492 10.7715 7.62695ZM5.04883 5.40039L5.04883 12.5488C5.04883 12.9102 5.3418 13.2031 5.70312 13.2031C6.07422 13.2031 6.37695 12.9102 6.37695 12.5488L6.37695 11.0547L6.9043 10.5469L8.44727 12.8223C8.71094 13.2227 9.15039 13.2422 9.42383 13.0566C9.66797 12.8711 9.78516 12.5098 9.50195 12.0898L7.86133 9.72656L9.50195 8.00781C9.78516 7.71484 9.7168 7.38281 9.51172 7.19727C9.29688 6.97266 8.88672 6.89453 8.58398 7.24609L6.40625 9.6875L6.37695 9.6875L6.37695 5.40039C6.37695 5.03906 6.07422 4.73633 5.70312 4.73633C5.3418 4.73633 5.04883 5.03906 5.04883 5.40039Z" fill="currentColor"/>
 </g>
</svg>
