<svg version="1.1" xmlns="http://www.w3.org/2000/svg" xmlns:xlink="http://www.w3.org/1999/xlink" width="20.0098" height="19.248" viewBox="0 0 20.0098 19.248">
 <g>
  <rect height="19.248" opacity="0" width="20.0098" x="0" y="0"/>
  <path d="M4.31641 18.877C5.22461 18.877 6.15234 18.5059 6.94336 17.8711L5.9375 16.8555C5.45898 17.1973 4.91211 17.3828 4.32617 17.3828C2.7832 17.3828 1.63086 16.3379 1.63086 14.8633C1.63086 12.7246 3.41797 11.6504 5.45898 11.9629C6.64062 9.36523 7.24609 6.23047 7.91992 3.42773C8.21289 2.22656 8.75977 1.57227 9.82422 1.57227C10.8887 1.57227 11.4355 2.22656 11.7188 3.42773C12.4023 6.23047 13.0078 9.36523 14.1895 11.9629C16.2305 11.6504 18.0176 12.7246 18.0176 14.8633C18.0176 16.3379 16.8652 17.3828 15.3223 17.3828C14.7363 17.3828 14.1895 17.1973 13.7012 16.8555L12.7051 17.8711C13.4863 18.5059 14.4238 18.877 15.332 18.877C17.9297 18.877 19.6484 17.2363 19.6484 14.7656C19.6484 12.4121 17.9492 10.6543 15.3613 10.3711C14.4727 8.04688 13.7695 5.48828 13.2031 3.03711C12.7539 1.05469 11.6406 0 9.82422 0C8.00781 0 6.89453 1.05469 6.44531 3.03711C5.87891 5.48828 5.17578 8.04688 4.28711 10.3711C1.69922 10.6543 0 12.4121 0 14.7656C0 17.2363 1.71875 18.877 4.31641 18.877ZM9.82422 19.1699C12.207 19.1699 13.4668 18.0566 14.3359 16.9336C14.541 17.0605 14.7656 17.1289 15.0098 17.1289C15.791 17.1289 16.2402 16.582 16.2402 16.0156C16.2402 15.4492 15.8203 14.9023 15.0879 14.9023C14.5605 14.9023 14.2578 15.1855 13.8184 15.6641C12.6074 16.9629 11.5137 17.5293 9.82422 17.5293C8.13477 17.5293 7.03125 16.9727 5.83008 15.6641C5.39062 15.1855 5.08789 14.9023 4.56055 14.9023C3.81836 14.9023 3.4082 15.4492 3.4082 16.0156C3.4082 16.582 3.85742 17.1289 4.62891 17.1289C4.88281 17.1289 5.10742 17.0605 5.30273 16.9336C6.18164 18.0566 7.44141 19.1699 9.82422 19.1699Z" fill="currentColor"/>
 </g>
</svg>
