<?xml version="1.0" encoding="UTF-8"?>
<!--Generator: Apple Native CoreSVG 232.5-->
<!DOCTYPE svg
PUBLIC "-//W3C//DTD SVG 1.1//EN"
       "http://www.w3.org/Graphics/SVG/1.1/DTD/svg11.dtd">
<svg version="1.1" xmlns="http://www.w3.org/2000/svg" xmlns:xlink="http://www.w3.org/1999/xlink" width="20.2832" height="19.9316">
 <g>
  <rect height="19.9316" opacity="0" width="20.2832" x="0" y="0"/>
  <path d="M9.96094 19.9219C15.4102 19.9219 19.9219 15.4004 19.9219 9.96094C19.9219 4.51172 15.4004 0 9.95117 0C4.51172 0 0 4.51172 0 9.96094C0 15.4004 4.52148 19.9219 9.96094 19.9219Z" fill="#ffffff" fill-opacity="0.25"/>
  <path d="M9.96094 14.6875C7.39258 14.6875 5.60547 12.7148 5.60547 9.87305C5.60547 7.02148 7.39258 5.04883 9.96094 5.04883C12.5391 5.04883 14.3262 7.02148 14.3262 9.87305C14.3262 12.7148 12.5391 14.6875 9.96094 14.6875ZM9.96094 13.418C11.6211 13.418 12.7051 12.0117 12.7051 9.87305C12.7051 7.72461 11.6211 6.31836 9.96094 6.31836C8.30078 6.31836 7.2168 7.72461 7.2168 9.87305C7.2168 12.0117 8.30078 13.418 9.96094 13.418Z" fill="#ffffff" fill-opacity="0.85"/>
 </g>
</svg>
