<?xml version="1.0" encoding="UTF-8"?>
<!--Generator: Apple Native CoreSVG 232.5-->
<!DOCTYPE svg
PUBLIC "-//W3C//DTD SVG 1.1//EN"
       "http://www.w3.org/Graphics/SVG/1.1/DTD/svg11.dtd">
<svg version="1.1" xmlns="http://www.w3.org/2000/svg" xmlns:xlink="http://www.w3.org/1999/xlink" width="20.2832" height="19.9316">
 <g>
  <rect height="19.9316" opacity="0" width="20.2832" x="0" y="0"/>
  <path d="M7.33398 19.541C8.17383 19.7852 9.0625 19.9219 9.96094 19.9219C15.4102 19.9219 19.9219 15.4004 19.9219 9.96094C19.9219 9.0625 19.7949 8.20312 19.5605 7.38281L14.3652 9.0625C14.4336 9.35547 14.4629 9.64844 14.4629 9.96094C14.4629 12.4512 12.4512 14.4629 9.9707 14.4727C9.63867 14.4727 9.32617 14.4434 9.01367 14.3652ZM19.2871 6.58203C19.0234 5.83008 18.6621 5.12695 18.2227 4.47266L13.8477 7.71484C13.9551 7.89062 14.043 8.07617 14.1016 8.27148ZM17.7246 3.79883C16.6309 2.39258 15.1465 1.28906 13.4375 0.673828L11.748 5.87891C12.3633 6.12305 12.9199 6.52344 13.3398 7.04102ZM12.6465 0.400391C11.7871 0.146484 10.8887 0 9.95117 0C4.51172 0 0 4.51172 0 9.96094C0 10.8984 0.146484 11.8262 0.410156 12.6855L5.5957 10.9961C5.50781 10.6641 5.46875 10.3223 5.46875 9.96094C5.46875 7.50977 7.50977 5.48828 9.98047 5.48828C10.3125 5.48828 10.6348 5.53711 10.9473 5.60547ZM0.693359 13.4766C0.966797 14.209 1.32812 14.9023 1.75781 15.5469L6.13281 12.3145C6.03516 12.1484 5.95703 11.9727 5.87891 11.7871ZM2.27539 16.2207C3.36914 17.5977 4.85352 18.6816 6.5332 19.2676L8.21289 14.1016C7.61719 13.8672 7.07031 13.4766 6.66016 12.9883ZM9.9707 13.4766C11.9043 13.4766 13.4668 11.8945 13.4668 9.96094C13.4668 8.05664 11.8945 6.48438 9.9707 6.48438C8.04688 6.48438 6.46484 8.06641 6.46484 9.96094C6.46484 11.9141 8.03711 13.4766 9.9707 13.4766ZM9.9707 12.3535C8.66211 12.3535 7.58789 11.2793 7.58789 9.98047C7.58789 8.68164 8.66211 7.60742 9.9707 7.60742C11.2695 7.60742 12.3438 8.68164 12.3438 9.9707C12.3438 11.2793 11.2695 12.3535 9.9707 12.3535ZM9.9707 11.2695C10.6738 11.2793 11.25 10.6934 11.25 9.9707C11.25 9.27734 10.6738 8.69141 9.98047 8.69141C9.24805 8.69141 8.68164 9.28711 8.68164 9.9707C8.68164 10.6934 9.24805 11.2598 9.9707 11.2695Z" fill="#ffffff" fill-opacity="0.85"/>
 </g>
</svg>
