<?xml version="1.0" encoding="UTF-8"?>
<!--Generator: Apple Native CoreSVG 232.5-->
<!DOCTYPE svg
PUBLIC "-//W3C//DTD SVG 1.1//EN"
       "http://www.w3.org/Graphics/SVG/1.1/DTD/svg11.dtd">
<svg version="1.1" xmlns="http://www.w3.org/2000/svg" xmlns:xlink="http://www.w3.org/1999/xlink" width="24.1699" height="16.7676">
 <g>
  <rect height="16.7676" opacity="0" width="24.1699" x="0" y="0"/>
  <path d="M23.8086 8.37891C23.8086 12.2266 18.291 16.7578 11.9043 16.7578C5.52734 16.7578 0 12.2266 0 8.37891C0 4.53125 5.52734 0 11.9043 0C18.291 0 23.8086 4.53125 23.8086 8.37891ZM16.6992 9.33594C16.2402 11.582 14.2773 13.2324 11.9238 13.2324C10.9375 13.2324 10 12.9688 9.21875 12.4316C9.12109 12.373 9.01367 12.3438 8.90625 12.3438C8.57422 12.3438 8.33008 12.6074 8.33008 12.9297C8.33008 13.1152 8.4082 13.291 8.58398 13.4082C9.54102 14.0527 10.6934 14.4043 11.9238 14.4043C15.9375 14.4043 17.8418 10.8008 17.8418 9.44336C17.8418 9.14062 17.5879 8.86719 17.2754 8.86719C17.002 8.86719 16.7383 9.08203 16.6992 9.33594ZM8.05664 8.39844C8.05664 10.5176 9.74609 12.2363 11.9238 12.2363C12.8809 12.2363 13.7402 11.8848 14.4043 11.3281C14.5703 11.1914 14.6387 11.0254 14.6387 10.8594C14.6387 10.5371 14.375 10.2832 14.0625 10.2832C13.916 10.2832 13.7793 10.3223 13.6719 10.4297C13.2422 10.8301 12.6367 11.0645 11.9727 11.0645C10.4004 11.0645 9.22852 9.82422 9.22852 8.36914C9.22852 7.1875 9.9707 6.21094 11.0449 5.83008C11.2598 5.76172 11.4355 5.51758 11.4355 5.30273C11.4355 4.96094 11.1523 4.70703 10.8496 4.70703C9.93164 4.70703 8.05664 6.25977 8.05664 8.39844ZM6.89453 5.0293C6.25 5.99609 5.89844 7.13867 5.89844 8.37891C5.89844 9.60938 6.25 10.7617 6.88477 11.7188C7.01172 11.8848 7.1875 11.9629 7.36328 11.9629C7.65625 11.9629 7.95898 11.7676 7.95898 11.3867C7.95898 11.2598 7.91992 11.1523 7.86133 11.0449C7.33398 10.3027 7.07031 9.375 7.07031 8.37891C7.07031 7.38281 7.34375 6.46484 7.86133 5.70312C7.92969 5.5957 7.95898 5.46875 7.95898 5.36133C7.95898 5.01953 7.69531 4.78516 7.37305 4.78516C7.1875 4.78516 7.01172 4.86328 6.89453 5.0293ZM10.2539 8.37891C10.2539 9.30664 10.9961 10.0488 11.9238 10.0488C12.8516 10.0488 13.6035 9.30664 13.6035 8.37891C13.6035 7.45117 12.8516 6.70898 11.9238 6.70898C10.9961 6.70898 10.2539 7.45117 10.2539 8.37891ZM12.4219 5.30273C12.4219 5.51758 12.5879 5.76172 12.8223 5.83008C13.8672 6.21094 14.6094 7.1875 14.6094 8.37891C14.6094 8.53516 14.5508 8.83789 14.5508 8.96484C14.5508 9.36523 14.8242 9.56055 15.1465 9.56055C15.5371 9.56055 15.6836 9.32617 15.7324 9.0332C15.7715 8.84766 15.7715 8.60352 15.7715 8.37891C15.7715 6.2207 13.9062 4.70703 13.0273 4.70703C12.6953 4.70703 12.4219 4.96094 12.4219 5.30273ZM8.58398 3.34961C8.4082 3.4668 8.33008 3.64258 8.33008 3.82812C8.33008 4.16016 8.58398 4.42383 8.91602 4.42383C9.02344 4.42383 9.15039 4.39453 9.25781 4.32617C10.0098 3.80859 10.9473 3.51562 11.9238 3.51562C14.2773 3.51562 16.2402 5.16602 16.6992 7.42188C16.7383 7.67578 16.9922 7.89062 17.2656 7.89062C17.5977 7.89062 17.8418 7.62695 17.8418 7.31445C17.8418 5.95703 15.9375 2.34375 11.9238 2.34375C10.6934 2.34375 9.54102 2.69531 8.58398 3.34961Z" fill="#ffffff" fill-opacity="0.85"/>
 </g>
</svg>
