<svg version="1.1" xmlns="http://www.w3.org/2000/svg" xmlns:xlink="http://www.w3.org/1999/xlink" width="20.2832" height="19.9316" viewBox="0 0 20.2832 19.9316">
 <g>
  <rect height="19.9316" opacity="0" width="20.2832" x="0" y="0"/>
  <path d="M19.9219 9.96094C19.9219 15.4004 15.4102 19.9219 9.96094 19.9219C4.52148 19.9219 0 15.4004 0 9.96094C0 4.51172 4.51172 0 9.95117 0C15.4004 0 19.9219 4.51172 19.9219 9.96094ZM7.79297 5.27344C7.27539 5.27344 7.00195 5.64453 7.00195 6.19141L7.00195 13.6621C7.00195 14.1992 7.28516 14.5801 7.80273 14.5801C8.33984 14.5801 8.62305 14.2188 8.62305 13.6621L8.62305 11.4648L10.5957 11.4648C12.5684 11.4648 13.8867 10.2344 13.8867 8.37891C13.8867 6.52344 12.5586 5.27344 10.6055 5.27344ZM12.2852 8.37891C12.2852 9.52148 11.5625 10.2344 10.3809 10.2344L8.62305 10.2344L8.62305 6.51367L10.3809 6.51367C11.5527 6.51367 12.2852 7.22656 12.2852 8.37891Z" fill="var(--color-primary)"/>
 </g>
</svg>
