<?xml version="1.0" encoding="UTF-8"?>
<!--Generator: Apple Native CoreSVG 232.5-->
<!DOCTYPE svg
PUBLIC "-//W3C//DTD SVG 1.1//EN"
       "http://www.w3.org/Graphics/SVG/1.1/DTD/svg11.dtd">
<svg version="1.1" xmlns="http://www.w3.org/2000/svg" xmlns:xlink="http://www.w3.org/1999/xlink" width="21.1354" height="23.2449">
 <g>
  <rect height="23.2449" opacity="0" width="21.1354" x="0" y="0"/>
  <path d="M1.23176 22.0082C2.86262 23.6391 4.76691 23.6586 6.36848 22.057C7.55012 20.8754 8.79035 18.0922 9.70832 16.9984L11.7884 19.0883C12.5501 19.8598 13.4681 19.8598 14.2103 19.1176L15.47 17.848C16.2122 17.0961 16.2122 16.2074 15.4407 15.4359L7.81379 7.79921C7.04231 7.02772 6.14387 7.01796 5.39191 7.76991L4.13215 9.03944C3.38996 9.78163 3.3802 10.6898 4.15168 11.4613L6.24152 13.5414C5.15754 14.4594 2.37434 15.6898 1.1927 16.8715C-0.408866 18.473-0.399101 20.3871 1.23176 22.0082ZM5.48957 9.90858L6.28059 9.1371C6.53449 8.88319 6.80793 8.87343 7.06184 9.12733L14.1224 16.1781C14.3665 16.432 14.3665 16.7055 14.1029 16.9691L13.3411 17.7406C13.0872 18.0141 12.7943 18.0238 12.5404 17.7504L10.2064 15.4066C9.84504 15.0453 9.37629 15.0844 8.96613 15.4848C8.20441 16.2367 6.86652 19.4496 5.31379 20.9926C4.37629 21.9398 3.24348 21.9398 2.26691 20.973C1.30988 20.0062 1.30012 18.8637 2.24738 17.9262C3.80012 16.3832 7.01301 15.0453 7.76496 14.2836C8.15559 13.8637 8.20441 13.3949 7.84309 13.0433L5.48957 10.6996C5.23566 10.4457 5.23566 10.1625 5.48957 9.90858ZM3.76106 20.7094C4.42512 20.7094 4.96223 20.1625 4.96223 19.4984C4.96223 18.8344 4.42512 18.2973 3.76106 18.2973C3.09699 18.2973 2.55012 18.8344 2.55012 19.4984C2.55012 20.1625 3.09699 20.7094 3.76106 20.7094ZM15.3333 16.4027L19.972 11.7641C21.056 10.6801 21.0364 9.38124 19.9232 8.26796L12.2571 0.592177C11.2318-0.433214 9.45441-0.0328235 9.09309 1.55897C8.18488 5.50429 8.14582 5.97304 6.65168 8.06288L7.77473 9.18593C9.48371 6.9496 9.61066 5.85585 10.5482 2.36952C10.6751 1.87147 11.0853 1.74452 11.4173 2.06679L18.7318 9.37147C19.181 9.82069 19.181 10.3676 18.7611 10.7875L14.2396 15.309ZM13.7904 10.8363C14.3079 11.3539 17.1595 9.77186 18.1458 8.53163L15.9974 6.39296C15.8118 8.12147 14.9134 9.37147 13.8196 10.4652C13.6927 10.5922 13.7025 10.7484 13.7904 10.8363Z" fill="#ffffff" fill-opacity="0.85"/>
 </g>
</svg>
