<?xml version="1.0" encoding="UTF-8"?>
<!--Generator: Apple Native CoreSVG 232.5-->
<!DOCTYPE svg
PUBLIC "-//W3C//DTD SVG 1.1//EN"
       "http://www.w3.org/Graphics/SVG/1.1/DTD/svg11.dtd">
<svg version="1.1" xmlns="http://www.w3.org/2000/svg" xmlns:xlink="http://www.w3.org/1999/xlink" width="21.5633" height="19.8846">
 <g>
  <rect height="19.8846" opacity="0" width="21.5633" x="0" y="0"/>
  <path d="M0.215242 17.5058C1.8461 19.8495 5.44962 20.6503 7.7543 19.0487C9.74649 17.662 10.1859 15.5136 8.86759 13.6386C7.68595 11.9394 5.54727 11.4609 4.14102 12.4667C2.51993 13.6191 3.17423 15.2011 2.17813 15.9042C1.34805 16.4999 0.771883 16.1288 0.293367 16.4511C-0.0191327 16.6464-0.13632 17.0175 0.215242 17.5058ZM9.23868 12.1933C9.95157 12.9062 10.4887 13.8534 10.6156 14.6249C11.4066 14.498 12.0414 14.1269 12.7055 13.4628C12.8129 13.3651 12.9106 13.2577 13.0082 13.1405C12.5785 10.787 10.6156 8.85343 8.30118 8.42374C8.18399 8.5214 8.07657 8.62882 7.96915 8.73624C7.30509 9.4003 6.94376 10.0546 6.8168 10.8261C7.57852 10.953 8.53555 11.4804 9.23868 12.1933ZM18.4477 0.581945C17.9496 0.943274 12.5199 4.66398 9.18985 7.60343C11.3969 8.29679 13.1254 10.0155 13.8285 12.2519C16.7875 8.92179 20.4984 3.50187 20.8598 2.99405C22.0121 1.38273 20.0004-0.570398 18.4477 0.581945Z" fill="#ffffff" fill-opacity="0.85"/>
 </g>
</svg>
