<?xml version="1.0" encoding="UTF-8"?>
<!--Generator: Apple Native CoreSVG 232.5-->
<!DOCTYPE svg
PUBLIC "-//W3C//DTD SVG 1.1//EN"
       "http://www.w3.org/Graphics/SVG/1.1/DTD/svg11.dtd">
<svg version="1.1" xmlns="http://www.w3.org/2000/svg" xmlns:xlink="http://www.w3.org/1999/xlink" width="25.1074" height="16.748">
 <g>
  <rect height="16.748" opacity="0" width="25.1074" x="0" y="0"/>
  <path d="M1.64062 16.748C3.44727 16.748 6.20117 14.5996 12.373 14.5996C18.5352 14.5996 21.3086 16.7383 23.1055 16.7383C24.1797 16.7383 24.7461 16.084 24.7461 15L24.7461 1.76758C24.7461 0.673828 24.1797 0.0195312 23.1055 0.0195312C21.3086 0.0195312 18.5352 2.16797 12.373 2.16797C6.2207 2.16797 3.44727 0.0195312 1.64062 0.0195312C0.566406 0.0195312 0 0.673828 0 1.75781L0 15.0098C0 16.0938 0.566406 16.748 1.64062 16.748Z" fill="#ffffff" fill-opacity="0.85"/>
 </g>
</svg>
