<?xml version="1.0" encoding="UTF-8"?>
<!--Generator: Apple Native CoreSVG 232.5-->
<!DOCTYPE svg
PUBLIC "-//W3C//DTD SVG 1.1//EN"
       "http://www.w3.org/Graphics/SVG/1.1/DTD/svg11.dtd">
<svg version="1.1" xmlns="http://www.w3.org/2000/svg" xmlns:xlink="http://www.w3.org/1999/xlink" width="28.2324" height="19.0527">
 <g>
  <rect height="19.0527" opacity="0" width="28.2324" x="0" y="0"/>
  <path d="M0 9.52148C0 12.6172 1.00586 15.459 2.70508 17.7734C3.00781 18.1934 3.52539 18.2324 3.91602 17.9199C4.26758 17.6172 4.31641 17.1484 4.0332 16.7578C2.54883 14.7363 1.66992 12.2266 1.66992 9.52148C1.66992 6.80664 2.54883 4.30664 4.0332 2.26562C4.31641 1.89453 4.27734 1.41602 3.91602 1.11328C3.52539 0.800781 3.00781 0.849609 2.70508 1.25977C1.00586 3.57422 0 6.42578 0 9.52148ZM27.8711 9.52148C27.8711 6.42578 26.875 3.57422 25.166 1.25977C24.8633 0.849609 24.3457 0.800781 23.9551 1.11328C23.5938 1.41602 23.5645 1.89453 23.8379 2.26562C25.332 4.30664 26.2012 6.80664 26.2012 9.52148C26.2012 12.2266 25.332 14.7363 23.8379 16.7578C23.5645 17.1484 23.6035 17.6172 23.9551 17.9199C24.3457 18.2324 24.8633 18.1934 25.166 17.7734C26.875 15.459 27.8711 12.6172 27.8711 9.52148Z" fill="#ffffff" fill-opacity="0.55"/>
  <path d="M13.9355 19.043C19.1406 19.043 23.4668 14.7266 23.4668 9.52148C23.4668 4.31641 19.1406 0 13.9258 0C8.7207 0 4.41406 4.30664 4.41406 9.52148C4.41406 14.7266 8.73047 19.043 13.9355 19.043ZM13.9355 17.3828C9.58008 17.3828 6.08398 13.8867 6.08398 9.52148C6.08398 5.14648 9.57031 1.65039 13.9258 1.65039C18.291 1.65039 21.7969 5.14648 21.8066 9.52148C21.8164 13.877 18.3105 17.3828 13.9355 17.3828Z" fill="#ffffff" fill-opacity="0.55"/>
  <path d="M11.9531 13.9941C12.4609 13.9941 12.7441 13.6523 12.7441 13.1152L12.7441 10.9766L14.668 10.9766C16.5723 10.9766 17.8516 9.78516 17.8516 7.98828C17.8516 6.19141 16.5625 4.98047 14.6777 4.98047L11.9434 4.98047C11.4453 4.98047 11.1816 5.33203 11.1816 5.85938L11.1816 13.1152C11.1816 13.6328 11.4551 13.9941 11.9531 13.9941ZM12.7441 9.78516L12.7441 6.17188L14.4434 6.17188C15.5957 6.17188 16.3086 6.86523 16.3086 7.98828C16.3086 9.0918 15.5957 9.78516 14.4434 9.78516Z" fill="#ffffff" fill-opacity="0.85"/>
 </g>
</svg>
