<?xml version="1.0" encoding="UTF-8"?>
<!--Generator: Apple Native CoreSVG 232.5-->
<!DOCTYPE svg
PUBLIC "-//W3C//DTD SVG 1.1//EN"
       "http://www.w3.org/Graphics/SVG/1.1/DTD/svg11.dtd">
<svg version="1.1" xmlns="http://www.w3.org/2000/svg" xmlns:xlink="http://www.w3.org/1999/xlink" width="20.2832" height="19.9316">
 <g>
  <rect height="19.9316" opacity="0" width="20.2832" x="0" y="0"/>
  <path d="M7.92969 11.6602L6.8457 16.7871C6.67969 17.5879 5.41992 17.4023 5.61523 16.4844L6.72852 11.2305C6.81641 10.7715 7.19727 10.4297 7.63672 10.4004L7.70508 10.4004L9.32617 5.52734C9.54102 4.88281 10.3906 4.89258 10.6055 5.52734L12.2266 10.4004L12.2949 10.4004C12.7441 10.4297 13.1152 10.7715 13.2031 11.2402L14.3262 16.4844C14.5117 17.4023 13.252 17.5879 13.0957 16.7871L12.0117 11.6602ZM9.96094 19.9219C15.4102 19.9219 19.9219 15.4004 19.9219 9.96094C19.9219 4.51172 15.4004 0 9.95117 0C4.51172 0 0 4.51172 0 9.96094C0 15.4004 4.52148 19.9219 9.96094 19.9219Z" fill="#ffffff" fill-opacity="0.85"/>
 </g>
</svg>
