<svg version="1.1" xmlns="http://www.w3.org/2000/svg" xmlns:xlink="http://www.w3.org/1999/xlink" width="20.2832" height="19.9316" viewBox="0 0 20.2832 19.9316">
 <g>
  <rect height="19.9316" opacity="0" width="20.2832" x="0" y="0"/>
  <path d="M9.32617 5.52734L7.5 11.0059L12.4414 11.0059L10.6055 5.52734C10.3906 4.89258 9.54102 4.89258 9.32617 5.52734ZM13.9355 18.252C14.2285 18.252 14.6191 17.9102 14.541 17.5098L13.2031 11.2402C13.1055 10.752 12.7148 10.4004 12.2461 10.4004L7.68555 10.4004C7.22656 10.4004 6.82617 10.752 6.72852 11.2305L5.39062 17.5098C5.32227 17.8516 5.55664 18.1836 5.88867 18.2422C6.23047 18.3105 6.5625 18.1055 6.63086 17.7637L7.94922 11.5723L7.82227 11.6602L12.1191 11.6602L11.9824 11.5723L13.3008 17.7637C13.3594 18.0664 13.623 18.2617 13.9355 18.252Z" fill="currentColor"/>
  <path d="M9.96094 19.9219C15.4102 19.9219 19.9219 15.4004 19.9219 9.96094C19.9219 4.51172 15.4004 0 9.95117 0C4.51172 0 0 4.51172 0 9.96094C0 15.4004 4.52148 19.9219 9.96094 19.9219ZM9.96094 18.2617C5.35156 18.2617 1.66992 14.5703 1.66992 9.96094C1.66992 5.35156 5.3418 1.66016 9.95117 1.66016C14.5605 1.66016 18.2617 5.35156 18.2617 9.96094C18.2617 14.5703 14.5703 18.2617 9.96094 18.2617Z" fill="currentColor"/>
 </g>
</svg>
