<?xml version="1.0" encoding="UTF-8"?>
<!--Generator: Apple Native CoreSVG 232.5-->
<!DOCTYPE svg
PUBLIC "-//W3C//DTD SVG 1.1//EN"
       "http://www.w3.org/Graphics/SVG/1.1/DTD/svg11.dtd">
<svg version="1.1" xmlns="http://www.w3.org/2000/svg" xmlns:xlink="http://www.w3.org/1999/xlink" width="17.1607" height="16.9766">
 <g>
  <rect height="16.9766" opacity="0" width="17.1607" x="0" y="0"/>
  <path d="M8.53905 10.1164L3.28736 15.3584L1.0315 16.2276C0.797125 16.3252 0.552985 16.0518 0.640875 15.8174L1.57838 13.6397L6.82209 8.40076ZM13.9514 4.71389L11.2222 7.43815L9.50399 5.72133L12.2327 2.99514ZM15.5432 1.09085L15.8655 1.42288C16.3245 1.8721 16.2952 2.40921 15.7874 2.90725L14.801 3.87405L13.0725 2.1553L14.0686 1.17874C14.5569 0.690455 15.094 0.651393 15.5432 1.09085Z" fill="#ffffff" fill-opacity="0.85"/>
  <path d="M14.7424 14.7041C15.0354 14.9971 15.5237 14.9971 15.8069 14.7041C16.0901 14.4014 16.0999 13.9326 15.8069 13.6397L3.5315 1.36428C3.23853 1.07131 2.74048 1.06155 2.45728 1.36428C2.17408 1.64749 2.17408 2.14553 2.45728 2.42874Z" fill="#ffffff" fill-opacity="0.85"/>
 </g>
</svg>
