<svg version="1.1" xmlns="http://www.w3.org/2000/svg" xmlns:xlink="http://www.w3.org/1999/xlink" width="16.7871" height="20.9473" viewBox="0 0 16.7871 20.9473">
 <g>
  <rect height="20.9473" opacity="0" width="16.7871" x="0" y="0"/>
  <path d="M0 20.166C0 20.6348 0.3125 20.9375 0.78125 20.9375L15.6445 20.9375C16.1133 20.9375 16.4258 20.6348 16.4258 20.166L16.4258 0.78125C16.4258 0.3125 16.1133 0 15.6445 0L0.78125 0C0.3125 0 0 0.3125 0 0.78125ZM1.57227 19.082L1.57227 1.86523C1.57227 1.65039 1.65039 1.57227 1.85547 1.57227L14.5703 1.57227C14.7754 1.57227 14.8535 1.65039 14.8535 1.86523L14.8535 19.082C14.8535 19.2969 14.7754 19.3652 14.5703 19.3652L1.85547 19.3652C1.65039 19.3652 1.57227 19.2969 1.57227 19.082Z" fill="currentColor"/>
  <path d="M2.62695 17.7441C2.62695 18.1055 2.83203 18.3203 3.19336 18.3203L13.2324 18.3203C13.5938 18.3203 13.7988 18.1055 13.7988 17.7441L13.7988 3.20312C13.7988 2.8418 13.5938 2.62695 13.2324 2.62695L3.19336 2.62695C2.83203 2.62695 2.62695 2.8418 2.62695 3.20312ZM3.61328 17.1094L3.61328 3.83789C3.61328 3.69141 3.68164 3.61328 3.82812 3.61328L12.5977 3.61328C12.7441 3.61328 12.8125 3.69141 12.8125 3.83789L12.8125 17.1094C12.8125 17.2559 12.7441 17.334 12.5977 17.334L3.82812 17.334C3.68164 17.334 3.61328 17.2559 3.61328 17.1094ZM3.57422 17.7734L12.832 17.7734C13.2324 17.7734 13.418 17.5195 13.418 17.1484C13.418 16.0449 11.7578 13.1641 8.20312 13.1641C4.6582 13.1641 2.98828 16.0449 2.98828 17.1484C2.98828 17.5195 3.17383 17.7734 3.57422 17.7734ZM8.20312 12.334C9.64844 12.3438 10.8008 11.123 10.8008 9.50195C10.8008 7.97852 9.64844 6.71875 8.20312 6.71875C6.76758 6.71875 5.60547 7.97852 5.60547 9.50195C5.60547 11.123 6.76758 12.3242 8.20312 12.334Z" fill="currentColor"/>
 </g>
</svg>
