<svg version="1.1" xmlns="http://www.w3.org/2000/svg" xmlns:xlink="http://www.w3.org/1999/xlink" width="20.2832" height="19.9316" viewBox="0 0 20.2832 19.9316">
 <g>
  <rect height="19.9316" opacity="0" width="20.2832" x="0" y="0"/>
  <path d="M19.9219 9.96094C19.9219 15.4004 15.4102 19.9219 9.96094 19.9219C4.52148 19.9219 0 15.4004 0 9.96094C0 4.51172 4.51172 0 9.95117 0C15.4004 0 19.9219 4.51172 19.9219 9.96094ZM1.66992 9.96094C1.66992 14.5703 5.35156 18.2617 9.96094 18.2617C14.5703 18.2617 18.2617 14.5703 18.2617 9.96094C18.2617 5.35156 14.5605 1.66016 9.95117 1.66016C5.3418 1.66016 1.66992 5.35156 1.66992 9.96094Z" fill="var(--color-primary)"/>
  <path d="M9.04001 10.8506C8.24808 11.5426 7.80273 12.4235 7.80273 13.2129C7.80273 13.4077 7.83871 13.636 7.95397 13.8477L4.375 13.8477C3.7793 13.8477 3.54492 13.6133 3.54492 13.1836C3.54492 11.5625 5.23438 10.293 7.03125 10.293C7.75307 10.293 8.45756 10.4978 9.04001 10.8506ZM8.68164 7.72461C8.68164 8.75977 7.91992 9.56055 7.03125 9.56055C6.14258 9.56055 5.37109 8.75977 5.37109 7.73438C5.37109 6.72852 6.15234 5.94727 7.03125 5.94727C7.91992 5.94727 8.68164 6.70898 8.68164 7.72461Z" fill="var(--color-primary)"/>
  <path d="M9.52148 13.8477L15.4883 13.8477C16.2402 13.8477 16.5039 13.6328 16.5039 13.2129C16.5039 11.9922 14.9707 10.3027 12.5098 10.3027C10.0391 10.3027 8.49609 11.9922 8.49609 13.2129C8.49609 13.6328 8.76953 13.8477 9.52148 13.8477ZM12.5098 9.46289C13.5352 9.46289 14.4043 8.53516 14.4043 7.34375C14.4043 6.17188 13.5254 5.3125 12.5098 5.3125C11.4844 5.3125 10.6055 6.20117 10.6055 7.35352C10.6055 8.53516 11.4844 9.46289 12.5098 9.46289Z" fill="var(--color-primary)"/>
 </g>
</svg>
