<?xml version="1.0" encoding="UTF-8"?>
<!--Generator: Apple Native CoreSVG 232.5-->
<!DOCTYPE svg
PUBLIC "-//W3C//DTD SVG 1.1//EN"
       "http://www.w3.org/Graphics/SVG/1.1/DTD/svg11.dtd">
<svg version="1.1" xmlns="http://www.w3.org/2000/svg" xmlns:xlink="http://www.w3.org/1999/xlink" width="17.5391" height="20.9277">
 <g>
  <rect height="20.9277" opacity="0" width="17.5391" x="0" y="0"/>
  <path d="M8.58398 7.08008C10.4395 7.08008 11.8945 5.49805 11.8945 3.48633C11.8945 1.54297 10.4297 0 8.58398 0C6.73828 0 5.27344 1.55273 5.2832 3.50586C5.2832 5.50781 6.72852 7.08008 8.58398 7.08008ZM8.58398 5.70312C7.51953 5.70312 6.73828 4.78516 6.73828 3.50586C6.73828 2.27539 7.5293 1.37695 8.58398 1.37695C9.63867 1.37695 10.4395 2.27539 10.4395 3.48633C10.4395 4.77539 9.64844 5.70312 8.58398 5.70312ZM3.19336 14.1602L13.9746 14.1602C14.7852 14.1602 15.2539 13.6914 15.2539 12.9395C15.2539 10.9375 12.7148 8.02734 8.58398 8.02734C4.44336 8.02734 1.91406 10.9375 1.91406 12.9395C1.91406 13.6914 2.37305 14.1602 3.19336 14.1602ZM3.66211 12.7832C3.45703 12.7832 3.36914 12.7148 3.38867 12.5684C3.57422 11.416 5.38086 9.4043 8.58398 9.4043C11.7773 9.4043 13.5938 11.416 13.7793 12.5684C13.7988 12.7148 13.7012 12.7832 13.5059 12.7832ZM0.78125 20.9277L16.3965 20.9277C16.8262 20.9277 17.1777 20.5762 17.1777 20.1465C17.1777 19.7168 16.8262 19.3555 16.3965 19.3555L15.791 19.3555L15.791 17.0801C15.791 16.0547 15.3125 15.498 14.209 15.498L2.96875 15.498C1.875 15.498 1.38672 16.0547 1.38672 17.0801L1.38672 19.3555L0.78125 19.3555C0.351562 19.3555 0 19.7168 0 20.1465C0 20.5762 0.351562 20.9277 0.78125 20.9277ZM6.66992 18.8086C6.33789 18.8086 6.10352 18.5547 6.10352 18.2227C6.10352 17.9004 6.33789 17.6562 6.66992 17.6562L10.5273 17.6562C10.8496 17.6562 11.0938 17.9004 11.0938 18.2227C11.0938 18.5547 10.8496 18.8086 10.5273 18.8086Z" fill="#ffffff" fill-opacity="0.85"/>
 </g>
</svg>
