<svg version="1.1" xmlns="http://www.w3.org/2000/svg" xmlns:xlink="http://www.w3.org/1999/xlink" width="18.3398" height="17.998" viewBox="0 0 18.3398 17.998">
 <g>
  <rect height="17.998" opacity="0" width="18.3398" x="0" y="0"/>
  <path d="M3.06641 17.998L14.9121 17.998C16.9629 17.998 17.9785 16.9824 17.9785 14.9707L17.9785 3.04688C17.9785 1.03516 16.9629 0.0195312 14.9121 0.0195312L3.06641 0.0195312C1.02539 0.0195312 0 1.02539 0 3.04688L0 14.9707C0 16.9922 1.02539 17.998 3.06641 17.998Z" fill="var(--color-tertiary)"/>
  <path d="M5.30273 7.40234C5.30273 7.10938 5.50781 6.91406 5.79102 6.91406L6.40625 6.91406L6.40625 5.07812C6.40625 4.67773 6.66016 4.41406 7.06055 4.41406L9.49219 4.41406C11.1523 4.41406 12.334 5.40039 12.5684 6.91406L13.0566 6.91406C13.3496 6.91406 13.5449 7.10938 13.5449 7.40234C13.5449 7.68555 13.3496 7.91016 13.0566 7.91016L12.5879 7.91016C12.4023 9.48242 11.1816 10.5469 9.49219 10.5469L7.73438 10.5469L7.73438 13.3789C7.73438 13.7695 7.46094 14.043 7.08008 14.043C6.69922 14.043 6.40625 13.7695 6.40625 13.3789L6.40625 7.91016L5.79102 7.91016C5.50781 7.91016 5.30273 7.68555 5.30273 7.40234ZM7.74414 9.3457L9.27734 9.3457C10.3809 9.3457 11.084 8.81836 11.2402 7.91016L7.74414 7.91016ZM7.74414 6.91406L11.2109 6.91406C11.0254 6.07422 10.332 5.60547 9.27734 5.60547L7.74414 5.60547Z" fill="var(--color-primary)"/>
 </g>
</svg>
