<?xml version="1.0" encoding="UTF-8"?>
<!--Generator: Apple Native CoreSVG 232.5-->
<!DOCTYPE svg
PUBLIC "-//W3C//DTD SVG 1.1//EN"
       "http://www.w3.org/Graphics/SVG/1.1/DTD/svg11.dtd">
<svg version="1.1" xmlns="http://www.w3.org/2000/svg" xmlns:xlink="http://www.w3.org/1999/xlink" width="18.3398" height="17.998">
 <g>
  <rect height="17.998" opacity="0" width="18.3398" x="0" y="0"/>
  <path d="M3.06641 17.998L14.9121 17.998C16.9629 17.998 17.9785 16.9824 17.9785 14.9707L17.9785 3.04688C17.9785 1.03516 16.9629 0.0195312 14.9121 0.0195312L3.06641 0.0195312C1.02539 0.0195312 0 1.02539 0 3.04688L0 14.9707C0 16.9922 1.02539 17.998 3.06641 17.998ZM3.08594 16.4258C2.10938 16.4258 1.57227 15.9082 1.57227 14.8926L1.57227 3.125C1.57227 2.10938 2.10938 1.5918 3.08594 1.5918L14.8926 1.5918C15.8594 1.5918 16.4062 2.10938 16.4062 3.125L16.4062 14.8926C16.4062 15.9082 15.8594 16.4258 14.8926 16.4258Z" fill="#ffffff" fill-opacity="0.85"/>
  <path d="M5.41016 8.4375C5.41016 8.70117 5.61523 8.91602 5.88867 8.91602L6.48438 8.91602L6.48438 13.252C6.48438 13.623 6.76758 13.8867 7.12891 13.8867C7.5 13.8867 7.76367 13.623 7.76367 13.252L7.76367 10.752L9.47266 10.752C10.8008 10.752 11.8262 10.0391 12.2656 8.91602L12.9199 8.91602C13.2031 8.91602 13.3984 8.70117 13.3984 8.4375C13.3984 8.14453 13.2031 7.94922 12.9199 7.94922L12.4805 7.94922C12.4902 7.85156 12.4902 7.74414 12.4902 7.64648C12.4902 7.53906 12.4902 7.45117 12.4805 7.33398L12.9199 7.33398C13.2031 7.33398 13.3984 7.11914 13.3984 6.8457C13.3984 6.5625 13.2031 6.36719 12.9199 6.36719L12.2559 6.36719C11.8262 5.26367 10.8008 4.55078 9.47266 4.55078L7.10938 4.55078C6.72852 4.55078 6.48438 4.80469 6.48438 5.20508L6.48438 6.36719L5.88867 6.36719C5.61523 6.36719 5.41016 6.5625 5.41016 6.8457C5.41016 7.11914 5.61523 7.33398 5.88867 7.33398L6.48438 7.33398L6.48438 7.94922L5.88867 7.94922C5.61523 7.94922 5.41016 8.14453 5.41016 8.4375ZM7.77344 9.58984L7.77344 8.91602L10.8398 8.91602C10.5078 9.3457 9.9707 9.58984 9.26758 9.58984ZM7.77344 7.94922L7.77344 7.33398L11.2207 7.33398C11.2305 7.43164 11.2305 7.5293 11.2305 7.64648C11.2305 7.74414 11.2305 7.85156 11.2207 7.94922ZM7.77344 6.36719L7.77344 5.71289L9.26758 5.71289C9.9707 5.71289 10.5078 5.94727 10.8301 6.36719Z" fill="#ffffff" fill-opacity="0.85"/>
 </g>
</svg>
