<svg version="1.1" xmlns="http://www.w3.org/2000/svg" xmlns:xlink="http://www.w3.org/1999/xlink" width="23.9941" height="9.87305" viewBox="0 0 23.9941 9.87305">
 <g>
  <rect height="9.87305" opacity="0" width="23.9941" x="0" y="0"/>
  <path d="M0 7.76367C0 8.91602 0.693359 9.87305 1.91406 9.87305C2.14844 9.87305 2.50977 9.85352 3.01758 9.76562L6.47461 9.24805C7.90039 9.04297 8.29102 8.45703 8.29102 7.23633C8.29102 6.86523 8.29102 6.51367 8.30078 6.14258C8.30078 5.83984 8.4375 5.71289 8.66211 5.6543C10.0977 5.33203 13.5352 5.33203 14.9707 5.6543C15.1953 5.71289 15.332 5.83984 15.332 6.14258C15.3418 6.51367 15.3418 6.86523 15.3418 7.23633C15.3418 8.45703 15.7324 9.04297 17.1582 9.24805L20.6152 9.76562C21.123 9.85352 21.4844 9.87305 21.7188 9.87305C22.9395 9.87305 23.6328 8.91602 23.6328 7.76367C23.6328 7.49023 23.6328 7.22656 23.6328 6.96289C23.6328 2.42188 18.5547 0.166016 11.8164 0.166016C5.08789 0.166016 0 2.42188 0 6.96289C0 7.22656 0 7.49023 0 7.76367ZM1.58203 7.5293C1.58203 7.36328 1.58203 7.20703 1.58203 7.04102C1.58203 3.11523 6.63086 1.64062 11.8164 1.64062C17.002 1.64062 22.0508 3.11523 22.0508 7.04102C22.0508 7.20703 22.0508 7.36328 22.0508 7.5293C22.0508 8.00781 21.8262 8.42773 21.3281 8.42773C21.1914 8.42773 21.0449 8.4082 20.7715 8.35938L17.4902 7.74414C17.168 7.67578 16.9238 7.50977 16.9238 7.03125C16.9238 6.63086 16.9238 6.21094 16.9238 5.81055C16.9238 4.84375 16.5723 4.45312 16.0645 4.30664C14.4922 3.85742 9.14062 3.85742 7.56836 4.30664C7.06055 4.45312 6.70898 4.84375 6.70898 5.81055C6.70898 6.21094 6.70898 6.63086 6.70898 7.03125C6.70898 7.50977 6.46484 7.67578 6.14258 7.74414L2.86133 8.35938C2.58789 8.4082 2.45117 8.42773 2.30469 8.42773C1.80664 8.42773 1.58203 8.00781 1.58203 7.5293Z" fill="var(--color-primary)"/>
 </g>
</svg>
