<svg version="1.1" xmlns="http://www.w3.org/2000/svg" xmlns:xlink="http://www.w3.org/1999/xlink" width="21.3037" height="21.3037" viewBox="0 0 21.3037 21.3037">
 <g>
  <rect height="21.3037" opacity="0" width="21.3037" x="0" y="0"/>
  <path d="M6.13525 15.0708C8.95752 17.8931 12.395 20.0708 15.1978 20.0708C16.4575 20.0708 17.561 19.6313 18.4497 18.6548C18.9673 18.0786 19.2896 17.4048 19.2896 16.7407C19.2896 16.2524 19.104 15.7837 18.6353 15.4517L15.647 13.3228C15.188 13.0103 14.8071 12.854 14.4556 12.854C14.0063 12.854 13.6157 13.1079 13.1665 13.5474L12.4731 14.231C12.3657 14.3384 12.229 14.3872 12.1021 14.3872C11.9458 14.3872 11.8091 14.3286 11.7017 14.2798C11.106 13.9575 10.0708 13.0688 9.104 12.1118C8.14697 11.1548 7.2583 10.1196 6.9458 9.51416C6.88721 9.40674 6.83838 9.27002 6.83838 9.12354C6.83838 8.99658 6.87744 8.86963 6.98486 8.76221L7.66846 8.04932C8.10791 7.6001 8.36182 7.20947 8.36182 6.76025C8.36182 6.40869 8.20557 6.02783 7.8833 5.56885L5.78369 2.60986C5.44189 2.14111 4.96338 1.93604 4.43604 1.93604C3.7915 1.93604 3.11768 2.229 2.55127 2.78564C1.604 3.69385 1.18408 4.81689 1.18408 6.05713C1.18408 8.85986 3.32275 12.2583 6.13525 15.0708Z" fill="var(--color-primary)"/>
  <path d="M11.1841 10.1099C11.7114 10.6372 12.5513 10.6372 13.0786 10.1099C13.606 9.58252 13.606 8.74268 13.0786 8.23486C12.5513 7.69775 11.7114 7.69775 11.1841 8.21533C10.6665 8.74268 10.6665 9.58252 11.1841 10.1099ZM12.1509 4.69971C11.8384 5.00244 11.8384 5.51025 12.1509 5.81299L15.481 9.15283C15.7837 9.45557 16.2915 9.45557 16.5942 9.15283C16.897 8.8501 16.897 8.34229 16.5942 8.03955L13.2544 4.69971C12.9517 4.39697 12.4536 4.39697 12.1509 4.69971ZM15.6665 5.64697C16.1938 6.14502 17.0337 6.15479 17.5513 5.62744C18.0688 5.10986 18.0688 4.27002 17.5513 3.75244C17.0337 3.2251 16.1841 3.2251 15.6665 3.74268C15.1392 4.27002 15.1392 5.1001 15.6665 5.64697ZM16.6333 0.227051C16.3306 0.529785 16.3306 1.02783 16.6333 1.34033L19.9634 4.67041C20.2661 4.98291 20.7739 4.98291 21.0767 4.67041C21.3794 4.36768 21.3794 3.86963 21.0767 3.56689L17.7466 0.227051C17.4341-0.0756836 16.9263-0.0756836 16.6333 0.227051Z" fill="var(--color-primary)"/>
 </g>
</svg>
