<svg version="1.1" xmlns="http://www.w3.org/2000/svg" xmlns:xlink="http://www.w3.org/1999/xlink" width="20.2832" height="19.9316" viewBox="0 0 20.2832 19.9316">
 <g>
  <rect height="19.9316" opacity="0" width="20.2832" x="0" y="0"/>
  <path d="M9.96094 19.9316C15.4102 19.9316 19.9219 15.4199 19.9219 9.9707C19.9219 4.53125 15.4004 0.00976562 9.95117 0.00976562C4.51172 0.00976562 0 4.53125 0 9.9707C0 15.4199 4.52148 19.9316 9.96094 19.9316Z" fill="var(--color-tertiary)"/>
  <path d="M3.10547 10.9375L3.10547 10.8398C3.10547 8.14453 6.65039 6.88477 9.96094 6.88477C13.2715 6.88477 16.8164 8.14453 16.8164 10.8398L16.8164 10.9375C16.8164 11.6895 16.4453 12.2754 15.6836 12.2754C15.1172 12.2754 14.4531 12.2461 13.3203 11.9043C12.6758 11.709 12.3926 11.3965 12.373 10.6836L12.3633 10.0488C12.3633 9.94141 12.3047 9.86328 12.1582 9.81445C11.8164 9.70703 11.0254 9.57031 9.96094 9.57031C8.89648 9.57031 8.10547 9.70703 7.76367 9.81445C7.61719 9.86328 7.55859 9.94141 7.55859 10.0488L7.54883 10.6836C7.53906 11.3965 7.25586 11.709 6.60156 11.9043C5.46875 12.2461 4.80469 12.2754 4.23828 12.2754C3.47656 12.2754 3.10547 11.6895 3.10547 10.9375Z" fill="var(--color-primary)"/>
 </g>
</svg>
