<svg version="1.1" xmlns="http://www.w3.org/2000/svg" xmlns:xlink="http://www.w3.org/1999/xlink" width="21.8848" height="21.5723" viewBox="0 0 21.8848 21.5723">
 <g>
  <rect height="21.5723" opacity="0" width="21.8848" x="0" y="0"/>
  <path d="M5.80078 21.5723C6.18164 21.5723 6.46484 21.377 6.92383 20.9473L10.4492 17.7246L17.0508 17.7246C19.9609 17.7246 21.5234 16.123 21.5234 13.2617L21.5234 5.78125C21.5234 2.91992 19.9609 1.30859 17.0508 1.30859L4.47266 1.30859C1.5625 1.30859 0 2.91016 0 5.78125L0 13.2617C0 16.1328 1.5625 17.7246 4.47266 17.7246L4.93164 17.7246L4.93164 20.5664C4.93164 21.1719 5.24414 21.5723 5.80078 21.5723Z" fill="var(--color-tertiary)"/>
  <path d="M8.32031 11.8652C5.9668 9.52148 4.47266 6.5332 6.25 4.75586C6.2793 4.7168 6.31836 4.67773 6.38672 4.63867C7.06055 4.14062 7.67578 4.02344 8.0957 4.61914L9.33594 6.36719C9.75586 6.96289 9.6582 7.32422 9.19922 7.80273L8.80859 8.22266C8.67188 8.35938 8.7207 8.53516 8.78906 8.64258C8.98438 8.98438 9.47266 9.59961 10.0293 10.1562C10.6055 10.7227 11.1816 11.1914 11.5332 11.4062C11.6797 11.4844 11.875 11.5039 11.9922 11.3867L12.3828 10.9961C12.832 10.5371 13.2227 10.4395 13.8184 10.8594C14.6387 11.4355 15.127 11.7773 15.6055 12.1094C16.1914 12.5586 16.0645 13.2422 15.6055 13.75C15.5566 13.8184 15.5078 13.8867 15.4395 13.9551C13.6621 15.7129 10.6738 14.2285 8.32031 11.8652Z" fill="var(--color-primary)"/>
 </g>
</svg>
