<svg version="1.1" xmlns="http://www.w3.org/2000/svg" xmlns:xlink="http://www.w3.org/1999/xlink" width="23.9648" height="24.7363" viewBox="0 0 23.9648 24.7363">
 <g>
  <rect height="24.7363" opacity="0" width="23.9648" x="0" y="0"/>
  <path d="M17.9647 2.79297L5.63882 2.79297C5.6789 1.99929 6.17978 1.54297 7.01172 1.54297L16.5918 1.54297C17.4237 1.54297 17.9246 1.99929 17.9647 2.79297Z" fill="var(--color-primary)"/>
  <path d="M19.9623 5.5825C19.6482 5.53257 19.3151 5.50781 18.9648 5.50781L4.63867 5.50781C4.2885 5.50781 3.95544 5.53256 3.64145 5.58247C3.74778 4.64426 4.38263 4.12109 5.41992 4.12109L18.1934 4.12109C19.2307 4.12109 19.8575 4.64428 19.9623 5.5825Z" fill="var(--color-primary)"/>
  <path d="M22.0312 10.1074L22.0312 20.1367C22.0312 22.1484 21.0059 23.1641 18.9648 23.1641L4.63867 23.1641C2.59766 23.1641 1.57227 22.1484 1.57227 20.1367L1.57227 10.1074C1.57227 8.0957 2.59766 7.08008 4.63867 7.08008L18.9648 7.08008C21.0059 7.08008 22.0312 8.0957 22.0312 10.1074ZM13.75 14.834L9.64844 18.4375L8.02734 16.9824C7.64648 16.6406 7.23633 16.4551 6.79688 16.4551C6.38672 16.4551 6.02539 16.6406 5.63477 16.9727L3.33984 18.9746L3.33984 19.9219C3.33984 20.8984 3.86719 21.4062 4.80469 21.4062L18.8086 21.4062C19.7266 21.4062 20.2637 20.8984 20.2637 19.9219L20.2637 18.3984L16.4844 14.8438C16.0938 14.4727 15.6055 14.2969 15.1172 14.2969C14.6094 14.2969 14.1699 14.4531 13.75 14.834ZM6.75781 12.8223C6.75781 14.0039 7.71484 14.9902 8.91602 14.9902C10.0977 14.9902 11.0547 14.0039 11.0547 12.8223C11.0547 11.6504 10.0977 10.6836 8.91602 10.6836C7.71484 10.6836 6.75781 11.6504 6.75781 12.8223Z" fill="var(--color-primary)"/>
 </g>
</svg>
