<svg version="1.1" xmlns="http://www.w3.org/2000/svg" xmlns:xlink="http://www.w3.org/1999/xlink" width="20.2832" height="19.9316" viewBox="0 0 20.2832 19.9316">
 <g>
  <rect height="19.9316" opacity="0" width="20.2832" x="0" y="0"/>
  <path d="M9.96094 19.9219C15.4102 19.9219 19.9219 15.4004 19.9219 9.96094C19.9219 4.51172 15.4004 0 9.95117 0C4.51172 0 0 4.51172 0 9.96094C0 15.4004 4.52148 19.9219 9.96094 19.9219ZM9.96094 18.2617C5.35156 18.2617 1.66992 14.5703 1.66992 9.96094C1.66992 5.35156 5.3418 1.66016 9.95117 1.66016C14.5605 1.66016 18.2617 5.35156 18.2617 9.96094C18.2617 14.5703 14.5703 18.2617 9.96094 18.2617Z" fill="var(--color-secondary)"/>
  <path d="M14.1602 5.76172C13.0273 4.64844 11.543 4.64844 10.4004 5.81055L8.38867 7.82227L12.0801 11.5234L14.1016 9.51172C15.2734 8.34961 15.293 6.8457 14.1602 5.76172ZM5.74219 14.1797C6.86523 15.2734 8.35938 15.2539 9.51172 14.0918L11.5234 12.0801L7.83203 8.38867L5.82031 10.4102C4.6582 11.582 4.63867 13.0664 5.74219 14.1797Z" fill="var(--color-primary)"/>
 </g>
</svg>
