<svg version="1.1" xmlns="http://www.w3.org/2000/svg" xmlns:xlink="http://www.w3.org/1999/xlink" width="12.9199" height="20.6934" viewBox="0 0 12.9199 20.6934">
 <g>
  <rect height="20.6934" opacity="0" width="12.9199" x="0" y="0"/>
  <path d="M2.65625 20.6738L9.90234 20.6738C11.4941 20.6738 12.5586 19.6582 12.5586 18.1348L12.5586 2.53906C12.5586 1.01562 11.4941 0 9.90234 0L2.65625 0C1.06445 0 0 1.01562 0 2.53906L0 18.1348C0 19.6582 1.06445 20.6738 2.65625 20.6738ZM2.86133 19.1016C2.03125 19.1016 1.57227 18.6621 1.57227 17.8809L1.57227 2.79297C1.57227 2.01172 2.03125 1.57227 2.86133 1.57227L9.70703 1.57227C10.5273 1.57227 10.9863 2.01172 10.9863 2.79297L10.9863 17.8809C10.9863 18.6621 10.5273 19.1016 9.70703 19.1016Z" fill="currentColor"/>
  <path d="M3.69141 8.29102L8.87695 8.29102C9.39453 8.29102 9.74609 7.93945 9.74609 7.40234L9.74609 5.57617C9.74609 5.03906 9.39453 4.6875 8.87695 4.6875L3.69141 4.6875C3.16406 4.6875 2.82227 5.03906 2.82227 5.57617L2.82227 7.40234C2.82227 7.93945 3.16406 8.29102 3.69141 8.29102ZM3.69141 15.957L8.87695 15.957C9.39453 15.957 9.74609 15.6152 9.74609 15.0684L9.74609 13.252C9.74609 12.7051 9.39453 12.3633 8.87695 12.3633L3.69141 12.3633C3.16406 12.3633 2.82227 12.7051 2.82227 13.252L2.82227 15.0684C2.82227 15.6152 3.16406 15.957 3.69141 15.957Z" fill="currentColor"/>
 </g>
</svg>
