<?xml version="1.0" encoding="UTF-8"?>
<!--Generator: Apple Native CoreSVG 232.5-->
<!DOCTYPE svg
PUBLIC "-//W3C//DTD SVG 1.1//EN"
       "http://www.w3.org/Graphics/SVG/1.1/DTD/svg11.dtd">
<svg version="1.1" xmlns="http://www.w3.org/2000/svg" xmlns:xlink="http://www.w3.org/1999/xlink" width="20.2832" height="19.9316">
 <g>
  <rect height="19.9316" opacity="0" width="20.2832" x="0" y="0"/>
  <path d="M9.96094 19.9219C15.4102 19.9219 19.9219 15.4004 19.9219 9.96094C19.9219 4.51172 15.4004 0 9.95117 0C4.51172 0 0 4.51172 0 9.96094C0 15.4004 4.52148 19.9219 9.96094 19.9219Z" fill="#ffffff" fill-opacity="0.25"/>
  <path d="M15.791 8.56445L15.791 13.2715C15.791 14.1895 15.3418 14.6484 14.4141 14.6484L7.68555 14.6484C6.75781 14.6484 6.29883 14.1895 6.29883 13.2715L6.29883 8.56445C6.29883 7.66602 6.75781 7.19727 7.68555 7.19727L14.4141 7.19727C15.3418 7.19727 15.791 7.66602 15.791 8.56445ZM9.69727 9.20898L9.69727 12.6465C9.69727 12.8711 9.93164 12.9688 10.127 12.8516L13.0176 11.1426C13.1836 11.0449 13.1738 10.8105 12.998 10.7129L10.127 9.01367C9.93164 8.90625 9.69727 8.97461 9.69727 9.20898ZM13.584 6.46484L13.584 6.55273L7.68555 6.55273C6.39648 6.55273 5.6543 7.30469 5.6543 8.56445L5.6543 12.5586L5.46875 12.5586C4.54102 12.5586 4.0918 12.1094 4.0918 11.1816L4.0918 6.46484C4.0918 5.56641 4.54102 5.10742 5.46875 5.10742L12.207 5.10742C13.125 5.10742 13.584 5.56641 13.584 6.46484Z" fill="#ffffff" fill-opacity="0.85"/>
 </g>
</svg>
