<svg version="1.1" xmlns="http://www.w3.org/2000/svg" xmlns:xlink="http://www.w3.org/1999/xlink" width="20.6348" height="25.8301" viewBox="0 0 20.6348 25.8301">
 <g>
  <rect height="25.8301" opacity="0" width="20.6348" x="0" y="0"/>
  <path d="M14.635 2.8418L5.63845 2.8418C5.67486 2.04279 6.17642 1.5918 7.01172 1.5918L13.2617 1.5918C14.097 1.5918 14.5986 2.04279 14.635 2.8418Z" fill="var(--color-primary)"/>
  <path d="M16.6322 5.63132C16.3182 5.5814 15.985 5.55664 15.6348 5.55664L4.63867 5.55664C4.28852 5.55664 3.95548 5.58124 3.6415 5.63091C3.74795 4.69295 4.38277 4.16992 5.41992 4.16992L14.8633 4.16992C15.9006 4.16992 16.5274 4.6931 16.6322 5.63132Z" fill="var(--color-primary)"/>
  <path d="M18.7012 10.1562L18.7012 21.2305C18.7012 23.2422 17.6758 24.2578 15.6348 24.2578L4.63867 24.2578C2.59766 24.2578 1.57227 23.2422 1.57227 21.2305L1.57227 10.1562C1.57227 8.13477 2.59766 7.12891 4.63867 7.12891L15.6348 7.12891C17.6758 7.12891 18.7012 8.14453 18.7012 10.1562ZM7.27539 12.2461L7.27539 19.248C7.27539 19.7363 7.8125 19.9609 8.28125 19.6777L14.0137 16.2988C14.4434 16.0449 14.4336 15.459 14.0137 15.2148L8.28125 11.8164C7.85156 11.5625 7.27539 11.7676 7.27539 12.2461Z" fill="var(--color-primary)"/>
 </g>
</svg>
