<svg version="1.1" xmlns="http://www.w3.org/2000/svg" xmlns:xlink="http://www.w3.org/1999/xlink" width="23.6719" height="22.1631" viewBox="0 0 23.6719 22.1631">
 <g>
  <rect height="22.1631" opacity="0" width="23.6719" x="0" y="0"/>
  <path d="M12.2461 3.88916L20.2734 10.6177L20.2734 18.3521C20.2734 19.7095 19.4629 20.5103 18.0859 20.5103L5.24414 20.5103C3.86719 20.5103 3.04688 19.7095 3.04688 18.3521L3.04688 10.6177L11.0742 3.88916C11.4355 3.58643 11.875 3.57666 12.2461 3.88916ZM9.10156 9.7876L9.10156 16.8481C9.10156 17.3071 9.58984 17.4829 9.96094 17.2583L15.8887 13.772C16.2402 13.5571 16.2305 13.0688 15.8789 12.8735L9.96094 9.37744C9.58984 9.1626 9.10156 9.32861 9.10156 9.7876ZM12.8418 0.461426L17.8223 4.6477L17.8223 2.79541C17.8223 2.36572 18.1055 2.09229 18.5254 2.09229L19.5703 2.09229C20 2.09229 20.2734 2.36572 20.2734 2.79541L20.2734 6.708L23.0078 9.00635C23.2129 9.18213 23.3105 9.37744 23.3105 9.67041C23.3105 10.1392 22.9395 10.4224 22.4805 10.4224C22.207 10.4224 21.9824 10.2759 21.7871 10.1099L12.0117 1.90674C11.7969 1.71143 11.5332 1.71143 11.3184 1.90674L1.54297 10.1099C1.33789 10.2759 1.11328 10.4224 0.839844 10.4224C0.3125 10.4224 0 10.0415 0 9.64111C0 9.4165 0.0976562 9.18213 0.3125 9.00635L10.4883 0.461426C11.2207-0.153809 12.1191-0.153809 12.8418 0.461426Z" fill="currentColor"/>
 </g>
</svg>
