<svg version="1.1" xmlns="http://www.w3.org/2000/svg" xmlns:xlink="http://www.w3.org/1999/xlink" width="26.6113" height="22.4512" viewBox="0 0 26.6113 22.4512">
 <g>
  <rect height="22.4512" opacity="0" width="26.6113" x="0" y="0"/>
  <path d="M20.4492 4.35547L20.4492 4.52148L8.86719 4.52148C6.08398 4.52148 4.47266 6.12305 4.47266 8.87695L4.47266 16.5918L4.04297 16.5918C2.00195 16.5918 0.976562 15.5859 0.976562 13.5645L0.976562 4.35547C0.976562 2.34375 2.00195 1.32812 4.04297 1.32812L17.3828 1.32812C19.4238 1.32812 20.4492 2.34375 20.4492 4.35547Z" fill="currentColor"/>
  <path d="M25.2734 8.87695L25.2734 18.0859C25.2734 20.0977 24.248 21.1133 22.207 21.1133L8.86719 21.1133C6.82617 21.1133 5.80078 20.1074 5.80078 18.0859L5.80078 8.87695C5.80078 6.86523 6.82617 5.84961 8.86719 5.84961L22.207 5.84961C24.248 5.84961 25.2734 6.86523 25.2734 8.87695ZM14.6973 9.58008L14.6973 12.6367L11.6406 12.6367C11.123 12.6367 10.7715 12.9785 10.7715 13.4961C10.7715 13.9844 11.1328 14.3262 11.6406 14.3262L14.6973 14.3262L14.6973 17.3926C14.6973 17.8906 15.0293 18.252 15.5273 18.252C16.0352 18.252 16.3867 17.8906 16.3867 17.3926L16.3867 14.3262L19.4531 14.3262C19.9512 14.3262 20.3125 13.9844 20.3125 13.4961C20.3125 12.9785 19.9512 12.6367 19.4531 12.6367L16.3867 12.6367L16.3867 9.58008C16.3867 9.0625 16.0352 8.71094 15.5273 8.71094C15.0293 8.71094 14.6973 9.07227 14.6973 9.58008Z" fill="currentColor"/>
 </g>
</svg>
