<?xml version="1.0" encoding="UTF-8"?>
<!--Generator: Apple Native CoreSVG 232.5-->
<!DOCTYPE svg
PUBLIC "-//W3C//DTD SVG 1.1//EN"
       "http://www.w3.org/Graphics/SVG/1.1/DTD/svg11.dtd">
<svg version="1.1" xmlns="http://www.w3.org/2000/svg" xmlns:xlink="http://www.w3.org/1999/xlink" width="20.2832" height="19.9316">
 <g>
  <rect height="19.9316" opacity="0" width="20.2832" x="0" y="0"/>
  <path d="M9.96094 19.9316C15.4102 19.9316 19.9219 15.4199 19.9219 9.9707C19.9219 4.53125 15.4004 0.00976562 9.95117 0.00976562C4.51172 0.00976562 0 4.53125 0 9.9707C0 15.4199 4.52148 19.9316 9.96094 19.9316Z" fill="#ffffff" fill-opacity="0.25"/>
  <path d="M7.16797 8.75C6.77734 8.75 6.46484 8.42773 6.46484 8.04688C6.46484 7.66602 6.77734 7.34375 7.16797 7.34375L9.27734 7.34375L9.27734 5.22461C9.27734 4.85352 9.59961 4.53125 9.98047 4.53125C10.3613 4.53125 10.6934 4.84375 10.6934 5.22461L10.6934 7.34375L12.7832 7.34375C13.1641 7.34375 13.4863 7.66602 13.4863 8.04688C13.4863 8.42773 13.1641 8.75 12.7832 8.75L10.6934 8.75L10.6934 10.8594C10.6934 11.2402 10.3613 11.5625 9.98047 11.5625C9.59961 11.5625 9.27734 11.2305 9.27734 10.8594L9.27734 8.75ZM7.17773 14.7656C6.77734 14.7656 6.46484 14.4238 6.46484 14.0723C6.46484 13.6914 6.77734 13.3594 7.17773 13.3594L12.7734 13.3594C13.1641 13.3594 13.4863 13.6914 13.4863 14.0723C13.4863 14.4238 13.1641 14.7656 12.7734 14.7656Z" fill="#ffffff" fill-opacity="0.85"/>
 </g>
</svg>
