<?xml version="1.0" encoding="UTF-8"?>
<!--Generator: Apple Native CoreSVG 232.5-->
<!DOCTYPE svg
PUBLIC "-//W3C//DTD SVG 1.1//EN"
       "http://www.w3.org/Graphics/SVG/1.1/DTD/svg11.dtd">
<svg version="1.1" xmlns="http://www.w3.org/2000/svg" xmlns:xlink="http://www.w3.org/1999/xlink" width="18.3398" height="17.998">
 <g>
  <rect height="17.998" opacity="0" width="18.3398" x="0" y="0"/>
  <path d="M17.9785 3.04688L17.9785 14.9707C17.9785 16.9824 16.9629 17.998 14.9121 17.998L3.06641 17.998C1.02539 17.998 0 16.9922 0 14.9707L0 3.04688C0 1.02539 1.02539 0.0195312 3.06641 0.0195312L14.9121 0.0195312C16.9629 0.0195312 17.9785 1.03516 17.9785 3.04688ZM5.05859 4.26758C4.51172 4.26758 4.11133 4.66797 4.11133 5.21484L4.11133 12.7734C4.11133 13.3203 4.51172 13.7207 5.05859 13.7207L12.9199 13.7207C13.4668 13.7207 13.8672 13.3203 13.8672 12.7734L13.8672 5.21484C13.8672 4.66797 13.4668 4.26758 12.9199 4.26758ZM7.82227 11.0352C7.82227 11.6016 7.36328 12.0605 6.79688 12.0605C6.24023 12.0605 5.78125 11.6016 5.78125 11.0352C5.78125 10.4785 6.24023 10.0195 6.79688 10.0195C7.36328 10.0195 7.82227 10.4785 7.82227 11.0352ZM12.2168 11.0352C12.2168 11.6016 11.7676 12.0605 11.2012 12.0605C10.6348 12.0605 10.1758 11.6016 10.1758 11.0352C10.1758 10.4785 10.6348 10.0195 11.2012 10.0195C11.7676 10.0195 12.2168 10.4785 12.2168 11.0352ZM10.0195 6.94336C10.0195 7.50977 9.56055 7.96875 9.00391 7.96875C8.4375 7.96875 7.97852 7.50977 7.97852 6.94336C7.97852 6.38672 8.4375 5.92773 9.00391 5.92773C9.56055 5.92773 10.0195 6.38672 10.0195 6.94336Z" fill="#ffffff" fill-opacity="0.85"/>
 </g>
</svg>
