<svg version="1.1" xmlns="http://www.w3.org/2000/svg" xmlns:xlink="http://www.w3.org/1999/xlink" width="18.9551" height="17.998" viewBox="0 0 18.9551 17.998">
 <g>
  <rect height="17.998" opacity="0" width="18.9551" x="0" y="0"/>
  <path d="M18.5938 3.04688L18.5938 14.9707C18.5938 16.9824 17.5684 17.998 15.5273 17.998L3.06641 17.998C1.02539 17.998 0 16.9922 0 14.9707L0 3.04688C0 1.02539 1.02539 0.0195312 3.06641 0.0195312L15.5273 0.0195312C17.5684 0.0195312 18.5938 1.03516 18.5938 3.04688ZM4.32617 11.6797C4.32617 12.5195 5.00977 13.2031 5.84961 13.2031C6.67969 13.2031 7.35352 12.5195 7.35352 11.6797C7.35352 10.8496 6.67969 10.166 5.84961 10.166C5.00977 10.166 4.32617 10.8496 4.32617 11.6797ZM11.2402 11.6797C11.2402 12.5195 11.9141 13.2031 12.7539 13.2031C13.5742 13.2031 14.2676 12.5195 14.2676 11.6797C14.2676 10.8496 13.5742 10.166 12.7539 10.166C11.9141 10.166 11.2402 10.8496 11.2402 11.6797ZM7.77344 6.30859C7.77344 7.14844 8.45703 7.83203 9.29688 7.83203C10.127 7.83203 10.8105 7.14844 10.8105 6.30859C10.8105 5.47852 10.127 4.79492 9.29688 4.79492C8.45703 4.79492 7.77344 5.47852 7.77344 6.30859Z" fill="currentColor"/>
 </g>
</svg>
