<?xml version="1.0" encoding="UTF-8"?>
<!--Generator: Apple Native CoreSVG 232.5-->
<!DOCTYPE svg
PUBLIC "-//W3C//DTD SVG 1.1//EN"
       "http://www.w3.org/Graphics/SVG/1.1/DTD/svg11.dtd">
<svg version="1.1" xmlns="http://www.w3.org/2000/svg" xmlns:xlink="http://www.w3.org/1999/xlink" width="18.3398" height="17.998">
 <g>
  <rect height="17.998" opacity="0" width="18.3398" x="0" y="0"/>
  <path d="M3.06641 17.998L14.9121 17.998C16.9629 17.998 17.9785 16.9824 17.9785 14.9707L17.9785 3.04688C17.9785 1.03516 16.9629 0.0195312 14.9121 0.0195312L3.06641 0.0195312C1.02539 0.0195312 0 1.02539 0 3.04688L0 14.9707C0 16.9922 1.02539 17.998 3.06641 17.998Z" fill="#ffffff" fill-opacity="0.25"/>
  <path d="M8.99414 14.2871C6.05469 14.2871 3.70117 11.9238 3.70117 8.99414C3.70117 6.06445 6.05469 3.70117 8.99414 3.70117C11.9238 3.70117 14.2773 6.06445 14.2773 8.99414C14.2773 11.9238 11.9238 14.2871 8.99414 14.2871ZM8.99414 7.08984C9.41406 7.08984 9.75586 6.73828 9.75586 6.31836C9.75586 5.88867 9.41406 5.54688 8.99414 5.54688C8.56445 5.54688 8.22266 5.88867 8.22266 6.31836C8.22266 6.73828 8.56445 7.08984 8.99414 7.08984ZM6.32812 10.1953C6.98242 10.1953 7.50977 9.6582 7.50977 9.01367C7.50977 8.36914 6.98242 7.83203 6.32812 7.83203C5.68359 7.83203 5.14648 8.36914 5.14648 9.01367C5.14648 9.6582 5.68359 10.1953 6.32812 10.1953ZM11.6504 10.1758C12.2949 10.1758 12.832 9.63867 12.832 8.99414C12.832 8.34961 12.2949 7.8125 11.6504 7.8125C11.0059 7.8125 10.4688 8.34961 10.4688 8.99414C10.4688 9.63867 11.0059 10.1758 11.6504 10.1758Z" fill="#ffffff" fill-opacity="0.85"/>
 </g>
</svg>
