<svg version="1.1" xmlns="http://www.w3.org/2000/svg" xmlns:xlink="http://www.w3.org/1999/xlink" width="24.9707" height="21.3574" viewBox="0 0 24.9707 21.3574">
 <g>
  <rect height="21.3574" opacity="0" width="24.9707" x="0" y="0"/>
  <path d="M19.4141 2.42188L19.4141 2.60742L5.19531 2.60742L5.19531 2.42188C5.19531 0.976562 6.39648 0.322266 7.91016 0.322266L16.709 0.322266C18.3008 0.322266 19.4141 0.976562 19.4141 2.42188Z" fill="currentColor"/>
  <path d="M23.2715 6.80664L23.2715 14.7559C23.2715 16.6602 22.2656 17.6172 20.3711 17.6172L19.6973 17.6172L19.6973 11.5234C19.6973 10.2246 19.0723 9.6582 17.832 9.6582L6.78711 9.6582C5.60547 9.6582 4.91211 10.2246 4.91211 11.5234L4.91211 17.6172L4.23828 17.6172C2.34375 17.6172 1.33789 16.6602 1.33789 14.7559L1.33789 6.80664C1.33789 4.90234 2.44141 3.93555 4.23828 3.93555L20.3711 3.93555C22.2656 3.93555 23.2715 4.90234 23.2715 6.80664ZM17.0605 7.16797C17.0605 7.86133 17.627 8.41797 18.3203 8.41797C18.9941 8.41797 19.5703 7.85156 19.5703 7.16797C19.5703 6.48438 18.9941 5.9082 18.3203 5.9082C17.627 5.9082 17.0605 6.48438 17.0605 7.16797Z" fill="currentColor"/>
  <path d="M6.78711 21.3574L17.832 21.3574C19.0723 21.3574 19.6973 20.791 19.6973 19.4922L19.6973 11.5234C19.6973 10.2246 19.0723 9.6582 17.832 9.6582L6.78711 9.6582C5.60547 9.6582 4.91211 10.2246 4.91211 11.5234L4.91211 19.4922C4.91211 20.791 5.54688 21.3574 6.78711 21.3574ZM7.27539 19.8828C6.74805 19.8828 6.49414 19.6289 6.49414 19.1016L6.49414 11.9043C6.49414 11.377 6.74805 11.1328 7.27539 11.1328L17.3535 11.1328C17.8711 11.1328 18.1152 11.377 18.1152 11.9043L18.1152 19.1016C18.1152 19.6289 17.8711 19.8828 17.3535 19.8828ZM9.18945 13.6914C9.67773 13.6914 10.0684 13.3105 10.0684 12.8125C10.0684 12.3242 9.67773 11.9434 9.18945 11.9434C8.70117 11.9434 8.31055 12.3242 8.31055 12.8125C8.31055 13.3105 8.70117 13.6914 9.18945 13.6914ZM9.18945 16.377C9.67773 16.377 10.0684 15.9961 10.0684 15.5078C10.0684 15.0195 9.67773 14.6289 9.18945 14.6289C8.70117 14.6289 8.31055 15.0195 8.31055 15.5078C8.31055 15.9961 8.70117 16.377 9.18945 16.377ZM9.18945 19.0723C9.67773 19.0723 10.0684 18.6914 10.0684 18.1934C10.0684 17.7051 9.67773 17.3242 9.18945 17.3242C8.70117 17.3242 8.31055 17.7051 8.31055 18.1934C8.31055 18.6914 8.70117 19.0723 9.18945 19.0723ZM15.4297 13.6914C15.9277 13.6914 16.3184 13.3105 16.3184 12.8125C16.3184 12.3242 15.9277 11.9434 15.4297 11.9434C14.9512 11.9434 14.5605 12.3242 14.5605 12.8125C14.5605 13.3105 14.9512 13.6914 15.4297 13.6914ZM15.4297 16.377C15.9277 16.377 16.3184 15.9961 16.3184 15.5078C16.3184 15.0195 15.9277 14.6289 15.4297 14.6289C14.9512 14.6289 14.5605 15.0195 14.5605 15.5078C14.5605 15.9961 14.9512 16.377 15.4297 16.377ZM15.4297 19.0723C15.9277 19.0723 16.3184 18.6914 16.3184 18.1934C16.3184 17.7051 15.9277 17.3242 15.4297 17.3242C14.9512 17.3242 14.5605 17.7051 14.5605 18.1934C14.5605 18.6914 14.9512 19.0723 15.4297 19.0723Z" fill="currentColor"/>
 </g>
</svg>
