<?xml version="1.0" encoding="UTF-8"?>
<!--Generator: Apple Native CoreSVG 232.5-->
<!DOCTYPE svg
PUBLIC "-//W3C//DTD SVG 1.1//EN"
       "http://www.w3.org/Graphics/SVG/1.1/DTD/svg11.dtd">
<svg version="1.1" xmlns="http://www.w3.org/2000/svg" xmlns:xlink="http://www.w3.org/1999/xlink" width="22.5391" height="17.998">
 <g>
  <rect height="17.998" opacity="0" width="22.5391" x="0" y="0"/>
  <path d="M7.58789 0.722656L8.18359 1.21094C8.67188 1.63086 9.07227 1.78711 9.73633 1.78711L19.1113 1.78711C21.1426 1.78711 22.1777 2.80273 22.1777 4.81445L22.1777 14.8438C22.1777 16.8555 21.1523 17.8711 19.4043 17.8711L3.06641 17.8711C1.02539 17.8711 0 16.8652 0 14.8438L0 2.93945C0 0.976562 0.986328 0 2.69531 0L5.47852 0C6.44531 0 6.94336 0.175781 7.58789 0.722656ZM9.87305 13.5254C9.87305 14.0625 10.3516 14.502 10.8887 14.502C11.4355 14.502 11.9043 14.0723 11.9043 13.5254C11.9043 12.9785 11.4453 12.5488 10.8887 12.5488C10.3418 12.5488 9.87305 12.9883 9.87305 13.5254ZM8.28125 6.60156C8.23242 6.74805 8.19336 6.9043 8.19336 7.07031C8.19336 7.49023 8.53516 7.71484 8.84766 7.71484C9.16016 7.71484 9.36523 7.55859 9.54102 7.34375L9.70703 7.11914C10.0391 6.5625 10.5273 6.25977 11.1426 6.25977C11.9922 6.25977 12.5488 6.73828 12.5488 7.45117C12.5488 8.08594 12.1582 8.38867 11.3281 8.96484C10.6641 9.43359 10.1562 9.92188 10.1562 10.8496C10.1562 10.8887 10.1562 10.9277 10.1562 10.9668C10.1562 11.4648 10.4297 11.709 10.9082 11.709C11.3867 11.709 11.6699 11.416 11.6699 11.0352C11.6699 11.0059 11.6699 10.9668 11.6699 10.9277C11.6699 10.4004 11.9727 10.0684 12.627 9.64844C13.5352 9.05273 14.1895 8.49609 14.1895 7.38281C14.1895 5.82031 12.8027 4.99023 11.2012 4.99023C9.58984 4.99023 8.53516 5.74219 8.28125 6.60156Z" fill="#ffffff" fill-opacity="0.85"/>
 </g>
</svg>
