<svg version="1.1" xmlns="http://www.w3.org/2000/svg" xmlns:xlink="http://www.w3.org/1999/xlink" width="22.5124" height="22.1608" viewBox="0 0 22.5124 22.1608">
 <g>
  <rect height="22.1608" opacity="0" width="22.5124" x="0" y="0"/>
  <path d="M13.2435 1.09505L21.056 8.90755C22.5013 10.3529 22.5111 11.7884 21.0853 13.2142L13.224 21.0853C11.7884 22.5111 10.3626 22.5013 8.91731 21.056L1.09505 13.2337C-0.350264 11.7884-0.369795 10.3626 1.06575 8.92708L8.93685 1.06575C10.3724-0.369795 11.7982-0.350264 13.2435 1.09505ZM9.76692 15.1185C9.76692 15.6947 10.2747 16.1634 10.8509 16.1634C11.4368 16.1634 11.9447 15.7044 11.9447 15.1185C11.9447 14.5325 11.4466 14.0638 10.8509 14.0638C10.265 14.0638 9.76692 14.5423 9.76692 15.1185ZM8.04817 7.66731C7.98958 7.82356 7.95052 7.98958 7.95052 8.16536C7.95052 8.61458 8.31185 8.85872 8.65364 8.85872C8.99544 8.85872 9.22005 8.6927 9.4056 8.45833L9.58138 8.21419C9.9427 7.62825 10.4603 7.29622 11.1243 7.29622C12.0423 7.29622 12.638 7.8138 12.638 8.57552C12.638 9.25911 12.2181 9.59114 11.3294 10.2064C10.6165 10.7142 10.0697 11.2415 10.0697 12.2376C10.0697 12.2767 10.0697 12.3255 10.0697 12.3646C10.0697 12.8919 10.3529 13.1654 10.8802 13.1654C11.388 13.1654 11.6908 12.8431 11.6908 12.4427C11.6908 12.4036 11.6908 12.3548 11.6908 12.3255C11.6908 11.7591 12.0228 11.3978 12.7259 10.9388C13.7025 10.2943 14.4056 9.70833 14.4056 8.49739C14.4056 6.8177 12.9115 5.92903 11.1927 5.92903C9.45442 5.92903 8.32161 6.73958 8.04817 7.66731Z" fill="var(--color-primary)"/>
 </g>
</svg>
