<?xml version="1.0" encoding="UTF-8"?>
<!--Generator: Apple Native CoreSVG 232.5-->
<!DOCTYPE svg
PUBLIC "-//W3C//DTD SVG 1.1//EN"
       "http://www.w3.org/Graphics/SVG/1.1/DTD/svg11.dtd">
<svg version="1.1" xmlns="http://www.w3.org/2000/svg" xmlns:xlink="http://www.w3.org/1999/xlink" width="18.3398" height="17.998">
 <g>
  <rect height="17.998" opacity="0" width="18.3398" x="0" y="0"/>
  <path d="M17.9785 3.04688L17.9785 14.9707C17.9785 16.9824 16.9629 17.998 14.9121 17.998L3.06641 17.998C1.02539 17.998 0 16.9922 0 14.9707L0 3.04688C0 1.02539 1.02539 0.0195312 3.06641 0.0195312L14.9121 0.0195312C16.9629 0.0195312 17.9785 1.03516 17.9785 3.04688ZM7.67578 13.0371C7.67578 13.6133 8.18359 14.082 8.76953 14.082C9.35547 14.082 9.86328 13.623 9.86328 13.0371C9.86328 12.4512 9.36523 11.9824 8.76953 11.9824C8.17383 11.9824 7.67578 12.4609 7.67578 13.0371ZM5.95703 5.58594C5.9082 5.74219 5.86914 5.9082 5.86914 6.08398C5.86914 6.5332 6.23047 6.77734 6.5625 6.77734C6.91406 6.77734 7.12891 6.61133 7.31445 6.37695L7.49023 6.13281C7.85156 5.54688 8.37891 5.21484 9.04297 5.21484C9.95117 5.21484 10.5469 5.73242 10.5469 6.49414C10.5469 7.17773 10.127 7.50977 9.24805 8.125C8.52539 8.63281 7.98828 9.16016 7.98828 10.1562C7.98828 10.1953 7.98828 10.2441 7.98828 10.2832C7.98828 10.8105 8.27148 11.084 8.78906 11.084C9.30664 11.084 9.60938 10.7617 9.60938 10.3613C9.60938 10.3223 9.60938 10.2734 9.60938 10.2441C9.60938 9.67773 9.94141 9.31641 10.6348 8.85742C11.6113 8.21289 12.3145 7.62695 12.3145 6.41602C12.3145 4.73633 10.8203 3.84766 9.10156 3.84766C7.37305 3.84766 6.24023 4.6582 5.95703 5.58594Z" fill="#ffffff" fill-opacity="0.85"/>
 </g>
</svg>
