<svg version="1.1" xmlns="http://www.w3.org/2000/svg" xmlns:xlink="http://www.w3.org/1999/xlink" width="18.3691" height="18.0176" viewBox="0 0 18.3691 18.0176">
 <g>
  <rect height="18.0176" opacity="0" width="18.3691" x="0" y="0"/>
  <path d="M16.8652 1.15234C15.8691 0.15625 14.4629 0 12.793 0L5.18555 0C3.54492 0 2.13867 0.15625 1.14258 1.15234C0.146484 2.14844 0 3.54492 0 5.18555L0 12.793C0 14.4629 0.146484 15.8594 1.14258 16.8555C2.13867 17.8516 3.54492 18.0078 5.20508 18.0078L12.793 18.0078C14.4629 18.0078 15.8691 17.8516 16.8652 16.8555C17.8613 15.8594 18.0078 14.4629 18.0078 12.793L18.0078 5.20508C18.0078 3.53516 17.8613 2.14844 16.8652 1.15234ZM16.4355 4.94141L16.4355 13.0664C16.4355 14.0723 16.3086 15.1172 15.7129 15.7031C15.127 16.2988 14.0723 16.4355 13.0664 16.4355L4.94141 16.4355C3.93555 16.4355 2.88086 16.2988 2.28516 15.7031C1.69922 15.1172 1.57227 14.0723 1.57227 13.0664L1.57227 4.9707C1.57227 3.93555 1.69922 2.89062 2.28516 2.29492C2.88086 1.70898 3.94531 1.57227 4.9707 1.57227L13.0664 1.57227C14.0723 1.57227 15.127 1.70898 15.7129 2.30469C16.3086 2.89062 16.4355 3.93555 16.4355 4.94141Z" fill="var(--color-secondary)"/>
  <path d="M8.81836 11.0254C9.30664 11.0254 9.59961 10.7129 9.59961 10.332C9.59961 10.293 9.59961 10.2441 9.59961 10.2148C9.59961 9.66797 9.92188 9.31641 10.5957 8.86719C11.543 8.24219 12.2168 7.67578 12.2168 6.50391C12.2168 4.88281 10.7812 4.00391 9.12109 4.00391C7.44141 4.00391 6.33789 4.80469 6.06445 5.70312C6.01562 5.85938 5.98633 6.01562 5.98633 6.18164C5.98633 6.62109 6.32812 6.85547 6.66016 6.85547C6.99219 6.85547 7.19727 6.69922 7.37305 6.46484L7.54883 6.23047C7.89062 5.66406 8.4082 5.33203 9.05273 5.33203C9.94141 5.33203 10.5273 5.83984 10.5273 6.58203C10.5273 7.24609 10.1074 7.56836 9.25781 8.16406C8.55469 8.65234 8.03711 9.16992 8.03711 10.127C8.03711 10.166 8.03711 10.2148 8.03711 10.2539C8.03711 10.7617 8.31055 11.0254 8.81836 11.0254ZM8.78906 13.9355C9.35547 13.9355 9.84375 13.4863 9.84375 12.9199C9.84375 12.3535 9.36523 11.9043 8.78906 11.9043C8.21289 11.9043 7.73438 12.3633 7.73438 12.9199C7.73438 13.4766 8.22266 13.9355 8.78906 13.9355Z" fill="var(--color-primary)"/>
 </g>
</svg>
