<svg version="1.1" xmlns="http://www.w3.org/2000/svg" xmlns:xlink="http://www.w3.org/1999/xlink" width="21.8848" height="21.5723" viewBox="0 0 21.8848 21.5723">
 <g>
  <rect height="21.5723" opacity="0" width="21.8848" x="0" y="0"/>
  <path d="M21.5234 5.78125L21.5234 13.2617C21.5234 16.123 19.9609 17.7246 17.0508 17.7246L10.4492 17.7246L6.92383 20.9473C6.46484 21.377 6.18164 21.5723 5.80078 21.5723C5.24414 21.5723 4.93164 21.1719 4.93164 20.5664L4.93164 17.7246L4.47266 17.7246C1.5625 17.7246 0 16.1328 0 13.2617L0 5.78125C0 2.91016 1.5625 1.30859 4.47266 1.30859L17.0508 1.30859C19.9609 1.30859 21.5234 2.91992 21.5234 5.78125ZM5.89844 8.45703C5.89844 9.59961 6.61133 10.4883 7.75391 10.4883C8.17383 10.4883 8.59375 10.4199 8.85742 10.0879L8.93555 10.0879C8.56445 10.918 7.79297 11.4551 7.13867 11.6309C6.75781 11.7285 6.65039 11.8848 6.65039 12.1289C6.65039 12.3828 6.86523 12.5977 7.14844 12.5977C8.16406 12.5977 10.2051 11.3867 10.2051 8.82812C10.2051 7.46094 9.32617 6.41602 8.01758 6.41602C6.80664 6.41602 5.89844 7.25586 5.89844 8.45703ZM11.3379 8.45703C11.3379 9.59961 12.0508 10.4883 13.1836 10.4883C13.6133 10.4883 14.0332 10.4199 14.2969 10.0879L14.375 10.0879C14.0039 10.918 13.2324 11.4551 12.5684 11.6309C12.207 11.7285 12.0898 11.8848 12.0898 12.1289C12.0898 12.3828 12.3047 12.5977 12.5879 12.5977C13.6035 12.5977 15.6445 11.3867 15.6445 8.82812C15.6445 7.46094 14.7559 6.41602 13.4473 6.41602C12.2363 6.41602 11.3379 7.25586 11.3379 8.45703Z" fill="var(--color-primary)"/>
 </g>
</svg>
