<svg version="1.1" xmlns="http://www.w3.org/2000/svg" xmlns:xlink="http://www.w3.org/1999/xlink" width="22.8223" height="29.165" viewBox="0 0 22.8223 29.165">
 <g>
  <rect height="29.165" opacity="0" width="22.8223" x="0" y="0"/>
  <path d="M22.4609 14.5776C22.4609 20.7788 17.4219 25.8081 11.2305 25.8081C5.0293 25.8081 0 20.769 0 14.5776C0 9.69658 3.11593 5.53551 7.47235 3.99695C7.33669 4.55523 7.43521 5.12207 7.7199 5.57414C4.11261 6.96794 1.57227 10.4675 1.57227 14.5776C1.57227 19.9292 5.87891 24.2358 11.2305 24.2358C16.5723 24.2358 20.8887 19.9292 20.8887 14.5776C20.8887 10.4625 18.3364 6.95944 14.7238 5.5693C15.0075 5.1175 15.1049 4.55073 14.9656 3.98992C19.3297 5.52322 22.4609 9.68937 22.4609 14.5776Z" fill="currentColor"/>
  <path d="M9.46289 5.16357L12.9785 5.16357C13.6621 5.16357 13.9062 4.48975 13.4961 3.95264L11.7578 1.60889C11.4746 1.23779 10.9766 1.23779 10.7031 1.60889L8.93555 3.9624C8.55469 4.47998 8.75977 5.16357 9.46289 5.16357Z" fill="currentColor"/>
  <path d="M11.2305 22.3804C15.5371 22.3804 19.0234 18.8843 19.0234 14.5776C19.0234 10.2612 15.5371 6.78467 11.2305 6.78467C6.92383 6.78467 3.4375 10.2612 3.4375 14.5776C3.4375 18.8843 6.92383 22.3804 11.2305 22.3804ZM11.2305 20.8081C7.77344 20.8081 5.00977 18.0249 5.00977 14.5776C5.00977 11.1206 7.77344 8.35693 11.2305 8.35693C14.6777 8.35693 17.4512 11.1206 17.4512 14.5776C17.4512 18.0249 14.6777 20.8081 11.2305 20.8081ZM9.21875 18.3179C9.69727 18.3179 9.99023 18.0054 9.99023 17.5171L9.99023 15.6226L11.2988 15.6226L12.6367 17.8491C12.8418 18.1812 13.0566 18.3179 13.3789 18.3179C13.7891 18.3179 14.0918 18.0444 14.0918 17.6733C14.0918 17.4878 14.0234 17.3218 13.916 17.146L12.7832 15.3784C13.6816 15.0269 14.2773 14.1675 14.2773 13.1812C14.2773 11.687 13.1934 10.7007 11.5137 10.7007L9.20898 10.7007C8.74023 10.7007 8.48633 11.0522 8.48633 11.5308L8.48633 17.5171C8.48633 17.9956 8.75 18.3179 9.21875 18.3179ZM9.99023 14.4507L9.99023 11.9019L11.3574 11.9019C12.2363 11.9019 12.793 12.3706 12.793 13.2104C12.793 14.0308 12.2559 14.4507 11.3281 14.4507Z" fill="currentColor"/>
 </g>
</svg>
