<?xml version="1.0" encoding="UTF-8"?>
<!--Generator: Apple Native CoreSVG 232.5-->
<!DOCTYPE svg
PUBLIC "-//W3C//DTD SVG 1.1//EN"
       "http://www.w3.org/Graphics/SVG/1.1/DTD/svg11.dtd">
<svg version="1.1" xmlns="http://www.w3.org/2000/svg" xmlns:xlink="http://www.w3.org/1999/xlink" width="28.8013" height="22.4902">
 <g>
  <rect height="22.4902" opacity="0" width="28.8013" x="0" y="0"/>
  <path d="M24.8076 7.49976C24.2471 7.36286 23.6808 7.461 23.2292 7.74389C21.8396 4.12564 18.336 1.57227 14.22 1.57227C8.87818 1.57227 4.56177 5.88867 4.56177 11.2402C4.56177 16.5918 8.86841 20.8887 14.22 20.8887C18.3307 20.8887 21.8307 18.3534 23.224 14.7479C23.6763 15.0315 24.2433 15.1292 24.8016 14.9946C23.2638 19.3498 19.102 22.4609 14.22 22.4609C8.02857 22.4609 2.98951 17.4414 2.98951 11.2402C2.98951 5.03906 8.02857 0 14.22 0C19.1081 0 23.2741 3.13102 24.8076 7.49976Z" fill="#ffffff" fill-opacity="0.55"/>
  <path d="M24.845 8.96484C24.3079 8.56445 23.634 8.80859 23.634 9.48242L23.634 13.0078C23.634 13.7012 24.3176 13.916 24.8352 13.5254L27.1887 11.7676C27.5501 11.4941 27.5696 10.9863 27.1887 10.7129Z" fill="#ffffff" fill-opacity="0.85"/>
  <path d="M14.22 19.0332C18.5364 19.0332 22.0129 15.5469 22.0129 11.2402C22.0129 6.92383 18.5364 3.4375 14.22 3.4375C9.9231 3.4375 6.41724 6.92383 6.41724 11.2402C6.41724 15.5469 9.9231 19.0332 14.22 19.0332ZM12.1497 15.0977C11.6614 15.0977 11.3879 14.7656 11.3879 14.2676L11.3879 8.10547C11.3879 7.60742 11.6516 7.24609 12.1399 7.24609L14.5129 7.24609C16.2512 7.24609 17.3743 8.26172 17.3743 9.80469C17.3743 10.8203 16.759 11.709 15.8313 12.0703L16.9934 13.8867C17.1106 14.0625 17.179 14.2383 17.179 14.4336C17.179 14.8145 16.8665 15.0977 16.4368 15.0977C16.1047 15.0977 15.8801 14.9609 15.6653 14.6191L14.2981 12.3242L12.9504 12.3242L12.9504 14.2676C12.9504 14.7754 12.6477 15.0977 12.1497 15.0977ZM12.9504 11.1133L14.3274 11.1133C15.2844 11.1133 15.8313 10.6836 15.8313 9.83398C15.8313 8.97461 15.2551 8.48633 14.3567 8.48633L12.9504 8.48633Z" fill="#ffffff" fill-opacity="0.85"/>
 </g>
</svg>
