<?xml version="1.0" encoding="UTF-8"?>
<!--Generator: Apple Native CoreSVG 232.5-->
<!DOCTYPE svg
PUBLIC "-//W3C//DTD SVG 1.1//EN"
       "http://www.w3.org/Graphics/SVG/1.1/DTD/svg11.dtd">
<svg version="1.1" xmlns="http://www.w3.org/2000/svg" xmlns:xlink="http://www.w3.org/1999/xlink" width="18.3398" height="17.998">
 <g>
  <rect height="17.998" opacity="0" width="18.3398" x="0" y="0"/>
  <path d="M3.06641 17.998L14.9121 17.998C16.9629 17.998 17.9785 16.9824 17.9785 14.9707L17.9785 3.04688C17.9785 1.03516 16.9629 0.0195312 14.9121 0.0195312L3.06641 0.0195312C1.02539 0.0195312 0 1.02539 0 3.04688L0 14.9707C0 16.9922 1.02539 17.998 3.06641 17.998Z" fill="#ffffff" fill-opacity="0.25"/>
  <path d="M6.40625 13.6133C5.89844 13.6133 5.61523 13.2422 5.61523 12.7051L5.61523 5.22461C5.61523 4.67773 5.88867 4.30664 6.39648 4.30664L9.30664 4.30664C11.3477 4.30664 12.6367 5.45898 12.6367 7.27539C12.6367 8.52539 11.875 9.58008 10.6934 9.9707L12.207 12.334C12.3242 12.5391 12.3828 12.6953 12.3828 12.9199C12.3828 13.3301 12.0801 13.6133 11.6504 13.6133C11.2891 13.6133 11.084 13.4668 10.8398 13.0762L9.10156 10.2051L7.22656 10.2051L7.22656 12.7051C7.22656 13.2617 6.94336 13.6133 6.40625 13.6133ZM7.22656 9.02344L9.0625 9.02344C10.2734 9.02344 11.0449 8.4082 11.0449 7.31445C11.0449 6.19141 10.2539 5.54688 9.10156 5.54688L7.22656 5.54688Z" fill="#ffffff" fill-opacity="0.85"/>
 </g>
</svg>
