<?xml version="1.0" encoding="UTF-8"?>
<!--Generator: Apple Native CoreSVG 232.5-->
<!DOCTYPE svg
PUBLIC "-//W3C//DTD SVG 1.1//EN"
       "http://www.w3.org/Graphics/SVG/1.1/DTD/svg11.dtd">
<svg version="1.1" xmlns="http://www.w3.org/2000/svg" xmlns:xlink="http://www.w3.org/1999/xlink" width="20.2832" height="19.9316">
 <g>
  <rect height="19.9316" opacity="0" width="20.2832" x="0" y="0"/>
  <path d="M19.9219 9.96094C19.9219 15.4004 15.4102 19.9219 9.96094 19.9219C4.52148 19.9219 0 15.4004 0 9.96094C0 4.51172 4.51172 0 9.95117 0C15.4004 0 19.9219 4.51172 19.9219 9.96094ZM5.70312 6.11328C5.26367 6.11328 5.00977 6.38672 5.00977 6.83594L5.00977 13.2227C5.00977 13.6719 5.26367 13.9648 5.71289 13.9648C6.15234 13.9648 6.41602 13.6816 6.41602 13.2227L6.41602 10.8789L7.31445 10.8789L8.31055 13.3887C8.45703 13.75 8.66211 13.9648 9.04297 13.9648C9.36523 13.9648 9.70703 13.7793 9.70703 13.2812C9.70703 13.1738 9.63867 12.9883 9.55078 12.7637L8.64258 10.5957C9.42383 10.1953 9.75586 9.36523 9.75586 8.50586C9.75586 6.93359 8.82812 6.11328 7.33398 6.11328ZM10.8008 7.91016C10.8008 8.26172 11.0156 8.51562 11.377 8.51562C11.6895 8.51562 11.8848 8.36914 11.9922 8.05664C12.168 7.41211 12.4023 7.01172 12.9492 7.01172C13.5254 7.01172 13.8477 7.51953 13.8477 8.19336C13.8477 8.95508 13.3105 9.73633 12.8027 10.3809L11.1426 12.5098C10.9668 12.7344 10.791 12.9688 10.791 13.2715C10.791 13.5938 10.9961 13.8379 11.4355 13.8379L14.7559 13.8379C15.0977 13.8379 15.3027 13.6035 15.3027 13.2715C15.3027 12.9102 15.0879 12.7051 14.7559 12.7051L12.4902 12.7051L12.4902 12.627L13.8867 10.8594C14.8438 9.67773 15.1562 8.97461 15.1562 8.125C15.1562 6.83594 14.2773 5.89844 12.9492 5.89844C11.7285 5.89844 10.8008 6.91406 10.8008 7.91016ZM8.32031 8.53516C8.32031 9.28711 7.97852 9.85352 7.19727 9.85352L6.41602 9.85352L6.41602 7.22656L7.19727 7.22656C7.92969 7.22656 8.32031 7.76367 8.32031 8.53516Z" fill="#ffffff" fill-opacity="0.85"/>
 </g>
</svg>
