<?xml version="1.0" encoding="UTF-8"?>
<!--Generator: Apple Native CoreSVG 232.5-->
<!DOCTYPE svg
PUBLIC "-//W3C//DTD SVG 1.1//EN"
       "http://www.w3.org/Graphics/SVG/1.1/DTD/svg11.dtd">
<svg version="1.1" xmlns="http://www.w3.org/2000/svg" xmlns:xlink="http://www.w3.org/1999/xlink" width="23.3887" height="26.6505">
 <g>
  <rect height="26.6505" opacity="0" width="23.3887" x="0" y="0"/>
  <path d="M18.1348 11.0547C17.2656 11.0645 16.5527 10.3516 16.5527 9.49222C16.5527 8.63285 17.2656 7.90043 18.1348 7.91019C19.0039 7.91996 19.707 8.63285 19.707 9.49222C19.707 10.3516 19.0039 11.0352 18.1348 11.0547ZM18.1348 15.6446C17.2656 15.6446 16.5527 14.9317 16.5527 14.0625C16.5527 13.1934 17.2656 12.4903 18.1348 12.4903C19.0039 12.4903 19.707 13.1934 19.707 14.0625C19.707 14.9317 19.0039 15.6446 18.1348 15.6446ZM9.15039 9.09183C8.74023 9.09183 8.4082 8.75003 8.4082 8.33011C8.4082 7.91996 8.74023 7.58793 9.15039 7.58793C9.55078 7.58793 9.87305 7.91996 9.87305 8.33011C9.87305 8.75003 9.55078 9.09183 9.15039 9.09183ZM11.6309 9.79496C11.2305 9.79496 10.918 9.45316 10.918 9.05277C10.918 8.63285 11.2305 8.30082 11.6309 8.30082C12.0605 8.30082 12.373 8.63285 12.373 9.05277C12.373 9.45316 12.0605 9.79496 11.6309 9.79496ZM13.5156 11.5918C13.1152 11.5918 12.793 11.2696 12.793 10.8692C12.793 10.4395 13.1152 10.0977 13.5156 10.0977C13.916 10.0977 14.2578 10.4395 14.2578 10.8692C14.2578 11.2696 13.916 11.5918 13.5156 11.5918ZM14.1504 14.0039C13.7402 14.0039 13.418 13.6719 13.418 13.2715C13.418 12.8614 13.7402 12.5391 14.1504 12.5391C14.5508 12.5391 14.873 12.8614 14.873 13.2715C14.873 13.6719 14.5508 14.0039 14.1504 14.0039ZM13.5156 16.4356C13.1152 16.4356 12.793 16.0938 12.793 15.6739C12.793 15.2637 13.1152 14.9414 13.5156 14.9414C13.916 14.9414 14.2578 15.2637 14.2578 15.6739C14.2578 16.0938 13.916 16.4356 13.5156 16.4356ZM11.6309 18.2911C11.2305 18.2911 10.918 17.9493 10.918 17.5391C10.918 17.1387 11.2305 16.7969 11.6309 16.7969C12.0605 16.7969 12.373 17.1387 12.373 17.5391C12.373 17.9493 12.0605 18.2911 11.6309 18.2911ZM9.15039 19.0528C8.74023 19.0528 8.4082 18.7207 8.4082 18.3106C8.4082 17.8907 8.74023 17.5489 9.15039 17.5489C9.55078 17.5489 9.87305 17.8907 9.87305 18.3106C9.87305 18.7207 9.55078 19.0528 9.15039 19.0528ZM6.65039 18.2911C6.23047 18.2911 5.91797 17.9493 5.91797 17.5391C5.91797 17.1387 6.23047 16.7969 6.65039 16.7969C7.05078 16.7969 7.36328 17.1387 7.36328 17.5391C7.36328 17.9493 7.05078 18.2911 6.65039 18.2911ZM4.77539 16.4356C4.36523 16.4356 4.02344 16.0938 4.02344 15.6739C4.02344 15.2637 4.36523 14.9414 4.77539 14.9414C5.17578 14.9414 5.48828 15.2637 5.48828 15.6739C5.48828 16.0938 5.17578 16.4356 4.77539 16.4356ZM4.14062 14.0039C3.74023 14.0039 3.4082 13.6719 3.4082 13.2715C3.4082 12.8614 3.74023 12.5391 4.14062 12.5391C4.54102 12.5391 4.87305 12.8614 4.87305 13.2715C4.87305 13.6719 4.54102 14.0039 4.14062 14.0039ZM4.77539 11.5918C4.36523 11.5918 4.02344 11.2696 4.02344 10.8692C4.02344 10.4395 4.36523 10.0977 4.77539 10.0977C5.17578 10.0977 5.48828 10.4395 5.48828 10.8692C5.48828 11.2696 5.17578 11.5918 4.77539 11.5918ZM6.65039 9.79496C6.23047 9.79496 5.91797 9.45316 5.91797 9.05277C5.91797 8.63285 6.23047 8.30082 6.65039 8.30082C7.05078 8.30082 7.36328 8.63285 7.36328 9.05277C7.36328 9.45316 7.05078 9.79496 6.65039 9.79496ZM9.15039 11.6504C8.74023 11.6504 8.4082 11.3184 8.4082 10.918C8.4082 10.4981 8.74023 10.1563 9.15039 10.1563C9.55078 10.1563 9.87305 10.4981 9.87305 10.918C9.87305 11.3184 9.55078 11.6504 9.15039 11.6504ZM11.4844 12.6563C11.084 12.6563 10.7422 12.3145 10.7422 11.9239C10.7422 11.5137 11.084 11.1817 11.4844 11.1817C11.8945 11.1817 12.207 11.5137 12.207 11.9239C12.207 12.3145 11.8945 12.6563 11.4844 12.6563ZM11.4844 15.459C11.084 15.459 10.7422 15.1368 10.7422 14.7266C10.7422 14.3067 11.084 13.9746 11.4844 13.9746C11.8945 13.9746 12.207 14.3067 12.207 14.7266C12.207 15.1368 11.8945 15.459 11.4844 15.459ZM9.15039 16.4844C8.74023 16.4844 8.4082 16.1328 8.4082 15.7227C8.4082 15.3223 8.74023 14.9903 9.15039 14.9903C9.55078 14.9903 9.87305 15.3223 9.87305 15.7227C9.87305 16.1328 9.55078 16.4844 9.15039 16.4844ZM6.79688 15.459C6.39648 15.459 6.07422 15.1368 6.07422 14.7266C6.07422 14.3067 6.39648 13.9746 6.79688 13.9746C7.20703 13.9746 7.54883 14.3067 7.54883 14.7266C7.54883 15.1368 7.20703 15.459 6.79688 15.459ZM6.79688 12.6563C6.39648 12.6563 6.07422 12.3145 6.07422 11.9239C6.07422 11.5137 6.39648 11.1817 6.79688 11.1817C7.20703 11.1817 7.54883 11.5137 7.54883 11.9239C7.54883 12.3145 7.20703 12.6563 6.79688 12.6563ZM9.15039 14.0528C8.74023 14.0528 8.4082 13.7207 8.4082 13.3203C8.4082 12.92 8.74023 12.5879 9.15039 12.5879C9.55078 12.5879 9.87305 12.92 9.87305 13.3203C9.87305 13.7207 9.55078 14.0528 9.15039 14.0528ZM18.6523 5.918L19.1309 4.4141L5.6543 0.0390969C5.24414-0.0976218 4.79492 0.136753 4.66797 0.546909C4.53125 0.957066 4.76562 1.40628 5.17578 1.543ZM3.06641 22.3145L19.9609 22.3145C22.0117 22.3145 23.0273 21.3086 23.0273 19.2969L23.0273 7.36332C23.0273 5.3516 22.0117 4.33597 19.9609 4.33597L3.06641 4.33597C1.02539 4.33597 0 5.3516 0 7.36332L0 19.2969C0 21.3086 1.02539 22.3145 3.06641 22.3145Z" fill="#ffffff" fill-opacity="0.85"/>
 </g>
</svg>
