<?xml version="1.0" encoding="UTF-8"?>
<!--Generator: Apple Native CoreSVG 232.5-->
<!DOCTYPE svg
PUBLIC "-//W3C//DTD SVG 1.1//EN"
       "http://www.w3.org/Graphics/SVG/1.1/DTD/svg11.dtd">
<svg version="1.1" xmlns="http://www.w3.org/2000/svg" xmlns:xlink="http://www.w3.org/1999/xlink" width="25.6982" height="26.9629">
 <g>
  <rect height="26.9629" opacity="0" width="25.6982" x="0" y="0"/>
  <path d="M5.95947 9.46289L5.95947 20.8008L5.80322 20.8008C3.7915 20.8008 2.77588 19.7754 2.77588 17.7344L2.77588 6.2793ZM18.0396 4.39453L18.0396 4.82422L10.3247 4.82422C9.16722 4.82422 8.21358 5.10687 7.49937 5.64339L3.75682 1.89915C4.25031 1.51834 4.93256 1.32812 5.80322 1.32812L15.0122 1.32812C17.0337 1.32812 18.0396 2.35352 18.0396 4.39453Z" fill="#ffffff" fill-opacity="0.85"/>
  <path d="M21.561 25.0644C21.0686 25.4385 20.3917 25.625 19.5337 25.625L10.3247 25.625C8.31299 25.625 7.29736 24.5996 7.29736 22.5586L7.29736 10.8008ZM22.561 9.21875L22.561 20.7119L8.45575 6.6002C8.93069 6.30145 9.55386 6.15234 10.3247 6.15234L19.5337 6.15234C21.5552 6.15234 22.561 7.17773 22.561 9.21875Z" fill="#ffffff" fill-opacity="0.85"/>
  <path d="M22.9126 24.8047C23.2056 25.0977 23.6938 25.0977 23.9771 24.8047C24.27 24.502 24.27 24.0332 23.9771 23.7402L2.43408 2.17773C2.14111 1.89453 1.65283 1.88477 1.35986 2.17773C1.06689 2.4707 1.06689 2.95898 1.35986 3.24219Z" fill="#ffffff" fill-opacity="0.85"/>
 </g>
</svg>
