<svg version="1.1" xmlns="http://www.w3.org/2000/svg" xmlns:xlink="http://www.w3.org/1999/xlink" width="23.3887" height="17.998" viewBox="0 0 23.3887 17.998">
 <g>
  <rect height="17.998" opacity="0" width="23.3887" x="0" y="0"/>
  <path d="M0 13.0566L0 11.4844L6.64062 11.4844L6.64062 6.5332L0 6.5332L0 4.96094L6.64062 4.96094L6.64062 0.0195312L8.21289 0.0195312L8.21289 4.96094L14.8242 4.96094L14.8242 0.0195312L16.3965 0.0195312L16.3965 4.96094L23.0273 4.96094L23.0273 6.5332L16.3965 6.5332L16.3965 11.4844L23.0273 11.4844L23.0273 13.0566L16.3965 13.0566L16.3965 17.998L14.8242 17.998L14.8242 13.0566L8.21289 13.0566L8.21289 17.998L6.64062 17.998L6.64062 13.0566ZM8.21289 11.4844L14.8242 11.4844L14.8242 6.5332L8.21289 6.5332ZM3.06641 17.9883L19.9609 17.9883C22.0117 17.9883 23.0273 16.9824 23.0273 14.9707L23.0273 3.03711C23.0273 1.02539 22.0117 0.00976562 19.9609 0.00976562L3.06641 0.00976562C1.02539 0.00976562 0 1.02539 0 3.03711L0 14.9707C0 16.9824 1.02539 17.9883 3.06641 17.9883Z" fill="currentColor"/>
 </g>
</svg>
