<svg version="1.1" xmlns="http://www.w3.org/2000/svg" xmlns:xlink="http://www.w3.org/1999/xlink" width="26.084" height="20.9473" viewBox="0 0 26.084 20.9473">
 <g>
  <rect height="20.9473" opacity="0" width="26.084" x="0" y="0"/>
  <path d="M17.9492 3.06641L17.9492 7.80273L16.377 7.80273L16.377 3.0957C16.377 2.11914 15.8594 1.57227 14.8438 1.57227L4.63867 1.57227C3.62305 1.57227 3.0957 2.11914 3.0957 3.0957L3.0957 17.8516C3.0957 18.8281 3.62305 19.3652 4.63867 19.3652L14.8438 19.3652C15.8594 19.3652 16.377 18.8281 16.377 17.8516L16.377 13.1348L17.9492 13.1348L17.9492 17.8809C17.9492 19.9219 16.9434 20.9375 14.9219 20.9375L4.55078 20.9375C2.53906 20.9375 1.52344 19.9219 1.52344 17.8809L1.52344 3.06641C1.52344 1.03516 2.53906 0 4.55078 0L14.9219 0C16.9434 0 17.9492 1.03516 17.9492 3.06641Z" fill="currentColor"/>
  <path d="M10.5664 11.2402L20.5957 11.2402L22.0508 11.1816L21.3672 11.8457L19.7852 13.3203C19.6289 13.457 19.5508 13.6621 19.5508 13.8477C19.5508 14.2578 19.8438 14.5605 20.2344 14.5605C20.4492 14.5605 20.6055 14.4824 20.752 14.3359L23.9355 11.0352C24.1309 10.8398 24.1992 10.6641 24.1992 10.4688C24.1992 10.2637 24.1309 10.0977 23.9355 9.90234L20.752 6.60156C20.6055 6.45508 20.4492 6.36719 20.2344 6.36719C19.8438 6.36719 19.5508 6.66016 19.5508 7.07031C19.5508 7.26562 19.6289 7.4707 19.7852 7.60742L21.3672 9.0918L22.0605 9.75586L20.5957 9.6875L10.5664 9.6875C10.1562 9.6875 9.80469 10.0488 9.80469 10.4688C9.80469 10.8887 10.1562 11.2402 10.5664 11.2402Z" fill="currentColor"/>
 </g>
</svg>
