<svg version="1.1" xmlns="http://www.w3.org/2000/svg" xmlns:xlink="http://www.w3.org/1999/xlink" width="16.7871" height="20.9473" viewBox="0 0 16.7871 20.9473">
 <g>
  <rect height="20.9473" opacity="0" width="16.7871" x="0" y="0"/>
  <path d="M0 17.8809C0 19.9219 1.00586 20.9375 3.02734 20.9375L13.3984 20.9375C15.4199 20.9375 16.4258 19.9219 16.4258 17.8809L16.4258 3.06641C16.4258 1.03516 15.4199 0 13.3984 0L3.02734 0C1.00586 0 0 1.03516 0 3.06641ZM1.57227 17.8516L1.57227 3.0957C1.57227 2.11914 2.08984 1.57227 3.10547 1.57227L13.3203 1.57227C14.3359 1.57227 14.8535 2.11914 14.8535 3.0957L14.8535 17.8516C14.8535 18.8281 14.3359 19.3652 13.3203 19.3652L3.10547 19.3652C2.08984 19.3652 1.57227 18.8281 1.57227 17.8516Z" fill="currentColor"/>
  <path d="M9.0918 10.4688L12.6465 10.4688C13.2715 10.4688 13.5156 10.2246 13.5156 9.60938L13.5156 3.76953C13.5156 3.1543 13.2715 2.91016 12.6465 2.91016L9.0918 2.91016C8.4668 2.91016 8.21289 3.1543 8.21289 3.76953L8.21289 9.60938C8.21289 10.2246 8.4668 10.4688 9.0918 10.4688Z" fill="currentColor"/>
 </g>
</svg>
