<?xml version="1.0" encoding="UTF-8"?>
<!--Generator: Apple Native CoreSVG 232.5-->
<!DOCTYPE svg
PUBLIC "-//W3C//DTD SVG 1.1//EN"
       "http://www.w3.org/Graphics/SVG/1.1/DTD/svg11.dtd">
<svg version="1.1" xmlns="http://www.w3.org/2000/svg" xmlns:xlink="http://www.w3.org/1999/xlink" width="20.2832" height="19.9316">
 <g>
  <rect height="19.9316" opacity="0" width="20.2832" x="0" y="0"/>
  <path d="M9.96094 19.9219C15.4102 19.9219 19.9219 15.4004 19.9219 9.96094C19.9219 4.51172 15.4004 0 9.95117 0C4.51172 0 0 4.51172 0 9.96094C0 15.4004 4.52148 19.9219 9.96094 19.9219Z" fill="#ffffff" fill-opacity="0.25"/>
  <path d="M5.41992 4.76562L15.166 14.5117C15.3418 14.6875 15.3418 14.9609 15.166 15.1562C14.9902 15.3223 14.6875 15.3223 14.5215 15.1562L4.77539 5.41016C4.59961 5.24414 4.59961 4.94141 4.77539 4.76562C4.96094 4.58984 5.24414 4.58984 5.41992 4.76562ZM13.0068 14.6484L7.68555 14.6484C6.75781 14.6484 6.29883 14.1895 6.29883 13.2715L6.29883 8.56445C6.29883 8.36009 6.32258 8.17797 6.37143 8.01971ZM15.791 8.56445L15.791 13.2715C15.791 13.5553 15.7481 13.7953 15.661 13.9911L8.86036 7.19727L14.4141 7.19727C15.3418 7.19727 15.791 7.66602 15.791 8.56445ZM4.26758 5.91797L5.8747 7.52348C5.72964 7.81325 5.6543 8.16308 5.6543 8.56445L5.6543 12.5586L5.46875 12.5586C4.54102 12.5586 4.0918 12.1094 4.0918 11.1816L4.0918 6.46484C4.0918 6.22256 4.12447 6.01223 4.19153 5.83538ZM13.584 6.46484L13.584 6.55273L8.21518 6.55273L6.76842 5.10742L12.207 5.10742C13.125 5.10742 13.584 5.56641 13.584 6.46484Z" fill="#ffffff" fill-opacity="0.85"/>
 </g>
</svg>
