<?xml version="1.0" encoding="UTF-8"?>
<!--Generator: Apple Native CoreSVG 232.5-->
<!DOCTYPE svg
PUBLIC "-//W3C//DTD SVG 1.1//EN"
       "http://www.w3.org/Graphics/SVG/1.1/DTD/svg11.dtd">
<svg version="1.1" xmlns="http://www.w3.org/2000/svg" xmlns:xlink="http://www.w3.org/1999/xlink" width="20.2832" height="19.9316">
 <g>
  <rect height="19.9316" opacity="0" width="20.2832" x="0" y="0"/>
  <path d="M19.9219 9.96094C19.9219 15.4004 15.4102 19.9219 9.96094 19.9219C4.52148 19.9219 0 15.4004 0 9.96094C0 4.51172 4.51172 0 9.95117 0C15.4004 0 19.9219 4.51172 19.9219 9.96094ZM1.66992 9.96094C1.66992 14.5703 5.35156 18.2617 9.96094 18.2617C14.5703 18.2617 18.2617 14.5703 18.2617 9.96094C18.2617 5.35156 14.5605 1.66016 9.95117 1.66016C5.3418 1.66016 1.66992 5.35156 1.66992 9.96094Z" fill="#ffffff" fill-opacity="0.55"/>
  <path d="M4.42383 6.03516L6.0007 7.6104C5.86261 7.88962 5.79102 8.22644 5.79102 8.61328L5.79102 12.4902L5.60547 12.4902C4.70703 12.4902 4.26758 12.0508 4.26758 11.1523L4.26758 6.58203C4.26758 6.34739 4.29961 6.14336 4.36518 5.9716ZM13.4766 6.58203L13.4766 6.66992L8.26172 6.66992L6.85547 5.26367L12.1387 5.26367C13.0273 5.26367 13.4766 5.71289 13.4766 6.58203Z" fill="#ffffff" fill-opacity="0.85"/>
  <path d="M12.9092 14.5117L7.75391 14.5117C6.85547 14.5117 6.40625 14.0723 6.40625 13.1836L6.40625 8.61328C6.40625 8.41586 6.42943 8.2396 6.47701 8.08621ZM15.6152 8.61328L15.6152 13.1836C15.6152 13.4643 15.5714 13.7003 15.4828 13.8914C15.4815 13.8897 15.48 13.8882 15.4785 13.8867L8.87695 7.28516L14.2773 7.28516C15.1758 7.28516 15.6152 7.74414 15.6152 8.61328Z" fill="#ffffff" fill-opacity="0.85"/>
  <path d="M14.3652 15C14.5312 15.166 14.8242 15.166 14.9902 15C15.166 14.8145 15.166 14.5508 14.9902 14.375L5.54688 4.92188C5.37109 4.74609 5.08789 4.74609 4.91211 4.92188C4.73633 5.08789 4.74609 5.38086 4.91211 5.54688Z" fill="#ffffff" fill-opacity="0.85"/>
 </g>
</svg>
