<svg version="1.1" xmlns="http://www.w3.org/2000/svg" xmlns:xlink="http://www.w3.org/1999/xlink" width="27.8613" height="17.8027" viewBox="0 0 27.8613 17.8027">
 <g>
  <rect height="17.8027" opacity="0" width="27.8613" x="0" y="0"/>
  <path d="M2.24609 8.49609L11.2305 8.49609C12.7246 8.49609 13.4766 7.77344 13.4766 6.26953L13.4766 2.2168C13.4766 0.722656 12.7246 0 11.2305 0L2.24609 0C0.751953 0 0 0.722656 0 2.2168L0 6.26953C0 7.77344 0.751953 8.49609 2.24609 8.49609ZM2.36328 7.02148C1.78711 7.02148 1.47461 6.71875 1.47461 6.11328L1.47461 2.38281C1.47461 1.76758 1.78711 1.47461 2.36328 1.47461L11.1133 1.47461C11.6895 1.47461 12.002 1.76758 12.002 2.38281L12.002 6.11328C12.002 6.71875 11.6895 7.02148 11.1133 7.02148ZM4.73633 17.7539L12.4414 17.7539C13.9355 17.7539 14.6875 17.0215 14.6875 15.5273L14.6875 12.7734C14.6875 11.2793 13.9355 10.5566 12.4414 10.5566L4.73633 10.5566C3.24219 10.5566 2.49023 11.2793 2.49023 12.7734L2.49023 15.5273C2.49023 17.0215 3.24219 17.7539 4.73633 17.7539ZM4.85352 16.2793C4.27734 16.2793 3.96484 15.9766 3.96484 15.3711L3.96484 12.9297C3.96484 12.3242 4.27734 12.0312 4.85352 12.0312L12.3145 12.0312C12.9004 12.0312 13.2129 12.3242 13.2129 12.9297L13.2129 15.3711C13.2129 15.9766 12.9004 16.2793 12.3145 16.2793ZM18.877 16.6113L25.2539 16.6113C26.748 16.6113 27.5 15.8887 27.5 14.3848L27.5 3.53516C27.5 2.04102 26.748 1.31836 25.2539 1.31836L18.877 1.31836C17.3828 1.31836 16.6309 2.04102 16.6309 3.53516L16.6309 14.3848C16.6309 15.8887 17.3828 16.6113 18.877 16.6113ZM18.9844 15.1367C18.418 15.1367 18.1055 14.834 18.1055 14.2285L18.1055 3.70117C18.1055 3.08594 18.418 2.79297 18.9844 2.79297L25.127 2.79297C25.7129 2.79297 26.0254 3.08594 26.0254 3.70117L26.0254 14.2285C26.0254 14.834 25.7129 15.1367 25.127 15.1367Z" fill="currentColor"/>
 </g>
</svg>
