<svg version="1.1" xmlns="http://www.w3.org/2000/svg" xmlns:xlink="http://www.w3.org/1999/xlink" width="33.3594" height="19.0527" viewBox="0 0 33.3594 19.0527">
 <g>
  <rect height="19.0527" opacity="0" width="33.3594" x="0" y="0"/>
  <path d="M31.709 16.0742C32.4121 16.0742 32.998 15.5078 32.998 14.8438C32.998 14.1699 32.4219 13.6133 31.709 13.6133C31.0059 13.6133 30.4297 14.1699 30.4297 14.8438C30.4297 15.5078 31.0156 16.0742 31.709 16.0742ZM31.709 11.7383C32.1875 11.7383 32.5293 11.4062 32.5488 10.9082L32.7539 3.99414C32.7734 3.36914 32.3535 2.94922 31.709 2.94922C31.0742 2.94922 30.6543 3.36914 30.6738 3.99414L30.8789 10.9082C30.8984 11.4062 31.2305 11.7383 31.709 11.7383Z" fill="var(--color-primary)"/>
  <path d="M13.9355 19.043C19.1406 19.043 23.4668 14.7266 23.4668 9.52148C23.4668 4.31641 19.1406 0 13.9258 0C8.7207 0 4.41406 4.30664 4.41406 9.52148C4.41406 14.7266 8.73047 19.043 13.9355 19.043ZM13.9355 17.3828C9.58008 17.3828 6.08398 13.8867 6.08398 9.52148C6.08398 5.14648 9.57031 1.65039 13.9258 1.65039C18.291 1.65039 21.7969 5.14648 21.8066 9.52148C21.8164 13.877 18.3105 17.3828 13.9355 17.3828ZM0 9.52148C0 12.6172 1.00586 15.459 2.70508 17.7734C3.00781 18.1934 3.52539 18.2324 3.91602 17.9199C4.26758 17.6172 4.31641 17.1484 4.0332 16.7578C2.54883 14.7363 1.66992 12.2266 1.66992 9.52148C1.66992 6.80664 2.54883 4.30664 4.0332 2.26562C4.31641 1.89453 4.27734 1.41602 3.91602 1.11328C3.52539 0.800781 3.00781 0.849609 2.70508 1.25977C1.00586 3.57422 0 6.42578 0 9.52148ZM27.8711 9.52148C27.8711 6.42578 26.875 3.57422 25.166 1.25977C24.8633 0.849609 24.3457 0.800781 23.9551 1.11328C23.5938 1.41602 23.5645 1.89453 23.8379 2.26562C25.332 4.30664 26.2012 6.80664 26.2012 9.52148C26.2012 12.2266 25.332 14.7363 23.8379 16.7578C23.5645 17.1484 23.6035 17.6172 23.9551 17.9199C24.3457 18.2324 24.8633 18.1934 25.166 17.7734C26.875 15.459 27.8711 12.6172 27.8711 9.52148ZM7.61719 9.52148C7.61719 11.2988 8.74023 12.4902 10.4199 12.4902C11.3086 12.4902 12.0605 12.1094 12.8711 11.3379L13.9453 10.3125L15.0098 11.3379C15.8496 12.1289 16.582 12.4902 17.4609 12.4902C19.1406 12.4902 20.2734 11.2988 20.2734 9.52148C20.2734 7.74414 19.1406 6.55273 17.4609 6.55273C16.582 6.55273 15.8398 6.9043 15.0098 7.70508L13.9453 8.73047L12.8711 7.70508C12.0703 6.93359 11.3184 6.55273 10.4199 6.55273C8.74023 6.55273 7.61719 7.74414 7.61719 9.52148ZM8.76953 9.52148C8.76953 8.41797 9.42383 7.69531 10.4199 7.69531C10.957 7.69531 11.4258 7.93945 12.0703 8.54492L13.1152 9.52148L12.0703 10.498C11.4453 11.084 10.9668 11.3379 10.4199 11.3379C9.42383 11.3379 8.76953 10.625 8.76953 9.52148ZM14.7656 9.52148L15.8203 8.54492C16.4551 7.93945 16.9336 7.69531 17.4609 7.69531C18.457 7.69531 19.1211 8.41797 19.1211 9.52148C19.1211 10.6152 18.457 11.3379 17.4609 11.3379C16.9141 11.3379 16.4355 11.084 15.8203 10.498Z" fill="var(--color-primary)"/>
 </g>
</svg>
