<svg version="1.1" xmlns="http://www.w3.org/2000/svg" xmlns:xlink="http://www.w3.org/1999/xlink" width="20.2832" height="19.9316" viewBox="0 0 20.2832 19.9316">
 <g>
  <rect height="19.9316" opacity="0" width="20.2832" x="0" y="0"/>
  <path d="M19.9219 9.96094C19.9219 15.4004 15.4102 19.9219 9.96094 19.9219C4.52148 19.9219 0 15.4004 0 9.96094C0 4.51172 4.51172 0 9.95117 0C15.4004 0 19.9219 4.51172 19.9219 9.96094ZM5.60547 6.10352C5.14648 6.10352 4.89258 6.37695 4.89258 6.83594L4.89258 13.2227C4.89258 13.6719 5.15625 13.9648 5.61523 13.9648C6.04492 13.9648 6.30859 13.6816 6.30859 13.2227L6.30859 10.8789L7.20703 10.8789L8.21289 13.3887C8.34961 13.75 8.55469 13.9648 8.94531 13.9648C9.25781 13.9648 9.59961 13.7695 9.59961 13.2812C9.59961 13.1738 9.54102 12.9785 9.45312 12.7539L8.54492 10.5957C9.31641 10.1953 9.64844 9.36523 9.64844 8.49609C9.64844 6.93359 8.71094 6.10352 7.2168 6.10352ZM11.0156 6.09375C10.6934 6.09375 10.4297 6.34766 10.4297 6.66992C10.4297 6.99219 10.6934 7.25586 11.0156 7.25586L12.2168 7.25586L12.2168 13.2422C12.2168 13.6426 12.5293 13.9551 12.9102 13.9551C13.3008 13.9551 13.6133 13.6426 13.6133 13.2422L13.6133 7.25586L14.7754 7.25586C15.0879 7.25586 15.3418 6.99219 15.3418 6.66992C15.3418 6.34766 15.0879 6.09375 14.7754 6.09375ZM8.22266 8.52539C8.22266 9.28711 7.87109 9.84375 7.09961 9.84375L6.30859 9.84375L6.30859 7.2168L7.09961 7.2168C7.83203 7.2168 8.22266 7.76367 8.22266 8.52539Z" fill="currentColor"/>
 </g>
</svg>
