<svg version="1.1" xmlns="http://www.w3.org/2000/svg" xmlns:xlink="http://www.w3.org/1999/xlink" width="18.3398" height="17.998" viewBox="0 0 18.3398 17.998">
 <g>
  <rect height="17.998" opacity="0" width="18.3398" x="0" y="0"/>
  <path d="M17.9785 3.04688L17.9785 14.9707C17.9785 16.9824 16.9629 17.998 14.9121 17.998L3.06641 17.998C1.02539 17.998 0 16.9922 0 14.9707L0 3.04688C0 1.02539 1.02539 0.0195312 3.06641 0.0195312L14.9121 0.0195312C16.9629 0.0195312 17.9785 1.03516 17.9785 3.04688ZM7.28516 4.375C6.88477 4.375 6.63086 4.64844 6.63086 5.04883L6.63086 9.375L5.73242 9.375C5.43945 9.375 5.23438 9.58984 5.23438 9.87305C5.23438 10.1562 5.43945 10.3809 5.73242 10.3809L6.63086 10.3809L6.63086 11.3574L5.74219 11.3574C5.44922 11.3574 5.25391 11.5723 5.25391 11.8555C5.25391 12.1484 5.44922 12.3535 5.74219 12.3535L6.63086 12.3535L6.63086 13.3691C6.63086 13.7598 6.9043 14.0332 7.29492 14.0332C7.67578 14.0332 7.94922 13.7598 7.94922 13.3691L7.94922 12.3535L10.293 12.3535C10.5859 12.3535 10.7812 12.1484 10.7812 11.8555C10.7812 11.5723 10.5859 11.3574 10.293 11.3574L7.94922 11.3574L7.94922 10.3711L9.66797 10.3711C11.543 10.3711 12.7344 9.12109 12.7344 7.37305C12.7344 5.64453 11.5527 4.375 9.67773 4.375ZM11.4062 7.38281C11.4062 8.50586 10.7324 9.20898 9.44336 9.20898L7.95898 9.18945L7.95898 5.58594L9.44336 5.58594C10.7422 5.58594 11.4062 6.2793 11.4062 7.38281Z" fill="var(--color-primary)"/>
 </g>
</svg>
