<?xml version="1.0" encoding="UTF-8"?>
<!--Generator: Apple Native CoreSVG 232.5-->
<!DOCTYPE svg
PUBLIC "-//W3C//DTD SVG 1.1//EN"
       "http://www.w3.org/Graphics/SVG/1.1/DTD/svg11.dtd">
<svg version="1.1" xmlns="http://www.w3.org/2000/svg" xmlns:xlink="http://www.w3.org/1999/xlink" width="24.248" height="10.5957">
 <g>
  <rect height="10.5957" opacity="0" width="24.248" x="0" y="0"/>
  <path d="M23.8867 2.63672C23.8867 0.908203 22.9883 0.00976562 21.2402 0.00976562L2.64648 0.00976562C0.898438 0.00976562 0 0.898438 0 2.63672L0 7.96875C0 9.69727 0.908203 10.5957 2.65625 10.5957L21.2402 10.5957C22.998 10.5957 23.8867 9.69727 23.8867 7.96875ZM2.90039 1.62109L2.90039 6.17188C2.90039 6.39648 2.74414 6.57227 2.50977 6.57227C2.28516 6.57227 2.10938 6.40625 2.10938 6.18164L2.10938 1.62109ZM4.79492 1.62109L4.79492 4.45312C4.79492 4.6875 4.63867 4.85352 4.39453 4.85352C4.17969 4.85352 4.00391 4.69727 4.00391 4.46289L4.00391 1.62109ZM6.68945 1.62109L6.68945 4.45312C6.68945 4.6875 6.52344 4.85352 6.28906 4.85352C6.07422 4.85352 5.89844 4.69727 5.89844 4.46289L5.89844 1.62109ZM8.56445 1.62109L8.56445 4.45312C8.56445 4.6875 8.4082 4.85352 8.17383 4.85352C7.94922 4.85352 7.77344 4.69727 7.77344 4.46289L7.77344 1.62109ZM10.459 1.62109L10.459 4.45312C10.459 4.6875 10.3027 4.85352 10.0586 4.85352C9.84375 4.85352 9.66797 4.69727 9.66797 4.46289L9.66797 1.62109ZM12.3438 1.62109L12.3438 6.17188C12.3438 6.39648 12.1875 6.57227 11.9434 6.57227C11.7285 6.57227 11.5527 6.40625 11.5527 6.18164L11.5527 1.62109ZM14.2383 1.62109L14.2383 4.45312C14.2383 4.6875 14.0723 4.85352 13.8379 4.85352C13.623 4.85352 13.4473 4.69727 13.4473 4.46289L13.4473 1.62109ZM16.123 1.62109L16.123 4.45312C16.123 4.6875 15.9668 4.85352 15.7324 4.85352C15.5078 4.85352 15.332 4.69727 15.332 4.46289L15.332 1.62109ZM18.0078 1.62109L18.0078 4.45312C18.0078 4.6875 17.8516 4.85352 17.6074 4.85352C17.3926 4.85352 17.2168 4.69727 17.2168 4.46289L17.2168 1.62109ZM19.9023 1.62109L19.9023 4.45312C19.9023 4.6875 19.7363 4.85352 19.502 4.85352C19.2871 4.85352 19.1113 4.69727 19.1113 4.46289L19.1113 1.62109ZM21.7773 1.62109L21.7773 6.17188C21.7773 6.39648 21.6211 6.57227 21.3867 6.57227C21.1621 6.57227 20.9863 6.40625 20.9863 6.18164L20.9863 1.62109Z" fill="#ffffff" fill-opacity="0.85"/>
 </g>
</svg>
