<svg version="1.1" xmlns="http://www.w3.org/2000/svg" xmlns:xlink="http://www.w3.org/1999/xlink" width="22.1804" height="19.9316" viewBox="0 0 22.1804 19.9316">
 <g>
  <rect height="19.9316" opacity="0" width="22.1804" x="0" y="0"/>
  <path d="M11.8568 19.9219C17.2962 19.9219 21.8177 15.4004 21.8177 9.96094C21.8177 4.51172 17.2962 0 11.8568 0C6.40757 0 1.89585 4.50195 1.89585 9.95117L3.55601 9.95117C3.55601 5.3418 7.24741 1.66992 11.8568 1.66992C16.4662 1.66992 20.1576 5.35156 20.1576 9.96094C20.1576 14.5703 16.4662 18.2812 11.8568 18.2617C9.07358 18.252 6.63218 16.9043 5.13804 14.8242C4.8353 14.4238 4.37632 14.2969 3.96616 14.541C3.57554 14.7852 3.46811 15.3223 3.80015 15.752C5.65561 18.2422 8.56577 19.9219 11.8568 19.9219ZM0.694677 8.07617C-0.00844799 8.07617-0.184229 8.55469 0.19663 9.10156L2.38413 12.207C2.7064 12.6562 3.17515 12.6465 3.48765 12.207L5.67515 9.0918C6.04624 8.55469 5.87046 8.07617 5.1771 8.07617Z" fill="currentColor"/>
  <path d="M8.86851 14.834C9.20054 14.834 9.42515 14.5996 9.42515 14.209L9.42515 10.8984L9.88413 10.8984L11.0951 14.4336C11.1927 14.7363 11.388 14.834 11.6322 14.834C11.9544 14.834 12.1791 14.5898 12.1791 14.2676C12.1791 14.1406 12.1498 14.043 12.1009 13.8965L10.9583 10.6641C11.7396 10.2637 12.1888 9.25781 12.1888 8.0957C12.1888 6.25977 11.4662 5.36133 10.0306 5.36133L8.88804 5.36133C8.54624 5.36133 8.31186 5.60547 8.31186 6.00586L8.31186 14.1797C8.31186 14.5801 8.53647 14.834 8.86851 14.834ZM9.42515 9.78516L9.42515 6.48438L9.96226 6.48438C10.7044 6.48438 11.056 7.04102 11.056 8.125C11.056 9.22852 10.7044 9.78516 9.93296 9.78516ZM14.2884 14.8438C15.3626 14.8438 16.0755 14.0625 16.0755 12.8516C16.0755 11.875 15.7435 11.2988 14.7962 10.7812L14.4251 10.5762C13.9076 10.293 13.683 10.0098 13.683 9.54102C13.683 9.01367 13.8978 8.70117 14.2787 8.70117C14.7279 8.70117 14.8646 9.0332 14.9134 9.66797C14.9427 10.0488 15.1185 10.2832 15.4505 10.2832C15.7826 10.2832 15.9876 10.0391 15.9876 9.64844C15.9876 9.55078 15.9779 9.46289 15.9681 9.36523C15.8705 8.38867 15.2943 7.63672 14.2884 7.63672C13.2728 7.63672 12.5892 8.4082 12.5892 9.58008C12.5892 10.5176 12.9701 11.1426 13.8783 11.6211L14.2689 11.8262C14.7669 12.0801 14.972 12.4121 14.972 12.9297C14.972 13.4961 14.7279 13.7988 14.2884 13.7988C13.8294 13.7988 13.6146 13.4277 13.5755 12.8223C13.5462 12.4316 13.3509 12.207 13.0287 12.207C12.6966 12.207 12.5013 12.4512 12.5013 12.8418C12.5013 12.959 12.5013 13.0664 12.5111 13.1738C12.638 14.1699 13.2728 14.8438 14.2884 14.8438Z" fill="currentColor"/>
 </g>
</svg>
