<?xml version="1.0" encoding="UTF-8"?>
<!--Generator: Apple Native CoreSVG 232.5-->
<!DOCTYPE svg
PUBLIC "-//W3C//DTD SVG 1.1//EN"
       "http://www.w3.org/Graphics/SVG/1.1/DTD/svg11.dtd">
<svg version="1.1" xmlns="http://www.w3.org/2000/svg" xmlns:xlink="http://www.w3.org/1999/xlink" width="21.9141" height="18.1934">
 <g>
  <rect height="18.1934" opacity="0" width="21.9141" x="0" y="0"/>
  <path d="M0.898438 18.1836C1.45508 18.1836 1.80664 17.8125 1.80664 17.2461L1.80664 10.791L4.7168 10.791C4.83398 10.791 4.9707 10.7812 5.08789 10.7812L8.88672 17.5977C9.13086 18.0371 9.36523 18.1934 9.79492 18.1934C10.3223 18.1934 10.6934 17.832 10.6934 17.3535C10.6934 17.1484 10.6445 16.9629 10.5078 16.709L6.96289 10.498C9.24805 9.85352 10.6152 8.01758 10.6152 5.56641C10.6152 2.46094 8.4375 0.478516 5.06836 0.478516L0.927734 0.478516C0.351562 0.478516 0 0.849609 0 1.44531L0 17.2461C0 17.8223 0.351562 18.1836 0.898438 18.1836ZM1.80664 9.17969L1.80664 2.09961L4.83398 2.09961C7.28516 2.09961 8.74023 3.39844 8.74023 5.625C8.74023 7.88086 7.33398 9.17969 4.91211 9.17969ZM16.8262 17.9785C19.5605 17.9785 21.5527 16.4648 21.5527 14.3164C21.5527 12.5391 20.6348 11.5723 18.1348 10.9668L16.2402 10.498C14.668 10.1172 13.9941 9.50195 13.9941 8.52539C13.9941 7.32422 15.0977 6.47461 16.7383 6.47461C18.1445 6.47461 19.0723 7.11914 19.5703 8.37891C19.7559 8.75977 20.0195 8.89648 20.3809 8.89648C20.8105 8.89648 21.0938 8.61328 21.0938 8.18359C21.0938 8.0957 21.084 7.98828 21.0645 7.87109C20.7227 6.20117 19.0137 5.01953 16.7383 5.01953C14.1113 5.01953 12.2656 6.5332 12.2656 8.62305C12.2656 10.3809 13.3789 11.4453 15.7324 12.002L17.627 12.4609C19.2285 12.8418 19.7949 13.418 19.7949 14.4531C19.7949 15.7031 18.6328 16.5234 16.8262 16.5234C15.127 16.5234 14.1309 15.791 13.6621 14.5508C13.4961 14.2285 13.2617 14.0137 12.8809 14.0137C12.4219 14.0137 12.1387 14.3066 12.1289 14.7363C12.1289 14.8438 12.1387 14.9023 12.1582 15.0098C12.4707 16.6797 14.1602 17.9785 16.8262 17.9785Z" fill="#ffffff" fill-opacity="0.85"/>
 </g>
</svg>
