<?xml version="1.0" encoding="UTF-8"?>
<!--Generator: Apple Native CoreSVG 232.5-->
<!DOCTYPE svg
PUBLIC "-//W3C//DTD SVG 1.1//EN"
       "http://www.w3.org/Graphics/SVG/1.1/DTD/svg11.dtd">
<svg version="1.1" xmlns="http://www.w3.org/2000/svg" xmlns:xlink="http://www.w3.org/1999/xlink" width="20.2832" height="19.9316">
 <g>
  <rect height="19.9316" opacity="0" width="20.2832" x="0" y="0"/>
  <path d="M19.9219 9.96094C19.9219 15.4004 15.4102 19.9219 9.96094 19.9219C4.52148 19.9219 0 15.4004 0 9.96094C0 4.51172 4.51172 0 9.95117 0C15.4004 0 19.9219 4.51172 19.9219 9.96094ZM14.1699 4.88281L8.4082 7.69531C8.0957 7.8418 7.88086 8.05664 7.71484 8.39844L4.88281 14.1797C4.57031 14.8438 5.08789 15.3711 5.76172 15.0488L11.5332 12.2168C11.8555 12.0703 12.0801 11.8359 12.2363 11.5234L15.0488 5.75195C15.3809 5.06836 14.8828 4.54102 14.1699 4.88281ZM11.2109 9.9707C11.2109 10.6543 10.6543 11.2109 9.9707 11.2109C9.29688 11.2109 8.74023 10.6543 8.74023 9.9707C8.74023 9.28711 9.29688 8.74023 9.9707 8.74023C10.6543 8.74023 11.2109 9.28711 11.2109 9.9707Z" fill="#ffffff" fill-opacity="0.85"/>
 </g>
</svg>
