<svg version="1.1" xmlns="http://www.w3.org/2000/svg" xmlns:xlink="http://www.w3.org/1999/xlink" width="20.791" height="18.5254" viewBox="0 0 20.791 18.5254">
 <g>
  <rect height="18.5254" opacity="0" width="20.791" x="0" y="0"/>
  <path d="M2.49023 14.9219L3.28125 16.2695L10.2441 12.7734L17.207 16.2695L17.998 14.9219L11.0352 11.4258L11.0352 3.18359L9.46289 3.18359L9.46289 11.4258ZM0.0195312 16.3184C0.0195312 16.7188 0.185547 17.0117 0.537109 17.207L2.49023 18.3496C2.74414 18.5059 2.91992 18.5352 3.26172 18.3398L5.16602 17.2363C5.51758 17.041 5.58594 16.875 5.57617 16.5527L5.58594 14.2871C5.58594 13.8965 5.41016 13.6133 5.07812 13.418L3.11523 12.2754C2.86133 12.1387 2.64648 12.0898 2.31445 12.2754L0.380859 13.3984C0.0488281 13.584 0 13.7793 0 14.0527ZM14.8535 16.5625C14.8438 16.8848 14.9121 17.0508 15.2637 17.2461L17.168 18.3496C17.5098 18.5449 17.6855 18.5156 17.9395 18.3594L19.8926 17.2168C20.2441 17.0215 20.4102 16.7285 20.4102 16.3281L20.4297 14.0625C20.4297 13.7891 20.3809 13.5938 20.0488 13.4082L18.1152 12.2852C17.7832 12.0996 17.5684 12.1484 17.3145 12.2852L15.3516 13.4277C15.0195 13.623 14.8438 13.9062 14.8438 14.2969ZM7.75391 4.85352L9.72656 5.98633C10.0586 6.17188 10.3809 6.17188 10.7129 5.98633L12.6855 4.85352C12.959 4.69727 13.0762 4.55078 13.0762 4.15039L13.0762 1.94336C13.0762 1.55273 12.959 1.41602 12.7051 1.26953L10.7324 0.146484C10.3809-0.0488281 10.0488-0.0488281 9.70703 0.146484L7.73438 1.26953C7.49023 1.40625 7.35352 1.55273 7.35352 1.94336L7.35352 4.15039C7.35352 4.55078 7.5 4.70703 7.75391 4.85352Z" fill="var(--color-primary)"/>
 </g>
</svg>
