<svg version="1.1" xmlns="http://www.w3.org/2000/svg" xmlns:xlink="http://www.w3.org/1999/xlink" width="23.3105" height="17.998" viewBox="0 0 23.3105 17.998">
 <g>
  <rect height="17.998" opacity="0" width="23.3105" x="0" y="0"/>
  <path d="M0 14.9707C0 16.9824 1.02539 17.9883 3.06641 17.9883L19.8828 17.9883C21.9141 17.9883 22.9492 16.9727 22.9492 14.9707L22.9492 11.7676C22.9492 11.123 22.7539 10.4004 22.2363 9.84375L18.5352 5.9082C17.6465 4.9707 16.9629 4.43359 15.6445 4.43359L7.11914 4.43359C5.97656 4.43359 5.30273 4.9707 4.41406 5.9082L0.712891 9.84375C0.195312 10.4004 0 11.123 0 11.7676ZM1.57227 14.8828L1.57227 12.9785L21.377 12.9785L21.377 14.8828C21.377 15.8984 20.8203 16.416 19.8535 16.416L3.08594 16.416C2.10938 16.416 1.57227 15.8984 1.57227 14.8828ZM2.17773 10.6543L5.70312 6.72852C6.20117 6.18164 6.5625 5.87891 7.14844 5.87891L15.791 5.87891C16.377 5.87891 16.748 6.17188 17.2461 6.72852L20.7715 10.6543C21.0352 10.957 20.8887 11.4062 20.4004 11.4062L2.54883 11.4062C2.06055 11.4062 1.91406 10.957 2.17773 10.6543ZM1.46484 1.39648L4.53125 4.49219C5.41016 5.39062 5.85938 5.68359 6.96289 5.68359L15.8984 5.68359C17.0801 5.68359 17.5391 5.39062 18.418 4.49219L21.4844 1.39648C21.9824 0.898438 21.7383 0 20.8691 0L2.08008 0C1.21094 0 0.966797 0.898438 1.46484 1.39648ZM3.36914 1.41602L19.5801 1.41602L16.9727 4.0332C16.6992 4.31641 16.4258 4.43359 15.9668 4.43359L6.98242 4.43359C6.51367 4.43359 6.25 4.31641 5.97656 4.0332ZM5.57617 10C5.6543 10.2344 5.91797 10.3418 6.16211 10.2539L10.6543 8.61328C10.9082 8.52539 11.0254 8.29102 10.9375 8.03711C10.8496 7.79297 10.6055 7.68555 10.3516 7.7832L5.85938 9.42383C5.60547 9.51172 5.48828 9.74609 5.57617 10ZM5.72266 8.21289C5.81055 8.4668 6.06445 8.56445 6.30859 8.47656L9.4043 7.35352C9.64844 7.26562 9.78516 7.02148 9.6875 6.77734C9.59961 6.52344 9.3457 6.43555 9.11133 6.52344L6.00586 7.64648C5.75195 7.73438 5.63477 7.97852 5.72266 8.21289ZM15.6543 14.6973C15.6543 15 15.8984 15.2051 16.1914 15.2051L18.8086 15.2051C19.1113 15.2051 19.3359 15 19.3359 14.6973C19.3359 14.3945 19.1113 14.1797 18.8086 14.1797L16.1914 14.1797C15.8789 14.1797 15.6543 14.3945 15.6543 14.6973Z" fill="currentColor"/>
 </g>
</svg>
