<?xml version="1.0" encoding="UTF-8"?>
<!--Generator: Apple Native CoreSVG 232.5-->
<!DOCTYPE svg
PUBLIC "-//W3C//DTD SVG 1.1//EN"
       "http://www.w3.org/Graphics/SVG/1.1/DTD/svg11.dtd">
<svg version="1.1" xmlns="http://www.w3.org/2000/svg" xmlns:xlink="http://www.w3.org/1999/xlink" width="16.3086" height="25.9277">
 <g>
  <rect height="25.9277" opacity="0" width="16.3086" x="0" y="0"/>
  <path d="M3.75977 20.127L13.8672 20.127C14.2188 20.127 14.541 19.7266 14.541 19.3945C14.541 19.0527 14.2188 18.6523 13.8672 18.6523L3.73047 18.6523C2.91992 18.6523 2.50977 18.2031 2.50977 17.4219L2.50977 2.45117L0.9375 2.45117L0.9375 17.3535C0.9375 19.1992 1.88477 20.127 3.75977 20.127ZM13.457 24.1895L15.0293 24.1895L15.0293 8.99414C15.0293 7.20703 14.1113 6.31836 12.3145 6.31836L2.08984 6.31836C1.74805 6.31836 1.42578 6.71875 1.42578 7.05078C1.42578 7.38281 1.74805 7.79297 2.08984 7.79297L12.2363 7.79297C13.0469 7.79297 13.457 8.24219 13.457 9.02344ZM14.2383 25.9277C15.1855 25.9277 15.9473 25.166 15.9473 24.2188C15.9473 23.2812 15.1855 22.5098 14.2383 22.5098C13.3008 22.5098 12.5293 23.2812 12.5293 24.2188C12.5293 25.166 13.3008 25.9277 14.2383 25.9277ZM1.70898 3.93555C2.65625 3.93555 3.41797 3.17383 3.41797 2.22656C3.41797 1.28906 2.65625 0.517578 1.70898 0.517578C0.771484 0.517578 0 1.28906 0 2.22656C0 3.17383 0.771484 3.93555 1.70898 3.93555Z" fill="#ffffff" fill-opacity="0.85"/>
 </g>
</svg>
