<svg version="1.1" xmlns="http://www.w3.org/2000/svg" xmlns:xlink="http://www.w3.org/1999/xlink" width="24.0918" height="16.9434" viewBox="0 0 24.0918 16.9434">
 <g>
  <rect height="16.9434" opacity="0" width="24.0918" x="0" y="0"/>
  <path d="M20.8008 11.123C21.0645 11.4355 21.5332 11.4355 21.8457 11.084C23.0664 9.7168 23.7305 7.94922 23.7305 6.01562C23.7305 4.08203 23.0664 2.30469 21.8457 0.9375C21.543 0.595703 21.084 0.595703 20.8203 0.888672C20.5469 1.19141 20.6152 1.57227 20.9082 1.91406C21.8848 3.02734 22.3926 4.45312 22.3926 6.01562C22.3926 7.56836 21.8848 9.00391 20.9082 10.1074C20.6152 10.4492 20.5469 10.8203 20.8008 11.123Z" fill="var(--color-secondary)"/>
  <path d="M18.5645 9.01367C18.8281 9.31641 19.3262 9.33594 19.6191 8.94531C20.2441 8.125 20.6152 7.10938 20.6152 6.01562C20.6152 4.92188 20.2441 3.89648 19.6191 3.08594C19.3262 2.69531 18.8379 2.70508 18.5742 3.00781C18.291 3.30078 18.3984 3.66211 18.6523 4.01367C19.0723 4.60938 19.2773 5.2832 19.2773 6.01562C19.2773 6.73828 19.0723 7.42188 18.6523 8.01758C18.4082 8.35938 18.291 8.7207 18.5645 9.01367Z" fill="var(--color-secondary)"/>
  <path d="M3.06641 16.9336L13.6035 16.9336C15.6543 16.9336 16.6699 15.918 16.6699 13.9062L16.6699 3.02734C16.6699 1.01562 15.6543 0 13.6035 0L3.06641 0C1.02539 0 0 1.00586 0 3.02734L0 13.9062C0 15.918 1.02539 16.9336 3.06641 16.9336ZM7.80273 9.01367C7.45117 9.01367 7.1875 8.75 7.1875 8.39844L7.1875 3.64258C7.1875 3.29102 7.45117 3.02734 7.80273 3.02734C8.14453 3.02734 8.41797 3.29102 8.41797 3.64258L8.41797 8.39844C8.41797 8.75 8.14453 9.01367 7.80273 9.01367ZM10.3613 9.01367C10.0195 9.01367 9.75586 8.75 9.75586 8.39844L9.75586 3.64258C9.75586 3.29102 10.0195 3.02734 10.3613 3.02734C10.7031 3.02734 10.9766 3.29102 10.9766 3.64258L10.9766 8.39844C10.9766 8.75 10.7031 9.01367 10.3613 9.01367ZM12.9297 9.01367C12.5879 9.01367 12.3145 8.75 12.3145 8.39844L12.3145 3.64258C12.3145 3.29102 12.5879 3.02734 12.9297 3.02734C13.2812 3.02734 13.5449 3.29102 13.5449 3.64258L13.5449 8.39844C13.5449 8.75 13.2812 9.01367 12.9297 9.01367Z" fill="var(--color-primary)"/>
 </g>
</svg>
