<?xml version="1.0" encoding="UTF-8"?>
<!--Generator: Apple Native CoreSVG 232.5-->
<!DOCTYPE svg
PUBLIC "-//W3C//DTD SVG 1.1//EN"
       "http://www.w3.org/Graphics/SVG/1.1/DTD/svg11.dtd">
<svg version="1.1" xmlns="http://www.w3.org/2000/svg" xmlns:xlink="http://www.w3.org/1999/xlink" width="13.8574" height="15.9382">
 <g>
  <rect height="15.9382" opacity="0" width="13.8574" x="0" y="0"/>
  <path d="M0 15.2006L2.46094 15.8549C3.49609 16.1381 4.12109 15.6888 4.12109 14.6732L4.12109 11.3431L8.48633 11.3431L8.48633 8.61853L0.917969 8.61853L0.917969 14.2924C0.917969 14.849 0.556641 15.2006 0 15.2006ZM0.917969 6.99743L4.12109 6.99743L4.12109 3.07165C4.12109 2.15368 3.70117 1.72399 2.87109 1.49939L0.537109 0.874385C0.771484 1.03064 0.917969 1.28454 0.917969 1.6361ZM9.375 15.2006L11.8359 15.8549C12.8711 16.1381 13.4961 15.6888 13.4961 14.6732L13.4961 3.07165C13.4961 2.15368 13.0664 1.71423 12.2363 1.48962L9.91211 0.874385C10.1465 1.03064 10.293 1.28454 10.293 1.6361L10.293 14.2924C10.293 14.849 9.93164 15.2006 9.375 15.2006Z" fill="#ffffff" fill-opacity="0.85"/>
 </g>
</svg>
