<?xml version="1.0" encoding="UTF-8"?>
<!--Generator: Apple Native CoreSVG 232.5-->
<!DOCTYPE svg
PUBLIC "-//W3C//DTD SVG 1.1//EN"
       "http://www.w3.org/Graphics/SVG/1.1/DTD/svg11.dtd">
<svg version="1.1" xmlns="http://www.w3.org/2000/svg" xmlns:xlink="http://www.w3.org/1999/xlink" width="29.4922" height="24.4459">
 <g>
  <rect height="24.4459" opacity="0" width="29.4922" x="0" y="0"/>
  <path d="M29.1309 19.2884C29.1309 19.7278 28.7695 20.0696 28.3301 20.0696C27.9004 20.0696 27.5586 19.7278 27.5586 19.2884C27.5586 11.5247 21.7188 5.19659 14.5605 5.19659C12.977 5.19659 11.4592 5.50545 10.0621 6.08574L8.85896 4.87998C10.6102 4.07132 12.538 3.62432 14.5605 3.62432C22.5781 3.62432 29.1309 10.6653 29.1309 19.2884ZM6.70861 8.08947C3.58444 10.655 1.57227 14.7235 1.57227 19.2884C1.57227 19.7278 1.2207 20.0696 0.791016 20.0696C0.351562 20.0696 0 19.7278 0 19.2884C0 14.2979 2.18821 9.83731 5.5959 6.97557ZM10.1746 11.5592C7.66234 13.1583 6.11328 16.106 6.11328 19.2981C6.11328 19.7278 5.75195 20.0696 5.32227 20.0696C4.88281 20.0696 4.53125 19.7278 4.53125 19.2981C4.53125 15.6984 6.26701 12.3565 9.05079 10.4342ZM24.6094 19.2981C24.6094 19.667 24.3431 19.9711 23.9957 20.0491L23.0103 19.0616C22.9384 15.8824 21.3323 12.9756 18.7608 11.4403C18.8697 11.0441 18.9258 10.6233 18.9258 10.1868C18.9258 10.0373 18.919 9.88988 18.9042 9.74536C22.3779 11.4752 24.6094 15.2214 24.6094 19.2981Z" fill="#ffffff" fill-opacity="0.55"/>
  <path d="M18.9101 20.304L9.63867 20.304C8.80859 20.304 8.31055 19.9134 8.31055 19.2591C8.31055 17.5187 10.2181 15.2277 13.3665 14.7545ZM17.5879 10.1868C17.5879 11.171 17.2004 12.0368 16.5971 12.6347L12.1856 8.21372C12.7427 7.43359 13.6177 6.94463 14.5703 6.94463C16.1621 6.94463 17.5879 8.33135 17.5879 10.1868Z" fill="#ffffff" fill-opacity="0.55"/>
  <path d="M23.3008 23.0774C23.5938 23.3704 24.082 23.3704 24.3652 23.0774C24.6484 22.7845 24.6582 22.3157 24.3652 22.013L6.12305 3.76104C5.82031 3.45831 5.35156 3.45831 5.04883 3.76104C4.76562 4.04424 4.76562 4.53252 5.04883 4.82549Z" fill="#ffffff" fill-opacity="0.85"/>
 </g>
</svg>
