<?xml version="1.0" encoding="UTF-8"?>
<!--Generator: Apple Native CoreSVG 232.5-->
<!DOCTYPE svg
PUBLIC "-//W3C//DTD SVG 1.1//EN"
       "http://www.w3.org/Graphics/SVG/1.1/DTD/svg11.dtd">
<svg version="1.1" xmlns="http://www.w3.org/2000/svg" xmlns:xlink="http://www.w3.org/1999/xlink" width="21.3672" height="18.252">
 <g>
  <rect height="18.252" opacity="0" width="21.3672" x="0" y="0"/>
  <path d="M7.49023 18.125L13.5156 18.125C14.8828 18.125 15.6152 17.3242 15.6152 16.0352L15.6152 11.6602L19.5801 11.6602C20.3809 11.6602 21.0059 11.1719 21.0059 10.4297C21.0059 9.9707 20.7715 9.62891 20.4199 9.27734L11.709 0.595703C11.3281 0.214844 10.9375 0 10.498 0C10.0684 0 9.66797 0.214844 9.29688 0.595703L0.585938 9.27734C0.205078 9.64844 0 9.9707 0 10.4297C0 11.1719 0.625 11.6602 1.41602 11.6602L5.39062 11.6602L5.39062 16.0352C5.39062 17.3242 6.12305 18.125 7.49023 18.125ZM7.64648 16.6113C7.27539 16.6113 7.02148 16.3574 7.02148 15.9961L7.02148 10.5176C7.02148 10.2734 6.93359 10.1855 6.69922 10.1855L2.1875 10.1855C2.11914 10.1855 2.08008 10.1562 2.08008 10.1074C2.08008 10.0684 2.09961 10.0391 2.13867 9.99023L10.293 1.88477C10.3711 1.80664 10.4395 1.78711 10.498 1.78711C10.5664 1.78711 10.6348 1.80664 10.7031 1.88477L18.8574 9.99023C18.9062 10.0391 18.916 10.0684 18.916 10.1074C18.916 10.1562 18.8867 10.1855 18.8086 10.1855L14.3066 10.1855C14.0723 10.1855 13.9844 10.2734 13.9844 10.5176L13.9844 15.9961C13.9844 16.3477 13.7207 16.6113 13.3594 16.6113Z" fill="#ffffff" fill-opacity="0.85"/>
 </g>
</svg>
