<svg version="1.1" xmlns="http://www.w3.org/2000/svg" xmlns:xlink="http://www.w3.org/1999/xlink" width="34.7461" height="17.5684" viewBox="0 0 34.7461 17.5684">
 <g>
  <rect height="17.5684" opacity="0" width="34.7461" x="0" y="0"/>
  <path d="M14.1797 1.05469L19.4141 4.12109C20.3418 4.64844 20.5371 4.6875 21.4355 4.6875C22.334 4.6875 24.7266 4.30664 25.791 4.30664C28.0762 4.30664 29.6289 5.83008 29.6289 8.05664C29.6289 8.06093 29.6289 8.06521 29.6284 8.06939C29.1401 8.11235 28.5786 8.17718 28.0403 8.23781C28.0448 8.17841 28.0469 8.11799 28.0469 8.05664C28.0469 7.94377 28.0423 7.83525 28.0315 7.73266C27.981 7.92416 27.9046 8.09922 27.7887 8.26591C27.1362 8.33846 26.5421 8.39844 26.1816 8.39844C26.0439 8.39844 25.9226 8.3975 25.8139 8.39363L25.918 8.33984C27.4805 7.50977 27.6855 6.73828 27.1094 6.38672L27.4433 6.39314C27.0682 6.05052 26.514 5.87891 25.7812 5.87891C24.8564 5.87891 22.5057 6.2496 21.4795 6.25885L18.9258 4.76562C18.0123 4.23477 17.134 3.99902 16.3072 4.11692L13.3789 2.42188C12.0117 1.63086 11.3672 1.68945 10.4004 2.92969C9.0332 4.69727 7.34375 5.5957 5.69336 5.5957C4.31641 5.5957 3.28125 5.2832 2.32422 4.86328C1.96289 4.6875 1.57227 4.83398 1.57227 5.29297L1.57227 9.67773C1.57227 9.7446 1.5731 9.80983 1.57475 9.87347C1.85476 10.1282 2.33966 10.2344 3.22266 10.2344L4.75586 10.2344L4.75586 11.3281L3.22266 11.3281C2.60141 11.3281 2.16986 11.2579 1.75543 11.0744C2.07649 12.0365 2.80927 12.2852 3.84766 12.2852L4.75586 12.2852L4.75586 13.3887C4.75586 13.5513 4.7607 13.708 4.77147 13.8574L3.85742 13.8574C1.97266 13.8574 0 12.959 0 9.67773L0 5.30273C0 3.51562 1.63086 2.8418 3.13477 3.49609C3.91602 3.85742 4.63867 4.02344 5.69336 4.02344C6.88477 4.02344 8.03711 3.4082 9.16016 1.97266C10.5859 0.117188 12.3145-0.0292969 14.1797 1.05469Z" fill="currentColor"/>
  <path d="M18.9258 4.76562C17.0605 3.68164 15.3418 3.82812 13.9062 5.68359C12.7832 7.11914 11.6309 7.73438 10.4395 7.73438C9.38477 7.73438 8.67188 7.56836 7.88086 7.20703C6.38672 6.55273 4.75586 7.22656 4.75586 9.01367L4.75586 13.3887C4.75586 16.6699 6.72852 17.5684 8.61328 17.5684L24.1406 17.5684C27.2852 17.5684 29.0918 17.0898 31.543 15.7324C33.4863 14.6484 34.3848 13.3105 34.3848 11.7676C34.3848 9.54102 32.8223 8.01758 30.5371 8.01758C29.4824 8.01758 27.0898 8.39844 26.1816 8.39844C25.293 8.39844 25.0879 8.35938 24.1699 7.83203ZM18.1348 6.13281L23.3887 9.17969C24.5801 9.87305 25.1074 9.9707 26.1816 9.9707C27.1875 9.9707 29.5898 9.58984 30.5273 9.58984C32.0508 9.58984 32.8027 10.332 32.8027 11.7676C32.8027 12.8027 32.207 13.5742 30.791 14.3652C28.5547 15.6055 27.0703 15.9961 24.1406 15.9961L8.60352 15.9961C7.16797 15.9961 6.32812 15.5273 6.32812 13.3887L6.32812 9.00391C6.32812 8.54492 6.71875 8.39844 7.08008 8.57422C8.03711 8.99414 9.0625 9.30664 10.4395 9.30664C12.0996 9.30664 13.7891 8.4082 15.1562 6.64062C16.123 5.40039 16.7676 5.3418 18.1348 6.13281ZM6.2793 14.6777C6.77734 14.9414 7.24609 15.0391 7.96875 15.0391L24.1406 15.0391C26.6113 15.0391 27.9004 14.707 29.4531 13.8965L31.1914 13.0176C32.832 12.1582 32.8906 11.543 32.8711 10.1172L31.8555 10.0977C32.4316 10.4492 32.2363 11.2207 30.6738 12.0508L28.9258 12.9492C27.5684 13.6719 26.5137 13.9453 24.1406 13.9453L7.96875 13.9453C7.05078 13.9453 6.5625 13.8281 6.2793 13.5449ZM19.0039 5.81055L17.2754 8.18359C17.0898 8.41797 17.1191 8.76953 17.3438 8.94531C17.5781 9.13086 17.9395 9.11133 18.1152 8.87695L19.8535 6.49414ZM21.2109 6.93359L19.502 9.27734C19.3066 9.54102 19.3457 9.85352 19.5703 10.0293C19.8438 10.2441 20.1562 10.2344 20.3516 9.96094L22.0605 7.61719ZM23.4082 8.06641L21.7285 10.3711C21.5332 10.625 21.5625 10.9473 21.7871 11.123C22.041 11.3379 22.3633 11.3086 22.5586 11.0547L24.2578 8.74023Z" fill="currentColor"/>
 </g>
</svg>
