<svg version="1.1" xmlns="http://www.w3.org/2000/svg" xmlns:xlink="http://www.w3.org/1999/xlink" width="23.3887" height="17.998" viewBox="0 0 23.3887 17.998">
 <g>
  <rect height="17.998" opacity="0" width="23.3887" x="0" y="0"/>
  <path d="M3.06641 17.998L19.9609 17.998C22.0117 17.998 23.0273 16.9824 23.0273 14.9707L23.0273 3.04688C23.0273 1.03516 22.0117 0.0195312 19.9609 0.0195312L3.06641 0.0195312C1.02539 0.0195312 0 1.02539 0 3.04688L0 14.9707C0 16.9922 1.02539 17.998 3.06641 17.998ZM3.08594 16.4258C2.10938 16.4258 1.57227 15.9082 1.57227 14.8926L1.57227 3.125C1.57227 2.10938 2.10938 1.5918 3.08594 1.5918L19.9414 1.5918C20.9082 1.5918 21.4551 2.10938 21.4551 3.125L21.4551 14.8926C21.4551 15.9082 20.9082 16.4258 19.9414 16.4258ZM14.082 16.7285L15.6152 16.7285L15.6152 1.29883L14.082 1.29883ZM19.4629 6.25977C19.7266 6.25977 19.9121 6.08398 19.9121 5.82031L19.9121 3.99414C19.9121 3.7207 19.7363 3.54492 19.4629 3.54492L17.6172 3.54492C17.3633 3.54492 17.1777 3.7207 17.1777 3.99414L17.1777 5.82031C17.1777 6.08398 17.373 6.25977 17.6172 6.25977ZM19.4629 10.3613C19.7266 10.3613 19.9121 10.166 19.9121 9.92188L19.9121 8.07617C19.9121 7.82227 19.7363 7.62695 19.4629 7.62695L17.6172 7.62695C17.3633 7.62695 17.1777 7.82227 17.1777 8.07617L17.1777 9.92188C17.1777 10.166 17.373 10.3613 17.6172 10.3613ZM19.4629 14.4434C19.7266 14.4434 19.9121 14.2676 19.9121 14.0039L19.9121 12.1777C19.9121 11.9141 19.7363 11.7285 19.4629 11.7285L17.6172 11.7285C17.3633 11.7285 17.1777 11.9141 17.1777 12.1777L17.1777 14.0039C17.1777 14.2676 17.373 14.4434 17.6172 14.4434Z" fill="currentColor"/>
 </g>
</svg>
