<?xml version="1.0" encoding="UTF-8"?>
<!--Generator: Apple Native CoreSVG 232.5-->
<!DOCTYPE svg
PUBLIC "-//W3C//DTD SVG 1.1//EN"
       "http://www.w3.org/Graphics/SVG/1.1/DTD/svg11.dtd">
<svg version="1.1" xmlns="http://www.w3.org/2000/svg" xmlns:xlink="http://www.w3.org/1999/xlink" width="23.3887" height="17.998">
 <g>
  <rect height="17.998" opacity="0" width="23.3887" x="0" y="0"/>
  <path d="M3.06641 17.998L19.9609 17.998C22.0117 17.998 23.0273 16.9824 23.0273 14.9707L23.0273 3.04688C23.0273 1.03516 22.0117 0.0195312 19.9609 0.0195312L3.06641 0.0195312C1.02539 0.0195312 0 1.02539 0 3.04688L0 14.9707C0 16.9922 1.02539 17.998 3.06641 17.998ZM3.08594 16.4258C2.10938 16.4258 1.57227 15.9082 1.57227 14.8926L1.57227 3.125C1.57227 2.10938 2.10938 1.5918 3.08594 1.5918L19.9414 1.5918C20.9082 1.5918 21.4551 2.10938 21.4551 3.125L21.4551 14.8926C21.4551 15.9082 20.9082 16.4258 19.9414 16.4258ZM14.082 16.7285L15.6152 16.7285L15.6152 1.29883L14.082 1.29883ZM17.4902 5.21484L19.5801 5.21484C19.8828 5.21484 20.1367 4.95117 20.1367 4.66797C20.1367 4.375 19.8828 4.12109 19.5801 4.12109L17.4902 4.12109C17.1973 4.12109 16.9336 4.375 16.9336 4.66797C16.9336 4.95117 17.1973 5.21484 17.4902 5.21484ZM17.4902 7.74414L19.5801 7.74414C19.8828 7.74414 20.1367 7.48047 20.1367 7.1875C20.1367 6.89453 19.8828 6.65039 19.5801 6.65039L17.4902 6.65039C17.1973 6.65039 16.9336 6.89453 16.9336 7.1875C16.9336 7.48047 17.1973 7.74414 17.4902 7.74414ZM17.4902 10.2637L19.5801 10.2637C19.8828 10.2637 20.1367 10.0195 20.1367 9.72656C20.1367 9.43359 19.8828 9.17969 19.5801 9.17969L17.4902 9.17969C17.1973 9.17969 16.9336 9.43359 16.9336 9.72656C16.9336 10.0195 17.1973 10.2637 17.4902 10.2637Z" fill="#ffffff" fill-opacity="0.85"/>
 </g>
</svg>
