<svg version="1.1" xmlns="http://www.w3.org/2000/svg" xmlns:xlink="http://www.w3.org/1999/xlink" width="27.3584" height="27.0068" viewBox="0 0 27.3584 27.0068">
 <g>
  <rect height="27.0068" opacity="0" width="27.3584" x="0" y="0"/>
  <path d="M0.979004 15.7251C-0.32959 17.0337-0.319824 19.0845 0.969238 20.4028C2.27783 21.6821 4.33838 21.6919 5.64697 20.3833L20.3931 5.64697C21.7017 4.32861 21.6821 2.27783 20.4028 0.969238C19.0942-0.319824 17.0337-0.32959 15.7251 0.979004ZM2.03369 16.7798L16.7798 2.03369C17.5122 1.30127 18.645 1.30127 19.3481 2.02393C20.0708 2.72705 20.061 3.85986 19.3384 4.59229L4.59229 19.3286C3.85986 20.061 2.72705 20.061 2.02393 19.3481C1.30127 18.6353 1.30127 17.5122 2.03369 16.7798ZM10.3638 10.1392L11.2427 10.9985C11.5356 11.2817 11.9751 11.2915 12.2583 10.9985C12.5415 10.7349 12.5415 10.2954 12.2583 10.0024L11.3696 9.12354C11.0962 8.8501 10.647 8.84033 10.3638 9.12354C10.0806 9.38721 10.0708 9.84619 10.3638 10.1392ZM7.32666 13.1567L8.20557 14.0552C8.479 14.3384 8.93799 14.3188 9.22119 14.0552C9.49463 13.772 9.50439 13.3228 9.22119 13.0396L8.34229 12.1509C8.05908 11.8774 7.6001 11.8774 7.32666 12.1509C7.04346 12.4438 7.05322 12.8833 7.32666 13.1567ZM6.61377 21.3501C5.30518 22.6587 5.31494 24.7192 6.59424 26.0278C7.9126 27.3169 9.96338 27.3267 11.272 26.0181L26.0181 11.272C27.3267 9.96338 27.3169 7.90283 26.0278 6.59424C24.7192 5.31494 22.6685 5.29541 21.3501 6.604ZM7.66846 22.4048L22.4048 7.65869C23.1372 6.93604 24.27 6.92627 24.9731 7.64893C25.6958 8.35205 25.6958 9.48486 24.9634 10.2173L10.2173 24.9634C9.48486 25.6958 8.36182 25.6958 7.64893 24.9731C6.93604 24.27 6.93604 23.1372 7.66846 22.4048ZM15.9985 15.7642L16.8677 16.6235C17.1606 16.9165 17.6099 16.9165 17.8833 16.6235C18.1763 16.3599 18.1665 15.9106 17.8833 15.6372L17.0044 14.7485C16.7212 14.4751 16.272 14.4556 15.9985 14.7485C15.7153 15.0122 15.7056 15.481 15.9985 15.7642ZM12.9517 18.7915L13.8403 19.6802C14.1138 19.9634 14.563 19.9438 14.856 19.6802C15.1294 19.4067 15.1392 18.9575 14.856 18.6646L13.9673 17.7856C13.6938 17.5024 13.2349 17.5024 12.9517 17.7856C12.6782 18.0688 12.688 18.5083 12.9517 18.7915Z" fill="currentColor"/>
 </g>
</svg>
