<svg version="1.1" xmlns="http://www.w3.org/2000/svg" xmlns:xlink="http://www.w3.org/1999/xlink" width="20.2832" height="19.9316" viewBox="0 0 20.2832 19.9316">
 <g>
  <rect height="19.9316" opacity="0" width="20.2832" x="0" y="0"/>
  <path d="M19.9219 9.96094C19.9219 15.4004 15.4102 19.9219 9.96094 19.9219C4.52148 19.9219 0 15.4004 0 9.96094C0 4.51172 4.51172 0 9.95117 0C15.4004 0 19.9219 4.51172 19.9219 9.96094ZM12.7344 5.9375L5.98633 12.7832C5.76172 13.0176 5.64453 13.2617 5.64453 13.4961C5.64453 13.9551 5.97656 14.3359 6.46484 14.3359C6.74805 14.3359 6.95312 14.2188 7.17773 13.9941L13.9355 7.13867C14.1504 6.92383 14.2773 6.66992 14.2773 6.44531C14.2773 5.9668 13.8965 5.5957 13.4277 5.5957C13.1836 5.5957 12.9492 5.71289 12.7344 5.9375Z" fill="var(--color-primary)"/>
 </g>
</svg>
