<?xml version="1.0" encoding="UTF-8"?>
<!--Generator: Apple Native CoreSVG 232.5-->
<!DOCTYPE svg
PUBLIC "-//W3C//DTD SVG 1.1//EN"
       "http://www.w3.org/Graphics/SVG/1.1/DTD/svg11.dtd">
<svg version="1.1" xmlns="http://www.w3.org/2000/svg" xmlns:xlink="http://www.w3.org/1999/xlink" width="20.2832" height="19.9316">
 <g>
  <rect height="19.9316" opacity="0" width="20.2832" x="0" y="0"/>
  <path d="M9.96094 19.9316C15.4102 19.9316 19.9219 15.4199 19.9219 9.9707C19.9219 4.53125 15.4004 0.00976562 9.95117 0.00976562C4.51172 0.00976562 0 4.53125 0 9.9707C0 15.4199 4.52148 19.9316 9.96094 19.9316Z" fill="#ffffff" fill-opacity="0.25"/>
  <path d="M3.75 9.9707C3.75 6.57227 6.57227 3.75 9.96094 3.75C13.3691 3.75 16.1914 6.57227 16.1914 9.9707C16.1914 13.3789 13.3789 16.1914 9.9707 16.1914C6.57227 16.1914 3.75 13.3789 3.75 9.9707ZM5.21484 9.9707C5.21484 10.5371 5.3125 11.084 5.49805 11.582L14.4531 11.582C14.6387 11.084 14.7363 10.5371 14.7363 9.9707C14.7266 7.31445 12.6074 5.20508 9.96094 5.20508C7.31445 5.20508 5.21484 7.31445 5.21484 9.9707ZM6.24023 12.9199C7.09961 14.0234 8.44727 14.7363 9.9707 14.7363C11.4941 14.7363 12.8516 14.0234 13.7207 12.9199Z" fill="#ffffff" fill-opacity="0.85"/>
 </g>
</svg>
