<svg version="1.1" xmlns="http://www.w3.org/2000/svg" xmlns:xlink="http://www.w3.org/1999/xlink" width="20.2832" height="19.9316" viewBox="0 0 20.2832 19.9316">
 <g>
  <rect height="19.9316" opacity="0" width="20.2832" x="0" y="0"/>
  <path d="M0 9.96094C0 15.4004 4.52148 19.9219 9.96094 19.9219C15.4102 19.9219 19.9219 15.4004 19.9219 9.96094C19.9219 4.51172 15.4004 0 9.95117 0C4.51172 0 0 4.51172 0 9.96094ZM1.66992 9.96094C1.66992 5.35156 5.3418 1.66016 9.95117 1.66016C14.5605 1.66016 18.252 5.35156 18.2617 9.96094C18.2617 11.0449 18.0664 12.0703 17.6758 13.0078L2.25586 13.0078C1.875 12.0703 1.66992 11.0449 1.66992 9.96094ZM3.00781 14.4824L16.9336 14.4824C15.459 16.7676 12.9004 18.2617 9.96094 18.2617C7.02148 18.2617 4.47266 16.7676 3.00781 14.4824Z" fill="var(--color-primary)"/>
 </g>
</svg>
