<svg version="1.1" xmlns="http://www.w3.org/2000/svg" xmlns:xlink="http://www.w3.org/1999/xlink" width="35.7986" height="25.5371" viewBox="0 0 35.7986 25.5371">
 <g>
  <rect height="25.5371" opacity="0" width="35.7986" x="0" y="0"/>
  <path d="M29.2274 6.80664L29.2274 12.9928C28.9718 12.9563 28.7107 12.9395 28.4462 12.9395C28.1784 12.9395 27.9142 12.9569 27.6551 12.9922L27.6551 6.89453C27.6551 5.87891 27.1083 5.35156 26.1415 5.35156L9.28601 5.35156C8.30944 5.35156 7.77233 5.87891 7.77233 6.89453L7.77233 18.6523C7.77233 19.668 8.30944 20.1855 9.28601 20.1855L21.104 20.1855C21.1546 20.9229 21.6622 21.571 22.4552 21.7578L9.26647 21.7578C7.22546 21.7578 6.20007 20.752 6.20007 18.7402L6.20007 6.80664C6.20007 4.79492 7.22546 3.7793 9.26647 3.7793L26.161 3.7793C28.2118 3.7793 29.2274 4.79492 29.2274 6.80664ZM16.7206 13.1055L25.204 13.1055C25.4801 13.1055 25.7201 13.2862 25.8097 13.5344C25.3267 13.7604 24.8781 14.0475 24.4751 14.3848L16.7234 14.3848C16.4598 15.1324 15.7414 15.6738 14.9012 15.6738C14.0611 15.6738 13.3487 15.1324 13.0878 14.3848L10.204 14.3848C9.88171 14.3848 9.58874 14.1016 9.58874 13.75C9.58874 13.3984 9.88171 13.1055 10.204 13.1055L13.0894 13.1055C13.3502 12.3565 14.0562 11.8066 14.9012 11.8066C15.7386 11.8066 16.455 12.3565 16.7206 13.1055ZM13.954 13.75C13.954 14.2871 14.3641 14.6973 14.9012 14.6973C15.4481 14.6973 15.8583 14.2773 15.8583 13.75C15.8583 13.1934 15.4481 12.793 14.9012 12.793C14.3641 12.793 13.954 13.1934 13.954 13.75ZM22.3785 8.28125L25.2333 8.28125C25.5555 8.28125 25.8387 8.56445 25.8387 8.92578C25.8387 9.27734 25.5555 9.56055 25.2333 9.56055L22.3734 9.56055C22.1053 10.3063 21.3847 10.8496 20.5555 10.8496C19.711 10.8496 18.9992 10.3063 18.7355 9.56055L10.2333 9.56055C9.88171 9.56055 9.58874 9.27734 9.58874 8.92578C9.58874 8.56445 9.88171 8.28125 10.2333 8.28125L18.733 8.28125C18.9962 7.53047 19.715 6.98242 20.5555 6.98242C21.3898 6.98242 22.1141 7.52623 22.3785 8.28125ZM19.6083 8.91602C19.6083 9.45312 20.0087 9.87305 20.5555 9.87305C21.1024 9.87305 21.5126 9.45312 21.5126 8.91602C21.5126 8.37891 21.1024 7.96875 20.5555 7.96875C20.0087 7.96875 19.6083 8.36914 19.6083 8.91602Z" fill="var(--color-secondary)"/>
  <path d="M31.3661 21.5527C30.6825 22.4219 29.6278 22.9883 28.4462 22.9883C26.3954 22.9883 24.6962 21.2891 24.6962 19.2383L23.4852 19.2383C23.4852 21.9531 25.7216 24.1992 28.4462 24.1992C29.9794 24.1992 31.3661 23.4863 32.2645 22.373C32.8407 21.6895 31.8739 20.9375 31.3661 21.5527ZM23.7587 18.0957L22.5673 19.668C22.2645 20.0684 22.4794 20.4883 22.9872 20.4883L25.4676 20.4883C25.9755 20.4883 26.2098 20.0391 25.8973 19.668L24.6083 18.0957C24.3446 17.7832 24.0126 17.7734 23.7587 18.0957ZM25.5262 16.9238C26.2098 16.0547 27.2645 15.4883 28.4462 15.4883C30.4969 15.4883 32.1962 17.1875 32.1962 19.2383L33.4071 19.2383C33.4071 16.5234 31.161 14.2773 28.4462 14.2773C26.9032 14.2773 25.5262 15 24.6278 16.1035C24.0516 16.7871 25.0087 17.5391 25.5262 16.9238ZM33.1337 20.3809L34.3153 18.8086C34.6278 18.4082 34.413 17.9883 33.9051 17.9883L31.4149 17.9883C30.9071 17.9883 30.6727 18.4375 30.995 18.8086L32.2743 20.3809C32.538 20.7031 32.8798 20.7129 33.1337 20.3809Z" fill="var(--color-primary)"/>
 </g>
</svg>
