<svg version="1.1" xmlns="http://www.w3.org/2000/svg" xmlns:xlink="http://www.w3.org/1999/xlink" width="24.0924" height="23.7799" viewBox="0 0 24.0924 23.7799">
 <g>
  <rect height="23.7799" opacity="0" width="24.0924" x="0" y="0"/>
  <path d="M1.53348 22.1975C3.65262 24.3069 6.29911 24.2288 8.53544 22.0022C9.54129 20.9964 11.5432 18.0569 14.805 14.805C18.0569 11.5432 20.9964 9.54129 22.0022 8.53544C24.2288 6.29911 24.3069 3.65262 22.1975 1.53348C20.0784-0.575893 17.4319-0.507533 15.1858 1.72879C14.1897 2.73465 12.1878 5.66434 8.92606 8.92606C5.66434 12.1878 2.73465 14.1897 1.72879 15.1858C-0.507533 17.4319-0.575893 20.0784 1.53348 22.1975ZM12.1585 10.2542C11.7093 9.8245 11.6995 9.13114 12.139 8.70145C12.5686 8.27176 13.2522 8.27176 13.7015 8.70145L15.0198 10.0296C15.4593 10.469 15.4593 11.1526 15.0296 11.5725C14.5804 12.0218 13.9065 12.0218 13.4768 11.5725ZM8.68192 13.721C8.25223 13.2815 8.24247 12.5979 8.68192 12.1585C9.11161 11.7288 9.7952 11.7288 10.2249 12.178L11.553 13.5061C11.9925 13.9358 12.0022 14.5999 11.553 15.0491C11.1331 15.4788 10.4397 15.4886 10.01 15.0393Z" fill="currentColor"/>
 </g>
</svg>
