<?xml version="1.0" encoding="UTF-8"?>
<!--Generator: Apple Native CoreSVG 232.5-->
<!DOCTYPE svg
PUBLIC "-//W3C//DTD SVG 1.1//EN"
       "http://www.w3.org/Graphics/SVG/1.1/DTD/svg11.dtd">
<svg version="1.1" xmlns="http://www.w3.org/2000/svg" xmlns:xlink="http://www.w3.org/1999/xlink" width="20.2832" height="19.9316">
 <g>
  <rect height="19.9316" opacity="0" width="20.2832" x="0" y="0"/>
  <path d="M9.96094 19.9219C15.4102 19.9219 19.9219 15.4004 19.9219 9.96094C19.9219 4.51172 15.4004 0 9.95117 0C4.51172 0 0 4.51172 0 9.96094C0 15.4004 4.50195 19.9219 9.96094 19.9219ZM7.54883 18.2422C5.54688 17.6562 3.82812 16.3477 2.71484 14.6289L6.01562 14.5801L7.38281 12.832L6.33789 9.60938L3.79883 8.58398L1.30859 9.99023C1.31836 7.89062 2.05078 6.00586 3.27148 4.52148L4.19922 7.57812L6.66016 8.57422L9.4043 6.46484L9.4043 3.89648L6.92383 1.88477C7.87109 1.52344 8.89648 1.32812 9.95117 1.32812C11.0059 1.32812 12.0312 1.52344 12.9785 1.88477L10.5078 3.89648L10.5078 6.46484L13.252 8.57422L15.7031 7.57812L16.6309 4.52148C17.8516 6.00586 18.584 7.89062 18.5938 9.99023L16.1035 8.58398L13.5645 9.60938L12.5195 12.832L13.8867 14.5801L17.1875 14.6289C16.0742 16.3477 14.3555 17.6562 12.3535 18.2422L13.0469 15.2539L11.7969 13.6621L8.10547 13.6621L6.86523 15.2539Z" fill="#ffffff" fill-opacity="0.85"/>
 </g>
</svg>
