<svg version="1.1" xmlns="http://www.w3.org/2000/svg" xmlns:xlink="http://www.w3.org/1999/xlink" width="20.2832" height="19.9316" viewBox="0 0 20.2832 19.9316">
 <g>
  <rect height="19.9316" opacity="0" width="20.2832" x="0" y="0"/>
  <path d="M9.96094 19.9219C15.4102 19.9219 19.9219 15.4004 19.9219 9.96094C19.9219 4.51172 15.4004 0 9.95117 0C4.51172 0 0 4.51172 0 9.96094C0 15.4004 4.52148 19.9219 9.96094 19.9219Z" fill="var(--color-tertiary)"/>
  <path d="M9.96094 15.3711C7.03125 15.3711 4.57031 12.9004 4.57031 9.9707C4.57031 7.03125 7.02148 4.57031 9.96094 4.57031C12.8906 4.57031 15.3613 7.04102 15.3613 9.9707C15.3613 12.9102 12.9004 15.3711 9.96094 15.3711ZM6.12305 12.4609L7.67578 12.4316L8.4668 11.3965L7.99805 9.93164L6.54297 9.33594L5.39062 10C5.40039 10.9082 5.66406 11.7383 6.12305 12.4609ZM6.35742 7.11914L6.77734 8.48633L8.24219 9.08203L9.54102 8.0957L9.54102 6.55273L8.39844 5.6543C7.58789 5.9375 6.89453 6.46484 6.35742 7.11914ZM13.5742 7.11914C13.0566 6.46484 12.3438 5.9375 11.5332 5.6543L10.4199 6.5332L10.4199 8.0957L11.6992 9.08203L13.1641 8.48633ZM13.8086 12.4805C14.2676 11.7676 14.541 10.9082 14.5508 10L13.3984 9.33594L11.9434 9.93164L11.4746 11.4062L12.2656 12.4512ZM9.9707 14.541C10.4102 14.541 10.8398 14.4824 11.2402 14.3555L11.5723 12.9785L10.8496 12.041L9.07227 12.041L8.36914 12.9492L8.70117 14.3555C9.10156 14.4727 9.53125 14.541 9.9707 14.541Z" fill="var(--color-primary)"/>
 </g>
</svg>
