<?xml version="1.0" encoding="UTF-8"?>
<!--Generator: Apple Native CoreSVG 232.5-->
<!DOCTYPE svg
PUBLIC "-//W3C//DTD SVG 1.1//EN"
       "http://www.w3.org/Graphics/SVG/1.1/DTD/svg11.dtd">
<svg version="1.1" xmlns="http://www.w3.org/2000/svg" xmlns:xlink="http://www.w3.org/1999/xlink" width="14.2578" height="17.2363">
 <g>
  <rect height="17.2363" opacity="0" width="14.2578" x="0" y="0"/>
  <path d="M1.99219 12.5879L4.78516 12.5879C4.87305 12.5879 4.95117 12.6172 5.01953 12.6758L9.42383 16.6211C9.89258 17.041 10.2539 17.2363 10.7227 17.2363C11.3574 17.2363 11.8262 16.7773 11.8262 16.1426L11.8262 1.16211C11.8262 0.527344 11.3574 0.00976562 10.7031 0.00976562C10.2344 0.00976562 9.94141 0.224609 9.42383 0.683594L5.01953 4.58984C4.95117 4.64844 4.87305 4.67773 4.78516 4.67773L1.99219 4.67773C0.664062 4.67773 0 5.35156 0 6.76758L0 10.5078C0 11.9238 0.664062 12.5879 1.99219 12.5879ZM2.06055 11.1621C1.68945 11.1621 1.52344 10.9961 1.52344 10.6348L1.52344 6.64062C1.52344 6.26953 1.68945 6.10352 2.06055 6.10352L5.18555 6.10352C5.43945 6.10352 5.625 6.05469 5.84961 5.84961L10.0098 2.07031C10.0586 2.02148 10.1172 1.99219 10.1758 1.99219C10.2441 1.99219 10.3027 2.04102 10.3027 2.12891L10.3027 15.1074C10.3027 15.1953 10.2441 15.2539 10.1758 15.2539C10.127 15.2539 10.0684 15.2246 10.0195 15.1758L5.84961 11.416C5.625 11.2207 5.43945 11.1621 5.18555 11.1621Z" fill="#ffffff" fill-opacity="0.85"/>
 </g>
</svg>
