<?xml version="1.0" encoding="UTF-8"?>
<!--Generator: Apple Native CoreSVG 232.5-->
<!DOCTYPE svg
PUBLIC "-//W3C//DTD SVG 1.1//EN"
       "http://www.w3.org/Graphics/SVG/1.1/DTD/svg11.dtd">
<svg version="1.1" xmlns="http://www.w3.org/2000/svg" xmlns:xlink="http://www.w3.org/1999/xlink" width="18.3398" height="17.998">
 <g>
  <rect height="17.998" opacity="0" width="18.3398" x="0" y="0"/>
  <path d="M17.9785 3.04688L17.9785 14.9707C17.9785 16.9824 16.9629 17.998 14.9121 17.998L3.06641 17.998C1.02539 17.998 0 16.9922 0 14.9707L0 3.04688C0 1.02539 1.02539 0.0195312 3.06641 0.0195312L14.9121 0.0195312C16.9629 0.0195312 17.9785 1.03516 17.9785 3.04688ZM10.1367 4.55078L7.82227 6.74805C7.79297 6.77734 7.71484 6.79688 7.66602 6.79688L6.11328 6.79688C5.36133 6.79688 4.96094 7.19727 4.96094 7.98828L4.96094 10.0293C4.96094 10.8203 5.36133 11.2207 6.11328 11.2207L7.66602 11.2207C7.71484 11.2207 7.79297 11.2402 7.82227 11.2695L10.1367 13.4766C10.3906 13.7305 10.6055 13.8184 10.8691 13.8184C11.2207 13.8184 11.4746 13.5742 11.4746 13.2129L11.4746 4.82422C11.4746 4.47266 11.2207 4.17969 10.8594 4.17969C10.5957 4.17969 10.4297 4.28711 10.1367 4.55078Z" fill="#ffffff" fill-opacity="0.85"/>
 </g>
</svg>
