<?xml version="1.0" encoding="UTF-8"?>
<!--Generator: Apple Native CoreSVG 232.5-->
<!DOCTYPE svg
PUBLIC "-//W3C//DTD SVG 1.1//EN"
       "http://www.w3.org/Graphics/SVG/1.1/DTD/svg11.dtd">
<svg version="1.1" xmlns="http://www.w3.org/2000/svg" xmlns:xlink="http://www.w3.org/1999/xlink" width="20.2832" height="19.9316">
 <g>
  <rect height="19.9316" opacity="0" width="20.2832" x="0" y="0"/>
  <path d="M9.96094 19.9219C15.4102 19.9219 19.9219 15.4004 19.9219 9.96094C19.9219 4.51172 15.4004 0 9.95117 0C4.51172 0 0 4.51172 0 9.96094C0 15.4004 4.52148 19.9219 9.96094 19.9219Z" fill="#ffffff" fill-opacity="0.25"/>
  <path d="M3.7207 11.5332L3.7207 8.39844L5.0293 8.39844C5.21484 8.39844 5.33203 8.52539 5.33203 8.70117L5.33203 11.2305C5.33203 11.4258 5.21484 11.5332 5.0293 11.5332ZM5.17578 14.2188C4.20898 14.2188 3.7207 13.7402 3.7207 12.793L3.7207 12.2461L5.06836 12.2461C5.66406 12.2461 6.05469 11.875 6.05469 11.2695L6.05469 8.68164C6.05469 8.06641 5.66406 7.68555 5.06836 7.68555L3.7207 7.68555L3.7207 7.1582C3.7207 6.21094 4.20898 5.73242 5.17578 5.73242L9.58008 5.73242L9.58008 7.61719C8.42773 7.7832 7.55859 8.7793 7.55859 9.9707C7.55859 11.1816 8.42773 12.1777 9.58008 12.3438L9.58008 14.2188ZM9.58008 11.6211C8.81836 11.4551 8.27148 10.8008 8.27148 9.9707C8.27148 9.16016 8.81836 8.50586 9.58008 8.33984ZM10.293 11.6211L10.293 8.33984C11.0645 8.50586 11.6113 9.16016 11.6113 9.9707C11.6113 10.8008 11.0645 11.4551 10.293 11.6211ZM10.293 14.2188L10.293 12.3438C11.4551 12.1777 12.3242 11.1816 12.3242 9.9707C12.3242 8.7793 11.4551 7.7832 10.293 7.61719L10.293 5.73242L14.7266 5.73242C15.6934 5.73242 16.1816 6.21094 16.1816 7.1582L16.1816 7.68555L14.834 7.68555C14.2383 7.68555 13.8574 8.06641 13.8574 8.68164L13.8574 11.2695C13.8574 11.875 14.2383 12.2461 14.834 12.2461L16.1816 12.2461L16.1816 12.793C16.1816 13.7402 15.6934 14.2188 14.7266 14.2188ZM16.1816 11.5332L14.873 11.5332C14.6973 11.5332 14.5801 11.4258 14.5801 11.2305L14.5801 8.70117C14.5801 8.52539 14.6973 8.39844 14.873 8.39844L16.1816 8.39844Z" fill="#ffffff" fill-opacity="0.85"/>
 </g>
</svg>
