<svg version="1.1" xmlns="http://www.w3.org/2000/svg" xmlns:xlink="http://www.w3.org/1999/xlink" width="21.2207" height="14.9902" viewBox="0 0 21.2207 14.9902">
 <g>
  <rect height="14.9902" opacity="0" width="21.2207" x="0" y="0"/>
  <path d="M18.3984 14.9902L20.0098 14.9902C20.6348 14.9902 20.8594 14.7656 20.8594 14.1406L20.8594 12.5293C20.8594 11.9043 20.6348 11.6797 20.0098 11.6797L18.3984 11.6797C17.7734 11.6797 17.5488 11.9043 17.5488 12.5293L17.5488 14.1406C17.5488 14.7656 17.7734 14.9902 18.3984 14.9902Z" fill="currentColor"/>
  <path d="M12.5586 14.9902L14.1797 14.9902C14.7949 14.9902 15.0195 14.7656 15.0195 14.1406L15.0195 12.5293C15.0195 11.9043 14.7949 11.6797 14.1797 11.6797L12.5586 11.6797C11.9434 11.6797 11.7188 11.9043 11.7188 12.5293L11.7188 14.1406C11.7188 14.7656 11.9434 14.9902 12.5586 14.9902Z" fill="currentColor"/>
  <path d="M6.72852 14.9902L8.34961 14.9902C8.96484 14.9902 9.18945 14.7656 9.18945 14.1406L9.18945 12.5293C9.18945 11.9043 8.96484 11.6797 8.34961 11.6797L6.72852 11.6797C6.10352 11.6797 5.87891 11.9043 5.87891 12.5293L5.87891 14.1406C5.87891 14.7656 6.10352 14.9902 6.72852 14.9902Z" fill="currentColor"/>
  <path d="M0.888672 14.9902L2.50977 14.9902C3.13477 14.9902 3.35938 14.7656 3.35938 14.1406L3.35938 12.5293C3.35938 11.9043 3.13477 11.6797 2.50977 11.6797L0.888672 11.6797C0.273438 11.6797 0.0488281 11.9043 0.0488281 12.5293L0.0488281 14.1406C0.0488281 14.7656 0.273438 14.9902 0.888672 14.9902Z" fill="currentColor"/>
  <path d="M18.3984 9.15039L20.0098 9.15039C20.6348 9.15039 20.8594 8.92578 20.8594 8.31055L20.8594 6.68945C20.8594 6.07422 20.6348 5.84961 20.0098 5.84961L18.3984 5.84961C17.7734 5.84961 17.5488 6.07422 17.5488 6.68945L17.5488 8.31055C17.5488 8.92578 17.7734 9.15039 18.3984 9.15039Z" fill="currentColor"/>
  <path d="M12.5586 9.15039L14.1797 9.15039C14.7949 9.15039 15.0195 8.92578 15.0195 8.31055L15.0195 6.68945C15.0195 6.07422 14.7949 5.84961 14.1797 5.84961L12.5586 5.84961C11.9434 5.84961 11.7188 6.07422 11.7188 6.68945L11.7188 8.31055C11.7188 8.92578 11.9434 9.15039 12.5586 9.15039Z" fill="currentColor"/>
  <path d="M6.72852 9.15039L8.34961 9.15039C8.96484 9.15039 9.18945 8.92578 9.18945 8.31055L9.18945 6.68945C9.18945 6.07422 8.96484 5.84961 8.34961 5.84961L6.72852 5.84961C6.10352 5.84961 5.87891 6.07422 5.87891 6.68945L5.87891 8.31055C5.87891 8.92578 6.10352 9.15039 6.72852 9.15039Z" fill="currentColor"/>
  <path d="M0.888672 9.15039L2.50977 9.15039C3.13477 9.15039 3.35938 8.92578 3.35938 8.31055L3.35938 6.68945C3.35938 6.07422 3.13477 5.84961 2.50977 5.84961L0.888672 5.84961C0.273438 5.84961 0.0488281 6.07422 0.0488281 6.68945L0.0488281 8.31055C0.0488281 8.92578 0.273438 9.15039 0.888672 9.15039Z" fill="currentColor"/>
  <path d="M18.3398 3.32031L19.9609 3.32031C20.5859 3.32031 20.8105 3.0957 20.8105 2.48047L20.8105 0.859375C20.8105 0.234375 20.5859 0.00976562 19.9609 0.00976562L18.3398 0.00976562C17.7246 0.00976562 17.5 0.234375 17.5 0.859375L17.5 2.48047C17.5 3.0957 17.7246 3.32031 18.3398 3.32031Z" fill="currentColor"/>
  <path d="M12.5098 3.32031L14.1309 3.32031C14.7461 3.32031 14.9707 3.0957 14.9707 2.48047L14.9707 0.859375C14.9707 0.234375 14.7461 0.00976562 14.1309 0.00976562L12.5098 0.00976562C11.8945 0.00976562 11.6699 0.234375 11.6699 0.859375L11.6699 2.48047C11.6699 3.0957 11.8945 3.32031 12.5098 3.32031Z" fill="currentColor"/>
  <path d="M6.67969 3.32031L8.30078 3.32031C8.91602 3.32031 9.14062 3.0957 9.14062 2.48047L9.14062 0.859375C9.14062 0.234375 8.91602 0.00976562 8.30078 0.00976562L6.67969 0.00976562C6.05469 0.00976562 5.83008 0.234375 5.83008 0.859375L5.83008 2.48047C5.83008 3.0957 6.05469 3.32031 6.67969 3.32031Z" fill="currentColor"/>
  <path d="M0.839844 3.32031L2.46094 3.32031C3.08594 3.32031 3.31055 3.0957 3.31055 2.48047L3.31055 0.859375C3.31055 0.234375 3.08594 0.00976562 2.46094 0.00976562L0.839844 0.00976562C0.224609 0.00976562 0 0.234375 0 0.859375L0 2.48047C0 3.0957 0.224609 3.32031 0.839844 3.32031Z" fill="currentColor"/>
 </g>
</svg>
