<svg version="1.1" xmlns="http://www.w3.org/2000/svg" xmlns:xlink="http://www.w3.org/1999/xlink" width="20.2832" height="20.4395" viewBox="0 0 20.2832 20.4395">
 <g>
  <rect height="20.4395" opacity="0" width="20.2832" x="0" y="0"/>
  <path d="M19.9219 10.4785C19.9219 15.918 15.4102 20.4395 9.96094 20.4395C4.52148 20.4395 0 15.918 0 10.4785C0 5.0293 4.51172 0.517578 9.95117 0.517578C15.4004 0.517578 19.9219 5.0293 19.9219 10.4785ZM7.10938 7.13867C6.02539 7.13867 5.43945 7.70508 5.43945 8.78906L5.43945 13.7402C5.43945 14.8242 6.02539 15.4004 7.10938 15.4004L12.8125 15.4004C13.9062 15.4004 14.4824 14.834 14.4824 13.7402L14.4824 8.78906C14.4824 7.69531 13.9062 7.13867 12.8125 7.13867L11.2305 7.13867L11.2305 8.16406L12.8027 8.16406C13.2422 8.16406 13.4668 8.37891 13.4668 8.82812L13.4668 13.7109C13.4668 14.1602 13.2422 14.3848 12.8027 14.3848L7.11914 14.3848C6.67969 14.3848 6.45508 14.1699 6.45508 13.7109L6.45508 8.82812C6.45508 8.37891 6.67969 8.16406 7.11914 8.16406L8.69141 8.16406L8.69141 7.13867ZM9.59961 4.0625L7.91992 5.69336C7.80273 5.80078 7.77344 5.9082 7.77344 6.03516C7.77344 6.29883 7.96875 6.47461 8.22266 6.47461C8.36914 6.47461 8.49609 6.42578 8.58398 6.32812L9.0332 5.86914L9.48242 5.38086L9.46289 5.86914L9.46289 10.957C9.46289 11.2305 9.6875 11.4453 9.96094 11.4453C10.2344 11.4453 10.4688 11.2305 10.4688 10.957L10.4688 5.86914L10.4395 5.38086L10.8789 5.86914L11.3379 6.33789C11.416 6.42578 11.543 6.47461 11.6895 6.47461C11.9629 6.47461 12.1582 6.29883 12.1582 6.03516C12.1582 5.89844 12.1191 5.79102 12.002 5.69336L10.3125 4.0625C10.1953 3.94531 10.0781 3.89648 9.96094 3.89648C9.83398 3.89648 9.7168 3.94531 9.59961 4.0625Z" fill="currentColor"/>
 </g>
</svg>
