<svg version="1.1" xmlns="http://www.w3.org/2000/svg" xmlns:xlink="http://www.w3.org/1999/xlink" width="20.3223" height="22.1191" viewBox="0 0 20.3223 22.1191">
 <g>
  <rect height="22.1191" opacity="0" width="20.3223" x="0" y="0"/>
  <path d="M18.8574 14.5801C19.6484 15.0391 19.9609 15.4004 19.9609 15.9277C19.9609 16.4648 19.6484 16.8262 18.8574 17.2852L11.2207 21.7188C10.752 21.9922 10.3711 22.1191 9.98047 22.1191C9.58008 22.1191 9.20898 21.9922 8.74023 21.7188L1.09375 17.2852C0.302734 16.8262 0 16.4648 0 15.9277C0 15.4004 0.302734 15.0391 1.09375 14.5801L2.64155 13.6826L8.74023 17.2266C9.20898 17.5 9.58008 17.627 9.98047 17.627C10.3711 17.627 10.752 17.5 11.2207 17.2266L17.3116 13.6826Z" fill="currentColor"/>
  <path d="M18.8574 10.0781C19.6484 10.5469 19.9609 10.8984 19.9609 11.4355C19.9609 11.9727 19.6484 12.3242 18.8574 12.7832L11.2207 17.2266C10.752 17.5 10.3711 17.627 9.98047 17.627C9.58008 17.627 9.20898 17.5 8.74023 17.2266L1.09375 12.7832C0.302734 12.3242 0 11.9727 0 11.4355C0 10.8984 0.302734 10.5469 1.09375 10.0781L2.90432 9.02832L4.51549 9.96251L2.10938 11.3379C2.07031 11.3574 2.04102 11.3867 2.04102 11.4355C2.04102 11.4844 2.07031 11.5039 2.10938 11.5332L9.54102 15.7812C9.70703 15.8691 9.84375 15.918 9.98047 15.918C10.1172 15.918 10.2539 15.8691 10.4102 15.7812L17.8418 11.5332C17.8906 11.5039 17.9199 11.4844 17.9199 11.4355C17.9199 11.3867 17.8906 11.3574 17.8418 11.3379L15.4379 9.96377L17.0492 9.02832Z" fill="currentColor"/>
  <path d="M9.98047 12.8125C10.3711 12.8125 10.752 12.6855 11.2207 12.4121L18.8574 7.97852C19.6484 7.51953 19.9609 7.1582 19.9609 6.62109C19.9609 6.09375 19.6484 5.73242 18.8574 5.27344L11.2207 0.839844C10.752 0.566406 10.3711 0.439453 9.98047 0.439453C9.58008 0.439453 9.20898 0.566406 8.74023 0.839844L1.09375 5.27344C0.302734 5.73242 0 6.09375 0 6.62109C0 7.1582 0.302734 7.51953 1.09375 7.97852L8.74023 12.4121C9.20898 12.6855 9.58008 12.8125 9.98047 12.8125ZM9.98047 11.1133C9.84375 11.1133 9.70703 11.0645 9.54102 10.9766L2.10938 6.71875C2.07031 6.69922 2.04102 6.66992 2.04102 6.62109C2.04102 6.58203 2.07031 6.55273 2.10938 6.5332L9.54102 2.27539C9.70703 2.1875 9.84375 2.13867 9.98047 2.13867C10.1172 2.13867 10.2539 2.1875 10.4102 2.27539L17.8418 6.5332C17.8906 6.55273 17.9199 6.58203 17.9199 6.62109C17.9199 6.66992 17.8906 6.69922 17.8418 6.71875L10.4102 10.9766C10.2539 11.0645 10.1172 11.1133 9.98047 11.1133Z" fill="currentColor"/>
 </g>
</svg>
