<svg version="1.1" xmlns="http://www.w3.org/2000/svg" xmlns:xlink="http://www.w3.org/1999/xlink" width="16.2695" height="15.9277" viewBox="0 0 16.2695 15.9277">
 <g>
  <rect height="15.9277" opacity="0" width="16.2695" x="0" y="0"/>
  <path d="M0 13.7598C0 15.1172 0.820312 15.918 2.1875 15.918L13.7207 15.918C15.0977 15.918 15.9082 15.1172 15.9082 13.7598L15.9082 2.1582C15.9082 0.800781 15.0977 0 13.7207 0L2.1875 0C0.820312 0 0 0.800781 0 2.1582ZM1.57227 13.3887L1.57227 2.5293C1.57227 1.93359 1.92383 1.57227 2.50977 1.57227L13.3984 1.57227C13.9941 1.57227 14.3359 1.93359 14.3359 2.5293L14.3359 13.3887C14.3359 13.9844 13.9941 14.3457 13.3984 14.3457L2.50977 14.3457C1.92383 14.3457 1.57227 13.9844 1.57227 13.3887Z" fill="currentColor"/>
 </g>
</svg>
