<?xml version="1.0" encoding="UTF-8"?>
<!--Generator: Apple Native CoreSVG 232.5-->
<!DOCTYPE svg
PUBLIC "-//W3C//DTD SVG 1.1//EN"
       "http://www.w3.org/Graphics/SVG/1.1/DTD/svg11.dtd">
<svg version="1.1" xmlns="http://www.w3.org/2000/svg" xmlns:xlink="http://www.w3.org/1999/xlink" width="27.2949" height="23.0957">
 <g>
  <rect height="23.0957" opacity="0" width="27.2949" x="0" y="0"/>
  <path d="M23.1543 18.0566C23.584 18.0566 23.9453 17.7051 23.9453 17.2656C23.9453 16.8262 23.584 16.4844 23.1543 16.4844L5.71289 16.4844C4.90234 16.4844 4.49219 16.0645 4.49219 15.2441L4.49219 5.53711C4.49219 3.7207 3.65234 2.90039 1.81641 2.90039L0.78125 2.90039C0.361328 2.90039 0 3.26172 0 3.68164C0 4.11133 0.361328 4.47266 0.78125 4.47266L1.69922 4.47266C2.50977 4.47266 2.91992 4.89258 2.91992 5.71289L2.91992 15.4199C2.91992 17.2266 3.75977 18.0566 5.5957 18.0566ZM19.6973 23.0859C20.6836 23.0859 21.5137 22.2559 21.5137 21.2793C21.5137 20.2832 20.6836 19.4531 19.6973 19.4531C18.7207 19.4531 17.8906 20.2832 17.8906 21.2793C17.8906 22.2559 18.7207 23.0859 19.6973 23.0859ZM9.22852 23.0859C10.2148 23.0859 11.0352 22.2559 11.0352 21.2793C11.0352 20.2832 10.2148 19.4531 9.22852 19.4531C8.24219 19.4531 7.42188 20.2832 7.42188 21.2793C7.42188 22.2559 8.24219 23.0859 9.22852 23.0859Z" fill="#ffffff" fill-opacity="0.55"/>
  <path d="M23.9453 12.832L23.9453 4.90234C23.9453 3.52539 23.1836 2.80273 21.709 2.80273L8.37891 2.80273C6.9043 2.80273 6.14258 3.52539 6.14258 4.90234L6.14258 12.832C6.14258 14.2188 6.9043 14.9316 8.37891 14.9316L21.709 14.9316C23.1836 14.9316 23.9453 14.2188 23.9453 12.832ZM21.0352 14.9316L19.8145 14.9316L19.8145 2.80273L21.0352 2.80273ZM10.2734 14.9316L9.05273 14.9316L9.05273 2.80273L10.2734 2.80273ZM19.0625 3.60352L19.0625 2.22656C19.0625 0.78125 18.2715 0 16.7969 0L13.291 0C11.7773 0 11.0156 0.742188 11.0156 2.22656L11.0156 3.58398L12.3926 3.58398L12.3926 2.13867C12.3926 1.60156 12.6953 1.30859 13.2617 1.30859L16.8262 1.30859C17.3926 1.30859 17.6855 1.60156 17.6855 2.13867L17.6855 3.60352Z" fill="#ffffff" fill-opacity="0.85"/>
 </g>
</svg>
