<svg version="1.1" xmlns="http://www.w3.org/2000/svg" xmlns:xlink="http://www.w3.org/1999/xlink" width="15.8496" height="26.5332" viewBox="0 0 15.8496 26.5332">
 <g>
  <rect height="26.5332" opacity="0" width="15.8496" x="0" y="0"/>
  <path d="M2.88086 24.6777L12.6074 24.6777C14.2969 24.6777 15.4883 23.4863 15.4883 21.7969L15.4883 8.24219C15.4883 6.54297 14.2969 5.36133 12.6074 5.36133L2.88086 5.36133C1.19141 5.36133 0 6.54297 0 8.24219L0 21.7969C0 23.4863 1.19141 24.6777 2.88086 24.6777ZM2.90039 23.1055C2.10938 23.1055 1.57227 22.5391 1.57227 21.7188L1.57227 8.31055C1.57227 7.49023 2.10938 6.93359 2.90039 6.93359L12.5879 6.93359C13.3789 6.93359 13.916 7.49023 13.916 8.31055L13.916 21.7188C13.916 22.5391 13.3789 23.1055 12.5879 23.1055ZM0.732422 20.6934L14.7852 20.6934L14.7852 19.1211L0.732422 19.1211ZM3.39844 6.48438L4.91211 6.48438L4.91211 2.19727C4.91211 1.72852 5.25391 1.42578 5.76172 1.42578L9.82422 1.42578C10.2734 1.42578 10.5762 1.72852 10.5762 2.19727L10.5762 6.46484L12.0898 6.46484L12.0898 2.2168C12.0898 0.859375 11.2402 0 9.89258 0L5.69336 0C4.28711 0 3.39844 0.859375 3.39844 2.2168ZM3.27148 26.1035L3.87695 26.1035C4.4043 26.1035 4.74609 25.7617 4.74609 25.2441L4.74609 23.7598L2.40234 23.7598L2.40234 25.2441C2.40234 25.7617 2.74414 26.1035 3.27148 26.1035ZM11.6113 26.1035L12.2168 26.1035C12.7344 26.1035 13.0859 25.7617 13.0859 25.2441L13.0859 23.7598L10.7422 23.7598L10.7422 25.2441C10.7422 25.7617 11.084 26.1035 11.6113 26.1035Z" fill="var(--color-primary)"/>
 </g>
</svg>
