<svg version="1.1" xmlns="http://www.w3.org/2000/svg" xmlns:xlink="http://www.w3.org/1999/xlink" width="20.2832" height="19.9316" viewBox="0 0 20.2832 19.9316">
 <g>
  <rect height="19.9316" opacity="0" width="20.2832" x="0" y="0"/>
  <path d="M9.96094 19.9219C15.4102 19.9219 19.9219 15.4004 19.9219 9.96094C19.9219 4.51172 15.4004 0 9.95117 0C4.51172 0 0 4.51172 0 9.96094C0 15.4004 4.52148 19.9219 9.96094 19.9219ZM9.96094 18.2617C5.35156 18.2617 1.66992 14.5703 1.66992 9.96094C1.66992 5.35156 5.3418 1.66016 9.95117 1.66016C14.5605 1.66016 18.2617 5.35156 18.2617 9.96094C18.2617 14.5703 14.5703 18.2617 9.96094 18.2617Z" fill="var(--color-primary)"/>
  <path d="M12.8613 9.87305C12.8613 8.27148 11.543 6.95312 9.95117 6.95312C8.36914 6.95312 7.04102 8.27148 7.04102 9.87305C7.04102 10.1758 7.10938 10.4883 7.20703 10.7715L12.6953 10.7715C12.793 10.4883 12.8613 10.1758 12.8613 9.87305ZM4.49219 10.2832L5.75195 10.2832C6.09375 10.2832 6.34766 10.0488 6.34766 9.74609C6.34766 9.44336 6.08398 9.19922 5.75195 9.19922L4.49219 9.19922C4.16016 9.19922 3.90625 9.45312 3.90625 9.74609C3.90625 10.0391 4.16016 10.2832 4.49219 10.2832ZM6.61133 7.28516C6.8457 7.51953 7.1875 7.53906 7.40234 7.32422C7.62695 7.10938 7.60742 6.75781 7.37305 6.52344L6.46484 5.61523C6.2207 5.37109 5.88867 5.40039 5.67383 5.5957C5.46875 5.82031 5.46875 6.14258 5.71289 6.38672ZM10.498 5.36133L10.498 4.0918C10.498 3.75977 10.2441 3.51562 9.95117 3.51562C9.6582 3.51562 9.41406 3.75977 9.41406 4.0918L9.41406 5.36133C9.41406 5.69336 9.64844 5.95703 9.95117 5.95703C10.2539 5.95703 10.498 5.68359 10.498 5.36133ZM12.5098 7.32422C12.7246 7.5293 13.0664 7.5293 13.3008 7.28516L14.1895 6.38672C14.4336 6.14258 14.4434 5.82031 14.2383 5.5957C14.0234 5.38086 13.6719 5.38086 13.4375 5.61523L12.5293 6.52344C12.2852 6.76758 12.2852 7.10938 12.5098 7.32422ZM14.1504 10.2832L15.4199 10.2832C15.752 10.2832 15.9961 10.0391 15.9961 9.74609C15.9961 9.45312 15.752 9.19922 15.4199 9.19922L14.1504 9.19922C13.8184 9.19922 13.5547 9.44336 13.5547 9.74609C13.5547 10.0488 13.8184 10.2832 14.1504 10.2832ZM4.48242 12.5488L15.4297 12.5488C15.7227 12.5488 15.9961 12.3145 15.9961 12.0117C15.9961 11.6992 15.7324 11.4746 15.4297 11.4746L4.48242 11.4746C4.17969 11.4746 3.90625 11.6992 3.90625 12.0117C3.90625 12.3145 4.18945 12.5488 4.48242 12.5488ZM6.72852 15.8496C6.88477 15.8496 7.00195 15.7031 6.99219 15.5469L6.95312 14.9609L7.44141 15.293C7.55859 15.3809 7.75391 15.3418 7.82227 15.2148C7.91992 15.0977 7.88086 14.8926 7.70508 14.8145L7.17773 14.5605L7.70508 14.2871C7.87109 14.1992 7.90039 14.043 7.83203 13.9062C7.76367 13.7695 7.55859 13.7402 7.44141 13.8184L6.95312 14.1602L6.99219 13.584C7.00195 13.4082 6.88477 13.2715 6.72852 13.2715C6.55273 13.2715 6.44531 13.4082 6.45508 13.5742L6.48438 14.1602L5.99609 13.8184C5.86914 13.7402 5.69336 13.7598 5.61523 13.9062C5.53711 14.0234 5.56641 14.1992 5.74219 14.2969L6.25 14.5605L5.74219 14.8145C5.56641 14.8926 5.53711 15.0781 5.60547 15.2051C5.67383 15.3516 5.86914 15.3809 5.99609 15.293L6.48438 14.9609L6.46484 15.5469C6.45508 15.7031 6.55273 15.8496 6.72852 15.8496ZM9.95117 15.8496C10.1074 15.8496 10.2246 15.7031 10.2148 15.5469L10.1758 14.9609L10.6641 15.293C10.7812 15.3809 10.9766 15.3418 11.0449 15.2148C11.1426 15.0977 11.1035 14.8926 10.9277 14.8145L10.4004 14.5605L10.9277 14.2871C11.0938 14.1992 11.123 14.043 11.0547 13.9062C10.9863 13.7695 10.7812 13.7402 10.6641 13.8184L10.1758 14.1602L10.2148 13.584C10.2246 13.4082 10.1074 13.2715 9.95117 13.2715C9.77539 13.2715 9.66797 13.4082 9.67773 13.5742L9.70703 14.1602L9.21875 13.8184C9.0918 13.7402 8.90625 13.7598 8.83789 13.9062C8.75977 14.0234 8.78906 14.1992 8.96484 14.2969L9.47266 14.5605L8.96484 14.8145C8.78906 14.8926 8.75977 15.0781 8.82812 15.2051C8.88672 15.3516 9.0918 15.3809 9.21875 15.293L9.70703 14.9609L9.6875 15.5469C9.67773 15.7031 9.77539 15.8496 9.95117 15.8496ZM13.1738 15.8496C13.3301 15.8496 13.4375 15.7031 13.4277 15.5469L13.3984 14.9609L13.8867 15.293C14.0039 15.3809 14.1992 15.3418 14.2676 15.2148C14.3652 15.0977 14.3164 14.8926 14.1504 14.8145L13.623 14.5605L14.1504 14.2871C14.3066 14.1992 14.3457 14.043 14.2773 13.9062C14.209 13.7695 14.0039 13.7402 13.8867 13.8184L13.3984 14.1602L13.4277 13.584C13.4375 13.4082 13.3301 13.2715 13.1738 13.2715C12.998 13.2715 12.8906 13.4082 12.9004 13.5742L12.9297 14.1602L12.4414 13.8184C12.3145 13.7402 12.1289 13.7598 12.0605 13.9062C11.9824 14.0234 12.0117 14.1992 12.1777 14.2969L12.6953 14.5605L12.1777 14.8145C12.002 14.8926 11.9824 15.0781 12.0508 15.2051C12.1094 15.3516 12.3145 15.3809 12.4414 15.293L12.9297 14.9609L12.9102 15.5469C12.9004 15.7031 12.998 15.8496 13.1738 15.8496Z" fill="var(--color-primary)"/>
 </g>
</svg>
