<?xml version="1.0" encoding="UTF-8"?>
<!--Generator: Apple Native CoreSVG 232.5-->
<!DOCTYPE svg
PUBLIC "-//W3C//DTD SVG 1.1//EN"
       "http://www.w3.org/Graphics/SVG/1.1/DTD/svg11.dtd">
<svg version="1.1" xmlns="http://www.w3.org/2000/svg" xmlns:xlink="http://www.w3.org/1999/xlink" width="20.2832" height="19.9316">
 <g>
  <rect height="19.9316" opacity="0" width="20.2832" x="0" y="0"/>
  <path d="M9.96094 19.9316C15.4102 19.9316 19.9219 15.4199 19.9219 9.9707C19.9219 4.53125 15.4004 0.00976562 9.95117 0.00976562C4.51172 0.00976562 0 4.53125 0 9.9707C0 15.4199 4.52148 19.9316 9.96094 19.9316Z" fill="#ffffff" fill-opacity="0.25"/>
  <path d="M9.96094 13.0273C8.29102 13.0273 6.9043 11.6309 6.9043 9.9707C6.9043 8.30078 8.29102 6.9043 9.96094 6.9043C11.6211 6.9043 13.0078 8.30078 13.0078 9.9707C13.0078 11.6309 11.6211 13.0273 9.96094 13.0273ZM9.96094 3.59375C10.293 3.59375 10.5859 3.88672 10.5859 4.22852L10.5859 5.41992C10.5859 5.75195 10.293 6.04492 9.96094 6.04492C9.62891 6.04492 9.3457 5.75195 9.3457 5.41992L9.3457 4.22852C9.3457 3.88672 9.62891 3.59375 9.96094 3.59375ZM14.4629 5.45898C14.6973 5.70312 14.707 6.10352 14.4629 6.33789L13.6035 7.19727C13.3691 7.44141 12.959 7.45117 12.7246 7.19727C12.4902 6.97266 12.4805 6.5918 12.7246 6.33789L13.5938 5.45898C13.8184 5.22461 14.2188 5.21484 14.4629 5.45898ZM16.3184 9.9707C16.3184 10.3027 16.0352 10.5859 15.6934 10.5859L14.4922 10.5859C14.1602 10.5859 13.877 10.293 13.877 9.9707C13.877 9.63867 14.1602 9.3457 14.4922 9.3457L15.6934 9.3457C16.0352 9.3457 16.3184 9.62891 16.3184 9.9707ZM14.4629 14.4727C14.2188 14.707 13.8281 14.707 13.5938 14.4727L12.7246 13.6035C12.4805 13.3691 12.4805 12.9785 12.7246 12.7344C12.959 12.5 13.3691 12.5 13.5938 12.7344L14.4629 13.5938C14.707 13.8184 14.707 14.2188 14.4629 14.4727ZM9.96094 16.3379C9.62891 16.3379 9.3457 16.0449 9.3457 15.7129L9.3457 14.5117C9.3457 14.1797 9.62891 13.8867 9.96094 13.8867C10.293 13.8867 10.5859 14.1797 10.5859 14.5117L10.5859 15.7129C10.5859 16.0449 10.293 16.3379 9.96094 16.3379ZM5.44922 14.4629C5.21484 14.2188 5.21484 13.8281 5.44922 13.5938L6.31836 12.7344C6.54297 12.5 6.96289 12.5 7.19727 12.7344C7.43164 12.9883 7.43164 13.3789 7.19727 13.6035L6.32812 14.4727C6.09375 14.707 5.69336 14.707 5.44922 14.4629ZM3.61328 9.9707C3.61328 9.62891 3.88672 9.3457 4.22852 9.3457L5.42969 9.3457C5.76172 9.3457 6.04492 9.63867 6.04492 9.9707C6.04492 10.293 5.76172 10.5859 5.42969 10.5859L4.22852 10.5859C3.88672 10.5859 3.61328 10.3027 3.61328 9.9707ZM5.46875 5.45898C5.71289 5.22461 6.10352 5.23438 6.32812 5.45898L7.19727 6.33789C7.43164 6.5625 7.43164 6.97266 7.19727 7.19727C6.95312 7.44141 6.55273 7.45117 6.31836 7.19727L5.45898 6.33789C5.21484 6.10352 5.23438 5.70312 5.46875 5.45898Z" fill="#ffffff" fill-opacity="0.85"/>
 </g>
</svg>
