<svg version="1.1" xmlns="http://www.w3.org/2000/svg" xmlns:xlink="http://www.w3.org/1999/xlink" width="20.2832" height="19.9316" viewBox="0 0 20.2832 19.9316">
 <g>
  <rect height="19.9316" opacity="0" width="20.2832" x="0" y="0"/>
  <path d="M19.9219 9.9707C19.9219 15.4199 15.4102 19.9316 9.96094 19.9316C4.52148 19.9316 0 15.4199 0 9.9707C0 4.53125 4.51172 0.00976562 9.95117 0.00976562C15.4004 0.00976562 19.9219 4.53125 19.9219 9.9707ZM4.69727 13.1836C4.4043 13.1836 4.14062 13.4082 4.14062 13.7012C4.14062 13.9941 4.41406 14.2188 4.69727 14.2188L15.2246 14.2188C15.5176 14.2188 15.7812 13.9941 15.7812 13.7012C15.7812 13.4082 15.5273 13.1836 15.2246 13.1836ZM7.1582 11.6797C7.1582 11.9824 7.2168 12.2852 7.32422 12.5684L12.5977 12.5684C12.7051 12.2852 12.7637 11.9824 12.7637 11.6797C12.7637 10.1562 11.4941 8.88672 9.96094 8.88672C8.4375 8.88672 7.1582 10.1562 7.1582 11.6797ZM4.70703 11.0449C4.38477 11.0449 4.14062 11.2891 4.14062 11.5723C4.14062 11.8555 4.38477 12.0898 4.70703 12.0898L5.92773 12.0898C6.25 12.0898 6.49414 11.8652 6.49414 11.5723C6.49414 11.2793 6.25 11.0449 5.92773 11.0449ZM14.0039 11.0449C13.6816 11.0449 13.4277 11.2793 13.4277 11.5723C13.4277 11.8652 13.6816 12.0898 14.0039 12.0898L15.2148 12.0898C15.5469 12.0898 15.7812 11.8555 15.7812 11.5723C15.7812 11.2793 15.5469 11.0449 15.2148 11.0449ZM5.83984 7.57812C5.64453 7.79297 5.64453 8.10547 5.87891 8.34961L6.74805 9.21875C6.97266 9.43359 7.31445 9.45312 7.51953 9.23828C7.72461 9.0332 7.69531 8.69141 7.48047 8.4668L6.61133 7.59766C6.37695 7.36328 6.04492 7.38281 5.83984 7.57812ZM13.3105 7.59766L12.4512 8.4668C12.2168 8.70117 12.207 9.0332 12.4219 9.23828C12.627 9.44336 12.9492 9.44336 13.1836 9.21875L14.043 8.34961C14.2676 8.10547 14.2773 7.79297 14.082 7.57812C13.877 7.36328 13.5449 7.37305 13.3105 7.59766ZM9.43359 4.20898L9.43359 6.05469L9.46289 6.39648L9.41406 6.33789L8.73047 5.67383C8.63281 5.57617 8.49609 5.51758 8.36914 5.51758C8.10547 5.51758 7.91992 5.71289 7.91992 5.9668C7.91992 6.10352 7.95898 6.21094 8.07617 6.33789L9.60938 7.76367C9.72656 7.87109 9.84375 7.91992 9.96094 7.91992C10.0781 7.91992 10.1953 7.87109 10.3125 7.76367L11.8457 6.33789C11.9727 6.21094 12.002 6.10352 12.002 5.9668C12.002 5.71289 11.8164 5.51758 11.5527 5.51758C11.4258 5.51758 11.2793 5.57617 11.2012 5.66406L10.5859 6.29883L10.459 6.42578L10.4883 6.05469L10.4883 4.20898C10.4883 3.90625 10.2539 3.65234 9.96094 3.65234C9.66797 3.65234 9.43359 3.90625 9.43359 4.20898Z" fill="var(--color-primary)"/>
 </g>
</svg>
