<?xml version="1.0" encoding="UTF-8"?>
<!--Generator: Apple Native CoreSVG 232.5-->
<!DOCTYPE svg
PUBLIC "-//W3C//DTD SVG 1.1//EN"
       "http://www.w3.org/Graphics/SVG/1.1/DTD/svg11.dtd">
<svg version="1.1" xmlns="http://www.w3.org/2000/svg" xmlns:xlink="http://www.w3.org/1999/xlink" width="20.2832" height="19.9316">
 <g>
  <rect height="19.9316" opacity="0" width="20.2832" x="0" y="0"/>
  <path d="M9.96094 19.9219C15.4102 19.9219 19.9219 15.4004 19.9219 9.96094C19.9219 4.51172 15.4004 0 9.95117 0C4.51172 0 0 4.51172 0 9.96094C0 15.4004 4.52148 19.9219 9.96094 19.9219ZM9.96094 18.2617C5.35156 18.2617 1.66992 14.5703 1.66992 9.96094C1.66992 5.35156 5.3418 1.66016 9.95117 1.66016C14.5605 1.66016 18.2617 5.35156 18.2617 9.96094C18.2617 14.5703 14.5703 18.2617 9.96094 18.2617Z" fill="#ffffff" fill-opacity="0.55"/>
  <path d="M4.85352 11.9824L6.04492 11.9824C6.34766 11.9824 6.5918 11.7676 6.5918 11.4746C6.5918 11.1914 6.34766 10.9766 6.04492 10.9766L4.85352 10.9766C4.54102 10.9766 4.30664 11.2012 4.30664 11.4746C4.30664 11.748 4.54102 11.9824 4.85352 11.9824ZM6.83594 9.18945C7.05078 9.4043 7.38281 9.42383 7.57812 9.21875C7.7832 9.01367 7.75391 8.69141 7.54883 8.47656L6.69922 7.62695C6.47461 7.40234 6.15234 7.42188 5.95703 7.60742C5.76172 7.8125 5.76172 8.11523 5.98633 8.33984ZM9.95117 3.79883C9.66797 3.79883 9.44336 4.04297 9.44336 4.33594L9.44336 6.12305L9.47266 6.45508L9.42383 6.40625L8.75977 5.75195C8.66211 5.66406 8.52539 5.60547 8.4082 5.60547C8.1543 5.60547 7.96875 5.80078 7.96875 6.04492C7.96875 6.16211 8.00781 6.2793 8.125 6.38672L9.60938 7.7832C9.72656 7.89062 9.83398 7.93945 9.95117 7.93945C10.0684 7.93945 10.1758 7.89062 10.293 7.7832L11.7773 6.38672C11.9043 6.2793 11.9336 6.16211 11.9336 6.04492C11.9336 5.80078 11.748 5.60547 11.4941 5.60547C11.377 5.60547 11.2305 5.66406 11.1523 5.75195L10.5566 6.36719L10.4297 6.48438L10.459 6.12305L10.459 4.33594C10.459 4.04297 10.2344 3.79883 9.95117 3.79883ZM12.3438 9.21875C12.5391 9.41406 12.8516 9.41406 13.0762 9.18945L13.916 8.33984C14.1309 8.11523 14.1406 7.8125 13.9453 7.60742C13.75 7.40234 13.4277 7.41211 13.2031 7.62695L12.3633 8.47656C12.1387 8.70117 12.1289 9.01367 12.3438 9.21875ZM13.8672 11.9824L15.0488 11.9824C15.3711 11.9824 15.5957 11.7578 15.5957 11.4746C15.5957 11.2012 15.3711 10.9766 15.0488 10.9766L13.8672 10.9766C13.5645 10.9766 13.3105 11.1914 13.3105 11.4746C13.3105 11.7676 13.5645 11.9824 13.8672 11.9824ZM12.666 11.5918C12.666 10.1074 11.4355 8.86719 9.95117 8.86719C8.47656 8.86719 7.23633 10.1074 7.23633 11.5918C7.23633 11.8848 7.29492 12.168 7.39258 12.4512L12.5098 12.4512C12.6074 12.168 12.666 11.8848 12.666 11.5918ZM4.84375 14.043L15.0586 14.043C15.3418 14.043 15.5957 13.8281 15.5957 13.5449C15.5957 13.2617 15.3516 13.0469 15.0586 13.0469L4.84375 13.0469C4.56055 13.0469 4.30664 13.2617 4.30664 13.5449C4.30664 13.8281 4.57031 14.043 4.84375 14.043Z" fill="#ffffff" fill-opacity="0.85"/>
 </g>
</svg>
