<?xml version="1.0" encoding="UTF-8"?>
<!--Generator: Apple Native CoreSVG 232.5-->
<!DOCTYPE svg
PUBLIC "-//W3C//DTD SVG 1.1//EN"
       "http://www.w3.org/Graphics/SVG/1.1/DTD/svg11.dtd">
<svg version="1.1" xmlns="http://www.w3.org/2000/svg" xmlns:xlink="http://www.w3.org/1999/xlink" width="35" height="24.3652">
 <g>
  <rect height="24.3652" opacity="0" width="35" x="0" y="0"/>
  <path d="M10.3809 17.1582C10.3809 18.6133 9.22852 19.7656 7.76367 19.7656C6.31836 19.7656 5.15625 18.6035 5.15625 17.1582C5.15625 15.7031 6.31836 14.541 7.76367 14.541C9.21875 14.541 10.3809 15.7031 10.3809 17.1582ZM30.0586 17.1582C30.0586 18.6035 28.8965 19.7656 27.4414 19.7656C25.9961 19.7656 24.834 18.6035 24.834 17.1582C24.834 15.7129 26.0059 14.541 27.4414 14.541C28.8965 14.541 30.0586 15.7031 30.0586 17.1582ZM32.9785 6.52344L33.418 7.16797C34.1895 8.28125 34.6387 9.67773 34.6387 10.8984L34.6387 15.0684C34.6387 17.002 33.8672 17.8809 32.1582 17.8809L31.123 17.8809C31.1719 17.6465 31.1914 17.4121 31.1914 17.1582C31.1914 15.0781 29.5215 13.4082 27.4414 13.4082C25.3809 13.4082 23.6914 15.0879 23.6914 17.1582C23.6914 17.4121 23.7207 17.6465 23.7598 17.8809L11.4453 17.8809C11.4941 17.6465 11.5137 17.4121 11.5137 17.1582C11.5137 15.0781 9.84375 13.4082 7.76367 13.4082C5.69336 13.4082 4.01367 15.0781 4.01367 17.1582C4.01367 17.4121 4.04297 17.6465 4.08203 17.8809L2.49023 17.8809C0.9375 17.8809 0 16.9238 0 15.332L0 13.6523C0 10.9766 1.65039 9.45312 4.98047 9.04297L8.62305 8.59375L12.5586 6.12305C14.4411 4.94745 15.8399 4.455 18.3155 4.3L18.4277 8.20312C18.4473 8.7207 18.7988 9.07227 19.2969 9.07227C19.7949 9.07227 20.1367 8.7207 20.1562 8.20312L20.2757 4.24031C20.373 4.23856 20.4786 4.23828 20.5859 4.23828L28.2129 4.23828C30.4785 4.23828 31.8555 4.89258 32.9785 6.52344ZM17.9688 12.2656C17.9688 12.959 18.5742 13.5547 19.2969 13.5547C20.0195 13.5547 20.625 12.959 20.625 12.2656C20.625 11.5723 20.0293 10.9961 19.2969 10.9961C18.5547 10.9961 17.9688 11.5723 17.9688 12.2656Z" fill="#ffffff" fill-opacity="0.25"/>
  <path d="M19.2969 13.5547C18.5742 13.5547 17.9688 12.959 17.9688 12.2656C17.9688 11.5723 18.5547 10.9961 19.2969 10.9961C20.0293 10.9961 20.625 11.5723 20.625 12.2656C20.625 12.959 20.0195 13.5547 19.2969 13.5547ZM19.2969 9.07227C18.7988 9.07227 18.4473 8.7207 18.4277 8.20312L18.2227 1.07422C18.2031 0.429688 18.6328 0 19.2969 0C19.9609 0 20.3906 0.429688 20.3711 1.07422L20.1562 8.20312C20.1367 8.7207 19.7949 9.07227 19.2969 9.07227Z" fill="#ffffff" fill-opacity="0.85"/>
 </g>
</svg>
