<svg version="1.1" xmlns="http://www.w3.org/2000/svg" xmlns:xlink="http://www.w3.org/1999/xlink" width="35" height="24.1456" viewBox="0 0 35 24.1456">
 <g>
  <rect height="24.1456" opacity="0" width="35" x="0" y="0"/>
  <path d="M10.3809 17.0484C10.3809 18.5035 9.22852 19.6558 7.76367 19.6558C6.31836 19.6558 5.15625 18.4937 5.15625 17.0484C5.15625 15.5933 6.31836 14.4312 7.76367 14.4312C9.21875 14.4312 10.3809 15.5933 10.3809 17.0484ZM30.0586 17.0484C30.0586 18.4937 28.8965 19.6558 27.4414 19.6558C25.9961 19.6558 24.834 18.4937 24.834 17.0484C24.834 15.6031 26.0059 14.4312 27.4414 14.4312C28.8965 14.4312 30.0586 15.5933 30.0586 17.0484ZM32.9785 6.41361L33.418 7.05815C34.1895 8.17143 34.6387 9.56791 34.6387 10.7886L34.6387 14.9585C34.6387 16.8921 33.8672 17.771 32.1582 17.771L31.123 17.771C31.1719 17.5367 31.1914 17.3023 31.1914 17.0484C31.1914 14.9683 29.5215 13.2984 27.4414 13.2984C25.3809 13.2984 23.6914 14.9781 23.6914 17.0484C23.6914 17.3023 23.7207 17.5367 23.7598 17.771L11.4453 17.771C11.4941 17.5367 11.5137 17.3023 11.5137 17.0484C11.5137 14.9683 9.84375 13.2984 7.76367 13.2984C5.69336 13.2984 4.01367 14.9683 4.01367 17.0484C4.01367 17.3023 4.04297 17.5367 4.08203 17.771L2.49023 17.771C0.9375 17.771 0 16.814 0 15.2222L0 13.5425C0 10.8667 1.65039 9.3433 4.98047 8.93315L8.62305 8.48393L12.5586 6.01322C14.9512 4.51908 16.5625 4.12846 20.5859 4.12846L28.2129 4.12846C30.4785 4.12846 31.8555 4.78276 32.9785 6.41361ZM17.0117 10.7398L14.9023 14.2066C14.6191 14.6656 14.8438 15.0953 15.3711 15.0953L19.7168 15.0953C20.2344 15.0953 20.4785 14.6753 20.1953 14.2163L18.0664 10.7398C17.8027 10.3101 17.2852 10.3003 17.0117 10.7398Z" fill="currentColor"/>
  <path d="M20.1953 20.3492L18.0664 23.816C17.8027 24.2456 17.2852 24.2652 17.0117 23.816L14.9023 20.3492C14.6191 19.8902 14.8438 19.4605 15.3711 19.4605L19.7168 19.4605C20.2344 19.4605 20.4785 19.8902 20.1953 20.3492Z" fill="currentColor"/>
 </g>
</svg>
