<?xml version="1.0" encoding="UTF-8"?>
<!--Generator: Apple Native CoreSVG 232.5-->
<!DOCTYPE svg
PUBLIC "-//W3C//DTD SVG 1.1//EN"
       "http://www.w3.org/Graphics/SVG/1.1/DTD/svg11.dtd">
<svg version="1.1" xmlns="http://www.w3.org/2000/svg" xmlns:xlink="http://www.w3.org/1999/xlink" width="32.7313" height="27.8862">
 <g>
  <rect height="27.8862" opacity="0" width="32.7313" x="0" y="0"/>
  <path d="M8.56778 19.9343L10.7455 18.6941L9.95449 17.3269L7.83535 18.5476C7.50332 18.7429 7.22012 18.6452 6.98574 18.2156L6.40957 17.239C5.77481 16.155 6.13613 15.1784 7.58145 14.0945L10.0717 12.2097L11.8783 8.80149C12.7768 7.11204 13.4799 6.47727 15.9408 5.04172L20.9897 2.1218C22.0639 1.4968 22.7963 1.42844 23.724 1.8679L24.2611 2.11204C24.9447 2.44407 25.56 2.96165 25.9018 3.56711L27.5131 6.38938C27.7865 6.8386 27.7475 7.04368 27.3568 7.26829L25.6186 8.28391L26.3998 9.6511L28.1967 8.59641C29.4369 7.89329 29.6322 6.90696 28.8412 5.53L27.2592 2.78586C26.7709 1.93625 25.9018 1.16477 24.935 0.69602L24.4076 0.442114C22.9721-0.231714 21.7416-0.143824 20.1986 0.76438L15.1498 3.67454C12.4545 5.22727 11.5268 6.12571 10.4916 8.06907L8.85098 11.1648L6.63418 12.8249C4.52481 14.4167 3.97793 16.1648 5.05215 18.03L5.68692 19.1335C6.34121 20.2859 7.45449 20.5886 8.56778 19.9343ZM13.4506 17.1218L23.7436 11.1745L22.9623 9.82688L12.6693 15.7644ZM12.9037 19.407C14.2416 18.6257 14.6713 16.9851 13.9193 15.6667C13.1479 14.3288 11.4975 13.8991 10.1791 14.6609C8.85098 15.4323 8.40176 17.0632 9.17324 18.4011C9.93496 19.7195 11.5854 20.1589 12.9037 19.407ZM12.1322 18.03C11.5365 18.3816 10.8725 18.2058 10.5404 17.6198C10.1986 17.0241 10.3647 16.3601 10.9701 16.0183C11.5463 15.6765 12.2104 15.8523 12.5522 16.448C12.8939 17.0339 12.7279 17.7077 12.1322 18.03ZM25.9799 11.8679C27.2982 11.0866 27.7377 9.44602 26.976 8.1179C26.2045 6.78977 24.5541 6.36008 23.2357 7.1218C21.9076 7.90305 21.4584 9.53391 22.2397 10.862C22.9916 12.1706 24.6322 12.6296 25.9799 11.8679ZM25.1889 10.4909C24.5932 10.8425 23.9291 10.657 23.5873 10.0808C23.2553 9.48508 23.4213 8.82102 24.0268 8.46946C24.6127 8.13743 25.267 8.31321 25.6088 8.90891C25.9506 9.50461 25.7846 10.1589 25.1889 10.4909Z" fill="#ffffff" fill-opacity="0.55"/>
  <path d="M5.71621 26.1452C5.95059 26.5163 6.4291 26.6433 6.8002 26.448L31.976 11.8972C32.3471 11.7019 32.4838 11.2136 32.2689 10.8425C32.0443 10.4519 31.5463 10.3347 31.1947 10.5398L6.00918 25.0808C5.64785 25.2859 5.51113 25.7741 5.71621 26.1452ZM4.40762 21.3113L2.35684 17.7566C2.01504 17.1609 1.32168 17.3073 1.12637 17.8933L0.0521501 20.9011C-0.1041 21.3113 0.100978 21.6433 0.530666 21.7214L3.66543 22.3073C4.28067 22.4245 4.74942 21.8972 4.40762 21.3113Z" fill="#ffffff" fill-opacity="0.85"/>
 </g>
</svg>
