<svg version="1.1" xmlns="http://www.w3.org/2000/svg" xmlns:xlink="http://www.w3.org/1999/xlink" width="32.1325" height="23.9559" viewBox="0 0 32.1325 23.9559">
 <g>
  <rect height="23.9559" opacity="0" width="32.1325" x="0" y="0"/>
  <path d="M6.89634 7.59809L9.06431 8.84809L9.85533 7.49067L7.73619 6.26997C7.40415 6.07465 7.35533 5.79145 7.59947 5.36176L8.15611 4.37544C8.77134 3.28169 9.8065 3.11567 11.4764 3.81879L14.3475 5.02973L18.2049 4.89301C20.1092 4.83442 21.0272 5.11762 23.4881 6.53364L28.5467 9.44379C29.621 10.059 30.0506 10.6743 30.1385 11.6899L30.1776 12.2758C30.2362 13.0375 30.0897 13.8188 29.7479 14.4145L28.117 17.227C27.8534 17.686 27.6581 17.7543 27.2772 17.5297L25.5194 16.5336L24.7284 17.8911L26.535 18.936C27.7655 19.6489 28.7225 19.3266 29.5233 17.9497L31.1053 15.1957C31.5936 14.3559 31.828 13.2231 31.7499 12.1489L31.701 11.5629C31.5741 9.99067 30.8807 8.96528 29.328 8.07661L24.2694 5.15669C21.5838 3.61372 20.3436 3.25239 18.1463 3.32075L14.6405 3.4477L12.0917 2.36372C9.66001 1.33833 7.8729 1.72895 6.79869 3.59419L6.15415 4.6977C5.49009 5.84028 5.78306 6.96333 6.89634 7.59809ZM11.7889 10.4106L22.0721 16.3579L22.8631 15.0102L12.5702 9.05317ZM9.53306 11.0844C10.871 11.8559 12.5116 11.4067 13.2733 10.0883C14.0448 8.75044 13.5956 7.10981 12.2772 6.34809C10.9393 5.58637 9.30845 6.01606 8.53697 7.34419C7.77525 8.67231 8.2147 10.3227 9.53306 11.0844ZM10.3338 9.727C9.73814 9.39497 9.55259 8.72114 9.90415 8.14497C10.2362 7.55903 10.91 7.37348 11.496 7.70551C12.0917 8.05708 12.2674 8.72114 11.9159 9.29731C11.5838 9.90278 10.9198 10.0786 10.3338 9.727ZM22.5995 18.6332C23.9276 19.395 25.5682 18.9457 26.3495 17.6372C27.1014 16.2895 26.6522 14.6586 25.3338 13.8872C24.0057 13.1352 22.3651 13.5551 21.5936 14.9028C20.8417 16.2114 21.2713 17.8618 22.5995 18.6332ZM23.3905 17.2661C22.8045 16.934 22.619 16.2602 22.9608 15.6743C23.2928 15.0883 23.9667 14.9125 24.5624 15.2446C25.1483 15.5961 25.3241 16.2602 24.9823 16.8364C24.6405 17.4418 23.9764 17.6176 23.3905 17.2661Z" fill="currentColor"/>
  <path d="M0.109233 8.23286C-0.115376 8.62348 0.0213425 9.102 0.382671 9.31684L25.578 23.8579C25.9295 24.0629 26.4178 23.936 26.6327 23.5747C26.8475 23.184 26.7108 22.6957 26.3592 22.4907L1.16392 7.94965C0.812358 7.74458 0.314311 7.87153 0.109233 8.23286ZM3.63462 4.67817L5.69517 1.12348C6.03697 0.527779 5.55845 0.000435331 4.95298 0.127388L1.80845 0.70356C1.37876 0.781685 1.19322 1.11372 1.3397 1.53364L2.40415 4.53169C2.60923 5.12739 3.29283 5.26411 3.63462 4.67817Z" fill="currentColor"/>
 </g>
</svg>
