<?xml version="1.0" encoding="UTF-8"?>
<!--Generator: Apple Native CoreSVG 232.5-->
<!DOCTYPE svg
PUBLIC "-//W3C//DTD SVG 1.1//EN"
       "http://www.w3.org/Graphics/SVG/1.1/DTD/svg11.dtd">
<svg version="1.1" xmlns="http://www.w3.org/2000/svg" xmlns:xlink="http://www.w3.org/1999/xlink" width="18.3398" height="17.998">
 <g>
  <rect height="17.998" opacity="0" width="18.3398" x="0" y="0"/>
  <path d="M3.06641 17.998L14.9121 17.998C16.9629 17.998 17.9785 16.9824 17.9785 14.9707L17.9785 3.04688C17.9785 1.03516 16.9629 0.0195312 14.9121 0.0195312L3.06641 0.0195312C1.02539 0.0195312 0 1.02539 0 3.04688L0 14.9707C0 16.9922 1.02539 17.998 3.06641 17.998Z" fill="#ffffff" fill-opacity="0.25"/>
  <path d="M6.30859 14.2578C5.87891 14.2578 5.56641 13.9453 5.56641 13.5156L5.56641 4.50195C5.56641 4.0625 5.87891 3.75 6.30859 3.75L11.6699 3.75C12.0996 3.75 12.4121 4.0625 12.4121 4.50195L12.4121 13.5156C12.4121 13.9453 12.0996 14.2578 11.6699 14.2578ZM7.04102 8.07617L10.9375 8.07617C11.1328 8.07617 11.2695 7.92969 11.2695 7.72461L11.2695 5.23438C11.2695 5.0293 11.1328 4.89258 10.9375 4.89258L7.04102 4.89258C6.8457 4.89258 6.70898 5.0293 6.70898 5.23438L6.70898 7.72461C6.70898 7.92969 6.8457 8.07617 7.04102 8.07617ZM7.04102 13.1152L10.9375 13.1152C11.1328 13.1152 11.2695 12.9785 11.2695 12.7734L11.2695 10.2832C11.2695 10.0781 11.1328 9.94141 10.9375 9.94141L7.04102 9.94141C6.8457 9.94141 6.70898 10.0781 6.70898 10.2832L6.70898 12.7734C6.70898 12.9785 6.8457 13.1152 7.04102 13.1152Z" fill="#ffffff" fill-opacity="0.85"/>
 </g>
</svg>
