<svg version="1.1" xmlns="http://www.w3.org/2000/svg" xmlns:xlink="http://www.w3.org/1999/xlink" width="20.2832" height="19.9316" viewBox="0 0 20.2832 19.9316">
 <g>
  <rect height="19.9316" opacity="0" width="20.2832" x="0" y="0"/>
  <path d="M9.96094 19.9219C15.4102 19.9219 19.9219 15.4004 19.9219 9.96094C19.9219 4.51172 15.4004 0 9.95117 0C4.51172 0 0 4.51172 0 9.96094C0 15.4004 4.52148 19.9219 9.96094 19.9219ZM9.96094 18.2617C5.35156 18.2617 1.66992 14.5703 1.66992 9.96094C1.66992 5.35156 5.3418 1.66016 9.95117 1.66016C14.5605 1.66016 18.2617 5.35156 18.2617 9.96094C18.2617 14.5703 14.5703 18.2617 9.96094 18.2617Z" fill="var(--color-primary)"/>
  <path d="M9.92188 14.4727C10.4395 14.4727 10.7129 14.1309 10.7129 13.5938L10.7129 6.73828L13.1445 6.73828C13.5156 6.73828 13.7988 6.48438 13.7988 6.09375C13.7988 5.69336 13.5156 5.45898 13.1445 5.45898L6.74805 5.45898C6.37695 5.45898 6.10352 5.69336 6.10352 6.09375C6.10352 6.48438 6.37695 6.73828 6.74805 6.73828L9.16016 6.73828L9.16016 13.5938C9.16016 14.1113 9.42383 14.4727 9.92188 14.4727Z" fill="var(--color-primary)"/>
 </g>
</svg>
