<?xml version="1.0" encoding="UTF-8"?>
<!--Generator: Apple Native CoreSVG 232.5-->
<!DOCTYPE svg
PUBLIC "-//W3C//DTD SVG 1.1//EN"
       "http://www.w3.org/Graphics/SVG/1.1/DTD/svg11.dtd">
<svg version="1.1" xmlns="http://www.w3.org/2000/svg" xmlns:xlink="http://www.w3.org/1999/xlink" width="18.3398" height="17.998">
 <g>
  <rect height="17.998" opacity="0" width="18.3398" x="0" y="0"/>
  <path d="M3.06641 17.998L14.9121 17.998C16.9629 17.998 17.9785 16.9824 17.9785 14.9707L17.9785 3.04688C17.9785 1.03516 16.9629 0.0195312 14.9121 0.0195312L3.06641 0.0195312C1.02539 0.0195312 0 1.02539 0 3.04688L0 14.9707C0 16.9922 1.02539 17.998 3.06641 17.998ZM3.08594 16.4258C2.10938 16.4258 1.57227 15.9082 1.57227 14.8926L1.57227 3.125C1.57227 2.10938 2.10938 1.5918 3.08594 1.5918L14.8926 1.5918C15.8594 1.5918 16.4062 2.10938 16.4062 3.125L16.4062 14.8926C16.4062 15.9082 15.8594 16.4258 14.8926 16.4258Z" fill="#ffffff" fill-opacity="0.85"/>
  <path d="M8.97461 13.5059C9.48242 13.5059 9.75586 13.1641 9.75586 12.627L9.75586 5.77148L12.1875 5.77148C12.5586 5.77148 12.8418 5.51758 12.8418 5.12695C12.8418 4.72656 12.5586 4.49219 12.1875 4.49219L5.80078 4.49219C5.42969 4.49219 5.14648 4.72656 5.14648 5.12695C5.14648 5.51758 5.42969 5.77148 5.80078 5.77148L8.20312 5.77148L8.20312 12.627C8.20312 13.1445 8.4668 13.5059 8.97461 13.5059Z" fill="#ffffff" fill-opacity="0.85"/>
 </g>
</svg>
