<?xml version="1.0" encoding="UTF-8"?>
<!--Generator: Apple Native CoreSVG 232.5-->
<!DOCTYPE svg
PUBLIC "-//W3C//DTD SVG 1.1//EN"
       "http://www.w3.org/Graphics/SVG/1.1/DTD/svg11.dtd">
<svg version="1.1" xmlns="http://www.w3.org/2000/svg" xmlns:xlink="http://www.w3.org/1999/xlink" width="28.6089" height="20.6304">
 <g>
  <rect height="20.6304" opacity="0" width="28.6089" x="0" y="0"/>
  <path d="M17.449 19.3435C18.4842 18.3181 18.1619 17.5467 17.117 16.6873L14.3728 14.4705C13.3474 13.6404 12.7029 13.9822 11.9607 14.6658L11.7849 14.8318C11.1306 15.4373 10.1638 14.9392 7.93728 12.7029C5.84744 10.6131 5.21267 9.43142 5.78884 8.84548L5.96462 8.6697C6.69704 7.93728 6.99001 7.27322 6.15994 6.25759L3.94314 3.50369C3.09353 2.45876 2.31228 2.14626 1.28689 3.17165C-1.53538 6.00369 0.525169 10.906 5.12478 15.5056C9.72439 20.1052 14.6267 22.1658 17.449 19.3435ZM9.67556 6.86306L11.4334 6.86306C12.117 6.86306 12.5076 6.47244 12.5076 5.77908L12.5076 4.0115C12.5076 3.31814 12.117 2.92751 11.4334 2.92751L9.67556 2.92751C8.9822 2.92751 8.58181 3.31814 8.58181 4.0115L8.58181 5.77908C8.58181 6.47244 8.9822 6.86306 9.67556 6.86306ZM14.8318 6.86306L16.5994 6.86306C17.283 6.86306 17.6736 6.47244 17.6736 5.77908L17.6736 4.0115C17.6736 3.31814 17.283 2.92751 16.5994 2.92751L14.8318 2.92751C14.1385 2.92751 13.7283 3.31814 13.7283 4.0115L13.7283 5.77908C13.7283 6.47244 14.1385 6.86306 14.8318 6.86306ZM19.9881 6.86306L21.7361 6.86306C22.4295 6.86306 22.8396 6.47244 22.8396 5.77908L22.8396 4.0115C22.8396 3.31814 22.4295 2.92751 21.7361 2.92751L19.9881 2.92751C19.2947 2.92751 18.9041 3.31814 18.9041 4.0115L18.9041 5.77908C18.9041 6.47244 19.2947 6.86306 19.9881 6.86306ZM25.1345 6.86306L26.8924 6.86306C27.5857 6.86306 28.0056 6.47244 28.0056 5.77908L28.0056 4.0115C28.0056 3.31814 27.5857 2.92751 26.8924 2.92751L25.1345 2.92751C24.451 2.92751 24.0603 3.31814 24.0603 4.0115L24.0603 5.77908C24.0603 6.47244 24.451 6.86306 25.1345 6.86306ZM9.64626 12.0291L11.4138 12.0291C12.1072 12.0291 12.5076 11.6385 12.5076 10.9451L12.5076 9.16775C12.5076 8.48415 12.1072 8.08376 11.4138 8.08376L9.64626 8.08376C8.97244 8.08376 8.58181 8.48415 8.58181 9.16775L8.58181 10.9451C8.58181 11.6385 8.97244 12.0291 9.64626 12.0291ZM14.8123 12.0291L21.7654 12.0291C22.4685 12.0291 22.8494 11.6385 22.8494 10.9451L22.8494 9.16775C22.8494 8.48415 22.4685 8.08376 21.7654 8.08376L14.8123 8.08376C14.1189 8.08376 13.7283 8.48415 13.7283 9.16775L13.7283 10.9451C13.7283 11.6385 14.1189 12.0291 14.8123 12.0291ZM25.1736 12.0291L26.9314 12.0291C27.6248 12.0291 28.0056 11.6385 28.0056 10.9451L28.0056 9.16775C28.0056 8.48415 27.6248 8.08376 26.9314 8.08376L25.1736 8.08376C24.4705 8.08376 24.0701 8.48415 24.0701 9.16775L24.0701 10.9451C24.0701 11.6385 24.4705 12.0291 25.1736 12.0291Z" fill="#ffffff" fill-opacity="0.85"/>
 </g>
</svg>
