<svg version="1.1" xmlns="http://www.w3.org/2000/svg" xmlns:xlink="http://www.w3.org/1999/xlink" width="22.1804" height="19.9316" viewBox="0 0 22.1804 19.9316">
 <g>
  <rect height="19.9316" opacity="0" width="22.1804" x="0" y="0"/>
  <path d="M11.8568 19.9219C17.2962 19.9219 21.8177 15.4004 21.8177 9.96094C21.8177 4.51172 17.2962 0 11.8568 0C6.40757 0 1.89585 4.50195 1.89585 9.95117L3.55601 9.95117C3.55601 5.3418 7.24741 1.66992 11.8568 1.66992C16.4662 1.66992 20.1576 5.35156 20.1576 9.96094C20.1576 14.5703 16.4662 18.2812 11.8568 18.2617C9.07358 18.252 6.63218 16.9043 5.13804 14.8242C4.8353 14.4238 4.37632 14.2969 3.96616 14.541C3.57554 14.7852 3.46811 15.3223 3.80015 15.752C5.65561 18.2422 8.56577 19.9219 11.8568 19.9219ZM0.694677 8.07617C-0.00844799 8.07617-0.184229 8.55469 0.19663 9.10156L2.38413 12.207C2.7064 12.6562 3.17515 12.6465 3.48765 12.207L5.67515 9.0918C6.04624 8.55469 5.87046 8.07617 5.1771 8.07617Z" fill="currentColor"/>
  <path d="M8.36069 7.87109C8.36069 8.21289 8.59507 8.4375 8.93686 8.4375L11.222 8.4375L11.222 14.2383C11.222 14.6289 11.4857 14.8828 11.8568 14.8828C12.2376 14.8828 12.4916 14.6289 12.4916 14.2383L12.4916 8.4375L14.7669 8.4375C15.1087 8.4375 15.3431 8.21289 15.3431 7.87109C15.3431 7.53906 15.1087 7.31445 14.7669 7.31445L8.93686 7.31445C8.59507 7.31445 8.36069 7.53906 8.36069 7.87109ZM8.34116 5.99609C8.34116 6.26953 8.55601 6.48438 8.81968 6.48438L14.8744 6.48438C15.1478 6.48438 15.3529 6.26953 15.3529 5.99609C15.3529 5.71289 15.1478 5.51758 14.8744 5.51758L8.81968 5.51758C8.55601 5.51758 8.34116 5.71289 8.34116 5.99609Z" fill="currentColor"/>
 </g>
</svg>
