<?xml version="1.0" encoding="UTF-8"?>
<!--Generator: Apple Native CoreSVG 232.5-->
<!DOCTYPE svg
PUBLIC "-//W3C//DTD SVG 1.1//EN"
       "http://www.w3.org/Graphics/SVG/1.1/DTD/svg11.dtd">
<svg version="1.1" xmlns="http://www.w3.org/2000/svg" xmlns:xlink="http://www.w3.org/1999/xlink" width="21.3623" height="21.626">
 <g>
  <rect height="21.626" opacity="0" width="21.3623" x="0" y="0"/>
  <path d="M19.3872 2.27295C16.9946-0.119629 12.8345 0.192871 10.0513 2.96631C8.43994 4.5874 7.76611 6.59912 7.74658 8.58154C7.70752 11.521 7.42432 13.2202 4.71924 15.9253L5.73486 16.9312C8.43018 14.2456 10.1196 14.0112 13.0591 13.9136C15.0708 13.855 17.0532 13.23 18.6841 11.5991C21.4673 8.81592 21.7798 4.65576 19.3872 2.27295ZM18.3423 3.30811C20.2661 5.2417 20.0415 8.17139 17.6489 10.5542C15.2368 12.9565 12.3071 13.1909 10.3931 11.2671C8.45947 9.35303 8.68408 6.41357 11.0962 4.01123C13.4888 1.61865 16.4282 1.39404 18.3423 3.30811ZM9.34814 12.312C9.62158 12.605 9.95361 12.8394 10.2954 13.0542C9.33838 13.2202 8.43994 13.5425 7.47314 14.187C8.11768 13.23 8.43994 12.3218 8.59619 11.3647C8.80127 11.7065 9.05518 12.0288 9.34814 12.312ZM0.344238 20.6421L0.98877 21.2964C1.44775 21.7358 2.11182 21.7358 2.56104 21.2964L6.34033 17.5073C6.79932 17.0483 6.79932 16.3843 6.34033 15.9351L5.6958 15.2808C5.24658 14.8315 4.57275 14.8315 4.12354 15.2808L0.344238 19.0796C-0.114746 19.519-0.114746 20.1831 0.344238 20.6421ZM8.5083 8.46436L8.99658 8.95264L16.0376 1.91162L15.5493 1.41357ZM9.05518 10.7104L9.53369 11.1987L18.2739 2.46826L17.8052 1.97021ZM10.4517 12.1167L10.9497 12.605L19.6899 3.86475L19.2017 3.3667ZM12.7075 12.6636L13.186 13.1616L20.2368 6.11084L19.7388 5.62256ZM14.8267 1.68701L19.9048 6.75537L20.3931 6.26709L15.3149 1.19873ZM12.6196 2.146L19.4946 9.04053L20.0024 8.54248L13.1079 1.65771ZM11.1938 3.35693L18.2739 10.4565L18.7817 9.9585L11.6821 2.85889ZM9.95361 4.59717L17.0337 11.6968L17.5317 11.1987L10.4419 4.09912ZM8.74268 6.02295L15.6274 12.9175L16.1157 12.4292L9.22119 5.54443ZM8.26416 8.21045L13.3716 13.3276L13.8696 12.8296L8.75244 7.72217Z" fill="#ffffff" fill-opacity="0.85"/>
 </g>
</svg>
