<?xml version="1.0" encoding="UTF-8"?>
<!--Generator: Apple Native CoreSVG 232.5-->
<!DOCTYPE svg
PUBLIC "-//W3C//DTD SVG 1.1//EN"
       "http://www.w3.org/Graphics/SVG/1.1/DTD/svg11.dtd">
<svg version="1.1" xmlns="http://www.w3.org/2000/svg" xmlns:xlink="http://www.w3.org/1999/xlink" width="20.2832" height="19.9316">
 <g>
  <rect height="19.9316" opacity="0" width="20.2832" x="0" y="0"/>
  <path d="M0.126953 8.34961C0.703125 8.49609 1.28906 8.57422 1.91406 8.57422C5.45898 8.57422 8.14453 5.88867 8.14453 2.33398C8.14453 1.5918 8.01758 0.878906 7.79297 0.244141C3.87695 1.12305 0.800781 4.35547 0.126953 8.34961ZM9.96094 19.9219C10.2539 19.9219 10.5371 19.9023 10.8301 19.873C10.5957 19.1406 10.4688 18.3691 10.4688 17.5488C10.4688 13.3594 13.8477 9.98047 18.0273 9.98047C18.6816 9.98047 19.2969 10.0586 19.9121 10.2246C19.9219 10.1367 19.9219 10.0488 19.9219 9.96094C19.9219 4.51172 15.4004 0 9.95117 0C9.66797 0 9.39453 0.0195312 9.12109 0.0390625C9.36523 0.751953 9.47266 1.52344 9.47266 2.33398C9.47266 6.52344 6.09375 9.90234 1.91406 9.90234C1.26953 9.90234 0.615234 9.81445 0.00976562 9.66797C0 9.75586 0 9.86328 0 9.96094C0 15.4004 4.52148 19.9219 9.96094 19.9219ZM12.1582 19.668C16.0547 18.7695 19.1309 15.5371 19.7949 11.5527C19.2285 11.3965 18.6621 11.3086 18.0273 11.3086C14.4824 11.3086 11.7969 13.9941 11.7969 17.5488C11.7969 18.3105 11.9141 19.0234 12.1582 19.668Z" fill="#ffffff" fill-opacity="0.85"/>
 </g>
</svg>
