<svg version="1.1" xmlns="http://www.w3.org/2000/svg" xmlns:xlink="http://www.w3.org/1999/xlink" width="20.0391" height="16.8848" viewBox="0 0 20.0391 16.8848">
 <g>
  <rect height="16.8848" opacity="0" width="20.0391" x="0" y="0"/>
  <path d="M0.732422 1.47461L18.9258 1.47461C19.3359 1.47461 19.6777 1.15234 19.6777 0.732422C19.6777 0.322266 19.3359 0 18.9258 0L0.732422 0C0.322266 0 0 0.322266 0 0.732422C0 1.15234 0.322266 1.47461 0.732422 1.47461ZM11.8262 11.709L18.9258 11.709C19.3359 11.709 19.6777 11.377 19.6777 10.9668C19.6777 10.5566 19.3359 10.2344 18.9258 10.2344L11.8262 10.2344C11.416 10.2344 11.0938 10.5566 11.0938 10.9668C11.0938 11.377 11.416 11.709 11.8262 11.709ZM0.732422 16.8164L18.9258 16.8164C19.3359 16.8164 19.6777 16.4941 19.6777 16.084C19.6777 15.6738 19.3359 15.3418 18.9258 15.3418L0.732422 15.3418C0.322266 15.3418 0 15.6738 0 16.084C0 16.4941 0.322266 16.8164 0.732422 16.8164Z" fill="currentColor"/>
  <path d="M1.23047 7.43164L18.4375 7.43164C19.2578 7.43164 19.6777 7.03125 19.6777 6.21094L19.6777 5.47852C19.6777 4.67773 19.2578 4.26758 18.4375 4.26758L1.23047 4.26758C0.410156 4.26758 0 4.67773 0 5.47852L0 6.21094C0 7.03125 0.410156 7.43164 1.23047 7.43164ZM1.23047 12.5488L8.52539 12.5488C9.3457 12.5488 9.75586 12.1484 9.75586 11.3281L9.75586 10.5957C9.75586 9.79492 9.3457 9.38477 8.52539 9.38477L1.23047 9.38477C0.410156 9.38477 0 9.79492 0 10.5957L0 11.3281C0 12.1484 0.410156 12.5488 1.23047 12.5488Z" fill="currentColor"/>
 </g>
</svg>
