<svg version="1.1" xmlns="http://www.w3.org/2000/svg" xmlns:xlink="http://www.w3.org/1999/xlink" width="29.8926" height="20.034" viewBox="0 0 29.8926 20.034">
 <g>
  <rect height="20.034" opacity="0" width="29.8926" x="0" y="0"/>
  <path d="M6.91406 8.81094L25.1074 8.81094C25.5176 8.81094 25.8496 8.48867 25.8496 8.06875C25.8496 7.6586 25.5176 7.33633 25.1074 7.33633L6.91406 7.33633C6.50391 7.33633 6.18164 7.6586 6.18164 8.06875C6.18164 8.48867 6.50391 8.81094 6.91406 8.81094ZM6.91406 13.8305L25.1074 13.8305C25.5176 13.8305 25.8496 13.4984 25.8496 13.0883C25.8496 12.6781 25.5176 12.3559 25.1074 12.3559L6.91406 12.3559C6.50391 12.3559 6.18164 12.6781 6.18164 13.0883C6.18164 13.4984 6.50391 13.8305 6.91406 13.8305ZM6.91406 18.8402L25.1074 18.8402C25.5176 18.8402 25.8496 18.518 25.8496 18.1078C25.8496 17.6977 25.5176 17.3656 25.1074 17.3656L6.91406 17.3656C6.50391 17.3656 6.18164 17.6977 6.18164 18.1078C6.18164 18.518 6.50391 18.8402 6.91406 18.8402Z" fill="currentColor"/>
  <path d="M0.878906 5.4125L4.3457 3.30313C4.79492 3.02969 4.78516 2.51211 4.3457 2.23867L0.878906 0.119533C0.419922-0.16367 0 0.0804707 0 0.598049L0 4.94375C0 5.4711 0.419922 5.69571 0.878906 5.4125ZM7.41211 4.33828L24.6191 4.33828C25.4395 4.33828 25.8496 3.93789 25.8496 3.11758L25.8496 2.39492C25.8496 1.58438 25.4395 1.17422 24.6191 1.17422L7.41211 1.17422C6.5918 1.17422 6.18164 1.58438 6.18164 2.39492L6.18164 3.11758C6.18164 3.93789 6.5918 4.33828 7.41211 4.33828Z" fill="currentColor"/>
 </g>
</svg>
