<svg version="1.1" xmlns="http://www.w3.org/2000/svg" xmlns:xlink="http://www.w3.org/1999/xlink" width="20.0391" height="16.8848" viewBox="0 0 20.0391 16.8848">
 <g>
  <rect height="16.8848" opacity="0" width="20.0391" x="0" y="0"/>
  <path d="M0.732422 1.47461L18.9258 1.47461C19.3359 1.47461 19.6777 1.15234 19.6777 0.732422C19.6777 0.322266 19.3359 0 18.9258 0L0.732422 0C0.322266 0 0 0.322266 0 0.732422C0 1.15234 0.322266 1.47461 0.732422 1.47461ZM4.3457 6.5918L15.3223 6.5918C15.7324 6.5918 16.0645 6.26953 16.0645 5.84961C16.0645 5.43945 15.7324 5.11719 15.3223 5.11719L4.3457 5.11719C3.92578 5.11719 3.60352 5.43945 3.60352 5.84961C3.60352 6.26953 3.92578 6.5918 4.3457 6.5918ZM0.732422 11.709L18.9258 11.709C19.3359 11.709 19.6777 11.377 19.6777 10.9668C19.6777 10.5566 19.3359 10.2344 18.9258 10.2344L0.732422 10.2344C0.322266 10.2344 0 10.5566 0 10.9668C0 11.377 0.322266 11.709 0.732422 11.709ZM4.3457 16.8164L15.3223 16.8164C15.7324 16.8164 16.0645 16.4941 16.0645 16.084C16.0645 15.6738 15.7324 15.3418 15.3223 15.3418L4.3457 15.3418C3.92578 15.3418 3.60352 15.6738 3.60352 16.084C3.60352 16.4941 3.92578 16.8164 4.3457 16.8164Z" fill="var(--color-primary)"/>
 </g>
</svg>
