<svg version="1.1" xmlns="http://www.w3.org/2000/svg" xmlns:xlink="http://www.w3.org/1999/xlink" width="23.1055" height="14.5605" viewBox="0 0 23.1055 14.5605">
 <g>
  <rect height="14.5605" opacity="0" width="23.1055" x="0" y="0"/>
  <path d="M17.5781 14.5508C19.248 14.5508 20.5176 13.7598 21.1133 12.3535L21.1719 12.3535L21.1719 13.7402C21.1719 14.248 21.4941 14.5605 21.9531 14.5605C22.4219 14.5605 22.7441 14.2383 22.7441 13.7305L22.7441 4.47266C22.7441 3.97461 22.4219 3.62305 21.9531 3.62305C21.4941 3.62305 21.1719 3.97461 21.1719 4.47266L21.1719 5.84961L21.1133 5.84961C20.5176 4.47266 19.1895 3.64258 17.5781 3.64258C14.9316 3.64258 13.1641 5.83984 13.1641 9.10156C13.1641 12.3828 14.9316 14.5508 17.5781 14.5508ZM17.9688 13.125C16.0645 13.125 14.8535 11.5723 14.8535 9.10156C14.8535 6.63086 16.0645 5.06836 17.9688 5.06836C19.873 5.06836 21.123 6.67969 21.123 9.12109C21.123 11.5625 19.8926 13.125 17.9688 13.125ZM0.820312 14.4824C1.33789 14.4824 1.5918 14.2871 1.77734 13.7402L3.03711 10.293L8.79883 10.293L10.0586 13.7402C10.2441 14.2871 10.498 14.4824 11.0059 14.4824C11.5234 14.4824 11.8555 14.1699 11.8555 13.6816C11.8555 13.5156 11.8262 13.3594 11.748 13.1543L7.16797 0.957031C6.94336 0.361328 6.54297 0.0585938 5.91797 0.0585938C5.3125 0.0585938 4.90234 0.351562 4.6875 0.947266L0.107422 13.1641C0.0292969 13.3691 0 13.5254 0 13.6914C0 14.1797 0.3125 14.4824 0.820312 14.4824ZM3.51562 8.80859L5.88867 2.23633L5.9375 2.23633L8.31055 8.80859Z" fill="currentColor"/>
 </g>
</svg>
