<?xml version="1.0" encoding="UTF-8"?>
<!--Generator: Apple Native CoreSVG 232.5-->
<!DOCTYPE svg
PUBLIC "-//W3C//DTD SVG 1.1//EN"
       "http://www.w3.org/Graphics/SVG/1.1/DTD/svg11.dtd">
<svg version="1.1" xmlns="http://www.w3.org/2000/svg" xmlns:xlink="http://www.w3.org/1999/xlink" width="20.2832" height="19.9316">
 <g>
  <rect height="19.9316" opacity="0" width="20.2832" x="0" y="0"/>
  <path d="M9.96094 19.9316C15.4102 19.9316 19.9219 15.4199 19.9219 9.9707C19.9219 4.53125 15.4004 0.00976562 9.95117 0.00976562C4.51172 0.00976562 0 4.53125 0 9.9707C0 15.4199 4.52148 19.9316 9.96094 19.9316Z" fill="#ffffff" fill-opacity="0.25"/>
  <path d="M8.71094 13.6133C6.58203 14.1797 4.9707 13.2031 4.375 10.9863L3.58398 7.95898C3.35938 7.12891 3.65234 6.60156 4.48242 6.38672L8.76953 5.24414C9.58008 5.03906 10.1172 5.33203 10.3418 6.14258L11.1523 9.16016C11.7578 11.3867 10.8301 13.0371 8.71094 13.6133ZM8.30078 12.0605C9.20898 11.8262 9.80469 11.123 9.83398 10.2637C9.85352 10.0879 9.7168 10.0098 9.56055 10.1074C9.08203 10.4395 8.45703 10.6934 7.96875 10.8203C7.48047 10.957 6.80664 11.0547 6.2207 11.0059C6.05469 10.9961 5.9668 11.1133 6.06445 11.2695C6.52344 11.9922 7.40234 12.3047 8.30078 12.0605ZM6.12305 9.23828C6.41602 9.14062 6.57227 9.31641 6.73828 9.26758C6.80664 9.23828 6.83594 9.13086 6.80664 9.00391C6.67969 8.65234 6.31836 8.42773 5.9375 8.52539C5.56641 8.61328 5.32227 9.00391 5.44922 9.38477C5.48828 9.49219 5.55664 9.58008 5.61523 9.56055C5.77148 9.54102 5.80078 9.32617 6.12305 9.23828ZM8.75977 8.52539C9.05273 8.42773 9.20898 8.60352 9.375 8.56445C9.42383 8.52539 9.48242 8.42773 9.43359 8.31055C9.3457 7.91992 8.95508 7.72461 8.57422 7.80273C8.20312 7.89062 7.96875 8.31055 8.06641 8.66211C8.11523 8.76953 8.19336 8.85742 8.25195 8.83789C8.39844 8.81836 8.44727 8.60352 8.75977 8.52539ZM15.6934 7.51953C16.5137 7.72461 16.8164 8.26172 16.5918 9.07227L15.791 12.0898C15.1953 14.3066 13.584 15.2832 11.4551 14.7266C10.8496 14.5605 10.3223 14.2969 9.93164 13.9551C10.6738 13.5742 11.2402 13.0273 11.5918 12.3633C11.7383 12.3828 11.8945 12.4121 12.041 12.4609C12.5 12.5879 12.8809 12.7832 13.3008 13.1641C13.418 13.3008 13.584 13.2227 13.584 13.0371C13.5547 12.3535 13.0371 11.7676 12.2754 11.582C12.1777 11.5527 12.0508 11.543 11.9531 11.5234C12.1582 10.7617 12.1484 9.89258 11.8848 8.96484L11.1719 6.30859C11.2402 6.31836 11.3281 6.32812 11.4062 6.36719ZM13.8672 10.791C14.1602 10.8789 14.4629 10.6934 14.5508 10.4004C14.6289 10.1074 14.4629 9.80469 14.1602 9.72656C13.8574 9.64844 13.5547 9.81445 13.4863 10.1074C13.3984 10.4102 13.5742 10.7324 13.8672 10.791Z" fill="#ffffff" fill-opacity="0.85"/>
 </g>
</svg>
