<?xml version="1.0" encoding="UTF-8"?>
<!--Generator: Apple Native CoreSVG 232.5-->
<!DOCTYPE svg
PUBLIC "-//W3C//DTD SVG 1.1//EN"
       "http://www.w3.org/Graphics/SVG/1.1/DTD/svg11.dtd">
<svg version="1.1" xmlns="http://www.w3.org/2000/svg" xmlns:xlink="http://www.w3.org/1999/xlink" width="20.8887" height="24.8145">
 <g>
  <rect height="24.8145" opacity="0" width="20.8887" x="0" y="0"/>
  <path d="M17.4121 21.1328C18.1445 21.6602 18.7305 22.0898 19.7852 22.0898L19.834 22.0898C20.2148 22.0898 20.5273 22.4023 20.5273 22.7832C20.5273 23.1641 20.2148 23.4668 19.834 23.4668L19.7852 23.4668C16.7383 23.4668 16.4844 21.4844 14.9023 21.4844C13.3496 21.4844 12.9199 23.4668 10.2637 23.4668C7.59766 23.4668 7.17773 21.4844 5.625 21.4844C4.04297 21.4844 3.7793 23.4668 0.742188 23.4668L0.693359 23.4668C0.302734 23.4668 0 23.1641 0 22.7832C0 22.4023 0.302734 22.0898 0.693359 22.0898L0.742188 22.0898C1.78711 22.0898 2.38281 21.6602 3.11523 21.1328C3.75 20.6738 4.54102 20.1074 5.625 20.1074C6.74805 20.1074 7.54883 20.7129 8.18359 21.1816C8.85742 21.6992 9.38477 22.0898 10.2637 22.0898C11.1328 22.0898 11.6699 21.6992 12.3438 21.1816C12.9785 20.7129 13.7793 20.1074 14.9023 20.1074C15.9863 20.1074 16.7773 20.6738 17.4121 21.1328ZM5.71621 15.7257C5.71322 15.7566 5.71289 15.7884 5.71289 15.8203C5.71289 16.2731 5.77798 16.7102 5.90175 17.1217C5.81338 17.1072 5.72137 17.0996 5.625 17.0996C4.04297 17.0996 3.7793 19.082 0.742188 19.082L0.693359 19.082C0.302734 19.082 0 18.7793 0 18.3984C0 18.0176 0.302734 17.7051 0.693359 17.7051L0.742188 17.7051C1.78711 17.7051 2.38281 17.2754 3.11523 16.748C3.75 16.2891 4.54102 15.7227 5.625 15.7227C5.65595 15.7227 5.68666 15.7231 5.71621 15.7257ZM17.4121 16.748C18.1445 17.2754 18.7305 17.7051 19.7852 17.7051L19.834 17.7051C20.2148 17.7051 20.5273 18.0176 20.5273 18.3984C20.5273 18.7793 20.2148 19.082 19.834 19.082L19.7852 19.082C16.7383 19.082 16.4844 17.0996 14.9023 17.0996C14.8126 17.0996 14.7267 17.1062 14.6446 17.1202C14.7687 16.7091 14.834 16.2725 14.834 15.8203C14.834 15.7881 14.8336 15.756 14.8305 15.7251C14.8538 15.7229 14.878 15.7227 14.9023 15.7227C15.9863 15.7227 16.7773 16.2891 17.4121 16.748Z" fill="#ffffff" fill-opacity="0.85"/>
  <path d="M10.2637 19.0527C12.0605 19.0527 13.4961 17.6172 13.4961 15.8203C13.4961 14.5703 12.7832 13.5742 11.8359 13.0469C11.4844 12.8516 11.3281 12.5684 11.3281 12.0605L11.3281 2.38281C11.3281 1.80664 10.8496 1.32812 10.2734 1.32812C9.6875 1.32812 9.21875 1.80664 9.21875 2.38281L9.21875 12.0605C9.21875 12.5488 9.04297 12.8223 8.68164 13.0273C7.74414 13.5547 7.04102 14.5703 7.04102 15.8203C7.04102 17.6172 8.47656 19.0527 10.2637 19.0527ZM13.9844 3.44727L16.1035 3.44727C16.4453 3.44727 16.6797 3.18359 16.6797 2.88086C16.6797 2.57812 16.4453 2.30469 16.1035 2.30469L13.9844 2.30469C13.6426 2.30469 13.4082 2.57812 13.4082 2.88086C13.4082 3.18359 13.6426 3.44727 13.9844 3.44727ZM13.9844 6.19141L16.1035 6.19141C16.4453 6.19141 16.6797 5.91797 16.6797 5.61523C16.6797 5.3125 16.4453 5.04883 16.1035 5.04883L13.9844 5.04883C13.6426 5.04883 13.4082 5.3125 13.4082 5.61523C13.4082 5.91797 13.6426 6.19141 13.9844 6.19141ZM13.9844 8.92578L16.1035 8.92578C16.4453 8.92578 16.6797 8.66211 16.6797 8.35938C16.6797 8.05664 16.4453 7.79297 16.1035 7.79297L13.9844 7.79297C13.6426 7.79297 13.4082 8.05664 13.4082 8.35938C13.4082 8.66211 13.6426 8.92578 13.9844 8.92578ZM13.9844 11.6699L16.1035 11.6699C16.4453 11.6699 16.6797 11.4062 16.6797 11.1035C16.6797 10.8008 16.4453 10.5371 16.1035 10.5371L13.9844 10.5371C13.6426 10.5371 13.4082 10.8008 13.4082 11.1035C13.4082 11.4062 13.6426 11.6699 13.9844 11.6699Z" fill="#ffffff" fill-opacity="0.85"/>
 </g>
</svg>
