<svg version="1.1" xmlns="http://www.w3.org/2000/svg" xmlns:xlink="http://www.w3.org/1999/xlink" width="20.2832" height="19.9316" viewBox="0 0 20.2832 19.9316">
 <g>
  <rect height="19.9316" opacity="0" width="20.2832" x="0" y="0"/>
  <path d="M9.96094 19.9219C15.4102 19.9219 19.9219 15.4004 19.9219 9.96094C19.9219 4.51172 15.4004 0 9.95117 0C4.51172 0 0 4.51172 0 9.96094C0 15.4004 4.52148 19.9219 9.96094 19.9219ZM9.96094 18.2617C5.35156 18.2617 1.66992 14.5703 1.66992 9.96094C1.66992 5.35156 5.3418 1.66016 9.95117 1.66016C14.5605 1.66016 18.2617 5.35156 18.2617 9.96094C18.2617 14.5703 14.5703 18.2617 9.96094 18.2617Z" fill="currentColor"/>
  <path d="M7.41211 15.8203C8.91602 15.8203 10.127 14.6094 10.127 13.1152C10.127 12.3242 9.79492 11.6211 9.16992 11.0645C9.07227 10.9766 9.05273 10.918 9.05273 10.7715L9.0625 5.99609C9.0625 4.93164 8.38867 4.19922 7.41211 4.19922C6.42578 4.19922 5.76172 4.93164 5.76172 5.99609L5.76172 10.7715C5.76172 10.918 5.74219 10.9766 5.63477 11.0645C5.00977 11.6211 4.6875 12.3242 4.6875 13.1152C4.6875 14.6094 5.89844 15.8203 7.41211 15.8203ZM7.41211 15.0293C6.33789 15.0293 5.49805 14.1797 5.49805 13.1152C5.49805 12.4707 5.79102 11.8945 6.32812 11.5332C6.50391 11.4258 6.5625 11.3184 6.5625 11.0938L6.5625 6.02539C6.5625 5.41016 6.89453 5.01953 7.41211 5.01953C7.91016 5.01953 8.24219 5.41016 8.24219 6.02539L8.24219 11.0938C8.24219 11.3184 8.30078 11.4258 8.47656 11.5332C9.02344 11.8945 9.31641 12.4707 9.31641 13.1152C9.31641 14.1797 8.4668 15.0293 7.41211 15.0293ZM7.41211 6.41602C7.61719 6.41602 7.7832 6.25 7.7832 6.03516C7.7832 5.83008 7.61719 5.66406 7.41211 5.66406C7.19727 5.66406 7.03125 5.83008 7.03125 6.03516C7.03125 6.25 7.19727 6.41602 7.41211 6.41602ZM7.41211 7.41211C7.61719 7.41211 7.7832 7.23633 7.7832 7.02148C7.7832 6.82617 7.61719 6.65039 7.41211 6.65039C7.19727 6.65039 7.03125 6.82617 7.03125 7.02148C7.03125 7.23633 7.19727 7.41211 7.41211 7.41211ZM7.41211 8.38867C7.61719 8.38867 7.7832 8.22266 7.7832 8.00781C7.7832 7.80273 7.61719 7.63672 7.41211 7.63672C7.19727 7.63672 7.03125 7.80273 7.03125 8.00781C7.03125 8.22266 7.19727 8.38867 7.41211 8.38867ZM7.41211 9.375C7.61719 9.375 7.7832 9.19922 7.7832 8.98438C7.7832 8.78906 7.61719 8.61328 7.41211 8.61328C7.19727 8.61328 7.03125 8.78906 7.03125 8.98438C7.03125 9.19922 7.19727 9.375 7.41211 9.375ZM7.40234 14.3848C8.11523 14.3848 8.68164 13.8086 8.68164 13.1055C8.68164 12.6172 8.39844 12.207 7.98828 11.9824C7.83203 11.9043 7.7832 11.8359 7.7832 11.6016L7.7832 9.9707C7.7832 9.76562 7.61719 9.58984 7.41211 9.58984C7.19727 9.58984 7.03125 9.76562 7.03125 9.9707L7.03125 11.6016C7.03125 11.8359 6.98242 11.9043 6.80664 11.9824C6.41602 12.207 6.13281 12.6172 6.13281 13.1055C6.13281 13.8184 6.69922 14.3848 7.40234 14.3848ZM12.6465 6.2207C13.2812 6.2207 13.7891 5.70312 13.7891 5.06836C13.7891 4.44336 13.2812 3.93555 12.6465 3.93555C12.0215 3.93555 11.5137 4.44336 11.5137 5.06836C11.5137 5.70312 12.0215 6.2207 12.6465 6.2207ZM13.3301 15.5664C13.6133 15.5664 13.8477 15.3516 13.8477 15.0488L13.8477 8.97461C13.8477 8.87695 13.916 8.78906 14.0137 8.78906C14.0918 8.78906 14.1797 8.87695 14.1797 8.97461L14.1797 10.9766C14.1797 11.2305 14.3945 11.4355 14.6387 11.4355C14.8926 11.4355 15.1074 11.2305 15.1074 10.9766L15.1074 8.7207C15.1074 7.57812 14.2578 6.81641 13.0273 6.81641L12.2754 6.81641C11.0449 6.81641 10.1953 7.57812 10.1953 8.7207L10.1953 10.9766C10.1953 11.2305 10.4102 11.4355 10.6543 11.4355C10.9082 11.4355 11.1133 11.2305 11.1133 10.9766L11.1133 8.97461C11.1133 8.87695 11.2012 8.78906 11.2891 8.78906C11.3867 8.78906 11.4551 8.87695 11.4551 8.97461L11.4551 15.0488C11.4551 15.3516 11.6797 15.5664 11.9629 15.5664C12.2559 15.5664 12.4707 15.3516 12.4707 15.0488L12.4707 11.3574C12.4707 11.2598 12.5488 11.1816 12.6465 11.1816C12.7441 11.1816 12.832 11.2598 12.832 11.3574L12.832 15.0488C12.832 15.3516 13.0469 15.5664 13.3301 15.5664Z" fill="currentColor"/>
 </g>
</svg>
