<?xml version="1.0" encoding="UTF-8"?>
<!--Generator: Apple Native CoreSVG 232.5-->
<!DOCTYPE svg
PUBLIC "-//W3C//DTD SVG 1.1//EN"
       "http://www.w3.org/Graphics/SVG/1.1/DTD/svg11.dtd">
<svg version="1.1" xmlns="http://www.w3.org/2000/svg" xmlns:xlink="http://www.w3.org/1999/xlink" width="20.2832" height="19.9316">
 <g>
  <rect height="19.9316" opacity="0" width="20.2832" x="0" y="0"/>
  <path d="M19.9219 9.9707C19.9219 15.4199 15.4102 19.9316 9.96094 19.9316C4.52148 19.9316 0 15.4199 0 9.9707C0 4.53125 4.51172 0.00976562 9.95117 0.00976562C15.4004 0.00976562 19.9219 4.53125 19.9219 9.9707ZM7.8418 4.12109C6.98242 4.21875 6.41602 4.83398 6.21094 5.6543C6.01562 6.47461 5.83984 7.75391 5.83984 9.04297L5.83984 12.5684C5.83984 13.5645 6.41602 13.9844 7.45117 13.9941L6.37695 15.7129C6.24023 15.918 6.35742 16.1523 6.5918 16.1523L6.85547 16.1523C7.00195 16.1523 7.08008 16.1035 7.14844 15.9863L7.44141 15.5273L12.5 15.5273L12.793 15.9863C12.8613 16.1035 12.9395 16.1523 13.0859 16.1523L13.3594 16.1523C13.584 16.1523 13.6914 15.918 13.5547 15.7129L12.5 13.9941C13.5742 13.9941 14.082 13.5059 14.082 12.5684L14.082 9.04297C14.082 7.75391 13.9062 6.47461 13.7109 5.6543C13.5059 4.83398 12.9395 4.21875 12.0801 4.12109C11.7773 4.08203 10.957 4.01367 9.96094 4.01367C8.96484 4.01367 8.14453 4.08203 7.8418 4.12109ZM12.0508 14.7852L7.89062 14.7852L8.37891 13.9941L11.5625 13.9941ZM12.9102 12.2949C12.9102 12.6758 12.5977 12.9785 12.2266 12.9785C11.8457 12.9785 11.5527 12.6758 11.5527 12.2949C11.5527 11.9043 11.8457 11.6113 12.2266 11.6113C12.6074 11.6113 12.9102 11.9043 12.9102 12.2949ZM8.35938 12.2949C8.35938 12.6855 8.06641 12.9688 7.68555 12.9688C7.30469 12.9688 7.02148 12.6855 7.02148 12.2949C7.02148 11.9043 7.30469 11.6211 7.68555 11.6211C8.07617 11.6211 8.35938 11.9043 8.35938 12.2949ZM12.4805 6.47461C12.7051 6.50391 12.8418 6.65039 12.8906 6.875C12.959 7.22656 13.0762 8.01758 13.0762 9.00391L13.0762 10.1367C13.0762 10.4199 12.959 10.6055 12.666 10.6348C11.875 10.7227 10.8398 10.7617 9.96094 10.7617C8.81836 10.752 7.7832 10.6934 7.25586 10.6348C6.96289 10.6055 6.8457 10.4199 6.8457 10.1367L6.8457 9.00391C6.8457 8.01758 6.96289 7.22656 7.03125 6.875C7.08008 6.65039 7.2168 6.50391 7.42188 6.47461C7.97852 6.41602 8.66211 6.36719 9.96094 6.36719C11.2598 6.35742 11.9434 6.41602 12.4805 6.47461ZM11.5234 5.24414C11.5234 5.41016 11.3867 5.54688 11.2109 5.54688L8.71094 5.54688C8.53516 5.54688 8.4082 5.41016 8.4082 5.24414C8.4082 5.05859 8.53516 4.95117 8.71094 4.95117L11.2109 4.95117C11.3867 4.95117 11.5234 5.05859 11.5234 5.24414Z" fill="#ffffff" fill-opacity="0.85"/>
 </g>
</svg>
