<?xml version="1.0" encoding="UTF-8"?>
<!--Generator: Apple Native CoreSVG 232.5-->
<!DOCTYPE svg
PUBLIC "-//W3C//DTD SVG 1.1//EN"
       "http://www.w3.org/Graphics/SVG/1.1/DTD/svg11.dtd">
<svg version="1.1" xmlns="http://www.w3.org/2000/svg" xmlns:xlink="http://www.w3.org/1999/xlink" width="20.2832" height="19.9316">
 <g>
  <rect height="19.9316" opacity="0" width="20.2832" x="0" y="0"/>
  <path d="M9.96094 19.9316C15.4102 19.9316 19.9219 15.4199 19.9219 9.9707C19.9219 4.53125 15.4004 0.00976562 9.95117 0.00976562C4.51172 0.00976562 0 4.53125 0 9.9707C0 15.4199 4.52148 19.9316 9.96094 19.9316Z" fill="#ffffff" fill-opacity="0.25"/>
  <path d="M7.36328 15.9082C6.67969 15.9082 6.2793 15.5273 6.25977 14.8438L5.9082 6.88477L5.08789 6.88477C4.85352 6.88477 4.6582 6.69922 4.6582 6.46484C4.6582 6.2207 4.85352 6.02539 5.08789 6.02539L7.50977 6.02539L7.50977 5.21484C7.50977 4.38477 8.05664 3.84766 8.93555 3.84766L10.9668 3.84766C11.8555 3.84766 12.4121 4.38477 12.4121 5.21484L12.4121 6.02539L14.8242 6.02539C15.0684 6.02539 15.2637 6.2207 15.2539 6.46484C15.2441 6.69922 15.0684 6.88477 14.8242 6.88477L14.0332 6.88477L13.6914 14.8438C13.6621 15.5273 13.2422 15.9082 12.5684 15.9082ZM8.23242 14.3457C8.44727 14.3457 8.58398 14.1992 8.58398 14.0039L8.38867 8.125C8.38867 7.91016 8.23242 7.77344 8.02734 7.77344C7.7832 7.77344 7.65625 7.91016 7.65625 8.125L7.86133 14.0039C7.86133 14.1992 8.02734 14.3457 8.23242 14.3457ZM9.95117 14.3457C10.1758 14.3457 10.3223 14.1992 10.3223 14.0039L10.3223 8.125C10.3223 7.91016 10.1758 7.77344 9.95117 7.77344C9.7168 7.77344 9.58008 7.91016 9.58008 8.125L9.58008 14.0039C9.58008 14.1992 9.72656 14.3457 9.95117 14.3457ZM11.6602 14.3457C11.8652 14.3457 12.0312 14.1992 12.0312 14.0039L12.2363 8.125C12.2363 7.91016 12.1094 7.77344 11.875 7.77344C11.6602 7.77344 11.5137 7.91016 11.5039 8.125L11.3086 14.0039C11.3086 14.1992 11.4453 14.3457 11.6602 14.3457ZM8.53516 6.02539L11.3672 6.02539L11.3672 5.27344C11.3672 5.00977 11.1816 4.83398 10.9082 4.83398L8.99414 4.83398C8.7207 4.83398 8.53516 5.00977 8.53516 5.27344Z" fill="#ffffff" fill-opacity="0.85"/>
 </g>
</svg>
