<svg version="1.1" xmlns="http://www.w3.org/2000/svg" xmlns:xlink="http://www.w3.org/1999/xlink" width="20.2832" height="19.9316" viewBox="0 0 20.2832 19.9316">
 <g>
  <rect height="19.9316" opacity="0" width="20.2832" x="0" y="0"/>
  <path d="M19.9219 9.9707C19.9219 15.4199 15.4102 19.9316 9.96094 19.9316C4.52148 19.9316 0 15.4199 0 9.9707C0 4.53125 4.51172 0.00976562 9.95117 0.00976562C15.4004 0.00976562 19.9219 4.53125 19.9219 9.9707ZM7.93945 5.41016C7.06055 5.41016 6.70898 5.5957 6.13281 6.39648L4.36523 8.78906C4.15039 9.08203 4.07227 9.27734 4.07227 9.74609L4.07227 12.5098C4.07227 13.5254 4.59961 14.0527 5.64453 14.0527L14.2969 14.0527C15.3516 14.0527 15.8691 13.5254 15.8691 12.5098L15.8691 9.74609C15.8691 9.27734 15.791 9.08203 15.5762 8.78906L13.8086 6.39648C13.2227 5.5957 12.8809 5.41016 12.002 5.41016ZM12.832 6.80664L14.5801 9.17969C14.6484 9.26758 14.6094 9.41406 14.4531 9.41406L11.5625 9.41406C11.2988 9.41406 11.1816 9.61914 11.1816 9.82422L11.1816 9.95117C11.1816 10.6445 10.7031 11.084 9.9707 11.084C9.23828 11.084 8.78906 10.6445 8.78906 9.95117L8.78906 9.82422C8.78906 9.61914 8.64258 9.41406 8.37891 9.41406L5.48828 9.41406C5.33203 9.41406 5.30273 9.28711 5.37109 9.17969L7.10938 6.80664C7.31445 6.52344 7.5293 6.41602 7.88086 6.41602L12.0703 6.41602C12.4219 6.41602 12.6367 6.5332 12.832 6.80664Z" fill="currentColor"/>
 </g>
</svg>
