<?xml version="1.0" encoding="UTF-8"?>
<!--Generator: Apple Native CoreSVG 232.5-->
<!DOCTYPE svg
PUBLIC "-//W3C//DTD SVG 1.1//EN"
       "http://www.w3.org/Graphics/SVG/1.1/DTD/svg11.dtd">
<svg version="1.1" xmlns="http://www.w3.org/2000/svg" xmlns:xlink="http://www.w3.org/1999/xlink" width="23.3887" height="27.666">
 <g>
  <rect height="27.666" opacity="0" width="23.3887" x="0" y="0"/>
  <path d="M19.1992 9.6582L22.4707 13.8574C22.9102 14.4043 23.0273 14.8242 23.0273 15.7129L23.0273 21.1035C23.0273 23.1152 22.0117 24.1309 19.9609 24.1309L3.06641 24.1309C1.02539 24.1309 0 23.1152 0 21.1035L0 15.7129C0 14.8242 0.126953 14.4043 0.556641 13.8574L3.81836 9.6875C5.0293 8.14453 5.47852 7.8418 7.2168 7.8418L9.23828 7.8418L9.23828 9.21875L7.09961 9.21875C6.38672 9.21875 5.91797 9.3457 5.35156 10.0781L2.00195 14.4238C1.64062 14.8828 1.72852 15.1172 2.29492 15.1172L8.30078 15.1172C8.84766 15.1172 9.11133 15.5371 9.11133 15.9668L9.11133 16.0059C9.11133 17.207 10.0488 18.4668 11.5137 18.4668C12.9883 18.4668 13.9258 17.207 13.9258 16.0059L13.9258 15.9668C13.9258 15.5371 14.1797 15.1172 14.7266 15.1172L20.752 15.1172C21.2891 15.1172 21.416 14.9219 21.0352 14.4238L17.6562 10.0488C17.1094 9.33594 16.6406 9.21875 15.9277 9.21875L13.7891 9.21875L13.7891 7.8418L15.8105 7.8418C17.5488 7.8418 18.0176 8.14453 19.1992 9.6582Z" fill="#ffffff" fill-opacity="0.85"/>
  <path d="M11.5137 15.8887C11.9336 15.8887 12.2949 15.5371 12.2949 15.127L12.2949 5.09766L12.2266 3.64258L12.8906 4.32617L14.3652 5.9082C14.502 6.06445 14.707 6.14258 14.9023 6.14258C15.3027 6.14258 15.6055 5.84961 15.6055 5.45898C15.6055 5.24414 15.5273 5.08789 15.3809 4.94141L12.0801 1.75781C11.8848 1.5625 11.7188 1.49414 11.5137 1.49414C11.3184 1.49414 11.1426 1.5625 10.9473 1.75781L7.64648 4.94141C7.5 5.08789 7.42188 5.24414 7.42188 5.45898C7.42188 5.84961 7.71484 6.14258 8.11523 6.14258C8.31055 6.14258 8.51562 6.06445 8.66211 5.9082L10.1367 4.32617L10.8008 3.63281L10.7422 5.09766L10.7422 15.127C10.7422 15.5371 11.0938 15.8887 11.5137 15.8887Z" fill="#ffffff" fill-opacity="0.85"/>
 </g>
</svg>
