<svg version="1.1" xmlns="http://www.w3.org/2000/svg" xmlns:xlink="http://www.w3.org/1999/xlink" width="23.3887" height="27.666" viewBox="0 0 23.3887 27.666">
 <g>
  <rect height="27.666" opacity="0" width="23.3887" x="0" y="0"/>
  <path d="M19.3945 9.6582L22.4707 13.4668C22.9199 13.9941 23.0273 14.4336 23.0273 15.3223L23.0273 21.1035C23.0273 23.1152 22.0117 24.1309 19.9609 24.1309L3.06641 24.1309C1.02539 24.1309 0 23.1152 0 21.1035L0 15.3223C0 14.4336 0.126953 13.9844 0.556641 13.4668L3.62305 9.6875C4.86328 8.17383 5.2832 7.8418 7.02148 7.8418L9.23828 7.8418L9.23828 9.21875L6.9043 9.21875C6.19141 9.21875 5.74219 9.35547 5.15625 10.0781L2.00195 14.0332C1.62109 14.502 1.72852 14.7266 2.29492 14.7266L8.49609 14.7266C9.00391 14.7266 9.24805 15.1172 9.24805 15.5176L9.24805 15.5566C9.24805 16.6895 10.1367 17.8809 11.5137 17.8809C12.9004 17.8809 13.7891 16.6895 13.7891 15.5566L13.7891 15.5176C13.7891 15.1172 14.0234 14.7266 14.5312 14.7266L20.752 14.7266C21.2891 14.7266 21.4355 14.5312 21.0352 14.0332L17.8516 10.0488C17.2852 9.3457 16.8359 9.21875 16.123 9.21875L13.7891 9.21875L13.7891 7.8418L16.0059 7.8418C17.7441 7.8418 18.1836 8.18359 19.3945 9.6582ZM1.57227 16.1621L1.57227 21.0156C1.57227 22.0312 2.10938 22.5586 3.08594 22.5586L19.9414 22.5586C20.9082 22.5586 21.4551 22.0312 21.4551 21.0156L21.4551 16.1621L15.2637 16.1621C15.0293 17.9785 13.4961 19.3359 11.5137 19.3359C9.53125 19.3359 7.99805 17.9883 7.76367 16.1621Z" fill="currentColor"/>
  <path d="M11.5137 15.8887C11.9336 15.8887 12.2949 15.5371 12.2949 15.127L12.2949 5.09766L12.2266 3.64258L12.8906 4.32617L14.3652 5.9082C14.502 6.06445 14.707 6.14258 14.9023 6.14258C15.3027 6.14258 15.6055 5.84961 15.6055 5.45898C15.6055 5.24414 15.5273 5.08789 15.3809 4.94141L12.0801 1.75781C11.8848 1.5625 11.7188 1.49414 11.5137 1.49414C11.3184 1.49414 11.1426 1.5625 10.9473 1.75781L7.64648 4.94141C7.5 5.08789 7.42188 5.24414 7.42188 5.45898C7.42188 5.84961 7.71484 6.14258 8.11523 6.14258C8.31055 6.14258 8.51562 6.06445 8.66211 5.9082L10.1367 4.32617L10.8008 3.63281L10.7422 5.09766L10.7422 15.127C10.7422 15.5371 11.0938 15.8887 11.5137 15.8887Z" fill="currentColor"/>
 </g>
</svg>
