<svg version="1.1" xmlns="http://www.w3.org/2000/svg" xmlns:xlink="http://www.w3.org/1999/xlink" width="20.2832" height="19.9316" viewBox="0 0 20.2832 19.9316">
 <g>
  <rect height="19.9316" opacity="0" width="20.2832" x="0" y="0"/>
  <path d="M19.9219 9.96094C19.9219 15.4004 15.4102 19.9219 9.96094 19.9219C4.52148 19.9219 0 15.4004 0 9.96094C0 4.51172 4.51172 0 9.95117 0C15.4004 0 19.9219 4.51172 19.9219 9.96094ZM9.95117 4.96094C9.56055 4.56055 9.04297 4.375 8.47656 4.375C7.38281 4.375 6.23047 5.10742 6.18164 6.15234C5.15625 6.26953 4.33594 7.26562 4.33594 8.33008C4.33594 8.83789 4.50195 9.32617 4.89258 9.75586C4.4043 10.2734 4.16992 10.8496 4.16992 11.3965C4.16992 12.4609 4.90234 13.2031 5.9375 13.2031C6.26953 13.2031 6.63086 13.125 7.01172 12.9297C7.29492 13.1836 7.97852 13.5352 8.75977 13.5645C8.61328 12.8613 8.11523 11.875 7.82227 11.3379C8.00781 11.3184 8.18359 11.2793 8.32031 11.2207C8.84766 12.1973 9.32617 13.2812 9.32617 13.9844C9.32617 14.6289 9.24805 15.4199 9.24805 15.6934C9.24805 15.8984 9.53125 16.0449 9.95117 16.0449C10.3711 16.0449 10.6543 15.8984 10.6543 15.6934C10.6543 15.4199 10.5762 14.6289 10.5762 13.9844C10.5762 13.3203 11.0156 12.3242 11.5625 11.2207C11.7188 11.2793 11.8848 11.3184 12.0801 11.3379C11.7871 11.875 11.2988 12.8613 11.1426 13.5645C11.9238 13.5352 12.6074 13.1836 12.8906 12.9297C13.2715 13.125 13.6426 13.2031 13.9648 13.2031C15 13.2031 15.7422 12.4609 15.7422 11.3965C15.7422 10.8496 15.498 10.2734 15.0098 9.75586C15.4004 9.32617 15.5664 8.83789 15.5664 8.33008C15.5664 7.26562 14.7461 6.26953 13.7207 6.15234C13.6816 5.10742 12.5293 4.375 11.4258 4.375C10.8691 4.375 10.3418 4.56055 9.95117 4.96094ZM9.57031 10.6348L9.58008 12.168C9.4043 11.7285 9.18945 11.2988 8.87695 10.7715C8.95508 10.6543 9.01367 10.5176 9.0625 10.3906C9.21875 10.498 9.38477 10.5859 9.57031 10.6348ZM11.0156 10.7617C10.7129 11.3379 10.498 11.7383 10.3223 12.1582L10.3027 10.6445C10.5078 10.5957 10.6738 10.5078 10.8398 10.3906C10.8887 10.5176 10.9473 10.6445 11.0156 10.7617Z" fill="var(--color-primary)"/>
 </g>
</svg>
