<?xml version="1.0" encoding="UTF-8"?>
<!--Generator: Apple Native CoreSVG 232.5-->
<!DOCTYPE svg
PUBLIC "-//W3C//DTD SVG 1.1//EN"
       "http://www.w3.org/Graphics/SVG/1.1/DTD/svg11.dtd">
<svg version="1.1" xmlns="http://www.w3.org/2000/svg" xmlns:xlink="http://www.w3.org/1999/xlink" width="37.3926" height="18.0566">
 <g>
  <rect height="18.0566" opacity="0" width="37.3926" x="0" y="0"/>
  <path d="M26.3574 3.99414L26.543 5.5957L34.1406 5.5957C35.957 5.5957 37.0312 6.51367 37.0312 8.17383L37.0312 12.1777C37.0312 13.7695 36.1035 14.7266 34.5508 14.7266L31.1123 14.7266C30.6669 16.0379 29.4411 16.9531 27.959 16.9531C26.4769 16.9531 25.2511 16.0379 24.8057 14.7266L10.497 14.7266C10.0517 16.0379 8.82584 16.9531 7.34375 16.9531C5.86166 16.9531 4.63584 16.0379 4.19048 14.7266L2.49023 14.7266C0.9375 14.7266 0 13.7695 0 12.1777L0 10.0098C0 7.71484 1.33789 6.44531 4.29688 5.99609L6.85829 5.60467L7.94731 7.03375L4.50195 7.55859C2.46094 7.87109 1.57227 8.61328 1.57227 10.0098L1.57227 11.9824C1.57227 12.7246 1.94336 13.1543 2.57812 13.1543L4.03748 13.1543C4.25129 11.504 5.62525 10.2734 7.34375 10.2734C9.06225 10.2734 10.4362 11.504 10.65 13.1543L24.6527 13.1543C24.8665 11.504 26.2405 10.2734 27.959 10.2734C29.6775 10.2734 31.0514 11.504 31.2652 13.1543L34.4629 13.1543C35.0879 13.1543 35.459 12.7246 35.459 11.9824L35.459 8.17383C35.459 7.36328 35.2539 7.16797 34.1406 7.16797L25.1074 7.16797L24.7852 4.20898C24.668 3.18359 24.082 2.65625 23.0371 2.65625L19.1797 2.65625C16.377 2.65625 14.6973 3.08594 12.7734 4.27734L11.3566 5.15967L10.3962 3.90173L11.9336 2.93945C14.1016 1.57227 16.0352 1.08398 19.1797 1.08398L23.125 1.08398C25.0488 1.08398 26.1328 2.06055 26.3574 3.99414ZM5.57617 13.6133C5.57617 14.6094 6.34766 15.3809 7.34375 15.3809C8.33984 15.3809 9.11133 14.6094 9.11133 13.6133C9.11133 12.6172 8.33984 11.8457 7.34375 11.8457C6.34766 11.8457 5.57617 12.6172 5.57617 13.6133ZM26.1914 13.6133C26.1914 14.6094 26.9629 15.3809 27.959 15.3809C28.9551 15.3809 29.7266 14.6094 29.7266 13.6133C29.7266 12.6172 28.9551 11.8457 27.959 11.8457C26.9629 11.8457 26.1914 12.6172 26.1914 13.6133Z" fill="#ffffff" fill-opacity="0.55"/>
  <path d="M2.33398 2.71484L4.73633 2.71484C5.82031 2.71484 6.23047 2.90039 6.77734 3.61328L9.4043 7.08008C10.2441 8.18359 11.1816 8.66211 12.5488 8.66211L14.6875 8.66211L14.6875 9.50195C14.6875 10.1855 15.293 10.3906 15.8008 10.0586L18.2617 8.47656C18.7305 8.17383 18.7402 7.58789 18.252 7.27539L15.8105 5.70312C15.293 5.36133 14.6875 5.56641 14.6875 6.25977L14.6875 7.08984L12.5488 7.08984C11.6309 7.08984 11.2598 6.88477 10.6543 6.10352L8.00781 2.65625C7.1875 1.57227 6.2207 1.14258 4.73633 1.14258L2.33398 1.14258C1.9043 1.14258 1.55273 1.49414 1.55273 1.92383C1.55273 2.35352 1.9043 2.71484 2.33398 2.71484Z" fill="#ffffff" fill-opacity="0.85"/>
 </g>
</svg>
