<svg version="1.1" xmlns="http://www.w3.org/2000/svg" xmlns:xlink="http://www.w3.org/1999/xlink" width="30.0391" height="24.6777" viewBox="0 0 30.0391 24.6777">
 <g>
  <rect height="24.6777" opacity="0" width="30.0391" x="0" y="0"/>
  <path d="M16.8945 21.25C16.8945 21.5548 16.9199 21.8382 16.9693 22.0996L8.26172 22.0996C7.83203 22.0996 7.48047 21.748 7.48047 21.3086C7.48047 20.8691 7.83203 20.5176 8.26172 20.5176L16.8945 20.5176ZM25.3809 5.07812L25.3809 8.39844L23.8086 8.39844L23.8086 5.09766C23.8086 4.50195 23.4473 4.14062 22.8516 4.14062L3.50586 4.14062C2.90039 4.14062 2.53906 4.50195 2.53906 5.09766L2.53906 16.2598C2.53906 16.8555 2.90039 17.2168 3.50586 17.2168L16.8945 17.2168L16.8945 18.7891L3.47656 18.7891C1.92383 18.7891 0.966797 17.832 0.966797 16.2793L0.966797 5.07812C0.966797 3.52539 1.92383 2.56836 3.47656 2.56836L22.8809 2.56836C24.4336 2.56836 25.3809 3.52539 25.3809 5.07812Z" fill="var(--color-secondary)"/>
  <path d="M20.293 23.3398L26.6406 23.3398C28.0078 23.3398 28.7109 22.6465 28.7109 21.25L28.7109 11.8262C28.7109 10.4297 28.0078 9.72656 26.6406 9.72656L20.293 9.72656C18.9062 9.72656 18.2227 10.4297 18.2227 11.8262L18.2227 21.25C18.2227 22.6465 18.9062 23.3398 20.293 23.3398ZM23.4766 14.707C22.5293 14.707 21.7773 13.9551 21.7871 13.0078C21.7969 12.0703 22.5293 11.3379 23.4766 11.3379C24.4141 11.3379 25.1465 12.0703 25.1465 13.0078C25.1465 13.9551 24.4141 14.707 23.4766 14.707ZM23.4668 21.6504C21.8066 21.6504 20.4785 20.3125 20.4785 18.6523C20.4785 16.9824 21.8066 15.6543 23.4668 15.6445C25.1172 15.6348 26.4551 16.9824 26.4551 18.6523C26.4551 20.3125 25.1172 21.6504 23.4668 21.6504ZM23.4668 13.8477C23.9258 13.8477 24.2871 13.4766 24.2871 13.0078C24.2871 12.5391 23.9258 12.1875 23.4668 12.1875C23.0078 12.1875 22.6367 12.5586 22.6367 13.0078C22.6367 13.4766 22.998 13.8477 23.4668 13.8477ZM23.4668 19.9023C24.1602 19.9023 24.7266 19.3457 24.7266 18.6523C24.7266 17.9199 24.1797 17.373 23.4668 17.373C22.7734 17.373 22.207 17.9199 22.207 18.6523C22.207 19.3457 22.7734 19.9023 23.4668 19.9023Z" fill="var(--color-primary)"/>
  <path d="M23.4766 14.707C22.5293 14.707 21.7773 13.9551 21.7871 13.0078C21.7969 12.0703 22.5293 11.3379 23.4766 11.3379C24.4141 11.3379 25.1465 12.0703 25.1465 13.0078C25.1465 13.9551 24.4141 14.707 23.4766 14.707ZM23.4668 21.6504C21.8066 21.6504 20.4785 20.3125 20.4785 18.6523C20.4785 16.9824 21.8066 15.6543 23.4668 15.6445C25.1172 15.6348 26.4551 16.9824 26.4551 18.6523C26.4551 20.3125 25.1172 21.6504 23.4668 21.6504ZM23.4668 13.8477C23.9258 13.8477 24.2871 13.4766 24.2871 13.0078C24.2871 12.5391 23.9258 12.1875 23.4668 12.1875C23.0078 12.1875 22.6367 12.5586 22.6367 13.0078C22.6367 13.4766 22.998 13.8477 23.4668 13.8477ZM23.4668 19.9023C24.1602 19.9023 24.7266 19.3457 24.7266 18.6523C24.7266 17.9199 24.1797 17.373 23.4668 17.373C22.7734 17.373 22.207 17.9199 22.207 18.6523C22.207 19.3457 22.7734 19.9023 23.4668 19.9023Z" fill="var(--color-tertiary)"/>
 </g>
</svg>
