<?xml version="1.0" encoding="UTF-8"?>
<!--Generator: Apple Native CoreSVG 232.5-->
<!DOCTYPE svg
PUBLIC "-//W3C//DTD SVG 1.1//EN"
       "http://www.w3.org/Graphics/SVG/1.1/DTD/svg11.dtd">
<svg version="1.1" xmlns="http://www.w3.org/2000/svg" xmlns:xlink="http://www.w3.org/1999/xlink" width="30.0391" height="24.6777">
 <g>
  <rect height="24.6777" opacity="0" width="30.0391" x="0" y="0"/>
  <path d="M12.5391 21.25C12.5391 21.5548 12.5643 21.8382 12.6134 22.0996L8.26172 22.0996C7.83203 22.0996 7.48047 21.748 7.48047 21.3086C7.48047 20.8691 7.83203 20.5176 8.26172 20.5176L12.5391 20.5176ZM25.3809 5.07812L25.3809 14.3262L23.8086 14.3262L23.8086 5.09766C23.8086 4.50195 23.4473 4.14062 22.8516 4.14062L3.50586 4.14062C2.90039 4.14062 2.53906 4.50195 2.53906 5.09766L2.53906 16.2598C2.53906 16.8555 2.90039 17.2168 3.50586 17.2168L12.5649 17.2168C12.547 17.3687 12.5391 17.5289 12.5391 17.6953L12.5391 18.7891L3.47656 18.7891C1.92383 18.7891 0.966797 17.832 0.966797 16.2793L0.966797 5.07812C0.966797 3.52539 1.92383 2.56836 3.47656 2.56836L22.8809 2.56836C24.4336 2.56836 25.3809 3.52539 25.3809 5.07812Z" fill="#ffffff" fill-opacity="0.55"/>
  <path d="M15.9375 23.3398L26.6406 23.3398C28.0078 23.3398 28.7109 22.6465 28.7109 21.25L28.7109 17.7539C28.7109 16.3477 28.0078 15.6543 26.6406 15.6543L15.9375 15.6543C14.541 15.6543 13.8672 16.3477 13.8672 17.6953L13.8672 21.25C13.8672 22.6465 14.541 23.3398 15.9375 23.3398ZM25.5078 20.0098C24.8828 20.0098 24.375 19.502 24.375 18.877C24.375 18.2617 24.8828 17.7637 25.5078 17.7637C26.1133 17.7637 26.6211 18.2617 26.6211 18.877C26.6211 19.502 26.1133 20.0098 25.5078 20.0098Z" fill="#ffffff" fill-opacity="0.85"/>
 </g>
</svg>
