<svg version="1.1" xmlns="http://www.w3.org/2000/svg" xmlns:xlink="http://www.w3.org/1999/xlink" width="20.2832" height="19.9316" viewBox="0 0 20.2832 19.9316">
 <g>
  <rect height="19.9316" opacity="0" width="20.2832" x="0" y="0"/>
  <path d="M9.96094 19.9219C15.4102 19.9219 19.9219 15.4004 19.9219 9.96094C19.9219 4.51172 15.4004 0 9.95117 0C4.51172 0 0 4.51172 0 9.96094C0 15.4004 4.52148 19.9219 9.96094 19.9219Z" fill="var(--color-tertiary)"/>
  <path d="M5.44922 13.457C4.62891 13.457 4.04297 12.8809 4.04297 12.0605L4.04297 6.875C4.04297 6.04492 4.62891 5.45898 5.44922 5.45898L14.4531 5.45898C15.2734 5.45898 15.8691 6.04492 15.8691 6.875L15.8691 12.0605C15.8691 12.8809 15.2734 13.457 14.4531 13.457ZM5.57617 12.4414L14.3359 12.4414C14.6094 12.4414 14.8047 12.2461 14.8047 11.9629L14.8047 6.96289C14.8047 6.66992 14.6094 6.48438 14.3359 6.48438L5.57617 6.48438C5.30273 6.48438 5.10742 6.66992 5.10742 6.96289L5.10742 11.9629C5.10742 12.2461 5.30273 12.4414 5.57617 12.4414ZM7.35352 15.5078C7.07031 15.5078 6.83594 15.2832 6.83594 15C6.83594 14.7168 7.07031 14.4824 7.35352 14.4824L12.5879 14.4824C12.8711 14.4824 13.1055 14.7168 13.1055 15C13.1055 15.2832 12.8711 15.5078 12.5879 15.5078Z" fill="var(--color-primary)"/>
 </g>
</svg>
