<svg version="1.1" xmlns="http://www.w3.org/2000/svg" xmlns:xlink="http://www.w3.org/1999/xlink" width="24.7754" height="19.541" viewBox="0 0 24.7754 19.541">
 <g>
  <rect height="19.541" opacity="0" width="24.7754" x="0" y="0"/>
  <path d="M2.50977 16.2207L21.9043 16.2207C23.4668 16.2207 24.4141 15.2637 24.4141 13.7109L24.4141 2.50977C24.4141 0.957031 23.4668 0 21.9043 0L2.50977 0C0.957031 0 0 0.957031 0 2.50977L0 13.7109C0 15.2637 0.957031 16.2207 2.50977 16.2207ZM2.53906 14.6484C1.93359 14.6484 1.57227 14.2871 1.57227 13.6914L1.57227 2.5293C1.57227 1.93359 1.93359 1.57227 2.53906 1.57227L21.875 1.57227C22.4805 1.57227 22.8418 1.93359 22.8418 2.5293L22.8418 13.6914C22.8418 14.2871 22.4805 14.6484 21.875 14.6484ZM7.29492 19.5312L17.1191 19.5312C17.5488 19.5312 17.9102 19.1797 17.9102 18.7402C17.9102 18.3008 17.5488 17.9492 17.1191 17.9492L7.29492 17.9492C6.86523 17.9492 6.50391 18.3008 6.50391 18.7402C6.50391 19.1797 6.86523 19.5312 7.29492 19.5312Z" fill="currentColor"/>
  <path d="M3.51562 13.3203L20.918 13.3203C21.3379 13.3203 21.5137 13.125 21.5137 12.6953L21.5137 3.53516C21.5137 3.10547 21.3379 2.91992 20.918 2.91992L3.51562 2.91992C3.0957 2.91992 2.91016 3.10547 2.91016 3.53516L2.91016 12.6953C2.91016 13.125 3.0957 13.3203 3.51562 13.3203Z" fill="currentColor"/>
 </g>
</svg>
