<?xml version="1.0" encoding="UTF-8"?>
<!--Generator: Apple Native CoreSVG 232.5-->
<!DOCTYPE svg
PUBLIC "-//W3C//DTD SVG 1.1//EN"
       "http://www.w3.org/Graphics/SVG/1.1/DTD/svg11.dtd">
<svg version="1.1" xmlns="http://www.w3.org/2000/svg" xmlns:xlink="http://www.w3.org/1999/xlink" width="20.2832" height="19.9316">
 <g>
  <rect height="19.9316" opacity="0" width="20.2832" x="0" y="0"/>
  <path d="M19.9219 9.96094C19.9219 15.4004 15.4102 19.9219 9.96094 19.9219C4.52148 19.9219 0 15.4004 0 9.96094C0 4.51172 4.51172 0 9.95117 0C15.4004 0 19.9219 4.51172 19.9219 9.96094ZM12.2852 6.06445L12.2852 11.0547C12.2852 12.4707 11.3672 13.3496 9.96094 13.3496C8.55469 13.3496 7.62695 12.4707 7.62695 11.0547L7.62695 6.06445C7.62695 5.49805 7.33398 5.15625 6.80664 5.15625C6.30859 5.15625 6.01562 5.49805 6.01562 6.06445L6.01562 11.2109C6.01562 13.3301 7.59766 14.6875 9.96094 14.6875C12.3242 14.6875 13.9062 13.3301 13.9062 11.2109L13.9062 6.06445C13.9062 5.49805 13.6133 5.15625 13.0859 5.15625C12.5879 5.15625 12.2852 5.49805 12.2852 6.06445Z" fill="#ffffff" fill-opacity="0.85"/>
 </g>
</svg>
