<svg version="1.1" xmlns="http://www.w3.org/2000/svg" xmlns:xlink="http://www.w3.org/1999/xlink" width="18.3398" height="17.998" viewBox="0 0 18.3398 17.998">
 <g>
  <rect height="17.998" opacity="0" width="18.3398" x="0" y="0"/>
  <path d="M3.06641 17.998L14.9121 17.998C16.9629 17.998 17.9785 16.9824 17.9785 14.9707L17.9785 3.04688C17.9785 1.03516 16.9629 0.0195312 14.9121 0.0195312L3.06641 0.0195312C1.02539 0.0195312 0 1.02539 0 3.04688L0 14.9707C0 16.9922 1.02539 17.998 3.06641 17.998Z" fill="var(--color-tertiary)"/>
  <path d="M8.99414 13.7207C6.63086 13.7207 5.04883 12.3633 5.04883 10.2441L5.04883 5.09766C5.04883 4.53125 5.3418 4.18945 5.84961 4.18945C6.36719 4.18945 6.66016 4.53125 6.66016 5.09766L6.66016 10.0879C6.66016 11.5039 7.58789 12.3828 8.99414 12.3828C10.4004 12.3828 11.3184 11.5039 11.3184 10.0879L11.3184 5.09766C11.3184 4.53125 11.6211 4.18945 12.1191 4.18945C12.6465 4.18945 12.9395 4.53125 12.9395 5.09766L12.9395 10.2441C12.9395 12.3633 11.3574 13.7207 8.99414 13.7207Z" fill="var(--color-primary)"/>
 </g>
</svg>
