<svg version="1.1" xmlns="http://www.w3.org/2000/svg" xmlns:xlink="http://www.w3.org/1999/xlink" width="18.3398" height="17.998" viewBox="0 0 18.3398 17.998">
 <g>
  <rect height="17.998" opacity="0" width="18.3398" x="0" y="0"/>
  <path d="M3.06641 17.998L14.9121 17.998C16.9629 17.998 17.9785 16.9824 17.9785 14.9707L17.9785 3.04688C17.9785 1.03516 16.9629 0.0195312 14.9121 0.0195312L3.06641 0.0195312C1.02539 0.0195312 0 1.02539 0 3.04688L0 14.9707C0 16.9922 1.02539 17.998 3.06641 17.998ZM3.08594 16.4258C2.10938 16.4258 1.57227 15.9082 1.57227 14.8926L1.57227 3.125C1.57227 2.10938 2.10938 1.5918 3.08594 1.5918L14.8926 1.5918C15.8594 1.5918 16.4062 2.10938 16.4062 3.125L16.4062 14.8926C16.4062 15.9082 15.8594 16.4258 14.8926 16.4258Z" fill="var(--color-primary)"/>
  <path d="M9.00391 13.5645C9.56055 13.5645 9.91211 13.2715 10.1562 12.6367L12.8906 5.49805C12.9395 5.3418 12.959 5.23438 12.959 5.08789C12.959 4.64844 12.627 4.3457 12.1777 4.3457C11.748 4.3457 11.5039 4.55078 11.3477 5.00977L9.02344 11.6992L8.95508 11.6992L6.64062 5.00977C6.48438 4.55078 6.24023 4.3457 5.81055 4.3457C5.36133 4.3457 5.01953 4.6582 5.01953 5.08789C5.01953 5.23438 5.04883 5.3418 5.09766 5.49805L7.8418 12.6465C8.0957 13.3105 8.4082 13.5645 9.00391 13.5645Z" fill="var(--color-primary)"/>
 </g>
</svg>
