<svg version="1.1" xmlns="http://www.w3.org/2000/svg" xmlns:xlink="http://www.w3.org/1999/xlink" width="18.3398" height="17.998" viewBox="0 0 18.3398 17.998">
 <g>
  <rect height="17.998" opacity="0" width="18.3398" x="0" y="0"/>
  <path d="M17.9785 3.04688L17.9785 14.9707C17.9785 16.9824 16.9629 17.998 14.9121 17.998L3.06641 17.998C1.02539 17.998 0 16.9922 0 14.9707L0 3.04688C0 1.02539 1.02539 0.0195312 3.06641 0.0195312L14.9121 0.0195312C16.9629 0.0195312 17.9785 1.03516 17.9785 3.04688ZM4.79492 4.94141C3.83789 4.94141 3.19336 5.51758 3.19336 6.52344L3.19336 11.4746C3.19336 12.4707 3.79883 13.0566 4.79492 13.0566L10.1172 13.0566C11.123 13.0566 11.7188 12.4707 11.7188 11.4746L11.7188 6.52344C11.7188 5.51758 11.1816 4.94141 10.166 4.94141ZM14.248 5.9375L12.2852 7.62695L12.2852 10.3711L14.248 12.0508C14.4238 12.207 14.6289 12.2949 14.8047 12.2949C15.1855 12.2949 15.4492 12.0117 15.4492 11.5918L15.4492 6.39648C15.4492 5.98633 15.1855 5.71289 14.8047 5.71289C14.6289 5.71289 14.4043 5.80078 14.248 5.9375Z" fill="currentColor"/>
 </g>
</svg>
