<svg version="1.1" xmlns="http://www.w3.org/2000/svg" xmlns:xlink="http://www.w3.org/1999/xlink" width="21.8848" height="21.4551" viewBox="0 0 21.8848 21.4551">
 <g>
  <rect height="21.4551" opacity="0" width="21.8848" x="0" y="0"/>
  <path d="M6.00586 21.4551C6.48438 21.4551 6.81641 21.2012 7.41211 20.6738L10.7812 17.6758L17.0508 17.6758C19.9609 17.6758 21.5234 16.0645 21.5234 13.2031L21.5234 5.72266C21.5234 2.86133 19.9609 1.25 17.0508 1.25L4.47266 1.25C1.5625 1.25 0 2.85156 0 5.72266L0 13.2031C0 16.0742 1.5625 17.6758 4.47266 17.6758L4.94141 17.6758L4.94141 20.2148C4.94141 20.9668 5.32227 21.4551 6.00586 21.4551ZM6.40625 19.668L6.40625 16.8359C6.40625 16.3086 6.20117 16.1035 5.67383 16.1035L4.47266 16.1035C2.5 16.1035 1.57227 15.0977 1.57227 13.1934L1.57227 5.72266C1.57227 3.81836 2.5 2.82227 4.47266 2.82227L17.0508 2.82227C19.0137 2.82227 19.9512 3.81836 19.9512 5.72266L19.9512 13.1934C19.9512 15.0977 19.0137 16.1035 17.0508 16.1035L10.7227 16.1035C10.1758 16.1035 9.90234 16.1816 9.53125 16.5625Z" fill="var(--color-primary)"/>
  <path d="M6.67969 13.4082L11.8457 13.4082C12.8223 13.4082 13.3984 12.8418 13.3984 11.875L13.3984 7.07031C13.3984 6.10352 12.8711 5.54688 11.8945 5.54688L6.67969 5.54688C5.75195 5.54688 5.12695 6.10352 5.12695 7.07031L5.12695 11.875C5.12695 12.8418 5.71289 13.4082 6.67969 13.4082ZM13.9453 10.8105L15.8496 12.4219C16.0254 12.5684 16.2109 12.666 16.3867 12.666C16.7578 12.666 17.0117 12.3926 17.0117 11.9922L17.0117 6.95312C17.0117 6.55273 16.7578 6.2793 16.3867 6.2793C16.2109 6.2793 16.0156 6.37695 15.8496 6.51367L13.9453 8.14453Z" fill="var(--color-primary)"/>
 </g>
</svg>
