<?xml version="1.0" encoding="UTF-8"?>
<!--Generator: Apple Native CoreSVG 232.5-->
<!DOCTYPE svg
PUBLIC "-//W3C//DTD SVG 1.1//EN"
       "http://www.w3.org/Graphics/SVG/1.1/DTD/svg11.dtd">
<svg version="1.1" xmlns="http://www.w3.org/2000/svg" xmlns:xlink="http://www.w3.org/1999/xlink" width="28.0469" height="23.3741">
 <g>
  <rect height="23.3741" opacity="0" width="28.0469" x="0" y="0"/>
  <path d="M5.6104 6.14309C3.0348 6.9259 1.57227 8.50515 1.57227 11.6333C1.57227 15.3443 3.4375 17.6294 6.31836 17.6294C9.73633 17.6294 11.0254 14.4849 13.8477 14.4849C13.8833 14.4849 13.9186 14.4854 13.951 14.492L17.3901 17.9345C15.9807 17.0614 14.9017 16.0572 13.8477 16.0572C11.9727 16.0572 10.0293 19.2017 6.31836 19.2017C2.71484 19.2017 0 15.9302 0 11.6333C0 7.95541 1.69673 5.98491 4.41959 4.95109ZM27.6855 11.6333C27.6855 14.994 26.0248 17.7275 23.5733 18.7509L22.354 17.5309C24.6672 17.0629 26.1133 14.9008 26.1133 11.6333C26.1133 5.9595 21.3184 5.38332 13.8477 5.38332C12.5779 5.38332 11.3856 5.40021 10.2881 5.45906L8.84006 4.01026C10.3887 3.85335 12.0795 3.81106 13.8477 3.81106C21.4844 3.81106 27.6855 4.59231 27.6855 11.6333Z" fill="#ffffff" fill-opacity="0.85"/>
  <path d="M23.0762 22.0044C23.3691 22.3072 23.8574 22.3072 24.1406 22.0044C24.4336 21.7114 24.4434 21.2427 24.1504 20.94L4.59961 1.37942C4.30664 1.08645 3.82812 1.08645 3.52539 1.37942C3.24219 1.67239 3.24219 2.16067 3.52539 2.44387Z" fill="#ffffff" fill-opacity="0.85"/>
 </g>
</svg>
