<?xml version="1.0" encoding="UTF-8"?>
<!--Generator: Apple Native CoreSVG 232.5-->
<!DOCTYPE svg
PUBLIC "-//W3C//DTD SVG 1.1//EN"
       "http://www.w3.org/Graphics/SVG/1.1/DTD/svg11.dtd">
<svg version="1.1" xmlns="http://www.w3.org/2000/svg" xmlns:xlink="http://www.w3.org/1999/xlink" width="20.2832" height="19.9316">
 <g>
  <rect height="19.9316" opacity="0" width="20.2832" x="0" y="0"/>
  <path d="M9.96094 19.9219C15.4102 19.9219 19.9219 15.4004 19.9219 9.96094C19.9219 4.51172 15.4004 0 9.95117 0C4.51172 0 0 4.51172 0 9.96094C0 15.4004 4.52148 19.9219 9.96094 19.9219Z" fill="#ffffff" fill-opacity="0.25"/>
  <path d="M9.96094 12.0312C9.0625 12.0312 8.13477 13.5352 6.35742 13.5352C4.63867 13.5352 3.33984 11.9629 3.33984 9.90234C3.33984 6.54297 6.30859 6.16211 9.96094 6.16211C13.623 6.16211 16.582 6.54297 16.582 9.90234C16.582 11.9629 15.2832 13.5352 13.5645 13.5352C11.7871 13.5352 10.8691 12.0312 9.96094 12.0312Z" fill="#ffffff" fill-opacity="0.85"/>
 </g>
</svg>
