<svg version="1.1" xmlns="http://www.w3.org/2000/svg" xmlns:xlink="http://www.w3.org/1999/xlink" width="20.2832" height="19.9316" viewBox="0 0 20.2832 19.9316">
 <g>
  <rect height="19.9316" opacity="0" width="20.2832" x="0" y="0"/>
  <path d="M19.9219 9.96094C19.9219 15.4004 15.4102 19.9219 9.96094 19.9219C4.52148 19.9219 0 15.4004 0 9.96094C0 4.51172 4.51172 0 9.95117 0C15.4004 0 19.9219 4.51172 19.9219 9.96094ZM3.33984 9.90234C3.33984 11.9629 4.63867 13.5352 6.35742 13.5352C8.13477 13.5352 9.0625 12.0312 9.96094 12.0312C10.8691 12.0312 11.7871 13.5352 13.5645 13.5352C15.2832 13.5352 16.582 11.9629 16.582 9.90234C16.582 6.54297 13.623 6.16211 9.96094 6.16211C6.30859 6.16211 3.33984 6.54297 3.33984 9.90234Z" fill="currentColor"/>
 </g>
</svg>
