<svg version="1.1" xmlns="http://www.w3.org/2000/svg" xmlns:xlink="http://www.w3.org/1999/xlink" width="20.2832" height="19.9316" viewBox="0 0 20.2832 19.9316">
 <g>
  <rect height="19.9316" opacity="0" width="20.2832" x="0" y="0"/>
  <path d="M13.9648 18.7207L14.1992 17.4707C12.002 17.4414 10.5566 13.7988 10.1465 10.7812C13.9648 7.32422 16.6602 2.96875 14.6387 1.26953L13.8086 2.22656C14.9414 3.16406 12.8809 6.58203 9.31641 9.82422C5.78125 8.35938 2.2168 7.80273 0.429688 9.86328L1.34766 10.5664C2.62695 9.20898 5.50781 9.61914 8.88672 11.0352C9.3457 14.2188 11.0352 18.5449 13.9648 18.7207ZM11.5527 15.6152C18.0469 11.6797 18.9844 6.5918 18.4766 4.93164L17.2559 5.29297C17.627 6.5332 16.8262 11.0352 10.7324 14.6387ZM8.92578 19.6289L9.88281 18.6133C8.29102 18.1738 4.79492 14.9023 4.7168 9.29688L3.4375 9.4043C3.52539 14.9609 6.85547 18.623 8.92578 19.6289ZM12.5195 6.76758L13.0762 5.625C10.3223 3.82812 5.49805 2.32422 1.73828 4.84375L1.82617 6.18164C5.17578 3.60352 9.77539 4.99023 12.5195 6.76758ZM9.96094 0C4.52148 0 0 4.51172 0 9.96094C0 15.4004 4.53125 19.9219 9.9707 19.9219C15.4199 19.9219 19.9219 15.4004 19.9219 9.96094C19.9219 4.51172 15.4102 0 9.96094 0ZM9.96094 1.32812C14.6777 1.32812 18.5938 5.24414 18.5938 9.96094C18.5938 14.6777 14.6875 18.5938 9.9707 18.5938C5.25391 18.5938 1.32812 14.6777 1.32812 9.96094C1.32812 5.24414 5.24414 1.32812 9.96094 1.32812Z" fill="var(--color-primary)"/>
 </g>
</svg>
