<svg version="1.1" xmlns="http://www.w3.org/2000/svg" xmlns:xlink="http://www.w3.org/1999/xlink" width="20.2832" height="19.9316" viewBox="0 0 20.2832 19.9316">
 <g>
  <rect height="19.9316" opacity="0" width="20.2832" x="0" y="0"/>
  <path d="M9.96094 19.9219C15.4102 19.9219 19.9219 15.4004 19.9219 9.96094C19.9219 4.51172 15.4004 0 9.95117 0C4.51172 0 0 4.51172 0 9.96094C0 15.4004 4.52148 19.9219 9.96094 19.9219ZM9.96094 18.2617C5.35156 18.2617 1.66992 14.5703 1.66992 9.96094C1.66992 5.35156 5.3418 1.66016 9.95117 1.66016C14.5605 1.66016 18.2617 5.35156 18.2617 9.96094C18.2617 14.5703 14.5703 18.2617 9.96094 18.2617Z" fill="var(--color-secondary)"/>
  <path d="M3.93555 9.96094C3.93555 13.252 6.66992 15.9863 9.95117 15.9863C13.252 15.9863 15.9863 13.252 15.9863 9.96094C15.9863 6.66016 13.2617 3.93555 9.96094 3.93555C6.66992 3.93555 3.93555 6.66016 3.93555 9.96094ZM5.3418 9.96094C5.3418 9.41406 5.43945 8.87695 5.61523 8.38867L14.3164 8.38867C14.4922 8.87695 14.5898 9.41406 14.5898 9.96094C14.5801 12.5391 12.5195 14.5898 9.95117 14.5898C7.38281 14.5898 5.3418 12.5391 5.3418 9.96094ZM6.33789 7.09961C7.16797 6.02539 8.47656 5.33203 9.96094 5.33203C11.4453 5.33203 12.7539 6.02539 13.6035 7.09961Z" fill="var(--color-primary)"/>
 </g>
</svg>
