<svg version="1.1" xmlns="http://www.w3.org/2000/svg" xmlns:xlink="http://www.w3.org/1999/xlink" width="21.1719" height="20.8887" viewBox="0 0 21.1719 20.8887">
 <g>
  <rect height="20.8887" opacity="0" width="21.1719" x="0" y="0"/>
  <path d="M18.3008 19.8926C18.7109 20.3125 19.4141 20.3125 19.8047 19.8926C20.2148 19.4629 20.2051 18.7988 19.8047 18.3887L10.5273 9.07227C10.1172 8.66211 9.4043 8.66211 9.01367 9.07227C8.61328 9.50195 8.62305 10.1758 9.01367 10.5859ZM12.627 13.1836L9.75586 10.3125C9.58008 10.1367 9.53125 9.94141 9.69727 9.77539C9.84375 9.61914 10.0586 9.6582 10.2344 9.84375L13.1055 12.7148Z" fill="var(--color-primary)"/>
  <path d="M19.9512 11.25C20.4199 11.25 20.8105 10.8594 20.8105 10.4004C20.8105 9.94141 20.4199 9.55078 19.9512 9.55078L16.9434 9.55078C16.4844 9.55078 16.0938 9.94141 16.0938 10.4004C16.0938 10.8594 16.4844 11.25 16.9434 11.25Z" fill="var(--color-primary)"/>
  <path d="M14.4043 5.20508C14.0723 5.52734 14.0723 6.07422 14.4043 6.40625C14.7266 6.72852 15.2832 6.72852 15.6152 6.40625L17.7344 4.27734C18.0664 3.94531 18.0664 3.39844 17.7344 3.06641C17.4121 2.74414 16.8652 2.74414 16.543 3.06641Z" fill="var(--color-primary)"/>
  <path d="M11.2598 0.849609C11.2598 0.390625 10.8691 0 10.4004 0C9.94141 0 9.55078 0.390625 9.55078 0.849609L9.55078 3.85742C9.55078 4.32617 9.94141 4.7168 10.4004 4.7168C10.8691 4.7168 11.2598 4.32617 11.2598 3.85742Z" fill="var(--color-primary)"/>
  <path d="M5.19531 6.40625C5.51758 6.72852 6.06445 6.72852 6.39648 6.40625C6.71875 6.07422 6.71875 5.52734 6.39648 5.20508L4.27734 3.07617C3.95508 2.75391 3.4082 2.74414 3.07617 3.06641C2.75391 3.38867 2.75391 3.93555 3.07617 4.26758Z" fill="var(--color-primary)"/>
  <path d="M0.849609 9.55078C0.390625 9.55078 0 9.94141 0 10.4004C0 10.8594 0.390625 11.25 0.849609 11.25L3.87695 11.25C4.33594 11.25 4.72656 10.8594 4.72656 10.4004C4.72656 9.94141 4.33594 9.55078 3.87695 9.55078Z" fill="var(--color-primary)"/>
  <path d="M3.06641 16.5234C2.74414 16.8457 2.74414 17.4023 3.05664 17.7246C3.37891 18.0469 3.93555 18.0566 4.26758 17.7344L6.39648 15.6055C6.71875 15.2832 6.71875 14.7363 6.39648 14.4141C6.08398 14.082 5.51758 14.082 5.19531 14.4141Z" fill="var(--color-primary)"/>
  <path d="M11.2598 16.9531C11.2598 16.4844 10.8691 16.0938 10.4004 16.0938C9.94141 16.0938 9.55078 16.4844 9.55078 16.9531L9.55078 19.9609C9.55078 20.4199 9.94141 20.8105 10.4004 20.8105C10.8691 20.8105 11.2598 20.4199 11.2598 19.9609Z" fill="var(--color-primary)"/>
 </g>
</svg>
