<svg version="1.1" xmlns="http://www.w3.org/2000/svg" xmlns:xlink="http://www.w3.org/1999/xlink" width="31.5137" height="20.6543" viewBox="0 0 31.5137 20.6543">
 <g>
  <rect height="20.6543" opacity="0" width="31.5137" x="0" y="0"/>
  <path d="M20 3.07617L20 13.8931C19.3849 14.2629 18.8558 14.705 18.4277 15.1897L18.4277 3.07617C18.4277 2.64648 18.7598 2.28516 19.209 2.28516C19.6484 2.28516 20 2.64648 20 3.07617Z" fill="var(--color-primary)"/>
  <path d="M16.709 6.03516L16.709 14.6191C16.709 15.0586 16.3672 15.4004 15.9277 15.4004C15.4688 15.4004 15.1367 15.0586 15.1367 14.6191L15.1367 6.03516C15.1367 5.5957 15.4688 5.24414 15.9277 5.24414C16.3672 5.24414 16.709 5.5957 16.709 6.03516Z" fill="var(--color-primary)"/>
  <path d="M13.4277 0.917969L13.4277 19.7363C13.4277 20.1758 13.0859 20.5273 12.627 20.5273C12.1875 20.5273 11.8555 20.1758 11.8555 19.7363L11.8555 0.917969C11.8555 0.478516 12.1875 0.126953 12.627 0.126953C13.0859 0.126953 13.4277 0.478516 13.4277 0.917969Z" fill="var(--color-primary)"/>
  <path d="M10.1465 4.85352L10.1465 15.8008C10.1465 16.2402 9.79492 16.5918 9.3457 16.5918C8.90625 16.5918 8.57422 16.2402 8.57422 15.8008L8.57422 4.85352C8.57422 4.41406 8.90625 4.05273 9.3457 4.05273C9.79492 4.05273 10.1465 4.41406 10.1465 4.85352Z" fill="var(--color-primary)"/>
  <path d="M6.85547 8.84766L6.85547 11.8066C6.85547 12.2461 6.51367 12.5977 6.06445 12.5977C5.61523 12.5977 5.2832 12.2461 5.2832 11.8066L5.2832 8.84766C5.2832 8.4082 5.61523 8.04688 6.06445 8.04688C6.51367 8.04688 6.85547 8.4082 6.85547 8.84766Z" fill="var(--color-primary)"/>
  <path d="M19.5703 19.3164L28.9941 19.3164C29.7363 19.3164 30.1855 18.9746 30.1855 18.3887C30.1855 16.5723 27.9297 14.0723 24.2871 14.0723C20.6348 14.0723 18.3789 16.5723 18.3789 18.3887C18.3789 18.9746 18.8281 19.3164 19.5703 19.3164ZM24.2871 12.8223C25.791 12.8223 27.0898 11.4746 27.0898 9.7168C27.0898 7.98828 25.7812 6.70898 24.2871 6.70898C22.793 6.70898 21.4746 8.00781 21.4746 9.73633C21.4746 11.4746 22.7832 12.8223 24.2871 12.8223Z" fill="var(--color-primary)"/>
 </g>
</svg>
