<svg version="1.1" xmlns="http://www.w3.org/2000/svg" xmlns:xlink="http://www.w3.org/1999/xlink" width="20.2832" height="19.9316" viewBox="0 0 20.2832 19.9316">
 <g>
  <rect height="19.9316" opacity="0" width="20.2832" x="0" y="0"/>
  <path d="M9.96094 19.9219C15.4102 19.9219 19.9219 15.4004 19.9219 9.96094C19.9219 4.51172 15.4004 0 9.95117 0C4.51172 0 0 4.51172 0 9.96094C0 15.4004 4.52148 19.9219 9.96094 19.9219ZM9.96094 18.2617C5.35156 18.2617 1.66992 14.5703 1.66992 9.96094C1.66992 5.35156 5.3418 1.66016 9.95117 1.66016C14.5605 1.66016 18.2617 5.35156 18.2617 9.96094C18.2617 14.5703 14.5703 18.2617 9.96094 18.2617Z" fill="var(--color-primary)"/>
  <path d="M14.9121 11.7871C15.2441 11.7871 15.4883 11.543 15.4883 11.2012L15.4883 8.70117C15.4883 8.35938 15.2441 8.11523 14.9121 8.11523C14.5703 8.11523 14.3164 8.36914 14.3164 8.70117L14.3164 11.2012C14.3164 11.5332 14.5703 11.7871 14.9121 11.7871Z" fill="var(--color-primary)"/>
  <path d="M12.9199 13.9941C13.252 13.9941 13.5059 13.7402 13.5059 13.4082L13.5059 6.49414C13.5059 6.16211 13.252 5.9082 12.9199 5.9082C12.5879 5.9082 12.334 6.16211 12.334 6.49414L12.334 13.4082C12.334 13.7402 12.5879 13.9941 12.9199 13.9941Z" fill="var(--color-primary)"/>
  <path d="M10.9375 12.168C11.2695 12.168 11.5234 11.9141 11.5234 11.5918L11.5234 8.31055C11.5234 7.98828 11.2695 7.72461 10.9375 7.72461C10.6152 7.72461 10.3516 7.98828 10.3516 8.31055L10.3516 11.5918C10.3516 11.9141 10.6152 12.168 10.9375 12.168Z" fill="var(--color-primary)"/>
  <path d="M8.96484 15.3613C9.28711 15.3613 9.54102 15.1074 9.54102 14.7656L9.54102 5.13672C9.54102 4.80469 9.28711 4.55078 8.96484 4.55078C8.63281 4.55078 8.36914 4.80469 8.36914 5.13672L8.36914 14.7656C8.36914 15.1172 8.62305 15.3613 8.96484 15.3613Z" fill="var(--color-primary)"/>
  <path d="M6.98242 13.0664C7.31445 13.0664 7.56836 12.8027 7.56836 12.4707L7.56836 7.42188C7.56836 7.08984 7.31445 6.83594 6.98242 6.83594C6.65039 6.83594 6.39648 7.08984 6.39648 7.42188L6.39648 12.4707C6.39648 12.8027 6.65039 13.0664 6.98242 13.0664Z" fill="var(--color-primary)"/>
  <path d="M4.99023 11.3965C5.33203 11.3965 5.58594 11.1328 5.58594 10.8105L5.58594 9.0918C5.58594 8.76953 5.33203 8.50586 4.99023 8.50586C4.66797 8.50586 4.41406 8.76953 4.41406 9.0918L4.41406 10.8105C4.41406 11.1328 4.67773 11.3965 4.99023 11.3965Z" fill="var(--color-primary)"/>
 </g>
</svg>
