<?xml version="1.0" encoding="UTF-8"?>
<!--Generator: Apple Native CoreSVG 232.5-->
<!DOCTYPE svg
PUBLIC "-//W3C//DTD SVG 1.1//EN"
       "http://www.w3.org/Graphics/SVG/1.1/DTD/svg11.dtd">
<svg version="1.1" xmlns="http://www.w3.org/2000/svg" xmlns:xlink="http://www.w3.org/1999/xlink" width="34.2735" height="20.166">
 <g>
  <rect height="20.166" opacity="0" width="34.2735" x="0" y="0"/>
  <path d="M33.167 15.4004C33.167 16.0645 32.5811 16.6309 31.8878 16.6309C31.1846 16.6309 30.6085 16.0645 30.6085 15.4004C30.6085 14.7266 31.1749 14.1699 31.8878 14.1699C32.5909 14.1699 33.167 14.7266 33.167 15.4004ZM32.9229 4.55078L32.7178 11.4648C32.6983 11.9629 32.3663 12.2949 31.8878 12.2949C31.4092 12.2949 31.0674 11.9629 31.0479 11.4648L30.8428 4.55078C30.8233 3.92578 31.2432 3.50586 31.8878 3.50586C32.5323 3.50586 32.9424 3.92578 32.9229 4.55078Z" fill="#ffffff" fill-opacity="0.85"/>
  <path d="M27.6104 4.77539C28.4405 5.41992 28.5479 6.30859 27.8838 7.14844L21.2432 15.625C20.9503 16.0059 20.4522 16.0938 20.003 15.8594C18.3331 14.9805 16.087 14.4043 14.1631 14.4043C13.7998 14.4043 13.4245 14.4249 13.0417 14.4703L12.1893 13.0036C12.8719 12.89 13.5344 12.832 14.1631 12.832C15.9405 12.832 18.001 13.3008 19.9932 14.1113C20.2374 14.209 20.3545 14.1895 20.5401 13.9453L26.3213 6.5918C26.5069 6.33789 26.4776 6.11328 26.2139 5.92773C22.8545 3.80859 18.5577 2.60742 14.1631 2.60742C11.6239 2.60742 9.12043 3.00667 6.81814 3.76249L5.94167 2.25451C8.37753 1.49885 11.2315 1.03516 14.1631 1.03516C19.6514 1.03516 24.876 2.66602 27.6104 4.77539ZM5.30876 4.30917C4.16765 4.75659 3.09428 5.30217 2.10259 5.92773C1.83892 6.11328 1.80963 6.33789 1.99517 6.5918L7.77642 13.9453C7.96197 14.1895 8.07916 14.209 8.3233 14.1113C9.06692 13.8088 9.82007 13.5538 10.5649 13.3534L11.3769 14.7505C10.2809 15.001 9.21235 15.3863 8.31353 15.8594C7.86431 16.0938 7.36627 16.0059 7.0733 15.625L0.432673 7.14844C-0.23139 6.30859-0.123968 5.41992 0.70611 4.77539C1.66717 4.034 2.93585 3.35173 4.42065 2.78101Z" fill="#ffffff" fill-opacity="0.85"/>
  <path d="M14.1631 20.166C15.3545 20.166 16.3604 19.1699 16.3604 17.9688C16.3604 16.748 15.3643 15.7617 14.1631 15.7617C12.9522 15.7617 11.9561 16.748 11.9561 17.9688C11.9561 19.1797 12.9424 20.166 14.1631 20.166ZM14.1631 18.8672C13.6553 18.8672 13.2549 18.457 13.2549 17.9688C13.2549 17.4609 13.6553 17.041 14.1631 17.041C14.6514 17.041 15.0713 17.4609 15.0713 17.9688C15.0713 18.457 14.6514 18.8672 14.1631 18.8672ZM12.7081 17.041L14.1045 16.2988L4.91509 0.488281C4.70025 0.126953 4.25103-0.0195312 3.82134 0.205078C3.42095 0.400391 3.3233 0.908203 3.54791 1.2793Z" fill="#ffffff" fill-opacity="0.85"/>
 </g>
</svg>
