<?xml version="1.0" encoding="UTF-8"?>
<!--Generator: Apple Native CoreSVG 232.5-->
<!DOCTYPE svg
PUBLIC "-//W3C//DTD SVG 1.1//EN"
       "http://www.w3.org/Graphics/SVG/1.1/DTD/svg11.dtd">
<svg version="1.1" xmlns="http://www.w3.org/2000/svg" xmlns:xlink="http://www.w3.org/1999/xlink" width="28.6876" height="19.5261">
 <g>
  <rect height="19.5261" opacity="0" width="28.6876" x="0" y="0"/>
  <path d="M27.6104 8.31288C28.4405 8.95741 28.5479 9.84608 27.8936 10.6859L21.2432 19.1625C20.9503 19.5433 20.4522 19.6312 20.003 19.3969C18.3331 18.518 16.087 17.9418 14.1631 17.9418C12.2393 17.9418 9.98345 18.518 8.31353 19.3969C7.86431 19.6312 7.3858 19.5433 7.08306 19.1625L0.432673 10.6859C-0.23139 9.84608-0.123968 8.95741 0.70611 8.31288C3.63413 6.03368 7.93671 4.92357 12.044 4.64772L12.044 6.25295C8.46636 6.51365 5.19213 7.50521 2.10259 9.47499C1.83892 9.65077 1.80963 9.87538 1.99517 10.1293L7.77642 17.4828C7.96197 17.7269 8.07916 17.7465 8.3233 17.6488C10.3155 16.8383 12.376 16.3695 14.1631 16.3695C15.9405 16.3695 18.0108 16.8383 20.003 17.6488C20.2471 17.7465 20.3545 17.7269 20.5499 17.4828L26.3213 10.1293C26.5167 9.87538 26.4874 9.65077 26.2237 9.47499C23.438 7.68361 19.9955 6.56294 16.2823 6.26311L16.2823 4.64686C20.4232 4.92249 24.7027 6.03839 27.6104 8.31288Z" fill="#ffffff" fill-opacity="0.85"/>
  <path d="M14.1631 13.9965C14.5928 13.9965 14.9444 13.6351 14.9444 13.2055L14.9444 10.7152C14.9444 10.2855 14.5928 9.92421 14.1631 9.92421C13.7335 9.92421 13.3721 10.2855 13.3721 10.7152L13.3721 13.2055C13.3721 13.6351 13.7335 13.9965 14.1631 13.9965ZM14.1631 8.61561C14.5928 8.61561 14.9444 8.26405 14.9444 7.83436L14.9444 5.33436C14.9444 4.90468 14.5928 4.55311 14.1631 4.55311C13.7335 4.55311 13.3721 4.90468 13.3721 5.33436L13.3721 7.83436C13.3721 8.26405 13.7335 8.61561 14.1631 8.61561ZM3.46002 3.18593C3.83111 3.40077 4.25103 3.29335 4.53424 2.95155C5.07134 2.31679 5.74517 1.83827 6.51666 1.56483C6.93658 1.40858 7.20025 1.04725 7.11236 0.607801C7.00494 0.11952 6.52642-0.105089 5.95025 0.0902233C4.95416 0.43202 4.00689 1.10585 3.28424 1.99452C2.93267 2.42421 3.05963 2.94179 3.46002 3.18593ZM13.0499 3.1664C13.4503 2.92225 13.5479 2.41444 13.2061 1.98475C12.4835 1.09608 11.5264 0.43202 10.5499 0.0999889C9.93463-0.114855 9.47564 0.158583 9.38775 0.627333C9.31939 1.05702 9.56353 1.40858 9.98345 1.56483C10.7452 1.83827 11.419 2.31679 11.9463 2.94179C12.2588 3.31288 12.669 3.38124 13.0499 3.1664ZM15.2667 3.1664C15.6573 3.38124 16.0577 3.31288 16.3799 2.94179C16.8975 2.31679 17.5713 1.83827 18.3331 1.56483C18.7628 1.40858 19.0069 1.05702 18.9288 0.627333C18.8506 0.158583 18.3917-0.114855 17.7764 0.0999889C16.7901 0.43202 15.8331 1.09608 15.1104 1.98475C14.7686 2.41444 14.8663 2.92225 15.2667 3.1664ZM24.8663 3.18593C25.2667 2.94179 25.3936 2.42421 25.042 1.99452C24.3194 1.10585 23.3721 0.43202 22.3663 0.0902233C21.7901-0.105089 21.3116 0.11952 21.2139 0.607801C21.1163 1.04725 21.3897 1.40858 21.8096 1.56483C22.5811 1.83827 23.2549 2.31679 23.7823 2.95155C24.0753 3.29335 24.4854 3.40077 24.8663 3.18593Z" fill="#ffffff" fill-opacity="0.85"/>
 </g>
</svg>
