<?xml version="1.0" encoding="UTF-8"?>
<!--Generator: Apple Native CoreSVG 232.5-->
<!DOCTYPE svg
PUBLIC "-//W3C//DTD SVG 1.1//EN"
       "http://www.w3.org/Graphics/SVG/1.1/DTD/svg11.dtd">
<svg version="1.1" xmlns="http://www.w3.org/2000/svg" xmlns:xlink="http://www.w3.org/1999/xlink" width="20.2832" height="19.9316">
 <g>
  <rect height="19.9316" opacity="0" width="20.2832" x="0" y="0"/>
  <path d="M19.9219 9.9707C19.9219 15.4199 15.4102 19.9316 9.96094 19.9316C4.52148 19.9316 0 15.4199 0 9.9707C0 4.53125 4.51172 0.00976562 9.95117 0.00976562C15.4004 0.00976562 19.9219 4.53125 19.9219 9.9707ZM3.70117 12.3926C3.39844 12.5 3.25195 12.7832 3.34961 13.0273C3.41797 13.3105 3.70117 13.4766 4.0332 13.3691C4.99023 13.0176 6.05469 12.832 7.13867 12.832C9.32617 12.832 10.4004 13.3398 10.4004 14.1602C10.4004 14.668 10.0781 14.9316 9.6582 14.9316C9.21875 14.9316 8.99414 14.6777 8.91602 14.1992C8.86719 13.9258 8.66211 13.6914 8.33008 13.7207C7.95898 13.7402 7.82227 14.0527 7.87109 14.3457C7.97852 15.2441 8.65234 15.957 9.6582 15.957C10.6445 15.957 11.4355 15.2148 11.4355 14.1602C11.4355 12.6367 9.89258 11.8066 7.13867 11.8066C6.01562 11.8066 4.75586 12.0215 3.70117 12.3926ZM13.3887 13.2324L13.418 13.5449L13.1738 13.3496C13.0957 13.291 12.959 13.3105 12.9102 13.418C12.8711 13.4863 12.8613 13.623 12.9883 13.6914L13.252 13.8184L12.9883 13.9258C12.8613 13.9844 12.8711 14.1211 12.9004 14.2188C12.9395 14.3066 13.0957 14.3359 13.1738 14.2773L13.418 14.1016L13.3984 14.3945C13.3887 14.4922 13.4668 14.5898 13.5938 14.5898C13.6914 14.5898 13.7793 14.4922 13.7695 14.3945L13.7402 14.1016L13.9844 14.2773C14.0527 14.3359 14.1992 14.2969 14.248 14.2285C14.3066 14.1406 14.2871 13.9844 14.1699 13.9258L13.8965 13.8184L14.1699 13.6816C14.2871 13.623 14.2871 13.5059 14.2578 13.418C14.209 13.3203 14.0527 13.291 13.9844 13.3496L13.7402 13.5449L13.7695 13.2422C13.7793 13.1348 13.6914 13.0371 13.5938 13.0371C13.4668 13.0371 13.3789 13.1348 13.3887 13.2324ZM11.6211 9.00391C11.5625 9.32617 11.7676 9.58984 12.0312 9.62891C12.3145 9.66797 12.5781 9.49219 12.6367 9.15039C12.7344 8.55469 13.2031 8.16406 13.7891 8.16406C14.4922 8.16406 15.0293 8.65234 15.0293 9.4043C15.0293 10.166 14.4531 10.6445 13.5156 10.6445C11.6797 10.6445 9.67773 9.58008 7.2168 9.58008C5.9668 9.58008 4.78516 9.80469 3.70117 10.1758C3.39844 10.2832 3.25195 10.5664 3.34961 10.8301C3.41797 11.1035 3.70117 11.2695 4.0332 11.1523C5.00977 10.7812 6.02539 10.6152 7.2168 10.6152C9.62891 10.6152 11.4355 11.6797 13.5156 11.6797C14.9902 11.6797 16.0547 10.7227 16.0547 9.4043C16.0547 8.0957 15.0391 7.13867 13.7891 7.13867C12.6465 7.13867 11.7578 7.94922 11.6211 9.00391ZM8.05664 6.03516C7.93945 6.26953 7.98828 6.5918 8.27148 6.71875C8.52539 6.8457 8.82812 6.76758 8.97461 6.45508C9.10156 6.17188 9.375 5.95703 9.72656 5.95703C10.1758 5.95703 10.5078 6.25 10.5078 6.75781C10.5078 7.25586 10.1855 7.55859 9.64844 7.55859C8.63281 7.55859 7.80273 7.36328 6.63086 7.36328C5.63477 7.36328 4.61914 7.56836 3.71094 7.85156C3.38867 7.93945 3.25195 8.23242 3.34961 8.49609C3.41797 8.76953 3.70117 8.92578 4.02344 8.82812C4.89258 8.53516 5.77148 8.4082 6.63086 8.4082C7.75391 8.4082 8.58398 8.57422 9.64844 8.57422C10.791 8.57422 11.543 7.79297 11.543 6.75781C11.543 5.69336 10.7227 4.94141 9.72656 4.94141C8.97461 4.94141 8.32031 5.41016 8.05664 6.03516ZM13.5059 4.04297L13.5449 4.6582L13.0371 4.30664C12.9102 4.20898 12.7148 4.22852 12.6465 4.38477C12.5684 4.50195 12.5977 4.69727 12.7637 4.78516L13.3008 5.06836L12.7637 5.32227C12.5879 5.41016 12.5684 5.5957 12.6367 5.72266C12.6953 5.87891 12.9102 5.9082 13.0371 5.83008L13.5449 5.46875L13.5156 6.08398C13.5059 6.25 13.6133 6.38672 13.7891 6.38672C13.9551 6.38672 14.0625 6.25 14.0527 6.08398L14.0234 5.46875L14.5312 5.83008C14.6484 5.9082 14.8535 5.86914 14.9219 5.74219C15.0195 5.61523 14.9707 5.40039 14.7949 5.32227L14.2578 5.06836L14.7949 4.77539C14.9609 4.69727 15 4.52148 14.9316 4.38477C14.8633 4.24805 14.6484 4.20898 14.5312 4.30664L14.0234 4.6582L14.0527 4.05273C14.0625 3.86719 13.9551 3.73047 13.7891 3.73047C13.6133 3.73047 13.4961 3.86719 13.5059 4.04297Z" fill="#ffffff" fill-opacity="0.85"/>
 </g>
</svg>
