<svg version="1.1" xmlns="http://www.w3.org/2000/svg" xmlns:xlink="http://www.w3.org/1999/xlink" width="29.6094" height="20.7324" viewBox="0 0 29.6094 20.7324">
 <g>
  <rect height="20.7324" opacity="0" width="29.6094" x="0" y="0"/>
  <path d="M6.48438 19.9121L8.05664 19.9121L8.05664 1.83594C8.05664 1.67969 8.16406 1.57227 8.31055 1.57227L20.9375 1.57227C21.084 1.57227 21.1816 1.67969 21.1816 1.83594L21.1816 19.9121L22.7637 19.9121L22.7637 19.4336L27.8711 19.8633C28.7988 19.9512 29.248 19.3262 29.248 18.5254L29.248 1.71875C29.248 0.917969 28.7988 0.302734 27.8711 0.380859L22.5391 0.830078L22.5195 0.654297C22.3047 0.244141 21.8262 0 21.2598 0L7.98828 0C7.40234 0 6.94336 0.244141 6.72852 0.654297L6.70898 0.830078L1.36719 0.380859C0.449219 0.302734 0 0.917969 0 1.71875L0 18.5254C0 19.3262 0.449219 19.9512 1.36719 19.8633L6.48438 19.4336ZM1.49414 18.1836L1.49414 14.1602C1.49414 14.0723 1.5625 13.9941 1.66016 13.9941L6.48438 13.877L6.48438 18.0273L1.69922 18.3594C1.58203 18.3691 1.49414 18.3203 1.49414 18.1836ZM1.49414 12.3145L1.49414 7.93945C1.49414 7.8418 1.5625 7.77344 1.66016 7.77344L6.48438 7.89062L6.48438 12.3633L1.66016 12.4805C1.5625 12.4805 1.49414 12.4023 1.49414 12.3145ZM1.49414 6.09375L1.49414 2.06055C1.49414 1.93359 1.58203 1.88477 1.69922 1.89453L6.48438 2.22656L6.48438 6.37695L1.66016 6.25977C1.5625 6.25977 1.49414 6.18164 1.49414 6.09375ZM22.7637 18.0273L22.7637 13.877L27.5879 13.9941C27.6855 13.9941 27.7539 14.0723 27.7539 14.1602L27.7539 18.1836C27.7539 18.3203 27.666 18.3691 27.5488 18.3594ZM22.7637 12.3633L22.7637 7.89062L27.5781 7.77344C27.6855 7.77344 27.7539 7.8418 27.7539 7.93945L27.7539 12.3145C27.7539 12.4023 27.6855 12.4805 27.5781 12.4805ZM22.7637 6.37695L22.7637 2.22656L27.5488 1.89453C27.666 1.88477 27.7539 1.93359 27.7539 2.06055L27.7539 6.09375C27.7539 6.18164 27.6855 6.25977 27.5879 6.25977ZM5.17578 19.9121C5.17578 20.3516 5.53711 20.7227 5.98633 20.7227L23.2812 20.7227C23.7305 20.7227 24.1016 20.3516 24.1016 19.9121C24.1016 19.4629 23.7305 19.1016 23.2812 19.1016L5.98633 19.1016C5.53711 19.1016 5.17578 19.4629 5.17578 19.9121ZM14.1895 19.9121L15.4688 19.9121L15.4688 0.810547L14.1895 0.810547Z" fill="currentColor"/>
 </g>
</svg>
