<svg version="1.1" xmlns="http://www.w3.org/2000/svg" xmlns:xlink="http://www.w3.org/1999/xlink" width="28.6876" height="19.5261" viewBox="0 0 28.6876 19.5261">
 <g>
  <rect height="19.5261" opacity="0" width="28.6876" x="0" y="0"/>
  <path d="M27.6104 8.31288C28.4405 8.95741 28.5479 9.84608 27.8936 10.6859L21.2432 19.1625C20.9503 19.5433 20.4522 19.6312 20.003 19.3969C18.3331 18.518 16.087 17.9418 14.1631 17.9418C12.2393 17.9418 9.98345 18.518 8.31353 19.3969C7.86431 19.6312 7.3858 19.5433 7.08306 19.1625L0.432673 10.6859C-0.23139 9.84608-0.123968 8.95741 0.70611 8.31288C3.63413 6.03368 7.93671 4.92357 12.044 4.64772L12.044 6.25295C8.46636 6.51365 5.19213 7.50521 2.10259 9.47499C1.83892 9.65077 1.80963 9.87538 1.99517 10.1293L4.01426 12.6975C4.63669 12.5396 5.17906 12.2184 5.55963 11.7894C5.77447 11.5355 6.00884 11.5453 6.23345 11.7894C6.81939 12.4437 7.68853 12.8148 8.64556 12.8148C9.59283 12.8148 10.462 12.4437 11.0577 11.7894C11.2725 11.5453 11.5069 11.5355 11.7315 11.7894C11.8255 11.8969 11.9299 11.9977 12.044 12.0904L12.044 13.2055C12.044 14.3676 13.001 15.3246 14.1631 15.3246C15.335 15.3246 16.2823 14.3676 16.2823 13.2055L16.2823 12.0821C16.3927 11.9918 16.4937 11.8938 16.585 11.7894C16.8096 11.5355 17.044 11.5453 17.2588 11.7894C17.8545 12.4437 18.7237 12.8148 19.671 12.8148C20.628 12.8148 21.4971 12.4437 22.0831 11.7894C22.3077 11.5453 22.542 11.5355 22.7569 11.7894C23.138 12.2191 23.6815 12.5406 24.3051 12.6983L26.3213 10.1293C26.5167 9.87538 26.4874 9.65077 26.2237 9.47499C23.438 7.68361 19.9955 6.56294 16.2823 6.26311L16.2823 4.64686C20.4232 4.92249 24.7027 6.03839 27.6104 8.31288Z" fill="currentColor"/>
  <path d="M14.1631 13.9965C14.5928 13.9965 14.9444 13.6351 14.9444 13.2055L14.9444 10.7152C14.9444 10.2855 14.5928 9.92421 14.1631 9.92421C13.7335 9.92421 13.3721 10.2855 13.3721 10.7152L13.3721 13.2055C13.3721 13.6351 13.7335 13.9965 14.1631 13.9965ZM14.1631 8.61561C14.5928 8.61561 14.9444 8.26405 14.9444 7.83436L14.9444 5.33436C14.9444 4.90468 14.5928 4.55311 14.1631 4.55311C13.7335 4.55311 13.3721 4.90468 13.3721 5.33436L13.3721 7.83436C13.3721 8.26405 13.7335 8.61561 14.1631 8.61561ZM3.46002 3.18593C3.83111 3.40077 4.25103 3.29335 4.53424 2.95155C5.07134 2.31679 5.74517 1.83827 6.51666 1.56483C6.93658 1.40858 7.20025 1.04725 7.11236 0.607801C7.00494 0.11952 6.52642-0.105089 5.95025 0.0902233C4.95416 0.43202 4.00689 1.10585 3.28424 1.99452C2.93267 2.42421 3.05963 2.94179 3.46002 3.18593ZM13.0499 3.1664C13.4503 2.92225 13.5479 2.41444 13.2061 1.98475C12.4835 1.09608 11.5264 0.43202 10.5499 0.0999889C9.93463-0.114855 9.47564 0.158583 9.38775 0.627333C9.31939 1.05702 9.56353 1.40858 9.98345 1.56483C10.7452 1.83827 11.419 2.31679 11.9463 2.94179C12.2588 3.31288 12.669 3.38124 13.0499 3.1664ZM15.2667 3.1664C15.6573 3.38124 16.0577 3.31288 16.3799 2.94179C16.8975 2.31679 17.5713 1.83827 18.3331 1.56483C18.7628 1.40858 19.0069 1.05702 18.9288 0.627333C18.8506 0.158583 18.3917-0.114855 17.7764 0.0999889C16.7901 0.43202 15.8331 1.09608 15.1104 1.98475C14.7686 2.41444 14.8663 2.92225 15.2667 3.1664ZM24.8663 3.18593C25.2667 2.94179 25.3936 2.42421 25.042 1.99452C24.3194 1.10585 23.3721 0.43202 22.3663 0.0902233C21.7901-0.105089 21.3116 0.11952 21.2139 0.607801C21.1163 1.04725 21.3897 1.40858 21.8096 1.56483C22.5811 1.83827 23.2549 2.31679 23.7823 2.95155C24.0753 3.29335 24.4854 3.40077 24.8663 3.18593Z" fill="currentColor"/>
 </g>
</svg>
