<svg version="1.1" xmlns="http://www.w3.org/2000/svg" xmlns:xlink="http://www.w3.org/1999/xlink" width="18.3398" height="17.998" viewBox="0 0 18.3398 17.998">
 <g>
  <rect height="17.998" opacity="0" width="18.3398" x="0" y="0"/>
  <path d="M17.9785 3.04688L17.9785 14.9707C17.9785 16.9824 16.9629 17.998 14.9121 17.998L3.06641 17.998C1.02539 17.998 0 16.9922 0 14.9707L0 3.04688C0 1.02539 1.02539 0.0195312 3.06641 0.0195312L14.9121 0.0195312C16.9629 0.0195312 17.9785 1.03516 17.9785 3.04688ZM11.6504 4.78516L11.2012 8.29102L10.3223 8.29102L9.74609 4.91211C9.6875 4.49219 9.35547 4.25781 8.98438 4.25781C8.60352 4.25781 8.29102 4.49219 8.22266 4.92188L7.65625 8.30078L6.79688 8.30078L6.36719 4.79492C6.31836 4.44336 6.04492 4.25781 5.72266 4.25781C5.35156 4.25781 5.07812 4.48242 5.07812 4.84375C5.07812 4.96094 5.09766 5.05859 5.11719 5.15625L5.60547 8.30078L5.15625 8.30078C4.88281 8.30078 4.66797 8.50586 4.66797 8.79883C4.66797 9.07227 4.88281 9.30664 5.15625 9.30664L5.77148 9.30664L6.42578 13.3691C6.48438 13.7695 6.77734 13.9941 7.13867 13.9941C7.50977 13.9941 7.80273 13.7891 7.87109 13.3789L8.54492 9.29688L9.44336 9.29688L10.1367 13.3789C10.2051 13.7891 10.498 13.9941 10.8691 13.9941C11.2207 13.9941 11.5234 13.7695 11.582 13.3691L12.2168 9.29688L12.8223 9.29688C13.1152 9.29688 13.3203 9.0625 13.3203 8.78906C13.3203 8.49609 13.1152 8.29102 12.8223 8.29102L12.3828 8.29102L12.8809 5.10742C12.9004 5.00977 12.9199 4.93164 12.9199 4.81445C12.9199 4.46289 12.6465 4.24805 12.2852 4.24805C11.9727 4.24805 11.6992 4.43359 11.6504 4.78516ZM10.8301 11.709L10.4688 9.28711L11.0938 9.28711ZM7.16797 11.6504L6.93359 9.28711L7.50977 9.28711ZM9.28711 8.30078L8.7207 8.30078L8.99414 6.32812Z" fill="currentColor"/>
 </g>
</svg>
