<?xml version="1.0" encoding="UTF-8"?>
<!--Generator: Apple Native CoreSVG 232.5-->
<!DOCTYPE svg
PUBLIC "-//W3C//DTD SVG 1.1//EN"
       "http://www.w3.org/Graphics/SVG/1.1/DTD/svg11.dtd">
<svg version="1.1" xmlns="http://www.w3.org/2000/svg" xmlns:xlink="http://www.w3.org/1999/xlink" width="18.3398" height="17.998">
 <g>
  <rect height="17.998" opacity="0" width="18.3398" x="0" y="0"/>
  <path d="M3.06641 17.998L14.9121 17.998C16.9629 17.998 17.9785 16.9824 17.9785 14.9707L17.9785 3.04688C17.9785 1.03516 16.9629 0.0195312 14.9121 0.0195312L3.06641 0.0195312C1.02539 0.0195312 0 1.02539 0 3.04688L0 14.9707C0 16.9922 1.02539 17.998 3.06641 17.998Z" fill="#ffffff" fill-opacity="0.25"/>
  <path d="M6.00586 13.6133C5.57617 13.6133 5.25391 13.3105 5.25391 12.9102C5.25391 12.7051 5.30273 12.5684 5.43945 12.3828L7.98828 8.84766L5.57617 5.52734C5.41992 5.30273 5.36133 5.16602 5.36133 4.94141C5.36133 4.53125 5.72266 4.18945 6.15234 4.18945C6.49414 4.18945 6.68945 4.31641 6.92383 4.63867L9.0625 7.74414L9.12109 7.74414L11.2207 4.64844C11.4355 4.31641 11.6406 4.18945 11.9531 4.18945C12.3828 4.18945 12.7246 4.50195 12.7246 4.90234C12.7246 5.08789 12.666 5.25391 12.5195 5.43945L9.98047 8.89648L12.5 12.3438C12.6367 12.5195 12.6953 12.666 12.6953 12.8711C12.6953 13.3105 12.3633 13.6133 11.9043 13.6133C11.582 13.6133 11.3965 13.4961 11.1426 13.1445L8.97461 10.0488L8.93555 10.0488L6.75781 13.1445C6.50391 13.4961 6.32812 13.6133 6.00586 13.6133Z" fill="#ffffff" fill-opacity="0.85"/>
 </g>
</svg>
