<?xml version="1.0" encoding="UTF-8"?>
<!--Generator: Apple Native CoreSVG 232.5-->
<!DOCTYPE svg
PUBLIC "-//W3C//DTD SVG 1.1//EN"
       "http://www.w3.org/Graphics/SVG/1.1/DTD/svg11.dtd">
<svg version="1.1" xmlns="http://www.w3.org/2000/svg" xmlns:xlink="http://www.w3.org/1999/xlink" width="22.5464" height="22.1948">
 <g>
  <rect height="22.1948" opacity="0" width="22.5464" x="0" y="0"/>
  <path d="M5.17456 19.5593L7.2937 19.5593C7.48902 19.5593 7.6355 19.6179 7.78199 19.7644L9.28589 21.2585C10.5164 22.4988 11.6589 22.489 12.8894 21.2585L14.3933 19.7644C14.5496 19.6179 14.6863 19.5593 14.8914 19.5593L17.0007 19.5593C18.7488 19.5593 19.5593 18.7585 19.5593 17.0007L19.5593 14.8914C19.5593 14.6863 19.6179 14.5496 19.7644 14.3933L21.2585 12.8894C22.4988 11.6589 22.489 10.5164 21.2585 9.28589L19.7644 7.78199C19.6179 7.6355 19.5593 7.48902 19.5593 7.2937L19.5593 5.17456C19.5593 3.43628 18.7585 2.61597 17.0007 2.61597L14.8914 2.61597C14.6863 2.61597 14.5496 2.56714 14.3933 2.42066L12.8894 0.926517C11.6589-0.313717 10.5164-0.303951 9.28589 0.926517L7.78199 2.42066C7.6355 2.56714 7.48902 2.61597 7.2937 2.61597L5.17456 2.61597C3.42652 2.61597 2.61597 3.41675 2.61597 5.17456L2.61597 7.2937C2.61597 7.48902 2.56714 7.6355 2.42066 7.78199L0.926517 9.28589C-0.313717 10.5164-0.303951 11.6589 0.926517 12.8894L2.42066 14.3933C2.56714 14.5496 2.61597 14.6863 2.61597 14.8914L2.61597 17.0007C2.61597 18.7488 3.42652 19.5593 5.17456 19.5593Z" fill="#ffffff" fill-opacity="0.25"/>
  <path d="M7.81128 15.1941C7.36206 15.1941 7.0105 14.8328 7.0105 14.3738C7.0105 14.1589 7.08863 13.9636 7.24488 13.8074L9.94995 11.1023L7.24488 8.38745C7.08863 8.24097 7.0105 8.03589 7.0105 7.82105C7.0105 7.37183 7.36206 7.03003 7.81128 7.03003C8.03589 7.03003 8.21167 7.10816 8.36792 7.25464L11.0925 9.96949L13.8367 7.24488C14.0027 7.07886 14.1785 7.0105 14.3933 7.0105C14.8425 7.0105 15.2039 7.36206 15.2039 7.80152C15.2039 8.02613 15.1355 8.21167 14.9695 8.37769L12.2449 11.1023L14.9597 13.7976C15.116 13.9539 15.1941 14.1492 15.1941 14.3738C15.1941 14.8328 14.8328 15.1941 14.3738 15.1941C14.1492 15.1941 13.9441 15.116 13.7976 14.9597L11.0925 12.2449L8.39722 14.9597C8.24097 15.116 8.03589 15.1941 7.81128 15.1941Z" fill="#ffffff" fill-opacity="0.85"/>
 </g>
</svg>
