<svg version="1.1" xmlns="http://www.w3.org/2000/svg" xmlns:xlink="http://www.w3.org/1999/xlink" width="16.7285" height="19.7168" viewBox="0 0 16.7285 19.7168">
 <g>
  <rect height="19.7168" opacity="0" width="16.7285" x="0" y="0"/>
  <path d="M7.98828 19.7168C8.14453 19.7168 8.38867 19.6582 8.63281 19.5312C14.1895 16.6211 15.9766 15.166 15.9766 11.6602L15.9766 4.29688C15.9766 3.29102 15.5469 2.96875 14.7266 2.62695C13.584 2.1582 9.93164 0.830078 8.79883 0.439453C8.53516 0.351562 8.26172 0.302734 7.98828 0.302734C7.71484 0.302734 7.44141 0.361328 7.1875 0.439453C6.04492 0.810547 2.39258 2.16797 1.25 2.62695C0.439453 2.95898 0 3.29102 0 4.29688L0 11.6602C0 15.166 1.88477 16.4551 7.34375 19.5312C7.59766 19.668 7.83203 19.7168 7.98828 19.7168Z" fill="var(--color-tertiary)"/>
  <path d="M4.70703 13.75C4.25781 13.75 3.90625 13.3887 3.90625 12.9297C3.90625 12.7148 3.98438 12.5195 4.14062 12.3633L6.8457 9.6582L4.14062 6.94336C3.98438 6.79688 3.90625 6.5918 3.90625 6.37695C3.90625 5.92773 4.25781 5.58594 4.70703 5.58594C4.93164 5.58594 5.10742 5.66406 5.26367 5.81055L7.98828 8.52539L10.7324 5.80078C10.8984 5.63477 11.0742 5.56641 11.2891 5.56641C11.7383 5.56641 12.0996 5.91797 12.0996 6.35742C12.0996 6.58203 12.0312 6.76758 11.8652 6.93359L9.14062 9.6582L11.8555 12.3535C12.0117 12.5098 12.0898 12.7051 12.0898 12.9297C12.0898 13.3887 11.7285 13.75 11.2695 13.75C11.0449 13.75 10.8398 13.6719 10.6934 13.5156L7.98828 10.8008L5.29297 13.5156C5.13672 13.6719 4.93164 13.75 4.70703 13.75Z" fill="var(--color-primary)"/>
 </g>
</svg>
