<svg version="1.1" xmlns="http://www.w3.org/2000/svg" xmlns:xlink="http://www.w3.org/1999/xlink" width="20.2832" height="19.9316" viewBox="0 0 20.2832 19.9316">
 <g>
  <rect height="19.9316" opacity="0" width="20.2832" x="0" y="0"/>
  <path d="M9.96094 19.9219C15.4102 19.9219 19.9219 15.4004 19.9219 9.96094C19.9219 4.51172 15.4004 0 9.95117 0C4.51172 0 0 4.51172 0 9.96094C0 15.4004 4.52148 19.9219 9.96094 19.9219Z" fill="var(--color-tertiary)"/>
  <path d="M7.06055 14.4531C6.62109 14.4531 6.32812 14.1699 6.32812 13.7695C6.32812 13.5449 6.38672 13.4082 6.60156 13.0957L11.2305 6.68945L11.2305 6.60156L6.97266 6.60156C6.58203 6.60156 6.29883 6.35742 6.29883 5.9375C6.29883 5.53711 6.58203 5.2832 6.97266 5.2832L12.5586 5.2832C13.0078 5.2832 13.3105 5.57617 13.3105 5.99609C13.3105 6.23047 13.2617 6.36719 13.0664 6.64062L8.44727 13.0469L8.44727 13.1348L12.959 13.1348C13.3496 13.1348 13.6426 13.3789 13.6426 13.7988C13.6426 14.1992 13.3496 14.4531 12.959 14.4531Z" fill="var(--color-primary)"/>
 </g>
</svg>
