<svg version="1.1" xmlns="http://www.w3.org/2000/svg" xmlns:xlink="http://www.w3.org/1999/xlink" width="16.9238" height="20.4395" viewBox="0 0 16.9238 20.4395">
 <g>
  <rect height="20.4395" opacity="0" width="16.9238" x="0" y="0"/>
  <path d="M4.22852 20.4199L8.18359 20.4199C8.59375 20.4199 8.83789 20.1953 8.83789 19.8047C8.83789 19.4238 8.59375 19.209 8.18359 19.209L5.08789 19.209L5.08789 19.1699L8.33008 15.2148C8.64258 14.834 8.74023 14.5996 8.74023 14.3262C8.74023 13.8477 8.42773 13.584 7.90039 13.584L3.98438 13.584C3.56445 13.584 3.33008 13.8184 3.33008 14.1992C3.33008 14.5898 3.56445 14.8047 3.98438 14.8047L7.11914 14.8047L7.11914 14.8438L3.73047 18.9453C3.48633 19.2383 3.41797 19.3945 3.41797 19.6777C3.41797 20.1074 3.73047 20.4199 4.22852 20.4199ZM11.2793 15L16.2109 15C16.6602 15 16.9238 14.7559 16.9238 14.3359C16.9238 13.9258 16.6602 13.6914 16.2109 13.6914L12.1973 13.6914L12.1973 13.6523L16.377 8.61328C16.709 8.21289 16.8164 7.98828 16.8164 7.71484C16.8164 7.1875 16.4746 6.86523 15.8496 6.86523L11.0449 6.86523C10.5957 6.86523 10.3418 7.10938 10.3418 7.51953C10.3418 7.93945 10.5957 8.17383 11.0449 8.17383L15.0488 8.17383L15.0488 8.21289L10.752 13.4082C10.498 13.7109 10.4004 13.9062 10.4004 14.1797C10.4004 14.668 10.7422 15 11.2793 15ZM1.35742 9.74609L7.56836 9.74609C8.03711 9.74609 8.30078 9.49219 8.30078 9.05273C8.30078 8.63281 8.03711 8.38867 7.56836 8.38867L2.35352 8.38867L2.35352 8.34961L7.82227 1.75781C8.13477 1.37695 8.21289 1.16211 8.21289 0.869141C8.21289 0.332031 7.8418 0 7.19727 0L1.12305 0C0.664062 0 0.390625 0.244141 0.390625 0.673828C0.390625 1.10352 0.664062 1.35742 1.12305 1.35742L6.33789 1.35742L6.33789 1.38672L0.742188 8.1543C0.517578 8.41797 0.458984 8.61328 0.458984 8.89648C0.458984 9.4043 0.810547 9.74609 1.35742 9.74609Z" fill="currentColor"/>
 </g>
</svg>
