<svg version="1.1" xmlns="http://www.w3.org/2000/svg" xmlns:xlink="http://www.w3.org/1999/xlink" viewBox="0 0 14.5898 14.248">
 <g>
  <rect height="14.248" opacity="0" width="14.5898" x="0" y="0"/>
  <path d="M2.49023 14.248L11.7383 14.248C13.4082 14.248 14.2285 13.4277 14.2285 11.7871L14.2285 2.4707C14.2285 0.830078 13.4082 0.00976562 11.7383 0.00976562L2.49023 0.00976562C0.830078 0.00976562 0 0.830078 0 2.4707L0 11.7871C0 13.4277 0.830078 14.248 2.49023 14.248Z" fill="var(--color-tertiary)"/>
  <path d="M4.45312 10.498C2.8418 10.498 2.33398 8.76953 2.33398 7.11914C2.33398 5.46875 2.8418 3.74023 4.45312 3.74023C6.06445 3.74023 6.5625 5.46875 6.5625 7.11914C6.5625 8.76953 6.06445 10.498 4.45312 10.498ZM4.45312 9.45312C5.00977 9.45312 5.26367 8.55469 5.26367 7.11914C5.26367 5.68359 5.00977 4.78516 4.45312 4.78516C3.89648 4.78516 3.63281 5.68359 3.63281 7.11914C3.63281 8.55469 3.89648 9.45312 4.45312 9.45312ZM9.63867 10.498C7.97852 10.498 7.49023 8.69141 7.49023 7.17773C7.49023 5.52734 7.98828 3.75977 9.64844 3.75977C10.459 3.75977 11.1816 4.16992 11.3379 4.86328C11.377 4.95117 11.3867 5.04883 11.3867 5.14648C11.3867 5.42969 11.2305 5.67383 10.8594 5.67383C10.5859 5.67383 10.4199 5.56641 10.2832 5.30273C10.1562 5.00977 9.94141 4.78516 9.61914 4.78516C8.79883 4.78516 8.70117 6.30859 8.70117 7.12891C8.70117 7.14844 8.70117 7.17773 8.70117 7.19727L8.73047 7.19727C8.92578 6.54297 9.41406 6.14258 10.0195 6.14258C11.0742 6.14258 11.5918 7.1582 11.5918 8.22266C11.5918 9.48242 10.8789 10.498 9.63867 10.498ZM9.61914 9.47266C10.1172 9.47266 10.3516 8.81836 10.3516 8.29102C10.3711 7.75391 10.166 7.10938 9.61914 7.10938C9.0918 7.10938 8.86719 7.71484 8.86719 8.26172C8.86719 8.75977 9.0625 9.47266 9.61914 9.47266Z" fill="var(--color-primary)"/>
 </g>
</svg>
