<svg version="1.1" xmlns="http://www.w3.org/2000/svg" xmlns:xlink="http://www.w3.org/1999/xlink" viewBox="0 0 14.5898 14.248">
 <g>
  <rect height="14.248" opacity="0" width="14.5898" x="0" y="0"/>
  <path d="M2.49023 14.248L11.7383 14.248C13.4082 14.248 14.2285 13.4277 14.2285 11.7871L14.2285 2.4707C14.2285 0.830078 13.4082 0.00976562 11.7383 0.00976562L2.49023 0.00976562C0.830078 0.00976562 0 0.830078 0 2.4707L0 11.7871C0 13.4277 0.830078 14.248 2.49023 14.248Z" fill="var(--color-tertiary)"/>
  <path d="M4.87305 10.498C3.26172 10.498 2.75391 8.76953 2.75391 7.11914C2.75391 5.46875 3.26172 3.74023 4.87305 3.74023C6.49414 3.74023 7.00195 5.46875 7.00195 7.11914C7.00195 8.76953 6.49414 10.498 4.87305 10.498ZM4.87305 9.45312C5.42969 9.45312 5.68359 8.55469 5.68359 7.11914C5.68359 5.68359 5.42969 4.78516 4.87305 4.78516C4.31641 4.78516 4.0625 5.68359 4.0625 7.11914C4.0625 8.55469 4.31641 9.45312 4.87305 9.45312ZM8.87695 10.4395C8.44727 10.4395 8.29102 10.1465 8.29102 9.89258C8.29102 9.6875 8.32031 9.58008 8.39844 9.38477L10.0879 5.03906L10.0879 4.96094L8.13477 4.96094C7.83203 4.96094 7.62695 4.74609 7.62695 4.43359C7.62695 4.13086 7.83203 3.91602 8.13477 3.91602L10.6836 3.91602C11.0742 3.91602 11.3867 4.17969 11.3867 4.58008C11.3867 4.85352 11.3184 5.05859 11.2207 5.33203L9.47266 10C9.3457 10.3125 9.20898 10.4395 8.87695 10.4395Z" fill="var(--color-primary)"/>
 </g>
</svg>
