<svg version="1.1" xmlns="http://www.w3.org/2000/svg" xmlns:xlink="http://www.w3.org/1999/xlink" viewBox="0 0 16.1328 15.7715">
 <g>
  <rect height="15.7715" opacity="0" width="16.1328" x="0" y="0"/>
  <path d="M7.88086 15.7617C12.2363 15.7617 15.7715 12.2266 15.7715 7.88086C15.7715 3.53516 12.2363 0 7.88086 0C3.53516 0 0 3.53516 0 7.88086C0 12.2266 3.53516 15.7617 7.88086 15.7617Z" fill="var(--color-tertiary)"/>
  <path d="M5.38086 11.2598C3.76953 11.2598 3.26172 9.53125 3.26172 7.88086C3.26172 6.23047 3.76953 4.50195 5.38086 4.50195C7.00195 4.50195 7.5 6.23047 7.5 7.88086C7.5 9.53125 7.00195 11.2598 5.38086 11.2598ZM5.38086 10.2148C5.9375 10.2148 6.19141 9.31641 6.19141 7.88086C6.19141 6.44531 5.9375 5.54688 5.38086 5.54688C4.82422 5.54688 4.57031 6.44531 4.57031 7.88086C4.57031 9.31641 4.82422 10.2148 5.38086 10.2148ZM9.94141 8.87695C8.89648 8.87695 8.37891 7.86133 8.37891 6.79688C8.37891 5.53711 9.10156 4.52148 10.3418 4.52148C11.9922 4.52148 12.4805 6.32812 12.4805 7.83203C12.4805 9.49219 11.9824 11.25 10.332 11.25C9.51172 11.25 8.78906 10.8496 8.62305 10.1562C8.60352 10.0684 8.58398 9.9707 8.58398 9.87305C8.58398 9.58984 8.74023 9.33594 9.11133 9.33594C9.375 9.33594 9.56055 9.44336 9.67773 9.7168C9.82422 10.0098 10.0391 10.2246 10.3516 10.2246C11.1719 10.2246 11.2695 8.71094 11.2695 7.89062C11.2695 7.87109 11.2695 7.8418 11.2695 7.8125L11.2402 7.8125C11.0547 8.47656 10.5664 8.87695 9.94141 8.87695ZM10.3516 7.90039C10.8887 7.90039 11.1133 7.30469 11.1133 6.72852C11.1133 6.18164 10.9082 5.54688 10.3516 5.54688C9.85352 5.54688 9.60938 6.18164 9.60938 6.72852C9.60938 7.27539 9.81445 7.90039 10.3516 7.90039Z" fill="var(--color-primary)"/>
 </g>
</svg>
