<svg version="1.1" xmlns="http://www.w3.org/2000/svg" xmlns:xlink="http://www.w3.org/1999/xlink" viewBox="0 0 22.7441 15.0879">
 <g>
  <rect height="15.0879" opacity="0" width="22.7441" x="0" y="0"/>
  <path d="M0 7.53906C0 9.99023 0.78125 12.2461 2.11914 14.1016C2.39258 14.4727 2.86133 14.5117 3.20312 14.2285C3.52539 13.9648 3.56445 13.5352 3.32031 13.1934C2.16797 11.6016 1.50391 9.63867 1.50391 7.53906C1.50391 5.42969 2.16797 3.47656 3.32031 1.875C3.56445 1.54297 3.53516 1.11328 3.20312 0.839844C2.86133 0.556641 2.39258 0.605469 2.11914 0.976562C0.78125 2.82227 0 5.08789 0 7.53906ZM22.3828 7.53906C22.3828 5.08789 21.6016 2.82227 20.2637 0.976562C19.9902 0.605469 19.5215 0.556641 19.1797 0.839844C18.8477 1.11328 18.8184 1.54297 19.0625 1.875C20.2148 3.47656 20.8789 5.42969 20.8789 7.53906C20.8789 9.63867 20.2148 11.6016 19.0625 13.1934C18.8184 13.5352 18.8574 13.9648 19.1797 14.2285C19.5215 14.5117 19.9902 14.4727 20.2637 14.1016C21.6016 12.2461 22.3828 9.99023 22.3828 7.53906Z" fill="var(--color-secondary)"/>
  <path d="M11.1914 15.0781C15.3613 15.0781 18.7305 11.709 18.7305 7.53906C18.7305 3.36914 15.3613 0 11.1914 0C7.03125 0 3.65234 3.36914 3.65234 7.53906C3.65234 11.709 7.03125 15.0781 11.1914 15.0781ZM11.1914 13.5938C7.85156 13.5938 5.13672 10.8789 5.13672 7.53906C5.13672 4.19922 7.85156 1.48438 11.1914 1.48438C14.5312 1.48438 17.2461 4.19922 17.2461 7.53906C17.2461 10.8789 14.5312 13.5938 11.1914 13.5938Z" fill="var(--color-secondary)"/>
  <path d="M11.6016 11.2207C12.0605 11.2207 12.3145 10.9277 12.3145 10.4297L12.3145 4.64844C12.3145 4.14062 12.041 3.85742 11.5723 3.85742C11.2598 3.85742 11.0254 3.94531 10.6641 4.19922L9.3457 5.10742C9.16016 5.23438 9.08203 5.37109 9.08203 5.58594C9.08203 5.84961 9.28711 6.09375 9.56055 6.09375C9.69727 6.09375 9.78516 6.07422 9.99023 5.9375L10.8594 5.36133L10.918 5.36133L10.918 10.4297C10.918 10.9277 11.1719 11.2207 11.6016 11.2207Z" fill="var(--color-primary)"/>
 </g>
</svg>
