<svg version="1.1" xmlns="http://www.w3.org/2000/svg" xmlns:xlink="http://www.w3.org/1999/xlink" viewBox="0 0 16.1328 15.7715">
 <g>
  <rect height="15.7715" opacity="0" width="16.1328" x="0" y="0"/>
  <path d="M7.88086 15.7617C12.2363 15.7617 15.7715 12.2363 15.7715 7.88086C15.7715 3.52539 12.2363 0 7.88086 0C3.53516 0 0 3.52539 0 7.88086C0 12.2363 3.53516 15.7617 7.88086 15.7617ZM7.88086 14.2773C4.3457 14.2773 1.49414 11.416 1.49414 7.88086C1.49414 4.3457 4.3457 1.48438 7.88086 1.48438C11.416 1.48438 14.2773 4.3457 14.2773 7.88086C14.2773 11.416 11.416 14.2773 7.88086 14.2773Z" fill="var(--color-secondary)"/>
  <path d="M8.29102 11.5625C8.74023 11.5625 8.99414 11.2695 8.99414 10.7715L8.99414 4.99023C8.99414 4.48242 8.73047 4.19922 8.26172 4.19922C7.93945 4.19922 7.71484 4.28711 7.34375 4.54102L6.02539 5.44922C5.83984 5.57617 5.76172 5.71289 5.76172 5.92773C5.76172 6.19141 5.97656 6.43555 6.25 6.43555C6.37695 6.43555 6.47461 6.41602 6.67969 6.2793L7.54883 5.70312L7.60742 5.70312L7.60742 10.7715C7.60742 11.2695 7.86133 11.5625 8.29102 11.5625Z" fill="var(--color-primary)"/>
 </g>
</svg>
