<svg version="1.1" xmlns="http://www.w3.org/2000/svg" xmlns:xlink="http://www.w3.org/1999/xlink" viewBox="0 0 14.5898 14.248">
 <g>
  <rect height="14.248" opacity="0" width="14.5898" x="0" y="0"/>
  <path d="M2.49023 14.248L11.7383 14.248C13.4082 14.248 14.2285 13.4277 14.2285 11.7871L14.2285 2.4707C14.2285 0.830078 13.4082 0.00976562 11.7383 0.00976562L2.49023 0.00976562C0.830078 0.00976562 0 0.830078 0 2.4707L0 11.7871C0 13.4277 0.830078 14.248 2.49023 14.248ZM2.50977 12.832C1.80664 12.832 1.40625 12.4512 1.40625 11.7188L1.40625 2.53906C1.40625 1.79688 1.80664 1.42578 2.50977 1.42578L11.7188 1.42578C12.4219 1.42578 12.8223 1.79688 12.8223 2.53906L12.8223 11.7188C12.8223 12.4512 12.4219 12.832 11.7188 12.832Z" fill="var(--color-secondary)"/>
  <path d="M3.47656 10.2148L6.13281 10.2148C6.43555 10.2148 6.62109 10.0195 6.62109 9.7168C6.62109 9.39453 6.42578 9.20898 6.13281 9.20898L4.4043 9.20898L4.4043 9.15039L5.43945 7.89062C6.25 6.9043 6.50391 6.33789 6.50391 5.66406C6.50391 4.59961 5.76172 3.85742 4.6875 3.85742C3.68164 3.85742 2.91016 4.66797 2.91016 5.45898C2.91016 5.78125 3.0957 6.00586 3.41797 6.00586C3.70117 6.00586 3.86719 5.87891 3.96484 5.5957C4.11133 5.12695 4.27734 4.84375 4.67773 4.84375C5.08789 4.84375 5.33203 5.19531 5.33203 5.72266C5.33203 6.33789 4.85352 6.98242 4.47266 7.4707L3.22266 9.02344C3.06641 9.22852 2.90039 9.44336 2.90039 9.7168C2.90039 10 3.07617 10.2148 3.47656 10.2148ZM10.2051 10.3223C10.5273 10.3223 10.791 10.127 10.791 9.70703L10.791 9.0625L11.0059 9.0625C11.3379 9.0625 11.4941 8.84766 11.4941 8.56445C11.4941 8.29102 11.3574 8.06641 11.0059 8.06641L10.791 8.06641L10.791 4.85352C10.791 4.26758 10.4102 3.93555 9.83398 3.93555C9.22852 3.93555 8.94531 4.23828 8.71094 4.76562L7.46094 7.55859C7.32422 7.89062 7.27539 8.10547 7.27539 8.36914C7.27539 8.7793 7.55859 9.0625 7.96875 9.0625L9.60938 9.0625L9.60938 9.70703C9.60938 10.166 9.94141 10.3223 10.2051 10.3223ZM9.63867 8.0957L8.32031 8.0957L8.32031 8.03711L9.60938 4.98047L9.63867 4.98047Z" fill="var(--color-primary)"/>
 </g>
</svg>
