<svg version="1.1" xmlns="http://www.w3.org/2000/svg" xmlns:xlink="http://www.w3.org/1999/xlink" viewBox="0 0 14.5898 14.248">
 <g>
  <rect height="14.248" opacity="0" width="14.5898" x="0" y="0"/>
  <path d="M2.49023 14.248L11.7383 14.248C13.4082 14.248 14.2285 13.4277 14.2285 11.7871L14.2285 2.4707C14.2285 0.830078 13.4082 0.00976562 11.7383 0.00976562L2.49023 0.00976562C0.830078 0.00976562 0 0.830078 0 2.4707L0 11.7871C0 13.4277 0.830078 14.248 2.49023 14.248ZM2.50977 12.832C1.80664 12.832 1.40625 12.4512 1.40625 11.7188L1.40625 2.53906C1.40625 1.79688 1.80664 1.42578 2.50977 1.42578L11.7188 1.42578C12.4219 1.42578 12.8223 1.79688 12.8223 2.53906L12.8223 11.7188C12.8223 12.4512 12.4219 12.832 11.7188 12.832Z" fill="var(--color-secondary)"/>
  <path d="M3.44727 10.2148L6.11328 10.2148C6.41602 10.2148 6.5918 10.0195 6.5918 9.7168C6.5918 9.39453 6.40625 9.20898 6.11328 9.20898L4.38477 9.20898L4.38477 9.15039L5.41016 7.89062C6.2207 6.9043 6.48438 6.33789 6.48438 5.66406C6.48438 4.59961 5.73242 3.85742 4.6582 3.85742C3.66211 3.85742 2.88086 4.66797 2.88086 5.45898C2.88086 5.78125 3.06641 6.00586 3.38867 6.00586C3.67188 6.00586 3.84766 5.87891 3.93555 5.5957C4.0918 5.12695 4.25781 4.84375 4.64844 4.84375C5.05859 4.84375 5.30273 5.19531 5.30273 5.72266C5.30273 6.33789 4.83398 6.98242 4.44336 7.4707L3.19336 9.02344C3.03711 9.22852 2.87109 9.44336 2.87109 9.7168C2.87109 10 3.04688 10.2148 3.44727 10.2148ZM9.45312 10.3809C10.6445 10.3809 11.3379 9.4043 11.3379 8.18359C11.3379 7.1582 10.8398 6.18164 9.82422 6.18164C9.22852 6.18164 8.75977 6.5625 8.58398 7.19727L8.55469 7.19727C8.55469 7.17773 8.55469 7.14844 8.55469 7.12891C8.55469 6.32812 8.64258 4.87305 9.43359 4.87305C9.73633 4.87305 9.95117 5.08789 10.0781 5.36133C10.2051 5.625 10.3711 5.73242 10.6348 5.73242C10.9863 5.73242 11.1328 5.49805 11.1328 5.21484C11.1328 5.12695 11.1133 5.03906 11.0938 4.94141C10.9375 4.27734 10.2441 3.87695 9.46289 3.87695C7.86133 3.87695 7.38281 5.58594 7.38281 7.17773C7.38281 8.63281 7.85156 10.3809 9.45312 10.3809ZM9.43359 9.38477C8.89648 9.38477 8.70117 8.71094 8.70117 8.22266C8.70117 7.69531 8.92578 7.10938 9.43359 7.10938C9.95117 7.10938 10.1562 7.72461 10.1367 8.24219C10.1367 8.75 9.92188 9.38477 9.43359 9.38477Z" fill="var(--color-primary)"/>
 </g>
</svg>
