<svg version="1.1" xmlns="http://www.w3.org/2000/svg" xmlns:xlink="http://www.w3.org/1999/xlink" viewBox="0 0 16.1328 15.7715">
 <g>
  <rect height="15.7715" opacity="0" width="16.1328" x="0" y="0"/>
  <path d="M15.7715 7.88086C15.7715 12.2266 12.2363 15.7617 7.88086 15.7617C3.53516 15.7617 0 12.2266 0 7.88086C0 3.53516 3.53516 0 7.88086 0C12.2363 0 15.7715 3.53516 15.7715 7.88086ZM5.41016 5.63477C5.39062 5.75195 5.38086 5.83984 5.38086 5.9668C5.38086 6.32812 5.63477 6.5625 5.98633 6.5625C6.29883 6.5625 6.48438 6.40625 6.60156 6.10352C6.78711 5.54688 7.24609 5.20508 7.95898 5.20508C8.71094 5.20508 9.16016 5.55664 9.16016 6.15234C9.16016 6.77734 8.64258 7.2168 7.91992 7.2168L7.46094 7.2168C7.13867 7.2168 6.9043 7.44141 6.9043 7.77344C6.9043 8.08594 7.13867 8.32031 7.46094 8.32031L7.95898 8.32031C8.81836 8.32031 9.4043 8.7793 9.4043 9.46289C9.4043 10.127 8.81836 10.5566 7.92969 10.5566C7.07031 10.5566 6.66016 10.166 6.45508 9.6582C6.32812 9.3457 6.14258 9.19922 5.83984 9.19922C5.47852 9.19922 5.22461 9.45312 5.22461 9.81445C5.22461 9.94141 5.23438 10.0098 5.25391 10.127C5.48828 11.0645 6.55273 11.6992 7.91016 11.6992C9.67773 11.6992 10.7422 10.8008 10.7422 9.51172C10.7422 8.58398 10.0391 7.83203 9.07227 7.73438L9.07227 7.67578C9.87305 7.56836 10.4883 6.82617 10.4883 6.00586C10.4883 4.86328 9.45312 4.0625 7.98828 4.0625C6.64062 4.0625 5.6543 4.66797 5.41016 5.63477Z" fill="var(--color-primary)"/>
 </g>
</svg>
