<svg version="1.1" xmlns="http://www.w3.org/2000/svg" xmlns:xlink="http://www.w3.org/1999/xlink" viewBox="0 0 16.1328 18.7687">
 <g>
  <rect height="18.7687" opacity="0" width="16.1328" x="0" y="0"/>
  <path d="M7.88086 17.2603C12.2363 17.2603 15.7715 13.735 15.7715 9.37949C15.7715 5.53183 12.998 2.33847 9.4043 1.64511L9.4043 0.609959C9.4043-0.00527584 8.98438-0.161526 8.52539 0.170505L6.05469 1.91855C5.66406 2.19199 5.67383 2.59238 6.05469 2.86582L8.53516 4.6041C8.98438 4.92636 9.4043 4.77011 9.4043 4.16465L9.4043 3.16855C12.1973 3.85215 14.2773 6.35215 14.2773 9.37949C14.2773 12.9146 11.416 15.776 7.88086 15.776C4.3457 15.776 1.49414 12.9146 1.49414 9.37949C1.49414 7.28965 2.49023 5.45371 4.01367 4.2916C4.36523 4.01816 4.48242 3.60801 4.25781 3.24668C4.04297 2.88535 3.53516 2.78769 3.14453 3.08066C1.23047 4.53574 0 6.78183 0 9.37949C0 13.735 3.53516 17.2603 7.88086 17.2603Z" fill="var(--color-primary)"/>
  <path d="M5.41992 12.5924C6.5625 12.5924 7.48047 11.9478 7.48047 10.8541C7.48047 9.96543 6.89453 9.52597 6.21094 9.45761L6.21094 9.43808C6.89453 9.28183 7.28516 8.71543 7.28516 8.08066C7.28516 7.06504 6.43555 6.51816 5.40039 6.51816C4.53125 6.51816 3.75977 7.00644 3.60352 7.6998C3.58398 7.78769 3.57422 7.87558 3.57422 7.96347C3.57422 8.21738 3.71094 8.44199 4.07227 8.44199C4.35547 8.44199 4.51172 8.33457 4.60938 8.0709C4.76562 7.64121 5.0293 7.45566 5.41016 7.45566C5.87891 7.45566 6.15234 7.7584 6.15234 8.22715C6.15234 8.74472 5.80078 9.05722 5.2832 9.05722L5.10742 9.05722C4.81445 9.05722 4.64844 9.22324 4.64844 9.48691C4.64844 9.77011 4.82422 9.9166 5.10742 9.9166L5.29297 9.9166C5.85938 9.9166 6.2793 10.1607 6.2793 10.7955C6.2793 11.2936 5.9375 11.6353 5.42969 11.6353C4.93164 11.6353 4.67773 11.3912 4.53125 11.0103C4.42383 10.7857 4.22852 10.649 4.00391 10.649C3.68164 10.649 3.47656 10.8443 3.47656 11.1568C3.47656 11.2447 3.48633 11.3326 3.50586 11.4205C3.68164 12.2018 4.59961 12.5924 5.41992 12.5924ZM10.3613 12.5924C11.8848 12.5924 12.4316 11.0787 12.4316 9.53574C12.4316 8.0123 11.8848 6.49863 10.3613 6.49863C8.83789 6.49863 8.30078 8.0123 8.30078 9.53574C8.30078 11.0787 8.84766 12.5924 10.3613 12.5924ZM10.3613 11.6353C9.83398 11.6353 9.51172 10.8053 9.51172 9.53574C9.51172 8.28574 9.83398 7.46543 10.3613 7.46543C10.8984 7.46543 11.2207 8.28574 11.2207 9.53574C11.2207 10.8053 10.8984 11.6353 10.3613 11.6353Z" fill="var(--color-primary)"/>
 </g>
</svg>
