<svg version="1.1" xmlns="http://www.w3.org/2000/svg" xmlns:xlink="http://www.w3.org/1999/xlink" viewBox="0 0 14.5898 14.248">
 <g>
  <rect height="14.248" opacity="0" width="14.5898" x="0" y="0"/>
  <path d="M14.2285 2.4707L14.2285 11.7871C14.2285 13.4277 13.4082 14.248 11.7383 14.248L2.49023 14.248C0.830078 14.248 0 13.4277 0 11.7871L0 2.4707C0 0.830078 0.830078 0.00976562 2.49023 0.00976562L11.7383 0.00976562C13.4082 0.00976562 14.2285 0.830078 14.2285 2.4707ZM8.62305 3.91602C8.17383 3.91602 7.95898 4.20898 7.92969 4.6582L7.82227 6.73828C7.8125 6.86523 7.8125 6.97266 7.8125 7.09961C7.8125 7.43164 7.97852 7.73438 8.38867 7.73438C8.62305 7.73438 8.75977 7.64648 8.93555 7.41211C9.12109 7.17773 9.28711 7.02148 9.58008 7.02148C10.127 7.02148 10.3125 7.67578 10.3125 8.21289C10.3125 8.83789 10.1172 9.47266 9.57031 9.47266C9.16016 9.47266 8.94531 9.18945 8.79883 8.79883C8.69141 8.52539 8.49609 8.38867 8.26172 8.38867C7.92969 8.38867 7.72461 8.59375 7.72461 8.91602C7.72461 9.13086 7.7832 9.31641 7.85156 9.49219C8.1543 10.1074 8.88672 10.498 9.58984 10.498C10.8594 10.498 11.5625 9.47266 11.5625 8.18359C11.5625 7.08984 11.0352 6.09375 10.0098 6.09375C9.54102 6.09375 9.11133 6.30859 8.91602 6.74805L8.87695 6.74805L9.00391 4.96094L10.8203 4.96094C11.123 4.96094 11.3184 4.74609 11.3184 4.43359C11.3184 4.14062 11.1133 3.91602 10.8203 3.91602ZM2.8125 4.94141C2.77344 5.08789 2.75391 5.22461 2.75391 5.37109C2.75391 5.6543 2.93945 5.89844 3.30078 5.89844C3.59375 5.89844 3.7793 5.79102 3.86719 5.49805C4.00391 5.04883 4.22852 4.79492 4.62891 4.79492C5.11719 4.79492 5.33203 5.16602 5.33203 5.6543C5.33203 6.20117 5.04883 6.5918 4.48242 6.5918L4.32617 6.5918C4.0332 6.5918 3.82812 6.77734 3.82812 7.07031C3.82812 7.36328 4.0332 7.5293 4.32617 7.5293L4.49219 7.5293C5.12695 7.5293 5.46875 7.88086 5.46875 8.51562C5.46875 9.02344 5.19531 9.45312 4.6582 9.45312C4.12109 9.45312 3.88672 9.10156 3.79883 8.7793C3.71094 8.50586 3.51562 8.35938 3.24219 8.35938C2.88086 8.35938 2.64648 8.57422 2.64648 8.91602C2.64648 9.07227 2.66602 9.19922 2.71484 9.33594C2.93945 10.0879 3.79883 10.4785 4.6582 10.4785C5.83008 10.4785 6.74805 9.76562 6.74805 8.57422C6.74805 7.55859 6.11328 7.10938 5.47852 7.04102L5.47852 7.00195C6.19141 6.81641 6.55273 6.18164 6.55273 5.51758C6.55273 4.38477 5.68359 3.7793 4.62891 3.7793C3.79883 3.7793 3.04688 4.23828 2.8125 4.94141Z" fill="var(--color-primary)"/>
 </g>
</svg>
