<svg version="1.1" xmlns="http://www.w3.org/2000/svg" xmlns:xlink="http://www.w3.org/1999/xlink" viewBox="0 0 14.5898 14.248">
 <g>
  <rect height="14.248" opacity="0" width="14.5898" x="0" y="0"/>
  <path d="M14.2285 2.4707L14.2285 11.7871C14.2285 13.4277 13.4082 14.248 11.7383 14.248L2.49023 14.248C0.830078 14.248 0 13.4277 0 11.7871L0 2.4707C0 0.830078 0.830078 0.00976562 2.49023 0.00976562L11.7383 0.00976562C13.4082 0.00976562 14.2285 0.830078 14.2285 2.4707ZM3.0957 4.94141C3.05664 5.08789 3.02734 5.22461 3.02734 5.37109C3.02734 5.6543 3.22266 5.89844 3.58398 5.89844C3.87695 5.89844 4.0625 5.79102 4.15039 5.49805C4.27734 5.04883 4.50195 4.79492 4.90234 4.79492C5.39062 4.79492 5.61523 5.16602 5.61523 5.6543C5.61523 6.20117 5.32227 6.5918 4.75586 6.5918L4.60938 6.5918C4.30664 6.5918 4.11133 6.77734 4.11133 7.07031C4.11133 7.36328 4.31641 7.5293 4.60938 7.5293L4.76562 7.5293C5.41016 7.5293 5.74219 7.88086 5.74219 8.51562C5.74219 9.02344 5.47852 9.45312 4.93164 9.45312C4.39453 9.45312 4.16992 9.10156 4.07227 8.78906C3.98438 8.50586 3.79883 8.35938 3.50586 8.35938C3.16406 8.35938 2.92969 8.57422 2.92969 8.91602C2.92969 9.07227 2.94922 9.19922 2.98828 9.33594C3.22266 10.0879 4.08203 10.4785 4.93164 10.4785C6.11328 10.4785 7.02148 9.76562 7.02148 8.57422C7.02148 7.55859 6.39648 7.10938 5.75195 7.04102L5.75195 7.01172C6.47461 6.81641 6.83594 6.18164 6.83594 5.51758C6.83594 4.38477 5.9668 3.7793 4.90234 3.7793C4.08203 3.7793 3.32031 4.23828 3.0957 4.94141ZM8.21289 3.91602C7.91016 3.91602 7.70508 4.13086 7.70508 4.43359C7.70508 4.74609 7.91016 4.96094 8.21289 4.96094L10.166 4.96094L10.166 5.03906L8.47656 9.38477C8.39844 9.58008 8.36914 9.6875 8.36914 9.89258C8.36914 10.1465 8.52539 10.4395 8.95508 10.4395C9.27734 10.4395 9.43359 10.3125 9.54102 10L11.2988 5.33203C11.3965 5.05859 11.4648 4.85352 11.4648 4.58008C11.4648 4.17969 11.1523 3.91602 10.7617 3.91602Z" fill="var(--color-primary)"/>
 </g>
</svg>
