<svg version="1.1" xmlns="http://www.w3.org/2000/svg" xmlns:xlink="http://www.w3.org/1999/xlink" viewBox="0 0 16.1328 15.7715">
 <g>
  <rect height="15.7715" opacity="0" width="16.1328" x="0" y="0"/>
  <path d="M7.88086 15.7617C12.2363 15.7617 15.7715 12.2266 15.7715 7.88086C15.7715 3.53516 12.2363 0 7.88086 0C3.53516 0 0 3.53516 0 7.88086C0 12.2266 3.53516 15.7617 7.88086 15.7617Z" fill="var(--color-tertiary)"/>
  <path d="M6.16211 11.2012C5.87891 11.2012 5.53711 11.0352 5.53711 10.5566L5.53711 9.90234L3.83789 9.90234C3.4082 9.90234 3.11523 9.60938 3.11523 9.17969C3.11523 8.90625 3.16406 8.68164 3.31055 8.33984L4.59961 5.43945C4.84375 4.89258 5.14648 4.58008 5.77148 4.58008C6.36719 4.58008 6.75781 4.92188 6.75781 5.52734L6.75781 8.86719L6.99219 8.86719C7.35352 8.86719 7.49023 9.0918 7.49023 9.375C7.49023 9.66797 7.33398 9.90234 6.99219 9.90234L6.75781 9.90234L6.75781 10.5566C6.75781 11.0059 6.48438 11.2012 6.16211 11.2012ZM5.56641 8.89648L5.56641 5.66406L5.53711 5.66406L4.19922 8.83789L4.19922 8.89648ZM10.2832 11.2402C9.42383 11.2402 8.56445 10.8496 8.33008 10.0977C8.29102 9.96094 8.27148 9.83398 8.27148 9.67773C8.27148 9.33594 8.50586 9.12109 8.85742 9.12109C9.14062 9.12109 9.32617 9.26758 9.42383 9.55078C9.52148 9.86328 9.74609 10.2148 10.2832 10.2148C10.8203 10.2148 11.0938 9.78516 11.0938 9.27734C11.0938 8.64258 10.752 8.29102 10.1074 8.29102L9.95117 8.29102C9.6582 8.29102 9.46289 8.125 9.46289 7.83203C9.46289 7.53906 9.6582 7.35352 9.95117 7.35352L10.0977 7.35352C10.6738 7.35352 10.9668 6.96289 10.9668 6.41602C10.9668 5.92773 10.7422 5.55664 10.2539 5.55664C9.84375 5.55664 9.62891 5.81055 9.49219 6.25977C9.4043 6.55273 9.21875 6.66016 8.92578 6.66016C8.56445 6.66016 8.36914 6.41602 8.36914 6.13281C8.36914 5.98633 8.39844 5.84961 8.4375 5.70312C8.67188 5 9.42383 4.54102 10.2539 4.54102C11.3086 4.54102 12.1777 5.14648 12.1777 6.2793C12.1777 6.94336 11.8164 7.57812 11.1035 7.77344L11.1035 7.80273C11.7383 7.87109 12.3633 8.32031 12.3633 9.33594C12.3633 10.5273 11.4551 11.2402 10.2832 11.2402Z" fill="var(--color-primary)"/>
 </g>
</svg>
