<svg version="1.1" xmlns="http://www.w3.org/2000/svg" xmlns:xlink="http://www.w3.org/1999/xlink" viewBox="0 0 16.1328 15.7715">
 <g>
  <rect height="15.7715" opacity="0" width="16.1328" x="0" y="0"/>
  <path d="M7.88086 15.7617C12.2363 15.7617 15.7715 12.2266 15.7715 7.88086C15.7715 3.53516 12.2363 0 7.88086 0C3.53516 0 0 3.53516 0 7.88086C0 12.2266 3.53516 15.7617 7.88086 15.7617Z" fill="var(--color-tertiary)"/>
  <path d="M5.04883 6.64062C5.04883 5.12695 6.20117 4.0625 7.89062 4.0625C9.58008 4.0625 10.7324 5.12695 10.7324 6.70898C10.7324 7.58789 10.3906 8.4082 9.6582 9.375C9.19922 9.98047 8.67188 10.6738 8.26172 11.1816C7.99805 11.4941 7.87109 11.6992 7.5293 11.6992C7.1582 11.6992 6.92383 11.4453 6.92383 11.1719C6.92383 10.9961 6.99219 10.8398 7.14844 10.6641C7.51953 10.2051 8.03711 9.58008 8.51562 8.97461C8.68164 8.7793 8.80859 8.60352 8.86719 8.50586L8.75 8.50586C8.49609 8.7793 7.93945 8.96484 7.43164 8.96484C6.05469 8.96484 5.04883 7.97852 5.04883 6.64062ZM6.31836 6.58203C6.31836 7.38281 6.99219 7.95898 7.89062 7.95898C8.7793 7.95898 9.45312 7.38281 9.45312 6.58203C9.45312 5.80078 8.76953 5.21484 7.89062 5.21484C6.99219 5.21484 6.31836 5.80078 6.31836 6.58203Z" fill="var(--color-primary)"/>
 </g>
</svg>
