<svg version="1.1" xmlns="http://www.w3.org/2000/svg" xmlns:xlink="http://www.w3.org/1999/xlink" viewBox="0 0 16.1328 15.7715">
 <g>
  <rect height="15.7715" opacity="0" width="16.1328" x="0" y="0"/>
  <path d="M7.88086 15.7617C12.2363 15.7617 15.7715 12.2363 15.7715 7.88086C15.7715 3.52539 12.2363 0 7.88086 0C3.53516 0 0 3.52539 0 7.88086C0 12.2363 3.53516 15.7617 7.88086 15.7617ZM7.88086 14.2773C4.3457 14.2773 1.49414 11.416 1.49414 7.88086C1.49414 4.3457 4.3457 1.48438 7.88086 1.48438C11.416 1.48438 14.2773 4.3457 14.2773 7.88086C14.2773 11.416 11.416 14.2773 7.88086 14.2773Z" fill="var(--color-secondary)"/>
  <path d="M5.63477 5.64453C4.27734 7.01172 3.58398 9.22852 4.0918 10.918C4.21875 11.3867 4.36523 11.5234 4.82422 11.6602C6.51367 12.1582 8.74023 11.4746 10.1074 10.1172C11.4648 8.75 12.1484 6.52344 11.6504 4.83398C11.5137 4.375 11.377 4.22852 10.9082 4.0918C9.21875 3.59375 7.00195 4.28711 5.63477 5.64453ZM8.68164 6.28906L9.46289 7.06055C9.54102 7.13867 9.53125 7.26562 9.46289 7.34375C9.38477 7.41211 9.25781 7.41211 9.18945 7.33398L8.93555 7.08984L8.68164 7.34375L8.93555 7.59766C9.00391 7.66602 9.01367 7.7832 8.93555 7.87109C8.85742 7.94922 8.74023 7.92969 8.66211 7.86133L8.4082 7.60742L8.1543 7.86133L8.39844 8.125C8.4668 8.20312 8.48633 8.32031 8.39844 8.38867C8.33008 8.47656 8.21289 8.45703 8.14453 8.38867L7.88086 8.1543L7.61719 8.39844L7.88086 8.64258C7.95898 8.7207 7.96875 8.84766 7.88086 8.92578C7.80273 9.00391 7.68555 9.00391 7.59766 8.91602L7.36328 8.67188L7.10938 8.91602L7.35352 9.17969C7.42188 9.24805 7.42188 9.36523 7.35352 9.45312C7.27539 9.52148 7.1582 9.52148 7.08008 9.44336L6.29883 8.67188C6.2207 8.60352 6.23047 8.47656 6.29883 8.39844C6.38672 8.33008 6.50391 8.33008 6.57227 8.39844L6.82617 8.64258L7.08008 8.38867L6.82617 8.1543C6.73828 8.07617 6.74805 7.94922 6.82617 7.87109C6.9043 7.7832 7.03125 7.7832 7.10938 7.86133L7.36328 8.125L7.59766 7.86133L7.36328 7.60742C7.28516 7.53906 7.27539 7.42188 7.36328 7.35352C7.43164 7.26562 7.54883 7.27539 7.61719 7.34375L7.88086 7.59766L8.14453 7.34375L7.88086 7.08984C7.80273 7.02148 7.80273 6.89453 7.88086 6.81641C7.96875 6.73828 8.07617 6.73828 8.1543 6.81641L8.4082 7.06055L8.66211 6.81641L8.4082 6.5625C8.33008 6.50391 8.33984 6.36719 8.4082 6.28906C8.48633 6.2207 8.60352 6.21094 8.68164 6.28906Z" fill="var(--color-primary)"/>
 </g>
</svg>
