<svg version="1.1" xmlns="http://www.w3.org/2000/svg" xmlns:xlink="http://www.w3.org/1999/xlink" viewBox="0 0 16.1328 15.7715">
 <g>
  <rect height="15.7715" opacity="0" width="16.1328" x="0" y="0"/>
  <path d="M15.7715 7.88086C15.7715 12.2266 12.2363 15.7617 7.88086 15.7617C3.53516 15.7617 0 12.2266 0 7.88086C0 3.53516 3.53516 0 7.88086 0C12.2363 0 15.7715 3.53516 15.7715 7.88086ZM5.56641 5.56641C4.15039 6.97266 3.4375 9.28711 3.95508 11.0254C4.10156 11.5137 4.24805 11.6602 4.72656 11.7969C6.47461 12.3242 8.79883 11.6113 10.2051 10.1953C11.6211 8.78906 12.334 6.47461 11.7969 4.72656C11.6699 4.24805 11.5234 4.0918 11.0352 3.94531C9.28711 3.42773 6.98242 4.15039 5.56641 5.56641ZM8.73047 6.23047L9.53125 7.03125C9.61914 7.10938 9.60938 7.23633 9.53125 7.33398C9.46289 7.39258 9.33594 7.39258 9.24805 7.32422L8.98438 7.06055L8.7207 7.32422L8.98438 7.58789C9.0625 7.65625 9.07227 7.7832 8.98438 7.87109C8.90625 7.94922 8.78906 7.92969 8.70117 7.86133L8.4375 7.59766L8.17383 7.86133L8.4375 8.13477C8.50586 8.21289 8.53516 8.33984 8.4375 8.4082C8.36914 8.49609 8.23242 8.47656 8.16406 8.4082L7.90039 8.16406L7.62695 8.4082L7.89062 8.67188C7.96875 8.75 7.97852 8.88672 7.89062 8.96484C7.82227 9.04297 7.69531 9.04297 7.60742 8.95508L7.35352 8.70117L7.08984 8.95508L7.35352 9.21875C7.42188 9.30664 7.42188 9.42383 7.35352 9.51172C7.26562 9.58984 7.13867 9.58984 7.07031 9.50195L6.25977 8.70117C6.17188 8.63281 6.18164 8.49609 6.25977 8.41797C6.34766 8.34961 6.45508 8.34961 6.54297 8.41797L6.80664 8.67188L7.07031 8.4082L6.80664 8.16406C6.70898 8.08594 6.71875 7.94922 6.80664 7.87109C6.88477 7.7832 7.02148 7.7832 7.09961 7.86133L7.35352 8.13477L7.60742 7.86133L7.35352 7.59766C7.27539 7.5293 7.27539 7.40234 7.35352 7.33398C7.42188 7.23633 7.54883 7.25586 7.62695 7.32422L7.90039 7.58789L8.16406 7.32422L7.90039 7.06055C7.82227 6.99219 7.82227 6.85547 7.90039 6.78711C7.98828 6.69922 8.0957 6.69922 8.17383 6.78711L8.4375 7.03125L8.71094 6.77734L8.4375 6.52344C8.35938 6.44531 8.36914 6.30859 8.4375 6.23047C8.53516 6.15234 8.65234 6.14258 8.73047 6.23047Z" fill="var(--color-primary)"/>
 </g>
</svg>
