<svg version="1.1" xmlns="http://www.w3.org/2000/svg" xmlns:xlink="http://www.w3.org/1999/xlink" viewBox="0 0 14.6582 14.3066">
 <g>
  <rect height="14.3066" opacity="0" width="14.6582" x="0" y="0"/>
  <path d="M0 6.88477L3.63281 6.88477C2.63672 6.42578 2.00195 5.5957 2.00195 4.58008C2.00195 3.34961 2.93945 2.41211 4.16992 2.41211C5.17578 2.41211 6.03516 2.97852 6.58203 3.96484L6.58203 0L7.71484 0L7.71484 3.96484C8.26172 2.97852 9.12109 2.41211 10.127 2.41211C11.3574 2.41211 12.2852 3.34961 12.2852 4.58008C12.2852 5.5957 11.6602 6.42578 10.6641 6.88477L14.2969 6.88477L14.2969 7.91992L8.62305 7.91992C9.00391 8.71094 10.4785 10.166 11.6406 10.2734C12.1094 10.3125 12.3828 10.6055 12.3828 11.0742C12.3828 11.4746 12.0508 11.8555 11.5234 11.7871C10.2148 11.6113 8.18359 10.0781 7.7832 8.51562L7.71484 8.51562L7.71484 14.2969L6.58203 14.2969L6.58203 8.51562L6.51367 8.51562C6.11328 10.0781 4.08203 11.6113 2.77344 11.7871C2.24609 11.8555 1.91406 11.4746 1.91406 11.0742C1.91406 10.6055 2.1875 10.3223 2.65625 10.2734C3.81836 10.1465 5.29297 8.71094 5.67383 7.91992L0 7.91992ZM6.17188 6.73828L6.42578 6.73828L6.42578 6.50391C6.42578 5.01953 5.42969 3.75 4.24805 3.75C3.67188 3.75 3.32031 4.11133 3.32031 4.6875C3.32031 5.66406 4.60938 6.73828 6.17188 6.73828ZM8.125 6.73828C9.6875 6.73828 10.9766 5.66406 10.9766 4.6875C10.9766 4.11133 10.625 3.75 10.0488 3.75C8.86719 3.75 7.87109 5.01953 7.87109 6.50391L7.87109 6.73828ZM13.3789 0.927734C12.5488 0.107422 11.377 0 10.127 0L4.16992 0C2.91992 0 1.74805 0.107422 0.917969 0.927734C0.0976562 1.75781 0 2.91992 0 4.16992L0 10.127C0 11.3867 0.0976562 12.5391 0.917969 13.3691C1.74805 14.1895 2.91016 14.2969 4.16992 14.2969L10.127 14.2969C11.377 14.2969 12.5488 14.1895 13.3789 13.3691C14.1992 12.5391 14.2969 11.3867 14.2969 10.127L14.2969 4.16992C14.2969 2.91016 14.1992 1.75781 13.3789 0.927734Z" fill="var(--color-primary)"/>
 </g>
</svg>
