<svg version="1.1" xmlns="http://www.w3.org/2000/svg" xmlns:xlink="http://www.w3.org/1999/xlink" viewBox="0 0 16.5918 15.7715">
 <g>
  <rect height="15.7715" opacity="0" width="16.5918" x="0" y="0"/>
  <path d="M7.53906 15.7617C12.2559 15.7617 16.2305 11.9922 16.2305 6.98242C16.2305 3.05664 13.1934 0 9.16992 0C4.58008 0 0 3.84766 0 8.71094C0 12.8418 3.11523 15.7617 7.53906 15.7617Z" fill="var(--color-tertiary)"/>
  <path d="M9.20898 12.5293C9.02344 12.5293 8.90625 12.4023 8.87695 12.2266C8.53516 9.83398 8.1543 9.45312 5.77148 9.11133C5.58594 9.08203 5.45898 8.96484 5.45898 8.7793C5.45898 8.58398 5.58594 8.4668 5.77148 8.44727C8.1543 8.10547 8.53516 7.71484 8.87695 5.33203C8.90625 5.15625 9.02344 5.0293 9.20898 5.0293C9.4043 5.0293 9.51172 5.15625 9.55078 5.33203C9.88281 7.71484 10.2734 8.10547 12.666 8.44727C12.832 8.4668 12.959 8.58398 12.959 8.7793C12.959 8.96484 12.832 9.08203 12.666 9.11133C10.2734 9.45312 9.88281 9.83398 9.55078 12.2266C9.51172 12.4023 9.4043 12.5293 9.20898 12.5293ZM5.75195 7.2168C5.625 7.2168 5.54688 7.14844 5.52734 7.03125C5.37109 5.89844 5.19531 5.71289 4.07227 5.55664C3.93555 5.53711 3.85742 5.44922 3.85742 5.33203C3.85742 5.21484 3.93555 5.13672 4.07227 5.11719C5.19531 4.96094 5.37109 4.77539 5.52734 3.64258C5.54688 3.52539 5.625 3.44727 5.75195 3.44727C5.86914 3.44727 5.95703 3.52539 5.97656 3.64258C6.13281 4.77539 6.30859 4.96094 7.42188 5.11719C7.55859 5.13672 7.63672 5.21484 7.63672 5.33203C7.63672 5.44922 7.55859 5.53711 7.42188 5.55664C6.30859 5.71289 6.13281 5.89844 5.97656 7.03125C5.95703 7.14844 5.86914 7.2168 5.75195 7.2168Z" fill="var(--color-primary)"/>
 </g>
</svg>
