<svg version="1.1" xmlns="http://www.w3.org/2000/svg" xmlns:xlink="http://www.w3.org/1999/xlink" viewBox="0 0 14.5898 14.248">
 <g>
  <rect height="14.248" opacity="0" width="14.5898" x="0" y="0"/>
  <path d="M14.2285 2.4707L14.2285 11.7871C14.2285 13.4277 13.4082 14.248 11.7383 14.248L2.49023 14.248C0.830078 14.248 0 13.4277 0 11.7871L0 2.4707C0 0.830078 0.830078 0.00976562 2.49023 0.00976562L11.7383 0.00976562C13.4082 0.00976562 14.2285 0.830078 14.2285 2.4707ZM9.0332 4.23828L6.42578 6.85547L5.19531 8.16406L5.3418 6.97266L5.3418 5.83008C5.3418 5.40039 5.07812 5.12695 4.66797 5.12695C4.27734 5.12695 4.01367 5.42969 4.01367 5.84961L4.01367 9.46289C4.01367 10 4.30664 10.2148 4.77539 10.2148L8.4082 10.2148C8.82812 10.2148 9.10156 9.95117 9.10156 9.54102C9.10156 9.15039 8.82812 8.88672 8.38867 8.88672L7.23633 8.88672L6.04492 9.0332L7.38281 7.79297L9.99023 5.19531C10.127 5.05859 10.2051 4.88281 10.2051 4.7168C10.2051 4.29688 9.94141 4.0332 9.55078 4.0332C9.33594 4.0332 9.16016 4.11133 9.0332 4.23828Z" fill="var(--color-primary)"/>
 </g>
</svg>
