<svg version="1.1" xmlns="http://www.w3.org/2000/svg" xmlns:xlink="http://www.w3.org/1999/xlink" viewBox="0 0 16.1328 15.7715">
 <g>
  <rect height="15.7715" opacity="0" width="16.1328" x="0" y="0"/>
  <path d="M7.88086 15.7617C12.2363 15.7617 15.7715 12.2266 15.7715 7.88086C15.7715 3.53516 12.2363 0 7.88086 0C3.53516 0 0 3.53516 0 7.88086C0 12.2266 3.53516 15.7617 7.88086 15.7617Z" fill="var(--color-tertiary)"/>
  <path d="M4.21875 5.07812L6.14258 3.21289C6.25977 3.10547 6.41602 3.02734 6.5625 3.02734C6.89453 3.02734 7.13867 3.26172 7.13867 3.60352C7.13867 3.75977 7.08008 3.90625 6.96289 4.00391L6.20117 4.74609L5.97656 4.94141L6.26953 4.93164L11.1523 4.93164C11.4844 4.93164 11.7285 5.17578 11.7285 5.51758C11.7285 5.83984 11.4844 6.09375 11.1523 6.09375L6.25977 6.09375L5.9668 6.07422L6.20117 6.2793L6.96289 7.02148C7.08008 7.12891 7.13867 7.26562 7.13867 7.42188C7.13867 7.76367 6.89453 7.98828 6.5625 7.98828C6.42578 7.98828 6.26953 7.91992 6.14258 7.83203L4.21875 5.94727C3.98438 5.72266 3.97461 5.30273 4.21875 5.07812ZM11.543 10.6934L9.61914 12.5781C9.49219 12.6855 9.33594 12.7539 9.19922 12.7539C8.86719 12.7539 8.62305 12.5098 8.62305 12.1777C8.62305 12.0215 8.69141 11.8848 8.80859 11.7773L9.57031 11.0352L9.80469 10.8398L9.48242 10.8496L4.59961 10.8496C4.27734 10.8496 4.0332 10.6055 4.0332 10.2734C4.0332 9.93164 4.27734 9.6875 4.59961 9.6875L9.49219 9.6875L9.80469 9.70703L9.57031 9.50195L8.78906 8.75977C8.68164 8.65234 8.62305 8.51562 8.62305 8.35938C8.62305 8.02734 8.85742 7.79297 9.19922 7.79297C9.3457 7.79297 9.51172 7.87109 9.61914 7.95898L11.543 9.84375C11.7773 10.0781 11.7871 10.4492 11.543 10.6934Z" fill="var(--color-primary)"/>
 </g>
</svg>
