<svg version="1.1" xmlns="http://www.w3.org/2000/svg" xmlns:xlink="http://www.w3.org/1999/xlink" viewBox="0 0 14.5898 14.248">
 <g>
  <rect height="14.248" opacity="0" width="14.5898" x="0" y="0"/>
  <path d="M2.49023 14.248L11.7383 14.248C13.4082 14.248 14.2285 13.4277 14.2285 11.7871L14.2285 2.4707C14.2285 0.830078 13.4082 0.00976562 11.7383 0.00976562L2.49023 0.00976562C0.830078 0.00976562 0 0.830078 0 2.4707L0 11.7871C0 13.4277 0.830078 14.248 2.49023 14.248Z" fill="var(--color-tertiary)"/>
  <path d="M11.1328 7.10938C11.1328 7.29492 11.084 7.45117 10.8887 7.63672L8.4082 10.2344C8.27148 10.3711 8.125 10.4492 7.92969 10.4492C7.55859 10.4492 7.29492 10.1758 7.29492 9.80469C7.29492 9.61914 7.36328 9.42383 7.50977 9.30664L8.7207 8.18359L9.16016 7.77344L7.94922 7.83203L3.76953 7.83203C3.38867 7.83203 3.06641 7.5 3.06641 7.10938C3.06641 6.71875 3.38867 6.38672 3.76953 6.38672L7.94922 6.38672L9.16016 6.44531L8.7207 6.03516L7.50977 4.91211C7.36328 4.79492 7.29492 4.60938 7.29492 4.42383C7.29492 4.05273 7.55859 3.76953 7.92969 3.76953C8.125 3.76953 8.27148 3.84766 8.4082 3.98438L10.8887 6.58203C11.084 6.76758 11.1328 6.92383 11.1328 7.10938Z" fill="var(--color-primary)"/>
 </g>
</svg>
