<svg version="1.1" xmlns="http://www.w3.org/2000/svg" xmlns:xlink="http://www.w3.org/1999/xlink" viewBox="0 0 16.1328 15.7715">
 <g>
  <rect height="15.7715" opacity="0" width="16.1328" x="0" y="0"/>
  <path d="M7.88086 15.7617C12.2363 15.7617 15.7715 12.2363 15.7715 7.88086C15.7715 3.52539 12.2363 0 7.88086 0C3.53516 0 0 3.52539 0 7.88086C0 12.2363 3.53516 15.7617 7.88086 15.7617ZM7.88086 14.2773C4.3457 14.2773 1.49414 11.416 1.49414 7.88086C1.49414 4.3457 4.3457 1.48438 7.88086 1.48438C11.416 1.48438 14.2773 4.3457 14.2773 7.88086C14.2773 11.416 11.416 14.2773 7.88086 14.2773Z" fill="var(--color-secondary)"/>
  <path d="M10.2148 9.80469C10.6055 9.80469 10.8594 9.51172 10.8594 9.11133L10.8594 5.63477C10.8594 5.10742 10.5762 4.91211 10.127 4.91211L6.62109 4.91211C6.21094 4.91211 5.94727 5.16602 5.94727 5.54688C5.94727 5.92773 6.2207 6.18164 6.64062 6.18164L7.75391 6.18164L8.89648 6.03516L7.60742 7.23633L5.08789 9.74609C4.9707 9.87305 4.88281 10.0391 4.88281 10.2148C4.88281 10.6055 5.13672 10.8594 5.52734 10.8594C5.73242 10.8594 5.88867 10.7812 6.01562 10.6641L8.53516 8.14453L9.7168 6.875L9.58008 8.02734L9.58008 9.13086C9.58008 9.54102 9.83398 9.80469 10.2148 9.80469Z" fill="var(--color-primary)"/>
 </g>
</svg>
