<svg version="1.1" xmlns="http://www.w3.org/2000/svg" xmlns:xlink="http://www.w3.org/1999/xlink" viewBox="0 0 14.5898 14.248">
 <g>
  <rect height="14.248" opacity="0" width="14.5898" x="0" y="0"/>
  <path d="M2.49023 14.248L11.7383 14.248C13.4082 14.248 14.2285 13.4277 14.2285 11.7871L14.2285 2.4707C14.2285 0.830078 13.4082 0.00976562 11.7383 0.00976562L2.49023 0.00976562C0.830078 0.00976562 0 0.830078 0 2.4707L0 11.7871C0 13.4277 0.830078 14.248 2.49023 14.248Z" fill="var(--color-tertiary)"/>
  <path d="M7.12891 3.08594C7.31445 3.08594 7.46094 3.14453 7.64648 3.33008L10.2441 5.81055C10.3906 5.94727 10.459 6.09375 10.459 6.28906C10.459 6.66016 10.1855 6.92383 9.80469 6.92383C9.62891 6.92383 9.44336 6.85547 9.31641 6.70898L8.19336 5.49805L7.79297 5.05859L7.85156 6.26953L7.85156 10.4492C7.85156 10.8398 7.51953 11.1523 7.12891 11.1523C6.72852 11.1523 6.40625 10.8398 6.40625 10.4492L6.40625 6.26953L6.45508 5.05859L6.05469 5.49805L4.93164 6.70898C4.80469 6.85547 4.60938 6.92383 4.43359 6.92383C4.0625 6.92383 3.78906 6.66016 3.78906 6.28906C3.78906 6.09375 3.85742 5.94727 4.00391 5.81055L6.60156 3.33008C6.78711 3.14453 6.93359 3.08594 7.12891 3.08594Z" fill="var(--color-primary)"/>
 </g>
</svg>
