<svg version="1.1" xmlns="http://www.w3.org/2000/svg" xmlns:xlink="http://www.w3.org/1999/xlink" viewBox="0 0 14.5898 14.248">
 <g>
  <rect height="14.248" opacity="0" width="14.5898" x="0" y="0"/>
  <path d="M2.49023 14.248L11.7383 14.248C13.4082 14.248 14.2285 13.4277 14.2285 11.7871L14.2285 2.4707C14.2285 0.830078 13.4082 0.00976562 11.7383 0.00976562L2.49023 0.00976562C0.830078 0.00976562 0 0.830078 0 2.4707L0 11.7871C0 13.4277 0.830078 14.248 2.49023 14.248Z" fill="var(--color-tertiary)"/>
  <path d="M4.36523 9.60938C3.96484 9.60938 3.79883 9.12109 4.01367 8.75977L6.66016 4.24805C6.86523 3.90625 7.35352 3.88672 7.56836 4.24805L10.2051 8.75977C10.4297 9.15039 10.2637 9.60938 9.85352 9.60938Z" fill="var(--color-primary)"/>
 </g>
</svg>
