<svg version="1.1" xmlns="http://www.w3.org/2000/svg" xmlns:xlink="http://www.w3.org/1999/xlink" viewBox="0 0 16.1328 15.7715">
 <g>
  <rect height="15.7715" opacity="0" width="16.1328" x="0" y="0"/>
  <path d="M7.88086 15.7617C12.2363 15.7617 15.7715 12.2266 15.7715 7.88086C15.7715 3.53516 12.2363 0 7.88086 0C3.53516 0 0 3.53516 0 7.88086C0 12.2266 3.53516 15.7617 7.88086 15.7617Z" fill="var(--color-tertiary)"/>
  <path d="M7.89062 11.9141C7.70508 11.9141 7.55859 11.8555 7.37305 11.6699L4.76562 9.18945C4.62891 9.05273 4.55078 8.90625 4.55078 8.71094C4.55078 8.33984 4.82422 8.07617 5.20508 8.07617C5.38086 8.07617 5.57617 8.14453 5.70312 8.29102L6.81641 9.50195L7.22656 9.94141L7.16797 8.73047L7.16797 4.55078C7.16797 4.16016 7.5 3.84766 7.89062 3.84766C8.29102 3.84766 8.61328 4.16016 8.61328 4.55078L8.61328 8.73047L8.56445 9.94141L8.96484 9.50195L10.0879 8.29102C10.2051 8.14453 10.4004 8.07617 10.5762 8.07617C10.9473 8.07617 11.2305 8.33984 11.2305 8.71094C11.2305 8.90625 11.1621 9.05273 11.0156 9.18945L8.41797 11.6699C8.23242 11.8555 8.08594 11.9141 7.89062 11.9141Z" fill="var(--color-primary)"/>
 </g>
</svg>
