<svg version="1.1" xmlns="http://www.w3.org/2000/svg" xmlns:xlink="http://www.w3.org/1999/xlink" viewBox="0 0 16.1328 15.7715">
 <g>
  <rect height="15.7715" opacity="0" width="16.1328" x="0" y="0"/>
  <path d="M7.88086 15.7617C12.2363 15.7617 15.7715 12.2266 15.7715 7.88086C15.7715 3.53516 12.2363 0 7.88086 0C3.53516 0 0 3.53516 0 7.88086C0 12.2266 3.53516 15.7617 7.88086 15.7617Z" fill="var(--color-tertiary)"/>
  <path d="M4.98047 4.22852C5.23438 3.97461 5.60547 3.99414 5.83984 4.22852L7.71484 6.16211C7.8125 6.25977 7.89062 6.43555 7.89062 6.57227C7.89062 6.91406 7.65625 7.14844 7.32422 7.14844C7.16797 7.14844 7.02148 7.08984 6.92383 6.99219L6.17188 6.21094L5.97656 5.97656L5.99609 6.2793L5.99609 11.1719C5.99609 11.4941 5.75195 11.7383 5.40039 11.7383C5.07812 11.7383 4.83398 11.4941 4.83398 11.1719L4.83398 6.28906L4.84375 5.97656L4.63867 6.21094L3.89648 6.97266C3.78906 7.08008 3.65234 7.14844 3.49609 7.14844C3.16406 7.14844 2.91992 6.9043 2.91992 6.57227C2.91992 6.44531 2.99805 6.2793 3.0957 6.16211ZM10.8008 11.5625C10.5664 11.7969 10.1465 11.7969 9.92188 11.5625L8.04688 9.62891C7.93945 9.50195 7.88086 9.3457 7.88086 9.20898C7.88086 8.87695 8.10547 8.64258 8.44727 8.64258C8.60352 8.64258 8.75 8.69141 8.84766 8.80859L9.58984 9.57031L9.79492 9.80469L9.77539 9.51172L9.77539 4.61914C9.77539 4.28711 10.0293 4.04297 10.3613 4.04297C10.6934 4.04297 10.9375 4.28711 10.9375 4.61914L10.9375 9.50195L10.9277 9.79492L11.123 9.57031L11.875 8.80859C11.9727 8.70117 12.1191 8.64258 12.2656 8.64258C12.6172 8.64258 12.8516 8.87695 12.8516 9.20898C12.8516 9.35547 12.7637 9.51172 12.666 9.62891Z" fill="var(--color-primary)"/>
 </g>
</svg>
