<svg version="1.1" xmlns="http://www.w3.org/2000/svg" xmlns:xlink="http://www.w3.org/1999/xlink" viewBox="0 0 14.5898 14.248">
 <g>
  <rect height="14.248" opacity="0" width="14.5898" x="0" y="0"/>
  <path d="M2.49023 14.248L11.7383 14.248C13.4082 14.248 14.2285 13.4277 14.2285 11.7871L14.2285 2.4707C14.2285 0.830078 13.4082 0.00976562 11.7383 0.00976562L2.49023 0.00976562C0.830078 0.00976562 0 0.830078 0 2.4707L0 11.7871C0 13.4277 0.830078 14.248 2.49023 14.248Z" fill="var(--color-tertiary)"/>
  <path d="M2.53906 7.72461L2.57812 5.04883C2.57812 4.89258 2.64648 4.7168 2.75391 4.61914C2.98828 4.375 3.32031 4.375 3.56445 4.61914C3.67188 4.73633 3.74023 4.87305 3.73047 5.0293L3.71094 6.10352L3.69141 6.38672L3.88672 6.17188L7.34375 2.71484C7.57812 2.48047 7.92969 2.48047 8.16406 2.71484C8.39844 2.95898 8.39844 3.30078 8.16406 3.53516L4.7168 6.99219L4.48242 7.19727L4.79492 7.17773L5.86914 7.1582C6.01562 7.1582 6.15234 7.20703 6.26953 7.33398C6.50391 7.56836 6.50391 7.90039 6.25977 8.13477C6.16211 8.22266 6.00586 8.30078 5.84961 8.31055L3.14453 8.34961C2.82227 8.35938 2.53906 8.06641 2.53906 7.72461ZM11.6992 6.51367L11.6602 9.21875C11.6504 9.375 11.5918 9.54102 11.4941 9.63867C11.25 9.87305 10.918 9.87305 10.6836 9.63867C10.5664 9.52148 10.5176 9.38477 10.5176 9.21875L10.5371 8.14453L10.5664 7.85156L10.3516 8.08594L6.89453 11.5332C6.66016 11.7676 6.31836 11.7676 6.08398 11.5332C5.83984 11.2891 5.83984 10.9473 6.07422 10.7129L9.53125 7.25586L9.76562 7.05078L9.46289 7.07031L8.37891 7.09961C8.22266 7.09961 8.0957 7.04102 7.96875 6.92383C7.73438 6.68945 7.73438 6.36719 7.97852 6.12305C8.08594 6.02539 8.26172 5.94727 8.39844 5.94727L11.0938 5.9082C11.4258 5.9082 11.6992 6.16211 11.6992 6.51367Z" fill="var(--color-primary)"/>
 </g>
</svg>
