<svg version="1.1" xmlns="http://www.w3.org/2000/svg" xmlns:xlink="http://www.w3.org/1999/xlink" viewBox="0 0 18.4766 14.248">
 <g>
  <rect height="14.248" opacity="0" width="18.4766" x="0" y="0"/>
  <path d="M2.49023 14.248L15.625 14.248C17.2949 14.248 18.1152 13.4277 18.1152 11.7871L18.1152 2.4707C18.1152 0.830078 17.2949 0.00976562 15.625 0.00976562L2.49023 0.00976562C0.830078 0.00976562 0 0.830078 0 2.4707L0 11.7871C0 13.4277 0.830078 14.248 2.49023 14.248Z" fill="var(--color-tertiary)"/>
  <path d="M8.07617 2.56836C8.4668 2.56836 8.7207 2.86133 8.7207 3.26172L8.7207 6.29883C8.7207 6.80664 8.4375 7.02148 7.99805 7.02148L4.93164 7.02148C4.53125 7.02148 4.25781 6.75781 4.25781 6.37695C4.25781 6.00586 4.53125 5.74219 4.94141 5.74219L5.77148 5.74219L6.72852 5.85938L5.60547 4.83398L4.26758 3.48633C4.16016 3.36914 4.0625 3.20312 4.0625 3.02734C4.0625 2.63672 4.32617 2.38281 4.69727 2.38281C4.91211 2.38281 5.05859 2.45117 5.19531 2.57812L6.52344 3.90625L7.55859 5.01953L7.45117 4.0625L7.45117 3.24219C7.45117 2.8418 7.70508 2.56836 8.07617 2.56836ZM10.0391 11.6895C9.6582 11.6895 9.4043 11.3965 9.4043 10.9961L9.4043 7.94922C9.4043 7.45117 9.6875 7.23633 10.127 7.23633L13.1934 7.23633C13.584 7.23633 13.8574 7.49023 13.8574 7.88086C13.8574 8.25195 13.584 8.51562 13.1738 8.51562L12.3535 8.51562L11.3867 8.39844L12.5195 9.42383L13.8477 10.7617C13.9648 10.8887 14.0625 11.0547 14.0625 11.2305C14.0625 11.6211 13.7988 11.875 13.418 11.875C13.2129 11.875 13.0566 11.7969 12.9297 11.6797L11.6016 10.3516L10.5566 9.23828L10.6738 10.1953L10.6738 11.0156C10.6738 11.416 10.4199 11.6895 10.0391 11.6895Z" fill="var(--color-primary)"/>
 </g>
</svg>
