<svg version="1.1" xmlns="http://www.w3.org/2000/svg" xmlns:xlink="http://www.w3.org/1999/xlink" viewBox="0 0 16.1328 15.7715">
 <g>
  <rect height="15.7715" opacity="0" width="16.1328" x="0" y="0"/>
  <path d="M7.88086 15.7617C12.2363 15.7617 15.7715 12.2266 15.7715 7.88086C15.7715 3.53516 12.2363 0 7.88086 0C3.53516 0 0 3.53516 0 7.88086C0 12.2266 3.53516 15.7617 7.88086 15.7617Z" fill="var(--color-tertiary)"/>
  <path d="M7.89062 3.84766C8.08594 3.84766 8.23242 3.90625 8.41797 4.0918L11.0156 6.57227C11.1621 6.70898 11.2305 6.85547 11.2305 7.05078C11.2305 7.42188 10.9473 7.68555 10.5762 7.68555C10.4004 7.68555 10.2051 7.61719 10.0879 7.4707L8.96484 6.25977L8.56445 5.82031L8.61328 7.03125L8.61328 11.2109C8.61328 11.6016 8.29102 11.9141 7.89062 11.9141C7.5 11.9141 7.16797 11.6016 7.16797 11.2109L7.16797 7.03125L7.22656 5.82031L6.81641 6.25977L5.70312 7.4707C5.57617 7.61719 5.38086 7.68555 5.20508 7.68555C4.82422 7.68555 4.55078 7.42188 4.55078 7.05078C4.55078 6.85547 4.62891 6.70898 4.76562 6.57227L7.37305 4.0918C7.55859 3.90625 7.70508 3.84766 7.89062 3.84766Z" fill="var(--color-primary)"/>
 </g>
</svg>
