<svg version="1.1" xmlns="http://www.w3.org/2000/svg" xmlns:xlink="http://www.w3.org/1999/xlink" viewBox="0 0 13.3691 16.4746">
 <g>
  <rect height="16.4746" opacity="0" width="13.3691" x="0" y="0"/>
  <path d="M2.45117 16.4648L10.5469 16.4648C12.1875 16.4648 13.0078 15.6348 13.0078 13.9746L13.0078 7.19727L7.42188 7.19727C6.38672 7.19727 5.89844 6.70898 5.89844 5.67383L5.89844 0L2.45117 0C0.810547 0 0 0.830078 0 2.49023L0 13.9746C0 15.6445 0.810547 16.4648 2.45117 16.4648ZM7.42188 6.05469L12.9199 6.05469C12.8711 5.69336 12.627 5.35156 12.2168 4.93164L8.16406 0.791016C7.76367 0.380859 7.40234 0.126953 7.04102 0.0683594L7.04102 5.67383C7.04102 5.92773 7.17773 6.05469 7.42188 6.05469Z" fill="var(--color-tertiary)"/>
  <path d="M6.50391 14.4531C6.15234 14.4531 5.85938 14.1699 5.85938 13.8281L5.85938 11.4258L5.91797 10.3223L5.48828 10.7617L4.80469 11.4551C4.6875 11.5723 4.52148 11.6406 4.36523 11.6406C4.02344 11.6406 3.76953 11.4062 3.76953 11.0742C3.76953 10.8984 3.83789 10.752 3.96484 10.6445L6.03516 8.7793C6.21094 8.61328 6.33789 8.56445 6.50391 8.56445C6.66016 8.56445 6.79688 8.61328 6.97266 8.7793L9.0332 10.6445C9.16016 10.752 9.22852 10.8984 9.22852 11.0742C9.22852 11.4062 8.97461 11.6406 8.63281 11.6406C8.47656 11.6406 8.32031 11.5723 8.19336 11.4551L7.50977 10.7617L7.08008 10.3223L7.13867 11.4258L7.13867 13.8281C7.13867 14.1699 6.8457 14.4531 6.50391 14.4531Z" fill="var(--color-primary)"/>
 </g>
</svg>
