<svg version="1.1" xmlns="http://www.w3.org/2000/svg" xmlns:xlink="http://www.w3.org/1999/xlink" viewBox="0 0 14.5898 14.248">
 <g>
  <rect height="14.248" opacity="0" width="14.5898" x="0" y="0"/>
  <path d="M2.49023 14.248L11.7383 14.248C13.4082 14.248 14.2285 13.4277 14.2285 11.7871L14.2285 2.4707C14.2285 0.830078 13.4082 0.00976562 11.7383 0.00976562L2.49023 0.00976562C0.830078 0.00976562 0 0.830078 0 2.4707L0 11.7871C0 13.4277 0.830078 14.248 2.49023 14.248ZM2.50977 12.832C1.80664 12.832 1.40625 12.4512 1.40625 11.7188L1.40625 2.53906C1.40625 1.79688 1.80664 1.42578 2.50977 1.42578L11.7188 1.42578C12.4219 1.42578 12.8223 1.79688 12.8223 2.53906L12.8223 11.7188C12.8223 12.4512 12.4219 12.832 11.7188 12.832Z" fill="var(--color-secondary)"/>
  <path d="M3.57422 4.42383C3.34961 4.63867 3.34961 5.03906 3.57422 5.25391L5.43945 7.07031C5.55664 7.1582 5.71289 7.22656 5.83984 7.22656C6.16211 7.22656 6.39648 7.01172 6.39648 6.67969C6.39648 6.5332 6.33789 6.39648 6.23047 6.28906L5.48828 5.57617L5.26367 5.38086L5.54688 5.40039L10.2637 5.40039C10.5859 5.40039 10.8203 5.15625 10.8203 4.83398C10.8203 4.51172 10.5859 4.27734 10.2637 4.27734L5.55664 4.27734L5.27344 4.28711L5.48828 4.10156L6.23047 3.37891C6.33789 3.29102 6.39648 3.14453 6.39648 2.99805C6.39648 2.66602 6.16211 2.44141 5.83984 2.44141C5.70312 2.44141 5.54688 2.51953 5.43945 2.61719ZM10.6445 9.83398C10.8789 9.58984 10.8691 9.23828 10.6445 9.01367L8.7793 7.19727C8.68164 7.10938 8.51562 7.03125 8.38867 7.03125C8.05664 7.03125 7.83203 7.25586 7.83203 7.57812C7.83203 7.72461 7.88086 7.86133 7.98828 7.96875L8.74023 8.68164L8.96484 8.87695L8.67188 8.85742L3.95508 8.85742C3.64258 8.85742 3.4082 9.0918 3.4082 9.42383C3.4082 9.74609 3.64258 9.98047 3.95508 9.98047L8.66211 9.98047L8.96484 9.9707L8.74023 10.1562L7.99805 10.8789C7.89062 10.9766 7.83203 11.1133 7.83203 11.2598C7.83203 11.582 8.06641 11.8164 8.38867 11.8164C8.50586 11.8164 8.67188 11.748 8.7793 11.6504Z" fill="var(--color-primary)"/>
 </g>
</svg>
