<svg version="1.1" xmlns="http://www.w3.org/2000/svg" xmlns:xlink="http://www.w3.org/1999/xlink" viewBox="0 0 14.5898 14.248">
 <g>
  <rect height="14.248" opacity="0" width="14.5898" x="0" y="0"/>
  <path d="M14.2285 2.4707L14.2285 11.7871C14.2285 13.4277 13.4082 14.248 11.7383 14.248L2.49023 14.248C0.830078 14.248 0 13.4277 0 11.7871L0 2.4707C0 0.830078 0.830078 0.00976562 2.49023 0.00976562L11.7383 0.00976562C13.4082 0.00976562 14.2285 0.830078 14.2285 2.4707ZM7.29492 4.42383C7.29492 4.60938 7.36328 4.79492 7.50977 4.91211L8.7207 6.03516L9.16016 6.44531L7.94922 6.38672L3.76953 6.38672C3.38867 6.38672 3.06641 6.71875 3.06641 7.10938C3.06641 7.5 3.38867 7.83203 3.76953 7.83203L7.94922 7.83203L9.16016 7.77344L8.7207 8.18359L7.50977 9.30664C7.36328 9.42383 7.29492 9.61914 7.29492 9.80469C7.29492 10.1758 7.55859 10.4492 7.92969 10.4492C8.125 10.4492 8.27148 10.3711 8.4082 10.2344L10.8887 7.63672C11.084 7.45117 11.1328 7.29492 11.1328 7.10938C11.1328 6.92383 11.084 6.76758 10.8887 6.58203L8.4082 3.98438C8.27148 3.84766 8.125 3.76953 7.92969 3.76953C7.55859 3.76953 7.29492 4.05273 7.29492 4.42383Z" fill="var(--color-primary)"/>
 </g>
</svg>
