<svg version="1.1" xmlns="http://www.w3.org/2000/svg" xmlns:xlink="http://www.w3.org/1999/xlink" viewBox="0 0 17.8809 16.2793">
 <g>
  <rect height="16.2793" opacity="0" width="17.8809" x="0" y="0"/>
  <path d="M3.35938 16.2793C4.45312 16.2793 6.67969 15.1465 8.25195 13.9844C13.7109 14.0234 17.5195 10.918 17.5195 7.00195C17.5195 3.125 13.623 0 8.75977 0C3.90625 0 0 3.125 0 7.00195C0 9.52148 1.61133 11.7676 4.0332 12.8613C3.68164 13.5449 3.01758 14.5117 2.66602 14.9805C2.24609 15.5371 2.50977 16.2793 3.35938 16.2793ZM4.31641 14.8242C4.25781 14.8535 4.23828 14.8047 4.27734 14.7559C4.72656 14.1992 5.32227 13.3789 5.57617 12.9297C5.82031 12.4902 5.76172 12.0801 5.19531 11.8164C2.79297 10.7031 1.44531 8.97461 1.44531 7.00195C1.44531 3.94531 4.6875 1.44531 8.75977 1.44531C12.8418 1.44531 16.0742 3.94531 16.0742 7.00195C16.0742 10.0488 12.8418 12.5488 8.75977 12.5488C8.66211 12.5488 8.4668 12.5488 8.18359 12.5488C7.82227 12.5488 7.54883 12.666 7.22656 12.9297C6.37695 13.5938 5.0293 14.4824 4.31641 14.8242Z" fill="var(--color-primary)"/>
  <path d="M8.76953 10.9766C8.94531 10.9766 9.10156 10.918 9.27734 10.7422L11.7871 8.34961C11.9141 8.21289 11.9922 8.07617 11.9922 7.89062C11.9922 7.5293 11.7188 7.27539 11.3477 7.27539C11.1816 7.27539 11.0059 7.34375 10.8789 7.48047L9.80469 8.65234L9.41406 9.07227L9.46289 7.91016L9.46289 3.87695C9.46289 3.51562 9.15039 3.20312 8.76953 3.20312C8.39844 3.20312 8.07617 3.51562 8.07617 3.87695L8.07617 7.91016L8.13477 9.07227L7.73438 8.65234L6.66016 7.48047C6.54297 7.34375 6.34766 7.27539 6.18164 7.27539C5.81055 7.27539 5.55664 7.5293 5.55664 7.89062C5.55664 8.07617 5.625 8.21289 5.76172 8.34961L8.26172 10.7422C8.4375 10.918 8.59375 10.9766 8.76953 10.9766Z" fill="var(--color-primary)"/>
 </g>
</svg>
