<svg version="1.1" xmlns="http://www.w3.org/2000/svg" xmlns:xlink="http://www.w3.org/1999/xlink" viewBox="0 0 18.4766 14.248">
 <g>
  <rect height="14.248" opacity="0" width="18.4766" x="0" y="0"/>
  <path d="M2.49023 14.248L15.625 14.248C17.2949 14.248 18.1152 13.4277 18.1152 11.7871L18.1152 2.4707C18.1152 0.830078 17.2949 0.00976562 15.625 0.00976562L2.49023 0.00976562C0.830078 0.00976562 0 0.830078 0 2.4707L0 11.7871C0 13.4277 0.830078 14.248 2.49023 14.248Z" fill="var(--color-tertiary)"/>
  <path d="M10.0391 2.56836C10.4199 2.56836 10.6738 2.8418 10.6738 3.24219L10.6738 4.0625L10.5566 5.01953L11.6016 3.90625L12.9297 2.57812C13.0566 2.45117 13.2129 2.38281 13.418 2.38281C13.7988 2.38281 14.0625 2.63672 14.0625 3.02734C14.0625 3.20312 13.9648 3.36914 13.8477 3.48633L12.5195 4.83398L11.3867 5.85938L12.3535 5.74219L13.1738 5.74219C13.584 5.74219 13.8574 6.00586 13.8574 6.37695C13.8574 6.75781 13.584 7.02148 13.1934 7.02148L10.127 7.02148C9.6875 7.02148 9.4043 6.80664 9.4043 6.29883L9.4043 3.26172C9.4043 2.86133 9.6582 2.56836 10.0391 2.56836ZM8.07617 11.6895C7.70508 11.6895 7.45117 11.416 7.45117 11.0156L7.45117 10.1953L7.55859 9.23828L6.52344 10.3516L5.19531 11.6797C5.05859 11.7969 4.91211 11.875 4.69727 11.875C4.32617 11.875 4.0625 11.6211 4.0625 11.2305C4.0625 11.0547 4.16016 10.8887 4.26758 10.7617L5.60547 9.42383L6.72852 8.39844L5.77148 8.51562L4.94141 8.51562C4.53125 8.51562 4.25781 8.25195 4.25781 7.88086C4.25781 7.49023 4.53125 7.23633 4.93164 7.23633L7.99805 7.23633C8.4375 7.23633 8.7207 7.45117 8.7207 7.94922L8.7207 10.9961C8.7207 11.3965 8.4668 11.6895 8.07617 11.6895Z" fill="var(--color-primary)"/>
 </g>
</svg>
