<svg version="1.1" xmlns="http://www.w3.org/2000/svg" xmlns:xlink="http://www.w3.org/1999/xlink" viewBox="0 0 20.1913 16.4746">
 <g>
  <rect height="16.4746" opacity="0" width="20.1913" x="0" y="0"/>
  <path d="M6.8193 13.9746C6.8193 15.6445 7.62985 16.4648 9.27047 16.4648L17.3662 16.4648C19.0068 16.4648 19.8271 15.6445 19.8271 13.9746L19.8271 2.49023C19.8271 0.830078 19.0068 0 17.3662 0L9.27047 0C7.62985 0 6.8193 0.830078 6.8193 2.49023ZM8.22555 13.9551L8.22555 2.50977C8.22555 1.80664 8.60641 1.40625 9.3486 1.40625L17.2978 1.40625C18.0302 1.40625 18.4111 1.80664 18.4111 2.50977L18.4111 13.9551C18.4111 14.6582 18.0302 15.0586 17.2978 15.0586L9.3486 15.0586C8.60641 15.0586 8.22555 14.6582 8.22555 13.9551Z" fill="var(--color-secondary)"/>
  <path d="M9.86618 12.0996L16.7802 12.0996C17.1123 12.0996 17.2783 11.8652 17.2783 11.5625C17.2783 10.7324 16.0185 8.59375 13.3232 8.59375C10.6279 8.59375 9.35836 10.7324 9.35836 11.5625C9.35836 11.8652 9.53415 12.0996 9.86618 12.0996ZM13.3232 7.96875C14.417 7.97852 15.2959 7.04102 15.2959 5.81055C15.2959 4.6582 14.417 3.70117 13.3232 3.70117C12.2295 3.70117 11.3506 4.6582 11.3506 5.81055C11.3506 7.04102 12.2295 7.95898 13.3232 7.96875Z" fill="var(--color-primary)"/>
  <path d="M0.207973 6.92383C-0.221714 7.39258 0.0517231 8.02734 0.686489 8.02734L1.93649 8.02734L1.93649 11.2988C1.93649 11.6895 2.23922 11.9824 2.62008 11.9824C3.00094 11.9824 3.30368 11.6895 3.30368 11.2988L3.30368 8.02734L4.53415 8.02734C5.19821 8.02734 5.43258 7.36328 5.02243 6.92383L3.07907 4.75586C2.79586 4.45312 2.42477 4.45312 2.14157 4.75586Z" fill="var(--color-primary)"/>
 </g>
</svg>
