<svg version="1.1" xmlns="http://www.w3.org/2000/svg" xmlns:xlink="http://www.w3.org/1999/xlink" viewBox="0 0 14.5898 14.2285">
 <g>
  <rect height="14.2285" opacity="0" width="14.5898" x="0" y="0"/>
  <path d="M2.49023 14.2285L11.7383 14.2285C13.4082 14.2285 14.2285 13.418 14.2285 11.7773L14.2285 2.45117C14.2285 0.810547 13.4082 0 11.7383 0L2.49023 0C0.830078 0 0 0.810547 0 2.45117L0 11.7773C0 13.418 0.830078 14.2285 2.49023 14.2285Z" fill="var(--color-tertiary)"/>
  <path d="M11.1133 7.95898C11.1133 9.86328 9.84375 11.1035 7.92969 11.1035L6.94336 11.1035C6.52344 11.1035 6.24023 10.8496 6.24023 10.459C6.24023 10.0781 6.51367 9.81445 6.92383 9.81445L7.92969 9.81445C9.05273 9.81445 9.81445 9.07227 9.81445 7.95898C9.81445 6.95312 9.07227 6.2793 7.93945 6.2793L5.85938 6.2793L5.06836 6.24023L5.42969 6.50391L6.25 7.27539C6.37695 7.40234 6.44531 7.55859 6.44531 7.75391C6.44531 8.125 6.17188 8.41797 5.81055 8.41797C5.61523 8.41797 5.44922 8.34961 5.3418 8.23242L3.31055 6.16211C3.1543 6.00586 3.08594 5.81055 3.08594 5.625C3.08594 5.43945 3.16406 5.24414 3.31055 5.08789L5.33203 3.04688C5.44922 2.91992 5.60547 2.85156 5.80078 2.85156C6.17188 2.85156 6.44531 3.14453 6.44531 3.51562C6.44531 3.70117 6.37695 3.86719 6.25 3.98438L5.61523 4.58008L5.05859 5.01953L5.85938 4.99023L7.93945 4.99023C9.85352 4.99023 11.1133 6.17188 11.1133 7.95898Z" fill="var(--color-primary)"/>
 </g>
</svg>
