<svg version="1.1" xmlns="http://www.w3.org/2000/svg" xmlns:xlink="http://www.w3.org/1999/xlink" viewBox="0 0 16.1328 15.7715">
 <g>
  <rect height="15.7715" opacity="0" width="16.1328" x="0" y="0"/>
  <path d="M7.88086 15.7617C12.2363 15.7617 15.7715 12.2266 15.7715 7.88086C15.7715 3.53516 12.2363 0 7.88086 0C3.53516 0 0 3.53516 0 7.88086C0 12.2266 3.53516 15.7617 7.88086 15.7617Z" fill="var(--color-tertiary)"/>
  <path d="M3.85742 8.74023C3.85742 6.95312 5.12695 5.76172 7.03125 5.76172L9.11133 5.76172L9.91211 5.80078L9.35547 5.36133L8.7207 4.75586C8.59375 4.64844 8.52539 4.47266 8.52539 4.29688C8.52539 3.91602 8.79883 3.62305 9.16992 3.62305C9.36523 3.62305 9.52148 3.69141 9.63867 3.82812L11.6602 5.85938C11.8066 6.02539 11.8848 6.21094 11.8848 6.40625C11.8848 6.5918 11.8164 6.77734 11.6602 6.94336L9.62891 9.00391C9.52148 9.13086 9.35547 9.19922 9.16016 9.19922C8.79883 9.19922 8.52539 8.90625 8.52539 8.52539C8.52539 8.33984 8.59375 8.17383 8.7207 8.05664L9.54102 7.27539L9.90234 7.02148L9.11133 7.06055L7.03125 7.06055C5.89844 7.06055 5.15625 7.73438 5.15625 8.74023C5.15625 9.85352 5.91797 10.5859 7.04102 10.5859L8.04688 10.5859C8.45703 10.5859 8.73047 10.8496 8.73047 11.2402C8.73047 11.6211 8.44727 11.8848 8.02734 11.8848L7.04102 11.8848C5.13672 11.8848 3.85742 10.6445 3.85742 8.74023Z" fill="var(--color-primary)"/>
 </g>
</svg>
