<svg version="1.1" xmlns="http://www.w3.org/2000/svg" xmlns:xlink="http://www.w3.org/1999/xlink" viewBox="0 0 28.0664 16.3184">
 <g>
  <rect height="16.3184" opacity="0" width="28.0664" x="0" y="0"/>
  <path d="M3.0957 13.4766C3.36914 13.1543 3.29102 12.7539 2.96875 12.3926C1.97266 11.25 1.42578 9.77539 1.42578 8.1543C1.42578 6.5332 1.97266 5.05859 2.96875 3.91602C3.29102 3.55469 3.36914 3.1543 3.0957 2.83203C2.8125 2.5 2.32422 2.5 1.98242 2.88086C0.703125 4.28711 0 6.15234 0 8.1543C0 10.1562 0.703125 12.0215 1.98242 13.4277C2.32422 13.8086 2.8125 13.8086 3.0957 13.4766ZM24.6094 13.4766C24.8926 13.8086 25.3809 13.8086 25.7129 13.4277C26.9922 12.0215 27.7051 10.1562 27.7051 8.1543C27.7051 6.15234 26.9922 4.28711 25.7129 2.88086C25.3809 2.5 24.8926 2.5 24.6094 2.83203C24.3262 3.1543 24.4141 3.55469 24.7363 3.91602C25.7324 5.05859 26.2695 6.5332 26.2695 8.1543C26.2695 9.77539 25.7324 11.25 24.7363 12.3926C24.4141 12.7539 24.3262 13.1543 24.6094 13.4766Z" fill="var(--color-secondary)"/>
  <path d="M5.26367 11.2793C5.53711 10.957 5.41992 10.5762 5.14648 10.1855C4.73633 9.61914 4.52148 8.91602 4.52148 8.1543C4.52148 7.39258 4.73633 6.68945 5.14648 6.12305C5.41992 5.73242 5.53711 5.35156 5.26367 5.0293C4.9707 4.70703 4.44336 4.69727 4.13086 5.09766C3.47656 5.94727 3.0957 7.01172 3.0957 8.1543C3.0957 9.29688 3.47656 10.3613 4.13086 11.2109C4.44336 11.6113 4.9707 11.6016 5.26367 11.2793ZM22.4414 11.2793C22.7344 11.6016 23.252 11.6113 23.5645 11.2109C24.2188 10.3613 24.6094 9.29688 24.6094 8.1543C24.6094 7.01172 24.2188 5.94727 23.5645 5.09766C23.252 4.69727 22.7344 4.70703 22.4414 5.0293C22.1582 5.35156 22.2754 5.73242 22.5488 6.12305C22.9688 6.68945 23.1738 7.39258 23.1738 8.1543C23.1738 8.91602 22.9688 9.61914 22.5488 10.1855C22.2754 10.5762 22.1582 10.957 22.4414 11.2793Z" fill="var(--color-secondary)"/>
  <path d="M7.88086 13.1055L19.8145 13.1055C20.6445 13.1055 21.1328 12.6855 21.1328 12.0605C21.1328 11.2988 20.3418 10.5957 19.6582 9.92188C19.2285 9.48242 19.043 8.57422 19.0332 7.89062C19.0137 4.72656 18.2422 2.58789 16.1426 1.78711C15.8203 0.810547 15.0195 0 13.8477 0C12.6855 0 11.875 0.810547 11.5527 1.78711C9.46289 2.58789 8.68164 4.72656 8.67188 7.89062C8.65234 8.57422 8.47656 9.48242 8.03711 9.92188C7.36328 10.5957 6.5625 11.2988 6.5625 12.0605C6.5625 12.6855 7.06055 13.1055 7.88086 13.1055ZM13.8477 16.3184C15.1855 16.3184 16.1719 15.3418 16.25 14.2383L11.4453 14.2383C11.5332 15.3418 12.5098 16.3184 13.8477 16.3184Z" fill="var(--color-primary)"/>
 </g>
</svg>
