<svg version="1.1" xmlns="http://www.w3.org/2000/svg" xmlns:xlink="http://www.w3.org/1999/xlink" viewBox="0 0 18.6621 14.4434">
 <g>
  <rect height="14.4434" opacity="0" width="18.6621" x="0" y="0"/>
  <path d="M9.15039 12.207C11.7578 12.207 15.1758 12.0801 16.6309 11.9141C17.7051 11.7969 18.3008 11.1914 18.3008 10.1855L18.3008 8.83789C18.3008 7.56836 18.0566 6.82617 17.3145 5.86914L16.6797 5.03906C16.3965 3.66211 15.8887 2.2168 15.625 1.65039C15.2148 0.791016 14.4141 0.244141 13.3594 0.107422C12.8418 0.0390625 11.1914 0 9.15039 0C7.10938 0 5.44922 0.0488281 4.94141 0.107422C3.88672 0.234375 3.08594 0.791016 2.67578 1.65039C2.41211 2.2168 1.9043 3.66211 1.62109 5.03906L0.986328 5.86914C0.244141 6.82617 0 7.56836 0 8.83789L0 10.1855C0 11.1914 0.595703 11.7969 1.66992 11.9141C3.125 12.0801 6.54297 12.207 9.15039 12.207ZM1.02539 14.3457L1.94336 14.3457C2.5293 14.3457 2.97852 13.9062 2.97852 13.3301L2.97852 11.3965L0 9.98047L0 13.3301C0 13.9062 0.449219 14.3457 1.02539 14.3457ZM16.3574 14.3457L17.2656 14.3457C17.8516 14.3457 18.3008 13.9062 18.3008 13.3301L18.3008 9.98047L15.3223 11.3965L15.3223 13.3301C15.3223 13.9062 15.7715 14.3457 16.3574 14.3457Z" fill="var(--color-tertiary)"/>
  <path d="M6.63086 6.60156C6.63086 6.51367 6.66016 6.44531 6.72852 6.36719L9.85352 2.43164C10.1172 2.10938 10.5469 2.33398 10.3906 2.73438L9.375 5.47852L11.2988 5.47852C11.4551 5.47852 11.6016 5.60547 11.6016 5.75195C11.6016 5.83984 11.5625 5.92773 11.4844 5.99609L8.36914 9.92188C8.10547 10.2441 7.66602 10.0293 7.82227 9.62891L8.85742 6.875L6.91406 6.875C6.75781 6.875 6.63086 6.75781 6.63086 6.60156Z" fill="var(--color-primary)"/>
 </g>
</svg>
