<svg version="1.1" xmlns="http://www.w3.org/2000/svg" xmlns:xlink="http://www.w3.org/1999/xlink" viewBox="0 0 16.1328 15.7715">
 <g>
  <rect height="15.7715" opacity="0" width="16.1328" x="0" y="0"/>
  <path d="M0 7.88086C0 12.1875 3.58398 15.7617 7.88086 15.7617C12.1875 15.7617 15.7715 12.1875 15.7715 7.88086C15.7715 3.57422 12.1777 0 7.87109 0C3.57422 0 0 3.57422 0 7.88086ZM1.50391 7.88086L7.86133 7.88086L4.67773 2.33398C5.60547 1.79688 6.70898 1.48438 7.87109 1.48438C9.04297 1.48438 10.1367 1.79688 11.0645 2.33398L7.86133 7.88086L14.2773 7.88086C14.2871 10.2637 12.998 12.334 11.0742 13.4277L7.86133 7.88086L4.67773 13.418C2.77344 12.3145 1.50391 10.2539 1.50391 7.88086Z" fill="var(--color-primary)"/>
 </g>
</svg>
