<svg version="1.1" xmlns="http://www.w3.org/2000/svg" xmlns:xlink="http://www.w3.org/1999/xlink" viewBox="0 0 20.5082 15.1855">
 <g>
  <rect height="15.1855" opacity="0" width="20.5082" x="0" y="0"/>
  <path d="M2.33418 5.29297C2.92012 4.43359 3.7209 3.82812 4.59981 3.45703C5.14668 3.23242 5.17598 2.73438 4.96114 2.41211C4.79512 2.16797 4.49239 2.02148 4.15059 2.14844C2.99825 2.60742 2.00215 3.45703 1.2502 4.54102C0.498246 5.625 0.0392614 6.83594 0.000198877 8.08594C-0.00956675 8.51562 0.341996 8.76953 0.683793 8.76953C1.02559 8.7793 1.35762 8.55469 1.37715 8.05664C1.42598 7.11914 1.71895 6.14258 2.33418 5.29297ZM10.0686 1.30859C11.1135 1.30859 12.0705 1.61133 12.8908 2.11914C13.34 2.40234 13.7209 2.20703 13.9064 1.9043C14.0529 1.61133 14.0236 1.2207 13.7014 0.996094C12.6564 0.3125 11.3967 0 10.0686 0C8.7502 0 7.49043 0.3125 6.44551 0.996094C6.12325 1.2207 6.09395 1.61133 6.24043 1.9043C6.41621 2.20703 6.80684 2.40234 7.25606 2.11914C8.06661 1.61133 9.0334 1.30859 10.0686 1.30859ZM17.8127 5.29297C18.4182 6.14258 18.7209 7.11914 18.76 8.05664C18.7893 8.55469 19.1213 8.7793 19.4631 8.76953C19.8049 8.76953 20.1564 8.51562 20.1467 8.08594C20.1076 6.83594 19.6389 5.625 18.8967 4.54102C18.135 3.45703 17.1486 2.60742 15.9963 2.14844C15.6545 2.02148 15.342 2.16797 15.1857 2.41211C14.9709 2.73438 15.0002 3.23242 15.5471 3.45703C16.4162 3.82812 17.2268 4.43359 17.8127 5.29297Z" fill="var(--color-secondary)"/>
  <path d="M4.57051 6.85547C4.81465 6.48438 5.12715 6.20117 5.54707 5.97656C6.03536 5.70312 6.08418 5.30273 5.91817 5.00977C5.75215 4.72656 5.37129 4.56055 5.00996 4.76562C4.48262 5.04883 3.91621 5.48828 3.47676 6.10352C3.06661 6.70898 2.82246 7.41211 2.74434 8.00781C2.68575 8.33984 2.87129 8.60352 3.13496 8.7207C3.48653 8.87695 3.96504 8.73047 4.0627 8.08594C4.13106 7.61719 4.29707 7.22656 4.57051 6.85547ZM10.0686 4.0332C10.5178 4.0332 10.9377 4.12109 11.3576 4.3457C11.8654 4.58984 12.2268 4.39453 12.3635 4.08203C12.51 3.78906 12.4221 3.38867 12.051 3.19336C11.5236 2.92969 10.8107 2.72461 10.0686 2.72461C9.33614 2.72461 8.62325 2.92969 8.0959 3.19336C7.72481 3.38867 7.63692 3.78906 7.7834 4.08203C7.92012 4.39453 8.28145 4.58984 8.7795 4.3457C9.20918 4.12109 9.61934 4.0332 10.0686 4.0332ZM15.5764 6.85547C15.8498 7.22656 16.0158 7.61719 16.0744 8.08594C16.1818 8.73047 16.6604 8.87695 17.0119 8.7207C17.2658 8.60352 17.4611 8.33984 17.4025 8.00781C17.3147 7.41211 17.0803 6.70898 16.6701 6.10352C16.2307 5.48828 15.6545 5.04883 15.1369 4.76562C14.7658 4.56055 14.3947 4.72656 14.2287 5.00977C14.0529 5.30273 14.1018 5.70312 14.5998 5.97656C15.0197 6.20117 15.3225 6.48438 15.5764 6.85547Z" fill="var(--color-secondary)"/>
  <path d="M5.73262 15.166L14.4143 15.166L14.4143 9.18945C14.4143 7.38281 12.7639 6.31836 10.0686 6.31836C7.39278 6.31836 5.73262 7.38281 5.73262 9.18945ZM10.0686 12.666C9.53145 12.666 8.68184 12.7148 8.37911 12.7148C7.91036 12.7148 7.70528 12.5098 7.65645 12.0215L7.54903 10.8789C7.46114 9.95117 8.1252 9.62891 10.0686 9.62891C12.0314 9.62891 12.676 9.95117 12.5979 10.8789L12.5002 12.0215C12.4611 12.5098 12.2463 12.7148 11.7678 12.7148C11.465 12.7148 10.6252 12.666 10.0686 12.666ZM6.46504 12.5293L6.46504 10.8203L5.40059 10.8203C5.0002 10.8203 4.67793 11.1328 4.67793 11.5332L4.67793 11.8164C4.67793 12.207 5.0002 12.5293 5.40059 12.5293ZM13.6818 12.5293L14.7463 12.5293C15.1564 12.5293 15.4787 12.207 15.4787 11.8164L15.4787 11.5332C15.4787 11.1328 15.1564 10.8203 14.7463 10.8203L13.6818 10.8203Z" fill="var(--color-primary)"/>
 </g>
</svg>
