<svg version="1.1" xmlns="http://www.w3.org/2000/svg" xmlns:xlink="http://www.w3.org/1999/xlink" viewBox="0 0 15.3613 18.6816">
 <g>
  <rect height="18.6816" opacity="0" width="15.3613" x="0" y="0"/>
  <path d="M7.5 1.45508C9.12109 1.45508 10.5957 2.00195 11.7383 2.99805C12.0996 3.32031 12.5 3.39844 12.8223 3.125C13.1543 2.8418 13.1543 2.35352 12.7734 2.01172C11.3672 0.732422 9.50195 0.0292969 7.5 0.0292969C5.49805 0.0292969 3.63281 0.732422 2.22656 2.01172C1.8457 2.35352 1.8457 2.8418 2.17773 3.125C2.5 3.39844 2.90039 3.32031 3.26172 2.99805C4.4043 2.00195 5.87891 1.45508 7.5 1.45508Z" fill="var(--color-secondary)"/>
  <path d="M7.5 4.55078C8.26172 4.55078 8.96484 4.76562 9.53125 5.17578C9.92188 5.44922 10.3027 5.56641 10.625 5.29297C10.9473 5 10.957 4.47266 10.5566 4.16016C9.70703 3.50586 8.63281 3.125 7.5 3.125C6.35742 3.125 5.29297 3.50586 4.44336 4.16016C4.04297 4.47266 4.05273 5 4.375 5.29297C4.69727 5.56641 5.07812 5.44922 5.46875 5.17578C6.03516 4.76562 6.73828 4.55078 7.5 4.55078Z" fill="var(--color-secondary)"/>
  <path d="M0 17.7637C0 18.2617 0.410156 18.6816 0.917969 18.6816L1.66992 18.6816C2.17773 18.6816 2.58789 18.2617 2.58789 17.7637L2.58789 16.9043L12.4121 16.9043L12.4121 17.7637C12.4121 18.2617 12.8223 18.6816 13.3301 18.6816L14.082 18.6816C14.5898 18.6816 15 18.2617 15 17.7637L15 13.5449C15 12.5098 14.8926 11.8262 14.1797 11.084L13.5645 10.4297L12.9199 8.61328C12.5488 7.54883 11.8066 7.09961 10.918 7.00195C10.5078 6.95312 9.15039 6.91406 7.5 6.91406C5.84961 6.91406 4.49219 6.95312 4.08203 7.00195C3.18359 7.09961 2.44141 7.54883 2.08008 8.61328L1.43555 10.4297L0.820312 11.084C0.107422 11.8262 0 12.5098 0 13.5449ZM3.31055 10.5078C3.05664 10.5078 2.99805 10.3613 3.07617 10.1172L3.47656 8.95508C3.59375 8.60352 3.73047 8.53516 4.04297 8.48633C4.45312 8.42773 5.71289 8.36914 7.5 8.36914C9.28711 8.36914 10.5273 8.42773 10.9473 8.48633C11.2598 8.53516 11.4062 8.60352 11.5234 8.95508L11.9238 10.1172C12.002 10.3613 11.9336 10.5078 11.6797 10.5078ZM2.40234 14.3652C2.04102 14.3652 1.79688 14.1211 1.79688 13.7695L1.79688 12.8027C1.79688 12.4512 2.04102 12.2168 2.40234 12.2168C2.77344 12.2168 3.00781 12.4414 3.00781 12.8027L3.00781 13.7695C3.00781 14.1309 2.77344 14.3652 2.40234 14.3652ZM6.10352 14.0527C5.82031 14.0527 5.66406 13.8965 5.66406 13.5742L5.66406 12.998C5.66406 12.6855 5.82031 12.5293 6.10352 12.5293L8.88672 12.5293C9.17969 12.5293 9.33594 12.6855 9.33594 12.998L9.33594 13.5742C9.33594 13.8965 9.17969 14.0527 8.88672 14.0527ZM12.666 14.3652C12.3145 14.3652 12.0703 14.1211 12.0703 13.7695L12.0703 12.8027C12.0703 12.4512 12.3145 12.2168 12.666 12.2168C13.0371 12.2168 13.2812 12.4414 13.2812 12.8027L13.2812 13.7695C13.2812 14.1309 13.0371 14.3652 12.666 14.3652Z" fill="var(--color-primary)"/>
 </g>
</svg>
