<svg version="1.1" xmlns="http://www.w3.org/2000/svg" xmlns:xlink="http://www.w3.org/1999/xlink" viewBox="0 0 18.0394 16.4551">
 <g>
  <rect height="16.4551" opacity="0" width="18.0394" x="0" y="0"/>
  <path d="M4.97205 3.72669C6.41945 5.01999 7.18953 7.28771 7.10946 10.0639C7.60888 9.98157 8.13177 9.91322 8.66795 9.85768C8.46691 10.179 8.28238 10.5403 8.28238 11.0254C8.28238 11.1311 8.28866 11.2333 8.30358 11.3321C7.52305 11.4221 6.95445 11.505 6.62222 11.5137C6.12418 11.5137 5.80191 11.1816 5.80191 10.6738C5.81168 7.83203 5.11832 5.6543 3.87808 4.6582C3.55582 4.38477 3.47769 4.21875 3.57535 3.62305C3.79996 2.2168 3.00894 1.40625 2.12027 1.40625C1.56363 1.40625 1.29996 1.86523 1.47574 2.56836L4.37613 14.2871C4.50308 14.7754 4.77652 15.0293 5.23551 15.0293L14.5421 15.0293C15.3429 15.0293 15.6164 14.7949 16.1925 12.7246C16.4383 11.8309 15.9798 11.3518 14.2323 11.1757C14.2238 11.1119 14.2199 11.0431 14.2199 10.9668C14.2199 10.6016 14.5115 10.2646 14.7641 9.85258C17.1431 10.2339 18.0502 11.2731 17.5402 13.0957C16.8371 15.6543 16.173 16.4355 14.5421 16.4355L5.23551 16.4355C4.06363 16.4355 3.30191 15.8105 3.00894 14.6289L0.118318 2.93945C-0.321135 1.17188 0.489412 0 2.12027 0C3.90399 0 5.34218 1.57138 4.97205 3.72669ZM10.7726 11.0254L10.7768 11.1275C10.2189 11.1527 9.70895 11.1909 9.25098 11.2336C9.23634 11.1535 9.22965 11.0665 9.22965 10.9668C9.22965 10.5748 9.56191 10.2154 9.8219 9.76047C10.2976 9.72639 10.7802 9.70358 11.2637 9.69218C11.0272 10.0565 10.7726 10.4556 10.7726 11.0254ZM13.7382 9.73157C13.5093 10.0854 13.2726 10.4761 13.2726 11.0254C13.2726 11.0551 13.2731 11.0844 13.2761 11.1126C12.9573 11.0996 12.6037 11.0938 12.2179 11.0938C12.05 11.0938 11.8853 11.0951 11.7244 11.0979C11.7213 11.0566 11.7199 11.0131 11.7199 10.9668C11.7199 10.552 12.096 10.1737 12.3634 9.68007C12.8599 9.68109 13.3172 9.69846 13.7382 9.73157Z" fill="var(--color-primary)"/>
  <path d="M10.1281 8.73047C10.1281 7.69531 9.22965 7.13867 9.22965 6.48438C9.22965 6.10352 9.3273 5.9082 9.58121 5.56641C9.9816 5.01953 9.21988 4.47266 8.80972 5C8.43863 5.45898 8.28238 5.89844 8.28238 6.42578C8.28238 7.5 9.17105 7.95898 9.17105 8.73047C9.17105 9.49219 8.28238 9.96094 8.28238 11.0254C8.28238 11.5527 8.43863 11.9922 8.80972 12.4512C9.21988 12.9785 9.9816 12.4316 9.58121 11.8848C9.3273 11.543 9.22965 11.3477 9.22965 10.9668C9.22965 10.3223 10.1281 9.76562 10.1281 8.73047ZM12.6281 8.73047C12.6281 7.69531 11.7199 7.13867 11.7199 6.48438C11.7199 6.10352 11.8175 5.9082 12.0714 5.56641C12.4816 5.01953 11.7199 4.47266 11.3097 5C10.9386 5.45898 10.7726 5.89844 10.7726 6.42578C10.7726 7.5 11.6613 7.95898 11.6613 8.73047C11.6613 9.49219 10.7726 9.96094 10.7726 11.0254C10.7726 11.5527 10.9386 11.9922 11.3097 12.4512C11.7101 12.9785 12.4816 12.4316 12.0714 11.8848C11.8175 11.543 11.7199 11.3477 11.7199 10.9668C11.7199 10.3223 12.6281 9.76562 12.6281 8.73047ZM15.1281 8.73047C15.1281 7.69531 14.2199 7.13867 14.2199 6.48438C14.2199 6.10352 14.3175 5.9082 14.5714 5.56641C14.9816 5.01953 14.2101 4.47266 13.8 5C13.4386 5.45898 13.2726 5.89844 13.2726 6.42578C13.2726 7.5 14.1613 7.95898 14.1613 8.73047C14.1613 9.49219 13.2726 9.96094 13.2726 11.0254C13.2726 11.5527 13.4386 11.9922 13.8 12.4512C14.2101 12.9785 14.9718 12.4316 14.5714 11.8848C14.3175 11.543 14.2199 11.3477 14.2199 10.9668C14.2199 10.3223 15.1281 9.76562 15.1281 8.73047Z" fill="var(--color-primary)"/>
 </g>
</svg>
