<svg version="1.1" xmlns="http://www.w3.org/2000/svg" xmlns:xlink="http://www.w3.org/1999/xlink" viewBox="0 0 19.1159 15.7715">
 <g>
  <rect height="15.7715" opacity="0" width="19.1159" x="0" y="0"/>
  <path d="M9.37242 15.7617C13.7279 15.7617 17.263 12.2363 17.263 7.88086C17.263 3.52539 13.7279 0 9.37242 0C5.02672 0 1.49156 3.52539 1.49156 7.88086L2.9857 7.88086C2.9857 4.3457 5.83726 1.48438 9.37242 1.48438C12.9076 1.48438 15.7689 4.3457 15.7689 7.88086C15.7689 11.416 12.9076 14.2773 9.37242 14.2773C7.29234 14.2773 5.44664 13.2812 4.2943 11.7578C4.02086 11.3965 3.60094 11.2891 3.23961 11.5137C2.88805 11.7285 2.78062 12.2266 3.08336 12.6074C4.53844 14.5508 6.83336 15.7617 9.37242 15.7617ZM0.602889 6.35742C-0.0123451 6.35742-0.158829 6.77734 0.173202 7.24609L1.91148 9.7168C2.18492 10.0977 2.59508 10.0977 2.85875 9.7168L4.59703 7.23633C4.9193 6.77734 4.77281 6.35742 4.16734 6.35742Z" fill="var(--color-secondary)"/>
  <path d="M9.37242 10.5566C10.056 10.5566 10.7298 10.3027 11.1498 9.90234C11.4134 9.6582 11.5892 9.30664 11.5892 9.0332C11.5892 8.75977 11.3939 8.60352 11.1498 8.60352C10.9154 8.60352 10.808 8.75977 10.7201 8.90625C10.4173 9.46289 10.0072 9.73633 9.38219 9.73633C8.31773 9.73633 7.81969 8.91602 7.81969 7.82227C7.81969 6.72852 8.33726 5.92773 9.37242 5.92773C10.0072 5.92773 10.4564 6.19141 10.7103 6.74805C10.7982 6.94336 10.9447 7.06055 11.14 7.06055C11.4037 7.06055 11.5795 6.89453 11.5795 6.62109C11.5795 6.31836 11.3744 5.99609 11.1302 5.75195C10.7103 5.3418 10.056 5.10742 9.36265 5.10742C7.78062 5.10742 6.83336 6.2207 6.83336 7.82227C6.83336 9.57031 7.89781 10.5566 9.37242 10.5566ZM9.34312 11.4648C9.50914 11.4648 9.63609 11.3477 9.63609 11.1816L9.63609 4.47266C9.63609 4.31641 9.50914 4.18945 9.34312 4.18945C9.18687 4.18945 9.05992 4.31641 9.05992 4.47266L9.05992 11.1816C9.05992 11.3477 9.18687 11.4648 9.34312 11.4648Z" fill="var(--color-primary)"/>
 </g>
</svg>
