<svg version="1.1" xmlns="http://www.w3.org/2000/svg" xmlns:xlink="http://www.w3.org/1999/xlink" viewBox="0 0 17.6172 17.2754">
 <g>
  <rect height="17.2754" opacity="0" width="17.6172" x="0" y="0"/>
  <path d="M8.63281 17.2656C13.3594 17.2656 17.2559 13.3691 17.2559 8.63281C17.2559 3.89648 13.3594 0 8.63281 0C3.89648 0 0 3.89648 0 8.63281C0 13.3691 3.89648 17.2656 8.63281 17.2656ZM8.63281 14.3555C5.46875 14.3555 2.91016 11.7969 2.91016 8.63281C2.91016 5.46875 5.46875 2.91016 8.63281 2.91016C11.7871 2.91016 14.3457 5.46875 14.3457 8.63281C14.3457 11.7969 11.7871 14.3555 8.63281 14.3555Z" fill="var(--color-secondary)"/>
  <path d="M8.63281 11.3086C9.30664 11.3086 9.98047 11.0547 10.4004 10.6543C10.6641 10.4102 10.8398 10.0586 10.8398 9.78516C10.8398 9.51172 10.6445 9.35547 10.4004 9.35547C10.166 9.35547 10.0586 9.51172 9.9707 9.6582C9.66797 10.2148 9.26758 10.4883 8.64258 10.4883C7.56836 10.4883 7.07031 9.66797 7.07031 8.57422C7.07031 7.48047 7.59766 6.67969 8.63281 6.67969C9.25781 6.67969 9.70703 6.94336 9.96094 7.5C10.0488 7.69531 10.1953 7.8125 10.4004 7.8125C10.6543 7.8125 10.8301 7.64648 10.8301 7.37305C10.8301 7.07031 10.625 6.74805 10.3809 6.50391C9.9707 6.09375 9.30664 5.85938 8.62305 5.85938C7.03125 5.85938 6.08398 6.97266 6.08398 8.57422C6.08398 10.3223 7.14844 11.3086 8.63281 11.3086ZM8.60352 12.2168C8.75977 12.2168 8.88672 12.0996 8.88672 11.9336L8.88672 5.22461C8.88672 5.06836 8.75977 4.94141 8.60352 4.94141C8.4375 4.94141 8.31055 5.06836 8.31055 5.22461L8.31055 11.9336C8.31055 12.0996 8.4375 12.2168 8.60352 12.2168Z" fill="var(--color-primary)"/>
 </g>
</svg>
