<svg version="1.1" xmlns="http://www.w3.org/2000/svg" xmlns:xlink="http://www.w3.org/1999/xlink" viewBox="0 0 13.3691 16.4746">
 <g>
  <rect height="16.4746" opacity="0" width="13.3691" x="0" y="0"/>
  <path d="M3.66211 10.7617L9.35547 10.7617C9.64844 10.7617 9.88281 10.5273 9.88281 10.2246C9.88281 9.93164 9.64844 9.70703 9.35547 9.70703L3.66211 9.70703C3.34961 9.70703 3.125 9.93164 3.125 10.2246C3.125 10.5273 3.34961 10.7617 3.66211 10.7617ZM3.66211 13.0371L6.32812 13.0371C6.63086 13.0371 6.85547 12.8125 6.85547 12.5195C6.85547 12.2168 6.63086 11.9824 6.32812 11.9824L3.66211 11.9824C3.34961 11.9824 3.125 12.2168 3.125 12.5195C3.125 12.8125 3.34961 13.0371 3.66211 13.0371ZM4.89258 7.93945L5.45898 7.93945C5.50781 7.93945 5.54688 7.95898 5.58594 7.99805L5.98633 8.38867C6.33789 8.75 6.67969 8.74023 7.04102 8.38867L7.44141 7.99805C7.48047 7.96875 7.50977 7.93945 7.56836 7.93945L8.11523 7.93945C8.62305 7.93945 8.86719 7.69531 8.86719 7.19727L8.86719 6.64062C8.86719 6.58203 8.87695 6.54297 8.91602 6.50391L9.31641 6.10352C9.66797 5.75195 9.66797 5.41016 9.31641 5.04883L8.91602 4.64844C8.87695 4.60938 8.86719 4.57031 8.86719 4.52148L8.86719 3.96484C8.86719 3.4668 8.62305 3.22266 8.11523 3.22266L7.56836 3.22266C7.50977 3.22266 7.48047 3.19336 7.44141 3.16406L7.04102 2.77344C6.67969 2.41211 6.33789 2.42188 5.98633 2.77344L5.58594 3.16406C5.54688 3.20312 5.50781 3.22266 5.45898 3.22266L4.89258 3.22266C4.38477 3.22266 4.15039 3.45703 4.15039 3.96484L4.15039 4.52148C4.15039 4.57031 4.14062 4.60938 4.0918 4.64844L3.70117 5.04883C3.33984 5.41016 3.33984 5.75195 3.70117 6.10352L4.0918 6.50391C4.14062 6.54297 4.15039 6.58203 4.15039 6.64062L4.15039 7.19727C4.15039 7.69531 4.38477 7.93945 4.89258 7.93945ZM6.20117 6.99219C6.07422 6.99219 5.95703 6.93359 5.85938 6.80664L5.21484 6.00586C5.15625 5.9375 5.11719 5.83984 5.11719 5.76172C5.11719 5.55664 5.26367 5.40039 5.46875 5.40039C5.58594 5.40039 5.68359 5.44922 5.78125 5.57617L6.19141 6.11328L7.20703 4.47266C7.27539 4.36523 7.38281 4.27734 7.50977 4.27734C7.68555 4.27734 7.86133 4.41406 7.86133 4.60938C7.86133 4.69727 7.8125 4.80469 7.77344 4.86328L6.55273 6.79688C6.46484 6.93359 6.33789 6.99219 6.20117 6.99219ZM0 13.9746C0 15.6445 0.810547 16.4648 2.45117 16.4648L10.5469 16.4648C12.1875 16.4648 13.0078 15.6445 13.0078 13.9746L13.0078 2.49023C13.0078 0.830078 12.1875 0 10.5469 0L2.45117 0C0.810547 0 0 0.830078 0 2.49023ZM1.40625 13.9551L1.40625 2.50977C1.40625 1.80664 1.78711 1.40625 2.5293 1.40625L10.4785 1.40625C11.2109 1.40625 11.5918 1.80664 11.5918 2.50977L11.5918 13.9551C11.5918 14.6582 11.2109 15.0586 10.4785 15.0586L2.5293 15.0586C1.78711 15.0586 1.40625 14.6582 1.40625 13.9551Z" fill="var(--color-primary)"/>
 </g>
</svg>
