<svg version="1.1" xmlns="http://www.w3.org/2000/svg" xmlns:xlink="http://www.w3.org/1999/xlink" viewBox="0 0 14.5898 14.248">
 <g>
  <rect height="14.248" opacity="0" width="14.5898" x="0" y="0"/>
  <path d="M2.49023 14.248L11.7383 14.248C13.4082 14.248 14.2285 13.4277 14.2285 11.7871L14.2285 2.4707C14.2285 0.830078 13.4082 0.00976562 11.7383 0.00976562L2.49023 0.00976562C0.830078 0.00976562 0 0.830078 0 2.4707L0 11.7871C0 13.4277 0.830078 14.248 2.49023 14.248Z" fill="var(--color-tertiary)"/>
  <path d="M7.28516 2.42188C7.44141 2.42188 7.59766 2.5 7.73438 2.62695L10.5469 5.33203C10.6445 5.41992 10.7324 5.56641 10.7324 5.77148C10.7324 6.12305 10.4492 6.39648 10.1074 6.39648C9.95117 6.39648 9.79492 6.34766 9.6582 6.21094L7.28516 3.89648L4.91211 6.21094C4.76562 6.35742 4.59961 6.39648 4.46289 6.39648C4.12109 6.39648 3.82812 6.12305 3.82812 5.77148C3.82812 5.56641 3.91602 5.41992 4.01367 5.33203L6.82617 2.62695C6.97266 2.5 7.11914 2.42188 7.28516 2.42188ZM7.28516 11.8164C7.11914 11.8164 6.96289 11.7383 6.82617 11.6113L4.01367 8.90625C3.91602 8.81836 3.82812 8.66211 3.82812 8.4668C3.82812 8.11523 4.12109 7.8418 4.46289 7.8418C4.59961 7.8418 4.76562 7.88086 4.91211 8.02734L7.28516 10.3418L9.6582 8.02734C9.79492 7.89062 9.95117 7.8418 10.1074 7.8418C10.4492 7.8418 10.7324 8.11523 10.7324 8.4668C10.7324 8.66211 10.6445 8.81836 10.5469 8.90625L7.73438 11.6113C7.60742 11.7383 7.44141 11.8164 7.28516 11.8164Z" fill="var(--color-primary)"/>
 </g>
</svg>
