<svg version="1.1" xmlns="http://www.w3.org/2000/svg" xmlns:xlink="http://www.w3.org/1999/xlink" viewBox="0 0 20.8496 9.0918">
 <g>
  <rect height="9.0918" opacity="0" width="20.8496" x="0" y="0"/>
  <path d="M4.54102 9.08203C7.05078 9.08203 9.08203 7.04102 9.08203 4.54102C9.08203 2.04102 7.05078 0 4.54102 0C2.04102 0 0 2.04102 0 4.54102C0 7.04102 2.04102 9.08203 4.54102 9.08203ZM4.54102 7.67578C2.8125 7.67578 1.40625 6.2793 1.40625 4.54102C1.40625 2.80273 2.8125 1.40625 4.54102 1.40625C6.2793 1.40625 7.67578 2.80273 7.67578 4.54102C7.67578 6.2793 6.2793 7.67578 4.54102 7.67578Z" fill="var(--color-secondary)"/>
  <path d="M15.9473 9.08203C18.4473 9.08203 20.4883 7.04102 20.4883 4.54102C20.4883 2.04102 18.4473 0 15.9473 0C13.4375 0 11.4062 2.04102 11.4062 4.54102C11.4062 7.04102 13.4375 9.08203 15.9473 9.08203Z" fill="var(--color-primary)"/>
 </g>
</svg>
