<svg version="1.1" xmlns="http://www.w3.org/2000/svg" xmlns:xlink="http://www.w3.org/1999/xlink" viewBox="0 0 13.3398 17.4902">
 <g>
  <rect height="17.4902" opacity="0" width="13.3398" x="0" y="0"/>
  <path d="M12.9785 2.04102L12.9785 15.4395C12.9785 16.6309 12.0996 17.4707 10.8301 17.4707L2.14844 17.4707C0.888672 17.4707 0 16.6309 0 15.4395L0 2.04102C0 0.839844 0.888672 0 2.14844 0L10.8301 0C12.0996 0 12.9785 0.839844 12.9785 2.04102ZM2.54883 8.73047C2.54883 10.918 4.31641 12.6758 6.49414 12.6758C8.66211 12.6758 10.4395 10.918 10.4395 8.73047C10.4395 6.5625 8.66211 4.79492 6.49414 4.79492C4.31641 4.79492 2.54883 6.5625 2.54883 8.73047Z" fill="var(--color-primary)"/>
 </g>
</svg>
