<svg version="1.1" xmlns="http://www.w3.org/2000/svg" xmlns:xlink="http://www.w3.org/1999/xlink" viewBox="0 0 16.1328 15.7715">
 <g>
  <rect height="15.7715" opacity="0" width="16.1328" x="0" y="0"/>
  <path d="M15.7715 7.88086C15.7715 12.2266 12.2363 15.7617 7.88086 15.7617C3.53516 15.7617 0 12.2266 0 7.88086C0 3.53516 3.53516 0 7.88086 0C12.2363 0 15.7715 3.53516 15.7715 7.88086ZM3.62305 7.88086C3.62305 10.2051 5.56641 12.1387 7.88086 12.1387C10.2051 12.1387 12.1484 10.2051 12.1484 7.88086C12.1484 5.55664 10.2051 3.62305 7.87109 3.62305C5.55664 3.62305 3.62305 5.55664 3.62305 7.88086ZM8.31055 5.3125L8.31055 8.02734C8.31055 8.27148 8.11523 8.44727 7.87109 8.44727L5.78125 8.44727C5.53711 8.44727 5.35156 8.28125 5.35156 8.02734C5.35156 7.7832 5.53711 7.60742 5.78125 7.60742L7.45117 7.60742L7.45117 5.3125C7.45117 5.07812 7.63672 4.89258 7.87109 4.89258C8.11523 4.89258 8.31055 5.07812 8.31055 5.3125Z" fill="var(--color-primary)"/>
 </g>
</svg>
