<svg version="1.1" xmlns="http://www.w3.org/2000/svg" xmlns:xlink="http://www.w3.org/1999/xlink" viewBox="0 0 21.2402 19.4882">
 <g>
  <rect height="19.4882" opacity="0" width="21.2402" x="0" y="0"/>
  <path d="M13.3105 16.8681C13.5645 17.0244 13.6523 17.3271 13.4961 17.581L12.5488 19.2216C12.4121 19.4658 12.0996 19.5537 11.8457 19.4072C11.582 19.2607 11.5039 18.958 11.6504 18.7236L12.5977 17.0634C12.7539 16.8095 13.0469 16.7216 13.3105 16.8681Z" fill="var(--color-primary)"/>
  <path d="M10.9277 14.7197C11.1816 14.8662 11.2598 15.1689 11.1133 15.4228L10.166 17.0634C10.0195 17.3076 9.7168 17.3955 9.46289 17.2588C9.18945 17.1025 9.12109 16.7998 9.25781 16.5654L10.2148 14.9052C10.3711 14.6513 10.6641 14.5634 10.9277 14.7197Z" fill="var(--color-primary)"/>
  <path d="M7.22656 16.8779C7.48047 17.0341 7.56836 17.3369 7.41211 17.5908L6.46484 19.2314C6.32812 19.4756 6.01562 19.5634 5.76172 19.417C5.49805 19.2705 5.41992 18.9677 5.56641 18.7334L6.51367 17.0732C6.66992 16.8193 6.96289 16.7314 7.22656 16.8779Z" fill="var(--color-primary)"/>
  <path d="M4.83398 14.7295C5.09766 14.8759 5.17578 15.1787 5.0293 15.4326L4.08203 17.0732C3.93555 17.3174 3.63281 17.4052 3.36914 17.2685C3.10547 17.1123 3.03711 16.8095 3.17383 16.5752L4.13086 14.915C4.28711 14.6611 4.57031 14.5732 4.83398 14.7295Z" fill="var(--color-primary)"/>
  <path d="M16.3086 0.73532C16.3086 1.18454 15.7324 1.92673 15.7324 2.96188C15.7324 4.64157 16.875 5.73532 18.7207 5.73532C19.8535 5.73532 20.3516 5.20798 20.7617 5.20798C21.0254 5.20798 21.1719 5.45212 21.1719 5.78415C21.1719 6.99922 19.9652 9.03197 17.4614 9.41435C17.3698 6.97133 15.4987 5.11261 12.998 4.83688C12.7561 4.46215 12.4803 4.12123 12.1738 3.81956C12.6745 1.67479 14.5536 0.332175 15.8203 0.315398C16.1328 0.315398 16.3086 0.491179 16.3086 0.73532Z" fill="var(--color-primary)"/>
  <path d="M4.27734 13.4502L12.5293 13.4502C14.7363 13.4502 16.4355 11.7802 16.4355 9.61227C16.4355 7.46384 14.707 5.84274 12.3926 5.83298C11.5039 4.15329 9.89258 3.15719 8.03711 3.15719C5.51758 3.15719 3.37891 5.09079 3.13477 7.61032C1.85547 8.00094 1.03516 9.12399 1.03516 10.4814C1.03516 12.249 2.35352 13.4502 4.27734 13.4502Z" fill="var(--color-primary)"/>
 </g>
</svg>
