<svg version="1.1" xmlns="http://www.w3.org/2000/svg" xmlns:xlink="http://www.w3.org/1999/xlink" viewBox="0 0 16.1328 15.7715">
 <g>
  <rect height="15.7715" opacity="0" width="16.1328" x="0" y="0"/>
  <path d="M7.88086 15.7617C12.2363 15.7617 15.7715 12.2363 15.7715 7.88086C15.7715 3.52539 12.2363 0 7.88086 0C3.53516 0 0 3.52539 0 7.88086C0 12.2363 3.53516 15.7617 7.88086 15.7617ZM7.88086 14.2773C4.3457 14.2773 1.49414 11.416 1.49414 7.88086C1.49414 4.3457 4.3457 1.48438 7.88086 1.48438C11.416 1.48438 14.2773 4.3457 14.2773 7.88086C14.2773 11.416 11.416 14.2773 7.88086 14.2773Z" fill="var(--color-secondary)"/>
  <path d="M5.45898 9.01367L9.95117 9.01367C11.1523 9.01367 12.0508 8.08594 12.0508 6.95312C12.0508 5.78125 11.0938 4.92188 9.85352 4.92188C9.39453 4.0332 8.53516 3.45703 7.50977 3.45703C6.12305 3.45703 4.99023 4.53125 4.86328 5.88867C4.20898 6.08398 3.7207 6.65039 3.7207 7.43164C3.7207 8.30078 4.35547 9.01367 5.45898 9.01367ZM5.16602 11.9434C5.29297 11.9434 5.38086 11.8262 5.37109 11.6992L5.3418 11.2598L5.70312 11.5234C5.80078 11.5918 5.9668 11.5527 6.02539 11.4551C6.10352 11.3574 6.06445 11.1816 5.92773 11.1133L5.52734 10.9375L5.92773 10.7324C6.06445 10.6641 6.08398 10.5273 6.03516 10.4199C5.97656 10.3027 5.80078 10.2734 5.70312 10.3418L5.3418 10.6055L5.37109 10.1758C5.38086 10.0293 5.29297 9.92188 5.16602 9.92188C5.01953 9.92188 4.92188 10.0293 4.93164 10.166L4.96094 10.6055L4.58984 10.3418C4.49219 10.2734 4.3457 10.293 4.28711 10.4199C4.22852 10.5078 4.23828 10.6641 4.38477 10.7422L4.76562 10.9375L4.38477 11.1133C4.23828 11.1816 4.22852 11.3379 4.27734 11.4453C4.32617 11.5625 4.49219 11.5918 4.58984 11.5234L4.96094 11.2598L4.94141 11.6992C4.93164 11.8262 5.01953 11.9434 5.16602 11.9434ZM7.69531 11.9434C7.82227 11.9434 7.91992 11.8262 7.91016 11.6992L7.88086 11.2598L8.24219 11.5234C8.33984 11.5918 8.49609 11.5527 8.55469 11.4551C8.63281 11.3574 8.60352 11.1816 8.45703 11.1133L8.06641 10.9375L8.45703 10.7324C8.59375 10.6641 8.61328 10.5273 8.56445 10.4199C8.50586 10.3027 8.33984 10.2734 8.24219 10.3418L7.88086 10.6055L7.91016 10.1758C7.91992 10.0293 7.82227 9.92188 7.69531 9.92188C7.55859 9.92188 7.46094 10.0293 7.4707 10.166L7.5 10.6055L7.12891 10.3418C7.03125 10.2734 6.875 10.293 6.81641 10.4199C6.75781 10.5078 6.77734 10.6641 6.91406 10.7422L7.30469 10.9375L6.91406 11.1133C6.77734 11.1816 6.75781 11.3379 6.80664 11.4453C6.86523 11.5625 7.03125 11.5918 7.12891 11.5234L7.5 11.2598L7.48047 11.6992C7.4707 11.8262 7.55859 11.9434 7.69531 11.9434ZM10.2344 11.9434C10.3613 11.9434 10.459 11.8262 10.4492 11.6992L10.4199 11.2598L10.7715 11.5234C10.8691 11.5918 11.0352 11.5527 11.0938 11.4551C11.1719 11.3574 11.1426 11.1816 10.9961 11.1133L10.6055 10.9375L10.9961 10.7324C11.1328 10.6641 11.1523 10.5273 11.1035 10.4199C11.0449 10.3027 10.8691 10.2734 10.7715 10.3418L10.4199 10.6055L10.4492 10.1758C10.459 10.0293 10.3613 9.92188 10.2344 9.92188C10.0879 9.92188 9.99023 10.0293 10 10.166L10.0293 10.6055L9.66797 10.3418C9.57031 10.2734 9.41406 10.293 9.35547 10.4199C9.29688 10.5078 9.30664 10.6641 9.45312 10.7422L9.84375 10.9375L9.45312 11.1133C9.30664 11.1816 9.29688 11.3379 9.3457 11.4453C9.39453 11.5625 9.57031 11.5918 9.66797 11.5234L10.0293 11.2598L10.0098 11.6992C10 11.8262 10.0879 11.9434 10.2344 11.9434Z" fill="var(--color-primary)"/>
 </g>
</svg>
