<svg version="1.1" xmlns="http://www.w3.org/2000/svg" xmlns:xlink="http://www.w3.org/1999/xlink" viewBox="0 0 16.1328 15.7715">
 <g>
  <rect height="15.7715" opacity="0" width="16.1328" x="0" y="0"/>
  <path d="M7.88086 15.7617C12.2363 15.7617 15.7715 12.2363 15.7715 7.88086C15.7715 3.52539 12.2363 0 7.88086 0C3.53516 0 0 3.52539 0 7.88086C0 12.2363 3.53516 15.7617 7.88086 15.7617ZM7.88086 14.2773C4.3457 14.2773 1.49414 11.416 1.49414 7.88086C1.49414 4.3457 4.3457 1.48438 7.88086 1.48438C11.416 1.48438 14.2773 4.3457 14.2773 7.88086C14.2773 11.416 11.416 14.2773 7.88086 14.2773Z" fill="var(--color-primary)"/>
  <path d="M5.45898 8.64258L9.95117 8.64258C11.1523 8.64258 12.0508 7.71484 12.0508 6.58203C12.0508 5.41016 11.0938 4.55078 9.85352 4.55078C9.39453 3.66211 8.53516 3.08594 7.50977 3.08594C6.12305 3.08594 4.99023 4.16016 4.86328 5.50781C4.20898 5.70312 3.7207 6.2793 3.7207 7.05078C3.7207 7.92969 4.35547 8.64258 5.45898 8.64258ZM6.49414 10.8008C6.43555 10.9082 6.47461 10.9961 6.60156 10.9961L7.46094 10.9961L6.83594 12.5195C6.80664 12.5781 6.81641 12.6367 6.86523 12.666C6.9043 12.6758 6.95312 12.666 7.00195 12.6074L9.24805 10.459C9.3457 10.3613 9.31641 10.2246 9.16992 10.2246L8.17383 10.2246L8.59375 9.4043C8.64258 9.30664 8.61328 9.22852 8.50586 9.22852L7.33398 9.22852C7.2168 9.22852 7.1582 9.26758 7.10938 9.36523Z" fill="var(--color-primary)"/>
 </g>
</svg>
