<svg version="1.1" xmlns="http://www.w3.org/2000/svg" xmlns:xlink="http://www.w3.org/1999/xlink" viewBox="0 0 16.1328 15.7715">
 <g>
  <rect height="15.7715" opacity="0" width="16.1328" x="0" y="0"/>
  <path d="M7.88086 15.7617C12.2363 15.7617 15.7715 12.2266 15.7715 7.88086C15.7715 3.53516 12.2363 0 7.88086 0C3.53516 0 0 3.53516 0 7.88086C0 12.2266 3.53516 15.7617 7.88086 15.7617Z" fill="var(--color-tertiary)"/>
  <path d="M7.62695 12.5195C7.46094 12.5195 7.33398 12.4023 7.33398 12.2363C7.33398 12.1875 7.34375 12.1289 7.35352 12.0898L7.5293 11.3867C7.2168 11.3477 6.92383 11.2793 6.66016 11.1621L6.38672 12.2949C6.33789 12.4512 6.24023 12.5195 6.09375 12.5195C5.92773 12.5195 5.79102 12.4023 5.79102 12.2363C5.79102 12.1875 5.80078 12.1289 5.81055 12.0898L6.12305 10.8594C5.24414 10.2344 4.79492 9.11133 4.79492 7.8125C4.79492 5.80078 5.89844 4.31641 7.76367 4.21875L7.94922 3.47656C7.98828 3.32031 8.08594 3.24219 8.26172 3.24219C8.42773 3.24219 8.54492 3.35938 8.54492 3.51562C8.54492 3.54492 8.53516 3.59375 8.51562 3.66211L8.37891 4.23828C8.67188 4.27734 8.96484 4.3457 9.23828 4.46289L9.49219 3.47656C9.53125 3.32031 9.61914 3.24219 9.79492 3.24219C9.96094 3.24219 10.0781 3.35938 10.0781 3.51562C10.0781 3.54492 10.0684 3.59375 10.0488 3.66211L9.77539 4.76562C10.1367 5.0293 10.4395 5.38086 10.6152 5.83008C10.6641 5.94727 10.7031 6.10352 10.7031 6.23047C10.7031 6.52344 10.5176 6.68945 10.2344 6.68945C9.93164 6.68945 9.81445 6.55273 9.72656 6.29883C9.67773 6.13281 9.60938 5.99609 9.51172 5.87891L8.37891 10.4688C9.00391 10.3613 9.54102 9.98047 9.78516 9.32617C9.88281 9.0918 10.0098 8.92578 10.293 8.92578C10.5273 8.92578 10.7617 9.0625 10.7617 9.39453C10.7617 9.54102 10.7422 9.64844 10.6934 9.78516C10.332 10.7715 9.30664 11.416 8.14453 11.416L8.13477 11.416L7.91992 12.2949C7.87109 12.4512 7.7832 12.5195 7.62695 12.5195ZM5.87891 7.8125C5.87891 8.51562 6.05469 9.19922 6.40625 9.70703L7.5293 5.16602C6.42578 5.41016 5.87891 6.55273 5.87891 7.8125ZM6.89453 10.1953C7.13867 10.3516 7.42188 10.459 7.74414 10.4883L9.00391 5.41016C8.75977 5.26367 8.4668 5.16602 8.14453 5.13672Z" fill="var(--color-primary)"/>
 </g>
</svg>
