<svg version="1.1" xmlns="http://www.w3.org/2000/svg" xmlns:xlink="http://www.w3.org/1999/xlink" viewBox="0 0 14.0723 20.791">
 <g>
  <rect height="20.791" opacity="0" width="14.0723" x="0" y="0"/>
  <path d="M2.49023 17.1191L6.18164 17.1191L6.18164 3.66211L2.49023 3.66211C0.830078 3.66211 0 4.48242 0 6.12305L0 14.6582C0 16.2988 0.830078 17.1191 2.49023 17.1191ZM2.50977 15.7031C1.80664 15.7031 1.40625 15.3223 1.40625 14.5898L1.40625 6.19141C1.40625 5.45898 1.80664 5.07812 2.50977 5.07812L4.77539 5.07812L4.77539 15.7031ZM11.2207 17.1191C12.8809 17.1191 13.7109 16.2988 13.7109 14.6582L13.7109 6.12305C13.7109 4.48242 12.8809 3.66211 11.2207 3.66211L7.50977 3.66211L7.50977 17.1191ZM11.2012 15.7031L8.91602 15.7031L8.91602 5.07812L11.2012 5.07812C11.8945 5.07812 12.2949 5.45898 12.2949 6.19141L12.2949 14.5898C12.2949 15.3223 11.8945 15.7031 11.2012 15.7031ZM6.8457 0C6.47461 0 6.18164 0.292969 6.18164 0.664062L6.18164 3.66211L7.50977 3.66211L7.50977 0.664062C7.50977 0.292969 7.2168 0 6.8457 0ZM6.8457 20.7812C7.2168 20.7812 7.50977 20.4883 7.50977 20.1172L7.50977 17.1191L6.18164 17.1191L6.18164 20.1172C6.18164 20.4883 6.47461 20.7812 6.8457 20.7812Z" fill="var(--color-primary)"/>
 </g>
</svg>
