<svg version="1.1" xmlns="http://www.w3.org/2000/svg" xmlns:xlink="http://www.w3.org/1999/xlink" viewBox="0 0 28.7402 13.0371">
 <g>
  <rect height="13.0371" opacity="0" width="28.7402" x="0" y="0"/>
  <path d="M6.40625 13.0371C7.70508 13.0371 8.7207 12.0215 8.7207 10.7227C8.7207 9.43359 7.70508 8.42773 6.40625 8.42773C5.10742 8.42773 4.10156 9.43359 4.10156 10.7227C4.10156 12.0215 5.10742 13.0371 6.40625 13.0371ZM22.002 13.0371C23.291 13.0371 24.3066 12.0215 24.3066 10.7227C24.3066 9.43359 23.291 8.42773 22.002 8.42773C20.7031 8.42773 19.6875 9.43359 19.6875 10.7227C19.6875 12.0215 20.7031 13.0371 22.002 13.0371ZM21.6113 3.27148C21.1035 3.16406 20.625 3.125 20.1367 3.16406L11.6992 3.73047L14.7559 1.66992C15.5566 1.13281 14.7656-0.0390625 13.9258 0.527344L8.95508 3.85742L3.81836 4.80469C1.2793 5.2832 0 6.47461 0 8.49609L0 9.52148C0 10.7617 0.537109 11.3574 1.77734 11.5039L3.22266 11.6699C3.17383 11.4355 3.14453 10.9863 3.14453 10.7227C3.14453 8.91602 4.58984 7.4707 6.40625 7.4707C8.23242 7.4707 9.67773 8.91602 9.67773 10.7227C9.67773 10.9473 9.6582 11.2207 9.61914 11.3672L18.8086 11.3672C18.7598 11.2012 18.7305 10.957 18.7305 10.7227C18.7305 8.91602 20.1758 7.4707 22.002 7.4707C23.8184 7.4707 25.2637 9.10156 25.2637 10.9082C25.2637 11.0059 25.2637 11.0352 25.2539 11.123L26.1328 11.0352C27.6367 10.8887 28.3789 10.0391 28.3789 8.4668L28.3789 7.13867C28.3789 5.24414 27.7148 4.47266 25.9668 4.13086Z" fill="var(--color-tertiary)"/>
  <path d="M10.2637 7.14844C10.2637 6.03516 11.123 5.25391 12.3438 5.25391L16.6113 5.25391C16.9727 5.25391 17.207 5.47852 17.207 5.81055C17.207 6.12305 16.9727 6.34766 16.6211 6.34766L12.3438 6.34766C11.7969 6.34766 11.4062 6.69922 11.4062 7.19727C11.4062 7.63672 11.7871 7.93945 12.334 7.93945L15.2637 7.93945L15.2637 7.41211C15.2637 6.95312 15.5762 6.79688 15.9766 7.06055L17.6074 8.125C17.9199 8.33984 17.9199 8.69141 17.6074 8.88672L15.9668 9.96094C15.5762 10.2051 15.2637 10.0391 15.2637 9.59961L15.2637 9.01367L12.334 9.01367C11.1133 9.01367 10.2637 8.25195 10.2637 7.14844Z" fill="var(--color-primary)"/>
 </g>
</svg>
