<svg version="1.1" xmlns="http://www.w3.org/2000/svg" xmlns:xlink="http://www.w3.org/1999/xlink" viewBox="0 0 17.7734 16.5527">
 <g>
  <rect height="16.5527" opacity="0" width="17.7734" x="0" y="0"/>
  <path d="M1.10352 15.5078L16.3184 15.5078L16.3184 14.5508C16.3184 14.1992 16.1133 13.9941 15.752 13.9941L15.2637 13.9941L15.2637 5.42969L15.918 5.42969C16.3965 5.42969 16.6797 5.07812 16.6797 4.72656C16.6797 4.46289 16.5234 4.23828 16.2109 4.04297L9.6875 0.283203C9.375 0.0976562 9.0332 0 8.71094 0C8.37891 0 8.03711 0.0976562 7.72461 0.283203L1.20117 4.04297C0.878906 4.23828 0.732422 4.46289 0.732422 4.72656C0.732422 5.07812 1.01562 5.42969 1.49414 5.42969L2.1582 5.42969L2.1582 13.9941L1.66992 13.9941C1.30859 13.9941 1.10352 14.1992 1.10352 14.5508ZM0.703125 16.543L16.709 16.543C17.0898 16.543 17.4121 16.2207 17.4121 15.8301C17.4121 15.4492 17.0898 15.127 16.709 15.127L0.703125 15.127C0.322266 15.127 0 15.4492 0 15.8301C0 16.2207 0.322266 16.543 0.703125 16.543Z" fill="var(--color-tertiary)"/>
  <path d="M8.71094 12.4121C6.63086 12.4121 5.54688 10.8105 5.54688 8.80859C5.54688 6.71875 6.72852 5.20508 8.71094 5.20508C9.88281 5.20508 10.9473 5.80078 11.3477 6.81641C11.4062 6.96289 11.4258 7.10938 11.4258 7.2168C11.4258 7.48047 11.2109 7.65625 10.9473 7.65625C10.6934 7.65625 10.5566 7.5293 10.4688 7.25586C10.2148 6.55273 9.52148 6.11328 8.7207 6.11328C7.30469 6.11328 6.63086 7.38281 6.63086 8.80859C6.63086 10.0391 7.12891 11.2109 8.25195 11.4746L8.25195 8.81836C8.25195 8.63281 8.35938 8.51562 8.54492 8.51562C8.71094 8.51562 8.82812 8.63281 8.82812 8.81836L8.82812 9.36523L8.84766 9.36523C9.01367 8.84766 9.51172 8.50586 10.0879 8.50586C10.2344 8.50586 10.4004 8.53516 10.5078 8.59375C10.6152 8.66211 10.6836 8.76953 10.6836 8.88672C10.6836 9.0918 10.5566 9.16992 10.3809 9.16992C10.3223 9.16992 10.2051 9.15039 10.1074 9.15039C9.375 9.15039 8.83789 9.62891 8.83789 10.3516L8.83789 11.5234C9.56055 11.4941 10.2441 11.1328 10.5176 10.3711C10.5957 10.127 10.7422 9.98047 11.0156 9.98047C11.2988 9.98047 11.4844 10.1367 11.4844 10.4199C11.4844 10.5566 11.4746 10.6641 11.416 10.8008C11.0352 11.8359 9.92188 12.4121 8.71094 12.4121Z" fill="var(--color-primary)"/>
 </g>
</svg>
