<svg version="1.1" xmlns="http://www.w3.org/2000/svg" xmlns:xlink="http://www.w3.org/1999/xlink" viewBox="0 0 14.5898 14.248">
 <g>
  <rect height="14.248" opacity="0" width="14.5898" x="0" y="0"/>
  <path d="M14.2285 2.4707L14.2285 11.7871C14.2285 13.4277 13.4082 14.248 11.7383 14.248L2.49023 14.248C0.830078 14.248 0 13.4277 0 11.7871L0 2.4707C0 0.830078 0.830078 0.00976562 2.49023 0.00976562L11.7383 0.00976562C13.4082 0.00976562 14.2285 0.830078 14.2285 2.4707ZM2.30469 10.6348C2.30469 11.3672 2.89062 11.9531 3.61328 11.9531C4.33594 11.9531 4.92188 11.3672 4.92188 10.6348C4.92188 9.91211 4.33594 9.32617 3.61328 9.32617C2.89062 9.32617 2.30469 9.91211 2.30469 10.6348ZM5.81055 7.11914C5.81055 7.85156 6.38672 8.44727 7.11914 8.44727C7.83203 8.44727 8.42773 7.85156 8.42773 7.11914C8.42773 6.40625 7.83203 5.82031 7.11914 5.82031C6.38672 5.82031 5.81055 6.40625 5.81055 7.11914ZM9.29688 3.62305C9.29688 4.35547 9.89258 4.93164 10.625 4.94141C11.3379 4.95117 11.9336 4.35547 11.9336 3.62305C11.9336 2.89062 11.3379 2.31445 10.625 2.31445C9.89258 2.31445 9.29688 2.89062 9.29688 3.62305Z" fill="var(--color-primary)"/>
 </g>
</svg>
