<svg version="1.1" xmlns="http://www.w3.org/2000/svg" xmlns:xlink="http://www.w3.org/1999/xlink" viewBox="0 0 10.127 17.334">
 <g>
  <rect height="17.334" opacity="0" width="10.127" x="0" y="0"/>
  <path d="M4.92188 15.4883C7.53906 15.4883 9.76562 14.1797 9.76562 11.6406C9.76562 9.30664 7.97852 8.47656 5.80078 7.93945L4.32617 7.58789C3.00781 7.25586 1.95312 6.66992 1.95312 5.42969C1.95312 4.02344 3.4375 3.32031 4.92188 3.32031C6.45508 3.32031 7.42188 4.01367 7.90039 5.30273C8.03711 5.71289 8.32031 5.98633 8.75977 5.98633C9.21875 5.98633 9.56055 5.66406 9.56055 5.20508C9.56055 4.58008 9.13086 3.73047 8.59375 3.20312C7.66602 2.26562 6.31836 1.81641 4.92188 1.81641C2.4707 1.81641 0.263672 3.10547 0.263672 5.55664C0.263672 7.72461 2.08008 8.71094 4.0625 9.16992L5.53711 9.51172C6.94336 9.83398 8.08594 10.3516 8.08594 11.7773C8.08594 13.3984 6.65039 13.9941 4.94141 13.9941C3.33008 13.9941 2.09961 13.3984 1.65039 11.9727C1.51367 11.543 1.25977 11.2988 0.820312 11.2988C0.332031 11.2988 0 11.6406 0 12.0703C0 12.8027 0.488281 13.6328 1.02539 14.1309C2.07031 15.0977 3.52539 15.4883 4.92188 15.4883ZM4.88281 17.3242C5.19531 17.3242 5.44922 17.0703 5.44922 16.7676L5.44922 0.556641C5.44922 0.253906 5.19531 0 4.88281 0C4.57031 0 4.31641 0.253906 4.31641 0.556641L4.31641 16.7676C4.31641 17.0703 4.57031 17.3242 4.88281 17.3242Z" fill="var(--color-primary)"/>
 </g>
</svg>
