<svg version="1.1" xmlns="http://www.w3.org/2000/svg" xmlns:xlink="http://www.w3.org/1999/xlink" viewBox="0 0 19.1159 15.7715">
 <g>
  <rect height="15.7715" opacity="0" width="19.1159" x="0" y="0"/>
  <path d="M9.37242 15.7617C13.7279 15.7617 17.263 12.2363 17.263 7.88086C17.263 3.52539 13.7279 0 9.37242 0C5.02672 0 1.49156 3.52539 1.49156 7.88086L2.9857 7.88086C2.9857 4.3457 5.83726 1.48438 9.37242 1.48438C12.9076 1.48438 15.7689 4.3457 15.7689 7.88086C15.7689 11.416 12.9076 14.2773 9.37242 14.2773C7.29234 14.2773 5.44664 13.2812 4.2943 11.7578C4.02086 11.3965 3.60094 11.2891 3.23961 11.5137C2.88805 11.7285 2.78062 12.2266 3.08336 12.6074C4.53844 14.5508 6.83336 15.7617 9.37242 15.7617ZM0.602889 6.35742C-0.0123451 6.35742-0.158829 6.77734 0.173202 7.24609L1.91148 9.7168C2.18492 10.0977 2.59508 10.0977 2.85875 9.7168L4.59703 7.23633C4.9193 6.77734 4.77281 6.35742 4.16734 6.35742Z" fill="var(--color-secondary)"/>
  <path d="M9.38219 11.2695C10.7103 11.2695 11.8724 10.6543 11.8724 9.30664C11.8724 8.11523 10.9154 7.66602 9.87047 7.42188L9.12828 7.24609C8.45445 7.09961 7.94664 6.81641 7.94664 6.2207C7.94664 5.52734 8.69859 5.21484 9.38219 5.21484C10.1341 5.21484 10.6029 5.52734 10.8177 6.14258C10.9154 6.39648 11.0619 6.52344 11.2962 6.52344C11.5111 6.52344 11.7552 6.38672 11.7552 6.09375C11.7552 5.05859 10.4369 4.38477 9.38219 4.38477C8.12242 4.38477 6.99937 5.08789 6.99937 6.29883C6.99937 7.48047 7.97594 7.91992 8.9232 8.14453L9.66539 8.32031C10.3197 8.47656 10.9252 8.70117 10.9252 9.38477C10.9252 10.1953 10.1439 10.4297 9.40172 10.4297C8.62047 10.4297 8.11265 10.2051 7.80992 9.49219C7.69273 9.23828 7.55601 9.13086 7.3314 9.13086C7.08726 9.13086 6.88219 9.29688 6.88219 9.57031C6.88219 9.64844 6.90172 9.73633 6.93101 9.83398C7.23375 10.8398 8.38609 11.2695 9.38219 11.2695ZM9.37242 12.1777C9.52867 12.1777 9.65562 12.0508 9.65562 11.8945L9.65562 3.75C9.65562 3.60352 9.52867 3.47656 9.37242 3.47656C9.22594 3.47656 9.09898 3.60352 9.09898 3.75L9.09898 11.8945C9.09898 12.0508 9.22594 12.1777 9.37242 12.1777Z" fill="var(--color-primary)"/>
 </g>
</svg>
