<svg version="1.1" xmlns="http://www.w3.org/2000/svg" xmlns:xlink="http://www.w3.org/1999/xlink" viewBox="0 0 17.7734 16.5527">
 <g>
  <rect height="16.5527" opacity="0" width="17.7734" x="0" y="0"/>
  <path d="M1.10352 14.541L16.3184 14.541L16.3184 13.9746C16.3184 13.623 16.1133 13.418 15.752 13.418L15.2637 13.418L15.2637 5.42969L15.918 5.42969C16.3965 5.42969 16.6797 5.07812 16.6797 4.72656C16.6797 4.46289 16.5234 4.23828 16.2109 4.04297L9.6875 0.283203C9.375 0.0976562 9.0332 0 8.71094 0C8.37891 0 8.03711 0.0976562 7.72461 0.283203L1.20117 4.04297C0.878906 4.23828 0.732422 4.46289 0.732422 4.72656C0.732422 5.07812 1.01562 5.42969 1.49414 5.42969L2.1582 5.42969L2.1582 13.418L1.66992 13.418C1.30859 13.418 1.10352 13.623 1.10352 13.9746ZM3.47656 13.418L3.47656 4.375L8.44727 1.60156C8.52539 1.55273 8.62305 1.52344 8.71094 1.52344C8.78906 1.52344 8.88672 1.55273 8.96484 1.60156L13.9551 4.375L13.9551 13.418ZM0.703125 16.543L16.709 16.543C17.0898 16.543 17.4121 16.2207 17.4121 15.8301C17.4121 15.4492 17.0898 15.127 16.709 15.127L0.703125 15.127C0.322266 15.127 0 15.4492 0 15.8301C0 16.2207 0.322266 16.543 0.703125 16.543Z" fill="var(--color-primary)"/>
  <path d="M8.7207 11.4746C10.0488 11.4746 11.2012 10.8594 11.2012 9.51172C11.2012 8.33008 10.2441 7.88086 9.19922 7.63672L8.45703 7.46094C7.79297 7.30469 7.27539 7.02148 7.27539 6.43555C7.27539 5.74219 8.02734 5.41992 8.7207 5.41992C9.46289 5.41992 9.94141 5.74219 10.1465 6.35742C10.2441 6.61133 10.4004 6.72852 10.6348 6.72852C10.8398 6.72852 11.084 6.60156 11.084 6.29883C11.084 5.26367 9.76562 4.58984 8.7207 4.58984C7.45117 4.58984 6.32812 5.29297 6.32812 6.50391C6.32812 7.68555 7.30469 8.125 8.25195 8.34961L8.99414 8.52539C9.6582 8.68164 10.2539 8.90625 10.2539 9.58984C10.2539 10.4102 9.48242 10.6445 8.74023 10.6445C7.95898 10.6445 7.44141 10.4102 7.13867 9.70703C7.02148 9.44336 6.89453 9.3457 6.66016 9.3457C6.41602 9.3457 6.21094 9.50195 6.21094 9.77539C6.21094 9.85352 6.23047 9.94141 6.25977 10.0391C6.5625 11.0547 7.71484 11.4746 8.7207 11.4746ZM8.71094 12.3828C8.85742 12.3828 8.98438 12.2559 8.98438 12.1094L8.98438 3.96484C8.98438 3.80859 8.85742 3.68164 8.71094 3.68164C8.55469 3.68164 8.42773 3.80859 8.42773 3.96484L8.42773 12.1094C8.42773 12.2559 8.55469 12.3828 8.71094 12.3828Z" fill="var(--color-primary)"/>
 </g>
</svg>
