<svg version="1.1" xmlns="http://www.w3.org/2000/svg" xmlns:xlink="http://www.w3.org/1999/xlink" viewBox="0 0 14.5898 14.248">
 <g>
  <rect height="14.248" opacity="0" width="14.5898" x="0" y="0"/>
  <path d="M0 13.584C0 13.9746 0.263672 14.248 0.664062 14.248L13.5645 14.248C13.9648 14.248 14.2285 13.9746 14.2285 13.584L14.2285 0.683594C14.2285 0.283203 13.9648 0.00976562 13.5645 0.00976562L0.664062 0.00976562C0.263672 0.00976562 0 0.283203 0 0.683594Z" fill="var(--color-tertiary)"/>
  <path d="M7.11914 9.59961C5.75195 9.59961 4.64844 8.49609 4.64844 7.12891C4.64844 5.76172 5.75195 4.6582 7.11914 4.6582C8.47656 4.6582 9.58008 5.76172 9.58008 7.12891C9.58008 8.49609 8.47656 9.59961 7.11914 9.59961Z" fill="var(--color-primary)"/>
 </g>
</svg>
