<svg version="1.1" xmlns="http://www.w3.org/2000/svg" xmlns:xlink="http://www.w3.org/1999/xlink" viewBox="0 0 20.5371 11.6113">
 <g>
  <rect height="11.6113" opacity="0" width="20.5371" x="0" y="0"/>
  <path d="M1.14258 9.87305C1.78711 9.87305 2.28516 9.375 2.28516 8.74023L2.28516 2.86133C2.28516 2.2168 1.78711 1.71875 1.14258 1.71875C0.498047 1.71875 0 2.2168 0 2.86133L0 8.74023C0 9.375 0.498047 9.87305 1.14258 9.87305ZM4.95117 11.6016C6.01562 11.6016 6.75781 10.8789 6.75781 9.86328L6.75781 1.74805C6.75781 0.722656 6.01562 0 4.95117 0C3.89648 0 3.1543 0.722656 3.1543 1.74805L3.1543 9.86328C3.1543 10.8789 3.89648 11.6016 4.95117 11.6016ZM7.71484 7.30469L12.5586 7.30469L12.5586 4.29688L7.71484 4.29688ZM15.3125 11.6016C16.377 11.6016 17.1191 10.8789 17.1191 9.86328L17.1191 1.74805C17.1191 0.722656 16.377 0 15.3125 0C14.2578 0 13.5156 0.722656 13.5156 1.74805L13.5156 9.86328C13.5156 10.8789 14.2578 11.6016 15.3125 11.6016ZM19.0332 9.87305C19.6777 9.87305 20.1758 9.375 20.1758 8.74023L20.1758 2.86133C20.1758 2.2168 19.6777 1.71875 19.0332 1.71875C18.3887 1.71875 17.8906 2.2168 17.8906 2.86133L17.8906 8.74023C17.8906 9.375 18.3887 9.87305 19.0332 9.87305Z" fill="var(--color-primary)"/>
 </g>
</svg>
