<svg version="1.1" xmlns="http://www.w3.org/2000/svg" xmlns:xlink="http://www.w3.org/1999/xlink" viewBox="0 0 16.1328 15.7715">
 <g>
  <rect height="15.7715" opacity="0" width="16.1328" x="0" y="0"/>
  <path d="M7.88086 15.7617C12.2363 15.7617 15.7715 12.2266 15.7715 7.88086C15.7715 3.53516 12.2363 0 7.88086 0C3.53516 0 0 3.53516 0 7.88086C0 12.2266 3.53516 15.7617 7.88086 15.7617Z" fill="var(--color-tertiary)"/>
  <path d="M4.83398 11.1914C4.30664 11.1914 4.01367 10.918 4.01367 10.3906L4.01367 9.90234C4.01367 9.38477 4.30664 9.12109 4.83398 9.12109L10.9375 9.12109C11.4551 9.12109 11.7578 9.38477 11.7578 9.90234L11.7578 10.3906C11.7578 10.918 11.4551 11.1914 10.9375 11.1914ZM4.62891 8.13477C4.27734 8.13477 4.12109 7.95898 4.0918 7.64648C4.08203 7.5 4.15039 7.35352 4.27734 7.22656L7.35352 3.88672C7.48047 3.74023 7.66602 3.61328 7.88086 3.61328C8.10547 3.61328 8.28125 3.7207 8.41797 3.88672L11.4746 7.22656C11.6016 7.36328 11.6797 7.5 11.6797 7.64648C11.6797 7.95898 11.4746 8.13477 11.1328 8.13477Z" fill="var(--color-primary)"/>
 </g>
</svg>
