<svg version="1.1" xmlns="http://www.w3.org/2000/svg" xmlns:xlink="http://www.w3.org/1999/xlink" viewBox="0 0 17.7734 16.5527">
 <g>
  <rect height="16.5527" opacity="0" width="17.7734" x="0" y="0"/>
  <path d="M1.10352 15.5078L16.3184 15.5078L16.3184 14.5508C16.3184 14.1992 16.1133 13.9941 15.752 13.9941L15.2637 13.9941L15.2637 5.42969L15.918 5.42969C16.3965 5.42969 16.6797 5.07812 16.6797 4.72656C16.6797 4.46289 16.5234 4.23828 16.2109 4.04297L9.6875 0.283203C9.375 0.0976562 9.0332 0 8.71094 0C8.37891 0 8.03711 0.0976562 7.72461 0.283203L1.20117 4.04297C0.878906 4.23828 0.732422 4.46289 0.732422 4.72656C0.732422 5.07812 1.01562 5.42969 1.49414 5.42969L2.1582 5.42969L2.1582 13.9941L1.66992 13.9941C1.30859 13.9941 1.10352 14.1992 1.10352 14.5508ZM0.703125 16.543L16.709 16.543C17.0898 16.543 17.4121 16.2207 17.4121 15.8301C17.4121 15.4492 17.0898 15.127 16.709 15.127L0.703125 15.127C0.322266 15.127 0 15.4492 0 15.8301C0 16.2207 0.322266 16.543 0.703125 16.543Z" fill="var(--color-tertiary)"/>
  <path d="M5.55664 11.6309C5.25391 11.6309 5.10742 11.4551 5.10742 11.1523L5.10742 6.38672C5.10742 6.09375 5.26367 5.92773 5.55664 5.92773L7.77344 5.92773C8.03711 5.92773 8.18359 6.05469 8.18359 6.30859C8.18359 6.55273 8.03711 6.69922 7.77344 6.69922L6.01562 6.69922L6.01562 8.34961L7.70508 8.34961C7.92969 8.34961 8.07617 8.49609 8.07617 8.7207C8.07617 8.94531 7.92969 9.0918 7.70508 9.0918L6.01562 9.0918L6.01562 10.8496L7.77344 10.8496C8.03711 10.8496 8.18359 10.9961 8.18359 11.2402C8.18359 11.4844 8.03711 11.6309 7.77344 11.6309ZM9.45312 11.6309C9.20898 11.6309 8.99414 11.4844 8.99414 11.1914C8.99414 11.0547 9.04297 10.9277 9.11133 10.8105L11.4453 6.72852L11.4453 6.69922L9.41406 6.69922C9.17969 6.69922 9.00391 6.54297 9.00391 6.30859C9.00391 6.06445 9.17969 5.92773 9.41406 5.92773L12.0117 5.92773C12.334 5.92773 12.4805 6.13281 12.4805 6.36719C12.4805 6.51367 12.4219 6.63086 12.3438 6.74805L10.0391 10.8105L10.0391 10.8496L12.1875 10.8496C12.4219 10.8496 12.5586 11.0059 12.5586 11.2402C12.5586 11.4746 12.4219 11.6309 12.1875 11.6309Z" fill="var(--color-primary)"/>
 </g>
</svg>
