<svg version="1.1" xmlns="http://www.w3.org/2000/svg" xmlns:xlink="http://www.w3.org/1999/xlink" viewBox="0 0 14.5898 14.248">
 <g>
  <rect height="14.248" opacity="0" width="14.5898" x="0" y="0"/>
  <path d="M2.49023 14.248L11.7383 14.248C13.4082 14.248 14.2285 13.4277 14.2285 11.7871L14.2285 2.4707C14.2285 0.830078 13.4082 0.00976562 11.7383 0.00976562L2.49023 0.00976562C0.830078 0.00976562 0 0.830078 0 2.4707L0 11.7871C0 13.4277 0.830078 14.248 2.49023 14.248Z" fill="var(--color-tertiary)"/>
  <path d="M7.11914 8.56445C6.66016 8.56445 6.41602 8.31055 6.40625 7.86133L6.29883 3.70117C6.28906 3.24219 6.62109 2.91016 7.10938 2.91016C7.57812 2.91016 7.93945 3.25195 7.92969 3.71094L7.80273 7.86133C7.79297 8.32031 7.54883 8.56445 7.11914 8.56445ZM7.11914 11.2109C6.62109 11.2109 6.18164 10.8203 6.18164 10.3223C6.18164 9.82422 6.61133 9.42383 7.11914 9.42383C7.61719 9.42383 8.04688 9.81445 8.04688 10.3223C8.04688 10.8301 7.60742 11.2109 7.11914 11.2109Z" fill="var(--color-primary)"/>
 </g>
</svg>
