<svg version="1.1" xmlns="http://www.w3.org/2000/svg" xmlns:xlink="http://www.w3.org/1999/xlink" viewBox="0 0 16.1328 15.7715">
 <g>
  <rect height="15.7715" opacity="0" width="16.1328" x="0" y="0"/>
  <path d="M7.88086 15.7617C12.2363 15.7617 15.7715 12.2266 15.7715 7.88086C15.7715 3.53516 12.2363 0 7.88086 0C3.53516 0 0 3.53516 0 7.88086C0 12.2266 3.53516 15.7617 7.88086 15.7617Z" fill="var(--color-tertiary)"/>
  <path d="M7.88086 9.32617C7.43164 9.32617 7.1875 9.07227 7.17773 8.62305L7.06055 4.46289C7.05078 4.00391 7.39258 3.67188 7.87109 3.67188C8.34961 3.67188 8.70117 4.01367 8.69141 4.47266L8.57422 8.62305C8.56445 9.08203 8.32031 9.32617 7.88086 9.32617ZM7.88086 11.9727C7.39258 11.9727 6.95312 11.582 6.95312 11.084C6.95312 10.5859 7.38281 10.1855 7.88086 10.1855C8.38867 10.1855 8.81836 10.5762 8.81836 11.084C8.81836 11.5918 8.37891 11.9727 7.88086 11.9727Z" fill="var(--color-primary)"/>
 </g>
</svg>
