<svg version="1.1" xmlns="http://www.w3.org/2000/svg" xmlns:xlink="http://www.w3.org/1999/xlink" viewBox="0 0 16.1328 15.7715">
 <g>
  <rect height="15.7715" opacity="0" width="16.1328" x="0" y="0"/>
  <path d="M7.88086 15.7715C12.2363 15.7715 15.7715 12.2363 15.7715 7.89062C15.7715 3.54492 12.2363 0.00976562 7.88086 0.00976562C3.53516 0.00976562 0 3.54492 0 7.89062C0 12.2363 3.53516 15.7715 7.88086 15.7715Z" fill="var(--color-tertiary)"/>
  <path d="M4.60938 4.05273L11.7285 11.1816C11.8848 11.3281 11.8848 11.5723 11.7285 11.7285C11.582 11.875 11.3281 11.875 11.1816 11.7285L4.04297 4.59961C3.90625 4.46289 3.90625 4.19922 4.04297 4.05273C4.20898 3.89648 4.45312 3.89648 4.60938 4.05273ZM5.88033 7.27372C5.82051 7.47081 5.78919 7.68116 5.79102 7.90039C5.79102 9.0332 6.71875 9.99023 7.88086 9.99023C8.09858 9.99023 8.30807 9.95664 8.50477 9.89457L9.47683 10.8653C8.98328 11.0087 8.4488 11.0938 7.88086 11.0938C4.88281 11.0938 2.75391 8.66211 2.75391 7.90039C2.75391 7.48631 3.38304 6.57873 4.44251 5.83788ZM12.998 7.90039C12.998 8.31166 12.3917 9.20973 11.3517 9.94764L9.88491 8.48488C9.94119 8.2989 9.9707 8.10244 9.9707 7.90039C9.9707 6.72852 9.04297 5.81055 7.88086 5.81055C7.67457 5.81055 7.47535 5.83947 7.28779 5.89489L6.32037 4.93012C6.80535 4.78962 7.32835 4.70703 7.88086 4.70703C10.9082 4.70703 12.998 7.13867 12.998 7.90039Z" fill="var(--color-primary)"/>
 </g>
</svg>
