<svg version="1.1" xmlns="http://www.w3.org/2000/svg" xmlns:xlink="http://www.w3.org/1999/xlink" viewBox="0 0 16.1328 15.7715">
 <g>
  <rect height="15.7715" opacity="0" width="16.1328" x="0" y="0"/>
  <path d="M7.88086 15.7617C12.2363 15.7617 15.7715 12.2266 15.7715 7.88086C15.7715 3.53516 12.2363 0 7.88086 0C3.53516 0 0 3.53516 0 7.88086C0 12.2266 3.53516 15.7617 7.88086 15.7617Z" fill="var(--color-tertiary)"/>
  <path d="M2.98828 9.64844C2.83203 9.64844 2.69531 9.51172 2.69531 9.35547C2.69531 9.18945 2.83203 9.0625 2.98828 9.0625L3.45703 9.0625C4.24805 9.0625 4.51172 8.34961 5.66406 8.34961C6.80664 8.34961 7.08984 9.0625 7.87109 9.0625C8.66211 9.0625 8.94531 8.34961 10.0879 8.34961C11.2402 8.34961 11.5039 9.0625 12.2949 9.0625L12.7637 9.0625C12.9199 9.0625 13.0566 9.18945 13.0566 9.35547C13.0566 9.51172 12.9199 9.64844 12.7637 9.64844L12.2949 9.64844C11.0938 9.64844 10.8594 8.93555 10.0879 8.93555C9.31641 8.93555 9.08203 9.64844 7.87109 9.64844C6.66992 9.64844 6.42578 8.93555 5.66406 8.93555C4.89258 8.93555 4.64844 9.64844 3.45703 9.64844ZM3.10547 10.8301C2.95898 10.8301 2.83203 10.7031 2.83203 10.5566C2.83203 10.4102 2.95898 10.2832 3.10547 10.2832C3.25195 10.2832 3.36914 10.4102 3.36914 10.5566C3.36914 10.7031 3.25195 10.8301 3.10547 10.8301ZM3.90625 10.6738C3.75977 10.6738 3.63281 10.5469 3.63281 10.4102C3.63281 10.2539 3.75977 10.1367 3.90625 10.1367C4.05273 10.1367 4.16992 10.2539 4.16992 10.4102C4.16992 10.5469 4.05273 10.6738 3.90625 10.6738ZM4.67773 10.3125C4.53125 10.3125 4.4043 10.1953 4.4043 10.0391C4.4043 9.89258 4.53125 9.76562 4.67773 9.76562C4.83398 9.76562 4.95117 9.89258 4.95117 10.0391C4.95117 10.1953 4.83398 10.3125 4.67773 10.3125ZM5.50781 10.1172C5.35156 10.1172 5.23438 10 5.23438 9.85352C5.23438 9.69727 5.35156 9.58008 5.50781 9.58008C5.6543 9.58008 5.77148 9.69727 5.77148 9.85352C5.77148 10 5.6543 10.1172 5.50781 10.1172ZM6.32812 10.3125C6.17188 10.3125 6.05469 10.1953 6.05469 10.0391C6.05469 9.89258 6.17188 9.76562 6.32812 9.76562C6.47461 9.76562 6.5918 9.89258 6.5918 10.0391C6.5918 10.1953 6.47461 10.3125 6.32812 10.3125ZM7.08984 10.6738C6.93359 10.6738 6.81641 10.5469 6.81641 10.4102C6.81641 10.2539 6.93359 10.1367 7.08984 10.1367C7.24609 10.1367 7.35352 10.2539 7.35352 10.4102C7.35352 10.5469 7.24609 10.6738 7.08984 10.6738ZM12.666 10.8301C12.5195 10.8301 12.4023 10.7031 12.4023 10.5566C12.4023 10.4102 12.5195 10.2832 12.666 10.2832C12.8125 10.2832 12.9395 10.4102 12.9395 10.5566C12.9395 10.7031 12.8125 10.8301 12.666 10.8301ZM11.8652 10.6738C11.709 10.6738 11.5918 10.5469 11.5918 10.4102C11.5918 10.2539 11.709 10.1367 11.8652 10.1367C12.0117 10.1367 12.1289 10.2539 12.1289 10.4102C12.1289 10.5469 12.0117 10.6738 11.8652 10.6738ZM11.0938 10.3125C10.9375 10.3125 10.8203 10.1953 10.8203 10.0391C10.8203 9.89258 10.9375 9.76562 11.0938 9.76562C11.2402 9.76562 11.3574 9.89258 11.3574 10.0391C11.3574 10.1953 11.2402 10.3125 11.0938 10.3125ZM10.2637 10.1172C10.1172 10.1172 9.99023 10 9.99023 9.85352C9.99023 9.69727 10.1172 9.58008 10.2637 9.58008C10.4199 9.58008 10.5273 9.69727 10.5273 9.85352C10.5273 10 10.4199 10.1172 10.2637 10.1172ZM9.44336 10.3125C9.29688 10.3125 9.16992 10.1953 9.16992 10.0391C9.16992 9.89258 9.29688 9.76562 9.44336 9.76562C9.59961 9.76562 9.70703 9.89258 9.70703 10.0391C9.70703 10.1953 9.59961 10.3125 9.44336 10.3125ZM8.68164 10.6738C8.53516 10.6738 8.4082 10.5469 8.4082 10.4102C8.4082 10.2539 8.53516 10.1367 8.68164 10.1367C8.82812 10.1367 8.94531 10.2539 8.94531 10.4102C8.94531 10.5469 8.82812 10.6738 8.68164 10.6738ZM7.88086 10.8301C7.73438 10.8301 7.61719 10.7031 7.61719 10.5566C7.61719 10.4102 7.73438 10.2832 7.88086 10.2832C8.03711 10.2832 8.1543 10.4102 8.1543 10.5566C8.1543 10.7031 8.03711 10.8301 7.88086 10.8301ZM10.1953 7.20703C9.6582 7.20703 9.22852 6.78711 9.22852 6.24023C9.22852 5.71289 9.6582 5.29297 10.1953 5.29297C10.7227 5.29297 11.1523 5.71289 11.1523 6.24023C11.1523 6.78711 10.7227 7.20703 10.1953 7.20703ZM6.40625 7.85156L7.36328 7.2168C7.5 7.12891 7.4707 6.98242 7.38281 6.89453L6.5918 6.09375L5.19531 7.07031C4.95117 7.24609 4.69727 7.17773 4.56055 7.02148C4.38477 6.83594 4.35547 6.52344 4.64844 6.31836L6.36719 5.09766C6.60156 4.93164 6.89453 4.95117 7.08984 5.15625L9.59961 7.75391C8.88672 7.91992 8.68164 8.41797 7.87109 8.41797C7.1875 8.41797 6.9043 8.05664 6.40625 7.85156Z" fill="var(--color-primary)"/>
 </g>
</svg>
