<svg version="1.1" xmlns="http://www.w3.org/2000/svg" xmlns:xlink="http://www.w3.org/1999/xlink" viewBox="0 0 16.1328 15.7715">
 <g>
  <rect height="15.7715" opacity="0" width="16.1328" x="0" y="0"/>
  <path d="M7.88086 15.7617C12.2363 15.7617 15.7715 12.2266 15.7715 7.88086C15.7715 3.53516 12.2363 0 7.88086 0C3.53516 0 0 3.53516 0 7.88086C0 12.2266 3.53516 15.7617 7.88086 15.7617Z" fill="var(--color-tertiary)"/>
  <path d="M3.37891 7.51953C3.18359 7.32422 3.17383 7.02148 3.37891 6.82617C3.56445 6.64062 3.87695 6.64062 4.07227 6.82617L5.14648 7.91016L6.25977 6.57227C6.44531 6.34766 6.71875 6.21094 7.02148 6.21094L8.75977 6.21094C9.05273 6.21094 9.32617 6.34766 9.50195 6.57227L10.6152 7.91016L11.6992 6.82617C11.8945 6.64062 12.207 6.64062 12.3926 6.82617C12.5977 7.02148 12.5879 7.32422 12.3926 7.51953L10.9277 9.00391C10.7227 9.19922 10.3906 9.19922 10.1953 8.95508L9.26758 7.82227C9.20898 7.75391 9.11133 7.7832 9.11133 7.87109L9.11133 9.82422L10.7617 9.62891C11.3477 9.57031 11.5234 10.4102 10.9766 10.5859L9.0918 11.2012C9.17969 11.5918 8.85742 11.9238 8.4668 11.8066L7.89062 11.6113L7.30469 11.8066C6.92383 11.9238 6.58203 11.5918 6.66992 11.2012L4.78516 10.5859C4.24805 10.4102 4.43359 9.57031 5 9.62891L6.66016 9.82422L6.66016 7.87109C6.66016 7.7832 6.5625 7.75391 6.50391 7.82227L5.57617 8.95508C5.37109 9.19922 5.04883 9.19922 4.84375 9.00391ZM7.89062 5.75195C7.35352 5.75195 6.92383 5.32227 6.92383 4.78516C6.92383 4.26758 7.35352 3.83789 7.89062 3.83789C8.41797 3.83789 8.84766 4.26758 8.84766 4.78516C8.84766 5.32227 8.41797 5.75195 7.89062 5.75195Z" fill="var(--color-primary)"/>
 </g>
</svg>
