<svg version="1.1" xmlns="http://www.w3.org/2000/svg" xmlns:xlink="http://www.w3.org/1999/xlink" viewBox="0 0 18.4298 16.603">
 <g>
  <rect height="16.603" opacity="0" width="18.4298" x="0" y="0"/>
  <path d="M14.3907 4.64427C15.5528 4.64427 16.4805 3.66771 16.4805 2.54466C16.4805 1.37279 15.5528 0.415757 14.3907 0.415757C13.2091 0.415757 12.2716 1.37279 12.2716 2.54466C12.2716 3.67748 13.2091 4.64427 14.3907 4.64427ZM1.88093 15.7576C2.28132 16.1775 2.96491 16.1482 3.46296 15.6404L6.8028 12.1931C6.91022 12.0759 6.98835 12.0466 7.16413 12.115L9.73249 13.0915C11.4122 13.7263 13.0137 13.2185 13.7266 11.9197L15.4356 8.80443C16.0899 7.61302 15.8848 6.39232 14.7618 5.78685C13.6583 5.18138 12.5255 5.64037 11.8614 6.8513L9.68366 10.8259L7.82819 10.1521C6.91022 9.82005 6.14851 9.92748 5.41608 10.6794L1.94929 14.2732C1.46101 14.7712 1.50983 15.3865 1.88093 15.7576Z" fill="var(--color-secondary)"/>
  <path d="M3.25788 3.19896L3.45319 3.62865L1.93952 5.23998L0.582099 5.90404C0.0254586 6.16771-0.11126 6.71459 0.0840524 7.12474C0.269599 7.54466 0.75788 7.8181 1.40241 7.51537L2.53522 6.96849L4.94733 6.83177L5.18171 7.32982C5.30866 7.61302 5.65046 7.73998 5.93366 7.60326C6.21686 7.4763 6.34382 7.13451 6.2071 6.86107L4.28327 2.73021C4.14655 2.44701 3.81452 2.32005 3.53132 2.45677C3.24811 2.58373 3.12116 2.92552 3.25788 3.19896ZM6.02155 2.99388L8.25788 2.00755C8.54108 1.8806 8.59968 1.57787 8.30671 1.37279L6.42194 0.0837258C6.16804-0.101821 5.8653 0.0348976 5.82624 0.357163L5.52351 2.60326C5.47468 2.94505 5.71882 3.1306 6.02155 2.99388ZM6.99811 5.09349C6.70515 5.22044 6.66608 5.52318 6.95905 5.72826L8.84382 7.01732C9.09772 7.20287 9.39069 7.05638 9.42976 6.75365L9.74226 4.49779C9.79108 4.13646 9.53718 3.97044 9.23444 4.10716Z" fill="var(--color-primary)"/>
 </g>
</svg>
