<svg version="1.1" xmlns="http://www.w3.org/2000/svg" xmlns:xlink="http://www.w3.org/1999/xlink" viewBox="0 0 22.066 15.7715">
 <g>
  <rect height="15.7715" opacity="0" width="22.066" x="0" y="0"/>
  <path d="M16.2088 4.22852C17.3709 4.22852 18.2986 3.25195 18.2986 2.12891C18.2986 0.957031 17.3709 0 16.2088 0C15.0271 0 14.0896 0.957031 14.0896 2.12891C14.0896 3.26172 15.0271 4.22852 16.2088 4.22852ZM3.69902 15.3418C4.09941 15.7617 4.783 15.7324 5.28105 15.2246L8.62089 11.7773C8.72831 11.6602 8.80644 11.6309 8.98222 11.6992L11.5506 12.6758C13.2303 13.3105 14.8318 12.8027 15.5447 11.5039L17.2537 8.38867C17.908 7.19727 17.7029 5.97656 16.5799 5.37109C15.4764 4.76562 14.3435 5.22461 13.6795 6.43555L11.5018 10.4102L9.64628 9.73633C8.72831 9.4043 7.96659 9.51172 7.23417 10.2637L3.76738 13.8574C3.27909 14.3555 3.32792 14.9707 3.69902 15.3418Z" fill="var(--color-primary)"/>
  <path d="M4.01152 3.13477C4.01152 3.50586 4.29472 3.78906 4.66581 3.78906L7.63456 3.78906L7.63456 4.96094C7.63456 5.55664 8.24003 5.83008 8.68925 5.41992L10.7205 3.58398C11.0037 3.32031 11.0135 2.98828 10.7205 2.71484L8.68925 0.888672C8.25956 0.498047 7.63456 0.712891 7.63456 1.34766L7.63456 2.50977L4.66581 2.50977C4.29472 2.50977 4.01152 2.79297 4.01152 3.13477ZM2.45878 4.05273C2.10722 4.05273 1.82402 4.3457 1.82402 4.69727L1.82402 7.67578L0.661907 7.68555C0.0271413 7.69531-0.197468 8.31055 0.193157 8.73047L2.03886 10.752C2.30253 11.0547 2.63456 11.0449 2.908 10.752L4.72441 8.73047C5.13456 8.28125 4.87089 7.67578 4.26542 7.67578L3.09355 7.67578L3.09355 4.69727C3.09355 4.3457 2.81034 4.05273 2.45878 4.05273Z" fill="var(--color-primary)"/>
 </g>
</svg>
