<svg version="1.1" xmlns="http://www.w3.org/2000/svg" xmlns:xlink="http://www.w3.org/1999/xlink" viewBox="0 0 16.1328 15.7715">
 <g>
  <rect height="15.7715" opacity="0" width="16.1328" x="0" y="0"/>
  <path d="M7.88086 15.7617C12.2363 15.7617 15.7715 12.2266 15.7715 7.88086C15.7715 3.53516 12.2363 0 7.88086 0C3.53516 0 0 3.53516 0 7.88086C0 12.2266 3.53516 15.7617 7.88086 15.7617Z" fill="var(--color-tertiary)"/>
  <path d="M10.6543 6.8457C10.127 6.8457 9.6875 6.41602 9.6875 5.89844C9.6875 5.36133 10.127 4.93164 10.6543 4.93164C11.1816 4.93164 11.6211 5.36133 11.6211 5.89844C11.6211 6.41602 11.1816 6.8457 10.6543 6.8457ZM3.14453 9.6875L7.1582 2.32422C7.38281 1.92383 7.90039 2.07031 7.90039 2.43164L7.90039 7.30469L10.9473 7.30469C11.2793 7.30469 11.6016 7.43164 11.8457 7.67578L13.0664 8.90625C13.2422 9.08203 13.2422 9.32617 13.0664 9.51172L12.0215 10.5762C11.6309 10.9668 11.0254 10.3711 11.4258 9.9707L12.1875 9.20898L11.4453 8.47656C11.3672 8.39844 11.2109 8.38867 11.1328 8.47656L9.33594 10.3125L3.47656 10.3125C3.1543 10.3125 2.97852 10 3.14453 9.6875ZM7.30469 9.7168L7.30469 3.33984C7.30469 3.32031 7.29492 3.31055 7.28516 3.33008L3.82812 9.69727C3.81836 9.70703 3.81836 9.7168 3.83789 9.7168ZM7.90039 9.22852L8.84766 8.29102C8.90625 8.22266 8.86719 8.1543 8.78906 8.1543L7.90039 8.1543ZM3.11523 11.8066C3.11523 11.6504 3.25195 11.5039 3.4082 11.5039L3.42773 11.5039C4.23828 11.5039 4.50195 10.8105 5.6543 10.8105C6.79688 10.8105 7.07031 11.5039 7.86133 11.5039C8.65234 11.5039 8.93555 10.8105 10.0781 10.8105C11.2207 10.8105 11.4941 11.5039 12.2852 11.5039L12.3047 11.5039C12.4707 11.5039 12.6074 11.6504 12.6074 11.8066C12.6074 11.9629 12.4707 12.1094 12.3047 12.1094L12.2852 12.1094C11.084 12.1094 10.8496 11.3965 10.0781 11.3965C9.31641 11.3965 9.07227 12.1094 7.86133 12.1094C6.66016 12.1094 6.40625 11.3965 5.6543 11.3965C4.88281 11.3965 4.63867 12.1094 3.42773 12.1094L3.4082 12.1094C3.25195 12.1094 3.11523 11.9629 3.11523 11.8066Z" fill="var(--color-primary)"/>
 </g>
</svg>
