<svg version="1.1" xmlns="http://www.w3.org/2000/svg" xmlns:xlink="http://www.w3.org/1999/xlink" viewBox="0 0 16.1328 15.7715">
 <g>
  <rect height="15.7715" opacity="0" width="16.1328" x="0" y="0"/>
  <path d="M7.88086 15.7617C12.2363 15.7617 15.7715 12.2266 15.7715 7.88086C15.7715 3.53516 12.2363 0 7.88086 0C3.53516 0 0 3.53516 0 7.88086C0 12.2266 3.53516 15.7617 7.88086 15.7617Z" fill="var(--color-tertiary)"/>
  <path d="M9.78516 4.45312C9.25781 4.45312 8.81836 4.01367 8.81836 3.48633C8.81836 2.96875 9.25781 2.53906 9.78516 2.53906C10.3125 2.53906 10.7324 2.96875 10.7324 3.48633C10.7324 4.01367 10.3125 4.45312 9.78516 4.45312ZM11.8652 10.4199C11.6895 10.4199 11.5625 10.2832 11.5625 10.1172L11.5625 6.36719L9.56055 6.36719C9.43359 6.36719 9.32617 6.30859 9.24805 6.23047L8.52539 5.50781C8.45703 5.42969 8.35938 5.43945 8.29102 5.50781L7.25586 6.54297L8.4082 7.69531C8.48633 7.7832 8.54492 7.90039 8.54492 8.01758L8.54492 10.127C8.54492 10.2344 8.49609 10.332 8.44727 10.4102L10.3125 12.2754C10.5566 12.5293 10.625 12.5586 10.9082 12.5586C11.0645 12.5586 11.2012 12.7051 11.2012 12.8613C11.2012 13.0176 11.0645 13.1543 10.9082 13.1543C10.5566 13.1543 10.2344 13.0469 9.9707 12.7832L7.27539 10.0781L7.27539 10.2344C7.27539 10.332 7.23633 10.4395 7.17773 10.5078L9.17969 12.5098C9.43359 12.7637 9.48242 12.793 9.77539 12.793C9.92188 12.793 10.0684 12.9395 10.0684 13.1055C10.0684 13.2617 9.93164 13.3984 9.77539 13.3984C9.41406 13.3984 9.12109 13.291 8.83789 13.0176L4.08203 8.25195C3.97461 8.14453 3.97461 7.95898 4.08203 7.83203C4.19922 7.73438 4.39453 7.71484 4.51172 7.83203L6.37695 9.7168L6.37695 9.18945L5.22461 8.01758C5.11719 7.90039 5.10742 7.71484 5.22461 7.59766C5.33203 7.49023 5.52734 7.49023 5.63477 7.59766L6.37695 8.33984L6.37695 7.7832L5.5957 7.01172C5.23438 6.66016 5.21484 6.03516 5.57617 5.67383L5.60547 5.64453L2.83203 5.64453C2.66602 5.64453 2.53906 5.50781 2.53906 5.35156C2.53906 5.17578 2.66602 5.03906 2.83203 5.03906L6.15234 5.03906L5.44922 4.33594C5.16602 4.05273 5.30273 3.56445 5.75195 3.56445L7.40234 3.56445C7.68555 3.56445 7.96875 3.68164 8.17383 3.88672L9.73633 5.45898L11.6699 5.45898C11.9141 5.45898 12.1582 5.64453 12.1582 5.88867L12.1582 10.1172C12.1582 10.2832 12.0215 10.4199 11.8652 10.4199ZM7.27539 9.23828L7.63672 9.59961L7.63672 8.20312L7.27539 7.8418Z" fill="var(--color-primary)"/>
 </g>
</svg>
