<svg version="1.1" xmlns="http://www.w3.org/2000/svg" xmlns:xlink="http://www.w3.org/1999/xlink" viewBox="0 0 16.1328 15.7715">
 <g>
  <rect height="15.7715" opacity="0" width="16.1328" x="0" y="0"/>
  <path d="M15.7715 7.88086C15.7715 12.2266 12.2363 15.7617 7.88086 15.7617C3.53516 15.7617 0 12.2266 0 7.88086C0 3.53516 3.53516 0 7.88086 0C12.2363 0 15.7715 3.53516 15.7715 7.88086ZM8.01758 4.56055L6.09375 4.6582C5.85938 4.66797 5.66406 4.81445 5.64453 5.09766L5.52734 6.78711C5.52734 6.86523 5.53711 6.93359 5.57617 6.99219L2.8418 9.67773C2.72461 9.79492 2.72461 9.98047 2.83203 10.0977C2.93945 10.2051 3.14453 10.2148 3.26172 10.0977L6.2793 7.12891C6.35742 7.06055 6.39648 6.93359 6.40625 6.77734L6.47461 5.49805L7.59766 5.44922L6.74805 6.97266C6.47461 7.46094 6.60156 8.00781 7.09961 8.29102L8.75 9.22852L8.75 11.4551C8.75 11.4941 8.75977 11.5234 8.76953 11.543L5.23438 11.543L7.04102 9.86328C7.1582 9.75586 7.1875 9.69727 7.23633 9.58008L7.48047 9.00391L6.88477 8.65234C6.75781 8.57422 6.66992 8.52539 6.5918 8.42773L6.36719 9.28711L4.50195 11.0156C4.31641 11.1816 4.30664 11.3867 4.39453 11.543L3.52539 11.543C3.35938 11.543 3.22266 11.6699 3.22266 11.8262C3.22266 11.9824 3.33984 12.1387 3.52539 12.1387L11.4355 12.1387C11.8848 12.1387 12.1582 12.0117 12.4707 11.875C12.6367 11.7969 12.6855 11.6309 12.6367 11.4941C12.5781 11.3574 12.4121 11.2305 12.2266 11.3477C11.9824 11.4648 11.7871 11.543 11.4355 11.543L9.62891 11.543C9.62891 11.5234 9.63867 11.4941 9.63867 11.4551L9.63867 8.93555C9.63867 8.80859 9.59961 8.7207 9.44336 8.59375L8.27148 7.65625L9.16992 6.08398L10.625 7.17773C10.8398 7.33398 11.1035 7.30469 11.2891 7.10938L11.8066 6.55273L11.4648 10.8008C11.4551 10.957 11.582 11.1133 11.7285 11.1328C11.8945 11.1328 12.041 11.0156 12.0508 10.8398L12.4707 5.69336C12.5 5.32227 11.9824 5.01953 11.6504 5.40039L10.918 6.25L9.62891 5.20508C9.21875 4.87305 8.7207 4.52148 8.01758 4.56055ZM8.66211 3.57422C8.66211 4.0918 9.10156 4.53125 9.62891 4.53125C10.1562 4.53125 10.5859 4.0918 10.5859 3.57422C10.5859 3.04688 10.1562 2.60742 9.62891 2.60742C9.10156 2.60742 8.66211 3.04688 8.66211 3.57422Z" fill="var(--color-primary)"/>
 </g>
</svg>
