<svg version="1.1" xmlns="http://www.w3.org/2000/svg" xmlns:xlink="http://www.w3.org/1999/xlink" viewBox="0 0 16.1328 15.7715">
 <g>
  <rect height="15.7715" opacity="0" width="16.1328" x="0" y="0"/>
  <path d="M15.7715 7.88086C15.7715 12.2266 12.2363 15.7617 7.88086 15.7617C3.53516 15.7617 0 12.2266 0 7.88086C0 3.53516 3.53516 0 7.88086 0C12.2363 0 15.7715 3.53516 15.7715 7.88086ZM10.6934 4.54102L5.25391 7.24609L5.25391 5.80078C5.25391 5.56641 5.05859 5.37109 4.81445 5.37109C4.58008 5.37109 4.375 5.56641 4.375 5.80078L4.375 7.96875C4.375 8.32031 4.73633 8.47656 5.00977 8.33984L6.55273 7.56836C6.62109 7.5293 6.69922 7.57812 6.72852 7.64648L7.16797 9.44336L6.47461 11.2012L4.81445 11.2012C4.58008 11.2012 4.375 11.3867 4.375 11.6211C4.375 11.8652 4.58008 12.0508 4.81445 12.0508L6.74805 12.0508C6.93359 12.0508 7.06055 11.9727 7.14844 11.7969L8.08594 10.0781L8.60352 11.4453L6.95312 12.5586C6.75781 12.6953 6.69922 12.9688 6.83594 13.1641C6.97266 13.3594 7.2168 13.418 7.42188 13.2715L9.38477 11.9629C9.54102 11.8652 9.60938 11.7285 9.54102 11.4648L8.37891 6.8457C8.34961 6.73828 8.36914 6.65039 8.48633 6.60156L11.084 5.3125C11.2988 5.20508 11.3867 4.94141 11.2793 4.72656C11.1621 4.51172 10.9082 4.43359 10.6934 4.54102ZM5.9668 4.87305C5.9668 5.41016 6.38672 5.83984 6.91406 5.83984C7.44141 5.83984 7.87109 5.41016 7.87109 4.87305C7.87109 4.3457 7.44141 3.91602 6.91406 3.91602C6.38672 3.91602 5.9668 4.3457 5.9668 4.87305ZM9.16992 3.31055C9.16992 3.78906 9.55078 4.16016 10.0293 4.16016C10.4883 4.16016 10.8691 3.78906 10.8691 3.31055C10.8691 2.8418 10.4883 2.46094 10.0293 2.46094C9.55078 2.46094 9.16992 2.8418 9.16992 3.31055Z" fill="var(--color-primary)"/>
 </g>
</svg>
