<svg version="1.1" xmlns="http://www.w3.org/2000/svg" xmlns:xlink="http://www.w3.org/1999/xlink" viewBox="0 0 19.2676 18.0566">
 <g>
  <rect height="18.0566" opacity="0" width="19.2676" x="0" y="0"/>
  <path d="M3.125 3.30078L7.67578 3.30078C7.97852 3.30078 8.21289 3.03711 8.21289 2.73438C8.21289 2.42188 7.97852 2.16797 7.67578 2.16797L3.125 2.16797C2.82227 2.16797 2.58789 2.42188 2.58789 2.73438C2.58789 3.03711 2.82227 3.30078 3.125 3.30078ZM0.527344 7.1582L5.73242 7.1582C6.03516 7.1582 6.26953 6.9043 6.26953 6.5918C6.26953 6.2793 6.03516 6.02539 5.73242 6.02539L0.527344 6.02539C0.234375 6.02539 0 6.28906 0 6.5918C0 6.89453 0.234375 7.1582 0.527344 7.1582ZM2.87109 11.0156L5.72266 11.0156C6.02539 11.0156 6.25977 10.7617 6.25977 10.4492C6.25977 10.1367 6.01562 9.88281 5.72266 9.88281L2.87109 9.88281C2.56836 9.88281 2.32422 10.1367 2.32422 10.4492C2.32422 10.7617 2.56836 11.0156 2.87109 11.0156ZM0.830078 14.8145L4.75586 14.8145C5.05859 14.8145 5.29297 14.5605 5.29297 14.248C5.29297 13.9453 5.05859 13.6914 4.75586 13.6914L0.830078 13.6914C0.527344 13.6914 0.283203 13.9453 0.283203 14.248C0.283203 14.5605 0.527344 14.8145 0.830078 14.8145Z" fill="var(--color-secondary)"/>
  <path d="M9.28711 17.4512L11.7383 14.5312C11.9727 14.2578 12.002 14.1797 12.0996 13.8867L12.2949 13.3203L10.9668 11.6602L10.5664 13.5156L8.14453 16.3867C7.35352 17.3047 8.63281 18.2129 9.28711 17.4512ZM15.2344 17.207C15.7422 18.2324 17.2656 17.6074 16.709 16.4941L15.0488 13.1152C14.9219 12.8613 14.7363 12.5879 14.5898 12.373L13.5352 10.8691L13.6133 10.6543C13.9062 9.82422 13.9941 9.30664 14.0527 8.4668L14.2188 6.11328C14.2969 4.99023 13.6426 4.13086 12.4805 4.13086C11.6211 4.13086 11.0352 4.57031 10.2441 5.3418L8.99414 6.57227C8.58398 6.97266 8.45703 7.31445 8.41797 7.83203L8.27148 9.76562C8.23242 10.2539 8.50586 10.5957 8.95508 10.6152C9.41406 10.6445 9.69727 10.3711 9.74609 9.85352L9.92188 7.74414L10.5176 7.20703C10.7324 7.01172 11.0059 7.14844 10.9863 7.35352L10.8594 9.14062C10.791 10.0488 10.9961 10.4785 11.6211 11.2598L13.2715 13.3301C13.4375 13.5352 13.457 13.623 13.5254 13.75ZM18.0859 7.31445L16.2012 7.31445L14.9902 5.97656L14.8633 7.98828L15.332 8.44727C15.6055 8.7207 15.8398 8.79883 16.3281 8.79883L18.0859 8.79883C18.5742 8.79883 18.9062 8.51562 18.9062 8.05664C18.9062 7.60742 18.5645 7.31445 18.0859 7.31445ZM13.4082 3.4082C14.3457 3.4082 15.1074 2.64648 15.1074 1.70898C15.1074 0.761719 14.3457 0 13.4082 0C12.4609 0 11.6992 0.761719 11.6992 1.70898C11.6992 2.64648 12.4609 3.4082 13.4082 3.4082Z" fill="var(--color-primary)"/>
 </g>
</svg>
