<svg version="1.1" xmlns="http://www.w3.org/2000/svg" xmlns:xlink="http://www.w3.org/1999/xlink" viewBox="0 0 16.1328 15.7715">
 <g>
  <rect height="15.7715" opacity="0" width="16.1328" x="0" y="0"/>
  <path d="M7.88086 15.7617C12.2363 15.7617 15.7715 12.2266 15.7715 7.88086C15.7715 3.53516 12.2363 0 7.88086 0C3.53516 0 0 3.53516 0 7.88086C0 12.2266 3.53516 15.7617 7.88086 15.7617Z" fill="var(--color-tertiary)"/>
  <path d="M5.85938 5.00977C5.33203 5.00977 4.89258 4.58984 4.89258 4.05273C4.89258 3.52539 5.33203 3.0957 5.85938 3.0957C6.38672 3.0957 6.81641 3.52539 6.81641 4.05273C6.81641 4.58984 6.38672 5.00977 5.85938 5.00977ZM11.9824 10.918C12.1973 11.0254 12.2754 11.3086 12.168 11.5234C12.0801 11.7188 11.8262 11.8359 11.5625 11.6992L9.05273 10.3613L7.51953 9.49219L4.96094 9.29688L4.96094 11.3086C4.96094 11.5527 4.75586 11.7578 4.50195 11.7578C4.26758 11.7578 4.0625 11.5527 4.0625 11.3086L4.0625 8.94531L3.23242 7.4707C3.13477 7.29492 3.1543 7.08008 3.30078 6.93359L4.48242 5.74219C4.69727 5.54688 4.91211 5.45898 5.23438 5.45898L6.2793 5.45898C6.75781 5.45898 7.1875 5.77148 7.31445 6.25L7.63672 7.58789C7.68555 7.77344 7.61719 7.96875 7.44141 8.07617C7.53906 8.19336 7.65625 8.30078 7.7832 8.39844L9.45312 9.55078ZM4.16992 7.33398L4.77539 8.36914L5.07812 8.36914L5.55664 8.10547L4.94141 6.55273Z" fill="var(--color-primary)"/>
 </g>
</svg>
