<svg version="1.1" xmlns="http://www.w3.org/2000/svg" xmlns:xlink="http://www.w3.org/1999/xlink" viewBox="0 0 16.1328 15.7715">
 <g>
  <rect height="15.7715" opacity="0" width="16.1328" x="0" y="0"/>
  <path d="M7.88086 15.7617C12.2363 15.7617 15.7715 12.2363 15.7715 7.88086C15.7715 3.52539 12.2363 0 7.88086 0C3.53516 0 0 3.52539 0 7.88086C0 12.2363 3.53516 15.7617 7.88086 15.7617ZM7.88086 14.2773C4.3457 14.2773 1.49414 11.416 1.49414 7.88086C1.49414 4.3457 4.3457 1.48438 7.88086 1.48438C11.416 1.48438 14.2773 4.3457 14.2773 7.88086C14.2773 11.416 11.416 14.2773 7.88086 14.2773Z" fill="var(--color-secondary)"/>
  <path d="M7.8125 5.64453C8.32031 5.64453 8.7207 5.23438 8.7207 4.72656C8.7207 4.21875 8.32031 3.79883 7.8125 3.79883C7.29492 3.79883 6.88477 4.21875 6.88477 4.72656C6.88477 5.23438 7.29492 5.64453 7.8125 5.64453ZM8.25195 13.3008L10.1855 12.0117C10.3809 11.8848 10.4785 11.6797 10.4199 11.4551L9.23828 6.74805C9.19922 6.5918 9.23828 6.49414 9.3457 6.44531L12.002 5.12695C12.2363 5.00977 12.3047 4.74609 12.1973 4.52148C12.0898 4.30664 11.8262 4.21875 11.6016 4.32617L5.66406 7.30469L4.6582 6.30859C4.61914 6.25977 4.58008 6.2207 4.53125 6.18164L5.47852 4.49219L5.03906 4.23828L3.84766 6.32812C3.75 6.49414 3.76953 6.66992 3.92578 6.82617L5.25391 8.1543C5.37109 8.27148 5.58594 8.33008 5.80078 8.22266L7.30469 7.4707C7.41211 7.41211 7.50977 7.46094 7.5293 7.54883L7.98828 9.36523L7.25586 11.1621L5.56641 11.1621C5.32227 11.1621 5.12695 11.3574 5.12695 11.6113C5.12695 11.8555 5.32227 12.0508 5.56641 12.0508L7.53906 12.0508C7.70508 12.0508 7.86133 11.9727 7.94922 11.8164L8.85742 10.1562C8.88672 10.0977 8.95508 10.0977 8.98438 10.166L9.46289 11.4355L7.75391 12.5684C7.55859 12.6953 7.5 12.9785 7.63672 13.1836C7.76367 13.3887 8.03711 13.4375 8.25195 13.3008ZM5.5957 4.63867C6.11328 4.63867 6.5332 4.20898 6.5332 3.70117C6.5332 3.17383 6.11328 2.75391 5.5957 2.75391C5.06836 2.75391 4.64844 3.17383 4.64844 3.70117C4.64844 4.20898 5.06836 4.63867 5.5957 4.63867ZM5.5957 4.12109C5.35156 4.12109 5.15625 3.94531 5.15625 3.70117C5.15625 3.44727 5.35156 3.27148 5.5957 3.27148C5.83984 3.27148 6.02539 3.44727 6.02539 3.70117C6.02539 3.94531 5.83984 4.12109 5.5957 4.12109Z" fill="var(--color-primary)"/>
 </g>
</svg>
