<svg version="1.1" xmlns="http://www.w3.org/2000/svg" xmlns:xlink="http://www.w3.org/1999/xlink" viewBox="0 0 16.1328 15.7715">
 <g>
  <rect height="15.7715" opacity="0" width="16.1328" x="0" y="0"/>
  <path d="M15.7715 7.88086C15.7715 12.2266 12.2363 15.7617 7.88086 15.7617C3.53516 15.7617 0 12.2266 0 7.88086C0 3.53516 3.53516 0 7.88086 0C12.2363 0 15.7715 3.53516 15.7715 7.88086ZM5.18555 10.5762L4.0332 11.9141C3.87695 12.0996 3.89648 12.3926 4.08203 12.5586C4.30664 12.7246 4.58008 12.666 4.72656 12.5L5.9668 11.0449C6.03516 10.9473 6.06445 10.8496 6.07422 10.752L6.31836 9.25781L5.83008 9.21875C5.58594 9.20898 5.37109 9.15039 5.18555 9.05273ZM3.56445 3.84766C3.32031 3.84766 3.125 4.05273 3.125 4.29688C3.125 4.54102 3.32031 4.74609 3.56445 4.74609L5.25391 4.74609L5.9668 5.21484C6.06445 5.2832 6.09375 5.41016 6.02539 5.52734L4.99023 7.08984C4.51172 7.8125 4.93164 8.7793 5.84961 8.82812L7.93945 8.93555L6.8457 10.0195C6.67969 10.1855 6.67969 10.4688 6.8457 10.6445C7.02148 10.8203 7.30469 10.8203 7.48047 10.6445L9.29688 8.83789C9.54102 8.59375 9.375 8.13477 9.00391 8.0957L6.97266 7.87109C6.79688 7.85156 6.77734 7.75391 6.8457 7.64648L7.56836 6.55273C7.63672 6.44531 7.7832 6.41602 7.88086 6.49414L9.16016 7.34375C9.23828 7.38281 9.31641 7.42188 9.4043 7.42188L11.2207 7.42188C11.4551 7.42188 11.6504 7.22656 11.6504 6.98242C11.6504 6.72852 11.4551 6.52344 11.2207 6.52344L9.54102 6.52344L5.625 3.91602C5.54688 3.86719 5.46875 3.84766 5.38086 3.84766ZM11.2207 5.74219C11.2207 6.04492 11.7188 6.29883 12.334 6.29883C12.9395 6.29883 13.4473 6.04492 13.4473 5.74219C13.4473 5.42969 12.9395 5.17578 12.334 5.17578C11.7188 5.17578 11.2207 5.42969 11.2207 5.74219ZM7.29492 4.00391C7.29492 4.53125 7.73438 4.96094 8.26172 4.96094C8.78906 4.96094 9.21875 4.53125 9.21875 4.00391C9.21875 3.47656 8.78906 3.03711 8.26172 3.03711C7.73438 3.03711 7.29492 3.47656 7.29492 4.00391Z" fill="var(--color-primary)"/>
 </g>
</svg>
