<svg version="1.1" xmlns="http://www.w3.org/2000/svg" xmlns:xlink="http://www.w3.org/1999/xlink" viewBox="0 0 16.1328 15.7715">
 <g>
  <rect height="15.7715" opacity="0" width="16.1328" x="0" y="0"/>
  <path d="M7.88086 15.7617C12.2363 15.7617 15.7715 12.2266 15.7715 7.88086C15.7715 3.53516 12.2363 0 7.88086 0C3.53516 0 0 3.53516 0 7.88086C0 12.2266 3.53516 15.7617 7.88086 15.7617Z" fill="var(--color-tertiary)"/>
  <path d="M7.77344 10.2637C7.5293 10.2637 7.32422 10.0684 7.32422 9.82422L7.32422 7.82227L5.71289 6.19141C5.40039 5.87891 5.30273 5.40039 5.47852 4.98047C5.6543 4.58008 6.04492 4.31641 6.49414 4.31641L8.66211 4.31641C9.14062 4.31641 9.54102 4.69727 9.54102 5.18555L9.54102 6.73828L10.8594 6.73828C11.1035 6.73828 11.2988 6.94336 11.2988 7.1875C11.2988 7.42188 11.1035 7.62695 10.8594 7.62695L9.0918 7.62695C8.85742 7.62695 8.66211 7.42188 8.66211 7.1875L8.66211 6.09375C8.66211 5.9668 8.60352 5.84961 8.4375 5.84961L7.02148 5.84961C6.91406 5.84961 6.85547 5.9668 6.93359 6.05469L8.08594 7.33398C8.17383 7.42188 8.21289 7.51953 8.21289 7.62695L8.21289 9.82422C8.21289 10.0684 8.00781 10.2637 7.77344 10.2637ZM4.84375 11.7676C3.66211 11.7676 2.68555 10.8105 2.68555 9.60938C2.68555 8.41797 3.66211 7.45117 4.84375 7.45117C6.03516 7.45117 7.02148 8.41797 7.02148 9.60938C7.02148 10.8105 6.03516 11.7676 4.84375 11.7676ZM4.84375 11.1816C5.71289 11.1816 6.42578 10.4883 6.42578 9.60938C6.42578 8.74023 5.71289 8.03711 4.84375 8.03711C3.98438 8.03711 3.28125 8.74023 3.28125 9.60938C3.28125 10.4883 3.98438 11.1816 4.84375 11.1816ZM11.7285 8.47656C11.5527 8.30078 11.5723 8.14453 11.6602 8.01758C11.7676 7.92969 11.9531 7.87109 12.0996 7.99805C12.5586 8.39844 12.8516 8.99414 12.8516 9.62891C12.8516 10.8301 11.875 11.7871 10.6836 11.7871C9.48242 11.7871 8.51562 10.8301 8.51562 9.62891C8.51562 9.32617 8.58398 9.02344 8.71094 8.75977C8.7793 8.56445 8.94531 8.52539 9.08203 8.58398C9.22852 8.63281 9.32617 8.78906 9.22852 9.00391C9.15039 9.20898 9.10156 9.42383 9.10156 9.62891C9.10156 10.5078 9.81445 11.2012 10.6836 11.2012C11.5527 11.2012 12.2559 10.5078 12.2559 9.62891C12.2559 9.16992 12.041 8.75 11.7285 8.47656ZM10.9375 5.48828C10.4004 5.48828 9.98047 5.05859 9.98047 4.53125C9.98047 4.00391 10.4004 3.57422 10.9375 3.57422C11.4648 3.57422 11.8848 4.00391 11.8848 4.53125C11.8848 5.05859 11.4648 5.48828 10.9375 5.48828Z" fill="var(--color-primary)"/>
 </g>
</svg>
