<svg version="1.1" xmlns="http://www.w3.org/2000/svg" xmlns:xlink="http://www.w3.org/1999/xlink" viewBox="0 0 16.1328 15.7715">
 <g>
  <rect height="15.7715" opacity="0" width="16.1328" x="0" y="0"/>
  <path d="M7.88086 15.7617C12.2363 15.7617 15.7715 12.2266 15.7715 7.88086C15.7715 3.53516 12.2363 0 7.88086 0C3.53516 0 0 3.53516 0 7.88086C0 12.2266 3.53516 15.7617 7.88086 15.7617Z" fill="var(--color-tertiary)"/>
  <path d="M7.4707 3.99414C6.98242 3.99414 6.5918 3.60352 6.5918 3.11523C6.5918 2.62695 6.98242 2.23633 7.4707 2.23633C7.95898 2.23633 8.35938 2.62695 8.35938 3.11523C8.35938 3.60352 7.95898 3.99414 7.4707 3.99414ZM4.94141 7.12891L5.01953 6.18164C5.03906 5.91797 5.10742 5.75195 5.30273 5.55664L5.9082 4.95117C6.30859 4.57031 6.5918 4.35547 7.01172 4.35547C7.59766 4.35547 7.91992 4.78516 7.88086 5.33203L7.80273 6.48438C7.76367 6.9043 7.69531 7.1582 7.57812 7.57812L7.54883 7.67578L8.05664 8.41797C8.13477 8.52539 8.22266 8.66211 8.28125 8.7793L8.98438 10.2148C9.24805 10.7617 8.50586 11.0742 8.25195 10.5664L7.5293 9.10156C7.5 9.0332 7.4707 8.97461 7.41211 8.89648L6.5918 7.87109C6.28906 7.49023 6.18164 7.26562 6.21094 6.82617L6.28906 5.9375C6.29883 5.83984 6.15234 5.77148 6.05469 5.86914L5.75195 6.13281L5.66406 7.17773C5.64453 7.43164 5.49805 7.55859 5.2832 7.54883C5.05859 7.53906 4.92188 7.37305 4.94141 7.12891ZM8.21289 6.26953L8.27148 5.30273L8.85742 5.91797L9.77539 5.91797C10.0195 5.91797 10.1953 6.06445 10.1953 6.2793C10.1953 6.51367 10.0195 6.66016 9.77539 6.66016L8.91602 6.66016C8.67188 6.66016 8.56445 6.62109 8.42773 6.48438ZM4.84375 10.4297L6.07422 8.98438L6.25977 8.0957L6.91406 8.91602L6.83594 9.16016C6.78711 9.30664 6.76758 9.33594 6.65039 9.48242L5.40039 10.9668C5.08789 11.3379 4.45312 10.8887 4.84375 10.4297ZM10.9863 7.10938C10.918 6.96289 10.9766 6.77734 11.1426 6.70898L13.1738 5.76172C13.3105 5.69336 13.5059 5.75195 13.5645 5.89844C13.6328 6.04492 13.5742 6.23047 13.4277 6.29883L12.5 6.72852L11.8066 10.7129C11.7578 10.7129 11.7383 10.7129 11.6895 10.7129L11.1914 10.7422L11.8359 7.03125L11.3867 7.24609C11.2305 7.31445 11.0449 7.25586 10.9863 7.10938ZM3.27148 11.8945C3.27148 11.7383 3.37891 11.6406 3.52539 11.6309L11.7188 11.1133C12.0605 11.0938 12.3242 11.2793 12.3242 11.6211C12.3242 11.9043 12.0898 12.1387 11.8066 12.1387L3.52539 12.1387C3.37891 12.1387 3.27148 12.0215 3.27148 11.8945Z" fill="var(--color-primary)"/>
 </g>
</svg>
