<svg version="1.1" xmlns="http://www.w3.org/2000/svg" xmlns:xlink="http://www.w3.org/1999/xlink" viewBox="0 0 16.1328 15.7715">
 <g>
  <rect height="15.7715" opacity="0" width="16.1328" x="0" y="0"/>
  <path d="M7.88086 15.7617C12.2363 15.7617 15.7715 12.2266 15.7715 7.88086C15.7715 3.53516 12.2363 0 7.88086 0C3.53516 0 0 3.53516 0 7.88086C0 12.2266 3.53516 15.7617 7.88086 15.7617Z" fill="var(--color-tertiary)"/>
  <path d="M11.377 6.43555C10.8398 6.43555 10.4102 6.01562 10.4102 5.48828C10.4102 4.95117 10.8398 4.53125 11.377 4.53125C11.8945 4.53125 12.334 4.95117 12.334 5.48828C12.334 6.01562 11.8945 6.43555 11.377 6.43555ZM3.73047 11.377C3.73047 11.123 3.93555 10.918 4.18945 10.918L6.43555 10.918L6.80664 9.76562C6.875 9.91211 7.01172 10.0586 7.2168 10.1855L7.68555 10.5176L7.16797 11.5723C7.08008 11.7285 6.92383 11.8262 6.74805 11.8262L4.18945 11.8262C3.93555 11.8262 3.73047 11.6211 3.73047 11.377ZM7.00195 6.5625L7.45117 5C7.4707 4.92188 7.51953 4.84375 7.56836 4.79492L7.56836 4.08203C7.32422 3.7793 7.08984 3.31055 7.08984 2.94922C7.08984 2.5 7.41211 2.16797 7.86133 2.16797C8.32031 2.16797 8.63281 2.5 8.63281 2.94922C8.63281 3.27148 8.39844 3.7207 8.17383 4.04297L8.17383 4.80469C8.28125 4.90234 8.33008 5.07812 8.28125 5.25391L8.17383 5.67383L8.17383 6.25L9.63867 6.25C10.3906 6.25 10.9863 6.8457 10.9863 7.57812L10.9863 9.36523C10.9863 9.60938 10.791 9.81445 10.5371 9.81445L9.10156 9.81445L9.95117 10.5957C10.1074 10.7324 10.127 10.9473 10.0391 11.1426L8.93555 13.3594C8.80859 13.6035 8.53516 13.6523 8.33008 13.5547C8.10547 13.4375 8.01758 13.1641 8.125 12.9492L9.08203 11.0645L7.46094 9.87305C6.75781 9.35547 6.83594 8.31055 7.56836 7.90039L7.56836 7.12891L7.41211 7.12891C7.08984 7.12891 6.92383 6.85547 7.00195 6.5625ZM8.17383 7.59766L9.01367 7.16797C9.0332 7.1582 9.02344 7.12891 9.00391 7.12891L8.17383 7.12891ZM9.14062 8.93555L10.1172 8.93555L10.1172 8.57422C10.1172 8.52539 10.0684 8.48633 10.0293 8.50586Z" fill="var(--color-primary)"/>
 </g>
</svg>
