<svg version="1.1" xmlns="http://www.w3.org/2000/svg" xmlns:xlink="http://www.w3.org/1999/xlink" viewBox="0 0 16.1328 15.7715">
 <g>
  <rect height="15.7715" opacity="0" width="16.1328" x="0" y="0"/>
  <path d="M7.88086 15.7715C12.2363 15.7715 15.7715 12.2363 15.7715 7.89062C15.7715 3.54492 12.2363 0.00976562 7.88086 0.00976562C3.53516 0.00976562 0 3.54492 0 7.89062C0 12.2363 3.53516 15.7715 7.88086 15.7715Z" fill="var(--color-tertiary)"/>
  <path d="M5.78125 3.82812L5.78125 3.68164C5.78125 3.11523 6.05469 2.83203 6.62109 2.83203L9.15039 2.83203C9.70703 2.83203 9.98047 3.11523 9.98047 3.68164L9.98047 3.82812ZM7.4707 12.9492C6.93359 12.9492 6.65039 12.6562 6.65039 12.0996L6.65039 7.11914C6.65039 6.64062 6.54297 6.32812 6.37695 6.06445L6.12305 5.67383C5.9082 5.35156 5.78125 5.06836 5.78125 4.6875L5.78125 4.33594L9.98047 4.33594L9.98047 4.6875C9.98047 5.06836 9.85352 5.35156 9.63867 5.67383L9.39453 6.06445C9.21875 6.32812 9.12109 6.64062 9.12109 7.11914L9.12109 12.0996C9.12109 12.6562 8.83789 12.9492 8.29102 12.9492ZM7.12891 8.85742C7.12891 9.28711 7.45117 9.61914 7.88086 9.61914C8.31055 9.61914 8.64258 9.28711 8.64258 8.85742L8.64258 7.53906C8.64258 7.12891 8.31055 6.78711 7.88086 6.78711C7.45117 6.78711 7.12891 7.12891 7.12891 7.53906ZM7.88086 7.05078C8.17383 7.05078 8.36914 7.26562 8.36914 7.53906C8.36914 7.8125 8.1543 8.03711 7.88086 8.03711C7.60742 8.03711 7.39258 7.8125 7.39258 7.53906C7.39258 7.26562 7.59766 7.05078 7.88086 7.05078Z" fill="var(--color-primary)"/>
 </g>
</svg>
