<svg version="1.1" xmlns="http://www.w3.org/2000/svg" xmlns:xlink="http://www.w3.org/1999/xlink" viewBox="0 0 16.1328 15.791">
 <g>
  <rect height="15.791" opacity="0" width="16.1328" x="0" y="0"/>
  <path d="M7.88086 15.791C12.2363 15.791 15.7715 12.2559 15.7715 7.91016C15.7715 3.56445 12.2363 0.0292969 7.88086 0.0292969C3.53516 0.0292969 0 3.56445 0 7.91016C0 12.2559 3.53516 15.791 7.88086 15.791Z" fill="var(--color-tertiary)"/>
  <path d="M5.86914 6.98242L8.74023 6.98242C9.02344 6.98242 9.19922 6.82617 9.19922 6.5625L9.19922 4.55078C9.19922 4.28711 9.02344 4.13086 8.74023 4.13086L5.86914 4.13086C5.56641 4.13086 5.41016 4.28711 5.41016 4.55078L5.41016 6.5625C5.41016 6.82617 5.56641 6.98242 5.86914 6.98242ZM4.05273 11.8457C4.05273 11.6406 4.20898 11.4844 4.41406 11.4844L4.7168 11.4844L4.7168 4.42383C4.7168 3.7793 5.04883 3.4375 5.70312 3.4375L8.89648 3.4375C9.54102 3.4375 9.89258 3.7793 9.89258 4.42383L9.89258 6.61133C10.625 6.89453 10.8984 7.40234 10.8984 8.06641C10.8984 8.76953 10.8203 9.53125 10.8203 10.127C10.8203 10.4785 11.0352 10.7031 11.3867 10.7031C11.7773 10.7031 12.002 10.4102 12.002 9.87305C12.002 9.11133 11.8555 8.0957 11.6016 7.01172L10.8984 6.25C10.7324 6.08398 10.7227 5.95703 10.8203 5.78125L11.123 5.19531C11.1621 5.12695 11.1523 5.05859 11.123 5.00977L10.5859 4.33594C10.332 4.0332 10.7812 3.71094 11.0059 3.99414L11.4258 4.52148C11.6699 4.82422 11.8164 5.19531 11.8945 5.5957L11.9727 5.97656C12.334 7.75391 12.5293 8.88672 12.5293 9.87305C12.5293 10.752 12.1191 11.2305 11.3867 11.2305C10.7129 11.2305 10.2832 10.8105 10.2832 10.127C10.2832 9.45312 10.3711 8.68164 10.3711 8.06641C10.3711 7.71484 10.2441 7.40234 9.89258 7.20703L9.89258 11.4844L10.1855 11.4844C10.3809 11.4844 10.5566 11.6504 10.5566 11.8457C10.5566 12.0508 10.3809 12.207 10.1855 12.207L4.41406 12.207C4.20898 12.207 4.05273 12.0508 4.05273 11.8457Z" fill="var(--color-primary)"/>
 </g>
</svg>
