<svg version="1.1" xmlns="http://www.w3.org/2000/svg" xmlns:xlink="http://www.w3.org/1999/xlink" viewBox="0 0 14.5898 14.248">
 <g>
  <rect height="14.248" opacity="0" width="14.5898" x="0" y="0"/>
  <path d="M14.2285 2.4707L14.2285 11.7871C14.2285 13.4277 13.4082 14.248 11.7383 14.248L2.49023 14.248C0.830078 14.248 0 13.4277 0 11.7871L0 2.4707C0 0.830078 0.830078 0.00976562 2.49023 0.00976562L11.7383 0.00976562C13.4082 0.00976562 14.2285 0.830078 14.2285 2.4707ZM6.82617 2.86133L6.82617 3.49609C4.9707 3.64258 3.98438 5.17578 3.98438 7.08008C3.98438 9.07227 5.0293 10.5176 6.82617 10.6738L6.82617 11.3086C6.82617 11.4648 6.94336 11.5918 7.12891 11.5918C7.28516 11.5918 7.41211 11.4648 7.41211 11.3086L7.41211 10.6836C9.08203 10.5762 10.0098 9.49219 10.0098 7.75391L10.0098 7.43164C10.0098 7.09961 9.80469 6.88477 9.50195 6.88477L7.41211 6.88477L7.41211 4.4043C8.07617 4.49219 8.68164 4.88281 8.88672 5.51758C9.00391 5.78125 9.11133 5.89844 9.4043 5.89844C9.67773 5.89844 9.86328 5.73242 9.86328 5.45898C9.86328 5.35156 9.85352 5.21484 9.78516 5.05859C9.42383 4.12109 8.41797 3.57422 7.41211 3.49609L7.41211 2.86133C7.41211 2.69531 7.28516 2.56836 7.12891 2.56836C6.94336 2.56836 6.82617 2.69531 6.82617 2.86133ZM8.99414 7.97852C8.99414 8.97461 8.41797 9.66797 7.41211 9.75586L7.41211 7.73438L8.99414 7.73438ZM6.82617 9.74609C5.64453 9.56055 5.06836 8.39844 5.06836 7.07031C5.06836 5.81055 5.5957 4.59961 6.82617 4.41406Z" fill="var(--color-primary)"/>
 </g>
</svg>
