<svg version="1.1" xmlns="http://www.w3.org/2000/svg" xmlns:xlink="http://www.w3.org/1999/xlink" viewBox="0 0 19.4197 18.0137">
 <g>
  <rect height="18.0137" opacity="0" width="19.4197" x="0" y="0"/>
  <path d="M1.78019 17.293C2.48331 17.9961 3.32315 17.9375 4.02628 17.1367L11.2138 8.87502L8.91886 6.57033L0.657138 13.7676C-0.163174 14.4707-0.212002 15.3106 0.491123 16.0039ZM15.4423 10.6231C15.7939 10.9649 16.204 10.9942 16.5458 10.6621L18.831 8.38673C19.1532 8.07423 19.1239 7.62502 18.7821 7.28322L18.2353 6.74611C17.9618 6.46291 17.7665 6.41408 17.4833 6.44337L16.4872 6.57033L15.9501 6.04298L16.2431 4.91994C16.37 4.38283 16.1552 3.77736 15.5497 3.18166L14.0751 1.70705C11.9267-0.421859 7.93253-0.666 5.67667 1.58009C5.28604 1.96095 5.37394 2.40041 5.61808 2.66408C5.82315 2.84962 6.11612 2.93752 6.38956 2.83986C7.86417 2.36134 9.17276 2.25392 10.286 2.87892L9.70011 4.46095C9.43644 5.14455 9.58292 5.62306 10.0224 6.05275L11.7021 7.7422C12.0341 8.07423 12.3857 8.17189 12.9032 8.06447L14.1825 7.81056L14.7001 8.33791L14.6025 9.32423C14.5732 9.63673 14.6122 9.83205 14.8954 10.1055Z" fill="var(--color-primary)"/>
 </g>
</svg>
