<svg version="1.1" xmlns="http://www.w3.org/2000/svg" xmlns:xlink="http://www.w3.org/1999/xlink" viewBox="0 0 13.1152 16.4941">
 <g>
  <rect height="16.4941" opacity="0" width="13.1152" x="0" y="0"/>
  <path d="M5.53711 0.078125C2.1875 0.078125 0 2.36328 0 5.97656L0 7.70508C0 9.47266 0.869141 10.5273 2.32422 10.5469C2.50977 11.123 2.97852 11.4648 3.62305 11.4648C3.85742 11.4648 4.07227 11.4258 4.27734 11.3574C4.49219 11.9922 5.00977 12.3828 5.69336 12.3828C5.85938 12.3828 6.03516 12.3633 6.20117 12.3145L6.20117 14.7949C6.20117 15.8105 6.86523 16.4941 7.83203 16.4941C8.79883 16.4941 9.47266 15.8105 9.47266 14.7949L9.47266 8.59375C9.47266 8.55469 9.49219 8.52539 9.53125 8.52539C9.56055 8.52539 9.58008 8.54492 9.59961 8.58398L10.0195 9.56055C10.2734 10.1562 10.7324 10.4883 11.2988 10.4883C12.0703 10.4883 12.7539 10 12.7539 9.13086C12.7637 8.87695 12.7051 8.55469 12.6172 8.27148L11.2891 4.55078C10.2246 1.57227 8.30078 0.078125 5.53711 0.078125ZM5.48828 1.2793C7.61719 1.2793 9.25781 2.20703 10.2344 4.92188L11.5625 8.62305C11.6016 8.73047 11.6309 8.82812 11.6309 8.95508C11.6309 9.19922 11.4551 9.4043 11.1621 9.4043C10.918 9.4043 10.7812 9.26758 10.6836 9.0332L9.61914 6.71875C9.43359 6.29883 9.17969 6.18164 8.89648 6.18164C8.56445 6.18164 8.33008 6.45508 8.33008 6.81641L8.33008 14.8828C8.33008 15.166 8.11523 15.3711 7.83203 15.3711C7.54883 15.3711 7.35352 15.166 7.35352 14.8828L7.35352 9.10156C7.35352 8.80859 7.08984 8.58398 6.79688 8.58398C6.51367 8.58398 6.25977 8.80859 6.25977 9.10156L6.25977 11.1621C6.14258 11.2207 5.98633 11.2598 5.83984 11.2598C5.48828 11.2598 5.2832 11.0352 5.2832 10.6738L5.2832 8.80859C5.2832 8.50586 5.01953 8.29102 4.72656 8.29102C4.44336 8.29102 4.18945 8.50586 4.18945 8.80859L4.18945 10.2441C4.07227 10.3027 3.91602 10.3418 3.76953 10.3418C3.41797 10.3418 3.21289 10.1172 3.21289 9.75586L3.21289 8.51562C3.21289 8.21289 2.94922 7.99805 2.65625 7.99805C2.37305 7.99805 2.11914 8.21289 2.11914 8.51562L2.11914 9.35547C1.50391 9.35547 1.14258 8.67188 1.14258 7.51953L1.14258 6.12305C1.14258 3.06641 2.73438 1.2793 5.48828 1.2793Z" fill="var(--color-primary)"/>
 </g>
</svg>
