<svg version="1.1" xmlns="http://www.w3.org/2000/svg" xmlns:xlink="http://www.w3.org/1999/xlink" viewBox="0 0 16.3554 16.5527">
 <g>
  <rect height="16.5527" opacity="0" width="16.3554" x="0" y="0"/>
  <path d="M3.13376 5.83008L4.54001 5.83008L4.54001 4.69727C4.54001 2.85156 6.05369 1.40625 7.99705 1.40625C9.9404 1.40625 11.4541 2.85156 11.4541 4.69727L11.4541 5.83008L12.8603 5.83008L12.8603 4.69727C12.8603 2.06055 10.7314 0 7.99705 0C5.26267 0 3.13376 2.06055 3.13376 4.69727ZM2.64548 16.543L13.3486 16.543C15.2627 16.543 16.2002 15.4102 15.956 13.3691L15.292 7.70508C15.126 6.28906 14.2568 5.50781 12.8896 5.50781L3.10447 5.50781C1.72751 5.50781 0.868139 6.28906 0.702123 7.70508L0.0380609 13.3691C-0.20608 15.4102 0.73142 16.543 2.64548 16.543ZM2.64548 15.1367C1.75681 15.1367 1.30759 14.5605 1.42478 13.5352L2.08884 7.87109C2.1572 7.25586 2.51853 6.92383 3.10447 6.92383L12.8896 6.92383C13.4756 6.92383 13.8271 7.25586 13.9052 7.87109L14.5693 13.5352C14.6865 14.5605 14.2373 15.1367 13.3486 15.1367ZM7.27439 12.1484L8.70994 12.1484C9.26658 12.1484 9.58884 11.8359 9.58884 11.2793L9.58884 10.752C11.6396 10.3906 13.5635 9.28711 14.3838 7.16797L13.0947 6.5918C12.3427 8.67188 10.2822 9.48242 7.99705 9.48242C5.71189 9.48242 3.65134 8.67188 2.88962 6.5918L1.61033 7.16797C2.43064 9.28711 4.35447 10.3906 6.40525 10.752L6.40525 11.2793C6.40525 11.8359 6.71775 12.1484 7.27439 12.1484Z" fill="var(--color-primary)"/>
 </g>
</svg>
