<svg version="1.1" xmlns="http://www.w3.org/2000/svg" xmlns:xlink="http://www.w3.org/1999/xlink" viewBox="0 0 18.418 21.6699">
 <g>
  <rect height="21.6699" opacity="0" width="18.418" x="0" y="0"/>
  <path d="M3.59375 7.14844C3.59375 6.83594 3.33984 6.58203 3.02734 6.58203L0.566406 6.58203C0.253906 6.58203 0 6.83594 0 7.14844C0 7.46094 0.253906 7.71484 0.566406 7.71484L3.02734 7.71484C3.33984 7.71484 3.59375 7.46094 3.59375 7.14844ZM4.61914 4.6582C4.83398 4.42383 4.84375 4.07227 4.61914 3.85742L2.88086 2.09961C2.64648 1.875 2.30469 1.88477 2.08008 2.09961C1.85547 2.32422 1.8457 2.67578 2.08008 2.90039L3.80859 4.6582C4.04297 4.87305 4.38477 4.86328 4.61914 4.6582ZM7.14844 3.60352C7.46094 3.60352 7.71484 3.34961 7.71484 3.03711L7.71484 0.566406C7.71484 0.253906 7.46094 0 7.14844 0C6.83594 0 6.58203 0.253906 6.58203 0.566406L6.58203 3.03711C6.58203 3.34961 6.83594 3.60352 7.14844 3.60352ZM9.67773 4.6582C9.90234 4.86328 10.2539 4.87305 10.4785 4.6582L12.2168 2.90039C12.4512 2.68555 12.4414 2.32422 12.2168 2.09961C11.9922 1.88477 11.6504 1.875 11.416 2.09961L9.67773 3.85742C9.45312 4.07227 9.46289 4.42383 9.67773 4.6582Z" fill="var(--color-secondary)"/>
  <path d="M14.4043 20.0586C17.5586 18.916 18.8184 16.0156 17.5977 12.627L16.9922 10.9961C16.3867 9.33594 15.2148 8.64258 13.8477 9.12109C13.4766 8.64258 12.9199 8.48633 12.3145 8.71094C12.0898 8.78906 11.9043 8.89648 11.7188 9.0332C11.3086 8.50586 10.6934 8.32031 10.0488 8.55469C9.89258 8.61328 9.73633 8.69141 9.58984 8.78906L8.75 6.45508C8.39844 5.50781 7.53906 5.09766 6.63086 5.41992C5.72266 5.75195 5.32227 6.62109 5.66406 7.56836L7.79297 13.3984C7.80273 13.4375 7.79297 13.4668 7.75391 13.4863C7.72461 13.4961 7.70508 13.4863 7.68555 13.457L6.95312 12.6758C6.49414 12.207 5.9668 12.0605 5.42969 12.2461C4.69727 12.5098 4.21875 13.2031 4.52148 14.0234C4.59961 14.2676 4.76562 14.5508 4.95117 14.7852L7.46094 17.8223C9.49219 20.2637 11.7969 21.0059 14.4043 20.0586ZM14.043 18.9062C12.0312 19.6387 10.1758 19.3359 8.33008 17.1094L5.82031 14.0918C5.74219 14.0039 5.69336 13.9258 5.64453 13.8086C5.55664 13.5742 5.6543 13.3203 5.92773 13.2227C6.16211 13.1348 6.32812 13.2227 6.50391 13.4082L8.29102 15.2051C8.61328 15.5469 8.88672 15.5762 9.16016 15.4785C9.47266 15.3613 9.59961 15.0293 9.47266 14.6777L6.71875 7.09961C6.62109 6.83594 6.74805 6.57227 7.02148 6.47461C7.28516 6.37695 7.53906 6.49414 7.63672 6.76758L9.60938 12.207C9.7168 12.4805 10.0391 12.5977 10.3125 12.4902C10.5762 12.3926 10.7422 12.0996 10.6445 11.8262L9.93164 9.89258C10.0195 9.79492 10.1562 9.69727 10.293 9.6582C10.6152 9.54102 10.8984 9.67773 11.0156 10.0195L11.6504 11.7676C11.7578 12.041 12.0801 12.1582 12.3535 12.0605C12.627 11.9629 12.793 11.6797 12.6855 11.3965L12.1973 10.0391C12.2754 9.95117 12.4219 9.86328 12.5488 9.80469C12.8809 9.6875 13.1641 9.82422 13.2812 10.166L13.7012 11.3379C13.7988 11.6211 14.1309 11.7285 14.4043 11.6309C14.668 11.5332 14.834 11.2402 14.7363 10.9668L14.4434 10.1758C15.0195 9.96094 15.5859 10.4785 15.9863 11.5625L16.4648 12.8809C17.5098 15.752 16.6211 17.9688 14.043 18.9062Z" fill="var(--color-primary)"/>
 </g>
</svg>
