<svg version="1.1" xmlns="http://www.w3.org/2000/svg" xmlns:xlink="http://www.w3.org/1999/xlink" viewBox="0 0 18.8867 16.0449">
 <g>
  <rect height="16.0449" opacity="0" width="18.8867" x="0" y="0"/>
  <path d="M15.2344 2.26562L15.2344 13.7695C15.2344 15.2832 14.4922 16.0352 12.998 16.0352L5.52734 16.0352C4.0332 16.0352 3.29102 15.2832 3.29102 13.7695L3.29102 12.1289L4.69727 12.1289L4.69727 13.75C4.69727 14.3262 5 14.6289 5.58594 14.6289L12.9395 14.6289C13.5254 14.6289 13.8281 14.3262 13.8281 13.75L13.8281 2.28516C13.8281 1.70898 13.5254 1.40625 12.9395 1.40625L5.58594 1.40625C5 1.40625 4.69727 1.70898 4.69727 2.28516L4.69727 8.56445L3.29102 8.56445L3.29102 2.26562C3.29102 0.751953 4.0332 0 5.52734 0L12.998 0C14.4922 0 15.2344 0.751953 15.2344 2.26562ZM11.0254 4.33594C11.0449 5.3125 10.2344 6.09375 9.26758 6.09375C8.29102 6.09375 7.5 5.3125 7.5 4.33594C7.5 3.34961 8.29102 2.56836 9.26758 2.57812C10.2344 2.58789 11.0156 3.34961 11.0254 4.33594ZM8.44727 4.33594C8.44727 4.77539 8.80859 5.14648 9.26758 5.14648C9.7168 5.14648 10.0781 4.77539 10.0781 4.33594C10.0781 3.87695 9.70703 3.51562 9.26758 3.51562C8.80859 3.51562 8.44727 3.85742 8.44727 4.33594Z" fill="var(--color-secondary)"/>
  <path d="M1.78711 11.0352L8.21289 11.0352L9.3457 10.9863L8.93555 11.377L8.03711 12.168C7.89062 12.2852 7.83203 12.4707 7.83203 12.6367C7.83203 13.0078 8.08594 13.2715 8.4375 13.2715C8.62305 13.2715 8.76953 13.2031 8.89648 13.0664L11.0156 10.8496C11.1816 10.6738 11.25 10.5273 11.25 10.3418C11.25 10.166 11.1816 10.0195 11.0156 9.83398L8.89648 7.61719C8.76953 7.49023 8.62305 7.41211 8.4375 7.41211C8.08594 7.41211 7.83203 7.68555 7.83203 8.04688C7.83203 8.22266 7.89062 8.39844 8.03711 8.52539L8.93555 9.31641L9.35547 9.70703L8.21289 9.64844L1.78711 9.64844C1.42578 9.64844 1.11328 9.9707 1.11328 10.3418C1.11328 10.7227 1.42578 11.0352 1.78711 11.0352Z" fill="var(--color-primary)"/>
 </g>
</svg>
