<svg version="1.1" xmlns="http://www.w3.org/2000/svg" xmlns:xlink="http://www.w3.org/1999/xlink" viewBox="0 0 16.1328 15.7715">
 <g>
  <rect height="15.7715" opacity="0" width="16.1328" x="0" y="0"/>
  <path d="M7.88086 15.7715C12.2363 15.7715 15.7715 12.2363 15.7715 7.89062C15.7715 3.54492 12.2363 0.00976562 7.88086 0.00976562C3.53516 0.00976562 0 3.54492 0 7.89062C0 12.2363 3.53516 15.7715 7.88086 15.7715Z" fill="var(--color-tertiary)"/>
  <path d="M3.49609 7.76367C3.05664 7.96875 2.8418 7.45117 3.18359 7.28516L6.30859 5.63477C6.60156 5.48828 6.81641 5.48828 7.10938 5.63477L10.0977 7.20703L10.0977 4.36523C10.0977 4.22852 10.1562 4.11133 10.293 4.0625C10.4102 4.01367 10.498 3.98438 10.7324 3.98438C11.2793 3.98438 11.6406 4.25781 12.1484 4.25781C12.4023 4.25781 12.5195 4.17969 12.6172 4.17969C12.7539 4.17969 12.8027 4.25781 12.8027 4.35547L12.8027 5.85938C12.8027 6.00586 12.7441 6.10352 12.6074 6.16211C12.4902 6.2207 12.4023 6.25 12.168 6.25C11.6406 6.25 11.2891 5.98633 10.7422 5.98633C10.7227 5.98633 10.6934 5.98633 10.6641 5.98633L10.6641 10.7031L11.7285 10.7031C11.8848 10.7031 12.0117 10.8398 12.0117 10.9863C12.0117 11.1523 11.8848 11.2793 11.7285 11.2793L3.32031 11.2793C3.16406 11.2793 3.03711 11.1523 3.03711 10.9863C3.03711 10.8398 3.16406 10.7031 3.32031 10.7031L3.88672 10.7031C3.87695 10.6641 3.87695 10.6152 3.87695 10.5664L3.87695 8.07617C3.92578 8.05664 3.96484 8.02734 4.02344 8.00781L6.69922 6.62109L9.38477 8.00781C9.43359 8.02734 9.48242 8.05664 9.53125 8.07617L9.53125 10.5664C9.53125 10.6152 9.53125 10.6641 9.52148 10.7031L10.0977 10.7031L10.0977 7.80273C10.0391 7.80273 9.98047 7.7832 9.91211 7.75391L6.81641 6.16211C6.73828 6.13281 6.66016 6.13281 6.60156 6.16211ZM5.73242 10.7031L7.67578 10.7031L7.67578 8.65234C7.67578 8.48633 7.57812 8.39844 7.42188 8.39844L5.98633 8.39844C5.83984 8.39844 5.73242 8.48633 5.73242 8.65234Z" fill="var(--color-primary)"/>
 </g>
</svg>
