<svg version="1.1" xmlns="http://www.w3.org/2000/svg" xmlns:xlink="http://www.w3.org/1999/xlink" viewBox="0 0 16.1328 15.7715">
 <g>
  <rect height="15.7715" opacity="0" width="16.1328" x="0" y="0"/>
  <path d="M7.88086 15.7617C12.2363 15.7617 15.7715 12.2363 15.7715 7.88086C15.7715 3.52539 12.2363 0 7.88086 0C3.53516 0 0 3.52539 0 7.88086C0 12.2363 3.53516 15.7617 7.88086 15.7617ZM7.88086 14.2773C4.3457 14.2773 1.49414 11.416 1.49414 7.88086C1.49414 4.3457 4.3457 1.48438 7.88086 1.48438C11.416 1.48438 14.2773 4.3457 14.2773 7.88086C14.2773 11.416 11.416 14.2773 7.88086 14.2773Z" fill="var(--color-secondary)"/>
  <path d="M7.86133 11.3965C8.33008 11.3965 8.57422 11.1035 8.57422 10.6152L8.57422 4.9707C8.57422 4.48242 8.33008 4.18945 7.86133 4.18945C7.41211 4.18945 7.17773 4.50195 7.17773 4.9707L7.17773 10.6152C7.17773 11.084 7.41211 11.3965 7.86133 11.3965Z" fill="var(--color-primary)"/>
 </g>
</svg>
