<svg version="1.1" xmlns="http://www.w3.org/2000/svg" xmlns:xlink="http://www.w3.org/1999/xlink" viewBox="0 0 17.7734 16.5527">
 <g>
  <rect height="16.5527" opacity="0" width="17.7734" x="0" y="0"/>
  <path d="M1.10352 15.5078L16.3184 15.5078L16.3184 14.5508C16.3184 14.1992 16.1133 13.9941 15.752 13.9941L15.2637 13.9941L15.2637 5.42969L15.918 5.42969C16.3965 5.42969 16.6797 5.07812 16.6797 4.72656C16.6797 4.46289 16.5234 4.23828 16.2109 4.04297L9.6875 0.283203C9.375 0.0976562 9.0332 0 8.71094 0C8.37891 0 8.03711 0.0976562 7.72461 0.283203L1.20117 4.04297C0.878906 4.23828 0.732422 4.46289 0.732422 4.72656C0.732422 5.07812 1.01562 5.42969 1.49414 5.42969L2.1582 5.42969L2.1582 13.9941L1.66992 13.9941C1.30859 13.9941 1.10352 14.1992 1.10352 14.5508ZM0.703125 16.543L16.709 16.543C17.0898 16.543 17.4121 16.2207 17.4121 15.8301C17.4121 15.4492 17.0898 15.127 16.709 15.127L0.703125 15.127C0.322266 15.127 0 15.4492 0 15.8301C0 16.2207 0.322266 16.543 0.703125 16.543Z" fill="var(--color-tertiary)"/>
  <path d="M7.89062 9.50195L7.54883 9.50195L9.81445 11.6309C9.93164 11.748 10.0195 11.8652 10.0195 12.0312C10.0195 12.2852 9.82422 12.4902 9.57031 12.4902C9.33594 12.4902 9.21875 12.373 9.07227 12.2461L6.41602 9.74609C6.2207 9.56055 6.11328 9.42383 6.11328 9.16992L6.11328 9.14062C6.11328 8.85742 6.31836 8.64258 6.65039 8.64258L7.74414 8.64258C8.51562 8.64258 9.10156 8.36914 9.21875 7.59766L6.39648 7.59766C6.23047 7.59766 6.10352 7.4707 6.10352 7.31445C6.10352 7.14844 6.23047 7.03125 6.39648 7.03125L9.21875 7.03125C9.0918 6.2793 8.47656 5.97656 7.71484 5.97656L6.44531 5.97656C6.2207 5.97656 6.08398 5.83008 6.08398 5.58594L6.08398 5.52734C6.08398 5.2832 6.2207 5.12695 6.44531 5.12695L10.8789 5.12695C11.0449 5.12695 11.1719 5.25391 11.1719 5.41992C11.1719 5.57617 11.0449 5.70312 10.8789 5.70312L9.64844 5.70312C10.0293 6.03516 10.2344 6.51367 10.293 7.03125L10.8789 7.03125C11.0449 7.03125 11.1719 7.14844 11.1719 7.31445C11.1719 7.4707 11.0449 7.59766 10.8789 7.59766L10.2734 7.59766C10.0977 8.80859 9.15039 9.50195 7.89062 9.50195Z" fill="var(--color-primary)"/>
 </g>
</svg>
