<svg version="1.1" xmlns="http://www.w3.org/2000/svg" xmlns:xlink="http://www.w3.org/1999/xlink" viewBox="0 0 16.1328 15.7715">
 <g>
  <rect height="15.7715" opacity="0" width="16.1328" x="0" y="0"/>
  <path d="M7.88086 15.7617C12.2363 15.7617 15.7715 12.2363 15.7715 7.88086C15.7715 3.52539 12.2363 0 7.88086 0C3.53516 0 0 3.52539 0 7.88086C0 12.2363 3.53516 15.7617 7.88086 15.7617ZM7.88086 14.2773C4.3457 14.2773 1.49414 11.416 1.49414 7.88086C1.49414 4.3457 4.3457 1.48438 7.88086 1.48438C11.416 1.48438 14.2773 4.3457 14.2773 7.88086C14.2773 11.416 11.416 14.2773 7.88086 14.2773Z" fill="var(--color-secondary)"/>
  <path d="M2.68555 7.88086C2.68555 9.375 3.62305 10.3613 5.0293 10.3613C5.75195 10.3613 6.37695 10.0684 7.04102 9.43359L7.88086 8.61328L8.73047 9.43359C9.4043 10.0684 10.0195 10.3613 10.7422 10.3613C12.1484 10.3613 13.0762 9.375 13.0762 7.88086C13.0762 6.38672 12.1484 5.40039 10.7422 5.40039C10.0098 5.40039 9.39453 5.69336 8.73047 6.32812L7.88086 7.14844L7.04102 6.32812C6.38672 5.69336 5.76172 5.40039 5.0293 5.40039C3.62305 5.40039 2.68555 6.38672 2.68555 7.88086ZM3.75977 7.88086C3.75977 7.01172 4.25781 6.45508 5.0293 6.45508C5.43945 6.45508 5.81055 6.64062 6.28906 7.09961L7.11914 7.88086L6.28906 8.66211C5.81055 9.11133 5.43945 9.30664 5.0293 9.30664C4.25781 9.30664 3.75977 8.75 3.75977 7.88086ZM8.65234 7.88086L9.47266 7.09961C9.96094 6.64062 10.332 6.45508 10.7422 6.45508C11.5137 6.45508 12.0117 7.01172 12.0117 7.88086C12.0117 8.75 11.5137 9.30664 10.7422 9.30664C10.332 9.30664 9.95117 9.11133 9.47266 8.66211Z" fill="var(--color-primary)"/>
 </g>
</svg>
