<svg version="1.1" xmlns="http://www.w3.org/2000/svg" xmlns:xlink="http://www.w3.org/1999/xlink" viewBox="0 0 16.8555 16.1816">
 <g>
  <rect height="16.1816" opacity="0" width="16.8555" x="0" y="0"/>
  <path d="M2.70508 4.89923L2.70508 11.7578L9.57408 11.7578L10.9825 13.1641L2.03125 13.1641C0.839844 13.1641 0 12.2754 0 11.0254L0 5.14648C0 4.28027 0.403303 3.58757 1.04788 3.24455ZM16.4941 5.14648L16.4941 11.0254C16.4941 11.9175 16.0664 12.6255 15.387 12.9557L13.7891 11.359L13.7891 4.41406L6.83888 4.41406L5.43156 3.00781L14.4629 3.00781C15.6543 3.00781 16.4941 3.89648 16.4941 5.14648ZM1.09375 6.8457L1.09375 9.31641C1.09375 9.49219 1.21094 9.61914 1.39648 9.61914C1.5918 9.61914 1.70898 9.49219 1.70898 9.31641L1.70898 6.8457C1.70898 6.66992 1.5918 6.54297 1.39648 6.54297C1.21094 6.54297 1.09375 6.66992 1.09375 6.8457ZM14.3262 8.07617C14.3262 8.45703 14.6289 8.76953 15.0098 8.76953C15.3906 8.76953 15.7031 8.45703 15.7031 8.07617C15.7031 7.69531 15.3906 7.39258 15.0098 7.39258C14.6289 7.39258 14.3262 7.69531 14.3262 8.07617Z" fill="var(--color-secondary)"/>
  <path d="M14.1992 15.0293C14.4629 15.293 14.8926 15.293 15.1562 15.0293C15.4102 14.7656 15.4102 14.3457 15.1562 14.082L2.28516 1.23047C2.03125 0.966797 1.5918 0.966797 1.32812 1.23047C1.07422 1.48438 1.07422 1.92383 1.32812 2.17773Z" fill="var(--color-primary)"/>
 </g>
</svg>
