<svg version="1.1" xmlns="http://www.w3.org/2000/svg" xmlns:xlink="http://www.w3.org/1999/xlink" viewBox="0 0 16.5527 16.4941">
 <g>
  <rect height="16.4941" opacity="0" width="16.5527" x="0" y="0"/>
  <path d="M13.1738 2.02148L13.1738 14.4531C13.1738 15.6445 12.2852 16.4746 11.0254 16.4746L5.15625 16.4746C3.89648 16.4746 3.01758 15.6445 3.01758 14.4531L3.01758 10.459L4.42383 10.459L4.42383 14.209C4.42383 14.7461 4.77539 15.0684 5.3418 15.0684L10.8398 15.0684C11.416 15.0684 11.7578 14.7461 11.7578 14.209L11.7578 2.26562C11.7578 1.72852 11.416 1.40625 10.8398 1.40625L5.3418 1.40625C4.77539 1.40625 4.42383 1.72852 4.42383 2.26562L4.42383 6.00586L3.01758 6.00586L3.01758 2.02148C3.01758 0.830078 3.89648 0 5.15625 0L11.0254 0C12.2852 0 13.1738 0.830078 13.1738 2.02148Z" fill="var(--color-secondary)"/>
  <path d="M0 8.23242C0 8.61328 0.3125 8.92578 0.673828 8.92578L6.70898 8.92578L7.87109 8.86719L7.45117 9.26758L6.2793 10.3418C6.13281 10.4688 6.07422 10.6543 6.07422 10.8203C6.07422 11.1914 6.32812 11.4551 6.67969 11.4551C6.86523 11.4551 7.01172 11.377 7.13867 11.25L9.54102 8.74023C9.7168 8.56445 9.77539 8.4082 9.77539 8.23242C9.77539 8.05664 9.7168 7.90039 9.54102 7.72461L7.13867 5.22461C7.01172 5.08789 6.86523 5.00977 6.67969 5.00977C6.32812 5.00977 6.07422 5.2832 6.07422 5.6543C6.07422 5.82031 6.13281 5.99609 6.2793 6.12305L7.45117 7.19727L7.87109 7.59766L6.70898 7.53906L0.673828 7.53906C0.3125 7.53906 0 7.86133 0 8.23242Z" fill="var(--color-primary)"/>
 </g>
</svg>
