<svg version="1.1" xmlns="http://www.w3.org/2000/svg" xmlns:xlink="http://www.w3.org/1999/xlink" viewBox="0 0 16.1328 15.7715">
 <g>
  <rect height="15.7715" opacity="0" width="16.1328" x="0" y="0"/>
  <path d="M15.7715 7.88086C15.7715 12.2363 12.2363 15.7617 7.88086 15.7617C3.53516 15.7617 0 12.2363 0 7.88086C0 3.52539 3.53516 0 7.88086 0C12.2363 0 15.7715 3.52539 15.7715 7.88086ZM1.49414 7.88086C1.49414 11.416 4.3457 14.2773 7.88086 14.2773C11.416 14.2773 14.2773 11.416 14.2773 7.88086C14.2773 4.3457 11.416 1.48438 7.88086 1.48438C4.3457 1.48438 1.49414 4.3457 1.49414 7.88086Z" fill="var(--color-secondary)"/>
  <path d="M5.77148 7.10656L5.77148 11.0938L9.76436 11.0937L10.6543 11.9824C10.6709 11.9981 10.6879 12.0132 10.7057 12.0267C10.5123 12.4153 10.1027 12.6562 9.58984 12.6562L6.18164 12.6562C5.45898 12.6562 4.94141 12.1777 4.94141 11.4844L4.94141 6.27767ZM7.49023 11.7969C7.49023 12.0215 7.67578 12.1973 7.89062 12.1973C8.10547 12.1973 8.28125 12.0215 8.28125 11.7969C8.28125 11.582 8.10547 11.3965 7.89062 11.3965C7.67578 11.3965 7.49023 11.582 7.49023 11.7969ZM10.8301 4.27734L10.8301 9.48242L10 8.65234L10 4.66797L6.01563 4.66797L5.14648 3.79883C5.12148 3.77382 5.09554 3.75046 5.06871 3.72895C5.26345 3.34399 5.67143 3.10547 6.18164 3.10547L9.58984 3.10547C10.3125 3.10547 10.8301 3.58398 10.8301 4.27734ZM7.16797 3.73047C7.07031 3.73047 6.99219 3.79883 6.99219 3.91602C6.99219 4.02344 7.07031 4.0918 7.16797 4.0918L8.60352 4.0918C8.71094 4.0918 8.7793 4.02344 8.7793 3.91602C8.7793 3.79883 8.71094 3.73047 8.60352 3.73047Z" fill="var(--color-primary)"/>
  <path d="M11.0645 11.5723C11.2012 11.7188 11.4551 11.7188 11.5918 11.5723C11.748 11.416 11.748 11.1914 11.5918 11.0352L4.74609 4.18945C4.58984 4.0332 4.35547 4.0332 4.19922 4.18945C4.0625 4.33594 4.0625 4.58008 4.19922 4.72656Z" fill="var(--color-primary)"/>
 </g>
</svg>
