<svg version="1.1" xmlns="http://www.w3.org/2000/svg" xmlns:xlink="http://www.w3.org/1999/xlink" viewBox="0 0 14.5898 14.248">
 <g>
  <rect height="14.248" opacity="0" width="14.5898" x="0" y="0"/>
  <path d="M2.49023 14.248L11.7383 14.248C13.4082 14.248 14.2285 13.4277 14.2285 11.7871L14.2285 2.4707C14.2285 0.830078 13.4082 0.00976562 11.7383 0.00976562L2.49023 0.00976562C0.830078 0.00976562 0 0.830078 0 2.4707L0 11.7871C0 13.4277 0.830078 14.248 2.49023 14.248Z" fill="var(--color-tertiary)"/>
  <path d="M6.70898 10.8691C5.5957 10.8691 4.72656 10.3516 4.42383 9.52148C4.36523 9.38477 4.3457 9.26758 4.3457 9.11133C4.3457 8.7207 4.61914 8.44727 5.01953 8.44727C5.3125 8.44727 5.51758 8.58398 5.68359 8.91602C5.89844 9.39453 6.25 9.63867 6.78711 9.63867C7.39258 9.63867 7.77344 9.18945 7.77344 8.4375L7.77344 4.10156C7.77344 3.61328 8.01758 3.28125 8.48633 3.28125C8.96484 3.28125 9.21875 3.59375 9.21875 4.10156L9.21875 8.45703C9.21875 10.0391 8.35938 10.8691 6.70898 10.8691Z" fill="var(--color-primary)"/>
 </g>
</svg>
