<svg version="1.1" xmlns="http://www.w3.org/2000/svg" xmlns:xlink="http://www.w3.org/1999/xlink" viewBox="0 0 19.7656 12.2363">
 <g>
  <rect height="12.2363" opacity="0" width="19.7656" x="0" y="0"/>
  <path d="M19.4043 2.45117L19.4043 9.76562C19.4043 11.4062 18.5742 12.2266 16.9141 12.2266L2.49023 12.2266C0.820312 12.2266 0 11.4062 0 9.76562L0 2.45117C0 0.810547 0.820312 0 2.49023 0L16.9141 0C18.5742 0 19.4043 0.820312 19.4043 2.45117ZM7.25586 7.92969C7.10938 7.92969 7.00195 8.02734 7.00195 8.18359L7.00195 9.14062C7.00195 9.30664 7.10938 9.4043 7.25586 9.4043L7.87109 9.4043C8.00781 9.4043 8.11523 9.30664 8.11523 9.14062L8.11523 8.18359C8.11523 8.02734 8.00781 7.92969 7.87109 7.92969ZM8.99414 7.92969C8.84766 7.92969 8.75 8.02734 8.75 8.18359L8.75 9.14062C8.75 9.30664 8.84766 9.4043 8.99414 9.4043L14.8438 9.4043C14.9902 9.4043 15.0879 9.30664 15.0879 9.14062L15.0879 8.18359C15.0879 8.02734 14.9902 7.92969 14.8438 7.92969ZM15.9766 7.92969C15.8203 7.92969 15.7227 8.02734 15.7227 8.18359L15.7227 9.14062C15.7227 9.30664 15.8203 9.4043 15.9766 9.4043L16.582 9.4043C16.7285 9.4043 16.8262 9.30664 16.8262 9.14062L16.8262 8.18359C16.8262 8.02734 16.7285 7.92969 16.582 7.92969ZM2.57812 3.80859L2.57812 8.41797C2.57812 8.88672 3.07617 8.98438 3.36914 8.7207L5.61523 6.60156C5.92773 6.28906 5.92773 5.9375 5.61523 5.625L3.36914 3.50586C3.07617 3.23242 2.57812 3.33008 2.57812 3.80859ZM7.25586 5.37109C7.10938 5.37109 7.00195 5.46875 7.00195 5.63477L7.00195 6.5918C7.00195 6.75781 7.10938 6.8457 7.25586 6.8457L7.87109 6.8457C8.00781 6.8457 8.11523 6.75781 8.11523 6.5918L8.11523 5.63477C8.11523 5.46875 8.00781 5.37109 7.87109 5.37109ZM8.99414 5.37109C8.84766 5.37109 8.75 5.46875 8.75 5.63477L8.75 6.5918C8.75 6.75781 8.84766 6.8457 8.99414 6.8457L9.60938 6.8457C9.75586 6.8457 9.86328 6.75781 9.86328 6.5918L9.86328 5.63477C9.86328 5.46875 9.75586 5.37109 9.60938 5.37109ZM10.7422 5.37109C10.5859 5.37109 10.4883 5.46875 10.4883 5.63477L10.4883 6.5918C10.4883 6.75781 10.5859 6.8457 10.7422 6.8457L11.3672 6.8457C11.5039 6.8457 11.6016 6.75781 11.6016 6.5918L11.6016 5.63477C11.6016 5.46875 11.5039 5.37109 11.3672 5.37109ZM12.4805 5.37109C12.334 5.37109 12.2363 5.46875 12.2363 5.63477L12.2363 6.5918C12.2363 6.75781 12.334 6.8457 12.4805 6.8457L13.0859 6.8457C13.2422 6.8457 13.3398 6.75781 13.3398 6.5918L13.3398 5.63477C13.3398 5.46875 13.2422 5.37109 13.0859 5.37109ZM14.2188 5.37109C14.0723 5.37109 13.9844 5.46875 13.9844 5.63477L13.9844 6.5918C13.9844 6.75781 14.0723 6.8457 14.2188 6.8457L14.8438 6.8457C14.9902 6.8457 15.0879 6.75781 15.0879 6.5918L15.0879 5.63477C15.0879 5.46875 14.9902 5.37109 14.8438 5.37109ZM15.9766 5.37109C15.8203 5.37109 15.7227 5.46875 15.7227 5.63477L15.7227 6.5918C15.7227 6.75781 15.8203 6.8457 15.9766 6.8457L16.582 6.8457C16.7285 6.8457 16.8262 6.75781 16.8262 6.5918L16.8262 5.63477C16.8262 5.46875 16.7285 5.37109 16.582 5.37109ZM7.25586 2.82227C7.10938 2.82227 7.00195 2.91016 7.00195 3.07617L7.00195 4.0332C7.00195 4.18945 7.10938 4.29688 7.25586 4.29688L7.87109 4.29688C8.00781 4.29688 8.11523 4.18945 8.11523 4.0332L8.11523 3.07617C8.11523 2.91016 8.00781 2.82227 7.87109 2.82227ZM8.99414 2.82227C8.84766 2.82227 8.75 2.91016 8.75 3.07617L8.75 4.0332C8.75 4.18945 8.84766 4.29688 8.99414 4.29688L9.60938 4.29688C9.75586 4.29688 9.86328 4.18945 9.86328 4.0332L9.86328 3.07617C9.86328 2.91016 9.75586 2.82227 9.60938 2.82227ZM10.7422 2.82227C10.5859 2.82227 10.4883 2.91016 10.4883 3.07617L10.4883 4.0332C10.4883 4.18945 10.5859 4.29688 10.7422 4.29688L11.3672 4.29688C11.5039 4.29688 11.6016 4.18945 11.6016 4.0332L11.6016 3.07617C11.6016 2.91016 11.5039 2.82227 11.3672 2.82227ZM12.4805 2.82227C12.334 2.82227 12.2363 2.91016 12.2363 3.07617L12.2363 4.0332C12.2363 4.18945 12.334 4.29688 12.4805 4.29688L13.0859 4.29688C13.2422 4.29688 13.3398 4.18945 13.3398 4.0332L13.3398 3.07617C13.3398 2.91016 13.2422 2.82227 13.0859 2.82227ZM14.2188 2.82227C14.0723 2.82227 13.9844 2.91016 13.9844 3.07617L13.9844 4.0332C13.9844 4.18945 14.0723 4.29688 14.2188 4.29688L14.8438 4.29688C14.9902 4.29688 15.0879 4.18945 15.0879 4.0332L15.0879 3.07617C15.0879 2.91016 14.9902 2.82227 14.8438 2.82227ZM15.9766 2.82227C15.8203 2.82227 15.7227 2.91016 15.7227 3.07617L15.7227 4.0332C15.7227 4.18945 15.8203 4.29688 15.9766 4.29688L16.582 4.29688C16.7285 4.29688 16.8262 4.18945 16.8262 4.0332L16.8262 3.07617C16.8262 2.91016 16.7285 2.82227 16.582 2.82227Z" fill="var(--color-primary)"/>
 </g>
</svg>
