<svg version="1.1" xmlns="http://www.w3.org/2000/svg" xmlns:xlink="http://www.w3.org/1999/xlink" viewBox="0 0 16.1328 15.7715">
 <g>
  <rect height="15.7715" opacity="0" width="16.1328" x="0" y="0"/>
  <path d="M7.88086 15.7617C12.2363 15.7617 15.7715 12.2266 15.7715 7.88086C15.7715 3.53516 12.2363 0 7.88086 0C3.53516 0 0 3.53516 0 7.88086C0 12.2266 3.53516 15.7617 7.88086 15.7617Z" fill="var(--color-tertiary)"/>
  <path d="M4.76562 11.1035C4.3457 11.1035 4.12109 10.8496 4.12109 10.4297L4.12109 5.22461C4.12109 4.87305 4.41406 4.58008 4.77539 4.58008C5.11719 4.58008 5.41992 4.87305 5.41992 5.22461L5.41992 10.0293L7.01172 10.0293C7.30469 10.0293 7.54883 10.2734 7.54883 10.5664C7.54883 10.8594 7.30469 11.1035 7.01172 11.1035ZM8.76953 11.0938C8.35938 11.0938 8.17383 10.8691 8.17383 10.5762C8.17383 10.293 8.34961 10.0684 8.51562 9.86328L9.81445 8.24219C10.2051 7.74414 10.6934 7.07031 10.6934 6.43555C10.6934 5.87891 10.4395 5.51758 10.0195 5.51758C9.60938 5.51758 9.44336 5.82031 9.28711 6.29883C9.17969 6.5918 9.01367 6.72852 8.7207 6.72852C8.37891 6.72852 8.18359 6.49414 8.18359 6.17188C8.18359 5.3418 8.99414 4.50195 10.0293 4.50195C11.1426 4.50195 11.9238 5.27344 11.9238 6.36719C11.9238 7.08008 11.6504 7.65625 10.8203 8.68164L9.74609 9.98047L9.74609 10.0586L11.543 10.0586C11.8457 10.0586 12.041 10.2441 12.041 10.5762C12.041 10.8887 11.8555 11.0938 11.543 11.0938Z" fill="var(--color-primary)"/>
 </g>
</svg>
