<svg version="1.1" xmlns="http://www.w3.org/2000/svg" xmlns:xlink="http://www.w3.org/1999/xlink" viewBox="0 0 16.1328 15.7715">
 <g>
  <rect height="15.7715" opacity="0" width="16.1328" x="0" y="0"/>
  <path d="M7.88086 15.7715C12.2363 15.7715 15.7715 12.2363 15.7715 7.89062C15.7715 3.54492 12.2363 0.00976562 7.88086 0.00976562C3.53516 0.00976562 0 3.54492 0 7.89062C0 12.2363 3.53516 15.7715 7.88086 15.7715Z" fill="var(--color-tertiary)"/>
  <path d="M8.93624 10.3255C8.94297 10.7255 9.28412 11.048 9.66584 11.0541L10.4753 11.8624C9.99307 12.317 9.37561 12.6184 8.65234 12.7148C8.35938 12.7441 8.19336 12.6465 8.19336 12.4121L8.19336 9.58359ZM6.05119 7.44435C6.03308 7.44225 6.01467 7.44141 5.99609 7.44141C5.63477 7.44141 5.3418 7.74414 5.3418 8.0957C5.3418 8.44727 5.63477 8.75 5.99609 8.75C6.34766 8.75 6.64062 8.44727 6.64062 8.0957C6.64062 8.0734 6.63945 8.05129 6.6371 8.02946L7.56836 8.95945L7.56836 12.4121C7.56836 12.6465 7.41211 12.7441 7.11914 12.7148C6.23047 12.5977 5.51758 12.1777 4.99023 11.5527L4.45312 12.0117C4.26758 12.1777 4.0332 12.1973 3.88672 12.002C3.74023 11.8457 3.79883 11.6016 3.97461 11.4551L4.58008 10.9375C4.28711 10.3906 4.12109 9.74609 4.10156 9.04297L3.39844 9.04297C3.14453 9.04297 3.00781 8.88672 3.00781 8.67188C3.00781 8.44727 3.14453 8.31055 3.39844 8.31055L4.15039 8.30078C4.22852 7.75391 4.38477 7.1875 4.61914 6.74805L3.98438 6.20117C3.79883 6.05469 3.74023 5.82031 3.88672 5.63477C3.95096 5.55767 4.03211 5.52003 4.11864 5.51444ZM4.60938 4.05273L11.7285 11.1816C11.8848 11.3281 11.8848 11.5723 11.7285 11.7285C11.582 11.875 11.3281 11.875 11.1816 11.7285L4.04297 4.59961C3.90625 4.46289 3.90625 4.19922 4.04297 4.05273C4.20898 3.89648 4.45312 3.89648 4.60938 4.05273ZM5.3418 10.3125C5.3418 10.7227 5.68359 11.0547 6.08398 11.0547C6.48438 11.0547 6.83594 10.7227 6.83594 10.3125C6.83594 9.91211 6.48438 9.57031 6.08398 9.57031C5.68359 9.57031 5.3418 9.91211 5.3418 10.3125ZM11.8848 5.63477C12.0215 5.82031 11.9727 6.05469 11.7871 6.20117L11.1523 6.74805C11.3867 7.1875 11.543 7.75391 11.6211 8.30078L12.373 8.31055C12.6172 8.31055 12.7637 8.44727 12.7637 8.67188C12.7637 8.88672 12.6172 9.04297 12.373 9.04297L11.6699 9.04297C11.6595 9.41785 11.6075 9.77608 11.5155 10.111L10.0754 8.67488C10.286 8.56424 10.4297 8.34195 10.4297 8.0957C10.4297 7.74414 10.1367 7.44141 9.77539 7.44141C9.52963 7.44141 9.30773 7.58934 9.19684 7.7987L7.85868 6.46421C7.86599 6.46483 7.87342 6.46484 7.88086 6.46484C8.7207 6.46484 9.52148 6.26953 10.1172 6.03516C10.2637 5.9668 10.4297 5.95703 10.6836 6.17188L11.3086 5.63477C11.5039 5.48828 11.7285 5.45898 11.8848 5.63477ZM9.72656 3.27148L9.48242 3.33008C9.29688 3.36914 9.23828 3.48633 9.26758 3.63281L9.27734 3.70117C9.85352 4.00391 10.1758 4.50195 10.1758 5.03906C10.1758 5.2832 10.0879 5.46875 9.80469 5.5957C9.32617 5.81055 8.61328 5.9375 7.88086 5.9375C7.68542 5.9375 7.49136 5.92846 7.30344 5.91049L5.76931 4.38057C5.91971 4.10984 6.16566 3.87376 6.49414 3.70117L6.50391 3.63281C6.5332 3.48633 6.46484 3.36914 6.2793 3.33008L6.04492 3.27148C5.56641 3.1543 5.80078 2.42188 6.2793 2.58789L6.58203 2.68555C6.95312 2.8125 7.19727 3.07617 7.1875 3.41797L7.1875 3.44727C7.41211 3.39844 7.63672 3.37891 7.88086 3.37891C8.125 3.37891 8.35938 3.39844 8.58398 3.44727L8.57422 3.41797C8.57422 3.06641 8.81836 2.8125 9.18945 2.68555L9.49219 2.58789C9.9707 2.42188 10.2051 3.1543 9.72656 3.27148Z" fill="var(--color-primary)"/>
 </g>
</svg>
