<svg version="1.1" xmlns="http://www.w3.org/2000/svg" xmlns:xlink="http://www.w3.org/1999/xlink" viewBox="0 0 20.3418 21.1182">
 <g>
  <rect height="21.1182" opacity="0" width="20.3418" x="0" y="0"/>
  <path d="M4.76639 17.5474L3.78906 18.3765C3.4668 18.6499 3.05664 18.689 2.79297 18.3667C2.5293 18.0542 2.62695 17.6343 2.93945 17.3706L4.02389 16.4496C4.23442 16.8483 4.48159 17.2168 4.76639 17.5474ZM3.17383 12.7808L3.18179 12.9988L1.9043 13.0054C1.47461 13.0054 1.19141 12.7417 1.19141 12.3511C1.19141 11.9507 1.47461 11.687 1.9043 11.687L3.25753 11.6801C3.20212 12.0634 3.17383 12.4365 3.17383 12.7808ZM18.0859 11.687C18.5156 11.687 18.7988 11.9507 18.7988 12.3511C18.7988 12.7417 18.5156 13.0054 18.0859 13.0054L16.8084 12.9988C16.8155 12.9283 16.8164 12.8547 16.8164 12.7808C16.8164 12.4365 16.7881 12.0634 16.7326 11.6801ZM17.1875 6.90188C17.4512 7.20462 17.3535 7.6343 17.041 7.89798L15.872 8.89086C15.6722 8.51925 15.445 8.20355 15.1953 7.9761C15.1462 7.93131 15.0991 7.89048 15.0544 7.85467L16.1914 6.88235C16.5137 6.60891 16.9238 6.57962 17.1875 6.90188ZM4.64567 8.11739C4.45302 8.32611 4.27549 8.58911 4.1154 8.88844L2.94922 7.89798C2.63672 7.6343 2.5293 7.20462 2.79297 6.90188C2.90595 6.76379 3.04762 6.69025 3.19731 6.67326Z" fill="var(--color-primary)"/>
  <path d="M12.4355 15.8844C12.1905 16.0337 12.0312 16.3052 12.0312 16.6187C12.0312 17.0874 12.4023 17.4683 12.8809 17.4683C13.1901 17.4683 13.4611 17.3025 13.6089 17.0545L14.6748 18.1173C13.7969 18.9245 12.6732 19.4552 11.3672 19.6363C10.8398 19.7046 10.5566 19.5191 10.5566 19.1089L10.5566 14.0111ZM6.17913 9.64637C6.02857 9.81976 5.9375 10.046 5.9375 10.2906C5.9375 10.8277 6.37695 11.2866 6.91406 11.2866C7.16476 11.2866 7.39494 11.1902 7.57005 11.0332L9.42383 12.8816L9.42383 19.1089C9.42383 19.5191 9.14062 19.7046 8.61328 19.6363C5.3125 19.1773 3.17383 16.4722 3.17383 12.7808C3.17383 11.2287 3.74873 9.09295 4.64673 8.11845ZM6.25977 16.6187C6.25977 17.0874 6.63086 17.4683 7.09961 17.4683C7.57812 17.4683 7.95898 17.0874 7.95898 16.6187C7.95898 16.1402 7.57812 15.7593 7.09961 15.7593C6.63086 15.7593 6.25977 16.1402 6.25977 16.6187ZM15.1953 7.9761C16.1816 8.87454 16.8164 11.1499 16.8164 12.7808C16.8164 13.6781 16.69 14.5171 16.449 15.2783L14.974 13.805C15.0101 13.692 15.0293 13.571 15.0293 13.4449C15.0293 12.8199 14.5117 12.3023 13.8672 12.3023C13.7474 12.3023 13.6315 12.3207 13.5222 12.3549L9.53603 8.37339C9.68596 8.38269 9.8377 8.38626 9.99023 8.38626C11.5137 8.38626 12.9492 8.0347 14.0234 7.59524C14.3359 7.46829 14.6387 7.46829 15.1953 7.9761ZM4.96094 13.4449C4.96094 14.0991 5.47852 14.6167 6.12305 14.6167C6.75781 14.6167 7.27539 14.0991 7.27539 13.4449C7.27539 12.8199 6.75781 12.3023 6.12305 12.3023C5.47852 12.3023 4.96094 12.8199 4.96094 13.4449ZM12.0703 10.2906C12.0703 10.8277 12.5195 11.2866 13.0664 11.2866C13.6133 11.2866 14.0527 10.8277 14.0527 10.2906C14.0527 9.75345 13.6133 9.30423 13.0664 9.30423C12.5195 9.30423 12.0703 9.75345 12.0703 10.2906Z" fill="var(--color-primary)"/>
  <path d="M13.3105 2.60501L12.8906 2.73196C12.5488 2.82962 12.4121 3.0054 12.4805 3.27884L12.5073 3.38323C13.5324 3.92835 14.1211 4.81651 14.1211 5.80813C14.1211 6.23782 13.9551 6.57962 13.457 6.80423C12.5977 7.19485 11.3086 7.42923 9.99023 7.42923C9.47846 7.42923 8.96819 7.39338 8.48671 7.3253L6.04231 4.88375C6.28734 4.27565 6.77988 3.75057 7.47315 3.38323L7.5 3.27884C7.56836 3.0054 7.44141 2.82962 7.09961 2.73196L6.67969 2.60501C5.83008 2.36087 6.24023 1.11087 7.09961 1.39407L7.63672 1.57962C8.33619 1.81558 8.71567 2.29154 8.74922 2.93258C9.13097 2.85219 9.54652 2.81009 9.99023 2.81009C10.4376 2.81009 10.8563 2.85288 11.2409 2.93431C11.2739 2.29241 11.6534 1.8158 12.3535 1.57962L12.8809 1.39407C13.75 1.11087 14.1602 2.36087 13.3105 2.60501Z" fill="var(--color-primary)"/>
  <path d="M1.15234 3.26907L17.8711 19.9585C18.1348 20.2222 18.5742 20.2222 18.8281 19.9585C19.082 19.6949 19.0918 19.2749 18.8281 19.0113L2.10938 2.3218C1.8457 2.05813 1.41602 2.05813 1.15234 2.3218C0.898438 2.57571 0.898438 3.01516 1.15234 3.26907Z" fill="var(--color-primary)"/>
 </g>
</svg>
