<svg version="1.1" xmlns="http://www.w3.org/2000/svg" xmlns:xlink="http://www.w3.org/1999/xlink" viewBox="0 0 16.1328 15.7715">
 <g>
  <rect height="15.7715" opacity="0" width="16.1328" x="0" y="0"/>
  <path d="M7.88086 15.7617C12.2363 15.7617 15.7715 12.2266 15.7715 7.88086C15.7715 3.53516 12.2363 0 7.88086 0C3.53516 0 0 3.53516 0 7.88086C0 12.2266 3.53516 15.7617 7.88086 15.7617Z" fill="var(--color-tertiary)"/>
  <path d="M4.72656 11.1328C4.72656 10.7715 5.00977 10.4785 5.39062 10.4785L9.96094 10.4785C10.3418 10.4785 10.6348 10.7715 10.6348 11.1328C10.6348 11.4648 10.3418 11.7773 9.96094 11.7773L5.39062 11.7773C5.00977 11.7773 4.72656 11.4648 4.72656 11.1328ZM9.66797 9.38477C9.57031 9.38477 9.47266 9.36523 9.26758 9.25781L5.41992 7.58789C4.9707 7.40234 4.83398 7.12891 4.83398 6.73828C4.83398 6.38672 4.98047 6.08398 5.41992 5.88867L9.26758 4.20898C9.47266 4.12109 9.57031 4.10156 9.66797 4.10156C10.0684 4.10156 10.3418 4.41406 10.3418 4.74609C10.3418 5 10.1855 5.24414 9.93164 5.36133L6.79688 6.72852L6.79688 6.74805L9.93164 8.125C10.1855 8.22266 10.3418 8.4668 10.3418 8.73047C10.3418 9.05273 10.0684 9.38477 9.66797 9.38477Z" fill="var(--color-primary)"/>
 </g>
</svg>
