<svg version="1.1" xmlns="http://www.w3.org/2000/svg" xmlns:xlink="http://www.w3.org/1999/xlink" viewBox="0 0 14.5898 14.248">
 <g>
  <rect height="14.248" opacity="0" width="14.5898" x="0" y="0"/>
  <path d="M2.49023 14.248L11.7383 14.248C13.4082 14.248 14.2285 13.4277 14.2285 11.7871L14.2285 2.4707C14.2285 0.830078 13.4082 0.00976562 11.7383 0.00976562L2.49023 0.00976562C0.830078 0.00976562 0 0.830078 0 2.4707L0 11.7871C0 13.4277 0.830078 14.248 2.49023 14.248ZM2.50977 12.832C1.80664 12.832 1.40625 12.4512 1.40625 11.7188L1.40625 2.53906C1.40625 1.79688 1.80664 1.42578 2.50977 1.42578L11.7188 1.42578C12.4219 1.42578 12.8223 1.79688 12.8223 2.53906L12.8223 11.7188C12.8223 12.4512 12.4219 12.832 11.7188 12.832Z" fill="var(--color-secondary)"/>
  <path d="M4.07227 10.2539C4.07227 10.5762 4.35547 10.8789 4.7168 10.8789L9.12109 10.8789C9.48242 10.8789 9.75586 10.5762 9.75586 10.2539C9.75586 9.91211 9.48242 9.61914 9.12109 9.61914L4.7168 9.61914C4.35547 9.61914 4.07227 9.91211 4.07227 10.2539ZM8.83789 8.56445C9.21875 8.56445 9.47266 8.26172 9.47266 7.94922C9.47266 7.68555 9.33594 7.45117 9.0918 7.35352L6.06445 6.02539L6.06445 6.00586L9.0918 4.69727C9.33594 4.58008 9.47266 4.3457 9.47266 4.10156C9.47266 3.7793 9.21875 3.47656 8.83789 3.47656C8.75 3.47656 8.64258 3.49609 8.44727 3.58398L4.74609 5.20508C4.32617 5.39062 4.17969 5.68359 4.17969 6.01562C4.17969 6.39648 4.31641 6.66016 4.74609 6.83594L8.44727 8.45703C8.64258 8.54492 8.75 8.56445 8.83789 8.56445Z" fill="var(--color-primary)"/>
 </g>
</svg>
