<svg version="1.1" xmlns="http://www.w3.org/2000/svg" xmlns:xlink="http://www.w3.org/1999/xlink" viewBox="0 0 19.8438 12.7832">
 <g>
  <rect height="12.7832" opacity="0" width="19.8438" x="0" y="0"/>
  <path d="M2.49023 12.7832L16.9922 12.7832C18.6621 12.7832 19.4824 11.9629 19.4824 10.3223L19.4824 2.4707C19.4824 0.830078 18.6621 0.00976562 16.9922 0.00976562L2.49023 0.00976562C0.830078 0.00976562 0 0.830078 0 2.4707L0 10.3223C0 11.9629 0.830078 12.7832 2.49023 12.7832ZM2.50977 11.3672C1.80664 11.3672 1.40625 10.9863 1.40625 10.2539L1.40625 2.53906C1.40625 1.79688 1.80664 1.42578 2.50977 1.42578L16.9727 1.42578C17.6758 1.42578 18.0762 1.79688 18.0762 2.53906L18.0762 10.2539C18.0762 10.9863 17.6758 11.3672 16.9727 11.3672Z" fill="var(--color-secondary)"/>
  <path d="M2.73438 8.81836C3.01758 8.81836 3.19336 8.63281 3.24219 8.35938L3.36914 7.73438L4.25781 7.73438L4.38477 8.36914C4.43359 8.66211 4.60938 8.81836 4.90234 8.81836C5.17578 8.81836 5.37109 8.60352 5.37109 8.33008C5.37109 8.25195 5.36133 8.10547 5.3418 8.04688L4.54102 4.57031C4.45312 4.19922 4.20898 3.97461 3.78906 3.97461C3.42773 3.97461 3.17383 4.17969 3.08594 4.58008L2.27539 8.03711C2.26562 8.11523 2.24609 8.24219 2.24609 8.33008C2.24609 8.61328 2.40234 8.81836 2.73438 8.81836ZM3.47656 6.95312L3.80859 5.23438L4.15039 6.95312ZM6.25977 8.81836C6.57227 8.81836 6.74805 8.63281 6.74805 8.31055L6.74805 7.30469L7.1875 7.30469C8.03711 7.30469 8.56445 6.61133 8.56445 5.67383C8.56445 4.86328 8.13477 4.04297 7.26562 4.04297L6.25977 4.04297C5.92773 4.04297 5.76172 4.26758 5.76172 4.55078L5.76172 8.31055C5.76172 8.63281 5.94727 8.81836 6.25977 8.81836ZM6.74805 6.5332L6.74805 4.82422L7.00195 4.82422C7.44141 4.82422 7.56836 5.23438 7.56836 5.67383C7.56836 6.13281 7.42188 6.5332 7.00195 6.5332ZM10.3418 8.80859C10.6543 8.80859 10.8594 8.57422 10.8594 8.26172L10.8594 4.53125C10.8594 4.21875 10.625 3.97461 10.293 3.97461C10.0684 3.97461 9.87305 4.07227 9.61914 4.27734L9.15039 4.66797C9.00391 4.79492 8.91602 4.93164 8.91602 5.07812C8.91602 5.30273 9.0918 5.46875 9.30664 5.46875C9.39453 5.46875 9.51172 5.42969 9.57031 5.38086L9.84375 5.16602L9.84375 8.26172C9.84375 8.57422 10.0488 8.80859 10.3418 8.80859ZM11.8848 8.75L13.623 8.75C13.8379 8.75 14.043 8.54492 14.043 8.31055C14.043 8.06641 13.8379 7.88086 13.623 7.88086L12.6367 7.88086L13.252 7.02148C13.623 6.51367 13.9844 5.98633 13.9844 5.32227C13.9844 4.51172 13.5059 3.92578 12.6855 3.92578C11.9629 3.92578 11.416 4.64844 11.416 5.19531C11.416 5.45898 11.582 5.66406 11.8457 5.66406C12.0996 5.66406 12.2461 5.50781 12.3242 5.21484C12.3926 4.94141 12.5 4.79492 12.6758 4.79492C12.9297 4.79492 13.0078 5.04883 13.0078 5.3418C13.0078 5.76172 12.7734 6.17188 12.4219 6.66016L11.6211 7.8125C11.4551 8.04688 11.4258 8.18359 11.4258 8.30078C11.4258 8.57422 11.6211 8.75 11.8848 8.75ZM15.7324 8.84766C16.5723 8.84766 17.1484 8.24219 17.1484 7.41211C17.1484 6.89453 16.9336 6.45508 16.543 6.29883C16.8164 6.10352 17.041 5.68359 17.041 5.26367C17.041 4.61914 16.6309 3.94531 15.7129 3.94531C15 3.94531 14.4238 4.43359 14.4238 5.15625C14.4238 5.40039 14.6094 5.5957 14.8633 5.5957C15.0977 5.5957 15.2637 5.48828 15.332 5.23438C15.4297 4.94141 15.5371 4.80469 15.7129 4.80469C15.9375 4.80469 16.0742 5 16.0742 5.3418C16.0742 5.6543 15.9375 5.94727 15.6055 5.94727L15.5176 5.94727C15.2832 5.94727 15.1074 6.11328 15.1074 6.34766C15.1074 6.57227 15.2832 6.74805 15.5176 6.74805L15.6055 6.74805C16.0059 6.74805 16.1523 6.95312 16.1523 7.38281C16.1523 7.77344 16.0156 7.97852 15.7324 7.97852C15.5371 7.97852 15.3809 7.8418 15.2832 7.5293C15.2246 7.38281 15.1074 7.1875 14.834 7.1875C14.502 7.1875 14.3652 7.44141 14.3652 7.64648C14.3652 8.10547 14.7754 8.84766 15.7324 8.84766Z" fill="var(--color-primary)"/>
 </g>
</svg>
