<svg version="1.1" xmlns="http://www.w3.org/2000/svg" xmlns:xlink="http://www.w3.org/1999/xlink" viewBox="0 0 17.5391 18.9941">
 <g>
  <rect height="18.9941" opacity="0" width="17.5391" x="0" y="0"/>
  <path d="M4.88281 17.1289C3.84766 17.1289 2.94922 16.582 2.93945 15.7617L6.82617 15.7617C6.81641 16.582 5.9082 17.1289 4.88281 17.1289ZM7.36328 14.6973C7.36328 14.9609 7.13867 15.1562 6.88477 15.1562L2.87109 15.1562C2.60742 15.1562 2.41211 14.9609 2.41211 14.6973C2.41211 14.4434 2.60742 14.2285 2.87109 14.2285L6.88477 14.2285C7.13867 14.2285 7.36328 14.4336 7.36328 14.6973ZM6.71816 2.47821C6.11783 3.33628 5.77148 4.37312 5.77148 5.50781C5.77148 8.29917 6.86738 9.30281 7.53046 11.6703C7.43814 12.1093 7.36106 12.6074 7.30469 13.1738C7.28516 13.4277 7.12891 13.623 6.83594 13.623L2.91016 13.623C2.62695 13.623 2.4707 13.4277 2.45117 13.1738C2.04102 9.15039 0.595703 8.57422 0.595703 6.07422C0.595703 3.82812 2.49023 2.09961 4.87305 2.09961C5.53803 2.09961 6.16378 2.23313 6.71816 2.47821Z" fill="var(--color-secondary)"/>
  <path d="M11.6504 0.957031C8.89648 0.957031 6.72852 2.92969 6.72852 5.50781C6.72852 8.37891 8.4082 9.0332 8.88672 13.7695C8.91602 14.0527 9.0625 14.2383 9.35547 14.2383L13.9453 14.2383C14.2383 14.2383 14.3848 14.0527 14.4141 13.7695C14.8926 9.0332 16.582 8.37891 16.582 5.50781C16.582 2.92969 14.4043 0.957031 11.6504 0.957031ZM9.31641 15.8789L13.9844 15.8789C14.2578 15.8789 14.4629 15.6836 14.4629 15.4102C14.4629 15.1465 14.2578 14.9414 13.9844 14.9414L9.31641 14.9414C9.04297 14.9414 8.84766 15.1465 8.84766 15.4102C8.84766 15.6836 9.04297 15.8789 9.31641 15.8789ZM11.6504 18.0371C12.793 18.0371 13.7793 17.4512 13.8379 16.5918L9.46289 16.5918C9.51172 17.4512 10.498 18.0371 11.6504 18.0371Z" fill="var(--color-primary)"/>
 </g>
</svg>
