<svg version="1.1" xmlns="http://www.w3.org/2000/svg" xmlns:xlink="http://www.w3.org/1999/xlink" viewBox="0 0 18.8379 16.2207">
 <g>
  <rect height="16.2207" opacity="0" width="18.8379" x="0" y="0"/>
  <path d="M1.95312 13.4473L16.5234 13.4473C17.7441 13.4473 18.4766 12.7148 18.4766 11.4941L18.4766 2.50977C18.4766 1.28906 17.7441 0.556641 16.5234 0.556641L1.95312 0.556641C0.732422 0.556641 0 1.28906 0 2.50977L0 11.4941C0 12.7148 0.732422 13.4473 1.95312 13.4473ZM1.97266 12.0312C1.62109 12.0312 1.40625 11.8164 1.40625 11.4746L1.40625 2.5293C1.40625 2.17773 1.62109 1.96289 1.97266 1.96289L16.5039 1.96289C16.8555 1.96289 17.0703 2.17773 17.0703 2.5293L17.0703 11.4746C17.0703 11.8164 16.8555 12.0312 16.5039 12.0312ZM6.77734 15.2051L11.709 15.2051L11.709 13.3496L6.77734 13.3496ZM6.76758 16.2207L11.7188 16.2207C12.0996 16.2207 12.4219 15.9082 12.4219 15.5176C12.4219 15.127 12.0996 14.8047 11.7188 14.8047L6.76758 14.8047C6.37695 14.8047 6.05469 15.127 6.05469 15.5176C6.05469 15.9082 6.37695 16.2207 6.76758 16.2207Z" fill="var(--color-secondary)"/>
  <path d="M6.46484 8.94531C6.46484 9.38477 6.67969 9.60938 7.09961 9.60938L9.69727 9.60938C10.1074 9.60938 10.3223 9.38477 10.3223 8.94531L10.3223 6.96289C10.3223 6.52344 10.1074 6.29883 9.69727 6.29883L7.09961 6.29883C6.67969 6.29883 6.46484 6.52344 6.46484 6.96289ZM9.07227 6.81641L9.89258 6.81641L9.89258 5.6543C9.89258 5.10742 10.1855 4.75586 10.6836 4.75586C11.1816 4.75586 11.4648 5.10742 11.4648 5.6543L11.4648 6.23047C11.4648 6.46484 11.6602 6.65039 11.8848 6.65039C12.1094 6.65039 12.2949 6.46484 12.2949 6.23047L12.2949 5.6543C12.2949 4.67773 11.6602 3.96484 10.6836 3.96484C9.69727 3.96484 9.07227 4.67773 9.07227 5.73242Z" fill="var(--color-primary)"/>
 </g>
</svg>
