<svg version="1.1" xmlns="http://www.w3.org/2000/svg" xmlns:xlink="http://www.w3.org/1999/xlink" viewBox="0 0 18.6621 13.9551">
 <g>
  <rect height="13.9551" opacity="0" width="18.6621" x="0" y="0"/>
  <path d="M6.2207 13.9453L12.0801 13.9453C16.6113 13.9453 18.3008 12.2656 18.3008 8.06641L18.3008 5.87891C18.3008 1.67969 16.6113 0 12.0801 0L6.2207 0C1.68945 0 0 1.67969 0 5.87891L0 8.06641C0 12.2656 1.68945 13.9453 6.2207 13.9453ZM6.2207 12.5293C2.63672 12.5293 1.40625 11.3965 1.40625 8.06641L1.40625 5.87891C1.40625 2.54883 2.63672 1.41602 6.2207 1.41602L12.0801 1.41602C15.6641 1.41602 16.8848 2.54883 16.8848 5.87891L16.8848 8.06641C16.8848 11.3965 15.6641 12.5293 12.0801 12.5293Z" fill="var(--color-primary)"/>
  <path d="M5.11719 10.1855C5.44922 10.1855 5.67383 9.96094 5.67383 9.58984L5.67383 5.70312L5.72266 5.70312L6.66992 9.51172C6.74805 9.83398 6.95312 10.0586 7.28516 10.0586C7.62695 10.0586 7.80273 9.83398 7.89062 9.50195L8.83789 5.70312L8.88672 5.70312L8.88672 9.58984C8.88672 9.96094 9.0918 10.1855 9.43359 10.1855C9.80469 10.1855 9.99023 9.96094 9.99023 9.58984L9.99023 4.6582C9.99023 4.10156 9.6582 3.78906 9.11133 3.78906C8.62305 3.78906 8.34961 4.02344 8.23242 4.50195L7.29492 8.42773L7.26562 8.42773L6.30859 4.50195C6.19141 4.01367 5.9082 3.78906 5.43945 3.78906C4.89258 3.78906 4.56055 4.12109 4.56055 4.6582L4.56055 9.58984C4.56055 9.96094 4.77539 10.1855 5.11719 10.1855ZM12.8223 10.1562C13.1641 10.1562 13.4473 9.87305 13.4473 9.52148L13.4473 4.48242C13.4473 4.02344 13.1738 3.76953 12.7148 3.76953C12.3633 3.76953 12.0703 3.97461 11.8652 4.12109L11.084 4.72656C10.9277 4.83398 10.8105 5.00977 10.8105 5.23438C10.8105 5.49805 10.9863 5.68359 11.2402 5.68359C11.377 5.68359 11.4648 5.64453 11.543 5.57617L12.1875 5.05859L12.1875 9.52148C12.1875 9.87305 12.4707 10.1562 12.8223 10.1562Z" fill="var(--color-primary)"/>
 </g>
</svg>
