<svg version="1.1" xmlns="http://www.w3.org/2000/svg" xmlns:xlink="http://www.w3.org/1999/xlink" viewBox="0 0 16.4941 20.498">
 <g>
  <rect height="20.498" opacity="0" width="16.4941" x="0" y="0"/>
  <path d="M7.20703 12.4121C7.56836 12.4121 7.74414 12.1777 8.18359 12.1777C8.64258 12.1777 8.75 12.4121 9.15039 12.4121C9.56055 12.4121 9.81445 12.0312 10.0684 11.6797C10.3613 11.2695 10.459 10.8691 10.4688 10.8398C10.4492 10.8301 9.67773 10.5273 9.67773 9.6582C9.67773 8.89648 10.2832 8.55469 10.3223 8.53516C9.91211 7.95898 9.32617 7.93945 9.15039 7.93945C8.70117 7.93945 8.33984 8.21289 8.11523 8.21289C7.87109 8.21289 7.54883 7.95898 7.1582 7.95898C6.42578 7.95898 5.69336 8.56445 5.69336 9.7168C5.69336 10.4297 5.95703 11.1719 6.29883 11.6602C6.5918 12.0703 6.8457 12.4121 7.20703 12.4121ZM8.1543 7.89062C8.4082 7.89062 8.75 7.70508 8.94531 7.46094C9.13086 7.24609 9.25781 6.94336 9.25781 6.64062C9.25781 6.5918 9.25781 6.55273 9.24805 6.52344C8.94531 6.5332 8.59375 6.71875 8.36914 6.96289C8.20312 7.1582 8.06641 7.46094 8.06641 7.76367C8.06641 7.8125 8.06641 7.86133 8.07617 7.87109C8.08594 7.88086 8.11523 7.89062 8.1543 7.89062ZM2.49023 17.3047L13.6328 17.3047C15.293 17.3047 16.1328 16.4941 16.1328 14.8535L16.1328 4.66797C16.1328 3.02734 15.293 2.20703 13.6328 2.20703L2.49023 2.20703C0.820312 2.20703 0 3.02734 0 4.66797L0 14.8535C0 16.4941 0.820312 17.3047 2.49023 17.3047ZM2.50977 15.8984C1.80664 15.8984 1.40625 15.5176 1.40625 14.7754L1.40625 4.73633C1.40625 3.99414 1.80664 3.62305 2.50977 3.62305L13.6133 3.62305C14.3164 3.62305 14.7168 3.99414 14.7168 4.73633L14.7168 14.7754C14.7168 15.5176 14.3164 15.8984 13.6133 15.8984ZM2.10938 19.5996L4.9707 19.5996C5.32227 19.5996 5.60547 19.3164 5.60547 18.9648C5.60547 18.6035 5.32227 18.3203 4.9707 18.3203L2.10938 18.3203C1.75781 18.3203 1.47461 18.6035 1.47461 18.9648C1.47461 19.3164 1.75781 19.5996 2.10938 19.5996ZM2.90039 18.9355L4.17969 18.9355L4.17969 16.5527L2.90039 16.5527ZM11.1523 19.5996L14.0137 19.5996C14.3652 19.5996 14.6484 19.3164 14.6484 18.9648C14.6484 18.6035 14.3652 18.3203 14.0137 18.3203L11.1523 18.3203C10.8105 18.3203 10.5176 18.6035 10.5176 18.9648C10.5176 19.3164 10.8105 19.5996 11.1523 19.5996ZM11.9434 18.9355L13.2227 18.9355L13.2227 16.5527L11.9434 16.5527ZM2.90039 2.90039L4.17969 2.90039L4.17969 0.634766C4.17969 0.283203 3.89648 0 3.54492 0C3.18359 0 2.90039 0.283203 2.90039 0.634766ZM11.9434 2.90039L13.2227 2.90039L13.2227 0.634766C13.2227 0.283203 12.9395 0 12.5879 0C12.2266 0 11.9434 0.283203 11.9434 0.634766Z" fill="var(--color-primary)"/>
 </g>
</svg>
