<svg version="1.1" xmlns="http://www.w3.org/2000/svg" xmlns:xlink="http://www.w3.org/1999/xlink" viewBox="0 0 18.9844 15.4424">
 <g>
  <rect height="15.4424" opacity="0" width="18.9844" x="0" y="0"/>
  <path d="M18.623 9.27882C18.623 4.40578 14.8926 0.411637 10.127 0.00148111C9.88281-0.0180501 9.69727 0.157731 9.69727 0.401872L9.69727 2.98C9.69727 3.18507 9.84375 3.34132 10.0488 3.36086C12.9883 3.73195 15.2734 6.24172 15.2734 9.27882C15.2734 10.6558 14.8047 11.9253 13.9551 13.0093C13.8574 13.1362 13.8672 13.2925 13.9746 13.3999L15.8594 15.2847C16.0352 15.4605 16.2891 15.4605 16.4453 15.2749C17.8125 13.6538 18.623 11.564 18.623 9.27882Z" fill="var(--color-primary)"/>
  <path d="M0 9.27882C0 11.564 0.820312 13.6538 2.17773 15.2749C2.33398 15.4605 2.58789 15.4605 2.76367 15.2847L4.64844 13.3999C4.76562 13.2925 4.77539 13.1362 4.66797 13.0093C3.82812 11.9253 3.35938 10.6558 3.35938 9.27882C3.35938 6.24172 5.63477 3.73195 8.57422 3.36086C8.7793 3.34132 8.92578 3.18507 8.92578 2.98L8.92578 0.401872C8.92578 0.157731 8.74023-0.0180501 8.49609 0.00148111C3.74023 0.411637 0 4.40578 0 9.27882Z" fill="var(--color-primary)"/>
  <path d="M5.39062 12.189C5.66406 12.189 5.83008 12.0034 5.83008 11.73L5.83008 9.97218L6.60156 9.97218L7.40234 11.8667C7.49023 12.0718 7.63672 12.189 7.8418 12.189C8.11523 12.189 8.27148 12.0034 8.27148 11.7886C8.27148 11.6812 8.24219 11.6128 8.17383 11.4566L7.45117 9.7964C7.94922 9.56203 8.30078 9.04445 8.30078 8.30226C8.30078 7.27687 7.67578 6.65187 6.60156 6.65187L5.38086 6.65187C5.11719 6.65187 4.95117 6.81789 4.95117 7.09132L4.95117 11.73C4.95117 12.0034 5.11719 12.189 5.39062 12.189ZM5.83008 9.28859L5.83008 7.36476L6.52344 7.36476C7.09961 7.36476 7.42188 7.73586 7.42188 8.31203C7.42188 8.90773 7.11914 9.28859 6.52344 9.28859ZM9.375 12.189C9.60938 12.189 9.76562 12.0327 9.76562 11.7886L9.76562 7.9507L9.80469 7.9507L10.8398 11.6812C10.8984 11.896 11.0547 12.0913 11.3281 12.0913C11.5918 12.0913 11.7285 11.9155 11.8066 11.6616L12.8516 7.9507L12.8906 7.9507L12.8906 11.7886C12.8906 12.0327 13.0371 12.189 13.2812 12.189C13.5156 12.189 13.6719 12.0327 13.6719 11.7886L13.6719 7.17922C13.6719 6.79836 13.4375 6.57375 13.0566 6.57375C12.7441 6.57375 12.5098 6.76906 12.4219 7.07179L11.3672 10.9487L11.3086 10.9487L10.2246 7.07179C10.1367 6.76906 9.90234 6.57375 9.59961 6.57375C9.21875 6.57375 8.98438 6.79836 8.98438 7.17922L8.98438 11.7886C8.98438 12.0327 9.13086 12.189 9.375 12.189Z" fill="var(--color-primary)"/>
 </g>
</svg>
