<svg version="1.1" xmlns="http://www.w3.org/2000/svg" xmlns:xlink="http://www.w3.org/1999/xlink" viewBox="0 0 17.7734 16.5527">
 <g>
  <rect height="16.5527" opacity="0" width="17.7734" x="0" y="0"/>
  <path d="M1.10352 15.5078L16.3184 15.5078L16.3184 14.5508C16.3184 14.1992 16.1133 13.9941 15.752 13.9941L15.2637 13.9941L15.2637 5.42969L15.918 5.42969C16.3965 5.42969 16.6797 5.07812 16.6797 4.72656C16.6797 4.46289 16.5234 4.23828 16.2109 4.04297L9.6875 0.283203C9.375 0.0976562 9.0332 0 8.71094 0C8.37891 0 8.03711 0.0976562 7.72461 0.283203L1.20117 4.04297C0.878906 4.23828 0.732422 4.46289 0.732422 4.72656C0.732422 5.07812 1.01562 5.42969 1.49414 5.42969L2.1582 5.42969L2.1582 13.9941L1.66992 13.9941C1.30859 13.9941 1.10352 14.1992 1.10352 14.5508ZM0.703125 16.543L16.709 16.543C17.0898 16.543 17.4121 16.2207 17.4121 15.8301C17.4121 15.4492 17.0898 15.127 16.709 15.127L0.703125 15.127C0.322266 15.127 0 15.4492 0 15.8301C0 16.2207 0.322266 16.543 0.703125 16.543Z" fill="var(--color-tertiary)"/>
  <path d="M6.37695 12.2754C6.05469 12.2754 5.86914 12.0703 5.86914 11.748L5.86914 9.32617C5.86914 7.46094 6.65039 6.05469 8.33984 5.86914L8.33984 5.00977C8.33984 4.79492 8.47656 4.6582 8.71094 4.6582C8.92578 4.6582 9.0625 4.79492 9.0625 5.00977L9.0625 5.86914C10.7715 6.03516 11.5723 7.43164 11.5723 9.32617L11.5723 11.748C11.5723 12.0703 11.3867 12.2754 11.0645 12.2754C10.7422 12.2754 10.5469 12.0703 10.5469 11.748L10.5469 9.375C10.5469 8.10547 10.1758 6.98242 9.0625 6.80664L9.0625 11.9141C9.0625 12.1484 8.92578 12.2754 8.71094 12.2754C8.47656 12.2754 8.33984 12.1484 8.33984 11.9141L8.33984 6.81641C7.27539 7.02148 6.89453 8.125 6.89453 9.375L6.89453 11.748C6.89453 12.0703 6.69922 12.2754 6.37695 12.2754Z" fill="var(--color-primary)"/>
 </g>
</svg>
