<svg version="1.1" xmlns="http://www.w3.org/2000/svg" xmlns:xlink="http://www.w3.org/1999/xlink" viewBox="0 0 17.3975 17.1973">
 <g>
  <rect height="17.1973" opacity="0" width="17.3975" x="0" y="0"/>
  <path d="M1.50638 14.1211L3.07865 15.6934L3.94779 14.8242C5.87162 12.8613 8.30326 13.5254 10.3931 11.4355L16.0572 5.76172C17.356 4.47266 17.356 2.42188 16.0669 1.14258C14.7779-0.146484 12.7271-0.146484 11.438 1.14258L5.77396 6.81641C3.5474 9.0332 4.33841 11.3184 2.39506 13.252ZM4.87552 11.2207C5.28568 10.0391 5.58841 8.85742 6.7017 7.74414L12.3755 2.07031C13.147 1.29883 14.3677 1.30859 15.1294 2.07031C15.8911 2.83203 15.9009 4.0625 15.1294 4.83398L9.46537 10.498C8.34232 11.6211 7.20951 11.9629 6.06693 12.4121ZM0.373571 15.2539C-0.134241 15.7617-0.11471 16.3574 0.373571 16.8359C0.852087 17.3145 1.45756 17.3242 1.9556 16.8262L2.30716 16.4844L0.725134 14.9121ZM8.49857 8.7207C8.96732 9.18945 9.72904 9.18945 10.1978 8.71094L12.4634 6.43555C12.9517 5.94727 12.9419 5.19531 12.4634 4.73633C11.9947 4.24805 11.2427 4.26758 10.774 4.73633L8.49857 7.01172C8.02982 7.48047 8.02006 8.24219 8.49857 8.7207ZM9.03568 8.18359C8.8599 7.99805 8.8599 7.73438 9.03568 7.54883L11.3013 5.27344C11.4673 5.10742 11.731 5.09766 11.9165 5.27344C12.1021 5.43945 12.1119 5.71289 11.9361 5.89844L9.67045 8.17383C9.49466 8.34961 9.2017 8.34961 9.03568 8.18359ZM6.91654 9.49219L7.71732 10.2832C7.94193 10.5078 8.24466 10.4688 8.42045 10.293C8.61576 10.1074 8.64506 9.80469 8.42045 9.57031L7.61966 8.7793C7.40482 8.57422 7.10209 8.58398 6.91654 8.7793C6.73099 8.96484 6.69193 9.28711 6.91654 9.49219ZM11.0181 1.95312L15.2564 6.18164L15.9204 5.52734L11.6724 1.2793Z" fill="var(--color-primary)"/>
 </g>
</svg>
