<svg version="1.1" xmlns="http://www.w3.org/2000/svg" xmlns:xlink="http://www.w3.org/1999/xlink" viewBox="0 0 16.1328 15.7715">
 <g>
  <rect height="15.7715" opacity="0" width="16.1328" x="0" y="0"/>
  <path d="M7.88086 15.7617C12.2363 15.7617 15.7715 12.2363 15.7715 7.88086C15.7715 3.52539 12.2363 0 7.88086 0C3.53516 0 0 3.52539 0 7.88086C0 12.2363 3.53516 15.7617 7.88086 15.7617ZM7.88086 14.2773C4.3457 14.2773 1.49414 11.416 1.49414 7.88086C1.49414 4.3457 4.3457 1.48438 7.88086 1.48438C11.416 1.48438 14.2773 4.3457 14.2773 7.88086C14.2773 11.416 11.416 14.2773 7.88086 14.2773Z" fill="var(--color-secondary)"/>
  <path d="M7.88086 10.4785C9.31641 10.4785 10.4883 9.31641 10.4883 7.88086C10.4883 6.44531 9.31641 5.2832 7.88086 5.2832C6.45508 5.2832 5.2832 6.44531 5.2832 7.88086C5.2832 9.31641 6.45508 10.4785 7.88086 10.4785ZM7.89062 4.61914C8.23242 4.61914 8.4668 4.38477 8.4668 4.04297C8.4668 3.71094 8.23242 3.4668 7.89062 3.4668C7.55859 3.4668 7.31445 3.71094 7.31445 4.04297C7.31445 4.38477 7.55859 4.61914 7.89062 4.61914ZM9.81445 5.13672C10.1465 5.13672 10.3906 4.89258 10.3906 4.56055C10.3906 4.21875 10.1465 3.98438 9.81445 3.98438C9.48242 3.98438 9.23828 4.21875 9.23828 4.56055C9.23828 4.89258 9.48242 5.13672 9.81445 5.13672ZM11.2207 6.5332C11.5527 6.5332 11.7969 6.29883 11.7969 5.95703C11.7969 5.625 11.5527 5.38086 11.2207 5.38086C10.8789 5.38086 10.6445 5.625 10.6445 5.95703C10.6445 6.29883 10.8789 6.5332 11.2207 6.5332ZM11.7285 8.45703C12.0605 8.45703 12.3047 8.21289 12.3047 7.88086C12.3047 7.54883 12.0605 7.30469 11.7285 7.30469C11.3965 7.30469 11.1523 7.54883 11.1523 7.88086C11.1523 8.21289 11.3965 8.45703 11.7285 8.45703ZM11.2207 10.3809C11.5527 10.3809 11.7969 10.1367 11.7969 9.80469C11.7969 9.46289 11.5527 9.22852 11.2207 9.22852C10.8789 9.22852 10.6445 9.46289 10.6445 9.80469C10.6445 10.1367 10.8789 10.3809 11.2207 10.3809ZM9.81445 11.7773C10.1465 11.7773 10.3906 11.543 10.3906 11.2012C10.3906 10.8691 10.1465 10.625 9.81445 10.625C9.48242 10.625 9.23828 10.8691 9.23828 11.2012C9.23828 11.543 9.48242 11.7773 9.81445 11.7773ZM7.89062 12.2949C8.23242 12.2949 8.4668 12.0508 8.4668 11.7188C8.4668 11.377 8.23242 11.1426 7.89062 11.1426C7.55859 11.1426 7.31445 11.377 7.31445 11.7188C7.31445 12.0508 7.55859 12.2949 7.89062 12.2949ZM5.97656 11.7773C6.30859 11.7773 6.54297 11.543 6.54297 11.2012C6.54297 10.8691 6.30859 10.625 5.97656 10.625C5.63477 10.625 5.40039 10.8691 5.40039 11.2012C5.40039 11.543 5.63477 11.7773 5.97656 11.7773ZM4.57031 10.3809C4.90234 10.3809 5.14648 10.1367 5.14648 9.80469C5.14648 9.46289 4.90234 9.22852 4.57031 9.22852C4.23828 9.22852 3.99414 9.46289 3.99414 9.80469C3.99414 10.1367 4.23828 10.3809 4.57031 10.3809ZM4.0625 8.45703C4.39453 8.45703 4.63867 8.21289 4.63867 7.88086C4.63867 7.54883 4.39453 7.30469 4.0625 7.30469C3.7207 7.30469 3.48633 7.54883 3.48633 7.88086C3.48633 8.21289 3.7207 8.45703 4.0625 8.45703ZM4.57031 6.5332C4.90234 6.5332 5.14648 6.29883 5.14648 5.95703C5.14648 5.625 4.90234 5.38086 4.57031 5.38086C4.23828 5.38086 3.99414 5.625 3.99414 5.95703C3.99414 6.29883 4.23828 6.5332 4.57031 6.5332ZM5.97656 5.13672C6.30859 5.13672 6.54297 4.89258 6.54297 4.56055C6.54297 4.21875 6.30859 3.98438 5.97656 3.98438C5.63477 3.98438 5.40039 4.21875 5.40039 4.56055C5.40039 4.89258 5.63477 5.13672 5.97656 5.13672Z" fill="var(--color-primary)"/>
 </g>
</svg>
