<svg version="1.1" xmlns="http://www.w3.org/2000/svg" xmlns:xlink="http://www.w3.org/1999/xlink" viewBox="0 0 16.1328 15.7715">
 <g>
  <rect height="15.7715" opacity="0" width="16.1328" x="0" y="0"/>
  <path d="M7.88086 15.7617C12.2363 15.7617 15.7715 12.2266 15.7715 7.88086C15.7715 3.53516 12.2363 0 7.88086 0C3.53516 0 0 3.53516 0 7.88086C0 12.2266 3.53516 15.7617 7.88086 15.7617Z" fill="var(--color-tertiary)"/>
  <path d="M5.70313 7.087L5.70312 7.95898C5.70312 9.23828 6.62109 10.1562 7.88086 10.1562C8.15624 10.1562 8.41507 10.1131 8.65019 10.03L9.34472 10.7236C9.0515 10.8685 8.72373 10.9672 8.36914 11.0156L8.36914 11.6699L9.94141 11.6699C10.1953 11.6699 10.4102 11.8945 10.4102 12.1484C10.4102 12.4023 10.1855 12.6172 9.94141 12.6172L5.83984 12.6172C5.58594 12.6172 5.35156 12.4121 5.35156 12.1484C5.35156 11.8945 5.58594 11.6699 5.83984 11.6699L7.41211 11.6699L7.41211 11.0156C5.83008 10.8105 4.77539 9.59961 4.77539 7.95898L4.77539 6.89453C4.77539 6.7083 4.90608 6.53344 5.07657 6.4613ZM4.60938 4.04297L11.7285 11.1719C11.8848 11.3184 11.8848 11.5625 11.7285 11.7188C11.582 11.8652 11.3281 11.8652 11.1816 11.7188L4.04297 4.58984C3.90625 4.45312 3.90625 4.18945 4.04297 4.04297C4.20898 3.88672 4.45312 3.88672 4.60938 4.04297ZM8.0259 9.4066C7.97857 9.41159 7.93017 9.41406 7.88086 9.41406C7.10938 9.41406 6.57227 8.80859 6.57227 8.00781L6.57227 7.95495ZM10.9863 6.89453L10.9863 7.95898C10.9863 8.45216 10.8919 8.90562 10.7155 9.30344L9.98898 8.57891C10.0416 8.38534 10.0684 8.17743 10.0684 7.95898L10.0684 6.89453C10.0684 6.65039 10.2734 6.42578 10.5273 6.42578C10.7715 6.42578 10.9863 6.65039 10.9863 6.89453ZM9.19922 4.62891L9.19922 7.79131L6.57227 5.17155L6.57227 4.62891C6.57227 3.82812 7.10938 3.24219 7.88086 3.24219C8.65234 3.24219 9.19922 3.82812 9.19922 4.62891Z" fill="var(--color-primary)"/>
 </g>
</svg>
