<svg version="1.1" xmlns="http://www.w3.org/2000/svg" xmlns:xlink="http://www.w3.org/1999/xlink" viewBox="0 0 20.5859 18.4277">
 <g>
  <rect height="18.4277" opacity="0" width="20.5859" x="0" y="0"/>
  <path d="M8.13477 1.40625C8.30078 1.58203 8.30078 1.875 8.14453 2.17773C7.94922 2.56836 7.8125 3.4082 7.8125 4.16016C7.8125 6.95312 9.66797 8.75 12.5586 8.75C13.2715 8.75 13.877 8.65234 14.3848 8.45703C14.668 8.34961 14.9219 8.37891 15.0586 8.52539C15.2441 8.70117 15.2637 8.99414 15.127 9.31641C14.8205 10.0103 14.3998 10.6495 13.8554 11.1816L11.4033 11.1816C12.2168 10.9016 12.8835 10.4322 13.3398 9.95117C13.0273 10 12.627 10.0293 12.2559 10.0293C8.87695 10.0293 6.55273 7.7832 6.55273 4.49219C6.55273 3.96484 6.5918 3.4668 6.68945 3.05664C5.67383 3.99414 5.08789 5.3125 5.08789 6.76758C5.08789 8.89385 6.30064 10.5676 8.17909 11.1816L5.57336 11.1816C4.38106 10.0646 3.76953 8.47411 3.76953 6.875C3.76953 4.35547 5.21484 2.11914 7.35352 1.29883C7.69531 1.17188 7.95898 1.23047 8.13477 1.40625Z" fill="var(--color-secondary)"/>
  <path d="M3.00781 14.7168C3.23242 14.7168 3.41797 14.5312 3.41797 14.2969C3.41797 14.0723 3.23242 13.8867 3.00781 13.8867C2.77344 13.8867 2.58789 14.0723 2.58789 14.2969C2.58789 14.5312 2.77344 14.7168 3.00781 14.7168ZM6.24023 14.7168C6.46484 14.7168 6.65039 14.5312 6.65039 14.2969C6.65039 14.0723 6.46484 13.8867 6.24023 13.8867C6.00586 13.8867 5.82031 14.0723 5.82031 14.2969C5.82031 14.5312 6.00586 14.7168 6.24023 14.7168ZM9.47266 14.7168C9.69727 14.7168 9.88281 14.5312 9.88281 14.2969C9.88281 14.0723 9.69727 13.8867 9.47266 13.8867C9.23828 13.8867 9.05273 14.0723 9.05273 14.2969C9.05273 14.5312 9.23828 14.7168 9.47266 14.7168ZM12.7051 14.7168C12.9297 14.7168 13.1152 14.5312 13.1152 14.2969C13.1152 14.0723 12.9297 13.8867 12.7051 13.8867C12.4707 13.8867 12.2852 14.0723 12.2852 14.2969C12.2852 14.5312 12.4707 14.7168 12.7051 14.7168ZM15.9375 14.7168C16.1621 14.7168 16.3477 14.5312 16.3477 14.2969C16.3477 14.0723 16.1621 13.8867 15.9375 13.8867C15.7031 13.8867 15.5176 14.0723 15.5176 14.2969C15.5176 14.5312 15.7031 14.7168 15.9375 14.7168ZM2.03125 16.5723C2.25586 16.5723 2.44141 16.3867 2.44141 16.1523C2.44141 15.9277 2.25586 15.7422 2.03125 15.7422C1.79688 15.7422 1.61133 15.9277 1.61133 16.1523C1.61133 16.3867 1.79688 16.5723 2.03125 16.5723ZM5.26367 16.5723C5.48828 16.5723 5.67383 16.3867 5.67383 16.1523C5.67383 15.9277 5.48828 15.7422 5.26367 15.7422C5.0293 15.7422 4.84375 15.9277 4.84375 16.1523C4.84375 16.3867 5.0293 16.5723 5.26367 16.5723ZM8.49609 16.5723C8.7207 16.5723 8.90625 16.3867 8.90625 16.1523C8.90625 15.9277 8.7207 15.7422 8.49609 15.7422C8.26172 15.7422 8.07617 15.9277 8.07617 16.1523C8.07617 16.3867 8.26172 16.5723 8.49609 16.5723ZM11.7285 16.5723C11.9531 16.5723 12.1387 16.3867 12.1387 16.1523C12.1387 15.9277 11.9531 15.7422 11.7285 15.7422C11.4941 15.7422 11.3086 15.9277 11.3086 16.1523C11.3086 16.3867 11.4941 16.5723 11.7285 16.5723ZM14.9609 16.5723C15.1855 16.5723 15.3711 16.3867 15.3711 16.1523C15.3711 15.9277 15.1855 15.7422 14.9609 15.7422C14.7266 15.7422 14.541 15.9277 14.541 16.1523C14.541 16.3867 14.7266 16.5723 14.9609 16.5723ZM18.1934 16.5723C18.418 16.5723 18.6035 16.3867 18.6035 16.1523C18.6035 15.9277 18.418 15.7422 18.1934 15.7422C17.959 15.7422 17.7734 15.9277 17.7734 16.1523C17.7734 16.3867 17.959 16.5723 18.1934 16.5723ZM4.28711 18.4277C4.51172 18.4277 4.69727 18.2422 4.69727 18.0078C4.69727 17.7832 4.51172 17.5977 4.28711 17.5977C4.05273 17.5977 3.86719 17.7832 3.86719 18.0078C3.86719 18.2422 4.05273 18.4277 4.28711 18.4277ZM7.51953 18.4277C7.74414 18.4277 7.92969 18.2422 7.92969 18.0078C7.92969 17.7832 7.74414 17.5977 7.51953 17.5977C7.28516 17.5977 7.09961 17.7832 7.09961 18.0078C7.09961 18.2422 7.28516 18.4277 7.51953 18.4277ZM10.752 18.4277C10.9766 18.4277 11.1621 18.2422 11.1621 18.0078C11.1621 17.7832 10.9766 17.5977 10.752 17.5977C10.5176 17.5977 10.332 17.7832 10.332 18.0078C10.332 18.2422 10.5176 18.4277 10.752 18.4277ZM13.9844 18.4277C14.209 18.4277 14.3945 18.2422 14.3945 18.0078C14.3945 17.7832 14.209 17.5977 13.9844 17.5977C13.75 17.5977 13.5645 17.7832 13.5645 18.0078C13.5645 18.2422 13.75 18.4277 13.9844 18.4277ZM17.2168 18.4277C17.4414 18.4277 17.627 18.2422 17.627 18.0078C17.627 17.7832 17.4414 17.5977 17.2168 17.5977C16.9824 17.5977 16.7969 17.7832 16.7969 18.0078C16.7969 18.2422 16.9824 18.4277 17.2168 18.4277ZM2.37305 12.2754L17.8027 12.2754C18.1055 12.2754 18.3398 12.041 18.3398 11.7285C18.3398 11.4258 18.1055 11.1816 17.8027 11.1816L2.37305 11.1816C2.07031 11.1816 1.83594 11.4258 1.83594 11.7285C1.83594 12.041 2.07031 12.2754 2.37305 12.2754Z" fill="var(--color-primary)"/>
 </g>
</svg>
