<svg version="1.1" xmlns="http://www.w3.org/2000/svg" xmlns:xlink="http://www.w3.org/1999/xlink" viewBox="0 0 16.1328 15.7715">
 <g>
  <rect height="15.7715" opacity="0" width="16.1328" x="0" y="0"/>
  <path d="M7.88086 15.7617C12.2363 15.7617 15.7715 12.2363 15.7715 7.88086C15.7715 3.52539 12.2363 0 7.88086 0C3.53516 0 0 3.52539 0 7.88086C0 12.2363 3.53516 15.7617 7.88086 15.7617ZM7.88086 14.2773C4.3457 14.2773 1.49414 11.416 1.49414 7.88086C1.49414 4.3457 4.3457 1.48438 7.88086 1.48438C11.416 1.48438 14.2773 4.3457 14.2773 7.88086C14.2773 11.416 11.416 14.2773 7.88086 14.2773Z" fill="var(--color-secondary)"/>
  <path d="M4.72656 8.54492L10.6348 8.54492C10.7617 8.37891 10.8398 8.19336 10.9277 7.99805C11.0059 7.79297 10.9863 7.62695 10.8789 7.50977C10.8008 7.44141 10.6543 7.42188 10.4785 7.48047C10.1855 7.60742 9.80469 7.65625 9.38477 7.65625C7.65625 7.65625 6.54297 6.58203 6.54297 4.91211C6.54297 4.45312 6.61133 3.94531 6.73828 3.70117C6.83594 3.53516 6.81641 3.36914 6.73828 3.25195C6.65039 3.14453 6.46484 3.11523 6.25977 3.20312C4.99023 3.69141 4.12109 5.01953 4.12109 6.5332C4.12109 7.28516 4.33594 7.96875 4.72656 8.54492ZM3.68164 10.0586L12.0508 10.0586C12.3047 10.0586 12.5488 9.85352 12.5488 9.58984C12.5488 9.32617 12.3145 9.12109 12.0508 9.12109L3.68164 9.12109C3.41797 9.12109 3.18359 9.32617 3.18359 9.58984C3.18359 9.85352 3.42773 10.0586 3.68164 10.0586ZM4.12109 11.4258C4.33594 11.4258 4.51172 11.25 4.51172 11.0352C4.51172 10.8301 4.33594 10.6543 4.12109 10.6543C3.91602 10.6543 3.74023 10.8301 3.74023 11.0352C3.74023 11.25 3.91602 11.4258 4.12109 11.4258ZM5.99609 11.4258C6.21094 11.4258 6.38672 11.25 6.38672 11.0352C6.38672 10.8301 6.21094 10.6543 5.99609 10.6543C5.79102 10.6543 5.61523 10.8301 5.61523 11.0352C5.61523 11.25 5.79102 11.4258 5.99609 11.4258ZM7.87109 11.4258C8.08594 11.4258 8.26172 11.25 8.26172 11.0352C8.26172 10.8301 8.08594 10.6543 7.87109 10.6543C7.66602 10.6543 7.49023 10.8301 7.49023 11.0352C7.49023 11.25 7.66602 11.4258 7.87109 11.4258ZM9.74609 11.4258C9.96094 11.4258 10.1367 11.25 10.1367 11.0352C10.1367 10.8301 9.96094 10.6543 9.74609 10.6543C9.54102 10.6543 9.36523 10.8301 9.36523 11.0352C9.36523 11.25 9.54102 11.4258 9.74609 11.4258ZM11.6309 11.4258C11.8359 11.4258 12.0117 11.25 12.0117 11.0352C12.0117 10.8301 11.8359 10.6543 11.6309 10.6543C11.416 10.6543 11.2402 10.8301 11.2402 11.0352C11.2402 11.25 11.416 11.4258 11.6309 11.4258ZM5.04883 12.4316C5.26367 12.4316 5.43945 12.2656 5.43945 12.0508C5.43945 11.8359 5.26367 11.6699 5.04883 11.6699C4.84375 11.6699 4.66797 11.8359 4.66797 12.0508C4.66797 12.2656 4.84375 12.4316 5.04883 12.4316ZM6.93359 12.4316C7.13867 12.4316 7.31445 12.2656 7.31445 12.0508C7.31445 11.8359 7.13867 11.6699 6.93359 11.6699C6.71875 11.6699 6.54297 11.8359 6.54297 12.0508C6.54297 12.2656 6.71875 12.4316 6.93359 12.4316ZM8.80859 12.4316C9.01367 12.4316 9.18945 12.2656 9.18945 12.0508C9.18945 11.8359 9.01367 11.6699 8.80859 11.6699C8.59375 11.6699 8.41797 11.8359 8.41797 12.0508C8.41797 12.2656 8.59375 12.4316 8.80859 12.4316ZM10.6836 12.4316C10.8887 12.4316 11.0645 12.2656 11.0645 12.0508C11.0645 11.8359 10.8887 11.6699 10.6836 11.6699C10.4688 11.6699 10.293 11.8359 10.293 12.0508C10.293 12.2656 10.4688 12.4316 10.6836 12.4316Z" fill="var(--color-primary)"/>
 </g>
</svg>
