<svg version="1.1" xmlns="http://www.w3.org/2000/svg" xmlns:xlink="http://www.w3.org/1999/xlink" viewBox="0 0 21.0645 17.8809">
 <g>
  <rect height="17.8809" opacity="0" width="21.0645" x="0" y="0"/>
  <path d="M8.97461 1.13281C9.14062 1.30859 9.14062 1.60156 8.98438 1.9043C8.78906 2.29492 8.65234 3.13477 8.65234 3.88672C8.65234 6.67969 10.5078 8.47656 13.3984 8.47656C14.1211 8.47656 14.7266 8.37891 15.2246 8.18359C15.5078 8.07617 15.7617 8.10547 15.8984 8.25195C16.084 8.42773 16.1133 8.7207 15.9668 9.04297C15.6604 9.73684 15.2396 10.3761 14.6952 10.9082L12.2431 10.9082C13.0566 10.6282 13.7233 10.1588 14.1797 9.67773C13.8672 9.72656 13.4668 9.75586 13.0957 9.75586C9.7168 9.75586 7.39258 7.50977 7.39258 4.21875C7.39258 3.69141 7.43164 3.19336 7.5293 2.7832C6.51367 3.7207 5.92773 5.03906 5.92773 6.49414C5.92773 8.62041 7.14049 10.2942 9.01893 10.9082L6.41321 10.9082C5.22091 9.79116 4.60938 8.20067 4.60938 6.60156C4.60938 4.08203 6.05469 1.8457 8.19336 1.02539C8.53516 0.898438 8.80859 0.957031 8.97461 1.13281Z" fill="var(--color-secondary)"/>
  <path d="M2.06055 14.9414L17.4902 14.9414C17.793 14.9414 18.0273 14.707 18.0273 14.3945C18.0273 14.0918 17.793 13.8477 17.4902 13.8477L2.06055 13.8477C1.75781 13.8477 1.52344 14.0918 1.52344 14.3945C1.52344 14.707 1.75781 14.9414 2.06055 14.9414ZM3.21289 17.8809L18.6426 17.8809C18.9453 17.8809 19.1797 17.6465 19.1797 17.334C19.1797 17.0312 18.9453 16.7871 18.6426 16.7871L3.21289 16.7871C2.91016 16.7871 2.67578 17.0312 2.67578 17.334C2.67578 17.6465 2.91016 17.8809 3.21289 17.8809ZM3.21289 12.002L18.6426 12.002C18.9453 12.002 19.1797 11.7676 19.1797 11.4551C19.1797 11.1523 18.9453 10.9082 18.6426 10.9082L3.21289 10.9082C2.91016 10.9082 2.67578 11.1523 2.67578 11.4551C2.67578 11.7676 2.91016 12.002 3.21289 12.002Z" fill="var(--color-primary)"/>
 </g>
</svg>
