<svg version="1.1" xmlns="http://www.w3.org/2000/svg" xmlns:xlink="http://www.w3.org/1999/xlink" viewBox="0 0 16.1328 15.7715">
 <g>
  <rect height="15.7715" opacity="0" width="16.1328" x="0" y="0"/>
  <path d="M7.88086 15.7715C12.2363 15.7715 15.7715 12.2363 15.7715 7.89062C15.7715 3.54492 12.2363 0.00976562 7.88086 0.00976562C3.53516 0.00976562 0 3.54492 0 7.89062C0 12.2363 3.53516 15.7715 7.88086 15.7715Z" fill="var(--color-tertiary)"/>
  <path d="M4.60938 8.58398C4.20898 7.98828 3.99414 7.28516 3.99414 6.49414C3.99414 4.92188 4.88281 3.53516 6.20117 3.03711C6.41602 2.94922 6.61133 2.97852 6.69922 3.08594C6.78711 3.21289 6.80664 3.38867 6.69922 3.55469C6.57227 3.80859 6.50391 4.32617 6.50391 4.81445C6.50391 6.54297 7.65625 7.65625 9.45312 7.65625C9.89258 7.65625 10.2832 7.60742 10.5957 7.48047C10.7617 7.41211 10.918 7.43164 11.0059 7.50977C11.1133 7.63672 11.1328 7.80273 11.0547 8.00781C10.957 8.22266 10.8789 8.39844 10.7422 8.58398ZM3.53516 10.1562C3.27148 10.1562 3.01758 9.93164 3.01758 9.6582C3.01758 9.38477 3.26172 9.17969 3.53516 9.17969L12.2168 9.17969C12.4902 9.17969 12.7344 9.38477 12.7344 9.6582C12.7344 9.93164 12.4805 10.1562 12.2168 10.1562ZM3.99414 11.5723C3.76953 11.5723 3.59375 11.3867 3.59375 11.1719C3.59375 10.9473 3.76953 10.7715 3.99414 10.7715C4.21875 10.7715 4.38477 10.9473 4.38477 11.1719C4.38477 11.3867 4.21875 11.5723 3.99414 11.5723ZM5.9375 11.5723C5.71289 11.5723 5.53711 11.3867 5.53711 11.1719C5.53711 10.9473 5.71289 10.7715 5.9375 10.7715C6.15234 10.7715 6.33789 10.9473 6.33789 11.1719C6.33789 11.3867 6.15234 11.5723 5.9375 11.5723ZM7.88086 11.5723C7.66602 11.5723 7.48047 11.3867 7.48047 11.1719C7.48047 10.9473 7.66602 10.7715 7.88086 10.7715C8.10547 10.7715 8.29102 10.9473 8.29102 11.1719C8.29102 11.3867 8.10547 11.5723 7.88086 11.5723ZM9.83398 11.5723C9.60938 11.5723 9.43359 11.3867 9.43359 11.1719C9.43359 10.9473 9.60938 10.7715 9.83398 10.7715C10.0586 10.7715 10.2246 10.9473 10.2246 11.1719C10.2246 11.3867 10.0586 11.5723 9.83398 11.5723ZM11.7773 11.5723C11.5625 11.5723 11.377 11.3867 11.377 11.1719C11.377 10.9473 11.5625 10.7715 11.7773 10.7715C11.9922 10.7715 12.1777 10.9473 12.1777 11.1719C12.1777 11.3867 11.9922 11.5723 11.7773 11.5723ZM4.95117 12.6172C4.73633 12.6172 4.56055 12.4414 4.56055 12.2168C4.56055 12.0117 4.73633 11.8262 4.95117 11.8262C5.17578 11.8262 5.35156 12.0117 5.35156 12.2168C5.35156 12.4414 5.17578 12.6172 4.95117 12.6172ZM6.9043 12.6172C6.67969 12.6172 6.50391 12.4414 6.50391 12.2168C6.50391 12.0117 6.67969 11.8262 6.9043 11.8262C7.11914 11.8262 7.30469 12.0117 7.30469 12.2168C7.30469 12.4414 7.11914 12.6172 6.9043 12.6172ZM8.84766 12.6172C8.63281 12.6172 8.44727 12.4414 8.44727 12.2168C8.44727 12.0117 8.63281 11.8262 8.84766 11.8262C9.07227 11.8262 9.24805 12.0117 9.24805 12.2168C9.24805 12.4414 9.07227 12.6172 8.84766 12.6172ZM10.8008 12.6172C10.5762 12.6172 10.4004 12.4414 10.4004 12.2168C10.4004 12.0117 10.5762 11.8262 10.8008 11.8262C11.0156 11.8262 11.1914 12.0117 11.1914 12.2168C11.1914 12.4414 11.0156 12.6172 10.8008 12.6172Z" fill="var(--color-primary)"/>
 </g>
</svg>
