<svg version="1.1" xmlns="http://www.w3.org/2000/svg" xmlns:xlink="http://www.w3.org/1999/xlink" viewBox="0 0 16.1328 15.7715">
 <g>
  <rect height="15.7715" opacity="0" width="16.1328" x="0" y="0"/>
  <path d="M15.7715 7.89062C15.7715 12.2363 12.2363 15.7715 7.88086 15.7715C3.53516 15.7715 0 12.2363 0 7.89062C0 3.54492 3.53516 0.00976562 7.88086 0.00976562C12.2363 0.00976562 15.7715 3.54492 15.7715 7.89062ZM7.94922 7.53906C7.39258 7.53906 7.01172 6.95312 6.70898 7.1582L5.03906 9.33594C4.72656 9.75586 4.87305 10.4004 5.51758 10.4004L12.6074 10.4004C13.252 10.4004 13.4082 9.75586 13.0762 9.33594L11.4062 7.1582C11.1133 6.95312 10.7227 7.53906 10.166 7.53906C9.58984 7.53906 9.35547 7.10938 9.0625 7.10938C8.76953 7.10938 8.54492 7.53906 7.94922 7.53906ZM5.15625 6.24023L2.72461 9.26758C2.34375 9.74609 2.49023 10.4004 3.17383 10.4004L4.39453 10.4004C4.17969 9.98047 4.19922 9.4043 4.53125 8.96484L6.51367 6.39648L6.37695 6.24023C6.00586 5.79102 5.52734 5.79102 5.15625 6.24023ZM8.44727 4.87305L7.08008 6.66992C7.49023 6.75781 7.71484 7.07031 7.94922 7.07031C8.23242 7.07031 8.51562 6.63086 9.0625 6.63086C9.60938 6.63086 9.88281 7.07031 10.166 7.07031C10.4004 7.07031 10.6348 6.75781 11.0547 6.66992L9.6875 4.87305C9.33594 4.4043 8.80859 4.39453 8.44727 4.87305Z" fill="var(--color-primary)"/>
 </g>
</svg>
