<svg version="1.1" xmlns="http://www.w3.org/2000/svg" xmlns:xlink="http://www.w3.org/1999/xlink" viewBox="0 0 19.0137 16.2793">
 <g>
  <rect height="16.2793" opacity="0" width="19.0137" x="0" y="0"/>
  <path d="M2.50977 14.502C2.50977 15.6152 3.18359 16.2695 4.31641 16.2695L14.3359 16.2695C15.4688 16.2695 16.1426 15.6152 16.1426 14.502L16.1426 8.73047L9.77539 3.39844C9.50195 3.16406 9.14062 3.17383 8.87695 3.39844L2.50977 8.73047ZM0.761719 8.42773C1.00586 8.42773 1.21094 8.29102 1.38672 8.14453L9.07227 1.68945C9.15039 1.62109 9.24805 1.5918 9.32617 1.5918C9.4043 1.5918 9.49219 1.62109 9.57031 1.68945L17.2656 8.14453C17.4414 8.29102 17.6465 8.42773 17.8906 8.42773C18.3691 8.42773 18.6523 8.08594 18.6523 7.72461C18.6523 7.5293 18.5645 7.31445 18.3789 7.1582L10.3027 0.380859C9.99023 0.126953 9.6582 0 9.32617 0C8.99414 0 8.65234 0.126953 8.34961 0.380859L0.273438 7.1582C0.0878906 7.31445 0 7.5293 0 7.72461C0 8.08594 0.283203 8.42773 0.761719 8.42773ZM14.2188 4.02344L16.3281 5.80078L16.3281 2.26562C16.3281 1.89453 16.084 1.66016 15.7129 1.66016L14.834 1.66016C14.4727 1.66016 14.2188 1.89453 14.2188 2.26562Z" fill="var(--color-tertiary)"/>
  <path d="M11.3184 9.20898L9.56055 9.63867C9.39453 9.67773 9.32617 9.73633 9.32617 10.0195L9.32617 12.5C9.32617 13.5938 8.58398 14.3652 7.50977 14.3652C6.75781 14.3652 6.26953 13.8965 6.26953 13.2617C6.26953 12.5195 6.8457 12.1094 7.5293 11.9336L8.21289 11.7578C8.59375 11.6602 8.62305 11.5918 8.62305 11.25L8.62305 7.95898C8.62305 7.51953 8.70117 7.44141 9.07227 7.34375L11.2891 6.78711C11.6895 6.68945 11.7871 6.81641 11.7871 7.10938L11.7871 8.60352C11.7871 9.04297 11.6797 9.12109 11.3184 9.20898Z" fill="var(--color-primary)"/>
 </g>
</svg>
