<svg version="1.1" xmlns="http://www.w3.org/2000/svg" xmlns:xlink="http://www.w3.org/1999/xlink" viewBox="0 0 14.5898 14.248">
 <g>
  <rect height="14.248" opacity="0" width="14.5898" x="0" y="0"/>
  <path d="M2.49023 14.248L11.7383 14.248C13.4082 14.248 14.2285 13.4277 14.2285 11.7871L14.2285 2.4707C14.2285 0.830078 13.4082 0.00976562 11.7383 0.00976562L2.49023 0.00976562C0.830078 0.00976562 0 0.830078 0 2.4707L0 11.7871C0 13.4277 0.830078 14.248 2.49023 14.248Z" fill="var(--color-tertiary)"/>
  <path d="M5.04883 10.8301C4.75586 10.8301 4.55078 10.6152 4.55078 10.3125L4.55078 7.41211L4.15039 7.41211C3.98438 7.41211 3.84766 7.28516 3.84766 7.10938C3.84766 6.94336 3.98438 6.81641 4.15039 6.81641L4.55078 6.81641L4.55078 4.05273C4.55078 3.66211 4.82422 3.38867 5.22461 3.38867C5.57617 3.38867 5.82031 3.58398 5.9668 3.89648L7.38281 6.81641L8.51562 6.81641L8.51562 3.89648C8.51562 3.58398 8.70117 3.38867 9.00391 3.38867C9.30664 3.38867 9.51172 3.58398 9.51172 3.89648L9.51172 6.81641L9.91211 6.81641C10.0781 6.81641 10.2148 6.94336 10.2148 7.10938C10.2148 7.28516 10.0781 7.41211 9.91211 7.41211L9.51172 7.41211L9.51172 10.166C9.51172 10.4785 9.31641 10.8301 8.82812 10.8301C8.47656 10.8301 8.24219 10.625 8.08594 10.3223L6.66992 7.41211L5.54688 7.41211L5.54688 10.3125C5.54688 10.6152 5.3418 10.8301 5.04883 10.8301ZM5.54688 6.81641L6.38672 6.81641L5.58594 5.18555L5.54688 5.18555ZM7.66602 7.41211L8.4668 9.05273L8.51562 9.05273L8.51562 7.41211Z" fill="var(--color-primary)"/>
 </g>
</svg>
