<svg version="1.1" xmlns="http://www.w3.org/2000/svg" xmlns:xlink="http://www.w3.org/1999/xlink" viewBox="0 0 16.1328 15.7715">
 <g>
  <rect height="15.7715" opacity="0" width="16.1328" x="0" y="0"/>
  <path d="M15.7715 7.88086C15.7715 12.2266 12.2363 15.7617 7.88086 15.7617C3.53516 15.7617 0 12.2266 0 7.88086C0 3.53516 3.53516 0 7.88086 0C12.2363 0 15.7715 3.53516 15.7715 7.88086ZM9.60938 4.39453L8.64258 5.71289L4.9707 5.71289C4.49219 5.71289 4.17969 5.94727 4.17969 6.41602C4.17969 6.875 4.50195 7.09961 4.9707 7.09961L7.62695 7.09961L6.46484 8.68164L4.9707 8.68164C4.49219 8.68164 4.17969 8.91602 4.17969 9.38477C4.17969 9.84375 4.50195 10.0684 4.9707 10.0684L5.43945 10.0684L5.0293 10.6445C4.73633 11.0254 4.75586 11.416 5.12695 11.6895C5.49805 11.9629 5.87891 11.8457 6.15234 11.4551L7.16797 10.0684L10.7812 10.0684C11.25 10.0684 11.582 9.84375 11.582 9.38477C11.582 8.91602 11.2695 8.68164 10.7812 8.68164L8.18359 8.68164L9.3457 7.09961L10.7812 7.09961C11.25 7.09961 11.582 6.875 11.582 6.41602C11.582 5.94727 11.2695 5.71289 10.7812 5.71289L10.3613 5.71289L10.7227 5.21484C11.0059 4.83398 11.0156 4.44336 10.6445 4.16992C10.2539 3.89648 9.89258 4.00391 9.60938 4.39453Z" fill="var(--color-primary)"/>
 </g>
</svg>
