<svg version="1.1" xmlns="http://www.w3.org/2000/svg" xmlns:xlink="http://www.w3.org/1999/xlink" viewBox="0 0 16.1328 15.7715">
 <g>
  <rect height="15.7715" opacity="0" width="16.1328" x="0" y="0"/>
  <path d="M7.88086 15.7617C12.2363 15.7617 15.7715 12.2266 15.7715 7.88086C15.7715 3.53516 12.2363 0 7.88086 0C3.53516 0 0 3.53516 0 7.88086C0 12.2266 3.53516 15.7617 7.88086 15.7617Z" fill="var(--color-tertiary)"/>
  <path d="M11.3086 4.50195C11.4355 4.61914 11.4258 4.79492 11.3086 4.91211C11.1914 5.03906 10.9961 5.04883 10.8789 4.91211L10.7129 4.74609L8.29102 7.1582L9.11133 7.96875L9.67773 8.06641C9.95117 8.11523 10.2051 8.25195 10.4785 8.52539L12.1484 10.1953C12.4023 10.4395 12.3242 10.8789 11.9531 11.2402C11.5918 11.6113 11.1523 11.6895 10.9082 11.4355L9.23828 9.76562C8.96484 9.48242 8.83789 9.23828 8.78906 8.96484L8.70117 8.4082L7.88086 7.57812L7.04102 8.4082L6.95312 8.96484C6.9043 9.23828 6.77734 9.48242 6.50391 9.76562L4.83398 11.4355C4.58984 11.6895 4.15039 11.6113 3.78906 11.2402C3.41797 10.8789 3.33984 10.4395 3.59375 10.1953L5.26367 8.52539C5.53711 8.25195 5.79102 8.11523 6.06445 8.06641L6.63086 7.96875L7.45117 7.1582L5.0293 4.74609L4.86328 4.91211C4.74609 5.04883 4.56055 5.03906 4.43359 4.91211C4.31641 4.79492 4.30664 4.61914 4.43359 4.50195L5.22461 3.7207C5.33203 3.59375 5.51758 3.60352 5.625 3.7207C5.75195 3.83789 5.76172 4.0332 5.625 4.14062L5.45898 4.32617L7.88086 6.72852L10.2832 4.32617L10.1172 4.14062C9.98047 4.0332 9.99023 3.83789 10.1172 3.7207C10.2246 3.60352 10.4102 3.59375 10.5273 3.7207Z" fill="var(--color-primary)"/>
 </g>
</svg>
