<svg version="1.1" xmlns="http://www.w3.org/2000/svg" xmlns:xlink="http://www.w3.org/1999/xlink" viewBox="0 0 15.8008 13.7012">
 <g>
  <rect height="13.7012" opacity="0" width="15.8008" x="0" y="0"/>
  <path d="M2.53906 13.7012L11.4648 13.7012C14.0723 13.7012 14.9902 12.3828 15.3027 9.70703C15.498 8.01758 15.498 6.33789 15.2344 4.0625C14.9121 1.2207 13.2715-0.00976562 10.2246 0.3125L2.8125 1.15234C0.986328 1.35742 0 2.40234 0 4.12109L0 11.1914C0 12.7734 0.947266 13.7012 2.53906 13.7012Z" fill="var(--color-tertiary)"/>
  <path d="M3.49609 5.35156C3.16406 5.35156 2.90039 5.08789 2.90039 4.77539C2.90039 4.44336 3.16406 4.17969 3.49609 4.17969L11.8164 4.17969C12.1484 4.17969 12.4121 4.44336 12.4121 4.77539C12.4121 5.08789 12.1484 5.35156 11.8164 5.35156ZM3.49609 7.98828C3.16406 7.98828 2.90039 7.72461 2.90039 7.40234C2.90039 7.08008 3.16406 6.81641 3.49609 6.81641L11.8164 6.81641C12.1484 6.81641 12.4121 7.08008 12.4121 7.40234C12.4121 7.72461 12.1484 7.98828 11.8164 7.98828ZM3.49609 10.625C3.16406 10.625 2.90039 10.3613 2.90039 10.0293C2.90039 9.7168 3.16406 9.45312 3.49609 9.45312L11.8164 9.45312C12.1484 9.45312 12.4121 9.7168 12.4121 10.0293C12.4121 10.3613 12.1484 10.625 11.8164 10.625Z" fill="var(--color-primary)"/>
 </g>
</svg>
