<svg version="1.1" xmlns="http://www.w3.org/2000/svg" xmlns:xlink="http://www.w3.org/1999/xlink" viewBox="0 0 21.9659 15.8488">
 <g>
  <rect height="15.8488" opacity="0" width="21.9659" x="0" y="0"/>
  <path d="M0.167517 13.8375C0.860876 16.1324 4.30814 16.4937 8.01908 14.7652L7.56986 13.8179C4.49369 15.2632 1.63236 15.0972 1.17338 13.5445C-0.037561 9.60895 8.4976 9.24762 7.48197 5.81989C6.98392 4.13044 3.16556 4.39411 0.431189 6.23981C-0.17428 6.63044 0.411658 7.49958 1.00736 7.08942C2.93119 5.81989 6.24174 5.31208 6.48588 6.10309C6.66166 6.71833 6.15385 7.19684 4.05424 8.33942C1.99369 9.4527-0.701624 11.0054 0.167517 13.8375Z" fill="var(--color-secondary)"/>
  <path d="M11.2417 13.3687L19.357 5.27301L17.8921 3.80817L9.77689 11.9039L9.064 13.6715C8.98588 13.8765 9.20072 14.1109 9.4058 14.0328ZM20.0601 4.57965L20.8902 3.76911C21.3003 3.35895 21.3296 2.90973 20.9488 2.53864L20.646 2.22614C20.2749 1.85505 19.8257 1.89411 19.4156 2.2945L18.5757 3.10505Z" fill="var(--color-primary)"/>
 </g>
</svg>
