<svg version="1.1" xmlns="http://www.w3.org/2000/svg" xmlns:xlink="http://www.w3.org/1999/xlink" viewBox="0 0 16.1328 15.7715">
 <g>
  <rect height="15.7715" opacity="0" width="16.1328" x="0" y="0"/>
  <path d="M7.88086 15.7715C12.2363 15.7715 15.7715 12.2363 15.7715 7.89062C15.7715 3.54492 12.2363 0.00976562 7.88086 0.00976562C3.53516 0.00976562 0 3.54492 0 7.89062C0 12.2363 3.53516 15.7715 7.88086 15.7715Z" fill="var(--color-tertiary)"/>
  <path d="M5.41992 11.3477L4.28711 11.7383C4.08203 11.8066 3.86719 11.6211 3.96484 11.3965L4.39453 10.3125L9.42383 5.29297L10.459 6.32812ZM10.9766 5.81055L9.94141 4.77539L10.5762 4.15039C10.8594 3.87695 11.1719 3.84766 11.4258 4.11133L11.6406 4.32617C11.8945 4.58008 11.8848 4.90234 11.6016 5.18555Z" fill="var(--color-primary)"/>
 </g>
</svg>
