<svg version="1.1" xmlns="http://www.w3.org/2000/svg" xmlns:xlink="http://www.w3.org/1999/xlink" viewBox="0 0 18.4766 14.248">
 <g>
  <rect height="14.248" opacity="0" width="18.4766" x="0" y="0"/>
  <path d="M2.49023 14.248L15.625 14.248C17.2949 14.248 18.1152 13.4277 18.1152 11.7871L18.1152 2.4707C18.1152 0.830078 17.2949 0.00976562 15.625 0.00976562L2.49023 0.00976562C0.830078 0.00976562 0 0.830078 0 2.4707L0 11.7871C0 13.4277 0.830078 14.248 2.49023 14.248Z" fill="var(--color-tertiary)"/>
  <path d="M3.93555 12.9395C4.60938 11.0156 6.61133 9.73633 9.0625 9.73633C11.5137 9.73633 13.5156 11.0156 14.1797 12.9395ZM9.0625 8.44727C7.58789 8.42773 6.43555 7.2168 6.42578 5.56641C6.41602 4.01367 7.58789 2.74414 9.0625 2.74414C10.5273 2.74414 11.6895 4.01367 11.6895 5.56641C11.6895 7.2168 10.5273 8.4668 9.0625 8.44727Z" fill="var(--color-primary)"/>
 </g>
</svg>
