<svg version="1.1" xmlns="http://www.w3.org/2000/svg" xmlns:xlink="http://www.w3.org/1999/xlink" viewBox="0 0 16.1328 15.7715">
 <g>
  <rect height="15.7715" opacity="0" width="16.1328" x="0" y="0"/>
  <path d="M7.88086 15.7617C12.2363 15.7617 15.7715 12.2363 15.7715 7.88086C15.7715 3.52539 12.2363 0 7.88086 0C3.53516 0 0 3.52539 0 7.88086C0 12.2363 3.53516 15.7617 7.88086 15.7617ZM7.88086 14.2773C4.3457 14.2773 1.49414 11.416 1.49414 7.88086C1.49414 4.3457 4.3457 1.48438 7.88086 1.48438C11.416 1.48438 14.2773 4.3457 14.2773 7.88086C14.2773 11.416 11.416 14.2773 7.88086 14.2773Z" fill="var(--color-secondary)"/>
  <path d="M6.10352 10.7422C7.42188 10.7422 8.01758 9.93164 8.01758 8.94531C8.01758 7.89062 7.38281 7.5 6.5625 7.19727L6.11328 7.03125C5.5957 6.83594 5.23438 6.61133 5.23438 6.05469C5.23438 5.57617 5.51758 5.19531 6.06445 5.19531C6.52344 5.19531 6.86523 5.44922 7.01172 5.98633C7.08008 6.2207 7.23633 6.31836 7.4707 6.31836C7.71484 6.31836 7.87109 6.14258 7.87109 5.89844C7.87109 5.83984 7.86133 5.75195 7.8418 5.67383C7.64648 4.86328 6.95312 4.38477 6.07422 4.38477C4.89258 4.38477 4.27734 5.18555 4.27734 6.11328C4.27734 7.03125 4.83398 7.55859 5.69336 7.86133L6.14258 8.01758C6.66992 8.20312 7.06055 8.47656 7.06055 9.0332C7.06055 9.54102 6.70898 9.92188 6.12305 9.92188C5.58594 9.92188 5.23438 9.6582 5.09766 9.12109C5.0293 8.88672 4.88281 8.7793 4.64844 8.7793C4.4043 8.7793 4.22852 8.97461 4.22852 9.23828C4.22852 9.33594 4.23828 9.45312 4.26758 9.53125C4.54102 10.332 5.20508 10.7422 6.10352 10.7422ZM8.57422 12.1582C8.82812 12.1582 8.96484 12.0215 9.01367 11.7383L10.1465 5.04883C10.1562 5 10.1758 4.90234 10.1758 4.79492C10.1758 4.56055 10.0195 4.38477 9.76562 4.38477C9.51172 4.38477 9.38477 4.53125 9.33594 4.81445L8.19336 11.4941C8.18359 11.543 8.17383 11.6406 8.17383 11.748C8.17383 11.9922 8.33008 12.1582 8.57422 12.1582ZM11.2109 10.6641C11.543 10.6641 11.7969 10.4102 11.7969 10.0879C11.7969 9.76562 11.543 9.51172 11.2109 9.51172C10.8789 9.51172 10.6348 9.76562 10.6348 10.0879C10.6348 10.4102 10.8789 10.6641 11.2109 10.6641Z" fill="var(--color-primary)"/>
 </g>
</svg>
