<svg version="1.1" xmlns="http://www.w3.org/2000/svg" xmlns:xlink="http://www.w3.org/1999/xlink" viewBox="0 0 16.1328 15.7715">
 <g>
  <rect height="15.7715" opacity="0" width="16.1328" x="0" y="0"/>
  <path d="M15.7715 7.88086C15.7715 12.2266 12.2363 15.7617 7.88086 15.7617C3.53516 15.7617 0 12.2266 0 7.88086C0 3.53516 3.53516 0 7.88086 0C12.2363 0 15.7715 3.53516 15.7715 7.88086ZM9.38477 4.67773L8.20312 11.6113C8.19336 11.6602 8.17383 11.7676 8.17383 11.8848C8.17383 12.1289 8.33984 12.3047 8.59375 12.3047C8.85742 12.3047 9.00391 12.1582 9.05273 11.8652L10.2344 4.93164C10.2441 4.88281 10.2637 4.77539 10.2637 4.66797C10.2637 4.41406 10.0879 4.23828 9.83398 4.23828C9.57031 4.23828 9.43359 4.39453 9.38477 4.67773ZM4.14062 6.03516C4.14062 6.99219 4.70703 7.5293 5.60547 7.8418L6.07422 8.00781C6.62109 8.20312 7.03125 8.48633 7.03125 9.0625C7.03125 9.58984 6.66992 9.99023 6.04492 9.99023C5.49805 9.99023 5.13672 9.70703 4.98047 9.15039C4.92188 8.90625 4.75586 8.79883 4.52148 8.79883C4.26758 8.79883 4.07227 8.99414 4.07227 9.26758C4.07227 9.36523 4.10156 9.50195 4.13086 9.58008C4.41406 10.4004 5.08789 10.8301 6.02539 10.8301C7.40234 10.8301 8.01758 10 8.01758 8.97461C8.01758 7.87109 7.35352 7.4707 6.50391 7.1582L6.03516 6.98242C5.49805 6.78711 5.12695 6.54297 5.12695 5.9668C5.12695 5.47852 5.41992 5.08789 5.99609 5.08789C6.47461 5.08789 6.82617 5.3418 6.97266 5.89844C7.04102 6.14258 7.2168 6.24023 7.45117 6.24023C7.70508 6.24023 7.86133 6.06445 7.86133 5.81055C7.86133 5.75195 7.85156 5.66406 7.83203 5.57617C7.63672 4.73633 6.92383 4.23828 6.00586 4.23828C4.77539 4.23828 4.14062 5.06836 4.14062 6.03516ZM10.7324 10.1562C10.7324 10.498 10.9961 10.752 11.3281 10.752C11.6797 10.752 11.9434 10.498 11.9434 10.1562C11.9434 9.82422 11.6797 9.55078 11.3281 9.55078C10.9961 9.55078 10.7324 9.82422 10.7324 10.1562Z" fill="var(--color-primary)"/>
 </g>
</svg>
