<svg version="1.1" xmlns="http://www.w3.org/2000/svg" xmlns:xlink="http://www.w3.org/1999/xlink" viewBox="0 0 17.7734 16.5527">
 <g>
  <rect height="16.5527" opacity="0" width="17.7734" x="0" y="0"/>
  <path d="M1.10352 14.541L16.3184 14.541L16.3184 13.9746C16.3184 13.623 16.1133 13.418 15.752 13.418L15.2637 13.418L15.2637 5.42969L15.918 5.42969C16.3965 5.42969 16.6797 5.07812 16.6797 4.72656C16.6797 4.46289 16.5234 4.23828 16.2109 4.04297L9.6875 0.283203C9.375 0.0976562 9.0332 0 8.71094 0C8.37891 0 8.03711 0.0976562 7.72461 0.283203L1.20117 4.04297C0.878906 4.23828 0.732422 4.46289 0.732422 4.72656C0.732422 5.07812 1.01562 5.42969 1.49414 5.42969L2.1582 5.42969L2.1582 13.418L1.66992 13.418C1.30859 13.418 1.10352 13.623 1.10352 13.9746ZM3.47656 13.418L3.47656 4.375L8.44727 1.60156C8.52539 1.55273 8.62305 1.52344 8.71094 1.52344C8.78906 1.52344 8.88672 1.55273 8.96484 1.60156L13.9551 4.375L13.9551 13.418ZM0.703125 16.543L16.709 16.543C17.0898 16.543 17.4121 16.2207 17.4121 15.8301C17.4121 15.4492 17.0898 15.127 16.709 15.127L0.703125 15.127C0.322266 15.127 0 15.4492 0 15.8301C0 16.2207 0.322266 16.543 0.703125 16.543Z" fill="var(--color-secondary)"/>
  <path d="M7.16797 11.6406C7.48047 11.6406 7.67578 11.4453 7.67578 11.1426L7.67578 9.35547L9.05273 9.35547C10.4688 9.35547 11.3672 8.29102 11.3672 6.95312C11.3672 5.67383 10.5273 4.57031 9.07227 4.57031L7.17773 4.57031C6.86523 4.57031 6.67969 4.77539 6.67969 5.08789L6.67969 11.1426C6.67969 11.4453 6.86523 11.6406 7.16797 11.6406ZM7.67578 8.52539L7.67578 5.40039L8.82812 5.40039C9.77539 5.40039 10.3516 5.95703 10.3516 6.95312C10.3516 7.91992 9.79492 8.52539 8.82812 8.52539ZM5.88867 6.34766C5.88867 6.51367 6.01562 6.63086 6.18164 6.63086L11.6895 6.63086C11.8555 6.63086 11.9824 6.50391 11.9824 6.34766C11.9824 6.20117 11.8555 6.07422 11.6895 6.07422L6.18164 6.07422C6.01562 6.07422 5.88867 6.20117 5.88867 6.34766ZM5.88867 7.57812C5.88867 7.73438 6.01562 7.85156 6.18164 7.85156L11.6895 7.85156C11.8555 7.85156 11.9824 7.72461 11.9824 7.57812C11.9824 7.42188 11.8555 7.30469 11.6895 7.30469L6.18164 7.30469C6.01562 7.30469 5.88867 7.42188 5.88867 7.57812Z" fill="var(--color-primary)"/>
 </g>
</svg>
