<svg version="1.1" xmlns="http://www.w3.org/2000/svg" xmlns:xlink="http://www.w3.org/1999/xlink" viewBox="0 0 10.5176 16.4941">
 <g>
  <rect height="16.4941" opacity="0" width="10.5176" x="0" y="0"/>
  <path d="M0 14.4531C0 15.6445 0.878906 16.4746 2.13867 16.4746L8.00781 16.4746C9.26758 16.4746 10.1562 15.6445 10.1562 14.4531L10.1562 2.02148C10.1562 0.830078 9.26758 0 8.00781 0L2.13867 0C0.878906 0 0 0.830078 0 2.02148ZM1.40625 14.209L1.40625 2.26562C1.40625 1.72852 1.75781 1.40625 2.32422 1.40625L7.82227 1.40625C8.39844 1.40625 8.74023 1.72852 8.74023 2.26562L8.74023 14.209C8.74023 14.7461 8.39844 15.0684 7.82227 15.0684L2.32422 15.0684C1.75781 15.0684 1.40625 14.7461 1.40625 14.209Z" fill="var(--color-secondary)"/>
  <path d="M3.05664 14.0918L7.08984 14.0918C7.49023 14.0918 7.76367 13.8184 7.76367 13.3984L7.76367 12.4512C7.76367 12.0312 7.49023 11.7578 7.08984 11.7578L3.05664 11.7578C2.65625 11.7578 2.38281 12.0312 2.38281 12.4512L2.38281 13.3984C2.38281 13.8184 2.65625 14.0918 3.05664 14.0918Z" fill="var(--color-primary)"/>
  <path d="M3.00781 9.10156C3.00781 9.21875 3.03711 9.33594 3.11523 9.42383L4.7168 11.0059C4.82422 11.1035 4.95117 11.1621 5.07812 11.1621C5.19531 11.1621 5.33203 11.1035 5.42969 11.0059L7.03125 9.42383C7.11914 9.33594 7.14844 9.21875 7.14844 9.10156C7.14844 8.82812 6.96289 8.65234 6.68945 8.65234C6.5625 8.64258 6.45508 8.69141 6.36719 8.7793L5.91797 9.21875L5.49805 9.77539L5.53711 8.67188L5.53711 6.76758C5.53711 6.50391 5.35156 6.30859 5.07812 6.30859C4.80469 6.30859 4.60938 6.50391 4.60938 6.76758L4.60938 8.67188L4.64844 9.77539L4.22852 9.21875L3.7793 8.7793C3.69141 8.69141 3.59375 8.64258 3.45703 8.65234C3.19336 8.65234 3.00781 8.82812 3.00781 9.10156Z" fill="var(--color-primary)"/>
 </g>
</svg>
