<svg version="1.1" xmlns="http://www.w3.org/2000/svg" xmlns:xlink="http://www.w3.org/1999/xlink" viewBox="0 0 14.6582 14.3066">
 <g>
  <rect height="14.3066" opacity="0" width="14.6582" x="0" y="0"/>
  <path d="M13.3789 0.927734C12.5488 0.107422 11.377 0 10.127 0L4.16992 0C2.91992 0 1.74805 0.107422 0.917969 0.927734C0.0976562 1.75781 0 2.91992 0 4.16992L0 10.127C0 11.3867 0.0976562 12.5391 0.917969 13.3691C1.74805 14.1895 2.91016 14.2969 4.16992 14.2969L10.127 14.2969C11.377 14.2969 12.5488 14.1895 13.3789 13.3691C14.1992 12.5391 14.2969 11.3867 14.2969 10.127L14.2969 4.16992C14.2969 2.91016 14.1992 1.75781 13.3789 0.927734ZM12.8906 3.95508L12.8906 10.3418C12.8906 11.0547 12.8125 11.8848 12.3535 12.3438C11.8945 12.8027 11.0547 12.8906 10.3418 12.8906L3.95508 12.8906C3.24219 12.8906 2.40234 12.8027 1.94336 12.3438C1.48438 11.8848 1.40625 11.0547 1.40625 10.3418L1.40625 3.96484C1.40625 3.24219 1.48438 2.41211 1.94336 1.95312C2.40234 1.49414 3.24219 1.40625 3.96484 1.40625L10.3418 1.40625C11.0547 1.40625 11.8945 1.49414 12.3535 1.95312C12.8125 2.41211 12.8906 3.24219 12.8906 3.95508Z" fill="var(--color-primary)"/>
  <path d="M3.55469 7.14844C3.55469 7.57812 3.85742 7.87109 4.30664 7.87109L6.41602 7.87109L6.41602 9.99023C6.41602 10.4297 6.70898 10.7324 7.13867 10.7324C7.57812 10.7324 7.88086 10.4297 7.88086 9.99023L7.88086 7.87109L10 7.87109C10.4395 7.87109 10.7324 7.57812 10.7324 7.14844C10.7324 6.70898 10.4395 6.40625 10 6.40625L7.88086 6.40625L7.88086 4.29688C7.88086 3.84766 7.57812 3.54492 7.13867 3.54492C6.70898 3.54492 6.41602 3.84766 6.41602 4.29688L6.41602 6.40625L4.30664 6.40625C3.85742 6.40625 3.55469 6.70898 3.55469 7.14844Z" fill="var(--color-primary)"/>
 </g>
</svg>
