<svg version="1.1" xmlns="http://www.w3.org/2000/svg" xmlns:xlink="http://www.w3.org/1999/xlink" viewBox="0 0 17.6172 17.2754">
 <g>
  <rect height="17.2754" opacity="0" width="17.6172" x="0" y="0"/>
  <path d="M8.63281 17.2656C13.3594 17.2656 17.2559 13.3691 17.2559 8.63281C17.2559 3.89648 13.3594 0 8.63281 0C3.89648 0 0 3.89648 0 8.63281C0 13.3691 3.89648 17.2656 8.63281 17.2656ZM8.63281 14.3555C5.46875 14.3555 2.91016 11.7969 2.91016 8.63281C2.91016 5.46875 5.46875 2.91016 8.63281 2.91016C11.7871 2.91016 14.3457 5.46875 14.3457 8.63281C14.3457 11.7969 11.7871 14.3555 8.63281 14.3555Z" fill="var(--color-secondary)"/>
  <path d="M6.08398 11.7285L8.48633 11.7285C8.71094 11.7285 8.87695 11.5723 8.87695 11.3574C8.87695 11.1523 8.71094 10.9961 8.48633 10.9961L6.85547 10.9961L6.85547 10.8984L8.67188 8.01758C8.76953 7.86133 8.83789 7.74414 8.83789 7.57812C8.83789 7.34375 8.70117 7.14844 8.36914 7.14844L6.04492 7.14844C5.83008 7.14844 5.66406 7.29492 5.66406 7.50977C5.66406 7.72461 5.83008 7.88086 6.04492 7.88086L7.72461 7.88086L7.72461 7.96875L5.81055 10.9473C5.72266 11.084 5.66406 11.1816 5.66406 11.3184C5.66406 11.5625 5.83984 11.7285 6.08398 11.7285ZM10.4102 11.8164C10.7031 11.8164 10.8789 11.6309 10.8789 11.3184L10.8789 5.76172C10.8789 5.44922 10.7031 5.26367 10.4102 5.26367C10.1172 5.26367 9.94141 5.44922 9.94141 5.75195L9.94141 11.3184C9.94141 11.6309 10.1172 11.8164 10.4102 11.8164ZM9.7168 9.28711L11.5234 8.35938C11.6992 8.26172 11.7676 8.125 11.7676 7.99805C11.7676 7.75391 11.5039 7.51953 11.2109 7.67578L9.375 8.63281C9.20898 8.7207 9.13086 8.85742 9.13086 8.99414C9.13086 9.23828 9.38477 9.46289 9.7168 9.28711Z" fill="var(--color-primary)"/>
 </g>
</svg>
