<svg version="1.1" xmlns="http://www.w3.org/2000/svg" xmlns:xlink="http://www.w3.org/1999/xlink" viewBox="0 0 16.1328 15.7715">
 <g>
  <rect height="15.7715" opacity="0" width="16.1328" x="0" y="0"/>
  <path d="M7.88086 15.7617C12.2363 15.7617 15.7715 12.2266 15.7715 7.88086C15.7715 3.53516 12.2363 0 7.88086 0C3.53516 0 0 3.53516 0 7.88086C0 12.2266 3.53516 15.7617 7.88086 15.7617Z" fill="var(--color-tertiary)"/>
  <path d="M4.72656 9.39453C3.87695 9.39453 3.21289 8.7207 3.21289 7.88086C3.21289 7.04102 3.87695 6.36719 4.72656 6.36719C5.55664 6.36719 6.24023 7.04102 6.24023 7.88086C6.24023 8.7207 5.55664 9.39453 4.72656 9.39453ZM11.0449 9.39453C10.2051 9.39453 9.53125 8.7207 9.53125 7.88086C9.53125 7.04102 10.2051 6.36719 11.0449 6.36719C11.8848 6.36719 12.5586 7.04102 12.5586 7.88086C12.5586 8.7207 11.8848 9.39453 11.0449 9.39453Z" fill="var(--color-primary)"/>
 </g>
</svg>
