<svg version="1.1" xmlns="http://www.w3.org/2000/svg" xmlns:xlink="http://www.w3.org/1999/xlink" viewBox="0 0 16.8555 13.2715">
 <g>
  <rect height="13.2715" opacity="0" width="16.8555" x="0" y="0"/>
  <path d="M4.13086 13.2617L12.3535 13.2617C12.9395 13.2617 13.4766 13.0566 13.8672 12.6953C15.5176 11.1328 16.4941 8.85742 16.4941 6.63086C16.4941 4.4043 15.5176 2.12891 13.8672 0.566406C13.4766 0.205078 12.9395 0 12.3535 0L4.13086 0C3.52539 0 2.94922 0.234375 2.53906 0.644531C0.957031 2.19727 0 4.43359 0 6.63086C0 8.85742 0.976562 11.1328 2.62695 12.6953C3.01758 13.0566 3.55469 13.2617 4.13086 13.2617Z" fill="var(--color-tertiary)"/>
  <path d="M4.95117 9.92188C4.50195 9.92188 4.16992 9.58984 4.16992 9.15039L4.16992 4.21875C4.16992 3.7793 4.50195 3.42773 4.95117 3.42773C5.39062 3.42773 5.74219 3.7793 5.74219 4.21875L5.74219 9.15039C5.74219 9.58984 5.39062 9.92188 4.95117 9.92188ZM11.5332 9.92188C11.0938 9.92188 10.752 9.57031 10.752 9.13086L10.752 4.22852C10.752 3.7793 11.0938 3.42773 11.5332 3.42773C11.9824 3.42773 12.3145 3.7793 12.3145 4.22852L12.3145 9.13086C12.3145 9.57031 11.9824 9.92188 11.5332 9.92188Z" fill="var(--color-primary)"/>
 </g>
</svg>
