<svg version="1.1" xmlns="http://www.w3.org/2000/svg" xmlns:xlink="http://www.w3.org/1999/xlink" viewBox="0 0 15.0488 14.248">
 <g>
  <rect height="14.248" opacity="0" width="15.0488" x="0" y="0"/>
  <path d="M14.6875 2.4707L14.6875 11.7871C14.6875 13.4277 13.8672 14.248 12.1973 14.248L2.49023 14.248C0.830078 14.248 0 13.4277 0 11.7871L0 2.4707C0 0.830078 0.830078 0.00976562 2.49023 0.00976562L12.1973 0.00976562C13.8672 0.00976562 14.6875 0.830078 14.6875 2.4707ZM3.4082 9.69727C3.4082 10.3906 3.96484 10.9375 4.63867 10.9375C5.3125 10.9375 5.86914 10.3906 5.86914 9.69727C5.86914 9.0332 5.3125 8.47656 4.63867 8.47656C3.96484 8.47656 3.4082 9.0332 3.4082 9.69727ZM8.81836 9.69727C8.81836 10.3906 9.375 10.9375 10.0586 10.9375C10.7227 10.9375 11.2793 10.3906 11.2793 9.69727C11.2793 9.0332 10.7227 8.47656 10.0586 8.47656C9.375 8.47656 8.81836 9.0332 8.81836 9.69727ZM6.10352 4.53125C6.10352 5.20508 6.66016 5.76172 7.34375 5.76172C8.01758 5.76172 8.57422 5.20508 8.57422 4.53125C8.57422 3.84766 8.01758 3.30078 7.34375 3.30078C6.66016 3.30078 6.10352 3.84766 6.10352 4.53125Z" fill="var(--color-primary)"/>
 </g>
</svg>
