<svg version="1.1" xmlns="http://www.w3.org/2000/svg" xmlns:xlink="http://www.w3.org/1999/xlink" viewBox="0 0 14.5898 14.248">
 <g>
  <rect height="14.248" opacity="0" width="14.5898" x="0" y="0"/>
  <path d="M2.49023 14.248L11.7383 14.248C13.4082 14.248 14.2285 13.4277 14.2285 11.7871L14.2285 2.4707C14.2285 0.830078 13.4082 0.00976562 11.7383 0.00976562L2.49023 0.00976562C0.830078 0.00976562 0 0.830078 0 2.4707L0 11.7871C0 13.4277 0.830078 14.248 2.49023 14.248Z" fill="var(--color-tertiary)"/>
  <path d="M4.02344 10.8789C3.57422 10.8789 3.24219 10.5469 3.24219 10.0977L3.24219 4.14062C3.24219 3.69141 3.57422 3.35938 4.02344 3.35938L10.2051 3.35938C10.6543 3.35938 10.9961 3.69141 10.9961 4.14062L10.9961 10.0977C10.9961 10.5469 10.6543 10.8789 10.2051 10.8789ZM7.12891 6.5332C7.65625 6.5332 8.0957 6.09375 8.0957 5.55664C8.0957 5.01953 7.65625 4.58984 7.12891 4.58984C6.5918 4.58984 6.15234 5.01953 6.15234 5.55664C6.15234 6.09375 6.5918 6.5332 7.12891 6.5332ZM5.37109 9.63867C5.82031 9.63867 6.19141 9.27734 6.19141 8.81836C6.19141 8.36914 5.82031 7.99805 5.37109 7.99805C4.91211 7.99805 4.54102 8.36914 4.54102 8.81836C4.54102 9.27734 4.91211 9.63867 5.37109 9.63867ZM8.87695 9.63867C9.33594 9.63867 9.70703 9.27734 9.70703 8.81836C9.70703 8.36914 9.33594 7.99805 8.87695 7.99805C8.42773 7.99805 8.05664 8.36914 8.05664 8.81836C8.05664 9.27734 8.42773 9.63867 8.87695 9.63867Z" fill="var(--color-primary)"/>
 </g>
</svg>
