<svg version="1.1" xmlns="http://www.w3.org/2000/svg" xmlns:xlink="http://www.w3.org/1999/xlink" viewBox="0 0 16.1328 15.7715">
 <g>
  <rect height="15.7715" opacity="0" width="16.1328" x="0" y="0"/>
  <path d="M7.88086 15.7617C12.2363 15.7617 15.7715 12.2363 15.7715 7.88086C15.7715 3.52539 12.2363 0 7.88086 0C3.53516 0 0 3.52539 0 7.88086C0 12.2363 3.53516 15.7617 7.88086 15.7617ZM7.88086 14.2773C4.3457 14.2773 1.49414 11.416 1.49414 7.88086C1.49414 4.3457 4.3457 1.48438 7.88086 1.48438C11.416 1.48438 14.2773 4.3457 14.2773 7.88086C14.2773 11.416 11.416 14.2773 7.88086 14.2773Z" fill="var(--color-secondary)"/>
  <path d="M7.88086 11.4941C8.31055 11.4941 8.7207 11.4258 9.08203 11.2891L9.58008 11.9531C9.75586 12.1875 9.92188 12.2656 10.127 12.2656C10.4297 12.2656 10.6445 12.0605 10.6445 11.7578C10.6445 11.6016 10.5957 11.4941 10.4297 11.2793L10.0195 10.7324C10.7812 10.0781 11.25 9.04297 11.25 7.79297C11.25 5.61523 9.86328 4.0918 7.88086 4.0918C5.88867 4.0918 4.51172 5.61523 4.51172 7.79297C4.51172 9.9707 5.88867 11.4941 7.88086 11.4941ZM7.88086 10.4102C6.67969 10.4102 5.89844 9.38477 5.89844 7.79297C5.89844 6.20117 6.67969 5.17578 7.88086 5.17578C9.08203 5.17578 9.85352 6.20117 9.85352 7.79297C9.85352 8.62305 9.64844 9.28711 9.27734 9.74609L8.90625 9.25781C8.7793 9.08203 8.64258 9.01367 8.44727 9.01367C8.16406 9.01367 7.92969 9.22852 7.92969 9.50195C7.92969 9.6582 7.97852 9.77539 8.08594 9.94141L8.38867 10.3418C8.23242 10.3906 8.05664 10.4102 7.88086 10.4102Z" fill="var(--color-primary)"/>
 </g>
</svg>
