<svg version="1.1" xmlns="http://www.w3.org/2000/svg" xmlns:xlink="http://www.w3.org/1999/xlink" viewBox="0 0 17.9103 17.5587">
 <g>
  <rect height="17.5587" opacity="0" width="17.9103" x="0" y="0"/>
  <path d="M0.888733 10.5323L7.02155 16.6553C8.19342 17.837 9.34576 17.8467 10.5176 16.6846L16.6797 10.5128C17.8516 9.35065 17.8321 8.1983 16.6505 7.01666L10.5274 0.893616C9.35553-0.288025 8.20319-0.297791 7.03131 0.864319L0.869202 7.03619C-0.302673 8.20807-0.283142 9.35065 0.888733 10.5323Z" fill="var(--color-tertiary)"/>
  <path d="M8.61334 10.4346C8.14459 10.4346 7.89069 10.2003 7.89069 9.72174C7.89069 9.70221 7.89069 9.68268 7.89069 9.67291C7.89069 8.8526 8.35944 8.43268 8.89655 8.05182C9.58014 7.5733 9.92194 7.33893 9.92194 6.80182C9.92194 6.22565 9.48248 5.84479 8.81842 5.84479C8.38873 5.84479 8.0274 6.0108 7.68561 6.43073L7.51959 6.64557C7.34381 6.84088 7.1485 6.98737 6.85553 6.98737C6.56256 6.98737 6.23053 6.77252 6.23053 6.37213C6.23053 6.22565 6.26959 6.08893 6.31842 5.95221C6.56256 5.23932 7.48053 4.62408 8.87701 4.62408C10.2637 4.62408 11.5137 5.32721 11.5137 6.73346C11.5137 7.72955 10.8985 8.1983 10.1465 8.68658C9.6192 9.03815 9.34576 9.31158 9.34576 9.74127C9.34576 9.7608 9.34576 9.78033 9.34576 9.79987C9.34576 10.1514 9.07233 10.4346 8.61334 10.4346ZM8.59381 12.8663C8.09576 12.8663 7.66608 12.4756 7.66608 11.9776C7.66608 11.4796 8.086 11.0792 8.59381 11.0792C9.10162 11.0792 9.52155 11.4698 9.52155 11.9776C9.52155 12.4854 9.09186 12.8663 8.59381 12.8663Z" fill="var(--color-primary)"/>
 </g>
</svg>
