<svg version="1.1" xmlns="http://www.w3.org/2000/svg" xmlns:xlink="http://www.w3.org/1999/xlink" viewBox="0 0 17.4609 10.752">
 <g>
  <rect height="10.752" opacity="0" width="17.4609" x="0" y="0"/>
  <path d="M7.76367 7.01172C7.76367 4.95117 6.24023 3.31055 4.28711 3.31055C3.39844 3.31055 2.56836 3.65234 1.96289 4.29688L1.75781 4.29688C2.23633 2.86133 3.57422 1.80664 5.08789 1.30859C5.35156 1.2207 5.53711 1.14258 5.64453 1.03516C5.76172 0.917969 5.81055 0.78125 5.81055 0.605469C5.81055 0.253906 5.54688 0.00976562 5.15625 0.00976562C4.92188 0.00976562 4.75586 0.0488281 4.41406 0.166016C3.36914 0.527344 2.43164 1.13281 1.69922 1.89453C0.654297 2.97852 0 4.43359 0 6.15234C0 9.07227 1.8457 10.752 4.01367 10.752C6.15234 10.752 7.76367 9.12109 7.76367 7.01172ZM17.0996 7.01172C17.0996 4.95117 15.5566 3.31055 13.623 3.31055C12.7246 3.31055 11.8945 3.65234 11.2988 4.29688L11.084 4.29688C11.5625 2.86133 12.9102 1.80664 14.4043 1.30859C14.668 1.2207 14.8633 1.14258 14.9707 1.03516C15.0879 0.917969 15.1367 0.78125 15.1367 0.605469C15.1367 0.253906 14.873 0.00976562 14.4824 0.00976562C14.2383 0.00976562 14.0918 0.0488281 13.7305 0.166016C12.7051 0.527344 11.7578 1.13281 11.0156 1.89453C9.98047 2.97852 9.32617 4.43359 9.32617 6.15234C9.32617 9.07227 11.1719 10.752 13.3398 10.752C15.4785 10.752 17.0996 9.12109 17.0996 7.01172Z" fill="var(--color-primary)"/>
 </g>
</svg>
