<svg version="1.1" xmlns="http://www.w3.org/2000/svg" xmlns:xlink="http://www.w3.org/1999/xlink" viewBox="0 0 18.4082 23.3887">
 <g>
  <rect height="23.3887" opacity="0" width="18.4082" x="0" y="0"/>
  <path d="M18.0469 11.6895C18.0469 15.5885 15.569 18.919 12.0986 20.1716C12.2544 19.6622 12.1782 19.1435 11.9248 18.7347C14.6977 17.6003 16.6406 14.8794 16.6406 11.6895C16.6406 7.4707 13.2422 4.07227 9.02344 4.07227C4.80469 4.07227 1.40625 7.4707 1.40625 11.6895C1.40625 14.8722 3.34054 17.5881 6.10315 18.7278C5.84614 19.1377 5.7694 19.6575 5.92437 20.1628C2.46646 18.9036 0 15.5795 0 11.6895C0 6.70898 4.04297 2.65625 9.02344 2.65625C14.0039 2.65625 18.0469 6.70898 18.0469 11.6895Z" fill="var(--color-secondary)"/>
  <path d="M7.60742 19.0723C7.00195 19.0723 6.81641 19.6582 7.14844 20.1074L8.58398 22.0215C8.80859 22.3242 9.22852 22.334 9.46289 22.0215L10.8691 20.1172C11.2207 19.6484 11.0156 19.0723 10.4297 19.0723Z" fill="var(--color-primary)"/>
  <path d="M9.02344 5.50781C5.61523 5.50781 2.85156 8.28125 2.85156 11.6895C2.85156 15.1074 5.61523 17.8613 9.02344 17.8613C12.4316 17.8613 15.1953 15.1074 15.1953 11.6895C15.1953 8.28125 12.4316 5.50781 9.02344 5.50781ZM9.02344 6.91406C11.6699 6.91406 13.7891 9.04297 13.7891 11.6895C13.7891 14.3359 11.6699 16.4551 9.02344 16.4551C6.37695 16.4551 4.25781 14.3359 4.25781 11.6895C4.25781 9.04297 6.37695 6.91406 9.02344 6.91406ZM7.42188 14.6289C7.86133 14.6289 8.11523 14.3457 8.11523 13.9062L8.11523 12.5781L9.02344 12.5781L10.0098 14.209C10.1855 14.502 10.3809 14.6289 10.6641 14.6289C11.0352 14.6289 11.2988 14.3848 11.2988 14.043C11.2988 13.8867 11.25 13.7305 11.1523 13.5938L10.3418 12.3633C11.0156 12.0605 11.4746 11.3867 11.4746 10.625C11.4746 9.41406 10.5957 8.63281 9.22852 8.63281L7.42188 8.63281C7.00195 8.63281 6.77734 8.94531 6.77734 9.38477L6.77734 13.9062C6.77734 14.3359 7.00195 14.6289 7.42188 14.6289ZM8.11523 11.5527L8.11523 9.69727L9.07227 9.69727C9.73633 9.69727 10.1562 10.0293 10.1562 10.6543C10.1562 11.2695 9.75586 11.5527 9.04297 11.5527Z" fill="var(--color-primary)"/>
 </g>
</svg>
