<svg version="1.1" xmlns="http://www.w3.org/2000/svg" xmlns:xlink="http://www.w3.org/1999/xlink" viewBox="0 0 18.4082 23.3887">
 <g>
  <rect height="23.3887" opacity="0" width="18.4082" x="0" y="0"/>
  <path d="M18.0469 11.6895C18.0469 15.5885 15.569 18.919 12.0986 20.1716C12.2544 19.6622 12.1782 19.1435 11.9248 18.7347C14.6977 17.6003 16.6406 14.8794 16.6406 11.6895C16.6406 7.4707 13.2422 4.07227 9.02344 4.07227C4.80469 4.07227 1.40625 7.4707 1.40625 11.6895C1.40625 14.8722 3.34054 17.5881 6.10315 18.7278C5.84614 19.1377 5.7694 19.6575 5.92437 20.1628C2.46646 18.9036 0 15.5795 0 11.6895C0 6.70898 4.04297 2.65625 9.02344 2.65625C14.0039 2.65625 18.0469 6.70898 18.0469 11.6895Z" fill="var(--color-secondary)"/>
  <path d="M7.60742 19.0723C7.00195 19.0723 6.81641 19.6582 7.14844 20.1074L8.58398 22.0215C8.80859 22.3242 9.22852 22.334 9.46289 22.0215L10.8691 20.1172C11.2207 19.6484 11.0156 19.0723 10.4297 19.0723Z" fill="var(--color-primary)"/>
  <path d="M9.02344 5.50781C5.61523 5.50781 2.85156 8.28125 2.85156 11.6895C2.85156 15.1074 5.61523 17.8613 9.02344 17.8613C12.4316 17.8613 15.1953 15.1074 15.1953 11.6895C15.1953 8.28125 12.4316 5.50781 9.02344 5.50781ZM7.36328 14.7363C6.92383 14.7363 6.67969 14.4336 6.67969 13.9844L6.67969 9.29688C6.67969 8.84766 6.91406 8.51562 7.36328 8.51562L9.22852 8.51562C10.6543 8.51562 11.5723 9.33594 11.5723 10.5859C11.5723 11.377 11.0938 12.0801 10.3906 12.3926L11.2207 13.6621C11.3281 13.8086 11.3867 13.9648 11.3867 14.1406C11.3867 14.4824 11.1035 14.7363 10.7227 14.7363C10.4297 14.7363 10.2246 14.6191 10.0293 14.3164L9.02344 12.6172L8.08594 12.6172L8.08594 13.9844C8.08594 14.4434 7.8125 14.7363 7.36328 14.7363ZM8.08594 11.5527L9.04297 11.5527C9.78516 11.5527 10.1953 11.2598 10.1953 10.6152C10.1953 9.9707 9.75586 9.61914 9.07227 9.61914L8.08594 9.61914Z" fill="var(--color-primary)"/>
 </g>
</svg>
