<svg version="1.1" xmlns="http://www.w3.org/2000/svg" xmlns:xlink="http://www.w3.org/1999/xlink" viewBox="0 0 16.1328 15.7715">
 <g>
  <rect height="15.7715" opacity="0" width="16.1328" x="0" y="0"/>
  <path d="M7.88086 15.7617C12.2363 15.7617 15.7715 12.2266 15.7715 7.88086C15.7715 3.53516 12.2363 0 7.88086 0C3.53516 0 0 3.53516 0 7.88086C0 12.2266 3.53516 15.7617 7.88086 15.7617Z" fill="var(--color-tertiary)"/>
  <path d="M2.77344 7.88086C2.77344 6.5918 3.81836 5.53711 5.10742 5.53711C6.39648 5.53711 7.45117 6.5918 7.45117 7.88086C7.45117 8.36914 7.30469 8.84766 7.01172 9.23828L8.75 9.23828C8.45703 8.84766 8.31055 8.36914 8.31055 7.88086C8.31055 6.5918 9.35547 5.53711 10.6543 5.53711C11.9434 5.53711 12.9785 6.5918 12.9785 7.88086C12.9785 9.16992 11.9434 10.2246 10.6543 10.2246L5.10742 10.2246C3.81836 10.2246 2.77344 9.16992 2.77344 7.88086ZM3.75977 7.87109C3.75977 8.62305 4.36523 9.23828 5.11719 9.23828C5.86914 9.23828 6.46484 8.63281 6.46484 7.87109C6.46484 7.12891 5.85938 6.52344 5.11719 6.52344C4.375 6.52344 3.75977 7.12891 3.75977 7.87109ZM9.29688 7.87109C9.29688 8.63281 9.89258 9.23828 10.6445 9.23828C11.3965 9.23828 12.002 8.62305 12.002 7.87109C12.002 7.12891 11.3867 6.52344 10.6445 6.52344C9.90234 6.52344 9.29688 7.12891 9.29688 7.87109Z" fill="var(--color-primary)"/>
 </g>
</svg>
