<svg version="1.1" xmlns="http://www.w3.org/2000/svg" xmlns:xlink="http://www.w3.org/1999/xlink" viewBox="0 0 18.4766 14.248">
 <g>
  <rect height="14.248" opacity="0" width="18.4766" x="0" y="0"/>
  <path d="M0 10.4395L0 9.0332L5.10742 9.0332L5.10742 5.22461L0 5.22461L0 3.81836L5.10742 3.81836L5.10742 0.00976562L6.51367 0.00976562L6.51367 3.81836L11.6016 3.81836L11.6016 0.00976562L13.0078 0.00976562L13.0078 3.81836L18.1152 3.81836L18.1152 5.22461L13.0078 5.22461L13.0078 9.0332L18.1152 9.0332L18.1152 10.4395L13.0078 10.4395L13.0078 14.248L11.6016 14.248L11.6016 10.4395L6.51367 10.4395L6.51367 14.248L5.10742 14.248L5.10742 10.4395ZM6.51367 9.0332L11.6016 9.0332L11.6016 5.22461L6.51367 5.22461ZM2.49023 14.248L15.625 14.248C17.2949 14.248 18.1152 13.4277 18.1152 11.7871L18.1152 2.4707C18.1152 0.830078 17.2949 0.00976562 15.625 0.00976562L2.49023 0.00976562C0.830078 0.00976562 0 0.830078 0 2.4707L0 11.7871C0 13.4277 0.830078 14.248 2.49023 14.248Z" fill="var(--color-primary)"/>
 </g>
</svg>
