<svg version="1.1" xmlns="http://www.w3.org/2000/svg" xmlns:xlink="http://www.w3.org/1999/xlink" viewBox="0 0 14.9805 19.7925">
 <g>
  <rect height="19.7925" opacity="0" width="14.9805" x="0" y="0"/>
  <path d="M2.49023 15.0574L12.1289 15.0574C13.7988 15.0574 14.6191 14.2468 14.6191 12.6062L14.6191 7.18629C14.6191 5.54567 13.7988 4.72535 12.1289 4.72535L2.49023 4.72535C0.820312 4.72535 0 5.54567 0 7.18629L0 12.6062C0 14.2468 0.820312 15.0574 2.49023 15.0574ZM2.50977 13.6511C1.80664 13.6511 1.40625 13.2703 1.40625 12.5281L1.40625 7.25465C1.40625 6.51246 1.80664 6.1316 2.50977 6.1316L12.1094 6.1316C12.8125 6.1316 13.2129 6.51246 13.2129 7.25465L13.2129 12.5281C13.2129 13.2703 12.8125 13.6511 12.1094 13.6511Z" fill="var(--color-secondary)"/>
  <path d="M5.61523 3.73903L9.01367 3.73903C9.45312 3.73903 9.66797 3.38746 9.42383 2.98707L7.75391 0.281994C7.5293-0.0890994 7.08984-0.0988651 6.86523 0.281994L5.21484 2.98707C4.96094 3.38746 5.16602 3.73903 5.61523 3.73903ZM5.61523 16.0437C5.16602 16.0437 4.96094 16.3953 5.21484 16.7957L6.86523 19.5007C7.08984 19.8816 7.5293 19.8718 7.75391 19.5007L9.42383 16.7957C9.66797 16.3953 9.45312 16.0437 9.01367 16.0437Z" fill="var(--color-primary)"/>
 </g>
</svg>
