<svg version="1.1" xmlns="http://www.w3.org/2000/svg" xmlns:xlink="http://www.w3.org/1999/xlink" viewBox="0 0 17.8516 18.6035">
 <g>
  <rect height="18.6035" opacity="0" width="17.8516" x="0" y="0"/>
  <path d="M2.19727 14.4238L4.76562 14.4238L4.76562 13.1055L2.40234 13.1055C1.75781 13.1055 1.38672 12.6953 1.38672 12.1289L1.38672 6.32812C1.38672 5.76172 1.75781 5.35156 2.40234 5.35156L4.76562 5.35156L4.76562 4.0332L2.19727 4.0332C0.898438 4.0332 0 4.91211 0 6.11328L0 12.3438C0 13.5352 0.898438 14.4238 2.19727 14.4238ZM15.293 14.4238C16.5918 14.4238 17.4902 13.5352 17.4902 12.3438L17.4902 6.11328C17.4902 4.91211 16.5918 4.0332 15.293 4.0332L12.7246 4.0332L12.7246 5.35156L15.0879 5.35156C15.7324 5.35156 16.1035 5.76172 16.1035 6.32812L16.1035 12.1289C16.1035 12.6953 15.7324 13.1055 15.0879 13.1055L12.7246 13.1055L12.7246 14.4238Z" fill="var(--color-secondary)"/>
  <path d="M8.74023 18.457C8.92578 18.457 9.0625 18.3887 9.24805 18.2227L11.7676 15.9082C11.9043 15.791 11.9727 15.6348 11.9727 15.4492C11.9727 15.0879 11.709 14.834 11.3477 14.834C11.1719 14.834 10.9961 14.9121 10.8691 15.0391L9.83398 16.0742L9.38477 16.5527L9.44336 15.3516L9.44336 12.9688C9.44336 12.6074 9.12109 12.2949 8.74023 12.2949C8.36914 12.2949 8.04688 12.6074 8.04688 12.9688L8.04688 15.3516L8.10547 16.5527L7.65625 16.0742L6.62109 15.0391C6.49414 14.9121 6.32812 14.834 6.15234 14.834C5.79102 14.834 5.51758 15.0879 5.51758 15.4492C5.51758 15.6348 5.58594 15.791 5.72266 15.9082L8.24219 18.2227C8.42773 18.3887 8.56445 18.457 8.74023 18.457ZM8.74023 6.16211C9.12109 6.16211 9.44336 5.84961 9.44336 5.47852L9.44336 3.10547L9.38477 1.9043L9.83398 2.38281L10.8691 3.41797C10.9961 3.54492 11.1621 3.62305 11.3379 3.62305C11.6992 3.62305 11.9727 3.36914 11.9727 3.00781C11.9727 2.82227 11.9043 2.66602 11.7676 2.53906L9.24805 0.234375C9.0625 0.0683594 8.92578 0 8.74023 0C8.56445 0 8.42773 0.0683594 8.24219 0.234375L5.72266 2.53906C5.58594 2.66602 5.51758 2.82227 5.51758 3.00781C5.51758 3.36914 5.78125 3.62305 6.14258 3.62305C6.31836 3.62305 6.49414 3.54492 6.62109 3.41797L7.65625 2.38281L8.10547 1.9043L8.04688 3.10547L8.04688 5.47852C8.04688 5.84961 8.36914 6.16211 8.74023 6.16211Z" fill="var(--color-primary)"/>
 </g>
</svg>
