<svg version="1.1" xmlns="http://www.w3.org/2000/svg" xmlns:xlink="http://www.w3.org/1999/xlink" viewBox="0 0 17.6172 17.2754">
 <g>
  <rect height="17.2754" opacity="0" width="17.6172" x="0" y="0"/>
  <path d="M8.63281 17.2656C13.3594 17.2656 17.2559 13.3691 17.2559 8.63281C17.2559 3.89648 13.3594 0 8.63281 0C3.89648 0 0 3.89648 0 8.63281C0 13.3691 3.89648 17.2656 8.63281 17.2656ZM8.63281 14.3555C5.46875 14.3555 2.91016 11.7969 2.91016 8.63281C2.91016 5.46875 5.46875 2.91016 8.63281 2.91016C11.7871 2.91016 14.3457 5.46875 14.3457 8.63281C14.3457 11.7969 11.7871 14.3555 8.63281 14.3555Z" fill="var(--color-secondary)"/>
  <path d="M7.32422 12.2168C7.63672 12.2168 7.82227 12.0215 7.82227 11.709L7.82227 11.0156L9.63867 11.0156C9.80469 11.0156 9.91211 10.918 9.91211 10.7422C9.91211 10.5762 9.80469 10.4688 9.63867 10.4688L7.82227 10.4688L7.82227 9.49219L9.16992 9.49219C10.6445 9.49219 11.4355 8.48633 11.4355 7.34375C11.4355 6.16211 10.625 5.16602 9.18945 5.16602L7.33398 5.16602C7.03125 5.16602 6.82617 5.39062 6.82617 5.69336L6.82617 8.93555L6.04492 8.93555C5.86914 8.93555 5.77148 9.05273 5.77148 9.21875C5.77148 9.39453 5.86914 9.49219 6.04492 9.49219L6.82617 9.49219L6.82617 10.4688L6.04492 10.4688C5.86914 10.4688 5.77148 10.5762 5.77148 10.7422C5.77148 10.918 5.86914 11.0156 6.04492 11.0156L6.82617 11.0156L6.82617 11.709C6.82617 12.0215 7.02148 12.2168 7.32422 12.2168ZM7.82227 8.67188L7.82227 6.02539L8.92578 6.02539C10.0098 6.02539 10.4102 6.63086 10.4102 7.34375C10.4102 8.21289 9.82422 8.67188 8.92578 8.67188Z" fill="var(--color-primary)"/>
 </g>
</svg>
