<svg version="1.1" xmlns="http://www.w3.org/2000/svg" xmlns:xlink="http://www.w3.org/1999/xlink" viewBox="0 0 16.1328 15.7715">
 <g>
  <rect height="15.7715" opacity="0" width="16.1328" x="0" y="0"/>
  <path d="M7.88086 15.7715C12.2363 15.7715 15.7715 12.2363 15.7715 7.89062C15.7715 3.54492 12.2363 0.00976562 7.88086 0.00976562C3.53516 0.00976562 0 3.54492 0 7.89062C0 12.2363 3.53516 15.7715 7.88086 15.7715Z" fill="var(--color-tertiary)"/>
  <path d="M5.47852 12.3535C5.09766 12.3535 4.91211 12.2168 4.77539 11.8652L4.48242 11.084C4.36523 10.7715 4.55078 10.5176 4.89258 10.5176C5.61523 10.5176 6.35742 10.5176 7.09961 10.5078L7.1582 9.87305C6.41602 9.93164 5.66406 9.92188 4.94141 9.84375C4.56055 9.80469 4.45312 9.50195 4.67773 9.17969L7.56836 5.14648L7.70508 3.62305C7.73438 3.26172 8.02734 3.05664 8.35938 3.05664C8.53516 3.05664 8.7207 3.10547 8.92578 3.21289C10.957 4.28711 11.6211 5.98633 11.6211 7.48047C11.6211 8.04688 11.5527 8.57422 11.3574 9.04297C11.1914 9.52148 10.9277 9.72656 10.4004 9.80469C9.78516 9.90234 8.81836 9.95117 7.86133 9.85352L7.80273 10.4883C8.78906 10.4492 9.75586 10.3906 10.6738 10.2637C10.9961 10.2246 11.1328 10.4004 11.1328 10.6055C11.1328 10.9277 10.5273 11.7871 10.1855 12.0605C9.94141 12.2754 9.73633 12.3535 9.4043 12.3535ZM7.92969 9.08203C8.47656 8.48633 8.83789 7.50977 8.83789 6.36719C8.83789 5.51758 8.71094 4.56055 8.42773 3.76953C8.4082 3.73047 8.36914 3.73047 8.36914 3.7793Z" fill="var(--color-primary)"/>
 </g>
</svg>
