<svg version="1.1" xmlns="http://www.w3.org/2000/svg" xmlns:xlink="http://www.w3.org/1999/xlink" viewBox="0 0 16.1328 15.7715">
 <g>
  <rect height="15.7715" opacity="0" width="16.1328" x="0" y="0"/>
  <path d="M7.88086 15.7715C12.2363 15.7715 15.7715 12.2363 15.7715 7.89062C15.7715 3.54492 12.2363 0.00976562 7.88086 0.00976562C3.53516 0.00976562 0 3.54492 0 7.89062C0 12.2363 3.53516 15.7715 7.88086 15.7715Z" fill="var(--color-tertiary)"/>
  <path d="M5.9082 11.3086C4.93164 11.3086 4.28711 10.6055 4.28711 9.72656C4.28711 8.88672 4.96094 8.19336 5.80078 8.17383C5.92773 7.38281 6.60156 6.78711 7.42188 6.78711C7.59766 6.78711 7.76367 6.81641 7.94922 6.86523C8.30078 6.34766 8.90625 6.00586 9.58984 6.00586C10.6445 6.00586 11.5137 6.83594 11.5723 7.86133C12.373 8.03711 12.9688 8.73047 12.9688 9.57031C12.9688 10.5371 12.2461 11.3086 11.1621 11.3086ZM2.53906 7.45117C2.53906 6.62109 3.13477 5.91797 3.92578 5.75195C3.99414 4.72656 4.86328 3.87695 5.92773 3.87695C6.60156 3.87695 7.20703 4.22852 7.55859 4.76562C7.73438 4.70703 7.90039 4.6582 8.08594 4.6582C8.81836 4.6582 9.24805 5.03906 9.35547 5.41016C8.71094 5.46875 8.125 5.76172 7.71484 6.20117C7.62695 6.19141 7.50977 6.18164 7.42188 6.18164C6.45508 6.18164 5.64453 6.78711 5.32227 7.64648C4.58984 7.82227 4.00391 8.37891 3.7793 9.10156C2.99805 8.83789 2.53906 8.20312 2.53906 7.45117Z" fill="var(--color-primary)"/>
 </g>
</svg>
