<svg version="1.1" xmlns="http://www.w3.org/2000/svg" xmlns:xlink="http://www.w3.org/1999/xlink" viewBox="0 0 19.7949 15.6543">
 <g>
  <rect height="15.6543" opacity="0" width="19.7949" x="0" y="0"/>
  <path d="M2.07031 12.8906L17.3633 12.8906C18.7402 12.8906 19.4336 12.2266 19.4336 10.8105L19.4336 2.07031C19.4336 0.654297 18.7402 0 17.3633 0L2.07031 0C0.693359 0 0 0.654297 0 2.07031L0 10.8105C0 12.2266 0.693359 12.8906 2.07031 12.8906ZM5.82031 15.6348L13.6133 15.6348C14.0039 15.6348 14.3164 15.3223 14.3164 14.9316C14.3164 14.541 14.0039 14.2188 13.6133 14.2188L5.82031 14.2188C5.42969 14.2188 5.11719 14.541 5.11719 14.9316C5.11719 15.3223 5.42969 15.6348 5.82031 15.6348Z" fill="var(--color-tertiary)"/>
  <path d="M10.1172 9.53125C9.93164 9.53125 9.81445 9.41406 9.78516 9.23828C9.46289 7.08008 9.13086 6.5625 6.82617 6.26953C6.64062 6.24023 6.5332 6.11328 6.5332 5.94727C6.5332 5.78125 6.64062 5.6543 6.82617 5.625C9.12109 5.30273 9.35547 4.81445 9.78516 2.64648C9.83398 2.4707 9.95117 2.36328 10.1172 2.36328C10.2637 2.36328 10.4004 2.48047 10.4297 2.65625C10.752 4.76562 11.1035 5.30273 13.3984 5.625C13.5645 5.6543 13.6914 5.78125 13.6914 5.94727C13.6914 6.11328 13.5645 6.25 13.3984 6.26953C11.0938 6.58203 10.8691 7.08008 10.4297 9.24805C10.3906 9.41406 10.2637 9.53125 10.1172 9.53125ZM7.01172 10.8594C6.875 10.8594 6.79688 10.7715 6.75781 10.625C6.50391 9.49219 6.63086 9.49219 5.42969 9.29688C5.27344 9.26758 5.19531 9.18945 5.19531 9.04297C5.19531 8.92578 5.27344 8.81836 5.41016 8.79883C6.63086 8.57422 6.50391 8.57422 6.75781 7.45117C6.79688 7.31445 6.88477 7.2168 7.01172 7.2168C7.14844 7.2168 7.23633 7.32422 7.26562 7.45117C7.5 8.57422 7.41211 8.57422 8.63281 8.79883C8.75 8.81836 8.84766 8.92578 8.84766 9.04297C8.84766 9.16992 8.75 9.26758 8.63281 9.29688C7.40234 9.49219 7.5 9.49219 7.26562 10.6543C7.23633 10.7812 7.13867 10.8594 7.01172 10.8594Z" fill="var(--color-primary)"/>
 </g>
</svg>
