<svg version="1.1" xmlns="http://www.w3.org/2000/svg" xmlns:xlink="http://www.w3.org/1999/xlink" viewBox="0 0 16.1328 15.7715">
 <g>
  <rect height="15.7715" opacity="0" width="16.1328" x="0" y="0"/>
  <path d="M7.88086 15.7715C12.2363 15.7715 15.7715 12.2363 15.7715 7.89062C15.7715 3.54492 12.2363 0.00976562 7.88086 0.00976562C3.53516 0.00976562 0 3.54492 0 7.89062C0 12.2363 3.53516 15.7715 7.88086 15.7715Z" fill="var(--color-tertiary)"/>
  <path d="M9.33594 11.6992C9.11133 11.6992 8.92578 11.6211 8.71094 11.4062L6.93359 9.7168C6.91406 9.69727 6.85547 9.6875 6.82617 9.6875L5.6543 9.6875C5.00977 9.6875 4.69727 9.36523 4.69727 8.68164L4.69727 7.11914C4.69727 6.43555 5.00977 6.12305 5.6543 6.12305L6.82617 6.12305C6.85547 6.12305 6.91406 6.11328 6.93359 6.08398L8.71094 4.42383C8.96484 4.18945 9.10156 4.10156 9.32617 4.10156C9.62891 4.10156 9.85352 4.3457 9.85352 4.63867L9.85352 11.1816C9.85352 11.4941 9.62891 11.6992 9.33594 11.6992Z" fill="var(--color-primary)"/>
 </g>
</svg>
