<svg version="1.1" xmlns="http://www.w3.org/2000/svg" xmlns:xlink="http://www.w3.org/1999/xlink" viewBox="0 0 16.67 17.5977">
 <g>
  <rect height="17.5977" opacity="0" width="16.67" x="0" y="0"/>
  <path d="M11.7966 15.0305C11.6716 15.399 11.3326 15.6397 10.9033 15.6397C10.5127 15.6397 10.1905 15.4834 9.79007 15.1123L6.58694 12.0655C6.54788 12.0264 6.47952 12.0069 6.42093 12.0069L4.28226 12.0069C3.15921 12.0069 2.58304 11.4209 2.58304 10.2198L2.58304 7.39749C2.58304 6.8622 2.69562 6.45095 2.9187 6.15916ZM11.8506 2.95413L11.8506 10.4671L6.76019 5.38039L9.79007 2.55374C10.2393 2.13382 10.4932 1.9678 10.8838 1.9678C11.4502 1.9678 11.8506 2.41702 11.8506 2.95413Z" fill="var(--color-secondary)"/>
  <path d="M14.5752 16.4405C14.8389 16.7041 15.2686 16.7041 15.5225 16.4405C15.7764 16.1768 15.7862 15.7569 15.5225 15.4932L2.18265 2.16311C1.91897 1.90921 1.48929 1.89944 1.22561 2.16311C0.971708 2.41702 0.971708 2.86624 1.22561 3.12014Z" fill="var(--color-primary)"/>
 </g>
</svg>
