<svg version="1.1" xmlns="http://www.w3.org/2000/svg" xmlns:xlink="http://www.w3.org/1999/xlink" viewBox="0 0 20.2734 20.6934">
 <g>
  <rect height="20.6934" opacity="0" width="20.2734" x="0" y="0"/>
  <path d="M18.7695 10.7324L18.7695 18.2422C18.7695 19.8828 17.9395 20.6934 16.2793 20.6934L7.51953 20.6934C5.85938 20.6934 5.0293 19.8828 5.0293 18.2422L5.0293 18.1543L12.3926 18.1543C14.6875 18.1543 16.0254 16.8359 16.0254 14.5605L16.0254 8.28125L16.2793 8.28125C17.9395 8.28125 18.7695 9.0918 18.7695 10.7324Z" fill="var(--color-tertiary)"/>
  <path d="M14.8828 7.06055L14.8828 14.5605C14.8828 16.2012 14.0625 17.0117 12.3926 17.0117L3.63281 17.0117C1.97266 17.0117 1.14258 16.2012 1.14258 14.5605L1.14258 7.06055C1.14258 5.41992 1.97266 4.59961 3.63281 4.59961L7.31445 4.59961L7.31445 8.67188L7.37305 9.83398L6.98242 9.41406L5.89844 8.24219C5.78125 8.10547 5.5957 8.03711 5.41992 8.03711C5.05859 8.03711 4.79492 8.29102 4.79492 8.65234C4.79492 8.83789 4.86328 8.97461 5 9.11133L7.50977 11.5039C7.68555 11.6797 7.83203 11.7383 8.00781 11.7383C8.19336 11.7383 8.33984 11.6797 8.51562 11.5039L11.0254 9.11133C11.1523 8.97461 11.2305 8.83789 11.2305 8.65234C11.2305 8.29102 10.957 8.03711 10.5957 8.03711C10.4199 8.03711 10.2441 8.10547 10.1172 8.24219L9.04297 9.41406L8.65234 9.83398L8.71094 8.67188L8.71094 4.59961L12.3926 4.59961C14.0625 4.59961 14.8828 5.41992 14.8828 7.06055Z" fill="var(--color-tertiary)"/>
  <path d="M8.00781 0.380859C8.38867 0.380859 8.71094 0.693359 8.71094 1.05469L8.71094 8.67188L8.65234 9.83398L9.04297 9.41406L10.1172 8.24219C10.2441 8.10547 10.4199 8.03711 10.5957 8.03711C10.957 8.03711 11.2305 8.29102 11.2305 8.65234C11.2305 8.83789 11.1523 8.97461 11.0254 9.11133L8.51562 11.5039C8.33984 11.6797 8.19336 11.7383 8.00781 11.7383C7.83203 11.7383 7.68555 11.6797 7.50977 11.5039L5 9.11133C4.86328 8.97461 4.79492 8.83789 4.79492 8.65234C4.79492 8.29102 5.05859 8.03711 5.41992 8.03711C5.5957 8.03711 5.78125 8.10547 5.89844 8.24219L6.98242 9.41406L7.37305 9.83398L7.31445 8.67188L7.31445 1.05469C7.31445 0.693359 7.63672 0.380859 8.00781 0.380859Z" fill="var(--color-primary)"/>
 </g>
</svg>
