<svg version="1.1" xmlns="http://www.w3.org/2000/svg" xmlns:xlink="http://www.w3.org/1999/xlink" viewBox="0 0 14.5898 14.248">
 <g>
  <rect height="14.248" opacity="0" width="14.5898" x="0" y="0"/>
  <path d="M2.49023 14.248L11.7383 14.248C13.4082 14.248 14.2285 13.4277 14.2285 11.7871L14.2285 2.4707C14.2285 0.830078 13.4082 0.00976562 11.7383 0.00976562L2.49023 0.00976562C0.830078 0.00976562 0 0.830078 0 2.4707L0 11.7871C0 13.4277 0.830078 14.248 2.49023 14.248Z" fill="var(--color-tertiary)"/>
  <path d="M4.88281 11.2402C4.35547 11.6309 3.81836 11.2207 4.02344 10.625L4.91211 7.98828L2.64648 6.36719C2.16797 6.01562 2.31445 5.3418 2.97852 5.35156L5.75195 5.37109L6.5918 2.71484C6.78711 2.12891 7.44141 2.12891 7.63672 2.71484L8.47656 5.37109L11.25 5.35156C11.9141 5.3418 12.0605 6.02539 11.582 6.36719L9.31641 7.98828L10.2148 10.625C10.4102 11.2207 9.87305 11.6309 9.3457 11.2402L7.11914 9.59961Z" fill="var(--color-primary)"/>
 </g>
</svg>
