<svg version="1.1" xmlns="http://www.w3.org/2000/svg" xmlns:xlink="http://www.w3.org/1999/xlink" viewBox="0 0 16.1328 15.7715">
 <g>
  <rect height="15.7715" opacity="0" width="16.1328" x="0" y="0"/>
  <path d="M7.88086 15.7617C12.2363 15.7617 15.7715 12.2363 15.7715 7.88086C15.7715 3.52539 12.2363 0 7.88086 0C3.53516 0 0 3.52539 0 7.88086C0 12.2363 3.53516 15.7617 7.88086 15.7617ZM7.88086 14.2773C4.3457 14.2773 1.49414 11.416 1.49414 7.88086C1.49414 4.3457 4.3457 1.48438 7.88086 1.48438C11.416 1.48438 14.2773 4.3457 14.2773 7.88086C14.2773 11.416 11.416 14.2773 7.88086 14.2773Z" fill="var(--color-secondary)"/>
  <path d="M4.27734 5.83984C4.02344 6.32812 4.0918 6.58203 4.54102 6.81641L6.44531 7.85156L4.53125 8.95508C4.08203 9.22852 4.01367 9.46289 4.28711 9.95117L4.30664 9.98047C4.57031 10.459 4.83398 10.5273 5.2832 10.2539L7.10938 9.19922L7.10938 11.3184C7.10938 11.8555 7.30469 12.041 7.87109 12.041L7.91992 12.041C8.4668 12.041 8.66211 11.8555 8.66211 11.3184L8.66211 9.19922L10.4883 10.2539C10.9668 10.5469 11.2109 10.4688 11.4648 9.98047L11.4844 9.95117C11.7285 9.45312 11.6699 9.20898 11.2305 8.95508L9.32617 7.85156L11.2207 6.81641C11.6797 6.58203 11.748 6.32812 11.4941 5.83984L11.4648 5.79102C11.2207 5.29297 10.9668 5.21484 10.4688 5.50781L8.66211 6.57227L8.66211 4.45312C8.66211 3.92578 8.4668 3.74023 7.91992 3.74023L7.87109 3.74023C7.30469 3.74023 7.10938 3.92578 7.10938 4.45312L7.10938 6.57227L5.30273 5.50781C4.80469 5.23438 4.54102 5.29297 4.30664 5.79102Z" fill="var(--color-primary)"/>
 </g>
</svg>
