<svg version="1.1" xmlns="http://www.w3.org/2000/svg" xmlns:xlink="http://www.w3.org/1999/xlink" viewBox="0 0 21.6016 18.3105">
 <g>
  <rect height="18.3105" opacity="0" width="21.6016" x="0" y="0"/>
  <path d="M18.1934 14.3555C18.584 14.3555 18.8965 14.0332 18.8965 13.6523C18.8965 13.2617 18.584 12.9395 18.1934 12.9395L4.58008 12.9395C3.98438 12.9395 3.68164 12.627 3.68164 12.0312L3.68164 4.47266C3.68164 2.98828 2.98828 2.31445 1.48438 2.31445L0.703125 2.31445C0.322266 2.31445 0 2.63672 0 3.01758C0 3.4082 0.322266 3.7207 0.703125 3.7207L1.37695 3.7207C1.96289 3.7207 2.27539 4.04297 2.27539 4.63867L2.27539 12.1973C2.27539 13.6816 2.96875 14.3555 4.46289 14.3555ZM15.498 18.3008C16.3086 18.3008 16.9922 17.6172 16.9922 16.7969C16.9922 15.9766 16.3086 15.293 15.498 15.293C14.6777 15.293 14.0039 15.9766 14.0039 16.7969C14.0039 17.6172 14.6777 18.3008 15.498 18.3008ZM7.29492 18.3008C8.10547 18.3008 8.78906 17.6172 8.78906 16.7969C8.78906 15.9766 8.10547 15.293 7.29492 15.293C6.47461 15.293 5.80078 15.9766 5.80078 16.7969C5.80078 17.6172 6.47461 18.3008 7.29492 18.3008Z" fill="var(--color-secondary)"/>
  <path d="M18.8965 10.1074L18.8965 3.88672C18.8965 2.77344 18.2812 2.19727 17.0898 2.19727L6.73828 2.19727C5.54688 2.19727 4.92188 2.77344 4.92188 3.88672L4.92188 10.1074C4.92188 11.2207 5.54688 11.7969 6.73828 11.7969L17.0898 11.7969C18.2812 11.7969 18.8965 11.2207 18.8965 10.1074ZM16.6699 11.7969L15.5957 11.7969L15.5957 2.19727L16.6699 2.19727ZM8.23242 11.7969L7.1582 11.7969L7.1582 2.19727L8.23242 2.19727ZM15.0684 2.94922L15.0684 1.83594C15.0684 0.654297 14.4141 0 13.2129 0L10.6055 0C9.375 0 8.75977 0.615234 8.75977 1.83594L8.75977 2.92969L9.98047 2.92969L9.98047 1.75781C9.98047 1.37695 10.1953 1.16211 10.5859 1.16211L13.2324 1.16211C13.6328 1.16211 13.8477 1.37695 13.8477 1.75781L13.8477 2.94922Z" fill="var(--color-primary)"/>
 </g>
</svg>
