<svg version="1.1" xmlns="http://www.w3.org/2000/svg" xmlns:xlink="http://www.w3.org/1999/xlink" viewBox="0 0 22.2559 20.7715">
 <g>
  <rect height="20.7715" opacity="0" width="22.2559" x="0" y="0"/>
  <path d="M15.1758 14.7266C15.1758 15.5968 14.9038 16.4118 14.4417 17.0898L12.4739 17.0898C13.2506 16.5851 13.7695 15.7093 13.7695 14.7266C13.7695 13.1738 12.4902 11.8945 10.9473 11.8945C9.39453 11.8945 8.125 13.1738 8.125 14.7266C8.125 15.7093 8.64002 16.5851 9.41633 17.0898L7.44621 17.0898C6.98233 16.4118 6.70898 15.5968 6.70898 14.7266C6.70898 12.4023 8.64258 10.4785 10.9473 10.4785C13.252 10.4785 15.1758 12.4023 15.1758 14.7266ZM5.37109 14.5312C5.38086 14.9219 5.0293 15.2441 4.57031 15.2441L2.90039 15.2441C2.44141 15.2441 2.11914 14.9219 2.11914 14.5312C2.11914 14.1309 2.44141 13.8184 2.90039 13.8184L4.57031 13.8184C5.0293 13.8184 5.36133 14.1309 5.37109 14.5312ZM19.7754 14.5312C19.7754 14.9219 19.4434 15.2441 18.9844 15.2441L17.3145 15.2441C16.8555 15.2441 16.5332 14.9219 16.5234 14.5312C16.5137 14.1309 16.8555 13.8184 17.3145 13.8184L18.9844 13.8184C19.4434 13.8184 19.7754 14.1309 19.7754 14.5312ZM5.76172 8.52539L6.94336 9.70703C7.27539 10.0391 7.27539 10.498 7.00195 10.7812C6.72852 11.0547 6.25977 11.0449 5.92773 10.7227L4.75586 9.54102C4.42383 9.20898 4.42383 8.75 4.70703 8.48633C4.99023 8.21289 5.43945 8.20312 5.76172 8.52539ZM17.1875 8.48633C17.4609 8.75977 17.4707 9.20898 17.1387 9.54102L15.957 10.7227C15.6348 11.0449 15.1758 11.0449 14.8926 10.7812C14.6094 10.5078 14.6191 10.0391 14.9414 9.70703L16.123 8.52539C16.4551 8.20312 16.9141 8.20312 17.1875 8.48633Z" fill="var(--color-secondary)"/>
  <path d="M1.9043 18.4961L19.9902 18.4961C20.4004 18.4961 20.752 18.1738 20.752 17.793C20.752 17.4023 20.4004 17.0898 19.9902 17.0898L1.9043 17.0898C1.48438 17.0898 1.14258 17.4023 1.14258 17.793C1.14258 18.1738 1.48438 18.4961 1.9043 18.4961Z" fill="var(--color-primary)"/>
  <path d="M10.9473 2.26562C10.5566 2.26562 10.2344 2.61719 10.2344 3.04688L10.2344 5.83008L10.332 6.92383L9.93164 6.41602L8.95508 5.43945C8.82812 5.32227 8.66211 5.24414 8.49609 5.24414C8.14453 5.24414 7.90039 5.47852 7.90039 5.82031C7.90039 5.99609 7.95898 6.13281 8.0957 6.25977L10.4785 8.44727C10.6641 8.61328 10.7812 8.67188 10.9473 8.67188C11.1035 8.67188 11.2305 8.61328 11.416 8.44727L13.7891 6.25977C13.9355 6.13281 13.9941 5.99609 13.9941 5.82031C13.9941 5.47852 13.75 5.24414 13.3984 5.24414C13.2324 5.24414 13.0566 5.32227 12.9395 5.43945L12.0508 6.32812L11.5527 6.92383L11.6602 5.83008L11.6602 3.04688C11.6602 2.61719 11.3281 2.26562 10.9473 2.26562Z" fill="var(--color-primary)"/>
 </g>
</svg>
