<svg version="1.1" xmlns="http://www.w3.org/2000/svg" xmlns:xlink="http://www.w3.org/1999/xlink" viewBox="0 0 16.1328 15.7715">
 <g>
  <rect height="15.7715" opacity="0" width="16.1328" x="0" y="0"/>
  <path d="M7.88086 15.7715C12.2363 15.7715 15.7715 12.2363 15.7715 7.89062C15.7715 3.54492 12.2363 0.00976562 7.88086 0.00976562C3.53516 0.00976562 0 3.54492 0 7.89062C0 12.2363 3.53516 15.7715 7.88086 15.7715Z" fill="var(--color-tertiary)"/>
  <path d="M7.88086 3.90625C9.41406 3.90625 11.1523 4.17969 12.002 5.04883C12.3438 5.37109 12.5293 5.80078 12.5293 6.32812C12.5293 6.69922 12.4121 7.24609 11.9531 7.25586C11.8457 7.26562 11.748 7.25586 11.6406 7.24609L10.4785 7.05078C10.0781 6.98242 9.90234 6.83594 9.79492 6.45508L9.59961 5.75195C9.55078 5.61523 9.52148 5.56641 9.33594 5.50781C9.0332 5.39062 8.49609 5.32227 7.88086 5.32227C7.27539 5.32227 6.73828 5.39062 6.43555 5.50781C6.25977 5.56641 6.2207 5.61523 6.17188 5.75195L5.97656 6.45508C5.86914 6.83594 5.69336 6.98242 5.29297 7.05078L4.12109 7.24609C4.02344 7.25586 3.91602 7.26562 3.81836 7.25586C3.35938 7.24609 3.24219 6.69922 3.24219 6.32812C3.24219 5.80078 3.42773 5.37109 3.76953 5.04883C4.61914 4.17969 6.35742 3.90625 7.88086 3.90625ZM4.23828 9.6875C3.93555 9.6875 3.7793 9.52148 3.7793 9.22852L3.7793 8.47656C3.7793 8.19336 3.93555 8.01758 4.23828 8.01758L4.99023 8.01758C5.2832 8.01758 5.43945 8.19336 5.43945 8.47656L5.43945 9.22852C5.43945 9.52148 5.2832 9.6875 4.99023 9.6875ZM6.41602 9.6875C6.12305 9.6875 5.94727 9.52148 5.94727 9.22852L5.94727 8.47656C5.94727 8.19336 6.12305 8.01758 6.41602 8.01758L7.16797 8.01758C7.45117 8.01758 7.62695 8.19336 7.62695 8.47656L7.62695 9.22852C7.62695 9.52148 7.45117 9.6875 7.16797 9.6875ZM8.58398 9.6875C8.30078 9.6875 8.125 9.52148 8.125 9.22852L8.125 8.47656C8.125 8.19336 8.30078 8.01758 8.58398 8.01758L9.33594 8.01758C9.62891 8.01758 9.80469 8.19336 9.80469 8.47656L9.80469 9.22852C9.80469 9.52148 9.62891 9.6875 9.33594 9.6875ZM10.752 9.6875C10.4785 9.6875 10.293 9.52148 10.293 9.22852L10.293 8.47656C10.293 8.19336 10.4785 8.01758 10.752 8.01758L11.4941 8.01758C11.7969 8.01758 11.9727 8.19336 11.9727 8.47656L11.9727 9.22852C11.9727 9.52148 11.7969 9.6875 11.4941 9.6875ZM4.22852 11.8652C3.93555 11.8652 3.7793 11.6992 3.7793 11.4062L3.7793 10.6641C3.7793 10.3613 3.93555 10.1953 4.22852 10.1953L4.98047 10.1953C5.2832 10.1953 5.43945 10.3613 5.43945 10.6641L5.43945 11.4062C5.43945 11.6992 5.2832 11.8652 4.98047 11.8652ZM6.39648 11.8652C6.11328 11.8652 5.94727 11.6992 5.94727 11.4062L5.94727 10.6641C5.94727 10.3613 6.11328 10.1953 6.39648 10.1953L9.3457 10.1953C9.63867 10.1953 9.81445 10.3613 9.81445 10.6641L9.81445 11.4062C9.81445 11.6992 9.63867 11.8652 9.3457 11.8652ZM10.7715 11.8652C10.4785 11.8652 10.3125 11.6992 10.3125 11.4062L10.3125 10.6641C10.3125 10.3613 10.4785 10.1953 10.7715 10.1953L11.5137 10.1953C11.8066 10.1953 11.9727 10.3613 11.9727 10.6641L11.9727 11.4062C11.9727 11.6992 11.8066 11.8652 11.5137 11.8652Z" fill="var(--color-primary)"/>
 </g>
</svg>
