<svg version="1.1" xmlns="http://www.w3.org/2000/svg" xmlns:xlink="http://www.w3.org/1999/xlink" viewBox="0 0 19.1159 15.7715">
 <g>
  <rect height="15.7715" opacity="0" width="19.1159" x="0" y="0"/>
  <path d="M9.37242 15.7617C13.7279 15.7617 17.263 12.2363 17.263 7.88086C17.263 3.52539 13.7279 0 9.37242 0C5.02672 0 1.49156 3.52539 1.49156 7.88086L2.9857 7.88086C2.9857 4.3457 5.83726 1.48438 9.37242 1.48438C12.9076 1.48438 15.7689 4.3457 15.7689 7.88086C15.7689 11.416 12.9076 14.2773 9.37242 14.2773C7.29234 14.2773 5.44664 13.2812 4.2943 11.7578C4.02086 11.3965 3.60094 11.2891 3.23961 11.5137C2.88805 11.7285 2.78062 12.2266 3.08336 12.6074C4.53844 14.5508 6.83336 15.7617 9.37242 15.7617ZM0.602889 6.35742C-0.0123451 6.35742-0.158829 6.77734 0.173202 7.24609L1.91148 9.7168C2.18492 10.0977 2.59508 10.0977 2.85875 9.7168L4.59703 7.23633C4.9193 6.77734 4.77281 6.35742 4.16734 6.35742Z" fill="var(--color-secondary)"/>
  <path d="M9.38219 11.5137C9.66539 11.5137 9.88023 11.2988 9.88023 11.0059L9.88023 6.54297L11.638 6.54297C11.8627 6.54297 12.0189 6.37695 12.0189 6.15234C12.0189 5.9375 11.8627 5.77148 11.638 5.77148L7.11656 5.77148C6.89195 5.77148 6.72594 5.9375 6.72594 6.15234C6.72594 6.37695 6.89195 6.54297 7.11656 6.54297L8.88414 6.54297L8.88414 11.0059C8.88414 11.2988 9.09898 11.5137 9.38219 11.5137ZM6.69664 4.6875C6.69664 4.84375 6.82359 4.96094 6.98961 4.96094L11.7357 4.96094C11.9017 4.96094 12.0189 4.83398 12.0189 4.6875C12.0189 4.53125 11.9017 4.41406 11.7357 4.41406L6.98961 4.41406C6.82359 4.41406 6.69664 4.53125 6.69664 4.6875Z" fill="var(--color-primary)"/>
 </g>
</svg>
