<svg version="1.1" xmlns="http://www.w3.org/2000/svg" xmlns:xlink="http://www.w3.org/1999/xlink" viewBox="0 0 17.6172 17.2754">
 <g>
  <rect height="17.2754" opacity="0" width="17.6172" x="0" y="0"/>
  <path d="M8.63281 17.2656C13.3594 17.2656 17.2559 13.3691 17.2559 8.63281C17.2559 3.89648 13.3594 0 8.63281 0C3.89648 0 0 3.89648 0 8.63281C0 13.3691 3.89648 17.2656 8.63281 17.2656ZM8.63281 14.3555C5.46875 14.3555 2.91016 11.7969 2.91016 8.63281C2.91016 5.46875 5.46875 2.91016 8.63281 2.91016C11.7871 2.91016 14.3457 5.46875 14.3457 8.63281C14.3457 11.7969 11.7871 14.3555 8.63281 14.3555Z" fill="var(--color-secondary)"/>
  <path d="M8.64258 12.2656C8.92578 12.2656 9.13086 12.0508 9.13086 11.7578L9.13086 7.29492L10.8887 7.29492C11.1133 7.29492 11.2793 7.12891 11.2793 6.9043C11.2793 6.68945 11.1133 6.52344 10.8887 6.52344L6.36719 6.52344C6.14258 6.52344 5.98633 6.68945 5.98633 6.9043C5.98633 7.12891 6.14258 7.29492 6.36719 7.29492L8.13477 7.29492L8.13477 11.7578C8.13477 12.0508 8.35938 12.2656 8.64258 12.2656ZM5.95703 5.43945C5.95703 5.5957 6.07422 5.71289 6.24023 5.71289L10.9863 5.71289C11.1523 5.71289 11.2793 5.58594 11.2793 5.43945C11.2793 5.2832 11.1523 5.16602 10.9863 5.16602L6.24023 5.16602C6.07422 5.16602 5.95703 5.2832 5.95703 5.43945Z" fill="var(--color-primary)"/>
 </g>
</svg>
