<svg version="1.1" xmlns="http://www.w3.org/2000/svg" xmlns:xlink="http://www.w3.org/1999/xlink" viewBox="0 0 15.5469 15.2051">
 <g>
  <rect height="15.2051" opacity="0" width="15.5469" x="0" y="0"/>
  <path d="M0.703125 5C1.16211 5 1.40625 4.74609 1.40625 4.28711L1.40625 2.53906C1.40625 1.80664 1.80664 1.42578 2.50977 1.42578L4.30664 1.42578C4.76562 1.42578 5.01953 1.17188 5.01953 0.722656C5.01953 0.263672 4.76562 0.00976562 4.30664 0.00976562L2.49023 0.00976562C0.830078 0.00976562 0 0.830078 0 2.4707L0 4.28711C0 4.74609 0.253906 5 0.703125 5ZM14.4824 5C14.9414 5 15.1855 4.74609 15.1855 4.28711L15.1855 2.4707C15.1855 0.830078 14.3652 0.00976562 12.6953 0.00976562L10.8789 0.00976562C10.4199 0.00976562 10.166 0.263672 10.166 0.722656C10.166 1.17188 10.4199 1.42578 10.8789 1.42578L12.6758 1.42578C13.3789 1.42578 13.7793 1.80664 13.7793 2.53906L13.7793 4.28711C13.7793 4.74609 14.0332 5 14.4824 5ZM2.49023 15.2051L4.30664 15.2051C4.76562 15.2051 5.01953 14.9512 5.01953 14.502C5.01953 14.043 4.76562 13.7891 4.30664 13.7891L2.50977 13.7891C1.80664 13.7891 1.40625 13.4082 1.40625 12.6758L1.40625 10.9375C1.40625 10.4688 1.15234 10.2148 0.703125 10.2148C0.244141 10.2148 0 10.4688 0 10.9375L0 12.7441C0 14.3848 0.830078 15.2051 2.49023 15.2051ZM10.8789 15.2051L12.6953 15.2051C14.3652 15.2051 15.1855 14.3848 15.1855 12.7441L15.1855 10.9375C15.1855 10.4688 14.9316 10.2148 14.4824 10.2148C14.0234 10.2148 13.7793 10.4688 13.7793 10.9375L13.7793 12.6758C13.7793 13.4082 13.3789 13.7891 12.6758 13.7891L10.8789 13.7891C10.4199 13.7891 10.166 14.043 10.166 14.502C10.166 14.9512 10.4199 15.2051 10.8789 15.2051Z" fill="var(--color-secondary)"/>
  <path d="M3.42773 4.63867C3.42773 4.96094 3.69141 5.22461 4.01367 5.22461L11.1719 5.22461C11.4941 5.22461 11.7578 4.96094 11.7578 4.63867C11.7578 4.31641 11.4941 4.05273 11.1719 4.05273L4.01367 4.05273C3.69141 4.05273 3.42773 4.31641 3.42773 4.63867ZM3.42773 7.59766C3.42773 7.91992 3.69141 8.18359 4.01367 8.18359L11.1719 8.18359C11.4941 8.18359 11.7578 7.91992 11.7578 7.59766C11.7578 7.27539 11.4941 7.01172 11.1719 7.01172L4.01367 7.01172C3.69141 7.01172 3.42773 7.27539 3.42773 7.59766ZM3.42773 10.5566C3.42773 10.8789 3.69141 11.1426 4.01367 11.1426L8.69141 11.1426C9.00391 11.1426 9.26758 10.8789 9.26758 10.5566C9.26758 10.2441 9.00391 9.98047 8.69141 9.98047L4.01367 9.98047C3.69141 9.98047 3.42773 10.2441 3.42773 10.5566Z" fill="var(--color-primary)"/>
 </g>
</svg>
