<svg version="1.1" xmlns="http://www.w3.org/2000/svg" xmlns:xlink="http://www.w3.org/1999/xlink" viewBox="0 0 15.9375 13.4277">
 <g>
  <rect height="13.4277" opacity="0" width="15.9375" x="0" y="0"/>
  <path d="M9.77539 12.0117C9.375 12.0117 9.0625 12.3242 9.0625 12.7148C9.0625 13.1055 9.375 13.418 9.77539 13.418L14.8633 13.418C15.2539 13.418 15.5762 13.1055 15.5762 12.7148C15.5762 12.3242 15.2539 12.0117 14.8633 12.0117ZM9.77539 8.00781C9.375 8.00781 9.0625 8.32031 9.0625 8.71094C9.0625 9.10156 9.375 9.41406 9.77539 9.41406L14.8633 9.41406C15.2539 9.41406 15.5762 9.10156 15.5762 8.71094C15.5762 8.32031 15.2539 8.00781 14.8633 8.00781ZM0.703125 4.00391C0.3125 4.00391 0 4.31641 0 4.70703C0 5.09766 0.3125 5.41016 0.703125 5.41016L14.8633 5.41016C15.2539 5.41016 15.5762 5.09766 15.5762 4.70703C15.5762 4.31641 15.2539 4.00391 14.8633 4.00391ZM0.703125 0C0.3125 0 0 0.3125 0 0.703125C0 1.09375 0.3125 1.40625 0.703125 1.40625L14.8633 1.40625C15.2539 1.40625 15.5762 1.09375 15.5762 0.703125C15.5762 0.3125 15.2539 0 14.8633 0Z" fill="var(--color-secondary)"/>
  <path d="M0.986328 7.44141C0.517578 7.44141 0.136719 7.82227 0.136719 8.29102L0.136719 9.74609C0.136719 10.8984 0.830078 11.543 2.06055 11.543L4.16016 11.543L4.16016 12.4609C4.16016 13.0176 4.64844 13.2617 5.09766 12.9199L7.45117 11.1133C7.77344 10.8691 7.77344 10.4102 7.45117 10.1562L5.09766 8.34961C4.64844 8.01758 4.16016 8.25195 4.16016 8.80859L4.16016 9.85352L2.1875 9.85352C1.96289 9.85352 1.83594 9.72656 1.83594 9.49219L1.83594 8.29102C1.83594 7.82227 1.46484 7.44141 0.986328 7.44141Z" fill="var(--color-primary)"/>
 </g>
</svg>
