<svg version="1.1" xmlns="http://www.w3.org/2000/svg" xmlns:xlink="http://www.w3.org/1999/xlink" viewBox="0 0 8.51562 17.0605">
 <g>
  <rect height="17.0605" opacity="0" width="8.51562" x="0" y="0"/>
  <path d="M4.08203 17.041C6.32812 17.041 8.1543 15.2148 8.1543 12.9688C8.1543 11.7871 7.66602 10.752 6.75781 9.91211C6.60156 9.76562 6.57227 9.6875 6.57227 9.48242L6.57227 2.72461C6.57227 1.09375 5.56641 0 4.08203 0C2.58789 0 1.57227 1.09375 1.57227 2.72461L1.57227 9.48242C1.57227 9.6875 1.54297 9.76562 1.39648 9.91211C0.488281 10.752 0 11.7871 0 12.9688C0 15.2148 1.82617 17.041 4.08203 17.041ZM4.08203 15.7715C2.5293 15.7715 1.2793 14.5117 1.2793 12.9688C1.2793 12.0215 1.73828 11.1621 2.53906 10.6348C2.76367 10.4883 2.85156 10.3613 2.85156 10.0586L2.85156 2.7832C2.85156 1.875 3.34961 1.2793 4.08203 1.2793C4.80469 1.2793 5.29297 1.875 5.29297 2.7832L5.29297 10.0586C5.29297 10.3613 5.39062 10.4883 5.61523 10.6348C6.40625 11.1621 6.875 12.0215 6.875 12.9688C6.875 14.5117 5.625 15.7715 4.08203 15.7715Z" fill="var(--color-primary)"/>
  <path d="M4.07227 14.7363C5.05859 14.7363 5.84961 13.9453 5.84961 12.959C5.84961 12.2754 5.45898 11.709 4.90234 11.4062C4.6582 11.2695 4.58008 11.1816 4.58008 10.8301L4.58008 8.06641C4.58008 7.7832 4.35547 7.55859 4.07227 7.55859C3.79883 7.55859 3.57422 7.7832 3.57422 8.06641L3.57422 10.8301C3.57422 11.1816 3.49609 11.2695 3.25195 11.4062C2.68555 11.709 2.30469 12.2754 2.30469 12.959C2.30469 13.9453 3.0957 14.7363 4.07227 14.7363ZM4.07227 6.81641C4.35547 6.81641 4.58008 6.58203 4.58008 6.30859C4.58008 6.02539 4.35547 5.80078 4.07227 5.80078C3.79883 5.80078 3.57422 6.02539 3.57422 6.30859C3.57422 6.58203 3.79883 6.81641 4.07227 6.81641ZM4.07227 5.04883C4.35547 5.04883 4.58008 4.81445 4.58008 4.54102C4.58008 4.25781 4.35547 4.0332 4.07227 4.0332C3.79883 4.0332 3.57422 4.25781 3.57422 4.54102C3.57422 4.81445 3.79883 5.04883 4.07227 5.04883ZM4.07227 3.29102C4.35547 3.29102 4.58008 3.05664 4.58008 2.7832C4.58008 2.5 4.35547 2.27539 4.07227 2.27539C3.79883 2.27539 3.57422 2.5 3.57422 2.7832C3.57422 3.05664 3.79883 3.29102 4.07227 3.29102Z" fill="var(--color-primary)"/>
 </g>
</svg>
