<svg version="1.1" xmlns="http://www.w3.org/2000/svg" xmlns:xlink="http://www.w3.org/1999/xlink" viewBox="0 0 16.1328 15.7715">
 <g>
  <rect height="15.7715" opacity="0" width="16.1328" x="0" y="0"/>
  <path d="M7.88086 15.7617C12.1875 15.7617 15.7715 12.1875 15.7715 7.88086C15.7715 3.57422 12.1973 0 7.89062 0C7.4707 0 7.24609 0.273438 7.24609 0.703125L7.24609 3.64258C7.24609 4.02344 7.50977 4.32617 7.88086 4.32617C8.26172 4.32617 8.52539 4.02344 8.52539 3.64258L8.52539 0.742188L7.89062 1.48438C11.4453 1.48438 14.2676 4.32617 14.2676 7.88086C14.2676 11.4355 11.4355 14.2773 7.88086 14.2773C4.33594 14.2773 1.48438 11.4355 1.49414 7.88086C1.50391 6.33789 2.03125 4.93164 2.92969 3.83789C3.19336 3.49609 3.21289 3.08594 2.91992 2.77344C2.62695 2.4707 2.14844 2.49023 1.82617 2.89062C0.693359 4.25781 0 5.99609 0 7.88086C0 12.1875 3.58398 15.7617 7.88086 15.7617Z" fill="var(--color-primary)"/>
  <path d="M7.88086 9.17969C8.60352 9.17969 9.17969 8.60352 9.17969 7.88086C9.17969 7.45117 8.97461 7.06055 8.63281 6.82617L4.81445 4.14062C4.4043 3.84766 3.97461 4.27734 4.24805 4.69727L6.73828 8.50586C7.00195 8.90625 7.40234 9.17969 7.88086 9.17969Z" fill="var(--color-primary)"/>
 </g>
</svg>
