<svg version="1.1" xmlns="http://www.w3.org/2000/svg" xmlns:xlink="http://www.w3.org/1999/xlink" viewBox="0 0 29.5508 21.6113">
 <g>
  <rect height="21.6113" opacity="0" width="29.5508" x="0" y="0"/>
  <path d="M20.8594 6.83594L20.9863 7.97852L27.1387 7.97852C28.4082 7.97852 29.1895 8.78906 29.1895 10.0781L29.1895 13.291C29.1895 14.5898 28.4082 15.3906 27.1387 15.3906L24.5657 15.3906C24.1989 16.4335 23.2188 17.1582 22.041 17.1582C20.8556 17.1582 19.8738 16.4335 19.5067 15.3906L8.3461 15.3906C7.98153 16.4335 7.00573 17.1582 5.82031 17.1582C4.63489 17.1582 3.65311 16.4335 3.28595 15.3906L2.05078 15.3906C0.78125 15.3906 0 14.5898 0 13.291L0 11.5039C0 9.70703 1.03516 8.71094 3.35938 8.34961L6.2207 7.89062L9.32617 5.94727C10.486 5.22399 11.5807 4.79636 12.9175 4.59707L12.9666 6.02244C11.9104 6.20802 11.0208 6.56461 10.0781 7.14844L6.69922 9.24805L3.53516 9.74609C2.06055 9.98047 1.40625 10.5176 1.40625 11.5039L1.40625 13.1055C1.40625 13.6523 1.68945 13.9844 2.12891 13.9844L3.16808 13.9844C3.38508 12.7069 4.47072 11.7676 5.82031 11.7676C7.1699 11.7676 8.24778 12.7069 8.46311 13.9844L19.3888 13.9844C19.6058 12.7069 20.6914 11.7676 22.041 11.7676C23.3819 11.7676 24.4666 12.7069 24.6835 13.9844L27.0605 13.9844C27.5098 13.9844 27.7832 13.6523 27.7832 13.1055L27.7832 10.2637C27.7832 9.72656 27.5098 9.39453 27.0605 9.39453L19.7168 9.39453L19.4531 7.02148C19.3652 6.24023 18.9258 5.85938 18.125 5.85938L16.8534 5.85938L16.9023 4.44336L18.2031 4.44336C19.7949 4.44336 20.6738 5.23438 20.8594 6.83594ZM4.54102 14.4629C4.54102 15.1855 5.09766 15.7422 5.82031 15.7422C6.54297 15.7422 7.09961 15.1855 7.09961 14.4629C7.09961 13.7402 6.54297 13.1836 5.82031 13.1836C5.09766 13.1836 4.54102 13.7402 4.54102 14.4629ZM20.752 14.4629C20.752 15.1855 21.3184 15.7422 22.041 15.7422C22.7637 15.7422 23.3203 15.1855 23.3203 14.4629C23.3203 13.7402 22.7637 13.1836 22.041 13.1836C21.3184 13.1836 20.752 13.7402 20.752 14.4629Z" fill="var(--color-primary)"/>
  <path d="M14.9023 11.6895C15.5078 11.6895 16.0059 11.2012 16.0059 10.6348C16.0059 10.0586 15.5176 9.58008 14.9023 9.58008C14.2969 9.58008 13.8086 10.0586 13.8086 10.6348C13.8086 11.2012 14.3066 11.6895 14.9023 11.6895ZM14.9023 8.20312C15.3418 8.20312 15.6348 7.90039 15.6543 7.45117L15.8398 2.08008C15.8594 1.51367 15.4883 1.14258 14.9023 1.14258C14.3262 1.14258 13.9551 1.51367 13.9746 2.08008L14.1602 7.45117C14.1797 7.90039 14.4727 8.20312 14.9023 8.20312Z" fill="var(--color-primary)"/>
 </g>
</svg>
