<svg version="1.1" xmlns="http://www.w3.org/2000/svg" xmlns:xlink="http://www.w3.org/1999/xlink" viewBox="0 0 29.5508 14.5996">
 <g>
  <rect height="14.5996" opacity="0" width="29.5508" x="0" y="0"/>
  <path d="M20.8594 3.33008L20.9863 4.47266L27.1387 4.47266C28.4082 4.47266 29.1895 5.2832 29.1895 6.57227L29.1895 9.78516C29.1895 11.084 28.4082 11.8848 27.1387 11.8848L24.5657 11.8848C24.1989 12.9276 23.2188 13.6523 22.041 13.6523C20.8556 13.6523 19.8738 12.9276 19.5067 11.8848L8.3461 11.8848C7.98153 12.9276 7.00573 13.6523 5.82031 13.6523C4.63489 13.6523 3.65311 12.9276 3.28595 11.8848L2.05078 11.8848C0.78125 11.8848 0 11.084 0 9.78516L0 7.99805C0 6.20117 1.03516 5.20508 3.35938 4.84375L5.14075 4.558L6.11025 5.8349L3.53516 6.24023C2.06055 6.47461 1.40625 7.01172 1.40625 7.99805L1.40625 9.59961C1.40625 10.1465 1.68945 10.4785 2.12891 10.4785L3.16808 10.4785C3.38508 9.20106 4.47072 8.26172 5.82031 8.26172C7.1699 8.26172 8.24778 9.20106 8.46311 10.4785L19.3888 10.4785C19.6058 9.20106 20.6914 8.26172 22.041 8.26172C23.3819 8.26172 24.4666 9.20106 24.6835 10.4785L27.0605 10.4785C27.5098 10.4785 27.7832 10.1465 27.7832 9.59961L27.7832 6.75781C27.7832 6.2207 27.5098 5.88867 27.0605 5.88867L19.7168 5.88867L19.4531 3.51562C19.3652 2.73438 18.9258 2.35352 18.125 2.35352L15.1172 2.35352C12.9688 2.35352 11.5918 2.70508 10.0781 3.64258L9.0937 4.25429L8.23131 3.12655L9.32617 2.44141C11.0645 1.35742 12.6562 0.9375 15.1172 0.9375L18.2031 0.9375C19.7949 0.9375 20.6738 1.72852 20.8594 3.33008ZM4.54102 10.957C4.54102 11.6797 5.09766 12.2363 5.82031 12.2363C6.54297 12.2363 7.09961 11.6797 7.09961 10.957C7.09961 10.2344 6.54297 9.67773 5.82031 9.67773C5.09766 9.67773 4.54102 10.2344 4.54102 10.957ZM20.752 10.957C20.752 11.6797 21.3184 12.2363 22.041 12.2363C22.7637 12.2363 23.3203 11.6797 23.3203 10.957C23.3203 10.2344 22.7637 9.67773 22.041 9.67773C21.3184 9.67773 20.752 10.2344 20.752 10.957Z" fill="var(--color-secondary)"/>
  <path d="M1.78711 2.36328L3.61328 2.36328C4.48242 2.36328 4.77539 2.49023 5.21484 3.06641L7.22656 5.71289C7.91992 6.62109 8.70117 7.02148 9.83398 7.02148L11.5625 7.02148L11.5625 7.59766C11.5625 8.21289 12.0898 8.38867 12.5488 8.0957L14.4824 6.85547C14.9023 6.5918 14.9121 6.06445 14.4824 5.79102L12.5488 4.55078C12.0898 4.24805 11.5625 4.42383 11.5625 5.04883L11.5625 5.61523L9.83398 5.61523C9.10156 5.61523 8.82812 5.46875 8.34961 4.84375L6.31836 2.19727C5.64453 1.30859 4.83398 0.957031 3.61328 0.957031L1.78711 0.957031C1.39648 0.957031 1.07422 1.26953 1.07422 1.66016C1.07422 2.04102 1.39648 2.36328 1.78711 2.36328Z" fill="var(--color-primary)"/>
 </g>
</svg>
