<svg version="1.1" xmlns="http://www.w3.org/2000/svg" xmlns:xlink="http://www.w3.org/1999/xlink" viewBox="0 0 27.5098 20.5176">
 <g>
  <rect height="20.5176" opacity="0" width="27.5098" x="0" y="0"/>
  <path d="M1.9043 15.1172L2.66602 15.1172C2.60742 14.8438 2.57812 14.6484 2.57812 14.375C2.57812 12.7637 3.86719 11.5723 5.41016 11.5723C7.05078 11.5723 8.25195 12.832 8.25195 14.4043C8.25195 14.6484 8.22266 14.8438 8.1543 15.1172L17.7441 15.1172C17.6953 14.8828 17.666 14.6484 17.666 14.375C17.666 12.7637 18.9551 11.5723 20.498 11.5723C22.1387 11.5723 23.3398 12.832 23.3398 14.4043C23.3398 14.6777 23.3203 14.873 23.2422 15.1172L25.2441 15.1172C26.416 15.1172 27.1484 14.375 27.1484 13.1641L27.1484 10.3516C27.1484 9.14062 26.416 8.39844 25.2441 8.39844L19.5703 8.39844L19.4043 6.99219C19.2285 5.50781 18.418 4.76562 16.9238 4.76562L14.0527 4.76562C11.7676 4.76562 10.293 5.13672 8.67188 6.15234L5.78125 7.96875L3.125 8.38867C0.957031 8.74023 0 9.64844 0 11.3281L0 13.1641C0 14.375 0.722656 15.1172 1.9043 15.1172ZM5.41016 16.2793C6.46484 16.2793 7.29492 15.4492 7.29492 14.4043C7.29492 13.3594 6.46484 12.5293 5.41016 12.5293C4.375 12.5293 3.53516 13.3594 3.53516 14.4043C3.53516 15.4395 4.375 16.2793 5.41016 16.2793ZM20.498 16.2793C21.543 16.2793 22.3828 15.4395 22.3828 14.4043C22.3828 13.3594 21.543 12.5293 20.498 12.5293C19.4629 12.5293 18.623 13.3691 18.623 14.4043C18.623 15.4395 19.4531 16.2793 20.498 16.2793Z" fill="var(--color-secondary)"/>
  <path d="M11.2012 3.62305L17.7539 3.62305C18.3887 3.62305 18.75 3.20312 18.75 2.55859L18.75 1.79688C18.75 0.595703 18.1445 0 16.8066 0L16.2109 0C14.834 0 14.0625 0.15625 12.4512 1.01562L10.9277 1.8457C10.4395 2.09961 10.2441 2.38281 10.2441 2.74414C10.2441 3.31055 10.5273 3.62305 11.2012 3.62305Z" fill="var(--color-primary)"/>
 </g>
</svg>
