<svg version="1.1" xmlns="http://www.w3.org/2000/svg" xmlns:xlink="http://www.w3.org/1999/xlink" viewBox="0 0 16.1328 15.7715">
 <g>
  <rect height="15.7715" opacity="0" width="16.1328" x="0" y="0"/>
  <path d="M15.7715 7.88086C15.7715 12.2266 12.2363 15.7617 7.88086 15.7617C3.53516 15.7617 0 12.2266 0 7.88086C0 3.53516 3.53516 0 7.88086 0C12.2363 0 15.7715 3.53516 15.7715 7.88086ZM5.49805 4.43359C5.20508 4.43359 5.01953 4.60938 5.01953 4.88281C5.01953 5.15625 5.21484 5.33203 5.49805 5.33203L7.37305 5.33203L7.37305 7.67578L6.09375 8.18359C5.94727 8.25195 5.87891 8.34961 5.87891 8.47656C5.87891 8.64258 6.00586 8.75977 6.16211 8.75977C6.21094 8.75977 6.26953 8.75 6.32812 8.73047L7.37305 8.31055L7.37305 9.26758L6.09375 9.77539C5.94727 9.83398 5.87891 9.92188 5.87891 10.0586C5.87891 10.2246 6.00586 10.3418 6.16211 10.3418C6.21094 10.3418 6.26953 10.332 6.32812 10.3125L7.37305 9.90234L7.37305 11.2109C7.37305 11.543 7.56836 11.7188 7.89062 11.7188C8.21289 11.7188 8.4082 11.543 8.4082 11.2109L8.4082 9.48242L9.6875 8.97461C9.83398 8.90625 9.89258 8.81836 9.89258 8.68164C9.89258 8.48633 9.76562 8.38867 9.61914 8.38867C9.57031 8.38867 9.51172 8.39844 9.46289 8.41797L8.4082 8.84766L8.4082 7.90039L9.6875 7.38281C9.83398 7.32422 9.89258 7.23633 9.89258 7.09961C9.89258 6.89453 9.76562 6.80664 9.61914 6.80664C9.57031 6.80664 9.51172 6.81641 9.46289 6.83594L8.4082 7.26562L8.4082 5.33203L10.2832 5.33203C10.5859 5.33203 10.7617 5.13672 10.7617 4.88281C10.7617 4.60938 10.5762 4.43359 10.2832 4.43359Z" fill="var(--color-primary)"/>
 </g>
</svg>
