<svg version="1.1" xmlns="http://www.w3.org/2000/svg" xmlns:xlink="http://www.w3.org/1999/xlink" viewBox="0 0 16.1328 15.7715">
 <g>
  <rect height="15.7715" opacity="0" width="16.1328" x="0" y="0"/>
  <path d="M7.88086 15.7617C12.2363 15.7617 15.7715 12.2266 15.7715 7.88086C15.7715 3.53516 12.2363 0 7.88086 0C3.53516 0 0 3.53516 0 7.88086C0 12.2266 3.53516 15.7617 7.88086 15.7617Z" fill="var(--color-tertiary)"/>
  <path d="M5.72266 11.6309C5.27344 11.6309 4.96094 11.3867 4.84375 10.9375L3.29102 5.00977C3.26172 4.92188 3.25195 4.82422 3.25195 4.74609C3.25195 4.33594 3.52539 4.05273 3.94531 4.05273C4.375 4.05273 4.57031 4.25781 4.67773 4.77539L5.79102 9.57031L5.84961 9.57031L7.09961 4.63867C7.19727 4.25781 7.46094 4.0625 7.88086 4.0625C8.30078 4.0625 8.55469 4.25781 8.66211 4.63867L9.91211 9.57031L9.9707 9.57031L11.084 4.77539C11.2012 4.25781 11.3965 4.05273 11.8262 4.05273C12.2461 4.05273 12.5098 4.33594 12.5098 4.74609C12.5098 4.82422 12.5 4.92188 12.4805 5.00977L10.918 10.9375C10.8008 11.3867 10.4883 11.6309 10.0293 11.6309C9.56055 11.6309 9.22852 11.3965 9.13086 10.9473L7.91016 6.16211L7.85156 6.16211L6.63086 10.9473C6.52344 11.3965 6.20117 11.6309 5.72266 11.6309Z" fill="var(--color-primary)"/>
 </g>
</svg>
