<svg version="1.1" xmlns="http://www.w3.org/2000/svg" xmlns:xlink="http://www.w3.org/1999/xlink" viewBox="0 0 12.8613 15.6934">
 <g>
  <rect height="15.6934" opacity="0" width="12.8613" x="0" y="0"/>
  <path d="M6.25977 12.5098C9.70703 12.5098 12.5 9.7168 12.5 6.25977C12.5 2.80273 9.70703 0 6.25977 0C2.80273 0 0 2.80273 0 6.25977C0 9.7168 2.80273 12.5098 6.25977 12.5098ZM5.55664 14.9805L6.96289 14.9805L6.96289 11.8652L5.55664 11.8652ZM3.53516 15.6836L8.97461 15.6836C9.36523 15.6836 9.67773 15.3613 9.67773 14.9805C9.67773 14.5898 9.36523 14.2773 8.97461 14.2773L3.53516 14.2773C3.1543 14.2773 2.83203 14.5898 2.83203 14.9805C2.83203 15.3613 3.1543 15.6836 3.53516 15.6836Z" fill="var(--color-tertiary)"/>
  <path d="M6.25977 10.0293C4.15039 10.0293 2.49023 8.35938 2.49023 6.25977C2.49023 4.15039 4.15039 2.49023 6.25977 2.49023C8.35938 2.49023 10.0195 4.15039 10.0195 6.25977C10.0195 8.35938 8.35938 10.0293 6.25977 10.0293ZM6.25977 8.01758C7.23633 8.01758 7.99805 7.23633 7.99805 6.25977C7.99805 5.2832 7.23633 4.50195 6.25977 4.50195C5.27344 4.50195 4.50195 5.2832 4.50195 6.25977C4.50195 7.23633 5.27344 8.01758 6.25977 8.01758Z" fill="var(--color-primary)"/>
 </g>
</svg>
