<svg version="1.1" xmlns="http://www.w3.org/2000/svg" xmlns:xlink="http://www.w3.org/1999/xlink" viewBox="0 0 22.7325 17.002">
 <g>
  <rect height="17.002" opacity="0" width="22.7325" x="0" y="0"/>
  <path d="M21.7666 2.93945C22.4795 3.49609 22.5674 4.25781 21.9912 4.98047L17.2876 10.9614C17.3053 10.8317 17.3135 10.693 17.3135 10.5469C17.3135 9.94224 17.151 9.508 16.9445 9.10577L20.585 4.48242C20.7315 4.28711 20.7119 4.12109 20.5069 3.97461C17.8506 2.31445 14.5889 1.40625 11.1807 1.40625C7.7725 1.40625 4.51078 2.31445 1.85453 3.97461C1.64945 4.12109 1.62992 4.28711 1.7764 4.48242L6.35648 10.2832C6.45414 10.4199 6.53226 10.4395 6.67875 10.3809C6.92644 10.279 7.17413 10.1843 7.42037 10.0996C7.45828 10.2358 7.47953 10.3826 7.47953 10.5469C7.47953 10.9845 7.37946 11.3399 7.23411 11.6649C7.04321 11.7492 6.86108 11.8393 6.68851 11.9336C6.32718 12.1289 5.92679 12.0508 5.69242 11.748L0.370152 4.98047C-0.196254 4.25781-0.108363 3.49609 0.604527 2.93945C2.7139 1.28906 6.7764 1.77636e-15 11.1807 1.77636e-15C15.585 1.77636e-15 19.6573 1.28906 21.7666 2.93945ZM15.6436 10.3613C15.8389 10.4395 15.917 10.4102 16.0635 10.2246L16.1317 10.138C16.1632 10.2633 16.1807 10.3979 16.1807 10.5469C16.1807 11.1283 16.0041 11.5646 15.783 11.9798C15.7494 11.9672 15.7159 11.9516 15.6827 11.9336C14.8974 11.5047 13.9104 11.1618 12.9319 10.9634C12.9497 10.8331 12.958 10.6937 12.958 10.5469C12.958 10.139 12.8841 9.80867 12.7724 9.51359C13.6978 9.67526 14.6802 9.96499 15.6436 10.3613ZM11.4318 9.37349C11.6544 9.74018 11.835 10.0698 11.835 10.5469C11.835 10.6356 11.8309 10.721 11.8221 10.8025C11.6017 10.7812 11.3875 10.7715 11.1807 10.7715C10.3656 10.7715 9.43714 10.9226 8.55607 11.184C8.59197 10.9878 8.61234 10.7766 8.61234 10.5469C8.61234 10.2479 8.57261 9.99063 8.50667 9.75908C9.45917 9.50138 10.3714 9.36523 11.1807 9.36523C11.2625 9.36523 11.3452 9.3666 11.4318 9.37349Z" fill="var(--color-secondary)"/>
  <path d="M5.16507 6.09375C4.97953 6.35742 5.14554 6.72852 5.49711 6.72852L8.16312 6.72852C8.52445 6.72852 8.6807 6.35742 8.50492 6.09375L7.20609 4.19922C7.10843 4.05273 6.98148 3.98438 6.835 3.98438C6.67875 3.98438 6.55179 4.05273 6.45414 4.19922ZM7.86039 15.7324C7.48929 15.2344 7.35257 14.9219 7.35257 14.3652C7.35257 13.0176 8.61234 12.3535 8.61234 10.5469C8.61234 8.89648 7.4014 8.51563 7.4014 6.58203L7.4014 6.26953L6.26859 6.26953L6.26859 6.58203C6.26859 9.0625 7.47953 9.30664 7.47953 10.5469C7.47953 12.0996 6.21976 12.6172 6.21976 14.4629C6.21976 15.1758 6.43461 15.7422 6.94242 16.3965C7.41117 16.9922 8.35843 16.3965 7.86039 15.7324ZM9.51078 6.09375C9.335 6.35742 9.49125 6.72852 9.85257 6.72852L12.5186 6.72852C12.8702 6.72852 13.0362 6.35742 12.8506 6.09375L11.5616 4.19922C11.4639 4.05273 11.3369 3.98438 11.1807 3.98438C11.0342 3.98438 10.9073 4.05273 10.8096 4.19922ZM12.2061 15.7324C11.835 15.2344 11.6983 14.9219 11.6983 14.3652C11.6983 13.0176 12.958 12.3535 12.958 10.5469C12.958 8.89648 11.7471 8.51563 11.7471 6.58203L11.7471 6.26953L10.6143 6.26953L10.6143 6.58203C10.6143 9.0625 11.835 9.30664 11.835 10.5469C11.835 12.0996 10.5752 12.6172 10.5752 14.4629C10.5752 15.1758 10.7901 15.7422 11.2979 16.3965C11.7666 16.9922 12.7041 16.3965 12.2061 15.7324ZM13.8662 6.09375C13.6905 6.35742 13.8467 6.72852 14.1983 6.72852L16.8643 6.72852C17.2256 6.72852 17.3819 6.35742 17.2061 6.09375L15.9073 4.19922C15.8096 4.05273 15.6924 3.98438 15.5362 3.98438C15.3799 3.98438 15.2627 4.05273 15.1651 4.19922ZM16.5616 15.7324C16.1905 15.2344 16.0537 14.9219 16.0537 14.3652C16.0537 13.0176 17.3135 12.3535 17.3135 10.5469C17.3135 8.89648 16.1026 8.51563 16.1026 6.58203L16.1026 6.26953L14.9698 6.26953L14.9698 6.58203C14.9698 9.0625 16.1807 9.30664 16.1807 10.5469C16.1807 12.0996 14.9209 12.6172 14.9209 14.4629C14.9209 15.1758 15.1358 15.7422 15.6436 16.3965C16.1221 16.9922 17.0596 16.3965 16.5616 15.7324Z" fill="var(--color-primary)"/>
 </g>
</svg>
