<svg version="1.1" xmlns="http://www.w3.org/2000/svg" xmlns:xlink="http://www.w3.org/1999/xlink" viewBox="0 0 24.043 16.4355">
 <g>
  <rect height="16.4355" opacity="0" width="24.043" x="0" y="0"/>
  <path d="M5.2832 15.7129L6.68945 15.7129L6.68945 1.62109C6.68945 1.49414 6.76758 1.40625 6.88477 1.40625L16.7969 1.40625C16.9141 1.40625 16.9922 1.49414 16.9922 1.62109L16.9922 15.7129L18.3984 15.7129L18.3984 15.4297L22.4512 15.8008C23.2812 15.8789 23.6816 15.3125 23.6816 14.5996L23.6816 1.37695C23.6816 0.664062 23.2812 0.107422 22.4512 0.175781L18.1934 0.566406L18.1738 0.507812C17.9688 0.185547 17.5684 0 17.0996 0L6.58203 0C6.10352 0 5.71289 0.185547 5.50781 0.507812L5.48828 0.566406L1.23047 0.175781C0.390625 0.107422 0 0.664062 0 1.37695L0 14.5996C0 15.3125 0.390625 15.8789 1.23047 15.8008L5.2832 15.4297ZM1.33789 14.3066L1.33789 11.2988C1.33789 11.2305 1.39648 11.1621 1.47461 11.1621L5.2832 11.0547L5.2832 14.1797L1.51367 14.4629C1.40625 14.4727 1.33789 14.4238 1.33789 14.3066ZM1.33789 9.6582L1.33789 6.32812C1.33789 6.24023 1.39648 6.17188 1.48438 6.17188L5.2832 6.2793L5.2832 9.70703L1.48438 9.80469C1.39648 9.80469 1.33789 9.73633 1.33789 9.6582ZM1.33789 4.67773L1.33789 1.66992C1.33789 1.5625 1.40625 1.51367 1.51367 1.52344L5.2832 1.79688L5.2832 4.92188L1.47461 4.82422C1.39648 4.82422 1.33789 4.75586 1.33789 4.67773ZM18.3984 14.1797L18.3984 11.0547L22.207 11.1621C22.2852 11.1621 22.3438 11.2305 22.3438 11.2988L22.3438 14.3066C22.3438 14.4238 22.2754 14.4727 22.168 14.4629ZM18.3984 9.70703L18.3984 6.2793L22.1973 6.17188C22.2852 6.17188 22.3438 6.24023 22.3438 6.32812L22.3438 9.6582C22.3438 9.73633 22.2852 9.80469 22.1973 9.80469ZM18.3984 4.92188L18.3984 1.79688L22.168 1.52344C22.2754 1.51367 22.3438 1.5625 22.3438 1.66992L22.3438 4.67773C22.3438 4.75586 22.2852 4.82422 22.207 4.82422ZM4.17969 15.7129C4.17969 16.1035 4.50195 16.4258 4.89258 16.4258L18.7988 16.4258C19.1895 16.4258 19.502 16.1035 19.502 15.7129C19.502 15.332 19.1895 15.0098 18.7988 15.0098L4.89258 15.0098C4.50195 15.0098 4.17969 15.332 4.17969 15.7129ZM11.4648 15.7129L12.5977 15.7129L12.5977 0.712891L11.4648 0.712891Z" fill="var(--color-primary)"/>
 </g>
</svg>
