<svg version="1.1" xmlns="http://www.w3.org/2000/svg" xmlns:xlink="http://www.w3.org/1999/xlink" viewBox="0 0 16.1328 15.7715">
 <g>
  <rect height="15.7715" opacity="0" width="16.1328" x="0" y="0"/>
  <path d="M7.88086 15.7617C12.2363 15.7617 15.7715 12.2266 15.7715 7.88086C15.7715 3.53516 12.2363 0 7.88086 0C3.53516 0 0 3.53516 0 7.88086C0 12.2266 3.53516 15.7617 7.88086 15.7617Z" fill="var(--color-tertiary)"/>
  <path d="M5.83984 11.6309C5.46875 11.6309 5.21484 11.416 5.14648 11.0645L4.58008 8.20312L3.58398 8.20312C3.41797 8.20312 3.29102 8.07617 3.29102 7.90039C3.29102 7.73438 3.41797 7.61719 3.58398 7.61719L4.46289 7.61719L3.93555 4.95117C3.91602 4.86328 3.90625 4.75586 3.90625 4.69727C3.90625 4.41406 4.10156 4.23828 4.41406 4.23828C4.66797 4.23828 4.87305 4.4043 4.91211 4.6582L5.41992 7.61719L6.61133 7.61719L7.35352 4.70703C7.43164 4.41406 7.62695 4.23828 7.89062 4.23828C8.17383 4.23828 8.35938 4.4043 8.42773 4.6875L9.16992 7.61719L10.3613 7.61719L10.8594 4.6582C10.9082 4.38477 11.123 4.23828 11.3574 4.23828C11.6309 4.23828 11.8652 4.39453 11.8652 4.69727C11.8652 4.79492 11.8555 4.89258 11.8457 4.95117L11.3086 7.61719L12.1875 7.61719C12.3633 7.61719 12.4902 7.73438 12.4902 7.90039C12.4902 8.07617 12.3633 8.20312 12.1875 8.20312L11.2012 8.20312L10.625 11.0645C10.5566 11.4355 10.3027 11.6309 9.94141 11.6309C9.58984 11.6309 9.35547 11.4355 9.25781 11.084L8.51562 8.20312L7.25586 8.20312L6.51367 11.084C6.41602 11.4258 6.16211 11.6309 5.83984 11.6309ZM5.51758 8.20312L5.87891 10.3125L5.91797 10.3125L6.46484 8.20312ZM7.40234 7.61719L8.36914 7.61719L7.91016 5.83984L7.86133 5.83984ZM9.32617 8.20312L9.86328 10.3125L9.90234 10.3125L10.2637 8.20312Z" fill="var(--color-primary)"/>
 </g>
</svg>
