<svg version="1.1" xmlns="http://www.w3.org/2000/svg" xmlns:xlink="http://www.w3.org/1999/xlink" viewBox="0 0 14.6582 14.3066">
 <g>
  <rect height="14.3066" opacity="0" width="14.6582" x="0" y="0"/>
  <path d="M13.3789 0.927734C14.1992 1.75781 14.2969 2.91016 14.2969 4.16992L14.2969 10.127C14.2969 11.3867 14.1992 12.5391 13.3789 13.3691C12.5488 14.1895 11.377 14.2969 10.127 14.2969L4.16992 14.2969C2.91016 14.2969 1.74805 14.1895 0.917969 13.3691C0.0976562 12.5391 0 11.3867 0 10.127L0 4.16992C0 2.91992 0.0976562 1.75781 0.917969 0.927734C1.74805 0.107422 2.91992 0 4.16992 0L10.127 0C11.377 0 12.5488 0.107422 13.3789 0.927734ZM9.22852 4.07227L7.12891 6.15234L5.04883 4.08203C4.92188 3.95508 4.75586 3.88672 4.56055 3.88672C4.16016 3.88672 3.84766 4.18945 3.84766 4.59961C3.84766 4.78516 3.91602 4.96094 4.05273 5.09766L6.11328 7.1582L4.05273 9.21875C3.91602 9.35547 3.84766 9.53125 3.84766 9.7168C3.84766 10.127 4.16016 10.4492 4.56055 10.4492C4.75586 10.4492 4.94141 10.3809 5.07812 10.2441L7.12891 8.17383L9.18945 10.2441C9.31641 10.3809 9.50195 10.4492 9.69727 10.4492C10.1074 10.4492 10.4199 10.127 10.4199 9.7168C10.4199 9.52148 10.3613 9.3457 10.2148 9.20898L8.1543 7.1582L10.2246 5.08789C10.3711 4.94141 10.4297 4.77539 10.4297 4.58008C10.4297 4.17969 10.1074 3.86719 9.7168 3.86719C9.53125 3.86719 9.36523 3.93555 9.22852 4.07227Z" fill="var(--color-primary)"/>
 </g>
</svg>
