<svg version="1.1" xmlns="http://www.w3.org/2000/svg" xmlns:xlink="http://www.w3.org/1999/xlink" viewBox="0 0 16.1328 15.7715">
 <g>
  <rect height="15.7715" opacity="0" width="16.1328" x="0" y="0"/>
  <path d="M7.88086 15.7715C12.2363 15.7715 15.7715 12.2363 15.7715 7.89062C15.7715 3.54492 12.2363 0.00976562 7.88086 0.00976562C3.53516 0.00976562 0 3.54492 0 7.89062C0 12.2363 3.53516 15.7715 7.88086 15.7715Z" fill="var(--color-tertiary)"/>
  <path d="M5.66406 12.3633C4.82422 12.3633 4.49219 11.9238 4.36523 11.0742L3.80859 7.19727L11.9629 7.19727L11.4062 11.0742C11.2793 11.9238 10.9473 12.3633 10.1074 12.3633ZM6.68945 11.2598C6.79688 11.2598 6.88477 11.2109 6.94336 11.1523L7.87109 10.2246L8.81836 11.1523C8.88672 11.2012 8.96484 11.2598 9.08203 11.2598C9.26758 11.2598 9.44336 11.084 9.44336 10.8887C9.44336 10.7812 9.39453 10.7031 9.33594 10.6348L8.4082 9.69727L9.33594 8.75977C9.41406 8.68164 9.45312 8.60352 9.45312 8.50586C9.45312 8.29102 9.28711 8.13477 9.08203 8.13477C8.97461 8.13477 8.89648 8.17383 8.82812 8.24219L7.87109 9.17969L6.93359 8.24219C6.875 8.17383 6.79688 8.14453 6.68945 8.14453C6.48438 8.14453 6.31836 8.30078 6.31836 8.50586C6.31836 8.61328 6.36719 8.69141 6.43555 8.75977L7.36328 9.69727L6.43555 10.6348C6.36719 10.7031 6.31836 10.7812 6.31836 10.8887C6.31836 11.084 6.48438 11.2598 6.68945 11.2598ZM3.65234 6.49414C3.1543 6.49414 2.90039 6.21094 2.90039 5.72266L2.90039 5.37109C2.90039 4.87305 3.17383 4.58008 3.65234 4.58008L12.1191 4.58008C12.6172 4.58008 12.8711 4.87305 12.8711 5.37109L12.8711 5.72266C12.8711 6.21094 12.6172 6.49414 12.1191 6.49414Z" fill="var(--color-primary)"/>
 </g>
</svg>
