<svg version="1.1" xmlns="http://www.w3.org/2000/svg" xmlns:xlink="http://www.w3.org/1999/xlink" viewBox="0 0 13.0273 15.498">
 <g>
  <rect height="15.498" opacity="0" width="13.0273" x="0" y="0"/>
  <path d="M6.98242 0.302734C7.75391 0.566406 10.918 1.69922 11.6992 2.03125C12.2949 2.28516 12.666 2.5293 12.666 3.31055L12.666 9.0918C12.666 11.9238 11.2305 13.1445 6.8457 15.3613C6.63086 15.4688 6.44531 15.498 6.33789 15.498C6.2207 15.498 6.03516 15.4785 5.83008 15.3613C1.52344 12.9883 0 11.9238 0 9.0918L0 3.31055C0 2.5293 0.371094 2.27539 0.966797 2.03125C1.74805 1.70898 4.90234 0.537109 5.68359 0.302734C5.88867 0.244141 6.11328 0.195312 6.33789 0.195312C6.55273 0.195312 6.77734 0.234375 6.98242 0.302734ZM8.42773 4.51172L6.33789 6.5918L4.25781 4.52148C4.12109 4.39453 3.96484 4.32617 3.75977 4.32617C3.36914 4.32617 3.04688 4.62891 3.04688 5.03906C3.04688 5.22461 3.125 5.40039 3.26172 5.53711L5.32227 7.59766L3.26172 9.6582C3.125 9.78516 3.04688 9.9707 3.04688 10.1562C3.04688 10.5566 3.36914 10.8887 3.75977 10.8887C3.96484 10.8887 4.15039 10.8105 4.28711 10.6836L6.33789 8.61328L8.39844 10.6836C8.51562 10.8105 8.70117 10.8887 8.90625 10.8887C9.30664 10.8887 9.62891 10.5566 9.62891 10.1562C9.62891 9.96094 9.56055 9.78516 9.42383 9.64844L7.36328 7.59766L9.43359 5.52734C9.58008 5.37109 9.63867 5.21484 9.63867 5.01953C9.63867 4.61914 9.31641 4.30664 8.92578 4.30664C8.73047 4.30664 8.57422 4.36523 8.42773 4.51172Z" fill="var(--color-primary)"/>
 </g>
</svg>
