<svg version="1.1" xmlns="http://www.w3.org/2000/svg" xmlns:xlink="http://www.w3.org/1999/xlink" viewBox="0 0 13.3691 16.4746">
 <g>
  <rect height="16.4746" opacity="0" width="13.3691" x="0" y="0"/>
  <path d="M0 13.9746C0 15.6445 0.810547 16.4648 2.45117 16.4648L10.5469 16.4648C12.1875 16.4648 13.0078 15.6445 13.0078 13.9746L13.0078 2.49023C13.0078 0.830078 12.1875 0 10.5469 0L2.45117 0C0.810547 0 0 0.830078 0 2.49023Z" fill="var(--color-tertiary)"/>
  <path d="M3.93555 11.5332C3.53516 11.5332 3.21289 11.2109 3.21289 10.8008C3.21289 10.6152 3.29102 10.4395 3.42773 10.3027L5.48828 8.24219L3.42773 6.18164C3.29102 6.04492 3.21289 5.86914 3.21289 5.68359C3.21289 5.2832 3.53516 4.9707 3.93555 4.9707C4.13086 4.9707 4.28711 5.03906 4.42383 5.16602L6.50391 7.23633L8.60352 5.15625C8.74023 5.01953 8.89648 4.95117 9.0918 4.95117C9.48242 4.95117 9.80469 5.27344 9.80469 5.66406C9.80469 5.85938 9.74609 6.02539 9.59961 6.17188L7.5293 8.24219L9.58984 10.293C9.72656 10.4297 9.79492 10.6055 9.79492 10.8008C9.79492 11.2109 9.47266 11.5332 9.07227 11.5332C8.87695 11.5332 8.68164 11.4648 8.56445 11.3281L6.50391 9.25781L4.45312 11.3281C4.31641 11.4648 4.13086 11.5332 3.93555 11.5332Z" fill="var(--color-primary)"/>
 </g>
</svg>
