<svg version="1.1" xmlns="http://www.w3.org/2000/svg" xmlns:xlink="http://www.w3.org/1999/xlink" viewBox="0 0 18.2715 13.5645">
 <g>
  <rect height="13.5645" opacity="0" width="18.2715" x="0" y="0"/>
  <path d="M6.61133 0C2.08008 0 0 2.07031 0 6.36719L0 11.1426C0 12.7441 0.820312 13.5547 2.45117 13.5547L15.459 13.5547C17.0801 13.5547 17.9102 12.7441 17.9102 11.1426L17.9102 6.36719C17.9102 2.07031 15.8301 0 11.2988 0Z" fill="var(--color-tertiary)"/>
  <path d="M5.19531 9.88281C4.83398 9.88281 4.58008 9.67773 4.58008 9.29688C4.58008 9.11133 4.60938 8.97461 4.70703 8.79883L6.9043 4.82422L6.9043 4.77539L5.07812 4.77539C4.80469 4.77539 4.57031 4.54102 4.57031 4.25781C4.57031 3.97461 4.80469 3.74023 5.07812 3.74023L7.65625 3.74023C8.01758 3.74023 8.26172 3.98438 8.26172 4.3457C8.26172 4.55078 8.21289 4.66797 8.125 4.83398L5.95703 8.79883L5.95703 8.84766L7.87109 8.84766C8.14453 8.84766 8.37891 9.08203 8.37891 9.36523C8.37891 9.64844 8.14453 9.88281 7.87109 9.88281ZM9.95117 9.96094C9.55078 9.96094 9.32617 9.70703 9.32617 9.30664L9.32617 4.38477C9.32617 3.98438 9.55078 3.74023 9.94141 3.74023L11.2402 3.74023C12.4414 3.74023 13.2031 4.39453 13.2031 5.66406C13.2031 6.30859 12.9785 6.99219 12.373 7.32422L13.0078 8.87695C13.0957 9.08203 13.1543 9.26758 13.1543 9.35547C13.1543 9.80469 12.8418 9.96094 12.5684 9.96094C12.2266 9.96094 12.041 9.76562 11.9141 9.44336L11.1914 7.57812L10.5664 7.57812L10.5664 9.30664C10.5664 9.7168 10.3418 9.96094 9.95117 9.96094ZM10.5664 6.67969L11.123 6.67969C11.6992 6.67969 11.9434 6.25977 11.9434 5.69336C11.9434 5.13672 11.6699 4.7168 11.123 4.7168L10.5664 4.7168Z" fill="var(--color-primary)"/>
 </g>
</svg>
