<svg version="1.1" xmlns="http://www.w3.org/2000/svg" xmlns:xlink="http://www.w3.org/1999/xlink" width="25.8008" height="25.459" viewBox="0 0 25.8008 25.459">
 <g>
  <rect height="25.459" opacity="0" width="25.8008" x="0" y="0"/>
  <path d="M12.7148 25.4395C19.6777 25.4395 25.4395 19.6777 25.4395 12.7246C25.4395 5.76172 19.668 0 12.7051 0C5.75195 0 0 5.76172 0 12.7246C0 19.6777 5.76172 25.4395 12.7148 25.4395ZM12.7148 23.623C6.67969 23.623 1.82617 18.7598 1.82617 12.7246C1.82617 6.67969 6.66992 1.82617 12.7051 1.82617C18.75 1.82617 23.6133 6.67969 23.6133 12.7246C23.6133 18.7598 18.7598 23.623 12.7148 23.623Z" fill="var(--color-secondary)"/>
  <path d="M9.70703 18.0664C12.168 18.0664 12.8711 15.1758 12.8711 12.7246C12.8711 10.2734 12.168 7.38281 9.70703 7.38281C7.24609 7.38281 6.55273 10.2734 6.55273 12.7246C6.55273 15.1758 7.24609 18.0664 9.70703 18.0664ZM9.70703 16.748C8.52539 16.748 8.1543 14.8145 8.1543 12.7246C8.1543 10.625 8.52539 8.70117 9.70703 8.70117C10.8887 8.70117 11.2598 10.625 11.2598 12.7246C11.2598 14.8145 10.8887 16.748 9.70703 16.748ZM17.0898 17.9492C17.5195 17.9492 17.8809 17.5879 17.8809 17.1387L17.8809 8.36914C17.8809 7.8125 17.5293 7.48047 16.9629 7.48047C16.5039 7.48047 16.1328 7.72461 15.8691 7.93945L14.3848 9.10156C14.1895 9.25781 14.043 9.46289 14.043 9.74609C14.043 10.0977 14.2773 10.3418 14.6191 10.3418C14.7949 10.3418 14.9023 10.2832 15.0195 10.1953L16.2793 9.18945L16.2793 17.1387C16.2793 17.5879 16.6406 17.9492 17.0898 17.9492Z" fill="var(--color-primary)"/>
 </g>
</svg>
