<svg version="1.1" xmlns="http://www.w3.org/2000/svg" xmlns:xlink="http://www.w3.org/1999/xlink" width="25.8008" height="25.459" viewBox="0 0 25.8008 25.459">
 <g>
  <rect height="25.459" opacity="0" width="25.8008" x="0" y="0"/>
  <path d="M12.7148 25.4395C19.6777 25.4395 25.4395 19.6777 25.4395 12.7246C25.4395 5.76172 19.668 0 12.7051 0C5.75195 0 0 5.76172 0 12.7246C0 19.6777 5.76172 25.4395 12.7148 25.4395Z" fill="var(--color-tertiary)"/>
  <path d="M8.66211 18.1934C6.13281 18.1934 5.41016 15.2441 5.41016 12.7246C5.41016 10.2051 6.13281 7.25586 8.66211 7.25586C11.1816 7.25586 11.8945 10.2051 11.8945 12.7246C11.8945 15.2441 11.1816 18.1934 8.66211 18.1934ZM8.66211 16.8359C9.86328 16.8359 10.2441 14.873 10.2441 12.7246C10.2441 10.5664 9.86328 8.61328 8.66211 8.61328C7.46094 8.61328 7.08008 10.5664 7.08008 12.7246C7.08008 14.873 7.46094 16.8359 8.66211 16.8359ZM18.0762 18.1055C17.7051 18.1055 17.2949 17.8711 17.2949 17.2852L17.2949 15.8008L14.2871 15.8008C13.7207 15.8008 13.3301 15.4199 13.3301 14.8633C13.3301 14.502 13.4082 14.209 13.5938 13.7695L16.1035 8.4668C16.4258 7.75391 16.7969 7.34375 17.6074 7.34375C18.3301 7.34375 18.8574 7.75391 18.8574 8.57422L18.8574 14.4727L19.4043 14.4727C19.8535 14.4727 20.0586 14.7559 20.0586 15.127C20.0586 15.5176 19.8438 15.8008 19.4043 15.8008L18.8574 15.8008L18.8574 17.2852C18.8574 17.8223 18.5059 18.1055 18.0762 18.1055ZM17.3242 14.502L17.3242 8.82812L17.2754 8.82812L14.7559 14.4336L14.7559 14.502Z" fill="var(--color-primary)"/>
 </g>
</svg>
