<svg version="1.1" xmlns="http://www.w3.org/2000/svg" xmlns:xlink="http://www.w3.org/1999/xlink" width="25.8008" height="25.459" viewBox="0 0 25.8008 25.459">
 <g>
  <rect height="25.459" opacity="0" width="25.8008" x="0" y="0"/>
  <path d="M12.7148 25.4395C19.6777 25.4395 25.4395 19.6777 25.4395 12.7246C25.4395 5.76172 19.668 0 12.7051 0C5.75195 0 0 5.76172 0 12.7246C0 19.6777 5.76172 25.4395 12.7148 25.4395Z" fill="var(--color-tertiary)"/>
  <path d="M6.76758 17.9492C6.25 17.9492 5.98633 17.666 5.98633 17.2852C5.98633 16.9238 6.19141 16.6406 6.40625 16.377L8.7793 13.2617C9.49219 12.334 10.127 11.3281 10.127 10.3027C10.127 9.375 9.67773 8.58398 8.81836 8.58398C7.99805 8.58398 7.63672 9.19922 7.41211 10.1465C7.30469 10.5176 7.07031 10.6836 6.68945 10.6836C6.25 10.6836 6.00586 10.3809 6.00586 9.9707C6.00586 8.62305 7.20703 7.25586 8.81836 7.25586C10.5664 7.25586 11.6797 8.52539 11.6797 10.2344C11.6797 11.3574 11.2695 12.3047 10.0391 13.8672L8.02734 16.5039L8.02734 16.5918L11.2305 16.5918C11.6211 16.5918 11.8848 16.8457 11.8848 17.2754C11.8848 17.6758 11.6309 17.9492 11.2305 17.9492ZM16.5137 18.1934C13.9941 18.1934 13.2715 15.2441 13.2715 12.7246C13.2715 10.2051 13.9941 7.25586 16.5137 7.25586C19.043 7.25586 19.7559 10.2051 19.7559 12.7246C19.7559 15.2441 19.043 18.1934 16.5137 18.1934ZM16.5137 16.8359C17.7148 16.8359 18.0957 14.873 18.0957 12.7246C18.0957 10.5664 17.7148 8.61328 16.5137 8.61328C15.3027 8.61328 14.9316 10.5664 14.9316 12.7246C14.9316 14.873 15.3027 16.8359 16.5137 16.8359Z" fill="var(--color-primary)"/>
 </g>
</svg>
