<svg version="1.1" xmlns="http://www.w3.org/2000/svg" xmlns:xlink="http://www.w3.org/1999/xlink" width="23.3203" height="22.9785" viewBox="0 0 23.3203 22.9785">
 <g>
  <rect height="22.9785" opacity="0" width="23.3203" x="0" y="0"/>
  <path d="M3.79883 22.9785L19.1504 22.9785C21.6797 22.9785 22.959 21.709 22.959 19.2188L22.959 3.78906C22.959 1.29883 21.6797 0.0292969 19.1504 0.0292969L3.79883 0.0292969C1.2793 0.0292969 0 1.28906 0 3.78906L0 19.2188C0 21.7188 1.2793 22.9785 3.79883 22.9785ZM3.83789 21.25C2.4707 21.25 1.72852 20.5273 1.72852 19.1309L1.72852 3.87695C1.72852 2.48047 2.4707 1.75781 3.83789 1.75781L19.1211 1.75781C20.459 1.75781 21.2305 2.48047 21.2305 3.87695L21.2305 19.1309C21.2305 20.5273 20.459 21.25 19.1211 21.25Z" fill="var(--color-secondary)"/>
  <path d="M8.89648 16.7285C9.30664 16.7285 9.64844 16.4551 9.64844 15.9375L9.64844 14.4824L10.1855 14.4824C10.6055 14.4824 10.8203 14.209 10.8203 13.8281C10.8203 13.4668 10.6152 13.1934 10.1855 13.1934L9.64844 13.1934L9.64844 7.42188C9.64844 6.64062 9.13086 6.23047 8.42773 6.23047C7.65625 6.23047 7.29492 6.63086 6.97266 7.32422L4.52148 12.5098C4.33594 12.9395 4.26758 13.2227 4.26758 13.5742C4.26758 14.1113 4.63867 14.4824 5.19531 14.4824L8.13477 14.4824L8.13477 15.9375C8.13477 16.5137 8.53516 16.7285 8.89648 16.7285ZM8.16406 13.2227L5.64453 13.2227L5.64453 13.1543L8.11523 7.67578L8.16406 7.67578ZM12.8418 16.582L17.207 16.582C17.5977 16.582 17.8418 16.3184 17.8418 15.9277C17.8418 15.5176 17.5879 15.2734 17.207 15.2734L14.0625 15.2734L14.0625 15.1855L16.0449 12.5977C17.2461 11.0742 17.6367 10.1465 17.6367 9.05273C17.6367 7.38281 16.5625 6.14258 14.8535 6.14258C13.2812 6.14258 12.1191 7.48047 12.1191 8.79883C12.1191 9.19922 12.3535 9.49219 12.7832 9.49219C13.1445 9.49219 13.3691 9.32617 13.4766 8.96484C13.7012 8.03711 14.0527 7.43164 14.8535 7.43164C15.7031 7.43164 16.1426 8.21289 16.1426 9.12109C16.1426 10.1172 15.5273 11.0938 14.8242 12.0117L12.5 15.0586C12.2949 15.3223 12.0996 15.5957 12.0996 15.9277C12.0996 16.3086 12.3535 16.582 12.8418 16.582Z" fill="var(--color-primary)"/>
 </g>
</svg>
