<svg version="1.1" xmlns="http://www.w3.org/2000/svg" xmlns:xlink="http://www.w3.org/1999/xlink" width="23.3203" height="22.9785" viewBox="0 0 23.3203 22.9785">
 <g>
  <rect height="22.9785" opacity="0" width="23.3203" x="0" y="0"/>
  <path d="M3.79883 22.9785L19.1504 22.9785C21.6797 22.9785 22.959 21.709 22.959 19.2188L22.959 3.78906C22.959 1.29883 21.6797 0.0292969 19.1504 0.0292969L3.79883 0.0292969C1.2793 0.0292969 0 1.28906 0 3.78906L0 19.2188C0 21.7188 1.2793 22.9785 3.79883 22.9785Z" fill="var(--color-tertiary)"/>
  <path d="M8.80859 16.8652C8.4375 16.8652 8.01758 16.6309 8.01758 16.0352L8.01758 14.5605L5.01953 14.5605C4.44336 14.5605 4.0625 14.1797 4.0625 13.623C4.0625 13.2617 4.13086 12.9688 4.31641 12.5293L6.81641 7.22656C7.14844 6.51367 7.5293 6.10352 8.32031 6.10352C9.05273 6.10352 9.58008 6.51367 9.58008 7.33398L9.58008 13.2324L10.127 13.2324C10.5664 13.2324 10.7812 13.5156 10.7812 13.8867C10.7812 14.2773 10.5566 14.5605 10.127 14.5605L9.58008 14.5605L9.58008 16.0352C9.58008 16.582 9.22852 16.8652 8.80859 16.8652ZM8.04688 13.2617L8.04688 7.58789L7.99805 7.58789L5.46875 13.1934L5.46875 13.2617ZM14.6387 13.0957C12.9297 13.0957 12.0898 11.4355 12.0898 9.69727C12.0898 7.69531 13.1934 6.03516 15.1074 6.03516C17.6465 6.03516 18.3984 8.92578 18.3984 11.3574C18.3984 13.9355 17.6758 16.9336 15.0879 16.9336C13.8281 16.9336 12.7539 16.2598 12.4609 15.1172C12.4121 14.9609 12.3828 14.7949 12.3828 14.6484C12.3828 14.2676 12.5879 13.9453 13.0664 13.9453C13.3984 13.9453 13.6328 14.1016 13.7988 14.502C14.043 15.1367 14.4629 15.5957 15.1074 15.5957C16.6504 15.5957 16.8457 12.8809 16.8457 11.377C16.8457 11.3281 16.8457 11.2695 16.8457 11.2207L16.7969 11.2207C16.5234 12.3438 15.7324 13.0957 14.6387 13.0957ZM15.127 11.8262C16.123 11.8262 16.6211 10.7031 16.6211 9.62891C16.6211 8.58398 16.1719 7.37305 15.127 7.37305C14.1406 7.37305 13.6621 8.57422 13.6621 9.62891C13.6621 10.6543 14.1016 11.8262 15.127 11.8262Z" fill="var(--color-primary)"/>
 </g>
</svg>
