<svg version="1.1" xmlns="http://www.w3.org/2000/svg" xmlns:xlink="http://www.w3.org/1999/xlink" width="27.5977" height="26.1816" viewBox="0 0 27.5977 26.1816">
 <g>
  <rect height="26.1816" opacity="0" width="27.5977" x="0" y="0"/>
  <path d="M17.9395 1.11328L18.3887 2.57812C18.6328 3.37891 18.9941 3.7793 19.6582 4.13086C21.0742 4.91211 21.8066 6.29883 21.8066 8.24219L21.8066 8.30078L21.9824 8.30078C22.5977 8.30078 23.0078 8.73047 23.0078 9.41406L23.0078 11.1426C23.0078 11.8164 22.5977 12.2461 21.9824 12.2461L21.8066 12.2461L21.8066 17.9492C21.8066 19.8926 21.0742 21.2695 19.6582 22.0508C18.9941 22.4121 18.6328 22.8125 18.3887 23.6133L17.9395 25.0781C17.7148 25.8301 17.2266 26.1816 16.416 26.1816L10.7422 26.1816C9.9707 26.1816 9.44336 25.8203 9.21875 25.0781L8.7793 23.6133C8.52539 22.8125 8.17383 22.4121 7.50977 22.0508C6.09375 21.2695 5.35156 19.8926 5.35156 17.9492L5.35156 15.4102L6.93359 15.4102L6.93359 17.7246C6.93359 19.7168 8.10547 20.918 10.0781 20.918L17.0996 20.918C19.0625 20.918 20.2246 19.7168 20.2246 17.7246L20.2246 8.4668C20.2246 6.46484 19.0625 5.26367 17.0996 5.26367L10.0781 5.26367C8.10547 5.26367 6.93359 6.46484 6.93359 8.4668L6.93359 10.7422L5.35156 10.7422L5.35156 8.24219C5.35156 6.2793 6.10352 4.88281 7.50977 4.13086C8.18359 3.78906 8.53516 3.36914 8.7793 2.57812L9.21875 1.11328C9.44336 0.371094 9.9707 0.00976562 10.7422 0.00976562L16.416 0.00976562C17.2168 0.00976562 17.7344 0.380859 17.9395 1.11328Z" fill="var(--color-secondary)"/>
  <path d="M2.34375 13.8477L10.791 13.8477L12.8418 13.75L10.0879 16.2695L9.44336 16.9141C9.29688 17.0703 9.20898 17.2656 9.20898 17.5C9.20898 17.9395 9.53125 18.2422 9.95117 18.2422C10.1758 18.2422 10.3711 18.1641 10.5273 18.0078L14.9023 13.6523C15.0781 13.4668 15.1855 13.2617 15.1855 13.0762C15.1855 12.8906 15.0781 12.6758 14.9023 12.5L10.5273 8.13477C10.3711 7.97852 10.1758 7.90039 9.95117 7.90039C9.53125 7.90039 9.20898 8.20312 9.20898 8.64258C9.20898 8.87695 9.29688 9.07227 9.44336 9.22852L10.0879 9.88281L12.8418 12.3926L10.791 12.2949L2.34375 12.2949C1.86523 12.2949 1.5625 12.666 1.5625 13.0762C1.5625 13.4766 1.86523 13.8477 2.34375 13.8477Z" fill="var(--color-primary)"/>
 </g>
</svg>
