<svg version="1.1" xmlns="http://www.w3.org/2000/svg" xmlns:xlink="http://www.w3.org/1999/xlink" width="23.3203" height="22.9785" viewBox="0 0 23.3203 22.9785">
 <g>
  <rect height="22.9785" opacity="0" width="23.3203" x="0" y="0"/>
  <path d="M3.79883 22.9785L19.1504 22.9785C21.6797 22.9785 22.959 21.709 22.959 19.2188L22.959 3.78906C22.959 1.29883 21.6797 0.0292969 19.1504 0.0292969L3.79883 0.0292969C1.2793 0.0292969 0 1.28906 0 3.78906L0 19.2188C0 21.7188 1.2793 22.9785 3.79883 22.9785Z" fill="var(--color-tertiary)"/>
  <path d="M5.9082 11.2305C5.46875 11.2305 5.11719 10.8789 5.11719 10.4297C5.11719 10 5.46875 9.64844 5.9082 9.64844L6.66992 9.64844L8.69141 9.75586L5.05859 6.23047C4.72656 5.9082 4.70703 5.37109 5.04883 5.04883C5.37109 4.7168 5.89844 4.7168 6.23047 5.05859L9.76562 8.7207L9.6582 6.5918L9.6582 5.87891C9.6582 5.43945 10.0098 5.08789 10.4492 5.08789C10.8887 5.08789 11.2402 5.43945 11.2402 5.87891L11.2402 10.3125C11.2402 10.957 10.8984 11.2305 10.332 11.2305ZM12.5195 17.8613C12.0801 17.8613 11.7285 17.5098 11.7285 17.0605L11.7285 12.627C11.7285 11.9824 12.0703 11.7188 12.6367 11.7188L17.0605 11.7188C17.5 11.7188 17.8516 12.0703 17.8516 12.5098C17.8516 12.9492 17.5 13.3008 17.0605 13.3008L16.2988 13.291L14.2676 13.1934L17.9102 16.709C18.2422 17.041 18.2617 17.5684 17.9199 17.9004C17.5977 18.2324 17.0703 18.2324 16.7383 17.8906L13.2031 14.2285L13.3105 16.3477L13.3105 17.0605C13.3105 17.5098 12.959 17.8613 12.5195 17.8613Z" fill="var(--color-primary)"/>
 </g>
</svg>
