<svg version="1.1" xmlns="http://www.w3.org/2000/svg" xmlns:xlink="http://www.w3.org/1999/xlink" width="23.3203" height="22.9785" viewBox="0 0 23.3203 22.9785">
 <g>
  <rect height="22.9785" opacity="0" width="23.3203" x="0" y="0"/>
  <path d="M3.79883 22.9785L19.1504 22.9785C21.6797 22.9785 22.959 21.709 22.959 19.2188L22.959 3.78906C22.959 1.29883 21.6797 0.0292969 19.1504 0.0292969L3.79883 0.0292969C1.2793 0.0292969 0 1.28906 0 3.78906L0 19.2188C0 21.7188 1.2793 22.9785 3.79883 22.9785ZM3.83789 21.25C2.4707 21.25 1.72852 20.5273 1.72852 19.1309L1.72852 3.87695C1.72852 2.48047 2.4707 1.75781 3.83789 1.75781L19.1211 1.75781C20.459 1.75781 21.2305 2.48047 21.2305 3.87695L21.2305 19.1309C21.2305 20.5273 20.459 21.25 19.1211 21.25Z" fill="var(--color-secondary)"/>
  <path d="M6.04492 11.2305L10.3613 11.2305C10.9082 11.2305 11.2402 10.9668 11.2402 10.3418L11.2402 6.02539C11.2402 5.5957 10.8984 5.25391 10.4785 5.25391C10.0488 5.25391 9.70703 5.5957 9.70703 6.02539L9.70703 6.72852L9.81445 8.79883L6.35742 5.21484C6.03516 4.88281 5.51758 4.88281 5.20508 5.20508C4.88281 5.51758 4.89258 6.04492 5.21484 6.34766L8.76953 9.80469L6.79688 9.69727L6.04492 9.69727C5.625 9.69727 5.2832 10.0391 5.2832 10.459C5.2832 10.8887 5.625 11.2305 6.04492 11.2305ZM12.4902 17.6855C12.9102 17.6855 13.252 17.3438 13.252 16.9238L13.252 16.2207L13.1543 14.1504L16.6113 17.7344C16.9336 18.0664 17.4512 18.0664 17.7637 17.7441C18.0762 17.4219 18.0664 16.8945 17.7539 16.5918L14.1895 13.1445L16.1719 13.2422L16.9141 13.252C17.3438 13.252 17.6855 12.9102 17.6855 12.4805C17.6855 12.0605 17.3438 11.7188 16.9141 11.7188L12.6074 11.7188C12.0605 11.7188 11.7188 11.9727 11.7188 12.5977L11.7188 16.9238C11.7188 17.3438 12.0703 17.6855 12.4902 17.6855Z" fill="var(--color-primary)"/>
 </g>
</svg>
