<svg version="1.1" xmlns="http://www.w3.org/2000/svg" xmlns:xlink="http://www.w3.org/1999/xlink" width="23.3203" height="22.9785" viewBox="0 0 23.3203 22.9785">
 <g>
  <rect height="22.9785" opacity="0" width="23.3203" x="0" y="0"/>
  <path d="M3.79883 22.9785L19.1504 22.9785C21.6797 22.9785 22.959 21.709 22.959 19.2188L22.959 3.78906C22.959 1.29883 21.6797 0.0292969 19.1504 0.0292969L3.79883 0.0292969C1.2793 0.0292969 0 1.28906 0 3.78906L0 19.2188C0 21.7188 1.2793 22.9785 3.79883 22.9785Z" fill="var(--color-tertiary)"/>
  <path d="M11.4746 18.7305C11.0156 18.7305 10.7129 18.4082 10.7129 17.9688L10.7129 11.748L10.8398 9.36523L8.4668 11.9629L7.5293 12.959C7.39258 13.125 7.20703 13.1934 6.97266 13.1934C6.5332 13.1934 6.24023 12.8906 6.24023 12.4512C6.24023 12.2656 6.33789 12.0215 6.48438 11.8848L10.9082 7.39258C11.0742 7.20703 11.2695 7.12891 11.4746 7.12891C11.6797 7.12891 11.875 7.22656 12.041 7.39258L16.4648 11.8652C16.6504 12.041 16.7285 12.2363 16.7285 12.4512C16.7285 12.8711 16.4355 13.1934 16.0059 13.1934C15.791 13.1934 15.5859 13.125 15.4395 12.959L14.4336 11.9434L12.1094 9.375L12.2266 11.748L12.2266 17.9688C12.2266 18.4082 11.9043 18.7305 11.4746 18.7305ZM6.65039 6.06445C6.21094 6.06445 5.9082 5.75195 5.9082 5.33203C5.9082 4.87305 6.21094 4.56055 6.65039 4.56055L16.3281 4.56055C16.7578 4.56055 17.0605 4.87305 17.0605 5.33203C17.0605 5.75195 16.7578 6.06445 16.3281 6.06445Z" fill="var(--color-primary)"/>
 </g>
</svg>
