<svg version="1.1" xmlns="http://www.w3.org/2000/svg" xmlns:xlink="http://www.w3.org/1999/xlink" viewBox="0 0 32.959 23.4083">
 <g>
  <rect height="23.4083" opacity="0" width="32.959" x="0" y="0"/>
  <path d="M3.90625 23.0176L6.33789 19.7657C6.79688 19.1602 6.55273 18.3789 5.74219 18.3789L3.93555 18.3789L3.93555 4.96098L5.74219 4.96098C6.5332 4.96098 6.81641 4.18949 6.33789 3.56449L3.90625 0.322307C3.58398-0.117146 2.96875-0.0976146 2.65625 0.322307L0.234375 3.56449C-0.244141 4.18949 0.0390625 4.96098 0.820312 4.96098L2.64648 4.96098L2.64648 18.3789L0.820312 18.3789C0.0390625 18.3789-0.244141 19.1407 0.234375 19.7657L2.65625 23.0176C2.97852 23.4473 3.58398 23.4571 3.90625 23.0176Z" fill="var(--color-primary)"/>
  <path d="M11.5137 2.57817L31.7676 2.57817C32.2266 2.57817 32.5977 2.2266 32.5977 1.75785C32.5977 1.29887 32.2266 0.947307 31.7676 0.947307L11.5137 0.947307C11.0547 0.947307 10.7031 1.29887 10.7031 1.75785C10.7031 2.2266 11.0547 2.57817 11.5137 2.57817ZM11.5137 9.18949L31.7676 9.18949C32.2266 9.18949 32.5977 8.82817 32.5977 8.36918C32.5977 7.9102 32.2266 7.54887 31.7676 7.54887L11.5137 7.54887C11.0547 7.54887 10.7031 7.9102 10.7031 8.36918C10.7031 8.82817 11.0547 9.18949 11.5137 9.18949ZM11.5137 15.7911L31.7676 15.7911C32.2266 15.7911 32.5977 15.4395 32.5977 14.9805C32.5977 14.5118 32.2266 14.1602 31.7676 14.1602L11.5137 14.1602C11.0547 14.1602 10.7031 14.5118 10.7031 14.9805C10.7031 15.4395 11.0547 15.7911 11.5137 15.7911ZM11.5137 22.4024L23.6719 22.4024C24.1309 22.4024 24.4922 22.0411 24.4922 21.5821C24.4922 21.1231 24.1309 20.7715 23.6719 20.7715L11.5137 20.7715C11.0547 20.7715 10.7031 21.1231 10.7031 21.5821C10.7031 22.0411 11.0547 22.4024 11.5137 22.4024Z" fill="var(--color-primary)"/>
 </g>
</svg>
