<svg version="1.1" xmlns="http://www.w3.org/2000/svg" xmlns:xlink="http://www.w3.org/1999/xlink" width="23.3203" height="23.252" viewBox="0 0 23.3203 23.252">
 <g>
  <rect height="23.252" opacity="0" width="23.3203" x="0" y="0"/>
  <path d="M3.79883 22.959L19.1504 22.959C21.6797 22.959 22.959 21.6797 22.959 19.1992L22.959 3.75977C22.959 1.2793 21.6797 0 19.1504 0L3.79883 0C1.2793 0 0 1.26953 0 3.75977L0 19.1992C0 21.6895 1.2793 22.959 3.79883 22.959ZM3.83789 21.2305C2.4707 21.2305 1.72852 20.5078 1.72852 19.1016L1.72852 3.85742C1.72852 2.45117 2.4707 1.72852 3.83789 1.72852L19.1211 1.72852C20.459 1.72852 21.2305 2.45117 21.2305 3.85742L21.2305 19.1016C21.2305 20.5078 20.459 21.2305 19.1211 21.2305Z" fill="var(--color-secondary)"/>
  <path d="M5.08789 12.9785C5.08789 15.8984 7.20703 17.7441 10.0977 17.7441C10.3027 17.7441 11.8457 17.7441 11.9043 17.7441C12.3828 17.7441 12.7441 17.4609 12.7441 16.9629C12.7441 16.4648 12.3828 16.1914 11.9238 16.1914C11.875 16.1914 10.3027 16.1914 10.0977 16.1914C8.10547 16.1914 6.67969 14.9219 6.67969 12.9004C6.67969 10.918 8.13477 9.78516 10.0879 9.78516L14.1504 9.78516L15.6055 9.72656L14.9023 10.2637L13.1152 11.9922C12.959 12.1387 12.8711 12.3438 12.8711 12.5586C12.8711 13.0078 13.2031 13.3496 13.6426 13.3496C13.877 13.3496 14.0527 13.2715 14.209 13.125L17.5586 9.6875C17.7441 9.50195 17.8613 9.27734 17.8613 9.01367C17.8613 8.75 17.7441 8.51562 17.5586 8.33008L14.2188 4.93164C14.0625 4.76562 13.8867 4.6875 13.6523 4.6875C13.2031 4.6875 12.8711 5.0293 12.8711 5.47852C12.8711 5.71289 12.9785 5.9082 13.125 6.05469L14.6875 7.57812L15.6055 8.30078L14.1504 8.26172L10.0879 8.26172C7.19727 8.26172 5.08789 10.0586 5.08789 12.9785Z" fill="var(--color-primary)"/>
 </g>
</svg>
