<svg version="1.1" xmlns="http://www.w3.org/2000/svg" xmlns:xlink="http://www.w3.org/1999/xlink" width="23.3203" height="22.9785" viewBox="0 0 23.3203 22.9785">
 <g>
  <rect height="22.9785" opacity="0" width="23.3203" x="0" y="0"/>
  <path d="M3.79883 22.9785L19.1504 22.9785C21.6797 22.9785 22.959 21.709 22.959 19.2188L22.959 3.78906C22.959 1.29883 21.6797 0.0292969 19.1504 0.0292969L3.79883 0.0292969C1.2793 0.0292969 0 1.28906 0 3.78906L0 19.2188C0 21.7188 1.2793 22.9785 3.79883 22.9785ZM3.83789 21.25C2.4707 21.25 1.72852 20.5273 1.72852 19.1309L1.72852 3.87695C1.72852 2.48047 2.4707 1.75781 3.83789 1.75781L19.1211 1.75781C20.459 1.75781 21.2305 2.48047 21.2305 3.87695L21.2305 19.1309C21.2305 20.5273 20.459 21.25 19.1211 21.25Z" fill="var(--color-secondary)"/>
  <path d="M11.6309 18.8086C11.9336 18.8086 12.168 18.584 12.168 18.252L12.168 17.3242L12.373 17.3242C14.6973 17.3242 16.1621 16.0742 16.1621 14.1016C16.1621 12.7148 15.3125 11.6797 14.0234 11.2891C14.9609 10.8398 15.5957 9.85352 15.5957 8.78906C15.5957 7.09961 14.2871 5.87891 12.3633 5.87891L12.168 5.87891L12.168 4.90234C12.168 4.57031 11.9336 4.3457 11.6309 4.3457C11.3184 4.3457 11.084 4.57031 11.084 4.90234L11.084 5.87891L9.14062 5.87891C8.64258 5.87891 8.28125 6.23047 8.28125 6.73828L8.28125 16.4648C8.28125 16.9824 8.63281 17.3242 9.14062 17.3242L11.084 17.3242L11.084 18.252C11.084 18.584 11.3184 18.8086 11.6309 18.8086ZM9.6875 16.0352L9.6875 12.0703L11.084 12.0703L11.084 16.0254ZM12.168 16.0156L12.168 12.0801C13.8867 12.1484 14.7559 12.832 14.7559 14.0527C14.7559 15.2832 13.9062 15.9668 12.168 16.0156ZM9.67773 10.791L9.6875 7.14844L11.084 7.14844L11.084 10.791ZM12.168 10.7422L12.168 7.16797C13.4766 7.24609 14.1797 7.86133 14.1797 8.88672C14.1797 9.94141 13.4961 10.6055 12.168 10.7422Z" fill="var(--color-primary)"/>
 </g>
</svg>
