<svg version="1.1" xmlns="http://www.w3.org/2000/svg" xmlns:xlink="http://www.w3.org/1999/xlink" width="15.3418" height="28.7402" viewBox="0 0 15.3418 28.7402">
 <g>
  <rect height="28.7402" opacity="0" width="15.3418" x="0" y="0"/>
  <path d="M1.31836 25.5371L7.49023 25.5371C12.1484 25.5371 14.9805 23.2715 14.9805 19.502C14.9805 16.416 12.8223 14.3457 9.73633 13.9941L9.73633 13.8965C12.1289 13.457 13.8379 11.3672 13.8379 8.88672C13.8379 5.625 11.25 3.44727 7.43164 3.44727L1.31836 3.44727C0.517578 3.44727 0 3.95508 0 4.77539L0 24.2188C0 25.0293 0.517578 25.5371 1.31836 25.5371ZM2.03125 13.2617L2.03125 5.24414L6.99219 5.24414C9.9707 5.24414 11.7969 6.66016 11.7969 9.08203C11.7969 11.7285 9.79492 13.2617 6.42578 13.2617ZM2.03125 23.7402L2.03125 15.0586L6.9043 15.0586C10.752 15.0586 12.9199 16.6016 12.9199 19.4238C12.9199 22.1973 10.8301 23.7402 7.19727 23.7402ZM4.54102 4.62891L4.54102 1.13281C4.54102 0.742188 4.21875 0.419922 3.81836 0.419922C3.42773 0.419922 3.10547 0.742188 3.10547 1.13281L3.10547 4.62891ZM8.33984 4.62891L8.33984 1.13281C8.33984 0.742188 8.01758 0.419922 7.62695 0.419922C7.22656 0.419922 6.9043 0.742188 6.9043 1.13281L6.9043 4.62891ZM4.54102 24.375L3.10547 24.375L3.10547 28.0176C3.10547 28.4082 3.42773 28.7402 3.81836 28.7402C4.21875 28.7402 4.54102 28.4082 4.54102 28.0176ZM8.33984 24.375L6.9043 24.375L6.9043 28.0176C6.9043 28.4082 7.22656 28.7402 7.62695 28.7402C8.01758 28.7402 8.33984 28.4082 8.33984 28.0176Z" fill="var(--color-primary)"/>
 </g>
</svg>
