<svg version="1.1" xmlns="http://www.w3.org/2000/svg" xmlns:xlink="http://www.w3.org/1999/xlink" width="25.8008" height="25.459" viewBox="0 0 25.8008 25.459">
 <g>
  <rect height="25.459" opacity="0" width="25.8008" x="0" y="0"/>
  <path d="M12.7148 25.4395C19.6777 25.4395 25.4395 19.6777 25.4395 12.7246C25.4395 5.76172 19.668 0 12.7051 0C5.75195 0 0 5.76172 0 12.7246C0 19.6777 5.76172 25.4395 12.7148 25.4395ZM12.7148 23.623C6.67969 23.623 1.82617 18.7598 1.82617 12.7246C1.82617 6.67969 6.66992 1.82617 12.7051 1.82617C18.75 1.82617 23.6133 6.67969 23.6133 12.7246C23.6133 18.7598 18.7598 23.623 12.7148 23.623Z" fill="var(--color-secondary)"/>
  <path d="M9.29688 17.7637C9.29688 18.2812 9.63867 18.623 10.1562 18.623L10.8301 18.623L10.8301 19.668C10.8301 20 11.0742 20.2246 11.3867 20.2246C11.6895 20.2246 11.9238 20 11.9238 19.668L11.9238 18.623L12.7539 18.623L12.7539 19.668C12.7539 20 12.998 20.2246 13.3105 20.2246C13.6133 20.2246 13.8477 20 13.8477 19.668L13.8477 18.5938C15.9375 18.3984 17.168 17.2168 17.168 15.4004C17.168 14.0137 16.3184 12.9785 15.0293 12.5879C15.9766 12.1484 16.6113 11.1621 16.6113 10.0879C16.6113 8.55469 15.5273 7.45117 13.8477 7.2168L13.8477 6.18164C13.8477 5.85938 13.6133 5.63477 13.3105 5.63477C12.998 5.63477 12.7539 5.85938 12.7539 6.18164L12.7539 7.17773L11.9238 7.17773L11.9238 6.18164C11.9238 5.85938 11.6895 5.63477 11.3867 5.63477C11.0742 5.63477 10.8301 5.85938 10.8301 6.18164L10.8301 7.17773L10.1562 7.17773C9.6582 7.17773 9.29688 7.5293 9.29688 8.03711ZM10.6934 17.334L10.6934 13.3691L12.9395 13.3691C14.7656 13.3691 15.7617 14.0625 15.7617 15.3516C15.7617 16.6211 14.8047 17.3145 13.0859 17.3242ZM10.6934 12.0801L10.6934 8.44727L12.9785 8.44727C14.3652 8.44727 15.1855 9.0918 15.1855 10.1855C15.1855 11.3965 14.2676 12.0996 12.6855 12.0898Z" fill="var(--color-primary)"/>
 </g>
</svg>
