<svg version="1.1" xmlns="http://www.w3.org/2000/svg" xmlns:xlink="http://www.w3.org/1999/xlink" width="25.8008" height="25.459" viewBox="0 0 25.8008 25.459">
 <g>
  <rect height="25.459" opacity="0" width="25.8008" x="0" y="0"/>
  <path d="M12.7148 25.459C19.6777 25.459 25.4395 19.6973 25.4395 12.7344C25.4395 5.78125 19.668 0.0195312 12.7051 0.0195312C5.75195 0.0195312 0 5.78125 0 12.7344C0 19.6973 5.76172 25.459 12.7148 25.459Z" fill="var(--color-tertiary)"/>
  <path d="M5.58594 17.1191L5.58594 13.6719C5.58594 12.6465 5.81055 12.0703 6.34766 11.3867L6.875 10.7031C7.09961 9.59961 7.49023 8.44727 7.70508 8.00781C8.02734 7.31445 8.65234 6.93359 9.43359 6.83594C9.84375 6.78711 11.1914 6.75781 12.7148 6.75781C14.2383 6.75781 15.5859 6.78711 15.9961 6.83594C16.7773 6.94336 17.4023 7.31445 17.7246 8.00781C17.9395 8.44727 18.3203 9.59961 18.5645 10.7031L19.082 11.3867C19.6191 12.0703 19.8438 12.6465 19.8438 13.6719L19.8438 17.1191C19.8438 17.5586 19.4922 17.9102 19.043 17.9102L18.3398 17.9102C17.8906 17.9102 17.5391 17.5586 17.5391 17.1191L17.5391 16.123C16.1914 16.2012 14.2676 16.25 12.7148 16.25C11.1719 16.25 9.23828 16.2012 7.89062 16.123L7.89062 17.1191C7.89062 17.5586 7.53906 17.9102 7.08984 17.9102L6.37695 17.9102C5.9375 17.9102 5.58594 17.5586 5.58594 17.1191ZM10.625 11.9531C10.625 12.0801 10.7324 12.168 10.8594 12.168L12.4902 12.168L11.6699 14.375C11.5332 14.7266 11.9043 14.9219 12.1289 14.6387L14.7168 11.2891C14.7656 11.2207 14.8047 11.1328 14.8047 11.0645C14.8047 10.9375 14.6973 10.8301 14.5703 10.8301L12.9492 10.8398L13.7695 8.63281C13.9062 8.28125 13.5352 8.0957 13.3105 8.38867L10.7129 11.748C10.6543 11.8164 10.625 11.8848 10.625 11.9531Z" fill="var(--color-primary)"/>
 </g>
</svg>
