<svg version="1.1" xmlns="http://www.w3.org/2000/svg" xmlns:xlink="http://www.w3.org/1999/xlink" width="29.9512" height="22.959" viewBox="0 0 29.9512 22.959">
 <g>
  <rect height="22.959" opacity="0" width="29.9512" x="0" y="0"/>
  <path d="M3.79883 22.959L14.0332 22.959L14.0332 21.2305L3.83789 21.2305C2.4707 21.2305 1.72852 20.5078 1.72852 19.1016L1.72852 12.2559L0 12.2559L0 19.1992C0 21.6992 1.2793 22.959 3.79883 22.959ZM15.5859 22.959L25.7812 22.959C28.3105 22.959 29.5898 21.6797 29.5898 19.1992L29.5898 12.2559L27.8516 12.2559L27.8516 19.1016C27.8516 20.5078 27.0898 21.2305 25.752 21.2305L15.5859 21.2305ZM27.8516 10.7031L29.5898 10.7031L29.5898 3.76953C29.5898 1.2793 28.3105 0 25.7812 0L15.5859 0L15.5859 1.72852L25.752 1.72852C27.0898 1.72852 27.8516 2.46094 27.8516 3.85742ZM0 10.7031L1.72852 10.7031L1.72852 3.85742C1.72852 2.46094 2.4707 1.72852 3.83789 1.72852L14.0332 1.72852L14.0332 0L3.79883 0C1.2793 0 0 1.26953 0 3.76953Z" fill="var(--color-secondary)"/>
  <path d="M4.51172 3.29102C3.66211 3.29102 3.29102 3.67188 3.29102 4.54102L3.29102 10.7031L9.35547 10.7031C9.6875 8.33008 11.6211 6.40625 14.0332 6.06445L14.0332 3.29102ZM25.0684 3.29102L15.5859 3.29102L15.5859 6.06445C17.9688 6.40625 19.8926 8.33008 20.2344 10.7031L26.2988 10.7031L26.2988 4.54102C26.2988 3.67188 25.9277 3.29102 25.0684 3.29102ZM4.51172 19.668L14.0332 19.668L14.0332 16.8945C11.6211 16.5527 9.6875 14.6387 9.35547 12.2559L3.29102 12.2559L3.29102 18.4277C3.29102 19.2871 3.66211 19.668 4.51172 19.668ZM25.0684 19.668C25.9277 19.668 26.2988 19.2871 26.2988 18.4277L26.2988 12.2559L20.2344 12.2559C19.8926 14.6387 17.9688 16.5527 15.5859 16.8945L15.5859 19.668Z" fill="var(--color-primary)"/>
  <path d="M14.8047 15.1953C16.8262 15.1953 18.5059 13.5254 18.5059 11.4746C18.5059 9.45312 16.8262 7.77344 14.8047 7.77344C12.7539 7.77344 11.084 9.45312 11.084 11.4746C11.084 13.5254 12.7539 15.1953 14.8047 15.1953Z" fill="var(--color-primary)"/>
 </g>
</svg>
