<svg version="1.1" xmlns="http://www.w3.org/2000/svg" xmlns:xlink="http://www.w3.org/1999/xlink" viewBox="0 0 25.8008 25.459">
 <g>
  <rect height="25.459" opacity="0" width="25.8008" x="0" y="0"/>
  <path d="M25.4395 12.7344C25.4395 19.7461 19.7266 25.459 12.7148 25.459C5.71289 25.459 0 19.7461 0 12.7344C0 5.73242 5.71289 0.0195312 12.7148 0.0195312C19.7266 0.0195312 25.4395 5.73242 25.4395 12.7344ZM11.377 6.20117C10.7227 6.20117 10.4004 6.36719 10.0781 6.73828L9.53125 7.33398C9.21875 7.66602 9.07227 7.76367 8.55469 7.76367L6.875 7.76367C5.56641 7.76367 4.89258 8.41797 4.89258 9.73633L4.89258 16.6113C4.89258 17.9102 5.56641 18.5742 6.875 18.5742L18.5449 18.5742C19.8535 18.5742 20.5371 17.9102 20.5371 16.6113L20.5371 9.73633C20.5371 8.41797 19.8535 7.76367 18.5449 7.76367L16.7969 7.76367C16.2891 7.76367 16.123 7.68555 15.8203 7.33398L15.2734 6.73828C14.9414 6.36719 14.6289 6.20117 13.9648 6.20117ZM16.582 13.0957C16.582 15.293 14.8633 16.9727 12.7246 16.9727C10.5762 16.9727 8.84766 15.2637 8.84766 13.0957C8.84766 10.957 10.5762 9.22852 12.7246 9.22852C14.8633 9.22852 16.582 10.957 16.582 13.0957ZM9.84375 13.0957C9.84375 14.6973 11.1328 15.9766 12.7148 15.9766C14.2969 15.9766 15.5859 14.6973 15.5859 13.0957C15.5859 11.5137 14.2969 10.2246 12.7148 10.2246C11.1328 10.2246 9.84375 11.5039 9.84375 13.0957ZM18.7012 10.4102C18.7109 10.8789 18.3398 11.2402 17.8809 11.2402C17.4316 11.2402 17.0508 10.8789 17.0508 10.4102C17.0508 9.95117 17.4316 9.58984 17.8809 9.58984C18.3398 9.58984 18.7012 9.95117 18.7012 10.4102Z" fill="var(--color-primary)"/>
 </g>
</svg>
