<svg version="1.1" xmlns="http://www.w3.org/2000/svg" xmlns:xlink="http://www.w3.org/1999/xlink" width="44.3945" height="20.0293" viewBox="0 0 44.3945 20.0293">
 <g>
  <rect height="20.0293" opacity="0" width="44.3945" x="0" y="0"/>
  <path d="M3.17383 17.168L6.82617 17.168L6.82617 15.4395L3.26172 15.4395C2.23633 15.4395 1.72852 14.8633 1.72852 13.7109L1.72852 11.4648C1.72852 9.53125 3.07617 8.27148 5.49805 7.97852L11.5234 7.23633L16.9238 3.87695C19.707 2.13867 21.4062 1.72852 26.2012 1.72852L29.1309 1.72852C32.5586 1.72852 35.3418 3.14453 37.7246 6.43555L40.7812 7.22656C41.9336 7.51953 42.3047 8.22266 42.3047 9.23828L42.3047 13.9062C42.3047 14.873 41.8164 15.4395 40.957 15.4395L37.9492 15.4395L37.9492 17.168L41.25 17.168C42.9883 17.168 44.0332 16.084 44.0332 14.2969L44.0332 9.23828C44.0332 7.51953 43.457 6.13281 41.3086 5.47852L38.7109 4.7168C37.1094 2.80273 34.3066 0 29.1309 0L26.2012 0C21.0645 0 19.0527 0.478516 16.0059 2.39258L10.9473 5.56641L5.2832 6.25977C1.95312 6.66992 0 8.58398 0 11.4648L0 13.916C0 16.0352 1.10352 17.168 3.17383 17.168ZM12.8711 17.168L31.9824 17.168L31.9824 15.4395L12.8711 15.4395ZM9.79492 20.0098C12.1387 20.0098 13.9844 18.1738 13.9844 15.8301C13.9844 13.4766 12.1387 11.6406 9.79492 11.6406C7.45117 11.6406 5.60547 13.4766 5.60547 15.8301C5.60547 18.1738 7.45117 20.0098 9.79492 20.0098ZM9.79492 18.2812C8.41797 18.2812 7.34375 17.207 7.34375 15.8301C7.34375 14.4434 8.41797 13.3691 9.79492 13.3691C11.1719 13.3691 12.2461 14.4434 12.2461 15.8301C12.2461 17.207 11.1719 18.2812 9.79492 18.2812ZM35.0293 20.0098C37.3828 20.0098 39.2188 18.1738 39.2188 15.8301C39.2188 13.4766 37.3828 11.6406 35.0293 11.6406C32.6855 11.6406 30.8496 13.4766 30.8496 15.8301C30.8496 18.1738 32.6855 20.0098 35.0293 20.0098ZM35.0293 18.2812C33.6523 18.2812 32.5781 17.207 32.5781 15.8301C32.5781 14.4434 33.6523 13.3691 35.0293 13.3691C36.416 13.3691 37.4902 14.4434 37.4902 15.8301C37.4902 17.207 36.416 18.2812 35.0293 18.2812Z" fill="var(--color-secondary)"/>
  <path d="M19.6289 13.5059L25.2539 13.5059C25.8691 13.5059 26.1426 12.998 25.8203 12.4707L23.0664 7.97852C22.7539 7.4707 22.1289 7.45117 21.8164 7.97852L19.082 12.4609C18.7598 12.9883 19.0039 13.5059 19.6289 13.5059Z" fill="var(--color-primary)"/>
 </g>
</svg>
