<svg version="1.1" xmlns="http://www.w3.org/2000/svg" xmlns:xlink="http://www.w3.org/1999/xlink" width="15.0488" height="23.2129" viewBox="0 0 15.0488 23.2129">
 <g>
  <rect height="23.2129" opacity="0" width="15.0488" x="0" y="0"/>
  <path d="M7.80273 20.2344C11.25 20.2344 13.7793 18.4473 14.5605 16.0352C14.6289 15.8301 14.6875 15.6152 14.6875 15.3711C14.6875 14.834 14.3066 14.4824 13.7598 14.4824C13.3008 14.4824 13.0371 14.7754 12.8418 15.2246C12.0996 17.1582 10.3906 18.4961 7.8125 18.4961C4.31641 18.4961 1.99219 15.9961 1.99219 11.6016C1.99219 7.27539 4.29688 4.69727 7.79297 4.69727C10.3711 4.69727 12.0703 6.04492 12.8125 7.94922C13.0078 8.44727 13.3105 8.7207 13.7793 8.7207C14.3066 8.7207 14.668 8.35938 14.668 7.83203C14.668 7.58789 14.5996 7.37305 14.541 7.1582C13.75 4.76562 11.2109 2.95898 7.7832 2.95898C3.07617 2.95898 0 6.32812 0 11.6016C0 16.9336 3.08594 20.2344 7.80273 20.2344ZM7.70508 23.2031C8.10547 23.2031 8.42773 22.9199 8.42773 22.4902L8.42773 0.712891C8.42773 0.283203 8.10547 0 7.70508 0C7.29492 0 6.99219 0.292969 6.99219 0.712891L6.99219 22.4902C6.99219 22.9102 7.29492 23.2031 7.70508 23.2031Z" fill="var(--color-primary)"/>
 </g>
</svg>
