<svg version="1.1" xmlns="http://www.w3.org/2000/svg" xmlns:xlink="http://www.w3.org/1999/xlink" width="27.8809" height="27.4977" viewBox="0 0 27.8809 27.4977">
 <g>
  <rect height="27.4977" opacity="0" width="27.8809" x="0" y="0"/>
  <path d="M4.65109 7.7522C3.52266 9.46592 2.87109 11.5246 2.87109 13.7439C2.87109 19.7791 7.71484 24.6424 13.7598 24.6424C15.9753 24.6424 18.0329 23.987 19.7467 22.8542L21.0245 24.1325C18.9624 25.5977 16.4516 26.4588 13.7598 26.4588C6.79688 26.4588 1.04492 20.6971 1.04492 13.7439C1.04492 11.0496 1.90476 8.53505 3.36957 6.47014ZM26.4746 13.7439C26.4746 16.4409 25.6093 18.9585 24.136 21.0245L22.8596 19.7481C23.9985 18.0304 24.6582 15.9667 24.6582 13.7439C24.6582 7.69902 19.7852 2.84551 13.75 2.84551C11.5251 2.84551 9.46429 3.50299 7.75102 4.6395L6.47091 3.35938C8.53425 1.88546 11.0504 1.01933 13.75 1.01933C20.7129 1.01933 26.4746 6.78105 26.4746 13.7439Z" fill="var(--color-secondary)"/>
  <path d="M24.6973 25.8826C25.0293 26.2146 25.5664 26.2049 25.8789 25.8729C26.2109 25.5408 26.2012 25.0232 25.8789 24.701L2.79297 1.60527C2.4707 1.28301 1.94336 1.27324 1.60156 1.60527C1.28906 1.91777 1.28906 2.46465 1.60156 2.78691Z" fill="var(--color-primary)"/>
 </g>
</svg>
