<svg version="1.1" xmlns="http://www.w3.org/2000/svg" xmlns:xlink="http://www.w3.org/1999/xlink" width="25.8008" height="25.459" viewBox="0 0 25.8008 25.459">
 <g>
  <rect height="25.459" opacity="0" width="25.8008" x="0" y="0"/>
  <path d="M0 12.7246C0 14.9023 0.566406 16.9434 1.55273 18.7402L3.74023 16.5527C3.99414 16.2988 4.38477 16.2988 4.64844 16.5527C4.89258 16.8066 4.90234 17.1973 4.64844 17.4609L2.23633 19.873C2.54883 20.3125 2.87109 20.7324 3.23242 21.1328L21.1328 3.24219C20.7324 2.88086 20.3027 2.54883 19.8633 2.23633L17.4316 4.66797C17.1777 4.92188 16.7871 4.91211 16.5332 4.66797C16.2695 4.41406 16.2695 4.02344 16.5332 3.75977L18.7207 1.57227C16.9336 0.566406 14.8828 0 12.7051 0C5.75195 0 0 5.76172 0 12.7246ZM15.5176 6.58203L13.8086 8.30078C13.5449 8.55469 13.1543 8.54492 12.9004 8.30078C12.6562 8.03711 12.6465 7.63672 12.9004 7.39258L14.6191 5.68359C14.8828 5.42969 15.2734 5.41992 15.5176 5.68359C15.7715 5.92773 15.7715 6.32812 15.5176 6.58203ZM11.9043 10.2148L10.1855 11.9238C9.94141 12.168 9.53125 12.168 9.28711 11.9238C9.02344 11.6699 9.02344 11.2695 9.28711 11.0156L10.9961 9.30664C11.25 9.05273 11.6504 9.05273 11.9043 9.30664C12.1484 9.55078 12.1582 9.96094 11.9043 10.2148ZM8.28125 13.8281L6.5625 15.5371C6.30859 15.8008 5.91797 15.791 5.6543 15.5371C5.40039 15.293 5.41016 14.8926 5.6543 14.6387L7.37305 12.9199C7.61719 12.6562 8.01758 12.6758 8.28125 12.9199C8.51562 13.1738 8.53516 13.5742 8.28125 13.8281ZM12.7148 25.4395C19.6777 25.4395 25.4395 19.6777 25.4395 12.7246C25.4395 10.5566 24.873 8.50586 23.877 6.71875L21.6992 8.88672C21.4258 9.16016 21.0449 9.15039 20.791 8.88672C20.5469 8.63281 20.5273 8.25195 20.791 7.98828L23.2031 5.58594C22.9004 5.14648 22.5684 4.7168 22.207 4.32617L4.31641 22.2168C4.7168 22.5781 5.13672 22.9004 5.56641 23.2031L7.99805 20.7715C8.27148 20.5078 8.65234 20.5273 8.90625 20.7715C9.16016 21.0352 9.16992 21.416 8.90625 21.6797L6.69922 23.8867C8.49609 24.873 10.5371 25.4395 12.7148 25.4395ZM19.7754 10.8008L18.0664 12.5195C17.8223 12.7734 17.4219 12.7637 17.1582 12.5195C16.9141 12.2656 16.9043 11.875 17.1582 11.6113L18.877 9.90234C19.1309 9.64844 19.5312 9.64844 19.7754 9.90234C20.0391 10.1465 20.0293 10.5371 19.7754 10.8008ZM16.1523 14.4238L14.4434 16.1328C14.1895 16.3965 13.7891 16.3965 13.5352 16.1328C13.291 15.8887 13.2812 15.4688 13.5352 15.2246L15.2539 13.5156C15.5078 13.2715 15.9082 13.2715 16.1523 13.5156C16.4062 13.7695 16.4062 14.1699 16.1523 14.4238ZM12.5391 18.0469L10.8203 19.7656C10.5664 20.0098 10.166 20.0098 9.92188 19.7656C9.66797 19.502 9.6582 19.1113 9.92188 18.8477L11.6309 17.1387C11.8848 16.8848 12.2852 16.8945 12.5391 17.1387C12.7832 17.3926 12.8027 17.8027 12.5391 18.0469Z" fill="var(--color-primary)"/>
 </g>
</svg>
