<svg version="1.1" xmlns="http://www.w3.org/2000/svg" xmlns:xlink="http://www.w3.org/1999/xlink" width="23.3203" height="22.9785" viewBox="0 0 23.3203 22.9785">
 <g>
  <rect height="22.9785" opacity="0" width="23.3203" x="0" y="0"/>
  <path d="M3.79883 22.9785L19.1504 22.9785C21.6797 22.9785 22.959 21.709 22.959 19.2188L22.959 3.78906C22.959 1.29883 21.6797 0.0292969 19.1504 0.0292969L3.79883 0.0292969C1.2793 0.0292969 0 1.28906 0 3.78906L0 19.2188C0 21.7188 1.2793 22.9785 3.79883 22.9785Z" fill="var(--color-tertiary)"/>
  <path d="M8.94531 18.4961C7.26562 18.4961 6.2793 17.5391 6.2793 15.6152L6.2793 13.877C6.2793 12.9004 6.01562 12.6465 5.30273 12.4512C4.36523 12.1973 4.35547 10.791 5.30273 10.5469C6.01562 10.3516 6.2793 10.0977 6.2793 9.12109L6.2793 7.38281C6.2793 5.44922 7.26562 4.49219 8.94531 4.49219C9.58984 4.49219 9.9707 4.81445 9.9707 5.26367C9.9707 5.72266 9.62891 6.01562 9.18945 6.01562C8.30078 6.01562 7.91016 6.41602 7.91016 7.55859L7.91016 9.42383C7.91016 10.5859 7.19727 11.4258 6.07422 11.582L6.07422 11.3867C7.19727 11.5527 7.91016 12.4023 7.91016 13.5742L7.91016 15.4395C7.91016 16.5723 8.30078 16.9824 9.18945 16.9824C9.62891 16.9824 9.9707 17.2754 9.9707 17.7246C9.9707 18.1738 9.58984 18.4961 8.94531 18.4961ZM14.0234 18.4961C13.3691 18.4961 12.998 18.1738 12.998 17.7246C12.998 17.2754 13.3301 16.9824 13.7695 16.9824C14.6582 16.9824 15.0586 16.5723 15.0586 15.4395L15.0586 13.5742C15.0586 12.4023 15.7617 11.5527 16.8945 11.3867L16.8945 11.582C15.7617 11.4258 15.0586 10.5859 15.0586 9.42383L15.0586 7.55859C15.0586 6.41602 14.6582 6.01562 13.7695 6.01562C13.3301 6.01562 12.998 5.72266 12.998 5.26367C12.998 4.81445 13.3691 4.49219 14.0234 4.49219C15.6934 4.49219 16.6895 5.44922 16.6895 7.38281L16.6895 9.12109C16.6895 10.0977 16.9531 10.3418 17.6562 10.5469C18.6035 10.7812 18.6035 12.207 17.6562 12.4512C16.9434 12.6367 16.6895 12.9004 16.6895 13.877L16.6895 15.6152C16.6895 17.5391 15.6934 18.4961 14.0234 18.4961Z" fill="var(--color-primary)"/>
 </g>
</svg>
