<svg version="1.1" xmlns="http://www.w3.org/2000/svg" xmlns:xlink="http://www.w3.org/1999/xlink" width="23.3203" height="22.9785" viewBox="0 0 23.3203 22.9785">
 <g>
  <rect height="22.9785" opacity="0" width="23.3203" x="0" y="0"/>
  <path d="M3.79883 22.9785L19.1504 22.9785C21.6797 22.9785 22.959 21.709 22.959 19.2188L22.959 3.78906C22.959 1.29883 21.6797 0.0292969 19.1504 0.0292969L3.79883 0.0292969C1.2793 0.0292969 0 1.28906 0 3.78906L0 19.2188C0 21.7188 1.2793 22.9785 3.79883 22.9785Z" fill="var(--color-tertiary)"/>
  <path d="M11.4844 13.5547C10.3516 13.5449 9.42383 12.6367 9.42383 11.4844C9.42383 10.3516 10.3516 9.43359 11.4844 9.43359C12.6074 9.43359 13.5449 10.3516 13.5449 11.4844C13.5449 12.6367 12.6074 13.5645 11.4844 13.5547Z" fill="var(--color-primary)"/>
 </g>
</svg>
