<svg version="1.1" xmlns="http://www.w3.org/2000/svg" xmlns:xlink="http://www.w3.org/1999/xlink" width="25.8008" height="25.459" viewBox="0 0 25.8008 25.459">
 <g>
  <rect height="25.459" opacity="0" width="25.8008" x="0" y="0"/>
  <path d="M12.7148 25.4395C19.6777 25.4395 25.4395 19.6777 25.4395 12.7246C25.4395 5.76172 19.668 0 12.7051 0C5.75195 0 0 5.76172 0 12.7246C0 19.6777 5.76172 25.4395 12.7148 25.4395Z" fill="var(--color-tertiary)"/>
  <path d="M12.7148 19.1406C10.0586 19.1406 8.26172 17.4219 8.26172 14.834C8.26172 13.5938 8.7793 12.4121 9.22852 11.4258C9.94141 9.89258 11.0547 8.03711 12.0605 6.50391C12.2559 6.21094 12.4512 6.08398 12.7148 6.08398C12.9785 6.08398 13.1836 6.21094 13.3691 6.50391C14.3848 8.03711 15.498 9.89258 16.2012 11.4258C16.6504 12.4121 17.1777 13.5938 17.1777 14.834C17.1777 17.4219 15.3711 19.1406 12.7148 19.1406Z" fill="var(--color-primary)"/>
 </g>
</svg>
