<svg version="1.1" xmlns="http://www.w3.org/2000/svg" xmlns:xlink="http://www.w3.org/1999/xlink" width="34.1992" height="26.1499" viewBox="0 0 34.1992 26.1499">
 <g>
  <rect height="26.1499" opacity="0" width="34.1992" x="0" y="0"/>
  <path d="M10.6622 9.88876C10.1712 10.8392 9.89945 11.9236 9.90234 13.0798C9.91211 16.8884 13.0176 20.072 16.9238 20.072C18.0639 20.072 19.1399 19.7967 20.0873 19.3052L23.3579 22.5728C21.4165 23.2986 19.2519 23.7439 16.9238 23.7439C7.07031 23.7439 0 15.6091 0 13.0798C0 11.6003 2.42584 8.20624 6.41996 5.65039ZM33.8379 13.0798C33.8379 14.5578 31.4603 17.9499 27.4859 20.5077L23.1799 16.2037C23.6655 15.2616 23.9355 14.1977 23.9355 13.0798C23.9355 9.17359 20.8008 6.08765 16.9238 6.08765C15.7925 6.08765 14.7267 6.34649 13.7876 6.81577L10.5581 3.58779C12.4885 2.86698 14.6316 2.42554 16.9238 2.42554C26.8457 2.42554 33.8379 10.5505 33.8379 13.0798ZM17.5274 16.7476C17.3321 16.7839 17.1299 16.8005 16.9238 16.8005C14.8633 16.8005 13.2031 15.1404 13.2031 13.0798C13.2031 12.8751 13.2197 12.6742 13.2559 12.48ZM20.6445 13.0798C20.6445 13.2658 20.631 13.4485 20.6004 13.6255L16.385 9.41196C16.5598 9.38208 16.7402 9.3689 16.9238 9.3689C18.9844 9.3689 20.6445 11.0291 20.6445 13.0798Z" fill="var(--color-secondary)"/>
  <path d="M26.709 24.0076C27.041 24.3298 27.5586 24.3494 27.8906 24.0076C28.2422 23.6462 28.2129 23.158 27.8906 22.8259L6.66016 1.60523C6.33789 1.28296 5.80078 1.2732 5.46875 1.60523C5.15625 1.91773 5.15625 2.4646 5.46875 2.78687Z" fill="var(--color-primary)"/>
 </g>
</svg>
