<svg version="1.1" xmlns="http://www.w3.org/2000/svg" xmlns:xlink="http://www.w3.org/1999/xlink" width="20.0122" height="31.2598" viewBox="0 0 20.0122 31.2598">
 <g>
  <rect height="31.2598" opacity="0" width="20.0122" x="0" y="0"/>
  <path d="M10.2161 5.41992C11.7004 5.41992 12.9114 4.20898 12.9114 2.69531C12.9114 1.2207 11.7004 0 10.2161 0C8.71217 0 7.50123 1.2207 7.50123 2.69531C7.50123 4.20898 8.71217 5.41992 10.2161 5.41992ZM14.845 30.9766C15.509 30.7812 15.8508 30.0391 15.6262 29.375L13.6633 23.4375C13.6047 23.252 13.5462 23.1738 13.4192 23.0176L10.1282 19.2285L10.8118 11.6797C10.8215 11.4355 11.1243 11.3672 11.261 11.5723L12.8626 14.0332C13.0969 14.3945 13.4387 14.6973 13.7903 14.8926L17.7844 17.0508C18.3997 17.373 19.1614 17.1387 19.5129 16.543C19.8157 15.918 19.6106 15.1465 19.0051 14.8242L14.9817 12.6758L12.3254 8.55469C11.593 7.43164 10.5286 6.76758 9.06373 6.76758L6.41725 6.76758L5.39185 16.543C5.25514 17.8125 5.48951 18.623 6.52467 19.6777L11.3489 24.5312L13.2337 30.166C13.5071 30.9766 14.2395 31.1328 14.845 30.9766ZM3.77076 16.543L5.8606 16.543C6.96412 16.543 7.7942 15.7617 7.7942 14.7461L7.7942 7.24609C7.7942 6.23047 6.96412 5.44922 5.8606 5.44922L4.41529 5.44922C2.90162 5.44922 1.97389 6.37695 1.97389 7.91016L1.97389 14.7461C1.97389 15.8008 2.71607 16.543 3.77076 16.543ZM0.362558 30.6445C0.880136 31.1621 1.65162 31.1426 2.14967 30.6445L6.76881 26.0352C6.86646 25.9375 6.95435 25.8496 7.01295 25.7422L8.31178 23.125L6.08521 20.8984L4.77662 24.4727L0.362558 28.8965C-0.115958 29.3945-0.125723 30.166 0.362558 30.6445ZM18.3508 10.2832C18.009 10.2832 17.7356 10.5566 17.7356 10.8984L17.7356 12.8223L18.9661 13.4863L18.9661 10.8984C18.9661 10.5566 18.6926 10.2832 18.3508 10.2832ZM18.3508 31.0156C18.6926 31.0156 18.9661 30.7422 18.9661 30.4004L18.9661 18.2812C18.5754 18.3887 18.1458 18.3789 17.7356 18.2617L17.7356 30.4004C17.7356 30.7422 18.009 31.0156 18.3508 31.0156Z" fill="var(--color-primary)"/>
 </g>
</svg>
