<svg version="1.1" xmlns="http://www.w3.org/2000/svg" xmlns:xlink="http://www.w3.org/1999/xlink" width="25.8008" height="25.459" viewBox="0 0 25.8008 25.459">
 <g>
  <rect height="25.459" opacity="0" width="25.8008" x="0" y="0"/>
  <path d="M12.7148 25.4395C19.6777 25.4395 25.4395 19.6777 25.4395 12.7246C25.4395 5.76172 19.668 0 12.7051 0C5.75195 0 0 5.76172 0 12.7246C0 19.6777 5.76172 25.4395 12.7148 25.4395Z" fill="var(--color-tertiary)"/>
  <path d="M9.43359 17.8516C8.89648 17.8516 8.50586 17.4609 8.50586 16.9531C8.50586 16.5332 8.70117 16.2695 9.16016 16.0547L15.7715 12.7344L15.7715 12.6562L9.16016 9.28711C8.71094 9.0625 8.50586 8.78906 8.50586 8.36914C8.50586 7.87109 8.88672 7.49023 9.41406 7.49023C9.6582 7.49023 9.79492 7.53906 9.98047 7.62695L17.5684 11.7383C18.0078 11.9824 18.2227 12.3047 18.2227 12.7246C18.2227 13.1934 18.0273 13.4766 17.5684 13.7109L9.98047 17.7051C9.80469 17.793 9.6582 17.8516 9.43359 17.8516Z" fill="var(--color-primary)"/>
 </g>
</svg>
