<svg version="1.1" xmlns="http://www.w3.org/2000/svg" xmlns:xlink="http://www.w3.org/1999/xlink" width="25.8008" height="25.459" viewBox="0 0 25.8008 25.459">
 <g>
  <rect height="25.459" opacity="0" width="25.8008" x="0" y="0"/>
  <path d="M12.7148 25.4395C19.6777 25.4395 25.4395 19.6777 25.4395 12.7246C25.4395 5.76172 19.668 0 12.7051 0C5.75195 0 0 5.76172 0 12.7246C0 19.6777 5.76172 25.4395 12.7148 25.4395Z" fill="var(--color-tertiary)"/>
  <path d="M12.9004 20.3125C12.5781 20.3125 12.334 20.0879 12.334 19.7266L12.334 18.7988C9.59961 18.4961 7.90039 16.2305 7.90039 12.7441C7.90039 9.32617 9.61914 7.07031 12.334 6.74805L12.334 5.88867C12.334 5.52734 12.5684 5.30273 12.9004 5.30273C13.2324 5.30273 13.4766 5.52734 13.4766 5.88867L13.4766 6.73828C15.3027 6.89453 16.7383 7.99805 17.2656 9.55078C17.334 9.75586 17.373 9.94141 17.373 10.1562C17.373 10.5762 17.0996 10.8496 16.6797 10.8496C16.2793 10.8496 16.084 10.6934 15.9473 10.2441C15.6836 9.13086 14.7266 8.29102 13.4766 8.125L13.4766 12.4609L16.7578 12.4609C17.2363 12.4609 17.5391 12.7539 17.5391 13.2422L17.5391 13.9355C17.5391 16.8066 16.0449 18.623 13.4766 18.8184L13.4766 19.7266C13.4766 20.0879 13.2324 20.3125 12.9004 20.3125ZM12.334 17.4023L12.334 8.14453C10.5176 8.48633 9.41406 10.2051 9.41406 12.7441C9.41406 15.3125 10.5176 17.0605 12.334 17.4023ZM13.4766 17.4414C15.0781 17.2363 16.0742 15.9863 16.0742 14.1602L16.0742 13.8086L13.4766 13.8086Z" fill="var(--color-primary)"/>
 </g>
</svg>
