<svg version="1.1" xmlns="http://www.w3.org/2000/svg" xmlns:xlink="http://www.w3.org/1999/xlink" width="33.5571" height="27.364" viewBox="0 0 33.5571 27.364">
 <g>
  <rect height="27.364" opacity="0" width="33.5571" x="0" y="0"/>
  <path d="M11.4444 2.08531L2.89673 2.08531C2.48658 2.08531 2.15455 1.76304 2.15455 1.35289C2.15455 0.942731 2.48658 0.610699 2.89673 0.610699L13.294 0.610699C12.5046 0.925244 11.8716 1.44102 11.4444 2.08531Z" fill="var(--color-secondary)"/>
  <path d="M11.0803 5.73765L11.4337 6.70445L2.89673 6.70445C2.48658 6.70445 2.15455 6.37242 2.15455 5.96226C2.15455 5.55211 2.48658 5.22984 2.89673 5.22984L10.9281 5.22984C10.9659 5.39792 11.0177 5.56751 11.0803 5.73765Z" fill="var(--color-secondary)"/>
  <path d="M10.3088 10.5814C10.3088 10.9916 9.97681 11.3236 9.56665 11.3236L2.89673 11.3236C2.48658 11.3236 2.15455 10.9916 2.15455 10.5814C2.15455 10.1712 2.48658 9.84898 2.89673 9.84898L9.56665 9.84898C9.97681 9.84898 10.3088 10.1712 10.3088 10.5814Z" fill="var(--color-secondary)"/>
  <path d="M26.2659 25.181C31.0901 23.4232 33.2581 19.0287 31.2561 13.5209L30.3577 11.0502C29.3616 8.32554 27.5647 7.21226 25.4065 7.97398C24.8401 7.21226 23.9417 6.93882 22.9651 7.30015C22.6038 7.42711 22.2815 7.62242 21.9788 7.86656C21.3635 7.05601 20.3967 6.75328 19.3811 7.12437C19.0979 7.22203 18.8147 7.38804 18.5413 7.58336L17.0764 3.55015C16.5588 2.12437 15.26 1.53843 13.9612 2.01695C12.6428 2.49547 12.0276 3.77476 12.5452 5.20054L16.2463 15.3666C16.2659 15.4252 16.2561 15.4837 16.1975 15.5033C16.1487 15.5228 16.0999 15.5033 16.0608 15.4544L14.2932 13.5111C13.5803 12.7396 12.721 12.515 11.9202 12.7982C10.8167 13.1986 10.1038 14.2728 10.5627 15.513C10.6799 15.8451 10.9143 16.2552 11.178 16.5873L15.4749 21.7923C18.5413 25.5033 22.1936 26.6654 26.2659 25.181ZM25.7971 23.765C22.4866 24.9759 19.3616 24.263 16.5686 20.8939L12.2717 15.6986C12.135 15.5423 12.0471 15.3959 11.969 15.1712C11.803 14.7318 12.0081 14.2337 12.5159 14.0384C12.9358 13.8919 13.2971 14.0482 13.6487 14.4291L16.5491 17.4759C16.9885 17.9349 17.3889 17.9935 17.7893 17.847C18.2483 17.681 18.4631 17.1927 18.2776 16.6849L13.8831 4.62437C13.678 4.0482 13.9026 3.53062 14.4397 3.32554C14.9866 3.13023 15.4749 3.3939 15.6799 3.97007L18.8049 12.5345C18.9319 12.9056 19.3323 13.0912 19.7034 12.9544C20.0745 12.8177 20.2502 12.4271 20.1135 12.056L18.9807 8.95054C19.176 8.765 19.4397 8.58922 19.6936 8.50132C20.3381 8.26695 20.8655 8.54039 21.1194 9.23375L22.0764 11.8509C22.2229 12.2611 22.6233 12.4076 22.9749 12.2709C23.3167 12.1537 23.5315 11.7826 23.385 11.3724L22.5647 9.12632C22.76 8.94078 23.0237 8.765 23.2776 8.67711C23.9221 8.44273 24.4495 8.71617 24.7034 9.40953L25.3479 11.1771C25.4944 11.5873 25.9045 11.724 26.2561 11.597C26.5881 11.4701 26.803 11.1087 26.6565 10.6986L26.1389 9.28257C27.301 8.86265 28.346 9.74156 29.0686 11.7337L29.8499 13.8724C31.5979 18.6771 29.9182 22.2709 25.7971 23.765Z" fill="var(--color-primary)"/>
 </g>
</svg>
