<svg version="1.1" xmlns="http://www.w3.org/2000/svg" xmlns:xlink="http://www.w3.org/1999/xlink" width="25.8008" height="25.459" viewBox="0 0 25.8008 25.459">
 <g>
  <rect height="25.459" opacity="0" width="25.8008" x="0" y="0"/>
  <path d="M12.7148 25.4395C19.6777 25.4395 25.4395 19.6777 25.4395 12.7246C25.4395 5.76172 19.668 0 12.7051 0C5.75195 0 0 5.76172 0 12.7246C0 19.6777 5.76172 25.4395 12.7148 25.4395ZM12.7148 23.623C6.67969 23.623 1.82617 18.7598 1.82617 12.7246C1.82617 6.67969 6.66992 1.82617 12.7051 1.82617C18.75 1.82617 23.6133 6.67969 23.6133 12.7246C23.6133 18.7598 18.7598 23.623 12.7148 23.623Z" fill="var(--color-secondary)"/>
  <path d="M9.69727 7.13867C7.56836 7.13867 6.03516 8.75 6.03516 10.9473C6.03516 14.3457 9.6582 17.4219 12.1387 18.9844C12.3438 19.1113 12.5879 19.2578 12.7344 19.2578C12.8809 19.2578 13.1152 19.1113 13.291 18.9844C15.7324 17.3535 19.4043 14.3457 19.4043 10.9473C19.4043 8.75 17.8613 7.13867 15.7422 7.13867C14.4141 7.13867 13.3301 7.92969 12.7148 9.05273C12.0996 7.92969 11.0352 7.13867 9.69727 7.13867Z" fill="var(--color-primary)"/>
 </g>
</svg>
