<svg version="1.1" xmlns="http://www.w3.org/2000/svg" xmlns:xlink="http://www.w3.org/1999/xlink" width="25.8008" height="25.459" viewBox="0 0 25.8008 25.459">
 <g>
  <rect height="25.459" opacity="0" width="25.8008" x="0" y="0"/>
  <path d="M12.7148 25.4395C19.6777 25.4395 25.4395 19.6777 25.4395 12.7246C25.4395 5.76172 19.668 0 12.7051 0C5.75195 0 0 5.76172 0 12.7246C0 19.6777 5.76172 25.4395 12.7148 25.4395Z" fill="var(--color-tertiary)"/>
  <path d="M10.4297 19.9023C9.96094 19.9023 9.60938 19.5605 9.60938 19.1016C9.60938 18.6621 9.96094 18.3105 10.4297 18.3105L12.1777 18.3105L12.1777 11.9336L10.6152 11.9336C10.1562 11.9336 9.79492 11.5918 9.79492 11.1328C9.79492 10.6934 10.1562 10.3418 10.6152 10.3418L13.0762 10.3418C13.6426 10.3418 13.9453 10.752 13.9453 11.3379L13.9453 18.3105L15.6934 18.3105C16.1621 18.3105 16.5234 18.6621 16.5234 19.1016C16.5234 19.5605 16.1621 19.9023 15.6934 19.9023ZM12.627 8.07617C11.7773 8.07617 11.1035 7.39258 11.1035 6.54297C11.1035 5.69336 11.7773 5.00977 12.627 5.00977C13.4766 5.00977 14.1406 5.69336 14.1406 6.54297C14.1406 7.39258 13.4766 8.07617 12.627 8.07617Z" fill="var(--color-primary)"/>
 </g>
</svg>
