<svg version="1.1" xmlns="http://www.w3.org/2000/svg" xmlns:xlink="http://www.w3.org/1999/xlink" width="23.3203" height="22.9785" viewBox="0 0 23.3203 22.9785">
 <g>
  <rect height="22.9785" opacity="0" width="23.3203" x="0" y="0"/>
  <path d="M3.79883 22.9785L19.1504 22.9785C21.6797 22.9785 22.959 21.709 22.959 19.2188L22.959 3.78906C22.959 1.29883 21.6797 0.0292969 19.1504 0.0292969L3.79883 0.0292969C1.2793 0.0292969 0 1.28906 0 3.78906L0 19.2188C0 21.7188 1.2793 22.9785 3.79883 22.9785Z" fill="var(--color-tertiary)"/>
  <path d="M8.04688 4.83398L14.9023 4.83398C15.4297 4.83398 15.8105 5.20508 15.8105 5.73242L15.8105 17.2559C15.8105 17.7832 15.4297 18.1641 14.9023 18.1641L8.04688 18.1641C7.51953 18.1641 7.14844 17.7832 7.14844 17.2559L7.14844 5.73242C7.14844 5.20508 7.51953 4.83398 8.04688 4.83398ZM8.90625 12.6758C8.67188 12.6758 8.50586 12.8418 8.50586 13.0957L8.50586 16.3867C8.50586 16.6406 8.67188 16.8066 8.90625 16.8066L14.043 16.8066C14.2871 16.8066 14.4531 16.6406 14.4531 16.3867L14.4531 13.0957C14.4531 12.8418 14.2871 12.6758 14.043 12.6758Z" fill="var(--color-primary)"/>
 </g>
</svg>
