<svg version="1.1" xmlns="http://www.w3.org/2000/svg" xmlns:xlink="http://www.w3.org/1999/xlink" width="25.8008" height="25.459" viewBox="0 0 25.8008 25.459">
 <g>
  <rect height="25.459" opacity="0" width="25.8008" x="0" y="0"/>
  <path d="M12.7148 25.459C19.6777 25.459 25.4395 19.6973 25.4395 12.7344C25.4395 5.78125 19.668 0.0195312 12.7051 0.0195312C5.75195 0.0195312 0 5.78125 0 12.7344C0 19.6973 5.76172 25.459 12.7148 25.459Z" fill="var(--color-tertiary)"/>
  <path d="M6.95312 18.4082L11.8945 5.71289C12.207 4.94141 13.2227 4.92188 13.5254 5.69336L18.4766 18.4082C18.7793 19.1602 17.9492 19.7949 17.2656 19.1016L13.0176 14.8535C12.832 14.668 12.5977 14.668 12.4121 14.8535L8.16406 19.1016C7.48047 19.7949 6.65039 19.1602 6.95312 18.4082Z" fill="var(--color-primary)"/>
 </g>
</svg>
