<svg version="1.1" xmlns="http://www.w3.org/2000/svg" xmlns:xlink="http://www.w3.org/1999/xlink" width="30.9473" height="31.5918" viewBox="0 0 30.9473 31.5918">
 <g>
  <rect height="31.5918" opacity="0" width="30.9473" x="0" y="0"/>
  <path d="M23.2553 3.47656L7.34027 3.47656C7.40286 2.59177 7.97731 2.08008 8.91602 2.08008L21.6699 2.08008C22.6086 2.08008 23.1917 2.59177 23.2553 3.47656Z" fill="var(--color-tertiary)"/>
  <path d="M25.7757 6.89437C25.4256 6.84087 25.0548 6.81641 24.668 6.81641L5.91797 6.81641C5.53106 6.81641 5.16024 6.84065 4.81033 6.89376C4.94314 5.85538 5.65863 5.27344 6.80664 5.27344L23.7793 5.27344C24.9275 5.27344 25.6431 5.85561 25.7757 6.89437Z" fill="var(--color-tertiary)"/>
  <path d="M5.91797 29.4824L24.668 29.4824C27.1875 29.4824 28.4668 28.2031 28.4668 25.7129L28.4668 12.6953C28.4668 10.2051 27.1875 8.93555 24.668 8.93555L5.91797 8.93555C3.38867 8.93555 2.11914 10.1953 2.11914 12.6953L2.11914 25.7129C2.11914 28.2129 3.38867 29.4824 5.91797 29.4824Z" fill="var(--color-tertiary)"/>
  <path d="M10.4199 24.3555L10.4199 19.1504C10.4199 18.2031 10.8203 17.7539 11.6211 17.7148L11.6211 16.1133C11.6211 13.7891 13.0273 12.2461 15.0977 12.2461C17.168 12.2461 18.5742 13.7891 18.5742 16.1133L18.5742 17.7148C19.375 17.7539 19.7754 18.2031 19.7754 19.1504L19.7754 24.3555C19.7754 25.3418 19.3359 25.791 18.4277 25.791L11.7676 25.791C10.8594 25.791 10.4199 25.3418 10.4199 24.3555ZM12.8223 17.7051L17.3633 17.7051L17.3633 15.9961C17.3633 14.4434 16.4551 13.4082 15.0977 13.4082C13.7402 13.4082 12.8223 14.4434 12.8223 15.9961Z" fill="var(--color-primary)"/>
 </g>
</svg>
