<svg version="1.1" xmlns="http://www.w3.org/2000/svg" xmlns:xlink="http://www.w3.org/1999/xlink" width="23.3203" height="22.9785" viewBox="0 0 23.3203 22.9785">
 <g>
  <rect height="22.9785" opacity="0" width="23.3203" x="0" y="0"/>
  <path d="M3.79883 22.9785L19.1504 22.9785C21.6797 22.9785 22.959 21.709 22.959 19.2188L22.959 3.78906C22.959 1.29883 21.6797 0.0292969 19.1504 0.0292969L3.79883 0.0292969C1.2793 0.0292969 0 1.28906 0 3.78906L0 19.2188C0 21.7188 1.2793 22.9785 3.79883 22.9785Z" fill="var(--color-tertiary)"/>
  <path d="M7.40234 16.0449C6.99219 16.0449 6.68945 15.7715 6.68945 15.3516L6.68945 8.125C6.68945 7.69531 6.98242 7.40234 7.37305 7.40234C7.75391 7.40234 8.03711 7.66602 8.03711 8.1543L8.03711 8.38867C8.42773 7.69531 9.04297 7.35352 9.76562 7.35352C10.5957 7.35352 11.25 7.73438 11.6113 8.47656L13.1348 4.57031C13.2422 4.31641 13.418 4.15039 13.6816 4.15039C14.0039 4.15039 14.248 4.375 14.248 4.67773C14.248 4.78516 14.2188 4.90234 14.1895 5L13.1934 7.5C13.4082 7.41211 13.623 7.36328 13.8867 7.36328C15.3223 7.36328 16.2891 8.38867 16.2891 10.0781L16.2891 15.332C16.2891 15.7617 15.9961 16.0547 15.5957 16.0547C15.1855 16.0547 14.8926 15.7617 14.8926 15.332L14.8926 10.1953C14.8926 9.23828 14.4043 8.64258 13.584 8.64258C12.7344 8.64258 12.1973 9.28711 12.1973 10.293L12.1973 15.3223C12.1973 15.7617 11.9043 16.0449 11.4941 16.0449C11.0938 16.0449 10.8008 15.7617 10.8008 15.3223L10.8008 13.7988L9.15039 18.4863C9.05273 18.7598 8.84766 18.9062 8.59375 18.9062C8.28125 18.9062 8.04688 18.6816 8.04688 18.3789C8.04688 18.2617 8.07617 18.1445 8.11523 18.0371L10.791 10.4688L10.791 10.0488C10.791 9.22852 10.2539 8.63281 9.51172 8.63281C8.61328 8.63281 8.10547 9.35547 8.10547 10.4102L8.10547 15.3223C8.10547 15.7617 7.8125 16.0449 7.40234 16.0449Z" fill="var(--color-primary)"/>
 </g>
</svg>
