<svg version="1.1" xmlns="http://www.w3.org/2000/svg" xmlns:xlink="http://www.w3.org/1999/xlink" width="25.8008" height="25.459" viewBox="0 0 25.8008 25.459">
 <g>
  <rect height="25.459" opacity="0" width="25.8008" x="0" y="0"/>
  <path d="M12.7148 25.4395C19.6777 25.4395 25.4395 19.6777 25.4395 12.7246C25.4395 5.76172 19.668 0 12.7051 0C5.75195 0 0 5.76172 0 12.7246C0 19.6777 5.76172 25.4395 12.7148 25.4395Z" fill="var(--color-tertiary)"/>
  <path d="M5.89844 11.6992C5.89844 10.3906 6.5625 9.41406 7.45117 9.41406C8.33008 9.41406 9.01367 10.3906 9.01367 11.6992C9.01367 12.998 8.33008 13.9648 7.45117 13.9648C6.5625 13.9648 5.89844 12.998 5.89844 11.6992ZM9.04297 7.94922C9.04297 6.65039 9.7168 5.68359 10.6055 5.68359C11.4941 5.68359 12.1582 6.65039 12.1582 7.94922C12.1582 9.24805 11.4941 10.2344 10.6055 10.2344C9.7168 10.2344 9.04297 9.24805 9.04297 7.94922ZM13.2715 7.94922C13.2715 6.65039 13.9355 5.68359 14.8242 5.68359C15.7031 5.68359 16.3867 6.65039 16.3867 7.94922C16.3867 9.24805 15.7031 10.2344 14.8242 10.2344C13.9355 10.2344 13.2715 9.24805 13.2715 7.94922ZM16.416 11.6992C16.416 10.3906 17.0898 9.41406 17.9785 9.41406C18.8574 9.41406 19.5312 10.3906 19.5312 11.6992C19.5312 12.998 18.8574 13.9648 17.9785 13.9648C17.0898 13.9648 16.416 12.998 16.416 11.6992ZM7.8125 16.7676C7.8125 15.6445 8.50586 15.0586 9.15039 14.5117C9.50195 14.2383 9.85352 13.9551 10.0879 13.584C10.2637 13.3203 10.4102 13.0078 10.5566 12.7148C10.9961 11.7188 11.3965 10.7422 12.7148 10.7422C14.0234 10.7422 14.4238 11.7188 14.873 12.7148C15.0098 13.0176 15.166 13.3301 15.3418 13.6035C15.5762 13.9648 15.918 14.2383 16.2695 14.5117C16.9141 15.0586 17.6074 15.6445 17.6074 16.7676C17.6074 18.0664 16.7188 18.9941 15.4199 18.9941C14.7754 18.9941 14.3066 18.8184 13.8672 18.6523C13.4863 18.5059 13.1348 18.3887 12.7148 18.3887C12.2852 18.3887 11.9336 18.5059 11.5527 18.6523C11.1133 18.8184 10.6445 18.9941 10 18.9941C8.70117 18.9941 7.8125 18.0664 7.8125 16.7676Z" fill="var(--color-primary)"/>
 </g>
</svg>
