<svg version="1.1" xmlns="http://www.w3.org/2000/svg" xmlns:xlink="http://www.w3.org/1999/xlink" width="18.7402" height="23.1934" viewBox="0 0 18.7402 23.1934">
 <g>
  <rect height="23.1934" opacity="0" width="18.7402" x="0" y="0"/>
  <path d="M2.40234 22.1777C2.40234 22.7441 2.85156 23.1934 3.41797 23.1934C3.97461 23.1934 4.43359 22.7441 4.43359 22.1777L4.43359 14.4043L9.15039 14.4043C13.4473 14.4043 16.3184 11.6016 16.3184 7.43164C16.3184 3.28125 13.6133 0.488281 9.24805 0.488281L3.41797 0.488281C2.80273 0.488281 2.40234 0.908203 2.40234 1.54297ZM4.43359 12.6074L4.43359 2.30469L8.78906 2.30469C12.3535 2.30469 14.2383 4.18945 14.2383 7.43164C14.2383 10.6836 12.2168 12.6074 8.71094 12.6074ZM0.693359 8.03711L17.6758 8.03711C18.0762 8.03711 18.3789 7.71484 18.3789 7.33398C18.3789 6.92383 18.0762 6.62109 17.6758 6.62109L0.693359 6.62109C0.302734 6.62109 0 6.92383 0 7.33398C0 7.71484 0.302734 8.03711 0.693359 8.03711Z" fill="var(--color-primary)"/>
 </g>
</svg>
