<svg version="1.1" xmlns="http://www.w3.org/2000/svg" xmlns:xlink="http://www.w3.org/1999/xlink" width="49.4922" height="17.5323" viewBox="0 0 49.4922 17.5323">
 <g>
  <rect height="17.5323" opacity="0" width="49.4922" x="0" y="0"/>
  <path d="M0 8.76125C0 11.9839 1.19141 14.9527 3.28125 17.1695C3.69141 17.6187 4.28711 17.6284 4.63867 17.228C4.9707 16.8374 4.86328 16.3296 4.48242 15.8999C2.74414 14.0054 1.74805 11.5152 1.74805 8.76125C1.74805 5.99758 2.74414 3.50734 4.48242 1.61281C4.86328 1.18312 4.9707 0.675312 4.63867 0.294453C4.28711-0.105938 3.69141-0.105938 3.28125 0.343281C1.19141 2.56984 0 5.52883 0 8.76125ZM49.1309 8.76125C49.1309 5.52883 47.9395 2.56984 45.8496 0.343281C45.4395-0.105938 44.8438-0.105938 44.4922 0.294453C44.1504 0.675312 44.2578 1.18312 44.6484 1.61281C46.3867 3.50734 47.3828 5.99758 47.3828 8.76125C47.3828 11.5152 46.3867 14.0054 44.6484 15.8999C44.2578 16.3296 44.1504 16.8374 44.4922 17.228C44.8438 17.6284 45.4395 17.6187 45.8496 17.1695C47.9395 14.9527 49.1309 11.9839 49.1309 8.76125Z" fill="var(--color-secondary)"/>
  <path d="M5 8.76125C5 10.5874 5.63477 12.2769 6.74805 13.5952C7.12891 14.0737 7.76367 14.0737 8.125 13.6734C8.4668 13.2827 8.32031 12.7945 7.97852 12.3452C7.14844 11.398 6.74805 10.1284 6.74805 8.76125C6.74805 7.3843 7.1582 6.105 7.97852 5.1675C8.32031 4.71828 8.4668 4.23 8.125 3.84914C7.76367 3.44875 7.12891 3.43898 6.74805 3.9175C5.63477 5.23586 5 6.93508 5 8.76125ZM44.1309 8.76125C44.1309 6.93508 43.4961 5.23586 42.3828 3.9175C42.002 3.43898 41.3672 3.44875 41.0059 3.84914C40.6641 4.23 40.8105 4.71828 41.1523 5.1675C41.9727 6.11477 42.3828 7.39406 42.3828 8.76125C42.3828 10.1284 41.9727 11.398 41.1523 12.3452C40.8105 12.7945 40.6641 13.2827 41.0059 13.6734C41.3672 14.0737 42.002 14.0737 42.3828 13.5952C43.4961 12.2769 44.1309 10.5874 44.1309 8.76125Z" fill="var(--color-secondary)"/>
  <path d="M9.90234 9.70852C9.94141 10.6753 10.2344 11.6128 10.8301 12.2183C11.2598 12.648 11.8555 12.8921 12.5781 12.7749L17.2363 11.9741C17.8906 11.8667 18.3691 11.6616 18.6914 11.3394C19.0918 10.9487 19.2383 10.353 19.2383 9.5425L19.2578 8.2632C19.2578 8.06789 19.3359 7.92141 19.4629 7.78469C19.5801 7.64797 19.7559 7.57961 19.9023 7.54055C20.7227 7.33547 22.4609 7.12062 24.5605 7.12062C26.6699 7.12062 28.4082 7.33547 29.2285 7.54055C29.375 7.57961 29.5508 7.64797 29.668 7.78469C29.7949 7.92141 29.873 8.06789 29.873 8.2632L29.8828 9.5425C29.8926 10.353 30.0293 10.9487 30.4395 11.3394C30.7617 11.6616 31.2402 11.8667 31.8945 11.9741L36.5527 12.7749C37.2754 12.8921 37.8711 12.648 38.3008 12.2183C38.8965 11.6128 39.1895 10.6753 39.2285 9.70852C39.2871 8.0093 38.6914 6.61281 37.5293 5.4507C34.9805 2.89211 29.9023 1.7593 24.5605 1.74953C19.2285 1.7593 14.1504 2.89211 11.5918 5.4507C10.4395 6.61281 9.84375 8.0093 9.90234 9.70852Z" fill="var(--color-primary)"/>
 </g>
</svg>
