<svg version="1.1" xmlns="http://www.w3.org/2000/svg" xmlns:xlink="http://www.w3.org/1999/xlink" width="25.8008" height="25.459" viewBox="0 0 25.8008 25.459">
 <g>
  <rect height="25.459" opacity="0" width="25.8008" x="0" y="0"/>
  <path d="M12.7148 25.4395C19.6777 25.4395 25.4395 19.6777 25.4395 12.7246C25.4395 5.76172 19.668 0 12.7051 0C5.75195 0 0 5.76172 0 12.7246C0 19.6777 5.76172 25.4395 12.7148 25.4395ZM12.7148 23.623C6.67969 23.623 1.82617 18.7598 1.82617 12.7246C1.82617 6.67969 6.66992 1.82617 12.7051 1.82617C18.75 1.82617 23.6133 6.67969 23.6133 12.7246C23.6133 18.7598 18.7598 23.623 12.7148 23.623Z" fill="var(--color-secondary)"/>
  <path d="M18.1934 7.24609C16.7188 5.81055 14.8242 5.81055 13.3398 7.30469L10.6445 9.99023L15.4395 14.7852L18.1348 12.0898C19.6289 10.5957 19.6484 8.66211 18.1934 7.24609ZM7.22656 18.2129C8.68164 19.6289 10.6055 19.6191 12.0801 18.1348L14.7656 15.4395L9.99023 10.6641L7.29492 13.3594C5.81055 14.8633 5.80078 16.7773 7.22656 18.2129Z" fill="var(--color-primary)"/>
 </g>
</svg>
