<svg version="1.1" xmlns="http://www.w3.org/2000/svg" xmlns:xlink="http://www.w3.org/1999/xlink" width="23.3203" height="22.9785" viewBox="0 0 23.3203 22.9785">
 <g>
  <rect height="22.9785" opacity="0" width="23.3203" x="0" y="0"/>
  <path d="M3.79883 22.9785L19.1504 22.9785C21.6797 22.9785 22.959 21.709 22.959 19.2188L22.959 3.78906C22.959 1.29883 21.6797 0.0292969 19.1504 0.0292969L3.79883 0.0292969C1.2793 0.0292969 0 1.28906 0 3.78906L0 19.2188C0 21.7188 1.2793 22.9785 3.79883 22.9785Z" fill="var(--color-tertiary)"/>
  <path d="M7.43164 17.334C7.05078 17.334 6.69922 17.2168 6.42578 16.9629C5.00977 15.625 4.04297 13.6133 4.04297 11.4941C4.04297 9.36523 5.01953 7.33398 6.44531 6.00586C6.69922 5.77148 7.05078 5.66406 7.43164 5.66406L15.5273 5.66406C15.8984 5.66406 16.2598 5.77148 16.5332 6.03516C17.9492 7.36328 18.9062 9.38477 18.9062 11.4941C18.9062 13.6133 17.9492 15.625 16.5332 16.9629C16.2598 17.2168 15.8984 17.334 15.5273 17.334ZM8.35938 14.3848C8.74023 14.3848 9.04297 14.0918 9.04297 13.7012L9.04297 9.28711C9.04297 8.90625 8.74023 8.60352 8.35938 8.60352C7.97852 8.60352 7.68555 8.90625 7.68555 9.28711L7.68555 13.7012C7.68555 14.0918 7.97852 14.3848 8.35938 14.3848ZM14.5996 14.3848C14.9707 14.3848 15.2832 14.0918 15.2832 13.7012L15.2832 9.28711C15.2832 8.90625 14.9707 8.60352 14.5996 8.60352C14.2188 8.60352 13.916 8.90625 13.916 9.28711L13.916 13.7012C13.916 14.0918 14.2188 14.3848 14.5996 14.3848Z" fill="var(--color-primary)"/>
 </g>
</svg>
