<svg version="1.1" xmlns="http://www.w3.org/2000/svg" xmlns:xlink="http://www.w3.org/1999/xlink" width="23.3203" height="22.9785" viewBox="0 0 23.3203 22.9785">
 <g>
  <rect height="22.9785" opacity="0" width="23.3203" x="0" y="0"/>
  <path d="M3.79883 22.9785L19.1504 22.9785C21.6797 22.9785 22.959 21.709 22.959 19.2188L22.959 3.78906C22.959 1.29883 21.6797 0.0292969 19.1504 0.0292969L3.79883 0.0292969C1.2793 0.0292969 0 1.28906 0 3.78906L0 19.2188C0 21.7188 1.2793 22.9785 3.79883 22.9785Z" fill="var(--color-tertiary)"/>
  <path d="M7.07031 7.57812L15.8887 7.57812C16.6016 7.57812 16.8945 7.89062 17.2754 8.28125L19.6289 10.7031C20.0293 11.123 20.0391 11.8066 19.6289 12.2266L17.2754 14.6777C16.8945 15.0781 16.5039 15.3809 15.8887 15.3809L7.07031 15.3809C6.45508 15.3809 6.06445 15.0781 5.68359 14.6777L3.32031 12.2266C2.91992 11.8066 2.91992 11.123 3.33008 10.7031L5.68359 8.28125C6.06445 7.89062 6.35742 7.57812 7.07031 7.57812ZM6.86523 10.2734C6.21094 10.2734 5.6543 10.8203 5.6543 11.4844C5.6543 12.1387 6.21094 12.6953 6.86523 12.6953C7.5293 12.6953 8.07617 12.1387 8.07617 11.4844C8.07617 10.8203 7.5293 10.2734 6.86523 10.2734ZM11.4746 11.1816C10.8203 11.1816 10.2637 11.7285 10.2637 12.3926C10.2637 13.0469 10.8203 13.6035 11.4746 13.6035C12.1387 13.6035 12.6855 13.0469 12.6855 12.3926C12.6855 11.7285 12.1387 11.1816 11.4746 11.1816ZM16.084 10.2734C15.4297 10.2734 14.873 10.8203 14.873 11.4844C14.873 12.1387 15.4297 12.6953 16.084 12.6953C16.748 12.6953 17.2949 12.1387 17.2949 11.4844C17.2949 10.8203 16.748 10.2734 16.084 10.2734Z" fill="var(--color-primary)"/>
 </g>
</svg>
