<svg version="1.1" xmlns="http://www.w3.org/2000/svg" xmlns:xlink="http://www.w3.org/1999/xlink" width="23.3203" height="22.9785" viewBox="0 0 23.3203 22.9785">
 <g>
  <rect height="22.9785" opacity="0" width="23.3203" x="0" y="0"/>
  <path d="M3.79883 22.9785L19.1504 22.9785C21.6797 22.9785 22.959 21.709 22.959 19.2188L22.959 3.78906C22.959 1.29883 21.6797 0.0292969 19.1504 0.0292969L3.79883 0.0292969C1.2793 0.0292969 0 1.28906 0 3.78906L0 19.2188C0 21.7188 1.2793 22.9785 3.79883 22.9785Z" fill="var(--color-tertiary)"/>
  <path d="M11.3672 17.5C9.0918 17.5 7.50977 16.377 7.08008 15.0977C6.98242 14.873 6.95312 14.6777 6.95312 14.502C6.95312 13.9941 7.26562 13.6914 7.76367 13.6914C8.17383 13.6914 8.41797 13.8965 8.61328 14.3164C9.00391 15.4102 10.0488 16.0254 11.4941 16.0254C12.9883 16.0254 14.1797 15.2832 14.1797 14.1113C14.1797 13.1543 13.6035 12.7246 11.9922 12.2754L10.127 11.7578C8.1543 11.2207 7.14844 10.3223 7.14844 8.74023C7.14844 6.71875 8.94531 5.29297 11.5137 5.29297C13.6523 5.29297 15.1855 6.28906 15.6348 7.68555C15.7129 7.90039 15.752 8.0957 15.752 8.25195C15.752 8.7793 15.4199 9.0332 14.9512 9.0332C14.5117 9.0332 14.2773 8.82812 14.1211 8.4375C13.7207 7.31445 12.8125 6.72852 11.4453 6.72852C10 6.72852 9.00391 7.51953 9.00391 8.65234C9.00391 9.48242 9.55078 9.9707 10.8691 10.332L12.5977 10.8008C14.8633 11.4062 16.0352 12.3145 16.0352 13.9551C16.0352 16.123 14.1895 17.5 11.3672 17.5Z" fill="var(--color-primary)"/>
 </g>
</svg>
