<svg version="1.1" xmlns="http://www.w3.org/2000/svg" xmlns:xlink="http://www.w3.org/1999/xlink" width="23.3203" height="22.9785" viewBox="0 0 23.3203 22.9785">
 <g>
  <rect height="22.9785" opacity="0" width="23.3203" x="0" y="0"/>
  <path d="M3.79883 22.9785L19.1504 22.9785C21.6797 22.9785 22.959 21.709 22.959 19.2188L22.959 3.78906C22.959 1.29883 21.6797 0.0292969 19.1504 0.0292969L3.79883 0.0292969C1.2793 0.0292969 0 1.28906 0 3.78906L0 19.2188C0 21.7188 1.2793 22.9785 3.79883 22.9785Z" fill="var(--color-tertiary)"/>
  <path d="M6.75781 17.0898L6.75781 6.62109C6.75781 6.08398 7.09961 5.73242 7.62695 5.73242L10.2246 5.73242C12.2754 5.73242 13.2324 6.68945 13.2324 8.91602L13.2324 13.7305C13.2324 14.1602 12.959 14.4336 12.5586 14.4336C12.1582 14.4336 11.875 14.1602 11.875 13.7305L11.875 9.11133C11.875 7.62695 11.2988 7.19727 9.92188 7.19727L8.11523 7.19727L8.11523 17.0801C8.11523 17.5 7.85156 17.793 7.45117 17.793C7.05078 17.793 6.75781 17.5098 6.75781 17.0898ZM9.3457 16.7969L9.3457 9.64844C9.3457 9.21875 9.62891 8.94531 10.0293 8.94531C10.4199 8.94531 10.6934 9.21875 10.6934 9.64844L10.6934 16.2109L12.4805 16.2109C13.916 16.2109 14.4531 15.8691 14.4531 14.2188L14.4531 6.33789C14.4531 5.9082 14.7266 5.625 15.1367 5.625C15.5371 5.625 15.8008 5.91797 15.8008 6.33789L15.8008 14.2188C15.8008 16.6895 14.8633 17.666 12.7246 17.666L10.1855 17.666C9.66797 17.666 9.3457 17.334 9.3457 16.7969Z" fill="var(--color-primary)"/>
 </g>
</svg>
