<svg version="1.1" xmlns="http://www.w3.org/2000/svg" xmlns:xlink="http://www.w3.org/1999/xlink" width="23.3203" height="22.9785" viewBox="0 0 23.3203 22.9785">
 <g>
  <rect height="22.9785" opacity="0" width="23.3203" x="0" y="0"/>
  <path d="M3.79883 22.9785L19.1504 22.9785C21.6797 22.9785 22.959 21.709 22.959 19.2188L22.959 3.78906C22.959 1.29883 21.6797 0.0292969 19.1504 0.0292969L3.79883 0.0292969C1.2793 0.0292969 0 1.28906 0 3.78906L0 19.2188C0 21.7188 1.2793 22.9785 3.79883 22.9785Z" fill="var(--color-tertiary)"/>
  <path d="M8.19336 19.0918C7.34375 19.0918 6.80664 18.5938 6.77734 17.7441L6.29883 7.34375L5.17578 7.34375C4.90234 7.34375 4.67773 7.12891 4.67773 6.85547C4.67773 6.57227 4.90234 6.33789 5.17578 6.33789L8.39844 6.33789L8.39844 5.25391C8.39844 4.24805 9.08203 3.58398 10.166 3.58398L12.8125 3.58398C13.8965 3.58398 14.5996 4.24805 14.5996 5.25391L14.5996 6.33789L17.7734 6.33789C18.0566 6.33789 18.291 6.57227 18.2812 6.85547C18.2715 7.12891 18.0566 7.34375 17.7734 7.34375L16.709 7.34375L16.2402 17.7441C16.2109 18.5938 15.6445 19.0918 14.8145 19.0918ZM9.27734 17.0898C9.55078 17.0898 9.70703 16.9141 9.69727 16.6699L9.39453 9.01367C9.39453 8.75977 9.21875 8.60352 8.96484 8.60352C8.67188 8.60352 8.50586 8.76953 8.51562 9.0332L8.83789 16.6895C8.84766 16.9238 9.0332 17.0898 9.27734 17.0898ZM11.4648 17.0898C11.7285 17.0898 11.9141 16.9141 11.9141 16.6699L11.9141 9.02344C11.9141 8.75977 11.7383 8.60352 11.4648 8.60352C11.1816 8.60352 11.0254 8.75977 11.0254 9.02344L11.0254 16.6699C11.0254 16.9141 11.2012 17.0898 11.4648 17.0898ZM13.6426 17.0898C13.8965 17.0898 14.082 16.9238 14.082 16.6895L14.4141 9.0332C14.4141 8.76953 14.248 8.60352 13.9746 8.60352C13.7109 8.60352 13.5352 8.75977 13.5254 9.01367L13.2324 16.6699C13.2227 16.9141 13.3789 17.0898 13.6426 17.0898ZM9.56055 6.33789L13.3887 6.33789L13.3887 5.32227C13.3887 4.96094 13.125 4.7168 12.7344 4.7168L10.2051 4.7168C9.82422 4.7168 9.56055 4.96094 9.56055 5.32227Z" fill="var(--color-primary)"/>
 </g>
</svg>
