<svg version="1.1" xmlns="http://www.w3.org/2000/svg" xmlns:xlink="http://www.w3.org/1999/xlink" width="25.8008" height="25.459" viewBox="0 0 25.8008 25.459">
 <g>
  <rect height="25.459" opacity="0" width="25.8008" x="0" y="0"/>
  <path d="M12.7148 25.4395C19.6777 25.4395 25.4395 19.6777 25.4395 12.7246C25.4395 5.76172 19.668 0 12.7051 0C5.75195 0 0 5.76172 0 12.7246C0 19.6777 5.76172 25.4395 12.7148 25.4395Z" fill="var(--color-tertiary)"/>
  <path d="M12.7246 18.9844C12.2852 18.9844 11.9824 18.6816 11.9824 18.2227L11.9824 15.8496L10.2539 16.6309C10.1562 16.6699 10.0391 16.6992 9.94141 16.6992C9.59961 16.6992 9.375 16.4648 9.375 16.1426C9.375 15.8984 9.49219 15.7227 9.77539 15.5957L11.9824 14.6094L11.9824 13.3203L10.2539 14.0918C10.1562 14.1406 10.0391 14.1797 9.94141 14.1797C9.59961 14.1797 9.375 13.9355 9.375 13.6133C9.375 13.3594 9.49219 13.2031 9.77539 13.0664L11.9824 12.0898L11.9824 8.30078L8.79883 8.30078C8.37891 8.30078 8.08594 8.01758 8.08594 7.61719C8.08594 7.2168 8.37891 6.93359 8.79883 6.93359L16.6309 6.93359C17.0508 6.93359 17.3438 7.2168 17.3438 7.61719C17.3438 8.01758 17.0508 8.30078 16.6309 8.30078L13.4473 8.30078L13.4473 11.4746L15.2148 10.6641C15.3125 10.6348 15.4102 10.6055 15.498 10.6055C15.8398 10.6055 16.0645 10.8398 16.0645 11.1719C16.0645 11.4062 15.9375 11.5918 15.6641 11.709L13.4473 12.7051L13.4473 13.9941L15.1855 13.2129C15.2832 13.1641 15.3906 13.125 15.5078 13.125C15.8301 13.125 16.0645 13.3691 16.0645 13.6914C16.0645 13.9453 15.9375 14.1113 15.6641 14.248L13.4473 15.2344L13.4473 18.2227C13.4473 18.6816 13.1445 18.9844 12.7246 18.9844Z" fill="var(--color-primary)"/>
 </g>
</svg>
