<svg version="1.1" xmlns="http://www.w3.org/2000/svg" xmlns:xlink="http://www.w3.org/1999/xlink" width="29.9512" height="22.959" viewBox="0 0 29.9512 22.959">
 <g>
  <rect height="22.959" opacity="0" width="29.9512" x="0" y="0"/>
  <path d="M3.79883 22.959L25.7812 22.959C28.3105 22.959 29.5898 21.6797 29.5898 19.1992L29.5898 3.76953C29.5898 1.2793 28.3105 0 25.7812 0L3.79883 0C1.2793 0 0 1.26953 0 3.76953L0 19.1992C0 21.6992 1.2793 22.959 3.79883 22.959Z" fill="var(--color-tertiary)"/>
  <path d="M10.5566 16.6406C10.0586 16.6406 9.66797 16.2402 9.66797 15.7324C9.66797 15.498 9.75586 15.2734 9.93164 15.0977L13.5352 11.4941L9.93164 7.89062C9.75586 7.71484 9.66797 7.5 9.66797 7.25586C9.66797 6.75781 10.0586 6.37695 10.5566 6.37695C10.8105 6.37695 11.0059 6.46484 11.1914 6.64062L14.8047 10.2441L18.4277 6.63086C18.623 6.43555 18.8184 6.35742 19.0625 6.35742C19.5605 6.35742 19.9512 6.74805 19.9512 7.23633C19.9512 7.49023 19.8828 7.68555 19.6875 7.88086L16.0742 11.4941L19.6777 15.0879C19.8633 15.2637 19.9414 15.4883 19.9414 15.7324C19.9414 16.2402 19.5508 16.6406 19.043 16.6406C18.7891 16.6406 18.5645 16.543 18.3887 16.3672L14.8047 12.7637L11.2207 16.3672C11.0352 16.543 10.8105 16.6406 10.5566 16.6406Z" fill="var(--color-primary)"/>
 </g>
</svg>
