<svg version="1.1" xmlns="http://www.w3.org/2000/svg" xmlns:xlink="http://www.w3.org/1999/xlink" width="23.3203" height="22.9785" viewBox="0 0 23.3203 22.9785">
 <g>
  <rect height="22.9785" opacity="0" width="23.3203" x="0" y="0"/>
  <path d="M3.79883 22.9785L19.1504 22.9785C21.6797 22.9785 22.959 21.709 22.959 19.2188L22.959 3.78906C22.959 1.29883 21.6797 0.0292969 19.1504 0.0292969L3.79883 0.0292969C1.2793 0.0292969 0 1.28906 0 3.78906L0 19.2188C0 21.7188 1.2793 22.9785 3.79883 22.9785Z" fill="var(--color-tertiary)"/>
  <path d="M7.5 16.9531C4.9707 16.9531 4.25781 14.0039 4.25781 11.4844C4.25781 8.96484 4.9707 6.01562 7.5 6.01562C10.0293 6.01562 10.7422 8.96484 10.7422 11.4844C10.7422 14.0039 10.0293 16.9531 7.5 16.9531ZM7.5 15.5957C8.70117 15.5957 9.08203 13.6328 9.08203 11.4844C9.08203 9.32617 8.70117 7.37305 7.5 7.37305C6.28906 7.37305 5.91797 9.32617 5.91797 11.4844C5.91797 13.6328 6.28906 15.5957 7.5 15.5957ZM15.3027 16.9531C14.1211 16.9531 13.0176 16.2207 12.5977 15.1367C12.5 14.9121 12.4316 14.6387 12.4316 14.3848C12.4316 13.9648 12.7051 13.6914 13.1152 13.6914C13.4277 13.6914 13.6816 13.8672 13.8086 14.2578C14.043 15.0195 14.5117 15.6152 15.2832 15.6152C16.3184 15.6152 16.748 14.4531 16.748 13.3008C16.748 12.2852 16.3281 11.0645 15.3125 11.0645C14.7461 11.0645 14.375 11.3965 14.082 11.875C13.8379 12.1973 13.6523 12.3438 13.3301 12.3438C12.8027 12.3438 12.5684 11.9629 12.5684 11.5234C12.5684 11.3574 12.5781 11.1523 12.5879 10.9473L12.832 7.26562C12.8711 6.66992 13.1445 6.25977 13.75 6.25977L17.2852 6.25977C17.666 6.25977 17.9199 6.55273 17.9199 6.93359C17.9199 7.34375 17.6758 7.62695 17.2852 7.62695L14.1895 7.62695L13.9648 10.9863L14.0137 10.9863C14.3555 10.1953 15.0781 9.84375 15.8203 9.84375C17.4902 9.84375 18.3398 11.4941 18.3398 13.2617C18.3398 15.2539 17.2656 16.9531 15.3027 16.9531Z" fill="var(--color-primary)"/>
 </g>
</svg>
