<svg version="1.1" xmlns="http://www.w3.org/2000/svg" xmlns:xlink="http://www.w3.org/1999/xlink" width="23.3203" height="22.9785" viewBox="0 0 23.3203 22.9785">
 <g>
  <rect height="22.9785" opacity="0" width="23.3203" x="0" y="0"/>
  <path d="M3.79883 22.9785L19.1504 22.9785C21.6797 22.9785 22.959 21.709 22.959 19.2188L22.959 3.78906C22.959 1.29883 21.6797 0.0292969 19.1504 0.0292969L3.79883 0.0292969C1.2793 0.0292969 0 1.28906 0 3.78906L0 19.2188C0 21.7188 1.2793 22.9785 3.79883 22.9785Z" fill="var(--color-tertiary)"/>
  <path d="M8.83789 16.8652C8.4668 16.8652 8.05664 16.6406 8.05664 16.0449L8.05664 14.5605L5.04883 14.5605C4.47266 14.5605 4.0918 14.1797 4.0918 13.623C4.0918 13.2617 4.16016 12.9688 4.35547 12.5293L6.85547 7.23633C7.1875 6.51367 7.55859 6.10352 8.35938 6.10352C9.08203 6.10352 9.61914 6.52344 9.61914 7.33398L9.61914 13.2324L10.166 13.2324C10.6055 13.2324 10.8203 13.5156 10.8203 13.8867C10.8203 14.2773 10.5957 14.5605 10.166 14.5605L9.61914 14.5605L9.61914 16.0449C9.61914 16.582 9.26758 16.8652 8.83789 16.8652ZM8.08594 13.2617L8.08594 7.58789L8.03711 7.58789L5.50781 13.1934L5.50781 13.2617ZM12.9004 16.709C12.3828 16.709 12.1289 16.4258 12.1289 16.0449C12.1289 15.6934 12.3242 15.4102 12.5391 15.1367L14.9121 12.0312C15.625 11.0938 16.2598 10.0879 16.2598 9.0625C16.2598 8.13477 15.8105 7.34375 14.9512 7.34375C14.1309 7.34375 13.7793 7.95898 13.5449 8.90625C13.4375 9.27734 13.2031 9.45312 12.832 9.45312C12.3828 9.45312 12.1484 9.14062 12.1484 8.73047C12.1484 7.38281 13.3398 6.01562 14.9512 6.01562C16.6992 6.01562 17.8027 7.28516 17.8027 8.99414C17.8027 10.1172 17.4023 11.0645 16.1719 12.627L14.1602 15.2637L14.1602 15.3613L17.3633 15.3613C17.7539 15.3613 18.0176 15.6055 18.0176 16.0352C18.0176 16.4355 17.7637 16.709 17.3633 16.709Z" fill="var(--color-primary)"/>
 </g>
</svg>
