<svg version="1.1" xmlns="http://www.w3.org/2000/svg" xmlns:xlink="http://www.w3.org/1999/xlink" width="23.3203" height="22.9785" viewBox="0 0 23.3203 22.9785">
 <g>
  <rect height="22.9785" opacity="0" width="23.3203" x="0" y="0"/>
  <path d="M3.79883 22.9785L19.1504 22.9785C21.6797 22.9785 22.959 21.709 22.959 19.2188L22.959 3.78906C22.959 1.29883 21.6797 0.0292969 19.1504 0.0292969L3.79883 0.0292969C1.2793 0.0292969 0 1.28906 0 3.78906L0 19.2188C0 21.7188 1.2793 22.9785 3.79883 22.9785Z" fill="var(--color-tertiary)"/>
  <path d="M9.21875 16.8652C8.84766 16.8652 8.42773 16.6309 8.42773 16.0352L8.42773 14.5605L5.42969 14.5605C4.85352 14.5605 4.47266 14.1797 4.47266 13.623C4.47266 13.2617 4.54102 12.9688 4.73633 12.5293L7.22656 7.22656C7.55859 6.51367 7.93945 6.10352 8.74023 6.10352C9.46289 6.10352 9.99023 6.51367 9.99023 7.33398L9.99023 13.2324L10.5371 13.2324C10.9863 13.2324 11.1914 13.5156 11.1914 13.8867C11.1914 14.2773 10.9863 14.5605 10.5371 14.5605L9.99023 14.5605L9.99023 16.0352C9.99023 16.582 9.63867 16.8652 9.21875 16.8652ZM8.45703 13.2617L8.45703 7.58789L8.4082 7.58789L5.88867 13.1934L5.88867 13.2617ZM13.9746 16.8652C13.457 16.8652 13.2324 16.5039 13.2324 16.1523C13.2324 15.8887 13.2715 15.7422 13.3691 15.4785L16.3477 7.72461L16.3477 7.61719L12.8809 7.61719C12.4902 7.61719 12.2168 7.33398 12.2168 6.93359C12.2168 6.54297 12.4902 6.25977 12.8809 6.25977L17.0703 6.25977C17.6074 6.25977 18.0078 6.61133 18.0078 7.14844C18.0078 7.49023 17.9199 7.77344 17.8027 8.11523L14.7461 16.2793C14.5898 16.6992 14.4043 16.8652 13.9746 16.8652Z" fill="var(--color-primary)"/>
 </g>
</svg>
