<svg version="1.1" xmlns="http://www.w3.org/2000/svg" xmlns:xlink="http://www.w3.org/1999/xlink" width="24.5996" height="30.1755" viewBox="0 0 24.5996 30.1755">
 <g>
  <rect height="30.1755" opacity="0" width="24.5996" x="0" y="0"/>
  <path d="M12.1094 27.2509C15.5664 27.2509 20.0977 27.0751 22.0117 26.8505C23.4082 26.6942 24.2383 25.9227 24.2383 24.5653L24.2383 22.7001C24.2383 20.9325 23.8477 19.9364 22.9297 18.7645L22.0898 17.6805C21.709 15.8544 21.0352 13.9598 20.6836 13.2177C20.127 12.0165 19.0137 11.3427 17.6855 11.1766C16.9922 11.079 14.7363 11.0204 12.1094 11.0204C9.49219 11.0204 7.23633 11.0888 6.54297 11.1766C5.21484 11.3329 4.10156 12.0165 3.54492 13.2177C3.18359 13.9598 2.51953 15.8544 2.13867 17.6805L1.29883 18.7645C0.380859 19.9364 0 20.9325 0 22.7001L0 24.5653C0 25.9227 0.820312 26.6942 2.2168 26.8505C4.13086 27.0751 8.66211 27.2509 12.1094 27.2509ZM12.1094 25.7665C8.64258 25.7665 4.20898 25.62 2.53906 25.4052C1.73828 25.3075 1.48438 24.9852 1.48438 24.2528L1.48438 22.7001C1.48438 21.3231 1.66992 20.6884 2.46094 19.6727L3.51562 18.3055C3.79883 16.7723 4.47266 14.7509 4.87305 13.872C5.20508 13.1786 5.79102 12.7587 6.70898 12.661C7.35352 12.5829 9.42383 12.4852 12.1094 12.4852C14.8047 12.4852 16.9141 12.5829 17.4902 12.661C18.4375 12.7684 19.0234 13.1884 19.3555 13.872C19.7656 14.7509 20.4297 16.7723 20.7129 18.3055L21.7676 19.6727C22.5586 20.6884 22.7539 21.3231 22.7539 22.7001L22.7539 24.2528C22.7539 24.9852 22.4902 25.3173 21.6895 25.4052C20.0195 25.6102 15.5859 25.7665 12.1094 25.7665ZM4.66797 17.3973C4.58984 17.7196 4.7168 17.8954 5.09766 17.8563C6.76758 17.7391 8.69141 17.661 12.1094 17.661C15.5371 17.661 17.4609 17.7391 19.1309 17.8563C19.5117 17.8954 19.6387 17.7196 19.5605 17.3973C19.2969 16.2157 18.8379 14.8973 18.5156 14.3212C18.2422 13.8427 17.9102 13.5985 17.3145 13.5302C16.5527 13.4227 14.8535 13.3641 12.1094 13.3641C9.375 13.3641 7.67578 13.4227 6.91406 13.5302C6.31836 13.5985 5.98633 13.8427 5.71289 14.3212C5.39062 14.8973 4.93164 16.2157 4.66797 17.3973ZM4.7168 24.2528C5.60547 24.2528 6.25977 23.5888 6.25977 22.7001C6.25977 21.8114 5.60547 21.1571 4.7168 21.1571C3.82812 21.1571 3.16406 21.8114 3.16406 22.7001C3.16406 23.5888 3.82812 24.2528 4.7168 24.2528ZM9.39453 23.911L14.834 23.911C15.4883 23.911 15.9473 23.4618 15.9473 22.7977C15.9473 22.1434 15.4883 21.704 14.834 21.704L9.39453 21.704C8.74023 21.704 8.28125 22.1434 8.28125 22.7977C8.28125 23.4618 8.74023 23.911 9.39453 23.911ZM19.5117 24.2528C20.4004 24.2528 21.0645 23.5888 21.0645 22.7001C21.0645 21.8114 20.4004 21.1571 19.5117 21.1571C18.623 21.1571 17.9688 21.8114 17.9688 22.7001C17.9688 23.5888 18.623 24.2528 19.5117 24.2528ZM1.99219 29.9462L3.21289 29.9462C3.96484 29.9462 4.55078 29.37 4.55078 28.6376L4.55078 26.3036L0.693359 25.7567L0.693359 28.6376C0.693359 29.37 1.25977 29.9462 1.99219 29.9462ZM20.9961 29.9462L22.2168 29.9462C22.959 29.9462 23.5254 29.37 23.5254 28.6376L23.5254 25.7567L19.668 26.3036L19.668 28.6376C19.668 29.37 20.2539 29.9462 20.9961 29.9462Z" fill="var(--color-primary)"/>
  <path d="M12.0312 6.56727C9.26758 6.56727 6.77734 5.58094 4.89258 3.83289C4.45312 3.45203 3.94531 3.34461 3.56445 3.67664C3.16406 4.0282 3.16406 4.62391 3.61328 5.04383C5.83008 7.12391 8.79883 8.31531 12.0312 8.31531C15.2539 8.31531 18.2227 7.12391 20.4492 5.04383C20.8984 4.62391 20.8984 4.0282 20.498 3.67664C20.1074 3.34461 19.5996 3.45203 19.1699 3.83289C17.2754 5.58094 14.7852 6.56727 12.0312 6.56727Z" fill="var(--color-secondary)"/>
  <path d="M12.0703 1.56727C10.6934 1.56727 9.47266 1.11805 8.47656 0.336798C8.01758 0.00476688 7.53906-0.141717 7.14844 0.190314C6.74805 0.551642 6.73828 1.18641 7.22656 1.56727C8.53516 2.68055 10.2441 3.31531 12.0703 3.31531C13.8867 3.31531 15.5957 2.68055 16.9043 1.56727C17.3926 1.18641 17.3828 0.551642 16.9824 0.190314C16.5918-0.141717 16.1035-0.00499874 15.6543 0.336798C14.707 1.16688 13.4375 1.56727 12.0703 1.56727Z" fill="var(--color-secondary)"/>
 </g>
</svg>
