<?xml version="1.0" encoding="UTF-8"?>
<!--Generator: Apple Native CoreSVG 326-->
<!DOCTYPE svg
PUBLIC "-//W3C//DTD SVG 1.1//EN"
       "http://www.w3.org/Graphics/SVG/1.1/DTD/svg11.dtd">
<svg version="1.1" xmlns="http://www.w3.org/2000/svg" xmlns:xlink="http://www.w3.org/1999/xlink" viewBox="0 0 28.3496 25.4395">
 <g>
  <rect height="25.4395" opacity="0" width="28.3496" x="0" y="0"/>
  <path d="M14.3945 20.8887L27.1582 20.8887C27.6172 20.8887 27.9883 20.5371 27.9883 20.0781C27.9883 19.6191 27.6172 19.2578 27.1582 19.2578L14.3945 19.2578C13.9355 19.2578 13.5742 19.6191 13.5742 20.0781C13.5742 20.5371 13.9355 20.8887 14.3945 20.8887Z" fill="white" fill-opacity="0.85"/>
  <path d="M5.36133 25.4395C8.28125 25.4395 10.7129 23.0078 10.7129 20.0781C10.7129 17.1387 8.28125 14.7168 5.36133 14.7168C2.41211 14.7168 0 17.1484 0 20.0781C0 23.0078 2.42188 25.4395 5.36133 25.4395ZM5.36133 23.8574C3.30078 23.8574 1.58203 22.1289 1.58203 20.0781C1.58203 18.0273 3.31055 16.2891 5.36133 16.2891C7.40234 16.2891 9.13086 18.0273 9.13086 20.0781C9.13086 22.1289 7.40234 23.8574 5.36133 23.8574Z" fill="white" fill-opacity="0.85"/>
  <path d="M14.3945 6.23047L27.1582 6.23047C27.6172 6.23047 27.9883 5.86914 27.9883 5.41016C27.9883 4.95117 27.6172 4.59961 27.1582 4.59961L14.3945 4.59961C13.9355 4.59961 13.5742 4.95117 13.5742 5.41016C13.5742 5.86914 13.9355 6.23047 14.3945 6.23047Z" fill="white" fill-opacity="0.85"/>
  <path d="M5.36133 10.7617C8.28125 10.7617 10.7129 8.33008 10.7129 5.39062C10.7129 2.46094 8.28125 0.0390625 5.36133 0.0390625C2.41211 0.0390625 0 2.46094 0 5.39062C0 8.32031 2.42188 10.7617 5.36133 10.7617ZM4.7168 8.32031C4.48242 8.32031 4.32617 8.19336 4.16016 8.00781L2.65625 6.23047C2.54883 6.11328 2.50977 5.97656 2.50977 5.78125C2.50977 5.44922 2.77344 5.18555 3.0957 5.18555C3.31055 5.18555 3.4668 5.27344 3.61328 5.45898L4.69727 6.79688L7.04102 3.06641C7.17773 2.85156 7.36328 2.73438 7.56836 2.73438C7.90039 2.73438 8.17383 2.98828 8.17383 3.29102C8.17383 3.44727 8.125 3.58398 8.00781 3.75977L5.30273 7.99805C5.16602 8.20312 4.9707 8.32031 4.7168 8.32031Z" fill="white" fill-opacity="0.85"/>
 </g>
</svg>
