<svg version="1.1" xmlns="http://www.w3.org/2000/svg" xmlns:xlink="http://www.w3.org/1999/xlink" width="25.8008" height="25.459" viewBox="0 0 25.8008 25.459">
 <g>
  <rect height="25.459" opacity="0" width="25.8008" x="0" y="0"/>
  <path d="M12.7148 25.4395C19.6777 25.4395 25.4395 19.6777 25.4395 12.7246C25.4395 5.76172 19.668 0 12.7051 0C5.75195 0 0 5.76172 0 12.7246C0 19.6777 5.76172 25.4395 12.7148 25.4395ZM12.7148 23.623C6.67969 23.623 1.82617 18.7598 1.82617 12.7246C1.82617 6.67969 6.66992 1.82617 12.7051 1.82617C18.75 1.82617 23.6133 6.67969 23.6133 12.7246C23.6133 18.7598 18.7598 23.623 12.7148 23.623Z" fill="var(--color-secondary)"/>
  <path d="M10.4785 19.7168L15.625 19.7168C16.0742 19.7168 16.4258 19.3848 16.4258 18.9453C16.4258 18.5156 16.0742 18.1738 15.625 18.1738L13.9062 18.1738L13.9062 11.3477C13.9062 10.7812 13.6133 10.3906 13.0664 10.3906L10.6641 10.3906C10.2148 10.3906 9.86328 10.7227 9.86328 11.1523C9.86328 11.5918 10.2148 11.9238 10.6641 11.9238L12.1973 11.9238L12.1973 18.1738L10.4785 18.1738C10.0293 18.1738 9.6875 18.5156 9.6875 18.9453C9.6875 19.3848 10.0293 19.7168 10.4785 19.7168ZM12.627 8.16406C13.457 8.16406 14.1016 7.5 14.1016 6.68945C14.1016 5.85938 13.457 5.19531 12.627 5.19531C11.8066 5.19531 11.1523 5.85938 11.1523 6.68945C11.1523 7.5 11.8066 8.16406 12.627 8.16406Z" fill="var(--color-primary)"/>
 </g>
</svg>
