<svg version="1.1" xmlns="http://www.w3.org/2000/svg" xmlns:xlink="http://www.w3.org/1999/xlink" width="36.0449" height="20.1074" viewBox="0 0 36.0449 20.1074">
 <g>
  <rect height="20.1074" opacity="0" width="36.0449" x="0" y="0"/>
  <path d="M0 18.8086C0 19.5312 0.566406 20.1074 1.2793 20.1074L34.4043 20.1074C35.1172 20.1074 35.6836 19.5312 35.6836 18.8086C35.6836 18.0859 35.1172 17.5098 34.4043 17.5098L31.6406 17.5098L31.6406 2.62695C31.6406 0.908203 30.7324 0.0195312 29.0137 0.0195312L6.66992 0.0195312C5.0293 0.0195312 4.04297 0.908203 4.04297 2.62695L4.04297 17.5098L1.2793 17.5098C0.566406 17.5098 0 18.0859 0 18.8086ZM5.77148 17.5098L5.77148 3.08594C5.77148 2.1875 6.2207 1.74805 7.10938 1.74805L28.5742 1.74805C29.4629 1.74805 29.9121 2.1875 29.9121 3.08594L29.9121 17.5098Z" fill="var(--color-secondary)"/>
  <path d="M15.7227 13.9746L19.9902 13.9746C20.6641 13.9746 20.9961 13.623 20.9961 12.9102L20.9961 9.62891C20.9961 9.0625 20.7812 8.73047 20.3418 8.60352L20.3418 7.70508C20.3418 6.04492 19.3359 4.91211 17.8516 4.91211C16.3672 4.91211 15.3613 6.04492 15.3613 7.70508L15.3613 8.61328C14.9316 8.73047 14.707 9.0625 14.707 9.62891L14.707 12.9102C14.707 13.623 15.0391 13.9746 15.7227 13.9746ZM16.4941 8.56445L16.4941 7.61719C16.4941 6.64062 17.0215 6.01562 17.8516 6.01562C18.6719 6.01562 19.2188 6.64062 19.2188 7.61719L19.2188 8.56445Z" fill="var(--color-primary)"/>
 </g>
</svg>
