<svg version="1.1" xmlns="http://www.w3.org/2000/svg" xmlns:xlink="http://www.w3.org/1999/xlink" width="25.4395" height="25.2637" viewBox="0 0 25.4395 25.2637">
 <g>
  <rect height="25.2637" opacity="0" width="25.4395" x="0" y="0"/>
  <path d="M19.6875 17.0996C12.6367 17.0996 8.26172 12.8613 8.26172 6.03516C8.26172 4.13086 8.57422 2.4707 9.0625 1.48438C9.21875 1.15234 9.25781 0.986328 9.25781 0.771484C9.25781 0.410156 8.92578 0 8.4668 0C8.36914 0 8.14453 0.0292969 7.83203 0.146484C3.23242 1.99219 0 6.86523 0 12.1094C0 19.6875 5.50781 25.2148 13.0859 25.2148C18.4473 25.2148 22.9199 22.334 24.9316 17.7246C25.0586 17.4316 25.0781 17.1973 25.0781 17.0801C25.0781 16.6113 24.707 16.3086 24.3555 16.3086C24.1699 16.3086 24.0332 16.3281 23.7793 16.4258C22.8125 16.8262 21.2012 17.0996 19.6875 17.0996ZM1.68945 12.041C1.68945 7.96875 3.87695 4.10156 7.31445 2.08984C6.88477 3.30078 6.65039 4.70703 6.65039 6.17188C6.65039 13.9941 11.4648 18.6816 19.4629 18.6816C20.791 18.6816 21.9727 18.5156 23.0176 18.1543C21.0645 21.4844 17.2949 23.5254 13.1543 23.5254C6.52344 23.5254 1.68945 18.6914 1.68945 12.041Z" fill="var(--color-primary)"/>
 </g>
</svg>
