<svg version="1.1" xmlns="http://www.w3.org/2000/svg" xmlns:xlink="http://www.w3.org/1999/xlink" width="23.3203" height="22.9785" viewBox="0 0 23.3203 22.9785">
 <g>
  <rect height="22.9785" opacity="0" width="23.3203" x="0" y="0"/>
  <path d="M3.79883 22.9785L19.1504 22.9785C21.6797 22.9785 22.959 21.709 22.959 19.2188L22.959 3.78906C22.959 1.29883 21.6797 0.0292969 19.1504 0.0292969L3.79883 0.0292969C1.2793 0.0292969 0 1.28906 0 3.78906L0 19.2188C0 21.7188 1.2793 22.9785 3.79883 22.9785Z" fill="var(--color-tertiary)"/>
  <path d="M6.43555 17.4902C5.76172 17.4902 5.2832 17.002 5.2832 16.3379L5.2832 6.62109C5.2832 5.95703 5.76172 5.47852 6.43555 5.47852L16.5234 5.47852C17.1875 5.47852 17.6758 5.95703 17.6758 6.62109L17.6758 16.3379C17.6758 17.002 17.1875 17.4902 16.5234 17.4902ZM11.4844 10.166C12.1973 10.166 12.7637 9.59961 12.7637 8.88672C12.7637 8.18359 12.1973 7.61719 11.4844 7.61719C10.7812 7.61719 10.2148 8.18359 10.2148 8.88672C10.2148 9.59961 10.7812 10.166 11.4844 10.166ZM8.71094 15.3418C9.41406 15.3418 9.98047 14.7754 9.98047 14.0723C9.98047 13.3691 9.41406 12.793 8.71094 12.793C7.99805 12.793 7.43164 13.3691 7.43164 14.0723C7.43164 14.7754 7.99805 15.3418 8.71094 15.3418ZM14.2676 15.3418C14.9707 15.3418 15.5469 14.7754 15.5469 14.0723C15.5469 13.3691 14.9707 12.793 14.2676 12.793C13.5645 12.793 12.998 13.3691 12.998 14.0723C12.998 14.7754 13.5645 15.3418 14.2676 15.3418Z" fill="var(--color-primary)"/>
 </g>
</svg>
