<?xml version="1.0" encoding="UTF-8"?>
<!--Generator: Apple Native CoreSVG 326-->
<!DOCTYPE svg
PUBLIC "-//W3C//DTD SVG 1.1//EN"
       "http://www.w3.org/Graphics/SVG/1.1/DTD/svg11.dtd">
<svg version="1.1" xmlns="http://www.w3.org/2000/svg" xmlns:xlink="http://www.w3.org/1999/xlink" viewBox="0 0 31.0708 30.8677">
 <g>
  <rect height="30.8677" opacity="0" width="31.0708" x="0" y="0"/>
  <path d="M11.136 12.6653C10.511 13.2903 10.5207 14.1106 11.1457 14.7454L16.1555 19.7747C16.7805 20.3997 17.6106 20.3704 18.2356 19.7454L19.6125 18.3587C19.1633 17.6458 19.2317 16.7962 19.8567 16.1712C20.4719 15.5559 21.3215 15.4876 22.0344 15.9563L29.4172 8.55397C31.136 6.83522 31.1164 4.96022 29.427 3.261L27.6301 1.47389C25.9309-0.215561 24.0461-0.225326 22.3274 1.47389L14.9348 8.85671C15.4035 9.55983 15.3449 10.4387 14.7199 11.054C14.0949 11.6594 13.2453 11.718 12.5227 11.2786ZM18.177 9.99928L24.134 4.03249C24.3098 3.83717 24.6321 3.86647 24.8176 4.03249C25.0227 4.1985 24.9934 4.511 24.8078 4.69655L18.8313 10.6633C18.6457 10.8391 18.3625 10.8391 18.1965 10.6731C18.0012 10.468 17.9914 10.1848 18.177 9.99928ZM20.2571 12.0403L26.2043 6.1028C26.3996 5.91725 26.6926 5.90749 26.8684 6.1028C27.0344 6.29811 27.0344 6.59108 26.8684 6.7571L20.9114 12.7337C20.7258 12.929 20.4328 12.8997 20.2571 12.7337C20.0324 12.5188 20.0324 12.2649 20.2571 12.0403ZM2.61057 24.0715L0.169168 28.2708C-0.026145 28.6223-0.0847387 28.9153 0.169168 29.1692L1.70237 30.6926C1.95628 30.9563 2.25901 30.888 2.58128 30.7122L6.80979 28.2512C7.21018 28.0266 7.45432 27.6262 7.47386 27.2747L7.57151 25.888L13.8313 19.6282L11.2532 17.0501L4.98362 23.3098L3.60667 23.4075C3.23557 23.427 2.84495 23.6712 2.61057 24.0715Z" fill="white" fill-opacity="0.85"/>
 </g>
</svg>
