<svg version="1.1" xmlns="http://www.w3.org/2000/svg" xmlns:xlink="http://www.w3.org/1999/xlink" width="28.2935" height="29.3042" viewBox="0 0 28.2935 29.3042">
 <g>
  <rect height="29.3042" opacity="0" width="28.2935" x="0" y="0"/>
  <path d="M14.6399 27.9871L26.9739 15.6238C27.8626 14.7351 27.9309 14.2566 27.9309 12.9285L27.9309 8.13355C27.9309 6.86402 27.6672 6.48316 26.7102 5.53589L23.7805 2.6062C22.8333 1.64917 22.4524 1.3855 21.1829 1.3855L16.3879 1.3855C15.0598 1.3855 14.5813 1.45386 13.6926 2.34253L1.30982 14.6765C-0.428464 16.4148-0.447995 18.2312 1.31958 19.989L9.3274 27.9773C11.1047 29.7546 12.9016 29.7351 14.6399 27.9871ZM13.468 26.698C12.5012 27.6746 11.4758 27.6843 10.4797 26.6882L2.61841 18.8269C1.62232 17.8308 1.64185 16.7957 2.60865 15.8386L14.9133 3.56323C15.1965 3.28003 15.4993 3.11402 15.9583 3.11402L21.261 3.11402C21.6907 3.11402 21.9934 3.27027 22.2961 3.56323L25.7532 7.02027C26.0461 7.323 26.2024 7.62573 26.2024 8.05542L26.2024 13.3582C26.2024 13.8171 26.0364 14.1199 25.7532 14.4031ZM19.7376 11.1804C20.6555 11.1804 21.3391 10.4773 21.3391 9.57886C21.3391 8.68042 20.6555 7.9773 19.7376 7.9773C18.8196 7.9773 18.136 8.68042 18.136 9.57886C18.136 10.4773 18.8196 11.1804 19.7376 11.1804Z" fill="var(--color-primary)"/>
 </g>
</svg>
