<svg version="1.1" xmlns="http://www.w3.org/2000/svg" xmlns:xlink="http://www.w3.org/1999/xlink" width="18.3105" height="29.7168" viewBox="0 0 18.3105 29.7168">
 <g>
  <rect height="29.7168" opacity="0" width="18.3105" x="0" y="0"/>
  <path d="M0.869141 1.75781L17.0801 1.75781C17.5586 1.75781 17.9492 1.36719 17.9492 0.888672C17.9492 0.419922 17.5586 0.0292969 17.0801 0.0292969L0.869141 0.0292969C0.390625 0.0292969 0 0.419922 0 0.888672C0 1.36719 0.390625 1.75781 0.869141 1.75781ZM8.98438 16.582C14.0039 16.582 17.5586 15.293 17.5586 13.457C17.5586 11.6309 13.9453 10.3516 8.98438 10.3516C4.01367 10.3516 0.390625 11.6309 0.390625 13.457C0.390625 15.293 4.01367 16.582 8.98438 16.582ZM8.60352 22.2461L9.3457 22.2461C13.5156 22.2461 16.6992 19.8438 17.4121 15.8203C15.8008 17.0605 12.7734 17.7539 8.98438 17.7539C5.21484 17.7539 2.1582 17.0605 0.527344 15.8105C1.24023 19.8438 4.42383 22.2461 8.60352 22.2461ZM8.97461 29.7168C11.0547 29.7168 13.6328 29.1602 14.7363 28.0762C15.0684 27.7539 15.0781 27.3535 14.9414 26.8848L13.6816 22.6172C12.3633 23.1836 10.8594 23.4863 9.3457 23.4863L8.55469 23.4863C7.07031 23.4863 5.58594 23.1934 4.26758 22.6367L3.00781 26.8848C2.87109 27.3535 2.88086 27.7539 3.20312 28.0762C4.32617 29.1602 6.89453 29.7168 8.97461 29.7168ZM16.0059 10.2246L16.5332 2.98828L1.41602 2.98828L1.94336 10.2344C3.69141 9.50195 6.15234 9.11133 8.98438 9.11133C11.8066 9.11133 14.2578 9.50195 16.0059 10.2246Z" fill="var(--color-primary)"/>
 </g>
</svg>
