<svg version="1.1" xmlns="http://www.w3.org/2000/svg" xmlns:xlink="http://www.w3.org/1999/xlink" width="25.8008" height="25.459" viewBox="0 0 25.8008 25.459">
 <g>
  <rect height="25.459" opacity="0" width="25.8008" x="0" y="0"/>
  <path d="M12.7148 25.4395C19.6777 25.4395 25.4395 19.6777 25.4395 12.7246C25.4395 5.76172 19.668 0 12.7051 0C5.75195 0 0 5.76172 0 12.7246C0 19.6777 5.76172 25.4395 12.7148 25.4395ZM12.7148 23.623C6.67969 23.623 1.82617 18.7598 1.82617 12.7246C1.82617 6.67969 6.66992 1.82617 12.7051 1.82617C18.75 1.82617 23.6133 6.67969 23.6133 12.7246C23.6133 18.7598 18.7598 23.623 12.7148 23.623Z" fill="var(--color-secondary)"/>
  <path d="M6.96289 17.0801L18.4277 17.0801C19.4141 17.0801 20.1172 16.3867 20.1172 15.4102L20.1172 8.79883C20.1172 7.82227 19.4141 7.11914 18.4277 7.11914L6.96289 7.11914C5.97656 7.11914 5.29297 7.82227 5.29297 8.79883L5.29297 15.4102C5.29297 16.3867 5.97656 17.0801 6.96289 17.0801ZM7.08984 15.9375C6.72852 15.9375 6.47461 15.6836 6.47461 15.3223L6.47461 8.88672C6.47461 8.51562 6.72852 8.26172 7.08984 8.26172L18.3203 8.26172C18.6816 8.26172 18.9258 8.51562 18.9258 8.88672L18.9258 15.3223C18.9258 15.6836 18.6816 15.9375 18.3203 15.9375ZM9.3457 19.5898L16.084 19.5898C16.3965 19.5898 16.6504 19.3359 16.6504 19.0234C16.6504 18.7109 16.3965 18.457 16.084 18.457L9.3457 18.457C9.0332 18.457 8.7793 18.7109 8.7793 19.0234C8.7793 19.3359 9.0332 19.5898 9.3457 19.5898Z" fill="var(--color-primary)"/>
 </g>
</svg>
