<svg version="1.1" xmlns="http://www.w3.org/2000/svg" xmlns:xlink="http://www.w3.org/1999/xlink" width="25.8008" height="25.459" viewBox="0 0 25.8008 25.459">
 <g>
  <rect height="25.459" opacity="0" width="25.8008" x="0" y="0"/>
  <path d="M12.7148 25.4395C19.6777 25.4395 25.4395 19.6777 25.4395 12.7246C25.4395 5.76172 19.668 0 12.7051 0C5.75195 0 0 5.76172 0 12.7246C0 19.6777 5.76172 25.4395 12.7148 25.4395Z" fill="var(--color-tertiary)"/>
  <path d="M6.72852 5.95703L19.4824 18.7207C19.6973 18.9355 19.6973 19.2578 19.4824 19.4824C19.2773 19.6777 18.9258 19.6777 18.7305 19.4824L5.9668 6.70898C5.76172 6.51367 5.76172 6.17188 5.9668 5.95703C6.18164 5.75195 6.51367 5.75195 6.72852 5.95703ZM7.44004 9.4111C5.96945 9.8991 5.15625 10.854 5.15625 12.6855C5.15625 14.9805 6.25977 16.3281 8.01758 16.3281C9.86987 16.3281 10.7395 14.5715 12.4082 14.3754L14.7298 16.6953C13.9148 16.1693 13.2982 15.6055 12.7148 15.6055C11.6211 15.6055 10.4102 17.5879 8.01758 17.5879C5.6543 17.5879 3.91602 15.4492 3.91602 12.6855C3.91602 10.4204 4.90559 9.15932 6.49315 8.46493ZM21.5234 12.6855C21.5234 14.7164 20.5795 16.4098 19.143 17.1613L18.2044 16.2234C19.4935 15.8747 20.2734 14.6148 20.2734 12.6855C20.2734 9.23828 17.3926 8.89648 12.7148 8.89648C12.0739 8.89648 11.4667 8.9029 10.8996 8.92422L9.723 7.74852C10.6567 7.66043 11.6665 7.63672 12.7148 7.63672C17.5195 7.63672 21.5234 8.13477 21.5234 12.6855Z" fill="var(--color-primary)"/>
 </g>
</svg>
