<svg version="1.1" xmlns="http://www.w3.org/2000/svg" xmlns:xlink="http://www.w3.org/1999/xlink" width="25.8008" height="25.459" viewBox="0 0 25.8008 25.459">
 <g>
  <rect height="25.459" opacity="0" width="25.8008" x="0" y="0"/>
  <path d="M12.7148 25.4395C19.6777 25.4395 25.4395 19.6777 25.4395 12.7246C25.4395 5.76172 19.668 0 12.7051 0C5.75195 0 0 5.76172 0 12.7246C0 19.6777 5.76172 25.4395 12.7148 25.4395ZM12.7148 23.623C6.67969 23.623 1.82617 18.7598 1.82617 12.7246C1.82617 6.67969 6.66992 1.82617 12.7051 1.82617C18.75 1.82617 23.6133 6.67969 23.6133 12.7246C23.6133 18.7598 18.7598 23.623 12.7148 23.623Z" fill="var(--color-secondary)"/>
  <path d="M12.7051 15.5371C13.7793 15.5371 14.9609 17.4707 17.3047 17.4707C19.5996 17.4707 21.2988 15.3809 21.2988 12.6855C21.2988 8.24219 17.4023 7.75391 12.7051 7.75391C8.00781 7.75391 4.11133 8.24219 4.11133 12.6855C4.11133 15.3809 5.82031 17.4707 8.11523 17.4707C10.4492 17.4707 11.6309 15.5371 12.7051 15.5371ZM12.7051 14.3262C10.8789 14.3262 10.0293 16.25 8.11523 16.25C6.39648 16.25 5.32227 14.9316 5.32227 12.6855C5.32227 9.31641 8.14453 8.97461 12.7051 8.97461C17.2754 8.97461 20.0977 9.31641 20.0977 12.6855C20.0977 14.9316 19.0137 16.25 17.3047 16.25C15.3906 16.25 14.5312 14.3262 12.7051 14.3262Z" fill="var(--color-primary)"/>
 </g>
</svg>
