<?xml version="1.0" encoding="UTF-8"?>
<!--Generator: Apple Native CoreSVG 341-->
<!DOCTYPE svg
PUBLIC "-//W3C//DTD SVG 1.1//EN"
       "http://www.w3.org/Graphics/SVG/1.1/DTD/svg11.dtd">
<svg version="1.1" xmlns="http://www.w3.org/2000/svg" xmlns:xlink="http://www.w3.org/1999/xlink" viewBox="0 0 14.5898 14.248">
 <g>
  <rect height="14.248" opacity="0" width="14.5898" x="0" y="0"/>
  <path d="M2.49023 14.248L11.7383 14.248C13.4082 14.248 14.2285 13.4277 14.2285 11.7871L14.2285 2.4707C14.2285 0.830078 13.4082 0.00976562 11.7383 0.00976562L2.49023 0.00976562C0.830078 0.00976562 0 0.830078 0 2.4707L0 11.7871C0 13.4277 0.830078 14.248 2.49023 14.248Z" fill="white" fill-opacity="0.2125"/>
  <path d="M5.10742 10.498C3.49609 10.498 2.98828 8.76953 2.98828 7.11914C2.98828 5.46875 3.49609 3.74023 5.10742 3.74023C6.72852 3.74023 7.23633 5.46875 7.23633 7.11914C7.23633 8.76953 6.72852 10.498 5.10742 10.498ZM5.10742 9.45312C5.66406 9.45312 5.91797 8.55469 5.91797 7.11914C5.91797 5.68359 5.66406 4.78516 5.10742 4.78516C4.55078 4.78516 4.29688 5.68359 4.29688 7.11914C4.29688 8.55469 4.55078 9.45312 5.10742 9.45312ZM10 10.4199C9.63867 10.4199 9.3457 10.127 9.3457 9.76562L9.3457 5.13672L8.67188 5.66406C8.58398 5.74219 8.49609 5.78125 8.35938 5.78125C8.0957 5.78125 7.90039 5.58594 7.90039 5.3125C7.90039 5.07812 8.03711 4.90234 8.18359 4.78516L9.01367 4.16016C9.20898 4.00391 9.52148 3.79883 9.89258 3.79883C10.3613 3.79883 10.6445 4.0625 10.6445 4.53125L10.6445 9.76562C10.6445 10.127 10.3516 10.4199 10 10.4199Z" fill="white" fill-opacity="0.85"/>
 </g>
</svg>
