<?xml version="1.0" encoding="UTF-8"?>
<!--Generator: Apple Native CoreSVG 341-->
<!DOCTYPE svg
PUBLIC "-//W3C//DTD SVG 1.1//EN"
       "http://www.w3.org/Graphics/SVG/1.1/DTD/svg11.dtd">
<svg version="1.1" xmlns="http://www.w3.org/2000/svg" xmlns:xlink="http://www.w3.org/1999/xlink" viewBox="0 0 14.5898 14.248">
 <g>
  <rect height="14.248" opacity="0" width="14.5898" x="0" y="0"/>
  <path d="M2.49023 14.248L11.7383 14.248C13.4082 14.248 14.2285 13.4277 14.2285 11.7871L14.2285 2.4707C14.2285 0.830078 13.4082 0.00976562 11.7383 0.00976562L2.49023 0.00976562C0.830078 0.00976562 0 0.830078 0 2.4707L0 11.7871C0 13.4277 0.830078 14.248 2.49023 14.248ZM2.50977 12.832C1.80664 12.832 1.40625 12.4512 1.40625 11.7188L1.40625 2.53906C1.40625 1.79688 1.80664 1.42578 2.50977 1.42578L11.7188 1.42578C12.4219 1.42578 12.8223 1.79688 12.8223 2.53906L12.8223 11.7188C12.8223 12.4512 12.4219 12.832 11.7188 12.832Z" fill="white" fill-opacity="0.425"/>
  <path d="M4.54102 10.3809C6.09375 10.3809 6.58203 8.70117 6.58203 7.11914C6.58203 5.53711 6.09375 3.85742 4.54102 3.85742C2.98828 3.85742 2.5 5.53711 2.5 7.11914C2.5 8.70117 2.98828 10.3809 4.54102 10.3809ZM4.54102 9.36523C4.00391 9.36523 3.75977 8.49609 3.75977 7.11914C3.75977 5.74219 4.00391 4.87305 4.54102 4.87305C5.07812 4.87305 5.33203 5.74219 5.33203 7.11914C5.33203 8.49609 5.07812 9.36523 4.54102 9.36523ZM9.54102 10.3809C10.7324 10.3809 11.4258 9.4043 11.4258 8.18359C11.4258 7.1582 10.9277 6.18164 9.91211 6.18164C9.31641 6.18164 8.84766 6.5625 8.67188 7.19727L8.64258 7.19727C8.64258 7.17773 8.64258 7.14844 8.64258 7.12891C8.64258 6.32812 8.73047 4.87305 9.52148 4.87305C9.82422 4.87305 10.0391 5.08789 10.166 5.36133C10.293 5.625 10.459 5.73242 10.7227 5.73242C11.0742 5.73242 11.2207 5.49805 11.2207 5.21484C11.2207 5.12695 11.2012 5.03906 11.1816 4.94141C11.0254 4.27734 10.332 3.87695 9.55078 3.87695C7.94922 3.87695 7.4707 5.58594 7.4707 7.17773C7.4707 8.63281 7.93945 10.3809 9.54102 10.3809ZM9.52148 9.38477C8.98438 9.38477 8.78906 8.71094 8.78906 8.22266C8.78906 7.69531 9.01367 7.10938 9.52148 7.10938C10.0391 7.10938 10.2441 7.72461 10.2246 8.24219C10.2246 8.75 10.0098 9.38477 9.52148 9.38477Z" fill="white" fill-opacity="0.85"/>
 </g>
</svg>
