<svg version="1.1" xmlns="http://www.w3.org/2000/svg" xmlns:xlink="http://www.w3.org/1999/xlink" viewBox="0 0 14.5898 14.248">
 <g>
  <rect height="14.248" opacity="0" width="14.5898" x="0" y="0"/>
  <path d="M2.49023 14.248L11.7383 14.248C13.4082 14.248 14.2285 13.4277 14.2285 11.7871L14.2285 2.4707C14.2285 0.830078 13.4082 0.00976562 11.7383 0.00976562L2.49023 0.00976562C0.830078 0.00976562 0 0.830078 0 2.4707L0 11.7871C0 13.4277 0.830078 14.248 2.49023 14.248Z" fill="var(--color-tertiary)"/>
  <path d="M4.54102 10.498C2.91992 10.498 2.41211 8.76953 2.41211 7.11914C2.41211 5.46875 2.91992 3.74023 4.54102 3.74023C6.15234 3.74023 6.66016 5.46875 6.66016 7.11914C6.66016 8.76953 6.15234 10.498 4.54102 10.498ZM4.54102 9.45312C5.09766 9.45312 5.35156 8.55469 5.35156 7.11914C5.35156 5.68359 5.09766 4.78516 4.54102 4.78516C3.98438 4.78516 3.73047 5.68359 3.73047 7.11914C3.73047 8.55469 3.98438 9.45312 4.54102 9.45312ZM9.66797 10.4785C8.49609 10.4785 7.55859 9.80469 7.55859 8.60352C7.55859 7.71484 8.08594 7.11914 8.76953 6.96289L8.76953 6.93359C8.28125 6.79688 7.73438 6.33789 7.73438 5.49805C7.73438 4.3457 8.68164 3.76953 9.66797 3.76953C10.8203 3.76953 11.6211 4.45312 11.6211 5.50781C11.6211 6.2793 11.123 6.78711 10.6055 6.93359L10.6055 6.96289C11.2305 7.10938 11.8066 7.70508 11.8066 8.60352C11.8066 9.6875 10.9766 10.4785 9.66797 10.4785ZM9.66797 6.5332C10.1465 6.5332 10.3711 6.11328 10.3711 5.63477C10.3711 5.15625 10.1465 4.7168 9.66797 4.7168C9.20898 4.7168 8.98438 5.16602 8.98438 5.63477C8.98438 6.04492 9.17969 6.5332 9.66797 6.5332ZM9.66797 9.52148C10.2148 9.52148 10.459 9.04297 10.459 8.49609C10.459 7.94922 10.2051 7.49023 9.66797 7.49023C9.14062 7.49023 8.89648 7.96875 8.89648 8.49609C8.89648 9.04297 9.14062 9.52148 9.66797 9.52148Z" fill="var(--color-primary)"/>
 </g>
</svg>
