<svg version="1.1" xmlns="http://www.w3.org/2000/svg" xmlns:xlink="http://www.w3.org/1999/xlink" viewBox="0 0 15.6738 14.248">
 <g>
  <rect height="14.248" opacity="0" width="15.6738" x="0" y="0"/>
  <path d="M2.49023 14.248L12.8223 14.248C14.4922 14.248 15.3125 13.4277 15.3125 11.7871L15.3125 2.4707C15.3125 0.830078 14.4922 0.00976562 12.8223 0.00976562L2.49023 0.00976562C0.830078 0.00976562 0 0.830078 0 2.4707L0 11.7871C0 13.4277 0.830078 14.248 2.49023 14.248ZM2.35352 12.832C1.74805 12.832 1.40625 12.5098 1.40625 11.875L1.40625 4.53125C1.40625 3.89648 1.74805 3.57422 2.35352 3.57422L12.9492 3.57422C13.5547 3.57422 13.9062 3.89648 13.9062 4.53125L13.9062 11.875C13.9062 12.5098 13.5547 12.832 12.9492 12.832Z" fill="var(--color-secondary)"/>
  <path d="M5.35156 11.3867C5.69336 11.3867 5.97656 11.1035 5.97656 10.752L5.97656 5.71289C5.97656 5.25391 5.70312 5 5.25391 5C4.89258 5 4.59961 5.20508 4.4043 5.35156L3.61328 5.95703C3.45703 6.06445 3.33984 6.24023 3.33984 6.46484C3.33984 6.72852 3.51562 6.91406 3.76953 6.91406C3.90625 6.91406 3.99414 6.875 4.07227 6.80664L4.7168 6.28906L4.7168 10.752C4.7168 11.1035 5 11.3867 5.35156 11.3867ZM10.0586 11.4062C10.3809 11.4062 10.6445 11.2109 10.6445 10.791L10.6445 10.1465L10.8594 10.1465C11.1914 10.1465 11.3477 9.93164 11.3477 9.64844C11.3477 9.375 11.2109 9.15039 10.8594 9.15039L10.6445 9.15039L10.6445 5.9375C10.6445 5.35156 10.2637 5.01953 9.6875 5.01953C9.08203 5.01953 8.79883 5.32227 8.56445 5.84961L7.31445 8.64258C7.17773 8.97461 7.12891 9.18945 7.12891 9.45312C7.12891 9.86328 7.41211 10.1465 7.82227 10.1465L9.46289 10.1465L9.46289 10.791C9.46289 11.25 9.78516 11.4062 10.0586 11.4062ZM9.49219 9.17969L8.17383 9.17969L8.17383 9.12109L9.46289 6.06445L9.49219 6.06445Z" fill="var(--color-primary)"/>
 </g>
</svg>
