<?xml version="1.0" encoding="UTF-8"?>
<!--Generator: Apple Native CoreSVG 341-->
<!DOCTYPE svg
PUBLIC "-//W3C//DTD SVG 1.1//EN"
       "http://www.w3.org/Graphics/SVG/1.1/DTD/svg11.dtd">
<svg version="1.1" xmlns="http://www.w3.org/2000/svg" xmlns:xlink="http://www.w3.org/1999/xlink" viewBox="0 0 14.5898 14.248">
 <g>
  <rect height="14.248" opacity="0" width="14.5898" x="0" y="0"/>
  <path d="M2.49023 14.248L11.7383 14.248C13.4082 14.248 14.2285 13.4277 14.2285 11.7871L14.2285 2.4707C14.2285 0.830078 13.4082 0.00976562 11.7383 0.00976562L2.49023 0.00976562C0.830078 0.00976562 0 0.830078 0 2.4707L0 11.7871C0 13.4277 0.830078 14.248 2.49023 14.248ZM2.50977 12.832C1.80664 12.832 1.40625 12.4512 1.40625 11.7188L1.40625 2.53906C1.40625 1.79688 1.80664 1.42578 2.50977 1.42578L11.7188 1.42578C12.4219 1.42578 12.8223 1.79688 12.8223 2.53906L12.8223 11.7188C12.8223 12.4512 12.4219 12.832 11.7188 12.832Z" fill="white" fill-opacity="0.85"/>
  <path d="M4.98047 10.3027C5.32227 10.3027 5.60547 10.0195 5.60547 9.66797L5.60547 4.62891C5.60547 4.16992 5.33203 3.91602 4.88281 3.91602C4.52148 3.91602 4.22852 4.12109 4.0332 4.26758L3.24219 4.87305C3.0957 4.98047 2.96875 5.15625 2.96875 5.38086C2.96875 5.64453 3.14453 5.83008 3.4082 5.83008C3.53516 5.83008 3.62305 5.79102 3.71094 5.72266L4.35547 5.20508L4.35547 9.66797C4.35547 10.0195 4.63867 10.3027 4.98047 10.3027ZM8.75 10.3809C9.9707 10.3809 10.6445 9.38477 10.6445 8.14453C10.6445 7.08984 10.1367 6.12305 9.15039 6.12305C8.70117 6.12305 8.29102 6.33789 8.10547 6.76758L8.06641 6.76758L8.18359 5.03906L9.94141 5.03906C10.2344 5.03906 10.4102 4.82422 10.4102 4.53125C10.4102 4.24805 10.2246 4.0332 9.94141 4.0332L7.82227 4.0332C7.38281 4.0332 7.1875 4.31641 7.1582 4.75586L7.05078 6.75781C7.04102 6.875 7.04102 6.98242 7.04102 7.09961C7.04102 7.42188 7.19727 7.71484 7.59766 7.71484C7.8125 7.71484 7.94922 7.63672 8.125 7.40234C8.29102 7.17773 8.45703 7.02148 8.74023 7.02148C9.26758 7.02148 9.45312 7.65625 9.45312 8.17383C9.45312 8.7793 9.25781 9.38477 8.73047 9.38477C8.33984 9.38477 8.13477 9.12109 7.98828 8.73047C7.88086 8.47656 7.69531 8.33984 7.4707 8.33984C7.1582 8.33984 6.96289 8.54492 6.96289 8.85742C6.96289 9.05273 7.00195 9.23828 7.08008 9.4043C7.36328 10 8.07617 10.3809 8.75 10.3809Z" fill="white" fill-opacity="0.85"/>
 </g>
</svg>
