<?xml version="1.0" encoding="UTF-8"?>
<!--Generator: Apple Native CoreSVG 341-->
<!DOCTYPE svg
PUBLIC "-//W3C//DTD SVG 1.1//EN"
       "http://www.w3.org/Graphics/SVG/1.1/DTD/svg11.dtd">
<svg version="1.1" xmlns="http://www.w3.org/2000/svg" xmlns:xlink="http://www.w3.org/1999/xlink" viewBox="0 0 14.5898 14.248">
 <g>
  <rect height="14.248" opacity="0" width="14.5898" x="0" y="0"/>
  <path d="M2.49023 14.248L11.7383 14.248C13.4082 14.248 14.2285 13.4277 14.2285 11.7871L14.2285 2.4707C14.2285 0.830078 13.4082 0.00976562 11.7383 0.00976562L2.49023 0.00976562C0.830078 0.00976562 0 0.830078 0 2.4707L0 11.7871C0 13.4277 0.830078 14.248 2.49023 14.248ZM2.50977 12.832C1.80664 12.832 1.40625 12.4512 1.40625 11.7188L1.40625 2.53906C1.40625 1.79688 1.80664 1.42578 2.50977 1.42578L11.7188 1.42578C12.4219 1.42578 12.8223 1.79688 12.8223 2.53906L12.8223 11.7188C12.8223 12.4512 12.4219 12.832 11.7188 12.832Z" fill="white" fill-opacity="0.85"/>
  <path d="M5 10.3027C5.3418 10.3027 5.625 10.0195 5.625 9.66797L5.625 4.62891C5.625 4.16992 5.35156 3.91602 4.89258 3.91602C4.54102 3.91602 4.24805 4.12109 4.04297 4.26758L3.26172 4.87305C3.10547 4.98047 2.98828 5.15625 2.98828 5.38086C2.98828 5.64453 3.16406 5.83008 3.41797 5.83008C3.55469 5.83008 3.64258 5.79102 3.7207 5.72266L4.36523 5.20508L4.36523 9.66797C4.36523 10.0195 4.64844 10.3027 5 10.3027ZM8.85742 10.3613C10.1074 10.3613 10.9082 9.59961 10.9082 8.54492C10.9082 7.69531 10.3516 7.10938 9.74609 6.97266L9.74609 6.94336C10.2539 6.79688 10.7324 6.30859 10.7324 5.56641C10.7324 4.56055 9.96094 3.88672 8.85742 3.88672C7.90039 3.88672 6.99219 4.44336 6.99219 5.55664C6.99219 6.36719 7.51953 6.80664 7.97852 6.94336L7.97852 6.97266C7.32422 7.11914 6.81641 7.69531 6.81641 8.54492C6.81641 9.70703 7.71484 10.3613 8.85742 10.3613ZM8.85742 6.55273C8.37891 6.55273 8.19336 6.07422 8.19336 5.68359C8.19336 5.24414 8.41797 4.79492 8.85742 4.79492C9.30664 4.79492 9.52148 5.22461 9.52148 5.68359C9.52148 6.15234 9.31641 6.55273 8.85742 6.55273ZM8.85742 9.44336C8.33984 9.44336 8.10547 8.97461 8.10547 8.44727C8.10547 7.93945 8.34961 7.4707 8.85742 7.4707C9.375 7.4707 9.61914 7.92969 9.61914 8.44727C9.61914 8.97461 9.375 9.44336 8.85742 9.44336Z" fill="white" fill-opacity="0.85"/>
 </g>
</svg>
