<?xml version="1.0" encoding="UTF-8"?>
<!--Generator: Apple Native CoreSVG 341-->
<!DOCTYPE svg
PUBLIC "-//W3C//DTD SVG 1.1//EN"
       "http://www.w3.org/Graphics/SVG/1.1/DTD/svg11.dtd">
<svg version="1.1" xmlns="http://www.w3.org/2000/svg" xmlns:xlink="http://www.w3.org/1999/xlink" viewBox="0 0 15.6738 14.248">
 <g>
  <rect height="14.248" opacity="0" width="15.6738" x="0" y="0"/>
  <path d="M2.49023 14.248L12.8223 14.248C14.4922 14.248 15.3125 13.4277 15.3125 11.7871L15.3125 2.4707C15.3125 0.830078 14.4922 0.00976562 12.8223 0.00976562L2.49023 0.00976562C0.830078 0.00976562 0 0.830078 0 2.4707L0 11.7871C0 13.4277 0.830078 14.248 2.49023 14.248ZM2.35352 12.832C1.74805 12.832 1.40625 12.5098 1.40625 11.875L1.40625 4.53125C1.40625 3.89648 1.74805 3.57422 2.35352 3.57422L12.9492 3.57422C13.5547 3.57422 13.9062 3.89648 13.9062 4.53125L13.9062 11.875C13.9062 12.5098 13.5547 12.832 12.9492 12.832Z" fill="white" fill-opacity="0.85"/>
  <path d="M4.02344 11.2988L6.68945 11.2988C6.98242 11.2988 7.16797 11.1035 7.16797 10.8008C7.16797 10.4785 6.98242 10.293 6.68945 10.293L4.96094 10.293L4.96094 10.2344L5.98633 8.97461C6.79688 7.98828 7.06055 7.42188 7.06055 6.74805C7.06055 5.68359 6.30859 4.94141 5.23438 4.94141C4.23828 4.94141 3.45703 5.75195 3.45703 6.54297C3.45703 6.86523 3.64258 7.08984 3.96484 7.08984C4.24805 7.08984 4.42383 6.96289 4.51172 6.67969C4.66797 6.21094 4.83398 5.92773 5.22461 5.92773C5.63477 5.92773 5.87891 6.2793 5.87891 6.80664C5.87891 7.42188 5.41016 8.06641 5.01953 8.55469L3.76953 10.1074C3.61328 10.3125 3.44727 10.5273 3.44727 10.8008C3.44727 11.084 3.62305 11.2988 4.02344 11.2988ZM9.99023 11.4648C11.543 11.4648 12.0312 9.78516 12.0312 8.20312C12.0312 6.62109 11.543 4.94141 9.99023 4.94141C8.4375 4.94141 7.94922 6.62109 7.94922 8.20312C7.94922 9.78516 8.4375 11.4648 9.99023 11.4648ZM9.99023 10.4492C9.45312 10.4492 9.19922 9.58008 9.19922 8.20312C9.19922 6.82617 9.45312 5.95703 9.99023 5.95703C10.5273 5.95703 10.7715 6.82617 10.7715 8.20312C10.7715 9.58008 10.5273 10.4492 9.99023 10.4492Z" fill="white" fill-opacity="0.85"/>
 </g>
</svg>
