<?xml version="1.0" encoding="UTF-8"?>
<!--Generator: Apple Native CoreSVG 341-->
<!DOCTYPE svg
PUBLIC "-//W3C//DTD SVG 1.1//EN"
       "http://www.w3.org/Graphics/SVG/1.1/DTD/svg11.dtd">
<svg version="1.1" xmlns="http://www.w3.org/2000/svg" xmlns:xlink="http://www.w3.org/1999/xlink" viewBox="0 0 16.1328 15.7715">
 <g>
  <rect height="15.7715" opacity="0" width="16.1328" x="0" y="0"/>
  <path d="M7.88086 15.7617C12.2363 15.7617 15.7715 12.2363 15.7715 7.88086C15.7715 3.52539 12.2363 0 7.88086 0C3.53516 0 0 3.52539 0 7.88086C0 12.2363 3.53516 15.7617 7.88086 15.7617ZM7.88086 14.2773C4.3457 14.2773 1.49414 11.416 1.49414 7.88086C1.49414 4.3457 4.3457 1.48438 7.88086 1.48438C11.416 1.48438 14.2773 4.3457 14.2773 7.88086C14.2773 11.416 11.416 14.2773 7.88086 14.2773Z" fill="white" fill-opacity="0.425"/>
  <path d="M4.41406 10.9766L7.08008 10.9766C7.38281 10.9766 7.55859 10.7812 7.55859 10.4785C7.55859 10.1562 7.37305 9.9707 7.08008 9.9707L5.35156 9.9707L5.35156 9.91211L6.38672 8.65234C7.19727 7.66602 7.45117 7.09961 7.45117 6.42578C7.45117 5.36133 6.70898 4.61914 5.625 4.61914C4.62891 4.61914 3.84766 5.42969 3.84766 6.2207C3.84766 6.54297 4.04297 6.76758 4.36523 6.76758C4.64844 6.76758 4.81445 6.64062 4.91211 6.35742C5.05859 5.88867 5.22461 5.60547 5.61523 5.60547C6.02539 5.60547 6.2793 5.95703 6.2793 6.48438C6.2793 7.09961 5.80078 7.74414 5.41992 8.23242L4.16992 9.78516C4.00391 9.99023 3.83789 10.2051 3.83789 10.4785C3.83789 10.7617 4.02344 10.9766 4.41406 10.9766ZM8.88672 10.9766L11.5527 10.9766C11.8555 10.9766 12.041 10.7812 12.041 10.4785C12.041 10.1562 11.8457 9.9707 11.5527 9.9707L9.82422 9.9707L9.82422 9.91211L10.8594 8.65234C11.6699 7.66602 11.9238 7.09961 11.9238 6.42578C11.9238 5.36133 11.1816 4.61914 10.0977 4.61914C9.10156 4.61914 8.32031 5.42969 8.32031 6.2207C8.32031 6.54297 8.51562 6.76758 8.83789 6.76758C9.12109 6.76758 9.28711 6.64062 9.38477 6.35742C9.53125 5.88867 9.69727 5.60547 10.0977 5.60547C10.498 5.60547 10.752 5.95703 10.752 6.48438C10.752 7.09961 10.2734 7.74414 9.89258 8.23242L8.64258 9.78516C8.48633 9.99023 8.31055 10.2051 8.31055 10.4785C8.31055 10.7617 8.49609 10.9766 8.88672 10.9766Z" fill="white" fill-opacity="0.85"/>
 </g>
</svg>
