<svg version="1.1" xmlns="http://www.w3.org/2000/svg" xmlns:xlink="http://www.w3.org/1999/xlink" viewBox="0 0 14.5898 14.248">
 <g>
  <rect height="14.248" opacity="0" width="14.5898" x="0" y="0"/>
  <path d="M2.49023 14.248L11.7383 14.248C13.4082 14.248 14.2285 13.4277 14.2285 11.7871L14.2285 2.4707C14.2285 0.830078 13.4082 0.00976562 11.7383 0.00976562L2.49023 0.00976562C0.830078 0.00976562 0 0.830078 0 2.4707L0 11.7871C0 13.4277 0.830078 14.248 2.49023 14.248Z" fill="var(--color-tertiary)"/>
  <path d="M3.33008 10.332C2.91992 10.332 2.72461 10.1074 2.72461 9.81445C2.72461 9.53125 2.91016 9.30664 3.07617 9.10156L4.36523 7.48047C4.76562 6.98242 5.25391 6.30859 5.25391 5.66406C5.25391 5.11719 5 4.75586 4.58008 4.75586C4.16992 4.75586 3.99414 5.05859 3.83789 5.53711C3.74023 5.83008 3.57422 5.9668 3.27148 5.9668C2.93945 5.9668 2.73438 5.73242 2.73438 5.40039C2.73438 4.58008 3.55469 3.74023 4.58984 3.74023C5.70312 3.74023 6.48438 4.51172 6.48438 5.60547C6.48438 6.31836 6.21094 6.89453 5.37109 7.91016L4.30664 9.21875L4.30664 9.29688L6.09375 9.29688C6.39648 9.29688 6.60156 9.47266 6.60156 9.81445C6.60156 10.127 6.40625 10.332 6.09375 10.332ZM10.3125 10.4395C10.0391 10.4395 9.69727 10.2832 9.69727 9.80469L9.69727 9.14062L7.99805 9.14062C7.57812 9.14062 7.27539 8.84766 7.27539 8.41797C7.27539 8.14453 7.33398 7.91992 7.4707 7.57812L8.76953 4.6875C9.01367 4.13086 9.30664 3.81836 9.94141 3.81836C10.5273 3.81836 10.9277 4.16992 10.9277 4.76562L10.9277 8.10547L11.1621 8.10547C11.5137 8.10547 11.6602 8.33008 11.6602 8.61328C11.6602 8.90625 11.4941 9.14062 11.1621 9.14062L10.9277 9.14062L10.9277 9.80469C10.9277 10.2441 10.6543 10.4395 10.3125 10.4395ZM9.72656 8.13477L9.72656 4.90234L9.69727 4.90234L8.36914 8.07617L8.36914 8.13477Z" fill="var(--color-primary)"/>
 </g>
</svg>
