<svg version="1.1" xmlns="http://www.w3.org/2000/svg" xmlns:xlink="http://www.w3.org/1999/xlink" viewBox="0 0 16.1328 15.7715">
 <g>
  <rect height="15.7715" opacity="0" width="16.1328" x="0" y="0"/>
  <path d="M7.88086 15.7617C12.2363 15.7617 15.7715 12.2266 15.7715 7.88086C15.7715 3.53516 12.2363 0 7.88086 0C3.53516 0 0 3.53516 0 7.88086C0 12.2266 3.53516 15.7617 7.88086 15.7617Z" fill="var(--color-tertiary)"/>
  <path d="M3.79883 11.0938C3.37891 11.0938 3.20312 10.8691 3.20312 10.5762C3.20312 10.293 3.36914 10.0684 3.53516 9.86328L4.83398 8.24219C5.23438 7.74414 5.73242 7.07031 5.73242 6.42578C5.73242 5.87891 5.46875 5.51758 5.04883 5.51758C4.62891 5.51758 4.47266 5.82031 4.30664 6.29883C4.20898 6.5918 4.0332 6.72852 3.74023 6.72852C3.39844 6.72852 3.21289 6.49414 3.21289 6.16211C3.21289 5.3418 4.01367 4.50195 5.05859 4.50195C6.17188 4.50195 6.95312 5.27344 6.95312 6.36719C6.95312 7.08008 6.67969 7.65625 5.83984 8.67188L4.76562 9.98047L4.76562 10.0586L6.5625 10.0586C6.86523 10.0586 7.06055 10.2344 7.06055 10.5762C7.06055 10.8887 6.875 11.0938 6.5625 11.0938ZM8.67188 11.1914C8.31055 11.1914 8.01758 10.8984 8.01758 10.5469L8.01758 5.20508C8.01758 4.85352 8.31055 4.56055 8.67188 4.56055C9.02344 4.56055 9.31641 4.85352 9.31641 5.20508L9.31641 7.29492L11.1328 7.29492L11.1328 5.20508C11.1328 4.85352 11.4258 4.56055 11.7871 4.56055C12.1387 4.56055 12.4316 4.85352 12.4316 5.20508L12.4316 10.5469C12.4316 10.8984 12.1387 11.1914 11.7871 11.1914C11.4258 11.1914 11.1328 10.8984 11.1328 10.5469L11.1328 8.36914L9.31641 8.36914L9.31641 10.5469C9.31641 10.8984 9.02344 11.1914 8.67188 11.1914Z" fill="var(--color-primary)"/>
 </g>
</svg>
