<?xml version="1.0" encoding="UTF-8"?>
<!--Generator: Apple Native CoreSVG 341-->
<!DOCTYPE svg
PUBLIC "-//W3C//DTD SVG 1.1//EN"
       "http://www.w3.org/Graphics/SVG/1.1/DTD/svg11.dtd">
<svg version="1.1" xmlns="http://www.w3.org/2000/svg" xmlns:xlink="http://www.w3.org/1999/xlink" viewBox="0 0 14.5898 14.248">
 <g>
  <rect height="14.248" opacity="0" width="14.5898" x="0" y="0"/>
  <path d="M2.49023 14.248L11.7383 14.248C13.4082 14.248 14.2285 13.4277 14.2285 11.7871L14.2285 2.4707C14.2285 0.830078 13.4082 0.00976562 11.7383 0.00976562L2.49023 0.00976562C0.830078 0.00976562 0 0.830078 0 2.4707L0 11.7871C0 13.4277 0.830078 14.248 2.49023 14.248Z" fill="white" fill-opacity="0.2125"/>
  <path d="M4.59961 10.4688C3.73047 10.4688 2.88086 10.0781 2.64648 9.32617C2.60742 9.18945 2.58789 9.0625 2.58789 8.90625C2.58789 8.56445 2.82227 8.34961 3.17383 8.34961C3.44727 8.34961 3.64258 8.49609 3.74023 8.7793C3.83789 9.0918 4.0625 9.44336 4.59961 9.44336C5.13672 9.44336 5.41016 9.01367 5.41016 8.51562C5.41016 7.87109 5.06836 7.51953 4.42383 7.51953L4.26758 7.51953C3.96484 7.51953 3.7793 7.35352 3.7793 7.06055C3.7793 6.76758 3.96484 6.58203 4.26758 6.58203L4.41406 6.58203C4.98047 6.58203 5.27344 6.19141 5.27344 5.64453C5.27344 5.15625 5.05859 4.78516 4.57031 4.78516C4.16016 4.78516 3.93555 5.03906 3.80859 5.48828C3.71094 5.78125 3.53516 5.88867 3.23242 5.88867C2.88086 5.88867 2.68555 5.64453 2.68555 5.36133C2.68555 5.22461 2.70508 5.07812 2.74414 4.93164C2.97852 4.22852 3.73047 3.76953 4.57031 3.76953C5.625 3.76953 6.48438 4.375 6.48438 5.50781C6.48438 6.17188 6.13281 6.80664 5.41992 7.00195L5.41992 7.03125C6.05469 7.09961 6.67969 7.54883 6.67969 8.56445C6.67969 9.75586 5.77148 10.4688 4.59961 10.4688ZM9.60938 10.4883C7.99805 10.4883 7.49023 8.75977 7.49023 7.10938C7.49023 5.45898 7.99805 3.73047 9.60938 3.73047C11.2207 3.73047 11.7285 5.45898 11.7285 7.10938C11.7285 8.75977 11.2207 10.4883 9.60938 10.4883ZM9.60938 9.44336C10.166 9.44336 10.4297 8.54492 10.4297 7.10938C10.4297 5.67383 10.166 4.77539 9.60938 4.77539C9.0625 4.77539 8.79883 5.67383 8.79883 7.10938C8.79883 8.54492 9.0625 9.44336 9.60938 9.44336Z" fill="white" fill-opacity="0.85"/>
 </g>
</svg>
