<?xml version="1.0" encoding="UTF-8"?>
<!--Generator: Apple Native CoreSVG 341-->
<!DOCTYPE svg
PUBLIC "-//W3C//DTD SVG 1.1//EN"
       "http://www.w3.org/Graphics/SVG/1.1/DTD/svg11.dtd">
<svg version="1.1" xmlns="http://www.w3.org/2000/svg" xmlns:xlink="http://www.w3.org/1999/xlink" viewBox="0 0 16.1328 15.7715">
 <g>
  <rect height="15.7715" opacity="0" width="16.1328" x="0" y="0"/>
  <path d="M7.88086 15.7617C12.2363 15.7617 15.7715 12.2266 15.7715 7.88086C15.7715 3.53516 12.2363 0 7.88086 0C3.53516 0 0 3.53516 0 7.88086C0 12.2266 3.53516 15.7617 7.88086 15.7617Z" fill="white" fill-opacity="0.2125"/>
  <path d="M5.70312 11.2402C4.85352 11.2402 3.98438 10.8496 3.75 10.0977C3.71094 9.96094 3.69141 9.83398 3.69141 9.67773C3.69141 9.33594 3.92578 9.12109 4.27734 9.12109C4.56055 9.12109 4.75586 9.26758 4.84375 9.55078C4.94141 9.86328 5.16602 10.2148 5.70312 10.2148C6.25 10.2148 6.51367 9.78516 6.51367 9.27734C6.51367 8.64258 6.17188 8.29102 5.52734 8.29102L5.37109 8.29102C5.07812 8.29102 4.88281 8.125 4.88281 7.83203C4.88281 7.53906 5.07812 7.35352 5.37109 7.35352L5.51758 7.35352C6.09375 7.35352 6.38672 6.96289 6.38672 6.41602C6.38672 5.92773 6.16211 5.55664 5.67383 5.55664C5.27344 5.55664 5.04883 5.81055 4.91211 6.25977C4.83398 6.55273 4.64844 6.66016 4.3457 6.66016C3.99414 6.66016 3.78906 6.41602 3.78906 6.13281C3.78906 5.98633 3.81836 5.84961 3.85742 5.70312C4.0918 5 4.85352 4.54102 5.67383 4.54102C6.72852 4.54102 7.60742 5.14648 7.60742 6.2793C7.60742 6.94336 7.24609 7.57812 6.52344 7.77344L6.52344 7.80273C7.16797 7.87109 7.79297 8.32031 7.79297 9.33594C7.79297 10.5273 6.88477 11.2402 5.70312 11.2402ZM9.72656 11.2012C9.29688 11.2012 9.14062 10.9082 9.14062 10.6543C9.14062 10.4492 9.16992 10.3418 9.24805 10.1465L10.9375 5.80078L10.9375 5.72266L8.98438 5.72266C8.68164 5.72266 8.47656 5.50781 8.47656 5.19531C8.47656 4.89258 8.68164 4.67773 8.98438 4.67773L11.5332 4.67773C11.9238 4.67773 12.2363 4.94141 12.2363 5.3418C12.2363 5.61523 12.168 5.82031 12.0605 6.09375L10.3125 10.7617C10.1953 11.0742 10.0488 11.2012 9.72656 11.2012Z" fill="white" fill-opacity="0.85"/>
 </g>
</svg>
