<?xml version="1.0" encoding="UTF-8"?>
<!--Generator: Apple Native CoreSVG 341-->
<!DOCTYPE svg
PUBLIC "-//W3C//DTD SVG 1.1//EN"
       "http://www.w3.org/Graphics/SVG/1.1/DTD/svg11.dtd">
<svg version="1.1" xmlns="http://www.w3.org/2000/svg" xmlns:xlink="http://www.w3.org/1999/xlink" viewBox="0 0 14.5898 14.248">
 <g>
  <rect height="14.248" opacity="0" width="14.5898" x="0" y="0"/>
  <path d="M2.49023 14.248L11.7383 14.248C13.4082 14.248 14.2285 13.4277 14.2285 11.7871L14.2285 2.4707C14.2285 0.830078 13.4082 0.00976562 11.7383 0.00976562L2.49023 0.00976562C0.830078 0.00976562 0 0.830078 0 2.4707L0 11.7871C0 13.4277 0.830078 14.248 2.49023 14.248Z" fill="white" fill-opacity="0.2125"/>
  <path d="M5.86914 10.4395C5.5957 10.4395 5.24414 10.2734 5.24414 9.80469L5.24414 9.14062L3.55469 9.14062C3.125 9.14062 2.83203 8.84766 2.83203 8.41797C2.83203 8.14453 2.88086 7.91992 3.02734 7.57812L4.32617 4.67773C4.57031 4.13086 4.86328 3.81836 5.48828 3.81836C6.08398 3.81836 6.47461 4.16016 6.47461 4.76562L6.47461 8.10547L6.70898 8.10547C7.07031 8.10547 7.20703 8.33008 7.20703 8.61328C7.20703 8.90625 7.05078 9.14062 6.70898 9.14062L6.47461 9.14062L6.47461 9.80469C6.47461 10.2441 6.20117 10.4395 5.86914 10.4395ZM5.27344 8.13477L5.27344 4.90234L5.24414 4.90234L3.91602 8.07617L3.91602 8.13477ZM9.84375 10.4199C9.47266 10.4199 9.17969 10.127 9.17969 9.76562L9.17969 5.13672L8.51562 5.66406C8.42773 5.74219 8.33984 5.78125 8.20312 5.78125C7.92969 5.78125 7.74414 5.58594 7.74414 5.3125C7.74414 5.07812 7.88086 4.90234 8.02734 4.78516L8.85742 4.16016C9.05273 4.00391 9.36523 3.79883 9.72656 3.79883C10.2051 3.79883 10.4883 4.0625 10.4883 4.53125L10.4883 9.76562C10.4883 10.127 10.1953 10.4199 9.84375 10.4199Z" fill="white" fill-opacity="0.85"/>
 </g>
</svg>
