<?xml version="1.0" encoding="UTF-8"?>
<!--Generator: Apple Native CoreSVG 341-->
<!DOCTYPE svg
PUBLIC "-//W3C//DTD SVG 1.1//EN"
       "http://www.w3.org/Graphics/SVG/1.1/DTD/svg11.dtd">
<svg version="1.1" xmlns="http://www.w3.org/2000/svg" xmlns:xlink="http://www.w3.org/1999/xlink" viewBox="0 0 16.1328 15.7715">
 <g>
  <rect height="15.7715" opacity="0" width="16.1328" x="0" y="0"/>
  <path d="M7.88086 15.7617C12.2363 15.7617 15.7715 12.2266 15.7715 7.88086C15.7715 3.53516 12.2363 0 7.88086 0C3.53516 0 0 3.53516 0 7.88086C0 12.2266 3.53516 15.7617 7.88086 15.7617Z" fill="white" fill-opacity="0.2125"/>
  <path d="M6.47461 11.2012C6.20117 11.2012 5.84961 11.0352 5.84961 10.5566L5.84961 9.90234L4.15039 9.90234C3.73047 9.90234 3.4375 9.60938 3.4375 9.17969C3.4375 8.90625 3.47656 8.68164 3.63281 8.33984L4.92188 5.43945C5.16602 4.89258 5.46875 4.58008 6.08398 4.58008C6.68945 4.58008 7.08008 4.92188 7.08008 5.52734L7.08008 8.86719L7.30469 8.86719C7.67578 8.86719 7.8125 9.0918 7.8125 9.375C7.8125 9.66797 7.65625 9.90234 7.30469 9.90234L7.08008 9.90234L7.08008 10.5566C7.08008 11.0059 6.80664 11.2012 6.47461 11.2012ZM5.87891 8.89648L5.87891 5.66406L5.84961 5.66406L4.52148 8.83789L4.52148 8.89648ZM9.62891 11.2012C9.19922 11.2012 9.04297 10.9082 9.04297 10.6543C9.04297 10.4492 9.07227 10.3418 9.14062 10.1465L10.8301 5.80078L10.8301 5.72266L8.88672 5.72266C8.58398 5.72266 8.37891 5.50781 8.37891 5.19531C8.37891 4.89258 8.58398 4.67773 8.88672 4.67773L11.4355 4.67773C11.8262 4.67773 12.1387 4.94141 12.1387 5.3418C12.1387 5.61523 12.0703 5.82031 11.9727 6.09375L10.2246 10.7617C10.0977 11.0742 9.96094 11.2012 9.62891 11.2012Z" fill="white" fill-opacity="0.85"/>
 </g>
</svg>
