<?xml version="1.0" encoding="UTF-8"?>
<!--Generator: Apple Native CoreSVG 341-->
<!DOCTYPE svg
PUBLIC "-//W3C//DTD SVG 1.1//EN"
       "http://www.w3.org/Graphics/SVG/1.1/DTD/svg11.dtd">
<svg version="1.1" xmlns="http://www.w3.org/2000/svg" xmlns:xlink="http://www.w3.org/1999/xlink" viewBox="0 0 14.5898 14.248">
 <g>
  <rect height="14.248" opacity="0" width="14.5898" x="0" y="0"/>
  <path d="M2.49023 14.248L11.7383 14.248C13.4082 14.248 14.2285 13.4277 14.2285 11.7871L14.2285 2.4707C14.2285 0.830078 13.4082 0.00976562 11.7383 0.00976562L2.49023 0.00976562C0.830078 0.00976562 0 0.830078 0 2.4707L0 11.7871C0 13.4277 0.830078 14.248 2.49023 14.248Z" fill="white" fill-opacity="0.2125"/>
  <path d="M5.70312 10.4395C5.42969 10.4395 5.07812 10.2734 5.07812 9.79492L5.07812 9.14062L3.38867 9.14062C2.95898 9.14062 2.66602 8.84766 2.66602 8.41797C2.66602 8.14453 2.71484 7.91992 2.86133 7.57812L4.15039 4.67773C4.39453 4.13086 4.69727 3.81836 5.32227 3.81836C5.91797 3.81836 6.30859 4.16016 6.30859 4.76562L6.30859 8.10547L6.54297 8.10547C6.9043 8.10547 7.04102 8.33008 7.04102 8.61328C7.04102 8.90625 6.88477 9.14062 6.54297 9.14062L6.30859 9.14062L6.30859 9.79492C6.30859 10.2441 6.03516 10.4395 5.70312 10.4395ZM5.10742 8.13477L5.10742 4.90234L5.07812 4.90234L3.75 8.07617L3.75 8.13477ZM8.85742 10.4395C8.4375 10.4395 8.27148 10.1465 8.27148 9.89258C8.27148 9.6875 8.30078 9.58008 8.37891 9.38477L10.0684 5.03906L10.0684 4.96094L8.11523 4.96094C7.8125 4.96094 7.60742 4.74609 7.60742 4.43359C7.60742 4.13086 7.8125 3.91602 8.11523 3.91602L10.6641 3.91602C11.0547 3.91602 11.3672 4.17969 11.3672 4.58008C11.3672 4.85352 11.2988 5.05859 11.2012 5.33203L9.45312 10C9.32617 10.3125 9.18945 10.4395 8.85742 10.4395Z" fill="white" fill-opacity="0.85"/>
 </g>
</svg>
