<svg version="1.1" xmlns="http://www.w3.org/2000/svg" xmlns:xlink="http://www.w3.org/1999/xlink" viewBox="0 0 16.1328 15.7715">
 <g>
  <rect height="15.7715" opacity="0" width="16.1328" x="0" y="0"/>
  <path d="M7.88086 15.7617C12.2363 15.7617 15.7715 12.2266 15.7715 7.88086C15.7715 3.53516 12.2363 0 7.88086 0C3.53516 0 0 3.53516 0 7.88086C0 12.2266 3.53516 15.7617 7.88086 15.7617Z" fill="var(--color-tertiary)"/>
  <path d="M5.42969 11.2695C4.7168 11.2695 3.98438 10.8789 3.69141 10.2637C3.61328 10.0879 3.56445 9.90234 3.56445 9.6875C3.56445 9.36523 3.76953 9.16016 4.0918 9.16016C4.32617 9.16016 4.52148 9.30664 4.63867 9.57031C4.78516 9.96094 5 10.2441 5.41016 10.2441C5.94727 10.2441 6.14258 9.60938 6.14258 8.98438C6.14258 8.44727 5.95703 7.79297 5.41992 7.79297C5.11719 7.79297 4.95117 7.94922 4.77539 8.18359C4.58984 8.41797 4.45312 8.50586 4.22852 8.50586C3.80859 8.50586 3.65234 8.20312 3.65234 7.87109C3.65234 7.74414 3.65234 7.63672 3.66211 7.50977L3.76953 5.42969C3.79883 4.99023 4.00391 4.6875 4.46289 4.6875L6.66016 4.6875C6.95312 4.6875 7.1582 4.91211 7.1582 5.20508C7.1582 5.51758 6.96289 5.73242 6.66016 5.73242L4.82422 5.73242L4.7168 7.5293L4.75586 7.5293C4.95117 7.08008 5.36133 6.86523 5.83984 6.86523C6.86523 6.86523 7.39258 7.86133 7.39258 8.95508C7.39258 10.2441 6.69922 11.2695 5.42969 11.2695ZM10.3809 11.2695C8.7793 11.2695 8.27148 9.54102 8.27148 7.89062C8.27148 6.24023 8.7793 4.51172 10.3809 4.51172C12.002 4.51172 12.5098 6.24023 12.5098 7.89062C12.5098 9.54102 12.002 11.2695 10.3809 11.2695ZM10.3809 10.2246C10.9375 10.2246 11.2012 9.32617 11.2012 7.89062C11.2012 6.45508 10.9375 5.55664 10.3809 5.55664C9.83398 5.55664 9.57031 6.45508 9.57031 7.89062C9.57031 9.32617 9.83398 10.2246 10.3809 10.2246Z" fill="var(--color-primary)"/>
 </g>
</svg>
