<?xml version="1.0" encoding="UTF-8"?>
<!--Generator: Apple Native CoreSVG 341-->
<!DOCTYPE svg
PUBLIC "-//W3C//DTD SVG 1.1//EN"
       "http://www.w3.org/Graphics/SVG/1.1/DTD/svg11.dtd">
<svg version="1.1" xmlns="http://www.w3.org/2000/svg" xmlns:xlink="http://www.w3.org/1999/xlink" viewBox="0 0 15.6738 14.248">
 <g>
  <rect height="14.248" opacity="0" width="15.6738" x="0" y="0"/>
  <path d="M2.49023 14.248L12.8223 14.248C14.4922 14.248 15.3125 13.4277 15.3125 11.7871L15.3125 2.4707C15.3125 0.830078 14.4922 0.00976562 12.8223 0.00976562L2.49023 0.00976562C0.830078 0.00976562 0 0.830078 0 2.4707L0 11.7871C0 13.4277 0.830078 14.248 2.49023 14.248ZM2.35352 12.832C1.74805 12.832 1.40625 12.5098 1.40625 11.875L1.40625 4.53125C1.40625 3.89648 1.74805 3.57422 2.35352 3.57422L12.9492 3.57422C13.5547 3.57422 13.9062 3.89648 13.9062 4.53125L13.9062 11.875C13.9062 12.5098 13.5547 12.832 12.9492 12.832Z" fill="white" fill-opacity="0.425"/>
  <path d="M6.72852 11.5332C6.99219 11.5332 7.1875 11.416 7.34375 11.1035L9.88281 6.40625C10.0391 6.12305 10.0684 5.95703 10.0684 5.80078C10.0684 5.37109 9.73633 5.04883 9.23828 5.04883L5.85938 5.04883C5.58594 5.04883 5.39062 5.24414 5.39062 5.52734C5.39062 5.81055 5.58594 6.00586 5.85938 6.00586L8.71094 6.00586L8.71094 6.06445L6.21094 10.5664C6.13281 10.7031 6.10352 10.8203 6.10352 10.9668C6.10352 11.3086 6.38672 11.5332 6.72852 11.5332Z" fill="white" fill-opacity="0.85"/>
 </g>
</svg>
