<?xml version="1.0" encoding="UTF-8"?>
<!--Generator: Apple Native CoreSVG 341-->
<!DOCTYPE svg
PUBLIC "-//W3C//DTD SVG 1.1//EN"
       "http://www.w3.org/Graphics/SVG/1.1/DTD/svg11.dtd">
<svg version="1.1" xmlns="http://www.w3.org/2000/svg" xmlns:xlink="http://www.w3.org/1999/xlink" viewBox="0 0 14.5898 11.5723">
 <g>
  <rect height="11.5723" opacity="0" width="14.5898" x="0" y="0"/>
  <path d="M0 10.8691C0 11.25 0.322266 11.5723 0.703125 11.5723C1.09375 11.5723 1.40625 11.25 1.40625 10.8691L1.40625 0.722656C1.40625 0.332031 1.09375 0.00976562 0.703125 0.00976562C0.322266 0.00976562 0 0.332031 0 0.722656ZM12.8223 10.8691C12.8223 11.25 13.1445 11.5723 13.5254 11.5723C13.916 11.5723 14.2285 11.25 14.2285 10.8691L14.2285 0.722656C14.2285 0.332031 13.916 0.00976562 13.5254 0.00976562C13.1445 0.00976562 12.8223 0.332031 12.8223 0.722656Z" fill="white" fill-opacity="0.85"/>
  <path d="M6.36719 9.41406C6.69922 9.41406 6.86523 9.27734 6.98242 8.97461L9.00391 4.16016C9.12109 3.89648 9.20898 3.64258 9.20898 3.36914C9.20898 2.89062 8.85742 2.64648 8.44727 2.64648L5.52734 2.64648C5.20508 2.64648 4.98047 2.87109 4.98047 3.19336C4.98047 3.51562 5.20508 3.74023 5.52734 3.74023L7.82227 3.74023L7.82227 3.80859L5.84961 8.33008C5.77148 8.50586 5.73242 8.65234 5.73242 8.83789C5.73242 9.17969 5.99609 9.41406 6.36719 9.41406Z" fill="white" fill-opacity="0.85"/>
 </g>
</svg>
