<?xml version="1.0" encoding="UTF-8"?>
<!--Generator: Apple Native CoreSVG 341-->
<!DOCTYPE svg
PUBLIC "-//W3C//DTD SVG 1.1//EN"
       "http://www.w3.org/Graphics/SVG/1.1/DTD/svg11.dtd">
<svg version="1.1" xmlns="http://www.w3.org/2000/svg" xmlns:xlink="http://www.w3.org/1999/xlink" viewBox="0 0 15.6738 14.248">
 <g>
  <rect height="14.248" opacity="0" width="15.6738" x="0" y="0"/>
  <path d="M2.49023 14.248L12.8223 14.248C14.4922 14.248 15.3125 13.4277 15.3125 11.7871L15.3125 2.4707C15.3125 0.830078 14.4922 0.00976562 12.8223 0.00976562L2.49023 0.00976562C0.830078 0.00976562 0 0.830078 0 2.4707L0 11.7871C0 13.4277 0.830078 14.248 2.49023 14.248ZM2.35352 12.832C1.74805 12.832 1.40625 12.5098 1.40625 11.875L1.40625 4.53125C1.40625 3.89648 1.74805 3.57422 2.35352 3.57422L12.9492 3.57422C13.5547 3.57422 13.9062 3.89648 13.9062 4.53125L13.9062 11.875C13.9062 12.5098 13.5547 12.832 12.9492 12.832Z" fill="white" fill-opacity="0.425"/>
  <path d="M7.64648 11.5332C9.16992 11.5332 10.1953 10.7715 10.1953 9.63867C10.1953 8.85742 9.62891 8.22266 8.7793 8.05664L8.7793 8.00781C9.48242 7.8125 9.92188 7.25586 9.92188 6.57227C9.92188 5.56641 8.99414 4.87305 7.65625 4.87305C6.32812 4.87305 5.40039 5.56641 5.40039 6.57227C5.40039 7.25586 5.82031 7.79297 6.5332 8.00781L6.5332 8.05664C5.68359 8.22266 5.12695 8.86719 5.12695 9.64844C5.12695 10.7812 6.13281 11.5332 7.64648 11.5332ZM7.66602 10.6934C6.89453 10.6934 6.32812 10.2246 6.32812 9.58008C6.32812 8.94531 6.9043 8.47656 7.66602 8.47656C8.44727 8.47656 9.00391 8.93555 9.00391 9.58008C9.00391 10.2246 8.4375 10.6934 7.66602 10.6934ZM7.65625 7.65625C7.01172 7.65625 6.55273 7.24609 6.55273 6.67969C6.55273 6.12305 7.01172 5.73242 7.65625 5.73242C8.31055 5.73242 8.76953 6.12305 8.76953 6.67969C8.76953 7.24609 8.31055 7.65625 7.65625 7.65625Z" fill="white" fill-opacity="0.85"/>
 </g>
</svg>
