<?xml version="1.0" encoding="UTF-8"?>
<!--Generator: Apple Native CoreSVG 341-->
<!DOCTYPE svg
PUBLIC "-//W3C//DTD SVG 1.1//EN"
       "http://www.w3.org/Graphics/SVG/1.1/DTD/svg11.dtd">
<svg version="1.1" xmlns="http://www.w3.org/2000/svg" xmlns:xlink="http://www.w3.org/1999/xlink" viewBox="0 0 14.5898 14.248">
 <g>
  <rect height="14.248" opacity="0" width="14.5898" x="0" y="0"/>
  <path d="M2.49023 14.248L11.7383 14.248C13.4082 14.248 14.2285 13.4277 14.2285 11.7871L14.2285 2.4707C14.2285 0.830078 13.4082 0.00976562 11.7383 0.00976562L2.49023 0.00976562C0.830078 0.00976562 0 0.830078 0 2.4707L0 11.7871C0 13.4277 0.830078 14.248 2.49023 14.248ZM2.50977 12.832C1.80664 12.832 1.40625 12.4512 1.40625 11.7188L1.40625 2.53906C1.40625 1.79688 1.80664 1.42578 2.50977 1.42578L11.7188 1.42578C12.4219 1.42578 12.8223 1.79688 12.8223 2.53906L12.8223 11.7188C12.8223 12.4512 12.4219 12.832 11.7188 12.832Z" fill="white" fill-opacity="0.85"/>
  <path d="M4.375 5.92773C4.375 7.2168 5.35156 8.16406 6.67969 8.16406C7.17773 8.16406 7.71484 7.97852 7.94922 7.72461L8.05664 7.72461C8.00781 7.8125 7.89062 7.97852 7.73438 8.17383C7.27539 8.75 6.76758 9.35547 6.40625 9.79492C6.25977 9.9707 6.19141 10.127 6.19141 10.2832C6.19141 10.5469 6.42578 10.8008 6.76758 10.8008C7.09961 10.8008 7.22656 10.6055 7.4707 10.3027C7.87109 9.81445 8.38867 9.14062 8.82812 8.56445C9.53125 7.62695 9.86328 6.83594 9.86328 5.98633C9.86328 4.47266 8.75 3.4375 7.11914 3.4375C5.49805 3.4375 4.375 4.47266 4.375 5.92773ZM5.60547 5.86914C5.60547 5.10742 6.25977 4.54102 7.11914 4.54102C7.97852 4.54102 8.63281 5.10742 8.63281 5.86914C8.63281 6.64062 7.97852 7.19727 7.11914 7.19727C6.25977 7.19727 5.60547 6.63086 5.60547 5.86914Z" fill="white" fill-opacity="0.85"/>
 </g>
</svg>
