<?xml version="1.0" encoding="UTF-8"?>
<!--Generator: Apple Native CoreSVG 341-->
<!DOCTYPE svg
PUBLIC "-//W3C//DTD SVG 1.1//EN"
       "http://www.w3.org/Graphics/SVG/1.1/DTD/svg11.dtd">
<svg version="1.1" xmlns="http://www.w3.org/2000/svg" xmlns:xlink="http://www.w3.org/1999/xlink" viewBox="0 0 16.1328 15.7715">
 <g>
  <rect height="15.7715" opacity="0" width="16.1328" x="0" y="0"/>
  <path d="M7.88086 15.7617C12.2363 15.7617 15.7715 12.2363 15.7715 7.88086C15.7715 3.52539 12.2363 0 7.88086 0C3.53516 0 0 3.52539 0 7.88086C0 12.2363 3.53516 15.7617 7.88086 15.7617ZM7.88086 14.2773C4.3457 14.2773 1.49414 11.416 1.49414 7.88086C1.49414 4.3457 4.3457 1.48438 7.88086 1.48438C11.416 1.48438 14.2773 4.3457 14.2773 7.88086C14.2773 11.416 11.416 14.2773 7.88086 14.2773Z" fill="white" fill-opacity="0.425"/>
  <path d="M3.30078 10.3613C3.58398 10.3613 3.73047 10.1953 3.7793 9.92188L3.90625 9.25781L4.99023 9.25781L5.12695 9.93164C5.19531 10.2441 5.36133 10.3613 5.61523 10.3613C5.86914 10.3613 6.07422 10.1562 6.07422 9.90234C6.07422 9.85352 6.04492 9.6582 6.02539 9.58984L5.19531 6.00586C5.10742 5.58594 4.85352 5.39062 4.43359 5.39062C4.04297 5.39062 3.79883 5.57617 3.70117 6.00586L2.89062 9.58984C2.86133 9.69727 2.8418 9.79492 2.8418 9.90234C2.8418 10.2246 3.04688 10.3613 3.30078 10.3613ZM4.04297 8.52539L4.41406 6.52344L4.45312 6.52344L4.84375 8.52539ZM7.16797 10.2832L8.33984 10.2832C9.16016 10.2832 9.57031 9.66797 9.57031 8.91602C9.57031 8.35938 9.22852 7.77344 8.71094 7.74414L8.71094 7.71484C9.20898 7.60742 9.44336 7.10938 9.44336 6.66992C9.44336 5.92773 9.02344 5.46875 8.30078 5.46875L7.16797 5.46875C6.88477 5.46875 6.67969 5.61523 6.67969 5.97656L6.67969 9.77539C6.67969 10.0977 6.8457 10.2832 7.16797 10.2832ZM7.64648 9.56055L7.64648 8.125L7.99805 8.125C8.4082 8.125 8.59375 8.42773 8.59375 8.83789C8.59375 9.25781 8.4375 9.56055 8.00781 9.56055ZM7.64648 7.48047L7.64648 6.20117L8.00781 6.20117C8.38867 6.20117 8.52539 6.43555 8.52539 6.81641C8.52539 7.2168 8.34961 7.48047 7.94922 7.48047ZM11.4746 10.4004C12.373 10.4004 12.8906 9.83398 12.8906 8.96484C12.8906 8.18359 12.4707 7.82227 11.9141 7.55859L11.6406 7.42188C11.2891 7.24609 11.0547 7.06055 11.0547 6.66992C11.0547 6.38672 11.1816 6.13281 11.4648 6.13281C11.748 6.13281 11.8555 6.36719 11.9336 6.65039C11.9824 6.8457 12.1582 6.96289 12.3926 6.96289C12.627 6.96289 12.7832 6.79688 12.7832 6.5625C12.7832 6.45508 12.7539 6.34766 12.7246 6.24023C12.5293 5.68359 12.0703 5.3418 11.4648 5.3418C10.7422 5.3418 10.1074 5.81055 10.1074 6.75781C10.1074 7.53906 10.5664 7.91016 11.0645 8.16406L11.3379 8.30078C11.6992 8.47656 11.9336 8.65234 11.9336 9.05273C11.9336 9.38477 11.7578 9.61914 11.4746 9.61914C11.1816 9.61914 11.0547 9.4043 10.9766 9.11133C10.9082 8.88672 10.7617 8.76953 10.5176 8.76953C10.2637 8.76953 10.1074 8.95508 10.1074 9.20898C10.1074 9.28711 10.127 9.375 10.1465 9.45312C10.3027 10.0488 10.791 10.4004 11.4746 10.4004Z" fill="white" fill-opacity="0.85"/>
 </g>
</svg>
