<svg version="1.1" xmlns="http://www.w3.org/2000/svg" xmlns:xlink="http://www.w3.org/1999/xlink" viewBox="0 0 27.9199 12.627">
 <g>
  <rect height="12.627" opacity="0" width="27.9199" x="0" y="0"/>
  <path d="M2.5293 10.957L2.99805 10.957C2.94922 10.7129 2.91992 10.4688 2.91992 10.2148C2.91992 8.38867 4.35547 6.95312 6.19141 6.95312C8.01758 6.95312 9.45312 8.38867 9.45312 10.2148C9.45312 10.4688 9.42383 10.7129 9.36523 10.957L18.1836 10.957C18.1348 10.7129 18.1055 10.4688 18.1055 10.2148C18.1055 8.38867 19.541 6.95312 21.3672 6.95312C23.2031 6.95312 24.6387 8.38867 24.6387 10.2148C24.6387 10.4688 24.6094 10.7129 24.5508 10.957L25.0293 10.957C26.7871 10.957 27.5586 10.127 27.5586 8.27148L27.5586 6.15234C27.5586 4.6875 26.8359 3.74023 25.3613 3.26172L24.1504 2.87109C22.6953 1.60156 20.459 0 17.5781 0L16.3672 0C13.1836 0 11.875 0.3125 9.9707 1.50391L6.875 3.44727L3.51562 3.85742C1.31836 4.13086 0 5.49805 0 7.38281L0 8.33008C0 10.1465 0.791016 10.957 2.5293 10.957ZM6.19141 12.5293C7.49023 12.5293 8.49609 11.5137 8.49609 10.2148C8.49609 8.92578 7.49023 7.91016 6.19141 7.91016C4.89258 7.91016 3.87695 8.92578 3.87695 10.2148C3.87695 11.5137 4.89258 12.5293 6.19141 12.5293ZM21.3672 12.5293C22.666 12.5293 23.6816 11.5137 23.6816 10.2148C23.6816 8.92578 22.666 7.91016 21.3672 7.91016C20.0781 7.91016 19.0625 8.92578 19.0625 10.2148C19.0625 11.5137 20.0781 12.5293 21.3672 12.5293Z" fill="var(--color-tertiary)"/>
  <path d="M10.1562 7.77344C9.88281 7.77344 9.63867 7.61719 9.63867 7.23633C9.63867 7.11914 9.6582 7.01172 9.6875 6.86523L10.3516 3.89648C10.4395 3.42773 10.752 3.21289 11.2012 3.21289C11.6797 3.21289 11.9824 3.41797 12.0898 3.89648L12.7637 6.86523C12.793 7.00195 12.8125 7.10938 12.8125 7.23633C12.8125 7.53906 12.6074 7.77344 12.2754 7.77344C11.9629 7.77344 11.7969 7.60742 11.7188 7.26562L11.6504 6.9043L10.7812 6.9043L10.7227 7.24609C10.6543 7.58789 10.5078 7.77344 10.1562 7.77344ZM10.9082 6.08398L11.5137 6.08398L11.2207 4.47266L11.1816 4.47266ZM13.9258 7.77344C13.5742 7.77344 13.3594 7.54883 13.3594 7.1875L13.3594 3.79883C13.3594 3.4375 13.5742 3.21289 13.9258 3.21289C14.2773 3.21289 14.4922 3.4375 14.4922 3.79883L14.4922 7.1875C14.4922 7.54883 14.2773 7.77344 13.9258 7.77344ZM15.7422 7.77344C15.3809 7.77344 15.166 7.54883 15.166 7.1875L15.166 3.87695C15.166 3.49609 15.3711 3.28125 15.7422 3.28125L16.582 3.28125C17.6074 3.28125 18.0371 3.87695 18.0371 4.73633C18.0371 5.17578 17.9004 5.66406 17.5586 5.91797L17.9102 6.88477C17.959 7.03125 17.998 7.16797 17.998 7.27539C17.998 7.56836 17.7734 7.77344 17.4414 7.77344C17.1484 7.77344 16.9727 7.59766 16.8848 7.29492L16.5234 6.15234L16.2988 6.15234L16.2988 7.1875C16.2988 7.54883 16.0742 7.77344 15.7422 7.77344ZM16.2988 5.38086L16.4844 5.38086C16.7676 5.38086 16.8945 5.04883 16.8945 4.75586C16.8945 4.46289 16.7676 4.13086 16.4844 4.13086L16.2988 4.13086Z" fill="var(--color-primary)"/>
 </g>
</svg>
