<?xml version="1.0" encoding="UTF-8"?>
<!--Generator: Apple Native CoreSVG 341-->
<!DOCTYPE svg
PUBLIC "-//W3C//DTD SVG 1.1//EN"
       "http://www.w3.org/Graphics/SVG/1.1/DTD/svg11.dtd">
<svg version="1.1" xmlns="http://www.w3.org/2000/svg" xmlns:xlink="http://www.w3.org/1999/xlink" viewBox="0 0 18.4277 16.9043">
 <g>
  <rect height="16.9043" opacity="0" width="18.4277" x="0" y="0"/>
  <path d="M18.0664 3.21289L18.0664 10.8691C18.0664 12.1484 17.2754 12.9492 15.9961 12.9492L13.6816 12.9492L12.4297 11.5332L15.9766 11.5332C16.3965 11.5332 16.6602 11.2793 16.6602 10.8496L16.6602 3.23242C16.6602 2.80273 16.3965 2.53906 15.9766 2.53906L2.08984 2.53906C1.66992 2.53906 1.40625 2.80273 1.40625 3.23242L1.40625 10.8496C1.40625 11.2793 1.66992 11.5332 2.08984 11.5332L5.64652 11.5332L4.3946 12.9492L2.07031 12.9492C0.791016 12.9492 0 12.1484 0 10.8691L0 3.21289C0 1.93359 0.791016 1.13281 2.07031 1.13281L15.9961 1.13281C17.2754 1.13281 18.0664 1.93359 18.0664 3.21289Z" fill="white" fill-opacity="0.85"/>
  <path d="M16.6602 3.23242L16.6602 10.8496C16.6602 11.2793 16.3965 11.5332 15.9766 11.5332L12.4297 11.5332L10.2539 9.07227C9.60938 8.34961 8.4668 8.34961 7.82227 9.07227L5.64652 11.5332L2.08984 11.5332C1.66992 11.5332 1.40625 11.2793 1.40625 10.8496L1.40625 3.23242C1.40625 2.80273 1.66992 2.53906 2.08984 2.53906L15.9766 2.53906C16.3965 2.53906 16.6602 2.80273 16.6602 3.23242Z" fill="white" fill-opacity="0.2125"/>
  <path d="M13.7207 15.7617C14.1113 15.7617 14.2773 15.3418 14.0234 15.0488L9.4043 9.82422C9.20898 9.60938 8.86719 9.60938 8.68164 9.82422L4.0625 15.0488C3.80859 15.3418 3.96484 15.7617 4.36523 15.7617Z" fill="white" fill-opacity="0.85"/>
 </g>
</svg>
