<?xml version="1.0" encoding="UTF-8"?>
<!--Generator: Apple Native CoreSVG 341-->
<!DOCTYPE svg
PUBLIC "-//W3C//DTD SVG 1.1//EN"
       "http://www.w3.org/Graphics/SVG/1.1/DTD/svg11.dtd">
<svg version="1.1" xmlns="http://www.w3.org/2000/svg" xmlns:xlink="http://www.w3.org/1999/xlink" viewBox="0 0 23.8867 14.3848">
 <g>
  <rect height="14.3848" opacity="0" width="23.8867" x="0" y="0"/>
  <path d="M5.00977 8.34961C5.63477 8.34961 6.16211 7.83203 6.16211 7.19727C6.16211 6.5625 5.63477 6.04492 5.00977 6.04492C4.375 6.04492 3.85742 6.5625 3.85742 7.19727C3.85742 7.83203 4.375 8.34961 5.00977 8.34961ZM1.15234 8.34961C1.78711 8.34961 2.30469 7.83203 2.30469 7.19727C2.30469 6.5625 1.78711 6.04492 1.15234 6.04492C0.517578 6.04492 0 6.5625 0 7.19727C0 7.83203 0.517578 8.34961 1.15234 8.34961Z" fill="white" fill-opacity="0.85"/>
  <path d="M23.5254 7.1875C23.5254 6.36719 22.3926 5.77148 21.0547 5.77148L18.2422 5.77148C17.8516 5.77148 17.7051 5.69336 17.4609 5.43945L12.7246 0.253906C12.5781 0.0878906 12.3926 0 12.1777 0L11.3574 0C11.1816 0 11.0742 0.166016 11.1621 0.361328L13.6035 5.77148L10.0879 6.17188L8.81836 3.82812C8.7207 3.65234 8.56445 3.57422 8.33008 3.57422L8.03711 3.57422C7.85156 3.57422 7.72461 3.70117 7.72461 3.88672L7.72461 10.498C7.72461 10.6836 7.85156 10.8008 8.03711 10.8008L8.33008 10.8008C8.56445 10.8008 8.7207 10.7227 8.81836 10.5469L10.0879 8.20312L13.6035 8.61328L11.1621 14.0137C11.0742 14.209 11.1816 14.375 11.3574 14.375L12.1777 14.375C12.3926 14.375 12.5781 14.2871 12.7246 14.1211L17.4609 8.94531C17.7051 8.68164 17.8516 8.61328 18.2422 8.61328L21.0547 8.61328C22.3926 8.61328 23.5254 8.00781 23.5254 7.1875Z" fill="white" fill-opacity="0.85"/>
 </g>
</svg>
