<?xml version="1.0" encoding="UTF-8"?>
<!--Generator: Apple Native CoreSVG 341-->
<!DOCTYPE svg
PUBLIC "-//W3C//DTD SVG 1.1//EN"
       "http://www.w3.org/Graphics/SVG/1.1/DTD/svg11.dtd">
<svg version="1.1" xmlns="http://www.w3.org/2000/svg" xmlns:xlink="http://www.w3.org/1999/xlink" viewBox="0 0 22.1289 13.2715">
 <g>
  <rect height="13.2715" opacity="0" width="22.1289" x="0" y="0"/>
  <path d="M21.7676 2.17773L21.7676 4.85352C20.791 4.85352 20 5.64453 20 6.62109C20 7.60742 20.791 8.4082 21.7676 8.4082L21.7676 11.084C21.7676 12.5098 21.0156 13.2617 19.5605 13.2617L2.2168 13.2617C0.761719 13.2617 0 12.5098 0 11.084L0 8.4082C0.976562 8.4082 1.77734 7.60742 1.77734 6.62109C1.77734 5.6543 0.976562 4.85352 0 4.85352L0 2.17773C0 0.751953 0.761719 0 2.2168 0L19.5605 0C21.0156 0 21.7676 0.751953 21.7676 2.17773ZM16.0449 9.20898L16.0449 11.8457L17.1387 11.8457L17.1387 9.20898ZM7.02148 2.38281C6.85547 2.38281 6.74805 2.53906 6.82617 2.71484L8.18359 5.74219L6.34766 5.95703L5.63477 4.64844C5.56641 4.52148 5.43945 4.45312 5.26367 4.45312L5.08789 4.45312C4.94141 4.45312 4.82422 4.57031 4.82422 4.72656L4.82422 8.55469C4.82422 8.71094 4.94141 8.82812 5.08789 8.82812L5.26367 8.82812C5.43945 8.82812 5.56641 8.75977 5.63477 8.63281L6.34766 7.32422L8.18359 7.53906L6.82617 10.5664C6.74805 10.7324 6.85547 10.8984 7.02148 10.8984L7.5 10.8984C7.64648 10.8984 7.77344 10.8398 7.87109 10.7227L10.625 7.72461C10.7617 7.58789 10.8203 7.55859 11.0156 7.55859L12.6465 7.55859C13.4961 7.55859 14.1797 7.16797 14.1797 6.64062C14.1797 6.11328 13.4961 5.72266 12.6465 5.72266L11.0156 5.72266C10.8203 5.72266 10.7617 5.69336 10.625 5.55664L7.87109 2.55859C7.77344 2.44141 7.64648 2.38281 7.5 2.38281ZM16.0449 5.17578L16.0449 8.10547L17.1387 8.10547L17.1387 5.17578ZM16.0449 1.41602L16.0449 4.07227L17.1387 4.07227L17.1387 1.41602Z" fill="white" fill-opacity="0.85"/>
 </g>
</svg>
