<?xml version="1.0" encoding="UTF-8"?>
<!--Generator: Apple Native CoreSVG 341-->
<!DOCTYPE svg
PUBLIC "-//W3C//DTD SVG 1.1//EN"
       "http://www.w3.org/Graphics/SVG/1.1/DTD/svg11.dtd">
<svg version="1.1" xmlns="http://www.w3.org/2000/svg" xmlns:xlink="http://www.w3.org/1999/xlink" viewBox="0 0 15.3906 18.0957">
 <g>
  <rect height="18.0957" opacity="0" width="15.3906" x="0" y="0"/>
  <path d="M8.1543 17.4707C8.1543 17.8125 7.85156 18.0762 7.51953 18.0762C7.17773 18.0762 6.875 17.8125 6.875 17.4707L6.875 16.0156L8.1543 16.0156ZM8.1543 9.73633L6.875 9.73633L6.875 8.34961L8.1543 8.34961ZM8.1543 0.595703L8.1543 2.07031L6.875 2.07031L6.875 0.595703C6.875 0.263672 7.17773 0 7.51953 0C7.85156 0 8.1543 0.263672 8.1543 0.595703Z" fill="white" fill-opacity="0.85"/>
  <path d="M4.67773 8.34961L10.3516 8.34961C11.6016 8.34961 12.2656 7.70508 12.2656 6.47461L12.2656 3.94531C12.2656 2.72461 11.6016 2.07031 10.3516 2.07031L4.67773 2.07031C3.42773 2.07031 2.76367 2.72461 2.76367 3.94531L2.76367 6.47461C2.76367 7.70508 3.42773 8.34961 4.67773 8.34961ZM1.91406 16.0156L13.1152 16.0156C14.375 16.0156 15.0293 15.3613 15.0293 14.1406L15.0293 11.6113C15.0293 10.3809 14.375 9.73633 13.1152 9.73633L1.91406 9.73633C0.664062 9.73633 0 10.3809 0 11.6113L0 14.1406C0 15.3613 0.664062 16.0156 1.91406 16.0156Z" fill="white" fill-opacity="0.85"/>
 </g>
</svg>
