<?xml version="1.0" encoding="UTF-8"?>
<!--Generator: Apple Native CoreSVG 341-->
<!DOCTYPE svg
PUBLIC "-//W3C//DTD SVG 1.1//EN"
       "http://www.w3.org/Graphics/SVG/1.1/DTD/svg11.dtd">
<svg version="1.1" xmlns="http://www.w3.org/2000/svg" xmlns:xlink="http://www.w3.org/1999/xlink" viewBox="0 0 18.4375 17.7246">
 <g>
  <rect height="17.7246" opacity="0" width="18.4375" x="0" y="0"/>
  <path d="M3.94531 15.0488L6.47461 15.0488C7.69531 15.0488 8.34961 14.3848 8.34961 13.1348L8.34961 1.92383C8.34961 0.673828 7.69531 0.0195312 6.47461 0.0195312L3.94531 0.0195312C2.71484 0.0195312 2.07031 0.673828 2.07031 1.92383L2.07031 13.1348C2.07031 14.3848 2.71484 15.0488 3.94531 15.0488ZM11.6016 15.0488L14.1309 15.0488C15.3613 15.0488 16.0059 14.3848 16.0059 13.1348L16.0059 7.46094C16.0059 6.20117 15.3613 5.54688 14.1309 5.54688L11.6016 5.54688C10.3809 5.54688 9.72656 6.20117 9.72656 7.46094L9.72656 13.1348C9.72656 14.3848 10.3809 15.0488 11.6016 15.0488Z" fill="white" fill-opacity="0.85"/>
  <path d="M0.605469 17.7246L17.4707 17.7246C17.8125 17.7246 18.0762 17.4316 18.0762 17.0898C18.0762 16.748 17.8125 16.4453 17.4707 16.4453L0.605469 16.4453C0.263672 16.4453 0 16.748 0 17.0898C0 17.4316 0.263672 17.7246 0.605469 17.7246Z" fill="white" fill-opacity="0.85"/>
 </g>
</svg>
