<svg version="1.1" xmlns="http://www.w3.org/2000/svg" xmlns:xlink="http://www.w3.org/1999/xlink" viewBox="0 0 14.6582 14.2871">
 <g>
  <rect height="14.2871" opacity="0" width="14.6582" x="0" y="0"/>
  <path d="M0 6.14258L14.2969 6.14258L14.2969 4.18945C14.2969 2.85156 13.916 1.79688 13.1934 1.09375C12.4902 0.390625 11.4453 0 10.1074 0L4.18945 0C2.85156 0 1.78711 0.400391 1.09375 1.09375C0.380859 1.79688 0 2.85156 0 4.18945ZM0 9.73633L14.2969 9.73633L14.2969 8.18359L0 8.18359ZM0.537109 12.4512L13.75 12.4512C13.9258 12.1289 14.0625 11.7871 14.1504 11.3867L0.136719 11.3867C0.224609 11.7871 0.361328 12.1289 0.537109 12.4512ZM4.18945 14.2871L10.1074 14.2871C11.0645 14.2871 11.875 14.082 12.5195 13.7109L1.76758 13.7109C2.40234 14.082 3.23242 14.2871 4.18945 14.2871Z" fill="var(--color-primary)"/>
 </g>
</svg>
