<?xml version="1.0" encoding="UTF-8"?>
<!--Generator: Apple Native CoreSVG 341-->
<!DOCTYPE svg
PUBLIC "-//W3C//DTD SVG 1.1//EN"
       "http://www.w3.org/Graphics/SVG/1.1/DTD/svg11.dtd">
<svg version="1.1" xmlns="http://www.w3.org/2000/svg" xmlns:xlink="http://www.w3.org/1999/xlink" viewBox="0 0 8.02734 17.002">
 <g>
  <rect height="17.002" opacity="0" width="8.02734" x="0" y="0"/>
  <path d="M0 15.2637C0 16.2695 0.712891 16.9434 1.79688 16.9434L5.86914 16.9434C6.96289 16.9434 7.66602 16.2695 7.66602 15.2637L7.66602 1.68945C7.66602 0.673828 6.96289 0 5.86914 0L1.79688 0C0.712891 0 0 0.673828 0 1.68945ZM3.83789 10.6934C3.29102 10.6934 2.86133 10.2539 2.86133 9.7168C2.86133 9.16992 3.29102 8.74023 3.83789 8.74023C4.375 8.74023 4.81445 9.16992 4.81445 9.7168C4.81445 10.2539 4.375 10.6934 3.83789 10.6934ZM3.83789 7.66602C2.39258 7.66602 1.21094 6.48438 1.21094 5.03906C1.21094 3.59375 2.39258 2.41211 3.83789 2.41211C5.27344 2.41211 6.45508 3.59375 6.45508 5.03906C6.45508 6.48438 5.27344 7.66602 3.83789 7.66602ZM3.83789 6.09375C4.42383 6.09375 4.89258 5.63477 4.89258 5.03906C4.89258 4.45312 4.42383 3.97461 3.83789 3.97461C3.25195 3.97461 2.77344 4.45312 2.77344 5.03906C2.77344 5.63477 3.25195 6.09375 3.83789 6.09375Z" fill="white" fill-opacity="0.85"/>
 </g>
</svg>
