<?xml version="1.0" encoding="UTF-8"?>
<!--Generator: Apple Native CoreSVG 341-->
<!DOCTYPE svg
PUBLIC "-//W3C//DTD SVG 1.1//EN"
       "http://www.w3.org/Graphics/SVG/1.1/DTD/svg11.dtd">
<svg version="1.1" xmlns="http://www.w3.org/2000/svg" xmlns:xlink="http://www.w3.org/1999/xlink" viewBox="0 0 12.0801 13.5645">
 <g>
  <rect height="13.5645" opacity="0" width="12.0801" x="0" y="0"/>
  <path d="M11.7188 0.791016C11.7188 0.332031 11.4062 0 10.957 0L0.78125 0C0.322266 0 0 0.332031 0 0.791016C0 1.25 0.322266 1.58203 0.78125 1.58203L10.957 1.58203C11.4062 1.58203 11.7188 1.25 11.7188 0.791016ZM0.761719 8.23242C0.966797 8.23242 1.17188 8.1543 1.30859 8.01758L2.70508 6.66016L5.85938 3.17383L9.01367 6.66016L10.4102 8.01758C10.5469 8.1543 10.752 8.23242 10.957 8.23242C11.3965 8.23242 11.7188 7.89062 11.7188 7.46094C11.7188 7.25586 11.6406 7.07031 11.4746 6.89453L6.44531 1.8457C6.2793 1.66992 6.07422 1.57227 5.85938 1.57227C5.64453 1.57227 5.43945 1.66992 5.27344 1.8457L0.244141 6.89453C0.078125 7.07031 0 7.25586 0 7.46094C0 7.89062 0.322266 8.23242 0.761719 8.23242ZM6.54297 3.04688C6.52344 2.66602 6.23047 2.35352 5.85938 2.35352C5.48828 2.35352 5.19531 2.66602 5.17578 3.04688L5.06836 5.5957L5.06836 12.7832C5.06836 13.2422 5.40039 13.5645 5.85938 13.5645C6.31836 13.5645 6.65039 13.2422 6.65039 12.7832L6.65039 5.5957Z" fill="white" fill-opacity="0.85"/>
 </g>
</svg>
