<svg version="1.1" xmlns="http://www.w3.org/2000/svg" xmlns:xlink="http://www.w3.org/1999/xlink" viewBox="0 0 21.2988 15.1074">
 <g>
  <rect height="15.1074" opacity="0" width="21.2988" x="0" y="0"/>
  <path d="M9.82422 5.57617C9.82422 5.82031 10 6.00586 10.2637 6.04492C13.8379 6.47461 14.4043 7.03125 14.9121 10.7129C14.9609 10.957 15.1465 11.1328 15.3809 11.1328C15.6055 11.1328 15.8008 10.957 15.8398 10.7129C16.3574 7.03125 16.9141 6.47461 20.4883 6.04492C20.752 6.00586 20.9375 5.82031 20.9375 5.57617C20.9375 5.32227 20.752 5.13672 20.4883 5.09766C16.9238 4.67773 16.3574 4.11133 15.8398 0.429688C15.8008 0.185547 15.6152 0.0195312 15.3809 0.0195312C15.1367 0.0195312 14.9609 0.185547 14.9121 0.429688C14.3848 4.08203 13.8477 4.60938 10.2637 5.09766C10 5.13672 9.82422 5.32227 9.82422 5.57617ZM9.04297 12.2363C9.04297 12.4023 9.16992 12.5586 9.35547 12.5879C11.2793 12.9492 11.3281 12.9395 11.5332 14.7363C11.5625 14.9316 11.709 15.0781 11.8945 15.0781C12.0801 15.0781 12.2266 14.9414 12.2559 14.7461C12.4805 12.8906 12.5488 12.832 14.4238 12.5879C14.6094 12.5684 14.7461 12.4121 14.7461 12.2363C14.7461 12.0605 14.6191 11.9141 14.4336 11.875C12.5195 11.5137 12.4902 11.5137 12.2559 9.7168C12.2266 9.52148 12.0703 9.39453 11.8945 9.39453C11.709 9.39453 11.5625 9.53125 11.5332 9.73633C11.3281 11.5234 11.2695 11.582 9.39453 11.875C9.17969 11.9141 9.04297 12.041 9.04297 12.2363Z" fill="var(--color-primary)"/>
  <path d="M4.18945 1.5332L6.04492 3.7793L7.07031 4.86328C7.19727 5 7.37305 5.07812 7.59766 5.07812C8.05664 5.07812 8.37891 4.76562 8.37891 4.29688C8.37891 4.11133 8.28125 3.87695 8.13477 3.7207L4.77539 0.263672C4.60938 0.078125 4.4043 0 4.18945 0C3.97461 0 3.76953 0.078125 3.60352 0.263672L0.244141 3.7207C0.0976562 3.87695 0 4.11133 0 4.29688C0 4.76562 0.322266 5.07812 0.78125 5.07812C1.00586 5.07812 1.18164 4.99023 1.30859 4.86328L2.33398 3.7793ZM4.18945 13.5742L2.33398 11.3281L1.30859 10.2441C1.18164 10.1172 1.00586 10.0293 0.78125 10.0293C0.322266 10.0293 0 10.3418 0 10.8105C0 10.9961 0.0976562 11.2305 0.244141 11.3867L3.60352 14.8438C3.76953 15.0293 3.97461 15.1074 4.18945 15.1074C4.4043 15.1074 4.60938 15.0293 4.77539 14.8438L8.13477 11.3867C8.28125 11.2305 8.37891 10.9961 8.37891 10.8105C8.37891 10.3418 8.05664 10.0293 7.59766 10.0293C7.37305 10.0293 7.19727 10.1074 7.07031 10.2441L6.04492 11.3281ZM3.49609 13.7988C3.50586 14.1895 3.80859 14.4922 4.18945 14.4922C4.57031 14.4922 4.87305 14.1895 4.88281 13.7988L4.98047 10.918L4.98047 4.18945L4.88281 1.30859C4.87305 0.927734 4.57031 0.615234 4.18945 0.615234C3.80859 0.615234 3.50586 0.927734 3.49609 1.30859L3.39844 4.18945L3.39844 10.918Z" fill="var(--color-primary)"/>
 </g>
</svg>
