<?xml version="1.0" encoding="UTF-8"?>
<!--Generator: Apple Native CoreSVG 341-->
<!DOCTYPE svg
PUBLIC "-//W3C//DTD SVG 1.1//EN"
       "http://www.w3.org/Graphics/SVG/1.1/DTD/svg11.dtd">
<svg version="1.1" xmlns="http://www.w3.org/2000/svg" xmlns:xlink="http://www.w3.org/1999/xlink" viewBox="0 0 16.1328 15.7715">
 <g>
  <rect height="15.7715" opacity="0" width="16.1328" x="0" y="0"/>
  <path d="M15.7715 7.88086C15.7715 12.2266 12.2363 15.7617 7.88086 15.7617C3.53516 15.7617 0 12.2266 0 7.88086C0 3.53516 3.53516 0 7.88086 0C12.2363 0 15.7715 3.53516 15.7715 7.88086ZM10.1465 8.26172C10.1465 9.52148 9.14062 10.5371 7.88086 10.5371C6.63086 10.5371 5.61523 9.52148 5.61523 8.26172C5.61523 7.93945 5.3418 7.67578 5.0293 7.67578C4.70703 7.67578 4.43359 7.93945 4.43359 8.26172C4.43359 10.166 5.97656 11.7188 7.88086 11.7188C9.79492 11.7188 11.3379 10.166 11.3379 8.23242C11.3379 6.33789 9.76562 4.84375 8.05664 4.84375C8.02489 4.84375 7.99302 4.84375 7.96065 4.84382L8.35938 4.46289C8.45703 4.36523 8.51562 4.22852 8.51562 4.08203C8.51562 3.7793 8.28125 3.53516 7.97852 3.53516C7.83203 3.53516 7.68555 3.61328 7.59766 3.70117L6.15234 5.13672C6.04492 5.22461 5.99609 5.37109 5.99609 5.50781C5.99609 5.6543 6.04492 5.80078 6.15234 5.88867L7.59766 7.32422C7.69531 7.42188 7.83203 7.48047 7.97852 7.48047C8.28125 7.48047 8.51562 7.24609 8.51562 6.94336C8.51562 6.79688 8.45703 6.66016 8.35938 6.5625L7.77199 5.99609C7.80815 5.99609 7.84451 5.99609 7.88086 5.99609C9.14062 5.99609 10.1465 7.00195 10.1465 8.26172Z" fill="white" fill-opacity="0.85"/>
 </g>
</svg>
