<?xml version="1.0" encoding="UTF-8"?>
<!--Generator: Apple Native CoreSVG 341-->
<!DOCTYPE svg
PUBLIC "-//W3C//DTD SVG 1.1//EN"
       "http://www.w3.org/Graphics/SVG/1.1/DTD/svg11.dtd">
<svg version="1.1" xmlns="http://www.w3.org/2000/svg" xmlns:xlink="http://www.w3.org/1999/xlink" viewBox="0 0 18.4766 14.248">
 <g>
  <rect height="14.248" opacity="0" width="18.4766" x="0" y="0"/>
  <path d="M2.49023 14.248L15.625 14.248C17.2949 14.248 18.1152 13.4277 18.1152 11.7871L18.1152 2.4707C18.1152 0.830078 17.2949 0.00976562 15.625 0.00976562L2.49023 0.00976562C0.830078 0.00976562 0 0.830078 0 2.4707L0 11.7871C0 13.4277 0.830078 14.248 2.49023 14.248ZM2.50977 12.832C1.80664 12.832 1.40625 12.4512 1.40625 11.7188L1.40625 2.53906C1.40625 1.79688 1.80664 1.42578 2.50977 1.42578L15.6055 1.42578C16.3086 1.42578 16.709 1.79688 16.709 2.53906L16.709 11.7188C16.709 12.4512 16.3086 12.832 15.6055 12.832Z" fill="white" fill-opacity="0.85"/>
  <path d="M8.11523 11.5234C8.47656 11.5234 8.73047 11.2402 8.73047 10.8496L8.73047 7.92969C8.73047 7.44141 8.45703 7.23633 8.02734 7.23633L5.07812 7.23633C4.69727 7.23633 4.43359 7.48047 4.43359 7.85156C4.43359 8.22266 4.69727 8.4668 5.09766 8.4668L5.88867 8.4668L7.73438 8.24219L7.5 10.0879L7.5 10.8691C7.5 11.2598 7.74414 11.5234 8.11523 11.5234ZM4.86328 11.6992C5.05859 11.6992 5.20508 11.6309 5.33203 11.5137L6.61133 10.2246L7.72461 9.04297C8.34961 8.37891 7.57812 7.65625 6.93359 8.24219L5.73242 9.3457L4.44336 10.6348C4.33594 10.752 4.24805 10.918 4.24805 11.084C4.24805 11.4551 4.50195 11.6992 4.86328 11.6992ZM10.0098 2.73438C9.63867 2.73438 9.39453 3.01758 9.39453 3.39844L9.39453 6.32812C9.39453 6.81641 9.66797 7.02148 10.0879 7.02148L13.0469 7.02148C13.418 7.02148 13.6816 6.76758 13.6816 6.40625C13.6816 6.03516 13.418 5.79102 13.0273 5.79102L12.2266 5.79102L10.3809 6.01562L10.6152 4.16992L10.6152 3.38867C10.6152 2.99805 10.3711 2.73438 10.0098 2.73438ZM13.2617 2.55859C13.0664 2.55859 12.9102 2.62695 12.793 2.74414L11.5039 4.0332L10.4004 5.21484C9.76562 5.87891 10.5371 6.60156 11.1914 6.01562L12.3926 4.91211L13.6719 3.62305C13.7891 3.50586 13.877 3.33984 13.877 3.17383C13.877 2.80273 13.623 2.55859 13.2617 2.55859Z" fill="white" fill-opacity="0.85"/>
 </g>
</svg>
