<svg version="1.1" xmlns="http://www.w3.org/2000/svg" xmlns:xlink="http://www.w3.org/1999/xlink" viewBox="0 0 14.5898 14.248">
 <g>
  <rect height="14.248" opacity="0" width="14.5898" x="0" y="0"/>
  <path d="M2.49023 14.248L11.7383 14.248C13.4082 14.248 14.2285 13.4277 14.2285 11.7871L14.2285 2.4707C14.2285 0.830078 13.4082 0.00976562 11.7383 0.00976562L2.49023 0.00976562C0.830078 0.00976562 0 0.830078 0 2.4707L0 11.7871C0 13.4277 0.830078 14.248 2.49023 14.248Z" fill="var(--color-tertiary)"/>
  <path d="M2.08008 7.11914C2.08008 7.32422 2.16797 7.49023 2.33398 7.65625L4.60938 9.93164C4.7168 10.0488 4.89258 10.1172 5.07812 10.1172C5.43945 10.1172 5.72266 9.82422 5.72266 9.45312C5.72266 9.25781 5.6543 9.0918 5.53711 8.97461L5.01953 8.47656L3.29102 7.11914L5.01953 5.76172L5.53711 5.26367C5.6543 5.14648 5.72266 4.98047 5.72266 4.78516C5.72266 4.41406 5.43945 4.12109 5.07812 4.12109C4.89258 4.12109 4.70703 4.19922 4.60938 4.30664L2.33398 6.58203C2.16797 6.74805 2.08008 6.91406 2.08008 7.11914ZM11.6309 7.11914C11.6309 6.78711 11.3672 6.5332 11.0352 6.52344L8.38867 6.44531L5.87891 6.44531L3.24219 6.52344C2.90039 6.5332 2.63672 6.78711 2.63672 7.11914C2.63672 7.45117 2.90039 7.70508 3.24219 7.71484L5.87891 7.79297L8.38867 7.79297L11.0352 7.71484C11.3672 7.70508 11.6309 7.45117 11.6309 7.11914ZM12.1875 7.11914C12.1875 6.91406 12.0996 6.74805 11.9336 6.58203L9.6582 4.30664C9.56055 4.19922 9.38477 4.12109 9.18945 4.12109C8.82812 4.12109 8.54492 4.41406 8.54492 4.78516C8.54492 4.98047 8.61328 5.14648 8.73047 5.26367L9.24805 5.76172L10.9766 7.11914L9.24805 8.47656L8.73047 8.97461C8.61328 9.0918 8.54492 9.25781 8.54492 9.45312C8.54492 9.82422 8.82812 10.1172 9.18945 10.1172C9.38477 10.1172 9.55078 10.0488 9.6582 9.93164L11.9336 7.65625C12.0996 7.49023 12.1875 7.32422 12.1875 7.11914Z" fill="var(--color-primary)"/>
 </g>
</svg>
