<?xml version="1.0" encoding="UTF-8"?>
<!--Generator: Apple Native CoreSVG 341-->
<!DOCTYPE svg
PUBLIC "-//W3C//DTD SVG 1.1//EN"
       "http://www.w3.org/Graphics/SVG/1.1/DTD/svg11.dtd">
<svg version="1.1" xmlns="http://www.w3.org/2000/svg" xmlns:xlink="http://www.w3.org/1999/xlink" viewBox="0 0 13.3691 16.4746">
 <g>
  <rect height="16.4746" opacity="0" width="13.3691" x="0" y="0"/>
  <path d="M2.45117 16.4648L10.5469 16.4648C12.1875 16.4648 13.0078 15.6348 13.0078 13.9746L13.0078 7.16797C13.0078 6.09375 12.8906 5.625 12.2168 4.93164L8.16406 0.791016C7.5293 0.136719 7.00195 0 6.06445 0L2.45117 0C0.810547 0 0 0.830078 0 2.49023L0 13.9746C0 15.6445 0.810547 16.4648 2.45117 16.4648ZM2.51953 15.0586C1.78711 15.0586 1.40625 14.6582 1.40625 13.9551L1.40625 2.50977C1.40625 1.80664 1.78711 1.40625 2.5293 1.40625L5.82031 1.40625L5.82031 5.75195C5.82031 6.76758 6.33789 7.28516 7.35352 7.28516L11.5918 7.28516L11.5918 13.9551C11.5918 14.6582 11.2109 15.0586 10.4785 15.0586ZM7.51953 5.9668C7.24609 5.9668 7.12891 5.84961 7.12891 5.57617L7.12891 1.66992L11.3281 5.9668Z" fill="white" fill-opacity="0.425"/>
  <path d="M4.31641 11.0449C3.95508 11.0449 3.70117 11.2891 3.70117 11.6406C3.70117 11.8164 3.76953 11.9727 3.90625 12.0898L6.04492 14.0137C6.23047 14.1797 6.35742 14.2383 6.5332 14.2383C6.69922 14.2383 6.83594 14.1797 7.02148 14.0137L9.15039 12.0898C9.28711 11.9727 9.35547 11.8164 9.35547 11.6406C9.35547 11.2891 9.0918 11.0449 8.74023 11.0449C8.57422 11.0449 8.4082 11.1133 8.28125 11.2402L7.57812 11.9531L6.64062 12.9297L6.41602 12.9297L5.47852 11.9531L4.77539 11.2402C4.6582 11.1133 4.47266 11.0449 4.31641 11.0449ZM6.5332 8.13477C6.17188 8.13477 5.85938 8.42773 5.85938 8.7793L5.85938 11.2598L5.95703 13.0957C5.99609 13.8379 7.07031 13.8379 7.09961 13.0957L7.19727 11.2598L7.19727 8.7793C7.19727 8.42773 6.88477 8.13477 6.5332 8.13477Z" fill="white" fill-opacity="0.85"/>
 </g>
</svg>
