<svg version="1.1" xmlns="http://www.w3.org/2000/svg" xmlns:xlink="http://www.w3.org/1999/xlink" viewBox="0 0 14.5898 14.248">
 <g>
  <rect height="14.248" opacity="0" width="14.5898" x="0" y="0"/>
  <path d="M2.49023 14.248L11.7383 14.248C13.4082 14.248 14.2285 13.4277 14.2285 11.7871L14.2285 2.4707C14.2285 0.830078 13.4082 0.00976562 11.7383 0.00976562L2.49023 0.00976562C0.830078 0.00976562 0 0.830078 0 2.4707L0 11.7871C0 13.4277 0.830078 14.248 2.49023 14.248ZM2.50977 12.832C1.80664 12.832 1.40625 12.4512 1.40625 11.7188L1.40625 2.53906C1.40625 1.79688 1.80664 1.42578 2.50977 1.42578L11.7188 1.42578C12.4219 1.42578 12.8223 1.79688 12.8223 2.53906L12.8223 11.7188C12.8223 12.4512 12.4219 12.832 11.7188 12.832Z" fill="var(--color-secondary)"/>
  <path d="M2.24609 7.13867C2.24609 7.33398 2.33398 7.49023 2.5 7.65625L4.67773 9.84375C4.79492 9.96094 4.95117 10.0293 5.13672 10.0293C5.48828 10.0293 5.76172 9.74609 5.76172 9.38477C5.76172 9.19922 5.69336 9.04297 5.57617 8.92578L5.07812 8.44727L3.41797 7.13867L5.07812 5.83008L5.57617 5.35156C5.69336 5.23438 5.76172 5.07812 5.76172 4.88281C5.76172 4.53125 5.48828 4.24805 5.13672 4.24805C4.95117 4.24805 4.78516 4.32617 4.67773 4.42383L2.5 6.62109C2.33398 6.77734 2.24609 6.94336 2.24609 7.13867ZM11.4453 7.13867C11.4453 6.81641 11.1914 6.57227 10.8691 6.5625L8.32031 6.48438L5.9082 6.48438L3.35938 6.5625C3.03711 6.57227 2.7832 6.81641 2.7832 7.13867C2.7832 7.46094 3.03711 7.70508 3.35938 7.71484L5.9082 7.7832L8.32031 7.7832L10.8691 7.71484C11.1914 7.70508 11.4453 7.46094 11.4453 7.13867ZM11.9922 7.13867C11.9922 6.94336 11.8945 6.77734 11.7383 6.62109L9.55078 4.42383C9.44336 4.32617 9.27734 4.24805 9.10156 4.24805C8.74023 4.24805 8.4668 4.53125 8.4668 4.88281C8.4668 5.07812 8.53516 5.23438 8.66211 5.35156L9.15039 5.83008L10.8203 7.13867L9.15039 8.44727L8.66211 8.92578C8.53516 9.04297 8.4668 9.19922 8.4668 9.38477C8.4668 9.74609 8.74023 10.0293 9.10156 10.0293C9.27734 10.0293 9.43359 9.96094 9.55078 9.84375L11.7383 7.65625C11.8945 7.49023 11.9922 7.33398 11.9922 7.13867Z" fill="var(--color-primary)"/>
 </g>
</svg>
