<?xml version="1.0" encoding="UTF-8"?>
<!--Generator: Apple Native CoreSVG 341-->
<!DOCTYPE svg
PUBLIC "-//W3C//DTD SVG 1.1//EN"
       "http://www.w3.org/Graphics/SVG/1.1/DTD/svg11.dtd">
<svg version="1.1" xmlns="http://www.w3.org/2000/svg" xmlns:xlink="http://www.w3.org/1999/xlink" viewBox="0 0 9.93164 15.2832">
 <g>
  <rect height="15.2832" opacity="0" width="9.93164" x="0" y="0"/>
  <path d="M4.78516 0C4.57031 0 4.36523 0.0878906 4.19922 0.263672L0.244141 4.32617C0.0976562 4.47266 0 4.70703 0 4.90234C0 5.37109 0.322266 5.67383 0.78125 5.67383C1.00586 5.67383 1.17188 5.60547 1.30859 5.45898L2.92969 3.7793L4.78516 1.54297L6.65039 3.7793L8.26172 5.45898C8.39844 5.60547 8.56445 5.67383 8.78906 5.67383C9.24805 5.67383 9.57031 5.37109 9.57031 4.90234C9.57031 4.70703 9.48242 4.47266 9.32617 4.32617L5.37109 0.263672C5.20508 0.0878906 5 0 4.78516 0ZM4.78516 14.6484C5.16602 14.6484 5.46875 14.3457 5.47852 13.9551L5.57617 11.0742L5.57617 4.19922L5.47852 1.31836C5.46875 0.927734 5.16602 0.625 4.78516 0.625C4.4043 0.625 4.10156 0.927734 4.0918 1.31836L3.99414 4.19922L3.99414 11.0742L4.0918 13.9551C4.10156 14.3457 4.4043 14.6484 4.78516 14.6484ZM4.78516 15.2734C5 15.2734 5.20508 15.1855 5.37109 15.0098L9.32617 10.9473C9.48242 10.8008 9.57031 10.5664 9.57031 10.3809C9.57031 9.91211 9.24805 9.59961 8.78906 9.59961C8.56445 9.59961 8.39844 9.67773 8.26172 9.81445L6.65039 11.4941L4.78516 13.7305L2.92969 11.4941L1.30859 9.81445C1.17188 9.67773 1.00586 9.59961 0.78125 9.59961C0.322266 9.59961 0 9.91211 0 10.3809C0 10.5664 0.0976562 10.8008 0.244141 10.9473L4.19922 15.0098C4.36523 15.1855 4.57031 15.2734 4.78516 15.2734Z" fill="white" fill-opacity="0.85"/>
 </g>
</svg>
