<?xml version="1.0" encoding="UTF-8"?>
<!--Generator: Apple Native CoreSVG 341-->
<!DOCTYPE svg
PUBLIC "-//W3C//DTD SVG 1.1//EN"
       "http://www.w3.org/Graphics/SVG/1.1/DTD/svg11.dtd">
<svg version="1.1" xmlns="http://www.w3.org/2000/svg" xmlns:xlink="http://www.w3.org/1999/xlink" viewBox="0 0 14.5898 14.248">
 <g>
  <rect height="14.248" opacity="0" width="14.5898" x="0" y="0"/>
  <path d="M2.49023 14.248L11.7383 14.248C13.4082 14.248 14.2285 13.4277 14.2285 11.7871L14.2285 2.4707C14.2285 0.830078 13.4082 0.00976562 11.7383 0.00976562L2.49023 0.00976562C0.830078 0.00976562 0 0.830078 0 2.4707L0 11.7871C0 13.4277 0.830078 14.248 2.49023 14.248Z" fill="white" fill-opacity="0.2125"/>
  <path d="M8.14453 2.71484C7.91016 2.48047 7.56836 2.48047 7.33398 2.71484L3.87695 6.16211L3.29102 6.78711C3.08594 7.00195 3.07617 7.35352 3.29102 7.57812C3.50586 7.79297 3.85742 7.77344 4.07227 7.57812L4.69727 6.99219L8.1543 3.53516C8.38867 3.30078 8.37891 2.94922 8.14453 2.71484ZM6.25 8.125C6.49414 7.89062 6.50391 7.56836 6.25977 7.32422C6.15234 7.20703 6.01562 7.1582 5.85938 7.1582L4.79492 7.17773L3.57422 7.26562L3.70117 6.10352L3.7207 5.0293C3.73047 4.87305 3.67188 4.72656 3.55469 4.61914C3.32031 4.375 2.98828 4.375 2.74414 4.61914C2.63672 4.7168 2.57812 4.89258 2.57812 5.03906L2.53906 7.72461C2.5293 8.06641 2.82227 8.34961 3.14453 8.34961L5.84961 8.31055C5.99609 8.31055 6.16211 8.22266 6.25 8.125ZM6.05469 11.5234C6.28906 11.7578 6.64062 11.7676 6.875 11.5332L10.3418 8.07617L10.9277 7.44141C11.1328 7.22656 11.1426 6.875 10.9277 6.66016C10.7031 6.43555 10.3613 6.44531 10.1367 6.66016L9.50195 7.25586L6.05469 10.7129C5.82031 10.9473 5.82031 11.2891 6.05469 11.5234ZM11.4746 9.62891C11.5723 9.54102 11.6602 9.375 11.6602 9.20898L11.6992 6.52344C11.6992 6.19141 11.4062 5.89844 11.084 5.89844L8.38867 5.94727C8.23242 5.94727 8.07617 6.02539 7.96875 6.12305C7.72461 6.35742 7.72461 6.67969 7.96875 6.92383C8.07617 7.04102 8.22266 7.10938 8.37891 7.09961L9.44336 7.08008L10.625 6.95312L10.5273 8.1543L10.498 9.22852C10.498 9.38477 10.5566 9.51172 10.6738 9.63867C10.918 9.87305 11.2305 9.87305 11.4746 9.62891Z" fill="white" fill-opacity="0.85"/>
 </g>
</svg>
