<?xml version="1.0" encoding="UTF-8"?>
<!--Generator: Apple Native CoreSVG 341-->
<!DOCTYPE svg
PUBLIC "-//W3C//DTD SVG 1.1//EN"
       "http://www.w3.org/Graphics/SVG/1.1/DTD/svg11.dtd">
<svg version="1.1" xmlns="http://www.w3.org/2000/svg" xmlns:xlink="http://www.w3.org/1999/xlink" viewBox="0 0 17.7641 17.4121">
 <g>
  <rect height="17.4121" opacity="0" width="17.7641" x="0" y="0"/>
  <path d="M1.79707 7.29492C1.51387 7.03125 1.16231 7.08008 0.95723 7.29492C0.761917 7.49023 0.703324 7.83203 0.95723 8.13477L2.63692 10.0977L9.717 17.1777C10.0295 17.4902 10.4982 17.4902 10.8303 17.1777C11.1525 16.8457 11.1525 16.377 10.8303 16.0547L3.75996 8.98438ZM1.64082 12.7441L1.592 10.5664L1.32832 7.66602L4.21895 7.93945L6.38692 7.98828C6.60176 7.98828 6.76778 7.91992 6.92403 7.76367C7.25606 7.43164 7.25606 6.99219 6.92403 6.65039C6.79707 6.52344 6.5627 6.42578 6.34785 6.42578L0.830277 6.34766C0.341995 6.33789-0.00956712 6.69922 0.00019851 7.17773L0.0783235 12.6953C0.0783235 12.9102 0.17598 13.1348 0.312699 13.2715C0.64473 13.6035 1.08418 13.6035 1.41621 13.2715C1.57246 13.1152 1.64082 12.9395 1.64082 12.7441Z" fill="white" fill-opacity="0.85"/>
  <path d="M16.4553 9.25781L14.7561 7.30469L7.68575 0.234375C7.36348-0.078125 6.89473-0.078125 6.57246 0.234375C6.2502 0.566406 6.2502 1.03516 6.57246 1.34766L13.6428 8.42773L15.6057 10.1074C15.9084 10.3613 16.2502 10.3125 16.4553 10.1074C16.6604 9.90234 16.7189 9.56055 16.4553 9.25781ZM11.0061 9.42383C10.801 9.42383 10.6252 9.49219 10.4689 9.64844C10.1467 9.98047 10.1467 10.4199 10.4689 10.7617C10.6057 10.8887 10.84 10.9863 11.0451 10.9863L16.5627 11.0645C17.0412 11.0742 17.4025 10.7227 17.3928 10.2344L17.3147 4.7168C17.3147 4.50195 17.2268 4.26758 17.09 4.14062C16.7482 3.80859 16.3088 3.80859 15.9865 4.14062C15.8205 4.29688 15.7619 4.47266 15.7619 4.66797L15.801 6.8457L16.0744 9.74609L13.174 9.47266Z" fill="white" fill-opacity="0.85"/>
 </g>
</svg>
