<?xml version="1.0" encoding="UTF-8"?>
<!--Generator: Apple Native CoreSVG 341-->
<!DOCTYPE svg
PUBLIC "-//W3C//DTD SVG 1.1//EN"
       "http://www.w3.org/Graphics/SVG/1.1/DTD/svg11.dtd">
<svg version="1.1" xmlns="http://www.w3.org/2000/svg" xmlns:xlink="http://www.w3.org/1999/xlink" viewBox="0 0 18.5645 14.248">
 <g>
  <rect height="14.248" opacity="0" width="18.5645" x="0" y="0"/>
  <path d="M15.5371 11.9043C15.3027 13.4375 14.6973 14.248 13.1543 14.248L5.04883 14.248C3.50586 14.248 2.90039 13.4375 2.66602 11.9043L1.58203 4.66797L16.6113 4.66797ZM8.62305 6.33789L6.40625 8.34961C6.26953 8.4668 6.19141 8.62305 6.19141 8.80859C6.19141 9.17969 6.45508 9.43359 6.83594 9.43359C7.00195 9.43359 7.17773 9.35547 7.31445 9.22852L8.04688 8.48633L8.49891 8.01146L8.4375 9.20898L8.4375 11.7773C8.4375 12.1484 8.75 12.4512 9.13086 12.4512C9.50195 12.4512 9.82422 12.1484 9.82422 11.7773L9.82422 9.20898L9.75657 8.00972L10.2148 8.48633L10.9473 9.22852C11.0742 9.35547 11.25 9.43359 11.4258 9.43359C11.7871 9.43359 12.0605 9.17969 12.0605 8.80859C12.0605 8.62305 11.9824 8.4668 11.8555 8.34961L9.63867 6.33789C9.44336 6.17188 9.30664 6.11328 9.13086 6.11328C8.94531 6.11328 8.81836 6.17188 8.62305 6.33789ZM18.2031 1.44531L18.2031 2.08984C18.2031 2.99805 17.7539 3.52539 16.8457 3.52539L1.35742 3.52539C0.449219 3.52539 0 2.99805 0 2.08984L0 1.44531C0 0.546875 0.498047 0.00976562 1.35742 0.00976562L16.8457 0.00976562C17.7539 0.00976562 18.2031 0.546875 18.2031 1.44531Z" fill="white" fill-opacity="0.85"/>
 </g>
</svg>
