<?xml version="1.0" encoding="UTF-8"?>
<!--Generator: Apple Native CoreSVG 341-->
<!DOCTYPE svg
PUBLIC "-//W3C//DTD SVG 1.1//EN"
       "http://www.w3.org/Graphics/SVG/1.1/DTD/svg11.dtd">
<svg version="1.1" xmlns="http://www.w3.org/2000/svg" xmlns:xlink="http://www.w3.org/1999/xlink" viewBox="0 0 16.1328 15.7715">
 <g>
  <rect height="15.7715" opacity="0" width="16.1328" x="0" y="0"/>
  <path d="M15.7715 7.88086C15.7715 12.2266 12.2363 15.7617 7.88086 15.7617C3.53516 15.7617 0 12.2266 0 7.88086C0 3.53516 3.53516 0 7.88086 0C12.2363 0 15.7715 3.53516 15.7715 7.88086ZM9.31641 5.54688C9.31641 5.74219 9.375 5.9082 9.50195 6.02539L10.0195 6.52344L10.958 7.26039L9.15039 7.20703L6.65039 7.20703L4.85297 7.26009L5.79102 6.52344L6.30859 6.02539C6.42578 5.9082 6.49414 5.74219 6.49414 5.54688C6.49414 5.17578 6.21094 4.88281 5.84961 4.88281C5.6543 4.88281 5.47852 4.96094 5.37109 5.06836L3.10547 7.34375C2.93945 7.50977 2.8418 7.67578 2.8418 7.88086C2.8418 8.08594 2.93945 8.25195 3.10547 8.41797L5.37109 10.6934C5.48828 10.8105 5.6543 10.8789 5.84961 10.8789C6.21094 10.8789 6.49414 10.5859 6.49414 10.2148C6.49414 10.0195 6.42578 9.85352 6.30859 9.73633L5.79102 9.23828L4.85297 8.50163L6.65039 8.55469L9.15039 8.55469L10.958 8.50133L10.0195 9.23828L9.50195 9.73633C9.375 9.85352 9.31641 10.0195 9.31641 10.2148C9.31641 10.5859 9.58984 10.8789 9.96094 10.8789C10.1465 10.8789 10.3223 10.8105 10.4297 10.6934L12.6953 8.41797C12.8711 8.25195 12.959 8.08594 12.959 7.88086C12.959 7.67578 12.8711 7.50977 12.6953 7.34375L10.4297 5.06836C10.3223 4.96094 10.1465 4.88281 9.96094 4.88281C9.58984 4.88281 9.31641 5.17578 9.31641 5.54688Z" fill="white" fill-opacity="0.85"/>
 </g>
</svg>
