<?xml version="1.0" encoding="UTF-8"?>
<!--Generator: Apple Native CoreSVG 341-->
<!DOCTYPE svg
PUBLIC "-//W3C//DTD SVG 1.1//EN"
       "http://www.w3.org/Graphics/SVG/1.1/DTD/svg11.dtd">
<svg version="1.1" xmlns="http://www.w3.org/2000/svg" xmlns:xlink="http://www.w3.org/1999/xlink" viewBox="0 0 16.1328 15.7715">
 <g>
  <rect height="15.7715" opacity="0" width="16.1328" x="0" y="0"/>
  <path d="M7.88086 15.7617C12.2363 15.7617 15.7715 12.2266 15.7715 7.88086C15.7715 3.53516 12.2363 0 7.88086 0C3.53516 0 0 3.53516 0 7.88086C0 12.2266 3.53516 15.7617 7.88086 15.7617Z" fill="white" fill-opacity="0.2125"/>
  <path d="M7.90039 2.82227C7.69531 2.82227 7.5293 2.91992 7.37305 3.08594L5.08789 5.35156C4.98047 5.45898 4.90234 5.63477 4.90234 5.82031C4.90234 6.19141 5.19531 6.47461 5.56641 6.47461C5.77148 6.47461 5.92773 6.40625 6.04492 6.2793L6.54297 5.77148L7.90039 4.04297L9.25781 5.77148L9.75586 6.2793C9.88281 6.40625 10.0391 6.47461 10.2344 6.47461C10.6152 6.47461 10.8984 6.19141 10.8984 5.82031C10.8984 5.63477 10.8398 5.46875 10.7129 5.35156L8.4375 3.08594C8.28125 2.91992 8.10547 2.82227 7.90039 2.82227ZM7.90039 12.3828C8.23242 12.3828 8.48633 12.1191 8.49609 11.7773L8.58398 9.13086L8.58398 6.63086L8.49609 3.98438C8.48633 3.64258 8.23242 3.37891 7.90039 3.37891C7.57812 3.37891 7.32422 3.64258 7.31445 3.98438L7.22656 6.63086L7.22656 9.13086L7.31445 11.7773C7.32422 12.1191 7.57812 12.3828 7.90039 12.3828ZM7.90039 12.9395C8.10547 12.9395 8.28125 12.8418 8.4375 12.6758L10.7129 10.4102C10.8398 10.293 10.8984 10.127 10.8984 9.94141C10.8984 9.57031 10.6152 9.28711 10.2344 9.28711C10.0391 9.28711 9.88281 9.35547 9.75586 9.48242L9.25781 9.99023L7.90039 11.7188L6.54297 9.99023L6.04492 9.48242C5.92773 9.35547 5.77148 9.28711 5.56641 9.28711C5.19531 9.28711 4.90234 9.57031 4.90234 9.94141C4.90234 10.127 4.98047 10.3027 5.08789 10.4102L7.37305 12.6758C7.5293 12.8418 7.69531 12.9395 7.90039 12.9395Z" fill="white" fill-opacity="0.85"/>
 </g>
</svg>
