<svg version="1.1" xmlns="http://www.w3.org/2000/svg" xmlns:xlink="http://www.w3.org/1999/xlink" viewBox="0 0 13.3691 16.4746">
 <g>
  <rect height="16.4746" opacity="0" width="13.3691" x="0" y="0"/>
  <path d="M2.45117 16.4648L10.5469 16.4648C12.1875 16.4648 13.0078 15.6348 13.0078 13.9746L13.0078 7.19727L7.42188 7.19727C6.38672 7.19727 5.89844 6.70898 5.89844 5.67383L5.89844 0L2.45117 0C0.810547 0 0 0.830078 0 2.49023L0 13.9746C0 15.6445 0.810547 16.4648 2.45117 16.4648ZM7.42188 6.05469L12.9199 6.05469C12.8711 5.69336 12.627 5.35156 12.2168 4.93164L8.16406 0.791016C7.76367 0.380859 7.40234 0.126953 7.04102 0.0683594L7.04102 5.67383C7.04102 5.92773 7.17773 6.05469 7.42188 6.05469Z" fill="var(--color-tertiary)"/>
  <path d="M4.22852 11.8555C4.4043 11.8555 4.58008 11.7773 4.7168 11.6504L5.43945 10.9082L6.41602 9.89258L6.64062 9.89258L7.61719 10.9082L8.34961 11.6504C8.47656 11.7773 8.64258 11.8555 8.82812 11.8555C9.17969 11.8555 9.46289 11.6016 9.46289 11.2305C9.46289 11.0449 9.38477 10.8887 9.25781 10.7715L7.04102 8.76953C6.83594 8.59375 6.70898 8.53516 6.5332 8.53516C6.34766 8.53516 6.2207 8.59375 6.02539 8.76953L3.80859 10.7715C3.67188 10.8887 3.59375 11.0449 3.59375 11.2305C3.59375 11.6016 3.85742 11.8555 4.22852 11.8555ZM6.5332 14.873C6.9043 14.873 7.22656 14.5703 7.22656 14.1992L7.22656 11.6309L7.11914 9.72656C7.08008 8.94531 5.97656 8.94531 5.9375 9.72656L5.83008 11.6309L5.83008 14.1992C5.83008 14.5703 6.15234 14.873 6.5332 14.873Z" fill="var(--color-primary)"/>
 </g>
</svg>
