<?xml version="1.0" encoding="UTF-8"?>
<!--Generator: Apple Native CoreSVG 341-->
<!DOCTYPE svg
PUBLIC "-//W3C//DTD SVG 1.1//EN"
       "http://www.w3.org/Graphics/SVG/1.1/DTD/svg11.dtd">
<svg version="1.1" xmlns="http://www.w3.org/2000/svg" xmlns:xlink="http://www.w3.org/1999/xlink" viewBox="0 0 16.1328 15.7715">
 <g>
  <rect height="15.7715" opacity="0" width="16.1328" x="0" y="0"/>
  <path d="M7.88086 15.7617C12.2363 15.7617 15.7715 12.2363 15.7715 7.88086C15.7715 3.52539 12.2363 0 7.88086 0C3.53516 0 0 3.52539 0 7.88086C0 12.2363 3.53516 15.7617 7.88086 15.7617ZM7.88086 14.2773C4.3457 14.2773 1.49414 11.416 1.49414 7.88086C1.49414 4.3457 4.3457 1.48438 7.88086 1.48438C11.416 1.48438 14.2773 4.3457 14.2773 7.88086C14.2773 11.416 11.416 14.2773 7.88086 14.2773Z" fill="white" fill-opacity="0.425"/>
  <path d="M4.6875 11.3379C5.00977 11.3379 5.25391 11.0938 5.25391 10.7617L5.25391 5C5.25391 4.6582 5.00977 4.42383 4.6875 4.42383C4.3457 4.42383 4.10156 4.6582 4.10156 5L4.10156 10.7617C4.10156 11.0938 4.3457 11.3379 4.6875 11.3379ZM12.793 7.89062C12.793 7.55859 12.5488 7.31445 12.2168 7.31445L8.88672 7.31445L7.5 7.41211L9.07227 6.04492L9.44336 5.68359C9.55078 5.57617 9.59961 5.41992 9.59961 5.27344C9.59961 4.95117 9.3457 4.72656 9.0332 4.72656C8.88672 4.72656 8.74023 4.76562 8.61328 4.89258L5.99609 7.46094C5.87891 7.57812 5.80078 7.73438 5.80078 7.89062C5.80078 8.04688 5.86914 8.20312 5.99609 8.32031L8.61328 10.8594C8.7207 10.9668 8.90625 11.0352 9.04297 11.0352C9.36523 11.0352 9.59961 10.8105 9.59961 10.4785C9.59961 10.3125 9.55078 10.1758 9.44336 10.0684L9.07227 9.74609L7.49023 8.36914L8.88672 8.47656L12.2168 8.47656C12.5488 8.47656 12.793 8.24219 12.793 7.89062Z" fill="white" fill-opacity="0.85"/>
 </g>
</svg>
