<?xml version="1.0" encoding="UTF-8"?>
<!--Generator: Apple Native CoreSVG 341-->
<!DOCTYPE svg
PUBLIC "-//W3C//DTD SVG 1.1//EN"
       "http://www.w3.org/Graphics/SVG/1.1/DTD/svg11.dtd">
<svg version="1.1" xmlns="http://www.w3.org/2000/svg" xmlns:xlink="http://www.w3.org/1999/xlink" viewBox="0 0 13.916 11.7285">
 <g>
  <rect height="11.7285" opacity="0" width="13.916" x="0" y="0"/>
  <path d="M12.7734 11.7188C13.2324 11.7188 13.5547 11.4062 13.5547 10.957L13.5547 0.78125C13.5547 0.322266 13.2324 0 12.7734 0C12.3145 0 11.9824 0.322266 11.9824 0.78125L11.9824 10.957C11.9824 11.4062 12.3145 11.7188 12.7734 11.7188ZM5.33203 0.761719C5.33203 0.966797 5.41016 1.17188 5.54688 1.30859L6.9043 2.70508L10.3906 5.85938L6.9043 9.01367L5.54688 10.4102C5.41016 10.5469 5.33203 10.752 5.33203 10.957C5.33203 11.3965 5.66406 11.7188 6.10352 11.7188C6.30859 11.7188 6.49414 11.6406 6.66992 11.4746L11.7188 6.44531C11.8945 6.2793 11.9824 6.07422 11.9824 5.85938C11.9824 5.64453 11.8945 5.43945 11.7188 5.27344L6.66992 0.244141C6.49414 0.078125 6.30859 0 6.10352 0C5.66406 0 5.33203 0.322266 5.33203 0.761719ZM10.5176 6.54297C10.8984 6.52344 11.2012 6.23047 11.2012 5.85938C11.2012 5.48828 10.8984 5.19531 10.5176 5.17578L7.96875 5.06836L0.78125 5.06836C0.322266 5.06836 0 5.40039 0 5.85938C0 6.31836 0.322266 6.65039 0.78125 6.65039L7.96875 6.65039Z" fill="white" fill-opacity="0.85"/>
 </g>
</svg>
