<?xml version="1.0" encoding="UTF-8"?>
<!--Generator: Apple Native CoreSVG 341-->
<!DOCTYPE svg
PUBLIC "-//W3C//DTD SVG 1.1//EN"
       "http://www.w3.org/Graphics/SVG/1.1/DTD/svg11.dtd">
<svg version="1.1" xmlns="http://www.w3.org/2000/svg" xmlns:xlink="http://www.w3.org/1999/xlink" viewBox="0 0 16.1328 15.7715">
 <g>
  <rect height="15.7715" opacity="0" width="16.1328" x="0" y="0"/>
  <path d="M7.88086 15.7617C12.2363 15.7617 15.7715 12.2266 15.7715 7.88086C15.7715 3.53516 12.2363 0 7.88086 0C3.53516 0 0 3.53516 0 7.88086C0 12.2266 3.53516 15.7617 7.88086 15.7617Z" fill="white" fill-opacity="0.2125"/>
  <path d="M7.89062 11.9141C8.29102 11.9141 8.61328 11.6016 8.61328 11.2109L8.61328 7.03125L8.55469 5.2832C8.54492 4.86328 8.21289 4.64844 7.89062 4.64844C7.57812 4.64844 7.25586 4.86328 7.23633 5.2832L7.16797 7.03125L7.16797 11.2109C7.16797 11.6016 7.5 11.9141 7.89062 11.9141ZM7.89062 3.84766C7.70508 3.84766 7.55859 3.90625 7.37305 4.0918L4.76562 6.57227C4.62891 6.70898 4.55078 6.85547 4.55078 7.05078C4.55078 7.42188 4.82422 7.68555 5.20508 7.68555C5.38086 7.68555 5.57617 7.61719 5.70312 7.4707L6.81641 6.25977L7.89062 5.10742L7.89062 5.10742L8.96484 6.25977L10.0879 7.4707C10.2051 7.61719 10.4004 7.68555 10.5762 7.68555C10.9473 7.68555 11.2305 7.42188 11.2305 7.05078C11.2305 6.85547 11.1621 6.70898 11.0156 6.57227L8.41797 4.0918C8.23242 3.90625 8.08594 3.84766 7.89062 3.84766Z" fill="white" fill-opacity="0.85"/>
 </g>
</svg>
