<?xml version="1.0" encoding="UTF-8"?>
<!--Generator: Apple Native CoreSVG 341-->
<!DOCTYPE svg
PUBLIC "-//W3C//DTD SVG 1.1//EN"
       "http://www.w3.org/Graphics/SVG/1.1/DTD/svg11.dtd">
<svg version="1.1" xmlns="http://www.w3.org/2000/svg" xmlns:xlink="http://www.w3.org/1999/xlink" viewBox="0 0 16.1328 15.7715">
 <g>
  <rect height="15.7715" opacity="0" width="16.1328" x="0" y="0"/>
  <path d="M15.7715 7.88086C15.7715 12.2266 12.2363 15.7617 7.88086 15.7617C3.53516 15.7617 0 12.2266 0 7.88086C0 3.53516 3.53516 0 7.88086 0C12.2363 0 15.7715 3.53516 15.7715 7.88086ZM7.16797 4.55078L7.16797 8.73047L7.21485 9.92938L6.81641 9.50195L5.70312 8.29102C5.57617 8.14453 5.38086 8.07617 5.20508 8.07617C4.82422 8.07617 4.55078 8.33984 4.55078 8.71094C4.55078 8.90625 4.62891 9.05273 4.76562 9.18945L7.37305 11.6699C7.55859 11.8555 7.70508 11.9141 7.89062 11.9141C8.08594 11.9141 8.23242 11.8555 8.41797 11.6699L11.0156 9.18945C11.1621 9.05273 11.2305 8.90625 11.2305 8.71094C11.2305 8.33984 10.9473 8.07617 10.5762 8.07617C10.4004 8.07617 10.2051 8.14453 10.0879 8.29102L8.96484 9.50195L8.57334 9.92193L8.61328 8.73047L8.61328 4.55078C8.61328 4.16016 8.29102 3.84766 7.89062 3.84766C7.5 3.84766 7.16797 4.16016 7.16797 4.55078Z" fill="white" fill-opacity="0.85"/>
 </g>
</svg>
