<svg version="1.1" xmlns="http://www.w3.org/2000/svg" xmlns:xlink="http://www.w3.org/1999/xlink" viewBox="0 0 14.5801 16.7285">
 <g>
  <rect height="16.7285" opacity="0" width="14.5801" x="0" y="0"/>
  <path d="M10.2148 14.8535L10.2148 5.42969C10.2148 4.26758 9.55078 3.58398 8.41797 3.58398L5.81055 3.58398C4.66797 3.58398 4.01367 4.26758 4.01367 5.42969L4.01367 14.8535C4.01367 16.0156 4.66797 16.6992 5.81055 16.6992L8.41797 16.6992C9.55078 16.6992 10.2148 16.0156 10.2148 14.8535ZM0.966797 8.57422L13.1934 8.57422C13.75 8.57422 14.2188 8.14453 14.2188 7.56836C14.2188 7.1582 14.043 6.89453 13.6133 6.42578L7.94922 0.380859C7.68555 0.107422 7.38281 0 7.10938 0C6.8457 0 6.5332 0.107422 6.2793 0.380859L0.546875 6.42578C0.166016 6.8457 0 7.17773 0 7.58789C0 8.14453 0.410156 8.57422 0.966797 8.57422Z" fill="var(--color-primary)"/>
 </g>
</svg>
