<?xml version="1.0" encoding="UTF-8"?>
<!--Generator: Apple Native CoreSVG 341-->
<!DOCTYPE svg
PUBLIC "-//W3C//DTD SVG 1.1//EN"
       "http://www.w3.org/Graphics/SVG/1.1/DTD/svg11.dtd">
<svg version="1.1" xmlns="http://www.w3.org/2000/svg" xmlns:xlink="http://www.w3.org/1999/xlink" viewBox="0 0 16.1328 15.7715">
 <g>
  <rect height="15.7715" opacity="0" width="16.1328" x="0" y="0"/>
  <path d="M7.88086 15.7617C12.2363 15.7617 15.7715 12.2363 15.7715 7.88086C15.7715 3.52539 12.2363 0 7.88086 0C3.53516 0 0 3.52539 0 7.88086C0 12.2363 3.53516 15.7617 7.88086 15.7617ZM7.88086 14.2773C4.3457 14.2773 1.49414 11.416 1.49414 7.88086C1.49414 4.3457 4.3457 1.48438 7.88086 1.48438C11.416 1.48438 14.2773 4.3457 14.2773 7.88086C14.2773 11.416 11.416 14.2773 7.88086 14.2773Z" fill="white" fill-opacity="0.85"/>
  <path d="M3.83789 6.38672C3.83789 6.5918 3.92578 6.75781 4.0625 6.9043L6.10352 8.98438C6.23047 9.11133 6.36719 9.16992 6.55273 9.16992C6.88477 9.16992 7.1582 8.89648 7.1582 8.53516C7.1582 8.37891 7.09961 8.20312 6.98242 8.0957L6.14258 7.30469L4.91211 6.40625L6.33789 5.30273L6.97266 4.6875C7.08008 4.58984 7.1582 4.42383 7.1582 4.24805C7.1582 3.88672 6.88477 3.61328 6.54297 3.61328C6.35742 3.61328 6.2207 3.67188 6.09375 3.80859L4.0625 5.86914C3.92578 6.00586 3.83789 6.19141 3.83789 6.38672ZM7.03125 11.2793C7.03125 11.6797 7.31445 11.9043 7.70508 11.9043L8.70117 11.9043C10.5176 11.9043 11.9043 10.7324 11.9043 8.82812C11.9043 6.92383 10.5273 5.78125 8.71094 5.78125L6.61133 5.78125L4.9707 5.81055C4.64844 5.82031 4.39453 6.06445 4.39453 6.37695C4.39453 6.69922 4.64844 6.94336 4.9707 6.95312L6.61133 7.00195L8.71094 7.00195C9.77539 7.00195 10.625 7.59766 10.625 8.75C10.625 9.94141 9.80469 10.6641 8.70117 10.6641L7.68555 10.6641C7.31445 10.6641 7.03125 10.8789 7.03125 11.2793Z" fill="white" fill-opacity="0.85"/>
 </g>
</svg>
