<?xml version="1.0" encoding="UTF-8"?>
<!--Generator: Apple Native CoreSVG 341-->
<!DOCTYPE svg
PUBLIC "-//W3C//DTD SVG 1.1//EN"
       "http://www.w3.org/Graphics/SVG/1.1/DTD/svg11.dtd">
<svg version="1.1" xmlns="http://www.w3.org/2000/svg" xmlns:xlink="http://www.w3.org/1999/xlink" viewBox="0 0 28.3398 18.2715">
 <g>
  <rect height="18.2715" opacity="0" width="28.3398" x="0" y="0"/>
  <path d="M11.2695 8.54492L16.6895 8.54492C17.5684 8.54492 18.2617 7.85156 18.2617 6.97266L18.2617 1.58203C18.2617 0.703125 17.5684 0 16.6895 0L11.2695 0C10.4004 0 9.7168 0.703125 9.7168 1.58203L9.7168 6.97266C9.7168 7.85156 10.4004 8.54492 11.2695 8.54492ZM1.55273 18.2617L6.98242 18.2617C7.85156 18.2617 8.54492 17.5684 8.54492 16.6895L8.54492 11.2988C8.54492 10.4199 7.85156 9.7168 6.98242 9.7168L1.55273 9.7168C0.683594 9.7168 0 10.4199 0 11.2988L0 16.6895C0 17.5684 0.683594 18.2617 1.55273 18.2617ZM11.2695 18.2617L16.6895 18.2617C17.5684 18.2617 18.2617 17.5684 18.2617 16.6895L18.2617 11.2988C18.2617 10.4199 17.5684 9.7168 16.6895 9.7168L11.2695 9.7168C10.4004 9.7168 9.7168 10.4199 9.7168 11.2988L9.7168 16.6895C9.7168 17.5684 10.4004 18.2617 11.2695 18.2617ZM20.9961 18.2617L26.416 18.2617C27.2949 18.2617 27.9785 17.5684 27.9785 16.6895L27.9785 11.2988C27.9785 10.4199 27.2949 9.7168 26.416 9.7168L20.9961 9.7168C20.1172 9.7168 19.4336 10.4199 19.4336 11.2988L19.4336 16.6895C19.4336 17.5684 20.1172 18.2617 20.9961 18.2617Z" fill="white" fill-opacity="0.2125"/>
  <path d="M12.2754 6.20117C11.9141 6.20117 11.6895 5.77148 11.8945 5.42969L13.5449 2.56836C13.7305 2.25586 14.2285 2.24609 14.4043 2.55859L16.084 5.42969C16.2891 5.77148 16.0547 6.20117 15.7031 6.20117ZM5.9082 15.6934C5.9082 16.0547 5.47852 16.2891 5.13672 16.084L2.27539 14.4238C1.95312 14.248 1.94336 13.75 2.26562 13.5645L5.13672 11.8945C5.47852 11.6895 5.9082 11.9141 5.9082 12.2754ZM13.5449 15.6934L11.8945 12.832C11.6895 12.4902 11.9141 12.0605 12.2754 12.0605L15.7031 12.0605C16.0547 12.0605 16.2891 12.4902 16.084 12.832L14.4043 15.7031C14.2285 16.0156 13.7305 16.0059 13.5449 15.6934ZM22.0703 15.6934L22.0703 12.2754C22.0703 11.9141 22.5 11.6895 22.8418 11.8945L25.7129 13.5645C26.0254 13.75 26.0156 14.248 25.7031 14.4238L22.8418 16.084C22.5 16.2891 22.0703 16.0547 22.0703 15.6934Z" fill="white" fill-opacity="0.85"/>
 </g>
</svg>
