<?xml version="1.0" encoding="UTF-8"?>
<!--Generator: Apple Native CoreSVG 341-->
<!DOCTYPE svg
PUBLIC "-//W3C//DTD SVG 1.1//EN"
       "http://www.w3.org/Graphics/SVG/1.1/DTD/svg11.dtd">
<svg version="1.1" xmlns="http://www.w3.org/2000/svg" xmlns:xlink="http://www.w3.org/1999/xlink" viewBox="0 0 16.1328 15.7715">
 <g>
  <rect height="15.7715" opacity="0" width="16.1328" x="0" y="0"/>
  <path d="M15.7715 7.88086C15.7715 12.2266 12.2363 15.7617 7.88086 15.7617C3.53516 15.7617 0 12.2266 0 7.88086C0 3.53516 3.53516 0 7.88086 0C12.2363 0 15.7715 3.53516 15.7715 7.88086ZM9.16016 6.70898C9.00391 6.70898 8.83789 6.78711 8.74023 6.88477C8.49609 7.11914 8.49609 7.44141 8.74023 7.68555C8.84766 7.80273 8.99414 7.87109 9.14062 7.86133L10.2051 7.8418L10.49 7.81119L10.2734 8.01758L6.82617 11.4746C6.5918 11.709 6.5918 12.0508 6.82617 12.2852C7.06055 12.5195 7.41211 12.5293 7.64648 12.2949L11.1133 8.83789L11.3213 8.6087L11.2988 8.91602L11.2695 9.99023C11.2695 10.1465 11.3281 10.2734 11.4355 10.4004C11.6797 10.6348 12.002 10.6348 12.2461 10.3906C12.3438 10.3027 12.4316 10.1367 12.4316 9.9707L12.4609 7.28516C12.4707 6.95312 12.168 6.66016 11.8555 6.66016ZM8.10547 3.47656L4.64844 6.92383L4.44223 7.14379L4.47266 6.86523L4.49219 5.79102C4.50195 5.63477 4.44336 5.48828 4.32617 5.38086C4.08203 5.13672 3.75977 5.13672 3.51562 5.38086C3.4082 5.47852 3.34961 5.6543 3.34961 5.80078L3.30078 8.48633C3.29102 8.82812 3.58398 9.11133 3.91602 9.11133L6.62109 9.07227C6.76758 9.07227 6.92383 8.98438 7.02148 8.88672C7.26562 8.65234 7.27539 8.33008 7.03125 8.08594C6.92383 7.96875 6.78711 7.91992 6.62109 7.91992L5.55664 7.93945L5.24685 7.96194L5.46875 7.75391L8.92578 4.29688C9.16016 4.0625 9.15039 3.71094 8.91602 3.47656C8.68164 3.24219 8.33984 3.24219 8.10547 3.47656Z" fill="white" fill-opacity="0.85"/>
 </g>
</svg>
