<?xml version="1.0" encoding="UTF-8"?>
<!--Generator: Apple Native CoreSVG 341-->
<!DOCTYPE svg
PUBLIC "-//W3C//DTD SVG 1.1//EN"
       "http://www.w3.org/Graphics/SVG/1.1/DTD/svg11.dtd">
<svg version="1.1" xmlns="http://www.w3.org/2000/svg" xmlns:xlink="http://www.w3.org/1999/xlink" viewBox="0 0 14.5898 14.248">
 <g>
  <rect height="14.248" opacity="0" width="14.5898" x="0" y="0"/>
  <path d="M14.2285 2.4707L14.2285 11.7871C14.2285 13.4277 13.4082 14.248 11.7383 14.248L2.49023 14.248C0.830078 14.248 0 13.4277 0 11.7871L0 2.4707C0 0.830078 0.830078 0.00976562 2.49023 0.00976562L11.7383 0.00976562C13.4082 0.00976562 14.2285 0.830078 14.2285 2.4707ZM9.38477 7.5C9.38477 8.75977 8.36914 9.77539 7.11914 9.77539C5.85938 9.77539 4.85352 8.75977 4.85352 7.5C4.85352 7.17773 4.58008 6.91406 4.25781 6.91406C3.93555 6.91406 3.66211 7.17773 3.66211 7.5C3.66211 9.4043 5.20508 10.957 7.11914 10.957C9.02344 10.957 10.5664 9.4043 10.5664 7.4707C10.5664 5.57617 8.99414 4.08203 7.29492 4.08203C7.26085 4.08203 7.22679 4.08203 7.19272 4.0821L7.58789 3.70117C7.68555 3.60352 7.74414 3.4668 7.74414 3.32031C7.74414 3.01758 7.50977 2.77344 7.20703 2.77344C7.06055 2.77344 6.91406 2.85156 6.82617 2.93945L5.38086 4.375C5.27344 4.46289 5.22461 4.60938 5.22461 4.74609C5.22461 4.89258 5.27344 5.03906 5.38086 5.12695L6.82617 6.5625C6.92383 6.66016 7.06055 6.71875 7.20703 6.71875C7.50977 6.71875 7.74414 6.48438 7.74414 6.18164C7.74414 6.03516 7.68555 5.89844 7.58789 5.80078L7.00575 5.23438C7.04348 5.23438 7.08131 5.23438 7.11914 5.23438C8.36914 5.23438 9.38477 6.24023 9.38477 7.5Z" fill="white" fill-opacity="0.85"/>
 </g>
</svg>
