<?xml version="1.0" encoding="UTF-8"?>
<!--Generator: Apple Native CoreSVG 341-->
<!DOCTYPE svg
PUBLIC "-//W3C//DTD SVG 1.1//EN"
       "http://www.w3.org/Graphics/SVG/1.1/DTD/svg11.dtd">
<svg version="1.1" xmlns="http://www.w3.org/2000/svg" xmlns:xlink="http://www.w3.org/1999/xlink" viewBox="0 0 16.1328 15.7715">
 <g>
  <rect height="15.7715" opacity="0" width="16.1328" x="0" y="0"/>
  <path d="M7.88086 15.7617C12.2363 15.7617 15.7715 12.2266 15.7715 7.88086C15.7715 3.53516 12.2363 0 7.88086 0C3.53516 0 0 3.53516 0 7.88086C0 12.2266 3.53516 15.7617 7.88086 15.7617Z" fill="white" fill-opacity="0.2125"/>
  <path d="M7.88086 11.875C9.86328 11.875 11.4648 10.2539 11.4648 8.28125C11.4648 7.93945 11.1816 7.66602 10.8594 7.66602C10.5176 7.66602 10.2344 7.93945 10.2344 8.28125C10.2344 9.58008 9.18945 10.6348 7.88086 10.6348C6.58203 10.6348 5.53711 9.58008 5.53711 8.28125C5.53711 6.96289 6.58203 5.91797 7.88086 5.91797C8.125 5.91797 8.36914 5.92773 8.60352 5.92773C8.93555 5.92773 9.19922 5.66406 9.19922 5.33203C9.19922 5.00977 8.93555 4.73633 8.61328 4.72656C8.31055 4.72656 7.99805 4.72656 7.69531 4.72656C5.92773 4.72656 4.29688 6.2793 4.29688 8.24219C4.29688 10.2539 5.89844 11.875 7.88086 11.875ZM9.84375 5.41992C9.84375 5.27344 9.79492 5.12695 9.6875 5.0293L8.18359 3.54492C8.0957 3.45703 7.93945 3.36914 7.79297 3.36914C7.4707 3.36914 7.22656 3.62305 7.22656 3.92578C7.22656 4.0918 7.29492 4.22852 7.39258 4.32617L8.51562 5.41992L7.39258 6.51367C7.29492 6.61133 7.22656 6.74805 7.22656 6.91406C7.22656 7.2168 7.4707 7.4707 7.79297 7.4707C7.93945 7.4707 8.08594 7.40234 8.18359 7.30469L9.6875 5.82031C9.79492 5.71289 9.84375 5.57617 9.84375 5.41992Z" fill="white" fill-opacity="0.85"/>
 </g>
</svg>
