<?xml version="1.0" encoding="UTF-8"?>
<!--Generator: Apple Native CoreSVG 341-->
<!DOCTYPE svg
PUBLIC "-//W3C//DTD SVG 1.1//EN"
       "http://www.w3.org/Graphics/SVG/1.1/DTD/svg11.dtd">
<svg version="1.1" xmlns="http://www.w3.org/2000/svg" xmlns:xlink="http://www.w3.org/1999/xlink" viewBox="0 0 18.4766 14.248">
 <g>
  <rect height="14.248" opacity="0" width="18.4766" x="0" y="0"/>
  <path d="M18.1152 2.4707L18.1152 11.7871C18.1152 13.4277 17.2949 14.248 15.625 14.248L2.49023 14.248C0.830078 14.248 0 13.4277 0 11.7871L0 2.4707C0 0.830078 0.830078 0.00976562 2.49023 0.00976562L15.625 0.00976562C17.2949 0.00976562 18.1152 0.830078 18.1152 2.4707ZM14.4629 2.69531L12.373 4.79492L11.1349 6.11198L11.2988 4.92188L11.2988 3.81836C11.2891 3.37891 11.0254 3.10547 10.6152 3.10547C10.2246 3.10547 9.9707 3.36914 9.96094 3.78906L9.96094 7.40234C9.96094 7.91016 10.2051 8.1543 10.7129 8.1543L14.3164 8.1543C14.7461 8.14453 15.0098 7.89062 15.0098 7.49023C15.0098 7.08984 14.7363 6.82617 14.2969 6.81641L13.1738 6.81641L12.0077 6.97852L13.3301 5.74219L15.4297 3.64258C15.5566 3.51562 15.6445 3.33984 15.6445 3.16406C15.6445 2.75391 15.3809 2.49023 14.9805 2.49023C14.7656 2.49023 14.5996 2.56836 14.4629 2.69531Z" fill="white" fill-opacity="0.85"/>
 </g>
</svg>
