<?xml version="1.0" encoding="UTF-8"?>
<!--Generator: Apple Native CoreSVG 341-->
<!DOCTYPE svg
PUBLIC "-//W3C//DTD SVG 1.1//EN"
       "http://www.w3.org/Graphics/SVG/1.1/DTD/svg11.dtd">
<svg version="1.1" xmlns="http://www.w3.org/2000/svg" xmlns:xlink="http://www.w3.org/1999/xlink" viewBox="0 0 14.5898 14.248">
 <g>
  <rect height="14.248" opacity="0" width="14.5898" x="0" y="0"/>
  <path d="M2.49023 14.248L11.7383 14.248C13.4082 14.248 14.2285 13.4277 14.2285 11.7871L14.2285 2.4707C14.2285 0.830078 13.4082 0.00976562 11.7383 0.00976562L2.49023 0.00976562C0.830078 0.00976562 0 0.830078 0 2.4707L0 11.7871C0 13.4277 0.830078 14.248 2.49023 14.248ZM2.50977 12.832C1.80664 12.832 1.40625 12.4512 1.40625 11.7188L1.40625 2.53906C1.40625 1.79688 1.80664 1.42578 2.50977 1.42578L11.7188 1.42578C12.4219 1.42578 12.8223 1.79688 12.8223 2.53906L12.8223 11.7188C12.8223 12.4512 12.4219 12.832 11.7188 12.832Z" fill="white" fill-opacity="0.85"/>
  <path d="M7.13867 2.24609C6.93359 2.24609 6.77734 2.34375 6.62109 2.5L4.42383 4.6875C4.31641 4.78516 4.24805 4.96094 4.24805 5.13672C4.24805 5.48828 4.53125 5.76172 4.88281 5.76172C5.06836 5.76172 5.23438 5.70312 5.3418 5.57617L5.82031 5.07812L7.13867 3.41797L8.44727 5.07812L8.92578 5.57617C9.0332 5.70312 9.19922 5.76172 9.38477 5.76172C9.74609 5.76172 10.0195 5.48828 10.0195 5.13672C10.0195 4.96094 9.96094 4.79492 9.84375 4.6875L7.64648 2.5C7.49023 2.34375 7.33398 2.24609 7.13867 2.24609ZM7.13867 11.4551C7.45117 11.4551 7.69531 11.2012 7.70508 10.8789L7.7832 8.32031L7.7832 5.91797L7.70508 3.35938C7.69531 3.03711 7.45117 2.7832 7.13867 2.7832C6.81641 2.7832 6.57227 3.03711 6.5625 3.35938L6.48438 5.91797L6.48438 8.32031L6.5625 10.8789C6.57227 11.2012 6.81641 11.4551 7.13867 11.4551ZM7.13867 11.9922C7.33398 11.9922 7.49023 11.8945 7.64648 11.7383L9.84375 9.55078C9.96094 9.44336 10.0195 9.27734 10.0195 9.10156C10.0195 8.75 9.74609 8.47656 9.38477 8.47656C9.19922 8.47656 9.0332 8.53516 8.92578 8.66211L8.44727 9.16016L7.13867 10.8203L5.82031 9.16016L5.3418 8.66211C5.23438 8.53516 5.06836 8.47656 4.88281 8.47656C4.53125 8.47656 4.24805 8.75 4.24805 9.10156C4.24805 9.27734 4.31641 9.45312 4.42383 9.55078L6.62109 11.7383C6.77734 11.8945 6.93359 11.9922 7.13867 11.9922Z" fill="white" fill-opacity="0.85"/>
 </g>
</svg>
