<?xml version="1.0" encoding="UTF-8"?>
<!--Generator: Apple Native CoreSVG 341-->
<!DOCTYPE svg
PUBLIC "-//W3C//DTD SVG 1.1//EN"
       "http://www.w3.org/Graphics/SVG/1.1/DTD/svg11.dtd">
<svg version="1.1" xmlns="http://www.w3.org/2000/svg" xmlns:xlink="http://www.w3.org/1999/xlink" viewBox="0 0 18.3496 16.1816">
 <g>
  <rect height="16.1816" opacity="0" width="18.3496" x="0" y="0"/>
  <path d="M17.9883 7.5C17.9883 11.8359 14.209 14.9902 8.98438 14.9902C7.30469 14.9902 5.76172 14.6777 4.42383 14.082C3.62305 14.668 2.53906 14.9902 1.45508 14.9902C0.888672 14.9902 0.673828 14.5801 1.04492 14.2383C1.52344 13.7988 1.69922 13.3984 1.69922 12.8125C1.69922 11.4551 0 10.6055 0 7.5C0 3.14453 3.7793 0 8.98438 0C14.1992 0 17.9883 3.14453 17.9883 7.5ZM8.48633 3.71094L5.87891 6.20117C5.74219 6.32812 5.66406 6.48438 5.66406 6.67969C5.66406 7.04102 5.9375 7.30469 6.31836 7.30469C6.49414 7.30469 6.68945 7.24609 6.81641 7.08984L7.92969 5.88867L8.32786 5.46154L8.28125 6.66016L8.28125 10.8398C8.28125 11.2207 8.61328 11.543 9.00391 11.543C9.4043 11.543 9.72656 11.2207 9.72656 10.8398L9.72656 6.66016L9.68686 5.46895L10.0781 5.88867L11.2012 7.08984C11.3184 7.24609 11.5137 7.30469 11.6895 7.30469C12.0605 7.30469 12.3438 7.04102 12.3438 6.67969C12.3438 6.48438 12.2754 6.32812 12.1289 6.20117L9.53125 3.71094C9.3457 3.52539 9.19922 3.4668 9.00391 3.4668C8.81836 3.4668 8.67188 3.52539 8.48633 3.71094Z" fill="white" fill-opacity="0.85"/>
 </g>
</svg>
