<svg version="1.1" xmlns="http://www.w3.org/2000/svg" xmlns:xlink="http://www.w3.org/1999/xlink" viewBox="0 0 12.6609 16.6699">
 <g>
  <rect height="16.6699" opacity="0" width="12.6609" x="0" y="0"/>
  <path d="M6.14976 16.6504C9.03062 16.6504 10.9447 14.7363 10.9447 11.8457L10.9447 10.3418C10.9447 9.95117 10.6322 9.63867 10.2416 9.63867C9.84117 9.63867 9.53844 9.95117 9.53844 10.3418L9.53844 11.8457C9.53844 13.8867 8.17125 15.2441 6.14976 15.2441C4.10875 15.2441 2.75133 13.8867 2.75133 11.8457L2.75133 4.79492C2.75133 2.76367 4.10875 1.40625 6.14976 1.40625C8.17125 1.40625 9.53844 2.76367 9.53844 4.79492L9.53844 5.61523C9.53844 6.00586 9.85094 6.31836 10.2416 6.31836C10.6224 6.31836 10.9447 6.00586 10.9447 5.61523L10.9447 4.79492C10.9447 1.91406 9.03062 0 6.14976 0C3.24937 0 1.34508 1.91406 1.34508 4.79492L1.34508 11.8457C1.34508 14.7363 3.24937 16.6504 6.14976 16.6504ZM12.058 4.6875L8.49351 4.6875C7.88805 4.6875 7.7318 5.10742 8.05406 5.56641L9.79234 8.04688C10.056 8.42773 10.4662 8.42773 10.7396 8.04688L12.4877 5.57617C12.8197 5.10742 12.6732 4.6875 12.058 4.6875Z" fill="var(--color-primary)"/>
 </g>
</svg>
