<?xml version="1.0" encoding="UTF-8"?>
<!--Generator: Apple Native CoreSVG 341-->
<!DOCTYPE svg
PUBLIC "-//W3C//DTD SVG 1.1//EN"
       "http://www.w3.org/Graphics/SVG/1.1/DTD/svg11.dtd">
<svg version="1.1" xmlns="http://www.w3.org/2000/svg" xmlns:xlink="http://www.w3.org/1999/xlink" viewBox="0 0 18.4766 14.248">
 <g>
  <rect height="14.248" opacity="0" width="18.4766" x="0" y="0"/>
  <path d="M2.49023 14.248L15.625 14.248C17.2949 14.248 18.1152 13.4277 18.1152 11.7871L18.1152 2.4707C18.1152 0.830078 17.2949 0.00976562 15.625 0.00976562L2.49023 0.00976562C0.830078 0.00976562 0 0.830078 0 2.4707L0 11.7871C0 13.4277 0.830078 14.248 2.49023 14.248ZM2.50977 12.832C1.80664 12.832 1.40625 12.4512 1.40625 11.7188L1.40625 2.53906C1.40625 1.79688 1.80664 1.42578 2.50977 1.42578L15.6055 1.42578C16.3086 1.42578 16.709 1.79688 16.709 2.53906L16.709 11.7188C16.709 12.4512 16.3086 12.832 15.6055 12.832Z" fill="white" fill-opacity="0.425"/>
  <path d="M2.77344 10.5566C2.65625 10.6738 2.56836 10.8496 2.56836 11.0156C2.56836 11.4062 2.82227 11.6602 3.21289 11.6602C3.41797 11.6602 3.57422 11.5918 3.70117 11.4648L5.72266 9.44336L7.19727 7.87109C7.77344 7.26562 7.03125 6.45508 6.38672 7.04102L4.80469 8.52539ZM7.32422 6.20117L3.84766 6.20117C3.4375 6.21094 3.18359 6.45508 3.18359 6.8457C3.18359 7.22656 3.44727 7.48047 3.87695 7.49023L4.95117 7.49023L7.05078 7.20703L6.75781 9.31641L6.75781 10.3809C6.76758 10.8008 7.02148 11.0645 7.41211 11.0645C7.79297 11.0645 8.03711 10.8105 8.04688 10.4102L8.04688 6.92383C8.04688 6.43555 7.8125 6.20117 7.32422 6.20117Z" fill="white" fill-opacity="0.85"/>
 </g>
</svg>
