<svg version="1.1" xmlns="http://www.w3.org/2000/svg" xmlns:xlink="http://www.w3.org/1999/xlink" viewBox="0 0 17.0898 14.2285">
 <g>
  <rect height="14.2285" opacity="0" width="17.0898" x="0" y="0"/>
  <path d="M9.51172 14.2188C9.92188 14.2188 10.2539 14.0527 10.6641 13.6719L16.7188 7.93945C16.9922 7.68555 17.0898 7.37305 17.0898 7.10938C17.0898 6.83594 16.9922 6.5332 16.7188 6.26953L10.6641 0.605469C10.2051 0.175781 9.94141 0 9.53125 0C8.94531 0 8.52539 0.46875 8.52539 1.02539L8.52539 3.81836L8.33008 3.81836C2.63672 3.81836 0.400391 7.54883 0.400391 13.0859C0.400391 13.8184 0.820312 14.2188 1.25977 14.2188C1.60156 14.2188 2.00195 14.1504 2.29492 13.623C3.69141 11.1035 5.50781 10.4004 8.33008 10.4004L8.52539 10.4004L8.52539 13.252C8.52539 13.8086 8.94531 14.2188 9.51172 14.2188Z" fill="var(--color-primary)"/>
 </g>
</svg>
