<?xml version="1.0" encoding="UTF-8"?>
<!--Generator: Apple Native CoreSVG 341-->
<!DOCTYPE svg
PUBLIC "-//W3C//DTD SVG 1.1//EN"
       "http://www.w3.org/Graphics/SVG/1.1/DTD/svg11.dtd">
<svg version="1.1" xmlns="http://www.w3.org/2000/svg" xmlns:xlink="http://www.w3.org/1999/xlink" viewBox="0 0 14.5898 14.248">
 <g>
  <rect height="14.248" opacity="0" width="14.5898" x="0" y="0"/>
  <path d="M2.49023 14.248L11.7383 14.248C13.4082 14.248 14.2285 13.4277 14.2285 11.7871L14.2285 2.4707C14.2285 0.830078 13.4082 0.00976562 11.7383 0.00976562L2.49023 0.00976562C0.830078 0.00976562 0 0.830078 0 2.4707L0 11.7871C0 13.4277 0.830078 14.248 2.49023 14.248ZM2.50977 12.832C1.80664 12.832 1.40625 12.4512 1.40625 11.7188L1.40625 2.53906C1.40625 1.79688 1.80664 1.42578 2.50977 1.42578L11.7188 1.42578C12.4219 1.42578 12.8223 1.79688 12.8223 2.53906L12.8223 11.7188C12.8223 12.4512 12.4219 12.832 11.7188 12.832Z" fill="white" fill-opacity="0.425"/>
  <path d="M10.5664 7.07031C10.9082 7.07031 11.1816 6.79688 11.1816 6.46484C11.1816 6.12305 10.9082 5.84961 10.5664 5.84961L10.2637 5.84961L9.12109 5.94727L11.0938 4.0625C11.3477 3.81836 11.3574 3.39844 11.1035 3.14453C10.8496 2.89062 10.4297 2.89062 10.1758 3.1543L8.29102 5.13672L8.37891 3.96484L8.37891 3.65234C8.37891 3.31055 8.10547 3.03711 7.77344 3.03711C7.43164 3.03711 7.1582 3.31055 7.1582 3.65234L7.1582 6.34766C7.1582 6.875 7.42188 7.07031 7.88086 7.07031ZM6.45508 11.2012C6.79688 11.2012 7.07031 10.9277 7.07031 10.5859L7.07031 7.89062C7.07031 7.36328 6.80664 7.16797 6.34766 7.16797L3.66211 7.16797C3.32031 7.16797 3.04688 7.44141 3.04688 7.77344C3.04688 8.11523 3.32031 8.38867 3.66211 8.38867L3.95508 8.38867L5.09766 8.29102L3.13477 10.1758C2.88086 10.4199 2.87109 10.8398 3.125 11.0938C3.37891 11.3477 3.79883 11.3477 4.05273 11.084L5.9375 9.10156L5.84961 10.2734L5.84961 10.5859C5.84961 10.9277 6.11328 11.2012 6.45508 11.2012Z" fill="white" fill-opacity="0.85"/>
 </g>
</svg>
