<?xml version="1.0" encoding="UTF-8"?>
<!--Generator: Apple Native CoreSVG 341-->
<!DOCTYPE svg
PUBLIC "-//W3C//DTD SVG 1.1//EN"
       "http://www.w3.org/Graphics/SVG/1.1/DTD/svg11.dtd">
<svg version="1.1" xmlns="http://www.w3.org/2000/svg" xmlns:xlink="http://www.w3.org/1999/xlink" viewBox="0 0 15.6687 14.5728">
 <g>
  <rect height="14.5728" opacity="0" width="15.6687" x="0" y="0"/>
  <path d="M2.38023 11.1682C2.80992 11.1682 3.17125 10.8069 3.17125 10.3772L3.17125 3.97096C3.17125 2.6819 3.96226 1.91041 5.01695 1.91041C6.07164 1.91041 6.86265 2.6819 6.86265 3.97096L6.86265 9.20533C6.86265 11.5393 8.3275 12.9944 10.2904 12.9944C12.2533 12.9944 13.7084 11.5393 13.7084 9.20533L13.7084 2.88697C13.7084 2.45729 13.3568 2.09596 12.9271 2.09596C12.4974 2.09596 12.1361 2.45729 12.1361 2.88697L12.1361 9.35182C12.1361 10.6409 11.3451 11.4124 10.2904 11.4124C9.2357 11.4124 8.44469 10.6409 8.44469 9.35182L8.44469 4.11744C8.44469 1.78346 6.97984 0.328381 5.01695 0.328381C3.05406 0.328381 1.59898 1.78346 1.59898 4.11744L1.59898 10.3772C1.59898 10.8069 1.95055 11.1682 2.38023 11.1682ZM0.602889 9.68385C-0.0123451 9.68385-0.158829 10.094 0.173202 10.5628L1.91148 13.0335C2.18492 13.4241 2.59508 13.4143 2.85875 13.0335L4.59703 10.553C4.9193 10.094 4.76305 9.68385 4.15758 9.68385ZM11.1595 3.63893L14.7142 3.63893C15.3197 3.63893 15.4759 3.21901 15.1537 2.76979L13.4056 0.289318C13.142-0.0915411 12.7318-0.101307 12.4584 0.289318L10.7201 2.76002C10.388 3.21901 10.5443 3.63893 11.1595 3.63893Z" fill="white" fill-opacity="0.85"/>
 </g>
</svg>
