<svg version="1.1" xmlns="http://www.w3.org/2000/svg" xmlns:xlink="http://www.w3.org/1999/xlink" viewBox="0 0 14.5898 14.248">
 <g>
  <rect height="14.248" opacity="0" width="14.5898" x="0" y="0"/>
  <path d="M2.49023 14.248L11.7383 14.248C13.4082 14.248 14.2285 13.4277 14.2285 11.7871L14.2285 2.4707C14.2285 0.830078 13.4082 0.00976562 11.7383 0.00976562L2.49023 0.00976562C0.830078 0.00976562 0 0.830078 0 2.4707L0 11.7871C0 13.4277 0.830078 14.248 2.49023 14.248ZM2.50977 12.832C1.80664 12.832 1.40625 12.4512 1.40625 11.7188L1.40625 2.53906C1.40625 1.79688 1.80664 1.42578 2.50977 1.42578L11.7188 1.42578C12.4219 1.42578 12.8223 1.79688 12.8223 2.53906L12.8223 11.7188C12.8223 12.4512 12.4219 12.832 11.7188 12.832Z" fill="var(--color-secondary)"/>
  <path d="M8.39844 5.03906L6.86523 6.47461L4.3457 8.98438C4.21875 9.11133 4.13086 9.27734 4.13086 9.45312C4.13086 9.84375 4.38477 10.0977 4.77539 10.0977C4.98047 10.0977 5.14648 10.0195 5.26367 9.90234L7.7832 7.38281L9.20898 5.84961C9.85352 5.16602 9.0625 4.43359 8.39844 5.03906ZM8.82812 7.26562L8.82812 8.36914C8.82812 8.7793 9.08203 9.04297 9.46289 9.04297C9.85352 9.04297 10.1074 8.75 10.1074 8.34961L10.1074 4.87305C10.1074 4.3457 9.82422 4.15039 9.375 4.15039L5.86914 4.15039C5.45898 4.15039 5.19531 4.4043 5.19531 4.78516C5.19531 5.16602 5.46875 5.41992 5.88867 5.41992L7.00195 5.41992L9.08203 5.14648Z" fill="var(--color-primary)"/>
 </g>
</svg>
