<?xml version="1.0" encoding="UTF-8"?>
<!--Generator: Apple Native CoreSVG 341-->
<!DOCTYPE svg
PUBLIC "-//W3C//DTD SVG 1.1//EN"
       "http://www.w3.org/Graphics/SVG/1.1/DTD/svg11.dtd">
<svg version="1.1" xmlns="http://www.w3.org/2000/svg" xmlns:xlink="http://www.w3.org/1999/xlink" viewBox="0 0 14.7559 12.3926">
 <g>
  <rect height="12.3926" opacity="0" width="14.7559" x="0" y="0"/>
  <path d="M1.5918 6.00586L5.08789 2.8418L6.43555 1.45508C6.58203 1.31836 6.66016 1.11328 6.66016 0.908203C6.66016 0.458984 6.31836 0.146484 5.88867 0.146484C5.68359 0.146484 5.48828 0.224609 5.3125 0.390625L0.273438 5.41016C0.0976562 5.58594 0 5.79102 0 6.00586C0 6.2207 0.0976562 6.42578 0.273438 6.60156L5.3125 11.6211C5.48828 11.7871 5.68359 11.8652 5.88867 11.8652C6.31836 11.8652 6.66016 11.543 6.66016 11.1035C6.66016 10.8984 6.58203 10.6934 6.43555 10.5566L5.08789 9.16016ZM1.60156 6.64062L4.20898 6.79688L9.10156 6.79688C11.8945 6.79688 12.8027 7.93945 12.8027 10.7422C12.793 11.0449 12.793 11.3281 12.7832 11.6113C12.7832 12.0703 13.1055 12.3926 13.5645 12.3926C14.0332 12.3926 14.248 12.0898 14.3164 11.748C14.375 11.4844 14.3945 11.1133 14.3945 10.6641C14.3945 6.86523 12.9199 5.21484 9.18945 5.21484L4.20898 5.21484L1.61133 5.36133C1.25 5.37109 0.957031 5.64453 0.957031 6.00586C0.957031 6.35742 1.24023 6.62109 1.60156 6.64062Z" fill="white" fill-opacity="0.85"/>
 </g>
</svg>
