<svg version="1.1" xmlns="http://www.w3.org/2000/svg" xmlns:xlink="http://www.w3.org/1999/xlink" viewBox="0 0 16.1328 18.7883">
 <g>
  <rect height="18.7883" opacity="0" width="16.1328" x="0" y="0"/>
  <path d="M9.35547 0.609959C9.35547-0.00527584 8.93555-0.161526 8.47656 0.170505L6.00586 1.90879C5.61523 2.19199 5.625 2.59238 6.00586 2.86582L8.48633 4.6041C8.93555 4.92636 9.35547 4.77011 9.35547 4.16465ZM14.2773 9.38926C14.2773 11.2643 13.4668 12.9439 12.1875 14.1158C11.7969 14.4869 11.8262 14.858 12.0215 15.1412C12.2559 15.4732 12.7734 15.6002 13.1738 15.2389C14.7656 13.7936 15.7715 11.7037 15.7715 9.38926C15.7715 5.03379 12.2461 1.51816 7.87109 1.5084C7.4707 1.51816 7.13867 1.84043 7.13867 2.25058C7.13867 2.66074 7.48047 2.99277 7.88086 2.99277C11.416 2.99277 14.2773 5.8541 14.2773 9.38926ZM6.41602 18.1686C6.41602 18.7838 6.82617 18.94 7.29492 18.608L9.76562 16.8697C10.1562 16.5865 10.1465 16.1861 9.76562 15.9127L7.28516 14.1744C6.82617 13.8521 6.41602 14.0084 6.41602 14.6139ZM1.49414 9.38926C1.49414 7.51426 2.29492 5.83457 3.58398 4.66269C3.97461 4.2916 3.94531 3.92051 3.75 3.6373C3.51562 3.30527 2.99805 3.17832 2.59766 3.53965C1.00586 4.98496 0 7.0748 0 9.38926C0 13.7447 3.52539 17.2603 7.89062 17.2701C8.30078 17.2603 8.62305 16.9381 8.62305 16.5279C8.62305 16.1178 8.29102 15.7857 7.88086 15.7857C4.3457 15.7857 1.49414 12.9244 1.49414 9.38926Z" fill="var(--color-primary)"/>
 </g>
</svg>
