<?xml version="1.0" encoding="UTF-8"?>
<!--Generator: Apple Native CoreSVG 341-->
<!DOCTYPE svg
PUBLIC "-//W3C//DTD SVG 1.1//EN"
       "http://www.w3.org/Graphics/SVG/1.1/DTD/svg11.dtd">
<svg version="1.1" xmlns="http://www.w3.org/2000/svg" xmlns:xlink="http://www.w3.org/1999/xlink" viewBox="0 0 18.4766 14.248">
 <g>
  <rect height="14.248" opacity="0" width="18.4766" x="0" y="0"/>
  <path d="M2.49023 14.248L15.625 14.248C17.2949 14.248 18.1152 13.4277 18.1152 11.7871L18.1152 2.4707C18.1152 0.830078 17.2949 0.00976562 15.625 0.00976562L2.49023 0.00976562C0.830078 0.00976562 0 0.830078 0 2.4707L0 11.7871C0 13.4277 0.830078 14.248 2.49023 14.248Z" fill="white" fill-opacity="0.2125"/>
  <path d="M13.418 6.82617C13.7988 6.82617 14.0625 6.5332 14.0625 6.13281L14.0625 3.0957C14.0625 2.58789 13.7695 2.38281 13.3398 2.38281L10.2637 2.38281C9.87305 2.38281 9.59961 2.63672 9.59961 3.01758C9.59961 3.4082 9.87305 3.66211 10.2832 3.66211L11.1133 3.66211L13.0176 3.42773L12.7832 5.3418L12.7832 6.15234C12.7832 6.55273 13.0371 6.82617 13.418 6.82617ZM10.0391 7.02148C10.2539 7.02148 10.4004 6.94336 10.5273 6.81641L11.8652 5.48828L13.0078 4.25781C13.6621 3.56445 12.8613 2.8125 12.1875 3.42773L10.9375 4.56055L9.60938 5.9082C9.49219 6.02539 9.4043 6.20117 9.4043 6.36719C9.4043 6.76758 9.66797 7.02148 10.0391 7.02148ZM4.69727 7.43164C4.31641 7.43164 4.0625 7.72461 4.0625 8.125L4.0625 11.1621C4.0625 11.6699 4.35547 11.875 4.78516 11.875L7.85156 11.875C8.24219 11.875 8.51562 11.6211 8.51562 11.2402C8.51562 10.8496 8.24219 10.5957 7.83203 10.5957L7.01172 10.5957L5.09766 10.8301L5.3418 8.91602L5.3418 8.10547C5.3418 7.70508 5.08789 7.43164 4.69727 7.43164ZM8.07617 7.23633C7.87109 7.23633 7.71484 7.31445 7.58789 7.44141L6.25977 8.76953L5.11719 10C4.45312 10.6934 5.25391 11.4453 5.9375 10.8203L7.17773 9.6875L8.50586 8.34961C8.62305 8.23242 8.7207 8.05664 8.7207 7.89062C8.7207 7.49023 8.45703 7.23633 8.07617 7.23633Z" fill="white" fill-opacity="0.85"/>
 </g>
</svg>
