<svg version="1.1" xmlns="http://www.w3.org/2000/svg" xmlns:xlink="http://www.w3.org/1999/xlink" viewBox="0 0 13.9941 18.252">
 <g>
  <rect height="18.252" opacity="0" width="13.9941" x="0" y="0"/>
  <path d="M6.81641 16.5234C10.5859 16.5234 13.6328 13.4668 13.6328 9.69727C13.6328 9.30664 13.3105 8.99414 12.9297 8.99414C12.5488 8.99414 12.2266 9.30664 12.2266 9.69727C12.2266 12.6855 9.80469 15.0977 6.81641 15.0977C3.82812 15.0977 1.40625 12.6855 1.40625 9.69727C1.40625 6.70898 3.82812 4.28711 6.81641 4.28711C7.45117 4.28711 8.05664 4.38477 8.62305 4.58984C9.07227 4.76562 9.60938 4.51172 9.60938 3.95508C9.60938 3.49609 9.26758 3.34961 9.04297 3.27148C8.34961 3.01758 7.59766 2.89062 6.81641 2.89062C3.04688 2.89062 0 5.9375 0 9.70703C0 13.4668 3.04688 16.5234 6.81641 16.5234ZM8.76953 3.83789L6.12305 6.43555C5.98633 6.5625 5.92773 6.74805 5.92773 6.92383C5.92773 7.32422 6.23047 7.62695 6.61133 7.62695C6.83594 7.62695 6.99219 7.54883 7.11914 7.43164L10.2051 4.3457C10.3418 4.20898 10.4102 4.04297 10.4102 3.83789C10.4102 3.65234 10.332 3.4668 10.2051 3.33984L7.11914 0.214844C6.99219 0.0878906 6.82617 0 6.61133 0C6.23047 0 5.92773 0.322266 5.92773 0.722656C5.92773 0.908203 5.98633 1.09375 6.11328 1.2207Z" fill="var(--color-primary)"/>
 </g>
</svg>
