<?xml version="1.0" encoding="UTF-8"?>
<!--Generator: Apple Native CoreSVG 341-->
<!DOCTYPE svg
PUBLIC "-//W3C//DTD SVG 1.1//EN"
       "http://www.w3.org/Graphics/SVG/1.1/DTD/svg11.dtd">
<svg version="1.1" xmlns="http://www.w3.org/2000/svg" xmlns:xlink="http://www.w3.org/1999/xlink" viewBox="0 0 16.1328 15.7715">
 <g>
  <rect height="15.7715" opacity="0" width="16.1328" x="0" y="0"/>
  <path d="M7.88086 15.7617C12.2363 15.7617 15.7715 12.2363 15.7715 7.88086C15.7715 3.52539 12.2363 0 7.88086 0C3.53516 0 0 3.52539 0 7.88086C0 12.2363 3.53516 15.7617 7.88086 15.7617ZM7.88086 14.2773C4.3457 14.2773 1.49414 11.416 1.49414 7.88086C1.49414 4.3457 4.3457 1.48438 7.88086 1.48438C11.416 1.48438 14.2773 4.3457 14.2773 7.88086C14.2773 11.416 11.416 14.2773 7.88086 14.2773Z" fill="white" fill-opacity="0.85"/>
  <path d="M7.87109 11.7188C9.78516 11.7188 11.3281 10.166 11.3281 8.23242C11.3281 6.33789 9.75586 4.84375 8.04688 4.84375C7.76367 4.84375 7.4707 4.84375 7.17773 4.85352C6.85547 4.85352 6.60156 5.10742 6.60156 5.42969C6.60156 5.74219 6.85547 6.00586 7.1875 5.99609C7.41211 5.99609 7.63672 5.99609 7.87109 5.99609C9.13086 5.99609 10.1367 7.00195 10.1367 8.26172C10.1367 9.52148 9.13086 10.5371 7.87109 10.5371C6.62109 10.5371 5.60547 9.52148 5.60547 8.26172C5.60547 7.93945 5.33203 7.67578 5.01953 7.67578C4.69727 7.67578 4.42383 7.93945 4.42383 8.26172C4.42383 10.166 5.9668 11.7188 7.87109 11.7188ZM5.98633 5.50781C5.98633 5.6543 6.03516 5.80078 6.14258 5.88867L7.58789 7.32422C7.68555 7.42188 7.82227 7.48047 7.96875 7.48047C8.27148 7.48047 8.50586 7.24609 8.50586 6.94336C8.50586 6.79688 8.44727 6.66016 8.34961 6.5625L7.26562 5.50781L8.34961 4.46289C8.44727 4.36523 8.50586 4.22852 8.50586 4.08203C8.50586 3.7793 8.27148 3.53516 7.96875 3.53516C7.82227 3.53516 7.67578 3.61328 7.58789 3.70117L6.14258 5.13672C6.03516 5.22461 5.98633 5.37109 5.98633 5.50781Z" fill="white" fill-opacity="0.85"/>
 </g>
</svg>
