<svg version="1.1" xmlns="http://www.w3.org/2000/svg" xmlns:xlink="http://www.w3.org/1999/xlink" viewBox="0 0 14.6582 14.2871">
 <g>
  <rect height="14.2871" opacity="0" width="14.6582" x="0" y="0"/>
  <path d="M4.18945 14.2871L10.1074 14.2871C11.4453 14.2871 12.5 13.8867 13.1934 13.1934C13.916 12.4902 14.2969 11.4355 14.2969 10.0977L14.2969 4.18945C14.2969 2.85156 13.916 1.79688 13.1934 1.09375C12.4902 0.390625 11.4453 0 10.1074 0L4.18945 0C2.85156 0 1.78711 0.400391 1.09375 1.09375C0.380859 1.79688 0 2.85156 0 4.18945L0 10.0977C0 11.4355 0.380859 12.4902 1.09375 13.1934C1.78711 13.8867 2.85156 14.2871 4.18945 14.2871Z" fill="var(--color-tertiary)"/>
  <path d="M8.45703 4.99023L6.86523 6.47461L4.25781 9.07227C4.12109 9.20898 4.0332 9.38477 4.0332 9.55078C4.0332 9.9707 4.29688 10.2344 4.69727 10.2344C4.91211 10.2344 5.07812 10.1562 5.21484 10.0195L7.8125 7.41211L9.29688 5.82031C9.96094 5.10742 9.15039 4.3457 8.45703 4.99023ZM8.90625 7.28516L8.90625 8.42773C8.90625 8.86719 9.16992 9.14062 9.57031 9.14062C9.9707 9.14062 10.2344 8.83789 10.2344 8.41797L10.2344 4.80469C10.2344 4.26758 9.94141 4.05273 9.47266 4.05273L5.83008 4.05273C5.41016 4.05273 5.13672 4.31641 5.13672 4.7168C5.13672 5.11719 5.41992 5.38086 5.84961 5.38086L7.00195 5.38086L9.16992 5.08789Z" fill="var(--color-primary)"/>
 </g>
</svg>
