<svg version="1.1" xmlns="http://www.w3.org/2000/svg" xmlns:xlink="http://www.w3.org/1999/xlink" viewBox="0 0 18.3496 16.1816">
 <g>
  <rect height="16.1816" opacity="0" width="18.3496" x="0" y="0"/>
  <path d="M8.98438 14.9902C14.209 14.9902 17.9883 11.8359 17.9883 7.5C17.9883 3.14453 14.1992 0 8.98438 0C3.7793 0 0 3.14453 0 7.5C0 10.6055 1.69922 11.4551 1.69922 12.8125C1.69922 13.3984 1.52344 13.7988 1.04492 14.2383C0.673828 14.5801 0.888672 14.9902 1.45508 14.9902C2.53906 14.9902 3.62305 14.668 4.42383 14.082C5.76172 14.6777 7.30469 14.9902 8.98438 14.9902Z" fill="var(--color-tertiary)"/>
  <path d="M9.00391 11.543C9.4043 11.543 9.72656 11.2207 9.72656 10.8398L9.72656 6.66016L9.66797 4.90234C9.6582 4.49219 9.32617 4.27734 9.00391 4.27734C8.69141 4.27734 8.36914 4.49219 8.34961 4.90234L8.28125 6.66016L8.28125 10.8398C8.28125 11.2207 8.61328 11.543 9.00391 11.543ZM9.00391 3.4668C8.81836 3.4668 8.67188 3.52539 8.48633 3.71094L5.87891 6.20117C5.74219 6.32812 5.66406 6.48438 5.66406 6.67969C5.66406 7.04102 5.9375 7.30469 6.31836 7.30469C6.49414 7.30469 6.68945 7.24609 6.81641 7.08984L7.92969 5.88867L9.00391 4.73633L9.00391 4.73633L10.0781 5.88867L11.2012 7.08984C11.3184 7.24609 11.5137 7.30469 11.6895 7.30469C12.0605 7.30469 12.3438 7.04102 12.3438 6.67969C12.3438 6.48438 12.2754 6.32812 12.1289 6.20117L9.53125 3.71094C9.3457 3.52539 9.19922 3.4668 9.00391 3.4668Z" fill="var(--color-primary)"/>
 </g>
</svg>
