<?xml version="1.0" encoding="UTF-8"?>
<!--Generator: Apple Native CoreSVG 341-->
<!DOCTYPE svg
PUBLIC "-//W3C//DTD SVG 1.1//EN"
       "http://www.w3.org/Graphics/SVG/1.1/DTD/svg11.dtd">
<svg version="1.1" xmlns="http://www.w3.org/2000/svg" xmlns:xlink="http://www.w3.org/1999/xlink" viewBox="0 0 16.1328 15.7715">
 <g>
  <rect height="15.7715" opacity="0" width="16.1328" x="0" y="0"/>
  <path d="M7.88086 15.7617C12.2363 15.7617 15.7715 12.2266 15.7715 7.88086C15.7715 3.53516 12.2363 0 7.88086 0C3.53516 0 0 3.53516 0 7.88086C0 12.2266 3.53516 15.7617 7.88086 15.7617Z" fill="white" fill-opacity="0.2125"/>
  <path d="M8.00781 12.627C5.14648 12.627 3.25195 10.752 3.25195 7.91016C3.25195 5.05859 5.15625 3.11523 7.97852 3.11523C10.6836 3.11523 12.5391 4.86328 12.5391 7.40234C12.5391 9.18945 11.6504 10.4395 10.3418 10.4395C9.73633 10.4395 9.24805 10.166 9.01367 9.73633C8.70117 10.1855 8.20312 10.4395 7.63672 10.4395C6.39648 10.4395 5.52734 9.39453 5.52734 7.90039C5.52734 6.43555 6.39648 5.40039 7.60742 5.40039C8.08594 5.40039 8.54492 5.625 8.84766 5.91797L8.84766 5.87891C8.84766 5.67383 9.07227 5.40039 9.4043 5.40039C9.76562 5.40039 10 5.6543 10 6.02539L10 8.92578C10 9.19922 10.1562 9.3457 10.4688 9.3457C10.9863 9.3457 11.3672 8.59375 11.3672 7.44141C11.3672 5.53711 10 4.27734 7.96875 4.27734C5.86914 4.27734 4.49219 5.74219 4.49219 7.93945C4.49219 10.1367 5.87891 11.4648 8.17383 11.4648C8.75 11.4648 9.15039 11.3867 9.70703 11.2402C9.80469 11.2109 9.89258 11.2012 9.95117 11.2012C10.2441 11.2012 10.4688 11.4258 10.4688 11.7188C10.4688 12.0215 10.2539 12.2559 9.88281 12.3828C9.4043 12.5391 8.69141 12.627 8.00781 12.627ZM7.86133 9.23828C8.49609 9.23828 8.90625 8.71094 8.90625 7.86133C8.90625 7.04102 8.49609 6.52344 7.87109 6.52344C7.25586 6.52344 6.88477 7.02148 6.88477 7.87109C6.88477 8.73047 7.25586 9.23828 7.86133 9.23828Z" fill="white" fill-opacity="0.85"/>
 </g>
</svg>
