<svg version="1.1" xmlns="http://www.w3.org/2000/svg" xmlns:xlink="http://www.w3.org/1999/xlink" viewBox="0 0 16.1328 15.7715">
 <g>
  <rect height="15.7715" opacity="0" width="16.1328" x="0" y="0"/>
  <path d="M7.88086 15.7617C12.2363 15.7617 15.7715 12.2363 15.7715 7.88086C15.7715 3.52539 12.2363 0 7.88086 0C3.53516 0 0 3.52539 0 7.88086C0 12.2363 3.53516 15.7617 7.88086 15.7617ZM7.88086 14.2773C4.3457 14.2773 1.49414 11.416 1.49414 7.88086C1.49414 4.3457 4.3457 1.48438 7.88086 1.48438C11.416 1.48438 14.2773 4.3457 14.2773 7.88086C14.2773 11.416 11.416 14.2773 7.88086 14.2773Z" fill="var(--color-secondary)"/>
  <path d="M7.99805 12.4512C8.65234 12.4512 9.3457 12.3633 9.80469 12.2168C10.1562 12.0996 10.3711 11.875 10.3711 11.582C10.3711 11.2988 10.1465 11.084 9.86328 11.084C9.80469 11.084 9.7168 11.0938 9.62891 11.123C9.0918 11.2598 8.71094 11.3379 8.1543 11.3379C5.9375 11.3379 4.59961 10.0586 4.59961 7.93945C4.59961 5.81055 5.9375 4.4043 7.95898 4.4043C9.92188 4.4043 11.2305 5.61523 11.2305 7.46094C11.2305 8.56445 10.8691 9.29688 10.3711 9.29688C10.0586 9.29688 9.92188 9.16016 9.92188 8.88672L9.92188 6.09375C9.92188 5.73242 9.69727 5.48828 9.33594 5.48828C9.01367 5.48828 8.79883 5.75195 8.79883 5.95703L8.79883 5.99609C8.51562 5.71289 8.06641 5.48828 7.60742 5.48828C6.44531 5.48828 5.60547 6.49414 5.60547 7.90039C5.60547 9.33594 6.43555 10.3516 7.63672 10.3516C8.18359 10.3516 8.66211 10.0977 8.96484 9.67773C9.18945 10.0879 9.6582 10.3516 10.2441 10.3516C11.5039 10.3516 12.3633 9.15039 12.3633 7.42188C12.3633 4.9707 10.5664 3.29102 7.96875 3.29102C5.25391 3.29102 3.4082 5.15625 3.4082 7.91016C3.4082 10.6543 5.23438 12.4512 7.99805 12.4512ZM7.85156 9.18945C7.26562 9.18945 6.9043 8.70117 6.9043 7.87109C6.9043 7.05078 7.26562 6.57227 7.86133 6.57227C8.4668 6.57227 8.85742 7.06055 8.85742 7.86133C8.85742 8.68164 8.4668 9.18945 7.85156 9.18945Z" fill="var(--color-primary)"/>
 </g>
</svg>
