<?xml version="1.0" encoding="UTF-8"?>
<!--Generator: Apple Native CoreSVG 341-->
<!DOCTYPE svg
PUBLIC "-//W3C//DTD SVG 1.1//EN"
       "http://www.w3.org/Graphics/SVG/1.1/DTD/svg11.dtd">
<svg version="1.1" xmlns="http://www.w3.org/2000/svg" xmlns:xlink="http://www.w3.org/1999/xlink" viewBox="0 0 14.5898 14.248">
 <g>
  <rect height="14.248" opacity="0" width="14.5898" x="0" y="0"/>
  <path d="M2.49023 14.248L11.7383 14.248C13.4082 14.248 14.2285 13.4277 14.2285 11.7871L14.2285 2.4707C14.2285 0.830078 13.4082 0.00976562 11.7383 0.00976562L2.49023 0.00976562C0.830078 0.00976562 0 0.830078 0 2.4707L0 11.7871C0 13.4277 0.830078 14.248 2.49023 14.248Z" fill="white" fill-opacity="0.2125"/>
  <path d="M3.04688 10.2832C2.7832 10.2832 2.55859 10.127 2.55859 9.81445C2.55859 9.7168 2.58789 9.60938 2.60742 9.51172L4.07227 4.4043C4.17969 4.01367 4.41406 3.78906 4.81445 3.78906C5.23438 3.78906 5.44922 3.99414 5.56641 4.39453L7.04102 9.51172C7.07031 9.62891 7.08008 9.73633 7.08008 9.81445C7.08008 10.127 6.85547 10.2832 6.61133 10.2832C6.32812 10.2832 6.18164 10.1367 6.10352 9.85352L5.78125 8.61328L3.84766 8.61328L3.52539 9.85352C3.4668 10.1367 3.29102 10.2832 3.04688 10.2832ZM4.05273 7.8125L5.56641 7.8125L4.83398 4.98047L4.76562 4.98047ZM9.51172 10.8887C9.375 10.8887 9.27734 10.791 9.27734 10.6543L9.27734 10.0781C8.44727 9.99023 7.77344 9.50195 7.61719 8.82812C7.59766 8.74023 7.58789 8.65234 7.58789 8.55469C7.58789 8.27148 7.79297 8.0957 8.04688 8.0957C8.27148 8.0957 8.4375 8.22266 8.50586 8.50586C8.59375 8.86719 8.81836 9.18945 9.27734 9.27734L9.27734 7.41211L8.98438 7.27539C8.13477 6.875 7.65625 6.44531 7.65625 5.58594C7.65625 4.64844 8.33984 4.08203 9.27734 3.99414L9.27734 3.41797C9.27734 3.28125 9.375 3.17383 9.51172 3.17383C9.63867 3.17383 9.74609 3.28125 9.74609 3.41797L9.74609 3.99414C10.5176 4.0625 11.0645 4.48242 11.2695 5.17578C11.3086 5.29297 11.3281 5.41016 11.3281 5.50781C11.3281 5.78125 11.1328 5.94727 10.8594 5.94727C10.6348 5.94727 10.498 5.81055 10.4297 5.5957C10.3027 5.16602 10.1172 4.88281 9.74609 4.80469L9.74609 6.62109L10.0586 6.76758C10.8984 7.1582 11.4355 7.50977 11.4355 8.4375C11.4355 9.47266 10.7031 10.0098 9.74609 10.0781L9.74609 10.6543C9.74609 10.791 9.63867 10.8887 9.51172 10.8887ZM8.59375 5.53711C8.59375 5.94727 8.91602 6.20117 9.27734 6.37695L9.27734 4.79492C8.87695 4.86328 8.59375 5.10742 8.59375 5.53711ZM9.74609 9.28711C10.2148 9.22852 10.498 8.99414 10.498 8.52539C10.498 8.07617 10.1562 7.83203 9.74609 7.63672Z" fill="white" fill-opacity="0.85"/>
 </g>
</svg>
