<?xml version="1.0" encoding="UTF-8"?>
<!--Generator: Apple Native CoreSVG 341-->
<!DOCTYPE svg
PUBLIC "-//W3C//DTD SVG 1.1//EN"
       "http://www.w3.org/Graphics/SVG/1.1/DTD/svg11.dtd">
<svg version="1.1" xmlns="http://www.w3.org/2000/svg" xmlns:xlink="http://www.w3.org/1999/xlink" viewBox="0 0 22.7441 15.0879">
 <g>
  <rect height="15.0879" opacity="0" width="22.7441" x="0" y="0"/>
  <path d="M0 7.53906C0 9.99023 0.78125 12.2461 2.11914 14.1016C2.39258 14.4727 2.86133 14.5117 3.20312 14.2285C3.52539 13.9648 3.56445 13.5352 3.32031 13.1934C2.16797 11.6016 1.50391 9.63867 1.50391 7.53906C1.50391 5.42969 2.16797 3.47656 3.32031 1.875C3.56445 1.54297 3.53516 1.11328 3.20312 0.839844C2.86133 0.556641 2.39258 0.605469 2.11914 0.976562C0.78125 2.82227 0 5.08789 0 7.53906ZM22.3828 7.53906C22.3828 5.08789 21.6016 2.82227 20.2637 0.976562C19.9902 0.605469 19.5215 0.556641 19.1797 0.839844C18.8477 1.11328 18.8184 1.54297 19.0625 1.875C20.2148 3.47656 20.8789 5.42969 20.8789 7.53906C20.8789 9.63867 20.2148 11.6016 19.0625 13.1934C18.8184 13.5352 18.8574 13.9648 19.1797 14.2285C19.5215 14.5117 19.9902 14.4727 20.2637 14.1016C21.6016 12.2461 22.3828 9.99023 22.3828 7.53906Z" fill="white" fill-opacity="0.425"/>
  <path d="M11.1914 15.0781C15.3613 15.0781 18.7305 11.709 18.7305 7.53906C18.7305 3.36914 15.3613 0 11.1914 0C7.03125 0 3.65234 3.36914 3.65234 7.53906C3.65234 11.709 7.03125 15.0781 11.1914 15.0781ZM11.1914 13.5938C7.85156 13.5938 5.13672 10.8789 5.13672 7.53906C5.13672 4.19922 7.85156 1.48438 11.1914 1.48438C14.5312 1.48438 17.2461 4.19922 17.2461 7.53906C17.2461 10.8789 14.5312 13.5938 11.1914 13.5938Z" fill="white" fill-opacity="0.425"/>
  <path d="M8.67188 11.1523C8.98438 11.1523 9.20898 11.0059 9.33594 10.6055L9.85352 9.07227L12.5293 9.07227L13.0371 10.6055C13.1738 11.0059 13.3984 11.1523 13.7109 11.1523C14.0918 11.1523 14.3457 10.9082 14.3457 10.5566C14.3457 10.4199 14.3164 10.293 14.2578 10.1074L12.168 4.44336C11.9922 3.99414 11.6602 3.75977 11.1816 3.75977C10.7129 3.75977 10.3809 3.99414 10.2148 4.44336L8.125 10.1074C8.05664 10.293 8.02734 10.4199 8.02734 10.5566C8.02734 10.9082 8.28125 11.1523 8.67188 11.1523ZM10.1953 8.03711L11.1426 5.20508L11.2402 5.20508L12.1875 8.03711Z" fill="white" fill-opacity="0.85"/>
 </g>
</svg>
