<?xml version="1.0" encoding="UTF-8"?>
<!--Generator: Apple Native CoreSVG 341-->
<!DOCTYPE svg
PUBLIC "-//W3C//DTD SVG 1.1//EN"
       "http://www.w3.org/Graphics/SVG/1.1/DTD/svg11.dtd">
<svg version="1.1" xmlns="http://www.w3.org/2000/svg" xmlns:xlink="http://www.w3.org/1999/xlink" viewBox="0 0 14.679 16.7519">
 <g>
  <rect height="16.7519" opacity="0" width="14.679" x="0" y="0"/>
  <path d="M0.752601 5.29489L1.27994 5.49021C1.91471 5.71482 2.51041 5.42185 2.75455 4.76755L3.8483 1.75974C4.09244 1.10544 3.80924 0.499972 3.18424 0.265597L2.6569 0.0800497C2.02213-0.154325 1.42643 0.138643 1.18229 0.79294L0.0885383 3.80075C-0.155602 4.45505 0.117835 5.06052 0.752601 5.29489ZM11.1335 5.29489L11.6608 5.49021C12.2956 5.71482 12.8913 5.42185 13.1354 4.76755L14.2292 1.75974C14.4733 1.10544 14.1901 0.499972 13.5651 0.265597L13.0378 0.0800497C12.403-0.154325 11.8073 0.138643 11.5631 0.79294L10.4694 3.80075C10.2253 4.45505 10.5085 5.06052 11.1335 5.29489ZM1.6901 16.7402L2.24674 16.7402C2.92057 16.7402 3.37955 16.2519 3.37955 15.5586L3.37955 12.3554C3.37955 11.6718 2.92057 11.1836 2.24674 11.1836L1.6901 11.1836C1.01627 11.1836 0.557288 11.6718 0.557288 12.3554L0.557288 15.5586C0.557288 16.2519 1.01627 16.7402 1.6901 16.7402ZM12.071 16.7402L12.6276 16.7402C13.3014 16.7402 13.7604 16.2519 13.7604 15.5586L13.7604 12.3554C13.7604 11.6718 13.3014 11.1836 12.6276 11.1836L12.071 11.1836C11.3971 11.1836 10.9381 11.6718 10.9381 12.3554L10.9381 15.5586C10.9381 16.2519 11.3971 16.7402 12.071 16.7402ZM2.68619 3.48825L11.6315 3.48825L11.6315 2.07224L2.68619 2.07224ZM6.45573 14.1133L7.86198 14.1133L7.86198 2.07224L6.45573 2.07224ZM2.68619 14.6699L11.6315 14.6699L11.6315 13.2539L2.68619 13.2539Z" fill="white" fill-opacity="0.85"/>
 </g>
</svg>
