<svg version="1.1" xmlns="http://www.w3.org/2000/svg" xmlns:xlink="http://www.w3.org/1999/xlink" viewBox="0 0 13.2426 20.4395">
 <g>
  <rect height="20.4395" opacity="0" width="13.2426" x="0" y="0"/>
  <path d="M4.07247 19.6484L8.79904 19.6484C11.5334 19.6484 12.9006 18.2617 12.8811 15.4883C12.8518 12.3828 12.8322 10.1172 12.7541 8.41797C12.5295 3.38867 11.0842 1.9043 6.43575 1.9043C1.78732 1.9043 0.35177 3.38867 0.127161 8.41797C0.0490359 10.1172 0.0295047 12.3828 0.000207779 15.4883C-0.0193235 18.2617 1.3381 19.6484 4.07247 19.6484ZM3.79904 16.5625C3.12521 16.5625 2.70529 16.123 2.70529 15.4688L2.70529 11.377C2.70529 10.7227 3.12521 10.2832 3.79904 10.2832L9.08224 10.2832C9.7463 10.2832 10.176 10.7227 10.176 11.377L10.176 15.4688C10.176 16.123 9.7463 16.5625 9.08224 16.5625ZM2.70529 13.3691L10.176 13.3691L10.176 12.3438L2.70529 12.3438ZM6.43575 0C4.86349 0 3.76974 1.07422 3.76974 2.50977L4.99044 2.50977C4.99044 1.76758 5.57638 1.23047 6.43575 1.23047C7.29513 1.23047 7.88107 1.76758 7.88107 2.50977L9.11154 2.50977C9.11154 1.07422 8.01779 0 6.43575 0Z" fill="var(--color-primary)"/>
 </g>
</svg>
