<?xml version="1.0" encoding="UTF-8"?>
<!--Generator: Apple Native CoreSVG 341-->
<!DOCTYPE svg
PUBLIC "-//W3C//DTD SVG 1.1//EN"
       "http://www.w3.org/Graphics/SVG/1.1/DTD/svg11.dtd">
<svg version="1.1" xmlns="http://www.w3.org/2000/svg" xmlns:xlink="http://www.w3.org/1999/xlink" viewBox="0 0 15.332 11.8848">
 <g>
  <rect height="11.8848" opacity="0" width="15.332" x="0" y="0"/>
  <path d="M0 11.8359L1.25977 11.8359L1.25977 0L0 0ZM2.4707 11.8359L3.19336 11.8359L3.19336 0L2.4707 0ZM4.39453 11.8359L6.44531 11.8359L6.44531 0L4.39453 0ZM7.19727 11.8359L8.50586 11.8359L8.50586 0L7.19727 0ZM9.28711 11.8359L11.3184 11.8359L11.3184 0L9.28711 0ZM11.9434 11.8359L13.5352 11.8359L13.5352 0L11.9434 0ZM13.9355 11.8359L14.9707 11.8359L14.9707 0L13.9355 0Z" fill="white" fill-opacity="0.85"/>
 </g>
</svg>
