<?xml version="1.0" encoding="UTF-8"?>
<!--Generator: Apple Native CoreSVG 341-->
<!DOCTYPE svg
PUBLIC "-//W3C//DTD SVG 1.1//EN"
       "http://www.w3.org/Graphics/SVG/1.1/DTD/svg11.dtd">
<svg version="1.1" xmlns="http://www.w3.org/2000/svg" xmlns:xlink="http://www.w3.org/1999/xlink" viewBox="0 0 21.123 12.5293">
 <g>
  <rect height="12.5293" opacity="0" width="21.123" x="0" y="0"/>
  <path d="M0 1.69922C0 2.65625 0.742188 3.38867 1.68945 3.38867L19.0723 3.38867C20.0195 3.38867 20.7617 2.65625 20.7617 1.69922C20.7617 0.732422 20.0195 0 19.0723 0L1.68945 0C0.742188 0 0 0.732422 0 1.69922ZM1.38672 1.69922C1.38672 1.50391 1.54297 1.35742 1.74805 1.35742L19.0039 1.35742C19.2188 1.35742 19.3652 1.50391 19.3652 1.69922C19.3652 1.88477 19.2188 2.03125 19.0039 2.03125L1.74805 2.03125C1.54297 2.03125 1.38672 1.88477 1.38672 1.69922ZM5.9082 10.625L14.8438 10.625C17.8027 10.625 19.3359 9.16992 19.3359 6.35742L19.3359 2.74414L17.9297 2.74414L17.9297 6.35742C17.9297 8.24219 16.875 9.21875 14.8438 9.21875L5.9082 9.21875C3.88672 9.21875 2.83203 8.24219 2.83203 6.35742L2.83203 2.74414L1.41602 2.74414L1.41602 6.35742C1.41602 9.16992 2.95898 10.625 5.9082 10.625ZM3.71094 12.3828C4.08203 12.5195 4.49219 12.3242 4.62891 11.9629L5.29297 10.1172L3.97461 9.63867L3.30078 11.4746C3.17383 11.8457 3.35938 12.2559 3.71094 12.3828ZM17.041 12.3828C17.4023 12.2559 17.5879 11.8457 17.4609 11.4746L16.7871 9.63867L15.4688 10.1172L16.1328 11.9629C16.2598 12.3242 16.6797 12.5195 17.041 12.3828Z" fill="white" fill-opacity="0.85"/>
 </g>
</svg>
