<svg version="1.1" xmlns="http://www.w3.org/2000/svg" xmlns:xlink="http://www.w3.org/1999/xlink" viewBox="0 0 13.8099 12.8027">
 <g>
  <rect height="12.8027" opacity="0" width="13.8099" x="0" y="0"/>
  <path d="M7.68621 8.03711C8.77996 7.55859 9.3073 6.29883 8.82879 5.20508L7.25652 1.61133C6.76824 0.507812 5.50847-0.00976562 4.41472 0.458984C3.31121 0.927734 2.79363 2.2168 3.26238 3.30078L4.84441 6.89453C5.32293 7.96875 6.58269 8.50586 7.68621 8.03711ZM6.90496 7.37305C6.16277 7.37305 5.5866 6.79688 5.5866 6.06445C5.5866 5.3418 6.16277 4.75586 6.90496 4.75586C7.62762 4.75586 8.20379 5.3418 8.20379 6.06445C8.20379 6.79688 7.63738 7.37305 6.90496 7.37305ZM6.90496 6.79688C7.31512 6.79688 7.62762 6.47461 7.62762 6.06445C7.62762 5.66406 7.31512 5.33203 6.90496 5.33203C6.47527 5.33203 6.16277 5.66406 6.16277 6.06445C6.16277 6.47461 6.47527 6.79688 6.90496 6.79688ZM0.166678 5.74219C-0.409494 7.75391 0.537772 9.60938 2.54949 10.4004L4.0241 10.9863C6.46551 11.9434 8.96551 11.4355 9.94207 8.69141C10.4889 7.20703 10.3229 5.85938 9.56121 4.96094C10.1667 6.42578 9.46355 8.10547 7.98894 8.75C6.50457 9.36523 4.79558 8.68164 4.14129 7.19727L2.55926 3.61328C2.48113 3.42773 2.42254 3.26172 2.38347 3.07617C1.54363 3.78906 0.567068 4.42383 0.166678 5.74219Z" fill="var(--color-primary)"/>
  <path d="M10.6647 8.95508C10.1081 10.498 9.07293 11.5234 7.75457 11.9629C8.36004 12.4902 9.14129 12.8027 10.0007 12.8027C11.905 12.8027 13.4479 11.25 13.4479 9.33594C13.4479 7.75391 12.3639 6.41602 10.9186 6.00586C11.1237 6.97266 11.0358 7.95898 10.6647 8.95508Z" fill="var(--color-secondary)"/>
  <path d="M6.90496 7.37305C6.16277 7.37305 5.5866 6.79688 5.5866 6.06445C5.5866 5.3418 6.16277 4.75586 6.90496 4.75586C7.62762 4.75586 8.20379 5.3418 8.20379 6.06445C8.20379 6.79688 7.63738 7.37305 6.90496 7.37305ZM6.90496 6.79688C7.31512 6.79688 7.62762 6.47461 7.62762 6.06445C7.62762 5.66406 7.31512 5.33203 6.90496 5.33203C6.47527 5.33203 6.16277 5.66406 6.16277 6.06445C6.16277 6.47461 6.47527 6.79688 6.90496 6.79688Z" fill="var(--color-tertiary)"/>
 </g>
</svg>
