<?xml version="1.0" encoding="UTF-8"?>
<!--Generator: Apple Native CoreSVG 341-->
<!DOCTYPE svg
PUBLIC "-//W3C//DTD SVG 1.1//EN"
       "http://www.w3.org/Graphics/SVG/1.1/DTD/svg11.dtd">
<svg version="1.1" xmlns="http://www.w3.org/2000/svg" xmlns:xlink="http://www.w3.org/1999/xlink" viewBox="0 0 11.091 15.791">
 <g>
  <rect height="15.791" opacity="0" width="11.091" x="0" y="0"/>
  <path d="M7.00544 12.1094C8.08943 12.1094 8.96833 11.2305 8.96833 10.1465C8.96833 9.05273 8.08943 8.17383 7.00544 8.17383L0.687081 8.17383C0.257394 8.17383-0.035575 8.48633 0.00348751 8.92578L0.257394 11.5234C0.286691 11.8848 0.569894 12.1094 0.901925 12.1094ZM7.00544 10.8496C7.39607 10.8496 7.70857 10.5371 7.70857 10.1465C7.70857 9.75586 7.39607 9.43359 7.00544 9.43359C6.61482 9.43359 6.29255 9.75586 6.29255 10.1465C6.29255 10.5371 6.61482 10.8496 7.00544 10.8496ZM2.51325 15.791L2.23982 13.1543L1.48786 13.1543L1.7613 15.791ZM7.00544 11.4258C6.29255 11.4258 5.71638 10.8594 5.71638 10.1465C5.71638 9.44336 6.29255 8.85742 7.00544 8.85742C7.71833 8.85742 8.28474 9.44336 8.28474 10.1465C8.28474 10.8594 7.71833 11.4258 7.00544 11.4258ZM3.73396 0C1.30232 0 0.0523156 1.65039 0.345284 4.60938L1.24372 13.5059C1.32185 14.2676 2.62068 14.2676 2.53278 13.4277L1.61482 4.66797C1.39021 2.55859 2.22028 1.30859 3.82185 1.30859C6.4488 1.30859 9.40778 4.16992 9.40778 7.75391C9.40778 8.00781 9.38825 8.38867 9.33943 8.73047C9.59333 9.14062 9.73982 9.62891 9.73982 10.1465C9.73982 11.4844 8.76325 12.6074 7.48396 12.832C7.43513 13.2617 7.4156 13.4863 7.4156 13.7305C7.4156 14.668 7.71833 15.0488 8.11872 15.0488C9.73982 15.0488 10.7261 10.8496 10.7261 7.82227C10.7261 3.22266 7.36677 0 3.73396 0Z" fill="white" fill-opacity="0.85"/>
  <path d="M7.00544 10.8496C7.39607 10.8496 7.70857 10.5371 7.70857 10.1465C7.70857 9.75586 7.39607 9.43359 7.00544 9.43359C6.61482 9.43359 6.29255 9.75586 6.29255 10.1465C6.29255 10.5371 6.61482 10.8496 7.00544 10.8496ZM7.00544 11.4258C6.29255 11.4258 5.71638 10.8594 5.71638 10.1465C5.71638 9.44336 6.29255 8.85742 7.00544 8.85742C7.71833 8.85742 8.28474 9.44336 8.28474 10.1465C8.28474 10.8594 7.71833 11.4258 7.00544 11.4258Z" fill="white" fill-opacity="0.2125"/>
 </g>
</svg>
