<svg version="1.1" xmlns="http://www.w3.org/2000/svg" xmlns:xlink="http://www.w3.org/1999/xlink" viewBox="0 0 17.832 15.3809">
 <g>
  <rect height="15.3809" opacity="0" width="17.832" x="0" y="0"/>
  <path d="M5.76172 15.3711L11.709 15.3711C15.4004 15.3711 17.4707 13.3887 17.4707 9.82422L17.4707 5.54688C17.4707 1.98242 15.4004 0 11.709 0L5.76172 0C2.07031 0 0 1.98242 0 5.54688L0 9.82422C0 13.3887 2.07031 15.3711 5.76172 15.3711ZM8.73047 9.78516C7.72461 9.78516 6.96289 9.01367 6.96289 8.03711L6.96289 5.46875L7.76367 5.11719L7.76367 6.5332C8.05664 6.30859 8.38867 6.2207 8.73047 6.2207C9.70703 6.2207 10.5176 7.04102 10.5176 8.03711C10.5176 8.99414 9.7168 9.78516 8.73047 9.78516ZM8.73047 8.99414C9.25781 8.99414 9.70703 8.55469 9.70703 8.03711C9.70703 7.5 9.25781 7.05078 8.73047 7.05078C8.22266 7.05078 7.76367 7.49023 7.76367 8.03711C7.76367 8.55469 8.20312 8.99414 8.73047 8.99414Z" fill="var(--color-primary)"/>
 </g>
</svg>
