<?xml version="1.0" encoding="UTF-8"?>
<!--Generator: Apple Native CoreSVG 341-->
<!DOCTYPE svg
PUBLIC "-//W3C//DTD SVG 1.1//EN"
       "http://www.w3.org/Graphics/SVG/1.1/DTD/svg11.dtd">
<svg version="1.1" xmlns="http://www.w3.org/2000/svg" xmlns:xlink="http://www.w3.org/1999/xlink" viewBox="0 0 19.9902 13.2715">
 <g>
  <rect height="13.2715" opacity="0" width="19.9902" x="0" y="0"/>
  <path d="M0.693359 13.252L1.18164 13.252C1.5918 13.252 1.86523 12.9688 1.86523 12.5586L1.86523 11.4551C1.96289 11.4844 2.25586 11.5039 2.46094 11.5039L17.168 11.5039C17.373 11.5039 17.666 11.4844 17.7637 11.4551L17.7637 12.5586C17.7637 12.9688 18.0371 13.252 18.4473 13.252L18.9355 13.252C19.3555 13.252 19.6289 12.9688 19.6289 12.5586L19.6289 7.29492C19.6289 5.72266 18.7695 4.88281 17.1777 4.88281L2.46094 4.88281C0.859375 4.88281 0 5.72266 0 7.29492L0 12.5586C0 12.9688 0.273438 13.252 0.693359 13.252ZM1.72852 10.2344C1.5625 10.2344 1.45508 10.1172 1.45508 9.92188L1.45508 7.08984C1.45508 6.52344 1.85547 6.15234 2.44141 6.15234L17.1875 6.15234C17.7832 6.15234 18.1738 6.52344 18.1738 7.08984L18.1738 9.92188C18.1738 10.1172 18.0664 10.2344 17.9102 10.2344ZM2.02148 5.07812L4.07227 5.07812L4.07227 3.49609C4.07227 2.76367 4.47266 2.37305 5.22461 2.37305L7.89062 2.37305C8.63281 2.37305 9.0332 2.76367 9.0332 3.49609L9.0332 5.07812L10.5957 5.07812L10.5957 3.49609C10.5957 2.76367 10.9961 2.37305 11.7383 2.37305L14.4043 2.37305C15.1562 2.37305 15.5566 2.76367 15.5566 3.49609L15.5566 5.07812L17.6074 5.07812L17.6074 2.23633C17.6074 0.771484 16.8164 0 15.3516 0L4.27734 0C2.8125 0 2.02148 0.771484 2.02148 2.23633Z" fill="white" fill-opacity="0.85"/>
 </g>
</svg>
