<?xml version="1.0" encoding="UTF-8"?>
<!--Generator: Apple Native CoreSVG 341-->
<!DOCTYPE svg
PUBLIC "-//W3C//DTD SVG 1.1//EN"
       "http://www.w3.org/Graphics/SVG/1.1/DTD/svg11.dtd">
<svg version="1.1" xmlns="http://www.w3.org/2000/svg" xmlns:xlink="http://www.w3.org/1999/xlink" viewBox="0 0 14.5898 14.248">
 <g>
  <rect height="14.248" opacity="0" width="14.5898" x="0" y="0"/>
  <path d="M2.49023 14.248L11.7383 14.248C13.4082 14.248 14.2285 13.4277 14.2285 11.7871L14.2285 2.4707C14.2285 0.830078 13.4082 0.00976562 11.7383 0.00976562L2.49023 0.00976562C0.830078 0.00976562 0 0.830078 0 2.4707L0 11.7871C0 13.4277 0.830078 14.248 2.49023 14.248Z" fill="white" fill-opacity="0.2125"/>
  <path d="M3.70117 9.98047C3.23242 9.98047 2.95898 9.73633 2.95898 9.39453C2.95898 8.95508 3.41797 8.56445 3.79883 8.16406C4.05273 7.90039 4.14062 7.38281 4.15039 7.00195C4.16016 5.18555 4.60938 3.96484 5.80078 3.49609C6.00586 2.93945 6.45508 2.4707 7.12891 2.4707C7.79297 2.4707 8.25195 2.93945 8.44727 3.49609C9.63867 3.96484 10.0977 5.18555 10.0977 7.00195C10.1074 7.38281 10.1855 7.90039 10.4492 8.16406C10.8398 8.55469 11.2891 8.95508 11.2891 9.39453C11.2891 9.73633 11.0156 9.98047 10.5469 9.98047ZM7.12891 11.875C6.35742 11.875 5.79102 11.3086 5.75195 10.6738L8.49609 10.6738C8.45703 11.3086 7.89062 11.875 7.12891 11.875Z" fill="white" fill-opacity="0.85"/>
 </g>
</svg>
