<?xml version="1.0" encoding="UTF-8"?>
<!--Generator: Apple Native CoreSVG 341-->
<!DOCTYPE svg
PUBLIC "-//W3C//DTD SVG 1.1//EN"
       "http://www.w3.org/Graphics/SVG/1.1/DTD/svg11.dtd">
<svg version="1.1" xmlns="http://www.w3.org/2000/svg" xmlns:xlink="http://www.w3.org/1999/xlink" viewBox="0 0 16.1328 15.7715">
 <g>
  <rect height="15.7715" opacity="0" width="16.1328" x="0" y="0"/>
  <path d="M7.88086 15.7617C12.2363 15.7617 15.7715 12.2363 15.7715 7.88086C15.7715 3.52539 12.2363 0 7.88086 0C3.53516 0 0 3.52539 0 7.88086C0 12.2363 3.53516 15.7617 7.88086 15.7617ZM7.88086 14.2773C4.3457 14.2773 1.49414 11.416 1.49414 7.88086C1.49414 4.3457 4.3457 1.48438 7.88086 1.48438C11.416 1.48438 14.2773 4.3457 14.2773 7.88086C14.2773 11.416 11.416 14.2773 7.88086 14.2773Z" fill="white" fill-opacity="0.425"/>
  <path d="M2.97852 9.55078C2.97852 10.6445 3.93555 11.4551 5.11719 11.4551C6.28906 11.4551 7.27539 10.6445 7.27539 9.55078L7.27539 8.63281C7.44141 8.57422 7.65625 8.53516 7.87109 8.53516C8.125 8.53516 8.32031 8.55469 8.48633 8.60352L8.48633 9.55078C8.48633 10.6445 9.45312 11.4551 10.625 11.4551C11.8066 11.4551 12.7734 10.6445 12.7734 9.55078C12.7734 9.25781 12.7441 9.00391 12.5879 8.60352L11.0352 4.93164C10.8203 4.42383 10.332 4.12109 9.73633 4.12109C8.97461 4.12109 8.48633 4.59961 8.48633 5.32227L8.48633 5.625C8.30078 5.57617 8.10547 5.55664 7.87109 5.55664C7.66602 5.55664 7.46094 5.58594 7.27539 5.64453L7.27539 5.32227C7.27539 4.59961 6.77734 4.12109 6.01562 4.12109C5.41992 4.12109 4.94141 4.42383 4.72656 4.93164L3.16406 8.60352C3.00781 9.00391 2.97852 9.25781 2.97852 9.55078ZM3.83789 9.55078C3.83789 8.92578 4.36523 8.48633 5.11719 8.48633C5.89844 8.48633 6.42578 8.92578 6.42578 9.55078C6.42578 10.166 5.89844 10.6055 5.11719 10.6055C4.36523 10.6055 3.83789 10.166 3.83789 9.55078ZM9.31641 9.55078C9.31641 8.92578 9.85352 8.48633 10.625 8.48633C11.3867 8.48633 11.9141 8.92578 11.9141 9.55078C11.9141 10.166 11.3867 10.6055 10.625 10.6055C9.85352 10.6055 9.31641 10.166 9.31641 9.55078ZM7.27539 7.44141L7.27539 6.83594C7.45117 6.79688 7.66602 6.75781 7.87109 6.75781C8.10547 6.75781 8.30078 6.78711 8.48633 6.82617L8.48633 7.39258C8.32031 7.36328 8.125 7.33398 7.87109 7.33398C7.65625 7.33398 7.44141 7.37305 7.27539 7.44141Z" fill="white" fill-opacity="0.85"/>
 </g>
</svg>
