<svg version="1.1" xmlns="http://www.w3.org/2000/svg" xmlns:xlink="http://www.w3.org/1999/xlink" viewBox="0 0 18.6286 20.4671">
 <g>
  <rect height="20.4671" opacity="0" width="18.6286" x="0" y="0"/>
  <path d="M12.8446 5.07244C11.6336 5.07244 10.7645 5.77556 10.2274 7.21111C7.91294 4.90642 4.40708 2.93376 0.93052 2.67009C0.139504 2.62126 0.0320824 3.22673 0.0125511 3.70525C-0.221824 7.60173 2.85435 11.0588 6.88755 11.342C5.74497 14.0373 3.98716 15.9611 2.30747 17.5236C2.00474 17.8068 2.10239 18.1779 2.28794 18.4611C3.18638 19.8478 6.01841 20.6779 7.92271 20.0138C8.38169 19.8478 8.45005 19.6232 8.45005 19.2717L8.45005 16.4006C10.4422 16.2931 13.7918 14.926 13.2938 10.6388L13.2352 10.092C14.8075 9.71111 15.8719 8.69548 15.8719 7.63103C15.8719 6.38103 14.5047 5.07244 12.8446 5.07244ZM13.6551 7.79705C13.3817 7.79705 13.1668 7.59197 13.1668 7.31853C13.1668 7.05486 13.3817 6.82048 13.6551 6.82048C13.9188 6.82048 14.1434 7.05486 14.1434 7.31853C14.1434 7.59197 13.9188 7.79705 13.6551 7.79705ZM14.6903 8.81267L17.6786 9.25212C18.2352 9.33025 18.5184 8.49041 17.9422 8.2365L15.2372 7.08416ZM11.8485 4.05681C10.8622 2.33806 9.61216 1.06853 8.03013 0.170093C7.37583-0.210766 6.72154 0.0724366 6.53599 0.775562C6.34068 1.53728 6.20396 2.25017 6.15513 2.97283C7.53208 3.62712 8.81138 4.46697 9.92466 5.3947C10.4325 4.71111 11.0868 4.26189 11.8485 4.05681Z" fill="var(--color-primary)"/>
 </g>
</svg>
