<?xml version="1.0" encoding="UTF-8"?>
<!--Generator: Apple Native CoreSVG 341-->
<!DOCTYPE svg
PUBLIC "-//W3C//DTD SVG 1.1//EN"
       "http://www.w3.org/Graphics/SVG/1.1/DTD/svg11.dtd">
<svg version="1.1" xmlns="http://www.w3.org/2000/svg" xmlns:xlink="http://www.w3.org/1999/xlink" viewBox="0 0 17.6172 17.2754">
 <g>
  <rect height="17.2754" opacity="0" width="17.6172" x="0" y="0"/>
  <path d="M8.63281 17.2656C13.3594 17.2656 17.2559 13.3691 17.2559 8.63281C17.2559 3.89648 13.3594 0 8.63281 0C3.89648 0 0 3.89648 0 8.63281C0 13.3691 3.89648 17.2656 8.63281 17.2656ZM8.63281 14.3555C5.46875 14.3555 2.91016 11.7969 2.91016 8.63281C2.91016 5.46875 5.46875 2.91016 8.63281 2.91016C11.7871 2.91016 14.3457 5.46875 14.3457 8.63281C14.3457 11.7969 11.7871 14.3555 8.63281 14.3555Z" fill="white" fill-opacity="0.425"/>
  <path d="M7.03125 12.0508L8.94531 12.0508C10.3027 12.0508 11.2988 11.416 11.2988 10.1367C11.2988 9.24805 10.6934 8.57422 9.7168 8.45703L9.7168 8.41797C10.4688 8.29102 10.957 7.60742 10.957 6.94336C10.957 5.83984 10.0586 5.24414 8.92578 5.24414L7.03125 5.24414C6.66016 5.24414 6.41602 5.48828 6.41602 5.85938L6.41602 11.4355C6.41602 11.8066 6.66016 12.0508 7.03125 12.0508ZM7.41211 8.13477L7.41211 6.06445L8.68164 6.06445C9.39453 6.06445 9.96094 6.33789 9.96094 7.06055C9.96094 7.87109 9.25781 8.13477 8.44727 8.13477ZM7.41211 11.2207L7.41211 8.94531L8.67188 8.94531C9.55078 8.94531 10.293 9.20898 10.293 10.0781C10.293 10.9375 9.60938 11.2207 8.75 11.2207ZM7.40234 5.74219L7.95898 5.74219L7.95898 4.51172C7.95898 4.3457 7.8418 4.22852 7.68555 4.22852C7.50977 4.22852 7.40234 4.3457 7.40234 4.51172ZM8.67188 5.74219L9.23828 5.74219L9.23828 4.51172C9.23828 4.3457 9.12109 4.22852 8.95508 4.22852C8.78906 4.22852 8.67188 4.3457 8.67188 4.51172ZM7.40234 11.5527L7.40234 12.7832C7.40234 12.9492 7.50977 13.0566 7.68555 13.0566C7.8418 13.0566 7.95898 12.9492 7.95898 12.7832L7.95898 11.5527ZM8.67188 11.5527L8.67188 12.7832C8.67188 12.9492 8.78906 13.0566 8.95508 13.0566C9.12109 13.0566 9.23828 12.9492 9.23828 12.7832L9.23828 11.5527Z" fill="white" fill-opacity="0.85"/>
 </g>
</svg>
