<?xml version="1.0" encoding="UTF-8"?>
<!--Generator: Apple Native CoreSVG 341-->
<!DOCTYPE svg
PUBLIC "-//W3C//DTD SVG 1.1//EN"
       "http://www.w3.org/Graphics/SVG/1.1/DTD/svg11.dtd">
<svg version="1.1" xmlns="http://www.w3.org/2000/svg" xmlns:xlink="http://www.w3.org/1999/xlink" viewBox="0 0 15.7324 14.7754">
 <g>
  <rect height="14.7754" opacity="0" width="15.7324" x="0" y="0"/>
  <path d="M15.3711 5.21484C15.3711 8.52539 12.6758 11.7676 8.29102 14.541C8.11523 14.6582 7.86133 14.7754 7.68555 14.7754C7.51953 14.7754 7.25586 14.6582 7.08008 14.541C2.69531 11.7676 0 8.52539 0 5.21484C0 2.46094 1.89453 0.507812 4.32617 0.507812C5.85938 0.507812 6.98242 1.35742 7.68555 2.61719C8.39844 1.34766 9.51172 0.507812 11.0449 0.507812C13.4766 0.507812 15.3711 2.46094 15.3711 5.21484ZM8.42773 4.18945L5.3125 8.10547C5.24414 8.17383 5.21484 8.26172 5.21484 8.33984C5.21484 8.50586 5.33203 8.62305 5.49805 8.62305L7.42188 8.62305L6.39648 11.3672C6.25 11.7676 6.67969 11.9824 6.93359 11.6602L10.0586 7.74414C10.1172 7.67578 10.1562 7.58789 10.1562 7.50977C10.1562 7.34375 10.0293 7.22656 9.87305 7.22656L7.93945 7.22656L8.96484 4.48242C9.12109 4.08203 8.69141 3.86719 8.42773 4.18945Z" fill="white" fill-opacity="0.85"/>
 </g>
</svg>
