<?xml version="1.0" encoding="UTF-8"?>
<!--Generator: Apple Native CoreSVG 341-->
<!DOCTYPE svg
PUBLIC "-//W3C//DTD SVG 1.1//EN"
       "http://www.w3.org/Graphics/SVG/1.1/DTD/svg11.dtd">
<svg version="1.1" xmlns="http://www.w3.org/2000/svg" xmlns:xlink="http://www.w3.org/1999/xlink" viewBox="0 0 18.6621 14.4434">
 <g>
  <rect height="14.4434" opacity="0" width="18.6621" x="0" y="0"/>
  <path d="M9.15039 12.207C11.7578 12.207 15.1758 12.0801 16.6309 11.9141C17.7051 11.7969 18.3008 11.1914 18.3008 10.1855L18.3008 8.83789C18.3008 7.56836 18.0566 6.82617 17.3145 5.86914L16.6797 5.03906C16.3965 3.66211 15.8887 2.2168 15.625 1.65039C15.2148 0.791016 14.4141 0.244141 13.3594 0.107422C12.8418 0.0390625 11.1914 0 9.15039 0C7.10938 0 5.44922 0.0488281 4.94141 0.107422C3.88672 0.234375 3.08594 0.791016 2.67578 1.65039C2.41211 2.2168 1.9043 3.66211 1.62109 5.03906L0.986328 5.86914C0.244141 6.82617 0 7.56836 0 8.83789L0 10.1855C0 11.1914 0.595703 11.7969 1.66992 11.9141C3.125 12.0801 6.54297 12.207 9.15039 12.207ZM9.15039 11.084C6.50391 11.084 3.17383 10.9668 1.99219 10.8203C1.34766 10.7324 1.13281 10.3906 1.13281 9.81445L1.13281 8.83789C1.13281 7.79297 1.29883 7.32422 1.875 6.5625L2.67578 5.52734C2.86133 4.47266 3.35938 2.90039 3.70117 2.16797C3.93555 1.66016 4.4043 1.33789 5.07812 1.25977C5.57617 1.20117 7.09961 1.12305 9.15039 1.12305C11.2012 1.12305 12.7637 1.20117 13.2031 1.25977C13.9062 1.34766 14.3555 1.66992 14.5996 2.16797C14.9414 2.90039 15.4297 4.47266 15.625 5.52734L16.416 6.5625C17.002 7.32422 17.168 7.79297 17.168 8.83789L17.168 9.81445C17.168 10.3906 16.9434 10.7422 16.3086 10.8203C15.127 10.9668 11.7871 11.084 9.15039 11.084ZM1.41602 14.3457L2.33398 14.3457C2.91992 14.3457 3.36914 13.9062 3.36914 13.3301L3.36914 11.416L0.390625 10.9766L0.390625 13.3301C0.390625 13.9062 0.839844 14.3457 1.41602 14.3457ZM15.9668 14.3457L16.875 14.3457C17.4609 14.3457 17.9102 13.9062 17.9102 13.3301L17.9102 10.9766L14.9316 11.416L14.9316 13.3301C14.9316 13.9062 15.3809 14.3457 15.9668 14.3457Z" fill="white" fill-opacity="0.425"/>
  <path d="M6.71875 6.5625C6.71875 6.71875 6.8457 6.83594 6.99219 6.83594L8.85742 6.83594L7.87109 9.48242C7.72461 9.87305 8.14453 10.0781 8.38867 9.76562L11.3965 5.98633C11.4648 5.91797 11.5039 5.83008 11.5039 5.75195C11.5039 5.60547 11.3672 5.48828 11.2207 5.48828L9.36523 5.48828L10.3418 2.8418C10.4883 2.45117 10.0781 2.23633 9.83398 2.55859L6.81641 6.33789C6.75781 6.41602 6.71875 6.49414 6.71875 6.5625Z" fill="white" fill-opacity="0.85"/>
 </g>
</svg>
