<svg version="1.1" xmlns="http://www.w3.org/2000/svg" xmlns:xlink="http://www.w3.org/1999/xlink" viewBox="0 0 15.7324 14.7754">
 <g>
  <rect height="14.7754" opacity="0" width="15.7324" x="0" y="0"/>
  <path d="M7.68555 14.7754C7.86133 14.7754 8.11523 14.6582 8.29102 14.541C12.6758 11.7676 15.3711 8.52539 15.3711 5.21484C15.3711 2.46094 13.4766 0.507812 11.0449 0.507812C9.51172 0.507812 8.39844 1.34766 7.68555 2.61719C6.98242 1.35742 5.85938 0.507812 4.32617 0.507812C1.89453 0.507812 0 2.46094 0 5.21484C0 8.52539 2.69531 11.7676 7.08008 14.541C7.25586 14.6582 7.51953 14.7754 7.68555 14.7754Z" fill="var(--color-tertiary)"/>
  <path d="M5.21484 8.33984C5.21484 8.26172 5.24414 8.17383 5.3125 8.10547L8.42773 4.18945C8.69141 3.86719 9.12109 4.08203 8.96484 4.48242L7.93945 7.22656L9.87305 7.22656C10.0293 7.22656 10.1562 7.34375 10.1562 7.50977C10.1562 7.58789 10.1172 7.67578 10.0586 7.74414L6.93359 11.6602C6.67969 11.9824 6.25 11.7676 6.39648 11.3672L7.42188 8.62305L5.49805 8.62305C5.33203 8.62305 5.21484 8.50586 5.21484 8.33984Z" fill="var(--color-primary)"/>
 </g>
</svg>
