<?xml version="1.0" encoding="UTF-8"?>
<!--Generator: Apple Native CoreSVG 341-->
<!DOCTYPE svg
PUBLIC "-//W3C//DTD SVG 1.1//EN"
       "http://www.w3.org/Graphics/SVG/1.1/DTD/svg11.dtd">
<svg version="1.1" xmlns="http://www.w3.org/2000/svg" xmlns:xlink="http://www.w3.org/1999/xlink" viewBox="0 0 14.5898 14.248">
 <g>
  <rect height="14.248" opacity="0" width="14.5898" x="0" y="0"/>
  <path d="M14.2285 2.4707L14.2285 11.7871C14.2285 13.4277 13.4082 14.248 11.7383 14.248L2.49023 14.248C0.830078 14.248 0 13.4277 0 11.7871L0 2.4707C0 0.830078 0.830078 0.00976562 2.49023 0.00976562L11.7383 0.00976562C13.4082 0.00976562 14.2285 0.830078 14.2285 2.4707ZM8.08594 1.94336L3.79883 7.30469C3.71094 7.40234 3.67188 7.5293 3.67188 7.63672C3.67188 7.85156 3.83789 8.01758 4.0625 8.01758L6.69922 8.01758L5.30273 11.7871C5.08789 12.334 5.68359 12.627 6.03516 12.1875L10.3125 6.81641C10.4004 6.71875 10.4492 6.5918 10.4492 6.49414C10.4492 6.26953 10.2832 6.11328 10.0586 6.11328L7.41211 6.11328L8.81836 2.34375C9.02344 1.79688 8.4375 1.50391 8.08594 1.94336Z" fill="white" fill-opacity="0.85"/>
 </g>
</svg>
