<?xml version="1.0" encoding="UTF-8"?>
<!--Generator: Apple Native CoreSVG 341-->
<!DOCTYPE svg
PUBLIC "-//W3C//DTD SVG 1.1//EN"
       "http://www.w3.org/Graphics/SVG/1.1/DTD/svg11.dtd">
<svg version="1.1" xmlns="http://www.w3.org/2000/svg" xmlns:xlink="http://www.w3.org/1999/xlink" viewBox="0 0 16.1328 15.7715">
 <g>
  <rect height="15.7715" opacity="0" width="16.1328" x="0" y="0"/>
  <path d="M15.7715 7.89062C15.7715 12.2363 12.2363 15.7715 7.88086 15.7715C3.53516 15.7715 0 12.2363 0 7.89062C0 3.54492 3.53516 0.00976562 7.88086 0.00976562C12.2363 0.00976562 15.7715 3.54492 15.7715 7.89062ZM3.65234 5.53711C3.60352 5.61523 3.60352 5.66406 3.60352 5.81055L3.60352 11.0254C3.60352 11.2012 3.73047 11.3184 3.92578 11.3184C4.0332 11.3184 4.12109 11.2891 4.20898 11.2207C4.6582 10.8496 5.25391 10.6348 5.84961 10.6348C6.38672 10.6348 6.9043 10.8008 7.33398 11.1523C7.37305 11.1914 7.41211 11.2109 7.45117 11.2109C7.54883 11.2109 7.61719 11.1426 7.61719 11.0547L7.61719 5.56641C7.61719 5.46875 7.61719 5.45898 7.53906 5.3418C7.1875 4.82422 6.47461 4.49219 5.68359 4.49219C4.86328 4.49219 4.02344 4.87305 3.65234 5.53711ZM8.24219 5.3418C8.16406 5.45898 8.16406 5.46875 8.16406 5.56641L8.16406 11.0547C8.16406 11.1426 8.23242 11.2109 8.33008 11.2109C8.36914 11.2109 8.4082 11.1914 8.44727 11.1523C8.87695 10.8008 9.4043 10.6348 9.92188 10.6348C10.5273 10.6348 11.123 10.8496 11.5723 11.2207C11.6602 11.2891 11.748 11.3184 11.8555 11.3184C12.041 11.3184 12.1777 11.2012 12.1777 11.0254L12.1777 5.81055C12.1777 5.66406 12.1777 5.60547 12.1289 5.53711C11.7578 4.87305 10.9082 4.49219 10.0977 4.49219C9.30664 4.49219 8.59375 4.82422 8.24219 5.3418Z" fill="white" fill-opacity="0.85"/>
 </g>
</svg>
