<?xml version="1.0" encoding="UTF-8"?>
<!--Generator: Apple Native CoreSVG 341-->
<!DOCTYPE svg
PUBLIC "-//W3C//DTD SVG 1.1//EN"
       "http://www.w3.org/Graphics/SVG/1.1/DTD/svg11.dtd">
<svg version="1.1" xmlns="http://www.w3.org/2000/svg" xmlns:xlink="http://www.w3.org/1999/xlink" viewBox="0 0 16.1328 15.7715">
 <g>
  <rect height="15.7715" opacity="0" width="16.1328" x="0" y="0"/>
  <path d="M7.88086 15.7617C12.2363 15.7617 15.7715 12.2266 15.7715 7.88086C15.7715 3.53516 12.2363 0 7.88086 0C3.53516 0 0 3.53516 0 7.88086C0 12.2266 3.53516 15.7617 7.88086 15.7617Z" fill="white" fill-opacity="0.2125"/>
  <path d="M4.33594 11.0156C3.97461 11.0156 3.82812 10.7812 3.82812 10.4883L3.82812 5.13672C3.82812 4.81445 4.00391 4.62891 4.31641 4.62891L5.72266 4.62891C6.9043 4.62891 7.68555 5.2832 7.68555 6.52344C7.68555 7.23633 7.40234 7.92969 6.70898 8.25195L7.54883 10.166C7.59766 10.293 7.65625 10.4102 7.65625 10.5371C7.65625 10.8203 7.46094 11.0156 7.17773 11.0156C6.9043 11.0156 6.76758 10.8789 6.66016 10.6348L5.73242 8.4668L4.83398 8.4668L4.83398 10.4883C4.83398 10.8008 4.64844 11.0156 4.33594 11.0156ZM4.83398 7.66602L5.64453 7.66602C6.35742 7.66602 6.67969 7.20703 6.67969 6.54297C6.67969 5.87891 6.29883 5.44922 5.63477 5.44922L4.83398 5.44922ZM10.2344 11.6211C10.0879 11.6211 10 11.5332 10 11.3965L10 10.8203C9.23828 10.7617 8.57422 10.4004 8.35938 9.52148C8.33984 9.45312 8.32031 9.33594 8.32031 9.27734C8.32031 8.99414 8.51562 8.83789 8.78906 8.83789C9.00391 8.83789 9.17969 8.96484 9.22852 9.19922C9.32617 9.6875 9.57031 9.94141 10 10.0098L10 8.1543L9.7168 8.01758C8.85742 7.60742 8.37891 7.1875 8.37891 6.32812C8.37891 5.40039 9.04297 4.81445 10 4.73633L10 4.15039C10 4.01367 10.0879 3.92578 10.2344 3.92578C10.3711 3.92578 10.4688 4.01367 10.4688 4.15039L10.4688 4.73633C11.1914 4.79492 11.7969 5.14648 12.0215 6.00586C12.041 6.06445 12.0605 6.19141 12.0605 6.25977C12.0605 6.52344 11.875 6.67969 11.6113 6.67969C11.3379 6.67969 11.1914 6.49414 11.1523 6.32812C11.0742 5.95703 10.8887 5.625 10.4688 5.53711L10.4688 7.35352L10.791 7.5C11.582 7.87109 12.168 8.23242 12.168 9.16992C12.168 10.1562 11.4844 10.752 10.4688 10.8203L10.4688 11.3965C10.4688 11.5332 10.3711 11.6211 10.2344 11.6211ZM9.31641 6.26953C9.31641 6.66992 9.60938 6.91406 10 7.11914L10 5.52734C9.59961 5.5957 9.31641 5.84961 9.31641 6.26953ZM10.4688 10.0195C10.9473 9.9707 11.2207 9.72656 11.2207 9.26758C11.2207 8.80859 10.8789 8.58398 10.4688 8.36914Z" fill="white" fill-opacity="0.85"/>
 </g>
</svg>
