<?xml version="1.0" encoding="UTF-8"?>
<!--Generator: Apple Native CoreSVG 341-->
<!DOCTYPE svg
PUBLIC "-//W3C//DTD SVG 1.1//EN"
       "http://www.w3.org/Graphics/SVG/1.1/DTD/svg11.dtd">
<svg version="1.1" xmlns="http://www.w3.org/2000/svg" xmlns:xlink="http://www.w3.org/1999/xlink" viewBox="0 0 14.5898 14.248">
 <g>
  <rect height="14.248" opacity="0" width="14.5898" x="0" y="0"/>
  <path d="M2.49023 14.248L11.7383 14.248C13.4082 14.248 14.2285 13.4277 14.2285 11.7871L14.2285 2.4707C14.2285 0.830078 13.4082 0.00976562 11.7383 0.00976562L2.49023 0.00976562C0.830078 0.00976562 0 0.830078 0 2.4707L0 11.7871C0 13.4277 0.830078 14.248 2.49023 14.248Z" fill="white" fill-opacity="0.2125"/>
  <path d="M3.56445 10.2539C3.20312 10.2539 3.05664 10.0195 3.05664 9.72656L3.05664 4.375C3.05664 4.05273 3.23242 3.86719 3.54492 3.86719L4.96094 3.86719C6.13281 3.86719 6.91406 4.52148 6.91406 5.76172C6.91406 6.47461 6.63086 7.16797 5.9375 7.49023L6.77734 9.4043C6.82617 9.53125 6.88477 9.64844 6.88477 9.77539C6.88477 10.0586 6.68945 10.2539 6.40625 10.2539C6.13281 10.2539 5.99609 10.1172 5.88867 9.87305L4.9707 7.70508L4.0625 7.70508L4.0625 9.72656C4.0625 10.0391 3.87695 10.2539 3.56445 10.2539ZM4.0625 6.9043L4.87305 6.9043C5.58594 6.9043 5.9082 6.44531 5.9082 5.78125C5.9082 5.11719 5.52734 4.6875 4.86328 4.6875L4.0625 4.6875ZM9.46289 10.8594C9.32617 10.8594 9.23828 10.7715 9.23828 10.6348L9.23828 10.0586C8.4668 10 7.8125 9.63867 7.58789 8.75977C7.56836 8.69141 7.54883 8.57422 7.54883 8.51562C7.54883 8.23242 7.74414 8.07617 8.01758 8.07617C8.23242 8.07617 8.41797 8.20312 8.4668 8.4375C8.55469 8.92578 8.79883 9.17969 9.23828 9.24805L9.23828 7.39258L8.94531 7.25586C8.08594 6.8457 7.60742 6.42578 7.60742 5.56641C7.60742 4.63867 8.28125 4.05273 9.23828 3.97461L9.23828 3.38867C9.23828 3.25195 9.32617 3.16406 9.46289 3.16406C9.59961 3.16406 9.69727 3.25195 9.69727 3.38867L9.69727 3.97461C10.4199 4.0332 11.0352 4.38477 11.25 5.24414C11.2695 5.30273 11.2891 5.42969 11.2891 5.49805C11.2891 5.76172 11.1035 5.91797 10.8398 5.91797C10.5664 5.91797 10.4297 5.73242 10.3809 5.56641C10.3027 5.19531 10.1172 4.86328 9.69727 4.77539L9.69727 6.5918L10.0195 6.73828C10.8105 7.10938 11.4062 7.4707 11.4062 8.4082C11.4062 9.39453 10.7129 9.99023 9.69727 10.0586L9.69727 10.6348C9.69727 10.7715 9.59961 10.8594 9.46289 10.8594ZM8.55469 5.50781C8.55469 5.9082 8.84766 6.15234 9.23828 6.35742L9.23828 4.76562C8.83789 4.83398 8.55469 5.08789 8.55469 5.50781ZM9.69727 9.25781C10.1855 9.20898 10.4492 8.96484 10.4492 8.50586C10.4492 8.04688 10.1074 7.82227 9.69727 7.60742Z" fill="white" fill-opacity="0.85"/>
 </g>
</svg>
