<?xml version="1.0" encoding="UTF-8"?>
<!--Generator: Apple Native CoreSVG 341-->
<!DOCTYPE svg
PUBLIC "-//W3C//DTD SVG 1.1//EN"
       "http://www.w3.org/Graphics/SVG/1.1/DTD/svg11.dtd">
<svg version="1.1" xmlns="http://www.w3.org/2000/svg" xmlns:xlink="http://www.w3.org/1999/xlink" viewBox="0 0 14.5898 14.248">
 <g>
  <rect height="14.248" opacity="0" width="14.5898" x="0" y="0"/>
  <path d="M2.49023 14.248L11.7383 14.248C13.4082 14.248 14.2285 13.4277 14.2285 11.7871L14.2285 2.4707C14.2285 0.830078 13.4082 0.00976562 11.7383 0.00976562L2.49023 0.00976562C0.830078 0.00976562 0 0.830078 0 2.4707L0 11.7871C0 13.4277 0.830078 14.248 2.49023 14.248ZM2.50977 12.832C1.80664 12.832 1.40625 12.4512 1.40625 11.7188L1.40625 2.53906C1.40625 1.79688 1.80664 1.42578 2.50977 1.42578L11.7188 1.42578C12.4219 1.42578 12.8223 1.79688 12.8223 2.53906L12.8223 11.7188C12.8223 12.4512 12.4219 12.832 11.7188 12.832Z" fill="white" fill-opacity="0.85"/>
  <path d="M3.69141 10.127C3.99414 10.127 4.17969 9.93164 4.17969 9.62891L4.17969 7.67578L5.04883 7.67578L5.9375 9.77539C6.04492 10.0098 6.17188 10.127 6.43555 10.127C6.70898 10.127 6.89453 9.95117 6.89453 9.67773C6.89453 9.55078 6.8457 9.43359 6.79688 9.32617L5.98633 7.4707C6.65039 7.1582 6.92383 6.49414 6.92383 5.81055C6.92383 4.61914 6.17188 3.97461 5.03906 3.97461L3.68164 3.97461C3.37891 3.97461 3.21289 4.16992 3.21289 4.47266L3.21289 9.62891C3.21289 9.91211 3.35938 10.127 3.69141 10.127ZM4.17969 6.9043L4.17969 4.77539L4.94141 4.77539C5.5957 4.77539 5.95703 5.18555 5.95703 5.83008C5.95703 6.46484 5.6543 6.9043 4.95117 6.9043ZM9.39453 9.95117C10.4883 9.95117 11.25 9.38477 11.25 8.36914C11.25 7.45117 10.6836 7.10938 9.92188 6.74805L9.3457 6.47461C8.87695 6.25 8.50586 6.00586 8.50586 5.56641C8.50586 5.08789 8.87695 4.83398 9.38477 4.83398C9.95117 4.83398 10.1758 5.20508 10.2637 5.625C10.3027 5.78125 10.4492 5.95703 10.7129 5.95703C10.9668 5.95703 11.1426 5.80078 11.1426 5.54688C11.1426 5.47852 11.123 5.37109 11.1035 5.3125C10.8789 4.38477 10.1758 4.07227 9.38477 4.07227C8.34961 4.07227 7.59766 4.6582 7.59766 5.625C7.59766 6.44531 8.05664 6.85547 8.88672 7.24609L9.45312 7.51953C9.91211 7.73438 10.332 7.94922 10.332 8.44727C10.332 8.96484 10 9.18945 9.4043 9.18945C8.81836 9.18945 8.53516 8.93555 8.41797 8.37891C8.36914 8.16406 8.19336 8.03711 7.98828 8.03711C7.72461 8.03711 7.54883 8.19336 7.54883 8.45703C7.54883 8.52539 7.55859 8.62305 7.57812 8.70117C7.8125 9.62891 8.56445 9.95117 9.39453 9.95117ZM9.38477 10.7227C9.51172 10.7227 9.59961 10.6348 9.59961 10.5078L9.59961 3.52539C9.59961 3.38867 9.51172 3.30078 9.38477 3.30078C9.24805 3.30078 9.16016 3.38867 9.16016 3.52539L9.16016 10.5078C9.16016 10.6348 9.24805 10.7227 9.38477 10.7227Z" fill="white" fill-opacity="0.85"/>
 </g>
</svg>
