<?xml version="1.0" encoding="UTF-8"?>
<!--Generator: Apple Native CoreSVG 341-->
<!DOCTYPE svg
PUBLIC "-//W3C//DTD SVG 1.1//EN"
       "http://www.w3.org/Graphics/SVG/1.1/DTD/svg11.dtd">
<svg version="1.1" xmlns="http://www.w3.org/2000/svg" xmlns:xlink="http://www.w3.org/1999/xlink" viewBox="0 0 28.3789 13.7207">
 <g>
  <rect height="13.7207" opacity="0" width="28.3789" x="0" y="0"/>
  <path d="M3.0957 1.5332C3.36914 1.85547 3.29102 2.25586 2.96875 2.61719C1.97266 3.75977 1.42578 5.23438 1.42578 6.85547C1.42578 8.47656 1.97266 9.95117 2.96875 11.0938C3.29102 11.4551 3.36914 11.8555 3.0957 12.1777C2.8125 12.5098 2.32422 12.5098 1.98242 12.1289C0.703125 10.7227 0 8.85742 0 6.85547C0 4.85352 0.703125 2.98828 1.98242 1.58203C2.32422 1.20117 2.8125 1.20117 3.0957 1.5332ZM26.0352 1.58203C27.3145 2.98828 28.0176 4.85352 28.0176 6.85547C28.0176 8.85742 27.3145 10.7227 26.0352 12.1289C25.6934 12.5098 25.2051 12.5098 24.9219 12.1777C24.6484 11.8555 24.7266 11.4551 25.0488 11.0938C26.0449 9.95117 26.5918 8.47656 26.5918 6.85547C26.5918 5.23438 26.0449 3.75977 25.0488 2.61719C24.7266 2.25586 24.6484 1.85547 24.9219 1.5332C25.2051 1.20117 25.6934 1.20117 26.0352 1.58203Z" fill="white" fill-opacity="0.425"/>
  <path d="M5.26367 3.73047C5.53711 4.05273 5.41992 4.43359 5.14648 4.82422C4.73633 5.39062 4.52148 6.09375 4.52148 6.85547C4.52148 7.61719 4.73633 8.32031 5.14648 8.88672C5.41992 9.27734 5.53711 9.6582 5.26367 9.98047C4.9707 10.3027 4.44336 10.3125 4.13086 9.91211C3.47656 9.0625 3.0957 7.99805 3.0957 6.85547C3.0957 5.71289 3.47656 4.64844 4.13086 3.79883C4.44336 3.39844 4.9707 3.4082 5.26367 3.73047ZM23.8867 3.79883C24.541 4.64844 24.9219 5.71289 24.9219 6.85547C24.9219 7.99805 24.541 9.0625 23.8867 9.91211C23.5742 10.3125 23.0469 10.3027 22.7539 9.98047C22.4707 9.6582 22.5977 9.27734 22.8711 8.88672C23.2812 8.32031 23.4961 7.61719 23.4961 6.85547C23.4961 6.09375 23.2812 5.39062 22.8711 4.82422C22.5977 4.43359 22.4707 4.05273 22.7539 3.73047C23.0469 3.4082 23.5742 3.39844 23.8867 3.79883Z" fill="white" fill-opacity="0.425"/>
  <path d="M20.8594 6.85547C20.8594 10.6445 17.793 13.7109 14.0039 13.7109C10.2246 13.7109 7.1582 10.6445 7.1582 6.85547C7.1582 3.06641 10.2246 0 14.0039 0C17.793 0 20.8594 3.06641 20.8594 6.85547ZM11.1816 4.39453C10.4688 4.39453 10.1074 4.74609 10.1074 5.44922L10.1074 8.67188C10.1074 9.375 10.4688 9.73633 11.1816 9.73633L11.3184 9.73633L11.3184 4.39453ZM13.2031 3.19336C12.6074 3.19336 12.207 3.49609 12.207 4.18945L12.207 4.39453L11.9434 4.39453L11.9434 9.73633L16.084 9.73633L16.084 4.39453L15.8105 4.39453L15.8105 4.18945C15.8105 3.49609 15.459 3.19336 14.8145 3.19336ZM16.6992 4.39453L16.6992 9.73633L16.8359 9.73633C17.5586 9.73633 17.9102 9.375 17.9102 8.67188L17.9102 5.44922C17.9102 4.74609 17.5586 4.39453 16.8359 4.39453ZM15.1367 4.25781L15.1367 4.39453L12.8809 4.39453L12.8809 4.25781C12.8809 4.00391 13.0273 3.86719 13.2715 3.86719L14.7461 3.86719C14.9902 3.86719 15.1367 4.00391 15.1367 4.25781Z" fill="white" fill-opacity="0.85"/>
 </g>
</svg>
