<?xml version="1.0" encoding="UTF-8"?>
<!--Generator: Apple Native CoreSVG 341-->
<!DOCTYPE svg
PUBLIC "-//W3C//DTD SVG 1.1//EN"
       "http://www.w3.org/Graphics/SVG/1.1/DTD/svg11.dtd">
<svg version="1.1" xmlns="http://www.w3.org/2000/svg" xmlns:xlink="http://www.w3.org/1999/xlink" viewBox="0 0 16.1328 15.7715">
 <g>
  <rect height="15.7715" opacity="0" width="16.1328" x="0" y="0"/>
  <path d="M7.88086 15.7715C12.2363 15.7715 15.7715 12.2363 15.7715 7.89062C15.7715 3.54492 12.2363 0.00976562 7.88086 0.00976562C3.53516 0.00976562 0 3.54492 0 7.89062C0 12.2363 3.53516 15.7715 7.88086 15.7715Z" fill="white" fill-opacity="0.2125"/>
  <path d="M5.97656 12.4609C5.73242 12.4609 5.5957 12.2852 5.5957 12.0215L5.5957 10.9082L5.43945 10.9082C4.24805 10.9082 3.60352 10.2539 3.60352 9.05273L3.60352 6.21094C3.60352 5.03906 4.24805 4.375 5.43945 4.375L10.332 4.375C11.5234 4.375 12.168 5.03906 12.168 6.21094L12.168 9.05273C12.168 10.2539 11.5234 10.9082 10.332 10.9082L7.86133 10.9082L6.46484 12.1875C6.25977 12.3828 6.15234 12.4609 5.97656 12.4609Z" fill="white" fill-opacity="0.85"/>
 </g>
</svg>
