<?xml version="1.0" encoding="UTF-8"?>
<!--Generator: Apple Native CoreSVG 341-->
<!DOCTYPE svg
PUBLIC "-//W3C//DTD SVG 1.1//EN"
       "http://www.w3.org/Graphics/SVG/1.1/DTD/svg11.dtd">
<svg version="1.1" xmlns="http://www.w3.org/2000/svg" xmlns:xlink="http://www.w3.org/1999/xlink" viewBox="0 0 16.1328 15.7715">
 <g>
  <rect height="15.7715" opacity="0" width="16.1328" x="0" y="0"/>
  <path d="M7.88086 15.7617C12.2363 15.7617 15.7715 12.2363 15.7715 7.88086C15.7715 3.52539 12.2363 0 7.88086 0C3.53516 0 0 3.52539 0 7.88086C0 12.2363 3.53516 15.7617 7.88086 15.7617ZM7.88086 14.2773C4.3457 14.2773 1.49414 11.416 1.49414 7.88086C1.49414 4.3457 4.3457 1.48438 7.88086 1.48438C11.416 1.48438 14.2773 4.3457 14.2773 7.88086C14.2773 11.416 11.416 14.2773 7.88086 14.2773Z" fill="white" fill-opacity="0.425"/>
  <path d="M9.72656 12.3047C9.96094 12.3047 10.0977 12.1289 10.0977 11.875L10.0977 10.8105L10.2344 10.8105C11.3965 10.8105 12.002 10.1758 12.002 9.02344L12.002 6.28906C12.002 5.14648 11.3965 4.51172 10.2344 4.51172L5.53711 4.51172C4.375 4.51172 3.75977 5.14648 3.75977 6.28906L3.75977 9.02344C3.75977 10.1758 4.375 10.8105 5.53711 10.8105L7.91016 10.8105L9.25781 12.041C9.45312 12.2266 9.55078 12.3047 9.72656 12.3047Z" fill="white" fill-opacity="0.85"/>
 </g>
</svg>
