<svg version="1.1" xmlns="http://www.w3.org/2000/svg" xmlns:xlink="http://www.w3.org/1999/xlink" viewBox="0 0 16.1328 15.7715">
 <g>
  <rect height="15.7715" opacity="0" width="16.1328" x="0" y="0"/>
  <path d="M7.88086 15.7617C12.2363 15.7617 15.7715 12.2266 15.7715 7.88086C15.7715 3.53516 12.2363 0 7.88086 0C3.53516 0 0 3.53516 0 7.88086C0 12.2266 3.53516 15.7617 7.88086 15.7617Z" fill="var(--color-tertiary)"/>
  <path d="M4.38477 6.25C4.13086 6.25 3.98438 6.05469 3.98438 5.85938C3.98438 5.73242 4.0625 5.5957 4.22852 5.50781L7.39258 3.69141C7.54883 3.57422 7.71484 3.53516 7.88086 3.53516C8.04688 3.53516 8.22266 3.57422 8.38867 3.69141L11.5332 5.50781C11.709 5.5957 11.7871 5.73242 11.7871 5.85938C11.7871 6.05469 11.6406 6.25 11.3867 6.25ZM3.62305 11.25C3.62305 11.0449 3.79883 10.8691 4.00391 10.8691L11.7676 10.8691C11.9727 10.8691 12.1387 11.0449 12.1387 11.25C12.1387 11.4551 11.9727 11.6406 11.7676 11.6406L4.00391 11.6406C3.79883 11.6406 3.62305 11.4551 3.62305 11.25ZM4.25781 10.3711L4.25781 10.3223C4.25781 10.1465 4.36523 10.0293 4.55078 10.0293L4.67773 10.0293L4.67773 7.08984L4.55078 7.08984C4.36523 7.08984 4.25781 6.98242 4.25781 6.79688L4.25781 6.74805C4.25781 6.5625 4.36523 6.45508 4.55078 6.45508L5.54688 6.45508C5.73242 6.45508 5.83984 6.5625 5.83984 6.74805L5.83984 6.79688C5.83984 6.98242 5.73242 7.08984 5.54688 7.08984L5.41016 7.08984L5.41016 10.0293L5.54688 10.0293C5.73242 10.0293 5.83984 10.1465 5.83984 10.3223L5.83984 10.3711C5.83984 10.5566 5.73242 10.6543 5.54688 10.6543L4.55078 10.6543C4.36523 10.6543 4.25781 10.5566 4.25781 10.3711ZM6.15234 10.3711L6.15234 10.3223C6.15234 10.1465 6.26953 10.0293 6.43555 10.0293L6.58203 10.0293L6.58203 7.08984L6.43555 7.08984C6.26953 7.08984 6.15234 6.98242 6.15234 6.79688L6.15234 6.74805C6.15234 6.5625 6.26953 6.45508 6.43555 6.45508L7.43164 6.45508C7.61719 6.45508 7.72461 6.5625 7.72461 6.74805L7.72461 6.79688C7.72461 6.98242 7.61719 7.08984 7.43164 7.08984L7.29492 7.08984L7.29492 10.0293L7.43164 10.0293C7.61719 10.0293 7.72461 10.1465 7.72461 10.3223L7.72461 10.3711C7.72461 10.5566 7.61719 10.6543 7.43164 10.6543L6.43555 10.6543C6.26953 10.6543 6.15234 10.5566 6.15234 10.3711ZM8.04688 10.3711L8.04688 10.3223C8.04688 10.1465 8.1543 10.0293 8.33008 10.0293L8.47656 10.0293L8.47656 7.08984L8.33008 7.08984C8.1543 7.08984 8.04688 6.98242 8.04688 6.79688L8.04688 6.74805C8.04688 6.5625 8.1543 6.45508 8.33008 6.45508L9.33594 6.45508C9.50195 6.45508 9.61914 6.5625 9.61914 6.74805L9.61914 6.79688C9.61914 6.98242 9.50195 7.08984 9.33594 7.08984L9.18945 7.08984L9.18945 10.0293L9.33594 10.0293C9.50195 10.0293 9.61914 10.1465 9.61914 10.3223L9.61914 10.3711C9.61914 10.5566 9.50195 10.6543 9.33594 10.6543L8.33008 10.6543C8.1543 10.6543 8.04688 10.5566 8.04688 10.3711ZM9.92188 10.3711L9.92188 10.3223C9.92188 10.1465 10.0391 10.0293 10.2246 10.0293L10.3613 10.0293L10.3613 7.08984L10.2246 7.08984C10.0391 7.08984 9.92188 6.98242 9.92188 6.79688L9.92188 6.74805C9.92188 6.5625 10.0391 6.45508 10.2246 6.45508L11.2207 6.45508C11.4062 6.45508 11.5039 6.5625 11.5039 6.74805L11.5039 6.79688C11.5039 6.98242 11.4062 7.08984 11.2207 7.08984L11.0938 7.08984L11.0938 10.0293L11.2207 10.0293C11.4062 10.0293 11.5039 10.1465 11.5039 10.3223L11.5039 10.3711C11.5039 10.5566 11.4062 10.6543 11.2207 10.6543L10.2246 10.6543C10.0391 10.6543 9.92188 10.5566 9.92188 10.3711Z" fill="var(--color-primary)"/>
 </g>
</svg>
