<?xml version="1.0" encoding="UTF-8"?>
<!--Generator: Apple Native CoreSVG 341-->
<!DOCTYPE svg
PUBLIC "-//W3C//DTD SVG 1.1//EN"
       "http://www.w3.org/Graphics/SVG/1.1/DTD/svg11.dtd">
<svg version="1.1" xmlns="http://www.w3.org/2000/svg" xmlns:xlink="http://www.w3.org/1999/xlink" viewBox="0 0 20 19.1895">
 <g>
  <rect height="19.1895" opacity="0" width="20" x="0" y="0"/>
  <path d="M18.5156 4.30664L18.5156 14.873C18.5156 17.5098 16.8066 19.1797 14.082 19.1797L11.7871 19.1797C9.42383 19.1797 7.92969 17.373 7.92969 14.873L7.92969 13.2162C7.98702 13.1796 8.04197 13.1346 8.0957 13.0859L9.33594 11.9687L9.33594 14.873C9.33594 16.5039 10.2832 17.7734 11.7871 17.7734C13.3008 17.7734 14.248 16.5039 14.248 14.873L14.248 4.30664C14.248 2.67578 13.3008 1.40625 11.7871 1.40625C10.2832 1.40625 9.33594 2.67578 9.33594 4.30664L9.33594 7.21655L8.10547 6.10352C8.04873 6.05177 7.9905 6.0041 7.92969 5.96454L7.92969 4.30664C7.92969 1.80664 9.42383 0 11.7871 0L14.082 0C16.8066 0 18.5156 1.66992 18.5156 4.30664ZM15.6543 4.30664L15.6543 14.873C15.6543 15.99 15.3561 16.9685 14.8126 17.7076C16.2404 17.4489 17.1094 16.4036 17.1094 14.873L17.1094 4.30664C17.1094 2.77611 16.2404 1.73078 14.8126 1.4721C15.3561 2.21116 15.6543 3.1897 15.6543 4.30664Z" fill="white" fill-opacity="0.85"/>
  <path d="M1.89453 10.332L7.42188 10.332C7.8418 10.332 8.17383 10 8.17383 9.58008C8.17383 9.16992 7.8418 8.83789 7.42188 8.83789L1.89453 8.83789C1.47461 8.83789 1.14258 9.16992 1.14258 9.58008C1.14258 10 1.47461 10.332 1.89453 10.332ZM6.11328 7.49023L6.11328 11.6992C6.11328 12.4023 6.81641 12.6953 7.33398 12.2363L9.70703 10.1074C10.0488 9.80469 10.0488 9.38477 9.70703 9.08203L7.33398 6.95312C6.8457 6.49414 6.11328 6.75781 6.11328 7.49023Z" fill="white" fill-opacity="0.85"/>
 </g>
</svg>
