<?xml version="1.0" encoding="UTF-8"?>
<!--Generator: Apple Native CoreSVG 341-->
<!DOCTYPE svg
PUBLIC "-//W3C//DTD SVG 1.1//EN"
       "http://www.w3.org/Graphics/SVG/1.1/DTD/svg11.dtd">
<svg version="1.1" xmlns="http://www.w3.org/2000/svg" xmlns:xlink="http://www.w3.org/1999/xlink" viewBox="0 0 16.1328 15.7715">
 <g>
  <rect height="15.7715" opacity="0" width="16.1328" x="0" y="0"/>
  <path d="M7.88086 15.7617C12.2363 15.7617 15.7715 12.2363 15.7715 7.88086C15.7715 3.52539 12.2363 0 7.88086 0C3.53516 0 0 3.52539 0 7.88086C0 12.2363 3.53516 15.7617 7.88086 15.7617ZM7.88086 14.2773C4.3457 14.2773 1.49414 11.416 1.49414 7.88086C1.49414 4.3457 4.3457 1.48438 7.88086 1.48438C11.416 1.48438 14.2773 4.3457 14.2773 7.88086C14.2773 11.416 11.416 14.2773 7.88086 14.2773Z" fill="white" fill-opacity="0.425"/>
  <path d="M7.87109 11.4941C9.23828 11.4941 10.3125 10.8789 10.7227 9.85352C10.7812 9.7168 10.8008 9.60938 10.8008 9.47266C10.8008 9.11133 10.5664 8.88672 10.2051 8.88672C9.95117 8.88672 9.78516 9.01367 9.62891 9.29688C9.28711 10 8.69141 10.3516 7.89062 10.3516C6.72852 10.3516 5.95703 9.33594 5.95703 7.80273C5.95703 6.25977 6.72852 5.23438 7.89062 5.23438C8.69141 5.23438 9.28711 5.58594 9.62891 6.28906C9.78516 6.57227 9.95117 6.69922 10.2051 6.69922C10.5664 6.69922 10.8008 6.47461 10.8008 6.11328C10.8008 5.97656 10.7812 5.86914 10.7227 5.73242C10.3125 4.70703 9.23828 4.0918 7.87109 4.0918C5.83984 4.0918 4.55078 5.52734 4.55078 7.80273C4.55078 10.0684 5.83008 11.4941 7.87109 11.4941Z" fill="white" fill-opacity="0.85"/>
 </g>
</svg>
