<?xml version="1.0" encoding="UTF-8"?>
<!--Generator: Apple Native CoreSVG 341-->
<!DOCTYPE svg
PUBLIC "-//W3C//DTD SVG 1.1//EN"
       "http://www.w3.org/Graphics/SVG/1.1/DTD/svg11.dtd">
<svg version="1.1" xmlns="http://www.w3.org/2000/svg" xmlns:xlink="http://www.w3.org/1999/xlink" viewBox="0 0 18.3301 18.1348">
 <g>
  <rect height="18.1348" opacity="0" width="18.3301" x="0" y="0"/>
  <path d="M6.93359 3.75977L4.48242 3.75977C3.21289 3.75977 2.17773 4.78516 2.17773 6.05469C2.17773 7.33398 3.20312 8.35938 4.48242 8.35938L13.4863 8.35938C15.5273 8.35938 17.1973 10.0293 17.1973 12.0703C17.1973 14.1113 15.5273 15.7715 13.4863 15.7715L11.0352 15.7715L11.0352 14.3652L13.4863 14.3652C14.7461 14.3652 15.791 13.3398 15.791 12.0703C15.791 10.791 14.7559 9.76562 13.4863 9.76562L4.48242 9.76562C2.44141 9.76562 0.771484 8.0957 0.771484 6.05469C0.771484 4.01367 2.44141 2.35352 4.48242 2.35352L6.93359 2.35352Z" fill="white" fill-opacity="0.425"/>
  <path d="M5.43945 13.2812L5.43945 16.8457C5.43945 17.1484 5.23438 17.3535 4.94141 17.3535L4.58008 17.3535C4.28711 17.3535 4.08203 17.1484 4.08203 16.8457L4.08203 13.2812C4.08203 12.9883 4.28711 12.7832 4.58008 12.7832L4.94141 12.7832C5.23438 12.7832 5.43945 12.9883 5.43945 13.2812ZM10.2637 14.1504L10.2637 15.9766C10.2637 16.6797 9.99023 16.9531 9.29688 16.9531L6.21094 16.9531L6.21094 13.1836L9.29688 13.1836C9.99023 13.1836 10.2637 13.4473 10.2637 14.1504ZM3.31055 15.7422L1.2793 15.7422C0.966797 15.7422 0.771484 15.5371 0.771484 15.2441L0.771484 14.8828C0.771484 14.5898 0.966797 14.3848 1.2793 14.3848L3.31055 14.3848Z" fill="white" fill-opacity="0.85"/>
  <path d="M8.67188 4.94141L11.7578 4.94141L11.7578 1.17188L8.67188 1.17188C7.97852 1.17188 7.70508 1.44531 7.70508 2.14844L7.70508 3.97461C7.70508 4.67773 7.97852 4.94141 8.67188 4.94141ZM13.0273 5.3418L13.3887 5.3418C13.6816 5.3418 13.8867 5.13672 13.8867 4.84375L13.8867 1.2793C13.8867 0.976562 13.6816 0.771484 13.3887 0.771484L13.0273 0.771484C12.7344 0.771484 12.5293 0.976562 12.5293 1.2793L12.5293 4.84375C12.5293 5.13672 12.7344 5.3418 13.0273 5.3418ZM14.6582 3.74023L16.6895 3.74023C16.9922 3.74023 17.1973 3.53516 17.1973 3.24219L17.1973 2.88086C17.1973 2.58789 16.9922 2.38281 16.6895 2.38281L14.6582 2.38281Z" fill="white" fill-opacity="0.85"/>
 </g>
</svg>
