<?xml version="1.0" encoding="UTF-8"?>
<!--Generator: Apple Native CoreSVG 341-->
<!DOCTYPE svg
PUBLIC "-//W3C//DTD SVG 1.1//EN"
       "http://www.w3.org/Graphics/SVG/1.1/DTD/svg11.dtd">
<svg version="1.1" xmlns="http://www.w3.org/2000/svg" xmlns:xlink="http://www.w3.org/1999/xlink" viewBox="0 0 17.6562 16.4746">
 <g>
  <rect height="16.4746" opacity="0" width="17.6562" x="0" y="0"/>
  <path d="M3.39864 7.38182C2.19539 8.10519 1.39648 9.42186 1.39648 10.9277C1.39648 13.2227 3.25195 15.0781 5.55664 15.0781C6.28334 15.0781 6.96659 14.8905 7.55968 14.5594C7.87618 14.9317 8.24424 15.2578 8.6508 15.5313C7.76851 16.1272 6.70429 16.4746 5.55664 16.4746C2.49023 16.4746 0 13.9941 0 10.9277C0 8.74559 1.26916 6.85213 3.11426 5.95287C3.1404 6.45171 3.23857 6.9311 3.39864 7.38182ZM11.0938 10.9277C11.0938 12.3192 10.585 13.59 9.73906 14.5599C9.32539 14.3326 8.9558 14.0358 8.64795 13.6827C9.2782 12.9793 9.66834 12.0567 9.69198 11.0413C10.1811 10.9513 10.6467 10.7939 11.0776 10.5756ZM10.7937 9.14282C10.4014 9.38712 9.96319 9.56289 9.49611 9.65935C9.32118 9.10155 9.02829 8.59723 8.64795 8.17276C8.95466 7.821 9.32267 7.52505 9.73463 7.2983C10.2007 7.8319 10.565 8.45615 10.7937 9.14282ZM8.64866 6.32802C8.24394 6.60123 7.87736 6.92654 7.56199 7.29744C6.96841 6.96549 6.28431 6.77734 5.55664 6.77734C5.26367 6.77734 4.97796 6.80733 4.70265 6.86502C4.57173 6.46293 4.50195 6.03288 4.50195 5.58594C4.50195 5.55125 4.50238 5.51666 4.50715 5.48319C4.84637 5.41501 5.19755 5.38086 5.55664 5.38086C6.70154 5.38086 7.7656 5.73023 8.64866 6.32802Z" fill="white" fill-opacity="0.2125"/>
  <path d="M17.2949 10.9277C17.2949 13.9941 14.8047 16.4746 11.748 16.4746C8.68164 16.4746 6.20117 13.9941 6.20117 10.9277C6.20117 10.8086 6.20494 10.6903 6.21901 10.5747C6.64937 10.7925 7.11457 10.9498 7.60333 11.0403C7.65924 13.2836 9.49113 15.0781 11.748 15.0781C14.0527 15.0781 15.8984 13.2227 15.8984 10.9277C15.8984 9.42093 15.0985 8.10358 13.8969 7.38049C14.0567 6.92964 14.1548 6.45014 14.1807 5.95118C16.0242 6.84974 17.2949 8.74422 17.2949 10.9277ZM12.7877 5.48215C12.7925 5.51596 12.793 5.5509 12.793 5.58594C12.793 6.03231 12.7234 6.46183 12.5929 6.86351C12.3203 6.80689 12.0377 6.77734 11.748 6.77734C9.89671 6.77734 8.33136 7.98485 7.79693 9.6572C7.33026 9.56054 6.89285 9.38489 6.50137 9.14123C7.24085 6.95622 9.30911 5.38086 11.748 5.38086C12.1036 5.38086 12.4516 5.41456 12.7877 5.48215Z" fill="white" fill-opacity="0.425"/>
  <path d="M8.65234 11.1426C11.709 11.1426 14.1992 8.65234 14.1992 5.58594C14.1992 2.5293 11.709 0.0488281 8.65234 0.0488281C5.58594 0.0488281 3.0957 2.5293 3.0957 5.58594C3.0957 8.65234 5.58594 11.1426 8.65234 11.1426ZM8.65234 9.74609C6.35742 9.74609 4.50195 7.89062 4.50195 5.58594C4.50195 3.30078 6.35742 1.44531 8.65234 1.44531C10.9375 1.44531 12.793 3.30078 12.793 5.58594C12.793 7.89062 10.9375 9.74609 8.65234 9.74609Z" fill="white" fill-opacity="0.85"/>
 </g>
</svg>
