<?xml version="1.0" encoding="UTF-8"?>
<!--Generator: Apple Native CoreSVG 341-->
<!DOCTYPE svg
PUBLIC "-//W3C//DTD SVG 1.1//EN"
       "http://www.w3.org/Graphics/SVG/1.1/DTD/svg11.dtd">
<svg version="1.1" xmlns="http://www.w3.org/2000/svg" xmlns:xlink="http://www.w3.org/1999/xlink" viewBox="0 0 16.1328 15.7715">
 <g>
  <rect height="15.7715" opacity="0" width="16.1328" x="0" y="0"/>
  <path d="M4.14062 14.5605L7.95898 12.3535C8.85742 11.8359 9.73633 11.3184 10.625 10.7812L10.625 14.5117L11.7871 14.5117L11.7871 7.88086C11.7871 7.57812 11.7773 7.25586 11.7578 6.96289L15 8.82812L15.5859 7.80273L11.6895 5.55664C10.8594 5.07812 10.0195 4.59961 9.17969 4.13086L9.04297 4.0625L12.2266 2.22656L11.6309 1.20117L7.80273 3.4082C6.92383 3.91602 6.02539 4.44336 5.15625 4.9707L5.15625 1.25L3.98438 1.25L3.98438 7.88086C3.98438 8.18359 3.99414 8.50586 4.01367 8.79883L0.761719 6.93359L0.185547 7.95898L4.07227 10.2051C4.82422 10.6348 5.5957 11.0742 6.34766 11.4844L6.72852 11.6992L3.54492 13.5352ZM7.88086 10.6055C6.38672 10.6055 5.15625 9.38477 5.15625 7.88086C5.15625 6.37695 6.38672 5.15625 7.88086 5.15625C9.38477 5.15625 10.6152 6.37695 10.6152 7.88086C10.6152 9.38477 9.38477 10.6055 7.88086 10.6055ZM7.88086 15.7617C12.2363 15.7617 15.7715 12.2363 15.7715 7.88086C15.7715 3.52539 12.2363 0 7.88086 0C3.53516 0 0 3.52539 0 7.88086C0 12.2363 3.53516 15.7617 7.88086 15.7617ZM7.88086 14.2773C4.3457 14.2773 1.49414 11.416 1.49414 7.88086C1.49414 4.3457 4.3457 1.48438 7.88086 1.48438C11.416 1.48438 14.2773 4.3457 14.2773 7.88086C14.2773 11.416 11.416 14.2773 7.88086 14.2773Z" fill="white" fill-opacity="0.85"/>
 </g>
</svg>
