<svg version="1.1" xmlns="http://www.w3.org/2000/svg" xmlns:xlink="http://www.w3.org/1999/xlink" viewBox="0 0 16.1328 15.7715">
 <g>
  <rect height="15.7715" opacity="0" width="16.1328" x="0" y="0"/>
  <path d="M7.88086 15.7715C12.2363 15.7715 15.7715 12.2363 15.7715 7.89062C15.7715 3.54492 12.2363 0.00976562 7.88086 0.00976562C3.53516 0.00976562 0 3.54492 0 7.89062C0 12.2363 3.53516 15.7715 7.88086 15.7715Z" fill="var(--color-tertiary)"/>
  <path d="M4.38477 11.4844C3.51562 11.4844 3.07617 11.0547 3.07617 10.2051L3.07617 6.04492C3.07617 5.17578 3.51562 4.76562 4.38477 4.76562L5.35156 4.76562C5.66406 4.76562 5.75195 4.67773 5.92773 4.50195L6.25 4.15039C6.43555 3.92578 6.66016 3.80859 7.07031 3.80859L8.69141 3.80859C9.10156 3.80859 9.32617 3.92578 9.51172 4.15039L9.82422 4.50195C10 4.6875 10.1074 4.76562 10.4102 4.76562L11.3867 4.76562C12.2461 4.76562 12.6855 5.17578 12.6855 6.04492L12.6855 10.2051C12.6855 11.0547 12.2461 11.4844 11.3867 11.4844ZM7.89062 10.4688C9.20898 10.4688 10.2637 9.44336 10.2637 8.08594C10.2637 6.76758 9.20898 5.71289 7.89062 5.71289C6.58203 5.71289 5.51758 6.76758 5.51758 8.08594C5.51758 9.41406 6.58203 10.4688 7.89062 10.4688ZM7.88086 9.70703C6.99219 9.70703 6.25977 8.98438 6.25977 8.08594C6.25977 7.1875 6.99219 6.46484 7.88086 6.46484C8.76953 6.46484 9.50195 7.1875 9.50195 8.08594C9.50195 8.98438 8.76953 9.70703 7.88086 9.70703ZM11.2109 6.86523C11.5137 6.86523 11.7773 6.60156 11.7773 6.29883C11.7773 5.97656 11.5137 5.72266 11.2109 5.72266C10.8984 5.72266 10.6445 5.97656 10.6445 6.29883C10.6445 6.60156 10.8984 6.86523 11.2109 6.86523Z" fill="var(--color-primary)"/>
 </g>
</svg>
