<?xml version="1.0" encoding="UTF-8"?>
<!--Generator: Apple Native CoreSVG 341-->
<!DOCTYPE svg
PUBLIC "-//W3C//DTD SVG 1.1//EN"
       "http://www.w3.org/Graphics/SVG/1.1/DTD/svg11.dtd">
<svg version="1.1" xmlns="http://www.w3.org/2000/svg" xmlns:xlink="http://www.w3.org/1999/xlink" viewBox="0 0 16.1328 15.7715">
 <g>
  <rect height="15.7715" opacity="0" width="16.1328" x="0" y="0"/>
  <path d="M7.88086 15.7617C12.2363 15.7617 15.7715 12.2363 15.7715 7.88086C15.7715 3.52539 12.2363 0 7.88086 0C3.53516 0 0 3.52539 0 7.88086C0 12.2363 3.53516 15.7617 7.88086 15.7617ZM7.88086 14.2773C4.3457 14.2773 1.49414 11.416 1.49414 7.88086C1.49414 4.3457 4.3457 1.48438 7.88086 1.48438C11.416 1.48438 14.2773 4.3457 14.2773 7.88086C14.2773 11.416 11.416 14.2773 7.88086 14.2773Z" fill="white" fill-opacity="0.425"/>
  <path d="M8.24219 9.57375L8.24219 11.4799C8.44304 11.0779 8.71233 10.7023 9.04513 10.3755L10.542 11.8703C9.7644 12.3502 8.83668 12.627 7.88086 12.627C7.67578 12.627 7.51953 12.4805 7.51953 12.2852L7.51953 8.85212ZM7.01172 10.752L7.01172 12.2852C7.01172 12.373 7.03125 12.4609 7.06055 12.5391C5.32227 12.2754 3.83789 11.1426 3.31055 9.60938C3.20312 9.3457 3.31055 9.16016 3.60352 9.16016C5.11719 9.16016 6.28906 9.82422 7.01172 10.752ZM4.74609 4.18945L11.5918 11.0352C11.748 11.1914 11.748 11.416 11.5918 11.5723C11.4551 11.7188 11.2012 11.7188 11.0645 11.5723L4.19922 4.72656C4.0625 4.58008 4.0625 4.33594 4.19922 4.18945C4.35547 4.0332 4.58984 4.0332 4.74609 4.18945ZM12.4414 9.60938C12.3186 9.95659 12.1465 10.2838 11.9322 10.5846L10.7225 9.37485C11.1546 9.23603 11.6316 9.16016 12.1484 9.16016C12.4414 9.16016 12.5391 9.3457 12.4414 9.60938ZM6.82673 8.1603C6.18912 7.90549 5.72003 7.4163 5.47189 6.8074ZM8.13477 4.27734L8.84766 5.20508L9.67773 4.3457C9.85352 4.17969 10.1074 4.20898 10.2051 4.42383C10.4004 4.87305 10.4883 5.3125 10.4883 5.74219C10.4883 6.67316 10.0594 7.50421 9.3138 7.96615L5.64746 4.2998C5.76406 4.20634 5.94143 4.22029 6.07422 4.3457L6.9043 5.20508L7.62695 4.27734C7.76367 4.10156 7.99805 4.10156 8.13477 4.27734Z" fill="white" fill-opacity="0.85"/>
 </g>
</svg>
