<?xml version="1.0" encoding="UTF-8"?>
<!--Generator: Apple Native CoreSVG 341-->
<!DOCTYPE svg
PUBLIC "-//W3C//DTD SVG 1.1//EN"
       "http://www.w3.org/Graphics/SVG/1.1/DTD/svg11.dtd">
<svg version="1.1" xmlns="http://www.w3.org/2000/svg" xmlns:xlink="http://www.w3.org/1999/xlink" viewBox="0 0 16.543 16.6309">
 <g>
  <rect height="16.6309" opacity="0" width="16.543" x="0" y="0"/>
  <path d="M1.26953 8.58398L14.9121 8.58398C15.6152 8.58398 16.1816 8.16406 16.1816 7.51953C16.1816 7.11914 15.9766 6.81641 15.5957 6.48438L9.07227 0.712891C8.7793 0.458984 8.45703 0.244141 8.08594 0.244141C7.71484 0.244141 7.40234 0.458984 7.10938 0.712891L0.585938 6.49414C0.185547 6.8457 0 7.11914 0 7.51953C0 8.16406 0.566406 8.58398 1.26953 8.58398ZM12.1191 9.83398L12.1191 6.69922C12.1191 5.60547 11.5234 4.94141 10.3613 4.94141L5.82031 4.94141C4.6582 4.94141 4.05273 5.60547 4.05273 6.69922L4.05273 9.83398C4.05273 10.918 4.6582 11.5918 5.82031 11.5918L10.3613 11.5918C11.5234 11.5918 12.1191 10.918 12.1191 9.83398ZM5.3418 16.6309L10.8398 16.6309C11.6406 16.6309 12.1191 16.1426 12.1191 15.3418L12.1191 14.1113C12.1191 13.3008 11.6406 12.8223 10.8398 12.8223L5.3418 12.8223C4.54102 12.8223 4.05273 13.3008 4.05273 14.1113L4.05273 15.3418C4.05273 16.1426 4.54102 16.6309 5.3418 16.6309Z" fill="white" fill-opacity="0.85"/>
 </g>
</svg>
