<?xml version="1.0" encoding="UTF-8"?>
<!--Generator: Apple Native CoreSVG 341-->
<!DOCTYPE svg
PUBLIC "-//W3C//DTD SVG 1.1//EN"
       "http://www.w3.org/Graphics/SVG/1.1/DTD/svg11.dtd">
<svg version="1.1" xmlns="http://www.w3.org/2000/svg" xmlns:xlink="http://www.w3.org/1999/xlink" viewBox="0 0 17.0232 18.2324">
 <g>
  <rect height="18.2324" opacity="0" width="17.0232" x="0" y="0"/>
  <path d="M0.830935 18.0859L0.869998 18.0859C3.32117 18.0859 3.51648 16.5332 4.69812 16.5332C5.85047 16.5332 6.19226 18.0859 8.33094 18.0859C10.4696 18.0859 10.8114 16.5332 11.9637 16.5332C13.1454 16.5332 13.3407 18.0859 15.7919 18.0859L15.8309 18.0859C16.1727 18.0859 16.4462 17.8125 16.4462 17.4707C16.4462 17.1387 16.1727 16.8652 15.8309 16.8652L15.7919 16.8652C14.9911 16.8652 14.5516 16.5332 13.9755 16.123C13.4774 15.7617 12.8329 15.3125 11.9637 15.3125C11.0653 15.3125 10.411 15.791 9.91297 16.1621C9.38562 16.5625 8.995 16.8652 8.33094 16.8652C7.66687 16.8652 7.27625 16.5625 6.7489 16.1621C6.25086 15.791 5.59656 15.3125 4.69812 15.3125C3.82898 15.3125 3.18445 15.7617 2.6864 16.123C2.11023 16.5332 1.67078 16.8652 0.869998 16.8652L0.830935 16.8652C0.489138 16.8652 0.215701 17.1387 0.215701 17.4707C0.215701 17.8125 0.489138 18.0859 0.830935 18.0859ZM2.85242 16.7188L4.05359 16.3867L1.48523 12.9102C1.30945 12.6758 1.41687 12.4219 1.72937 12.4219L14.9325 12.4219C15.245 12.4219 15.3524 12.6758 15.1766 12.9102L12.6083 16.3867L13.8192 16.7188L16.2899 13.457C17.0614 12.4414 16.5927 11.3086 15.2548 11.3086L1.40711 11.3086C0.0692163 11.3086-0.399534 12.4512 0.371951 13.457ZM4.43445 3.69141C4.38562 3.90625 4.48328 3.97461 4.68836 3.95508C5.5575 3.90625 6.61219 3.84766 8.32117 3.84766C10.0399 3.84766 11.0946 3.90625 11.954 3.95508C12.1688 3.97461 12.2567 3.90625 12.2079 3.69141C12.0907 3.1543 11.8368 2.36328 11.661 2.06055C11.5243 1.82617 11.3778 1.73828 11.1239 1.69922C10.7333 1.65039 9.85437 1.60156 8.32117 1.60156C6.79773 1.60156 5.90906 1.65039 5.51844 1.69922C5.27429 1.73828 5.12781 1.82617 4.99109 2.06055C4.81531 2.36328 4.5614 3.1543 4.43445 3.69141ZM4.33679 7.48047C4.86414 7.48047 5.26453 7.08008 5.26453 6.55273C5.26453 6.01562 4.86414 5.61523 4.33679 5.61523C3.79969 5.61523 3.39929 6.01562 3.39929 6.55273C3.39929 7.08008 3.79969 7.48047 4.33679 7.48047ZM6.83679 7.23633L9.81531 7.23633C10.2059 7.23633 10.4891 6.95312 10.4891 6.5625C10.4891 6.16211 10.2059 5.87891 9.81531 5.87891L6.83679 5.87891C6.4364 5.87891 6.16297 6.16211 6.16297 6.5625C6.16297 6.95312 6.4364 7.23633 6.83679 7.23633ZM12.3153 7.48047C12.8427 7.48047 13.2528 7.08008 13.2528 6.55273C13.2528 6.01562 12.8427 5.61523 12.3153 5.61523C11.788 5.61523 11.3778 6.01562 11.3778 6.55273C11.3778 7.08008 11.788 7.48047 12.3153 7.48047ZM8.32117 9.11133C10.2157 9.11133 12.6864 9.01367 13.7509 8.89648C14.6005 8.79883 15.0887 8.30078 15.0887 7.5L15.0887 6.52344C15.0887 5.55664 14.8934 5 14.3466 4.29688L13.8973 3.73047C13.6923 2.73438 13.3309 1.68945 13.1356 1.2793C12.8231 0.615234 12.1981 0.185547 11.3876 0.078125C11.0262 0.0292969 9.86414 0 8.32117 0C6.81726 0 5.63562 0.0292969 5.26453 0.078125C4.46375 0.166016 3.83875 0.595703 3.50672 1.2793C3.32117 1.68945 2.95008 2.73438 2.745 3.73047L2.30554 4.29688C1.75867 5 1.57312 5.55664 1.57312 6.52344L1.57312 7.5C1.57312 8.30078 2.05164 8.79883 2.90125 8.89648C3.95594 9.01367 6.4364 9.11133 8.32117 9.11133ZM8.32117 8.00781C6.41687 8.00781 4.00476 7.92969 3.16492 7.82227C2.80359 7.77344 2.66687 7.60742 2.66687 7.23633L2.66687 6.52344C2.66687 5.81055 2.77429 5.49805 3.17469 4.9707L3.78015 4.18945C3.89734 3.4375 4.2782 2.29492 4.51258 1.76758C4.66883 1.43555 4.96179 1.24023 5.40125 1.19141C5.75281 1.15234 6.84656 1.09375 8.32117 1.09375C9.80554 1.09375 10.9286 1.15234 11.2411 1.19141C11.6903 1.25 11.9735 1.43555 12.1395 1.76758C12.3837 2.30469 12.7548 3.44727 12.872 4.18945L13.4677 4.9707C13.868 5.49805 13.9852 5.81055 13.9852 6.52344L13.9852 7.23633C13.9852 7.61719 13.8485 7.77344 13.4774 7.82227C12.6376 7.92969 10.2352 8.00781 8.32117 8.00781ZM2.73523 10.5176L3.39929 10.5176C3.81922 10.5176 4.14148 10.1953 4.14148 9.77539L4.14148 8.38867L1.99304 8.06641L1.99304 9.77539C1.99304 10.1953 2.31531 10.5176 2.73523 10.5176ZM13.2528 10.5176L13.9169 10.5176C14.3368 10.5176 14.6591 10.1953 14.6591 9.77539L14.6591 8.06641L12.5009 8.38867L12.5009 9.77539C12.5009 10.1953 12.8329 10.5176 13.2528 10.5176Z" fill="white" fill-opacity="0.85"/>
 </g>
</svg>
