<?xml version="1.0" encoding="UTF-8"?>
<!--Generator: Apple Native CoreSVG 341-->
<!DOCTYPE svg
PUBLIC "-//W3C//DTD SVG 1.1//EN"
       "http://www.w3.org/Graphics/SVG/1.1/DTD/svg11.dtd">
<svg version="1.1" xmlns="http://www.w3.org/2000/svg" xmlns:xlink="http://www.w3.org/1999/xlink" viewBox="0 0 16.0645 22.5488">
 <g>
  <rect height="22.5488" opacity="0" width="16.0645" x="0" y="0"/>
  <path d="M5.40039 15.1953C8.44727 15.1953 9.74609 14.5312 9.74609 12.7832L9.74609 2.86133C9.74609 1.05469 8.08594 0 5.40039 0C2.71484 0 1.05469 1.05469 1.05469 2.86133L1.05469 12.7832C1.05469 14.5312 2.36328 15.1953 5.40039 15.1953ZM5.40039 13.8379C3.21289 13.8379 2.44141 13.5352 2.44141 12.7344L2.44141 2.86133C2.44141 1.91406 3.4668 1.37695 5.40039 1.37695C7.33398 1.37695 8.35938 1.91406 8.35938 2.86133L8.35938 12.7344C8.35938 13.5352 7.58789 13.8379 5.40039 13.8379ZM5.40039 6.39648C5.92773 6.39648 6.74805 6.44531 7.03125 6.44531C7.49023 6.44531 7.69531 6.25 7.73438 5.77148L7.83203 4.66797C7.91016 3.78906 7.27539 3.4668 5.40039 3.4668C3.51562 3.4668 2.89062 3.78906 2.96875 4.66797L3.06641 5.77148C3.10547 6.25 3.31055 6.44531 3.76953 6.44531C4.05273 6.44531 4.87305 6.39648 5.40039 6.39648ZM5.40039 12.4512C7.34375 12.4512 7.96875 12.1582 7.82227 11.2402L7.73438 10.7227C7.60742 9.99023 7.05078 9.76562 5.40039 9.76562C3.75 9.76562 3.19336 9.99023 3.06641 10.7227L2.97852 11.2402C2.83203 12.1582 3.45703 12.4512 5.40039 12.4512ZM9.00391 6.20117L10.0684 6.20117C10.4785 6.20117 10.8008 5.87891 10.8008 5.48828L10.8008 5.20508C10.8008 4.80469 10.4785 4.49219 10.0684 4.49219L9.00391 4.49219ZM1.78711 6.20117L1.78711 4.49219L0.722656 4.49219C0.322266 4.49219 0 4.80469 0 5.20508L0 5.48828C0 5.87891 0.322266 6.20117 0.722656 6.20117Z" fill="white" fill-opacity="0.85"/>
  <path d="M12.207 21.9629L10.127 19.873C9.72656 19.4824 9.72656 19.0137 10.1172 18.623L12.0801 16.6602C12.4707 16.2695 12.9102 16.25 13.3008 16.6406L15.4102 18.7598C15.7812 19.1309 15.8203 19.6094 15.4199 20.0098L13.457 21.9727C13.0762 22.3633 12.5977 22.3535 12.207 21.9629ZM10.332 17.9492L8.86719 17.8418C8.74023 17.832 8.62305 17.793 8.54492 17.7148C8.38867 17.5586 8.39844 17.334 8.57422 17.168L10.625 15.1074C10.791 14.9512 11.0059 14.9316 11.1719 15.0977C11.2402 15.166 11.2891 15.293 11.2988 15.4102L11.4062 16.8848Z" fill="white" fill-opacity="0.85"/>
 </g>
</svg>
