<?xml version="1.0" encoding="UTF-8"?>
<!--Generator: Apple Native CoreSVG 341-->
<!DOCTYPE svg
PUBLIC "-//W3C//DTD SVG 1.1//EN"
       "http://www.w3.org/Graphics/SVG/1.1/DTD/svg11.dtd">
<svg version="1.1" xmlns="http://www.w3.org/2000/svg" xmlns:xlink="http://www.w3.org/1999/xlink" viewBox="0 0 27.9199 12.6855">
 <g>
  <rect height="12.6855" opacity="0" width="27.9199" x="0" y="0"/>
  <path d="M8.49609 10.2441C8.49609 11.543 7.49023 12.5586 6.19141 12.5586C4.89258 12.5586 3.87695 11.543 3.87695 10.2441C3.87695 8.95508 4.89258 7.93945 6.19141 7.93945C7.49023 7.93945 8.49609 8.95508 8.49609 10.2441ZM23.6816 10.2441C23.6816 11.543 22.666 12.5586 21.3672 12.5586C20.0781 12.5586 19.0625 11.543 19.0625 10.2441C19.0625 8.95508 20.0781 7.93945 21.3672 7.93945C22.666 7.93945 23.6816 8.95508 23.6816 10.2441ZM24.1504 2.90039L25.3613 3.29102C26.8359 3.76953 27.5586 4.7168 27.5586 6.18164L27.5586 8.30078C27.5586 10.1562 26.7871 10.9863 25.0293 10.9863L24.5508 10.9863C24.6094 10.7422 24.6387 10.498 24.6387 10.2441C24.6387 8.41797 23.2031 6.98242 21.3672 6.98242C19.541 6.98242 18.1055 8.41797 18.1055 10.2441C18.1055 10.498 18.1348 10.7422 18.1836 10.9863L9.36523 10.9863C9.42383 10.7422 9.45312 10.498 9.45312 10.2441C9.45312 8.41797 8.01758 6.98242 6.19141 6.98242C4.35547 6.98242 2.91992 8.41797 2.91992 10.2441C2.91992 10.498 2.94922 10.7422 2.99805 10.9863L2.5293 10.9863C0.791016 10.9863 0 10.1758 0 8.35938L0 7.41211C0 5.52734 1.31836 4.16016 3.51562 3.88672L6.87414 3.47667L7.8418 4.75586C8.53516 5.66406 9.32617 6.06445 10.459 6.06445L12.1875 6.06445L12.1875 6.64062C12.1875 7.25586 12.7148 7.43164 13.1641 7.13867L15.1074 5.89844C15.5176 5.63477 15.5273 5.10742 15.1074 4.83398L13.1738 3.59375C12.7148 3.29102 12.1875 3.4668 12.1875 4.0918L12.1875 4.6582L10.459 4.6582C9.7168 4.6582 9.44336 4.51172 8.97461 3.88672L8.07946 2.72045L9.9707 1.5332C11.875 0.341797 13.1836 0.0292969 16.3672 0.0292969L17.5781 0.0292969C20.459 0.0292969 22.6953 1.63086 24.1504 2.90039Z" fill="white" fill-opacity="0.2125"/>
  <path d="M10.459 6.06445C9.32617 6.06445 8.53516 5.66406 7.8418 4.75586L5.83984 2.10938C5.40039 1.5332 5.09766 1.40625 4.23828 1.40625L2.40234 1.40625C2.02148 1.40625 1.69922 1.08398 1.69922 0.703125C1.69922 0.3125 2.02148 0 2.40234 0L4.23828 0C5.45898 0 6.25977 0.351562 6.94336 1.24023L8.97461 3.88672C9.44336 4.51172 9.7168 4.6582 10.459 4.6582L12.1875 4.6582L12.1875 4.0918C12.1875 3.4668 12.7148 3.29102 13.1738 3.59375L15.1074 4.83398C15.5273 5.10742 15.5176 5.63477 15.1074 5.89844L13.1641 7.13867C12.7148 7.43164 12.1875 7.25586 12.1875 6.64062L12.1875 6.06445Z" fill="white" fill-opacity="0.85"/>
 </g>
</svg>
