<?xml version="1.0" encoding="UTF-8"?>
<!--Generator: Apple Native CoreSVG 341-->
<!DOCTYPE svg
PUBLIC "-//W3C//DTD SVG 1.1//EN"
       "http://www.w3.org/Graphics/SVG/1.1/DTD/svg11.dtd">
<svg version="1.1" xmlns="http://www.w3.org/2000/svg" xmlns:xlink="http://www.w3.org/1999/xlink" viewBox="0 0 16.2688 17.3535">
 <g>
  <rect height="17.3535" opacity="0" width="16.2688" x="0" y="0"/>
  <path d="M2.95861 8.75C2.95861 9.13086 3.25158 9.41406 3.63244 9.41406L4.22814 9.41406C4.61877 9.41406 4.90197 9.13086 4.90197 8.75L4.90197 7.97852L13.0172 7.97852L13.0172 8.75C13.0172 9.13086 13.3004 9.41406 13.691 9.41406L14.2867 9.41406C14.6676 9.41406 14.9606 9.13086 14.9606 8.75L14.9606 5.30273C14.9606 4.46289 14.8824 3.92578 14.3258 3.34961L13.7985 2.8125L13.2906 1.31836C13.0074 0.498047 12.4215 0.15625 11.7184 0.0683594C11.3863 0.0292969 10.3024 0 8.96447 0C7.61682 0 6.53283 0.0292969 6.2008 0.0683594C5.49768 0.15625 4.91174 0.498047 4.62853 1.31836L4.12072 2.8125L3.60314 3.34961C3.03674 3.92578 2.95861 4.46289 2.95861 5.30273ZM5.56603 2.91992C5.32189 2.91992 5.234 2.73438 5.31213 2.5L5.62463 1.55273C5.72228 1.24023 5.8883 1.16211 6.15197 1.11328C6.484 1.07422 7.50939 1.03516 8.96447 1.03516C10.4098 1.03516 11.4254 1.07422 11.7574 1.11328C12.0211 1.16211 12.1871 1.24023 12.2848 1.55273L12.6071 2.5C12.6852 2.73438 12.5973 2.91992 12.3531 2.91992ZM4.84338 6.03516C4.50158 6.03516 4.26721 5.80078 4.26721 5.46875L4.26721 4.69727C4.26721 4.38477 4.50158 4.14062 4.84338 4.14062C5.15588 4.14062 5.40002 4.375 5.40002 4.69727L5.40002 5.46875C5.40002 5.80078 5.15588 6.03516 4.84338 6.03516ZM7.82189 5.78125C7.56799 5.78125 7.39221 5.60547 7.39221 5.32227L7.39221 4.85352C7.39221 4.57031 7.56799 4.4043 7.82189 4.4043L10.0778 4.4043C10.3512 4.4043 10.5172 4.57031 10.5172 4.85352L10.5172 5.32227C10.5172 5.60547 10.3512 5.78125 10.0778 5.78125ZM13.1442 6.03516C12.8317 6.03516 12.5875 5.80078 12.5875 5.46875L12.5875 4.69727C12.5875 4.38477 12.8317 4.14062 13.1442 4.14062C13.4762 4.14062 13.7106 4.375 13.7106 4.69727L13.7106 5.46875C13.7106 5.80078 13.4762 6.03516 13.1442 6.03516ZM6.93322 10.8008L6.32775 10.3516C6.11291 10.1855 5.859 10.1074 5.58557 10.1074L4.25744 10.1074C3.94494 10.1074 3.82775 10.4883 4.07189 10.6738L5.28283 11.5625C5.66369 11.8262 5.61486 12.1973 5.17541 12.3926L1.23986 14.0918C-0.264044 14.7461-0.410528 15.7324 0.859003 16.6602L1.45471 17.1094C1.67932 17.2754 1.93322 17.3535 2.19689 17.3535L3.52502 17.3535C3.84728 17.3535 3.96447 16.9727 3.71057 16.7871L2.49963 15.8984C2.12853 15.6348 2.17736 15.2637 2.60705 15.0684L6.5426 13.3691C8.05627 12.7246 8.19299 11.7285 6.93322 10.8008ZM15.0485 10.8008L14.4528 10.3516C14.2281 10.1855 13.9742 10.1172 13.7106 10.1172L12.3824 10.1172C12.0602 10.1172 11.943 10.4883 12.1969 10.6738L13.4078 11.5625C13.7789 11.8359 13.7301 12.1973 13.3004 12.3926L9.36486 14.0918C7.85119 14.7461 7.70471 15.7422 8.97424 16.6699L9.57971 17.1094C9.79455 17.2754 10.0485 17.3535 10.3219 17.3535L11.65 17.3535C11.9625 17.3535 12.0797 16.9727 11.8356 16.7969L10.6246 15.9082C10.2438 15.6348 10.2926 15.2637 10.7321 15.0684L14.6676 13.3691C16.1715 12.7246 16.318 11.7285 15.0485 10.8008Z" fill="white" fill-opacity="0.85"/>
 </g>
</svg>
