<?xml version="1.0" encoding="UTF-8"?>
<!--Generator: Apple Native CoreSVG 341-->
<!DOCTYPE svg
PUBLIC "-//W3C//DTD SVG 1.1//EN"
       "http://www.w3.org/Graphics/SVG/1.1/DTD/svg11.dtd">
<svg version="1.1" xmlns="http://www.w3.org/2000/svg" xmlns:xlink="http://www.w3.org/1999/xlink" viewBox="0 0 20.5082 14.6387">
 <g>
  <rect height="14.6387" opacity="0" width="20.5082" x="0" y="0"/>
  <path d="M2.33418 9.28711C1.71895 8.4375 1.42598 7.4707 1.37715 6.52344C1.35762 6.02539 1.02559 5.80078 0.683793 5.81055C0.341996 5.81055-0.00956675 6.06445 0.000198877 6.49414C0.0392614 7.75391 0.498246 8.95508 1.2502 10.0391C2.00215 11.123 2.99825 11.9727 4.15059 12.4316C4.49239 12.5586 4.79512 12.4121 4.96114 12.168C5.17598 11.8457 5.14668 11.3477 4.59981 11.123C3.7209 10.752 2.92012 10.1465 2.33418 9.28711ZM10.0686 13.2715C9.0334 13.2715 8.06661 12.9688 7.25606 12.4609C6.80684 12.1875 6.41621 12.373 6.24043 12.6758C6.09395 12.9688 6.12325 13.3594 6.44551 13.584C7.49043 14.2676 8.7502 14.5801 10.0686 14.5801C11.3967 14.5801 12.6564 14.2676 13.7014 13.584C14.0236 13.3594 14.0529 12.9688 13.9064 12.6758C13.7209 12.373 13.34 12.1875 12.8908 12.4609C12.0705 12.9688 11.1135 13.2715 10.0686 13.2715ZM17.8127 9.28711C17.2268 10.1465 16.4162 10.752 15.5471 11.123C15.0002 11.3477 14.9709 11.8457 15.1857 12.168C15.342 12.4121 15.6545 12.5586 15.9963 12.4316C17.1486 11.9727 18.135 11.123 18.8967 10.0391C19.6389 8.95508 20.1076 7.75391 20.1467 6.49414C20.1564 6.06445 19.8049 5.81055 19.4631 5.81055C19.1213 5.80078 18.7893 6.02539 18.76 6.52344C18.7209 7.4707 18.4182 8.4375 17.8127 9.28711Z" fill="white" fill-opacity="0.85"/>
  <path d="M4.57051 7.72461C4.29707 7.35352 4.13106 6.96289 4.0627 6.49414C3.96504 5.84961 3.48653 5.70312 3.13496 5.85938C2.87129 5.97656 2.68575 6.24023 2.74434 6.57227C2.82246 7.16797 3.06661 7.87109 3.47676 8.47656C3.91621 9.0918 4.48262 9.54102 5.00996 9.81445C5.37129 10.0195 5.75215 9.85352 5.91817 9.57031C6.08418 9.27734 6.03536 8.87695 5.54707 8.60352C5.12715 8.37891 4.81465 8.0957 4.57051 7.72461ZM10.0686 10.5469C9.61934 10.5469 9.20918 10.459 8.7795 10.2344C8.28145 9.99023 7.92012 10.1855 7.7834 10.498C7.63692 10.791 7.72481 11.1914 8.0959 11.3867C8.62325 11.6504 9.33614 11.8555 10.0686 11.8555C10.8107 11.8555 11.5236 11.6504 12.051 11.3867C12.4221 11.1914 12.51 10.791 12.3635 10.498C12.2268 10.1855 11.8654 9.99023 11.3576 10.2344C10.9377 10.459 10.5178 10.5469 10.0686 10.5469ZM15.5764 7.72461C15.3225 8.0957 15.0197 8.37891 14.5998 8.60352C14.1018 8.87695 14.0529 9.27734 14.2287 9.57031C14.3947 9.85352 14.7658 10.0195 15.1369 9.81445C15.6545 9.54102 16.2307 9.0918 16.6701 8.47656C17.0803 7.87109 17.3147 7.16797 17.4025 6.57227C17.4611 6.24023 17.2658 5.97656 17.0119 5.85938C16.6604 5.70312 16.1818 5.84961 16.0744 6.49414C16.0158 6.96289 15.8498 7.35352 15.5764 7.72461Z" fill="white" fill-opacity="0.85"/>
  <path d="M10.0686 5.30273C8.05684 5.30273 7.39278 5 7.56856 4.05273L7.65645 3.51562C7.79317 2.75391 8.35957 2.51953 10.0686 2.51953C11.7971 2.51953 12.383 2.75391 12.5002 3.51562L12.5881 4.05273C12.7443 5 12.0998 5.30273 10.0686 5.30273ZM14.4143 0L5.73262 0L5.73262 5.47852C5.73262 7.22656 7.03145 7.89062 10.0686 7.89062C13.1154 7.89062 14.4143 7.22656 14.4143 5.47852Z" fill="white" fill-opacity="0.85"/>
 </g>
</svg>
