<svg version="1.1" xmlns="http://www.w3.org/2000/svg" xmlns:xlink="http://www.w3.org/1999/xlink" viewBox="0 0 27.9199 22.8027">
 <g>
  <rect height="22.8027" opacity="0" width="27.9199" x="0" y="0"/>
  <path d="M24.1504 7.95898L25.3613 8.34961C26.8359 8.82812 27.5586 9.77539 27.5586 11.2402L27.5586 13.3594C27.5586 15.2148 26.7871 16.0449 25.0293 16.0449L24.3966 16.0449C23.9639 17.0359 22.9831 17.7051 21.8164 17.7051C20.6497 17.7051 19.6689 17.0359 19.2362 16.0449L8.32241 16.0449C7.8897 17.0359 6.90889 17.7051 5.74219 17.7051C4.57548 17.7051 3.59467 17.0359 3.16196 16.0449L2.5293 16.0449C0.791016 16.0449 0 15.2344 0 13.418L0 12.4707C0 10.5859 1.31836 9.21875 3.51562 8.94531L6.875 8.53516L9.9707 6.5918C10.3702 6.34183 10.7435 6.13056 11.1133 5.95478L11.1133 6.77734C11.1133 7.03841 11.1455 7.28189 11.2079 7.50421C11.0518 7.5914 10.8905 7.68819 10.7227 7.79297L7.87109 9.58984C7.53906 9.79492 7.1875 9.91211 6.73828 9.9707L3.69141 10.3418C2.22656 10.5176 1.40625 11.3574 1.40625 12.4707L1.40625 13.3594C1.40625 14.2383 1.74805 14.6289 2.5293 14.6289L2.93236 14.6289C3.0556 13.1708 4.24605 12.0703 5.74219 12.0703C7.23833 12.0703 8.42878 13.1708 8.55202 14.6289L19.0066 14.6289C19.1298 13.1708 20.3203 12.0703 21.8164 12.0703C23.3125 12.0703 24.503 13.1708 24.6262 14.6289L25.0293 14.6289C25.8105 14.6289 26.1523 14.2383 26.1523 13.3594L26.1523 11.2402C26.1523 10.4883 25.752 10.0488 24.9219 9.78516L24.1602 9.53125C23.6523 9.375 23.4375 9.27734 23.0664 8.95508C21.5645 7.63901 20.2946 6.90039 18.916 6.62421L18.916 5.20726C21.1583 5.59198 22.9294 6.8855 24.1504 7.95898ZM4.23828 14.8828C4.23828 15.7324 4.90234 16.3867 5.74219 16.3867C6.58203 16.3867 7.24609 15.7324 7.24609 14.8828C7.24609 14.043 6.58203 13.3789 5.74219 13.3789C4.90234 13.3789 4.23828 14.043 4.23828 14.8828ZM20.3125 14.8828C20.3125 15.7324 20.9766 16.3867 21.8164 16.3867C22.6562 16.3867 23.3203 15.7324 23.3203 14.8828C23.3203 14.043 22.6562 13.3789 21.8164 13.3789C20.9766 13.3789 20.3125 14.043 20.3125 14.8828Z" fill="var(--color-secondary)"/>
  <path d="M13.2812 7.86133L16.748 7.86133C17.4219 7.86133 17.7734 7.5 17.7734 6.77734L17.7734 4.17969C17.7734 3.4668 17.4219 3.10547 16.748 3.10547L13.2812 3.10547C12.6074 3.10547 12.2559 3.4668 12.2559 4.17969L12.2559 6.77734C12.2559 7.5 12.6074 7.86133 13.2812 7.86133ZM12.9004 3.75977L13.8281 3.75977L13.8281 2.16797C13.8281 1.40625 14.2871 0.917969 15.0098 0.917969C15.7422 0.917969 16.2109 1.40625 16.2109 2.16797L16.2109 3.75977L17.1289 3.75977L17.1289 2.32422C17.1289 0.898438 16.3086 0 15.0098 0C13.7305 0 12.9004 0.898438 12.9004 2.32422Z" fill="var(--color-primary)"/>
 </g>
</svg>
