<svg version="1.1" xmlns="http://www.w3.org/2000/svg" xmlns:xlink="http://www.w3.org/1999/xlink" viewBox="0 0 21.0938 21.1865">
 <g>
  <rect height="21.1865" opacity="0" width="21.0938" x="0" y="0"/>
  <path d="M3.97949 14.7485L3.97949 17.8638C3.97949 18.1665 3.75488 18.3911 3.45215 18.3911L3.00293 18.3911C2.7002 18.3911 2.47559 18.1665 2.47559 17.8638L2.47559 14.7485C2.47559 14.4458 2.7002 14.2212 3.00293 14.2212L3.45215 14.2212C3.75488 14.2212 3.97949 14.4458 3.97949 14.7485ZM18.2568 14.7485L18.2568 15.7166L16.9072 14.3677C17.0007 14.2758 17.131 14.2212 17.2803 14.2212L17.7295 14.2212C18.0322 14.2212 18.2568 14.4458 18.2568 14.7485ZM3.97949 9.03564L3.97949 12.1411C3.97949 12.4341 3.75488 12.6587 3.45215 12.6587L3.00293 12.6587C2.7002 12.6587 2.47559 12.4341 2.47559 12.1411L2.47559 9.03564C2.47559 8.73291 2.7002 8.5083 3.00293 8.5083L3.45215 8.5083C3.75488 8.5083 3.97949 8.73291 3.97949 9.03564ZM3.97249 6.50524C3.93448 6.76326 3.72506 6.9458 3.45215 6.9458L3.00293 6.9458C2.7002 6.9458 2.47559 6.72119 2.47559 6.41846L2.47559 5.01001ZM18.2568 3.30322L18.2568 5.86644C17.8805 5.48176 17.3919 5.11503 16.8018 4.77783C16.7853 4.76835 16.7689 4.75895 16.7529 4.75128L16.7529 3.30322C16.7529 3.00049 16.9775 2.77588 17.2803 2.77588L17.7295 2.77588C18.0322 2.77588 18.2568 3.00049 18.2568 3.30322Z" fill="var(--color-secondary)"/>
  <path d="M9.51386 12.0404L8.71582 13.4204C8.35449 14.0552 8.83301 14.6411 10.542 15.6372C12.251 16.6138 13.0029 16.7407 13.3643 16.106L13.4447 15.9668L14.3577 16.8788C13.5522 18.1323 12.2419 18.0298 9.92676 16.6919C7.54395 15.3149 6.82129 14.2017 7.62207 12.8345L8.60537 11.1329ZM12.696 15.219C12.3248 15.1513 11.8301 14.926 11.167 14.5435C9.65332 13.6646 9.29199 13.1567 9.8291 12.4927L9.89065 12.4168ZM16.8018 4.77783C18.9209 5.98877 19.7314 7.58057 18.9209 8.98682L18.1802 10.2701L18.4326 10.4126C18.7549 10.5981 18.8428 10.9888 18.6768 11.3013L18.5498 11.5259C18.3838 11.8286 17.9736 11.9458 17.6611 11.7603L17.4066 11.6105L16.2147 13.6756L15.299 12.7604L17.8369 8.37158C18.2666 7.61963 17.7002 6.73096 16.1768 5.85205C14.6729 4.98291 13.6182 4.94385 13.1885 5.68604L11.3689 8.83252L10.4598 7.92393L10.6041 7.67422L10.3369 7.52197C10.0342 7.35596 9.91699 6.9458 10.0928 6.64307L10.2295 6.41846C10.4053 6.11572 10.7959 6.0083 11.1182 6.19385L11.373 6.34375L12.1143 5.06104C12.9248 3.64502 14.7021 3.56689 16.8018 4.77783ZM15.2295 7.50244C16.7139 8.36182 17.0557 8.88916 16.5967 9.54346L16.0303 10.3735C15.7764 10.7251 15.5225 10.7739 15.1709 10.5786C14.9561 10.4419 14.3213 10.0317 13.9111 9.7876C13.501 9.55322 12.8369 9.23096 12.6123 9.09424C12.2412 8.87939 12.1826 8.63525 12.3584 8.25439L12.7783 7.34619C13.1201 6.61377 13.7646 6.65283 15.2295 7.50244Z" fill="var(--color-secondary)"/>
  <path d="M18.7549 19.8071C19.0381 20.1001 19.5361 20.1099 19.8291 19.8071C20.1123 19.5142 20.1221 19.0356 19.8291 18.7427L2.27051 1.19385C1.96777 0.891113 1.47949 0.891113 1.18652 1.19385C0.893555 1.47705 0.893555 1.9751 1.18652 2.2583Z" fill="var(--color-primary)"/>
 </g>
</svg>
