<?xml version="1.0" encoding="UTF-8"?>
<!--Generator: Apple Native CoreSVG 341-->
<!DOCTYPE svg
PUBLIC "-//W3C//DTD SVG 1.1//EN"
       "http://www.w3.org/Graphics/SVG/1.1/DTD/svg11.dtd">
<svg version="1.1" xmlns="http://www.w3.org/2000/svg" xmlns:xlink="http://www.w3.org/1999/xlink" viewBox="0 0 15.2539 12.6855">
 <g>
  <rect height="12.6855" opacity="0" width="15.2539" x="0" y="0"/>
  <path d="M7.58789 12.5586C8.88672 12.5586 9.90234 11.543 9.90234 10.2441C9.90234 8.95508 8.88672 7.93945 7.58789 7.93945C6.29883 7.93945 5.2832 8.95508 5.2832 10.2441C5.2832 11.543 6.29883 12.5586 7.58789 12.5586ZM9.20898 2.91992L10.2246 3.73047L12.4512 1.49414C12.627 1.31836 12.8516 1.25 13.1055 1.25L14.2383 1.25C14.6484 1.25 14.8926 0.996094 14.8926 0.615234C14.8926 0.244141 14.6484 0 14.2383 0L13.2617 0C12.5586 0 11.9238 0.195312 11.4453 0.673828ZM0 0.146484L0 10.9863L4.4043 10.9863C4.35547 10.7422 4.32617 10.498 4.32617 10.2441C4.32617 8.41797 5.76172 6.98242 7.58789 6.98242C9.42383 6.98242 10.8594 8.41797 10.8594 10.2441C10.8594 10.498 10.8301 10.7422 10.7715 10.9863L11.25 10.9863C13.0078 10.9863 13.7793 10.1562 13.7793 8.30078L13.7793 6.18164C13.7793 4.7168 13.0566 3.76953 11.582 3.29102L10.3711 2.90039C8.91602 1.63086 6.68945 0.0292969 3.79883 0.0292969L2.58789 0.0292969C1.55273 0.0292969 0.722656 0.0585938 0 0.146484Z" fill="white" fill-opacity="0.85"/>
 </g>
</svg>
