<svg version="1.1" xmlns="http://www.w3.org/2000/svg" xmlns:xlink="http://www.w3.org/1999/xlink" viewBox="0 0 24.7137 16.4551">
 <g>
  <rect height="16.4551" opacity="0" width="24.7137" x="0" y="0"/>
  <path d="M0.701562 16.4453L1.78555 16.4453C2.30312 16.4453 2.54727 16.2012 2.70352 15.8301L6.67812 6.35742C6.80508 6.05469 6.66836 5.81055 6.35586 5.81055L5.46719 5.81055C5.16445 5.81055 4.97891 5.94727 4.84219 6.2207L0.0960932 15.4785C-0.128516 15.9277 0.0277338 16.4453 0.701562 16.4453ZM22.5766 16.4453L23.6508 16.4453C24.3246 16.4453 24.4906 15.9277 24.2562 15.4883L19.5199 6.2207C19.3734 5.94727 19.1879 5.81055 18.8852 5.81055L17.9965 5.81055C17.6937 5.81055 17.5473 6.05469 17.6742 6.35742L21.6684 15.8301C21.8148 16.2012 22.059 16.4453 22.5766 16.4453Z" fill="var(--color-secondary)"/>
  <path d="M3.53359 16.4355L20.8187 16.4355C20.7504 16.3477 20.6918 16.2305 20.6527 16.1133L20.3109 15.2637L4.05117 15.2637L3.70937 16.1133C3.66055 16.2305 3.60195 16.3477 3.53359 16.4355Z" fill="var(--color-primary)"/>
  <path d="M4.35391 14.4824L19.9984 14.4824L19.5297 13.3105L4.82266 13.3105Z" fill="var(--color-primary)"/>
  <path d="M5.14492 12.5098L19.2074 12.5098L18.7387 11.3281L5.60391 11.3281Z" fill="var(--color-primary)"/>
  <path d="M5.91641 10.5566L18.4262 10.5566L17.9574 9.375L6.38516 9.375Z" fill="var(--color-primary)"/>
  <path d="M6.71719 8.57422L17.6352 8.57422L17.1664 7.40234L7.17617 7.40234Z" fill="var(--color-primary)"/>
  <path d="M7.88906 6.24023C7.88906 6.51367 8.09414 6.71875 8.36758 6.71875L8.79727 6.71875C9.0707 6.71875 9.27578 6.51367 9.27578 6.24023L9.27578 5.69336L15.0668 5.69336L15.0668 6.24023C15.0668 6.51367 15.2719 6.71875 15.5453 6.71875L15.975 6.71875C16.2484 6.71875 16.4633 6.51367 16.4633 6.24023L16.4633 3.7793C16.4633 3.18359 16.3949 2.80273 15.9945 2.39258L15.6332 2.00195L15.2621 0.9375C15.057 0.351562 14.6469 0.107422 14.1391 0.0488281C13.9047 0.0195312 13.1234 0 12.1762 0C11.2191 0 10.4379 0.0195312 10.2035 0.0488281C9.6957 0.107422 9.28555 0.351562 9.08047 0.9375L8.71914 2.00195L8.34805 2.39258C7.94766 2.80273 7.88906 3.18359 7.88906 3.7793ZM9.7543 2.07031C9.56875 2.07031 9.51016 1.94336 9.56875 1.78711L9.79336 1.10352C9.86172 0.888672 9.97891 0.820312 10.1645 0.791016C10.4086 0.761719 11.141 0.732422 12.1762 0.732422C13.2016 0.732422 13.934 0.761719 14.1781 0.791016C14.3637 0.820312 14.4809 0.888672 14.5492 1.10352L14.7836 1.78711C14.8324 1.94336 14.7738 2.07031 14.5883 2.07031ZM9.22695 4.30664C8.99258 4.30664 8.82656 4.13086 8.82656 3.90625L8.82656 3.34961C8.82656 3.125 8.99258 2.95898 9.22695 2.95898C9.46133 2.95898 9.62734 3.11523 9.62734 3.34961L9.62734 3.90625C9.62734 4.14062 9.46133 4.30664 9.22695 4.30664ZM11.3656 4.12109C11.1801 4.12109 11.0531 4.00391 11.0531 3.79883L11.0531 3.45703C11.0531 3.26172 11.1801 3.14453 11.3656 3.14453L12.977 3.14453C13.1625 3.14453 13.2895 3.26172 13.2895 3.45703L13.2895 3.79883C13.2895 4.00391 13.1625 4.12109 12.977 4.12109ZM15.1645 4.30664C14.9398 4.30664 14.7641 4.13086 14.7641 3.90625L14.7641 3.34961C14.7641 3.125 14.9398 2.95898 15.1645 2.95898C15.3988 2.95898 15.5648 3.11523 15.5648 3.34961L15.5648 3.90625C15.5648 4.14062 15.3988 4.30664 15.1645 4.30664Z" fill="var(--color-primary)"/>
 </g>
</svg>
