<svg version="1.1" xmlns="http://www.w3.org/2000/svg" xmlns:xlink="http://www.w3.org/1999/xlink" viewBox="0 0 27.505 24.0527">
 <g>
  <rect height="24.0527" opacity="0" width="27.505" x="0" y="0"/>
  <path d="M8.0689 10.1562L4.09429 19.6289C3.9478 20 3.70366 20.2441 3.18608 20.2441L2.09233 20.2441C1.41851 20.2441 1.25249 19.7266 1.48687 19.2773L6.22319 10.0195C6.36968 9.74609 6.55522 9.60938 6.85796 9.60938L7.74663 9.60938C8.05913 9.60938 8.19585 9.85352 8.0689 10.1562ZM20.9009 10.0195L21.4936 11.1769C21.3376 11.1584 21.1785 11.1523 21.0181 11.1523C20.5167 11.1523 20.0272 11.2117 19.5587 11.3299L19.065 10.1562C18.938 9.85352 19.0748 9.60938 19.3873 9.60938L20.2759 9.60938C20.5787 9.60938 20.7642 9.74609 20.9009 10.0195Z" fill="var(--color-secondary)"/>
  <path d="M14.7055 16.3086L6.53569 16.3086L6.99468 15.127L15.0767 15.127C14.9156 15.5042 14.7908 15.8997 14.7055 16.3086Z" fill="var(--color-secondary)"/>
  <path d="M15.473 14.3555L7.30718 14.3555L7.77593 13.1738L16.367 13.1738C16.0217 13.528 15.7206 13.9245 15.473 14.3555Z" fill="var(--color-secondary)"/>
  <path d="M18.7202 11.5924C18.2053 11.7861 17.7235 12.0501 17.286 12.373L8.10796 12.373L8.56694 11.2012L18.5669 11.2012Z" fill="var(--color-secondary)"/>
  <path d="M15.5298 3.84766C16.0376 3.90625 16.4478 4.15039 16.6529 4.73633L17.024 5.80078L17.3853 6.19141C17.7857 6.60156 17.8443 6.98242 17.8443 7.57812L17.8443 10.0391C17.8443 10.3125 17.6392 10.5176 17.3658 10.5176L16.9361 10.5176C16.6626 10.5176 16.4576 10.3125 16.4576 10.0391L16.4576 9.49219L10.6666 9.49219L10.6666 10.0391C10.6666 10.3125 10.4615 10.5176 10.188 10.5176L9.75835 10.5176C9.48491 10.5176 9.27007 10.3125 9.27007 10.0391L9.27007 7.57812C9.27007 6.98242 9.33843 6.60156 9.73882 6.19141L10.1001 5.80078L10.4712 4.73633C10.6763 4.15039 11.0865 3.90625 11.5943 3.84766C11.8287 3.81836 12.6099 3.79883 13.5572 3.79883C14.5142 3.79883 15.2955 3.81836 15.5298 3.84766ZM10.2076 7.14844L10.2076 7.70508C10.2076 7.92969 10.3833 8.10547 10.6177 8.10547C10.8423 8.10547 11.0181 7.93945 11.0181 7.70508L11.0181 7.14844C11.0181 6.91406 10.8423 6.75781 10.6177 6.75781C10.3833 6.75781 10.2076 6.92383 10.2076 7.14844ZM16.1451 7.14844L16.1451 7.70508C16.1451 7.92969 16.3208 8.10547 16.5455 8.10547C16.7798 8.10547 16.9556 7.93945 16.9556 7.70508L16.9556 7.14844C16.9556 6.91406 16.7798 6.75781 16.5455 6.75781C16.3208 6.75781 16.1451 6.92383 16.1451 7.14844ZM12.7564 6.94336C12.5708 6.94336 12.4439 7.06055 12.4439 7.25586L12.4439 7.59766C12.4439 7.80273 12.5708 7.91992 12.7564 7.91992L14.358 7.91992C14.5533 7.91992 14.6802 7.80273 14.6802 7.59766L14.6802 7.25586C14.6802 7.06055 14.5533 6.94336 14.358 6.94336ZM11.5552 4.58984C11.3697 4.61914 11.2525 4.6875 11.1744 4.90234L10.9498 5.58594C10.9009 5.74219 10.9595 5.86914 11.1353 5.86914L15.9791 5.86914C16.1646 5.86914 16.2232 5.74219 16.1646 5.58594L15.94 4.90234C15.8716 4.6875 15.7544 4.61914 15.5591 4.58984C15.3248 4.56055 14.5923 4.53125 13.5572 4.53125C12.5318 4.53125 11.7994 4.56055 11.5552 4.58984Z" fill="var(--color-secondary)"/>
  <path d="M26.3013 17.5977C26.3013 14.707 23.899 12.2949 21.0181 12.2949C18.1275 12.2949 15.7154 14.707 15.7154 17.5977C15.7154 18.9453 16.233 20.1855 17.0923 21.123C17.3658 21.4453 17.8833 21.5137 18.274 21.1328L18.9087 20.5176C19.1333 20.3027 19.1236 19.9316 18.9087 19.7168C18.6841 19.502 18.3228 19.502 18.108 19.7168L17.7369 20.0879C17.2095 19.4043 16.9068 18.5449 16.9068 17.5977C16.9068 15.2832 18.7134 13.4766 21.0181 13.4766C23.3228 13.4766 25.1197 15.2832 25.1197 17.5977C25.1197 18.5449 24.8169 19.4043 24.2798 20.0879L23.9087 19.7168C23.6939 19.502 23.3423 19.502 23.1177 19.7168C22.9029 19.9316 22.8931 20.3027 23.1177 20.5176L23.7427 21.1328C24.1333 21.5234 24.6509 21.4453 24.9341 21.123C25.7837 20.1855 26.3013 18.9453 26.3013 17.5977ZM17.5318 17.0312L16.2818 17.0312L16.2818 18.1543L17.5318 18.1543C17.8345 18.1543 18.0982 17.9004 18.0982 17.5977C18.0982 17.2852 17.8345 17.0312 17.5318 17.0312ZM24.4654 17.0312C24.1626 17.0312 23.9087 17.2852 23.9087 17.5977C23.9087 17.9004 24.1626 18.1543 24.4654 18.1543L25.7154 18.1543L25.7154 17.0312ZM20.4517 14.1309C20.4517 14.4336 20.7154 14.6973 21.0181 14.6973C21.3111 14.6973 21.5748 14.4336 21.5748 14.1309L21.5748 12.8809L20.4517 12.8809ZM18.9869 14.7754L18.0982 13.8867L17.3072 14.6875L18.1861 15.5664C18.4107 15.7812 18.7623 15.7812 18.9869 15.5664C19.2115 15.3516 19.2115 14.9902 18.9869 14.7754ZM25.9693 11.2207C25.7935 11.0449 25.5591 11.1328 25.5201 11.3574L25.1685 13.1055C25.1197 13.3594 25.2759 13.4961 25.5201 13.457L27.2681 13.1055C27.4927 13.0566 27.5904 12.8418 27.4146 12.666ZM20.3248 18.3203C20.7056 18.6816 21.2427 18.6816 21.6138 18.3105C21.6822 18.2324 21.7994 18.0762 21.858 17.998L23.5083 15.5664C23.6158 15.4004 23.5865 15.2441 23.4888 15.1465C23.3912 15.0586 23.2447 15.0391 23.0787 15.1367L20.647 16.7969C20.5591 16.8555 20.4029 16.9629 20.3248 17.0312C19.9634 17.4023 19.9634 17.9395 20.3248 18.3203Z" fill="var(--color-primary)"/>
 </g>
</svg>
