<?xml version="1.0" encoding="UTF-8"?>
<!--Generator: Apple Native CoreSVG 341-->
<!DOCTYPE svg
PUBLIC "-//W3C//DTD SVG 1.1//EN"
       "http://www.w3.org/Graphics/SVG/1.1/DTD/svg11.dtd">
<svg version="1.1" xmlns="http://www.w3.org/2000/svg" xmlns:xlink="http://www.w3.org/1999/xlink" viewBox="0 0 16.1328 15.7715">
 <g>
  <rect height="15.7715" opacity="0" width="16.1328" x="0" y="0"/>
  <path d="M15.7715 7.89062C15.7715 12.2363 12.2363 15.7715 7.88086 15.7715C3.53516 15.7715 0 12.2363 0 7.89062C0 3.54492 3.53516 0.00976562 7.88086 0.00976562C12.2363 0.00976562 15.7715 3.54492 15.7715 7.89062ZM5.89844 4.23828C5.40039 4.29688 5.0293 4.56055 4.83398 4.9707C4.70703 5.23438 4.47266 5.9082 4.33594 6.57227L4.0332 6.96289C3.68164 7.40234 3.56445 7.76367 3.56445 8.35938L3.56445 10.4688C3.56445 10.7422 3.7793 10.957 4.05273 10.957L4.49219 10.957C4.76562 10.957 4.98047 10.7422 4.98047 10.4688L4.98047 9.86328C5.78125 9.91211 6.94336 9.94141 7.89062 9.94141C8.83789 9.94141 9.99023 9.91211 10.8008 9.86328L10.8008 10.4688C10.8008 10.7422 11.0156 10.957 11.2891 10.957L11.7285 10.957C12.002 10.957 12.207 10.7422 12.207 10.4688L12.207 8.35938C12.207 7.76367 12.0996 7.40234 11.748 6.96289L11.4453 6.57227C11.2988 5.9082 11.0742 5.23438 10.9473 4.9707C10.752 4.56055 10.3809 4.30664 9.87305 4.23828C9.62891 4.20898 8.85742 4.18945 7.89062 4.18945C6.92383 4.18945 6.14258 4.20898 5.89844 4.23828ZM5.89844 8.37891C5.89844 8.71094 5.625 8.98438 5.2832 8.98438C4.94141 8.98438 4.66797 8.71094 4.66797 8.37891C4.66797 8.02734 4.94141 7.76367 5.2832 7.76367C5.625 7.76367 5.89844 8.02734 5.89844 8.37891ZM11.1133 8.37891C11.1133 8.71094 10.8398 8.98438 10.4883 8.98438C10.1562 8.98438 9.88281 8.71094 9.88281 8.37891C9.88281 8.02734 10.1562 7.76367 10.4883 7.76367C10.8398 7.76367 11.1133 8.02734 11.1133 8.37891ZM9.30664 8.37891C9.30664 8.64258 9.12109 8.81836 8.85742 8.81836L6.92383 8.81836C6.66016 8.81836 6.47461 8.64258 6.47461 8.37891C6.47461 8.11523 6.66016 7.93945 6.92383 7.93945L8.85742 7.93945C9.12109 7.93945 9.30664 8.11523 9.30664 8.37891ZM9.75586 4.9707C9.92188 4.99023 9.99023 5.0293 10.0879 5.19531C10.1953 5.37109 10.3613 5.86914 10.4297 6.21094C10.4688 6.33789 10.4102 6.37695 10.2734 6.36719C9.73633 6.32812 9.08203 6.29883 7.89062 6.29883C6.69922 6.29883 6.04492 6.32812 5.50781 6.36719C5.37109 6.37695 5.32227 6.33789 5.35156 6.21094C5.41992 5.86914 5.58594 5.38086 5.68359 5.19531C5.78125 5.0293 5.85938 4.99023 6.02539 4.9707C6.26953 4.93164 6.82617 4.91211 7.89062 4.91211C8.95508 4.91211 9.50195 4.92188 9.75586 4.9707Z" fill="white" fill-opacity="0.85"/>
 </g>
</svg>
