<svg version="1.1" xmlns="http://www.w3.org/2000/svg" xmlns:xlink="http://www.w3.org/1999/xlink" viewBox="0 0 26.5416 20.1346">
 <g>
  <rect height="20.1346" opacity="0" width="26.5416" x="0" y="0"/>
  <path d="M7.35282 14.7206L8.13407 14.2714L7.5579 13.2851L6.78642 13.7343C6.23954 14.0468 5.83915 13.9101 5.47782 13.2949L5.11649 12.6699C4.66727 11.8886 4.90165 10.9609 5.85868 10.248L7.8411 8.75384C8.13407 8.52924 8.33915 8.30463 8.48563 8.03119L9.76493 5.61908C10.5169 4.1933 11.1419 3.60736 13.1927 2.41595L14.0423 1.92767C15.4095 1.13666 16.8059 1.01947 18.886 1.42963C19.2864 1.50775 19.472 1.48822 19.8919 1.39056L20.5266 1.25384C21.22 1.10736 21.679 1.26361 21.9817 1.78119L22.8411 3.27533C23.1927 3.89056 23.1145 4.30072 22.5677 4.61322L21.7864 5.0722L22.3626 6.05853L23.1341 5.60931C24.3645 4.89642 24.5794 4.00775 23.8274 2.69916L22.9681 1.21478C22.3724 0.189392 21.4837-0.181702 20.2532 0.0819698L19.2474 0.296814C17.7044-0.0156865 15.4974-0.23053 13.4759 0.941345L12.6263 1.42963C10.3899 2.71869 9.59892 3.47064 8.74931 5.08197L7.36259 7.69916L5.17509 9.33978C3.73954 10.4238 3.36845 11.9179 4.13017 13.2363L4.52079 13.9003C5.25321 15.1796 6.13212 15.4238 7.35282 14.7206ZM10.927 12.6503L19.638 7.62103L19.0716 6.6347L10.3606 11.664ZM10.2825 14.5839C11.3958 13.9394 11.7571 12.5722 11.1224 11.4687C10.4778 10.3554 9.11063 9.98431 7.99735 10.6288C6.88407 11.2734 6.52274 12.6406 7.16727 13.7538C7.80204 14.8574 9.16923 15.2285 10.2825 14.5839ZM9.75517 13.666C9.15946 14.0078 8.42704 13.8027 8.08524 13.2167C7.74345 12.6308 7.93876 11.8886 8.53446 11.5566C9.1204 11.2148 9.85282 11.4101 10.1946 11.996C10.5364 12.5917 10.3411 13.3242 9.75517 13.666ZM21.5618 8.08002C22.6653 7.43549 23.0364 6.0683 22.3919 4.95502C21.7474 3.84174 20.3802 3.48041 19.2766 4.12494C18.1634 4.7597 17.7923 6.12689 18.4368 7.24017C19.0813 8.35345 20.4485 8.71478 21.5618 8.08002ZM21.0247 7.15228C20.4388 7.49408 19.6966 7.29877 19.3645 6.70306C19.0227 6.11713 19.2181 5.3847 19.804 5.04291C20.3997 4.70111 21.1321 4.89642 21.4739 5.49213C21.8157 6.07806 21.6106 6.81049 21.0247 7.15228Z" fill="var(--color-secondary)"/>
  <path d="M4.76493 19.7109C4.97001 20.0527 5.3997 20.1601 5.72196 19.9745L25.8391 8.36322C26.1614 8.17767 26.2884 7.73822 26.0931 7.41595C25.8977 7.06439 25.4583 6.95697 25.136 7.14252L5.01884 18.7636C4.69657 18.9394 4.57938 19.3788 4.76493 19.7109Z" fill="var(--color-primary)"/>
  <path d="M3.62235 15.8339L1.9329 12.8945C1.63017 12.3671 1.01493 12.5136 0.858681 13.0214L0.0383686 15.4824C-0.0788189 15.8437 0.0774311 16.1074 0.438759 16.1855L2.96806 16.7128C3.51493 16.8203 3.92509 16.3613 3.62235 15.8339Z" fill="var(--color-primary)"/>
 </g>
</svg>
