<?xml version="1.0" encoding="UTF-8"?>
<!--Generator: Apple Native CoreSVG 341-->
<!DOCTYPE svg
PUBLIC "-//W3C//DTD SVG 1.1//EN"
       "http://www.w3.org/Graphics/SVG/1.1/DTD/svg11.dtd">
<svg version="1.1" xmlns="http://www.w3.org/2000/svg" xmlns:xlink="http://www.w3.org/1999/xlink" viewBox="0 0 14.7852 12.7637">
 <g>
  <rect height="12.7637" opacity="0" width="14.7852" x="0" y="0"/>
  <path d="M14.4238 1.5332L14.4238 0.126953C12.5488 0.253906 11.4453 0.654297 9.9707 1.57227L6.875 3.51562L3.51562 3.92578C1.31836 4.19922 0 5.56641 0 7.45117L0 8.39844C0 10.2148 0.791016 11.0254 2.5293 11.0254L3.63281 11.0254L3.63281 9.60938L2.5293 9.60938C1.74805 9.60938 1.40625 9.21875 1.40625 8.33984L1.40625 7.45117C1.40625 6.33789 2.22656 5.49805 3.69141 5.32227L6.73828 4.95117C7.1875 4.89258 7.53906 4.77539 7.87109 4.57031L10.7227 2.77344C11.9824 1.99219 12.8613 1.65039 14.4238 1.5332ZM14.4238 11.0254L14.4238 9.60938L7.62695 9.60938L7.62695 11.0254ZM5.74219 12.6855C7.32422 12.6855 8.56445 11.4551 8.56445 9.86328C8.56445 8.28125 7.32422 7.05078 5.74219 7.05078C4.16016 7.05078 2.91992 8.28125 2.91992 9.86328C2.91992 11.4551 4.16016 12.6855 5.74219 12.6855ZM5.74219 11.3672C4.90234 11.3672 4.23828 10.7129 4.23828 9.86328C4.23828 9.02344 4.90234 8.35938 5.74219 8.35938C6.58203 8.35938 7.24609 9.02344 7.24609 9.86328C7.24609 10.7129 6.58203 11.3672 5.74219 11.3672ZM0.644531 1.25977L3.04688 1.25977C3.31055 1.25977 3.54492 1.32812 3.7207 1.50391L6.45508 4.23828L7.63672 3.58398L4.72656 0.683594C4.25781 0.205078 3.61328 0 2.89062 0L0.644531 0C0.244141 0 0 0.253906 0 0.625C0 1.00586 0.244141 1.25977 0.644531 1.25977Z" fill="white" fill-opacity="0.85"/>
 </g>
</svg>
