<svg version="1.1" xmlns="http://www.w3.org/2000/svg" xmlns:xlink="http://www.w3.org/1999/xlink" viewBox="0 0 27.9199 12.7637">
 <g>
  <rect height="12.7637" opacity="0" width="27.9199" x="0" y="0"/>
  <path d="M0.644531 1.25977L3.04688 1.25977C3.31055 1.25977 3.54492 1.32812 3.7207 1.50391L6.45508 4.23828L7.63672 3.58398L4.72656 0.683594C4.25781 0.205078 3.61328 0 2.89062 0L0.644531 0C0.244141 0 0 0.253906 0 0.625C0 1.00586 0.244141 1.25977 0.644531 1.25977ZM2.5293 11.0254L3.63281 11.0254L3.63281 9.60938L2.5293 9.60938C1.74805 9.60938 1.40625 9.21875 1.40625 8.33984L1.40625 7.45117C1.40625 6.33789 2.22656 5.49805 3.69141 5.32227L6.73828 4.95117C7.1875 4.89258 7.53906 4.77539 7.87109 4.57031L10.7227 2.77344C12.4121 1.71875 13.4375 1.47461 16.3672 1.47461L17.5781 1.47461C19.5215 1.47461 21.0938 2.20703 23.0664 3.93555C23.4375 4.25781 23.6523 4.35547 24.1602 4.51172L24.9219 4.76562C25.752 5.0293 26.1523 5.46875 26.1523 6.2207L26.1523 8.33984C26.1523 9.21875 25.8105 9.60938 25.0293 9.60938L23.916 9.60938L23.916 11.0254L25.0293 11.0254C26.7871 11.0254 27.5586 10.1953 27.5586 8.33984L27.5586 6.2207C27.5586 4.75586 26.8359 3.80859 25.3613 3.33008L24.1504 2.93945C22.6953 1.66016 20.459 0.0683594 17.5781 0.0683594L16.3672 0.0683594C13.1836 0.0683594 11.875 0.380859 9.9707 1.57227L6.875 3.51562L3.51562 3.92578C1.31836 4.19922 0 5.56641 0 7.45117L0 8.39844C0 10.2148 0.791016 11.0254 2.5293 11.0254ZM7.62695 11.0254L20.0391 11.0254L20.0391 9.60938L7.62695 9.60938ZM5.74219 12.6855C7.32422 12.6855 8.56445 11.4551 8.56445 9.86328C8.56445 8.28125 7.32422 7.05078 5.74219 7.05078C4.16016 7.05078 2.91992 8.28125 2.91992 9.86328C2.91992 11.4551 4.16016 12.6855 5.74219 12.6855ZM5.74219 11.3672C4.90234 11.3672 4.23828 10.7129 4.23828 9.86328C4.23828 9.02344 4.90234 8.35938 5.74219 8.35938C6.58203 8.35938 7.24609 9.02344 7.24609 9.86328C7.24609 10.7129 6.58203 11.3672 5.74219 11.3672ZM21.8164 12.6855C23.3984 12.6855 24.6387 11.4551 24.6387 9.86328C24.6387 8.28125 23.3984 7.05078 21.8164 7.05078C20.2344 7.05078 18.9941 8.28125 18.9941 9.86328C18.9941 11.4551 20.2344 12.6855 21.8164 12.6855ZM21.8164 11.3672C20.9766 11.3672 20.3125 10.7129 20.3125 9.86328C20.3125 9.02344 20.9766 8.35938 21.8164 8.35938C22.6562 8.35938 23.3203 9.02344 23.3203 9.86328C23.3203 10.7129 22.6562 11.3672 21.8164 11.3672Z" fill="var(--color-primary)"/>
 </g>
</svg>
