<?xml version="1.0" encoding="UTF-8"?>
<!--Generator: Apple Native CoreSVG 341-->
<!DOCTYPE svg
PUBLIC "-//W3C//DTD SVG 1.1//EN"
       "http://www.w3.org/Graphics/SVG/1.1/DTD/svg11.dtd">
<svg version="1.1" xmlns="http://www.w3.org/2000/svg" xmlns:xlink="http://www.w3.org/1999/xlink" viewBox="0 0 15.459 20.5762">
 <g>
  <rect height="20.5762" opacity="0" width="15.459" x="0" y="0"/>
  <path d="M7.53906 1.42578C9.16016 1.42578 10.6445 1.97266 11.7773 2.96875C12.1387 3.29102 12.5488 3.36914 12.8613 3.0957C13.1934 2.8125 13.1934 2.32422 12.8223 1.98242C11.416 0.703125 9.55078 0 7.53906 0C5.53711 0 3.67188 0.703125 2.26562 1.98242C1.89453 2.32422 1.89453 2.8125 2.2168 3.0957C2.53906 3.36914 2.93945 3.29102 3.31055 2.96875C4.44336 1.97266 5.91797 1.42578 7.53906 1.42578Z" fill="white" fill-opacity="0.85"/>
  <path d="M7.54883 4.52148C8.31055 4.52148 9.01367 4.73633 9.58008 5.14648C9.96094 5.41992 10.3516 5.53711 10.6641 5.26367C10.9961 4.9707 11.0059 4.44336 10.6055 4.13086C9.75586 3.47656 8.68164 3.0957 7.54883 3.0957C6.40625 3.0957 5.3418 3.47656 4.49219 4.13086C4.08203 4.44336 4.0918 4.9707 4.42383 5.26367C4.74609 5.53711 5.12695 5.41992 5.50781 5.14648C6.08398 4.73633 6.78711 4.52148 7.54883 4.52148Z" fill="white" fill-opacity="0.85"/>
  <path d="M7.54883 16.8457C9.13086 16.8457 11.1035 16.7969 12.5098 16.709L12.5098 17.8223C12.5098 18.291 12.8711 18.6523 13.3496 18.6523L14.2578 18.6523C14.7266 18.6523 15.0977 18.291 15.0977 17.8223L15.0977 14.0918C15.0977 13.0469 14.9023 12.4414 14.2871 11.6602L13.7695 10.9961C13.5352 9.86328 13.125 8.68164 12.9102 8.22266C12.5684 7.50977 11.9141 7.06055 11.0547 6.95312C10.6445 6.9043 9.21875 6.86523 7.54883 6.86523C5.87891 6.86523 4.46289 6.9043 4.04297 6.95312C3.18359 7.06055 2.5293 7.50977 2.1875 8.22266C1.97266 8.68164 1.5625 9.86328 1.32812 10.9961L0.810547 11.6602C0.195312 12.4414 0 13.0469 0 14.0918L0 17.8223C0 18.291 0.371094 18.6523 0.849609 18.6523L1.74805 18.6523C2.22656 18.6523 2.58789 18.291 2.58789 17.8223L2.58789 16.709C3.99414 16.7969 5.97656 16.8457 7.54883 16.8457ZM2.72461 10.4492C2.86133 9.81445 3.17383 8.89648 3.37891 8.52539C3.53516 8.23242 3.70117 8.14453 3.99414 8.0957C4.47266 8.02734 5.51758 7.98828 7.54883 7.98828C9.58008 7.98828 10.625 8.01758 11.1035 8.0957C11.3965 8.14453 11.5527 8.23242 11.7188 8.52539C11.9336 8.88672 12.2168 9.81445 12.373 10.4492C12.4414 10.7031 12.3242 10.7812 12.0801 10.7617C11.0645 10.6934 9.80469 10.625 7.54883 10.625C5.29297 10.625 4.0332 10.6934 3.01758 10.7617C2.77344 10.7812 2.66602 10.7031 2.72461 10.4492ZM3.03711 15.1758C2.44141 15.1758 1.98242 14.7168 1.98242 14.1211C1.98242 13.5156 2.44141 13.0664 3.03711 13.0664C3.63281 13.0664 4.08203 13.5156 4.08203 14.1211C4.08203 14.7168 3.63281 15.1758 3.03711 15.1758ZM5.86914 14.8828C5.41992 14.8828 5.09766 14.5801 5.09766 14.1211C5.09766 13.6719 5.41992 13.3691 5.86914 13.3691L9.22852 13.3691C9.67773 13.3691 10 13.6719 10 14.1211C10 14.5801 9.67773 14.8828 9.22852 14.8828ZM12.0605 15.1758C11.4648 15.1758 11.0156 14.7168 11.0156 14.1211C11.0156 13.5156 11.4648 13.0664 12.0605 13.0664C12.6562 13.0664 13.1152 13.5156 13.1152 14.1211C13.1152 14.7168 12.6562 15.1758 12.0605 15.1758Z" fill="white" fill-opacity="0.85"/>
 </g>
</svg>
