<?xml version="1.0" encoding="UTF-8"?>
<!--Generator: Apple Native CoreSVG 341-->
<!DOCTYPE svg
PUBLIC "-//W3C//DTD SVG 1.1//EN"
       "http://www.w3.org/Graphics/SVG/1.1/DTD/svg11.dtd">
<svg version="1.1" xmlns="http://www.w3.org/2000/svg" xmlns:xlink="http://www.w3.org/1999/xlink" viewBox="0 0 21.875 18.5254">
 <g>
  <rect height="18.5254" opacity="0" width="21.875" x="0" y="0"/>
  <path d="M3.98438 18.5254L5.14648 18.5254C6.15234 18.5254 6.79688 17.959 6.79688 17.0508C6.79688 16.1914 6.31836 15.8398 5.78125 15.7129L5.78125 14.6875C5.78125 13.9062 5.83008 13.4082 5.95703 12.9883C6.8457 13.3594 8.14453 13.584 9.26758 13.584C10.3027 13.584 11.4453 13.4668 12.3242 13.2715C12.4219 13.6719 12.5 14.0234 12.5 14.1113C12.5 15.1465 12.3926 15.6738 12.3926 16.7188C12.3926 17.8711 13.0371 18.5254 14.1797 18.5254L15.2637 18.5254C16.2207 18.5254 16.9141 17.9199 16.9141 17.0508C16.9141 16.1914 16.4355 15.8398 15.8984 15.7129L15.8984 15.0781C15.8984 11.2695 18.8477 12.4219 19.0527 7.02148C20.4492 6.79688 21.5137 5.79102 21.5137 4.91211C21.5137 3.92578 20.5176 2.68555 19.4824 2.12891C19.2383 0.986328 18.3984 0.292969 17.8711 0.292969C17.3145 0.292969 16.6699 1.05469 16.3477 1.98242C15.7617 2.50977 15.127 3.33008 14.7266 4.04297L14.3555 4.7168C14.1699 5.05859 14.0039 5.23438 13.7207 5.23438C10.7129 5.23438 9.60938 4.79492 6.61133 4.79492C5.0293 4.79492 4.0625 5.36133 3.4668 6.10352C3.18359 6.46484 2.83203 6.38672 2.51953 6.19141C1.73828 5.75195 1.25977 4.93164 1.25977 3.91602C1.25977 2.36328 2.50977 1.26953 4.29688 1.26953C4.9707 1.26953 5.66406 1.40625 6.47461 1.73828C7.36328 2.08984 7.80273 0.908203 6.97266 0.556641C6.00586 0.175781 5.09766 0.00976562 4.29688 0.00976562C1.77734 0.00976562 0 1.63086 0 3.91602C0 5.49805 0.742188 6.75781 1.92383 7.38281C2.36328 7.61719 2.53906 7.82227 2.53906 8.25195C2.53906 8.76953 2.53906 9.19922 2.53906 9.47266C2.53906 11.7285 1.40625 12.4316 1.73828 13.6523L2.76367 17.4219C2.96875 18.1934 3.34961 18.5254 3.98438 18.5254ZM4.375 17.2656C4.14062 17.2656 3.99414 17.1191 3.89648 16.748L2.95898 13.3203C2.8125 12.793 3.79883 12.1289 3.79883 9.47266C3.79883 8.39844 3.84766 6.06445 6.61133 6.06445C9.24805 6.06445 11.5137 6.49414 14.0039 6.49414C14.5117 6.49414 15.0586 6.10352 15.4297 5.41992L15.8594 4.63867C16.3086 3.81836 16.7285 3.17383 17.0996 2.90039C17.5586 1.86523 17.7051 1.61133 17.8516 1.61133C17.9395 1.61133 18.2617 1.97266 18.4375 2.7832C19.3945 3.32031 20.2539 4.3457 20.2539 4.86328C20.2539 5.23438 19.5215 5.85938 18.4375 5.85938L18.3203 5.85938C17.9883 5.85938 17.8027 6.04492 17.8027 6.39648L17.8027 6.54297C17.8027 11.4355 14.6387 9.86328 14.6387 15.0781L14.6387 16.1914C14.6387 16.416 14.7656 16.543 14.9805 16.543L15.1758 16.543C15.5078 16.543 15.6543 16.6602 15.6543 16.9043C15.6543 17.1484 15.5078 17.2656 15.1758 17.2656L14.3262 17.2656C13.8965 17.2656 13.6523 17.041 13.6523 16.6211C13.6523 15.8984 13.7598 15.3711 13.7598 14.1113C13.7598 13.6621 13.3789 12.4414 13.3789 11.8848C13.3789 11.6895 13.5254 11.2988 13.7012 10.8691C14.0039 10.1465 12.8418 9.64844 12.5195 10.4297C12.3145 10.9473 12.1191 11.4844 12.1191 12.0312C11.377 12.207 10.2832 12.3242 9.26758 12.3242C8.27148 12.3242 7.23633 12.1387 6.58203 11.8945C6.9043 11.3965 7.13867 10.957 7.23633 10.6934C7.5 9.94141 6.40625 9.44336 6.02539 10.2539C5.77148 10.8203 5.49805 11.25 5.11719 11.9238C4.70703 12.6172 4.52148 13.1055 4.52148 13.9941L4.52148 16.1914C4.52148 16.416 4.64844 16.543 4.86328 16.543L5.05859 16.543C5.39062 16.543 5.53711 16.6797 5.53711 16.9043C5.53711 17.1582 5.39062 17.2656 5.05859 17.2656ZM18.5352 4.70703C18.8184 4.70703 19.043 4.48242 19.043 4.18945C19.043 3.91602 18.8184 3.68164 18.5352 3.68164C18.252 3.68164 18.0176 3.91602 18.0176 4.18945C18.0176 4.48242 18.252 4.70703 18.5352 4.70703Z" fill="white" fill-opacity="0.85"/>
 </g>
</svg>
