<?xml version="1.0" encoding="UTF-8"?>
<!--Generator: Apple Native CoreSVG 341-->
<!DOCTYPE svg
PUBLIC "-//W3C//DTD SVG 1.1//EN"
       "http://www.w3.org/Graphics/SVG/1.1/DTD/svg11.dtd">
<svg version="1.1" xmlns="http://www.w3.org/2000/svg" xmlns:xlink="http://www.w3.org/1999/xlink" viewBox="0 0 16.1328 15.7715">
 <g>
  <rect height="15.7715" opacity="0" width="16.1328" x="0" y="0"/>
  <path d="M15.7715 7.88086C15.7715 12.2266 12.2363 15.7617 7.88086 15.7617C3.53516 15.7617 0 12.2266 0 7.88086C0 3.53516 3.53516 0 7.88086 0C12.2363 0 15.7715 3.53516 15.7715 7.88086ZM7.59766 3.75L7.59766 4.36523C5.88867 4.51172 4.87305 5.92773 4.87305 7.8125C4.87305 9.6582 5.82031 11.1035 7.59766 11.2695L7.59766 11.8848C7.59766 12.041 7.72461 12.168 7.88086 12.168C8.04688 12.168 8.16406 12.0508 8.16406 11.8848L8.16406 11.2793C9.24805 11.2207 10.1953 10.7129 10.5566 9.74609C10.6055 9.62891 10.625 9.51172 10.625 9.375C10.625 9.10156 10.4395 8.93555 10.166 8.93555C9.90234 8.93555 9.76562 9.07227 9.6875 9.31641C9.47266 9.92188 8.86719 10.3223 8.16406 10.4004L8.16406 5.23438C8.82812 5.3125 9.42383 5.73242 9.62891 6.30859C9.72656 6.5625 9.84375 6.69922 10.1074 6.69922C10.3809 6.69922 10.5664 6.54297 10.5664 6.25C10.5664 6.05469 10.5078 5.89844 10.4395 5.76172C10.0293 4.89258 9.14062 4.41406 8.16406 4.35547L8.16406 3.75C8.16406 3.59375 8.04688 3.4668 7.88086 3.4668C7.72461 3.4668 7.59766 3.59375 7.59766 3.75ZM7.59766 10.3809C6.43555 10.1855 5.91797 9.04297 5.91797 7.8125C5.91797 6.5625 6.47461 5.42969 7.59766 5.25391Z" fill="white" fill-opacity="0.85"/>
 </g>
</svg>
