<?xml version="1.0" encoding="UTF-8"?>
<!--Generator: Apple Native CoreSVG 341-->
<!DOCTYPE svg
PUBLIC "-//W3C//DTD SVG 1.1//EN"
       "http://www.w3.org/Graphics/SVG/1.1/DTD/svg11.dtd">
<svg version="1.1" xmlns="http://www.w3.org/2000/svg" xmlns:xlink="http://www.w3.org/1999/xlink" viewBox="0 0 19.1159 15.7715">
 <g>
  <rect height="15.7715" opacity="0" width="19.1159" x="0" y="0"/>
  <path d="M0.602889 6.35742C-0.0123451 6.35742-0.158829 6.77734 0.173202 7.24609L1.91148 9.7168C2.18492 10.0977 2.59508 10.0977 2.85875 9.7168L4.59703 7.23633C4.9193 6.77734 4.77281 6.35742 4.16734 6.35742ZM17.263 7.88086C17.263 3.52539 13.7279 0 9.37242 0C5.02672 0 1.50133 3.51562 1.49156 7.89062C1.50133 8.29102 1.83336 8.62305 2.23375 8.62305C2.6439 8.62305 2.9857 8.28125 2.9857 7.88086C2.9857 4.3457 5.83726 1.48438 9.37242 1.48438C12.9076 1.48438 15.7689 4.3457 15.7689 7.88086C15.7689 11.416 12.9076 14.2773 9.37242 14.2773C7.28258 14.2773 5.44664 13.2715 4.2943 11.7578C4.02086 11.3965 3.60094 11.2891 3.23961 11.5137C2.88805 11.7285 2.78062 12.2363 3.08336 12.6172C4.53844 14.5312 6.78453 15.7617 9.37242 15.7617C13.7279 15.7617 17.263 12.2363 17.263 7.88086Z" fill="white" fill-opacity="0.425"/>
  <path d="M9.43101 11.2891C10.6127 11.2891 11.6576 10.7812 12.0482 9.74609C12.097 9.62891 12.1166 9.51172 12.1166 9.375C12.1166 9.10156 11.931 8.93555 11.6576 8.93555C11.3939 8.93555 11.2572 9.07227 11.1791 9.31641C10.9447 9.98047 10.2318 10.4004 9.43101 10.4004C8.03453 10.4004 7.40953 9.15039 7.40953 7.8125C7.40953 6.44531 8.07359 5.22461 9.42125 5.22461C10.1927 5.22461 10.8861 5.66406 11.1205 6.30859C11.2181 6.5625 11.3353 6.69922 11.599 6.69922C11.8724 6.69922 12.058 6.54297 12.058 6.25C12.058 6.05469 11.9994 5.89844 11.931 5.76172C11.4916 4.82422 10.4955 4.3457 9.42125 4.3457C7.50719 4.3457 6.36461 5.80078 6.36461 7.8125C6.36461 9.77539 7.43883 11.2891 9.43101 11.2891ZM9.37242 12.168C9.53844 12.168 9.65562 12.0508 9.65562 11.8848L9.65562 3.75C9.65562 3.59375 9.53844 3.4668 9.37242 3.4668C9.21617 3.4668 9.08922 3.59375 9.08922 3.75L9.08922 11.8848C9.08922 12.041 9.21617 12.168 9.37242 12.168Z" fill="white" fill-opacity="0.85"/>
 </g>
</svg>
