<?xml version="1.0" encoding="UTF-8"?>
<!--Generator: Apple Native CoreSVG 341-->
<!DOCTYPE svg
PUBLIC "-//W3C//DTD SVG 1.1//EN"
       "http://www.w3.org/Graphics/SVG/1.1/DTD/svg11.dtd">
<svg version="1.1" xmlns="http://www.w3.org/2000/svg" xmlns:xlink="http://www.w3.org/1999/xlink" viewBox="0 0 18.9844 15.498">
 <g>
  <rect height="15.498" opacity="0" width="18.9844" x="0" y="0"/>
  <path d="M18.623 9.30664C18.623 7.03125 17.8125 4.94141 16.4453 3.31055C16.2891 3.125 16.0352 3.125 15.8594 3.30078L14.0332 5.13672C13.8867 5.2832 13.8867 5.48828 14.0137 5.6543C14.8047 6.66016 15.2734 7.92969 15.2734 9.30664C15.2734 10.6836 14.8047 11.9531 13.9551 13.0371C13.8574 13.1641 13.8672 13.3203 13.9746 13.4277L15.8594 15.3125C16.0352 15.4883 16.2891 15.4883 16.4453 15.3027C17.8125 13.6816 18.623 11.5918 18.623 9.30664Z" fill="white" fill-opacity="0.425"/>
  <path d="M9.31641 3.34961C10.7031 3.34961 11.9727 3.82812 12.9883 4.61914C13.1445 4.73633 13.3398 4.72656 13.4863 4.58008L15.3223 2.75391C15.498 2.57812 15.4883 2.32422 15.3027 2.16797C13.6816 0.810547 11.5918 0 9.31641 0C7.04102 0 4.94141 0.810547 3.33008 2.16797C3.14453 2.32422 3.13477 2.57812 3.31055 2.75391L5.13672 4.58008C5.2832 4.72656 5.48828 4.73633 5.6543 4.60938C6.66992 3.82812 7.93945 3.34961 9.31641 3.34961Z" fill="white" fill-opacity="0.425"/>
  <path d="M0 9.30664C0 11.5918 0.820312 13.6816 2.17773 15.3027C2.33398 15.4883 2.58789 15.4883 2.76367 15.3125L4.64844 13.4277C4.76562 13.3203 4.77539 13.1641 4.66797 13.0371C3.82812 11.9531 3.35938 10.6836 3.35938 9.30664C3.35938 7.92969 3.82812 6.66016 4.61914 5.6543C4.74609 5.48828 4.74609 5.2832 4.59961 5.13672L2.76367 3.30078C2.58789 3.125 2.33398 3.125 2.17773 3.31055C0.820312 4.94141 0 7.03125 0 9.30664Z" fill="white" fill-opacity="0.425"/>
  <path d="M9.36523 12.8125C10.5371 12.8125 11.5918 12.3047 11.9727 11.2695C12.0215 11.1523 12.041 11.0352 12.041 10.9082C12.041 10.625 11.8652 10.459 11.5918 10.459C11.3281 10.459 11.1914 10.5957 11.1035 10.8496C10.8789 11.5039 10.1562 11.9336 9.36523 11.9336C7.95898 11.9336 7.33398 10.6836 7.33398 9.33594C7.33398 7.96875 8.00781 6.74805 9.35547 6.74805C10.1172 6.74805 10.8203 7.19727 11.0449 7.8418C11.1426 8.0957 11.2695 8.22266 11.5332 8.22266C11.7969 8.22266 11.9824 8.06641 11.9824 7.7832C11.9824 7.57812 11.9336 7.43164 11.8652 7.28516C11.4258 6.35742 10.4199 5.86914 9.35547 5.86914C7.44141 5.86914 6.29883 7.33398 6.29883 9.33594C6.29883 11.2988 7.36328 12.8125 9.36523 12.8125ZM9.30664 13.6914C9.46289 13.6914 9.58008 13.5742 9.58008 13.4082L9.58008 5.27344C9.58008 5.11719 9.46289 4.99023 9.30664 4.99023C9.14062 4.99023 9.02344 5.11719 9.02344 5.27344L9.02344 13.4082C9.02344 13.5645 9.14062 13.6914 9.30664 13.6914Z" fill="white" fill-opacity="0.85"/>
 </g>
</svg>
