<svg version="1.1" xmlns="http://www.w3.org/2000/svg" xmlns:xlink="http://www.w3.org/1999/xlink" viewBox="0 0 17.7734 16.5527">
 <g>
  <rect height="16.5527" opacity="0" width="17.7734" x="0" y="0"/>
  <path d="M1.10352 15.5078L16.3184 15.5078L16.3184 14.5508C16.3184 14.1992 16.1133 13.9941 15.752 13.9941L15.2637 13.9941L15.2637 5.42969L15.918 5.42969C16.3965 5.42969 16.6797 5.07812 16.6797 4.72656C16.6797 4.46289 16.5234 4.23828 16.2109 4.04297L9.6875 0.283203C9.375 0.0976562 9.0332 0 8.71094 0C8.37891 0 8.03711 0.0976562 7.72461 0.283203L1.20117 4.04297C0.878906 4.23828 0.732422 4.46289 0.732422 4.72656C0.732422 5.07812 1.01562 5.42969 1.49414 5.42969L2.1582 5.42969L2.1582 13.9941L1.66992 13.9941C1.30859 13.9941 1.10352 14.1992 1.10352 14.5508ZM0.703125 16.543L16.709 16.543C17.0898 16.543 17.4121 16.2207 17.4121 15.8301C17.4121 15.4492 17.0898 15.127 16.709 15.127L0.703125 15.127C0.322266 15.127 0 15.4492 0 15.8301C0 16.2207 0.322266 16.543 0.703125 16.543Z" fill="var(--color-tertiary)"/>
  <path d="M8.69141 12.5C8.51562 12.5 8.37891 12.3633 8.37891 12.207L8.37891 11.543C7.02148 11.3965 6.07422 10.4004 6.07422 8.7207C6.07422 7.16797 6.93359 6.04492 8.37891 5.9082L8.37891 5.23438C8.37891 5.07812 8.51562 4.94141 8.69141 4.94141C8.84766 4.94141 8.98438 5.07812 8.98438 5.23438L8.98438 5.9082C9.59961 5.95703 10.1562 6.19141 10.5371 6.5625C10.791 6.81641 11.0059 7.1582 11.0059 7.4707C11.0059 7.75391 10.8105 7.91992 10.5469 7.91992C10.3418 7.91992 10.1758 7.79297 10.0977 7.60742C9.87305 7.09961 9.50195 6.82617 8.98438 6.76758L8.98438 10.6836C9.48242 10.6152 9.84375 10.332 10.1074 9.83398C10.1855 9.6875 10.3125 9.52148 10.5469 9.52148C10.8008 9.52148 11.0156 9.6875 11.0156 9.9707C11.0156 10.2539 10.8203 10.6152 10.5566 10.8789C10.1758 11.2402 9.58984 11.4844 8.98438 11.543L8.98438 12.207C8.98438 12.3633 8.84766 12.5 8.69141 12.5ZM7.08984 8.7207C7.08984 9.72656 7.5 10.5078 8.37891 10.6738L8.37891 6.77734C7.5293 6.92383 7.08984 7.69531 7.08984 8.7207Z" fill="var(--color-primary)"/>
 </g>
</svg>
