<?xml version="1.0" encoding="UTF-8"?>
<!--Generator: Apple Native CoreSVG 341-->
<!DOCTYPE svg
PUBLIC "-//W3C//DTD SVG 1.1//EN"
       "http://www.w3.org/Graphics/SVG/1.1/DTD/svg11.dtd">
<svg version="1.1" xmlns="http://www.w3.org/2000/svg" xmlns:xlink="http://www.w3.org/1999/xlink" viewBox="0 0 15.752 10.498">
 <g>
  <rect height="10.498" opacity="0" width="15.752" x="0" y="0"/>
  <path d="M3.64258 10.498C5.3418 10.498 6.66992 9.67773 7.4707 8.28125L7.55859 8.28125C8.22266 9.6582 9.54102 10.498 11.3184 10.498C13.1836 10.498 14.6094 9.70703 15.2539 8.31055C15.3223 8.13477 15.3711 7.96875 15.3711 7.83203C15.3711 7.40234 15.0781 7.11914 14.6484 7.11914C14.3945 7.11914 14.209 7.2168 14.0332 7.45117C13.2715 8.62305 12.5 9.07227 11.2598 9.07227C9.43359 9.07227 8.27148 7.74414 8.27148 5.78125L8.27148 5.67383L14.4824 5.67383C15.0488 5.67383 15.3906 5.32227 15.3906 4.72656C15.3906 1.97266 13.6914 0.00976562 11.25 0.00976562C9.6582 0.00976562 8.45703 0.742188 7.77344 2.06055L7.70508 2.06055C7.23633 0.78125 5.92773 0.00976562 4.22852 0.00976562C2.63672 0.00976562 1.16211 0.751953 0.595703 1.88477C0.458984 2.12891 0.400391 2.37305 0.400391 2.57812C0.400391 3.01758 0.693359 3.31055 1.12305 3.31055C1.42578 3.31055 1.65039 3.18359 1.79688 2.91016C2.35352 1.875 3.125 1.44531 4.25781 1.44531C5.67383 1.44531 6.65039 2.39258 6.65039 3.67188L6.65039 4.41406L3.7793 4.56055C1.34766 4.67773 0 5.73242 0 7.4707C0 9.30664 1.41602 10.498 3.64258 10.498ZM3.69141 9.0918C2.46094 9.0918 1.66016 8.4082 1.66016 7.45117C1.66016 6.48438 2.4707 5.91797 3.94531 5.83008L6.65039 5.68359L6.65039 6.47461C6.65039 7.91992 5.36133 9.0918 3.69141 9.0918ZM8.27148 4.4043C8.38867 2.65625 9.51172 1.43555 11.1133 1.43555C12.6855 1.43555 13.6816 2.61719 13.7109 4.4043Z" fill="white" fill-opacity="0.85"/>
 </g>
</svg>
