<svg version="1.1" xmlns="http://www.w3.org/2000/svg" xmlns:xlink="http://www.w3.org/1999/xlink" viewBox="0 0 11.5234 16.084">
 <g>
  <rect height="16.084" opacity="0" width="11.5234" x="0" y="0"/>
  <path d="M5.15625 16.0547C8.04688 16.0547 10.3223 13.7793 10.3223 10.8984C10.3223 7.99805 8.04688 5.72266 5.14648 5.72266C2.26562 5.72266 0 7.99805 0 10.8984C0 13.7793 2.27539 16.0547 5.15625 16.0547ZM5.15625 14.5703C3.0957 14.5703 1.48438 12.959 1.48438 10.8984C1.48438 8.82812 3.0957 7.20703 5.14648 7.20703C7.2168 7.20703 8.83789 8.82812 8.83789 10.8984C8.83789 12.959 7.2168 14.5703 5.15625 14.5703ZM8.83789 10.8984L10.3223 10.8984L10.3223 2.2168L8.83789 2.2168ZM9.58008 3.17383C10.459 3.17383 11.1621 2.46094 11.1621 1.58203C11.1621 0.703125 10.459 0 9.58008 0C8.70117 0 7.98828 0.703125 7.98828 1.58203C7.98828 2.46094 8.70117 3.17383 9.58008 3.17383Z" fill="var(--color-primary)"/>
 </g>
</svg>
