<?xml version="1.0" encoding="UTF-8"?>
<!--Generator: Apple Native CoreSVG 341-->
<!DOCTYPE svg
PUBLIC "-//W3C//DTD SVG 1.1//EN"
       "http://www.w3.org/Graphics/SVG/1.1/DTD/svg11.dtd">
<svg version="1.1" xmlns="http://www.w3.org/2000/svg" xmlns:xlink="http://www.w3.org/1999/xlink" viewBox="0 0 14.5898 14.248">
 <g>
  <rect height="14.248" opacity="0" width="14.5898" x="0" y="0"/>
  <path d="M14.2285 2.4707L14.2285 11.7871C14.2285 13.4277 13.4082 14.248 11.7383 14.248L2.49023 14.248C0.830078 14.248 0 13.4277 0 11.7871L0 2.4707C0 0.830078 0.830078 0.00976562 2.49023 0.00976562L11.7383 0.00976562C13.4082 0.00976562 14.2285 0.830078 14.2285 2.4707ZM6.10352 3.90625L3.92578 9.78516C3.85742 9.98047 3.83789 10.1074 3.83789 10.2539C3.83789 10.6152 4.10156 10.8691 4.50195 10.8691C4.82422 10.8691 5.05859 10.7227 5.19531 10.293L5.73242 8.71094L8.49609 8.71094L9.0332 10.293C9.16992 10.7227 9.4043 10.8691 9.72656 10.8691C10.127 10.8691 10.3906 10.6152 10.3906 10.2539C10.3906 10.1074 10.3711 9.98047 10.3027 9.78516L8.125 3.90625C7.94922 3.4375 7.59766 3.19336 7.09961 3.19336C6.61133 3.19336 6.2793 3.4375 6.10352 3.90625ZM8.14453 7.63672L6.08398 7.63672L7.07031 4.69727L7.1582 4.69727Z" fill="white" fill-opacity="0.85"/>
 </g>
</svg>
