<?xml version="1.0" encoding="UTF-8"?>
<!--Generator: Apple Native CoreSVG 341-->
<!DOCTYPE svg
PUBLIC "-//W3C//DTD SVG 1.1//EN"
       "http://www.w3.org/Graphics/SVG/1.1/DTD/svg11.dtd">
<svg version="1.1" xmlns="http://www.w3.org/2000/svg" xmlns:xlink="http://www.w3.org/1999/xlink" viewBox="0 0 18.7793 19.5801">
 <g>
  <rect height="19.5801" opacity="0" width="18.7793" x="0" y="0"/>
  <path d="M14.031 2.26562L4.38693 2.26562C4.40825 1.55962 4.8348 1.16211 5.56641 1.16211L12.8516 1.16211C13.5832 1.16211 14.0097 1.55962 14.031 2.26562Z" fill="white" fill-opacity="0.85"/>
  <path d="M15.6315 4.56702C15.3557 4.51675 15.0597 4.49219 14.7461 4.49219L3.68164 4.49219C3.36425 4.49219 3.06488 4.51714 2.78635 4.56833C2.86989 3.72053 3.42283 3.25195 4.3457 3.25195L14.0723 3.25195C14.9947 3.25195 15.5475 3.72004 15.6315 4.56702Z" fill="white" fill-opacity="0.85"/>
  <path d="M17.2363 8.125L17.2363 15.9375C17.2363 17.5781 16.4062 18.3887 14.7461 18.3887L3.68164 18.3887C2.01172 18.3887 1.19141 17.5781 1.19141 15.9375L1.19141 8.125C1.19141 6.48438 2.01172 5.67383 3.68164 5.67383L14.7461 5.67383C16.4062 5.67383 17.2363 6.49414 17.2363 8.125ZM11.4258 9.01367L8.31055 14.0527L6.9043 12.1777C6.68945 11.8945 6.49414 11.8066 6.25 11.8066C5.84961 11.8066 5.54688 12.1289 5.54688 12.5293C5.54688 12.7246 5.625 12.9199 5.75195 13.0957L7.56836 15.3613C7.80273 15.6738 8.04688 15.791 8.34961 15.791C8.65234 15.791 8.90625 15.6543 9.08203 15.3613L12.5684 9.85352C12.6758 9.67773 12.793 9.47266 12.793 9.27734C12.793 8.86719 12.4316 8.60352 12.0508 8.60352C11.8164 8.60352 11.5918 8.74023 11.4258 9.01367Z" fill="white" fill-opacity="0.85"/>
 </g>
</svg>
