<svg version="1.1" xmlns="http://www.w3.org/2000/svg" xmlns:xlink="http://www.w3.org/1999/xlink" viewBox="0 0 17.666 15.5176">
 <g>
  <rect height="15.5176" opacity="0" width="17.666" x="0" y="0"/>
  <path d="M9.0625 12.8711L16.5918 12.8711C16.9824 12.8711 17.3047 12.5586 17.3047 12.168C17.3047 11.7773 16.9824 11.4648 16.5918 11.4648L9.0625 11.4648C8.67188 11.4648 8.35938 11.7773 8.35938 12.168C8.35938 12.5586 8.67188 12.8711 9.0625 12.8711Z" fill="var(--color-secondary)"/>
  <path d="M3.34961 15.5176C5.16602 15.5176 6.67969 13.9844 6.67969 12.168C6.67969 10.3418 5.16602 8.81836 3.34961 8.81836C1.51367 8.81836 0 10.3418 0 12.168C0 13.9844 1.52344 15.5176 3.34961 15.5176ZM2.94922 13.9453C2.77344 13.9453 2.65625 13.8477 2.5293 13.7109L1.70898 12.7051C1.64062 12.6172 1.61133 12.5195 1.61133 12.3828C1.61133 12.1484 1.78711 11.9629 2.01172 11.9629C2.16797 11.9629 2.27539 12.0215 2.39258 12.1777L2.92969 12.8809L4.23828 10.7715C4.32617 10.6152 4.45312 10.5371 4.60938 10.5371C4.83398 10.5371 5.0293 10.7129 5.0293 10.918C5.0293 11.0352 5 11.1328 4.92188 11.2598L3.37891 13.7109C3.28125 13.8574 3.125 13.9453 2.94922 13.9453Z" fill="var(--color-primary)"/>
  <path d="M9.0625 4.08203L16.5918 4.08203C16.9824 4.08203 17.3047 3.76953 17.3047 3.37891C17.3047 2.98828 16.9824 2.67578 16.5918 2.67578L9.0625 2.67578C8.67188 2.67578 8.35938 2.98828 8.35938 3.37891C8.35938 3.76953 8.67188 4.08203 9.0625 4.08203Z" fill="var(--color-secondary)"/>
  <path d="M3.34961 6.71875C5.16602 6.71875 6.67969 5.18555 6.67969 3.36914C6.67969 1.54297 5.16602 0.0292969 3.34961 0.0292969C1.51367 0.0292969 0 1.54297 0 3.36914C0 5.18555 1.52344 6.71875 3.34961 6.71875ZM2.94922 5.14648C2.77344 5.14648 2.65625 5.04883 2.5293 4.91211L1.70898 3.91602C1.64062 3.81836 1.61133 3.7207 1.61133 3.58398C1.61133 3.34961 1.78711 3.16406 2.01172 3.16406C2.16797 3.16406 2.27539 3.22266 2.39258 3.37891L2.92969 4.08203L4.23828 1.97266C4.32617 1.81641 4.45312 1.73828 4.60938 1.73828C4.83398 1.73828 5.0293 1.91406 5.0293 2.12891C5.0293 2.23633 5 2.33398 4.92188 2.46094L3.37891 4.91211C3.28125 5.05859 3.125 5.14648 2.94922 5.14648Z" fill="var(--color-primary)"/>
 </g>
</svg>
