<?xml version="1.0" encoding="UTF-8"?>
<!--Generator: Apple Native CoreSVG 341-->
<!DOCTYPE svg
PUBLIC "-//W3C//DTD SVG 1.1//EN"
       "http://www.w3.org/Graphics/SVG/1.1/DTD/svg11.dtd">
<svg version="1.1" xmlns="http://www.w3.org/2000/svg" xmlns:xlink="http://www.w3.org/1999/xlink" viewBox="0 0 16.1328 15.7715">
 <g>
  <rect height="15.7715" opacity="0" width="16.1328" x="0" y="0"/>
  <path d="M7.88086 15.7617C12.2363 15.7617 15.7715 12.2266 15.7715 7.88086C15.7715 3.53516 12.2363 0 7.88086 0C3.53516 0 0 3.53516 0 7.88086C0 12.2266 3.53516 15.7617 7.88086 15.7617Z" fill="white" fill-opacity="0.2125"/>
  <path d="M3.94531 9.76562C3.70117 9.52148 3.71094 9.0918 3.98438 8.80859L6.99219 5.58594C7.55859 4.98047 8.22266 4.98047 8.78906 5.58594L11.7969 8.80859C12.0703 9.0918 12.0801 9.52148 11.8359 9.76562C11.5527 10.0586 11.123 10.0586 10.8691 9.78516L7.89062 6.60156L4.91211 9.78516C4.6582 10.0586 4.22852 10.0586 3.94531 9.76562Z" fill="white" fill-opacity="0.85"/>
 </g>
</svg>
