<svg version="1.1" xmlns="http://www.w3.org/2000/svg" xmlns:xlink="http://www.w3.org/1999/xlink" viewBox="0 0 14.5898 14.248">
 <g>
  <rect height="14.248" opacity="0" width="14.5898" x="0" y="0"/>
  <path d="M2.49023 14.248L11.7383 14.248C13.4082 14.248 14.2285 13.4277 14.2285 11.7871L14.2285 2.4707C14.2285 0.830078 13.4082 0.00976562 11.7383 0.00976562L2.49023 0.00976562C0.830078 0.00976562 0 0.830078 0 2.4707L0 11.7871C0 13.4277 0.830078 14.248 2.49023 14.248ZM2.50977 12.832C1.80664 12.832 1.40625 12.4512 1.40625 11.7188L1.40625 2.53906C1.40625 1.79688 1.80664 1.42578 2.50977 1.42578L11.7188 1.42578C12.4219 1.42578 12.8223 1.79688 12.8223 2.53906L12.8223 11.7188C12.8223 12.4512 12.4219 12.832 11.7188 12.832Z" fill="var(--color-secondary)"/>
  <path d="M7.28516 2.59766C7.12891 2.59766 6.98242 2.66602 6.8457 2.79297L4.14062 5.39062C4.04297 5.47852 3.95508 5.625 3.95508 5.82031C3.95508 6.16211 4.22852 6.42578 4.57031 6.42578C4.6875 6.42578 4.86328 6.38672 4.99023 6.25L7.28516 4.01367L9.57031 6.25C9.70703 6.37695 9.86328 6.42578 10 6.42578C10.332 6.42578 10.6055 6.16211 10.6055 5.82031C10.6055 5.625 10.5273 5.47852 10.4297 5.39062L7.71484 2.79297C7.58789 2.66602 7.43164 2.59766 7.28516 2.59766ZM7.28516 11.6406C7.43164 11.6406 7.59766 11.5723 7.71484 11.4453L10.4297 8.84766C10.5273 8.75977 10.6055 8.60352 10.6055 8.41797C10.6055 8.07617 10.332 7.8125 10 7.8125C9.86328 7.8125 9.70703 7.86133 9.57031 7.98828L7.28516 10.2246L4.99023 7.98828C4.86328 7.85156 4.6875 7.8125 4.57031 7.8125C4.22852 7.8125 3.95508 8.07617 3.95508 8.41797C3.95508 8.60352 4.04297 8.75977 4.14062 8.84766L6.8457 11.4453C6.97266 11.5723 7.12891 11.6406 7.28516 11.6406Z" fill="var(--color-primary)"/>
 </g>
</svg>
