<?xml version="1.0" encoding="UTF-8"?>
<!--Generator: Apple Native CoreSVG 341-->
<!DOCTYPE svg
PUBLIC "-//W3C//DTD SVG 1.1//EN"
       "http://www.w3.org/Graphics/SVG/1.1/DTD/svg11.dtd">
<svg version="1.1" xmlns="http://www.w3.org/2000/svg" xmlns:xlink="http://www.w3.org/1999/xlink" viewBox="0 0 16.1328 15.7715">
 <g>
  <rect height="15.7715" opacity="0" width="16.1328" x="0" y="0"/>
  <path d="M7.88086 15.7617C12.2363 15.7617 15.7715 12.2363 15.7715 7.88086C15.7715 3.52539 12.2363 0 7.88086 0C3.53516 0 0 3.52539 0 7.88086C0 12.2363 3.53516 15.7617 7.88086 15.7617ZM7.88086 14.2773C4.3457 14.2773 1.49414 11.416 1.49414 7.88086C1.49414 4.3457 4.3457 1.48438 7.88086 1.48438C11.416 1.48438 14.2773 4.3457 14.2773 7.88086C14.2773 11.416 11.416 14.2773 7.88086 14.2773Z" fill="white" fill-opacity="0.425"/>
  <path d="M8.75 10.332L11.6504 7.2168C11.9043 6.94336 11.9141 6.54297 11.6797 6.30859C11.4062 6.03516 10.9863 6.02539 10.7422 6.28906L7.88086 9.3457L5.01953 6.28906C4.77539 6.02539 4.3457 6.02539 4.08203 6.30859C3.85742 6.55273 3.85742 6.94336 4.11133 7.2168L7.02148 10.332C7.55859 10.9082 8.20312 10.9082 8.75 10.332Z" fill="white" fill-opacity="0.85"/>
 </g>
</svg>
