<?xml version="1.0" encoding="UTF-8"?>
<!--Generator: Apple Native CoreSVG 341-->
<!DOCTYPE svg
PUBLIC "-//W3C//DTD SVG 1.1//EN"
       "http://www.w3.org/Graphics/SVG/1.1/DTD/svg11.dtd">
<svg version="1.1" xmlns="http://www.w3.org/2000/svg" xmlns:xlink="http://www.w3.org/1999/xlink" viewBox="0 0 14.248 10.8105">
 <g>
  <rect height="10.8105" opacity="0" width="14.248" x="0" y="0"/>
  <path d="M0.556641 8.4668L5.6543 10.4492C6.06445 10.6055 6.55273 10.8008 6.94336 10.8008C7.33398 10.8008 7.83203 10.6055 8.23242 10.4492L13.3301 8.4668C13.6621 8.33984 13.8867 8.03711 13.8867 7.71484C13.8867 7.1875 13.5059 6.79688 12.9883 6.79688C12.7246 6.79688 12.373 6.94336 12.1484 7.03125L6.30859 9.30664L7.57812 9.30664L1.73828 7.03125C1.51367 6.94336 1.17188 6.79688 0.898438 6.79688C0.380859 6.79688 0 7.1875 0 7.71484C0 8.03711 0.224609 8.33984 0.556641 8.4668ZM0.556641 2.33398C0.224609 2.46094 0 2.76367 0 3.08594C0 3.61328 0.380859 4.00391 0.898438 4.00391C1.17188 4.00391 1.51367 3.85742 1.73828 3.76953L7.57812 1.49414L6.30859 1.49414L12.1484 3.76953C12.373 3.85742 12.7246 4.00391 12.9883 4.00391C13.5059 4.00391 13.8867 3.61328 13.8867 3.08594C13.8867 2.76367 13.6621 2.46094 13.3301 2.33398L8.23242 0.351562C7.83203 0.195312 7.33398 0 6.94336 0C6.55273 0 6.06445 0.195312 5.6543 0.351562Z" fill="white" fill-opacity="0.85"/>
 </g>
</svg>
