<?xml version="1.0" encoding="UTF-8"?>
<!--Generator: Apple Native CoreSVG 341-->
<!DOCTYPE svg
PUBLIC "-//W3C//DTD SVG 1.1//EN"
       "http://www.w3.org/Graphics/SVG/1.1/DTD/svg11.dtd">
<svg version="1.1" xmlns="http://www.w3.org/2000/svg" xmlns:xlink="http://www.w3.org/1999/xlink" viewBox="0 0 16.1328 15.7715">
 <g>
  <rect height="15.7715" opacity="0" width="16.1328" x="0" y="0"/>
  <path d="M7.88086 15.7617C12.2363 15.7617 15.7715 12.2363 15.7715 7.88086C15.7715 3.52539 12.2363 0 7.88086 0C3.53516 0 0 3.52539 0 7.88086C0 12.2363 3.53516 15.7617 7.88086 15.7617ZM7.88086 14.2773C4.3457 14.2773 1.49414 11.416 1.49414 7.88086C1.49414 4.3457 4.3457 1.48438 7.88086 1.48438C11.416 1.48438 14.2773 4.3457 14.2773 7.88086C14.2773 11.416 11.416 14.2773 7.88086 14.2773Z" fill="white" fill-opacity="0.85"/>
  <path d="M4.0918 9.67773C4.35547 9.96094 4.77539 9.96094 5.01953 9.69727L7.88086 6.64062L10.752 9.69727C10.9961 9.96094 11.416 9.96094 11.6797 9.67773C11.9141 9.44336 11.9043 9.04297 11.6504 8.76953L8.75 5.6543C8.20312 5.07812 7.56836 5.07812 7.02148 5.6543L4.12109 8.76953C3.86719 9.04297 3.85742 9.44336 4.0918 9.67773Z" fill="white" fill-opacity="0.85"/>
 </g>
</svg>
