<?xml version="1.0" encoding="UTF-8"?>
<!--Generator: Apple Native CoreSVG 341-->
<!DOCTYPE svg
PUBLIC "-//W3C//DTD SVG 1.1//EN"
       "http://www.w3.org/Graphics/SVG/1.1/DTD/svg11.dtd">
<svg version="1.1" xmlns="http://www.w3.org/2000/svg" xmlns:xlink="http://www.w3.org/1999/xlink" viewBox="0 0 11.2012 14.4824">
 <g>
  <rect height="14.4824" opacity="0" width="11.2012" x="0" y="0"/>
  <path d="M5.41016 14.4727C5.9375 14.4727 6.26953 14.1309 6.26953 13.5938L6.26953 8.4375L10.6641 1.33789C10.7812 1.16211 10.8398 0.976562 10.8398 0.771484C10.8398 0.302734 10.4297 0 9.96094 0C9.66797 0 9.375 0.185547 9.21875 0.449219L5.44922 6.86523L5.38086 6.86523L1.62109 0.458984C1.46484 0.185547 1.17188 0 0.869141 0C0.400391 0 0 0.302734 0 0.771484C0 0.976562 0.0585938 1.16211 0.166016 1.33789L4.56055 8.4375L4.56055 13.5938C4.56055 14.1309 4.89258 14.4727 5.41016 14.4727ZM1.02539 8.07617C1.02539 8.37891 1.2793 8.63281 1.5918 8.63281L9.25781 8.63281C9.57031 8.63281 9.82422 8.37891 9.82422 8.07617C9.82422 7.76367 9.57031 7.50977 9.25781 7.50977L1.5918 7.50977C1.2793 7.50977 1.02539 7.76367 1.02539 8.07617ZM1.02539 10.8008C1.02539 11.1133 1.2793 11.3672 1.5918 11.3672L9.25781 11.3672C9.57031 11.3672 9.82422 11.1133 9.82422 10.8008C9.82422 10.4883 9.57031 10.2344 9.25781 10.2344L1.5918 10.2344C1.2793 10.2344 1.02539 10.4883 1.02539 10.8008Z" fill="white" fill-opacity="0.85"/>
 </g>
</svg>
