<svg version="1.1" xmlns="http://www.w3.org/2000/svg" xmlns:xlink="http://www.w3.org/1999/xlink" viewBox="0 0 22.168 15.7715">
 <g>
  <rect height="15.7715" opacity="0" width="22.168" x="0" y="0"/>
  <path d="M0 7.88086C0 7.50977 0.3125 7.1875 0.673828 7.1875L21.1328 7.1875C21.4941 7.1875 21.8066 7.50977 21.8066 7.88086C21.8066 8.26172 21.4941 8.57422 21.1328 8.57422L0.673828 8.57422C0.3125 8.57422 0 8.26172 0 7.88086ZM10.9082 15.7617C15.2539 15.7617 18.7891 12.2266 18.7891 7.88086C18.7891 3.53516 15.2539 0 10.9082 0C6.55273 0 3.02734 3.53516 3.02734 7.88086C3.02734 12.2266 6.55273 15.7617 10.9082 15.7617Z" fill="var(--color-primary)"/>
 </g>
</svg>
