<?xml version="1.0" encoding="UTF-8"?>
<!--Generator: Apple Native CoreSVG 341-->
<!DOCTYPE svg
PUBLIC "-//W3C//DTD SVG 1.1//EN"
       "http://www.w3.org/Graphics/SVG/1.1/DTD/svg11.dtd">
<svg version="1.1" xmlns="http://www.w3.org/2000/svg" xmlns:xlink="http://www.w3.org/1999/xlink" viewBox="0 0 18.1934 18.1934">
 <g>
  <rect height="18.1934" opacity="0" width="18.1934" x="0" y="0"/>
  <path d="M8.91602 18.1738C10.752 18.1738 12.2559 16.6699 12.2559 14.8438C12.2559 13.0176 10.752 11.5137 8.91602 11.5137C7.07031 11.5137 5.57617 13.0176 5.57617 14.8438C5.57617 16.6699 7.07031 18.1738 8.91602 18.1738Z" fill="white" fill-opacity="0.85"/>
  <path d="M14.502 12.4219C16.3281 12.4219 17.832 10.918 17.832 9.08203C17.832 7.25586 16.3281 5.75195 14.502 5.75195C12.6562 5.75195 11.1621 7.25586 11.1621 9.08203C11.1621 10.918 12.6562 12.4219 14.502 12.4219Z" fill="white" fill-opacity="0.85"/>
  <path d="M3.33984 12.4219C5.17578 12.4219 6.67969 10.918 6.67969 9.08203C6.67969 7.25586 5.17578 5.75195 3.33984 5.75195C1.49414 5.75195 0 7.25586 0 9.08203C0 10.918 1.49414 12.4219 3.33984 12.4219Z" fill="white" fill-opacity="0.85"/>
  <path d="M8.91602 6.66016C10.752 6.66016 12.2559 5.15625 12.2559 3.33008C12.2559 1.50391 10.752 0 8.91602 0C7.07031 0 5.57617 1.50391 5.57617 3.33008C5.57617 5.15625 7.07031 6.66016 8.91602 6.66016Z" fill="white" fill-opacity="0.85"/>
 </g>
</svg>
