<svg version="1.1" xmlns="http://www.w3.org/2000/svg" xmlns:xlink="http://www.w3.org/1999/xlink" viewBox="0 0 16.9434 15.3809">
 <g>
  <rect height="15.3809" opacity="0" width="16.9434" x="0" y="0"/>
  <path d="M11.1426 15.3809C12.5781 15.3809 13.7402 14.2188 13.7402 12.7832C13.7402 11.3477 12.5781 10.1758 11.1426 10.1758C9.70703 10.1758 8.53516 11.3477 8.53516 12.7832C8.53516 14.2188 9.70703 15.3809 11.1426 15.3809ZM11.1426 13.9746C10.4883 13.9746 9.95117 13.4375 9.95117 12.7832C9.95117 12.1289 10.4883 11.5918 11.1426 11.5918C11.7969 11.5918 12.334 12.1289 12.334 12.7832C12.334 13.4375 11.7969 13.9746 11.1426 13.9746Z" fill="var(--color-primary)"/>
  <path d="M5.43945 15.3809C6.88477 15.3809 8.04688 14.2188 8.04688 12.7832C8.04688 11.3477 6.88477 10.1758 5.43945 10.1758C4.00391 10.1758 2.8418 11.3477 2.8418 12.7832C2.8418 14.2188 4.00391 15.3809 5.43945 15.3809ZM5.43945 13.9746C4.78516 13.9746 4.24805 13.4375 4.24805 12.7832C4.24805 12.1289 4.78516 11.5918 5.43945 11.5918C6.10352 11.5918 6.64062 12.1289 6.64062 12.7832C6.64062 13.4375 6.10352 13.9746 5.43945 13.9746Z" fill="var(--color-primary)"/>
  <path d="M13.9844 10.293C15.4199 10.293 16.582 9.12109 16.582 7.68555C16.582 6.25 15.4199 5.07812 13.9844 5.07812C12.5488 5.07812 11.377 6.25 11.377 7.68555C11.377 9.12109 12.5488 10.293 13.9844 10.293ZM13.9844 8.87695C13.3203 8.87695 12.7832 8.33984 12.7832 7.68555C12.7832 7.03125 13.3203 6.49414 13.9844 6.49414C14.6387 6.49414 15.1758 7.03125 15.1758 7.68555C15.1758 8.33984 14.6387 8.87695 13.9844 8.87695Z" fill="var(--color-primary)"/>
  <path d="M2.60742 10.293C4.04297 10.293 5.20508 9.12109 5.20508 7.68555C5.20508 6.25 4.04297 5.07812 2.60742 5.07812C1.16211 5.07812 0 6.25 0 7.68555C0 9.12109 1.16211 10.293 2.60742 10.293ZM2.60742 8.87695C1.94336 8.87695 1.40625 8.33984 1.40625 7.68555C1.40625 7.03125 1.94336 6.49414 2.60742 6.49414C3.26172 6.49414 3.79883 7.03125 3.79883 7.68555C3.79883 8.33984 3.26172 8.87695 2.60742 8.87695Z" fill="var(--color-primary)"/>
  <path d="M11.1426 5.20508C12.5781 5.20508 13.7402 4.0332 13.7402 2.59766C13.7402 1.16211 12.5781 0 11.1426 0C9.70703 0 8.53516 1.16211 8.53516 2.59766C8.53516 4.0332 9.70703 5.20508 11.1426 5.20508ZM11.1426 3.78906C10.4883 3.78906 9.95117 3.25195 9.95117 2.59766C9.95117 1.94336 10.4883 1.40625 11.1426 1.40625C11.7969 1.40625 12.334 1.94336 12.334 2.59766C12.334 3.25195 11.7969 3.78906 11.1426 3.78906Z" fill="var(--color-primary)"/>
  <path d="M5.43945 5.20508C6.88477 5.20508 8.04688 4.0332 8.04688 2.59766C8.04688 1.16211 6.88477 0 5.43945 0C4.00391 0 2.8418 1.16211 2.8418 2.59766C2.8418 4.0332 4.00391 5.20508 5.43945 5.20508ZM5.43945 3.78906C4.78516 3.78906 4.24805 3.25195 4.24805 2.59766C4.24805 1.94336 4.78516 1.40625 5.43945 1.40625C6.10352 1.40625 6.64062 1.94336 6.64062 2.59766C6.64062 3.25195 6.10352 3.78906 5.43945 3.78906Z" fill="var(--color-primary)"/>
  <path d="M8.29102 10.293C9.72656 10.293 10.8984 9.12109 10.8984 7.68555C10.8984 6.25 9.72656 5.07812 8.29102 5.07812C6.85547 5.07812 5.69336 6.25 5.69336 7.68555C5.69336 9.12109 6.85547 10.293 8.29102 10.293ZM8.29102 8.87695C7.63672 8.87695 7.09961 8.33984 7.09961 7.68555C7.09961 7.03125 7.63672 6.49414 8.29102 6.49414C8.95508 6.49414 9.48242 7.03125 9.48242 7.68555C9.48242 8.33984 8.95508 8.87695 8.29102 8.87695Z" fill="var(--color-primary)"/>
 </g>
</svg>
