<?xml version="1.0" encoding="UTF-8"?>
<!--Generator: Apple Native CoreSVG 341-->
<!DOCTYPE svg
PUBLIC "-//W3C//DTD SVG 1.1//EN"
       "http://www.w3.org/Graphics/SVG/1.1/DTD/svg11.dtd">
<svg version="1.1" xmlns="http://www.w3.org/2000/svg" xmlns:xlink="http://www.w3.org/1999/xlink" viewBox="0 0 17.6953 16.9434">
 <g>
  <rect height="16.9434" opacity="0" width="17.6953" x="0" y="0"/>
  <path d="M10.6836 16.9434C14.3555 16.9434 17.334 13.9746 17.334 10.3027C17.334 7.32422 15.3516 4.78516 12.6562 3.95508L12.6562 2.76367C12.6562 1.12305 11.8262 0.3125 10.166 0.3125L2.49023 0.3125C0.820312 0.3125 0 1.12305 0 2.76367L0 10.5176C0 12.1582 0.820312 12.9688 2.49023 12.9688L4.60938 12.9688C5.63477 15.3125 7.96875 16.9434 10.6836 16.9434ZM10.6836 15.498C8.27148 15.498 6.28906 13.916 5.68359 11.7773C5.64453 11.6309 5.56641 11.5625 5.41992 11.5625L2.50977 11.5625C1.80664 11.5625 1.40625 11.1816 1.40625 10.4395L1.40625 2.8418C1.40625 2.09961 1.80664 1.71875 2.50977 1.71875L10.1465 1.71875C10.8496 1.71875 11.25 2.09961 11.25 2.8418L11.25 4.91211C11.25 5.05859 11.3281 5.15625 11.4844 5.17578C13.9844 5.52734 15.8789 7.65625 15.8789 10.3027C15.8789 13.2129 13.5938 15.498 10.6836 15.498Z" fill="white" fill-opacity="0.85"/>
 </g>
</svg>
