<?xml version="1.0" encoding="UTF-8"?>
<!--Generator: Apple Native CoreSVG 341-->
<!DOCTYPE svg
PUBLIC "-//W3C//DTD SVG 1.1//EN"
       "http://www.w3.org/Graphics/SVG/1.1/DTD/svg11.dtd">
<svg version="1.1" xmlns="http://www.w3.org/2000/svg" xmlns:xlink="http://www.w3.org/1999/xlink" viewBox="0 0 14.5898 14.248">
 <g>
  <rect height="14.248" opacity="0" width="14.5898" x="0" y="0"/>
  <path d="M2.49023 14.248L11.7383 14.248C13.4082 14.248 14.2285 13.4277 14.2285 11.7871L14.2285 2.4707C14.2285 0.830078 13.4082 0.00976562 11.7383 0.00976562L2.49023 0.00976562C0.830078 0.00976562 0 0.830078 0 2.4707L0 11.7871C0 13.4277 0.830078 14.248 2.49023 14.248ZM2.50977 12.832C1.80664 12.832 1.40625 12.4512 1.40625 11.7188L1.40625 2.53906C1.40625 1.79688 1.80664 1.42578 2.50977 1.42578L11.7188 1.42578C12.4219 1.42578 12.8223 1.79688 12.8223 2.53906L12.8223 11.7188C12.8223 12.4512 12.4219 12.832 11.7188 12.832Z" fill="white" fill-opacity="0.85"/>
  <path d="M5.03906 10.1953L10.1855 5.03906C10.3125 4.91211 10.3906 4.74609 10.3906 4.56055C10.3906 4.16992 10.0781 3.86719 9.69727 3.86719C9.50195 3.86719 9.3457 3.93555 9.21875 4.07227L4.05273 9.20898C3.92578 9.3457 3.84766 9.50195 3.84766 9.69727C3.84766 10.0879 4.16016 10.4004 4.54102 10.4004C4.74609 10.4004 4.91211 10.3223 5.03906 10.1953ZM9.20898 10.1953C9.32617 10.3223 9.49219 10.4004 9.69727 10.4004C10.0781 10.4004 10.3906 10.0879 10.3906 9.69727C10.3906 9.50195 10.3125 9.3457 10.1855 9.20898L5.01953 4.07227C4.89258 3.93555 4.73633 3.86719 4.54102 3.86719C4.16016 3.86719 3.84766 4.16992 3.84766 4.56055C3.84766 4.74609 3.92578 4.91211 4.05273 5.03906Z" fill="white" fill-opacity="0.85"/>
 </g>
</svg>
