<?xml version="1.0" encoding="UTF-8"?>
<!--Generator: Apple Native CoreSVG 341-->
<!DOCTYPE svg
PUBLIC "-//W3C//DTD SVG 1.1//EN"
       "http://www.w3.org/Graphics/SVG/1.1/DTD/svg11.dtd">
<svg version="1.1" xmlns="http://www.w3.org/2000/svg" xmlns:xlink="http://www.w3.org/1999/xlink" viewBox="0 0 16.1328 15.7715">
 <g>
  <rect height="15.7715" opacity="0" width="16.1328" x="0" y="0"/>
  <path d="M7.88086 15.7715C12.2363 15.7715 15.7715 12.2363 15.7715 7.89062C15.7715 3.54492 12.2363 0.00976562 7.88086 0.00976562C3.53516 0.00976562 0 3.54492 0 7.89062C0 12.2363 3.53516 15.7715 7.88086 15.7715Z" fill="white" fill-opacity="0.2125"/>
  <path d="M5.43945 8.93555C4.29688 8.93555 3.63281 8.19336 3.63281 7.28516C3.63281 6.48438 4.14062 5.88867 4.82422 5.68359C4.95117 4.28711 6.13281 3.16406 7.56836 3.16406C8.64258 3.16406 9.52148 3.76953 10 4.6875C11.2891 4.6875 12.2852 5.57617 12.2852 6.80664C12.2852 7.96875 11.3477 8.93555 10.0977 8.93555ZM5.24414 10.5664C5.03906 10.5664 4.86328 10.3906 4.86328 10.1758C4.86328 9.95117 5.03906 9.77539 5.24414 9.77539L10.5078 9.77539C10.7324 9.77539 10.8984 9.95117 10.8984 10.1758C10.8984 10.3906 10.7324 10.5664 10.5078 10.5664ZM5.24414 12.1875C5.03906 12.1875 4.86328 12.0117 4.86328 11.7871C4.86328 11.5723 5.03906 11.4062 5.24414 11.4062L10.5078 11.4062C10.7324 11.4062 10.8984 11.5723 10.8984 11.7871C10.8984 12.0117 10.7324 12.1875 10.5078 12.1875Z" fill="white" fill-opacity="0.85"/>
 </g>
</svg>
