<?xml version="1.0" encoding="UTF-8"?>
<!--Generator: Apple Native CoreSVG 341-->
<!DOCTYPE svg
PUBLIC "-//W3C//DTD SVG 1.1//EN"
       "http://www.w3.org/Graphics/SVG/1.1/DTD/svg11.dtd">
<svg version="1.1" xmlns="http://www.w3.org/2000/svg" xmlns:xlink="http://www.w3.org/1999/xlink" viewBox="0 0 17.6172 17.2754">
 <g>
  <rect height="17.2754" opacity="0" width="17.6172" x="0" y="0"/>
  <path d="M8.63281 17.2656C13.3594 17.2656 17.2559 13.3691 17.2559 8.63281C17.2559 3.89648 13.3594 0 8.63281 0C3.89648 0 0 3.89648 0 8.63281C0 13.3691 3.89648 17.2656 8.63281 17.2656ZM8.63281 14.3555C5.46875 14.3555 2.91016 11.7969 2.91016 8.63281C2.91016 5.46875 5.46875 2.91016 8.63281 2.91016C11.7871 2.91016 14.3457 5.46875 14.3457 8.63281C14.3457 11.7969 11.7871 14.3555 8.63281 14.3555Z" fill="white" fill-opacity="0.425"/>
  <path d="M8.7207 12.041C9.89258 12.041 10.9668 11.4648 11.3281 10.459C11.377 10.332 11.3965 10.2246 11.3965 10.0879C11.3965 9.76562 11.1719 9.63867 10.9375 9.63867C10.6641 9.63867 10.5469 9.79492 10.459 10.0293C10.1758 10.7715 9.50195 11.1621 8.7207 11.1621C7.31445 11.1621 6.68945 9.90234 6.68945 8.56445C6.68945 7.19727 7.35352 5.97656 8.71094 5.97656C9.49219 5.97656 10.1758 6.44531 10.4004 7.09961C10.4883 7.34375 10.5957 7.49023 10.8789 7.49023C11.1621 7.49023 11.3379 7.31445 11.3379 7.04102C11.3379 6.92383 11.3086 6.77734 11.2598 6.66016C10.8203 5.61523 9.78516 5.09766 8.71094 5.09766C6.78711 5.09766 5.64453 6.55273 5.64453 8.56445C5.64453 10.5273 6.71875 12.041 8.7207 12.041ZM6.9043 13.1055C7.04102 13.1055 7.13867 13.0371 7.17773 12.8906L9.22852 4.57031C9.24805 4.50195 9.25781 4.46289 9.25781 4.43359C9.25781 4.27734 9.14062 4.16016 8.98438 4.16016C8.81836 4.16016 8.73047 4.23828 8.69141 4.38477L6.63086 12.6855C6.62109 12.7246 6.61133 12.7832 6.61133 12.832C6.61133 12.9883 6.73828 13.1055 6.9043 13.1055ZM8.37891 13.1055C8.52539 13.1055 8.62305 13.0371 8.65234 12.8906L10.7129 4.57031C10.7324 4.50195 10.7422 4.46289 10.7422 4.43359C10.7422 4.27734 10.625 4.16016 10.459 4.16016C10.3027 4.16016 10.2051 4.23828 10.166 4.38477L8.11523 12.6855C8.10547 12.7246 8.0957 12.7832 8.0957 12.832C8.0957 12.9883 8.22266 13.1055 8.37891 13.1055Z" fill="white" fill-opacity="0.85"/>
 </g>
</svg>
