<?xml version="1.0" encoding="UTF-8"?>
<!--Generator: Apple Native CoreSVG 341-->
<!DOCTYPE svg
PUBLIC "-//W3C//DTD SVG 1.1//EN"
       "http://www.w3.org/Graphics/SVG/1.1/DTD/svg11.dtd">
<svg version="1.1" xmlns="http://www.w3.org/2000/svg" xmlns:xlink="http://www.w3.org/1999/xlink" viewBox="0 0 18.9844 15.4424">
 <g>
  <rect height="15.4424" opacity="0" width="18.9844" x="0" y="0"/>
  <path d="M18.623 9.27882C18.623 4.40578 14.8926 0.411637 10.127 0.00148111C9.88281-0.0180501 9.69727 0.157731 9.69727 0.401872L9.69727 2.98C9.69727 3.18507 9.84375 3.34132 10.0488 3.36086C12.9883 3.73195 15.2734 6.24172 15.2734 9.27882C15.2734 10.6558 14.8047 11.9253 13.9551 13.0093C13.8574 13.1362 13.8672 13.2925 13.9746 13.3999L15.8594 15.2847C16.0352 15.4605 16.2891 15.4605 16.4453 15.2749C17.8125 13.6538 18.623 11.564 18.623 9.27882Z" fill="white" fill-opacity="0.85"/>
  <path d="M0 9.27882C0 11.564 0.820312 13.6538 2.17773 15.2749C2.33398 15.4605 2.58789 15.4605 2.76367 15.2847L4.64844 13.3999C4.76562 13.2925 4.77539 13.1362 4.66797 13.0093C3.82812 11.9253 3.35938 10.6558 3.35938 9.27882C3.35938 6.24172 5.63477 3.73195 8.57422 3.36086C8.7793 3.34132 8.92578 3.18507 8.92578 2.98L8.92578 0.401872C8.92578 0.157731 8.74023-0.0180501 8.49609 0.00148111C3.74023 0.411637 0 4.40578 0 9.27882Z" fill="white" fill-opacity="0.85"/>
  <path d="M9.39453 12.7847C10.5664 12.7847 11.6406 12.2085 12.002 11.2027C12.0508 11.0855 12.0703 10.9683 12.0703 10.8413C12.0703 10.5191 11.8457 10.3823 11.6211 10.3823C11.3477 10.3823 11.2305 10.5484 11.1328 10.773C10.8496 11.5249 10.1758 11.9058 9.39453 11.9058C7.99805 11.9058 7.36328 10.6558 7.36328 9.30812C7.36328 7.94093 8.03711 6.72023 9.38477 6.72023C10.166 6.72023 10.8594 7.18898 11.0742 7.84328C11.1621 8.09718 11.2695 8.2339 11.5625 8.2339C11.8359 8.2339 12.0117 8.06789 12.0117 7.79445C12.0117 7.6675 11.9824 7.52101 11.9336 7.40382C11.4941 6.3589 10.4688 5.84132 9.38477 5.84132C7.46094 5.84132 6.32812 7.30617 6.32812 9.30812C6.32812 11.271 7.39258 12.7847 9.39453 12.7847ZM7.57812 13.8491C7.71484 13.8491 7.8125 13.7905 7.85156 13.6343L9.90234 5.32375C9.92188 5.25539 9.93164 5.20656 9.93164 5.17726C9.93164 5.02101 9.82422 4.91359 9.6582 4.91359C9.50195 4.91359 9.4043 4.98195 9.36523 5.12843L7.30469 13.4292C7.29492 13.478 7.28516 13.5269 7.28516 13.5757C7.28516 13.7417 7.41211 13.8491 7.57812 13.8491ZM9.05273 13.8491C9.19922 13.8491 9.29688 13.7905 9.33594 13.6343L11.3867 5.32375C11.4062 5.25539 11.416 5.20656 11.416 5.17726C11.416 5.02101 11.2988 4.91359 11.1426 4.91359C10.9766 4.91359 10.8789 4.98195 10.8398 5.12843L8.78906 13.4292C8.7793 13.478 8.76953 13.5269 8.76953 13.5757C8.76953 13.7417 8.89648 13.8491 9.05273 13.8491Z" fill="white" fill-opacity="0.85"/>
 </g>
</svg>
