<?xml version="1.0" encoding="UTF-8"?>
<!--Generator: Apple Native CoreSVG 341-->
<!DOCTYPE svg
PUBLIC "-//W3C//DTD SVG 1.1//EN"
       "http://www.w3.org/Graphics/SVG/1.1/DTD/svg11.dtd">
<svg version="1.1" xmlns="http://www.w3.org/2000/svg" xmlns:xlink="http://www.w3.org/1999/xlink" viewBox="0 0 17.7734 16.5527">
 <g>
  <rect height="16.5527" opacity="0" width="17.7734" x="0" y="0"/>
  <path d="M1.10352 15.5078L16.3184 15.5078L16.3184 14.5508C16.3184 14.1992 16.1133 13.9941 15.752 13.9941L15.2637 13.9941L15.2637 5.42969L15.918 5.42969C16.3965 5.42969 16.6797 5.07812 16.6797 4.72656C16.6797 4.46289 16.5234 4.23828 16.2109 4.04297L9.6875 0.283203C9.375 0.0976562 9.0332 0 8.71094 0C8.37891 0 8.03711 0.0976562 7.72461 0.283203L1.20117 4.04297C0.878906 4.23828 0.732422 4.46289 0.732422 4.72656C0.732422 5.07812 1.01562 5.42969 1.49414 5.42969L2.1582 5.42969L2.1582 13.9941L1.66992 13.9941C1.30859 13.9941 1.10352 14.1992 1.10352 14.5508ZM0.703125 16.543L16.709 16.543C17.0898 16.543 17.4121 16.2207 17.4121 15.8301C17.4121 15.4492 17.0898 15.127 16.709 15.127L0.703125 15.127C0.322266 15.127 0 15.4492 0 15.8301C0 16.2207 0.322266 16.543 0.703125 16.543Z" fill="white" fill-opacity="0.2125"/>
  <path d="M8.44727 13.418C8.29102 13.418 8.1543 13.3008 8.1543 13.125C8.1543 13.0859 8.16406 13.0273 8.17383 12.9883L8.34961 12.2754C8.03711 12.2363 7.74414 12.168 7.48047 12.0605L7.20703 13.1836C7.1582 13.3496 7.06055 13.418 6.91406 13.418C6.74805 13.418 6.62109 13.3008 6.62109 13.125C6.62109 13.0859 6.63086 13.0273 6.64062 12.9883L6.94336 11.7578C6.07422 11.123 5.61523 10.0098 5.61523 8.70117C5.61523 6.68945 6.71875 5.20508 8.59375 5.10742L8.7793 4.36523C8.81836 4.20898 8.90625 4.14062 9.08203 4.14062C9.24805 4.14062 9.36523 4.24805 9.36523 4.41406C9.36523 4.44336 9.35547 4.49219 9.33594 4.56055L9.19922 5.12695C9.49219 5.16602 9.79492 5.23438 10.0684 5.35156L10.3125 4.36523C10.3516 4.20898 10.4492 4.14062 10.6152 4.14062C10.791 4.14062 10.8984 4.24805 10.8984 4.41406C10.8984 4.44336 10.8887 4.49219 10.8691 4.56055L10.5957 5.66406C10.957 5.92773 11.2598 6.2793 11.4453 6.72852C11.4844 6.8457 11.5234 6.99219 11.5234 7.11914C11.5234 7.41211 11.3379 7.58789 11.0547 7.58789C10.752 7.58789 10.6348 7.44141 10.5566 7.1875C10.5078 7.03125 10.4297 6.89453 10.332 6.76758L9.19922 11.3574C9.83398 11.25 10.3613 10.8691 10.6055 10.2246C10.7031 9.98047 10.8301 9.81445 11.1133 9.81445C11.3477 9.81445 11.582 9.96094 11.582 10.2832C11.582 10.4297 11.5625 10.5371 11.5137 10.6738C11.1523 11.6602 10.127 12.3047 8.97461 12.3047L8.96484 12.3047L8.74023 13.1836C8.70117 13.3496 8.60352 13.418 8.44727 13.418ZM6.69922 8.70117C6.69922 9.41406 6.875 10.0977 7.22656 10.6055L8.34961 6.06445C7.24609 6.30859 6.69922 7.44141 6.69922 8.70117ZM7.72461 11.084C7.95898 11.2402 8.24219 11.3477 8.56445 11.377L9.82422 6.29883C9.58008 6.15234 9.28711 6.05469 8.97461 6.02539Z" fill="white" fill-opacity="0.85"/>
 </g>
</svg>
