<svg version="1.1" xmlns="http://www.w3.org/2000/svg" xmlns:xlink="http://www.w3.org/1999/xlink" viewBox="0 0 18.279 18.7012">
 <g>
  <rect height="18.7012" opacity="0" width="18.279" x="0" y="0"/>
  <path d="M0.868018 11.2012C-0.27456 12.3438-0.294091 13.8672 0.838721 15.0098L4.33482 18.4961C4.60825 18.7695 5.06724 18.7695 5.34067 18.4961C5.61411 18.2227 5.61411 17.7734 5.34067 17.5L1.99107 14.1602C1.33677 13.5059 1.327 12.7246 1.97153 12.0801L11.3075 2.75391C11.952 2.10938 12.743 2.10938 13.3875 2.75391L16.7274 6.10352C17.0008 6.37695 17.45 6.38672 17.7137 6.11328C17.9872 5.83984 17.9872 5.39062 17.7137 5.11719L14.2274 1.62109C13.0848 0.488281 11.5711 0.498047 10.4188 1.65039ZM1.99107 15.166L2.98716 16.1621L15.409 3.74023L14.4129 2.74414ZM13.8856 4.6582L13.0653 5.48828L15.2821 7.71484C15.5165 7.94922 15.8875 7.94922 16.1024 7.72461C16.3368 7.5 16.3368 7.11914 16.1122 6.89453ZM12.3524 6.19141L11.5321 7.02148L13.7586 9.23828C13.9833 9.47266 14.3641 9.47266 14.579 9.24805C14.8036 9.02344 14.8133 8.65234 14.5887 8.42773ZM10.829 7.72461L10.0086 8.54492L12.2254 10.7715C12.45 10.9961 12.8309 10.9961 13.0458 10.7812C13.2704 10.5566 13.2801 10.1758 13.0555 9.95117ZM9.30552 9.24805L8.48521 10.0684L10.7118 12.3047C10.9364 12.5293 11.3075 12.5293 11.5321 12.3047C11.7567 12.0703 11.7665 11.6992 11.5418 11.4746ZM7.77232 10.7812L6.96177 11.6016L9.17857 13.8281C9.40317 14.0527 9.78403 14.0527 9.99888 13.8281C10.2235 13.6035 10.2333 13.2227 10.0086 12.998ZM6.24888 12.3047L5.42857 13.125L7.65513 15.3613C7.87974 15.5859 8.25083 15.5859 8.46567 15.3613C8.70005 15.127 8.70982 14.7559 8.47544 14.5312ZM4.71567 13.8379L3.89536 14.6582L6.12192 16.8848C6.34653 17.1094 6.72739 17.1094 6.94224 16.8848C7.16685 16.6602 7.17661 16.2891 6.952 16.0547Z" fill="var(--color-primary)"/>
 </g>
</svg>
