<?xml version="1.0" encoding="UTF-8"?>
<!--Generator: Apple Native CoreSVG 341-->
<!DOCTYPE svg
PUBLIC "-//W3C//DTD SVG 1.1//EN"
       "http://www.w3.org/Graphics/SVG/1.1/DTD/svg11.dtd">
<svg version="1.1" xmlns="http://www.w3.org/2000/svg" xmlns:xlink="http://www.w3.org/1999/xlink" viewBox="0 0 14.5898 14.248">
 <g>
  <rect height="14.248" opacity="0" width="14.5898" x="0" y="0"/>
  <path d="M2.49023 14.248L11.7383 14.248C13.4082 14.248 14.2285 13.4277 14.2285 11.7871L14.2285 2.4707C14.2285 0.830078 13.4082 0.00976562 11.7383 0.00976562L2.49023 0.00976562C0.830078 0.00976562 0 0.830078 0 2.4707L0 11.7871C0 13.4277 0.830078 14.248 2.49023 14.248ZM2.50977 12.832C1.80664 12.832 1.40625 12.4512 1.40625 11.7188L1.40625 2.53906C1.40625 1.79688 1.80664 1.42578 2.50977 1.42578L11.7188 1.42578C12.4219 1.42578 12.8223 1.79688 12.8223 2.53906L12.8223 11.7188C12.8223 12.4512 12.4219 12.832 11.7188 12.832Z" fill="white" fill-opacity="0.85"/>
  <path d="M4.61914 11.2695C5.55664 11.2695 6.29883 10.5176 6.29883 9.58984L6.29883 4.64844C6.29883 3.7207 5.55664 2.96875 4.61914 2.96875C3.69141 2.96875 2.94922 3.7207 2.94922 4.64844C2.94922 5.58594 3.70117 6.29883 4.61914 6.29883L9.59961 6.29883C10.5176 6.29883 11.2695 5.58594 11.2695 4.64844C11.2695 3.7207 10.5273 2.96875 9.59961 2.96875C8.67188 2.96875 7.91992 3.7207 7.91992 4.64844L7.91992 9.58984C7.91992 10.5176 8.67188 11.2695 9.59961 11.2695C10.5273 11.2695 11.2695 10.5176 11.2695 9.58984C11.2695 8.65234 10.5176 7.93945 9.59961 7.93945L4.61914 7.93945C3.70117 7.93945 2.94922 8.65234 2.94922 9.58984C2.94922 10.5176 3.69141 11.2695 4.61914 11.2695ZM4.61914 10.2832C4.25781 10.2832 3.93555 9.96094 3.93555 9.58984C3.93555 9.20898 4.24805 8.89648 4.61914 8.89648L9.59961 8.89648C9.98047 8.89648 10.293 9.20898 10.293 9.58984C10.293 9.96094 9.9707 10.2832 9.59961 10.2832C9.22852 10.2832 8.90625 9.9707 8.90625 9.58984L8.90625 4.64844C8.90625 4.26758 9.22852 3.95508 9.59961 3.95508C9.9707 3.95508 10.293 4.27734 10.293 4.64844C10.293 5.0293 9.98047 5.3418 9.59961 5.3418L4.61914 5.3418C4.24805 5.3418 3.93555 5.0293 3.93555 4.64844C3.93555 4.27734 4.25781 3.95508 4.61914 3.95508C4.99023 3.95508 5.3125 4.26758 5.3125 4.64844L5.3125 9.58984C5.3125 9.9707 4.99023 10.2832 4.61914 10.2832Z" fill="white" fill-opacity="0.85"/>
 </g>
</svg>
