<?xml version="1.0" encoding="UTF-8"?>
<!--Generator: Apple Native CoreSVG 341-->
<!DOCTYPE svg
PUBLIC "-//W3C//DTD SVG 1.1//EN"
       "http://www.w3.org/Graphics/SVG/1.1/DTD/svg11.dtd">
<svg version="1.1" xmlns="http://www.w3.org/2000/svg" xmlns:xlink="http://www.w3.org/1999/xlink" viewBox="0 0 28.7402 18.7769">
 <g>
  <rect height="18.7769" opacity="0" width="28.7402" x="0" y="0"/>
  <path d="M8.7207 13.5925C8.7207 14.8914 7.70508 15.907 6.40625 15.907C5.10742 15.907 4.10156 14.8914 4.10156 13.5925C4.10156 12.3035 5.10742 11.2976 6.40625 11.2976C7.70508 11.2976 8.7207 12.3035 8.7207 13.5925ZM24.3066 13.5925C24.3066 14.8914 23.291 15.907 22.002 15.907C20.7031 15.907 19.6875 14.8914 19.6875 13.5925C19.6875 12.3035 20.7031 11.2976 22.002 11.2976C23.291 11.2976 24.3066 12.3035 24.3066 13.5925ZM14.7559 4.53981C13.4473 5.2234 12.4512 5.90699 11.4355 6.60035L19.1504 6.09254C20.4297 6.00465 21.3379 6.12184 22.4219 6.32692L25.9668 7.00074C27.7148 7.33278 28.3789 8.11403 28.3789 10.0086L28.3789 11.3367C28.3789 12.9089 27.6367 13.7586 26.1328 13.905L25.2539 13.9929C25.2637 13.905 25.2637 13.8757 25.2637 13.7781C25.2637 11.9714 23.8184 10.3406 22.002 10.3406C20.1758 10.3406 18.7305 11.7859 18.7305 13.5925C18.7305 13.8269 18.7598 14.0711 18.8086 14.2371L9.61914 14.2371C9.6582 14.0906 9.67773 13.8172 9.67773 13.5925C9.67773 11.7859 8.23242 10.3406 6.40625 10.3406C4.58984 10.3406 3.14453 11.7859 3.14453 13.5925C3.14453 13.8562 3.17383 14.3054 3.22266 14.5398L1.77734 14.3738C0.537109 14.2273 0 13.6316 0 12.3914L0 11.366C0 9.34449 1.2793 8.15309 3.81836 7.67457L8.95508 6.72731C10.4199 5.48707 12.168 4.35426 13.9941 3.38746C14.9121 2.90895 15.6055 4.10035 14.7559 4.53981ZM13.7598 8.72926L12.1875 11.3074C11.9531 11.6882 12.1484 12.0203 12.5684 12.0203L15.8105 12.0203C16.2305 12.0203 16.4258 11.6882 16.2012 11.3074L14.6094 8.72926C14.4043 8.3777 13.9844 8.36793 13.7598 8.72926Z" fill="white" fill-opacity="0.85"/>
  <path d="M16.2988 15.7898L14.6387 18.4949C14.4141 18.866 13.9746 18.8757 13.7402 18.4949L12.0898 15.7898C11.8457 15.3894 12.041 15.0379 12.4902 15.0379L15.8887 15.0379C16.3281 15.0379 16.543 15.3894 16.2988 15.7898Z" fill="white" fill-opacity="0.85"/>
 </g>
</svg>
