<svg version="1.1" xmlns="http://www.w3.org/2000/svg" xmlns:xlink="http://www.w3.org/1999/xlink" viewBox="0 0 28.7402 13.0371">
 <g>
  <rect height="13.0371" opacity="0" width="28.7402" x="0" y="0"/>
  <path d="M8.7207 10.7227C8.7207 12.0215 7.70508 13.0371 6.40625 13.0371C5.10742 13.0371 4.10156 12.0215 4.10156 10.7227C4.10156 9.43359 5.10742 8.42773 6.40625 8.42773C7.70508 8.42773 8.7207 9.43359 8.7207 10.7227ZM24.3066 10.7227C24.3066 12.0215 23.291 13.0371 22.002 13.0371C20.7031 13.0371 19.6875 12.0215 19.6875 10.7227C19.6875 9.43359 20.7031 8.42773 22.002 8.42773C23.291 8.42773 24.3066 9.43359 24.3066 10.7227ZM14.7559 1.66992L11.6992 3.73047L20.1367 3.16406C20.625 3.125 21.1035 3.16406 21.6113 3.27148L25.9668 4.13086C27.7148 4.47266 28.3789 5.24414 28.3789 7.13867L28.3789 8.4668C28.3789 10.0391 27.6367 10.8887 26.1328 11.0352L25.2539 11.123C25.2637 11.0352 25.2637 11.0059 25.2637 10.9082C25.2637 9.10156 23.8184 7.4707 22.002 7.4707C20.1758 7.4707 18.7305 8.91602 18.7305 10.7227C18.7305 10.957 18.7598 11.2012 18.8086 11.3672L9.61914 11.3672C9.6582 11.2207 9.67773 10.9473 9.67773 10.7227C9.67773 8.91602 8.23242 7.4707 6.40625 7.4707C4.58984 7.4707 3.14453 8.91602 3.14453 10.7227C3.14453 10.9863 3.17383 11.4355 3.22266 11.6699L1.77734 11.5039C0.537109 11.3574 0 10.7617 0 9.52148L0 8.49609C0 6.47461 1.2793 5.2832 3.81836 4.80469L7.72254 4.08472L9.81445 6.8457C10.5078 7.74414 11.2988 8.1543 12.4316 8.1543L14.1602 8.1543L14.1602 8.73047C14.1602 9.3457 14.6875 9.52148 15.1367 9.22852L17.0801 7.97852C17.4902 7.71484 17.5 7.1875 17.0801 6.91406L15.1465 5.68359C14.6875 5.38086 14.1602 5.55664 14.1602 6.18164L14.1602 6.73828L12.4316 6.73828C11.6895 6.73828 11.4355 6.61133 10.9473 5.97656L9.2022 3.69186L13.9258 0.527344C14.7656-0.0390625 15.5566 1.13281 14.7559 1.66992Z" fill="var(--color-tertiary)"/>
  <path d="M3.97461 2.95898C3.58398 2.95898 3.27148 2.63672 3.27148 2.24609C3.27148 1.86523 3.58398 1.54297 3.97461 1.54297L5.80078 1.54297C7.02148 1.54297 7.83203 1.9043 8.51562 2.79297L10.9473 5.97656C11.4355 6.61133 11.6895 6.73828 12.4316 6.73828L14.1602 6.73828L14.1602 6.18164C14.1602 5.55664 14.6875 5.38086 15.1465 5.68359L17.0801 6.91406C17.5 7.1875 17.4902 7.71484 17.0801 7.97852L15.1367 9.22852C14.6875 9.52148 14.1602 9.3457 14.1602 8.73047L14.1602 8.1543L12.4316 8.1543C11.2988 8.1543 10.5078 7.74414 9.81445 6.8457L7.40234 3.66211C6.97266 3.08594 6.66992 2.95898 5.80078 2.95898Z" fill="var(--color-primary)"/>
 </g>
</svg>
