<svg version="1.1" xmlns="http://www.w3.org/2000/svg" xmlns:xlink="http://www.w3.org/1999/xlink" viewBox="0 0 28.7402 19.3452">
 <g>
  <rect height="19.3452" opacity="0" width="28.7402" x="0" y="0"/>
  <path d="M14.7559 4.82397C13.5855 5.44434 12.4863 6.11916 11.4737 6.85512L19.1504 6.37671C20.4492 6.29858 21.4062 6.41577 22.4121 6.61108L25.9668 7.28491C27.7051 7.61694 28.3789 8.39819 28.3789 10.2927L28.3789 11.6208C28.3789 13.1931 27.6367 14.0427 26.1328 14.1892L25.315 14.2698C24.9486 15.3978 23.902 16.1912 22.6367 16.1912C21.4678 16.1912 20.4854 15.514 20.0538 14.5212L8.32507 14.5212C7.89347 15.514 6.91113 16.1912 5.74219 16.1912C4.69628 16.1912 3.79977 15.6491 3.31492 14.8227L1.77734 14.658C0.537109 14.5212 0 13.9158 0 12.6755L0 11.6501C0 9.62866 1.2793 8.43725 3.81836 7.95874L8.95508 7.01147C10.4199 5.76147 12.168 4.63842 14.0137 3.66186C14.9121 3.19311 15.6055 4.38452 14.7559 4.82397ZM4.23828 13.3689C4.23828 14.2087 4.90234 14.8728 5.74219 14.8728C6.58203 14.8728 7.24609 14.2087 7.24609 13.3689C7.24609 12.529 6.58203 11.865 5.74219 11.865C4.90234 11.865 4.23828 12.529 4.23828 13.3689ZM21.1328 13.3689C21.1328 14.2087 21.7969 14.8728 22.6367 14.8728C23.4766 14.8728 24.1406 14.2087 24.1406 13.3689C24.1406 12.529 23.4766 11.865 22.6367 11.865C21.7969 11.865 21.1328 12.529 21.1328 13.3689ZM19.0723 7.79272L8.90887 8.42138C8.88216 8.42656 8.85523 8.43183 8.82812 8.43725L4.00391 9.34546C2.27539 9.66772 1.40625 10.4392 1.40625 11.6501L1.40625 12.5779C1.40625 12.9978 1.63086 13.2126 2.11914 13.2712L2.92044 13.3582C2.92557 11.7812 4.16376 10.5466 5.74219 10.5466C7.23836 10.5466 8.42883 11.6559 8.55202 13.115L19.8269 13.115C19.9501 11.6559 21.1405 10.5466 22.6367 10.5466C24.0443 10.5466 25.1813 11.5284 25.4125 12.8601L25.9473 12.8123C26.6309 12.7439 26.9727 12.3435 26.9727 11.6208L26.9727 10.2927C26.9727 9.31616 26.6309 8.91577 25.7129 8.73999L22.334 8.07592C20.9961 7.80249 20.0488 7.73413 19.0723 7.79272Z" fill="var(--color-secondary)"/>
  <path d="M21.582 1.59155C20.2832 1.70874 20.5078 3.23217 21.6211 3.10522C23.5742 2.88061 25.6348 3.48608 27.1094 4.13061C27.4902 4.28686 27.9395 4.12085 28.1055 3.73999C28.2715 3.35913 28.0957 2.90991 27.7051 2.75366C26.1621 2.07983 23.8477 1.38647 21.582 1.59155ZM21.8164 4.13061L21.7188 0.605221C21.709-0.0197791 21.2988-0.156498 20.8594 0.175533L18.4277 1.95288C18.0371 2.22631 18.0469 2.62671 18.4375 2.89038L20.9375 4.5896C21.4062 4.9021 21.8164 4.73608 21.8164 4.13061Z" fill="var(--color-primary)"/>
 </g>
</svg>
