<svg version="1.1" xmlns="http://www.w3.org/2000/svg" xmlns:xlink="http://www.w3.org/1999/xlink" viewBox="0 0 28.9134 20.089">
 <g>
  <rect height="20.089" opacity="0" width="28.9134" x="0" y="0"/>
  <path d="M1.86394 15.0298L3.778 15.2349L3.91472 13.8287L2.20574 13.6431C1.71745 13.5845 1.49284 13.3697 1.49284 12.9498L1.49284 12.022C1.49284 10.8111 2.36199 10.0396 4.0905 9.71735L8.91472 8.80915C9.35417 8.72125 9.7448 8.67243 10.028 8.43805C11.4343 7.21735 13.0553 6.14313 14.8425 5.19586C15.6921 4.75641 14.9987 3.565 14.1003 4.03375C12.2546 5.01032 10.5065 6.13336 9.04167 7.38336L3.90495 8.33063C1.36589 8.80915 0.0865949 10.0006 0.0865949 12.022L0.0865949 13.0474C0.0865949 14.2877 0.623704 14.8931 1.86394 15.0298ZM5.82878 16.5631C7.41081 16.5631 8.65105 15.3228 8.65105 13.7408C8.65105 12.1588 7.41081 10.9185 5.82878 10.9185C4.24675 10.9185 3.00652 12.1588 3.00652 13.7408C3.00652 15.3228 4.24675 16.5631 5.82878 16.5631ZM5.82878 15.2447C4.98894 15.2447 4.32488 14.5806 4.32488 13.7408C4.32488 12.9009 4.98894 12.2369 5.82878 12.2369C6.66863 12.2369 7.33269 12.9009 7.33269 13.7408C7.33269 14.5806 6.66863 15.2447 5.82878 15.2447ZM7.71355 14.8931L20.946 14.8931L20.946 13.4869L7.71355 13.4869ZM22.7233 16.5631C24.3053 16.5631 25.5456 15.3228 25.5456 13.7408C25.5456 12.1588 24.3053 10.9185 22.7233 10.9185C21.1413 10.9185 19.901 12.1588 19.901 13.7408C19.901 15.3228 21.1413 16.5631 22.7233 16.5631ZM22.7233 15.2447C21.8835 15.2447 21.2194 14.5806 21.2194 13.7408C21.2194 12.9009 21.8835 12.2369 22.7233 12.2369C23.5632 12.2369 24.2272 12.9009 24.2272 13.7408C24.2272 14.5806 23.5632 15.2447 22.7233 15.2447ZM24.8327 14.6978L26.2194 14.5611C27.7233 14.4146 28.4655 13.565 28.4655 11.9927L28.4655 10.6646C28.4655 8.77008 27.7917 7.98883 26.0534 7.6568L22.4987 6.98297C21.4928 6.78766 20.5358 6.67047 19.237 6.7486L9.05144 7.38336L8.73894 8.80915L19.1589 8.16461C20.1354 8.10602 21.0827 8.17438 22.4206 8.44782L25.7995 9.11188C26.7175 9.28766 27.0593 9.68805 27.0593 10.6646L27.0593 11.9927C27.0593 12.7154 26.7175 13.1158 26.0339 13.1841L24.8327 13.2916Z" fill="var(--color-secondary)"/>
  <path d="M26.1022 1.49469L24.862 4.80524C24.6569 5.37165 24.9987 5.66461 25.5456 5.51813L28.446 4.74665C28.9147 4.61969 29.0417 4.23883 28.778 3.85797L27.0593 1.3775C26.7468 0.928286 26.3171 0.928286 26.1022 1.49469ZM19.9596 4.12165L19.8718 0.596255C19.8522-0.00921422 19.4421-0.155699 19.0026 0.166567L16.571 1.94391C16.1803 2.21735 16.1901 2.61774 16.5807 2.88141L19.071 4.5904C19.5495 4.91266 19.9694 4.72711 19.9596 4.12165ZM25.3796 3.89704C26.2487 4.30719 26.903 2.94 25.9069 2.48102C23.8464 1.54352 21.444 1.44586 19.7741 1.56305C18.612 1.64118 18.7194 3.14508 19.8034 3.05719C21.405 2.94 23.5925 3.03766 25.3796 3.89704Z" fill="var(--color-primary)"/>
 </g>
</svg>
