<?xml version="1.0" encoding="UTF-8"?>
<!--Generator: Apple Native CoreSVG 341-->
<!DOCTYPE svg
PUBLIC "-//W3C//DTD SVG 1.1//EN"
       "http://www.w3.org/Graphics/SVG/1.1/DTD/svg11.dtd">
<svg version="1.1" xmlns="http://www.w3.org/2000/svg" xmlns:xlink="http://www.w3.org/1999/xlink" viewBox="0 0 28.7402 17.5488">
 <g>
  <rect height="17.5488" opacity="0" width="28.7402" x="0" y="0"/>
  <path d="M8.7207 12.9785C8.7207 14.2773 7.70508 15.293 6.40625 15.293C5.10742 15.293 4.10156 14.2773 4.10156 12.9785C4.10156 11.6895 5.10742 10.6836 6.40625 10.6836C7.70508 10.6836 8.7207 11.6895 8.7207 12.9785ZM24.3066 12.9785C24.3066 14.2773 23.291 15.293 22.002 15.293C20.7031 15.293 19.6875 14.2773 19.6875 12.9785C19.6875 11.6895 20.7031 10.6836 22.002 10.6836C23.291 10.6836 24.3066 11.6895 24.3066 12.9785ZM10.293 6.76758C10.293 8.125 11.1523 8.99414 12.4609 8.99414L15.918 8.99414C17.2363 8.99414 18.0957 8.125 18.0957 6.76758L18.0957 5.54794L19.1504 5.47852C20.4297 5.39062 21.3379 5.50781 22.4219 5.71289L25.9668 6.38672C27.7148 6.71875 28.3789 7.5 28.3789 9.39453L28.3789 10.7227C28.3789 12.2949 27.6367 13.1445 26.1328 13.291L25.2539 13.3789C25.2637 13.291 25.2637 13.2617 25.2637 13.1641C25.2637 11.3574 23.8184 9.72656 22.002 9.72656C20.1758 9.72656 18.7305 11.1719 18.7305 12.9785C18.7305 13.2129 18.7598 13.457 18.8086 13.623L9.61914 13.623C9.6582 13.4766 9.67773 13.2031 9.67773 12.9785C9.67773 11.1719 8.23242 9.72656 6.40625 9.72656C4.58984 9.72656 3.14453 11.1719 3.14453 12.9785C3.14453 13.2422 3.17383 13.6914 3.22266 13.9258L1.77734 13.7598C0.537109 13.6133 0 13.0176 0 11.7773L0 10.752C0 8.73047 1.2793 7.53906 3.81836 7.06055L8.95508 6.11328C9.37831 5.75495 9.82518 5.40558 10.293 5.06785Z" fill="white" fill-opacity="0.85"/>
  <path d="M12.4609 7.86133L15.918 7.86133C16.5918 7.86133 16.9531 7.49023 16.9531 6.76758L16.9531 4.17969C16.9531 3.4668 16.5918 3.0957 15.918 3.0957L12.4609 3.0957C11.7871 3.0957 11.4258 3.4668 11.4258 4.17969L11.4258 6.76758C11.4258 7.49023 11.7871 7.86133 12.4609 7.86133ZM12.0801 3.75L13.0078 3.75L13.0078 2.1582C13.0078 1.39648 13.4668 0.917969 14.1895 0.917969C14.9219 0.917969 15.3809 1.39648 15.3809 2.1582L15.3809 3.75L16.2988 3.75L16.2988 2.31445C16.2988 0.888672 15.4883 0 14.1895 0C12.9004 0 12.0801 0.888672 12.0801 2.31445Z" fill="white" fill-opacity="0.85"/>
 </g>
</svg>
