<svg version="1.1" xmlns="http://www.w3.org/2000/svg" xmlns:xlink="http://www.w3.org/1999/xlink" viewBox="0 0 28.7402 23.6165">
 <g>
  <rect height="23.6165" opacity="0" width="28.7402" x="0" y="0"/>
  <path d="M8.27148 21.9401L20.1074 21.9401C20.3711 21.9401 20.5957 21.7155 20.5957 21.4421C20.5957 21.1784 20.3711 20.944 20.1074 20.944L8.27148 20.944C7.99805 20.944 7.77344 21.1784 7.77344 21.4421C7.77344 21.7155 7.99805 21.9401 8.27148 21.9401ZM9.4043 23.0046L9.4043 19.8698C9.4043 19.2936 8.85742 19.0788 8.38867 19.4303L6.25977 21.0124C5.9668 21.2272 5.9668 21.6374 6.25977 21.862L8.38867 23.444C8.83789 23.776 9.4043 23.61 9.4043 23.0046ZM18.9746 23.0046C18.9746 23.5905 19.5312 23.7956 20 23.444L22.1191 21.862C22.4219 21.6374 22.4121 21.2174 22.1191 21.0124L20 19.4303C19.5312 19.0788 18.9746 19.2936 18.9746 19.8698Z" fill="var(--color-primary)"/>
  <path d="M6.40625 18.3268C7.70508 18.3268 8.7207 17.3112 8.7207 16.0124C8.7207 14.7233 7.70508 13.7174 6.40625 13.7174C5.10742 13.7174 4.10156 14.7233 4.10156 16.0124C4.10156 17.3112 5.10742 18.3268 6.40625 18.3268ZM22.002 18.3268C23.291 18.3268 24.3066 17.3112 24.3066 16.0124C24.3066 14.7233 23.291 13.7174 22.002 13.7174C20.7031 13.7174 19.6875 14.7233 19.6875 16.0124C19.6875 17.3112 20.7031 18.3268 22.002 18.3268ZM22.4219 8.74674C21.3379 8.54167 20.4297 8.42448 19.1504 8.51237L11.4355 9.02018C12.4512 8.32682 13.4473 7.64323 14.7559 6.95964C15.6055 6.52018 14.9121 5.32878 13.9941 5.80729C12.168 6.77409 10.4199 7.9069 8.95508 9.14714L3.81836 10.0944C1.2793 10.5729 0 11.7643 0 13.7858L0 14.8112C0 16.0514 0.537109 16.6471 1.77734 16.7936L3.22266 16.9596C3.17383 16.7253 3.14453 16.276 3.14453 16.0124C3.14453 14.2057 4.58984 12.7604 6.40625 12.7604C8.23242 12.7604 9.67773 14.2057 9.67773 16.0124C9.67773 16.237 9.6582 16.5104 9.61914 16.6569L18.8086 16.6569C18.7598 16.4909 18.7305 16.2467 18.7305 16.0124C18.7305 14.2057 20.1758 12.7604 22.002 12.7604C23.8184 12.7604 25.2637 14.3913 25.2637 16.1979C25.2637 16.2956 25.2637 16.3249 25.2539 16.4128L26.1328 16.3249C27.6367 16.1784 28.3789 15.3288 28.3789 13.7565L28.3789 12.4284C28.3789 10.5339 27.7148 9.7526 25.9668 9.42057Z" fill="var(--color-secondary)"/>
 </g>
</svg>
