<?xml version="1.0" encoding="UTF-8"?>
<!--Generator: Apple Native CoreSVG 341-->
<!DOCTYPE svg
PUBLIC "-//W3C//DTD SVG 1.1//EN"
       "http://www.w3.org/Graphics/SVG/1.1/DTD/svg11.dtd">
<svg version="1.1" xmlns="http://www.w3.org/2000/svg" xmlns:xlink="http://www.w3.org/1999/xlink" viewBox="0 0 19.3262 15.498">
 <g>
  <rect height="15.498" opacity="0" width="19.3262" x="0" y="0"/>
  <path d="M2.46094 15.498L16.5039 15.498C18.1445 15.498 18.9648 14.6973 18.9648 13.0762L18.9648 2.43164C18.9648 0.810547 18.1445 0.00976562 16.5039 0.00976562L2.46094 0.00976562C0.820312 0.00976562 0 0.810547 0 2.43164L0 13.0762C0 14.6973 0.820312 15.498 2.46094 15.498ZM4.84375 7.1875C3.49609 7.1875 2.38281 6.07422 2.38281 4.7168C2.38281 3.36914 3.49609 2.24609 4.84375 2.24609C6.21094 2.24609 7.31445 3.36914 7.31445 4.7168C7.31445 6.07422 6.21094 7.1875 4.84375 7.1875ZM11.1035 7.1875C9.74609 7.1875 8.63281 6.07422 8.63281 4.7168C8.63281 3.36914 9.74609 2.24609 11.1035 2.24609C12.4609 2.24609 13.5742 3.36914 13.5742 4.7168C13.5742 6.07422 12.4609 7.1875 11.1035 7.1875ZM4.84375 13.2422C3.49609 13.2422 2.38281 12.1191 2.38281 10.7715C2.38281 9.41406 3.49609 8.30078 4.84375 8.30078C6.21094 8.30078 7.31445 9.41406 7.31445 10.7715C7.31445 12.1191 6.21094 13.2422 4.84375 13.2422ZM11.1035 13.2422C9.74609 13.2422 8.63281 12.1191 8.63281 10.7715C8.63281 9.41406 9.74609 8.30078 11.1035 8.30078C12.4609 8.30078 13.5742 9.41406 13.5742 10.7715C13.5742 12.1191 12.4609 13.2422 11.1035 13.2422ZM16.0938 5.00977C15.6738 5.00977 15.3516 4.6875 15.3516 4.26758C15.3516 3.85742 15.6738 3.52539 16.0938 3.52539C16.4941 3.52539 16.8262 3.85742 16.8262 4.26758C16.8262 4.6875 16.4941 5.00977 16.0938 5.00977ZM16.0938 7.32422C15.6738 7.32422 15.3516 7.00195 15.3516 6.58203C15.3516 6.18164 15.6738 5.83984 16.0938 5.83984C16.4941 5.83984 16.8262 6.18164 16.8262 6.58203C16.8262 7.00195 16.4941 7.32422 16.0938 7.32422ZM16.0938 9.6582C15.6738 9.6582 15.3516 9.31641 15.3516 8.90625C15.3516 8.49609 15.6738 8.17383 16.0938 8.17383C16.4941 8.17383 16.8262 8.49609 16.8262 8.90625C16.8262 9.31641 16.4941 9.6582 16.0938 9.6582ZM16.0938 11.9727C15.6738 11.9727 15.3516 11.6406 15.3516 11.2207C15.3516 10.8105 15.6738 10.4883 16.0938 10.4883C16.4941 10.4883 16.8262 10.8105 16.8262 11.2207C16.8262 11.6406 16.4941 11.9727 16.0938 11.9727ZM4.84375 6.35742C5.75195 6.35742 6.49414 5.625 6.49414 4.7168C6.49414 3.81836 5.75195 3.08594 4.84375 3.08594C3.95508 3.08594 3.21289 3.81836 3.21289 4.7168C3.21289 5.625 3.95508 6.35742 4.84375 6.35742ZM4.84375 5.94727C4.16992 5.94727 3.63281 5.41016 3.63281 4.7168C3.63281 4.0332 4.16992 3.49609 4.84375 3.49609C5.53711 3.49609 6.07422 4.0332 6.07422 4.7168C6.07422 5.41016 5.53711 5.94727 4.84375 5.94727ZM11.1035 6.35742C12.0117 6.35742 12.7441 5.625 12.7441 4.7168C12.7441 3.81836 12.0117 3.08594 11.1035 3.08594C10.2051 3.08594 9.47266 3.81836 9.47266 4.7168C9.47266 5.625 10.2051 6.35742 11.1035 6.35742ZM11.1035 5.94727C10.4102 5.94727 9.87305 5.41016 9.87305 4.7168C9.87305 4.0332 10.4102 3.49609 11.1035 3.49609C11.7871 3.49609 12.3242 4.0332 12.3242 4.7168C12.3242 5.41016 11.7871 5.94727 11.1035 5.94727ZM4.84375 12.4023C5.75195 12.4023 6.49414 11.6699 6.49414 10.7715C6.49414 9.86328 5.75195 9.13086 4.84375 9.13086C3.95508 9.13086 3.21289 9.86328 3.21289 10.7715C3.21289 11.6699 3.95508 12.4023 4.84375 12.4023ZM4.84375 11.9922C4.16992 11.9922 3.63281 11.4551 3.63281 10.7715C3.63281 10.0781 4.16992 9.54102 4.84375 9.54102C5.53711 9.54102 6.07422 10.0781 6.07422 10.7715C6.07422 11.4551 5.53711 11.9922 4.84375 11.9922ZM11.1035 12.4023C12.0117 12.4023 12.7441 11.6699 12.7441 10.7715C12.7441 9.86328 12.0117 9.13086 11.1035 9.13086C10.2051 9.13086 9.47266 9.86328 9.47266 10.7715C9.47266 11.6699 10.2051 12.4023 11.1035 12.4023ZM11.1035 11.9922C10.4102 11.9922 9.87305 11.4551 9.87305 10.7715C9.87305 10.0781 10.4102 9.54102 11.1035 9.54102C11.7871 9.54102 12.3242 10.0781 12.3242 10.7715C12.3242 11.4551 11.7871 11.9922 11.1035 11.9922Z" fill="white" fill-opacity="0.85"/>
 </g>
</svg>
