<svg version="1.1" xmlns="http://www.w3.org/2000/svg" xmlns:xlink="http://www.w3.org/1999/xlink" viewBox="0 0 17.3633 17.4707">
 <g>
  <rect height="17.4707" opacity="0" width="17.3633" x="0" y="0"/>
  <path d="M17.002 13.1836C17.002 12.7734 16.7383 12.5293 16.3086 12.5293L5.27344 12.5293C5.09766 12.5293 5.03906 12.4707 5.03906 12.2852L5.03906 1.24023C5.03906 0.800781 4.75586 0.507812 4.33594 0.507812C3.90625 0.507812 3.63281 0.800781 3.63281 1.24023L3.63281 13.1738C3.63281 13.5742 3.89648 13.8379 4.29688 13.8379L16.3086 13.8379C16.7383 13.8379 17.002 13.584 17.002 13.1836ZM0 4.79492C0 5.20508 0.263672 5.44922 0.693359 5.44922L11.7285 5.44922C11.9141 5.44922 11.9727 5.50781 11.9727 5.68359L11.9727 16.7383C11.9727 17.1777 12.2461 17.4707 12.6758 17.4707C13.0957 17.4707 13.3789 17.1777 13.3789 16.7383L13.3789 4.79492C13.3789 4.39453 13.1152 4.13086 12.7148 4.13086L0.693359 4.13086C0.263672 4.13086 0 4.38477 0 4.79492Z" fill="var(--color-primary)"/>
 </g>
</svg>
