<svg version="1.1" xmlns="http://www.w3.org/2000/svg" xmlns:xlink="http://www.w3.org/1999/xlink" viewBox="0 0 18.3008 14.9902">
 <g>
  <rect height="14.9902" opacity="0" width="18.3008" x="0" y="0"/>
  <path d="M2.48047 14.9805L15.4492 14.9805C17.1191 14.9805 17.9395 14.1797 17.9395 12.5391L17.9395 5.15625C17.9395 3.51562 17.1191 2.71484 15.4492 2.71484L2.48047 2.71484C0.830078 2.71484 0 3.51562 0 5.15625L0 12.5391C0 14.1797 0.830078 14.9805 2.48047 14.9805ZM5.01953 3.4668L6.36719 3.4668L6.36719 2.1582C6.36719 1.5918 6.69922 1.26953 7.26562 1.26953L10.6641 1.26953C11.2402 1.26953 11.5625 1.5918 11.5625 2.1582L11.5625 3.44727L12.9199 3.44727L12.9199 2.26562C12.9199 0.703125 12.1191 0 10.6445 0L7.28516 0C5.9082 0 5.01953 0.703125 5.01953 2.26562Z" fill="var(--color-tertiary)"/>
  <path d="M5.29297 9.56055L5.29297 8.125C5.29297 7.72461 5.56641 7.44141 5.97656 7.44141L7.56836 7.44141L7.56836 5.86914C7.56836 5.44922 7.8418 5.17578 8.25195 5.17578L9.67773 5.17578C10.0879 5.17578 10.3613 5.44922 10.3613 5.86914L10.3613 7.44141L11.9531 7.44141C12.3633 7.44141 12.6367 7.72461 12.6367 8.125L12.6367 9.56055C12.6367 9.96094 12.3633 10.2441 11.9531 10.2441L10.3613 10.2441L10.3613 11.8262C10.3613 12.2461 10.0879 12.5195 9.67773 12.5195L8.25195 12.5195C7.8418 12.5195 7.56836 12.2461 7.56836 11.8262L7.56836 10.2441L5.97656 10.2441C5.57617 10.2441 5.29297 9.96094 5.29297 9.56055Z" fill="var(--color-primary)"/>
 </g>
</svg>
