<?xml version="1.0" encoding="UTF-8"?>
<!--Generator: Apple Native CoreSVG 341-->
<!DOCTYPE svg
PUBLIC "-//W3C//DTD SVG 1.1//EN"
       "http://www.w3.org/Graphics/SVG/1.1/DTD/svg11.dtd">
<svg version="1.1" xmlns="http://www.w3.org/2000/svg" xmlns:xlink="http://www.w3.org/1999/xlink" viewBox="0 0 20.4004 16.4551">
 <g>
  <rect height="16.4551" opacity="0" width="20.4004" x="0" y="0"/>
  <path d="M3.29102 12.5098L3.51562 13.457C3.81836 14.668 4.47266 15.3223 5.79102 15.3223L14.2578 15.3223C15.5664 15.3223 16.2207 14.6875 16.5234 13.457L16.7578 12.5098ZM3.00781 11.377L17.041 11.377L18.5254 5.30273L17.8809 4.95117L14.1211 7.75391C13.8965 7.91992 13.7598 7.85156 13.6426 7.68555L10.166 2.29492L9.88281 2.27539L6.38672 7.69531C6.28906 7.85156 6.16211 7.92969 5.92773 7.75391L2.26562 5.01953L1.48438 5.15625ZM1.88477 7.09961C2.91992 7.09961 3.75977 6.25977 3.75977 5.21484C3.75977 4.18945 2.91992 3.33008 1.88477 3.33008C0.839844 3.33008 0 4.17969 0 5.21484C0 6.25977 0.849609 7.09961 1.88477 7.09961ZM10.0195 3.75977C11.0547 3.75977 11.8945 2.91992 11.8945 1.875C11.8945 0.849609 11.0547 0 10.0195 0C8.97461 0 8.13477 0.839844 8.13477 1.875C8.13477 2.91992 8.98438 3.75977 10.0195 3.75977ZM18.1543 7.09961C19.1895 7.09961 20.0391 6.25977 20.0391 5.21484C20.0391 4.17969 19.1992 3.33008 18.1543 3.33008C17.1191 3.33008 16.2793 4.18945 16.2793 5.21484C16.2793 6.25977 17.1191 7.09961 18.1543 7.09961Z" fill="white" fill-opacity="0.85"/>
 </g>
</svg>
