<?xml version="1.0" encoding="UTF-8"?>
<!--Generator: Apple Native CoreSVG 341-->
<!DOCTYPE svg
PUBLIC "-//W3C//DTD SVG 1.1//EN"
       "http://www.w3.org/Graphics/SVG/1.1/DTD/svg11.dtd">
<svg version="1.1" xmlns="http://www.w3.org/2000/svg" xmlns:xlink="http://www.w3.org/1999/xlink" viewBox="0 0 18.9844 15.498">
 <g>
  <rect height="15.498" opacity="0" width="18.9844" x="0" y="0"/>
  <path d="M18.623 9.30664C18.623 7.03125 17.8125 4.94141 16.4453 3.31055C16.2891 3.125 16.0352 3.125 15.8594 3.30078L14.0332 5.13672C13.8867 5.2832 13.8867 5.48828 14.0137 5.6543C14.8047 6.66016 15.2734 7.92969 15.2734 9.30664C15.2734 10.6836 14.8047 11.9531 13.9551 13.0371C13.8574 13.1641 13.8672 13.3203 13.9746 13.4277L15.8594 15.3125C16.0352 15.4883 16.2891 15.4883 16.4453 15.3027C17.8125 13.6816 18.623 11.5918 18.623 9.30664Z" fill="white" fill-opacity="0.425"/>
  <path d="M9.31641 3.34961C10.7031 3.34961 11.9727 3.82812 12.9883 4.61914C13.1445 4.73633 13.3398 4.72656 13.4863 4.58008L15.3223 2.75391C15.498 2.57812 15.4883 2.32422 15.3027 2.16797C13.6816 0.810547 11.5918 0 9.31641 0C7.04102 0 4.94141 0.810547 3.33008 2.16797C3.14453 2.32422 3.13477 2.57812 3.31055 2.75391L5.13672 4.58008C5.2832 4.72656 5.48828 4.73633 5.6543 4.60938C6.66992 3.82812 7.93945 3.34961 9.31641 3.34961Z" fill="white" fill-opacity="0.425"/>
  <path d="M0 9.30664C0 11.5918 0.820312 13.6816 2.17773 15.3027C2.33398 15.4883 2.58789 15.4883 2.76367 15.3125L4.64844 13.4277C4.76562 13.3203 4.77539 13.1641 4.66797 13.0371C3.82812 11.9531 3.35938 10.6836 3.35938 9.30664C3.35938 7.92969 3.82812 6.66016 4.61914 5.6543C4.74609 5.48828 4.74609 5.2832 4.59961 5.13672L2.76367 3.30078C2.58789 3.125 2.33398 3.125 2.17773 3.31055C0.820312 4.94141 0 7.03125 0 9.30664Z" fill="white" fill-opacity="0.425"/>
  <path d="M9.30664 12.9102C10.4688 12.9102 11.543 12.3633 11.9043 11.3574C11.9629 11.2305 11.9727 11.123 11.9727 10.9961C11.9727 10.7227 11.7969 10.5664 11.5234 10.5664C11.2598 10.5664 11.123 10.7129 11.0352 10.9473C10.7715 11.7188 10.0391 12.0605 9.31641 12.0605C7.91992 12.0605 7.29492 10.791 7.29492 9.44336C7.29492 8.07617 7.94922 6.85547 9.31641 6.85547C10.0781 6.85547 10.752 7.27539 10.9863 7.94922C11.084 8.20312 11.2109 8.33984 11.4551 8.33984C11.709 8.33984 11.9141 8.16406 11.9141 7.90039C11.9141 7.8125 11.8945 7.65625 11.8457 7.5293C11.4453 6.54297 10.4395 5.97656 9.30664 5.97656C7.39258 5.97656 6.25977 7.42188 6.25977 9.44336C6.25977 11.377 7.29492 12.9102 9.30664 12.9102ZM8.85742 12.4707L9.42383 12.4707L9.42383 10.9375C9.42383 10.2344 9.95117 9.77539 10.6445 9.77539C10.7324 9.77539 10.8496 9.79492 10.9082 9.79492C11.084 9.79492 11.2012 9.7168 11.2012 9.52148C11.2012 9.4043 11.1426 9.29688 11.0254 9.23828C10.9375 9.16992 10.7715 9.14062 10.6348 9.14062C10.0781 9.14062 9.58984 9.48242 9.43359 9.98047L9.41406 9.98047L9.41406 9.45312C9.41406 9.27734 9.29688 9.16016 9.14062 9.16016C8.96484 9.16016 8.85742 9.27734 8.85742 9.45312Z" fill="white" fill-opacity="0.85"/>
 </g>
</svg>
