<?xml version="1.0" encoding="UTF-8"?>
<!--Generator: Apple Native CoreSVG 341-->
<!DOCTYPE svg
PUBLIC "-//W3C//DTD SVG 1.1//EN"
       "http://www.w3.org/Graphics/SVG/1.1/DTD/svg11.dtd">
<svg version="1.1" xmlns="http://www.w3.org/2000/svg" xmlns:xlink="http://www.w3.org/1999/xlink" viewBox="0 0 19.1159 15.7715">
 <g>
  <rect height="15.7715" opacity="0" width="19.1159" x="0" y="0"/>
  <path d="M0.602889 6.35742C-0.0123451 6.35742-0.158829 6.77734 0.173202 7.24609L1.91148 9.7168C2.18492 10.0977 2.59508 10.0977 2.85875 9.7168L4.59703 7.23633C4.9193 6.77734 4.77281 6.35742 4.16734 6.35742ZM17.263 7.88086C17.263 3.52539 13.7279 0 9.37242 0C5.02672 0 1.50133 3.51562 1.49156 7.89062C1.50133 8.29102 1.83336 8.62305 2.23375 8.62305C2.6439 8.62305 2.9857 8.28125 2.9857 7.88086C2.9857 4.3457 5.83726 1.48438 9.37242 1.48438C12.9076 1.48438 15.7689 4.3457 15.7689 7.88086C15.7689 11.416 12.9076 14.2773 9.37242 14.2773C7.28258 14.2773 5.44664 13.2715 4.2943 11.7578C4.02086 11.3965 3.60094 11.2891 3.23961 11.5137C2.88805 11.7285 2.78062 12.2363 3.08336 12.6172C4.53844 14.5312 6.78453 15.7617 9.37242 15.7617C13.7279 15.7617 17.263 12.2363 17.263 7.88086Z" fill="white" fill-opacity="0.85"/>
  <path d="M6.44273 10.9766C6.71617 10.9766 6.90172 10.7812 6.90172 10.4883L6.90172 9.29688L7.3314 8.88672L8.65953 10.7324C8.76695 10.8887 8.90367 10.9766 9.08922 10.9766C9.33336 10.9766 9.52867 10.8008 9.52867 10.5664C9.52867 10.4395 9.47984 10.332 9.40172 10.2344L8.00523 8.31055L9.2943 6.96289C9.41148 6.83594 9.46031 6.76758 9.46031 6.62109C9.46031 6.40625 9.28453 6.21094 9.05015 6.21094C8.91344 6.21094 8.76695 6.29883 8.67906 6.39648L6.92125 8.31055L6.90172 8.31055L6.90172 4.93164C6.90172 4.63867 6.71617 4.42383 6.44273 4.42383C6.1693 4.42383 5.96422 4.62891 5.96422 4.92188L5.96422 10.4883C5.96422 10.7812 6.1693 10.9766 6.44273 10.9766ZM10.808 10.9766C11.013 10.9766 11.2572 10.8594 11.2572 10.4883L11.2572 8.18359C11.2572 7.65625 11.4525 7.10938 12.0873 7.10938C12.2533 7.10938 12.4193 7.08984 12.5365 7.00195C12.6341 6.93359 12.6927 6.83594 12.6927 6.67969C12.6927 6.38672 12.4877 6.21094 12.1849 6.21094C11.7064 6.21094 11.3646 6.63086 11.2572 7.11914L11.2181 7.11914L11.2181 6.68945C11.2181 6.41602 11.0228 6.21094 10.7884 6.21094C10.5443 6.21094 10.3587 6.41602 10.3587 6.68945L10.3587 10.4883C10.3587 10.7812 10.515 10.9766 10.808 10.9766ZM12.849 10.8691C13.1908 10.8691 13.4349 10.625 13.4349 10.293C13.4349 9.95117 13.1908 9.70703 12.849 9.70703C12.5072 9.70703 12.263 9.95117 12.263 10.293C12.263 10.625 12.5072 10.8691 12.849 10.8691Z" fill="white" fill-opacity="0.85"/>
 </g>
</svg>
