<?xml version="1.0" encoding="UTF-8"?>
<!--Generator: Apple Native CoreSVG 341-->
<!DOCTYPE svg
PUBLIC "-//W3C//DTD SVG 1.1//EN"
       "http://www.w3.org/Graphics/SVG/1.1/DTD/svg11.dtd">
<svg version="1.1" xmlns="http://www.w3.org/2000/svg" xmlns:xlink="http://www.w3.org/1999/xlink" viewBox="0 0 18.2227 13.4277">
 <g>
  <rect height="13.4277" opacity="0" width="18.2227" x="0" y="0"/>
  <path d="M6.2207 13.418C6.62109 13.418 6.92383 13.1055 6.92383 12.7148C6.92383 12.3242 6.62109 12.0117 6.2207 12.0117L0.712891 12.0117C0.322266 12.0117 0 12.3242 0 12.7148C0 13.1055 0.322266 13.418 0.712891 13.418Z" fill="white" fill-opacity="0.85"/>
  <path d="M10.127 9.41406C10.5273 9.41406 10.8301 9.10156 10.8301 8.71094C10.8301 8.32031 10.5273 8.00781 10.127 8.00781L0.712891 8.00781C0.322266 8.00781 0 8.32031 0 8.71094C0 9.10156 0.322266 9.41406 0.712891 9.41406Z" fill="white" fill-opacity="0.85"/>
  <path d="M10.127 5.41016C10.5273 5.41016 10.8301 5.09766 10.8301 4.70703C10.8301 4.31641 10.5273 4.00391 10.127 4.00391L0.712891 4.00391C0.322266 4.00391 0 4.31641 0 4.70703C0 5.09766 0.322266 5.41016 0.712891 5.41016Z" fill="white" fill-opacity="0.85"/>
  <path d="M10.127 1.40625C10.5273 1.40625 10.8301 1.09375 10.8301 0.703125C10.8301 0.3125 10.5273 0 10.127 0L0.712891 0C0.322266 0 0 0.3125 0 0.703125C0 1.09375 0.322266 1.40625 0.712891 1.40625Z" fill="white" fill-opacity="0.85"/>
  <path d="M16.6016 9.13086C17.1875 9.51172 17.8613 9.30664 17.8613 8.59375L17.8613 4.80469C17.8613 4.07227 17.2168 3.83789 16.6016 4.24805L13.9648 6.05469C13.5059 6.37695 13.4863 7.05078 13.9648 7.36328Z" fill="white" fill-opacity="0.85"/>
 </g>
</svg>
