<svg version="1.1" xmlns="http://www.w3.org/2000/svg" xmlns:xlink="http://www.w3.org/1999/xlink" viewBox="0 0 17.4219 22.041">
 <g>
  <rect height="22.041" opacity="0" width="17.4219" x="0" y="0"/>
  <path d="M10.576 3.1543L5.01953 3.1543C4.32617 3.1543 3.92578 3.53516 3.92578 4.26758L3.92578 16.3379C3.92578 17.0703 4.32617 17.4512 5.01953 17.4512L12.041 17.4512C12.7344 17.4512 13.1348 17.0703 13.1348 16.3379L13.1348 10.6335C13.2171 10.6423 13.3025 10.6445 13.3887 10.6445C13.7952 10.6445 14.1816 10.5962 14.541 10.5011L14.541 16.416C14.541 17.7393 14.0009 18.5225 12.9102 18.7707L12.9102 19.5703C12.9102 19.9902 12.627 20.2734 12.207 20.2734C11.7871 20.2734 11.5039 19.9902 11.5039 19.5703L11.5039 18.8574L5.55664 18.8574L5.55664 19.5703C5.55664 19.9902 5.27344 20.2734 4.85352 20.2734C4.43359 20.2734 4.15039 19.9902 4.15039 19.5703L4.15039 18.7707C3.05962 18.5225 2.51953 17.7393 2.51953 16.416L2.51953 4.18945C2.51953 2.54883 3.35938 1.74805 5 1.74805L11.3949 1.74805C11.1133 2.20652 10.8289 2.6895 10.576 3.1543ZM8.04688 15.8984C8.04688 16.1914 7.82227 16.416 7.5293 16.416L5.3418 16.416C5.04883 16.416 4.82422 16.1914 4.82422 15.8984C4.82422 15.5957 5.04883 15.3711 5.3418 15.3711L7.5293 15.3711C7.82227 15.3711 8.04688 15.5957 8.04688 15.8984ZM12.2363 15.8984C12.2363 16.1914 12.0117 16.416 11.7188 16.416L9.53125 16.416C9.23828 16.416 9.00391 16.1914 9.00391 15.8984C9.00391 15.5957 9.23828 15.3711 9.53125 15.3711L11.7188 15.3711C12.0117 15.3711 12.2363 15.5957 12.2363 15.8984ZM8.04688 13.9551C8.04688 14.248 7.82227 14.4727 7.5293 14.4727L5.3418 14.4727C5.04883 14.4727 4.82422 14.248 4.82422 13.9551C4.82422 13.6621 5.04883 13.4277 5.3418 13.4277L7.5293 13.4277C7.82227 13.4277 8.04688 13.6621 8.04688 13.9551ZM12.2363 13.9551C12.2363 14.248 12.0117 14.4727 11.7188 14.4727L9.53125 14.4727C9.23828 14.4727 9.00391 14.248 9.00391 13.9551C9.00391 13.6621 9.23828 13.4277 9.53125 13.4277L11.7188 13.4277C12.0117 13.4277 12.2363 13.6621 12.2363 13.9551ZM8.04688 12.0117C8.04688 12.3047 7.82227 12.5391 7.5293 12.5391L5.3418 12.5391C5.04883 12.5391 4.82422 12.3047 4.82422 12.0117C4.82422 11.7188 5.04883 11.4844 5.3418 11.4844L7.5293 11.4844C7.82227 11.4844 8.04688 11.7188 8.04688 12.0117ZM12.2363 12.0117C12.2363 12.3047 12.0117 12.5391 11.7188 12.5391L9.53125 12.5391C9.23828 12.5391 9.00391 12.3047 9.00391 12.0117C9.00391 11.7188 9.23828 11.4844 9.53125 11.4844L11.7188 11.4844C12.0117 11.4844 12.2363 11.7188 12.2363 12.0117ZM7.06055 5.30273C7.06055 5.92773 6.5625 6.42578 5.94727 6.42578C5.33203 6.42578 4.83398 5.92773 4.83398 5.30273C4.83398 4.69727 5.33203 4.18945 5.94727 4.18945C6.5625 4.18945 7.06055 4.69727 7.06055 5.30273Z" fill="var(--color-secondary)"/>
  <path d="M13.3887 9.50195C15.1172 9.50195 16.2793 8.37891 16.2793 6.70898C16.2793 5.84961 15.918 5.13672 15.7031 4.6582C15.2441 3.67188 14.4824 2.41211 13.8379 1.41602C13.7012 1.23047 13.5547 1.14258 13.3887 1.14258C13.2227 1.14258 13.0859 1.23047 12.9492 1.41602C12.3047 2.41211 11.543 3.67188 11.084 4.6582C10.8691 5.13672 10.498 5.84961 10.498 6.70898C10.498 8.37891 11.6699 9.50195 13.3887 9.50195Z" fill="var(--color-primary)"/>
 </g>
</svg>
