<?xml version="1.0" encoding="UTF-8"?>
<!--Generator: Apple Native CoreSVG 341-->
<!DOCTYPE svg
PUBLIC "-//W3C//DTD SVG 1.1//EN"
       "http://www.w3.org/Graphics/SVG/1.1/DTD/svg11.dtd">
<svg version="1.1" xmlns="http://www.w3.org/2000/svg" xmlns:xlink="http://www.w3.org/1999/xlink" viewBox="0 0 29.248 18.5059">
 <g>
  <rect height="18.5059" opacity="0" width="29.248" x="0" y="0"/>
  <path d="M17.8516 3.67188L17.8516 6.48438L14.668 6.48438C13.0176 6.48438 11.8457 7.55859 11.8457 9.28711L11.8457 11.1035L2.5 11.1035C2.28516 11.1035 2.1875 11.0254 2.1875 10.8008L2.1875 3.67188C2.1875 3.32031 2.40234 3.10547 2.75391 3.10547L17.2852 3.10547C17.6367 3.10547 17.8516 3.32031 17.8516 3.67188Z" fill="white" fill-opacity="0.2125"/>
  <path d="M19.2578 3.65234L19.2578 6.48438L17.8516 6.48438L17.8516 3.67188C17.8516 3.32031 17.6367 3.10547 17.2852 3.10547L2.75391 3.10547C2.40234 3.10547 2.1875 3.32031 2.1875 3.67188L2.1875 10.8008C2.1875 11.0254 2.28516 11.1035 2.5 11.1035L11.8457 11.1035L11.8457 14.8047L11.7969 14.8047C10.7812 14.8047 9.95117 15.6445 9.95117 16.6504C9.95117 16.9031 10.0016 17.144 10.0932 17.3633L7.54883 17.3633C7.1582 17.3633 6.83594 17.0508 6.83594 16.6602C6.83594 16.2695 7.1582 15.9473 7.54883 15.9473L7.55859 15.9473L7.55859 14.5898L2.73438 14.5898C1.51367 14.5898 0.78125 13.8574 0.78125 12.6367L0.78125 3.65234C0.78125 2.43164 1.51367 1.69922 2.73438 1.69922L17.3047 1.69922C18.5254 1.69922 19.2578 2.43164 19.2578 3.65234Z" fill="white" fill-opacity="0.85"/>
  <path d="M14.3945 15.9473L14.3945 9.70703C14.3945 9.25781 14.6191 9.0332 15.0684 9.0332L24.248 9.0332C24.6875 9.0332 24.9121 9.25781 24.9121 9.70703L24.9121 15.9375Z" fill="white" fill-opacity="0.2125"/>
  <path d="M11.0938 16.6504C11.0938 17.0508 11.416 17.3633 11.7969 17.3633L27.4023 17.3535C27.793 17.3535 28.1055 17.041 28.1055 16.6406C28.1055 16.2598 27.793 15.9375 27.4023 15.9375L26.3184 15.9375L26.3184 9.28711C26.3184 8.19336 25.7324 7.62695 24.6484 7.62695L14.668 7.62695C13.6426 7.62695 12.9883 8.19336 12.9883 9.28711L12.9883 15.9473L11.7969 15.9473C11.416 15.9473 11.0938 16.2695 11.0938 16.6504ZM14.3945 15.9473L14.3945 9.70703C14.3945 9.25781 14.6191 9.0332 15.0684 9.0332L24.248 9.0332C24.6875 9.0332 24.9121 9.25781 24.9121 9.70703L24.9121 15.9375Z" fill="white" fill-opacity="0.85"/>
 </g>
</svg>
