<svg version="1.1" xmlns="http://www.w3.org/2000/svg" xmlns:xlink="http://www.w3.org/1999/xlink" viewBox="0 0 16.1328 15.7715">
 <g>
  <rect height="15.7715" opacity="0" width="16.1328" x="0" y="0"/>
  <path d="M7.88086 15.7617C12.2363 15.7617 15.7715 12.2363 15.7715 7.88086C15.7715 3.52539 12.2363 0 7.88086 0C3.53516 0 0 3.52539 0 7.88086C0 12.2363 3.53516 15.7617 7.88086 15.7617ZM7.88086 14.2773C4.3457 14.2773 1.49414 11.416 1.49414 7.88086C1.49414 4.3457 4.3457 1.48438 7.88086 1.48438C11.416 1.48438 14.2773 4.3457 14.2773 7.88086C14.2773 11.416 11.416 14.2773 7.88086 14.2773Z" fill="var(--color-secondary)"/>
  <path d="M3.94531 8.52539L7.23633 11.8262C7.64648 12.2266 8.11523 12.2461 8.52539 11.8359L11.8457 8.51562C12.2461 8.11523 12.2363 7.63672 11.8262 7.23633L8.53516 3.93555C8.125 3.53516 7.65625 3.51562 7.24609 3.92578L3.92578 7.24609C3.52539 7.64648 3.54492 8.125 3.94531 8.52539Z" fill="var(--color-primary)"/>
 </g>
</svg>
