<?xml version="1.0" encoding="UTF-8"?>
<!--Generator: Apple Native CoreSVG 341-->
<!DOCTYPE svg
PUBLIC "-//W3C//DTD SVG 1.1//EN"
       "http://www.w3.org/Graphics/SVG/1.1/DTD/svg11.dtd">
<svg version="1.1" xmlns="http://www.w3.org/2000/svg" xmlns:xlink="http://www.w3.org/1999/xlink" viewBox="0 0 14.5898 14.248">
 <g>
  <rect height="14.248" opacity="0" width="14.5898" x="0" y="0"/>
  <path d="M14.2285 2.4707L14.2285 11.7871C14.2285 13.4277 13.4082 14.248 11.7383 14.248L2.49023 14.248C0.830078 14.248 0 13.4277 0 11.7871L0 2.4707C0 0.830078 0.830078 0.00976562 2.49023 0.00976562L11.7383 0.00976562C13.4082 0.00976562 14.2285 0.830078 14.2285 2.4707ZM2.30469 10.6348C2.30469 11.3672 2.89062 11.9531 3.61328 11.9531C4.33594 11.9531 4.92188 11.3672 4.92188 10.6348C4.92188 9.91211 4.33594 9.32617 3.61328 9.32617C2.89062 9.32617 2.30469 9.91211 2.30469 10.6348ZM9.31641 10.6348C9.31641 11.3672 9.89258 11.9531 10.625 11.9531C11.3379 11.9531 11.9336 11.3672 11.9336 10.6348C11.9336 9.91211 11.3379 9.32617 10.625 9.32617C9.89258 9.32617 9.31641 9.91211 9.31641 10.6348ZM2.30469 7.11914C2.30469 7.85156 2.89062 8.44727 3.61328 8.44727C4.33594 8.44727 4.92188 7.85156 4.92188 7.11914C4.92188 6.40625 4.33594 5.82031 3.61328 5.82031C2.89062 5.82031 2.30469 6.40625 2.30469 7.11914ZM9.31641 7.11914C9.31641 7.85156 9.89258 8.44727 10.625 8.44727C11.3379 8.44727 11.9336 7.85156 11.9336 7.11914C11.9336 6.40625 11.3379 5.82031 10.625 5.82031C9.89258 5.82031 9.31641 6.40625 9.31641 7.11914ZM2.29492 3.62305C2.29492 4.35547 2.89062 4.93164 3.61328 4.94141C4.33594 4.95117 4.92188 4.35547 4.92188 3.62305C4.92188 2.89062 4.33594 2.31445 3.61328 2.31445C2.89062 2.31445 2.29492 2.89062 2.29492 3.62305ZM9.30664 3.62305C9.30664 4.35547 9.89258 4.93164 10.625 4.94141C11.3379 4.95117 11.9336 4.35547 11.9336 3.62305C11.9336 2.89062 11.3379 2.31445 10.625 2.31445C9.89258 2.31445 9.30664 2.89062 9.30664 3.62305Z" fill="white" fill-opacity="0.85"/>
 </g>
</svg>
