<?xml version="1.0" encoding="UTF-8"?>
<!--Generator: Apple Native CoreSVG 341-->
<!DOCTYPE svg
PUBLIC "-//W3C//DTD SVG 1.1//EN"
       "http://www.w3.org/Graphics/SVG/1.1/DTD/svg11.dtd">
<svg version="1.1" xmlns="http://www.w3.org/2000/svg" xmlns:xlink="http://www.w3.org/1999/xlink" viewBox="0 0 20.3027 15.752">
 <g>
  <rect height="15.752" opacity="0" width="20.3027" x="0" y="0"/>
  <path d="M4.64844 2.31445L3.60352 2.31445C3.29102 2.31445 3.03711 2.56836 3.03711 2.88086C3.03711 3.18359 3.29102 3.44727 3.60352 3.44727L4.26758 3.44727C4.15039 3.82812 4.0625 4.22852 3.99414 4.6582L3.0957 4.6582C2.7832 4.6582 2.5293 4.91211 2.5293 5.22461C2.5293 5.52734 2.7832 5.79102 3.0957 5.79102L3.83789 5.79102C3.7793 6.24023 3.75 6.71875 3.74023 7.19727L2.90039 7.19727C2.58789 7.19727 2.33398 7.45117 2.33398 7.76367C2.33398 8.06641 2.58789 8.33008 2.90039 8.33008L3.73047 8.33008C3.74023 8.79883 3.76953 9.27734 3.81836 9.73633L3.0957 9.73633C2.7832 9.73633 2.5293 9.99023 2.5293 10.3027C2.5293 10.6055 2.7832 10.8691 3.0957 10.8691L3.95508 10.8691C4.02344 11.2793 4.11133 11.6895 4.19922 12.0801L3.60352 12.0801C3.29102 12.0801 3.03711 12.334 3.03711 12.6465C3.03711 12.9492 3.29102 13.2129 3.60352 13.2129L4.56055 13.2129C4.96094 14.2871 5.49805 15.1465 6.16211 15.7422L5.42969 15.7422C2.14844 15.7422 0.78125 12.8027 0.78125 7.87109C0.78125 2.93945 2.14844 0 5.42969 0L6.16211 0C5.54688 0.556641 5.0293 1.33789 4.64844 2.31445ZM11.9202 4.6334L9.84375 6.50391C8.99414 7.25586 8.98438 8.47656 9.83398 9.22852L11.9204 11.108C11.3918 13.8575 10.1588 15.5469 8.54492 15.5469C6.35742 15.5469 4.87305 12.4707 4.87305 7.87109C4.87305 3.27148 6.35742 0.195312 8.54492 0.195312C10.1586 0.195312 11.3916 1.88431 11.9202 4.6334Z" fill="white" fill-opacity="0.85"/>
  <path d="M18.4082 7.12891L12.8809 7.12891C12.4609 7.12891 12.1289 7.46094 12.1289 7.88086C12.1289 8.29102 12.4609 8.62305 12.8809 8.62305L18.4082 8.62305C18.8281 8.62305 19.1602 8.29102 19.1602 7.88086C19.1602 7.46094 18.8281 7.12891 18.4082 7.12891ZM14.1895 9.9707L14.1895 5.76172C14.1895 5.05859 13.4863 4.76562 12.9688 5.22461L10.5957 7.35352C10.2539 7.65625 10.2539 8.07617 10.5957 8.37891L12.9688 10.5078C13.457 10.9668 14.1895 10.7031 14.1895 9.9707Z" fill="white" fill-opacity="0.85"/>
 </g>
</svg>
