<?xml version="1.0" encoding="UTF-8"?>
<!--Generator: Apple Native CoreSVG 341-->
<!DOCTYPE svg
PUBLIC "-//W3C//DTD SVG 1.1//EN"
       "http://www.w3.org/Graphics/SVG/1.1/DTD/svg11.dtd">
<svg version="1.1" xmlns="http://www.w3.org/2000/svg" xmlns:xlink="http://www.w3.org/1999/xlink" viewBox="0 0 17.7724 15.752">
 <g>
  <rect height="15.752" opacity="0" width="17.7724" x="0" y="0"/>
  <path d="M10.0874 7.87109C10.0874 12.4707 11.5717 15.5469 13.7495 15.5469C15.9272 15.5469 17.4116 12.4707 17.4116 7.87109C17.4116 3.27148 15.9272 0.195312 13.7495 0.195312C11.5717 0.195312 10.0874 3.27148 10.0874 7.87109ZM5.9858 7.87109C5.9858 12.8027 7.36275 15.7422 10.644 15.7422L11.3667 15.7422C10.7124 15.1465 10.1655 14.2871 9.7651 13.2129L8.80807 13.2129C8.49557 13.2129 8.24166 12.9492 8.24166 12.6465C8.24166 12.334 8.49557 12.0801 8.80807 12.0801L9.41354 12.0801C9.31588 11.6895 9.22799 11.2793 9.15963 10.8691L8.30025 10.8691C7.99752 10.8691 7.74361 10.6055 7.74361 10.3027C7.74361 9.99023 7.99752 9.73633 8.30025 9.73633L9.02291 9.73633C8.98385 9.27734 8.95455 8.79883 8.94479 8.33008L8.10494 8.33008C7.80221 8.33008 7.5483 8.06641 7.5483 7.76367C7.5483 7.45117 7.80221 7.19727 8.10494 7.19727L8.95455 7.19727C8.96432 6.71875 8.99361 6.24023 9.04244 5.79102L8.30025 5.79102C7.99752 5.79102 7.74361 5.52734 7.74361 5.22461C7.74361 4.91211 7.99752 4.6582 8.30025 4.6582L9.19869 4.6582C9.27682 4.22852 9.36471 3.82812 9.47213 3.44727L8.80807 3.44727C8.49557 3.44727 8.24166 3.18359 8.24166 2.88086C8.24166 2.56836 8.49557 2.31445 8.80807 2.31445L9.85299 2.31445C10.2436 1.33789 10.7612 0.556641 11.3667 0L10.644 0C7.36275 0 5.9858 2.93945 5.9858 7.87109Z" fill="white" fill-opacity="0.85"/>
  <path d="M2.45064 1.32812C2.18697 1.32812 1.91354 1.44531 1.81588 1.74805C1.269 3.30078 0.96627 5.03906 0.96627 6.88477C0.96627 8.74023 1.25924 10.4688 1.81588 12.0215C2.13814 12.9297 3.41744 12.6172 3.05611 11.582C2.55807 10.1562 2.27486 8.58398 2.27486 6.88477C2.27486 5.18555 2.5483 3.60352 3.05611 2.1875C3.25143 1.66992 2.8608 1.32812 2.45064 1.32812ZM0.409629 11.2793C-0.107949 11.4746-0.117715 12.1387 0.282676 12.3828L2.79244 13.8965C3.144 14.1016 3.52486 13.9648 3.66158 13.5742L4.60885 10.8398C4.75533 10.3906 4.35494 9.84375 3.7983 10.0488Z" fill="white" fill-opacity="0.85"/>
 </g>
</svg>
