<?xml version="1.0" encoding="UTF-8"?>
<!--Generator: Apple Native CoreSVG 341-->
<!DOCTYPE svg
PUBLIC "-//W3C//DTD SVG 1.1//EN"
       "http://www.w3.org/Graphics/SVG/1.1/DTD/svg11.dtd">
<svg version="1.1" xmlns="http://www.w3.org/2000/svg" xmlns:xlink="http://www.w3.org/1999/xlink" viewBox="0 0 17.7724 15.752">
 <g>
  <rect height="15.752" opacity="0" width="17.7724" x="0" y="0"/>
  <path d="M10.0776 7.87109C10.0776 12.4707 11.5717 15.5469 13.7495 15.5469C15.9272 15.5469 17.4116 12.4707 17.4116 7.87109C17.4116 3.27148 15.9272 0.195312 13.7495 0.195312C11.5717 0.195312 10.0776 3.27148 10.0776 7.87109ZM5.9858 7.87109C5.9858 12.8027 7.35299 15.7422 10.644 15.7422L11.3667 15.7422C10.7124 15.1465 10.1655 14.2871 9.7651 13.2129L8.80807 13.2129C8.49557 13.2129 8.24166 12.9492 8.24166 12.6465C8.24166 12.334 8.49557 12.0801 8.80807 12.0801L9.41354 12.0801C9.31588 11.6895 9.22799 11.2793 9.15963 10.8691L8.30025 10.8691C7.99752 10.8691 7.74361 10.6055 7.74361 10.3027C7.74361 9.99023 7.99752 9.73633 8.30025 9.73633L9.02291 9.73633C8.98385 9.27734 8.95455 8.79883 8.94479 8.33008L8.10494 8.33008C7.80221 8.33008 7.5483 8.06641 7.5483 7.76367C7.5483 7.45117 7.80221 7.19727 8.10494 7.19727L8.95455 7.19727C8.96432 6.71875 8.99361 6.24023 9.04244 5.79102L8.30025 5.79102C7.99752 5.79102 7.74361 5.52734 7.74361 5.22461C7.74361 4.91211 7.99752 4.6582 8.30025 4.6582L9.19869 4.6582C9.26705 4.22852 9.36471 3.82812 9.47213 3.44727L8.80807 3.44727C8.49557 3.44727 8.24166 3.18359 8.24166 2.88086C8.24166 2.56836 8.49557 2.31445 8.80807 2.31445L9.85299 2.31445C10.2436 1.33789 10.7612 0.556641 11.3667 0L10.644 0C7.35299 0 5.9858 2.93945 5.9858 7.87109Z" fill="white" fill-opacity="0.425"/>
  <path d="M2.45064 14.1016C2.8608 14.1016 3.25143 13.7695 3.05611 13.2422C2.5483 11.8262 2.27486 10.2441 2.27486 8.54492C2.27486 6.8457 2.55807 5.27344 3.05611 3.84766C3.41744 2.8125 2.13814 2.5 1.81588 3.4082C1.25924 4.96094 0.96627 6.68945 0.96627 8.54492C0.96627 10.3906 1.269 12.1289 1.81588 13.6816C1.91354 13.9844 2.18697 14.1016 2.45064 14.1016ZM0.409629 4.15039L3.7983 5.38086C4.35494 5.58594 4.75533 5.03906 4.60885 4.59961L3.66158 1.85547C3.52486 1.46484 3.144 1.32812 2.79244 1.5332L0.282676 3.04688C-0.117715 3.29102-0.107949 3.95508 0.409629 4.15039Z" fill="white" fill-opacity="0.85"/>
 </g>
</svg>
