<?xml version="1.0" encoding="UTF-8"?>
<!--Generator: Apple Native CoreSVG 341-->
<!DOCTYPE svg
PUBLIC "-//W3C//DTD SVG 1.1//EN"
       "http://www.w3.org/Graphics/SVG/1.1/DTD/svg11.dtd">
<svg version="1.1" xmlns="http://www.w3.org/2000/svg" xmlns:xlink="http://www.w3.org/1999/xlink" viewBox="0 0 16.1328 15.7715">
 <g>
  <rect height="15.7715" opacity="0" width="16.1328" x="0" y="0"/>
  <path d="M7.88086 15.7715C12.2363 15.7715 15.7715 12.2363 15.7715 7.89062C15.7715 3.54492 12.2363 0.00976562 7.88086 0.00976562C3.53516 0.00976562 0 3.54492 0 7.89062C0 12.2363 3.53516 15.7715 7.88086 15.7715Z" fill="white" fill-opacity="0.2125"/>
  <path d="M10.4395 3.54492C11.0352 3.54492 11.416 3.95508 11.416 4.55078L11.416 5.63477L4.27734 5.63477L4.27734 4.55078C4.27734 3.95508 4.6582 3.54492 5.26367 3.54492ZM5.42969 4.81445C5.43945 5 5.60547 5.14648 5.80078 5.13672C5.99609 5.12695 6.13281 4.96094 6.12305 4.77539C6.11328 4.57031 5.95703 4.42383 5.76172 4.43359C5.56641 4.44336 5.41992 4.60938 5.42969 4.81445ZM6.85547 5.15625C7.06055 5.15625 7.22656 4.99023 7.22656 4.79492C7.22656 4.58008 7.06055 4.41406 6.85547 4.41406C6.64062 4.41406 6.48438 4.58008 6.48438 4.79492C6.48438 4.99023 6.64062 5.15625 6.85547 5.15625ZM4.27734 10.498L4.27734 6.24023L11.416 6.24023L11.416 10.498ZM6.8457 7.51953L8.85742 7.51953C8.99414 7.51953 9.08203 7.41211 9.08203 7.27539C9.08203 7.12891 8.99414 7.04102 8.85742 7.04102L6.8457 7.04102C6.69922 7.04102 6.61133 7.12891 6.61133 7.27539C6.61133 7.41211 6.69922 7.51953 6.8457 7.51953ZM11.416 11.1035L11.416 11.1914C11.416 11.7871 11.0352 12.1973 10.4395 12.1973L5.26367 12.1973C4.6582 12.1973 4.27734 11.7871 4.27734 11.1914L4.27734 11.1035Z" fill="white" fill-opacity="0.85"/>
 </g>
</svg>
