<?xml version="1.0" encoding="UTF-8"?>
<!--Generator: Apple Native CoreSVG 341-->
<!DOCTYPE svg
PUBLIC "-//W3C//DTD SVG 1.1//EN"
       "http://www.w3.org/Graphics/SVG/1.1/DTD/svg11.dtd">
<svg version="1.1" xmlns="http://www.w3.org/2000/svg" xmlns:xlink="http://www.w3.org/1999/xlink" viewBox="0 0 17.7734 16.5527">
 <g>
  <rect height="16.5527" opacity="0" width="17.7734" x="0" y="0"/>
  <path d="M9.6875 0.283203L16.2109 4.04297C16.5234 4.23828 16.6797 4.46289 16.6797 4.72656C16.6797 5.07812 16.3965 5.42969 15.918 5.42969L15.2637 5.42969L15.2637 13.9941L15.752 13.9941C16.1133 13.9941 16.3184 14.1992 16.3184 14.5508L16.3184 15.127L16.709 15.127C17.0898 15.127 17.4121 15.4492 17.4121 15.8301C17.4121 16.2207 17.0898 16.543 16.709 16.543L0.703125 16.543C0.322266 16.543 0 16.2207 0 15.8301C0 15.4492 0.322266 15.127 0.703125 15.127L1.10352 15.127L1.10352 14.5508C1.10352 14.1992 1.30859 13.9941 1.66992 13.9941L2.1582 13.9941L2.1582 5.42969L1.49414 5.42969C1.01562 5.42969 0.732422 5.07812 0.732422 4.72656C0.732422 4.46289 0.878906 4.23828 1.20117 4.04297L7.72461 0.283203C8.03711 0.0976562 8.37891 0 8.71094 0C9.0332 0 9.375 0.0976562 9.6875 0.283203ZM6.63086 12.002C6.46484 12.002 6.31836 12.1387 6.31836 12.3047C6.31836 12.4707 6.46484 12.5977 6.63086 12.5977L10.6348 12.5977C10.791 12.5977 10.9375 12.4707 10.9375 12.3047C10.9375 12.1387 10.791 12.002 10.6348 12.002ZM9.7168 5.12695L9.7168 5.40039L8.21289 5.40039C8.04688 5.40039 7.92969 5.52734 7.92969 5.68359C7.92969 5.84961 8.04688 5.97656 8.21289 5.97656L9.7168 5.97656L9.7168 7.51953L9.6875 7.51953C9.4043 6.92383 8.75 6.66016 8.07617 6.66016C6.88477 6.66016 5.89844 7.57812 5.89844 9.05273C5.89844 10.3516 6.71875 11.4551 8.07617 11.4551C8.75977 11.4551 9.4043 11.1816 9.72656 10.5957L9.74609 10.5957L9.74609 11.0742C9.74609 11.3477 9.95117 11.5527 10.2246 11.5527C10.498 11.5527 10.7031 11.3477 10.7031 11.0742L10.7031 5.97656L11.2695 5.97656C11.4355 5.97656 11.5527 5.83984 11.5527 5.68359C11.5527 5.52734 11.4355 5.40039 11.2695 5.40039L10.7031 5.40039L10.7031 5.12695C10.7031 4.82422 10.5078 4.62891 10.2051 4.62891C9.90234 4.62891 9.7168 4.82422 9.7168 5.12695ZM9.72656 9.05273C9.72656 9.95117 9.15039 10.6055 8.33008 10.6055C7.43164 10.6055 6.91406 9.93164 6.91406 9.05273C6.91406 8.11523 7.50977 7.50977 8.33008 7.50977C9.21875 7.50977 9.72656 8.24219 9.72656 9.05273Z" fill="white" fill-opacity="0.85"/>
 </g>
</svg>
