<svg version="1.1" xmlns="http://www.w3.org/2000/svg" xmlns:xlink="http://www.w3.org/1999/xlink" viewBox="0 0 14.5898 14.248">
 <g>
  <rect height="14.248" opacity="0" width="14.5898" x="0" y="0"/>
  <path d="M2.49023 14.248L11.7383 14.248C13.4082 14.248 14.2285 13.4277 14.2285 11.7871L14.2285 2.4707C14.2285 0.830078 13.4082 0.00976562 11.7383 0.00976562L2.49023 0.00976562C0.830078 0.00976562 0 0.830078 0 2.4707L0 11.7871C0 13.4277 0.830078 14.248 2.49023 14.248Z" fill="var(--color-tertiary)"/>
  <path d="M7.11914 9.58984C5.75195 9.58984 4.64844 8.48633 4.64844 7.11914C4.64844 5.75195 5.75195 4.64844 7.11914 4.64844C8.47656 4.64844 9.58008 5.75195 9.58008 7.11914C9.58008 8.48633 8.47656 9.58984 7.11914 9.58984Z" fill="var(--color-primary)"/>
 </g>
</svg>
