<?xml version="1.0" encoding="UTF-8"?>
<!--Generator: Apple Native CoreSVG 341-->
<!DOCTYPE svg
PUBLIC "-//W3C//DTD SVG 1.1//EN"
       "http://www.w3.org/Graphics/SVG/1.1/DTD/svg11.dtd">
<svg version="1.1" xmlns="http://www.w3.org/2000/svg" xmlns:xlink="http://www.w3.org/1999/xlink" viewBox="0 0 14.5898 14.248">
 <g>
  <rect height="14.248" opacity="0" width="14.5898" x="0" y="0"/>
  <path d="M2.49023 14.248L11.7383 14.248C13.4082 14.248 14.2285 13.4277 14.2285 11.7871L14.2285 2.4707C14.2285 0.830078 13.4082 0.00976562 11.7383 0.00976562L2.49023 0.00976562C0.830078 0.00976562 0 0.830078 0 2.4707L0 11.7871C0 13.4277 0.830078 14.248 2.49023 14.248Z" fill="white" fill-opacity="0.2125"/>
  <path d="M5.3125 10.6738C4.84375 10.6738 4.59961 10.3418 4.59961 9.85352L4.59961 4.20898C4.59961 3.7207 4.84375 3.38867 5.3125 3.38867L9.04297 3.38867C9.38477 3.38867 9.63867 3.59375 9.63867 3.97461C9.63867 4.32617 9.38477 4.56055 9.04297 4.56055L6.04492 4.56055L6.04492 6.42578L8.82812 6.42578C9.16992 6.42578 9.42383 6.62109 9.42383 6.99219C9.42383 7.35352 9.16992 7.53906 8.82812 7.53906L6.04492 7.53906L6.04492 9.50195L9.04297 9.50195C9.38477 9.50195 9.63867 9.7168 9.63867 10.0879C9.63867 10.4492 9.38477 10.6738 9.04297 10.6738Z" fill="white" fill-opacity="0.85"/>
 </g>
</svg>
