<svg version="1.1" xmlns="http://www.w3.org/2000/svg" xmlns:xlink="http://www.w3.org/1999/xlink" viewBox="0 0 12.1387 16.7871">
 <g>
  <rect height="16.7871" opacity="0" width="12.1387" x="0" y="0"/>
  <path d="M0.224609 12.9297C0.224609 15.1074 1.55273 16.4844 3.67188 16.4844C5.21484 16.4844 6.36719 15.8301 7.10938 14.541L7.86133 13.2129C9.47266 10.3906 12.1387 9.88281 12.1387 6.06445C12.1387 2.43164 9.78516 0 6.25977 0C2.64648 0 0.224609 2.43164 0.224609 6.06445ZM2.27539 9.62891L2.27539 5.78125C2.27539 3.60352 3.79883 2.14844 6.25977 2.14844C8.62305 2.14844 10.0781 3.60352 10.0781 5.78125C10.0781 6.13281 9.77539 6.43555 9.42383 6.43555C9.0625 6.43555 8.75977 6.13281 8.75977 5.78125C8.75977 4.375 7.85156 3.4668 6.25977 3.4668C4.57031 3.4668 3.59375 4.375 3.59375 5.78125L3.59375 6.75781L5.81055 6.75781C7.08984 6.75781 7.94922 7.53906 7.94922 8.71094C7.94922 9.19922 7.73438 9.80469 7.41211 10.2148L6.41602 11.4746C6.26953 11.6602 6.07422 11.7578 5.87891 11.7578C5.51758 11.7578 5.21484 11.4648 5.21484 11.1035C5.21484 10.9473 5.27344 10.7812 5.39062 10.6445L6.30859 9.49219C6.47461 9.27734 6.60156 8.98438 6.60156 8.75977C6.60156 8.33984 6.29883 8.06641 5.83008 8.06641L3.59375 8.06641L3.59375 9.62891C3.59375 9.98047 3.29102 10.2832 2.92969 10.2832C2.57812 10.2832 2.27539 9.98047 2.27539 9.62891Z" fill="var(--color-primary)"/>
 </g>
</svg>
