<svg version="1.1" xmlns="http://www.w3.org/2000/svg" xmlns:xlink="http://www.w3.org/1999/xlink" viewBox="0 0 21.2598 15.4395">
 <g>
  <rect height="15.4395" opacity="0" width="21.2598" x="0" y="0"/>
  <path d="M9.86328 4.74609C9.86328 5.88867 9.36523 6.89453 8.55469 7.61719C8.49609 7.66602 8.19336 7.94922 8.07617 8.08594C7.69531 8.54492 7.56836 9.00391 7.56836 9.70703L7.56836 13.75C7.56836 14.3848 7.16797 14.7754 6.51367 14.7754L5.72266 14.7754C5.06836 14.7754 4.66797 14.3848 4.66797 13.75L4.66797 9.70703C4.66797 9.00391 4.54102 8.54492 4.16016 8.08594C4.07653 7.98837 3.8984 7.8162 3.782 7.7079C5.62816 7.63948 6.92383 6.03275 6.92383 3.85742C6.92383 2.70241 6.55533 1.70382 5.92916 1.01517C5.98929 1.00737 6.05111 1.00586 6.11328 1.00586C8.21289 1.00586 9.86328 2.68555 9.86328 4.74609ZM14.9609 1.01519C14.3333 1.70384 13.9648 2.70243 13.9648 3.85742C13.9648 6.03007 15.2573 7.63552 17.109 7.70754C16.9954 7.81582 16.822 7.98826 16.7383 8.08594C16.3574 8.54492 16.2207 9.00391 16.2207 9.70703L16.2207 13.75C16.2207 14.3848 15.8301 14.7754 15.166 14.7754L14.3848 14.7754C13.7207 14.7754 13.3301 14.3848 13.3301 13.75L13.3301 9.70703C13.3301 9.00391 13.2031 8.54492 12.8125 8.08594C12.7051 7.94922 12.4023 7.66602 12.3438 7.61719C11.5332 6.89453 11.0254 5.88867 11.0254 4.74609C11.0254 2.68555 12.6855 1.00586 14.7754 1.00586C14.838 1.00586 14.9003 1.00738 14.9609 1.01519Z" fill="var(--color-primary)"/>
  <path d="M3.65234 6.94336C5.11719 6.94336 6.15234 5.67383 6.15234 3.85742C6.15234 2.04102 5.11719 0.771484 3.65234 0.771484C1.96289 0.771484 0.771484 2.04102 0.771484 3.85742C0.771484 5.67383 1.96289 6.94336 3.65234 6.94336ZM2.46094 5.09766C2.05078 5.09766 1.72852 4.56055 1.72852 3.85742C1.72852 3.16406 2.05078 2.61719 2.46094 2.61719C2.89062 2.61719 3.21289 3.16406 3.21289 3.85742C3.21289 4.56055 2.89062 5.09766 2.46094 5.09766ZM17.2461 6.94336C18.9355 6.94336 20.127 5.67383 20.127 3.85742C20.127 2.04102 18.9355 0.771484 17.2461 0.771484C15.7812 0.771484 14.7363 2.04102 14.7363 3.85742C14.7363 5.67383 15.7812 6.94336 17.2461 6.94336ZM18.4277 5.09766C18.0078 5.09766 17.6855 4.56055 17.6855 3.85742C17.6855 3.16406 18.0078 2.61719 18.4277 2.61719C18.8379 2.61719 19.1699 3.16406 19.1699 3.85742C19.1699 4.56055 18.8379 5.09766 18.4277 5.09766Z" fill="var(--color-secondary)"/>
 </g>
</svg>
