<?xml version="1.0" encoding="UTF-8"?>
<!--Generator: Apple Native CoreSVG 341-->
<!DOCTYPE svg
PUBLIC "-//W3C//DTD SVG 1.1//EN"
       "http://www.w3.org/Graphics/SVG/1.1/DTD/svg11.dtd">
<svg version="1.1" xmlns="http://www.w3.org/2000/svg" xmlns:xlink="http://www.w3.org/1999/xlink" viewBox="0 0 12.7539 13.6035">
 <g>
  <rect height="13.6035" opacity="0" width="12.7539" x="0" y="0"/>
  <path d="M6.78711 13.6035C7.2168 13.6035 7.56836 13.252 7.56836 12.8223C7.56836 12.3926 7.2168 12.041 6.78711 12.041C3.85742 12.041 1.5625 9.74609 1.5625 6.80664C1.5625 3.86719 3.85742 1.57227 6.78711 1.57227C8.4082 1.57227 8.98438 3.16406 7.54883 4.07227L5.79102 5.16602C4.6875 5.84961 4.23828 6.71875 4.23828 7.5293C4.23828 8.79883 5.35156 9.91211 6.75781 9.91211C7.28516 9.91211 7.86133 9.75586 8.41797 9.4043L10.5176 8.08594C11.8164 7.26562 12.3926 6.11328 12.3926 4.92188C12.3926 2.04102 10.0781 0.00976562 6.78711 0.00976562C2.98828 0.00976562 0 3.00781 0 6.80664C0 10.6055 2.98828 13.6035 6.78711 13.6035Z" fill="white" fill-opacity="0.85"/>
 </g>
</svg>
