<svg version="1.1" xmlns="http://www.w3.org/2000/svg" xmlns:xlink="http://www.w3.org/1999/xlink" viewBox="0 0 14.7949 14.0723">
 <g>
  <rect height="14.0723" opacity="0" width="14.7949" x="0" y="0"/>
  <path d="M1.15234 8.4082L13.2617 8.4082C13.9062 8.4082 14.2578 8.07617 14.2578 7.5C14.2578 7.23633 14.1309 6.95312 13.9062 6.71875L8.21289 0.517578C7.91992 0.214844 7.61719 0.00976562 7.20703 0.00976562C6.80664 0.00976562 6.47461 0.224609 6.21094 0.517578L0.498047 6.71875C0.273438 6.95312 0.146484 7.23633 0.15625 7.5C0.166016 8.07617 0.498047 8.4082 1.15234 8.4082ZM1.28906 14.0723L13.1348 14.0723C13.9453 14.0723 14.4336 13.584 14.4336 12.7734L14.4336 11.2988C14.4336 10.4883 13.9453 10 13.1348 10L1.28906 10C0.478516 10 0 10.4883 0 11.2988L0 12.7734C0 13.584 0.478516 14.0723 1.28906 14.0723Z" fill="var(--color-primary)"/>
 </g>
</svg>
