<svg version="1.1" xmlns="http://www.w3.org/2000/svg" xmlns:xlink="http://www.w3.org/1999/xlink" viewBox="0 0 19.8926 11.3965">
 <g>
  <rect height="11.3965" opacity="0" width="19.8926" x="0" y="0"/>
  <path d="M16.6504 11.3672C18.1055 11.3672 19.0723 10.2734 19.4238 8.84766C19.4824 8.65234 19.5312 8.38867 19.5312 8.18359C19.5312 7.85156 19.3359 7.5 18.8477 7.5C18.5254 7.5 18.252 7.71484 18.1836 8.03711C18.0078 8.99414 17.6758 9.96094 16.6406 9.96094C15.1855 9.96094 14.8633 7.13867 14.8633 5.68359C14.8633 3.98438 15.166 1.40625 16.6211 1.40625C17.5488 1.40625 17.9785 2.30469 18.1738 3.25195C18.2715 3.64258 18.4863 3.88672 18.877 3.88672C19.2383 3.88672 19.5312 3.65234 19.5312 3.19336C19.5312 2.99805 19.502 2.8125 19.4531 2.65625C19.1211 1.20117 18.1934 0 16.6211 0C14.1016 0 13.3398 3.10547 13.3398 5.68359C13.3398 8.26172 14.1016 11.3672 16.6504 11.3672Z" fill="var(--color-primary)"/>
  <path d="M9.51172 11.3184C10.0684 11.3184 10.3125 10.9082 10.3125 10.4199L10.3125 0.908203L8.71094 0.908203L8.71094 10.4199C8.71094 10.9473 8.99414 11.3184 9.51172 11.3184ZM6.95312 1.5918L12.0605 1.5918C12.5195 1.5918 12.8516 1.34766 12.8516 0.878906C12.8516 0.410156 12.5195 0.166016 12.0605 0.166016L6.95312 0.166016C6.49414 0.166016 6.16211 0.410156 6.16211 0.878906C6.16211 1.34766 6.49414 1.5918 6.95312 1.5918Z" fill="var(--color-primary)"/>
  <path d="M0.742188 11.2012L4.26758 11.2012C4.70703 11.2012 5.0293 10.957 5.0293 10.5176C5.0293 10.0684 4.70703 9.83398 4.26758 9.83398L1.46484 9.83398L1.46484 6.18164L4.11133 6.18164C4.54102 6.18164 4.86328 5.94727 4.86328 5.51758C4.86328 5.07812 4.54102 4.84375 4.11133 4.84375L1.46484 4.84375L1.46484 1.5332L4.26758 1.5332C4.70703 1.5332 5.0293 1.29883 5.0293 0.849609C5.0293 0.410156 4.70703 0.166016 4.26758 0.166016L0.742188 0.166016C0.263672 0.166016 0 0.507812 0 0.966797L0 10.4004C0 10.8496 0.273438 11.2012 0.742188 11.2012Z" fill="var(--color-primary)"/>
 </g>
</svg>
