<?xml version="1.0" encoding="UTF-8"?>
<!--Generator: Apple Native CoreSVG 341-->
<!DOCTYPE svg
PUBLIC "-//W3C//DTD SVG 1.1//EN"
       "http://www.w3.org/Graphics/SVG/1.1/DTD/svg11.dtd">
<svg version="1.1" xmlns="http://www.w3.org/2000/svg" xmlns:xlink="http://www.w3.org/1999/xlink" viewBox="0 0 18.3496 16.1816">
 <g>
  <rect height="16.1816" opacity="0" width="18.3496" x="0" y="0"/>
  <path d="M17.9883 7.5C17.9883 11.8359 14.209 14.9902 8.98438 14.9902C7.30469 14.9902 5.76172 14.6777 4.42383 14.082C3.62305 14.668 2.53906 14.9902 1.45508 14.9902C0.888672 14.9902 0.673828 14.5801 1.04492 14.2383C1.52344 13.7988 1.69922 13.3984 1.69922 12.8125C1.69922 11.4551 0 10.6055 0 7.5C0 3.14453 3.7793 0 8.98438 0C14.1992 0 17.9883 3.14453 17.9883 7.5ZM11.5332 7.5C11.5332 8.16406 12.0703 8.71094 12.7344 8.71094C13.3887 8.71094 13.9355 8.16406 13.9355 7.5C13.9355 6.83594 13.3887 6.29883 12.7344 6.29883C12.0703 6.29883 11.5332 6.83594 11.5332 7.5ZM7.79297 7.5C7.79297 8.16406 8.33008 8.71094 8.99414 8.71094C9.6582 8.71094 10.2051 8.16406 10.2051 7.5C10.2051 6.83594 9.6582 6.29883 8.99414 6.29883C8.33008 6.29883 7.79297 6.83594 7.79297 7.5ZM4.0625 7.5C4.0625 8.16406 4.60938 8.71094 5.26367 8.71094C5.92773 8.71094 6.46484 8.16406 6.46484 7.5C6.46484 6.83594 5.91797 6.29883 5.26367 6.29883C4.60938 6.29883 4.0625 6.83594 4.0625 7.5Z" fill="white" fill-opacity="0.85"/>
 </g>
</svg>
