<?xml version="1.0" encoding="UTF-8"?>
<!--Generator: Apple Native CoreSVG 341-->
<!DOCTYPE svg
PUBLIC "-//W3C//DTD SVG 1.1//EN"
       "http://www.w3.org/Graphics/SVG/1.1/DTD/svg11.dtd">
<svg version="1.1" xmlns="http://www.w3.org/2000/svg" xmlns:xlink="http://www.w3.org/1999/xlink" viewBox="0 0 21.9824 14.9316">
 <g>
  <rect height="14.9316" opacity="0" width="21.9824" x="0" y="0"/>
  <path d="M18.2617 12.7441C18.2617 14.043 17.3926 14.9316 16.1816 14.9316C14.9609 14.9316 14.0918 14.0332 13.9453 12.9492C13.8965 12.5977 14.043 12.2754 14.4434 12.2461C14.8145 12.2168 15.0488 12.4805 15.0977 12.8027C15.2051 13.4082 15.6055 13.7988 16.1816 13.7988C16.748 13.7988 17.1289 13.418 17.1289 12.7441C17.1289 11.4258 15.1758 10.2441 12.0215 10.2441L10.5469 10.2441L10.5469 9.11133L12.0215 9.11133C15.8008 9.11133 18.2617 10.7227 18.2617 12.7441ZM1.44531 10.2441C1.14258 10.2441 0.878906 9.99023 0.878906 9.67773C0.878906 9.36523 1.14258 9.11133 1.44531 9.11133L5.95703 9.11133L5.95703 10.2441ZM21.6211 7.11914C21.6211 8.4375 20.5664 9.44336 19.2188 9.44336C17.3633 9.44336 16.5332 7.94922 12.7051 7.94922L10.5469 7.94922L10.5469 6.81641L12.7246 6.81641C16.8066 6.81641 17.7441 8.31055 19.1504 8.31055C19.9707 8.32031 20.4883 7.72461 20.4883 7.06055C20.4883 6.25 19.8926 5.83008 19.2773 5.83008C19.0234 5.83008 18.8281 5.89844 18.6621 6.01562C18.4082 6.18164 18.1348 6.23047 17.9102 6.04492C17.6953 5.86914 17.6758 5.47852 17.959 5.24414C18.3203 4.94141 18.7891 4.74609 19.2773 4.74609C20.5371 4.74609 21.6211 5.58594 21.6211 7.11914ZM0.566406 7.94922C0.263672 7.94922 0 7.69531 0 7.38281C0 7.07031 0.263672 6.81641 0.566406 6.81641L5.95703 6.81641L5.95703 7.94922ZM5.95703 5.6543L1.44531 5.6543C1.14258 5.6543 0.878906 5.40039 0.878906 5.08789C0.878906 4.78516 1.14258 4.53125 1.44531 4.53125L5.95703 4.53125ZM17.6855 2.96875C17.6855 4.57031 16.4844 5.6543 12.8516 5.6543L10.5469 5.6543L10.5469 4.53125L12.9004 4.53125C15.8984 4.53125 16.5527 3.86719 16.5527 2.96875C16.5527 2.28516 16.1035 1.95312 15.5078 1.95312C15.0879 1.95312 14.7266 2.2168 14.541 2.53906C14.3164 2.91016 13.9941 2.97852 13.7207 2.83203C13.418 2.66602 13.3789 2.32422 13.5254 2.04102C13.8867 1.33789 14.6582 0.820312 15.5078 0.820312C16.7188 0.820312 17.6855 1.66992 17.6855 2.96875Z" fill="white" fill-opacity="0.85"/>
  <path d="M8.25195 12.7344C8.85742 12.7344 9.35547 12.2461 9.35547 11.6797C9.35547 11.0938 8.86719 10.625 8.25195 10.625C7.64648 10.625 7.1582 11.0938 7.1582 11.6797C7.1582 12.2461 7.65625 12.7344 8.25195 12.7344ZM8.25195 9.24805C8.68164 9.24805 8.98438 8.94531 9.00391 8.49609L9.18945 3.11523C9.20898 2.55859 8.83789 2.17773 8.25195 2.17773C7.67578 2.17773 7.29492 2.55859 7.31445 3.11523L7.5 8.49609C7.51953 8.94531 7.82227 9.24805 8.25195 9.24805Z" fill="white" fill-opacity="0.85"/>
 </g>
</svg>
