<svg version="1.1" xmlns="http://www.w3.org/2000/svg" xmlns:xlink="http://www.w3.org/1999/xlink" viewBox="0 0 21.9824 14.9316">
 <g>
  <rect height="14.9316" opacity="0" width="21.9824" x="0" y="0"/>
  <path d="M18.2617 12.7441C18.2617 14.043 17.3926 14.9316 16.1816 14.9316C14.9609 14.9316 14.0918 14.0332 13.9453 12.9492C13.8965 12.5977 14.043 12.2754 14.4434 12.2461C14.8145 12.2168 15.0488 12.4805 15.0977 12.8027C15.2051 13.4082 15.6055 13.7988 16.1816 13.7988C16.748 13.7988 17.1289 13.418 17.1289 12.7441C17.1289 11.4258 15.1758 10.2441 12.0215 10.2441L11.4453 10.2441L11.4453 9.11133L12.0215 9.11133C15.8008 9.11133 18.2617 10.7227 18.2617 12.7441ZM1.44531 10.2441C1.14258 10.2441 0.878906 9.99023 0.878906 9.67773C0.878906 9.36523 1.14258 9.11133 1.44531 9.11133L5.04883 9.11133L5.04883 10.2441ZM21.6211 7.11914C21.6211 8.4375 20.5664 9.44336 19.2188 9.44336C17.3633 9.44336 16.5332 7.94922 12.7051 7.94922L11.4453 7.94922L11.4453 6.81641L12.7246 6.81641C16.8066 6.81641 17.7441 8.31055 19.1504 8.31055C19.9707 8.32031 20.4883 7.72461 20.4883 7.06055C20.4883 6.25 19.8926 5.83008 19.2773 5.83008C19.0234 5.83008 18.8281 5.89844 18.6621 6.01562C18.4082 6.18164 18.1348 6.23047 17.9102 6.04492C17.6953 5.86914 17.6758 5.47852 17.959 5.24414C18.3203 4.94141 18.7891 4.74609 19.2773 4.74609C20.5371 4.74609 21.6211 5.58594 21.6211 7.11914ZM0.566406 7.94922C0.263672 7.94922 0 7.69531 0 7.38281C0 7.07031 0.263672 6.81641 0.566406 6.81641L5.04883 6.81641L5.04883 7.94922ZM5.04883 5.6543L1.44531 5.6543C1.14258 5.6543 0.878906 5.40039 0.878906 5.08789C0.878906 4.78516 1.14258 4.53125 1.44531 4.53125L5.04883 4.53125ZM17.6855 2.96875C17.6855 4.57031 16.4844 5.6543 12.8516 5.6543L11.4453 5.6543L11.4453 4.53125L12.9004 4.53125C15.8984 4.53125 16.5527 3.86719 16.5527 2.96875C16.5527 2.28516 16.1035 1.95312 15.5078 1.95312C15.0879 1.95312 14.7266 2.2168 14.541 2.53906C14.3164 2.91016 13.9941 2.97852 13.7207 2.83203C13.418 2.66602 13.3789 2.32422 13.5254 2.04102C13.8867 1.33789 14.6582 0.820312 15.5078 0.820312C16.7188 0.820312 17.6855 1.66992 17.6855 2.96875Z" fill="var(--color-secondary)"/>
  <path d="M5.58594 2.36328L10.8789 2.36328C11.2207 2.36328 11.4941 2.08984 11.4941 1.74805C11.4941 1.41602 11.2207 1.14258 10.8789 1.14258L5.58594 1.14258C5.25391 1.14258 4.98047 1.41602 4.98047 1.74805C4.98047 2.08984 5.25391 2.36328 5.58594 2.36328ZM5.58594 13.7793L10.8887 13.7793C11.2207 13.7793 11.4941 13.5059 11.4941 13.1738C11.4941 12.832 11.2207 12.5586 10.8887 12.5586L5.58594 12.5586C5.24414 12.5586 4.9707 12.832 4.9707 13.1738C4.9707 13.5059 5.24414 13.7793 5.58594 13.7793ZM6.875 11.5723C7.23633 11.5723 7.5293 11.2793 7.5293 10.918C7.5293 10.5469 7.23633 10.2539 6.875 10.2539C6.50391 10.2539 6.21094 10.5469 6.21094 10.918C6.21094 11.2793 6.50391 11.5723 6.875 11.5723ZM6.875 9.26758C7.23633 9.26758 7.5293 8.97461 7.5293 8.61328C7.5293 8.24219 7.23633 7.95898 6.875 7.95898C6.50391 7.95898 6.21094 8.24219 6.21094 8.61328C6.21094 8.97461 6.50391 9.26758 6.875 9.26758ZM9.62891 11.5723C10 11.5723 10.2832 11.2793 10.2832 10.918C10.2832 10.5469 10 10.2539 9.62891 10.2539C9.25781 10.2539 8.97461 10.5469 8.97461 10.918C8.97461 11.2793 9.25781 11.5723 9.62891 11.5723ZM6.875 6.96289C7.23633 6.96289 7.5293 6.67969 7.5293 6.30859C7.5293 5.94727 7.23633 5.6543 6.875 5.6543C6.50391 5.6543 6.21094 5.94727 6.21094 6.30859C6.21094 6.67969 6.50391 6.96289 6.875 6.96289ZM9.62891 9.26758C10 9.26758 10.2832 8.97461 10.2832 8.61328C10.2832 8.24219 10 7.95898 9.62891 7.95898C9.25781 7.95898 8.97461 8.24219 8.97461 8.61328C8.97461 8.97461 9.25781 9.26758 9.62891 9.26758ZM6.875 4.66797C7.23633 4.66797 7.5293 4.375 7.5293 4.00391C7.5293 3.65234 7.23633 3.34961 6.875 3.34961C6.50391 3.34961 6.21094 3.65234 6.21094 4.00391C6.21094 4.375 6.50391 4.66797 6.875 4.66797ZM9.62891 6.96289C10 6.96289 10.2832 6.67969 10.2832 6.30859C10.2832 5.94727 10 5.6543 9.62891 5.6543C9.25781 5.6543 8.97461 5.94727 8.97461 6.30859C8.97461 6.67969 9.25781 6.96289 9.62891 6.96289ZM9.62891 4.66797C10 4.66797 10.2832 4.375 10.2832 4.00391C10.2832 3.65234 10 3.34961 9.62891 3.34961C9.25781 3.34961 8.97461 3.65234 8.97461 4.00391C8.97461 4.375 9.25781 4.66797 9.62891 4.66797Z" fill="var(--color-primary)"/>
 </g>
</svg>
