<?xml version="1.0" encoding="UTF-8"?>
<!--Generator: Apple Native CoreSVG 341-->
<!DOCTYPE svg
PUBLIC "-//W3C//DTD SVG 1.1//EN"
       "http://www.w3.org/Graphics/SVG/1.1/DTD/svg11.dtd">
<svg version="1.1" xmlns="http://www.w3.org/2000/svg" xmlns:xlink="http://www.w3.org/1999/xlink" viewBox="0 0 17.2433 19.646">
 <g>
  <rect height="19.646" opacity="0" width="17.2433" x="0" y="0"/>
  <path d="M3.00642 10.99L14.0904 10.99C15.2427 10.99 15.9263 10.3162 15.9263 8.94899L15.9263 2.23024C15.9263 0.872816 15.233 0.189222 13.8756 0.189222L2.79157 0.189222C1.649 0.189222 0.955637 0.872816 0.955637 2.23024L0.955637 8.94899C0.955637 10.3162 1.65876 10.99 3.00642 10.99ZM2.97712 9.75953C2.47907 9.75953 2.18611 9.49586 2.18611 8.94899L2.18611 2.23024C2.18611 1.69313 2.46931 1.42946 2.97712 1.42946L13.9146 1.42946C14.4224 1.42946 14.7056 1.69313 14.7056 2.23024L14.7056 8.95875C14.7056 9.49586 14.4127 9.75953 13.9146 9.75953ZM2.36189 10.1795L6.75642 5.79469L5.91657 4.95485L1.53181 9.33961ZM8.44587 7.34743C8.85603 7.34743 9.29548 7.19118 9.66657 6.84938L15.4576 1.62477L14.5982 0.784925L8.94392 5.89235C8.78767 6.03883 8.62165 6.11696 8.44587 6.11696C8.26032 6.11696 8.09431 6.03883 7.94782 5.89235L2.28376 0.784925L1.42439 1.62477L7.2154 6.84938C7.59626 7.19118 8.02595 7.34743 8.44587 7.34743ZM14.5299 10.1892L15.3599 9.34938L10.9654 4.95485L10.1256 5.79469Z" fill="white" fill-opacity="0.85"/>
  <path d="M5.61384 12.7381C5.28181 12.7381 5.10603 12.9138 4.95954 13.2752C4.59822 14.2322 3.71931 14.9646 1.99079 14.9939C1.6197 14.9939 1.39509 15.2966 1.39509 15.5994C1.40486 15.8923 1.60993 16.1658 2.09822 16.1658C4.61775 16.1365 6.23884 14.5252 6.23884 13.3435C6.23884 12.992 5.97517 12.7381 5.61384 12.7381ZM3.13337 16.8201L2.57673 14.1931C2.47907 13.6853 2.08845 13.5779 1.71736 13.9588L0.174387 15.6287C-0.118582 15.9314-0.0306912 16.3123 0.350168 16.4783L2.44001 17.367C2.90876 17.572 3.23103 17.3181 3.13337 16.8201ZM8.44587 12.7283C8.10407 12.7283 7.8697 12.9724 7.8697 13.3435L7.8697 17.6795C7.8697 18.0017 8.12361 18.2556 8.44587 18.2556C8.76814 18.2556 9.02204 18.0017 9.02204 17.6795L9.02204 13.3435C9.02204 12.9724 8.7779 12.7283 8.44587 12.7283ZM9.83259 16.742L7.04939 16.742C6.55134 16.742 6.41462 17.1326 6.68806 17.533L7.99665 19.3982C8.23103 19.7302 8.65095 19.7302 8.88532 19.3884L10.1939 17.533C10.4674 17.1326 10.3404 16.742 9.83259 16.742ZM11.2779 12.7381C10.9166 12.7381 10.6529 12.992 10.6529 13.3435C10.6529 14.5252 12.2642 16.1365 14.7838 16.1658C15.272 16.1658 15.4869 15.8923 15.4869 15.5994C15.4869 15.2966 15.2623 14.9939 14.9009 14.9939C13.1724 14.9646 12.2935 14.2322 11.9322 13.2752C11.7857 12.9138 11.6002 12.7381 11.2779 12.7381ZM13.7486 16.8201C13.6509 17.3181 13.9732 17.572 14.4517 17.367L16.5416 16.4783C16.9224 16.3123 17.0103 15.9314 16.7174 15.6287L15.1646 13.9588C14.8033 13.5779 14.4029 13.6853 14.3052 14.1931Z" fill="white" fill-opacity="0.85"/>
 </g>
</svg>
