<?xml version="1.0" encoding="UTF-8"?>
<!--Generator: Apple Native CoreSVG 341-->
<!DOCTYPE svg
PUBLIC "-//W3C//DTD SVG 1.1//EN"
       "http://www.w3.org/Graphics/SVG/1.1/DTD/svg11.dtd">
<svg version="1.1" xmlns="http://www.w3.org/2000/svg" xmlns:xlink="http://www.w3.org/1999/xlink" viewBox="0 0 28.4766 18.5645">
 <g>
  <rect height="18.5645" opacity="0" width="28.4766" x="0" y="0"/>
  <path d="M23.2249 4.03791C22.917 3.78054 22.5196 3.63281 22.0898 3.63281C21.7172 3.63281 21.3665 3.75306 21.0826 3.95271C21.0332 3.94753 20.9814 3.94531 20.9277 3.94531L7.17773 3.94531C7.09211 3.94531 7.01096 3.95112 6.93456 3.96279L13.3496 9.73633C13.5645 9.94141 13.8086 10.0391 14.0527 10.0391C14.3066 10.0391 14.5508 9.94141 14.7656 9.73633L16.6699 8.02246L16.6699 9.88281L16.5918 9.80474L15.5078 10.7812C15.0684 11.1914 14.5703 11.377 14.0527 11.377C13.5449 11.377 13.0469 11.1914 12.5977 10.7812L11.5192 9.80844L6.75046 14.5685C6.87618 14.609 7.01931 14.6289 7.17773 14.6289L16.8191 14.6289C16.9194 15.1119 17.0818 15.5553 17.2952 15.957L7.23633 15.957C5.57617 15.957 4.74609 15.1465 4.74609 13.5059L4.74609 5.06836C4.74609 3.42773 5.56641 2.61719 6.96289 2.61719L20.8789 2.61719C22.1359 2.61719 22.9227 3.08739 23.2249 4.03791ZM6.08398 5.05859L6.08398 13.4365L10.5648 8.94751L6.09022 4.91128C6.08592 4.9584 6.08398 5.00765 6.08398 5.05859Z" fill="white" fill-opacity="0.425"/>
  <path d="M21.875 17.4316C23.75 17.4316 24.8438 16.6895 25.6348 15.293C26.123 14.4336 26.4941 13.3691 26.8848 12.1094C27.0703 11.5332 27.334 10.8008 27.334 10.4785C27.334 10.1562 27.0898 9.93164 26.748 9.93164C26.3281 9.93164 26.1133 10.1953 25.8008 10.8105L24.9805 12.4902C24.8926 12.6562 24.8145 12.7246 24.7363 12.7246C24.6289 12.7246 24.5703 12.6758 24.5703 12.4902L24.5703 6.2207C24.5703 5.85938 24.2676 5.55664 23.9062 5.55664C23.5449 5.55664 23.252 5.85938 23.252 6.2207L23.252 10.7227C23.0957 10.6738 22.9297 10.625 22.7539 10.5957L22.7539 5.43945C22.7539 5.06836 22.4609 4.77539 22.0898 4.77539C21.7383 4.77539 21.4355 5.06836 21.4355 5.43945L21.4355 10.5371C21.2695 10.5469 21.0938 10.5664 20.9375 10.5957L20.9375 5.89844C20.9375 5.52734 20.6348 5.23438 20.2734 5.23438C19.9219 5.23438 19.6191 5.52734 19.6191 5.89844L19.6191 11.0156C19.4434 11.1035 19.2773 11.2012 19.1113 11.2988L19.1113 7.73438C19.1113 7.37305 18.8281 7.08008 18.457 7.08008C18.1055 7.08008 17.8027 7.37305 17.8027 7.73438L17.8027 13.2715C17.8027 15.8398 19.4922 17.4316 21.875 17.4316Z" fill="white" fill-opacity="0.85"/>
 </g>
</svg>
