<?xml version="1.0" encoding="UTF-8"?>
<!--Generator: Apple Native CoreSVG 341-->
<!DOCTYPE svg
PUBLIC "-//W3C//DTD SVG 1.1//EN"
       "http://www.w3.org/Graphics/SVG/1.1/DTD/svg11.dtd">
<svg version="1.1" xmlns="http://www.w3.org/2000/svg" xmlns:xlink="http://www.w3.org/1999/xlink" viewBox="0 0 17.2433 19.646">
 <g>
  <rect height="19.646" opacity="0" width="17.2433" x="0" y="0"/>
  <path d="M8.42634 6.21461C8.62165 6.21461 8.8072 6.13649 8.99275 5.97047L15.2232 0.521254C14.8717 0.286879 14.4908 0.189222 13.9439 0.189222L2.90876 0.189222C2.36189 0.189222 1.98103 0.286879 1.6197 0.521254L7.85993 5.97047C8.03572 6.13649 8.22126 6.21461 8.42634 6.21461ZM1.024 9.88649L5.58454 5.33571L1.00447 1.34157C0.965403 1.42946 0.887278 1.75172 0.887278 2.18141L0.887278 9.00758C0.887278 9.38844 0.955637 9.67164 1.024 9.88649ZM2.67439 10.99L14.1685 10.99C14.608 10.99 14.9693 10.8728 15.2037 10.7263L10.4967 6.0193L9.59822 6.80055C9.23689 7.13258 8.8365 7.28883 8.42634 7.28883C8.01618 7.28883 7.61579 7.13258 7.25447 6.80055L6.35603 6.0193L1.649 10.7263C1.88337 10.8728 2.23493 10.99 2.67439 10.99ZM15.8287 9.88649C15.897 9.67164 15.9654 9.38844 15.9654 9.00758L15.9654 2.18141C15.9654 1.75172 15.8873 1.42946 15.8384 1.34157L11.2681 5.33571Z" fill="white" fill-opacity="0.425"/>
  <path d="M5.61384 12.7381C5.28181 12.7381 5.10603 12.9138 4.95954 13.2752C4.59822 14.2322 3.71931 14.9646 1.99079 14.9939C1.6197 14.9939 1.39509 15.2966 1.39509 15.5994C1.40486 15.8923 1.60993 16.1658 2.09822 16.1658C4.61775 16.1365 6.23884 14.5252 6.23884 13.3435C6.23884 12.992 5.97517 12.7381 5.61384 12.7381ZM3.13337 16.8201L2.57673 14.1931C2.47907 13.6853 2.08845 13.5779 1.71736 13.9588L0.174387 15.6287C-0.118582 15.9314-0.0306912 16.3123 0.350168 16.4783L2.44001 17.367C2.90876 17.572 3.23103 17.3181 3.13337 16.8201ZM8.44587 12.7283C8.10407 12.7283 7.8697 12.9724 7.8697 13.3435L7.8697 17.6795C7.8697 18.0017 8.12361 18.2556 8.44587 18.2556C8.76814 18.2556 9.02204 18.0017 9.02204 17.6795L9.02204 13.3435C9.02204 12.9724 8.7779 12.7283 8.44587 12.7283ZM9.83259 16.742L7.04939 16.742C6.55134 16.742 6.41462 17.1326 6.68806 17.533L7.99665 19.3982C8.23103 19.7302 8.65095 19.7302 8.88532 19.3884L10.1939 17.533C10.4674 17.1326 10.3404 16.742 9.83259 16.742ZM11.2779 12.7381C10.9166 12.7381 10.6529 12.992 10.6529 13.3435C10.6529 14.5252 12.2642 16.1365 14.7838 16.1658C15.272 16.1658 15.4869 15.8923 15.4869 15.5994C15.4869 15.2966 15.2623 14.9939 14.9009 14.9939C13.1724 14.9646 12.2935 14.2322 11.9322 13.2752C11.7857 12.9138 11.6002 12.7381 11.2779 12.7381ZM13.7486 16.8201C13.6509 17.3181 13.9732 17.572 14.4517 17.367L16.5416 16.4783C16.9224 16.3123 17.0103 15.9314 16.7174 15.6287L15.1646 13.9588C14.8033 13.5779 14.4029 13.6853 14.3052 14.1931Z" fill="white" fill-opacity="0.85"/>
 </g>
</svg>
