<?xml version="1.0" encoding="UTF-8"?>
<!--Generator: Apple Native CoreSVG 341-->
<!DOCTYPE svg
PUBLIC "-//W3C//DTD SVG 1.1//EN"
       "http://www.w3.org/Graphics/SVG/1.1/DTD/svg11.dtd">
<svg version="1.1" xmlns="http://www.w3.org/2000/svg" xmlns:xlink="http://www.w3.org/1999/xlink" viewBox="0 0 29.2383 18.5645">
 <g>
  <rect height="18.5645" opacity="0" width="29.2383" x="0" y="0"/>
  <path d="M17.4219 10.2532L17.4219 13.2715C17.4219 14.2913 17.6462 15.197 18.0495 15.957L7.34375 15.957C6.79688 15.957 6.34766 15.8301 6.05469 15.6348L11.8848 9.81445L12.9785 10.7812C13.4375 11.1816 13.9453 11.3867 14.4336 11.3867C14.9316 11.3867 15.4395 11.1816 15.8984 10.7812L16.9824 9.81445ZM10.918 8.97461L5.29297 14.5996C5.19531 14.3262 5.12695 13.9844 5.12695 13.5059L5.12695 5.06836C5.12695 4.53125 5.21484 4.16016 5.27344 4.0332ZM22.8418 3.00781L21.5261 4.16156C21.3732 4.115 21.2003 4.0918 21.0352 4.0918C20.0488 4.0918 19.2383 4.90234 19.2383 5.89844L19.2383 5.94727C18.252 5.9375 17.4219 6.72852 17.4219 7.73438L17.4219 7.76056L15.1465 9.75586C14.9219 9.96094 14.6777 10.0586 14.4336 10.0586C14.1992 10.0586 13.9551 9.96094 13.7305 9.75586L6.02539 3.00781C6.47461 2.73438 6.95312 2.61719 7.61719 2.61719L21.2598 2.61719C21.9238 2.61719 22.4023 2.73438 22.8418 3.00781Z" fill="white" fill-opacity="0.85"/>
  <path d="M22.6367 17.4316C24.5117 17.4316 25.6055 16.6895 26.3965 15.293C26.8848 14.4336 27.2559 13.3691 27.6465 12.1094C27.8223 11.5332 28.0957 10.8008 28.0957 10.4785C28.0957 10.1562 27.8516 9.93164 27.5098 9.93164C27.0898 9.93164 26.8652 10.1953 26.5625 10.8105L25.7324 12.4902C25.6543 12.6562 25.5762 12.7246 25.4883 12.7246C25.3906 12.7246 25.3223 12.6758 25.3223 12.4902L25.3223 6.2207C25.3223 5.85938 25.0293 5.55664 24.6582 5.55664C24.3066 5.55664 24.0039 5.85938 24.0039 6.2207L24.0039 10.7227C23.8574 10.6738 23.6914 10.625 23.5156 10.5957L23.5156 5.43945C23.5156 5.06836 23.2129 4.77539 22.8516 4.77539C22.5 4.77539 22.1973 5.06836 22.1973 5.43945L22.1973 10.5371C22.0312 10.5469 21.8555 10.5664 21.6992 10.5957L21.6992 5.89844C21.6992 5.52734 21.3965 5.23438 21.0352 5.23438C20.6738 5.23438 20.3809 5.52734 20.3809 5.89844L20.3809 11.0156C20.1953 11.1035 20.0391 11.2012 19.873 11.2988L19.873 7.73438C19.873 7.37305 19.5898 7.08008 19.2188 7.08008C18.8672 7.08008 18.5645 7.37305 18.5645 7.73438L18.5645 13.2715C18.5645 15.8398 20.2539 17.4316 22.6367 17.4316Z" fill="white" fill-opacity="0.85"/>
 </g>
</svg>
