<?xml version="1.0" encoding="UTF-8"?>
<!--Generator: Apple Native CoreSVG 341-->
<!DOCTYPE svg
PUBLIC "-//W3C//DTD SVG 1.1//EN"
       "http://www.w3.org/Graphics/SVG/1.1/DTD/svg11.dtd">
<svg version="1.1" xmlns="http://www.w3.org/2000/svg" xmlns:xlink="http://www.w3.org/1999/xlink" viewBox="0 0 18.9844 18.5537">
 <g>
  <rect height="18.5537" opacity="0" width="18.9844" x="0" y="0"/>
  <path d="M18.623 7.60203L18.623 16.0395C18.623 17.6802 17.793 18.4907 16.4062 18.4907L2.49023 18.4907C0.830078 18.4907 0 17.6802 0 16.0395L0 7.60203C0 5.9614 0.820312 5.15086 2.2168 5.15086L7.48047 5.15086L7.48047 6.47898L2.43164 6.47898C2.34602 6.47898 2.26487 6.48479 2.18847 6.49645L8.60352 12.27C8.81836 12.4751 9.0625 12.5727 9.30664 12.5727C9.56055 12.5727 9.80469 12.4751 10.0195 12.27L16.4336 6.49732C16.3547 6.48507 16.2706 6.47898 16.1816 6.47898L11.1328 6.47898L11.1328 5.15086L16.1328 5.15086C17.7832 5.15086 18.623 5.9614 18.623 7.60203ZM10.7617 13.3149C10.3223 13.7251 9.82422 13.9106 9.30664 13.9106C8.79883 13.9106 8.30078 13.7251 7.85156 13.3149L6.77311 12.3421L2.00437 17.1022C2.13008 17.1427 2.27321 17.1626 2.43164 17.1626L16.1816 17.1626C16.3408 17.1626 16.4845 17.1431 16.6107 17.1033L11.8458 12.3384ZM12.7962 11.4822L17.2852 15.9712L17.2852 7.60203C17.2852 7.5475 17.283 7.49492 17.278 7.44491ZM1.33789 7.59226L1.33789 15.9702L5.81869 11.4812L1.34413 7.44495C1.33983 7.49207 1.33789 7.54131 1.33789 7.59226Z" fill="white" fill-opacity="0.425"/>
  <path d="M6.13281 3.25633L6.64062 0.609842C6.73828 0.111795 6.41602-0.132346 5.9375 0.0727322L3.85742 1.00047C3.47656 1.17625 3.39844 1.54734 3.69141 1.85008L5.27344 3.50047C5.64453 3.88133 6.03516 3.76414 6.13281 3.25633ZM6.16211 1.31297C5.81055 1.2739 5.43945 1.55711 5.43945 1.97703C5.43945 2.30906 5.69336 2.59226 6.03516 2.63133C7.66602 2.80711 8.68164 4.03758 8.68164 6.3032L8.68164 8.65672C8.68164 9.01804 8.97461 9.31101 9.33594 9.31101C9.70703 9.31101 10 9.01804 10 8.65672L10 6.3032C10 3.39304 8.51562 1.56687 6.16211 1.31297ZM12.5488 3.25633C12.6367 3.76414 13.0371 3.88133 13.4082 3.50047L14.9902 1.85008C15.2832 1.54734 15.1953 1.17625 14.8145 1.00047L12.7344 0.0727322C12.2656-0.132346 11.9434 0.111795 12.041 0.609842ZM12.5098 1.31297C10.166 1.56687 8.68164 3.39304 8.68164 6.3032L8.68164 8.65672C8.68164 9.01804 8.97461 9.31101 9.33594 9.31101C9.70703 9.31101 10 9.01804 10 8.65672L10 6.3032C10 4.03758 11.0059 2.80711 12.6465 2.63133C12.9785 2.59226 13.2324 2.30906 13.2324 1.97703C13.2324 1.55711 12.8711 1.2739 12.5098 1.31297Z" fill="white" fill-opacity="0.85"/>
 </g>
</svg>
