<?xml version="1.0" encoding="UTF-8"?>
<!--Generator: Apple Native CoreSVG 341-->
<!DOCTYPE svg
PUBLIC "-//W3C//DTD SVG 1.1//EN"
       "http://www.w3.org/Graphics/SVG/1.1/DTD/svg11.dtd">
<svg version="1.1" xmlns="http://www.w3.org/2000/svg" xmlns:xlink="http://www.w3.org/1999/xlink" viewBox="0 0 20.4492 19.5996">
 <g>
  <rect height="19.5996" opacity="0" width="20.4492" x="0" y="0"/>
  <path d="M15.242 2.29492L4.85561 2.29492C4.8762 1.57943 5.29379 1.18164 6.03516 1.18164L14.0527 1.18164C14.7941 1.18164 15.2209 1.57943 15.242 2.29492Z" fill="white" fill-opacity="0.85"/>
  <path d="M16.8337 4.52281C16.7368 4.51446 16.636 4.51172 16.5332 4.51172L3.29102 4.51172C3.27889 4.51172 3.2668 4.51177 3.25535 4.51319C3.36763 3.72558 3.91379 3.28125 4.80469 3.28125L15.2832 3.28125C16.1777 3.28125 16.7246 3.72914 16.8337 4.52281Z" fill="white" fill-opacity="0.85"/>
  <path d="M3.55469 18.4082L16.7969 18.4082C18.1152 18.4082 18.9062 17.627 18.9062 16.0645L18.9062 8.03711C18.9062 6.47461 18.1055 5.69336 16.5332 5.69336L3.29102 5.69336C1.97266 5.69336 1.19141 6.47461 1.19141 8.03711L1.19141 16.0645C1.19141 17.627 1.98242 18.4082 3.55469 18.4082ZM3.50586 17.1387C2.8418 17.1387 2.46094 16.7773 2.46094 16.0645L2.46094 8.02734C2.46094 7.32422 2.8418 6.96289 3.50586 6.96289L16.582 6.96289C17.2559 6.96289 17.6367 7.32422 17.6367 8.03711L17.6367 16.0742C17.6367 16.7773 17.2559 17.1387 16.582 17.1387ZM10.0488 14.0527C10.5273 14.0527 11.0059 13.8672 11.4355 13.4766L18.2715 7.31445L17.4023 6.45508L10.7129 12.4805C10.5176 12.666 10.2832 12.7734 10.0488 12.7734C9.80469 12.7734 9.57031 12.666 9.375 12.4805L2.68555 6.45508L1.81641 7.31445L8.65234 13.4766C9.08203 13.8672 9.56055 14.0527 10.0488 14.0527ZM2.7832 17.3926L7.88086 12.2949L7.02148 11.4355L1.92383 16.5332ZM17.3145 17.4023L18.1738 16.543L13.0664 11.4355L12.207 12.2949Z" fill="white" fill-opacity="0.85"/>
 </g>
</svg>
