<?xml version="1.0" encoding="UTF-8"?>
<!--Generator: Apple Native CoreSVG 341-->
<!DOCTYPE svg
PUBLIC "-//W3C//DTD SVG 1.1//EN"
       "http://www.w3.org/Graphics/SVG/1.1/DTD/svg11.dtd">
<svg version="1.1" xmlns="http://www.w3.org/2000/svg" xmlns:xlink="http://www.w3.org/1999/xlink" viewBox="0 0 25.8307 23.0274">
 <g>
  <rect height="23.0274" opacity="0" width="25.8307" x="0" y="0"/>
  <path d="M11.1966 1.51858C11.4701 3.29593 11.724 3.66702 13.6087 3.93069C13.7943 3.95999 13.9505 4.10647 13.9505 4.29202C13.9505 4.47757 13.804 4.61429 13.6087 4.65335C11.9815 4.87256 11.65 5.17184 11.3447 6.41932L8.75395 3.81511C10.0121 3.54332 10.1712 3.06315 10.4837 1.50882C10.5228 1.3135 10.6693 1.19632 10.8451 1.19632C11.0208 1.19632 11.1673 1.32327 11.1966 1.51858Z" fill="white" fill-opacity="0.85"/>
  <path d="M7.95444 7.96389L11.273 11.8356L10.3596 12.9279L6.93881 8.94046C6.85092 8.8428 6.72397 8.8428 6.63608 8.94046L1.80209 14.5752C1.7142 14.6924 1.75326 14.8877 1.94858 14.8877L8.72054 14.8877L7.94467 15.8155C7.81197 15.9747 7.70984 16.1355 7.63943 16.294L1.35287 16.294C0.0442799 16.294-0.404939 15.0049 0.405608 14.0479L5.62045 7.96389C6.00131 7.52444 6.35287 7.32913 6.78256 7.32913C7.21225 7.32913 7.57358 7.52444 7.95444 7.96389Z" fill="white" fill-opacity="0.85"/>
  <path d="M12.659 12.3717L9.30209 16.3916C9.20444 16.4991 9.25326 16.7139 9.45834 16.7139L16.9788 16.7139L18.3778 18.1201L8.9017 18.1201C7.58334 18.1201 7.01694 16.9287 7.94467 15.8155L11.6625 11.3699ZM17.681 7.04593L25.015 15.8155C25.9427 16.9287 25.3763 18.1201 24.058 18.1201L22.985 18.1201L21.586 16.7139L23.5013 16.7139C23.7064 16.7139 23.7455 16.4991 23.6576 16.3916L16.6458 7.98343C16.5482 7.876 16.4212 7.876 16.3236 7.98343L14.7615 9.85395L13.7667 8.85388L15.2787 7.04593C15.6497 6.61624 16.0501 6.39163 16.4798 6.39163C16.9193 6.39163 17.3197 6.61624 17.681 7.04593Z" fill="white" fill-opacity="0.85"/>
  <path d="M23.472 21.8799C23.7357 22.1436 24.1654 22.1436 24.4193 21.8799C24.6732 21.6162 24.683 21.1963 24.4193 20.9326L5.64975 2.05569C5.38608 1.79202 4.94662 1.79202 4.68295 2.05569C4.42905 2.3096 4.42905 2.74905 4.68295 3.00296Z" fill="white" fill-opacity="0.85"/>
 </g>
</svg>
