<?xml version="1.0" encoding="UTF-8"?>
<!--Generator: Apple Native CoreSVG 341-->
<!DOCTYPE svg
PUBLIC "-//W3C//DTD SVG 1.1//EN"
       "http://www.w3.org/Graphics/SVG/1.1/DTD/svg11.dtd">
<svg version="1.1" xmlns="http://www.w3.org/2000/svg" xmlns:xlink="http://www.w3.org/1999/xlink" viewBox="0 0 16.1328 15.7715">
 <g>
  <rect height="15.7715" opacity="0" width="16.1328" x="0" y="0"/>
  <path d="M15.7715 7.89062C15.7715 12.2363 12.2363 15.7715 7.88086 15.7715C3.53516 15.7715 0 12.2363 0 7.89062C0 3.54492 3.53516 0.00976562 7.88086 0.00976562C12.2363 0.00976562 15.7715 3.54492 15.7715 7.89062ZM4.04297 4.05273C3.90625 4.19922 3.90625 4.46289 4.04297 4.59961L11.1816 11.7285C11.3281 11.875 11.582 11.875 11.7285 11.7285C11.8848 11.5723 11.8848 11.3281 11.7285 11.1816L4.60938 4.05273C4.45312 3.89648 4.20898 3.89648 4.04297 4.05273ZM5.64453 9.73633C5.22461 10.2246 5.48828 10.7617 6.07422 10.7617L9.3731 10.7617L6.87471 8.26674ZM8.90625 5.83984L8.14477 6.74952L12.1582 10.752C12.1614 10.7551 12.1645 10.7583 12.1671 10.7617L12.8125 10.7617C13.3984 10.7617 13.6328 10.2246 13.2227 9.73633L9.9707 5.83984C9.80469 5.6543 9.62891 5.53711 9.44336 5.53711C9.24805 5.53711 9.0625 5.6543 8.90625 5.83984ZM4.59961 6.25L2.29492 8.95508C1.93359 9.36523 2.13867 9.95117 2.71484 9.95117L4.95117 9.95117C4.99023 9.76562 5.07812 9.57031 5.24414 9.38477L6.49835 7.8909L4.72704 6.12202C4.68477 6.15752 4.64248 6.19998 4.59961 6.25ZM6.76758 3.37891C6.61928 4.13891 6.55016 4.32715 5.82502 4.43613L6.31038 4.92016C6.46459 4.98955 6.56063 5.08637 6.62671 5.23561L7.12044 5.72799C7.27435 5.03013 7.3645 4.88551 8.14453 4.77539C8.25195 4.75586 8.31055 4.69727 8.31055 4.62891C8.31055 4.53125 8.25195 4.46289 8.14453 4.45312C7.31445 4.3457 7.22656 4.16992 7.08984 3.38867C7.07031 3.29102 7.01172 3.23242 6.94336 3.23242C6.8457 3.23242 6.78711 3.29102 6.76758 3.37891Z" fill="white" fill-opacity="0.85"/>
 </g>
</svg>
