<?xml version="1.0" encoding="UTF-8"?>
<!--Generator: Apple Native CoreSVG 341-->
<!DOCTYPE svg
PUBLIC "-//W3C//DTD SVG 1.1//EN"
       "http://www.w3.org/Graphics/SVG/1.1/DTD/svg11.dtd">
<svg version="1.1" xmlns="http://www.w3.org/2000/svg" xmlns:xlink="http://www.w3.org/1999/xlink" viewBox="0 0 15.8515 15.6401">
 <g>
  <rect height="15.6401" opacity="0" width="15.8515" x="0" y="0"/>
  <path d="M0.948226 11.6433L3.85838 14.5437C5.09862 15.7741 6.43651 15.823 7.59862 14.6609L14.9619 7.28782C15.6846 6.57493 15.6748 5.54954 14.9326 4.80735L10.6846 0.569067C9.94237-0.17312 8.92674-0.192651 8.20409 0.530005L0.840804 7.90305C-0.321305 9.06516-0.272477 10.4031 0.948226 11.6433ZM1.94432 10.6472C1.35838 10.0515 1.32909 9.40696 1.88573 8.84055L9.14159 1.58469C9.3076 1.41868 9.54198 1.41868 9.69823 1.57493L13.9267 5.80344C14.083 5.95969 14.0732 6.1843 13.917 6.35032L6.64159 13.6062C6.09471 14.1726 5.45018 14.1433 4.85448 13.5476ZM2.0908 7.58079L7.91112 13.4011L8.77049 12.532L2.97948 6.74094Z" fill="white" fill-opacity="0.85"/>
 </g>
</svg>
