<?xml version="1.0" encoding="UTF-8"?>
<!--Generator: Apple Native CoreSVG 341-->
<!DOCTYPE svg
PUBLIC "-//W3C//DTD SVG 1.1//EN"
       "http://www.w3.org/Graphics/SVG/1.1/DTD/svg11.dtd">
<svg version="1.1" xmlns="http://www.w3.org/2000/svg" xmlns:xlink="http://www.w3.org/1999/xlink" viewBox="0 0 21.2443 17.7345">
 <g>
  <rect height="17.7345" opacity="0" width="21.2443" x="0" y="0"/>
  <path d="M14.4503 15.3663C14.4503 15.7471 14.128 16.0694 13.7471 16.0694L9.6753 16.0694L11.0834 14.6631L13.7471 14.6631C14.128 14.6631 14.4503 14.9756 14.4503 15.3663Z" fill="white" fill-opacity="0.425"/>
  <path d="M19.7432 15.3663C19.7432 15.7471 19.421 16.0694 19.0401 16.0694L16.2178 16.0694C15.837 16.0694 15.5147 15.7471 15.5147 15.3663C15.5147 14.9756 15.837 14.6631 16.2178 14.6631L19.0401 14.6631C19.421 14.6631 19.7432 14.9756 19.7432 15.3663Z" fill="white" fill-opacity="0.425"/>
  <path d="M3.57135 7.44635L10.1241 13.9991L15.9053 8.2276C16.6182 7.50494 16.6085 6.48932 15.8663 5.74713L11.8233 1.70416C11.0909 0.961975 10.0655 0.952209 9.3526 1.67487ZM2.09674 12.7784L4.79205 15.4835C6.02252 16.7042 7.37017 16.753 8.53228 15.5909L9.3233 14.8096L2.77057 8.2569L1.96978 9.03815C0.81744 10.2003 0.866268 11.5479 2.09674 12.7784Z" fill="white" fill-opacity="0.85"/>
 </g>
</svg>
