<svg version="1.1" xmlns="http://www.w3.org/2000/svg" xmlns:xlink="http://www.w3.org/1999/xlink" viewBox="0 0 16.1328 15.7715">
 <g>
  <rect height="15.7715" opacity="0" width="16.1328" x="0" y="0"/>
  <path d="M7.88086 15.7617C12.2363 15.7617 15.7715 12.2363 15.7715 7.88086C15.7715 3.52539 12.2363 0 7.88086 0C7.4707 0 7.13867 0.332031 7.13867 0.742188C7.13867 1.16211 7.4707 1.49414 7.88086 1.49414C11.4062 1.49414 14.2676 4.35547 14.2676 7.88086C14.2676 11.4062 11.4062 14.2676 7.88086 14.2676C4.35547 14.2676 1.50391 11.4062 1.50391 7.88086C1.50391 7.4707 1.16211 7.12891 0.751953 7.12891C0.341797 7.12891 0 7.4707 0 7.88086C0 12.2363 3.53516 15.7617 7.88086 15.7617Z" fill="var(--color-secondary)"/>
  <path d="M7.7832 8.0957C8.0957 7.83203 8.19336 7.32422 7.79297 6.92383L3.99414 3.125L2.35352 1.68945C2.09961 1.46484 1.72852 1.45508 1.49414 1.68945C1.25977 1.93359 1.2793 2.29492 1.49414 2.53906L2.91992 4.19922L6.70898 8.01758C7.08984 8.37891 7.50977 8.33008 7.7832 8.0957ZM0.986328 5.44922C1.37695 5.44922 1.71875 5.13672 1.68945 4.73633L1.57227 2.5L2.28516 1.75781L4.54102 1.9043C4.95117 1.93359 5.25391 1.5918 5.26367 1.20117C5.26367 0.791016 4.95117 0.488281 4.55078 0.478516L1.17188 0.478516C0.595703 0.478516 0.273438 0.791016 0.273438 1.38672L0.273438 4.74609C0.283203 5.13672 0.605469 5.44922 0.986328 5.44922Z" fill="var(--color-primary)"/>
 </g>
</svg>
