<?xml version="1.0" encoding="UTF-8"?>
<!--Generator: Apple Native CoreSVG 341-->
<!DOCTYPE svg
PUBLIC "-//W3C//DTD SVG 1.1//EN"
       "http://www.w3.org/Graphics/SVG/1.1/DTD/svg11.dtd">
<svg version="1.1" xmlns="http://www.w3.org/2000/svg" xmlns:xlink="http://www.w3.org/1999/xlink" viewBox="0 0 14.5898 14.248">
 <g>
  <rect height="14.248" opacity="0" width="14.5898" x="0" y="0"/>
  <path d="M2.49023 14.248L11.7383 14.248C13.4082 14.248 14.2285 13.4277 14.2285 11.7871L14.2285 2.4707C14.2285 0.830078 13.4082 0.00976562 11.7383 0.00976562L2.49023 0.00976562C0.830078 0.00976562 0 0.830078 0 2.4707L0 11.7871C0 13.4277 0.830078 14.248 2.49023 14.248ZM2.50977 12.832C1.80664 12.832 1.40625 12.4512 1.40625 11.7188L1.40625 2.53906C1.40625 1.79688 1.80664 1.42578 2.50977 1.42578L11.7188 1.42578C12.4219 1.42578 12.8223 1.79688 12.8223 2.53906L12.8223 11.7188C12.8223 12.4512 12.4219 12.832 11.7188 12.832Z" fill="white" fill-opacity="0.85"/>
  <path d="M8.05664 10.5273C8.27148 10.5273 8.53516 10.5176 8.75977 10.4688C9.01367 10.4004 9.21875 10.2734 9.21875 10.0195C9.21875 9.74609 9.0332 9.61914 8.75977 9.61914C8.47656 9.61914 8.39844 9.64844 8.10547 9.64844C6.48438 9.64844 5.47852 8.75 5.47852 7.08008C5.47852 5.44922 6.41602 4.50195 8.07617 4.50195C8.34961 4.50195 8.58398 4.53125 8.75977 4.53125C9.0332 4.53125 9.21875 4.39453 9.21875 4.12109C9.21875 3.89648 9.07227 3.74023 8.75977 3.67188C8.57422 3.63281 8.33984 3.61328 8.05664 3.61328C6.13281 3.61328 4.45312 4.67773 4.45312 7.07031C4.45312 9.30664 5.9375 10.5273 8.05664 10.5273ZM3.42773 6.36719C3.42773 6.51367 3.55469 6.64062 3.71094 6.64062L7.98828 6.64062C8.14453 6.64062 8.26172 6.51367 8.26172 6.36719C8.26172 6.21094 8.14453 6.08398 7.98828 6.08398L3.71094 6.08398C3.55469 6.08398 3.42773 6.21094 3.42773 6.36719ZM3.42773 7.76367C3.42773 7.91016 3.55469 8.03711 3.71094 8.03711L7.98828 8.03711C8.14453 8.03711 8.26172 7.91016 8.26172 7.76367C8.26172 7.60742 8.14453 7.49023 7.98828 7.49023L3.71094 7.49023C3.55469 7.49023 3.42773 7.60742 3.42773 7.76367Z" fill="white" fill-opacity="0.85"/>
 </g>
</svg>
