<?xml version="1.0" encoding="UTF-8"?>
<!--Generator: Apple Native CoreSVG 341-->
<!DOCTYPE svg
PUBLIC "-//W3C//DTD SVG 1.1//EN"
       "http://www.w3.org/Graphics/SVG/1.1/DTD/svg11.dtd">
<svg version="1.1" xmlns="http://www.w3.org/2000/svg" xmlns:xlink="http://www.w3.org/1999/xlink" viewBox="0 0 18.9844 15.498">
 <g>
  <rect height="15.498" opacity="0" width="18.9844" x="0" y="0"/>
  <path d="M18.623 9.30664C18.623 7.03125 17.8125 4.94141 16.4453 3.31055C16.2891 3.125 16.0352 3.125 15.8594 3.30078L14.0332 5.13672C13.8867 5.2832 13.8867 5.48828 14.0137 5.6543C14.8047 6.66016 15.2734 7.92969 15.2734 9.30664C15.2734 10.6836 14.8047 11.9531 13.9551 13.0371C13.8574 13.1641 13.8672 13.3203 13.9746 13.4277L15.8594 15.3125C16.0352 15.4883 16.2891 15.4883 16.4453 15.3027C17.8125 13.6816 18.623 11.5918 18.623 9.30664Z" fill="white" fill-opacity="0.425"/>
  <path d="M9.31641 3.34961C10.7031 3.34961 11.9727 3.82812 12.9883 4.61914C13.1445 4.73633 13.3398 4.72656 13.4863 4.58008L15.3223 2.75391C15.498 2.57812 15.4883 2.32422 15.3027 2.16797C13.6816 0.810547 11.5918 0 9.31641 0C7.04102 0 4.94141 0.810547 3.33008 2.16797C3.14453 2.32422 3.13477 2.57812 3.31055 2.75391L5.13672 4.58008C5.2832 4.72656 5.48828 4.73633 5.6543 4.60938C6.66992 3.82812 7.93945 3.34961 9.31641 3.34961Z" fill="white" fill-opacity="0.425"/>
  <path d="M0 9.30664C0 11.5918 0.820312 13.6816 2.17773 15.3027C2.33398 15.4883 2.58789 15.4883 2.76367 15.3125L4.64844 13.4277C4.76562 13.3203 4.77539 13.1641 4.66797 13.0371C3.82812 11.9531 3.35938 10.6836 3.35938 9.30664C3.35938 7.92969 3.82812 6.66016 4.61914 5.6543C4.74609 5.48828 4.74609 5.2832 4.59961 5.13672L2.76367 3.30078C2.58789 3.125 2.33398 3.125 2.17773 3.31055C0.820312 4.94141 0 7.03125 0 9.30664Z" fill="white" fill-opacity="0.425"/>
  <path d="M6.12305 12.2949L8.36914 12.2949C8.62305 12.2949 8.78906 12.1484 8.78906 11.9043C8.78906 11.6504 8.62305 11.5039 8.36914 11.5039L6.58203 11.5039L6.58203 9.73633L8.29102 9.73633C8.52539 9.73633 8.67188 9.58008 8.67188 9.35547C8.67188 9.13086 8.52539 8.98438 8.29102 8.98438L6.58203 8.98438L6.58203 7.30469L8.36914 7.30469C8.62305 7.30469 8.78906 7.16797 8.78906 6.91406C8.78906 6.66016 8.62305 6.52344 8.36914 6.52344L6.12305 6.52344C5.83008 6.52344 5.66406 6.70898 5.66406 6.99219L5.66406 11.8164C5.66406 12.1191 5.82031 12.2949 6.12305 12.2949ZM10.0586 12.2949L12.8223 12.2949C13.0566 12.2949 13.2031 12.1289 13.2031 11.9043C13.2031 11.6699 13.0566 11.5039 12.8223 11.5039L10.6641 11.5039L10.6641 11.4648L12.998 7.36328C13.0664 7.23633 13.125 7.12891 13.125 6.96289C13.125 6.73828 12.9785 6.52344 12.6562 6.52344L10.0293 6.52344C9.78516 6.52344 9.60938 6.66992 9.60938 6.91406C9.60938 7.1582 9.78516 7.30469 10.0293 7.30469L12.0898 7.30469L12.0898 7.34375L9.7168 11.4648C9.64844 11.5918 9.59961 11.709 9.59961 11.8555C9.59961 12.1387 9.81445 12.2949 10.0586 12.2949Z" fill="white" fill-opacity="0.85"/>
 </g>
</svg>
