<?xml version="1.0" encoding="UTF-8"?>
<!--Generator: Apple Native CoreSVG 341-->
<!DOCTYPE svg
PUBLIC "-//W3C//DTD SVG 1.1//EN"
       "http://www.w3.org/Graphics/SVG/1.1/DTD/svg11.dtd">
<svg version="1.1" xmlns="http://www.w3.org/2000/svg" xmlns:xlink="http://www.w3.org/1999/xlink" viewBox="0 0 18.9844 15.4424">
 <g>
  <rect height="15.4424" opacity="0" width="18.9844" x="0" y="0"/>
  <path d="M18.623 9.27882C18.623 4.40578 14.8926 0.411637 10.127 0.00148111C9.88281-0.0180501 9.69727 0.157731 9.69727 0.401872L9.69727 2.98C9.69727 3.18507 9.84375 3.34132 10.0488 3.36086C12.9883 3.73195 15.2734 6.24172 15.2734 9.27882C15.2734 10.6558 14.8047 11.9253 13.9551 13.0093C13.8574 13.1362 13.8672 13.2925 13.9746 13.3999L15.8594 15.2847C16.0352 15.4605 16.2891 15.4605 16.4453 15.2749C17.8125 13.6538 18.623 11.564 18.623 9.27882Z" fill="white" fill-opacity="0.85"/>
  <path d="M0 9.27882C0 11.564 0.820312 13.6538 2.17773 15.2749C2.33398 15.4605 2.58789 15.4605 2.76367 15.2847L4.64844 13.3999C4.76562 13.2925 4.77539 13.1362 4.66797 13.0093C3.82812 11.9253 3.35938 10.6558 3.35938 9.27882C3.35938 6.24172 5.63477 3.73195 8.57422 3.36086C8.7793 3.34132 8.92578 3.18507 8.92578 2.98L8.92578 0.401872C8.92578 0.157731 8.74023-0.0180501 8.49609 0.00148111C3.74023 0.411637 0 4.40578 0 9.27882Z" fill="white" fill-opacity="0.85"/>
  <path d="M6.12305 12.2671L8.36914 12.2671C8.62305 12.2671 8.78906 12.1206 8.78906 11.8765C8.78906 11.6226 8.62305 11.4761 8.36914 11.4761L6.58203 11.4761L6.58203 9.70851L8.29102 9.70851C8.52539 9.70851 8.67188 9.55226 8.67188 9.32765C8.67188 9.10304 8.52539 8.95656 8.29102 8.95656L6.58203 8.95656L6.58203 7.27687L8.36914 7.27687C8.62305 7.27687 8.78906 7.14015 8.78906 6.88625C8.78906 6.63234 8.62305 6.49562 8.36914 6.49562L6.12305 6.49562C5.83008 6.49562 5.66406 6.68117 5.66406 6.96437L5.66406 11.7886C5.66406 12.0913 5.82031 12.2671 6.12305 12.2671ZM10.0586 12.2671L12.8223 12.2671C13.0566 12.2671 13.2031 12.1011 13.2031 11.8765C13.2031 11.6421 13.0566 11.4761 12.8223 11.4761L10.6641 11.4761L10.6641 11.437L12.998 7.33547C13.0664 7.20851 13.125 7.10109 13.125 6.93507C13.125 6.71047 12.9785 6.49562 12.6562 6.49562L10.0293 6.49562C9.78516 6.49562 9.60938 6.64211 9.60938 6.88625C9.60938 7.13039 9.78516 7.27687 10.0293 7.27687L12.0898 7.27687L12.0898 7.31593L9.7168 11.437C9.64844 11.564 9.59961 11.6812 9.59961 11.8277C9.59961 12.1109 9.81445 12.2671 10.0586 12.2671Z" fill="white" fill-opacity="0.85"/>
 </g>
</svg>
