<?xml version="1.0" encoding="UTF-8"?>
<!--Generator: Apple Native CoreSVG 341-->
<!DOCTYPE svg
PUBLIC "-//W3C//DTD SVG 1.1//EN"
       "http://www.w3.org/Graphics/SVG/1.1/DTD/svg11.dtd">
<svg version="1.1" xmlns="http://www.w3.org/2000/svg" xmlns:xlink="http://www.w3.org/1999/xlink" viewBox="0 0 14.5898 14.248">
 <g>
  <rect height="14.248" opacity="0" width="14.5898" x="0" y="0"/>
  <path d="M2.49023 14.248L11.7383 14.248C13.4082 14.248 14.2285 13.4277 14.2285 11.7871L14.2285 2.4707C14.2285 0.830078 13.4082 0.00976562 11.7383 0.00976562L2.49023 0.00976562C0.830078 0.00976562 0 0.830078 0 2.4707L0 11.7871C0 13.4277 0.830078 14.248 2.49023 14.248Z" fill="white" fill-opacity="0.2125"/>
  <path d="M8.11523 10.6543C6.25977 10.6543 4.88281 9.75586 4.49219 8.07617L3.60352 8.07617C3.45703 8.07617 3.32031 7.93945 3.32031 7.79297C3.32031 7.62695 3.45703 7.50977 3.60352 7.50977L4.39453 7.50977C4.38477 7.36328 4.375 7.2168 4.375 7.07031C4.375 6.91406 4.38477 6.76758 4.39453 6.62109L3.60352 6.62109C3.45703 6.62109 3.32031 6.49414 3.32031 6.33789C3.32031 6.17188 3.45703 6.05469 3.60352 6.05469L4.49219 6.05469C4.90234 4.28711 6.42578 3.48633 8.11523 3.48633C8.41797 3.48633 8.66211 3.49609 8.84766 3.53516C9.16992 3.61328 9.32617 3.7793 9.32617 4.01367C9.32617 4.29688 9.14062 4.43359 8.85742 4.43359C8.67188 4.43359 8.41797 4.4043 8.14453 4.4043C6.80664 4.4043 5.91797 4.99023 5.58594 6.05469L8.05664 6.05469C8.20312 6.05469 8.33984 6.17188 8.33984 6.33789C8.33984 6.49414 8.20312 6.62109 8.05664 6.62109L5.46875 6.62109C5.44922 6.76758 5.44922 6.92383 5.44922 7.08008C5.44922 7.22656 5.44922 7.36328 5.46875 7.50977L8.05664 7.50977C8.20312 7.50977 8.33984 7.62695 8.33984 7.79297C8.33984 7.93945 8.20312 8.07617 8.05664 8.07617L5.57617 8.07617C5.91797 9.16992 6.85547 9.75586 8.17383 9.75586C8.48633 9.75586 8.56445 9.7168 8.85742 9.7168C9.14062 9.7168 9.32617 9.85352 9.32617 10.1367C9.32617 10.4004 9.12109 10.5273 8.84766 10.5957C8.62305 10.6445 8.34961 10.6543 8.11523 10.6543Z" fill="white" fill-opacity="0.85"/>
 </g>
</svg>
