<?xml version="1.0" encoding="UTF-8"?>
<!--Generator: Apple Native CoreSVG 341-->
<!DOCTYPE svg
PUBLIC "-//W3C//DTD SVG 1.1//EN"
       "http://www.w3.org/Graphics/SVG/1.1/DTD/svg11.dtd">
<svg version="1.1" xmlns="http://www.w3.org/2000/svg" xmlns:xlink="http://www.w3.org/1999/xlink" viewBox="0 0 22.4512 17.2363">
 <g>
  <rect height="17.2363" opacity="0" width="22.4512" x="0" y="0"/>
  <path d="M11.4648 16.5918L11.4648 1.95312C11.4648 0.683594 10.7715 0 9.51172 0L3.22266 0C1.95312 0 1.28906 0.693359 1.28906 1.95312L1.28906 16.5918ZM3.55469 6.97266C2.98828 6.97266 2.65625 6.66016 2.65625 6.15234L2.65625 2.19727C2.65625 1.67969 2.98828 1.36719 3.55469 1.36719L9.17969 1.36719C9.74609 1.36719 10.0879 1.67969 10.0879 2.19727L10.0879 6.15234C10.0879 6.66016 9.74609 6.97266 9.17969 6.97266ZM0 16.5137C0 16.9043 0.3125 17.2266 0.693359 17.2266L12.041 17.2266C12.4219 17.2266 12.7441 16.9043 12.7441 16.5137C12.7441 16.1426 12.4219 15.8203 12.041 15.8203L0.693359 15.8203C0.322266 15.8203 0 16.1328 0 16.5137ZM15.5762 7.65625L15.5762 12.6758C15.5762 13.7012 15.1465 14.2871 14.375 14.2871C13.6914 14.2871 13.252 13.8477 13.252 13.1348C13.252 11.9727 13.4375 10.4688 13.4375 9.08203C13.4375 7.69531 12.7734 6.65039 11.0449 6.09375L10.625 7.04102C11.9141 7.41211 12.4023 8.16406 12.4023 9.08203C12.4023 10.3125 12.2168 11.8262 12.2168 13.1348C12.2168 14.4727 13.0469 15.3223 14.375 15.3223C15.8008 15.3223 16.6211 14.3652 16.6211 12.6758L16.6211 7.65625C16.6211 6.98242 17.1484 6.80664 17.4512 6.57227C17.9688 6.19141 18.2129 5.63477 18.2129 5.03906L18.2129 4.01367C18.2129 3.85742 18.1152 3.75977 17.9785 3.75977L17.5 3.75977L17.5 2.36328C17.5 2.12891 17.3047 1.94336 17.0703 1.94336C16.8555 1.94336 16.6504 2.12891 16.6504 2.36328L16.6504 3.75977L15.6348 3.75977L15.6348 2.36328C15.6348 2.12891 15.459 1.94336 15.2246 1.94336C14.9902 1.94336 14.8047 2.12891 14.8047 2.36328L14.8047 3.75977L14.2188 3.75977C14.0723 3.75977 13.9746 3.85742 13.9746 4.01367L13.9746 5.03906C13.9746 5.63477 14.2285 6.19141 14.7363 6.57227C15.0488 6.80664 15.5762 6.98242 15.5762 7.65625Z" fill="white" fill-opacity="0.85"/>
  <path d="M20.9863 13.8867C21.582 13.8867 22.0898 13.3984 22.0898 12.832C22.0898 12.2461 21.5918 11.7773 20.9863 11.7773C20.3809 11.7773 19.8828 12.2461 19.8828 12.832C19.8828 13.3984 20.3906 13.8867 20.9863 13.8867ZM20.9863 10.4004C21.416 10.4004 21.7188 10.0977 21.7383 9.64844L21.9238 4.26758C21.9434 3.71094 21.5625 3.33008 20.9863 3.33008C20.4004 3.33008 20.0293 3.71094 20.0488 4.26758L20.2344 9.64844C20.2539 10.0977 20.5566 10.4004 20.9863 10.4004Z" fill="white" fill-opacity="0.85"/>
 </g>
</svg>
