<?xml version="1.0" encoding="UTF-8"?>
<!--Generator: Apple Native CoreSVG 341-->
<!DOCTYPE svg
PUBLIC "-//W3C//DTD SVG 1.1//EN"
       "http://www.w3.org/Graphics/SVG/1.1/DTD/svg11.dtd">
<svg version="1.1" xmlns="http://www.w3.org/2000/svg" xmlns:xlink="http://www.w3.org/1999/xlink" viewBox="0 0 21.2598 21.2427">
 <g>
  <rect height="21.2427" opacity="0" width="21.2598" x="0" y="0"/>
  <path d="M14.043 17.6904L14.043 17.8235L14.1762 17.8235L15.2258 18.8719C15.1031 19.0851 14.8743 19.2297 14.6191 19.2297L3.27148 19.2297C2.89062 19.2297 2.57812 18.9075 2.57812 18.5169C2.57812 18.136 2.90039 17.8235 3.27148 17.8235L3.86719 17.8235L3.86719 7.52654ZM20.0781 4.36646L20.0781 5.76295L20.5566 5.76295C20.6934 5.76295 20.791 5.8606 20.791 6.01685L20.791 7.04224C20.791 7.63795 20.5469 8.19459 20.0293 8.57545C19.7266 8.80982 19.1992 8.9856 19.1992 9.65943L19.1992 14.679C19.1992 15.8721 18.7901 16.6999 18.0459 17.0811L17.2271 16.2629C17.8257 16.1364 18.1543 15.5757 18.1543 14.679L18.1543 9.65943C18.1543 8.9856 17.627 8.80982 17.3145 8.57545C16.8066 8.19459 16.5527 7.63795 16.5527 7.04224L16.5527 6.01685C16.5527 5.8606 16.6504 5.76295 16.7969 5.76295L17.3828 5.76295L17.3828 4.36646C17.3828 4.13209 17.5684 3.94654 17.8027 3.94654C18.0371 3.94654 18.2129 4.13209 18.2129 4.36646L18.2129 5.76295L19.2285 5.76295L19.2285 4.36646C19.2285 4.13209 19.4336 3.94654 19.6484 3.94654C19.8828 3.94654 20.0781 4.13209 20.0781 4.36646ZM14.043 3.95631L14.043 8.25266C15.4609 8.8359 16.0156 9.8178 16.0156 11.0852C16.0156 12.3694 15.8565 13.7542 15.8348 14.8713L14.8382 13.8753C14.8922 12.9178 14.9805 11.9341 14.9805 11.0852C14.9805 10.4032 14.711 9.81287 14.043 9.40262L14.043 13.0806L9.93584 8.97584L11.7578 8.97584C12.3242 8.97584 12.666 8.66334 12.666 8.15552L12.666 4.20045C12.666 3.68287 12.3242 3.37037 11.7578 3.37037L6.13281 3.37037C5.56641 3.37037 5.23438 3.68287 5.23438 4.20045L5.23438 4.27713L4.01502 3.05849C4.27307 2.37075 4.87644 2.00318 5.80078 2.00318L12.0898 2.00318C13.3496 2.00318 14.043 2.68677 14.043 3.95631Z" fill="white" fill-opacity="0.85"/>
  <path d="M17.8027 20.0891C18.0762 20.3528 18.4961 20.3528 18.75 20.0891C19.0039 19.8254 19.0234 19.3958 18.75 19.1321L2.10938 2.51099C1.8457 2.24732 1.41602 2.24732 1.15234 2.51099C0.898438 2.7649 0.898438 3.20435 1.15234 3.45826Z" fill="white" fill-opacity="0.85"/>
 </g>
</svg>
