<?xml version="1.0" encoding="UTF-8"?>
<!--Generator: Apple Native CoreSVG 341-->
<!DOCTYPE svg
PUBLIC "-//W3C//DTD SVG 1.1//EN"
       "http://www.w3.org/Graphics/SVG/1.1/DTD/svg11.dtd">
<svg version="1.1" xmlns="http://www.w3.org/2000/svg" xmlns:xlink="http://www.w3.org/1999/xlink" viewBox="0 0 16.1328 15.7715">
 <g>
  <rect height="15.7715" opacity="0" width="16.1328" x="0" y="0"/>
  <path d="M7.88086 15.7617C12.2363 15.7617 15.7715 12.2363 15.7715 7.88086C15.7715 3.52539 12.2363 0 7.88086 0C3.53516 0 0 3.52539 0 7.88086C0 12.2363 3.53516 15.7617 7.88086 15.7617ZM7.88086 14.2773C4.3457 14.2773 1.49414 11.416 1.49414 7.88086C1.49414 4.3457 4.3457 1.48438 7.88086 1.48438C11.416 1.48438 14.2773 4.3457 14.2773 7.88086C14.2773 11.416 11.416 14.2773 7.88086 14.2773Z" fill="white" fill-opacity="0.425"/>
  <path d="M5.18555 7.27539C6.13281 7.27539 6.89453 6.51367 6.89453 5.56641C6.89453 4.61914 6.13281 3.85742 5.18555 3.85742C4.23828 3.85742 3.4668 4.61914 3.4668 5.56641C3.4668 6.51367 4.23828 7.27539 5.18555 7.27539ZM10.5664 7.27539C11.5137 7.27539 12.2754 6.51367 12.2754 5.56641C12.2754 4.61914 11.5137 3.85742 10.5664 3.85742C9.61914 3.85742 8.85742 4.61914 8.85742 5.56641C8.85742 6.51367 9.61914 7.27539 10.5664 7.27539ZM7.87109 13.3984C8.82812 13.3984 9.58984 12.6367 9.58984 11.6895C9.58984 10.7422 8.82812 9.9707 7.87109 9.9707C6.92383 9.9707 6.16211 10.7422 6.16211 11.6895C6.16211 12.6367 6.92383 13.3984 7.87109 13.3984ZM4.04297 10.9863C4.72656 10.9863 5.27344 10.4297 5.27344 9.75586C5.27344 9.08203 4.72656 8.53516 4.04297 8.53516C3.36914 8.53516 2.82227 9.08203 2.82227 9.75586C2.82227 10.4297 3.36914 10.9863 4.04297 10.9863ZM11.6992 10.9863C12.3828 10.9863 12.9297 10.4297 12.9297 9.75586C12.9297 9.08203 12.3828 8.53516 11.6992 8.53516C11.0254 8.53516 10.4785 9.08203 10.4785 9.75586C10.4785 10.4297 11.0254 10.9863 11.6992 10.9863Z" fill="white" fill-opacity="0.85"/>
 </g>
</svg>
