<?xml version="1.0" encoding="UTF-8"?>
<!--Generator: Apple Native CoreSVG 341-->
<!DOCTYPE svg
PUBLIC "-//W3C//DTD SVG 1.1//EN"
       "http://www.w3.org/Graphics/SVG/1.1/DTD/svg11.dtd">
<svg version="1.1" xmlns="http://www.w3.org/2000/svg" xmlns:xlink="http://www.w3.org/1999/xlink" viewBox="0 0 17.8711 16.709">
 <g>
  <rect height="16.709" opacity="0" width="17.8711" x="0" y="0"/>
  <path d="M8.75977 16.6992C13.5938 16.6992 17.5098 12.7832 17.5098 7.94922C17.5098 4.6582 15.7031 1.79688 13.1543 0.371094C12.6953 0.126953 12.2266 0 11.7188 0L5.80078 0C5.2832 0 4.81445 0.126953 4.35547 0.371094C1.80664 1.79688 0 4.6582 0 7.94922C0 12.7832 3.92578 16.6992 8.75977 16.6992Z" fill="white" fill-opacity="0.2125"/>
  <path d="M6.21094 4.72656C5.625 4.72656 5.14648 4.24805 5.14648 3.66211C5.14648 3.07617 5.625 2.59766 6.21094 2.59766C6.79688 2.59766 7.27539 3.07617 7.27539 3.66211C7.27539 4.24805 6.79688 4.72656 6.21094 4.72656ZM8.75977 4.72656C8.17383 4.72656 7.69531 4.24805 7.69531 3.66211C7.69531 3.07617 8.17383 2.59766 8.75977 2.59766C9.3457 2.59766 9.82422 3.07617 9.82422 3.66211C9.82422 4.24805 9.3457 4.72656 8.75977 4.72656ZM11.2988 4.72656C10.7129 4.72656 10.2344 4.24805 10.2344 3.66211C10.2344 3.07617 10.7129 2.59766 11.2988 2.59766C11.8848 2.59766 12.3633 3.07617 12.3633 3.66211C12.3633 4.24805 11.8848 4.72656 11.2988 4.72656ZM8.75977 7.27539C8.17383 7.27539 7.69531 6.79688 7.69531 6.21094C7.69531 5.625 8.17383 5.14648 8.75977 5.14648C9.3457 5.14648 9.82422 5.625 9.82422 6.21094C9.82422 6.79688 9.3457 7.27539 8.75977 7.27539ZM4.85352 10.2734C3.56445 10.2734 2.50977 9.22852 2.50977 7.93945C2.50977 6.65039 3.56445 5.60547 4.85352 5.60547C6.14258 5.60547 7.1875 6.65039 7.1875 7.93945C7.1875 9.22852 6.14258 10.2734 4.85352 10.2734ZM12.6562 10.2734C11.3672 10.2734 10.3223 9.22852 10.3223 7.93945C10.3223 6.65039 11.3672 5.60547 12.6562 5.60547C13.9453 5.60547 15 6.65039 15 7.93945C15 9.22852 13.9453 10.2734 12.6562 10.2734ZM5.43945 13.1934C4.91211 13.1934 4.47266 12.7539 4.47266 12.2266C4.47266 11.6992 4.91211 11.2598 5.43945 11.2598C5.97656 11.2598 6.41602 11.6992 6.41602 12.2266C6.41602 12.7539 5.97656 13.1934 5.43945 13.1934ZM8.75977 13.8574C7.86133 13.8574 7.11914 13.1152 7.11914 12.2266C7.11914 11.3281 7.86133 10.5859 8.75977 10.5859C9.6582 10.5859 10.3906 11.3281 10.3906 12.2266C10.3906 13.1152 9.6582 13.8574 8.75977 13.8574ZM12.0703 13.1934C11.543 13.1934 11.1035 12.7539 11.1035 12.2266C11.1035 11.6992 11.543 11.2598 12.0703 11.2598C12.5977 11.2598 13.0371 11.6992 13.0371 12.2266C13.0371 12.7539 12.5977 13.1934 12.0703 13.1934Z" fill="white" fill-opacity="0.85"/>
 </g>
</svg>
