<?xml version="1.0" encoding="UTF-8"?>
<!--Generator: Apple Native CoreSVG 341-->
<!DOCTYPE svg
PUBLIC "-//W3C//DTD SVG 1.1//EN"
       "http://www.w3.org/Graphics/SVG/1.1/DTD/svg11.dtd">
<svg version="1.1" xmlns="http://www.w3.org/2000/svg" xmlns:xlink="http://www.w3.org/1999/xlink" viewBox="0 0 22.7441 15.0879">
 <g>
  <rect height="15.0879" opacity="0" width="22.7441" x="0" y="0"/>
  <path d="M0 7.53906C0 9.99023 0.78125 12.2461 2.11914 14.1016C2.39258 14.4727 2.86133 14.5117 3.20312 14.2285C3.52539 13.9648 3.56445 13.5352 3.32031 13.1934C2.16797 11.6016 1.50391 9.63867 1.50391 7.53906C1.50391 5.42969 2.16797 3.47656 3.32031 1.875C3.56445 1.54297 3.53516 1.11328 3.20312 0.839844C2.86133 0.556641 2.39258 0.605469 2.11914 0.976562C0.78125 2.82227 0 5.08789 0 7.53906ZM22.3828 7.53906C22.3828 5.08789 21.6016 2.82227 20.2637 0.976562C19.9902 0.605469 19.5215 0.556641 19.1797 0.839844C18.8477 1.11328 18.8184 1.54297 19.0625 1.875C20.2148 3.47656 20.8789 5.42969 20.8789 7.53906C20.8789 9.63867 20.2148 11.6016 19.0625 13.1934C18.8184 13.5352 18.8574 13.9648 19.1797 14.2285C19.5215 14.5117 19.9902 14.4727 20.2637 14.1016C21.6016 12.2461 22.3828 9.99023 22.3828 7.53906Z" fill="white" fill-opacity="0.85"/>
  <path d="M11.1914 15.0781C15.3613 15.0781 18.7305 11.709 18.7305 7.53906C18.7305 3.36914 15.3613 0 11.1914 0C7.03125 0 3.65234 3.36914 3.65234 7.53906C3.65234 11.709 7.03125 15.0781 11.1914 15.0781ZM11.1914 13.5938C7.85156 13.5938 5.13672 10.8789 5.13672 7.53906C5.13672 4.19922 7.85156 1.48438 11.1914 1.48438C14.5312 1.48438 17.2461 4.19922 17.2461 7.53906C17.2461 10.8789 14.5312 13.5938 11.1914 13.5938Z" fill="white" fill-opacity="0.85"/>
  <path d="M11.1914 8.92578C11.6016 8.92578 11.8457 8.69141 11.8555 8.25195L11.9727 4.24805C11.9824 3.80859 11.6309 3.48633 11.1816 3.48633C10.7227 3.48633 10.3906 3.79883 10.4004 4.23828L10.5176 8.25195C10.5176 8.69141 10.7617 8.92578 11.1914 8.92578ZM11.1914 11.4844C11.6699 11.4844 12.0898 11.1035 12.0898 10.625C12.0898 10.1367 11.6797 9.76562 11.1914 9.76562C10.7031 9.76562 10.293 10.1465 10.293 10.625C10.293 11.0938 10.7129 11.4844 11.1914 11.4844Z" fill="white" fill-opacity="0.85"/>
 </g>
</svg>
