<svg version="1.1" xmlns="http://www.w3.org/2000/svg" xmlns:xlink="http://www.w3.org/1999/xlink" viewBox="0 0 19.1355 15.7715">
 <g>
  <rect height="15.7715" opacity="0" width="19.1355" x="0" y="0"/>
  <path d="M18.1712 6.40625L14.6068 6.40625C14.0013 6.40625 13.8548 6.82617 14.1771 7.28516L15.9154 9.76562C16.1791 10.1465 16.5892 10.1562 16.8627 9.76562L18.6009 7.29492C18.933 6.82617 18.7767 6.40625 18.1712 6.40625ZM9.38219 1.48438C12.9173 1.48438 15.7787 4.3457 15.7787 7.88086C15.7787 8.28125 16.1205 8.62305 16.5306 8.62305C16.931 8.62305 17.263 8.29102 17.2728 7.89062C17.263 3.51562 13.7377 0 9.38219 0C7.06773 0 4.97789 0.996094 3.54234 2.58789C3.17125 2.99805 3.30797 3.50586 3.63023 3.75C3.91344 3.94531 4.2943 3.97461 4.65562 3.57422C5.8275 2.29492 7.50719 1.48438 9.38219 1.48438ZM0.602889 9.35547L4.15758 9.35547C4.76305 9.35547 4.9193 8.93555 4.59703 8.47656L2.85875 5.99609C2.59508 5.61523 2.18492 5.60547 1.91148 5.99609L0.173202 8.4668C-0.158829 8.93555-0.0123451 9.35547 0.602889 9.35547ZM9.38219 14.2773C5.84703 14.2773 2.99547 11.416 2.99547 7.88086C2.99547 7.48047 2.65367 7.13867 2.24351 7.13867C1.84312 7.13867 1.51109 7.4707 1.50133 7.87109C1.51109 12.2461 5.03648 15.7617 9.38219 15.7617C11.7064 15.7617 13.7865 14.7656 15.2318 13.1738C15.5931 12.7637 15.4662 12.2559 15.1341 12.0117C14.8607 11.8164 14.4798 11.7871 14.1185 12.1875C12.9466 13.4668 11.2572 14.2773 9.38219 14.2773Z" fill="var(--color-secondary)"/>
  <path d="M9.38219 9.26758C9.80211 9.26758 10.0365 9.0332 10.0462 8.59375L10.1634 4.58984C10.1732 4.15039 9.8314 3.82812 9.37242 3.82812C8.91344 3.82812 8.5814 4.14062 8.59117 4.58008L8.70836 8.59375C8.71812 9.0332 8.9525 9.26758 9.38219 9.26758ZM9.38219 11.8262C9.8607 11.8262 10.2806 11.4453 10.2806 10.9668C10.2806 10.4785 9.87047 10.1074 9.38219 10.1074C8.90367 10.1074 8.49351 10.4883 8.49351 10.9668C8.49351 11.4355 8.90367 11.8262 9.38219 11.8262Z" fill="var(--color-primary)"/>
 </g>
</svg>
