<svg version="1.1" xmlns="http://www.w3.org/2000/svg" xmlns:xlink="http://www.w3.org/1999/xlink" viewBox="0 0 16.1328 15.7715">
 <g>
  <rect height="15.7715" opacity="0" width="16.1328" x="0" y="0"/>
  <path d="M7.88086 15.7617C12.2363 15.7617 15.7715 12.2363 15.7715 7.88086C15.7715 3.52539 12.2363 0 7.88086 0C3.53516 0 0 3.52539 0 7.88086C0 12.2363 3.53516 15.7617 7.88086 15.7617ZM7.88086 14.2773C4.3457 14.2773 1.49414 11.416 1.49414 7.88086C1.49414 4.3457 4.3457 1.48438 7.88086 1.48438C11.416 1.48438 14.2773 4.3457 14.2773 7.88086C14.2773 11.416 11.416 14.2773 7.88086 14.2773Z" fill="var(--color-secondary)"/>
  <path d="M6.19141 11.3965C6.65039 11.3965 6.89453 11.1035 6.89453 10.6152L6.89453 8.37891L9.57031 8.37891C9.90234 8.37891 10.1465 8.20312 10.1465 7.85156C10.1465 7.5 9.90234 7.30469 9.57031 7.30469L6.89453 7.30469L6.89453 5.41016L9.87305 5.41016C10.2051 5.41016 10.4492 5.19531 10.4492 4.84375C10.4492 4.49219 10.2051 4.27734 9.87305 4.27734L6.19141 4.27734C5.74219 4.27734 5.50781 4.59961 5.50781 5.06836L5.50781 10.6152C5.50781 11.084 5.74219 11.3965 6.19141 11.3965Z" fill="var(--color-primary)"/>
 </g>
</svg>
