<?xml version="1.0" encoding="UTF-8"?>
<!--Generator: Apple Native CoreSVG 341-->
<!DOCTYPE svg
PUBLIC "-//W3C//DTD SVG 1.1//EN"
       "http://www.w3.org/Graphics/SVG/1.1/DTD/svg11.dtd">
<svg version="1.1" xmlns="http://www.w3.org/2000/svg" xmlns:xlink="http://www.w3.org/1999/xlink" viewBox="0 0 17.5586 14.9121">
 <g>
  <rect height="14.9121" opacity="0" width="17.5586" x="0" y="0"/>
  <path d="M8.59375 0C3.84766 0 0 3.83789 0 8.59375C0 10.9277 0.927734 13.0664 2.48047 14.6289C2.77344 14.9219 3.23242 14.9414 3.56445 14.6289C3.83789 14.3555 3.7793 13.8867 3.4375 13.5059C2.23633 12.2559 1.52344 10.4883 1.52344 8.59375C1.52344 4.61914 4.63867 1.48438 8.59375 1.48438C12.5586 1.48438 15.6738 4.61914 15.6738 8.59375C15.6738 10.4883 14.9512 12.2559 13.7598 13.5059C13.418 13.8867 13.3594 14.3555 13.6328 14.6289C13.9648 14.9414 14.4238 14.9219 14.7168 14.6289C16.2695 13.0664 17.1973 10.9277 17.1973 8.59375C17.1973 3.83789 13.3496 0 8.59375 0Z" fill="white" fill-opacity="0.85"/>
  <path d="M8.60352 10.4004C8.71094 10.4004 8.82812 10.3906 8.91602 10.3711L8.91602 11.6309C8.91602 12.3438 9.28711 12.7344 9.98047 12.7344C11.2305 12.7344 12.5 11.5918 12.5 10.5566C12.5 9.6582 11.7383 9.19922 10.4102 8.62305C10.4102 8.61328 10.4102 8.60352 10.4102 8.59375C10.4102 8.48633 10.4004 8.36914 10.3906 8.28125L11.6504 8.28125C12.3633 8.28125 12.7441 7.91016 12.7441 7.2168C12.7441 5.97656 11.6016 4.69727 10.5762 4.69727C9.66797 4.69727 9.20898 5.46875 8.63281 6.79688C8.62305 6.79688 8.62305 6.79688 8.60352 6.79688C8.49609 6.79688 8.38867 6.80664 8.30078 6.81641L8.30078 5.55664C8.30078 4.84375 7.92969 4.45312 7.23633 4.45312C5.98633 4.45312 4.7168 5.5957 4.7168 6.63086C4.7168 7.5293 5.47852 7.98828 6.80664 8.56445C6.80664 8.58398 6.80664 8.58398 6.80664 8.59375C6.80664 8.70117 6.81641 8.81836 6.82617 8.90625L5.56641 8.90625C4.85352 8.90625 4.46289 9.27734 4.46289 9.9707C4.46289 11.2109 5.60547 12.4902 6.64062 12.4902C7.54883 12.4902 7.99805 11.7285 8.58398 10.3906C8.59375 10.4004 8.59375 10.4004 8.60352 10.4004ZM8.60352 9.43359C8.14453 9.43359 7.76367 9.0625 7.76367 8.59375C7.76367 8.125 8.14453 7.75391 8.60352 7.75391C9.07227 7.75391 9.45312 8.125 9.45312 8.59375C9.45312 9.0625 9.07227 9.43359 8.60352 9.43359Z" fill="white" fill-opacity="0.85"/>
 </g>
</svg>
