<?xml version="1.0" encoding="UTF-8"?>
<!--Generator: Apple Native CoreSVG 341-->
<!DOCTYPE svg
PUBLIC "-//W3C//DTD SVG 1.1//EN"
       "http://www.w3.org/Graphics/SVG/1.1/DTD/svg11.dtd">
<svg version="1.1" xmlns="http://www.w3.org/2000/svg" xmlns:xlink="http://www.w3.org/1999/xlink" viewBox="0 0 20.6494 17.473">
 <g>
  <rect height="17.473" opacity="0" width="20.6494" x="0" y="0"/>
  <path d="M15.5786 5.07926C16.7407 5.07926 17.6685 4.10269 17.6685 2.97965C17.6685 1.80777 16.7407 0.850742 15.5786 0.850742C14.4067 0.850742 13.4595 1.80777 13.4595 2.97965C13.4595 4.11246 14.4067 5.07926 15.5786 5.07926ZM3.06885 16.1925C3.46924 16.6125 4.15283 16.5832 4.65088 16.0754L8.00049 12.6281C8.10791 12.5109 8.18604 12.4816 8.35205 12.55L10.9204 13.5265C12.6001 14.1613 14.2017 13.6535 14.9146 12.3546L16.6235 9.23941C17.2778 8.04801 17.0728 6.8273 15.9497 6.22184C14.8462 5.61637 13.7134 6.07535 13.0493 7.28629L10.8716 11.2609L9.01611 10.5871C8.09814 10.255 7.33643 10.3625 6.604 11.1144L3.13721 14.7082C2.64893 15.2062 2.69775 15.8214 3.06885 16.1925Z" fill="white" fill-opacity="0.425"/>
  <path d="M1.06689 1.2023L3.61572 3.75113C4.03564 4.18082 4.65088 3.93668 4.68018 3.34098L4.82666 0.606601C4.84619 0.215976 4.61182-0.0183988 4.21143 0.00113242L1.47705 0.128086C0.910645 0.157382 0.627441 0.74332 1.06689 1.2023ZM1.08643 4.63004L3.61572 2.10074C3.86963 1.84684 3.85986 1.43668 3.62549 1.2023C3.37158 0.948398 2.97119 0.948398 2.71729 1.2023L0.187988 3.7316C-0.065918 3.98551-0.0561523 4.39566 0.178223 4.63004C0.432129 4.88394 0.83252 4.88394 1.08643 4.63004ZM7.38525 3.91715L7.38525 7.53043C7.38525 8.15543 8.01025 8.38004 8.43994 7.98941L10.4614 6.15348C10.7642 5.8898 10.7544 5.55777 10.4614 5.28434L8.43994 3.45816C7.99072 3.04801 7.38525 3.32144 7.38525 3.91715ZM4.4165 6.36832L8.51807 6.36832C8.87939 6.36832 9.1626 6.08512 9.1626 5.73355C9.1626 5.37223 8.87939 5.08902 8.51807 5.08902L4.4165 5.08902C4.04541 5.08902 3.76221 5.37223 3.76221 5.73355C3.76221 6.08512 4.04541 6.36832 4.4165 6.36832ZM1.06689 10.2453C0.627441 10.6945 0.910645 11.2804 1.47705 11.3097L4.21143 11.4464C4.61182 11.466 4.84619 11.2218 4.82666 10.8312L4.68018 8.1066C4.65088 7.50113 4.03564 7.26676 3.61572 7.68668ZM0.187988 7.71598L2.70752 10.2355C2.96143 10.4894 3.37158 10.4894 3.62549 10.2355C3.85986 10.0011 3.86963 9.59098 3.61572 9.33707L1.08643 6.80777C0.83252 6.55387 0.432129 6.55387 0.178223 6.80777C-0.0561523 7.04215-0.065918 7.46207 0.187988 7.71598Z" fill="white" fill-opacity="0.85"/>
 </g>
</svg>
