<svg version="1.1" xmlns="http://www.w3.org/2000/svg" xmlns:xlink="http://www.w3.org/1999/xlink" viewBox="0 0 15.3809 18.4473">
 <g>
  <rect height="18.4473" opacity="0" width="15.3809" x="0" y="0"/>
  <path d="M1.70898 3.39844C2.64648 3.39844 3.39844 2.64648 3.39844 1.68945C3.39844 0.761719 2.64648 0 1.70898 0C0.761719 0 0 0.761719 0 1.68945C0 2.64648 0.761719 3.39844 1.70898 3.39844ZM0.820312 9.70703L4.04297 9.70703L4.23828 9.90234C4.61914 10.293 5.14648 10.4883 5.66406 10.4883C6.09375 10.4883 6.50391 10.3613 6.86523 10.0879L10.7617 7.16797L14.6289 4.85352C15 4.62891 15.127 4.15039 14.9121 3.76953C14.6777 3.39844 14.1992 3.28125 13.8184 3.50586L6.45508 7.91992L4.41406 5.86914C4.36523 5.82031 4.39453 5.75195 4.46289 5.75195L6.33789 5.75195C6.76758 5.75195 7.12891 5.40039 7.12891 4.9707L7.12891 1.52344C7.12891 1.08398 6.76758 0.732422 6.33789 0.732422C5.89844 0.732422 5.54688 1.08398 5.54688 1.52344L5.54688 4.18945L1.5918 4.18945C0.742188 4.18945 0.0292969 4.89258 0.0292969 5.75195L0.0292969 8.91602C0.0292969 9.3457 0.380859 9.70703 0.820312 9.70703ZM1.54297 8.17383L1.54297 7.42188C1.54297 7.31445 1.66016 7.25586 1.74805 7.33398L2.57812 8.17383ZM5.78125 18.3691C6.19141 18.4473 6.63086 18.1836 6.71875 17.7539L7.50977 13.8086C7.5293 13.7109 7.5293 13.6328 7.51953 13.5254L7.37305 10.6738C6.83594 11.084 6.25 11.2598 5.66406 11.2598C5.5957 11.2598 5.51758 11.25 5.44922 11.25L5.92773 13.6523L5.16602 17.4414C5.07812 17.8711 5.36133 18.291 5.78125 18.3691ZM6.72852 2.70508C7.38281 2.70508 7.91992 2.17773 7.91992 1.52344C7.91992 0.869141 7.38281 0.341797 6.72852 0.341797C6.08398 0.341797 5.54688 0.869141 5.54688 1.52344C5.54688 2.17773 6.08398 2.70508 6.72852 2.70508Z" fill="var(--color-primary)"/>
 </g>
</svg>
