<?xml version="1.0" encoding="UTF-8"?>
<!--Generator: Apple Native CoreSVG 341-->
<!DOCTYPE svg
PUBLIC "-//W3C//DTD SVG 1.1//EN"
       "http://www.w3.org/Graphics/SVG/1.1/DTD/svg11.dtd">
<svg version="1.1" xmlns="http://www.w3.org/2000/svg" xmlns:xlink="http://www.w3.org/1999/xlink" viewBox="0 0 16.1328 15.7715">
 <g>
  <rect height="15.7715" opacity="0" width="16.1328" x="0" y="0"/>
  <path d="M7.88086 15.7617C12.2363 15.7617 15.7715 12.2363 15.7715 7.88086C15.7715 3.52539 12.2363 0 7.88086 0C3.53516 0 0 3.52539 0 7.88086C0 12.2363 3.53516 15.7617 7.88086 15.7617ZM7.88086 14.2773C4.3457 14.2773 1.49414 11.416 1.49414 7.88086C1.49414 4.3457 4.3457 1.48438 7.88086 1.48438C11.416 1.48438 14.2773 4.3457 14.2773 7.88086C14.2773 11.416 11.416 14.2773 7.88086 14.2773Z" fill="white" fill-opacity="0.425"/>
  <path d="M7.69531 4.24805C8.20312 4.24805 8.62305 3.83789 8.62305 3.33008C8.62305 2.82227 8.20312 2.40234 7.69531 2.40234C7.1875 2.40234 6.77734 2.82227 6.77734 3.33008C6.77734 3.83789 7.1875 4.24805 7.69531 4.24805ZM4.375 7.4707C4.58984 7.50977 4.82422 7.40234 4.88281 7.14844L5.24414 5.54688L5.87891 5.54688C5.9668 5.54688 6.01562 5.61523 5.99609 5.69336L5.57617 7.33398C5.41016 7.99805 5.83984 8.65234 6.67969 8.44727L8.22266 8.06641L7.92969 9.56055C7.88086 9.79492 8.02734 10.0195 8.26172 10.0684C8.45703 10.1172 8.7207 9.99023 8.76953 9.73633L9.19922 7.57812C9.25781 7.26562 9.00391 7.02148 8.74023 7.05078L7.36328 7.1875L7.76367 5.64453C7.7832 5.58594 7.85156 5.53711 7.91992 5.56641L9.49219 6.16211C9.78516 6.26953 10.0781 6.11328 10.0781 5.81055L10.0781 3.81836C10.0781 3.58398 9.88281 3.38867 9.63867 3.38867C9.4043 3.38867 9.20898 3.58398 9.20898 3.81836L9.20898 5.13672L8.39844 4.82422C8.13477 4.72656 7.85156 4.67773 7.55859 4.67773L4.89258 4.67773C4.6875 4.67773 4.51172 4.82422 4.47266 5.01953L4.04297 6.95312C3.98438 7.19727 4.14062 7.43164 4.375 7.4707ZM6.31836 12.666C6.52344 12.7051 6.77734 12.5684 6.82617 12.3242L7.26562 10.166C7.27539 10.127 7.26562 10.0781 7.26562 10.0488L7.26562 8.70117L6.77734 8.81836C6.48438 8.88672 6.31836 8.88672 6.23047 8.85742L6.39648 10.0586L5.98633 12.1484C5.9375 12.3828 6.08398 12.6172 6.31836 12.666ZM7.96875 11.8457L10.1074 11.8457C10.2832 11.8457 10.4004 11.709 10.4004 11.5625C10.4004 11.3965 10.2734 11.2695 10.1074 11.2695L7.96875 11.2695C7.8125 11.2695 7.68555 11.3867 7.68555 11.5625C7.68555 11.709 7.8125 11.8457 7.96875 11.8457ZM7.53906 12.793L10.5371 12.793C10.6934 12.793 10.8301 12.6562 10.8301 12.5098C10.8301 12.3535 10.6934 12.2168 10.5371 12.2168L7.53906 12.2168C7.36328 12.2168 7.24609 12.3535 7.24609 12.5098C7.24609 12.6562 7.36328 12.793 7.53906 12.793Z" fill="white" fill-opacity="0.85"/>
 </g>
</svg>
