<?xml version="1.0" encoding="UTF-8"?>
<!--Generator: Apple Native CoreSVG 341-->
<!DOCTYPE svg
PUBLIC "-//W3C//DTD SVG 1.1//EN"
       "http://www.w3.org/Graphics/SVG/1.1/DTD/svg11.dtd">
<svg version="1.1" xmlns="http://www.w3.org/2000/svg" xmlns:xlink="http://www.w3.org/1999/xlink" viewBox="0 0 16.1328 15.7715">
 <g>
  <rect height="15.7715" opacity="0" width="16.1328" x="0" y="0"/>
  <path d="M7.88086 15.7617C12.2363 15.7617 15.7715 12.2266 15.7715 7.88086C15.7715 3.53516 12.2363 0 7.88086 0C3.53516 0 0 3.53516 0 7.88086C0 12.2266 3.53516 15.7617 7.88086 15.7617Z" fill="white" fill-opacity="0.2125"/>
  <path d="M9.62891 4.53125C9.10156 4.53125 8.66211 4.0918 8.66211 3.57422C8.66211 3.04688 9.10156 2.60742 9.62891 2.60742C10.1562 2.60742 10.5859 3.04688 10.5859 3.57422C10.5859 4.0918 10.1562 4.53125 9.62891 4.53125ZM3.52539 12.1387C3.33984 12.1387 3.22266 11.9824 3.22266 11.8262C3.22266 11.6699 3.35938 11.543 3.52539 11.543L4.39453 11.543C4.30664 11.3867 4.31641 11.1816 4.50195 11.0156L6.36719 9.28711L6.5918 8.42773C6.66992 8.52539 6.75781 8.57422 6.88477 8.65234L7.48047 9.00391L7.23633 9.58008C7.1875 9.69727 7.1582 9.75586 7.04102 9.86328L5.23438 11.543L8.76953 11.543C8.75977 11.5234 8.75 11.4941 8.75 11.4551L8.75 9.22852L7.09961 8.29102C6.60156 8.00781 6.47461 7.46094 6.74805 6.97266L7.59766 5.44922L6.47461 5.49805L6.40625 6.77734C6.39648 6.93359 6.35742 7.06055 6.2793 7.12891L3.26172 10.0977C3.14453 10.2148 2.93945 10.2051 2.83203 10.0977C2.72461 9.98047 2.72461 9.79492 2.8418 9.67773L5.57617 6.99219C5.53711 6.93359 5.52734 6.86523 5.52734 6.78711L5.64453 5.09766C5.66406 4.81445 5.85938 4.66797 6.09375 4.6582L8.01758 4.56055C8.7207 4.52148 9.21875 4.87305 9.62891 5.20508L10.918 6.25L11.6504 5.40039C11.9824 5.01953 12.5 5.32227 12.4707 5.69336L12.0508 10.8398C12.041 11.0156 11.8945 11.1328 11.7285 11.1328C11.582 11.1133 11.4551 10.957 11.4648 10.8008L11.8066 6.55273L11.2891 7.10938C11.1035 7.30469 10.8398 7.33398 10.625 7.17773L9.16992 6.08398L8.27148 7.65625L9.44336 8.59375C9.59961 8.7207 9.63867 8.80859 9.63867 8.93555L9.63867 11.4551C9.63867 11.4941 9.62891 11.5234 9.62891 11.543L11.4355 11.543C11.7871 11.543 11.9824 11.4648 12.2266 11.3477C12.4121 11.2305 12.5781 11.3574 12.6367 11.4941C12.6855 11.6309 12.6367 11.7969 12.4707 11.875C12.1582 12.0117 11.8848 12.1387 11.4355 12.1387Z" fill="white" fill-opacity="0.85"/>
 </g>
</svg>
