<?xml version="1.0" encoding="UTF-8"?>
<!--Generator: Apple Native CoreSVG 341-->
<!DOCTYPE svg
PUBLIC "-//W3C//DTD SVG 1.1//EN"
       "http://www.w3.org/Graphics/SVG/1.1/DTD/svg11.dtd">
<svg version="1.1" xmlns="http://www.w3.org/2000/svg" xmlns:xlink="http://www.w3.org/1999/xlink" viewBox="0 0 16.1328 15.7715">
 <g>
  <rect height="15.7715" opacity="0" width="16.1328" x="0" y="0"/>
  <path d="M7.88086 15.7617C12.2363 15.7617 15.7715 12.2363 15.7715 7.88086C15.7715 3.52539 12.2363 0 7.88086 0C3.53516 0 0 3.52539 0 7.88086C0 12.2363 3.53516 15.7617 7.88086 15.7617ZM7.88086 14.2773C4.3457 14.2773 1.49414 11.416 1.49414 7.88086C1.49414 4.3457 4.3457 1.48438 7.88086 1.48438C11.416 1.48438 14.2773 4.3457 14.2773 7.88086C14.2773 11.416 11.416 14.2773 7.88086 14.2773Z" fill="white" fill-opacity="0.425"/>
  <path d="M7.95898 4.92188C8.4668 4.92188 8.87695 4.50195 8.87695 3.99414C8.87695 3.49609 8.4668 3.07617 7.95898 3.07617C7.45117 3.07617 7.03125 3.49609 7.03125 3.99414C7.03125 4.50195 7.45117 4.92188 7.95898 4.92188ZM5.10742 6.13281L6.48438 6.13281C6.54297 6.13281 6.5918 6.19141 6.5918 6.25L6.45508 8.03711C6.40625 8.67188 6.78711 9.0625 7.32422 9.17969L9.0918 9.55078L9.47266 11.4453C9.52148 11.6992 9.78516 11.8262 9.98047 11.7871C10.2148 11.7383 10.3711 11.5039 10.3223 11.2695L9.89258 9.0918C9.86328 8.92578 9.7168 8.79883 9.55078 8.75L8.19336 8.33008L8.31055 6.67969C8.32031 6.55273 8.4375 6.50391 8.53516 6.58203L9.17969 7.11914C9.25781 7.1875 9.35547 7.22656 9.46289 7.22656L11.416 7.22656C11.6602 7.22656 11.8555 7.03125 11.8555 6.78711C11.8555 6.54297 11.6602 6.35742 11.416 6.35742L9.61914 6.35742L8.67188 5.56641C8.4375 5.37109 8.22266 5.26367 7.88086 5.26367L5.69336 5.26367L6.18164 3.65234C6.25 3.41797 6.11328 3.17383 5.88867 3.10547C5.6543 3.03711 5.41016 3.17383 5.3418 3.39844L4.6875 5.57617C4.59961 5.85938 4.74609 6.13281 5.10742 6.13281ZM6.94336 13.0664C7.14844 13.125 7.41211 13.0371 7.49023 12.7734L8.13477 10.6152C8.1543 10.5566 8.1543 10.498 8.1543 10.4297L8.1543 9.75586L7.24609 9.56055C7.19727 9.55078 7.19727 9.55078 7.1875 9.55078L7.28516 10.4297L6.65039 12.5293C6.58203 12.7539 6.71875 12.998 6.94336 13.0664Z" fill="white" fill-opacity="0.85"/>
 </g>
</svg>
