<?xml version="1.0" encoding="UTF-8"?>
<!--Generator: Apple Native CoreSVG 341-->
<!DOCTYPE svg
PUBLIC "-//W3C//DTD SVG 1.1//EN"
       "http://www.w3.org/Graphics/SVG/1.1/DTD/svg11.dtd">
<svg version="1.1" xmlns="http://www.w3.org/2000/svg" xmlns:xlink="http://www.w3.org/1999/xlink" viewBox="0 0 16.1328 15.7715">
 <g>
  <rect height="15.7715" opacity="0" width="16.1328" x="0" y="0"/>
  <path d="M7.88086 15.7617C12.2363 15.7617 15.7715 12.2363 15.7715 7.88086C15.7715 3.52539 12.2363 0 7.88086 0C3.53516 0 0 3.52539 0 7.88086C0 12.2363 3.53516 15.7617 7.88086 15.7617ZM7.88086 14.2773C4.3457 14.2773 1.49414 11.416 1.49414 7.88086C1.49414 4.3457 4.3457 1.48438 7.88086 1.48438C11.416 1.48438 14.2773 4.3457 14.2773 7.88086C14.2773 11.416 11.416 14.2773 7.88086 14.2773Z" fill="white" fill-opacity="0.85"/>
  <path d="M8.18359 4.63867C8.69141 4.63867 9.10156 4.22852 9.10156 3.71094C9.10156 3.20312 8.69141 2.79297 8.18359 2.79297C7.66602 2.79297 7.25586 3.20312 7.25586 3.71094C7.25586 4.22852 7.66602 4.63867 8.18359 4.63867ZM4.28711 12.373C4.45312 12.5293 4.7168 12.5586 4.90234 12.373L6.74805 10.5273C6.86523 10.4199 6.88477 10.332 6.875 10.166L6.76758 8.98438C6.75781 8.90625 6.83594 8.86719 6.89453 8.91602L8.20312 10.0488L8.89648 12.1875C8.97461 12.4414 9.22852 12.5391 9.44336 12.4707C9.6875 12.4023 9.80469 12.1582 9.73633 11.9238L9.01367 9.66797C8.99414 9.60938 8.95508 9.53125 8.90625 9.49219L7.48047 8.07617L8.39844 6.24023C8.4375 6.16211 8.52539 6.15234 8.58398 6.21094L9.61914 7.24609C9.66797 7.29492 9.73633 7.33398 9.79492 7.35352L11.8555 7.96875C12.0215 8.01758 12.3047 7.94922 12.4023 7.66602C12.4707 7.44141 12.334 7.19727 12.0996 7.12891L10.1562 6.55273L9.04297 5.42969C8.78906 5.17578 8.49609 5.05859 8.1543 5.05859L5.21484 5.05859C5.03906 5.05859 4.89258 5.15625 4.82422 5.30273L3.99414 6.94336C3.88672 7.1582 3.96484 7.42188 4.18945 7.5293C4.41406 7.62695 4.66797 7.54883 4.77539 7.33398L5.47852 5.9375L6.34766 5.9375C6.44531 5.9375 6.50391 6.03516 6.45508 6.12305L5.82031 7.40234C5.58594 7.86133 5.52734 8.38867 5.6543 8.87695L5.95703 10.0781L4.27734 11.748C4.11133 11.9141 4.11133 12.1973 4.28711 12.373ZM11.9824 10.4492C12.5391 10.4492 12.9785 10 12.9785 9.44336C12.9785 8.89648 12.5391 8.44727 11.9824 8.44727C11.4258 8.44727 10.9766 8.89648 10.9766 9.44336C10.9766 10 11.4258 10.4492 11.9824 10.4492Z" fill="white" fill-opacity="0.85"/>
 </g>
</svg>
