<?xml version="1.0" encoding="UTF-8"?>
<!--Generator: Apple Native CoreSVG 341-->
<!DOCTYPE svg
PUBLIC "-//W3C//DTD SVG 1.1//EN"
       "http://www.w3.org/Graphics/SVG/1.1/DTD/svg11.dtd">
<svg version="1.1" xmlns="http://www.w3.org/2000/svg" xmlns:xlink="http://www.w3.org/1999/xlink" viewBox="0 0 16.1328 15.7715">
 <g>
  <rect height="15.7715" opacity="0" width="16.1328" x="0" y="0"/>
  <path d="M15.7715 7.88086C15.7715 12.2266 12.2363 15.7617 7.88086 15.7617C3.53516 15.7617 0 12.2266 0 7.88086C0 3.53516 3.53516 0 7.88086 0C12.2363 0 15.7715 3.53516 15.7715 7.88086ZM7.67578 5.57617L6.97266 6.25977C6.73828 6.49414 6.66992 6.68945 6.65039 6.97266L6.57227 8.06641C6.57227 8.10547 6.57227 8.1543 6.57227 8.19336L5.625 9.54102L5.3418 9.3457C5.08789 9.16992 4.84375 9.20898 4.6582 9.46289L3.47656 11.1621C3.29102 11.4258 3.33984 11.6699 3.60352 11.8359L4.53125 12.4902C4.77539 12.6758 5.01953 12.627 5.20508 12.373L6.38672 10.6836C6.57227 10.4199 6.51367 10.1855 6.25977 9.99023L6.07422 9.85352L6.99219 8.54492C7.22656 8.54492 7.36328 8.39844 7.39258 8.125L7.49023 6.92383L7.83203 6.63086C7.94922 6.51367 8.11523 6.5918 8.10547 6.70898L8.02734 7.71484C7.98828 8.22266 8.11523 8.4668 8.45703 8.90625L9.38477 10.0684C9.47266 10.1855 9.48242 10.2344 9.52148 10.3027L10.4883 12.2656C10.7715 12.8418 11.6406 12.4902 11.3184 11.8555L10.3906 9.95117C10.3125 9.80469 10.2148 9.6582 10.1367 9.53125L9.53125 8.69141L9.58008 8.56445C9.74609 8.10547 9.79492 7.80273 9.83398 7.33398L9.92188 6.00586C9.96094 5.37109 9.59961 4.88281 8.93555 4.88281C8.45703 4.88281 8.13477 5.13672 7.67578 5.57617ZM7.86133 10.1758L6.49414 11.7969C6.05469 12.3145 6.76758 12.832 7.13867 12.4023L8.51562 10.752C8.65234 10.5859 8.67188 10.5469 8.7207 10.3906L8.81836 10.0879L8.08594 9.16016ZM10.3027 7.08008L10.5469 7.33398C10.7031 7.48047 10.8301 7.51953 11.1133 7.51953L12.0996 7.51953C12.3828 7.51953 12.5586 7.37305 12.5586 7.10938C12.5586 6.85547 12.3828 6.68945 12.0996 6.68945L11.0352 6.68945L10.3809 5.9668ZM8.49609 3.52539C8.49609 4.05273 8.92578 4.47266 9.46289 4.47266C9.99023 4.47266 10.4199 4.05273 10.4199 3.52539C10.4199 2.97852 9.99023 2.55859 9.46289 2.55859C8.92578 2.55859 8.49609 2.97852 8.49609 3.52539Z" fill="white" fill-opacity="0.85"/>
 </g>
</svg>
