<?xml version="1.0" encoding="UTF-8"?>
<!--Generator: Apple Native CoreSVG 341-->
<!DOCTYPE svg
PUBLIC "-//W3C//DTD SVG 1.1//EN"
       "http://www.w3.org/Graphics/SVG/1.1/DTD/svg11.dtd">
<svg version="1.1" xmlns="http://www.w3.org/2000/svg" xmlns:xlink="http://www.w3.org/1999/xlink" viewBox="0 0 16.1328 15.7715">
 <g>
  <rect height="15.7715" opacity="0" width="16.1328" x="0" y="0"/>
  <path d="M7.88086 15.7617C12.2363 15.7617 15.7715 12.2266 15.7715 7.88086C15.7715 3.53516 12.2363 0 7.88086 0C3.53516 0 0 3.53516 0 7.88086C0 12.2266 3.53516 15.7617 7.88086 15.7617Z" fill="white" fill-opacity="0.2125"/>
  <path d="M6.55273 4.375C6.18164 4.375 5.86914 4.08203 5.86914 3.70117C5.86914 3.33008 6.18164 3.02734 6.55273 3.02734C6.93359 3.02734 7.22656 3.33008 7.22656 3.70117C7.22656 4.08203 6.93359 4.375 6.55273 4.375ZM2.76367 10.3613C2.50977 10.3613 2.32422 10.166 2.32422 9.91211C2.32422 9.66797 2.50977 9.46289 2.76367 9.46289L4.85352 9.46289L6.78711 8.7793C7.01172 8.70117 7.14844 8.53516 7.2168 8.31055L7.57812 6.92383C7.59766 6.8457 7.53906 6.76758 7.46094 6.76758L5.5957 6.76758C5.35156 6.76758 5.15625 6.57227 5.15625 6.32812L5.15625 4.75586C5.15625 4.50195 5.35156 4.31641 5.5957 4.31641C5.84961 4.31641 6.05469 4.50195 6.05469 4.75586L6.05469 5.88867L7.14844 5.88867C7.97852 5.88867 8.71094 5.98633 9.85352 6.2207L13.457 6.94336C13.7012 6.99219 13.8086 7.1875 13.8086 7.38281C13.8086 7.63672 13.6133 7.89062 13.2812 7.82227L9.61914 7.08984C9.56055 7.08008 9.51172 7.10938 9.49219 7.16797L8.29102 12.0215C8.21289 12.3535 7.80273 12.4414 7.48047 12.207L6.00586 11.1719C5.80078 11.0254 5.76172 10.7422 5.91797 10.5469C6.05469 10.3418 6.32812 10.293 6.5332 10.4395L7.49023 11.1133L7.64648 9.79492C7.65625 9.75586 7.61719 9.72656 7.56836 9.73633L5.15625 10.3125C5.04883 10.332 4.99023 10.3613 4.86328 10.3613ZM9.05273 5.64453C8.51562 5.64453 8.08594 5.20508 8.08594 4.66797C8.08594 4.15039 8.51562 3.71094 9.05273 3.71094C9.58008 3.71094 10 4.15039 10 4.66797C10 5.20508 9.58008 5.64453 9.05273 5.64453Z" fill="white" fill-opacity="0.85"/>
 </g>
</svg>
