<svg version="1.1" xmlns="http://www.w3.org/2000/svg" xmlns:xlink="http://www.w3.org/1999/xlink" viewBox="0 0 24.7253 16.2207">
 <g>
  <rect height="16.2207" opacity="0" width="24.7253" x="0" y="0"/>
  <path d="M3.87632 4.45312C2.71421 4.45312 1.78647 3.47656 1.78647 2.35352C1.78647 1.18164 2.71421 0.224609 3.87632 0.224609C5.04819 0.224609 5.99546 1.18164 5.99546 2.35352C5.99546 3.48633 5.04819 4.45312 3.87632 4.45312ZM16.3861 15.5664C15.9857 15.9863 15.3021 15.957 14.8041 15.4492L11.4544 12.002C11.347 11.8848 11.2689 11.8555 11.1029 11.9238L8.53452 12.9004C6.84507 13.5352 5.25327 13.0273 4.54038 11.7285L2.82163 8.61328C2.1771 7.42188 2.38218 6.20117 3.50522 5.5957C4.60874 4.99023 5.74155 5.44922 6.40561 6.66016L8.58335 10.6348L10.4388 9.96094C11.347 9.62891 12.1185 9.73633 12.8509 10.4883L16.3177 14.082C16.806 14.5801 16.7572 15.1953 16.3861 15.5664Z" fill="var(--color-secondary)"/>
  <path d="M16.0345 2.85156L18.1439 5.52734C18.2416 5.64453 18.3783 5.67383 18.515 5.5957C19.0326 5.32227 19.7455 5.14648 20.3021 5.14648C20.8685 5.14648 21.5912 5.32227 22.0794 5.5957C22.2259 5.67383 22.3822 5.64453 22.4701 5.52734L24.5794 2.85156C24.8041 2.55859 24.765 2.26562 24.4916 2.04102C23.6517 1.38672 22.0404 0.888672 20.3021 0.888672C18.5736 0.888672 16.9525 1.38672 16.1224 2.04102C15.8392 2.26562 15.8099 2.55859 16.0345 2.85156ZM18.1927 7.06055C17.9486 6.73828 17.8412 6.43555 17.8412 6.12305C17.8412 5.37109 18.4369 5.21484 18.4369 4.78516C18.4369 4.33594 17.8412 4.18945 17.8412 3.41797C17.8412 3.11523 17.9486 2.82227 18.1927 2.5C18.4759 2.1582 18.9935 2.5293 18.7103 2.89062C18.5443 3.13477 18.4955 3.26172 18.4955 3.41797C18.4955 3.94531 19.0814 4.08203 19.0814 4.78516C19.0814 5.46875 18.4955 5.61523 18.4955 6.12305C18.4955 6.30859 18.5443 6.42578 18.7103 6.67969C18.9935 7.03125 18.4759 7.41211 18.1927 7.06055ZM20.0189 7.06055C19.7943 6.73828 19.6869 6.43555 19.6869 6.12305C19.6869 5.37109 20.2728 5.21484 20.2728 4.78516C20.2728 4.33594 19.6869 4.18945 19.6869 3.41797C19.6869 3.11523 19.7943 2.82227 20.0189 2.5C20.3119 2.1582 20.8392 2.5293 20.556 2.89062C20.3802 3.13477 20.3412 3.26172 20.3412 3.41797C20.3412 3.94531 20.9271 4.08203 20.9271 4.78516C20.9271 5.46875 20.3412 5.61523 20.3412 6.12305C20.3412 6.30859 20.3802 6.42578 20.556 6.67969C20.8294 7.03125 20.3119 7.41211 20.0189 7.06055ZM21.8841 7.06055C21.6302 6.73828 21.5326 6.43555 21.5326 6.12305C21.5326 5.37109 22.1185 5.21484 22.1185 4.78516C22.1185 4.33594 21.5326 4.18945 21.5326 3.41797C21.5326 3.11523 21.6302 2.82227 21.8841 2.5C22.1673 2.1582 22.6751 2.5293 22.4017 2.89062C22.2357 3.13477 22.1869 3.26172 22.1869 3.41797C22.1869 3.94531 22.7728 4.08203 22.7728 4.78516C22.7728 5.46875 22.1869 5.61523 22.1869 6.12305C22.1869 6.30859 22.2357 6.42578 22.4017 6.67969C22.6751 7.03125 22.1673 7.41211 21.8841 7.06055ZM11.9916 0C11.6302 0 11.347 0.283203 11.347 0.644531L11.347 3.4668L10.1654 3.4668C9.55991 3.4668 9.28647 4.08203 9.69663 4.52148L11.5423 6.57227C11.8158 6.85547 12.1478 6.86523 12.4115 6.57227L14.2572 4.52148C14.6478 4.10156 14.433 3.4668 13.7982 3.4668L12.6263 3.4668L12.6263 0.644531C12.6263 0.283203 12.3431 0 11.9916 0Z" fill="var(--color-primary)"/>
 </g>
</svg>
