<?xml version="1.0" encoding="UTF-8"?>
<!--Generator: Apple Native CoreSVG 341-->
<!DOCTYPE svg
PUBLIC "-//W3C//DTD SVG 1.1//EN"
       "http://www.w3.org/Graphics/SVG/1.1/DTD/svg11.dtd">
<svg version="1.1" xmlns="http://www.w3.org/2000/svg" xmlns:xlink="http://www.w3.org/1999/xlink" viewBox="0 0 16.1328 15.7715">
 <g>
  <rect height="15.7715" opacity="0" width="16.1328" x="0" y="0"/>
  <path d="M15.7715 7.88086C15.7715 12.2266 12.2363 15.7617 7.88086 15.7617C3.53516 15.7617 0 12.2266 0 7.88086C0 3.53516 3.53516 0 7.88086 0C12.2363 0 15.7715 3.53516 15.7715 7.88086ZM2.49023 9.16992C2.37305 9.26758 2.34375 9.45312 2.5 9.60938C2.72461 9.81445 2.98828 10.0098 3.24219 10.2051C3.08594 10.3613 2.93945 10.4785 2.69531 10.6152C2.5293 10.7227 2.48047 10.8496 2.51953 10.9766C2.53906 11.084 2.64648 11.1719 2.79297 11.1719C3.125 11.1719 3.61328 11.0449 4.08203 10.7715C5.89844 11.8848 8.27148 12.7637 10.8984 13.0762C11.0938 13.0957 11.2207 12.9199 11.2207 12.7734C11.2207 12.6562 11.1328 12.5488 10.957 12.5195C7.8125 12.1973 4.67773 10.8008 2.85156 9.17969C2.73438 9.05273 2.57812 9.08203 2.49023 9.16992ZM7.11914 2.22656L5.49805 3.38867C5.22461 3.58398 5.22461 3.96484 5.49805 4.15039L6.88477 5.09766C6.97266 5.16602 6.99219 5.26367 6.93359 5.3418L5.76172 7.03125C5.2832 7.71484 5.58594 8.68164 6.5332 8.83789L6.88477 8.88672L6.07422 10.0195C5.9375 10.2246 5.9668 10.5273 6.19141 10.6738C6.38672 10.8105 6.69922 10.7617 6.83594 10.5664L7.91016 9.0625L8.91602 9.22852L7.91992 10.7324C7.79297 10.9375 7.8418 11.2402 8.05664 11.3672C8.32031 11.5332 8.57422 11.4453 8.70117 11.2402L10.0684 9.19922C10.2441 8.92578 10.1465 8.51562 9.75586 8.41797L7.89062 7.96875C7.71484 7.92969 7.63672 7.7832 7.75391 7.61719L8.53516 6.43555C8.58398 6.34766 8.69141 6.33789 8.7793 6.38672L9.91211 7.17773C9.98047 7.23633 10.0293 7.25586 10.1074 7.26562L12.6562 7.71484C12.8809 7.77344 13.1445 7.61719 13.2031 7.34375C13.252 7.08984 13.0762 6.8457 12.8223 6.80664L10.3613 6.34766L6.5625 3.75977L7.64648 2.98828C7.87109 2.83203 7.91016 2.54883 7.77344 2.33398C7.61719 2.11914 7.32422 2.07031 7.11914 2.22656ZM8.29102 3.7793C8.29102 4.33594 8.75 4.77539 9.29688 4.77539C9.83398 4.77539 10.2832 4.33594 10.2832 3.7793C10.2832 3.23242 9.83398 2.79297 9.29688 2.79297C8.75 2.79297 8.29102 3.23242 8.29102 3.7793Z" fill="white" fill-opacity="0.85"/>
 </g>
</svg>
