<?xml version="1.0" encoding="UTF-8"?>
<!--Generator: Apple Native CoreSVG 341-->
<!DOCTYPE svg
PUBLIC "-//W3C//DTD SVG 1.1//EN"
       "http://www.w3.org/Graphics/SVG/1.1/DTD/svg11.dtd">
<svg version="1.1" xmlns="http://www.w3.org/2000/svg" xmlns:xlink="http://www.w3.org/1999/xlink" viewBox="0 0 16.1328 15.7715">
 <g>
  <rect height="15.7715" opacity="0" width="16.1328" x="0" y="0"/>
  <path d="M7.88086 15.7617C12.2363 15.7617 15.7715 12.2266 15.7715 7.88086C15.7715 3.53516 12.2363 0 7.88086 0C3.53516 0 0 3.53516 0 7.88086C0 12.2266 3.53516 15.7617 7.88086 15.7617Z" fill="white" fill-opacity="0.2125"/>
  <path d="M8.10547 6.5332C7.58789 6.5332 7.14844 6.10352 7.14844 5.57617C7.14844 5.03906 7.58789 4.60938 8.10547 4.60938C8.63281 4.60938 9.07227 5.03906 9.07227 5.57617C9.07227 6.10352 8.63281 6.5332 8.10547 6.5332ZM6.00586 8.63281L6.2207 8.07617C6.25 7.97852 6.19141 7.91016 6.10352 7.91016L4.84375 7.91016C4.60938 7.91016 4.44336 7.72461 4.38477 7.51953L3.69141 5.23438C3.62305 5.00977 3.76953 4.74609 4.01367 4.6582C4.25781 4.58984 4.51172 4.73633 4.58984 4.98047L5.19531 6.96289L12.5293 6.96289C12.793 6.96289 13.0078 7.17773 13.0078 7.43164C13.0078 7.69531 12.793 7.91016 12.5293 7.91016L8.63281 7.91016C8.48633 7.91016 8.4082 7.95898 8.35938 8.10547L7.92969 9.31641C7.91016 9.32617 7.89062 9.32617 7.86133 9.32617C7.11914 9.32617 7.02148 8.74023 6.00586 8.63281ZM5.49805 4.85352C5.12695 4.85352 4.81445 4.54102 4.81445 4.16016C4.81445 3.78906 5.12695 3.48633 5.49805 3.48633C5.87891 3.48633 6.18164 3.78906 6.18164 4.16016C6.18164 4.54102 5.87891 4.85352 5.49805 4.85352ZM7.86133 10.5566C6.66016 10.5566 6.41602 9.83398 5.6543 9.83398C4.88281 9.83398 4.63867 10.5566 3.4375 10.5566L3.125 10.5566C2.95898 10.5566 2.82227 10.4102 2.82227 10.2539C2.82227 10.0977 2.95898 9.95117 3.125 9.95117L3.4375 9.95117C4.22852 9.95117 4.50195 9.23828 5.6543 9.23828C6.79688 9.23828 7.08008 9.95117 7.86133 9.95117C8.65234 9.95117 8.93555 9.23828 10.0684 9.23828C11.2305 9.23828 11.4941 9.95117 12.2852 9.95117L12.6172 9.95117C12.7734 9.95117 12.9199 10.0977 12.9199 10.2539C12.9199 10.4102 12.7734 10.5566 12.6172 10.5566L12.2852 10.5566C11.084 10.5566 10.8398 9.83398 10.0684 9.83398C9.30664 9.83398 9.07227 10.5566 7.86133 10.5566ZM3.125 11.5039C2.94922 11.5039 2.82227 11.377 2.82227 11.2012C2.82227 11.0352 2.94922 10.9082 3.125 10.9082C3.30078 10.9082 3.41797 11.0352 3.41797 11.2012C3.41797 11.377 3.30078 11.5039 3.125 11.5039ZM3.89648 11.5039C3.7207 11.5039 3.59375 11.377 3.59375 11.2012C3.59375 11.0352 3.7207 10.9082 3.89648 10.9082C4.07227 10.9082 4.18945 11.0352 4.18945 11.2012C4.18945 11.377 4.07227 11.5039 3.89648 11.5039ZM4.66797 11.25C4.50195 11.25 4.36523 11.123 4.36523 10.9473C4.36523 10.7812 4.50195 10.6543 4.66797 10.6543C4.84375 10.6543 4.96094 10.7812 4.96094 10.9473C4.96094 11.123 4.84375 11.25 4.66797 11.25ZM5.48828 11.0547C5.32227 11.0547 5.18555 10.918 5.18555 10.752C5.18555 10.5859 5.32227 10.4492 5.48828 10.4492C5.66406 10.4492 5.79102 10.5859 5.79102 10.752C5.79102 10.918 5.66406 11.0547 5.48828 11.0547ZM6.31836 11.25C6.14258 11.25 6.00586 11.123 6.00586 10.9473C6.00586 10.7812 6.14258 10.6543 6.31836 10.6543C6.48438 10.6543 6.61133 10.7812 6.61133 10.9473C6.61133 11.123 6.48438 11.25 6.31836 11.25ZM7.08008 11.6113C6.9043 11.6113 6.77734 11.4746 6.77734 11.3086C6.77734 11.1426 6.9043 11.0059 7.08008 11.0059C7.24609 11.0059 7.37305 11.1426 7.37305 11.3086C7.37305 11.4746 7.24609 11.6113 7.08008 11.6113ZM7.86133 11.7578C7.69531 11.7578 7.56836 11.6309 7.56836 11.4551C7.56836 11.2891 7.69531 11.1621 7.86133 11.1621C8.02734 11.1621 8.16406 11.2891 8.16406 11.4551C8.16406 11.6309 8.02734 11.7578 7.86133 11.7578ZM8.66211 11.6113C8.48633 11.6113 8.35938 11.4746 8.35938 11.3086C8.35938 11.1426 8.48633 11.0059 8.66211 11.0059C8.83789 11.0059 8.95508 11.1426 8.95508 11.3086C8.95508 11.4746 8.83789 11.6113 8.66211 11.6113ZM9.42383 11.25C9.24805 11.25 9.13086 11.123 9.13086 10.9473C9.13086 10.7812 9.24805 10.6543 9.42383 10.6543C9.59961 10.6543 9.72656 10.7812 9.72656 10.9473C9.72656 11.123 9.59961 11.25 9.42383 11.25ZM10.2539 11.0547C10.0781 11.0547 9.96094 10.918 9.96094 10.752C9.96094 10.5859 10.0781 10.4492 10.2539 10.4492C10.4297 10.4492 10.5566 10.5859 10.5566 10.752C10.5566 10.918 10.4297 11.0547 10.2539 11.0547ZM11.0742 11.25C10.9082 11.25 10.7812 11.123 10.7812 10.9473C10.7812 10.7812 10.9082 10.6543 11.0742 10.6543C11.25 10.6543 11.377 10.7812 11.377 10.9473C11.377 11.123 11.25 11.25 11.0742 11.25ZM11.8359 11.5039C11.6699 11.5039 11.543 11.377 11.543 11.2012C11.543 11.0352 11.6699 10.9082 11.8359 10.9082C12.0117 10.9082 12.1484 11.0352 12.1484 11.2012C12.1484 11.377 12.0117 11.5039 11.8359 11.5039ZM12.6074 11.5039C12.4414 11.5039 12.3145 11.377 12.3145 11.2012C12.3145 11.0352 12.4414 10.9082 12.6074 10.9082C12.7832 10.9082 12.9199 11.0352 12.9199 11.2012C12.9199 11.377 12.7832 11.5039 12.6074 11.5039Z" fill="white" fill-opacity="0.85"/>
 </g>
</svg>
