<svg version="1.1" xmlns="http://www.w3.org/2000/svg" xmlns:xlink="http://www.w3.org/1999/xlink" viewBox="0 0 16.1328 15.7715">
 <g>
  <rect height="15.7715" opacity="0" width="16.1328" x="0" y="0"/>
  <path d="M7.88086 15.7617C12.2363 15.7617 15.7715 12.2266 15.7715 7.88086C15.7715 3.53516 12.2363 0 7.88086 0C3.53516 0 0 3.53516 0 7.88086C0 12.2266 3.53516 15.7617 7.88086 15.7617Z" fill="var(--color-tertiary)"/>
  <path d="M7.61719 5.25391C7.08984 5.25391 6.65039 4.83398 6.65039 4.29688C6.65039 3.7793 7.08984 3.34961 7.61719 3.34961C8.14453 3.34961 8.58398 3.7793 8.58398 4.29688C8.58398 4.83398 8.14453 5.25391 7.61719 5.25391ZM5.24414 12.9004C4.99023 12.8516 4.83398 12.6074 4.87305 12.3633L5.2832 10.166C5.30273 10.0293 5.35156 9.90234 5.46875 9.81445L7.00195 8.66211L6.73828 7.58789C6.71875 7.48047 6.61133 7.48047 6.54297 7.54883L6.04492 8.04688C5.86914 8.22266 5.58594 8.22266 5.41016 8.04688L4.29688 6.92383C4.19922 6.82617 4.12109 6.66016 4.19922 6.46484L5.64453 2.69531C5.72266 2.51953 5.85938 2.43164 6.01562 2.43164C6.2793 2.43164 6.5332 2.67578 6.35742 3.03711L5.10742 5.70312L7.79297 5.70312C8.11523 5.70312 8.37891 5.92773 8.44727 6.21094L9.69727 11.2207L11.2695 12.0898C11.4941 12.2266 11.5723 12.5 11.4355 12.7148C11.3379 12.9199 11.084 13.0273 10.8203 12.8809L9.11133 11.9336C9.02344 11.8848 8.93555 11.7969 8.88672 11.6895L8.00781 9.56055C7.98828 9.52148 7.92969 9.50195 7.88086 9.53125L6.13281 10.4883L5.76172 12.5293C5.71289 12.7832 5.48828 12.9492 5.24414 12.9004ZM6.19141 6.61133L5.27344 6.61133L5.73242 7.08008Z" fill="var(--color-primary)"/>
 </g>
</svg>
