<?xml version="1.0" encoding="UTF-8"?>
<!--Generator: Apple Native CoreSVG 341-->
<!DOCTYPE svg
PUBLIC "-//W3C//DTD SVG 1.1//EN"
       "http://www.w3.org/Graphics/SVG/1.1/DTD/svg11.dtd">
<svg version="1.1" xmlns="http://www.w3.org/2000/svg" xmlns:xlink="http://www.w3.org/1999/xlink" viewBox="0 0 16.1328 15.7715">
 <g>
  <rect height="15.7715" opacity="0" width="16.1328" x="0" y="0"/>
  <path d="M7.88086 15.7617C12.2363 15.7617 15.7715 12.2266 15.7715 7.88086C15.7715 3.53516 12.2363 0 7.88086 0C3.53516 0 0 3.53516 0 7.88086C0 12.2266 3.53516 15.7617 7.88086 15.7617Z" fill="white" fill-opacity="0.2125"/>
  <path d="M8.88672 5.06836C8.35938 5.06836 7.92969 4.64844 7.92969 4.11133C7.92969 3.58398 8.35938 3.16406 8.88672 3.16406C9.41406 3.16406 9.84375 3.58398 9.84375 4.11133C9.84375 4.64844 9.41406 5.06836 8.88672 5.06836ZM6.70898 13.5938C6.46484 13.5938 6.26953 13.3887 6.26953 13.1445L6.26953 10.9375C6.26953 10.8594 6.2793 10.8008 6.31836 10.7324L7.36328 8.73047L7.36328 7.51953C7.36328 7.39258 7.31445 7.28516 7.13867 7.28516L6.09375 7.28516C5.98633 7.28516 5.9375 7.28516 5.86914 7.25586L4.27734 6.57227C4.04297 6.47461 4.00391 6.18164 4.15039 5.9668L6.96289 2.07031C7.02148 2.00195 7.10938 1.96289 7.1875 1.96289L7.90039 1.96289C8.125 1.96289 8.29102 2.12891 8.29102 2.33398C8.29102 2.54883 8.125 2.71484 7.90039 2.71484L7.16797 2.71484L4.89258 5.87891L5.98633 6.33789L7.03125 5.58594C7.45117 5.29297 7.92969 5.22461 8.42773 5.43945L8.71094 5.54688C9.16016 5.74219 9.35547 6.2207 9.35547 6.68945L9.35547 10.8496L10.166 12.998C10.2637 13.2812 10.1172 13.4863 9.90234 13.5645C9.69727 13.6328 9.45312 13.584 9.3457 13.3008L8.52539 11.1328C8.48633 11.0547 8.47656 11.0156 8.4668 10.9375L8.31055 9.60938C8.30078 9.52148 8.19336 9.51172 8.16406 9.57031L7.14844 11.0645L7.14844 13.1445C7.14844 13.3887 6.94336 13.5938 6.70898 13.5938Z" fill="white" fill-opacity="0.85"/>
 </g>
</svg>
