<?xml version="1.0" encoding="UTF-8"?>
<!--Generator: Apple Native CoreSVG 341-->
<!DOCTYPE svg
PUBLIC "-//W3C//DTD SVG 1.1//EN"
       "http://www.w3.org/Graphics/SVG/1.1/DTD/svg11.dtd">
<svg version="1.1" xmlns="http://www.w3.org/2000/svg" xmlns:xlink="http://www.w3.org/1999/xlink" viewBox="0 0 16.1328 15.7715">
 <g>
  <rect height="15.7715" opacity="0" width="16.1328" x="0" y="0"/>
  <path d="M7.88086 15.7617C12.2363 15.7617 15.7715 12.2266 15.7715 7.88086C15.7715 3.53516 12.2363 0 7.88086 0C3.53516 0 0 3.53516 0 7.88086C0 12.2266 3.53516 15.7617 7.88086 15.7617Z" fill="white" fill-opacity="0.2125"/>
  <path d="M7.87109 5.25391C7.34375 5.25391 6.93359 4.83398 6.93359 4.31641C6.93359 3.78906 7.34375 3.36914 7.87109 3.36914C8.38867 3.36914 8.80859 3.78906 8.80859 4.31641C8.80859 4.83398 8.38867 5.25391 7.87109 5.25391ZM4.92188 9.49219L4.92188 6.45508C4.92188 3.61328 5.9668 1.95312 7.87109 1.95312C9.78516 1.95312 10.8301 3.61328 10.8301 6.45508L10.8301 9.49219C10.8301 9.6582 10.7129 9.83398 10.5469 9.88281C10.332 9.96094 10.0879 9.84375 10 9.61914C9.87305 9.23828 9.56055 8.35938 9.02344 7.36328C8.99414 7.32422 8.92578 7.33398 8.92578 7.38281L8.92578 13.3984C8.92578 13.6328 8.73047 13.8184 8.51562 13.8184C8.28125 13.8184 8.08594 13.6328 8.08594 13.3984L8.08594 11.2012L7.87109 9.49219L7.65625 11.2012L7.65625 13.3984C7.65625 13.6328 7.46094 13.8184 7.23633 13.8184C7.02148 13.8184 6.82617 13.6328 6.82617 13.3984L6.82617 7.38281C6.82617 7.33398 6.75781 7.32422 6.72852 7.36328C6.19141 8.35938 5.87891 9.23828 5.75195 9.61914C5.66406 9.84375 5.41992 9.96094 5.20508 9.88281C5.03906 9.83398 4.92188 9.6582 4.92188 9.49219ZM5.51758 7.90039C5.80078 7.24609 6.19141 6.51367 6.62109 6.03516C6.81641 5.82031 7.09961 5.68359 7.40234 5.68359L8.33984 5.68359C8.65234 5.68359 8.93555 5.82031 9.13086 6.03516C9.56055 6.51367 9.94141 7.24609 10.2246 7.90039L10.2246 6.45508C10.2246 3.97461 9.4043 2.53906 7.87109 2.53906C6.34766 2.53906 5.51758 3.97461 5.51758 6.45508Z" fill="white" fill-opacity="0.85"/>
 </g>
</svg>
