<?xml version="1.0" encoding="UTF-8"?>
<!--Generator: Apple Native CoreSVG 341-->
<!DOCTYPE svg
PUBLIC "-//W3C//DTD SVG 1.1//EN"
       "http://www.w3.org/Graphics/SVG/1.1/DTD/svg11.dtd">
<svg version="1.1" xmlns="http://www.w3.org/2000/svg" xmlns:xlink="http://www.w3.org/1999/xlink" viewBox="0 0 25.4445 16.2232">
 <g>
  <rect height="16.2232" opacity="0" width="25.4445" x="0" y="0"/>
  <path d="M20.8424 4.45436C22.0045 4.45436 22.9322 3.4778 22.9322 2.35475C22.9322 1.18288 22.0045 0.225846 20.8424 0.225846C19.6705 0.225846 18.7232 1.18288 18.7232 2.35475C18.7232 3.48756 19.6705 4.45436 20.8424 4.45436ZM8.33261 15.5676C8.733 15.9876 9.4166 15.9583 9.91464 15.4505L13.2643 12.0032C13.3717 11.886 13.4498 11.8567 13.6158 11.9251L16.1842 12.9016C17.8736 13.5364 19.4654 13.0286 20.1783 11.7298L21.8971 8.61452C22.5416 7.42311 22.3365 6.20241 21.2135 5.59694C20.11 4.99147 18.9771 5.45045 18.3131 6.66139L16.1353 10.636L14.2799 9.96217C13.3717 9.63014 12.6002 9.73756 11.8678 10.4895L8.40097 14.0833C7.91269 14.5813 7.96152 15.1965 8.33261 15.5676Z" fill="white" fill-opacity="0.425"/>
  <path d="M0.14902 2.8528L2.24863 5.52858C2.34629 5.64577 2.49277 5.67506 2.62949 5.59694C3.1373 5.3235 3.85019 5.14772 4.40683 5.14772C4.97324 5.14772 5.69589 5.3235 6.19394 5.59694C6.34043 5.67506 6.48691 5.64577 6.5748 5.52858L8.69394 2.8528C8.91855 2.55983 8.87949 2.26686 8.60605 2.04225C7.76621 1.38795 6.15488 0.889908 4.40683 0.889908C2.68808 0.889908 1.06699 1.38795 0.23691 2.04225C-0.0462928 2.26686-0.0755897 2.55983 0.14902 2.8528ZM2.29746 7.06178C2.05332 6.73952 1.94589 6.43678 1.94589 6.12428C1.94589 5.37233 2.5416 5.21608 2.5416 4.78639C2.5416 4.33717 1.94589 4.19069 1.94589 3.4192C1.94589 3.11647 2.05332 2.8235 2.29746 2.50124C2.59043 2.15944 3.09824 2.53053 2.8248 2.89186C2.64902 3.136 2.60996 3.26295 2.60996 3.4192C2.60996 3.94655 3.19589 4.08327 3.19589 4.78639C3.19589 5.46999 2.60996 5.61647 2.60996 6.12428C2.60996 6.30983 2.64902 6.42702 2.8248 6.68092C3.09824 7.03249 2.58066 7.41335 2.29746 7.06178ZM4.13339 7.06178C3.89902 6.73952 3.7916 6.43678 3.7916 6.12428C3.7916 5.37233 4.37754 5.21608 4.37754 4.78639C4.37754 4.33717 3.7916 4.19069 3.7916 3.4192C3.7916 3.11647 3.89902 2.8235 4.13339 2.50124C4.4166 2.15944 4.94394 2.53053 4.6705 2.89186C4.49472 3.136 4.45566 3.26295 4.45566 3.4192C4.45566 3.94655 5.0416 4.08327 5.0416 4.78639C5.0416 5.46999 4.45566 5.61647 4.45566 6.12428C4.45566 6.30983 4.49472 6.42702 4.6705 6.68092C4.94394 7.03249 4.4166 7.41335 4.13339 7.06178ZM5.99863 7.06178C5.74472 6.73952 5.6373 6.43678 5.6373 6.12428C5.6373 5.37233 6.233 5.21608 6.233 4.78639C6.233 4.33717 5.6373 4.19069 5.6373 3.4192C5.6373 3.11647 5.74472 2.8235 5.99863 2.50124C6.27207 2.15944 6.78964 2.53053 6.51621 2.89186C6.35019 3.136 6.30136 3.26295 6.30136 3.4192C6.30136 3.94655 6.87754 4.08327 6.87754 4.78639C6.87754 5.46999 6.30136 5.61647 6.30136 6.12428C6.30136 6.30983 6.35019 6.42702 6.51621 6.68092C6.78964 7.03249 6.27207 7.41335 5.99863 7.06178ZM12.7369 6.78835C13.0982 6.78835 13.3814 6.50514 13.3814 6.14381L13.3814 3.32155L14.5631 3.32155C15.1588 3.32155 15.442 2.70631 15.0318 2.26686L13.1861 0.21608C12.9127-0.0671232 12.5807-0.0768888 12.3072 0.21608L10.4615 2.26686C10.0807 2.68678 10.2955 3.32155 10.9303 3.32155L12.1021 3.32155L12.1021 6.14381C12.1021 6.50514 12.3853 6.78835 12.7369 6.78835Z" fill="white" fill-opacity="0.85"/>
 </g>
</svg>
