<?xml version="1.0" encoding="UTF-8"?>
<!--Generator: Apple Native CoreSVG 341-->
<!DOCTYPE svg
PUBLIC "-//W3C//DTD SVG 1.1//EN"
       "http://www.w3.org/Graphics/SVG/1.1/DTD/svg11.dtd">
<svg version="1.1" xmlns="http://www.w3.org/2000/svg" xmlns:xlink="http://www.w3.org/1999/xlink" viewBox="0 0 16.1328 15.7715">
 <g>
  <rect height="15.7715" opacity="0" width="16.1328" x="0" y="0"/>
  <path d="M15.7715 7.88086C15.7715 12.2266 12.2363 15.7617 7.88086 15.7617C3.53516 15.7617 0 12.2266 0 7.88086C0 3.53516 3.53516 0 7.88086 0C12.2363 0 15.7715 3.53516 15.7715 7.88086ZM5.69336 12.959C5.69336 13.1641 5.86914 13.3398 6.08398 13.3398C6.28906 13.3398 6.47461 13.1641 6.47461 12.959C6.47461 12.7441 6.28906 12.5684 6.08398 12.5684C5.86914 12.5684 5.69336 12.7441 5.69336 12.959ZM8.7207 12.959C8.7207 13.1641 8.90625 13.3398 9.11133 13.3398C9.32617 13.3398 9.49219 13.1641 9.49219 12.959C9.49219 12.7441 9.32617 12.5684 9.11133 12.5684C8.90625 12.5684 8.7207 12.7441 8.7207 12.959ZM6.16211 4.58984C6.02539 4.58984 5.86914 4.6582 5.79102 4.79492L4.89258 6.14258C4.76562 6.34766 4.80469 6.63086 5.01953 6.75781C5.22461 6.89453 5.51758 6.83594 5.64453 6.63086L6.40625 5.47852L7.14844 5.47852C7.20703 5.47852 7.24609 5.54688 7.20703 5.5957L6.44531 6.73828C6.2207 7.08008 6.25977 7.56836 6.5625 7.87109L8.20312 9.51172L8.20312 11.7773L6.08398 11.7773C5.67383 11.7773 5.45898 11.709 5.23438 11.5332C5.06836 11.416 4.90234 11.4453 4.80469 11.5527C4.70703 11.6699 4.67773 11.8555 4.84375 11.9922C5.16602 12.2754 5.58594 12.373 6.08398 12.373L9.11133 12.373C9.60938 12.373 10.0293 12.2754 10.3516 11.9922C10.498 11.8555 10.498 11.6895 10.4102 11.5625C10.3223 11.4453 10.1367 11.3965 9.9707 11.5332C9.73633 11.709 9.52148 11.7773 9.10156 11.7773L9.10156 9.38477C9.10156 9.24805 9.0625 9.13086 8.97461 9.00391L7.88086 7.61719L8.81836 6.18164C8.87695 6.08398 9.01367 6.08398 9.0625 6.19141L9.375 6.81641C9.44336 6.95312 9.59961 7.06055 9.77539 7.06055L11.582 7.06055C11.8359 7.06055 12.0312 6.86523 12.0312 6.62109C12.0312 6.36719 11.8359 6.16211 11.582 6.16211L10.0586 6.16211L9.58008 5.20508C9.38477 4.83398 9.00391 4.58984 8.57422 4.58984ZM3.79883 7.89062C3.64258 8.08594 3.65234 8.36914 3.83789 8.52539L5.61523 10.0879C5.88867 10.3223 6.20117 10.1953 6.34766 9.98047L7.03125 8.90625L6.25 8.125L5.80078 9.04297L4.44336 7.85156C4.24805 7.68555 3.96484 7.69531 3.79883 7.89062ZM8.64258 3.44727C8.64258 3.97461 9.07227 4.41406 9.59961 4.41406C10.1367 4.41406 10.5664 3.97461 10.5664 3.44727C10.5664 2.91992 10.1367 2.49023 9.59961 2.49023C9.07227 2.49023 8.64258 2.91992 8.64258 3.44727Z" fill="white" fill-opacity="0.85"/>
 </g>
</svg>
