<?xml version="1.0" encoding="UTF-8"?>
<!--Generator: Apple Native CoreSVG 341-->
<!DOCTYPE svg
PUBLIC "-//W3C//DTD SVG 1.1//EN"
       "http://www.w3.org/Graphics/SVG/1.1/DTD/svg11.dtd">
<svg version="1.1" xmlns="http://www.w3.org/2000/svg" xmlns:xlink="http://www.w3.org/1999/xlink" viewBox="0 0 24.7155 15.7715">
 <g>
  <rect height="15.7715" opacity="0" width="24.7155" x="0" y="0"/>
  <path d="M3.87632 4.22852C2.71421 4.22852 1.78647 3.25195 1.78647 2.12891C1.78647 0.957031 2.71421 0 3.87632 0C5.04819 0 5.99546 0.957031 5.99546 2.12891C5.99546 3.26172 5.04819 4.22852 3.87632 4.22852ZM16.3861 15.3418C15.9857 15.7617 15.3021 15.7324 14.8041 15.2246L11.4544 11.7773C11.347 11.6602 11.2689 11.6309 11.1029 11.6992L8.53452 12.6758C6.84507 13.3105 5.25327 12.8027 4.54038 11.5039L2.82163 8.38867C2.1771 7.19727 2.38218 5.97656 3.50522 5.37109C4.60874 4.76562 5.74155 5.22461 6.40561 6.43555L8.58335 10.4102L10.4388 9.73633C11.347 9.4043 12.1185 9.51172 12.8509 10.2637L16.3177 13.8574C16.806 14.3555 16.7572 14.9707 16.3861 15.3418Z" fill="white" fill-opacity="0.85"/>
  <path d="M16.0248 2.62695L18.1341 5.30273C18.2318 5.41992 18.3685 5.44922 18.5052 5.37109C19.0228 5.09766 19.7357 4.92188 20.2923 4.92188C20.8587 4.92188 21.5814 5.09766 22.0697 5.37109C22.2162 5.44922 22.3724 5.41992 22.4603 5.30273L24.5697 2.62695C24.7943 2.33398 24.7552 2.04102 24.4818 1.81641C23.6419 1.16211 22.0306 0.664062 20.2923 0.664062C18.5638 0.664062 16.9525 1.16211 16.1126 1.81641C15.8294 2.04102 15.8001 2.33398 16.0248 2.62695ZM18.183 6.83594C17.9388 6.51367 17.8314 6.21094 17.8314 5.89844C17.8314 5.14648 18.4271 4.99023 18.4271 4.56055C18.4271 4.11133 17.8314 3.96484 17.8314 3.19336C17.8314 2.89062 17.9388 2.59766 18.183 2.27539C18.4662 1.93359 18.9837 2.30469 18.7103 2.66602C18.5345 2.91016 18.4857 3.03711 18.4857 3.19336C18.4857 3.7207 19.0716 3.85742 19.0716 4.56055C19.0716 5.24414 18.4857 5.39062 18.4857 5.89844C18.4857 6.08398 18.5345 6.20117 18.7005 6.45508C18.9837 6.80664 18.4662 7.1875 18.183 6.83594ZM20.0091 6.83594C19.7845 6.51367 19.6771 6.21094 19.6771 5.89844C19.6771 5.14648 20.263 4.99023 20.263 4.56055C20.263 4.11133 19.6771 3.96484 19.6771 3.19336C19.6771 2.89062 19.7845 2.59766 20.0189 2.27539C20.3021 1.93359 20.8294 2.30469 20.5462 2.66602C20.3705 2.91016 20.3314 3.03711 20.3314 3.19336C20.3314 3.7207 20.9173 3.85742 20.9173 4.56055C20.9173 5.24414 20.3314 5.39062 20.3314 5.89844C20.3314 6.08398 20.3705 6.20117 20.5462 6.45508C20.8294 6.80664 20.3021 7.1875 20.0091 6.83594ZM21.8744 6.83594C21.6205 6.51367 21.5228 6.21094 21.5228 5.89844C21.5228 5.14648 22.1087 4.99023 22.1087 4.56055C22.1087 4.11133 21.5228 3.96484 21.5228 3.19336C21.5228 2.89062 21.6205 2.59766 21.8744 2.27539C22.1576 1.93359 22.6654 2.30469 22.3919 2.66602C22.2259 2.91016 22.1771 3.03711 22.1771 3.19336C22.1771 3.7207 22.763 3.85742 22.763 4.56055C22.763 5.24414 22.1771 5.39062 22.1771 5.89844C22.1771 6.08398 22.2259 6.20117 22.3919 6.45508C22.6654 6.80664 22.1576 7.1875 21.8744 6.83594ZM12.4798 3.69141C12.7728 3.69141 13.0169 3.45703 13.0267 3.125C13.0267 2.83203 12.7728 2.58789 12.4798 2.58789L8.89585 2.58789C8.59311 2.58789 8.34897 2.83203 8.34897 3.125C8.34897 3.45703 8.59311 3.69141 8.89585 3.69141ZM10.3998 1.58203C10.3998 1.03516 9.85288 0.839844 9.48179 1.18164L7.7435 2.77344C7.4896 2.99805 7.47983 3.29102 7.7435 3.52539L9.48179 5.10742C9.87241 5.44922 10.3998 5.22461 10.3998 4.70703ZM15.0873 4.39453C15.0873 4.07227 14.8529 3.83789 14.5501 3.83789C14.2474 3.84766 13.9935 4.08203 13.9935 4.39453L13.9935 7.96875C13.9935 8.28125 14.2474 8.51562 14.5501 8.52539C14.8529 8.52539 15.0873 8.29102 15.0873 7.96875ZM12.9779 6.45508C12.4505 6.45508 12.2455 6.97266 12.5873 7.36328L14.1595 9.13086C14.3939 9.38477 14.6673 9.36523 14.9115 9.12109L16.5228 7.37305C16.8548 7.01172 16.6693 6.45508 16.1029 6.45508Z" fill="white" fill-opacity="0.85"/>
 </g>
</svg>
