<?xml version="1.0" encoding="UTF-8"?>
<!--Generator: Apple Native CoreSVG 341-->
<!DOCTYPE svg
PUBLIC "-//W3C//DTD SVG 1.1//EN"
       "http://www.w3.org/Graphics/SVG/1.1/DTD/svg11.dtd">
<svg version="1.1" xmlns="http://www.w3.org/2000/svg" xmlns:xlink="http://www.w3.org/1999/xlink" viewBox="0 0 21.3628 18.6035">
 <g>
  <rect height="18.6035" opacity="0" width="21.3628" x="0" y="0"/>
  <path d="M17.6394 4.47266C18.489 4.47266 19.1726 3.78906 19.1726 2.92969C19.1726 2.08008 18.489 1.39648 17.6394 1.39648C16.78 1.39648 16.0867 2.08008 16.0867 2.92969C16.0867 3.78906 16.78 4.47266 17.6394 4.47266ZM16.6921 17.0801C17.0828 17.0801 17.3855 16.7773 17.3855 16.3867L17.3855 11.4062C17.3855 11.2695 17.5027 11.1621 17.6394 11.1621C17.7566 11.1621 17.8738 11.2695 17.8738 11.4062L17.8738 16.3867C17.8738 16.7773 18.1863 17.0801 18.5769 17.0801C18.9578 17.0801 19.2605 16.7773 19.2605 16.3867L19.2605 8.19336C19.2605 8.05664 19.3679 7.95898 19.5046 7.95898C19.6316 7.95898 19.7292 8.05664 19.7292 8.19336L19.7292 10.8984C19.7292 11.2598 20.0124 11.543 20.3738 11.543C20.7156 11.543 20.9988 11.2598 20.9988 10.8984L20.9988 7.87109C20.9988 6.30859 19.8562 5.27344 18.157 5.27344L17.1023 5.27344C15.4031 5.27344 14.2605 6.30859 14.2605 7.87109L14.2605 10.8984C14.2605 11.2598 14.5437 11.543 14.8953 11.543C15.2468 11.543 15.53 11.2598 15.53 10.8984L15.53 8.19336C15.53 8.05664 15.6374 7.95898 15.7546 7.95898C15.8913 7.95898 15.9988 8.05664 15.9988 8.19336L15.9988 16.3867C15.9988 16.7773 16.3113 17.0801 16.6921 17.0801Z" fill="white" fill-opacity="0.85"/>
  <path d="M11.116 18.5938C11.5163 18.5938 11.8191 18.3008 11.8191 17.9102L11.8191 0.683594C11.8191 0.292969 11.5163 0 11.116 0C10.7253 0 10.4128 0.292969 10.4128 0.683594L10.4128 17.9102C10.4128 18.3008 10.7253 18.5938 11.116 18.5938Z" fill="white" fill-opacity="0.425"/>
  <path d="M4.21166 4.47266C5.07103 4.47266 5.75463 3.78906 5.75463 2.92969C5.75463 2.08008 5.07103 1.39648 4.21166 1.39648C3.36205 1.39648 2.66869 2.08008 2.66869 2.92969C2.66869 3.78906 3.36205 4.47266 4.21166 4.47266ZM3.27416 17.0801C3.66478 17.0801 3.96752 16.7773 3.96752 16.3867L3.96752 13.3203C3.96752 13.1934 4.0847 13.0859 4.21166 13.0859C4.33861 13.0859 4.4558 13.1934 4.4558 13.3203L4.4558 16.3867C4.4558 16.7773 4.75853 17.0801 5.14916 17.0801C5.53002 17.0801 5.84252 16.7773 5.84252 16.3867L5.84252 13.3203L6.73119 13.3203C7.13158 13.3203 7.30736 12.9785 7.18041 12.5879L5.78392 8.28125C5.6765 7.93945 6.12572 7.80273 6.24291 8.1543L7.13158 10.791C7.41478 11.6602 8.66478 11.3184 8.37181 10.4492L7.56127 8.00781C6.98509 6.29883 6.47728 5.27344 4.4558 5.27344L3.96752 5.27344C1.94603 5.27344 1.43822 6.29883 0.862047 8.00781L0.0417346 10.4492C-0.241469 11.3184 0.998766 11.6602 1.29173 10.791L2.18041 8.1543C2.29759 7.80273 2.74681 7.93945 2.63939 8.28125L1.23314 12.5879C1.11595 12.9785 1.28197 13.3203 1.69213 13.3203L2.5808 13.3203L2.5808 16.3867C2.5808 16.7773 2.8933 17.0801 3.27416 17.0801Z" fill="white" fill-opacity="0.85"/>
 </g>
</svg>
