<?xml version="1.0" encoding="UTF-8"?>
<!--Generator: Apple Native CoreSVG 341-->
<!DOCTYPE svg
PUBLIC "-//W3C//DTD SVG 1.1//EN"
       "http://www.w3.org/Graphics/SVG/1.1/DTD/svg11.dtd">
<svg version="1.1" xmlns="http://www.w3.org/2000/svg" xmlns:xlink="http://www.w3.org/1999/xlink" viewBox="0 0 16.1328 15.7715">
 <g>
  <rect height="15.7715" opacity="0" width="16.1328" x="0" y="0"/>
  <path d="M7.88086 15.7617C12.2363 15.7617 15.7715 12.2266 15.7715 7.88086C15.7715 3.53516 12.2363 0 7.88086 0C3.53516 0 0 3.53516 0 7.88086C0 12.2266 3.53516 15.7617 7.88086 15.7617Z" fill="white" fill-opacity="0.2125"/>
  <path d="M6.13281 12.3535C5.82031 12.3535 5.78125 11.9238 6.07422 11.8164L6.64062 11.6309L6.2793 10.0293C6.23047 9.80469 6.26953 9.64844 6.36719 9.47266L7.02148 8.36914C6.11328 8.00781 5.23438 7.38281 5 6.49414C4.98047 6.40625 4.89258 6.32812 4.72656 6.36719L2.69531 6.72852C2.38281 6.77734 2.19727 6.58203 2.1582 6.36719C2.10938 6.14258 2.22656 5.89844 2.50977 5.84961L9.43359 4.58008C9.74609 4.53125 9.93164 4.70703 9.9707 4.93164C10.0293 5.15625 9.92188 5.41992 9.60938 5.46875L7.10938 5.9082C7.00195 5.9375 6.92383 6.04492 6.98242 6.17188C7.14844 6.62109 7.93945 6.95312 8.41797 7.03125L10.0781 7.12891L12.7539 6.66016C12.9199 6.63086 13.0371 6.69922 13.0664 6.88477L13.2812 8.04688C13.3301 8.34961 12.8809 8.4375 12.7441 8.19336L12.4512 7.62695L8.54492 8.33984L7.2168 9.9707L7.66602 11.9824C7.72461 12.207 7.62695 12.3535 7.42188 12.3535ZM5.49805 4.79492C4.96094 4.79492 4.54102 4.375 4.54102 3.84766C4.54102 3.31055 4.96094 2.89062 5.49805 2.89062C6.03516 2.89062 6.46484 3.31055 6.46484 3.84766C6.46484 4.375 6.03516 4.79492 5.49805 4.79492ZM5.89844 13.0566C5.80078 13.0566 5.71289 12.9785 5.71289 12.8613C5.71289 12.7539 5.80078 12.666 5.89844 12.666L7.60742 12.666C7.72461 12.666 7.8125 12.7539 7.8125 12.8613C7.8125 12.9785 7.72461 13.0566 7.60742 13.0566ZM14.0332 8.26172C14.0527 8.38867 13.9844 8.49609 13.877 8.50586C13.7598 8.52539 13.6523 8.44727 13.6328 8.33008L13.3301 6.66016C13.3203 6.54297 13.3789 6.45508 13.4961 6.43555C13.6133 6.41602 13.7109 6.48438 13.7305 6.5918Z" fill="white" fill-opacity="0.85"/>
 </g>
</svg>
