<?xml version="1.0" encoding="UTF-8"?>
<!--Generator: Apple Native CoreSVG 341-->
<!DOCTYPE svg
PUBLIC "-//W3C//DTD SVG 1.1//EN"
       "http://www.w3.org/Graphics/SVG/1.1/DTD/svg11.dtd">
<svg version="1.1" xmlns="http://www.w3.org/2000/svg" xmlns:xlink="http://www.w3.org/1999/xlink" viewBox="0 0 16.1328 15.7715">
 <g>
  <rect height="15.7715" opacity="0" width="16.1328" x="0" y="0"/>
  <path d="M7.88086 15.7617C12.2363 15.7617 15.7715 12.2266 15.7715 7.88086C15.7715 3.53516 12.2363 0 7.88086 0C3.53516 0 0 3.53516 0 7.88086C0 12.2266 3.53516 15.7617 7.88086 15.7617Z" fill="white" fill-opacity="0.2125"/>
  <path d="M5.39062 5.29297C4.89258 5.29297 4.49219 4.88281 4.49219 4.38477C4.49219 3.88672 4.89258 3.48633 5.39062 3.48633C5.88867 3.48633 6.29883 3.88672 6.29883 4.38477C6.29883 4.88281 5.88867 5.29297 5.39062 5.29297ZM10.7031 5.09766C10.2148 5.09766 9.81445 4.6875 9.81445 4.18945C9.81445 3.69141 10.2148 3.29102 10.7031 3.29102C11.2012 3.29102 11.6113 3.69141 11.6113 4.18945C11.6113 4.6875 11.2012 5.09766 10.7031 5.09766ZM2.88086 6.38672C2.58789 6.36719 2.38281 6.08398 2.49023 5.79102L3.00781 4.22852C3.08594 3.99414 3.33984 3.86719 3.57422 3.93555C3.81836 4.02344 3.93555 4.26758 3.85742 4.52148L3.51562 5.53711L5.39062 5.67383C5.61523 5.69336 5.82031 5.75195 6.02539 5.84961L7.35352 6.52344L8.73047 6.52344L9.59961 5.78125C10.0098 5.41992 10.5664 5.32227 11.0742 5.49805L12.3145 5.9082L12.1973 4.83398C12.168 4.58984 12.3633 4.35547 12.6074 4.33594C12.8516 4.30664 13.0859 4.49219 13.1055 4.74609L13.2715 6.5332C13.3203 6.89453 13.0371 7.09961 12.6855 6.98242L12.168 6.81641C12.0605 6.78711 11.9727 6.85547 11.9922 6.96289L12.1484 7.8418C12.2168 8.27148 12.1289 8.73047 11.875 9.10156L10.8594 10.5371L11.6016 12.3926C11.6895 12.6172 11.582 12.8809 11.3477 12.9688C11.1328 13.0566 10.8594 12.9688 10.752 12.7148L9.92188 10.6543C9.86328 10.5078 9.90234 10.3711 9.9707 10.2344L10.5762 9.0332L9.31641 9.22852L9.14062 10.9375C9.12109 11.1816 8.92578 11.3477 8.69141 11.3477C8.4668 11.3477 8.21289 11.1523 8.25195 10.8594L8.44727 8.79883C8.4668 8.60352 8.60352 8.44727 8.78906 8.39844L10.5859 7.91016L10.1562 6.71875C10.127 6.63086 10.0293 6.60156 9.95117 6.66016L9.18945 7.32422C9.11133 7.39258 9.01367 7.42188 8.89648 7.42188L7.31445 7.42188C7.19727 7.42188 7.08008 7.39258 7.01172 7.35352L5.95703 6.83594C5.87891 6.79688 5.79102 6.8457 5.78125 6.93359L5.64453 8.29102L8.63281 12.0605C8.79883 12.2656 8.75977 12.5391 8.55469 12.7051C8.36914 12.8613 8.07617 12.8125 7.91992 12.627L6.25977 10.498C6.25977 10.5371 6.25 10.5762 6.24023 10.6152L5.61523 12.6855C5.53711 12.9492 5.2832 13.0469 5.05859 12.9883C4.81445 12.9199 4.67773 12.666 4.75586 12.4219L5.30273 10.5859L4.21875 9.19922C4.01367 8.93555 3.90625 8.60352 3.90625 8.26172L3.90625 6.57227C3.90625 6.51367 3.85742 6.45508 3.80859 6.45508Z" fill="white" fill-opacity="0.85"/>
 </g>
</svg>
