<?xml version="1.0" encoding="UTF-8"?>
<!--Generator: Apple Native CoreSVG 341-->
<!DOCTYPE svg
PUBLIC "-//W3C//DTD SVG 1.1//EN"
       "http://www.w3.org/Graphics/SVG/1.1/DTD/svg11.dtd">
<svg version="1.1" xmlns="http://www.w3.org/2000/svg" xmlns:xlink="http://www.w3.org/1999/xlink" viewBox="0 0 16.1328 15.7715">
 <g>
  <rect height="15.7715" opacity="0" width="16.1328" x="0" y="0"/>
  <path d="M7.88086 15.7617C12.2363 15.7617 15.7715 12.2363 15.7715 7.88086C15.7715 3.52539 12.2363 0 7.88086 0C3.53516 0 0 3.52539 0 7.88086C0 12.2363 3.53516 15.7617 7.88086 15.7617ZM7.88086 14.2773C4.3457 14.2773 1.49414 11.416 1.49414 7.88086C1.49414 4.3457 4.3457 1.48438 7.88086 1.48438C11.416 1.48438 14.2773 4.3457 14.2773 7.88086C14.2773 11.416 11.416 14.2773 7.88086 14.2773Z" fill="white" fill-opacity="0.425"/>
  <path d="M5.41016 6.31836C5.9082 6.31836 6.31836 5.9082 6.31836 5.39062C6.31836 4.88281 5.9082 4.47266 5.41016 4.47266C4.89258 4.47266 4.48242 4.88281 4.48242 5.39062C4.48242 5.9082 4.89258 6.31836 5.41016 6.31836ZM7.69531 10.7324L9.00391 8.93555L9.83398 10.4492C10.1074 11.748 10.1367 12.4707 10.1367 12.6172C10.1367 12.8809 10.332 13.0762 10.5762 13.0762C10.8203 13.0762 11.0059 12.8809 11.0059 12.627C11.0059 12.3633 10.9961 11.3281 10.6738 10.2051L10.6543 10.1367C10.166 8.41797 9.18945 5.16602 6.31836 3.26172C6.18164 3.17383 6.05469 3.125 5.89844 3.125L4.43359 3.125C4.19922 3.125 4.00391 3.32031 4.00391 3.56445C4.00391 3.80859 4.19922 4.00391 4.43359 4.00391L5.86914 4.00391C6.31836 4.31641 6.71875 4.6582 7.07031 5.01953C7.11914 5.06836 7.12891 5.13672 7.09961 5.19531L5.63477 7.68555C5.44922 7.99805 5.67383 8.33984 6.00586 8.33984L8.00781 8.33984L6.95312 10.2637L6.91406 10.3418L5.78125 12.4316C5.67383 12.6367 5.74219 12.9102 5.94727 13.0176C6.15234 13.125 6.40625 13.0859 6.54297 12.8418ZM6.76758 7.4707L7.08984 6.92383C7.13867 6.82617 7.24609 6.8457 7.28516 6.91406L7.65625 7.4707Z" fill="white" fill-opacity="0.85"/>
 </g>
</svg>
