<?xml version="1.0" encoding="UTF-8"?>
<!--Generator: Apple Native CoreSVG 341-->
<!DOCTYPE svg
PUBLIC "-//W3C//DTD SVG 1.1//EN"
       "http://www.w3.org/Graphics/SVG/1.1/DTD/svg11.dtd">
<svg version="1.1" xmlns="http://www.w3.org/2000/svg" xmlns:xlink="http://www.w3.org/1999/xlink" viewBox="0 0 16.1328 15.7715">
 <g>
  <rect height="15.7715" opacity="0" width="16.1328" x="0" y="0"/>
  <path d="M7.88086 15.7617C12.2363 15.7617 15.7715 12.2363 15.7715 7.88086C15.7715 3.52539 12.2363 0 7.88086 0C3.53516 0 0 3.52539 0 7.88086C0 12.2363 3.53516 15.7617 7.88086 15.7617ZM7.88086 14.2773C4.3457 14.2773 1.49414 11.416 1.49414 7.88086C1.49414 4.3457 4.3457 1.48438 7.88086 1.48438C11.416 1.48438 14.2773 4.3457 14.2773 7.88086C14.2773 11.416 11.416 14.2773 7.88086 14.2773Z" fill="white" fill-opacity="0.425"/>
  <path d="M8.17383 4.375C8.68164 4.375 9.0918 3.95508 9.0918 3.44727C9.0918 2.93945 8.68164 2.5293 8.17383 2.5293C7.65625 2.5293 7.24609 2.93945 7.24609 3.44727C7.24609 3.95508 7.65625 4.375 8.17383 4.375ZM9.16016 6.81641C9.3457 7.00195 9.66797 6.98242 9.81445 6.74805L10.8496 5.09766C11.1621 4.58984 10.4102 4.18945 10.127 4.64844L9.38477 5.84961L8.79883 5.26367C8.24219 4.70703 7.62695 4.58984 6.77734 4.6875L5.27344 4.85352C5.07812 4.87305 4.92188 5.03906 4.90234 5.21484L4.6875 6.88477C4.61914 7.41211 5.45898 7.54883 5.52734 6.98242L5.69336 5.6543L6.47461 5.56641C6.5918 5.55664 6.66992 5.63477 6.65039 5.75195L6.44531 7.37305C6.34766 8.14453 6.79688 8.58398 7.55859 8.53516L9.11133 8.42773L8.64258 10.1172C8.48633 10.6934 9.31641 10.8887 9.46289 10.3418L10.0684 8.07617C10.1465 7.79297 9.95117 7.54883 9.62891 7.54883L8.02734 7.54883L8.23242 6.16211C8.25195 6.02539 8.36914 6.02539 8.44727 6.10352ZM6.86523 8.82812L6.75781 10.3613L5.9668 12.3535C5.83008 12.7051 6.08398 12.9492 6.34766 12.9492C6.51367 12.9492 6.66992 12.8613 6.75781 12.6465L7.56836 10.6152C7.57812 10.5762 7.58789 10.5469 7.59766 10.5176L7.8418 8.90625L7.58789 8.92578C7.32422 8.94531 7.13867 8.92578 6.86523 8.82812Z" fill="white" fill-opacity="0.85"/>
 </g>
</svg>
