<?xml version="1.0" encoding="UTF-8"?>
<!--Generator: Apple Native CoreSVG 341-->
<!DOCTYPE svg
PUBLIC "-//W3C//DTD SVG 1.1//EN"
       "http://www.w3.org/Graphics/SVG/1.1/DTD/svg11.dtd">
<svg version="1.1" xmlns="http://www.w3.org/2000/svg" xmlns:xlink="http://www.w3.org/1999/xlink" viewBox="0 0 16.1328 15.7715">
 <g>
  <rect height="15.7715" opacity="0" width="16.1328" x="0" y="0"/>
  <path d="M7.88086 15.7617C12.2363 15.7617 15.7715 12.2266 15.7715 7.88086C15.7715 3.53516 12.2363 0 7.88086 0C3.53516 0 0 3.53516 0 7.88086C0 12.2266 3.53516 15.7617 7.88086 15.7617Z" fill="white" fill-opacity="0.2125"/>
  <path d="M8.66211 5.60547C8.125 5.60547 7.69531 5.17578 7.69531 4.64844C7.69531 4.12109 8.125 3.69141 8.66211 3.69141C9.18945 3.69141 9.60938 4.12109 9.60938 4.64844C9.60938 5.17578 9.18945 5.60547 8.66211 5.60547ZM9.35547 8.61328L7.29492 8.61328C7.04102 8.61328 6.83594 8.4082 6.83594 8.1543L6.83594 7.09961C6.83594 6.93359 6.76758 6.875 6.58203 6.9043L4.75586 7.25586C4.67773 7.26562 4.63867 7.37305 4.70703 7.44141L6.00586 8.75C6.11328 8.86719 6.15234 8.94531 6.15234 9.12109L6.15234 11.6113C6.15234 11.8652 5.9375 12.0703 5.68359 12.0703C5.42969 12.0703 5.22461 11.8652 5.22461 11.6113L5.22461 9.29688L3.52539 7.80273C2.83203 7.17773 3.0957 6.02539 4.07227 5.82031L6.78711 5.26367C7.29492 5.14648 7.75391 5.50781 7.75391 6.05469L7.75391 7.69531L9.35547 7.69531C9.61914 7.69531 9.82422 7.90039 9.82422 8.1543C9.82422 8.4082 9.61914 8.61328 9.35547 8.61328ZM11.8457 10.4199C11.4844 10.4199 11.1328 10.2051 10.9766 9.89258L10.5762 9.0918C10.4785 8.87695 10.5957 8.70117 10.7715 8.64258C10.8984 8.61328 11.0645 8.64258 11.1523 8.79883L11.5527 9.59961C11.6016 9.7168 11.6992 9.78516 11.8457 9.78516L12.2754 9.78516L12.2754 6.2793L11.8262 6.2793C10.6152 6.2793 9.83398 6.55273 9.0625 7.30469C9.05273 7.30469 9.02344 7.30469 9.00391 7.30469L8.20312 7.30469C9.23828 6.07422 10.2051 5.64453 11.8262 5.64453L12.4902 5.64453C12.7344 5.64453 12.9004 5.82031 12.9004 6.06445L12.9004 10C12.9004 10.2344 12.7344 10.4199 12.4805 10.4199ZM6.54297 10.2148L6.54297 9.38477C6.68945 9.24805 6.82617 9.11133 6.97266 8.94531C7.06055 8.98438 7.1875 9.00391 7.29492 9.00391L7.73438 9.00391C7.40234 9.44336 7.03125 9.88281 6.54297 10.2148ZM3.37891 10.8887C3.21289 10.8887 3.06641 10.7324 3.06641 10.5762C3.06641 10.3906 3.21289 10.2539 3.37891 10.2539L4.14062 10.2539C4.39453 10.2539 4.61914 10.2344 4.83398 10.1953L4.83398 10.8398C4.61914 10.8789 4.38477 10.8887 4.14062 10.8887Z" fill="white" fill-opacity="0.85"/>
 </g>
</svg>
