<?xml version="1.0" encoding="UTF-8"?>
<!--Generator: Apple Native CoreSVG 341-->
<!DOCTYPE svg
PUBLIC "-//W3C//DTD SVG 1.1//EN"
       "http://www.w3.org/Graphics/SVG/1.1/DTD/svg11.dtd">
<svg version="1.1" xmlns="http://www.w3.org/2000/svg" xmlns:xlink="http://www.w3.org/1999/xlink" viewBox="0 0 18.0566 17.0605">
 <g>
  <rect height="17.0605" opacity="0" width="18.0566" x="0" y="0"/>
  <path d="M9.84375 3.39844C10.7715 3.39844 11.543 2.62695 11.543 1.69922C11.543 0.761719 10.7715 0 9.84375 0C8.90625 0 8.14453 0.761719 8.14453 1.69922C8.14453 2.62695 8.90625 3.39844 9.84375 3.39844ZM12.0215 16.875C12.3535 16.748 12.6172 16.4062 12.4805 15.9277L11.3086 11.8262C11.25 11.6309 11.1426 11.4746 10.957 11.377L8.49609 9.93164L9.66797 6.46484C9.75586 6.20117 10.0391 6.17188 10.2246 6.36719L11.9727 8.0957C12.1191 8.24219 12.3047 8.33008 12.5098 8.33008C12.7148 8.33008 12.9102 8.25195 13.0664 8.0957L15.4102 5.75195C15.7129 5.43945 15.7227 4.96094 15.4102 4.64844C15.1074 4.3457 14.6191 4.33594 14.3066 4.64844L12.5098 6.44531L11.0059 4.89258C10.3125 4.16992 9.58008 4.0332 8.14453 4.0332L0.791016 4.0332C0.361328 4.0332 0 4.375 0 4.81445C0 5.24414 0.361328 5.5957 0.791016 5.5957L6.25 5.5957C6.47461 5.5957 6.67969 5.78125 6.57227 6.08398L5.66406 8.81836C5.3418 9.78516 5.80078 10.8203 6.72852 11.2305L9.90234 12.6172L10.9863 16.3379C11.1426 16.8848 11.6309 17.0215 12.0215 16.875ZM2.08984 16.6016C2.29492 16.9043 2.69531 17.0605 3.13477 16.8262L6.62109 14.8926C6.79688 14.7949 6.92383 14.6387 6.99219 14.4336L7.65625 12.4707L6.42578 11.9336C6.2793 11.8652 6.14258 11.7969 6.00586 11.709L5.57617 13.6719L2.38281 15.459C1.88477 15.7422 1.86523 16.2598 2.08984 16.6016ZM12.9004 10.166L17.6953 10.166L17.6953 9.21875L12.9004 9.21875C12.6367 9.21875 12.4316 9.42383 12.4316 9.6875C12.4316 9.95117 12.6367 10.166 12.9004 10.166ZM1.04492 4.29688L1.89453 4.29688L1.89453 3.20312L1.04492 3.20312ZM1.46484 0.273438C0.654297 0.273438 0 0.917969 0 1.74805C0 2.49023 0.654297 3.38867 1.46484 3.57422C2.28516 3.38867 2.92969 2.49023 2.92969 1.74805C2.92969 0.917969 2.28516 0.273438 1.46484 0.273438Z" fill="white" fill-opacity="0.85"/>
 </g>
</svg>
