<svg version="1.1" xmlns="http://www.w3.org/2000/svg" xmlns:xlink="http://www.w3.org/1999/xlink" viewBox="0 0 16.1328 15.7715">
 <g>
  <rect height="15.7715" opacity="0" width="16.1328" x="0" y="0"/>
  <path d="M7.88086 15.7617C12.2363 15.7617 15.7715 12.2266 15.7715 7.88086C15.7715 3.53516 12.2363 0 7.88086 0C3.53516 0 0 3.53516 0 7.88086C0 12.2266 3.53516 15.7617 7.88086 15.7617Z" fill="var(--color-tertiary)"/>
  <path d="M8.49609 4.58984C7.96875 4.58984 7.53906 4.16016 7.53906 3.63281C7.53906 3.10547 7.96875 2.67578 8.49609 2.67578C9.0332 2.67578 9.46289 3.10547 9.46289 3.63281C9.46289 4.16016 9.0332 4.58984 8.49609 4.58984ZM8.00781 10.9863C7.82227 10.9863 7.72461 10.8887 7.72461 10.7227L7.72461 8.97461L6.15234 8.57422C5.36133 8.36914 5.06836 7.70508 5.44922 6.94336L5.73242 6.37695L5.22461 6.10352C4.89258 5.92773 4.81445 5.46875 5.23438 5.29297L6.60156 4.73633C7.07031 4.54102 7.56836 4.62891 7.96875 4.92188L9.84375 6.31836C10 6.43555 10.0391 6.51367 10.0391 6.67969L10.0391 8.56445C10.0391 8.59375 10.0391 8.60352 10.0293 8.64258L11.5625 10.0391L13.0078 10.0391C13.1445 10.0391 13.2812 10.1758 13.2812 10.3125L13.2812 10.5371C13.2812 10.6738 13.1445 10.8008 13.0078 10.8008L11.6699 10.8008C11.6016 10.8008 11.5527 10.791 11.4844 10.7227L9.61914 9.00391C9.375 9.00391 9.17969 8.82812 9.16992 8.58398L7.42188 6.97266L7.09961 7.59766L8.30078 8.1543C8.47656 8.23242 8.59375 8.38867 8.59375 8.56445L8.59375 10.2441L9.23828 10.4492C9.51172 10.5371 9.50195 10.9863 9.18945 10.9863ZM9.16992 7.85156L9.16992 6.93359L7.98828 6.17188C7.91992 6.12305 7.83203 6.15234 7.80273 6.2207L7.67578 6.48438ZM7.83203 11.6895C7.72461 11.6895 7.62695 11.6016 7.62695 11.4941C7.62695 11.377 7.72461 11.2891 7.83203 11.2891L9.53125 11.2891C9.64844 11.2891 9.74609 11.377 9.74609 11.4941C9.74609 11.6016 9.64844 11.6895 9.53125 11.6895ZM3.47656 10.7715L3.47656 9.58008C3.47656 9.41406 3.56445 9.30664 3.74023 9.30664L5.22461 9.30664L5.42969 8.71094C5.58594 8.82812 5.80078 8.93555 6.04492 8.99414L6.37695 9.07227L5.9375 9.94141C5.86914 10.0684 5.73242 10.1855 5.55664 10.1855L4.20898 10.1855L4.00391 10.8105C3.91602 11.084 3.47656 11.0742 3.47656 10.7715ZM2.76367 11.1133L2.76367 9.42383C2.76367 9.30664 2.86133 9.21875 2.96875 9.21875C3.08594 9.21875 3.17383 9.30664 3.17383 9.42383L3.17383 11.1133C3.17383 11.2402 3.08594 11.3281 2.96875 11.3281C2.86133 11.3281 2.76367 11.2402 2.76367 11.1133ZM10.459 11.9727L10.459 11.6016C10.459 11.416 10.7617 11.2793 11.1523 11.2793C11.543 11.2793 11.8555 11.416 11.8555 11.6016L11.8555 11.9727C11.8555 12.1582 11.543 12.3047 11.1523 12.3047C10.7617 12.3047 10.459 12.1582 10.459 11.9727Z" fill="var(--color-primary)"/>
 </g>
</svg>
