<svg version="1.1" xmlns="http://www.w3.org/2000/svg" xmlns:xlink="http://www.w3.org/1999/xlink" viewBox="0 0 16.1328 15.7715">
 <g>
  <rect height="15.7715" opacity="0" width="16.1328" x="0" y="0"/>
  <path d="M7.88086 15.7617C12.2363 15.7617 15.7715 12.2266 15.7715 7.88086C15.7715 3.53516 12.2363 0 7.88086 0C3.53516 0 0 3.53516 0 7.88086C0 12.2266 3.53516 15.7617 7.88086 15.7617Z" fill="var(--color-tertiary)"/>
  <path d="M3.39844 10.3516C3.24219 10.3516 3.10547 10.2246 3.10547 10.0586C3.10547 9.89258 3.24219 9.74609 3.39844 9.74609L3.4668 9.74609C4.25781 9.74609 4.52148 9.05273 5.67383 9.05273C6.81641 9.05273 7.09961 9.74609 7.88086 9.74609C8.67188 9.74609 8.95508 9.05273 10.0977 9.05273C11.25 9.05273 11.5137 9.74609 12.3047 9.74609L12.373 9.74609C12.5293 9.74609 12.666 9.89258 12.666 10.0586C12.666 10.2246 12.5293 10.3516 12.373 10.3516L12.3047 10.3516C11.1035 10.3516 10.8691 9.63867 10.0977 9.63867C9.32617 9.63867 9.0918 10.3516 7.88086 10.3516C6.67969 10.3516 6.43555 9.63867 5.67383 9.63867C4.90234 9.63867 4.6582 10.3516 3.4668 10.3516ZM3.39844 11.5527C3.24219 11.5527 3.10547 11.416 3.10547 11.25C3.10547 11.1035 3.24219 10.957 3.39844 10.957L3.4668 10.957C4.25781 10.957 4.52148 10.2539 5.67383 10.2539C6.81641 10.2539 7.09961 10.957 7.88086 10.957C8.67188 10.957 8.95508 10.2539 10.0977 10.2539C11.25 10.2539 11.5137 10.957 12.3047 10.957L12.373 10.957C12.5293 10.957 12.666 11.1035 12.666 11.25C12.666 11.416 12.5293 11.5527 12.373 11.5527L12.3047 11.5527C11.1035 11.5527 10.8691 10.8496 10.0977 10.8496C9.32617 10.8496 9.0918 11.5527 7.88086 11.5527C6.67969 11.5527 6.43555 10.8496 5.67383 10.8496C4.90234 10.8496 4.6582 11.5527 3.4668 11.5527ZM7.02148 4.46289C7.02148 4.31641 7.13867 4.18945 7.28516 4.18945C7.77344 4.18945 8.10547 4.30664 8.45703 4.61914C8.81836 4.30664 9.15039 4.18945 9.63867 4.18945C9.78516 4.18945 9.90234 4.31641 9.90234 4.46289C9.90234 4.60938 9.78516 4.73633 9.63867 4.73633C9.24805 4.73633 9.00391 4.80469 8.76953 5.06836C8.66211 5.17578 8.57422 5.23438 8.45703 5.23438C8.34961 5.23438 8.24219 5.17578 8.14453 5.06836C7.90039 4.80469 7.66602 4.73633 7.28516 4.73633C7.12891 4.73633 7.02148 4.60938 7.02148 4.46289ZM6.41602 8.55469L7.37305 7.91992C7.50977 7.83203 7.48047 7.69531 7.39258 7.60742L6.60156 6.79688L5.20508 7.7832C4.96094 7.94922 4.70703 7.89062 4.57031 7.72461C4.39453 7.54883 4.36523 7.22656 4.6582 7.02148L6.37695 5.80078C6.61133 5.63477 6.9043 5.6543 7.09961 5.85938L9.60938 8.45703C8.89648 8.62305 8.69141 9.12109 7.88086 9.12109C7.1875 9.12109 6.91406 8.75977 6.41602 8.55469ZM10.2051 7.90039C9.66797 7.90039 9.23828 7.4707 9.23828 6.94336C9.23828 6.41602 9.66797 5.99609 10.2051 5.99609C10.7324 5.99609 11.1621 6.41602 11.1621 6.94336C11.1621 7.4707 10.7324 7.90039 10.2051 7.90039Z" fill="var(--color-primary)"/>
 </g>
</svg>
