<?xml version="1.0" encoding="UTF-8"?>
<!--Generator: Apple Native CoreSVG 341-->
<!DOCTYPE svg
PUBLIC "-//W3C//DTD SVG 1.1//EN"
       "http://www.w3.org/Graphics/SVG/1.1/DTD/svg11.dtd">
<svg version="1.1" xmlns="http://www.w3.org/2000/svg" xmlns:xlink="http://www.w3.org/1999/xlink" viewBox="0 0 14.0337 19.1113">
 <g>
  <rect height="19.1113" opacity="0" width="14.0337" x="0" y="0"/>
  <path d="M6.74828 3.39844C7.68578 3.39844 8.4475 2.63672 8.4475 1.69922C8.4475 0.771484 7.68578 0 6.74828 0C5.82055 0 5.04907 0.771484 5.04907 1.69922C5.04907 2.63672 5.82055 3.39844 6.74828 3.39844ZM0.635003 9.33594C1.02563 9.4043 1.46508 9.21875 1.5725 8.74023L2.23657 5.78125L3.40844 5.78125C3.55493 5.78125 3.66235 5.9082 3.62328 6.05469L2.83227 9.08203C2.51977 10.3125 3.32055 11.5234 4.86352 11.1426L7.72485 10.4297L7.16821 13.1738C7.08032 13.6035 7.36352 14.0332 7.79321 14.1211C8.15453 14.1992 8.62328 13.9648 8.72094 13.4961L9.52172 9.52148C9.63891 8.95508 9.15063 8.51562 8.66235 8.56445L6.13305 8.80859L6.87524 5.97656C6.90453 5.85938 7.03149 5.78125 7.14868 5.83008L10.0588 6.93359C10.5862 7.13867 11.1233 6.83594 11.1233 6.2793L11.1233 2.60742C11.1233 2.16797 10.7717 1.81641 10.3225 1.81641C9.89282 1.81641 9.53149 2.16797 9.53149 2.60742L9.53149 5.03906L8.04711 4.46289C7.55883 4.27734 7.03149 4.18945 6.50414 4.18945L1.58227 4.18945C1.21118 4.18945 0.898675 4.45312 0.82055 4.81445L0.0197689 8.38867C-0.0778873 8.82812 0.19555 9.26758 0.635003 9.33594ZM4.21899 18.8867C4.59008 18.9648 5.05883 18.7207 5.14672 18.2715L5.9475 14.2969C5.95727 14.2285 5.95727 14.1406 5.95727 14.0723L5.95727 11.6699L5.04907 11.8848C4.6975 11.9727 4.37524 12.002 4.0725 11.9727L4.36547 14.1016L3.59399 17.9395C3.5061 18.3789 3.77953 18.7988 4.21899 18.8867ZM7.24633 17.3242L12.4123 17.3242C12.676 17.3242 12.8909 17.1191 12.8909 16.8555C12.8909 16.5918 12.676 16.377 12.4123 16.377L7.24633 16.377C6.98266 16.377 6.77758 16.5918 6.77758 16.8555C6.77758 17.1191 6.98266 17.3242 7.24633 17.3242ZM6.45532 19.0723L13.2034 19.0723C13.467 19.0723 13.6721 18.8672 13.6721 18.6035C13.6721 18.3398 13.467 18.125 13.2034 18.125L6.45532 18.125C6.18188 18.125 5.9768 18.3398 5.9768 18.6035C5.9768 18.8672 6.18188 19.0723 6.45532 19.0723Z" fill="white" fill-opacity="0.85"/>
 </g>
</svg>
