<svg version="1.1" xmlns="http://www.w3.org/2000/svg" xmlns:xlink="http://www.w3.org/1999/xlink" viewBox="0 0 17.9103 17.5587">
 <g>
  <rect height="17.5587" opacity="0" width="17.9103" x="0" y="0"/>
  <path d="M0.888733 10.5323L7.02155 16.6553C8.19342 17.837 9.34576 17.8467 10.5176 16.6846L16.6797 10.5128C17.8516 9.35065 17.8321 8.1983 16.6505 7.01666L10.5274 0.893616C9.35553-0.288025 8.20319-0.297791 7.03131 0.864319L0.869202 7.03619C-0.302673 8.20807-0.283142 9.35065 0.888733 10.5323Z" fill="var(--color-tertiary)"/>
  <path d="M6.84576 13.3936C6.4649 13.8331 5.76178 13.3155 6.19147 12.7979L7.55865 11.1671L7.78326 10.1514L8.51569 11.0889L8.4278 11.3819C8.37897 11.5479 8.35944 11.587 8.22272 11.753ZM10.1954 13.2667L9.22858 11.3038C9.18951 11.2354 9.17975 11.1768 9.09186 11.0694L8.15436 9.89752C7.81256 9.46783 7.68561 9.22369 7.72467 8.71588L7.8028 7.71002C7.81256 7.58307 7.65631 7.51471 7.53912 7.62213L7.19733 7.9151L7.09967 9.11627C7.07037 9.39948 6.91412 9.55573 6.65045 9.53619C6.39655 9.52643 6.25006 9.33112 6.26959 9.06744L6.34772 7.97369C6.36725 7.69049 6.44537 7.49518 6.66998 7.2608L7.37311 6.56744C7.83209 6.12799 8.15436 5.87408 8.64264 5.87408C9.29694 5.87408 9.66803 6.36237 9.62897 7.0069L9.53131 8.32526C9.50201 8.80377 9.44342 9.09674 9.2774 9.56549L9.23834 9.68268L9.83405 10.5323C9.92194 10.6495 10.0196 10.8057 10.088 10.9424L11.0157 12.8565C11.338 13.4815 10.4786 13.8428 10.1954 13.2667ZM11.7969 7.69049C12.0801 7.69049 12.2559 7.84674 12.2559 8.10065C12.2559 8.36432 12.0801 8.52057 11.7969 8.52057L10.8106 8.52057C10.5372 8.52057 10.4102 8.48151 10.254 8.32526L10.0001 8.07135L10.088 6.96783L10.7325 7.69049ZM9.16998 5.47369C8.63287 5.47369 8.20319 5.04401 8.20319 4.51666C8.20319 3.97955 8.63287 3.54987 9.16998 3.54987C9.69733 3.54987 10.127 3.97955 10.127 4.51666C10.127 5.04401 9.69733 5.47369 9.16998 5.47369Z" fill="var(--color-primary)"/>
 </g>
</svg>
