<?xml version="1.0" encoding="UTF-8"?>
<!--Generator: Apple Native CoreSVG 341-->
<!DOCTYPE svg
PUBLIC "-//W3C//DTD SVG 1.1//EN"
       "http://www.w3.org/Graphics/SVG/1.1/DTD/svg11.dtd">
<svg version="1.1" xmlns="http://www.w3.org/2000/svg" xmlns:xlink="http://www.w3.org/1999/xlink" viewBox="0 0 16.1328 15.7715">
 <g>
  <rect height="15.7715" opacity="0" width="16.1328" x="0" y="0"/>
  <path d="M7.88086 15.7617C12.2363 15.7617 15.7715 12.2363 15.7715 7.88086C15.7715 3.52539 12.2363 0 7.88086 0C3.53516 0 0 3.52539 0 7.88086C0 12.2363 3.53516 15.7617 7.88086 15.7617ZM7.88086 14.2773C4.3457 14.2773 1.49414 11.416 1.49414 7.88086C1.49414 4.3457 4.3457 1.48438 7.88086 1.48438C11.416 1.48438 14.2773 4.3457 14.2773 7.88086C14.2773 11.416 11.416 14.2773 7.88086 14.2773Z" fill="white" fill-opacity="0.85"/>
  <path d="M7.87109 5.16602C8.38867 5.16602 8.79883 4.74609 8.79883 4.23828C8.79883 3.73047 8.38867 3.31055 7.87109 3.31055C7.36328 3.31055 6.95312 3.73047 6.95312 4.23828C6.95312 4.74609 7.36328 5.16602 7.87109 5.16602ZM11.3965 5.9375C11.2207 5.76172 10.957 5.76172 10.7812 5.9375L9.75586 6.95312L8.7207 5.91797C8.51562 5.71289 8.19336 5.58594 7.87109 5.58594L5.09766 5.58594C4.90234 5.58594 4.75586 5.70312 4.6875 5.88867L4.02344 7.88086C3.92578 8.18359 4.0918 8.39844 4.30664 8.44727C4.51172 8.50586 4.74609 8.41797 4.83398 8.14453L5.41016 6.45508L6.32812 6.45508C6.40625 6.45508 6.47461 6.52344 6.44531 6.61133L5.87891 8.30078C5.69336 8.84766 5.85938 9.375 6.47461 9.64844L8.28125 10.4395L8.85742 12.4609C8.93555 12.7344 9.17969 12.8125 9.38477 12.7539C9.59961 12.7051 9.77539 12.5098 9.69727 12.2266L9.05273 10C9.01367 9.87305 8.95508 9.78516 8.81836 9.72656L7.41211 9.10156L8.1543 6.85547C8.18359 6.75781 8.30078 6.71875 8.36914 6.79688L9.44336 7.88086C9.60938 8.04688 9.89258 8.04688 10.0586 7.88086L11.3965 6.55273C11.5723 6.37695 11.5625 6.11328 11.3965 5.9375ZM6.01562 9.87305L5.81055 11.0645L4.30664 11.9043C4.02344 12.0605 4.0332 12.3242 4.15039 12.5098C4.26758 12.6855 4.47266 12.8125 4.73633 12.666L6.42578 11.7188C6.54297 11.6504 6.5918 11.5723 6.63086 11.4453L7.00195 10.332L6.31836 10.0293C6.20117 9.98047 6.11328 9.93164 6.01562 9.87305ZM11.7285 5.2832C11.875 5.20508 11.9629 5.05859 11.9629 4.88281L11.9629 3.60352C11.9629 3.35938 11.7773 3.16406 11.543 3.16406L10.6348 3.16406C10.3906 3.16406 10.1953 3.35938 10.1953 3.60352L10.1953 4.88281C10.1953 5.05859 10.293 5.20508 10.4395 5.2832L11.084 5.60547ZM10.8008 6.26953L11.3672 6.26953L11.3672 5.12695L10.8008 5.12695Z" fill="white" fill-opacity="0.85"/>
 </g>
</svg>
