<svg version="1.1" xmlns="http://www.w3.org/2000/svg" xmlns:xlink="http://www.w3.org/1999/xlink" viewBox="0 0 18.4668 23.1037">
 <g>
  <rect height="23.1037" opacity="0" width="18.4668" x="0" y="0"/>
  <path d="M14.4043 7.89464C15.5664 7.89464 16.4941 6.91808 16.4941 5.79503C16.4941 4.62315 15.5664 3.66612 14.4043 3.66612C13.2227 3.66612 12.2852 4.62315 12.2852 5.79503C12.2852 6.92784 13.2227 7.89464 14.4043 7.89464ZM1.89453 19.0079C2.29492 19.4278 2.97852 19.3985 3.47656 18.8907L6.81641 15.4435C6.92383 15.3263 7.00195 15.297 7.17773 15.3653L9.74609 16.3419C11.4258 16.9767 13.0273 16.4689 13.7402 15.17L15.4492 12.0548C16.1035 10.8634 15.8984 9.64269 14.7754 9.03722C13.6719 8.43175 12.5391 8.89073 11.875 10.1017L9.69727 14.0763L7.8418 13.4025C6.92383 13.0704 6.16211 13.1778 5.42969 13.9298L1.96289 17.5235C1.47461 18.0216 1.52344 18.6368 1.89453 19.0079Z" fill="var(--color-secondary)"/>
  <path d="M7.89062 0.755967L7.89062 4.97472C7.89062 5.66808 8.59375 5.98058 9.11133 5.51183L11.4844 3.37315C11.8262 3.07042 11.8262 2.67003 11.4844 2.35753L9.11133 0.218858C8.62305-0.220595 7.89062 0.0235455 7.89062 0.755967ZM9.00391 3.60753C9.41406 3.60753 9.75586 3.2755 9.75586 2.85558C9.75586 2.44542 9.41406 2.11339 9.00391 2.11339L7.43164 2.11339C6.28906 2.11339 5.48828 2.50401 4.78516 3.43175L2.7832 6.07823C2.36328 6.63487 2.07031 6.77159 1.2207 6.77159L0.751953 6.77159C0.341797 6.77159 0 7.10362 0 7.51378C0 7.9337 0.341797 8.26573 0.751953 8.26573L1.2207 8.26573C2.45117 8.26573 3.26172 7.92394 3.96484 6.9962L5.98633 4.35948C6.45508 3.74425 6.70898 3.60753 7.43164 3.60753Z" fill="var(--color-primary)"/>
 </g>
</svg>
