<?xml version="1.0" encoding="UTF-8"?>
<!--Generator: Apple Native CoreSVG 341-->
<!DOCTYPE svg
PUBLIC "-//W3C//DTD SVG 1.1//EN"
       "http://www.w3.org/Graphics/SVG/1.1/DTD/svg11.dtd">
<svg version="1.1" xmlns="http://www.w3.org/2000/svg" xmlns:xlink="http://www.w3.org/1999/xlink" viewBox="0 0 16.1328 15.7715">
 <g>
  <rect height="15.7715" opacity="0" width="16.1328" x="0" y="0"/>
  <path d="M7.88086 15.7617C12.2363 15.7617 15.7715 12.2266 15.7715 7.88086C15.7715 3.53516 12.2363 0 7.88086 0C3.53516 0 0 3.53516 0 7.88086C0 12.2266 3.53516 15.7617 7.88086 15.7617Z" fill="white" fill-opacity="0.2125"/>
  <path d="M7.85156 4.07227C7.32422 4.07227 6.88477 3.64258 6.88477 3.11523C6.88477 2.58789 7.32422 2.14844 7.85156 2.14844C8.36914 2.14844 8.79883 2.58789 8.79883 3.11523C8.79883 3.64258 8.36914 4.07227 7.85156 4.07227ZM8.4082 11.2598C8.13477 11.1914 8.05664 10.9473 8.11523 10.7227L8.61328 9.07227L6.78711 8.63281C6.06445 8.4668 5.85938 8.04688 5.9375 7.41211L6.14258 5.79102C6.15234 5.71289 6.08398 5.68359 6.03516 5.71289L5.41016 6.10352L5.41016 7.62695C5.41016 7.87109 5.21484 8.07617 4.9707 8.07617C4.73633 8.07617 4.53125 7.87109 4.53125 7.62695L4.53125 5.85938C4.53125 5.70312 4.60938 5.56641 4.73633 5.48828L6.16211 4.59961C6.44531 4.42383 6.81641 4.32617 7.25586 4.41406L7.5 4.47266C7.91992 4.54102 8.24219 4.80469 8.42773 5.15625L8.99414 6.30859L10.4883 6.30859C10.7324 6.30859 10.9375 6.50391 10.9375 6.74805C10.9375 6.98242 10.7324 7.17773 10.4883 7.17773L8.7207 7.17773C8.56445 7.17773 8.41797 7.09961 8.33984 6.93359L7.96875 6.2207C7.93945 6.14258 7.82227 6.16211 7.8125 6.25L7.59766 7.71484L9.31641 8.32031C9.56055 8.39844 9.6582 8.63281 9.58984 8.86719L8.95508 10.9668C8.86719 11.25 8.58398 11.3184 8.4082 11.2598ZM5.17578 12.8613C4.96094 12.7246 4.91211 12.4512 5.04883 12.2461L6.30859 10.3613L6.39648 8.97461C6.48438 9.00391 6.58203 9.04297 6.67969 9.07227L7.37305 9.22852L7.1875 10.5078C7.16797 10.625 7.13867 10.6934 7.08008 10.7812L5.78125 12.7246C5.61523 12.959 5.33203 12.959 5.17578 12.8613ZM6.98242 13.6035C6.81641 13.6035 6.67969 13.4473 6.67969 13.291C6.67969 13.1445 6.82617 12.998 6.98242 12.998L8.06641 12.998L8.06641 12.207C8.06641 12.041 8.20312 11.9141 8.36914 11.9141L9.44336 11.9141L9.44336 11.1133C9.44336 10.957 9.57031 10.8203 9.73633 10.8203L10.8203 10.8203L10.8203 10.0098C10.8203 9.86328 10.9473 9.7168 11.1133 9.7168L12.4805 9.7168C12.6562 9.7168 12.7832 9.86328 12.7832 10.0098C12.7832 10.1758 12.6562 10.3125 12.4805 10.3125L11.416 10.3125L11.416 11.1133C11.416 11.2695 11.2891 11.4062 11.1133 11.4062L10.0293 11.4062L10.0293 12.207C10.0293 12.3633 9.89258 12.5 9.73633 12.5L8.66211 12.5L8.66211 13.291C8.66211 13.4473 8.53516 13.6035 8.36914 13.6035Z" fill="white" fill-opacity="0.85"/>
 </g>
</svg>
