<?xml version="1.0" encoding="UTF-8"?>
<!--Generator: Apple Native CoreSVG 341-->
<!DOCTYPE svg
PUBLIC "-//W3C//DTD SVG 1.1//EN"
       "http://www.w3.org/Graphics/SVG/1.1/DTD/svg11.dtd">
<svg version="1.1" xmlns="http://www.w3.org/2000/svg" xmlns:xlink="http://www.w3.org/1999/xlink" viewBox="0 0 16.1328 15.7715">
 <g>
  <rect height="15.7715" opacity="0" width="16.1328" x="0" y="0"/>
  <path d="M7.88086 15.7617C12.2363 15.7617 15.7715 12.2266 15.7715 7.88086C15.7715 3.53516 12.2363 0 7.88086 0C3.53516 0 0 3.53516 0 7.88086C0 12.2266 3.53516 15.7617 7.88086 15.7617Z" fill="white" fill-opacity="0.2125"/>
  <path d="M5.84961 13.2812C5.60547 13.2812 5.42969 13.0859 5.42969 12.8516L5.42969 10.5762C5.42969 10.4785 5.44922 10.4004 5.50781 10.3223L6.71875 8.64258C6.52344 7.97852 6.41602 7.08008 6.38672 6.5918C6.35742 6.38672 6.30859 6.30859 6.2207 6.18164L5.29297 4.84375C5.23438 4.76562 5.21484 4.6875 5.21484 4.58984L5.21484 2.93945C5.21484 2.71484 5.41016 2.50977 5.6543 2.50977C5.89844 2.50977 6.09375 2.71484 6.09375 2.93945L6.09375 4.45312L6.62109 5.22461C6.85547 5.55664 7.1875 5.66406 7.55859 5.77148C7.90039 5.84961 8.25195 5.9082 8.59375 6.08398L9.76562 6.66992C9.85352 6.71875 9.91211 6.78711 9.96094 6.875L10.7812 8.49609C11.0645 9.0625 10.2637 9.42383 10 8.89648L9.24805 7.39258L8.4375 6.98242C8.29102 6.91406 8.18359 6.98242 8.19336 7.14844C8.24219 7.65625 8.33008 8.1543 8.51562 8.51562L10.5762 12.6367C10.8398 13.1738 10.0586 13.5547 9.78516 13.0078L8.7793 11.0156L7.60742 9.44336C7.58789 9.41406 7.53906 9.41406 7.51953 9.44336L6.29883 10.7422L6.29883 12.8516C6.29883 13.0859 6.10352 13.2812 5.84961 13.2812ZM7.86133 5.32227C7.33398 5.32227 6.9043 4.89258 6.9043 4.36523C6.9043 3.83789 7.33398 3.4082 7.86133 3.4082C8.37891 3.4082 8.81836 3.83789 8.81836 4.36523C8.81836 4.89258 8.37891 5.32227 7.86133 5.32227Z" fill="white" fill-opacity="0.85"/>
 </g>
</svg>
