<?xml version="1.0" encoding="UTF-8"?>
<!--Generator: Apple Native CoreSVG 341-->
<!DOCTYPE svg
PUBLIC "-//W3C//DTD SVG 1.1//EN"
       "http://www.w3.org/Graphics/SVG/1.1/DTD/svg11.dtd">
<svg version="1.1" xmlns="http://www.w3.org/2000/svg" xmlns:xlink="http://www.w3.org/1999/xlink" viewBox="0 0 14.9414 18.7012">
 <g>
  <rect height="18.7012" opacity="0" width="14.9414" x="0" y="0"/>
  <path d="M5.51758 6.79688C6.45508 6.79688 7.2168 6.03516 7.2168 5.09766C7.2168 4.15039 6.45508 3.39844 5.51758 3.39844C4.58008 3.39844 3.81836 4.15039 3.81836 5.09766C3.81836 6.03516 4.58008 6.79688 5.51758 6.79688ZM1.37695 17.002L6.05469 18.1738C6.70898 18.3398 7.1582 17.8613 7.07031 17.2461L6.63086 14.2676L10.332 14.2676L13.2324 17.1973C13.5352 17.5 14.0332 17.5 14.3457 17.1973C14.668 16.8945 14.6582 16.377 14.3457 16.0742L11.2891 12.998C11.0742 12.7832 10.9863 12.7246 10.6445 12.6855L7.28516 12.3535L6.44531 9.79492C6.38672 9.60938 6.51367 9.43359 6.70898 9.47266L12.8418 10.6934C13.2422 10.7715 13.6914 10.5664 13.7695 10.0879C13.8379 9.6582 13.584 9.24805 13.1543 9.16016L4.67773 7.4707C3.93555 7.32422 3.53516 7.2168 3.20312 6.89453L1.57227 5.26367L1.57227 1.65039C1.57227 1.2207 1.2207 0.869141 0.800781 0.869141C0.341797 0.869141 0 1.2207 0 1.65039L0 5.46875C0 5.79102 0.0390625 5.97656 0.273438 6.21094L2.08984 8.02734C2.4707 8.4082 2.51953 8.54492 2.64648 8.91602L5.09766 16.3086L1.75781 15.4688C1.33789 15.3613 0.917969 15.625 0.820312 16.0547C0.722656 16.4648 0.957031 16.8945 1.37695 17.002ZM3.03711 1.94336C3.56445 1.94336 4.00391 1.51367 4.00391 0.966797C4.00391 0.429688 3.56445 0 3.03711 0C2.48047 0 2.06055 0.429688 2.06055 0.966797C2.06055 1.51367 2.48047 1.94336 3.03711 1.94336Z" fill="white" fill-opacity="0.85"/>
 </g>
</svg>
