<?xml version="1.0" encoding="UTF-8"?>
<!--Generator: Apple Native CoreSVG 341-->
<!DOCTYPE svg
PUBLIC "-//W3C//DTD SVG 1.1//EN"
       "http://www.w3.org/Graphics/SVG/1.1/DTD/svg11.dtd">
<svg version="1.1" xmlns="http://www.w3.org/2000/svg" xmlns:xlink="http://www.w3.org/1999/xlink" viewBox="0 0 16.1328 15.7715">
 <g>
  <rect height="15.7715" opacity="0" width="16.1328" x="0" y="0"/>
  <path d="M7.88086 15.7617C12.2363 15.7617 15.7715 12.2266 15.7715 7.88086C15.7715 3.53516 12.2363 0 7.88086 0C3.53516 0 0 3.53516 0 7.88086C0 12.2266 3.53516 15.7617 7.88086 15.7617Z" fill="white" fill-opacity="0.2125"/>
  <path d="M8.32031 4.75586C7.79297 4.75586 7.36328 4.32617 7.36328 3.80859C7.36328 3.28125 7.79297 2.85156 8.32031 2.85156C8.85742 2.85156 9.28711 3.28125 9.28711 3.80859C9.28711 4.32617 8.85742 4.75586 8.32031 4.75586ZM3.68164 4.07227C3.54492 3.92578 3.54492 3.75 3.68164 3.61328C4.01367 3.25195 4.58008 3.00781 5.08789 3.00781C5.61523 3.00781 6.18164 3.25195 6.51367 3.61328C6.63086 3.75 6.63086 3.92578 6.51367 4.07227C6.34766 4.24805 6.13281 4.4043 5.87891 4.51172L5.87891 5.57617L12.4219 4.58008C12.6758 4.54102 12.9004 4.70703 12.9395 4.96094C12.9883 5.20508 12.8125 5.43945 12.5684 5.47852L9.48242 5.94727C9.3457 5.9668 9.27734 6.06445 9.27734 6.17188L9.27734 8.13477L11.377 9.94141C11.5039 10.0586 11.543 10.166 11.543 10.293L11.543 12.4414C11.543 12.7441 11.3672 12.9199 11.0938 12.9199C10.8203 12.9199 10.6348 12.7441 10.6348 12.4414L10.6348 10.5176L8.7793 9.11133C8.58398 8.95508 8.25195 8.95508 8.11523 9.18945L7.29492 10.7324C7.26562 10.791 7.25586 10.8008 7.22656 10.8398L5.55664 12.5C5.33203 12.7246 5.05859 12.6953 4.90234 12.5488C4.72656 12.3926 4.6875 12.1191 4.92188 11.875L6.51367 10.2637L7.23633 8.30078L7.23633 6.52344C7.23633 6.38672 7.13867 6.30859 7.00195 6.32812L5.49805 6.54297C5.21484 6.58203 4.98047 6.39648 4.98047 6.11328L4.98047 4.67773C4.50195 4.64844 3.99414 4.41406 3.68164 4.07227Z" fill="white" fill-opacity="0.85"/>
 </g>
</svg>
