<?xml version="1.0" encoding="UTF-8"?>
<!--Generator: Apple Native CoreSVG 341-->
<!DOCTYPE svg
PUBLIC "-//W3C//DTD SVG 1.1//EN"
       "http://www.w3.org/Graphics/SVG/1.1/DTD/svg11.dtd">
<svg version="1.1" xmlns="http://www.w3.org/2000/svg" xmlns:xlink="http://www.w3.org/1999/xlink" viewBox="0 0 16.1328 15.7715">
 <g>
  <rect height="15.7715" opacity="0" width="16.1328" x="0" y="0"/>
  <path d="M7.88086 15.7617C12.2363 15.7617 15.7715 12.2266 15.7715 7.88086C15.7715 3.53516 12.2363 0 7.88086 0C3.53516 0 0 3.53516 0 7.88086C0 12.2266 3.53516 15.7617 7.88086 15.7617Z" fill="white" fill-opacity="0.2125"/>
  <path d="M5.9668 12.5C5.58594 12.9395 4.87305 12.4219 5.3125 11.9043L6.67969 10.2734L6.9043 9.25781L7.63672 10.1953L7.53906 10.4883C7.49023 10.6543 7.4707 10.6934 7.33398 10.8594ZM9.30664 12.373L8.34961 10.4102C8.31055 10.3418 8.30078 10.2832 8.20312 10.1758L7.27539 9.00391C6.93359 8.57422 6.80664 8.33008 6.8457 7.82227L6.92383 6.81641C6.93359 6.68945 6.77734 6.62109 6.66016 6.72852L6.31836 7.02148L6.2207 8.22266C6.19141 8.50586 6.03516 8.66211 5.77148 8.64258C5.51758 8.63281 5.37109 8.4375 5.39062 8.17383L5.46875 7.08008C5.48828 6.79688 5.55664 6.60156 5.79102 6.36719L6.49414 5.67383C6.95312 5.23438 7.27539 4.98047 7.75391 4.98047C8.41797 4.98047 8.7793 5.46875 8.74023 6.11328L8.64258 7.43164C8.61328 7.91016 8.56445 8.20312 8.38867 8.67188L8.34961 8.78906L8.95508 9.63867C9.0332 9.75586 9.13086 9.91211 9.20898 10.0488L10.1367 11.9629C10.459 12.5879 9.58984 12.9492 9.30664 12.373ZM10.918 6.79688C11.2012 6.79688 11.377 6.95312 11.377 7.20703C11.377 7.4707 11.2012 7.62695 10.918 7.62695L9.93164 7.62695C9.64844 7.62695 9.52148 7.58789 9.36523 7.43164L9.12109 7.17773L9.20898 6.07422L9.85352 6.79688ZM8.28125 4.58008C7.74414 4.58008 7.31445 4.15039 7.31445 3.62305C7.31445 3.08594 7.74414 2.65625 8.28125 2.65625C8.80859 2.65625 9.23828 3.08594 9.23828 3.62305C9.23828 4.15039 8.80859 4.58008 8.28125 4.58008Z" fill="white" fill-opacity="0.85"/>
 </g>
</svg>
