<svg version="1.1" xmlns="http://www.w3.org/2000/svg" xmlns:xlink="http://www.w3.org/1999/xlink" viewBox="0 0 22.1121 15.752">
 <g>
  <rect height="15.752" opacity="0" width="22.1121" x="0" y="0"/>
  <path d="M11.4955 4.04297L11.4955 5.76172C11.4955 6.2207 11.8373 6.55273 12.2963 6.55273L13.5561 6.55273C14.0248 6.55273 14.3666 6.2207 14.3666 5.76172L14.3666 4.04297C14.3666 3.58398 14.0248 3.24219 13.5561 3.24219L12.2963 3.24219C11.8373 3.24219 11.4955 3.58398 11.4955 4.04297ZM15.1869 4.04297L15.1869 5.76172C15.1869 6.2207 15.5287 6.55273 15.9975 6.55273L17.2475 6.55273C17.726 6.55273 18.058 6.2207 18.058 5.76172L18.058 4.04297C18.058 3.58398 17.726 3.24219 17.2475 3.24219L15.9975 3.24219C15.5287 3.24219 15.1869 3.58398 15.1869 4.04297ZM18.8783 4.04297L18.8783 5.76172C18.8783 6.2207 19.2201 6.55273 19.6889 6.55273L20.9486 6.55273C21.4174 6.55273 21.7494 6.2207 21.7494 5.76172L21.7494 4.04297C21.7494 3.58398 21.4174 3.24219 20.9486 3.24219L19.6889 3.24219C19.2201 3.24219 18.8783 3.58398 18.8783 4.04297ZM11.4955 8.48633L11.4955 10.1953C11.4955 10.6543 11.8373 10.9863 12.2963 10.9863L13.5561 10.9863C14.0248 10.9863 14.3666 10.6543 14.3666 10.1953L14.3666 8.48633C14.3666 8.02734 14.0248 7.68555 13.5561 7.68555L12.2963 7.68555C11.8373 7.68555 11.4955 8.02734 11.4955 8.48633ZM15.1869 8.48633L15.1869 10.1953C15.1869 10.6543 15.5287 10.9863 15.9975 10.9863L17.2475 10.9863C17.726 10.9863 18.058 10.6543 18.058 10.1953L18.058 8.48633C18.058 8.02734 17.726 7.68555 17.2475 7.68555L15.9975 7.68555C15.5287 7.68555 15.1869 8.02734 15.1869 8.48633ZM18.8783 8.48633L18.8783 10.1953C18.8783 10.6543 19.2201 10.9863 19.6889 10.9863L20.9486 10.9863C21.4174 10.9863 21.7494 10.6543 21.7494 10.1953L21.7494 8.48633C21.7494 8.02734 21.4174 7.68555 20.9486 7.68555L19.6889 7.68555C19.2201 7.68555 18.8783 8.02734 18.8783 8.48633ZM11.4955 12.9199L11.4955 14.6289C11.4955 15.0977 11.8373 15.4297 12.2963 15.4297L13.5561 15.4297C14.0248 15.4297 14.3666 15.0977 14.3666 14.6289L14.3666 12.9199C14.3666 12.4609 14.0248 12.1289 13.5561 12.1289L12.2963 12.1289C11.8373 12.1289 11.4955 12.4609 11.4955 12.9199ZM15.1869 12.9199L15.1869 14.6289C15.1869 15.0977 15.5287 15.4297 15.9975 15.4297L17.2475 15.4297C17.726 15.4297 18.058 15.0977 18.058 14.6289L18.058 12.9199C18.058 12.4609 17.726 12.1289 17.2475 12.1289L15.9975 12.1289C15.5287 12.1289 15.1869 12.4609 15.1869 12.9199ZM18.8783 12.9199L18.8783 14.6289C18.8783 15.0977 19.2201 15.4297 19.6889 15.4297L20.9486 15.4297C21.4174 15.4297 21.7494 15.0977 21.7494 14.6289L21.7494 12.9199C21.7494 12.4609 21.4174 12.1289 20.9486 12.1289L19.6889 12.1289C19.2201 12.1289 18.8783 12.4609 18.8783 12.9199ZM12.9408 5.69336C12.5014 5.69336 12.1303 5.33203 12.1303 4.88281C12.1303 4.45312 12.5014 4.0918 12.9408 4.0918C13.3705 4.0918 13.7318 4.45312 13.7318 4.88281C13.7318 5.33203 13.3705 5.69336 12.9408 5.69336ZM16.6225 5.69336C16.1928 5.69336 15.8217 5.33203 15.8217 4.88281C15.8217 4.45312 16.1928 4.0918 16.6225 4.0918C17.0522 4.0918 17.4232 4.45312 17.4232 4.88281C17.4232 5.33203 17.0522 5.69336 16.6225 5.69336ZM20.3139 5.69336C19.8744 5.69336 19.5131 5.33203 19.5131 4.88281C19.5131 4.45312 19.8744 4.0918 20.3139 4.0918C20.7436 4.0918 21.1147 4.45312 21.1147 4.88281C21.1147 5.33203 20.7436 5.69336 20.3139 5.69336ZM12.9408 10.1367C12.5014 10.1367 12.1303 9.77539 12.1303 9.32617C12.1303 8.89648 12.5014 8.53516 12.9408 8.53516C13.3705 8.53516 13.7318 8.89648 13.7318 9.32617C13.7318 9.77539 13.3705 10.1367 12.9408 10.1367ZM16.6225 10.1367C16.1928 10.1367 15.8217 9.77539 15.8217 9.32617C15.8217 8.89648 16.1928 8.53516 16.6225 8.53516C17.0522 8.53516 17.4232 8.89648 17.4232 9.32617C17.4232 9.77539 17.0522 10.1367 16.6225 10.1367ZM20.3139 10.1367C19.8744 10.1367 19.5131 9.77539 19.5131 9.32617C19.5131 8.89648 19.8744 8.53516 20.3139 8.53516C20.7436 8.53516 21.1147 8.89648 21.1147 9.32617C21.1147 9.77539 20.7436 10.1367 20.3139 10.1367ZM12.9408 14.5801C12.5014 14.5801 12.1303 14.2188 12.1303 13.7695C12.1303 13.3398 12.5014 12.9785 12.9408 12.9785C13.3705 12.9785 13.7318 13.3398 13.7318 13.7695C13.7318 14.2188 13.3705 14.5801 12.9408 14.5801ZM16.6225 14.5801C16.1928 14.5801 15.8217 14.2188 15.8217 13.7695C15.8217 13.3398 16.1928 12.9785 16.6225 12.9785C17.0522 12.9785 17.4232 13.3398 17.4232 13.7695C17.4232 14.2188 17.0522 14.5801 16.6225 14.5801ZM20.3139 14.5801C19.8744 14.5801 19.5131 14.2188 19.5131 13.7695C19.5131 13.3398 19.8744 12.9785 20.3139 12.9785C20.7436 12.9785 21.1147 13.3398 21.1147 13.7695C21.1147 14.2188 20.7436 14.5801 20.3139 14.5801ZM15.1186 2.27539L18.1166 2.27539C18.3705 2.27539 18.4096 2.02148 18.224 1.89453L16.8666 0.966797C16.7104 0.869141 16.5346 0.869141 16.3686 0.966797L15.0209 1.89453C14.8354 2.02148 14.8744 2.27539 15.1186 2.27539Z" fill="var(--color-primary)"/>
  <path d="M4.53262 3.48633C5.48965 3.48633 6.25137 2.68555 6.25137 1.74805C6.25137 0.791016 5.48965 0 4.53262 0C3.56583 0 2.79434 0.791016 2.79434 1.74805C2.79434 2.68555 3.56583 3.48633 4.53262 3.48633ZM1.20254 9.93164L6.14395 4.45312C5.6752 4.27734 5.13809 4.18945 4.53262 4.18945C2.29629 4.18945 0.977935 5.27344 0.977935 7.07031C0.977935 7.50977 0.987701 8.0957 1.05606 8.68164ZM7.85294 9.93164L7.99942 8.68164C8.06778 8.0957 8.08731 7.50977 8.08731 7.07031C8.08731 6.20117 7.77481 5.48828 7.18887 5L3.30215 9.31641C3.72208 9.25781 4.13223 9.23828 4.53262 9.23828C5.62637 9.23828 6.73965 9.38477 7.85294 9.93164ZM2.61856 15.7129C3.07754 15.6445 3.39004 15.3223 3.32169 14.7461L2.99942 11.8652L6.04629 11.8652L5.73379 14.7461C5.6752 15.3223 5.97794 15.6445 6.43692 15.7129C6.91544 15.7617 7.267 15.459 7.32559 14.9121L7.73575 11.1328C6.72989 10.5469 5.59708 10.3223 4.53262 10.3223C3.4584 10.3223 2.33536 10.5469 1.3295 11.1328L1.72989 14.9121C1.78848 15.459 2.14981 15.7617 2.61856 15.7129ZM7.18887 4.99023L8.67325 3.34961C8.93692 3.05664 8.91739 2.71484 8.65372 2.50977C8.40958 2.28516 8.08731 2.27539 7.80411 2.58789L6.14395 4.45312C6.53458 4.59961 6.88614 4.78516 7.18887 4.99023ZM0.255279 10.498C-0.03769 10.7129-0.0572212 11.0547 0.0892632 11.2793C0.225982 11.5039 0.509185 11.6113 0.831451 11.4355C1.00723 11.3281 1.15372 11.2305 1.3295 11.1328L1.20254 9.93164C0.850982 10.0879 0.538482 10.2637 0.255279 10.498ZM8.80997 10.498C8.50723 10.2637 8.2045 10.0879 7.85294 9.93164L7.72598 11.1328C7.892 11.2305 8.04825 11.3281 8.22403 11.4355C8.54629 11.6113 8.81973 11.5137 8.95645 11.2891C9.10294 11.0742 9.10294 10.7227 8.80997 10.498Z" fill="var(--color-primary)"/>
 </g>
</svg>
