<?xml version="1.0" encoding="UTF-8"?>
<!--Generator: Apple Native CoreSVG 341-->
<!DOCTYPE svg
PUBLIC "-//W3C//DTD SVG 1.1//EN"
       "http://www.w3.org/Graphics/SVG/1.1/DTD/svg11.dtd">
<svg version="1.1" xmlns="http://www.w3.org/2000/svg" xmlns:xlink="http://www.w3.org/1999/xlink" viewBox="0 0 16.1328 15.7715">
 <g>
  <rect height="15.7715" opacity="0" width="16.1328" x="0" y="0"/>
  <path d="M7.88086 15.7617C12.2363 15.7617 15.7715 12.2266 15.7715 7.88086C15.7715 3.53516 12.2363 0 7.88086 0C3.53516 0 0 3.53516 0 7.88086C0 12.2266 3.53516 15.7617 7.88086 15.7617Z" fill="white" fill-opacity="0.2125"/>
  <path d="M7.89062 5.15625C7.30469 5.15625 6.81641 4.67773 6.81641 4.08203C6.81641 3.47656 7.30469 2.98828 7.89062 2.98828C8.48633 2.98828 8.96484 3.47656 8.96484 4.08203C8.96484 4.67773 8.48633 5.15625 7.89062 5.15625ZM7.88086 9.0332C7.73438 9.0332 7.63672 9.11133 7.58789 9.27734L6.85547 12.1094C6.68945 12.7539 5.81055 12.5293 5.89844 11.9141C5.9375 11.6895 6.57227 9.29688 6.66016 8.75977C6.72852 8.34961 6.69922 7.32422 6.69922 6.93359C6.69922 6.78711 6.58203 6.71875 6.43555 6.76758L5.20508 7.27539C4.86328 7.41211 4.61914 7.23633 4.56055 7.00195C4.49219 6.77734 4.58984 6.51367 4.90234 6.39648L6.25977 5.83008C6.5625 5.71289 6.82617 5.64453 7.11914 5.60547C7.35352 5.72266 7.60742 5.79102 7.88086 5.79102C8.16406 5.79102 8.41797 5.72266 8.65234 5.60547C8.94531 5.64453 9.20898 5.71289 9.51172 5.83008L10.8691 6.39648C11.1816 6.51367 11.2793 6.77734 11.2109 7.00195C11.1523 7.23633 10.9082 7.41211 10.5664 7.27539L9.33594 6.76758C9.18945 6.71875 9.07227 6.78711 9.07227 6.93359C9.07227 7.32422 9.04297 8.34961 9.11133 8.75977C9.19922 9.29688 9.83398 11.6895 9.87305 11.9141C9.96094 12.5293 9.08203 12.7539 8.91602 12.1094L8.18359 9.27734C8.13477 9.11133 8.02734 9.0332 7.88086 9.0332Z" fill="white" fill-opacity="0.85"/>
 </g>
</svg>
