<?xml version="1.0" encoding="UTF-8"?>
<!--Generator: Apple Native CoreSVG 341-->
<!DOCTYPE svg
PUBLIC "-//W3C//DTD SVG 1.1//EN"
       "http://www.w3.org/Graphics/SVG/1.1/DTD/svg11.dtd">
<svg version="1.1" xmlns="http://www.w3.org/2000/svg" xmlns:xlink="http://www.w3.org/1999/xlink" viewBox="0 0 16.1328 15.7715">
 <g>
  <rect height="15.7715" opacity="0" width="16.1328" x="0" y="0"/>
  <path d="M15.7715 7.89062C15.7715 12.2363 12.2363 15.7715 7.88086 15.7715C3.53516 15.7715 0 12.2363 0 7.89062C0 3.54492 3.53516 0.00976562 7.88086 0.00976562C12.2363 0.00976562 15.7715 3.54492 15.7715 7.89062ZM4.99023 4.35547C4.64844 4.51172 4.48242 4.77539 4.48242 5.14648L4.48242 11.7676C4.48242 11.9824 4.67773 12.1777 4.88281 12.1777C5.11719 12.1777 5.27344 11.9922 5.27344 11.7676L5.27344 9.48242C5.41016 9.42383 5.72266 9.32617 6.18164 9.32617C7.58789 9.32617 8.48633 10.0195 9.83398 10.0195C10.459 10.0195 10.7031 9.95117 10.9961 9.82422C11.3379 9.6582 11.5039 9.4043 11.5039 9.01367L11.5039 5.11719C11.5039 4.86328 11.3672 4.6875 11.0156 4.6875C10.7812 4.6875 10.4395 4.85352 9.79492 4.85352C8.47656 4.85352 7.55859 4.15039 6.14258 4.15039C5.51758 4.15039 5.2832 4.21875 4.99023 4.35547ZM8.00781 5.20508L8.00781 6.36719C8.47656 6.50391 8.91602 6.63086 9.47266 6.67969L9.47266 5.52734C9.58008 5.53711 9.70703 5.53711 9.84375 5.53711C10.2734 5.53711 10.625 5.47852 10.8496 5.41992L10.8496 6.58203C10.6445 6.63086 10.2832 6.69922 9.84375 6.69922C9.70703 6.69922 9.58008 6.68945 9.47266 6.67969L9.47266 7.99805C9.58008 8.00781 9.69727 8.01758 9.84375 8.01758C10.2734 8.01758 10.625 7.96875 10.8496 7.90039L10.8496 9.02344C10.791 9.16016 10.498 9.3457 9.90234 9.3457C9.73633 9.3457 9.58984 9.33594 9.47266 9.30664L9.47266 7.99805C8.94531 7.93945 8.47656 7.8418 8.00781 7.67578L8.00781 8.95508C7.54883 8.82812 7.08008 8.69141 6.5332 8.65234L6.5332 7.34375C6.39648 7.32422 6.2793 7.31445 6.08398 7.31445C5.48828 7.31445 5.19531 7.49023 5.13672 7.61719L5.13672 6.29883C5.19531 6.17188 5.48828 5.98633 6.08398 5.98633C6.2207 5.98633 6.40625 5.99609 6.5332 6.02539L6.5332 4.85352C7.06055 4.91211 7.5293 5.05859 8.00781 5.20508ZM6.5332 7.34375C7.07031 7.40234 7.48047 7.5293 8.00781 7.67578L8.00781 6.36719C7.50977 6.2207 7.08008 6.07422 6.5332 6.02539Z" fill="white" fill-opacity="0.85"/>
 </g>
</svg>
