<?xml version="1.0" encoding="UTF-8"?>
<!--Generator: Apple Native CoreSVG 341-->
<!DOCTYPE svg
PUBLIC "-//W3C//DTD SVG 1.1//EN"
       "http://www.w3.org/Graphics/SVG/1.1/DTD/svg11.dtd">
<svg version="1.1" xmlns="http://www.w3.org/2000/svg" xmlns:xlink="http://www.w3.org/1999/xlink" viewBox="0 0 16.1328 15.7715">
 <g>
  <rect height="15.7715" opacity="0" width="16.1328" x="0" y="0"/>
  <path d="M15.7715 7.89062C15.7715 12.2363 12.2363 15.7715 7.88086 15.7715C3.53516 15.7715 0 12.2363 0 7.89062C0 3.54492 3.53516 0.00976562 7.88086 0.00976562C12.2363 0.00976562 15.7715 3.54492 15.7715 7.89062ZM4.48242 11.7676C4.48242 11.9824 4.67773 12.1777 4.88281 12.1777C5.11719 12.1777 5.27344 11.9922 5.27344 11.7676L5.27344 9.48242C5.41016 9.42383 5.72266 9.32617 6.18164 9.32617C7.0334 9.32617 7.69886 9.58054 8.39084 9.7808L4.48242 5.87773ZM4.04297 4.05273C3.90625 4.19922 3.90625 4.46289 4.04297 4.59961L11.1816 11.7285C11.3281 11.875 11.582 11.875 11.7285 11.7285C11.8848 11.5723 11.8848 11.3281 11.7285 11.1816L4.60938 4.05273C4.45312 3.89648 4.20898 3.89648 4.04297 4.05273ZM5.56909 4.1809L11.143 9.7395C11.3857 9.57552 11.5039 9.34326 11.5039 9.01367L11.5039 5.11719C11.5039 4.86328 11.3672 4.6875 11.0156 4.6875C10.7812 4.6875 10.4395 4.85352 9.79492 4.85352C8.47656 4.85352 7.55859 4.15039 6.14258 4.15039C5.90195 4.15039 5.71922 4.16052 5.56909 4.1809Z" fill="white" fill-opacity="0.85"/>
 </g>
</svg>
