<?xml version="1.0" encoding="UTF-8"?>
<!--Generator: Apple Native CoreSVG 341-->
<!DOCTYPE svg
PUBLIC "-//W3C//DTD SVG 1.1//EN"
       "http://www.w3.org/Graphics/SVG/1.1/DTD/svg11.dtd">
<svg version="1.1" xmlns="http://www.w3.org/2000/svg" xmlns:xlink="http://www.w3.org/1999/xlink" viewBox="0 0 13.252 18.0957">
 <g>
  <rect height="18.0957" opacity="0" width="13.252" x="0" y="0"/>
  <path d="M6.06445 16.6992C10.1562 16.6992 12.8906 13.9355 12.8906 9.77539C12.8906 2.87109 7.00195 0 2.97852 0C2.19727 0 1.68945 0.283203 1.68945 0.820312C1.68945 1.02539 1.78711 1.25 1.95312 1.44531C2.85156 2.51953 3.75977 3.7793 3.7793 5.32227C3.7793 5.64453 3.76953 5.91797 3.53516 6.33789L3.94531 6.26953C3.60352 5.11719 2.72461 4.28711 1.86523 4.28711C1.50391 4.28711 1.25977 4.55078 1.25977 4.94141C1.25977 5.13672 1.31836 5.60547 1.31836 5.9375C1.31836 7.56836 0 8.62305 0 11.416C0 14.5898 2.42188 16.6992 6.06445 16.6992ZM6.25977 14.5508C4.80469 14.5508 3.82812 13.6621 3.82812 12.3438C3.82812 10.9668 4.81445 10.4785 4.94141 9.58984C4.95117 9.51172 4.99023 9.49219 5.04883 9.54102C5.41016 9.86328 5.63477 10.2539 5.82031 10.7129C6.24023 10.1465 6.43555 8.93555 6.31836 7.67578C6.30859 7.59766 6.35742 7.55859 6.42578 7.58789C8.1543 8.38867 9.0332 10.0977 9.0332 11.6309C9.0332 13.1836 8.125 14.5508 6.25977 14.5508Z" fill="white" fill-opacity="0.85"/>
 </g>
</svg>
