<?xml version="1.0" encoding="UTF-8"?>
<!--Generator: Apple Native CoreSVG 341-->
<!DOCTYPE svg
PUBLIC "-//W3C//DTD SVG 1.1//EN"
       "http://www.w3.org/Graphics/SVG/1.1/DTD/svg11.dtd">
<svg version="1.1" xmlns="http://www.w3.org/2000/svg" xmlns:xlink="http://www.w3.org/1999/xlink" viewBox="0 0 16.1328 15.7715">
 <g>
  <rect height="15.7715" opacity="0" width="16.1328" x="0" y="0"/>
  <path d="M7.88086 15.7617C12.2363 15.7617 15.7715 12.2363 15.7715 7.88086C15.7715 3.52539 12.2363 0 7.88086 0C3.53516 0 0 3.52539 0 7.88086C0 12.2363 3.53516 15.7617 7.88086 15.7617ZM7.88086 14.2773C4.3457 14.2773 1.49414 11.416 1.49414 7.88086C1.49414 4.3457 4.3457 1.48438 7.88086 1.48438C11.416 1.48438 14.2773 4.3457 14.2773 7.88086C14.2773 11.416 11.416 14.2773 7.88086 14.2773Z" fill="white" fill-opacity="0.425"/>
  <path d="M7.90039 12.6465C10.1074 12.6465 11.5625 11.1523 11.5625 8.93555C11.5625 5.21484 8.39844 3.68164 6.25 3.68164C5.83008 3.68164 5.56641 3.83789 5.56641 4.13086C5.56641 4.23828 5.61523 4.35547 5.70312 4.46289C6.17188 5.0293 6.66016 5.70312 6.66992 6.54297C6.66992 6.71875 6.66992 6.85547 6.54297 7.08008L6.76758 7.04102C6.58203 6.42578 6.11328 5.98633 5.64453 5.98633C5.45898 5.98633 5.33203 6.12305 5.33203 6.33789C5.33203 6.43555 5.36133 6.68945 5.36133 6.875C5.36133 7.74414 4.64844 8.31055 4.64844 9.80469C4.64844 11.5039 5.94727 12.6465 7.90039 12.6465ZM8.00781 11.4941C7.23633 11.4941 6.69922 11.0156 6.69922 10.3027C6.69922 9.56055 7.23633 9.29688 7.30469 8.83789C7.30469 8.78906 7.33398 8.7793 7.36328 8.80859C7.55859 8.96484 7.66602 9.17969 7.7832 9.42383C8.00781 9.12109 8.10547 8.47656 8.03711 7.8125C8.02734 7.75391 8.05664 7.74414 8.0957 7.75391C9.0332 8.18359 9.49219 9.10156 9.49219 9.92188C9.49219 10.752 9.01367 11.4941 8.00781 11.4941Z" fill="white" fill-opacity="0.85"/>
 </g>
</svg>
