<?xml version="1.0" encoding="UTF-8"?>
<!--Generator: Apple Native CoreSVG 341-->
<!DOCTYPE svg
PUBLIC "-//W3C//DTD SVG 1.1//EN"
       "http://www.w3.org/Graphics/SVG/1.1/DTD/svg11.dtd">
<svg version="1.1" xmlns="http://www.w3.org/2000/svg" xmlns:xlink="http://www.w3.org/1999/xlink" viewBox="0 0 14.5898 14.248">
 <g>
  <rect height="14.248" opacity="0" width="14.5898" x="0" y="0"/>
  <path d="M14.2285 2.4707L14.2285 11.7871C14.2285 13.4277 13.4082 14.248 11.7383 14.248L2.49023 14.248C0.830078 14.248 0 13.4277 0 11.7871L0 2.4707C0 0.830078 0.830078 0.00976562 2.49023 0.00976562L11.7383 0.00976562C13.4082 0.00976562 14.2285 0.830078 14.2285 2.4707ZM6.85547 5.38086L6.65039 6.62109L5.08789 6.62109C4.87305 6.62109 4.7168 6.76758 4.7168 6.97266C4.7168 7.17773 4.87305 7.32422 5.08789 7.32422L6.54297 7.32422L6.31836 8.70117C6.19141 9.46289 5.86914 9.85352 5.08789 9.85352C4.77539 9.85352 4.69727 9.81445 4.38477 9.81445C4.16016 9.81445 4.0332 9.96094 4.0332 10.1562C4.0332 10.3906 4.16016 10.5176 4.38477 10.6152C4.61914 10.7129 4.93164 10.7227 5.18555 10.7227C6.48438 10.7227 7.10938 10.0781 7.30469 8.82812L7.55859 7.32422L9.22852 7.32422C9.44336 7.32422 9.59961 7.17773 9.59961 6.97266C9.59961 6.76758 9.44336 6.62109 9.22852 6.62109L7.65625 6.62109L7.86133 5.45898C7.98828 4.72656 8.36914 4.38477 9.10156 4.38477C9.38477 4.38477 9.58008 4.43359 9.79492 4.43359C10.0293 4.41406 10.1562 4.30664 10.1562 4.07227C10.1562 3.85742 9.98047 3.70117 9.79492 3.63281C9.58008 3.53516 9.24805 3.51562 9.01367 3.51562C7.77344 3.51562 7.06055 4.14062 6.85547 5.38086Z" fill="white" fill-opacity="0.85"/>
 </g>
</svg>
