<svg version="1.1" xmlns="http://www.w3.org/2000/svg" xmlns:xlink="http://www.w3.org/1999/xlink" viewBox="0 0 17.8711 14.2676">
 <g>
  <rect height="14.2676" opacity="0" width="17.8711" x="0" y="0"/>
  <path d="M2.49023 14.1602L15.3027 14.1602C16.6895 14.1602 17.5098 13.3398 17.5098 11.6992L17.5098 3.84766C17.5098 2.20703 16.6797 1.39648 15.0195 1.39648L7.24609 1.39648C6.76758 1.39648 6.45508 1.25977 6.07422 0.957031L5.5957 0.566406C5.08789 0.146484 4.66797 0 3.92578 0L2.19727 0C0.820312 0 0 0.800781 0 2.43164L0 11.6992C0 13.3398 0.830078 14.1602 2.49023 14.1602ZM1.52344 4.16016L1.52344 3.64258C1.52344 3.20312 1.85547 2.91992 2.39258 2.91992L15.0879 2.91992C15.6152 2.91992 15.9473 3.20312 15.9473 3.64258L15.9473 4.16016Z" fill="var(--color-primary)"/>
 </g>
</svg>
