<?xml version="1.0" encoding="UTF-8"?>
<!--Generator: Apple Native CoreSVG 341-->
<!DOCTYPE svg
PUBLIC "-//W3C//DTD SVG 1.1//EN"
       "http://www.w3.org/Graphics/SVG/1.1/DTD/svg11.dtd">
<svg version="1.1" xmlns="http://www.w3.org/2000/svg" xmlns:xlink="http://www.w3.org/1999/xlink" viewBox="0 0 16.1328 15.7715">
 <g>
  <rect height="15.7715" opacity="0" width="16.1328" x="0" y="0"/>
  <path d="M15.7715 7.88086C15.7715 12.2266 12.2363 15.7617 7.88086 15.7617C3.53516 15.7617 0 12.2266 0 7.88086C0 3.53516 3.53516 0 7.88086 0C12.2363 0 15.7715 3.53516 15.7715 7.88086ZM6.50391 4.28711C6.17188 4.28711 5.9668 4.49219 5.9668 4.83398L5.9668 9.74609L5.19531 9.74609C5.03906 9.74609 4.91211 9.87305 4.91211 10.0293C4.91211 10.2051 5.03906 10.3223 5.19531 10.3223L5.9668 10.3223L5.9668 11.0938C5.9668 11.416 6.18164 11.6406 6.50391 11.6406C6.80664 11.6406 7.02148 11.416 7.02148 11.0938L7.02148 10.3223L8.67188 10.3223C8.84766 10.3223 8.95508 10.2051 8.95508 10.0293C8.95508 9.87305 8.84766 9.74609 8.67188 9.74609L7.02148 9.74609L7.02148 8.33008L9.59961 8.33008C9.87305 8.33008 10.0781 8.14453 10.0781 7.88086C10.0781 7.62695 9.87305 7.43164 9.59961 7.43164L7.02148 7.43164L7.02148 5.20508L9.87305 5.20508C10.1562 5.20508 10.3613 5.00977 10.3613 4.74609C10.3613 4.47266 10.1562 4.28711 9.87305 4.28711Z" fill="white" fill-opacity="0.85"/>
 </g>
</svg>
