<?xml version="1.0" encoding="UTF-8"?>
<!--Generator: Apple Native CoreSVG 341-->
<!DOCTYPE svg
PUBLIC "-//W3C//DTD SVG 1.1//EN"
       "http://www.w3.org/Graphics/SVG/1.1/DTD/svg11.dtd">
<svg version="1.1" xmlns="http://www.w3.org/2000/svg" xmlns:xlink="http://www.w3.org/1999/xlink" viewBox="0 0 17.7734 16.5527">
 <g>
  <rect height="16.5527" opacity="0" width="17.7734" x="0" y="0"/>
  <path d="M9.6875 0.283203L16.2109 4.04297C16.5234 4.23828 16.6797 4.46289 16.6797 4.72656C16.6797 5.07812 16.3965 5.42969 15.918 5.42969L15.2637 5.42969L15.2637 13.9941L15.752 13.9941C16.1133 13.9941 16.3184 14.1992 16.3184 14.5508L16.3184 15.127L16.709 15.127C17.0898 15.127 17.4121 15.4492 17.4121 15.8301C17.4121 16.2207 17.0898 16.543 16.709 16.543L0.703125 16.543C0.322266 16.543 0 16.2207 0 15.8301C0 15.4492 0.322266 15.127 0.703125 15.127L1.10352 15.127L1.10352 14.5508C1.10352 14.1992 1.30859 13.9941 1.66992 13.9941L2.1582 13.9941L2.1582 5.42969L1.49414 5.42969C1.01562 5.42969 0.732422 5.07812 0.732422 4.72656C0.732422 4.46289 0.878906 4.23828 1.20117 4.04297L7.72461 0.283203C8.03711 0.0976562 8.37891 0 8.71094 0C9.0332 0 9.375 0.0976562 9.6875 0.283203ZM7.32422 5.17578C6.99219 5.17578 6.78711 5.38086 6.78711 5.72266L6.78711 10.6445L6.01562 10.6445C5.85938 10.6445 5.73242 10.7617 5.73242 10.9277C5.73242 11.0938 5.85938 11.2109 6.01562 11.2109L6.78711 11.2109L6.78711 11.9922C6.78711 12.3145 7.00195 12.5293 7.32422 12.5293C7.62695 12.5293 7.8418 12.3145 7.8418 11.9922L7.8418 11.2109L9.49219 11.2109C9.66797 11.2109 9.78516 11.0938 9.78516 10.9277C9.78516 10.7617 9.66797 10.6445 9.49219 10.6445L7.8418 10.6445L7.8418 9.22852L10.4199 9.22852C10.6934 9.22852 10.8984 9.0332 10.8984 8.76953C10.8984 8.51562 10.6934 8.33008 10.4199 8.33008L7.8418 8.33008L7.8418 6.09375L10.6934 6.09375C10.9766 6.09375 11.1816 5.9082 11.1816 5.64453C11.1816 5.37109 10.9766 5.17578 10.6934 5.17578Z" fill="white" fill-opacity="0.85"/>
 </g>
</svg>
