<?xml version="1.0" encoding="UTF-8"?>
<!--Generator: Apple Native CoreSVG 341-->
<!DOCTYPE svg
PUBLIC "-//W3C//DTD SVG 1.1//EN"
       "http://www.w3.org/Graphics/SVG/1.1/DTD/svg11.dtd">
<svg version="1.1" xmlns="http://www.w3.org/2000/svg" xmlns:xlink="http://www.w3.org/1999/xlink" viewBox="0 0 21.6602 17.2363">
 <g>
  <rect height="17.2363" opacity="0" width="21.6602" x="0" y="0"/>
  <path d="M20.1953 13.8867C20.8008 13.8867 21.2988 13.3984 21.2988 12.832C21.2988 12.2461 20.8008 11.7773 20.1953 11.7773C19.5898 11.7773 19.0918 12.2461 19.0918 12.832C19.0918 13.3984 19.5996 13.8867 20.1953 13.8867ZM20.1953 10.4004C20.625 10.4004 20.9277 10.0977 20.9473 9.64844L21.1328 4.26758C21.1523 3.71094 20.7812 3.33008 20.1953 3.33008C19.6191 3.33008 19.2383 3.71094 19.2578 4.26758L19.4434 9.64844C19.4629 10.0977 19.7656 10.4004 20.1953 10.4004Z" fill="white" fill-opacity="0.85"/>
  <path d="M1.28906 16.6016L2.69531 16.6016L2.69531 1.97266C2.69531 1.60156 2.87109 1.40625 3.24219 1.40625L9.87305 1.40625C10.2344 1.40625 10.4199 1.5918 10.4199 1.97266L10.4297 16.6016L11.8457 16.6016L11.8457 1.95312C11.8457 0.683594 11.1523 0 9.89258 0L3.22266 0C1.95312 0 1.28906 0.693359 1.28906 1.95312ZM3.87695 6.97266L9.23828 6.97266C9.47266 6.97266 9.6582 6.78711 9.6582 6.55273L9.6582 2.58789C9.6582 2.35352 9.47266 2.17773 9.23828 2.17773L3.87695 2.17773C3.64258 2.17773 3.4668 2.35352 3.4668 2.58789L3.4668 6.55273C3.4668 6.78711 3.64258 6.97266 3.87695 6.97266ZM0 16.5234C0 16.9141 0.3125 17.2363 0.693359 17.2363L12.4219 17.2363C12.8027 17.2363 13.125 16.9141 13.125 16.5234C13.125 16.1523 12.8027 15.8301 12.4219 15.8301L0.693359 15.8301C0.322266 15.8301 0 16.1426 0 16.5234ZM14.7559 15.3223C16.1914 15.3223 17.002 14.3652 17.002 12.6562C17.002 10.7227 16.6309 8.49609 15.9082 4.98047L15.7617 4.27734C15.5957 3.44727 15.3223 2.74414 14.8438 2.14844L14.0137 1.11328C13.5742 0.556641 12.7246 1.19141 13.2031 1.77734L14.2676 3.125C14.3359 3.21289 14.3457 3.33984 14.2773 3.45703L13.6523 4.60938C13.4668 4.96094 13.4961 5.19531 13.8086 5.53711L15.2051 7.02148C15.6836 9.14062 15.9668 11.1621 15.9668 12.6562C15.9668 13.7012 15.5371 14.2871 14.7559 14.2871C14.0723 14.2871 13.6328 13.8477 13.6328 13.1348C13.6328 11.9727 13.8184 10.4688 13.8184 9.08203C13.8184 7.69531 13.1543 6.65039 11.416 6.09375L11.0059 7.04102C12.2949 7.41211 12.7832 8.16406 12.7832 9.08203C12.7832 10.3125 12.5977 11.8262 12.5977 13.1348C12.5977 14.4824 13.4277 15.3223 14.7559 15.3223Z" fill="white" fill-opacity="0.85"/>
 </g>
</svg>
