<svg version="1.1" xmlns="http://www.w3.org/2000/svg" xmlns:xlink="http://www.w3.org/1999/xlink" viewBox="0 0 25.4492 15.5176">
 <g>
  <rect height="15.5176" opacity="0" width="25.4492" x="0" y="0"/>
  <path d="M19.873 14.1504C21.3184 14.1504 22.4805 12.998 22.4805 11.5527C22.4805 10.5469 21.9043 9.74609 21.1523 9.33594C20.8887 9.18945 20.752 8.93555 20.752 8.54492L20.752 2.30469C20.752 1.82617 20.3613 1.43555 19.8828 1.43555C19.4141 1.43555 19.0234 1.82617 19.0234 2.30469L19.0234 8.54492C19.0234 8.91602 18.877 9.16016 18.5938 9.31641C17.8516 9.73633 17.2949 10.5469 17.2949 11.5527C17.2949 12.998 18.4473 14.1504 19.873 14.1504ZM22.9004 3.22266L24.5898 3.22266C24.8926 3.22266 25.0879 2.98828 25.0879 2.71484C25.0879 2.45117 24.8926 2.2168 24.5898 2.2168L22.9004 2.2168C22.5977 2.2168 22.4023 2.45117 22.4023 2.71484C22.4023 2.98828 22.5977 3.22266 22.9004 3.22266ZM22.9004 5.3418L24.5898 5.3418C24.8926 5.3418 25.0879 5.09766 25.0879 4.83398C25.0879 4.57031 24.8926 4.33594 24.5898 4.33594L22.9004 4.33594C22.5977 4.33594 22.4023 4.57031 22.4023 4.83398C22.4023 5.09766 22.5977 5.3418 22.9004 5.3418ZM22.9004 7.45117L24.5898 7.45117C24.8926 7.45117 25.0879 7.2168 25.0879 6.95312C25.0879 6.68945 24.8926 6.45508 24.5898 6.45508L22.9004 6.45508C22.5977 6.45508 22.4023 6.68945 22.4023 6.95312C22.4023 7.2168 22.5977 7.45117 22.9004 7.45117Z" fill="var(--color-primary)"/>
  <path d="M10.3125 14.9414L10.3125 1.75781C10.3125 0.615234 9.69727 0 8.56445 0L2.90039 0C1.75781 0 1.15234 0.625 1.15234 1.75781L1.15234 14.9414ZM3.20312 6.2793C2.68555 6.2793 2.39258 6.00586 2.39258 5.53711L2.39258 1.98242C2.39258 1.51367 2.68555 1.23047 3.20312 1.23047L8.26172 1.23047C8.7793 1.23047 9.08203 1.51367 9.08203 1.98242L9.08203 5.53711C9.08203 6.00586 8.7793 6.2793 8.26172 6.2793ZM0 14.8633C0 15.2246 0.283203 15.5078 0.625 15.5078L10.8398 15.5078C11.1816 15.5078 11.4746 15.2246 11.4746 14.8633C11.4746 14.5312 11.1816 14.2383 10.8398 14.2383L0.625 14.2383C0.283203 14.2383 0 14.5215 0 14.8633ZM12.9395 13.7891C14.2285 13.7891 14.9609 12.9297 14.9609 11.3965C14.9609 9.6582 14.6191 7.64648 13.9746 4.48242L13.8477 3.85742C13.6914 3.10547 13.4473 2.4707 13.0176 1.93359L12.2656 1.00586C11.875 0.507812 11.1133 1.07422 11.5332 1.60156L12.5 2.8125C12.5586 2.89062 12.5684 3.00781 12.5098 3.11523L11.9531 4.15039C11.7773 4.46289 11.8066 4.67773 12.0801 4.98047L13.3398 6.31836C13.7695 8.23242 14.0332 10.0488 14.0332 11.3965C14.0332 12.334 13.6426 12.8613 12.9395 12.8613C12.3242 12.8613 11.9336 12.4707 11.9336 11.8262C11.9336 10.7812 12.0996 9.42383 12.0996 8.18359C12.0996 6.93359 11.4941 5.98633 9.93164 5.48828L9.56055 6.33789C10.7227 6.67969 11.1621 7.35352 11.1621 8.18359C11.1621 9.28711 10.9961 10.6445 10.9961 11.8262C10.9961 13.0371 11.748 13.7891 12.9395 13.7891Z" fill="var(--color-primary)"/>
 </g>
</svg>
