<?xml version="1.0" encoding="UTF-8"?>
<!--Generator: Apple Native CoreSVG 341-->
<!DOCTYPE svg
PUBLIC "-//W3C//DTD SVG 1.1//EN"
       "http://www.w3.org/Graphics/SVG/1.1/DTD/svg11.dtd">
<svg version="1.1" xmlns="http://www.w3.org/2000/svg" xmlns:xlink="http://www.w3.org/1999/xlink" viewBox="0 0 16.1328 15.791">
 <g>
  <rect height="15.791" opacity="0" width="16.1328" x="0" y="0"/>
  <path d="M15.7715 7.91016C15.7715 12.2559 12.2363 15.791 7.88086 15.791C3.53516 15.791 0 12.2559 0 7.91016C0 3.56445 3.53516 0.0292969 7.88086 0.0292969C12.2363 0.0292969 15.7715 3.56445 15.7715 7.91016ZM5.70312 3.4375C5.04883 3.4375 4.7168 3.7793 4.7168 4.42383L4.7168 11.4844L4.41406 11.4844C4.20898 11.4844 4.05273 11.6406 4.05273 11.8457C4.05273 12.0508 4.20898 12.207 4.41406 12.207L10.1855 12.207C10.3809 12.207 10.5566 12.0508 10.5566 11.8457C10.5566 11.6504 10.3809 11.4844 10.1855 11.4844L9.89258 11.4844L9.89258 7.20703C10.2441 7.40234 10.3711 7.71484 10.3711 8.06641C10.3711 8.68164 10.2832 9.45312 10.2832 10.127C10.2832 10.8105 10.7129 11.2305 11.3867 11.2305C12.1191 11.2305 12.5293 10.752 12.5293 9.87305C12.5293 8.88672 12.334 7.75391 11.9727 5.97656L11.8945 5.5957C11.8164 5.19531 11.6699 4.82422 11.4258 4.52148L11.0059 3.99414C10.7812 3.71094 10.332 4.0332 10.5859 4.33594L11.123 5.00977C11.1523 5.05859 11.1621 5.12695 11.123 5.19531L10.8203 5.78125C10.7227 5.95703 10.7324 6.08398 10.8984 6.25L11.6016 7.01172C11.8555 8.0957 12.002 9.11133 12.002 9.87305C12.002 10.4102 11.7773 10.7031 11.3867 10.7031C11.0352 10.7031 10.8203 10.4785 10.8203 10.127C10.8203 9.53125 10.8984 8.76953 10.8984 8.06641C10.8984 7.40234 10.625 6.89453 9.89258 6.61133L9.89258 4.42383C9.89258 3.7793 9.54102 3.4375 8.89648 3.4375ZM9.19922 4.55078L9.19922 6.5625C9.19922 6.82617 9.02344 6.98242 8.74023 6.98242L5.86914 6.98242C5.56641 6.98242 5.41016 6.82617 5.41016 6.5625L5.41016 4.55078C5.41016 4.28711 5.56641 4.13086 5.86914 4.13086L8.74023 4.13086C9.02344 4.13086 9.19922 4.28711 9.19922 4.55078Z" fill="white" fill-opacity="0.85"/>
 </g>
</svg>
