<?xml version="1.0" encoding="UTF-8"?>
<!--Generator: Apple Native CoreSVG 341-->
<!DOCTYPE svg
PUBLIC "-//W3C//DTD SVG 1.1//EN"
       "http://www.w3.org/Graphics/SVG/1.1/DTD/svg11.dtd">
<svg version="1.1" xmlns="http://www.w3.org/2000/svg" xmlns:xlink="http://www.w3.org/1999/xlink" viewBox="0 0 17.627 17.0384">
 <g>
  <rect height="17.0384" opacity="0" width="17.627" x="0" y="0"/>
  <path d="M8.63281 15.946C8.80859 15.946 8.99414 15.9362 9.16992 15.9264L9.59961 16.7565C9.70703 16.9616 9.91211 17.0495 10.127 17.0202C10.3613 16.9811 10.5078 16.8151 10.5371 16.5905L10.6738 15.6725C11.0254 15.5651 11.3477 15.4381 11.6797 15.3014L12.3633 15.9264C12.5195 16.0827 12.7539 16.1022 12.9492 15.9948C13.1543 15.8776 13.2422 15.6725 13.1934 15.4479L12.9883 14.5397C13.2812 14.3249 13.5547 14.1003 13.8086 13.8561L14.668 14.2077C14.8828 14.2956 15.0977 14.237 15.2539 14.0612C15.4004 13.8854 15.4102 13.6608 15.293 13.4753L14.7852 12.6842C14.9902 12.3815 15.166 12.0788 15.3223 11.7565L16.25 11.7956C16.4844 11.8053 16.6699 11.6881 16.748 11.4635C16.8359 11.2487 16.7676 11.0338 16.582 10.8971L15.8398 10.3307C15.9277 9.98893 15.9863 9.63736 16.0254 9.27604L16.9141 8.99283C17.1387 8.92447 17.2656 8.74869 17.2656 8.51432C17.2656 8.27994 17.1387 8.10416 16.9141 8.0358L16.0254 7.7526C15.9863 7.39127 15.9277 7.03971 15.8398 6.69791L16.582 6.1315C16.7676 5.99479 16.8164 5.77994 16.7578 5.5651C16.6699 5.33072 16.4746 5.2233 16.25 5.23307L15.3223 5.26236C15.166 4.9401 14.9902 4.63736 14.7852 4.33463L15.293 3.55338C15.4102 3.36783 15.3906 3.14322 15.2637 2.96744C15.0977 2.7819 14.8828 2.73307 14.668 2.82096L13.8086 3.17252C13.5547 2.91861 13.2715 2.694 12.9883 2.48893L13.1934 1.58072C13.2422 1.35611 13.1543 1.15104 12.959 1.03385C12.7539 0.916661 12.5195 0.945958 12.3633 1.10221L11.6699 1.72721C11.3477 1.58072 11.0156 1.46354 10.6641 1.35611L10.5371 0.438145C10.5078 0.213536 10.3613 0.0572861 10.1367 0.00845797C9.90234-0.0306045 9.70703 0.0670517 9.59961 0.27213L9.16992 1.10221C8.99414 1.09244 8.80859 1.08268 8.63281 1.08268C8.45703 1.08268 8.28125 1.09244 8.0957 1.10221L7.66602 0.27213C7.55859 0.0670517 7.36328-0.0208389 7.13867 0.00845797C6.9043 0.0475205 6.75781 0.213536 6.72852 0.438145L6.5918 1.35611C6.25 1.46354 5.91797 1.59049 5.5957 1.72721L4.91211 1.10221C4.74609 0.945958 4.52148 0.926427 4.31641 1.03385C4.11133 1.15104 4.0332 1.35611 4.08203 1.58072L4.27734 2.49869C3.98438 2.70377 3.71094 2.92838 3.45703 3.18229L2.59766 2.82096C2.39258 2.73307 2.16797 2.79166 2.02148 2.96744C1.86523 3.14322 1.85547 3.36783 1.98242 3.55338L2.48047 4.3444C2.28516 4.64713 2.09961 4.94986 1.94336 5.27213L1.02539 5.23307C0.791016 5.2233 0.605469 5.34049 0.527344 5.5651C0.439453 5.77994 0.507812 5.99479 0.683594 6.1315L1.42578 6.69791C1.33789 7.03971 1.2793 7.39127 1.24023 7.7526L0.351562 8.0358C0.126953 8.10416 0 8.27994 0 8.51432C0 8.74869 0.126953 8.92447 0.351562 8.99283L1.24023 9.27604C1.2793 9.63736 1.33789 9.98893 1.42578 10.3307L0.683594 10.8971C0.507812 11.0338 0.449219 11.2487 0.517578 11.4635C0.605469 11.6979 0.791016 11.8053 1.01562 11.7956L1.94336 11.7663C2.09961 12.0885 2.28516 12.3913 2.48047 12.694L1.98242 13.4753C1.85547 13.6608 1.875 13.8952 2.01172 14.0612C2.16797 14.2467 2.39258 14.2956 2.59766 14.2077L3.45703 13.8463C3.71094 14.11 3.99414 14.3346 4.27734 14.5397L4.08203 15.4479C4.0332 15.6725 4.11133 15.8776 4.30664 15.9948C4.52148 16.112 4.74609 16.0827 4.91211 15.9264L5.60547 15.3014C5.91797 15.4479 6.25977 15.5651 6.60156 15.6725L6.72852 16.5905C6.75781 16.8151 6.91406 16.9713 7.12891 17.0202C7.36328 17.0592 7.55859 16.9616 7.66602 16.7565L8.0957 15.9264C8.28125 15.9362 8.45703 15.946 8.63281 15.946ZM8.63281 14.4909C5.33203 14.4909 2.65625 11.8151 2.65625 8.51432C2.65625 5.21354 5.33203 2.53775 8.63281 2.53775C11.9336 2.53775 14.6094 5.21354 14.6094 8.51432C14.6094 11.8151 11.9336 14.4909 8.63281 14.4909ZM7.19727 7.32291L8.22266 6.67838L5.69336 2.34244L4.61914 2.93815ZM10.4102 9.11002L15.4492 9.11002L15.4492 7.91861L10.4102 7.91861ZM8.21289 10.3893L7.20703 9.71549L4.53125 14.0807L5.58594 14.696ZM8.63281 10.6237C9.79492 10.6237 10.7422 9.67643 10.7422 8.51432C10.7422 7.35221 9.79492 6.40494 8.63281 6.40494C7.4707 6.40494 6.5332 7.35221 6.5332 8.51432C6.5332 9.67643 7.4707 10.6237 8.63281 10.6237ZM8.63281 9.3151C8.19336 9.3151 7.83203 8.95377 7.83203 8.51432C7.83203 8.07486 8.19336 7.71354 8.63281 7.71354C9.07227 7.71354 9.43359 8.07486 9.43359 8.51432C9.43359 8.95377 9.07227 9.3151 8.63281 9.3151Z" fill="white" fill-opacity="0.85"/>
 </g>
</svg>
