<?xml version="1.0" encoding="UTF-8"?>
<!--Generator: Apple Native CoreSVG 341-->
<!DOCTYPE svg
PUBLIC "-//W3C//DTD SVG 1.1//EN"
       "http://www.w3.org/Graphics/SVG/1.1/DTD/svg11.dtd">
<svg version="1.1" xmlns="http://www.w3.org/2000/svg" xmlns:xlink="http://www.w3.org/1999/xlink" viewBox="0 0 19.1355 15.7715">
 <g>
  <rect height="15.7715" opacity="0" width="19.1355" x="0" y="0"/>
  <path d="M18.1712 6.40625L14.6068 6.40625C14.0013 6.40625 13.8548 6.82617 14.1771 7.28516L15.9154 9.76562C16.1791 10.1465 16.5892 10.1562 16.8627 9.76562L18.6009 7.29492C18.933 6.82617 18.7767 6.40625 18.1712 6.40625ZM9.38219 1.48438C12.9173 1.48438 15.7787 4.3457 15.7787 7.88086C15.7787 8.28125 16.1205 8.62305 16.5306 8.62305C16.931 8.62305 17.263 8.29102 17.2728 7.89062C17.263 3.51562 13.7377 0 9.38219 0C7.06773 0 4.97789 0.996094 3.54234 2.58789C3.17125 2.99805 3.30797 3.50586 3.63023 3.75C3.91344 3.94531 4.2943 3.97461 4.65562 3.57422C5.8275 2.29492 7.50719 1.48438 9.38219 1.48438ZM0.602889 9.35547L4.15758 9.35547C4.76305 9.35547 4.9193 8.93555 4.59703 8.47656L2.85875 5.99609C2.59508 5.61523 2.18492 5.60547 1.91148 5.99609L0.173202 8.4668C-0.158829 8.93555-0.0123451 9.35547 0.602889 9.35547ZM9.38219 14.2773C5.84703 14.2773 2.99547 11.416 2.99547 7.88086C2.99547 7.48047 2.65367 7.13867 2.24351 7.13867C1.84312 7.13867 1.51109 7.4707 1.50133 7.87109C1.51109 12.2461 5.03648 15.7617 9.38219 15.7617C11.7064 15.7617 13.7865 14.7656 15.2318 13.1738C15.5931 12.7637 15.4662 12.2559 15.1341 12.0117C14.8607 11.8164 14.4798 11.7871 14.1185 12.1875C12.9466 13.4668 11.2572 14.2773 9.38219 14.2773Z" fill="white" fill-opacity="0.425"/>
  <path d="M9.04039 11.9141L9.73375 11.9141C9.92906 11.9141 10.0658 11.7969 10.1146 11.6113L10.3197 10.752C10.4759 10.6934 10.6322 10.6348 10.7689 10.5664L11.5209 11.0254C11.6771 11.123 11.8627 11.1133 11.9994 10.9766L12.4779 10.498C12.6146 10.3711 12.6341 10.166 12.517 10L12.0775 9.25781C12.1459 9.12109 12.2045 8.97461 12.2435 8.82812L13.1127 8.62305C13.2982 8.58398 13.4154 8.4375 13.4154 8.23242L13.4154 7.55859C13.4154 7.37305 13.2982 7.23633 13.1127 7.1875L12.2533 6.98242C12.2045 6.80664 12.1361 6.66016 12.0775 6.5332L12.5365 5.78125C12.6341 5.625 12.6341 5.42969 12.4974 5.29297L11.9994 4.81445C11.8627 4.69727 11.6869 4.6582 11.5306 4.75586L10.7689 5.22461C10.6322 5.16602 10.4857 5.09766 10.3197 5.03906L10.1146 4.16992C10.0658 3.98438 9.92906 3.86719 9.73375 3.86719L9.04039 3.86719C8.84508 3.86719 8.70836 3.98438 8.65953 4.16992L8.45445 5.0293C8.2982 5.08789 8.14195 5.14648 8.00523 5.22461L7.25328 4.75586C7.08726 4.6582 6.91148 4.6875 6.77476 4.81445L6.28648 5.29297C6.14 5.42969 6.14 5.625 6.23765 5.78125L6.69664 6.5332C6.63805 6.66016 6.56969 6.80664 6.52086 6.98242L5.66148 7.1875C5.47594 7.23633 5.35875 7.37305 5.35875 7.55859L5.35875 8.23242C5.35875 8.4375 5.47594 8.58398 5.66148 8.62305L6.53062 8.82812C6.56969 8.97461 6.63805 9.12109 6.7064 9.25781L6.25719 10C6.14 10.166 6.1693 10.3711 6.29625 10.498L6.77476 10.9766C6.91148 11.1133 7.09703 11.123 7.25328 11.0254L8.00523 10.5664C8.14195 10.6348 8.2982 10.6934 8.45445 10.752L8.65953 11.6113C8.70836 11.7969 8.84508 11.9141 9.04039 11.9141ZM9.39195 9.21875C8.64976 9.21875 8.0443 8.62305 8.0443 7.88086C8.0443 7.13867 8.64976 6.54297 9.39195 6.54297C10.1244 6.54297 10.7298 7.13867 10.7298 7.88086C10.7298 8.62305 10.1244 9.21875 9.39195 9.21875Z" fill="white" fill-opacity="0.85"/>
 </g>
</svg>
