<?xml version="1.0" encoding="UTF-8"?>
<!--Generator: Apple Native CoreSVG 341-->
<!DOCTYPE svg
PUBLIC "-//W3C//DTD SVG 1.1//EN"
       "http://www.w3.org/Graphics/SVG/1.1/DTD/svg11.dtd">
<svg version="1.1" xmlns="http://www.w3.org/2000/svg" xmlns:xlink="http://www.w3.org/1999/xlink" viewBox="0 0 16.1328 15.7715">
 <g>
  <rect height="15.7715" opacity="0" width="16.1328" x="0" y="0"/>
  <path d="M7.88086 15.7617C12.2363 15.7617 15.7715 12.2363 15.7715 7.88086C15.7715 3.52539 12.2363 0 7.88086 0C3.53516 0 0 3.52539 0 7.88086C0 12.2363 3.53516 15.7617 7.88086 15.7617ZM7.88086 14.2773C4.3457 14.2773 1.49414 11.416 1.49414 7.88086C1.49414 4.3457 4.3457 1.48438 7.88086 1.48438C11.416 1.48438 14.2773 4.3457 14.2773 7.88086C14.2773 11.416 11.416 14.2773 7.88086 14.2773Z" fill="white" fill-opacity="0.85"/>
  <path d="M12.2461 6.07422L8.82812 4.52148C8.4668 4.35547 8.17383 4.27734 7.87109 4.28711C7.56836 4.27734 7.27539 4.35547 6.92383 4.52148L3.50586 6.07422C3.26172 6.19141 3.14453 6.38672 3.14453 6.57227C3.14453 6.76758 3.26172 6.95312 3.50586 7.06055L4.85352 7.67578L7.12891 6.64062C7.11914 6.62109 7.11914 6.5918 7.11914 6.57227C7.11914 6.32812 7.51953 6.17188 7.89062 6.17188C8.27148 6.17188 8.66211 6.32812 8.66211 6.57227C8.66211 6.82617 8.27148 6.99219 7.89062 6.99219C7.7832 6.99219 7.67578 6.98242 7.56836 6.95312L5.41992 7.93945L6.92383 8.63281C7.28516 8.79883 7.56836 8.87695 7.87109 8.86719C8.17383 8.87695 8.4668 8.79883 8.82812 8.63281L12.2461 7.06055C12.4902 6.95312 12.6074 6.76758 12.6074 6.57227C12.6074 6.38672 12.4902 6.19141 12.2461 6.07422ZM7.87109 11.2305C9.9707 11.2305 11.3477 10.3516 11.3477 9.21875L11.3477 8.05664L9.04297 9.11133C8.62305 9.30664 8.23242 9.4043 7.87109 9.39453C7.50977 9.4043 7.12891 9.30664 6.70898 9.11133L5.40039 8.51562L5.40039 10.6641C6.00586 11.0254 6.85547 11.2305 7.87109 11.2305ZM4.4043 8.05664L4.4043 9.21875C4.4043 9.54102 4.58008 9.92188 4.87305 10.2539L4.87305 8.27148ZM4.87305 11.3477L5.40039 11.3477L5.40039 10.6641C5.19531 10.5371 5.0293 10.4102 4.87305 10.2539ZM4.59961 11.3672L4.59961 12.1094C4.59961 12.3926 4.79492 12.5879 5.08789 12.5879L5.18555 12.5879C5.46875 12.5879 5.66406 12.3926 5.66406 12.1094L5.66406 11.3672C5.66406 11.084 5.46875 10.8887 5.18555 10.8887L5.08789 10.8887C4.79492 10.8887 4.59961 11.084 4.59961 11.3672Z" fill="white" fill-opacity="0.85"/>
 </g>
</svg>
