<?xml version="1.0" encoding="UTF-8"?>
<!--Generator: Apple Native CoreSVG 341-->
<!DOCTYPE svg
PUBLIC "-//W3C//DTD SVG 1.1//EN"
       "http://www.w3.org/Graphics/SVG/1.1/DTD/svg11.dtd">
<svg version="1.1" xmlns="http://www.w3.org/2000/svg" xmlns:xlink="http://www.w3.org/1999/xlink" viewBox="0 0 21.2793 22.8613">
 <g>
  <rect height="22.8613" opacity="0" width="21.2793" x="0" y="0"/>
  <path d="M10.459 14.1309C11.1328 14.1406 11.7969 13.9551 12.6172 13.584L20.1074 10.166C20.6543 9.92188 20.918 9.43359 20.918 8.94531C20.918 8.45703 20.6543 7.95898 20.1074 7.71484L12.6172 4.29688C11.7969 3.92578 11.1328 3.74023 10.459 3.75C9.79492 3.74023 9.12109 3.92578 8.30078 4.29688L0.810547 7.71484C0.263672 7.95898 0 8.45703 0 8.94531C0 9.43359 0.263672 9.92188 0.810547 10.166L8.30078 13.584C9.12109 13.9551 9.79492 14.1406 10.459 14.1309ZM10.459 12.7441C9.96094 12.7441 9.47266 12.6172 8.82812 12.3145L1.91406 9.17969C1.78711 9.12109 1.72852 9.04297 1.72852 8.94531C1.72852 8.83789 1.78711 8.75977 1.91406 8.70117L8.82812 5.56641C9.47266 5.27344 9.96094 5.13672 10.459 5.13672C10.957 5.13672 11.4453 5.27344 12.0898 5.56641L19.0039 8.70117C19.1309 8.75977 19.1992 8.83789 19.1992 8.94531C19.1992 9.04297 19.1309 9.12109 19.0039 9.17969L12.0898 12.3145C11.4453 12.6172 10.957 12.7441 10.459 12.7441ZM2.89062 14.6973C2.89062 17.1875 5.9082 19.0918 10.459 19.0918C15.0195 19.0918 18.0273 17.1875 18.0273 14.6973L18.0273 10.6152L16.6211 10.6152L16.6211 14.6973C16.6211 16.3965 14.1699 17.7734 10.459 17.7734C6.74805 17.7734 4.29688 16.3965 4.29688 14.6973L4.29688 10.6152L2.89062 10.6152ZM10.498 9.84375C11.3086 9.84375 12.1582 9.47266 12.1582 8.94531C12.1582 8.41797 11.3086 8.05664 10.498 8.05664C9.6875 8.05664 8.82812 8.41797 8.82812 8.94531C8.82812 9.47266 9.6875 9.84375 10.498 9.84375ZM5.9375 11.9043L10.3613 9.49219L9.88281 8.60352L4.81445 11.3086ZM4.81445 19.5508L5.9375 19.5508L5.9375 11.9043L4.81445 11.3574ZM4.20898 19.7949L4.20898 21.8066C4.20898 22.4414 4.62891 22.8613 5.26367 22.8613L5.47852 22.8613C6.11328 22.8613 6.5332 22.4414 6.5332 21.8066L6.5332 19.7949C6.5332 19.1602 6.11328 18.7402 5.47852 18.7402L5.26367 18.7402C4.62891 18.7402 4.20898 19.1602 4.20898 19.7949Z" fill="white" fill-opacity="0.85"/>
 </g>
</svg>
