<?xml version="1.0" encoding="UTF-8"?>
<!--Generator: Apple Native CoreSVG 341-->
<!DOCTYPE svg
PUBLIC "-//W3C//DTD SVG 1.1//EN"
       "http://www.w3.org/Graphics/SVG/1.1/DTD/svg11.dtd">
<svg version="1.1" xmlns="http://www.w3.org/2000/svg" xmlns:xlink="http://www.w3.org/1999/xlink" viewBox="0 0 16.1328 15.7715">
 <g>
  <rect height="15.7715" opacity="0" width="16.1328" x="0" y="0"/>
  <path d="M15.7715 7.88086C15.7715 12.2363 12.2363 15.7617 7.88086 15.7617C3.53516 15.7617 0 12.2363 0 7.88086C0 3.53516 3.53516 0 7.88086 0C12.2363 0 15.7715 3.53516 15.7715 7.88086ZM4.76562 11.0254C4.58984 11.0938 4.48242 11.2598 4.48242 11.4844L4.48242 12.2461C4.48242 12.5488 4.67773 12.7441 4.98047 12.7441L5.07812 12.7441C5.38086 12.7441 5.57617 12.5488 5.57617 12.2461L5.57617 11.4844C5.57617 11.2695 5.46875 11.1035 5.3125 11.0352L5.3125 10.752C5.08789 10.625 4.91211 10.4785 4.76562 10.3223ZM9.0918 9.14062C8.65234 9.3457 8.24219 9.44336 7.87109 9.43359C7.50977 9.44336 7.09961 9.3457 6.66016 9.14062L5.3125 8.51562L5.3125 10.752C5.92773 11.1328 6.81641 11.3379 7.87109 11.3379C10.0586 11.3379 11.4746 10.4297 11.4746 9.24805L11.4746 8.03711ZM4.26758 9.24805C4.26758 9.57031 4.44336 9.98047 4.76562 10.3223L4.76562 8.26172L4.26758 8.03711ZM6.88477 4.375L3.33984 5.98633C3.08594 6.10352 2.96875 6.31836 2.96875 6.50391C2.96875 6.69922 3.08594 6.89453 3.33984 7.01172L4.73633 7.64648L7.09961 6.57227C7.08984 6.55273 7.08984 6.52344 7.08984 6.50391C7.08984 6.25 7.50977 6.08398 7.89062 6.08398C8.29102 6.08398 8.69141 6.25 8.69141 6.50391C8.69141 6.76758 8.29102 6.94336 7.89062 6.94336C7.7832 6.94336 7.66602 6.93359 7.55859 6.9043L5.33203 7.91992L6.88477 8.64258C7.26562 8.80859 7.56836 8.89648 7.87109 8.88672C8.18359 8.89648 8.48633 8.80859 8.85742 8.64258L12.4121 7.01172C12.666 6.89453 12.7832 6.69922 12.7832 6.50391C12.7832 6.31836 12.666 6.10352 12.4121 5.98633L8.85742 4.375C8.48633 4.19922 8.18359 4.12109 7.87109 4.13086C7.56836 4.12109 7.26562 4.19922 6.88477 4.375Z" fill="white" fill-opacity="0.85"/>
 </g>
</svg>
