<?xml version="1.0" encoding="UTF-8"?>
<!--Generator: Apple Native CoreSVG 341-->
<!DOCTYPE svg
PUBLIC "-//W3C//DTD SVG 1.1//EN"
       "http://www.w3.org/Graphics/SVG/1.1/DTD/svg11.dtd">
<svg version="1.1" xmlns="http://www.w3.org/2000/svg" xmlns:xlink="http://www.w3.org/1999/xlink" viewBox="0 0 16.1328 15.7715">
 <g>
  <rect height="15.7715" opacity="0" width="16.1328" x="0" y="0"/>
  <path d="M7.88086 15.7617C12.2363 15.7617 15.7715 12.2363 15.7715 7.88086C15.7715 3.52539 12.2363 0 7.88086 0C3.53516 0 0 3.52539 0 7.88086C0 12.2363 3.53516 15.7617 7.88086 15.7617ZM7.88086 14.2773C4.3457 14.2773 1.49414 11.416 1.49414 7.88086C1.49414 4.3457 4.3457 1.48438 7.88086 1.48438C11.416 1.48438 14.2773 4.3457 14.2773 7.88086C14.2773 11.416 11.416 14.2773 7.88086 14.2773Z" fill="white" fill-opacity="0.425"/>
  <path d="M7.91016 11.3086C9.67773 11.3086 10.6641 10.2539 10.6641 8.48633L10.6641 8.18359C10.6641 7.86133 10.459 7.65625 10.166 7.65625L8.07617 7.65625L8.07617 8.47656L9.67773 8.47656L9.67773 8.71094C9.67773 9.74609 9.04297 10.4297 7.91992 10.4297C6.5625 10.4297 5.89844 9.22852 5.89844 7.83203C5.89844 6.51367 6.50391 5.25391 7.90039 5.25391C8.63281 5.25391 9.3457 5.64453 9.58008 6.33789C9.6875 6.5918 9.79492 6.70898 10.0781 6.70898C10.3418 6.70898 10.5176 6.5332 10.5176 6.26953C10.5176 6.17188 10.5078 6.04492 10.4395 5.89844C10.0586 4.90234 8.94531 4.375 7.90039 4.375C5.9082 4.375 4.85352 5.9082 4.85352 7.8418C4.85352 9.87305 5.98633 11.3086 7.91016 11.3086ZM7.88086 12.1875C8.03711 12.1875 8.1543 12.0703 8.1543 11.9043L8.1543 3.7793C8.1543 3.61328 8.03711 3.49609 7.88086 3.49609C7.70508 3.49609 7.58789 3.61328 7.58789 3.7793L7.58789 11.9043C7.58789 12.0703 7.70508 12.1875 7.88086 12.1875Z" fill="white" fill-opacity="0.85"/>
 </g>
</svg>
