<?xml version="1.0" encoding="UTF-8"?>
<!--Generator: Apple Native CoreSVG 341-->
<!DOCTYPE svg
PUBLIC "-//W3C//DTD SVG 1.1//EN"
       "http://www.w3.org/Graphics/SVG/1.1/DTD/svg11.dtd">
<svg version="1.1" xmlns="http://www.w3.org/2000/svg" xmlns:xlink="http://www.w3.org/1999/xlink" viewBox="0 0 16.1328 15.7715">
 <g>
  <rect height="15.7715" opacity="0" width="16.1328" x="0" y="0"/>
  <path d="M7.88086 15.7617C12.2363 15.7617 15.7715 12.2266 15.7715 7.88086C15.7715 3.53516 12.2363 0 7.88086 0C3.53516 0 0 3.53516 0 7.88086C0 12.2266 3.53516 15.7617 7.88086 15.7617Z" fill="white" fill-opacity="0.2125"/>
  <path d="M12.3633 6.57227C12.3633 7.88086 11.6309 8.90625 10.6641 8.90625L10.0684 8.90625C10.4395 8.4375 10.8594 7.66602 10.8691 6.61133C10.8887 5.64453 10.5664 4.80469 9.80469 4.23828L10.5176 4.23828C11.582 4.23828 12.3633 5.30273 12.3633 6.57227ZM10.2441 6.60156C10.2246 7.60742 9.95117 8.23242 9.41406 8.94531C8.76953 9.81445 7.92969 10.8203 7.28516 12.0508C7.12891 12.373 6.98242 12.5781 6.66992 12.5781C6.34766 12.5781 6.08398 12.3438 6.08398 11.9531C6.08398 11.2109 6.78711 10.1562 6.78711 9.58008C6.78711 9.26758 6.55273 9.07227 6.15234 9.07227L4.64844 9.07227C4.23828 9.07227 3.91602 8.73047 3.91602 8.31055C3.91602 8.08594 4.00391 7.88086 4.12109 7.76367C4.19922 7.70508 4.21875 7.66602 4.14062 7.60742C4.0332 7.50977 3.97461 7.28516 3.97461 7.09961C3.97461 6.80664 4.10156 6.58203 4.30664 6.46484C4.375 6.41602 4.38477 6.35742 4.33594 6.28906C4.23828 6.18164 4.16992 6.00586 4.16992 5.81055C4.16992 5.47852 4.4043 5.21484 4.6582 5.12695C4.70703 5.09766 4.70703 5.05859 4.67773 5C4.63867 4.91211 4.58984 4.77539 4.58984 4.62891C4.58984 4.21875 4.92188 4.02344 5.26367 3.93555C5.49805 3.87695 5.89844 3.83789 6.44531 3.83789L7.03125 3.84766C9.01367 3.87695 10.2734 5.03906 10.2441 6.60156Z" fill="white" fill-opacity="0.85"/>
 </g>
</svg>
