<svg version="1.1" xmlns="http://www.w3.org/2000/svg" xmlns:xlink="http://www.w3.org/1999/xlink" viewBox="0 0 17.207 13.1152">
 <g>
  <rect height="13.1152" opacity="0" width="17.207" x="0" y="0"/>
  <path d="M0 7.56836C0 11.1035 2.27539 13.1152 5.99609 13.1152L7.60742 13.1152C9.02344 13.1152 9.90234 12.4316 9.90234 11.6699C9.90234 11.4941 9.80469 11.3965 9.63867 11.3965L8.98438 11.3965C8.63281 11.3965 8.45703 11.2109 8.45703 11.0059C8.45703 10.7812 8.63281 10.5957 8.98438 10.5957L9.4043 10.5957C10.2344 10.5957 10.7812 10.0684 10.7812 9.3457C10.7812 9.02344 10.6445 8.87695 10.3711 8.87695L9.47266 8.87695C9.11133 8.87695 8.93555 8.70117 8.93555 8.48633C8.93555 8.26172 9.11133 8.07617 9.47266 8.07617L10.3027 8.07617C11.2305 8.07617 11.6699 7.5293 11.6699 6.83594C11.6699 6.52344 11.5332 6.36719 11.2598 6.36719L9.47266 6.36719C9.11133 6.36719 8.93555 6.19141 8.93555 5.97656C8.93555 5.75195 9.11133 5.57617 9.47266 5.57617L15.6543 5.57617C16.25 5.57617 16.6504 5.17578 16.6504 4.66797C16.6504 4.12109 16.25 3.75 15.6543 3.75L6.46484 3.75C6.24023 3.75 6.11328 3.60352 6.11328 3.45703C6.11328 3.32031 6.20117 3.21289 6.43555 3.11523L9.25781 1.92383C9.66797 1.74805 9.85352 1.48438 9.85352 1.10352C9.85352 0.556641 9.48242 0.185547 9.02344 0.185547C8.82812 0.185547 8.68164 0.224609 8.55469 0.273438L4.7168 1.5625C1.29883 2.72461 0 4.95117 0 7.56836Z" fill="var(--color-primary)"/>
 </g>
</svg>
