<svg version="1.1" xmlns="http://www.w3.org/2000/svg" xmlns:xlink="http://www.w3.org/1999/xlink" viewBox="0 0 20.0171 21.504">
 <g>
  <rect height="21.504" opacity="0" width="20.0171" x="0" y="0"/>
  <path d="M11.1148 13.4085C10.1567 14.6556 9.11256 16.062 8.27027 17.6905C7.96754 18.2862 7.6941 18.6768 7.13746 18.6768C6.51246 18.6768 6.05347 18.2471 6.05347 17.5147C6.05347 16.128 7.36207 14.1944 7.36207 13.1494C7.36207 12.5733 6.89332 12.2119 6.19996 12.2119L3.42652 12.2119C2.65504 12.2119 2.05933 11.5967 2.05933 10.835C2.05933 10.3955 2.21558 10.0342 2.46949 9.82913C2.59644 9.71194 2.61597 9.63382 2.48902 9.52639C2.28394 9.34085 2.16676 8.95022 2.16676 8.57913C2.16676 8.07132 2.42066 7.63186 2.77222 7.42679C2.90894 7.33889 2.92847 7.24124 2.84058 7.12405C2.6648 6.90921 2.55738 6.59671 2.55738 6.23538C2.55738 5.84144 2.72153 5.50757 2.96823 5.26757ZM17.5964 7.61233C17.5964 10.0244 16.2293 11.9092 14.4714 11.9092L14.2333 11.9092L13.7331 11.4098C14.305 10.5429 14.8281 9.28632 14.8523 7.69046C14.8816 5.94241 14.2664 4.37991 12.8796 3.34475L14.1785 3.34475C16.1316 3.34475 17.5964 5.28811 17.5964 7.61233ZM7.78199 2.60257C11.4343 2.63186 13.7683 4.8096 13.7097 7.67093C13.6837 8.90523 13.4633 9.82838 13.0212 10.6988L4.99661 2.68524C5.42554 2.62215 6.00702 2.58597 6.71754 2.5928Z" fill="var(--color-secondary)"/>
  <path d="M2.0984 1.14749C1.83472 0.883817 1.40504 0.883817 1.15113 1.14749C0.897224 1.41116 0.887458 1.83108 1.15113 2.09475L15.3699 16.3037C15.6336 16.5674 16.0632 16.5674 16.3269 16.3037C16.5808 16.0498 16.5808 15.6104 16.3269 15.3565Z" fill="var(--color-primary)"/>
 </g>
</svg>
