<?xml version="1.0" encoding="UTF-8"?>
<!--Generator: Apple Native CoreSVG 341-->
<!DOCTYPE svg
PUBLIC "-//W3C//DTD SVG 1.1//EN"
       "http://www.w3.org/Graphics/SVG/1.1/DTD/svg11.dtd">
<svg version="1.1" xmlns="http://www.w3.org/2000/svg" xmlns:xlink="http://www.w3.org/1999/xlink" viewBox="0 0 18.0434 14.3006">
 <g>
  <rect height="14.3006" opacity="0" width="18.0434" x="0" y="0"/>
  <path d="M1.9514 0.241105C1.02366 1.30556 0.379131 2.5165 0.0275681 3.75673C-0.187276 4.50868 0.91624 4.90907 1.17015 4.03017C1.48265 2.97548 2.04905 1.94032 2.8596 1.02235C3.42601 0.377824 2.52757-0.403426 1.9514 0.241105ZM1.9514 11.4227C2.52757 12.077 3.42601 11.2958 2.8596 10.6415C2.04905 9.73329 1.48265 8.69814 1.17015 7.64345C0.91624 6.76454-0.187276 7.15517 0.0275681 7.91689C0.379131 9.15712 1.02366 10.3778 1.9514 11.4227Z" fill="white" fill-opacity="0.85"/>
  <path d="M13.9729 13.6981C17.1272 12.5653 18.2209 9.19618 17.4299 6.24696L16.8147 3.95204C16.3069 2.07704 15.1741 1.73525 13.7092 2.23329L14.2366 3.20985C15.1252 2.87782 15.5256 3.48329 15.6721 4.0204L16.3069 6.4911C16.9416 8.92275 16.1897 11.6083 13.6116 12.5556C11.4338 13.3368 8.73851 12.829 6.72679 10.7196L4.05101 7.88759C3.4846 7.28212 4.1389 6.63759 4.81272 7.16493L6.09202 8.20009C7.08812 8.9911 7.79124 9.49892 8.71897 9.49892C10.3694 9.49892 11.2483 8.3954 11.2483 6.93056C11.2483 6.06142 10.7307 4.62587 10.135 3.84462C9.57835 3.10243 8.89476 3.00478 7.76194 3.29775L5.90647 3.7665C5.20335 3.93251 4.86155 2.89735 5.58421 2.68251L8.29905 1.91103C9.99827 1.43251 10.8869 2.43837 11.8244 3.97157C12.1565 4.51845 13.0744 4.14735 12.7229 3.49306C11.6194 1.46181 10.0959 0.231339 7.96702 0.875871L5.08616 1.75478C3.1721 2.33095 3.84593 5.39735 6.34593 4.78212L8.23069 4.31337C8.67015 4.20595 8.93382 4.23525 9.1389 4.50868C9.66624 5.22157 10.135 6.42275 10.135 7.01845C10.135 7.84853 9.66624 8.41493 8.4846 8.41493C7.94749 8.41493 7.56663 8.13173 6.93187 7.58485L5.3889 6.27626C4.01194 5.11415 1.5803 6.85243 3.2014 8.58095L5.86741 11.4227C8.02562 13.7372 11.1897 14.704 13.9729 13.6981ZM13.8655 3.58095C14.0315 4.11806 14.9397 4.00087 14.7248 3.29775C14.0705 1.06142 11.9612 0.905167 10.8186 1.53017L11.4631 2.37001C12.1467 2.05751 13.4553 2.204 13.8655 3.58095Z" fill="white" fill-opacity="0.85"/>
 </g>
</svg>
