<?xml version="1.0" encoding="UTF-8"?>
<!--Generator: Apple Native CoreSVG 341-->
<!DOCTYPE svg
PUBLIC "-//W3C//DTD SVG 1.1//EN"
       "http://www.w3.org/Graphics/SVG/1.1/DTD/svg11.dtd">
<svg version="1.1" xmlns="http://www.w3.org/2000/svg" xmlns:xlink="http://www.w3.org/1999/xlink" viewBox="0 0 28.3789 13.7207">
 <g>
  <rect height="13.7207" opacity="0" width="28.3789" x="0" y="0"/>
  <path d="M3.0957 12.1777C3.36914 11.8555 3.29102 11.4551 2.96875 11.0938C1.97266 9.95117 1.42578 8.47656 1.42578 6.85547C1.42578 5.23438 1.97266 3.75977 2.96875 2.61719C3.29102 2.25586 3.36914 1.85547 3.0957 1.5332C2.8125 1.20117 2.32422 1.20117 1.98242 1.58203C0.703125 2.98828 0 4.85352 0 6.85547C0 8.85742 0.703125 10.7227 1.98242 12.1289C2.32422 12.5098 2.8125 12.5098 3.0957 12.1777ZM24.9219 12.1777C25.2051 12.5098 25.6934 12.5098 26.0352 12.1289C27.3145 10.7227 28.0176 8.85742 28.0176 6.85547C28.0176 4.85352 27.3145 2.98828 26.0352 1.58203C25.6934 1.20117 25.2051 1.20117 24.9219 1.5332C24.6484 1.85547 24.7266 2.25586 25.0488 2.61719C26.0449 3.75977 26.5918 5.23438 26.5918 6.85547C26.5918 8.47656 26.0449 9.95117 25.0488 11.0938C24.7266 11.4551 24.6484 11.8555 24.9219 12.1777Z" fill="white" fill-opacity="0.85"/>
  <path d="M5.26367 9.98047C5.53711 9.6582 5.41992 9.27734 5.14648 8.88672C4.73633 8.32031 4.52148 7.61719 4.52148 6.85547C4.52148 6.09375 4.73633 5.39062 5.14648 4.82422C5.41992 4.43359 5.53711 4.05273 5.26367 3.73047C4.9707 3.4082 4.44336 3.39844 4.13086 3.79883C3.47656 4.64844 3.0957 5.71289 3.0957 6.85547C3.0957 7.99805 3.47656 9.0625 4.13086 9.91211C4.44336 10.3125 4.9707 10.3027 5.26367 9.98047ZM22.7539 9.98047C23.0469 10.3027 23.5742 10.3125 23.8867 9.91211C24.541 9.0625 24.9219 7.99805 24.9219 6.85547C24.9219 5.71289 24.541 4.64844 23.8867 3.79883C23.5742 3.39844 23.0469 3.4082 22.7539 3.73047C22.4707 4.05273 22.5977 4.43359 22.8711 4.82422C23.2812 5.39062 23.4961 6.09375 23.4961 6.85547C23.4961 7.61719 23.2812 8.32031 22.8711 8.88672C22.5977 9.27734 22.4707 9.6582 22.7539 9.98047Z" fill="white" fill-opacity="0.85"/>
  <path d="M14.0039 13.7109C17.793 13.7109 20.8594 10.6445 20.8594 6.85547C20.8594 3.06641 17.793 0 14.0039 0C10.2246 0 7.1582 3.06641 7.1582 6.85547C7.1582 10.6445 10.2246 13.7109 14.0039 13.7109ZM14.0039 12.2949C11.0059 12.2949 8.56445 9.86328 8.56445 6.85547C8.56445 3.84766 11.0059 1.41602 14.0039 1.41602C17.0117 1.41602 19.4531 3.84766 19.4531 6.85547C19.4531 9.86328 17.0117 12.2949 14.0039 12.2949Z" fill="white" fill-opacity="0.85"/>
  <path d="M11.9336 5.45898L12.5293 5.45898L12.5293 4.98047C12.5293 4.19922 13.1641 3.59375 13.9844 3.59375C14.8047 3.59375 15.4395 4.19922 15.4395 4.98047L15.4395 5.45898L16.0352 5.45898L16.0352 4.98047C16.0352 3.85742 15.1367 2.99805 13.9844 2.99805C12.832 2.99805 11.9336 3.85742 11.9336 4.98047ZM13.9844 6.98242C15.0586 6.98242 16.0059 6.5625 16.582 5.45898C16.4355 5.36133 16.25 5.32227 16.0449 5.32227L11.9238 5.32227C11.709 5.32227 11.5332 5.36133 11.3867 5.45898C11.9629 6.5625 12.9102 6.98242 13.9844 6.98242ZM17.334 8.63281L17.0605 6.24023C17.041 6.11328 17.0117 5.99609 16.9629 5.88867C16.3867 6.875 15.5566 7.37305 14.6484 7.5293L14.6484 7.75391C14.6484 7.98828 14.5215 8.11523 14.2871 8.11523L13.6816 8.11523C13.4473 8.11523 13.3105 7.98828 13.3105 7.75391L13.3105 7.5293C12.4121 7.37305 11.582 6.875 11.0059 5.88867C10.957 5.99609 10.9277 6.11328 10.9082 6.24023L10.6348 8.63281C10.5273 9.49219 10.918 9.96094 11.7285 9.96094L16.2305 9.96094C17.041 9.96094 17.4316 9.49219 17.334 8.63281Z" fill="white" fill-opacity="0.85"/>
 </g>
</svg>
