<?xml version="1.0" encoding="UTF-8"?>
<!--Generator: Apple Native CoreSVG 341-->
<!DOCTYPE svg
PUBLIC "-//W3C//DTD SVG 1.1//EN"
       "http://www.w3.org/Graphics/SVG/1.1/DTD/svg11.dtd">
<svg version="1.1" xmlns="http://www.w3.org/2000/svg" xmlns:xlink="http://www.w3.org/1999/xlink" viewBox="0 0 16.1328 15.7715">
 <g>
  <rect height="15.7715" opacity="0" width="16.1328" x="0" y="0"/>
  <path d="M7.88086 15.7617C12.2363 15.7617 15.7715 12.2266 15.7715 7.88086C15.7715 3.53516 12.2363 0 7.88086 0C3.53516 0 0 3.53516 0 7.88086C0 12.2266 3.53516 15.7617 7.88086 15.7617Z" fill="white" fill-opacity="0.2125"/>
  <path d="M3.33984 9.16016C3.33984 7.86133 4.07227 6.83594 5.03906 6.83594L5.64453 6.83594C5.27344 7.30469 4.85352 8.06641 4.84375 9.12109C4.82422 10.0879 5.13672 10.9277 5.9082 11.5039L5.18555 11.5039C4.12109 11.5039 3.33984 10.4395 3.33984 9.16016ZM5.45898 9.13086C5.47852 8.125 5.75195 7.50977 6.28906 6.79688C6.93359 5.92773 7.77344 4.92188 8.41797 3.69141C8.57422 3.36914 8.7207 3.16406 9.0332 3.16406C9.35547 3.16406 9.61914 3.39844 9.61914 3.78906C9.61914 4.53125 8.91602 5.57617 8.91602 6.15234C8.91602 6.47461 9.15039 6.66992 9.55078 6.66992L11.0547 6.66992C11.4648 6.66992 11.7871 7.00195 11.7871 7.43164C11.7871 7.64648 11.6992 7.85156 11.582 7.97852C11.5039 8.03711 11.4844 8.06641 11.5625 8.125C11.6699 8.23242 11.7285 8.45703 11.7285 8.64258C11.7285 8.93555 11.6016 9.15039 11.3965 9.27734C11.3281 9.31641 11.3184 9.38477 11.3672 9.45312C11.4648 9.56055 11.5332 9.73633 11.5332 9.93164C11.5332 10.2637 11.2988 10.5273 11.0449 10.6152C10.9961 10.6348 10.9961 10.6836 11.0254 10.7422C11.0645 10.8203 11.1133 10.9668 11.1133 11.1133C11.1133 11.5234 10.7812 11.709 10.4395 11.8066C10.2051 11.8555 9.80469 11.8945 9.25781 11.8945L8.67188 11.8848C6.68945 11.875 5.42969 10.6934 5.45898 9.13086Z" fill="white" fill-opacity="0.85"/>
 </g>
</svg>
