<?xml version="1.0" encoding="UTF-8"?>
<!--Generator: Apple Native CoreSVG 341-->
<!DOCTYPE svg
PUBLIC "-//W3C//DTD SVG 1.1//EN"
       "http://www.w3.org/Graphics/SVG/1.1/DTD/svg11.dtd">
<svg version="1.1" xmlns="http://www.w3.org/2000/svg" xmlns:xlink="http://www.w3.org/1999/xlink" viewBox="0 0 16.1328 15.7715">
 <g>
  <rect height="15.7715" opacity="0" width="16.1328" x="0" y="0"/>
  <path d="M15.7715 7.88086C15.7715 12.2266 12.2363 15.7617 7.88086 15.7617C3.53516 15.7617 0 12.2266 0 7.88086C0 3.53516 3.53516 0 7.88086 0C12.2363 0 15.7715 3.53516 15.7715 7.88086ZM7.51953 3.23242L7.51953 7.13867C7.40234 7.1582 7.29492 7.16797 7.16797 7.19727L7.16797 3.58398C7.16797 3.30078 6.92383 3.06641 6.64062 3.06641C6.35742 3.06641 6.11328 3.30078 6.11328 3.58398L6.11328 7.5293C5.98633 7.57812 5.87891 7.65625 5.77148 7.71484L5.77148 5.01953C5.77148 4.72656 5.53711 4.48242 5.25391 4.48242C4.95117 4.48242 4.7168 4.72656 4.7168 5.01953L4.7168 9.28711C4.7168 11.2305 5.98633 12.5 7.87109 12.5C9.23828 12.5 10.1465 11.9922 10.791 10.8398C11.1816 10.1758 11.4551 9.35547 11.7578 8.37891C11.9043 7.92969 12.1094 7.37305 12.1094 7.12891C12.1094 6.86523 11.9141 6.67969 11.6309 6.67969C11.2988 6.67969 11.123 6.89453 10.8887 7.36328L10.2344 8.67188C10.1855 8.78906 10.1367 8.83789 10.0781 8.83789C10 8.83789 9.96094 8.78906 9.96094 8.67188L9.96094 3.83789C9.96094 3.55469 9.72656 3.32031 9.44336 3.32031C9.15039 3.32031 8.91602 3.55469 8.91602 3.83789L8.91602 7.28516C8.80859 7.26562 8.69141 7.22656 8.56445 7.1875L8.56445 3.23242C8.56445 2.94922 8.33984 2.71484 8.04688 2.71484C7.75391 2.71484 7.51953 2.94922 7.51953 3.23242Z" fill="white" fill-opacity="0.85"/>
 </g>
</svg>
