<?xml version="1.0" encoding="UTF-8"?>
<!--Generator: Apple Native CoreSVG 341-->
<!DOCTYPE svg
PUBLIC "-//W3C//DTD SVG 1.1//EN"
       "http://www.w3.org/Graphics/SVG/1.1/DTD/svg11.dtd">
<svg version="1.1" xmlns="http://www.w3.org/2000/svg" xmlns:xlink="http://www.w3.org/1999/xlink" viewBox="0 0 21.627 12.1973">
 <g>
  <rect height="12.1973" opacity="0" width="21.627" x="0" y="0"/>
  <path d="M0.935588 10.9082C5.38871 10.6641 13.4942 8.90625 15.7598 6.70898C13.6895 1.9043 11.209 0.361328 6.24809 1.2207C1.53129 2.03125-0.773396 5.84961 0.232463 10.3809C0.320354 10.7715 0.564494 10.9277 0.935588 10.9082ZM5.01762 1.66016L7.31254 1.25L7.21488 0.722656C7.13676 0.3125 6.67778 0.0878906 6.19926 0.195312L5.62309 0.322266C5.12504 0.419922 4.86137 0.830078 4.93949 1.25ZM17.4981 12.1973C19.295 12.1973 20.6524 10.7617 21.1211 9.60938C21.4239 8.86719 21.2286 8.53516 20.7793 8.4082L16.8926 7.26562C15.6719 8.54492 13.4258 9.54102 10.877 10.1367C12.4493 10.9082 15.1739 12.1973 17.4981 12.1973Z" fill="white" fill-opacity="0.85"/>
 </g>
</svg>
