<?xml version="1.0" encoding="UTF-8"?>
<!--Generator: Apple Native CoreSVG 341-->
<!DOCTYPE svg
PUBLIC "-//W3C//DTD SVG 1.1//EN"
       "http://www.w3.org/Graphics/SVG/1.1/DTD/svg11.dtd">
<svg version="1.1" xmlns="http://www.w3.org/2000/svg" xmlns:xlink="http://www.w3.org/1999/xlink" viewBox="0 0 23.1543 15.9668">
 <g>
  <rect height="15.9668" opacity="0" width="23.1543" x="0" y="0"/>
  <path d="M7.94922 12.7148C8.03371 13.0038 8.13049 13.2713 8.24022 13.5181L1.93359 15.2148C1.43555 15.3418 1.05469 15.0586 1.05469 14.5801C1.05469 14.2188 1.2793 13.9453 1.64062 13.8574L7.81544 12.204ZM7.5637 10.9307L1.93359 12.4316C1.42578 12.5684 1.05469 12.2754 1.05469 11.7969C1.05469 11.4551 1.2793 11.1719 1.64062 11.0742L7.41396 9.52828C7.4432 9.98928 7.49151 10.4576 7.5637 10.9307ZM7.36328 7.97852L7.3656 8.19986L1.93359 9.66797C1.44531 9.79492 1.05469 9.50195 1.05469 9.0332C1.05469 8.67188 1.2793 8.39844 1.64062 8.30078L7.39385 6.75341C7.37164 7.16829 7.36328 7.57689 7.36328 7.97852ZM7.51497 5.39L1.93359 6.88477C1.42578 7.02148 1.05469 6.71875 1.05469 6.25C1.05469 5.89844 1.2793 5.625 1.64062 5.52734L7.78153 3.88298C7.6624 4.3908 7.57523 4.89393 7.51497 5.39Z" fill="white" fill-opacity="0.85"/>
  <path d="M8.80859 7.97852C8.80859 9.4043 8.90625 10.8496 9.32617 12.3242C9.81445 13.9648 10.6738 14.541 12.6172 14.541L13.0859 14.541C17.7344 14.541 21.7383 11.5234 21.7383 7.97852C21.7383 4.44336 17.7344 1.42578 13.0859 1.42578L12.6172 1.42578C10.6836 1.42578 9.82422 2.00195 9.32617 3.64258C8.90625 5.11719 8.80859 6.5625 8.80859 7.97852ZM10.2441 7.97852C10.2441 6.37695 10.3711 5.19531 10.7031 4.0332C10.9668 3.17383 11.4551 2.86133 12.6172 2.86133L13.0859 2.86133C16.8945 2.86133 20.3027 5.26367 20.3027 7.97852C20.3027 10.7031 16.8945 13.1055 13.0859 13.1055L12.6172 13.1055C11.4551 13.1055 10.9668 12.793 10.7031 11.9336C10.3711 10.7617 10.2441 9.58984 10.2441 7.97852Z" fill="white" fill-opacity="0.85"/>
 </g>
</svg>
