<svg version="1.1" xmlns="http://www.w3.org/2000/svg" xmlns:xlink="http://www.w3.org/1999/xlink" viewBox="0 0 16.1328 15.7715">
 <g>
  <rect height="15.7715" opacity="0" width="16.1328" x="0" y="0"/>
  <path d="M7.88086 15.7617C12.2363 15.7617 15.7715 12.2363 15.7715 7.88086C15.7715 3.52539 12.2363 0 7.88086 0C3.53516 0 0 3.52539 0 7.88086C0 12.2363 3.53516 15.7617 7.88086 15.7617ZM7.88086 14.2773C4.3457 14.2773 1.49414 11.416 1.49414 7.88086C1.49414 4.3457 4.3457 1.48438 7.88086 1.48438C11.416 1.48438 14.2773 4.3457 14.2773 7.88086C14.2773 11.416 11.416 14.2773 7.88086 14.2773Z" fill="var(--color-secondary)"/>
  <path d="M3.71094 7.87109C3.71094 9.35547 4.0625 10.4199 4.64844 11.4355C4.82422 11.7188 5.14648 11.8066 5.44922 11.6406C5.73242 11.5039 5.82031 11.1523 5.6543 10.8398C5.16602 9.93164 4.88281 9.14062 4.88281 7.87109C4.88281 5.87891 6.07422 4.57031 7.88086 4.57031C9.69727 4.57031 10.9082 5.88867 10.9082 7.87109C10.9082 9.14062 10.625 9.94141 10.1074 10.8398C9.95117 11.1426 10.0391 11.4941 10.3223 11.6406C10.6152 11.8066 10.957 11.7188 11.123 11.4355C11.7188 10.3809 12.0703 9.32617 12.0703 7.87109C12.0703 5.20508 10.3906 3.4082 7.88086 3.4082C5.39062 3.4082 3.71094 5.19531 3.71094 7.87109ZM5.17578 11.2598C5.32227 11.7871 5.80078 12.0605 6.31836 11.8945C6.85547 11.748 7.11914 11.2891 6.96289 10.7617L6.42578 8.87695C6.26953 8.33984 5.81055 8.08594 5.2832 8.23242C4.75586 8.37891 4.48242 8.84766 4.63867 9.375ZM10.5957 11.2598L11.123 9.375C11.2793 8.83789 11.0254 8.37891 10.4883 8.23242C9.96094 8.08594 9.50195 8.33984 9.3457 8.87695L8.80859 10.7715C8.65234 11.2988 8.90625 11.748 9.45312 11.8945C9.98047 12.0508 10.4492 11.7871 10.5957 11.2598Z" fill="var(--color-primary)"/>
 </g>
</svg>
