<?xml version="1.0" encoding="UTF-8"?>
<!--Generator: Apple Native CoreSVG 341-->
<!DOCTYPE svg
PUBLIC "-//W3C//DTD SVG 1.1//EN"
       "http://www.w3.org/Graphics/SVG/1.1/DTD/svg11.dtd">
<svg version="1.1" xmlns="http://www.w3.org/2000/svg" xmlns:xlink="http://www.w3.org/1999/xlink" viewBox="0 0 18.6475 18.5817">
 <g>
  <rect height="18.5817" opacity="0" width="18.6475" x="0" y="0"/>
  <path d="M3.35366 6.32175C2.95995 7.25389 2.75149 8.33897 2.75149 9.53986C2.75149 10.0764 2.79063 10.6244 2.86909 11.1745C3.06591 10.8445 3.39921 10.593 3.84524 10.4676C4.78274 10.2039 5.57376 10.6434 5.8472 11.5711L6.92141 15.3113C7.18509 16.2391 6.74563 17.0594 5.80813 17.3231C5.051 17.536 4.38941 17.2903 4.01921 16.6988C3.64732 16.8718 3.26779 16.7566 3.06399 16.3953C1.93118 14.4129 1.25735 11.8543 1.25735 9.53986C1.25735 7.88273 1.58965 6.40723 2.20584 5.17469ZM14.0254 16.9864C13.6421 17.3648 13.0871 17.4971 12.4683 17.3231C11.521 17.0594 11.0816 16.2488 11.355 15.3113L11.5767 14.5393ZM17.0288 9.53986C17.0288 11.1533 16.6966 12.8855 16.1056 14.4547L12.6826 11.0272C13.0569 10.4823 13.7028 10.2627 14.4312 10.4676C14.8822 10.5945 15.218 10.8479 15.4142 11.182C15.4945 10.6294 15.5347 10.0788 15.5347 9.53986C15.5347 5.34064 12.9761 2.55743 9.13821 2.55743C7.66961 2.55743 6.38976 2.96497 5.37151 3.70627L4.28427 2.61758C5.56953 1.6153 7.22384 1.06329 9.13821 1.06329C13.8745 1.06329 17.0288 4.4422 17.0288 9.53986Z" fill="white" fill-opacity="0.85"/>
  <path d="M15.8179 17.4207C16.0816 17.6844 16.5113 17.6844 16.7652 17.4207C17.0191 17.157 17.0288 16.7371 16.7652 16.4735L2.11673 1.81525C1.85306 1.54181 1.42337 1.55158 1.1597 1.81525C0.90579 2.06915 0.896024 2.49884 1.1597 2.76251Z" fill="white" fill-opacity="0.85"/>
 </g>
</svg>
