<?xml version="1.0" encoding="UTF-8"?>
<!--Generator: Apple Native CoreSVG 341-->
<!DOCTYPE svg
PUBLIC "-//W3C//DTD SVG 1.1//EN"
       "http://www.w3.org/Graphics/SVG/1.1/DTD/svg11.dtd">
<svg version="1.1" xmlns="http://www.w3.org/2000/svg" xmlns:xlink="http://www.w3.org/1999/xlink" viewBox="0 0 17.4316 16.7871">
 <g>
  <rect height="16.7871" opacity="0" width="17.4316" x="0" y="0"/>
  <path d="M5.51758 12.9297C5.51758 15.1074 6.85547 16.4746 8.96484 16.4746C10.5176 16.4746 11.6699 15.8301 12.4023 14.541L13.1641 13.2129C14.7656 10.3906 17.4316 9.88281 17.4316 6.05469C17.4316 2.43164 15.0781 0 11.5625 0C7.94922 0 5.51758 2.42188 5.51758 6.06445ZM6.83594 12.8418L6.83594 6.06445C6.83594 3.20312 8.7207 1.31836 11.5625 1.31836C14.2969 1.31836 16.1133 3.21289 16.1133 6.05469C16.1133 9.17969 13.6523 9.86328 11.9922 12.627L11.2695 13.8281C10.7324 14.7168 10.0293 15.127 9.0332 15.127C7.65625 15.127 6.83594 14.2773 6.83594 12.8418ZM7.92969 10.6543C7.92969 11.4941 8.56445 12.0508 9.51172 12.0508C10.6934 12.041 11.4844 11.0254 11.4844 9.75586C11.4844 7.55859 9.24805 7.1582 9.24805 5.66406C9.24805 4.55078 10.1758 3.74023 11.5625 3.74023C12.959 3.74023 13.877 4.64844 13.877 6.05469C13.877 6.40625 14.1797 6.70898 14.5312 6.70898C14.8926 6.70898 15.1855 6.40625 15.1855 6.05469C15.1855 3.87695 13.7305 2.42188 11.5625 2.42188C9.38477 2.42188 7.92969 3.75977 7.92969 5.66406C7.92969 7.30469 9.52148 7.83203 9.52148 8.55469C9.52148 9.28711 7.92969 9.16992 7.92969 10.6543Z" fill="white" fill-opacity="0.425"/>
  <path d="M1.57227 3.73047C2.31445 3.73047 2.91992 3.125 2.91992 2.38281C2.91992 1.64062 2.31445 1.03516 1.57227 1.03516C0.830078 1.03516 0.224609 1.64062 0.224609 2.38281C0.224609 3.125 0.830078 3.73047 1.57227 3.73047Z" fill="white" fill-opacity="0.85"/>
  <path d="M1.57227 7.72461C2.31445 7.72461 2.91992 7.11914 2.91992 6.37695C2.91992 5.63477 2.31445 5.0293 1.57227 5.0293C0.830078 5.0293 0.224609 5.63477 0.224609 6.37695C0.224609 7.11914 0.830078 7.72461 1.57227 7.72461Z" fill="white" fill-opacity="0.85"/>
  <path d="M1.57227 11.748C2.31445 11.748 2.91992 11.1426 2.91992 10.4004C2.91992 9.6582 2.31445 9.05273 1.57227 9.05273C0.830078 9.05273 0.224609 9.6582 0.224609 10.4004C0.224609 11.1426 0.830078 11.748 1.57227 11.748Z" fill="white" fill-opacity="0.85"/>
  <path d="M1.57227 15.7422C2.31445 15.7422 2.91992 15.1367 2.91992 14.3945C2.91992 13.6523 2.31445 13.0469 1.57227 13.0469C0.830078 13.0469 0.224609 13.6523 0.224609 14.3945C0.224609 15.1367 0.830078 15.7422 1.57227 15.7422Z" fill="white" fill-opacity="0.85"/>
 </g>
</svg>
