<?xml version="1.0" encoding="UTF-8"?>
<!--Generator: Apple Native CoreSVG 341-->
<!DOCTYPE svg
PUBLIC "-//W3C//DTD SVG 1.1//EN"
       "http://www.w3.org/Graphics/SVG/1.1/DTD/svg11.dtd">
<svg version="1.1" xmlns="http://www.w3.org/2000/svg" xmlns:xlink="http://www.w3.org/1999/xlink" viewBox="0 0 17.5586 14.9121">
 <g>
  <rect height="14.9121" opacity="0" width="17.5586" x="0" y="0"/>
  <path d="M8.59375 0C3.84766 0 0 3.83789 0 8.59375C0 10.9277 0.927734 13.0664 2.48047 14.6289C2.77344 14.9219 3.23242 14.9414 3.56445 14.6289C3.83789 14.3555 3.7793 13.8867 3.4375 13.5059C2.23633 12.2559 1.52344 10.4883 1.52344 8.59375C1.52344 4.61914 4.63867 1.48438 8.59375 1.48438C12.5586 1.48438 15.6738 4.61914 15.6738 8.59375C15.6738 10.4883 14.9512 12.2559 13.7598 13.5059C13.418 13.8867 13.3594 14.3555 13.6328 14.6289C13.9648 14.9414 14.4238 14.9219 14.7168 14.6289C16.2695 13.0664 17.1973 10.9277 17.1973 8.59375C17.1973 3.83789 13.3496 0 8.59375 0Z" fill="white" fill-opacity="0.425"/>
  <path d="M6.76758 5.24414C5.46875 5.24414 4.53125 6.2207 4.53125 7.59766C4.53125 9.55078 6.5625 11.3965 8.19336 12.4316C8.33984 12.5098 8.52539 12.627 8.62305 12.627C8.73047 12.627 8.89648 12.5098 9.01367 12.4316C10.6445 11.3867 12.6855 9.55078 12.6855 7.59766C12.6855 6.2207 11.748 5.24414 10.4395 5.24414C9.62891 5.24414 8.99414 5.69336 8.60352 6.40625C8.22266 5.69336 7.58789 5.24414 6.76758 5.24414Z" fill="white" fill-opacity="0.85"/>
 </g>
</svg>
