<?xml version="1.0" encoding="UTF-8"?>
<!--Generator: Apple Native CoreSVG 341-->
<!DOCTYPE svg
PUBLIC "-//W3C//DTD SVG 1.1//EN"
       "http://www.w3.org/Graphics/SVG/1.1/DTD/svg11.dtd">
<svg version="1.1" xmlns="http://www.w3.org/2000/svg" xmlns:xlink="http://www.w3.org/1999/xlink" viewBox="0 0 16.1328 15.7715">
 <g>
  <rect height="15.7715" opacity="0" width="16.1328" x="0" y="0"/>
  <path d="M15.7715 7.88086C15.7715 12.2363 12.2363 15.7617 7.88086 15.7617C3.53516 15.7617 0 12.2363 0 7.88086C0 3.52539 3.53516 0 7.88086 0C12.2363 0 15.7715 3.52539 15.7715 7.88086ZM1.49414 7.88086C1.49414 11.416 4.3457 14.2773 7.88086 14.2773C11.416 14.2773 14.2773 11.416 14.2773 7.88086C14.2773 4.3457 11.416 1.48438 7.88086 1.48438C4.3457 1.48438 1.49414 4.3457 1.49414 7.88086Z" fill="white" fill-opacity="0.425"/>
  <path d="M9.50548 10.8352C9.09982 11.1699 8.68354 11.4673 8.29102 11.7188C8.17383 11.7969 8.00781 11.9141 7.90039 11.9141C7.80273 11.9141 7.61719 11.7969 7.4707 11.7188C5.83984 10.6836 3.80859 8.83789 3.80859 6.88477C3.80859 6.36253 3.94345 5.89649 4.18225 5.5196ZM11.9629 6.88477C11.9629 7.80798 11.5069 8.70502 10.8511 9.50345L5.87715 4.52949C5.93172 4.52338 5.98797 4.52148 6.04492 4.52148C6.86523 4.52148 7.5 4.98047 7.88086 5.69336C8.27148 4.98047 8.90625 4.52148 9.7168 4.52148C11.0254 4.52148 11.9629 5.50781 11.9629 6.88477Z" fill="white" fill-opacity="0.85"/>
  <path d="M11.0645 11.5723C11.2012 11.7188 11.4551 11.7188 11.5918 11.5723C11.748 11.416 11.748 11.1914 11.5918 11.0352L4.74609 4.18945C4.58984 4.0332 4.35547 4.0332 4.19922 4.18945C4.0625 4.33594 4.0625 4.58008 4.19922 4.72656Z" fill="white" fill-opacity="0.85"/>
 </g>
</svg>
