<?xml version="1.0" encoding="UTF-8"?>
<!--Generator: Apple Native CoreSVG 341-->
<!DOCTYPE svg
PUBLIC "-//W3C//DTD SVG 1.1//EN"
       "http://www.w3.org/Graphics/SVG/1.1/DTD/svg11.dtd">
<svg version="1.1" xmlns="http://www.w3.org/2000/svg" xmlns:xlink="http://www.w3.org/1999/xlink" viewBox="0 0 19.1797 18.8379">
 <g>
  <rect height="18.8379" opacity="0" width="19.1797" x="0" y="0"/>
  <path d="M16.0645 15.1953C16.3184 15.4492 16.3086 15.8301 16.0645 16.084C15.8203 16.3281 15.4297 16.3281 15.1758 16.0742L14.0979 14.9964C14.4191 14.7296 14.7146 14.4334 14.9809 14.1118ZM10.918 10.0488L13.9602 13.091C13.7003 13.4184 13.404 13.7153 13.0774 13.9759L10.0293 10.9277L10.0293 10.0488ZM8.78906 7.91992L8.78906 8.79883L7.90039 8.79883L4.85863 5.75706C5.11859 5.42983 5.41496 5.13312 5.74171 4.87257ZM3.64258 2.77344L4.72122 3.85208C4.39991 4.1188 4.10426 4.4148 3.83789 4.73633L2.75391 3.65234C2.5 3.39844 2.50977 3.01758 2.75391 2.77344C2.99805 2.51953 3.38867 2.51953 3.64258 2.77344Z" fill="white" fill-opacity="0.85"/>
  <path d="M2.12891 9.42383L2.16038 10.0488L0.625 10.0488C0.273438 10.0488 0 9.77539 0 9.42383C0 9.07227 0.273438 8.79883 0.625 8.79883L2.16038 8.79883ZM15.2539 9.42383C15.2539 9.63511 15.2427 9.84376 15.2197 10.0488L10.0293 10.0488L10.0293 9.6875L10.918 8.79883L15.2197 8.79883C15.2427 9.00389 15.2539 9.21255 15.2539 9.42383ZM18.8184 9.42383C18.8184 9.77539 18.5449 10.0488 18.1934 10.0488L16.658 10.0488C16.6805 9.84373 16.6895 9.63483 16.6895 9.42383C16.6895 9.21283 16.6805 9.00392 16.658 8.79883L18.1934 8.79883C18.5449 8.79883 18.8184 9.07227 18.8184 9.42383ZM8.78906 9.16016L7.90039 10.0488L3.59869 10.0488C3.57563 9.84376 3.56445 9.63511 3.56445 9.42383C3.56445 9.21255 3.57563 9.00389 3.59869 8.79883L8.78906 8.79883Z" fill="white" fill-opacity="0.85"/>
  <path d="M4.72122 14.9956L3.64258 16.0742C3.38867 16.3281 2.99805 16.3281 2.75391 16.084C2.50977 15.8301 2.5 15.4492 2.75391 15.1953L3.83789 14.1113C4.10426 14.4329 4.39991 14.7289 4.72122 14.9956ZM8.78906 10.9277L5.74171 13.9751C5.41496 13.7145 5.11859 13.4178 4.85863 13.0906L8.78906 9.16016ZM13.9602 5.75662L10.0293 9.6875L10.0293 7.91992L13.0774 4.8718C13.404 5.13239 13.7003 5.42923 13.9602 5.75662ZM16.0645 2.77344C16.3086 3.01758 16.3184 3.39844 16.0645 3.65234L14.9809 4.73588C14.7146 4.41421 14.4191 4.1181 14.0979 3.85128L15.1758 2.77344C15.4297 2.51953 15.8203 2.51953 16.0645 2.77344Z" fill="white" fill-opacity="0.85"/>
  <path d="M9.41406 16.709L10.0293 16.6779L10.0293 18.2129C10.0293 18.5645 9.75586 18.8379 9.4043 18.8379C9.0625 18.8379 8.78906 18.5645 8.78906 18.2129L8.78906 16.6775ZM10.0293 3.60724L10.0293 15.2404C9.82729 15.2625 9.62193 15.2734 9.41406 15.2734C9.20278 15.2734 8.99413 15.2623 8.78906 15.2392L8.78906 3.60846C8.99413 3.5854 9.20278 3.57422 9.41406 3.57422C9.62193 3.57422 9.82729 3.58511 10.0293 3.60724ZM10.0293 0.634766L10.0293 2.16974C9.82747 2.14737 9.6218 2.13867 9.41406 2.13867C9.20301 2.13867 8.99409 2.1476 8.78906 2.17016L8.78906 0.634766C8.78906 0.283203 9.0625 0.00976562 9.4043 0.00976562C9.75586 0.00976562 10.0293 0.283203 10.0293 0.634766Z" fill="white" fill-opacity="0.85"/>
  <path d="M9.41406 16.709C13.4375 16.709 16.6895 13.4473 16.6895 9.42383C16.6895 5.40039 13.4375 2.13867 9.41406 2.13867C5.38086 2.13867 2.12891 5.40039 2.12891 9.42383C2.12891 13.4473 5.38086 16.709 9.41406 16.709ZM9.41406 15.2734C6.18164 15.2734 3.56445 12.6562 3.56445 9.42383C3.56445 6.19141 6.18164 3.57422 9.41406 3.57422C12.6367 3.57422 15.2539 6.19141 15.2539 9.42383C15.2539 12.6562 12.6367 15.2734 9.41406 15.2734Z" fill="white" fill-opacity="0.85"/>
 </g>
</svg>
