<svg version="1.1" xmlns="http://www.w3.org/2000/svg" xmlns:xlink="http://www.w3.org/1999/xlink" viewBox="0 0 18.3789 15.9082">
 <g>
  <rect height="15.9082" opacity="0" width="18.3789" x="0" y="0"/>
  <path d="M14.3945 1.94336C14.9609 2.69531 15.2441 3.69141 15.2441 5.09766L15.2441 10.918C15.2441 14.3848 13.2617 15.9082 9.00391 15.9082C4.75586 15.9082 2.77344 14.3848 2.77344 10.918L2.77344 9.60937L6.89453 9.60938L8.02734 9.55078L7.61719 9.94141L6.71875 10.7324C6.57227 10.8594 6.51367 11.0352 6.51367 11.2012C6.51367 11.5723 6.76758 11.8457 7.11914 11.8457C7.30469 11.8457 7.45117 11.7676 7.57812 11.6406L9.69727 9.41406C9.86328 9.23828 9.93164 9.0918 9.93164 8.91602C9.93164 8.73047 9.86328 8.58398 9.69727 8.4082L7.57812 6.18164C7.45117 6.05469 7.30469 5.97656 7.11914 5.97656C6.76758 5.97656 6.51367 6.25 6.51367 6.62109C6.51367 6.78711 6.57227 6.96289 6.71875 7.08984L7.61719 7.88086L8.03711 8.27148L6.89453 8.21289L2.77344 8.21289L2.77344 5.09766C2.77344 3.69141 3.04688 2.69531 3.61328 1.94336C3.79883 1.69922 4.12109 1.66992 4.36523 1.85547C5.12695 2.46094 7.12891 3.06641 9.00391 3.06641C10.8887 3.06641 12.8906 2.46094 13.6523 1.85547C13.8965 1.66992 14.209 1.69922 14.3945 1.94336ZM12.5 0.976562C12.5 1.49414 10.9863 1.92383 9.00391 1.92383C7.03125 1.92383 5.51758 1.49414 5.51758 0.976562C5.51758 0.449219 7.03125 0.0292969 9.00391 0.0292969C10.9863 0.0292969 12.5 0.449219 12.5 0.976562Z" fill="var(--color-tertiary)"/>
  <path d="M0.683594 9.60938C0.3125 9.60938 0 9.28711 0 8.91602C0 8.53516 0.3125 8.21289 0.683594 8.21289L6.89453 8.21289L8.03711 8.27148L7.61719 7.88086L6.71875 7.08984C6.57227 6.96289 6.51367 6.78711 6.51367 6.62109C6.51367 6.25 6.76758 5.97656 7.11914 5.97656C7.30469 5.97656 7.45117 6.05469 7.57812 6.18164L9.69727 8.4082C9.86328 8.58398 9.93164 8.73047 9.93164 8.91602C9.93164 9.0918 9.86328 9.23828 9.69727 9.41406L7.57812 11.6406C7.45117 11.7676 7.30469 11.8457 7.11914 11.8457C6.76758 11.8457 6.51367 11.5723 6.51367 11.2012C6.51367 11.0352 6.57227 10.8594 6.71875 10.7324L7.61719 9.94141L8.02734 9.55078L6.89453 9.60938Z" fill="var(--color-primary)"/>
 </g>
</svg>
