<?xml version="1.0" encoding="UTF-8"?>
<!--Generator: Apple Native CoreSVG 341-->
<!DOCTYPE svg
PUBLIC "-//W3C//DTD SVG 1.1//EN"
       "http://www.w3.org/Graphics/SVG/1.1/DTD/svg11.dtd">
<svg version="1.1" xmlns="http://www.w3.org/2000/svg" xmlns:xlink="http://www.w3.org/1999/xlink" viewBox="0 0 16.1328 15.7715">
 <g>
  <rect height="15.7715" opacity="0" width="16.1328" x="0" y="0"/>
  <path d="M7.88086 15.7617C12.2363 15.7617 15.7715 12.2363 15.7715 7.88086C15.7715 3.52539 12.2363 0 7.88086 0C3.53516 0 0 3.52539 0 7.88086C0 12.2363 3.53516 15.7617 7.88086 15.7617ZM7.88086 14.2773C4.3457 14.2773 1.49414 11.416 1.49414 7.88086C1.49414 4.3457 4.3457 1.48438 7.88086 1.48438C11.416 1.48438 14.2773 4.3457 14.2773 7.88086C14.2773 11.416 11.416 14.2773 7.88086 14.2773Z" fill="white" fill-opacity="0.425"/>
  <path d="M4.26758 10.8789C4.26758 11.4648 4.62891 11.8164 5.23438 11.8164L10.5273 11.8164C11.1328 11.8164 11.4941 11.4648 11.4941 10.8789L11.4941 7.83203L8.11523 5C7.96875 4.87305 7.7832 4.88281 7.63672 5L4.26758 7.83203ZM8.93555 10.957L6.83594 10.957L6.83594 8.50586C6.83594 8.31055 6.96289 8.18359 7.1582 8.18359L8.61328 8.18359C8.81836 8.18359 8.93555 8.31055 8.93555 8.50586ZM2.93945 7.30469C2.93945 7.49023 3.0957 7.67578 3.34961 7.67578C3.47656 7.67578 3.58398 7.60742 3.68164 7.51953L7.73438 4.12109C7.83203 4.0332 7.93945 4.05273 8.02734 4.12109L12.0801 7.51953C12.1875 7.60742 12.2852 7.67578 12.4219 7.67578C12.6367 7.67578 12.8223 7.53906 12.8223 7.31445C12.8223 7.17773 12.7832 7.08008 12.6855 6.99219L8.41797 3.4082C8.0957 3.13477 7.67578 3.13477 7.35352 3.4082L3.08594 6.99219C2.98828 7.08008 2.93945 7.19727 2.93945 7.30469ZM10.3809 5.33203L11.4941 6.26953L11.4941 4.39453C11.4941 4.20898 11.3672 4.07227 11.1719 4.07227L10.7031 4.07227C10.5078 4.07227 10.3809 4.20898 10.3809 4.39453Z" fill="white" fill-opacity="0.85"/>
 </g>
</svg>
