<?xml version="1.0" encoding="UTF-8"?>
<!--Generator: Apple Native CoreSVG 341-->
<!DOCTYPE svg
PUBLIC "-//W3C//DTD SVG 1.1//EN"
       "http://www.w3.org/Graphics/SVG/1.1/DTD/svg11.dtd">
<svg version="1.1" xmlns="http://www.w3.org/2000/svg" xmlns:xlink="http://www.w3.org/1999/xlink" viewBox="0 0 16.1328 15.7715">
 <g>
  <rect height="15.7715" opacity="0" width="16.1328" x="0" y="0"/>
  <path d="M7.88086 15.7617C12.2363 15.7617 15.7715 12.2363 15.7715 7.88086C15.7715 3.52539 12.2363 0 7.88086 0C3.53516 0 0 3.52539 0 7.88086C0 12.2363 3.53516 15.7617 7.88086 15.7617ZM7.88086 14.2773C4.3457 14.2773 1.49414 11.416 1.49414 7.88086C1.49414 4.3457 4.3457 1.48438 7.88086 1.48438C11.416 1.48438 14.2773 4.3457 14.2773 7.88086C14.2773 11.416 11.416 14.2773 7.88086 14.2773Z" fill="white" fill-opacity="0.85"/>
  <path d="M3.56445 7.83203L6.5625 6.29883C6.62109 6.26953 6.69922 6.26953 6.76758 6.29883L9.76562 7.83203C10.166 8.03711 10.3906 7.54883 10.0586 7.37305L7.05078 5.79102C6.76758 5.64453 6.55273 5.64453 6.2793 5.79102L3.27148 7.37305C2.93945 7.54883 3.14453 8.03711 3.56445 7.83203ZM3.39844 11.2305L11.5039 11.2305C11.6504 11.2305 11.7773 11.1035 11.7773 10.957C11.7773 10.8008 11.6504 10.6738 11.5039 10.6738L9.375 10.6738C9.39453 10.6348 9.39453 10.5957 9.39453 10.5371L9.39453 8.14453C9.3457 8.125 9.29688 8.0957 9.24805 8.07617L6.66016 6.74805L4.07227 8.07617C4.02344 8.0957 3.98438 8.125 3.93555 8.14453L3.93555 10.5371C3.93555 10.5957 3.93555 10.6348 3.94531 10.6738L3.39844 10.6738C3.26172 10.6738 3.125 10.8008 3.125 10.957C3.125 11.1035 3.26172 11.2305 3.39844 11.2305ZM5.73242 10.6738L5.73242 8.70117C5.73242 8.54492 5.83008 8.45703 5.97656 8.45703L7.35352 8.45703C7.5 8.45703 7.59766 8.54492 7.59766 8.70117L7.59766 10.6738ZM9.93164 10.9473L10.4785 10.9473L10.4785 6.12305C10.498 6.12305 10.5371 6.12305 10.5566 6.12305C11.084 6.12305 11.416 6.37695 11.9238 6.37695C12.1484 6.37695 12.2363 6.34766 12.3535 6.29883C12.4805 6.24023 12.5391 6.15234 12.5391 6.00586L12.5391 4.56055C12.5391 4.46289 12.4902 4.39453 12.3633 4.39453C12.2656 4.39453 12.1484 4.46289 11.9043 4.46289C11.416 4.46289 11.0742 4.19922 10.5469 4.19922C10.3125 4.19922 10.2246 4.22852 10.1172 4.27734C9.99023 4.32617 9.93164 4.42383 9.93164 4.57031Z" fill="white" fill-opacity="0.85"/>
 </g>
</svg>
