<svg version="1.1" xmlns="http://www.w3.org/2000/svg" xmlns:xlink="http://www.w3.org/1999/xlink" viewBox="0 0 14.5898 14.248">
 <g>
  <rect height="14.248" opacity="0" width="14.5898" x="0" y="0"/>
  <path d="M2.49023 14.248L11.7383 14.248C13.4082 14.248 14.2285 13.4277 14.2285 11.7871L14.2285 2.4707C14.2285 0.830078 13.4082 0.00976562 11.7383 0.00976562L2.49023 0.00976562C0.830078 0.00976562 0 0.830078 0 2.4707L0 11.7871C0 13.4277 0.830078 14.248 2.49023 14.248Z" fill="var(--color-tertiary)"/>
  <path d="M7.08008 3.42773C8.23242 3.42773 9.42383 3.97461 9.42383 5.19531C9.42383 5.52734 9.28711 5.80078 9.08203 6.01562L9.74609 6.01562C9.91211 6.01562 10.0391 6.13281 10.0391 6.31836C10.0391 6.48438 9.91211 6.60156 9.74609 6.60156L4.47266 6.60156C4.31641 6.60156 4.18945 6.48438 4.18945 6.31836C4.18945 6.13281 4.31641 6.01562 4.47266 6.01562L8.01758 6.01562C8.31055 5.83984 8.41797 5.51758 8.41797 5.26367C8.41797 4.58984 7.74414 4.29688 7.09961 4.29688C6.5625 4.29688 6.08398 4.49219 5.80078 5C5.68359 5.20508 5.57617 5.30273 5.3418 5.30273C5.06836 5.30273 4.90234 5.12695 4.90234 4.87305C4.90234 4.6582 4.95117 4.51172 5.07812 4.33594C5.61523 3.56445 6.43555 3.42773 7.08008 3.42773ZM7.11914 10.6934C5.95703 10.6934 4.66797 10.1172 4.66797 8.88672C4.66797 8.51562 4.84375 8.16406 5.11719 7.90039L4.47266 7.90039C4.31641 7.90039 4.18945 7.7832 4.18945 7.61719C4.18945 7.43164 4.31641 7.32422 4.47266 7.32422L9.74609 7.32422C9.91211 7.32422 10.0391 7.43164 10.0391 7.61719C10.0391 7.7832 9.91211 7.90039 9.74609 7.90039L6.24023 7.90039C5.88867 8.0957 5.68359 8.4082 5.68359 8.83789C5.68359 9.46289 6.39648 9.82422 7.11914 9.82422C7.77344 9.82422 8.29102 9.58984 8.57422 9.01367C8.68164 8.80859 8.80859 8.70117 9.04297 8.70117C9.31641 8.70117 9.49219 8.86719 9.49219 9.12109C9.49219 9.30664 9.41406 9.51172 9.32617 9.6582C8.88672 10.3711 8.03711 10.6934 7.11914 10.6934Z" fill="var(--color-primary)"/>
 </g>
</svg>
