<?xml version="1.0" encoding="UTF-8"?>
<!--Generator: Apple Native CoreSVG 341-->
<!DOCTYPE svg
PUBLIC "-//W3C//DTD SVG 1.1//EN"
       "http://www.w3.org/Graphics/SVG/1.1/DTD/svg11.dtd">
<svg version="1.1" xmlns="http://www.w3.org/2000/svg" xmlns:xlink="http://www.w3.org/1999/xlink" viewBox="0 0 17.7734 16.5527">
 <g>
  <rect height="16.5527" opacity="0" width="17.7734" x="0" y="0"/>
  <path d="M9.6875 0.283203L16.2109 4.04297C16.5234 4.23828 16.6797 4.46289 16.6797 4.72656C16.6797 5.07812 16.3965 5.42969 15.918 5.42969L15.2637 5.42969L15.2637 13.9941L15.752 13.9941C16.1133 13.9941 16.3184 14.1992 16.3184 14.5508L16.3184 15.127L16.709 15.127C17.0898 15.127 17.4121 15.4492 17.4121 15.8301C17.4121 16.2207 17.0898 16.543 16.709 16.543L0.703125 16.543C0.322266 16.543 0 16.2207 0 15.8301C0 15.4492 0.322266 15.127 0.703125 15.127L1.10352 15.127L1.10352 14.5508C1.10352 14.1992 1.30859 13.9941 1.66992 13.9941L2.1582 13.9941L2.1582 5.42969L1.49414 5.42969C1.01562 5.42969 0.732422 5.07812 0.732422 4.72656C0.732422 4.46289 0.878906 4.23828 1.20117 4.04297L7.72461 0.283203C8.03711 0.0976562 8.37891 0 8.71094 0C9.0332 0 9.375 0.0976562 9.6875 0.283203ZM6.06445 8.97461C5.9082 8.97461 5.78125 9.0918 5.78125 9.26758C5.78125 9.44336 5.9082 9.55078 6.06445 9.55078L6.70898 9.55078C6.43555 9.81445 6.25977 10.166 6.25977 10.5469C6.25977 11.7676 7.54883 12.3438 8.71094 12.3438C9.62891 12.3438 10.4785 12.0215 10.918 11.3184C11.0059 11.1621 11.084 10.957 11.084 10.7812C11.084 10.5273 10.9082 10.3516 10.6348 10.3516C10.4004 10.3516 10.2734 10.459 10.166 10.6641C9.88281 11.2402 9.35547 11.4746 8.70117 11.4746C7.97852 11.4746 7.27539 11.1133 7.27539 10.498C7.27539 10.0684 7.48047 9.74609 7.83203 9.55078L11.3379 9.55078C11.5039 9.55078 11.6309 9.44336 11.6309 9.26758C11.6309 9.0918 11.5039 8.97461 11.3379 8.97461ZM6.66992 5.98633C6.54297 6.16211 6.49414 6.30859 6.49414 6.52344C6.49414 6.77734 6.66016 6.95312 6.93359 6.95312C7.16797 6.95312 7.27539 6.85547 7.39258 6.66016C7.67578 6.15234 8.1543 5.94727 8.69141 5.94727C9.33594 5.94727 10.0098 6.25 10.0098 6.91406C10.0098 7.16797 9.90234 7.5 9.60938 7.67578L6.06445 7.67578C5.9082 7.67578 5.78125 7.7832 5.78125 7.96875C5.78125 8.13477 5.9082 8.25195 6.06445 8.25195L11.3379 8.25195C11.5039 8.25195 11.6309 8.13477 11.6309 7.96875C11.6309 7.7832 11.5039 7.67578 11.3379 7.67578L10.6738 7.67578C10.8789 7.46094 11.0156 7.17773 11.0156 6.8457C11.0156 5.625 9.82422 5.07812 8.67188 5.07812C8.02734 5.07812 7.19727 5.22461 6.66992 5.98633Z" fill="white" fill-opacity="0.85"/>
 </g>
</svg>
