<?xml version="1.0" encoding="UTF-8"?>
<!--Generator: Apple Native CoreSVG 341-->
<!DOCTYPE svg
PUBLIC "-//W3C//DTD SVG 1.1//EN"
       "http://www.w3.org/Graphics/SVG/1.1/DTD/svg11.dtd">
<svg version="1.1" xmlns="http://www.w3.org/2000/svg" xmlns:xlink="http://www.w3.org/1999/xlink" viewBox="0 0 19.1159 15.7715">
 <g>
  <rect height="15.7715" opacity="0" width="19.1159" x="0" y="0"/>
  <path d="M0.602889 6.35742C-0.0123451 6.35742-0.158829 6.77734 0.173202 7.24609L1.91148 9.7168C2.18492 10.0977 2.59508 10.0977 2.85875 9.7168L4.59703 7.23633C4.9193 6.77734 4.77281 6.35742 4.16734 6.35742ZM17.263 7.88086C17.263 3.52539 13.7279 0 9.37242 0C5.02672 0 1.50133 3.51562 1.49156 7.89062C1.50133 8.29102 1.83336 8.62305 2.23375 8.62305C2.6439 8.62305 2.9857 8.28125 2.9857 7.88086C2.9857 4.3457 5.83726 1.48438 9.37242 1.48438C12.9076 1.48438 15.7689 4.3457 15.7689 7.88086C15.7689 11.416 12.9076 14.2773 9.37242 14.2773C7.28258 14.2773 5.44664 13.2715 4.2943 11.7578C4.02086 11.3965 3.60094 11.2891 3.23961 11.5137C2.88805 11.7285 2.78062 12.2363 3.08336 12.6172C4.53844 14.5312 6.78453 15.7617 9.37242 15.7617C13.7279 15.7617 17.263 12.2363 17.263 7.88086Z" fill="white" fill-opacity="0.425"/>
  <path d="M9.33336 4.31641C8.72789 4.31641 7.92711 4.46289 7.40953 5.19531C7.29234 5.36133 7.24351 5.50781 7.24351 5.71289C7.24351 5.9668 7.40953 6.12305 7.6732 6.12305C7.88805 6.12305 8.00523 6.02539 8.10289 5.83984C8.37633 5.35156 8.83531 5.15625 9.35289 5.15625C9.98765 5.15625 10.6322 5.44922 10.6322 6.09375C10.6322 6.38672 10.4857 6.76758 10.056 6.89453L10.8763 7.11914C11.267 6.9043 11.599 6.5332 11.599 6.02539C11.599 4.84375 10.4564 4.31641 9.33336 4.31641ZM6.55992 7.09961C6.55992 7.26562 6.67711 7.38281 6.82359 7.38281L11.9115 7.38281C12.0775 7.38281 12.1947 7.26562 12.1947 7.09961C12.1947 6.93359 12.0775 6.81641 11.9115 6.81641L6.82359 6.81641C6.67711 6.81641 6.55992 6.93359 6.55992 7.09961ZM6.55992 8.35938C6.55992 8.51562 6.67711 8.63281 6.82359 8.63281L11.9115 8.63281C12.0775 8.63281 12.1947 8.51562 12.1947 8.35938C12.1947 8.18359 12.0775 8.07617 11.9115 8.07617L6.82359 8.07617C6.67711 8.07617 6.55992 8.18359 6.55992 8.35938ZM9.37242 11.3281C10.2611 11.3281 11.0814 11.0059 11.5013 10.332C11.599 10.1758 11.6673 9.98047 11.6673 9.81445C11.6673 9.57031 11.4916 9.4043 11.2279 9.4043C11.013 9.4043 10.8861 9.50195 10.7787 9.69727C10.5052 10.2637 9.99742 10.4785 9.37242 10.4785C8.67906 10.4785 7.99547 10.1465 7.99547 9.54102C7.99547 8.97461 8.3568 8.62305 8.9232 8.47656L7.9857 8.31055C7.4193 8.51562 7.02867 9.02344 7.02867 9.58984C7.02867 10.7715 8.25914 11.3281 9.37242 11.3281Z" fill="white" fill-opacity="0.85"/>
 </g>
</svg>
