<?xml version="1.0" encoding="UTF-8"?>
<!--Generator: Apple Native CoreSVG 341-->
<!DOCTYPE svg
PUBLIC "-//W3C//DTD SVG 1.1//EN"
       "http://www.w3.org/Graphics/SVG/1.1/DTD/svg11.dtd">
<svg version="1.1" xmlns="http://www.w3.org/2000/svg" xmlns:xlink="http://www.w3.org/1999/xlink" viewBox="0 0 16.1328 15.7715">
 <g>
  <rect height="15.7715" opacity="0" width="16.1328" x="0" y="0"/>
  <path d="M7.88086 15.7617C12.2363 15.7617 15.7715 12.2266 15.7715 7.88086C15.7715 3.53516 12.2363 0 7.88086 0C3.53516 0 0 3.53516 0 7.88086C0 12.2266 3.53516 15.7617 7.88086 15.7617Z" fill="white" fill-opacity="0.2125"/>
  <path d="M7.8418 4.18945C9.00391 4.18945 10.1953 4.73633 10.1953 5.95703C10.1953 6.28906 10.0586 6.5625 9.85352 6.77734L10.5176 6.77734C10.6836 6.77734 10.8105 6.89453 10.8105 7.08008C10.8105 7.24609 10.6836 7.36328 10.5176 7.36328L5.24414 7.36328C5.07812 7.36328 4.96094 7.24609 4.96094 7.08008C4.96094 6.89453 5.07812 6.77734 5.24414 6.77734L8.78906 6.77734C9.08203 6.60156 9.18945 6.2793 9.18945 6.02539C9.18945 5.35156 8.51562 5.05859 7.86133 5.05859C7.32422 5.05859 6.8457 5.25391 6.57227 5.76172C6.45508 5.9668 6.33789 6.06445 6.11328 6.06445C5.83984 6.06445 5.67383 5.88867 5.67383 5.63477C5.67383 5.41992 5.72266 5.27344 5.83984 5.09766C6.37695 4.32617 7.20703 4.18945 7.8418 4.18945ZM7.88086 11.4551C6.72852 11.4551 5.43945 10.8789 5.43945 9.64844C5.43945 9.27734 5.61523 8.92578 5.88867 8.66211L5.24414 8.66211C5.07812 8.66211 4.96094 8.54492 4.96094 8.37891C4.96094 8.19336 5.07812 8.08594 5.24414 8.08594L10.5176 8.08594C10.6836 8.08594 10.8105 8.19336 10.8105 8.37891C10.8105 8.54492 10.6836 8.66211 10.5176 8.66211L7.01172 8.66211C6.66016 8.85742 6.45508 9.16992 6.45508 9.59961C6.45508 10.2246 7.1582 10.5859 7.88086 10.5859C8.53516 10.5859 9.05273 10.3516 9.3457 9.77539C9.45312 9.57031 9.58008 9.46289 9.80469 9.46289C10.0879 9.46289 10.2637 9.62891 10.2637 9.88281C10.2637 10.0684 10.1855 10.2734 10.0879 10.4199C9.6582 11.1328 8.80859 11.4551 7.88086 11.4551Z" fill="white" fill-opacity="0.85"/>
 </g>
</svg>
