<?xml version="1.0" encoding="UTF-8"?>
<!--Generator: Apple Native CoreSVG 341-->
<!DOCTYPE svg
PUBLIC "-//W3C//DTD SVG 1.1//EN"
       "http://www.w3.org/Graphics/SVG/1.1/DTD/svg11.dtd">
<svg version="1.1" xmlns="http://www.w3.org/2000/svg" xmlns:xlink="http://www.w3.org/1999/xlink" viewBox="0 0 17.6172 17.2754">
 <g>
  <rect height="17.2754" opacity="0" width="17.6172" x="0" y="0"/>
  <path d="M8.63281 17.2656C13.3594 17.2656 17.2559 13.3691 17.2559 8.63281C17.2559 3.89648 13.3594 0 8.63281 0C3.89648 0 0 3.89648 0 8.63281C0 13.3691 3.89648 17.2656 8.63281 17.2656ZM8.63281 14.3555C5.46875 14.3555 2.91016 11.7969 2.91016 8.63281C2.91016 5.46875 5.46875 2.91016 8.63281 2.91016C11.7871 2.91016 14.3457 5.46875 14.3457 8.63281C14.3457 11.7969 11.7871 14.3555 8.63281 14.3555Z" fill="white" fill-opacity="0.85"/>
  <path d="M8.59375 5.06836C7.97852 5.06836 7.17773 5.21484 6.66016 5.94727C6.54297 6.11328 6.49414 6.25977 6.49414 6.46484C6.49414 6.71875 6.66016 6.875 6.92383 6.875C7.13867 6.875 7.25586 6.77734 7.36328 6.5918C7.62695 6.10352 8.0957 5.9082 8.61328 5.9082C9.23828 5.9082 9.88281 6.20117 9.88281 6.8457C9.88281 7.13867 9.73633 7.51953 9.31641 7.64648L10.127 7.87109C10.5273 7.65625 10.8496 7.28516 10.8496 6.77734C10.8496 5.5957 9.70703 5.06836 8.59375 5.06836ZM5.81055 7.85156C5.81055 8.01758 5.92773 8.13477 6.08398 8.13477L11.1621 8.13477C11.3281 8.13477 11.4453 8.01758 11.4453 7.85156C11.4453 7.68555 11.3281 7.56836 11.1621 7.56836L6.08398 7.56836C5.92773 7.56836 5.81055 7.68555 5.81055 7.85156ZM5.81055 9.11133C5.81055 9.26758 5.92773 9.38477 6.08398 9.38477L11.1621 9.38477C11.3281 9.38477 11.4453 9.26758 11.4453 9.11133C11.4453 8.93555 11.3281 8.82812 11.1621 8.82812L6.08398 8.82812C5.92773 8.82812 5.81055 8.93555 5.81055 9.11133ZM8.63281 12.0801C9.52148 12.0801 10.3418 11.7578 10.752 11.084C10.8496 10.9277 10.9277 10.7324 10.9277 10.5664C10.9277 10.3223 10.7422 10.1562 10.4785 10.1562C10.2637 10.1562 10.1367 10.2539 10.0293 10.4492C9.75586 11.0156 9.25781 11.2305 8.62305 11.2305C7.92969 11.2305 7.25586 10.8984 7.25586 10.293C7.25586 9.72656 7.60742 9.375 8.17383 9.22852L7.23633 9.0625C6.66992 9.26758 6.2793 9.77539 6.2793 10.3418C6.2793 11.5234 7.51953 12.0801 8.63281 12.0801Z" fill="white" fill-opacity="0.85"/>
 </g>
</svg>
