<?xml version="1.0" encoding="UTF-8"?>
<!--Generator: Apple Native CoreSVG 341-->
<!DOCTYPE svg
PUBLIC "-//W3C//DTD SVG 1.1//EN"
       "http://www.w3.org/Graphics/SVG/1.1/DTD/svg11.dtd">
<svg version="1.1" xmlns="http://www.w3.org/2000/svg" xmlns:xlink="http://www.w3.org/1999/xlink" viewBox="0 0 16.1328 15.7715">
 <g>
  <rect height="15.7715" opacity="0" width="16.1328" x="0" y="0"/>
  <path d="M15.7715 7.89062C15.7715 12.2363 12.2363 15.7715 7.88086 15.7715C3.53516 15.7715 0 12.2363 0 7.89062C0 3.54492 3.53516 0.00976562 7.88086 0.00976562C12.2363 0.00976562 15.7715 3.54492 15.7715 7.89062ZM6.25977 5.54688C6.16211 5.52734 6.06445 5.51758 5.98633 5.51758C5.15625 5.51758 4.45312 6.11328 4.31641 6.91406C3.57422 7.23633 3.04688 7.94922 3.04688 8.81836C3.04688 10.166 3.93555 10.8398 5.06836 10.8398L11.0547 10.8398C11.9824 10.8398 12.7441 10.0684 12.7441 9.14062C12.7441 8.35938 12.2266 7.69531 11.5332 7.5C11.5332 7.43164 11.5332 7.37305 11.5332 7.32422C11.5332 5.70312 10.2246 4.375 8.59375 4.375C7.63672 4.375 6.79688 4.84375 6.25977 5.54688Z" fill="white" fill-opacity="0.85"/>
 </g>
</svg>
