<svg version="1.1" xmlns="http://www.w3.org/2000/svg" xmlns:xlink="http://www.w3.org/1999/xlink" viewBox="0 0 19.8828 17.1582">
 <g>
  <rect height="17.1582" opacity="0" width="19.8828" x="0" y="0"/>
  <path d="M17.0703 6.38672C18.5645 7.02148 19.5215 8.30078 19.5215 9.89258C19.5215 11.7773 18.0566 13.2324 15.6152 13.2324L10.5176 13.2324L10.5176 9.21875L10.4688 8.04688L10.8594 8.4668L11.9336 9.63867C12.0605 9.78516 12.2363 9.85352 12.4023 9.85352C12.7734 9.85352 13.0469 9.59961 13.0469 9.23828C13.0469 9.05273 12.9688 8.90625 12.8418 8.7793L10.332 6.38672C10.1562 6.20117 10.0098 6.15234 9.82422 6.15234C9.64844 6.15234 9.50195 6.20117 9.31641 6.38672L6.81641 8.7793C6.67969 8.90625 6.61133 9.05273 6.61133 9.23828C6.61133 9.59961 6.875 9.85352 7.23633 9.85352C7.40234 9.85352 7.59766 9.78516 7.71484 9.63867L8.79883 8.4668L9.18945 8.04688L9.13086 9.21875L9.13086 13.2324L4.10156 13.2324C1.5332 13.2324 0 11.582 0 9.56055C0 7.72461 1.06445 6.26953 2.82227 5.95703C2.88086 3.78906 5.11719 2.41211 6.85547 2.86133C7.8125 1.54297 9.30664 0.439453 11.3867 0.439453C14.5703 0.439453 17.0605 2.91992 17.0703 6.38672Z" fill="var(--color-tertiary)"/>
  <path d="M9.82422 17.1582C9.45312 17.1582 9.13086 16.8457 9.13086 16.4844L9.13086 9.21875L9.18945 8.04688L8.79883 8.4668L7.71484 9.63867C7.59766 9.78516 7.40234 9.85352 7.23633 9.85352C6.875 9.85352 6.61133 9.59961 6.61133 9.23828C6.61133 9.05273 6.67969 8.90625 6.81641 8.7793L9.31641 6.38672C9.50195 6.20117 9.64844 6.15234 9.82422 6.15234C10.0098 6.15234 10.1562 6.20117 10.332 6.38672L12.8418 8.7793C12.9688 8.90625 13.0469 9.05273 13.0469 9.23828C13.0469 9.59961 12.7734 9.85352 12.4023 9.85352C12.2363 9.85352 12.0605 9.78516 11.9336 9.63867L10.8594 8.4668L10.4688 8.04688L10.5176 9.21875L10.5176 16.4844C10.5176 16.8457 10.2051 17.1582 9.82422 17.1582Z" fill="var(--color-primary)"/>
 </g>
</svg>
