<?xml version="1.0" encoding="UTF-8"?>
<!--Generator: Apple Native CoreSVG 341-->
<!DOCTYPE svg
PUBLIC "-//W3C//DTD SVG 1.1//EN"
       "http://www.w3.org/Graphics/SVG/1.1/DTD/svg11.dtd">
<svg version="1.1" xmlns="http://www.w3.org/2000/svg" xmlns:xlink="http://www.w3.org/1999/xlink" viewBox="0 0 17.6172 17.2754">
 <g>
  <rect height="17.2754" opacity="0" width="17.6172" x="0" y="0"/>
  <path d="M8.63281 17.2656C13.3594 17.2656 17.2559 13.3691 17.2559 8.63281C17.2559 3.89648 13.3594 0 8.63281 0C3.89648 0 0 3.89648 0 8.63281C0 13.3691 3.89648 17.2656 8.63281 17.2656ZM8.63281 14.3555C5.46875 14.3555 2.91016 11.7969 2.91016 8.63281C2.91016 5.46875 5.46875 2.91016 8.63281 2.91016C11.7871 2.91016 14.3457 5.46875 14.3457 8.63281C14.3457 11.7969 11.7871 14.3555 8.63281 14.3555Z" fill="white" fill-opacity="0.425"/>
  <path d="M7.8418 9.33594C9.05273 9.33594 9.96094 8.67188 10.1367 7.5L10.7129 7.5C10.8789 7.5 10.9961 7.38281 10.9961 7.22656C10.9961 7.08008 10.8789 6.95312 10.7129 6.95312L10.1562 6.95312C10.1074 6.45508 9.90234 5.99609 9.53125 5.67383L10.7129 5.67383C10.8789 5.67383 10.9961 5.55664 10.9961 5.40039C10.9961 5.24414 10.8789 5.12695 10.7129 5.12695L6.44531 5.12695C6.23047 5.12695 6.09375 5.26367 6.09375 5.50781L6.09375 5.56641C6.09375 5.80078 6.23047 5.9375 6.44531 5.9375L7.67578 5.9375C8.4082 5.9375 8.99414 6.23047 9.12109 6.95312L6.39648 6.95312C6.24023 6.95312 6.11328 7.08008 6.11328 7.22656C6.11328 7.38281 6.24023 7.5 6.39648 7.5L9.12109 7.5C9.00391 8.24219 8.4375 8.51562 7.69531 8.51562L6.65039 8.51562C6.32812 8.51562 6.12305 8.71094 6.12305 8.98438L6.12305 9.01367C6.12305 9.25781 6.23047 9.39453 6.41602 9.57031L8.97461 11.9727C9.12109 12.1094 9.23828 12.207 9.45312 12.207C9.69727 12.207 9.88281 12.0117 9.88281 11.7773C9.88281 11.6113 9.81445 11.5039 9.6875 11.3867L7.50977 9.33594Z" fill="white" fill-opacity="0.85"/>
 </g>
</svg>
