<svg version="1.1" xmlns="http://www.w3.org/2000/svg" xmlns:xlink="http://www.w3.org/1999/xlink" viewBox="0 0 17.5623 17.2205">
 <g>
  <rect height="17.2205" opacity="0" width="17.5623" x="0" y="0"/>
  <path d="M6.32998 3.36123C6.8378 3.13662 7.37491 2.99014 7.95108 2.92178C8.10733 2.91201 8.21475 2.79482 8.21475 2.63857L8.21475 0.314356C8.21475 0.128809 8.07803-0.0176756 7.89248 0.00185562C6.8378 0.0897462 5.8417 0.382715 4.92373 0.812402C4.75772 0.890527 4.70889 1.08584 4.79678 1.24209L5.93936 3.23428C6.02725 3.371 6.1835 3.41982 6.32998 3.36123Z" fill="var(--color-secondary)"/>
  <path d="M4.01553 5.19717C4.34756 4.74795 4.73819 4.34756 5.19717 4.01553C5.32412 3.91787 5.35342 3.76162 5.2753 3.6249L4.12295 1.63271C4.03506 1.47646 3.83975 1.42764 3.6835 1.53506C2.84366 2.13076 2.121 2.85342 1.53506 3.69326C1.42764 3.84951 1.4667 4.04482 1.63272 4.14248L3.63467 5.28506C3.77139 5.36318 3.91787 5.33389 4.01553 5.19717Z" fill="var(--color-secondary)"/>
  <path d="M2.92178 7.95107C2.99014 7.38467 3.13662 6.83779 3.35147 6.33975C3.41983 6.19326 3.371 6.03701 3.23428 5.95889L1.23233 4.80654C1.06631 4.70889 0.880764 4.76748 0.802639 4.9335C0.372952 5.85146 0.0897488 6.83779 0.00185816 7.89248C-0.00790746 8.07803 0.119046 8.21475 0.314358 8.21475L2.63858 8.21475C2.79483 8.21475 2.91201 8.10732 2.92178 7.95107Z" fill="var(--color-secondary)"/>
  <path d="M3.35147 10.8808C3.13662 10.3827 2.99014 9.83584 2.92178 9.25967C2.91201 9.10342 2.79483 8.996 2.63858 8.996L0.304593 8.996C0.119046 8.996-0.0176731 9.13271 0.00185816 9.31826C0.0897488 10.3827 0.372952 11.3788 0.812405 12.2968C0.89053 12.4628 1.06631 12.5214 1.23233 12.4237L3.23428 11.2616C3.371 11.1835 3.41983 11.0272 3.35147 10.8808Z" fill="var(--color-secondary)"/>
  <path d="M5.19717 13.205C4.74795 12.8729 4.34756 12.4823 4.01553 12.0233C3.91787 11.8964 3.76162 11.8573 3.62491 11.9452L1.63272 13.078C1.4667 13.1757 1.42764 13.371 1.5253 13.5272C2.121 14.3671 2.84366 15.0897 3.69326 15.6854C3.84951 15.7929 4.04483 15.744 4.13272 15.5878L5.2753 13.5858C5.35342 13.4491 5.32412 13.3026 5.19717 13.205Z" fill="var(--color-secondary)"/>
  <path d="M7.95108 14.2987C7.38467 14.2304 6.8378 14.0839 6.33975 13.869C6.19326 13.8007 6.03701 13.8495 5.94912 13.9862L4.80655 15.9784C4.71866 16.1347 4.76748 16.33 4.9335 16.4081C5.8417 16.8378 6.8378 17.1308 7.89248 17.2187C8.07803 17.2284 8.21475 17.0917 8.21475 16.9062L8.21475 14.5819C8.21475 14.4257 8.10733 14.3085 7.95108 14.2987Z" fill="var(--color-secondary)"/>
  <path d="M10.8808 13.869C10.3827 14.0839 9.83584 14.2304 9.25967 14.2987C9.09366 14.3085 8.98623 14.4257 8.98623 14.5819L8.98623 16.9062C8.98623 17.1015 9.12295 17.2382 9.31826 17.2187C10.3632 17.1308 11.3788 16.8378 12.287 16.4081C12.453 16.33 12.5019 16.1347 12.414 15.9784L11.2616 13.9862C11.1835 13.8495 11.0272 13.8007 10.8808 13.869Z" fill="var(--color-secondary)"/>
  <path d="M13.205 12.0233C12.873 12.4726 12.4628 12.8632 12.0136 13.205C11.8866 13.3026 11.8476 13.4589 11.9257 13.5858L13.078 15.578C13.1659 15.7343 13.3612 15.7929 13.5175 15.6854C14.3671 15.0897 15.0897 14.3573 15.6757 13.5272C15.7831 13.371 15.7343 13.1757 15.578 13.078L13.5858 11.9354C13.4589 11.8476 13.3026 11.8964 13.205 12.0233Z" fill="var(--color-secondary)"/>
  <path d="M14.289 9.25967C14.2206 9.83584 14.0741 10.3827 13.8495 10.8808C13.7909 11.0272 13.8397 11.1737 13.9765 11.2519L15.9687 12.4042C16.1347 12.5019 16.33 12.453 16.4081 12.2772C16.8378 11.3593 17.1112 10.3729 17.1991 9.31826C17.2089 9.13271 17.0819 8.996 16.8964 8.996L14.5819 8.996C14.4257 8.996 14.2987 9.10342 14.289 9.25967Z" fill="var(--color-secondary)"/>
  <path d="M13.8495 6.32998C14.0644 6.83779 14.2206 7.38467 14.289 7.95107C14.2987 8.10732 14.4257 8.21475 14.5819 8.21475L16.8964 8.21475C17.0819 8.21475 17.2089 8.07803 17.1991 7.89248C17.1112 6.84756 16.8378 5.8417 16.4081 4.9335C16.33 4.76748 16.1249 4.70889 15.9687 4.80654L13.9667 5.96865C13.8397 6.04678 13.7909 6.19326 13.8495 6.32998Z" fill="var(--color-secondary)"/>
  <path d="M12.0136 4.01553C12.4628 4.34756 12.8632 4.73818 13.205 5.19717C13.3026 5.32412 13.4589 5.37295 13.5858 5.28506L15.578 4.14248C15.744 4.04482 15.7831 3.84951 15.6855 3.69326C15.0897 2.85342 14.3573 2.121 13.5175 1.53506C13.3612 1.42764 13.1659 1.47646 13.078 1.63271L11.9257 3.6249C11.8476 3.76162 11.8769 3.91787 12.0136 4.01553Z" fill="var(--color-secondary)"/>
  <path d="M9.25967 2.92178C9.83584 2.98037 10.373 3.13662 10.8808 3.36123C11.0272 3.41982 11.1835 3.371 11.2616 3.23428L12.414 1.24209C12.5019 1.08584 12.4433 0.890527 12.2772 0.812402C11.3593 0.382715 10.373 0.0897462 9.31826 0.00185562C9.13272-0.00791 8.98623 0.128809 8.98623 0.314356L8.98623 2.63857C8.98623 2.79482 9.09366 2.91201 9.25967 2.92178Z" fill="var(--color-secondary)"/>
  <path d="M7.80459 9.3085C9.01553 9.3085 9.92373 8.64443 10.0995 7.47256L10.6757 7.47256C10.8417 7.47256 10.9589 7.35537 10.9589 7.19912C10.9589 7.05264 10.8417 6.92568 10.6757 6.92568L10.119 6.92568C10.0702 6.42764 9.86514 5.96865 9.49405 5.64639L10.6757 5.64639C10.8417 5.64639 10.9589 5.5292 10.9589 5.37295C10.9589 5.2167 10.8417 5.09951 10.6757 5.09951L6.40811 5.09951C6.19326 5.09951 6.05655 5.23623 6.05655 5.48037L6.05655 5.53896C6.05655 5.77334 6.19326 5.91006 6.40811 5.91006L7.63858 5.91006C8.371 5.91006 8.95694 6.20303 9.08389 6.92568L6.35928 6.92568C6.20303 6.92568 6.07608 7.05264 6.07608 7.19912C6.07608 7.35537 6.20303 7.47256 6.35928 7.47256L9.08389 7.47256C8.9667 8.21475 8.4003 8.48818 7.65811 8.48818L6.61319 8.48818C6.29092 8.48818 6.08584 8.6835 6.08584 8.95693L6.08584 8.98623C6.08584 9.23037 6.19326 9.36709 6.37881 9.54287L8.93741 11.9452C9.08389 12.0819 9.20108 12.1796 9.41592 12.1796C9.66006 12.1796 9.84561 11.9843 9.84561 11.7499C9.84561 11.5839 9.77725 11.4765 9.6503 11.3593L7.47256 9.3085Z" fill="var(--color-primary)"/>
 </g>
</svg>
