<?xml version="1.0" encoding="UTF-8"?>
<!--Generator: Apple Native CoreSVG 341-->
<!DOCTYPE svg
PUBLIC "-//W3C//DTD SVG 1.1//EN"
       "http://www.w3.org/Graphics/SVG/1.1/DTD/svg11.dtd">
<svg version="1.1" xmlns="http://www.w3.org/2000/svg" xmlns:xlink="http://www.w3.org/1999/xlink" viewBox="0 0 20.2051 14.873">
 <g>
  <rect height="14.873" opacity="0" width="20.2051" x="0" y="0"/>
  <path d="M0 7.43164C0 11.9043 3.13477 14.8633 7.85156 14.8633L11.9922 14.8633C16.6992 14.8633 19.8438 11.9043 19.8438 7.43164C19.8438 2.95898 16.6992 0 11.9922 0L7.85156 0C3.13477 0 0 2.95898 0 7.43164ZM1.40625 7.43164C1.40625 3.87695 4.05273 1.40625 7.85156 1.40625L11.9922 1.40625C15.791 1.40625 18.4277 3.87695 18.4277 7.43164C18.4277 10.9863 15.791 13.457 11.9922 13.457L7.85156 13.457C4.05273 13.457 1.40625 10.9863 1.40625 7.43164Z" fill="white" fill-opacity="0.85"/>
  <path d="M7.85156 12.3145L11.9922 12.3145C15.3418 12.3145 17.2949 10.4883 17.2949 7.43164C17.2949 4.375 15.3418 2.54883 11.9922 2.54883L7.85156 2.54883C4.50195 2.54883 2.54883 4.375 2.54883 7.43164C2.54883 10.4883 4.50195 12.3145 7.85156 12.3145Z" fill="white" fill-opacity="0.85"/>
 </g>
</svg>
