<?xml version="1.0" encoding="UTF-8"?>
<!--Generator: Apple Native CoreSVG 341-->
<!DOCTYPE svg
PUBLIC "-//W3C//DTD SVG 1.1//EN"
       "http://www.w3.org/Graphics/SVG/1.1/DTD/svg11.dtd">
<svg version="1.1" xmlns="http://www.w3.org/2000/svg" xmlns:xlink="http://www.w3.org/1999/xlink" viewBox="0 0 18.4766 14.248">
 <g>
  <rect height="14.248" opacity="0" width="18.4766" x="0" y="0"/>
  <path d="M2.49023 14.248L15.625 14.248C17.2949 14.248 18.1152 13.4277 18.1152 11.7871L18.1152 2.4707C18.1152 0.830078 17.2949 0.00976562 15.625 0.00976562L2.49023 0.00976562C0.830078 0.00976562 0 0.830078 0 2.4707L0 11.7871C0 13.4277 0.830078 14.248 2.49023 14.248ZM2.50977 12.832C1.80664 12.832 1.40625 12.4512 1.40625 11.7188L1.40625 2.53906C1.40625 1.79688 1.80664 1.42578 2.50977 1.42578L15.6055 1.42578C16.3086 1.42578 16.709 1.79688 16.709 2.53906L16.709 11.7188C16.709 12.4512 16.3086 12.832 15.6055 12.832Z" fill="white" fill-opacity="0.85"/>
  <path d="M3.14453 11.6992L8.47656 11.6992C8.92578 11.6992 9.08203 11.5234 9.08203 11.0742L9.08203 3.18359C9.08203 2.72461 8.92578 2.55859 8.47656 2.55859L3.14453 2.55859C2.70508 2.55859 2.54883 2.72461 2.54883 3.18359L2.54883 11.0742C2.54883 11.5234 2.70508 11.6992 3.14453 11.6992ZM10.293 7.11914C10.293 7.26562 10.3418 7.38281 10.4883 7.53906L12.4219 9.64844C12.5293 9.76562 12.6562 9.83398 12.8125 9.83398C13.1055 9.83398 13.3301 9.59961 13.3301 9.29688C13.3301 9.16016 13.2715 9.00391 13.1543 8.89648L12.2949 8.03711L11.2988 7.11914L12.2949 6.20117L13.1543 5.3418C13.2715 5.23438 13.3301 5.08789 13.3301 4.95117C13.3301 4.63867 13.1055 4.4043 12.8125 4.4043C12.6562 4.4043 12.5293 4.47266 12.4219 4.58984L10.4883 6.69922C10.3418 6.85547 10.293 6.97266 10.293 7.11914ZM15.459 7.11914C15.4688 6.80664 15.1953 6.5332 14.8926 6.5332L12.8906 6.5332L11.1621 6.5918C10.8789 6.60156 10.6348 6.82617 10.6348 7.11914C10.6348 7.41211 10.8789 7.63672 11.1621 7.64648L12.8906 7.70508L14.8926 7.70508C15.1953 7.70508 15.4492 7.43164 15.459 7.11914Z" fill="white" fill-opacity="0.85"/>
 </g>
</svg>
