<?xml version="1.0" encoding="UTF-8"?>
<!--Generator: Apple Native CoreSVG 341-->
<!DOCTYPE svg
PUBLIC "-//W3C//DTD SVG 1.1//EN"
       "http://www.w3.org/Graphics/SVG/1.1/DTD/svg11.dtd">
<svg version="1.1" xmlns="http://www.w3.org/2000/svg" xmlns:xlink="http://www.w3.org/1999/xlink" viewBox="0 0 16.1328 15.7715">
 <g>
  <rect height="15.7715" opacity="0" width="16.1328" x="0" y="0"/>
  <path d="M1.50391 7.88086C1.50391 7.2168 1.60156 6.57227 1.78711 5.97656L0.400391 5.40039C0.146484 6.19141 0 7.02148 0 7.88086C0 8.74023 0.146484 9.57031 0.410156 10.3613L1.78711 9.78516C1.60156 9.18945 1.50391 8.54492 1.50391 7.88086ZM4.90234 2.20703L4.3457 0.859375C2.8418 1.62109 1.61133 2.85156 0.849609 4.3457L2.20703 4.92188C2.8125 3.75977 3.75 2.82227 4.90234 2.20703ZM7.87109 1.48438C8.53516 1.48438 9.17969 1.5918 9.78516 1.77734L10.3516 0.410156C9.57031 0.146484 8.74023 0 7.87109 0C7.01172 0 6.17188 0.146484 5.39062 0.410156L5.9668 1.77734C6.5625 1.5918 7.20703 1.48438 7.87109 1.48438ZM13.5449 4.91211L14.9121 4.3457C14.1406 2.85156 12.9102 1.62109 11.4062 0.849609L10.8398 2.20703C11.9922 2.8125 12.9492 3.75 13.5449 4.91211ZM14.2773 7.88086C14.2773 8.54492 14.1797 9.18945 13.9941 9.79492L15.3516 10.3613C15.625 9.58008 15.7715 8.74023 15.7715 7.88086C15.7715 7.02148 15.625 6.18164 15.3516 5.40039L13.9844 5.9668C14.1797 6.57227 14.2773 7.2168 14.2773 7.88086ZM10.8398 13.5547L11.4062 14.9121C12.9102 14.1406 14.1504 12.9102 14.9121 11.416L13.5547 10.8496C12.959 12.0117 12.002 12.9492 10.8398 13.5547ZM7.88086 14.2773C7.20703 14.2773 6.5625 14.1699 5.9668 13.9844L5.40039 15.3516C6.18164 15.6152 7.02148 15.7617 7.88086 15.7617C8.75 15.7617 9.58008 15.6152 10.3613 15.3613L9.78516 13.9941C9.17969 14.1699 8.54492 14.2773 7.88086 14.2773ZM2.2168 10.8496L0.849609 11.416C1.62109 12.9102 2.8418 14.1406 4.3457 14.9023L4.90234 13.5449C3.75 12.9395 2.8125 12.002 2.2168 10.8496Z" fill="white" fill-opacity="0.85"/>
  <path d="M7.87109 12.998C10.7031 12.998 12.9883 10.7031 12.9883 7.88086C12.9883 5.05859 10.7031 2.77344 7.87109 2.77344C5.04883 2.77344 2.76367 5.05859 2.76367 7.88086C2.76367 10.7031 5.04883 12.998 7.87109 12.998Z" fill="white" fill-opacity="0.85"/>
 </g>
</svg>
