<svg version="1.1" xmlns="http://www.w3.org/2000/svg" xmlns:xlink="http://www.w3.org/1999/xlink" viewBox="0 0 16.1328 15.7715">
 <g>
  <rect height="15.7715" opacity="0" width="16.1328" x="0" y="0"/>
  <path d="M7.90039 10.0781C7.53906 10.0781 7.24609 9.78516 7.24609 9.43359C7.24609 9.08203 7.53906 8.79883 7.90039 8.79883C8.24219 8.79883 8.53516 9.08203 8.53516 9.43359C8.53516 9.78516 8.24219 10.0781 7.90039 10.0781ZM13.1055 2.88086L11.9238 1.86523L11.9238 8.32031L3.83789 8.32031L3.83789 1.95312L2.66602 2.86133L2.66602 8.90625C2.66602 9.87305 3.36914 10.5469 4.38477 10.5469L11.377 10.5469C12.3926 10.5469 13.1055 9.87305 13.1055 8.90625ZM7.88086 15.7617C12.2363 15.7617 15.7715 12.2363 15.7715 7.88086C15.7715 3.52539 12.2363 0 7.88086 0C3.53516 0 0 3.52539 0 7.88086C0 12.2363 3.53516 15.7617 7.88086 15.7617ZM7.88086 14.2773C4.3457 14.2773 1.49414 11.416 1.49414 7.88086C1.49414 4.3457 4.3457 1.48438 7.88086 1.48438C11.416 1.48438 14.2773 4.3457 14.2773 7.88086C14.2773 11.416 11.416 14.2773 7.88086 14.2773Z" fill="var(--color-primary)"/>
 </g>
</svg>
