<?xml version="1.0" encoding="UTF-8"?>
<!--Generator: Apple Native CoreSVG 341-->
<!DOCTYPE svg
PUBLIC "-//W3C//DTD SVG 1.1//EN"
       "http://www.w3.org/Graphics/SVG/1.1/DTD/svg11.dtd">
<svg version="1.1" xmlns="http://www.w3.org/2000/svg" xmlns:xlink="http://www.w3.org/1999/xlink" viewBox="0 0 19.375 17.4902">
 <g>
  <rect height="17.4902" opacity="0" width="19.375" x="0" y="0"/>
  <path d="M15.9961 2.04102L15.9961 15.4395C15.9961 16.6309 15.1172 17.4707 13.8477 17.4707L5.16602 17.4707C3.90625 17.4707 3.01758 16.6309 3.01758 15.4395L3.01758 10.957L4.42383 10.957L4.42383 15.1953C4.42383 15.7324 4.77539 16.0645 5.35156 16.0645L13.6621 16.0645C14.2383 16.0645 14.5898 15.7324 14.5898 15.1953L14.5898 2.27539C14.5898 1.73828 14.2383 1.40625 13.6621 1.40625L5.35156 1.40625C4.77539 1.40625 4.42383 1.73828 4.42383 2.27539L4.42383 6.50391L3.01758 6.50391L3.01758 2.04102C3.01758 0.839844 3.90625 0 5.16602 0L13.8477 0C15.1172 0 15.9961 0.839844 15.9961 2.04102Z" fill="white" fill-opacity="0.85"/>
  <path d="M6.07422 6.14258C6.07422 6.30859 6.13281 6.49414 6.2793 6.62109L7.45117 7.69531L8.55469 8.73047L7.45117 9.76562L6.2793 10.8398C6.13281 10.9668 6.07422 11.1426 6.07422 11.3086C6.07422 11.6797 6.32812 11.9531 6.67969 11.9531C6.86523 11.9531 7.01172 11.875 7.13867 11.7383L9.54102 9.23828C9.7168 9.0625 9.77539 8.90625 9.77539 8.73047C9.77539 8.55469 9.7168 8.39844 9.54102 8.22266L7.13867 5.72266C7.01172 5.58594 6.86523 5.50781 6.67969 5.50781C6.32812 5.50781 6.07422 5.77148 6.07422 6.14258ZM0 8.73047C0 9.11133 0.3125 9.42383 0.673828 9.42383L6.70898 9.42383L8.92578 9.31641C9.24805 9.29688 9.51172 9.05273 9.51172 8.73047C9.51172 8.4082 9.24805 8.16406 8.92578 8.14453L6.70898 8.03711L0.673828 8.03711C0.3125 8.03711 0 8.35938 0 8.73047Z" fill="white" fill-opacity="0.85"/>
 </g>
</svg>
