<?xml version="1.0" encoding="UTF-8"?>
<!--Generator: Apple Native CoreSVG 341-->
<!DOCTYPE svg
PUBLIC "-//W3C//DTD SVG 1.1//EN"
       "http://www.w3.org/Graphics/SVG/1.1/DTD/svg11.dtd">
<svg version="1.1" xmlns="http://www.w3.org/2000/svg" xmlns:xlink="http://www.w3.org/1999/xlink" viewBox="0 0 23.1055 16.5332">
 <g>
  <rect height="16.5332" opacity="0" width="23.1055" x="0" y="0"/>
  <path d="M19.0234 3.68164L19.0234 3.7207L16.9043 3.7207C15.3027 3.7207 14.2188 4.77539 14.2188 6.32812L14.2188 13.9258C14.2188 13.9424 14.2189 13.959 14.2209 13.9746L4.82422 13.9746C4.12109 13.9746 3.7207 13.6035 3.7207 12.8613L3.7207 3.68164C3.7207 2.94922 4.12109 2.56836 4.82422 2.56836L17.9199 2.56836C18.623 2.56836 19.0234 2.94922 19.0234 3.68164Z" fill="white" fill-opacity="0.2125"/>
  <path d="M20.4297 3.61328L20.4297 3.72111C20.4266 3.72071 20.4232 3.7207 20.4199 3.7207L19.0234 3.7207L19.0234 3.68164C19.0234 2.94922 18.623 2.56836 17.9199 2.56836L4.82422 2.56836C4.12109 2.56836 3.7207 2.94922 3.7207 3.68164L3.7207 12.8613C3.7207 13.6035 4.12109 13.9746 4.82422 13.9746L14.2209 13.9746C14.2273 14.5181 14.3689 14.9984 14.621 15.3906L4.80469 15.3906C3.14453 15.3906 2.31445 14.5703 2.31445 12.9297L2.31445 3.61328C2.31445 1.97266 3.14453 1.15234 4.80469 1.15234L17.9395 1.15234C19.6094 1.15234 20.4297 1.97266 20.4297 3.61328ZM14.2187 13.3887L8.53516 13.3887C8.31055 13.3887 8.14453 13.2422 8.14453 13.0078C8.14453 12.7637 8.31055 12.6172 8.53516 12.6172L14.2187 12.6172Z" fill="white" fill-opacity="0.85"/>
  <path d="M16.9238 14.2578C16.6504 14.2578 16.4941 14.0918 16.4941 13.7988L16.4941 6.44531C16.4941 6.15234 16.6504 5.99609 16.9238 5.99609L20.4004 5.99609C20.6836 5.99609 20.8301 6.15234 20.8301 6.44531L20.8301 13.7988C20.8301 14.0918 20.6836 14.2578 20.4004 14.2578Z" fill="white" fill-opacity="0.2125"/>
  <path d="M16.9043 15.3906L20.4199 15.3906C21.3965 15.3906 21.9629 14.8438 21.9629 13.9258L21.9629 6.32812C21.9629 5.40039 21.3965 4.86328 20.4199 4.86328L16.9043 4.86328C15.9277 4.86328 15.3613 5.40039 15.3613 6.32812L15.3613 13.9258C15.3613 14.8438 15.9277 15.3906 16.9043 15.3906ZM16.9238 14.2578C16.6504 14.2578 16.4941 14.0918 16.4941 13.7988L16.4941 6.44531C16.4941 6.15234 16.6504 5.99609 16.9238 5.99609L20.4004 5.99609C20.6836 5.99609 20.8301 6.15234 20.8301 6.44531L20.8301 13.7988C20.8301 14.0918 20.6836 14.2578 20.4004 14.2578ZM17.627 13.8672L19.6777 13.8672C19.8438 13.8672 19.9707 13.75 19.9707 13.584C19.9707 13.4277 19.8438 13.3105 19.6777 13.3105L17.627 13.3105C17.4609 13.3105 17.3535 13.4277 17.3535 13.584C17.3535 13.7598 17.4512 13.8672 17.627 13.8672ZM18.0371 7.12891L19.248 7.12891C19.4629 7.12891 19.6289 6.96289 19.6289 6.74805C19.6289 6.54297 19.4629 6.38672 19.248 6.38672L18.0371 6.38672C17.832 6.38672 17.666 6.54297 17.666 6.74805C17.666 6.96289 17.832 7.12891 18.0371 7.12891Z" fill="white" fill-opacity="0.85"/>
 </g>
</svg>
