<svg version="1.1" xmlns="http://www.w3.org/2000/svg" xmlns:xlink="http://www.w3.org/1999/xlink" viewBox="0 0 15.9668 21.0254">
 <g>
  <rect height="21.0254" opacity="0" width="15.9668" x="0" y="0"/>
  <path d="M2.1875 17.6367C2.1875 18.1445 2.51953 18.4668 3.05664 18.4668L4.84375 18.4668L4.84375 19.873L2.77344 19.873C1.60156 19.873 0.78125 19.1016 0.78125 17.9883L0.78125 16.8555L2.1875 16.8555ZM9.85352 17.9883C9.85352 19.1016 9.0332 19.873 7.86133 19.873L5.79102 19.873L5.79102 18.4668L7.57812 18.4668C8.11523 18.4668 8.44727 18.1445 8.44727 17.6367L8.44727 17.0605L9.85352 17.0605ZM2.1875 15.8984L0.78125 15.8984L0.78125 12.959L2.1875 12.959ZM2.1875 12.002L0.78125 12.002L0.78125 9.0625L2.1875 9.0625ZM4.61914 6.50391L3.05664 6.50391C2.51953 6.50391 2.1875 6.82617 2.1875 7.33398L2.1875 8.10547L0.78125 8.10547L0.78125 6.98242C0.78125 5.86914 1.60156 5.09766 2.77344 5.09766L4.61914 5.09766Z" fill="var(--color-secondary)"/>
  <path d="M7.74414 15.918L12.8418 15.918C14.0137 15.918 14.8242 15.1465 14.8242 14.0332L14.8242 3.02734C14.8242 1.92383 14.0137 1.14258 12.8418 1.14258L7.74414 1.14258C6.57227 1.14258 5.76172 1.92383 5.76172 3.02734L5.76172 14.0332C5.76172 15.1465 6.57227 15.918 7.74414 15.918ZM8.67188 14.5117L13.418 10.5176L13.418 12.1875L10.6445 14.5117ZM11.8262 14.5117L13.418 13.1738L13.418 13.6816C13.418 14.1895 13.0859 14.5117 12.5488 14.5117ZM7.59766 14.4238C7.31445 14.2969 7.16797 14.0332 7.16797 13.6816L7.16797 13.125L13.418 7.87109L13.418 9.53125ZM7.16797 12.1289L7.16797 10.4688L13.418 5.21484L13.418 6.88477ZM7.16797 9.48242L7.16797 7.82227L13.1836 2.77344C13.3301 2.91992 13.418 3.11523 13.418 3.36914L13.418 4.22852ZM7.16797 4.17969L7.16797 3.36914C7.16797 2.87109 7.5 2.54883 8.03711 2.54883L9.10156 2.54883ZM7.16797 6.81641L7.16797 5.16602L10.2832 2.54883L12.2461 2.54883Z" fill="var(--color-primary)"/>
 </g>
</svg>
