<?xml version="1.0" encoding="UTF-8"?>
<!--Generator: Apple Native CoreSVG 341-->
<!DOCTYPE svg
PUBLIC "-//W3C//DTD SVG 1.1//EN"
       "http://www.w3.org/Graphics/SVG/1.1/DTD/svg11.dtd">
<svg version="1.1" xmlns="http://www.w3.org/2000/svg" xmlns:xlink="http://www.w3.org/1999/xlink" viewBox="0 0 27.0312 16.4941">
 <g>
  <rect height="16.4941" opacity="0" width="27.0312" x="0" y="0"/>
  <path d="M10.4004 16.4746L16.2695 16.4746C17.5293 16.4746 18.4082 15.6445 18.4082 14.4531L18.4082 2.02148C18.4082 0.830078 17.5293 0 16.2695 0L10.4004 0C9.14062 0 8.26172 0.830078 8.26172 2.02148L8.26172 14.4531C8.26172 15.6445 9.14062 16.4746 10.4004 16.4746ZM10.5859 15.0684C10.0098 15.0684 9.66797 14.7461 9.66797 14.209L9.66797 2.26562C9.66797 1.72852 10.0098 1.40625 10.5859 1.40625L16.084 1.40625C16.6504 1.40625 17.002 1.72852 17.002 2.26562L17.002 14.209C17.002 14.7461 16.6504 15.0684 16.084 15.0684ZM11.6895 14.4922L14.9902 14.4922C15.2148 14.4922 15.3711 14.3359 15.3711 14.1016C15.3711 13.8672 15.2148 13.7109 14.9902 13.7109L11.6895 13.7109C11.4648 13.7109 11.2988 13.8672 11.2988 14.1016C11.2988 14.3359 11.4648 14.4922 11.6895 14.4922ZM12.3926 3.16406L14.2871 3.16406C14.6094 3.16406 14.873 2.90039 14.873 2.56836C14.873 2.24609 14.6094 1.98242 14.2871 1.98242L12.3926 1.98242C12.0605 1.98242 11.7969 2.24609 11.7969 2.56836C11.7969 2.90039 12.0605 3.16406 12.3926 3.16406Z" fill="white" fill-opacity="0.85"/>
  <path d="M23.0469 3.35938C23.0469 2.69531 22.3828 2.4707 21.9531 2.87109L19.8047 4.79492C19.4922 5.07812 19.4922 5.44922 19.8047 5.72266L21.9531 7.65625C22.4121 8.06641 23.0469 7.79297 23.0469 7.1582ZM25.9863 5.94727C26.3672 5.94727 26.6699 5.64453 26.6699 5.26367C26.6699 4.89258 26.3672 4.58984 25.9863 4.58984L21.7578 4.58984C21.377 4.58984 21.0742 4.89258 21.0742 5.26367C21.0742 5.64453 21.377 5.94727 21.7578 5.94727Z" fill="white" fill-opacity="0.85"/>
  <path d="M3.61328 3.35938L3.61328 7.1582C3.61328 7.79297 4.25781 8.06641 4.7168 7.65625L6.86523 5.72266C7.16797 5.44922 7.17773 5.07812 6.86523 4.79492L4.7168 2.87109C4.27734 2.4707 3.61328 2.69531 3.61328 3.35938ZM0.673828 5.94727L4.91211 5.94727C5.29297 5.94727 5.58594 5.64453 5.58594 5.26367C5.58594 4.89258 5.29297 4.58984 4.91211 4.58984L0.673828 4.58984C0.302734 4.58984 0 4.89258 0 5.26367C0 5.64453 0.302734 5.94727 0.673828 5.94727Z" fill="white" fill-opacity="0.85"/>
 </g>
</svg>
