<?xml version="1.0" encoding="UTF-8"?>
<!--Generator: Apple Native CoreSVG 341-->
<!DOCTYPE svg
PUBLIC "-//W3C//DTD SVG 1.1//EN"
       "http://www.w3.org/Graphics/SVG/1.1/DTD/svg11.dtd">
<svg version="1.1" xmlns="http://www.w3.org/2000/svg" xmlns:xlink="http://www.w3.org/1999/xlink" viewBox="0 0 16.1328 15.7715">
 <g>
  <rect height="15.7715" opacity="0" width="16.1328" x="0" y="0"/>
  <path d="M7.88086 15.7715C12.2363 15.7715 15.7715 12.2363 15.7715 7.89062C15.7715 3.54492 12.2363 0.00976562 7.88086 0.00976562C3.53516 0.00976562 0 3.54492 0 7.89062C0 12.2363 3.53516 15.7715 7.88086 15.7715Z" fill="white" fill-opacity="0.2125"/>
  <path d="M5.67383 7.06751L5.67383 11.4844C5.67383 11.8066 5.87891 12.002 6.23047 12.002L9.54102 12.002C9.8825 12.002 10.0973 11.807 10.0976 11.4852L10.7617 12.1484C10.7773 12.164 10.7933 12.1789 10.8103 12.1922C10.6117 12.6006 10.1891 12.8516 9.64844 12.8516L6.12305 12.8516C5.36133 12.8516 4.83398 12.3535 4.83398 11.6211L4.83398 6.22881ZM4.60938 4.05273L11.7285 11.1816C11.8848 11.3281 11.8848 11.5723 11.7285 11.7285C11.582 11.875 11.3281 11.875 11.1816 11.7285L4.04297 4.59961C3.90625 4.46289 3.90625 4.19922 4.04297 4.05273C4.20898 3.89648 4.45312 3.89648 4.60938 4.05273ZM9.11133 11.4258C9.11133 11.5527 9.01367 11.6504 8.87695 11.6504L6.89453 11.6504C6.76758 11.6504 6.66016 11.5527 6.66016 11.4258C6.66016 11.2695 6.76758 11.1816 6.89453 11.1816L8.87695 11.1816C9.01367 11.1816 9.11133 11.2695 9.11133 11.4258ZM10.9375 4.15039L10.9375 9.53459L10.0977 8.69705L10.0977 4.28711C10.0977 3.96484 9.88281 3.76953 9.54102 3.76953L8.97461 3.76953C8.89648 3.76953 8.85742 3.80859 8.85742 3.88672L8.85742 4.00391C8.85742 4.20898 8.7207 4.3457 8.52539 4.3457L7.24609 4.3457C7.05078 4.3457 6.91406 4.20898 6.91406 4.00391L6.91406 3.88672C6.91406 3.80859 6.88477 3.76953 6.79688 3.76953L6.23047 3.76953C5.87954 3.76953 5.67457 3.96414 5.6739 4.28541L5.0293 3.64258C5.00716 3.62044 4.98436 3.59952 4.96074 3.58031C5.15906 3.17128 5.58191 2.91992 6.12305 2.91992L9.64844 2.91992C10.4102 2.91992 10.9375 3.41797 10.9375 4.15039Z" fill="white" fill-opacity="0.85"/>
 </g>
</svg>
