<?xml version="1.0" encoding="UTF-8"?>
<!--Generator: Apple Native CoreSVG 341-->
<!DOCTYPE svg
PUBLIC "-//W3C//DTD SVG 1.1//EN"
       "http://www.w3.org/Graphics/SVG/1.1/DTD/svg11.dtd">
<svg version="1.1" xmlns="http://www.w3.org/2000/svg" xmlns:xlink="http://www.w3.org/1999/xlink" viewBox="0 0 16.7285 16.3379">
 <g>
  <rect height="16.3379" opacity="0" width="16.7285" x="0" y="0"/>
  <path d="M16.3672 6.13281L16.3672 13.8867C16.3672 15.5273 15.5469 16.3379 13.877 16.3379L6.20117 16.3379C4.54102 16.3379 3.71094 15.5273 3.71094 13.8867L3.71094 12.666L5.11719 12.666L5.11719 13.8086C5.11719 14.5508 5.51758 14.9316 6.2207 14.9316L13.8574 14.9316C14.5605 14.9316 14.9609 14.5508 14.9609 13.8086L14.9609 6.21094C14.9609 5.46875 14.5605 5.08789 13.8574 5.08789L12.6562 5.08789L12.6562 3.68164L13.877 3.68164C15.5469 3.68164 16.3672 4.49219 16.3672 6.13281Z" fill="white" fill-opacity="0.85"/>
  <path d="M10.166 0.00976562L2.49023 0.00976562C0.830078 0.00976562 0 0.820312 0 2.46094L0 10.2148C0 11.8555 0.830078 12.666 2.49023 12.666L10.166 12.666C11.8359 12.666 12.6562 11.8555 12.6562 10.2148L12.6562 2.46094C12.6562 0.820312 11.8359 0.00976562 10.166 0.00976562ZM10.1465 1.41602C10.8496 1.41602 11.25 1.79688 11.25 2.53906L11.25 10.1367C11.25 10.8789 10.8496 11.2598 10.1465 11.2598L2.50977 11.2598C1.80664 11.2598 1.40625 10.8789 1.40625 10.1367L1.40625 2.53906C1.40625 1.79688 1.80664 1.41602 2.50977 1.41602Z" fill="white" fill-opacity="0.85"/>
  <path d="M5.9375 9.95117C7.51953 9.95117 8.34961 9.14062 8.34961 7.62695L8.34961 3.42773C8.34961 2.94922 8.10547 2.64648 7.64648 2.64648C7.19727 2.64648 6.96289 2.95898 6.96289 3.42773L6.96289 7.60742C6.96289 8.33984 6.60156 8.76953 6.01562 8.76953C5.48828 8.76953 5.14648 8.52539 4.94141 8.07617C4.78516 7.75391 4.59961 7.61719 4.30664 7.61719C3.92578 7.61719 3.66211 7.88086 3.66211 8.26172C3.66211 8.39844 3.68164 8.52539 3.73047 8.65234C4.02344 9.45312 4.86328 9.95117 5.9375 9.95117Z" fill="white" fill-opacity="0.85"/>
 </g>
</svg>
