<?xml version="1.0" encoding="UTF-8"?>
<!--Generator: Apple Native CoreSVG 341-->
<!DOCTYPE svg
PUBLIC "-//W3C//DTD SVG 1.1//EN"
       "http://www.w3.org/Graphics/SVG/1.1/DTD/svg11.dtd">
<svg version="1.1" xmlns="http://www.w3.org/2000/svg" xmlns:xlink="http://www.w3.org/1999/xlink" viewBox="0 0 14.5898 14.248">
 <g>
  <rect height="14.248" opacity="0" width="14.5898" x="0" y="0"/>
  <path d="M2.49023 14.248L11.7383 14.248C13.4082 14.248 14.2285 13.4277 14.2285 11.7871L14.2285 2.4707C14.2285 0.830078 13.4082 0.00976562 11.7383 0.00976562L2.49023 0.00976562C0.830078 0.00976562 0 0.830078 0 2.4707L0 11.7871C0 13.4277 0.830078 14.248 2.49023 14.248Z" fill="white" fill-opacity="0.2125"/>
  <path d="M5.04883 10.7812C4.59961 10.7812 4.33594 10.4785 4.33594 9.95117L4.33594 4.11133C4.33594 3.58398 4.59961 3.28125 5.04883 3.28125C5.51758 3.28125 5.78125 3.58398 5.78125 4.11133L5.78125 6.65039L5.83008 6.65039L8.84766 3.56445C9.04297 3.36914 9.20898 3.28125 9.42383 3.28125C9.79492 3.28125 10.0879 3.55469 10.0879 3.90625C10.0879 4.10156 10.0195 4.25781 9.86328 4.42383L7.7832 6.5625L10.0488 9.55078C10.1758 9.73633 10.2539 9.92188 10.2539 10.0977C10.2539 10.498 9.9707 10.7812 9.55078 10.7812C9.30664 10.7812 9.11133 10.6641 8.93555 10.4297L6.72852 7.49023L5.78125 8.47656L5.78125 9.95117C5.78125 10.4785 5.51758 10.7812 5.04883 10.7812Z" fill="white" fill-opacity="0.85"/>
 </g>
</svg>
