<svg version="1.1" xmlns="http://www.w3.org/2000/svg" xmlns:xlink="http://www.w3.org/1999/xlink" viewBox="0 0 15.5469 15.2051">
 <g>
  <rect height="15.2051" opacity="0" width="15.5469" x="0" y="0"/>
  <path d="M0.703125 5C1.16211 5 1.40625 4.74609 1.40625 4.28711L1.40625 2.53906C1.40625 1.80664 1.80664 1.42578 2.50977 1.42578L4.30664 1.42578C4.76562 1.42578 5.01953 1.17188 5.01953 0.722656C5.01953 0.263672 4.76562 0.00976562 4.30664 0.00976562L2.49023 0.00976562C0.830078 0.00976562 0 0.830078 0 2.4707L0 4.28711C0 4.74609 0.253906 5 0.703125 5ZM14.4824 5C14.9414 5 15.1855 4.74609 15.1855 4.28711L15.1855 2.4707C15.1855 0.830078 14.3652 0.00976562 12.6953 0.00976562L10.8789 0.00976562C10.4199 0.00976562 10.166 0.263672 10.166 0.722656C10.166 1.17188 10.4199 1.42578 10.8789 1.42578L12.6758 1.42578C13.3789 1.42578 13.7793 1.80664 13.7793 2.53906L13.7793 4.28711C13.7793 4.74609 14.0332 5 14.4824 5ZM2.49023 15.2051L4.30664 15.2051C4.76562 15.2051 5.01953 14.9512 5.01953 14.502C5.01953 14.043 4.76562 13.7891 4.30664 13.7891L2.50977 13.7891C1.80664 13.7891 1.40625 13.4082 1.40625 12.6758L1.40625 10.9375C1.40625 10.4688 1.15234 10.2148 0.703125 10.2148C0.244141 10.2148 0 10.4688 0 10.9375L0 12.7441C0 14.3848 0.830078 15.2051 2.49023 15.2051ZM10.8789 15.2051L12.6953 15.2051C14.3652 15.2051 15.1855 14.3848 15.1855 12.7441L15.1855 10.9375C15.1855 10.4688 14.9316 10.2148 14.4824 10.2148C14.0234 10.2148 13.7793 10.4688 13.7793 10.9375L13.7793 12.6758C13.7793 13.4082 13.3789 13.7891 12.6758 13.7891L10.8789 13.7891C10.4199 13.7891 10.166 14.043 10.166 14.502C10.166 14.9512 10.4199 15.2051 10.8789 15.2051Z" fill="var(--color-secondary)"/>
  <path d="M7.60742 2.93945C6.2207 2.93945 5.09766 4.05273 5.09766 5.44922C5.09766 6.49414 5.71289 7.41211 6.69922 7.79297L6.69922 11.6211C6.69922 11.7285 6.72852 11.7969 6.79688 11.8848L7.46094 12.5391C7.51953 12.6074 7.66602 12.6367 7.74414 12.5391L8.99414 11.3086C9.08203 11.2207 9.07227 11.0938 8.99414 11.0059L8.24219 10.2539L9.27734 9.21875C9.36523 9.14062 9.36523 9.00391 9.26758 8.92578L8.25195 7.88086C9.44336 7.40234 10.1074 6.51367 10.1074 5.44922C10.1074 4.0625 8.99414 2.93945 7.60742 2.93945ZM7.60742 5.39062C7.19727 5.39062 6.875 5.07812 6.875 4.66797C6.875 4.25781 7.19727 3.93555 7.60742 3.93555C8.00781 3.93555 8.33008 4.25781 8.33008 4.66797C8.33008 5.07812 8.00781 5.39062 7.60742 5.39062Z" fill="var(--color-primary)"/>
 </g>
</svg>
