<?xml version="1.0" encoding="UTF-8"?>
<!--Generator: Apple Native CoreSVG 341-->
<!DOCTYPE svg
PUBLIC "-//W3C//DTD SVG 1.1//EN"
       "http://www.w3.org/Graphics/SVG/1.1/DTD/svg11.dtd">
<svg version="1.1" xmlns="http://www.w3.org/2000/svg" xmlns:xlink="http://www.w3.org/1999/xlink" viewBox="0 0 13.0273 15.498">
 <g>
  <rect height="15.498" opacity="0" width="13.0273" x="0" y="0"/>
  <path d="M6.33789 15.498C6.44531 15.498 6.63086 15.4688 6.8457 15.3613C11.2305 13.1445 12.666 11.9238 12.666 9.0918L12.666 3.31055C12.666 2.5293 12.2949 2.28516 11.6992 2.03125C10.918 1.69922 7.75391 0.566406 6.98242 0.302734C6.77734 0.234375 6.55273 0.195312 6.33789 0.195312C6.11328 0.195312 5.88867 0.244141 5.68359 0.302734C4.90234 0.537109 1.74805 1.70898 0.966797 2.03125C0.371094 2.27539 0 2.5293 0 3.31055L0 9.0918C0 11.9238 1.52344 12.9883 5.83008 15.3613C6.03516 15.4785 6.2207 15.498 6.33789 15.498Z" fill="white" fill-opacity="0.2125"/>
  <path d="M6.33789 2.74414C7.7832 2.74414 8.93555 3.91602 8.93555 5.3418C8.93555 6.45508 8.25195 7.37305 7.00195 7.87109L8.06641 8.95508C8.16406 9.04297 8.16406 9.18945 8.07617 9.25781L7.00195 10.3418L7.7832 11.1133C7.86133 11.2012 7.87109 11.3379 7.7832 11.4258L6.48438 12.7051C6.39648 12.8125 6.25 12.7832 6.18164 12.7051L5.49805 12.0312C5.41992 11.9336 5.39062 11.8652 5.39062 11.7578L5.39062 7.7832C4.375 7.38281 3.74023 6.43555 3.74023 5.3418C3.74023 3.90625 4.89258 2.74414 6.33789 2.74414ZM6.33789 5.29297C6.75781 5.29297 7.08984 4.95117 7.08984 4.53125C7.08984 4.11133 6.75781 3.7793 6.33789 3.7793C5.9082 3.7793 5.57617 4.11133 5.57617 4.53125C5.57617 4.95117 5.9082 5.29297 6.33789 5.29297Z" fill="white" fill-opacity="0.85"/>
 </g>
</svg>
