<?xml version="1.0" encoding="UTF-8"?>
<!--Generator: Apple Native CoreSVG 341-->
<!DOCTYPE svg
PUBLIC "-//W3C//DTD SVG 1.1//EN"
       "http://www.w3.org/Graphics/SVG/1.1/DTD/svg11.dtd">
<svg version="1.1" xmlns="http://www.w3.org/2000/svg" xmlns:xlink="http://www.w3.org/1999/xlink" viewBox="0 0 27.8906 12.7246">
 <g>
  <rect height="12.7246" opacity="0" width="27.8906" x="0" y="0"/>
  <path d="M6.2207 12.3828C7.34375 12.3828 8.24219 11.4941 8.24219 10.3613C8.24219 9.24805 7.33398 8.34961 6.2207 8.34961C5.09766 8.34961 4.19922 9.24805 4.19922 10.3613C4.19922 11.4844 5.09766 12.3828 6.2207 12.3828ZM21.7578 12.3828C22.8711 12.3828 23.7793 11.4844 23.7793 10.3613C23.7793 9.24805 22.8711 8.34961 21.7578 8.34961C20.6445 8.34961 19.7363 9.25781 19.7363 10.3613C19.7363 11.4844 20.6348 12.3828 21.7578 12.3828ZM26.5527 2.35352L26.2012 1.8457C25.2832 0.517578 24.209 0 22.3633 0L16.3477 0C13.1543 0 11.8652 0.3125 9.96094 1.51367L6.86523 3.44727L4.01367 3.79883C1.32812 4.13086 0 5.36133 0 7.5293L0 8.84766C0 10.1465 0.78125 10.9473 2.05078 10.9473L3.30078 10.9473C3.26172 10.7617 3.24219 10.5664 3.24219 10.3613C3.24219 8.7207 4.57031 7.39258 6.2207 7.39258C7.86133 7.39258 9.18945 8.7207 9.18945 10.3613C9.18945 10.5664 9.16992 10.7617 9.13086 10.9473L18.8379 10.9473C18.7988 10.7617 18.7793 10.5664 18.7793 10.3613C18.7793 8.73047 20.1172 7.39258 21.7578 7.39258C23.3984 7.39258 24.7266 8.7207 24.7266 10.3613C24.7266 10.5664 24.707 10.7617 24.6777 10.9473L25.4785 10.9473C26.9043 10.9473 27.5293 10.2246 27.5293 8.57422L27.5293 5.3418C27.5293 4.38477 27.168 3.23242 26.5527 2.35352Z" fill="white" fill-opacity="0.2125"/>
  <path d="M19.6875 4.9707C19.6875 6.28906 18.6133 7.35352 17.2949 7.35352C16.2793 7.35352 15.4199 6.71875 14.9609 5.56641L13.9746 6.55273C13.877 6.64062 13.7598 6.65039 13.6914 6.5625L12.6953 5.56641L11.9824 6.28906C11.8945 6.37695 11.7773 6.37695 11.6895 6.28906L10.5078 5.10742C10.4395 5.01953 10.4492 4.90234 10.5078 4.82422L11.1328 4.19922C11.2207 4.12109 11.2891 4.0918 11.3867 4.0918L15.0586 4.0918C15.4102 3.16406 16.2988 2.56836 17.2949 2.56836C18.6133 2.56836 19.6875 3.63281 19.6875 4.9707ZM18.5449 4.96094C18.5449 4.54102 18.2129 4.21875 17.8125 4.21875C17.3828 4.21875 17.0605 4.55078 17.0605 4.96094C17.0605 5.36133 17.3828 5.69336 17.8125 5.69336C18.2129 5.69336 18.5449 5.36133 18.5449 4.96094Z" fill="white" fill-opacity="0.85"/>
 </g>
</svg>
