<?xml version="1.0" encoding="UTF-8"?>
<!--Generator: Apple Native CoreSVG 341-->
<!DOCTYPE svg
PUBLIC "-//W3C//DTD SVG 1.1//EN"
       "http://www.w3.org/Graphics/SVG/1.1/DTD/svg11.dtd">
<svg version="1.1" xmlns="http://www.w3.org/2000/svg" xmlns:xlink="http://www.w3.org/1999/xlink" viewBox="0 0 28.7402 13.0371">
 <g>
  <rect height="13.0371" opacity="0" width="28.7402" x="0" y="0"/>
  <path d="M8.7207 10.7227C8.7207 12.0215 7.70508 13.0371 6.40625 13.0371C5.10742 13.0371 4.10156 12.0215 4.10156 10.7227C4.10156 9.43359 5.10742 8.42773 6.40625 8.42773C7.70508 8.42773 8.7207 9.43359 8.7207 10.7227ZM24.3066 10.7227C24.3066 12.0215 23.291 13.0371 22.002 13.0371C20.7031 13.0371 19.6875 12.0215 19.6875 10.7227C19.6875 9.43359 20.7031 8.42773 22.002 8.42773C23.291 8.42773 24.3066 9.43359 24.3066 10.7227ZM14.7559 1.66992C13.4473 2.35352 12.4512 3.03711 11.4355 3.73047L19.1504 3.22266C20.4297 3.13477 21.3379 3.25195 22.4219 3.45703L25.9668 4.13086C27.7148 4.46289 28.3789 5.24414 28.3789 7.13867L28.3789 8.4668C28.3789 10.0391 27.6367 10.8887 26.1328 11.0352L25.2539 11.123C25.2637 11.0352 25.2637 11.0059 25.2637 10.9082C25.2637 9.10156 23.8184 7.4707 22.002 7.4707C20.1758 7.4707 18.7305 8.91602 18.7305 10.7227C18.7305 10.957 18.7598 11.2012 18.8086 11.3672L9.61914 11.3672C9.6582 11.2207 9.67773 10.9473 9.67773 10.7227C9.67773 8.91602 8.23242 7.4707 6.40625 7.4707C4.58984 7.4707 3.14453 8.91602 3.14453 10.7227C3.14453 10.9863 3.17383 11.4355 3.22266 11.6699L1.77734 11.5039C0.537109 11.3574 0 10.7617 0 9.52148L0 8.49609C0 6.47461 1.2793 5.2832 3.81836 4.80469L8.95508 3.85742C10.4199 2.61719 12.168 1.48438 13.9941 0.517578C14.9121 0.0390625 15.6055 1.23047 14.7559 1.66992ZM14.1016 6.47461L10.6152 6.47461C10.5273 6.47461 10.459 6.50391 10.3809 6.57227L9.78516 7.16797C9.72656 7.23633 9.7168 7.35352 9.78516 7.43164L10.9082 8.55469C10.9863 8.64258 11.1035 8.64258 11.1816 8.55469L11.8652 7.86133L12.8125 8.81836C12.8711 8.90625 12.9883 8.89648 13.0762 8.79883L14.0137 7.87109C14.4531 8.96484 15.2637 9.57031 16.2305 9.57031C17.4902 9.57031 18.5059 8.55469 18.5059 7.29492C18.5059 6.03516 17.4902 5.01953 16.2305 5.01953C15.2832 5.01953 14.4434 5.58594 14.1016 6.47461ZM17.4219 7.29492C17.4219 7.67578 17.0996 7.98828 16.7188 7.98828C16.3184 7.98828 16.0156 7.67578 16.0156 7.29492C16.0156 6.9043 16.3184 6.5918 16.7188 6.5918C17.0996 6.5918 17.4219 6.89453 17.4219 7.29492Z" fill="white" fill-opacity="0.85"/>
 </g>
</svg>
