<?xml version="1.0" encoding="UTF-8"?>
<!--Generator: Apple Native CoreSVG 341-->
<!DOCTYPE svg
PUBLIC "-//W3C//DTD SVG 1.1//EN"
       "http://www.w3.org/Graphics/SVG/1.1/DTD/svg11.dtd">
<svg version="1.1" xmlns="http://www.w3.org/2000/svg" xmlns:xlink="http://www.w3.org/1999/xlink" viewBox="0 0 19.7656 20.6738">
 <g>
  <rect height="20.6738" opacity="0" width="19.7656" x="0" y="0"/>
  <path d="M2.49023 16.4453L16.9141 16.4453C18.5742 16.4453 19.4043 15.625 19.4043 13.9844L19.4043 6.66992C19.4043 5.03906 18.5742 4.21875 16.9141 4.21875L2.49023 4.21875C0.820312 4.21875 0 5.0293 0 6.66992L0 13.9844C0 15.625 0.820312 16.4453 2.49023 16.4453ZM2.50977 15.0391C1.80664 15.0391 1.40625 14.6582 1.40625 13.916L1.40625 6.74805C1.40625 6.00586 1.80664 5.625 2.50977 5.625L16.8945 5.625C17.5977 5.625 17.998 6.00586 17.998 6.74805L17.998 13.916C17.998 14.6582 17.5977 15.0391 16.8945 15.0391ZM3.18359 8.58398L3.91602 8.58398C4.13086 8.58398 4.25781 8.44727 4.25781 8.23242L4.25781 7.5C4.25781 7.28516 4.13086 7.14844 3.91602 7.14844L3.18359 7.14844C2.96875 7.14844 2.83203 7.28516 2.83203 7.5L2.83203 8.23242C2.83203 8.44727 2.96875 8.58398 3.18359 8.58398ZM5.64453 8.58398L6.37695 8.58398C6.5918 8.58398 6.71875 8.44727 6.71875 8.23242L6.71875 7.5C6.71875 7.28516 6.5918 7.14844 6.37695 7.14844L5.64453 7.14844C5.42969 7.14844 5.29297 7.28516 5.29297 7.5L5.29297 8.23242C5.29297 8.44727 5.42969 8.58398 5.64453 8.58398ZM8.10547 8.58398L8.83789 8.58398C9.05273 8.58398 9.17969 8.44727 9.17969 8.23242L9.17969 7.5C9.17969 7.28516 9.05273 7.14844 8.83789 7.14844L8.10547 7.14844C7.89062 7.14844 7.75391 7.28516 7.75391 7.5L7.75391 8.23242C7.75391 8.44727 7.89062 8.58398 8.10547 8.58398ZM10.5664 8.58398L11.2988 8.58398C11.5137 8.58398 11.6406 8.44727 11.6406 8.23242L11.6406 7.5C11.6406 7.28516 11.5137 7.14844 11.2988 7.14844L10.5664 7.14844C10.3516 7.14844 10.2148 7.28516 10.2148 7.5L10.2148 8.23242C10.2148 8.44727 10.3516 8.58398 10.5664 8.58398ZM13.0273 8.58398L13.7598 8.58398C13.9746 8.58398 14.1016 8.44727 14.1016 8.23242L14.1016 7.5C14.1016 7.28516 13.9746 7.14844 13.7598 7.14844L13.0273 7.14844C12.8125 7.14844 12.6758 7.28516 12.6758 7.5L12.6758 8.23242C12.6758 8.44727 12.8125 8.58398 13.0273 8.58398ZM15.4883 8.58398L16.2207 8.58398C16.4355 8.58398 16.5625 8.44727 16.5625 8.23242L16.5625 7.5C16.5625 7.28516 16.4355 7.14844 16.2207 7.14844L15.4883 7.14844C15.2734 7.14844 15.1367 7.28516 15.1367 7.5L15.1367 8.23242C15.1367 8.44727 15.2734 8.58398 15.4883 8.58398ZM3.18359 11.0449L3.91602 11.0449C4.13086 11.0449 4.25781 10.9082 4.25781 10.6934L4.25781 9.96094C4.25781 9.74609 4.13086 9.60938 3.91602 9.60938L3.18359 9.60938C2.96875 9.60938 2.83203 9.74609 2.83203 9.96094L2.83203 10.6934C2.83203 10.9082 2.96875 11.0449 3.18359 11.0449ZM5.64453 11.0449L6.37695 11.0449C6.5918 11.0449 6.71875 10.9082 6.71875 10.6934L6.71875 9.96094C6.71875 9.74609 6.5918 9.60938 6.37695 9.60938L5.64453 9.60938C5.42969 9.60938 5.29297 9.74609 5.29297 9.96094L5.29297 10.6934C5.29297 10.9082 5.42969 11.0449 5.64453 11.0449ZM8.10547 11.0449L8.83789 11.0449C9.05273 11.0449 9.17969 10.9082 9.17969 10.6934L9.17969 9.96094C9.17969 9.74609 9.05273 9.60938 8.83789 9.60938L8.10547 9.60938C7.89062 9.60938 7.75391 9.74609 7.75391 9.96094L7.75391 10.6934C7.75391 10.9082 7.89062 11.0449 8.10547 11.0449ZM10.5664 11.0449L11.2988 11.0449C11.5137 11.0449 11.6406 10.9082 11.6406 10.6934L11.6406 9.96094C11.6406 9.74609 11.5137 9.60938 11.2988 9.60938L10.5664 9.60938C10.3516 9.60938 10.2148 9.74609 10.2148 9.96094L10.2148 10.6934C10.2148 10.9082 10.3516 11.0449 10.5664 11.0449ZM13.0273 11.0449L13.7598 11.0449C13.9746 11.0449 14.1016 10.9082 14.1016 10.6934L14.1016 9.96094C14.1016 9.74609 13.9746 9.60938 13.7598 9.60938L13.0273 9.60938C12.8125 9.60938 12.6758 9.74609 12.6758 9.96094L12.6758 10.6934C12.6758 10.9082 12.8125 11.0449 13.0273 11.0449ZM15.4883 11.0449L16.2207 11.0449C16.4355 11.0449 16.5625 10.9082 16.5625 10.6934L16.5625 9.96094C16.5625 9.74609 16.4355 9.60938 16.2207 9.60938L15.4883 9.60938C15.2734 9.60938 15.1367 9.74609 15.1367 9.96094L15.1367 10.6934C15.1367 10.9082 15.2734 11.0449 15.4883 11.0449ZM3.18359 13.5059L3.91602 13.5059C4.13086 13.5059 4.25781 13.3691 4.25781 13.1543L4.25781 12.4219C4.25781 12.207 4.13086 12.0703 3.91602 12.0703L3.18359 12.0703C2.96875 12.0703 2.83203 12.207 2.83203 12.4219L2.83203 13.1543C2.83203 13.3691 2.96875 13.5059 3.18359 13.5059ZM5.73242 13.5059L13.6621 13.5059C13.9453 13.5059 14.1016 13.3398 14.1016 13.0664L14.1016 12.5195C14.1016 12.2363 13.9453 12.0703 13.6621 12.0703L5.73242 12.0703C5.45898 12.0703 5.29297 12.2363 5.29297 12.5195L5.29297 13.0664C5.29297 13.3398 5.45898 13.5059 5.73242 13.5059ZM15.4883 13.5059L16.2207 13.5059C16.4355 13.5059 16.5625 13.3691 16.5625 13.1543L16.5625 12.4219C16.5625 12.207 16.4355 12.0703 16.2207 12.0703L15.4883 12.0703C15.2734 12.0703 15.1367 12.207 15.1367 12.4219L15.1367 13.1543C15.1367 13.3691 15.2734 13.5059 15.4883 13.5059Z" fill="white" fill-opacity="0.85"/>
  <path d="M9.70703 20.6738C10.0488 20.6738 10.4883 20.4883 10.8398 20.3613L14.6875 18.9844C15.0293 18.8672 15.166 18.5547 15.166 18.3496C15.166 17.9297 14.8633 17.5684 14.3945 17.5684C14.1699 17.5684 13.8574 17.6953 13.6523 17.7734L9.15039 19.4043L10.2637 19.4043L5.76172 17.7734C5.55664 17.6953 5.25391 17.5684 5.01953 17.5684C4.58008 17.5684 4.24805 17.9102 4.24805 18.3496C4.24805 18.5547 4.375 18.8672 4.72656 18.9844L8.57422 20.3613C8.93555 20.498 9.36523 20.6738 9.70703 20.6738Z" fill="white" fill-opacity="0.85"/>
 </g>
</svg>
