<?xml version="1.0" encoding="UTF-8"?>
<!--Generator: Apple Native CoreSVG 341-->
<!DOCTYPE svg
PUBLIC "-//W3C//DTD SVG 1.1//EN"
       "http://www.w3.org/Graphics/SVG/1.1/DTD/svg11.dtd">
<svg version="1.1" xmlns="http://www.w3.org/2000/svg" xmlns:xlink="http://www.w3.org/1999/xlink" viewBox="0 0 16.1328 15.7715">
 <g>
  <rect height="15.7715" opacity="0" width="16.1328" x="0" y="0"/>
  <path d="M7.88086 15.7617C12.2363 15.7617 15.7715 12.2266 15.7715 7.88086C15.7715 3.53516 12.2363 0 7.88086 0C3.53516 0 0 3.53516 0 7.88086C0 12.2266 3.53516 15.7617 7.88086 15.7617Z" fill="white" fill-opacity="0.2125"/>
  <path d="M6.06445 11.582C5.73242 11.582 5.54688 11.3672 5.54688 11.0547L5.54688 8.10547L5.00977 8.10547C4.84375 8.10547 4.7168 7.97852 4.7168 7.8125C4.7168 7.63672 4.84375 7.51953 5.00977 7.51953L5.54688 7.51953L5.54688 4.66797C5.54688 4.3457 5.73242 4.15039 6.06445 4.15039C6.37695 4.15039 6.57227 4.3457 6.57227 4.66797L6.57227 7.51953L7.07031 7.51953L9.48242 4.4043C9.58008 4.27734 9.74609 4.15039 9.91211 4.15039C10.166 4.15039 10.3906 4.3457 10.3906 4.59961C10.3906 4.7168 10.3418 4.83398 10.2539 4.93164L8.20312 7.51953L10.2832 7.51953C10.459 7.51953 10.5859 7.63672 10.5859 7.8125C10.5859 7.96875 10.459 8.10547 10.2832 8.10547L8.18359 8.10547L10.2539 10.7617C10.3418 10.8789 10.4004 10.9863 10.4004 11.123C10.4004 11.3184 10.2539 11.582 9.91211 11.582C9.70703 11.582 9.58008 11.4746 9.46289 11.3184L7.06055 8.10547L6.57227 8.10547L6.57227 11.0547C6.57227 11.3672 6.37695 11.582 6.06445 11.582Z" fill="white" fill-opacity="0.85"/>
 </g>
</svg>
