<?xml version="1.0" encoding="UTF-8"?>
<!--Generator: Apple Native CoreSVG 341-->
<!DOCTYPE svg
PUBLIC "-//W3C//DTD SVG 1.1//EN"
       "http://www.w3.org/Graphics/SVG/1.1/DTD/svg11.dtd">
<svg version="1.1" xmlns="http://www.w3.org/2000/svg" xmlns:xlink="http://www.w3.org/1999/xlink" viewBox="0 0 17.6172 17.2754">
 <g>
  <rect height="17.2754" opacity="0" width="17.6172" x="0" y="0"/>
  <path d="M8.63281 17.2656C13.3594 17.2656 17.2559 13.3691 17.2559 8.63281C17.2559 3.89648 13.3594 0 8.63281 0C3.89648 0 0 3.89648 0 8.63281C0 13.3691 3.89648 17.2656 8.63281 17.2656ZM8.63281 14.3555C5.46875 14.3555 2.91016 11.7969 2.91016 8.63281C2.91016 5.46875 5.46875 2.91016 8.63281 2.91016C11.7871 2.91016 14.3457 5.46875 14.3457 8.63281C14.3457 11.7969 11.7871 14.3555 8.63281 14.3555Z" fill="white" fill-opacity="0.425"/>
  <path d="M6.875 12.1973C7.17773 12.1973 7.36328 11.9922 7.36328 11.6797L7.36328 8.84766L7.83203 8.84766L10.1465 11.9336C10.2637 12.0996 10.3906 12.1973 10.5859 12.1973C10.918 12.1973 11.0449 11.9434 11.0449 11.7578C11.0449 11.6211 10.9961 11.5234 10.918 11.416L8.91602 8.84766L10.9473 8.84766C11.1035 8.84766 11.2305 8.7207 11.2305 8.56445C11.2305 8.39844 11.1035 8.28125 10.9473 8.28125L8.93555 8.28125L10.918 5.80078C10.9863 5.69336 11.0352 5.57617 11.0352 5.47852C11.0352 5.22461 10.8301 5.03906 10.5859 5.03906C10.4199 5.03906 10.2637 5.16602 10.166 5.2832L7.8418 8.28125L7.36328 8.28125L7.36328 5.53711C7.36328 5.22461 7.17773 5.03906 6.875 5.03906C6.5625 5.03906 6.36719 5.22461 6.36719 5.53711L6.36719 8.28125L5.85938 8.28125C5.69336 8.28125 5.58594 8.39844 5.58594 8.56445C5.58594 8.73047 5.69336 8.84766 5.85938 8.84766L6.36719 8.84766L6.36719 11.6797C6.36719 11.9922 6.5625 12.1973 6.875 12.1973Z" fill="white" fill-opacity="0.85"/>
 </g>
</svg>
