<?xml version="1.0" encoding="UTF-8"?>
<!--Generator: Apple Native CoreSVG 341-->
<!DOCTYPE svg
PUBLIC "-//W3C//DTD SVG 1.1//EN"
       "http://www.w3.org/Graphics/SVG/1.1/DTD/svg11.dtd">
<svg version="1.1" xmlns="http://www.w3.org/2000/svg" xmlns:xlink="http://www.w3.org/1999/xlink" viewBox="0 0 16.1328 15.7715">
 <g>
  <rect height="15.7715" opacity="0" width="16.1328" x="0" y="0"/>
  <path d="M7.88086 15.7617C12.2363 15.7617 15.7715 12.2363 15.7715 7.88086C15.7715 3.52539 12.2363 0 7.88086 0C3.53516 0 0 3.52539 0 7.88086C0 12.2363 3.53516 15.7617 7.88086 15.7617ZM7.88086 14.2773C4.3457 14.2773 1.49414 11.416 1.49414 7.88086C1.49414 4.3457 4.3457 1.48438 7.88086 1.48438C11.416 1.48438 14.2773 4.3457 14.2773 7.88086C14.2773 11.416 11.416 14.2773 7.88086 14.2773Z" fill="white" fill-opacity="0.425"/>
  <path d="M3.51562 10.3711C3.82812 10.3711 4.02344 10.1758 4.02344 9.86328L4.02344 8.89648L4.30664 8.34961L5.17578 10.0684C5.25391 10.2441 5.44922 10.3613 5.6543 10.3613C5.86914 10.3613 6.09375 10.2051 6.09375 9.91211C6.09375 9.78516 6.06445 9.6582 6.01562 9.57031L5.03906 7.68555L5.88867 6.21094C5.95703 6.07422 5.98633 5.99609 5.98633 5.83984C5.98633 5.64453 5.83984 5.41016 5.55664 5.41016C5.30273 5.41016 5.20508 5.51758 5.10742 5.70312L4.05273 7.62695L4.01367 7.62695L4.01367 5.9082C4.01367 5.58594 3.83789 5.40039 3.51562 5.40039C3.20312 5.40039 3.03711 5.58594 3.03711 5.9082L3.03711 9.86328C3.03711 10.2441 3.28125 10.3711 3.51562 10.3711ZM6.91406 10.3613C7.2168 10.3613 7.40234 10.1562 7.40234 9.85352L7.40234 8.75977L7.88086 8.75977C8.79883 8.75977 9.25781 7.95898 9.25781 7.11914C9.25781 6.23047 8.80859 5.47852 7.93945 5.47852L6.91406 5.47852C6.60156 5.47852 6.42578 5.67383 6.42578 5.98633L6.42578 9.85352C6.42578 10.1562 6.61133 10.3613 6.91406 10.3613ZM7.40234 7.99805L7.40234 6.25L7.68555 6.25C8.14453 6.25 8.29102 6.66016 8.29102 7.11914C8.29102 7.59766 8.13477 7.99805 7.67578 7.99805ZM10.1367 10.3711C10.4492 10.3711 10.6152 10.1758 10.6152 9.84375L10.6152 8.26172L11.6895 8.26172L11.6895 9.84375C11.6895 10.1758 11.8555 10.3711 12.1777 10.3711C12.5098 10.3711 12.666 10.1758 12.666 9.84375L12.666 5.91797C12.666 5.58594 12.5098 5.40039 12.1777 5.40039C11.8652 5.40039 11.6895 5.58594 11.6895 5.91797L11.6895 7.44141L10.6152 7.44141L10.6152 5.91797C10.6152 5.58594 10.4395 5.40039 10.1367 5.40039C9.80469 5.40039 9.63867 5.58594 9.63867 5.91797L9.63867 9.84375C9.63867 10.1758 9.80469 10.3711 10.1367 10.3711Z" fill="white" fill-opacity="0.85"/>
 </g>
</svg>
