<svg version="1.1" xmlns="http://www.w3.org/2000/svg" xmlns:xlink="http://www.w3.org/1999/xlink" viewBox="0 0 18.4082 23.4082">
 <g>
  <rect height="23.4082" opacity="0" width="18.4082" x="0" y="0"/>
  <path d="M18.0469 11.6992C18.0469 16.6797 14.0039 20.7324 9.02344 20.7324C4.04297 20.7324 0 16.6797 0 11.6992C0 7.80915 2.46646 4.48506 5.92437 3.22587C5.7694 3.73118 5.84614 4.25096 6.10315 4.66083C3.34054 5.80058 1.40625 8.51645 1.40625 11.6992C1.40625 15.918 4.80469 19.3164 9.02344 19.3164C13.2422 19.3164 16.6406 15.918 16.6406 11.6992C16.6406 8.50977 14.6982 5.78918 11.926 4.65436C12.1813 4.24521 12.2593 3.72644 12.1035 3.2189C15.5714 4.47288 18.0469 7.80202 18.0469 11.6992Z" fill="var(--color-secondary)"/>
  <path d="M7.60742 4.31641L10.4297 4.31641C11.0156 4.31641 11.2207 3.74023 10.8691 3.27148L9.46289 1.36719C9.22852 1.05469 8.80859 1.06445 8.58398 1.36719L7.14844 3.28125C6.81641 3.73047 7.00195 4.31641 7.60742 4.31641Z" fill="var(--color-primary)"/>
  <path d="M9.02344 17.8809C12.4316 17.8809 15.1953 15.1074 15.1953 11.6992C15.1953 8.28125 12.4316 5.52734 9.02344 5.52734C5.61523 5.52734 2.85156 8.28125 2.85156 11.6992C2.85156 15.1074 5.61523 17.8809 9.02344 17.8809ZM9.02344 16.4746C6.37695 16.4746 4.25781 14.3457 4.25781 11.6992C4.25781 9.05273 6.37695 6.93359 9.02344 6.93359C11.6699 6.93359 13.7891 9.05273 13.7891 11.6992C13.7891 14.3457 11.6699 16.4746 9.02344 16.4746ZM7.93945 14.6387L10.6445 14.6387C10.957 14.6387 11.2207 14.4238 11.2207 14.0918C11.2207 13.7598 10.957 13.5352 10.6445 13.5352L8.61328 13.5352L8.61328 9.38477C8.61328 8.93555 8.35938 8.64258 7.93945 8.64258C7.5293 8.64258 7.30469 8.94531 7.30469 9.38477L7.30469 13.916C7.30469 14.3457 7.5293 14.6387 7.93945 14.6387Z" fill="var(--color-primary)"/>
 </g>
</svg>
