<?xml version="1.0" encoding="UTF-8"?>
<!--Generator: Apple Native CoreSVG 341-->
<!DOCTYPE svg
PUBLIC "-//W3C//DTD SVG 1.1//EN"
       "http://www.w3.org/Graphics/SVG/1.1/DTD/svg11.dtd">
<svg version="1.1" xmlns="http://www.w3.org/2000/svg" xmlns:xlink="http://www.w3.org/1999/xlink" viewBox="0 0 18.2715 13.5645">
 <g>
  <rect height="13.5645" opacity="0" width="18.2715" x="0" y="0"/>
  <path d="M6.61133 0C2.08008 0 0 2.07031 0 6.36719L0 11.1426C0 12.7441 0.820312 13.5547 2.45117 13.5547L15.459 13.5547C17.0801 13.5547 17.9102 12.7441 17.9102 11.1426L17.9102 6.36719C17.9102 2.07031 15.8301 0 11.2988 0Z" fill="white" fill-opacity="0.2125"/>
  <path d="M5.83008 10C5.41992 10 5.18555 9.74609 5.18555 9.32617L5.18555 4.12109C5.18555 3.76953 5.47852 3.47656 5.83984 3.47656C6.19141 3.47656 6.49414 3.76953 6.49414 4.12109L6.49414 8.92578L8.08594 8.92578C8.37891 8.92578 8.62305 9.16992 8.62305 9.46289C8.62305 9.75586 8.37891 10 8.08594 10ZM9.84375 9.99023C9.43359 9.99023 9.23828 9.76562 9.23828 9.47266C9.23828 9.18945 9.41406 8.96484 9.58984 8.75977L10.8789 7.14844C11.2793 6.64062 11.7676 5.9668 11.7676 5.33203C11.7676 4.77539 11.5137 4.42383 11.0938 4.42383C10.6836 4.42383 10.5176 4.7168 10.3516 5.19531C10.2539 5.48828 10.0781 5.625 9.78516 5.625C9.44336 5.625 9.24805 5.39062 9.24805 5.06836C9.24805 4.23828 10.0684 3.39844 11.1035 3.39844C12.2168 3.39844 12.9883 4.16992 12.9883 5.26367C12.9883 5.97656 12.7246 6.5625 11.8848 7.57812L10.8203 8.87695L10.8203 8.95508L12.6074 8.95508C12.9102 8.95508 13.1055 9.14062 13.1055 9.47266C13.1055 9.78516 12.9199 9.99023 12.6074 9.99023Z" fill="white" fill-opacity="0.85"/>
 </g>
</svg>
