<?xml version="1.0" encoding="UTF-8"?>
<!--Generator: Apple Native CoreSVG 341-->
<!DOCTYPE svg
PUBLIC "-//W3C//DTD SVG 1.1//EN"
       "http://www.w3.org/Graphics/SVG/1.1/DTD/svg11.dtd">
<svg version="1.1" xmlns="http://www.w3.org/2000/svg" xmlns:xlink="http://www.w3.org/1999/xlink" viewBox="0 0 20.4199 13.9822">
 <g>
  <rect height="13.9822" opacity="0" width="20.4199" x="0" y="0"/>
  <path d="M20.0586 7.85535L20.0586 3.03113C20.0586 1.61511 19.0723 0.63855 17.6562 0.63855L2.38281 0.648316C0.976562 0.648316 0 1.63464 0 3.06043L0 7.85535C0 9.8866 0.888672 11.1561 2.96875 11.7616L9.61914 13.6952C11.4258 14.2225 12.6074 14.0077 14.2188 13.1776L18.5156 10.9608C19.7656 10.3261 20.0586 9.52527 20.0586 7.85535ZM18.6523 7.85535C18.6523 8.93933 18.3984 9.46668 17.6172 9.8573L13.4668 11.9764C12.168 12.6405 11.1914 12.7675 9.58984 12.2889L3.37891 10.453C2.00195 10.0428 1.40625 9.203 1.40625 7.85535L1.40625 3.08972C1.40625 2.48425 1.81641 2.05457 2.40234 2.05457L17.6367 2.0448C18.2324 2.0448 18.6523 2.46472 18.6523 3.06043Z" fill="white" fill-opacity="0.85"/>
  <path d="M6.71875 9.64246L8.88672 9.64246C9.16992 9.64246 9.41406 9.40808 9.41406 9.12488C9.41406 8.84168 9.16992 8.59753 8.88672 8.59753L7.35352 8.59753L7.35352 3.97839C7.35352 3.6366 7.07031 3.35339 6.72852 3.35339C6.39648 3.35339 6.11328 3.6366 6.11328 3.97839L6.11328 8.98816C6.11328 9.39832 6.32812 9.64246 6.71875 9.64246ZM11.9629 9.77918C13.0957 9.77918 13.9746 9.09558 13.9746 7.93347C13.9746 6.95691 13.3691 6.52722 12.7539 6.45886L12.7539 6.42957C13.4473 6.24402 13.7891 5.63855 13.7891 4.98425C13.7891 3.90027 12.959 3.31433 11.9336 3.31433C11.1426 3.31433 10.4102 3.75378 10.1855 4.43738C10.1465 4.5741 10.127 4.71082 10.127 4.8573C10.127 5.13074 10.3125 5.35535 10.6543 5.35535C10.9375 5.35535 11.123 5.24793 11.2012 4.96472C11.3281 4.53503 11.5527 4.30066 11.9336 4.30066C12.4023 4.30066 12.6172 4.66199 12.6172 5.13074C12.6172 5.65808 12.334 6.02918 11.7871 6.02918L11.6406 6.02918C11.3574 6.02918 11.1719 6.20496 11.1719 6.48816C11.1719 6.77136 11.3574 6.92761 11.6406 6.92761L11.7969 6.92761C12.4219 6.92761 12.7441 7.26941 12.7441 7.88464C12.7441 8.38269 12.4902 8.78308 11.9629 8.78308C11.4453 8.78308 11.2305 8.45105 11.1328 8.13855C11.0449 7.87488 10.8594 7.72839 10.5957 7.72839C10.2539 7.72839 10.0293 7.93347 10.0293 8.27527C10.0293 8.41199 10.0488 8.54871 10.0879 8.66589C10.3125 9.38855 11.1328 9.77918 11.9629 9.77918Z" fill="white" fill-opacity="0.85"/>
 </g>
</svg>
