<svg version="1.1" xmlns="http://www.w3.org/2000/svg" xmlns:xlink="http://www.w3.org/1999/xlink" viewBox="0 0 19.8438 12.7832">
 <g>
  <rect height="12.7832" opacity="0" width="19.8438" x="0" y="0"/>
  <path d="M2.49023 12.7832L16.9922 12.7832C18.6621 12.7832 19.4824 11.9629 19.4824 10.3223L19.4824 2.4707C19.4824 0.830078 18.6621 0.00976562 16.9922 0.00976562L2.49023 0.00976562C0.830078 0.00976562 0 0.830078 0 2.4707L0 10.3223C0 11.9629 0.830078 12.7832 2.49023 12.7832Z" fill="var(--color-tertiary)"/>
  <path d="M2.4707 8.90625C2.12891 8.90625 1.96289 8.69141 1.96289 8.39844C1.96289 8.30078 1.98242 8.18359 2.00195 8.10547L2.83203 4.51172C2.92969 4.0918 3.19336 3.88672 3.56445 3.88672C4.01367 3.88672 4.26758 4.12109 4.3457 4.50195L5.17578 8.10547C5.19531 8.17383 5.20508 8.31055 5.20508 8.39844C5.20508 8.69141 5.00977 8.90625 4.7168 8.90625C4.41406 8.90625 4.23828 8.75 4.17969 8.44727L4.05273 7.79297L3.125 7.79297L2.99805 8.4375C2.95898 8.71094 2.76367 8.90625 2.4707 8.90625ZM3.24219 6.97266L3.93555 6.97266L3.58398 5.20508ZM6.13281 8.90625C5.81055 8.90625 5.61523 8.7207 5.61523 8.38867L5.61523 4.49219C5.61523 4.19922 5.79102 3.96484 6.12305 3.96484L7.17773 3.96484C8.07617 3.96484 8.51562 4.81445 8.51562 5.6543C8.51562 6.62109 7.97852 7.34375 7.09961 7.34375L6.64062 7.34375L6.64062 8.38867C6.64062 8.7207 6.44531 8.90625 6.13281 8.90625ZM6.64062 6.54297L6.9043 6.54297C7.34375 6.54297 7.49023 6.12305 7.49023 5.6543C7.49023 5.19531 7.36328 4.76562 6.9043 4.76562L6.64062 4.76562ZM10.3711 8.89648C10.0586 8.89648 9.84375 8.65234 9.84375 8.32031L9.84375 5.11719L9.56055 5.35156C9.50195 5.40039 9.38477 5.43945 9.29688 5.43945C9.0625 5.43945 8.88672 5.26367 8.88672 5.0293C8.88672 4.87305 8.97461 4.73633 9.13086 4.59961L9.61914 4.19922C9.88281 3.98438 10.0781 3.88672 10.3125 3.88672C10.6641 3.88672 10.9082 4.14062 10.9082 4.47266L10.9082 8.32031C10.9082 8.65234 10.6934 8.89648 10.3711 8.89648ZM11.9727 8.83789C11.6992 8.83789 11.4844 8.66211 11.4844 8.37891C11.4844 8.24219 11.5137 8.11523 11.6895 7.87109L12.5293 6.66992C12.9004 6.16211 13.1348 5.74219 13.1348 5.3125C13.1348 5 13.0469 4.73633 12.7832 4.73633C12.6074 4.73633 12.4902 4.88281 12.4219 5.17578C12.3438 5.48828 12.1973 5.63477 11.9336 5.63477C11.6602 5.63477 11.4746 5.41992 11.4746 5.15625C11.4746 4.58008 12.041 3.83789 12.793 3.83789C13.6523 3.83789 14.1504 4.44336 14.1504 5.29297C14.1504 5.9668 13.7793 6.52344 13.3887 7.04102L12.7441 7.92969L13.7695 7.92969C13.9941 7.92969 14.209 8.13477 14.209 8.38867C14.209 8.63281 13.9941 8.83789 13.7695 8.83789ZM15.9668 8.93555C14.9707 8.93555 14.541 8.17383 14.541 7.68555C14.541 7.48047 14.6875 7.2168 15.0293 7.2168C15.3125 7.2168 15.4395 7.41211 15.498 7.57812C15.5957 7.90039 15.752 8.02734 15.9668 8.02734C16.2598 8.02734 16.3867 7.82227 16.3867 7.42188C16.3867 6.97266 16.25 6.76758 15.8301 6.76758L15.7422 6.76758C15.4883 6.76758 15.3125 6.58203 15.3125 6.34766C15.3125 6.10352 15.4883 5.92773 15.7422 5.92773L15.8301 5.92773C16.1719 5.92773 16.3184 5.625 16.3184 5.30273C16.3184 4.96094 16.1719 4.75586 15.9473 4.75586C15.7617 4.75586 15.6543 4.88281 15.5469 5.19531C15.4688 5.44922 15.3027 5.56641 15.0586 5.56641C14.7949 5.56641 14.5996 5.37109 14.5996 5.10742C14.5996 4.36523 15.2051 3.85742 15.9473 3.85742C16.8848 3.85742 17.3145 4.55078 17.3145 5.21484C17.3145 5.6543 17.0898 6.09375 16.7969 6.29883C17.207 6.45508 17.4316 6.91406 17.4316 7.45117C17.4316 8.32031 16.8359 8.93555 15.9668 8.93555Z" fill="var(--color-primary)"/>
 </g>
</svg>
