<svg version="1.1" xmlns="http://www.w3.org/2000/svg" xmlns:xlink="http://www.w3.org/1999/xlink" viewBox="0 0 11.8555 17.0996">
 <g>
  <rect height="17.0996" opacity="0" width="11.8555" x="0" y="0"/>
  <path d="M2.45117 0C0.810547 0 0 0.830078 0 2.49023L0 14.5996C0 16.2695 0.810547 17.0898 2.45117 17.0898L9.04297 17.0898C10.6836 17.0898 11.4941 16.2695 11.4941 14.5996L11.4941 2.49023C11.4941 0.830078 10.6836 0 9.04297 0ZM2.5293 1.40625L8.96484 1.40625C9.70703 1.40625 10.0879 1.80664 10.0879 2.50977L10.0879 14.5801C10.0879 15.2832 9.70703 15.6836 8.96484 15.6836L2.5293 15.6836C1.78711 15.6836 1.40625 15.2832 1.40625 14.5801L1.40625 2.50977C1.40625 1.80664 1.78711 1.40625 2.5293 1.40625Z" fill="var(--color-secondary)"/>
  <path d="M3.14453 9.79492C2.69531 9.79492 2.5293 9.95117 2.5293 10.3906L2.5293 13.9453C2.5293 14.3848 2.69531 14.541 3.14453 14.541L8.31055 14.541C8.75977 14.541 8.92578 14.3848 8.92578 13.9453L8.92578 10.3906C8.92578 9.95117 8.75977 9.79492 8.31055 9.79492Z" fill="var(--color-primary)"/>
 </g>
</svg>
