<svg version="1.1" xmlns="http://www.w3.org/2000/svg" xmlns:xlink="http://www.w3.org/1999/xlink" viewBox="0 0 19.9048 16.2988">
 <g>
  <rect height="16.2988" opacity="0" width="19.9048" x="0" y="0"/>
  <path d="M7.01295 14.707C6.71999 15 6.33913 14.9902 6.04616 14.707C5.76295 14.4238 5.75319 14.0332 6.04616 13.7402L10.6137 9.19218C10.8114 9.21174 11.0151 9.21875 11.2219 9.21875C11.7062 9.21875 12.1733 9.18033 12.6186 9.10134ZM8.93274 8.90053L5.0696 12.7637C4.77663 13.0566 4.39577 13.0469 4.1028 12.7637C3.8196 12.4805 3.80983 12.0898 4.1028 11.7969L7.57274 8.34172C7.99277 8.57491 8.44798 8.76172 8.93274 8.90053ZM6.40905 7.5375L3.12624 10.8203C2.83327 11.1133 2.45241 11.1035 2.15944 10.8203C1.87624 10.5371 1.86647 10.1465 2.15944 9.85352L5.48287 6.54425C5.75109 6.91382 6.06118 7.24605 6.40905 7.5375ZM4.75139 5.30844L1.18288 8.87695C0.889908 9.16992 0.509049 9.16016 0.21608 8.87695C-0.0671232 8.59375-0.0768888 8.20312 0.21608 7.91016L4.27177 3.87175C4.37811 4.38472 4.53949 4.86503 4.75139 5.30844Z" fill="var(--color-secondary)"/>
  <path d="M18.8684 2.64648C19.2298 2.64648 19.5423 2.34375 19.5423 1.97266C19.5423 1.61133 19.2395 1.28906 18.8684 1.28906L3.56569 1.28906C3.1946 1.28906 2.89186 1.61133 2.89186 1.97266C2.89186 2.34375 3.20436 2.64648 3.56569 2.64648ZM11.2219 8.07617C14.845 8.07617 17.2473 5.625 17.2278 1.98242L15.8704 1.98242C15.8997 4.81445 14.0344 6.71875 11.2219 6.71875C8.39967 6.71875 6.5442 4.81445 6.5735 1.98242L5.21608 1.98242C5.18678 5.625 7.58913 8.07617 11.2219 8.07617Z" fill="var(--color-primary)"/>
 </g>
</svg>
