<?xml version="1.0" encoding="UTF-8"?>
<!--Generator: Apple Native CoreSVG 341-->
<!DOCTYPE svg
PUBLIC "-//W3C//DTD SVG 1.1//EN"
       "http://www.w3.org/Graphics/SVG/1.1/DTD/svg11.dtd">
<svg version="1.1" xmlns="http://www.w3.org/2000/svg" xmlns:xlink="http://www.w3.org/1999/xlink" viewBox="0 0 18.9648 27.0996">
 <g>
  <rect height="27.0996" opacity="0" width="18.9648" x="0" y="0"/>
  <path d="M2.1582 10.0586C2.56836 10.0586 2.92969 9.7168 2.92969 9.30664C2.92969 8.88672 2.56836 8.54492 2.1582 8.54492L0.751953 8.54492C0.341797 8.54492 0 8.89648 0 9.30664C0 9.7168 0.341797 10.0586 0.751953 10.0586ZM3.7207 4.78516C4.01367 5.07812 4.49219 5.08789 4.78516 4.78516C5.07812 4.48242 5.06836 4.01367 4.78516 3.73047L3.78906 2.72461C3.50586 2.43164 3.01758 2.43164 2.72461 2.72461C2.43164 3.02734 2.43164 3.49609 2.72461 3.78906ZM8.55469 2.1582C8.55469 2.57812 8.88672 2.91992 9.30664 2.91992C9.72656 2.91992 10.0684 2.57812 10.0684 2.1582L10.0684 0.751953C10.0684 0.341797 9.7168 0 9.30664 0C8.88672 0 8.55469 0.341797 8.55469 0.751953ZM13.8281 3.73047C13.5352 4.01367 13.5254 4.48242 13.8281 4.78516C14.1309 5.08789 14.5996 5.07812 14.8828 4.78516L15.8887 3.78906C16.1816 3.49609 16.1816 3.02734 15.8887 2.72461C15.5859 2.43164 15.1172 2.43164 14.8242 2.72461ZM17.8516 10.0586C18.2617 10.0586 18.6035 9.7168 18.6035 9.30664C18.6035 8.89648 18.2617 8.54492 17.8516 8.54492L16.4453 8.54492C16.0254 8.54492 15.6836 8.88672 15.6836 9.30664C15.6836 9.7168 16.0254 10.0586 16.4453 10.0586Z" fill="white" fill-opacity="0.85"/>
  <path d="M9.30664 4.35547C6.54297 4.35547 4.38477 6.32812 4.38477 8.90625C4.38477 11.7773 6.06445 12.4316 6.5332 17.168C6.5625 17.4609 6.71875 17.6367 7.01172 17.6367L11.6016 17.6367C11.8848 17.6367 12.041 17.4609 12.0703 17.168C12.5391 12.4316 14.2383 11.7773 14.2383 8.90625C14.2383 6.32812 12.0605 4.35547 9.30664 4.35547ZM9.30664 5.63477C11.2793 5.63477 12.959 6.98242 12.959 8.90625C12.959 10.957 11.6211 11.3574 10.9082 16.3574L7.69531 16.3574C6.99219 11.3574 5.66406 10.957 5.66406 8.90625C5.66406 6.98242 7.33398 5.63477 9.30664 5.63477ZM6.97266 19.2871L11.6406 19.2871C11.9043 19.2871 12.1191 19.082 12.1191 18.8184C12.1191 18.5449 11.9043 18.3496 11.6406 18.3496L6.97266 18.3496C6.69922 18.3496 6.50391 18.5449 6.50391 18.8184C6.50391 19.082 6.69922 19.2871 6.97266 19.2871ZM9.30664 21.4355C10.4395 21.4355 11.4355 20.8496 11.4941 19.9902L7.11914 19.9902C7.16797 20.8496 8.1543 21.4355 9.30664 21.4355Z" fill="white" fill-opacity="0.85"/>
 </g>
</svg>
