<?xml version="1.0" encoding="UTF-8"?>
<!--Generator: Apple Native CoreSVG 341-->
<!DOCTYPE svg
PUBLIC "-//W3C//DTD SVG 1.1//EN"
       "http://www.w3.org/Graphics/SVG/1.1/DTD/svg11.dtd">
<svg version="1.1" xmlns="http://www.w3.org/2000/svg" xmlns:xlink="http://www.w3.org/1999/xlink" viewBox="0 0 11.8555 17.0996">
 <g>
  <rect height="17.0996" opacity="0" width="11.8555" x="0" y="0"/>
  <path d="M2.45117 0C0.810547 0 0 0.830078 0 2.49023L0 14.5996C0 16.2695 0.810547 17.0898 2.45117 17.0898L9.04297 17.0898C10.6836 17.0898 11.4941 16.2695 11.4941 14.5996L11.4941 2.49023C11.4941 0.830078 10.6836 0 9.04297 0Z" fill="white" fill-opacity="0.2125"/>
  <path d="M2.86133 9.60938L8.59375 9.60938C9.08203 9.60938 9.25781 9.77539 9.25781 10.2539L9.25781 14.1797C9.25781 14.6582 9.08203 14.8242 8.59375 14.8242L2.86133 14.8242C2.37305 14.8242 2.19727 14.6582 2.19727 14.1797L2.19727 10.2539C2.19727 9.77539 2.37305 9.60938 2.86133 9.60938Z" fill="white" fill-opacity="0.85"/>
 </g>
</svg>
