<?xml version="1.0" encoding="UTF-8"?>
<!--Generator: Apple Native CoreSVG 341-->
<!DOCTYPE svg
PUBLIC "-//W3C//DTD SVG 1.1//EN"
       "http://www.w3.org/Graphics/SVG/1.1/DTD/svg11.dtd">
<svg version="1.1" xmlns="http://www.w3.org/2000/svg" xmlns:xlink="http://www.w3.org/1999/xlink" viewBox="0 0 16.1328 15.7715">
 <g>
  <rect height="15.7715" opacity="0" width="16.1328" x="0" y="0"/>
  <path d="M15.7715 7.88086C15.7715 12.2266 12.2363 15.7617 7.88086 15.7617C3.53516 15.7617 0 12.2266 0 7.88086C0 3.53516 3.53516 0 7.88086 0C12.2363 0 15.7715 3.53516 15.7715 7.88086ZM3.37891 10.4883C3.37891 10.8789 3.69141 11.1914 4.08203 11.1914C4.47266 11.1914 4.78516 10.8789 4.78516 10.4883C4.78516 10.1074 4.46289 9.77539 4.08203 9.77539C3.69141 9.77539 3.37891 10.0977 3.37891 10.4883ZM6.00586 9.94141C5.71289 9.94141 5.46875 10.1953 5.46875 10.4883C5.46875 10.7812 5.69336 11.0254 6.00586 11.0254L11.8066 11.0254C12.1191 11.0254 12.3535 10.7812 12.3535 10.4883C12.3535 10.1855 12.1191 9.94141 11.8066 9.94141ZM3.37891 7.89062C3.37891 8.29102 3.69141 8.59375 4.08203 8.59375C4.46289 8.59375 4.78516 8.28125 4.78516 7.89062C4.78516 7.5 4.46289 7.1875 4.08203 7.1875C3.69141 7.1875 3.37891 7.49023 3.37891 7.89062ZM6.00586 7.35352C5.71289 7.35352 5.46875 7.59766 5.46875 7.89062C5.46875 8.18359 5.71289 8.42773 6.00586 8.42773L11.8066 8.42773C12.1191 8.42773 12.3535 8.19336 12.3535 7.89062C12.3535 7.58789 12.1191 7.35352 11.8066 7.35352ZM3.37891 5.29297C3.37891 5.68359 3.69141 6.00586 4.08203 6.00586C4.46289 6.00586 4.78516 5.67383 4.78516 5.29297C4.78516 4.90234 4.47266 4.58984 4.08203 4.58984C3.69141 4.58984 3.37891 4.90234 3.37891 5.29297ZM6.00586 4.75586C5.69336 4.75586 5.46875 5 5.46875 5.29297C5.46875 5.58594 5.71289 5.83984 6.00586 5.83984L11.8066 5.83984C12.1191 5.83984 12.3535 5.5957 12.3535 5.29297C12.3535 5 12.1191 4.75586 11.8066 4.75586Z" fill="white" fill-opacity="0.85"/>
 </g>
</svg>
