<?xml version="1.0" encoding="UTF-8"?>
<!--Generator: Apple Native CoreSVG 341-->
<!DOCTYPE svg
PUBLIC "-//W3C//DTD SVG 1.1//EN"
       "http://www.w3.org/Graphics/SVG/1.1/DTD/svg11.dtd">
<svg version="1.1" xmlns="http://www.w3.org/2000/svg" xmlns:xlink="http://www.w3.org/1999/xlink" viewBox="0 0 18.6621 13.9551">
 <g>
  <rect height="13.9551" opacity="0" width="18.6621" x="0" y="0"/>
  <path d="M6.2207 13.9453L12.0801 13.9453C16.6113 13.9453 18.3008 12.2656 18.3008 8.06641L18.3008 5.87891C18.3008 1.67969 16.6113 0 12.0801 0L6.2207 0C1.68945 0 0 1.67969 0 5.87891L0 8.06641C0 12.2656 1.68945 13.9453 6.2207 13.9453Z" fill="white" fill-opacity="0.2125"/>
  <path d="M4.80469 10.1953C4.39453 10.1953 4.16016 9.94141 4.16016 9.52148L4.16016 4.31641C4.16016 3.96484 4.46289 3.67188 4.81445 3.67188C5.16602 3.67188 5.46875 3.96484 5.46875 4.31641L5.46875 9.11133L7.06055 9.11133C7.35352 9.11133 7.59766 9.35547 7.59766 9.64844C7.59766 9.95117 7.35352 10.1953 7.06055 10.1953ZM8.98438 10.3027C8.62305 10.3027 8.39844 10.0684 8.39844 9.6875L8.39844 4.58008C8.39844 4.01367 8.75977 3.67188 9.31641 3.67188C9.80469 3.67188 10.0977 3.90625 10.2246 4.4043L11.2109 8.48633L11.2402 8.48633L12.2168 4.4043C12.3438 3.91602 12.627 3.67188 13.1348 3.67188C13.6914 3.67188 14.0527 3.99414 14.0527 4.58008L14.0527 9.6875C14.0527 10.0684 13.8477 10.3027 13.4668 10.3027C13.1055 10.3027 12.9004 10.0684 12.9004 9.6875L12.9004 5.6543L12.8516 5.6543L11.8652 9.58984C11.7773 9.94141 11.5918 10.1758 11.2305 10.1758C10.8887 10.1758 10.6738 9.94141 10.5957 9.59961L9.60938 5.6543L9.56055 5.6543L9.56055 9.6875C9.56055 10.0684 9.33594 10.3027 8.98438 10.3027Z" fill="white" fill-opacity="0.85"/>
 </g>
</svg>
