<?xml version="1.0" encoding="UTF-8"?>
<!--Generator: Apple Native CoreSVG 341-->
<!DOCTYPE svg
PUBLIC "-//W3C//DTD SVG 1.1//EN"
       "http://www.w3.org/Graphics/SVG/1.1/DTD/svg11.dtd">
<svg version="1.1" xmlns="http://www.w3.org/2000/svg" xmlns:xlink="http://www.w3.org/1999/xlink" viewBox="0 0 19.5605 15.7715">
 <g>
  <rect height="15.7715" opacity="0" width="19.5605" x="0" y="0"/>
  <path d="M1.40625 9.56055C1.40625 10.3027 1.80664 10.6836 2.50977 10.6836L3.87695 10.6836L3.87695 12.0898L2.49023 12.0898C0.820312 12.0898 0 11.2793 0 9.63867L0 8.69141L1.40625 8.69141ZM1.40625 7.55859L0 7.55859L0 4.52148L1.40625 4.52148ZM15.3223 2.46094L15.3223 3.67188L13.9062 3.67188L13.9062 2.5293C13.9062 1.78711 13.5156 1.41602 12.8125 1.41602L11.9434 1.41602L11.9434 0L12.832 0C14.4922 0 15.3223 0.820312 15.3223 2.46094ZM3.35938 1.41602L2.50977 1.41602C1.80664 1.41602 1.40625 1.78711 1.40625 2.5293L1.40625 3.38867L0 3.38867L0 2.46094C0 0.820312 0.820312 0 2.49023 0L3.35938 0ZM10.8105 1.41602L8.22266 1.41602L8.22266 0L10.8105 0ZM7.08984 1.41602L4.49219 1.41602L4.49219 0L7.08984 0Z" fill="white" fill-opacity="0.85"/>
  <path d="M6.36719 15.7617L16.709 15.7617C18.3691 15.7617 19.1992 14.9414 19.1992 13.3105L19.1992 6.12305C19.1992 4.48242 18.3691 3.67188 16.709 3.67188L6.36719 3.67188C4.69727 3.67188 3.87695 4.48242 3.87695 6.12305L3.87695 13.3105C3.87695 14.9512 4.69727 15.7617 6.36719 15.7617ZM6.38672 14.3555C5.68359 14.3555 5.2832 13.9746 5.2832 13.2324L5.2832 6.20117C5.2832 5.45898 5.68359 5.07812 6.38672 5.07812L16.6895 5.07812C17.3926 5.07812 17.793 5.45898 17.793 6.20117L17.793 13.2324C17.793 13.9746 17.3926 14.3555 16.6895 14.3555Z" fill="white" fill-opacity="0.85"/>
  <path d="M9.9707 13.2715L13.1055 13.2715C13.7109 13.2715 14.0332 12.9492 14.0332 12.2852L14.0332 9.94141C14.0332 9.29688 13.7109 8.96484 13.1055 8.96484L9.9707 8.96484C9.35547 8.96484 9.04297 9.29688 9.04297 9.94141L9.04297 12.2852C9.04297 12.9492 9.35547 13.2715 9.9707 13.2715ZM9.62891 9.56055L10.4688 9.56055L10.4688 8.11523C10.4688 7.43164 10.8789 6.99219 11.5332 6.99219C12.1973 6.99219 12.6172 7.43164 12.6172 8.11523L12.6172 9.56055L13.4473 9.56055L13.4473 8.26172C13.4473 6.96289 12.7051 6.16211 11.5332 6.16211C10.3711 6.16211 9.62891 6.96289 9.62891 8.26172Z" fill="white" fill-opacity="0.85"/>
 </g>
</svg>
