<?xml version="1.0" encoding="UTF-8"?>
<!--Generator: Apple Native CoreSVG 341-->
<!DOCTYPE svg
PUBLIC "-//W3C//DTD SVG 1.1//EN"
       "http://www.w3.org/Graphics/SVG/1.1/DTD/svg11.dtd">
<svg version="1.1" xmlns="http://www.w3.org/2000/svg" xmlns:xlink="http://www.w3.org/1999/xlink" viewBox="0 0 21.123 18.0371">
 <g>
  <rect height="18.0371" opacity="0" width="21.123" x="0" y="0"/>
  <path d="M16.1133 3.59375L16.1133 3.66211L7.14844 3.66211C4.85352 3.66211 3.51562 4.98047 3.51562 7.25586L3.51563 13.2227L3.27148 13.2227C1.60156 13.2227 0.78125 12.4121 0.78125 10.7715L0.78125 3.59375C0.78125 1.95312 1.60156 1.13281 3.27148 1.13281L13.623 1.13281C15.2734 1.13281 16.1133 1.95312 16.1133 3.59375Z" fill="white" fill-opacity="0.85"/>
  <path d="M19.9805 7.25586L19.9805 14.4434C19.9805 16.0742 19.1504 16.8945 17.4902 16.8945L7.14844 16.8945C5.47852 16.8945 4.6582 16.084 4.6582 14.4434L4.6582 7.25586C4.6582 5.61523 5.47852 4.80469 7.14844 4.80469L17.4902 4.80469C19.1504 4.80469 19.9805 5.61523 19.9805 7.25586ZM10.1172 9.12109L10.1172 10C9.67773 10.0391 9.46289 10.3125 9.46289 10.8496L9.46289 13.9746C9.46289 14.5508 9.7168 14.8242 10.2539 14.8242L14.3848 14.8242C14.9219 14.8242 15.1758 14.5508 15.1758 13.9746L15.1758 10.8496C15.1758 10.3125 14.9609 10.0391 14.5215 10L14.5215 9.12109C14.5215 7.61719 13.6328 6.61133 12.3242 6.61133C11.0059 6.61133 10.1172 7.61719 10.1172 9.12109ZM13.6035 9.00391L13.6035 9.99023L11.0352 9.99023L11.0352 9.00391C11.0352 8.10547 11.5527 7.49023 12.3242 7.49023C13.0957 7.49023 13.6035 8.10547 13.6035 9.00391Z" fill="white" fill-opacity="0.85"/>
 </g>
</svg>
