<?xml version="1.0" encoding="UTF-8"?>
<!--Generator: Apple Native CoreSVG 341-->
<!DOCTYPE svg
PUBLIC "-//W3C//DTD SVG 1.1//EN"
       "http://www.w3.org/Graphics/SVG/1.1/DTD/svg11.dtd">
<svg version="1.1" xmlns="http://www.w3.org/2000/svg" xmlns:xlink="http://www.w3.org/1999/xlink" viewBox="0 0 16.1328 15.7715">
 <g>
  <rect height="15.7715" opacity="0" width="16.1328" x="0" y="0"/>
  <path d="M7.88086 15.7617C12.2363 15.7617 15.7715 12.2363 15.7715 7.88086C15.7715 3.52539 12.2363 0 7.88086 0C3.53516 0 0 3.52539 0 7.88086C0 12.2363 3.53516 15.7617 7.88086 15.7617ZM7.88086 14.2773C4.3457 14.2773 1.49414 11.416 1.49414 7.88086C1.49414 4.3457 4.3457 1.48438 7.88086 1.48438C11.416 1.48438 14.2773 4.3457 14.2773 7.88086C14.2773 11.416 11.416 14.2773 7.88086 14.2773Z" fill="white" fill-opacity="0.85"/>
  <path d="M5.11719 10.8887C5.11719 11.4453 5.36133 11.709 5.88867 11.709L9.86328 11.709C10.3809 11.709 10.6348 11.4453 10.6348 10.8887L10.6348 7.87109C10.6348 7.36328 10.4199 7.09961 9.99023 7.06055L9.99023 6.20117C9.99023 4.75586 9.14062 3.78906 7.87109 3.78906C6.61133 3.78906 5.75195 4.75586 5.75195 6.20117L5.75195 7.06055C5.33203 7.09961 5.11719 7.36328 5.11719 7.87109ZM6.64062 7.05078L6.64062 6.10352C6.64062 5.22461 7.12891 4.64844 7.87109 4.64844C8.61328 4.64844 9.11133 5.22461 9.11133 6.10352L9.11133 7.05078Z" fill="white" fill-opacity="0.85"/>
 </g>
</svg>
