<?xml version="1.0" encoding="UTF-8"?>
<!--Generator: Apple Native CoreSVG 341-->
<!DOCTYPE svg
PUBLIC "-//W3C//DTD SVG 1.1//EN"
       "http://www.w3.org/Graphics/SVG/1.1/DTD/svg11.dtd">
<svg version="1.1" xmlns="http://www.w3.org/2000/svg" xmlns:xlink="http://www.w3.org/1999/xlink" viewBox="0 0 15.9961 15.4785">
 <g>
  <rect height="15.4785" opacity="0" width="15.9961" x="0" y="0"/>
  <path d="M1.77734 15.0879L8.70117 15.0879C9.88281 15.0879 10.4785 14.4824 10.4785 13.2031L10.4785 8.05664C10.4785 6.78711 9.88281 6.18164 8.70117 6.18164L1.77734 6.18164C0.595703 6.18164 0 6.78711 0 8.05664L0 13.2031C0 14.4824 0.595703 15.0879 1.77734 15.0879ZM7.80273 6.86523L9.17969 6.86523L9.17969 4.13086C9.17969 2.23633 10.4004 1.30859 11.7188 1.30859C13.0273 1.30859 14.2578 2.23633 14.2578 4.13086L14.2578 5.83984C14.2578 6.36719 14.5605 6.62109 14.9512 6.62109C15.332 6.62109 15.6348 6.39648 15.6348 5.83984L15.6348 4.32617C15.6348 1.33789 13.6719 0 11.7188 0C9.75586 0 7.80273 1.33789 7.80273 4.32617Z" fill="white" fill-opacity="0.85"/>
 </g>
</svg>
