<?xml version="1.0" encoding="UTF-8"?>
<!--Generator: Apple Native CoreSVG 341-->
<!DOCTYPE svg
PUBLIC "-//W3C//DTD SVG 1.1//EN"
       "http://www.w3.org/Graphics/SVG/1.1/DTD/svg11.dtd">
<svg version="1.1" xmlns="http://www.w3.org/2000/svg" xmlns:xlink="http://www.w3.org/1999/xlink" viewBox="0 0 15.7324 14.7754">
 <g>
  <rect height="14.7754" opacity="0" width="15.7324" x="0" y="0"/>
  <path d="M0 5.21484C0 8.52539 2.69531 11.7676 7.08008 14.541C7.25586 14.6582 7.51953 14.7754 7.68555 14.7754C7.86133 14.7754 8.11523 14.6582 8.29102 14.541C12.6758 11.7676 15.3711 8.52539 15.3711 5.21484C15.3711 2.46094 13.4766 0.507812 10.957 0.507812C9.51172 0.507812 8.39844 1.16211 7.68555 2.1582C6.98242 1.17188 5.85938 0.507812 4.41406 0.507812C1.89453 0.507812 0 2.46094 0 5.21484ZM1.40625 5.21484C1.40625 3.23242 2.68555 1.91406 4.4043 1.91406C5.84961 1.91406 6.63086 2.82227 7.10938 3.51562C7.34375 3.85742 7.49023 3.95508 7.68555 3.95508C7.89062 3.95508 8.00781 3.84766 8.26172 3.51562C8.7793 2.8418 9.53125 1.91406 10.9766 1.91406C12.6953 1.91406 13.9648 3.23242 13.9648 5.21484C13.9648 8.04688 10.9473 11.1426 7.86133 13.1934C7.77344 13.252 7.71484 13.291 7.68555 13.291C7.65625 13.291 7.59766 13.252 7.51953 13.1934C4.42383 11.1426 1.40625 8.04688 1.40625 5.21484Z" fill="white" fill-opacity="0.85"/>
  <path d="M5.625 10.1074C5.625 10.5273 5.81055 10.7324 6.20117 10.7324L9.17969 10.7324C9.57031 10.7324 9.75586 10.5273 9.75586 10.1074L9.75586 7.85156C9.75586 7.46094 9.59961 7.26562 9.27734 7.23633L9.27734 6.60156C9.27734 5.51758 8.64258 4.78516 7.69531 4.78516C6.74805 4.78516 6.10352 5.51758 6.10352 6.60156L6.10352 7.23633C5.78125 7.26562 5.625 7.46094 5.625 7.85156ZM6.76758 7.23633L6.76758 6.52344C6.76758 5.86914 7.13867 5.42969 7.69531 5.42969C8.25195 5.42969 8.62305 5.86914 8.62305 6.52344L8.62305 7.23633Z" fill="white" fill-opacity="0.85"/>
 </g>
</svg>
