<?xml version="1.0" encoding="UTF-8"?>
<!--Generator: Apple Native CoreSVG 341-->
<!DOCTYPE svg
PUBLIC "-//W3C//DTD SVG 1.1//EN"
       "http://www.w3.org/Graphics/SVG/1.1/DTD/svg11.dtd">
<svg version="1.1" xmlns="http://www.w3.org/2000/svg" xmlns:xlink="http://www.w3.org/1999/xlink" viewBox="0 0 18.6621 13.9551">
 <g>
  <rect height="13.9551" opacity="0" width="18.6621" x="0" y="0"/>
  <path d="M6.2207 13.9453L12.0801 13.9453C16.6113 13.9453 18.3008 12.2656 18.3008 8.06641L18.3008 5.87891C18.3008 1.67969 16.6113 0 12.0801 0L6.2207 0C1.68945 0 0 1.67969 0 5.87891L0 8.06641C0 12.2656 1.68945 13.9453 6.2207 13.9453ZM6.2207 12.5293C2.63672 12.5293 1.40625 11.3965 1.40625 8.06641L1.40625 5.87891C1.40625 2.54883 2.63672 1.41602 6.2207 1.41602L12.0801 1.41602C15.6641 1.41602 16.8848 2.54883 16.8848 5.87891L16.8848 8.06641C16.8848 11.3965 15.6641 12.5293 12.0801 12.5293Z" fill="white" fill-opacity="0.85"/>
  <path d="M4.59961 10.1855C4.94141 10.1855 5.15625 9.96094 5.15625 9.58984L5.15625 5.70312L5.20508 5.70312L6.15234 9.51172C6.23047 9.83398 6.43555 10.0586 6.76758 10.0586C7.10938 10.0586 7.29492 9.83398 7.37305 9.50195L8.33008 5.70312L8.36914 5.70312L8.36914 9.58984C8.36914 9.96094 8.57422 10.1855 8.92578 10.1855C9.28711 10.1855 9.48242 9.96094 9.48242 9.58984L9.48242 4.6582C9.48242 4.10156 9.14062 3.78906 8.60352 3.78906C8.10547 3.78906 7.83203 4.02344 7.72461 4.50195L6.77734 8.42773L6.74805 8.42773L5.79102 4.50195C5.67383 4.01367 5.39062 3.78906 4.92188 3.78906C4.38477 3.78906 4.04297 4.12109 4.04297 4.6582L4.04297 9.58984C4.04297 9.96094 4.25781 10.1855 4.59961 10.1855ZM12.4121 10.2148C13.5449 10.2148 14.4141 9.53125 14.4141 8.36914C14.4141 7.39258 13.8184 6.96289 13.2031 6.89453L13.2031 6.86523C13.8965 6.67969 14.2383 6.07422 14.2383 5.42969C14.2383 4.3457 13.3984 3.75 12.3828 3.75C11.582 3.75 10.8496 4.18945 10.6348 4.87305C10.5859 5.00977 10.5762 5.14648 10.5762 5.29297C10.5762 5.56641 10.7617 5.79102 11.1035 5.79102C11.3867 5.79102 11.5625 5.68359 11.6504 5.40039C11.7773 4.9707 11.9922 4.73633 12.3828 4.73633C12.8516 4.73633 13.0664 5.09766 13.0664 5.56641C13.0664 6.09375 12.7832 6.46484 12.2363 6.46484L12.0898 6.46484C11.8066 6.46484 11.6113 6.64062 11.6113 6.92383C11.6113 7.20703 11.8066 7.36328 12.0898 7.36328L12.2461 7.36328C12.8613 7.36328 13.1934 7.70508 13.1934 8.32031C13.1934 8.81836 12.9297 9.21875 12.4121 9.21875C11.8945 9.21875 11.6699 8.88672 11.582 8.57422C11.4941 8.31055 11.3086 8.16406 11.0352 8.16406C10.7031 8.16406 10.4688 8.36914 10.4688 8.71094C10.4688 8.84766 10.498 8.98438 10.5371 9.11133C10.752 9.82422 11.582 10.2148 12.4121 10.2148Z" fill="white" fill-opacity="0.85"/>
 </g>
</svg>
