<?xml version="1.0" encoding="UTF-8"?>
<!--Generator: Apple Native CoreSVG 341-->
<!DOCTYPE svg
PUBLIC "-//W3C//DTD SVG 1.1//EN"
       "http://www.w3.org/Graphics/SVG/1.1/DTD/svg11.dtd">
<svg version="1.1" xmlns="http://www.w3.org/2000/svg" xmlns:xlink="http://www.w3.org/1999/xlink" viewBox="0 0 18.6621 13.9551">
 <g>
  <rect height="13.9551" opacity="0" width="18.6621" x="0" y="0"/>
  <path d="M6.2207 13.9453L12.0801 13.9453C16.6113 13.9453 18.3008 12.2656 18.3008 8.06641L18.3008 5.87891C18.3008 1.67969 16.6113 0 12.0801 0L6.2207 0C1.68945 0 0 1.67969 0 5.87891L0 8.06641C0 12.2656 1.68945 13.9453 6.2207 13.9453ZM6.2207 12.5293C2.63672 12.5293 1.40625 11.3965 1.40625 8.06641L1.40625 5.87891C1.40625 2.54883 2.63672 1.41602 6.2207 1.41602L12.0801 1.41602C15.6641 1.41602 16.8848 2.54883 16.8848 5.87891L16.8848 8.06641C16.8848 11.3965 15.6641 12.5293 12.0801 12.5293Z" fill="white" fill-opacity="0.425"/>
  <path d="M4.50195 10.1855C4.84375 10.1855 5.05859 9.96094 5.05859 9.58984L5.05859 5.70312L5.10742 5.70312L6.05469 9.51172C6.13281 9.83398 6.33789 10.0586 6.66992 10.0586C7.01172 10.0586 7.19727 9.83398 7.28516 9.50195L8.23242 5.70312L8.27148 5.70312L8.27148 9.58984C8.27148 9.96094 8.47656 10.1855 8.82812 10.1855C9.18945 10.1855 9.38477 9.96094 9.38477 9.58984L9.38477 4.6582C9.38477 4.10156 9.04297 3.78906 8.50586 3.78906C8.00781 3.78906 7.73438 4.02344 7.62695 4.50195L6.67969 8.42773L6.65039 8.42773L5.69336 4.50195C5.57617 4.01367 5.29297 3.78906 4.82422 3.78906C4.28711 3.78906 3.94531 4.12109 3.94531 4.6582L3.94531 9.58984C3.94531 9.96094 4.16016 10.1855 4.50195 10.1855ZM13.2617 10.1758C13.584 10.1758 13.8477 9.98047 13.8477 9.56055L13.8477 8.91602L14.0625 8.91602C14.3945 8.91602 14.5508 8.70117 14.5508 8.41797C14.5508 8.14453 14.4141 7.91992 14.0625 7.91992L13.8477 7.91992L13.8477 4.70703C13.8477 4.12109 13.4668 3.78906 12.8906 3.78906C12.2852 3.78906 12.002 4.0918 11.7676 4.61914L10.5176 7.41211C10.3809 7.74414 10.332 7.95898 10.332 8.22266C10.332 8.63281 10.6152 8.91602 11.0254 8.91602L12.666 8.91602L12.666 9.56055C12.666 10.0195 12.9883 10.1758 13.2617 10.1758ZM12.6953 7.94922L11.377 7.94922L11.377 7.89062L12.666 4.83398L12.6953 4.83398Z" fill="white" fill-opacity="0.85"/>
 </g>
</svg>
