<?xml version="1.0" encoding="UTF-8"?>
<!--Generator: Apple Native CoreSVG 341-->
<!DOCTYPE svg
PUBLIC "-//W3C//DTD SVG 1.1//EN"
       "http://www.w3.org/Graphics/SVG/1.1/DTD/svg11.dtd">
<svg version="1.1" xmlns="http://www.w3.org/2000/svg" xmlns:xlink="http://www.w3.org/1999/xlink" viewBox="0 0 22.8125 12.7051">
 <g>
  <rect height="12.7051" opacity="0" width="22.8125" x="0" y="0"/>
  <path d="M4.0332 10.8008L4.0332 2.08984C4.0332 1.64062 4.24805 1.41602 4.69727 1.41602L17.7539 1.41602C18.2031 1.41602 18.4277 1.64062 18.4277 2.08984L18.4277 10.8008Z" fill="white" fill-opacity="0.2125"/>
  <path d="M8.81836 1.41602L9.01367 1.41602C9.13086 1.41602 9.19922 1.47461 9.19922 1.61133L9.19922 1.70898C9.19922 2.04102 9.41406 2.27539 9.76562 2.27539L12.7051 2.27539C13.0371 2.27539 13.252 2.04102 13.252 1.70898L13.252 1.61133C13.252 1.47461 13.3203 1.41602 13.4473 1.41602L13.6426 1.41602L13.6426 0.693359L8.81836 0.693359ZM0 11.7578C0 12.2754 0.429688 12.7051 0.9375 12.7051L21.5137 12.7051C22.0312 12.7051 22.4512 12.2754 22.4512 11.7578C22.4512 11.2305 22.0312 10.8008 21.5137 10.8008L19.834 10.8008L19.834 1.66992C19.834 0.576172 19.248 0.00976562 18.1543 0.00976562L4.29688 0.00976562C3.27148 0.00976562 2.61719 0.576172 2.61719 1.66992L2.61719 10.8008L0.9375 10.8008C0.429688 10.8008 0 11.2305 0 11.7578ZM4.0332 10.8008L4.0332 2.08984C4.0332 1.64062 4.24805 1.41602 4.69727 1.41602L17.7539 1.41602C18.2031 1.41602 18.4277 1.64062 18.4277 2.08984L18.4277 10.8008Z" fill="white" fill-opacity="0.85"/>
 </g>
</svg>
