<svg version="1.1" xmlns="http://www.w3.org/2000/svg" xmlns:xlink="http://www.w3.org/1999/xlink" viewBox="0 0 20.625 8.4668">
 <g>
  <rect height="8.4668" opacity="0" width="20.625" x="0" y="0"/>
  <path d="M2.49023 8.45703L17.7832 8.45703C19.4434 8.45703 20.2637 7.63672 20.2637 6.00586L20.2637 2.45117C20.2637 0.820312 19.4434 0 17.7832 0L2.49023 0C0.820312 0 0 0.820312 0 2.45117L0 6.00586C0 7.63672 0.820312 8.45703 2.49023 8.45703ZM2.50977 7.04102C1.80664 7.04102 1.40625 6.66992 1.40625 5.92773L1.40625 2.5293C1.40625 1.78711 1.80664 1.41602 2.50977 1.41602L17.7637 1.41602C18.4668 1.41602 18.8574 1.78711 18.8574 2.5293L18.8574 5.92773C18.8574 6.66992 18.4668 7.04102 17.7637 7.04102ZM4.13086 4.04297C4.13086 3.7793 3.92578 3.57422 3.66211 3.57422C3.39844 3.57422 3.18359 3.7793 3.18359 4.04297L3.18359 5.13672C3.18359 5.40039 3.39844 5.61523 3.66211 5.61523C3.92578 5.61523 4.13086 5.40039 4.13086 5.13672ZM6.26953 4.04297C6.26953 3.7793 6.06445 3.57422 5.80078 3.57422C5.52734 3.57422 5.32227 3.7793 5.32227 4.04297L5.32227 5.13672C5.32227 5.40039 5.52734 5.61523 5.80078 5.61523C6.06445 5.61523 6.26953 5.40039 6.26953 5.13672ZM13.9746 5.16602C14.2969 5.16602 14.5605 4.90234 14.5605 4.58984C14.5605 4.26758 14.2969 4.00391 13.9746 4.00391C13.6523 4.00391 13.3984 4.26758 13.3984 4.58984C13.3984 4.90234 13.6523 5.16602 13.9746 5.16602ZM16.3086 5.36133C16.7285 5.36133 17.0801 5.00977 17.0801 4.58984C17.0801 4.16016 16.7285 3.80859 16.3086 3.80859C15.8789 3.80859 15.5273 4.16016 15.5273 4.58984C15.5273 5.00977 15.8789 5.36133 16.3086 5.36133Z" fill="var(--color-primary)"/>
 </g>
</svg>
