<?xml version="1.0" encoding="UTF-8"?>
<!--Generator: Apple Native CoreSVG 341-->
<!DOCTYPE svg
PUBLIC "-//W3C//DTD SVG 1.1//EN"
       "http://www.w3.org/Graphics/SVG/1.1/DTD/svg11.dtd">
<svg version="1.1" xmlns="http://www.w3.org/2000/svg" xmlns:xlink="http://www.w3.org/1999/xlink" viewBox="0 0 11.6504 18.3887">
 <g>
  <rect height="18.3887" opacity="0" width="11.6504" x="0" y="0"/>
  <path d="M5.64453 18.3887C9.18945 18.3887 11.2891 17.041 11.2891 14.7559L11.2891 3.64258C11.2891 2.79297 11.0059 2.08984 10.5566 1.60156C10.2539 1.26953 9.85352 1.25 9.66797 1.5625C9.18945 2.40234 7.55859 2.94922 5.64453 2.94922C3.73047 2.94922 2.09961 2.40234 1.62109 1.5625C1.43555 1.25 1.04492 1.26953 0.742188 1.60156C0.283203 2.08984 0 2.79297 0 3.64258L0 14.7559C0 17.041 2.09961 18.3887 5.64453 18.3887ZM5.64453 16.9824C2.87109 16.9824 1.39648 16.123 1.39648 14.7168L1.39648 3.75C1.39648 3.57422 1.42578 3.4375 1.47461 3.30078C2.46094 4.00391 3.98438 4.375 5.64453 4.375C7.30469 4.375 8.83789 4.00391 9.81445 3.30078C9.86328 3.4375 9.89258 3.57422 9.89258 3.75L9.89258 14.7168C9.89258 16.123 8.42773 16.9824 5.64453 16.9824ZM5.64453 2.00195C7.41211 2.00195 8.85742 1.55273 8.85742 0.996094C8.85742 0.449219 7.41211 0.00976562 5.64453 0.00976562C3.87695 0.00976562 2.44141 0.449219 2.44141 0.996094C2.44141 1.55273 3.87695 2.00195 5.64453 2.00195Z" fill="white" fill-opacity="0.85"/>
 </g>
</svg>
