<svg version="1.1" xmlns="http://www.w3.org/2000/svg" xmlns:xlink="http://www.w3.org/1999/xlink" viewBox="0 0 19.2383 10.5176">
 <g>
  <rect height="10.5176" opacity="0" width="19.2383" x="0" y="0"/>
  <path d="M2.49023 10.4199L16.3867 10.4199C18.0469 10.4199 18.877 9.60938 18.877 7.96875L18.877 2.45117C18.877 0.810547 18.0469 0 16.3867 0L2.49023 0C0.820312 0 0 0.810547 0 2.45117L0 7.96875C0 9.60938 0.820312 10.4199 2.49023 10.4199ZM2.50977 9.01367C1.80664 9.01367 1.40625 8.63281 1.40625 7.89062L1.40625 2.5293C1.40625 1.78711 1.80664 1.40625 2.50977 1.40625L16.3672 1.40625C17.0703 1.40625 17.4707 1.78711 17.4707 2.5293L17.4707 7.89062C17.4707 8.63281 17.0703 9.01367 16.3672 9.01367ZM3.07617 7.96875C3.39844 7.96875 3.64258 7.70508 3.64258 7.41211L3.64258 6.26953C3.64258 5.94727 3.38867 5.70312 3.07617 5.71289C2.76367 5.70312 2.50977 5.94727 2.50977 6.26953L2.50977 7.40234C2.50977 7.71484 2.75391 7.96875 3.07617 7.96875ZM5 7.96875C5.32227 7.96875 5.56641 7.70508 5.56641 7.41211L5.56641 6.26953C5.56641 5.94727 5.3125 5.70312 5 5.71289C4.6875 5.70312 4.43359 5.94727 4.43359 6.26953L4.43359 7.40234C4.43359 7.71484 4.67773 7.96875 5 7.96875ZM7.01172 7.40234L10.1074 7.40234C10.4199 7.40234 10.6738 7.14844 10.6738 6.83594C10.6738 6.52344 10.4199 6.26953 10.1074 6.26953L7.01172 6.26953C6.69922 6.26953 6.44531 6.52344 6.44531 6.83594C6.44531 7.14844 6.69922 7.40234 7.01172 7.40234ZM15.5664 7.75391C16.0547 7.74414 16.4746 7.33398 16.4746 6.8457C16.4746 6.33789 16.0547 5.91797 15.5664 5.91797C15.0781 5.91797 14.6484 6.33789 14.6484 6.8457C14.6484 7.33398 15.0781 7.76367 15.5664 7.75391Z" fill="var(--color-primary)"/>
 </g>
</svg>
