<?xml version="1.0" encoding="UTF-8"?>
<!--Generator: Apple Native CoreSVG 341-->
<!DOCTYPE svg
PUBLIC "-//W3C//DTD SVG 1.1//EN"
       "http://www.w3.org/Graphics/SVG/1.1/DTD/svg11.dtd">
<svg version="1.1" xmlns="http://www.w3.org/2000/svg" xmlns:xlink="http://www.w3.org/1999/xlink" viewBox="0 0 18.9844 15.498">
 <g>
  <rect height="15.498" opacity="0" width="18.9844" x="0" y="0"/>
  <path d="M18.623 9.30664C18.623 7.03125 17.8125 4.94141 16.4453 3.31055C16.2891 3.125 16.0352 3.125 15.8594 3.30078L14.0332 5.13672C13.8867 5.2832 13.8867 5.48828 14.0137 5.6543C14.8047 6.66016 15.2734 7.92969 15.2734 9.30664C15.2734 10.6836 14.8047 11.9531 13.9551 13.0371C13.8574 13.1641 13.8672 13.3203 13.9746 13.4277L15.8594 15.3125C16.0352 15.4883 16.2891 15.4883 16.4453 15.3027C17.8125 13.6816 18.623 11.5918 18.623 9.30664Z" fill="white" fill-opacity="0.425"/>
  <path d="M9.31641 3.34961C10.7031 3.34961 11.9727 3.82812 12.9883 4.61914C13.1445 4.73633 13.3398 4.72656 13.4863 4.58008L15.3223 2.75391C15.498 2.57812 15.4883 2.32422 15.3027 2.16797C13.6816 0.810547 11.5918 0 9.31641 0C7.04102 0 4.94141 0.810547 3.33008 2.16797C3.14453 2.32422 3.13477 2.57812 3.31055 2.75391L5.13672 4.58008C5.2832 4.72656 5.48828 4.73633 5.6543 4.60938C6.66992 3.82812 7.93945 3.34961 9.31641 3.34961Z" fill="white" fill-opacity="0.425"/>
  <path d="M0 9.30664C0 11.5918 0.820312 13.6816 2.17773 15.3027C2.33398 15.4883 2.58789 15.4883 2.76367 15.3125L4.64844 13.4277C4.76562 13.3203 4.77539 13.1641 4.66797 13.0371C3.82812 11.9531 3.35938 10.6836 3.35938 9.30664C3.35938 7.92969 3.82812 6.66016 4.61914 5.6543C4.74609 5.48828 4.74609 5.2832 4.59961 5.13672L2.76367 3.30078C2.58789 3.125 2.33398 3.125 2.17773 3.31055C0.820312 4.94141 0 7.03125 0 9.30664Z" fill="white" fill-opacity="0.425"/>
  <path d="M5.39062 12.2168C5.66406 12.2168 5.83008 12.0312 5.83008 11.7578L5.83008 10L6.60156 10L7.40234 11.8945C7.49023 12.0996 7.63672 12.2168 7.8418 12.2168C8.11523 12.2168 8.27148 12.0312 8.27148 11.8164C8.27148 11.709 8.24219 11.6406 8.17383 11.4844L7.45117 9.82422C7.94922 9.58984 8.30078 9.07227 8.30078 8.33008C8.30078 7.30469 7.67578 6.67969 6.60156 6.67969L5.38086 6.67969C5.11719 6.67969 4.95117 6.8457 4.95117 7.11914L4.95117 11.7578C4.95117 12.0312 5.11719 12.2168 5.39062 12.2168ZM5.83008 9.31641L5.83008 7.39258L6.52344 7.39258C7.09961 7.39258 7.42188 7.76367 7.42188 8.33984C7.42188 8.93555 7.11914 9.31641 6.52344 9.31641ZM9.375 12.2168C9.60938 12.2168 9.76562 12.0605 9.76562 11.8164L9.76562 7.97852L9.80469 7.97852L10.8398 11.709C10.8984 11.9238 11.0547 12.1191 11.3281 12.1191C11.5918 12.1191 11.7285 11.9434 11.8066 11.6895L12.8516 7.97852L12.8906 7.97852L12.8906 11.8164C12.8906 12.0605 13.0371 12.2168 13.2812 12.2168C13.5156 12.2168 13.6719 12.0605 13.6719 11.8164L13.6719 7.20703C13.6719 6.82617 13.4375 6.60156 13.0566 6.60156C12.7441 6.60156 12.5098 6.79688 12.4219 7.09961L11.3672 10.9766L11.3086 10.9766L10.2246 7.09961C10.1367 6.79688 9.90234 6.60156 9.59961 6.60156C9.21875 6.60156 8.98438 6.82617 8.98438 7.20703L8.98438 11.8164C8.98438 12.0605 9.13086 12.2168 9.375 12.2168Z" fill="white" fill-opacity="0.85"/>
 </g>
</svg>
