<svg version="1.1" xmlns="http://www.w3.org/2000/svg" xmlns:xlink="http://www.w3.org/1999/xlink" viewBox="0 0 16.1328 15.7715">
 <g>
  <rect height="15.7715" opacity="0" width="16.1328" x="0" y="0"/>
  <path d="M7.88086 15.7617C12.2363 15.7617 15.7715 12.2363 15.7715 7.88086C15.7715 3.52539 12.2363 0 7.88086 0C3.53516 0 0 3.52539 0 7.88086C0 12.2363 3.53516 15.7617 7.88086 15.7617ZM7.88086 14.2773C4.3457 14.2773 1.49414 11.416 1.49414 7.88086C1.49414 4.3457 4.3457 1.48438 7.88086 1.48438C11.416 1.48438 14.2773 4.3457 14.2773 7.88086C14.2773 11.416 11.416 14.2773 7.88086 14.2773Z" fill="var(--color-secondary)"/>
  <path d="M3.52539 10.9961C3.82812 10.9961 4.01367 10.8008 4.01367 10.498L4.01367 8.54492L4.87305 8.54492L5.76172 10.6348C5.84961 10.8691 6.01562 10.9961 6.24023 10.9961C6.55273 10.9961 6.72852 10.791 6.72852 10.5566C6.72852 10.4395 6.69922 10.3613 6.62109 10.1953L5.81055 8.33984C6.36719 8.07617 6.75781 7.50977 6.75781 6.67969C6.75781 5.53711 6.05469 4.84375 4.87305 4.84375L3.51562 4.84375C3.22266 4.84375 3.03711 5.0293 3.03711 5.33203L3.03711 10.498C3.03711 10.8008 3.21289 10.9961 3.52539 10.9961ZM4.01367 7.77344L4.01367 5.64453L4.77539 5.64453C5.42969 5.64453 5.78125 6.05469 5.78125 6.69922C5.78125 7.35352 5.44922 7.77344 4.78516 7.77344ZM7.94922 11.0059C8.21289 11.0059 8.37891 10.8203 8.37891 10.5469L8.37891 6.29883L8.42773 6.29883L9.58008 10.4297C9.64844 10.6738 9.81445 10.8887 10.127 10.8887C10.4102 10.8887 10.5664 10.7031 10.6543 10.4102L11.8164 6.29883L11.8555 6.29883L11.8555 10.5469C11.8555 10.8203 12.0215 11.0059 12.2852 11.0059C12.5488 11.0059 12.7246 10.8203 12.7246 10.5469L12.7246 5.42969C12.7246 5.00977 12.4609 4.75586 12.041 4.75586C11.6992 4.75586 11.4355 4.9707 11.3379 5.32227L10.166 9.61914L10.0977 9.61914L8.89648 5.32227C8.79883 4.98047 8.53516 4.75586 8.20312 4.75586C7.77344 4.75586 7.50977 5.00977 7.50977 5.42969L7.50977 10.5469C7.50977 10.8203 7.68555 11.0059 7.94922 11.0059Z" fill="var(--color-primary)"/>
 </g>
</svg>
