<?xml version="1.0" encoding="UTF-8"?>
<!--Generator: Apple Native CoreSVG 341-->
<!DOCTYPE svg
PUBLIC "-//W3C//DTD SVG 1.1//EN"
       "http://www.w3.org/Graphics/SVG/1.1/DTD/svg11.dtd">
<svg version="1.1" xmlns="http://www.w3.org/2000/svg" xmlns:xlink="http://www.w3.org/1999/xlink" viewBox="0 0 14.5898 14.248">
 <g>
  <rect height="14.248" opacity="0" width="14.5898" x="0" y="0"/>
  <path d="M2.49023 14.248L11.7383 14.248C13.4082 14.248 14.2285 13.4277 14.2285 11.7871L14.2285 2.4707C14.2285 0.830078 13.4082 0.00976562 11.7383 0.00976562L2.49023 0.00976562C0.830078 0.00976562 0 0.830078 0 2.4707L0 11.7871C0 13.4277 0.830078 14.248 2.49023 14.248Z" fill="white" fill-opacity="0.2125"/>
  <path d="M2.59766 10.3516C2.27539 10.3516 2.08984 10.1465 2.08984 9.83398L2.08984 4.48242C2.08984 4.16016 2.28516 3.97461 2.58789 3.97461L4.00391 3.97461C5.23438 3.97461 5.95703 4.6875 5.95703 5.86914C5.95703 6.72852 5.54688 7.32422 4.98047 7.59766L5.81055 9.51172C5.88867 9.6875 5.91797 9.76562 5.91797 9.90234C5.91797 10.1367 5.74219 10.3516 5.41992 10.3516C5.18555 10.3516 5.01953 10.2246 4.91211 9.98047L4.00391 7.8125L3.10547 7.8125L3.10547 9.83398C3.10547 10.1465 2.91016 10.3516 2.59766 10.3516ZM3.10547 7.01172L3.90625 7.01172C4.58984 7.01172 4.94141 6.57227 4.94141 5.88867C4.94141 5.22461 4.57031 4.79492 3.89648 4.79492L3.10547 4.79492ZM7.1875 10.3613C6.91406 10.3613 6.73828 10.1758 6.73828 9.89258L6.73828 4.58008C6.73828 4.14062 7.02148 3.87695 7.45117 3.87695C7.80273 3.87695 8.07617 4.10156 8.17383 4.46289L9.41406 8.92578L9.48242 8.92578L10.7129 4.46289C10.8008 4.10156 11.084 3.87695 11.4355 3.87695C11.875 3.87695 12.1484 4.14062 12.1484 4.58008L12.1484 9.89258C12.1484 10.1758 11.9727 10.3613 11.6992 10.3613C11.4258 10.3613 11.2402 10.1758 11.2402 9.89258L11.2402 5.47852L11.2012 5.47852L10 9.74609C9.91211 10.0391 9.74609 10.2441 9.44336 10.2441C9.13086 10.2441 8.95508 10.0098 8.88672 9.76562L7.68555 5.47852L7.64648 5.47852L7.64648 9.89258C7.64648 10.1758 7.46094 10.3613 7.1875 10.3613Z" fill="white" fill-opacity="0.85"/>
 </g>
</svg>
