<svg version="1.1" xmlns="http://www.w3.org/2000/svg" xmlns:xlink="http://www.w3.org/1999/xlink" viewBox="0 0 17.6172 17.2754">
 <g>
  <rect height="17.2754" opacity="0" width="17.6172" x="0" y="0"/>
  <path d="M8.63281 17.2656C13.3594 17.2656 17.2559 13.3691 17.2559 8.63281C17.2559 3.89648 13.3594 0 8.63281 0C3.89648 0 0 3.89648 0 8.63281C0 13.3691 3.89648 17.2656 8.63281 17.2656ZM8.63281 14.3555C5.46875 14.3555 2.91016 11.7969 2.91016 8.63281C2.91016 5.46875 5.46875 2.91016 8.63281 2.91016C11.7871 2.91016 14.3457 5.46875 14.3457 8.63281C14.3457 11.7969 11.7871 14.3555 8.63281 14.3555Z" fill="var(--color-secondary)"/>
  <path d="M6.37695 12.0117C6.68945 12.0117 6.88477 11.8066 6.88477 11.4941L6.88477 9.20898C6.88477 7.87109 7.33398 6.70898 8.64258 6.70898C9.9707 6.70898 10.4004 7.87109 10.4004 9.20898L10.4004 11.4941C10.4004 11.8066 10.5957 12.0117 10.9082 12.0117C11.2109 12.0117 11.3965 11.8066 11.3965 11.4941L11.3965 9.16992C11.3965 7.22656 10.5176 5.81055 8.64258 5.81055C6.75781 5.81055 5.88867 7.24609 5.88867 9.16992L5.88867 11.4941C5.88867 11.8066 6.07422 12.0117 6.37695 12.0117ZM8.63281 12.0117C8.83789 12.0117 8.97461 11.875 8.97461 11.6602L8.97461 5.00977C8.97461 4.80469 8.83789 4.66797 8.63281 4.66797C8.4082 4.66797 8.28125 4.80469 8.28125 5.00977L8.28125 11.6602C8.28125 11.875 8.4082 12.0117 8.63281 12.0117Z" fill="var(--color-primary)"/>
 </g>
</svg>
