<svg version="1.1" xmlns="http://www.w3.org/2000/svg" xmlns:xlink="http://www.w3.org/1999/xlink" viewBox="0 0 19.1159 15.7715">
 <g>
  <rect height="15.7715" opacity="0" width="19.1159" x="0" y="0"/>
  <path d="M9.37242 15.7617C13.7279 15.7617 17.263 12.2363 17.263 7.88086C17.263 3.52539 13.7279 0 9.37242 0C5.02672 0 1.49156 3.52539 1.49156 7.88086L2.9857 7.88086C2.9857 4.3457 5.83726 1.48438 9.37242 1.48438C12.9076 1.48438 15.7689 4.3457 15.7689 7.88086C15.7689 11.416 12.9076 14.2773 9.37242 14.2773C7.29234 14.2773 5.44664 13.2812 4.2943 11.7578C4.02086 11.3965 3.60094 11.2891 3.23961 11.5137C2.88805 11.7285 2.78062 12.2266 3.08336 12.6074C4.53844 14.5508 6.83336 15.7617 9.37242 15.7617ZM0.602889 6.35742C-0.0123451 6.35742-0.158829 6.77734 0.173202 7.24609L1.91148 9.7168C2.18492 10.0977 2.59508 10.0977 2.85875 9.7168L4.59703 7.23633C4.9193 6.77734 4.77281 6.35742 4.16734 6.35742Z" fill="var(--color-secondary)"/>
  <path d="M7.12633 11.2598C7.43883 11.2598 7.63414 11.0547 7.63414 10.7422L7.63414 8.45703C7.63414 7.11914 8.07359 5.95703 9.38219 5.95703C10.7201 5.95703 11.1498 7.11914 11.1498 8.45703L11.1498 10.7422C11.1498 11.0547 11.3353 11.2598 11.6478 11.2598C11.9505 11.2598 12.1459 11.0547 12.1459 10.7422L12.1459 8.41797C12.1459 6.47461 11.2572 5.05859 9.38219 5.05859C7.50719 5.05859 6.63805 6.49414 6.63805 8.41797L6.63805 10.7422C6.63805 11.0547 6.82359 11.2598 7.12633 11.2598ZM9.37242 11.2598C9.58726 11.2598 9.71422 11.123 9.71422 10.9082L9.71422 4.25781C9.71422 4.05273 9.58726 3.91602 9.37242 3.91602C9.15758 3.91602 9.02086 4.05273 9.02086 4.25781L9.02086 10.9082C9.02086 11.123 9.15758 11.2598 9.37242 11.2598Z" fill="var(--color-primary)"/>
 </g>
</svg>
