<svg version="1.1" xmlns="http://www.w3.org/2000/svg" xmlns:xlink="http://www.w3.org/1999/xlink" viewBox="0 0 16.1328 15.7715">
 <g>
  <rect height="15.7715" opacity="0" width="16.1328" x="0" y="0"/>
  <path d="M7.88086 15.7617C12.2363 15.7617 15.7715 12.2266 15.7715 7.88086C15.7715 3.53516 12.2363 0 7.88086 0C3.53516 0 0 3.53516 0 7.88086C0 12.2266 3.53516 15.7617 7.88086 15.7617Z" fill="var(--color-tertiary)"/>
  <path d="M5.55664 11.3867C5.23438 11.3867 5.03906 11.1816 5.03906 10.8594L5.03906 8.4375C5.03906 6.57227 5.83008 5.15625 7.50977 4.98047L7.50977 4.12109C7.50977 3.90625 7.65625 3.76953 7.88086 3.76953C8.10547 3.76953 8.23242 3.90625 8.23242 4.12109L8.23242 4.98047C9.95117 5.13672 10.752 6.54297 10.752 8.4375L10.752 10.8594C10.752 11.1816 10.5664 11.3867 10.2441 11.3867C9.92188 11.3867 9.72656 11.1816 9.72656 10.8594L9.72656 8.48633C9.72656 7.2168 9.35547 6.09375 8.23242 5.91797L8.23242 11.0254C8.23242 11.25 8.10547 11.3867 7.88086 11.3867C7.65625 11.3867 7.50977 11.25 7.50977 11.0254L7.50977 5.92773C6.45508 6.13281 6.07422 7.22656 6.07422 8.48633L6.07422 10.8594C6.07422 11.1816 5.87891 11.3867 5.55664 11.3867Z" fill="var(--color-primary)"/>
 </g>
</svg>
