<?xml version="1.0" encoding="UTF-8"?>
<!--Generator: Apple Native CoreSVG 341-->
<!DOCTYPE svg
PUBLIC "-//W3C//DTD SVG 1.1//EN"
       "http://www.w3.org/Graphics/SVG/1.1/DTD/svg11.dtd">
<svg version="1.1" xmlns="http://www.w3.org/2000/svg" xmlns:xlink="http://www.w3.org/1999/xlink" viewBox="0 0 15.4424 18.0176">
 <g>
  <rect height="18.0176" opacity="0" width="15.4424" x="0" y="0"/>
  <path d="M3.32177 10.5078L4.23974 9.52148L1.44677 4.16016L2.61864 2.38281L5.91942 8.75L7.36474 8.54492L3.46825 1.48438L11.6225 1.48438L7.72607 8.54492L9.17138 8.75L12.4624 2.38281L13.6343 4.16016L10.8413 9.52148L11.7593 10.5078L14.9722 4.64844C15.1284 4.35547 15.1186 4.0332 14.9429 3.75977L12.8237 0.537109C12.6479 0.273438 12.4233 0.166016 12.0815 0.166016L3.00927 0.166016C2.65771 0.166016 2.4331 0.273438 2.25732 0.537109L0.138175 3.75977C-0.0376065 4.0332-0.0473721 4.35547 0.118644 4.64844ZM4.68896 5.14648L10.4116 5.14648L10.4116 3.83789L4.68896 3.83789ZM7.54052 18.0176C10.4018 18.0176 12.7065 15.7031 12.7065 12.8516C12.7065 9.99023 10.4018 7.67578 7.54052 7.67578C4.68896 7.67578 2.3745 9.99023 2.3745 12.8516C2.3745 15.7031 4.68896 18.0176 7.54052 18.0176ZM7.54052 16.6992C5.42138 16.6992 3.69286 14.9805 3.69286 12.8516C3.69286 10.7227 5.41161 8.99414 7.54052 8.99414C9.66942 8.99414 11.3979 10.7129 11.3979 12.8516C11.3979 14.9707 9.66942 16.6992 7.54052 16.6992ZM6.21239 15.2734L7.55028 14.2969L8.88817 15.2734C9.20067 15.5078 9.52294 15.2637 9.41552 14.9121L8.86864 13.3203L10.2261 12.3535C10.519 12.1484 10.4311 11.7383 10.0405 11.7383L8.3706 11.7578L7.86278 10.166C7.75536 9.80469 7.34521 9.80469 7.22802 10.166L6.72021 11.7578L5.06005 11.7383C4.65966 11.7383 4.57177 12.1484 4.86474 12.3535L6.23192 13.3203L5.68505 14.9121C5.56786 15.2637 5.89013 15.5078 6.21239 15.2734Z" fill="white" fill-opacity="0.85"/>
 </g>
</svg>
