<svg version="1.1" xmlns="http://www.w3.org/2000/svg" xmlns:xlink="http://www.w3.org/1999/xlink" viewBox="0 0 16.1328 15.7715">
 <g>
  <rect height="15.7715" opacity="0" width="16.1328" x="0" y="0"/>
  <path d="M7.88086 15.7617C12.2363 15.7617 15.7715 12.2363 15.7715 7.88086C15.7715 3.52539 12.2363 0 7.88086 0C3.53516 0 0 3.52539 0 7.88086C0 12.2363 3.53516 15.7617 7.88086 15.7617ZM7.88086 14.2773C4.3457 14.2773 1.49414 11.416 1.49414 7.88086C1.49414 4.3457 4.3457 1.48438 7.88086 1.48438C11.416 1.48438 14.2773 4.3457 14.2773 7.88086C14.2773 11.416 11.416 14.2773 7.88086 14.2773Z" fill="var(--color-secondary)"/>
  <path d="M7.86133 11.3867C10.3027 11.3867 12.0703 9.91211 12.0703 7.88086C12.0703 5.84961 10.3027 4.38477 7.86133 4.38477C5.43945 4.38477 3.67188 5.84961 3.67188 7.88086C3.67188 9.33594 4.46289 9.72656 4.46289 10.3711C4.46289 10.6348 4.38477 10.8301 4.16016 11.0254C3.98438 11.2012 4.08203 11.3867 4.3457 11.3867C4.85352 11.3867 5.36133 11.2305 5.73242 10.957C6.35742 11.2402 7.08008 11.3867 7.86133 11.3867Z" fill="var(--color-primary)"/>
 </g>
</svg>
