<?xml version="1.0" encoding="UTF-8"?>
<!--Generator: Apple Native CoreSVG 341-->
<!DOCTYPE svg
PUBLIC "-//W3C//DTD SVG 1.1//EN"
       "http://www.w3.org/Graphics/SVG/1.1/DTD/svg11.dtd">
<svg version="1.1" xmlns="http://www.w3.org/2000/svg" xmlns:xlink="http://www.w3.org/1999/xlink" viewBox="0 0 16.1328 15.7715">
 <g>
  <rect height="15.7715" opacity="0" width="16.1328" x="0" y="0"/>
  <path d="M15.7715 7.89062C15.7715 12.2363 12.2363 15.7715 7.88086 15.7715C3.53516 15.7715 0 12.2363 0 7.89062C0 3.54492 3.53516 0.00976562 7.88086 0.00976562C12.2363 0.00976562 15.7715 3.54492 15.7715 7.89062ZM3.52539 7.89062C3.52539 9.4043 4.3457 9.81445 4.3457 10.4688C4.3457 10.752 4.25781 10.957 4.02344 11.1621C3.84766 11.3379 3.95508 11.5332 4.22852 11.5332C4.74609 11.5332 5.2832 11.3672 5.66406 11.084C6.31836 11.377 7.06055 11.5332 7.87109 11.5332C10.4004 11.5332 12.2363 10 12.2363 7.89062C12.2363 5.78125 10.4004 4.25781 7.87109 4.25781C5.35156 4.25781 3.52539 5.78125 3.52539 7.89062Z" fill="white" fill-opacity="0.85"/>
 </g>
</svg>
