<svg version="1.1" xmlns="http://www.w3.org/2000/svg" xmlns:xlink="http://www.w3.org/1999/xlink" viewBox="0 0 16.8652 17.334">
 <g>
  <rect height="17.334" opacity="0" width="16.8652" x="0" y="0"/>
  <path d="M5.29297 8.00781C5.29297 11.0742 7.30469 13.2129 10.2441 13.4961L10.2441 15.0879L7.48047 15.0879C7.11914 15.0879 6.82617 15.3809 6.82617 15.7422C6.82617 16.1133 7.11914 16.4062 7.48047 16.4062L14.3164 16.4062C14.6875 16.4062 14.9805 16.1133 14.9805 15.7422C14.9805 15.3809 14.6875 15.0879 14.3164 15.0879L11.5625 15.0879L11.5625 13.4961C14.4922 13.2129 16.5039 11.0742 16.5039 8.00781L16.5039 6.42578C16.5039 6.05469 16.2109 5.76172 15.8496 5.76172C15.4785 5.76172 15.1855 6.05469 15.1855 6.42578L15.1855 7.94922C15.1855 10.5762 13.4961 12.3047 10.8984 12.3047C8.30078 12.3047 6.61133 10.5762 6.61133 7.94922L6.61133 6.42578C6.61133 6.05469 6.31836 5.76172 5.95703 5.76172C5.58594 5.76172 5.29297 6.05469 5.29297 6.42578ZM10.8984 10.7422C12.4414 10.7422 13.5059 9.60938 13.5059 7.92969L13.5059 2.8125C13.5059 1.13281 12.4414 0 10.8984 0C9.35547 0 8.30078 1.13281 8.30078 2.8125L8.30078 7.92969C8.30078 9.60938 9.35547 10.7422 10.8984 10.7422Z" fill="var(--color-secondary)"/>
  <path d="M1.34766 4.00391C2.08984 4.00391 2.69531 3.39844 2.69531 2.65625C2.69531 1.91406 2.08984 1.30859 1.34766 1.30859C0.605469 1.30859 0 1.91406 0 2.65625C0 3.39844 0.605469 4.00391 1.34766 4.00391Z" fill="var(--color-primary)"/>
  <path d="M1.34766 7.99805C2.08984 7.99805 2.69531 7.39258 2.69531 6.65039C2.69531 5.9082 2.08984 5.30273 1.34766 5.30273C0.605469 5.30273 0 5.9082 0 6.65039C0 7.39258 0.605469 7.99805 1.34766 7.99805Z" fill="var(--color-primary)"/>
  <path d="M1.34766 12.0215C2.08984 12.0215 2.69531 11.416 2.69531 10.6738C2.69531 9.93164 2.08984 9.32617 1.34766 9.32617C0.605469 9.32617 0 9.93164 0 10.6738C0 11.416 0.605469 12.0215 1.34766 12.0215Z" fill="var(--color-primary)"/>
  <path d="M1.34766 16.0156C2.08984 16.0156 2.69531 15.4102 2.69531 14.668C2.69531 13.9258 2.08984 13.3203 1.34766 13.3203C0.605469 13.3203 0 13.9258 0 14.668C0 15.4102 0.605469 16.0156 1.34766 16.0156Z" fill="var(--color-primary)"/>
 </g>
</svg>
