<?xml version="1.0" encoding="UTF-8"?>
<!--Generator: Apple Native CoreSVG 341-->
<!DOCTYPE svg
PUBLIC "-//W3C//DTD SVG 1.1//EN"
       "http://www.w3.org/Graphics/SVG/1.1/DTD/svg11.dtd">
<svg version="1.1" xmlns="http://www.w3.org/2000/svg" xmlns:xlink="http://www.w3.org/1999/xlink" viewBox="0 0 17.6172 17.2754">
 <g>
  <rect height="17.2754" opacity="0" width="17.6172" x="0" y="0"/>
  <path d="M8.63281 17.2656C13.3594 17.2656 17.2559 13.3691 17.2559 8.63281C17.2559 3.89648 13.3594 0 8.63281 0C3.89648 0 0 3.89648 0 8.63281C0 13.3691 3.89648 17.2656 8.63281 17.2656ZM8.63281 14.3555C5.46875 14.3555 2.91016 11.7969 2.91016 8.63281C2.91016 5.46875 5.46875 2.91016 8.63281 2.91016C11.7871 2.91016 14.3457 5.46875 14.3457 8.63281C14.3457 11.7969 11.7871 14.3555 8.63281 14.3555Z" fill="white" fill-opacity="0.85"/>
  <path d="M6.21094 11.1719C6.50391 11.1719 6.65039 10.9766 6.65039 10.7227L6.65039 7.91016C6.65039 7.35352 6.91406 6.81641 7.49023 6.81641C8.00781 6.81641 8.21289 7.20703 8.21289 7.71484L8.21289 10.7227C8.21289 10.9863 8.38867 11.1719 8.64258 11.1719C8.90625 11.1719 9.08203 10.9863 9.08203 10.7227L9.08203 7.87109C9.08203 7.34375 9.3457 6.81641 9.90234 6.81641C10.459 6.81641 10.6445 7.23633 10.6445 7.7832L10.6445 10.7227C10.6445 10.9863 10.8203 11.1719 11.084 11.1719C11.3477 11.1719 11.5332 10.9863 11.5332 10.7227L11.5332 7.56836C11.5332 6.71875 11.123 6.00586 10.166 6.00586C9.56055 6.00586 9.04297 6.36719 8.91602 6.95312L8.89648 6.95312C8.75977 6.33789 8.36914 6.00586 7.74414 6.00586C7.1582 6.00586 6.76758 6.38672 6.64062 6.91406L6.62109 6.91406L6.62109 6.46484C6.62109 6.18164 6.45508 6.01562 6.19141 6.01562C5.92773 6.01562 5.76172 6.18164 5.76172 6.46484L5.76172 10.7227C5.76172 10.9766 5.91797 11.1719 6.21094 11.1719ZM6.36719 13.125C6.51367 13.125 6.57227 13.0566 6.64062 12.9102L10.3809 4.58008C10.4102 4.52148 10.4199 4.46289 10.4199 4.41406C10.4199 4.25781 10.3027 4.16016 10.1562 4.16016C10.0098 4.16016 9.93164 4.24805 9.87305 4.375L6.14258 12.7148C6.11328 12.7734 6.10352 12.8125 6.10352 12.8711C6.10352 13.0273 6.21094 13.125 6.36719 13.125Z" fill="white" fill-opacity="0.85"/>
 </g>
</svg>
