<?xml version="1.0" encoding="UTF-8"?>
<!--Generator: Apple Native CoreSVG 341-->
<!DOCTYPE svg
PUBLIC "-//W3C//DTD SVG 1.1//EN"
       "http://www.w3.org/Graphics/SVG/1.1/DTD/svg11.dtd">
<svg version="1.1" xmlns="http://www.w3.org/2000/svg" xmlns:xlink="http://www.w3.org/1999/xlink" viewBox="0 0 14.5898 14.248">
 <g>
  <rect height="14.248" opacity="0" width="14.5898" x="0" y="0"/>
  <path d="M14.2285 2.4707L14.2285 11.7871C14.2285 13.4277 13.4082 14.248 11.7383 14.248L2.49023 14.248C0.830078 14.248 0 13.4277 0 11.7871L0 2.4707C0 0.830078 0.830078 0.00976562 2.49023 0.00976562L11.7383 0.00976562C13.4082 0.00976562 14.2285 0.830078 14.2285 2.4707ZM8.4082 2.69531L7.32422 5.13672C7.13867 4.6582 6.75781 4.38477 6.19141 4.38477C5.58594 4.38477 5.17578 4.78516 5.04883 5.3418L5.0293 5.3418L5.0293 4.86328C5.0293 4.58008 4.86328 4.39453 4.58984 4.39453C4.30664 4.39453 4.14062 4.58008 4.14062 4.86328L4.14062 9.28711C4.14062 9.56055 4.30664 9.75586 4.59961 9.75586C4.90234 9.75586 5.06836 9.56055 5.06836 9.28711L5.06836 6.36719C5.06836 5.79102 5.33203 5.24414 5.92773 5.24414C6.46484 5.24414 6.67969 5.63477 6.67969 6.16211L6.67969 6.55273L4.53125 11.3574C4.49219 11.416 4.48242 11.4648 4.48242 11.5137C4.48242 11.6797 4.60938 11.7773 4.76562 11.7773C4.91211 11.7773 4.98047 11.709 5.05859 11.5625L6.67969 7.91992L6.67969 9.28711C6.67969 9.56055 6.86523 9.75586 7.12891 9.75586C7.40234 9.75586 7.58789 9.56055 7.58789 9.28711L7.58789 6.32812C7.58789 5.78125 7.86133 5.24414 8.4375 5.24414C9.01367 5.24414 9.19922 5.66406 9.19922 6.23047L9.19922 9.28711C9.19922 9.56055 9.39453 9.75586 9.66797 9.75586C9.94141 9.75586 10.127 9.56055 10.127 9.28711L10.127 6.01562C10.127 5.12695 9.69727 4.38477 8.71094 4.38477C8.54492 4.38477 8.38867 4.42383 8.24219 4.46289L8.93555 2.91016C8.96484 2.85156 8.97461 2.79297 8.97461 2.74414C8.97461 2.57812 8.85742 2.48047 8.69141 2.48047C8.55469 2.48047 8.4668 2.56836 8.4082 2.69531Z" fill="white" fill-opacity="0.85"/>
 </g>
</svg>
