<?xml version="1.0" encoding="UTF-8"?>
<!--Generator: Apple Native CoreSVG 341-->
<!DOCTYPE svg
PUBLIC "-//W3C//DTD SVG 1.1//EN"
       "http://www.w3.org/Graphics/SVG/1.1/DTD/svg11.dtd">
<svg version="1.1" xmlns="http://www.w3.org/2000/svg" xmlns:xlink="http://www.w3.org/1999/xlink" viewBox="0 0 14.5898 14.248">
 <g>
  <rect height="14.248" opacity="0" width="14.5898" x="0" y="0"/>
  <path d="M2.49023 14.248L11.7383 14.248C13.4082 14.248 14.2285 13.4277 14.2285 11.7871L14.2285 2.4707C14.2285 0.830078 13.4082 0.00976562 11.7383 0.00976562L2.49023 0.00976562C0.830078 0.00976562 0 0.830078 0 2.4707L0 11.7871C0 13.4277 0.830078 14.248 2.49023 14.248Z" fill="white" fill-opacity="0.2125"/>
  <path d="M4.59961 9.75586C4.30664 9.75586 4.14062 9.56055 4.14062 9.28711L4.14062 4.86328C4.14062 4.58008 4.30664 4.39453 4.58984 4.39453C4.86328 4.39453 5.0293 4.58008 5.0293 4.86328L5.0293 5.3418L5.04883 5.3418C5.17578 4.78516 5.58594 4.38477 6.19141 4.38477C6.75781 4.38477 7.13867 4.6582 7.32422 5.13672L8.4082 2.69531C8.4668 2.56836 8.55469 2.48047 8.69141 2.48047C8.85742 2.48047 8.97461 2.57812 8.97461 2.74414C8.97461 2.79297 8.96484 2.85156 8.93555 2.91016L8.24219 4.46289C8.38867 4.42383 8.54492 4.38477 8.71094 4.38477C9.69727 4.38477 10.127 5.12695 10.127 6.01562L10.127 9.28711C10.127 9.56055 9.94141 9.75586 9.66797 9.75586C9.39453 9.75586 9.19922 9.56055 9.19922 9.28711L9.19922 6.23047C9.19922 5.66406 9.01367 5.24414 8.4375 5.24414C7.86133 5.24414 7.58789 5.78125 7.58789 6.32812L7.58789 9.28711C7.58789 9.56055 7.40234 9.75586 7.12891 9.75586C6.86523 9.75586 6.67969 9.56055 6.67969 9.28711L6.67969 7.91992L5.05859 11.5625C4.98047 11.709 4.91211 11.7773 4.76562 11.7773C4.60938 11.7773 4.48242 11.6797 4.48242 11.5137C4.48242 11.4648 4.49219 11.416 4.53125 11.3574L6.67969 6.55273L6.67969 6.16211C6.67969 5.63477 6.46484 5.24414 5.92773 5.24414C5.33203 5.24414 5.06836 5.79102 5.06836 6.36719L5.06836 9.28711C5.06836 9.56055 4.90234 9.75586 4.59961 9.75586Z" fill="white" fill-opacity="0.85"/>
 </g>
</svg>
