<?xml version="1.0" encoding="UTF-8"?>
<!--Generator: Apple Native CoreSVG 341-->
<!DOCTYPE svg
PUBLIC "-//W3C//DTD SVG 1.1//EN"
       "http://www.w3.org/Graphics/SVG/1.1/DTD/svg11.dtd">
<svg version="1.1" xmlns="http://www.w3.org/2000/svg" xmlns:xlink="http://www.w3.org/1999/xlink" viewBox="0 0 11.6602 17.9199">
 <g>
  <rect height="17.9199" opacity="0" width="11.6602" x="0" y="0"/>
  <path d="M0.820312 13.916C1.31836 13.916 1.63086 13.5645 1.63086 13.0957L1.63086 7.40234C1.63086 6.31836 2.16797 5.13672 3.34961 5.13672C4.43359 5.13672 4.83398 5.95703 4.83398 6.96289L4.83398 13.0957C4.83398 13.5059 5.05859 13.916 5.64453 13.916C6.18164 13.916 6.45508 13.5352 6.45508 13.0957L6.45508 7.30469C6.45508 6.21094 6.99219 5.13672 8.1543 5.13672C9.3457 5.13672 9.66797 6.03516 9.66797 7.12891L9.66797 13.0957C9.66797 13.4863 9.87305 13.916 10.4883 13.916C10.9961 13.916 11.2988 13.5645 11.2988 13.0957L11.2988 6.76758C11.2988 5.01953 10.4102 3.70117 8.59375 3.70117C7.39258 3.70117 6.37695 4.4043 6.10352 5.60547L6.06445 5.60547C5.82031 4.45312 5.10742 3.70117 3.7793 3.70117C2.54883 3.70117 1.81641 4.51172 1.5918 5.48828L1.54297 5.48828L1.54297 4.54102C1.54297 4.07227 1.24023 3.74023 0.771484 3.74023C0.302734 3.74023 0 4.07227 0 4.54102L0 13.0957C0 13.5352 0.273438 13.916 0.820312 13.916ZM1.04492 17.9004C1.36719 17.9004 1.49414 17.7344 1.61133 17.4512L9.02344 0.849609C9.07227 0.742188 9.10156 0.605469 9.10156 0.498047C9.10156 0.185547 8.85742 0 8.55469 0C8.26172 0 8.0957 0.185547 7.98828 0.439453L0.585938 17.0605C0.527344 17.1973 0.507812 17.3145 0.507812 17.3926C0.507812 17.7344 0.761719 17.9004 1.04492 17.9004Z" fill="white" fill-opacity="0.85"/>
 </g>
</svg>
