<svg version="1.1" xmlns="http://www.w3.org/2000/svg" xmlns:xlink="http://www.w3.org/1999/xlink" viewBox="0 0 13.3691 16.4746">
 <g>
  <rect height="16.4746" opacity="0" width="13.3691" x="0" y="0"/>
  <path d="M0 13.9746C0 15.6445 0.810547 16.4648 2.45117 16.4648L10.5469 16.4648C12.1875 16.4648 13.0078 15.6445 13.0078 13.9746L13.0078 2.49023C13.0078 0.830078 12.1875 0 10.5469 0L2.45117 0C0.810547 0 0 0.830078 0 2.49023Z" fill="var(--color-tertiary)"/>
  <path d="M3.52539 9.00391C3.00781 9.00391 2.65625 8.74023 2.65625 8.25195C2.65625 7.75391 2.98828 7.48047 3.52539 7.48047L9.48242 7.48047C10.0195 7.48047 10.3516 7.75391 10.3516 8.25195C10.3516 8.74023 10 9.00391 9.48242 9.00391Z" fill="var(--color-primary)"/>
 </g>
</svg>
