<?xml version="1.0" encoding="UTF-8"?>
<!--Generator: Apple Native CoreSVG 341-->
<!DOCTYPE svg
PUBLIC "-//W3C//DTD SVG 1.1//EN"
       "http://www.w3.org/Graphics/SVG/1.1/DTD/svg11.dtd">
<svg version="1.1" xmlns="http://www.w3.org/2000/svg" xmlns:xlink="http://www.w3.org/1999/xlink" viewBox="0 0 16.1328 15.7715">
 <g>
  <rect height="15.7715" opacity="0" width="16.1328" x="0" y="0"/>
  <path d="M7.88086 15.7715C12.2363 15.7715 15.7715 12.2363 15.7715 7.89062C15.7715 3.54492 12.2363 0.00976562 7.88086 0.00976562C3.53516 0.00976562 0 3.54492 0 7.89062C0 12.2363 3.53516 15.7715 7.88086 15.7715Z" fill="white" fill-opacity="0.2125"/>
  <path d="M7.75391 12.4512C5.33203 12.4512 3.49609 10.752 3.49609 8.32031C3.49609 6.60156 4.52148 4.98047 6.03516 4.36523C6.41602 4.20898 6.64062 4.45312 6.49414 4.76562C6.37695 5.09766 6.24023 5.79102 6.24023 6.20117C6.24023 8.41797 7.63672 9.77539 9.84375 9.77539C10.3223 9.77539 10.8203 9.66797 11.1328 9.56055C11.4941 9.45312 11.6699 9.72656 11.5234 10.0488C10.9863 11.3672 9.52148 12.4512 7.75391 12.4512ZM10.1855 7.53906C10.0781 7.53906 10 7.44141 9.99023 7.33398C9.81445 5.92773 9.73633 5.9082 8.26172 5.63477C8.1543 5.625 8.08594 5.54688 8.08594 5.42969C8.08594 5.32227 8.1543 5.24414 8.26172 5.23438C9.73633 5.04883 9.81445 4.98047 9.99023 3.53516C10 3.41797 10.0781 3.33008 10.1855 3.33008C10.2832 3.33008 10.3711 3.41797 10.3809 3.53516C10.5664 4.95117 10.6543 4.95117 12.1094 5.23438C12.207 5.24414 12.2852 5.32227 12.2852 5.42969C12.2852 5.55664 12.207 5.625 12.0898 5.63477C10.6445 5.84961 10.5566 5.9082 10.3809 7.33398C10.3711 7.44141 10.2832 7.53906 10.1855 7.53906Z" fill="white" fill-opacity="0.85"/>
 </g>
</svg>
