<svg version="1.1" xmlns="http://www.w3.org/2000/svg" xmlns:xlink="http://www.w3.org/1999/xlink" viewBox="0 0 15.8203 15.5957">
 <g>
  <rect height="15.5957" opacity="0" width="15.8203" x="0" y="0"/>
  <path d="M8.08594 15.5957C11.4551 15.5957 14.1602 13.5645 15.3613 11.0352C15.6543 10.4199 15.2539 10.0293 14.6973 10.1953C14.1113 10.3809 13.1934 10.5273 12.4219 10.5273C7.8418 10.5273 5.20508 7.90039 5.20508 3.32031C5.20508 2.51953 5.40039 1.50391 5.64453 0.869141C5.89844 0.224609 5.44922-0.166016 4.84375 0.107422C1.92383 1.39648 0 4.28711 0 7.50977C0 11.9727 3.62305 15.5957 8.08594 15.5957ZM8.08594 14.248C4.375 14.248 1.35742 11.2207 1.35742 7.50977C1.35742 5.39062 2.36328 3.45703 3.94531 2.2168C3.88672 2.59766 3.85742 2.95898 3.85742 3.32031C3.85742 8.65234 7.08984 11.8848 12.4219 11.8848C12.6953 11.8848 12.9785 11.8652 13.2324 11.8359C12.0508 13.252 10.2344 14.248 8.08594 14.248Z" fill="var(--color-primary)"/>
 </g>
</svg>
