<?xml version="1.0" encoding="UTF-8"?>
<!--Generator: Apple Native CoreSVG 341-->
<!DOCTYPE svg
PUBLIC "-//W3C//DTD SVG 1.1//EN"
       "http://www.w3.org/Graphics/SVG/1.1/DTD/svg11.dtd">
<svg version="1.1" xmlns="http://www.w3.org/2000/svg" xmlns:xlink="http://www.w3.org/1999/xlink" viewBox="0 0 18.0273 17.5879">
 <g>
  <rect height="17.5879" opacity="0" width="18.0273" x="0" y="0"/>
  <path d="M15.0098 9.0332C15.166 9.0332 15.2832 8.91602 15.3027 8.75C15.5273 6.70898 15.6543 6.63086 17.7246 6.30859C17.9199 6.2793 18.0273 6.19141 18.0273 6.01562C18.0273 5.85938 17.9199 5.75195 17.7637 5.73242C15.6738 5.33203 15.5273 5.33203 15.3027 3.29102C15.2832 3.11523 15.166 3.00781 15.0098 3.00781C14.8438 3.00781 14.7363 3.11523 14.7168 3.28125C14.4629 5.36133 14.3652 5.45898 12.2461 5.73242C12.0996 5.74219 11.9824 5.85938 11.9824 6.01562C11.9824 6.18164 12.0996 6.2793 12.2461 6.30859C14.3652 6.70898 14.4531 6.72852 14.7168 8.76953C14.7363 8.91602 14.8438 9.0332 15.0098 9.0332ZM11.3477 3.75C11.4453 3.75 11.5039 3.69141 11.5234 3.59375C11.7773 2.33398 11.748 2.31445 13.0664 2.05078C13.1543 2.03125 13.2227 1.98242 13.2227 1.875C13.2227 1.76758 13.1543 1.71875 13.0664 1.69922C11.748 1.43555 11.7773 1.41602 11.5234 0.15625C11.5039 0.0585938 11.4453 0 11.3477 0C11.2402 0 11.1816 0.0585938 11.1621 0.15625C10.9082 1.41602 10.9375 1.43555 9.62891 1.69922C9.53125 1.71875 9.46289 1.76758 9.46289 1.875C9.46289 1.98242 9.53125 2.03125 9.62891 2.05078C10.9375 2.31445 10.918 2.33398 11.1621 3.59375C11.1816 3.69141 11.2402 3.75 11.3477 3.75Z" fill="white" fill-opacity="0.85"/>
  <path d="M9.17969 16.0938C11.9629 16.0938 14.1992 14.4141 15.1855 12.3242C15.4395 11.8066 15.1074 11.4941 14.6484 11.6309C14.1602 11.7871 13.4082 11.9043 12.7637 11.9043C8.99414 11.9043 6.81641 9.72656 6.81641 5.94727C6.81641 5.2832 6.97266 4.44336 7.17773 3.93555C7.39258 3.38867 7.01172 3.07617 6.50391 3.30078C4.10156 4.36523 2.50977 6.75781 2.50977 9.41406C2.50977 13.1055 5.49805 16.0938 9.17969 16.0938Z" fill="white" fill-opacity="0.85"/>
 </g>
</svg>
