<svg version="1.1" xmlns="http://www.w3.org/2000/svg" xmlns:xlink="http://www.w3.org/1999/xlink" viewBox="0 0 16.1328 15.7715">
 <g>
  <rect height="15.7715" opacity="0" width="16.1328" x="0" y="0"/>
  <path d="M7.88086 15.7715C12.2363 15.7715 15.7715 12.2363 15.7715 7.89062C15.7715 3.54492 12.2363 0.00976562 7.88086 0.00976562C3.53516 0.00976562 0 3.54492 0 7.89062C0 12.2363 3.53516 15.7715 7.88086 15.7715Z" fill="var(--color-tertiary)"/>
  <path d="M7.97852 12.5195C5.49805 12.5195 3.49609 10.5078 3.49609 8.03711C3.49609 6.17188 4.63867 4.57031 6.28906 3.88672C6.36719 3.84766 6.46484 3.82812 6.55273 3.82812C6.72852 3.82812 6.8457 3.94531 6.8457 4.10156C6.8457 4.16992 6.82617 4.22852 6.80664 4.30664C6.58203 4.84375 6.47461 5.41992 6.47461 5.98633C6.47461 8.20312 7.92969 9.61914 10.2344 9.61914C10.752 9.61914 11.2598 9.48242 11.5918 9.39453C11.6895 9.36523 11.7578 9.35547 11.8164 9.35547C11.9434 9.35547 12.0996 9.46289 12.0996 9.64844C12.0996 9.67773 12.0898 9.79492 12.041 9.91211C11.416 11.3184 9.89258 12.5195 7.97852 12.5195Z" fill="var(--color-primary)"/>
 </g>
</svg>
