<?xml version="1.0" encoding="UTF-8"?>
<!--Generator: Apple Native CoreSVG 341-->
<!DOCTYPE svg
PUBLIC "-//W3C//DTD SVG 1.1//EN"
       "http://www.w3.org/Graphics/SVG/1.1/DTD/svg11.dtd">
<svg version="1.1" xmlns="http://www.w3.org/2000/svg" xmlns:xlink="http://www.w3.org/1999/xlink" viewBox="0 0 15.6378 16.2458">
 <g>
  <rect height="16.2458" opacity="0" width="15.6378" x="0" y="0"/>
  <path d="M7.87262 15.618C8.29254 15.618 8.62457 15.286 8.62457 14.8661L8.62457 9.22154L10.8804 7.13169C11.7496 7.22935 12.648 6.88755 13.4097 6.12583L9.15192 1.85825C8.3902 2.61997 8.0484 3.51841 8.15582 4.38755L1.03668 12.034C0.75348 12.3563 0.675355 12.8153 1.02692 13.1668L0.0796524 14.4168C-0.0277695 14.5536-0.0375351 14.7684 0.118715 14.9344L0.343324 15.159C0.499574 15.3055 0.704652 15.3153 0.860902 15.1883L2.1109 14.2411C2.4527 14.5926 2.92145 14.5145 3.23395 14.2215L7.1109 10.6278L7.1109 14.8661C7.1109 15.286 7.4527 15.618 7.87262 15.618ZM1.96442 12.7176L8.63434 5.65708C8.76129 5.85239 8.89801 6.02818 9.07379 6.20396C9.23981 6.36997 9.41559 6.52622 9.59137 6.64341L2.56012 13.3133ZM9.99176 1.00864L14.2496 5.27622C15.5777 3.95786 15.6265 2.21958 14.3277 0.940286C13.0484-0.339011 11.3199-0.309714 9.99176 1.00864Z" fill="white" fill-opacity="0.85"/>
 </g>
</svg>
