<?xml version="1.0" encoding="UTF-8"?>
<!--Generator: Apple Native CoreSVG 341-->
<!DOCTYPE svg
PUBLIC "-//W3C//DTD SVG 1.1//EN"
       "http://www.w3.org/Graphics/SVG/1.1/DTD/svg11.dtd">
<svg version="1.1" xmlns="http://www.w3.org/2000/svg" xmlns:xlink="http://www.w3.org/1999/xlink" viewBox="0 0 16.1328 18.7687">
 <g>
  <rect height="18.7687" opacity="0" width="16.1328" x="0" y="0"/>
  <path d="M6.36719 0.609959L6.36719 4.16465C6.36719 4.77011 6.77734 4.92636 7.23633 4.6041L9.7168 2.86582C10.0977 2.59238 10.1074 2.19199 9.7168 1.91855L7.24609 0.170505C6.77734-0.161526 6.36719-0.00527584 6.36719 0.609959ZM7.88086 17.2603C12.2363 17.2603 15.7715 13.735 15.7715 9.37949C15.7715 6.78183 14.5312 4.53574 12.6172 3.08066C12.2363 2.78769 11.7285 2.88535 11.5137 3.24668C11.2891 3.60801 11.4062 4.01816 11.7578 4.2916C13.2812 5.45371 14.2773 7.28965 14.2773 9.37949C14.2773 12.9146 11.416 15.776 7.88086 15.776C4.3457 15.776 1.49414 12.9146 1.49414 9.37949C1.49414 5.84433 4.3457 2.98301 7.88086 2.98301C8.29102 2.98301 8.62305 2.65097 8.62305 2.24082C8.62305 1.83066 8.30078 1.5084 7.89062 1.49863C3.52539 1.5084 0 5.02402 0 9.37949C0 13.735 3.53516 17.2603 7.88086 17.2603Z" fill="white" fill-opacity="0.425"/>
  <path d="M10.4004 7.89511C10.8008 7.80722 10.9277 7.70957 10.9277 7.23105L10.9277 5.58066C10.9277 5.2584 10.8105 5.12168 10.3711 5.23886L7.92969 5.84433C7.51953 5.94199 7.43164 6.02988 7.43164 6.51816L7.43164 10.151C7.43164 10.5221 7.40234 10.5904 6.98242 10.7076L6.23047 10.9029C5.47852 11.0885 4.84375 11.5475 4.84375 12.358C4.84375 13.0611 5.38086 13.5689 6.21094 13.5689C7.40234 13.5689 8.22266 12.7193 8.22266 11.5279L8.22266 8.78379C8.22266 8.48105 8.29102 8.39316 8.4668 8.3541Z" fill="white" fill-opacity="0.85"/>
 </g>
</svg>
