<?xml version="1.0" encoding="UTF-8"?>
<!--Generator: Apple Native CoreSVG 341-->
<!DOCTYPE svg
PUBLIC "-//W3C//DTD SVG 1.1//EN"
       "http://www.w3.org/Graphics/SVG/1.1/DTD/svg11.dtd">
<svg version="1.1" xmlns="http://www.w3.org/2000/svg" xmlns:xlink="http://www.w3.org/1999/xlink" viewBox="0 0 19.0137 16.2793">
 <g>
  <rect height="16.2793" opacity="0" width="19.0137" x="0" y="0"/>
  <path d="M0.761719 8.42773C1.00586 8.42773 1.21094 8.29102 1.38672 8.14453L9.07227 1.68945C9.15039 1.62109 9.24805 1.5918 9.32617 1.5918C9.4043 1.5918 9.49219 1.62109 9.57031 1.68945L17.2656 8.14453C17.4414 8.29102 17.6465 8.42773 17.8906 8.42773C18.3691 8.42773 18.6523 8.08594 18.6523 7.72461C18.6523 7.5293 18.5645 7.31445 18.3789 7.1582L10.3027 0.380859C9.99023 0.126953 9.6582 0 9.32617 0C8.99414 0 8.65234 0.126953 8.34961 0.380859L0.273438 7.1582C0.0878906 7.31445 0 7.5293 0 7.72461C0 8.08594 0.283203 8.42773 0.761719 8.42773ZM14.2188 4.02344L16.3281 5.80078L16.3281 2.26562C16.3281 1.89453 16.084 1.66016 15.7129 1.66016L14.834 1.66016C14.4727 1.66016 14.2188 1.89453 14.2188 2.26562ZM4.13086 16.2695L14.5117 16.2695C15.6543 16.2695 16.3281 15.6152 16.3281 14.502L16.3281 6.00586L14.9121 5.06836L14.9121 14.1406C14.9121 14.5996 14.6582 14.8633 14.2188 14.8633L4.43359 14.8633C3.99414 14.8633 3.73047 14.5996 3.73047 14.1406L3.73047 5.06836L2.32422 6.00586L2.32422 14.502C2.32422 15.6152 2.99805 16.2695 4.13086 16.2695Z" fill="white" fill-opacity="0.425"/>
  <path d="M11.5527 8.21289C11.9336 8.125 12.0508 8.03711 12.0508 7.57812L12.0508 6.01562C12.0508 5.71289 11.9434 5.57617 11.5234 5.68359L9.20898 6.25977C8.81836 6.35742 8.73047 6.43555 8.73047 6.9043L8.73047 10.3613C8.73047 10.7129 8.70117 10.7812 8.30078 10.8887L7.58789 11.0742C6.875 11.2598 6.26953 11.6797 6.26953 12.4609C6.26953 13.125 6.77734 13.6133 7.56836 13.6133C8.69141 13.6133 9.47266 12.8027 9.47266 11.6602L9.47266 9.0625C9.47266 8.76953 9.54102 8.70117 9.7168 8.66211Z" fill="white" fill-opacity="0.85"/>
 </g>
</svg>
