<?xml version="1.0" encoding="UTF-8"?>
<!--Generator: Apple Native CoreSVG 341-->
<!DOCTYPE svg
PUBLIC "-//W3C//DTD SVG 1.1//EN"
       "http://www.w3.org/Graphics/SVG/1.1/DTD/svg11.dtd">
<svg version="1.1" xmlns="http://www.w3.org/2000/svg" xmlns:xlink="http://www.w3.org/1999/xlink" viewBox="0 0 22.2656 8.21289">
 <g>
  <rect height="8.21289" opacity="0" width="22.2656" x="0" y="0"/>
  <path d="M0 3.81836C0 6.29883 2.5293 8.21289 5.74219 8.21289C8.01758 8.21289 9.85352 7.41211 10.9473 5.9375C12.0508 7.41211 13.877 8.21289 16.1621 8.21289C19.375 8.21289 21.9043 6.29883 21.9043 3.81836C21.9043 2.92969 21.6309 2.39258 21.1133 2.39258C20.918 2.39258 20.7129 2.50977 20.5859 2.70508C20.2148 3.26172 19.5508 3.57422 18.7305 3.57422C16.4258 3.57422 15.7324 0.791016 12.9883 0.791016C11.4746 0.791016 10.4395 1.68945 10.3027 3.16406L11.5918 3.16406C11.4551 1.68945 10.4199 0.791016 8.90625 0.791016C6.16211 0.791016 5.47852 3.57422 3.17383 3.57422C2.41211 3.57422 1.75781 3.27148 1.29883 2.69531C1.15234 2.50977 0.976562 2.39258 0.791016 2.39258C0.263672 2.39258 0 2.92969 0 3.81836Z" fill="white" fill-opacity="0.85"/>
 </g>
</svg>
