<svg version="1.1" xmlns="http://www.w3.org/2000/svg" xmlns:xlink="http://www.w3.org/1999/xlink" viewBox="0 0 16.1328 15.7715">
 <g>
  <rect height="15.7715" opacity="0" width="16.1328" x="0" y="0"/>
  <path d="M7.88086 15.7617C12.2363 15.7617 15.7715 12.2266 15.7715 7.88086C15.7715 3.53516 12.2363 0 7.88086 0C3.53516 0 0 3.53516 0 7.88086C0 12.2266 3.53516 15.7617 7.88086 15.7617Z" fill="var(--color-tertiary)"/>
  <path d="M5.49805 11.543C5.06836 11.543 4.82422 11.2598 4.82422 10.8203L4.82422 4.77539C4.82422 4.32617 5.07812 4.04297 5.49805 4.04297C5.79102 4.04297 5.98633 4.15039 6.20117 4.46289L9.53125 9.15039L9.59961 9.15039L9.59961 4.76562C9.59961 4.32617 9.84375 4.04297 10.2539 4.04297C10.6836 4.04297 10.9375 4.30664 10.9375 4.76562L10.9375 10.8105C10.9375 11.2793 10.6836 11.543 10.2441 11.543C9.96094 11.543 9.78516 11.4355 9.56055 11.123L6.23047 6.5332L6.17188 6.5332L6.17188 10.8203C6.17188 11.2793 5.91797 11.543 5.49805 11.543Z" fill="var(--color-primary)"/>
 </g>
</svg>
