<?xml version="1.0" encoding="UTF-8"?>
<!--Generator: Apple Native CoreSVG 341-->
<!DOCTYPE svg
PUBLIC "-//W3C//DTD SVG 1.1//EN"
       "http://www.w3.org/Graphics/SVG/1.1/DTD/svg11.dtd">
<svg version="1.1" xmlns="http://www.w3.org/2000/svg" xmlns:xlink="http://www.w3.org/1999/xlink" viewBox="0 0 16.1328 15.7715">
 <g>
  <rect height="15.7715" opacity="0" width="16.1328" x="0" y="0"/>
  <path d="M7.88086 15.7617C12.2363 15.7617 15.7715 12.2363 15.7715 7.88086C15.7715 3.52539 12.2363 0 7.88086 0C3.53516 0 0 3.52539 0 7.88086C0 12.2363 3.53516 15.7617 7.88086 15.7617ZM7.88086 14.2773C4.3457 14.2773 1.49414 11.416 1.49414 7.88086C1.49414 4.3457 4.3457 1.48438 7.88086 1.48438C11.416 1.48438 14.2773 4.3457 14.2773 7.88086C14.2773 11.416 11.416 14.2773 7.88086 14.2773Z" fill="white" fill-opacity="0.85"/>
  <path d="M5.56641 11.3965C5.98633 11.3965 6.23047 11.1426 6.23047 10.7031L6.23047 6.58203L6.2793 6.58203L9.49219 11.0059C9.70703 11.3086 9.88281 11.3965 10.1562 11.3965C10.5762 11.3965 10.8203 11.1426 10.8203 10.7031L10.8203 4.88281C10.8203 4.44336 10.5762 4.18945 10.1562 4.18945C9.75586 4.18945 9.52148 4.46289 9.52148 4.88281L9.52148 9.10156L9.46289 9.10156L6.25977 4.58984C6.04492 4.27734 5.84961 4.18945 5.57617 4.18945C5.16602 4.18945 4.93164 4.46289 4.93164 4.89258L4.93164 10.7031C4.93164 11.1328 5.16602 11.3965 5.56641 11.3965Z" fill="white" fill-opacity="0.85"/>
 </g>
</svg>
