<?xml version="1.0" encoding="UTF-8"?>
<!--Generator: Apple Native CoreSVG 341-->
<!DOCTYPE svg
PUBLIC "-//W3C//DTD SVG 1.1//EN"
       "http://www.w3.org/Graphics/SVG/1.1/DTD/svg11.dtd">
<svg version="1.1" xmlns="http://www.w3.org/2000/svg" xmlns:xlink="http://www.w3.org/1999/xlink" viewBox="0 0 14.5898 14.248">
 <g>
  <rect height="14.248" opacity="0" width="14.5898" x="0" y="0"/>
  <path d="M2.49023 14.248L11.7383 14.248C13.4082 14.248 14.2285 13.4277 14.2285 11.7871L14.2285 2.4707C14.2285 0.830078 13.4082 0.00976562 11.7383 0.00976562L2.49023 0.00976562C0.830078 0.00976562 0 0.830078 0 2.4707L0 11.7871C0 13.4277 0.830078 14.248 2.49023 14.248Z" fill="white" fill-opacity="0.2125"/>
  <path d="M4.72656 10.7812C4.30664 10.7812 4.0625 10.498 4.0625 10.0586L4.0625 4.01367C4.0625 3.56445 4.30664 3.28125 4.73633 3.28125C5.01953 3.28125 5.21484 3.38867 5.43945 3.70117L8.75977 8.38867L8.82812 8.38867L8.82812 4.00391C8.82812 3.56445 9.07227 3.28125 9.48242 3.28125C9.91211 3.28125 10.166 3.54492 10.166 4.00391L10.166 10.0488C10.166 10.5176 9.91211 10.7812 9.48242 10.7812C9.18945 10.7812 9.01367 10.6738 8.79883 10.3613L5.45898 5.77148L5.40039 5.77148L5.40039 10.0586C5.40039 10.5176 5.14648 10.7812 4.72656 10.7812Z" fill="white" fill-opacity="0.85"/>
 </g>
</svg>
