<?xml version="1.0" encoding="UTF-8"?>
<!--Generator: Apple Native CoreSVG 341-->
<!DOCTYPE svg
PUBLIC "-//W3C//DTD SVG 1.1//EN"
       "http://www.w3.org/Graphics/SVG/1.1/DTD/svg11.dtd">
<svg version="1.1" xmlns="http://www.w3.org/2000/svg" xmlns:xlink="http://www.w3.org/1999/xlink" viewBox="0 0 12.3242 14.2871">
 <g>
  <rect height="14.2871" opacity="0" width="12.3242" x="0" y="0"/>
  <path d="M2.16797 14.2676C2.70508 14.2676 3.04688 13.916 3.04688 13.3691L3.04688 3.1543L3.13477 3.1543L8.20312 13.3887C8.4375 13.8672 8.82812 14.2676 9.48242 14.2676C10.2148 14.2676 10.6543 13.7988 10.6543 13.125L10.6543 0.888672C10.6543 0.341797 10.332 0 9.79492 0C9.25781 0 8.93555 0.341797 8.93555 0.888672L8.93555 11.1426L8.84766 11.1426L3.76953 0.878906C3.49609 0.322266 3.10547 0 2.48047 0C1.79688 0 1.31836 0.449219 1.31836 1.14258L1.31836 13.3691C1.31836 13.916 1.65039 14.2676 2.16797 14.2676ZM0 7.13867C0 7.45117 0.253906 7.70508 0.566406 7.70508L11.4062 7.70508C11.709 7.70508 11.9629 7.45117 11.9629 7.13867C11.9629 6.83594 11.709 6.58203 11.4062 6.58203L0.566406 6.58203C0.253906 6.58203 0 6.83594 0 7.13867Z" fill="white" fill-opacity="0.85"/>
 </g>
</svg>
