<?xml version="1.0" encoding="UTF-8"?>
<!--Generator: Apple Native CoreSVG 341-->
<!DOCTYPE svg
PUBLIC "-//W3C//DTD SVG 1.1//EN"
       "http://www.w3.org/Graphics/SVG/1.1/DTD/svg11.dtd">
<svg version="1.1" xmlns="http://www.w3.org/2000/svg" xmlns:xlink="http://www.w3.org/1999/xlink" viewBox="0 0 14.5898 14.248">
 <g>
  <rect height="14.248" opacity="0" width="14.5898" x="0" y="0"/>
  <path d="M2.49023 14.248L11.7383 14.248C13.4082 14.248 14.2285 13.4277 14.2285 11.7871L14.2285 2.4707C14.2285 0.830078 13.4082 0.00976562 11.7383 0.00976562L2.49023 0.00976562C0.830078 0.00976562 0 0.830078 0 2.4707L0 11.7871C0 13.4277 0.830078 14.248 2.49023 14.248ZM2.50977 12.832C1.80664 12.832 1.40625 12.4512 1.40625 11.7188L1.40625 2.53906C1.40625 1.79688 1.80664 1.42578 2.50977 1.42578L11.7188 1.42578C12.4219 1.42578 12.8223 1.79688 12.8223 2.53906L12.8223 11.7188C12.8223 12.4512 12.4219 12.832 11.7188 12.832Z" fill="white" fill-opacity="0.425"/>
  <path d="M4.55078 10.2148C4.82422 10.2148 5.00977 10.0195 5.00977 9.72656L5.00977 8.53516L5.43945 8.125L6.76758 9.9707C6.875 10.127 7.00195 10.2148 7.19727 10.2148C7.44141 10.2148 7.63672 10.0391 7.63672 9.80469C7.63672 9.67773 7.57812 9.57031 7.50977 9.47266L6.11328 7.54883L7.40234 6.20117C7.50977 6.07422 7.56836 6.00586 7.56836 5.85938C7.56836 5.64453 7.39258 5.44922 7.1582 5.44922C7.02148 5.44922 6.875 5.53711 6.78711 5.63477L5.0293 7.54883L5.00977 7.54883L5.00977 4.16992C5.00977 3.87695 4.82422 3.66211 4.55078 3.66211C4.27734 3.66211 4.07227 3.86719 4.07227 4.16016L4.07227 9.72656C4.07227 10.0195 4.27734 10.2148 4.55078 10.2148ZM8.91602 10.2148C9.11133 10.2148 9.35547 10.0977 9.35547 9.72656L9.35547 7.42188C9.35547 6.89453 9.56055 6.34766 10.1953 6.34766C10.3613 6.34766 10.5273 6.32812 10.6445 6.24023C10.7422 6.17188 10.8008 6.07422 10.8008 5.91797C10.8008 5.625 10.5859 5.44922 10.293 5.44922C9.81445 5.44922 9.47266 5.86914 9.36523 6.35742L9.32617 6.35742L9.32617 5.92773C9.32617 5.6543 9.13086 5.44922 8.89648 5.44922C8.65234 5.44922 8.45703 5.6543 8.45703 5.92773L8.45703 9.72656C8.45703 10.0195 8.62305 10.2148 8.91602 10.2148Z" fill="white" fill-opacity="0.85"/>
 </g>
</svg>
