<?xml version="1.0" encoding="UTF-8"?>
<!--Generator: Apple Native CoreSVG 341-->
<!DOCTYPE svg
PUBLIC "-//W3C//DTD SVG 1.1//EN"
       "http://www.w3.org/Graphics/SVG/1.1/DTD/svg11.dtd">
<svg version="1.1" xmlns="http://www.w3.org/2000/svg" xmlns:xlink="http://www.w3.org/1999/xlink" viewBox="0 0 17.6172 17.2754">
 <g>
  <rect height="17.2754" opacity="0" width="17.6172" x="0" y="0"/>
  <path d="M8.63281 17.2656C13.3594 17.2656 17.2559 13.3691 17.2559 8.63281C17.2559 3.89648 13.3594 0 8.63281 0C3.89648 0 0 3.89648 0 8.63281C0 13.3691 3.89648 17.2656 8.63281 17.2656ZM8.63281 14.3555C5.46875 14.3555 2.91016 11.7969 2.91016 8.63281C2.91016 5.46875 5.46875 2.91016 8.63281 2.91016C11.7871 2.91016 14.3457 5.46875 14.3457 8.63281C14.3457 11.7969 11.7871 14.3555 8.63281 14.3555Z" fill="white" fill-opacity="0.425"/>
  <path d="M6.06445 11.7285C6.33789 11.7285 6.52344 11.5332 6.52344 11.2402L6.52344 10.0488L6.95312 9.63867L8.28125 11.4844C8.38867 11.6406 8.51562 11.7285 8.71094 11.7285C8.95508 11.7285 9.15039 11.5527 9.15039 11.3184C9.15039 11.1914 9.0918 11.084 9.02344 10.9863L7.62695 9.0625L8.91602 7.71484C9.02344 7.58789 9.08203 7.51953 9.08203 7.37305C9.08203 7.1582 8.90625 6.96289 8.67188 6.96289C8.53516 6.96289 8.38867 7.05078 8.30078 7.14844L6.54297 9.0625L6.52344 9.0625L6.52344 5.68359C6.52344 5.39062 6.33789 5.17578 6.06445 5.17578C5.79102 5.17578 5.58594 5.38086 5.58594 5.67383L5.58594 11.2402C5.58594 11.5332 5.79102 11.7285 6.06445 11.7285ZM10.4297 11.7285C10.625 11.7285 10.8691 11.6113 10.8691 11.2402L10.8691 8.93555C10.8691 8.4082 11.0742 7.86133 11.6992 7.86133C11.875 7.86133 12.041 7.8418 12.1582 7.75391C12.2559 7.68555 12.3145 7.58789 12.3145 7.43164C12.3145 7.13867 12.0996 6.96289 11.8066 6.96289C11.3281 6.96289 10.9863 7.38281 10.8789 7.87109L10.8301 7.87109L10.8301 7.44141C10.8301 7.16797 10.6445 6.96289 10.4102 6.96289C10.166 6.96289 9.9707 7.16797 9.9707 7.44141L9.9707 11.2402C9.9707 11.5332 10.1367 11.7285 10.4297 11.7285Z" fill="white" fill-opacity="0.85"/>
 </g>
</svg>
