<?xml version="1.0" encoding="UTF-8"?>
<!--Generator: Apple Native CoreSVG 341-->
<!DOCTYPE svg
PUBLIC "-//W3C//DTD SVG 1.1//EN"
       "http://www.w3.org/Graphics/SVG/1.1/DTD/svg11.dtd">
<svg version="1.1" xmlns="http://www.w3.org/2000/svg" xmlns:xlink="http://www.w3.org/1999/xlink" viewBox="0 0 14.5898 14.248">
 <g>
  <rect height="14.248" opacity="0" width="14.5898" x="0" y="0"/>
  <path d="M2.49023 14.248L11.7383 14.248C13.4082 14.248 14.2285 13.4277 14.2285 11.7871L14.2285 2.4707C14.2285 0.830078 13.4082 0.00976562 11.7383 0.00976562L2.49023 0.00976562C0.830078 0.00976562 0 0.830078 0 2.4707L0 11.7871C0 13.4277 0.830078 14.248 2.49023 14.248ZM2.50977 12.832C1.80664 12.832 1.40625 12.4512 1.40625 11.7188L1.40625 2.53906C1.40625 1.79688 1.80664 1.42578 2.50977 1.42578L11.7188 1.42578C12.4219 1.42578 12.8223 1.79688 12.8223 2.53906L12.8223 11.7188C12.8223 12.4512 12.4219 12.832 11.7188 12.832Z" fill="white" fill-opacity="0.85"/>
  <path d="M5.09766 10.9277C5.43945 10.9277 5.64453 10.7617 5.71289 10.4395L6.04492 8.84766L7.40234 8.84766L7.10938 10.2832C7.03125 10.6348 7.27539 10.9277 7.62695 10.9277C7.97852 10.9277 8.20312 10.7617 8.27148 10.4395L8.60352 8.84766L9.35547 8.84766C9.6875 8.84766 9.93164 8.59375 9.93164 8.26172C9.93164 7.96875 9.72656 7.75391 9.44336 7.75391L8.82812 7.75391L9.15039 6.26953L9.90234 6.26953C10.2344 6.26953 10.4785 6.01562 10.4785 5.68359C10.4785 5.40039 10.2734 5.17578 9.99023 5.17578L9.375 5.17578L9.64844 3.81836C9.7168 3.4668 9.46289 3.16406 9.11133 3.16406C8.7793 3.16406 8.55469 3.33984 8.49609 3.66211L8.17383 5.17578L6.81641 5.17578L7.09961 3.81836C7.16797 3.47656 6.92383 3.16406 6.5625 3.16406C6.23047 3.16406 6.01562 3.33984 5.94727 3.66211L5.625 5.17578L4.87305 5.17578C4.54102 5.17578 4.29688 5.42969 4.29688 5.76172C4.29688 6.05469 4.50195 6.26953 4.78516 6.26953L5.39062 6.26953L5.08789 7.75391L4.32617 7.75391C3.99414 7.75391 3.75 8.00781 3.75 8.33008C3.75 8.62305 3.95508 8.84766 4.23828 8.84766L4.86328 8.84766L4.56055 10.2832C4.49219 10.6348 4.74609 10.9277 5.09766 10.9277ZM6.20117 7.86133L6.54297 6.18164L8.04688 6.18164L7.68555 7.86133Z" fill="white" fill-opacity="0.85"/>
 </g>
</svg>
