<?xml version="1.0" encoding="UTF-8"?>
<!--Generator: Apple Native CoreSVG 341-->
<!DOCTYPE svg
PUBLIC "-//W3C//DTD SVG 1.1//EN"
       "http://www.w3.org/Graphics/SVG/1.1/DTD/svg11.dtd">
<svg version="1.1" xmlns="http://www.w3.org/2000/svg" xmlns:xlink="http://www.w3.org/1999/xlink" viewBox="0 0 16.1328 15.7715">
 <g>
  <rect height="15.7715" opacity="0" width="16.1328" x="0" y="0"/>
  <path d="M5.625 15.4199C6.34766 15.6445 7.10938 15.7617 7.88086 15.7617C12.2363 15.7617 15.7715 12.2363 15.7715 7.88086C15.7715 7.10938 15.6543 6.36719 15.4395 5.66406L11.3184 7.11914C11.377 7.36328 11.4062 7.61719 11.4062 7.88086C11.4062 9.83398 9.83398 11.3965 7.89062 11.4062C7.60742 11.4062 7.34375 11.377 7.08008 11.3184ZM15.2051 4.98047C14.9805 4.42383 14.7168 3.90625 14.375 3.39844L10.8984 6.09375C10.9766 6.21094 11.0352 6.32812 11.084 6.45508ZM13.9355 2.8418C13.1055 1.8457 12.0801 1.09375 10.8789 0.595703L9.4043 4.73633C9.80469 4.92188 10.166 5.19531 10.4688 5.51758ZM10.1953 0.361328C9.46289 0.126953 8.68164 0 7.88086 0C3.53516 0 0 3.52539 0 7.88086C0 8.69141 0.126953 9.49219 0.371094 10.2344L4.49219 8.76953C4.41406 8.48633 4.375 8.19336 4.375 7.88086C4.375 5.9668 5.9668 4.39453 7.90039 4.39453C8.18359 4.39453 8.4668 4.42383 8.73047 4.49219ZM0.615234 10.9082C0.839844 11.4453 1.13281 11.9531 1.46484 12.4414L4.92188 9.77539C4.86328 9.67773 4.80469 9.56055 4.74609 9.44336ZM1.9043 13.0176C2.73438 13.9648 3.7793 14.7363 4.95117 15.1855L6.39648 11.084C6.01562 10.8984 5.66406 10.6543 5.38086 10.3418ZM7.88086 10.5273C9.3457 10.5273 10.5273 9.3457 10.5273 7.88086C10.5273 6.41602 9.3457 5.23438 7.88086 5.23438C6.42578 5.23438 5.23438 6.41602 5.23438 7.88086C5.23438 9.3457 6.42578 10.5273 7.88086 10.5273ZM7.88086 9.75586C6.8457 9.75586 6.00586 8.92578 6.00586 7.88086C6.00586 6.83594 6.8457 6.00586 7.88086 6.00586C8.92578 6.00586 9.76562 6.83594 9.76562 7.88086C9.76562 8.92578 8.92578 9.75586 7.88086 9.75586ZM7.88086 8.81836C8.39844 8.81836 8.81836 8.38867 8.81836 7.88086C8.81836 7.37305 8.39844 6.94336 7.88086 6.94336C7.37305 6.94336 6.95312 7.37305 6.95312 7.88086C6.95312 8.38867 7.37305 8.81836 7.88086 8.81836Z" fill="white" fill-opacity="0.85"/>
 </g>
</svg>
