<?xml version="1.0" encoding="UTF-8"?>
<!--Generator: Apple Native CoreSVG 341-->
<!DOCTYPE svg
PUBLIC "-//W3C//DTD SVG 1.1//EN"
       "http://www.w3.org/Graphics/SVG/1.1/DTD/svg11.dtd">
<svg version="1.1" xmlns="http://www.w3.org/2000/svg" xmlns:xlink="http://www.w3.org/1999/xlink" viewBox="0 0 16.1328 15.7715">
 <g>
  <rect height="15.7715" opacity="0" width="16.1328" x="0" y="0"/>
  <path d="M7.88086 15.7715C12.2363 15.7715 15.7715 12.2363 15.7715 7.89062C15.7715 3.54492 12.2363 0.00976562 7.88086 0.00976562C3.53516 0.00976562 0 3.54492 0 7.89062C0 12.2363 3.53516 15.7715 7.88086 15.7715Z" fill="white" fill-opacity="0.2125"/>
  <path d="M4.31641 11.9629C3.22266 10.8887 3.23242 9.19922 4.3457 8.08594L8.7793 3.65234C9.64844 2.7832 10.8398 2.76367 11.6699 3.57422C12.4805 4.38477 12.4512 5.56641 11.5723 6.44531L7.25586 10.752C6.73828 11.2695 5.9668 11.2988 5.49805 10.8008C5.01953 10.3223 5.03906 9.52148 5.54688 9.02344L8.49609 6.05469C8.70117 5.85938 8.97461 5.84961 9.17969 6.04492C9.38477 6.25 9.36523 6.52344 9.16016 6.71875L6.21094 9.67773C6.07422 9.80469 6.06445 9.98047 6.20117 10.0879C6.32812 10.2051 6.47461 10.2051 6.60156 10.0684L10.8984 5.79102C11.3672 5.3125 11.416 4.67773 10.9961 4.26758C10.5859 3.86719 9.93164 3.89648 9.47266 4.36523L5.08789 8.75C4.3457 9.50195 4.31641 10.5273 5.04883 11.25C5.76172 11.9531 6.79688 11.9434 7.53906 11.2109L10.7031 8.03711C10.8984 7.85156 11.2207 7.85156 11.416 8.02734C11.6016 8.20312 11.5918 8.54492 11.416 8.7207L8.18359 11.9434C7.07031 13.0469 5.48828 13.1055 4.31641 11.9629Z" fill="white" fill-opacity="0.85"/>
 </g>
</svg>
