<?xml version="1.0" encoding="UTF-8"?>
<!--Generator: Apple Native CoreSVG 341-->
<!DOCTYPE svg
PUBLIC "-//W3C//DTD SVG 1.1//EN"
       "http://www.w3.org/Graphics/SVG/1.1/DTD/svg11.dtd">
<svg version="1.1" xmlns="http://www.w3.org/2000/svg" xmlns:xlink="http://www.w3.org/1999/xlink" viewBox="0 0 24.375 20.2002">
 <g>
  <rect height="20.2002" opacity="0" width="24.375" x="0" y="0"/>
  <path d="M2.20703 2.78076L2.86031 3.43404C1.93138 4.54558 1.42578 5.9779 1.42578 7.53662C1.42578 9.15771 1.97266 10.6323 2.96875 11.7749C3.29102 12.1362 3.36914 12.5366 3.0957 12.8589C2.8125 13.1909 2.32422 13.1909 1.98242 12.8101C0.703125 11.4038 0 9.53857 0 7.53662C0 5.5786 0.672604 3.75136 1.90299 2.35943C1.978 2.51285 2.07975 2.65544 2.20703 2.78076ZM22.0312 2.26318C23.3105 3.66943 24.0137 5.53467 24.0137 7.53662C24.0137 9.53857 23.3105 11.4038 22.0312 12.8101C21.6895 13.1909 21.2012 13.1909 20.918 12.8589C20.6445 12.5366 20.7227 12.1362 21.0449 11.7749C22.041 10.6323 22.5879 9.15771 22.5879 7.53662C22.5879 5.91553 22.041 4.43115 21.0449 3.29834C20.7227 2.93701 20.6445 2.52686 20.918 2.21436C21.2012 1.88232 21.6895 1.88232 22.0312 2.26318Z" fill="white" fill-opacity="0.85"/>
  <path d="M5.06096 5.63469C4.70574 6.17606 4.52148 6.83121 4.52148 7.53662C4.52148 8.29834 4.73633 9.00146 5.14648 9.56787C5.41992 9.94873 5.53711 10.3394 5.26367 10.6616C4.9707 10.9839 4.44336 10.9937 4.13086 10.5933C3.47656 9.74365 3.0957 8.66943 3.0957 7.53662C3.0957 6.45125 3.43938 5.43638 4.0378 4.61153ZM19.873 4.47998C20.5371 5.32959 20.918 6.39404 20.918 7.53662C20.918 8.66943 20.5371 9.74365 19.873 10.5933C19.5703 10.9937 19.043 10.9839 18.75 10.6616C18.4668 10.3394 18.5938 9.94873 18.8672 9.56787C19.2773 9.00146 19.4922 8.29834 19.4922 7.53662C19.4922 6.7749 19.2773 6.07178 18.8672 5.50537C18.5938 5.11475 18.4668 4.73389 18.75 4.41162C19.043 4.08936 19.5703 4.07959 19.873 4.47998Z" fill="white" fill-opacity="0.85"/>
  <path d="M9.47266 10.0464L9.47266 10.2319L9.6582 10.2319L11.6797 12.2534L9.47266 12.2534L9.47266 16.2476C9.47266 16.9214 9.0332 17.3804 8.36914 17.3804C7.70508 17.3804 7.26562 16.9312 7.26562 16.2476L7.26563 7.83936ZM17.1387 7.53662C17.1387 9.14792 16.47 10.4884 15.3582 11.3194L13.8175 9.77774C14.5188 9.33423 14.8926 8.56942 14.8926 7.53662C14.8926 5.80811 13.8574 4.85107 12.0117 4.85107L9.47266 4.85107L9.47266 5.43027L7.40662 3.36297C7.58543 3.02815 7.92764 2.82959 8.36914 2.82959L12.4316 2.82959C15.1953 2.82959 17.1387 4.76318 17.1387 7.53662Z" fill="white" fill-opacity="0.85"/>
  <path d="M18.8867 18.1128C19.1504 18.3765 19.5801 18.3765 19.834 18.1128C20.0879 17.8491 20.0977 17.4194 19.834 17.1655L3.83789 1.15967C3.57422 0.895996 3.14453 0.895996 2.88086 1.15967C2.62695 1.41357 2.62695 1.85303 2.88086 2.10693Z" fill="white" fill-opacity="0.85"/>
 </g>
</svg>
