<?xml version="1.0" encoding="UTF-8"?>
<!--Generator: Apple Native CoreSVG 341-->
<!DOCTYPE svg
PUBLIC "-//W3C//DTD SVG 1.1//EN"
       "http://www.w3.org/Graphics/SVG/1.1/DTD/svg11.dtd">
<svg version="1.1" xmlns="http://www.w3.org/2000/svg" xmlns:xlink="http://www.w3.org/1999/xlink" viewBox="0 0 16.4551 15.5762">
 <g>
  <rect height="15.5762" opacity="0" width="16.4551" x="0" y="0"/>
  <path d="M0 7.07031C0 8.55469 0.810547 9.73633 1.82617 9.73633C2.85156 9.73633 3.66211 8.55469 3.66211 7.07031C3.66211 5.5957 2.85156 4.41406 1.82617 4.41406C0.810547 4.41406 0 5.5957 0 7.07031ZM3.71094 2.65625C3.71094 4.13086 4.53125 5.3125 5.54688 5.3125C6.57227 5.3125 7.38281 4.13086 7.38281 2.65625C7.38281 1.17188 6.57227 0 5.54688 0C4.53125 0 3.71094 1.17188 3.71094 2.65625ZM8.71094 2.65625C8.71094 4.13086 9.53125 5.3125 10.5469 5.3125C11.5625 5.3125 12.3828 4.13086 12.3828 2.65625C12.3828 1.17188 11.5625 0 10.5469 0C9.52148 0 8.71094 1.17188 8.71094 2.65625ZM12.4316 7.07031C12.4316 8.55469 13.252 9.73633 14.2676 9.73633C15.2832 9.73633 16.0938 8.55469 16.0938 7.07031C16.0938 5.5957 15.2832 4.41406 14.2676 4.41406C13.252 4.41406 12.4316 5.5957 12.4316 7.07031ZM2.34375 12.8906C2.34375 14.4629 3.35938 15.5664 4.89258 15.5664C5.64453 15.5664 6.19141 15.3613 6.71875 15.1855C7.13867 15.0488 7.54883 14.9121 8.04688 14.9121C8.54492 14.9121 8.95508 15.0488 9.375 15.1855C9.90234 15.3613 10.4492 15.5664 11.2012 15.5664C12.7344 15.5664 13.75 14.4629 13.75 12.8906C13.75 11.6113 12.998 10.9668 12.2559 10.3613C11.8457 10.0293 11.4258 9.69727 11.1328 9.25781C10.8984 8.90625 10.7031 8.52539 10.5371 8.17383C9.9707 6.99219 9.58008 5.95703 8.04688 5.95703C6.51367 5.95703 6.11328 6.99219 5.55664 8.17383C5.39062 8.52539 5.19531 8.90625 4.96094 9.25781C4.66797 9.69727 4.24805 10.0293 3.83789 10.3613C3.0957 10.9668 2.34375 11.6113 2.34375 12.8906Z" fill="white" fill-opacity="0.85"/>
 </g>
</svg>
