<?xml version="1.0" encoding="UTF-8"?>
<!--Generator: Apple Native CoreSVG 341-->
<!DOCTYPE svg
PUBLIC "-//W3C//DTD SVG 1.1//EN"
       "http://www.w3.org/Graphics/SVG/1.1/DTD/svg11.dtd">
<svg version="1.1" xmlns="http://www.w3.org/2000/svg" xmlns:xlink="http://www.w3.org/1999/xlink" viewBox="0 0 16.1328 15.7715">
 <g>
  <rect height="15.7715" opacity="0" width="16.1328" x="0" y="0"/>
  <path d="M15.7715 7.88086C15.7715 12.2266 12.2363 15.7617 7.88086 15.7617C3.53516 15.7617 0 12.2266 0 7.88086C0 3.53516 3.53516 0 7.88086 0C12.2363 0 15.7715 3.53516 15.7715 7.88086ZM7.32422 4.42383L6.06445 8.18359L6.05469 8.18359C5.68359 8.20312 5.36133 8.49609 5.2832 8.87695L4.46289 12.8516C4.28711 13.6523 5.40039 13.8184 5.54688 13.1152L6.33789 9.29688L9.44336 9.29688L10.2344 13.1152C10.3711 13.8184 11.4844 13.6523 11.3184 12.8516L10.4883 8.88672C10.4102 8.49609 10.0977 8.20312 9.72656 8.18359L9.7168 8.18359L8.44727 4.42383C8.26172 3.86719 7.51953 3.85742 7.32422 4.42383Z" fill="white" fill-opacity="0.85"/>
 </g>
</svg>
