<?xml version="1.0" encoding="UTF-8"?>
<!--Generator: Apple Native CoreSVG 341-->
<!DOCTYPE svg
PUBLIC "-//W3C//DTD SVG 1.1//EN"
       "http://www.w3.org/Graphics/SVG/1.1/DTD/svg11.dtd">
<svg version="1.1" xmlns="http://www.w3.org/2000/svg" xmlns:xlink="http://www.w3.org/1999/xlink" viewBox="0 0 17.3623 14.4568">
 <g>
  <rect height="14.4568" opacity="0" width="17.3623" x="0" y="0"/>
  <path d="M15.854 12.6239C15.854 13.0145 15.5317 13.3368 15.1509 13.3368L4.26367 13.3368L5.68671 11.9208L15.1509 11.9208C15.5317 11.9208 15.854 12.243 15.854 12.6239Z" fill="white" fill-opacity="0.85"/>
  <path d="M3.34424 12.6434L11.5083 4.49888L10.0435 3.03404L1.8794 11.1786L1.16651 12.9462C1.08838 13.1415 1.30323 13.3758 1.5083 13.3075ZM12.2114 3.80553L13.0415 2.99498C13.4517 2.57506 13.481 2.12584 13.1099 1.75474L12.7974 1.45201C12.4263 1.07115 11.9771 1.11021 11.5669 1.52037L10.7368 2.33092Z" fill="white" fill-opacity="0.85"/>
 </g>
</svg>
