<?xml version="1.0" encoding="UTF-8"?>
<!--Generator: Apple Native CoreSVG 341-->
<!DOCTYPE svg
PUBLIC "-//W3C//DTD SVG 1.1//EN"
       "http://www.w3.org/Graphics/SVG/1.1/DTD/svg11.dtd">
<svg version="1.1" xmlns="http://www.w3.org/2000/svg" xmlns:xlink="http://www.w3.org/1999/xlink" viewBox="0 0 21.6992 14.3066">
 <g>
  <rect height="14.3066" opacity="0" width="21.6992" x="0" y="0"/>
  <path d="M2.01172 14.2969L11.4648 14.2969C12.832 14.2969 13.4766 13.8965 13.4766 13.0176C13.4766 11.0059 10.9375 8.06641 6.73828 8.06641C2.54883 8.06641 0 11.0059 0 13.0176C0 13.8965 0.654297 14.2969 2.01172 14.2969ZM1.57227 12.9785C1.46484 12.9785 1.40625 12.9492 1.40625 12.8418C1.40625 11.6992 3.28125 9.38477 6.73828 9.38477C10.1953 9.38477 12.0703 11.6992 12.0703 12.8418C12.0703 12.9492 12.0117 12.9785 11.9043 12.9785ZM6.73828 7.16797C8.58398 7.16797 10.0977 5.51758 10.0977 3.53516C10.0977 1.55273 8.60352 0 6.73828 0C4.89258 0 3.37891 1.58203 3.37891 3.55469C3.37891 5.52734 4.90234 7.16797 6.73828 7.16797ZM6.73828 5.85938C5.70312 5.85938 4.78516 4.83398 4.78516 3.55469C4.78516 2.27539 5.67383 1.31836 6.73828 1.31836C7.8125 1.31836 8.69141 2.25586 8.69141 3.53516C8.69141 4.81445 7.79297 5.85938 6.73828 5.85938Z" fill="white" fill-opacity="0.425"/>
  <path d="M17.4219 6.49414C17.7148 6.49414 17.9883 6.33789 18.1641 6.07422L21.1133 1.38672C21.2207 1.23047 21.3379 1.01562 21.3379 0.810547C21.3379 0.371094 20.9473 0.0976562 20.5664 0.0976562C20.3125 0.0976562 20.0781 0.244141 19.9121 0.517578L17.3828 4.60938L16.3184 3.19336C16.1035 2.90039 15.8789 2.82227 15.6348 2.82227C15.2148 2.82227 14.8926 3.16406 14.8926 3.57422C14.8926 3.76953 14.9707 3.98438 15.0879 4.14062L16.6406 6.08398C16.8652 6.35742 17.1191 6.49414 17.4219 6.49414ZM15.9961 14.0039C16.1816 14.0039 16.3672 13.9355 16.5039 13.7891L20.752 9.53125C20.8984 9.38477 20.9668 9.21875 20.9668 9.0332C20.9668 8.63281 20.6445 8.32031 20.2441 8.32031C20.0586 8.32031 19.9023 8.38867 19.7656 8.52539L15.4883 12.7832C15.3516 12.9102 15.2832 13.0859 15.2832 13.2812C15.2832 13.6816 15.5957 14.0039 15.9961 14.0039ZM20.2539 14.0039C20.6445 14.0039 20.9668 13.6816 20.9668 13.2812C20.9668 13.0859 20.8887 12.9102 20.7617 12.7832L16.4844 8.52539C16.3379 8.38867 16.1816 8.32031 16.0059 8.32031C15.5957 8.32031 15.2832 8.63281 15.2832 9.0332C15.2832 9.21875 15.3418 9.38477 15.498 9.53125L19.7461 13.7891C19.873 13.9355 20.0586 14.0039 20.2539 14.0039Z" fill="white" fill-opacity="0.85"/>
 </g>
</svg>
