<?xml version="1.0" encoding="UTF-8"?>
<!--Generator: Apple Native CoreSVG 341-->
<!DOCTYPE svg
PUBLIC "-//W3C//DTD SVG 1.1//EN"
       "http://www.w3.org/Graphics/SVG/1.1/DTD/svg11.dtd">
<svg version="1.1" xmlns="http://www.w3.org/2000/svg" xmlns:xlink="http://www.w3.org/1999/xlink" viewBox="0 0 18.4766 14.248">
 <g>
  <rect height="14.248" opacity="0" width="18.4766" x="0" y="0"/>
  <path d="M2.49023 14.248L15.625 14.248C17.2949 14.248 18.1152 13.4277 18.1152 11.7871L18.1152 2.4707C18.1152 0.830078 17.2949 0.00976562 15.625 0.00976562L2.49023 0.00976562C0.830078 0.00976562 0 0.830078 0 2.4707L0 11.7871C0 13.4277 0.830078 14.248 2.49023 14.248Z" fill="white" fill-opacity="0.2125"/>
  <path d="M10.8691 4.74609C10.5664 4.74609 10.332 4.51172 10.332 4.20898C10.332 3.91602 10.5664 3.69141 10.8691 3.69141L14.9707 3.69141C15.2734 3.69141 15.498 3.91602 15.498 4.20898C15.498 4.51172 15.2734 4.74609 14.9707 4.74609ZM10.8691 7.65625C10.5664 7.65625 10.332 7.42188 10.332 7.11914C10.332 6.82617 10.5664 6.60156 10.8691 6.60156L14.9707 6.60156C15.2734 6.60156 15.498 6.82617 15.498 7.11914C15.498 7.42188 15.2734 7.65625 14.9707 7.65625ZM10.8691 10.5664C10.5664 10.5664 10.332 10.3418 10.332 10.0488C10.332 9.74609 10.5664 9.51172 10.8691 9.51172L14.9707 9.51172C15.2734 9.51172 15.498 9.74609 15.498 10.0488C15.498 10.3418 15.2734 10.5664 14.9707 10.5664ZM3.02734 10.6348C2.75391 10.6348 2.61719 10.4395 2.61719 10.1953C2.61719 9.48242 3.67188 7.69531 5.9375 7.69531C8.20312 7.69531 9.26758 9.48242 9.26758 10.1953C9.26758 10.4395 9.12109 10.6348 8.84766 10.6348ZM5.9375 7.1582C5.01953 7.1582 4.27734 6.38672 4.27734 5.36133C4.27734 4.38477 5.01953 3.58398 5.9375 3.58398C6.85547 3.58398 7.58789 4.38477 7.58789 5.36133C7.58789 6.38672 6.85547 7.16797 5.9375 7.1582Z" fill="white" fill-opacity="0.85"/>
 </g>
</svg>
