<svg version="1.1" xmlns="http://www.w3.org/2000/svg" xmlns:xlink="http://www.w3.org/1999/xlink" viewBox="0 0 14.5898 14.248">
 <g>
  <rect height="14.248" opacity="0" width="14.5898" x="0" y="0"/>
  <path d="M2.49023 14.248L11.7383 14.248C13.4082 14.248 14.2285 13.4277 14.2285 11.7871L14.2285 2.4707C14.2285 0.830078 13.4082 0.00976562 11.7383 0.00976562L2.49023 0.00976562C0.830078 0.00976562 0 0.830078 0 2.4707L0 11.7871C0 13.4277 0.830078 14.248 2.49023 14.248Z" fill="var(--color-tertiary)"/>
  <path d="M5.25391 10.0684C4.31641 10.0684 3.64258 9.63867 3.35938 8.81836C3.33984 8.74023 3.31055 8.60352 3.31055 8.50586C3.31055 8.23242 3.49609 8.03711 3.75 8.03711C3.98438 8.03711 4.15039 8.14453 4.21875 8.38867C4.36523 8.94531 4.72656 9.22852 5.27344 9.22852C5.89844 9.22852 6.25977 8.82812 6.25977 8.30078C6.25977 7.72461 5.84961 7.44141 5.30273 7.24609L4.83398 7.08008C3.93555 6.76758 3.36914 6.23047 3.36914 5.27344C3.36914 4.30664 4.00391 3.47656 5.23438 3.47656C6.15234 3.47656 6.86523 3.97461 7.07031 4.81445C7.08984 4.90234 7.09961 4.99023 7.09961 5.04883C7.09961 5.30273 6.93359 5.47852 6.67969 5.47852C6.44531 5.47852 6.26953 5.38086 6.21094 5.13672C6.05469 4.58008 5.70312 4.32617 5.22461 4.32617C4.64844 4.32617 4.35547 4.7168 4.35547 5.20508C4.35547 5.78125 4.73633 6.02539 5.27344 6.2207L5.73242 6.39648C6.58203 6.70898 7.25586 7.10938 7.25586 8.21289C7.25586 9.23828 6.64062 10.0684 5.25391 10.0684ZM7.82227 11.543C7.56836 11.543 7.41211 11.3672 7.41211 11.123C7.41211 11.0059 7.43164 10.8984 7.44141 10.8496L8.61328 3.91602C8.67188 3.63281 8.79883 3.47656 9.0625 3.47656C9.32617 3.47656 9.49219 3.65234 9.49219 3.90625C9.49219 4.01367 9.47266 4.12109 9.46289 4.16992L8.28125 11.1035C8.23242 11.3965 8.0957 11.543 7.82227 11.543ZM10.5566 9.99023C10.2246 9.99023 9.9707 9.73633 9.9707 9.39453C9.9707 9.0625 10.2246 8.78906 10.5566 8.78906C10.9082 8.78906 11.1816 9.0625 11.1816 9.39453C11.1816 9.73633 10.9082 9.99023 10.5566 9.99023Z" fill="var(--color-primary)"/>
 </g>
</svg>
