<?xml version="1.0" encoding="UTF-8"?>
<!--Generator: Apple Native CoreSVG 341-->
<!DOCTYPE svg
PUBLIC "-//W3C//DTD SVG 1.1//EN"
       "http://www.w3.org/Graphics/SVG/1.1/DTD/svg11.dtd">
<svg version="1.1" xmlns="http://www.w3.org/2000/svg" xmlns:xlink="http://www.w3.org/1999/xlink" viewBox="0 0 14.5898 14.248">
 <g>
  <rect height="14.248" opacity="0" width="14.5898" x="0" y="0"/>
  <path d="M2.49023 14.248L11.7383 14.248C13.4082 14.248 14.2285 13.4277 14.2285 11.7871L14.2285 2.4707C14.2285 0.830078 13.4082 0.00976562 11.7383 0.00976562L2.49023 0.00976562C0.830078 0.00976562 0 0.830078 0 2.4707L0 11.7871C0 13.4277 0.830078 14.248 2.49023 14.248ZM2.50977 12.832C1.80664 12.832 1.40625 12.4512 1.40625 11.7188L1.40625 2.53906C1.40625 1.79688 1.80664 1.42578 2.50977 1.42578L11.7188 1.42578C12.4219 1.42578 12.8223 1.79688 12.8223 2.53906L12.8223 11.7188C12.8223 12.4512 12.4219 12.832 11.7188 12.832Z" fill="white" fill-opacity="0.425"/>
  <path d="M5.57617 10.6738C5.88867 10.6738 6.08398 10.4785 6.08398 10.166L6.08398 8.37891L7.46094 8.37891C8.87695 8.37891 9.77539 7.32422 9.77539 5.98633C9.77539 4.69727 8.93555 3.60352 7.48047 3.60352L5.58594 3.60352C5.27344 3.60352 5.08789 3.79883 5.08789 4.11133L5.08789 10.166C5.08789 10.4785 5.27344 10.6738 5.57617 10.6738ZM6.08398 7.55859L6.08398 4.42383L7.23633 4.42383C8.18359 4.42383 8.75977 4.98047 8.75977 5.98633C8.75977 6.95312 8.20312 7.55859 7.23633 7.55859ZM4.29688 5.38086C4.29688 5.54688 4.42383 5.6543 4.58984 5.6543L10.1074 5.6543C10.2637 5.6543 10.3906 5.53711 10.3906 5.38086C10.3906 5.22461 10.2637 5.10742 10.1074 5.10742L4.58984 5.10742C4.42383 5.10742 4.29688 5.22461 4.29688 5.38086ZM4.29688 6.61133C4.29688 6.76758 4.42383 6.88477 4.58984 6.88477L10.1074 6.88477C10.2637 6.88477 10.3906 6.75781 10.3906 6.61133C10.3906 6.45508 10.2637 6.32812 10.1074 6.32812L4.58984 6.32812C4.42383 6.32812 4.29688 6.45508 4.29688 6.61133Z" fill="white" fill-opacity="0.85"/>
 </g>
</svg>
