<?xml version="1.0" encoding="UTF-8"?>
<!--Generator: Apple Native CoreSVG 341-->
<!DOCTYPE svg
PUBLIC "-//W3C//DTD SVG 1.1//EN"
       "http://www.w3.org/Graphics/SVG/1.1/DTD/svg11.dtd">
<svg version="1.1" xmlns="http://www.w3.org/2000/svg" xmlns:xlink="http://www.w3.org/1999/xlink" viewBox="0 0 14.5898 14.248">
 <g>
  <rect height="14.248" opacity="0" width="14.5898" x="0" y="0"/>
  <path d="M14.2285 2.4707L14.2285 11.7871C14.2285 13.4277 13.4082 14.248 11.7383 14.248L2.49023 14.248C0.830078 14.248 0 13.4277 0 11.7871L0 2.4707C0 0.830078 0.830078 0.00976562 2.49023 0.00976562L11.7383 0.00976562C13.4082 0.00976562 14.2285 0.830078 14.2285 2.4707ZM5.51758 3.4668C5.19531 3.4668 5 3.67188 5 4.00391L5 5.0293L4.48242 5.0293C4.31641 5.0293 4.17969 5.15625 4.17969 5.3125C4.17969 5.47852 4.31641 5.60547 4.48242 5.60547L5 5.60547L5 6.29883L4.48242 6.29883C4.31641 6.29883 4.17969 6.42578 4.17969 6.5918C4.17969 6.75781 4.31641 6.875 4.48242 6.875L5 6.875L5 10.2832C5 10.6055 5.19531 10.8105 5.51758 10.8105C5.83008 10.8105 6.04492 10.6055 6.04492 10.2832L6.04492 8.42773L7.4707 8.42773C8.58398 8.42773 9.39453 7.79297 9.70703 6.875L10.2051 6.875C10.3711 6.875 10.5078 6.73828 10.5078 6.5918C10.5078 6.42578 10.3711 6.29883 10.2051 6.29883L9.84375 6.29883C9.85352 6.18164 9.86328 6.06445 9.86328 5.9375C9.86328 5.83008 9.85352 5.71289 9.84375 5.60547L10.2051 5.60547C10.3711 5.60547 10.5078 5.46875 10.5078 5.3125C10.5078 5.15625 10.3711 5.0293 10.2051 5.0293L9.7168 5.0293C9.41406 4.13086 8.63281 3.4668 7.49023 3.4668ZM7.23633 7.57812L6.04492 7.57812L6.04492 6.875L8.59375 6.875C8.33984 7.32422 7.88086 7.57812 7.23633 7.57812ZM8.81836 5.9375C8.81836 6.06445 8.80859 6.18164 8.78906 6.29883L6.04492 6.29883L6.04492 5.60547L8.78906 5.60547C8.80859 5.71289 8.81836 5.82031 8.81836 5.9375ZM8.60352 5.0293L6.04492 5.0293L6.04492 4.32617L7.23633 4.32617C7.88086 4.32617 8.34961 4.57031 8.60352 5.0293Z" fill="white" fill-opacity="0.85"/>
 </g>
</svg>
