<?xml version="1.0" encoding="UTF-8"?>
<!--Generator: Apple Native CoreSVG 341-->
<!DOCTYPE svg
PUBLIC "-//W3C//DTD SVG 1.1//EN"
       "http://www.w3.org/Graphics/SVG/1.1/DTD/svg11.dtd">
<svg version="1.1" xmlns="http://www.w3.org/2000/svg" xmlns:xlink="http://www.w3.org/1999/xlink" viewBox="0 0 18.4766 14.248">
 <g>
  <rect height="14.248" opacity="0" width="18.4766" x="0" y="0"/>
  <path d="M18.1152 2.4707L18.1152 11.7871C18.1152 13.4277 17.2949 14.248 15.625 14.248L2.49023 14.248C0.830078 14.248 0 13.4277 0 11.7871L0 2.4707C0 0.830078 0.830078 0.00976562 2.49023 0.00976562L15.625 0.00976562C17.2949 0.00976562 18.1152 0.830078 18.1152 2.4707ZM10.8887 7.33398L7.24609 10.5859L5.77148 9.25781C5.42969 8.95508 5.03906 8.80859 4.66797 8.80859C4.32617 8.80859 3.96484 8.95508 3.63281 9.24805L1.40625 11.2109L1.40625 11.709C1.40625 12.4219 1.82617 12.832 2.5293 12.832L15.6055 12.832C16.2793 12.832 16.709 12.4219 16.709 11.7285L16.709 10.5371L13.3008 7.34375C12.9492 7.01172 12.5195 6.85547 12.1094 6.85547C11.6699 6.85547 11.2598 7.00195 10.8887 7.33398ZM3.96484 5.43945C3.96484 6.48438 4.82422 7.34375 5.87891 7.34375C6.91406 7.34375 7.77344 6.48438 7.77344 5.43945C7.77344 4.39453 6.91406 3.52539 5.87891 3.52539C4.82422 3.52539 3.96484 4.39453 3.96484 5.43945Z" fill="white" fill-opacity="0.85"/>
 </g>
</svg>
