<?xml version="1.0" encoding="UTF-8"?>
<!--Generator: Apple Native CoreSVG 341-->
<!DOCTYPE svg
PUBLIC "-//W3C//DTD SVG 1.1//EN"
       "http://www.w3.org/Graphics/SVG/1.1/DTD/svg11.dtd">
<svg version="1.1" xmlns="http://www.w3.org/2000/svg" xmlns:xlink="http://www.w3.org/1999/xlink" viewBox="0 0 14.5898 14.248">
 <g>
  <rect height="14.248" opacity="0" width="14.5898" x="0" y="0"/>
  <path d="M14.2285 2.4707L14.2285 11.7871C14.2285 13.4277 13.4082 14.248 11.7383 14.248L2.49023 14.248C0.830078 14.248 0 13.4277 0 11.7871L0 2.4707C0 0.830078 0.830078 0.00976562 2.49023 0.00976562L11.7383 0.00976562C13.4082 0.00976562 14.2285 0.830078 14.2285 2.4707ZM3.53516 3.48633C3.16406 3.48633 2.91992 3.73047 2.91992 4.0918C2.91992 4.44336 3.16406 4.69727 3.53516 4.69727L4.46289 4.69727L4.46289 10.3223C4.46289 10.7129 4.74609 10.957 5.14648 10.957C5.52734 10.957 5.81055 10.7129 5.81055 10.3223L5.81055 4.69727L8.37891 4.69727L8.37891 9.07227C8.37891 10.2441 8.91602 10.9082 10.0391 10.9082C10.6836 10.9082 11.1035 10.6641 11.1035 10.2148C11.1035 9.84375 10.8887 9.64844 10.459 9.64844C10.3809 9.64844 10.2734 9.66797 10.2344 9.66797C9.89258 9.66797 9.7168 9.49219 9.7168 9.0625L9.7168 4.69727L10.7031 4.69727C11.0547 4.69727 11.2988 4.44336 11.2988 4.0918C11.2988 3.73047 11.0547 3.48633 10.7031 3.48633Z" fill="white" fill-opacity="0.85"/>
 </g>
</svg>
