<?xml version="1.0" encoding="UTF-8"?>
<!--Generator: Apple Native CoreSVG 341-->
<!DOCTYPE svg
PUBLIC "-//W3C//DTD SVG 1.1//EN"
       "http://www.w3.org/Graphics/SVG/1.1/DTD/svg11.dtd">
<svg version="1.1" xmlns="http://www.w3.org/2000/svg" xmlns:xlink="http://www.w3.org/1999/xlink" viewBox="0 0 16.1328 15.7715">
 <g>
  <rect height="15.7715" opacity="0" width="16.1328" x="0" y="0"/>
  <path d="M7.88086 15.7715C12.2363 15.7715 15.7715 12.2363 15.7715 7.89062C15.7715 3.54492 12.2363 0.00976562 7.88086 0.00976562C3.53516 0.00976562 0 3.54492 0 7.89062C0 12.2363 3.53516 15.7715 7.88086 15.7715Z" fill="white" fill-opacity="0.2125"/>
  <path d="M4.75586 9.33594C4.75586 8.51562 5.42969 7.60742 6.55273 7.19727L6.67969 5.40039C6.06445 5.04883 5.5957 4.6875 5.39062 4.42383C5.2832 4.27734 5.22461 4.13086 5.22461 3.99414C5.22461 3.74023 5.41992 3.54492 5.72266 3.54492L10.0684 3.54492C10.3613 3.54492 10.5664 3.74023 10.5664 3.99414C10.5664 4.13086 10.5078 4.27734 10.4004 4.42383C10.1953 4.67773 9.72656 5.04883 9.10156 5.40039L9.22852 7.19727C10.3613 7.60742 11.0254 8.51562 11.0254 9.33594C11.0254 9.70703 10.791 9.94141 10.4102 9.94141L8.4375 9.94141L8.4375 11.2305C8.4375 12.1777 8.05664 12.959 7.89062 12.959C7.73438 12.959 7.34375 12.1777 7.34375 11.2305L7.34375 9.94141L5.37109 9.94141C5 9.94141 4.75586 9.70703 4.75586 9.33594Z" fill="white" fill-opacity="0.85"/>
 </g>
</svg>
