<?xml version="1.0" encoding="UTF-8"?>
<!--Generator: Apple Native CoreSVG 341-->
<!DOCTYPE svg
PUBLIC "-//W3C//DTD SVG 1.1//EN"
       "http://www.w3.org/Graphics/SVG/1.1/DTD/svg11.dtd">
<svg version="1.1" xmlns="http://www.w3.org/2000/svg" xmlns:xlink="http://www.w3.org/1999/xlink" viewBox="0 0 19.3262 17.1973">
 <g>
  <rect height="17.1973" opacity="0" width="19.3262" x="0" y="0"/>
  <path d="M4.32617 2.59766L4.32617 2.99805L14.6387 2.99805L14.6387 2.59766C14.6387 1.66016 15.1855 1.14258 16.1523 1.14258L17.4512 1.14258C18.418 1.14258 18.9648 1.66016 18.9648 2.59766L18.9648 8.21289C18.9648 9.15039 18.418 9.67773 17.4512 9.67773L16.1523 9.67773C15.1855 9.67773 14.6387 9.15039 14.6387 8.21289L14.6387 7.80273L12.1484 7.80273L11.2988 6.24023C10.8789 5.45898 10.2637 5.04883 9.48242 5.04883C8.69141 5.04883 8.08594 5.46875 7.65625 6.24023L6.82389 7.80273L4.32617 7.80273L4.32617 8.21289C4.32617 9.15039 3.7793 9.67773 2.8125 9.67773L1.51367 9.67773C0.546875 9.67773 0 9.15039 0 8.21289L0 2.59766C0 1.66016 0.546875 1.14258 1.51367 1.14258L2.8125 1.14258C3.7793 1.14258 4.32617 1.66016 4.32617 2.59766Z" fill="white" fill-opacity="0.425"/>
  <path d="M9.48242 16.0645C11.3965 16.0645 12.9199 14.5703 12.9199 12.7051C12.9199 11.6895 12.4023 10.6934 11.9824 9.91211L10.3027 6.77734C10.0879 6.38672 9.84375 6.19141 9.48242 6.19141C9.12109 6.19141 8.88672 6.38672 8.66211 6.77734L6.99219 9.91211C6.57227 10.6934 6.05469 11.6895 6.05469 12.7051C6.05469 14.5703 7.57812 16.0645 9.48242 16.0645Z" fill="white" fill-opacity="0.85"/>
 </g>
</svg>
