<?xml version="1.0" encoding="UTF-8"?>
<!--Generator: Apple Native CoreSVG 341-->
<!DOCTYPE svg
PUBLIC "-//W3C//DTD SVG 1.1//EN"
       "http://www.w3.org/Graphics/SVG/1.1/DTD/svg11.dtd">
<svg version="1.1" xmlns="http://www.w3.org/2000/svg" xmlns:xlink="http://www.w3.org/1999/xlink" viewBox="0 0 16.1328 15.7715">
 <g>
  <rect height="15.7715" opacity="0" width="16.1328" x="0" y="0"/>
  <path d="M7.88086 15.7617C12.2363 15.7617 15.7715 12.2266 15.7715 7.88086C15.7715 3.53516 12.2363 0 7.88086 0C3.53516 0 0 3.53516 0 7.88086C0 12.2266 3.53516 15.7617 7.88086 15.7617Z" fill="white" fill-opacity="0.2125"/>
  <path d="M3.68164 10.8398C3.31055 11.084 2.87109 10.8887 2.87109 10.498L2.87109 5.2832C2.87109 4.89258 3.33984 4.70703 3.68164 4.93164L7.51953 7.46094C7.8418 7.66602 7.8418 8.0957 7.51953 8.31055ZM8.87695 10.8594C8.47656 10.8594 8.30078 10.6543 8.30078 10.3418L8.30078 5.41016C8.30078 5.10742 8.47656 4.90234 8.87695 4.90234L9.60938 4.90234C9.99023 4.90234 10.1758 5.10742 10.1758 5.41016L10.1758 10.3418C10.1758 10.6543 9.99023 10.8594 9.60938 10.8594ZM11.6113 10.8594C11.2207 10.8594 11.0254 10.6543 11.0254 10.3418L11.0254 5.41016C11.0254 5.10742 11.2207 4.90234 11.6113 4.90234L12.3535 4.90234C12.7246 4.90234 12.9102 5.10742 12.9102 5.41016L12.9102 10.3418C12.9102 10.6543 12.7246 10.8594 12.3535 10.8594Z" fill="white" fill-opacity="0.85"/>
 </g>
</svg>
