<svg version="1.1" xmlns="http://www.w3.org/2000/svg" xmlns:xlink="http://www.w3.org/1999/xlink" viewBox="0 0 17.9103 17.5587">
 <g>
  <rect height="17.5587" opacity="0" width="17.9103" x="0" y="0"/>
  <path d="M0.888733 10.5323L7.02155 16.6553C8.19342 17.837 9.34576 17.8467 10.5176 16.6846L16.6797 10.5128C17.8516 9.35065 17.8321 8.1983 16.6505 7.01666L10.5274 0.893616C9.35553-0.288025 8.20319-0.297791 7.03131 0.864319L0.869202 7.03619C-0.302673 8.20807-0.283142 9.35065 0.888733 10.5323Z" fill="var(--color-tertiary)"/>
  <path d="M7.61725 11.8702C7.22662 12.1143 6.7774 11.919 6.7774 11.5186L6.7774 6.0401C6.7774 5.63971 7.26569 5.47369 7.61725 5.68854L12.129 8.33502C12.4708 8.5401 12.4805 9.02838 12.129 9.22369Z" fill="var(--color-primary)"/>
 </g>
</svg>
