<?xml version="1.0" encoding="UTF-8"?>
<!--Generator: Apple Native CoreSVG 341-->
<!DOCTYPE svg
PUBLIC "-//W3C//DTD SVG 1.1//EN"
       "http://www.w3.org/Graphics/SVG/1.1/DTD/svg11.dtd">
<svg version="1.1" xmlns="http://www.w3.org/2000/svg" xmlns:xlink="http://www.w3.org/1999/xlink" viewBox="0 0 20.644 15.6934">
 <g>
  <rect height="15.6934" opacity="0" width="20.644" x="0" y="0"/>
  <path d="M7.60227 0C9.00852 0.302734 11.0007 0.908203 12.114 1.2793C14.907 2.2168 15.8933 3.4082 15.8933 6.10352C15.8933 8.05664 14.9851 9.0918 13.6374 9.0918C13.1882 9.0918 12.6999 8.97461 12.1726 8.7207L12.1726 3.84766C12.1726 3.29102 12.114 2.79297 11.5671 2.62695C11.1179 2.48047 10.8933 2.87109 10.8933 3.4082L10.8933 15.6738L7.60227 14.6387ZM11.5085 13.5449L11.5085 15.4297L18.237 13.0273C19.2429 12.6758 19.8679 12.3242 20.1023 12.0117C20.4734 11.5332 20.3074 10.7715 18.8523 10.2734C17.3484 9.75586 15.5906 9.58984 14.1843 9.69727C13.3152 9.76562 12.2702 10.0488 11.5085 10.3027L11.5085 12.3242L15.0437 11.0449C15.6394 10.8301 16.4792 10.8008 16.9968 10.9766C17.4851 11.1426 17.4363 11.416 16.8113 11.6504ZM1.21555 13.2031C2.69993 13.7305 4.59446 14.1602 6.93821 13.6523L6.93821 11.9531L5.37571 12.5293C4.73118 12.7637 3.69602 12.8027 3.33469 12.6855C2.81712 12.5098 2.92454 12.168 3.60813 11.9238L6.93821 10.7324L6.93821 8.84766L2.3679 10.498C1.75266 10.7227 1.13743 10.8984 0.434303 11.377C-0.337181 11.9043-0.0832748 12.7441 1.21555 13.2031Z" fill="white" fill-opacity="0.85"/>
 </g>
</svg>
