<svg version="1.1" xmlns="http://www.w3.org/2000/svg" xmlns:xlink="http://www.w3.org/1999/xlink" viewBox="0 0 17.9103 17.5587">
 <g>
  <rect height="17.5587" opacity="0" width="17.9103" x="0" y="0"/>
  <path d="M0.888733 10.5323L7.02155 16.6553C8.19342 17.837 9.34576 17.8467 10.5176 16.6846L16.6797 10.5128C17.8516 9.35065 17.8321 8.1983 16.6505 7.01666L10.5274 0.893616C9.35553-0.288025 8.20319-0.297791 7.03131 0.864319L0.869202 7.03619C-0.302673 8.20807-0.283142 9.35065 0.888733 10.5323Z" fill="var(--color-tertiary)"/>
  <path d="M9.53131 11.7237L9.53131 5.81549C9.53131 5.35651 9.21881 5.03424 8.75983 5.03424C8.31061 5.03424 8.00787 5.35651 8.00787 5.81549L8.00787 11.7237C8.00787 12.1729 8.31061 12.4952 8.75983 12.4952C9.21881 12.4952 9.53131 12.1729 9.53131 11.7237ZM5.82037 9.52643L11.7286 9.52643C12.1778 9.52643 12.5001 9.22369 12.5001 8.77448C12.5001 8.31549 12.1778 8.00299 11.7286 8.00299L5.82037 8.00299C5.36139 8.00299 5.03912 8.31549 5.03912 8.77448C5.03912 9.22369 5.36139 9.52643 5.82037 9.52643Z" fill="var(--color-primary)"/>
 </g>
</svg>
