<?xml version="1.0" encoding="UTF-8"?>
<!--Generator: Apple Native CoreSVG 341-->
<!DOCTYPE svg
PUBLIC "-//W3C//DTD SVG 1.1//EN"
       "http://www.w3.org/Graphics/SVG/1.1/DTD/svg11.dtd">
<svg version="1.1" xmlns="http://www.w3.org/2000/svg" xmlns:xlink="http://www.w3.org/1999/xlink" viewBox="0 0 17.3828 17.1582">
 <g>
  <rect height="17.1582" opacity="0" width="17.3828" x="0" y="0"/>
  <path d="M17.0215 4.70703L17.0215 10.3906C17.0215 12.7539 15.7617 14.043 13.3594 14.043L8.45703 14.043L5.69336 16.6016C5.2832 16.9824 5.04883 17.1582 4.70703 17.1582C4.21875 17.1582 3.93555 16.8066 3.93555 16.2793L3.93555 14.043L3.66211 14.043C1.25977 14.043 0 12.7539 0 10.3906L0 4.70703C0 2.34375 1.25977 1.04492 3.66211 1.04492L13.3594 1.04492C15.7617 1.04492 17.0215 2.34375 17.0215 4.70703ZM7.75391 4.58008L7.75391 6.76758L5.55664 6.76758C5.09766 6.76758 4.78516 7.08008 4.78516 7.53906C4.78516 7.98828 5.09766 8.29102 5.55664 8.29102L7.75391 8.29102L7.75391 10.4883C7.75391 10.9375 8.04688 11.2598 8.49609 11.2598C8.95508 11.2598 9.26758 10.9375 9.26758 10.4883L9.26758 8.29102L11.4648 8.29102C11.9141 8.29102 12.2363 7.98828 12.2363 7.53906C12.2363 7.08008 11.9238 6.76758 11.4648 6.76758L9.26758 6.76758L9.26758 4.58008C9.26758 4.12109 8.95508 3.79883 8.49609 3.79883C8.04688 3.79883 7.75391 4.12109 7.75391 4.58008Z" fill="white" fill-opacity="0.85"/>
 </g>
</svg>
