<?xml version="1.0" encoding="UTF-8"?>
<!--Generator: Apple Native CoreSVG 341-->
<!DOCTYPE svg
PUBLIC "-//W3C//DTD SVG 1.1//EN"
       "http://www.w3.org/Graphics/SVG/1.1/DTD/svg11.dtd">
<svg version="1.1" xmlns="http://www.w3.org/2000/svg" xmlns:xlink="http://www.w3.org/1999/xlink" viewBox="0 0 20.2051 14.873">
 <g>
  <rect height="14.873" opacity="0" width="20.2051" x="0" y="0"/>
  <path d="M0 7.43164C0 11.9043 3.13477 14.8633 7.85156 14.8633L11.9922 14.8633C16.6992 14.8633 19.8438 11.9043 19.8438 7.43164C19.8438 2.95898 16.6992 0 11.9922 0L7.85156 0C3.13477 0 0 2.95898 0 7.43164ZM1.40625 7.43164C1.40625 3.87695 4.05273 1.40625 7.85156 1.40625L11.9922 1.40625C15.791 1.40625 18.4277 3.87695 18.4277 7.43164C18.4277 10.9863 15.791 13.457 11.9922 13.457L7.85156 13.457C4.05273 13.457 1.40625 10.9863 1.40625 7.43164Z" fill="white" fill-opacity="0.85"/>
  <path d="M15.0586 8.125C15.4395 8.125 15.752 7.8125 15.752 7.43164C15.752 7.05078 15.4395 6.73828 15.0586 6.73828L11.6895 6.73828C11.2988 6.73828 10.9961 7.05078 10.9961 7.43164C10.9961 7.8125 11.2988 8.125 11.6895 8.125ZM4.63867 8.125L8.4082 8.125C8.79883 8.125 9.10156 7.8125 9.10156 7.43164C9.10156 7.05078 8.79883 6.73828 8.4082 6.73828L4.63867 6.73828C4.25781 6.73828 3.94531 7.05078 3.94531 7.43164C3.94531 7.8125 4.25781 8.125 4.63867 8.125ZM7.2168 9.31641L7.2168 5.53711C7.2168 5.15625 6.9043 4.85352 6.52344 4.85352C6.13281 4.85352 5.83984 5.15625 5.83984 5.53711L5.83984 9.31641C5.83984 9.70703 6.13281 10.0098 6.52344 10.0098C6.9043 10.0098 7.2168 9.70703 7.2168 9.31641Z" fill="white" fill-opacity="0.85"/>
 </g>
</svg>
