<?xml version="1.0" encoding="UTF-8"?>
<!--Generator: Apple Native CoreSVG 341-->
<!DOCTYPE svg
PUBLIC "-//W3C//DTD SVG 1.1//EN"
       "http://www.w3.org/Graphics/SVG/1.1/DTD/svg11.dtd">
<svg version="1.1" xmlns="http://www.w3.org/2000/svg" xmlns:xlink="http://www.w3.org/1999/xlink" viewBox="0 0 21.123 18.0371">
 <g>
  <rect height="18.0371" opacity="0" width="21.123" x="0" y="0"/>
  <path d="M16.1133 3.59375L16.1133 3.66211L7.14844 3.66211C4.85352 3.66211 3.51562 4.98047 3.51562 7.25586L3.51563 13.2227L3.27148 13.2227C1.60156 13.2227 0.78125 12.4121 0.78125 10.7715L0.78125 3.59375C0.78125 1.95312 1.60156 1.13281 3.27148 1.13281L13.623 1.13281C15.2734 1.13281 16.1133 1.95312 16.1133 3.59375Z" fill="white" fill-opacity="0.85"/>
  <path d="M19.9805 7.25586L19.9805 14.4434C19.9805 16.0742 19.1504 16.8945 17.4902 16.8945L7.14844 16.8945C5.47852 16.8945 4.6582 16.084 4.6582 14.4434L4.6582 7.25586C4.6582 5.61523 5.47852 4.80469 7.14844 4.80469L17.4902 4.80469C19.1504 4.80469 19.9805 5.61523 19.9805 7.25586ZM11.5625 7.89062L11.5625 10.0781L9.375 10.0781C8.91602 10.0781 8.59375 10.3906 8.59375 10.8496C8.59375 11.2988 8.91602 11.6016 9.375 11.6016L11.5625 11.6016L11.5625 13.7988C11.5625 14.248 11.8652 14.5703 12.3145 14.5703C12.7734 14.5703 13.0762 14.248 13.0762 13.7988L13.0762 11.6016L15.2832 11.6016C15.7324 11.6016 16.0449 11.2988 16.0449 10.8496C16.0449 10.3906 15.7324 10.0781 15.2832 10.0781L13.0762 10.0781L13.0762 7.89062C13.0762 7.43164 12.7734 7.10938 12.3145 7.10938C11.8652 7.10938 11.5625 7.43164 11.5625 7.89062Z" fill="white" fill-opacity="0.85"/>
 </g>
</svg>
