<?xml version="1.0" encoding="UTF-8"?>
<!--Generator: Apple Native CoreSVG 341-->
<!DOCTYPE svg
PUBLIC "-//W3C//DTD SVG 1.1//EN"
       "http://www.w3.org/Graphics/SVG/1.1/DTD/svg11.dtd">
<svg version="1.1" xmlns="http://www.w3.org/2000/svg" xmlns:xlink="http://www.w3.org/1999/xlink" viewBox="0 0 16.1328 15.7715">
 <g>
  <rect height="15.7715" opacity="0" width="16.1328" x="0" y="0"/>
  <path d="M15.7715 7.88086C15.7715 12.2266 12.2363 15.7617 7.88086 15.7617C3.53516 15.7617 0 12.2266 0 7.88086C0 3.53516 3.53516 0 7.88086 0C12.2363 0 15.7715 3.53516 15.7715 7.88086ZM7.12891 4.92188L7.12891 7.10937L4.93164 7.10938C4.47266 7.10938 4.16016 7.42188 4.16016 7.88086C4.16016 8.33008 4.47266 8.63281 4.93164 8.63281L7.12891 8.63281L7.12891 10.8301C7.12891 11.2793 7.42188 11.6016 7.87109 11.6016C8.33008 11.6016 8.64258 11.2793 8.64258 10.8301L8.64258 8.63281L10.8398 8.63281C11.2891 8.63281 11.6113 8.33008 11.6113 7.88086C11.6113 7.42188 11.2891 7.10938 10.8398 7.10938L8.64258 7.10937L8.64258 4.92188C8.64258 4.46289 8.33008 4.14062 7.87109 4.14062C7.42188 4.14062 7.12891 4.46289 7.12891 4.92188Z" fill="white" fill-opacity="0.85"/>
 </g>
</svg>
