<svg version="1.1" xmlns="http://www.w3.org/2000/svg" xmlns:xlink="http://www.w3.org/1999/xlink" viewBox="0 0 14.5898 14.248">
 <g>
  <rect height="14.248" opacity="0" width="14.5898" x="0" y="0"/>
  <path d="M2.49023 14.248L11.7383 14.248C13.4082 14.248 14.2285 13.4277 14.2285 11.7871L14.2285 2.4707C14.2285 0.830078 13.4082 0.00976562 11.7383 0.00976562L2.49023 0.00976562C0.830078 0.00976562 0 0.830078 0 2.4707L0 11.7871C0 13.4277 0.830078 14.248 2.49023 14.248Z" fill="var(--color-tertiary)"/>
  <path d="M7.87109 10.0684L7.87109 4.16016C7.87109 3.70117 7.56836 3.37891 7.10938 3.37891C6.66016 3.37891 6.35742 3.70117 6.35742 4.16016L6.35742 10.0684C6.35742 10.5176 6.66016 10.8398 7.10938 10.8398C7.56836 10.8398 7.87109 10.5176 7.87109 10.0684ZM4.16992 7.87109L10.0781 7.87109C10.5273 7.87109 10.8398 7.56836 10.8398 7.11914C10.8398 6.66016 10.5273 6.34766 10.0781 6.34766L4.16992 6.34766C3.71094 6.34766 3.38867 6.66016 3.38867 7.11914C3.38867 7.56836 3.71094 7.87109 4.16992 7.87109Z" fill="var(--color-primary)"/>
 </g>
</svg>
