<?xml version="1.0" encoding="UTF-8"?>
<!--Generator: Apple Native CoreSVG 341-->
<!DOCTYPE svg
PUBLIC "-//W3C//DTD SVG 1.1//EN"
       "http://www.w3.org/Graphics/SVG/1.1/DTD/svg11.dtd">
<svg version="1.1" xmlns="http://www.w3.org/2000/svg" xmlns:xlink="http://www.w3.org/1999/xlink" viewBox="0 0 13.3691 16.4746">
 <g>
  <rect height="16.4746" opacity="0" width="13.3691" x="0" y="0"/>
  <path d="M13.0078 2.49023L13.0078 13.9746C13.0078 15.6445 12.1875 16.4648 10.5469 16.4648L2.45117 16.4648C0.810547 16.4648 0 15.6445 0 13.9746L0 2.49023C0 0.830078 0.810547 0 2.45117 0L10.5469 0C12.1875 0 13.0078 0.830078 13.0078 2.49023ZM5.74219 5.27344L5.74219 7.46094L3.55469 7.46094C3.0957 7.46094 2.77344 7.77344 2.77344 8.23242C2.77344 8.68164 3.0957 8.98438 3.55469 8.98438L5.74219 8.98437L5.74219 11.1816C5.74219 11.6309 6.04492 11.9531 6.49414 11.9531C6.95312 11.9531 7.26562 11.6309 7.26562 11.1816L7.26562 8.98437L9.46289 8.98438C9.91211 8.98438 10.2344 8.68164 10.2344 8.23242C10.2344 7.77344 9.91211 7.46094 9.46289 7.46094L7.26562 7.46094L7.26562 5.27344C7.26562 4.81445 6.95312 4.49219 6.49414 4.49219C6.04492 4.49219 5.74219 4.81445 5.74219 5.27344Z" fill="white" fill-opacity="0.85"/>
 </g>
</svg>
