<?xml version="1.0" encoding="UTF-8"?>
<!--Generator: Apple Native CoreSVG 341-->
<!DOCTYPE svg
PUBLIC "-//W3C//DTD SVG 1.1//EN"
       "http://www.w3.org/Graphics/SVG/1.1/DTD/svg11.dtd">
<svg version="1.1" xmlns="http://www.w3.org/2000/svg" xmlns:xlink="http://www.w3.org/1999/xlink" viewBox="0 0 16.1328 15.7715">
 <g>
  <rect height="15.7715" opacity="0" width="16.1328" x="0" y="0"/>
  <path d="M0 7.88086C0 10.8203 1.68945 13.418 3.98438 14.6973C4.90234 15.2246 5.66406 14.0039 4.64844 13.3984C2.80273 12.3535 1.50391 10.2734 1.50391 7.88086C1.50391 4.32617 4.32617 1.48438 7.87109 1.48438C11.4258 1.48438 14.2773 4.32617 14.2773 7.88086C14.2773 8.41797 14.6777 8.67188 15.0684 8.67188C15.4199 8.67188 15.7715 8.4082 15.7715 7.88086C15.7715 3.57422 12.1777 0 7.87109 0C3.57422 0 0 3.57422 0 7.88086Z" fill="white" fill-opacity="0.85"/>
  <path d="M3.125 7.88086C3.125 9.58008 4.04297 10.9961 5.09766 11.709C5.98633 12.3145 6.75781 11.1426 6.01562 10.625C5.14648 10.0293 4.57031 9.02344 4.57031 7.88086C4.57031 6.03516 6.03516 4.56055 7.87109 4.56055C9.7168 4.56055 11.1133 6.02539 11.2012 7.88086C11.2207 8.28125 11.5234 8.60352 11.9238 8.60352C12.3242 8.60352 12.6465 8.28125 12.6465 7.88086C12.6465 5.2832 10.4785 3.11523 7.87109 3.11523C5.2832 3.11523 3.125 5.2832 3.125 7.88086Z" fill="white" fill-opacity="0.85"/>
  <path d="M11.2695 15.6543C11.6309 15.5078 11.8066 15.0977 11.6504 14.7363L10.4688 12.002L12.0703 11.9043C12.3828 11.8848 12.5391 11.5918 12.3145 11.3574L8.125 7.13867C7.91992 6.92383 7.60742 7.04102 7.60742 7.35352L7.49023 13.4473C7.48047 13.7695 7.86133 13.8672 8.06641 13.6621L9.21875 12.5195L10.332 15.2832C10.4785 15.6348 10.9082 15.8105 11.2695 15.6543Z" fill="white" fill-opacity="0.85"/>
 </g>
</svg>
