<?xml version="1.0" encoding="UTF-8"?>
<!--Generator: Apple Native CoreSVG 341-->
<!DOCTYPE svg
PUBLIC "-//W3C//DTD SVG 1.1//EN"
       "http://www.w3.org/Graphics/SVG/1.1/DTD/svg11.dtd">
<svg version="1.1" xmlns="http://www.w3.org/2000/svg" xmlns:xlink="http://www.w3.org/1999/xlink" viewBox="0 0 20.127 14.3848">
 <g>
  <rect height="14.3848" opacity="0" width="20.127" x="0" y="0"/>
  <path d="M19.7656 7.54883C19.7656 10.9668 17.5391 13.1738 14.1309 13.1738L5.63477 13.1738C2.20703 13.1738 0 10.9668 0 7.54883C0 4.13086 2.20703 1.86523 5.63477 1.89453L6.65039 1.9043C6.61133 2.11914 6.5918 2.33398 6.5918 2.54883C6.5918 2.8125 6.62109 3.06641 6.66992 3.31055L5.63477 3.31055C3.10547 3.31055 1.40625 5.0293 1.40625 7.54883C1.40625 10.0684 3.10547 11.7676 5.63477 11.7676L14.1309 11.7676C16.6504 11.7676 18.3594 10.0684 18.3594 7.54883C18.3594 5.0293 16.6504 3.31055 14.1309 3.31055L12.7033 3.31055C12.7808 3.06733 12.8223 2.80802 12.8223 2.53906C12.8223 2.31578 12.7937 2.0994 12.7371 1.89453L14.1309 1.89453C17.5391 1.89453 19.7656 4.13086 19.7656 7.54883Z" fill="white" fill-opacity="0.425"/>
  <path d="M10.2734 5.08789C11.6895 5.08789 12.8223 3.94531 12.8223 2.53906C12.8223 1.13281 11.6895 0 10.2734 0C8.86719 0 7.73438 1.13281 7.73438 2.53906C7.73438 3.94531 8.86719 5.08789 10.2734 5.08789Z" fill="white" fill-opacity="0.85"/>
 </g>
</svg>
