<?xml version="1.0" encoding="UTF-8"?>
<!--Generator: Apple Native CoreSVG 341-->
<!DOCTYPE svg
PUBLIC "-//W3C//DTD SVG 1.1//EN"
       "http://www.w3.org/Graphics/SVG/1.1/DTD/svg11.dtd">
<svg version="1.1" xmlns="http://www.w3.org/2000/svg" xmlns:xlink="http://www.w3.org/1999/xlink" viewBox="0 0 14.0918 19.8404">
 <g>
  <rect height="19.8404" opacity="0" width="14.0918" x="0" y="0"/>
  <path d="M4.99919 15.2278L4.72656 15.2278C4.3457 15.2278 4.02344 15.5501 4.02344 15.9309C4.02344 16.3118 4.3457 16.6341 4.72656 16.6341L4.99525 16.6341C4.68887 17.6994 3.70697 18.47 2.53906 18.47C1.14258 18.47 0 17.3372 0 15.9212C0 14.5149 1.14258 13.3821 2.53906 13.3821C3.71251 13.3821 4.69818 14.1601 4.99919 15.2278Z" fill="white" fill-opacity="0.425"/>
  <path d="M4.72656 16.6341L9.60938 16.6341C12.1387 16.6341 13.7305 15.3157 13.7305 13.2259C13.7305 11.0774 12.1875 9.70047 9.10156 9.3782L4.85352 8.93875C2.5293 8.69461 1.40625 7.86453 1.40625 6.61453C1.40625 5.38406 2.45117 4.61258 4.12109 4.61258L6.97266 4.61258L6.02539 3.83133C5.81055 3.64578 5.64453 3.4407 5.52734 3.20633L4.12109 3.20633C1.5918 3.20633 0 4.52468 0 6.61453C0 8.76297 1.55273 10.1399 4.62891 10.4622L8.88672 10.9016C11.2109 11.1458 12.3242 11.9759 12.3242 13.2259C12.3242 14.4563 11.2793 15.2278 9.60938 15.2278L4.72656 15.2278C4.3457 15.2278 4.02344 15.5501 4.02344 15.9309C4.02344 16.3118 4.3457 16.6341 4.72656 16.6341Z" fill="white" fill-opacity="0.425"/>
  <path d="M9.70703 4.29031L9.70703 0.589138C9.70703 0.110622 9.27734-0.192112 8.88672 0.139919L6.69922 1.94656C6.33789 2.24929 6.32812 2.61062 6.69922 2.92312L8.88672 4.72976C9.27734 5.05203 9.70703 4.78836 9.70703 4.29031ZM9.50195 6.74148C9.50195 7.12234 9.79492 7.33718 10.166 7.33718L11.0352 7.33718C12.6758 7.33718 13.9062 6.29226 13.9062 4.57351C13.9062 2.86453 12.6855 1.83914 11.0449 1.83914L8.98438 1.83914C8.65234 1.83914 8.38867 2.10281 8.38867 2.43484C8.38867 2.76687 8.65234 3.03054 8.98438 3.03054L11.0449 3.03054C11.9629 3.03054 12.6855 3.51883 12.6855 4.51492C12.6855 5.54031 11.9922 6.15554 11.0352 6.15554L10.1367 6.15554C9.79492 6.15554 9.50195 6.36062 9.50195 6.74148Z" fill="white" fill-opacity="0.85"/>
 </g>
</svg>
