<?xml version="1.0" encoding="UTF-8"?>
<!--Generator: Apple Native CoreSVG 341-->
<!DOCTYPE svg
PUBLIC "-//W3C//DTD SVG 1.1//EN"
       "http://www.w3.org/Graphics/SVG/1.1/DTD/svg11.dtd">
<svg version="1.1" xmlns="http://www.w3.org/2000/svg" xmlns:xlink="http://www.w3.org/1999/xlink" viewBox="0 0 17.0508 16.709">
 <g>
  <rect height="16.709" opacity="0" width="17.0508" x="0" y="0"/>
  <path d="M8.34961 3.87695C8.75977 3.87695 9.11133 3.53516 9.11133 3.11523L9.11133 0.761719C9.11133 0.351562 8.75977 0 8.34961 0C7.92969 0 7.58789 0.351562 7.58789 0.761719L7.58789 3.11523C7.58789 3.53516 7.92969 3.87695 8.34961 3.87695ZM11.5039 5.19531C11.7969 5.48828 12.2949 5.48828 12.5879 5.19531L14.248 3.52539C14.5312 3.23242 14.5312 2.74414 14.248 2.45117C13.9551 2.1582 13.4668 2.1582 13.1738 2.45117L11.5039 4.11133C11.2109 4.4043 11.2109 4.90234 11.5039 5.19531ZM12.8125 8.34961C12.8125 8.75977 13.1641 9.11133 13.5742 9.11133L15.9277 9.11133C16.3477 9.11133 16.6895 8.75977 16.6895 8.34961C16.6895 7.93945 16.3477 7.58789 15.9277 7.58789L13.5742 7.58789C13.1641 7.58789 12.8125 7.93945 12.8125 8.34961ZM5.18555 11.5039C4.90234 11.2109 4.4043 11.2109 4.11133 11.5039L2.45117 13.1738C2.1582 13.4668 2.1582 13.9551 2.45117 14.248C2.73438 14.541 3.22266 14.541 3.51562 14.248L5.18555 12.5879C5.47852 12.2949 5.47852 11.7969 5.18555 11.5039ZM3.87695 8.34961C3.87695 7.93945 3.52539 7.58789 3.11523 7.58789L0.761719 7.58789C0.351562 7.58789 0 7.93945 0 8.34961C0 8.75977 0.351562 9.11133 0.761719 9.11133L3.11523 9.11133C3.52539 9.11133 3.87695 8.75977 3.87695 8.34961ZM5.18555 5.19531C5.47852 4.90234 5.47852 4.4043 5.18555 4.11133L3.51562 2.45117C3.22266 2.1582 2.73438 2.1582 2.45117 2.45117C2.1582 2.74414 2.1582 3.23242 2.45117 3.52539L4.11133 5.19531C4.4043 5.48828 4.90234 5.48828 5.18555 5.19531Z" fill="white" fill-opacity="0.425"/>
  <path d="M11.5527 16.1035C11.9141 15.957 12.0898 15.5469 11.9336 15.1855L10.752 12.4512L12.3535 12.3535C12.666 12.3438 12.8223 12.041 12.5977 11.8066L8.41797 7.58789C8.20312 7.38281 7.90039 7.49023 7.89062 7.80273L7.77344 13.8965C7.76367 14.2188 8.14453 14.3164 8.35938 14.1211L9.50195 12.9688L10.6152 15.7324C10.7617 16.084 11.1914 16.2598 11.5527 16.1035Z" fill="white" fill-opacity="0.85"/>
 </g>
</svg>
