<svg version="1.1" xmlns="http://www.w3.org/2000/svg" xmlns:xlink="http://www.w3.org/1999/xlink" viewBox="0 0 19.1159 15.7715">
 <g>
  <rect height="15.7715" opacity="0" width="19.1159" x="0" y="0"/>
  <path d="M0.602889 6.35742C-0.0123451 6.35742-0.158829 6.77734 0.173202 7.24609L1.91148 9.7168C2.18492 10.0977 2.59508 10.0977 2.85875 9.7168L4.59703 7.23633C4.9193 6.77734 4.77281 6.35742 4.16734 6.35742ZM17.263 7.88086C17.263 3.52539 13.7279 0 9.37242 0C5.02672 0 1.50133 3.51562 1.49156 7.89062C1.50133 8.29102 1.83336 8.62305 2.23375 8.62305C2.6439 8.62305 2.9857 8.28125 2.9857 7.88086C2.9857 4.3457 5.83726 1.48438 9.37242 1.48438C12.9076 1.48438 15.7689 4.3457 15.7689 7.88086C15.7689 11.416 12.9076 14.2773 9.37242 14.2773C7.28258 14.2773 5.44664 13.2715 4.2943 11.7578C4.02086 11.3965 3.60094 11.2891 3.23961 11.5137C2.88805 11.7285 2.78062 12.2363 3.08336 12.6172C4.53844 14.5312 6.78453 15.7617 9.37242 15.7617C13.7279 15.7617 17.263 12.2363 17.263 7.88086Z" fill="var(--color-secondary)"/>
  <path d="M6.83336 10.9766L9.2357 10.9766C9.46031 10.9766 9.62633 10.8203 9.62633 10.6055C9.62633 10.4004 9.46031 10.2441 9.2357 10.2441L7.60484 10.2441L7.60484 10.1465L9.42125 7.26562C9.5189 7.10938 9.58726 6.99219 9.58726 6.82617C9.58726 6.5918 9.45055 6.39648 9.11851 6.39648L6.7943 6.39648C6.57945 6.39648 6.41344 6.54297 6.41344 6.75781C6.41344 6.97266 6.57945 7.12891 6.7943 7.12891L8.47398 7.12891L8.47398 7.2168L6.55992 10.1953C6.47203 10.332 6.41344 10.4297 6.41344 10.5664C6.41344 10.8105 6.57945 10.9766 6.83336 10.9766ZM11.1595 11.0645C11.4427 11.0645 11.6283 10.8789 11.6283 10.5664L11.6283 5.00977C11.6283 4.69727 11.4427 4.51172 11.1595 4.51172C10.8666 4.51172 10.6908 4.69727 10.6908 5L10.6908 10.5664C10.6908 10.8789 10.8666 11.0645 11.1595 11.0645ZM10.4662 8.53516L12.263 7.60742C12.4486 7.50977 12.517 7.37305 12.517 7.24609C12.517 7.00195 12.2533 6.76758 11.9603 6.92383L10.1244 7.88086C9.95836 7.96875 9.87047 8.10547 9.87047 8.24219C9.87047 8.48633 10.1341 8.71094 10.4662 8.53516Z" fill="var(--color-primary)"/>
 </g>
</svg>
