<?xml version="1.0" encoding="UTF-8"?>
<!--Generator: Apple Native CoreSVG 341-->
<!DOCTYPE svg
PUBLIC "-//W3C//DTD SVG 1.1//EN"
       "http://www.w3.org/Graphics/SVG/1.1/DTD/svg11.dtd">
<svg version="1.1" xmlns="http://www.w3.org/2000/svg" xmlns:xlink="http://www.w3.org/1999/xlink" viewBox="0 0 13.3008 15.2051">
 <g>
  <rect height="15.2051" opacity="0" width="13.3008" x="0" y="0"/>
  <path d="M0.830078 15L6.61133 15C7.05078 15 7.32422 14.7266 7.32422 14.3066C7.32422 13.8867 7.05078 13.623 6.61133 13.623L2.06055 13.623L2.06055 13.4375L6.95312 6.15234C7.16797 5.83008 7.28516 5.625 7.28516 5.26367C7.28516 4.63867 6.85547 4.39453 6.36719 4.39453L0.712891 4.39453C0.292969 4.39453 0 4.6875 0 5.08789C0 5.49805 0.292969 5.78125 0.712891 5.78125L5.2832 5.78125L5.2832 5.97656L0.253906 13.418C0.0878906 13.6621 0 13.877 0 14.1699C0 14.6582 0.341797 15 0.830078 15ZM10.498 15.1953C10.9961 15.1953 11.3379 14.8145 11.3379 14.2969L11.3379 0.888672C11.3379 0.371094 10.9961 0 10.498 0C10 0 9.6582 0.371094 9.6582 0.888672L9.6582 14.2969C9.6582 14.8145 10 15.1953 10.498 15.1953Z" fill="white" fill-opacity="0.85"/>
 </g>
</svg>
