<?xml version="1.0" encoding="UTF-8"?>
<!--Generator: Apple Native CoreSVG 341-->
<!DOCTYPE svg
PUBLIC "-//W3C//DTD SVG 1.1//EN"
       "http://www.w3.org/Graphics/SVG/1.1/DTD/svg11.dtd">
<svg version="1.1" xmlns="http://www.w3.org/2000/svg" xmlns:xlink="http://www.w3.org/1999/xlink" viewBox="0 0 20.4907 12.0605">
 <g>
  <rect height="12.0605" opacity="0" width="20.4907" x="0" y="0"/>
  <path d="M5.59205 0C4.42017 0 3.64869 0.410156 2.89673 1.36719L0.582281 4.32617C-0.198969 5.33203-0.189203 6.66992 0.582281 7.66602L2.88697 10.6641C3.58033 11.5625 4.4983 12.041 5.59205 12.041L14.5374 12.041C15.6311 12.041 16.5588 11.5625 17.2424 10.6641L19.5569 7.66602C20.3284 6.66992 20.3381 5.33203 19.5471 4.32617L17.2327 1.36719C16.4807 0.410156 15.7092 0 14.5374 0ZM5.59205 1.40625L14.5374 1.40625C15.2795 1.40625 15.6311 1.58203 16.1292 2.2168L18.4436 5.17578C18.844 5.68359 18.8342 6.30859 18.4436 6.81641L16.1292 9.81445C15.6897 10.3711 15.2014 10.6348 14.5374 10.6348L5.59205 10.6348C4.93775 10.6348 4.4397 10.3711 4.01002 9.81445L1.6858 6.81641C1.29517 6.30859 1.28541 5.68359 1.6858 5.17578L4.01002 2.2168C4.50806 1.58203 4.84986 1.40625 5.59205 1.40625Z" fill="white" fill-opacity="0.425"/>
  <path d="M5.02564 4.69727C4.29322 4.69727 3.69752 5.29297 3.69752 6.01562C3.69752 6.73828 4.29322 7.33398 5.02564 7.33398C5.7483 7.33398 6.344 6.73828 6.344 6.01562C6.344 5.29297 5.7483 4.69727 5.02564 4.69727ZM10.0647 6.46484C9.34205 6.46484 8.74634 7.06055 8.74634 7.79297C8.74634 8.51562 9.34205 9.11133 10.0647 9.11133C10.7874 9.11133 11.3831 8.51562 11.3831 7.79297C11.3831 7.06055 10.7874 6.46484 10.0647 6.46484ZM15.1135 4.69727C14.3811 4.69727 13.7854 5.29297 13.7854 6.01562C13.7854 6.73828 14.3811 7.33398 15.1135 7.33398C15.8362 7.33398 16.4319 6.73828 16.4319 6.01562C16.4319 5.29297 15.8362 4.69727 15.1135 4.69727Z" fill="white" fill-opacity="0.85"/>
 </g>
</svg>
