<?xml version="1.0" encoding="UTF-8"?>
<!--Generator: Apple Native CoreSVG 341-->
<!DOCTYPE svg
PUBLIC "-//W3C//DTD SVG 1.1//EN"
       "http://www.w3.org/Graphics/SVG/1.1/DTD/svg11.dtd">
<svg version="1.1" xmlns="http://www.w3.org/2000/svg" xmlns:xlink="http://www.w3.org/1999/xlink" viewBox="0 0 14.5898 14.248">
 <g>
  <rect height="14.248" opacity="0" width="14.5898" x="0" y="0"/>
  <path d="M2.49023 14.248L11.7383 14.248C13.4082 14.248 14.2285 13.4277 14.2285 11.7871L14.2285 2.4707C14.2285 0.830078 13.4082 0.00976562 11.7383 0.00976562L2.49023 0.00976562C0.830078 0.00976562 0 0.830078 0 2.4707L0 11.7871C0 13.4277 0.830078 14.248 2.49023 14.248ZM2.50977 12.832C1.80664 12.832 1.40625 12.4512 1.40625 11.7188L1.40625 2.53906C1.40625 1.79688 1.80664 1.42578 2.50977 1.42578L11.7188 1.42578C12.4219 1.42578 12.8223 1.79688 12.8223 2.53906L12.8223 11.7188C12.8223 12.4512 12.4219 12.832 11.7188 12.832Z" fill="white" fill-opacity="0.425"/>
  <path d="M4.13086 10.7422L10.0977 10.7422C10.5273 10.7422 10.8594 10.4199 10.8594 9.98047L10.8594 4.25781C10.8594 3.81836 10.5273 3.49609 10.0977 3.49609L4.13086 3.49609C3.70117 3.49609 3.37891 3.81836 3.37891 4.25781L3.37891 9.98047C3.37891 10.4199 3.70117 10.7422 4.13086 10.7422ZM7.12891 6.62109C6.68945 6.62109 6.32812 6.25977 6.32812 5.82031C6.32812 5.38086 6.68945 5.03906 7.12891 5.03906C7.55859 5.03906 7.91992 5.38086 7.91992 5.82031C7.91992 6.25977 7.55859 6.62109 7.12891 6.62109ZM5.42969 9.19922C5 9.19922 4.63867 8.85742 4.63867 8.41797C4.63867 7.96875 5 7.61719 5.42969 7.61719C5.86914 7.61719 6.23047 7.96875 6.23047 8.41797C6.23047 8.85742 5.86914 9.19922 5.42969 9.19922ZM8.81836 9.19922C8.37891 9.19922 8.01758 8.85742 8.01758 8.41797C8.01758 7.96875 8.37891 7.61719 8.81836 7.61719C9.25781 7.61719 9.60938 7.96875 9.60938 8.41797C9.60938 8.85742 9.25781 9.19922 8.81836 9.19922Z" fill="white" fill-opacity="0.85"/>
 </g>
</svg>
