<svg version="1.1" xmlns="http://www.w3.org/2000/svg" xmlns:xlink="http://www.w3.org/1999/xlink" viewBox="0 0 19.3848 13.3691">
 <g>
  <rect height="13.3691" opacity="0" width="19.3848" x="0" y="0"/>
  <path d="M13.3984 8.74023L15.3125 8.74023C15.6738 8.74023 15.9082 8.51562 15.9082 8.1543L15.9082 0.585938C15.9082 0.234375 15.6738 0 15.3125 0L13.3984 0C12.1484 0 10.9473 0.537109 10.1562 1.57227C9.87305 1.92383 9.83398 1.94336 9.45312 1.94336L7.68555 1.94336C6.875 1.94336 6.30859 2.4707 6.30859 3.21289L6.30859 5.52734C6.30859 6.2793 6.875 6.79688 7.68555 6.79688L9.45312 6.79688C9.83398 6.79688 9.87305 6.82617 10.1562 7.16797C10.957 8.20312 12.1582 8.74023 13.3984 8.74023ZM15.6738 3.54492L18.2324 3.54492C18.6719 3.54492 19.0234 3.20312 19.0234 2.75391C19.0234 2.32422 18.6719 1.96289 18.2324 1.96289L15.6738 1.96289ZM15.6738 6.77734L18.2324 6.77734C18.6719 6.77734 19.0234 6.42578 19.0234 5.98633C19.0234 5.53711 18.6719 5.19531 18.2324 5.19531L15.6738 5.19531ZM0 13.3594L6.43555 13.3594C8.31055 13.3594 9.49219 12.1777 9.49219 10.5859C9.49219 8.98438 8.31055 7.80273 6.43555 7.80273L2.94922 7.80273C1.97266 7.80273 1.40625 7.22656 1.40625 6.43555C1.40625 5.64453 1.97266 5.06836 2.94922 5.06836L6.96289 5.06836L6.96289 3.66211L3.06641 3.66211C1.18164 3.66211 0 4.84375 0 6.43555C0 8.02734 1.18164 9.20898 3.06641 9.20898L6.54297 9.20898C7.5293 9.20898 8.08594 9.78516 8.08594 10.5859C8.08594 11.377 7.51953 11.9434 6.54297 11.9434L0 11.9434Z" fill="var(--color-primary)"/>
 </g>
</svg>
