<?xml version="1.0" encoding="UTF-8"?>
<!--Generator: Apple Native CoreSVG 341-->
<!DOCTYPE svg
PUBLIC "-//W3C//DTD SVG 1.1//EN"
       "http://www.w3.org/Graphics/SVG/1.1/DTD/svg11.dtd">
<svg version="1.1" xmlns="http://www.w3.org/2000/svg" xmlns:xlink="http://www.w3.org/1999/xlink" viewBox="0 0 15.0488 14.248">
 <g>
  <rect height="14.248" opacity="0" width="15.0488" x="0" y="0"/>
  <path d="M14.6875 2.4707L14.6875 11.7871C14.6875 13.4277 13.8672 14.248 12.1973 14.248L2.49023 14.248C0.830078 14.248 0 13.4277 0 11.7871L0 2.4707C0 0.830078 0.830078 0.00976562 2.49023 0.00976562L12.1973 0.00976562C13.8672 0.00976562 14.6875 0.830078 14.6875 2.4707ZM3.65234 9.24805C3.35938 9.24805 3.18359 9.43359 3.18359 9.70703L3.18359 10.3906C3.18359 10.6738 3.35938 10.8496 3.65234 10.8496L5.5957 10.8496C5.86914 10.8496 6.05469 10.6738 6.05469 10.3906L6.05469 9.70703C6.05469 9.43359 5.86914 9.24805 5.5957 9.24805ZM9.0918 9.24805C8.81836 9.24805 8.63281 9.43359 8.63281 9.70703L8.63281 10.3906C8.63281 10.6738 8.81836 10.8496 9.0918 10.8496L11.0352 10.8496C11.3281 10.8496 11.5039 10.6738 11.5039 10.3906L11.5039 9.70703C11.5039 9.43359 11.3281 9.24805 11.0352 9.24805ZM7.00195 2.99805C6.72852 2.99805 6.54297 3.17383 6.54297 3.45703L6.54297 5.69336C6.54297 5.9668 6.72852 6.15234 7.00195 6.15234L7.67578 6.15234C7.95898 6.15234 8.14453 5.9668 8.14453 5.69336L8.14453 3.45703C8.14453 3.17383 7.95898 2.99805 7.67578 2.99805Z" fill="white" fill-opacity="0.85"/>
 </g>
</svg>
