<?xml version="1.0" encoding="UTF-8"?>
<!--Generator: Apple Native CoreSVG 341-->
<!DOCTYPE svg
PUBLIC "-//W3C//DTD SVG 1.1//EN"
       "http://www.w3.org/Graphics/SVG/1.1/DTD/svg11.dtd">
<svg version="1.1" xmlns="http://www.w3.org/2000/svg" xmlns:xlink="http://www.w3.org/1999/xlink" viewBox="0 0 15.0488 14.248">
 <g>
  <rect height="14.248" opacity="0" width="15.0488" x="0" y="0"/>
  <path d="M2.49023 14.248L12.1973 14.248C13.8672 14.248 14.6875 13.4277 14.6875 11.7871L14.6875 2.4707C14.6875 0.830078 13.8672 0.00976562 12.1973 0.00976562L2.49023 0.00976562C0.830078 0.00976562 0 0.830078 0 2.4707L0 11.7871C0 13.4277 0.830078 14.248 2.49023 14.248ZM2.50977 12.832C1.80664 12.832 1.40625 12.4609 1.40625 11.7188L1.40625 2.53906C1.40625 1.80664 1.80664 1.42578 2.50977 1.42578L12.1777 1.42578C12.8809 1.42578 13.2812 1.80664 13.2812 2.53906L13.2812 11.7188C13.2812 12.4609 12.8809 12.832 12.1777 12.832Z" fill="white" fill-opacity="0.85"/>
  <path d="M7.34375 6.2207C8.14453 6.2207 8.79883 5.57617 8.79883 4.76562C8.79883 3.96484 8.14453 3.31055 7.34375 3.31055C6.54297 3.31055 5.88867 3.96484 5.88867 4.76562C5.88867 5.57617 6.54297 6.2207 7.34375 6.2207ZM4.73633 10.9375C5.39062 10.9375 5.91797 10.4004 5.91797 9.74609C5.91797 9.10156 5.39062 8.56445 4.73633 8.56445C4.08203 8.56445 3.55469 9.10156 3.55469 9.74609C3.55469 10.4004 4.08203 10.9375 4.73633 10.9375ZM9.95117 10.9375C10.6055 10.9375 11.1328 10.4004 11.1328 9.74609C11.1328 9.10156 10.6055 8.56445 9.95117 8.56445C9.29688 8.56445 8.76953 9.10156 8.76953 9.74609C8.76953 10.4004 9.29688 10.9375 9.95117 10.9375Z" fill="white" fill-opacity="0.85"/>
 </g>
</svg>
