<svg version="1.1" xmlns="http://www.w3.org/2000/svg" xmlns:xlink="http://www.w3.org/1999/xlink" viewBox="0 0 15.0488 14.248">
 <g>
  <rect height="14.248" opacity="0" width="15.0488" x="0" y="0"/>
  <path d="M2.49023 14.248L12.1973 14.248C13.8672 14.248 14.6875 13.4277 14.6875 11.7871L14.6875 2.4707C14.6875 0.830078 13.8672 0.00976562 12.1973 0.00976562L2.49023 0.00976562C0.830078 0.00976562 0 0.830078 0 2.4707L0 11.7871C0 13.4277 0.830078 14.248 2.49023 14.248Z" fill="var(--color-tertiary)"/>
  <path d="M4.63867 10.4395C3.96484 10.4395 3.4082 9.89258 3.4082 9.20898C3.4082 8.52539 3.96484 7.97852 4.63867 7.97852C5.3125 7.97852 5.86914 8.52539 5.86914 9.20898C5.86914 9.89258 5.3125 10.4395 4.63867 10.4395ZM10.0586 10.4395C9.375 10.4395 8.81836 9.89258 8.81836 9.20898C8.81836 8.52539 9.375 7.97852 10.0586 7.97852C10.7227 7.97852 11.2793 8.52539 11.2793 9.20898C11.2793 9.89258 10.7227 10.4395 10.0586 10.4395ZM7.34375 6.26953C6.66016 6.26953 6.10352 5.72266 6.10352 5.0293C6.10352 4.35547 6.66016 3.80859 7.34375 3.80859C8.01758 3.80859 8.57422 4.35547 8.57422 5.0293C8.57422 5.72266 8.01758 6.26953 7.34375 6.26953Z" fill="var(--color-primary)"/>
 </g>
</svg>
