<?xml version="1.0" encoding="UTF-8"?>
<!--Generator: Apple Native CoreSVG 341-->
<!DOCTYPE svg
PUBLIC "-//W3C//DTD SVG 1.1//EN"
       "http://www.w3.org/Graphics/SVG/1.1/DTD/svg11.dtd">
<svg version="1.1" xmlns="http://www.w3.org/2000/svg" xmlns:xlink="http://www.w3.org/1999/xlink" viewBox="0 0 14.5898 14.248">
 <g>
  <rect height="14.248" opacity="0" width="14.5898" x="0" y="0"/>
  <path d="M1.5625 6.51367L4.93164 6.51367C5.97656 6.51367 6.49414 5.98633 6.49414 4.91211L6.49414 1.61133C6.49414 0.537109 5.97656 0.00976562 4.93164 0.00976562L1.5625 0.00976562C0.517578 0.00976562 0 0.537109 0 1.61133L0 4.91211C0 5.98633 0.517578 6.51367 1.5625 6.51367ZM1.57227 5.2832C1.34766 5.2832 1.2207 5.15625 1.2207 4.91211L1.2207 1.60156C1.2207 1.36719 1.34766 1.24023 1.57227 1.24023L4.91211 1.24023C5.14648 1.24023 5.27344 1.36719 5.27344 1.60156L5.27344 4.91211C5.27344 5.15625 5.14648 5.2832 4.91211 5.2832ZM2.56836 4.0918L3.91602 4.0918C4.0332 4.0918 4.08203 4.04297 4.08203 3.90625L4.08203 2.60742C4.08203 2.48047 4.0332 2.43164 3.91602 2.43164L2.56836 2.43164C2.45117 2.43164 2.41211 2.48047 2.41211 2.60742L2.41211 3.90625C2.41211 4.04297 2.45117 4.0918 2.56836 4.0918ZM9.29688 6.51367L12.666 6.51367C13.7109 6.51367 14.2285 5.98633 14.2285 4.91211L14.2285 1.61133C14.2285 0.537109 13.7109 0.00976562 12.666 0.00976562L9.29688 0.00976562C8.25195 0.00976562 7.73438 0.537109 7.73438 1.61133L7.73438 4.91211C7.73438 5.98633 8.25195 6.51367 9.29688 6.51367ZM9.31641 5.2832C9.08203 5.2832 8.95508 5.15625 8.95508 4.91211L8.95508 1.60156C8.95508 1.36719 9.08203 1.24023 9.31641 1.24023L12.6562 1.24023C12.8906 1.24023 13.0078 1.36719 13.0078 1.60156L13.0078 4.91211C13.0078 5.15625 12.8906 5.2832 12.6562 5.2832ZM10.3613 4.0918L11.709 4.0918C11.8262 4.0918 11.875 4.04297 11.875 3.90625L11.875 2.60742C11.875 2.48047 11.8262 2.43164 11.709 2.43164L10.3613 2.43164C10.2441 2.43164 10.2051 2.48047 10.2051 2.60742L10.2051 3.90625C10.2051 4.04297 10.2441 4.0918 10.3613 4.0918ZM1.5625 14.248L4.93164 14.248C5.97656 14.248 6.49414 13.7207 6.49414 12.6465L6.49414 9.3457C6.49414 8.27148 5.97656 7.75391 4.93164 7.75391L1.5625 7.75391C0.517578 7.75391 0 8.27148 0 9.3457L0 12.6465C0 13.7207 0.517578 14.248 1.5625 14.248ZM1.57227 13.0176C1.34766 13.0176 1.2207 12.8906 1.2207 12.6562L1.2207 9.3457C1.2207 9.10156 1.34766 8.97461 1.57227 8.97461L4.91211 8.97461C5.14648 8.97461 5.27344 9.10156 5.27344 9.3457L5.27344 12.6562C5.27344 12.8906 5.14648 13.0176 4.91211 13.0176ZM2.56836 11.8262L3.91602 11.8262C4.0332 11.8262 4.08203 11.7773 4.08203 11.6406L4.08203 10.3418C4.08203 10.2148 4.0332 10.166 3.91602 10.166L2.56836 10.166C2.45117 10.166 2.41211 10.2148 2.41211 10.3418L2.41211 11.6406C2.41211 11.7773 2.45117 11.8262 2.56836 11.8262ZM8.27148 9.79492L9.61914 9.79492C9.73633 9.79492 9.78516 9.74609 9.78516 9.60938L9.78516 8.31055C9.78516 8.18359 9.73633 8.13477 9.61914 8.13477L8.27148 8.13477C8.1543 8.13477 8.11523 8.18359 8.11523 8.31055L8.11523 9.60938C8.11523 9.74609 8.1543 9.79492 8.27148 9.79492ZM12.334 9.79492L13.6816 9.79492C13.7988 9.79492 13.8477 9.74609 13.8477 9.60938L13.8477 8.31055C13.8477 8.18359 13.7988 8.13477 13.6816 8.13477L12.334 8.13477C12.2168 8.13477 12.1777 8.18359 12.1777 8.31055L12.1777 9.60938C12.1777 9.74609 12.2168 9.79492 12.334 9.79492ZM10.3223 11.8262L11.6699 11.8262C11.7871 11.8262 11.8359 11.7773 11.8359 11.6406L11.8359 10.3418C11.8359 10.2148 11.7871 10.166 11.6699 10.166L10.3223 10.166C10.2051 10.166 10.166 10.2148 10.166 10.3418L10.166 11.6406C10.166 11.7773 10.2051 11.8262 10.3223 11.8262ZM8.27148 13.8574L9.61914 13.8574C9.73633 13.8574 9.78516 13.8086 9.78516 13.6719L9.78516 12.373C9.78516 12.2461 9.73633 12.1973 9.61914 12.1973L8.27148 12.1973C8.1543 12.1973 8.11523 12.2461 8.11523 12.373L8.11523 13.6719C8.11523 13.8086 8.1543 13.8574 8.27148 13.8574ZM12.334 13.8574L13.6816 13.8574C13.7988 13.8574 13.8477 13.8086 13.8477 13.6719L13.8477 12.373C13.8477 12.2461 13.7988 12.1973 13.6816 12.1973L12.334 12.1973C12.2168 12.1973 12.1777 12.2461 12.1777 12.373L12.1777 13.6719C12.1777 13.8086 12.2168 13.8574 12.334 13.8574Z" fill="white" fill-opacity="0.85"/>
 </g>
</svg>
