<svg version="1.1" xmlns="http://www.w3.org/2000/svg" xmlns:xlink="http://www.w3.org/1999/xlink" viewBox="0 0 17.9103 17.5587">
 <g>
  <rect height="17.5587" opacity="0" width="17.9103" x="0" y="0"/>
  <path d="M0.888733 10.5323L7.02155 16.6553C8.19342 17.837 9.34576 17.8467 10.5176 16.6846L16.6797 10.5128C17.8516 9.35065 17.8321 8.1983 16.6505 7.01666L10.5274 0.893616C9.35553-0.288025 8.20319-0.297791 7.03131 0.864319L0.869202 7.03619C-0.302673 8.20807-0.283142 9.35065 0.888733 10.5323Z" fill="var(--color-tertiary)"/>
  <path d="M8.60358 10.4346C8.13483 10.4346 7.88092 10.2003 7.88092 9.72174C7.88092 9.70221 7.88092 9.68268 7.88092 9.67291C7.88092 8.8526 8.34967 8.43268 8.88678 8.05182C9.57037 7.5733 9.91217 7.33893 9.91217 6.80182C9.91217 6.22565 9.47272 5.84479 8.81842 5.84479C8.37897 5.84479 8.01764 6.0108 7.67584 6.43073L7.50983 6.64557C7.33405 6.84088 7.1485 6.98737 6.84576 6.98737C6.5528 6.98737 6.22076 6.77252 6.22076 6.37213C6.22076 6.22565 6.25983 6.08893 6.30865 5.95221C6.5528 5.23932 7.47076 4.62408 8.86725 4.62408C10.254 4.62408 11.504 5.32721 11.504 6.73346C11.504 7.72955 10.8887 8.1983 10.1368 8.68658C9.60944 9.03815 9.336 9.31158 9.336 9.74127C9.336 9.7608 9.336 9.78033 9.336 9.79987C9.336 10.1514 9.06256 10.4346 8.60358 10.4346ZM8.58405 12.8663C8.086 12.8663 7.65631 12.4756 7.65631 11.9776C7.65631 11.4796 8.07623 11.0792 8.58405 11.0792C9.09186 11.0792 9.52155 11.4698 9.52155 11.9776C9.52155 12.4854 9.08209 12.8663 8.58405 12.8663Z" fill="var(--color-primary)"/>
 </g>
</svg>
