<svg version="1.1" xmlns="http://www.w3.org/2000/svg" xmlns:xlink="http://www.w3.org/1999/xlink" viewBox="0 0 14.6582 14.2871">
 <g>
  <rect height="14.2871" opacity="0" width="14.6582" x="0" y="0"/>
  <path d="M4.18945 14.2871L10.1074 14.2871C11.4453 14.2871 12.5 13.8867 13.1934 13.1934C13.916 12.4902 14.2969 11.4355 14.2969 10.0977L14.2969 4.18945C14.2969 2.85156 13.916 1.79688 13.1934 1.09375C12.4902 0.390625 11.4453 0 10.1074 0L4.18945 0C2.85156 0 1.78711 0.400391 1.09375 1.09375C0.380859 1.79688 0 2.85156 0 4.18945L0 10.0977C0 11.4355 0.380859 12.4902 1.09375 13.1934C1.78711 13.8867 2.85156 14.2871 4.18945 14.2871Z" fill="var(--color-tertiary)"/>
  <path d="M6.96289 8.79883C6.49414 8.79883 6.24023 8.56445 6.24023 8.08594C6.24023 8.06641 6.24023 8.04688 6.24023 8.03711C6.24023 7.2168 6.70898 6.79688 7.24609 6.41602C7.92969 5.9375 8.27148 5.70312 8.27148 5.16602C8.27148 4.58984 7.83203 4.20898 7.17773 4.20898C6.73828 4.20898 6.37695 4.375 6.03516 4.79492L5.86914 5.00977C5.69336 5.20508 5.50781 5.35156 5.20508 5.35156C4.91211 5.35156 4.58008 5.13672 4.58008 4.73633C4.58008 4.58984 4.61914 4.45312 4.66797 4.31641C4.91211 3.60352 5.83008 2.98828 7.23633 2.98828C8.61328 2.98828 9.86328 3.69141 9.86328 5.09766C9.86328 6.09375 9.25781 6.5625 8.49609 7.05078C7.96875 7.40234 7.69531 7.67578 7.69531 8.10547C7.69531 8.125 7.69531 8.14453 7.69531 8.16406C7.69531 8.51562 7.42188 8.79883 6.96289 8.79883ZM6.94336 11.2305C6.45508 11.2305 6.01562 10.8398 6.01562 10.3418C6.01562 9.84375 6.44531 9.44336 6.94336 9.44336C7.45117 9.44336 7.88086 9.83398 7.88086 10.3418C7.88086 10.8496 7.44141 11.2305 6.94336 11.2305Z" fill="var(--color-primary)"/>
 </g>
</svg>
