<?xml version="1.0" encoding="UTF-8"?>
<!--Generator: Apple Native CoreSVG 341-->
<!DOCTYPE svg
PUBLIC "-//W3C//DTD SVG 1.1//EN"
       "http://www.w3.org/Graphics/SVG/1.1/DTD/svg11.dtd">
<svg version="1.1" xmlns="http://www.w3.org/2000/svg" xmlns:xlink="http://www.w3.org/1999/xlink" viewBox="0 0 14.5898 14.248">
 <g>
  <rect height="14.248" opacity="0" width="14.5898" x="0" y="0"/>
  <path d="M2.49023 14.248L11.7383 14.248C13.4082 14.248 14.2285 13.4277 14.2285 11.7871L14.2285 2.4707C14.2285 0.830078 13.4082 0.00976562 11.7383 0.00976562L2.49023 0.00976562C0.830078 0.00976562 0 0.830078 0 2.4707L0 11.7871C0 13.4277 0.830078 14.248 2.49023 14.248ZM2.50977 12.832C1.80664 12.832 1.40625 12.4512 1.40625 11.7188L1.40625 2.53906C1.40625 1.79688 1.80664 1.42578 2.50977 1.42578L11.7188 1.42578C12.4219 1.42578 12.8223 1.79688 12.8223 2.53906L12.8223 11.7188C12.8223 12.4512 12.4219 12.832 11.7188 12.832Z" fill="white" fill-opacity="0.85"/>
  <path d="M6.96289 8.7207C7.40234 8.7207 7.66602 8.44727 7.66602 8.10547C7.66602 8.08594 7.66602 8.06641 7.66602 8.04688C7.66602 7.63672 7.92969 7.37305 8.4375 7.03125C9.16992 6.5625 9.74609 6.11328 9.74609 5.14648C9.74609 3.79883 8.54492 3.11523 7.2168 3.11523C5.86914 3.11523 4.98047 3.7207 4.74609 4.39453C4.69727 4.53125 4.66797 4.66797 4.66797 4.80469C4.66797 5.18555 4.98047 5.39062 5.26367 5.39062C5.55664 5.39062 5.73242 5.26367 5.9082 5.05859L6.07422 4.86328C6.39648 4.45312 6.73828 4.28711 7.1582 4.28711C7.80273 4.28711 8.22266 4.6582 8.22266 5.21484C8.22266 5.73242 7.89062 5.9668 7.23633 6.41602C6.70898 6.78711 6.26953 7.19727 6.26953 7.97852C6.26953 7.98828 6.26953 8.01758 6.26953 8.02734C6.26953 8.48633 6.51367 8.7207 6.96289 8.7207ZM6.94336 11.0645C7.42188 11.0645 7.8418 10.6836 7.8418 10.2051C7.8418 9.7168 7.43164 9.3457 6.94336 9.3457C6.45508 9.3457 6.04492 9.72656 6.04492 10.2051C6.04492 10.6738 6.46484 11.0645 6.94336 11.0645Z" fill="white" fill-opacity="0.85"/>
 </g>
</svg>
