<?xml version="1.0" encoding="UTF-8"?>
<!--Generator: Apple Native CoreSVG 341-->
<!DOCTYPE svg
PUBLIC "-//W3C//DTD SVG 1.1//EN"
       "http://www.w3.org/Graphics/SVG/1.1/DTD/svg11.dtd">
<svg version="1.1" xmlns="http://www.w3.org/2000/svg" xmlns:xlink="http://www.w3.org/1999/xlink" viewBox="0 0 14.6582 14.2871">
 <g>
  <rect height="14.2871" opacity="0" width="14.6582" x="0" y="0"/>
  <path d="M13.1934 1.09375C13.916 1.79688 14.2969 2.85156 14.2969 4.18945L14.2969 10.0977C14.2969 11.4355 13.916 12.4902 13.1934 13.1934C12.5 13.8867 11.4453 14.2871 10.1074 14.2871L4.18945 14.2871C2.85156 14.2871 1.78711 13.8867 1.09375 13.1934C0.380859 12.4902 0 11.4355 0 10.0977L0 4.18945C0 2.85156 0.380859 1.79688 1.09375 1.09375C1.78711 0.400391 2.85156 0 4.18945 0L10.1074 0C11.4453 0 12.4902 0.390625 13.1934 1.09375ZM6.01562 10.3418C6.01562 10.8398 6.45508 11.2305 6.94336 11.2305C7.44141 11.2305 7.88086 10.8496 7.88086 10.3418C7.88086 9.83398 7.45117 9.44336 6.94336 9.44336C6.44531 9.44336 6.01562 9.84375 6.01562 10.3418ZM4.66797 4.31641C4.61914 4.45312 4.58008 4.58984 4.58008 4.73633C4.58008 5.13672 4.91211 5.35156 5.20508 5.35156C5.50781 5.35156 5.69336 5.20508 5.86914 5.00977L6.03516 4.79492C6.37695 4.375 6.73828 4.20898 7.17773 4.20898C7.83203 4.20898 8.27148 4.58984 8.27148 5.16602C8.27148 5.70312 7.92969 5.9375 7.24609 6.41602C6.70898 6.79688 6.24023 7.2168 6.24023 8.03711C6.24023 8.04688 6.24023 8.06641 6.24023 8.08594C6.24023 8.56445 6.49414 8.79883 6.96289 8.79883C7.42188 8.79883 7.69531 8.51562 7.69531 8.16406C7.69531 8.14453 7.69531 8.125 7.69531 8.10547C7.69531 7.67578 7.96875 7.40234 8.49609 7.05078C9.25781 6.5625 9.86328 6.09375 9.86328 5.09766C9.86328 3.69141 8.61328 2.98828 7.23633 2.98828C5.83008 2.98828 4.91211 3.60352 4.66797 4.31641Z" fill="white" fill-opacity="0.85"/>
 </g>
</svg>
