<?xml version="1.0" encoding="UTF-8"?>
<!--Generator: Apple Native CoreSVG 341-->
<!DOCTYPE svg
PUBLIC "-//W3C//DTD SVG 1.1//EN"
       "http://www.w3.org/Graphics/SVG/1.1/DTD/svg11.dtd">
<svg version="1.1" xmlns="http://www.w3.org/2000/svg" xmlns:xlink="http://www.w3.org/1999/xlink" viewBox="0 0 19.2466 18.0176">
 <g>
  <rect height="18.0176" opacity="0" width="19.2466" x="0" y="0"/>
  <path d="M15.263 2.36328L15.263 6.0558C15.1889 6.07373 15.1139 6.0966 15.0384 6.12305C14.6673 5.64453 14.1009 5.48828 13.5052 5.71289C13.2806 5.79102 13.0852 5.89844 12.9095 6.03516C12.4993 5.49805 11.8841 5.32227 11.2395 5.54688C11.0833 5.60547 10.927 5.69336 10.7806 5.79102L9.93094 3.45703C9.58914 2.50977 8.72977 2.09961 7.82157 2.42188C6.91336 2.75391 6.51297 3.62305 6.85477 4.57031L8.98368 10.4004C8.99344 10.4395 8.98368 10.4688 8.94461 10.4883C8.91532 10.498 8.89578 10.4883 8.87625 10.459L8.14383 9.67773C7.68485 9.19922 7.1575 9.0625 6.61063 9.24805C5.88797 9.51172 5.40946 10.1953 5.71219 11.0254C5.79032 11.2695 5.95633 11.5527 6.14188 11.7871L6.73289 12.5L2.62625 12.5C1.00516 12.5 0.22391 11.7383 0.22391 10.1367L0.22391 2.36328C0.22391 0.771484 1.00516 0 2.62625 0L12.8606 0C14.472 0 15.263 0.771484 15.263 2.36328Z" fill="white" fill-opacity="0.85"/>
  <path d="M15.595 17.0605C18.7395 15.918 20.0091 13.0176 18.7884 9.62891L18.1829 7.98828C17.5774 6.33789 16.4056 5.64453 15.0384 6.12305C14.6673 5.64453 14.1009 5.48828 13.5052 5.71289C13.2806 5.79102 13.0852 5.89844 12.9095 6.03516C12.4993 5.49805 11.8841 5.32227 11.2395 5.54688C11.0833 5.60547 10.927 5.69336 10.7806 5.79102L9.93094 3.45703C9.58914 2.50977 8.72977 2.09961 7.82157 2.42188C6.91336 2.75391 6.51297 3.62305 6.85477 4.57031L8.98368 10.4004C8.99344 10.4395 8.98368 10.4688 8.94461 10.4883C8.91532 10.498 8.89578 10.4883 8.87625 10.459L8.14383 9.67773C7.68485 9.19922 7.1575 9.0625 6.61063 9.24805C5.88797 9.51172 5.40946 10.1953 5.71219 11.0254C5.79032 11.2695 5.95633 11.5527 6.14188 11.7871L8.65164 14.8145C10.6829 17.2559 12.9876 18.0078 15.595 17.0605ZM15.2239 15.9082C13.222 16.6406 11.3665 16.3281 9.52078 14.1113L7.01102 11.0938C6.93289 11.0059 6.8743 10.9277 6.83524 10.8008C6.74735 10.5762 6.845 10.3223 7.11844 10.2246C7.35282 10.1367 7.51883 10.2246 7.69461 10.4102L9.48172 12.207C9.80399 12.5391 10.0774 12.5781 10.3509 12.4805C10.6634 12.3633 10.7903 12.0312 10.6634 11.6797L7.90946 4.10156C7.80203 3.83789 7.93875 3.57422 8.21219 3.47656C8.47586 3.37891 8.72977 3.49609 8.82743 3.76953L10.8001 9.19922C10.9075 9.48242 11.2298 9.59961 11.5032 9.49219C11.7669 9.39453 11.9329 9.10156 11.8352 8.82812L11.1223 6.89453C11.2102 6.79688 11.347 6.69922 11.4837 6.66016C11.8059 6.54297 12.0891 6.67969 12.2063 7.01172L12.8411 8.76953C12.9485 9.04297 13.2708 9.16016 13.5442 9.0625C13.8177 8.96484 13.9739 8.68164 13.8763 8.39844L13.3782 7.04102C13.4661 6.95312 13.6028 6.85547 13.7395 6.80664C14.0716 6.68945 14.345 6.82617 14.472 7.16797L14.8919 8.33984C14.9895 8.62305 15.3216 8.73047 15.595 8.63281C15.8587 8.53516 16.0149 8.24219 15.927 7.95898L15.6341 7.16797C16.2102 6.96289 16.7766 7.48047 17.177 8.56445L17.6556 9.88281C18.7005 12.7441 17.8118 14.9707 15.2239 15.9082Z" fill="white" fill-opacity="0.85"/>
 </g>
</svg>
