<svg version="1.1" xmlns="http://www.w3.org/2000/svg" xmlns:xlink="http://www.w3.org/1999/xlink" viewBox="0 0 21.5203 19.1459">
 <g>
  <rect height="19.1459" opacity="0" width="21.5203" x="0" y="0"/>
  <path d="M16.3998 2.92745L16.3998 6.40635C15.5628 5.98575 14.647 6.18131 14.1147 6.56026C13.4311 6.09151 12.6107 6.11104 11.9857 6.36495L11.0775 3.87472C10.6674 2.75167 9.52481 2.21456 8.47989 2.59542C7.37637 3.00558 6.88809 4.13839 7.29825 5.25167L9.00723 9.9294L8.91934 9.86104C8.46036 9.66573 7.97208 9.65597 7.49356 9.84151C6.44864 10.2321 5.90176 11.3161 6.27286 12.3317C6.37051 12.5954 6.50723 12.8493 6.67325 13.0544L6.68114 13.0642L3.76309 13.0642C2.142 13.0642 1.36075 12.3025 1.36075 10.7009L1.36075 2.92745C1.36075 1.33565 2.142 0.564169 3.76309 0.564169L13.9975 0.564169C15.6088 0.564169 16.3998 1.33565 16.3998 2.92745Z" fill="var(--color-secondary)"/>
  <path d="M16.8979 17.6247C20.0619 16.4724 21.1068 13.7966 19.9057 10.4567L19.3881 9.01143C18.9291 7.7419 18.0307 7.18526 17.3471 7.43917C17.1908 7.49776 17.142 7.60518 17.1908 7.75167L17.3959 8.33761C17.5131 8.65011 17.4057 8.87472 17.2299 8.94308C17.015 9.0212 16.8002 8.92354 16.683 8.60128L16.5463 8.22042C16.2729 7.47823 15.6283 7.16573 14.9838 7.40011C14.6908 7.50753 14.5932 7.67354 14.6908 7.92745L14.9838 8.72823C15.1107 9.0505 14.9936 9.25558 14.8178 9.32393C14.6029 9.40206 14.3881 9.3044 14.2709 8.9919L14.0072 8.23995C13.7143 7.40011 13.0697 7.19503 12.4447 7.41964C12.1713 7.51729 12.0736 7.70284 12.1615 7.93722L12.7377 9.54854C12.8549 9.87081 12.7475 10.0759 12.5717 10.1442C12.3568 10.2224 12.142 10.1247 12.0248 9.80245L10.0131 4.27511C9.81778 3.738 9.3295 3.51339 8.88028 3.6794C8.392 3.86495 8.18692 4.3337 8.38223 4.87081L11.3803 13.0837C11.4584 13.2985 11.3607 13.4548 11.2338 13.4939C11.1068 13.5329 10.9799 13.5036 10.8041 13.3181L8.83145 11.1794C8.53848 10.8669 8.23575 10.7888 7.90372 10.9157C7.41543 11.1013 7.21036 11.5505 7.35684 11.9607C7.41543 12.1267 7.50333 12.2536 7.58145 12.3513L9.98379 15.3493C12.142 18.0251 14.5541 18.4743 16.8979 17.6247Z" fill="var(--color-primary)"/>
 </g>
</svg>
