<?xml version="1.0" encoding="UTF-8"?>
<!--Generator: Apple Native CoreSVG 341-->
<!DOCTYPE svg
PUBLIC "-//W3C//DTD SVG 1.1//EN"
       "http://www.w3.org/Graphics/SVG/1.1/DTD/svg11.dtd">
<svg version="1.1" xmlns="http://www.w3.org/2000/svg" xmlns:xlink="http://www.w3.org/1999/xlink" viewBox="0 0 19.4141 13.7598">
 <g>
  <rect height="13.7598" opacity="0" width="19.4141" x="0" y="0"/>
  <path d="M16.8848 6.02539L18.2715 6.02539L18.2715 2.94922C18.2715 1.75781 17.373 0.869141 16.0742 0.869141L7.50977 0.869141L7.50977 2.25586L15.8691 2.25586C16.5137 2.25586 16.8848 2.67578 16.8848 3.24219ZM11.543 12.7441L11.543 11.3477L3.18359 11.3477C2.53906 11.3477 2.16797 10.9375 2.16797 10.3711L2.16797 7.58789L0.78125 7.58789L0.78125 10.6641C0.78125 11.8555 1.67969 12.7441 2.97852 12.7441Z" fill="white" fill-opacity="0.425"/>
  <path d="M1.25977 0C0.458984 0 0 0.458984 0 1.25977L0 4.75586C0 5.18555 0.292969 5.49805 0.703125 5.49805C1.11328 5.49805 1.40625 5.18555 1.40625 4.76562L1.40625 3.84766L1.18164 1.19141L1.18164 1.19141L3.85742 1.40625L4.77539 1.40625C5.20508 1.40625 5.51758 1.11328 5.50781 0.703125C5.51758 0.273438 5.20508 0 4.77539 0ZM1.8457 0.898438C1.5918 0.654297 1.16211 0.654297 0.917969 0.898438C0.664062 1.16211 0.673828 1.57227 0.917969 1.83594L2.91992 3.96484L4.22852 5.2832C4.36523 5.42969 4.53125 5.49805 4.72656 5.50781C5.16602 5.49805 5.50781 5.20508 5.50781 4.75586C5.50781 4.55078 5.41992 4.375 5.2832 4.22852L3.97461 2.91992ZM14.2773 13.5254L17.793 13.5254C18.5938 13.5254 19.0527 13.0566 19.0527 12.2656L19.0527 8.75977C19.0527 8.33008 18.7598 8.01758 18.3496 8.01758C17.9395 8.01758 17.6465 8.33008 17.6465 8.75L17.6465 9.66797L17.8711 12.3242L17.8711 12.3242L15.1953 12.1094L14.2773 12.1094C13.8477 12.1094 13.5352 12.4023 13.5449 12.8125C13.5352 13.2422 13.8477 13.5254 14.2773 13.5254ZM17.207 12.6172C17.4609 12.8613 17.8906 12.8613 18.1348 12.6172C18.3887 12.3535 18.3789 11.9434 18.1348 11.6797L16.1328 9.55078L14.8242 8.23242C14.6875 8.0957 14.5215 8.01758 14.3262 8.00781C13.8867 8.01758 13.5449 8.32031 13.5449 8.75977C13.5449 8.96484 13.6328 9.14062 13.7695 9.29688L15.0781 10.6055Z" fill="white" fill-opacity="0.85"/>
 </g>
</svg>
