<svg version="1.1" xmlns="http://www.w3.org/2000/svg" xmlns:xlink="http://www.w3.org/1999/xlink" viewBox="0 0 14.5898 14.248">
 <g>
  <rect height="14.248" opacity="0" width="14.5898" x="0" y="0"/>
  <path d="M14.2285 2.4707L14.2285 11.7871C14.2285 13.4277 13.4082 14.248 11.7383 14.248L2.49023 14.248C0.830078 14.248 0 13.4277 0 11.7871L0 2.4707C0 0.830078 0.830078 0.00976562 2.49023 0.00976562L11.7383 0.00976562C13.4082 0.00976562 14.2285 0.830078 14.2285 2.4707ZM2.50977 1.42578C1.80664 1.42578 1.40625 1.79688 1.40625 2.53906L1.40625 11.7188C1.40625 12.4512 1.80664 12.832 2.50977 12.832L11.7188 12.832C12.4219 12.832 12.8223 12.4512 12.8223 11.7188L12.8223 2.53906C12.8223 1.79688 12.4219 1.42578 11.7188 1.42578Z" fill="var(--color-secondary)"/>
  <path d="M9.85352 4.48242L9.85352 4.50195L5.43945 4.50195C4.41406 4.50195 3.82812 5.09766 3.82812 6.09375L3.82813 9.0918L3.75 9.0918C3.01758 9.0918 2.66602 8.74023 2.66602 8.01758L2.66602 4.48242C2.66602 3.7793 3.01758 3.41797 3.75 3.41797L8.76953 3.41797C9.50195 3.41797 9.85352 3.7793 9.85352 4.48242Z" fill="var(--color-primary)"/>
  <path d="M5.43945 10.7031L10.4688 10.7031C11.1914 10.7031 11.5527 10.3613 11.5527 9.62891L11.5527 6.09375C11.5527 5.39062 11.1914 5.0293 10.4688 5.0293L5.43945 5.0293C4.7168 5.0293 4.35547 5.39062 4.35547 6.09375L4.35547 9.62891C4.35547 10.3613 4.7168 10.7031 5.43945 10.7031Z" fill="var(--color-primary)"/>
 </g>
</svg>
