<?xml version="1.0" encoding="UTF-8"?>
<!--Generator: Apple Native CoreSVG 341-->
<!DOCTYPE svg
PUBLIC "-//W3C//DTD SVG 1.1//EN"
       "http://www.w3.org/Graphics/SVG/1.1/DTD/svg11.dtd">
<svg version="1.1" xmlns="http://www.w3.org/2000/svg" xmlns:xlink="http://www.w3.org/1999/xlink" viewBox="0 0 19.9243 22.0704">
 <g>
  <rect height="22.0704" opacity="0" width="19.9243" x="0" y="0"/>
  <path d="M14.794 3.51077L5.14012 3.51077C5.16144 2.80476 5.58824 2.40725 6.32935 2.40725L13.6047 2.40725C14.3459 2.40725 14.7727 2.80476 14.794 3.51077Z" fill="white" fill-opacity="0.425"/>
  <path d="M16.3946 5.81409C16.1159 5.76247 15.8165 5.73733 15.4993 5.73733L5.89109 5.73733L4.68832 4.53533C4.8176 4.50955 4.95821 4.4971 5.10865 4.4971L14.8254 4.4971C15.7575 4.4971 16.3112 4.96591 16.3946 5.81409Z" fill="white" fill-opacity="0.425"/>
  <path d="M3.94185 8.41393C3.5598 8.5645 3.35084 8.9121 3.35084 9.44827L3.35084 17.1045C3.35084 17.8467 3.75123 18.2276 4.45435 18.2276L13.7741 18.2276L15.183 19.6338L4.43482 19.6338C2.7649 19.6338 1.94459 18.8233 1.94459 17.1826L1.94459 9.37014C1.94459 8.38636 2.23954 7.70105 2.83814 7.31231ZM17.9895 9.37014L17.9895 17.1826C17.9895 17.3978 17.9752 17.5987 17.9458 17.7844L16.5833 16.4227L16.5833 9.44827C16.5833 8.70608 16.1829 8.32522 15.4797 8.32522L8.48062 8.32522L7.07348 6.91897L15.4993 6.91897C17.1594 6.91897 17.9895 7.73929 17.9895 9.37014Z" fill="white" fill-opacity="0.425"/>
  <path d="M17.8235 20.9229C18.0872 21.1866 18.5169 21.1866 18.7708 20.9229C19.0247 20.6592 19.0344 20.2295 18.7708 19.9658L3.33131 4.53616C3.06763 4.27249 2.63795 4.27249 2.37427 4.53616C2.12037 4.79007 2.12037 5.22952 2.37427 5.48343Z" fill="white" fill-opacity="0.85"/>
 </g>
</svg>
