<svg version="1.1" xmlns="http://www.w3.org/2000/svg" xmlns:xlink="http://www.w3.org/1999/xlink" viewBox="0 0 20.0562 15.0293">
 <g>
  <rect height="15.0293" opacity="0" width="20.0562" x="0" y="0"/>
  <path d="M7.17653 15.0195L12.5086 15.0195C14.1492 15.0195 14.9597 14.1992 14.9597 12.5293L14.9597 2.5C14.9597 0.830078 14.1492 0 12.5086 0L7.17653 0C5.5359 0 4.72535 0.830078 4.72535 2.5L4.72535 12.5293C4.72535 14.1992 5.54567 15.0195 7.17653 15.0195ZM7.25465 13.6133C6.51246 13.6133 6.1316 13.2031 6.1316 12.5098L6.1316 2.51953C6.1316 1.81641 6.51246 1.41602 7.25465 1.41602L12.4304 1.41602C13.1726 1.41602 13.5535 1.81641 13.5535 2.51953L13.5535 12.5098C13.5535 13.2031 13.1726 13.6133 12.4304 13.6133Z" fill="var(--color-secondary)"/>
  <path d="M3.73903 9.20898L3.73903 5.81055C3.73903 5.37109 3.38746 5.15625 2.98707 5.40039L0.281994 7.06055C-0.0890994 7.29492-0.0988651 7.73438 0.281994 7.95898L2.98707 9.60938C3.38746 9.85352 3.73903 9.6582 3.73903 9.20898ZM15.9461 9.20898C15.9461 9.6582 16.3074 9.85352 16.698 9.60938L19.4129 7.95898C19.7937 7.73438 19.7839 7.29492 19.4129 7.06055L16.698 5.40039C16.3074 5.15625 15.9461 5.37109 15.9461 5.81055Z" fill="var(--color-primary)"/>
 </g>
</svg>
