<?xml version="1.0" encoding="UTF-8"?>
<!--Generator: Apple Native CoreSVG 341-->
<!DOCTYPE svg
PUBLIC "-//W3C//DTD SVG 1.1//EN"
       "http://www.w3.org/Graphics/SVG/1.1/DTD/svg11.dtd">
<svg version="1.1" xmlns="http://www.w3.org/2000/svg" xmlns:xlink="http://www.w3.org/1999/xlink" viewBox="0 0 21.8555 14.1113">
 <g>
  <rect height="14.1113" opacity="0" width="21.8555" x="0" y="0"/>
  <path d="M3.47656 14.1113L9.79492 14.1113C10.8984 14.1113 11.4453 13.5645 11.4453 12.4316L11.4453 10.0098C11.4453 8.87695 10.8984 8.32031 9.79492 8.32031L3.47656 8.32031C2.37305 8.32031 1.82617 8.87695 1.82617 10.0098L1.82617 12.4316C1.82617 13.5645 2.37305 14.1113 3.47656 14.1113Z" fill="white" fill-opacity="0.85"/>
  <path d="M14.6191 13.0664L19.8438 13.0664C20.957 13.0664 21.4941 12.5098 21.4941 11.377L21.4941 2.8125C21.4941 1.68945 20.957 1.12305 19.8438 1.12305L14.6191 1.12305C13.5156 1.12305 12.9688 1.68945 12.9688 2.8125L12.9688 11.377C12.9688 12.5098 13.5156 13.0664 14.6191 13.0664Z" fill="white" fill-opacity="0.85"/>
  <path d="M1.64062 6.76758L8.86719 6.76758C9.9707 6.76758 10.5176 6.21094 10.5176 5.07812L10.5176 1.67969C10.5176 0.546875 9.9707 0 8.86719 0L1.64062 0C0.546875 0 0 0.546875 0 1.67969L0 5.07812C0 6.21094 0.546875 6.76758 1.64062 6.76758Z" fill="white" fill-opacity="0.85"/>
 </g>
</svg>
