<?xml version="1.0" encoding="UTF-8"?>
<!--Generator: Apple Native CoreSVG 341-->
<!DOCTYPE svg
PUBLIC "-//W3C//DTD SVG 1.1//EN"
       "http://www.w3.org/Graphics/SVG/1.1/DTD/svg11.dtd">
<svg version="1.1" xmlns="http://www.w3.org/2000/svg" xmlns:xlink="http://www.w3.org/1999/xlink" viewBox="0 0 20.6445 21.4746">
 <g>
  <rect height="21.4746" opacity="0" width="20.6445" x="0" y="0"/>
  <path d="M4.79492 7.70508L4.79492 16.4551L4.7168 16.4551C3.07617 16.4551 2.26562 15.625 2.26562 13.9648L2.26562 5.17578ZM14.3457 3.62305L14.3457 3.86719L8.38867 3.86719C7.49247 3.86719 6.74647 4.07297 6.1733 4.46432L3.20203 1.49305C3.58643 1.25206 4.09128 1.13281 4.7168 1.13281L11.8945 1.13281C13.5352 1.13281 14.3457 1.95312 14.3457 3.62305Z" fill="white" fill-opacity="0.85"/>
  <path d="M17.0681 19.9783C16.6849 20.2142 16.1845 20.332 15.5664 20.332L8.38867 20.332C6.74805 20.332 5.92773 19.502 5.92773 17.8418L5.92773 8.83789ZM18.0176 7.5L18.0176 16.3086L7.00516 5.29618C7.37047 5.10406 7.83242 5.00977 8.38867 5.00977L15.5664 5.00977C17.207 5.00977 18.0176 5.83008 18.0176 7.5Z" fill="white" fill-opacity="0.85"/>
  <path d="M18.1836 19.7363C18.4473 20 18.877 20 19.1309 19.7363C19.3848 19.4727 19.3945 19.0527 19.1309 18.7891L2.10938 1.74805C1.8457 1.48438 1.41602 1.48438 1.15234 1.74805C0.898438 2.00195 0.898438 2.45117 1.15234 2.70508Z" fill="white" fill-opacity="0.85"/>
 </g>
</svg>
