<?xml version="1.0" encoding="UTF-8"?>
<!--Generator: Apple Native CoreSVG 341-->
<!DOCTYPE svg
PUBLIC "-//W3C//DTD SVG 1.1//EN"
       "http://www.w3.org/Graphics/SVG/1.1/DTD/svg11.dtd">
<svg version="1.1" xmlns="http://www.w3.org/2000/svg" xmlns:xlink="http://www.w3.org/1999/xlink" viewBox="0 0 16.1328 15.7715">
 <g>
  <rect height="15.7715" opacity="0" width="16.1328" x="0" y="0"/>
  <path d="M15.7715 7.88086C15.7715 12.2266 12.2363 15.7617 7.88086 15.7617C3.53516 15.7617 0 12.2266 0 7.88086C0 3.53516 3.53516 0 7.88086 0C12.2363 0 15.7715 3.53516 15.7715 7.88086ZM11.2988 8.38867L11.2988 8.82812C11.2988 9.51172 10.8008 9.99023 10.0586 9.99023L7.06055 9.99023L7.06055 9.0332C7.06055 8.7793 6.89453 8.62305 6.63086 8.62305C6.51367 8.62305 6.40625 8.66211 6.31836 8.73047L4.56055 10.2051C4.3457 10.3809 4.35547 10.6445 4.57031 10.8203L6.31836 12.2852C6.40625 12.3633 6.51367 12.4023 6.63086 12.4023C6.9043 12.4023 7.06055 12.2461 7.06055 11.9922L7.06055 11.0449L9.9707 11.0449C11.416 11.0449 12.3535 10.1953 12.3535 8.89648L12.3535 8.38867C12.3535 8.0957 12.1191 7.87109 11.8262 7.87109C11.5332 7.87109 11.2988 8.0957 11.2988 8.38867ZM6.99219 4.31641L6.99219 5.24414L5.06836 5.24414C3.63281 5.24414 2.69531 6.08398 2.69531 7.39258L2.69531 7.90039C2.69531 8.19336 2.91992 8.42773 3.21289 8.42773C3.50586 8.42773 3.74023 8.19336 3.74023 7.90039L3.74023 7.46094C3.74023 6.77734 4.23828 6.29883 4.98047 6.29883L6.99219 6.29883L6.99219 7.27539C6.99219 7.5293 7.13867 7.67578 7.41211 7.67578C7.5293 7.67578 7.64648 7.63672 7.73438 7.57812L9.48242 6.09375C9.69727 5.91797 9.69727 5.66406 9.48242 5.47852L7.73438 4.01367C7.64648 3.93555 7.5293 3.89648 7.41211 3.89648C7.13867 3.89648 6.99219 4.0625 6.99219 4.31641ZM11.0254 4.23828L10.4199 4.69727C10.3027 4.80469 10.2539 4.91211 10.2539 5.04883C10.2539 5.25391 10.4102 5.41992 10.6348 5.41992C10.7324 5.41992 10.8203 5.39062 10.9082 5.32227L11.2793 5.01434L11.2793 6.55273C11.2793 6.88477 11.4941 7.10938 11.8359 7.10938C12.168 7.10938 12.373 6.88477 12.373 6.55273L12.373 4.61914C12.373 4.22852 12.1191 3.96484 11.7383 3.96484C11.4746 3.96484 11.2891 4.0332 11.0254 4.23828Z" fill="white" fill-opacity="0.85"/>
 </g>
</svg>
