<?xml version="1.0" encoding="UTF-8"?>
<!--Generator: Apple Native CoreSVG 341-->
<!DOCTYPE svg
PUBLIC "-//W3C//DTD SVG 1.1//EN"
       "http://www.w3.org/Graphics/SVG/1.1/DTD/svg11.dtd">
<svg version="1.1" xmlns="http://www.w3.org/2000/svg" xmlns:xlink="http://www.w3.org/1999/xlink" viewBox="0 0 16.6699 14.9121">
 <g>
  <rect height="14.9121" opacity="0" width="16.6699" x="0" y="0"/>
  <path d="M0.878906 9.02344C0.878906 9.39453 1.16211 9.66797 1.5332 9.67773L4.19922 9.81445L13.6328 9.81445C15.5469 9.81445 16.3086 8.96484 16.3086 7.13867L16.3086 2.66602C16.3086 0.751953 15.5469 0 13.6328 0L9.59961 0C9.11133 0 8.79883 0.351562 8.79883 0.791016C8.79883 1.2207 9.11133 1.57227 9.59961 1.57227L13.6328 1.57227C14.4238 1.57227 14.7266 1.88477 14.7266 2.66602L14.7266 7.13867C14.7266 7.92969 14.4238 8.24219 13.6328 8.24219L4.19922 8.24219L1.5332 8.36914C1.16211 8.38867 0.878906 8.66211 0.878906 9.02344ZM0 9.02344C0 9.23828 0.0878906 9.44336 0.263672 9.61914L4.7168 13.9648C4.87305 14.1113 5.09766 14.209 5.29297 14.209C5.76172 14.209 6.06445 13.8867 6.06445 13.4277C6.06445 13.2031 5.99609 13.0371 5.84961 12.8906L3.7793 10.8887L1.8457 9.27734L1.8457 8.7793L3.7793 7.16797L5.84961 5.15625C5.99609 5.01953 6.06445 4.84375 6.06445 4.61914C6.06445 4.16016 5.76172 3.84766 5.29297 3.84766C5.09766 3.84766 4.87305 3.93555 4.7168 4.0918L0.263672 8.4375C0.0878906 8.60352 0 8.80859 0 9.02344Z" fill="white" fill-opacity="0.85"/>
 </g>
</svg>
