<?xml version="1.0" encoding="UTF-8"?>
<!--Generator: Apple Native CoreSVG 341-->
<!DOCTYPE svg
PUBLIC "-//W3C//DTD SVG 1.1//EN"
       "http://www.w3.org/Graphics/SVG/1.1/DTD/svg11.dtd">
<svg version="1.1" xmlns="http://www.w3.org/2000/svg" xmlns:xlink="http://www.w3.org/1999/xlink" viewBox="0 0 25.6641 11.6113">
 <g>
  <rect height="11.6113" opacity="0" width="25.6641" x="0" y="0"/>
  <path d="M3.61328 11.6113L4.66797 11.6113C5.18555 11.6113 5.43945 11.3672 5.57617 11.0059L9.80469 0.566406C9.93164 0.263672 9.79492 0.00976562 9.49219 0.00976562L8.92578 0.00976562C8.63281 0.00976562 8.4375 0.166016 8.30078 0.429688L2.99805 10.6543C2.76367 11.1035 2.92969 11.6113 3.61328 11.6113ZM20.6348 11.6113L21.6895 11.6113C22.373 11.6113 22.5391 11.1035 22.3047 10.6543L17.0117 0.429688C16.8652 0.166016 16.6699 0.00976562 16.3672 0.00976562L15.8105 0.00976562C15.5078 0.00976562 15.3711 0.263672 15.498 0.566406L19.7168 11.0059C19.8633 11.3672 20.1172 11.6113 20.6348 11.6113Z" fill="white" fill-opacity="0.85"/>
  <path d="M0.751953 6.5332L3.45703 4.88281C3.83789 4.6582 3.82812 4.21875 3.45703 3.98438L0.751953 2.32422C0.351562 2.08008 0 2.29492 0 2.73438L0 6.13281C0 6.58203 0.351562 6.77734 0.751953 6.5332ZM24.5508 6.5332C24.9512 6.76758 25.3027 6.58203 25.3027 6.13281L25.3027 2.73438C25.3027 2.29492 24.9609 2.08984 24.5508 2.32422L21.8457 3.98438C21.4746 4.22852 21.4648 4.64844 21.8457 4.88281Z" fill="white" fill-opacity="0.85"/>
 </g>
</svg>
