<?xml version="1.0" encoding="UTF-8"?>
<!--Generator: Apple Native CoreSVG 341-->
<!DOCTYPE svg
PUBLIC "-//W3C//DTD SVG 1.1//EN"
       "http://www.w3.org/Graphics/SVG/1.1/DTD/svg11.dtd">
<svg version="1.1" xmlns="http://www.w3.org/2000/svg" xmlns:xlink="http://www.w3.org/1999/xlink" viewBox="0 0 17.9102 10.4785">
 <g>
  <rect height="10.4785" opacity="0" width="17.9102" x="0" y="0"/>
  <path d="M8.7793 6.31836C12.7441 6.31836 17.4316 4.83398 17.4316 3.10547C17.4316 1.39648 13.5645 0 8.7793 0C3.98438 0 0.107422 1.39648 0.107422 3.10547C0.107422 4.83398 4.80469 6.31836 8.7793 6.31836ZM3.26172 10.3613C3.4668 10.4297 3.59375 10.3223 3.59375 10.1172L3.59375 9.38477C3.59375 9.0332 3.88672 8.85742 4.20898 8.94531C5.80078 9.38477 7.68555 9.49219 8.83789 9.49219C10 9.49219 11.8848 9.38477 13.4766 8.94531C13.7988 8.85742 14.082 9.0332 14.082 9.38477L14.082 10.0684C14.082 10.2832 14.2188 10.3809 14.4238 10.3125C16.3281 9.6582 17.5488 8.62305 17.5488 7.34375L17.5488 4.76562C16.25 6.15234 12.5879 7.27539 8.7793 7.27539C5.04883 7.27539 1.28906 6.15234 0 4.76562L0 7.34375C0 8.66211 1.2793 9.69727 3.26172 10.3613ZM8.7793 3.26172C7.14844 3.26172 6.28906 2.8418 6.28906 2.22656C6.28906 1.62109 7.11914 1.17188 8.7793 1.17188C10.4297 1.17188 11.2598 1.62109 11.2598 2.22656C11.2598 2.8418 10.4004 3.26172 8.7793 3.26172ZM8.7793 2.60742C9.77539 2.60742 10.2246 2.43164 10.2246 2.22656C10.2246 2.00195 9.78516 1.81641 8.7793 1.81641C7.76367 1.81641 7.32422 2.00195 7.32422 2.22656C7.32422 2.43164 7.77344 2.60742 8.7793 2.60742ZM6.00586 4.89258C5.55664 4.89258 5.17578 4.70703 5.17578 4.48242C5.17578 4.25781 5.55664 4.08203 6.00586 4.08203C6.46484 4.08203 6.83594 4.25781 6.83594 4.48242C6.83594 4.70703 6.46484 4.89258 6.00586 4.89258ZM8.7793 5.21484C8.32031 5.21484 7.94922 5.0293 7.94922 4.80469C7.94922 4.58008 8.32031 4.38477 8.7793 4.38477C9.22852 4.38477 9.60938 4.58008 9.60938 4.80469C9.60938 5.0293 9.22852 5.21484 8.7793 5.21484ZM11.543 4.89258C11.0938 4.89258 10.7129 4.70703 10.7129 4.48242C10.7129 4.25781 11.0938 4.08203 11.543 4.08203C12.002 4.08203 12.3828 4.25781 12.3828 4.48242C12.3828 4.70703 12.002 4.89258 11.543 4.89258Z" fill="white" fill-opacity="0.85"/>
 </g>
</svg>
