<?xml version="1.0" encoding="UTF-8"?>
<!--Generator: Apple Native CoreSVG 341-->
<!DOCTYPE svg
PUBLIC "-//W3C//DTD SVG 1.1//EN"
       "http://www.w3.org/Graphics/SVG/1.1/DTD/svg11.dtd">
<svg version="1.1" xmlns="http://www.w3.org/2000/svg" xmlns:xlink="http://www.w3.org/1999/xlink" viewBox="0 0 17.7734 16.5527">
 <g>
  <rect height="16.5527" opacity="0" width="17.7734" x="0" y="0"/>
  <path d="M1.10352 14.541L16.3184 14.541L16.3184 13.9746C16.3184 13.623 16.1133 13.418 15.752 13.418L15.2637 13.418L15.2637 5.42969L15.918 5.42969C16.3965 5.42969 16.6797 5.07812 16.6797 4.72656C16.6797 4.46289 16.5234 4.23828 16.2109 4.04297L9.6875 0.283203C9.375 0.0976562 9.0332 0 8.71094 0C8.37891 0 8.03711 0.0976562 7.72461 0.283203L1.20117 4.04297C0.878906 4.23828 0.732422 4.46289 0.732422 4.72656C0.732422 5.07812 1.01562 5.42969 1.49414 5.42969L2.1582 5.42969L2.1582 13.418L1.66992 13.418C1.30859 13.418 1.10352 13.623 1.10352 13.9746ZM3.47656 13.418L3.47656 4.375L8.44727 1.60156C8.52539 1.55273 8.62305 1.52344 8.71094 1.52344C8.78906 1.52344 8.88672 1.55273 8.96484 1.60156L13.9551 4.375L13.9551 13.418ZM0.703125 16.543L16.709 16.543C17.0898 16.543 17.4121 16.2207 17.4121 15.8301C17.4121 15.4492 17.0898 15.127 16.709 15.127L0.703125 15.127C0.322266 15.127 0 15.4492 0 15.8301C0 16.2207 0.322266 16.543 0.703125 16.543Z" fill="white" fill-opacity="0.85"/>
  <path d="M7.40234 11.6699C7.71484 11.6699 7.90039 11.4746 7.90039 11.1621L7.90039 10.4785L9.7168 10.4785C9.88281 10.4785 9.99023 10.3711 9.99023 10.1953C9.99023 10.0293 9.88281 9.92188 9.7168 9.92188L7.90039 9.92188L7.90039 8.95508L9.24805 8.95508C10.7227 8.95508 11.5137 7.93945 11.5137 6.79688C11.5137 5.61523 10.7031 4.62891 9.26758 4.62891L7.41211 4.62891C7.10938 4.62891 6.9043 4.84375 6.9043 5.14648L6.9043 8.38867L6.12305 8.38867C5.94727 8.38867 5.84961 8.50586 5.84961 8.67188C5.84961 8.84766 5.94727 8.95508 6.12305 8.95508L6.9043 8.95508L6.9043 9.92188L6.12305 9.92188C5.94727 9.92188 5.84961 10.0293 5.84961 10.1953C5.84961 10.3711 5.94727 10.4785 6.12305 10.4785L6.9043 10.4785L6.9043 11.1621C6.9043 11.4746 7.09961 11.6699 7.40234 11.6699ZM7.90039 8.125L7.90039 5.47852L9.00391 5.47852C10.0879 5.47852 10.4883 6.09375 10.4883 6.79688C10.4883 7.67578 9.90234 8.125 9.00391 8.125Z" fill="white" fill-opacity="0.85"/>
 </g>
</svg>
