<?xml version="1.0" encoding="UTF-8"?>
<!--Generator: Apple Native CoreSVG 341-->
<!DOCTYPE svg
PUBLIC "-//W3C//DTD SVG 1.1//EN"
       "http://www.w3.org/Graphics/SVG/1.1/DTD/svg11.dtd">
<svg version="1.1" xmlns="http://www.w3.org/2000/svg" xmlns:xlink="http://www.w3.org/1999/xlink" viewBox="0 0 16.1328 15.7715">
 <g>
  <rect height="15.7715" opacity="0" width="16.1328" x="0" y="0"/>
  <path d="M7.88086 15.7617C12.2363 15.7617 15.7715 12.2266 15.7715 7.88086C15.7715 3.53516 12.2363 0 7.88086 0C3.53516 0 0 3.53516 0 7.88086C0 12.2266 3.53516 15.7617 7.88086 15.7617Z" fill="white" fill-opacity="0.2125"/>
  <path d="M11.6797 4.375C11.7285 4.47266 11.7676 4.58008 11.7969 4.72656C12.334 6.47461 11.6211 8.78906 10.2051 10.1953C8.79883 11.6113 6.47461 12.3242 4.72656 11.7969C4.58008 11.7578 4.47266 11.7188 4.375 11.6699L6.79688 9.23828L7.06055 9.50195C7.12891 9.58984 7.26562 9.58984 7.34375 9.50195C7.41211 9.43359 7.42188 9.29688 7.34375 9.21875L6.5332 8.41797C6.45508 8.34961 6.33789 8.34961 6.25977 8.41797C6.17188 8.48633 6.17188 8.62305 6.25977 8.70117L6.51367 8.96484L4.0918 11.377C4.04297 11.2793 4.00391 11.1719 3.95508 11.0254C3.42773 9.28711 4.15039 6.97266 5.56641 5.56641C6.98242 4.15039 9.28711 3.42773 11.0352 3.94531C11.1914 4.00391 11.2891 4.04297 11.3965 4.0918L8.97461 6.47461L8.73047 6.23047C8.65234 6.14258 8.53516 6.14258 8.44727 6.23047C8.36914 6.29883 8.36914 6.42578 8.44727 6.51367L9.24805 7.31445C9.33594 7.39258 9.46289 7.38281 9.53125 7.31445C9.60938 7.23633 9.61914 7.09961 9.53125 7.03125L9.27734 6.76758ZM8.98438 7.56836L8.17383 6.77734C8.0957 6.68945 7.97852 6.68945 7.90039 6.77734C7.82227 6.8457 7.82227 6.96289 7.90039 7.05078L8.69141 7.85156C8.76953 7.92969 8.90625 7.92969 8.98438 7.85156C9.0625 7.7832 9.07227 7.63672 8.98438 7.56836ZM8.44727 8.125L7.63672 7.32422C7.55859 7.23633 7.43164 7.23633 7.35352 7.32422C7.27539 7.39258 7.27539 7.5293 7.35352 7.60742L8.1543 8.39844C8.23242 8.47656 8.36914 8.47656 8.44727 8.39844C8.51562 8.33008 8.53516 8.19336 8.44727 8.125ZM7.89062 8.67188L7.08984 7.87109C7.01172 7.79297 6.88477 7.79297 6.80664 7.87109C6.71875 7.93945 6.71875 8.07617 6.80664 8.1543L7.60742 8.95508C7.68555 9.0332 7.82227 9.0332 7.89062 8.95508C7.95898 8.88672 7.96875 8.74023 7.89062 8.67188Z" fill="white" fill-opacity="0.85"/>
 </g>
</svg>
