<?xml version="1.0" encoding="UTF-8"?>
<!--Generator: Apple Native CoreSVG 341-->
<!DOCTYPE svg
PUBLIC "-//W3C//DTD SVG 1.1//EN"
       "http://www.w3.org/Graphics/SVG/1.1/DTD/svg11.dtd">
<svg version="1.1" xmlns="http://www.w3.org/2000/svg" xmlns:xlink="http://www.w3.org/1999/xlink" viewBox="0 0 14.5898 14.248">
 <g>
  <rect height="14.248" opacity="0" width="14.5898" x="0" y="0"/>
  <path d="M2.49023 14.248L11.7383 14.248C13.4082 14.248 14.2285 13.4277 14.2285 11.7871L14.2285 2.4707C14.2285 0.830078 13.4082 0.00976562 11.7383 0.00976562L2.49023 0.00976562C0.830078 0.00976562 0 0.830078 0 2.4707L0 11.7871C0 13.4277 0.830078 14.248 2.49023 14.248ZM2.50977 12.832C1.80664 12.832 1.40625 12.4512 1.40625 11.7188L1.40625 2.53906C1.40625 1.79688 1.80664 1.42578 2.50977 1.42578L11.7188 1.42578C12.4219 1.42578 12.8223 1.79688 12.8223 2.53906L12.8223 11.7188C12.8223 12.4512 12.4219 12.832 11.7188 12.832Z" fill="white" fill-opacity="0.425"/>
  <path d="M4.16992 10.1953C4.47266 10.1953 4.64844 10 4.64844 9.69727L4.64844 7.74414L5.51758 7.74414L6.40625 9.84375C6.49414 10.0781 6.64062 10.1953 6.88477 10.1953C7.1582 10.1953 7.36328 10.0195 7.36328 9.74609C7.36328 9.61914 7.31445 9.53125 7.26562 9.39453L6.45508 7.54883C7.09961 7.24609 7.40234 6.58203 7.40234 5.87891C7.40234 4.88281 6.83594 4.04297 5.51758 4.04297L4.16016 4.04297C3.86719 4.04297 3.68164 4.23828 3.68164 4.54102L3.68164 9.69727C3.68164 10 3.85742 10.1953 4.16992 10.1953ZM4.64844 6.97266L4.64844 4.84375L5.41992 4.84375C6.06445 4.84375 6.42578 5.25391 6.42578 5.89844C6.42578 6.55273 6.08398 6.97266 5.42969 6.97266ZM9.60938 10.2051C10.498 10.2051 11.2793 9.7168 11.2793 8.78906C11.2793 8.02734 10.8301 7.72461 10.0977 7.5293L9.47266 7.36328C9.15039 7.28516 8.88672 7.10938 8.88672 6.77734C8.88672 6.38672 9.18945 6.15234 9.58008 6.15234C9.99023 6.15234 10.2637 6.36719 10.4199 6.70898C10.4785 6.82617 10.6152 6.9043 10.752 6.9043C11.0156 6.9043 11.1133 6.73828 11.1133 6.5625C11.1133 6.50391 11.0938 6.39648 11.0742 6.32812C10.8984 5.79102 10.2832 5.44922 9.60938 5.44922C8.63281 5.44922 7.96875 5.97656 7.96875 6.82617C7.96875 7.53906 8.44727 7.92969 9.13086 8.10547L9.77539 8.27148C10.127 8.35938 10.3516 8.51562 10.3516 8.87695C10.3516 9.24805 10.0781 9.51172 9.64844 9.51172C9.16992 9.51172 8.93555 9.36523 8.68164 8.95508C8.57422 8.7793 8.42773 8.70117 8.28125 8.70117C8.06641 8.70117 7.90039 8.85742 7.90039 9.07227C7.90039 9.13086 7.91992 9.19922 7.93945 9.26758C8.14453 9.92188 8.90625 10.2051 9.60938 10.2051Z" fill="white" fill-opacity="0.85"/>
 </g>
</svg>
