<svg version="1.1" xmlns="http://www.w3.org/2000/svg" xmlns:xlink="http://www.w3.org/1999/xlink" viewBox="0 0 18.9844 15.4424">
 <g>
  <rect height="15.4424" opacity="0" width="18.9844" x="0" y="0"/>
  <path d="M18.623 9.27882C18.623 4.40578 14.8926 0.411637 10.127 0.00148111C9.88281-0.0180501 9.69727 0.157731 9.69727 0.401872L9.69727 2.98C9.69727 3.18507 9.84375 3.34132 10.0488 3.36086C12.9883 3.73195 15.2734 6.24172 15.2734 9.27882C15.2734 10.6558 14.8047 11.9253 13.9551 13.0093C13.8574 13.1362 13.8672 13.2925 13.9746 13.3999L15.8594 15.2847C16.0352 15.4605 16.2891 15.4605 16.4453 15.2749C17.8125 13.6538 18.623 11.564 18.623 9.27882Z" fill="var(--color-secondary)"/>
  <path d="M0 9.27882C0 11.564 0.820312 13.6538 2.17773 15.2749C2.33398 15.4605 2.58789 15.4605 2.76367 15.2847L4.64844 13.3999C4.76562 13.2925 4.77539 13.1362 4.66797 13.0093C3.82812 11.9253 3.35938 10.6558 3.35938 9.27882C3.35938 6.24172 5.63477 3.73195 8.57422 3.36086C8.7793 3.34132 8.92578 3.18507 8.92578 2.98L8.92578 0.401872C8.92578 0.157731 8.74023-0.0180501 8.49609 0.00148111C3.74023 0.411637 0 4.40578 0 9.27882Z" fill="var(--color-secondary)"/>
  <path d="M6.35742 12.4624C6.66016 12.4624 6.83594 12.2573 6.83594 11.9546L6.83594 10.0015L7.70508 10.0015L8.59375 12.1011C8.68164 12.3355 8.82812 12.4624 9.07227 12.4624C9.3457 12.4624 9.55078 12.2769 9.55078 12.0034C9.55078 11.8862 9.51172 11.7886 9.45312 11.6519L8.64258 9.80617C9.28711 9.50343 9.58984 8.83937 9.58984 8.14601C9.58984 7.14015 9.02344 6.31007 7.70508 6.31007L6.34766 6.31007C6.05469 6.31007 5.86914 6.49562 5.86914 6.79836L5.86914 11.9546C5.86914 12.2573 6.04492 12.4624 6.35742 12.4624ZM6.83594 9.23976L6.83594 7.10109L7.60742 7.10109C8.25195 7.10109 8.61328 7.51125 8.61328 8.15578C8.61328 8.81984 8.27148 9.23976 7.61719 9.23976ZM11.7969 12.4722C12.6855 12.4722 13.4668 11.9741 13.4668 11.0464C13.4668 10.2944 13.0176 9.98195 12.2949 9.78664L11.6602 9.62062C11.3379 9.5425 11.0742 9.36672 11.0742 9.03468C11.0742 8.64406 11.377 8.40968 11.7676 8.40968C12.1777 8.40968 12.4512 8.62453 12.6172 8.96632C12.666 9.08351 12.8027 9.16164 12.9395 9.16164C13.2031 9.16164 13.3105 8.99562 13.3105 8.81984C13.3105 8.76125 13.291 8.66359 13.2617 8.59523C13.0859 8.05812 12.4707 7.71632 11.7969 7.71632C10.8203 7.71632 10.166 8.2339 10.166 9.08351C10.166 9.7964 10.6348 10.187 11.3184 10.3628L11.9629 10.5288C12.3145 10.6167 12.5391 10.773 12.5391 11.1441C12.5391 11.5054 12.2656 11.7691 11.8359 11.7691C11.3574 11.7691 11.123 11.6323 10.8691 11.2124C10.7617 11.0366 10.6152 10.9585 10.4688 10.9585C10.2539 10.9585 10.0879 11.1148 10.0879 11.3296C10.0879 11.3882 10.1074 11.4566 10.127 11.5249C10.332 12.1792 11.0938 12.4722 11.7969 12.4722Z" fill="var(--color-primary)"/>
 </g>
</svg>
