<?xml version="1.0" encoding="UTF-8"?>
<!--Generator: Apple Native CoreSVG 341-->
<!DOCTYPE svg
PUBLIC "-//W3C//DTD SVG 1.1//EN"
       "http://www.w3.org/Graphics/SVG/1.1/DTD/svg11.dtd">
<svg version="1.1" xmlns="http://www.w3.org/2000/svg" xmlns:xlink="http://www.w3.org/1999/xlink" viewBox="0 0 18.2422 14.3652">
 <g>
  <rect height="14.3652" opacity="0" width="18.2422" x="0" y="0"/>
  <path d="M0.888672 14.3359C1.43555 14.3359 1.75781 13.9746 1.75781 13.4375L1.75781 8.44727L4.15039 8.44727C4.20898 8.44727 4.28711 8.44727 4.3457 8.44727L6.78711 13.7793C6.98242 14.1895 7.23633 14.3359 7.67578 14.3359C8.19336 14.3359 8.53516 13.9648 8.53516 13.5352C8.53516 13.3398 8.42773 13.1152 8.34961 12.9297L6.07422 8.08594C7.65625 7.4707 8.56445 5.9375 8.56445 4.16016C8.56445 1.67969 6.96289 0 4.21875 0L0.878906 0C0.332031 0 0 0.351562 0 0.898438L0 13.4375C0 13.9844 0.351562 14.3359 0.888672 14.3359ZM1.75781 6.92383L1.75781 1.54297L4.01367 1.54297C5.73242 1.54297 6.79688 2.50977 6.79688 4.21875C6.79688 5.95703 5.83008 6.92383 4.07227 6.92383ZM14.1309 14.3457C16.1816 14.3457 17.8809 13.2422 17.8809 11.2012C17.8809 9.39453 16.8164 8.74023 15.1172 8.27148L13.7109 7.89062C12.8906 7.65625 12.1582 7.23633 12.1582 6.38672C12.1582 5.36133 13.0566 4.77539 14.1016 4.77539C15.1465 4.77539 15.791 5.22461 16.2109 6.17188C16.3672 6.47461 16.5723 6.61133 16.9141 6.61133C17.3242 6.61133 17.5488 6.34766 17.5488 5.9668C17.5488 5.88867 17.5391 5.79102 17.5195 5.69336C17.1875 4.21875 15.6934 3.38867 14.1699 3.38867C12.207 3.38867 10.498 4.44336 10.498 6.46484C10.498 8.0957 11.5918 8.92578 13.2422 9.36523L14.668 9.75586C15.5859 10 16.2109 10.3711 16.2109 11.3281C16.2109 12.3828 15.3906 12.9785 14.2383 12.9785C13.0273 12.9785 12.2656 12.6074 11.748 11.5332C11.5723 11.1816 11.3086 11.0156 11.0156 11.0156C10.5957 11.0156 10.293 11.2695 10.293 11.7188C10.293 11.8457 10.3223 11.9824 10.3711 12.1094C10.8984 13.6426 12.4805 14.3457 14.1309 14.3457Z" fill="white" fill-opacity="0.85"/>
 </g>
</svg>
