<?xml version="1.0" encoding="UTF-8"?>
<!--Generator: Apple Native CoreSVG 341-->
<!DOCTYPE svg
PUBLIC "-//W3C//DTD SVG 1.1//EN"
       "http://www.w3.org/Graphics/SVG/1.1/DTD/svg11.dtd">
<svg version="1.1" xmlns="http://www.w3.org/2000/svg" xmlns:xlink="http://www.w3.org/1999/xlink" viewBox="0 0 16.416 14.5752">
 <g>
  <rect height="14.5752" opacity="0" width="16.416" x="0" y="0"/>
  <path d="M1.86523 11.687L2.56836 12.8979L8.05664 10.144L13.5449 12.8979L14.248 11.687L8.75977 8.93311L8.75977 2.43896L7.35352 2.43896L7.35352 8.93311ZM0.00976562 12.7515C0.00976562 13.0933 0.15625 13.3472 0.458984 13.5229L1.95312 14.3921C2.17773 14.519 2.33398 14.5483 2.62695 14.3823L4.10156 13.5229C4.4043 13.3569 4.45312 13.2104 4.45312 12.9468L4.47266 11.2085C4.47266 10.8667 4.31641 10.6128 4.02344 10.437L2.51953 9.57764C2.30469 9.46045 2.11914 9.41162 1.82617 9.57764L0.341797 10.437C0.0390625 10.603 0 10.7788 0 11.0229ZM11.6016 12.9565C11.6016 13.2202 11.6504 13.3667 11.9531 13.5327L13.4277 14.3921C13.7305 14.5581 13.877 14.5288 14.1016 14.4019L15.6055 13.5327C15.9082 13.3569 16.0449 13.103 16.0449 12.7612L16.0547 11.0327C16.0547 10.7886 16.0156 10.6128 15.7227 10.4468L14.2285 9.57764C13.9453 9.42139 13.75 9.47021 13.5449 9.57764L12.0312 10.4468C11.7383 10.6226 11.582 10.8765 11.582 11.2183ZM6.09375 3.89404L7.59766 4.76318C7.89062 4.93896 8.18359 4.93896 8.47656 4.76318L9.98047 3.89404C10.2051 3.75732 10.3125 3.64014 10.3125 3.29834L10.3125 1.58936C10.3125 1.23779 10.2051 1.12061 9.98047 0.993652L8.47656 0.124512C8.17383-0.0415039 7.89062-0.0415039 7.58789 0.124512L6.08398 0.993652C5.86914 1.12061 5.74219 1.23779 5.74219 1.58936L5.74219 3.29834C5.74219 3.64014 5.87891 3.76709 6.09375 3.89404Z" fill="white" fill-opacity="0.85"/>
 </g>
</svg>
