<?xml version="1.0" encoding="UTF-8"?>
<!--Generator: Apple Native CoreSVG 341-->
<!DOCTYPE svg
PUBLIC "-//W3C//DTD SVG 1.1//EN"
       "http://www.w3.org/Graphics/SVG/1.1/DTD/svg11.dtd">
<svg version="1.1" xmlns="http://www.w3.org/2000/svg" xmlns:xlink="http://www.w3.org/1999/xlink" viewBox="0 0 15.6477 16.3965">
 <g>
  <rect height="16.3965" opacity="0" width="15.6477" x="0" y="0"/>
  <path d="M0.11388 13.75C-0.296276 15.4004 0.416614 16.377 2.00841 16.377L13.2779 16.377C14.8697 16.377 15.5826 15.4004 15.1725 13.75L13.5026 6.91406C13.2193 5.76172 12.3502 5.07812 11.1686 5.07812L4.11779 5.07812C2.92638 5.07812 2.067 5.76172 1.7838 6.91406ZM6.94005 6.12305L8.3463 6.12305L8.3463 3.7793L6.94005 3.7793ZM7.64318 4.45312C8.85411 4.45312 9.86974 3.44727 9.86974 2.23633C9.86974 1.01562 8.85411 0 7.64318 0C6.43224 0 5.40685 1.01562 5.40685 2.23633C5.40685 3.44727 6.43224 4.45312 7.64318 4.45312ZM7.64318 3.24219C7.08654 3.24219 6.62755 2.7832 6.62755 2.23633C6.62755 1.67969 7.08654 1.21094 7.64318 1.21094C8.19982 1.21094 8.6588 1.67969 8.6588 2.23633C8.6588 2.7832 8.19982 3.24219 7.64318 3.24219Z" fill="white" fill-opacity="0.85"/>
 </g>
</svg>
