<?xml version="1.0" encoding="UTF-8"?>
<!--Generator: Apple Native CoreSVG 341-->
<!DOCTYPE svg
PUBLIC "-//W3C//DTD SVG 1.1//EN"
       "http://www.w3.org/Graphics/SVG/1.1/DTD/svg11.dtd">
<svg version="1.1" xmlns="http://www.w3.org/2000/svg" xmlns:xlink="http://www.w3.org/1999/xlink" viewBox="0 0 13.2715 16.0059">
 <g>
  <rect height="16.0059" opacity="0" width="13.2715" x="0" y="0"/>
  <path d="M0 9.46289C0 12.3535 1.55273 13.4375 5.9375 15.8496C6.15234 15.9668 6.34766 16.0059 6.45508 16.0059C6.5625 16.0059 6.75781 15.9668 6.97266 15.8496C11.3574 13.4473 12.9102 12.3535 12.9102 9.46289L12.9102 3.58398C12.9102 2.7832 12.5293 2.53906 11.9238 2.27539C11.1328 1.93359 7.90039 0.791016 7.10938 0.517578C6.9043 0.449219 6.67969 0.400391 6.45508 0.400391C6.23047 0.400391 5.99609 0.46875 5.80078 0.517578C5.00977 0.712891 1.77734 1.94336 0.986328 2.27539C0.380859 2.5293 0 2.7832 0 3.58398ZM1.38672 9.12109L1.38672 7.99805L6.45508 7.99805L6.45508 1.81641C6.5332 1.81641 6.62109 1.82617 6.71875 1.86523C7.95898 2.36328 10.0391 3.0957 11.3184 3.52539C11.4844 3.58398 11.5137 3.67188 11.5137 3.84766L11.5137 7.99805L6.45508 7.99805L6.45508 14.4043C6.33789 14.4043 6.2207 14.375 5.95703 14.2285C2.43164 12.1191 1.38672 11.4941 1.38672 9.12109Z" fill="white" fill-opacity="0.85"/>
 </g>
</svg>
