<svg version="1.1" xmlns="http://www.w3.org/2000/svg" xmlns:xlink="http://www.w3.org/1999/xlink" viewBox="0 0 16.1328 15.7715">
 <g>
  <rect height="15.7715" opacity="0" width="16.1328" x="0" y="0"/>
  <path d="M7.88086 15.7617C12.2363 15.7617 15.7715 12.2266 15.7715 7.88086C15.7715 3.53516 12.2363 0 7.88086 0C3.53516 0 0 3.53516 0 7.88086C0 12.2266 3.53516 15.7617 7.88086 15.7617Z" fill="var(--color-tertiary)"/>
  <path d="M8.19336 12.373L8.19336 8.13477L12.0312 5.9082C12.0605 6.01562 12.0703 6.13281 12.0703 6.25977L12.0703 9.4043C12.0703 10.0586 11.8262 10.2734 11.4453 10.5176L8.26172 12.3438C8.24219 12.3535 8.22266 12.373 8.19336 12.373ZM7.57812 12.373C7.54883 12.373 7.5293 12.3535 7.5 12.3438L4.32617 10.5176C3.93555 10.2734 3.71094 10.0586 3.71094 9.4043L3.71094 6.25977C3.71094 6.13281 3.71094 6.01562 3.73047 5.9082L7.57812 8.13477ZM7.88086 7.59766L4.0332 5.39062C4.0918 5.33203 4.17969 5.27344 4.27734 5.22461L5.75195 4.375L9.60938 6.61133ZM10.2344 6.25977L6.34766 4.0332L7.07031 3.62305C7.34375 3.45703 7.61719 3.38867 7.88086 3.38867C8.1543 3.38867 8.42773 3.45703 8.70117 3.62305L11.4941 5.22461C11.582 5.27344 11.6699 5.33203 11.7383 5.39062Z" fill="var(--color-primary)"/>
 </g>
</svg>
