<?xml version="1.0" encoding="UTF-8"?>
<!--Generator: Apple Native CoreSVG 341-->
<!DOCTYPE svg
PUBLIC "-//W3C//DTD SVG 1.1//EN"
       "http://www.w3.org/Graphics/SVG/1.1/DTD/svg11.dtd">
<svg version="1.1" xmlns="http://www.w3.org/2000/svg" xmlns:xlink="http://www.w3.org/1999/xlink" viewBox="0 0 22.9492 17.0996">
 <g>
  <rect height="17.0996" opacity="0" width="22.9492" x="0" y="0"/>
  <path d="M0 9.58008C0 9.4043 0.0585938 9.25781 0.234375 9.07227L2.62695 6.57227C2.76367 6.43555 2.90039 6.36719 3.08594 6.36719C3.44727 6.36719 3.70117 6.63086 3.70117 6.99219C3.70117 7.1582 3.63281 7.35352 3.49609 7.4707L2.32422 8.55469L1.2207 9.58008L2.32422 10.6152L3.49609 11.6895C3.63281 11.8164 3.70117 11.9922 3.70117 12.1582C3.70117 12.5293 3.44727 12.8027 3.08594 12.8027C2.90039 12.8027 2.76367 12.7246 2.62695 12.5977L0.234375 10.0879C0.0585938 9.91211 0 9.75586 0 9.58008ZM9.9707 9.58008C9.9707 9.96094 9.6582 10.2734 9.28711 10.2734L3.04688 10.2734L1.28906 10.2148C0.9375 10.2051 0.654297 9.93164 0.654297 9.58008C0.654297 9.23828 0.9375 8.96484 1.28906 8.95508L3.04688 8.88672L9.28711 8.88672C9.6582 8.88672 9.9707 9.20898 9.9707 9.58008ZM14.9414 17.0996C14.9902 17.0801 15.0391 17.0605 15.0879 17.0312L21.0156 13.623C21.7578 13.1836 22.1973 12.7539 22.1973 11.5234L22.1973 5.64453C22.1973 5.41016 22.1777 5.19531 22.1289 5.00977L14.9414 9.16016ZM13.7988 17.0996L13.7988 9.16016L6.62109 5.00977C6.57227 5.19531 6.55273 5.41016 6.55273 5.64453L6.55273 11.5234C6.55273 12.7539 6.98242 13.1836 7.73438 13.623L13.6621 17.0312C13.7109 17.0605 13.75 17.0801 13.7988 17.0996ZM14.375 8.16406L17.6074 6.31836L10.3809 2.13867L7.62695 3.7207C7.45117 3.81836 7.29492 3.91602 7.16797 4.04297ZM18.7598 5.66406L21.582 4.04297C21.4453 3.91602 21.2988 3.81836 21.123 3.7207L15.8984 0.722656C15.3906 0.429688 14.873 0.273438 14.375 0.273438C13.8672 0.273438 13.3594 0.429688 12.8418 0.722656L11.4941 1.50391Z" fill="white" fill-opacity="0.85"/>
 </g>
</svg>
