<?xml version="1.0" encoding="UTF-8"?>
<!--Generator: Apple Native CoreSVG 341-->
<!DOCTYPE svg
PUBLIC "-//W3C//DTD SVG 1.1//EN"
       "http://www.w3.org/Graphics/SVG/1.1/DTD/svg11.dtd">
<svg version="1.1" xmlns="http://www.w3.org/2000/svg" xmlns:xlink="http://www.w3.org/1999/xlink" viewBox="0 0 15.918 17.085">
 <g>
  <rect height="17.085" opacity="0" width="15.918" x="0" y="0"/>
  <path d="M1.15234 13.479L7.10938 16.8872C7.56836 17.1509 7.98828 17.1509 8.4375 16.8872L14.3945 13.479C15.1367 13.0591 15.5566 12.6392 15.5566 11.4185L15.5566 5.52002C15.5566 4.63135 15.2344 4.07471 14.5117 3.65479L9.28711 0.656738C8.26172 0.0708008 7.29492 0.0708008 6.26953 0.656738L1.04492 3.65479C0.3125 4.07471 0 4.63135 0 5.52002L0 11.4185C0 12.6392 0.419922 13.0591 1.15234 13.479ZM1.9043 12.3169C1.48438 12.0728 1.31836 11.8091 1.31836 11.3794L1.31836 5.79346L7.08984 9.1333L7.08984 15.3052ZM13.6523 12.3169L8.4668 15.3052L8.4668 9.1333L14.2383 5.79346L14.2383 11.3794C14.2383 11.8091 14.0625 12.0728 13.6523 12.3169ZM7.77344 7.9126L2.08984 4.66064L4.25781 3.40088L9.93164 6.67236ZM11.3379 5.87158L5.625 2.61963L6.81641 1.93604C7.48047 1.55518 8.07617 1.54541 8.73047 1.93604L13.4668 4.66064Z" fill="white" fill-opacity="0.85"/>
 </g>
</svg>
