<svg version="1.1" xmlns="http://www.w3.org/2000/svg" xmlns:xlink="http://www.w3.org/1999/xlink" viewBox="0 0 19.3262 10.5371">
 <g>
  <rect height="10.5371" opacity="0" width="19.3262" x="0" y="0"/>
  <path d="M17.5 1.15234C17.8125 1.15234 18.0762 0.888672 18.0762 0.576172C18.0762 0.253906 17.8125 0 17.5 0C17.1777 0 16.9238 0.253906 16.9238 0.576172C16.9238 0.888672 17.1777 1.15234 17.5 1.15234ZM18.3887 5.83008C18.7012 5.83008 18.9648 5.56641 18.9648 5.25391C18.9648 4.94141 18.7012 4.67773 18.3887 4.67773C18.0664 4.67773 17.8125 4.94141 17.8125 5.25391C17.8125 5.56641 18.0664 5.83008 18.3887 5.83008ZM17.5098 10.5078C17.8223 10.5078 18.0859 10.2539 18.0859 9.93164C18.0859 9.61914 17.8223 9.36523 17.5098 9.36523C17.1875 9.36523 16.9336 9.61914 16.9336 9.93164C16.9336 10.2539 17.1875 10.5078 17.5098 10.5078Z" fill="var(--color-secondary)"/>
  <path d="M15.6348 2.09961C15.9473 2.09961 16.2109 1.8457 16.2109 1.52344C16.2109 1.21094 15.9473 0.947266 15.6348 0.947266C15.3223 0.947266 15.0586 1.21094 15.0586 1.52344C15.0586 1.8457 15.3223 2.09961 15.6348 2.09961ZM16.0547 5.83008C16.377 5.83008 16.6309 5.56641 16.6309 5.25391C16.6309 4.94141 16.377 4.67773 16.0547 4.67773C15.7422 4.67773 15.4785 4.94141 15.4785 5.25391C15.4785 5.56641 15.7422 5.83008 16.0547 5.83008ZM15.6445 9.56055C15.957 9.56055 16.2207 9.29688 16.2207 8.98438C16.2207 8.67188 15.957 8.4082 15.6445 8.4082C15.332 8.4082 15.0684 8.67188 15.0684 8.98438C15.0684 9.29688 15.332 9.56055 15.6445 9.56055Z" fill="var(--color-secondary)"/>
  <path d="M13.7695 3.05664C14.082 3.05664 14.3359 2.80273 14.3359 2.49023C14.3359 2.16797 14.082 1.91406 13.7695 1.91406C13.4473 1.91406 13.1934 2.16797 13.1934 2.49023C13.1934 2.80273 13.4473 3.05664 13.7695 3.05664ZM13.7305 5.83008C14.043 5.83008 14.3066 5.56641 14.3066 5.25391C14.3066 4.94141 14.043 4.67773 13.7305 4.67773C13.4082 4.67773 13.1543 4.94141 13.1543 5.25391C13.1543 5.56641 13.4082 5.83008 13.7305 5.83008ZM13.7695 8.60352C14.0918 8.60352 14.3457 8.33984 14.3457 8.02734C14.3457 7.70508 14.0918 7.45117 13.7695 7.45117C13.457 7.45117 13.2031 7.70508 13.2031 8.02734C13.2031 8.33984 13.457 8.60352 13.7695 8.60352Z" fill="var(--color-secondary)"/>
  <path d="M1.51367 8.65234C2.75391 8.65234 3.44727 7.85156 3.44727 6.43555L3.44727 4.0918C3.44727 2.67578 2.75391 1.875 1.51367 1.875L0.791016 1.875C0.283203 1.875 0 2.1582 0 2.66602L0 7.86133C0 8.36914 0.283203 8.65234 0.791016 8.65234ZM8.65234 10.127C9.39453 10.127 9.85352 9.66797 9.85352 8.94531L9.85352 1.58203C9.85352 0.859375 9.39453 0.400391 8.65234 0.400391L7.66602 0.400391C5.61523 0.400391 4.32617 1.67969 4.32617 3.73047L4.32617 6.79688C4.32617 8.84766 5.61523 10.127 7.66602 10.127ZM5.10742 6.8457L5.10742 3.59375L2.94922 3.59375L2.94922 6.8457ZM10.6152 8.76953C11.5723 8.75977 12.1777 8.08594 12.1777 7.00195L12.1777 3.52539C12.1777 2.43164 11.5723 1.75781 10.6152 1.74805Z" fill="var(--color-primary)"/>
 </g>
</svg>
