<svg version="1.1" xmlns="http://www.w3.org/2000/svg" xmlns:xlink="http://www.w3.org/1999/xlink" viewBox="0 0 18.4766 14.248">
 <g>
  <rect height="14.248" opacity="0" width="18.4766" x="0" y="0"/>
  <path d="M10.8594 13.1055L12.2266 13.1055L12.2266 1.18164L10.8594 1.18164ZM3.36914 14.248L14.9805 14.248C16.9824 14.248 18.1152 13.0371 18.1152 10.8691L18.1152 3.38867C18.1152 1.2207 16.9824 0.00976562 14.9805 0.00976562L3.36914 0.00976562C1.21094 0.00976562 0 1.2207 0 3.38867L0 10.8691C0 13.0371 1.21094 14.248 3.36914 14.248ZM3.36914 12.832C2.11914 12.832 1.40625 12.1289 1.40625 10.8691L1.40625 3.38867C1.40625 2.12891 2.11914 1.42578 3.36914 1.42578L14.7461 1.42578C16.0059 1.42578 16.709 2.12891 16.709 3.38867L16.709 10.8691C16.709 12.1289 16.0059 12.832 14.7461 12.832ZM13.7012 4.25781L15.2344 4.25781C15.498 4.25781 15.7227 4.02344 15.7227 3.76953C15.7227 3.51562 15.498 3.30078 15.2344 3.30078L13.7012 3.30078C13.4473 3.30078 13.2227 3.51562 13.2227 3.76953C13.2227 4.02344 13.4473 4.25781 13.7012 4.25781ZM13.7012 6.21094L15.2344 6.21094C15.498 6.21094 15.7227 5.98633 15.7227 5.72266C15.7227 5.46875 15.498 5.25391 15.2344 5.25391L13.7012 5.25391C13.4473 5.25391 13.2227 5.46875 13.2227 5.72266C13.2227 5.98633 13.4473 6.21094 13.7012 6.21094ZM13.7012 8.16406L15.2344 8.16406C15.498 8.16406 15.7227 7.93945 15.7227 7.68555C15.7227 7.43164 15.498 7.2168 15.2344 7.2168L13.7012 7.2168C13.4473 7.2168 13.2227 7.43164 13.2227 7.68555C13.2227 7.93945 13.4473 8.16406 13.7012 8.16406Z" fill="var(--color-primary)"/>
 </g>
</svg>
