<?xml version="1.0" encoding="UTF-8"?>
<!--Generator: Apple Native CoreSVG 341-->
<!DOCTYPE svg
PUBLIC "-//W3C//DTD SVG 1.1//EN"
       "http://www.w3.org/Graphics/SVG/1.1/DTD/svg11.dtd">
<svg version="1.1" xmlns="http://www.w3.org/2000/svg" xmlns:xlink="http://www.w3.org/1999/xlink" viewBox="0 0 18.4766 14.248">
 <g>
  <rect height="14.248" opacity="0" width="18.4766" x="0" y="0"/>
  <path d="M5.9082 13.1055L7.28516 13.1055L7.28516 1.18164L5.9082 1.18164ZM3.36914 14.248L14.9805 14.248C16.9824 14.248 18.1152 13.0371 18.1152 10.8691L18.1152 3.38867C18.1152 1.2207 16.9824 0.00976562 14.9805 0.00976562L3.36914 0.00976562C1.21094 0.00976562 0 1.2207 0 3.38867L0 10.8691C0 13.0371 1.21094 14.248 3.36914 14.248ZM3.36914 12.832C2.11914 12.832 1.40625 12.1289 1.40625 10.8691L1.40625 3.38867C1.40625 2.12891 2.11914 1.42578 3.36914 1.42578L14.7461 1.42578C16.0059 1.42578 16.709 2.12891 16.709 3.38867L16.709 10.8691C16.709 12.1289 16.0059 12.832 14.7461 12.832ZM2.96875 5.04883L4.36523 5.04883C4.57031 5.04883 4.73633 4.89258 4.73633 4.67773L4.73633 3.29102C4.73633 3.06641 4.58008 2.91016 4.36523 2.91016L2.96875 2.91016C2.73438 2.91016 2.58789 3.06641 2.58789 3.29102L2.58789 4.67773C2.58789 4.89258 2.74414 5.04883 2.96875 5.04883ZM2.96875 8.19336L4.36523 8.19336C4.57031 8.19336 4.73633 8.02734 4.73633 7.82227L4.73633 6.42578C4.73633 6.2207 4.58008 6.04492 4.36523 6.04492L2.96875 6.04492C2.73438 6.04492 2.58789 6.2207 2.58789 6.42578L2.58789 7.82227C2.58789 8.02734 2.74414 8.19336 2.96875 8.19336ZM2.96875 11.3281L4.36523 11.3281C4.57031 11.3281 4.73633 11.1719 4.73633 10.957L4.73633 9.57031C4.73633 9.35547 4.58008 9.18945 4.36523 9.18945L2.96875 9.18945C2.73438 9.18945 2.58789 9.35547 2.58789 9.57031L2.58789 10.957C2.58789 11.1719 2.74414 11.3281 2.96875 11.3281Z" fill="white" fill-opacity="0.85"/>
 </g>
</svg>
