<?xml version="1.0" encoding="UTF-8"?>
<!--Generator: Apple Native CoreSVG 341-->
<!DOCTYPE svg
PUBLIC "-//W3C//DTD SVG 1.1//EN"
       "http://www.w3.org/Graphics/SVG/1.1/DTD/svg11.dtd">
<svg version="1.1" xmlns="http://www.w3.org/2000/svg" xmlns:xlink="http://www.w3.org/1999/xlink" viewBox="0 0 16.045 16.3965">
 <g>
  <rect height="16.3965" opacity="0" width="16.045" x="0" y="0"/>
  <path d="M6.49904 3.48633L7.91506 3.48633L7.91506 0.712891C7.91506 0.322266 7.59279 0 7.21193 0C6.82131 0 6.49904 0.322266 6.49904 0.712891ZM1.74318 10.1074L11.8408 10.0977C12.5635 10.0977 12.8858 9.88281 13.2959 9.48242L15.376 7.48047C16.2549 6.64062 16.2842 5.84961 15.3662 4.9707L13.2959 2.97852C12.8858 2.56836 12.5635 2.35352 11.8506 2.35352L1.74318 2.35352C0.639668 2.35352 0.0341996 2.94922 0.0341996 4.0332L0.0341996 8.42773C0.0341996 9.51172 0.639668 10.1074 1.74318 10.1074ZM6.49904 9.62891L6.49904 16.3672L7.91506 16.3672L7.91506 9.62891ZM3.501 15.6738C3.501 16.0645 3.8135 16.3867 4.20412 16.3867L10.2197 16.3867C10.6104 16.3867 10.9326 16.0645 10.9326 15.6738C10.9326 15.293 10.6104 14.9707 10.2197 14.9707L4.20412 14.9707C3.8135 14.9707 3.501 15.293 3.501 15.6738Z" fill="white" fill-opacity="0.85"/>
 </g>
</svg>
