<svg version="1.1" xmlns="http://www.w3.org/2000/svg" xmlns:xlink="http://www.w3.org/1999/xlink" viewBox="0 0 14.5898 14.248">
 <g>
  <rect height="14.248" opacity="0" width="14.5898" x="0" y="0"/>
  <path d="M2.49023 14.248L11.7383 14.248C13.4082 14.248 14.2285 13.4277 14.2285 11.7871L14.2285 2.4707C14.2285 0.830078 13.4082 0.00976562 11.7383 0.00976562L2.49023 0.00976562C0.830078 0.00976562 0 0.830078 0 2.4707L0 11.7871C0 13.4277 0.830078 14.248 2.49023 14.248ZM2.50977 12.832C1.80664 12.832 1.40625 12.4512 1.40625 11.7188L1.40625 2.53906C1.40625 1.79688 1.80664 1.42578 2.50977 1.42578L11.7188 1.42578C12.4219 1.42578 12.8223 1.79688 12.8223 2.53906L12.8223 11.7188C12.8223 12.4512 12.4219 12.832 11.7188 12.832Z" fill="var(--color-secondary)"/>
  <path d="M4.98047 10.1855C6.30859 10.1855 6.9043 9.375 6.9043 8.38867C6.9043 7.33398 6.25977 6.94336 5.43945 6.64062L5 6.47461C4.48242 6.2793 4.11133 6.05469 4.11133 5.49805C4.11133 5.01953 4.39453 4.63867 4.95117 4.63867C5.41016 4.63867 5.75195 4.89258 5.89844 5.42969C5.9668 5.66406 6.12305 5.76172 6.34766 5.76172C6.60156 5.76172 6.75781 5.58594 6.75781 5.3418C6.75781 5.2832 6.74805 5.19531 6.72852 5.11719C6.5332 4.31641 5.83984 3.82812 4.96094 3.82812C3.7793 3.82812 3.16406 4.62891 3.16406 5.55664C3.16406 6.47461 3.71094 7.00195 4.58008 7.30469L5.0293 7.46094C5.55664 7.64648 5.94727 7.91992 5.94727 8.48633C5.94727 8.98438 5.5957 9.36523 5 9.36523C4.47266 9.36523 4.12109 9.10156 3.97461 8.56445C3.91602 8.33008 3.75977 8.22266 3.53516 8.22266C3.29102 8.22266 3.10547 8.41797 3.10547 8.68164C3.10547 8.7793 3.125 8.89648 3.1543 8.97461C3.42773 9.77539 4.08203 10.1855 4.98047 10.1855ZM9.30664 9.95117C10.4004 9.95117 11.1621 9.375 11.1621 8.35938C11.1621 7.44141 10.5957 7.09961 9.83398 6.74805L9.25781 6.47461C8.79883 6.25 8.42773 5.99609 8.42773 5.55664C8.42773 5.06836 8.79883 4.82422 9.29688 4.82422C9.85352 4.82422 10.0781 5.17578 10.1855 5.61523C10.2344 5.81055 10.3613 5.95703 10.6348 5.95703C10.8887 5.95703 11.0547 5.80078 11.0547 5.54688C11.0547 5.43945 11.0449 5.38086 11.0254 5.30273C10.8105 4.42383 10.1172 4.07227 9.29688 4.07227C8.31055 4.07227 7.50977 4.59961 7.50977 5.61523C7.50977 6.48438 8.01758 6.86523 8.79883 7.23633L9.375 7.50977C9.83398 7.73438 10.2441 7.94922 10.2441 8.44727C10.2441 8.91602 9.91211 9.17969 9.31641 9.17969C8.70117 9.17969 8.4375 8.91602 8.33008 8.37891C8.30078 8.20312 8.1543 8.03711 7.90039 8.03711C7.64648 8.03711 7.46094 8.20312 7.46094 8.45703C7.46094 8.52539 7.4707 8.61328 7.49023 8.69141C7.70508 9.58984 8.4668 9.95117 9.30664 9.95117ZM9.29688 10.7227C9.42383 10.7227 9.53125 10.625 9.53125 10.498L9.53125 3.51562C9.53125 3.38867 9.42383 3.28125 9.29688 3.28125C9.17969 3.28125 9.07227 3.38867 9.07227 3.51562L9.07227 10.498C9.07227 10.625 9.17969 10.7227 9.29688 10.7227Z" fill="var(--color-primary)"/>
 </g>
</svg>
