<svg version="1.1" xmlns="http://www.w3.org/2000/svg" xmlns:xlink="http://www.w3.org/1999/xlink" viewBox="0 0 16.1328 15.7715">
 <g>
  <rect height="15.7715" opacity="0" width="16.1328" x="0" y="0"/>
  <path d="M7.88086 15.7617C12.2363 15.7617 15.7715 12.2266 15.7715 7.88086C15.7715 3.53516 12.2363 0 7.88086 0C3.53516 0 0 3.53516 0 7.88086C0 12.2266 3.53516 15.7617 7.88086 15.7617Z" fill="var(--color-tertiary)"/>
  <path d="M5.23438 11.3281C4.79492 11.3281 4.50195 10.9961 4.50195 10.5762C4.50195 10.3613 4.59961 10.1367 4.80469 9.93164L9.88281 4.76562C10.0781 4.56055 10.293 4.44336 10.5078 4.44336C10.9375 4.44336 11.2695 4.78516 11.2695 5.20508C11.2695 5.41016 11.1621 5.63477 10.9668 5.83984L5.87891 11.0156C5.67383 11.2207 5.48828 11.3281 5.23438 11.3281Z" fill="var(--color-primary)"/>
 </g>
</svg>
