<svg version="1.1" xmlns="http://www.w3.org/2000/svg" xmlns:xlink="http://www.w3.org/1999/xlink" viewBox="0 0 16.1328 15.7715">
 <g>
  <rect height="15.7715" opacity="0" width="16.1328" x="0" y="0"/>
  <path d="M7.88086 15.7617C12.2363 15.7617 15.7715 12.2363 15.7715 7.88086C15.7715 3.52539 12.2363 0 7.88086 0C3.53516 0 0 3.52539 0 7.88086C0 12.2363 3.53516 15.7617 7.88086 15.7617ZM7.88086 14.2773C4.3457 14.2773 1.49414 11.416 1.49414 7.88086C1.49414 4.3457 4.3457 1.48438 7.88086 1.48438C11.416 1.48438 14.2773 4.3457 14.2773 7.88086C14.2773 11.416 11.416 14.2773 7.88086 14.2773Z" fill="var(--color-secondary)"/>
  <path d="M5.3125 11.2012C5.56641 11.2012 5.74219 11.1035 5.9375 10.8984L10.8398 5.9082C11.0254 5.72266 11.1426 5.50781 11.1426 5.30273C11.1426 4.89258 10.8105 4.58008 10.4102 4.58008C10.2051 4.58008 10 4.67773 9.80469 4.87305L4.91211 9.86328C4.70703 10.0586 4.60938 10.2734 4.60938 10.4785C4.60938 10.8789 4.90234 11.2012 5.3125 11.2012Z" fill="var(--color-primary)"/>
 </g>
</svg>
