<?xml version="1.0" encoding="UTF-8"?>
<!--Generator: Apple Native CoreSVG 341-->
<!DOCTYPE svg
PUBLIC "-//W3C//DTD SVG 1.1//EN"
       "http://www.w3.org/Graphics/SVG/1.1/DTD/svg11.dtd">
<svg version="1.1" xmlns="http://www.w3.org/2000/svg" xmlns:xlink="http://www.w3.org/1999/xlink" viewBox="0 0 18.9258 17.3145">
 <g>
  <rect height="17.3145" opacity="0" width="18.9258" x="0" y="0"/>
  <path d="M11.6895 10.5273L16.6797 10.5273C17.8613 10.5273 18.5645 9.84375 18.5645 8.68164L18.5645 3.64258C18.5645 2.49023 17.8613 1.79688 16.6797 1.79688L11.6895 1.79688C10.5078 1.79688 9.81445 2.49023 9.81445 3.64258L9.81445 8.68164C9.81445 9.84375 10.5078 10.5273 11.6895 10.5273ZM11.709 9.15039C11.3672 9.15039 11.1914 8.96484 11.1914 8.62305L11.1914 3.71094C11.1914 3.35938 11.3672 3.17383 11.709 3.17383L16.6602 3.17383C17.0117 3.17383 17.1777 3.35938 17.1777 3.71094L17.1777 8.62305C17.1777 8.96484 17.0117 9.15039 16.6602 9.15039Z" fill="white" fill-opacity="0.425"/>
  <path d="M1.81641 10.4102L6.66992 10.4102C7.82227 10.4102 8.50586 9.73633 8.50586 8.61328L8.50586 3.71094C8.50586 2.58789 7.82227 1.91406 6.66992 1.91406L1.81641 1.91406C0.683594 1.91406 0 2.57812 0 3.71094L0 8.61328C0 9.74609 0.683594 10.4102 1.81641 10.4102ZM0.664062 14.6973C0.3125 14.6973 0 15.0098 0 15.4004C0 15.8008 0.3125 16.1133 0.664062 16.1133L3.04688 16.1133L3.04688 14.6973ZM4.4043 17.3145C5.44922 17.3145 6.30859 16.4551 6.30859 15.4004C6.30859 14.3555 5.44922 13.4961 4.4043 13.4961C3.34961 13.4961 2.49023 14.3555 2.49023 15.4004C2.49023 16.4551 3.34961 17.3145 4.4043 17.3145ZM4.4043 16.2695C3.90625 16.2695 3.53516 15.8887 3.53516 15.4004C3.53516 14.9121 3.90625 14.5312 4.4043 14.5312C4.88281 14.5312 5.26367 14.9121 5.26367 15.4004C5.26367 15.8887 4.88281 16.2695 4.4043 16.2695ZM5.60547 14.6973L5.60547 16.1133L17.8516 16.1133C18.252 16.1133 18.5645 15.8008 18.5645 15.4004C18.5645 15.0098 18.252 14.6973 17.8516 14.6973Z" fill="white" fill-opacity="0.85"/>
 </g>
</svg>
