<?xml version="1.0" encoding="UTF-8"?>
<!--Generator: Apple Native CoreSVG 341-->
<!DOCTYPE svg
PUBLIC "-//W3C//DTD SVG 1.1//EN"
       "http://www.w3.org/Graphics/SVG/1.1/DTD/svg11.dtd">
<svg version="1.1" xmlns="http://www.w3.org/2000/svg" xmlns:xlink="http://www.w3.org/1999/xlink" viewBox="0 0 16.1328 15.7715">
 <g>
  <rect height="15.7715" opacity="0" width="16.1328" x="0" y="0"/>
  <path d="M15.7715 7.88086C15.7715 12.2266 12.2363 15.7617 7.88086 15.7617C3.53516 15.7617 0 12.2266 0 7.88086C0 3.53516 3.53516 0 7.88086 0C12.2363 0 15.7715 3.53516 15.7715 7.88086ZM4.73633 7.88086C4.73633 9.62891 6.14258 11.0352 7.88086 11.0352C9.62891 11.0352 11.0352 9.62891 11.0352 7.88086C11.0352 6.13281 9.62891 4.72656 7.88086 4.72656C6.14258 4.72656 4.73633 6.13281 4.73633 7.88086ZM9.58984 7.88086C9.58984 8.82812 8.82812 9.58984 7.88086 9.58984C6.93359 9.58984 6.18164 8.82812 6.18164 7.88086C6.18164 6.93359 6.93359 6.17188 7.88086 6.17188C8.82812 6.17188 9.58984 6.93359 9.58984 7.88086Z" fill="white" fill-opacity="0.85"/>
 </g>
</svg>
