<svg version="1.1" xmlns="http://www.w3.org/2000/svg" xmlns:xlink="http://www.w3.org/1999/xlink" viewBox="0 0 18.8184 13.4473">
 <g>
  <rect height="13.4473" opacity="0" width="18.8184" x="0" y="0"/>
  <path d="M9.13086 1.48438C9.375 1.44531 9.6875 1.39648 9.9707 1.39648C11.4119 1.40603 12.6479 2.39503 12.9832 3.75371C12.7507 3.70604 12.5105 3.68164 12.2656 3.68164C12.0418 3.68164 11.8204 3.70193 11.604 3.74179C11.3154 3.1218 10.7035 2.71484 9.9707 2.71484C9.66797 2.71484 9.51172 2.76367 9.19922 2.88086C8.75 3.05664 8.48633 2.96875 8.31055 2.61719C7.93945 1.83594 7.08984 1.32812 6.16211 1.32812C4.84375 1.32812 3.75 2.42188 3.75 3.75C3.75 4.31641 3.57422 4.53125 3.00781 4.58984C2.05078 4.69727 1.31836 5.53711 1.31836 6.52344C1.31836 7.69531 2.1875 8.4668 3.47656 8.4668L3.52658 8.4668C3.19346 8.8191 2.95053 9.25117 2.82943 9.7332C1.09777 9.4694 0 8.13656 0 6.52344C0 5.00977 1.00586 3.74023 2.45117 3.32031C2.67578 1.45508 4.27734 0.00976562 6.16211 0.00976562C7.32422 0.00976562 8.41797 0.566406 9.13086 1.48438Z" fill="var(--color-primary)"/>
  <path d="M5.81055 13.4473L14.9414 13.4473C17.0508 13.4473 18.418 12.002 18.418 10.1855C18.418 8.67188 17.4219 7.40234 15.9766 6.99219C15.752 5.12695 14.1504 3.68164 12.2656 3.68164C11.1035 3.68164 10.0098 4.22852 9.29688 5.15625C9.05273 5.10742 8.74023 5.05859 8.45703 5.05859C6.97266 5.05859 5.72266 6.10352 5.41016 7.51953C3.87695 7.71484 2.73438 8.94531 2.73438 10.4688C2.73438 12.1875 4.0332 13.4473 5.81055 13.4473ZM5.81055 12.1387C4.75586 12.1387 4.05273 11.4648 4.05273 10.4688C4.05273 9.53125 4.81445 8.79883 5.79102 8.78906C6.36719 8.76953 6.61133 8.58398 6.65039 8.0957C6.71875 7.09961 7.4707 6.37695 8.45703 6.37695C8.75 6.37695 8.91602 6.42578 9.22852 6.54297C9.67773 6.71875 9.94141 6.64062 10.1172 6.2793C10.4883 5.50781 11.3379 5.00977 12.2656 5C13.584 5 14.6777 6.08398 14.6777 7.41211C14.6777 7.98828 14.8535 8.19336 15.4199 8.26172C16.3672 8.35938 17.1094 9.19922 17.1094 10.1855C17.1094 11.3574 16.2305 12.1387 14.9414 12.1387Z" fill="var(--color-primary)"/>
 </g>
</svg>
