<svg version="1.1" xmlns="http://www.w3.org/2000/svg" xmlns:xlink="http://www.w3.org/1999/xlink" viewBox="0 0 16.1328 15.7715">
 <g>
  <rect height="15.7715" opacity="0" width="16.1328" x="0" y="0"/>
  <path d="M7.88086 15.7617C12.2363 15.7617 15.7715 12.2363 15.7715 7.88086C15.7715 3.52539 12.2363 0 7.88086 0C3.53516 0 0 3.52539 0 7.88086C0 12.2363 3.53516 15.7617 7.88086 15.7617ZM7.88086 14.2773C4.3457 14.2773 1.49414 11.416 1.49414 7.88086C1.49414 4.3457 4.3457 1.48438 7.88086 1.48438C11.416 1.48438 14.2773 4.3457 14.2773 7.88086C14.2773 11.416 11.416 14.2773 7.88086 14.2773Z" fill="var(--color-secondary)"/>
  <path d="M7.87109 12.6758C8.14453 12.6758 8.34961 12.4609 8.34961 12.1875L8.34961 10.0195L8.20312 7.88086L8.34961 5.74219L8.34961 3.57422C8.34961 3.30078 8.14453 3.08594 7.87109 3.08594C7.60742 3.08594 7.40234 3.30078 7.40234 3.57422L7.40234 5.74219L7.53906 7.88086L7.40234 10.0195L7.40234 12.1875C7.40234 12.4609 7.60742 12.6758 7.87109 12.6758ZM12.0215 5.47852C11.8945 5.25391 11.6113 5.17578 11.3672 5.32227L9.48242 6.40625L7.71484 7.59766L5.79102 8.53516L3.90625 9.62891C3.67188 9.76562 3.59375 10.0488 3.73047 10.2734C3.85742 10.5078 4.14062 10.5859 4.375 10.4395L6.26953 9.35547L8.04688 8.16406L9.96094 7.22656L11.8457 6.13281C12.0801 5.99609 12.1582 5.71289 12.0215 5.47852ZM12.0312 10.2734C12.1582 10.0488 12.0801 9.76562 11.8457 9.62891L9.96094 8.53516L8.03711 7.59766L6.26953 6.40625L4.375 5.32227C4.14062 5.17578 3.85742 5.25391 3.73047 5.47852C3.59375 5.71289 3.67188 5.99609 3.90625 6.13281L5.79102 7.22656L7.71484 8.17383L9.48242 9.35547L11.3672 10.4395C11.6113 10.5859 11.8945 10.5078 12.0312 10.2734ZM9.52148 4.12109C9.39453 3.90625 9.14062 3.83789 8.90625 3.98438L7.87109 4.57031L6.8457 3.98438C6.61133 3.83789 6.34766 3.90625 6.23047 4.12109C6.09375 4.35547 6.17188 4.59961 6.40625 4.73633L7.40234 5.3125C7.7832 5.50781 7.97852 5.51758 8.33984 5.3125L9.3457 4.73633C9.58008 4.59961 9.6582 4.35547 9.52148 4.12109ZM10.3027 4.58008C10.0391 4.57031 9.87305 4.76562 9.86328 5.04883L9.87305 6.19141C9.89258 6.61133 9.98047 6.80664 10.3418 7.00195L11.3281 7.57812C11.5723 7.72461 11.8164 7.65625 11.9531 7.43164C12.0801 7.2168 12.0117 6.96289 11.7676 6.83594L10.7422 6.23047L10.7324 5.03906C10.7422 4.76562 10.5566 4.57031 10.3027 4.58008ZM10.3027 11.1816C10.5566 11.1914 10.7422 10.9961 10.7324 10.7227L10.7422 9.53125L11.7676 8.92578C12.0117 8.79883 12.0801 8.54492 11.9531 8.33008C11.8164 8.10547 11.5723 8.03711 11.3281 8.18359L10.3418 8.75977C9.98047 8.95508 9.89258 9.15039 9.87305 9.57031L9.86328 10.7129C9.87305 10.9961 10.0391 11.1914 10.3027 11.1816ZM6.23047 11.6406C6.34766 11.8555 6.61133 11.9238 6.8457 11.7773L7.87109 11.1914L8.90625 11.7773C9.14062 11.9238 9.39453 11.8555 9.52148 11.6406C9.6582 11.4062 9.58008 11.1621 9.3457 11.0254L8.33984 10.4492C7.97852 10.2441 7.7832 10.2539 7.40234 10.4492L6.40625 11.0254C6.17188 11.1621 6.09375 11.4062 6.23047 11.6406ZM5.43945 11.1914C5.71289 11.1914 5.87891 11.0059 5.88867 10.7227L5.87891 9.58008C5.85938 9.16016 5.76172 8.96484 5.41016 8.76953L4.42383 8.19336C4.17969 8.04688 3.92578 8.11523 3.79883 8.33984C3.67188 8.55469 3.74023 8.80859 3.98438 8.93555L5.00977 9.54102L5.01953 10.7324C5.00977 11.0059 5.19531 11.1914 5.43945 11.1914ZM5.43945 4.58008C5.19531 4.57031 5.00977 4.76562 5.01953 5.03906L5.00977 6.23047L3.98438 6.83594C3.74023 6.96289 3.67188 7.2168 3.79883 7.43164C3.92578 7.65625 4.17969 7.72461 4.42383 7.57812L5.41016 7.00195C5.76172 6.80664 5.85938 6.61133 5.87891 6.19141L5.88867 5.04883C5.87891 4.76562 5.71289 4.57031 5.43945 4.58008Z" fill="var(--color-primary)"/>
 </g>
</svg>
