<?xml version="1.0" encoding="UTF-8"?>
<!--Generator: Apple Native CoreSVG 341-->
<!DOCTYPE svg
PUBLIC "-//W3C//DTD SVG 1.1//EN"
       "http://www.w3.org/Graphics/SVG/1.1/DTD/svg11.dtd">
<svg version="1.1" xmlns="http://www.w3.org/2000/svg" xmlns:xlink="http://www.w3.org/1999/xlink" viewBox="0 0 19.7863 19.4765">
 <g>
  <rect height="19.4765" opacity="0" width="19.7863" x="0" y="0"/>
  <path d="M1.2701 18.1611C3.02791 19.9189 5.32283 19.8408 7.19783 17.9658C8.00838 17.165 9.63924 14.8017 12.2174 12.2236C14.8053 9.63572 17.1588 8.00486 17.9693 7.20408C19.8443 5.31931 19.9224 3.02439 18.1646 1.26658C16.3971-0.491235 14.1119-0.41311 12.2271 1.46189C11.4263 2.26267 9.79549 4.62595 7.2076 7.21384C4.61971 9.79197 2.26619 11.4228 1.46541 12.2334C-0.419353 14.1084-0.487713 16.4033 1.2701 18.1611ZM2.22713 17.2041C1.04549 16.0322 1.11385 14.4697 2.41268 13.1806C3.16463 12.4287 5.50838 10.8076 8.1451 8.15134C10.8111 5.50486 12.4322 3.15134 13.1744 2.40916C14.4732 1.12009 16.0357 1.04197 17.1978 2.22361C18.3892 3.39548 18.3111 4.95798 17.0221 6.24705C16.2799 6.999 13.9263 8.62009 11.2799 11.2861C8.62362 13.9228 7.00252 16.2666 6.25057 17.0185C4.95174 18.3174 3.39901 18.3857 2.22713 17.2041ZM7.2076 11.2275L8.20369 12.2236C8.58455 12.5947 9.16072 12.5849 9.53182 12.2236C9.91268 11.8427 9.91268 11.2861 9.53182 10.915L8.51619 9.89939C8.13533 9.51853 7.57869 9.51853 7.2076 9.88962C6.82674 10.2607 6.83651 10.8467 7.2076 11.2275ZM9.88338 8.55173L10.8795 9.54783C11.2603 9.93845 11.8365 9.92869 12.2076 9.54783C12.5689 9.1865 12.5787 8.61033 12.2076 8.22947L11.192 7.22361C10.8209 6.85252 10.2349 6.86228 9.87362 7.22361C9.49276 7.5947 9.50252 8.18064 9.88338 8.55173Z" fill="white" fill-opacity="0.85"/>
 </g>
</svg>
