<?xml version="1.0" encoding="UTF-8"?>
<!--Generator: Apple Native CoreSVG 341-->
<!DOCTYPE svg
PUBLIC "-//W3C//DTD SVG 1.1//EN"
       "http://www.w3.org/Graphics/SVG/1.1/DTD/svg11.dtd">
<svg version="1.1" xmlns="http://www.w3.org/2000/svg" xmlns:xlink="http://www.w3.org/1999/xlink" viewBox="0 0 18.7793 19.5801">
 <g>
  <rect height="19.5801" opacity="0" width="18.7793" x="0" y="0"/>
  <path d="M14.031 2.26562L4.38693 2.26562C4.40825 1.55962 4.8348 1.16211 5.56641 1.16211L12.8516 1.16211C13.5832 1.16211 14.0097 1.55962 14.031 2.26562Z" fill="white" fill-opacity="0.85"/>
  <path d="M15.6315 4.56702C15.3557 4.51675 15.0597 4.49219 14.7461 4.49219L3.68164 4.49219C3.36425 4.49219 3.06488 4.51714 2.78635 4.56833C2.86989 3.72053 3.42283 3.25195 4.3457 3.25195L14.0723 3.25195C14.9947 3.25195 15.5475 3.72004 15.6315 4.56702Z" fill="white" fill-opacity="0.85"/>
  <path d="M17.2363 8.125L17.2363 15.9375C17.2363 17.5781 16.4062 18.3887 14.7461 18.3887L3.68164 18.3887C2.01172 18.3887 1.19141 17.5781 1.19141 15.9375L1.19141 8.125C1.19141 6.48438 2.01172 5.67383 3.68164 5.67383L14.7461 5.67383C16.4062 5.67383 17.2363 6.49414 17.2363 8.125ZM6.25 13.0469C6.00586 14.1602 6.12305 14.1699 4.90234 14.3945C4.77539 14.4141 4.6875 14.5117 4.6875 14.6387C4.6875 14.7754 4.77539 14.8633 4.92188 14.8926C6.12305 15.0781 6.00586 15.0879 6.25 16.2207C6.29883 16.3574 6.37695 16.4551 6.50391 16.4551C6.64062 16.4551 6.72852 16.3672 6.76758 16.25C7.00195 15.0879 6.9043 15.0781 8.125 14.8926C8.25195 14.8633 8.33984 14.7559 8.33984 14.6387C8.33984 14.5117 8.25195 14.4141 8.125 14.3945C6.9043 14.1699 7.00195 14.1602 6.76758 13.0469C6.72852 12.9102 6.65039 12.8125 6.50391 12.8125C6.38672 12.8125 6.29883 12.9004 6.25 13.0469ZM9.27734 8.23242C8.84766 10.4004 8.62305 10.8984 6.31836 11.2109C6.14258 11.2402 6.02539 11.377 6.02539 11.5332C6.02539 11.709 6.14258 11.8262 6.31836 11.8555C8.62305 12.1484 8.95508 12.6758 9.27734 14.834C9.30664 15 9.43359 15.1172 9.60938 15.1172C9.76562 15.1172 9.89258 15 9.92188 14.8438C10.3711 12.6758 10.5957 12.168 12.8906 11.8555C13.0664 11.8359 13.1836 11.709 13.1836 11.5332C13.1836 11.377 13.0664 11.2402 12.8906 11.2109C10.6055 10.8984 10.2441 10.3613 9.92188 8.24219C9.90234 8.07617 9.76562 7.94922 9.60938 7.94922C9.45312 7.94922 9.32617 8.06641 9.27734 8.23242Z" fill="white" fill-opacity="0.85"/>
 </g>
</svg>
