<?xml version="1.0" encoding="UTF-8"?>
<!--Generator: Apple Native CoreSVG 341-->
<!DOCTYPE svg
PUBLIC "-//W3C//DTD SVG 1.1//EN"
       "http://www.w3.org/Graphics/SVG/1.1/DTD/svg11.dtd">
<svg version="1.1" xmlns="http://www.w3.org/2000/svg" xmlns:xlink="http://www.w3.org/1999/xlink" viewBox="0 0 18.7793 19.5801">
 <g>
  <rect height="19.5801" opacity="0" width="18.7793" x="0" y="0"/>
  <path d="M14.031 2.26562L4.38693 2.26562C4.40825 1.55962 4.8348 1.16211 5.56641 1.16211L12.8516 1.16211C13.5832 1.16211 14.0097 1.55962 14.031 2.26562Z" fill="white" fill-opacity="0.425"/>
  <path d="M15.6315 4.56702C15.3557 4.51675 15.0597 4.49219 14.7461 4.49219L3.68164 4.49219C3.36425 4.49219 3.06488 4.51714 2.78635 4.56833C2.86989 3.72053 3.42283 3.25195 4.3457 3.25195L14.0723 3.25195C14.9947 3.25195 15.5475 3.72004 15.6315 4.56702Z" fill="white" fill-opacity="0.425"/>
  <path d="M3.68164 18.3887L14.7461 18.3887C16.4062 18.3887 17.2363 17.5781 17.2363 15.9375L17.2363 8.125C17.2363 6.49414 16.4062 5.67383 14.7461 5.67383L3.68164 5.67383C2.01172 5.67383 1.19141 6.48438 1.19141 8.125L1.19141 15.9375C1.19141 17.5781 2.01172 18.3887 3.68164 18.3887ZM3.70117 16.9824C2.99805 16.9824 2.59766 16.6016 2.59766 15.8594L2.59766 8.20312C2.59766 7.46094 2.99805 7.08008 3.70117 7.08008L14.7266 7.08008C15.4297 7.08008 15.8301 7.46094 15.8301 8.20312L15.8301 15.8594C15.8301 16.6016 15.4297 16.9824 14.7266 16.9824Z" fill="white" fill-opacity="0.425"/>
  <path d="M9.58984 15.0195C9.73633 15.0195 9.85352 14.9023 9.89258 14.7461C10.3125 12.6562 10.5273 12.168 12.7441 11.8652C12.9199 11.8457 13.0273 11.7188 13.0273 11.5625C13.0273 11.3965 12.9199 11.2793 12.7441 11.25C10.5371 10.9473 10.1953 10.4199 9.89258 8.38867C9.86328 8.22266 9.73633 8.10547 9.58984 8.10547C9.43359 8.10547 9.30664 8.21289 9.27734 8.37891C8.84766 10.4688 8.63281 10.9473 6.41602 11.25C6.24023 11.2793 6.13281 11.3965 6.13281 11.5625C6.13281 11.7188 6.24023 11.8359 6.41602 11.8652C8.63281 12.1484 8.95508 12.6562 9.27734 14.7363C9.29688 14.9023 9.41406 15.0195 9.58984 15.0195ZM6.60156 16.2988C6.71875 16.2988 6.81641 16.2207 6.8457 16.0938C7.07031 14.9805 6.98242 14.9805 8.1543 14.7852C8.28125 14.7656 8.35938 14.668 8.35938 14.541C8.35938 14.4336 8.28125 14.3262 8.1543 14.3066C6.98242 14.0918 7.07031 14.0918 6.8457 13.0176C6.81641 12.8809 6.72852 12.793 6.60156 12.793C6.47461 12.793 6.39648 12.8711 6.35742 13.0176C6.11328 14.0918 6.23047 14.0918 5.04883 14.3066C4.92188 14.3262 4.84375 14.4336 4.84375 14.541C4.84375 14.6875 4.92188 14.7656 5.06836 14.7852C6.23047 14.9805 6.11328 14.9805 6.35742 16.0742C6.39648 16.2109 6.46484 16.2988 6.60156 16.2988Z" fill="white" fill-opacity="0.85"/>
 </g>
</svg>
