<svg version="1.1" xmlns="http://www.w3.org/2000/svg" xmlns:xlink="http://www.w3.org/1999/xlink" viewBox="0 0 18.8965 17.4707">
 <g>
  <rect height="17.4707" opacity="0" width="18.8965" x="0" y="0"/>
  <path d="M7.89062 0.263672L10.7152 1.89542C10.6914 1.90704 10.6679 1.92002 10.6445 1.93359L9.39678 2.65538L7.46094 1.5332C7.1875 1.37695 6.9043 1.37695 6.63086 1.5332L1.71875 4.375C1.46484 4.52148 1.31836 4.78516 1.31836 5.07812L1.31836 10.752C1.31836 11.0352 1.46484 11.3086 1.71875 11.4648L4.4952 13.0601C4.59539 13.5186 4.8775 13.9042 5.29297 14.1504L7.81616 15.6054C7.2965 15.8685 6.70394 15.8553 6.19141 15.5664L0.839844 12.4707C0.302734 12.168 0 11.6309 0 11.0059L0 4.81445C0 4.19922 0.302734 3.66211 0.839844 3.34961L6.19141 0.263672C6.72852-0.0585938 7.35352-0.0585938 7.89062 0.263672Z" fill="var(--color-secondary)"/>
  <path d="M5.29297 14.1504L10.6445 17.2363C11.1816 17.5488 11.8066 17.5488 12.334 17.2363L17.6855 14.1504C18.2129 13.8379 18.5352 13.3008 18.5352 12.6758L18.5352 6.49414C18.5352 5.86914 18.2227 5.33203 17.6855 5.0293L12.334 1.93359C11.8066 1.62109 11.1816 1.62109 10.6445 1.93359L5.29297 5.0293C4.75586 5.33203 4.45312 5.86914 4.45312 6.49414L4.45312 12.6758C4.45312 13.3008 4.76562 13.8379 5.29297 14.1504ZM5.77148 12.4219L5.77148 6.74805C5.77148 6.46484 5.9082 6.20117 6.17188 6.04492L11.084 3.21289C11.3477 3.05664 11.6406 3.05664 11.9043 3.21289L16.8066 6.04492C17.0703 6.20117 17.2266 6.46484 17.2266 6.74805L17.2266 12.4219C17.2266 12.7148 17.0801 12.9785 16.8066 13.1348L11.9141 15.9668C11.6406 16.123 11.3477 16.123 11.084 15.9668L6.17188 13.1348C5.89844 12.9785 5.77148 12.7148 5.77148 12.4219ZM5.11719 13.0078L11.4941 16.543L17.8613 12.8223L17.8613 11.6309L15.5566 9.44336C15.2539 9.16016 14.8633 9.02344 14.5117 9.02344C14.1504 9.02344 13.7891 9.15039 13.4766 9.43359L10.3906 12.1973L9.16016 11.0742C8.86719 10.8105 8.53516 10.6738 8.20312 10.6738C7.89062 10.6738 7.59766 10.8105 7.30469 11.0645ZM9.25781 9.63867C10.1562 9.63867 10.9082 8.89648 10.9082 7.99805C10.9082 7.09961 10.1562 6.34766 9.25781 6.34766C8.34961 6.34766 7.61719 7.09961 7.61719 7.99805C7.61719 8.89648 8.34961 9.63867 9.25781 9.63867Z" fill="var(--color-primary)"/>
 </g>
</svg>
