<?xml version="1.0" encoding="UTF-8"?>
<!--Generator: Apple Native CoreSVG 341-->
<!DOCTYPE svg
PUBLIC "-//W3C//DTD SVG 1.1//EN"
       "http://www.w3.org/Graphics/SVG/1.1/DTD/svg11.dtd">
<svg version="1.1" xmlns="http://www.w3.org/2000/svg" xmlns:xlink="http://www.w3.org/1999/xlink" viewBox="0 0 17.6953 13.6816">
 <g>
  <rect height="13.6816" opacity="0" width="17.6953" x="0" y="0"/>
  <path d="M14.834 12.1094C15.1562 12.3242 15.5566 12.2559 15.791 11.9141C16.7676 10.5566 17.334 8.71094 17.334 6.83594C17.334 4.96094 16.7773 3.0957 15.791 1.75781C15.5566 1.41602 15.1562 1.34766 14.834 1.5625C14.5117 1.77734 14.4531 2.1875 14.707 2.54883C15.5176 3.70117 15.9766 5.25391 15.9766 6.83594C15.9766 8.41797 15.498 9.96094 14.707 11.123C14.4629 11.4844 14.5117 11.8945 14.834 12.1094Z" fill="white" fill-opacity="0.85"/>
  <path d="M11.9043 10.127C12.1973 10.3223 12.6074 10.2637 12.8418 9.92188C13.4277 9.14062 13.7695 7.98828 13.7695 6.83594C13.7695 5.68359 13.4277 4.54102 12.8418 3.75C12.6074 3.4082 12.1973 3.34961 11.9043 3.55469C11.5527 3.79883 11.4941 4.22852 11.7676 4.58984C12.1777 5.14648 12.4121 5.99609 12.4121 6.83594C12.4121 7.67578 12.168 8.51562 11.7676 9.08203C11.5039 9.45312 11.5527 9.87305 11.9043 10.127Z" fill="white" fill-opacity="0.85"/>
  <path d="M8.32031 13.6816C8.85742 13.6816 9.26758 13.291 9.26758 12.7441L9.26758 0.996094C9.26758 0.458984 8.85742 0.00976562 8.30078 0.00976562C7.91016 0.00976562 7.65625 0.175781 7.20703 0.595703L3.99414 3.58398C3.95508 3.62305 3.89648 3.65234 3.83789 3.65234L1.69922 3.65234C0.576172 3.65234 0 4.22852 0 5.43945L0 8.26172C0 9.46289 0.576172 10.0488 1.69922 10.0488L3.83789 10.0488C3.89648 10.0488 3.95508 10.0684 3.99414 10.1074L7.20703 13.1543C7.60742 13.5254 7.92969 13.6816 8.32031 13.6816Z" fill="white" fill-opacity="0.85"/>
 </g>
</svg>
