<?xml version="1.0" encoding="UTF-8"?>
<!--Generator: Apple Native CoreSVG 341-->
<!DOCTYPE svg
PUBLIC "-//W3C//DTD SVG 1.1//EN"
       "http://www.w3.org/Graphics/SVG/1.1/DTD/svg11.dtd">
<svg version="1.1" xmlns="http://www.w3.org/2000/svg" xmlns:xlink="http://www.w3.org/1999/xlink" viewBox="0 0 19.4238 13.6816">
 <g>
  <rect height="13.6816" opacity="0" width="19.4238" x="0" y="0"/>
  <path d="M12.4902 7.56836L18.2227 7.56836C18.7207 7.56836 19.0625 7.31445 19.0625 6.8457C19.0625 6.36719 18.7402 6.10352 18.2227 6.10352L12.4902 6.10352C11.9727 6.10352 11.6406 6.36719 11.6406 6.8457C11.6406 7.31445 11.9922 7.56836 12.4902 7.56836Z" fill="white" fill-opacity="0.85"/>
  <path d="M8.32031 13.6816C8.85742 13.6816 9.26758 13.291 9.26758 12.7441L9.26758 0.996094C9.26758 0.458984 8.85742 0.00976562 8.30078 0.00976562C7.91016 0.00976562 7.64648 0.175781 7.20703 0.595703L3.99414 3.58398C3.95508 3.62305 3.89648 3.65234 3.83789 3.65234L1.69922 3.65234C0.576172 3.65234 0 4.22852 0 5.43945L0 8.26172C0 9.46289 0.576172 10.0488 1.69922 10.0488L3.83789 10.0488C3.89648 10.0488 3.95508 10.0684 3.99414 10.1074L7.20703 13.1543C7.60742 13.5254 7.92969 13.6816 8.32031 13.6816Z" fill="white" fill-opacity="0.85"/>
 </g>
</svg>
