<svg version="1.1" xmlns="http://www.w3.org/2000/svg" xmlns:xlink="http://www.w3.org/1999/xlink" viewBox="0 0 16.1328 15.7715">
 <g>
  <rect height="15.7715" opacity="0" width="16.1328" x="0" y="0"/>
  <path d="M7.88086 15.7617C12.2363 15.7617 15.7715 12.2363 15.7715 7.88086C15.7715 3.52539 12.2363 0 7.88086 0C3.53516 0 0 3.52539 0 7.88086C0 12.2363 3.53516 15.7617 7.88086 15.7617ZM7.88086 14.2773C4.3457 14.2773 1.49414 11.416 1.49414 7.88086C1.49414 4.3457 4.3457 1.48438 7.88086 1.48438C11.416 1.48438 14.2773 4.3457 14.2773 7.88086C14.2773 11.416 11.416 14.2773 7.88086 14.2773Z" fill="var(--color-secondary)"/>
  <path d="M9.24805 11.5527C9.54102 11.5527 9.75586 11.3477 9.75586 11.0547L9.75586 4.75586C9.75586 4.46289 9.54102 4.22852 9.23828 4.22852C9.02344 4.22852 8.88672 4.31641 8.64258 4.54102L6.93359 6.14258C6.91406 6.16211 6.86523 6.17188 6.83594 6.17188L5.69336 6.17188C5.08789 6.17188 4.78516 6.48438 4.78516 7.12891L4.78516 8.65234C4.78516 9.29688 5.08789 9.60938 5.69336 9.60938L6.83594 9.60938C6.86523 9.60938 6.91406 9.61914 6.93359 9.63867L8.64258 11.2695C8.85742 11.4746 9.0332 11.5527 9.24805 11.5527Z" fill="var(--color-primary)"/>
 </g>
</svg>
