<?xml version="1.0" encoding="UTF-8"?>
<!--Generator: Apple Native CoreSVG 341-->
<!DOCTYPE svg
PUBLIC "-//W3C//DTD SVG 1.1//EN"
       "http://www.w3.org/Graphics/SVG/1.1/DTD/svg11.dtd">
<svg version="1.1" xmlns="http://www.w3.org/2000/svg" xmlns:xlink="http://www.w3.org/1999/xlink" viewBox="0 0 16.1328 15.7715">
 <g>
  <rect height="15.7715" opacity="0" width="16.1328" x="0" y="0"/>
  <path d="M15.7715 7.89062C15.7715 12.2363 12.2363 15.7715 7.88086 15.7715C3.53516 15.7715 0 12.2363 0 7.89062C0 3.54492 3.53516 0.00976562 7.88086 0.00976562C12.2363 0.00976562 15.7715 3.54492 15.7715 7.89062ZM7.02148 4.62891L5.35156 6.19141C5.32227 6.21094 5.2832 6.21094 5.25391 6.21094L4.14062 6.21094C3.55469 6.21094 3.24219 6.52344 3.24219 7.1582L3.24219 8.63281C3.24219 9.25781 3.55469 9.57031 4.14062 9.57031L5.25391 9.57031C5.2832 9.57031 5.32227 9.58008 5.35156 9.59961L7.02148 11.1914C7.22656 11.3867 7.40234 11.4648 7.60742 11.4648C7.89062 11.4648 8.10547 11.2598 8.10547 10.9766L8.10547 4.83398C8.10547 4.55078 7.89062 4.31641 7.58789 4.31641C7.39258 4.31641 7.25586 4.4043 7.02148 4.62891ZM10.752 5.04883C10.5273 5.20508 10.498 5.48828 10.6543 5.70312C11.0645 6.25977 11.2988 7.06055 11.2988 7.89062C11.2988 8.68164 11.0645 9.50195 10.6543 10.0586C10.4883 10.293 10.5176 10.5859 10.752 10.7227C10.9766 10.8594 11.2402 10.8008 11.377 10.6055C11.9043 9.82422 12.207 8.84766 12.207 7.89062C12.207 6.89453 11.9238 5.91797 11.377 5.17578C11.2207 4.95117 10.957 4.90234 10.752 5.04883ZM9.38477 6.09375C9.16016 6.26953 9.11133 6.54297 9.28711 6.77734C9.47266 7.03125 9.59961 7.45117 9.59961 7.89062C9.59961 8.31055 9.47266 8.7207 9.28711 9.00391C9.11133 9.24805 9.16016 9.51172 9.38477 9.67773C9.58008 9.83398 9.85352 9.76562 10.0098 9.57031C10.332 9.16016 10.5176 8.54492 10.5176 7.89062C10.5176 7.26562 10.3223 6.64062 10.0098 6.21094C9.86328 6.01562 9.58008 5.94727 9.38477 6.09375Z" fill="white" fill-opacity="0.85"/>
 </g>
</svg>
