<svg version="1.1" xmlns="http://www.w3.org/2000/svg" xmlns:xlink="http://www.w3.org/1999/xlink" viewBox="0 0 19.2871 13.6816">
 <g>
  <rect height="13.6816" opacity="0" width="19.2871" x="0" y="0"/>
  <path d="M16.0645 9.67773L16.0645 3.98438C16.0645 3.53516 15.7617 3.23242 15.3223 3.23242C14.8926 3.23242 14.5996 3.53516 14.5996 3.98438L14.5996 9.67773C14.5996 10.1172 14.8926 10.4199 15.3223 10.4199C15.7617 10.4199 16.0645 10.1172 16.0645 9.67773ZM12.5 7.55859L18.1836 7.55859C18.623 7.55859 18.9258 7.26562 18.9258 6.83594C18.9258 6.39648 18.623 6.09375 18.1836 6.09375L12.5 6.09375C12.041 6.09375 11.748 6.39648 11.748 6.83594C11.748 7.26562 12.0508 7.55859 12.5 7.55859Z" fill="var(--color-secondary)"/>
  <path d="M8.32031 13.6816C8.85742 13.6816 9.26758 13.291 9.26758 12.7441L9.26758 0.996094C9.26758 0.458984 8.85742 0.00976562 8.30078 0.00976562C7.91016 0.00976562 7.64648 0.175781 7.20703 0.595703L3.99414 3.58398C3.95508 3.62305 3.89648 3.65234 3.83789 3.65234L1.69922 3.65234C0.576172 3.65234 0 4.22852 0 5.43945L0 8.26172C0 9.46289 0.576172 10.0488 1.69922 10.0488L3.83789 10.0488C3.89648 10.0488 3.95508 10.0684 3.99414 10.1074L7.20703 13.1543C7.60742 13.5254 7.92969 13.6816 8.32031 13.6816Z" fill="var(--color-primary)"/>
 </g>
</svg>
