<?xml version="1.0" encoding="UTF-8"?>
<!--Generator: Apple Native CoreSVG 341-->
<!DOCTYPE svg
PUBLIC "-//W3C//DTD SVG 1.1//EN"
       "http://www.w3.org/Graphics/SVG/1.1/DTD/svg11.dtd">
<svg version="1.1" xmlns="http://www.w3.org/2000/svg" xmlns:xlink="http://www.w3.org/1999/xlink" viewBox="0 0 14.5117 16.1816">
 <g>
  <rect height="16.1816" opacity="0" width="14.5117" x="0" y="0"/>
  <path d="M0.576172 7.2168C0.888672 7.2168 1.15234 6.95312 1.15234 6.64062C1.15234 6.31836 0.888672 6.06445 0.576172 6.06445C0.263672 6.06445 0 6.31836 0 6.64062C0 6.95312 0.263672 7.2168 0.576172 7.2168ZM2.16797 2.51953C2.49023 2.51953 2.74414 2.26562 2.74414 1.94336C2.74414 1.63086 2.49023 1.36719 2.16797 1.36719C1.85547 1.36719 1.5918 1.63086 1.5918 1.94336C1.5918 2.26562 1.85547 2.51953 2.16797 2.51953ZM7.08008 1.15234C7.39258 1.15234 7.65625 0.888672 7.65625 0.576172C7.65625 0.253906 7.39258 0 7.08008 0C6.75781 0 6.50391 0.253906 6.50391 0.576172C6.50391 0.888672 6.75781 1.15234 7.08008 1.15234ZM11.9824 2.51953C12.3047 2.51953 12.5586 2.26562 12.5586 1.94336C12.5586 1.63086 12.3047 1.36719 11.9824 1.36719C11.6699 1.36719 11.4062 1.63086 11.4062 1.94336C11.4062 2.26562 11.6699 2.51953 11.9824 2.51953ZM13.5742 7.2168C13.8965 7.2168 14.1504 6.95312 14.1504 6.64062C14.1504 6.31836 13.8965 6.06445 13.5742 6.06445C13.2617 6.06445 12.998 6.31836 12.998 6.64062C12.998 6.95312 13.2617 7.2168 13.5742 7.2168Z" fill="white" fill-opacity="0.85"/>
  <path d="M2.90039 7.2168C3.22266 7.2168 3.47656 6.95312 3.47656 6.64062C3.47656 6.31836 3.22266 6.06445 2.90039 6.06445C2.58789 6.06445 2.32422 6.31836 2.32422 6.64062C2.32422 6.95312 2.58789 7.2168 2.90039 7.2168ZM3.81836 4.16992C4.13086 4.16992 4.39453 3.91602 4.39453 3.59375C4.39453 3.28125 4.13086 3.01758 3.81836 3.01758C3.50586 3.01758 3.24219 3.28125 3.24219 3.59375C3.24219 3.91602 3.50586 4.16992 3.81836 4.16992ZM7.08008 3.47656C7.39258 3.47656 7.65625 3.22266 7.65625 2.90039C7.65625 2.58789 7.39258 2.32422 7.08008 2.32422C6.75781 2.32422 6.50391 2.58789 6.50391 2.90039C6.50391 3.22266 6.75781 3.47656 7.08008 3.47656ZM10.332 4.16992C10.6543 4.16992 10.9082 3.91602 10.9082 3.59375C10.9082 3.28125 10.6543 3.01758 10.332 3.01758C10.0195 3.01758 9.75586 3.28125 9.75586 3.59375C9.75586 3.91602 10.0195 4.16992 10.332 4.16992ZM11.25 7.2168C11.5625 7.2168 11.8262 6.95312 11.8262 6.64062C11.8262 6.31836 11.5625 6.06445 11.25 6.06445C10.9375 6.06445 10.6738 6.31836 10.6738 6.64062C10.6738 6.95312 10.9375 7.2168 11.25 7.2168Z" fill="white" fill-opacity="0.85"/>
  <path d="M5.58594 7.68555L8.56445 7.68555C9.11133 7.68555 9.50195 7.29492 9.50195 6.75781L9.50195 6.24023C9.50195 5.36133 8.84766 4.74609 7.92969 4.74609L6.2207 4.74609C5.30273 4.74609 4.64844 5.36133 4.64844 6.24023L4.64844 6.75781C4.64844 7.29492 5.03906 7.68555 5.58594 7.68555ZM5.9668 6.61133C5.84961 6.61133 5.77148 6.5332 5.77148 6.41602L5.77148 6.24023C5.77148 5.9375 5.9375 5.82031 6.26953 5.82031L7.88086 5.82031C8.22266 5.82031 8.37891 5.9375 8.37891 6.24023L8.37891 6.41602C8.37891 6.5332 8.30078 6.61133 8.18359 6.61133ZM5.58594 11.416L8.56445 11.416C9.11133 11.416 9.50195 11.0352 9.50195 10.4785L9.50195 9.33594C9.50195 8.78906 9.11133 8.4082 8.56445 8.4082L5.58594 8.4082C5.03906 8.4082 4.64844 8.78906 4.64844 9.33594L4.64844 10.4785C4.64844 11.0352 5.03906 11.416 5.58594 11.416ZM5.92773 10.3418C5.80078 10.3418 5.73242 10.2637 5.73242 10.1465L5.73242 9.67773C5.73242 9.56055 5.80078 9.48242 5.92773 9.48242L8.23242 9.48242C8.34961 9.48242 8.42773 9.56055 8.42773 9.67773L8.42773 10.1465C8.42773 10.2637 8.34961 10.3418 8.23242 10.3418ZM5.67383 9.16016L6.83594 9.16016L6.83594 7.09961L5.67383 7.09961ZM7.32422 9.16016L8.47656 9.16016L8.47656 7.09961L7.32422 7.09961ZM5.48828 14.7168L6.65039 14.7168L6.65039 10.9863L5.48828 10.9863ZM7.50977 14.7168L8.66211 14.7168L8.66211 10.9863L7.50977 10.9863ZM0.849609 15.4395L13.3008 15.4395C13.6719 15.4395 13.9941 15.127 13.9941 14.7461C13.9941 14.3652 13.6719 14.0527 13.3008 14.0527L0.849609 14.0527C0.478516 14.0527 0.15625 14.3652 0.15625 14.7461C0.15625 15.127 0.478516 15.4395 0.849609 15.4395Z" fill="white" fill-opacity="0.85"/>
 </g>
</svg>
