<svg version="1.1" xmlns="http://www.w3.org/2000/svg" xmlns:xlink="http://www.w3.org/1999/xlink" viewBox="0 0 15.9375 13.4277">
 <g>
  <rect height="13.4277" opacity="0" width="15.9375" x="0" y="0"/>
  <path d="M7.73438 13.418L14.8633 13.418C15.2539 13.418 15.5762 13.1055 15.5762 12.7148C15.5762 12.3242 15.2539 12.0117 14.8633 12.0117L7.73438 12.0117C7.34375 12.0117 7.03125 12.3242 7.03125 12.7148C7.03125 13.1055 7.34375 13.418 7.73438 13.418Z" fill="var(--color-secondary)"/>
  <path d="M7.73438 9.41406L14.8633 9.41406C15.2539 9.41406 15.5762 9.10156 15.5762 8.71094C15.5762 8.32031 15.2539 8.00781 14.8633 8.00781L7.73438 8.00781C7.34375 8.00781 7.03125 8.32031 7.03125 8.71094C7.03125 9.10156 7.34375 9.41406 7.73438 9.41406Z" fill="var(--color-secondary)"/>
  <path d="M1.43555 13.418L3.87695 13.418C4.78516 13.418 5.32227 12.8906 5.32227 12.0215L5.32227 9.50195C5.32227 8.62305 4.78516 8.0957 3.87695 8.0957L1.43555 8.0957C0.537109 8.0957 0 8.62305 0 9.50195L0 12.0215C0 12.8906 0.537109 13.418 1.43555 13.418Z" fill="var(--color-primary)"/>
  <path d="M7.73438 5.41016L14.8633 5.41016C15.2539 5.41016 15.5762 5.09766 15.5762 4.70703C15.5762 4.31641 15.2539 4.00391 14.8633 4.00391L7.73438 4.00391C7.34375 4.00391 7.03125 4.31641 7.03125 4.70703C7.03125 5.09766 7.34375 5.41016 7.73438 5.41016Z" fill="var(--color-secondary)"/>
  <path d="M7.73438 1.40625L14.8633 1.40625C15.2539 1.40625 15.5762 1.09375 15.5762 0.703125C15.5762 0.3125 15.2539 0 14.8633 0L7.73438 0C7.34375 0 7.03125 0.3125 7.03125 0.703125C7.03125 1.09375 7.34375 1.40625 7.73438 1.40625Z" fill="var(--color-secondary)"/>
  <path d="M1.43555 5.32227L3.87695 5.32227C4.78516 5.32227 5.32227 4.79492 5.32227 3.91602L5.32227 1.39648C5.32227 0.527344 4.78516 0 3.87695 0L1.43555 0C0.537109 0 0 0.527344 0 1.39648L0 3.91602C0 4.79492 0.537109 5.32227 1.43555 5.32227Z" fill="var(--color-primary)"/>
 </g>
</svg>
