<?xml version="1.0" encoding="UTF-8"?>
<!--Generator: Apple Native CoreSVG 341-->
<!DOCTYPE svg
PUBLIC "-//W3C//DTD SVG 1.1//EN"
       "http://www.w3.org/Graphics/SVG/1.1/DTD/svg11.dtd">
<svg version="1.1" xmlns="http://www.w3.org/2000/svg" xmlns:xlink="http://www.w3.org/1999/xlink" viewBox="0 0 14.6387 14.3457">
 <g>
  <rect height="14.3457" opacity="0" width="14.6387" x="0" y="0"/>
  <path d="M2.83203 1.42578C3.22266 1.42578 3.54492 1.10352 3.54492 0.712891C3.54492 0.322266 3.22266 0 2.83203 0C2.44141 0 2.11914 0.322266 2.11914 0.712891C2.11914 1.10352 2.44141 1.42578 2.83203 1.42578ZM4.98047 1.42578C5.37109 1.42578 5.69336 1.10352 5.69336 0.712891C5.69336 0.322266 5.37109 0 4.98047 0C4.58984 0 4.26758 0.322266 4.26758 0.712891C4.26758 1.10352 4.58984 1.42578 4.98047 1.42578ZM7.12891 1.42578C7.51953 1.42578 7.8418 1.10352 7.8418 0.712891C7.8418 0.322266 7.51953 0 7.12891 0C6.73828 0 6.40625 0.322266 6.40625 0.712891C6.40625 1.10352 6.73828 1.42578 7.12891 1.42578ZM9.26758 1.42578C9.6582 1.42578 9.99023 1.10352 9.99023 0.712891C9.99023 0.322266 9.6582 0 9.26758 0C8.87695 0 8.55469 0.322266 8.55469 0.712891C8.55469 1.10352 8.87695 1.42578 9.26758 1.42578ZM11.416 1.42578C11.8066 1.42578 12.1289 1.10352 12.1289 0.712891C12.1289 0.322266 11.8066 0 11.416 0C11.0254 0 10.7031 0.322266 10.7031 0.712891C10.7031 1.10352 11.0254 1.42578 11.416 1.42578ZM13.5645 1.42578C13.9551 1.42578 14.2773 1.10352 14.2773 0.712891C14.2773 0.322266 13.9551 0 13.5645 0C13.1738 0 12.8516 0.322266 12.8516 0.712891C12.8516 1.10352 13.1738 1.42578 13.5645 1.42578ZM13.5645 3.57422C13.9551 3.57422 14.2773 3.25195 14.2773 2.86133C14.2773 2.4707 13.9551 2.14844 13.5645 2.14844C13.1738 2.14844 12.8516 2.4707 12.8516 2.86133C12.8516 3.25195 13.1738 3.57422 13.5645 3.57422ZM13.5645 5.72266C13.9551 5.72266 14.2773 5.39062 14.2773 5C14.2773 4.60938 13.9551 4.28711 13.5645 4.28711C13.1738 4.28711 12.8516 4.60938 12.8516 5C12.8516 5.39062 13.1738 5.72266 13.5645 5.72266ZM13.5645 7.86133C13.9551 7.86133 14.2773 7.53906 14.2773 7.14844C14.2773 6.75781 13.9551 6.43555 13.5645 6.43555C13.1738 6.43555 12.8516 6.75781 12.8516 7.14844C12.8516 7.53906 13.1738 7.86133 13.5645 7.86133ZM13.5645 10.0098C13.9551 10.0098 14.2773 9.6875 14.2773 9.29688C14.2773 8.90625 13.9551 8.58398 13.5645 8.58398C13.1738 8.58398 12.8516 8.90625 12.8516 9.29688C12.8516 9.6875 13.1738 10.0098 13.5645 10.0098ZM13.5645 12.1582C13.9551 12.1582 14.2773 11.8359 14.2773 11.4453C14.2773 11.0547 13.9551 10.7324 13.5645 10.7324C13.1738 10.7324 12.8516 11.0547 12.8516 11.4453C12.8516 11.8359 13.1738 12.1582 13.5645 12.1582ZM0.664062 14.2969L13.5742 14.2969C13.9648 14.2969 14.2773 13.9844 14.2773 13.5938C14.2773 13.2031 13.9648 12.8906 13.5742 12.8906L1.64062 12.8906C1.45508 12.8906 1.39648 12.832 1.39648 12.6562L1.39648 0.693359C1.39648 0.3125 1.09375 0 0.693359 0C0.3125 0 0 0.3125 0 0.693359L0 13.6328C0 14.0234 0.263672 14.2969 0.664062 14.2969Z" fill="white" fill-opacity="0.425"/>
  <path d="M6.2793 9.99023L4.25781 7.96875C4.00391 7.71484 3.61328 7.85156 3.53516 8.22266L2.99805 10.6836C2.92969 11.0254 3.23242 11.3086 3.56445 11.2305L6.03516 10.7129C6.41602 10.6445 6.54297 10.2637 6.2793 9.99023ZM3.7207 10.5078C3.94531 10.7227 4.26758 10.7129 4.47266 10.5078L10.4688 4.48242C10.6738 4.27734 10.6836 3.96484 10.4785 3.75C10.2637 3.54492 9.93164 3.55469 9.73633 3.75L3.73047 9.78516C3.53516 9.98047 3.52539 10.3027 3.7207 10.5078ZM8.00781 4.26758L10.0293 6.28906C10.2832 6.55273 10.6738 6.41602 10.752 6.04492L11.2891 3.58398C11.3574 3.24219 11.0645 2.94922 10.7227 3.03711L8.25195 3.55469C7.87109 3.62305 7.74414 4.00391 8.00781 4.26758Z" fill="white" fill-opacity="0.85"/>
 </g>
</svg>
