<?xml version="1.0" encoding="UTF-8"?>
<!--Generator: Apple Native CoreSVG 341-->
<!DOCTYPE svg
PUBLIC "-//W3C//DTD SVG 1.1//EN"
       "http://www.w3.org/Graphics/SVG/1.1/DTD/svg11.dtd">
<svg version="1.1" xmlns="http://www.w3.org/2000/svg" xmlns:xlink="http://www.w3.org/1999/xlink" viewBox="0 0 16.1328 15.7715">
 <g>
  <rect height="15.7715" opacity="0" width="16.1328" x="0" y="0"/>
  <path d="M7.88086 15.7715C12.2363 15.7715 15.7715 12.2363 15.7715 7.89062C15.7715 3.54492 12.2363 0.00976562 7.88086 0.00976562C3.53516 0.00976562 0 3.54492 0 7.89062C0 12.2363 3.53516 15.7715 7.88086 15.7715Z" fill="white" fill-opacity="0.2125"/>
  <path d="M5.60547 11.8652C4.57031 11.8652 3.92578 11.2207 3.92578 10.2051L3.92578 6.23047C3.92578 5.20508 4.57031 4.56055 5.60547 4.56055L9.33594 4.56055L8.42773 5.47852L5.61523 5.47852C5.13672 5.47852 4.84375 5.78125 4.84375 6.26953L4.84375 10.1562C4.84375 10.6348 5.13672 10.9473 5.61523 10.9473L9.67773 10.9473C10.0586 10.9473 10.3125 10.6348 10.3125 10.1562L10.3125 7.41211L11.2207 6.49414L11.2207 10.2051C11.2207 11.2207 10.6152 11.8652 9.6875 11.8652ZM6.71875 9.31641C6.55273 9.375 6.37695 9.20898 6.45508 9.05273L6.83594 8.24219L10.4297 4.64844L11.1719 5.37109L7.56836 8.97461ZM11.5332 5.00977L10.8008 4.25781L11.1523 3.91602C11.3281 3.75 11.6016 3.7207 11.7773 3.90625L11.8848 4.00391C12.0605 4.17969 12.0508 4.43359 11.875 4.61914Z" fill="white" fill-opacity="0.85"/>
 </g>
</svg>
