<?xml version="1.0" encoding="UTF-8"?>
<!--Generator: Apple Native CoreSVG 341-->
<!DOCTYPE svg
PUBLIC "-//W3C//DTD SVG 1.1//EN"
       "http://www.w3.org/Graphics/SVG/1.1/DTD/svg11.dtd">
<svg version="1.1" xmlns="http://www.w3.org/2000/svg" xmlns:xlink="http://www.w3.org/1999/xlink" viewBox="0 0 15.6348 17.6554">
 <g>
  <rect height="17.6554" opacity="0" width="15.6348" x="0" y="0"/>
  <path d="M9.01367 1.24469L9.01367 2.5931L7.58789 3.41566L7.58789 1.7232C7.58789 1.68414 7.55859 1.65484 7.5 1.68414L1.78711 4.98492C1.5332 5.13141 1.42578 5.24859 1.42578 5.60016L1.42578 12.1529C1.42578 12.2017 1.46484 12.2213 1.50391 12.192L3.03711 11.3091L3.03711 13.0075L2.03125 13.5884C0.830078 14.2818 0 13.8033 0 12.397L0 5.55133C0 4.67242 0.292969 4.15484 1.04492 3.72516L7.12891 0.209531C7.93945-0.249453 9.01367 0.0239844 9.01367 1.24469Z" fill="white" fill-opacity="0.425"/>
  <path d="M12.041 2.96344L12.041 4.61132L10.6152 5.43521L10.6152 3.45172C10.6152 3.41266 10.5859 3.37359 10.5371 3.41266L4.82422 6.70367C4.56055 6.85992 4.46289 6.97711 4.46289 7.32867L4.46289 13.8716C4.46289 13.9302 4.49219 13.94 4.54102 13.9107L6.25977 12.921L6.25977 14.6146L5.05859 15.3072C3.86719 16.0005 3.03711 15.5318 3.03711 14.1158L3.03711 7.27008C3.03711 6.40094 3.32031 5.88336 4.07227 5.44391L10.166 1.92828C10.9668 1.4693 12.041 1.74273 12.041 2.96344Z" fill="white" fill-opacity="0.425"/>
  <path d="M6.25977 9.17438L6.25977 16.0201C6.25977 17.4361 7.08984 17.9048 8.29102 17.2115L14.2188 13.7935C15.0391 13.3248 15.2734 12.8267 15.2734 11.9283L15.2734 4.86773C15.2734 3.64703 14.1992 3.37359 13.3887 3.83258L7.30469 7.3482C6.55273 7.78766 6.25977 8.30523 6.25977 9.17438ZM8.05664 8.60797L13.7695 5.31695C13.8184 5.28766 13.8477 5.31695 13.8477 5.35602L13.8477 11.899C13.8477 12.2115 13.7793 12.358 13.5059 12.5142L7.77344 15.8248C7.72461 15.8443 7.68555 15.8345 7.68555 15.7759L7.68555 9.23297C7.68555 8.88141 7.79297 8.76422 8.05664 8.60797Z" fill="white" fill-opacity="0.85"/>
 </g>
</svg>
