<svg version="1.1" xmlns="http://www.w3.org/2000/svg" xmlns:xlink="http://www.w3.org/1999/xlink" viewBox="0 0 15.6348 17.6554">
 <g>
  <rect height="17.6554" opacity="0" width="15.6348" x="0" y="0"/>
  <path d="M8.14453 0.209531L14.2285 3.72516C14.9805 4.15484 15.2734 4.67242 15.2734 5.55133L15.2734 12.397C15.2734 13.8033 14.4434 14.2818 13.2422 13.5884L12.2461 13.0131L12.2461 11.3147L13.7695 12.192C13.8184 12.2213 13.8477 12.2017 13.8477 12.1529L13.8477 5.60016C13.8477 5.24859 13.7402 5.13141 13.4863 4.98492L7.77344 1.68414C7.71484 1.65484 7.68555 1.68414 7.68555 1.7232L7.68555 3.41566L6.25977 2.5931L6.25977 1.24469C6.25977 0.0239844 7.34375-0.249453 8.14453 0.209531Z" fill="var(--color-secondary)"/>
  <path d="M5.10742 1.92828L11.2012 5.44391C11.9531 5.88336 12.2461 6.40094 12.2461 7.27008L12.2461 14.1158C12.2461 15.5318 11.416 16.0005 10.2148 15.3072L9.01367 14.6146L9.01367 12.921L10.7324 13.9107C10.7812 13.94 10.8105 13.9302 10.8105 13.8716L10.8105 7.32867C10.8105 6.97711 10.7129 6.85992 10.4492 6.70367L4.73633 3.41266C4.6875 3.37359 4.6582 3.41266 4.6582 3.45172L4.6582 5.43521L3.23242 4.61132L3.23242 2.96344C3.23242 1.74273 4.30664 1.4693 5.10742 1.92828Z" fill="var(--color-secondary)"/>
  <path d="M9.01367 9.17438C9.01367 8.30523 8.7207 7.78766 7.96875 7.3482L1.88477 3.83258C1.07422 3.37359 0 3.64703 0 4.86773L0 11.9283C0 12.8267 0.234375 13.3248 1.06445 13.7935L6.98242 17.2115C8.18359 17.9048 9.01367 17.4361 9.01367 16.0201ZM7.2168 8.60797C7.48047 8.76422 7.58789 8.88141 7.58789 9.23297L7.58789 15.7759C7.58789 15.8345 7.54883 15.8443 7.5 15.8248L1.76758 12.5142C1.49414 12.358 1.42578 12.2115 1.42578 11.899L1.42578 5.35602C1.42578 5.31695 1.45508 5.28766 1.51367 5.31695Z" fill="var(--color-primary)"/>
 </g>
</svg>
