<?xml version="1.0" encoding="UTF-8"?>
<!--Generator: Apple Native CoreSVG 341-->
<!DOCTYPE svg
PUBLIC "-//W3C//DTD SVG 1.1//EN"
       "http://www.w3.org/Graphics/SVG/1.1/DTD/svg11.dtd">
<svg version="1.1" xmlns="http://www.w3.org/2000/svg" xmlns:xlink="http://www.w3.org/1999/xlink" viewBox="0 0 14.1016 18.1934">
 <g>
  <rect height="18.1934" opacity="0" width="14.1016" x="0" y="0"/>
  <path d="M13.7402 8.24219L13.7402 14.1699C13.7402 16.25 12.5781 17.4023 10.498 17.4023L3.24219 17.4023C1.16211 17.4023 0 16.25 0 14.1699L0 8.24219C0 6.16211 1.16211 5 3.24219 5L6.17188 5L6.17188 10.6738C6.17188 11.0449 6.49414 11.3477 6.86523 11.3477C7.24609 11.3477 7.56836 11.0449 7.56836 10.6738L7.56836 5L10.498 5C12.5781 5 13.7402 6.16211 13.7402 8.24219Z" fill="white" fill-opacity="0.2125"/>
  <path d="M4.27734 3.70117C3.91602 3.70117 3.65234 3.4375 3.65234 3.08594C3.65234 2.90039 3.7207 2.75391 3.85742 2.62695L6.35742 0.234375C6.54297 0.0488281 6.68945 0 6.86523 0C7.05078 0 7.19727 0.0488281 7.37305 0.234375L9.88281 2.62695C10.0098 2.75391 10.0879 2.90039 10.0879 3.08594C10.0879 3.4375 9.81445 3.70117 9.45312 3.70117C9.27734 3.70117 9.10156 3.63281 8.97461 3.48633L7.90039 2.31445L6.86523 1.21094L5.83984 2.31445L4.75586 3.48633C4.63867 3.63281 4.44336 3.70117 4.27734 3.70117ZM6.86523 11.3477C6.49414 11.3477 6.17188 11.0449 6.17188 10.6738L6.17188 3.06641L6.28906 0.839844C6.30859 0.517578 6.55273 0.253906 6.86523 0.253906C7.1875 0.253906 7.43164 0.517578 7.45117 0.839844L7.56836 3.06641L7.56836 10.6738C7.56836 11.0449 7.24609 11.3477 6.86523 11.3477Z" fill="white" fill-opacity="0.85"/>
 </g>
</svg>
