<?xml version="1.0" encoding="UTF-8"?>
<!--Generator: Apple Native CoreSVG 341-->
<!DOCTYPE svg
PUBLIC "-//W3C//DTD SVG 1.1//EN"
       "http://www.w3.org/Graphics/SVG/1.1/DTD/svg11.dtd">
<svg version="1.1" xmlns="http://www.w3.org/2000/svg" xmlns:xlink="http://www.w3.org/1999/xlink" viewBox="0 0 16.3574 20.5176">
 <g>
  <rect height="20.5176" opacity="0" width="16.3574" x="0" y="0"/>
  <path d="M11.6088 2.29492L4.38726 2.29492C4.41186 1.58556 4.83789 1.19141 5.56641 1.19141L10.4297 1.19141C11.1582 1.19141 11.5842 1.58556 11.6088 2.29492Z" fill="white" fill-opacity="0.85"/>
  <path d="M13.2094 4.5969C12.9335 4.54621 12.6375 4.52148 12.3242 4.52148L3.68164 4.52148C3.36434 4.52148 3.06507 4.54642 2.78661 4.5976C2.87088 3.75876 3.42366 3.29102 4.3457 3.29102L11.6504 3.29102C12.5722 3.29102 13.1249 3.75849 13.2094 4.5969Z" fill="white" fill-opacity="0.85"/>
  <path d="M3.68164 19.3359L12.3242 19.3359C13.9844 19.3359 14.8145 18.5156 14.8145 16.875L14.8145 8.16406C14.8145 6.52344 13.9844 5.71289 12.3242 5.71289L3.68164 5.71289C2.01172 5.71289 1.19141 6.52344 1.19141 8.16406L1.19141 16.875C1.19141 18.5156 2.01172 19.3359 3.68164 19.3359Z" fill="white" fill-opacity="0.85"/>
 </g>
</svg>
