<?xml version="1.0" encoding="UTF-8"?>
<!--Generator: Apple Native CoreSVG 341-->
<!DOCTYPE svg
PUBLIC "-//W3C//DTD SVG 1.1//EN"
       "http://www.w3.org/Graphics/SVG/1.1/DTD/svg11.dtd">
<svg version="1.1" xmlns="http://www.w3.org/2000/svg" xmlns:xlink="http://www.w3.org/1999/xlink" viewBox="0 0 15.9668 17.4902">
 <g>
  <rect height="17.4902" opacity="0" width="15.9668" x="0" y="0"/>
  <path d="M0.927734 13.7891L6.875 17.2168C7.4707 17.5684 8.13477 17.5684 8.73047 17.2168L14.6777 13.7891C15.2637 13.4473 15.6055 12.8516 15.6055 12.1777L15.6055 5.30273C15.6055 4.62891 15.2637 4.0332 14.6777 3.69141L8.73047 0.263672C8.13477-0.0878906 7.4707-0.0878906 6.875 0.263672L0.927734 3.69141C0.341797 4.0332 0 4.62891 0 5.30273L0 12.1777C0 12.8516 0.341797 13.4473 0.927734 13.7891ZM1.40625 11.8945L1.40625 5.58594C1.40625 5.25391 1.58203 4.95117 1.875 4.77539L7.33398 1.63086C7.62695 1.45508 7.97852 1.45508 8.27148 1.63086L13.7207 4.77539C14.0234 4.95117 14.1992 5.25391 14.1992 5.58594L14.1992 11.8945C14.1992 12.2266 14.0234 12.5293 13.7207 12.7051L8.27148 15.8496C7.97852 16.0254 7.62695 16.0254 7.33398 15.8496L1.875 12.7051C1.58203 12.5293 1.40625 12.2266 1.40625 11.8945Z" fill="white" fill-opacity="0.425"/>
  <path d="M5.64453 12.7051L7.80273 11.123L9.95117 12.7051C10.4492 13.0762 10.9766 12.6855 10.7812 12.1094L9.92188 9.56055L12.0996 8.00781C12.5684 7.66602 12.4219 7.01172 11.7871 7.02148L9.12109 7.05078L8.30078 4.49219C8.125 3.92578 7.48047 3.92578 7.29492 4.49219L6.48438 7.05078L3.80859 7.02148C3.17383 7.01172 3.03711 7.66602 3.49609 8.00781L5.67383 9.56055L4.81445 12.1094C4.62891 12.6855 5.14648 13.0762 5.64453 12.7051Z" fill="white" fill-opacity="0.85"/>
 </g>
</svg>
