<?xml version="1.0" encoding="UTF-8"?>
<!--Generator: Apple Native CoreSVG 341-->
<!DOCTYPE svg
PUBLIC "-//W3C//DTD SVG 1.1//EN"
       "http://www.w3.org/Graphics/SVG/1.1/DTD/svg11.dtd">
<svg version="1.1" xmlns="http://www.w3.org/2000/svg" xmlns:xlink="http://www.w3.org/1999/xlink" viewBox="0 0 17.6172 17.2754">
 <g>
  <rect height="17.2754" opacity="0" width="17.6172" x="0" y="0"/>
  <path d="M8.63281 17.2656C13.3594 17.2656 17.2559 13.3691 17.2559 8.63281C17.2559 3.89648 13.3594 0 8.63281 0C3.89648 0 0 3.89648 0 8.63281C0 13.3691 3.89648 17.2656 8.63281 17.2656ZM8.63281 14.3555C5.46875 14.3555 2.91016 11.7969 2.91016 8.63281C2.91016 5.46875 5.46875 2.91016 8.63281 2.91016C11.7871 2.91016 14.3457 5.46875 14.3457 8.63281C14.3457 11.7969 11.7871 14.3555 8.63281 14.3555Z" fill="white" fill-opacity="0.425"/>
  <path d="M6.16211 12.0801L10.7129 12.0801C10.9668 12.0801 11.1719 11.9043 11.1719 11.6602C11.1719 11.4258 10.9668 11.2402 10.7129 11.2402L7.24609 11.2402L7.24609 11.2109C7.83203 10.957 8.10547 10.2832 8.10547 9.61914C8.10547 9.38477 8.0957 9.16016 8.04688 8.98438L9.96094 8.98438C10.166 8.98438 10.332 8.82812 10.332 8.64258C10.332 8.44727 10.166 8.30078 9.96094 8.30078L7.86133 8.30078C7.75391 7.83203 7.74414 7.61719 7.74414 7.37305C7.74414 6.49414 8.4375 6.03516 9.3457 6.03516C9.67773 6.03516 9.90234 6.07422 10.0781 6.11328C10.2246 6.14258 10.3613 6.17188 10.4688 6.17188C10.7031 6.17188 10.8496 6.04492 10.8496 5.81055C10.8496 5.58594 10.6738 5.43945 10.4883 5.37109C10.0586 5.21484 9.79492 5.18555 9.23828 5.18555C7.73438 5.18555 6.71875 6.01562 6.71875 7.40234C6.71875 7.66602 6.74805 7.93945 6.85547 8.30078L6.06445 8.30078C5.84961 8.30078 5.69336 8.44727 5.69336 8.64258C5.69336 8.82812 5.84961 8.98438 6.06445 8.98438L7.04102 8.98438C7.09961 9.21875 7.12891 9.45312 7.12891 9.64844C7.12891 10.3711 6.77734 10.8887 6.11328 11.1621C5.87891 11.25 5.72266 11.3867 5.72266 11.6406C5.72266 11.9043 5.89844 12.0801 6.16211 12.0801Z" fill="white" fill-opacity="0.85"/>
 </g>
</svg>
