<?xml version="1.0" encoding="UTF-8"?>
<!--Generator: Apple Native CoreSVG 341-->
<!DOCTYPE svg
PUBLIC "-//W3C//DTD SVG 1.1//EN"
       "http://www.w3.org/Graphics/SVG/1.1/DTD/svg11.dtd">
<svg version="1.1" xmlns="http://www.w3.org/2000/svg" xmlns:xlink="http://www.w3.org/1999/xlink" viewBox="0 0 11.1133 13.7598">
 <g>
  <rect height="13.7598" opacity="0" width="11.1133" x="0" y="0"/>
  <path d="M0.986328 13.7012L9.98047 13.7012C10.4297 13.7012 10.7715 13.418 10.7715 12.9688C10.7715 12.4902 10.4004 12.2168 9.98047 12.2168L2.8125 12.2168L2.8125 12.1777C4.0332 11.6992 4.60938 10.332 4.60938 8.92578C4.60938 8.38867 4.54102 7.93945 4.45312 7.5293L8.35938 7.5293C8.75 7.5293 9.05273 7.27539 9.05273 6.88477C9.05273 6.48438 8.75 6.23047 8.35938 6.23047L4.10156 6.23047C3.95508 5.69336 3.82812 5.08789 3.82812 4.30664C3.82812 2.49023 5.25391 1.5332 7.11914 1.5332C7.71484 1.5332 8.35938 1.61133 8.85742 1.74805C9.05273 1.78711 9.22852 1.81641 9.38477 1.81641C9.81445 1.81641 10.0684 1.57227 10.0684 1.15234C10.0684 0.732422 9.76562 0.507812 9.375 0.332031C8.60352 0.0390625 7.77344 0 6.97266 0C4.16016 0 2.05078 1.54297 2.05078 4.42383C2.05078 4.98047 2.1582 5.54688 2.31445 6.23047L0.693359 6.23047C0.302734 6.23047 0 6.48438 0 6.88477C0 7.29492 0.322266 7.5293 0.693359 7.5293L2.64648 7.5293C2.82227 8.125 2.88086 8.58398 2.88086 9.00391C2.88086 10.4297 2.11914 11.6211 0.742188 12.0605C0.3125 12.1973 0.0292969 12.4512 0.0292969 12.9395C0.0292969 13.4082 0.390625 13.7012 0.986328 13.7012Z" fill="white" fill-opacity="0.85"/>
 </g>
</svg>
