<?xml version="1.0" encoding="UTF-8"?>
<!--Generator: Apple Native CoreSVG 341-->
<!DOCTYPE svg
PUBLIC "-//W3C//DTD SVG 1.1//EN"
       "http://www.w3.org/Graphics/SVG/1.1/DTD/svg11.dtd">
<svg version="1.1" xmlns="http://www.w3.org/2000/svg" xmlns:xlink="http://www.w3.org/1999/xlink" viewBox="0 0 16.1328 15.7715">
 <g>
  <rect height="15.7715" opacity="0" width="16.1328" x="0" y="0"/>
  <path d="M7.88086 15.7617C12.2363 15.7617 15.7715 12.2266 15.7715 7.88086C15.7715 3.53516 12.2363 0 7.88086 0C3.53516 0 0 3.53516 0 7.88086C0 12.2266 3.53516 15.7617 7.88086 15.7617Z" fill="white" fill-opacity="0.2125"/>
  <path d="M3.48633 5.9082L4.59961 3.91602C4.78516 3.56445 5.12695 3.36914 5.52734 3.36914L10.1953 3.36914C10.5957 3.36914 10.9375 3.56445 11.123 3.91602L12.2363 5.9082ZM4.77539 7.68555C4.0332 7.68555 3.42773 7.1875 3.42773 6.68945L3.42773 6.50391L12.2949 6.50391L12.2949 6.5918C12.2949 7.08984 11.6895 7.68555 10.9473 7.68555C10.5273 7.68555 10.166 7.50977 9.91211 7.2168C9.67773 7.50977 9.30664 7.68555 8.88672 7.68555C8.4668 7.68555 8.11523 7.50977 7.86133 7.2168C7.61719 7.50977 7.25586 7.68555 6.83594 7.68555C6.41602 7.68555 6.05469 7.50977 5.81055 7.2168C5.55664 7.50977 5.19531 7.68555 4.77539 7.68555ZM4.81445 12.3926C4.22852 12.3926 3.86719 12.0508 3.86719 11.4648L3.86719 8.08594C4.14062 8.21289 4.45312 8.30078 4.78516 8.30078C5.16602 8.30078 5.52734 8.17383 5.82031 7.95898C6.09375 8.17383 6.45508 8.30078 6.8457 8.30078C7.22656 8.30078 7.58789 8.17383 7.87109 7.95898C8.1543 8.17383 8.51562 8.30078 8.88672 8.30078C9.28711 8.30078 9.63867 8.17383 9.92188 7.95898C10.2148 8.17383 10.5664 8.30078 10.9473 8.30078C11.2793 8.30078 11.6016 8.19336 11.8652 8.05664L11.8652 11.4648C11.8652 12.0508 11.5039 12.3926 10.918 12.3926ZM6.30859 11.5039L9.43359 11.5039L9.43359 9.41406C9.43359 9.21875 9.31641 9.0918 9.12109 9.0918L6.63086 9.0918C6.43555 9.0918 6.30859 9.21875 6.30859 9.41406Z" fill="white" fill-opacity="0.85"/>
 </g>
</svg>
