<?xml version="1.0" encoding="UTF-8"?>
<!--Generator: Apple Native CoreSVG 341-->
<!DOCTYPE svg
PUBLIC "-//W3C//DTD SVG 1.1//EN"
       "http://www.w3.org/Graphics/SVG/1.1/DTD/svg11.dtd">
<svg version="1.1" xmlns="http://www.w3.org/2000/svg" xmlns:xlink="http://www.w3.org/1999/xlink" viewBox="0 0 16.1328 15.7715">
 <g>
  <rect height="15.7715" opacity="0" width="16.1328" x="0" y="0"/>
  <path d="M7.88086 15.7617C12.2363 15.7617 15.7715 12.2363 15.7715 7.88086C15.7715 3.52539 12.2363 0 7.88086 0C3.53516 0 0 3.52539 0 7.88086C0 12.2363 3.53516 15.7617 7.88086 15.7617ZM7.88086 14.2773C4.3457 14.2773 1.49414 11.416 1.49414 7.88086C1.49414 4.3457 4.3457 1.48438 7.88086 1.48438C11.416 1.48438 14.2773 4.3457 14.2773 7.88086C14.2773 11.416 11.416 14.2773 7.88086 14.2773Z" fill="white" fill-opacity="0.85"/>
  <path d="M5.84961 5.49805L6.61133 5.49805L6.61133 4.96094C6.61133 4.67773 6.76758 4.53125 7.04102 4.53125L8.71094 4.53125C8.98438 4.53125 9.14062 4.67773 9.14062 4.96094L9.14062 5.48828L9.90234 5.48828L9.90234 4.88281C9.90234 4.11133 9.50195 3.76953 8.7793 3.76953L6.97266 3.76953C6.28906 3.76953 5.84961 4.11133 5.84961 4.88281ZM4.84375 11.123L4.84375 5.12695L4.69727 5.12695C3.88672 5.12695 3.49609 5.50781 3.49609 6.30859L3.49609 9.92188C3.49609 10.7227 3.88672 11.123 4.69727 11.123ZM5.54688 11.123L10.2051 11.123L10.2051 5.12695L5.54688 5.12695ZM10.9082 11.123L11.0547 11.123C11.875 11.123 12.2559 10.7227 12.2559 9.92188L12.2559 6.30859C12.2559 5.50781 11.875 5.12695 11.0547 5.12695L10.9082 5.12695Z" fill="white" fill-opacity="0.85"/>
 </g>
</svg>
