<svg version="1.1" xmlns="http://www.w3.org/2000/svg" xmlns:xlink="http://www.w3.org/1999/xlink" viewBox="0 0 16.1328 15.7715">
 <g>
  <rect height="15.7715" opacity="0" width="16.1328" x="0" y="0"/>
  <path d="M7.88086 15.7617C12.2363 15.7617 15.7715 12.2363 15.7715 7.88086C15.7715 3.52539 12.2363 0 7.88086 0C3.53516 0 0 3.52539 0 7.88086C0 12.2363 3.53516 15.7617 7.88086 15.7617ZM7.88086 14.2773C4.3457 14.2773 1.49414 11.416 1.49414 7.88086C1.49414 4.3457 4.3457 1.48438 7.88086 1.48438C11.416 1.48438 14.2773 4.3457 14.2773 7.88086C14.2773 11.416 11.416 14.2773 7.88086 14.2773Z" fill="var(--color-secondary)"/>
  <path d="M4.86328 9.95117L10.9082 9.95117L10.9082 5.87891C10.9082 5.19531 10.4199 4.7168 9.72656 4.7168L9.58984 4.7168L9.58984 3.59375C9.58984 2.97852 9.23828 2.63672 8.59375 2.63672L7.1875 2.63672C6.54297 2.63672 6.18164 2.97852 6.18164 3.59375L6.18164 4.7168L6.05469 4.7168C5.35156 4.7168 4.86328 5.19531 4.86328 5.87891ZM6.99219 4.7168L6.99219 3.69141C6.99219 3.53516 7.09961 3.44727 7.28516 3.44727L8.48633 3.44727C8.68164 3.44727 8.78906 3.53516 8.78906 3.69141L8.78906 4.7168ZM4.86328 10.6348L4.86328 11.0254C4.86328 11.5723 5.16602 12.0117 5.67383 12.1387L5.79102 12.1582L5.79102 12.3926C5.79102 12.5977 5.9375 12.7246 6.14258 12.7246L6.38672 12.7246C6.5918 12.7246 6.73828 12.5977 6.73828 12.3926L6.73828 12.1875L9.0332 12.1875L9.0332 12.3926C9.0332 12.5977 9.17969 12.7246 9.38477 12.7246L9.62891 12.7246C9.83398 12.7246 9.98047 12.5977 9.98047 12.3926L9.98047 12.1582L10.0977 12.1387C10.6055 12.0117 10.9082 11.5723 10.9082 11.0254L10.9082 10.6348Z" fill="var(--color-primary)"/>
 </g>
</svg>
