<svg version="1.1" xmlns="http://www.w3.org/2000/svg" xmlns:xlink="http://www.w3.org/1999/xlink" viewBox="0 0 17.373 19.1309">
 <g>
  <rect height="19.1309" opacity="0" width="17.373" x="0" y="0"/>
  <path d="M8.92578 1.75781L8.92578 3.98438L9.14062 3.98438C10.4688 3.98438 11.3965 4.89258 11.3965 6.20117L11.3965 8.82812L10.0391 8.82812L10.0391 6.2793C10.0391 5.72266 9.66797 5.3418 9.12109 5.3418L2.27539 5.3418C1.73828 5.3418 1.35742 5.72266 1.35742 6.2793L1.35742 13.7891L3.93555 13.7891L3.93555 15.1465L1.35742 15.1465L1.35742 15.7617C1.35742 16.3184 1.73828 16.6992 2.27539 16.6992L3.93555 16.6992L3.93555 17.8906C3.93555 17.9477 3.93836 18.0033 3.94483 18.0566L3.59375 18.0566L3.59375 18.3887C3.59375 18.8086 3.30078 19.082 2.88086 19.082L2.43164 19.082C2.01172 19.082 1.72852 18.8086 1.72852 18.3887L1.72852 18.0033C0.688144 17.7944 0 16.9571 0 15.8301L0 6.20117C0 4.89258 0.927734 3.98438 2.25586 3.98438L2.4707 3.98438L2.4707 1.75781C2.4707 0.732422 3.14453 0.0878906 4.21875 0.0878906L7.26562 0.0878906C8.29102 0.0878906 8.92578 0.732422 8.92578 1.75781ZM4.27734 1.32812C3.96484 1.32812 3.76953 1.48438 3.76953 1.74805L3.76953 3.98438L7.62695 3.98438L7.62695 1.74805C7.62695 1.48438 7.46094 1.32812 7.19727 1.32812Z" fill="var(--color-secondary)"/>
  <path d="M5.19531 19.1309L15.752 19.1309C16.5234 19.1309 17.0117 18.6426 17.0117 17.8906L17.0117 10.0781C17.0117 9.33594 16.5234 8.82812 15.752 8.82812L5.19531 8.82812C4.42383 8.82812 3.93555 9.33594 3.93555 10.0781L3.93555 17.8906C3.93555 18.6426 4.42383 19.1309 5.19531 19.1309ZM5.19531 10.918C5.05859 10.918 4.9707 10.8203 4.9707 10.7129L4.9707 10.166C4.9707 10.0293 5.05859 9.94141 5.19531 9.94141L5.81055 9.94141C5.9375 9.94141 6.01562 10.0293 6.01562 10.166L6.01562 10.7129C6.01562 10.8301 5.9375 10.918 5.81055 10.918ZM5.19531 12.7148C5.05859 12.7148 4.9707 12.6172 4.9707 12.5195L4.9707 11.9629C4.9707 11.8457 5.05859 11.748 5.19531 11.748L5.81055 11.748C5.9375 11.748 6.01562 11.8457 6.01562 11.9629L6.01562 12.5195C6.01562 12.627 5.9375 12.7148 5.81055 12.7148ZM5.19531 14.4727C5.05859 14.4727 4.9707 14.375 4.9707 14.248L4.9707 13.7305C4.9707 13.584 5.05859 13.4961 5.19531 13.4961L5.81055 13.4961C5.9375 13.4961 6.01562 13.5742 6.01562 13.7305L6.01562 14.248C6.01562 14.3848 5.9375 14.4727 5.81055 14.4727ZM5.19531 16.2207C5.05859 16.2207 4.9707 16.123 4.9707 16.0156L4.9707 15.4688C4.9707 15.3516 5.05859 15.2637 5.19531 15.2637L5.81055 15.2637C5.9375 15.2637 6.01562 15.3516 6.01562 15.4688L6.01562 16.0156C6.01562 16.1328 5.9375 16.2207 5.81055 16.2207ZM5.19531 18.0176C5.05859 18.0176 4.9707 17.9199 4.9707 17.8125L4.9707 17.2656C4.9707 17.1387 5.05859 17.0605 5.19531 17.0605L5.81055 17.0605C5.9375 17.0605 6.01562 17.1387 6.01562 17.2656L6.01562 17.8125C6.01562 17.9297 5.9375 18.0176 5.81055 18.0176ZM7.19727 13.418C7.07031 13.418 7.00195 13.3594 7.00195 13.2227L7.00195 10.1465C7.00195 10.0195 7.08008 9.94141 7.19727 9.94141L13.7402 9.94141C13.8672 9.94141 13.9355 10.0195 13.9355 10.1465L13.9355 13.2227C13.9355 13.3594 13.877 13.418 13.7402 13.418ZM7.19727 18.0176C7.08008 18.0176 7.00195 17.9395 7.00195 17.8223L7.00195 14.7656C7.00195 14.6289 7.07031 14.5605 7.19727 14.5605L13.7402 14.5605C13.8672 14.5605 13.9355 14.6289 13.9355 14.7656L13.9355 17.8223C13.9355 17.9395 13.8672 18.0176 13.7402 18.0176ZM15.1367 10.918C15.0195 10.918 14.9316 10.8203 14.9316 10.7129L14.9316 10.166C14.9316 10.0293 15.0195 9.94141 15.1367 9.94141L15.752 9.94141C15.8887 9.94141 15.9668 10.0293 15.9668 10.166L15.9668 10.7129C15.9668 10.8301 15.8887 10.918 15.752 10.918ZM15.1367 12.7148C15.0195 12.7148 14.9316 12.6172 14.9316 12.5195L14.9316 11.9629C14.9316 11.8457 15.0195 11.748 15.1367 11.748L15.752 11.748C15.8887 11.748 15.9668 11.8457 15.9668 11.9629L15.9668 12.5195C15.9668 12.627 15.8887 12.7148 15.752 12.7148ZM15.1367 14.4727C15.0195 14.4727 14.9316 14.375 14.9316 14.248L14.9316 13.7305C14.9316 13.584 15.0195 13.4961 15.1367 13.4961L15.752 13.4961C15.8887 13.4961 15.9668 13.5742 15.9668 13.7305L15.9668 14.248C15.9668 14.3848 15.8887 14.4727 15.752 14.4727ZM15.1367 16.2207C15.0195 16.2207 14.9316 16.123 14.9316 16.0156L14.9316 15.4688C14.9316 15.3516 15.0195 15.2637 15.1367 15.2637L15.752 15.2637C15.8887 15.2637 15.9668 15.3516 15.9668 15.4688L15.9668 16.0156C15.9668 16.1328 15.8887 16.2207 15.752 16.2207ZM15.1367 18.0176C15.0195 18.0176 14.9316 17.9199 14.9316 17.8125L14.9316 17.2656C14.9316 17.1387 15.0195 17.0605 15.1367 17.0605L15.752 17.0605C15.8887 17.0605 15.9668 17.1387 15.9668 17.2656L15.9668 17.8125C15.9668 17.9297 15.8887 18.0176 15.752 18.0176Z" fill="var(--color-primary)"/>
 </g>
</svg>
