<?xml version="1.0" encoding="UTF-8"?>
<!--Generator: Apple Native CoreSVG 341-->
<!DOCTYPE svg
PUBLIC "-//W3C//DTD SVG 1.1//EN"
       "http://www.w3.org/Graphics/SVG/1.1/DTD/svg11.dtd">
<svg version="1.1" xmlns="http://www.w3.org/2000/svg" xmlns:xlink="http://www.w3.org/1999/xlink" viewBox="0 0 15.6934 15.3418">
 <g>
  <rect height="15.3418" opacity="0" width="15.6934" x="0" y="0"/>
  <path d="M7.66602 1.71875C8.14453 1.71875 8.52539 1.33789 8.52539 0.859375C8.52539 0.380859 8.14453 0 7.66602 0C7.1875 0 6.80664 0.380859 6.80664 0.859375C6.80664 1.33789 7.1875 1.71875 7.66602 1.71875ZM12.4805 3.71094C12.959 3.71094 13.3398 3.33008 13.3398 2.85156C13.3398 2.37305 12.959 1.99219 12.4805 1.99219C12.002 1.99219 11.6211 2.37305 11.6211 2.85156C11.6211 3.33008 12.002 3.71094 12.4805 3.71094ZM14.4727 8.52539C14.9512 8.52539 15.332 8.14453 15.332 7.66602C15.332 7.1875 14.9512 6.80664 14.4727 6.80664C13.9941 6.80664 13.6133 7.1875 13.6133 7.66602C13.6133 8.14453 13.9941 8.52539 14.4727 8.52539ZM12.4805 13.3398C12.959 13.3398 13.3398 12.959 13.3398 12.4805C13.3398 12.002 12.959 11.6211 12.4805 11.6211C12.002 11.6211 11.6211 12.002 11.6211 12.4805C11.6211 12.959 12.002 13.3398 12.4805 13.3398ZM7.66602 15.332C8.14453 15.332 8.52539 14.9512 8.52539 14.4727C8.52539 13.9941 8.14453 13.6133 7.66602 13.6133C7.1875 13.6133 6.80664 13.9941 6.80664 14.4727C6.80664 14.9512 7.1875 15.332 7.66602 15.332ZM2.85156 13.3398C3.32031 13.3398 3.71094 12.959 3.71094 12.4805C3.71094 12.002 3.32031 11.6211 2.85156 11.6211C2.37305 11.6211 1.99219 12.002 1.99219 12.4805C1.99219 12.959 2.37305 13.3398 2.85156 13.3398ZM0.859375 8.52539C1.33789 8.52539 1.71875 8.14453 1.71875 7.66602C1.71875 7.1875 1.33789 6.80664 0.859375 6.80664C0.380859 6.80664 0 7.1875 0 7.66602C0 8.14453 0.380859 8.52539 0.859375 8.52539ZM2.85156 3.71094C3.32031 3.71094 3.71094 3.33008 3.71094 2.85156C3.71094 2.37305 3.32031 1.99219 2.85156 1.99219C2.37305 1.99219 1.99219 2.37305 1.99219 2.85156C1.99219 3.33008 2.37305 3.71094 2.85156 3.71094Z" fill="white" fill-opacity="0.85"/>
  <path d="M7.66602 11.6406C9.86328 11.6406 11.6406 9.86328 11.6406 7.66602C11.6406 5.46875 9.86328 3.69141 7.66602 3.69141C5.46875 3.69141 3.69141 5.46875 3.69141 7.66602C3.69141 9.86328 5.46875 11.6406 7.66602 11.6406Z" fill="white" fill-opacity="0.85"/>
 </g>
</svg>
