<?xml version="1.0" encoding="UTF-8"?>
<!--Generator: Apple Native CoreSVG 341-->
<!DOCTYPE svg
PUBLIC "-//W3C//DTD SVG 1.1//EN"
       "http://www.w3.org/Graphics/SVG/1.1/DTD/svg11.dtd">
<svg version="1.1" xmlns="http://www.w3.org/2000/svg" xmlns:xlink="http://www.w3.org/1999/xlink" viewBox="0 0 20.1074 18.4473">
 <g>
  <rect height="18.4473" opacity="0" width="20.1074" x="0" y="0"/>
  <path d="M14.0625 8.81836C14.0625 9.3176 13.9724 9.79882 13.8032 10.2441L5.94287 10.2441C5.77371 9.79882 5.68359 9.3176 5.68359 8.81836C5.68359 6.5332 7.58789 4.61914 9.87305 4.61914C12.1582 4.61914 14.0625 6.5332 14.0625 8.81836ZM4.29688 8.63281C4.30664 9.0332 3.95508 9.3457 3.50586 9.3457L1.83594 9.3457C1.37695 9.3457 1.04492 9.0332 1.04492 8.63281C1.04492 8.24219 1.37695 7.91992 1.83594 7.91992L3.50586 7.91992C3.95508 7.91992 4.28711 8.24219 4.29688 8.63281ZM18.7012 8.63281C18.7012 9.0332 18.3691 9.3457 17.9102 9.3457L16.2402 9.3457C15.791 9.3457 15.459 9.0332 15.4492 8.63281C15.4395 8.24219 15.791 7.91992 16.2402 7.91992L17.9102 7.91992C18.3691 7.91992 18.7012 8.24219 18.7012 8.63281ZM4.6875 2.63672L5.86914 3.81836C6.20117 4.14062 6.20117 4.60938 5.92773 4.88281C5.6543 5.16602 5.18555 5.15625 4.86328 4.83398L3.68164 3.65234C3.34961 3.32031 3.34961 2.86133 3.63281 2.58789C3.91602 2.32422 4.36523 2.31445 4.6875 2.63672ZM16.1133 2.58789C16.3867 2.87109 16.3965 3.32031 16.0645 3.65234L14.8828 4.83398C14.5605 5.15625 14.1016 5.15625 13.8184 4.88281C13.5352 4.61914 13.5449 4.14062 13.877 3.81836L15.0586 2.63672C15.3809 2.31445 15.8398 2.31445 16.1133 2.58789ZM10.5859 0.791016L10.5859 2.46094C10.5859 2.91992 10.2637 3.24219 9.87305 3.25195C9.48242 3.26172 9.16016 2.91992 9.16016 2.46094L9.16016 0.791016C9.16016 0.332031 9.48242 0 9.87305 0C10.2637 0 10.5859 0.332031 10.5859 0.791016Z" fill="white" fill-opacity="0.425"/>
  <path d="M1.58203 15.2246L17.0117 15.2246C17.3145 15.2246 17.5488 14.9902 17.5488 14.6777C17.5488 14.375 17.3145 14.1309 17.0117 14.1309L1.58203 14.1309C1.2793 14.1309 1.04492 14.375 1.04492 14.6777C1.04492 14.9902 1.2793 15.2246 1.58203 15.2246ZM2.73438 18.1641L18.1641 18.1641C18.4668 18.1641 18.7012 17.9297 18.7012 17.6172C18.7012 17.3145 18.4668 17.0703 18.1641 17.0703L2.73438 17.0703C2.43164 17.0703 2.19727 17.3145 2.19727 17.6172C2.19727 17.9297 2.43164 18.1641 2.73438 18.1641ZM2.73438 12.2852L18.1641 12.2852C18.4668 12.2852 18.7012 12.0508 18.7012 11.7383C18.7012 11.4355 18.4668 11.1914 18.1641 11.1914L2.73438 11.1914C2.43164 11.1914 2.19727 11.4355 2.19727 11.7383C2.19727 12.0508 2.43164 12.2852 2.73438 12.2852Z" fill="white" fill-opacity="0.85"/>
 </g>
</svg>
