<?xml version="1.0" encoding="UTF-8"?>
<!--Generator: Apple Native CoreSVG 341-->
<!DOCTYPE svg
PUBLIC "-//W3C//DTD SVG 1.1//EN"
       "http://www.w3.org/Graphics/SVG/1.1/DTD/svg11.dtd">
<svg version="1.1" xmlns="http://www.w3.org/2000/svg" xmlns:xlink="http://www.w3.org/1999/xlink" viewBox="0 0 22.2559 18.8965">
 <g>
  <rect height="18.8965" opacity="0" width="22.2559" x="0" y="0"/>
  <path d="M15.1367 13.75C15.1367 14.2563 15.0433 14.7443 14.8683 15.1953L7.01769 15.1953C6.84199 14.7443 6.74805 14.2563 6.74805 13.75C6.74805 11.4648 8.66211 9.54102 10.9473 9.54102C13.2324 9.54102 15.1367 11.4648 15.1367 13.75ZM5.37109 13.5645C5.38086 13.9551 5.0293 14.2773 4.57031 14.2773L2.90039 14.2773C2.44141 14.2773 2.11914 13.9551 2.11914 13.5645C2.11914 13.1641 2.44141 12.8516 2.90039 12.8516L4.57031 12.8516C5.0293 12.8516 5.36133 13.1641 5.37109 13.5645ZM19.7754 13.5645C19.7754 13.9551 19.4434 14.2773 18.9844 14.2773L17.3145 14.2773C16.8555 14.2773 16.5332 13.9551 16.5234 13.5645C16.5137 13.1641 16.8555 12.8516 17.3145 12.8516L18.9844 12.8516C19.4434 12.8516 19.7754 13.1641 19.7754 13.5645ZM5.76172 7.55859L6.94336 8.74023C7.27539 9.07227 7.27539 9.53125 7.00195 9.81445C6.72852 10.0977 6.25977 10.0879 5.92773 9.75586L4.75586 8.57422C4.42383 8.25195 4.42383 7.79297 4.70703 7.51953C4.99023 7.24609 5.43945 7.23633 5.76172 7.55859ZM17.1875 7.51953C17.4609 7.80273 17.4707 8.25195 17.1387 8.57422L15.957 9.75586C15.6348 10.0879 15.1758 10.0879 14.8926 9.81445C14.6094 9.54102 14.6191 9.07227 14.9414 8.74023L16.123 7.55859C16.4551 7.23633 16.9141 7.23633 17.1875 7.51953Z" fill="white" fill-opacity="0.425"/>
  <path d="M1.9043 17.5586L19.9902 17.5586C20.4004 17.5586 20.752 17.2363 20.752 16.8555C20.752 16.4648 20.4004 16.1523 19.9902 16.1523L1.9043 16.1523C1.48438 16.1523 1.14258 16.4648 1.14258 16.8555C1.14258 17.2363 1.48438 17.5586 1.9043 17.5586Z" fill="white" fill-opacity="0.85"/>
  <path d="M10.9473 6.74805L9.94141 5.47852L8.96484 4.50195C8.83789 4.38477 8.67188 4.30664 8.50586 4.30664C8.1543 4.30664 7.91016 4.54102 7.91016 4.88281C7.91016 5.05859 7.96875 5.19531 8.10547 5.32227L10.4883 7.50977C10.6738 7.67578 10.791 7.73438 10.957 7.73438C11.1133 7.73438 11.2402 7.67578 11.4258 7.50977L13.7988 5.32227C13.9453 5.19531 14.0039 5.05859 14.0039 4.88281C14.0039 4.54102 13.7598 4.30664 13.4082 4.30664C13.2422 4.30664 13.0664 4.38477 12.9492 4.50195L12.0605 5.39062ZM11.5332 6.41602L11.6602 4.89258L11.6602 2.10938C11.6602 1.67969 11.3281 1.32812 10.9473 1.32812C10.5566 1.32812 10.2344 1.67969 10.2344 2.10938L10.2344 4.89258L10.3516 6.41602C10.3809 6.74805 10.6152 7.01172 10.9473 7.01172C11.2695 7.01172 11.5137 6.74805 11.5332 6.41602Z" fill="white" fill-opacity="0.85"/>
 </g>
</svg>
