<?xml version="1.0" encoding="UTF-8"?>
<!--Generator: Apple Native CoreSVG 341-->
<!DOCTYPE svg
PUBLIC "-//W3C//DTD SVG 1.1//EN"
       "http://www.w3.org/Graphics/SVG/1.1/DTD/svg11.dtd">
<svg version="1.1" xmlns="http://www.w3.org/2000/svg" xmlns:xlink="http://www.w3.org/1999/xlink" viewBox="0 0 6.8457 18.1348">
 <g>
  <rect height="18.1348" opacity="0" width="6.8457" x="0" y="0"/>
  <path d="M3.24219 5.30273C4.70703 5.30273 5.89844 4.11133 5.89844 2.64648C5.89844 1.18164 4.70703 0 3.24219 0C1.77734 0 0.595703 1.18164 0.595703 2.64648C0.595703 4.11133 1.77734 5.30273 3.24219 5.30273ZM3.24219 4.16992C2.40234 4.16992 1.71875 3.49609 1.71875 2.64648C1.71875 1.80664 2.40234 1.12305 3.24219 1.12305C4.0918 1.12305 4.76562 1.80664 4.76562 2.64648C4.76562 3.49609 4.0918 4.16992 3.24219 4.16992ZM0.615234 6.20117L5.87891 6.20117C6.2207 6.20117 6.48438 5.92773 6.48438 5.58594C6.48438 5.24414 6.2207 4.98047 5.87891 4.98047L0.615234 4.98047C0.273438 4.98047 0 5.24414 0 5.58594C0 5.92773 0.273438 6.20117 0.615234 6.20117ZM0.615234 8.64258L5.87891 8.64258C6.2207 8.64258 6.48438 8.36914 6.48438 8.02734C6.48438 7.68555 6.2207 7.42188 5.87891 7.42188L0.615234 7.42188C0.273438 7.42188 0 7.68555 0 8.02734C0 8.36914 0.273438 8.64258 0.615234 8.64258ZM0.615234 11.0938L5.87891 11.0938C6.2207 11.0938 6.48438 10.8203 6.48438 10.4785C6.48438 10.1367 6.2207 9.86328 5.87891 9.86328L0.615234 9.86328C0.273438 9.86328 0 10.1367 0 10.4785C0 10.8203 0.273438 11.0938 0.615234 11.0938ZM1.03516 10.5078L1.03516 14.0039C1.03516 14.9414 1.51367 15.4102 2.41211 15.4102L4.07227 15.4102C4.98047 15.4102 5.44922 14.9414 5.44922 14.0039L5.44922 10.5078ZM3.24219 18.1348C4.19922 18.1348 4.96094 17.373 4.96094 16.416C4.96094 15.4688 4.19922 14.6973 3.24219 14.6973C2.29492 14.6973 1.52344 15.4688 1.52344 16.416C1.52344 17.373 2.29492 18.1348 3.24219 18.1348ZM3.24219 17.0312C2.91016 17.0312 2.62695 16.7578 2.62695 16.416C2.62695 16.084 2.91016 15.8008 3.24219 15.8008C3.58398 15.8008 3.85742 16.084 3.85742 16.416C3.85742 16.7578 3.58398 17.0312 3.24219 17.0312Z" fill="white" fill-opacity="0.85"/>
 </g>
</svg>
