<?xml version="1.0" encoding="UTF-8"?>
<!--Generator: Apple Native CoreSVG 341-->
<!DOCTYPE svg
PUBLIC "-//W3C//DTD SVG 1.1//EN"
       "http://www.w3.org/Graphics/SVG/1.1/DTD/svg11.dtd">
<svg version="1.1" xmlns="http://www.w3.org/2000/svg" xmlns:xlink="http://www.w3.org/1999/xlink" viewBox="0 0 25.9668 21.6797">
 <g>
  <rect height="21.6797" opacity="0" width="25.9668" x="0" y="0"/>
  <path d="M7.61719 14.9854C7.61719 16.0303 6.78711 16.8604 5.73242 16.8604C4.69727 16.8604 3.85742 16.0205 3.85742 14.9854C3.85742 13.9405 4.69727 13.1104 5.73242 13.1104C6.78711 13.1104 7.61719 13.9405 7.61719 14.9854ZM22.1094 14.9854C22.1094 15.7719 21.6301 16.4457 20.9367 16.7229L18.4906 14.2768C18.7718 13.5925 19.4477 13.1104 20.2246 13.1104C21.2793 13.1104 22.1094 13.9405 22.1094 14.9854ZM15.1238 15.5225L8.50586 15.5225C8.54492 15.4053 8.57422 15.2295 8.57422 14.9854C8.57422 13.4131 7.37305 12.1533 5.73242 12.1533C4.19922 12.1533 2.90039 13.3448 2.90039 14.9561C2.90039 15.1416 2.91016 15.3076 2.94922 15.5225L1.9043 15.5225C0.722656 15.5225 0 14.7803 0 13.5694L0 12.3487C0 10.3369 1.23047 9.19436 3.73047 8.88186L6.39648 8.54983L7.46946 7.87236ZM24.3652 7.05569L24.6973 7.52444C25.2734 8.34475 25.6055 9.41897 25.6055 10.3174L25.6055 13.3252C25.6055 14.8487 25.0195 15.5225 23.7012 15.5225L23.0176 15.5225C23.0566 15.3565 23.0664 15.1416 23.0664 14.9854C23.0664 13.4131 21.8652 12.1533 20.2246 12.1533C19.1853 12.1533 18.2582 12.7008 17.7702 13.5564L10.348 6.13417C11.6272 5.52071 12.8683 5.34671 15.1953 5.34671L20.8008 5.34671C22.5195 5.34671 23.5059 5.84475 24.3652 7.05569Z" fill="white" fill-opacity="0.425"/>
  <path d="M23.3789 2.39749L23.3789 3.13968C23.3789 3.78421 23.0176 4.20413 22.3828 4.20413L12.8809 4.20413C12.207 4.20413 11.9238 3.89163 11.9238 3.32522C11.9238 2.96389 12.0996 2.58304 12.6074 2.38772L14.2773 1.73343C16.1328 1.01077 17.2949 0.620145 18.7207 0.620145L21.4355 0.620145C22.7734 0.620145 23.3789 1.21585 23.3789 2.39749Z" fill="white" fill-opacity="0.425"/>
  <path d="M21.4941 20.5225C21.7578 20.7862 22.1875 20.7862 22.4414 20.5225C22.6953 20.2588 22.7051 19.8389 22.4414 19.5752L4.76562 1.89944C4.49219 1.626 4.07227 1.63577 3.80859 1.89944C3.55469 2.15335 3.54492 2.58304 3.80859 2.84671Z" fill="white" fill-opacity="0.85"/>
 </g>
</svg>
