<?xml version="1.0" encoding="UTF-8"?>
<!--Generator: Apple Native CoreSVG 341-->
<!DOCTYPE svg
PUBLIC "-//W3C//DTD SVG 1.1//EN"
       "http://www.w3.org/Graphics/SVG/1.1/DTD/svg11.dtd">
<svg version="1.1" xmlns="http://www.w3.org/2000/svg" xmlns:xlink="http://www.w3.org/1999/xlink" viewBox="0 0 26.5416 21.7723">
 <g>
  <rect height="21.7723" opacity="0" width="26.5416" x="0" y="0"/>
  <path d="M10.4974 15.8519C11.2884 15.4027 11.5618 14.4164 11.1028 13.6156C10.6438 12.8344 9.64774 12.5707 8.86649 13.0199C8.07548 13.4789 7.81181 14.475 8.26102 15.2562C8.72001 16.0375 9.7161 16.3109 10.4974 15.8519ZM21.3958 9.56288C22.1868 9.11367 22.4505 8.10781 22.0013 7.32656C21.5423 6.54531 20.5462 6.27187 19.7649 6.73085C18.9837 7.18007 18.72 8.18593 19.1692 8.96718C19.6184 9.74843 20.6145 10.0121 21.3958 9.56288ZM20.7024 0.578509L20.2532 0.363665C19.0716-0.192975 18.1048-0.11485 16.8157 0.627337L12.5872 3.06874C10.3509 4.35781 9.57938 5.09999 8.72001 6.71132L7.34306 9.32851L5.47782 10.725C3.72977 12.0434 3.29032 13.4496 4.16923 14.9633L4.70634 15.891C5.23368 16.7992 6.10282 17.0434 6.99149 16.5355L7.8704 16.0277C7.77274 15.9105 7.67509 15.7836 7.59696 15.6469C6.9329 14.4945 7.32352 13.0199 8.47587 12.3461C9.62821 11.682 11.1028 12.0824 11.7669 13.2348C11.8548 13.3715 11.9134 13.518 11.9622 13.6644L18.7688 9.73867C18.6712 9.62148 18.5735 9.49452 18.4954 9.34804C17.8313 8.20546 18.2317 6.72109 19.3743 6.05702C20.5266 5.39296 22.0013 5.78359 22.6751 6.93593C22.7532 7.08242 22.8216 7.2289 22.8606 7.37538L23.4368 7.04335C24.4329 6.46718 24.5794 5.70546 23.9056 4.55312L22.597 2.28749C22.2063 1.6039 21.4934 0.949603 20.7024 0.578509Z" fill="white" fill-opacity="0.85"/>
  <path d="M4.76493 21.3695C4.97001 21.7113 5.3997 21.8187 5.72196 21.643L25.8391 10.0219C26.1614 9.83632 26.2884 9.39687 26.0931 9.0746C25.8977 8.72304 25.4583 8.62538 25.136 8.80117L5.01884 20.4223C4.69657 20.598 4.57938 21.0375 4.76493 21.3695Z" fill="white" fill-opacity="0.85"/>
  <path d="M3.62235 17.5023L1.9329 14.5629C1.63017 14.0258 1.01493 14.1723 0.858681 14.6801L0.0383686 17.141C-0.0788189 17.5023 0.0774311 17.766 0.438759 17.8441L2.96806 18.3715C3.51493 18.4789 3.92509 18.0199 3.62235 17.5023Z" fill="white" fill-opacity="0.85"/>
 </g>
</svg>
