<svg version="1.1" xmlns="http://www.w3.org/2000/svg" xmlns:xlink="http://www.w3.org/1999/xlink" viewBox="0 0 18.1398 17.4902">
 <g>
  <rect height="17.4902" opacity="0" width="18.1398" x="0" y="0"/>
  <path d="M0.183179 17.3145C0.417554 17.5391 0.778882 17.5293 1.02302 17.2949L4.31404 14.0039L3.47419 13.1738L0.183179 16.4648C-0.0511963 16.6992-0.0707276 17.0801 0.183179 17.3145ZM2.82966 13.2129L4.31404 14.6875C5.12458 15.4883 6.24763 15.459 7.09724 14.5996L15.1441 6.5625L14.148 5.56641L6.12068 13.5938C5.84724 13.8672 5.48591 13.8477 5.19294 13.5645L3.94294 12.3242C3.65974 12.041 3.65974 11.6699 3.94294 11.3965L11.9605 3.37891L10.9547 2.37305L2.91755 10.4199C2.03865 11.3086 2.00935 12.4121 2.82966 13.2129ZM4.07966 9.67773L5.98396 11.5918C6.14998 11.748 6.38435 11.748 6.5406 11.582C6.68708 11.4258 6.67732 11.1914 6.53083 11.0352L4.61677 9.13086ZM5.67146 8.0957L7.57576 10.0098C7.73201 10.1563 7.97615 10.1563 8.1324 10.0098C8.27888 9.85352 8.26912 9.60938 8.12263 9.45313L6.20857 7.54883ZM7.26326 6.49414L9.16755 8.41797C9.3238 8.56445 9.56794 8.56445 9.72419 8.41797C9.87068 8.26172 9.87068 8.01758 9.71443 7.85156L7.80037 5.94727ZM8.85505 4.91211L10.7594 6.82617C10.9156 6.97266 11.15 6.97266 11.3062 6.82617C11.4625 6.68945 11.4527 6.42578 11.3062 6.26953L9.39216 4.36523ZM9.60701 2.09961L15.4273 7.92969C15.7008 8.20313 16.15 8.20313 16.4234 7.92969C16.6969 7.65625 16.6969 7.20703 16.4234 6.93359L10.6031 1.10352C10.3101 0.820313 9.88044 0.830078 9.60701 1.10352C9.33357 1.37695 9.31404 1.80664 9.60701 2.09961ZM11.1597 2.1875L15.3297 6.37695L15.857 5.83984C16.1304 5.57617 16.1402 5.11719 15.857 4.85352L14.8219 3.81836L15.6812 2.96875L16.5797 3.85742C16.8531 4.13086 17.3023 4.13086 17.5758 3.85742C17.8394 3.58398 17.8394 3.13477 17.5758 2.86133L14.9097 0.205078C14.6363-0.0683594 14.1871-0.0683594 13.9136 0.205078C13.6402 0.478516 13.6402 0.927734 13.9136 1.20117L14.8121 2.09961L13.9625 2.94922L12.6734 1.66992C12.4 1.39648 11.9508 1.39648 11.6773 1.66992Z" fill="var(--color-primary)"/>
 </g>
</svg>
