<?xml version="1.0" encoding="UTF-8"?>
<!--Generator: Apple Native CoreSVG 341-->
<!DOCTYPE svg
PUBLIC "-//W3C//DTD SVG 1.1//EN"
       "http://www.w3.org/Graphics/SVG/1.1/DTD/svg11.dtd">
<svg version="1.1" xmlns="http://www.w3.org/2000/svg" xmlns:xlink="http://www.w3.org/1999/xlink" viewBox="0 0 17.5879 17.9395">
 <g>
  <rect height="17.9395" opacity="0" width="17.5879" x="0" y="0"/>
  <path d="M11.6128 14.6145L9.15041 17.0801C8.01759 18.2227 6.86525 18.2324 5.69337 17.0703L0.869156 12.2461C-0.302719 11.0938-0.273422 9.92188 0.859391 8.78906L3.31729 6.33116ZM14.6777 1.51367L16.416 3.26172C17.002 3.83789 17.2266 4.10156 17.2266 4.96094L17.2266 7.87109C17.2266 8.67188 17.1875 9.0332 16.582 9.63867L13.9169 12.3074L5.62594 4.02252L8.3008 1.34766C8.90627 0.742188 9.26759 0.712891 10.0684 0.712891L12.9785 0.712891C13.8281 0.712891 14.1016 0.9375 14.6777 1.51367ZM10.5567 5.86914C10.5567 6.49414 11.0352 6.99219 11.6699 6.99219C12.3145 6.99219 12.793 6.49414 12.793 5.86914C12.793 5.25391 12.3145 4.75586 11.6699 4.75586C11.0352 4.75586 10.5567 5.25391 10.5567 5.86914Z" fill="white" fill-opacity="0.425"/>
  <path d="M14.7949 16.4453C15.0586 16.709 15.4883 16.709 15.7422 16.4453C15.9961 16.1816 16.0059 15.7617 15.7422 15.498L2.44142 2.1875C2.17775 1.92383 1.74806 1.92383 1.48439 2.1875C1.23048 2.44141 1.23048 2.89062 1.48439 3.14453Z" fill="white" fill-opacity="0.85"/>
 </g>
</svg>
