<?xml version="1.0" encoding="UTF-8"?>
<!--Generator: Apple Native CoreSVG 341-->
<!DOCTYPE svg
PUBLIC "-//W3C//DTD SVG 1.1//EN"
       "http://www.w3.org/Graphics/SVG/1.1/DTD/svg11.dtd">
<svg version="1.1" xmlns="http://www.w3.org/2000/svg" xmlns:xlink="http://www.w3.org/1999/xlink" viewBox="0 0 16.8395 19.3848">
 <g>
  <rect height="19.3848" opacity="0" width="16.8395" x="0" y="0"/>
  <path d="M8.2342 11.1719C11.2029 11.1719 13.6346 8.75 13.6346 5.77148C13.6346 5.71289 13.6248 5.60547 13.6248 5.52734C14.9139 5.3418 15.8612 4.21875 15.8612 2.89062C15.8612 1.39648 14.6307 0.175781 13.1365 0.175781C12.326 0.175781 11.5545 0.537109 11.0467 1.16211C10.1971 0.644531 9.21076 0.371094 8.2342 0.371094C7.24787 0.371094 6.27131 0.644531 5.41193 1.16211C4.91389 0.537109 4.1424 0.175781 3.33185 0.175781C1.82795 0.175781 0.597479 1.39648 0.597479 2.89062C0.597479 4.21875 1.55451 5.3418 2.84357 5.52734C2.83381 5.60547 2.82404 5.71289 2.82404 5.77148C2.82404 8.75 5.25568 11.1719 8.2342 11.1719ZM8.2342 9.92188C5.93928 9.92188 4.07404 8.05664 4.07404 5.77148C4.07404 5.52734 4.08381 5.13672 4.28889 4.42383L4.19123 4.32617C3.88849 4.4043 3.59553 4.42383 3.33185 4.42383C2.50178 4.42383 1.82795 3.75 1.82795 2.91992C1.82795 2.09961 2.50178 1.42578 3.33185 1.42578C4.1424 1.42578 4.80646 2.08008 4.81623 2.89062C4.81623 2.94922 4.81623 3.04688 4.80646 3.11523L4.99201 3.17383C5.83185 2.1582 6.96467 1.61133 8.2342 1.61133C9.49396 1.61133 10.6365 2.1582 11.4764 3.17383L11.6619 3.11523C11.6522 3.04688 11.6424 2.94922 11.6424 2.89062C11.6619 2.08008 12.326 1.42578 13.1365 1.42578C13.9666 1.42578 14.6404 2.09961 14.6404 2.91992C14.6404 3.75 13.9666 4.42383 13.1365 4.42383C12.8631 4.42383 12.5701 4.4043 12.2772 4.32617L12.1697 4.42383C12.3846 5.13672 12.3846 5.52734 12.3846 5.77148C12.3846 8.05664 10.5194 9.92188 8.2342 9.92188ZM8.25373 10.9375C9.70881 10.9375 10.91 9.74609 10.91 8.28125C10.91 6.81641 9.71857 5.625 8.25373 5.625C6.78889 5.625 5.58771 6.82617 5.58771 8.28125C5.58771 9.75586 6.77912 10.9375 8.25373 10.9375ZM8.25373 9.87305C7.37482 9.87305 6.66193 9.16016 6.66193 8.28125C6.66193 7.41211 7.37482 6.69922 8.25373 6.69922C9.12287 6.69922 9.83576 7.41211 9.83576 8.28125C9.83576 9.16016 9.12287 9.87305 8.25373 9.87305ZM6.36896 5.43945C6.74982 5.43945 7.06232 5.12695 7.06232 4.74609C7.06232 4.36523 6.74982 4.04297 6.36896 4.04297C6.00764 4.04297 5.68537 4.36523 5.68537 4.74609C5.68537 5.12695 6.00764 5.43945 6.36896 5.43945ZM10.0994 5.43945C10.4705 5.43945 10.783 5.12695 10.783 4.74609C10.783 4.36523 10.4705 4.04297 10.0994 4.04297C9.72834 4.04297 9.40607 4.36523 9.40607 4.74609C9.40607 5.12695 9.72834 5.43945 10.0994 5.43945ZM8.2342 8.50586C8.66389 8.50586 9.31818 7.88086 9.31818 7.71484C9.31818 7.43164 8.84943 7.03125 8.2342 7.03125C7.59943 7.03125 7.13068 7.43164 7.13068 7.71484C7.13068 7.88086 7.80451 8.50586 8.2342 8.50586ZM4.78693 19.3848C6.42756 19.3848 7.71662 17.6953 7.71662 15.5859C7.71662 13.4961 6.42756 11.8066 4.78693 11.8066C3.13654 11.8066 1.84748 13.4961 1.84748 15.5859C1.84748 17.6953 3.13654 19.3848 4.78693 19.3848ZM4.78693 18.0762C3.91779 18.0762 3.16584 16.9531 3.16584 15.5859C3.16584 14.2285 3.91779 13.1152 4.78693 13.1152C5.64631 13.1152 6.39826 14.2285 6.39826 15.5859C6.39826 16.9531 5.64631 18.0762 4.78693 18.0762ZM11.701 19.3848C13.3416 19.3848 14.6307 17.6953 14.6307 15.5859C14.6307 13.4961 13.3416 11.8066 11.701 11.8066C10.0506 11.8066 8.76154 13.4961 8.76154 15.5859C8.76154 17.6953 10.0506 19.3848 11.701 19.3848ZM11.701 18.0762C10.8319 18.0762 10.0799 16.9531 10.0799 15.5859C10.0799 14.2285 10.8319 13.1152 11.701 13.1152C12.5604 13.1152 13.3123 14.2285 13.3123 15.5859C13.3123 16.9531 12.5604 18.0762 11.701 18.0762ZM2.79474 14.9512L2.80451 13.7207C2.21857 13.7402 1.6424 13.4375 1.38849 12.8613C1.0467 12.1191 1.33967 11.25 2.11115 10.8984L4.88459 9.62891L4.36701 8.50586L1.58381 9.76562C0.206854 10.3906-0.379083 12.0312 0.255682 13.3887C0.724432 14.4043 1.74006 14.9805 2.79474 14.9512ZM13.6834 14.9512C14.7479 14.9805 15.7537 14.4043 16.2225 13.3887C16.8572 12.0312 16.2713 10.3906 14.9041 9.76562L12.1209 8.50586L11.6033 9.62891L14.3768 10.8984C15.1483 11.25 15.4315 12.1191 15.0994 12.8613C14.8455 13.4375 14.2596 13.7402 13.6737 13.7207ZM6.13459 18.3691C7.58967 18.6914 8.84943 18.6914 10.3045 18.3691L10.0897 17.1289C8.84943 17.4414 7.58967 17.4414 6.34943 17.1289Z" fill="white" fill-opacity="0.85"/>
 </g>
</svg>
