<svg version="1.1" xmlns="http://www.w3.org/2000/svg" xmlns:xlink="http://www.w3.org/1999/xlink" viewBox="0 0 10.8203 14.1699">
 <g>
  <rect height="14.1699" opacity="0" width="10.8203" x="0" y="0"/>
  <path d="M5.25391 14.1504C5.79102 14.1504 6.12305 13.8086 6.12305 13.252L6.12305 4.19922L9.70703 4.19922C10.166 4.19922 10.459 3.91602 10.459 3.47656C10.459 3.03711 10.166 2.77344 9.70703 2.77344L0.791016 2.77344C0.332031 2.77344 0.0390625 3.03711 0.0390625 3.47656C0.0390625 3.91602 0.332031 4.19922 0.791016 4.19922L4.38477 4.19922L4.38477 13.252C4.38477 13.8086 4.7168 14.1504 5.25391 14.1504ZM0 0.566406C0 0.898438 0.244141 1.13281 0.576172 1.13281L9.88281 1.13281C10.2148 1.13281 10.459 0.888672 10.459 0.566406C10.459 0.244141 10.2148 0 9.88281 0L0.576172 0C0.244141 0 0 0.244141 0 0.566406Z" fill="var(--color-primary)"/>
 </g>
</svg>
