<?xml version="1.0" encoding="UTF-8"?>
<!--Generator: Apple Native CoreSVG 341-->
<!DOCTYPE svg
PUBLIC "-//W3C//DTD SVG 1.1//EN"
       "http://www.w3.org/Graphics/SVG/1.1/DTD/svg11.dtd">
<svg version="1.1" xmlns="http://www.w3.org/2000/svg" xmlns:xlink="http://www.w3.org/1999/xlink" viewBox="0 0 16.1328 15.7715">
 <g>
  <rect height="15.7715" opacity="0" width="16.1328" x="0" y="0"/>
  <path d="M7.88086 15.7617C12.2363 15.7617 15.7715 12.2363 15.7715 7.88086C15.7715 3.52539 12.2363 0 7.88086 0C3.53516 0 0 3.52539 0 7.88086C0 12.2363 3.53516 15.7617 7.88086 15.7617ZM7.88086 14.2773C4.3457 14.2773 1.49414 11.416 1.49414 7.88086C1.49414 4.3457 4.3457 1.48438 7.88086 1.48438C11.416 1.48438 14.2773 4.3457 14.2773 7.88086C14.2773 11.416 11.416 14.2773 7.88086 14.2773Z" fill="white" fill-opacity="0.425"/>
  <path d="M6.03516 11.084L12.1777 11.084C12.6562 11.084 12.7734 10.6445 12.6074 10.3125L9.61914 4.32617C9.50195 4.11133 9.32617 3.98438 9.11133 3.98438C8.90625 3.98438 8.71094 4.10156 8.61328 4.31641L5.61523 10.3125C5.43945 10.6445 5.56641 11.084 6.03516 11.084ZM7.32422 10.4785L8.87695 7.27539C8.96484 7.06055 9.22852 7.06055 9.35547 7.27539L10.8887 10.4785L9.67773 10.4785L9.11133 8.04688L8.53516 10.4785ZM5.74219 9.30664L5.33203 7.54883L4.91211 9.30664L4.04297 9.30664L5.16602 6.99219C5.24414 6.80664 5.43945 6.85547 5.50781 6.99219L6.49414 9.04297L7.1875 7.70508L5.76172 4.87305C5.66406 4.69727 5.50781 4.57031 5.33203 4.57031C5.14648 4.57031 4.98047 4.69727 4.89258 4.87305L2.71484 9.23828C2.56836 9.54102 2.68555 9.91211 3.08594 9.91211L6.05469 9.91211L6.35742 9.30664Z" fill="white" fill-opacity="0.85"/>
 </g>
</svg>
