<?xml version="1.0" encoding="UTF-8"?>
<!--Generator: Apple Native CoreSVG 341-->
<!DOCTYPE svg
PUBLIC "-//W3C//DTD SVG 1.1//EN"
       "http://www.w3.org/Graphics/SVG/1.1/DTD/svg11.dtd">
<svg version="1.1" xmlns="http://www.w3.org/2000/svg" xmlns:xlink="http://www.w3.org/1999/xlink" viewBox="0 0 18.4766 14.248">
 <g>
  <rect height="14.248" opacity="0" width="18.4766" x="0" y="0"/>
  <path d="M18.1152 2.4707L18.1152 11.7871C18.1152 13.4277 17.2949 14.248 15.625 14.248L2.49023 14.248C0.830078 14.248 0 13.4277 0 11.7871L0 2.4707C0 0.830078 0.830078 0.00976562 2.49023 0.00976562L15.625 0.00976562C17.2949 0.00976562 18.1152 0.830078 18.1152 2.4707ZM3.51562 6.45508C3.20312 6.45508 2.95898 6.68945 2.95898 6.99219C2.95898 7.30469 3.20312 7.54883 3.51562 7.54883L8.83789 7.54883C9.15039 7.54883 9.38477 7.30469 9.38477 6.99219C9.38477 6.68945 9.15039 6.45508 8.83789 6.45508ZM3.51562 3.4375C3.20312 3.4375 2.95898 3.67188 2.95898 3.97461C2.95898 4.28711 3.20312 4.53125 3.51562 4.53125L14.6094 4.53125C14.9219 4.53125 15.1562 4.28711 15.1562 3.97461C15.1562 3.67188 14.9219 3.4375 14.6094 3.4375Z" fill="white" fill-opacity="0.85"/>
 </g>
</svg>
