<?xml version="1.0" encoding="UTF-8"?>
<!--Generator: Apple Native CoreSVG 341-->
<!DOCTYPE svg
PUBLIC "-//W3C//DTD SVG 1.1//EN"
       "http://www.w3.org/Graphics/SVG/1.1/DTD/svg11.dtd">
<svg version="1.1" xmlns="http://www.w3.org/2000/svg" xmlns:xlink="http://www.w3.org/1999/xlink" viewBox="0 0 25.8789 11.2988">
 <g>
  <rect height="11.2988" opacity="0" width="25.8789" x="0" y="0"/>
  <path d="M22.2852 11.2988C23.7402 11.2988 25 10.498 25.4395 9.4043C25.498 9.25781 25.5176 9.13086 25.5176 9.01367C25.5176 8.64258 25.2344 8.37891 24.8633 8.37891C24.541 8.37891 24.3652 8.49609 24.1602 8.87695C23.7793 9.60938 23.2227 10.0098 22.2949 10.0098C20.9766 10.0098 20.0977 8.96484 20.0977 7.2168C20.0977 5.49805 20.9766 4.41406 22.3047 4.41406C23.1738 4.41406 23.7598 4.79492 24.1504 5.56641C24.3457 5.92773 24.5312 6.04492 24.8438 6.04492C25.2246 6.04492 25.4883 5.79102 25.4883 5.41992C25.4883 5.32227 25.4688 5.19531 25.4395 5.08789C25.0586 3.97461 23.7793 3.125 22.2656 3.125C20.0488 3.125 18.584 4.74609 18.584 7.22656C18.584 9.7168 20.0586 11.2988 22.2852 11.2988Z" fill="white" fill-opacity="0.85"/>
  <path d="M11.0938 11.2988C11.5039 11.2988 11.8262 11.0059 11.8262 10.5566L11.8262 9.78516L11.8457 9.78516C12.2852 10.7031 13.2129 11.2988 14.3848 11.2988C16.416 11.2988 17.7441 9.70703 17.7441 7.2168C17.7441 4.7168 16.4062 3.125 14.4043 3.125C13.2715 3.125 12.334 3.70117 11.8848 4.63867L11.8652 4.63867L11.8652 1.23047C11.8652 0.751953 11.5625 0.439453 11.123 0.439453C10.6836 0.439453 10.3809 0.751953 10.3809 1.23047L10.3809 10.5566C10.3809 11.0156 10.6738 11.2988 11.0938 11.2988ZM14.0527 10.0098C12.7734 10.0098 11.8555 8.92578 11.8555 7.2168C11.8555 5.50781 12.7734 4.41406 14.0527 4.41406C15.3906 4.41406 16.2109 5.46875 16.2109 7.2168C16.2109 8.96484 15.3906 10.0098 14.0527 10.0098Z" fill="white" fill-opacity="0.85"/>
  <path d="M0.712891 11.2988C1.03516 11.2988 1.36719 11.1035 1.5332 10.6445L2.42188 8.13477L6.83594 8.13477L7.73438 10.6445C7.90039 11.1133 8.22266 11.2988 8.53516 11.2988C8.91602 11.2988 9.27734 11.0156 9.27734 10.5957C9.27734 10.4395 9.24805 10.3223 9.18945 10.1367L5.72266 0.830078C5.52734 0.302734 5.18555 0.0488281 4.62891 0.0488281C4.0918 0.0488281 3.75 0.302734 3.55469 0.820312L0.0976562 10.1465C0.0292969 10.332 0 10.4492 0 10.6055C0 11.0352 0.341797 11.2988 0.712891 11.2988ZM2.8125 6.88477L4.57031 1.91406L4.67773 1.91406L6.43555 6.88477Z" fill="white" fill-opacity="0.85"/>
 </g>
</svg>
