<svg version="1.1" xmlns="http://www.w3.org/2000/svg" xmlns:xlink="http://www.w3.org/1999/xlink" viewBox="0 0 13.3691 16.4746">
 <g>
  <rect height="16.4746" opacity="0" width="13.3691" x="0" y="0"/>
  <path d="M5.89844 5.67383C5.89844 6.70898 6.38672 7.19727 7.42188 7.19727L13.0078 7.19727L13.0078 13.9746C13.0078 15.6348 12.1875 16.4648 10.5469 16.4648L2.45117 16.4648C0.810547 16.4648 0 15.6445 0 13.9746L0 2.49023C0 0.830078 0.810547 0 2.45117 0L5.89844 0ZM3.54492 12.334C3.20312 12.334 2.95898 12.5879 2.95898 12.9004C2.95898 13.2227 3.20312 13.4668 3.54492 13.4668L9.47266 13.4668C9.80469 13.4668 10.0586 13.2227 10.0586 12.9004C10.0586 12.5879 9.80469 12.334 9.47266 12.334ZM3.54492 9.4043C3.20312 9.4043 2.95898 9.64844 2.95898 9.9707C2.95898 10.2832 3.20312 10.5273 3.54492 10.5273L9.47266 10.5273C9.80469 10.5273 10.0586 10.2832 10.0586 9.9707C10.0586 9.64844 9.80469 9.4043 9.47266 9.4043ZM8.16406 0.791016L12.2168 4.93164C12.627 5.35156 12.8711 5.69336 12.9199 6.05469L7.42188 6.05469C7.17773 6.05469 7.04102 5.92773 7.04102 5.67383L7.04102 0.0683594C7.40234 0.126953 7.76367 0.380859 8.16406 0.791016Z" fill="var(--color-primary)"/>
 </g>
</svg>
