<?xml version="1.0" encoding="UTF-8"?>
<!--Generator: Apple Native CoreSVG 341-->
<!DOCTYPE svg
PUBLIC "-//W3C//DTD SVG 1.1//EN"
       "http://www.w3.org/Graphics/SVG/1.1/DTD/svg11.dtd">
<svg version="1.1" xmlns="http://www.w3.org/2000/svg" xmlns:xlink="http://www.w3.org/1999/xlink" viewBox="0 0 15.3223 18.9941">
 <g>
  <rect height="18.9941" opacity="0" width="15.3223" x="0" y="0"/>
  <path d="M0.703125 18.8867L14.2578 18.8867C14.6387 18.8867 14.9609 18.5645 14.9609 18.1836C14.9609 17.8027 14.6387 17.4805 14.2578 17.4805L0.703125 17.4805C0.322266 17.4805 0 17.8027 0 18.1836C0 18.5645 0.322266 18.8867 0.703125 18.8867Z" fill="white" fill-opacity="0.85"/>
  <path d="M0.703125 14.9902L14.2578 14.9902C14.6387 14.9902 14.9609 14.6777 14.9609 14.2871C14.9609 13.9062 14.6387 13.584 14.2578 13.584L0.703125 13.584C0.322266 13.584 0 13.9062 0 14.2871C0 14.6777 0.322266 14.9902 0.703125 14.9902Z" fill="white" fill-opacity="0.85"/>
  <path d="M2.12891 11.0938L13.0664 11.0938C14.2578 11.0938 14.9609 10.4102 14.9609 8.99414L14.9609 3.29102C14.9609 1.89453 14.248 1.19141 12.832 1.19141L6.19141 1.19141C5.78125 1.19141 5.51758 1.08398 5.19531 0.810547L4.78516 0.478516C4.3457 0.136719 3.98438 0 3.34961 0L1.875 0C0.693359 0 0 0.683594 0 2.08984L0 8.99414C0 10.4102 0.712891 11.0938 2.12891 11.0938ZM1.29883 3.55469L1.29883 3.11523C1.29883 2.74414 1.5918 2.5 2.05078 2.5L12.8809 2.5C13.3398 2.5 13.6328 2.74414 13.6328 3.11523L13.6328 3.55469Z" fill="white" fill-opacity="0.85"/>
 </g>
</svg>
