<svg version="1.1" xmlns="http://www.w3.org/2000/svg" xmlns:xlink="http://www.w3.org/1999/xlink" viewBox="0 0 17.9443 17.6001">
 <g>
  <rect height="17.6001" opacity="0" width="17.9443" x="0" y="0"/>
  <path d="M3.69873 6.0271L3.69873 14.5178C3.69873 15.221 4.07959 15.6213 4.82178 15.6213L12.771 15.6213C12.9476 15.6213 13.1038 15.5987 13.2386 15.5539L14.3578 16.6716C13.9739 16.9097 13.4712 17.0276 12.8491 17.0276L4.75342 17.0276C3.11279 17.0276 2.29248 16.2073 2.29248 14.5374L2.29248 4.62277ZM15.3003 3.05299L15.3003 12.9663L13.894 11.561L13.894 3.07252C13.894 2.36939 13.5132 1.969 12.771 1.969L4.82178 1.969C4.648 1.969 4.49403 1.99095 4.36093 2.03444L3.24485 0.919124C3.63017 0.681391 4.13317 0.562751 4.75342 0.562751L12.8491 0.562751C14.4897 0.562751 15.3003 1.39283 15.3003 3.05299Z" fill="var(--color-secondary)"/>
  <path d="M12.1655 4.66431C12.1655 4.96705 11.9409 5.20142 11.6382 5.20142L7.53008 5.20142L6.47467 4.14674L11.6382 4.14674C11.9409 4.14674 12.1655 4.37134 12.1655 4.66431Z" fill="var(--color-secondary)"/>
  <path d="M12.1655 7.32056C12.1655 7.6233 11.9409 7.86744 11.6382 7.86744L10.1979 7.86744L9.13274 6.80299L11.6382 6.80299C11.9409 6.80299 12.1655 7.03736 12.1655 7.32056Z" fill="var(--color-secondary)"/>
  <path d="M8.20146 10.5237L5.96436 10.5237C5.65186 10.5237 5.42725 10.2991 5.42725 10.0061C5.42725 9.70338 5.65186 9.469 5.96436 9.469L7.14533 9.469Z" fill="var(--color-secondary)"/>
  <path d="M15.4761 16.4221C15.7495 16.6858 16.1694 16.6858 16.4233 16.4221C16.6772 16.1585 16.687 15.7288 16.4233 15.4651L2.1167 1.16822C1.85303 0.904548 1.42334 0.904548 1.15967 1.16822C0.905762 1.42213 0.905762 1.86158 1.15967 2.11549Z" fill="var(--color-primary)"/>
 </g>
</svg>
