<?xml version="1.0" encoding="UTF-8"?>
<!--Generator: Apple Native CoreSVG 341-->
<!DOCTYPE svg
PUBLIC "-//W3C//DTD SVG 1.1//EN"
       "http://www.w3.org/Graphics/SVG/1.1/DTD/svg11.dtd">
<svg version="1.1" xmlns="http://www.w3.org/2000/svg" xmlns:xlink="http://www.w3.org/1999/xlink" viewBox="0 0 17.959 11.3184">
 <g>
  <rect height="11.3184" opacity="0" width="17.959" x="0" y="0"/>
  <path d="M8.98438 11.3086C9.44336 11.3086 9.67773 11.1328 9.84375 10.6445L12.8809 1.94336L12.9297 1.94336L15.9766 10.6445C16.1426 11.1328 16.377 11.3086 16.8359 11.3086C17.2949 11.3086 17.5977 11.0254 17.5977 10.5859C17.5977 10.4395 17.5684 10.3027 17.5 10.1172L14.043 0.810547C13.8379 0.263672 13.4668 0 12.9102 0C12.3535 0 11.9922 0.263672 11.7969 0.810547L8.33008 10.127C8.27148 10.3125 8.24219 10.4395 8.24219 10.5957C8.24219 11.0352 8.52539 11.3086 8.98438 11.3086ZM10.5859 8.16406L15.2539 8.16406C15.6152 8.16406 15.9082 7.87109 15.9082 7.50977C15.9082 7.13867 15.6152 6.85547 15.2539 6.85547L10.5859 6.85547C10.2148 6.85547 9.92188 7.13867 9.92188 7.50977C9.92188 7.87109 10.2148 8.16406 10.5859 8.16406Z" fill="white" fill-opacity="0.85"/>
  <path d="M0.722656 11.3086C1.08398 11.3086 1.32812 11.123 1.45508 10.6934L2.00195 9.00391L4.89258 9.00391L5.43945 10.6934C5.58594 11.1426 5.83008 11.3086 6.18164 11.3086C6.62109 11.3086 6.91406 11.0352 6.91406 10.6445C6.91406 10.4688 6.86523 10.3027 6.80664 10.1172L4.55078 4.05273C4.3457 3.51562 3.96484 3.23242 3.44727 3.23242C2.93945 3.23242 2.56836 3.49609 2.36328 4.05273L0.0976562 10.1172C0.0292969 10.2832 0 10.459 0 10.6445C0 11.0449 0.283203 11.3086 0.722656 11.3086ZM2.38281 7.88086L3.33984 4.87305L3.55469 4.87305L4.52148 7.88086Z" fill="white" fill-opacity="0.85"/>
 </g>
</svg>
