<?xml version="1.0" encoding="UTF-8"?>
<!--Generator: Apple Native CoreSVG 341-->
<!DOCTYPE svg
PUBLIC "-//W3C//DTD SVG 1.1//EN"
       "http://www.w3.org/Graphics/SVG/1.1/DTD/svg11.dtd">
<svg version="1.1" xmlns="http://www.w3.org/2000/svg" xmlns:xlink="http://www.w3.org/1999/xlink" viewBox="0 0 17.5586 14.9121">
 <g>
  <rect height="14.9121" opacity="0" width="17.5586" x="0" y="0"/>
  <path d="M8.59375 0C3.84766 0 0 3.83789 0 8.59375C0 10.9277 0.927734 13.0664 2.48047 14.6289C2.77344 14.9219 3.23242 14.9414 3.56445 14.6289C3.83789 14.3555 3.7793 13.8867 3.4375 13.5059C2.23633 12.2559 1.52344 10.4883 1.52344 8.59375C1.52344 4.61914 4.63867 1.48438 8.59375 1.48438C12.5586 1.48438 15.6738 4.61914 15.6738 8.59375C15.6738 10.4883 14.9512 12.2559 13.7598 13.5059C13.418 13.8867 13.3594 14.3555 13.6328 14.6289C13.9648 14.9414 14.4238 14.9219 14.7168 14.6289C16.2695 13.0664 17.1973 10.9277 17.1973 8.59375C17.1973 3.83789 13.3496 0 8.59375 0Z" fill="white" fill-opacity="0.85"/>
  <path d="M8.30078 12.7637C9.27734 12.7637 10.0586 11.9824 10.0586 11.0059C10.0586 10.332 9.67773 9.77539 9.11133 9.47266C8.95508 9.375 8.88672 9.25781 8.88672 8.99414L8.88672 5.20508C8.88672 4.88281 8.62305 4.61914 8.30078 4.61914C7.97852 4.61914 7.72461 4.88281 7.72461 5.20508L7.72461 8.99414C7.72461 9.25781 7.66602 9.375 7.49023 9.47266C6.93359 9.77539 6.55273 10.332 6.55273 11.0059C6.55273 11.9824 7.33398 12.7637 8.30078 12.7637ZM10.1855 6.32812L11.6406 6.32812C11.875 6.32812 12.0605 6.14258 12.0605 5.91797C12.0605 5.68359 11.875 5.49805 11.6406 5.49805L10.1855 5.49805C9.96094 5.49805 9.76562 5.68359 9.76562 5.91797C9.76562 6.14258 9.96094 6.32812 10.1855 6.32812ZM10.1855 7.72461L11.6406 7.72461C11.875 7.72461 12.0605 7.53906 12.0605 7.30469C12.0605 7.08008 11.875 6.89453 11.6406 6.89453L10.1855 6.89453C9.96094 6.89453 9.76562 7.08008 9.76562 7.30469C9.76562 7.53906 9.96094 7.72461 10.1855 7.72461ZM10.1855 9.13086L11.6406 9.13086C11.875 9.13086 12.0605 8.93555 12.0605 8.70117C12.0605 8.48633 11.875 8.29102 11.6406 8.29102L10.1855 8.29102C9.96094 8.29102 9.76562 8.48633 9.76562 8.70117C9.76562 8.93555 9.96094 9.13086 10.1855 9.13086Z" fill="white" fill-opacity="0.85"/>
 </g>
</svg>
