<?xml version="1.0" encoding="UTF-8"?>
<!--Generator: Apple Native CoreSVG 341-->
<!DOCTYPE svg
PUBLIC "-//W3C//DTD SVG 1.1//EN"
       "http://www.w3.org/Graphics/SVG/1.1/DTD/svg11.dtd">
<svg version="1.1" xmlns="http://www.w3.org/2000/svg" xmlns:xlink="http://www.w3.org/1999/xlink" viewBox="0 0 16.1328 15.7715">
 <g>
  <rect height="15.7715" opacity="0" width="16.1328" x="0" y="0"/>
  <path d="M7.88086 15.7715C12.2363 15.7715 15.7715 12.2363 15.7715 7.89062C15.7715 3.54492 12.2363 0.00976562 7.88086 0.00976562C3.53516 0.00976562 0 3.54492 0 7.89062C0 12.2363 3.53516 15.7715 7.88086 15.7715Z" fill="white" fill-opacity="0.2125"/>
  <path d="M6.37695 13.1055C5.13672 13.1055 4.13086 12.1094 4.13086 10.8691C4.13086 10.2344 4.39453 9.6582 4.89258 9.19922C4.98047 9.13086 4.99023 9.07227 4.99023 8.97461L4.99023 5.26367C4.99023 4.375 5.54688 3.75 6.37695 3.75C7.1875 3.75 7.75391 4.375 7.75391 5.26367L7.74414 8.97461C7.74414 9.07227 7.76367 9.13086 7.8418 9.19922C8.33984 9.6582 8.61328 10.2344 8.61328 10.8691C8.61328 12.1094 7.60742 13.1055 6.37695 13.1055ZM6.37695 12.4023C7.20703 12.4023 7.90039 11.7285 7.90039 10.8691C7.90039 10.3418 7.64648 9.89258 7.20703 9.58984C7.07031 9.51172 7.02148 9.45312 7.02148 9.26758L7.02148 5.30273C7.02148 4.80469 6.75781 4.48242 6.37695 4.48242C5.9668 4.48242 5.69336 4.80469 5.69336 5.30273L5.69336 9.26758C5.69336 9.45312 5.6543 9.51172 5.51758 9.58984C5.09766 9.89258 4.84375 10.3418 4.84375 10.8691C4.84375 11.7285 5.51758 12.4023 6.37695 12.4023ZM6.36719 11.8457C5.83008 11.8457 5.39062 11.416 5.39062 10.8594C5.39062 10.498 5.61523 10.1855 5.9082 10.0098C6.05469 9.95117 6.09375 9.89258 6.09375 9.69727L6.09375 5.625C6.09375 5.41992 6.20117 5.30273 6.36719 5.30273C6.51367 5.30273 6.65039 5.41992 6.65039 5.625L6.65039 9.69727C6.65039 9.89258 6.69922 9.95117 6.81641 10.0098C7.12891 10.1855 7.35352 10.498 7.35352 10.8594C7.35352 11.4062 6.91406 11.8457 6.36719 11.8457ZM8.36914 4.04297C8.11523 4.04297 7.91016 3.83789 7.91016 3.59375L7.91016 2.75391C7.91016 2.5 8.11523 2.29492 8.36914 2.29492C8.63281 2.29492 8.82812 2.5 8.82812 2.75391L8.82812 3.59375C8.82812 3.83789 8.63281 4.04297 8.36914 4.04297ZM10.2637 4.83398C10.0879 4.6582 10.0879 4.36523 10.2637 4.18945L10.8594 3.59375C11.0352 3.4082 11.3184 3.4082 11.4941 3.59375C11.6797 3.76953 11.6699 4.0625 11.4941 4.22852L10.918 4.83398C10.7422 5 10.4395 5 10.2637 4.83398ZM11.4941 7.1875C11.25 7.1875 11.0449 6.97266 11.0449 6.72852C11.0449 6.47461 11.25 6.25977 11.4941 6.25977L12.3242 6.25977C12.5781 6.25977 12.7832 6.47461 12.7832 6.72852C12.7832 6.97266 12.5781 7.1875 12.3242 7.1875ZM10.8594 9.86328L10.2637 9.26758C10.0879 9.10156 10.0879 8.79883 10.2637 8.63281C10.4395 8.45703 10.7324 8.45703 10.9082 8.63281L11.4941 9.21875C11.6797 9.38477 11.6797 9.6875 11.4941 9.86328C11.3184 10.0391 11.0352 10.0293 10.8594 9.86328ZM8.36914 8.83789L8.37891 5.26367C8.37891 5.04883 8.34961 4.82422 8.28125 4.61914C8.32031 4.61914 8.34961 4.61914 8.36914 4.61914C9.53125 4.61914 10.4688 5.56641 10.4688 6.72852C10.4688 7.90039 9.53125 8.82812 8.36914 8.83789Z" fill="white" fill-opacity="0.85"/>
 </g>
</svg>
