<?xml version="1.0" encoding="UTF-8"?>
<!--Generator: Apple Native CoreSVG 341-->
<!DOCTYPE svg
PUBLIC "-//W3C//DTD SVG 1.1//EN"
       "http://www.w3.org/Graphics/SVG/1.1/DTD/svg11.dtd">
<svg version="1.1" xmlns="http://www.w3.org/2000/svg" xmlns:xlink="http://www.w3.org/1999/xlink" viewBox="0 0 16.582 20.0879">
 <g>
  <rect height="20.0879" opacity="0" width="16.582" x="0" y="0"/>
  <path d="M13.75 16.9727C14.3262 17.3828 14.7754 17.7051 15.5762 17.7051L15.6152 17.7051C15.9473 17.7051 16.2207 17.9785 16.2207 18.3203C16.2207 18.6621 15.9473 18.9355 15.6152 18.9355L15.5762 18.9355C13.125 18.9355 12.9297 17.3828 11.748 17.3828C10.5957 17.3828 10.2539 18.9355 8.11523 18.9355C5.9668 18.9355 5.63477 17.3828 4.48242 17.3828C3.30078 17.3828 3.10547 18.9355 0.654297 18.9355L0.615234 18.9355C0.273438 18.9355 0 18.6621 0 18.3203C0 17.9785 0.273438 17.7051 0.615234 17.7051L0.654297 17.7051C1.44531 17.7051 1.89453 17.3828 2.4707 16.9727C2.96875 16.6113 3.60352 16.1523 4.48242 16.1523C5.38086 16.1523 6.02539 16.6406 6.52344 17.0117C7.05078 17.4121 7.45117 17.7051 8.11523 17.7051C8.76953 17.7051 9.16992 17.4121 9.69727 17.0117C10.1953 16.6406 10.8398 16.1523 11.748 16.1523C12.6172 16.1523 13.252 16.6113 13.75 16.9727ZM4.38477 12.7441C4.38477 13.1199 4.43976 13.4824 4.5436 13.8235C4.52469 13.8189 4.5037 13.8184 4.48242 13.8184C3.30078 13.8184 3.10547 15.3711 0.654297 15.3711L0.615234 15.3711C0.273438 15.3711 0 15.0977 0 14.7559C0 14.4238 0.273438 14.1504 0.615234 14.1504L0.654297 14.1504C1.44531 14.1504 1.89453 13.8184 2.4707 13.4082C2.95092 13.0598 3.55824 12.6297 4.38964 12.6006ZM13.75 13.4082C14.3262 13.8184 14.7754 14.1504 15.5762 14.1504L15.6152 14.1504C15.9473 14.1504 16.2207 14.4238 16.2207 14.7559C16.2207 15.0977 15.9473 15.3711 15.6152 15.3711L15.5762 15.3711C13.125 15.3711 12.9297 13.8184 11.748 13.8184C11.7302 13.8184 11.7126 13.8187 11.6968 13.8227C11.8006 13.4818 11.8555 13.1196 11.8555 12.7441C11.8555 12.6957 11.8545 12.6477 11.8505 12.6009C12.6677 12.6334 13.2719 13.0613 13.75 13.4082Z" fill="white" fill-opacity="0.425"/>
  <path d="M8.11523 15.3418C9.55078 15.3418 10.7129 14.1895 10.7129 12.7441C10.7129 11.7383 10.1367 10.9375 9.38477 10.5273C9.12109 10.3809 8.98438 10.127 8.98438 9.73633L8.98438 2.01172C8.98438 1.54297 8.59375 1.14258 8.125 1.14258C7.64648 1.14258 7.25586 1.54297 7.25586 2.01172L7.25586 9.73633C7.25586 10.1074 7.10938 10.3516 6.82617 10.5078C6.08398 10.9277 5.52734 11.7383 5.52734 12.7441C5.52734 14.1895 6.67969 15.3418 8.11523 15.3418ZM11.1328 2.92969L12.8223 2.92969C13.125 2.92969 13.3301 2.69531 13.3301 2.43164C13.3301 2.16797 13.125 1.93359 12.8223 1.93359L11.1328 1.93359C10.8301 1.93359 10.6348 2.16797 10.6348 2.43164C10.6348 2.69531 10.8301 2.92969 11.1328 2.92969ZM11.1328 5.07812L12.8223 5.07812C13.125 5.07812 13.3301 4.84375 13.3301 4.58008C13.3301 4.31641 13.125 4.08203 12.8223 4.08203L11.1328 4.08203C10.8301 4.08203 10.6348 4.31641 10.6348 4.58008C10.6348 4.84375 10.8301 5.07812 11.1328 5.07812ZM11.1328 7.22656L12.8223 7.22656C13.125 7.22656 13.3301 6.99219 13.3301 6.72852C13.3301 6.46484 13.125 6.23047 12.8223 6.23047L11.1328 6.23047C10.8301 6.23047 10.6348 6.46484 10.6348 6.72852C10.6348 6.99219 10.8301 7.22656 11.1328 7.22656ZM11.1328 9.375L12.8223 9.375C13.125 9.375 13.3301 9.14062 13.3301 8.87695C13.3301 8.61328 13.125 8.37891 12.8223 8.37891L11.1328 8.37891C10.8301 8.37891 10.6348 8.61328 10.6348 8.87695C10.6348 9.14062 10.8301 9.375 11.1328 9.375Z" fill="white" fill-opacity="0.85"/>
 </g>
</svg>
