<?xml version="1.0" encoding="UTF-8"?>
<!--Generator: Apple Native CoreSVG 341-->
<!DOCTYPE svg
PUBLIC "-//W3C//DTD SVG 1.1//EN"
       "http://www.w3.org/Graphics/SVG/1.1/DTD/svg11.dtd">
<svg version="1.1" xmlns="http://www.w3.org/2000/svg" xmlns:xlink="http://www.w3.org/1999/xlink" viewBox="0 0 14.5898 14.248">
 <g>
  <rect height="14.248" opacity="0" width="14.5898" x="0" y="0"/>
  <path d="M2.49023 14.248L11.7383 14.248C13.4082 14.248 14.2285 13.4277 14.2285 11.7871L14.2285 2.4707C14.2285 0.830078 13.4082 0.00976562 11.7383 0.00976562L2.49023 0.00976562C0.830078 0.00976562 0 0.830078 0 2.4707L0 11.7871C0 13.4277 0.830078 14.248 2.49023 14.248ZM2.50977 12.832C1.80664 12.832 1.40625 12.4512 1.40625 11.7188L1.40625 2.53906C1.40625 1.79688 1.80664 1.42578 2.50977 1.42578L11.7188 1.42578C12.4219 1.42578 12.8223 1.79688 12.8223 2.53906L12.8223 11.7188C12.8223 12.4512 12.4219 12.832 11.7188 12.832Z" fill="white" fill-opacity="0.85"/>
  <path d="M2.69531 7.11914C2.69531 9.54102 4.69727 11.543 7.11914 11.543C9.54102 11.543 11.5332 9.54102 11.5332 7.11914C11.5332 4.70703 9.54102 2.70508 7.12891 2.70508C6.76758 2.70508 6.54297 2.94922 6.54297 3.31055L6.54297 4.6875C6.54297 5.0293 6.78711 5.2832 7.11914 5.2832C7.44141 5.2832 7.68555 5.01953 7.68555 4.6875L7.68555 4.00391C9.16992 4.25781 10.2734 5.55664 10.2734 7.11914C10.2734 8.87695 8.86719 10.2832 7.11914 10.2832C5.36133 10.2832 3.94531 8.87695 3.95508 7.11914C3.95508 6.37695 4.19922 5.68359 4.66797 5.11719C4.88281 4.83398 4.88281 4.50195 4.64844 4.24805C4.38477 3.97461 3.97461 4.00391 3.7207 4.31641C3.06641 5.10742 2.69531 6.11328 2.69531 7.11914ZM7.87109 7.85156C8.24219 7.4707 8.17383 6.9043 7.71484 6.60156L5.73242 5.30273C5.38086 5.06836 5.06836 5.37109 5.29297 5.71289L6.61133 7.70508C6.92383 8.16406 7.48047 8.23242 7.87109 7.85156Z" fill="white" fill-opacity="0.85"/>
 </g>
</svg>
