<svg version="1.1" xmlns="http://www.w3.org/2000/svg" xmlns:xlink="http://www.w3.org/1999/xlink" viewBox="0 0 21.709 16.1035">
 <g>
  <rect height="16.1035" opacity="0" width="21.709" x="0" y="0"/>
  <path d="M0 5.55664C0 6.38672 0.673828 7.06055 1.50391 7.06055L3.33008 7.06055C3.71094 7.06055 3.94531 7.20703 4.18945 7.59766L7.02148 12.0605C7.8418 13.3594 8.64258 13.7695 10.4102 13.7695L19.8438 13.7695C20.6738 13.7695 21.3477 13.1055 21.3477 12.2656C21.3477 11.4355 20.6738 10.7617 19.8438 10.7617L10.2637 10.7617C9.80469 10.7617 9.53125 10.6543 9.35547 10.3516L6.44531 5.58594C5.83008 4.58008 4.92188 4.05273 3.85742 4.05273L1.50391 4.05273C0.673828 4.05273 0 4.7168 0 5.55664ZM13.0566 8.06641L16.9336 8.06641C17.1777 8.06641 17.4219 7.99805 17.627 7.8418C18.6621 7.03125 19.3652 5.78125 19.3652 4.375C19.3652 1.99219 17.3828 0 15 0C12.6172 0 10.6348 1.99219 10.6348 4.375C10.6348 5.78125 11.3086 7.03125 12.3438 7.8418C12.5488 7.99805 12.8125 8.06641 13.0566 8.06641ZM13.418 10L16.5332 10L16.5332 7.90039L13.418 7.90039ZM15 16.0938C15.8984 16.0938 16.5332 15.4492 16.5332 14.5312L16.5332 14.5312L13.418 14.5312L13.418 14.5312C13.418 15.4492 14.0723 16.0938 15 16.0938Z" fill="var(--color-primary)"/>
 </g>
</svg>
