<?xml version="1.0" encoding="UTF-8"?>
<!--Generator: Apple Native CoreSVG 341-->
<!DOCTYPE svg
PUBLIC "-//W3C//DTD SVG 1.1//EN"
       "http://www.w3.org/Graphics/SVG/1.1/DTD/svg11.dtd">
<svg version="1.1" xmlns="http://www.w3.org/2000/svg" xmlns:xlink="http://www.w3.org/1999/xlink" viewBox="0 0 18.3691 21.0449">
 <g>
  <rect height="21.0449" opacity="0" width="18.3691" x="0" y="0"/>
  <path d="M0 20.1074C0 20.498 0.322266 20.8203 0.703125 20.8203C1.09375 20.8203 1.40625 20.498 1.40625 20.1074L1.40625 8.07617C1.40625 3.70117 4.02344 1.40625 9.00391 1.40625C13.9844 1.40625 16.6016 3.70117 16.6016 8.07617L16.6016 20.1074C16.6016 20.498 16.9141 20.8203 17.3047 20.8203C17.6855 20.8203 18.0078 20.498 18.0078 20.1074L18.0078 8.07617C18.0078 2.7832 14.9121 0 9.00391 0C3.0957 0 0 2.7832 0 8.07617ZM5.36133 17.0117L12.6465 17.0117C13.7207 17.0117 14.4336 16.2402 14.4336 15.1172L14.4336 10.459C14.4336 8.84766 14.2383 7.26562 13.9941 6.20117C13.7012 4.96094 12.8613 4.16016 11.709 4.02344C11.3672 3.98438 10.3027 3.89648 9.00391 3.89648C7.70508 3.89648 6.64062 3.98438 6.29883 4.02344C5.14648 4.16016 4.30664 4.96094 4.01367 6.20117C3.76953 7.26562 3.57422 8.84766 3.57422 10.459L3.57422 15.1172C3.57422 16.2402 4.27734 17.0117 5.36133 17.0117ZM9.00391 12.5684C7.5 12.5684 6.08398 12.4902 5.43945 12.4023C5.15625 12.3633 5.0293 12.207 5.0293 11.875L5.0293 10.4395C5.0293 9.13086 5.17578 8.0957 5.25391 7.71484C5.30273 7.4707 5.44922 7.33398 5.66406 7.30469C6.35742 7.20703 7.22656 7.16797 9.00391 7.16797C10.7812 7.16797 11.6504 7.20703 12.3438 7.30469C12.5586 7.33398 12.7051 7.4707 12.7539 7.71484C12.832 8.0957 12.9785 9.13086 12.9785 10.4395L12.9785 11.875C12.9785 12.2168 12.8516 12.3633 12.5684 12.4023C11.5137 12.5586 10.1074 12.5684 9.00391 12.5684ZM7.45117 6.07422C7.14844 6.07422 6.95312 5.86914 6.95312 5.56641C6.95312 5.26367 7.14844 5.07812 7.45117 5.07812L10.5469 5.07812C10.8594 5.07812 11.0547 5.26367 11.0547 5.56641C11.0547 5.86914 10.8594 6.07422 10.5469 6.07422ZM6.06445 15.6738C5.50781 15.6738 5.09766 15.2637 5.09766 14.6973C5.09766 14.1406 5.50781 13.7305 6.06445 13.7305C6.63086 13.7305 7.04102 14.1406 7.04102 14.6973C7.04102 15.2637 6.61133 15.6738 6.06445 15.6738ZM11.9238 15.6738C11.3672 15.6738 10.957 15.2637 10.957 14.6973C10.957 14.1406 11.3672 13.7305 11.9238 13.7305C12.4902 13.7305 12.9004 14.1406 12.9004 14.6973C12.9004 15.2637 12.4805 15.6738 11.9238 15.6738ZM4.60938 19.8828L5 19.8828C5.19531 19.8828 5.32227 19.8145 5.43945 19.6191L7.36328 16.5234L5.92773 16.5234L4.26758 19.2188C4.0625 19.5312 4.24805 19.8828 4.60938 19.8828ZM5.10742 19.0625L12.9199 19.0625L12.9199 17.9395L5.10742 17.9395ZM13.0469 19.8828L13.418 19.8828C13.7695 19.8828 13.9648 19.5215 13.7695 19.2188L12.1094 16.5234L10.6738 16.5234L12.5879 19.6191C12.7051 19.8145 12.8516 19.8828 13.0469 19.8828Z" fill="white" fill-opacity="0.85"/>
 </g>
</svg>
