<?xml version="1.0" encoding="UTF-8"?>
<!--Generator: Apple Native CoreSVG 341-->
<!DOCTYPE svg
PUBLIC "-//W3C//DTD SVG 1.1//EN"
       "http://www.w3.org/Graphics/SVG/1.1/DTD/svg11.dtd">
<svg version="1.1" xmlns="http://www.w3.org/2000/svg" xmlns:xlink="http://www.w3.org/1999/xlink" viewBox="0 0 19.1309 13.8656">
 <g>
  <rect height="13.8656" opacity="0" width="19.1309" x="0" y="0"/>
  <path d="M2.76367 7.53338L0.693359 7.53338C0.263672 7.53338 0 7.27947 0 6.86932C0 6.45916 0.263672 6.21502 0.693359 6.21502L2.76367 6.21502ZM14.6875 7.53338L4.07227 7.53338L4.07227 6.21502L14.6875 6.21502ZM18.7695 6.86932C18.7695 7.27947 18.5059 7.53338 18.0664 7.53338L16.0059 7.53338L16.0059 6.21502L18.0664 6.21502C18.5059 6.21502 18.7695 6.45916 18.7695 6.86932Z" fill="white" fill-opacity="0.85"/>
  <path d="M5.23438 12.2209L13.5352 13.6857C15.0879 13.9689 16.0059 13.0217 16.0059 11.2541L16.0059 2.49432C16.0059 0.629082 15.1562-0.230293 13.5352 0.0529099L5.23438 1.51775C3.60352 1.81072 2.76367 2.62127 2.76367 3.95916L2.76367 9.78924C2.76367 11.1174 3.60352 11.9377 5.23438 12.2209ZM5.15625 10.9123C4.45312 10.7853 4.07227 10.4142 4.07227 9.80877L4.07227 3.93963C4.07227 3.33416 4.45312 2.9533 5.15625 2.83611L13.6035 1.37127C14.3164 1.25408 14.6875 1.62518 14.6875 2.47478L14.6875 11.2736C14.6875 12.0842 14.2871 12.4943 13.6035 12.3771Z" fill="white" fill-opacity="0.85"/>
 </g>
</svg>
