<svg version="1.1" xmlns="http://www.w3.org/2000/svg" xmlns:xlink="http://www.w3.org/1999/xlink" viewBox="0 0 14.5898 14.248">
 <g>
  <rect height="14.248" opacity="0" width="14.5898" x="0" y="0"/>
  <path d="M2.49023 14.248L11.7383 14.248C13.4082 14.248 14.2285 13.4277 14.2285 11.7871L14.2285 2.4707C14.2285 0.830078 13.4082 0.00976562 11.7383 0.00976562L2.49023 0.00976562C0.830078 0.00976562 0 0.830078 0 2.4707L0 11.7871C0 13.4277 0.830078 14.248 2.49023 14.248Z" fill="var(--color-tertiary)"/>
  <path d="M5.33842 6.73151L5.42969 10.2832C5.42969 10.4492 5.57617 10.5664 5.74219 10.5664C5.92773 10.5664 6.04492 10.4492 6.03516 10.2832L5.96 7.35224L6.79688 8.18796L6.79688 10.2832C6.79688 10.4492 6.91406 10.5664 7.10938 10.5664C7.29492 10.5664 7.42188 10.4492 7.42188 10.2832L7.42187 8.81211L8.19329 9.58247L8.17383 10.2832C8.17383 10.4492 8.28125 10.5664 8.4668 10.5664C8.64258 10.5664 8.7793 10.4492 8.7793 10.2832L8.78219 10.1706L9.97762 11.3644C9.84353 11.6518 9.56414 11.7969 9.17969 11.7969L5.04883 11.7969C4.49219 11.7969 4.18945 11.5137 4.16992 10.957L3.93819 5.33319ZM3.83789 3.28125L10.9668 10.4102C11.1133 10.5566 11.1133 10.8008 10.9668 10.957C10.8105 11.1035 10.5566 11.1035 10.4102 10.957L3.28125 3.82812C3.13477 3.69141 3.13477 3.42773 3.28125 3.28125C3.4375 3.125 3.68164 3.125 3.83789 3.28125ZM9.07227 3.4375L9.07227 4.05273L10.9082 4.05273C11.1133 4.05273 11.2891 4.22852 11.2793 4.43359C11.2695 4.62891 11.1133 4.79492 10.9082 4.79492L10.3125 4.79492L10.1557 8.75281L8.85203 7.45272L8.89648 5.72266C8.90625 5.53711 8.79883 5.41992 8.60352 5.41992C8.41797 5.41992 8.30078 5.53711 8.30078 5.71289L8.26861 6.87091L7.42187 6.02649L7.42188 5.72266C7.42188 5.53711 7.29492 5.41992 7.10938 5.41992C7.01654 5.41992 6.94136 5.4464 6.88829 5.49436L5.14648 3.75733L5.14648 3.4375C5.14648 2.75391 5.5957 2.32422 6.31836 2.32422L7.89062 2.32422C8.61328 2.32422 9.07227 2.75391 9.07227 3.4375ZM6.36719 3.17383C6.17188 3.17383 6.04492 3.30078 6.04492 3.48633L6.04492 4.05273L8.16406 4.05273L8.16406 3.48633C8.16406 3.30078 8.03711 3.17383 7.8418 3.17383Z" fill="var(--color-primary)"/>
 </g>
</svg>
