<?xml version="1.0" encoding="UTF-8"?>
<!--Generator: Apple Native CoreSVG 341-->
<!DOCTYPE svg
PUBLIC "-//W3C//DTD SVG 1.1//EN"
       "http://www.w3.org/Graphics/SVG/1.1/DTD/svg11.dtd">
<svg version="1.1" xmlns="http://www.w3.org/2000/svg" xmlns:xlink="http://www.w3.org/1999/xlink" viewBox="0 0 14.5898 14.248">
 <g>
  <rect height="14.248" opacity="0" width="14.5898" x="0" y="0"/>
  <path d="M14.2285 2.4707L14.2285 11.7871C14.2285 13.4277 13.4082 14.248 11.7383 14.248L2.49023 14.248C0.830078 14.248 0 13.4277 0 11.7871L0 2.4707C0 0.830078 0.830078 0.00976562 2.49023 0.00976562L11.7383 0.00976562C13.4082 0.00976562 14.2285 0.830078 14.2285 2.4707ZM2.50977 1.42578C1.80664 1.42578 1.40625 1.79688 1.40625 2.53906L1.40625 11.7188C1.40625 12.4512 1.80664 12.832 2.50977 12.832L11.7188 12.832C12.4219 12.832 12.8223 12.4512 12.8223 11.7188L12.8223 2.53906C12.8223 1.79688 12.4219 1.42578 11.7188 1.42578Z" fill="white" fill-opacity="0.85"/>
  <path d="M5.40017 6.77031L5.49805 10.166C5.49805 10.3223 5.625 10.4395 5.79102 10.4395C5.97656 10.4395 6.07422 10.3223 6.07422 10.166L5.99978 7.36822L6.80664 8.17279L6.80664 10.166C6.80664 10.3223 6.92383 10.4395 7.10938 10.4395C7.28516 10.4395 7.41211 10.3223 7.41211 10.166L7.41211 8.77653L8.1521 9.51442L8.13477 10.166C8.13477 10.3223 8.24219 10.4395 8.41797 10.4395C8.58398 10.4395 8.7207 10.3223 8.7207 10.166L8.7229 10.0836L9.86017 11.2176C9.73256 11.4857 9.47268 11.6211 9.10156 11.6211L5.11719 11.6211C4.58984 11.6211 4.29688 11.3477 4.27734 10.8105L4.05573 5.4297ZM8.99414 3.57422L8.99414 4.16016L10.7715 4.16016C10.9668 4.16016 11.1426 4.32617 11.1328 4.52148C11.123 4.7168 10.9668 4.88281 10.7715 4.88281L10.1953 4.88281L10.0373 8.71896L8.79233 7.47397L8.83789 5.76172C8.83789 5.5957 8.73047 5.47852 8.54492 5.47852C8.37891 5.47852 8.25195 5.5957 8.25195 5.76172L8.22158 6.90322L7.41211 6.09375L7.41211 5.76172C7.41211 5.5957 7.28516 5.47852 7.10938 5.47852C7.01291 5.47852 6.93492 5.51019 6.88251 5.56415L5.22461 3.90625L5.22461 3.57422C5.22461 2.91016 5.64453 2.5 6.33789 2.5L7.86133 2.5C8.55469 2.5 8.99414 2.91016 8.99414 3.57422ZM6.39648 3.32031C6.21094 3.32031 6.08398 3.4375 6.08398 3.62305L6.08398 4.16016L8.13477 4.16016L8.13477 3.62305C8.13477 3.4375 7.99805 3.32031 7.8125 3.32031Z" fill="white" fill-opacity="0.85"/>
  <path d="M10.2734 10.8203C10.4199 10.9668 10.6641 10.9668 10.8105 10.8203C10.957 10.6641 10.957 10.4395 10.8105 10.2832L3.95508 3.4375C3.80859 3.28125 3.56445 3.28125 3.41797 3.4375C3.27148 3.58398 3.27148 3.82812 3.41797 3.97461Z" fill="white" fill-opacity="0.85"/>
 </g>
</svg>
