<?xml version="1.0" encoding="UTF-8"?>
<!--Generator: Apple Native CoreSVG 341-->
<!DOCTYPE svg
PUBLIC "-//W3C//DTD SVG 1.1//EN"
       "http://www.w3.org/Graphics/SVG/1.1/DTD/svg11.dtd">
<svg version="1.1" xmlns="http://www.w3.org/2000/svg" xmlns:xlink="http://www.w3.org/1999/xlink" viewBox="0 0 18.4766 19.3652">
 <g>
  <rect height="19.3652" opacity="0" width="18.4766" x="0" y="0"/>
  <path d="M15.1367 6.09375L17.6465 9.15039C18.0176 9.60938 18.1152 9.99023 18.1152 10.7422L18.1152 15.3613C18.1152 17.002 17.2949 17.8223 15.625 17.8223L2.49023 17.8223C0.830078 17.8223 0 17.002 0 15.3613L0 10.7422C0 9.99023 0.107422 9.60938 0.478516 9.15039L2.97852 6.09375C3.94531 4.91211 4.3457 4.55078 5.78125 4.55078L6.83594 4.55078L6.83594 5.77148L5.69336 5.77148C5.15625 5.77148 4.72656 5.95703 4.3457 6.43555L1.63086 9.83398C1.48438 10.0195 1.54297 10.2637 1.82617 10.2637L6.71875 10.2637C7.1582 10.2637 7.36328 10.6055 7.36328 10.9473L7.36328 10.9668C7.36328 11.7773 8.00781 12.7148 9.0625 12.7148C10.1172 12.7148 10.752 11.7773 10.752 10.9668L10.752 10.9473C10.752 10.6055 10.9668 10.2637 11.3965 10.2637L16.2988 10.2637C16.5723 10.2637 16.6309 10.0195 16.4941 9.83398L13.7793 6.43555C13.3984 5.95703 12.959 5.77148 12.4219 5.77148L11.2891 5.77148L11.2891 4.55078L12.334 4.55078C13.7793 4.55078 14.1699 4.91211 15.1367 6.09375ZM1.40625 11.543L1.40625 15.293C1.40625 16.0352 1.80664 16.4062 2.50977 16.4062L15.6055 16.4062C16.3086 16.4062 16.709 16.0352 16.709 15.293L16.709 11.543L12.0703 11.543C11.8457 12.9492 10.6445 14.0039 9.0625 14.0039C7.48047 14.0039 6.26953 12.9492 6.04492 11.543Z" fill="white" fill-opacity="0.85"/>
  <path d="M6.47461 6.67969C6.10352 6.67969 5.83984 6.93359 5.83984 7.28516C5.83984 7.48047 5.91797 7.61719 6.04492 7.75391L8.55469 10.1465C8.73047 10.3223 8.87695 10.3809 9.0625 10.3809C9.23828 10.3809 9.38477 10.3223 9.57031 10.1465L12.0703 7.75391C12.207 7.61719 12.2754 7.48047 12.2754 7.28516C12.2754 6.93359 12.002 6.67969 11.6406 6.67969C11.4746 6.67969 11.2891 6.74805 11.1719 6.88477L10.0879 8.05664L9.0625 9.16016L8.02734 8.05664L6.95312 6.88477C6.82617 6.74805 6.64062 6.67969 6.47461 6.67969ZM9.0625 0C8.68164 0 8.36914 0.3125 8.36914 0.673828L8.36914 7.31445L8.47656 9.53125C8.49609 9.85352 8.74023 10.1172 9.0625 10.1172C9.375 10.1172 9.62891 9.85352 9.63867 9.53125L9.75586 7.31445L9.75586 0.673828C9.75586 0.3125 9.43359 0 9.0625 0Z" fill="white" fill-opacity="0.85"/>
 </g>
</svg>
