<?xml version="1.0" encoding="UTF-8"?>
<!--Generator: Apple Native CoreSVG 341-->
<!DOCTYPE svg
PUBLIC "-//W3C//DTD SVG 1.1//EN"
       "http://www.w3.org/Graphics/SVG/1.1/DTD/svg11.dtd">
<svg version="1.1" xmlns="http://www.w3.org/2000/svg" xmlns:xlink="http://www.w3.org/1999/xlink" viewBox="0 0 26.336 20.2522">
 <g>
  <rect height="20.2522" opacity="0" width="26.336" x="0" y="0"/>
  <path d="M2.32325 19.7892C2.52833 20.1408 2.95802 20.2482 3.29005 20.0626L24.8818 7.61148C25.2139 7.41616 25.3311 6.98648 25.1455 6.66421C24.9404 6.31265 24.5108 6.19546 24.1787 6.39077L2.58692 18.8419C2.25489 19.0275 2.1377 19.4669 2.32325 19.7892Z" fill="white" fill-opacity="0.85"/>
  <path d="M3.3877 15.6291L4.84278 14.7892L4.26661 13.7931L2.87013 14.6037C2.55763 14.7794 2.22559 14.6623 2.01075 14.2814L1.36622 13.1584C0.965829 12.465 1.2002 11.8302 2.14747 11.0587L4.15919 9.42788L5.67286 6.59585C6.35645 5.32632 7.18653 4.51577 8.69044 3.64663L10.7998 2.42593C11.3662 2.10366 11.8252 2.19155 12.2061 2.70913L13.3486 4.26187L18.4951 1.28335C18.8076 1.10757 19.1397 1.22476 19.3643 1.60562L20.5166 3.5978C20.7315 3.97866 20.6729 4.33023 20.3604 4.50601L18.2803 5.70718L18.8565 6.69351L20.9854 5.46304C21.874 4.94546 22.0986 4.06655 21.5713 3.15835L20.2725 0.902492C19.7549-0.00571127 18.876-0.249852 17.9873 0.267726L13.6709 2.75796L13.1143 2.00601C12.3428 0.961086 11.4053 0.756007 10.2822 1.40054L8.12403 2.65054C6.39552 3.6564 5.43849 4.58413 4.667 6.04898L3.28028 8.67593L1.45411 10.1505C-0.0302647 11.3517-0.35253 12.465 0.370126 13.7345L1.10255 14.9845C1.62013 15.8927 2.49903 16.1369 3.3877 15.6291ZM7.29395 13.3732L16.1709 8.24624L15.6045 7.25015L6.71778 12.3771ZM6.74708 15.3361C7.80177 14.7209 8.15333 13.4123 7.53809 12.3576C6.93263 11.2931 5.62403 10.9513 4.55958 11.5568C3.50489 12.172 3.15333 13.4806 3.76856 14.5353C4.37403 15.5998 5.68263 15.9416 6.74708 15.3361ZM6.17091 14.3498C5.66309 14.6427 5.04786 14.4767 4.75489 13.9689C4.46192 13.4611 4.62794 12.8361 5.13575 12.5431C5.64356 12.2501 6.2588 12.4162 6.55177 12.924C6.84474 13.4318 6.67872 14.0568 6.17091 14.3498ZM18.124 8.76382C19.1787 8.15835 19.5303 6.84976 18.915 5.7853C18.3096 4.73062 17.001 4.37905 15.9365 4.99429C14.8818 5.59976 14.5303 6.90835 15.1455 7.96304C15.751 9.02749 17.0596 9.37905 18.124 8.76382ZM17.5479 7.77749C17.04 8.07046 16.4248 7.90444 16.1318 7.39663C15.8389 6.88882 16.0049 6.27359 16.5127 5.98062C17.0205 5.68765 17.6358 5.85366 17.9287 6.36148C18.2217 6.86929 18.0557 7.48452 17.5479 7.77749Z" fill="white" fill-opacity="0.85"/>
  <path d="M24.5889 19.4084C25.0772 19.4084 25.4385 19.1935 25.6826 18.8517C25.8389 18.6173 25.9756 18.2658 25.9756 17.9826C25.9756 17.7189 25.79 17.5431 25.5166 17.5431C25.3018 17.5431 25.126 17.6994 25.0772 17.9337C24.9893 18.3634 24.8525 18.5587 24.5693 18.5587C24.2275 18.5587 23.9639 18.1291 23.9639 16.9572C23.9639 15.8732 24.2373 15.3361 24.5693 15.3361C24.833 15.3361 25.0088 15.59 25.0576 15.9513C25.0967 16.215 25.2822 16.381 25.5361 16.381C25.79 16.381 25.9463 16.1955 25.9463 15.922C25.9463 15.6193 25.8096 15.1994 25.5166 14.8966C25.2725 14.633 24.9209 14.4962 24.5596 14.4962C23.8955 14.4962 23.4756 14.9064 23.251 15.3751C23.0166 15.8732 22.9678 16.4201 22.9678 16.9572C22.9678 17.5724 23.0264 18.1486 23.29 18.6369C23.583 19.1642 24.0225 19.4084 24.5889 19.4084ZM16.3369 19.3693C16.6397 19.3693 16.8252 19.1837 16.8252 18.881L16.8252 17.3283L17.8994 17.3283L17.8994 18.881C17.8994 19.1837 18.085 19.3693 18.3877 19.3693C18.6904 19.3693 18.8858 19.1837 18.8858 18.881L18.8858 15.0236C18.8858 14.7306 18.6904 14.5451 18.3877 14.5451C18.085 14.5451 17.8994 14.7306 17.8994 15.0236L17.8994 16.5177L16.8252 16.5177L16.8252 15.0236C16.8252 14.7306 16.6397 14.5451 16.3369 14.5451C16.044 14.5451 15.8584 14.7306 15.8584 15.0236L15.8584 18.881C15.8584 19.1837 16.044 19.3693 16.3369 19.3693ZM19.999 19.3693L20.8584 19.3693C22.1182 19.3693 22.5479 18.1974 22.5479 16.9376C22.5479 15.5607 22.0498 14.5451 20.8584 14.5451L19.999 14.5451C19.7158 14.5451 19.501 14.7013 19.501 15.0529L19.501 18.8615C19.501 19.213 19.7158 19.3693 19.999 19.3693ZM20.4678 18.5587L20.4678 15.3556L20.7412 15.3556C21.4346 15.3556 21.5615 16.2443 21.5615 16.9376C21.5615 17.6505 21.4639 18.5587 20.7412 18.5587Z" fill="white" fill-opacity="0.85"/>
 </g>
</svg>
