<?xml version="1.0" encoding="UTF-8"?>
<!--Generator: Apple Native CoreSVG 341-->
<!DOCTYPE svg
PUBLIC "-//W3C//DTD SVG 1.1//EN"
       "http://www.w3.org/Graphics/SVG/1.1/DTD/svg11.dtd">
<svg version="1.1" xmlns="http://www.w3.org/2000/svg" xmlns:xlink="http://www.w3.org/1999/xlink" viewBox="0 0 21.4453 11.5527">
 <g>
  <rect height="11.5527" opacity="0" width="21.4453" x="0" y="0"/>
  <path d="M0.771484 1.63086L5.81055 1.63086C6.25977 1.63086 6.58203 1.38672 6.58203 0.927734C6.58203 0.478516 6.25977 0.224609 5.81055 0.224609L0.771484 0.224609C0.322266 0.224609 0 0.478516 0 0.927734C0 1.38672 0.322266 1.63086 0.771484 1.63086ZM3.30078 11.4746C3.85742 11.4746 4.10156 11.0742 4.10156 10.5762L4.10156 0.976562L2.49023 0.976562L2.49023 10.5762C2.49023 11.1035 2.77344 11.4746 3.30078 11.4746ZM10.1074 11.5527C12.0508 11.5527 13.0566 10.2148 13.0566 8.37891C13.0566 6.71875 12.3047 5.91797 10.8008 5.13672L10.2441 4.84375C9.43359 4.41406 8.87695 3.93555 8.87695 2.97852C8.87695 2.12891 9.26758 1.41602 10.0684 1.41602C10.8301 1.41602 11.2793 2.03125 11.4355 2.89062C11.5137 3.32031 11.8262 3.49609 12.1777 3.49609C12.5879 3.49609 12.8613 3.17383 12.8613 2.77344C12.8613 1.875 12.0508 0.00976562 10.0684 0.00976562C8.38867 0.00976562 7.32422 1.34766 7.32422 3.0957C7.32422 4.6875 8.16406 5.56641 9.55078 6.26953L10.1172 6.58203C10.9863 7.02148 11.5234 7.51953 11.5234 8.49609C11.5234 9.43359 11.0352 10.1367 10.1367 10.1367C9.31641 10.1367 8.81836 9.49219 8.68164 8.62305C8.58398 8.16406 8.24219 7.99805 7.93945 7.99805C7.5 7.99805 7.25586 8.35938 7.25586 8.78906C7.25586 9.85352 8.13477 11.5527 10.1074 11.5527ZM15 11.4844C15.4297 11.4844 15.6934 11.25 15.791 10.8203L16.2695 8.57422L19.0332 8.57422L19.5215 10.8301C19.6191 11.2598 19.8926 11.4844 20.3223 11.4844C20.7422 11.4844 21.084 11.1719 21.084 10.752C21.084 10.6836 21.0742 10.6055 21.0547 10.5371L18.8574 1.14258C18.7012 0.507812 18.3105 0.078125 17.6465 0.078125C16.9629 0.078125 16.6113 0.488281 16.4648 1.14258L14.3066 10.3711C14.2871 10.4785 14.248 10.6445 14.248 10.752C14.248 11.2305 14.5605 11.4844 15 11.4844ZM16.543 7.23633L17.6367 2.08008L17.627 2.08008L18.75 7.23633Z" fill="white" fill-opacity="0.85"/>
 </g>
</svg>
