<?xml version="1.0" encoding="UTF-8"?>
<!--Generator: Apple Native CoreSVG 341-->
<!DOCTYPE svg
PUBLIC "-//W3C//DTD SVG 1.1//EN"
       "http://www.w3.org/Graphics/SVG/1.1/DTD/svg11.dtd">
<svg version="1.1" xmlns="http://www.w3.org/2000/svg" xmlns:xlink="http://www.w3.org/1999/xlink" viewBox="0 0 20.8676 17.041">
 <g>
  <rect height="17.041" opacity="0" width="20.8676" x="0" y="0"/>
  <path d="M6.32735 17.041L14.1789 17.041C15.5266 17.041 16.4152 16.1621 16.4348 14.834L16.5324 7.39258L18.2902 7.80273C19.0813 7.97852 19.5891 7.64648 19.7844 6.83594L20.4582 4.05273C20.6438 3.25195 20.3508 2.69531 19.5891 2.38281L14.257 0.146484C13.8273-0.0390625 13.5344-0.0292969 13.1828 0.136719C12.1281 0.615234 11.3957 0.859375 10.2531 0.859375C9.12032 0.859375 8.37813 0.615234 7.33321 0.136719C6.98165-0.0292969 6.68868-0.0390625 6.25899 0.146484L0.917193 2.38281C0.16524 2.69531-0.137494 3.25195 0.0578184 4.05273L0.721881 6.83594C0.917193 7.64648 1.43477 7.97852 2.22579 7.80273L3.97383 7.39258L4.07149 14.834C4.09102 16.1621 4.97969 17.041 6.32735 17.041ZM6.34688 15.7031C5.79024 15.7031 5.42891 15.332 5.41915 14.7559L5.31172 6.07422C5.31172 5.88867 5.16524 5.75195 4.9504 5.80078L2.20626 6.40625C2.0793 6.44531 1.99141 6.38672 1.97188 6.28906L1.38594 3.86719C1.34688 3.70117 1.40547 3.65234 1.5129 3.60352L7.02071 1.29883C8.05587 1.8457 9.0129 2.11914 10.2531 2.11914C11.5031 2.11914 12.4504 1.8457 13.4856 1.29883L18.9934 3.60352C19.1008 3.65234 19.1594 3.70117 19.1203 3.86719L18.5344 6.28906C18.5148 6.38672 18.4367 6.44531 18.3098 6.40625L15.5559 5.80078C15.341 5.75195 15.1945 5.88867 15.1945 6.07422L15.0871 14.7559C15.0773 15.332 14.716 15.7031 14.1594 15.7031ZM10.2531 4.44336C12.0891 4.44336 13.7102 3.16406 14.091 1.37695L12.8215 0.78125C12.6555 2.09961 11.5422 3.0957 10.2531 3.0957C8.96407 3.0957 7.86055 2.09961 7.68477 0.78125L6.41524 1.37695C6.80587 3.16406 8.42696 4.44336 10.2531 4.44336Z" fill="white" fill-opacity="0.85"/>
 </g>
</svg>
