<?xml version="1.0" encoding="UTF-8"?>
<!--Generator: Apple Native CoreSVG 341-->
<!DOCTYPE svg
PUBLIC "-//W3C//DTD SVG 1.1//EN"
       "http://www.w3.org/Graphics/SVG/1.1/DTD/svg11.dtd">
<svg version="1.1" xmlns="http://www.w3.org/2000/svg" xmlns:xlink="http://www.w3.org/1999/xlink" viewBox="0 0 16.1328 15.7715">
 <g>
  <rect height="15.7715" opacity="0" width="16.1328" x="0" y="0"/>
  <path d="M7.88086 15.7617C12.2363 15.7617 15.7715 12.2363 15.7715 7.88086C15.7715 3.52539 12.2363 0 7.88086 0C3.53516 0 0 3.52539 0 7.88086C0 12.2363 3.53516 15.7617 7.88086 15.7617ZM7.88086 14.2773C4.3457 14.2773 1.49414 11.416 1.49414 7.88086C1.49414 4.3457 4.3457 1.48438 7.88086 1.48438C11.416 1.48438 14.2773 4.3457 14.2773 7.88086C14.2773 11.416 11.416 14.2773 7.88086 14.2773Z" fill="white" fill-opacity="0.85"/>
  <path d="M6.97266 11.2695L7.07031 11.2695C7.97852 11.2695 9.00391 10.9277 9.60938 10.3125C10.1074 9.81445 10.4883 9.11133 10.4883 8.45703C10.4883 8.19336 10.3516 7.98828 10.0391 7.98828C9.74609 7.98828 9.59961 8.1543 9.56055 8.4375C9.48242 8.89648 9.29688 9.28711 9.0332 9.58984C8.60352 10.0684 7.95898 10.3223 7.31445 10.3223L7.31445 7.91016L8.84766 7.29492C8.98438 7.23633 9.0625 7.13867 9.0625 7.02148C9.0625 6.85547 8.94531 6.73828 8.78906 6.73828C8.74023 6.73828 8.69141 6.75781 8.64258 6.77734L7.31445 7.30469L7.31445 6.38672L8.84766 5.77148C8.98438 5.72266 9.0625 5.625 9.0625 5.48828C9.0625 5.39062 9.00391 5.22461 8.79883 5.22461C8.75 5.22461 8.69141 5.24414 8.64258 5.26367L7.31445 5.79102L7.31445 4.81445C7.31445 4.51172 7.11914 4.30664 6.82617 4.30664C6.52344 4.30664 6.31836 4.51172 6.31836 4.81445L6.31836 6.19141L5.35156 6.57227C5.22461 6.62109 5.16602 6.70898 5.16602 6.83594C5.16602 6.99219 5.27344 7.10938 5.42969 7.10938C5.46875 7.10938 5.52734 7.09961 5.58594 7.08008L6.31836 6.78711L6.31836 7.70508L5.35156 8.08594C5.22461 8.14453 5.16602 8.22266 5.16602 8.35938C5.16602 8.50586 5.27344 8.63281 5.42969 8.63281C5.46875 8.63281 5.53711 8.62305 5.58594 8.60352L6.31836 8.30078L6.31836 10.6445C6.31836 11.0156 6.5918 11.2695 6.97266 11.2695Z" fill="white" fill-opacity="0.85"/>
 </g>
</svg>
