<?xml version="1.0" encoding="UTF-8"?>
<!--Generator: Apple Native CoreSVG 341-->
<!DOCTYPE svg
PUBLIC "-//W3C//DTD SVG 1.1//EN"
       "http://www.w3.org/Graphics/SVG/1.1/DTD/svg11.dtd">
<svg version="1.1" xmlns="http://www.w3.org/2000/svg" xmlns:xlink="http://www.w3.org/1999/xlink" viewBox="0 0 14.5898 14.248">
 <g>
  <rect height="14.248" opacity="0" width="14.5898" x="0" y="0"/>
  <path d="M2.49023 14.248L11.7383 14.248C13.4082 14.248 14.2285 13.4277 14.2285 11.7871L14.2285 2.4707C14.2285 0.830078 13.4082 0.00976562 11.7383 0.00976562L2.49023 0.00976562C0.830078 0.00976562 0 0.830078 0 2.4707L0 11.7871C0 13.4277 0.830078 14.248 2.49023 14.248Z" fill="white" fill-opacity="0.2125"/>
  <path d="M6.19141 10.6348C5.78125 10.6348 5.49805 10.3809 5.49805 9.99023L5.49805 7.55859L4.74609 7.87109C4.69727 7.89062 4.61914 7.90039 4.58008 7.90039C4.41406 7.90039 4.30664 7.77344 4.30664 7.60742C4.30664 7.48047 4.35547 7.39258 4.50195 7.33398L5.49805 6.94336L5.49805 5.98633L4.73633 6.29883C4.6875 6.31836 4.61914 6.32812 4.58008 6.32812C4.41406 6.32812 4.30664 6.20117 4.30664 6.03516C4.30664 5.9082 4.35547 5.81055 4.50195 5.76172L5.49805 5.36133L5.49805 3.94531C5.49805 3.63281 5.71289 3.41797 6.02539 3.41797C6.32812 3.41797 6.54297 3.63281 6.54297 3.94531L6.54297 4.95117L7.91016 4.4043C7.96875 4.38477 8.02734 4.35547 8.07617 4.35547C8.29102 4.35547 8.34961 4.54102 8.34961 4.64844C8.34961 4.77539 8.27148 4.89258 8.125 4.94141L6.54297 5.57617L6.54297 6.52344L7.91016 5.97656C7.96875 5.95703 8.01758 5.9375 8.06641 5.9375C8.23242 5.9375 8.34961 6.05469 8.34961 6.24023C8.34961 6.34766 8.27148 6.45508 8.125 6.51367L6.54297 7.14844L6.54297 9.64844C7.2168 9.64844 7.87109 9.38477 8.32031 8.88672C8.59375 8.58398 8.78906 8.18359 8.86719 7.70508C8.90625 7.41211 9.0625 7.23633 9.35547 7.23633C9.6875 7.23633 9.83398 7.45117 9.83398 7.72461C9.83398 8.38867 9.43359 9.13086 8.91602 9.64844C8.29102 10.2832 7.22656 10.6348 6.2793 10.6348Z" fill="white" fill-opacity="0.85"/>
 </g>
</svg>
