<?xml version="1.0" encoding="UTF-8"?>
<!--Generator: Apple Native CoreSVG 341-->
<!DOCTYPE svg
PUBLIC "-//W3C//DTD SVG 1.1//EN"
       "http://www.w3.org/Graphics/SVG/1.1/DTD/svg11.dtd">
<svg version="1.1" xmlns="http://www.w3.org/2000/svg" xmlns:xlink="http://www.w3.org/1999/xlink" viewBox="0 0 17.5586 14.9121">
 <g>
  <rect height="14.9121" opacity="0" width="17.5586" x="0" y="0"/>
  <path d="M8.59375 0C3.84766 0 0 3.83789 0 8.59375C0 10.9277 0.927734 13.0664 2.48047 14.6289C2.77344 14.9219 3.23242 14.9414 3.56445 14.6289C3.83789 14.3555 3.7793 13.8867 3.4375 13.5059C2.23633 12.2559 1.52344 10.4883 1.52344 8.59375C1.52344 4.61914 4.63867 1.48438 8.59375 1.48438C12.5586 1.48438 15.6738 4.61914 15.6738 8.59375C15.6738 10.4883 14.9512 12.2559 13.7598 13.5059C13.418 13.8867 13.3594 14.3555 13.6328 14.6289C13.9648 14.9414 14.4238 14.9219 14.7168 14.6289C16.2695 13.0664 17.1973 10.9277 17.1973 8.59375C17.1973 3.83789 13.3496 0 8.59375 0Z" fill="white" fill-opacity="0.85"/>
  <path d="M8.13477 4.98047L9.08203 4.98047L9.08203 3.99414C9.08203 3.74023 8.87695 3.53516 8.60352 3.53516C8.33984 3.53516 8.13477 3.74023 8.13477 3.99414ZM4.85352 8.90625C4.99023 8.90625 5.12695 8.81836 5.22461 8.67188C5.48828 8.26172 5.76172 8.0957 6.14258 8.0957C6.51367 8.0957 6.76758 8.26172 6.99219 8.66211C7.08984 8.82812 7.1875 8.90625 7.30469 8.90625C7.43164 8.90625 7.53906 8.82812 7.62695 8.66211C7.8418 8.29102 8.22266 8.06641 8.60352 8.06641C8.99414 8.06641 9.375 8.29102 9.58984 8.66211C9.67773 8.82812 9.78516 8.90625 9.90234 8.90625C10.0293 8.90625 10.127 8.82812 10.2246 8.66211C10.4492 8.26172 10.6934 8.0957 11.0742 8.0957C11.4453 8.0957 11.7285 8.26172 11.9922 8.67188C12.0898 8.81836 12.2266 8.90625 12.3535 8.90625C12.5879 8.90625 12.7344 8.71094 12.7344 8.45703C12.7344 6.83594 11.4453 4.52148 8.60352 4.52148C5.76172 4.52148 4.48242 6.83594 4.48242 8.45703C4.48242 8.71094 4.62891 8.90625 4.85352 8.90625ZM7.64648 13.2715C8.44727 13.2715 9.08203 12.6562 9.08203 11.8359L9.08203 7.76367L8.13477 7.76367L8.13477 11.8359C8.13477 12.1191 7.92969 12.3242 7.64648 12.3242C7.37305 12.3242 7.16797 12.1191 7.16797 11.8359C7.16797 11.5332 6.96289 11.2891 6.67969 11.2891C6.40625 11.2891 6.2207 11.5332 6.2207 11.8359C6.2207 12.6562 6.82617 13.2715 7.64648 13.2715Z" fill="white" fill-opacity="0.85"/>
 </g>
</svg>
