<svg version="1.1" xmlns="http://www.w3.org/2000/svg" xmlns:xlink="http://www.w3.org/1999/xlink" viewBox="0 0 16.1328 15.7715">
 <g>
  <rect height="15.7715" opacity="0" width="16.1328" x="0" y="0"/>
  <path d="M15.7715 7.88086C15.7715 12.2363 12.2363 15.7617 7.88086 15.7617C3.53516 15.7617 0 12.2363 0 7.88086C0 3.52539 3.53516 0 7.88086 0C12.2363 0 15.7715 3.52539 15.7715 7.88086ZM1.49414 7.88086C1.49414 11.416 4.3457 14.2773 7.88086 14.2773C11.416 14.2773 14.2773 11.416 14.2773 7.88086C14.2773 4.3457 11.416 1.48438 7.88086 1.48438C4.3457 1.48438 1.49414 4.3457 1.49414 7.88086Z" fill="var(--color-secondary)"/>
  <path d="M3.79883 5.13672L9.4526 10.7824C9.25518 10.922 8.99499 10.9961 8.68164 10.9961L4.63867 10.9961C3.87695 10.9961 3.41797 10.5469 3.41797 9.79492L3.41797 5.98633C3.41797 5.60306 3.54406 5.30138 3.76161 5.09644ZM12.8223 5.89844L12.8223 9.87305C12.8223 10.2051 12.6172 10.4395 12.3047 10.4395C12.168 10.4395 12.0117 10.3613 11.875 10.2441L10.3418 8.92578L10.3418 6.85547L11.875 5.52734C12.002 5.41992 12.168 5.3418 12.3047 5.3418C12.6172 5.3418 12.8223 5.57617 12.8223 5.89844ZM9.90234 5.98633L9.90234 8.55469L6.13281 4.78516L8.73047 4.78516C9.49219 4.78516 9.90234 5.22461 9.90234 5.98633Z" fill="var(--color-primary)"/>
  <path d="M11.0645 11.5723C11.2012 11.7188 11.4551 11.7188 11.5918 11.5723C11.748 11.416 11.748 11.1914 11.5918 11.0352L4.74609 4.18945C4.58984 4.0332 4.35547 4.0332 4.19922 4.18945C4.0625 4.33594 4.0625 4.58008 4.19922 4.72656Z" fill="var(--color-primary)"/>
 </g>
</svg>
