<?xml version="1.0" encoding="UTF-8"?>
<!--Generator: Apple Native CoreSVG 341-->
<!DOCTYPE svg
PUBLIC "-//W3C//DTD SVG 1.1//EN"
       "http://www.w3.org/Graphics/SVG/1.1/DTD/svg11.dtd">
<svg version="1.1" xmlns="http://www.w3.org/2000/svg" xmlns:xlink="http://www.w3.org/1999/xlink" viewBox="0 0 29.7363 12.4316">
 <g>
  <rect height="12.4316" opacity="0" width="29.7363" x="0" y="0"/>
  <path d="M25.6836 6.20117C25.6836 9.61914 23.5156 12.207 20.6641 12.207C17.7148 12.207 16.1621 9.7168 14.6875 9.7168C13.2129 9.7168 11.6602 12.207 8.7207 12.207C6.43124 12.207 4.58568 10.5502 3.94287 8.13477L5.35088 8.13477C5.84935 9.83781 7.05666 10.8008 8.7207 10.8008C11.4258 10.8008 12.373 8.30078 14.6875 8.30078C17.002 8.30078 17.959 10.8008 20.6641 10.8008C22.8711 10.8008 24.2773 9.0918 24.2773 6.20117C24.2773 1.8457 20.5957 1.40625 14.6875 1.40625C9.62639 1.40625 6.19914 1.73589 5.32883 4.57031L3.87024 4.57031C4.77164 0.497093 9.27908 0 14.6875 0C20.752 0 25.6836 0.615234 25.6836 6.20117Z" fill="white" fill-opacity="0.425"/>
  <path d="M7.62695 4.0332C7.62695 4.20898 7.68555 4.38477 7.83203 4.52148L8.7207 5.32227L9.83398 6.34766L8.7207 7.38281L7.83203 8.18359C7.68555 8.31055 7.62695 8.48633 7.62695 8.65234C7.62695 9.01367 7.88086 9.28711 8.23242 9.28711C8.41797 9.28711 8.56445 9.21875 8.69141 9.08203L10.8105 6.85547C10.9766 6.67969 11.0449 6.52344 11.0449 6.34766C11.0449 6.17188 10.9766 6.02539 10.8105 5.83984L8.69141 3.61328C8.56445 3.48633 8.41797 3.4082 8.23242 3.4082C7.88086 3.4082 7.62695 3.67188 7.62695 4.0332ZM1.11328 6.34766C1.11328 6.72852 1.42578 7.04102 1.79688 7.04102L7.97852 7.04102L10.2051 6.93359C10.5273 6.91406 10.791 6.66992 10.791 6.34766C10.791 6.02539 10.5273 5.78125 10.2051 5.76172L7.97852 5.6543L1.79688 5.6543C1.42578 5.6543 1.11328 5.97656 1.11328 6.34766Z" fill="white" fill-opacity="0.85"/>
 </g>
</svg>
