<?xml version="1.0" encoding="UTF-8"?>
<!--Generator: Apple Native CoreSVG 341-->
<!DOCTYPE svg
PUBLIC "-//W3C//DTD SVG 1.1//EN"
       "http://www.w3.org/Graphics/SVG/1.1/DTD/svg11.dtd">
<svg version="1.1" xmlns="http://www.w3.org/2000/svg" xmlns:xlink="http://www.w3.org/1999/xlink" viewBox="0 0 18.6914 16.0059">
 <g>
  <rect height="16.0059" opacity="0" width="18.6914" x="0" y="0"/>
  <path d="M2.40234 16.0059L14.6094 16.0059C16.2109 16.0059 17.0117 15.2051 17.0117 13.6328L17.0117 11.3379L15.5957 11.3379L15.5957 13.5645C15.5957 14.248 15.2344 14.5898 14.5898 14.5898L2.42188 14.5898C1.77734 14.5898 1.41602 14.248 1.41602 13.5645L1.41602 5.78125C1.41602 5.10742 1.77734 4.75586 2.42188 4.75586L14.5898 4.75586C15.2344 4.75586 15.5957 5.10742 15.5957 5.78125L15.5957 7.67578L17.0117 7.67578L17.0117 5.71289C17.0117 4.14062 16.2109 3.33984 14.6094 3.33984L6.69922 3.33984C6.5625 3.33984 6.54297 3.22266 6.68945 3.18359L11.9824 1.69922C12.6562 1.49414 12.998 1.70898 12.998 2.33398L12.998 3.93555L14.4141 3.80859L14.4141 2.4707C14.4141 0.527344 13.0859 0 11.3379 0.507812L1.74805 3.35938C0.537109 3.7207 0 4.43359 0 5.71289L0 13.6328C0 15.2148 0.810547 16.0059 2.40234 16.0059ZM14.0039 10.4004C14.4141 10.4004 14.7559 10.0684 14.7559 9.6582C14.7559 9.23828 14.4141 8.90625 14.0039 8.90625C13.584 8.90625 13.252 9.23828 13.252 9.6582C13.252 10.0684 13.584 10.4004 14.0039 10.4004ZM13.8184 12.0703L16.7285 12.0703C17.7148 12.0703 18.3301 11.3477 18.3301 10.4688L18.3301 8.85742C18.3301 7.97852 17.7148 7.26562 16.7285 7.26562L13.8184 7.26562C12.334 7.26562 11.2891 8.04688 11.2891 9.66797C11.2891 11.2793 12.334 12.0703 13.8184 12.0703ZM13.916 10.918C12.9395 10.918 12.5 10.4297 12.5 9.66797C12.5 8.89648 12.9395 8.41797 13.916 8.41797L16.377 8.41797C16.9043 8.41797 17.1777 8.71094 17.1777 9.20898L17.1777 10.127C17.1777 10.625 16.9043 10.918 16.377 10.918Z" fill="white" fill-opacity="0.85"/>
 </g>
</svg>
