<?xml version="1.0" encoding="UTF-8"?>
<!--Generator: Apple Native CoreSVG 341-->
<!DOCTYPE svg
PUBLIC "-//W3C//DTD SVG 1.1//EN"
       "http://www.w3.org/Graphics/SVG/1.1/DTD/svg11.dtd">
<svg version="1.1" xmlns="http://www.w3.org/2000/svg" xmlns:xlink="http://www.w3.org/1999/xlink" viewBox="0 0 13.3691 19.6387">
 <g>
  <rect height="19.6387" opacity="0" width="13.3691" x="0" y="0"/>
  <path d="M2.45117 18.6914L10.5469 18.6914C12.1875 18.6914 13.0078 17.8711 13.0078 16.2012L13.0078 4.70703C13.0078 3.04688 12.1875 2.2168 10.6445 2.2168L10.5957 2.2168C10.5957 2.24609 10.5957 2.28516 10.5957 2.31445L10.5957 3.26172C10.5957 4.29688 9.90234 5.03906 8.87695 5.03906L4.12109 5.03906C3.10547 5.03906 2.41211 4.29688 2.41211 3.26172L2.41211 2.31445C2.41211 2.28516 2.41211 2.24609 2.41211 2.2168L2.36328 2.2168C0.810547 2.2168 0 3.04688 0 4.70703L0 16.2012C0 17.8711 0.810547 18.6914 2.45117 18.6914ZM4.12109 4.08203L8.87695 4.08203C9.35547 4.08203 9.64844 3.7793 9.64844 3.26172L9.64844 2.44141C9.64844 1.92383 9.35547 1.62109 8.87695 1.62109L8.24219 1.62109C8.18359 0.722656 7.43164 0 6.50391 0C5.57617 0 4.82422 0.722656 4.75586 1.62109L4.12109 1.62109C3.64258 1.62109 3.35938 1.92383 3.35938 2.44141L3.35938 3.26172C3.35938 3.7793 3.64258 4.08203 4.12109 4.08203ZM6.50391 2.35352C6.14258 2.35352 5.83984 2.05078 5.83984 1.68945C5.83984 1.32812 6.14258 1.03516 6.50391 1.03516C6.86523 1.03516 7.1582 1.32812 7.1582 1.68945C7.1582 2.05078 6.86523 2.35352 6.50391 2.35352Z" fill="white" fill-opacity="0.2125"/>
  <path d="M3.84766 9.3457C3.59375 9.3457 3.38867 9.13086 3.38867 8.88672C3.38867 8.65234 3.59375 8.44727 3.84766 8.44727L4.64844 8.44727L5.19531 6.2207C5.3125 5.75195 5.95703 5.76172 6.05469 6.23047L6.5918 8.88672L7.1582 7.11914C7.30469 6.67969 7.91016 6.66016 8.03711 7.11914L8.37891 8.44727L9.16016 8.44727C9.41406 8.44727 9.60938 8.64258 9.60938 8.88672C9.60938 9.13086 9.4043 9.3457 9.16016 9.3457L8.0957 9.3457C7.8418 9.3457 7.67578 9.19922 7.61719 8.95508L7.55859 8.75L6.98242 10.7031C6.83594 11.1719 6.19141 11.1719 6.10352 10.6836L5.60547 8.31055L5.43945 8.97461C5.38086 9.19922 5.21484 9.3457 4.96094 9.3457ZM3.05664 13.1152C2.74414 13.1152 2.5 12.8711 2.5 12.5586C2.5 12.2559 2.74414 12.0117 3.05664 12.0117L9.95117 12.0117C10.2637 12.0117 10.5078 12.2559 10.5078 12.5586C10.5078 12.8711 10.2637 13.1152 9.95117 13.1152ZM3.05664 16.0547C2.75391 16.0547 2.5 15.8008 2.5 15.498C2.5 15.1855 2.74414 14.9414 3.05664 14.9414L6.99219 14.9414C7.30469 14.9414 7.54883 15.1855 7.54883 15.498C7.54883 15.8008 7.29492 16.0547 6.99219 16.0547Z" fill="white" fill-opacity="0.85"/>
 </g>
</svg>
