<?xml version="1.0" encoding="UTF-8"?>
<!--Generator: Apple Native CoreSVG 341-->
<!DOCTYPE svg
PUBLIC "-//W3C//DTD SVG 1.1//EN"
       "http://www.w3.org/Graphics/SVG/1.1/DTD/svg11.dtd">
<svg version="1.1" xmlns="http://www.w3.org/2000/svg" xmlns:xlink="http://www.w3.org/1999/xlink" viewBox="0 0 16.1328 15.7715">
 <g>
  <rect height="15.7715" opacity="0" width="16.1328" x="0" y="0"/>
  <path d="M15.7715 7.89062C15.7715 12.2363 12.2363 15.7715 7.88086 15.7715C3.53516 15.7715 0 12.2363 0 7.89062C0 3.54492 3.53516 0.00976562 7.88086 0.00976562C12.2363 0.00976562 15.7715 3.54492 15.7715 7.89062ZM12.0996 8.73047C10.9277 9.55078 9.41406 9.99023 7.87109 9.99023C6.34766 9.99023 4.81445 9.54102 3.64258 8.73047C3.33984 8.52539 2.96875 8.56445 2.76367 8.84766C2.56836 9.12109 2.64648 9.50195 2.94922 9.7168C4.29688 10.6641 6.06445 11.2012 7.87109 11.2012C9.66797 11.2012 11.4258 10.6641 12.8027 9.7168C13.1055 9.51172 13.1836 9.13086 12.9785 8.84766C12.7734 8.56445 12.4023 8.52539 12.0996 8.73047ZM10.7129 6.67969C9.96094 7.20703 8.92578 7.5293 7.87109 7.5293C6.82617 7.5293 5.78125 7.20703 5.0293 6.67969C4.7168 6.46484 4.33594 6.5332 4.15039 6.80664C3.93555 7.08984 4.01367 7.45117 4.30664 7.66602C5.29297 8.35938 6.57227 8.75 7.87109 8.75C9.19922 8.75 10.4785 8.35938 11.4355 7.66602C11.7285 7.45117 11.8066 7.08984 11.6016 6.80664C11.4062 6.5332 11.0254 6.46484 10.7129 6.67969ZM9.32617 4.63867C8.98438 4.90234 8.4375 5.06836 7.87109 5.06836C7.32422 5.06836 6.77734 4.90234 6.41602 4.63867C6.10352 4.41406 5.72266 4.48242 5.50781 4.78516C5.32227 5.06836 5.39062 5.43945 5.67383 5.63477C6.21094 6.04492 7.04102 6.28906 7.87109 6.28906C8.67188 6.28906 9.49219 6.04492 10.0781 5.63477C10.3516 5.42969 10.4297 5.06836 10.2441 4.78516C10.0391 4.47266 9.64844 4.4043 9.32617 4.63867Z" fill="white" fill-opacity="0.85"/>
 </g>
</svg>
