<?xml version="1.0" encoding="UTF-8"?>
<!--Generator: Apple Native CoreSVG 341-->
<!DOCTYPE svg
PUBLIC "-//W3C//DTD SVG 1.1//EN"
       "http://www.w3.org/Graphics/SVG/1.1/DTD/svg11.dtd">
<svg version="1.1" xmlns="http://www.w3.org/2000/svg" xmlns:xlink="http://www.w3.org/1999/xlink" viewBox="0 0 29.5508 12.7246">
 <g>
  <rect height="12.7246" opacity="0" width="29.5508" x="0" y="0"/>
  <path d="M7.8418 10.3613C7.8418 11.4941 6.94336 12.3828 5.82031 12.3828C4.69727 12.3828 3.79883 11.4844 3.79883 10.3613C3.79883 9.24805 4.69727 8.34961 5.82031 8.34961C6.93359 8.34961 7.8418 9.24805 7.8418 10.3613ZM24.0625 10.3613C24.0625 11.4844 23.1543 12.3828 22.041 12.3828C20.918 12.3828 20.0195 11.4844 20.0195 10.3613C20.0195 9.25781 20.9277 8.34961 22.041 8.34961C23.1543 8.34961 24.0625 9.24805 24.0625 10.3613ZM20.8594 2.39258L21.0352 3.90625L27.1387 3.90625C28.4082 3.90625 29.1895 4.7168 29.1895 6.00586L29.1895 9.0332C29.1895 10.332 28.4082 11.1328 27.1387 11.1328L24.9121 11.1328C24.9805 10.8789 25.0098 10.6348 25.0098 10.3613C25.0098 8.7207 23.6816 7.39258 22.041 7.39258C20.4004 7.39258 19.0625 8.73047 19.0625 10.3613C19.0625 10.6348 19.1016 10.8789 19.1699 11.1328L8.70117 11.1328C8.75977 10.8887 8.79883 10.6348 8.79883 10.3613C8.79883 8.7207 7.46094 7.39258 5.82031 7.39258C4.16992 7.39258 2.8418 8.7207 2.8418 10.3613C2.8418 10.6348 2.88086 10.8789 2.94922 11.1328L2.05078 11.1328C0.78125 11.1328 0 10.332 0 9.0332L0 7.06055C0 5.26367 1.03516 4.26758 3.35938 3.90625L6.2207 3.44727L9.32617 1.50391C11.0645 0.419922 12.6562 0 15.1172 0L18.2031 0C19.7949 0 20.6738 0.791016 20.8594 2.39258ZM17.5195 6.33789C16.582 6.98242 15.3711 7.34375 14.1406 7.34375C12.9199 7.34375 11.6992 6.97266 10.752 6.33789C10.5078 6.16211 10.2148 6.20117 10.0586 6.42578C9.89258 6.65039 9.95117 6.95312 10.1953 7.12891C11.2793 7.89062 12.6953 8.31055 14.1406 8.31055C15.5762 8.31055 16.9824 7.89062 18.0762 7.12891C18.3398 6.96289 18.3887 6.66016 18.2227 6.42578C18.0664 6.20117 17.7637 6.16211 17.5195 6.33789ZM16.4062 4.69727C15.8203 5.11719 14.9805 5.37109 14.1406 5.37109C13.3008 5.37109 12.4609 5.11719 11.875 4.69727C11.6113 4.52148 11.3086 4.58008 11.1523 4.79492C10.9961 5.0293 11.0547 5.30273 11.2891 5.48828C12.0801 6.03516 13.0957 6.34766 14.1406 6.34766C15.1953 6.34766 16.2305 6.03516 16.9922 5.48828C17.2266 5.30273 17.2852 5.0293 17.1289 4.79492C16.9727 4.58008 16.6602 4.52148 16.4062 4.69727ZM15.3027 3.06641C15.0293 3.27148 14.5996 3.39844 14.1406 3.39844C13.7012 3.39844 13.2715 3.27148 12.9785 3.06641C12.7246 2.88086 12.4219 2.93945 12.2461 3.17383C12.0996 3.39844 12.1484 3.70117 12.3828 3.85742C12.8125 4.18945 13.4766 4.38477 14.1406 4.38477C14.7852 4.38477 15.4395 4.18945 15.9082 3.85742C16.123 3.69141 16.1816 3.39844 16.0352 3.17383C15.8789 2.92969 15.5566 2.87109 15.3027 3.06641Z" fill="white" fill-opacity="0.85"/>
 </g>
</svg>
