<?xml version="1.0" encoding="UTF-8"?>
<!--Generator: Apple Native CoreSVG 341-->
<!DOCTYPE svg
PUBLIC "-//W3C//DTD SVG 1.1//EN"
       "http://www.w3.org/Graphics/SVG/1.1/DTD/svg11.dtd">
<svg version="1.1" xmlns="http://www.w3.org/2000/svg" xmlns:xlink="http://www.w3.org/1999/xlink" viewBox="0 0 28.7402 13.0371">
 <g>
  <rect height="13.0371" opacity="0" width="28.7402" x="0" y="0"/>
  <path d="M8.7207 10.7227C8.7207 12.0215 7.70508 13.0371 6.40625 13.0371C5.10742 13.0371 4.10156 12.0215 4.10156 10.7227C4.10156 9.43359 5.10742 8.42773 6.40625 8.42773C7.70508 8.42773 8.7207 9.43359 8.7207 10.7227ZM24.3066 10.7227C24.3066 12.0215 23.291 13.0371 22.002 13.0371C20.7031 13.0371 19.6875 12.0215 19.6875 10.7227C19.6875 9.43359 20.7031 8.42773 22.002 8.42773C23.291 8.42773 24.3066 9.43359 24.3066 10.7227ZM14.7559 1.66992C13.4473 2.35352 12.4512 3.03711 11.4355 3.73047L19.1504 3.22266C20.4297 3.13477 21.3379 3.25195 22.4219 3.45703L25.9668 4.13086C27.7148 4.46289 28.3789 5.24414 28.3789 7.13867L28.3789 8.4668C28.3789 10.0391 27.6367 10.8887 26.1328 11.0352L25.2539 11.123C25.2637 11.0352 25.2637 11.0059 25.2637 10.9082C25.2637 9.10156 23.8184 7.4707 22.002 7.4707C20.1758 7.4707 18.7305 8.91602 18.7305 10.7227C18.7305 10.957 18.7598 11.2012 18.8086 11.3672L9.61914 11.3672C9.6582 11.2207 9.67773 10.9473 9.67773 10.7227C9.67773 8.91602 8.23242 7.4707 6.40625 7.4707C4.58984 7.4707 3.14453 8.91602 3.14453 10.7227C3.14453 10.9863 3.17383 11.4355 3.22266 11.6699L1.77734 11.5039C0.537109 11.3574 0 10.7617 0 9.52148L0 8.49609C0 6.47461 1.2793 5.2832 3.81836 4.80469L8.95508 3.85742C10.4199 2.61719 12.168 1.48438 13.9941 0.517578C14.9121 0.0390625 15.6055 1.23047 14.7559 1.66992ZM17.4219 7.30469C16.5137 7.91992 15.3418 8.27148 14.1504 8.27148C12.9688 8.27148 11.7871 7.91992 10.8789 7.30469C10.6445 7.13867 10.3516 7.16797 10.1758 7.39258C10.0293 7.60742 10.0977 7.89062 10.3223 8.07617C11.3672 8.80859 12.7441 9.21875 14.1504 9.21875C15.5469 9.21875 16.9043 8.80859 17.9785 8.07617C18.2031 7.90039 18.2715 7.61719 18.1152 7.39258C17.9492 7.16797 17.666 7.13867 17.4219 7.30469ZM16.3477 5.71289C15.7715 6.12305 14.9609 6.35742 14.1504 6.35742C13.3398 6.35742 12.5293 6.12305 11.9531 5.71289C11.709 5.54688 11.4062 5.5957 11.2598 5.80078C11.1035 6.03516 11.1523 6.31836 11.377 6.46484C12.1387 7.01172 13.1445 7.32422 14.1504 7.32422C15.1758 7.32422 16.1816 7.01172 16.9238 6.46484C17.1387 6.31836 17.207 6.03516 17.041 5.80078C16.8945 5.5957 16.5918 5.54688 16.3477 5.71289Z" fill="white" fill-opacity="0.85"/>
 </g>
</svg>
