<svg version="1.1" xmlns="http://www.w3.org/2000/svg" xmlns:xlink="http://www.w3.org/1999/xlink" viewBox="0 0 27.8906 12.7246">
 <g>
  <rect height="12.7246" opacity="0" width="27.8906" x="0" y="0"/>
  <path d="M2.05078 10.9473L4.52148 10.9473L4.52148 9.54102L2.12891 9.54102C1.68945 9.54102 1.40625 9.20898 1.40625 8.66211L1.40625 7.5293C1.40625 6.20117 2.32422 5.43945 4.18945 5.20508L7.34375 4.80469L10.7129 2.71484C12.4023 1.66016 13.4082 1.41602 16.3477 1.41602L22.3633 1.41602C23.6816 1.41602 24.4141 1.76758 25.0391 2.64648L25.3906 3.14453C25.8398 3.79883 26.123 4.63867 26.123 5.3418L26.123 8.67188C26.123 9.26758 25.8984 9.54102 25.4004 9.54102L23.4375 9.54102L23.4375 10.9473L25.4785 10.9473C26.9043 10.9473 27.5293 10.2246 27.5293 8.57422L27.5293 5.3418C27.5293 4.38477 27.168 3.23242 26.5527 2.35352L26.2012 1.8457C25.2832 0.517578 24.209 0 22.3633 0L16.3477 0C13.1543 0 11.8652 0.3125 9.96094 1.51367L6.86523 3.44727L4.01367 3.79883C1.32812 4.13086 0 5.36133 0 7.5293L0 8.84766C0 10.1465 0.78125 10.9473 2.05078 10.9473ZM8.01758 10.9473L20.0195 10.9473L20.0195 9.54102L8.01758 9.54102ZM6.2207 12.7148C7.72461 12.7148 8.90625 11.5332 8.90625 10.0195C8.90625 8.50586 7.72461 7.32422 6.2207 7.32422C4.70703 7.32422 3.52539 8.50586 3.52539 10.0195C3.52539 11.5332 4.70703 12.7148 6.2207 12.7148ZM6.2207 11.2988C5.49805 11.2988 4.93164 10.7422 4.93164 10.0195C4.93164 9.29688 5.49805 8.74023 6.2207 8.74023C6.94336 8.74023 7.5 9.29688 7.5 10.0195C7.5 10.7422 6.94336 11.2988 6.2207 11.2988ZM21.7969 12.7148C23.3105 12.7148 24.4922 11.5332 24.4922 10.0195C24.4922 8.50586 23.3105 7.32422 21.7969 7.32422C20.293 7.32422 19.1113 8.50586 19.1113 10.0195C19.1113 11.5332 20.293 12.7148 21.7969 12.7148ZM21.7969 11.2988C21.084 11.2988 20.5176 10.7422 20.5176 10.0195C20.5176 9.29688 21.084 8.74023 21.7969 8.74023C22.5195 8.74023 23.0859 9.29688 23.0859 10.0195C23.0859 10.7422 22.5195 11.2988 21.7969 11.2988Z" fill="var(--color-secondary)"/>
  <path d="M14.4238 8.22266C15.8203 8.22266 17.168 7.8125 18.2324 7.08008C18.4668 6.91406 18.5254 6.63086 18.3691 6.41602C18.2129 6.19141 17.9199 6.15234 17.6855 6.31836C16.7871 6.94336 15.6152 7.29492 14.4238 7.29492C13.252 7.29492 12.0801 6.94336 11.1719 6.31836C10.9375 6.15234 10.6543 6.19141 10.4883 6.41602C10.3418 6.62109 10.4004 6.91406 10.625 7.08008C11.6797 7.8125 13.0371 8.22266 14.4238 8.22266Z" fill="var(--color-primary)"/>
  <path d="M14.4238 6.32812C15.4492 6.32812 16.4453 6.03516 17.1777 5.49805C17.4023 5.33203 17.4609 5.04883 17.3047 4.83398C17.1582 4.62891 16.8555 4.58008 16.6211 4.73633C16.0352 5.14648 15.2441 5.38086 14.4238 5.38086C13.623 5.38086 12.8125 5.14648 12.2363 4.73633C11.9922 4.58008 11.6992 4.62891 11.5625 4.83398C11.3965 5.04883 11.4453 5.33203 11.6699 5.49805C12.4316 6.03516 13.4277 6.32812 14.4238 6.32812Z" fill="var(--color-primary)"/>
  <path d="M14.4238 4.44336C15.0488 4.44336 15.6836 4.24805 16.1328 3.92578C16.3379 3.7793 16.4062 3.49609 16.2598 3.27148C16.1035 3.02734 15.8008 2.98828 15.5469 3.17383C15.293 3.36914 14.8633 3.49609 14.4238 3.49609C14.0039 3.49609 13.584 3.36914 13.3105 3.17383C13.0664 2.98828 12.7734 3.03711 12.5977 3.27148C12.4609 3.49609 12.5098 3.7793 12.7344 3.92578C13.1543 4.24805 13.7891 4.44336 14.4238 4.44336Z" fill="var(--color-primary)"/>
 </g>
</svg>
