<svg version="1.1" xmlns="http://www.w3.org/2000/svg" xmlns:xlink="http://www.w3.org/1999/xlink" viewBox="0 0 28.7402 13.0371">
 <g>
  <rect height="13.0371" opacity="0" width="28.7402" x="0" y="0"/>
  <path d="M6.40625 13.0371C7.70508 13.0371 8.7207 12.0215 8.7207 10.7227C8.7207 9.43359 7.70508 8.42773 6.40625 8.42773C5.10742 8.42773 4.10156 9.43359 4.10156 10.7227C4.10156 12.0215 5.10742 13.0371 6.40625 13.0371ZM22.002 13.0371C23.291 13.0371 24.3066 12.0215 24.3066 10.7227C24.3066 9.43359 23.291 8.42773 22.002 8.42773C20.7031 8.42773 19.6875 9.43359 19.6875 10.7227C19.6875 12.0215 20.7031 13.0371 22.002 13.0371ZM21.6113 3.27148C21.1035 3.16406 20.625 3.125 20.1367 3.16406L11.6992 3.73047L14.7559 1.66992C15.5566 1.13281 14.7656-0.0390625 13.9258 0.527344L8.95508 3.85742L3.81836 4.80469C1.2793 5.2832 0 6.47461 0 8.49609L0 9.52148C0 10.7617 0.537109 11.3574 1.77734 11.5039L3.22266 11.6699C3.17383 11.4355 3.14453 10.9863 3.14453 10.7227C3.14453 8.91602 4.58984 7.4707 6.40625 7.4707C8.23242 7.4707 9.67773 8.91602 9.67773 10.7227C9.67773 10.9473 9.6582 11.2207 9.61914 11.3672L18.8086 11.3672C18.7598 11.2012 18.7305 10.957 18.7305 10.7227C18.7305 8.91602 20.1758 7.4707 22.002 7.4707C23.8184 7.4707 25.2637 9.10156 25.2637 10.9082C25.2637 11.0059 25.2637 11.0352 25.2539 11.123L26.1328 11.0352C27.6367 10.8887 28.3789 10.0391 28.3789 8.4668L28.3789 7.13867C28.3789 5.24414 27.7148 4.47266 25.9668 4.13086Z" fill="var(--color-tertiary)"/>
  <path d="M14.1504 9.21875C12.7441 9.21875 11.3672 8.80859 10.3223 8.07617C10.0977 7.89062 10.0293 7.60742 10.1758 7.39258C10.3516 7.16797 10.6445 7.13867 10.8789 7.30469C11.7871 7.91992 12.9688 8.27148 14.1504 8.27148C15.3418 8.27148 16.5137 7.91992 17.4219 7.30469C17.666 7.13867 17.9492 7.16797 18.1152 7.39258C18.2715 7.61719 18.2031 7.90039 17.9785 8.07617C16.9043 8.80859 15.5469 9.21875 14.1504 9.21875Z" fill="var(--color-primary)"/>
  <path d="M14.1504 7.32422C13.1445 7.32422 12.1387 7.01172 11.377 6.46484C11.1523 6.31836 11.1035 6.03516 11.2598 5.80078C11.4062 5.5957 11.709 5.54688 11.9531 5.71289C12.5293 6.12305 13.3398 6.35742 14.1504 6.35742C14.9609 6.35742 15.7715 6.12305 16.3477 5.71289C16.5918 5.54688 16.8945 5.5957 17.041 5.80078C17.207 6.03516 17.1387 6.31836 16.9238 6.46484C16.1816 7.01172 15.1758 7.32422 14.1504 7.32422Z" fill="var(--color-primary)"/>
 </g>
</svg>
