<?xml version="1.0" encoding="UTF-8"?>
<!--Generator: Apple Native CoreSVG 341-->
<!DOCTYPE svg
PUBLIC "-//W3C//DTD SVG 1.1//EN"
       "http://www.w3.org/Graphics/SVG/1.1/DTD/svg11.dtd">
<svg version="1.1" xmlns="http://www.w3.org/2000/svg" xmlns:xlink="http://www.w3.org/1999/xlink" viewBox="0 0 23.8672 16.1816">
 <g>
  <rect height="16.1816" opacity="0" width="23.8672" x="0" y="0"/>
  <path d="M23.5059 12.3047C23.5059 12.8711 22.998 13.3594 22.4023 13.3594C21.8066 13.3594 21.2988 12.8711 21.2988 12.3047C21.2988 11.7188 21.7969 11.25 22.4023 11.25C23.0078 11.25 23.5059 11.7188 23.5059 12.3047ZM23.3398 3.74023L23.1543 9.12109C23.1348 9.57031 22.832 9.87305 22.4023 9.87305C21.9727 9.87305 21.6699 9.57031 21.6504 9.12109L21.4648 3.74023C21.4453 3.18359 21.8262 2.80273 22.4023 2.80273C22.9883 2.80273 23.3594 3.18359 23.3398 3.74023Z" fill="white" fill-opacity="0.85"/>
  <path d="M1.93758 2.79904C1.59373 2.96206 1.40625 3.30073 1.40625 3.80859L1.40625 9.42383C1.40625 10.166 1.80664 10.5371 2.50977 10.5371L6.40766 10.5371L7.22566 11.9531L2.49023 11.9531C0.830078 11.9531 0 11.1328 0 9.49219L0 3.73047C0 2.59497 0.397622 1.8571 1.19353 1.51103ZM18.877 3.73047L18.877 9.49219C18.877 11.1328 18.0566 11.9531 16.3867 11.9531L8.85918 11.9531L8.04106 10.5371L16.3672 10.5371C17.0703 10.5371 17.4707 10.166 17.4707 9.42383L17.4707 3.80859C17.4707 3.06641 17.0703 2.68555 16.3672 2.68555L3.50474 2.68555L2.69226 1.2793L16.3867 1.2793C18.0566 1.2793 18.877 2.08984 18.877 3.73047Z" fill="white" fill-opacity="0.85"/>
  <path d="M9.43359 16.1816C10.4199 16.1816 11.25 15.3613 11.25 14.375C11.25 13.3691 10.4297 12.5586 9.43359 12.5586C8.44727 12.5586 7.62695 13.3691 7.62695 14.375C7.62695 15.3613 8.4375 16.1816 9.43359 16.1816ZM9.43359 15.0195C9.07227 15.0195 8.7793 14.7363 8.7793 14.375C8.7793 14.0039 9.07227 13.6914 9.43359 13.6914C9.79492 13.6914 10.1074 14.0039 10.1074 14.375C10.1074 14.7363 9.79492 15.0195 9.43359 15.0195ZM8.21289 13.6621L9.46289 12.998L2.20703 0.439453C2.02148 0.117188 1.61133-0.00976562 1.23047 0.185547C0.869141 0.371094 0.791016 0.820312 0.986328 1.15234Z" fill="white" fill-opacity="0.85"/>
 </g>
</svg>
