<?xml version="1.0" encoding="UTF-8"?>
<!--Generator: Apple Native CoreSVG 341-->
<!DOCTYPE svg
PUBLIC "-//W3C//DTD SVG 1.1//EN"
       "http://www.w3.org/Graphics/SVG/1.1/DTD/svg11.dtd">
<svg version="1.1" xmlns="http://www.w3.org/2000/svg" xmlns:xlink="http://www.w3.org/1999/xlink" viewBox="0 0 22.7325 17.002">
 <g>
  <rect height="17.002" opacity="0" width="22.7325" x="0" y="0"/>
  <path d="M21.7666 2.93945C22.4795 3.49609 22.5674 4.25781 21.9912 4.98047L17.2876 10.9614C17.3053 10.8317 17.3135 10.693 17.3135 10.5469C17.3135 9.94339 17.1503 9.50965 16.9427 9.10809L20.585 4.48242C20.7315 4.28711 20.7119 4.12109 20.5069 3.97461C17.8506 2.31445 14.5889 1.40625 11.1807 1.40625C7.7725 1.40625 4.51078 2.31445 1.85453 3.97461C1.64945 4.12109 1.62992 4.28711 1.7764 4.48242L6.35648 10.2832C6.45414 10.4199 6.53226 10.4395 6.67875 10.3809C6.92629 10.2791 7.17384 10.1844 7.41994 10.0998C7.45813 10.2359 7.47953 10.3827 7.47953 10.5469C7.47953 10.9845 7.37946 11.3399 7.23411 11.6649C7.04321 11.7492 6.86108 11.8393 6.68851 11.9336C6.32718 12.1289 5.92679 12.0508 5.69242 11.748L0.370152 4.98047C-0.196254 4.25781-0.108363 3.49609 0.604527 2.93945C2.7139 1.28906 6.7764 1.77636e-15 11.1807 1.77636e-15C15.585 1.77636e-15 19.6573 1.28906 21.7666 2.93945ZM15.6436 10.3613C15.8389 10.4395 15.917 10.4102 16.0635 10.2246L16.1317 10.138C16.1632 10.2633 16.1807 10.3979 16.1807 10.5469C16.1807 11.1283 16.0041 11.5646 15.783 11.9798C15.7494 11.9672 15.7159 11.9516 15.6827 11.9336C14.8974 11.5047 13.9104 11.1618 12.9319 10.9634C12.9497 10.8331 12.958 10.6937 12.958 10.5469C12.958 10.139 12.8841 9.80867 12.7724 9.51359C13.6978 9.67526 14.6802 9.96499 15.6436 10.3613ZM11.4251 9.37327C11.646 9.74005 11.8252 10.0698 11.8252 10.5469C11.8252 10.6352 11.8212 10.7203 11.8123 10.8015C11.5955 10.7809 11.3844 10.7715 11.1807 10.7715C10.3624 10.7715 9.42983 10.9238 8.54564 11.187C8.58199 10.9901 8.60257 10.7778 8.60257 10.5469C8.60257 10.2489 8.5631 9.99228 8.49746 9.76139C9.45324 9.50227 10.3688 9.36523 11.1807 9.36523C11.2603 9.36523 11.3408 9.36653 11.4251 9.37327Z" fill="white" fill-opacity="0.85"/>
  <path d="M5.16507 6.09375C4.97953 6.35742 5.14554 6.72852 5.49711 6.72852L8.16312 6.72852C8.52445 6.72852 8.6807 6.35742 8.50492 6.09375L7.20609 4.19922C7.10843 4.05273 6.98148 3.98438 6.835 3.98438C6.67875 3.98438 6.55179 4.05273 6.45414 4.19922ZM7.85062 15.7324C7.47953 15.2344 7.34281 14.9219 7.34281 14.3652C7.34281 13.0176 8.60257 12.3535 8.60257 10.5469C8.60257 8.89648 7.39164 8.51563 7.39164 6.58203L7.39164 6.26953C7.39164 5.95703 7.13773 5.70313 6.82523 5.70313C6.51273 5.70313 6.25882 5.95703 6.25882 6.26953L6.25882 6.58203C6.25882 9.0625 7.47953 9.30664 7.47953 10.5469C7.47953 12.0996 6.21976 12.6172 6.21976 14.4629C6.21976 15.1758 6.43461 15.7422 6.94242 16.3965C7.41117 16.9922 8.34867 16.3965 7.85062 15.7324ZM9.51078 6.09375C9.335 6.35742 9.49125 6.72852 9.85257 6.72852L12.5186 6.72852C12.8702 6.72852 13.0362 6.35742 12.8506 6.09375L11.5616 4.19922C11.4639 4.05273 11.3369 3.98438 11.1807 3.98438C11.0342 3.98438 10.9073 4.05273 10.8096 4.19922ZM12.2061 15.7324C11.835 15.2344 11.6983 14.9219 11.6983 14.3652C11.6983 13.0176 12.958 12.3535 12.958 10.5469C12.958 8.89648 11.7471 8.51563 11.7471 6.58203L11.7471 6.26953C11.7471 5.95703 11.4932 5.70313 11.1807 5.70313C10.8682 5.70313 10.6143 5.95703 10.6143 6.26953L10.6143 6.58203C10.6143 9.0625 11.8252 9.30664 11.8252 10.5469C11.8252 12.0996 10.5655 12.6172 10.5655 14.4629C10.5655 15.1758 10.7803 15.7422 11.2881 16.3965C11.7666 16.9922 12.7041 16.3965 12.2061 15.7324ZM13.8662 6.09375C13.6905 6.35742 13.8467 6.72852 14.1983 6.72852L16.8643 6.72852C17.2256 6.72852 17.3819 6.35742 17.2061 6.09375L15.9073 4.19922C15.8096 4.05273 15.6924 3.98438 15.5362 3.98438C15.3799 3.98438 15.2627 4.05273 15.1651 4.19922ZM16.5616 15.7324C16.1905 15.2344 16.0537 14.9219 16.0537 14.3652C16.0537 13.0176 17.3135 12.3535 17.3135 10.5469C17.3135 8.89648 16.0928 8.51563 16.0928 6.58203L16.0928 6.26953C16.0928 5.95703 15.8389 5.70313 15.5362 5.70313C15.2237 5.70313 14.9698 5.95703 14.9698 6.26953L14.9698 6.58203C14.9698 9.0625 16.1807 9.30664 16.1807 10.5469C16.1807 12.0996 14.9209 12.6172 14.9209 14.4629C14.9209 15.1758 15.1358 15.7422 15.6436 16.3965C16.1123 16.9922 17.0596 16.3965 16.5616 15.7324Z" fill="white" fill-opacity="0.85"/>
 </g>
</svg>
