<?xml version="1.0" encoding="UTF-8"?>
<!--Generator: Apple Native CoreSVG 341-->
<!DOCTYPE svg
PUBLIC "-//W3C//DTD SVG 1.1//EN"
       "http://www.w3.org/Graphics/SVG/1.1/DTD/svg11.dtd">
<svg version="1.1" xmlns="http://www.w3.org/2000/svg" xmlns:xlink="http://www.w3.org/1999/xlink" viewBox="0 0 20.5859 12.9199">
 <g>
  <rect height="12.9199" opacity="0" width="20.5859" x="0" y="0"/>
  <path d="M2.50977 5.88867L2.50977 1.62109C2.50977 1.49414 2.58789 1.40625 2.70508 1.40625L9.54102 1.40625L9.54102 5.88867ZM10.6738 5.88867L10.6738 1.40625L17.5195 1.40625C17.6367 1.40625 17.7148 1.49414 17.7148 1.62109L17.7148 5.88867ZM2.50977 11.4941L2.50977 7.02148L9.54102 7.02148L9.54102 11.4941ZM10.6738 11.4941L10.6738 7.02148L17.7148 7.02148L17.7148 11.4941Z" fill="white" fill-opacity="0.2125"/>
  <path d="M0 12.1973C0 12.5879 0.322266 12.9102 0.712891 12.9102L19.5215 12.9102C19.9023 12.9102 20.2246 12.5879 20.2246 12.1973C20.2246 11.8164 19.9023 11.4941 19.5215 11.4941L19.1211 11.4941L19.1211 1.26953C19.1211 0.507812 18.6035 0 17.8125 0L2.40234 0C1.62109 0 1.10352 0.507812 1.10352 1.26953L1.10352 11.4941L0.712891 11.4941C0.322266 11.4941 0 11.8164 0 12.1973ZM2.50977 5.88867L2.50977 1.62109C2.50977 1.49414 2.58789 1.40625 2.70508 1.40625L9.54102 1.40625L9.54102 5.88867ZM10.6738 5.88867L10.6738 1.40625L17.5195 1.40625C17.6367 1.40625 17.7148 1.49414 17.7148 1.62109L17.7148 5.88867ZM2.50977 11.4941L2.50977 7.02148L9.54102 7.02148L9.54102 11.4941ZM10.6738 11.4941L10.6738 7.02148L17.7148 7.02148L17.7148 11.4941Z" fill="white" fill-opacity="0.85"/>
 </g>
</svg>
