<svg version="1.1" xmlns="http://www.w3.org/2000/svg" xmlns:xlink="http://www.w3.org/1999/xlink" viewBox="0 0 16.1328 15.7715">
 <g>
  <rect height="15.7715" opacity="0" width="16.1328" x="0" y="0"/>
  <path d="M7.88086 15.7617C12.2363 15.7617 15.7715 12.2363 15.7715 7.88086C15.7715 3.52539 12.2363 0 7.88086 0C3.53516 0 0 3.52539 0 7.88086C0 12.2363 3.53516 15.7617 7.88086 15.7617ZM7.88086 14.2773C4.3457 14.2773 1.49414 11.416 1.49414 7.88086C1.49414 4.3457 4.3457 1.48438 7.88086 1.48438C11.416 1.48438 14.2773 4.3457 14.2773 7.88086C14.2773 11.416 11.416 14.2773 7.88086 14.2773Z" fill="var(--color-secondary)"/>
  <path d="M3.52539 7.04102C4.17969 6.83594 4.83398 6.74805 5.46875 6.74805C6.26953 6.74805 6.89453 6.86523 7.65625 6.86523C8.55469 6.86523 9.11133 6.25977 9.11133 5.46875C9.11133 4.64844 8.47656 4.07227 7.71484 4.07227C7.16797 4.07227 6.66992 4.39453 6.45508 4.84375C6.35742 5.03906 6.37695 5.3125 6.61133 5.42969C6.81641 5.54688 7.08008 5.47852 7.20703 5.21484C7.30469 5.03906 7.49023 4.91211 7.71484 4.91211C8.01758 4.91211 8.26172 5.09766 8.26172 5.46875C8.26172 5.82031 8.03711 6.02539 7.65625 6.02539C6.94336 6.02539 6.30859 5.88867 5.46875 5.88867C4.7168 5.88867 3.95508 6.03516 3.27148 6.2207C2.99805 6.29883 2.88086 6.54297 2.95898 6.75781C3.01758 6.98242 3.25195 7.12891 3.52539 7.04102ZM10.5566 9.20898C11.6699 9.20898 12.4805 8.48633 12.4805 7.4707C12.4805 6.46484 11.709 5.74219 10.752 5.74219C9.88281 5.74219 9.21875 6.33789 9.10156 7.12891C9.05273 7.40234 9.21875 7.62695 9.43359 7.65625C9.67773 7.68555 9.89258 7.54883 9.95117 7.25586C10.0195 6.8457 10.3418 6.5918 10.752 6.5918C11.25 6.5918 11.6309 6.92383 11.6309 7.4707C11.6309 8.01758 11.2207 8.35938 10.5566 8.35938C9.19922 8.35938 7.71484 7.56836 5.88867 7.56836C4.96094 7.56836 4.08203 7.72461 3.26172 7.98828C3.00781 8.08594 2.88086 8.32031 2.95898 8.53516C3.01758 8.75977 3.25195 8.90625 3.52539 8.80859C4.25781 8.54492 5.00977 8.41797 5.88867 8.41797C7.68555 8.41797 9.00391 9.20898 10.5566 9.20898ZM7.65625 12.4316C8.42773 12.4316 9.0332 11.8652 9.0332 11.0449C9.0332 9.88281 7.87109 9.24805 5.77148 9.24805C4.96094 9.24805 4.04297 9.39453 3.25195 9.66797C3.00781 9.75586 2.88086 9.99023 2.95898 10.1953C3.01758 10.4199 3.25195 10.5762 3.52539 10.4785C4.22852 10.2344 4.98047 10.0879 5.77148 10.0879C7.40234 10.0879 8.18359 10.4688 8.18359 11.0449C8.18359 11.4062 7.94922 11.582 7.65625 11.582C7.35352 11.582 7.20703 11.4062 7.14844 11.0645C7.10938 10.8496 6.94336 10.6348 6.66992 10.6641C6.36719 10.6836 6.25 10.9473 6.28906 11.1816C6.37695 11.8652 6.88477 12.4316 7.65625 12.4316Z" fill="var(--color-primary)"/>
  <path d="M10.752 5.15625C10.8789 5.15625 10.9766 5.03906 10.9668 4.91211L10.9375 4.48242L11.2988 4.73633C11.3965 4.80469 11.5527 4.76562 11.6113 4.66797C11.6895 4.57031 11.6602 4.39453 11.5137 4.32617L11.123 4.15039L11.5137 3.94531C11.6504 3.87695 11.6699 3.74023 11.6211 3.63281C11.5625 3.51562 11.3965 3.48633 11.2988 3.55469L10.9375 3.81836L10.9668 3.38867C10.9766 3.24219 10.8789 3.13477 10.752 3.13477C10.6055 3.13477 10.5176 3.24219 10.5273 3.37891L10.5566 3.81836L10.1855 3.55469C10.0879 3.48633 9.93164 3.50586 9.87305 3.63281C9.81445 3.7207 9.83398 3.87695 9.9707 3.95508L10.3613 4.15039L9.9707 4.32617C9.82422 4.39453 9.81445 4.55078 9.86328 4.6582C9.91211 4.77539 10.0879 4.80469 10.1855 4.73633L10.5566 4.48242L10.5371 4.91211C10.5273 5.03906 10.6055 5.15625 10.752 5.15625ZM10.5664 11.7188C10.6836 11.7188 10.7715 11.6211 10.7617 11.5039L10.7324 11.123L11.0449 11.3477C11.1328 11.416 11.2891 11.377 11.3379 11.2891C11.4062 11.2012 11.3867 11.0352 11.25 10.9766L10.9082 10.8203L11.25 10.6445C11.377 10.5762 11.3867 10.459 11.3477 10.3613C11.2988 10.2539 11.1328 10.2246 11.0449 10.2832L10.7324 10.5176L10.7617 10.1465C10.7715 10.0098 10.6836 9.91211 10.5664 9.91211C10.4395 9.91211 10.3418 10.0098 10.3516 10.1367L10.3809 10.5176L10.0684 10.2832C9.98047 10.2246 9.83398 10.2441 9.78516 10.3613C9.72656 10.4395 9.73633 10.5762 9.87305 10.6543L10.2051 10.8203L9.87305 10.9766C9.73633 11.0352 9.72656 11.1816 9.77539 11.2793C9.81445 11.3867 9.98047 11.416 10.0684 11.3477L10.3809 11.123L10.3613 11.5039C10.3516 11.6211 10.4395 11.7188 10.5664 11.7188Z" fill="var(--color-primary)"/>
 </g>
</svg>
