<svg version="1.1" xmlns="http://www.w3.org/2000/svg" xmlns:xlink="http://www.w3.org/1999/xlink" viewBox="0 0 16.1328 15.7715">
 <g>
  <rect height="15.7715" opacity="0" width="16.1328" x="0" y="0"/>
  <path d="M7.88086 15.7617C12.2363 15.7617 15.7715 12.2363 15.7715 7.88086C15.7715 3.52539 12.2363 0 7.88086 0C3.53516 0 0 3.52539 0 7.88086C0 12.2363 3.53516 15.7617 7.88086 15.7617ZM7.88086 14.2773C4.3457 14.2773 1.49414 11.416 1.49414 7.88086C1.49414 4.3457 4.3457 1.48438 7.88086 1.48438C11.416 1.48438 14.2773 4.3457 14.2773 7.88086C14.2773 11.416 11.416 14.2773 7.88086 14.2773Z" fill="var(--color-secondary)"/>
  <path d="M4.0625 9.62891L11.709 9.62891C12.1387 9.62891 12.4414 9.31641 12.4414 8.88672L12.4414 6.85547C12.4414 6.43555 12.1387 6.12305 11.709 6.12305L4.0625 6.12305C3.64258 6.12305 3.33008 6.43555 3.33008 6.85547L3.33008 8.89648C3.33008 9.31641 3.64258 9.62891 4.0625 9.62891Z" fill="var(--color-primary)"/>
 </g>
</svg>
