<?xml version="1.0" encoding="UTF-8"?>
<!--Generator: Apple Native CoreSVG 341-->
<!DOCTYPE svg
PUBLIC "-//W3C//DTD SVG 1.1//EN"
       "http://www.w3.org/Graphics/SVG/1.1/DTD/svg11.dtd">
<svg version="1.1" xmlns="http://www.w3.org/2000/svg" xmlns:xlink="http://www.w3.org/1999/xlink" viewBox="0 0 16.1328 15.7715">
 <g>
  <rect height="15.7715" opacity="0" width="16.1328" x="0" y="0"/>
  <path d="M7.88086 15.7617C12.2363 15.7617 15.7715 12.2363 15.7715 7.88086C15.7715 3.52539 12.2363 0 7.88086 0C3.53516 0 0 3.52539 0 7.88086C0 12.2363 3.53516 15.7617 7.88086 15.7617ZM7.88086 14.2773C4.3457 14.2773 1.49414 11.416 1.49414 7.88086C1.49414 4.3457 4.3457 1.48438 7.88086 1.48438C11.416 1.48438 14.2773 4.3457 14.2773 7.88086C14.2773 11.416 11.416 14.2773 7.88086 14.2773Z" fill="white" fill-opacity="0.425"/>
  <path d="M5.57617 11.3965C5.85938 11.3965 6.00586 11.3086 6.23047 10.9961L7.82227 8.76953L7.85156 8.76953L9.44336 10.9961C9.66797 11.3086 9.82422 11.3965 10.0977 11.3965C10.4883 11.3965 10.7812 11.1426 10.7812 10.7715C10.7812 10.5957 10.7324 10.459 10.6152 10.3125L8.7207 7.79297L10.625 5.25391C10.752 5.09766 10.8008 4.96094 10.8008 4.79492C10.8008 4.45312 10.5078 4.18945 10.1367 4.18945C9.86328 4.18945 9.69727 4.27734 9.50195 4.57031L7.97852 6.80664L7.93945 6.80664L6.36719 4.56055C6.17188 4.27734 6.00586 4.18945 5.71289 4.18945C5.3418 4.18945 5.0293 4.47266 5.0293 4.82422C5.0293 5.01953 5.07812 5.14648 5.21484 5.33203L7.01172 7.74414L5.08789 10.3516C4.9707 10.5078 4.93164 10.625 4.93164 10.8008C4.93164 11.1426 5.21484 11.3965 5.57617 11.3965Z" fill="white" fill-opacity="0.85"/>
 </g>
</svg>
