<svg version="1.1" xmlns="http://www.w3.org/2000/svg" xmlns:xlink="http://www.w3.org/1999/xlink" viewBox="0 0 14.5898 14.248">
 <g>
  <rect height="14.248" opacity="0" width="14.5898" x="0" y="0"/>
  <path d="M2.49023 14.248L11.7383 14.248C13.4082 14.248 14.2285 13.4277 14.2285 11.7871L14.2285 2.4707C14.2285 0.830078 13.4082 0.00976562 11.7383 0.00976562L2.49023 0.00976562C0.830078 0.00976562 0 0.830078 0 2.4707L0 11.7871C0 13.4277 0.830078 14.248 2.49023 14.248Z" fill="var(--color-tertiary)"/>
  <path d="M4.96094 10.3125L10.3027 4.96094C10.4395 4.83398 10.5078 4.6582 10.5078 4.45312C10.5078 4.0625 10.1953 3.75 9.79492 3.75C9.59961 3.75 9.43359 3.81836 9.30664 3.95508L3.93555 9.28711C3.79883 9.42383 3.73047 9.58984 3.73047 9.79492C3.73047 10.1953 4.05273 10.5273 4.45312 10.5273C4.64844 10.5273 4.82422 10.4395 4.96094 10.3125ZM9.27734 10.3125C9.41406 10.4395 9.58984 10.5273 9.79492 10.5273C10.1953 10.5273 10.5078 10.1953 10.5078 9.79492C10.5078 9.58984 10.4395 9.42383 10.3027 9.28711L4.94141 3.95508C4.81445 3.81836 4.63867 3.75 4.45312 3.75C4.05273 3.75 3.73047 4.0625 3.73047 4.45312C3.73047 4.6582 3.79883 4.83398 3.93555 4.96094Z" fill="var(--color-primary)"/>
 </g>
</svg>
