<?xml version="1.0" encoding="UTF-8"?>
<!--Generator: Apple Native CoreSVG 341-->
<!DOCTYPE svg
PUBLIC "-//W3C//DTD SVG 1.1//EN"
       "http://www.w3.org/Graphics/SVG/1.1/DTD/svg11.dtd">
<svg version="1.1" xmlns="http://www.w3.org/2000/svg" xmlns:xlink="http://www.w3.org/1999/xlink" viewBox="0 0 14.5898 14.248">
 <g>
  <rect height="14.248" opacity="0" width="14.5898" x="0" y="0"/>
  <path d="M14.2285 2.4707L14.2285 11.7871C14.2285 13.4277 13.4082 14.248 11.7383 14.248L2.49023 14.248C0.830078 14.248 0 13.4277 0 11.7871L0 2.4707C0 0.830078 0.830078 0.00976562 2.49023 0.00976562L11.7383 0.00976562C13.4082 0.00976562 14.2285 0.830078 14.2285 2.4707ZM9.30664 3.95508L7.12204 6.12379L4.94141 3.95508C4.81445 3.81836 4.63867 3.75 4.45312 3.75C4.05273 3.75 3.73047 4.0625 3.73047 4.45312C3.73047 4.6582 3.79883 4.83398 3.93555 4.96094L6.10454 7.13389L3.93555 9.28711C3.79883 9.42383 3.73047 9.58984 3.73047 9.79492C3.73047 10.1953 4.05273 10.5273 4.45312 10.5273C4.64844 10.5273 4.82422 10.4395 4.96094 10.3125L7.11914 8.15035L9.27734 10.3125C9.41406 10.4395 9.58984 10.5273 9.79492 10.5273C10.1953 10.5273 10.5078 10.1953 10.5078 9.79492C10.5078 9.58984 10.4395 9.42383 10.3027 9.28711L8.13571 7.13193L10.3027 4.96094C10.4395 4.83398 10.5078 4.6582 10.5078 4.45312C10.5078 4.0625 10.1953 3.75 9.79492 3.75C9.59961 3.75 9.43359 3.81836 9.30664 3.95508Z" fill="white" fill-opacity="0.85"/>
 </g>
</svg>
