<svg version="1.1" xmlns="http://www.w3.org/2000/svg" xmlns:xlink="http://www.w3.org/1999/xlink" viewBox="0 0 14.5898 14.248">
 <g>
  <rect height="14.248" opacity="0" width="14.5898" x="0" y="0"/>
  <path d="M2.49023 14.248L11.7383 14.248C13.4082 14.248 14.2285 13.4277 14.2285 11.7871L14.2285 2.4707C14.2285 0.830078 13.4082 0.00976562 11.7383 0.00976562L2.49023 0.00976562C0.830078 0.00976562 0 0.830078 0 2.4707L0 11.7871C0 13.4277 0.830078 14.248 2.49023 14.248Z" fill="var(--color-tertiary)"/>
  <path d="M7.11914 10.7812C6.65039 10.7812 6.40625 10.4395 6.40625 9.95117L6.40625 8.08594L4.21875 4.32617C4.13086 4.18945 4.10156 4.04297 4.10156 3.91602C4.10156 3.56445 4.38477 3.28125 4.76562 3.28125C5.08789 3.28125 5.26367 3.39844 5.44922 3.74023L7.10938 6.72852L7.1582 6.72852L8.81836 3.74023C8.99414 3.4082 9.16992 3.28125 9.48242 3.28125C9.86328 3.28125 10.1367 3.55469 10.1367 3.93555C10.1367 4.05273 10.0977 4.20898 10.0098 4.32617L7.85156 8.06641L7.85156 9.95117C7.85156 10.4688 7.59766 10.7812 7.11914 10.7812Z" fill="var(--color-primary)"/>
 </g>
</svg>
