<?xml version="1.0" encoding="UTF-8"?>
<!--Generator: Apple Native CoreSVG 341-->
<!DOCTYPE svg
PUBLIC "-//W3C//DTD SVG 1.1//EN"
       "http://www.w3.org/Graphics/SVG/1.1/DTD/svg11.dtd">
<svg version="1.1" xmlns="http://www.w3.org/2000/svg" xmlns:xlink="http://www.w3.org/1999/xlink" viewBox="0 0 16.1328 15.7715">
 <g>
  <rect height="15.7715" opacity="0" width="16.1328" x="0" y="0"/>
  <path d="M7.88086 15.7617C12.2363 15.7617 15.7715 12.2363 15.7715 7.88086C15.7715 3.52539 12.2363 0 7.88086 0C3.53516 0 0 3.52539 0 7.88086C0 12.2363 3.53516 15.7617 7.88086 15.7617ZM7.88086 14.2773C4.3457 14.2773 1.49414 11.416 1.49414 7.88086C1.49414 4.3457 4.3457 1.48438 7.88086 1.48438C11.416 1.48438 14.2773 4.3457 14.2773 7.88086C14.2773 11.416 11.416 14.2773 7.88086 14.2773Z" fill="white" fill-opacity="0.85"/>
  <path d="M5.66406 11.3086L10.1562 11.3086C10.4883 11.3086 10.7324 11.084 10.7324 10.7422C10.7324 10.3809 10.4883 10.1758 10.1562 10.1758L6.89453 10.1758L6.89453 10.1074L10.2637 5.40039C10.4297 5.18555 10.4688 5.06836 10.4688 4.88281C10.4688 4.53125 10.2148 4.27734 9.85352 4.27734L5.60547 4.27734C5.27344 4.27734 5.0293 4.50195 5.0293 4.84375C5.0293 5.20508 5.27344 5.41016 5.60547 5.41016L8.66211 5.41016L8.66211 5.47852L5.29297 10.1758C5.10742 10.4297 5.05859 10.5566 5.05859 10.7324C5.05859 11.0645 5.3125 11.3086 5.66406 11.3086Z" fill="white" fill-opacity="0.85"/>
 </g>
</svg>
