<?xml version="1.0" encoding="UTF-8"?>
<!--Generator: Apple Native CoreSVG 341-->
<!DOCTYPE svg
PUBLIC "-//W3C//DTD SVG 1.1//EN"
       "http://www.w3.org/Graphics/SVG/1.1/DTD/svg11.dtd">
<svg version="1.1" xmlns="http://www.w3.org/2000/svg" xmlns:xlink="http://www.w3.org/1999/xlink" viewBox="0 0 13.3691 18.1152">
 <g>
  <rect height="18.1152" opacity="0" width="13.3691" x="0" y="0"/>
  <path d="M0 14.7949C0 16.4648 0.810547 17.2852 2.45117 17.2852L10.5469 17.2852C12.1875 17.2852 13.0078 16.4648 13.0078 14.7949L13.0078 3.31055C13.0078 1.65039 12.1875 0.820312 10.5469 0.820312L2.45117 0.820312C0.810547 0.820312 0 1.65039 0 3.31055ZM1.40625 14.7754L1.40625 3.33008C1.40625 2.62695 1.78711 2.22656 2.5293 2.22656L10.4785 2.22656C11.2109 2.22656 11.5918 2.62695 11.5918 3.33008L11.5918 14.7754C11.5918 15.4785 11.2109 15.8789 10.4785 15.8789L2.5293 15.8789C1.78711 15.8789 1.40625 15.4785 1.40625 14.7754ZM5.97656 16.6504L7.03125 16.6504L7.03125 5.91797L5.97656 5.91797ZM6.50391 6.21094C7.73438 6.21094 8.45703 5.51758 8.45703 4.3457C8.45703 4.13086 8.42773 3.89648 8.37891 3.67188L7.63672 0.498047C7.56836 0.195312 7.30469 0 6.98242 0L6.02539 0C5.70312 0 5.43945 0.195312 5.36133 0.498047L4.62891 3.67188C4.58008 3.89648 4.55078 4.13086 4.55078 4.3457C4.55078 5.51758 5.27344 6.21094 6.50391 6.21094ZM6.50391 5.05859C6.05469 5.05859 5.70312 4.70703 5.70312 4.25781C5.70312 3.80859 6.05469 3.45703 6.50391 3.45703C6.94336 3.45703 7.30469 3.80859 7.30469 4.25781C7.30469 4.70703 6.96289 5.05859 6.50391 5.05859ZM6.50391 8.05664L8.28125 8.05664C8.58398 8.05664 8.80859 7.82227 8.80859 7.51953C8.80859 7.22656 8.58398 6.99219 8.28125 6.99219L6.50391 6.99219ZM4.72656 9.0625L6.50391 9.0625L6.50391 7.99805L4.72656 7.99805C4.42383 7.99805 4.19922 8.23242 4.19922 8.52539C4.19922 8.82812 4.42383 9.0625 4.72656 9.0625ZM6.50391 10.0684L8.28125 10.0684C8.58398 10.0684 8.80859 9.83398 8.80859 9.53125C8.80859 9.23828 8.58398 9.01367 8.28125 9.01367L6.50391 9.01367ZM4.72656 11.0742L6.50391 11.0742L6.50391 10.0195L4.72656 10.0195C4.42383 10.0195 4.19922 10.2441 4.19922 10.5371C4.19922 10.8398 4.42383 11.0742 4.72656 11.0742ZM6.50391 12.0801L8.28125 12.0801C8.58398 12.0801 8.80859 11.8457 8.80859 11.543C8.80859 11.25 8.58398 11.0254 8.28125 11.0254L6.50391 11.0254ZM4.72656 13.0859L6.50391 13.0859L6.50391 12.0312L4.72656 12.0312C4.42383 12.0312 4.19922 12.2559 4.19922 12.5488C4.19922 12.8516 4.42383 13.0859 4.72656 13.0859ZM6.50391 14.0918L8.28125 14.0918C8.58398 14.0918 8.80859 13.8574 8.80859 13.5547C8.80859 13.2617 8.58398 13.0371 8.28125 13.0371L6.50391 13.0371ZM4.72656 15.0977L6.50391 15.0977L6.50391 14.043L4.72656 14.043C4.42383 14.043 4.19922 14.2676 4.19922 14.5605C4.19922 14.8633 4.42383 15.0977 4.72656 15.0977Z" fill="white" fill-opacity="0.85"/>
 </g>
</svg>
