<svg version="1.1" xmlns="http://www.w3.org/2000/svg" xmlns:xlink="http://www.w3.org/1999/xlink" viewBox="0 0 18.3398 17.9785">
 <g>
  <rect height="17.9785" opacity="0" width="18.3398" x="0" y="0"/>
  <path d="M3.06641 17.9785L14.9121 17.9785C16.9629 17.9785 17.9785 16.9727 17.9785 14.9609L17.9785 3.02734C17.9785 1.01562 16.9629 0 14.9121 0L3.06641 0C1.02539 0 0 1.01562 0 3.02734L0 14.9609C0 16.9727 1.02539 17.9785 3.06641 17.9785ZM3.08594 16.4062C2.10938 16.4062 1.57227 15.8887 1.57227 14.873L1.57227 3.11523C1.57227 2.09961 2.10938 1.57227 3.08594 1.57227L14.8926 1.57227C15.8594 1.57227 16.4062 2.09961 16.4062 3.11523L16.4062 14.873C16.4062 15.8887 15.8594 16.4062 14.8926 16.4062Z" fill="var(--color-primary)"/>
  <path d="M6.5918 13.1348C8.53516 13.1348 9.12109 10.9473 9.12109 8.98438C9.12109 7.02148 8.53516 4.83398 6.5918 4.83398C4.64844 4.83398 4.0625 7.02148 4.0625 8.98438C4.0625 10.9473 4.64844 13.1348 6.5918 13.1348ZM6.5918 11.9727C5.79102 11.9727 5.48828 10.6738 5.48828 8.98438C5.48828 7.28516 5.79102 5.98633 6.5918 5.98633C7.39258 5.98633 7.69531 7.28516 7.69531 8.98438C7.69531 10.6738 7.39258 11.9727 6.5918 11.9727ZM12.4609 13.0371C12.8418 13.0371 13.1641 12.7148 13.1641 12.3242L13.1641 5.70312C13.1641 5.20508 12.8516 4.91211 12.3438 4.91211C11.9336 4.91211 11.6016 5.13672 11.377 5.3125L10.3027 6.14258C10.127 6.2793 9.99023 6.46484 9.99023 6.71875C9.99023 7.02148 10.1953 7.23633 10.498 7.23633C10.6445 7.23633 10.7422 7.1875 10.8398 7.11914L11.7383 6.39648L11.7383 12.3242C11.7383 12.7148 12.0605 13.0371 12.4609 13.0371Z" fill="var(--color-primary)"/>
 </g>
</svg>
