<svg version="1.1" xmlns="http://www.w3.org/2000/svg" xmlns:xlink="http://www.w3.org/1999/xlink" viewBox="0 0 20.2832 19.9316">
 <g>
  <rect height="19.9316" opacity="0" width="20.2832" x="0" y="0"/>
  <path d="M9.96094 19.9219C15.459 19.9219 19.9219 15.459 19.9219 9.96094C19.9219 4.46289 15.459 0 9.96094 0C4.46289 0 0 4.46289 0 9.96094C0 15.459 4.46289 19.9219 9.96094 19.9219ZM9.96094 18.2617C5.37109 18.2617 1.66016 14.5508 1.66016 9.96094C1.66016 5.37109 5.37109 1.66016 9.96094 1.66016C14.5508 1.66016 18.2617 5.37109 18.2617 9.96094C18.2617 14.5508 14.5508 18.2617 9.96094 18.2617Z" fill="var(--color-primary)"/>
  <path d="M6.91406 14.1113C8.85742 14.1113 9.44336 11.9238 9.44336 9.96094C9.44336 7.99805 8.85742 5.81055 6.91406 5.81055C4.9707 5.81055 4.38477 7.99805 4.38477 9.96094C4.38477 11.9238 4.9707 14.1113 6.91406 14.1113ZM6.91406 12.9492C6.11328 12.9492 5.81055 11.6504 5.81055 9.96094C5.81055 8.26172 6.11328 6.96289 6.91406 6.96289C7.71484 6.96289 8.01758 8.26172 8.01758 9.96094C8.01758 11.6504 7.71484 12.9492 6.91406 12.9492ZM12.4609 11.1816C13.252 11.1816 13.8574 10.6543 14.082 9.81445L14.1113 9.81445C14.1113 9.85352 14.1113 9.89258 14.1113 9.92188C14.1113 11.0059 13.9844 12.959 12.8906 12.959C12.4512 12.959 12.1582 12.6562 11.9824 12.2363C11.8359 11.9141 11.6406 11.7871 11.3574 11.7871C10.9473 11.7871 10.7715 12.0605 10.7715 12.3828C10.7715 12.5 10.791 12.6172 10.8301 12.7344C11.0352 13.584 11.8848 14.1016 12.8613 14.1016C14.8633 14.1016 15.4492 11.8848 15.4492 9.88281C15.4492 8.03711 14.8535 5.83008 12.8809 5.83008C11.3965 5.83008 10.5371 7.08008 10.5371 8.61328C10.5371 9.93164 11.1719 11.1816 12.4609 11.1816ZM12.9004 10.1074C12.1777 10.1074 11.8848 9.27734 11.8848 8.55469C11.8848 7.82227 12.2168 6.96289 12.9004 6.96289C13.6328 6.96289 13.9258 7.82227 13.9258 8.55469C13.9258 9.30664 13.6035 10.1074 12.9004 10.1074Z" fill="var(--color-primary)"/>
 </g>
</svg>
