<svg version="1.1" xmlns="http://www.w3.org/2000/svg" xmlns:xlink="http://www.w3.org/1999/xlink" width="18.3398" height="17.998" viewBox="0 0 18.3398 17.998">
 <g>
  <rect height="17.998" opacity="0" width="18.3398" x="0" y="0"/>
  <path d="M3.06641 17.998L14.9121 17.998C16.9629 17.998 17.9785 16.9824 17.9785 14.9707L17.9785 3.04688C17.9785 1.03516 16.9629 0.0195312 14.9121 0.0195312L3.06641 0.0195312C1.02539 0.0195312 0 1.02539 0 3.04688L0 14.9707C0 16.9922 1.02539 17.998 3.06641 17.998ZM3.08594 16.4258C2.10938 16.4258 1.57227 15.9082 1.57227 14.8926L1.57227 3.125C1.57227 2.10938 2.10938 1.5918 3.08594 1.5918L14.8926 1.5918C15.8594 1.5918 16.4062 2.10938 16.4062 3.125L16.4062 14.8926C16.4062 15.9082 15.8594 16.4258 14.8926 16.4258Z" fill="var(--color-secondary)"/>
  <path d="M9.50195 13.6426C10 13.6426 10.293 13.3105 10.293 12.7637L10.293 5.22461C10.293 4.6582 9.99023 4.3457 9.46289 4.3457C9.10156 4.3457 8.84766 4.44336 8.42773 4.72656L6.66992 5.91797C6.45508 6.06445 6.36719 6.2207 6.36719 6.46484C6.36719 6.76758 6.61133 7.05078 6.92383 7.05078C7.07031 7.05078 7.17773 7.02148 7.40234 6.875L8.66211 6.04492L8.73047 6.04492L8.73047 12.7637C8.73047 13.3105 9.01367 13.6426 9.50195 13.6426Z" fill="var(--color-primary)"/>
 </g>
</svg>
