<svg version="1.1" xmlns="http://www.w3.org/2000/svg" xmlns:xlink="http://www.w3.org/1999/xlink" viewBox="0 0 20.2832 19.9316">
 <g>
  <rect height="19.9316" opacity="0" width="20.2832" x="0" y="0"/>
  <path d="M19.9219 9.96094C19.9219 15.4492 15.459 19.9219 9.96094 19.9219C4.47266 19.9219 0 15.4492 0 9.96094C0 4.46289 4.47266 0 9.96094 0C15.459 0 19.9219 4.46289 19.9219 9.96094ZM6.8457 6.17188L5.74219 7.03125C5.55664 7.16797 5.41992 7.36328 5.41992 7.62695C5.41992 7.93945 5.63477 8.16406 5.94727 8.16406C6.09375 8.16406 6.20117 8.11523 6.29883 8.03711L7.22656 7.29492L7.22656 13.3984C7.22656 13.8086 7.55859 14.1406 7.96875 14.1406C8.36914 14.1406 8.70117 13.8086 8.70117 13.3984L8.70117 6.58203C8.70117 6.06445 8.37891 5.76172 7.85156 5.76172C7.42188 5.76172 7.08008 5.99609 6.8457 6.17188ZM11.4941 6.17188L10.3906 7.03125C10.2148 7.16797 10.0684 7.36328 10.0684 7.62695C10.0684 7.93945 10.2832 8.16406 10.5859 8.16406C10.7422 8.16406 10.8496 8.11523 10.9473 8.03711L11.875 7.29492L11.875 13.3984C11.875 13.8086 12.207 14.1406 12.6172 14.1406C13.0176 14.1406 13.3496 13.8086 13.3496 13.3984L13.3496 6.58203C13.3496 6.06445 13.0273 5.76172 12.5 5.76172C12.0703 5.76172 11.7285 5.99609 11.4941 6.17188Z" fill="var(--color-primary)"/>
 </g>
</svg>
