<svg version="1.1" xmlns="http://www.w3.org/2000/svg" xmlns:xlink="http://www.w3.org/1999/xlink" width="18.3398" height="17.998" viewBox="0 0 18.3398 17.998">
 <g>
  <rect height="17.998" opacity="0" width="18.3398" x="0" y="0"/>
  <path d="M3.06641 17.998L14.9121 17.998C16.9629 17.998 17.9785 16.9824 17.9785 14.9707L17.9785 3.04688C17.9785 1.03516 16.9629 0.0195312 14.9121 0.0195312L3.06641 0.0195312C1.02539 0.0195312 0 1.02539 0 3.04688L0 14.9707C0 16.9922 1.02539 17.998 3.06641 17.998ZM3.08594 16.4258C2.10938 16.4258 1.57227 15.9082 1.57227 14.8926L1.57227 3.125C1.57227 2.10938 2.10938 1.5918 3.08594 1.5918L14.8926 1.5918C15.8594 1.5918 16.4062 2.10938 16.4062 3.125L16.4062 14.8926C16.4062 15.9082 15.8594 16.4258 14.8926 16.4258Z" fill="var(--color-secondary)"/>
  <path d="M7.05078 13.0469C7.43164 13.0469 7.75391 12.7246 7.75391 12.334L7.75391 5.71289C7.75391 5.21484 7.44141 4.92188 6.93359 4.92188C6.5332 4.92188 6.19141 5.14648 5.9668 5.32227L4.89258 6.15234C4.7168 6.28906 4.58984 6.47461 4.58984 6.72852C4.58984 7.03125 4.78516 7.24609 5.08789 7.24609C5.23438 7.24609 5.33203 7.19727 5.42969 7.12891L6.32812 6.40625L6.32812 12.334C6.32812 12.7246 6.65039 13.0469 7.05078 13.0469ZM11.5527 13.0469C11.9336 13.0469 12.2559 12.7246 12.2559 12.334L12.2559 5.71289C12.2559 5.21484 11.9434 4.92188 11.4355 4.92188C11.0254 4.92188 10.6934 5.14648 10.4688 5.32227L9.39453 6.15234C9.21875 6.28906 9.08203 6.47461 9.08203 6.72852C9.08203 7.03125 9.28711 7.24609 9.58984 7.24609C9.73633 7.24609 9.83398 7.19727 9.93164 7.12891L10.8301 6.40625L10.8301 12.334C10.8301 12.7246 11.1523 13.0469 11.5527 13.0469Z" fill="var(--color-primary)"/>
 </g>
</svg>
