<svg version="1.1" xmlns="http://www.w3.org/2000/svg" xmlns:xlink="http://www.w3.org/1999/xlink" viewBox="0 0 18.3398 17.9785">
 <g>
  <rect height="17.9785" opacity="0" width="18.3398" x="0" y="0"/>
  <path d="M17.9785 3.02734L17.9785 14.9609C17.9785 16.9727 16.9629 17.9785 14.9121 17.9785L3.06641 17.9785C1.02539 17.9785 0 16.9727 0 14.9609L0 3.02734C0 1.01562 1.02539 0 3.06641 0L14.9121 0C16.9629 0 17.9785 1.01562 17.9785 3.02734ZM8.81836 6.2207C8.75977 6.41602 8.74023 6.5918 8.74023 6.76758C8.74023 7.09961 8.96484 7.36328 9.36523 7.36328C9.7168 7.36328 9.91211 7.23633 10.0098 6.88477C10.166 6.28906 10.4883 5.91797 11.0547 5.91797C11.7188 5.91797 12.0312 6.42578 12.0312 7.08984C12.0312 7.82227 11.6211 8.35938 10.8691 8.35938L10.6348 8.35938C10.2832 8.35938 10.0781 8.57422 10.0781 8.90625C10.0781 9.23828 10.293 9.43359 10.6348 9.43359L10.8789 9.43359C11.7383 9.43359 12.207 9.90234 12.207 10.7715C12.207 11.4648 11.8457 12.0605 11.0938 12.0605C10.3711 12.0605 10.0391 11.5723 9.91211 11.1133C9.81445 10.7812 9.59961 10.6152 9.27734 10.6152C8.87695 10.6152 8.61328 10.8594 8.61328 11.25C8.61328 11.4355 8.64258 11.6113 8.69141 11.7773C8.98438 12.7148 10.0098 13.2324 11.0938 13.2324C12.5293 13.2324 13.6523 12.3242 13.6523 10.8203C13.6523 9.57031 12.9102 8.95508 12.0508 8.86719L12.0508 8.83789C12.9688 8.59375 13.4082 7.77344 13.4082 6.93359C13.4082 5.53711 12.373 4.74609 11.0547 4.74609C10.0098 4.74609 9.11133 5.33203 8.81836 6.2207ZM5.16602 5.19531L4.0625 6.05469C3.87695 6.19141 3.75 6.38672 3.75 6.65039C3.75 6.96289 3.96484 7.1875 4.26758 7.1875C4.41406 7.1875 4.52148 7.13867 4.61914 7.06055L5.54688 6.31836L5.54688 12.4219C5.54688 12.832 5.87891 13.1641 6.28906 13.1641C6.68945 13.1641 7.02148 12.832 7.02148 12.4219L7.02148 5.60547C7.02148 5.08789 6.69922 4.78516 6.17188 4.78516C5.75195 4.78516 5.41016 5.01953 5.16602 5.19531Z" fill="var(--color-primary)"/>
 </g>
</svg>
