<svg version="1.1" xmlns="http://www.w3.org/2000/svg" xmlns:xlink="http://www.w3.org/1999/xlink" width="18.3398" height="17.998" viewBox="0 0 18.3398 17.998">
 <g>
  <rect height="17.998" opacity="0" width="18.3398" x="0" y="0"/>
  <path d="M3.06641 17.998L14.9121 17.998C16.9629 17.998 17.9785 16.9824 17.9785 14.9707L17.9785 3.04688C17.9785 1.03516 16.9629 0.0195312 14.9121 0.0195312L3.06641 0.0195312C1.02539 0.0195312 0 1.02539 0 3.04688L0 14.9707C0 16.9922 1.02539 17.998 3.06641 17.998Z" fill="var(--color-tertiary)"/>
  <path d="M6.06445 13.1738C5.64453 13.1738 5.3125 12.8418 5.3125 12.4316L5.3125 6.32812L4.39453 7.07031C4.28711 7.14844 4.18945 7.19727 4.02344 7.19727C3.7207 7.19727 3.50586 6.97266 3.50586 6.66016C3.50586 6.39648 3.65234 6.20117 3.83789 6.06445L4.94141 5.20508C5.17578 5.0293 5.51758 4.79492 5.9375 4.79492C6.46484 4.79492 6.78711 5.09766 6.78711 5.61523L6.78711 12.4316C6.78711 12.8418 6.45508 13.1738 6.06445 13.1738ZM12.0801 13.1934C11.7578 13.1934 11.377 13.0078 11.377 12.4805L11.377 11.4746L9.12109 11.4746C8.63281 11.4746 8.29102 11.1426 8.29102 10.6543C8.29102 10.3418 8.34961 10.0781 8.52539 9.6875L10.3223 5.78125C10.6055 5.15625 10.9375 4.79492 11.6504 4.79492C12.3047 4.79492 12.7734 5.18555 12.7734 5.88867L12.7734 10.3027L13.125 10.3027C13.5254 10.3027 13.7012 10.5566 13.7012 10.8789C13.7012 11.2207 13.5156 11.4746 13.125 11.4746L12.7734 11.4746L12.7734 12.4805C12.7734 12.959 12.4609 13.1934 12.0801 13.1934ZM11.4062 10.332L11.4062 6.06445L11.3672 6.06445L9.54102 10.2637L9.54102 10.332Z" fill="var(--color-primary)"/>
 </g>
</svg>
