<svg version="1.1" xmlns="http://www.w3.org/2000/svg" xmlns:xlink="http://www.w3.org/1999/xlink" viewBox="0 0 20.2832 19.9316">
 <g>
  <rect height="19.9316" opacity="0" width="20.2832" x="0" y="0"/>
  <path d="M9.96094 19.9219C15.459 19.9219 19.9219 15.459 19.9219 9.96094C19.9219 4.46289 15.459 0 9.96094 0C4.46289 0 0 4.46289 0 9.96094C0 15.459 4.46289 19.9219 9.96094 19.9219ZM9.96094 18.2617C5.37109 18.2617 1.66016 14.5508 1.66016 9.96094C1.66016 5.37109 5.37109 1.66016 9.96094 1.66016C14.5508 1.66016 18.2617 5.37109 18.2617 9.96094C18.2617 14.5508 14.5508 18.2617 9.96094 18.2617Z" fill="var(--color-primary)"/>
  <path d="M7.76367 14.0137C8.14453 14.0137 8.4668 13.6914 8.4668 13.3008L8.4668 6.67969C8.4668 6.18164 8.1543 5.88867 7.64648 5.88867C7.24609 5.88867 6.91406 6.11328 6.67969 6.28906L5.60547 7.11914C5.42969 7.25586 5.30273 7.44141 5.30273 7.69531C5.30273 7.99805 5.50781 8.21289 5.80078 8.21289C5.94727 8.21289 6.04492 8.16406 6.14258 8.0957L7.04102 7.37305L7.04102 13.3008C7.04102 13.6914 7.36328 14.0137 7.76367 14.0137ZM11.2988 14.043C11.6504 14.043 11.8164 13.8965 11.9434 13.5449L14.1797 7.58789C14.2871 7.28516 14.3652 7.05078 14.3652 6.76758C14.3652 6.31836 14.0137 6.01562 13.584 6.01562L10.4297 6.01562C10.0879 6.01562 9.86328 6.25977 9.86328 6.5918C9.86328 6.92383 10.0879 7.16797 10.4297 7.16797L12.9395 7.16797L12.9395 7.25586L10.7715 12.8613C10.6836 13.0762 10.6543 13.2031 10.6543 13.4375C10.6543 13.7207 10.8301 14.043 11.2988 14.043Z" fill="var(--color-primary)"/>
 </g>
</svg>
