<svg version="1.1" xmlns="http://www.w3.org/2000/svg" xmlns:xlink="http://www.w3.org/1999/xlink" viewBox="0 0 18.3398 17.9785">
 <g>
  <rect height="17.9785" opacity="0" width="18.3398" x="0" y="0"/>
  <path d="M17.9785 3.02734L17.9785 14.9609C17.9785 16.9727 16.9629 17.9785 14.9121 17.9785L3.06641 17.9785C1.02539 17.9785 0 16.9727 0 14.9609L0 3.02734C0 1.01562 1.02539 0 3.06641 0L14.9121 0C16.9629 0 17.9785 1.01562 17.9785 3.02734ZM8.55469 7.59766C8.55469 8.95508 9.20898 10.2441 10.5469 10.2441C11.3574 10.2441 11.9824 9.69727 12.207 8.83789L12.2461 8.83789C12.2461 8.87695 12.2461 8.91602 12.2461 8.94531C12.2461 10.0586 12.1191 12.0703 10.9961 12.0703C10.5371 12.0703 10.2441 11.7578 10.0586 11.3281C9.91211 10.9961 9.70703 10.8691 9.4043 10.8691C8.98438 10.8691 8.80859 11.1523 8.80859 11.4844C8.80859 11.6016 8.82812 11.7285 8.85742 11.8457C9.07227 12.7246 9.95117 13.252 10.957 13.252C13.0273 13.252 13.6328 10.9668 13.6328 8.90625C13.6328 7.00195 13.0176 4.72656 10.9766 4.72656C9.44336 4.72656 8.55469 6.01562 8.55469 7.59766ZM5.15625 5.19531L4.05273 6.05469C3.86719 6.19141 3.73047 6.38672 3.73047 6.65039C3.73047 6.96289 3.94531 7.1875 4.24805 7.1875C4.4043 7.1875 4.51172 7.13867 4.60938 7.06055L5.53711 6.31836L5.53711 12.4219C5.53711 12.832 5.86914 13.1641 6.2793 13.1641C6.67969 13.1641 7.01172 12.832 7.01172 12.4219L7.01172 5.60547C7.01172 5.08789 6.68945 4.78516 6.16211 4.78516C5.73242 4.78516 5.39062 5.01953 5.15625 5.19531ZM12.0508 7.5293C12.0508 8.31055 11.7285 9.13086 10.9961 9.13086C10.2637 9.13086 9.96094 8.27148 9.96094 7.5293C9.96094 6.77734 10.3027 5.9082 10.9961 5.9082C11.7578 5.9082 12.0508 6.77734 12.0508 7.5293Z" fill="var(--color-primary)"/>
 </g>
</svg>
