<svg version="1.1" xmlns="http://www.w3.org/2000/svg" xmlns:xlink="http://www.w3.org/1999/xlink" viewBox="0 0 18.3398 17.9785">
 <g>
  <rect height="17.9785" opacity="0" width="18.3398" x="0" y="0"/>
  <path d="M3.06641 17.9785L14.9121 17.9785C16.9629 17.9785 17.9785 16.9727 17.9785 14.9609L17.9785 3.02734C17.9785 1.01562 16.9629 0 14.9121 0L3.06641 0C1.02539 0 0 1.01562 0 3.02734L0 14.9609C0 16.9727 1.02539 17.9785 3.06641 17.9785ZM3.08594 16.4062C2.10938 16.4062 1.57227 15.8887 1.57227 14.873L1.57227 3.11523C1.57227 2.09961 2.10938 1.57227 3.08594 1.57227L14.8926 1.57227C15.8594 1.57227 16.4062 2.09961 16.4062 3.11523L16.4062 14.873C16.4062 15.8887 15.8594 16.4062 14.8926 16.4062Z" fill="var(--color-primary)"/>
  <path d="M4.42383 12.9297L7.8125 12.9297C8.1543 12.9297 8.35938 12.7051 8.35938 12.3633C8.35938 11.9922 8.14453 11.7871 7.8125 11.7871L5.48828 11.7871L5.48828 11.709L6.91406 9.90234C7.89062 8.69141 8.21289 7.96875 8.21289 7.10938C8.21289 5.79102 7.31445 4.83398 5.9668 4.83398C4.72656 4.83398 3.76953 5.86914 3.76953 6.88477C3.76953 7.24609 3.98438 7.5 4.35547 7.5C4.67773 7.5 4.88281 7.35352 4.98047 7.03125C5.16602 6.37695 5.40039 5.9668 5.9668 5.9668C6.55273 5.9668 6.88477 6.48438 6.88477 7.17773C6.88477 7.95898 6.33789 8.75 5.82031 9.41406L4.12109 11.582C3.94531 11.8164 3.75977 12.0605 3.75977 12.3633C3.75977 12.6953 3.97461 12.9297 4.42383 12.9297ZM12.8711 13.0566C13.2324 13.0566 13.5352 12.832 13.5352 12.3633L13.5352 11.3867L13.877 11.3867C14.2578 11.3867 14.4336 11.1426 14.4336 10.8105C14.4336 10.498 14.2676 10.2539 13.877 10.2539L13.5352 10.2539L13.5352 5.9668C13.5352 5.29297 13.0957 4.91211 12.4512 4.91211C11.7676 4.91211 11.4453 5.26367 11.1719 5.86914L9.42383 9.6582C9.25781 10.0391 9.19922 10.293 9.19922 10.5957C9.19922 11.0645 9.53125 11.3867 10.0098 11.3867L12.1875 11.3867L12.1875 12.3633C12.1875 12.8809 12.5586 13.0566 12.8711 13.0566ZM12.2168 10.2832L10.4102 10.2832L10.4102 10.2148L12.1875 6.14258L12.2168 6.14258Z" fill="var(--color-primary)"/>
 </g>
</svg>
