<svg version="1.1" xmlns="http://www.w3.org/2000/svg" xmlns:xlink="http://www.w3.org/1999/xlink" width="20.2832" height="19.9316" viewBox="0 0 20.2832 19.9316">
 <g>
  <rect height="19.9316" opacity="0" width="20.2832" x="0" y="0"/>
  <path d="M9.96094 19.9219C15.4102 19.9219 19.9219 15.4004 19.9219 9.96094C19.9219 4.51172 15.4004 0 9.95117 0C4.51172 0 0 4.51172 0 9.96094C0 15.4004 4.52148 19.9219 9.96094 19.9219Z" fill="var(--color-tertiary)"/>
  <path d="M5.18555 14.0332C4.7168 14.0332 4.50195 13.7891 4.50195 13.4473C4.50195 13.125 4.6875 12.8711 4.87305 12.6367L6.62109 10.4004C7.14844 9.72656 7.71484 8.90625 7.71484 8.0957C7.71484 7.38281 7.37305 6.85547 6.77734 6.85547C6.19141 6.85547 5.95703 7.27539 5.76172 7.94922C5.66406 8.28125 5.44922 8.42773 5.11719 8.42773C4.72656 8.42773 4.51172 8.17383 4.51172 7.79297C4.51172 6.74805 5.49805 5.68359 6.77734 5.68359C8.16406 5.68359 9.0918 6.66992 9.0918 8.02734C9.0918 8.91602 8.75977 9.6582 7.75391 10.9082L6.28906 12.7637L6.28906 12.8418L8.68164 12.8418C9.02344 12.8418 9.24805 13.0566 9.24805 13.4473C9.24805 13.7988 9.0332 14.0332 8.68164 14.0332ZM12.9688 14.2383C10.918 14.2383 10.3125 11.9629 10.3125 10.0586C10.3125 8.01758 10.9082 5.70312 12.9883 5.70312C13.9941 5.70312 14.8633 6.24023 15.0781 7.10938C15.1172 7.23633 15.127 7.36328 15.127 7.4707C15.127 7.80273 14.9512 8.07617 14.5508 8.07617C14.2188 8.07617 14.0234 7.93945 13.877 7.62695C13.7109 7.20703 13.4082 6.88477 12.9492 6.88477C11.8262 6.88477 11.6895 8.90625 11.6895 10.0195C11.6895 10.0488 11.6895 10.0879 11.6895 10.127L11.7285 10.127C11.9629 9.26758 12.5781 8.7207 13.3887 8.7207C14.7266 8.7207 15.3809 10.0098 15.3809 11.3672C15.3809 12.9492 14.5117 14.2383 12.9688 14.2383ZM12.9492 13.0566C13.6523 13.0566 13.9746 12.168 13.9746 11.4355C13.9941 10.6934 13.6914 9.82422 12.9492 9.82422C12.2266 9.82422 11.8848 10.6543 11.8848 11.3965C11.8848 12.1094 12.1875 13.0566 12.9492 13.0566Z" fill="var(--color-primary)"/>
 </g>
</svg>
