<svg version="1.1" xmlns="http://www.w3.org/2000/svg" xmlns:xlink="http://www.w3.org/1999/xlink" width="18.3398" height="17.998" viewBox="0 0 18.3398 17.998">
 <g>
  <rect height="17.998" opacity="0" width="18.3398" x="0" y="0"/>
  <path d="M3.06641 17.998L14.9121 17.998C16.9629 17.998 17.9785 16.9824 17.9785 14.9707L17.9785 3.04688C17.9785 1.03516 16.9629 0.0195312 14.9121 0.0195312L3.06641 0.0195312C1.02539 0.0195312 0 1.02539 0 3.04688L0 14.9707C0 16.9922 1.02539 17.998 3.06641 17.998Z" fill="var(--color-tertiary)"/>
  <path d="M9.0332 13.7891C7.37305 13.7891 6.06445 12.998 5.76172 11.8359C5.73242 11.6895 5.72266 11.6016 5.72266 11.4551C5.72266 11.0449 6.00586 10.7617 6.41602 10.7617C6.76758 10.7617 6.98242 10.9277 7.10938 11.2793C7.36328 11.9727 7.95898 12.5 9.0625 12.5C10.2344 12.5 11.0254 11.9141 11.0254 11.0059C11.0254 10.0977 10.2344 9.47266 9.10156 9.47266L8.41797 9.47266C8.05664 9.47266 7.7832 9.20898 7.7832 8.85742C7.7832 8.47656 8.05664 8.22266 8.41797 8.22266L9.05273 8.22266C10.0098 8.22266 10.7129 7.61719 10.7129 6.78711C10.7129 5.97656 10.0879 5.47852 9.08203 5.47852C8.1543 5.47852 7.51953 5.94727 7.30469 6.69922C7.17773 7.05078 6.96289 7.22656 6.60156 7.22656C6.20117 7.22656 5.91797 6.95312 5.91797 6.55273C5.91797 6.40625 5.92773 6.29883 5.9668 6.15234C6.23047 4.96094 7.4707 4.19922 9.11133 4.19922C10.918 4.19922 12.207 5.20508 12.207 6.61133C12.207 7.66602 11.4258 8.59375 10.4102 8.74023L10.4102 8.81836C11.6309 8.93555 12.5293 9.88281 12.5293 11.0645C12.5293 12.6562 11.1914 13.7891 9.0332 13.7891Z" fill="var(--color-primary)"/>
 </g>
</svg>
