<svg version="1.1" xmlns="http://www.w3.org/2000/svg" xmlns:xlink="http://www.w3.org/1999/xlink" width="20.2832" height="19.9316" viewBox="0 0 20.2832 19.9316">
 <g>
  <rect height="19.9316" opacity="0" width="20.2832" x="0" y="0"/>
  <path d="M9.96094 19.9219C15.4102 19.9219 19.9219 15.4004 19.9219 9.96094C19.9219 4.51172 15.4004 0 9.95117 0C4.51172 0 0 4.51172 0 9.96094C0 15.4004 4.52148 19.9219 9.96094 19.9219Z" fill="var(--color-tertiary)"/>
  <path d="M6.83594 14.1992C5.74219 14.1992 4.72656 13.6816 4.43359 12.7441C4.38477 12.5781 4.35547 12.4023 4.35547 12.2168C4.35547 11.8164 4.61914 11.582 5.01953 11.582C5.3418 11.582 5.55664 11.748 5.66406 12.0801C5.78125 12.5293 6.10352 13.0176 6.83594 13.0176C7.58789 13.0176 7.94922 12.4316 7.94922 11.748C7.94922 10.8594 7.48047 10.4004 6.62109 10.4004L6.37695 10.4004C6.03516 10.4004 5.82031 10.1953 5.82031 9.86328C5.82031 9.54102 6.02539 9.32617 6.37695 9.32617L6.61133 9.32617C7.36328 9.32617 7.77344 8.78906 7.77344 8.05664C7.77344 7.39258 7.46094 6.88477 6.79688 6.88477C6.23047 6.88477 5.9082 7.25586 5.75195 7.85156C5.6543 8.19336 5.45898 8.33008 5.10742 8.33008C4.70703 8.33008 4.48242 8.05664 4.48242 7.73438C4.48242 7.56836 4.50195 7.38281 4.56055 7.1875C4.85352 6.29883 5.75195 5.71289 6.79688 5.71289C8.10547 5.71289 9.15039 6.50391 9.15039 7.90039C9.15039 8.74023 8.71094 9.55078 7.79297 9.79492L7.79297 9.83398C8.64258 9.92188 9.39453 10.5371 9.39453 11.7871C9.39453 13.291 8.28125 14.1992 6.83594 14.1992ZM13.0566 14.2285C11.0449 14.2285 10.4492 11.9824 10.4492 9.95117C10.4492 7.91992 11.0449 5.67383 13.0566 5.67383C15.0684 5.67383 15.6641 7.91992 15.6641 9.95117C15.6641 11.9824 15.0684 14.2285 13.0566 14.2285ZM13.0566 13.0273C13.877 13.0273 14.1895 11.6992 14.1895 9.95117C14.1895 8.19336 13.877 6.86523 13.0566 6.86523C12.2461 6.86523 11.9336 8.19336 11.9336 9.95117C11.9336 11.6992 12.2461 13.0273 13.0566 13.0273Z" fill="var(--color-primary)"/>
 </g>
</svg>
