<svg version="1.1" xmlns="http://www.w3.org/2000/svg" xmlns:xlink="http://www.w3.org/1999/xlink" viewBox="0 0 18.3398 17.9785">
 <g>
  <rect height="17.9785" opacity="0" width="18.3398" x="0" y="0"/>
  <path d="M17.9785 3.02734L17.9785 14.9609C17.9785 16.9727 16.9629 17.9785 14.9121 17.9785L3.06641 17.9785C1.02539 17.9785 0 16.9727 0 14.9609L0 3.02734C0 1.01562 1.02539 0 3.06641 0L14.9121 0C16.9629 0 17.9785 1.01562 17.9785 3.02734ZM9.48242 8.97461C9.48242 11.0059 10.0781 13.252 12.0996 13.252C14.1016 13.252 14.6973 11.0059 14.6973 8.97461C14.6973 6.94336 14.1016 4.69727 12.0996 4.69727C10.0781 4.69727 9.48242 6.94336 9.48242 8.97461ZM3.59375 6.21094C3.53516 6.40625 3.51562 6.5918 3.51562 6.75781C3.51562 7.08008 3.74023 7.35352 4.14062 7.35352C4.49219 7.35352 4.6875 7.2168 4.78516 6.875C4.94141 6.2793 5.26367 5.9082 5.83008 5.9082C6.49414 5.9082 6.80664 6.41602 6.80664 7.08008C6.80664 7.8125 6.39648 8.34961 5.64453 8.34961L5.41016 8.34961C5.05859 8.34961 4.85352 8.56445 4.85352 8.88672C4.85352 9.21875 5.06836 9.42383 5.41016 9.42383L5.6543 9.42383C6.51367 9.42383 6.98242 9.88281 6.98242 10.7715C6.98242 11.4551 6.62109 12.041 5.86914 12.041C5.14648 12.041 4.81445 11.5527 4.69727 11.1035C4.58984 10.7715 4.375 10.6055 4.05273 10.6055C3.65234 10.6055 3.38867 10.8398 3.38867 11.2402C3.38867 11.4258 3.41797 11.6016 3.4668 11.7676C3.75977 12.7051 4.78516 13.2227 5.86914 13.2227C7.32422 13.2227 8.42773 12.3145 8.42773 10.8105C8.42773 9.56055 7.68555 8.94531 6.82617 8.85742L6.82617 8.81836C7.74414 8.57422 8.18359 7.76367 8.18359 6.92383C8.18359 5.52734 7.14844 4.73633 5.83008 4.73633C4.78516 4.73633 3.88672 5.32227 3.59375 6.21094ZM13.2227 8.97461C13.2227 10.7227 12.9199 12.0508 12.0996 12.0508C11.2793 12.0508 10.9668 10.7227 10.9668 8.97461C10.9668 7.2168 11.2793 5.88867 12.0996 5.88867C12.9199 5.88867 13.2227 7.2168 13.2227 8.97461Z" fill="var(--color-primary)"/>
 </g>
</svg>
