<svg version="1.1" xmlns="http://www.w3.org/2000/svg" xmlns:xlink="http://www.w3.org/1999/xlink" viewBox="0 0 20.2832 19.9316">
 <g>
  <rect height="19.9316" opacity="0" width="20.2832" x="0" y="0"/>
  <path d="M9.96094 19.9219C15.459 19.9219 19.9219 15.459 19.9219 9.96094C19.9219 4.46289 15.459 0 9.96094 0C4.46289 0 0 4.46289 0 9.96094C0 15.459 4.46289 19.9219 9.96094 19.9219ZM9.96094 18.2617C5.37109 18.2617 1.66016 14.5508 1.66016 9.96094C1.66016 5.37109 5.37109 1.66016 9.96094 1.66016C14.5508 1.66016 18.2617 5.37109 18.2617 9.96094C18.2617 14.5508 14.5508 18.2617 9.96094 18.2617Z" fill="var(--color-primary)"/>
  <path d="M7.65625 14.082C9.05273 14.082 10.1367 13.2031 10.1367 11.7383C10.1367 10.5273 9.4043 9.93164 8.58398 9.84375L8.58398 9.81445C9.46289 9.58008 9.90234 8.78906 9.90234 7.96875C9.90234 6.62109 8.88672 5.84961 7.61719 5.84961C6.61133 5.84961 5.73242 6.41602 5.45898 7.28516C5.40039 7.4707 5.38086 7.64648 5.38086 7.8125C5.38086 8.13477 5.5957 8.38867 5.97656 8.38867C6.30859 8.38867 6.50391 8.26172 6.60156 7.91992C6.75781 7.34375 7.07031 6.98242 7.61719 6.98242C8.26172 6.98242 8.56445 7.48047 8.56445 8.125C8.56445 8.83789 8.17383 9.35547 7.44141 9.35547L7.20703 9.35547C6.875 9.35547 6.66992 9.56055 6.66992 9.88281C6.66992 10.2051 6.88477 10.3906 7.20703 10.3906L7.45117 10.3906C8.28125 10.3906 8.74023 10.8496 8.74023 11.6992C8.74023 12.373 8.37891 12.9492 7.65625 12.9492C6.94336 12.9492 6.63086 12.4707 6.50391 12.0215C6.41602 11.709 6.20117 11.543 5.88867 11.543C5.50781 11.543 5.25391 11.7773 5.25391 12.1582C5.25391 12.334 5.2832 12.5098 5.33203 12.666C5.61523 13.5742 6.60156 14.082 7.65625 14.082ZM13.418 14.0137C13.7988 14.0137 14.1211 13.6914 14.1211 13.3008L14.1211 6.67969C14.1211 6.18164 13.8086 5.88867 13.3008 5.88867C12.8906 5.88867 12.5586 6.11328 12.334 6.28906L11.2598 7.11914C11.084 7.25586 10.9473 7.44141 10.9473 7.69531C10.9473 7.99805 11.1523 8.21289 11.4453 8.21289C11.6016 8.21289 11.6992 8.16406 11.7969 8.0957L12.6953 7.37305L12.6953 13.3008C12.6953 13.6914 13.0176 14.0137 13.418 14.0137Z" fill="var(--color-primary)"/>
 </g>
</svg>
