<svg version="1.1" xmlns="http://www.w3.org/2000/svg" xmlns:xlink="http://www.w3.org/1999/xlink" width="18.3398" height="14.7363" viewBox="0 0 18.3398 14.7363">
 <g>
  <rect height="14.7363" opacity="0" width="18.3398" x="0" y="0"/>
  <path d="M0 13.9453C0 14.375 0.351562 14.7363 0.78125 14.7363C1.2207 14.7363 1.57227 14.375 1.57227 13.9453L1.57227 0.800781C1.57227 0.371094 1.2207 0.0195312 0.78125 0.0195312C0.351562 0.0195312 0 0.371094 0 0.800781ZM16.4062 13.9453C16.4062 14.375 16.7676 14.7363 17.1973 14.7363C17.627 14.7363 17.9785 14.375 17.9785 13.9453L17.9785 0.800781C17.9785 0.371094 17.627 0.0195312 17.1973 0.0195312C16.7676 0.0195312 16.4062 0.371094 16.4062 0.800781Z" fill="var(--color-secondary)"/>
  <path d="M10.2441 11.9336C10.6348 11.9336 10.9766 11.709 10.9766 11.1816L10.9766 10.1562L11.4258 10.1562C11.8555 10.1562 12.041 9.87305 12.041 9.54102C12.041 9.16992 11.8359 8.91602 11.4258 8.91602L10.9766 8.91602L10.9766 4.35547C10.9766 3.62305 10.4883 3.23242 9.76562 3.23242C9.0332 3.23242 8.68164 3.62305 8.33984 4.26758C7.68555 5.41016 6.71875 7.1875 6.20117 8.24219C6.05469 8.60352 5.92773 8.94531 5.92773 9.32617C5.92773 9.81445 6.28906 10.1562 6.80664 10.1562L9.51172 10.1562L9.51172 11.1816C9.51172 11.6992 9.86328 11.9336 10.2441 11.9336ZM9.55078 8.95508L7.24609 8.95508L7.24609 8.87695C7.85156 7.53906 8.76953 5.82031 9.50195 4.53125L9.55078 4.53125Z" fill="var(--color-primary)"/>
 </g>
</svg>
