<svg version="1.1" xmlns="http://www.w3.org/2000/svg" xmlns:xlink="http://www.w3.org/1999/xlink" width="18.3398" height="17.998" viewBox="0 0 18.3398 17.998">
 <g>
  <rect height="17.998" opacity="0" width="18.3398" x="0" y="0"/>
  <path d="M3.06641 17.998L14.9121 17.998C16.9629 17.998 17.9785 16.9824 17.9785 14.9707L17.9785 3.04688C17.9785 1.03516 16.9629 0.0195312 14.9121 0.0195312L3.06641 0.0195312C1.02539 0.0195312 0 1.02539 0 3.04688L0 14.9707C0 16.9922 1.02539 17.998 3.06641 17.998Z" fill="var(--color-tertiary)"/>
  <path d="M6.70898 13.1934C6.38672 13.1934 6.01562 13.0078 6.01562 12.4707L6.01562 11.4746L3.75977 11.4746C3.26172 11.4746 2.92969 11.1426 2.92969 10.6543C2.92969 10.3418 2.98828 10.0781 3.1543 9.6875L4.95117 5.78125C5.23438 5.15625 5.56641 4.79492 6.2793 4.79492C6.94336 4.79492 7.40234 5.18555 7.40234 5.88867L7.40234 10.3027L7.76367 10.3027C8.16406 10.3027 8.33008 10.5566 8.33008 10.8789C8.33008 11.2207 8.14453 11.4746 7.76367 11.4746L7.40234 11.4746L7.40234 12.4707C7.40234 12.959 7.08984 13.1934 6.70898 13.1934ZM6.04492 10.332L6.04492 6.06445L6.00586 6.06445L4.17969 10.2637L4.17969 10.332ZM13.0762 13.1934C12.7441 13.1934 12.373 13.0078 12.373 12.4707L12.373 11.4746L10.1172 11.4746C9.62891 11.4746 9.28711 11.1426 9.28711 10.6543C9.28711 10.3418 9.35547 10.0781 9.51172 9.6875L11.3086 5.78125C11.5918 5.15625 11.9238 4.79492 12.6367 4.79492C13.3008 4.79492 13.7598 5.18555 13.7598 5.88867L13.7598 10.3027L14.1211 10.3027C14.5215 10.3027 14.6875 10.5566 14.6875 10.8789C14.6875 11.2207 14.502 11.4746 14.1211 11.4746L13.7598 11.4746L13.7598 12.4707C13.7598 12.959 13.4473 13.1934 13.0762 13.1934ZM12.4023 10.332L12.4023 6.06445L12.3633 6.06445L10.5371 10.2637L10.5371 10.332Z" fill="var(--color-primary)"/>
 </g>
</svg>
