<svg version="1.1" xmlns="http://www.w3.org/2000/svg" xmlns:xlink="http://www.w3.org/1999/xlink" viewBox="0 0 20.2832 19.9316">
 <g>
  <rect height="19.9316" opacity="0" width="20.2832" x="0" y="0"/>
  <path d="M9.96094 19.9219C15.459 19.9219 19.9219 15.459 19.9219 9.96094C19.9219 4.46289 15.459 0 9.96094 0C4.46289 0 0 4.46289 0 9.96094C0 15.459 4.46289 19.9219 9.96094 19.9219ZM9.96094 18.2617C5.37109 18.2617 1.66016 14.5508 1.66016 9.96094C1.66016 5.37109 5.37109 1.66016 9.96094 1.66016C14.5508 1.66016 18.2617 5.37109 18.2617 9.96094C18.2617 14.5508 14.5508 18.2617 9.96094 18.2617Z" fill="var(--color-primary)"/>
  <path d="M8.22266 14.0332C8.58398 14.0332 8.88672 13.8086 8.88672 13.3398L8.88672 12.3633L9.23828 12.3633C9.60938 12.3633 9.79492 12.1191 9.79492 11.7871C9.79492 11.4746 9.62891 11.2305 9.23828 11.2305L8.88672 11.2305L8.88672 6.94336C8.88672 6.26953 8.44727 5.88867 7.80273 5.88867C7.11914 5.88867 6.79688 6.24023 6.52344 6.8457L4.77539 10.6348C4.61914 11.0156 4.56055 11.2695 4.56055 11.5723C4.56055 12.041 4.88281 12.3633 5.36133 12.3633L7.54883 12.3633L7.54883 13.3398C7.54883 13.8574 7.91016 14.0332 8.22266 14.0332ZM7.57812 11.2598L5.76172 11.2598L5.76172 11.1914L7.53906 7.11914L7.57812 7.11914ZM11.9629 14.043C12.3242 14.043 12.4805 13.8965 12.6172 13.5449L14.8438 7.58789C14.9512 7.28516 15.0293 7.05078 15.0293 6.76758C15.0293 6.31836 14.6777 6.01562 14.248 6.01562L11.0938 6.01562C10.7617 6.01562 10.5273 6.25977 10.5273 6.5918C10.5273 6.92383 10.7617 7.16797 11.0938 7.16797L13.6035 7.16797L13.6035 7.25586L11.4355 12.8613C11.3574 13.0762 11.3184 13.2031 11.3184 13.4375C11.3184 13.7207 11.4941 14.043 11.9629 14.043Z" fill="var(--color-primary)"/>
 </g>
</svg>
