<svg version="1.1" xmlns="http://www.w3.org/2000/svg" xmlns:xlink="http://www.w3.org/1999/xlink" viewBox="0 0 18.3398 14.7363">
 <g>
  <rect height="14.7363" opacity="0" width="18.3398" x="0" y="0"/>
  <path d="M0 13.9453C0 14.375 0.351562 14.7363 0.78125 14.7363C1.2207 14.7363 1.57227 14.375 1.57227 13.9453L1.57227 0.800781C1.57227 0.371094 1.2207 0.0195312 0.78125 0.0195312C0.351562 0.0195312 0 0.371094 0 0.800781ZM16.4062 13.9453C16.4062 14.375 16.7676 14.7363 17.1973 14.7363C17.627 14.7363 17.9785 14.375 17.9785 13.9453L17.9785 0.800781C17.9785 0.371094 17.627 0.0195312 17.1973 0.0195312C16.7676 0.0195312 16.4062 0.371094 16.4062 0.800781Z" fill="var(--color-primary)"/>
  <path d="M9.13086 12.0117C10.7812 12.0117 11.9238 10.7812 11.9238 9.02344C11.9238 7.46094 11.0254 6.26953 9.58008 6.26953C8.58398 6.26953 7.88086 6.86523 7.60742 7.72461L7.56836 7.72461C7.56836 6.95312 7.61719 6.38672 7.73438 5.9082C7.92969 5.12695 8.33008 4.39453 9.13086 4.39453C9.67773 4.39453 10.0488 4.67773 10.293 5.16602C10.459 5.44922 10.6738 5.63477 11.0059 5.63477C11.4648 5.63477 11.6406 5.3125 11.6406 5C11.6406 4.79492 11.5918 4.59961 11.5039 4.42383C11.1523 3.65234 10.2246 3.14453 9.15039 3.14453C7.04102 3.14453 6.25977 5.12695 6.17188 7.14844C6.08398 8.05664 6.17188 9.05273 6.41602 9.82422C6.8457 11.0938 7.74414 12.0117 9.13086 12.0117ZM9.11133 10.7617C8.26172 10.7617 7.7832 9.89258 7.7832 9.04297C7.7832 8.16406 8.30078 7.43164 9.12109 7.43164C9.9707 7.43164 10.4297 8.21289 10.4297 9.08203C10.4297 9.94141 9.94141 10.7617 9.11133 10.7617Z" fill="var(--color-primary)"/>
 </g>
</svg>
