<svg version="1.1" xmlns="http://www.w3.org/2000/svg" xmlns:xlink="http://www.w3.org/1999/xlink" width="18.3398" height="17.998" viewBox="0 0 18.3398 17.998">
 <g>
  <rect height="17.998" opacity="0" width="18.3398" x="0" y="0"/>
  <path d="M3.06641 17.998L14.9121 17.998C16.9629 17.998 17.9785 16.9824 17.9785 14.9707L17.9785 3.04688C17.9785 1.03516 16.9629 0.0195312 14.9121 0.0195312L3.06641 0.0195312C1.02539 0.0195312 0 1.02539 0 3.04688L0 14.9707C0 16.9922 1.02539 17.998 3.06641 17.998Z" fill="var(--color-tertiary)"/>
  <path d="M7.63672 13.7793C7.19727 13.7793 6.83594 13.4766 6.83594 13.0469C6.83594 12.8418 6.88477 12.7051 6.98242 12.5293L10.6738 5.75195L10.6738 5.67383L6.40625 5.67383C6.05469 5.67383 5.80078 5.41016 5.80078 5.04883C5.80078 4.67773 6.04492 4.42383 6.40625 4.42383L11.3281 4.42383C11.9922 4.42383 12.4316 4.84375 12.4316 5.40039C12.4316 5.61523 12.3828 5.82031 12.1875 6.19141L8.4375 13.2227C8.23242 13.6133 7.98828 13.7793 7.63672 13.7793Z" fill="var(--color-primary)"/>
 </g>
</svg>
