<svg version="1.1" xmlns="http://www.w3.org/2000/svg" xmlns:xlink="http://www.w3.org/1999/xlink" width="18.3398" height="17.998" viewBox="0 0 18.3398 17.998">
 <g>
  <rect height="17.998" opacity="0" width="18.3398" x="0" y="0"/>
  <path d="M3.06641 17.998L14.9121 17.998C16.9629 17.998 17.9785 16.9824 17.9785 14.9707L17.9785 3.04688C17.9785 1.03516 16.9629 0.0195312 14.9121 0.0195312L3.06641 0.0195312C1.02539 0.0195312 0 1.02539 0 3.04688L0 14.9707C0 16.9922 1.02539 17.998 3.06641 17.998Z" fill="var(--color-tertiary)"/>
  <path d="M8.97461 13.7891C6.83594 13.7891 5.41016 12.7051 5.41016 11.0742C5.41016 9.95117 6.2207 9.01367 7.44141 8.76953L7.44141 8.71094C6.41602 8.39844 5.80078 7.61719 5.80078 6.65039C5.80078 5.19531 7.11914 4.19922 8.99414 4.19922C10.8691 4.19922 12.1875 5.19531 12.1875 6.65039C12.1875 7.61719 11.5625 8.41797 10.5566 8.71094L10.5566 8.76953C11.7578 9.01367 12.5879 9.94141 12.5879 11.0645C12.5879 12.6855 11.123 13.7891 8.97461 13.7891ZM9.00391 12.6758C10.1855 12.6758 11.0547 11.9727 11.0547 10.9863C11.0547 10.0195 10.2148 9.31641 9.00391 9.31641C7.83203 9.31641 6.95312 10.0293 6.95312 10.9863C6.95312 11.9727 7.82227 12.6758 9.00391 12.6758ZM8.99414 8.25195C10 8.25195 10.7129 7.63672 10.7129 6.76758C10.7129 5.92773 10 5.32227 8.99414 5.32227C7.98828 5.32227 7.28516 5.92773 7.28516 6.76758C7.28516 7.63672 7.99805 8.25195 8.99414 8.25195Z" fill="var(--color-primary)"/>
 </g>
</svg>
