<svg version="1.1" xmlns="http://www.w3.org/2000/svg" xmlns:xlink="http://www.w3.org/1999/xlink" width="18.3398" height="17.998" viewBox="0 0 18.3398 17.998">
 <g>
  <rect height="17.998" opacity="0" width="18.3398" x="0" y="0"/>
  <path d="M3.06641 17.998L14.9121 17.998C16.9629 17.998 17.9785 16.9824 17.9785 14.9707L17.9785 3.04688C17.9785 1.03516 16.9629 0.0195312 14.9121 0.0195312L3.06641 0.0195312C1.02539 0.0195312 0 1.02539 0 3.04688L0 14.9707C0 16.9922 1.02539 17.998 3.06641 17.998Z" fill="var(--color-tertiary)"/>
  <path d="M8.75 13.7891C7.05078 13.7891 6.10352 12.9492 5.85938 12.2461C5.82031 12.1289 5.80078 12.0117 5.80078 11.9043C5.80078 11.5137 6.07422 11.25 6.46484 11.25C6.78711 11.25 6.98242 11.416 7.1582 11.6504C7.57812 12.2168 8.03711 12.5 8.73047 12.5C10.1172 12.5 11.0645 11.1816 11.0449 8.97461L10.9668 8.97461C10.6445 9.7168 9.84375 10.3809 8.50586 10.3809C6.93359 10.3809 5.49805 9.30664 5.49805 7.41211C5.49805 5.45898 6.8457 4.19922 8.92578 4.19922C11.1914 4.19922 12.5098 5.77148 12.5098 8.67188C12.5098 12.0508 11.1816 13.7891 8.75 13.7891ZM8.98438 9.23828C10.1074 9.23828 10.918 8.44727 10.918 7.36328C10.918 6.23047 10.0879 5.40039 8.99414 5.40039C7.83203 5.40039 7.06055 6.17188 7.06055 7.34375C7.06055 8.44727 7.85156 9.23828 8.98438 9.23828Z" fill="var(--color-primary)"/>
 </g>
</svg>
