<svg version="1.1" xmlns="http://www.w3.org/2000/svg" xmlns:xlink="http://www.w3.org/1999/xlink" viewBox="0 0 20.9766 17.041">
 <g>
  <rect height="17.041" opacity="0" width="20.9766" x="0" y="0"/>
  <path d="M5.91797 17.0312L14.6973 17.0312C18.6816 17.0312 20.6152 15.1172 20.6152 11.1426L20.6152 5.88867C20.6152 1.91406 18.6816 0 14.6973 0L5.91797 0C1.93359 0 0 1.91406 0 5.88867L0 11.1426C0 15.1172 1.93359 17.0312 5.91797 17.0312ZM5.91797 15.459C2.91992 15.459 1.57227 14.1211 1.57227 11.1426L1.57227 5.88867C1.57227 2.91016 2.91992 1.57227 5.91797 1.57227L14.6973 1.57227C17.6953 1.57227 19.043 2.91016 19.043 5.88867L19.043 11.1426C19.043 14.1211 17.6953 15.459 14.6973 15.459ZM0.791016 6.55273L19.8242 6.55273L19.8242 5.56641L0.791016 5.56641ZM6.39648 7.22656L14.2188 7.22656C14.9023 7.22656 15.3906 6.74805 15.3906 6.05469C15.3906 5.37109 14.9023 4.89258 14.2188 4.89258L6.39648 4.89258C5.73242 4.89258 5.22461 5.37109 5.22461 6.05469C5.22461 6.74805 5.73242 7.22656 6.39648 7.22656ZM10.3125 10.5566C10.8301 10.5469 11.25 10.1172 11.25 9.62891C11.25 9.11133 10.8301 8.68164 10.3125 8.68164C9.78516 8.68164 9.36523 9.11133 9.36523 9.62891C9.36523 10.1367 9.78516 10.5664 10.3125 10.5566Z" fill="var(--color-primary)"/>
 </g>
</svg>
