<svg version="1.1" xmlns="http://www.w3.org/2000/svg" xmlns:xlink="http://www.w3.org/1999/xlink" width="26.4746" height="17.2559" viewBox="0 0 26.4746 17.2559">
 <g>
  <rect height="17.2559" opacity="0" width="26.4746" x="0" y="0"/>
  <path d="M22.3438 15.3027C22.6562 15.6641 23.2031 15.6641 23.5742 15.2539C25.2051 13.4863 26.1133 11.1523 26.1133 8.62305C26.1133 6.09375 25.2051 3.75 23.5742 1.99219C23.2031 1.58203 22.6562 1.57227 22.3438 1.94336C22.0312 2.29492 22.1289 2.75391 22.4805 3.1543C23.7891 4.60938 24.5215 6.52344 24.5215 8.62305C24.5215 10.7227 23.7891 12.6367 22.4805 14.0918C22.1289 14.4922 22.0312 14.9512 22.3438 15.3027Z" fill="var(--color-secondary)"/>
  <path d="M19.6094 12.5195C19.9316 12.8809 20.5176 12.8906 20.8594 12.4512C21.709 11.3965 22.207 10.0586 22.207 8.62305C22.207 7.1875 21.709 5.84961 20.8594 4.79492C20.5176 4.35547 19.9316 4.35547 19.6094 4.72656C19.2969 5.07812 19.4238 5.51758 19.7363 5.9375C20.3223 6.66016 20.6152 7.60742 20.6152 8.62305C20.6152 9.63867 20.3223 10.5762 19.7363 11.3086C19.4238 11.7285 19.2969 12.168 19.6094 12.5195Z" fill="var(--color-secondary)"/>
  <path d="M8.62305 17.2461C13.3301 17.2461 17.2461 13.3301 17.2461 8.62305C17.2461 3.91602 13.3398 0 8.63281 0C3.92578 0 0 3.91602 0 8.62305C0 13.3301 3.91602 17.2461 8.62305 17.2461ZM8.71094 11.5527C8.125 11.5527 7.91992 11.8652 7.45117 11.8652C6.96289 11.8652 6.64062 11.4453 6.25977 10.9082C5.83008 10.2734 5.46875 9.30664 5.46875 8.37891C5.46875 6.9043 6.42578 6.11328 7.38281 6.11328C7.88086 6.11328 8.30078 6.45508 8.61328 6.45508C8.91602 6.45508 9.38477 6.10352 9.95117 6.10352C10.1758 6.10352 10.957 6.11328 11.4648 6.8457C11.416 6.89453 10.6445 7.32422 10.6445 8.31055C10.6445 9.43359 11.6309 9.83398 11.6602 9.85352C11.6602 9.87305 11.5137 10.4004 11.1426 10.9277C10.8203 11.3867 10.4688 11.8555 9.95117 11.8555C9.43359 11.8555 9.30664 11.5527 8.71094 11.5527ZM9.6875 5.46875C9.43359 5.78125 9.00391 6.01562 8.65234 6.01562C8.61328 6.01562 8.58398 6.00586 8.54492 6.00586C8.54492 5.98633 8.53516 5.92773 8.53516 5.86914C8.53516 5.46875 8.75 5.08789 8.95508 4.83398C9.23828 4.51172 9.6875 4.26758 10.0781 4.25781C10.0879 4.29688 10.0879 4.35547 10.0879 4.4043C10.0879 4.80469 9.92188 5.18555 9.6875 5.46875Z" fill="var(--color-primary)"/>
 </g>
</svg>
