<svg version="1.1" xmlns="http://www.w3.org/2000/svg" xmlns:xlink="http://www.w3.org/1999/xlink" viewBox="0 0 20.2832 19.9316">
 <g>
  <rect height="19.9316" opacity="0" width="20.2832" x="0" y="0"/>
  <path d="M19.9219 9.96094C19.9219 15.4492 15.459 19.9219 9.96094 19.9219C4.47266 19.9219 0 15.4492 0 9.96094C0 4.46289 4.47266 0 9.96094 0C15.459 0 19.9219 4.46289 19.9219 9.96094ZM4.72656 14.502C4.72656 14.7949 4.9707 15.0586 5.27344 15.0586C5.55664 15.0586 5.83008 14.7949 5.83008 14.502C5.83008 14.2285 5.55664 13.9648 5.27344 13.9648C4.9707 13.9648 4.72656 14.2285 4.72656 14.502ZM13.6719 14.502C13.6719 14.7949 13.9258 15.0586 14.2188 15.0586C14.502 15.0586 14.7559 14.7949 14.7559 14.502C14.7559 14.2285 14.502 13.9648 14.2188 13.9648C13.9258 13.9648 13.6719 14.2285 13.6719 14.502ZM6.07422 13.623C6.07422 13.916 6.32812 14.1699 6.62109 14.1699C6.91406 14.1699 7.17773 13.9258 7.17773 13.623C7.17773 13.3398 6.91406 13.0664 6.62109 13.0664C6.31836 13.0664 6.07422 13.3398 6.07422 13.623ZM12.3145 13.623C12.3145 13.9258 12.5781 14.1699 12.8613 14.1699C13.1543 14.1699 13.418 13.916 13.418 13.623C13.418 13.3398 13.1543 13.0664 12.8613 13.0664C12.5781 13.0664 12.3145 13.3398 12.3145 13.623ZM7.60742 13.1152C7.60742 13.3887 7.85156 13.6621 8.14453 13.6621C8.44727 13.6621 8.69141 13.3887 8.69141 13.1152C8.69141 12.8125 8.4375 12.5684 8.14453 12.5684C7.85156 12.5684 7.60742 12.8125 7.60742 13.1152ZM10.791 13.1152C10.791 13.3887 11.0449 13.6621 11.3379 13.6621C11.6309 13.6621 11.8848 13.3887 11.8848 13.1152C11.8848 12.8125 11.6309 12.5684 11.3379 12.5684C11.0449 12.5684 10.791 12.8125 10.791 13.1152ZM9.67773 8.11523C8.89648 6.63086 7.33398 5.89844 5.74219 5.89844C5.44922 5.89844 5.29297 6.08398 5.29297 6.37695C5.33203 7.8125 6.15234 10.4199 9.18945 10.7031L9.18945 12.8906C9.18945 13.1934 9.45312 13.4473 9.74609 13.4473C10.0391 13.4473 10.293 13.1934 10.293 12.8906L10.293 10.7031C13.3496 10.4883 15.332 8.35938 15.3027 5.25391C15.3027 4.92188 15.0977 4.69727 14.7168 4.69727C12.3438 4.66797 10.5273 5.95703 9.67773 8.11523ZM10.4199 9.59961C10.8398 7.39258 12.2363 5.98633 14.1797 5.82031C14.0234 7.90039 12.5781 9.33594 10.4199 9.59961ZM9.11133 9.58984C7.57812 9.38477 6.72852 8.31055 6.46484 7.08984C7.62695 7.28516 8.7793 8.05664 9.11133 9.58984Z" fill="var(--color-primary)"/>
 </g>
</svg>
