<svg version="1.1" xmlns="http://www.w3.org/2000/svg" xmlns:xlink="http://www.w3.org/1999/xlink" width="20.2832" height="19.9316" viewBox="0 0 20.2832 19.9316">
 <g>
  <rect height="19.9316" opacity="0" width="20.2832" x="0" y="0"/>
  <path d="M9.96094 19.9316C15.4102 19.9316 19.9219 15.4199 19.9219 9.9707C19.9219 4.53125 15.4004 0.00976562 9.95117 0.00976562C4.51172 0.00976562 0 4.53125 0 9.9707C0 15.4199 4.52148 19.9316 9.96094 19.9316Z" fill="var(--color-tertiary)"/>
  <path d="M7.02148 15.0684C5.9668 15.0684 5.40039 14.5312 5.40039 13.457L5.40039 8.4082L14.5215 8.4082L14.5215 13.457C14.5215 14.5312 13.9551 15.0684 12.9004 15.0684ZM8.19336 10.3418L11.7285 10.3418C11.9629 10.3418 12.1191 10.1953 12.1191 9.96094L12.1191 9.78516C12.1191 9.55078 11.9629 9.4043 11.7285 9.4043L8.19336 9.4043C7.96875 9.4043 7.80273 9.55078 7.80273 9.78516L7.80273 9.96094C7.80273 10.1953 7.96875 10.3418 8.19336 10.3418ZM5.50781 7.59766C4.90234 7.59766 4.59961 7.23633 4.59961 6.64062L4.59961 6.15234C4.59961 5.54688 4.94141 5.19531 5.50781 5.19531L14.4141 5.19531C15.0293 5.19531 15.332 5.54688 15.332 6.15234L15.332 6.64062C15.332 7.23633 15.0293 7.59766 14.4141 7.59766Z" fill="var(--color-primary)"/>
 </g>
</svg>
