<svg version="1.1" xmlns="http://www.w3.org/2000/svg" xmlns:xlink="http://www.w3.org/1999/xlink" width="23.3887" height="17.9785" viewBox="0 0 23.3887 17.9785">
 <g>
  <rect height="17.9785" opacity="0" width="23.3887" x="0" y="0"/>
  <path d="M3.06641 17.9785L19.9609 17.9785C22.0117 17.9785 23.0273 16.9727 23.0273 14.9609L23.0273 3.02734C23.0273 1.01562 22.0117 0 19.9609 0L3.06641 0C1.02539 0 0 1.01562 0 3.02734L0 14.9609C0 16.9727 1.02539 17.9785 3.06641 17.9785Z" fill="var(--color-tertiary)"/>
  <path d="M3.29102 10.498C3.29102 10.3125 3.36914 10.1367 3.56445 9.95117L7.8125 5.70312L8.58398 4.99023L6.11328 5.08789L5.12695 5.08789C4.70703 5.08789 4.38477 4.79492 4.38477 4.375C4.38477 3.94531 4.6875 3.66211 5.12695 3.66211L10.1172 3.66211C10.5664 3.66211 10.8691 3.95508 10.8691 4.39453L10.8691 9.24805C10.8691 9.69727 10.5762 9.99023 10.1562 9.99023C9.72656 9.99023 9.44336 9.69727 9.44336 9.24805L9.44336 8.27148L9.53125 5.91797L8.82812 6.69922L4.57031 10.9473C4.375 11.1426 4.19922 11.2207 4.0332 11.2207C3.63281 11.2207 3.29102 10.8789 3.29102 10.498ZM19.873 7.5C19.873 7.68555 19.8047 7.86133 19.6094 8.04688L15.3516 12.3047L14.5898 13.0078L17.0605 12.9199L18.0469 12.9199C18.457 12.9199 18.7891 13.2031 18.7891 13.623C18.7891 14.0527 18.4766 14.3457 18.0469 14.3457L13.0566 14.3457C12.6074 14.3457 12.3047 14.043 12.3047 13.6035L12.3047 8.75C12.3047 8.30078 12.5977 8.00781 13.0176 8.00781C13.4473 8.00781 13.7305 8.30078 13.7305 8.75L13.7305 9.72656L13.6426 12.0801L14.3457 11.2988L18.5938 7.05078C18.7988 6.85547 18.9746 6.77734 19.1406 6.77734C19.541 6.77734 19.873 7.11914 19.873 7.5Z" fill="var(--color-primary)"/>
 </g>
</svg>
