<svg version="1.1" xmlns="http://www.w3.org/2000/svg" xmlns:xlink="http://www.w3.org/1999/xlink" viewBox="0 0 21.0547 17.8809">
 <g>
  <rect height="17.8809" opacity="0" width="21.0547" x="0" y="0"/>
  <path d="M20.6934 2.95898L20.6934 14.8633C20.6934 16.9043 19.6973 17.8809 17.627 17.8809L3.06641 17.8809C1.00586 17.8809 0 16.9043 0 14.8633L0 10.0879C0 8.69141 0.390625 7.93945 1.51367 7.08984L9.10156 1.31836C10.3906 0.351562 11.3867 0.00976562 12.9785 0.00976562L17.7148 0.00976562C19.6875 0.00976562 20.6934 1.00586 20.6934 2.95898ZM11.9043 10.6934C11.377 10.6934 11.1523 11.1133 11.4355 11.5723L13.5449 15.0391C13.8184 15.4883 14.3359 15.4785 14.5996 15.0391L16.7285 11.5723C17.0117 11.1133 16.7676 10.6934 16.25 10.6934ZM12.9785 1.58203C11.7285 1.58203 11.0059 1.79688 10.1758 2.46094L2.90039 8.02734C2.5 8.32031 2.60742 8.87695 3.125 8.87695L17.6855 8.87695C18.584 8.87695 19.1211 8.35938 19.1211 7.42188L19.1211 3.03711C19.1211 2.08984 18.5938 1.58203 17.6855 1.58203Z" fill="var(--color-primary)"/>
  <path d="M14.5996 3.08594L16.7285 6.55273C17.0117 7.01172 16.7676 7.43164 16.25 7.43164L11.9043 7.43164C11.377 7.43164 11.1523 7.01172 11.4355 6.55273L13.5449 3.08594C13.8184 2.63672 14.3359 2.64648 14.5996 3.08594Z" fill="var(--color-primary)"/>
 </g>
</svg>
