<svg version="1.1" xmlns="http://www.w3.org/2000/svg" xmlns:xlink="http://www.w3.org/1999/xlink" viewBox="0 0 18.3398 17.9785">
 <g>
  <rect height="17.9785" opacity="0" width="18.3398" x="0" y="0"/>
  <path d="M17.9785 3.02734L17.9785 14.9609C17.9785 16.9727 16.9629 17.9785 14.9121 17.9785L3.06641 17.9785C1.02539 17.9785 0 16.9727 0 14.9609L0 3.02734C0 1.01562 1.02539 0 3.06641 0L14.9121 0C16.9629 0 17.9785 1.01562 17.9785 3.02734ZM8.44727 5.35156L5.05859 11.0938C4.80469 11.5234 5.00977 12.0996 5.48828 12.0996L12.5 12.0996C12.9785 12.0996 13.1934 11.5625 12.9199 11.0938L9.54102 5.35156C9.28711 4.91211 8.70117 4.94141 8.44727 5.35156Z" fill="var(--color-primary)"/>
 </g>
</svg>
