<svg version="1.1" xmlns="http://www.w3.org/2000/svg" xmlns:xlink="http://www.w3.org/1999/xlink" viewBox="0 0 20.2832 19.9316">
 <g>
  <rect height="19.9316" opacity="0" width="20.2832" x="0" y="0"/>
  <path d="M19.9219 9.96094C19.9219 15.4492 15.459 19.9219 9.96094 19.9219C4.47266 19.9219 0 15.4492 0 9.96094C0 4.46289 4.47266 0 9.96094 0C15.459 0 19.9219 4.46289 19.9219 9.96094ZM7.76367 4.88281L5.21484 7.4707C5.03906 7.65625 4.95117 7.87109 4.95117 8.0957C4.95117 8.31055 5.0293 8.52539 5.21484 8.71094L7.77344 11.3281C7.91016 11.4648 8.08594 11.543 8.31055 11.543C8.71094 11.543 9.02344 11.2109 9.02344 10.791C9.02344 10.5762 8.94531 10.4004 8.79883 10.2539L7.61719 9.11133L7.1582 8.78906L8.1543 8.82812L11.0059 8.82812C12.5 8.82812 13.4863 9.7168 13.4863 11.0547C13.4863 12.5 12.4805 13.457 10.9961 13.457L9.66797 13.457C9.20898 13.457 8.90625 13.75 8.90625 14.1797C8.90625 14.6191 9.21875 14.9121 9.6875 14.9121L10.9961 14.9121C13.3594 14.9121 14.9414 13.3887 14.9414 11.0547C14.9414 8.83789 13.3691 7.37305 11.0059 7.37305L8.1543 7.37305L7.14844 7.42188L7.8125 6.89453L8.79883 5.9375C8.94531 5.81055 9.02344 5.61523 9.02344 5.41992C9.02344 4.99023 8.7207 4.66797 8.30078 4.66797C8.07617 4.66797 7.91016 4.73633 7.76367 4.88281Z" fill="var(--color-primary)"/>
 </g>
</svg>
