<svg version="1.1" xmlns="http://www.w3.org/2000/svg" xmlns:xlink="http://www.w3.org/1999/xlink" viewBox="0 0 18.3398 17.9785">
 <g>
  <rect height="17.9785" opacity="0" width="18.3398" x="0" y="0"/>
  <path d="M17.9785 3.02734L17.9785 14.9609C17.9785 16.9727 16.9629 17.9785 14.9121 17.9785L3.06641 17.9785C1.02539 17.9785 0 16.9727 0 14.9609L0 3.02734C0 1.01562 1.02539 0 3.06641 0L14.9121 0C16.9629 0 17.9785 1.01562 17.9785 3.02734ZM5.21484 12.998C4.82422 12.998 4.55078 13.2812 4.55078 13.6621C4.55078 14.0625 4.82422 14.3457 5.21484 14.3457L12.7832 14.3457C13.1738 14.3457 13.4473 14.0625 13.4473 13.6621C13.4473 13.2812 13.1738 12.998 12.7832 12.998ZM8.30078 3.7793L8.30078 8.38867L8.41797 10.2344L6.58203 8.17383L6.01562 7.54883C5.88867 7.41211 5.73242 7.35352 5.52734 7.35352C5.13672 7.35352 4.87305 7.62695 4.87305 8.00781C4.87305 8.17383 4.95117 8.38867 5.07812 8.51562L8.47656 11.9922C8.62305 12.1484 8.79883 12.2266 8.98438 12.2266C9.17969 12.2266 9.3457 12.1289 9.49219 11.9922L12.9004 8.52539C13.0664 8.37891 13.125 8.20312 13.125 8.00781C13.125 7.64648 12.8516 7.35352 12.4805 7.35352C12.2949 7.35352 12.1094 7.41211 11.9824 7.54883L11.3574 8.18359L9.55078 10.2246L9.6582 8.38867L9.6582 3.7793C9.6582 3.37891 9.375 3.0957 8.98438 3.0957C8.57422 3.0957 8.30078 3.37891 8.30078 3.7793Z" fill="var(--color-primary)"/>
 </g>
</svg>
