<svg version="1.1" xmlns="http://www.w3.org/2000/svg" xmlns:xlink="http://www.w3.org/1999/xlink" viewBox="0 0 18.3398 17.9785">
 <g>
  <rect height="17.9785" opacity="0" width="18.3398" x="0" y="0"/>
  <path d="M3.06641 17.9785L14.9121 17.9785C16.9629 17.9785 17.9785 16.9727 17.9785 14.9609L17.9785 3.02734C17.9785 1.01562 16.9629 0 14.9121 0L3.06641 0C1.02539 0 0 1.01562 0 3.02734L0 14.9609C0 16.9727 1.02539 17.9785 3.06641 17.9785ZM3.08594 16.4062C2.10938 16.4062 1.57227 15.8887 1.57227 14.873L1.57227 3.11523C1.57227 2.09961 2.10938 1.57227 3.08594 1.57227L14.8926 1.57227C15.8594 1.57227 16.4062 2.09961 16.4062 3.11523L16.4062 14.873C16.4062 15.8887 15.8594 16.4062 14.8926 16.4062Z" fill="var(--color-primary)"/>
  <path d="M5.92773 6.5625C5.49805 6.5625 5.21484 6.88477 5.21484 7.34375L5.21484 11.9531C5.21484 12.5293 5.52734 12.7539 6.02539 12.7539L10.6543 12.7539C11.1133 12.7539 11.4062 12.4707 11.4062 12.041C11.4062 11.6113 11.1035 11.3281 10.6348 11.3281L8.85742 11.3281L7.41211 11.4844L8.93555 10.0586L12.5391 6.46484C12.6758 6.32812 12.7734 6.13281 12.7734 5.9375C12.7734 5.49805 12.4805 5.21484 12.0508 5.21484C11.8164 5.21484 11.6406 5.30273 11.4941 5.43945L7.90039 9.0332L6.49414 10.5371L6.64062 9.01367L6.64062 7.32422C6.64062 6.85547 6.35742 6.5625 5.92773 6.5625Z" fill="var(--color-primary)"/>
 </g>
</svg>
