<svg version="1.1" xmlns="http://www.w3.org/2000/svg" xmlns:xlink="http://www.w3.org/1999/xlink" viewBox="0 0 18.3398 17.9785">
 <g>
  <rect height="17.9785" opacity="0" width="18.3398" x="0" y="0"/>
  <path d="M3.06641 17.9785L14.9121 17.9785C16.9629 17.9785 17.9785 16.9727 17.9785 14.9609L17.9785 3.02734C17.9785 1.01562 16.9629 0 14.9121 0L3.06641 0C1.02539 0 0 1.01562 0 3.02734L0 14.9609C0 16.9727 1.02539 17.9785 3.06641 17.9785ZM3.08594 16.4062C2.10938 16.4062 1.57227 15.8887 1.57227 14.873L1.57227 3.11523C1.57227 2.09961 2.10938 1.57227 3.08594 1.57227L14.8926 1.57227C15.8594 1.57227 16.4062 2.09961 16.4062 3.11523L16.4062 14.873C16.4062 15.8887 15.8594 16.4062 14.8926 16.4062Z" fill="var(--color-primary)"/>
  <path d="M12.0508 6.5625C11.6211 6.5625 11.3379 6.85547 11.3379 7.32422L11.3379 9.01367L11.4844 10.5371L10.0781 9.0332L6.48438 5.43945C6.34766 5.30273 6.16211 5.21484 5.92773 5.21484C5.49805 5.21484 5.21484 5.49805 5.21484 5.9375C5.21484 6.13281 5.30273 6.32812 5.43945 6.46484L9.04297 10.0586L10.5664 11.4844L9.12109 11.3281L7.34375 11.3281C6.875 11.3281 6.57227 11.6113 6.57227 12.041C6.57227 12.4707 6.86523 12.7539 7.32422 12.7539L11.9531 12.7539C12.4512 12.7539 12.7734 12.5293 12.7734 11.9531L12.7734 7.34375C12.7734 6.88477 12.4805 6.5625 12.0508 6.5625Z" fill="var(--color-primary)"/>
 </g>
</svg>
