<svg version="1.1" xmlns="http://www.w3.org/2000/svg" xmlns:xlink="http://www.w3.org/1999/xlink" width="18.3398" height="17.998" viewBox="0 0 18.3398 17.998">
 <g>
  <rect height="17.998" opacity="0" width="18.3398" x="0" y="0"/>
  <path d="M3.06641 17.998L14.9121 17.998C16.9629 17.998 17.9785 16.9824 17.9785 14.9707L17.9785 3.04688C17.9785 1.03516 16.9629 0.0195312 14.9121 0.0195312L3.06641 0.0195312C1.02539 0.0195312 0 1.02539 0 3.04688L0 14.9707C0 16.9922 1.02539 17.998 3.06641 17.998Z" fill="var(--color-tertiary)"/>
  <path d="M13.4863 8.99414C13.0762 8.99414 12.7539 8.67188 12.7539 8.26172L12.7539 7.75391L12.8516 6.12305L10.625 8.4668C10.3125 8.79883 9.81445 8.78906 9.50195 8.47656C9.19922 8.17383 9.20898 7.65625 9.51172 7.36328L11.8457 5.14648L10.2637 5.24414L9.75586 5.24414C9.3457 5.24414 9.01367 4.92188 9.01367 4.51172C9.01367 4.10156 9.3457 3.76953 9.75586 3.76953L13.3594 3.76953C13.9062 3.76953 14.2285 4.01367 14.2285 4.63867L14.2285 8.26172C14.2285 8.67188 13.8965 8.99414 13.4863 8.99414ZM8.24219 14.2383L4.62891 14.2383C4.08203 14.2383 3.76953 13.9941 3.76953 13.3691L3.76953 9.74609C3.76953 9.33594 4.0918 9.01367 4.50195 9.01367C4.91211 9.01367 5.24414 9.33594 5.24414 9.74609L5.24414 10.2539L5.14648 11.8848L7.37305 9.54102C7.67578 9.20898 8.18359 9.21875 8.48633 9.53125C8.78906 9.83398 8.7793 10.3516 8.47656 10.6445L6.15234 12.8613L7.73438 12.7637L8.24219 12.7637C8.65234 12.7637 8.97461 13.0859 8.97461 13.4961C8.97461 13.9062 8.65234 14.2383 8.24219 14.2383Z" fill="var(--color-primary)"/>
 </g>
</svg>
