<svg version="1.1" xmlns="http://www.w3.org/2000/svg" xmlns:xlink="http://www.w3.org/1999/xlink" viewBox="0 0 18.3398 17.9785">
 <g>
  <rect height="17.9785" opacity="0" width="18.3398" x="0" y="0"/>
  <path d="M17.9785 3.02734L17.9785 14.9609C17.9785 16.9727 16.9629 17.9785 14.9121 17.9785L3.06641 17.9785C1.02539 17.9785 0 16.9727 0 14.9609L0 3.02734C0 1.01562 1.02539 0 3.06641 0L14.9121 0C16.9629 0 17.9785 1.01562 17.9785 3.02734ZM10.8105 6.00586C10.8105 6.23047 10.8887 6.40625 11.0254 6.55273L11.7871 7.29492L13.0176 8.31055L10.8789 8.23242L7.10938 8.23242L4.9707 8.31055L6.19141 7.29492L6.95312 6.55273C7.08984 6.40625 7.16797 6.23047 7.16797 6.00586C7.16797 5.5957 6.85547 5.26367 6.44531 5.26367C6.23047 5.26367 6.04492 5.3418 5.91797 5.47852L3.00781 8.38867C2.8125 8.59375 2.72461 8.75977 2.72461 8.98438C2.72461 9.19922 2.8125 9.36523 3.00781 9.57031L5.91797 12.4902C6.04492 12.627 6.23047 12.6953 6.44531 12.6953C6.85547 12.6953 7.16797 12.3828 7.16797 11.9629C7.16797 11.7383 7.08008 11.5625 6.95312 11.4258L6.19141 10.6738L4.98047 9.6582L7.10938 9.74609L10.8789 9.74609L13.0078 9.6582L11.7871 10.6738L11.0254 11.4258C10.8984 11.5625 10.8105 11.7383 10.8105 11.9629C10.8105 12.3828 11.123 12.6953 11.5332 12.6953C11.748 12.6953 11.9336 12.627 12.0605 12.4902L14.9707 9.57031C15.166 9.36523 15.2539 9.19922 15.2539 8.98438C15.2539 8.75977 15.166 8.59375 14.9707 8.38867L12.0605 5.47852C11.9336 5.3418 11.748 5.26367 11.5332 5.26367C11.123 5.26367 10.8105 5.5957 10.8105 6.00586Z" fill="var(--color-primary)"/>
 </g>
</svg>
