<svg version="1.1" xmlns="http://www.w3.org/2000/svg" xmlns:xlink="http://www.w3.org/1999/xlink" viewBox="0 0 18.3398 17.9785">
 <g>
  <rect height="17.9785" opacity="0" width="18.3398" x="0" y="0"/>
  <path d="M3.06641 17.9785L14.9121 17.9785C16.9629 17.9785 17.9785 16.9727 17.9785 14.9609L17.9785 3.02734C17.9785 1.01562 16.9629 0 14.9121 0L3.06641 0C1.02539 0 0 1.01562 0 3.02734L0 14.9609C0 16.9727 1.02539 17.9785 3.06641 17.9785ZM3.08594 16.4062C2.10938 16.4062 1.57227 15.8887 1.57227 14.873L1.57227 3.11523C1.57227 2.09961 2.10938 1.57227 3.08594 1.57227L14.8926 1.57227C15.8594 1.57227 16.4062 2.09961 16.4062 3.11523L16.4062 14.873C16.4062 15.8887 15.8594 16.4062 14.8926 16.4062Z" fill="var(--color-primary)"/>
  <path d="M4.07227 8.97461C4.07227 9.16992 4.14062 9.3457 4.33594 9.54102L7.44141 12.7637C7.58789 12.9102 7.74414 12.9883 7.94922 12.9883C8.34961 12.9883 8.63281 12.6953 8.63281 12.2852C8.63281 12.0996 8.55469 11.8848 8.39844 11.748L6.81641 10.2637L6.21094 9.6875L7.67578 9.74609L13.1641 9.74609C13.5742 9.74609 13.9258 9.39453 13.9258 8.97461C13.9258 8.55469 13.5742 8.19336 13.1641 8.19336L7.67578 8.19336L6.21094 8.26172L6.81641 7.68555L8.39844 6.20117C8.55469 6.06445 8.63281 5.85938 8.63281 5.67383C8.63281 5.26367 8.34961 4.96094 7.94922 4.96094C7.74414 4.96094 7.58789 5.03906 7.44141 5.18555L4.33594 8.4082C4.14062 8.60352 4.07227 8.76953 4.07227 8.97461Z" fill="var(--color-primary)"/>
 </g>
</svg>
