<svg version="1.1" xmlns="http://www.w3.org/2000/svg" xmlns:xlink="http://www.w3.org/1999/xlink" width="18.3398" height="17.998" viewBox="0 0 18.3398 17.998">
 <g>
  <rect height="17.998" opacity="0" width="18.3398" x="0" y="0"/>
  <path d="M3.06641 17.998L14.9121 17.998C16.9629 17.998 17.9785 16.9824 17.9785 14.9707L17.9785 3.04688C17.9785 1.03516 16.9629 0.0195312 14.9121 0.0195312L3.06641 0.0195312C1.02539 0.0195312 0 1.02539 0 3.04688L0 14.9707C0 16.9922 1.02539 17.998 3.06641 17.998Z" fill="var(--color-tertiary)"/>
  <path d="M4.96094 9.54102C4.53125 9.29688 4.54102 8.70117 4.96094 8.45703L10.6934 5.06836C11.123 4.80469 11.6992 5.00977 11.6992 5.49805L11.6992 12.5C11.6992 12.9785 11.1621 13.2129 10.6934 12.9297Z" fill="var(--color-primary)"/>
 </g>
</svg>
