<svg version="1.1" xmlns="http://www.w3.org/2000/svg" xmlns:xlink="http://www.w3.org/1999/xlink" viewBox="0 0 20.2832 19.9316">
 <g>
  <rect height="19.9316" opacity="0" width="20.2832" x="0" y="0"/>
  <path d="M19.9219 9.96094C19.9219 15.4492 15.459 19.9219 9.96094 19.9219C4.47266 19.9219 0 15.4492 0 9.96094C0 4.46289 4.47266 0 9.96094 0C15.459 0 19.9219 4.46289 19.9219 9.96094ZM9.13086 5.63477L9.21875 8.75L6.49414 7.01172C6.34766 6.91406 6.17188 6.86523 5.9668 6.86523C5.55664 6.86523 5.16602 7.17773 5.16602 7.70508C5.16602 8.02734 5.32227 8.26172 5.6543 8.44727L8.49609 10.0195L5.6543 11.6113C5.32227 11.7969 5.16602 12.0117 5.16602 12.3535C5.16602 12.8711 5.55664 13.1934 5.9668 13.1934C6.17188 13.1934 6.34766 13.1348 6.49414 13.0371L9.21875 11.2695L9.13086 14.2871C9.12109 14.8242 9.44336 15.1562 9.98047 15.1562C10.5078 15.1562 10.8008 14.8438 10.791 14.2871L10.7031 11.2695L13.4277 13.0469C13.5742 13.1445 13.75 13.2031 13.9551 13.2031C14.3652 13.2031 14.7559 12.8809 14.7559 12.3633C14.7559 12.0215 14.5996 11.8066 14.2676 11.6211L11.4062 10.0098L14.2676 8.4375C14.5996 8.25195 14.7559 8.01758 14.7559 7.68555C14.7559 7.16797 14.3652 6.8457 13.9551 6.8457C13.75 6.8457 13.5742 6.9043 13.4277 7.00195L10.7031 8.75L10.791 5.63477C10.8008 5.07812 10.5078 4.76562 9.98047 4.76562C9.44336 4.76562 9.12109 5.09766 9.13086 5.63477Z" fill="var(--color-primary)"/>
 </g>
</svg>
