<svg version="1.1" xmlns="http://www.w3.org/2000/svg" xmlns:xlink="http://www.w3.org/1999/xlink" width="20.2832" height="19.9316" viewBox="0 0 20.2832 19.9316">
 <g>
  <rect height="19.9316" opacity="0" width="20.2832" x="0" y="0"/>
  <path d="M9.96094 19.9219C15.4102 19.9219 19.9219 15.4004 19.9219 9.96094C19.9219 4.51172 15.4004 0 9.95117 0C4.51172 0 0 4.51172 0 9.96094C0 15.4004 4.52148 19.9219 9.96094 19.9219ZM9.96094 18.2617C5.35156 18.2617 1.66992 14.5703 1.66992 9.96094C1.66992 5.35156 5.3418 1.66016 9.95117 1.66016C14.5605 1.66016 18.2617 5.35156 18.2617 9.96094C18.2617 14.5703 14.5703 18.2617 9.96094 18.2617Z" fill="var(--color-secondary)"/>
  <path d="M10.0781 15.8105C10.9668 15.8105 11.8262 15.7031 12.3828 15.5176C12.793 15.3906 13.0176 15.1367 13.0176 14.8047C13.0176 14.4824 12.7734 14.2383 12.4512 14.2383C12.373 14.2383 12.2559 14.2676 12.1484 14.2969C11.5039 14.4434 10.9766 14.541 10.2441 14.541C7.37305 14.541 5.57617 12.8027 5.57617 10.0098C5.57617 7.22656 7.38281 5.3418 10.0488 5.3418C12.6562 5.3418 14.4043 6.97266 14.4043 9.42383C14.4043 10.9375 13.916 11.9043 13.2031 11.9043C12.7344 11.9043 12.5 11.6602 12.5 11.1914L12.5 7.58789C12.5 7.1875 12.2461 6.91406 11.8457 6.91406C11.4844 6.91406 11.2402 7.20703 11.2402 7.44141L11.2402 7.63672C10.8789 7.2168 10.2832 6.91406 9.6582 6.91406C8.16406 6.91406 7.09961 8.19336 7.09961 9.99023C7.09961 11.8066 8.16406 13.0957 9.6875 13.0957C10.4199 13.0957 11.0449 12.7539 11.4258 12.1582C11.6992 12.7344 12.2949 13.0957 13.0664 13.0957C14.6387 13.0957 15.6836 11.5918 15.6836 9.38477C15.6836 6.24023 13.3887 4.08203 10.0586 4.08203C6.61133 4.08203 4.23828 6.48438 4.23828 9.98047C4.23828 13.4766 6.58203 15.8105 10.0781 15.8105ZM9.91211 11.7871C9.08203 11.7871 8.56445 11.0938 8.56445 9.96094C8.56445 8.83789 9.0918 8.13477 9.92188 8.13477C10.7617 8.13477 11.2988 8.81836 11.2988 9.93164C11.2988 11.0742 10.752 11.7871 9.91211 11.7871Z" fill="var(--color-primary)"/>
 </g>
</svg>
