<svg version="1.1" xmlns="http://www.w3.org/2000/svg" xmlns:xlink="http://www.w3.org/1999/xlink" viewBox="0 0 23.8867 19.5996">
 <g>
  <rect height="19.5996" opacity="0" width="23.8867" x="0" y="0"/>
  <path d="M23.5254 11.7578C23.5254 8.88672 22.4902 6.24023 20.7617 4.18945C20.5664 3.95508 20.2344 3.95508 20.0195 4.17969L17.7539 6.44531C17.5684 6.63086 17.5586 6.89453 17.7246 7.09961C18.7305 8.38867 19.3359 10.0098 19.3359 11.7578C19.3359 13.5156 18.7305 15.1367 17.666 16.4941C17.5293 16.6602 17.5391 16.875 17.6855 17.0312L20.0098 19.3555C20.2344 19.5801 20.5566 19.5801 20.7617 19.3359C22.4902 17.2852 23.5254 14.6387 23.5254 11.7578Z" fill="var(--color-primary)"/>
  <path d="M11.7578 4.18945C13.5254 4.18945 15.1465 4.80469 16.4453 5.81055C16.6406 5.9668 16.8945 5.94727 17.0801 5.76172L19.3457 3.49609C19.5703 3.27148 19.5605 2.94922 19.3262 2.75391C17.2852 1.03516 14.6387 0 11.7578 0C8.88672 0 6.24023 1.03516 4.19922 2.75391C3.96484 2.94922 3.95508 3.27148 4.17969 3.49609L6.44531 5.76172C6.63086 5.94727 6.89453 5.9668 7.10938 5.80078C8.39844 4.80469 10.0098 4.18945 11.7578 4.18945Z" fill="var(--color-primary)"/>
  <path d="M0 11.7578C0 14.6387 1.03516 17.2852 2.76367 19.3359C2.95898 19.5801 3.29102 19.5801 3.50586 19.3555L5.83008 17.0312C5.97656 16.875 5.99609 16.6602 5.85938 16.4941C4.79492 15.1367 4.18945 13.5156 4.18945 11.7578C4.18945 10.0098 4.78516 8.38867 5.80078 7.09961C5.95703 6.89453 5.95703 6.63086 5.77148 6.44531L3.50586 4.17969C3.28125 3.95508 2.95898 3.95508 2.76367 4.18945C1.03516 6.24023 0 8.88672 0 11.7578Z" fill="var(--color-primary)"/>
  <path d="M6.98242 15.6348C7.24609 15.6348 7.42188 15.4883 7.49023 15.1953L7.90039 13.6035L10.2246 13.6035L10.6445 15.1953C10.7227 15.4883 10.8789 15.6348 11.1816 15.6348C11.4355 15.6348 11.6699 15.4785 11.6699 15.1465C11.6699 15.0488 11.6602 14.9512 11.6211 14.8242L9.85352 8.62305C9.72656 8.20312 9.50195 7.98828 9.07227 7.98828C8.64258 7.98828 8.39844 8.22266 8.28125 8.63281L6.52344 14.8242C6.49414 14.9316 6.47461 15.0391 6.47461 15.1465C6.47461 15.4785 6.70898 15.6348 6.98242 15.6348ZM8.11523 12.7539L9.01367 9.25781L9.0918 9.25781L10.0098 12.7539ZM14.5605 15.4102C15.8105 15.4102 16.7578 14.7559 16.7578 13.5059C16.7578 12.4023 16.1133 11.9824 15.1562 11.5234L14.4824 11.2012C13.9453 10.9473 13.418 10.6152 13.418 10C13.418 9.36523 13.916 9.04297 14.541 9.04297C15.2246 9.04297 15.5176 9.45312 15.6836 10.1074C15.752 10.3418 15.8984 10.4883 16.1426 10.4883C16.4355 10.4883 16.6309 10.3125 16.6309 10.0195C16.6309 9.92188 16.6113 9.79492 16.5723 9.6582C16.3281 8.7207 15.5859 8.21289 14.541 8.21289C13.3496 8.21289 12.4219 8.87695 12.4219 10.0586C12.4219 11.0645 12.9883 11.582 13.9746 12.041L14.6484 12.3633C15.2539 12.6367 15.7617 12.9395 15.7617 13.5938C15.7617 14.2578 15.293 14.5703 14.5605 14.5703C13.7598 14.5703 13.4277 14.1016 13.3008 13.5156C13.2227 13.2129 13.0566 13.0859 12.8223 13.0859C12.5488 13.0859 12.334 13.2617 12.334 13.5645C12.334 13.6719 12.3438 13.7695 12.373 13.8672C12.5488 14.7754 13.4375 15.4102 14.5605 15.4102ZM14.5508 16.377C14.6875 16.377 14.8047 16.2598 14.8047 16.123L14.8047 7.50977C14.8047 7.37305 14.6875 7.24609 14.5508 7.24609C14.4043 7.24609 14.2871 7.37305 14.2871 7.50977L14.2871 16.123C14.2871 16.2598 14.4043 16.377 14.5508 16.377Z" fill="var(--color-primary)"/>
 </g>
</svg>
