<svg version="1.1" xmlns="http://www.w3.org/2000/svg" xmlns:xlink="http://www.w3.org/1999/xlink" viewBox="0 0 26.2598 22.0215">
 <g>
  <rect height="22.0215" opacity="0" width="26.2598" x="0" y="0"/>
  <path d="M0.947266 20.1953C1.45508 20.1953 1.74805 19.9512 1.89453 19.4434L3.29102 14.834L9.67773 14.834L11.0742 19.4434C11.2207 19.9512 11.5137 20.1953 12.041 20.1953C12.5586 20.1953 12.9785 19.8633 12.9785 19.3359C12.9785 19.1895 12.9199 18.9355 12.8711 18.7793L7.8418 2.88086C7.63672 2.19727 7.22656 1.76758 6.49414 1.76758C5.76172 1.76758 5.35156 2.1875 5.13672 2.89062L0.117188 18.7793C0.0683594 18.9453 0 19.1504 0 19.3359C0 19.8633 0.410156 20.1953 0.947266 20.1953ZM3.76953 13.1934L6.43555 4.29688L6.51367 4.29688L9.19922 13.1934ZM20.498 19.6777C23.5449 19.6777 25.8984 18.0762 25.8984 15.0879C25.8984 12.3926 24.0234 11.3184 21.748 10.4004L20.0781 9.72656C18.5742 9.14062 17.1289 8.29102 17.1289 6.62109C17.1289 4.87305 18.6719 3.94531 20.4395 3.94531C22.2754 3.94531 23.4277 4.9707 23.7891 6.76758C23.8867 7.20703 24.1602 7.56836 24.707 7.56836C25.3027 7.56836 25.6445 7.17773 25.6348 6.63086C25.6348 6.48438 25.6152 6.26953 25.5859 6.10352C25.0391 3.54492 22.9688 2.27539 20.4395 2.27539C17.6172 2.27539 15.2539 3.89648 15.2539 6.72852C15.2539 9.23828 17.0508 10.4785 19.2773 11.3672L20.957 12.041C22.627 12.6855 24.0332 13.457 24.0332 15.2539C24.0332 17.1191 22.5293 18.0078 20.5078 18.0078C18.4082 18.0078 17.1582 17.0312 16.7969 15.0781C16.6895 14.5801 16.3672 14.2578 15.8594 14.2578C15.3223 14.2578 14.9609 14.6289 14.9609 15.1562C14.9609 15.3516 14.9902 15.5566 15.0195 15.7129C15.5566 18.3984 17.8125 19.6777 20.498 19.6777ZM20.4199 22.0117C20.7715 22.0117 21.0547 21.7285 21.0547 21.377L21.0547 0.634766C21.0547 0.283203 20.7715 0 20.4199 0C20.0684 0 19.7852 0.283203 19.7852 0.634766L19.7852 21.377C19.7852 21.7285 20.0684 22.0117 20.4199 22.0117Z" fill="var(--color-primary)"/>
 </g>
</svg>
