<svg version="1.1" xmlns="http://www.w3.org/2000/svg" xmlns:xlink="http://www.w3.org/1999/xlink" viewBox="0 0 20.2402 19.8825">
 <g>
  <rect height="19.8825" opacity="0" width="20.2402" x="0" y="0"/>
  <path d="M4.33883 4.33092C1.26265 7.40709-0.20219 11.5379 0.022419 14.702C0.207966 17.954 1.89742 19.6727 5.09078 19.8485C8.33297 20.0731 12.4638 18.618 15.54 15.5321C18.6162 12.4559 20.081 8.33482 19.8466 5.08287C19.6806 1.89927 17.9521 0.209821 14.7099 0.0242746C11.5459-0.2101 7.415 1.25474 4.33883 4.33092ZM5.61812 12.0946C5.43258 11.8993 5.44234 11.5868 5.61812 11.4012C5.8232 11.2157 6.1357 11.2157 6.32125 11.4012L7.05367 12.1336L7.82515 11.3622L7.08297 10.62C6.89742 10.4344 6.88765 10.1317 7.08297 9.95592C7.26851 9.75084 7.59078 9.7606 7.78609 9.94615L8.51851 10.6786L9.28023 9.91685L8.53804 9.17467C8.3525 8.98912 8.34273 8.68638 8.53804 8.50084C8.71383 8.30552 9.03609 8.31529 9.21187 8.49107L9.96383 9.23326L10.7353 8.47154L9.99312 7.72935C9.80758 7.53404 9.80758 7.22154 9.98336 7.04576C10.1884 6.85045 10.4814 6.85045 10.667 7.04576L11.4091 7.78795L12.1806 7.01646L11.4384 6.28404C11.2529 6.08873 11.2627 5.77623 11.4384 5.58092C11.6435 5.39537 11.9462 5.3856 12.1318 5.57115L14.2998 7.73912C14.4853 7.92467 14.4755 8.2274 14.29 8.43248C14.1045 8.61802 13.7822 8.61802 13.5966 8.43248L12.8642 7.69029L12.0927 8.47154L12.8349 9.20396C13.0205 9.39927 13.0205 9.68248 12.8349 9.88756C12.6396 10.0536 12.3369 10.0633 12.1513 9.88756L11.4091 9.14537L10.6474 9.91685L11.3798 10.6493C11.5654 10.8348 11.5654 11.1473 11.3701 11.3329C11.1845 11.5282 10.8818 11.5282 10.6962 11.3426L9.96383 10.6004L9.20211 11.3622L9.92476 12.0946C10.1103 12.2801 10.1201 12.6024 9.915 12.7879C9.73922 12.9833 9.43648 12.9735 9.25093 12.7879L8.50875 12.0458L7.73726 12.8172L8.46968 13.5497C8.65523 13.7352 8.65523 14.0477 8.46968 14.2528C8.28414 14.4286 7.97164 14.4383 7.78609 14.2528Z" fill="var(--color-primary)"/>
 </g>
</svg>
