<svg version="1.1" xmlns="http://www.w3.org/2000/svg" xmlns:xlink="http://www.w3.org/1999/xlink" viewBox="0 0 15.2734 14.9316">
 <g>
  <rect height="14.9316" opacity="0" width="15.2734" x="0" y="0"/>
  <path d="M14.9121 13.5645L14.9121 1.34766C14.9121 0.429688 14.375 0 13.75 0C13.4668 0 13.1836 0.078125 12.9004 0.244141L2.63672 6.2207C1.9043 6.65039 1.62109 6.97266 1.62109 7.46094C1.62109 7.94922 1.9043 8.27148 2.63672 8.70117L12.9004 14.6777C13.1836 14.834 13.4668 14.9219 13.75 14.9219C14.375 14.9219 14.9121 14.4824 14.9121 13.5645ZM13.3398 12.793C13.3398 12.9004 13.2617 12.9883 13.1641 12.9883C13.125 12.9883 13.0859 12.9688 13.0469 12.9492L3.93555 7.60742C3.85742 7.56836 3.83789 7.50977 3.83789 7.46094C3.83789 7.40234 3.85742 7.35352 3.93555 7.31445L13.0469 1.97266C13.0859 1.94336 13.125 1.93359 13.1641 1.93359C13.2617 1.93359 13.3398 2.01172 13.3398 2.12891ZM0.830078 14.9219C1.30859 14.9219 1.66992 14.5605 1.66992 14.1016L1.66992 0.820312C1.66992 0.361328 1.30859 0 0.830078 0C0.361328 0 0 0.361328 0 0.820312L0 14.1016C0 14.5605 0.361328 14.9219 0.830078 14.9219Z" fill="var(--color-primary)"/>
 </g>
</svg>
