<svg version="1.1" xmlns="http://www.w3.org/2000/svg" xmlns:xlink="http://www.w3.org/1999/xlink" viewBox="0 0 20.2832 19.9316">
 <g>
  <rect height="19.9316" opacity="0" width="20.2832" x="0" y="0"/>
  <path d="M19.9219 9.96094C19.9219 15.4492 15.459 19.9219 9.96094 19.9219C4.47266 19.9219 0 15.4492 0 9.96094C0 4.46289 4.47266 0 9.96094 0C15.459 0 19.9219 4.46289 19.9219 9.96094ZM6.20117 6.12305C5.80078 6.12305 5.57617 6.33789 5.57617 6.74805L5.57617 13.1738C5.57617 13.5938 5.80078 13.7988 6.20117 13.7988L7.28516 13.7988C7.68555 13.7988 7.91016 13.5938 7.91016 13.1738L7.91016 10.2637C7.97852 10.4199 8.10547 10.5566 8.31055 10.6738L13.1152 13.4961C13.291 13.6035 13.4668 13.6621 13.6523 13.6621C14.0234 13.6621 14.3262 13.3984 14.3262 12.8711L14.3262 7.08008C14.3262 6.5625 14.0234 6.28906 13.6523 6.28906C13.4668 6.28906 13.291 6.34766 13.1152 6.45508L8.31055 9.27734C8.10547 9.39453 7.97852 9.53125 7.91016 9.6875L7.91016 6.74805C7.91016 6.32812 7.68555 6.12305 7.28516 6.12305Z" fill="var(--color-primary)"/>
 </g>
</svg>
