<svg version="1.1" xmlns="http://www.w3.org/2000/svg" xmlns:xlink="http://www.w3.org/1999/xlink" viewBox="0 0 20.2832 19.9316">
 <g>
  <rect height="19.9316" opacity="0" width="20.2832" x="0" y="0"/>
  <path d="M9.96094 19.9219C15.459 19.9219 19.9219 15.459 19.9219 9.96094C19.9219 4.46289 15.459 0 9.96094 0C4.46289 0 0 4.46289 0 9.96094C0 15.459 4.46289 19.9219 9.96094 19.9219ZM9.96094 18.2617C5.37109 18.2617 1.66016 14.5508 1.66016 9.96094C1.66016 5.37109 5.37109 1.66016 9.96094 1.66016C14.5508 1.66016 18.2617 5.37109 18.2617 9.96094C18.2617 14.5508 14.5508 18.2617 9.96094 18.2617Z" fill="var(--color-primary)"/>
  <path d="M8.00781 14.2773L10.4297 14.2773C12.0898 14.2773 13.3984 13.5156 13.3984 11.8555C13.3984 10.6641 12.5684 9.86328 11.3867 9.72656L11.3867 9.66797C12.2949 9.52148 12.959 8.67188 12.959 7.76367C12.959 6.29883 11.7285 5.60547 10.4199 5.60547L8.00781 5.60547C7.54883 5.60547 7.29492 5.9082 7.29492 6.32812L7.29492 13.5645C7.29492 13.9746 7.55859 14.2773 8.00781 14.2773ZM8.4375 9.3457L8.4375 6.5625L10.1367 6.5625C11.0938 6.5625 11.8262 6.95312 11.8262 7.90039C11.8262 8.95508 10.9473 9.3457 9.87305 9.3457ZM8.4375 13.3301L8.4375 10.2734L10.1172 10.2734C11.2793 10.2734 12.2363 10.6445 12.2363 11.7969C12.2363 12.9199 11.3477 13.3301 10.2148 13.3301ZM9.95117 15.3809C10.1562 15.3809 10.2734 15.2539 10.2734 15.0488L10.2734 4.73633C10.2734 4.54102 10.1465 4.4043 9.95117 4.4043C9.75586 4.4043 9.61914 4.54102 9.61914 4.73633L9.61914 15.0488C9.61914 15.2539 9.75586 15.3809 9.95117 15.3809Z" fill="var(--color-primary)"/>
 </g>
</svg>
