<svg version="1.1" xmlns="http://www.w3.org/2000/svg" xmlns:xlink="http://www.w3.org/1999/xlink" viewBox="0 0 22.168 20.8496">
 <g>
  <rect height="20.8496" opacity="0" width="22.168" x="0" y="0"/>
  <path d="M12.0996 0.341797L20.4395 5.15625C20.8008 5.36133 20.9668 5.61523 20.9668 5.9082C20.9668 6.30859 20.6543 6.69922 20.1172 6.69922L19.2578 6.69922L19.2578 17.9297L19.8828 17.9297C20.2832 17.9297 20.5078 18.1641 20.5078 18.5547L20.5078 19.2676L21.0156 19.2676C21.4453 19.2676 21.8066 19.6191 21.8066 20.0488C21.8066 20.4785 21.4453 20.8398 21.0156 20.8398L0.78125 20.8398C0.351562 20.8398 0 20.4785 0 20.0488C0 19.6191 0.351562 19.2676 0.78125 19.2676L1.29883 19.2676L1.29883 18.5547C1.29883 18.1641 1.5332 17.9297 1.93359 17.9297L2.54883 17.9297L2.54883 6.69922L1.68945 6.69922C1.15234 6.69922 0.839844 6.30859 0.839844 5.9082C0.839844 5.61523 0.996094 5.36133 1.36719 5.15625L9.70703 0.341797C10.0781 0.117188 10.498 0 10.8984 0C11.2988 0 11.709 0.117188 12.0996 0.341797ZM10.5566 5.76172L10.5566 6.65039L8.89648 6.65039C8.41797 6.65039 8.1543 6.96289 8.1543 7.40234L8.1543 14.873C8.1543 15.293 8.42773 15.6055 8.89648 15.6055L10.5566 15.6055L10.5566 16.4062C10.5566 16.6016 10.6934 16.748 10.8984 16.748C11.1133 16.748 11.2305 16.6016 11.2305 16.4062L11.2305 15.6055L11.3867 15.6055C13.1055 15.6055 14.4531 14.8145 14.4531 13.1055C14.4531 11.8848 13.6035 11.0547 12.3828 10.9082L12.3828 10.8496C13.3203 10.7031 14.0039 9.81445 14.0039 8.88672C14.0039 7.37305 12.7344 6.65039 11.377 6.65039L11.2305 6.65039L11.2305 5.76172C11.2305 5.55664 11.1035 5.41992 10.8984 5.41992C10.6934 5.41992 10.5566 5.55664 10.5566 5.76172ZM10.5566 14.6191L9.33594 14.6191L9.33594 11.4746L10.5566 11.4746ZM13.252 13.0371C13.252 14.1602 12.4121 14.6191 11.3184 14.6191L11.2305 14.6191L11.2305 11.4844L11.2793 11.4844C12.3828 11.4844 13.252 11.9336 13.252 13.0371ZM10.5566 10.5176L9.33594 10.5176L9.33594 7.65625L10.5566 7.65625ZM12.832 9.0332C12.832 9.9707 12.1387 10.4004 11.2305 10.4883L11.2305 7.65625C12.1582 7.70508 12.832 8.10547 12.832 9.0332Z" fill="var(--color-primary)"/>
 </g>
</svg>
