<svg version="1.1" xmlns="http://www.w3.org/2000/svg" xmlns:xlink="http://www.w3.org/1999/xlink" viewBox="0 0 18.3398 17.9785">
 <g>
  <rect height="17.9785" opacity="0" width="18.3398" x="0" y="0"/>
  <path d="M17.9785 3.02734L17.9785 14.9609C17.9785 16.9727 16.9629 17.9785 14.9121 17.9785L3.06641 17.9785C1.02539 17.9785 0 16.9727 0 14.9609L0 3.02734C0 1.01562 1.02539 0 3.06641 0L14.9121 0C16.9629 0 17.9785 1.01562 17.9785 3.02734ZM8.64258 3.59375L8.64258 4.49219L6.98242 4.49219C6.50391 4.49219 6.24023 4.80469 6.24023 5.24414L6.24023 12.7051C6.24023 13.125 6.51367 13.4375 6.98242 13.4375L8.64258 13.4375L8.64258 14.2383C8.64258 14.4434 8.7793 14.5801 8.98438 14.5801C9.19922 14.5801 9.31641 14.4434 9.31641 14.2383L9.31641 13.4375L9.47266 13.4375C11.1914 13.4375 12.5391 12.6562 12.5391 10.9375C12.5391 9.7168 11.6895 8.88672 10.4688 8.74023L10.4688 8.68164C11.4062 8.53516 12.0898 7.65625 12.0898 6.71875C12.0898 5.20508 10.8203 4.49219 9.46289 4.49219L9.31641 4.49219L9.31641 3.59375C9.31641 3.39844 9.18945 3.25195 8.98438 3.25195C8.7793 3.25195 8.64258 3.39844 8.64258 3.59375ZM8.64258 12.4609L7.42188 12.4609L7.42188 9.30664L8.64258 9.30664ZM11.3379 10.8789C11.3379 11.9922 10.498 12.4609 9.4043 12.4609L9.31641 12.4609L9.31641 9.31641L9.375 9.31641C10.4688 9.31641 11.3379 9.76562 11.3379 10.8789ZM8.64258 8.34961L7.42188 8.34961L7.42188 5.48828L8.64258 5.48828ZM10.918 6.86523C10.918 7.80273 10.2344 8.24219 9.31641 8.32031L9.31641 5.48828C10.2441 5.53711 10.918 5.94727 10.918 6.86523Z" fill="var(--color-primary)"/>
 </g>
</svg>
