<svg version="1.1" xmlns="http://www.w3.org/2000/svg" xmlns:xlink="http://www.w3.org/1999/xlink" width="20.2832" height="19.9316" viewBox="0 0 20.2832 19.9316">
 <g>
  <rect height="19.9316" opacity="0" width="20.2832" x="0" y="0"/>
  <path d="M9.96094 19.9219C15.4102 19.9219 19.9219 15.4004 19.9219 9.96094C19.9219 4.51172 15.4004 0 9.95117 0C4.51172 0 0 4.51172 0 9.96094C0 15.4004 4.52148 19.9219 9.96094 19.9219Z" fill="var(--color-tertiary)"/>
  <path d="M10.127 15.9082C9.85352 15.9082 9.63867 15.7031 9.63867 15.4102L9.63867 14.7363L8.125 14.7363C7.65625 14.7363 7.33398 14.4141 7.33398 13.9453L7.33398 6.16211C7.33398 5.68359 7.66602 5.36133 8.125 5.36133L9.63867 5.36133L9.63867 4.59961C9.63867 4.31641 9.85352 4.11133 10.127 4.11133C10.4102 4.11133 10.6152 4.31641 10.6152 4.59961L10.6152 5.36133L10.752 5.36133C12.3047 5.36133 13.3496 6.36719 13.3496 7.76367C13.3496 8.62305 12.8223 9.41406 12.0898 9.77539C13.1348 10.0879 13.8086 10.9375 13.8086 12.0801C13.8086 13.7109 12.627 14.7363 10.752 14.7363L10.6152 14.7363L10.6152 15.4102C10.6152 15.7031 10.4102 15.9082 10.127 15.9082ZM8.63281 13.5547L9.63867 13.5449L9.63867 10.498L8.63281 10.498ZM10.6152 13.5352C11.8848 13.4863 12.5195 12.9688 12.5195 12.0215C12.5195 11.0938 11.8848 10.5762 10.6152 10.5078ZM8.62305 9.32617L9.63867 9.32617L9.63867 6.5332L8.63281 6.5332ZM10.6152 9.26758C11.5723 9.14062 12.0508 8.65234 12.0508 7.86133C12.0508 7.08984 11.5527 6.64062 10.6152 6.5625Z" fill="var(--color-primary)"/>
 </g>
</svg>
