<svg version="1.1" xmlns="http://www.w3.org/2000/svg" xmlns:xlink="http://www.w3.org/1999/xlink" viewBox="0 0 16.3909 17.3145">
 <g>
  <rect height="17.3145" opacity="0" width="16.3909" x="0" y="0"/>
  <path d="M3.5763 12.5977C5.53919 12.5977 7.00403 10.9082 6.64271 8.73047L6.00794 4.89258C5.92005 4.35547 6.11536 3.99414 6.64271 3.75C7.97083 3.125 9.22083 2.79297 10.8615 2.53906C11.8771 2.39258 12.3947 1.64062 12.3947 0.634766C12.3947 0.224609 12.1896 0 11.5548 0C9.47474 0 7.41419 0.332031 5.30482 1.06445C1.75013 2.29492-0.456903 4.47266 0.0802065 7.39258L0.597785 10.1953C0.900519 11.8359 2.28724 12.5977 3.5763 12.5977ZM3.5763 11.1035C2.65833 11.1035 1.93568 10.3906 1.93568 9.47266C1.93568 8.55469 2.65833 7.8418 3.5763 7.8418C4.4845 7.8418 5.19739 8.56445 5.19739 9.47266C5.19739 10.3809 4.4845 11.1035 3.5763 11.1035ZM3.5763 10.4102C4.09388 10.4102 4.50403 10 4.50403 9.47266C4.50403 8.95508 4.09388 8.53516 3.5763 8.53516C3.03919 8.53516 2.62903 8.95508 2.62903 9.47266C2.62903 10 3.03919 10.4102 3.5763 10.4102ZM3.5763 13.5449C2.07239 13.5449 0.783332 12.7832 0.109503 11.582C0.314582 14.834 3.25403 16.4551 6.58411 16.4551C7.46302 16.4551 8.10755 16.3379 8.72278 16.0254C9.98255 13.8281 10.8712 11.5332 11.4376 9.05273C10.7931 7.69531 9.27943 6.80664 7.18958 6.26953L7.58021 8.57422C8.02943 11.2695 6.18372 13.5449 3.5763 13.5449Z" fill="var(--color-primary)"/>
  <path d="M16.0275 13.1348C16.0275 10.8594 14.2306 9.3457 12.3849 9.16016C11.7892 11.7969 10.8322 14.2773 9.47474 16.5918C10.0216 16.9727 10.9103 17.2949 11.8966 17.2949C14.3771 17.2949 16.0275 15.625 16.0275 13.1348Z" fill="var(--color-secondary)"/>
  <path d="M3.5763 11.1035C2.65833 11.1035 1.93568 10.3906 1.93568 9.47266C1.93568 8.55469 2.65833 7.8418 3.5763 7.8418C4.4845 7.8418 5.19739 8.56445 5.19739 9.47266C5.19739 10.3809 4.4845 11.1035 3.5763 11.1035ZM3.5763 10.4102C4.09388 10.4102 4.50403 10 4.50403 9.47266C4.50403 8.95508 4.09388 8.53516 3.5763 8.53516C3.03919 8.53516 2.62903 8.95508 2.62903 9.47266C2.62903 10 3.03919 10.4102 3.5763 10.4102Z" fill="var(--color-tertiary)"/>
 </g>
</svg>
