<svg version="1.1" xmlns="http://www.w3.org/2000/svg" xmlns:xlink="http://www.w3.org/1999/xlink" viewBox="0 0 12.4902 20.3418">
 <g>
  <rect height="20.3418" opacity="0" width="12.4902" x="0" y="0"/>
  <path d="M4.22852 0C1.43555 0 0 2.06055 0 5.3125L0 7.37305C0 9.6875 0.585938 10.791 2.22656 11.6992L6.00586 13.7695C6.96289 14.2871 7.43164 14.4629 8.11523 14.4629C9.51172 14.4629 10.6641 13.3105 10.6641 11.9141C10.6641 10.957 10.166 10.0586 9.07227 9.49219L1.5918 5.58594C1.5918 2.98828 2.44141 1.58203 4.32617 1.58203C7.45117 1.58203 10.1855 5.2832 10.498 9.48242C11.1621 10.1465 11.5234 10.9766 11.5234 11.9141C11.5234 13.457 10.4688 14.7754 9.04297 15.1953C9.11133 16.1621 9.70703 17.1191 10.4297 17.1191C11.3574 17.1191 12.1289 13.9453 12.1289 11.0742C12.1289 4.9707 8.56445 0 4.22852 0ZM8.17383 13.5156C7.29492 13.5156 6.5625 12.7832 6.5625 11.9043C6.5625 11.0156 7.29492 10.293 8.17383 10.293C9.07227 10.293 9.79492 11.0156 9.79492 11.9043C9.79492 12.7832 9.07227 13.5156 8.17383 13.5156ZM8.17383 12.8906C8.7207 12.8906 9.16016 12.4414 9.16016 11.9043C9.16016 11.3672 8.7207 10.918 8.17383 10.918C7.63672 10.918 7.1875 11.3672 7.1875 11.9043C7.1875 12.4414 7.63672 12.8906 8.17383 12.8906ZM10.8301 20.332L10.8301 16.748L9.93164 16.748L9.93164 20.332Z" fill="var(--color-primary)"/>
  <path d="M8.17383 13.5156C7.29492 13.5156 6.5625 12.7832 6.5625 11.9043C6.5625 11.0156 7.29492 10.293 8.17383 10.293C9.07227 10.293 9.79492 11.0156 9.79492 11.9043C9.79492 12.7832 9.07227 13.5156 8.17383 13.5156ZM8.17383 12.8906C8.7207 12.8906 9.16016 12.4414 9.16016 11.9043C9.16016 11.3672 8.7207 10.918 8.17383 10.918C7.63672 10.918 7.1875 11.3672 7.1875 11.9043C7.1875 12.4414 7.63672 12.8906 8.17383 12.8906Z" fill="var(--color-tertiary)"/>
 </g>
</svg>
