<svg version="1.1" xmlns="http://www.w3.org/2000/svg" xmlns:xlink="http://www.w3.org/1999/xlink" viewBox="0 0 20.2832 19.9316">
 <g>
  <rect height="19.9316" opacity="0" width="20.2832" x="0" y="0"/>
  <path d="M9.96094 19.9219C15.459 19.9219 19.9219 15.459 19.9219 9.96094C19.9219 4.46289 15.459 0 9.96094 0C4.46289 0 0 4.46289 0 9.96094C0 15.459 4.46289 19.9219 9.96094 19.9219ZM9.96094 18.2617C5.37109 18.2617 1.66016 14.5508 1.66016 9.96094C1.66016 5.37109 5.37109 1.66016 9.96094 1.66016C14.5508 1.66016 18.2617 5.37109 18.2617 9.96094C18.2617 14.5508 14.5508 18.2617 9.96094 18.2617Z" fill="var(--color-primary)"/>
  <path d="M5.67383 10.6348C5.67383 10.8789 5.86914 11.0547 6.12305 11.0547L9.43359 11.0547L7.66602 15.8008C7.43164 16.4258 8.0957 16.7676 8.50586 16.2598L13.8574 9.54102C13.9648 9.42383 14.0234 9.28711 14.0234 9.16016C14.0234 8.91602 13.8281 8.74023 13.5742 8.74023L10.2637 8.74023L12.0312 3.99414C12.2656 3.36914 11.6016 3.02734 11.1914 3.52539L5.83984 10.2441C5.73242 10.3711 5.67383 10.5078 5.67383 10.6348Z" fill="var(--color-primary)"/>
 </g>
</svg>
