<svg version="1.1" xmlns="http://www.w3.org/2000/svg" xmlns:xlink="http://www.w3.org/1999/xlink" viewBox="0 0 20.2832 19.9316">
 <g>
  <rect height="19.9316" opacity="0" width="20.2832" x="0" y="0"/>
  <path d="M19.9219 9.9707C19.9219 15.4688 15.459 19.9316 9.96094 19.9316C4.47266 19.9316 0 15.4688 0 9.9707C0 4.48242 4.47266 0.00976562 9.96094 0.00976562C15.459 0.00976562 19.9219 4.48242 19.9219 9.9707ZM7.41211 5.35156C6.79688 5.42969 6.31836 5.74219 6.06445 6.26953C5.89844 6.61133 5.60547 7.49023 5.42969 8.33984L5.0293 8.85742C4.59961 9.4043 4.43359 9.85352 4.43359 10.6348L4.43359 13.3105C4.43359 13.6621 4.70703 13.9355 5.05859 13.9355L5.61523 13.9355C5.95703 13.9355 6.23047 13.6621 6.23047 13.3105L6.23047 12.5391C7.26562 12.6074 8.75977 12.6465 9.96094 12.6465C11.1621 12.6465 12.6465 12.6074 13.6816 12.5391L13.6816 13.3105C13.6816 13.6621 13.9551 13.9355 14.3066 13.9355L14.8633 13.9355C15.2051 13.9355 15.4785 13.6621 15.4785 13.3105L15.4785 10.6348C15.4785 9.85352 15.3223 9.4043 14.8828 8.85742L14.4922 8.33984C14.3066 7.49023 14.0137 6.61133 13.8477 6.26953C13.6035 5.74219 13.125 5.43945 12.5 5.35156C12.1875 5.3125 11.1621 5.29297 9.96094 5.29297C8.75 5.29297 7.73438 5.3125 7.41211 5.35156ZM10.7812 6.77734L10.1562 8.4668L11.416 8.45703C11.5332 8.45703 11.6211 8.54492 11.6211 8.66211C11.6211 8.7207 11.582 8.78906 11.5527 8.84766L9.55078 11.4355C9.35547 11.6797 9.0332 11.5137 9.15039 11.2109L9.76562 9.53125L8.50586 9.53125C8.38867 9.53125 8.30078 9.44336 8.30078 9.33594C8.30078 9.27734 8.32031 9.21875 8.36914 9.16016L10.3906 6.57227C10.5859 6.32812 10.8887 6.47461 10.7812 6.77734Z" fill="var(--color-primary)"/>
 </g>
</svg>
