<svg version="1.1" xmlns="http://www.w3.org/2000/svg" xmlns:xlink="http://www.w3.org/1999/xlink" width="18.3398" height="17.998" viewBox="0 0 18.3398 17.998">
 <g>
  <rect height="17.998" opacity="0" width="18.3398" x="0" y="0"/>
  <path d="M3.06641 17.998L14.9121 17.998C16.9629 17.998 17.9785 16.9824 17.9785 14.9707L17.9785 3.04688C17.9785 1.03516 16.9629 0.0195312 14.9121 0.0195312L3.06641 0.0195312C1.02539 0.0195312 0 1.02539 0 3.04688L0 14.9707C0 16.9922 1.02539 17.998 3.06641 17.998Z" fill="var(--color-tertiary)"/>
  <path d="M4.58984 9.6875C4.58984 9.56055 4.64844 9.41406 4.75586 9.28711L10.2734 2.36328C10.6934 1.8457 11.3965 2.19727 11.1426 2.8418L9.32617 7.73438L12.7344 7.73438C12.998 7.73438 13.1934 7.91992 13.1934 8.17383C13.1934 8.30078 13.1348 8.44727 13.0371 8.56445L7.50977 15.4883C7.08984 16.0156 6.39648 15.6641 6.64062 15.0195L8.4668 10.127L5.04883 10.127C4.79492 10.127 4.58984 9.94141 4.58984 9.6875Z" fill="var(--color-primary)"/>
 </g>
</svg>
