<svg version="1.1" xmlns="http://www.w3.org/2000/svg" xmlns:xlink="http://www.w3.org/1999/xlink" width="20.2832" height="19.9316" viewBox="0 0 20.2832 19.9316">
 <g>
  <rect height="19.9316" opacity="0" width="20.2832" x="0" y="0"/>
  <path d="M9.96094 19.9316C15.4102 19.9316 19.9219 15.4199 19.9219 9.9707C19.9219 4.53125 15.4004 0.00976562 9.95117 0.00976562C4.51172 0.00976562 0 4.53125 0 9.9707C0 15.4199 4.52148 19.9316 9.96094 19.9316Z" fill="var(--color-tertiary)"/>
  <path d="M7.31445 15.293C6.29883 15.293 5.78125 14.7754 5.78125 13.7402L5.78125 6.24023C5.78125 5.17578 6.29883 4.6582 7.32422 4.6582L12.5781 4.6582C13.6133 4.6582 14.1309 5.18555 14.1309 6.24023L14.1309 11.9043C14.1309 12.3828 13.9062 12.6465 13.7109 12.8418C13.1152 13.4277 13.2324 14.2188 13.8477 14.4727C14.0039 14.5215 14.1309 14.6973 14.1309 14.873C14.1309 15.1074 13.9355 15.293 13.7109 15.293ZM7.36328 14.4531L12.6562 14.4531C12.4316 14.0234 12.4023 13.5156 12.5977 13.0176C12.5586 13.0273 12.5195 13.0273 12.4707 13.0273L7.40234 13.0273C6.93359 13.0273 6.62109 13.3105 6.62109 13.7305C6.62109 14.1895 6.88477 14.4531 7.36328 14.4531ZM7.20703 12.1973C7.38281 12.1973 7.5293 12.0703 7.5293 11.8945L7.5293 5.81055C7.5293 5.64453 7.38281 5.49805 7.20703 5.49805C7.04102 5.49805 6.91406 5.63477 6.91406 5.81055L6.91406 11.8945C6.91406 12.0703 7.04102 12.1973 7.20703 12.1973Z" fill="var(--color-primary)"/>
 </g>
</svg>
