<svg version="1.1" xmlns="http://www.w3.org/2000/svg" xmlns:xlink="http://www.w3.org/1999/xlink" viewBox="0 0 22.168 20.8496">
 <g>
  <rect height="20.8496" opacity="0" width="22.168" x="0" y="0"/>
  <path d="M12.0996 0.341797L20.4395 5.15625C20.8008 5.36133 20.9668 5.61523 20.9668 5.9082C20.9668 6.30859 20.6543 6.69922 20.1172 6.69922L19.2578 6.69922L19.2578 17.9297L19.8828 17.9297C20.2832 17.9297 20.5078 18.1641 20.5078 18.5547L20.5078 19.2676L21.0156 19.2676C21.4453 19.2676 21.8066 19.6191 21.8066 20.0488C21.8066 20.4785 21.4453 20.8398 21.0156 20.8398L0.78125 20.8398C0.351562 20.8398 0 20.4785 0 20.0488C0 19.6191 0.351562 19.2676 0.78125 19.2676L1.29883 19.2676L1.29883 18.5547C1.29883 18.1641 1.5332 17.9297 1.93359 17.9297L2.54883 17.9297L2.54883 6.69922L1.68945 6.69922C1.15234 6.69922 0.839844 6.30859 0.839844 5.9082C0.839844 5.61523 0.996094 5.36133 1.36719 5.15625L9.70703 0.341797C10.0781 0.117188 10.498 0 10.8984 0C11.2988 0 11.709 0.117188 12.0996 0.341797ZM13.3496 6.8457L13.3496 7.5293C12.2754 7.61719 11.5137 8.27148 11.5137 9.33594C11.5137 10.3027 12.0605 10.8008 13.0469 11.2695L13.3496 11.416L13.3496 13.7109C12.7832 13.6328 12.4902 13.2715 12.3828 12.666C12.334 12.4121 12.1387 12.2852 11.9238 12.2852C11.6406 12.2852 11.4453 12.4512 11.4453 12.7344C11.4453 12.8125 11.4551 12.9297 11.4844 13.0078C11.709 14.0332 12.4512 14.4824 13.3496 14.5508L13.3496 15.2539C13.3496 15.4004 13.4473 15.498 13.5938 15.498C13.7402 15.498 13.8477 15.4004 13.8477 15.2539L13.8477 14.5508C15 14.4727 15.7715 13.7891 15.7715 12.6855C15.7715 11.6113 15.0977 11.1816 14.1992 10.7617L13.8477 10.5957L13.8477 8.36914C14.3848 8.4668 14.6191 8.88672 14.6973 9.375C14.7461 9.55078 14.8926 9.74609 15.1758 9.74609C15.4492 9.74609 15.6348 9.58008 15.6348 9.29688C15.6348 9.22852 15.6152 9.10156 15.5957 9.0332C15.3809 8.01758 14.6777 7.59766 13.8477 7.5293L13.8477 6.8457C13.8477 6.68945 13.7402 6.5918 13.5938 6.5918C13.4473 6.5918 13.3496 6.68945 13.3496 6.8457ZM6.86523 7.41211C6.54297 7.41211 6.35742 7.60742 6.35742 7.93945L6.35742 14.2285C6.35742 14.541 6.51367 14.7656 6.88477 14.7656C7.20703 14.7656 7.40234 14.5508 7.40234 14.2285L7.40234 11.7773L8.51562 11.7773L9.62891 14.3848C9.73633 14.6387 9.88281 14.7656 10.1562 14.7656C10.4492 14.7656 10.6543 14.5703 10.6543 14.2773C10.6543 14.1406 10.5859 14.0234 10.5371 13.8965L9.51172 11.5625C10.3223 11.2109 10.6738 10.4102 10.6738 9.57031C10.6738 8.17383 9.79492 7.41211 8.45703 7.41211ZM14.7852 12.7832C14.7852 13.3594 14.4336 13.6719 13.8477 13.7207L13.8477 11.6504C14.3652 11.9141 14.7852 12.1973 14.7852 12.7832ZM9.62891 9.58984C9.62891 10.4004 9.22852 10.9473 8.37891 10.9473L7.40234 10.9473L7.40234 8.26172L8.35938 8.26172C9.17969 8.26172 9.62891 8.78906 9.62891 9.58984ZM13.3496 10.3516C12.8613 10.0879 12.4902 9.78516 12.4902 9.27734C12.4902 8.74023 12.8516 8.42773 13.3496 8.35938Z" fill="var(--color-primary)"/>
 </g>
</svg>
