<svg version="1.1" xmlns="http://www.w3.org/2000/svg" xmlns:xlink="http://www.w3.org/1999/xlink" viewBox="0 0 20.2832 19.9316">
 <g>
  <rect height="19.9316" opacity="0" width="20.2832" x="0" y="0"/>
  <path d="M9.96094 19.9219C15.459 19.9219 19.9219 15.459 19.9219 9.96094C19.9219 4.46289 15.459 0 9.96094 0C4.46289 0 0 4.46289 0 9.96094C0 15.459 4.46289 19.9219 9.96094 19.9219ZM9.96094 18.2617C5.37109 18.2617 1.66016 14.5508 1.66016 9.96094C1.66016 5.37109 5.37109 1.66016 9.96094 1.66016C14.5508 1.66016 18.2617 5.37109 18.2617 9.96094C18.2617 14.5508 14.5508 18.2617 9.96094 18.2617Z" fill="var(--color-primary)"/>
  <path d="M5.52734 7.8418L14.375 7.8418C14.668 7.8418 14.834 7.62695 14.834 7.40234C14.834 7.25586 14.7461 7.09961 14.5605 7.00195L10.5664 4.69727C10.3711 4.57031 10.1465 4.51172 9.95117 4.51172C9.75586 4.51172 9.53125 4.57031 9.35547 4.69727L5.3418 7.00195C5.16602 7.09961 5.06836 7.25586 5.06836 7.40234C5.06836 7.62695 5.24414 7.8418 5.52734 7.8418ZM4.67773 14.1895C4.67773 14.4238 4.86328 14.6289 5.10742 14.6289L14.8047 14.6289C15.0391 14.6289 15.2246 14.4238 15.2246 14.1895C15.2246 13.9551 15.0391 13.7598 14.8047 13.7598L5.10742 13.7598C4.86328 13.7598 4.67773 13.9551 4.67773 14.1895ZM5.46875 13.1543C5.46875 13.3594 5.58594 13.4863 5.79102 13.4863L7.04102 13.4863C7.24609 13.4863 7.38281 13.3594 7.38281 13.1543L7.38281 13.0859C7.38281 12.8906 7.24609 12.7637 7.04102 12.7637L6.83594 12.7637L6.83594 8.83789L7.04102 8.83789C7.24609 8.83789 7.38281 8.7207 7.38281 8.50586L7.38281 8.4375C7.38281 8.24219 7.24609 8.11523 7.04102 8.11523L5.79102 8.11523C5.58594 8.11523 5.46875 8.24219 5.46875 8.4375L5.46875 8.50586C5.46875 8.7207 5.58594 8.83789 5.79102 8.83789L6.00586 8.83789L6.00586 12.7637L5.79102 12.7637C5.58594 12.7637 5.46875 12.8906 5.46875 13.0859ZM7.82227 13.1543C7.82227 13.3594 7.94922 13.4863 8.1543 13.4863L9.39453 13.4863C9.59961 13.4863 9.72656 13.3594 9.72656 13.1543L9.72656 13.0859C9.72656 12.8906 9.59961 12.7637 9.39453 12.7637L9.17969 12.7637L9.17969 8.83789L9.39453 8.83789C9.59961 8.83789 9.72656 8.7207 9.72656 8.50586L9.72656 8.4375C9.72656 8.24219 9.59961 8.11523 9.39453 8.11523L8.1543 8.11523C7.94922 8.11523 7.82227 8.24219 7.82227 8.4375L7.82227 8.50586C7.82227 8.7207 7.94922 8.83789 8.1543 8.83789L8.36914 8.83789L8.36914 12.7637L8.1543 12.7637C7.94922 12.7637 7.82227 12.8906 7.82227 13.0859ZM10.1758 13.1543C10.1758 13.3594 10.3027 13.4863 10.5078 13.4863L11.7578 13.4863C11.9531 13.4863 12.0801 13.3594 12.0801 13.1543L12.0801 13.0859C12.0801 12.8906 11.9531 12.7637 11.7578 12.7637L11.5332 12.7637L11.5332 8.83789L11.7578 8.83789C11.9531 8.83789 12.0801 8.7207 12.0801 8.50586L12.0801 8.4375C12.0801 8.24219 11.9531 8.11523 11.7578 8.11523L10.5078 8.11523C10.3027 8.11523 10.1758 8.24219 10.1758 8.4375L10.1758 8.50586C10.1758 8.7207 10.3027 8.83789 10.5078 8.83789L10.7227 8.83789L10.7227 12.7637L10.5078 12.7637C10.3027 12.7637 10.1758 12.8906 10.1758 13.0859ZM12.5195 13.1543C12.5195 13.3594 12.666 13.4863 12.8613 13.4863L14.1113 13.4863C14.3164 13.4863 14.4434 13.3594 14.4434 13.1543L14.4434 13.0859C14.4434 12.8906 14.3164 12.7637 14.1113 12.7637L13.9062 12.7637L13.9062 8.83789L14.1113 8.83789C14.3164 8.83789 14.4434 8.7207 14.4434 8.50586L14.4434 8.4375C14.4434 8.24219 14.3164 8.11523 14.1113 8.11523L12.8613 8.11523C12.666 8.11523 12.5195 8.24219 12.5195 8.4375L12.5195 8.50586C12.5195 8.7207 12.666 8.83789 12.8613 8.83789L13.0762 8.83789L13.0762 12.7637L12.8613 12.7637C12.666 12.7637 12.5195 12.8906 12.5195 13.0859Z" fill="var(--color-primary)"/>
 </g>
</svg>
