<svg version="1.1" xmlns="http://www.w3.org/2000/svg" xmlns:xlink="http://www.w3.org/1999/xlink" viewBox="0 0 20.2832 19.9316">
 <g>
  <rect height="19.9316" opacity="0" width="20.2832" x="0" y="0"/>
  <path d="M19.9219 9.96094C19.9219 15.4492 15.459 19.9219 9.96094 19.9219C4.47266 19.9219 0 15.4492 0 9.96094C0 4.46289 4.47266 0 9.96094 0C15.459 0 19.9219 4.46289 19.9219 9.96094ZM9.52148 15.791C9.52148 16.0352 9.7168 16.2012 9.95117 16.2012C11.2399 16.2012 12.4834 15.8183 13.5157 15.1566L11.5644 13.2073C11.0714 13.6721 10.6765 14.22 10.3906 14.8145L10.3906 12.0348L9.52148 11.1666ZM3.97461 12.207C4.67773 14.2676 6.66992 15.791 8.97461 16.1035C8.92578 16.0156 8.90625 15.8984 8.90625 15.791L8.90625 13.8867C7.93945 12.5781 6.34766 11.6602 4.33594 11.6602C3.97461 11.6602 3.85742 11.8848 3.97461 12.207ZM5.01953 5.00977C4.84375 5.19531 4.85352 5.48828 5.01953 5.6543L14.2676 14.9023C14.4336 15.0684 14.7363 15.0781 14.9121 14.9023C15.0879 14.7168 15.0879 14.4336 14.9121 14.2578L5.67383 5.00977C5.49805 4.83398 5.20508 4.83398 5.01953 5.00977ZM13.6361 11.9681L15.2221 13.5524C15.521 13.1401 15.7593 12.6882 15.9277 12.207C16.0449 11.8848 15.918 11.6602 15.5664 11.6602C14.8699 11.6602 14.2231 11.7688 13.6361 11.9681ZM8.62907 10.2751L6.7554 8.40342C7.08575 9.2588 7.7392 9.93947 8.62907 10.2751ZM9.6582 5.11719L8.66211 6.40625L7.50977 5.22461C7.31656 5.0222 7.02801 5.04516 6.92192 5.26098L11.7274 10.0614C12.7802 9.46814 13.3984 8.33998 13.3984 7.05078C13.3984 6.47461 13.2812 5.89844 13.0273 5.30273C12.9102 5.04883 12.5977 5.00977 12.3926 5.22461L11.25 6.40625L10.2637 5.11719C10.1074 4.89258 9.82422 4.89258 9.6582 5.11719Z" fill="var(--color-primary)"/>
 </g>
</svg>
