<svg version="1.1" xmlns="http://www.w3.org/2000/svg" xmlns:xlink="http://www.w3.org/1999/xlink" viewBox="0 0 28.5061 23.916">
 <g>
  <rect height="23.916" opacity="0" width="28.5061" x="0" y="0"/>
  <path d="M26.0743 19.2773L27.3536 19.2773C28.1056 19.2773 28.3009 18.6914 28.0275 18.1934L21.3478 5.11719C21.1915 4.82422 20.9767 4.6582 20.6349 4.6582L20.0001 4.6582C19.6583 4.6582 19.5118 4.94141 19.6388 5.26367L25.0294 18.5742C25.1954 18.9941 25.4884 19.2773 26.0743 19.2773Z" fill="var(--color-primary)"/>
  <path d="M0.800904 19.2773L2.07044 19.2773C2.65637 19.2773 2.94934 18.9941 3.11536 18.5742L8.50598 5.26367C8.6427 4.94141 8.48645 4.6582 8.14465 4.6582L7.50989 4.6582C7.16809 4.6582 6.95325 4.82422 6.80676 5.11719L0.11731 18.1934C-0.156127 18.6914 0.039185 19.2773 0.800904 19.2773Z" fill="var(--color-primary)"/>
  <path d="M14.0919 1.21094C15.5372 1.21094 16.8458 1.74805 17.8517 2.64648C18.1935 2.94922 18.5548 2.96875 18.799 2.72461C19.0529 2.4707 19.0431 2.08008 18.7697 1.78711C17.549 0.566406 15.8595 0 14.0919 0C12.3243 0 10.6447 0.566406 9.42395 1.78711C9.14075 2.08008 9.13098 2.4707 9.39465 2.72461C9.63879 2.96875 9.99036 2.94922 10.3419 2.64648C11.3478 1.74805 12.6564 1.21094 14.0919 1.21094Z" fill="var(--color-primary)"/>
  <path d="M14.0919 4.07227C14.8048 4.07227 15.4396 4.29688 15.9279 4.69727C16.3282 4.98047 16.67 4.9707 16.9044 4.73633C17.1486 4.49219 17.1388 4.14062 16.8751 3.86719C16.3673 3.36914 15.2736 2.86133 14.0919 2.86133C12.9103 2.86133 11.8165 3.36914 11.3087 3.86719C11.045 4.14062 11.045 4.49219 11.2892 4.73633C11.5236 4.9707 11.8654 4.98047 12.2657 4.69727C12.7443 4.29688 13.379 4.07227 14.0919 4.07227Z" fill="var(--color-primary)"/>
  <path d="M7.87122 16.0449C7.87122 16.4258 8.17395 16.7285 8.55481 16.7285L9.17004 16.7285C9.56067 16.7285 9.85364 16.4258 9.85364 16.0449L9.85364 15.293L18.1544 15.293L18.1544 16.0449C18.1544 16.4258 18.4572 16.7285 18.8478 16.7285L19.4532 16.7285C19.8439 16.7285 20.1466 16.4258 20.1466 16.0449L20.1466 12.5781C20.1466 11.709 20.0197 11.1816 19.4825 10.5957L18.965 10.0293L18.4181 8.4668C18.1251 7.61719 17.549 7.26562 16.8263 7.17773C16.4845 7.13867 15.3517 7.10938 14.004 7.10938C12.6661 7.10938 11.5333 7.13867 11.1818 7.17773C10.4591 7.26562 9.8927 7.61719 9.58997 8.4668L9.05286 10.0293L8.52551 10.5957C7.9884 11.1816 7.87122 11.709 7.87122 12.5781ZM10.4689 10.0586C10.2247 10.0586 10.1368 9.87305 10.215 9.64844L10.5372 8.68164C10.6544 8.32031 10.8497 8.20312 11.1622 8.16406C11.5236 8.11523 12.5294 8.07617 14.004 8.07617C15.4884 8.07617 16.4845 8.11523 16.8458 8.16406C17.1583 8.20312 17.3536 8.32031 17.4708 8.68164L17.8029 9.64844C17.881 9.87305 17.7833 10.0586 17.5392 10.0586ZM9.74622 13.3008C9.42395 13.3008 9.18958 13.0664 9.18958 12.7441L9.18958 11.9336C9.18958 11.6211 9.42395 11.3867 9.74622 11.3867C10.0685 11.3867 10.3029 11.6113 10.3029 11.9336L10.3029 12.7441C10.3029 13.0664 10.0685 13.3008 9.74622 13.3008ZM12.8224 13.0469C12.5685 13.0469 12.4025 12.8809 12.4025 12.6074L12.4025 12.0801C12.4025 11.8066 12.5685 11.6406 12.8224 11.6406L15.1661 11.6406C15.4298 11.6406 15.5958 11.8066 15.5958 12.0801L15.5958 12.6074C15.5958 12.8809 15.4298 13.0469 15.1661 13.0469ZM18.3107 13.3008C18.0079 13.3008 17.7638 13.0566 17.7638 12.7441L17.7638 11.9336C17.7638 11.6211 18.0079 11.3867 18.3107 11.3867C18.6329 11.3867 18.8673 11.6113 18.8673 11.9336L18.8673 12.7441C18.8673 13.0664 18.6329 13.3008 18.3107 13.3008Z" fill="var(--color-primary)"/>
 </g>
</svg>
