<svg version="1.1" xmlns="http://www.w3.org/2000/svg" xmlns:xlink="http://www.w3.org/1999/xlink" viewBox="0 0 31.9922 19.541">
 <g>
  <rect height="19.541" opacity="0" width="31.9922" x="0" y="0"/>
  <path d="M6.55273 5.21484L7.07031 5.21484C7.40234 5.21484 7.64648 4.9707 7.64648 4.63867L7.64648 0.585938C7.64648 0.253906 7.40234 0.00976562 7.07031 0.00976562L6.55273 0.00976562C6.2207 0.00976562 5.97656 0.253906 5.97656 0.585938L5.97656 4.63867C5.97656 4.9707 6.2207 5.21484 6.55273 5.21484ZM6.55273 12.373L7.07031 12.373C7.40234 12.373 7.64648 12.1289 7.64648 11.7969L7.64648 7.75391C7.64648 7.42188 7.40234 7.17773 7.07031 7.17773L6.55273 7.17773C6.2207 7.17773 5.97656 7.42188 5.97656 7.75391L5.97656 11.7969C5.97656 12.1289 6.2207 12.373 6.55273 12.373ZM6.55273 19.541L7.07031 19.541C7.40234 19.541 7.64648 19.2969 7.64648 18.9746L7.64648 14.9121C7.64648 14.5801 7.40234 14.3359 7.07031 14.3359L6.55273 14.3359C6.2207 14.3359 5.97656 14.5801 5.97656 14.9121L5.97656 18.9746C5.97656 19.2969 6.2207 19.541 6.55273 19.541ZM24.5508 5.21484L25.0781 5.21484C25.4102 5.21484 25.6543 4.9707 25.6543 4.63867L25.6543 0.585938C25.6543 0.253906 25.4102 0.00976562 25.0781 0.00976562L24.5508 0.00976562C24.2285 0.00976562 23.9844 0.253906 23.9844 0.585938L23.9844 4.63867C23.9844 4.9707 24.2285 5.21484 24.5508 5.21484ZM24.5508 12.373L25.0781 12.373C25.4102 12.373 25.6543 12.1289 25.6543 11.7969L25.6543 7.75391C25.6543 7.42188 25.4102 7.17773 25.0781 7.17773L24.5508 7.17773C24.2285 7.17773 23.9844 7.42188 23.9844 7.75391L23.9844 11.7969C23.9844 12.1289 24.2285 12.373 24.5508 12.373ZM24.5508 19.541L25.0781 19.541C25.4102 19.541 25.6543 19.2969 25.6543 18.9746L25.6543 14.9121C25.6543 14.5801 25.4102 14.3359 25.0781 14.3359L24.5508 14.3359C24.2285 14.3359 23.9844 14.5801 23.9844 14.9121L23.9844 18.9746C23.9844 19.2969 24.2285 19.541 24.5508 19.541ZM0 11.9434C0 12.4707 0.429688 12.6953 0.888672 12.4121L4.35547 10.3027C4.79492 10.0293 4.78516 9.51172 4.35547 9.23828L0.878906 7.10938C0.419922 6.82617 0 7.07031 0 7.58789ZM31.6309 11.9434L31.6309 7.58789C31.6309 7.07031 31.2109 6.83594 30.7422 7.10938L27.2754 9.23828C26.8457 9.52148 26.8359 10.0195 27.2754 10.3027L30.7422 12.4121C31.2109 12.6855 31.6309 12.4707 31.6309 11.9434Z" fill="var(--color-primary)"/>
  <path d="M15.8008 18.623C19.2578 18.623 20.8105 17.8418 20.8105 15.8496L20.8105 7.98828L21.2012 7.98828C21.6406 7.98828 21.9922 7.64648 21.9824 7.22656L21.9727 6.88477C21.9531 6.45508 21.6406 6.12305 21.1914 6.12305L20.8105 6.12305L20.8105 4.16992C20.8105 2.11914 18.9258 0.908203 15.8105 0.917969C12.7148 0.917969 10.8203 2.10938 10.8203 4.16992L10.8203 6.12305L10.4395 6.12305C9.99023 6.12305 9.66797 6.45508 9.6582 6.875L9.64844 7.22656C9.63867 7.64648 9.99023 7.98828 10.4297 7.98828L10.8203 7.98828L10.8203 15.8496C10.8203 17.8418 12.3633 18.623 15.8008 18.623ZM15.8105 17.2461C13.2324 17.2363 12.2266 16.8359 12.2266 15.8105L12.2266 4.17969C12.2266 2.98828 13.4668 2.31445 15.8008 2.31445C18.1641 2.31445 19.4141 2.98828 19.4141 4.16992L19.4141 15.8105C19.4141 16.8359 18.3984 17.2363 15.8105 17.2461ZM15.8105 8.35938C16.4258 8.36914 17.4609 8.41797 17.793 8.42773C18.3203 8.42773 18.584 8.20312 18.6328 7.63672L18.7402 6.36719C18.8281 5.3418 18.1543 4.95117 15.8203 4.94141C13.4863 4.94141 12.793 5.3418 12.8906 6.37695L13.0078 7.62695C13.0566 8.20312 13.291 8.42773 13.8379 8.41797C14.1797 8.42773 15.166 8.36914 15.8105 8.35938ZM15.8105 15.6152C18.1348 15.6055 18.877 15.2637 18.7109 14.1992L18.623 13.584C18.4961 12.7246 17.8223 12.4609 15.8203 12.4707C13.8086 12.4609 13.1348 12.7344 13.0078 13.584L12.9199 14.1895C12.7441 15.2734 13.4961 15.6055 15.8105 15.6152Z" fill="var(--color-primary)"/>
 </g>
</svg>
