<svg version="1.1" xmlns="http://www.w3.org/2000/svg" xmlns:xlink="http://www.w3.org/1999/xlink" viewBox="0 0 35.1562 15.8496">
 <g>
  <rect height="15.8496" opacity="0" width="35.1562" x="0" y="0"/>
  <path d="M0.722656 1.40625L3.83789 1.40625C4.19922 1.40625 4.48242 1.49414 4.7168 1.72852L8.18359 5.18555L9.51172 4.45312L5.85938 0.800781C5.29297 0.234375 4.55078 0 3.66211 0L0.722656 0C0.273438 0 0 0.273438 0 0.693359C0 1.11328 0.273438 1.40625 0.722656 1.40625ZM3.10547 13.7109L3.7207 13.7109C3.66211 13.4082 3.62305 13.1055 3.62305 12.793C3.62305 10.5176 5.41016 8.73047 7.69531 8.73047C9.98047 8.73047 11.7676 10.5176 11.7676 12.793C11.7676 13.1055 11.7285 13.4082 11.6602 13.7109L23.1152 13.7109C23.0566 13.4082 23.0176 13.1055 23.0176 12.793C23.0176 10.5176 24.8145 8.73047 27.0898 8.73047C29.375 8.73047 31.1719 10.5176 31.1719 12.793C31.1719 13.1055 31.1328 13.4082 31.0645 13.7109L31.6895 13.7109C33.8281 13.7109 34.7949 12.6953 34.7949 10.4297L34.7949 7.72461C34.7949 5.9082 33.916 4.77539 32.0605 4.16992L30.5078 3.65234C28.5352 1.97266 25.8203 0.00976562 22.1582 0.00976562L20.6738 0.00976562C16.6895 0.00976562 15.0098 0.410156 12.6172 1.91406L8.66211 4.39453L4.33594 4.92188C1.63086 5.25391 0 6.93359 0 9.23828L0 10.4883C0 12.7148 0.986328 13.7109 3.10547 13.7109ZM7.69531 15.7227C9.3457 15.7227 10.6348 14.4336 10.6348 12.793C10.6348 11.1523 9.3457 9.86328 7.69531 9.86328C6.05469 9.86328 4.76562 11.1523 4.76562 12.793C4.76562 14.4336 6.05469 15.7227 7.69531 15.7227ZM27.0898 15.7227C28.7402 15.7227 30.0293 14.4336 30.0293 12.793C30.0293 11.1523 28.7402 9.86328 27.0898 9.86328C25.4492 9.86328 24.1602 11.1523 24.1602 12.793C24.1602 14.4336 25.4492 15.7227 27.0898 15.7227Z" fill="var(--color-primary)"/>
 </g>
</svg>
