<svg version="1.1" xmlns="http://www.w3.org/2000/svg" xmlns:xlink="http://www.w3.org/1999/xlink" viewBox="0 0 35.1562 18.0566">
 <g>
  <rect height="18.0566" opacity="0" width="35.1562" x="0" y="0"/>
  <path d="M30.5078 4.75586L32.0605 5.27344C33.916 5.87891 34.7949 7.01172 34.7949 8.82812L34.7949 11.5332C34.7949 13.7988 33.8281 14.8145 31.6895 14.8145L30.8169 14.8145C30.298 16.0651 29.0738 16.9238 27.6074 16.9238C26.141 16.9238 24.9168 16.0651 24.3979 14.8145L10.3874 14.8145C9.86895 16.0651 8.64658 16.9238 7.1875 16.9238C5.72108 16.9238 4.49689 16.0651 3.97801 14.8145L3.10547 14.8145C0.986328 14.8145 0 13.8184 0 11.5918L0 10.3418C0 8.03711 1.63086 6.35742 4.33594 6.02539L7.43765 5.6473L8.53327 7.08505C8.50327 7.09057 8.47068 7.09519 8.4375 7.09961L4.53125 7.57812C2.64648 7.80273 1.57227 8.89648 1.57227 10.3418L1.57227 11.5332C1.57227 12.7051 2.05078 13.2422 3.10547 13.2422L3.72141 13.2422C3.82489 11.3927 5.30704 9.98047 7.1875 9.98047C9.05856 9.98047 10.5404 11.3927 10.6438 13.2422L24.1413 13.2422C24.2448 11.3927 25.727 9.98047 27.6074 9.98047C29.4879 9.98047 30.97 11.3927 31.0735 13.2422L31.6895 13.2422C32.7441 13.2422 33.2227 12.7051 33.2227 11.5332L33.2227 8.82812C33.2227 7.80273 32.7051 7.22656 31.5918 6.86523L30.5566 6.5332C29.9707 6.34766 29.7266 6.24023 29.2676 5.83984C26.748 3.63281 24.7168 2.68555 22.1582 2.68555L20.6738 2.68555C16.9824 2.68555 15.6152 3.00781 13.457 4.35547L11.994 5.27826L11.0287 4.01384L12.6172 3.01758C15.0098 1.51367 16.6895 1.11328 20.6738 1.11328L22.1582 1.11328C25.8203 1.11328 28.5352 3.04688 30.5078 4.75586ZM5.18555 13.457C5.18555 14.5703 6.06445 15.4492 7.1875 15.4492C8.30078 15.4492 9.17969 14.5703 9.17969 13.457C9.17969 12.334 8.30078 11.4551 7.1875 11.4551C6.06445 11.4551 5.18555 12.334 5.18555 13.457ZM25.6055 13.457C25.6055 14.5703 26.4941 15.4492 27.6074 15.4492C28.7207 15.4492 29.6094 14.5703 29.6094 13.457C29.6094 12.334 28.7207 11.4551 27.6074 11.4551C26.4941 11.4551 25.6055 12.334 25.6055 13.457Z" fill="var(--color-primary)"/>
  <path d="M2.88086 2.71484L5.2832 2.71484C6.36719 2.71484 6.77734 2.90039 7.32422 3.61328L9.95117 7.08008C10.791 8.18359 11.7285 8.66211 13.0957 8.66211L15.2344 8.66211L15.2344 9.50195C15.2344 10.1855 15.8398 10.3906 16.3477 10.0586L18.8086 8.47656C19.2773 8.17383 19.2871 7.58789 18.7988 7.27539L16.3574 5.70312C15.8398 5.36133 15.2344 5.56641 15.2344 6.25977L15.2344 7.08984L13.0957 7.08984C12.1777 7.08984 11.8066 6.88477 11.2012 6.10352L8.55469 2.65625C7.73438 1.57227 6.76758 1.14258 5.2832 1.14258L2.88086 1.14258C2.45117 1.14258 2.09961 1.49414 2.09961 1.92383C2.09961 2.35352 2.45117 2.71484 2.88086 2.71484Z" fill="var(--color-primary)"/>
 </g>
</svg>
