<svg version="1.1" xmlns="http://www.w3.org/2000/svg" xmlns:xlink="http://www.w3.org/1999/xlink" width="31.6931" height="24.0127" viewBox="0 0 31.6931 24.0127">
 <g>
  <rect height="24.0127" opacity="0" width="31.6931" x="0" y="0"/>
  <path d="M6.81822 7.48975L7.85337 8.08545C7.92173 7.87061 8.00962 7.646 8.13658 7.43116C8.95689 6.01514 10.7147 5.53663 12.1307 6.34717C13.537 7.17725 14.0155 8.9253 13.1952 10.3413C13.0682 10.5659 12.9217 10.7515 12.7655 10.9273L21.1444 15.771C21.2225 15.5464 21.3104 15.3218 21.4374 15.0972C22.2577 13.6909 24.0155 13.2124 25.4217 14.0327C26.8377 14.8433 27.3163 16.6108 26.496 18.0269C26.369 18.2417 26.2225 18.437 26.0565 18.6128L26.9256 19.1108C27.8827 19.6577 28.8104 19.394 29.367 18.4175L30.91 15.771C31.4471 14.8433 31.6034 13.896 30.5975 12.8023L29.4842 11.6011C29.2206 10.0874 28.5663 7.76319 25.8417 6.20069L24.2987 5.31202C21.5741 3.74952 20.3534 3.37842 18.1463 3.45655L14.5331 3.59327L11.4081 2.27491C9.45494 1.44483 7.77525 1.86475 6.86705 3.43702L6.11509 4.74561C5.47056 5.85889 5.73423 6.87452 6.81822 7.48975ZM9.65025 10.644C10.6366 11.2105 11.867 10.8784 12.4237 9.90186C12.9901 8.9253 12.6581 7.69483 11.6815 7.12842C10.7147 6.57178 9.4647 6.89405 8.8983 7.87061C8.34165 8.84717 8.67369 10.0776 9.65025 10.644ZM22.951 18.3198C23.9276 18.8862 25.1581 18.5542 25.7245 17.5776C26.2909 16.6011 25.9588 15.3608 24.9823 14.8042C24.0057 14.2476 22.7655 14.5698 22.1991 15.5464C21.6424 16.523 21.9745 17.7632 22.951 18.3198Z" fill="var(--color-secondary)"/>
  <path d="M0.109233 8.26124C-0.115376 8.65186 0.0213425 9.13038 0.382671 9.34522L25.578 23.8862C25.9295 24.0913 26.4178 23.9644 26.6327 23.603C26.8475 23.2124 26.7108 22.7241 26.3592 22.519L1.16392 7.97803C0.812358 7.77295 0.314311 7.89991 0.109233 8.26124ZM3.76158 4.56983L5.82212 1.01514C6.16392 0.419438 5.6854-0.107905 5.07994 0.0190478L1.9354 0.59522C1.50572 0.673345 1.3104 1.00538 1.46665 1.4253L2.53111 4.42334C2.73619 5.01905 3.41978 5.15577 3.76158 4.56983Z" fill="var(--color-primary)"/>
 </g>
</svg>
