<svg version="1.1" xmlns="http://www.w3.org/2000/svg" xmlns:xlink="http://www.w3.org/1999/xlink" width="22.2806" height="20.6934" viewBox="0 0 22.2806 20.6934">
 <g>
  <rect height="20.6934" opacity="0" width="22.2806" x="0" y="0"/>
  <path d="M0.163739 16.5234C1.02311 19.707 1.91179 20.6738 3.9235 20.6738L15.32 20.6738C16.7653 20.6738 17.7321 19.8926 18.0934 18.4277L21.7653 3.52539C22.361 1.09375 21.1501 0 19.7438 0C17.8786 0 15.8473 1.99219 16.9899 5.21484L17.2731 4.01367C14.3337 5.55664 12.9958 9.13086 13.5329 13.4961L13.8844 13.0078C11.8727 12.5879 9.24577 12.334 6.71647 12.334C1.49186 12.334-0.637042 13.6035 0.163739 16.5234Z" fill="var(--color-secondary)"/>
  <path d="M1.20866 6.48438C1.20866 7.91992 2.51725 9.36523 3.72819 9.36523C4.84147 9.36523 5.39811 8.36914 6.07194 6.60156L6.31608 6.55273L6.31608 8.45703C6.31608 9.27734 6.74577 9.69727 7.53679 9.69727C8.96257 9.69727 10.4176 8.39844 10.4176 7.17773C10.4176 6.05469 9.41179 5.49805 7.64421 4.82422L7.59538 4.58008L9.49968 4.58008C10.32 4.58008 10.7399 4.16016 10.7399 3.36914C10.7399 1.93359 9.44108 0.478516 8.22038 0.478516C7.1071 0.478516 6.54069 1.49414 5.87663 3.27148L5.62272 3.30078L5.62272 1.39648C5.62272 0.585938 5.21257 0.15625 4.42155 0.15625C2.97624 0.15625 1.53093 1.46484 1.53093 2.67578C1.53093 3.78906 2.54655 4.3457 4.3239 5.01953L4.34343 5.27344L2.4489 5.27344C1.62858 5.27344 1.20866 5.70312 1.20866 6.48438ZM4.99772 4.92188C4.99772 4.38477 5.42741 3.94531 5.97429 3.94531C6.5114 3.94531 6.95085 4.38477 6.95085 4.92188C6.95085 5.46875 6.5114 5.89844 5.97429 5.89844C5.43718 5.89844 4.99772 5.46875 4.99772 4.92188Z" fill="var(--color-primary)"/>
 </g>
</svg>
