<svg version="1.1" xmlns="http://www.w3.org/2000/svg" xmlns:xlink="http://www.w3.org/1999/xlink" width="22.2836" height="20.6934" viewBox="0 0 22.2836 20.6934">
 <g>
  <rect height="20.6934" opacity="0" width="22.2836" x="0" y="0"/>
  <path d="M5.16793 4.3194C7.62361 5.91812 8.78209 9.08438 8.44304 12.93C9.18591 12.7852 10.0087 12.6645 10.8752 12.5723C10.6292 12.9791 10.4094 13.4329 10.4094 14.0137C10.4094 14.6875 10.6047 15.2246 11.0637 15.8008C11.5324 16.3965 12.4113 15.7715 11.9426 15.1465C11.6203 14.7168 11.4934 14.4531 11.4934 13.9453C11.4934 13.4445 11.8847 12.9935 12.2107 12.4484C12.8445 12.3996 13.4915 12.3663 14.1387 12.3498C13.8436 12.8147 13.5344 13.3249 13.5344 14.0137C13.5344 14.6875 13.7395 15.2246 14.1984 15.8008C14.6672 16.3965 15.5363 15.7715 15.0773 15.1465C14.7551 14.7168 14.6184 14.4531 14.6184 13.9453C14.6184 13.4106 15.0645 12.9326 15.4014 12.3371C16.0694 12.3389 16.68 12.3642 17.2327 12.4143C16.9504 12.8623 16.6691 13.3567 16.6691 14.0137C16.6691 14.6875 16.8645 15.2246 17.3332 15.8008C17.7922 16.3965 18.6711 15.7715 18.2023 15.1465C17.8801 14.7168 17.7531 14.4531 17.7531 13.9453C17.7531 13.478 18.0938 13.054 18.4045 12.5566C21.2808 13.0304 22.3676 14.2973 21.757 16.5234C20.8977 19.707 20.009 20.6738 17.9973 20.6738L6.60079 20.6738C5.15547 20.6738 4.18868 19.8926 3.82735 18.4277L0.155475 3.52539C-0.440229 1.09375 0.770709 0 2.17696 0C3.86192 0 5.68236 1.62571 5.16793 4.3194Z" fill="var(--color-primary)"/>
  <path d="M12.6457 11.084C12.6457 12.373 11.4934 13.0859 11.4934 13.9453C11.4934 14.4531 11.6203 14.7168 11.9426 15.1465C12.4113 15.7715 11.5324 16.3965 11.0637 15.8008C10.6047 15.2246 10.4094 14.6875 10.4094 14.0137C10.4094 12.6953 11.5422 12.0312 11.5422 11.084C11.5422 10.127 10.4094 9.47266 10.4094 8.14453C10.4094 7.49023 10.6047 6.95312 11.0734 6.36719C11.5422 5.76172 12.4211 6.38672 11.9523 7.01172C11.6203 7.45117 11.4934 7.72461 11.4934 8.21289C11.4934 9.0918 12.6457 9.80469 12.6457 11.084ZM15.7707 11.084C15.7707 12.373 14.6184 13.0859 14.6184 13.9453C14.6184 14.4531 14.7551 14.7168 15.0773 15.1465C15.5363 15.7715 14.6672 16.3965 14.1984 15.8008C13.7395 15.2246 13.5344 14.6875 13.5344 14.0137C13.5344 12.6953 14.6672 12.0312 14.6672 11.084C14.6672 10.127 13.5344 9.47266 13.5344 8.14453C13.5344 7.49023 13.7395 6.95312 14.2082 6.36719C14.677 5.76172 15.5461 6.38672 15.0773 7.01172C14.7551 7.45117 14.6184 7.72461 14.6184 8.21289C14.6184 9.0918 15.7707 9.80469 15.7707 11.084ZM18.9055 11.084C18.9055 12.373 17.7531 13.0859 17.7531 13.9453C17.7531 14.4531 17.8801 14.7168 18.2023 15.1465C18.6711 15.7715 17.7922 16.3965 17.3332 15.8008C16.8645 15.2246 16.6691 14.6875 16.6691 14.0137C16.6691 12.6953 17.802 12.0312 17.802 11.084C17.802 10.127 16.6691 9.47266 16.6691 8.14453C16.6691 7.49023 16.8645 6.95312 17.3332 6.36719C17.802 5.76172 18.6809 6.38672 18.2121 7.01172C17.8801 7.45117 17.7531 7.72461 17.7531 8.21289C17.7531 9.0918 18.9055 9.80469 18.9055 11.084Z" fill="var(--color-secondary)"/>
 </g>
</svg>
