<svg version="1.1" xmlns="http://www.w3.org/2000/svg" xmlns:xlink="http://www.w3.org/1999/xlink" viewBox="0 0 22.168 20.8496">
 <g>
  <rect height="20.8496" opacity="0" width="22.168" x="0" y="0"/>
  <path d="M1.29883 18.5156L20.5078 18.5156L20.5078 17.8613C20.5078 17.4707 20.2832 17.2363 19.8828 17.2363L19.2578 17.2363L19.2578 6.69922L20.1172 6.69922C20.6543 6.69922 20.9668 6.30859 20.9668 5.9082C20.9668 5.61523 20.8008 5.36133 20.4395 5.15625L12.0996 0.341797C11.709 0.117188 11.2988 0 10.8984 0C10.498 0 10.0781 0.117188 9.70703 0.341797L1.36719 5.15625C0.996094 5.36133 0.839844 5.61523 0.839844 5.9082C0.839844 6.30859 1.15234 6.69922 1.68945 6.69922L2.54883 6.69922L2.54883 17.2363L1.93359 17.2363C1.5332 17.2363 1.29883 17.4707 1.29883 17.8613ZM4.02344 17.2363L4.02344 5.44922L10.5176 1.80664C10.6348 1.73828 10.7715 1.69922 10.8984 1.69922C11.0254 1.69922 11.1621 1.73828 11.2891 1.80664L17.7832 5.44922L17.7832 17.2363ZM0.78125 20.8398L21.0156 20.8398C21.4453 20.8398 21.8066 20.4785 21.8066 20.0488C21.8066 19.6191 21.4453 19.2676 21.0156 19.2676L0.78125 19.2676C0.351562 19.2676 0 19.6191 0 20.0488C0 20.4785 0.351562 20.8398 0.78125 20.8398Z" fill="var(--color-primary)"/>
  <path d="M10.9082 13.6426C11.7578 13.6426 12.5977 13.3398 13.125 12.832C13.4375 12.5195 13.6816 12.0703 13.6816 11.7285C13.6816 11.416 13.4473 11.2402 13.1738 11.2402C12.9004 11.2402 12.7734 11.416 12.6758 11.6016C12.3047 12.3242 11.7578 12.6953 10.918 12.6953C9.53125 12.6953 8.86719 11.6406 8.86719 10.2148C8.86719 8.78906 9.55078 7.74414 10.9082 7.74414C11.7383 7.74414 12.3438 8.0957 12.666 8.84766C12.7637 9.07227 12.9395 9.20898 13.1738 9.20898C13.4668 9.20898 13.6719 9.02344 13.6719 8.71094C13.6719 8.33984 13.4082 7.91992 13.1055 7.61719C12.5781 7.08984 11.7676 6.79688 10.8984 6.79688C8.90625 6.79688 7.73438 8.22266 7.73438 10.2148C7.73438 12.373 9.02344 13.6426 10.9082 13.6426ZM10.8691 14.7949C11.0547 14.7949 11.2012 14.6484 11.2012 14.4629L11.2012 5.97656C11.2012 5.79102 11.0547 5.64453 10.8691 5.64453C10.6836 5.64453 10.5371 5.79102 10.5371 5.97656L10.5371 14.4629C10.5371 14.6484 10.6836 14.7949 10.8691 14.7949Z" fill="var(--color-primary)"/>
 </g>
</svg>
