<svg version="1.1" xmlns="http://www.w3.org/2000/svg" xmlns:xlink="http://www.w3.org/1999/xlink" viewBox="0 0 24.0651 19.9316">
 <g>
  <rect height="19.9316" opacity="0" width="24.0651" x="0" y="0"/>
  <path d="M11.8568 19.9219C17.3548 19.9219 21.8177 15.459 21.8177 9.96094C21.8177 4.46289 17.3548 0 11.8568 0C6.35874 0 1.89585 4.46289 1.89585 9.96094L3.55601 9.96094C3.55601 5.37109 7.26694 1.66016 11.8568 1.66016C16.4466 1.66016 20.1576 5.37109 20.1576 9.96094C20.1576 14.5508 16.4466 18.2617 11.8568 18.2617C9.08335 18.2617 6.61265 16.8945 5.13804 14.8242C4.8353 14.4238 4.37632 14.2969 3.96616 14.541C3.57554 14.7852 3.45835 15.332 3.79038 15.7617C5.59702 18.291 8.55601 19.9219 11.8568 19.9219ZM0.694677 8.07617C-0.00844799 8.07617-0.184229 8.55469 0.19663 9.10156L2.38413 12.207C2.7064 12.6562 3.17515 12.6465 3.48765 12.207L5.66538 9.0918C6.04624 8.55469 5.86069 8.07617 5.1771 8.07617Z" fill="var(--color-primary)"/>
  <path d="M11.8568 13.3301C12.7064 13.3301 13.5462 13.0273 14.0736 12.5098C14.3861 12.207 14.6302 11.7578 14.6302 11.416C14.6302 11.1035 14.3958 10.918 14.1224 10.918C13.849 10.918 13.7318 11.0938 13.6244 11.2891C13.2533 12.0117 12.7064 12.3828 11.8666 12.3828C10.4798 12.3828 9.81577 11.3184 9.81577 9.90234C9.81577 8.47656 10.4994 7.43164 11.8568 7.43164C12.6869 7.43164 13.2923 7.7832 13.6146 8.52539C13.7123 8.75977 13.888 8.88672 14.1224 8.88672C14.4154 8.88672 14.6205 8.70117 14.6205 8.38867C14.6205 8.01758 14.3568 7.60742 14.0541 7.30469C13.5267 6.76758 12.7162 6.48438 11.847 6.48438C9.85483 6.48438 8.68296 7.90039 8.68296 9.90234C8.68296 12.0605 9.97202 13.3301 11.8568 13.3301ZM11.8177 14.4824C12.0033 14.4824 12.1498 14.3359 12.1498 14.1406L12.1498 5.66406C12.1498 5.47852 12.0033 5.33203 11.8177 5.33203C11.6322 5.33203 11.4857 5.47852 11.4857 5.66406L11.4857 14.1406C11.4857 14.3359 11.6322 14.4824 11.8177 14.4824Z" fill="var(--color-primary)"/>
 </g>
</svg>
