<svg version="1.1" xmlns="http://www.w3.org/2000/svg" xmlns:xlink="http://www.w3.org/1999/xlink" width="11.9141" height="18.1543" viewBox="0 0 11.9141 18.1543">
 <g>
  <rect height="18.1543" opacity="0" width="11.9141" x="0" y="0"/>
  <path d="M6.15234 15.8203C8.87695 15.8203 10.8496 14.4238 11.4551 12.6074C11.5039 12.4414 11.5527 12.2559 11.5527 12.0508C11.5527 11.5527 11.2012 11.2207 10.7031 11.2207C10.3027 11.2207 10.0488 11.4746 9.88281 11.8555C9.30664 13.252 8.0957 14.2285 6.16211 14.2285C3.57422 14.2285 1.83594 12.4023 1.83594 9.07227C1.83594 5.81055 3.55469 3.90625 6.14258 3.90625C8.07617 3.90625 9.28711 4.89258 9.85352 6.26953C10.0195 6.68945 10.3125 6.92383 10.7227 6.92383C11.2109 6.92383 11.5332 6.58203 11.5332 6.09375C11.5332 5.88867 11.4844 5.70312 11.4355 5.53711C10.8203 3.73047 8.85742 2.31445 6.13281 2.31445C2.44141 2.31445 0 4.95117 0 9.07227C0 13.252 2.44141 15.8203 6.15234 15.8203ZM6.06445 18.1445C6.42578 18.1445 6.70898 17.8906 6.70898 17.5098L6.70898 0.634766C6.70898 0.253906 6.42578 0 6.06445 0C5.70312 0 5.42969 0.253906 5.42969 0.634766L5.42969 17.5098C5.42969 17.8906 5.70312 18.1445 6.06445 18.1445Z" fill="var(--color-primary)"/>
 </g>
</svg>
