<svg version="1.1" xmlns="http://www.w3.org/2000/svg" xmlns:xlink="http://www.w3.org/1999/xlink" viewBox="0 0 36.2695 13.7402">
 <g>
  <rect height="13.7402" opacity="0" width="36.2695" x="0" y="0"/>
  <path d="M30.4688 13.6621C32.832 13.6621 34.6777 12.6367 35.5859 10.8789C35.7617 10.5176 35.8789 10.1758 35.8789 9.83398C35.8789 9.375 35.5566 9.0625 35.0977 9.0625C34.7363 9.0625 34.5215 9.21875 34.3066 9.6875C33.6914 11.25 32.3535 12.1191 30.4688 12.1191C27.793 12.1191 26.084 10.0879 26.084 6.79688C26.084 3.56445 27.8027 1.54297 30.4688 1.54297C32.2461 1.54297 33.6816 2.59766 34.2773 4.18945C34.4824 4.64844 34.7461 4.83398 35.1367 4.83398C35.5957 4.83398 35.9082 4.54102 35.9082 4.07227C35.9082 3.83789 35.8594 3.57422 35.752 3.28125C35.0195 1.24023 32.9004 0 30.4688 0C26.7188 0 24.3262 2.62695 24.3262 6.80664C24.3262 11.0352 26.6992 13.6621 30.4688 13.6621Z" fill="var(--color-primary)"/>
  <path d="M13.7012 13.4375L18.1934 13.4375C21.1035 13.4375 22.8809 12.002 22.8809 9.82422C22.8809 7.96875 21.5527 6.67969 19.6582 6.48438L19.6582 6.42578C21.1133 6.17188 22.1875 4.90234 22.1875 3.41797C22.1875 1.55273 20.5664 0.234375 18.1445 0.234375L13.7012 0.234375C13.1934 0.234375 12.8516 0.566406 12.8516 1.09375L12.8516 12.5684C12.8516 13.0957 13.1934 13.4375 13.7012 13.4375ZM14.5996 5.94727L14.5996 1.71875L17.7344 1.71875C19.4336 1.71875 20.4395 2.5 20.4395 3.66211C20.4395 5.10742 19.3066 5.94727 17.3633 5.94727ZM14.5996 11.9824L14.5996 7.32422L17.7051 7.32422C19.8926 7.32422 21.084 8.16406 21.084 9.7168C21.084 11.1133 19.9414 11.9824 17.8613 11.9824Z" fill="var(--color-primary)"/>
  <path d="M0.771484 13.7109C1.25977 13.7109 1.50391 13.4961 1.67969 12.9883L2.87109 9.72656L8.30078 9.72656L9.50195 12.9883C9.67773 13.4961 9.92188 13.7109 10.4004 13.7109C10.8887 13.7109 11.2109 13.3887 11.2109 12.9199C11.2109 12.7637 11.1816 12.6172 11.1133 12.4316L6.76758 0.898438C6.55273 0.332031 6.17188 0.00976562 5.5957 0.00976562C5.00977 0.00976562 4.62891 0.332031 4.42383 0.888672L0.0976562 12.4414C0.0195312 12.627 0 12.7734 0 12.9297C0 13.3887 0.292969 13.7109 0.771484 13.7109ZM3.32031 8.32031L5.56641 2.11914L5.60547 2.11914L7.85156 8.32031Z" fill="var(--color-primary)"/>
 </g>
</svg>
