<svg version="1.1" xmlns="http://www.w3.org/2000/svg" xmlns:xlink="http://www.w3.org/1999/xlink" viewBox="0 0 17.959 17.0801">
 <g>
  <rect height="17.0801" opacity="0" width="17.959" x="0" y="0"/>
  <path d="M8.94531 16.9629C9.18945 16.9629 9.4043 16.8652 9.58008 16.6992L17.3145 9.14062C17.5 8.95508 17.5977 8.73047 17.5977 8.48633C17.5977 8.23242 17.5 7.98828 17.3145 7.83203L9.58008 0.263672C9.4043 0.0976562 9.18945 0 8.94531 0C8.4375 0 8.04688 0.390625 8.04688 0.898438C8.04688 1.13281 8.1543 1.36719 8.31055 1.5332L15.9473 9.00391L15.9473 7.95898L8.31055 15.4395C8.1543 15.6055 8.04688 15.8301 8.04688 16.0742C8.04688 16.582 8.4375 16.9629 8.94531 16.9629Z" fill="var(--color-primary)"/>
  <path d="M0.898438 2.30469C1.39648 2.30469 1.79688 1.9043 1.79688 1.40625C1.79688 0.908203 1.39648 0.507812 0.898438 0.507812C0.400391 0.507812 0 0.908203 0 1.40625C0 1.9043 0.400391 2.30469 0.898438 2.30469ZM2.66602 4.0918C3.17383 4.0918 3.56445 3.69141 3.56445 3.19336C3.56445 2.69531 3.17383 2.29492 2.66602 2.29492C2.16797 2.29492 1.76758 2.69531 1.76758 3.19336C1.76758 3.69141 2.16797 4.0918 2.66602 4.0918ZM4.44336 5.86914C4.94141 5.86914 5.3418 5.47852 5.3418 4.9707C5.3418 4.47266 4.94141 4.07227 4.44336 4.07227C3.94531 4.07227 3.54492 4.47266 3.54492 4.9707C3.54492 5.47852 3.94531 5.86914 4.44336 5.86914ZM6.21094 7.65625C6.70898 7.65625 7.10938 7.25586 7.10938 6.75781C7.10938 6.25977 6.70898 5.85938 6.21094 5.85938C5.71289 5.85938 5.3125 6.25977 5.3125 6.75781C5.3125 7.25586 5.71289 7.65625 6.21094 7.65625ZM7.98828 9.44336C8.48633 9.44336 8.88672 9.04297 8.88672 8.54492C8.88672 8.04688 8.48633 7.64648 7.98828 7.64648C7.49023 7.64648 7.08984 8.04688 7.08984 8.54492C7.08984 9.04297 7.49023 9.44336 7.98828 9.44336ZM6.21094 11.2305C6.70898 11.2305 7.10938 10.8301 7.10938 10.332C7.10938 9.82422 6.70898 9.43359 6.21094 9.43359C5.71289 9.43359 5.3125 9.82422 5.3125 10.332C5.3125 10.8301 5.71289 11.2305 6.21094 11.2305ZM4.44336 13.0078C4.94141 13.0078 5.3418 12.6074 5.3418 12.1094C5.3418 11.6113 4.94141 11.2109 4.44336 11.2109C3.94531 11.2109 3.54492 11.6113 3.54492 12.1094C3.54492 12.6074 3.94531 13.0078 4.44336 13.0078ZM2.66602 14.7949C3.17383 14.7949 3.56445 14.3945 3.56445 13.8965C3.56445 13.3984 3.17383 12.998 2.66602 12.998C2.16797 12.998 1.76758 13.3984 1.76758 13.8965C1.76758 14.3945 2.16797 14.7949 2.66602 14.7949ZM0.898438 16.582C1.39648 16.582 1.79688 16.1816 1.79688 15.6836C1.79688 15.1855 1.39648 14.7852 0.898438 14.7852C0.400391 14.7852 0 15.1855 0 15.6836C0 16.1816 0.400391 16.582 0.898438 16.582Z" fill="var(--color-primary)"/>
 </g>
</svg>
