<svg version="1.1" xmlns="http://www.w3.org/2000/svg" xmlns:xlink="http://www.w3.org/1999/xlink" width="18.6426" height="16.9824" viewBox="0 0 18.6426 16.9824">
 <g>
  <rect height="16.9824" opacity="0" width="18.6426" x="0" y="0"/>
  <path d="M9.61914 16.9629C9.87305 16.9629 10.0879 16.8652 10.2539 16.6992L17.9883 9.14062C18.1738 8.95508 18.2812 8.73047 18.2812 8.48633C18.2812 8.23242 18.1738 7.98828 17.9883 7.83203L10.2539 0.263672C10.0781 0.0976562 9.87305 0 9.61914 0C9.11133 0 8.7207 0.390625 8.7207 0.898438C8.7207 1.13281 8.82812 1.36719 8.98438 1.5332L16.6211 9.00391L16.6211 7.95898L8.98438 15.4395C8.82812 15.6055 8.7207 15.8301 8.7207 16.0742C8.7207 16.582 9.11133 16.9629 9.61914 16.9629Z" fill="var(--color-primary)"/>
  <path d="M0.888672 16.9629C1.14258 16.9629 1.35742 16.8652 1.5332 16.6992L9.26758 9.14062C9.45312 8.95508 9.55078 8.73047 9.55078 8.48633C9.55078 8.23242 9.45312 7.98828 9.26758 7.83203L1.52344 0.263672C1.35742 0.0976562 1.14258 0 0.888672 0C0.380859 0 0 0.390625 0 0.898438C0 1.13281 0.0976562 1.36719 0.253906 1.5332L7.90039 9.00391L7.90039 7.95898L0.253906 15.4395C0.0976562 15.6055 0 15.8301 0 16.0742C0 16.582 0.380859 16.9629 0.888672 16.9629Z" fill="var(--color-primary)"/>
 </g>
</svg>
