<svg version="1.1" xmlns="http://www.w3.org/2000/svg" xmlns:xlink="http://www.w3.org/1999/xlink" viewBox="0 0 5.21484 17.4707">
 <g>
  <rect height="17.4707" opacity="0" width="5.21484" x="0" y="0"/>
  <path d="M3.00781 16.7871C3.1543 17.168 3.48633 17.4121 3.83789 17.4121C4.41406 17.4121 4.85352 16.9922 4.85352 16.416C4.85352 16.123 4.6875 15.7422 4.58984 15.4883L1.65039 8.00781L1.65039 9.39453L4.58984 1.91406C4.6875 1.66016 4.85352 1.26953 4.85352 0.986328C4.85352 0.419922 4.41406 0 3.83789 0C3.48633 0 3.1543 0.234375 3.00781 0.615234L0.390625 7.27539C0.214844 7.72461 0 8.27148 0 8.70117C0 9.13086 0.214844 9.67773 0.390625 10.127Z" fill="var(--color-primary)"/>
 </g>
</svg>
