<svg version="1.1" xmlns="http://www.w3.org/2000/svg" xmlns:xlink="http://www.w3.org/1999/xlink" viewBox="0 0 19.1602 18.877">
 <g>
  <rect height="18.877" opacity="0" width="19.1602" x="0" y="0"/>
  <path d="M7.06055 17.0508C6.5332 17.0508 6.16211 17.4707 6.16211 17.959C6.16211 18.4863 6.5332 18.8574 7.06055 18.8574L17.8516 18.8574C18.3887 18.8574 18.7988 18.457 18.7988 17.9199L18.7988 7.09961C18.7988 6.57227 18.3984 6.20117 17.9102 6.20117C17.373 6.20117 17.002 6.57227 17.002 7.09961L17.002 17.8613L17.8125 17.0508Z" fill="var(--color-primary)"/>
  <path d="M0.898438 10.8594C0.371094 10.8594 0 11.2695 0 11.7676C0 12.2949 0.371094 12.666 0.898438 12.666L11.6992 12.666C12.2363 12.666 12.6367 12.2559 12.6367 11.7285L12.6367 0.908203C12.6367 0.380859 12.2363 0 11.748 0C11.2207 0 10.8398 0.380859 10.8398 0.908203L10.8398 11.6699L11.6504 10.8594Z" fill="var(--color-primary)"/>
 </g>
</svg>
