<svg version="1.1" xmlns="http://www.w3.org/2000/svg" xmlns:xlink="http://www.w3.org/1999/xlink" width="20.2832" height="19.9316" viewBox="0 0 20.2832 19.9316">
 <g>
  <rect height="19.9316" opacity="0" width="20.2832" x="0" y="0"/>
  <path d="M9.96094 19.9219C15.4102 19.9219 19.9219 15.4004 19.9219 9.96094C19.9219 4.51172 15.4004 0 9.95117 0C4.51172 0 0 4.51172 0 9.96094C0 15.4004 4.52148 19.9219 9.96094 19.9219ZM9.96094 18.2617C5.35156 18.2617 1.66992 14.5703 1.66992 9.96094C1.66992 5.35156 5.3418 1.66016 9.95117 1.66016C14.5605 1.66016 18.2617 5.35156 18.2617 9.96094C18.2617 14.5703 14.5703 18.2617 9.96094 18.2617Z" fill="var(--color-secondary)"/>
  <path d="M5.54688 13.9648L10.6738 13.9648C12.0605 13.9648 13.125 12.9199 13.125 11.5527C13.125 10.2148 12.0605 9.20898 10.6152 9.16992C10.0684 8.13477 9.08203 7.5 7.90039 7.5C6.32812 7.5 5.00977 8.7207 4.83398 10.2637C4.05273 10.5273 3.50586 11.2207 3.50586 12.0898C3.50586 13.1738 4.33594 13.9648 5.54688 13.9648ZM16.4746 8.95508C16.4746 8.75977 16.3965 8.63281 16.2402 8.63281C16.0059 8.63281 15.6445 8.93555 14.9805 8.93555C13.7793 8.93555 13.0176 8.22266 13.0176 7.11914C13.0176 6.47461 13.3691 6.00586 13.3691 5.75195C13.3691 5.60547 13.252 5.50781 13.0664 5.50781C12.0996 5.55664 10.8789 6.69922 10.7227 8.125C10.8301 8.24219 10.9277 8.37891 11.0254 8.51562C12.5391 8.70117 13.6719 9.82422 13.7988 11.2793C15.4688 11.123 16.4746 9.79492 16.4746 8.95508Z" fill="var(--color-primary)"/>
 </g>
</svg>
