<svg version="1.1" xmlns="http://www.w3.org/2000/svg" xmlns:xlink="http://www.w3.org/1999/xlink" width="14.375" height="22.8001" viewBox="0 0 14.375 22.8001">
 <g>
  <rect height="22.8001" opacity="0" width="14.375" x="0" y="0"/>
  <path d="M7.46094 20.3014C10.6738 20.3014 12.9883 18.7096 13.8477 16.3171C13.9551 16.0241 14.0039 15.7311 14.0137 15.4284C14.0234 14.9206 13.6816 14.569 13.1543 14.569C12.6465 14.569 12.3926 14.8522 12.2266 15.36C11.6797 17.2936 9.83398 18.5924 7.4707 18.5924C4.13086 18.5924 1.96289 15.8092 1.96289 11.3659C1.96289 6.99089 4.14062 4.24674 7.46094 4.24674C9.69727 4.24674 11.5527 5.6237 12.0996 7.54753C12.2754 8.11393 12.5195 8.33854 13.0273 8.33854C13.5547 8.33854 13.8965 7.98698 13.8867 7.4694C13.877 7.17643 13.8281 6.90299 13.7305 6.62956C12.8418 4.15885 10.3906 2.53776 7.46094 2.53776C2.95898 2.53776 0 5.96549 0 11.3659C0 16.8346 2.93945 20.3014 7.46094 20.3014ZM5.9375 21.9616C5.69336 22.9089 6.99219 23.1139 7.20703 22.2643L12.5488 1.28776C12.7734 0.399088 11.4941 0.115885 11.2695 0.985026ZM2.16797 21.8835C1.92383 22.8307 3.22266 23.0358 3.4375 22.1862L8.7793 1.20964C9.00391 0.320963 7.71484 0.0377601 7.5 0.906901Z" fill="var(--color-primary)"/>
 </g>
</svg>
