<svg version="1.1" xmlns="http://www.w3.org/2000/svg" xmlns:xlink="http://www.w3.org/1999/xlink" viewBox="0 0 34.1417 25.6397">
 <g>
  <rect height="25.6397" opacity="0" width="34.1417" x="0" y="0"/>
  <path d="M8.48684 19.1919L10.3325 18.3814L9.8052 17.2193L8.12551 17.9517C7.647 18.1665 7.32473 18.0787 7.10012 17.6783L6.62161 16.8482C5.93801 15.6763 6.3384 14.5142 7.74465 13.2935L11.6802 9.91459C12.0122 9.62162 12.2564 9.39701 12.4126 9.08451L15.0103 3.78178C15.3911 3.00053 14.2486 2.43412 13.8384 3.2642L11.1431 8.73295L6.97317 12.3072C5.00051 14.0064 4.47317 15.6763 5.51809 17.4927L6.03567 18.4009C6.63137 19.4263 7.38333 19.6705 8.48684 19.1919ZM12.8325 18.5181C14.1997 17.7271 14.649 16.0474 13.8579 14.6802C13.0669 13.313 11.3872 12.854 10.02 13.6451C8.65286 14.4361 8.20364 16.1255 8.98489 17.4927C9.7759 18.8599 11.4654 19.3091 12.8325 18.5181ZM12.2368 17.483C11.4458 17.9322 10.479 17.6783 10.02 16.897C9.57083 16.106 9.8345 15.1392 10.6157 14.6802C11.397 14.231 12.3736 14.4947 12.8228 15.2759C13.2818 16.0572 13.0181 17.0337 12.2368 17.483ZM13.6724 16.0376L25.4986 9.21147L24.8638 8.10795L13.0376 14.9341ZM28.0083 9.75834C29.3755 8.96733 29.8247 7.28764 29.0337 5.92045C28.2427 4.55326 26.563 4.09428 25.1958 4.88529C23.8286 5.67631 23.3697 7.36576 24.1607 8.73295C24.9517 10.1001 26.6411 10.5494 28.0083 9.75834ZM27.4029 8.72319C26.6216 9.1724 25.645 8.9185 25.1958 8.12748C24.7466 7.34623 25.0103 6.36967 25.7915 5.92045C26.5728 5.47123 27.5493 5.7349 27.9986 6.51615C28.4478 7.2974 28.1939 8.27397 27.4029 8.72319ZM28.9263 7.0142L30.0493 6.19389C31.2896 5.29545 31.5142 4.19194 30.7232 2.82475L30.0298 1.63334C29.0923 0.0122478 28.0962-0.319783 26.3775 0.27592L21.9243 1.80912C21.4849 1.96537 21.0943 2.15092 20.7329 2.39506L11.1919 8.70365L11.524 10.0122L21.6314 3.32279L26.8365 1.52592C27.8423 1.17436 28.4087 1.36967 28.9263 2.26811L29.6197 3.45951C30.02 4.16264 29.9224 4.72904 29.2876 5.18803L28.2818 5.91069Z" fill="var(--color-primary)"/>
  <path d="M4.39505 20.3833L2.35403 16.8287C2.01223 16.2232 1.31887 16.3794 1.12356 16.9654L0.0493421 19.9732C-0.0971423 20.3931 0.0884046 20.7251 0.527858 20.8033L3.66262 21.3794C4.27786 21.5064 4.74661 20.979 4.39505 20.3833ZM6.0845 25.1685C6.31887 25.5591 6.79739 25.6861 7.15872 25.4712L33.3892 10.3443C33.7505 10.1392 33.8872 9.65092 33.6822 9.28959C33.4478 8.89897 32.9595 8.77201 32.6079 8.98686L6.3677 24.1138C6.01614 24.3287 5.87942 24.8169 6.0845 25.1685Z" fill="var(--color-primary)"/>
 </g>
</svg>
