<svg version="1.1" xmlns="http://www.w3.org/2000/svg" xmlns:xlink="http://www.w3.org/1999/xlink" viewBox="0 0 13.75 23.4082">
 <g>
  <rect height="23.4082" opacity="0" width="13.75" x="0" y="0"/>
  <path d="M1.72852 2.75391C1.72852 3.83789 2.36328 4.48242 3.41797 4.48242L9.96094 4.48242C11.0254 4.48242 11.6602 3.83789 11.6602 2.75391L11.6602 1.72852C11.6602 0.644531 11.0254 0 9.96094 0L3.41797 0C2.36328 0 1.72852 0.644531 1.72852 1.72852ZM3.10547 2.73438L3.10547 1.74805C3.10547 1.51367 3.24219 1.36719 3.48633 1.36719L9.89258 1.36719C10.1367 1.36719 10.2832 1.51367 10.2832 1.74805L10.2832 2.73438C10.2832 2.95898 10.1367 3.11523 9.89258 3.11523L3.48633 3.11523C3.24219 3.11523 3.10547 2.95898 3.10547 2.73438ZM4.53125 6.25977L4.53125 3.94531L3.1543 3.94531L3.1543 6.25977ZM10.2344 6.25977L10.2344 3.94531L8.85742 3.94531L8.85742 6.25977ZM0 20.1758C0 22.1191 1.25 23.3789 3.1543 23.3789L10.2344 23.3789C12.1387 23.3789 13.3887 22.1191 13.3887 20.1758L13.3887 9.10156C13.3887 7.1582 12.1387 5.89844 10.2344 5.89844L3.1543 5.89844C1.25 5.89844 0 7.1582 0 9.10156ZM1.49414 20.1562L1.49414 9.12109C1.49414 8.07617 2.17773 7.40234 3.23242 7.40234L10.1562 7.40234C11.2109 7.40234 11.8945 8.07617 11.8945 9.12109L11.8945 20.1562C11.8945 21.2109 11.2109 21.8848 10.1562 21.8848L3.23242 21.8848C2.17773 21.8848 1.49414 21.2109 1.49414 20.1562Z" fill="var(--color-primary)"/>
  <path d="M3.04688 15.332C3.04688 15.7422 3.32031 16.0059 3.7207 16.0059L5.32227 16.0059L5.32227 17.5977C5.32227 18.0078 5.58594 18.2812 5.99609 18.2812L7.38281 18.2812C7.79297 18.2812 8.05664 18.0078 8.05664 17.5977L8.05664 16.0059L9.6582 16.0059C10.0488 16.0059 10.3418 15.7422 10.3418 15.332L10.3418 13.9453C10.3418 13.5352 10.0488 13.2715 9.6582 13.2715L8.05664 13.2715L8.05664 11.6797C8.05664 11.2695 7.79297 11.0059 7.38281 11.0059L5.99609 11.0059C5.58594 11.0059 5.32227 11.2695 5.32227 11.6797L5.32227 13.2715L3.7207 13.2715C3.32031 13.2715 3.04688 13.5352 3.04688 13.9453Z" fill="var(--color-primary)"/>
 </g>
</svg>
