<svg version="1.1" xmlns="http://www.w3.org/2000/svg" xmlns:xlink="http://www.w3.org/1999/xlink" viewBox="0 0 22.168 20.8496">
 <g>
  <rect height="20.8496" opacity="0" width="22.168" x="0" y="0"/>
  <path d="M1.29883 18.5156L20.5078 18.5156L20.5078 17.8613C20.5078 17.4707 20.2832 17.2363 19.8828 17.2363L19.2578 17.2363L19.2578 6.69922L20.1172 6.69922C20.6543 6.69922 20.9668 6.30859 20.9668 5.9082C20.9668 5.61523 20.8008 5.36133 20.4395 5.15625L12.0996 0.341797C11.709 0.117188 11.2988 0 10.8984 0C10.498 0 10.0781 0.117188 9.70703 0.341797L1.36719 5.15625C0.996094 5.36133 0.839844 5.61523 0.839844 5.9082C0.839844 6.30859 1.15234 6.69922 1.68945 6.69922L2.54883 6.69922L2.54883 17.2363L1.93359 17.2363C1.5332 17.2363 1.29883 17.4707 1.29883 17.8613ZM4.02344 17.2363L4.02344 5.44922L10.5176 1.80664C10.6348 1.73828 10.7715 1.69922 10.8984 1.69922C11.0254 1.69922 11.1621 1.73828 11.2891 1.80664L17.7832 5.44922L17.7832 17.2363ZM0.78125 20.8398L21.0156 20.8398C21.4453 20.8398 21.8066 20.4785 21.8066 20.0488C21.8066 19.6191 21.4453 19.2676 21.0156 19.2676L0.78125 19.2676C0.351562 19.2676 0 19.6191 0 20.0488C0 20.4785 0.351562 20.8398 0.78125 20.8398Z" fill="var(--color-primary)"/>
  <path d="M10.9473 14.6777C12.4316 14.6777 13.7793 13.9551 14.209 12.6758C14.2773 12.5293 14.2871 12.3926 14.2871 12.2461C14.2871 11.9336 14.082 11.7578 13.7695 11.7578C13.4668 11.7578 13.3105 11.9238 13.2129 12.1973C12.8906 13.2129 11.9531 13.6914 10.957 13.6914C9.14062 13.6914 8.32031 12.0801 8.32031 10.3027C8.32031 8.51562 9.16992 6.95312 10.957 6.95312C11.9824 6.95312 12.8613 7.53906 13.1543 8.44727C13.2617 8.74023 13.4082 8.89648 13.6914 8.89648C13.9844 8.89648 14.2188 8.69141 14.2188 8.39844C14.2188 8.29102 14.1992 8.11523 14.1406 7.96875C13.6719 6.70898 12.3926 5.94727 10.9473 5.94727C8.53516 5.94727 7.11914 7.7832 7.11914 10.3027C7.11914 12.7344 8.41797 14.6777 10.9473 14.6777ZM10.4102 14.1699L11.0742 14.1699L11.0742 12.2363C11.0742 11.3086 11.7285 10.6836 12.6465 10.6836C12.8027 10.6836 12.9395 10.7227 13.0273 10.7227C13.2227 10.7227 13.3594 10.625 13.3594 10.4004C13.3594 10.2637 13.291 10.1465 13.1641 10.0684C13.0469 9.99023 12.8125 9.95117 12.6367 9.95117C11.8848 9.95117 11.2793 10.4199 11.084 11.0449L11.0645 11.0449L11.0645 10.3125C11.0645 10.1074 10.9277 9.96094 10.7422 9.96094C10.5371 9.96094 10.4102 10.1074 10.4102 10.3125Z" fill="var(--color-primary)"/>
 </g>
</svg>
