<svg version="1.1" xmlns="http://www.w3.org/2000/svg" xmlns:xlink="http://www.w3.org/1999/xlink" viewBox="0 0 18.3398 17.9785">
 <g>
  <rect height="17.9785" opacity="0" width="18.3398" x="0" y="0"/>
  <path d="M17.9785 3.02734L17.9785 14.9609C17.9785 16.9727 16.9629 17.9785 14.9121 17.9785L3.06641 17.9785C1.02539 17.9785 0 16.9727 0 14.9609L0 3.02734C0 1.01562 1.02539 0 3.06641 0L14.9121 0C16.9629 0 17.9785 1.01562 17.9785 3.02734ZM4.83398 5.86914L4.83398 7.11914C4.83398 7.8418 4.6582 8.01758 4.16016 8.14453C3.31055 8.36914 3.31055 9.61914 4.16016 9.84375C4.6582 9.98047 4.83398 10.1562 4.83398 10.8789L4.83398 12.1289C4.83398 13.7012 5.64453 14.4824 7.00195 14.4824C7.60742 14.4824 7.94922 14.1992 7.94922 13.7891C7.94922 13.3789 7.64648 13.1152 7.24609 13.1152C6.5625 13.1152 6.30859 12.8223 6.30859 11.9922L6.30859 10.6152C6.30859 9.83852 5.89256 9.24427 5.19239 8.99098C5.89256 8.74401 6.30859 8.14976 6.30859 7.37305L6.30859 6.00586C6.30859 5.17578 6.5625 4.87305 7.24609 4.87305C7.64648 4.87305 7.94922 4.61914 7.94922 4.20898C7.94922 3.79883 7.60742 3.50586 7.00195 3.50586C5.64453 3.50586 4.83398 4.29688 4.83398 5.86914ZM10.0586 4.20898C10.0586 4.61914 10.3613 4.87305 10.7617 4.87305C11.4453 4.87305 11.6992 5.17578 11.6992 6.00586L11.6992 7.37305C11.6992 8.14976 12.1152 8.74401 12.8154 8.99098C12.1152 9.24427 11.6992 9.83852 11.6992 10.6152L11.6992 11.9922C11.6992 12.8223 11.4453 13.1152 10.7617 13.1152C10.3613 13.1152 10.0586 13.3789 10.0586 13.7891C10.0586 14.1992 10.4004 14.4824 11.0059 14.4824C12.3633 14.4824 13.1738 13.7012 13.1738 12.1289L13.1738 10.8789C13.1738 10.1562 13.3496 9.98047 13.8477 9.84375C14.6973 9.62891 14.6973 8.35938 13.8477 8.14453C13.3496 8.01758 13.1738 7.8418 13.1738 7.11914L13.1738 5.86914C13.1738 4.29688 12.3633 3.50586 11.0059 3.50586C10.4004 3.50586 10.0586 3.79883 10.0586 4.20898Z" fill="var(--color-primary)"/>
 </g>
</svg>
