<svg version="1.1" xmlns="http://www.w3.org/2000/svg" xmlns:xlink="http://www.w3.org/1999/xlink" viewBox="0 0 18.3398 17.9785">
 <g>
  <rect height="17.9785" opacity="0" width="18.3398" x="0" y="0"/>
  <path d="M3.06641 17.9785L14.9121 17.9785C16.9629 17.9785 17.9785 16.9727 17.9785 14.9609L17.9785 3.02734C17.9785 1.01562 16.9629 0 14.9121 0L3.06641 0C1.02539 0 0 1.01562 0 3.02734L0 14.9609C0 16.9727 1.02539 17.9785 3.06641 17.9785ZM3.08594 16.4062C2.10938 16.4062 1.57227 15.8887 1.57227 14.873L1.57227 3.11523C1.57227 2.09961 2.10938 1.57227 3.08594 1.57227L14.8926 1.57227C15.8594 1.57227 16.4062 2.09961 16.4062 3.11523L16.4062 14.873C16.4062 15.8887 15.8594 16.4062 14.8926 16.4062Z" fill="var(--color-primary)"/>
  <path d="M6.43555 13.3398L8.92578 13.3398C11.6992 13.3398 13.2617 11.7578 13.2617 8.86719C13.2617 6.01562 11.7188 4.44336 8.92578 4.44336L6.43555 4.44336C5.9375 4.44336 5.67383 4.79492 5.67383 5.32227L5.67383 12.4609C5.67383 12.9883 5.9375 13.3398 6.43555 13.3398ZM7.17773 12.1289L7.17773 5.6543L8.75 5.6543C10.6543 5.6543 11.6992 6.78711 11.6992 8.89648C11.6992 11.0449 10.6641 12.1289 8.75 12.1289Z" fill="var(--color-primary)"/>
 </g>
</svg>
