<svg version="1.1" xmlns="http://www.w3.org/2000/svg" xmlns:xlink="http://www.w3.org/1999/xlink" width="20.1074" height="26.9238" viewBox="0 0 20.1074 26.9238">
 <g>
  <rect height="26.9238" opacity="0" width="20.1074" x="0" y="0"/>
  <path d="M19.7461 14.3848L19.7461 18.2812C19.7461 22.3633 16.0156 24.082 9.87305 24.082C3.7207 24.082 0 22.3633 0 18.2812L1.41076e-08 14.3848C0 12.241 2.2299 10.6381 5.85644 9.97502L7.08854 11.3629C3.69197 11.7501 1.57227 12.871 1.57227 14.3848C1.57227 16.2793 4.89258 17.5684 9.87305 17.5684C14.8535 17.5684 18.1738 16.2793 18.1738 14.3848C18.1738 12.8696 16.0502 11.748 12.6483 11.3617L13.8797 9.97409C17.5083 10.6364 19.7461 12.2398 19.7461 14.3848ZM16.6309 18.0042L16.6309 19.4336C16.6309 19.7852 16.3379 20.0781 15.9863 20.0781C15.6348 20.0781 15.3516 19.7852 15.3516 19.4336L15.3516 18.4556C14.8254 18.6137 14.2509 18.7435 13.6328 18.8428L13.6328 20.0977C13.6328 20.4492 13.3496 20.7422 12.998 20.7422C12.6465 20.7422 12.3535 20.4492 12.3535 20.0977L12.3535 19.0144C11.7356 19.083 11.0801 19.1223 10.3906 19.1301L10.3906 20.3516C10.3906 20.7031 10.1074 20.9863 9.75586 20.9863C9.4043 20.9863 9.11133 20.7031 9.11133 20.3516L9.11133 19.1252C8.42461 19.1102 7.77201 19.0645 7.1582 18.9893L7.1582 20.0977C7.1582 20.4492 6.86523 20.7422 6.51367 20.7422C6.16211 20.7422 5.87891 20.4492 5.87891 20.0977L5.87891 18.8063C5.26366 18.6953 4.68967 18.5564 4.16016 18.3921L4.16016 19.4336C4.16016 19.7852 3.87695 20.0781 3.52539 20.0781C3.17383 20.0781 2.88086 19.7852 2.88086 19.4336L2.88086 17.9044C2.38174 17.6822 1.94564 17.429 1.57227 17.1503L1.57227 18.2812C1.57227 21.3867 4.70703 22.5098 9.87305 22.5098C15.0391 22.5098 18.1738 21.3867 18.1738 18.2812L18.1738 17.1485C17.7424 17.4703 17.2279 17.7581 16.6309 18.0042Z" fill="var(--color-secondary)"/>
  <path d="M10.4688 11.8066L13.0859 8.85742C13.6035 8.28125 13.3105 7.45117 12.4805 7.45117L10.7129 7.45117L10.7129 2.16797C10.7129 1.69922 10.3418 1.33789 9.88281 1.33789C9.4043 1.33789 9.04297 1.69922 9.04297 2.16797L9.04297 7.45117L7.25586 7.45117C6.45508 7.45117 6.11328 8.25195 6.64062 8.85742L9.26758 11.8066C9.61914 12.2168 10.1074 12.2168 10.4688 11.8066Z" fill="var(--color-primary)"/>
 </g>
</svg>
