<svg version="1.1" xmlns="http://www.w3.org/2000/svg" xmlns:xlink="http://www.w3.org/1999/xlink" width="22.264" height="19.7559" viewBox="0 0 22.264 19.7559">
 <g>
  <rect height="19.7559" opacity="0" width="22.264" x="0" y="0"/>
  <path d="M12.4015 9.87305C12.4015 15.791 14.2961 19.7461 17.1476 19.7461C19.9992 19.7461 21.9035 15.791 21.9035 9.87305C21.9035 3.94531 19.9992 0 17.1476 0C14.2961 0 12.4015 3.94531 12.4015 9.87305ZM13.9738 9.87305C13.9738 4.89258 15.2531 1.57227 17.1476 1.57227C19.0422 1.57227 20.3312 4.89258 20.3312 9.87305C20.3312 14.8438 19.0422 18.1738 17.1476 18.1738C15.2531 18.1738 13.9738 14.8438 13.9738 9.87305ZM7.46013 9.87305C7.46013 16.0156 9.16911 19.7461 13.2609 19.7461L17.1476 19.7461L17.1476 18.1738L13.2609 18.1738C10.1554 18.1738 9.0324 15.0391 9.0324 9.87305C9.0324 4.70703 10.1554 1.57227 13.2609 1.57227L17.1476 1.57227L17.1476 0L13.2609 0C9.16911 0 7.46013 3.7207 7.46013 9.87305ZM12.0988 4.16016L13.925 4.16016L13.925 2.88086L12.0988 2.88086C11.7472 2.88086 11.4543 3.17383 11.4543 3.52539C11.4543 3.87695 11.7472 4.16016 12.0988 4.16016ZM11.4347 7.1582L13.2609 7.1582L13.2609 5.87891L11.4347 5.87891C11.0832 5.87891 10.7902 6.16211 10.7902 6.51367C10.7902 6.86523 11.0832 7.1582 11.4347 7.1582ZM11.1808 10.3906L13.007 10.3906L13.007 9.11133L11.1808 9.11133C10.8293 9.11133 10.5461 9.4043 10.5461 9.75586C10.5461 10.1074 10.8293 10.3906 11.1808 10.3906ZM11.4347 13.6328L13.2609 13.6328L13.2609 12.3535L11.4347 12.3535C11.0832 12.3535 10.7902 12.6465 10.7902 12.998C10.7902 13.3496 11.0832 13.6328 11.4347 13.6328ZM12.0988 16.6309L13.925 16.6309L13.925 15.3516L12.0988 15.3516C11.7472 15.3516 11.4543 15.6348 11.4543 15.9863C11.4543 16.3379 11.7472 16.6309 12.0988 16.6309Z" fill="var(--color-secondary)"/>
  <path d="M2.94841 1.88477C2.65544 1.88477 2.34294 2.02148 2.22576 2.37305C1.58122 4.31641 1.21013 6.50391 1.21013 8.76953C1.21013 11.0254 1.57146 13.2129 2.22576 15.1562L3.62224 14.668C3.01677 12.8809 2.68474 10.8594 2.68474 8.76953C2.68474 6.66992 3.01677 4.64844 3.62224 2.86133C3.83708 2.26562 3.39763 1.88477 2.94841 1.88477ZM0.467943 14.3457C-0.12776 14.5703-0.137526 15.332 0.34099 15.625L3.41716 17.5293C3.83708 17.7832 4.30583 17.6074 4.45232 17.1484L5.5949 13.7402C5.77068 13.2129 5.30193 12.5879 4.66716 12.8223Z" fill="var(--color-primary)"/>
 </g>
</svg>
