<svg version="1.1" xmlns="http://www.w3.org/2000/svg" xmlns:xlink="http://www.w3.org/1999/xlink" width="20.2832" height="19.9316" viewBox="0 0 20.2832 19.9316">
 <g>
  <rect height="19.9316" opacity="0" width="20.2832" x="0" y="0"/>
  <path d="M9.96094 19.9316C15.4102 19.9316 19.9219 15.4199 19.9219 9.9707C19.9219 4.53125 15.4004 0.00976562 9.95117 0.00976562C4.51172 0.00976562 0 4.53125 0 9.9707C0 15.4199 4.52148 19.9316 9.96094 19.9316Z" fill="var(--color-tertiary)"/>
  <path d="M13.2617 4.44336C13.9941 4.44336 14.4727 4.94141 14.4727 5.69336L14.4727 7.10938L5.37109 7.10938L5.37109 5.69336C5.37109 4.94141 5.84961 4.44336 6.58203 4.44336ZM6.89453 6.12305C6.95312 6.31836 7.16797 6.43555 7.37305 6.37695C7.57812 6.31836 7.68555 6.09375 7.62695 5.89844C7.56836 5.68359 7.36328 5.57617 7.1582 5.63477C6.95312 5.69336 6.83594 5.9082 6.89453 6.12305ZM8.65234 6.48438C8.91602 6.48438 9.13086 6.26953 9.13086 6.01562C9.13086 5.74219 8.91602 5.51758 8.65234 5.51758C8.37891 5.51758 8.18359 5.74219 8.18359 6.01562C8.18359 6.26953 8.37891 6.48438 8.65234 6.48438ZM5.37109 13.3789L5.37109 7.83203L14.4727 7.83203L14.4727 13.3789ZM8.65234 9.39453L11.2109 9.39453C11.3867 9.39453 11.4941 9.26758 11.4941 9.10156C11.4941 8.92578 11.3867 8.80859 11.2109 8.80859L8.65234 8.80859C8.47656 8.80859 8.36914 8.92578 8.36914 9.10156C8.36914 9.26758 8.47656 9.39453 8.65234 9.39453ZM14.4727 14.1016L14.4727 14.209C14.4727 14.9609 13.9941 15.4688 13.2617 15.4688L6.58203 15.4688C5.84961 15.4688 5.37109 14.9609 5.37109 14.209L5.37109 14.1016Z" fill="var(--color-primary)"/>
 </g>
</svg>
