<svg version="1.1" xmlns="http://www.w3.org/2000/svg" xmlns:xlink="http://www.w3.org/1999/xlink" viewBox="0 0 35.5859 22.7051">
 <g>
  <rect height="22.7051" opacity="0" width="35.5859" x="0" y="0"/>
  <path d="M13.2324 15.7031L21.9434 15.7031C24.4922 15.7031 25.0293 13.6816 24.1797 11.9922L21.6602 7.03125C21.1426 6.00586 20.4883 5.44922 19.0332 5.44922L16.1719 5.44922C14.7168 5.44922 14.0723 6.00586 13.5449 7.03125L10.9961 11.9922C10.1367 13.6719 10.6738 15.7031 13.2324 15.7031ZM6.71875 18.5449L12.5684 16.4746L12.373 15.1953L6.48438 17.2754C4.70703 17.9004 3.68164 17.1973 3.68164 15.8301L3.68164 13.9355C3.68164 13.7598 3.73047 13.7207 3.91602 13.7207L4.44336 13.7207C4.64844 13.7207 4.6875 13.7598 4.6875 13.9355L4.6875 15.5273C4.6875 16.3281 5.17578 16.6016 6.03516 16.2891L11.5039 14.3164L11.7773 12.9004L6.25977 14.9219C6.05469 15 5.9668 14.834 5.9668 14.6289L5.9668 13.6719C5.9668 12.9883 5.58594 12.5977 4.90234 12.5977L3.44727 12.5977C2.7832 12.5977 2.39258 12.9883 2.39258 13.6719L2.39258 15.9375C2.39258 17.793 3.91602 19.541 6.71875 18.5449ZM16.0449 22.7051L19.1113 22.7051C19.7363 22.7051 20.127 22.2266 20.127 21.6016L20.127 19.2676L15.0293 19.2676L15.0293 21.6016C15.0293 22.2266 15.4199 22.7051 16.0449 22.7051ZM17.5781 21.7383C17.1191 21.7383 16.748 21.3867 16.748 20.918C16.748 20.4492 17.1191 20.0977 17.5781 20.0977C18.0371 20.0977 18.4082 20.459 18.4082 20.918C18.4082 21.3867 18.0273 21.7383 17.5781 21.7383ZM15.1367 19.9121L20.0195 19.9121C20.7031 19.9121 21.2891 19.668 21.6211 19.1113L24.3164 14.4922L22.1582 15.2441L20.4492 18.1445C20.3027 18.3887 20.1074 18.4863 19.7461 18.4863L15.4102 18.4863C15.0488 18.4863 14.8535 18.3887 14.707 18.1445L12.9688 15.1855L10.8203 14.4434L13.5352 19.1113C13.8672 19.668 14.4531 19.9121 15.1367 19.9121ZM12.334 10.8008L12.832 9.59961L10 8.07617C9.07227 7.57812 8.84766 7.27539 8.84766 6.17188L8.84766 4.84375C8.84766 4.66797 8.89648 4.62891 9.08203 4.62891L9.61914 4.62891C9.81445 4.62891 9.86328 4.66797 9.86328 4.84375L9.86328 6.06445C9.86328 6.78711 10.0586 6.99219 10.5273 7.22656L13.2617 8.65234L13.916 7.5L11.3965 6.15234C11.2109 6.05469 11.1426 5.92773 11.1426 5.80078L11.1426 4.58008C11.1426 3.89648 10.7617 3.50586 10.0684 3.50586L8.61328 3.50586C7.94922 3.50586 7.55859 3.89648 7.55859 4.58008L7.55859 6.37695C7.55859 7.97852 7.94922 8.49609 9.51172 9.31641ZM13.4766 14.2676C12.2559 14.2676 11.9531 13.4082 12.4805 12.3535L14.8242 7.73438C15.1465 7.10938 15.4492 6.9043 16.1816 6.9043L19.0234 6.9043C19.7559 6.9043 20.0586 7.10938 20.3809 7.73438L22.7051 12.3535C23.2422 13.4082 22.9395 14.2676 21.7188 14.2676ZM12.9297 2.63672C13.291 2.63672 13.5254 2.33398 13.5254 2.01172C13.5254 1.68945 13.291 1.37695 12.9297 1.37695L5.75195 1.37695C5.40039 1.37695 5.15625 1.68945 5.15625 2.01172C5.15625 2.33398 5.40039 2.63672 5.75195 2.63672ZM28.4863 18.5449C31.2891 19.541 32.8125 17.793 32.8125 15.9375L32.8125 13.6719C32.8125 12.9883 32.4219 12.5977 31.7578 12.5977L30.3027 12.5977C29.6191 12.5977 29.2383 12.9883 29.2383 13.6719L29.2383 14.6289C29.2383 14.834 29.1504 15 28.9453 14.9219L23.4277 12.9004L23.7012 14.3164L29.1699 16.2891C30.0293 16.6016 30.5176 16.3281 30.5176 15.5273L30.5176 13.9355C30.5176 13.7598 30.5566 13.7207 30.7617 13.7207L31.2891 13.7207C31.4746 13.7207 31.5234 13.7598 31.5234 13.9355L31.5234 15.8301C31.5234 17.1973 30.498 17.9004 28.7305 17.2754L22.832 15.1953L22.6367 16.4746ZM22.8711 10.8008L25.6934 9.31641C27.2559 8.49609 27.6465 7.97852 27.6465 6.37695L27.6465 4.58008C27.6465 3.89648 27.2559 3.50586 26.5918 3.50586L25.1367 3.50586C24.4434 3.50586 24.0625 3.89648 24.0625 4.58008L24.0625 5.80078C24.0625 5.92773 23.9941 6.05469 23.8086 6.15234L21.2891 7.5L21.9434 8.65234L24.6777 7.22656C25.1465 6.99219 25.3418 6.78711 25.3418 6.06445L25.3418 4.84375C25.3418 4.66797 25.3906 4.62891 25.5859 4.62891L26.123 4.62891C26.3086 4.62891 26.3574 4.66797 26.3574 4.84375L26.3574 6.17188C26.3574 7.27539 26.1328 7.57812 25.2051 8.07617L22.373 9.59961ZM22.2363 2.63672L29.4141 2.63672C29.7656 2.63672 30.0098 2.33398 30.0098 2.01172C30.0098 1.68945 29.7656 1.37695 29.4141 1.37695L22.2363 1.37695C21.875 1.37695 21.6406 1.68945 21.6406 2.01172C21.6406 2.33398 21.875 2.63672 22.2363 2.63672ZM7.77344 11.7383C8.13477 11.7383 8.36914 11.4258 8.36914 11.1035C8.36914 10.7812 8.13477 10.4688 7.77344 10.4688L0.595703 10.4688C0.244141 10.4688 0 10.7812 0 11.1035C0 11.4258 0.244141 11.7383 0.595703 11.7383ZM27.4512 11.7383L34.6289 11.7383C34.9805 11.7383 35.2246 11.4258 35.2246 11.1035C35.2246 10.7812 34.9805 10.4688 34.6289 10.4688L27.4512 10.4688C27.0898 10.4688 26.8555 10.7812 26.8555 11.1035C26.8555 11.4258 27.0898 11.7383 27.4512 11.7383ZM25.0391 3.94531L26.6895 3.94531L26.6895 1.36719C26.6895 0.908203 26.3281 0.527344 25.8496 0.527344C25.4004 0.527344 25.0391 0.908203 25.0391 1.36719ZM10.166 3.94531L10.166 1.36719C10.166 0.908203 9.80469 0.527344 9.33594 0.527344C8.87695 0.527344 8.51562 0.908203 8.51562 1.36719L8.51562 3.94531ZM30.2051 12.9395L31.8555 12.9395L31.8555 10.3613C31.8555 9.91211 31.4941 9.52148 31.0156 9.52148C30.5664 9.52148 30.2051 9.91211 30.2051 10.3613ZM5 12.9395L5 10.3613C5 9.91211 4.63867 9.52148 4.16992 9.52148C3.71094 9.52148 3.34961 9.91211 3.34961 10.3613L3.34961 12.9395Z" fill="var(--color-primary)"/>
 </g>
</svg>
