<svg version="1.1" xmlns="http://www.w3.org/2000/svg" xmlns:xlink="http://www.w3.org/1999/xlink" width="31.0498" height="26.6016" viewBox="0 0 31.0498 26.6016">
 <g>
  <rect height="26.6016" opacity="0" width="31.0498" x="0" y="0"/>
  <path d="M7.02393 11.3924L7.02393 22.6221L17.6778 22.6221L17.6775 22.0312L19.8436 24.1944L4.68018 24.1944C4.25049 24.1944 3.90869 23.833 3.90869 23.3936C3.90869 22.9639 4.26025 22.6221 4.68018 22.6221L5.45166 22.6221L5.45166 9.82234ZM17.6747 16.6743L17.6685 4.90725C17.6685 4.29202 17.3462 3.97952 16.7505 3.97952L7.94189 3.97952C7.31689 3.97952 7.02393 4.30178 7.02393 4.90725L7.02393 6.02855L5.47441 4.47975C5.61048 3.13677 6.45435 2.40725 7.92236 2.40725L16.77 2.40725C18.3716 2.40725 19.2505 3.28616 19.2505 4.88772L19.2505 13.8916L19.3481 13.8916C20.6567 13.8916 21.4575 14.6631 21.4575 16.0108L21.4575 19.2432C21.4575 19.7705 21.77 20.0928 22.3071 20.0928C22.8247 20.0928 23.1372 19.7705 23.1372 19.2432L23.1372 14.1944C23.1372 13.2276 22.4146 12.9541 21.9556 12.6026C21.2524 12.0752 20.8716 11.3428 20.8716 10.4737L20.8716 9.00881C20.8716 8.77444 21.0083 8.63772 21.2231 8.63772L22.0532 8.63772L22.0532 6.6553C22.0532 6.35256 22.2974 6.09866 22.6196 6.09866C22.9126 6.09866 23.1665 6.35256 23.1665 6.6553L23.1665 8.63772L24.6216 8.63772L24.6216 6.6553C24.6216 6.35256 24.8755 6.09866 25.1782 6.09866C25.4907 6.09866 25.7349 6.35256 25.7349 6.6553L25.7349 8.63772L26.4282 8.63772C26.6431 8.63772 26.7798 8.77444 26.7798 9.00881L26.7798 10.4737C26.7798 11.3428 26.3989 12.0752 25.6958 12.6026C25.2368 12.9541 24.5142 13.2276 24.5142 14.1944L24.5142 19.2432C24.5142 20.5752 23.7483 21.4026 22.4661 21.4636L20.0806 19.0792L20.0806 16.0108C20.0806 15.5225 19.7974 15.2686 19.3481 15.2686L19.2505 15.2686L19.2505 18.2495ZM16.5649 6.25491L16.5649 12.1729C16.5649 12.7686 16.1157 13.1592 15.4712 13.1592L14.1579 13.1592L8.13721 7.14131L8.13721 6.25491C8.13721 5.6592 8.57666 5.24905 9.22119 5.24905L15.4712 5.24905C16.1157 5.24905 16.5649 5.6592 16.5649 6.25491ZM8.68426 13.0505C8.47144 12.953 8.31037 12.7937 8.22026 12.5871Z" fill="var(--color-secondary)"/>
  <path d="M22.5024 25.249C22.8052 25.542 23.2837 25.542 23.5669 25.249C23.8599 24.9463 23.8696 24.4678 23.5669 24.1748L2.42432 3.05178C2.13135 2.75881 1.65283 2.75881 1.3501 3.05178C1.06689 3.33499 1.06689 3.83303 1.3501 4.11624Z" fill="var(--color-primary)"/>
 </g>
</svg>
