<svg version="1.1" xmlns="http://www.w3.org/2000/svg" xmlns:xlink="http://www.w3.org/1999/xlink" viewBox="0 0 25.166 21.8457">
 <g>
  <rect height="21.8457" opacity="0" width="25.166" x="0" y="0"/>
  <path d="M12.4023 21.8262C19.3652 21.8262 24.8047 16.3965 24.8047 9.83398C24.8047 6.36719 23.3008 3.25195 21.1426 1.21094C20.2441 0.371094 19.2969 0 17.9492 0L6.85547 0C5.50781 0 4.56055 0.371094 3.66211 1.21094C1.50391 3.25195 0 6.36719 0 9.83398C0 16.3965 5.43945 21.8262 12.4023 21.8262ZM12.4023 20.1562C6.12305 20.1562 1.66992 15.7031 1.66992 9.83398C1.66992 6.74805 2.86133 4.25781 4.82422 2.42188C5.38086 1.9043 5.99609 1.66992 6.85547 1.66992L17.9492 1.66992C18.7988 1.66992 19.4238 1.9043 19.9805 2.42188C21.9434 4.25781 23.1348 6.74805 23.1348 9.83398C23.1348 15.7031 18.6816 20.1562 12.4023 20.1562Z" fill="var(--color-primary)"/>
  <path d="M9.19922 6.97266C10.2051 6.97266 11.0254 6.14258 11.0254 5.14648C11.0254 4.13086 10.2051 3.31055 9.19922 3.31055C8.18359 3.31055 7.36328 4.13086 7.36328 5.14648C7.36328 6.14258 8.18359 6.97266 9.19922 6.97266ZM15.6055 6.97266C16.6309 6.97266 17.4414 6.14258 17.4414 5.14648C17.4414 4.13086 16.6309 3.31055 15.6055 3.31055C14.5996 3.31055 13.7793 4.13086 13.7793 5.14648C13.7793 6.14258 14.5996 6.97266 15.6055 6.97266ZM5.97656 12.373C7.37305 12.373 8.51562 11.2305 8.51562 9.83398C8.51562 8.42773 7.37305 7.29492 5.97656 7.29492C4.58984 7.29492 3.4375 8.42773 3.4375 9.83398C3.4375 11.2305 4.58984 12.373 5.97656 12.373ZM12.4023 12.373C13.7988 12.373 14.9414 11.2305 14.9414 9.83398C14.9414 8.42773 13.7988 7.29492 12.4023 7.29492C11.0059 7.29492 9.86328 8.42773 9.86328 9.83398C9.86328 11.2305 11.0059 12.373 12.4023 12.373ZM18.8281 12.373C20.2246 12.373 21.3672 11.2305 21.3672 9.83398C21.3672 8.42773 20.2246 7.29492 18.8281 7.29492C17.4316 7.29492 16.2891 8.42773 16.2891 9.83398C16.2891 11.2305 17.4316 12.373 18.8281 12.373ZM9.19922 17.8223C10.5957 17.8223 11.7383 16.6895 11.7383 15.2832C11.7383 13.8867 10.5957 12.7441 9.19922 12.7441C7.79297 12.7441 6.66016 13.8867 6.66016 15.2832C6.66016 16.6895 7.79297 17.8223 9.19922 17.8223ZM15.6055 17.8223C17.0117 17.8223 18.1445 16.6895 18.1445 15.2832C18.1445 13.8867 17.0117 12.7441 15.6055 12.7441C14.209 12.7441 13.0762 13.8867 13.0762 15.2832C13.0762 16.6895 14.209 17.8223 15.6055 17.8223Z" fill="var(--color-primary)"/>
 </g>
</svg>
