<svg version="1.1" xmlns="http://www.w3.org/2000/svg" xmlns:xlink="http://www.w3.org/1999/xlink" viewBox="0 0 23.418 16.6895">
 <g>
  <rect height="16.6895" opacity="0" width="23.418" x="0" y="0"/>
  <path d="M0 12.2852C0 14.7656 1.92383 16.6895 4.63867 16.6895L18.418 16.6895C21.1328 16.6895 23.0566 14.7656 23.0566 12.2852C23.0566 11.5527 22.8418 10.8984 22.5879 10.2832L19.2969 2.38281C18.6523 0.820312 17.3242 0.0195312 15.5762 0.0195312L7.48047 0.0195312C5.73242 0.0195312 4.4043 0.820312 3.75977 2.38281L0.458984 10.2832C0.214844 10.8887 0 11.5527 0 12.2852ZM1.57227 12.2852C1.57227 10.6738 2.79297 9.45312 4.63867 9.45312L18.418 9.45312C20.2637 9.45312 21.4844 10.6738 21.4844 12.2852C21.4844 14.0918 20.2637 15.1172 18.418 15.1172L4.63867 15.1172C2.79297 15.1172 1.57227 13.8965 1.57227 12.2852ZM3.1543 8.13477L5.2832 2.7832C5.6543 1.85547 6.45508 1.38672 7.55859 1.38672L15.498 1.38672C16.6016 1.38672 17.4023 1.85547 17.7734 2.7832L19.9023 8.13477C19.4434 7.96875 18.9551 7.88086 18.418 7.88086L4.63867 7.88086C4.10156 7.88086 3.60352 7.96875 3.1543 8.13477ZM17.1777 12.2852C17.1777 12.9688 17.7441 13.4961 18.4082 13.4961C19.0625 13.4961 19.6191 12.959 19.6191 12.2852C19.6191 11.6309 19.0625 11.0742 18.4082 11.0742C17.7441 11.0742 17.1777 11.6309 17.1777 12.2852Z" fill="var(--color-primary)"/>
 </g>
</svg>
