<svg version="1.1" xmlns="http://www.w3.org/2000/svg" xmlns:xlink="http://www.w3.org/1999/xlink" viewBox="0 0 15.9473 22.7441">
 <g>
  <rect height="22.7441" opacity="0" width="15.9473" x="0" y="0"/>
  <path d="M15.5859 7.79297C15.5859 11.8359 12.5195 15.1465 8.58398 15.5469L8.58398 20.8496L11.2598 20.8496C12.1875 20.8496 12.7832 21.3672 12.7832 22.0996C12.7832 22.4805 12.5488 22.7441 12.1875 22.7441L3.4082 22.7441C3.03711 22.7441 2.80273 22.4805 2.80273 22.0996C2.80273 21.3672 3.39844 20.8496 4.32617 20.8496L7.01172 20.8496L7.01172 15.5469C3.07617 15.1562 0 11.8359 0 7.79297C0 3.49609 3.48633 0 7.79297 0C12.0996 0 15.5859 3.49609 15.5859 7.79297ZM2.87109 5.30273C2.87109 6.45508 3.82812 7.06055 5.54688 7.70508C5.53711 7.89062 5.55664 8.03711 5.57617 8.18359L3.87695 8.18359C2.99805 8.18359 2.5 8.63281 2.5 9.50195C2.5 11.1035 3.94531 12.7148 5.30273 12.7148C6.45508 12.7148 7.06055 11.7578 7.70508 10.0488C7.89062 10.0488 8.03711 10.0391 8.17383 10.0098L8.17383 11.7188C8.17383 12.5879 8.63281 13.0859 9.50195 13.0859C11.1035 13.0859 12.7148 11.6406 12.7148 10.293C12.7148 9.13086 11.7578 8.53516 10.0391 7.89062C10.0488 7.69531 10.0391 7.54883 10.0098 7.41211L11.7188 7.41211C12.5879 7.41211 13.0859 6.95312 13.0859 6.09375C13.0859 4.48242 11.6406 2.88086 10.2832 2.88086C9.13086 2.88086 8.52539 3.82812 7.89062 5.54688C7.69531 5.53711 7.54883 5.55664 7.41211 5.57617L7.41211 3.87695C7.41211 2.99805 6.95312 2.5 6.09375 2.5C4.48242 2.5 2.87109 3.95508 2.87109 5.30273ZM8.88672 7.79297C8.88672 8.38867 8.39844 8.87695 7.80273 8.87695C7.20703 8.87695 6.71875 8.38867 6.71875 7.79297C6.71875 7.19727 7.20703 6.70898 7.80273 6.70898C8.39844 6.70898 8.88672 7.19727 8.88672 7.79297Z" fill="var(--color-primary)"/>
 </g>
</svg>
