<svg version="1.1" xmlns="http://www.w3.org/2000/svg" xmlns:xlink="http://www.w3.org/1999/xlink" width="22.085" height="21.7141" viewBox="0 0 22.085 21.7141">
 <g>
  <rect height="21.7141" opacity="0" width="22.085" x="0" y="0"/>
  <path d="M13.0591 15.7515L13.0591 18.5768C13.0591 19.5436 13.3521 19.8561 14.2505 19.8561C15.0191 19.8593 15.8178 19.6245 16.5402 19.2345L17.6336 20.3286C16.6056 20.9663 15.4192 21.36 14.2505 21.36C12.5122 21.36 11.5552 20.3736 11.5552 18.5768L11.5552 14.2468ZM2.63056 5.31734C2.57039 5.52518 2.5415 5.7337 2.5415 5.94004C2.5415 7.40898 3.93161 8.30924 6.53643 9.22533L11.2409 13.9324C9.91703 18.2144 8.50067 20.6568 5.93018 20.6568C3.1665 20.6568 0.344238 17.3951 0.344238 14.2603C0.344238 12.5221 1.33057 11.5553 3.12744 11.5553L8.31299 11.5553L8.31299 11.4186C3.68408 10.0416 1.04736 8.60605 1.04736 5.94004C1.04736 5.34112 1.20054 4.73946 1.47977 4.16592ZM3.12744 13.0494C2.16064 13.0494 1.83838 13.3521 1.83838 14.2603C1.83838 16.5748 3.97705 19.1529 5.93018 19.1529C7.75635 19.1529 8.70361 17.0045 9.89502 13.0494ZM21.3501 7.44394C21.3501 9.18222 20.3638 10.1393 18.5669 10.1393L13.3521 10.1393L13.3521 10.2857C17.981 11.6529 20.647 13.0885 20.647 15.7643C20.647 16.3652 20.4927 16.9694 20.2118 17.5453L19.0619 16.3949C19.1232 16.1844 19.1528 15.9732 19.1528 15.7643C19.1528 14.3005 17.764 13.4012 15.1528 12.4836L10.4513 7.77952C11.7703 3.48539 13.196 1.04746 15.7642 1.04746C18.5278 1.04746 21.3501 4.31894 21.3501 7.44394ZM11.7993 8.64511L18.5669 8.64511C19.5337 8.64511 19.856 8.35215 19.856 7.44394C19.856 5.13926 17.7075 2.5416 15.7642 2.5416C13.938 2.5416 12.9907 4.69004 11.7993 8.64511ZM10.1392 3.1373L10.1392 7.46724L8.64502 5.97228L8.64502 3.1373C8.64502 2.17051 8.34229 1.83847 7.44385 1.83847C6.67235 1.83847 5.87046 2.0772 5.146 2.47136L4.05723 1.38199C5.08609 0.743436 6.27381 0.347978 7.44385 0.344333C9.17236 0.344333 10.1392 1.34043 10.1392 3.1373Z" fill="var(--color-secondary)"/>
  <path d="M19.2798 20.3541C19.5728 20.6471 20.0513 20.6373 20.3442 20.3443C20.6274 20.0514 20.6372 19.5728 20.3442 19.2799L2.42432 1.36972C2.13135 1.07676 1.65283 1.06699 1.3501 1.36972C1.06689 1.65293 1.06689 2.14121 1.3501 2.43418Z" fill="var(--color-primary)"/>
 </g>
</svg>
