<svg version="1.1" xmlns="http://www.w3.org/2000/svg" xmlns:xlink="http://www.w3.org/1999/xlink" viewBox="0 0 20.1367 22.7441">
 <g>
  <rect height="22.7441" opacity="0" width="20.1367" x="0" y="0"/>
  <path d="M19.7754 9.89258C19.7754 15.0977 15.7715 19.3457 10.6738 19.7461L10.6738 20.8496L14.1504 20.8496C15.0781 20.8496 15.6738 21.3672 15.6738 22.0996C15.6738 22.4805 15.4395 22.7441 15.0684 22.7441L4.70703 22.7441C4.3457 22.7441 4.11133 22.4805 4.11133 22.0996C4.11133 21.3672 4.70703 20.8496 5.63477 20.8496L9.10156 20.8496L9.10156 19.7461C4.00391 19.3555 0 15.0977 0 9.89258C0 4.42383 4.42383 0 9.89258 0C15.3516 0 19.7754 4.43359 19.7754 9.89258ZM3.53516 6.67969C3.53516 8.16406 4.78516 8.95508 7.03125 9.80469C7.03125 10.0195 7.04102 10.2051 7.07031 10.4004L4.84375 10.4004C3.68164 10.4004 3.05664 10.9668 3.05664 12.1094C3.05664 14.1602 4.92188 16.2402 6.66992 16.2402C8.16406 16.2402 8.94531 14.9902 9.80469 12.7441C10.0195 12.7441 10.2051 12.7344 10.3906 12.7051L10.3906 14.9316C10.3906 16.0938 10.9668 16.7188 12.0996 16.7188C14.1602 16.7188 16.2402 14.8535 16.2402 13.1055C16.2402 11.6113 14.9805 10.8203 12.7441 9.9707C12.7441 9.75586 12.7344 9.56055 12.7051 9.38477L14.9316 9.38477C16.084 9.38477 16.709 8.80859 16.709 7.67578C16.709 5.61523 14.8535 3.53516 13.0957 3.53516C11.6016 3.53516 10.8203 4.79492 9.9707 7.04102C9.75586 7.03125 9.57031 7.04102 9.375 7.07031L9.375 4.84375C9.375 3.69141 8.79883 3.06641 7.66602 3.06641C5.61523 3.06641 3.53516 4.92188 3.53516 6.67969ZM11.3184 9.89258C11.3184 10.6738 10.6738 11.3184 9.89258 11.3184C9.10156 11.3184 8.45703 10.6738 8.45703 9.89258C8.45703 9.10156 9.10156 8.45703 9.89258 8.45703C10.6738 8.45703 11.3184 9.10156 11.3184 9.89258Z" fill="var(--color-primary)"/>
 </g>
</svg>
