<svg version="1.1" xmlns="http://www.w3.org/2000/svg" xmlns:xlink="http://www.w3.org/1999/xlink" viewBox="0 0 20.2832 19.9316">
 <g>
  <rect height="19.9316" opacity="0" width="20.2832" x="0" y="0"/>
  <path d="M19.9219 9.96094C19.9219 15.4492 15.459 19.9219 9.96094 19.9219C4.47266 19.9219 0 15.4492 0 9.96094C0 4.46289 4.47266 0 9.96094 0C15.459 0 19.9219 4.46289 19.9219 9.96094ZM8.94531 2.73438L8.94531 8.84766L7.61719 7.91992C7.51953 7.85156 7.43164 7.83203 7.27539 7.83203L4.30664 7.83203C3.98438 7.83203 3.73047 8.08594 3.73047 8.38867C3.73047 8.70117 3.98438 8.97461 4.30664 8.97461L7.06055 8.97461L8.7793 10.5176C8.84766 10.5762 8.80859 10.6738 8.70117 10.6738L6.76758 10.6738C6.60156 10.6738 6.42578 10.7227 6.31836 10.8398L4.26758 12.9004C4.0332 13.1348 4.0332 13.4766 4.26758 13.7109C4.48242 13.9355 4.83398 13.9355 5.05859 13.7109L6.92383 11.8555L8.94531 12.1973L8.94531 13.2324C8.94531 14.1504 9.58984 14.7266 10.4199 14.7266C10.7129 14.7266 10.9961 14.6289 11.2109 14.4824L11.2109 17.0801C11.2109 17.2754 11.377 17.4219 11.5527 17.4219C11.748 17.4219 11.9043 17.2754 11.9043 17.0801L11.9043 13.6914C11.9336 13.6719 11.9531 13.6621 11.9727 13.6426L13.6816 11.9238C13.7793 11.8262 13.8477 11.6797 13.8477 11.5332L13.8477 8.98438C13.8477 8.62305 13.7305 8.32031 13.5059 8.10547L10.1172 4.72656L10.1172 6.34766L11.582 7.80273C11.6992 7.91016 11.6895 8.01758 11.582 8.125L10.0781 9.63867L9.62891 9.33594L9.62891 2.73438C9.62891 2.53906 9.46289 2.39258 9.28711 2.39258C9.10156 2.39258 8.94531 2.54883 8.94531 2.73438ZM11.2109 12.7832C11.2012 12.793 11.1719 12.8223 11.1621 12.832C10.9473 13.0566 10.9375 13.3887 11.1328 13.5938C11.0059 13.8672 10.752 14.043 10.4199 14.043C9.96094 14.043 9.62891 13.7598 9.62891 13.2324L9.62891 12.2559C10.1953 12.2461 10.7422 12.0117 11.1621 11.5918L11.2109 11.543ZM12.7051 10.4297L12.7051 11.2988L11.9043 12.0996L11.9043 10.8594L12.4414 10.3223C12.5586 10.2148 12.7051 10.2637 12.7051 10.4297ZM12.959 6.2207C12.959 6.9043 13.4961 7.44141 14.1602 7.44141C14.8242 7.44141 15.3809 6.9043 15.3809 6.2207C15.3809 5.56641 14.8242 5.01953 14.1602 5.01953C13.4961 5.01953 12.959 5.56641 12.959 6.2207Z" fill="var(--color-primary)"/>
 </g>
</svg>
