<svg version="1.1" xmlns="http://www.w3.org/2000/svg" xmlns:xlink="http://www.w3.org/1999/xlink" viewBox="0 0 14.1793 26.3379">
 <g>
  <rect height="26.3379" opacity="0" width="14.1793" x="0" y="0"/>
  <path d="M10.8494 6.89453C12.0213 6.89453 12.9685 5.9375 12.9685 4.74609C12.9685 3.58398 12.0213 2.62695 10.8494 2.62695C9.65799 2.62695 8.70096 3.58398 8.70096 4.74609C8.70096 5.9375 9.65799 6.89453 10.8494 6.89453ZM5.92752 26.2305C6.46463 26.2305 6.91385 25.791 6.91385 25.2441L6.91385 20.3711L9.19901 17.002C9.2869 16.8652 9.48221 16.9043 9.50174 17.0801L9.8533 20.0879C9.87283 20.2539 9.90213 20.3418 9.98026 20.5273L11.9041 25.5957C12.1385 26.2109 12.7049 26.3379 13.1638 26.1719C13.6228 25.9961 13.9744 25.5273 13.74 24.9023L11.8455 19.8633L11.8455 10.5664C11.8455 9.52148 11.406 8.4375 10.4002 8.02734L9.78494 7.77344C8.65213 7.30469 7.58768 7.44141 6.63065 8.125L4.31619 9.79492L1.7283 8.70117L6.86502 1.58203L8.57401 1.58203C9.01346 1.58203 9.37479 1.2207 9.37479 0.791016C9.37479 0.341797 9.01346 0 8.57401 0L6.95291 0C6.77713 0 6.60135 0.078125 6.49393 0.224609L0.204865 8.93555C-0.136932 9.4043-0.0588072 10.0879 0.497833 10.3223L4.05252 11.8457C4.20877 11.9043 4.31619 11.9141 4.5408 11.9141L6.89432 11.9141C7.26541 11.9141 7.39236 12.1582 7.39236 12.4316L7.39236 15.1367L5.03885 19.5996C4.95096 19.7656 4.93143 19.8926 4.93143 20.0781L4.93143 25.2441C4.93143 25.791 5.37088 26.2305 5.92752 26.2305Z" fill="var(--color-primary)"/>
 </g>
</svg>
