<svg version="1.1" xmlns="http://www.w3.org/2000/svg" xmlns:xlink="http://www.w3.org/1999/xlink" width="13.5228" height="21.9824" viewBox="0 0 13.5228 21.9824">
 <g>
  <rect height="21.9824" opacity="0" width="13.5228" x="0" y="0"/>
  <path d="M1.63445 21.0742L4.5739 17.5781C4.8571 17.2363 4.90593 17.1582 5.02312 16.7969L5.23796 16.1328L3.6657 14.1602L3.18718 16.3672L0.286791 19.8047C-0.631178 20.9082 0.882494 21.9824 1.63445 21.0742ZM8.78288 20.7812C9.38835 22.002 11.1852 21.25 10.5309 19.9219L8.53874 15.8887C8.38249 15.5859 8.17742 15.2539 7.99187 14.9902L6.7321 13.2031L6.81999 12.9395C7.15203 11.9238 7.27898 11.3184 7.3571 10.3125L7.55242 7.49023C7.65007 6.15234 6.85906 5.13672 5.4821 5.13672C4.45671 5.13672 3.75359 5.6543 2.80632 6.58203L1.31218 8.05664C0.8239 8.53516 0.66765 8.92578 0.618822 9.56055L0.443041 11.8652C0.394213 12.4512 0.716478 12.8613 1.25359 12.8809C1.80046 12.9199 2.13249 12.5977 2.18132 11.9727L2.40593 9.44336L3.11882 8.79883C3.38249 8.56445 3.71453 8.7207 3.70476 8.98438L3.54851 11.123C3.46062 12.207 3.71453 12.7246 4.45671 13.6523L6.43913 16.1328C6.63445 16.3867 6.65398 16.4844 6.74187 16.6406ZM12.1813 8.94531L9.92546 8.94531L8.50945 7.37305L8.34343 9.72656L8.90984 10.293C9.22234 10.6055 9.49578 10.7031 10.0817 10.7031L12.1813 10.7031C12.7673 10.7031 13.1579 10.3711 13.1579 9.82422C13.1579 9.29688 12.7575 8.94531 12.1813 8.94531ZM6.57585 4.25781C7.74773 4.25781 8.69499 3.30078 8.69499 2.12891C8.69499 0.947266 7.74773 0 6.57585 0C5.39421 0 4.44695 0.947266 4.44695 2.12891C4.44695 3.30078 5.39421 4.25781 6.57585 4.25781Z" fill="var(--color-primary)"/>
 </g>
</svg>
