<svg version="1.1" xmlns="http://www.w3.org/2000/svg" xmlns:xlink="http://www.w3.org/1999/xlink" viewBox="0 0 20.2832 19.9316">
 <g>
  <rect height="19.9316" opacity="0" width="20.2832" x="0" y="0"/>
  <path d="M19.9219 9.96094C19.9219 15.4492 15.459 19.9219 9.96094 19.9219C4.47266 19.9219 0 15.4492 0 9.96094C0 4.46289 4.47266 0 9.96094 0C15.459 0 19.9219 4.46289 19.9219 9.96094ZM6.8457 6.25C6.68945 6.25 6.5332 6.29883 6.43555 6.41602L4.73633 8.11523C4.51172 8.33984 4.52148 8.70117 4.73633 8.92578C4.96094 9.14062 5.32227 9.14062 5.54688 8.92578L7.08008 7.38281L8.07617 7.38281C8.18359 7.38281 8.23242 7.49023 8.16406 7.54883L6.62109 9.07227C5.87891 9.81445 6.26953 11.084 7.44141 11.084L10.1367 11.084L9.6875 13.5547C9.54102 14.3066 10.6738 14.4824 10.8105 13.7305L11.3867 10.6055C11.4355 10.3125 11.2402 10 10.9082 9.95117L9.02344 9.67773L10.2051 8.52539C10.3125 8.41797 10.459 8.4082 10.5859 8.52539L13.4668 11.4062C13.6816 11.6309 14.043 11.6309 14.2676 11.4062C14.4824 11.1719 14.4922 10.8301 14.2676 10.6055L10.3223 6.66016C10.0684 6.40625 9.7168 6.25 9.32617 6.25ZM6.31836 13.0762L4.41406 13.0762C4.0918 13.0762 3.83789 13.3301 3.83789 13.6328C3.83789 13.9453 4.0918 14.1992 4.41406 14.1992L6.8457 14.1992C7.12891 14.1992 7.34375 13.9844 7.40234 13.7012L7.80273 11.5625L7.44141 11.5625C7.05078 11.5625 6.71875 11.4551 6.46484 11.2891ZM14.3945 11.7969C14.248 11.7969 14.1406 11.9141 14.1406 12.0605C14.1406 12.207 14.248 12.3242 14.3945 12.3242L14.9902 12.3242C15.1465 12.3242 15.2832 12.4414 15.2832 12.6172L15.2832 12.8125L14.1113 12.8125C13.7207 12.8125 13.418 13.125 13.418 13.5059C13.418 13.8867 13.7207 14.1992 14.1113 14.1992L15.8105 14.1992C16.1914 14.1992 16.5039 13.8867 16.5039 13.5059C16.5039 13.125 16.1914 12.8125 15.8105 12.8125L15.791 12.8125L15.791 12.6172C15.791 12.1582 15.4297 11.7969 14.9902 11.7969ZM10.4492 5.47852C10.4492 6.14258 10.9961 6.68945 11.6699 6.68945C12.334 6.68945 12.8711 6.14258 12.8711 5.47852C12.8711 4.81445 12.334 4.27734 11.6699 4.27734C10.9961 4.27734 10.4492 4.81445 10.4492 5.47852Z" fill="var(--color-primary)"/>
 </g>
</svg>
