<svg version="1.1" xmlns="http://www.w3.org/2000/svg" xmlns:xlink="http://www.w3.org/1999/xlink" viewBox="0 0 20.2832 19.9316">
 <g>
  <rect height="19.9316" opacity="0" width="20.2832" x="0" y="0"/>
  <path d="M9.96094 19.9219C15.459 19.9219 19.9219 15.459 19.9219 9.96094C19.9219 4.46289 15.459 0 9.96094 0C4.46289 0 0 4.46289 0 9.96094C0 15.459 4.46289 19.9219 9.96094 19.9219ZM9.96094 18.2617C5.37109 18.2617 1.66016 14.5508 1.66016 9.96094C1.66016 5.37109 5.37109 1.66016 9.96094 1.66016C14.5508 1.66016 18.2617 5.37109 18.2617 9.96094C18.2617 14.5508 14.5508 18.2617 9.96094 18.2617Z" fill="var(--color-primary)"/>
  <path d="M11.8848 6.61133C12.5293 6.61133 13.0566 6.09375 13.0566 5.43945C13.0566 4.78516 12.5293 4.25781 11.8848 4.25781C11.2207 4.25781 10.7031 4.78516 10.7031 5.43945C10.7031 6.09375 11.2207 6.61133 11.8848 6.61133ZM7.65625 13.6816C7.91992 13.8281 8.28125 13.75 8.44727 13.4961L9.76562 11.377L11.2109 11.4453L10.3027 12.8906C10.1367 13.1543 10.2148 13.5254 10.4883 13.6816C10.7617 13.8281 11.084 13.7598 11.2598 13.4961L12.6562 11.2598C12.8906 10.8887 12.6953 10.4297 12.1777 10.3613L9.82422 10.1074C9.59961 10.0781 9.51172 9.84375 9.62891 9.66797L10.5957 8.19336C10.6641 8.10547 10.791 8.08594 10.8691 8.13477L14.4531 10.2832C14.707 10.4395 15.0781 10.3613 15.2246 10.1074C15.3809 9.81445 15.293 9.48242 15.0293 9.31641L7.96875 5.07812C7.87109 5.00977 7.7832 5.00977 7.68555 5.00977L5.41992 5.00977C5.10742 5.00977 4.84375 5.25391 4.84375 5.55664C4.84375 5.86914 5.10742 6.13281 5.41992 6.13281L7.51953 6.13281L8.50586 6.71875C8.61328 6.77734 8.64258 6.9043 8.58398 7.01172L7.35352 8.84766C6.68945 9.83398 7.23633 11.1523 8.4668 11.2988L7.4707 12.8906C7.31445 13.1543 7.38281 13.5156 7.65625 13.6816ZM6.21094 14.9805L13.6719 14.9805C14.2773 14.9805 14.7852 14.8633 15.1758 14.5215C15.3516 14.3652 15.3418 14.1699 15.2246 14.043C15.1367 13.9062 14.9414 13.8574 14.7461 13.9941C14.4727 14.2188 14.1699 14.3164 13.6719 14.3164L6.21094 14.3164C5.71289 14.3164 5.41992 14.209 5.14648 13.9941C4.96094 13.877 4.78516 13.9062 4.66797 14.0137C4.55078 14.1406 4.52148 14.3652 4.7168 14.5215C5.10742 14.8633 5.61523 14.9805 6.21094 14.9805Z" fill="var(--color-primary)"/>
 </g>
</svg>
