<svg version="1.1" xmlns="http://www.w3.org/2000/svg" xmlns:xlink="http://www.w3.org/1999/xlink" viewBox="0 0 20.2832 19.9316">
 <g>
  <rect height="19.9316" opacity="0" width="20.2832" x="0" y="0"/>
  <path d="M19.9219 9.96094C19.9219 15.4492 15.459 19.9219 9.96094 19.9219C4.47266 19.9219 0 15.4492 0 9.96094C0 4.46289 4.47266 0 9.96094 0C15.459 0 19.9219 4.46289 19.9219 9.96094ZM14.8633 14.1797L4.4043 14.834C4.23828 14.8535 4.12109 14.9707 4.12109 15.1465C4.12109 15.293 4.23828 15.4297 4.4043 15.4297L14.9707 15.4297C15.3223 15.4297 15.5957 15.1562 15.5957 14.7949C15.5957 14.3848 15.2832 14.1602 14.8633 14.1797ZM7.65625 11.4551L6.09375 13.291C5.5957 13.8672 6.39648 14.4336 6.79688 13.9648L8.37891 12.0801C8.52539 11.9043 8.55469 11.8652 8.61328 11.6797L8.73047 11.3281L7.89062 10.293ZM7.45117 6.31836L6.66992 7.08984C6.41602 7.33398 6.33789 7.53906 6.30859 7.88086L6.21094 9.0918C6.19141 9.39453 6.35742 9.60938 6.64062 9.61914C6.91406 9.62891 7.09961 9.47266 7.11914 9.15039L7.23633 7.8125L7.61719 7.48047C7.74414 7.35352 7.93945 7.43164 7.92969 7.56836L7.83203 8.70117C7.79297 9.26758 7.92969 9.54102 8.32031 10.0293L9.36523 11.3379C9.44336 11.4453 9.47266 11.5137 9.51172 11.6016L10.4395 13.4668C10.752 14.1113 11.6895 13.7109 11.3574 13.0273L10.459 11.2012C10.3809 11.0449 10.2734 10.8789 10.1758 10.7324L9.52148 9.78516L9.56055 9.6582C9.7168 9.12109 9.80469 8.79883 9.84375 8.27148L9.94141 6.79688C9.99023 6.09375 9.58008 5.55664 8.84766 5.55664C8.31055 5.55664 7.94922 5.83008 7.45117 6.31836ZM16.7188 7.43164L14.1309 8.64258C13.9355 8.73047 13.877 8.93555 13.9551 9.11133C14.0234 9.27734 14.2383 9.35547 14.4238 9.26758L15.0488 8.97461L14.2188 13.7402L14.7656 13.7012C14.8438 13.7012 14.873 13.7012 14.9316 13.7012L15.8203 8.62305L17.0117 8.06641C17.1875 7.97852 17.2559 7.76367 17.1875 7.59766C17.1094 7.42188 16.8848 7.34375 16.7188 7.43164ZM10.3418 7.95898L10.6543 8.26172C10.8301 8.4375 10.9668 8.48633 11.2695 8.48633L12.373 8.48633C12.6758 8.48633 12.8906 8.30078 12.8906 8.00781C12.8906 7.73438 12.6758 7.54883 12.373 7.54883L11.1914 7.54883L10.4199 6.71875ZM8.31055 3.97461C8.31055 4.59961 8.80859 5.08789 9.42383 5.08789C10.0391 5.08789 10.5469 4.59961 10.5469 3.97461C10.5469 3.34961 10.0391 2.85156 9.42383 2.85156C8.80859 2.85156 8.31055 3.34961 8.31055 3.97461Z" fill="var(--color-primary)"/>
 </g>
</svg>
