<svg version="1.1" xmlns="http://www.w3.org/2000/svg" xmlns:xlink="http://www.w3.org/1999/xlink" viewBox="0 0 20.2832 19.9316">
 <g>
  <rect height="19.9316" opacity="0" width="20.2832" x="0" y="0"/>
  <path d="M9.96094 19.9219C15.459 19.9219 19.9219 15.459 19.9219 9.96094C19.9219 4.46289 15.459 0 9.96094 0C4.46289 0 0 4.46289 0 9.96094C0 15.459 4.46289 19.9219 9.96094 19.9219ZM9.96094 18.2617C5.37109 18.2617 1.66016 14.5508 1.66016 9.96094C1.66016 5.37109 5.37109 1.66016 9.96094 1.66016C14.5508 1.66016 18.2617 5.37109 18.2617 9.96094C18.2617 14.5508 14.5508 18.2617 9.96094 18.2617Z" fill="var(--color-primary)"/>
  <path d="M9.80469 12.9199C10.0879 12.9199 10.332 12.6758 10.332 12.3828L10.332 9.66797C10.332 9.54102 10.2832 9.41406 10.1855 9.30664L8.76953 7.73438C8.68164 7.63672 8.74023 7.48047 8.87695 7.48047L10.6152 7.48047C10.8203 7.48047 10.8887 7.63672 10.8887 7.7832L10.8887 9.13086C10.8887 9.41406 11.1328 9.66797 11.4258 9.66797L13.6035 9.66797C13.8965 9.66797 14.1309 9.41406 14.1309 9.13086C14.1309 8.82812 13.8965 8.58398 13.6035 8.58398L11.9727 8.58398L11.9727 6.67969C11.9727 6.07422 11.4844 5.5957 10.8887 5.5957L8.23242 5.5957C7.68555 5.5957 7.19727 5.92773 6.98242 6.42578C6.77734 6.94336 6.88477 7.51953 7.27539 7.91016L9.25781 9.90234L9.25781 12.3828C9.25781 12.6758 9.50195 12.9199 9.80469 12.9199ZM6.2207 14.7363C7.67578 14.7363 8.85742 13.5742 8.85742 12.1094C8.85742 10.6543 7.67578 9.48242 6.2207 9.48242C4.76562 9.48242 3.60352 10.6543 3.60352 12.1094C3.60352 13.5742 4.76562 14.7363 6.2207 14.7363ZM6.2207 14.0625C5.13672 14.0625 4.26758 13.2031 4.26758 12.1094C4.26758 11.0254 5.13672 10.1465 6.2207 10.1465C7.30469 10.1465 8.19336 11.0254 8.19336 12.1094C8.19336 13.2031 7.30469 14.0625 6.2207 14.0625ZM14.668 10.6934C15.0586 11.0449 15.3223 11.5625 15.3223 12.1387C15.3223 13.2227 14.4531 14.0918 13.3594 14.0918C12.2754 14.0918 11.3965 13.2227 11.3965 12.1387C11.3965 11.875 11.4453 11.6113 11.5527 11.3574C11.6602 11.1133 11.5527 10.9375 11.3867 10.8789C11.2305 10.8105 11.0449 10.8594 10.9668 11.0742C10.8105 11.4062 10.7324 11.7676 10.7324 12.1387C10.7324 13.6035 11.9043 14.7656 13.3594 14.7656C14.8242 14.7656 15.9961 13.6035 15.9961 12.1387C15.9961 11.3574 15.6348 10.6445 15.0879 10.1562C14.9121 10 14.707 10.0684 14.5996 10.1758C14.4824 10.3125 14.4629 10.498 14.668 10.6934ZM13.6914 7.05078C14.3457 7.05078 14.8633 6.51367 14.8633 5.86914C14.8633 5.21484 14.3457 4.6875 13.6914 4.6875C13.0371 4.6875 12.5098 5.21484 12.5098 5.86914C12.5098 6.51367 13.0371 7.05078 13.6914 7.05078Z" fill="var(--color-primary)"/>
 </g>
</svg>
