<svg version="1.1" xmlns="http://www.w3.org/2000/svg" xmlns:xlink="http://www.w3.org/1999/xlink" viewBox="0 0 25.5273 19.7949">
 <g>
  <rect height="19.7949" opacity="0" width="25.5273" x="0" y="0"/>
  <path d="M16.9629 4.28711C18.1445 4.25781 19.0723 3.27148 19.043 2.08984C19.0039 0.908203 18.0273-0.00976562 16.8457 0.0195312C15.6641 0.0585938 14.7461 1.02539 14.7754 2.20703C14.8047 3.38867 15.7812 4.31641 16.9629 4.28711ZM8.66211 5.82031L14.1016 10.8887C14.502 11.2598 15.127 11.2305 15.498 10.8398C15.8594 10.4492 15.8398 9.82422 15.4492 9.46289L13.5059 7.64648L14.375 7.20703C14.5508 7.10938 14.7656 7.1582 14.8926 7.27539L16.6992 8.95508L16.6992 12.9102C16.6992 13.4473 17.1387 13.877 17.6758 13.877C18.2129 13.877 18.6523 13.4473 18.6523 12.9102L18.6523 8.49609C18.6523 8.21289 18.5059 7.95898 18.2422 7.70508L14.0723 3.82812C13.2812 3.0957 12.0508 3.00781 11.0547 3.37891L8.94531 4.17969C8.33984 4.41406 8.01758 5.20508 8.66211 5.82031ZM8.0957 6.11328L7.57812 6.38672C5.87891 7.25586 5.51758 9.35547 7.1582 10.6445L10.8008 13.5254L8.59375 17.5488C8.33008 18.0176 8.51562 18.6035 8.98438 18.877C9.36523 19.0918 10 19.0137 10.3027 18.457L12.9102 13.7109C13.1152 13.3301 13.0566 12.8906 12.7539 12.5684L9.87305 9.46289L10.9375 8.88672L8.47656 6.5918C8.32031 6.44531 8.19336 6.2793 8.0957 6.11328ZM0.976562 15.1074L5.86914 15.1074C6.25977 15.1074 6.58203 14.8633 6.72852 14.5508L7.8125 12.373L6.57227 11.3965C6.32812 11.2012 6.11328 11.0059 5.94727 10.7715L5.15625 13.1543L0.976562 13.1543C0.439453 13.1543 0 13.5742 0 14.1309C0 14.668 0.439453 15.1074 0.976562 15.1074ZM23.5059 18.0664C24.502 18.0371 25.1953 17.3438 25.166 16.3867C25.1562 15.957 24.8535 15.4883 24.3652 15.5078C24.0527 15.5176 23.8281 15.7324 23.8379 16.0645L23.8477 16.3672C23.8574 16.7578 23.3984 16.9922 22.9883 16.6211L12.168 7.04102L11.4355 7.60742L22.0215 17.4707C22.4512 17.8711 22.9688 18.0762 23.5059 18.0664ZM18.6914 19.7949C19.4434 19.7949 20.0586 19.1992 20.0586 18.4473C20.0586 17.6953 19.4434 17.0801 18.6914 17.0801C17.9395 17.0801 17.3438 17.6953 17.3438 18.4473C17.3438 19.1992 17.9395 19.7949 18.6914 19.7949Z" fill="var(--color-primary)"/>
 </g>
</svg>
