<svg version="1.1" xmlns="http://www.w3.org/2000/svg" xmlns:xlink="http://www.w3.org/1999/xlink" viewBox="0 0 20.2832 19.9316">
 <g>
  <rect height="19.9316" opacity="0" width="20.2832" x="0" y="0"/>
  <path d="M19.9219 9.96094C19.9219 15.4492 15.459 19.9219 9.96094 19.9219C4.47266 19.9219 0 15.4492 0 9.96094C0 4.46289 4.47266 0 9.96094 0C15.459 0 19.9219 4.46289 19.9219 9.96094ZM8.00781 3.4375C7.53906 3.89648 7.30469 4.82422 7.16797 5.49805L6.34766 6.30859C6.08398 6.57227 6.14258 6.92383 6.37695 7.14844L8.01758 8.78906C8.11523 8.88672 8.25195 8.94531 8.4082 8.94531L9.52148 8.94531C9.56055 8.94531 9.58008 9.00391 9.54102 9.0332L8.37891 9.59961C7.40234 10.0879 7.16797 11.3867 8.17383 12.1191L10.2344 13.623L9.0332 16.0156C8.89648 16.2891 9.00391 16.6406 9.27734 16.7773C9.54102 16.8945 9.88281 16.8262 10.0293 16.5234L11.416 13.7598C11.5332 13.5352 11.5527 13.2617 11.2988 13.0078L9.63867 11.3672L11.7969 10.293C11.9043 10.2344 12.0117 10.2539 12.0996 10.332L15.0586 13.291C15.2832 13.5156 15.6445 13.4961 15.8398 13.291C16.0645 13.0664 16.0645 12.7148 15.8398 12.4902L11.4746 8.125C11.2793 7.92969 11.0742 7.82227 10.8105 7.82227L8.63281 7.82227L7.19727 6.35742L7.62695 5.9375C8.28125 5.80078 9.21875 5.55664 9.6582 5.09766C10.4883 4.28711 10.5078 3.65234 9.9707 3.125C9.44336 2.60742 8.80859 2.61719 8.00781 3.4375ZM6.86523 13.4375L4.46289 13.4375C4.16016 13.4375 3.90625 13.7012 3.90625 14.0039C3.90625 14.3262 4.16016 14.5801 4.46289 14.5801L7.28516 14.5801C7.51953 14.5801 7.71484 14.4043 7.8125 14.209L8.45703 12.9199L7.88086 12.5195C7.54883 12.2754 7.42188 12.1094 7.36328 11.9727ZM11.875 7.14844C11.875 7.82227 12.4219 8.36914 13.0957 8.36914C13.7695 8.36914 14.2969 7.82227 14.2969 7.14844C14.2969 6.47461 13.7695 5.9375 13.0957 5.9375C12.4219 5.9375 11.875 6.47461 11.875 7.14844ZM9.53125 3.58398C9.82422 3.85742 9.72656 4.13086 9.22852 4.6582C8.90625 4.96094 8.32031 5.10742 7.87109 5.24414C7.98828 4.76562 8.1543 4.20898 8.45703 3.88672C8.97461 3.37891 9.23828 3.30078 9.53125 3.58398Z" fill="var(--color-primary)"/>
 </g>
</svg>
