<svg version="1.1" xmlns="http://www.w3.org/2000/svg" xmlns:xlink="http://www.w3.org/1999/xlink" viewBox="0 0 26.1593 19.8145">
 <g>
  <rect height="19.8145" opacity="0" width="26.1593" x="0" y="0"/>
  <path d="M6.17046 5.30273C4.70562 5.30273 3.53374 4.08203 3.53374 2.66602C3.53374 1.19141 4.70562 0 6.17046 0C7.64507 0 8.82671 1.19141 8.82671 2.66602C8.82671 4.12109 7.64507 5.30273 6.17046 5.30273ZM21.9029 19.2773C21.3951 19.8047 20.5259 19.7656 19.9107 19.1211L15.7017 14.7852C15.565 14.6387 15.4673 14.5996 15.2525 14.6875L11.9712 15.9277C9.86187 16.7383 7.87945 16.0449 6.95171 14.3652L4.84234 10.5273C4.02203 9.0332 4.2857 7.49023 5.70171 6.72852C7.08843 5.97656 8.51421 6.54297 9.34429 8.07617L12.0884 13.0664L14.4127 12.2168C15.565 11.7969 16.5318 11.9336 17.4498 12.8906L21.815 17.4023C22.4205 18.0273 22.3619 18.8086 21.9029 19.2773Z" fill="var(--color-primary)"/>
  <path d="M21.2877 3.89648C21.2877 3.50586 20.9654 3.19336 20.5552 3.19336L16.7369 3.19336L16.7369 1.67969C16.7369 0.957031 16.0142 0.712891 15.5259 1.15234L12.9966 3.39844C12.6451 3.71094 12.6548 4.11133 12.9966 4.43359L15.5259 6.67969C16.0337 7.13867 16.7369 6.83594 16.7369 6.15234L16.7369 4.62891L20.5552 4.62891C20.9654 4.62891 21.2877 4.30664 21.2877 3.89648ZM23.1822 5.01953C22.7818 5.01953 22.4595 5.3418 22.4595 5.74219L22.4595 9.56055L20.9361 9.56055C20.2525 9.56055 19.9498 10.2637 20.4087 10.7715L22.6548 13.3105C22.9576 13.6523 23.3677 13.6621 23.6802 13.3105L25.9361 10.7715C26.3853 10.293 26.1314 9.58008 25.399 9.57031L23.8853 9.56055L23.8853 5.74219C23.8853 5.3418 23.5728 5.01953 23.1822 5.01953Z" fill="var(--color-primary)"/>
 </g>
</svg>
