<svg version="1.1" xmlns="http://www.w3.org/2000/svg" xmlns:xlink="http://www.w3.org/1999/xlink" viewBox="0 0 20.2832 19.9316">
 <g>
  <rect height="19.9316" opacity="0" width="20.2832" x="0" y="0"/>
  <path d="M9.96094 19.9219C15.459 19.9219 19.9219 15.459 19.9219 9.96094C19.9219 4.46289 15.459 0 9.96094 0C4.46289 0 0 4.46289 0 9.96094C0 15.459 4.46289 19.9219 9.96094 19.9219ZM9.96094 18.2617C5.37109 18.2617 1.66016 14.5508 1.66016 9.96094C1.66016 5.37109 5.37109 1.66016 9.96094 1.66016C14.5508 1.66016 18.2617 5.37109 18.2617 9.96094C18.2617 14.5508 14.5508 18.2617 9.96094 18.2617Z" fill="var(--color-primary)"/>
  <path d="M3.84766 12.0703L4.4043 12.0703C5.87891 12.0703 6.19141 11.1816 7.16797 11.1816C8.1543 11.1816 8.4668 12.0703 9.94141 12.0703C11.416 12.0703 11.7285 11.1816 12.7148 11.1816C13.6914 11.1816 14.0039 12.0703 15.4785 12.0703L16.0352 12.0703C16.2109 12.0703 16.3672 11.9238 16.3672 11.7383C16.3672 11.5625 16.2109 11.4062 16.0352 11.4062L15.4785 11.4062C14.4727 11.4062 14.1211 10.5176 12.7148 10.5176C11.3086 10.5176 10.957 11.4062 9.94141 11.4062C8.93555 11.4062 8.57422 10.5176 7.16797 10.5176C5.76172 10.5176 5.41016 11.4062 4.4043 11.4062L3.84766 11.4062C3.67188 11.4062 3.51562 11.5625 3.51562 11.7383C3.51562 11.9238 3.67188 12.0703 3.84766 12.0703ZM3.99414 13.5352C4.16992 13.5352 4.30664 13.3984 4.30664 13.2227C4.30664 13.0469 4.16992 12.9102 3.99414 12.9102C3.82812 12.9102 3.69141 13.0469 3.69141 13.2227C3.69141 13.3984 3.82812 13.5352 3.99414 13.5352ZM5.00977 13.3496C5.17578 13.3496 5.32227 13.2129 5.32227 13.0371C5.32227 12.8613 5.17578 12.7246 5.00977 12.7246C4.83398 12.7246 4.69727 12.8613 4.69727 13.0371C4.69727 13.2129 4.83398 13.3496 5.00977 13.3496ZM5.9668 12.9004C6.13281 12.9004 6.2793 12.7637 6.2793 12.5879C6.2793 12.4121 6.13281 12.2754 5.9668 12.2754C5.79102 12.2754 5.6543 12.4121 5.6543 12.5879C5.6543 12.7637 5.79102 12.9004 5.9668 12.9004ZM6.98242 12.666C7.1582 12.666 7.29492 12.5293 7.29492 12.3535C7.29492 12.1777 7.1582 12.041 6.98242 12.041C6.80664 12.041 6.66992 12.1777 6.66992 12.3535C6.66992 12.5293 6.80664 12.666 6.98242 12.666ZM7.99805 12.9004C8.17383 12.9004 8.31055 12.7637 8.31055 12.5879C8.31055 12.4121 8.17383 12.2754 7.99805 12.2754C7.82227 12.2754 7.68555 12.4121 7.68555 12.5879C7.68555 12.7637 7.82227 12.9004 7.99805 12.9004ZM8.94531 13.3496C9.12109 13.3496 9.25781 13.2129 9.25781 13.0371C9.25781 12.8613 9.12109 12.7246 8.94531 12.7246C8.7793 12.7246 8.64258 12.8613 8.64258 13.0371C8.64258 13.2129 8.7793 13.3496 8.94531 13.3496ZM15.9082 13.5352C16.0742 13.5352 16.2207 13.3984 16.2207 13.2227C16.2207 13.0469 16.0742 12.9102 15.9082 12.9102C15.7324 12.9102 15.5957 13.0469 15.5957 13.2227C15.5957 13.3984 15.7324 13.5352 15.9082 13.5352ZM14.9023 13.3496C15.0684 13.3496 15.2148 13.2129 15.2148 13.0371C15.2148 12.8613 15.0684 12.7246 14.9023 12.7246C14.7266 12.7246 14.5898 12.8613 14.5898 13.0371C14.5898 13.2129 14.7266 13.3496 14.9023 13.3496ZM13.9453 12.9004C14.1113 12.9004 14.248 12.7637 14.248 12.5879C14.248 12.4121 14.1113 12.2754 13.9453 12.2754C13.7695 12.2754 13.6328 12.4121 13.6328 12.5879C13.6328 12.7637 13.7695 12.9004 13.9453 12.9004ZM12.9199 12.666C13.0957 12.666 13.2324 12.5293 13.2324 12.3535C13.2324 12.1777 13.0957 12.041 12.9199 12.041C12.7539 12.041 12.6074 12.1777 12.6074 12.3535C12.6074 12.5293 12.7539 12.666 12.9199 12.666ZM11.9043 12.9004C12.0801 12.9004 12.2168 12.7637 12.2168 12.5879C12.2168 12.4121 12.0801 12.2754 11.9043 12.2754C11.7285 12.2754 11.5918 12.4121 11.5918 12.5879C11.5918 12.7637 11.7285 12.9004 11.9043 12.9004ZM10.957 13.3496C11.123 13.3496 11.2695 13.2129 11.2695 13.0371C11.2695 12.8613 11.123 12.7246 10.957 12.7246C10.7812 12.7246 10.6445 12.8613 10.6445 13.0371C10.6445 13.2129 10.7812 13.3496 10.957 13.3496ZM9.95117 13.5352C10.127 13.5352 10.2637 13.3984 10.2637 13.2227C10.2637 13.0469 10.127 12.9102 9.95117 12.9102C9.77539 12.9102 9.63867 13.0469 9.63867 13.2227C9.63867 13.3984 9.77539 13.5352 9.95117 13.5352ZM12.793 9.16016C13.4375 9.16016 13.9648 8.64258 13.9648 7.98828C13.9648 7.33398 13.4375 6.81641 12.793 6.81641C12.1289 6.81641 11.6113 7.33398 11.6113 7.98828C11.6113 8.64258 12.1289 9.16016 12.793 9.16016ZM8.18359 9.93164C8.7793 10.1855 9.13086 10.6152 9.94141 10.6152C10.8887 10.6152 11.1621 10.0293 12.002 9.81445L8.96484 6.66016C8.7207 6.40625 8.36914 6.37695 8.07617 6.58203L5.95703 8.08594C5.5957 8.33984 5.63477 8.7207 5.84961 8.95508C6.02539 9.15039 6.33789 9.22852 6.63086 9.01367L8.34961 7.80273L9.32617 8.79883C9.43359 8.90625 9.46289 9.08203 9.29688 9.19922Z" fill="var(--color-primary)"/>
 </g>
</svg>
