<svg version="1.1" xmlns="http://www.w3.org/2000/svg" xmlns:xlink="http://www.w3.org/1999/xlink" viewBox="0 0 20.2832 19.9316">
 <g>
  <rect height="19.9316" opacity="0" width="20.2832" x="0" y="0"/>
  <path d="M9.96094 19.9219C15.459 19.9219 19.9219 15.459 19.9219 9.96094C19.9219 4.46289 15.459 0 9.96094 0C4.46289 0 0 4.46289 0 9.96094C0 15.459 4.46289 19.9219 9.96094 19.9219ZM9.96094 18.2617C5.37109 18.2617 1.66016 14.5508 1.66016 9.96094C1.66016 5.37109 5.37109 1.66016 9.96094 1.66016C14.5508 1.66016 18.2617 5.37109 18.2617 9.96094C18.2617 14.5508 14.5508 18.2617 9.96094 18.2617Z" fill="var(--color-primary)"/>
  <path d="M9.92188 7.85156C10.5664 7.85156 11.0938 7.32422 11.0938 6.67969C11.0938 6.02539 10.5664 5.49805 9.92188 5.49805C9.25781 5.49805 8.74023 6.02539 8.74023 6.67969C8.74023 7.32422 9.25781 7.85156 9.92188 7.85156ZM4.30664 7.13867L8.08594 9.17969C8.21289 9.23828 8.29102 9.375 8.25195 9.52148L7.86133 10.9668C8.91602 11.1328 9.19922 11.7578 9.95117 11.7578C10.166 11.7578 10.332 11.6992 10.4883 11.6309L11.0156 9.66797C11.0645 9.47266 11.1328 9.36523 11.3281 9.26758L15.293 7.13867C15.5957 6.98242 15.7031 6.61133 15.5566 6.31836C15.3809 6.02539 15.0195 5.89844 14.7168 6.06445L10.7812 8.1543C10.1367 8.49609 9.53125 8.54492 8.75 8.125L4.87305 6.06445C4.58008 5.89844 4.20898 6.02539 4.05273 6.31836C3.89648 6.61133 4.00391 6.98242 4.30664 7.13867ZM9.95117 13.1934C11.4258 13.1934 11.7383 12.3047 12.7246 12.3047C13.7012 12.3047 14.0137 13.1934 15.4883 13.1934L15.8789 13.1934C16.0547 13.1934 16.2109 13.0371 16.2109 12.8613C16.2109 12.6855 16.0547 12.5293 15.8789 12.5293L15.4883 12.5293C14.4824 12.5293 14.1309 11.6309 12.7246 11.6309C11.3184 11.6309 10.9668 12.5293 9.95117 12.5293C8.94531 12.5293 8.58398 11.6309 7.17773 11.6309C5.77148 11.6309 5.41992 12.5293 4.41406 12.5293L4.05273 12.5293C3.86719 12.5293 3.71094 12.6855 3.71094 12.8613C3.71094 13.0371 3.86719 13.1934 4.05273 13.1934L4.41406 13.1934C5.88867 13.1934 6.20117 12.3047 7.17773 12.3047C8.16406 12.3047 8.47656 13.1934 9.95117 13.1934ZM4.0625 14.3848C4.26758 14.3848 4.41406 14.2285 4.41406 14.0332C4.41406 13.8379 4.26758 13.6816 4.0625 13.6816C3.86719 13.6816 3.71094 13.8379 3.71094 14.0332C3.71094 14.2285 3.86719 14.3848 4.0625 14.3848ZM5.01953 14.3848C5.21484 14.3848 5.36133 14.2285 5.36133 14.0332C5.36133 13.8379 5.21484 13.6816 5.01953 13.6816C4.81445 13.6816 4.66797 13.8379 4.66797 14.0332C4.66797 14.2285 4.81445 14.3848 5.01953 14.3848ZM5.97656 14.0723C6.17188 14.0723 6.31836 13.916 6.31836 13.7207C6.31836 13.5254 6.17188 13.3691 5.97656 13.3691C5.77148 13.3691 5.625 13.5254 5.625 13.7207C5.625 13.916 5.77148 14.0723 5.97656 14.0723ZM6.99219 13.8184C7.1875 13.8184 7.34375 13.6719 7.34375 13.4766C7.34375 13.2715 7.1875 13.125 6.99219 13.125C6.79688 13.125 6.64062 13.2715 6.64062 13.4766C6.64062 13.6719 6.79688 13.8184 6.99219 13.8184ZM8.00781 14.0723C8.20312 14.0723 8.35938 13.916 8.35938 13.7207C8.35938 13.5254 8.20312 13.3691 8.00781 13.3691C7.8125 13.3691 7.65625 13.5254 7.65625 13.7207C7.65625 13.916 7.8125 14.0723 8.00781 14.0723ZM8.95508 14.5117C9.16016 14.5117 9.30664 14.3555 9.30664 14.1602C9.30664 13.9648 9.16016 13.8086 8.95508 13.8086C8.75977 13.8086 8.61328 13.9648 8.61328 14.1602C8.61328 14.3555 8.75977 14.5117 8.95508 14.5117ZM9.95117 14.6973C10.1465 14.6973 10.3027 14.541 10.3027 14.3457C10.3027 14.1406 10.1465 13.9941 9.95117 13.9941C9.75586 13.9941 9.59961 14.1406 9.59961 14.3457C9.59961 14.541 9.75586 14.6973 9.95117 14.6973ZM10.957 14.5117C11.1523 14.5117 11.3086 14.3555 11.3086 14.1602C11.3086 13.9648 11.1523 13.8086 10.957 13.8086C10.7617 13.8086 10.6055 13.9648 10.6055 14.1602C10.6055 14.3555 10.7617 14.5117 10.957 14.5117ZM11.9043 14.0723C12.1094 14.0723 12.2559 13.916 12.2559 13.7207C12.2559 13.5254 12.1094 13.3691 11.9043 13.3691C11.709 13.3691 11.5625 13.5254 11.5625 13.7207C11.5625 13.916 11.709 14.0723 11.9043 14.0723ZM12.9395 13.8184C13.1348 13.8184 13.2812 13.6719 13.2812 13.4766C13.2812 13.2715 13.1348 13.125 12.9395 13.125C12.7344 13.125 12.5879 13.2715 12.5879 13.4766C12.5879 13.6719 12.7344 13.8184 12.9395 13.8184ZM13.9551 14.0723C14.1504 14.0723 14.3066 13.916 14.3066 13.7207C14.3066 13.5254 14.1504 13.3691 13.9551 13.3691C13.75 13.3691 13.6035 13.5254 13.6035 13.7207C13.6035 13.916 13.75 14.0723 13.9551 14.0723ZM14.9023 14.3848C15.0977 14.3848 15.2539 14.2285 15.2539 14.0332C15.2539 13.8379 15.0977 13.6816 14.9023 13.6816C14.707 13.6816 14.5508 13.8379 14.5508 14.0332C14.5508 14.2285 14.707 14.3848 14.9023 14.3848ZM15.8594 14.3848C16.0547 14.3848 16.2109 14.2285 16.2109 14.0332C16.2109 13.8379 16.0547 13.6816 15.8594 13.6816C15.6641 13.6816 15.5078 13.8379 15.5078 14.0332C15.5078 14.2285 15.6641 14.3848 15.8594 14.3848Z" fill="var(--color-primary)"/>
 </g>
</svg>
