<svg version="1.1" xmlns="http://www.w3.org/2000/svg" xmlns:xlink="http://www.w3.org/1999/xlink" viewBox="0 0 20.1562 22.4707">
 <g>
  <rect height="22.4707" opacity="0" width="20.1562" x="0" y="0"/>
  <path d="M15.6348 4.25781C16.8066 4.25781 17.7539 3.31055 17.7539 2.11914C17.7539 0.947266 16.8066 0 15.6348 0C14.4434 0 13.4961 0.947266 13.4961 2.11914C13.4961 3.31055 14.4434 4.25781 15.6348 4.25781ZM8.08594 12.4902L13.0566 16.2793L11.5137 21.0449C11.2891 21.7285 11.7188 22.2168 12.2363 22.3438C12.6953 22.4512 13.2324 22.2559 13.4375 21.6113L15.166 16.2695C15.293 15.8789 15.2246 15.459 14.9512 15.1953L11.6113 11.8555L15.4492 8.00781C15.6152 7.8418 15.8691 7.8418 16.0352 8.00781L17.3633 9.32617L15.5469 11.1426C15.1465 11.5527 15.1562 12.1875 15.5469 12.5781C15.918 12.9395 16.5723 12.9785 16.9727 12.5781L19.502 10.0488C19.9023 9.64844 19.8926 9.02344 19.502 8.62305L17.0605 6.16211C16.4746 5.57617 15.7715 5.2832 14.9316 5.2832L3.20312 5.2832C2.65625 5.2832 2.19727 5.73242 2.19727 6.28906C2.19727 6.8457 2.65625 7.30469 3.20312 7.30469L9.94141 7.30469C10.2832 7.30469 10.4395 7.65625 10.1953 7.90039L8.24219 9.85352C7.36328 10.7324 7.49023 12.041 8.08594 12.4902ZM7.79297 13.4473L7.30469 16.416L2.62695 16.416C2.05078 16.416 1.60156 16.8652 1.60156 17.4316C1.60156 17.9883 2.05078 18.4375 2.62695 18.4375L8.11523 18.4375C8.64258 18.4375 8.99414 18.1738 9.13086 17.7051L9.92188 15.0781ZM2.19727 10.6836C3.39844 10.6836 4.39453 9.69727 4.39453 8.48633C4.39453 7.28516 3.39844 6.28906 2.19727 6.28906C0.986328 6.28906 0 7.28516 0 8.48633C0 9.69727 0.986328 10.6836 2.19727 10.6836Z" fill="var(--color-primary)"/>
 </g>
</svg>
