<svg version="1.1" xmlns="http://www.w3.org/2000/svg" xmlns:xlink="http://www.w3.org/1999/xlink" viewBox="0 0 15.9739 24.2676">
 <g>
  <rect height="24.2676" opacity="0" width="15.9739" x="0" y="0"/>
  <path d="M5.78967 3.97461C6.90295 3.97461 7.77209 3.08594 7.77209 1.97266C7.77209 0.869141 6.90295 0 5.78967 0C4.67639 0 3.79748 0.869141 3.79748 1.97266C3.79748 3.08594 4.67639 3.97461 5.78967 3.97461ZM5.78967 2.88086C5.28186 2.88086 4.89123 2.48047 4.89123 1.97266C4.89123 1.48438 5.28186 1.09375 5.78967 1.09375C6.28772 1.09375 6.67834 1.48438 6.67834 1.97266C6.67834 2.48047 6.28772 2.88086 5.78967 2.88086ZM1.4049 7.08984C2.18615 5.3418 3.35803 4.33594 6.24865 4.33594L10.0963 4.33594L10.0963 2.86133L6.24865 2.86133C2.73303 2.86133 1.00451 4.375 0.0670127 6.48438C-0.147831 6.95312 0.174435 7.51953 0.740841 7.51953C1.03381 7.51953 1.29748 7.34375 1.4049 7.08984ZM8.71936 2.91016L8.71936 4.27734C8.71936 4.69727 9.03186 5.04883 9.46154 5.08789L14.6862 5.5957C15.2037 5.64453 15.6139 5.27344 15.6139 4.72656L15.6139 2.46094C15.6139 1.93359 15.2037 1.55273 14.6862 1.60156L9.46154 2.09961C9.03186 2.13867 8.71936 2.49023 8.71936 2.91016ZM5.24279 4.17969L5.24279 6.64062L6.97131 6.64062L6.97131 4.17969ZM3.87561 24.2676L8.34826 24.2676C9.67639 24.2676 10.6139 23.3301 10.6139 22.002L10.6139 10.6738C10.6139 7.99805 8.74865 6.12305 6.11193 6.12305C3.46545 6.12305 1.60022 7.99805 1.60022 10.6738L1.60022 22.002C1.60022 23.3301 2.53772 24.2676 3.87561 24.2676ZM4.07092 22.6953C3.56311 22.6953 3.17248 22.3145 3.17248 21.8066L3.17248 10.6738C3.17248 8.92578 4.39318 7.69531 6.11193 7.69531C7.83068 7.69531 9.04162 8.92578 9.04162 10.6738L9.04162 21.8066C9.04162 22.3145 8.66076 22.6953 8.15295 22.6953Z" fill="var(--color-primary)"/>
 </g>
</svg>
