<svg version="1.1" xmlns="http://www.w3.org/2000/svg" xmlns:xlink="http://www.w3.org/1999/xlink" width="15.4492" height="16.1426" viewBox="0 0 15.4492 16.1426">
 <g>
  <rect height="16.1426" opacity="0" width="15.4492" x="0" y="0"/>
  <path d="M14.2578 16.1426C14.7168 16.1426 15.0879 15.791 15.0879 15.332L15.0879 0.830078C15.0879 0.371094 14.7168 0.00976562 14.2578 0.00976562C13.7988 0.00976562 13.418 0.371094 13.418 0.830078L13.418 15.332C13.418 15.791 13.7988 16.1426 14.2578 16.1426ZM1.40625 15.752C1.80664 15.752 2.12891 15.625 2.5293 15.3906L12.4805 9.53125C13.1738 9.12109 13.4668 8.63281 13.4668 8.07617C13.4668 7.51953 13.1738 7.03125 12.4805 6.62109L2.5293 0.761719C2.12891 0.527344 1.80664 0.400391 1.40625 0.400391C0.634766 0.400391 0 0.986328 0 2.08008L0 14.0723C0 15.166 0.634766 15.752 1.40625 15.752ZM1.83594 13.9453C1.68945 13.9453 1.5625 13.8477 1.5625 13.6523L1.5625 2.5C1.5625 2.30469 1.68945 2.20703 1.83594 2.20703C1.89453 2.20703 1.97266 2.23633 2.07031 2.29492L11.3574 7.80273C11.4941 7.88086 11.5625 7.93945 11.5625 8.07617C11.5625 8.20312 11.4844 8.27148 11.3574 8.34961L2.07031 13.8574C1.97266 13.916 1.89453 13.9453 1.83594 13.9453Z" fill="var(--color-primary)"/>
 </g>
</svg>
