<svg version="1.1" xmlns="http://www.w3.org/2000/svg" xmlns:xlink="http://www.w3.org/1999/xlink" viewBox="0 0 28.5059 14.9316">
 <g>
  <rect height="14.9316" opacity="0" width="28.5059" x="0" y="0"/>
  <path d="M0 13.5645C0 14.4824 0.527344 14.9219 1.16211 14.9219C1.43555 14.9219 1.72852 14.834 2.01172 14.6777L12.2656 8.70117C13.0078 8.27148 13.291 7.94922 13.291 7.46094C13.291 6.97266 13.0078 6.65039 12.2656 6.2207L2.01172 0.244141C1.72852 0.078125 1.43555 0 1.16211 0C0.527344 0 0 0.429688 0 1.34766ZM1.57227 12.793L1.57227 2.12891C1.57227 2.01172 1.64062 1.93359 1.74805 1.93359C1.78711 1.93359 1.82617 1.94336 1.85547 1.97266L10.9766 7.31445C11.0449 7.35352 11.0742 7.40234 11.0742 7.46094C11.0742 7.50977 11.0449 7.56836 10.9766 7.60742L1.85547 12.9492C1.82617 12.9688 1.78711 12.9883 1.74805 12.9883C1.64062 12.9883 1.57227 12.9004 1.57227 12.793ZM13.2422 13.5645C13.2422 14.4824 13.7695 14.9219 14.3945 14.9219C14.6777 14.9219 14.9707 14.834 15.2539 14.6777L25.5078 8.70117C26.2402 8.27148 26.5234 7.94922 26.5234 7.46094C26.5234 6.97266 26.2402 6.65039 25.5078 6.2207L15.2539 0.244141C14.9707 0.078125 14.6777 0 14.3945 0C13.7695 0 13.2422 0.429688 13.2422 1.34766ZM14.8145 12.793L14.8145 2.12891C14.8145 2.01172 14.8828 1.93359 14.9805 1.93359C15.0293 1.93359 15.0586 1.94336 15.0977 1.97266L24.2188 7.31445C24.2871 7.35352 24.3164 7.40234 24.3164 7.46094C24.3164 7.50977 24.2871 7.56836 24.2188 7.60742L15.0977 12.9492C15.0586 12.9688 15.0293 12.9883 14.9805 12.9883C14.8828 12.9883 14.8145 12.9004 14.8145 12.793ZM27.3145 14.9219C27.7832 14.9219 28.1445 14.5605 28.1445 14.1016L28.1445 0.820312C28.1445 0.361328 27.7832 0 27.3145 0C26.8457 0 26.4746 0.361328 26.4746 0.820312L26.4746 14.1016C26.4746 14.5605 26.8457 14.9219 27.3145 14.9219Z" fill="var(--color-primary)"/>
 </g>
</svg>
