<svg version="1.1" xmlns="http://www.w3.org/2000/svg" xmlns:xlink="http://www.w3.org/1999/xlink" viewBox="0 0 20.2832 19.9512">
 <g>
  <rect height="19.9512" opacity="0" width="20.2832" x="0" y="0"/>
  <path d="M19.9219 9.99023C19.9219 15.4883 15.459 19.9512 9.96094 19.9512C4.47266 19.9512 0 15.4883 0 9.99023C0 4.50195 4.47266 0.0292969 9.96094 0.0292969C15.459 0.0292969 19.9219 4.50195 19.9219 9.99023ZM7.17773 4.23828C6.34766 4.23828 5.91797 4.6875 5.91797 5.51758L5.91797 14.6582L5.50781 14.6582C5.27344 14.6582 5.07812 14.8535 5.07812 15.0879C5.07812 15.332 5.27344 15.5078 5.50781 15.5078L12.9102 15.5078C13.1445 15.5078 13.3496 15.332 13.3496 15.0879C13.3496 14.8633 13.1445 14.6582 12.9102 14.6582L12.5293 14.6582L12.5293 9.0625C12.9785 9.32617 13.1641 9.7168 13.1641 10.1855C13.1641 10.9863 13.0469 11.9727 13.0469 12.8125C13.0469 13.7012 13.5938 14.2383 14.4434 14.2383C15.3711 14.2383 15.8984 13.6328 15.8984 12.5195C15.8984 11.25 15.6445 9.79492 15.1758 7.5L15.0586 6.94336C14.9707 6.46484 14.7949 6.05469 14.502 5.68359L13.9453 4.9707C13.6621 4.61914 13.125 5.01953 13.4277 5.38086L14.1406 6.2793C14.1797 6.32812 14.1895 6.40625 14.1406 6.48438L13.7305 7.26562C13.6133 7.49023 13.6328 7.63672 13.8184 7.83203L14.7559 8.83789C15.0684 10.2734 15.2539 11.5234 15.2539 12.5195C15.2539 13.2227 14.9609 13.6035 14.4434 13.6035C13.9844 13.6035 13.6914 13.3008 13.6914 12.8125C13.6914 12.0801 13.7988 11.0938 13.7988 10.1855C13.7988 9.3457 13.4277 8.70117 12.5293 8.33984L12.5293 5.51758C12.5293 4.6875 12.0801 4.23828 11.2402 4.23828ZM11.6895 5.625L11.6895 8.27148C11.6895 8.60352 11.4551 8.80859 11.0938 8.80859L7.34375 8.80859C6.96289 8.80859 6.75781 8.60352 6.75781 8.27148L6.75781 5.625C6.75781 5.2832 6.96289 5.07812 7.34375 5.07812L11.0938 5.07812C11.4551 5.07812 11.6895 5.2832 11.6895 5.625Z" fill="var(--color-primary)"/>
 </g>
</svg>
