<svg version="1.1" xmlns="http://www.w3.org/2000/svg" xmlns:xlink="http://www.w3.org/1999/xlink" viewBox="0 0 20.2832 19.9316">
 <g>
  <rect height="19.9316" opacity="0" width="20.2832" x="0" y="0"/>
  <path d="M9.96094 19.9219C15.459 19.9219 19.9219 15.459 19.9219 9.96094C19.9219 4.46289 15.459 0 9.96094 0C4.46289 0 0 4.46289 0 9.96094C0 15.459 4.46289 19.9219 9.96094 19.9219ZM9.96094 18.2617C5.37109 18.2617 1.66016 14.5508 1.66016 9.96094C1.66016 5.37109 5.37109 1.66016 9.96094 1.66016C14.5508 1.66016 18.2617 5.37109 18.2617 9.96094C18.2617 14.5508 14.5508 18.2617 9.96094 18.2617Z" fill="var(--color-primary)"/>
  <path d="M4.35547 10.8008C4.81445 10.8008 5.19531 10.4199 5.19531 9.96094C5.19531 9.50195 4.81445 9.12109 4.35547 9.12109C3.89648 9.12109 3.51562 9.50195 3.51562 9.96094C3.51562 10.4199 3.89648 10.8008 4.35547 10.8008ZM5.98633 6.875C6.44531 6.875 6.82617 6.49414 6.82617 6.03516C6.82617 5.56641 6.44531 5.19531 5.98633 5.19531C5.52734 5.19531 5.14648 5.56641 5.14648 6.03516C5.14648 6.49414 5.52734 6.875 5.98633 6.875ZM9.95117 5.19531C10.4102 5.19531 10.791 4.81445 10.791 4.35547C10.791 3.89648 10.4102 3.51562 9.95117 3.51562C9.49219 3.51562 9.11133 3.89648 9.11133 4.35547C9.11133 4.81445 9.49219 5.19531 9.95117 5.19531ZM13.916 6.875C14.375 6.875 14.7559 6.49414 14.7559 6.03516C14.7559 5.56641 14.375 5.19531 13.916 5.19531C13.457 5.19531 13.0762 5.56641 13.0762 6.03516C13.0762 6.49414 13.457 6.875 13.916 6.875ZM15.5664 10.8008C16.0254 10.8008 16.4062 10.4199 16.4062 9.96094C16.4062 9.50195 16.0254 9.12109 15.5664 9.12109C15.1074 9.12109 14.7266 9.50195 14.7266 9.96094C14.7266 10.4199 15.1074 10.8008 15.5664 10.8008ZM13.916 14.7266C14.375 14.7266 14.7559 14.3457 14.7559 13.8867C14.7559 13.4277 14.375 13.0469 13.916 13.0469C13.457 13.0469 13.0762 13.4277 13.0762 13.8867C13.0762 14.3457 13.457 14.7266 13.916 14.7266ZM11.4844 8.42773C10.8496 7.7832 9.92188 7.7832 9.28711 8.42773C9.16992 8.54492 8.98438 8.79883 8.86719 8.95508L5.58594 13.6914C5.41992 13.9258 5.46875 14.1602 5.60547 14.3066C5.75195 14.4434 5.98633 14.4922 6.2207 14.3262L10.957 11.0449C11.1133 10.9277 11.3672 10.7422 11.4844 10.625C12.1289 9.99023 12.1289 9.0625 11.4844 8.42773Z" fill="var(--color-primary)"/>
 </g>
</svg>
