<svg version="1.1" xmlns="http://www.w3.org/2000/svg" xmlns:xlink="http://www.w3.org/1999/xlink" viewBox="0 0 20.2832 19.9316">
 <g>
  <rect height="19.9316" opacity="0" width="20.2832" x="0" y="0"/>
  <path d="M19.9219 9.9707C19.9219 15.4688 15.459 19.9316 9.96094 19.9316C4.47266 19.9316 0 15.4688 0 9.9707C0 4.48242 4.47266 0.00976562 9.96094 0.00976562C15.459 0.00976562 19.9219 4.48242 19.9219 9.9707ZM10.6055 3.7793L10.332 4.32617C10.2148 4.31641 10.0879 4.31641 9.96094 4.31641C9.83398 4.31641 9.7168 4.31641 9.58984 4.32617L9.31641 3.7793C9.21875 3.59375 9.0332 3.51562 8.83789 3.54492C8.63281 3.58398 8.47656 3.7207 8.44727 3.93555L8.38867 4.54102C8.14453 4.60938 7.91016 4.69727 7.68555 4.79492L7.24609 4.375C7.08984 4.22852 6.875 4.21875 6.70898 4.31641C6.52344 4.43359 6.42578 4.60938 6.47461 4.81445L6.62109 5.41016C6.42578 5.55664 6.2207 5.71289 6.05469 5.87891L5.48828 5.64453C5.29297 5.56641 5.09766 5.61523 4.96094 5.77148C4.83398 5.92773 4.81445 6.15234 4.92188 6.31836L5.25391 6.82617C5.11719 7.03125 5 7.23633 4.88281 7.4707L4.27734 7.43164C4.07227 7.42188 3.89648 7.54883 3.83789 7.73438C3.75977 7.93945 3.81836 8.13477 3.97461 8.26172L4.47266 8.63281C4.41406 8.87695 4.375 9.10156 4.3457 9.35547L3.75977 9.54102C3.55469 9.59961 3.4375 9.76562 3.4375 9.9707C3.4375 10.1855 3.55469 10.3418 3.75977 10.4004L4.3457 10.5957C4.375 10.8398 4.41406 11.0742 4.47266 11.3184L3.97461 11.6895C3.80859 11.8262 3.75 12.002 3.81836 12.1973C3.90625 12.3828 4.07227 12.5195 4.27734 12.5098L4.88281 12.4707C5 12.6855 5.11719 12.9102 5.26367 13.1152L4.92188 13.623C4.79492 13.8184 4.82422 14.0039 4.94141 14.1602C5.09766 14.3164 5.2832 14.3848 5.48828 14.2969L6.04492 14.0527C6.2207 14.2188 6.41602 14.3945 6.62109 14.5312L6.47461 15.1367C6.42578 15.3516 6.51367 15.5176 6.68945 15.625C6.86523 15.7129 7.08984 15.7129 7.24609 15.5762L7.68555 15.1465C7.91016 15.2441 8.13477 15.3418 8.37891 15.4102L8.44727 16.0156C8.47656 16.2305 8.62305 16.3574 8.80859 16.4062C9.01367 16.4258 9.20898 16.3477 9.31641 16.1621L9.58984 15.6152C9.70703 15.625 9.83398 15.6348 9.96094 15.6348C10.0879 15.6348 10.2051 15.625 10.332 15.6152L10.6055 16.1621C10.7129 16.3477 10.8789 16.4355 11.0938 16.4062C11.2891 16.3672 11.4453 16.2207 11.4746 16.0059L11.543 15.4102C11.7871 15.3418 12.0117 15.2441 12.2461 15.1465L12.6855 15.5762C12.8418 15.7129 13.0371 15.7324 13.2129 15.625C13.3984 15.5176 13.4961 15.332 13.4473 15.127L13.3008 14.5312C13.5059 14.3945 13.7012 14.2285 13.8672 14.0625L14.4434 14.2969C14.6387 14.3848 14.8242 14.3359 14.9609 14.1699C15.0879 14.0234 15.1172 13.7891 15 13.623L14.668 13.1152C14.8047 12.9102 14.9219 12.7051 15.0391 12.4805L15.6445 12.5098C15.8496 12.5195 16.0156 12.4023 16.0938 12.207C16.1621 12.0117 16.1035 11.8164 15.9473 11.6797L15.459 11.3184C15.5078 11.0742 15.5566 10.8398 15.5762 10.5957L16.1719 10.4004C16.377 10.3418 16.4844 10.1855 16.4844 9.9707C16.4844 9.76562 16.3672 9.59961 16.1719 9.54102L15.5762 9.35547C15.5566 9.10156 15.5078 8.86719 15.459 8.63281L15.957 8.27148C16.1133 8.125 16.1523 7.94922 16.0938 7.75391C16.0254 7.54883 15.8594 7.43164 15.6445 7.42188L15.0391 7.48047C14.9219 7.25586 14.8047 7.04102 14.6777 6.82617L15.0098 6.32812C15.1074 6.13281 15.0977 5.94727 14.9707 5.78125C14.834 5.625 14.6387 5.56641 14.4336 5.63477L13.877 5.88867C13.7012 5.72266 13.5156 5.56641 13.3105 5.41016L13.457 4.82422C13.4863 4.60938 13.418 4.43359 13.2324 4.32617C13.0566 4.21875 12.8418 4.22852 12.6855 4.375L12.2559 4.79492C12.0215 4.70703 11.7871 4.59961 11.543 4.54102L11.4844 3.93555C11.4355 3.7207 11.3086 3.58398 11.1035 3.54492C10.8984 3.51562 10.7129 3.59375 10.6055 3.7793ZM9.96094 14.5117C9.28711 14.5117 8.65234 14.3652 8.07617 14.0918L9.62891 11.543C9.73633 11.5723 9.85352 11.582 9.96094 11.582C10.6738 11.582 11.2891 11.1133 11.5039 10.4688L14.4629 10.4688C14.2285 12.7344 12.2949 14.5117 9.96094 14.5117ZM8.75 8.91602C8.50586 9.19922 8.34961 9.57031 8.34961 9.9707C8.34961 10.3711 8.49609 10.752 8.75 11.0352L7.19727 13.5645C6.11328 12.7344 5.42969 11.4355 5.42969 9.9707C5.42969 8.48633 6.14258 7.16797 7.23633 6.34766ZM10.5469 9.9707C10.5469 10.293 10.2832 10.5566 9.96094 10.5566C9.63867 10.5566 9.375 10.293 9.375 9.9707C9.375 9.64844 9.63867 9.38477 9.96094 9.38477C10.2832 9.38477 10.5469 9.64844 10.5469 9.9707ZM14.4629 9.46289L11.4844 9.46289C11.2793 8.82812 10.6738 8.35938 9.96094 8.35938C9.84375 8.35938 9.72656 8.37891 9.62891 8.39844L8.11523 5.83008C8.68164 5.57617 9.30664 5.43945 9.96094 5.43945C12.2949 5.43945 14.209 7.19727 14.4629 9.46289Z" fill="var(--color-primary)"/>
 </g>
</svg>
