<svg version="1.1" xmlns="http://www.w3.org/2000/svg" xmlns:xlink="http://www.w3.org/1999/xlink" viewBox="0 0 20.2832 19.9316">
 <g>
  <rect height="19.9316" opacity="0" width="20.2832" x="0" y="0"/>
  <path d="M2.24609 14.2676L3.33984 12.1777C3.61328 11.6602 3.90625 11.3281 4.21875 11.3281C4.52148 11.3281 4.84375 11.6406 5.3125 12.2461C6.21094 13.4082 6.82617 14.0039 7.45117 14.0039C8.05664 14.0039 8.75977 13.1445 8.75977 12.5586C8.75977 12.1289 8.17383 11.7285 8.17383 11.5137C8.17383 11.416 8.26172 11.3574 8.42773 11.3574C9.85352 11.3574 11.0938 10.1855 11.0938 9.23828C11.0938 8.34961 10.127 7.67578 10.127 7.37305C10.127 7.31445 10.1758 7.26562 10.2344 7.26562C10.3223 7.26562 10.4395 7.36328 10.6641 7.53906C11.7578 8.4082 12.3047 7.91992 12.4023 7.37305C12.4414 7.1582 12.5586 6.94336 13.0957 6.66992C14.1113 6.14258 15.1465 5.22461 15.1465 4.46289C15.1465 3.47656 13.8184 3.05664 13.8184 2.82227C13.8184 2.67578 14.1406 2.53906 14.7559 2.36328L14.5117 1.40625C13.4863 1.66992 12.7148 2.16797 12.7148 2.76367C12.7148 3.54492 14.1602 3.99414 14.1602 4.46289C14.1602 4.91211 13.3301 5.41992 12.7148 5.75195C11.6699 6.34766 11.748 6.62109 11.6113 6.92383C11.3672 7.36328 10.8887 6.45508 10.0781 6.45508C9.58984 6.45508 9.21875 6.76758 9.21875 7.25586C9.21875 8.00781 10.1074 8.71094 10.1074 9.23828C10.1074 9.86328 9.38477 10.4688 8.14453 10.4688C7.46094 10.4688 7.08984 10.7715 7.08984 11.2988C7.08984 11.8164 7.73438 12.3047 7.73438 12.5586C7.73438 12.7441 7.58789 12.9297 7.4707 12.9297C7.26562 12.9297 6.81641 12.5586 6.09375 11.6406C5.45898 10.8105 4.87305 10.3418 4.27734 10.3418C3.4375 10.3418 2.91016 11.0352 2.60742 11.5918L1.65039 13.3496ZM14.3066 18.291L15.0977 17.6855C14.6582 17.0996 14.1016 16.25 12.9395 16.25C12.2266 16.25 12.0801 16.4844 11.5918 16.4844C11.2988 16.4844 11.1426 16.2305 11.0156 15.6934C10.8984 15.2246 10.8496 14.8828 11.1523 14.7559C11.5039 14.6191 12.6855 14.4824 13.0859 13.2324C13.3691 12.3828 13.6328 12.0508 14.1016 12.0508C14.9414 12.0508 14.8047 12.9395 15.8105 12.9395C16.25 12.9395 16.4844 12.7539 16.7969 12.7539C17.2266 12.7539 17.5195 13.1738 17.5977 14.1992L18.584 13.8086C18.418 12.5195 17.8027 11.7676 16.9336 11.7676C16.709 11.7676 16.416 11.8066 16.1523 11.8945C15.8301 12.002 15.7812 11.9824 15.5273 11.6895C15.127 11.2305 14.7754 11.0645 14.2188 11.0645C13.2324 11.0645 12.5977 11.543 12.1289 12.9492C12.0117 13.3301 11.8457 13.457 11.1719 13.7109L10.7617 13.8574C9.99023 14.1504 9.76562 14.7168 10.0391 15.9082C10.2832 16.9531 10.791 17.4805 11.5039 17.4805C12.1387 17.4805 12.5195 17.2559 12.9395 17.2559C13.5547 17.2363 13.8477 17.6465 14.3066 18.291ZM12.3145 9.36523C12.9492 9.36523 13.2324 8.79883 13.9453 8.58398C14.4141 8.44727 14.668 7.96875 14.668 7.55859C14.668 7.22656 14.502 6.94336 14.1406 6.94336C13.7598 6.94336 13.4082 7.23633 13.1738 7.73438C13.0469 8.01758 12.832 8.1543 12.3145 8.30078C11.9043 8.42773 11.7578 8.57422 11.7578 8.88672C11.7578 9.21875 12.0215 9.36523 12.3145 9.36523ZM9.48242 13.877C10.0391 13.877 10.5859 13.2324 10.5859 12.6562C10.5859 11.9434 10.293 11.6113 9.95117 11.6113C9.58008 11.6113 9.3457 12.0508 9.3457 12.7148C9.3457 13.0957 9.01367 13.1055 9.01367 13.4863C9.01367 13.7207 9.19922 13.877 9.48242 13.877ZM7.77344 15.6641C8.20312 15.6641 8.4668 15.4395 8.4668 15.0879C8.4668 14.8145 8.26172 14.6387 7.96875 14.6387C6.78711 14.6387 6.73828 13.9746 6.17188 13.9746C5.85938 13.9746 5.64453 14.1602 5.64453 14.4336C5.64453 14.6484 5.85938 14.8145 6.15234 14.8145C6.77734 14.8145 6.48438 15.6641 7.77344 15.6641ZM9.96094 19.9219C15.459 19.9219 19.9219 15.459 19.9219 9.96094C19.9219 4.46289 15.459 0 9.96094 0C4.46289 0 0 4.46289 0 9.96094C0 15.459 4.46289 19.9219 9.96094 19.9219ZM9.96094 18.5938C5.19531 18.5938 1.32812 14.7266 1.32812 9.96094C1.32812 5.19531 5.19531 1.32812 9.96094 1.32812C14.7266 1.32812 18.5938 5.19531 18.5938 9.96094C18.5938 14.7266 14.7266 18.5938 9.96094 18.5938Z" fill="var(--color-primary)"/>
 </g>
</svg>
