<svg version="1.1" xmlns="http://www.w3.org/2000/svg" xmlns:xlink="http://www.w3.org/1999/xlink" viewBox="0 0 18.3398 17.9785">
 <g>
  <rect height="17.9785" opacity="0" width="18.3398" x="0" y="0"/>
  <path d="M17.9785 3.02734L17.9785 14.9609C17.9785 16.9727 16.9629 17.9785 14.9121 17.9785L3.06641 17.9785C1.02539 17.9785 0 16.9727 0 14.9609L0 3.02734C0 1.01562 1.02539 0 3.06641 0L14.9121 0C16.9629 0 17.9785 1.01562 17.9785 3.02734ZM11.3379 5.08789L11.3379 8.11523L6.63086 8.11523L6.63086 5.08789C6.63086 4.51172 6.33789 4.17969 5.81055 4.17969C5.3125 4.17969 5.01953 4.52148 5.01953 5.08789L5.01953 12.6953C5.01953 13.2617 5.3125 13.6035 5.81055 13.6035C6.33789 13.6035 6.63086 13.2715 6.63086 12.6953L6.63086 9.38477L11.3379 9.38477L11.3379 12.6953C11.3379 13.2617 11.6406 13.6035 12.1387 13.6035C12.666 13.6035 12.959 13.2715 12.959 12.6953L12.959 5.08789C12.959 4.51172 12.666 4.17969 12.1387 4.17969C11.6406 4.17969 11.3379 4.52148 11.3379 5.08789Z" fill="var(--color-primary)"/>
 </g>
</svg>
