<svg version="1.1" xmlns="http://www.w3.org/2000/svg" xmlns:xlink="http://www.w3.org/1999/xlink" width="21.4844" height="16.3379" viewBox="0 0 21.4844 16.3379">
 <g>
  <rect height="16.3379" opacity="0" width="21.4844" x="0" y="0"/>
  <path d="M0 9.38477C0 13.8379 2.7832 16.3379 7.55859 16.3379L9.52148 16.3379C11.3184 16.3379 12.4219 15.4688 12.4219 14.4922C12.4219 14.2773 12.3047 14.1504 12.0898 14.1504L11.2207 14.1504C10.8105 14.1504 10.6152 13.9355 10.6152 13.6914C10.6152 13.4277 10.8105 13.2129 11.2207 13.2129L11.7969 13.2129C12.8516 13.2129 13.5449 12.5391 13.5449 11.6211C13.5449 11.2109 13.3789 11.0254 13.0273 11.0254L11.8457 11.0254C11.4258 11.0254 11.2207 10.8105 11.2207 10.5664C11.2207 10.293 11.4258 10.0879 11.8457 10.0879L12.9395 10.0879C14.1211 10.0879 14.6875 9.38477 14.6875 8.50586C14.6875 8.10547 14.5117 7.91016 14.1602 7.91016L11.8457 7.91016C11.4258 7.91016 11.2207 7.69531 11.2207 7.45117C11.2207 7.17773 11.4258 6.97266 11.8457 6.97266L19.6191 6.97266C20.3809 6.97266 20.8789 6.47461 20.8789 5.83008C20.8789 5.14648 20.3809 4.66797 19.6191 4.66797L8.22266 4.66797C7.94922 4.66797 7.79297 4.49219 7.79297 4.30664C7.79297 4.14062 7.90039 3.99414 8.18359 3.87695L11.7383 2.36328C12.2656 2.13867 12.4902 1.79688 12.4902 1.33789C12.4902 0.634766 12.0215 0.175781 11.4355 0.175781C11.1914 0.175781 11.0059 0.224609 10.8398 0.292969L5.87891 1.94336C1.70898 3.35938 0 6.11328 0 9.38477Z" fill="var(--color-primary)"/>
 </g>
</svg>
