<svg version="1.1" xmlns="http://www.w3.org/2000/svg" xmlns:xlink="http://www.w3.org/1999/xlink" width="18.3398" height="17.998" viewBox="0 0 18.3398 17.998">
 <g>
  <rect height="17.998" opacity="0" width="18.3398" x="0" y="0"/>
  <path d="M3.06641 17.998L14.9121 17.998C16.9629 17.998 17.9785 16.9824 17.9785 14.9707L17.9785 3.04688C17.9785 1.03516 16.9629 0.0195312 14.9121 0.0195312L3.06641 0.0195312C1.02539 0.0195312 0 1.02539 0 3.04688L0 14.9707C0 16.9922 1.02539 17.998 3.06641 17.998ZM3.08594 16.4258C2.10938 16.4258 1.57227 15.9082 1.57227 14.8926L1.57227 3.125C1.57227 2.10938 2.10938 1.5918 3.08594 1.5918L14.8926 1.5918C15.8594 1.5918 16.4062 2.10938 16.4062 3.125L16.4062 14.8926C16.4062 15.9082 15.8594 16.4258 14.8926 16.4258Z" fill="var(--color-secondary)"/>
  <path d="M6.66016 4.6875C5.00977 4.6875 3.80859 5.9375 3.80859 7.66602C3.80859 10.2344 6.51367 12.5977 8.52539 13.8672C8.69141 13.9648 8.90625 14.1016 9.02344 14.1016C9.15039 14.1016 9.3457 13.9746 9.49219 13.8672C11.4746 12.5684 14.1992 10.2344 14.1992 7.66602C14.1992 5.9375 13.0078 4.6875 11.3477 4.6875C10.3223 4.6875 9.49219 5.2832 9.00391 6.17188C8.52539 5.2832 7.70508 4.6875 6.66016 4.6875Z" fill="var(--color-primary)"/>
 </g>
</svg>
