<svg version="1.1" xmlns="http://www.w3.org/2000/svg" xmlns:xlink="http://www.w3.org/1999/xlink" width="20.2832" height="19.9316" viewBox="0 0 20.2832 19.9316">
 <g>
  <rect height="19.9316" opacity="0" width="20.2832" x="0" y="0"/>
  <path d="M9.96094 19.9219C15.4102 19.9219 19.9219 15.4004 19.9219 9.96094C19.9219 4.51172 15.4004 0 9.95117 0C4.51172 0 0 4.51172 0 9.96094C0 15.4004 4.52148 19.9219 9.96094 19.9219ZM9.96094 18.2617C5.35156 18.2617 1.66992 14.5703 1.66992 9.96094C1.66992 5.35156 5.3418 1.66016 9.95117 1.66016C14.5605 1.66016 18.2617 5.35156 18.2617 9.96094C18.2617 14.5703 14.5703 18.2617 9.96094 18.2617Z" fill="var(--color-secondary)"/>
  <path d="M7.61719 5.6543C5.95703 5.6543 4.76562 6.9043 4.76562 8.63281C4.76562 11.2012 7.4707 13.5645 9.47266 14.834C9.64844 14.9316 9.85352 15.0684 9.98047 15.0684C10.1074 15.0684 10.3027 14.9414 10.4492 14.834C12.4316 13.5352 15.1562 11.2012 15.1562 8.63281C15.1562 6.9043 13.9648 5.6543 12.3047 5.6543C11.2695 5.6543 10.4492 6.25 9.96094 7.13867C9.47266 6.25 8.66211 5.6543 7.61719 5.6543Z" fill="var(--color-primary)"/>
 </g>
</svg>
