<svg version="1.1" xmlns="http://www.w3.org/2000/svg" xmlns:xlink="http://www.w3.org/1999/xlink" viewBox="0 0 23.6621 20.2246">
 <g>
  <rect height="20.2246" opacity="0" width="23.6621" x="0" y="0"/>
  <path d="M19.1406 2.77344L19.1406 17.4414C19.1406 19.2871 18.2227 20.2148 16.3965 20.2148L6.9043 20.2148C5.07812 20.2148 4.16016 19.2871 4.16016 17.4414L4.16016 15.2246L5.73242 15.2246L5.73242 17.4219C5.73242 18.2129 6.16211 18.6426 6.96289 18.6426L16.3379 18.6426C17.1387 18.6426 17.5684 18.2129 17.5684 17.4219L17.5684 2.79297C17.5684 1.99219 17.1484 1.57227 16.3379 1.57227L6.96289 1.57227C6.15234 1.57227 5.73242 1.99219 5.73242 2.79297L5.73242 10.9473L4.16016 10.9473L4.16016 2.77344C4.16016 0.927734 5.07812 0 6.9043 0L16.3965 0C18.2227 0 19.1406 0.927734 19.1406 2.77344ZM13.8672 5.35156C13.8867 6.58203 12.8711 7.56836 11.6504 7.56836C10.4199 7.56836 9.43359 6.58203 9.43359 5.35156C9.43359 4.11133 10.4297 3.13477 11.6504 3.14453C12.8809 3.1543 13.8574 4.12109 13.8672 5.35156ZM10.5176 5.35156C10.5176 5.9668 11.0254 6.48438 11.6504 6.48438C12.2754 6.48438 12.7832 5.9668 12.7832 5.35156C12.7832 4.72656 12.2656 4.21875 11.6504 4.21875C11.0156 4.21875 10.5176 4.69727 10.5176 5.35156Z" fill="var(--color-primary)"/>
  <path d="M2.14844 13.8672L10.625 13.8574L11.9531 13.7988L11.3867 14.3359L10.0586 15.5566C9.90234 15.6934 9.82422 15.8984 9.82422 16.084C9.82422 16.4941 10.1172 16.7969 10.5078 16.7969C10.7227 16.7969 10.8789 16.7188 11.0254 16.5625L13.8379 13.6523C14.0234 13.457 14.0918 13.2812 14.0918 13.0859C14.0918 12.8906 14.0234 12.7148 13.8379 12.5195L11.0254 9.59961C10.8789 9.45312 10.7227 9.375 10.5078 9.375C10.1172 9.375 9.82422 9.67773 9.82422 10.0879C9.82422 10.2734 9.90234 10.4785 10.0586 10.6152L11.3867 11.8359L11.9531 12.373L10.625 12.3145L2.14844 12.3145C1.73828 12.3145 1.38672 12.666 1.38672 13.0859C1.38672 13.5059 1.73828 13.8672 2.14844 13.8672Z" fill="var(--color-primary)"/>
 </g>
</svg>
