<svg version="1.1" xmlns="http://www.w3.org/2000/svg" xmlns:xlink="http://www.w3.org/1999/xlink" viewBox="0 0 28.7402 17.6855">
 <g>
  <rect height="17.6855" opacity="0" width="28.7402" x="0" y="0"/>
  <path d="M21.6406 2.70508C23.0469 4.27734 23.7988 6.42578 23.7988 8.68164C23.7988 11.4746 22.6367 14.1016 20.6445 15.918C19.2285 17.2363 17.7344 17.6855 14.1895 17.6855C10.6445 17.6855 9.14062 17.2363 7.72461 15.918C6.65924 14.9418 5.82796 13.7316 5.29679 12.3828L7.01642 12.3828C7.44848 13.2761 8.05196 14.0831 8.79883 14.7656C9.90234 15.8008 11.084 16.1133 14.1895 16.1133C17.2852 16.1133 18.4766 15.8008 19.5801 14.7656C21.2695 13.2129 22.2266 11.0156 22.2266 8.68164C22.2266 7.00517 21.7323 5.39248 20.7023 4.04071C19.1346 5.08 16.8093 5.51758 14.1895 5.51758C11.5724 5.51758 9.24922 5.08092 7.67363 4.04401C6.76217 5.23899 6.26521 6.63823 6.16665 8.10547L4.59463 8.10547C4.7056 6.0616 5.45177 4.14254 6.72852 2.70508C7.10938 2.2168 7.76367 2.12891 8.31055 2.4707C9.51172 3.34961 11.123 3.94531 14.1895 3.94531C17.2559 3.94531 18.8672 3.34961 20.0684 2.4707C20.6152 2.12891 21.2598 2.2168 21.6406 2.70508ZM18.8086 1.36719C18.8086 2.07031 16.9043 2.61719 14.1895 2.61719C11.4746 2.61719 9.57031 2.07031 9.57031 1.36719C9.57031 0.654297 11.4746 0.126953 14.1895 0.126953C16.9043 0.126953 18.8086 0.654297 18.8086 1.36719Z" fill="var(--color-primary)"/>
  <path d="M2.14844 11.0156L10.2832 11.0156L11.6113 10.957L11.0449 11.4941L9.7168 12.7148C9.55078 12.8516 9.48242 13.0566 9.48242 13.2422C9.48242 13.6523 9.76562 13.9551 10.166 13.9551C10.3711 13.9551 10.5273 13.8672 10.6738 13.7207L13.4863 10.8105C13.6719 10.6152 13.75 10.4395 13.75 10.2441C13.75 10.0488 13.6719 9.87305 13.4863 9.67773L10.6738 6.75781C10.5273 6.61133 10.3711 6.5332 10.166 6.5332C9.76562 6.5332 9.48242 6.83594 9.48242 7.24609C9.48242 7.43164 9.55078 7.63672 9.7168 7.77344L11.0449 8.99414L11.6113 9.53125L10.2832 9.47266L2.14844 9.47266C1.73828 9.47266 1.38672 9.82422 1.38672 10.2441C1.38672 10.6641 1.73828 11.0156 2.14844 11.0156Z" fill="var(--color-primary)"/>
 </g>
</svg>
