<svg version="1.1" xmlns="http://www.w3.org/2000/svg" xmlns:xlink="http://www.w3.org/1999/xlink" viewBox="0 0 23.6816 20.5566">
 <g>
  <rect height="20.5566" opacity="0" width="23.6816" x="0" y="0"/>
  <path d="M9.02344 18.9648L9.02344 13.2227C9.02344 12.7734 9.32617 12.4805 9.77539 12.4805L13.5547 12.4805C14.0137 12.4805 14.2969 12.7734 14.2969 13.2227L14.2969 18.9648ZM3.04688 18.3887C3.04688 19.7461 3.86719 20.5371 5.24414 20.5371L18.0859 20.5371C19.4629 20.5371 20.2734 19.7461 20.2734 18.3887L20.2734 10.6348L12.2461 3.90625C11.875 3.59375 11.4355 3.60352 11.0742 3.90625L3.04688 10.6348ZM0.839844 10.4297C1.11328 10.4297 1.33789 10.2832 1.54297 10.1172L11.3184 1.9043C11.4258 1.81641 11.5527 1.76758 11.6602 1.76758C11.7773 1.76758 11.8945 1.81641 12.002 1.9043L21.7871 10.1172C21.9824 10.2832 22.207 10.4297 22.4805 10.4297C23.0078 10.4297 23.3203 10.0488 23.3203 9.64844C23.3203 9.42383 23.2324 9.18945 23.0078 9.01367L12.832 0.46875C12.4609 0.15625 12.0605 0 11.6602 0C11.2598 0 10.8594 0.15625 10.4883 0.46875L0.3125 9.01367C0.0976562 9.18945 0 9.42383 0 9.64844C0 10.0488 0.3125 10.4297 0.839844 10.4297ZM18.0176 5.24414L20.4688 7.31445L20.4688 2.91016C20.4688 2.48047 20.1953 2.20703 19.7656 2.20703L18.7207 2.20703C18.3008 2.20703 18.0176 2.48047 18.0176 2.91016Z" fill="var(--color-primary)"/>
 </g>
</svg>
