<svg version="1.1" xmlns="http://www.w3.org/2000/svg" xmlns:xlink="http://www.w3.org/1999/xlink" viewBox="0 0 22.168 20.8496">
 <g>
  <rect height="20.8496" opacity="0" width="22.168" x="0" y="0"/>
  <path d="M12.0996 0.341797L20.4395 5.15625C20.8008 5.36133 20.9668 5.61523 20.9668 5.9082C20.9668 6.30859 20.6543 6.69922 20.1172 6.69922L19.2578 6.69922L19.2578 17.9297L19.8828 17.9297C20.2832 17.9297 20.5078 18.1641 20.5078 18.5547L20.5078 19.2676L21.0156 19.2676C21.4453 19.2676 21.8066 19.6191 21.8066 20.0488C21.8066 20.4785 21.4453 20.8398 21.0156 20.8398L0.78125 20.8398C0.351562 20.8398 0 20.4785 0 20.0488C0 19.6191 0.351562 19.2676 0.78125 19.2676L1.29883 19.2676L1.29883 18.5547C1.29883 18.1641 1.5332 17.9297 1.93359 17.9297L2.54883 17.9297L2.54883 6.69922L1.68945 6.69922C1.15234 6.69922 0.839844 6.30859 0.839844 5.9082C0.839844 5.61523 0.996094 5.36133 1.36719 5.15625L9.70703 0.341797C10.0781 0.117188 10.498 0 10.8984 0C11.2988 0 11.709 0.117188 12.0996 0.341797ZM7.59766 11.4258C7.41211 11.4258 7.26562 11.5625 7.26562 11.7773C7.26562 11.9727 7.41211 12.1094 7.59766 12.1094L8.4668 12.1094C8.0957 12.4316 7.86133 12.8906 7.86133 13.3789C7.86133 14.9023 9.44336 15.625 10.9082 15.625C12.0801 15.625 13.1543 15.2051 13.6816 14.2969C13.7988 14.1016 13.8965 13.8574 13.8965 13.6426C13.8965 13.3496 13.6816 13.1543 13.3691 13.1543C13.1055 13.1543 12.9492 13.2812 12.832 13.5254C12.4805 14.3066 11.7773 14.6289 10.8984 14.6289C9.94141 14.6289 9.02344 14.1504 9.02344 13.3301C9.02344 12.7734 9.30664 12.3633 9.76562 12.1094L14.1992 12.1094C14.4043 12.1094 14.541 11.9727 14.541 11.7773C14.541 11.5625 14.4043 11.4258 14.1992 11.4258ZM8.33984 7.71484C8.19336 7.91992 8.13477 8.11523 8.13477 8.35938C8.13477 8.65234 8.33008 8.84766 8.64258 8.84766C8.90625 8.84766 9.04297 8.74023 9.16016 8.50586C9.51172 7.8125 10.166 7.5293 10.8789 7.5293C11.7578 7.5293 12.6367 7.92969 12.6367 8.81836C12.6367 9.15039 12.4902 9.57031 12.0996 9.80469L7.59766 9.80469C7.41211 9.80469 7.26562 9.93164 7.26562 10.1465C7.26562 10.3418 7.41211 10.4785 7.59766 10.4785L14.1992 10.4785C14.4043 10.4785 14.541 10.3418 14.541 10.1465C14.541 9.93164 14.4043 9.80469 14.1992 9.80469L13.3301 9.80469C13.6133 9.52148 13.7793 9.15039 13.7793 8.74023C13.7793 7.22656 12.3145 6.5332 10.8594 6.5332C10.0195 6.5332 8.98438 6.74805 8.33984 7.71484Z" fill="var(--color-primary)"/>
 </g>
</svg>
