<svg version="1.1" xmlns="http://www.w3.org/2000/svg" xmlns:xlink="http://www.w3.org/1999/xlink" viewBox="0 0 23.8867 19.5071">
 <g>
  <rect height="19.5071" opacity="0" width="23.8867" x="0" y="0"/>
  <path d="M23.5254 11.7116C23.5254 5.55921 18.7988 0.510381 12.7832 0.00256812C12.4707-0.0267288 12.2363 0.197881 12.2363 0.510381L12.2363 3.70374C12.2363 3.96741 12.4219 4.17249 12.6855 4.19202C16.4258 4.65101 19.3359 7.84436 19.3359 11.7116C19.3359 13.4694 18.7305 15.0905 17.666 16.4479C17.5293 16.6139 17.5391 16.8287 17.6855 16.985L20.0195 19.3092C20.2344 19.5241 20.5664 19.5241 20.7617 19.2897C22.4902 17.2389 23.5254 14.5924 23.5254 11.7116Z" fill="var(--color-primary)"/>
  <path d="M0 11.7116C0 14.6022 1.03516 17.2487 2.76367 19.2994C2.95898 19.5338 3.28125 19.5241 3.50586 19.3092L5.83984 16.985C5.98633 16.8287 5.99609 16.6139 5.85938 16.4479C4.78516 15.0905 4.18945 13.4694 4.18945 11.7116C4.18945 7.84436 7.09961 4.65101 10.8398 4.19202C11.1035 4.17249 11.2891 3.96741 11.2891 3.70374L11.2891 0.510381C11.2891 0.197881 11.0547-0.0267288 10.7422 0.00256812C4.72656 0.510381 0 5.55921 0 11.7116Z" fill="var(--color-primary)"/>
  <path d="M10.7227 12.6783C12.2559 12.6783 13.4375 11.8678 13.6426 10.3737L14.4043 10.3737C14.5898 10.3737 14.7363 10.2272 14.7363 10.0514C14.7363 9.87561 14.5898 9.72913 14.4043 9.72913L13.6621 9.72913C13.6035 9.0846 13.3398 8.4889 12.832 8.08851L14.4043 8.08851C14.5898 8.08851 14.7363 7.94202 14.7363 7.76624C14.7363 7.57093 14.5898 7.43421 14.4043 7.43421L8.99414 7.43421C8.75 7.43421 8.59375 7.60022 8.59375 7.87366L8.59375 7.94202C8.59375 8.21546 8.75 8.38147 8.99414 8.38147L10.5957 8.38147C11.5625 8.38147 12.334 8.7721 12.4805 9.72913L8.94531 9.72913C8.75977 9.72913 8.61328 9.87561 8.61328 10.0514C8.61328 10.2272 8.75977 10.3737 8.94531 10.3737L12.4707 10.3737C12.334 11.3698 11.5723 11.7213 10.5859 11.7213L9.22852 11.7213C8.85742 11.7213 8.62305 11.9557 8.62305 12.2682L8.62305 12.3073C8.62305 12.5807 8.75 12.7467 8.96484 12.942L12.3047 16.0768C12.4707 16.233 12.6074 16.3502 12.8516 16.3502C13.1445 16.3502 13.3496 16.1158 13.3496 15.8424C13.3496 15.6569 13.2617 15.5299 13.125 15.3932L10.2148 12.6783Z" fill="var(--color-primary)"/>
 </g>
</svg>
