<svg version="1.1" xmlns="http://www.w3.org/2000/svg" xmlns:xlink="http://www.w3.org/1999/xlink" width="25.8203" height="11.6504" viewBox="0 0 25.8203 11.6504">
 <g>
  <rect height="11.6504" opacity="0" width="25.8203" x="0" y="0"/>
  <path d="M0 5.82031C0 9.35547 2.2168 11.6406 5.46875 11.6406C7.23633 11.6406 8.70117 10.8887 10.3125 9.33594L12.7344 7.01172L15.1465 9.33594C16.7676 10.8887 18.2324 11.6406 19.9902 11.6406C23.2422 11.6406 25.459 9.35547 25.459 5.82031C25.459 2.28516 23.2422 0 19.9902 0C18.2324 0 16.7676 0.751953 15.1465 2.30469L12.7344 4.62891L10.3125 2.30469C8.70117 0.751953 7.23633 0 5.46875 0C2.2168 0 0 2.28516 0 5.82031ZM1.76758 5.82031C1.76758 3.34961 3.28125 1.76758 5.46875 1.76758C6.71875 1.76758 7.8125 2.37305 9.07227 3.55469L11.4941 5.82031L9.0625 8.08594C7.80273 9.25781 6.71875 9.87305 5.46875 9.87305C3.28125 9.87305 1.76758 8.29102 1.76758 5.82031ZM13.9648 5.82031L16.3867 3.55469C17.6465 2.37305 18.7402 1.76758 19.9902 1.76758C22.1875 1.76758 23.6914 3.34961 23.6914 5.82031C23.6914 8.29102 22.1875 9.87305 19.9902 9.87305C18.7402 9.87305 17.6562 9.25781 16.3965 8.08594Z" fill="var(--color-primary)"/>
 </g>
</svg>
