<svg version="1.1" xmlns="http://www.w3.org/2000/svg" xmlns:xlink="http://www.w3.org/1999/xlink" viewBox="0 0 23.3887 17.9785">
 <g>
  <rect height="17.9785" opacity="0" width="23.3887" x="0" y="0"/>
  <path d="M3.06641 17.9785L19.9609 17.9785C22.0117 17.9785 23.0273 16.9727 23.0273 14.9609L23.0273 3.02734C23.0273 1.01562 22.0117 0 19.9609 0L3.06641 0C1.02539 0 0 1.01562 0 3.02734L0 14.9609C0 16.9727 1.02539 17.9785 3.06641 17.9785ZM3.08594 16.4062C2.10938 16.4062 1.57227 15.8887 1.57227 14.873L1.57227 3.11523C1.57227 2.09961 2.10938 1.57227 3.08594 1.57227L19.9414 1.57227C20.9082 1.57227 21.4551 2.09961 21.4551 3.11523L21.4551 14.873C21.4551 15.8887 20.9082 16.4062 19.9414 16.4062Z" fill="var(--color-primary)"/>
  <path d="M13.0371 15.0781L19.2676 15.0781C19.8828 15.0781 20.127 14.8242 20.127 14.1992L20.127 10.5469C20.127 9.92188 19.8828 9.66797 19.2676 9.66797L13.0371 9.66797C12.4219 9.66797 12.1777 9.92188 12.1777 10.5469L12.1777 14.1992C12.1777 14.8242 12.4219 15.0781 13.0371 15.0781Z" fill="var(--color-tertiary)"/>
  <path d="M13.0371 8.32031L19.2676 8.32031C19.8828 8.32031 20.127 8.06641 20.127 7.44141L20.127 3.78906C20.127 3.16406 19.8828 2.91016 19.2676 2.91016L13.0371 2.91016C12.4219 2.91016 12.1777 3.16406 12.1777 3.78906L12.1777 7.44141C12.1777 8.06641 12.4219 8.32031 13.0371 8.32031Z" fill="var(--color-tertiary)"/>
  <path d="M3.75977 15.0781L9.99023 15.0781C10.6055 15.0781 10.8496 14.8242 10.8496 14.1992L10.8496 3.78906C10.8496 3.16406 10.6055 2.91016 9.99023 2.91016L3.75977 2.91016C3.1543 2.91016 2.91016 3.16406 2.91016 3.78906L2.91016 14.1992C2.91016 14.8242 3.1543 15.0781 3.75977 15.0781Z" fill="var(--color-primary)"/>
 </g>
</svg>
