<svg version="1.1" xmlns="http://www.w3.org/2000/svg" xmlns:xlink="http://www.w3.org/1999/xlink" viewBox="0 0 20.2832 19.9316">
 <g>
  <rect height="19.9316" opacity="0" width="20.2832" x="0" y="0"/>
  <path d="M19.9219 9.96094C19.9219 15.459 15.459 19.9219 9.96094 19.9219C4.46289 19.9219 0 15.459 0 9.96094C0 4.46289 4.46289 0 9.96094 0C15.459 0 19.9219 4.46289 19.9219 9.96094ZM1.66016 9.96094C1.66016 14.5508 5.37109 18.2617 9.96094 18.2617C14.5508 18.2617 18.2617 14.5508 18.2617 9.96094C18.2617 5.37109 14.5508 1.66016 9.96094 1.66016C5.37109 1.66016 1.66016 5.37109 1.66016 9.96094Z" fill="var(--color-primary)"/>
  <path d="M7.16797 8.75977L7.16797 14.4434C7.16797 14.9121 7.44141 15.166 7.93945 15.166L11.9629 15.166C12.4609 15.166 12.7344 14.9121 12.7344 14.4434L12.7344 14.3262L13.58 15.1718C13.3651 15.7606 12.8146 16.123 12.0801 16.123L7.8125 16.123C6.86523 16.123 6.2207 15.5078 6.2207 14.5801L6.2207 7.8125ZM11.4551 14.4727C11.4551 14.6387 11.3379 14.7461 11.1719 14.7461L8.73047 14.7461C8.56445 14.7461 8.44727 14.6387 8.44727 14.4727C8.44727 14.2969 8.56445 14.1797 8.73047 14.1797L11.1719 14.1797C11.3379 14.1797 11.4551 14.2969 11.4551 14.4727ZM13.6816 5.33203L13.6816 12.072L12.7344 11.1258L12.7344 5.46875C12.7344 5 12.4609 4.74609 11.9629 4.74609L11.2695 4.74609C11.1816 4.74609 11.1426 4.78516 11.1426 4.87305L11.1426 5C11.1426 5.24414 10.9766 5.41992 10.7324 5.41992L9.16992 5.41992C8.91602 5.41992 8.75977 5.24414 8.75977 5L8.75977 4.87305C8.75977 4.78516 8.73047 4.74609 8.63281 4.74609L7.93945 4.74609C7.44141 4.74609 7.16797 5 7.16797 5.46875L7.16797 5.56546L6.32764 4.72604C6.54642 4.14925 7.09185 3.79883 7.8125 3.79883L12.0801 3.79883C13.0371 3.79883 13.6816 4.4043 13.6816 5.33203Z" fill="var(--color-primary)"/>
  <path d="M14.1406 14.7461C14.3066 14.9121 14.5996 14.9219 14.7656 14.7461C14.9414 14.5703 14.9414 14.2969 14.7656 14.1211L5.82031 5.16602C5.63477 4.99023 5.36133 4.99023 5.18555 5.16602C5.00977 5.3418 5.00977 5.625 5.18555 5.79102Z" fill="var(--color-primary)"/>
 </g>
</svg>
