<svg version="1.1" xmlns="http://www.w3.org/2000/svg" xmlns:xlink="http://www.w3.org/1999/xlink" width="18.3398" height="17.998" viewBox="0 0 18.3398 17.998">
 <g>
  <rect height="17.998" opacity="0" width="18.3398" x="0" y="0"/>
  <path d="M3.06641 17.998L14.9121 17.998C16.9629 17.998 17.9785 16.9824 17.9785 14.9707L17.9785 3.04688C17.9785 1.03516 16.9629 0.0195312 14.9121 0.0195312L3.06641 0.0195312C1.02539 0.0195312 0 1.02539 0 3.04688L0 14.9707C0 16.9922 1.02539 17.998 3.06641 17.998Z" fill="var(--color-tertiary)"/>
  <path d="M7.11914 13.4863C6.60156 13.4863 6.31836 13.1152 6.31836 12.5781L6.31836 5.09766C6.31836 4.56055 6.60156 4.17969 7.11914 4.17969C7.65625 4.17969 7.93945 4.54102 7.93945 5.09766L7.93945 12.1582L11.7578 12.1582C12.1484 12.1582 12.4316 12.4121 12.4316 12.8223C12.4316 13.2324 12.1484 13.4863 11.7578 13.4863Z" fill="var(--color-primary)"/>
 </g>
</svg>
