<svg version="1.1" xmlns="http://www.w3.org/2000/svg" xmlns:xlink="http://www.w3.org/1999/xlink" width="15.2746" height="24.0527" viewBox="0 0 15.2746 24.0527">
 <g>
  <rect height="24.0527" opacity="0" width="15.2746" x="0" y="0"/>
  <path d="M7.46153 13.2617C9.6002 13.2617 11.7096 13.1348 13.4381 12.8809C14.7857 12.6758 15.1861 11.6895 14.7369 10.293L12.1588 2.12891C11.6998 0.664062 10.5279 0 8.93614 0L5.97716 0C4.38536 0 3.21348 0.664062 2.7545 2.12891L0.176374 10.293C-0.272845 11.6895 0.127546 12.6758 1.4752 12.8809C3.20372 13.1348 5.31309 13.2617 7.46153 13.2617ZM6.67051 12.7246L6.67051 23.3203L8.24278 23.3203L8.24278 12.7246ZM3.067 23.9941L11.8463 23.9941C12.2076 23.9941 12.4518 23.7402 12.4518 23.3594C12.4518 22.6172 11.8463 22.0996 10.9186 22.0996L3.99473 22.0996C3.067 22.0996 2.4713 22.6172 2.4713 23.3594C2.4713 23.7402 2.70567 23.9941 3.067 23.9941Z" fill="var(--color-primary)"/>
 </g>
</svg>
