<svg version="1.1" xmlns="http://www.w3.org/2000/svg" xmlns:xlink="http://www.w3.org/1999/xlink" viewBox="0 0 18.4082 23.1543">
 <g>
  <rect height="23.1543" opacity="0" width="18.4082" x="0" y="0"/>
  <path d="M10.0586 12.0215L17.7539 4.32617C18.3398 3.75 18.0078 3.03711 17.1973 2.7832C15.3418 2.1875 13.3398 2.02148 10.7227 2.17773L10.2051 1.63086C9.375 0.742188 8.19336 0.742188 7.31445 1.60156C6.46484 2.48047 6.44531 3.69141 7.34375 4.49219L7.89062 4.99023C7.72461 7.57812 7.88086 9.58984 8.47656 11.4746C8.74023 12.2949 9.44336 12.6367 10.0586 12.0215ZM7.76367 3.08594L8.79883 2.04102L7.05078 0.3125C6.75781 0.0195312 6.30859 0.0195312 6.01562 0.3125C5.73242 0.595703 5.72266 1.04492 6.01562 1.33789ZM14.4727 11.4062C15.918 11.4062 17.1094 10.2051 17.1094 8.7793C17.1094 8.1543 16.8848 7.54883 16.4453 7.07031L12.7637 10.752C13.2422 11.1816 13.8477 11.4062 14.4727 11.4062ZM1.8457 13.3105L9.25781 6.49414L8.18359 5.36133L0.78125 12.168ZM1.52344 14.0625C2.37305 14.0625 3.04688 13.3984 3.04688 12.5391C3.04688 11.6895 2.37305 11.0156 1.52344 11.0156C0.664062 11.0156 0 11.6895 0 12.5391C0 13.3984 0.664062 14.0625 1.52344 14.0625ZM5.48828 17.5293L6.60156 16.4258L1.74805 11.5918L0.644531 12.6953ZM5.78125 18.5449C6.63086 18.5449 7.30469 17.8809 7.30469 17.0215C7.30469 16.1719 6.62109 15.498 5.78125 15.498C4.92188 15.498 4.25781 16.1719 4.25781 17.0215C4.25781 17.8809 4.92188 18.5449 5.78125 18.5449ZM4.99023 21.7773L6.5625 21.7773L6.5625 17.0605L4.99023 17.0605ZM1.12305 23.1543L11.5137 23.1543C11.875 23.1543 12.1191 22.8906 12.1191 22.5098C12.1191 21.7773 11.4844 21.2598 10.498 21.2598L2.13867 21.2598C1.15234 21.2598 0.517578 21.7773 0.517578 22.5098C0.517578 22.8906 0.761719 23.1543 1.12305 23.1543Z" fill="var(--color-primary)"/>
 </g>
</svg>
