<svg version="1.1" xmlns="http://www.w3.org/2000/svg" xmlns:xlink="http://www.w3.org/1999/xlink" width="18.3398" height="17.998" viewBox="0 0 18.3398 17.998">
 <g>
  <rect height="17.998" opacity="0" width="18.3398" x="0" y="0"/>
  <path d="M3.06641 17.998L14.9121 17.998C16.9629 17.998 17.9785 16.9824 17.9785 14.9707L17.9785 3.04688C17.9785 1.03516 16.9629 0.0195312 14.9121 0.0195312L3.06641 0.0195312C1.02539 0.0195312 0 1.02539 0 3.04688L0 14.9707C0 16.9922 1.02539 17.998 3.06641 17.998ZM3.08594 16.4258C2.10938 16.4258 1.57227 15.9082 1.57227 14.8926L1.57227 3.125C1.57227 2.10938 2.10938 1.5918 3.08594 1.5918L14.8926 1.5918C15.8594 1.5918 16.4062 2.10938 16.4062 3.125L16.4062 14.8926C16.4062 15.9082 15.8594 16.4258 14.8926 16.4258Z" fill="var(--color-secondary)"/>
  <path d="M5.71289 13.6426L11.7578 13.6426C12.0996 13.6426 12.3242 13.4082 12.3242 13.0859C12.3242 12.7734 12.0898 12.5488 11.7578 12.5488L10.2637 12.5488C8.10547 12.5488 6.43555 10.9277 6.43555 8.79883C6.43555 7.46094 6.88477 6.52344 7.67578 6.03516L7.67578 8.51562C7.67578 8.78906 7.87109 8.98438 8.14453 8.98438C8.42773 8.98438 8.62305 8.78906 8.62305 8.51562L8.62305 5.70312C8.78906 5.68359 8.96484 5.66406 9.12109 5.66406C9.26758 5.66406 9.4043 5.68359 9.52148 5.70312L9.52148 8.51562C9.52148 8.78906 9.72656 8.98438 10 8.98438C10.2734 8.98438 10.4688 8.78906 10.4688 8.51562L10.4688 6.06445C11.1719 6.54297 11.6211 7.37305 11.6406 8.45703C11.6504 8.83789 11.8945 9.10156 12.2559 9.10156C12.5977 9.10156 12.8418 8.83789 12.8418 8.4668C12.832 6.74805 11.8945 5.30273 10.4688 4.75586L10.4688 3.85742C10.4688 3.57422 10.2734 3.37891 10 3.37891C9.72656 3.37891 9.52148 3.57422 9.52148 3.85742L9.52148 4.52148C9.39453 4.50195 9.25781 4.50195 9.13086 4.50195C8.96484 4.50195 8.78906 4.51172 8.62305 4.53125L8.62305 3.85742C8.62305 3.57422 8.41797 3.37891 8.14453 3.37891C7.87109 3.37891 7.67578 3.57422 7.67578 3.85742L7.67578 4.72656C6.13281 5.2832 5.18555 6.71875 5.18555 8.66211C5.18555 10.332 5.9668 11.7773 7.16797 12.5488L5.72266 12.5488C5.40039 12.5488 5.16602 12.7734 5.16602 13.0859C5.16602 13.418 5.38086 13.6426 5.71289 13.6426Z" fill="var(--color-primary)"/>
 </g>
</svg>
