<svg version="1.1" xmlns="http://www.w3.org/2000/svg" xmlns:xlink="http://www.w3.org/1999/xlink" viewBox="0 0 22.168 20.8496">
 <g>
  <rect height="20.8496" opacity="0" width="22.168" x="0" y="0"/>
  <path d="M1.29883 18.5156L20.5078 18.5156L20.5078 17.8613C20.5078 17.4707 20.2832 17.2363 19.8828 17.2363L19.2578 17.2363L19.2578 6.69922L20.1172 6.69922C20.6543 6.69922 20.9668 6.30859 20.9668 5.9082C20.9668 5.61523 20.8008 5.36133 20.4395 5.15625L12.0996 0.341797C11.709 0.117188 11.2988 0 10.8984 0C10.498 0 10.0781 0.117188 9.70703 0.341797L1.36719 5.15625C0.996094 5.36133 0.839844 5.61523 0.839844 5.9082C0.839844 6.30859 1.15234 6.69922 1.68945 6.69922L2.54883 6.69922L2.54883 17.2363L1.93359 17.2363C1.5332 17.2363 1.29883 17.4707 1.29883 17.8613ZM4.02344 17.2363L4.02344 5.44922L10.5176 1.80664C10.6348 1.73828 10.7715 1.69922 10.8984 1.69922C11.0254 1.69922 11.1621 1.73828 11.2891 1.80664L17.7832 5.44922L17.7832 17.2363ZM0.78125 20.8398L21.0156 20.8398C21.4453 20.8398 21.8066 20.4785 21.8066 20.0488C21.8066 19.6191 21.4453 19.2676 21.0156 19.2676L0.78125 19.2676C0.351562 19.2676 0 19.6191 0 20.0488C0 20.4785 0.351562 20.8398 0.78125 20.8398Z" fill="var(--color-primary)"/>
  <path d="M7.94922 14.502L13.7695 14.502C14.0527 14.502 14.2578 14.2969 14.2578 14.0234C14.2578 13.75 14.0527 13.5449 13.7695 13.5449L9.21875 13.5449L9.21875 13.4961C9.89258 13.2422 10.2637 12.5586 10.3418 11.7773C10.3516 11.6797 10.3613 11.5918 10.3613 11.4844L12.7734 11.4844C12.9883 11.4844 13.1543 11.3281 13.1543 11.1133C13.1543 10.9082 12.9883 10.752 12.7734 10.752L10.293 10.752C10.2246 10.3516 10.0977 10 10.0098 9.61914L12.7734 9.61914C12.9883 9.61914 13.1543 9.46289 13.1543 9.25781C13.1543 9.04297 12.9883 8.88672 12.7734 8.88672L9.89258 8.88672C9.87305 8.78906 9.87305 8.67188 9.87305 8.56445C9.87305 7.40234 10.8008 6.80664 11.9629 6.80664C12.334 6.80664 12.7734 6.875 13.0469 6.93359C13.1738 6.97266 13.3203 7.00195 13.418 7.00195C13.7305 7.00195 13.8477 6.80664 13.8477 6.5918C13.8477 6.32812 13.6816 6.17188 13.4375 6.07422C12.9395 5.85938 12.3438 5.83008 11.8457 5.83008C9.99023 5.83008 8.71094 6.82617 8.71094 8.58398C8.71094 8.69141 8.71094 8.78906 8.7207 8.88672L7.8125 8.88672C7.60742 8.88672 7.44141 9.04297 7.44141 9.25781C7.44141 9.46289 7.60742 9.61914 7.8125 9.61914L8.82812 9.61914C8.92578 10.0195 9.05273 10.3711 9.14062 10.752L7.8125 10.752C7.60742 10.752 7.44141 10.9082 7.44141 11.1133C7.44141 11.3281 7.60742 11.4844 7.8125 11.4844L9.22852 11.4844C9.22852 11.5918 9.21875 11.748 9.19922 11.875C9.07227 12.7148 8.50586 13.2422 7.90039 13.4473C7.62695 13.5352 7.45117 13.6914 7.45117 14.0039C7.45117 14.3262 7.68555 14.502 7.94922 14.502Z" fill="var(--color-primary)"/>
 </g>
</svg>
