<svg version="1.1" xmlns="http://www.w3.org/2000/svg" xmlns:xlink="http://www.w3.org/1999/xlink" viewBox="0 0 23.3887 17.9785">
 <g>
  <rect height="17.9785" opacity="0" width="23.3887" x="0" y="0"/>
  <path d="M23.0273 3.02734L23.0273 14.9609C23.0273 16.9727 22.0117 17.9785 19.9609 17.9785L3.06641 17.9785C1.02539 17.9785 0 16.9727 0 14.9609L0 3.02734C0 1.01562 1.02539 0 3.06641 0L19.9609 0C22.0117 0 23.0273 1.01562 23.0273 3.02734ZM3.48633 13.6816C3.48633 14.1895 3.91602 14.6191 4.41406 14.6191C4.94141 14.6191 5.36133 14.1992 5.36133 13.6816C5.36133 13.1641 4.94141 12.7344 4.41406 12.7344C3.91602 12.7344 3.48633 13.1738 3.48633 13.6816ZM7.45117 13.0566C7.08984 13.0566 6.81641 13.3301 6.81641 13.6816C6.81641 14.0332 7.09961 14.3164 7.45117 14.3164L13.8281 14.3164C14.1699 14.3164 14.4531 14.0332 14.4531 13.6816C14.4531 13.3301 14.1797 13.0566 13.8281 13.0566ZM3.48633 10.4492C3.48633 10.9766 3.90625 11.3867 4.41406 11.3867C4.94141 11.3867 5.36133 10.9766 5.36133 10.4492C5.36133 9.94141 4.94141 9.52148 4.41406 9.52148C3.90625 9.52148 3.48633 9.95117 3.48633 10.4492ZM7.45117 9.83398C7.08984 9.83398 6.81641 10.1074 6.81641 10.4492C6.81641 10.8203 7.08984 11.0938 7.45117 11.0938L18.9648 11.0938C19.3262 11.0938 19.5996 10.8203 19.5996 10.4492C19.5996 10.1074 19.3262 9.83398 18.9648 9.83398ZM3.48633 7.38281C3.48633 7.89062 3.91602 8.32031 4.41406 8.32031C4.94141 8.32031 5.36133 7.90039 5.36133 7.38281C5.36133 6.85547 4.94141 6.44531 4.41406 6.44531C3.91602 6.44531 3.48633 6.86523 3.48633 7.38281ZM7.45117 6.74805C7.09961 6.74805 6.81641 7.04102 6.81641 7.38281C6.81641 7.72461 7.09961 8.00781 7.45117 8.00781L13.8281 8.00781C14.1699 8.00781 14.4531 7.72461 14.4531 7.38281C14.4531 7.04102 14.1699 6.74805 13.8281 6.74805ZM3.48633 4.30664C3.48633 4.80469 3.91602 5.24414 4.41406 5.24414C4.94141 5.24414 5.36133 4.81445 5.36133 4.30664C5.36133 3.7793 4.94141 3.36914 4.41406 3.36914C3.91602 3.36914 3.48633 3.78906 3.48633 4.30664ZM7.45117 3.66211C7.09961 3.66211 6.81641 3.94531 6.81641 4.30664C6.81641 4.64844 7.08984 4.92188 7.45117 4.92188L18.9648 4.92188C19.3262 4.92188 19.5996 4.64844 19.5996 4.30664C19.5996 3.94531 19.3164 3.66211 18.9648 3.66211Z" fill="var(--color-primary)"/>
 </g>
</svg>
