<svg version="1.1" xmlns="http://www.w3.org/2000/svg" xmlns:xlink="http://www.w3.org/1999/xlink" viewBox="0 0 20.2703 18.4783">
 <g>
  <rect height="18.4783" opacity="0" width="20.2703" x="0" y="0"/>
  <path d="M0.833401 7.47647C-0.514255 8.10147-0.143161 9.90811 1.34121 9.91787L8.46035 9.94717C8.57754 9.94717 8.60684 9.97647 8.60684 10.0937L8.62637 17.1542C8.63614 18.6972 10.4721 18.9706 11.1264 17.5546L18.3432 2.03701C19.0072 0.591702 17.8744-0.433689 16.4389 0.240139ZM2.53262 8.39444C2.49356 8.39444 2.48379 8.35537 2.53262 8.33584L16.5658 1.91006C16.6342 1.88076 16.6635 1.9003 16.6342 1.97842L10.1693 16.0019C10.1596 16.0409 10.1205 16.0312 10.1205 15.9921L10.1693 9.0878C10.1693 8.65811 9.8666 8.35537 9.42715 8.35537Z" fill="var(--color-primary)"/>
 </g>
</svg>
