<svg version="1.1" xmlns="http://www.w3.org/2000/svg" xmlns:xlink="http://www.w3.org/1999/xlink" width="23.3887" height="17.5488" viewBox="0 0 23.3887 17.5488">
 <g>
  <rect height="17.5488" opacity="0" width="23.3887" x="0" y="0"/>
  <path d="M7.69531 17.5293L15.332 17.5293C20.9961 17.5293 23.0273 15.4297 23.0273 10.2051L23.0273 7.33398C23.0273 2.10938 20.9961 0 15.332 0L7.69531 0C2.03125 0 0 2.10938 0 7.33398L0 10.2051C0 15.4297 2.03125 17.5293 7.69531 17.5293ZM7.69531 15.957C3.08594 15.957 1.57227 14.4629 1.57227 10.2051L1.57227 7.33398C1.57227 3.07617 3.08594 1.57227 7.69531 1.57227L15.332 1.57227C19.9414 1.57227 21.4551 3.07617 21.4551 7.33398L21.4551 10.2051C21.4551 14.4629 19.9414 15.957 15.332 15.957Z" fill="var(--color-secondary)"/>
  <path d="M5.79102 12.8613C6.18164 12.8613 6.42578 12.5977 6.42578 12.1777L6.42578 6.9043L6.48438 6.9043L7.8125 12.0703C7.91016 12.4414 8.14453 12.7148 8.53516 12.7148C8.93555 12.7148 9.15039 12.4512 9.24805 12.0605L10.5762 6.9043L10.625 6.9043L10.625 12.1777C10.625 12.5977 10.8594 12.8613 11.2598 12.8613C11.6699 12.8613 11.8945 12.5977 11.8945 12.1777L11.8945 5.70312C11.8945 5.06836 11.5137 4.70703 10.8887 4.70703C10.332 4.70703 10.0098 4.98047 9.88281 5.52734L8.55469 10.8496L8.51562 10.8496L7.1582 5.52734C7.02148 4.98047 6.69922 4.70703 6.16211 4.70703C5.54688 4.70703 5.15625 5.08789 5.15625 5.70312L5.15625 12.1777C5.15625 12.5977 5.41016 12.8613 5.79102 12.8613ZM15.5957 12.8906C17.002 12.8906 18.0762 12.0117 18.0762 10.5469C18.0762 9.33594 17.3535 8.74023 16.5332 8.65234L16.5332 8.62305C17.4121 8.38867 17.8418 7.59766 17.8418 6.77734C17.8418 5.42969 16.8359 4.6582 15.5664 4.6582C14.5508 4.6582 13.6816 5.22461 13.3984 6.09375C13.3496 6.2793 13.3301 6.45508 13.3301 6.62109C13.3301 6.94336 13.5352 7.19727 13.9258 7.19727C14.2578 7.19727 14.4531 7.07031 14.5508 6.72852C14.707 6.15234 15.0098 5.79102 15.5664 5.79102C16.2109 5.79102 16.5137 6.28906 16.5137 6.93359C16.5137 7.64648 16.1133 8.16406 15.3809 8.16406L15.1562 8.16406C14.8242 8.16406 14.6094 8.36914 14.6094 8.69141C14.6094 9.01367 14.834 9.19922 15.1562 9.19922L15.4004 9.19922C16.2305 9.19922 16.6895 9.6582 16.6895 10.5078C16.6895 11.1816 16.3281 11.7578 15.6055 11.7578C14.8926 11.7578 14.5703 11.2793 14.4531 10.8301C14.3652 10.5176 14.1504 10.3516 13.8379 10.3516C13.457 10.3516 13.2031 10.5859 13.2031 10.9668C13.2031 11.1426 13.2227 11.3184 13.2715 11.4746C13.5547 12.3828 14.5508 12.8906 15.5957 12.8906Z" fill="var(--color-primary)"/>
 </g>
</svg>
