<svg version="1.1" xmlns="http://www.w3.org/2000/svg" xmlns:xlink="http://www.w3.org/1999/xlink" viewBox="0 0 25.2051 15.1855">
 <g>
  <rect height="15.1855" opacity="0" width="25.2051" x="0" y="0"/>
  <path d="M4.11133 11.9434C4.53125 11.9434 4.86328 11.6016 4.86328 11.1719L4.86328 3.95508C4.86328 3.54492 4.53125 3.20312 4.11133 3.20312C3.68164 3.20312 3.34961 3.54492 3.34961 3.95508L3.34961 11.1719C3.34961 11.6016 3.68164 11.9434 4.11133 11.9434ZM7.16797 11.3574C7.60742 11.3574 7.95898 10.9961 7.95898 10.5566C7.95898 10.127 7.60742 9.75586 7.16797 9.75586C6.73828 9.75586 6.36719 10.127 6.36719 10.5566C6.36719 10.9961 6.73828 11.3574 7.16797 11.3574ZM9.79492 11.3574C10.2246 11.3574 10.5859 10.9961 10.5859 10.5566C10.5859 10.127 10.2246 9.75586 9.79492 9.75586C9.35547 9.75586 8.99414 10.127 8.99414 10.5566C8.99414 10.9961 9.35547 11.3574 9.79492 11.3574ZM12.4219 11.3574C12.8516 11.3574 13.2129 10.9961 13.2129 10.5566C13.2129 10.127 12.8516 9.75586 12.4219 9.75586C11.9824 9.75586 11.6211 10.127 11.6211 10.5566C11.6211 10.9961 11.9824 11.3574 12.4219 11.3574ZM15.0391 11.3574C15.459 11.3574 15.8203 10.9961 15.8203 10.5566C15.8203 10.127 15.459 9.75586 15.0391 9.75586C14.5996 9.75586 14.248 10.127 14.248 10.5566C14.248 10.9961 14.5996 11.3574 15.0391 11.3574ZM17.6465 11.3574C18.0762 11.3574 18.4375 10.9961 18.4375 10.5566C18.4375 10.127 18.0762 9.75586 17.6465 9.75586C17.207 9.75586 16.8555 10.127 16.8555 10.5566C16.8555 10.9961 17.207 11.3574 17.6465 11.3574ZM8.47656 8.36914C8.91602 8.36914 9.26758 8.00781 9.26758 7.56836C9.26758 7.12891 8.91602 6.76758 8.47656 6.76758C8.04688 6.76758 7.68555 7.12891 7.68555 7.56836C7.68555 8.00781 8.04688 8.36914 8.47656 8.36914ZM11.1035 8.36914C11.543 8.36914 11.8945 8.00781 11.8945 7.56836C11.8945 7.12891 11.543 6.76758 11.1035 6.76758C10.6641 6.76758 10.3027 7.12891 10.3027 7.56836C10.3027 8.00781 10.6641 8.36914 11.1035 8.36914ZM13.7207 8.36914C14.1504 8.36914 14.5117 8.00781 14.5117 7.56836C14.5117 7.12891 14.1504 6.76758 13.7207 6.76758C13.291 6.76758 12.9297 7.12891 12.9297 7.56836C12.9297 8.00781 13.291 8.36914 13.7207 8.36914ZM16.3379 8.36914C16.7578 8.36914 17.1191 8.00781 17.1191 7.56836C17.1191 7.12891 16.7578 6.76758 16.3379 6.76758C15.8984 6.76758 15.5469 7.12891 15.5469 7.56836C15.5469 8.00781 15.8984 8.36914 16.3379 8.36914ZM7.16797 5.38086C7.60742 5.38086 7.95898 5.01953 7.95898 4.58984C7.95898 4.15039 7.60742 3.78906 7.16797 3.78906C6.73828 3.78906 6.36719 4.15039 6.36719 4.58984C6.36719 5.01953 6.73828 5.38086 7.16797 5.38086ZM9.79492 5.38086C10.2246 5.38086 10.5859 5.01953 10.5859 4.58984C10.5859 4.15039 10.2246 3.78906 9.79492 3.78906C9.35547 3.78906 8.99414 4.15039 8.99414 4.58984C8.99414 5.01953 9.35547 5.38086 9.79492 5.38086ZM12.4219 5.38086C12.8516 5.38086 13.2129 5.01953 13.2129 4.58984C13.2129 4.15039 12.8516 3.78906 12.4219 3.78906C11.9824 3.78906 11.6211 4.15039 11.6211 4.58984C11.6211 5.01953 11.9824 5.38086 12.4219 5.38086ZM15.0391 5.38086C15.459 5.38086 15.8203 5.01953 15.8203 4.58984C15.8203 4.15039 15.459 3.78906 15.0391 3.78906C14.5996 3.78906 14.248 4.15039 14.248 4.58984C14.248 5.01953 14.5996 5.38086 15.0391 5.38086ZM17.6465 5.38086C18.0762 5.38086 18.4375 5.01953 18.4375 4.58984C18.4375 4.15039 18.0762 3.78906 17.6465 3.78906C17.207 3.78906 16.8555 4.15039 16.8555 4.58984C16.8555 5.01953 17.207 5.38086 17.6465 5.38086ZM20.7031 11.9434C21.123 11.9434 21.4648 11.6016 21.4648 11.1719L21.4648 3.95508C21.4648 3.54492 21.123 3.20312 20.7031 3.20312C20.2832 3.20312 19.9414 3.54492 19.9414 3.95508L19.9414 11.1719C19.9414 11.6016 20.2832 11.9434 20.7031 11.9434ZM3.06641 15.166L21.7773 15.166C23.8184 15.166 24.8438 14.1504 24.8438 12.1387L24.8438 3.02734C24.8438 1.01562 23.8184 0 21.7773 0L3.06641 0C1.01562 0 0 1.01562 0 3.02734L0 12.1387C0 14.1504 1.01562 15.166 3.06641 15.166ZM3.08594 13.5938C2.10938 13.5938 1.57227 13.0664 1.57227 12.0508L1.57227 3.11523C1.57227 2.09961 2.10938 1.57227 3.08594 1.57227L21.7578 1.57227C22.7344 1.57227 23.2715 2.09961 23.2715 3.11523L23.2715 12.0508C23.2715 13.0664 22.7246 13.5938 21.7578 13.5938Z" fill="var(--color-primary)"/>
 </g>
</svg>
