<svg version="1.1" xmlns="http://www.w3.org/2000/svg" xmlns:xlink="http://www.w3.org/1999/xlink" viewBox="0 0 12.3757 22.0996">
 <g>
  <rect height="22.0996" opacity="0" width="12.3757" x="0" y="0"/>
  <path d="M6.00719 22.0801C9.40563 22.0801 11.4369 20.4395 11.7494 17.1094C12.1107 13.1348 12.1009 9.10156 11.7298 4.78516C11.4466 1.65039 9.40563 0 6.00719 0C2.60875 0 0.567737 1.65039 0.284534 4.78516C-0.0865601 9.10156-0.0963257 13.1348 0.265002 17.1094C0.577502 20.4395 2.60875 22.0801 6.00719 22.0801ZM5.99742 18.1348C5.69469 18.1348 5.58727 18.291 5.34313 18.291C5.09899 18.291 4.94274 18.0664 4.74742 17.793C4.51305 17.4609 4.33727 16.9727 4.33727 16.5039C4.33727 15.7422 4.83531 15.3516 5.3236 15.3516C5.55797 15.3516 5.74352 15.5078 5.9486 15.5078C6.15367 15.5078 6.32946 15.3516 6.64196 15.3516C6.74938 15.3516 7.14977 15.3516 7.40367 15.7129C7.38414 15.7324 6.99352 15.957 6.99352 16.4648C6.99352 17.0312 7.49156 17.2266 7.50133 17.2461C7.50133 17.2559 7.43297 17.5293 7.23766 17.8027C7.07164 18.0469 6.89586 18.291 6.64196 18.291C6.37828 18.291 6.30016 18.1348 5.99742 18.1348ZM5.90953 15.293C5.90953 14.7656 6.29039 14.375 6.69078 14.375C6.76891 14.8145 6.37828 15.3125 5.90953 15.293Z" fill="var(--color-primary)"/>
 </g>
</svg>
