<svg version="1.1" xmlns="http://www.w3.org/2000/svg" xmlns:xlink="http://www.w3.org/1999/xlink" width="22.1804" height="19.9316" viewBox="0 0 22.1804 19.9316">
 <g>
  <rect height="19.9316" opacity="0" width="22.1804" x="0" y="0"/>
  <path d="M11.8568 19.9219C17.2962 19.9219 21.8177 15.4004 21.8177 9.96094C21.8177 4.51172 17.2962 0 11.8568 0C6.40757 0 1.89585 4.50195 1.89585 9.95117L3.55601 9.95117C3.55601 5.3418 7.24741 1.66992 11.8568 1.66992C16.4662 1.66992 20.1576 5.35156 20.1576 9.96094C20.1576 14.5703 16.4662 18.2812 11.8568 18.2617C9.07358 18.252 6.63218 16.9043 5.13804 14.8242C4.8353 14.4238 4.37632 14.2969 3.96616 14.541C3.57554 14.7852 3.46811 15.3223 3.80015 15.752C5.65561 18.2422 8.56577 19.9219 11.8568 19.9219ZM0.694677 8.07617C-0.00844799 8.07617-0.184229 8.55469 0.19663 9.10156L2.38413 12.207C2.7064 12.6562 3.17515 12.6465 3.48765 12.207L5.67515 9.0918C6.04624 8.55469 5.87046 8.07617 5.1771 8.07617Z" fill="var(--color-secondary)"/>
  <path d="M9.01499 14.4727C9.38608 14.4727 9.63999 14.2285 9.63999 13.8184L9.63999 10.7129C9.63999 8.89648 10.2748 7.86133 11.3099 7.59766L11.3099 13.9355C11.3099 14.2578 11.5443 14.4727 11.8568 14.4727C12.1205 14.4727 12.3744 14.2578 12.3744 13.9355L12.3744 7.58789C13.4388 7.83203 14.0833 8.86719 14.0833 10.7129L14.0833 13.8184C14.0833 14.2285 14.3373 14.4727 14.7181 14.4727C15.0892 14.4727 15.3431 14.2285 15.3431 13.8184L15.3431 10.6348C15.3431 8.05664 14.1712 6.60156 12.3744 6.37695L12.3744 5.37109C12.3744 5.0293 12.1205 4.84375 11.8568 4.84375C11.5443 4.84375 11.3099 5.0293 11.3099 5.37109L11.3099 6.38672C9.53257 6.61133 8.36069 8.06641 8.36069 10.6348L8.36069 13.8184C8.36069 14.2285 8.6439 14.4727 9.01499 14.4727Z" fill="var(--color-primary)"/>
 </g>
</svg>
