<svg version="1.1" xmlns="http://www.w3.org/2000/svg" xmlns:xlink="http://www.w3.org/1999/xlink" viewBox="0 0 24.8047 19.9316">
 <g>
  <rect height="19.9316" opacity="0" width="24.8047" x="0" y="0"/>
  <path d="M12.2266 19.9219C17.7246 19.9219 22.1875 15.4492 22.1875 9.96094C22.1875 4.46289 17.7246 0 12.2266 0C6.72852 0 2.26562 4.46289 2.26562 9.96094L3.31055 9.96094L1.47461 7.35352C1.31836 7.12891 1.09375 6.98242 0.800781 6.98242C0.351562 6.98242 0 7.30469 0 7.75391C0 7.94922 0.0585938 8.13477 0.175781 8.28125L2.23633 10.8105C2.53906 11.2012 2.79297 11.3379 3.18359 11.3379C3.4375 11.3379 3.63281 11.2695 3.87695 11.0938L6.42578 9.20898C6.64062 9.05273 6.75781 8.81836 6.75781 8.56445C6.75781 8.10547 6.39648 7.77344 5.98633 7.77344C5.80078 7.77344 5.63477 7.83203 5.48828 7.93945L2.91016 9.96094L3.92578 9.96094C3.92578 5.37109 7.63672 1.66016 12.2266 1.66016C16.8164 1.66016 20.5273 5.37109 20.5273 9.96094C20.5273 14.5508 16.8164 18.2617 12.2266 18.2617C9.18945 18.2617 7.02148 16.6504 5.95703 15.4102C5.74219 15.1562 5.48828 15.0586 5.24414 15.0586C4.84375 15.0586 4.47266 15.3711 4.47266 15.8203C4.47266 16.0449 4.54102 16.2891 4.75586 16.543C5.86914 17.8516 8.45703 19.9219 12.2266 19.9219Z" fill="var(--color-primary)"/>
  <path d="M9.7168 13.1641C9.7168 13.6035 10.2051 13.8086 10.6348 13.5547L15.8594 10.459C16.2402 10.2344 16.2305 9.69727 15.8594 9.47266L10.6348 6.37695C10.2344 6.14258 9.7168 6.31836 9.7168 6.76758Z" fill="var(--color-primary)"/>
 </g>
</svg>
