<svg version="1.1" xmlns="http://www.w3.org/2000/svg" xmlns:xlink="http://www.w3.org/1999/xlink" viewBox="0 0 20.2832 19.9316">
 <g>
  <rect height="19.9316" opacity="0" width="20.2832" x="0" y="0"/>
  <path d="M9.96094 19.9219C15.459 19.9219 19.9219 15.459 19.9219 9.96094C19.9219 4.46289 15.459 0 9.96094 0C4.46289 0 0 4.46289 0 9.96094C0 15.459 4.46289 19.9219 9.96094 19.9219ZM9.96094 18.2617C5.37109 18.2617 1.66016 14.5508 1.66016 9.96094C1.66016 5.37109 5.37109 1.66016 9.96094 1.66016C14.5508 1.66016 18.2617 5.37109 18.2617 9.96094C18.2617 14.5508 14.5508 18.2617 9.96094 18.2617Z" fill="var(--color-primary)"/>
  <path d="M6.875 13.1445C7.2168 13.1445 7.39258 12.9102 7.39258 12.6172L7.39258 9.07227C7.39258 8.33008 7.73438 7.60742 8.49609 7.60742C9.18945 7.60742 9.47266 8.13477 9.47266 8.79883L9.47266 12.6172C9.47266 12.9199 9.67773 13.1445 9.96094 13.1445C10.2734 13.1445 10.4785 12.9199 10.4785 12.6172L10.4785 9.00391C10.4785 8.29102 10.8301 7.60742 11.5723 7.60742C12.2949 7.60742 12.5586 8.16406 12.5586 8.88672L12.5586 12.6172C12.5586 12.9199 12.7637 13.1445 13.0664 13.1445C13.3789 13.1445 13.584 12.9199 13.584 12.6172L13.584 8.63281C13.584 7.55859 13.0566 6.67969 11.875 6.67969C11.0547 6.67969 10.4395 7.16797 10.2832 7.88086L10.2441 7.88086C10.0781 7.10938 9.58008 6.67969 8.78906 6.67969C8.02734 6.67969 7.54883 7.1582 7.38281 7.85156L7.34375 7.85156L7.34375 7.20703C7.34375 6.89453 7.1582 6.68945 6.85547 6.68945C6.55273 6.68945 6.36719 6.89453 6.36719 7.20703L6.36719 12.6172C6.36719 12.9102 6.54297 13.1445 6.875 13.1445ZM7.1582 15.6055C7.32422 15.6055 7.40234 15.5273 7.48047 15.3516L12.0898 4.80469C12.1191 4.74609 12.1289 4.67773 12.1289 4.61914C12.1289 4.43359 12.002 4.31641 11.8164 4.31641C11.6504 4.31641 11.5625 4.42383 11.4941 4.57031L6.88477 15.1172C6.85547 15.1855 6.8457 15.2441 6.8457 15.3125C6.8457 15.4883 6.97266 15.6055 7.1582 15.6055Z" fill="var(--color-primary)"/>
 </g>
</svg>
