<svg version="1.1" xmlns="http://www.w3.org/2000/svg" xmlns:xlink="http://www.w3.org/1999/xlink" width="27.5879" height="15.127" viewBox="0 0 27.5879 15.127">
 <g>
  <rect height="15.127" opacity="0" width="27.5879" x="0" y="0"/>
  <path d="M0 8.125C0 12.2363 2.40234 14.3945 6.58203 14.3945L21.416 14.3945C22.9199 14.3945 24.1992 14.541 25.3906 14.8438C26.416 15.0977 27.2266 14.6777 27.2266 13.6328L27.2266 8.95508C27.2266 8.29102 26.748 7.80273 26.0742 7.80273L23.5449 7.80273C22.7344 7.80273 22.334 7.45117 22.4121 6.68945L22.7051 3.82812C22.9492 1.44531 21.5918 0 18.9355 0C15.8594 0.00976562 10.1855 0.126953 6.94336 0.507812C2.5 1.05469 0 3.76953 0 8.125ZM1.57227 8.125C1.57227 4.67773 3.53516 2.5 7.08008 2.08984C10.2832 1.72852 15.8691 1.57227 18.9355 1.57227C20.625 1.57227 21.3086 2.25586 21.1523 3.65234L20.3809 10.5859C20.1953 12.2266 19.4922 12.8223 17.6953 12.8223L6.55273 12.8223C3.41797 12.8223 1.57227 11.2012 1.57227 8.125Z" fill="var(--color-primary)"/>
  <path d="M1.57227 8.125C1.57227 4.67773 3.53516 2.5 7.08008 2.08984C10.2832 1.72852 15.8691 1.57227 18.9355 1.57227C20.625 1.57227 21.3086 2.25586 21.1523 3.65234L20.3809 10.5859C20.1953 12.2266 19.4922 12.8223 17.6953 12.8223L6.55273 12.8223C3.41797 12.8223 1.57227 11.2012 1.57227 8.125Z" fill="var(--color-tertiary)"/>
 </g>
</svg>
