<svg version="1.1" xmlns="http://www.w3.org/2000/svg" xmlns:xlink="http://www.w3.org/1999/xlink" viewBox="0 0 22.5879 21.8652">
 <g>
  <rect height="21.8652" opacity="0" width="22.5879" x="0" y="0"/>
  <path d="M18.8281 11.3574C19.0137 11.3574 19.1406 11.2305 19.1602 11.0352C19.4824 8.42773 19.6094 8.35938 22.2559 7.92969C22.4609 7.90039 22.5879 7.79297 22.5879 7.60742C22.5879 7.42188 22.4609 7.30469 22.2949 7.27539C19.6289 6.76758 19.4824 6.77734 19.1602 4.16992C19.1406 3.97461 19.0137 3.84766 18.8281 3.84766C18.6523 3.84766 18.5254 3.97461 18.4961 4.16016C18.1641 6.80664 18.0664 6.89453 15.3613 7.27539C15.1953 7.29492 15.0684 7.42188 15.0684 7.60742C15.0684 7.7832 15.1953 7.90039 15.3613 7.92969C18.0664 8.44727 18.1543 8.44727 18.4961 11.0547C18.5254 11.2305 18.6523 11.3574 18.8281 11.3574ZM14.1602 4.74609C14.2773 4.74609 14.3359 4.67773 14.3555 4.57031C14.6582 2.93945 14.6484 2.90039 16.3477 2.57812C16.4551 2.55859 16.5332 2.49023 16.5332 2.37305C16.5332 2.25586 16.4551 2.1875 16.3477 2.16797C14.6484 1.82617 14.707 1.78711 14.3555 0.175781C14.3359 0.0683594 14.2773 0 14.1602 0C14.043 0 13.9746 0.0683594 13.9551 0.175781C13.6133 1.78711 13.6719 1.82617 11.9727 2.16797C11.8555 2.1875 11.7871 2.25586 11.7871 2.37305C11.7871 2.49023 11.8555 2.55859 11.9727 2.57812C13.6719 2.91992 13.6523 2.93945 13.9551 4.57031C13.9746 4.67773 14.043 4.74609 14.1602 4.74609Z" fill="var(--color-primary)"/>
  <path d="M11.3477 20.2832C14.8145 20.2832 17.6562 18.3301 18.9355 15.5566C19.0918 15.2148 19.0527 14.9219 18.877 14.7461C18.7402 14.6094 18.4766 14.5898 18.1836 14.6875C17.3828 15.0098 16.4844 15.166 15.4395 15.166C11.084 15.166 8.27148 12.4316 8.27148 8.16406C8.27148 7.08008 8.55469 5.81055 8.87695 5.14648C9.04297 4.80469 9.04297 4.51172 8.88672 4.33594C8.73047 4.14062 8.42773 4.10156 8.05664 4.25781C5.05859 5.55664 3.04688 8.57422 3.04688 11.9629C3.04688 16.5625 6.65039 20.2832 11.3477 20.2832Z" fill="var(--color-primary)"/>
 </g>
</svg>
