<svg version="1.1" xmlns="http://www.w3.org/2000/svg" xmlns:xlink="http://www.w3.org/1999/xlink" viewBox="0 0 20.2832 19.9316">
 <g>
  <rect height="19.9316" opacity="0" width="20.2832" x="0" y="0"/>
  <path d="M9.96094 19.9219C15.459 19.9219 19.9219 15.459 19.9219 9.96094C19.9219 4.46289 15.459 0 9.96094 0C4.46289 0 0 4.46289 0 9.96094C0 15.459 4.46289 19.9219 9.96094 19.9219ZM9.96094 18.2617C5.37109 18.2617 1.66016 14.5508 1.66016 9.96094C1.66016 5.37109 5.37109 1.66016 9.96094 1.66016C14.5508 1.66016 18.2617 5.37109 18.2617 9.96094C18.2617 14.5508 14.5508 18.2617 9.96094 18.2617Z" fill="var(--color-primary)"/>
  <path d="M9.82422 15.6152C12.0215 15.6152 13.916 14.2676 14.5605 12.5977C14.7266 12.2266 14.5117 11.9141 14.1113 12.0508C13.7305 12.1875 13.0762 12.3242 12.4414 12.3242C9.67773 12.3242 7.90039 10.5762 7.90039 7.80273C7.90039 7.2168 8.05664 6.41602 8.21289 5.97656C8.36914 5.60547 8.11523 5.3418 7.68555 5.51758C5.79102 6.25 4.52148 8.30078 4.52148 10.4492C4.52148 13.457 6.81641 15.6152 9.82422 15.6152ZM12.7344 9.38477C12.8516 9.38477 12.9297 9.28711 12.9492 9.16992C13.1641 7.43164 13.2617 7.34375 15.0391 7.08008C15.1758 7.06055 15.2637 6.99219 15.2637 6.85547C15.2637 6.73828 15.1758 6.65039 15.0586 6.64062C13.2715 6.29883 13.2031 6.26953 12.9492 4.54102C12.9297 4.42383 12.8516 4.33594 12.7344 4.33594C12.6172 4.33594 12.5391 4.42383 12.5195 4.54102C12.2656 6.28906 12.2168 6.38672 10.4102 6.64062C10.2832 6.65039 10.2051 6.73828 10.2051 6.85547C10.2051 6.98242 10.2832 7.06055 10.4102 7.08008C12.2168 7.42188 12.2949 7.45117 12.5195 9.16992C12.5391 9.28711 12.6172 9.38477 12.7344 9.38477Z" fill="var(--color-primary)"/>
 </g>
</svg>
