<svg version="1.1" xmlns="http://www.w3.org/2000/svg" xmlns:xlink="http://www.w3.org/1999/xlink" viewBox="0 0 18.3398 17.998">
 <g>
  <rect height="17.998" opacity="0" width="18.3398" x="0" y="0"/>
  <path d="M0 13.0371L0 11.4648L11.4453 11.4648L11.4453 0.0195312L13.0176 0.0195312L13.0176 4.98047L17.9785 4.98047L17.9785 6.55273L13.0176 6.55273L13.0176 11.4648L17.9785 11.4648L17.9785 13.0371L13.0176 13.0371L13.0176 17.998L11.4453 17.998L11.4453 13.0371L6.5332 13.0371L6.5332 17.998L4.96094 17.998L4.96094 13.0371ZM3.06641 17.9883L14.9121 17.9883C16.9629 17.9883 17.9785 16.9824 17.9785 14.9707L17.9785 3.03711C17.9785 1.02539 16.9629 0.00976562 14.9121 0.00976562L3.06641 0.00976562C1.02539 0.00976562 0 1.02539 0 3.03711L0 14.9707C0 16.9824 1.02539 17.9883 3.06641 17.9883Z" fill="var(--color-primary)"/>
 </g>
</svg>
