<svg version="1.1" xmlns="http://www.w3.org/2000/svg" xmlns:xlink="http://www.w3.org/1999/xlink" viewBox="0 0 20.2832 19.9316">
 <g>
  <rect height="19.9316" opacity="0" width="20.2832" x="0" y="0"/>
  <path d="M9.96094 19.9219C15.459 19.9219 19.9219 15.459 19.9219 9.96094C19.9219 4.46289 15.459 0 9.96094 0C4.46289 0 0 4.46289 0 9.96094C0 15.459 4.46289 19.9219 9.96094 19.9219ZM9.96094 18.2617C5.37109 18.2617 1.66016 14.5508 1.66016 9.96094C1.66016 5.37109 5.37109 1.66016 9.96094 1.66016C14.5508 1.66016 18.2617 5.37109 18.2617 9.96094C18.2617 14.5508 14.5508 18.2617 9.96094 18.2617Z" fill="var(--color-primary)"/>
  <path d="M3.7207 13.1445C4.04297 13.1445 4.21875 12.9395 4.21875 12.6074L4.21875 8.45703L4.25781 8.45703L5.09766 12.4609C5.16602 12.793 5.35156 13.0273 5.68359 13.0273C6.02539 13.0273 6.20117 12.793 6.26953 12.4609L7.10938 8.45703L7.14844 8.45703L7.14844 12.6074C7.14844 12.9297 7.32422 13.1445 7.63672 13.1445C7.95898 13.1445 8.14453 12.9395 8.14453 12.6074L8.14453 7.55859C8.14453 7.06055 7.82227 6.76758 7.32422 6.76758C6.875 6.76758 6.61133 6.96289 6.52344 7.42188L5.69336 11.5332L5.68359 11.5332L4.82422 7.42188C4.72656 6.93359 4.44336 6.76758 4.0332 6.76758C3.45703 6.76758 3.21289 7.14844 3.21289 7.55859L3.21289 12.6074C3.21289 12.9297 3.39844 13.1445 3.7207 13.1445ZM9.47266 13.125C9.80469 13.125 10.0391 12.9395 10.0391 12.5391L10.0391 11.0059L10.6934 11.0059C11.8359 11.0059 12.4121 10.0195 12.4121 8.93555C12.4121 7.83203 11.8555 6.86523 10.7617 6.86523L9.47266 6.86523C9.16016 6.86523 8.92578 7.04102 8.92578 7.45117L8.92578 12.5391C8.92578 12.9688 9.19922 13.125 9.47266 13.125ZM10.0391 10.1172L10.0391 7.76367L10.4688 7.76367C11.0938 7.76367 11.3086 8.31055 11.3086 8.93555C11.3086 9.56055 11.0938 10.1172 10.459 10.1172ZM13.5547 13.1445C13.9258 13.1445 14.1211 12.8906 14.1211 12.5293L14.1211 10.3711L15.625 10.3711L15.625 12.5293C15.625 12.8516 15.8008 13.1445 16.1914 13.1445C16.5527 13.1445 16.748 12.9102 16.748 12.5293L16.748 7.36328C16.748 6.98242 16.543 6.76758 16.1914 6.76758C15.8105 6.76758 15.625 7.01172 15.625 7.36328L15.625 9.43359L14.1211 9.43359L14.1211 7.36328C14.1211 7.00195 13.9258 6.76758 13.5547 6.76758C13.1934 6.76758 12.998 7.00195 12.998 7.36328L12.998 12.5293C12.998 12.8906 13.1934 13.1445 13.5547 13.1445Z" fill="var(--color-primary)"/>
 </g>
</svg>
