<svg version="1.1" xmlns="http://www.w3.org/2000/svg" xmlns:xlink="http://www.w3.org/1999/xlink" viewBox="0 0 20.2832 19.9316">
 <g>
  <rect height="19.9316" opacity="0" width="20.2832" x="0" y="0"/>
  <path d="M9.96094 19.9219C15.459 19.9219 19.9219 15.459 19.9219 9.96094C19.9219 4.46289 15.459 0 9.96094 0C4.46289 0 0 4.46289 0 9.96094C0 15.459 4.46289 19.9219 9.96094 19.9219ZM9.96094 18.2617C5.37109 18.2617 1.66016 14.5508 1.66016 9.96094C1.66016 5.37109 5.37109 1.66016 9.96094 1.66016C14.5508 1.66016 18.2617 5.37109 18.2617 9.96094C18.2617 14.5508 14.5508 18.2617 9.96094 18.2617Z" fill="var(--color-primary)"/>
  <path d="M10.0977 7.51953L5.44922 12.5195C5.21484 12.7734 5.20508 13.0859 5.40039 13.3301L4.80469 14.0918C4.70703 14.2285 4.7168 14.4043 4.84375 14.5215L4.99023 14.668C5.10742 14.7852 5.27344 14.8047 5.41992 14.6973L6.19141 14.1016C6.42578 14.2969 6.73828 14.2871 6.98242 14.0625L9.41406 11.8066L9.41406 14.4434C9.41406 14.7559 9.6582 15.0098 9.98047 15.0098C10.293 15.0098 10.5469 14.7559 10.5469 14.4434L10.5469 10.752L11.9727 9.42383C12.5977 9.49219 13.2129 9.23828 13.7402 8.69141L10.8105 5.76172C10.2734 6.30859 10.0293 6.9043 10.0977 7.51953ZM6.19141 13.0078L10.4688 8.4668C10.5371 8.57422 10.6152 8.67188 10.7227 8.78906C10.8105 8.88672 10.918 8.97461 11.0254 9.04297L6.50391 13.3301ZM14.3066 5.19531C13.418 4.30664 12.2266 4.3457 11.3086 5.26367L14.2383 8.19336C15.166 7.27539 15.1953 6.08398 14.3066 5.19531Z" fill="var(--color-primary)"/>
 </g>
</svg>
