<svg version="1.1" xmlns="http://www.w3.org/2000/svg" xmlns:xlink="http://www.w3.org/1999/xlink" viewBox="0 0 20.2832 19.9316">
 <g>
  <rect height="19.9316" opacity="0" width="20.2832" x="0" y="0"/>
  <path d="M19.9219 9.96094C19.9219 15.4492 15.459 19.9219 9.96094 19.9219C4.47266 19.9219 0 15.4492 0 9.96094C0 4.46289 4.47266 0 9.96094 0C15.459 0 19.9219 4.46289 19.9219 9.96094ZM12.2266 5.9668L12.2266 11.9238L12.1484 11.9238L7.77344 5.64453C7.51953 5.2832 7.29492 5.15625 6.96289 5.15625C6.46484 5.15625 6.18164 5.48828 6.18164 6.00586L6.18164 13.7695C6.18164 14.2676 6.45508 14.5801 6.92383 14.5801C7.40234 14.5801 7.68555 14.2871 7.68555 13.7695L7.68555 7.91992L7.75391 7.91992L12.1387 14.0918C12.4023 14.4629 12.6074 14.5801 12.9395 14.5801C13.4375 14.5801 13.7402 14.2773 13.7402 13.7402L13.7402 5.9668C13.7402 5.45898 13.457 5.15625 12.9688 5.15625C12.5 5.15625 12.2266 5.47852 12.2266 5.9668Z" fill="var(--color-primary)"/>
 </g>
</svg>
