<svg version="1.1" xmlns="http://www.w3.org/2000/svg" xmlns:xlink="http://www.w3.org/1999/xlink" viewBox="0 0 20.2832 19.9316">
 <g>
  <rect height="19.9316" opacity="0" width="20.2832" x="0" y="0"/>
  <path d="M9.96094 19.9219C15.459 19.9219 19.9219 15.459 19.9219 9.96094C19.9219 4.46289 15.459 0 9.96094 0C4.46289 0 0 4.46289 0 9.96094C0 15.459 4.46289 19.9219 9.96094 19.9219ZM9.96094 18.2617C5.37109 18.2617 1.66016 14.5508 1.66016 9.96094C1.66016 5.37109 5.37109 1.66016 9.96094 1.66016C14.5508 1.66016 18.2617 5.37109 18.2617 9.96094C18.2617 14.5508 14.5508 18.2617 9.96094 18.2617Z" fill="var(--color-primary)"/>
  <path d="M7.00195 14.4336C7.4707 14.4336 7.74414 14.1504 7.74414 13.6523L7.74414 7.96875L7.80273 7.96875L12.0605 13.9648C12.3242 14.3262 12.5195 14.4336 12.8418 14.4336C13.3203 14.4336 13.6133 14.1406 13.6133 13.623L13.6133 6.08398C13.6133 5.5957 13.3398 5.30273 12.8711 5.30273C12.4121 5.30273 12.1484 5.61523 12.1484 6.08398L12.1484 11.875L12.0801 11.875L7.83203 5.77148C7.57812 5.41992 7.36328 5.30273 7.04102 5.30273C6.5625 5.30273 6.28906 5.625 6.28906 6.12305L6.28906 13.6523C6.28906 14.1309 6.55273 14.4336 7.00195 14.4336Z" fill="var(--color-primary)"/>
 </g>
</svg>
