<svg version="1.1" xmlns="http://www.w3.org/2000/svg" xmlns:xlink="http://www.w3.org/1999/xlink" viewBox="0 0 22.0654 21.7141">
 <g>
  <rect height="21.7141" opacity="0" width="22.0654" x="0" y="0"/>
  <path d="M3.55995 6.24724C2.70827 7.57636 2.21924 9.15745 2.21924 10.8521C2.21924 10.9738 2.22176 11.0949 2.23746 11.2126C3.22233 12.0605 4.29877 12.7549 5.43467 13.2941C5.45358 11.76 5.69293 10.2563 6.13248 8.82117L7.08276 9.77197C6.74153 11.072 6.57704 12.427 6.60855 13.8052C7.80641 14.2761 9.05538 14.5832 10.3209 14.7304C10.1333 14.0413 10.0007 13.3355 9.92609 12.6168L11.3704 14.0619C11.4262 14.3202 11.4922 14.5757 11.5753 14.8259L12.1326 14.8245L13.2684 15.961C12.8345 16.003 12.3991 16.0167 11.9642 16.0025C12.3578 17.0752 12.8818 18.0994 13.5279 19.0566C14.2141 18.8379 14.8607 18.5315 15.4529 18.1467L16.4179 19.1122C14.8285 20.186 12.913 20.8131 10.8521 20.8131C5.354 20.8131 0.891113 16.3502 0.891113 10.8521C0.891113 8.78925 1.5194 6.87207 2.59503 5.28178ZM7.4598 18.7904C8.50067 19.238 9.64767 19.485 10.8521 19.485C11.3523 19.485 11.8426 19.4424 12.3165 19.3514C11.6288 18.2809 11.0822 17.1382 10.6842 15.9431C9.31519 15.8361 7.96075 15.5485 6.65636 15.0922C6.74413 16.3611 7.01336 17.5994 7.4598 18.7904ZM5.94248 17.9473C5.65044 16.8564 5.48758 15.7434 5.45896 14.6194C4.41714 14.1673 3.41741 13.6 2.47939 12.9204C2.98026 14.994 4.23787 16.7705 5.94248 17.9473ZM20.813 10.8521C20.813 12.9201 20.1817 14.8415 19.1007 16.4337L16.7568 14.0885C17.5924 13.8294 18.4077 13.4833 19.1915 13.0495C19.3863 12.3506 19.4849 11.6128 19.4849 10.8521C19.4849 10.0118 19.3646 9.19937 19.1346 8.43354C17.7658 9.41971 16.2134 10.1039 14.5662 10.4525C14.9852 11.675 15.5931 12.7868 16.3838 13.7153L13.4197 10.7495L13.3883 10.6518L13.3295 10.6593L12.2282 9.55746C12.5097 9.55781 12.7881 9.53865 13.0631 9.50341C12.8197 8.46817 12.6907 7.38387 12.6782 6.28183C12.6706 5.10978 12.8191 3.96778 13.1359 2.87064C12.0948 4.5764 11.4191 6.47256 11.1358 8.46441L10.1205 7.44862C10.4742 5.63823 11.1386 3.90407 12.0864 2.3177C11.9557 2.28823 11.8206 2.27205 11.684 2.26138C10.4665 3.33983 9.44504 4.59539 8.64622 5.97349L7.7913 5.1181C8.40722 4.09168 9.14297 3.13319 9.98855 2.26298C8.61743 2.39842 7.34065 2.85585 6.23903 3.56498L5.27483 2.60025C6.86627 1.52137 8.78608 0.891208 10.8521 0.891208C16.3501 0.891208 20.813 5.3541 20.813 10.8521ZM17.7333 15.0007C17.8878 15.1215 18.0491 15.234 18.2154 15.3397C18.3576 15.1263 18.482 14.9008 18.5878 14.6645C18.3071 14.7903 18.0227 14.9047 17.7333 15.0007ZM13.8599 6.27207C13.8726 7.31684 13.9977 8.34166 14.2346 9.31435C15.857 8.98038 17.3791 8.28701 18.7 7.27257C17.8311 5.35207 16.2741 3.81145 14.3433 2.96159C14.0102 4.02111 13.8518 5.14326 13.8599 6.27207Z" fill="var(--color-primary)"/>
  <path d="M19.2798 20.3541C19.5728 20.6471 20.061 20.6373 20.3442 20.3443C20.6372 20.0514 20.6372 19.5728 20.3442 19.2799L2.43408 1.36972C2.14111 1.07676 1.65283 1.06699 1.35986 1.36972C1.06689 1.65293 1.06689 2.14121 1.35986 2.43418Z" fill="var(--color-primary)"/>
 </g>
</svg>
