<svg version="1.1" xmlns="http://www.w3.org/2000/svg" xmlns:xlink="http://www.w3.org/1999/xlink" viewBox="0 0 13.9551 13.9933">
 <g>
  <rect height="13.9933" opacity="0" width="13.9551" x="0" y="0"/>
  <path d="M1.78711 13.7886C2.2168 14.0914 2.76367 14.0035 3.07617 13.564L12.002 1.40583C12.2949 1.0152 12.2266 0.487858 11.7969 0.194889C11.3574-0.107845 10.8887-0.0785481 10.5176 0.429264L1.66016 12.4996C1.33789 12.9488 1.31836 13.4761 1.78711 13.7886ZM0.869141 4.7945L12.7246 4.7945C13.1934 4.7945 13.5938 4.39411 13.5938 3.91559C13.5938 3.43708 13.1934 3.04645 12.7246 3.04645L0.869141 3.04645C0.400391 3.04645 0 3.43708 0 3.91559C0 4.39411 0.400391 4.7945 0.869141 4.7945ZM0.869141 10.9664L12.7246 10.9664C13.1934 10.9664 13.5938 10.5757 13.5938 10.0972C13.5938 9.61872 13.1934 9.21833 12.7246 9.21833L0.869141 9.21833C0.400391 9.21833 0 9.61872 0 10.0972C0 10.5757 0.400391 10.9664 0.869141 10.9664Z" fill="var(--color-primary)"/>
 </g>
</svg>
