<svg version="1.1" xmlns="http://www.w3.org/2000/svg" xmlns:xlink="http://www.w3.org/1999/xlink" viewBox="0 0 18.3398 17.9785">
 <g>
  <rect height="17.9785" opacity="0" width="18.3398" x="0" y="0"/>
  <path d="M3.06641 17.9785L14.9121 17.9785C16.9629 17.9785 17.9785 16.9727 17.9785 14.9609L17.9785 3.02734C17.9785 1.01562 16.9629 0 14.9121 0L3.06641 0C1.02539 0 0 1.01562 0 3.02734L0 14.9609C0 16.9727 1.02539 17.9785 3.06641 17.9785ZM3.08594 16.4062C2.10938 16.4062 1.57227 15.8887 1.57227 14.873L1.57227 3.11523C1.57227 2.09961 2.10938 1.57227 3.08594 1.57227L14.8926 1.57227C15.8594 1.57227 16.4062 2.09961 16.4062 3.11523L16.4062 14.873C16.4062 15.8887 15.8594 16.4062 14.8926 16.4062Z" fill="var(--color-primary)"/>
  <path d="M5.3125 11.543L12.666 11.543C13.1641 11.543 13.5156 11.2988 13.5156 10.8105C13.5156 10.3125 13.1836 10.0586 12.666 10.0586L5.3125 10.0586C4.79492 10.0586 4.46289 10.3125 4.46289 10.8105C4.46289 11.2988 4.81445 11.543 5.3125 11.543ZM5.3125 7.93945L12.666 7.93945C13.1641 7.93945 13.5156 7.69531 13.5156 7.19727C13.5156 6.69922 13.1836 6.44531 12.666 6.44531L5.3125 6.44531C4.79492 6.44531 4.46289 6.69922 4.46289 7.19727C4.46289 7.69531 4.81445 7.93945 5.3125 7.93945ZM5.72266 13.4766C6.11328 13.7695 6.5332 13.6328 6.82617 13.2324L12.3633 5.67383C12.6562 5.26367 12.666 4.84375 12.2656 4.55078C11.8652 4.25781 11.4648 4.36523 11.1621 4.78516L5.61523 12.3438C5.3125 12.7637 5.32227 13.1836 5.72266 13.4766Z" fill="var(--color-primary)"/>
 </g>
</svg>
