<svg version="1.1" xmlns="http://www.w3.org/2000/svg" xmlns:xlink="http://www.w3.org/1999/xlink" width="20.0391" height="18.9355" viewBox="0 0 20.0391 18.9355">
 <g>
  <rect height="18.9355" opacity="0" width="20.0391" x="0" y="0"/>
  <path d="M6.875 18.9258L12.8027 18.9258C14.043 18.9258 14.6289 18.5254 15.2734 17.832L18.8672 13.8477C19.5117 13.1348 19.6777 12.666 19.6777 11.6992L19.6777 7.23633C19.6777 6.25977 19.5117 5.80078 18.8672 5.08789L15.2734 1.10352C14.6289 0.410156 14.043 0 12.8027 0L6.875 0C5.63477 0 5.03906 0.410156 4.4043 1.10352L0.810547 5.08789C0.166016 5.80078 0 6.25977 0 7.23633L0 11.6992C0 12.666 0.166016 13.1348 0.810547 13.8477L4.4043 17.832C5.03906 18.5254 5.63477 18.9258 6.875 18.9258ZM1.80664 9.46289L1.80664 7.42188C1.80664 6.70898 1.89453 6.46484 2.27539 6.03516L5.60547 2.37305C6.14258 1.77734 6.42578 1.57227 7.40234 1.57227L12.2754 1.57227C13.252 1.57227 13.5254 1.77734 14.0723 2.37305L17.3926 6.03516C17.7832 6.46484 17.8711 6.70898 17.8711 7.42188L17.8711 9.46289Z" fill="var(--color-primary)"/>
 </g>
</svg>
