<svg version="1.1" xmlns="http://www.w3.org/2000/svg" xmlns:xlink="http://www.w3.org/1999/xlink" viewBox="0 0 31.2988 13.8119">
 <g>
  <rect height="13.8119" opacity="0" width="31.2988" x="0" y="0"/>
  <path d="M14.7266 6.90107C14.7266 4.08857 11.7285 1.38349 8.70117 1.38349L8.4082 1.38349C6.99219 1.38349 6.34766 1.9206 5.97656 3.34638C5.74219 4.33271 5.61523 5.43622 5.61523 6.90107C5.61523 8.35615 5.74219 9.45966 5.97656 10.4655C6.34766 11.8815 6.99219 12.4089 8.4082 12.4089L8.70117 12.4089C11.7285 12.4089 14.7266 9.71357 14.7266 6.90107ZM16.2109 6.90107C16.2109 9.71357 19.209 12.4089 22.2461 12.4089L22.5293 12.4089C23.9551 12.4089 24.5996 11.8815 24.9707 10.4655C25.1953 9.45966 25.3223 8.35615 25.3223 6.90107C25.3223 5.43622 25.1953 4.33271 24.9707 3.34638C24.5996 1.9206 23.9551 1.38349 22.5293 1.38349L22.2461 1.38349C19.209 1.38349 16.2109 4.08857 16.2109 6.90107ZM3.24219 2.77997C3.60352 2.99482 4.0332 2.8874 4.24805 2.50654C4.46289 2.16474 4.3457 1.71552 3.98438 1.51044L1.54297 0.104192C1.19141-0.110652 0.761719 0.0163015 0.556641 0.397161C0.341797 0.738958 0.449219 1.16865 0.820312 1.37372ZM3.53516 6.15888L0.722656 6.15888C0.302734 6.15888 0 6.47138 0 6.8913C0 7.31122 0.302734 7.62372 0.722656 7.62372L3.53516 7.62372C3.95508 7.62372 4.26758 7.31122 4.26758 6.8913C4.26758 6.47138 3.95508 6.15888 3.53516 6.15888ZM3.24219 11.0026L0.820312 12.4089C0.449219 12.6237 0.341797 13.0436 0.556641 13.3952C0.761719 13.7663 1.19141 13.8933 1.54297 13.6882L3.98438 12.2819C4.3457 12.0671 4.46289 11.6276 4.24805 11.2761C4.0332 10.905 3.60352 10.7976 3.24219 11.0026ZM27.6953 2.77997L30.127 1.37372C30.4883 1.16865 30.5957 0.738958 30.3906 0.397161C30.1758 0.0163015 29.7559-0.110652 29.3945 0.104192L26.9531 1.51044C26.6016 1.71552 26.4844 2.16474 26.6992 2.50654C26.9043 2.8874 27.334 2.99482 27.6953 2.77997ZM27.4121 6.15888C26.9922 6.15888 26.6699 6.47138 26.6699 6.8913C26.6699 7.31122 26.9922 7.62372 27.4121 7.62372L30.2148 7.62372C30.6348 7.62372 30.9375 7.31122 30.9375 6.8913C30.9375 6.47138 30.6348 6.15888 30.2148 6.15888ZM27.6953 11.0026C27.334 10.7976 26.9043 10.905 26.6992 11.2761C26.4844 11.6276 26.6016 12.0671 26.9531 12.2819L29.3945 13.6882C29.7559 13.8933 30.1758 13.7663 30.3906 13.3952C30.5957 13.0436 30.4883 12.6237 30.127 12.4089Z" fill="var(--color-primary)"/>
 </g>
</svg>
