<svg version="1.1" xmlns="http://www.w3.org/2000/svg" xmlns:xlink="http://www.w3.org/1999/xlink" viewBox="0 0 23.3887 17.9785">
 <g>
  <rect height="17.9785" opacity="0" width="23.3887" x="0" y="0"/>
  <path d="M23.0273 3.02734L23.0273 14.9609C23.0273 16.9727 22.0117 17.9785 19.9609 17.9785L3.06641 17.9785C1.02539 17.9785 0 16.9727 0 14.9609L0 3.02734C0 1.01562 1.02539 0 3.06641 0L19.9609 0C22.0117 0 23.0273 1.01562 23.0273 3.02734ZM8.68164 5.05859C8.17383 5.05859 7.94922 5.33203 7.94922 5.71289L7.94922 12.2559C7.94922 12.6465 8.17383 12.9199 8.68164 12.9199L9.66797 12.9199C10.166 12.9199 10.3906 12.6465 10.3906 12.2559L10.3906 5.71289C10.3906 5.33203 10.166 5.05859 9.66797 5.05859ZM13.3887 5.05859C12.8906 5.05859 12.6562 5.33203 12.6562 5.71289L12.6562 12.2559C12.6562 12.6465 12.8906 12.9199 13.3887 12.9199L14.3848 12.9199C14.873 12.9199 15.0977 12.6465 15.0977 12.2559L15.0977 5.71289C15.0977 5.33203 14.873 5.05859 14.3848 5.05859Z" fill="var(--color-primary)"/>
 </g>
</svg>
