<svg version="1.1" xmlns="http://www.w3.org/2000/svg" xmlns:xlink="http://www.w3.org/1999/xlink" viewBox="0 0 16.9434 20.9863">
 <g>
  <rect height="20.9863" opacity="0" width="16.9434" x="0" y="0"/>
  <path d="M16.582 2.95898L16.5723 18.0469C16.5723 19.8828 15.459 20.9766 13.6035 20.9766L5.68359 20.9766C3.82812 20.9766 2.71484 19.8828 2.71484 18.0469L2.71484 12.8125L2.03125 11.9141C0.615234 10.0781 0 8.33008 0 5.72266L0 4.22852C0 1.64062 1.62109 0 4.21875 0L13.6328 0C15.4004 0 16.582 1.20117 16.582 2.95898ZM6.50391 15.8691C6.13281 15.8691 5.83008 16.1621 5.83008 16.5234C5.83008 16.8945 6.13281 17.1973 6.50391 17.1973L12.8613 17.1973C13.2227 17.1973 13.5156 16.8945 13.5156 16.5234C13.5156 16.1621 13.2227 15.8691 12.8613 15.8691ZM6.50391 12.1289C6.13281 12.1289 5.83008 12.4316 5.83008 12.8027C5.83008 13.1641 6.13281 13.457 6.50391 13.457L12.8613 13.457C13.2227 13.457 13.5156 13.1641 13.5156 12.8027C13.5156 12.4316 13.2227 12.1289 12.8613 12.1289ZM4.96094 8.42773C4.59961 8.42773 4.29688 8.7207 4.29688 9.08203C4.29688 9.45312 4.59961 9.75586 4.96094 9.75586L12.8613 9.75586C13.2227 9.75586 13.5156 9.45312 13.5156 9.08203C13.5156 8.7207 13.2227 8.42773 12.8613 8.42773ZM4.05273 4.6875C3.69141 4.6875 3.39844 4.99023 3.39844 5.36133C3.39844 5.72266 3.69141 6.01562 4.05273 6.01562L12.8613 6.01562C13.2227 6.01562 13.5156 5.72266 13.5156 5.36133C13.5156 4.99023 13.2227 4.6875 12.8613 4.6875Z" fill="var(--color-primary)"/>
 </g>
</svg>
