<svg version="1.1" xmlns="http://www.w3.org/2000/svg" xmlns:xlink="http://www.w3.org/1999/xlink" width="20.2832" height="19.9316" viewBox="0 0 20.2832 19.9316">
 <g>
  <rect height="19.9316" opacity="0" width="20.2832" x="0" y="0"/>
  <path d="M9.96094 19.9219C15.4102 19.9219 19.9219 15.4004 19.9219 9.96094C19.9219 4.51172 15.4004 0 9.95117 0C4.51172 0 0 4.51172 0 9.96094C0 15.4004 4.52148 19.9219 9.96094 19.9219Z" fill="var(--color-tertiary)"/>
  <path d="M4.90234 9.96094C4.90234 10.5469 4.99023 11.1035 5.16602 11.6309L4.01367 12.1094C3.76953 11.4453 3.62305 10.7031 3.62305 9.96094C3.62305 9.20898 3.76953 8.4668 4.01367 7.8125L5.16602 8.29102C4.99023 8.81836 4.90234 9.36523 4.90234 9.96094ZM7.75391 5.39062C6.71875 5.88867 5.87891 6.71875 5.40039 7.74414L4.22852 7.26562C4.86328 5.95703 5.94727 4.86328 7.25586 4.22852ZM9.95117 4.88281C9.36523 4.88281 8.80859 4.98047 8.28125 5.16602L7.80273 4.01367C8.45703 3.76953 9.21875 3.61328 9.95117 3.61328C10.7031 3.61328 11.4355 3.76953 12.0898 4.01367L11.6309 5.16602C11.1035 4.98047 10.5371 4.88281 9.95117 4.88281ZM14.5215 7.74414C14.0332 6.71875 13.1934 5.87891 12.1777 5.39062L12.6465 4.21875C13.9648 4.86328 15.0488 5.95703 15.6934 7.26562ZM15.0391 9.96094C15.0391 9.36523 14.9414 8.81836 14.7559 8.29102L15.9082 7.8125C16.1523 8.47656 16.3086 9.20898 16.3086 9.96094C16.3086 10.7031 16.1523 11.4453 15.9082 12.1094L14.7559 11.6309C14.9414 11.1035 15.0391 10.5469 15.0391 9.96094ZM9.96094 16.2988C7.48047 16.2988 5.27344 14.7949 4.23828 12.6562L5.41016 12.168C5.5957 12.5781 5.82031 12.9395 6.10352 13.252C6.78711 12.5586 8.17383 11.9141 9.96094 11.9141C11.748 11.9141 13.1445 12.5586 13.8184 13.2617C14.1016 12.9395 14.3262 12.5781 14.5215 12.168L15.7031 12.6562C14.6484 14.7949 12.4512 16.2988 9.96094 16.2988ZM9.96094 11.123C8.7207 11.1133 7.75391 10.0684 7.75391 8.70117C7.73438 7.40234 8.73047 6.32812 9.96094 6.32812C11.1914 6.32812 12.1777 7.40234 12.1777 8.70117C12.1777 10.0684 11.1914 11.1328 9.96094 11.123Z" fill="var(--color-primary)"/>
 </g>
</svg>
