<svg version="1.1" xmlns="http://www.w3.org/2000/svg" xmlns:xlink="http://www.w3.org/1999/xlink" viewBox="0 0 20.2832 19.9316">
 <g>
  <rect height="19.9316" opacity="0" width="20.2832" x="0" y="0"/>
  <path d="M9.96094 19.9219C15.459 19.9219 19.9219 15.459 19.9219 9.96094C19.9219 4.46289 15.459 0 9.96094 0C4.46289 0 0 4.46289 0 9.96094C0 15.459 4.46289 19.9219 9.96094 19.9219ZM9.96094 18.2617C5.37109 18.2617 1.66016 14.5508 1.66016 9.96094C1.66016 5.37109 5.37109 1.66016 9.96094 1.66016C14.5508 1.66016 18.2617 5.37109 18.2617 9.96094C18.2617 14.5508 14.5508 18.2617 9.96094 18.2617Z" fill="var(--color-primary)"/>
  <path d="M3.39844 8.96484C3.39844 10.5762 4.54102 11.7188 6.14258 11.7188L6.47461 11.7188C6.41602 11.4551 6.38672 10.9766 6.42578 10.6641L6.21094 10.6641C5.20508 10.6641 4.51172 9.98047 4.51172 8.96484C4.51172 7.95898 5.20508 7.25586 6.21094 7.25586L10.1367 7.25586C11.1426 7.25586 11.8359 7.95898 11.8359 8.96484C11.8359 9.98047 11.1523 10.6641 10.1367 10.6641L8.67188 10.6641C8.56445 10.957 8.60352 11.4355 8.89648 11.7188L10.1953 11.7188C11.7969 11.7188 12.9395 10.5762 12.9395 8.96484C12.9395 7.35352 11.7969 6.20117 10.1953 6.20117L6.14258 6.20117C4.54102 6.20117 3.39844 7.35352 3.39844 8.96484ZM6.96289 11.0352C6.96289 12.6465 8.10547 13.7988 9.7168 13.7988L13.7598 13.7988C15.3613 13.7988 16.5137 12.6465 16.5137 11.0352C16.5137 9.42383 15.3711 8.28125 13.7598 8.28125L13.4277 8.28125C13.4766 8.56445 13.5352 8.87695 13.4766 9.33594L13.7012 9.33594C14.707 9.33594 15.4004 10.0293 15.4004 11.0352C15.4004 12.041 14.707 12.7441 13.7012 12.7441L9.76562 12.7441C8.75977 12.7441 8.06641 12.041 8.06641 11.0352C8.06641 10.0293 8.75977 9.33594 9.76562 9.33594L11.2207 9.33594C11.3477 9.05273 11.3086 8.54492 11.0059 8.28125L9.7168 8.28125C8.10547 8.28125 6.96289 9.42383 6.96289 11.0352Z" fill="var(--color-primary)"/>
 </g>
</svg>
