<svg version="1.1" xmlns="http://www.w3.org/2000/svg" xmlns:xlink="http://www.w3.org/1999/xlink" width="35.0195" height="16.0449" viewBox="0 0 35.0195 16.0449">
 <g>
  <rect height="16.0449" opacity="0" width="35.0195" x="0" y="0"/>
  <path d="M7.23633 8.01758C9.28711 8.01758 10.9863 6.19141 10.9863 3.95508C10.9863 1.74805 9.30664 0 7.23633 0C5.17578 0 3.49609 1.77734 3.49609 3.96484C3.49609 6.20117 5.18555 8.01758 7.23633 8.01758ZM2.14844 15.9863L12.3145 15.9863C13.7305 15.9863 14.4629 15.5273 14.4629 14.5312C14.4629 12.2852 11.8555 9.02344 7.22656 9.02344C2.60742 9.02344 0 12.2852 0 14.5312C0 15.5273 0.722656 15.9863 2.14844 15.9863ZM27.4414 8.06641C29.4922 8.06641 31.1816 6.24023 31.1816 4.00391C31.1816 1.79688 29.5117 0.0488281 27.4414 0.0488281C25.3809 0.0488281 23.6914 1.82617 23.6914 4.01367C23.6914 6.25 25.3809 8.06641 27.4414 8.06641ZM22.3535 16.0352L32.5098 16.0352C33.9355 16.0352 34.6582 15.5762 34.6582 14.5801C34.6582 12.334 32.0605 9.07227 27.4316 9.07227C22.8027 9.07227 20.2051 12.334 20.2051 14.5801C20.2051 15.5762 20.9277 16.0352 22.3535 16.0352Z" fill="var(--color-primary)"/>
  <path d="M14.1016 8.10547C14.5605 8.10547 14.9414 7.72461 14.9414 7.26562C14.9414 6.80664 14.5605 6.42578 14.1016 6.42578C13.6426 6.42578 13.2617 6.80664 13.2617 7.26562C13.2617 7.72461 13.6426 8.10547 14.1016 8.10547ZM17.3438 8.10547C17.8027 8.10547 18.1836 7.72461 18.1836 7.26562C18.1836 6.80664 17.8027 6.42578 17.3438 6.42578C16.8848 6.42578 16.5039 6.80664 16.5039 7.26562C16.5039 7.72461 16.8848 8.10547 17.3438 8.10547ZM20.5664 8.10547C21.0254 8.10547 21.4062 7.72461 21.4062 7.26562C21.4062 6.80664 21.0254 6.42578 20.5664 6.42578C20.1074 6.42578 19.7266 6.80664 19.7266 7.26562C19.7266 7.72461 20.1074 8.10547 20.5664 8.10547Z" fill="var(--color-secondary)"/>
 </g>
</svg>
