<svg version="1.1" xmlns="http://www.w3.org/2000/svg" xmlns:xlink="http://www.w3.org/1999/xlink" width="24.209" height="17.5684" viewBox="0 0 24.209 17.5684">
 <g>
  <rect height="17.5684" opacity="0" width="24.209" x="0" y="0"/>
  <path d="M1.66992 17.5586L14.7656 17.5586C15.8105 17.5586 16.4355 17.0703 16.4355 16.2598C16.4355 13.7402 13.2812 10.2637 8.21289 10.2637C3.1543 10.2637 0 13.7402 0 16.2598C0 17.0703 0.625 17.5586 1.66992 17.5586ZM8.22266 8.51562C10.3125 8.51562 12.1289 6.64062 12.1289 4.19922C12.1289 1.78711 10.3125 0 8.22266 0C6.13281 0 4.31641 1.82617 4.31641 4.21875C4.31641 6.64062 6.12305 8.51562 8.22266 8.51562Z" fill="var(--color-secondary)"/>
  <path d="M16.3867 8.36914C16.6113 8.36914 16.8066 8.28125 16.9531 8.125L19.7168 5.35156L22.5 8.125C22.6465 8.27148 22.832 8.36914 23.0566 8.36914C23.4961 8.36914 23.8379 8.00781 23.8379 7.57812C23.8379 7.35352 23.7598 7.17773 23.6035 7.02148L20.8301 4.24805L23.6133 1.45508C23.7793 1.28906 23.8477 1.12305 23.8477 0.908203C23.8477 0.478516 23.5059 0.126953 23.0664 0.126953C22.8613 0.126953 22.6953 0.205078 22.5293 0.371094L19.7168 3.1543L16.9336 0.380859C16.7871 0.224609 16.6113 0.146484 16.3867 0.146484C15.957 0.146484 15.6055 0.488281 15.6055 0.917969C15.6055 1.13281 15.6934 1.31836 15.8398 1.46484L18.6133 4.24805L15.8398 7.03125C15.6934 7.17773 15.6055 7.36328 15.6055 7.57812C15.6055 8.00781 15.957 8.36914 16.3867 8.36914Z" fill="var(--color-primary)"/>
 </g>
</svg>
