<svg version="1.1" xmlns="http://www.w3.org/2000/svg" xmlns:xlink="http://www.w3.org/1999/xlink" viewBox="0 0 20.2832 19.9316">
 <g>
  <rect height="19.9316" opacity="0" width="20.2832" x="0" y="0"/>
  <path d="M9.96094 19.9219C15.459 19.9219 19.9219 15.459 19.9219 9.96094C19.9219 4.46289 15.459 0 9.96094 0C4.46289 0 0 4.46289 0 9.96094C0 15.459 4.46289 19.9219 9.96094 19.9219ZM9.96094 18.2617C5.37109 18.2617 1.66016 14.5508 1.66016 9.96094C1.66016 5.37109 5.37109 1.66016 9.96094 1.66016C14.5508 1.66016 18.2617 5.37109 18.2617 9.96094C18.2617 14.5508 14.5508 18.2617 9.96094 18.2617Z" fill="var(--color-primary)"/>
  <path d="M7.99805 14.4434C8.34961 14.4434 8.57422 14.2285 8.57422 13.8672L8.57422 11.2402L10.3613 11.2402C12.0605 11.2402 13.252 10.0879 13.252 8.38867C13.252 6.65039 12.041 5.55664 10.3809 5.55664L8.00781 5.55664C7.64648 5.55664 7.42188 5.78125 7.42188 6.14258L7.42188 13.8672C7.42188 14.2285 7.64648 14.4434 7.99805 14.4434ZM8.57422 10.293L8.57422 6.50391L10.0879 6.50391C11.2695 6.50391 12.0703 7.11914 12.0703 8.38867C12.0703 9.63867 11.3184 10.293 10.0781 10.293ZM6.46484 8.33008C6.46484 8.52539 6.61133 8.66211 6.79688 8.66211L13.7012 8.66211C13.8965 8.66211 14.043 8.51562 14.043 8.33008C14.043 8.1543 13.8965 8.00781 13.7012 8.00781L6.79688 8.00781C6.61133 8.00781 6.46484 8.1543 6.46484 8.33008Z" fill="var(--color-primary)"/>
 </g>
</svg>
