<svg version="1.1" xmlns="http://www.w3.org/2000/svg" xmlns:xlink="http://www.w3.org/1999/xlink" width="22.9688" height="23.1348" viewBox="0 0 22.9688 23.1348">
 <g>
  <rect height="23.1348" opacity="0" width="22.9688" x="0" y="0"/>
  <path d="M16.9043 4.375L16.9043 4.54102L8.76953 4.54102C5.99609 4.54102 4.375 6.13281 4.375 8.89648L4.375 17.2852L4.0332 17.2852C1.99219 17.2852 0.966797 16.2695 0.966797 14.2578L0.966797 4.375C0.966797 2.36328 1.99219 1.34766 4.0332 1.34766L13.8379 1.34766C15.8691 1.34766 16.9043 2.36328 16.9043 4.375Z" fill="var(--color-tertiary)"/>
  <path d="M8.76953 21.8066L18.5742 21.8066C20.6055 21.8066 21.6406 20.791 21.6406 18.7793L21.6406 8.89648C21.6406 6.88477 20.6055 5.86914 18.5742 5.86914L8.76953 5.86914C6.72852 5.86914 5.70312 6.875 5.70312 8.89648L5.70312 18.7793C5.70312 20.791 6.72852 21.8066 8.76953 21.8066Z" fill="var(--color-tertiary)"/>
  <path d="M8.90625 13.8477C8.90625 13.3398 9.25781 12.9883 9.77539 12.9883L12.832 12.9883L12.832 9.93164C12.832 9.42383 13.1641 9.0625 13.6621 9.0625C14.1699 9.0625 14.5215 9.42383 14.5215 9.93164L14.5215 12.9883L17.5879 12.9883C18.0859 12.9883 18.4473 13.3398 18.4473 13.8477C18.4473 14.3457 18.0859 14.6777 17.5879 14.6777L14.5215 14.6777L14.5215 17.7441C14.5215 18.252 14.1699 18.6035 13.6621 18.6035C13.1641 18.6035 12.832 18.2422 12.832 17.7441L12.832 14.6777L9.77539 14.6777C9.26758 14.6777 8.90625 14.3457 8.90625 13.8477Z" fill="var(--color-primary)"/>
 </g>
</svg>
