<svg version="1.1" xmlns="http://www.w3.org/2000/svg" xmlns:xlink="http://www.w3.org/1999/xlink" width="22.5098" height="20.3613" viewBox="0 0 22.5098 20.3613">
 <g>
  <rect height="20.3613" opacity="0" width="22.5098" x="0" y="0"/>
  <path d="M3.86719 20.3613C5.03906 20.3613 7.95898 19.082 9.61914 17.8906C9.78516 17.7734 9.92188 17.7246 10.0586 17.7246C10.1855 17.7344 10.3125 17.7441 10.4395 17.7441C17.4805 17.7441 22.1484 13.7402 22.1484 8.87695C22.1484 3.96484 17.2266 0 11.0742 0C4.92188 0 0 3.96484 0 8.87695C0 12.002 1.92383 14.7461 5.05859 16.4258C5.20508 16.5039 5.25391 16.6504 5.17578 16.7969C4.62891 17.6953 3.65234 18.7695 3.28125 19.2578C2.90039 19.7461 3.11523 20.3613 3.86719 20.3613Z" fill="var(--color-tertiary)"/>
  <path d="M6.30859 8.98438C6.30859 8.4668 6.66016 8.11523 7.16797 8.11523L10.2246 8.11523L10.2246 5.06836C10.2246 4.56055 10.5664 4.19922 11.0645 4.19922C11.5723 4.19922 11.9238 4.55078 11.9238 5.06836L11.9238 8.11523L14.9902 8.11523C15.4883 8.11523 15.8496 8.4668 15.8496 8.98438C15.8496 9.47266 15.4883 9.81445 14.9902 9.81445L11.9238 9.81445L11.9238 12.8809C11.9238 13.3789 11.5723 13.7402 11.0645 13.7402C10.5664 13.7402 10.2246 13.3789 10.2246 12.8809L10.2246 9.81445L7.16797 9.81445C6.66016 9.81445 6.30859 9.47266 6.30859 8.98438Z" fill="var(--color-primary)"/>
 </g>
</svg>
