<svg version="1.1" xmlns="http://www.w3.org/2000/svg" xmlns:xlink="http://www.w3.org/1999/xlink" width="17.8516" height="24.973" viewBox="0 0 17.8516 24.973">
 <g>
  <rect height="24.973" opacity="0" width="17.8516" x="0" y="0"/>
  <path d="M7.82227 4.71793L8.88672 5.59684L5.33203 5.59684C3.13477 5.59684 1.75781 6.632 1.75781 8.26286C1.75781 9.92301 3.23242 11.0461 6.17188 11.3488L11.7383 11.9347C15.5273 12.3156 17.4902 14.0539 17.4902 16.7101C17.4902 19.3078 15.498 20.9484 12.3438 20.9484L6.18264 20.9484C6.25334 20.6936 6.28906 20.4247 6.28906 20.1476C6.28906 19.8812 6.25566 19.6222 6.18917 19.3761L12.3438 19.3761C14.541 19.3761 15.918 18.341 15.918 16.7101C15.918 15.05 14.4336 13.9269 11.5039 13.6242L5.91797 13.0382C2.13867 12.6574 0.185547 10.9191 0.185547 8.26286C0.185547 5.6652 2.17773 4.02457 5.33203 4.02457L7.25586 4.02457C7.38281 4.27848 7.57812 4.51286 7.82227 4.71793Z" fill="var(--color-secondary)"/>
  <path d="M3.14453 23.3019C4.88281 23.3019 6.28906 21.8859 6.28906 20.1476C6.28906 18.4191 4.88281 17.0031 3.14453 17.0031C1.40625 17.0031 0 18.4191 0 20.1476C0 21.8859 1.40625 23.3019 3.14453 23.3019Z" fill="var(--color-primary)"/>
  <path d="M12.1191 3.63395L13.916 3.63395C15.166 3.63395 16.1133 4.31754 16.1133 5.62614C16.1133 6.96403 15.1953 7.77457 13.9062 7.77457L12.7051 7.77457C12.3242 7.77457 11.9922 8.01872 11.9922 8.4484C11.9922 8.86832 12.3242 9.11247 12.7344 9.11247L13.9062 9.11247C15.9668 9.11247 17.4902 7.80387 17.4902 5.68473C17.4902 3.58512 15.9766 2.29606 13.916 2.29606L12.1191 2.29606L12.1191 0.6652C12.1191 0.118325 11.6211-0.213707 11.1719 0.157387L8.44727 2.40348C8.03711 2.75504 8.02734 3.17497 8.44727 3.53629L11.1719 5.76286C11.6211 6.13395 12.1191 5.83122 12.1191 5.26481Z" fill="var(--color-primary)"/>
 </g>
</svg>
