<svg version="1.1" xmlns="http://www.w3.org/2000/svg" xmlns:xlink="http://www.w3.org/1999/xlink" width="20.2832" height="19.9316" viewBox="0 0 20.2832 19.9316">
 <g>
  <rect height="19.9316" opacity="0" width="20.2832" x="0" y="0"/>
  <path d="M9.96094 19.9219C15.4102 19.9219 19.9219 15.4004 19.9219 9.96094C19.9219 4.51172 15.4004 0 9.95117 0C4.51172 0 0 4.51172 0 9.96094C0 15.4004 4.52148 19.9219 9.96094 19.9219ZM9.96094 18.2617C5.35156 18.2617 1.66992 14.5703 1.66992 9.96094C1.66992 5.35156 5.3418 1.66016 9.95117 1.66016C14.5605 1.66016 18.2617 5.35156 18.2617 9.96094C18.2617 14.5703 14.5703 18.2617 9.96094 18.2617Z" fill="var(--color-secondary)"/>
  <path d="M6.40625 13.8086L9.69727 13.8086C9.98047 13.8086 10.1953 13.5938 10.1953 13.3203C10.1953 13.0371 9.98047 12.832 9.69727 12.832L7.43164 12.832L7.43164 12.7441L9.93164 8.74023C10.0586 8.53516 10.1367 8.36914 10.1367 8.16406C10.1367 7.8125 9.86328 7.57812 9.49219 7.57812L6.34766 7.57812C6.05469 7.57812 5.83984 7.7832 5.83984 8.05664C5.83984 8.33984 6.05469 8.55469 6.34766 8.55469L8.70117 8.55469L8.70117 8.66211L6.02539 12.7832C5.9082 12.9688 5.83984 13.1055 5.83984 13.3203C5.83984 13.6035 6.07422 13.8086 6.40625 13.8086ZM12.3438 13.916C12.7344 13.916 12.9883 13.6426 12.9883 13.2422L12.9883 9.69727L13.8379 9.24805C14.5215 8.88672 14.0527 7.98828 13.3984 8.32031L12.9883 8.54492L12.9883 5.69336C12.9883 5.2832 12.7344 5.00977 12.3438 5.00977C11.9629 5.00977 11.6992 5.2832 11.6992 5.69336L11.6992 9.21875L11.0059 9.59961C10.3418 9.94141 10.7715 10.8496 11.4648 10.498L11.6992 10.3613L11.6992 13.2422C11.6992 13.6426 11.9629 13.916 12.3438 13.916Z" fill="var(--color-primary)"/>
 </g>
</svg>
