<svg version="1.1" xmlns="http://www.w3.org/2000/svg" xmlns:xlink="http://www.w3.org/1999/xlink" width="18.3887" height="24.7168" viewBox="0 0 18.3887 24.7168">
 <g>
  <rect height="24.7168" opacity="0" width="18.3887" x="0" y="0"/>
  <path d="M9.75586 1.55273C10.0391 1.49414 10.3711 1.51367 10.6152 1.58203C11.084 1.15234 11.6992 0.917969 12.3633 0.917969C13.4277 0.917969 14.1797 1.55273 14.5898 2.5C16.1426 2.53906 17.2168 3.7207 17.2168 5.40039C17.2168 6.12809 16.9532 6.7993 16.5169 7.31788C17.1757 7.95115 17.5146 8.88999 17.2949 10.0293L16.0325 16.7123C15.6689 16.395 15.2025 16.1824 14.6807 16.1026L15.8691 9.95117C16.123 8.64258 15.1855 7.86133 14.1211 7.86133C13.252 7.86133 12.5391 8.4375 12.4414 9.52148L11.7111 17.6399C11.6334 17.8471 11.5861 18.0718 11.5723 18.3105C10.989 18.4418 10.4808 18.7665 10.1176 19.2103L11.0059 9.46289C11.123 8.19336 10.332 7.36328 9.01367 7.36328C7.69531 7.36328 6.9043 8.19336 7.02148 9.46289L8.13477 21.6797L9.6721 21.6797C9.8855 22.3138 10.3394 22.8311 10.9256 23.1348L5.16602 23.1348C3.76953 23.1348 3.05664 22.3438 2.79297 20.9375L0.732422 10.0293C0.521737 8.93667 0.824831 8.02842 1.4287 7.39493C1.04185 6.92262 0.810547 6.31324 0.810547 5.6543C0.810547 4.16016 2.03125 2.92969 3.52539 2.97852C3.52539 2.31445 4.15039 1.63086 4.89258 1.69922C5.06836 0.849609 5.97656 0 7.36328 0C8.4082 0 9.33594 0.605469 9.75586 1.55273ZM2.1582 9.95117L4.26758 20.8691C4.36523 21.4062 4.67773 21.6797 5.21484 21.6797L6.67969 21.6797L5.57617 9.52148C5.48828 8.4375 4.77539 7.86133 3.90625 7.86133C2.8418 7.86133 1.9043 8.64258 2.1582 9.95117ZM6.13281 3.20312C5.13672 2.71484 4.12109 3.45703 4.25781 4.45312C3.20312 4.12109 2.20703 4.73633 2.20703 5.6543C2.20703 6.04811 2.37583 6.3963 2.64186 6.62385C3.03089 6.48036 3.45956 6.40625 3.90625 6.40625C4.78516 6.40625 5.55664 6.75781 6.10352 7.39258C6.65039 6.49414 7.70508 5.9082 9.01367 5.9082C10.3223 5.9082 11.377 6.49414 11.9238 7.39258C12.4707 6.75781 13.2422 6.40625 14.1211 6.40625C14.5215 6.40625 14.9074 6.4658 15.2632 6.58175C15.5972 6.31902 15.8203 5.92248 15.8203 5.49805C15.8203 4.36523 14.9512 3.81836 13.7402 4.01367C13.7695 3.03711 13.3105 2.33398 12.4316 2.33398C11.8164 2.33398 11.2891 2.67578 11.0352 3.26172C10.498 2.85156 9.43359 2.76367 8.79883 3.18359C8.95508 2.02148 8.1543 1.41602 7.36328 1.41602C6.55273 1.41602 5.83008 2.06055 6.13281 3.20312Z" fill="var(--color-primary)"/>
  <path d="M14.1992 24.6973C15.1465 24.6973 16.0156 24.1602 16.4355 23.3398C17.5977 23.0664 18.3887 22.041 18.3887 20.8496C18.3887 19.7754 17.7344 18.8672 16.8262 18.4082C16.7773 17.002 15.625 16.0645 14.1992 16.0645C12.793 16.0645 11.6504 16.9629 11.5723 18.3105C10.4004 18.5742 9.53125 19.6191 9.53125 20.8398C9.53125 22.2168 10.5859 23.3105 11.9238 23.4277C12.373 24.1797 13.2422 24.6973 14.1992 24.6973ZM14.1992 23.4375C13.4473 23.4375 12.7441 22.9688 12.793 22.0898C11.7969 22.4023 10.7812 21.8848 10.7812 20.8398C10.7812 19.7754 11.6211 19.1797 12.8418 19.3848C12.5293 18.4766 13.0078 17.3242 14.1992 17.3242C15.3516 17.3242 15.8984 18.4277 15.5859 19.4531C16.4941 19.3555 17.0996 19.9414 17.0996 20.8984C17.0996 21.7383 16.5137 22.2363 15.5273 22.1484C15.5664 22.9004 14.8828 23.4375 14.1992 23.4375Z" fill="var(--color-primary)"/>
 </g>
</svg>
