<svg version="1.1" xmlns="http://www.w3.org/2000/svg" xmlns:xlink="http://www.w3.org/1999/xlink" viewBox="0 0 18.9551 17.998">
 <g>
  <rect height="17.998" opacity="0" width="18.9551" x="0" y="0"/>
  <path d="M18.5938 3.04688L18.5938 14.9707C18.5938 16.9824 17.5684 17.998 15.5273 17.998L3.06641 17.998C1.02539 17.998 0 16.9922 0 14.9707L0 3.04688C0 1.02539 1.02539 0.0195312 3.06641 0.0195312L15.5273 0.0195312C17.5684 0.0195312 18.5938 1.03516 18.5938 3.04688ZM4.46289 11.8066C4.11133 11.8066 3.89648 12.041 3.89648 12.373L3.89648 13.1934C3.89648 13.5352 4.11133 13.75 4.46289 13.75L7.08008 13.75C7.42188 13.75 7.64648 13.5352 7.64648 13.1934L7.64648 12.373C7.64648 12.0312 7.42188 11.8066 7.08008 11.8066ZM11.5137 11.8066C11.1719 11.8066 10.9375 12.0312 10.9375 12.373L10.9375 13.1934C10.9375 13.5352 11.1719 13.75 11.5137 13.75L14.1211 13.75C14.4824 13.75 14.6973 13.5352 14.6973 13.1934L14.6973 12.373C14.6973 12.041 14.4727 11.8066 14.1211 11.8066ZM8.88672 3.73047C8.55469 3.73047 8.32031 3.95508 8.32031 4.29688L8.32031 7.23633C8.32031 7.57812 8.55469 7.8125 8.88672 7.8125L9.69727 7.8125C10.0391 7.8125 10.2637 7.57812 10.2637 7.23633L10.2637 4.29688C10.2637 3.95508 10.0391 3.73047 9.69727 3.73047Z" fill="var(--color-primary)"/>
 </g>
</svg>
