<svg version="1.1" xmlns="http://www.w3.org/2000/svg" xmlns:xlink="http://www.w3.org/1999/xlink" width="20.2832" height="19.9316" viewBox="0 0 20.2832 19.9316">
 <g>
  <rect height="19.9316" opacity="0" width="20.2832" x="0" y="0"/>
  <path d="M9.96094 19.9219C15.4102 19.9219 19.9219 15.4004 19.9219 9.96094C19.9219 4.51172 15.4004 0 9.95117 0C4.51172 0 0 4.51172 0 9.96094C0 15.4004 4.52148 19.9219 9.96094 19.9219Z" fill="var(--color-tertiary)"/>
  <path d="M9.9707 15.2344C7.08984 15.2344 4.6875 12.832 4.6875 9.96094C4.6875 8.50586 5.33203 7.06055 6.42578 6.09375C7.10938 5.43945 8.05664 6.42578 7.34375 7.08984C6.54297 7.83203 6.09375 8.84766 6.09375 9.96094C6.09375 12.1191 7.8125 13.8477 9.9707 13.8477C12.1289 13.8477 13.8574 12.1191 13.8574 9.96094C13.8477 8.84766 13.3887 7.83203 12.5977 7.09961C11.8848 6.43555 12.832 5.44922 13.5254 6.09375C14.6094 7.08008 15.2539 8.51562 15.2539 9.96094C15.2539 12.832 12.8516 15.2344 9.9707 15.2344ZM9.9707 10.1855C9.58008 10.1855 9.30664 9.90234 9.30664 9.50195L9.30664 5.09766C9.30664 4.6875 9.58008 4.4043 9.9707 4.4043C10.3613 4.4043 10.6445 4.6875 10.6445 5.09766L10.6445 9.50195C10.6445 9.90234 10.3613 10.1855 9.9707 10.1855Z" fill="var(--color-primary)"/>
 </g>
</svg>
