<svg version="1.1" xmlns="http://www.w3.org/2000/svg" xmlns:xlink="http://www.w3.org/1999/xlink" width="18.3398" height="17.998" viewBox="0 0 18.3398 17.998">
 <g>
  <rect height="17.998" opacity="0" width="18.3398" x="0" y="0"/>
  <path d="M3.06641 17.998L14.9121 17.998C16.9629 17.998 17.9785 16.9824 17.9785 14.9707L17.9785 3.04688C17.9785 1.03516 16.9629 0.0195312 14.9121 0.0195312L3.06641 0.0195312C1.02539 0.0195312 0 1.02539 0 3.04688L0 14.9707C0 16.9922 1.02539 17.998 3.06641 17.998ZM3.08594 16.4258C2.10938 16.4258 1.57227 15.9082 1.57227 14.8926L1.57227 3.125C1.57227 2.10938 2.10938 1.5918 3.08594 1.5918L14.8926 1.5918C15.8594 1.5918 16.4062 2.10938 16.4062 3.125L16.4062 14.8926C16.4062 15.9082 15.8594 16.4258 14.8926 16.4258Z" fill="var(--color-secondary)"/>
  <path d="M8.99414 14.1211C11.8359 14.1211 14.1113 11.8359 14.1113 8.99414C14.1113 6.15234 11.8359 3.86719 8.99414 3.86719C6.14258 3.86719 3.86719 6.15234 3.86719 8.99414C3.86719 11.8359 6.14258 14.1211 8.99414 14.1211ZM8.99414 7.1582C8.57422 7.1582 8.25195 6.82617 8.25195 6.41602C8.25195 5.99609 8.57422 5.66406 8.99414 5.66406C9.4043 5.66406 9.73633 5.99609 9.73633 6.41602C9.73633 6.82617 9.4043 7.1582 8.99414 7.1582ZM6.41602 10.1562C5.79102 10.1562 5.26367 9.63867 5.26367 9.01367C5.26367 8.38867 5.79102 7.87109 6.41602 7.87109C7.04102 7.87109 7.55859 8.38867 7.55859 9.01367C7.55859 9.63867 7.04102 10.1562 6.41602 10.1562ZM11.5723 10.1367C10.9473 10.1367 10.4199 9.61914 10.4199 8.99414C10.4199 8.36914 10.9473 7.85156 11.5723 7.85156C12.1875 7.85156 12.7148 8.36914 12.7148 8.99414C12.7148 9.61914 12.1875 10.1367 11.5723 10.1367Z" fill="var(--color-primary)"/>
 </g>
</svg>
