<svg version="1.1" xmlns="http://www.w3.org/2000/svg" xmlns:xlink="http://www.w3.org/1999/xlink" width="20.2832" height="19.9316" viewBox="0 0 20.2832 19.9316">
 <g>
  <rect height="19.9316" opacity="0" width="20.2832" x="0" y="0"/>
  <path d="M9.96094 19.9219C15.4102 19.9219 19.9219 15.4004 19.9219 9.96094C19.9219 4.51172 15.4004 0 9.95117 0C4.51172 0 0 4.51172 0 9.96094C0 15.4004 4.52148 19.9219 9.96094 19.9219ZM9.96094 18.2617C5.35156 18.2617 1.66992 14.5703 1.66992 9.96094C1.66992 5.35156 5.3418 1.66016 9.95117 1.66016C14.5605 1.66016 18.2617 5.35156 18.2617 9.96094C18.2617 14.5703 14.5703 18.2617 9.96094 18.2617Z" fill="var(--color-secondary)"/>
  <path d="M3.71094 9.96094C3.71094 11.5332 4.98047 12.8125 6.55273 12.8125L13.3594 12.8125C14.9316 12.8125 16.2012 11.5332 16.2012 9.96094C16.2012 8.38867 14.9316 7.10938 13.3594 7.10938C11.7871 7.10938 10.5078 8.38867 10.5078 9.96094C10.5078 10.6152 10.7324 11.2402 11.1523 11.7285L8.75977 11.7285C9.17969 11.2402 9.4043 10.6152 9.4043 9.96094C9.4043 8.38867 8.13477 7.10938 6.55273 7.10938C4.98047 7.10938 3.71094 8.38867 3.71094 9.96094ZM4.79492 9.95117C4.79492 8.98438 5.5957 8.19336 6.5625 8.19336C7.5293 8.19336 8.32031 8.98438 8.32031 9.95117C8.32031 10.9375 7.53906 11.7285 6.5625 11.7285C5.58594 11.7285 4.79492 10.9277 4.79492 9.95117ZM11.5918 9.95117C11.5918 8.98438 12.3828 8.19336 13.3496 8.19336C14.3164 8.19336 15.1172 8.98438 15.1172 9.95117C15.1172 10.9277 14.3262 11.7285 13.3496 11.7285C12.373 11.7285 11.5918 10.9375 11.5918 9.95117Z" fill="var(--color-primary)"/>
 </g>
</svg>
