<svg version="1.1" xmlns="http://www.w3.org/2000/svg" xmlns:xlink="http://www.w3.org/1999/xlink" viewBox="0 0 24.834 18.7988">
 <g>
  <rect height="18.7988" opacity="0" width="24.834" x="0" y="0"/>
  <path d="M1.68945 5.53711L5.625 5.53711C6.68945 5.53711 7.31445 4.91211 7.31445 3.80859L7.31445 1.72852C7.31445 0.625 6.68945 0 5.625 0L1.68945 0C0.625 0 0 0.625 0 1.72852L0 3.80859C0 4.91211 0.625 5.53711 1.68945 5.53711ZM1.875 4.18945C1.52344 4.18945 1.34766 4.00391 1.34766 3.63281L1.34766 1.88477C1.34766 1.52344 1.52344 1.33789 1.875 1.33789L5.42969 1.33789C5.78125 1.33789 5.97656 1.52344 5.97656 1.88477L5.97656 3.63281C5.97656 4.00391 5.78125 4.18945 5.42969 4.18945ZM10.2637 5.53711L14.1992 5.53711C15.2637 5.53711 15.8789 4.91211 15.8789 3.80859L15.8789 1.72852C15.8789 0.625 15.2637 0 14.1992 0L10.2637 0C9.18945 0 8.57422 0.625 8.57422 1.72852L8.57422 3.80859C8.57422 4.91211 9.18945 5.53711 10.2637 5.53711ZM10.4395 4.18945C10.0879 4.18945 9.91211 4.00391 9.91211 3.63281L9.91211 1.88477C9.91211 1.52344 10.0879 1.33789 10.4395 1.33789L14.0137 1.33789C14.3555 1.33789 14.541 1.52344 14.541 1.88477L14.541 3.63281C14.541 4.00391 14.3555 4.18945 14.0137 4.18945ZM18.8477 5.53711L22.7832 5.53711C23.8477 5.53711 24.4727 4.91211 24.4727 3.80859L24.4727 1.72852C24.4727 0.625 23.8477 0 22.7832 0L18.8477 0C17.7832 0 17.1582 0.625 17.1582 1.72852L17.1582 3.80859C17.1582 4.91211 17.7832 5.53711 18.8477 5.53711ZM19.0332 4.18945C18.6816 4.18945 18.4961 4.00391 18.4961 3.63281L18.4961 1.88477C18.4961 1.52344 18.6816 1.33789 19.0332 1.33789L22.5879 1.33789C22.9395 1.33789 23.125 1.52344 23.125 1.88477L23.125 3.63281C23.125 4.00391 22.9395 4.18945 22.5879 4.18945ZM1.68945 12.1484L5.625 12.1484C6.68945 12.1484 7.31445 11.5332 7.31445 10.4297L7.31445 8.33984C7.31445 7.23633 6.68945 6.61133 5.625 6.61133L1.68945 6.61133C0.625 6.61133 0 7.23633 0 8.33984L0 10.4297C0 11.5332 0.625 12.1484 1.68945 12.1484ZM1.875 10.8105C1.52344 10.8105 1.34766 10.625 1.34766 10.2539L1.34766 8.49609C1.34766 8.13477 1.52344 7.94922 1.875 7.94922L5.42969 7.94922C5.78125 7.94922 5.97656 8.13477 5.97656 8.49609L5.97656 10.2539C5.97656 10.625 5.78125 10.8105 5.42969 10.8105ZM10.2637 12.1484L14.1992 12.1484C15.2637 12.1484 15.8789 11.5332 15.8789 10.4297L15.8789 8.33984C15.8789 7.23633 15.2637 6.61133 14.1992 6.61133L10.2637 6.61133C9.18945 6.61133 8.57422 7.23633 8.57422 8.33984L8.57422 10.4297C8.57422 11.5332 9.18945 12.1484 10.2637 12.1484ZM10.4395 10.8105C10.0879 10.8105 9.91211 10.625 9.91211 10.2539L9.91211 8.49609C9.91211 8.13477 10.0879 7.94922 10.4395 7.94922L14.0137 7.94922C14.3555 7.94922 14.541 8.13477 14.541 8.49609L14.541 10.2539C14.541 10.625 14.3555 10.8105 14.0137 10.8105ZM18.8477 12.1484L22.7832 12.1484C23.8477 12.1484 24.4727 11.5332 24.4727 10.4297L24.4727 8.33984C24.4727 7.23633 23.8477 6.61133 22.7832 6.61133L18.8477 6.61133C17.7832 6.61133 17.1582 7.23633 17.1582 8.33984L17.1582 10.4297C17.1582 11.5332 17.7832 12.1484 18.8477 12.1484ZM19.0332 10.8105C18.6816 10.8105 18.4961 10.625 18.4961 10.2539L18.4961 8.49609C18.4961 8.13477 18.6816 7.94922 19.0332 7.94922L22.5879 7.94922C22.9395 7.94922 23.125 8.13477 23.125 8.49609L23.125 10.2539C23.125 10.625 22.9395 10.8105 22.5879 10.8105ZM1.68945 18.7598L5.625 18.7598C6.68945 18.7598 7.31445 18.1348 7.31445 17.0312L7.31445 14.9512C7.31445 13.8477 6.68945 13.2227 5.625 13.2227L1.68945 13.2227C0.625 13.2227 0 13.8477 0 14.9512L0 17.0312C0 18.1348 0.625 18.7598 1.68945 18.7598ZM1.875 17.4121C1.52344 17.4121 1.34766 17.2266 1.34766 16.8652L1.34766 15.1172C1.34766 14.7461 1.52344 14.5605 1.875 14.5605L5.42969 14.5605C5.78125 14.5605 5.97656 14.7461 5.97656 15.1172L5.97656 16.8652C5.97656 17.2266 5.78125 17.4121 5.42969 17.4121ZM10.2637 18.7598L14.1992 18.7598C15.2637 18.7598 15.8789 18.1348 15.8789 17.0312L15.8789 14.9512C15.8789 13.8477 15.2637 13.2227 14.1992 13.2227L10.2637 13.2227C9.18945 13.2227 8.57422 13.8477 8.57422 14.9512L8.57422 17.0312C8.57422 18.1348 9.18945 18.7598 10.2637 18.7598ZM10.4395 17.4121C10.0879 17.4121 9.91211 17.2266 9.91211 16.8652L9.91211 15.1172C9.91211 14.7461 10.0879 14.5605 10.4395 14.5605L14.0137 14.5605C14.3555 14.5605 14.541 14.7461 14.541 15.1172L14.541 16.8652C14.541 17.2266 14.3555 17.4121 14.0137 17.4121ZM18.8477 18.7598L22.7832 18.7598C23.8477 18.7598 24.4727 18.1348 24.4727 17.0312L24.4727 14.9512C24.4727 13.8477 23.8477 13.2227 22.7832 13.2227L18.8477 13.2227C17.7832 13.2227 17.1582 13.8477 17.1582 14.9512L17.1582 17.0312C17.1582 18.1348 17.7832 18.7598 18.8477 18.7598ZM19.0332 17.4121C18.6816 17.4121 18.4961 17.2266 18.4961 16.8652L18.4961 15.1172C18.4961 14.7461 18.6816 14.5605 19.0332 14.5605L22.5879 14.5605C22.9395 14.5605 23.125 14.7461 23.125 15.1172L23.125 16.8652C23.125 17.2266 22.9395 17.4121 22.5879 17.4121Z" fill="var(--color-primary)"/>
 </g>
</svg>
