<svg version="1.1" xmlns="http://www.w3.org/2000/svg" xmlns:xlink="http://www.w3.org/1999/xlink" width="18.3398" height="13.6035" viewBox="0 0 18.3398 13.6035">
 <g>
  <rect height="13.6035" opacity="0" width="18.3398" x="0" y="0"/>
  <path d="M0 3.06641L0 10.5371C0 12.5781 1.01562 13.6035 3.02734 13.6035L14.9512 13.6035C16.9629 13.6035 17.9785 12.5781 17.9785 10.5371L17.9785 3.06641C17.9785 1.03516 16.9727 0 14.9512 0L3.02734 0C1.00586 0 0 1.03516 0 3.06641ZM1.57227 3.0957C1.57227 2.11914 2.08984 1.57227 3.10547 1.57227L14.873 1.57227C15.8887 1.57227 16.4062 2.11914 16.4062 3.0957L16.4062 10.5078C16.4062 11.4746 15.8887 12.0312 14.873 12.0312L3.10547 12.0312C2.08984 12.0312 1.57227 11.4746 1.57227 10.5078Z" fill="var(--color-primary)"/>
 </g>
</svg>
