<svg version="1.1" xmlns="http://www.w3.org/2000/svg" xmlns:xlink="http://www.w3.org/1999/xlink" viewBox="0 0 25.6982 25.3565">
 <g>
  <rect height="25.3565" opacity="0" width="25.6982" x="0" y="0"/>
  <path d="M4.34814 7.04836L4.34814 16.9116C4.34814 17.8687 4.86572 18.4253 5.88135 18.4253L7.29736 18.4253L7.29736 19.9976L5.80322 19.9976C3.7915 19.9976 2.77588 18.9722 2.77588 16.9312L2.77588 5.4761ZM18.0396 3.59133L18.0396 5.34914L16.4673 5.34914L16.4673 3.62063C16.4673 2.64407 15.9497 2.09719 14.9341 2.09719L5.88135 2.09719C5.51102 2.09719 5.20691 2.1699 4.97078 2.31046L3.75682 1.09595C4.25031 0.715141 4.93256 0.524926 5.80322 0.524926L15.0122 0.524926C17.0337 0.524926 18.0396 1.55032 18.0396 3.59133Z" fill="var(--color-primary)"/>
  <path d="M8.86963 11.5698L8.86963 21.7359C8.86963 22.6929 9.38721 23.2495 10.4028 23.2495L19.4556 23.2495C19.8133 23.2495 20.1106 23.1791 20.3438 23.044L21.561 24.2612C21.0686 24.6353 20.3917 24.8218 19.5337 24.8218L10.3247 24.8218C8.31299 24.8218 7.29736 23.7964 7.29736 21.7554L7.29736 9.99758ZM22.561 8.41555L22.561 19.9087L20.9888 18.3357L20.9888 8.44485C20.9888 7.46829 20.4614 6.92141 19.4556 6.92141L10.4028 6.92141C10.1311 6.92141 9.89493 6.96057 9.69605 7.03787L8.45575 5.797C8.93069 5.49825 9.55386 5.34914 10.3247 5.34914L19.5337 5.34914C21.5552 5.34914 22.561 6.37454 22.561 8.41555Z" fill="var(--color-primary)"/>
  <path d="M22.9126 24.0015C23.2056 24.2945 23.6938 24.2945 23.9771 24.0015C24.27 23.6988 24.27 23.23 23.9771 22.937L2.43408 1.37454C2.14111 1.09133 1.65283 1.08157 1.35986 1.37454C1.06689 1.6675 1.06689 2.15579 1.35986 2.43899Z" fill="var(--color-primary)"/>
 </g>
</svg>
