<svg version="1.1" xmlns="http://www.w3.org/2000/svg" xmlns:xlink="http://www.w3.org/1999/xlink" viewBox="0 0 22.0898 26.9629">
 <g>
  <rect height="26.9629" opacity="0" width="22.0898" x="0" y="0"/>
  <path d="M16.2305 4.39453L16.2305 4.82422L8.51562 4.82422C5.75195 4.82422 4.16016 6.43555 4.16016 9.21875L4.16016 20.8008L3.99414 20.8008C1.98242 20.8008 0.966797 19.7754 0.966797 17.7344L0.966797 4.39453C0.966797 2.35352 1.98242 1.32812 3.99414 1.32812L13.2129 1.32812C15.2246 1.32812 16.2305 2.35352 16.2305 4.39453Z" fill="var(--color-primary)"/>
  <path d="M20.752 9.21875C20.752 7.17773 19.7461 6.15234 17.7246 6.15234L8.51562 6.15234C6.49414 6.15234 5.48828 7.17773 5.48828 9.21875L5.48828 22.5586C5.48828 24.5996 6.50391 25.625 8.51562 25.625L17.7246 25.625C19.7363 25.625 20.752 24.5996 20.752 22.5586Z" fill="var(--color-primary)"/>
 </g>
</svg>
