<svg version="1.1" xmlns="http://www.w3.org/2000/svg" xmlns:xlink="http://www.w3.org/1999/xlink" viewBox="0 0 20.2832 19.9316">
 <g>
  <rect height="19.9316" opacity="0" width="20.2832" x="0" y="0"/>
  <path d="M9.96094 19.9219C15.459 19.9219 19.9219 15.459 19.9219 9.96094C19.9219 4.46289 15.459 0 9.96094 0C4.46289 0 0 4.46289 0 9.96094C0 15.459 4.46289 19.9219 9.96094 19.9219ZM9.96094 18.2617C5.37109 18.2617 1.66016 14.5508 1.66016 9.96094C1.66016 5.37109 5.37109 1.66016 9.96094 1.66016C14.5508 1.66016 18.2617 5.37109 18.2617 9.96094C18.2617 14.5508 14.5508 18.2617 9.96094 18.2617Z" fill="var(--color-primary)"/>
  <path d="M5.48828 8.94531C4.6875 9.42383 4.70703 10.5273 5.46875 10.9766L11.3281 14.4434C12.0508 14.873 13.0664 14.5898 13.0664 13.5449L13.0664 6.36719C13.0664 5.32227 12.0508 5.0293 11.3281 5.46875ZM7.00195 9.87305L11.3086 7.31445C11.4258 7.24609 11.4941 7.29492 11.4941 7.38281L11.4941 12.5293C11.4941 12.6172 11.4258 12.6562 11.3086 12.5977L7.01172 10.0586C6.91406 10.0098 6.93359 9.92188 7.00195 9.87305Z" fill="var(--color-primary)"/>
 </g>
</svg>
