<svg version="1.1" xmlns="http://www.w3.org/2000/svg" xmlns:xlink="http://www.w3.org/1999/xlink" viewBox="0 0 20.2832 19.9316">
 <g>
  <rect height="19.9316" opacity="0" width="20.2832" x="0" y="0"/>
  <path d="M9.96094 19.9219C15.459 19.9219 19.9219 15.459 19.9219 9.96094C19.9219 4.46289 15.459 0 9.96094 0C4.46289 0 0 4.46289 0 9.96094C0 15.459 4.46289 19.9219 9.96094 19.9219ZM9.96094 18.2617C5.37109 18.2617 1.66016 14.5508 1.66016 9.96094C1.66016 5.37109 5.37109 1.66016 9.96094 1.66016C14.5508 1.66016 18.2617 5.37109 18.2617 9.96094C18.2617 14.5508 14.5508 18.2617 9.96094 18.2617Z" fill="var(--color-primary)"/>
  <path d="M6.16211 13.9453C6.51367 13.9453 6.71875 13.7207 6.71875 13.3691L6.71875 10.7227L7.91992 10.7227L9.11133 13.5449C9.21875 13.8086 9.38477 13.9453 9.66797 13.9453C9.98047 13.9453 10.2246 13.7402 10.2246 13.4277C10.2246 13.291 10.166 13.1738 10.0977 13.0176L8.99414 10.4883C9.84375 10.1172 10.2441 9.26758 10.2441 8.34961C10.2441 7.04102 9.49219 6.01562 7.87109 6.01562L6.15234 6.01562C5.81055 6.01562 5.60547 6.24023 5.60547 6.58203L5.60547 13.3691C5.60547 13.7207 5.81055 13.9453 6.16211 13.9453ZM6.71875 9.83398L6.71875 6.94336L7.76367 6.94336C8.64258 6.94336 9.13086 7.5 9.13086 8.36914C9.13086 9.25781 8.66211 9.83398 7.77344 9.83398ZM13.1152 13.9551C14.248 13.9551 15.2051 13.3203 15.2051 12.1582C15.2051 11.2109 14.6484 10.8105 13.7109 10.5566L12.9297 10.3418C12.4805 10.2246 12.1191 9.99023 12.1191 9.53125C12.1191 8.99414 12.5488 8.66211 13.0859 8.66211C13.6523 8.66211 14.0039 8.97461 14.209 9.43359C14.2773 9.57031 14.4238 9.66797 14.5898 9.66797C14.8926 9.66797 15.0098 9.48242 15.0098 9.27734C15.0098 9.20898 14.9902 9.10156 14.9609 9.01367C14.7559 8.32031 14.0039 7.85156 13.1152 7.85156C11.8848 7.85156 11.0742 8.53516 11.0742 9.58008C11.0742 10.4883 11.6699 10.9766 12.5488 11.2012L13.3398 11.4062C13.8281 11.5332 14.1406 11.7773 14.1406 12.2656C14.1406 12.793 13.75 13.1445 13.1641 13.1445C12.5195 13.1445 12.1875 12.9297 11.875 12.3633C11.7578 12.1484 11.582 12.0605 11.416 12.0605C11.1621 12.0605 10.9766 12.2363 10.9766 12.4902C10.9766 12.5586 11.0059 12.6465 11.0254 12.7441C11.2891 13.5742 12.2168 13.9551 13.1152 13.9551Z" fill="var(--color-primary)"/>
 </g>
</svg>
