<svg version="1.1" xmlns="http://www.w3.org/2000/svg" xmlns:xlink="http://www.w3.org/1999/xlink" viewBox="0 0 18.3398 17.9785">
 <g>
  <rect height="17.9785" opacity="0" width="18.3398" x="0" y="0"/>
  <path d="M3.06641 17.9785L14.9121 17.9785C16.9629 17.9785 17.9785 16.9727 17.9785 14.9609L17.9785 3.02734C17.9785 1.01562 16.9629 0 14.9121 0L3.06641 0C1.02539 0 0 1.01562 0 3.02734L0 14.9609C0 16.9727 1.02539 17.9785 3.06641 17.9785ZM3.08594 16.4062C2.10938 16.4062 1.57227 15.8887 1.57227 14.873L1.57227 3.11523C1.57227 2.09961 2.10938 1.57227 3.08594 1.57227L14.8926 1.57227C15.8594 1.57227 16.4062 2.09961 16.4062 3.11523L16.4062 14.873C16.4062 15.8887 15.8594 16.4062 14.8926 16.4062Z" fill="var(--color-primary)"/>
  <path d="M8.89648 13.5645C11.084 13.5645 12.5195 12.5 12.5195 10.8203C12.5195 9.53125 11.582 8.81836 9.86328 8.35938L8.55469 8.00781C7.61719 7.76367 7.22656 7.40234 7.22656 6.80664C7.22656 5.98633 7.90039 5.46875 8.93555 5.46875C9.92188 5.46875 10.5469 5.85938 10.8789 6.66992C11.0156 6.99219 11.2207 7.16797 11.6016 7.16797C11.9922 7.16797 12.2852 6.94336 12.2852 6.49414C12.2852 6.36719 12.2559 6.20117 12.1973 6.02539C11.8262 4.99023 10.6543 4.22852 9.00391 4.22852C7.00195 4.22852 5.60547 5.3418 5.60547 6.89453C5.60547 8.125 6.40625 8.82812 7.91992 9.24805L9.33594 9.64844C10.498 9.9707 10.8984 10.2637 10.8984 10.9473C10.8984 11.8164 10.0684 12.2949 8.99414 12.2949C7.96875 12.2949 7.25586 11.8945 6.91406 11.1133C6.73828 10.752 6.5332 10.5859 6.18164 10.5859C5.76172 10.5859 5.47852 10.8594 5.47852 11.2891C5.47852 11.4355 5.51758 11.5918 5.58594 11.7676C5.9375 12.7051 7.11914 13.5645 8.89648 13.5645Z" fill="var(--color-primary)"/>
 </g>
</svg>
