<svg version="1.1" xmlns="http://www.w3.org/2000/svg" xmlns:xlink="http://www.w3.org/1999/xlink" width="20.2832" height="19.9316" viewBox="0 0 20.2832 19.9316">
 <g>
  <rect height="19.9316" opacity="0" width="20.2832" x="0" y="0"/>
  <path d="M9.96094 19.9316C15.4102 19.9316 19.9219 15.4199 19.9219 9.9707C19.9219 4.53125 15.4004 0.00976562 9.95117 0.00976562C4.51172 0.00976562 0 4.53125 0 9.9707C0 15.4199 4.52148 19.9316 9.96094 19.9316Z" fill="var(--color-tertiary)"/>
  <path d="M5.56641 9.00391C5.06836 9.00391 4.80469 8.75 4.80469 8.26172L4.80469 5.67383C4.80469 5.16602 5.06836 4.91211 5.56641 4.91211L9.44336 4.91211C9.95117 4.91211 10.2148 5.16602 10.2148 5.67383L10.2148 6.38672C8.90625 6.48438 7.89062 7.61719 7.88086 9.00391ZM14.209 11.8457C13.7012 11.8457 13.4473 11.582 13.4473 11.084L13.4473 7.97852C13.4473 7.49023 13.7012 7.23633 14.209 7.23633L15.791 7.23633C16.2891 7.23633 16.543 7.49023 16.543 7.97852L16.543 11.084C16.543 11.582 16.2891 11.8457 15.791 11.8457ZM4.15039 12.8516C3.65234 12.8516 3.39844 12.5977 3.39844 12.0996L3.39844 10.9961C3.39844 10.498 3.65234 10.2441 4.15039 10.2441L5.22461 10.2441C5.73242 10.2441 5.99609 10.498 5.99609 10.9961L5.99609 12.0996C5.99609 12.5977 5.73242 12.8516 5.22461 12.8516ZM10.3809 10.9473C9.43359 10.9473 8.62305 10.1074 8.62305 9.01367C8.62305 7.93945 9.43359 7.12891 10.3809 7.12891C11.3184 7.12891 12.1387 7.92969 12.1387 9.01367C12.1387 10.1074 11.3184 10.9473 10.3809 10.9473ZM7.43164 15.0293C6.96289 15.0293 6.68945 14.8145 6.68945 14.4434C6.68945 13.3105 8.0957 11.7383 10.3809 11.7383C12.6562 11.7383 14.0723 13.3105 14.0723 14.4434C14.0723 14.8145 13.7988 15.0293 13.3301 15.0293Z" fill="var(--color-primary)"/>
 </g>
</svg>
