<svg version="1.1" xmlns="http://www.w3.org/2000/svg" xmlns:xlink="http://www.w3.org/1999/xlink" width="20.0391" height="16.6504" viewBox="0 0 20.0391 16.6504">
 <g>
  <rect height="16.6504" opacity="0" width="20.0391" x="0" y="0"/>
  <path d="M13.3398 16.6504C14.6289 16.6504 15.6836 15.5957 15.6836 14.3066C15.6836 13.0176 14.6289 11.9629 13.3398 11.9629C12.0508 11.9629 10.9863 13.0176 10.9863 14.3066C10.9863 15.5957 12.0508 16.6504 13.3398 16.6504ZM13.3398 15.4492C12.6953 15.4492 12.1973 14.9414 12.1973 14.3066C12.1973 13.6523 12.6953 13.1641 13.3398 13.1641C13.9844 13.1641 14.4824 13.6523 14.4824 14.3066C14.4824 14.9414 13.9844 15.4492 13.3398 15.4492ZM11.7871 13.5156L0.78125 13.5156C0.341797 13.5156 0 13.8672 0 14.3066C0 14.7461 0.341797 15.0879 0.78125 15.0879L11.7871 15.0879ZM18.9258 13.5156L15.0391 13.5156L15.0391 15.0879L18.9258 15.0879C19.3262 15.0879 19.6777 14.7461 19.6777 14.3066C19.6777 13.8672 19.3262 13.5156 18.9258 13.5156ZM6.44531 10.6934C7.73438 10.6934 8.78906 9.62891 8.78906 8.33984C8.78906 7.05078 7.73438 5.99609 6.44531 5.99609C5.15625 5.99609 4.10156 7.05078 4.10156 8.33984C4.10156 9.62891 5.15625 10.6934 6.44531 10.6934ZM6.44531 9.48242C5.81055 9.48242 5.30273 8.97461 5.30273 8.33984C5.30273 7.69531 5.81055 7.19727 6.44531 7.19727C7.08984 7.19727 7.58789 7.69531 7.58789 8.33984C7.58789 8.97461 7.08984 9.48242 6.44531 9.48242ZM0.742188 7.54883C0.341797 7.54883 0 7.90039 0 8.33984C0 8.7793 0.341797 9.12109 0.742188 9.12109L4.76562 9.12109L4.76562 7.54883ZM18.8867 7.54883L7.99805 7.54883L7.99805 9.12109L18.8867 9.12109C19.3262 9.12109 19.6777 8.7793 19.6777 8.33984C19.6777 7.90039 19.3262 7.54883 18.8867 7.54883ZM13.3398 4.7168C14.6289 4.7168 15.6836 3.66211 15.6836 2.37305C15.6836 1.08398 14.6289 0.0195312 13.3398 0.0195312C12.0508 0.0195312 10.9863 1.08398 10.9863 2.37305C10.9863 3.66211 12.0508 4.7168 13.3398 4.7168ZM13.3398 3.51562C12.6953 3.51562 12.1973 3.00781 12.1973 2.36328C12.1973 1.71875 12.6953 1.2207 13.3398 1.2207C13.9844 1.2207 14.4824 1.71875 14.4824 2.36328C14.4824 3.00781 13.9844 3.51562 13.3398 3.51562ZM11.8359 1.5918L0.78125 1.5918C0.341797 1.5918 0 1.93359 0 2.37305C0 2.8125 0.341797 3.16406 0.78125 3.16406L11.8359 3.16406ZM18.9258 1.5918L14.9023 1.5918L14.9023 3.16406L18.9258 3.16406C19.3262 3.16406 19.6777 2.8125 19.6777 2.37305C19.6777 1.93359 19.3262 1.5918 18.9258 1.5918Z" fill="var(--color-primary)"/>
 </g>
</svg>
