<svg version="1.1" xmlns="http://www.w3.org/2000/svg" xmlns:xlink="http://www.w3.org/1999/xlink" viewBox="0 0 20.2832 19.9316">
 <g>
  <rect height="19.9316" opacity="0" width="20.2832" x="0" y="0"/>
  <path d="M19.9219 9.96094C19.9219 15.4492 15.459 19.9219 9.96094 19.9219C4.47266 19.9219 0 15.4492 0 9.96094C0 4.46289 4.47266 0 9.96094 0C15.459 0 19.9219 4.46289 19.9219 9.96094ZM6.10352 9.96094C6.10352 12.0898 7.83203 13.8184 9.96094 13.8184C12.0898 13.8184 13.8184 12.0898 13.8184 9.96094C13.8184 7.83203 12.0898 6.10352 9.96094 6.10352C7.83203 6.10352 6.10352 7.83203 6.10352 9.96094ZM12.207 9.96094C12.207 11.2012 11.2109 12.207 9.96094 12.207C8.7207 12.207 7.71484 11.2012 7.71484 9.96094C7.71484 8.71094 8.7207 7.71484 9.96094 7.71484C11.2109 7.71484 12.207 8.71094 12.207 9.96094Z" fill="var(--color-primary)"/>
 </g>
</svg>
