<svg version="1.1" xmlns="http://www.w3.org/2000/svg" xmlns:xlink="http://www.w3.org/1999/xlink" width="20.2832" height="19.9316" viewBox="0 0 20.2832 19.9316">
 <g>
  <rect height="19.9316" opacity="0" width="20.2832" x="0" y="0"/>
  <path d="M9.96094 6.04492L6.15234 8.97461L7.67578 13.6621L12.2461 13.6621L13.7695 8.97461ZM13.3887 1.5625L9.95117 0.439453L6.50391 1.5625L9.95117 4.33594ZM9.42383 0.771484L9.42383 7.23633L10.5078 7.23633L10.5078 0.771484ZM16.7773 4.02344L15.498 8.25195L19.3457 10.4102L18.6426 6.35742ZM19.0039 7.41211L18.5938 6.41602L12.5977 8.83789L13.0078 9.84375ZM12.207 18.877L15.4688 17.4609L17.6953 14.6387L13.2031 14.5703ZM15.8203 17.0605L11.8457 11.9531L10.9766 12.6172L14.9609 17.7148ZM7.70508 18.8379L6.70898 14.5312L2.2168 14.5996L4.44336 17.4219ZM4.0918 17.0215L4.95117 17.6758L8.93555 12.5781L8.06641 11.9141ZM3.14453 4.02344L1.2793 6.35742L0.576172 10.4102L4.42383 8.25195ZM0.917969 7.41211L6.91406 9.84375L7.32422 8.83789L1.32812 6.41602ZM9.96094 19.9219C15.4102 19.9219 19.9219 15.4004 19.9219 9.96094C19.9219 4.51172 15.4004 0 9.95117 0C4.51172 0 0 4.51172 0 9.96094C0 15.4004 4.52148 19.9219 9.96094 19.9219ZM9.96094 18.5938C5.24414 18.5938 1.32812 14.6777 1.32812 9.96094C1.32812 5.24414 5.23438 1.32812 9.95117 1.32812C14.668 1.32812 18.5938 5.24414 18.5938 9.96094C18.5938 14.6777 14.6777 18.5938 9.96094 18.5938Z" fill="var(--color-primary)"/>
 </g>
</svg>
