<svg version="1.1" xmlns="http://www.w3.org/2000/svg" xmlns:xlink="http://www.w3.org/1999/xlink" viewBox="0 0 24.209 12.4512">
 <g>
  <rect height="12.4512" opacity="0" width="24.209" x="0" y="0"/>
  <path d="M0 10.3613C0 11.6504 0.722656 12.4512 2.08984 12.4512L21.7578 12.4512C23.125 12.4512 23.8477 11.6504 23.8477 10.3613L23.8477 6.99219C23.8477 6.54297 23.4863 6.18164 23.0371 6.18164C22.5781 6.18164 22.2168 6.54297 22.2168 6.99219L22.2168 10.3223C22.2168 10.6836 21.9531 10.9375 21.6016 10.9375L2.24609 10.9375C1.88477 10.9375 1.63086 10.6934 1.63086 10.3223L1.63086 6.99219C1.63086 6.54297 1.26953 6.18164 0.810547 6.18164C0.361328 6.18164 0 6.54297 0 6.99219Z" fill="var(--color-primary)"/>
 </g>
</svg>
