<svg version="1.1" xmlns="http://www.w3.org/2000/svg" xmlns:xlink="http://www.w3.org/1999/xlink" viewBox="0 0 23.9648 24.7363">
 <g>
  <rect height="24.7363" opacity="0" width="23.9648" x="0" y="0"/>
  <path d="M17.9647 2.79297L5.63882 2.79297C5.6789 1.99929 6.17978 1.54297 7.01172 1.54297L16.5918 1.54297C17.4237 1.54297 17.9246 1.99929 17.9647 2.79297Z" fill="var(--color-primary)"/>
  <path d="M19.9623 5.5825C19.6482 5.53257 19.3151 5.50781 18.9648 5.50781L4.63867 5.50781C4.2885 5.50781 3.95544 5.53256 3.64145 5.58247C3.74778 4.64426 4.38263 4.12109 5.41992 4.12109L18.1934 4.12109C19.2307 4.12109 19.8575 4.64428 19.9623 5.5825Z" fill="var(--color-primary)"/>
  <path d="M22.0312 10.1074L22.0312 20.1367C22.0312 22.1484 21.0059 23.1641 18.9648 23.1641L4.63867 23.1641C2.59766 23.1641 1.57227 22.1484 1.57227 20.1367L1.57227 10.1074C1.57227 8.0957 2.59766 7.08008 4.63867 7.08008L18.9648 7.08008C21.0059 7.08008 22.0312 8.0957 22.0312 10.1074ZM7.86133 16.5039C7.56836 17.9297 7.69531 17.998 6.09375 18.2617C5.94727 18.2812 5.85938 18.3984 5.85938 18.5352C5.85938 18.6914 5.94727 18.7891 6.11328 18.8184C7.69531 19.0527 7.56836 19.1211 7.86133 20.5664C7.91016 20.7129 7.99805 20.8203 8.14453 20.8203C8.29102 20.8203 8.38867 20.7227 8.42773 20.5957C8.70117 19.1211 8.60352 19.0527 10.2051 18.8184C10.3418 18.7891 10.4395 18.6719 10.4395 18.5352C10.4395 18.3984 10.3418 18.2812 10.2051 18.2617C8.60352 17.998 8.70117 17.9297 8.42773 16.5039C8.38867 16.3574 8.30078 16.2402 8.14453 16.2402C8.00781 16.2402 7.91016 16.3477 7.86133 16.5039ZM11.7285 10.2734C11.1816 13.2422 10.9082 13.7793 7.83203 14.1895C7.62695 14.2285 7.5 14.375 7.5 14.5605C7.5 14.7559 7.62695 14.9023 7.83203 14.9316C10.918 15.2441 11.2988 15.8984 11.7285 18.8379C11.7578 19.043 11.9043 19.1699 12.1094 19.1699C12.2949 19.1699 12.4316 19.043 12.4707 18.8477C13.0273 15.8984 13.3008 15.3418 16.377 14.9316C16.5723 14.9023 16.7188 14.7559 16.7188 14.5605C16.7188 14.375 16.5723 14.2285 16.377 14.1895C13.3105 13.7793 12.9102 13.1934 12.4707 10.2832C12.4414 10.0879 12.2949 9.95117 12.1094 9.95117C11.9238 9.95117 11.7773 10.0781 11.7285 10.2734Z" fill="var(--color-primary)"/>
 </g>
</svg>
