<svg version="1.1" xmlns="http://www.w3.org/2000/svg" xmlns:xlink="http://www.w3.org/1999/xlink" width="18.3398" height="18.2129" viewBox="0 0 18.3398 18.2129">
 <g>
  <rect height="18.2129" opacity="0" width="18.3398" x="0" y="0"/>
  <path d="M0 14.9121C0 16.9629 1.01562 17.9785 3.02734 17.9785L14.9512 17.9785C16.9629 17.9785 17.9785 16.9629 17.9785 14.9121L17.9785 3.06641C17.9785 1.02539 16.9727 0 14.9512 0L3.02734 0C1.00586 0 0 1.02539 0 3.06641ZM1.57227 14.8926L1.57227 8.99414L16.4062 8.99414L16.4062 14.8926C16.4062 15.8594 15.8887 16.4062 14.873 16.4062L3.10547 16.4062C2.08984 16.4062 1.57227 15.8594 1.57227 14.8926Z" fill="var(--color-primary)"/>
 </g>
</svg>
