<svg version="1.1" xmlns="http://www.w3.org/2000/svg" xmlns:xlink="http://www.w3.org/1999/xlink" viewBox="0 0 20.8887 24.1113">
 <g>
  <rect height="24.1113" opacity="0" width="20.8887" x="0" y="0"/>
  <path d="M10.2637 24.0918C12.9199 24.0918 13.3496 22.1094 14.9023 22.1094C16.4844 22.1094 16.7383 24.0918 19.7852 24.0918L19.834 24.0918C20.2148 24.0918 20.5273 23.7891 20.5273 23.4082C20.5273 23.0273 20.2148 22.7148 19.834 22.7148L19.7852 22.7148C18.7305 22.7148 18.1445 22.2852 17.4121 21.7578C16.7773 21.2988 15.9863 20.7324 14.9023 20.7324C13.7793 20.7324 12.9785 21.3379 12.3438 21.8066C11.6699 22.3242 11.1328 22.7148 10.2637 22.7148C9.38477 22.7148 8.85742 22.3242 8.18359 21.8066C7.54883 21.3379 6.74805 20.7324 5.625 20.7324C4.54102 20.7324 3.75 21.2988 3.11523 21.7578C2.38281 22.2852 1.78711 22.7148 0.742188 22.7148L0.693359 22.7148C0.302734 22.7148 0 23.0273 0 23.4082C0 23.7891 0.302734 24.0918 0.693359 24.0918L0.742188 24.0918C3.7793 24.0918 4.04297 22.1094 5.625 22.1094C7.17773 22.1094 7.59766 24.0918 10.2637 24.0918Z" fill="var(--color-primary)"/>
  <path d="M10.2539 19.1309C15.5371 19.1309 19.8242 14.8535 19.8242 9.57031C19.8242 4.28711 15.5371 0 10.2539 0C4.98047 0 0.693359 4.28711 0.693359 9.57031C0.693359 14.8535 4.98047 19.1309 10.2539 19.1309ZM3.64258 5.16602C5.01953 3.00781 7.46094 1.58203 10.2344 1.58203C13.0176 1.58203 15.459 3.00781 16.8457 5.15625C17.2168 5.68359 17.041 6.2793 16.4062 6.2793L4.07227 6.2793C3.45703 6.2793 3.26172 5.68359 3.64258 5.16602ZM10.2441 12.1289C9.0918 12.1289 8.16406 11.2012 8.16406 10.0391C8.16406 8.88672 9.0918 7.96875 10.2441 7.96875C11.3965 7.96875 12.3242 8.88672 12.3242 10.0391C12.3242 11.2012 11.3965 12.1289 10.2441 12.1289ZM2.54883 11.6602C2.39258 11.084 2.71484 10.8203 3.19336 10.8887C5.88867 11.1914 7.98828 13.5547 7.89062 16.3184C7.88086 16.7969 7.51953 17.1094 7.02148 16.8652C4.79492 15.8789 3.16406 13.9746 2.54883 11.6602ZM17.9395 11.6602C17.334 13.9746 15.6934 15.8789 13.4766 16.8652C12.9688 17.1094 12.6074 16.7969 12.6074 16.3184C12.5098 13.5547 14.5898 11.1914 17.2949 10.8887C17.7832 10.8203 18.1055 11.084 17.9395 11.6602Z" fill="var(--color-primary)"/>
 </g>
</svg>
