<svg version="1.1" xmlns="http://www.w3.org/2000/svg" xmlns:xlink="http://www.w3.org/1999/xlink" width="20.2832" height="19.9316" viewBox="0 0 20.2832 19.9316">
 <g>
  <rect height="19.9316" opacity="0" width="20.2832" x="0" y="0"/>
  <path d="M9.96094 19.9316C15.4102 19.9316 19.9219 15.4199 19.9219 9.9707C19.9219 4.53125 15.4004 0.00976562 9.95117 0.00976562C4.51172 0.00976562 0 4.53125 0 9.9707C0 15.4199 4.52148 19.9316 9.96094 19.9316Z" fill="var(--color-tertiary)"/>
  <path d="M6.25 9.82422C6.25 10.1465 5.97656 10.3906 5.61523 10.3906L4.32617 10.3906C3.98438 10.3906 3.7207 10.127 3.7207 9.82422C3.7207 9.52148 3.98438 9.26758 4.32617 9.26758L5.61523 9.26758C5.9668 9.26758 6.25 9.50195 6.25 9.82422ZM7.32422 7.32422C7.09961 7.55859 6.74805 7.5293 6.50391 7.29492L5.58594 6.36719C5.33203 6.10352 5.32227 5.76172 5.53711 5.54688C5.75195 5.33203 6.10352 5.3125 6.35742 5.57617L7.29492 6.50391C7.53906 6.73828 7.55859 7.09961 7.32422 7.32422ZM9.95117 5.91797C9.63867 5.91797 9.39453 5.64453 9.39453 5.29297L9.39453 4.00391C9.39453 3.65234 9.64844 3.39844 9.95117 3.39844C10.2539 3.39844 10.5176 3.65234 10.5176 4.00391L10.5176 5.29297C10.5176 5.63477 10.2637 5.91797 9.95117 5.91797ZM12.5879 7.32422C12.3535 7.09961 12.3535 6.74805 12.6074 6.50391L13.5449 5.57617C13.7793 5.32227 14.1504 5.32227 14.375 5.54688C14.5801 5.77148 14.5703 6.10352 14.3164 6.36719L13.4082 7.29492C13.1641 7.53906 12.8125 7.54883 12.5879 7.32422ZM13.6621 9.82422C13.6621 9.50195 13.9355 9.26758 14.2871 9.26758L15.5859 9.26758C15.9277 9.26758 16.1816 9.52148 16.1816 9.82422C16.1816 10.1367 15.9277 10.3906 15.5859 10.3906L14.2871 10.3906C13.9355 10.3906 13.6621 10.1367 13.6621 9.82422ZM7.11914 10.8691C7.02148 10.5859 6.95312 10.2734 6.95312 9.95117C6.95312 8.31055 8.32031 6.94336 9.95117 6.94336C11.5918 6.94336 12.9492 8.31055 12.9492 9.95117C12.9492 10.2734 12.8809 10.5859 12.7832 10.8691ZM5.01953 12.3145C4.81445 12.3145 4.66797 12.168 4.66797 11.9629C4.66797 11.7578 4.81445 11.6113 5.01953 11.6113L15.8301 11.6113C16.0352 11.6113 16.1816 11.7578 16.1816 11.9629C16.1816 12.168 16.0352 12.3145 15.8301 12.3145ZM4.08203 13.7012C3.87695 13.7012 3.7207 13.5449 3.7207 13.3398C3.7207 13.1445 3.87695 12.9883 4.08203 12.9883L14.8828 12.9883C15.0879 12.9883 15.2344 13.1445 15.2344 13.3398C15.2344 13.5449 15.0879 13.7012 14.8828 13.7012ZM5.01953 15.0781C4.81445 15.0781 4.66797 14.9316 4.66797 14.7266C4.66797 14.5215 4.81445 14.375 5.01953 14.375L15.8301 14.375C16.0352 14.375 16.1816 14.5215 16.1816 14.7266C16.1816 14.9316 16.0352 15.0781 15.8301 15.0781Z" fill="var(--color-primary)"/>
 </g>
</svg>
