<svg version="1.1" xmlns="http://www.w3.org/2000/svg" xmlns:xlink="http://www.w3.org/1999/xlink" viewBox="0 0 18.3398 17.9785">
 <g>
  <rect height="17.9785" opacity="0" width="18.3398" x="0" y="0"/>
  <path d="M17.9785 3.02734L17.9785 14.9609C17.9785 16.9727 16.9629 17.9785 14.9121 17.9785L3.06641 17.9785C1.02539 17.9785 0 16.9727 0 14.9609L0 3.02734C0 1.01562 1.02539 0 3.06641 0L14.9121 0C16.9629 0 17.9785 1.01562 17.9785 3.02734ZM5.70312 4.33594C5.3125 4.33594 5.01953 4.58008 5.01953 5C5.01953 5.40039 5.3125 5.66406 5.70312 5.66406L8.17383 5.66406L8.17383 12.7246C8.17383 13.2617 8.44727 13.6426 8.97461 13.6426C9.50195 13.6426 9.78516 13.2812 9.78516 12.7246L9.78516 5.66406L12.2852 5.66406C12.6758 5.66406 12.9688 5.40039 12.9688 5C12.9688 4.58008 12.6758 4.33594 12.2852 4.33594Z" fill="var(--color-primary)"/>
 </g>
</svg>
