<svg version="1.1" xmlns="http://www.w3.org/2000/svg" xmlns:xlink="http://www.w3.org/1999/xlink" viewBox="0 0 18.3398 17.9785">
 <g>
  <rect height="17.9785" opacity="0" width="18.3398" x="0" y="0"/>
  <path d="M3.06641 17.9785L14.9121 17.9785C16.9629 17.9785 17.9785 16.9727 17.9785 14.9609L17.9785 3.02734C17.9785 1.01562 16.9629 0 14.9121 0L3.06641 0C1.02539 0 0 1.01562 0 3.02734L0 14.9609C0 16.9727 1.02539 17.9785 3.06641 17.9785ZM3.08594 16.4062C2.10938 16.4062 1.57227 15.8887 1.57227 14.873L1.57227 3.11523C1.57227 2.09961 2.10938 1.57227 3.08594 1.57227L14.8926 1.57227C15.8594 1.57227 16.4062 2.09961 16.4062 3.11523L16.4062 14.873C16.4062 15.8887 15.8594 16.4062 14.8926 16.4062Z" fill="var(--color-primary)"/>
  <path d="M6.98242 14.0625C7.57812 14.6484 8.16406 14.6582 8.76953 14.0527L13.4863 9.36523C13.8672 9.00391 14.1406 8.74023 14.1406 8.14453L14.1406 6.30859C14.1406 5.86914 14.0234 5.61523 13.7305 5.3125L12.8809 4.47266C12.5781 4.17969 12.3242 3.99414 11.8848 3.99414L9.99023 3.99414C9.4043 3.99414 9.13086 4.26758 8.75977 4.64844L4.08203 9.375C3.48633 9.98047 3.48633 10.5566 4.07227 11.1426ZM10.7324 7.40234C10.459 7.13867 10.459 6.68945 10.7324 6.41602C10.9961 6.14258 11.4453 6.14258 11.709 6.41602C11.9824 6.67969 11.9824 7.11914 11.709 7.39258C11.4355 7.67578 11.0059 7.67578 10.7324 7.40234Z" fill="var(--color-primary)"/>
 </g>
</svg>
