<svg version="1.1" xmlns="http://www.w3.org/2000/svg" xmlns:xlink="http://www.w3.org/1999/xlink" viewBox="0 0 28.4766 18.2324">
 <g>
  <rect height="18.2324" opacity="0" width="28.4766" x="0" y="0"/>
  <path d="M10.4688 4.31641L12.1289 4.31641C12.793 4.31641 13.1543 3.93555 13.1543 3.28125L13.1543 1.61133C13.1543 0.947266 12.793 0.576172 12.1289 0.576172L10.4688 0.576172C9.81445 0.576172 9.42383 0.947266 9.42383 1.61133L9.42383 3.28125C9.42383 3.93555 9.81445 4.31641 10.4688 4.31641ZM15.3711 4.31641L17.041 4.31641C17.6953 4.31641 18.0664 3.93555 18.0664 3.28125L18.0664 1.61133C18.0664 0.947266 17.6953 0.576172 17.041 0.576172L15.3711 0.576172C14.707 0.576172 14.3164 0.947266 14.3164 1.61133L14.3164 3.28125C14.3164 3.93555 14.707 4.31641 15.3711 4.31641ZM20.2637 4.31641L21.9238 4.31641C22.5781 4.31641 22.959 3.93555 22.959 3.28125L22.959 1.61133C22.959 0.947266 22.5781 0.576172 21.9238 0.576172L20.2637 0.576172C19.5996 0.576172 19.2285 0.947266 19.2285 1.61133L19.2285 3.28125C19.2285 3.93555 19.5996 4.31641 20.2637 4.31641ZM25.1465 4.31641L26.8262 4.31641C27.4805 4.31641 27.8711 3.93555 27.8711 3.28125L27.8711 1.61133C27.8711 0.947266 27.4805 0.576172 26.8262 0.576172L25.1465 0.576172C24.502 0.576172 24.1406 0.947266 24.1406 1.61133L24.1406 3.28125C24.1406 3.93555 24.502 4.31641 25.1465 4.31641ZM10.4492 9.21875L12.1191 9.21875C12.7832 9.21875 13.1543 8.85742 13.1543 8.18359L13.1543 6.50391C13.1543 5.84961 12.7832 5.47852 12.1191 5.47852L10.4492 5.47852C9.79492 5.47852 9.42383 5.84961 9.42383 6.50391L9.42383 8.18359C9.42383 8.85742 9.79492 9.21875 10.4492 9.21875ZM15.3418 9.21875L21.9531 9.21875C22.6172 9.21875 22.9785 8.85742 22.9785 8.18359L22.9785 6.50391C22.9785 5.84961 22.6172 5.47852 21.9531 5.47852L15.3418 5.47852C14.6875 5.47852 14.3164 5.84961 14.3164 6.50391L14.3164 8.18359C14.3164 8.85742 14.6875 9.21875 15.3418 9.21875ZM25.1855 9.21875L26.8555 9.21875C27.5195 9.21875 27.8711 8.85742 27.8711 8.18359L27.8711 6.50391C27.8711 5.84961 27.5195 5.47852 26.8555 5.47852L25.1855 5.47852C24.5215 5.47852 24.1504 5.84961 24.1504 6.50391L24.1504 8.18359C24.1504 8.85742 24.5215 9.21875 25.1855 9.21875ZM4.99023 13.1543C7.87109 16.0352 11.3086 18.2227 14.0723 18.2227C15.3711 18.2227 16.5039 17.7051 17.2461 16.875C17.959 16.0742 18.2031 15.4785 18.2031 14.9512C18.2031 14.541 17.9395 14.1602 17.3047 13.7109L14.9219 12.002C14.3262 11.582 14.0625 11.5039 13.7109 11.5039C13.4082 11.5039 13.1543 11.5625 12.6465 11.8359L11.084 12.6953C10.8984 12.8027 10.8105 12.8223 10.6836 12.8223C10.498 12.8223 10.3711 12.7734 10.1855 12.6953C9.43359 12.3535 8.38867 11.5332 7.4707 10.6055C6.54297 9.67773 5.82031 8.73047 5.44922 7.99805C5.40039 7.90039 5.3418 7.74414 5.3418 7.58789C5.3418 7.46094 5.41016 7.35352 5.48828 7.2168L6.40625 5.64453C6.65039 5.21484 6.72852 4.98047 6.72852 4.64844C6.72852 4.26758 6.60156 3.85742 6.23047 3.33984L4.59961 1.05469C4.13086 0.400391 3.7793 0 3.24219 0C2.58789 0 1.80664 0.498047 1.24023 1.04492C0.429688 1.82617 0 2.91992 0 4.15039C0 6.93359 2.13867 10.3027 4.99023 13.1543Z" fill="var(--color-primary)"/>
 </g>
</svg>
