<svg version="1.1" xmlns="http://www.w3.org/2000/svg" xmlns:xlink="http://www.w3.org/1999/xlink" viewBox="0 0 18.3398 17.9785">
 <g>
  <rect height="17.9785" opacity="0" width="18.3398" x="0" y="0"/>
  <path d="M3.06641 17.9785L14.9121 17.9785C16.9629 17.9785 17.9785 16.9727 17.9785 14.9609L17.9785 3.02734C17.9785 1.01562 16.9629 0 14.9121 0L3.06641 0C1.02539 0 0 1.01562 0 3.02734L0 14.9609C0 16.9727 1.02539 17.9785 3.06641 17.9785ZM3.08594 16.4062C2.10938 16.4062 1.57227 15.8887 1.57227 14.873L1.57227 3.11523C1.57227 2.09961 2.10938 1.57227 3.08594 1.57227L14.8926 1.57227C15.8594 1.57227 16.4062 2.09961 16.4062 3.11523L16.4062 14.873C16.4062 15.8887 15.8594 16.4062 14.8926 16.4062Z" fill="var(--color-primary)"/>
  <path d="M9.01367 13.5547C9.33594 13.5547 9.57031 13.3105 9.57031 12.9688L9.57031 7.23633L11.8848 7.23633C12.1484 7.23633 12.334 7.04102 12.334 6.78711C12.334 6.54297 12.1484 6.34766 11.8848 6.34766L6.10352 6.34766C5.84961 6.34766 5.6543 6.54297 5.6543 6.78711C5.6543 7.04102 5.84961 7.23633 6.10352 7.23633L8.4375 7.23633L8.4375 12.9688C8.4375 13.3105 8.68164 13.5547 9.01367 13.5547ZM5.625 4.93164C5.625 5.12695 5.77148 5.25391 5.95703 5.25391L12.002 5.25391C12.1875 5.25391 12.334 5.11719 12.334 4.93164C12.334 4.75586 12.1875 4.60938 12.002 4.60938L5.95703 4.60938C5.77148 4.60938 5.625 4.75586 5.625 4.93164Z" fill="var(--color-primary)"/>
 </g>
</svg>
