<svg version="1.1" xmlns="http://www.w3.org/2000/svg" xmlns:xlink="http://www.w3.org/1999/xlink" width="28.4675" height="20.2246" viewBox="0 0 28.4675 20.2246">
 <g>
  <rect height="20.2246" opacity="0" width="28.4675" x="0" y="0"/>
  <path d="M8.59411 2.79297L12.3045 10.2314L10.3862 14.0748L7.92028 8.89648C7.82263 8.68164 7.65661 8.58398 7.47107 8.58398C7.29528 8.58398 7.12927 8.68164 7.03161 8.89648L3.89685 15.459L6.30896 15.459L7.47107 10.4395L8.63318 15.459L9.69527 15.459L8.94949 16.9531L1.13318 16.9531C0.0882535 16.9531-0.234012 15.9766 0.166379 15.1855L6.34802 2.79297C6.58239 2.34375 7.00232 2.04102 7.47107 2.04102C7.93982 2.04102 8.35974 2.34375 8.59411 2.79297Z" fill="var(--color-secondary)"/>
  <path d="M9.41443 20.2246L26.807 20.2246C28.0277 20.2246 28.3695 19.1211 27.9008 18.1934L19.434 1.2207C19.1508 0.664062 18.6429 0.322266 18.1156 0.322266C17.5785 0.322266 17.0804 0.644531 16.8168 1.19141L8.33044 18.1934C7.86169 19.1211 8.20349 20.2246 9.41443 20.2246ZM13.1937 18.7207L17.4906 9.6875C17.6273 9.4043 17.8617 9.26758 18.1156 9.26758C18.3597 9.26758 18.5941 9.4043 18.7308 9.6875L23.0277 18.7207L19.6879 18.7207L18.1156 11.8066L16.5336 18.7207Z" fill="var(--color-primary)"/>
 </g>
</svg>
