<svg version="1.1" xmlns="http://www.w3.org/2000/svg" xmlns:xlink="http://www.w3.org/1999/xlink" viewBox="0 0 20.0391 16.8848">
 <g>
  <rect height="16.8848" opacity="0" width="20.0391" x="0" y="0"/>
  <path d="M0.732422 1.54297L18.9258 1.54297C19.3359 1.54297 19.6777 1.21094 19.6777 0.800781C19.6777 0.390625 19.3359 0.0683594 18.9258 0.0683594L0.732422 0.0683594C0.322266 0.0683594 0 0.390625 0 0.800781C0 1.21094 0.322266 1.54297 0.732422 1.54297ZM0.732422 6.65039L18.9258 6.65039C19.3359 6.65039 19.6777 6.32812 19.6777 5.91797C19.6777 5.50781 19.3359 5.17578 18.9258 5.17578L0.732422 5.17578C0.322266 5.17578 0 5.50781 0 5.91797C0 6.32812 0.322266 6.65039 0.732422 6.65039ZM12.2461 11.7676L18.9258 11.7676C19.3359 11.7676 19.6777 11.4453 19.6777 11.0352C19.6777 10.6152 19.3359 10.293 18.9258 10.293L12.2461 10.293C11.8359 10.293 11.5137 10.6152 11.5137 11.0352C11.5137 11.4453 11.8359 11.7676 12.2461 11.7676ZM12.2461 16.8848L18.9258 16.8848C19.3359 16.8848 19.6777 16.5625 19.6777 16.1523C19.6777 15.7324 19.3359 15.4102 18.9258 15.4102L12.2461 15.4102C11.8359 15.4102 11.5137 15.7324 11.5137 16.1523C11.5137 16.5625 11.8359 16.8848 12.2461 16.8848Z" fill="var(--color-primary)"/>
  <path d="M0.00976562 10.2051L0.00976562 12.4121C0.00976562 13.7988 0.986328 14.6484 2.36328 14.6484L5.24414 14.6484L5.24414 15.6641C5.24414 16.4551 5.99609 16.7578 6.61133 16.2598L9.25781 14.1406C9.6582 13.8281 9.6582 13.2715 9.25781 12.9492L6.61133 10.8398C6.01562 10.3711 5.24414 10.6641 5.24414 11.4355L5.24414 12.4121L2.57812 12.4121C2.35352 12.4121 2.24609 12.2852 2.24609 12.0703L2.24609 10.2051C2.24609 9.41406 1.83594 8.91602 1.12305 8.91602C0.410156 8.91602 0.00976562 9.41406 0.00976562 10.2051Z" fill="var(--color-primary)"/>
 </g>
</svg>
