<svg version="1.1" xmlns="http://www.w3.org/2000/svg" xmlns:xlink="http://www.w3.org/1999/xlink" viewBox="0 0 20.2832 19.9316">
 <g>
  <rect height="19.9316" opacity="0" width="20.2832" x="0" y="0"/>
  <path d="M9.96094 19.9219C15.459 19.9219 19.9219 15.459 19.9219 9.96094C19.9219 4.46289 15.459 0 9.96094 0C4.46289 0 0 4.46289 0 9.96094C0 15.459 4.46289 19.9219 9.96094 19.9219ZM9.96094 18.2617C5.37109 18.2617 1.66016 14.5508 1.66016 9.96094C1.66016 5.37109 5.37109 1.66016 9.96094 1.66016C14.5508 1.66016 18.2617 5.37109 18.2617 9.96094C18.2617 14.5508 14.5508 18.2617 9.96094 18.2617Z" fill="var(--color-primary)"/>
  <path d="M8.13477 16.4453C9.63867 16.4453 10.8496 15.2344 10.8496 13.7402C10.8496 12.9492 10.5176 12.2461 9.89258 11.6895C9.79492 11.6016 9.77539 11.543 9.77539 11.3965L9.78516 6.72852C9.78516 5.66406 9.11133 4.93164 8.13477 4.93164C7.14844 4.93164 6.48438 5.66406 6.48438 6.72852L6.48438 11.3965C6.48438 11.543 6.46484 11.6016 6.34766 11.6895C5.73242 12.2461 5.41016 12.9492 5.41016 13.7402C5.41016 15.2344 6.62109 16.4453 8.13477 16.4453ZM8.13477 15.6543C7.06055 15.6543 6.2207 14.8047 6.2207 13.7402C6.2207 13.0957 6.51367 12.5195 7.05078 12.1582C7.22656 12.0508 7.28516 11.9434 7.28516 11.7188L7.28516 6.75781C7.28516 6.14258 7.61719 5.75195 8.13477 5.75195C8.63281 5.75195 8.96484 6.14258 8.96484 6.75781L8.96484 11.7188C8.96484 11.9434 9.02344 12.0508 9.19922 12.1582C9.73633 12.5195 10.0391 13.0957 10.0391 13.7402C10.0391 14.8047 9.17969 15.6543 8.13477 15.6543ZM8.125 15.0098C8.83789 15.0098 9.4043 14.4336 9.4043 13.7305C9.4043 13.2422 9.12109 12.832 8.71094 12.6074C8.55469 12.5293 8.50586 12.4609 8.50586 12.2266L8.50586 7.19727C8.50586 6.93359 8.33984 6.76758 8.125 6.76758C7.91016 6.76758 7.75391 6.93359 7.75391 7.19727L7.75391 12.2266C7.75391 12.4609 7.70508 12.5293 7.5293 12.6074C7.13867 12.832 6.85547 13.2422 6.85547 13.7305C6.85547 14.4434 7.42188 15.0098 8.125 15.0098ZM10.5859 5.19531C10.8789 5.19531 11.0938 4.95117 11.0938 4.6875L11.0938 3.56445C11.0938 3.29102 10.8789 3.06641 10.5859 3.06641C10.3027 3.06641 10.0781 3.29102 10.0781 3.56445L10.0781 4.6875C10.0781 4.96094 10.3027 5.19531 10.5859 5.19531ZM12.9199 6.16211C13.1055 6.35742 13.4473 6.35742 13.6426 6.16211L14.4238 5.37109C14.6094 5.17578 14.6191 4.84375 14.4141 4.64844C14.2188 4.45312 13.9062 4.45312 13.7207 4.64844L12.9199 5.44922C12.7148 5.64453 12.7246 5.9668 12.9199 6.16211ZM14.375 8.99414L15.4883 8.99414C15.7715 8.99414 15.9961 8.75 15.9961 8.49609C15.9961 8.21289 15.7715 7.97852 15.4883 7.97852L14.375 7.97852C14.1016 7.97852 13.877 8.21289 13.877 8.49609C13.877 8.75 14.1016 8.99414 14.375 8.99414ZM13.7207 12.334C13.9062 12.5195 14.2188 12.5293 14.4141 12.334C14.6191 12.1387 14.6191 11.7969 14.4238 11.6211L13.6328 10.8203C13.4375 10.625 13.1152 10.625 12.9199 10.8203C12.7246 11.0156 12.7148 11.3477 12.9199 11.5332ZM10.498 11.0547C11.9727 11.1035 13.1641 9.9707 13.1641 8.49609C13.1641 7.05078 12.0215 5.9082 10.5859 5.9082C10.5176 5.9082 10.4492 5.9082 10.3809 5.92773C10.4688 6.18164 10.5078 6.44531 10.5078 6.72852Z" fill="var(--color-primary)"/>
 </g>
</svg>
