<svg version="1.1" xmlns="http://www.w3.org/2000/svg" xmlns:xlink="http://www.w3.org/1999/xlink" viewBox="0 0 20.2832 19.9316">
 <g>
  <rect height="19.9316" opacity="0" width="20.2832" x="0" y="0"/>
  <path d="M9.96094 19.9219C15.459 19.9219 19.9219 15.459 19.9219 9.96094C19.9219 4.46289 15.459 0 9.96094 0C4.46289 0 0 4.46289 0 9.96094C0 15.459 4.46289 19.9219 9.96094 19.9219ZM9.96094 18.2617C5.37109 18.2617 1.66016 14.5508 1.66016 9.96094C1.66016 5.37109 5.37109 1.66016 9.96094 1.66016C14.5508 1.66016 18.2617 5.37109 18.2617 9.96094C18.2617 14.5508 14.5508 18.2617 9.96094 18.2617Z" fill="var(--color-primary)"/>
  <path d="M9.87305 9.07227C13.1445 9.07227 15.0977 8.24219 15.0977 7.03125C15.0977 5.92773 13.5449 5.27344 11.3867 5.27344C9.78516 5.27344 8.51562 5.57617 7.56836 6.02539C7.25586 6.17188 7.1875 6.49414 7.30469 6.71875C7.43164 6.97266 7.75391 7.04102 8.01758 6.92383C8.85742 6.57227 9.90234 6.23047 11.3477 6.23047C13.1055 6.23047 14.0723 6.62109 14.0723 7.02148C14.0723 7.5 12.5195 8.08594 9.83398 8.08594C7.17773 8.08594 5.84961 7.57812 5.84961 6.65039C5.84961 6.09375 6.34766 5.50781 7.85156 5.03906C8.1543 4.93164 8.31055 4.66797 8.22266 4.39453C8.125 4.13086 7.88086 4.02344 7.5293 4.12109C5.72266 4.66797 4.81445 5.63477 4.81445 6.66992C4.81445 8.25195 6.60156 9.07227 9.87305 9.07227ZM10.0293 10.8203C11.709 10.8203 13.2617 10.5469 14.3457 10.0879C14.6094 9.99023 14.7266 9.7168 14.6094 9.47266C14.4824 9.24805 14.2285 9.18945 13.9453 9.29688C12.9785 9.67773 11.5625 9.92188 10.0293 9.92188C8.88672 9.92188 7.60742 9.78516 6.5918 9.49219C6.30859 9.41406 6.05469 9.51172 5.97656 9.76562C5.9082 10.0195 6.04492 10.2734 6.33789 10.3516C7.43164 10.6641 8.83789 10.8203 10.0293 10.8203ZM10.3906 12.5391C11.8066 12.5293 13.125 12.334 14.3262 11.9336C14.6582 11.8066 14.7266 11.5137 14.6387 11.3086C14.5508 11.0645 14.2969 10.9863 13.9844 11.0938C12.8125 11.4746 11.6406 11.6602 10.3906 11.6602C9.85352 11.6602 9.30664 11.6211 8.87695 11.5625C8.56445 11.5234 8.36914 11.6602 8.31055 11.8945C8.26172 12.1387 8.39844 12.373 8.73047 12.4414C9.15039 12.5098 9.73633 12.5488 10.3906 12.5391ZM9.90234 14.1797C10.8789 14.2871 12.0605 14.2676 13.0762 13.9844C13.3691 13.8965 13.4863 13.6328 13.4082 13.4082C13.3203 13.1543 13.0859 13.0469 12.7734 13.1348C11.9238 13.3594 10.9473 13.4277 10.0391 13.3008C9.73633 13.2812 9.51172 13.4277 9.47266 13.6816C9.45312 13.9258 9.58008 14.1406 9.90234 14.1797ZM9.53125 15.8594C9.88281 15.8984 10.2734 15.8984 10.6348 15.8594C10.9375 15.8105 11.0742 15.6152 11.0645 15.3711C11.0254 15.1465 10.8496 14.9707 10.5273 15.0098C10.2344 15.0488 9.92188 15.0586 9.62891 15.0098C9.31641 14.9707 9.13086 15.1562 9.10156 15.3613C9.07227 15.5957 9.19922 15.8105 9.53125 15.8594Z" fill="var(--color-primary)"/>
 </g>
</svg>
