<svg version="1.1" xmlns="http://www.w3.org/2000/svg" xmlns:xlink="http://www.w3.org/1999/xlink" viewBox="0 0 20.3062 23.4668">
 <g>
  <rect height="23.4668" opacity="0" width="20.3062" x="0" y="0"/>
  <path d="M0.099376 17.0508C-0.291249 18.6133 0.480235 19.5898 2.22828 19.5898L17.7068 19.5898C19.4646 19.5898 20.2263 18.6133 19.8455 17.0508L17.1306 6.02539C16.7693 4.55078 15.949 3.76953 14.367 3.76953L5.57789 3.76953C3.98609 3.76953 3.17555 4.55078 2.80445 6.02539ZM1.58375 17.0508L4.2107 6.23047C4.37672 5.55664 4.77711 5.24414 5.50953 5.24414L14.4353 5.24414C15.1677 5.24414 15.5681 5.55664 15.7341 6.23047L18.3513 17.0508C18.5173 17.6953 18.1951 18.1152 17.5603 18.1152L2.37477 18.1152C1.74977 18.1152 1.4275 17.6953 1.58375 17.0508ZM9.98219 23.3594C10.4314 23.3594 10.7146 23.0566 10.7146 22.5781L10.7146 0.78125C10.7146 0.292969 10.4314 0 9.98219 0C9.5232 0 9.24 0.292969 9.24 0.78125L9.24 22.5781C9.24 23.0566 9.5232 23.3594 9.98219 23.3594Z" fill="var(--color-primary)"/>
 </g>
</svg>
