<svg version="1.1" xmlns="http://www.w3.org/2000/svg" xmlns:xlink="http://www.w3.org/1999/xlink" width="20.2832" height="19.9316" viewBox="0 0 20.2832 19.9316">
 <g>
  <rect height="19.9316" opacity="0" width="20.2832" x="0" y="0"/>
  <path d="M9.96094 19.9316C15.4102 19.9316 19.9219 15.4199 19.9219 9.9707C19.9219 4.53125 15.4004 0.00976562 9.95117 0.00976562C4.51172 0.00976562 0 4.53125 0 9.9707C0 15.4199 4.52148 19.9316 9.96094 19.9316Z" fill="var(--color-tertiary)"/>
  <path d="M7.68932 9.55455L7.85156 13.9941C7.85156 14.1895 8.00781 14.3359 8.21289 14.3359C8.4375 14.3359 8.56445 14.1895 8.56445 13.9941L8.44829 10.3135L9.56055 11.4258L9.56055 13.9941C9.56055 14.1895 9.69727 14.3359 9.92188 14.3359C10.1562 14.3359 10.3027 14.1895 10.3027 13.9941L10.3027 12.168L11.3161 13.1813L11.2891 13.9941C11.2891 14.1895 11.4258 14.3359 11.6504 14.3359C11.8457 14.3359 12.0117 14.1895 12.0117 13.9941L12.0157 13.8809L13.5283 15.3935C13.3484 15.722 13.0074 15.8984 12.5488 15.8984L7.34375 15.8984C6.66016 15.8984 6.26953 15.5176 6.24023 14.834L5.93831 7.80355ZM5.21484 4.77539L14.9609 14.5215C15.1367 14.6973 15.1367 14.9707 14.9609 15.166C14.7852 15.332 14.4824 15.332 14.3164 15.166L4.56055 5.41992C4.39453 5.25391 4.39453 4.96094 4.56055 4.77539C4.75586 4.59961 5.03906 4.59961 5.21484 4.77539ZM12.3926 5.20508L12.3926 6.01562L14.7949 6.01562C15.0488 6.01562 15.2539 6.21094 15.2441 6.45508C15.2344 6.67969 15.0488 6.875 14.7949 6.875L14.0039 6.875L13.7763 12.331L12.1273 10.6819L12.2168 8.11523C12.2168 7.90039 12.0898 7.76367 11.8555 7.76367C11.6406 7.76367 11.4844 7.89062 11.4844 8.11523L11.4225 9.9772L10.3027 8.85742L10.3027 8.11523C10.3027 7.90039 10.1562 7.76367 9.92188 7.76367C9.69727 7.76367 9.56055 7.90039 9.56055 8.11523L7.46094 6.01563L7.49023 6.01562L7.49023 5.20508C7.49023 4.36523 8.03711 3.83789 8.91602 3.83789L10.9473 3.83789C11.8359 3.83789 12.3926 4.36523 12.3926 5.20508ZM8.97461 4.82422C8.71094 4.82422 8.51562 4.99023 8.51562 5.25391L8.51562 6.01562L11.3477 6.01562L11.3477 5.25391C11.3477 4.99023 11.1621 4.82422 10.8887 4.82422Z" fill="var(--color-primary)"/>
 </g>
</svg>
