<svg version="1.1" xmlns="http://www.w3.org/2000/svg" xmlns:xlink="http://www.w3.org/1999/xlink" width="37.3926" height="28.6816" viewBox="0 0 37.3926 28.6816">
 <g>
  <rect height="28.6816" opacity="0" width="37.3926" x="0" y="0"/>
  <path d="M9.96094 19.3164C9.96094 20.7715 8.80859 21.9238 7.34375 21.9238C5.89844 21.9238 4.73633 20.7617 4.73633 19.3164C4.73633 17.8613 5.89844 16.6992 7.34375 16.6992C8.79883 16.6992 9.96094 17.8613 9.96094 19.3164ZM30.5762 19.3164C30.5762 20.7617 29.4141 21.9238 27.959 21.9238C26.5039 21.9238 25.3418 20.7617 25.3418 19.3164C25.3418 17.8711 26.5137 16.6992 27.959 16.6992C29.4141 16.6992 30.5762 17.8613 30.5762 19.3164ZM26.3574 9.30664L26.5918 11.2988L34.7266 11.2988C36.1719 11.2988 37.0312 12.041 37.0312 13.291L37.0312 17.6855C37.0312 19.2773 36.1035 20.2344 34.5508 20.2344L31.5918 20.2344C31.6699 19.9316 31.709 19.6387 31.709 19.3164C31.709 17.2363 30.0391 15.5664 27.959 15.5664C25.8887 15.5664 24.209 17.2461 24.209 19.3164C24.209 19.6387 24.248 19.9316 24.3262 20.2344L10.9863 20.2344C11.0547 19.9414 11.0938 19.6387 11.0938 19.3164C11.0938 17.2363 9.42383 15.5664 7.34375 15.5664C5.27344 15.5664 3.59375 17.2363 3.59375 19.3164C3.59375 19.6387 3.64258 19.9316 3.71094 20.2344L2.49023 20.2344C0.9375 20.2344 0 19.2773 0 17.6855L0 15.3223C0 13.0273 1.33789 11.7578 4.29688 11.3086L7.93945 10.752L11.9336 8.25195C12.55 7.86321 13.1475 7.54553 13.7598 7.29215L13.7598 8.80859C13.7598 10.2832 14.6875 11.1914 16.0645 11.1914L21.0156 11.1914C22.3926 11.1914 23.3203 10.2832 23.3203 8.80859L23.3203 6.40285C25.1232 6.46559 26.1406 7.44032 26.3574 9.30664Z" fill="var(--color-secondary)"/>
  <path d="M15.918 4.25781L17.1973 4.24805L17.1973 2.8418C17.1973 1.82617 17.6953 1.2793 18.5352 1.2793C19.3848 1.2793 19.873 1.82617 19.873 2.8418L19.873 4.24805L21.1523 4.25781L21.1523 2.94922C21.1523 1.18164 20.0977 0 18.5352 0C16.9824 0 15.918 1.18164 15.918 2.94922ZM16.0645 9.85352L21.0156 9.85352C21.6797 9.85352 21.9922 9.52148 21.9922 8.80859L21.9922 5.00977C21.9922 4.29688 21.6797 3.96484 21.0156 3.96484L16.0645 3.96484C15.4004 3.96484 15.0879 4.29688 15.0879 5.00977L15.0879 8.80859C15.0879 9.52148 15.4004 9.85352 16.0645 9.85352Z" fill="var(--color-primary)"/>
 </g>
</svg>
