<svg version="1.1" xmlns="http://www.w3.org/2000/svg" xmlns:xlink="http://www.w3.org/1999/xlink" width="30.0391" height="24.6777" viewBox="0 0 30.0391 24.6777">
 <g>
  <rect height="24.6777" opacity="0" width="30.0391" x="0" y="0"/>
  <path d="M12.5391 21.25C12.5391 21.5509 12.5637 21.831 12.6112 22.0898L8.26172 22.0898C7.83203 22.0898 7.48047 21.7383 7.48047 21.2988C7.48047 20.8594 7.83203 20.5078 8.26172 20.5078L12.5391 20.5078ZM25.3809 5.07812L25.3809 14.3262L15.9375 14.3262C14.0137 14.3262 12.5391 15.4297 12.5391 17.6953L12.5391 18.7793L3.47656 18.7793C1.81641 18.7793 0.966797 17.9688 0.966797 16.2695L0.966797 5.07812C0.966797 3.37891 1.81641 2.56836 3.47656 2.56836L22.8809 2.56836C24.541 2.56836 25.3809 3.37891 25.3809 5.07812Z" fill="var(--color-secondary)"/>
  <path d="M15.9375 23.3398L26.6406 23.3398C28.0078 23.3398 28.7109 22.6465 28.7109 21.25L28.7109 17.7539C28.7109 16.3477 28.0078 15.6543 26.6406 15.6543L15.9375 15.6543C14.541 15.6543 13.8672 16.3477 13.8672 17.6953L13.8672 21.25C13.8672 22.6465 14.541 23.3398 15.9375 23.3398ZM25.5078 20.0098C24.8828 20.0098 24.375 19.502 24.375 18.877C24.375 18.2617 24.8828 17.7637 25.5078 17.7637C26.1133 17.7637 26.6211 18.2617 26.6211 18.877C26.6211 19.502 26.1133 20.0098 25.5078 20.0098Z" fill="var(--color-primary)"/>
 </g>
</svg>
