<svg version="1.1" xmlns="http://www.w3.org/2000/svg" xmlns:xlink="http://www.w3.org/1999/xlink" viewBox="0 0 20.2832 19.9316">
 <g>
  <rect height="19.9316" opacity="0" width="20.2832" x="0" y="0"/>
  <path d="M9.96094 19.9219C15.459 19.9219 19.9219 15.459 19.9219 9.96094C19.9219 4.46289 15.459 0 9.96094 0C4.46289 0 0 4.46289 0 9.96094C0 15.459 4.46289 19.9219 9.96094 19.9219ZM9.96094 18.2617C5.37109 18.2617 1.66016 14.5508 1.66016 9.96094C1.66016 5.37109 5.37109 1.66016 9.96094 1.66016C14.5508 1.66016 18.2617 5.37109 18.2617 9.96094C18.2617 14.5508 14.5508 18.2617 9.96094 18.2617Z" fill="var(--color-primary)"/>
  <path d="M5.57617 13.3691L14.3066 13.3691C15.1074 13.3691 15.6836 12.8125 15.6836 12.0117L15.6836 6.98242C15.6836 6.18164 15.1074 5.61523 14.3066 5.61523L5.57617 5.61523C4.77539 5.61523 4.20898 6.18164 4.20898 6.98242L4.20898 12.0117C4.20898 12.8125 4.77539 13.3691 5.57617 13.3691ZM5.69336 12.3828C5.42969 12.3828 5.24414 12.1973 5.24414 11.9238L5.24414 7.07031C5.24414 6.78711 5.42969 6.60156 5.69336 6.60156L14.1992 6.60156C14.4629 6.60156 14.6484 6.78711 14.6484 7.07031L14.6484 11.9238C14.6484 12.1973 14.4629 12.3828 14.1992 12.3828ZM7.42188 15.3516L12.5 15.3516C12.7734 15.3516 12.998 15.1367 12.998 14.8633C12.998 14.5898 12.7734 14.3652 12.5 14.3652L7.42188 14.3652C7.14844 14.3652 6.92383 14.5898 6.92383 14.8633C6.92383 15.1367 7.14844 15.3516 7.42188 15.3516Z" fill="var(--color-primary)"/>
 </g>
</svg>
