<svg version="1.1" xmlns="http://www.w3.org/2000/svg" xmlns:xlink="http://www.w3.org/1999/xlink" width="18.3398" height="17.998" viewBox="0 0 18.3398 17.998">
 <g>
  <rect height="17.998" opacity="0" width="18.3398" x="0" y="0"/>
  <path d="M3.06641 17.998L14.9121 17.998C16.9629 17.998 17.9785 16.9824 17.9785 14.9707L17.9785 3.04688C17.9785 1.03516 16.9629 0.0195312 14.9121 0.0195312L3.06641 0.0195312C1.02539 0.0195312 0 1.02539 0 3.04688L0 14.9707C0 16.9922 1.02539 17.998 3.06641 17.998Z" fill="var(--color-tertiary)"/>
  <path d="M4.79492 13.0566C3.79883 13.0566 3.19336 12.4707 3.19336 11.4746L3.19336 6.52344C3.19336 5.51758 3.83789 4.94141 4.79492 4.94141L10.166 4.94141C11.1816 4.94141 11.7188 5.51758 11.7188 6.52344L11.7188 11.4746C11.7188 12.4707 11.123 13.0566 10.1172 13.0566ZM12.2852 10.3711L12.2852 7.62695L14.248 5.9375C14.4043 5.80078 14.6289 5.71289 14.8047 5.71289C15.1855 5.71289 15.4492 5.98633 15.4492 6.39648L15.4492 11.5918C15.4492 12.0117 15.1855 12.2949 14.8047 12.2949C14.6289 12.2949 14.4238 12.207 14.248 12.0508Z" fill="var(--color-primary)"/>
 </g>
</svg>
