<svg version="1.1" xmlns="http://www.w3.org/2000/svg" xmlns:xlink="http://www.w3.org/1999/xlink" viewBox="0 0 20.2832 19.9316">
 <g>
  <rect height="19.9316" opacity="0" width="20.2832" x="0" y="0"/>
  <path d="M9.96094 19.9219C15.459 19.9219 19.9219 15.459 19.9219 9.96094C19.9219 4.46289 15.459 0 9.96094 0C4.46289 0 0 4.46289 0 9.96094C0 15.459 4.46289 19.9219 9.96094 19.9219ZM9.96094 18.2617C5.37109 18.2617 1.66016 14.5508 1.66016 9.96094C1.66016 5.37109 5.37109 1.66016 9.96094 1.66016C14.5508 1.66016 18.2617 5.37109 18.2617 9.96094C18.2617 14.5508 14.5508 18.2617 9.96094 18.2617Z" fill="var(--color-primary)"/>
  <path d="M5.85938 13.9062L11.0254 13.9062C12.002 13.9062 12.5781 13.3398 12.5781 12.373L12.5781 7.56836C12.5781 6.60156 12.0508 6.04492 11.0742 6.04492L5.85938 6.04492C4.93164 6.04492 4.30664 6.60156 4.30664 7.56836L4.30664 12.373C4.30664 13.3398 4.89258 13.9062 5.85938 13.9062ZM13.125 11.3086L15.0293 12.9199C15.2051 13.0664 15.3906 13.1641 15.5664 13.1641C15.9473 13.1641 16.1914 12.8906 16.1914 12.4805L16.1914 7.45117C16.1914 7.05078 15.9473 6.77734 15.5664 6.77734C15.3906 6.77734 15.1953 6.875 15.0293 7.01172L13.125 8.63281Z" fill="var(--color-primary)"/>
 </g>
</svg>
