<svg version="1.1" xmlns="http://www.w3.org/2000/svg" xmlns:xlink="http://www.w3.org/1999/xlink" viewBox="0 0 28.0469 23.3741">
 <g>
  <rect height="23.3741" opacity="0" width="28.0469" x="0" y="0"/>
  <path d="M17.3901 17.9345C15.9807 17.0614 14.9017 16.0572 13.8477 16.0572C11.9727 16.0572 10.0293 19.2017 6.31836 19.2017C2.71484 19.2017 0 15.9302 0 11.6333C0 7.95541 1.69673 5.98491 4.41959 4.95109ZM27.6855 11.6333C27.6855 14.994 26.0248 17.7275 23.5733 18.7509L8.84006 4.01026C10.3887 3.85335 12.0795 3.81106 13.8477 3.81106C21.4844 3.81106 27.6855 4.59231 27.6855 11.6333Z" fill="var(--color-primary)"/>
  <path d="M23.0762 22.0044C23.3691 22.3072 23.8574 22.3072 24.1406 22.0044C24.4336 21.7114 24.4434 21.2427 24.1504 20.94L4.59961 1.37942C4.30664 1.08645 3.82812 1.08645 3.52539 1.37942C3.24219 1.67239 3.24219 2.16067 3.52539 2.44387Z" fill="var(--color-primary)"/>
 </g>
</svg>
