<svg version="1.1" xmlns="http://www.w3.org/2000/svg" xmlns:xlink="http://www.w3.org/1999/xlink" viewBox="0 0 20.2832 19.9316">
 <g>
  <rect height="19.9316" opacity="0" width="20.2832" x="0" y="0"/>
  <path d="M19.9219 9.96094C19.9219 15.459 15.459 19.9219 9.96094 19.9219C4.46289 19.9219 0 15.459 0 9.96094C0 4.46289 4.46289 0 9.96094 0C15.459 0 19.9219 4.46289 19.9219 9.96094ZM1.66016 9.96094C1.66016 14.5508 5.37109 18.2617 9.96094 18.2617C14.5508 18.2617 18.2617 14.5508 18.2617 9.96094C18.2617 5.37109 14.5508 1.66016 9.96094 1.66016C5.37109 1.66016 1.66016 5.37109 1.66016 9.96094Z" fill="var(--color-primary)"/>
  <path d="M5.99298 7.58478C4.96348 7.94503 4.4043 8.63276 4.4043 9.92188C4.4043 11.6016 5.17578 12.5488 6.44531 12.5488C7.74991 12.5488 8.37154 11.3635 9.52962 11.1214L11.1913 12.7831C10.7048 12.4477 10.3177 12.1387 9.95117 12.1387C9.16016 12.1387 8.25195 13.6133 6.44531 13.6133C4.66797 13.6133 3.34961 11.9922 3.34961 9.92188C3.34961 8.2638 4.05743 7.32044 5.20055 6.79234ZM16.5527 9.92188C16.5527 11.3992 15.8814 12.6478 14.8491 13.2382L14.0721 12.4621C14.9717 12.1969 15.498 11.3092 15.498 9.92188C15.498 7.44141 13.4277 7.1875 9.95117 7.1875C9.54949 7.1875 9.16658 7.19089 8.80569 7.20139L7.80266 6.19946C8.4767 6.13963 9.20117 6.12305 9.95117 6.12305C13.5449 6.12305 16.5527 6.50391 16.5527 9.92188Z" fill="var(--color-primary)"/>
  <path d="M14.1406 14.7461C14.3066 14.9121 14.5996 14.9219 14.7656 14.7461C14.9414 14.5703 14.9414 14.2969 14.7656 14.1211L5.82031 5.16602C5.63477 4.99023 5.36133 4.99023 5.18555 5.16602C5.00977 5.3418 5.00977 5.625 5.18555 5.79102Z" fill="var(--color-primary)"/>
 </g>
</svg>
