<svg version="1.1" xmlns="http://www.w3.org/2000/svg" xmlns:xlink="http://www.w3.org/1999/xlink" width="20.2832" height="19.9316" viewBox="0 0 20.2832 19.9316">
 <g>
  <rect height="19.9316" opacity="0" width="20.2832" x="0" y="0"/>
  <path d="M9.96094 19.9219C15.4102 19.9219 19.9219 15.4004 19.9219 9.96094C19.9219 4.51172 15.4004 0 9.95117 0C4.51172 0 0 4.51172 0 9.96094C0 15.4004 4.52148 19.9219 9.96094 19.9219Z" fill="var(--color-tertiary)"/>
  <path d="M5.41992 4.76562L15.166 14.5117C15.3418 14.6875 15.3418 14.9609 15.166 15.1562C14.9902 15.3223 14.6875 15.3223 14.5215 15.1562L4.77539 5.41016C4.59961 5.24414 4.59961 4.94141 4.77539 4.76562C4.96094 4.58984 5.24414 4.58984 5.41992 4.76562ZM5.87334 7.52212C4.81963 7.89402 4.24805 8.60118 4.24805 9.92188C4.24805 11.6504 5.03906 12.627 6.34766 12.627C7.69029 12.627 8.32463 11.4127 9.51009 11.1552L11.2149 12.8583C10.7234 12.5175 10.3312 12.207 9.96094 12.207C9.15039 12.207 8.21289 13.7305 6.34766 13.7305C4.51172 13.7305 3.1543 12.0605 3.1543 9.92188C3.1543 8.21909 3.88106 7.24763 5.05293 6.70253ZM16.7676 9.92188C16.7676 11.4474 16.0769 12.7344 15.0125 13.3432L14.2064 12.5379C15.1336 12.2652 15.6738 11.3503 15.6738 9.92188C15.6738 7.37305 13.5449 7.10938 9.96094 7.10938C9.54915 7.10938 9.15657 7.11286 8.78665 7.12363L7.74679 6.08481C8.44217 6.02294 9.18896 6.00586 9.96094 6.00586C13.6621 6.00586 16.7676 6.39648 16.7676 9.92188Z" fill="var(--color-primary)"/>
 </g>
</svg>
