<svg version="1.1" xmlns="http://www.w3.org/2000/svg" xmlns:xlink="http://www.w3.org/1999/xlink" viewBox="0 0 20.2832 19.9316">
 <g>
  <rect height="19.9316" opacity="0" width="20.2832" x="0" y="0"/>
  <path d="M19.9219 9.9707C19.9219 15.4688 15.459 19.9316 9.96094 19.9316C4.47266 19.9316 0 15.4688 0 9.9707C0 4.48242 4.47266 0.00976562 9.96094 0.00976562C15.459 0.00976562 19.9219 4.48242 19.9219 9.9707ZM3.75 9.9707C3.75 13.4082 6.5332 16.1914 9.9707 16.1914C13.4082 16.1914 16.1914 13.4082 16.1914 9.9707C16.1914 6.5332 13.4082 3.75 9.9707 3.75C6.5332 3.75 3.75 6.5332 3.75 9.9707ZM14.7461 9.9707C14.7461 12.6074 12.6172 14.7363 9.98047 14.7363C7.34375 14.7363 5.21484 12.6074 5.21484 9.9707C5.21484 9.4043 5.3125 8.86719 5.48828 8.35938L14.4727 8.35938C14.6484 8.86719 14.7461 9.4043 14.7461 9.9707ZM13.7207 7.02148L6.25 7.02148C7.10938 5.91797 8.4668 5.20508 9.98047 5.20508C11.4941 5.20508 12.8516 5.91797 13.7207 7.02148Z" fill="var(--color-primary)"/>
 </g>
</svg>
