<svg version="1.1" xmlns="http://www.w3.org/2000/svg" xmlns:xlink="http://www.w3.org/1999/xlink" viewBox="0 0 23.2463 22.5684">
 <g>
  <rect height="22.5684" opacity="0" width="23.2463" x="0" y="0"/>
  <path d="M19.9142 13.5808C19.6242 13.5089 19.328 13.4668 19.0646 13.4668C18.3712 13.4668 17.7169 13.6816 16.8282 14.1992C16.7886 14.1764 16.7494 14.1541 16.7113 14.1332C16.7197 14.0719 16.7208 14.0087 16.7208 13.9453C16.7208 11.0352 14.3575 8.66211 11.4474 8.66211C8.52745 8.66211 6.16417 11.0352 6.16417 13.9453C6.16417 16.8555 8.52745 19.2188 11.4474 19.2188C11.5771 19.2188 11.7058 19.2141 11.8318 19.1993L12.5118 21.0352C12.5638 21.1742 12.6262 21.3049 12.699 21.4258L5.23644 21.4258C3.87902 21.4258 2.97081 20.498 2.97081 19.1016L2.97081 7.17773L19.9142 7.17773ZM15.6116 13.6338C15.2553 13.5189 14.9235 13.4668 14.5821 13.4668C14.2013 13.4668 13.7618 13.5547 13.3614 13.6914C12.8634 13.252 12.1798 13.125 11.5548 13.3496C10.6564 13.6816 10.1583 14.6875 10.5294 15.6836L11.4335 18.1243C9.10597 18.1176 7.25792 16.2649 7.25792 13.9453C7.25792 11.6113 9.11339 9.75586 11.4474 9.75586C13.6668 9.75586 15.4587 11.4477 15.6116 13.6338ZM19.9142 3.25195L19.9142 5.84961L2.97081 5.84961L2.97081 3.25195C2.97081 1.85547 3.87902 0.917969 5.23644 0.917969L17.6583 0.917969C19.006 0.917969 19.9142 1.85547 19.9142 3.25195ZM5.6173 3.84766C5.6173 4.32617 6.01769 4.73633 6.50597 4.73633C6.99425 4.73633 7.38488 4.32617 7.38488 3.84766C7.38488 3.34961 6.99425 2.94922 6.50597 2.94922C6.01769 2.94922 5.6173 3.34961 5.6173 3.84766ZM8.19542 3.84766C8.19542 4.32617 8.58605 4.73633 9.07433 4.73633C9.56261 4.73633 9.95323 4.32617 9.95323 3.84766C9.95323 3.34961 9.56261 2.94922 9.07433 2.94922C8.58605 2.94922 8.19542 3.34961 8.19542 3.84766ZM14.5333 3.33008C14.2306 3.33008 14.0353 3.53516 14.0353 3.84766C14.0353 4.15039 14.2306 4.35547 14.5333 4.35547L16.9357 4.35547C17.2482 4.35547 17.4435 4.15039 17.4435 3.84766C17.4435 3.53516 17.2482 3.33008 16.9357 3.33008Z" fill="var(--color-primary)"/>
  <path d="M14.6993 21.4258L18.9474 21.4258C19.4454 21.4258 19.8751 21.1523 20.0704 20.6348L22.0528 15.293C22.2091 14.8535 21.9943 14.5312 21.7013 14.4238C21.3985 14.3066 21.0177 14.4141 20.8517 14.8438L20.715 15.2051C20.2267 14.9512 19.7872 14.6094 19.0646 14.6094C17.961 14.6094 17.5997 15.3418 16.8282 15.3418C16.0568 15.3418 15.6857 14.6094 14.5821 14.6094C13.8595 14.6094 13.4298 14.9512 12.9415 15.2051L12.795 14.8438C12.6388 14.4141 12.2482 14.3066 11.9552 14.4238C11.6525 14.5312 11.4474 14.8535 11.6036 15.293L13.586 20.6348C13.7716 21.1523 14.211 21.4258 14.6993 21.4258ZM15.0216 20.1465C14.8653 20.1465 14.7482 20.0781 14.6798 19.8926L13.2443 16.0547C13.7228 15.8008 14.0548 15.5273 14.5821 15.5273C15.4513 15.5273 15.7052 16.2598 16.8282 16.2598C17.9415 16.2598 18.1954 15.5273 19.0646 15.5273C19.6017 15.5273 19.9239 15.8008 20.4025 16.0547L18.9669 19.8926C18.8985 20.0781 18.7814 20.1465 18.6251 20.1465Z" fill="var(--color-primary)"/>
 </g>
</svg>
