<svg version="1.1" xmlns="http://www.w3.org/2000/svg" xmlns:xlink="http://www.w3.org/1999/xlink" viewBox="0 0 22.6822 19.3457">
 <g>
  <rect height="19.3457" opacity="0" width="22.6822" x="0" y="0"/>
  <path d="M0.340118 10.5273C-0.460663 11.9141 0.213165 13.3203 1.72684 13.5352L2.01981 13.5449L1.05301 17.0312C0.662383 18.418 1.36551 19.3457 2.79129 19.3457L16.0237 19.3457C16.9221 19.3457 17.5764 18.8184 17.8206 17.9492L22.1858 2.77344C22.635 1.21094 21.9026 0.0195312 20.2718 0.0195312L7.7034 0.0195312C6.41434 0.0195312 6.06277 0.517578 5.47684 1.5332ZM1.85379 10.9473L3.85574 7.4707L9.99832 7.4707L7.4202 11.9922L2.44949 11.9922C1.7366 11.9922 1.50223 11.5723 1.85379 10.9473ZM4.73465 5.94727L6.96121 2.06055C7.16629 1.70898 7.35184 1.5918 7.7327 1.5918L13.3675 1.5918L10.887 5.94727ZM9.20731 11.9922L11.7854 7.4707L17.7425 7.4707L15.4182 11.5332C15.2229 11.8848 15.0276 11.9922 14.637 11.9922ZM12.6643 5.94727L15.135 1.5918L19.93 1.5918C20.6331 1.5918 20.8675 2.03125 20.5159 2.64648L18.6311 5.94727ZM2.61551 17.168L3.62137 13.5645L14.6663 13.5645C15.9749 13.5645 16.3069 13.0664 16.8929 12.0605L18.9827 8.36914L16.4339 17.1484C16.3167 17.5391 16.0432 17.7637 15.6721 17.7637L3.09402 17.7637C2.69363 17.7637 2.50809 17.5586 2.61551 17.168ZM15.5745 18.7891L16.9807 18.0762L14.6761 12.5781L13.2503 13.2422Z" fill="var(--color-primary)"/>
 </g>
</svg>
