<svg version="1.1" xmlns="http://www.w3.org/2000/svg" xmlns:xlink="http://www.w3.org/1999/xlink" viewBox="0 0 18.3691 18.0176">
 <g>
  <rect height="18.0176" opacity="0" width="18.3691" x="0" y="0"/>
  <path d="M16.8652 1.15234C17.8613 2.14844 18.0078 3.53516 18.0078 5.20508L18.0078 12.793C18.0078 14.4629 17.8613 15.8594 16.8652 16.8555C15.8691 17.8516 14.4629 18.0078 12.793 18.0078L5.20508 18.0078C3.54492 18.0078 2.13867 17.8516 1.14258 16.8555C0.146484 15.8594 0 14.4629 0 12.793L0 5.18555C0 3.54492 0.146484 2.14844 1.14258 1.15234C2.13867 0.15625 3.54492 0 5.18555 0L12.793 0C14.4629 0 15.8691 0.15625 16.8652 1.15234ZM11.7285 5.15625L8.98438 7.88086L6.25977 5.16602C6.11328 5.01953 5.92773 4.94141 5.70312 4.94141C5.26367 4.94141 4.90234 5.2832 4.90234 5.74219C4.90234 5.95703 4.98047 6.15234 5.13672 6.30859L7.85156 9.01367L5.13672 11.7285C4.98047 11.875 4.90234 12.0801 4.90234 12.2949C4.90234 12.7441 5.26367 13.1055 5.70312 13.1055C5.92773 13.1055 6.14258 13.0273 6.28906 12.8711L8.98438 10.1562L11.6895 12.8711C11.8359 13.0273 12.0508 13.1055 12.2754 13.1055C12.7246 13.1055 13.0859 12.7441 13.0859 12.2949C13.0859 12.0703 13.0078 11.8652 12.8516 11.7188L10.1367 9.01367L12.8613 6.29883C13.0273 6.12305 13.0957 5.94727 13.0957 5.72266C13.0957 5.27344 12.7344 4.92188 12.2949 4.92188C12.0801 4.92188 11.8945 4.99023 11.7285 5.15625Z" fill="var(--color-primary)"/>
 </g>
</svg>
