<svg version="1.1" xmlns="http://www.w3.org/2000/svg" xmlns:xlink="http://www.w3.org/1999/xlink" viewBox="0 0 20.2832 19.9902">
 <g>
  <rect height="19.9902" opacity="0" width="20.2832" x="0" y="0"/>
  <path d="M9.96094 19.9902C15.459 19.9902 19.9219 15.5273 19.9219 10.0293C19.9219 4.53125 15.459 0.0683594 9.96094 0.0683594C4.46289 0.0683594 0 4.53125 0 10.0293C0 15.5273 4.46289 19.9902 9.96094 19.9902ZM9.96094 18.3301C5.37109 18.3301 1.66016 14.6191 1.66016 10.0293C1.66016 5.43945 5.37109 1.72852 9.96094 1.72852C14.5508 1.72852 18.2617 5.43945 18.2617 10.0293C18.2617 14.6191 14.5508 18.3301 9.96094 18.3301Z" fill="var(--color-primary)"/>
  <path d="M7.23633 15.4785L12.666 15.4785C13.6816 15.4785 14.0918 14.9414 14.2383 13.9355L14.9414 9.10156L4.9707 9.10156L5.66406 13.9355C5.81055 14.9414 6.23047 15.4785 7.23633 15.4785ZM8.4668 14.0723C8.22266 14.0723 8.03711 13.877 8.03711 13.6523C8.03711 13.5352 8.08594 13.4375 8.17383 13.3594L9.35547 12.168L8.17383 10.9668C8.08594 10.8887 8.03711 10.791 8.03711 10.6738C8.03711 10.4492 8.22266 10.2539 8.4668 10.2539C8.57422 10.2539 8.67188 10.3027 8.75 10.3809L9.94141 11.5723L11.1523 10.3809C11.2305 10.3027 11.3281 10.2441 11.4355 10.2441C11.6797 10.2441 11.8652 10.4395 11.8652 10.6738C11.8652 10.7812 11.8262 10.8789 11.7383 10.9668L10.5469 12.168L11.7383 13.3594C11.8066 13.4375 11.8555 13.5352 11.8555 13.6523C11.8555 13.877 11.6699 14.0723 11.4355 14.0723C11.3184 14.0723 11.2207 14.0137 11.1426 13.9453L9.94141 12.7637L8.75977 13.9453C8.68164 14.0234 8.57422 14.0723 8.4668 14.0723ZM4.6875 8.31055L15.2148 8.31055C15.8008 8.31055 16.1035 7.95898 16.1035 7.38281L16.1035 6.88477C16.1035 6.29883 15.8008 5.95703 15.2148 5.95703L4.6875 5.95703C4.13086 5.95703 3.79883 6.29883 3.79883 6.88477L3.79883 7.38281C3.79883 7.95898 4.10156 8.31055 4.6875 8.31055Z" fill="var(--color-primary)"/>
 </g>
</svg>
