<svg version="1.1" xmlns="http://www.w3.org/2000/svg" xmlns:xlink="http://www.w3.org/1999/xlink" viewBox="0 0 18.3398 17.9785">
 <g>
  <rect height="17.9785" opacity="0" width="18.3398" x="0" y="0"/>
  <path d="M17.9785 3.02734L17.9785 14.9609C17.9785 16.9727 16.9629 17.9785 14.9121 17.9785L3.06641 17.9785C1.02539 17.9785 0 16.9727 0 14.9609L0 3.02734C0 1.01562 1.02539 0 3.06641 0L14.9121 0C16.9629 0 17.9785 1.01562 17.9785 3.02734ZM5.41992 4.79492C5.41992 4.91211 5.45898 5.04883 5.54688 5.18555L8.05664 9.23828L6.44531 9.23828C6.25 9.23828 6.10352 9.375 6.10352 9.58008C6.10352 9.77539 6.25 9.92188 6.44531 9.92188L8.4082 9.92188L8.4082 10.9766L6.44531 10.9766C6.25 10.9766 6.10352 11.1328 6.10352 11.3281C6.10352 11.5137 6.25 11.6699 6.44531 11.6699L8.4082 11.6699L8.4082 13.1055C8.4082 13.457 8.65234 13.7109 8.99414 13.7109C9.3457 13.7109 9.58008 13.457 9.58008 13.1055L9.58008 11.6699L11.5723 11.6699C11.7676 11.6699 11.9141 11.5137 11.9141 11.3281C11.9141 11.1328 11.7676 10.9766 11.5723 10.9766L9.58008 10.9766L9.58008 9.92188L11.5723 9.92188C11.7676 9.92188 11.9141 9.77539 11.9141 9.58008C11.9141 9.375 11.7676 9.23828 11.5723 9.23828L9.94141 9.23828L12.4512 5.18555C12.5391 5.03906 12.5684 4.96094 12.5684 4.79492C12.5684 4.48242 12.3242 4.26758 11.9922 4.26758C11.7773 4.26758 11.5918 4.375 11.4551 4.58984L9.02344 8.74023L8.98438 8.74023L6.54297 4.58984C6.41602 4.375 6.26953 4.25781 6.00586 4.25781C5.67383 4.25781 5.41992 4.47266 5.41992 4.79492Z" fill="var(--color-primary)"/>
 </g>
</svg>
