<svg version="1.1" xmlns="http://www.w3.org/2000/svg" xmlns:xlink="http://www.w3.org/1999/xlink" viewBox="0 0 18.3398 17.9785">
 <g>
  <rect height="17.9785" opacity="0" width="18.3398" x="0" y="0"/>
  <path d="M3.06641 17.9785L14.9121 17.9785C16.9629 17.9785 17.9785 16.9727 17.9785 14.9609L17.9785 3.02734C17.9785 1.01562 16.9629 0 14.9121 0L3.06641 0C1.02539 0 0 1.01562 0 3.02734L0 14.9609C0 16.9727 1.02539 17.9785 3.06641 17.9785ZM3.08594 16.4062C2.10938 16.4062 1.57227 15.8887 1.57227 14.873L1.57227 3.11523C1.57227 2.09961 2.10938 1.57227 3.08594 1.57227L14.8926 1.57227C15.8594 1.57227 16.4062 2.09961 16.4062 3.11523L16.4062 14.873C16.4062 15.8887 15.8594 16.4062 14.8926 16.4062Z" fill="var(--color-primary)"/>
  <path d="M6.18164 13.3398L11.9043 13.3398C12.2852 13.3398 12.5586 13.0957 12.5586 12.7051C12.5586 12.3047 12.2852 12.0605 11.9043 12.0605L7.51953 12.0605L7.51953 11.9824L12.002 5.76172C12.1973 5.49805 12.2363 5.36133 12.2363 5.13672C12.2363 4.72656 11.9434 4.44336 11.5234 4.44336L6.10352 4.44336C5.72266 4.44336 5.44922 4.6875 5.44922 5.07812C5.44922 5.47852 5.72266 5.72266 6.10352 5.72266L10.2344 5.72266L10.2344 5.80078L5.74219 12.0215C5.53711 12.3242 5.47852 12.4609 5.47852 12.6758C5.47852 13.0664 5.77148 13.3398 6.18164 13.3398Z" fill="var(--color-primary)"/>
 </g>
</svg>
