<svg version="1.1" xmlns="http://www.w3.org/2000/svg" xmlns:xlink="http://www.w3.org/1999/xlink" viewBox="0 0 25.3809 22.9785">
 <g>
  <rect height="22.9785" opacity="0" width="25.3809" x="0" y="0"/>
  <path d="M3.79883 22.9785L21.2109 22.9785C23.7402 22.9785 25.0195 21.709 25.0195 19.2188L25.0195 3.78906C25.0195 1.29883 23.7402 0.0292969 21.2109 0.0292969L3.79883 0.0292969C1.2793 0.0292969 0 1.28906 0 3.78906L0 19.2188C0 21.7188 1.2793 22.9785 3.79883 22.9785ZM3.66211 21.25C2.41211 21.25 1.72852 20.5859 1.72852 19.2969L1.72852 7.64648C1.72852 6.34766 2.41211 5.69336 3.66211 5.69336L21.3379 5.69336C22.5781 5.69336 23.2812 6.34766 23.2812 7.64648L23.2812 19.2969C23.2812 20.5859 22.5781 21.25 21.3379 21.25Z" fill="var(--color-secondary)"/>
  <path d="M8.99414 18.7012C9.42383 18.7012 9.78516 18.3398 9.78516 17.8906L9.78516 9.12109C9.78516 8.56445 9.43359 8.22266 8.86719 8.22266C8.4082 8.22266 8.03711 8.47656 7.77344 8.68164L6.28906 9.85352C6.09375 10 5.94727 10.2148 5.94727 10.498C5.94727 10.8398 6.18164 11.084 6.52344 11.084C6.69922 11.084 6.80664 11.0352 6.92383 10.9473L8.18359 9.93164L8.18359 17.8906C8.18359 18.3398 8.54492 18.7012 8.99414 18.7012ZM15.0293 18.8086C16.9141 18.8086 17.9688 17.1875 17.9688 15.2441C17.9688 13.5449 17.1484 11.9141 15.4785 11.9141C14.4141 11.9141 13.6426 12.6562 13.3691 13.7598L13.3203 13.7598C13.3203 13.7012 13.3203 13.6523 13.3203 13.6035C13.3203 12.1191 13.5059 9.45312 15.0195 9.45312C15.6641 9.45312 16.0742 9.92188 16.2988 10.5273C16.4551 10.8691 16.6602 11.0449 17.0215 11.0449C17.4707 11.0449 17.666 10.752 17.666 10.3906C17.666 10.2539 17.6465 10.0977 17.5977 9.93164C17.3242 8.83789 16.2793 8.1543 15.0488 8.1543C12.5195 8.1543 11.8164 11.1328 11.8164 13.623C11.8164 15.9961 12.5488 18.8086 15.0293 18.8086ZM15.0098 17.5098C13.9844 17.5098 13.5449 16.25 13.5449 15.2539C13.5449 14.248 14.0332 13.1348 15 13.1348C16.0156 13.1348 16.4551 14.2969 16.4355 15.3027C16.4355 16.3184 15.9766 17.5098 15.0098 17.5098Z" fill="var(--color-primary)"/>
 </g>
</svg>
