<svg version="1.1" xmlns="http://www.w3.org/2000/svg" xmlns:xlink="http://www.w3.org/1999/xlink" viewBox="0 0 23.3203 22.959">
 <g>
  <rect height="22.959" opacity="0" width="23.3203" x="0" y="0"/>
  <path d="M3.79883 22.959L19.1504 22.959C21.6797 22.959 22.959 21.6797 22.959 19.1992L22.959 3.76953C22.959 1.2793 21.6797 0 19.1504 0L3.79883 0C1.2793 0 0 1.26953 0 3.76953L0 19.1992C0 21.6992 1.2793 22.959 3.79883 22.959Z" fill="var(--color-tertiary)"/>
  <path d="M7.56836 16.8945C6.18164 16.8945 4.95117 16.2012 4.58008 15.0195C4.52148 14.8047 4.48242 14.5605 4.48242 14.3457C4.48242 13.8965 4.77539 13.623 5.21484 13.623C5.5957 13.623 5.83008 13.8184 5.94727 14.209C6.09375 14.8633 6.57227 15.5566 7.56836 15.5566C8.60352 15.5566 9.11133 14.7266 9.11133 13.7793C9.11133 12.5684 8.4668 11.9434 7.30469 11.9434L6.92383 11.9434C6.54297 11.9434 6.29883 11.709 6.29883 11.3281C6.29883 10.9668 6.52344 10.7129 6.92383 10.7129L7.28516 10.7129C8.30078 10.7129 8.86719 9.9707 8.86719 8.98438C8.86719 8.07617 8.42773 7.36328 7.51953 7.36328C6.70898 7.36328 6.26953 7.91992 6.07422 8.73047C5.95703 9.13086 5.75195 9.29688 5.3418 9.29688C4.89258 9.29688 4.64844 8.99414 4.64844 8.61328C4.64844 8.41797 4.66797 8.18359 4.74609 7.92969C5.10742 6.78711 6.19141 6.03516 7.51953 6.03516C9.16016 6.03516 10.4199 7.07031 10.4199 8.80859C10.4199 9.89258 9.85352 10.9473 8.68164 11.25L8.68164 11.2988C9.83398 11.4062 10.7324 12.2656 10.7324 13.8184C10.7324 15.7227 9.36523 16.8945 7.56836 16.8945ZM15.3711 16.9238C12.8418 16.9238 12.1191 13.9746 12.1191 11.4551C12.1191 8.93555 12.8418 5.98633 15.3711 5.98633C17.8906 5.98633 18.6035 8.93555 18.6035 11.4551C18.6035 13.9746 17.8906 16.9238 15.3711 16.9238ZM15.3711 15.5664C16.5723 15.5664 16.9531 13.6133 16.9531 11.4551C16.9531 9.29688 16.5723 7.34375 15.3711 7.34375C14.1602 7.34375 13.7891 9.29688 13.7891 11.4551C13.7891 13.6133 14.1602 15.5664 15.3711 15.5664Z" fill="var(--color-primary)"/>
 </g>
</svg>
