<svg version="1.1" xmlns="http://www.w3.org/2000/svg" xmlns:xlink="http://www.w3.org/1999/xlink" viewBox="0 0 25.3809 22.9785">
 <g>
  <rect height="22.9785" opacity="0" width="25.3809" x="0" y="0"/>
  <path d="M3.79883 22.9785L21.2109 22.9785C23.7402 22.9785 25.0195 21.709 25.0195 19.2188L25.0195 3.78906C25.0195 1.29883 23.7402 0.0292969 21.2109 0.0292969L3.79883 0.0292969C1.2793 0.0292969 0 1.28906 0 3.78906L0 19.2188C0 21.7188 1.2793 22.9785 3.79883 22.9785ZM3.66211 21.25C2.41211 21.25 1.72852 20.5859 1.72852 19.2969L1.72852 7.64648C1.72852 6.34766 2.41211 5.69336 3.66211 5.69336L21.3379 5.69336C22.5781 5.69336 23.2812 6.34766 23.2812 7.64648L23.2812 19.2969C23.2812 20.5859 22.5781 21.25 21.3379 21.25Z" fill="var(--color-secondary)"/>
  <path d="M12.4707 19.043C14.8145 19.043 16.416 17.5684 16.416 15.332C16.416 13.2617 14.9316 11.8262 12.8125 11.8262C11.8457 11.8262 10.8496 12.2559 10.3906 12.9004L10.3125 12.9004L10.6152 9.41406L15.3809 9.41406C15.7422 9.41406 15.9961 9.15039 15.9961 8.7793C15.9961 8.4082 15.752 8.14453 15.3809 8.14453L10.4395 8.14453C9.78516 8.14453 9.35547 8.51562 9.30664 9.11133L8.96484 13.2715C8.92578 13.8477 9.25781 14.2383 9.82422 14.2383C10.2051 14.2383 10.4297 14.1504 10.8203 13.8477C11.4453 13.2715 11.9434 13.0566 12.6367 13.0566C13.9648 13.0566 14.873 13.9844 14.873 15.3516C14.873 16.7285 13.8379 17.7539 12.4609 17.7539C11.416 17.7539 10.5176 17.2168 10.1562 16.377C9.98047 16.0449 9.73633 15.8789 9.42383 15.8789C9.02344 15.8789 8.74023 16.1523 8.74023 16.543C8.74023 16.7188 8.78906 16.8848 8.84766 17.041C9.28711 18.252 10.625 19.043 12.4707 19.043Z" fill="var(--color-primary)"/>
 </g>
</svg>
