<svg version="1.1" xmlns="http://www.w3.org/2000/svg" xmlns:xlink="http://www.w3.org/1999/xlink" viewBox="0 0 13.3496 21.8262">
 <g>
  <rect height="21.8262" opacity="0" width="13.3496" x="0" y="0"/>
  <path d="M5.00977 12.4414C8.69141 12.4414 12.9883 9.0332 12.9883 5.71289C12.9883 2.46094 10.3223 0.117188 7.79297 0.117188C4.52148 0.117188 0 3.55469 0 6.61133C0 9.48242 1.70898 12.4414 5.00977 12.4414ZM2.92969 10.3027C2.10938 9.87305 1.38672 7.91992 1.40625 6.63086C1.40625 6.17188 1.57227 5.87891 1.8457 5.87891C2.75391 5.87891 3.64258 8.44727 3.64258 9.67773C3.64258 10.1465 3.4668 10.5762 2.92969 10.3027ZM5.85938 6.875C5.49805 6.37695 5.55664 5.67383 6.12305 5.27344L6.8457 4.75586C7.40234 4.36523 8.08594 4.52148 8.4375 5.0293C8.80859 5.53711 8.75977 6.24023 8.19336 6.63086L7.4707 7.13867C6.9043 7.53906 6.21094 7.39258 5.85938 6.875ZM6.12305 13.5059L6.12305 20.0293C6.12305 21.4844 6.78711 21.8262 8.35938 21.8262C9.88281 21.8262 10.5273 21.4844 10.5273 20.0293L10.5273 11.6699C9.19922 12.6172 7.64648 13.291 6.12305 13.5059Z" fill="var(--color-primary)"/>
 </g>
</svg>
