<svg version="1.1" xmlns="http://www.w3.org/2000/svg" xmlns:xlink="http://www.w3.org/1999/xlink" viewBox="0 0 24.0234 21.8066">
 <g>
  <rect height="21.8066" opacity="0" width="24.0234" x="0" y="0"/>
  <path d="M7.59766 21.7969L16.0645 21.7969C21.084 21.7969 23.6621 19.2285 23.6621 14.2578L23.6621 7.53906C23.6621 2.55859 21.084 0 16.0645 0L7.59766 0C2.58789 0 0 2.55859 0 7.53906L0 14.2578C0 19.2285 2.58789 21.7969 7.59766 21.7969ZM7.59766 20.0586C3.68164 20.0586 1.72852 18.1348 1.72852 14.2578L1.72852 7.53906C1.72852 3.65234 3.68164 1.72852 7.59766 1.72852L16.0645 1.72852C19.9902 1.72852 21.9336 3.65234 21.9336 7.53906L21.9336 14.2578C21.9336 18.1348 19.9902 20.0586 16.0645 20.0586ZM0.673828 7.23633L22.6953 7.23633L22.6953 6.09375L0.673828 6.09375ZM7.91992 8.08594L15.6934 8.08594C16.5234 8.08594 17.1289 7.5 17.1289 6.66016C17.1289 5.83008 16.5234 5.24414 15.6934 5.24414L7.91992 5.24414C7.11914 5.24414 6.48438 5.83008 6.48438 6.66016C6.48438 7.5 7.11914 8.08594 7.91992 8.08594Z" fill="var(--color-primary)"/>
 </g>
</svg>
