<svg version="1.1" xmlns="http://www.w3.org/2000/svg" xmlns:xlink="http://www.w3.org/1999/xlink" viewBox="0 0 34.9414 21.2793">
 <g>
  <rect height="21.2793" opacity="0" width="34.9414" x="0" y="0"/>
  <path d="M0 17.793C0 20.0684 1.20117 21.2598 3.50586 21.2598L31.0742 21.2598C33.3789 21.2598 34.5801 20.0684 34.5801 17.793L34.5801 13.6035C32.9492 13.6035 31.6113 12.2754 31.6113 10.625C31.6113 8.98438 32.9492 7.64648 34.5801 7.65625L34.5801 3.4668C34.5801 1.20117 33.3789 0 31.0742 0L3.50586 0C1.20117 0 0 1.20117 0 3.4668L0 7.65625C1.64062 7.65625 2.96875 8.99414 2.96875 10.625C2.96875 12.2754 1.64062 13.6035 0 13.6035ZM25.7715 6.35742L25.7715 1.85547L27.1582 1.85547L27.1582 6.35742ZM25.7715 13.1348L25.7715 8.1543L27.1582 8.1543L27.1582 13.1348ZM25.7715 19.4043L25.7715 14.9316L27.1582 14.9316L27.1582 19.4043Z" fill="var(--color-tertiary)"/>
  <path d="M22.7344 10.6445C22.7344 11.4648 21.6504 12.0801 20.3027 12.0801L17.5977 12.0801C17.2656 12.0801 17.1582 12.1289 16.9434 12.3535L12.5098 17.1875C12.3535 17.3633 12.1582 17.4609 11.9434 17.4609L11.1719 17.4609C10.9277 17.4609 10.7812 17.2363 10.8984 16.9824L13.125 12.0605L9.89258 11.6992L8.73047 13.8379C8.62305 14.0234 8.45703 14.1211 8.19336 14.1211L7.90039 14.1211C7.68555 14.1211 7.5293 13.9648 7.5293 13.7402L7.5293 7.53906C7.5293 7.31445 7.68555 7.16797 7.90039 7.16797L8.19336 7.16797C8.45703 7.16797 8.62305 7.25586 8.73047 7.45117L9.89258 9.58008L13.125 9.22852L10.8984 4.29688C10.7812 4.05273 10.9277 3.82812 11.1719 3.82812L11.9434 3.82812C12.1582 3.82812 12.3535 3.91602 12.5098 4.0918L16.9434 8.92578C17.1582 9.16016 17.2656 9.20898 17.5977 9.20898L20.3027 9.20898C21.6504 9.20898 22.7344 9.82422 22.7344 10.6445Z" fill="var(--color-primary)"/>
 </g>
</svg>
