<svg version="1.1" xmlns="http://www.w3.org/2000/svg" xmlns:xlink="http://www.w3.org/1999/xlink" viewBox="0 0 23.3203 22.959">
 <g>
  <rect height="22.959" opacity="0" width="23.3203" x="0" y="0"/>
  <path d="M3.79883 22.959L19.1504 22.959C21.6797 22.959 22.959 21.6797 22.959 19.1992L22.959 3.76953C22.959 1.2793 21.6797 0 19.1504 0L3.79883 0C1.2793 0 0 1.26953 0 3.76953L0 19.1992C0 21.6992 1.2793 22.959 3.79883 22.959ZM3.83789 21.2305C2.4707 21.2305 1.72852 20.5078 1.72852 19.1016L1.72852 3.85742C1.72852 2.46094 2.4707 1.72852 3.83789 1.72852L19.1211 1.72852C20.459 1.72852 21.2305 2.46094 21.2305 3.85742L21.2305 19.1016C21.2305 20.5078 20.459 21.2305 19.1211 21.2305Z" fill="var(--color-secondary)"/>
  <path d="M11.4844 17.6465C14.5703 17.6465 17.0312 15.166 17.0312 12.0801C17.0312 11.6797 16.6797 11.3379 16.2793 11.3379C15.8691 11.3379 15.5176 11.6797 15.5176 12.0801C15.5176 14.3359 13.7305 16.1426 11.4844 16.1426C9.22852 16.1426 7.44141 14.3359 7.44141 12.0801C7.44141 9.83398 9.22852 8.04688 11.4844 8.04688C11.9824 8.04688 12.4512 8.07617 12.8027 8.11523C13.252 8.14453 13.584 7.80273 13.584 7.39258C13.584 7.00195 13.2812 6.67969 12.8711 6.66016C12.2852 6.5918 11.7871 6.58203 11.2988 6.58203C8.4375 6.58203 5.9375 8.98438 5.9375 12.0508C5.9375 15.166 8.4082 17.6465 11.4844 17.6465ZM14.4043 7.51953C14.4043 7.32422 14.3359 7.13867 14.1992 7.00195L11.6895 4.47266C11.5918 4.375 11.3867 4.26758 11.2109 4.26758C10.8105 4.26758 10.5078 4.58008 10.5078 4.96094C10.5078 5.16602 10.5762 5.3418 10.7324 5.49805L12.793 7.51953L10.7324 9.54102C10.5762 9.6875 10.5078 9.86328 10.5078 10.0684C10.5078 10.459 10.8105 10.7617 11.2109 10.7617C11.3867 10.7617 11.582 10.6738 11.6895 10.5566L14.1992 8.02734C14.3359 7.90039 14.4043 7.70508 14.4043 7.51953Z" fill="var(--color-primary)"/>
 </g>
</svg>
