<svg version="1.1" xmlns="http://www.w3.org/2000/svg" xmlns:xlink="http://www.w3.org/1999/xlink" viewBox="0 0 25.8008 25.459">
 <g>
  <rect height="25.459" opacity="0" width="25.8008" x="0" y="0"/>
  <path d="M12.7148 25.4395C19.7363 25.4395 25.4395 19.7461 25.4395 12.7246C25.4395 5.70312 19.7363 0 12.7148 0C5.69336 0 0 5.70312 0 12.7246C0 19.7461 5.69336 25.4395 12.7148 25.4395ZM12.7148 23.623C6.68945 23.623 1.81641 18.75 1.81641 12.7246C1.81641 6.69922 6.68945 1.82617 12.7148 1.82617C18.7402 1.82617 23.6133 6.69922 23.6133 12.7246C23.6133 18.75 18.7402 23.623 12.7148 23.623Z" fill="var(--color-secondary)"/>
  <path d="M8.75 18.7305C9.18945 18.7305 9.55078 18.3789 9.55078 17.9297L9.55078 12.6074C9.55078 11.4355 10.2832 10.7031 11.4355 10.7031L16.2402 10.7031C16.6797 10.7031 17.041 10.3516 17.041 9.91211C17.041 9.47266 16.6797 9.11133 16.2402 9.11133L11.416 9.11133C9.29688 9.11133 7.95898 10.4395 7.95898 12.5684L7.95898 17.9297C7.95898 18.3691 8.31055 18.7305 8.75 18.7305ZM15.2051 7.69531L15.2051 12.1484C15.2051 12.7637 15.6445 12.9492 16.1328 12.5977L19.2383 10.4297C19.6484 10.1367 19.6582 9.7168 19.2383 9.41406L16.1426 7.23633C15.6445 6.86523 15.2051 7.06055 15.2051 7.69531Z" fill="var(--color-primary)"/>
 </g>
</svg>
