<svg version="1.1" xmlns="http://www.w3.org/2000/svg" xmlns:xlink="http://www.w3.org/1999/xlink" viewBox="0 0 25.8008 25.459">
 <g>
  <rect height="25.459" opacity="0" width="25.8008" x="0" y="0"/>
  <path d="M12.7148 25.4395C19.7266 25.4395 25.4395 19.7266 25.4395 12.7246C25.4395 5.71289 19.7266 0 12.7148 0C5.71289 0 0 5.71289 0 12.7246C0 19.7266 5.71289 25.4395 12.7148 25.4395Z" fill="var(--color-tertiary)"/>
  <path d="M19.0527 8.86719C19.0527 8.4375 18.75 8.125 18.3301 8.125L9.54102 8.125L8.11523 8.1543C7.72461 8.16406 7.40234 8.4668 7.40234 8.85742C7.40234 9.23828 7.72461 9.54102 8.11523 9.55078L9.53125 9.59961L18.3301 9.59961C18.7402 9.59961 19.0527 9.27734 19.0527 8.86719ZM10.4785 12.9199C10.8984 12.9199 11.2012 12.627 11.2012 12.207C11.2012 12.0117 11.123 11.8262 10.9766 11.6797L9.50195 10.2344L7.96875 8.84766L9.50195 7.50977L10.9766 6.06445C11.123 5.91797 11.2012 5.73242 11.2012 5.52734C11.2012 5.11719 10.8984 4.81445 10.4785 4.81445C10.2832 4.81445 10.0879 4.90234 9.94141 5.04883L6.60156 8.33008C6.29883 8.61328 6.30859 9.12109 6.60156 9.41406L9.94141 12.7148C10.0879 12.8516 10.293 12.9199 10.4785 12.9199ZM6.34766 16.5918C6.34766 17.0117 6.66016 17.334 7.07031 17.334L15.8691 17.334L17.2949 17.2949C17.6758 17.2852 17.9883 16.9727 17.9883 16.582C17.9883 16.2109 17.6758 15.8984 17.2949 15.8887L15.8594 15.8594L7.07031 15.8594C6.65039 15.8594 6.34766 16.1816 6.34766 16.5918ZM14.9219 20.6543C15.1074 20.6543 15.3125 20.5859 15.459 20.4395L18.7988 17.1484C19.0918 16.8652 19.1016 16.3477 18.7988 16.0645L15.459 12.7832C15.3125 12.6367 15.1172 12.5488 14.9219 12.5488C14.502 12.5488 14.1992 12.8516 14.1992 13.2715C14.1992 13.4668 14.2773 13.6621 14.4238 13.7988L15.8984 15.2441L17.4316 16.5723L15.8984 17.959L14.4238 19.4141C14.2773 19.5605 14.1992 19.7461 14.1992 19.9414C14.1992 20.3613 14.502 20.6543 14.9219 20.6543Z" fill="var(--color-primary)"/>
 </g>
</svg>
