<svg version="1.1" xmlns="http://www.w3.org/2000/svg" xmlns:xlink="http://www.w3.org/1999/xlink" viewBox="0 0 28.7305 22.9395">
 <g>
  <rect height="22.9395" opacity="0" width="28.7305" x="0" y="0"/>
  <path d="M3.79883 22.8027L24.8633 22.8027C27.0996 22.8027 28.3691 21.5234 28.3691 19.043L28.3691 6.08398C28.3691 3.59375 27.0898 2.32422 24.5703 2.32422L12.4121 2.32422C11.4941 2.32422 10.9961 2.12891 10.3418 1.5625L9.59961 0.9375C8.76953 0.214844 8.17383 0 6.91406 0L3.33008 0C1.19141 0 0 1.18164 0 3.57422L0 19.043C0 21.5332 1.2793 22.8027 3.79883 22.8027ZM3.83789 21.0742C2.4707 21.0742 1.72852 20.3516 1.72852 18.9453L1.72852 3.68164C1.72852 2.37305 2.40234 1.71875 3.67188 1.71875L6.48438 1.71875C7.38281 1.71875 7.87109 1.91406 8.53516 2.5L9.27734 3.125C10.0781 3.81836 10.7227 4.05273 11.9824 4.05273L24.541 4.05273C25.8789 4.05273 26.6406 4.77539 26.6406 6.17188L26.6406 18.9551C26.6406 20.3516 25.8789 21.0742 24.541 21.0742Z" fill="var(--color-secondary)"/>
  <path d="M8.75977 13.3496L16.6797 13.3398L18.6719 13.2715C19.1016 13.252 19.4531 12.9199 19.4531 12.4902C19.4531 12.0605 19.1016 11.7285 18.6719 11.709L16.6797 11.6406L8.75977 11.6406C8.30078 11.6406 7.91992 12.0312 7.91992 12.4902C7.91992 12.959 8.30078 13.3496 8.75977 13.3496ZM15.6152 17.5488C15.8496 17.5488 16.0254 17.4609 16.1816 17.2949L20.2539 13.1152C20.459 12.9004 20.5371 12.7148 20.5371 12.4902C20.5371 12.2754 20.459 12.0801 20.2539 11.875L16.1816 7.69531C16.0254 7.5293 15.8496 7.44141 15.6152 7.44141C15.1855 7.44141 14.8633 7.7832 14.8633 8.22266C14.8633 8.42773 14.9512 8.65234 15.1172 8.80859L17.2949 10.8789L18.9844 12.4902L18.9844 12.4902L17.2949 14.1113L15.1172 16.1816C14.9512 16.3379 14.8633 16.5723 14.8633 16.7773C14.8633 17.2266 15.1855 17.5488 15.6152 17.5488Z" fill="var(--color-primary)"/>
 </g>
</svg>
