<svg version="1.1" xmlns="http://www.w3.org/2000/svg" xmlns:xlink="http://www.w3.org/1999/xlink" viewBox="0 0 31.4266 22.9785">
 <g>
  <rect height="22.9785" opacity="0" width="31.4266" x="0" y="0"/>
  <path d="M24.4438 18.7402C24.4438 19.2188 24.8344 19.6094 25.3032 19.6094C25.7817 19.6094 26.1723 19.2188 26.1723 18.7402L26.1723 3.78906C26.1723 1.28906 24.8832 0.0292969 22.3637 0.0292969L11.6704 0.0292969C11.0649 0.0292969 10.7036 0.351562 10.7133 0.888672C10.7231 1.43555 11.0649 1.75781 11.6704 1.75781L22.3344 1.75781C23.7016 1.75781 24.4438 2.48047 24.4438 3.87695ZM28.2231 15.5859L25.3032 18.7109L22.3735 15.5859L21.0454 14.2676C20.6743 13.916 20.1664 13.8672 19.7954 14.2383C19.4243 14.5996 19.4438 15.127 19.8247 15.4883L24.1997 19.8633C24.9028 20.5469 25.6938 20.5469 26.3969 19.8633L30.7719 15.4883C31.143 15.127 31.1723 14.5996 30.8012 14.2383C30.4399 13.8672 29.9223 13.9062 29.5512 14.2676ZM6.63129 4.25781C6.63129 3.78906 6.24067 3.39844 5.76215 3.39844C5.2934 3.39844 4.90278 3.78906 4.90278 4.25781L4.90278 19.2188C4.90278 21.7188 6.18207 22.9785 8.70161 22.9785L19.4047 22.9785C20.0004 22.9785 20.3618 22.6562 20.352 22.1191C20.3422 21.5723 20.0004 21.25 19.4047 21.25L8.7309 21.25C7.37348 21.25 6.63129 20.5273 6.63129 19.1309ZM2.84223 7.42188L5.76215 4.29688L8.69184 7.42188L10.0297 8.74023C10.3911 9.0918 10.8989 9.14062 11.27 8.76953C11.6411 8.39844 11.6215 7.88086 11.2504 7.51953L6.86567 3.14453C6.16254 2.46094 5.37153 2.46094 4.6684 3.14453L0.293402 7.51953C-0.0776918 7.88086-0.106989 8.39844 0.264105 8.76953C0.635199 9.14062 1.14301 9.10156 1.51411 8.74023Z" fill="var(--color-primary)"/>
 </g>
</svg>
