<svg version="1.1" xmlns="http://www.w3.org/2000/svg" xmlns:xlink="http://www.w3.org/1999/xlink" viewBox="0 0 30.332 22.9785">
 <g>
  <rect height="22.9785" opacity="0" width="30.332" x="0" y="0"/>
  <path d="M8.42773 22.9785L21.543 22.9785C23.9355 22.9785 24.9316 21.6992 25.2832 19.3359L27.0996 7.25586L2.86133 7.25586L4.6875 19.3359C5.04883 21.7188 6.02539 22.9785 8.42773 22.9785ZM2.04102 5.70312L27.9199 5.70312C29.2676 5.70312 29.9707 4.88281 29.9707 3.55469L29.9707 2.17773C29.9707 0.839844 29.2676 0.0292969 27.9199 0.0292969L2.04102 0.0292969C0.761719 0.0292969 0 0.839844 0 2.17773L0 3.55469C0 4.88281 0.703125 5.70312 2.04102 5.70312Z" fill="var(--color-tertiary)"/>
  <path d="M11.1133 14.8828C11.3281 14.8828 11.5527 14.7852 11.7188 14.6289L12.793 13.5254L14.8926 11.377L15.1465 11.377L17.2363 13.5254L18.3203 14.6289C18.4766 14.7852 18.6914 14.8828 18.916 14.8828C19.3652 14.8828 19.7168 14.5605 19.7168 14.1016C19.7168 13.8184 19.5898 13.6328 19.4043 13.4668L15.6445 9.94141C15.4102 9.73633 15.2539 9.6582 15.0195 9.6582C14.7852 9.6582 14.6191 9.73633 14.3945 9.94141L10.6348 13.4668C10.4492 13.6328 10.3223 13.8184 10.3223 14.1016C10.3223 14.5605 10.6543 14.8828 11.1133 14.8828ZM15.0195 20.2148C15.4785 20.2148 15.8691 19.8438 15.8691 19.3848L15.8691 14.2969L15.752 11.1621C15.7129 10.2051 14.3262 10.2051 14.2871 11.1621L14.1602 14.2969L14.1602 19.3848C14.1602 19.8438 14.5508 20.2148 15.0195 20.2148Z" fill="var(--color-primary)"/>
 </g>
</svg>
