<svg version="1.1" xmlns="http://www.w3.org/2000/svg" xmlns:xlink="http://www.w3.org/1999/xlink" viewBox="0 0 30.9766 24.541">
 <g>
  <rect height="24.541" opacity="0" width="30.9766" x="0" y="0"/>
  <path d="M3.79883 23.7598L26.8164 23.7598C29.3359 23.7598 30.6152 22.4902 30.6152 20L30.6152 6.77734C30.6152 4.29688 29.3359 3.01758 26.8164 3.01758L23.1543 3.01758C22.1484 3.01758 21.8652 2.86133 21.2695 2.19727L20.2344 1.03516C19.5898 0.332031 18.9844 0 17.7148 0L12.7539 0C11.4844 0 10.8789 0.332031 10.2344 1.03516L9.19922 2.19727C8.62305 2.8418 8.31055 3.01758 7.31445 3.01758L3.79883 3.01758C1.2793 3.01758 0 4.29688 0 6.77734L0 20C0 22.4902 1.2793 23.7598 3.79883 23.7598ZM3.83789 22.0312C2.5 22.0312 1.72852 21.3086 1.72852 19.9121L1.72852 6.875C1.72852 5.46875 2.5 4.74609 3.83789 4.74609L7.71484 4.74609C8.84766 4.74609 9.43359 4.56055 10.0781 3.83789L11.0938 2.70508C11.8164 1.9043 12.1875 1.72852 13.252 1.72852L17.2168 1.72852C18.291 1.72852 18.6523 1.9043 19.375 2.70508L20.3906 3.83789C21.0352 4.56055 21.6211 4.74609 22.7637 4.74609L26.7871 4.74609C28.125 4.74609 28.8867 5.46875 28.8867 6.875L28.8867 19.9121C28.8867 21.3086 28.125 22.0312 26.7871 22.0312Z" fill="var(--color-secondary)"/>
  <path d="M7.25586 13.7305L11.5137 13.7305C12.0117 13.7305 12.1387 13.2715 11.8555 12.8809L9.96094 10.1855C9.64844 9.73633 9.12109 9.7168 8.79883 10.1855L6.92383 12.8809C6.65039 13.2812 6.75781 13.7305 7.25586 13.7305ZM15.3125 19.4531C16.9434 19.4531 18.4375 18.877 19.5898 17.9004C20.498 17.1875 19.502 15.9375 18.5742 16.6309C17.7051 17.373 16.5625 17.8223 15.3125 17.8223C12.4707 17.8223 10.1855 15.5371 10.1855 12.6953C10.1855 12.2363 9.82422 11.875 9.36523 11.875C8.91602 11.875 8.55469 12.2363 8.55469 12.6953C8.55469 16.4258 11.5723 19.4531 15.3125 19.4531ZM23.3789 11.6602L19.1113 11.6602C18.623 11.6602 18.4863 12.1191 18.7695 12.5098L20.6738 15.2051C20.9863 15.6543 21.5039 15.6738 21.8359 15.2051L23.7012 12.5098C23.9746 12.1094 23.877 11.6602 23.3789 11.6602ZM15.3125 5.92773C13.6914 5.92773 12.1875 6.51367 11.0352 7.49023C10.127 8.20312 11.1328 9.45312 12.0508 8.75977C12.9297 8.00781 14.0723 7.56836 15.3125 7.56836C18.1543 7.56836 20.4492 9.85352 20.4492 12.6953C20.4492 13.1445 20.8105 13.5059 21.2598 13.5059C21.7188 13.5059 22.0801 13.1445 22.0801 12.6953C22.0801 8.96484 19.0527 5.92773 15.3125 5.92773Z" fill="var(--color-primary)"/>
 </g>
</svg>
