<svg version="1.1" xmlns="http://www.w3.org/2000/svg" xmlns:xlink="http://www.w3.org/1999/xlink" viewBox="0 0 25.8008 25.459">
 <g>
  <rect height="25.459" opacity="0" width="25.8008" x="0" y="0"/>
  <path d="M12.7148 25.4395C19.7266 25.4395 25.4395 19.7266 25.4395 12.7246C25.4395 5.71289 19.7266 0 12.7148 0C5.71289 0 0 5.71289 0 12.7246C0 19.7266 5.71289 25.4395 12.7148 25.4395Z" fill="var(--color-tertiary)"/>
  <path d="M14.9707 6.11328C14.707 6.11328 14.4629 6.24023 14.2676 6.41602L10.7617 9.86328C10.5957 10.0195 10.5176 10.2051 10.5176 10.4492C10.5176 10.8984 10.8691 11.2402 11.3379 11.2402C11.5625 11.2402 11.7676 11.1523 11.9336 10.9863L13.6914 9.16992L14.9512 7.48047L16.4453 9.39453L18.0078 10.9766C18.1445 11.1328 18.3594 11.2402 18.5938 11.2402C19.0625 11.2402 19.4141 10.8984 19.4141 10.4395C19.4141 10.1953 19.3359 10.0098 19.1602 9.85352L15.6836 6.41602C15.4883 6.24023 15.2344 6.11328 14.9707 6.11328ZM6.82617 11.3574C6.30859 11.3574 6.02539 11.7383 6.02539 12.2266L6.02539 14.0723C6.02539 17.041 7.91016 19.2188 10.9082 19.2188C13.9062 19.2188 15.752 17.0508 15.752 14.082L15.752 9.95117L15.7129 7.61719C15.7031 7.20703 15.3809 6.875 14.9902 6.875C14.5703 6.875 14.248 7.20703 14.2383 7.61719L14.1797 9.95117L14.1797 14.082C14.1797 16.084 13.0176 17.5684 10.9863 17.5684C8.91602 17.5684 7.62695 16.1133 7.62695 14.0723L7.62695 12.207C7.62695 11.7383 7.33398 11.3574 6.82617 11.3574Z" fill="var(--color-primary)"/>
 </g>
</svg>
