<svg version="1.1" xmlns="http://www.w3.org/2000/svg" xmlns:xlink="http://www.w3.org/1999/xlink" viewBox="0 0 29.9249 25.459">
 <g>
  <rect height="25.459" opacity="0" width="29.9249" x="0" y="0"/>
  <path d="M29.1275 10.3613L23.4439 10.3613C22.6529 10.3613 22.4283 10.9082 22.8775 11.5332L25.651 15.4883C26.0123 16.0156 26.5494 16.0254 26.9205 15.4883L29.6939 11.543C30.1431 10.9082 29.9283 10.3613 29.1275 10.3613ZM2.06697 12.7246C2.06697 19.7461 7.76033 25.4395 14.7818 25.4395C19.147 25.4395 22.9361 23.252 25.231 19.9219C25.5826 19.4434 25.4556 18.8281 25.026 18.5742C24.5767 18.3008 24.0689 18.4375 23.7467 18.877C21.8131 21.7285 18.522 23.623 14.7818 23.623C8.75642 23.623 3.88337 18.75 3.88337 12.7246C3.88337 6.69922 8.75642 1.82617 14.7818 1.82617C20.8072 1.82617 25.6802 6.69922 25.6802 12.7246C25.6802 13.2324 26.1002 13.6328 26.5982 13.6328C27.0767 13.6328 27.4869 13.2422 27.4967 12.7344C27.4869 5.69336 21.8033 0 14.7818 0C7.76033 0 2.06697 5.70312 2.06697 12.7246Z" fill="var(--color-primary)"/>
 </g>
</svg>
