<svg version="1.1" xmlns="http://www.w3.org/2000/svg" xmlns:xlink="http://www.w3.org/1999/xlink" viewBox="0 0 25.8008 25.459">
 <g>
  <rect height="25.459" opacity="0" width="25.8008" x="0" y="0"/>
  <path d="M12.7148 25.4395C19.7363 25.4395 25.4395 19.7461 25.4395 12.7246C25.4395 5.70312 19.7363 0 12.7148 0C5.69336 0 0 5.70312 0 12.7246C0 19.7461 5.69336 25.4395 12.7148 25.4395ZM12.7148 23.623C6.68945 23.623 1.81641 18.75 1.81641 12.7246C1.81641 6.69922 6.68945 1.82617 12.7148 1.82617C18.7402 1.82617 23.6133 6.69922 23.6133 12.7246C23.6133 18.75 18.7402 23.623 12.7148 23.623Z" fill="var(--color-secondary)"/>
  <path d="M12.7051 18.8965C15.791 18.8965 18.252 16.416 18.252 13.3301C18.252 12.9297 17.9004 12.5879 17.5 12.5879C17.0898 12.5879 16.748 12.9297 16.748 13.3301C16.748 15.5859 14.9512 17.3926 12.7051 17.3926C10.4492 17.3926 8.66211 15.5859 8.66211 13.3301C8.66211 11.084 10.4492 9.29688 12.7051 9.29688C13.2031 9.29688 13.6719 9.32617 14.0234 9.36523C14.4727 9.39453 14.8047 9.05273 14.8047 8.64258C14.8047 8.25195 14.502 7.92969 14.0918 7.91016C13.5156 7.8418 13.0078 7.83203 12.5195 7.83203C9.6582 7.83203 7.1582 10.2344 7.1582 13.3008C7.1582 16.416 9.62891 18.8965 12.7051 18.8965ZM15.625 8.76953C15.625 8.57422 15.5566 8.38867 15.4199 8.25195L12.9102 5.72266C12.8125 5.625 12.6074 5.51758 12.4316 5.51758C12.0312 5.51758 11.7285 5.83008 11.7285 6.21094C11.7285 6.41602 11.7969 6.5918 11.9531 6.74805L14.0137 8.76953L11.9531 10.791C11.7969 10.9375 11.7285 11.1133 11.7285 11.3184C11.7285 11.709 12.0312 12.0117 12.4316 12.0117C12.6074 12.0117 12.8027 11.9238 12.9102 11.8066L15.4199 9.27734C15.5566 9.15039 15.625 8.95508 15.625 8.76953Z" fill="var(--color-primary)"/>
 </g>
</svg>
