<svg version="1.1" xmlns="http://www.w3.org/2000/svg" xmlns:xlink="http://www.w3.org/1999/xlink" viewBox="0 0 27.9395 26.5527">
 <g>
  <rect height="26.5527" opacity="0" width="27.9395" x="0" y="0"/>
  <path d="M1.5332 25.3223L26.0449 25.3223L26.0449 23.9258C26.0449 23.5059 25.791 23.252 25.3613 23.252L24.5605 23.252L24.5605 8.33984L25.6934 8.33984C26.2891 8.33984 26.6211 7.91992 26.6211 7.48047C26.6211 7.1582 26.4453 6.875 26.0547 6.65039L15.2637 0.419922C14.7852 0.146484 14.2773 0 13.7891 0C13.3008 0 12.7832 0.146484 12.3145 0.419922L1.52344 6.65039C1.12305 6.875 0.957031 7.1582 0.957031 7.48047C0.957031 7.91992 1.28906 8.33984 1.88477 8.33984L3.02734 8.33984L3.02734 23.252L2.22656 23.252C1.78711 23.252 1.5332 23.5059 1.5332 23.9258ZM0.869141 26.5332L26.709 26.5332C27.1875 26.5332 27.5781 26.1426 27.5781 25.6738C27.5781 25.1953 27.1875 24.8047 26.709 24.8047L0.869141 24.8047C0.390625 24.8047 0 25.1953 0 25.6738C0 26.1426 0.390625 26.5332 0.869141 26.5332Z" fill="var(--color-tertiary)"/>
  <path d="M7.55859 19.3066C7.23633 19.3066 6.95312 19.1211 6.95312 18.7305C6.95312 18.6035 6.99219 18.4766 7.02148 18.3594L9.38477 9.99023C9.52148 9.50195 9.80469 9.22852 10.3027 9.22852C10.8105 9.22852 11.0742 9.48242 11.2109 9.98047L13.584 18.3594C13.6328 18.4961 13.6426 18.623 13.6426 18.7305C13.6426 19.1211 13.3691 19.3066 13.0664 19.3066C12.7148 19.3066 12.5488 19.1309 12.4414 18.7891L11.8457 16.5234L8.74023 16.5234L8.1543 18.7891C8.06641 19.1309 7.87109 19.3066 7.55859 19.3066ZM8.98438 15.5469L11.5918 15.5469L10.3223 10.7227L10.2344 10.7227ZM17.4512 20.3027C17.2754 20.3027 17.1387 20.166 17.1387 19.9902L17.1387 19.0039C15.8008 18.877 14.8438 18.0469 14.6387 16.9043C14.6191 16.7676 14.6094 16.6504 14.6094 16.5332C14.6094 16.1816 14.8535 15.9668 15.1758 15.9668C15.4395 15.9668 15.6543 16.123 15.7422 16.4844C15.8594 17.2559 16.2598 17.8809 17.1387 17.998L17.1387 14.6777L16.7676 14.502C15.4785 13.8965 14.7363 13.2129 14.7363 11.9043C14.7363 10.4688 15.7715 9.63867 17.1387 9.52148L17.1387 8.56445C17.1387 8.38867 17.2754 8.24219 17.4512 8.24219C17.6172 8.24219 17.7734 8.38867 17.7734 8.56445L17.7734 9.52148C18.9551 9.61914 19.8047 10.3125 20.0684 11.4941C20.1074 11.6602 20.127 11.8066 20.127 11.9238C20.127 12.2656 19.8926 12.4707 19.5508 12.4707C19.2676 12.4707 19.0918 12.3047 19.0137 12.0215C18.8672 11.1914 18.5254 10.6348 17.7734 10.5176L17.7734 13.7305L18.2031 13.9355C19.4141 14.5117 20.293 15.0977 20.293 16.5332C20.293 18.0078 19.2578 18.9062 17.7734 19.0039L17.7734 19.9902C17.7734 20.166 17.6172 20.3027 17.4512 20.3027ZM15.8887 11.8359C15.8887 12.5977 16.4453 13.0664 17.1387 13.418L17.1387 10.5078C16.4258 10.5957 15.8887 11.0449 15.8887 11.8359ZM17.7734 18.0176C18.5938 17.9297 19.1309 17.4805 19.1309 16.6406C19.1309 15.8008 18.5352 15.3516 17.7734 14.9805Z" fill="var(--color-primary)"/>
 </g>
</svg>
