<svg version="1.1" xmlns="http://www.w3.org/2000/svg" xmlns:xlink="http://www.w3.org/1999/xlink" viewBox="0 0 25.8008 25.459">
 <g>
  <rect height="25.459" opacity="0" width="25.8008" x="0" y="0"/>
  <path d="M12.7148 25.4395C19.7266 25.4395 25.4395 19.7266 25.4395 12.7246C25.4395 5.71289 19.7266 0 12.7148 0C5.71289 0 0 5.71289 0 12.7246C0 19.7266 5.71289 25.4395 12.7148 25.4395Z" fill="var(--color-tertiary)"/>
  <path d="M7.25586 11.416L7.25586 8.78906C7.25586 7.43164 7.97852 6.71875 9.3457 6.71875L18.252 6.71875C19.6289 6.71875 20.3516 7.42188 20.3516 8.78906L20.3516 11.416L19.1699 11.416L19.1699 8.75977C19.1699 8.18359 18.8867 7.90039 18.3203 7.90039L9.28711 7.90039C8.75 7.90039 8.44727 8.18359 8.44727 8.75977L8.44727 11.416ZM20.7227 12.7246C20.7227 13.0371 20.5078 13.2715 20.1953 13.2715L6.43555 13.2715C6.2793 13.5254 5.97656 13.6816 5.66406 13.6816C5.12695 13.6816 4.70703 13.252 4.70703 12.7148C4.70703 12.1777 5.12695 11.748 5.66406 11.748C5.97656 11.748 6.2793 11.9141 6.43555 12.1777L20.1953 12.1777C20.5078 12.1777 20.7227 12.4414 20.7227 12.7246ZM8.44727 14.0527L8.44727 16.6992C8.44727 17.2852 8.75 17.5586 9.28711 17.5586L18.3203 17.5586C18.8867 17.5586 19.1699 17.2852 19.1699 16.6992L19.1699 14.0527L20.3516 14.0527L20.3516 16.6699C20.3516 18.0371 19.6289 18.7402 18.252 18.7402L9.3457 18.7402C7.97852 18.7402 7.25586 18.0273 7.25586 16.6699L7.25586 14.0527ZM5.66406 8.55469C5.17578 8.55469 4.78516 8.16406 4.78516 7.69531C4.78516 7.20703 5.17578 6.80664 5.66406 6.80664C6.16211 6.80664 6.5332 7.2168 6.5332 7.69531C6.5332 8.1543 6.16211 8.55469 5.66406 8.55469ZM5.66406 11.0742C5.18555 11.0742 4.78516 10.6836 4.78516 10.2051C4.78516 9.7168 5.17578 9.32617 5.66406 9.32617C6.16211 9.32617 6.5332 9.72656 6.5332 10.2051C6.5332 10.6836 6.16211 11.0742 5.66406 11.0742ZM5.66406 16.0938C5.17578 16.0938 4.78516 15.7129 4.78516 15.2246C4.78516 14.7363 5.18555 14.3555 5.66406 14.3555C6.16211 14.3555 6.5332 14.7363 6.5332 15.2246C6.5332 15.7031 6.16211 16.0938 5.66406 16.0938ZM5.66406 18.6133C5.17578 18.6133 4.78516 18.2227 4.78516 17.7344C4.78516 17.2656 5.17578 16.8652 5.66406 16.8652C6.16211 16.8652 6.5332 17.2754 6.5332 17.7344C6.5332 18.2129 6.16211 18.6133 5.66406 18.6133Z" fill="var(--color-primary)"/>
 </g>
</svg>
