<svg version="1.1" xmlns="http://www.w3.org/2000/svg" xmlns:xlink="http://www.w3.org/1999/xlink" viewBox="0 0 31.3379 21.4941">
 <g>
  <rect height="21.4941" opacity="0" width="31.3379" x="0" y="0"/>
  <path d="M26.9238 21.4844L29.7461 21.4844C30.4883 21.4844 30.9766 20.9668 30.9766 20.2148L30.9766 1.26953C30.9766 0.507812 30.4883 0 29.7461 0L26.9238 0C26.1816 0 25.6836 0.507812 25.6836 1.26953L25.6836 20.2148C25.6836 20.9668 26.1816 21.4844 26.9238 21.4844Z" fill="var(--color-primary)"/>
  <path d="M18.3594 21.4844L21.1719 21.4844C21.9141 21.4844 22.4121 20.9668 22.4121 20.2148L22.4121 6.21094C22.4121 5.44922 21.9141 4.94141 21.1719 4.94141L18.3594 4.94141C17.6172 4.94141 17.1191 5.44922 17.1191 6.21094L17.1191 20.2148C17.1191 20.9668 17.6172 21.4844 18.3594 21.4844Z" fill="var(--color-primary)"/>
  <path d="M9.79492 21.4844L12.6172 21.4844C13.3594 21.4844 13.8574 20.9668 13.8574 20.2148L13.8574 10.7324C13.8574 9.9707 13.3594 9.46289 12.6172 9.46289L9.79492 9.46289C9.0625 9.46289 8.56445 9.9707 8.56445 10.7324L8.56445 20.2148C8.56445 20.9668 9.0625 21.4844 9.79492 21.4844Z" fill="var(--color-primary)"/>
  <path d="M1.24023 21.4844L4.05273 21.4844C4.79492 21.4844 5.29297 20.9668 5.29297 20.2148L5.29297 14.6289C5.29297 13.877 4.79492 13.3691 4.05273 13.3691L1.24023 13.3691C0.498047 13.3691 0 13.877 0 14.6289L0 20.2148C0 20.9668 0.498047 21.4844 1.24023 21.4844Z" fill="var(--color-primary)"/>
 </g>
</svg>
