<svg version="1.1" xmlns="http://www.w3.org/2000/svg" xmlns:xlink="http://www.w3.org/1999/xlink" viewBox="0 0 23.3203 22.959">
 <g>
  <rect height="22.959" opacity="0" width="23.3203" x="0" y="0"/>
  <path d="M3.79883 22.959L19.1504 22.959C21.6797 22.959 22.959 21.6797 22.959 19.1992L22.959 3.76953C22.959 1.2793 21.6797 0 19.1504 0L3.79883 0C1.2793 0 0 1.26953 0 3.76953L0 19.1992C0 21.6992 1.2793 22.959 3.79883 22.959Z" fill="var(--color-tertiary)"/>
  <path d="M11.4453 17.373C11.2207 17.373 11.0352 17.1875 11.0352 16.9727L11.0352 15.8496C8.79883 15.6543 7.38281 13.9844 7.38281 11.416C7.38281 8.98438 8.71094 7.17773 11.0352 6.97266L11.0352 5.85938C11.0352 5.64453 11.2207 5.45898 11.4453 5.45898C11.6602 5.45898 11.8457 5.64453 11.8457 5.85938L11.8457 6.97266C12.8418 7.05078 13.7207 7.41211 14.3359 8.01758C14.7266 8.41797 15.0781 8.97461 15.0781 9.45312C15.0781 9.81445 14.834 10.0391 14.4922 10.0391C14.2188 10.0391 14.0039 9.87305 13.8867 9.59961C13.5059 8.68164 12.7832 8.18359 11.8457 8.0957L11.8457 14.7363C12.8125 14.6387 13.4668 14.1211 13.8965 13.2324C14.0234 13.0078 14.1699 12.793 14.4922 12.793C14.8047 12.793 15.0977 12.998 15.0977 13.3789C15.0977 13.8086 14.7559 14.4141 14.3652 14.8145C13.7402 15.4199 12.8125 15.7812 11.8457 15.8594L11.8457 16.9727C11.8457 17.1875 11.6602 17.373 11.4453 17.373ZM8.71094 11.416C8.71094 13.1543 9.47266 14.4922 11.0352 14.7168L11.0352 8.10547C9.50195 8.32031 8.71094 9.64844 8.71094 11.416Z" fill="var(--color-primary)"/>
 </g>
</svg>
