<svg version="1.1" xmlns="http://www.w3.org/2000/svg" xmlns:xlink="http://www.w3.org/1999/xlink" viewBox="0 0 27.9883 27.002">
 <g>
  <rect height="27.002" opacity="0" width="27.9883" x="0" y="0"/>
  <path d="M20.2637 4.33594L20.2637 6.15267C19.7065 5.96245 19.126 5.8235 18.5254 5.74695L18.5254 4.43359C18.5254 3.02734 17.7637 2.30469 16.4258 2.30469L3.83789 2.30469C2.4707 2.30469 1.72852 3.02734 1.72852 4.43359L1.72852 16.9824C1.72852 18.3887 2.4707 19.1113 3.83789 19.1113L6.62278 19.1113C6.77342 19.7153 6.98625 20.2935 7.25536 20.8398L3.79883 20.8398C1.26953 20.8398 0 19.5703 0 17.0703L0 4.33594C0 1.8457 1.26953 0.576172 3.79883 0.576172L16.4551 0.576172C18.9844 0.576172 20.2637 1.85547 20.2637 4.33594ZM18.3984 19.8242C18.3984 20.3223 17.9883 20.7422 17.4707 20.7422C16.9727 20.7422 16.5625 20.3223 16.5625 19.8242C16.5625 19.3262 16.9727 18.916 17.4707 18.916C17.9883 18.916 18.3984 19.3262 18.3984 19.8242ZM14.7363 19.8242C14.7363 20.3223 14.3164 20.7422 13.8184 20.7422C13.3105 20.7422 12.9004 20.3223 12.9004 19.8242C12.9004 19.3262 13.3105 18.916 13.8184 18.916C14.3164 18.916 14.7363 19.3262 14.7363 19.8242ZM11.0547 19.8242C11.0547 20.3125 10.6543 20.7422 10.1465 20.7422C9.63867 20.7422 9.23828 20.3125 9.23828 19.8242C9.23828 19.3359 9.63867 18.916 10.1465 18.916C10.6543 18.916 11.0547 19.3359 11.0547 19.8242ZM20.4297 17.3145C20.4297 17.8223 20.0293 18.2422 19.5215 18.2422C19.0137 18.2422 18.6133 17.8223 18.6133 17.3145C18.6133 16.8359 19.0137 16.4062 19.5215 16.4062C20.0293 16.4062 20.4297 16.8359 20.4297 17.3145ZM20.4297 13.6719C20.4297 14.1797 20.0293 14.5801 19.5215 14.5801C19.0137 14.5801 18.6133 14.1797 18.6133 13.6719C18.6133 13.1543 19.0137 12.7539 19.5215 12.7539C20.0293 12.7539 20.4297 13.1543 20.4297 13.6719ZM20.4297 10.0195C20.4297 10.498 20.0293 10.9277 19.5215 10.9277C19.0137 10.9277 18.6133 10.498 18.6133 10.0195C18.6133 9.51172 19.0137 9.0918 19.5215 9.0918C20.0293 9.0918 20.4297 9.51172 20.4297 10.0195Z" fill="var(--color-secondary)"/>
  <path d="M16.9336 27.002C22.832 27.002 27.627 22.2266 27.627 16.3086C27.627 10.4102 22.832 5.61523 16.9336 5.61523C11.0254 5.61523 6.24023 10.4102 6.24023 16.3086C6.24023 22.2266 11.0254 27.002 16.9336 27.002ZM16.9336 25.2344C11.9629 25.2344 8.01758 21.2891 8.01758 16.3086C8.01758 11.3477 11.9629 7.40234 16.9336 7.40234C21.8945 7.40234 25.8496 11.3477 25.8496 16.3086C25.8496 21.2891 21.8945 25.2344 16.9336 25.2344Z" fill="var(--color-primary)"/>
 </g>
</svg>
