<svg version="1.1" xmlns="http://www.w3.org/2000/svg" xmlns:xlink="http://www.w3.org/1999/xlink" viewBox="0 0 46.5137 30.9242">
 <g>
  <rect height="30.9242" opacity="0" width="46.5137" x="0" y="0"/>
  <path d="M23.7207 7.20527C21.6143 8.32773 19.6493 9.5862 17.8342 10.9525L31.1426 10.1447C33.0859 10.0275 34.502 10.174 36.25 10.506L42.1973 11.5998C45.0293 12.1271 46.1523 13.3674 46.1523 16.2189L46.1523 18.4064C46.1523 20.8478 45.0195 22.1369 42.6465 22.4006L41.2247 22.5571C40.7273 24.3791 39.0884 25.6818 37.0801 25.6818C35.2112 25.6818 33.6563 24.5537 33.0479 22.9279L13.1044 22.9279C12.496 24.5537 10.9412 25.6818 9.07227 25.6818C7.41348 25.6818 6.00666 24.7931 5.28548 23.4576L2.56836 23.1428C0.791016 22.9475 0 22.0685 0 20.3205L0 18.6701C0 15.34 2.00195 13.5334 5.99609 12.7814L14.7266 11.131C17.1191 9.14863 19.8828 7.34199 22.793 5.77949C23.916 5.17402 24.7461 6.65839 23.7207 7.20527ZM6.39648 21.3752C6.39648 22.8693 7.57812 24.051 9.07227 24.051C10.5762 24.051 11.7578 22.8693 11.7578 21.3752C11.7578 19.8713 10.5762 18.6896 9.07227 18.6896C7.57812 18.6896 6.39648 19.8713 6.39648 21.3752ZM34.3945 21.3752C34.3945 22.8693 35.5859 24.051 37.0801 24.051C38.5742 24.051 39.7559 22.8693 39.7559 21.3752C39.7559 19.8713 38.5742 18.6896 37.0801 18.6896C35.5859 18.6896 34.3945 19.8713 34.3945 21.3752ZM31.0547 11.8928L14.5301 12.8812L6.24023 14.4611C3.24219 15.0373 1.72852 16.3264 1.72852 18.6701L1.72852 20.2033C1.72852 20.9553 2.11914 21.3459 2.95898 21.4435L4.77912 21.6517C4.76846 21.5614 4.76562 21.4687 4.76562 21.3752C4.76562 18.9533 6.65039 17.0588 9.07227 17.0588C11.4347 17.0588 13.2953 18.8615 13.3801 21.1994L32.7723 21.1994C32.857 18.8615 34.7176 17.0588 37.0801 17.0588C39.314 17.0588 41.0909 18.6706 41.3495 20.8228L42.4316 20.7014C43.7891 20.5451 44.4238 19.8127 44.4238 18.4064L44.4238 16.2189C44.4238 14.5197 43.7402 13.7287 41.8945 13.3771L36.1719 12.3029C34.1211 11.9123 32.7734 11.7853 31.0547 11.8928Z" fill="var(--color-secondary)"/>
  <path d="M35.0391 2.508C33.4668 2.63496 33.7305 4.48066 35.0977 4.34394C38.291 4.08027 41.5723 5.02753 44.0918 6.32636C44.5508 6.54121 45.0977 6.34589 45.3223 5.88691C45.5176 5.41816 45.3125 4.88105 44.8438 4.67597C42.2266 3.32831 38.6133 2.26386 35.0391 2.508ZM35.4199 6.16035L35.2051 0.779487C35.1855-0.040826 34.6094-0.197076 34.0332 0.232612L30.3418 2.94746C29.8047 3.31855 29.834 3.85566 30.3809 4.21699L34.2285 6.74628C34.8828 7.16621 35.4199 6.95136 35.4199 6.16035Z" fill="var(--color-primary)"/>
 </g>
</svg>
