<svg version="1.1" xmlns="http://www.w3.org/2000/svg" xmlns:xlink="http://www.w3.org/1999/xlink" viewBox="0 0 23.3203 22.959">
 <g>
  <rect height="22.959" opacity="0" width="23.3203" x="0" y="0"/>
  <path d="M3.79883 22.959L19.1504 22.959C21.6797 22.959 22.959 21.6797 22.959 19.1992L22.959 3.76953C22.959 1.2793 21.6797 0 19.1504 0L3.79883 0C1.2793 0 0 1.26953 0 3.76953L0 19.1992C0 21.6992 1.2793 22.959 3.79883 22.959Z" fill="var(--color-tertiary)"/>
  <path d="M10.6152 15.7031C8.61328 15.7031 7.2168 14.0918 7.2168 11.9531C7.2168 9.6875 8.74023 8.21289 10.6152 8.21289C11.7578 8.21289 12.793 8.70117 13.2422 9.73633L13.3008 9.73633L13.3008 7.00195L10.8203 7.00195C10.5957 7.00195 10.4297 6.82617 10.4297 6.60156C10.4297 6.39648 10.5957 6.2207 10.8203 6.2207L13.3008 6.2207L13.3008 5.625C13.3008 5.22461 13.5547 4.9707 13.9453 4.9707C14.3359 4.9707 14.5898 5.22461 14.5898 5.625L14.5898 6.2207L15.5762 6.2207C15.791 6.2207 15.9668 6.39648 15.9668 6.60156C15.9668 6.81641 15.791 7.00195 15.5762 7.00195L14.5898 7.00195L14.5898 15.2051C14.5898 15.5566 14.3262 15.8301 13.9648 15.8301C13.6133 15.8301 13.3398 15.5566 13.3398 15.2051L13.3398 14.1699L13.3008 14.1699C12.7832 15.2441 11.7383 15.7031 10.6152 15.7031ZM10.9375 14.5898C12.334 14.5898 13.3008 13.457 13.3008 11.9531C13.3008 10.5371 12.4121 9.32617 10.9375 9.32617C9.52148 9.32617 8.53516 10.4102 8.53516 11.9531C8.53516 13.4277 9.43359 14.5898 10.9375 14.5898ZM7.8418 17.0801C7.8418 16.8555 8.03711 16.6797 8.26172 16.6797L14.5605 16.6797C14.7754 16.6797 14.9707 16.8555 14.9707 17.0801C14.9707 17.3047 14.7754 17.4805 14.5605 17.4805L8.26172 17.4805C8.03711 17.4805 7.8418 17.3047 7.8418 17.0801Z" fill="var(--color-primary)"/>
 </g>
</svg>
