<svg version="1.1" xmlns="http://www.w3.org/2000/svg" xmlns:xlink="http://www.w3.org/1999/xlink" viewBox="0 0 29.0234 25.8496">
 <g>
  <rect height="25.8496" opacity="0" width="29.0234" x="0" y="0"/>
  <path d="M14.3262 23.8086C22.6465 23.8086 28.6621 18.7891 28.6621 11.9043C28.6621 4.99023 22.6367 0 14.3262 0C6.01562 0 0 4.99023 0 11.9043C0 16.8848 2.75391 18.2129 2.75391 20.4785C2.75391 21.4746 2.41211 22.1191 1.66016 22.793C1.17188 23.2324 1.41602 23.8086 2.13867 23.8086C3.82812 23.8086 5.60547 23.2031 6.875 22.2559C9.02344 23.2715 11.5625 23.8086 14.3262 23.8086Z" fill="var(--color-tertiary)"/>
  <path d="M20.4297 13.7891C19.4434 13.7891 18.6426 12.9883 18.6426 11.9922C18.6426 11.0059 19.4434 10.2051 20.4297 10.2051C21.416 10.2051 22.2266 11.0059 22.2266 11.9922C22.2266 12.9883 21.416 13.7891 20.4297 13.7891Z" fill="var(--color-primary)"/>
  <path d="M14.4531 13.7891C13.457 13.7891 12.6562 12.9883 12.6562 11.9922C12.6562 11.0059 13.457 10.2051 14.4531 10.2051C15.4395 10.2051 16.2402 11.0059 16.2402 11.9922C16.2402 12.9883 15.4395 13.7891 14.4531 13.7891Z" fill="var(--color-primary)"/>
  <path d="M8.4668 13.7891C7.48047 13.7891 6.66992 12.9883 6.66992 11.9922C6.66992 11.0059 7.48047 10.2051 8.4668 10.2051C9.44336 10.2051 10.2539 11.0059 10.2539 11.9922C10.2539 12.9883 9.45312 13.7891 8.4668 13.7891Z" fill="var(--color-primary)"/>
 </g>
</svg>
