<svg version="1.1" xmlns="http://www.w3.org/2000/svg" xmlns:xlink="http://www.w3.org/1999/xlink" viewBox="0 0 20.7324 25.3418">
 <g>
  <rect height="25.3418" opacity="0" width="20.7324" x="0" y="0"/>
  <path d="M10.1855 25.3418C10.4102 25.3418 10.7129 25.2441 11.0156 25.0879C18.1152 21.2402 20.3711 19.502 20.3711 15.1367L20.3711 5.63477C20.3711 4.31641 19.8535 3.88672 18.7402 3.42773C17.0703 2.76367 12.8613 1.20117 11.1914 0.634766C10.8594 0.527344 10.5273 0.449219 10.1855 0.449219C9.84375 0.449219 9.51172 0.537109 9.17969 0.634766C7.50977 1.20117 3.30078 2.77344 1.63086 3.42773C0.517578 3.86719 0 4.31641 0 5.63477L0 15.1367C0 19.502 2.37305 21.0449 9.35547 25.0879C9.64844 25.2539 9.96094 25.3418 10.1855 25.3418Z" fill="var(--color-tertiary)"/>
  <path d="M10.1953 14.707C9.62891 14.707 9.31641 14.3848 9.30664 13.7988L9.15039 6.92383C9.14062 6.33789 9.57031 5.91797 10.1855 5.91797C10.791 5.91797 11.2305 6.34766 11.2207 6.93359L11.0645 13.7988C11.0547 14.3945 10.7324 14.707 10.1953 14.707ZM10.1953 18.7793C9.50195 18.7793 8.91602 18.2324 8.91602 17.5586C8.91602 16.875 9.49219 16.3184 10.1953 16.3184C10.8887 16.3184 11.4746 16.8652 11.4746 17.5586C11.4746 18.2422 10.8789 18.7793 10.1953 18.7793Z" fill="var(--color-primary)"/>
 </g>
</svg>
