<svg version="1.1" xmlns="http://www.w3.org/2000/svg" xmlns:xlink="http://www.w3.org/1999/xlink" viewBox="0 0 30.7611 28.8709">
 <g>
  <rect height="28.8709" opacity="0" width="30.7611" x="0" y="0"/>
  <path d="M25.8005 14.4696C26.1813 14.8505 26.6403 14.8798 27.0309 14.4892L30.1364 11.3935C30.5075 11.0224 30.488 10.5438 30.0973 10.163L29.3258 9.41104C28.9157 8.99111 28.6618 8.93252 28.193 8.97158L27.1188 9.07901L26.279 8.24893L26.611 6.86221C26.777 6.15908 26.5426 5.47549 25.8395 4.77236L23.3493 2.31143C20.7614-0.227635 15.1657-0.0909163 12.861 2.39932C12.4215 2.8876 12.4801 3.38565 12.7633 3.71768C12.9684 3.97158 13.3688 4.1376 13.7204 3.97158C15.5954 3.09268 17.5583 2.86807 19.1989 3.67861L18.1247 6.3251C17.8024 7.14541 17.9782 7.73135 18.5153 8.28799L20.8298 10.6024C21.2301 10.9931 21.6305 11.1005 22.2751 10.9735L23.8571 10.6513L24.6969 11.5009L24.5993 12.5556C24.5602 13.0536 24.5993 13.3173 25.029 13.7274ZM0.663736 26.7646L2.07975 28.1806C3.06608 29.1767 4.29655 29.0888 5.30241 27.956L19.8239 11.5302C19.7555 11.4618 19.6969 11.4032 19.6286 11.3349L17.6364 9.33291C17.568 9.27432 17.4899 9.18643 17.4215 9.12783L0.937173 23.581C-0.215171 24.5868-0.303061 25.788 0.663736 26.7646Z" fill="var(--color-primary)"/>
 </g>
</svg>
