<svg version="1.1" xmlns="http://www.w3.org/2000/svg" xmlns:xlink="http://www.w3.org/1999/xlink" viewBox="0 0 23.9551 23.4717">
 <g>
  <rect height="23.4717" opacity="0" width="23.9551" x="0" y="0"/>
  <path d="M20.8398 20.7739C23.6621 17.9614 24.248 14.8657 22.7441 11.0864C22.041 9.12354 20.9766 7.08252 19.7461 4.82666C19.3164 3.99658 18.7988 2.96143 18.4375 2.59033C17.9688 2.13135 17.3242 2.17041 16.8555 2.64893C16.3477 3.15674 16.3281 3.78174 16.7188 4.89502L18.1543 8.72314C18.3594 9.25049 18.2812 9.52393 18.0078 9.85596C16.4648 11.6431 16.1816 13.8208 17.6562 15.4321C17.8711 15.6958 17.8613 16.0669 17.6172 16.311C17.3926 16.5454 16.9824 16.5356 16.7578 16.272C15.4395 14.8462 14.668 12.0532 16.9629 9.19189L8.13477 0.373535C7.64648-0.124512 6.81641-0.124512 6.32812 0.373535C5.82031 0.871582 5.82031 1.69189 6.32812 2.19971L12.832 8.70361C12.4707 8.8501 12.1191 9.04541 11.7578 9.27979L4.12109 1.64307C3.61328 1.14502 2.79297 1.14502 2.29492 1.64307C1.79688 2.14111 1.79688 2.97119 2.29492 3.45947L9.83398 11.0083C9.55078 11.3403 9.28711 11.6821 9.04297 12.0239L2.20703 5.18799C1.69922 4.68994 0.888672 4.68994 0.380859 5.18799C-0.126953 5.68604-0.126953 6.51611 0.380859 7.01416L7.8125 14.4458C7.63672 14.9048 7.5293 15.3442 7.44141 15.7642L2.29492 10.6079C1.79688 10.1099 0.976562 10.1099 0.46875 10.6079C-0.0292969 11.106-0.0292969 11.9263 0.46875 12.4243L8.64258 20.5981C12.5977 24.5532 17.3828 24.2114 20.8398 20.7739Z" fill="var(--color-primary)"/>
 </g>
</svg>
