<svg version="1.1" xmlns="http://www.w3.org/2000/svg" xmlns:xlink="http://www.w3.org/1999/xlink" viewBox="0 0 29.9512 22.959">
 <g>
  <rect height="22.959" opacity="0" width="29.9512" x="0" y="0"/>
  <path d="M3.79883 22.959L25.7812 22.959C28.3105 22.959 29.5898 21.6797 29.5898 19.1992L29.5898 3.76953C29.5898 1.2793 28.3105 0 25.7812 0L3.79883 0C1.2793 0 0 1.26953 0 3.76953L0 19.1992C0 21.6992 1.2793 22.959 3.79883 22.959Z" fill="var(--color-tertiary)"/>
  <path d="M11.6895 5.75195C13.0762 5.75195 14.1602 6.5625 14.7949 7.70508C15.4297 6.5625 16.5332 5.75195 17.9004 5.75195C20.0781 5.75195 21.6504 7.40234 21.6504 9.6582C21.6504 13.125 17.8906 16.2109 15.3906 17.8809C15.2051 18.0176 14.9707 18.1641 14.8145 18.1641C14.668 18.1641 14.4141 18.0176 14.1992 17.8809C11.6602 16.2793 7.93945 13.125 7.93945 9.6582C7.93945 7.40234 9.52148 5.75195 11.6895 5.75195Z" fill="var(--color-primary)"/>
 </g>
</svg>
