<svg version="1.1" xmlns="http://www.w3.org/2000/svg" xmlns:xlink="http://www.w3.org/1999/xlink" viewBox="0 0 23.3203 22.959">
 <g>
  <rect height="22.959" opacity="0" width="23.3203" x="0" y="0"/>
  <path d="M3.79883 22.959L19.1504 22.959C21.6797 22.959 22.959 21.6797 22.959 19.1992L22.959 3.76953C22.959 1.2793 21.6797 0 19.1504 0L3.79883 0C1.2793 0 0 1.26953 0 3.76953L0 19.1992C0 21.6992 1.2793 22.959 3.79883 22.959Z" fill="var(--color-tertiary)"/>
  <path d="M5.15625 17.1875C4.62891 17.1875 4.27734 16.748 4.27734 16.2891L4.27734 6.5332C4.27734 5.98633 4.70703 5.64453 5.15625 5.64453C5.68359 5.64453 6.04492 6.07422 6.04492 6.5332L6.04492 10.5762L10.6641 10.5762L10.6641 6.5332C10.6641 5.99609 11.1328 5.64453 11.5625 5.64453C12.0117 5.64453 12.4512 5.99609 12.4512 6.5332L12.4512 16.2891C12.4512 16.7871 12.0605 17.1875 11.5625 17.1875C11.084 17.1875 10.6641 16.7871 10.6641 16.2891L10.6641 12.0996L6.04492 12.0996L6.04492 16.2891C6.04492 16.7871 5.64453 17.1875 5.15625 17.1875ZM14.6484 17.1289C14.2676 17.1289 14.0039 16.8848 14.0039 16.5137C14.0039 16.3281 14.082 16.1719 14.2285 16.0156L16.4355 13.6523C16.8652 13.1836 17.207 12.7637 17.207 12.3535C17.207 11.8848 16.8457 11.5527 16.2598 11.5527C15.6836 11.5527 15.3125 11.9141 15.1953 12.3828C15.0488 12.6562 14.873 12.8125 14.5703 12.8125C14.209 12.8125 13.9648 12.5586 13.9648 12.207C13.9648 12.1094 13.9844 12.002 14.0137 11.9043C14.2383 11.0156 15.166 10.3613 16.2207 10.3613C17.5781 10.3613 18.4961 11.1328 18.4961 12.3047C18.4961 13.1055 18.0176 13.7695 17.4316 14.3848L15.9375 15.918L18.2227 15.918C18.5742 15.918 18.8281 16.1914 18.8281 16.5234C18.8281 16.8652 18.584 17.1289 18.2227 17.1289Z" fill="var(--color-primary)"/>
 </g>
</svg>
