<svg version="1.1" xmlns="http://www.w3.org/2000/svg" xmlns:xlink="http://www.w3.org/1999/xlink" viewBox="0 0 44.3652 21.6699">
 <g>
  <rect height="21.6699" opacity="0" width="44.3652" x="0" y="0"/>
  <path d="M4.63867 19.2969C4.9707 18.9062 4.86328 18.3984 4.48242 17.9688C2.74414 16.0742 1.74805 13.584 1.74805 10.8301C1.74805 8.06641 2.74414 5.57617 4.48242 3.68164C4.86328 3.25195 4.9707 2.74414 4.63867 2.36328C4.28711 1.96289 3.69141 1.96289 3.28125 2.41211C1.19141 4.63867 0 7.59766 0 10.8301C0 14.0527 1.19141 17.0215 3.28125 19.2383C3.69141 19.6875 4.28711 19.6973 4.63867 19.2969ZM39.3652 19.2969C39.707 19.6973 40.3125 19.6875 40.7227 19.2383C42.8027 17.0215 44.0039 14.0527 44.0039 10.8301C44.0039 7.59766 42.8027 4.63867 40.7227 2.41211C40.3125 1.96289 39.707 1.96289 39.3652 2.36328C39.0234 2.74414 39.1309 3.25195 39.5215 3.68164C41.2598 5.57617 42.2559 8.06641 42.2559 10.8301C42.2559 13.584 41.2598 16.0742 39.5215 17.9688C39.1309 18.3984 39.0234 18.9062 39.3652 19.2969Z" fill="var(--color-secondary)"/>
  <path d="M8.125 15.7422C8.4668 15.3516 8.32031 14.8633 7.97852 14.4141C7.14844 13.4668 6.74805 12.1973 6.74805 10.8301C6.74805 9.46289 7.14844 8.18359 7.97852 7.23633C8.32031 6.78711 8.4668 6.29883 8.125 5.91797C7.76367 5.51758 7.12891 5.50781 6.74805 5.98633C5.63477 7.30469 5 9.00391 5 10.8301C5 12.6562 5.63477 14.3457 6.74805 15.6641C7.12891 16.1426 7.76367 16.1426 8.125 15.7422ZM35.8789 15.7422C36.2305 16.1426 36.875 16.1426 37.2559 15.6641C38.3691 14.3457 39.0039 12.6562 39.0039 10.8301C39.0039 9.00391 38.3691 7.30469 37.2559 5.98633C36.875 5.50781 36.2305 5.51758 35.8789 5.91797C35.5371 6.29883 35.6836 6.78711 36.0254 7.23633C36.8457 8.18359 37.2559 9.46289 37.2559 10.8301C37.2559 12.1973 36.8457 13.4668 36.0254 14.4141C35.6836 14.8633 35.5371 15.3516 35.8789 15.7422Z" fill="var(--color-secondary)"/>
  <path d="M22.002 21.6504C27.9785 21.6504 32.832 16.8066 32.832 10.8301C32.832 4.84375 27.9785 0 22.002 0C16.0156 0 11.1719 4.84375 11.1719 10.8301C11.1719 16.8066 16.0156 21.6504 22.002 21.6504ZM22.002 19.9219C16.9727 19.9219 12.9004 15.8496 12.9004 10.8301C12.9004 5.80078 16.9727 1.72852 22.002 1.72852C27.0215 1.72852 31.0938 5.80078 31.0938 10.8301C31.0938 15.8496 27.0215 19.9219 22.002 19.9219Z" fill="var(--color-primary)"/>
  <path d="M20.4492 7.33398C20.625 7.54883 20.8203 7.5293 20.9961 7.34375L21.6309 6.69922C21.7871 6.54297 21.7871 6.32812 21.6211 6.16211L20.5957 5.10742C20.4492 4.96094 20.3027 4.93164 20.1367 5.05859L19.4434 5.68359C19.3066 5.80078 19.2969 5.9375 19.4141 6.07422ZM23.6328 7.33398L24.6582 6.07422C24.7852 5.9375 24.7754 5.80078 24.6387 5.68359L23.9355 5.05859C23.7891 4.93164 23.6328 4.96094 23.4863 5.10742L22.4609 6.16211C22.2949 6.32812 22.2949 6.54297 22.4512 6.69922L23.0859 7.34375C23.252 7.51953 23.457 7.54883 23.6328 7.33398ZM19.2871 15.8496L21.6895 15.8496L21.6895 7.41211L21.1328 7.98828C20.8496 8.28125 20.4199 8.26172 20.1367 7.91992L18.6719 6.11328L18.1641 6.31836C17.627 6.51367 17.4121 6.78711 17.2754 7.29492L15.3027 14.3945C15.1562 14.9121 15.332 15.2539 15.791 15.3809L16.9824 15.7227C17.4316 15.8398 17.7539 15.7617 17.8516 15.3125L18.1738 13.9941L18.1543 14.9316C18.2129 15.4883 18.5645 15.8496 19.2871 15.8496ZM19.6094 13.3398C19.4824 13.4375 19.2969 13.4082 19.1992 13.2715C19.1113 13.1348 19.1406 12.959 19.2676 12.8613L20.4004 12.0312C20.5371 11.9336 20.7324 11.9629 20.8301 12.0996C20.9277 12.2266 20.8887 12.4023 20.7617 12.5195ZM22.3633 15.8496L24.7656 15.8496C25.4883 15.8496 25.8496 15.4883 25.8984 14.9316L25.8887 13.9844L26.2012 15.3125C26.3086 15.7617 26.6309 15.8398 27.0801 15.7227L28.2617 15.3809C28.7207 15.2539 28.8965 14.9121 28.7598 14.3945L26.7773 7.29492C26.6406 6.78711 26.416 6.51367 25.8887 6.31836L25.4004 6.11328L23.916 7.91992C23.6426 8.25195 23.2129 8.28125 22.9297 7.98828L22.3633 7.41211ZM24.4629 13.3398L23.3203 12.5195C23.1836 12.4023 23.1543 12.2266 23.252 12.0996C23.3496 11.9629 23.5449 11.9336 23.6719 12.0312L24.8145 12.8613C24.9414 12.959 24.9609 13.1348 24.8828 13.2715C24.7852 13.4082 24.5996 13.4375 24.4629 13.3398Z" fill="var(--color-primary)"/>
 </g>
</svg>
