<svg version="1.1" xmlns="http://www.w3.org/2000/svg" xmlns:xlink="http://www.w3.org/1999/xlink" viewBox="0 0 29.9512 22.959">
 <g>
  <rect height="22.959" opacity="0" width="29.9512" x="0" y="0"/>
  <path d="M3.79883 22.959L25.7812 22.959C28.3105 22.959 29.5898 21.6797 29.5898 19.1992L29.5898 3.76953C29.5898 1.2793 28.3105 0 25.7812 0L3.79883 0C1.2793 0 0 1.26953 0 3.76953L0 19.1992C0 21.6992 1.2793 22.959 3.79883 22.959Z" fill="var(--color-tertiary)"/>
  <path d="M5.51758 6.58203C4.88281 6.58203 4.33594 6.02539 4.33594 5.39062C4.33594 4.73633 4.88281 4.19922 5.51758 4.19922C6.18164 4.19922 6.70898 4.72656 6.70898 5.39062C6.70898 6.03516 6.18164 6.58203 5.51758 6.58203Z" fill="var(--color-primary)"/>
  <path d="M9.58008 6.08398C9.17969 6.08398 8.87695 5.78125 8.87695 5.39062C8.87695 4.99023 9.18945 4.66797 9.58008 4.66797L24.6777 4.66797C25.0684 4.66797 25.3809 4.99023 25.3809 5.39062C25.3809 5.78125 25.0781 6.08398 24.6777 6.08398Z" fill="var(--color-primary)"/>
  <path d="M5.51758 10.5859C4.88281 10.5859 4.33594 10.0488 4.33594 9.4043C4.33594 8.75 4.88281 8.21289 5.51758 8.21289C6.18164 8.21289 6.70898 8.74023 6.70898 9.4043C6.70898 10.0586 6.18164 10.5859 5.51758 10.5859Z" fill="var(--color-primary)"/>
  <path d="M9.58008 10.1074C9.18945 10.1074 8.87695 9.79492 8.87695 9.4043C8.87695 9.01367 9.18945 8.69141 9.58008 8.69141L18.0859 8.69141C18.4766 8.69141 18.7891 9.01367 18.7891 9.4043C18.7891 9.79492 18.4766 10.1074 18.0859 10.1074Z" fill="var(--color-primary)"/>
  <path d="M5.51758 14.5898C4.87305 14.5898 4.33594 14.0625 4.33594 13.3984C4.33594 12.7637 4.87305 12.2266 5.51758 12.2266C6.18164 12.2266 6.70898 12.7539 6.70898 13.3984C6.70898 14.0625 6.18164 14.5898 5.51758 14.5898Z" fill="var(--color-primary)"/>
  <path d="M9.58008 14.1211C9.17969 14.1211 8.87695 13.8086 8.87695 13.3984C8.87695 13.0078 9.17969 12.7051 9.58008 12.7051L24.6777 12.7051C25.0781 12.7051 25.3809 13.0078 25.3809 13.3984C25.3809 13.8086 25.0781 14.1211 24.6777 14.1211Z" fill="var(--color-primary)"/>
  <path d="M5.51758 18.75C4.88281 18.75 4.33594 18.2129 4.33594 17.5586C4.33594 16.9238 4.88281 16.377 5.51758 16.377C6.18164 16.377 6.70898 16.9141 6.70898 17.5586C6.70898 18.2227 6.18164 18.75 5.51758 18.75Z" fill="var(--color-primary)"/>
  <path d="M9.58008 18.2812C9.18945 18.2812 8.87695 17.959 8.87695 17.5586C8.87695 17.168 9.17969 16.8652 9.58008 16.8652L18.0859 16.8652C18.4863 16.8652 18.7891 17.168 18.7891 17.5586C18.7891 17.959 18.4766 18.2812 18.0859 18.2812Z" fill="var(--color-primary)"/>
 </g>
</svg>
