<svg version="1.1" xmlns="http://www.w3.org/2000/svg" xmlns:xlink="http://www.w3.org/1999/xlink" viewBox="0 0 29.9512 22.959">
 <g>
  <rect height="22.959" opacity="0" width="29.9512" x="0" y="0"/>
  <path d="M3.79883 22.959L25.7812 22.959C28.3105 22.959 29.5898 21.6797 29.5898 19.1992L29.5898 3.76953C29.5898 1.2793 28.3105 0 25.7812 0L3.79883 0C1.2793 0 0 1.26953 0 3.76953L0 19.1992C0 21.6992 1.2793 22.959 3.79883 22.959Z" fill="var(--color-tertiary)"/>
  <path d="M5.80078 6.79688C5.29297 6.79688 4.87305 6.36719 4.87305 5.86914C4.87305 5.3418 5.2832 4.93164 5.80078 4.93164L7.36328 4.93164C7.87109 4.93164 8.31055 5.3418 8.31055 5.86914C8.31055 6.37695 7.88086 6.79688 7.36328 6.79688Z" fill="var(--color-primary)"/>
  <path d="M10.8691 6.57227C10.4688 6.57227 10.166 6.26953 10.166 5.86914C10.166 5.45898 10.4785 5.15625 10.8691 5.15625L24.0039 5.15625C24.3945 5.15625 24.6973 5.45898 24.6973 5.86914C24.6973 6.26953 24.4043 6.57227 24.0039 6.57227Z" fill="var(--color-primary)"/>
  <path d="M5.80078 11.0938C5.2832 11.0938 4.87305 10.6738 4.87305 10.166C4.87305 9.64844 5.2832 9.23828 5.80078 9.23828L7.36328 9.23828C7.88086 9.23828 8.31055 9.64844 8.31055 10.166C8.31055 10.6738 7.87109 11.0938 7.36328 11.0938Z" fill="var(--color-primary)"/>
  <path d="M10.8691 10.8789C10.4688 10.8789 10.166 10.5664 10.166 10.166C10.166 9.75586 10.4785 9.44336 10.8691 9.44336L24.0039 9.44336C24.4043 9.44336 24.6973 9.76562 24.6973 10.166C24.6973 10.5762 24.4043 10.8789 24.0039 10.8789Z" fill="var(--color-primary)"/>
 </g>
</svg>
