<svg version="1.1" xmlns="http://www.w3.org/2000/svg" xmlns:xlink="http://www.w3.org/1999/xlink" viewBox="0 0 21.3281 26.9238">
 <g>
  <rect height="26.9238" opacity="0" width="21.3281" x="0" y="0"/>
  <path d="M0 23.125C0 25.6445 1.25977 26.9238 3.75977 26.9238L17.207 26.9238C19.707 26.9238 20.9668 25.6445 20.9668 23.125L20.9668 3.80859C20.9668 1.28906 19.707 0.00976562 17.207 0.00976562L3.75977 0.00976562C1.25977 0.00976562 0 1.28906 0 3.80859Z" fill="var(--color-tertiary)"/>
  <path d="M4.75586 6.69922C4.10156 6.69922 3.56445 6.16211 3.56445 5.50781C3.56445 4.87305 4.10156 4.31641 4.75586 4.31641C5.40039 4.31641 5.9375 4.86328 5.9375 5.50781C5.9375 6.17188 5.40039 6.69922 4.75586 6.69922Z" fill="var(--color-primary)"/>
  <path d="M8.37891 6.23047C7.97852 6.23047 7.66602 5.9082 7.66602 5.50781C7.66602 5.11719 7.97852 4.80469 8.37891 4.80469L16.6992 4.80469C17.0898 4.80469 17.4023 5.11719 17.4023 5.50781C17.4023 5.9082 17.0898 6.23047 16.6992 6.23047Z" fill="var(--color-primary)"/>
  <path d="M4.75586 10.7129C4.0918 10.7129 3.56445 10.1758 3.56445 9.52148C3.56445 8.86719 4.0918 8.33984 4.75586 8.33984C5.40039 8.33984 5.9375 8.85742 5.9375 9.52148C5.9375 10.1758 5.40039 10.7129 4.75586 10.7129Z" fill="var(--color-primary)"/>
  <path d="M8.37891 10.2246C7.96875 10.2246 7.66602 9.92188 7.66602 9.52148C7.66602 9.12109 7.96875 8.81836 8.37891 8.81836L16.6992 8.81836C17.0996 8.81836 17.4023 9.12109 17.4023 9.52148C17.4023 9.92188 17.0996 10.2246 16.6992 10.2246Z" fill="var(--color-primary)"/>
  <path d="M4.75586 14.873C4.10156 14.873 3.56445 14.3164 3.56445 13.6816C3.56445 13.0273 4.10156 12.4902 4.75586 12.4902C5.40039 12.4902 5.9375 13.0176 5.9375 13.6816C5.9375 14.3262 5.40039 14.873 4.75586 14.873Z" fill="var(--color-primary)"/>
  <path d="M8.37891 14.3848C7.97852 14.3848 7.66602 14.0723 7.66602 13.6816C7.66602 13.2812 7.96875 12.9688 8.37891 12.9688L16.6992 12.9688C17.0996 12.9688 17.4023 13.2812 17.4023 13.6816C17.4023 14.0723 17.0898 14.3848 16.6992 14.3848Z" fill="var(--color-primary)"/>
 </g>
</svg>
