<svg version="1.1" xmlns="http://www.w3.org/2000/svg" xmlns:xlink="http://www.w3.org/1999/xlink" viewBox="0 0 21.3281 34.3262">
 <g>
  <rect height="34.3262" opacity="0" width="21.3281" x="0" y="0"/>
  <path d="M20.9668 8.49609L20.9668 27.8125C20.9668 30.3418 19.707 31.6113 17.207 31.6113L3.75977 31.6113C1.25977 31.6113 0 30.3418 0 27.8125L0 8.49609C0 5.9668 1.25977 4.6875 3.75977 4.6875L4.17413 4.6875C4.16466 4.77973 4.16016 4.87429 4.16016 4.9707L4.16016 6.2793C4.16016 7.74414 5.18555 8.7793 6.62109 8.7793L14.3457 8.7793C15.7812 8.7793 16.8066 7.74414 16.8066 6.2793L16.8066 4.9707C16.8066 4.87429 16.8021 4.77973 16.7927 4.6875L17.207 4.6875C19.707 4.6875 20.9668 5.9668 20.9668 8.49609Z" fill="var(--color-tertiary)"/>
  <path d="M6.62109 7.41211L14.3457 7.41211C15.0293 7.41211 15.4492 6.99219 15.4492 6.2793L15.4492 4.9707C15.4492 4.25781 15.0293 3.83789 14.3457 3.83789L13.0859 3.83789C13.0176 2.4707 11.875 1.35742 10.4883 1.35742C9.0918 1.35742 7.94922 2.4707 7.88086 3.83789L6.62109 3.83789C5.9375 3.83789 5.51758 4.25781 5.51758 4.9707L5.51758 6.2793C5.51758 6.99219 5.9375 7.41211 6.62109 7.41211ZM10.4883 5.0293C9.86328 5.0293 9.36523 4.51172 9.36523 3.91602C9.36523 3.29102 9.86328 2.79297 10.4883 2.79297C11.1035 2.79297 11.6016 3.29102 11.6016 3.91602C11.6016 4.51172 11.1035 5.0293 10.4883 5.0293Z" fill="var(--color-tertiary)"/>
  <path d="M5.03906 15.0977C4.49219 15.0977 4.0332 14.6289 4.0332 14.082C4.0332 13.5352 4.49219 13.0762 5.03906 13.0762C5.5957 13.0762 6.05469 13.5254 6.05469 14.082C6.05469 14.6387 5.5957 15.0977 5.03906 15.0977ZM5.03906 19.7168C4.48242 19.7168 4.0332 19.2578 4.0332 18.7012C4.0332 18.1543 4.48242 17.7051 5.03906 17.7051C5.5957 17.7051 6.05469 18.1445 6.05469 18.7012C6.05469 19.2578 5.5957 19.7168 5.03906 19.7168ZM5.03906 24.5996C4.49219 24.5996 4.0332 24.1406 4.0332 23.584C4.0332 23.0469 4.49219 22.5781 5.03906 22.5781C5.5957 22.5781 6.05469 23.0371 6.05469 23.584C6.05469 24.1504 5.5957 24.5996 5.03906 24.5996ZM8.32031 14.7949C7.92969 14.7949 7.60742 14.4727 7.60742 14.082C7.60742 13.7012 7.92969 13.3691 8.32031 13.3691L16.2305 13.3691C16.6113 13.3691 16.9434 13.7012 16.9434 14.082C16.9434 14.4727 16.6113 14.7949 16.2305 14.7949ZM8.32031 19.4141C7.91992 19.4141 7.60742 19.1016 7.60742 18.7012C7.60742 18.3105 7.91992 17.998 8.32031 17.998L16.2305 17.998C16.6211 17.998 16.9434 18.3105 16.9434 18.7012C16.9434 19.1016 16.6211 19.4141 16.2305 19.4141ZM8.32031 24.3066C7.92969 24.3066 7.60742 23.9746 7.60742 23.584C7.60742 23.2031 7.91992 22.8906 8.32031 22.8906L16.2305 22.8906C16.6211 22.8906 16.9434 23.2031 16.9434 23.584C16.9434 23.9746 16.6113 24.3066 16.2305 24.3066Z" fill="var(--color-primary)"/>
 </g>
</svg>
