<svg version="1.1" xmlns="http://www.w3.org/2000/svg" xmlns:xlink="http://www.w3.org/1999/xlink" viewBox="0 0 29.6387 22.2949">
 <g>
  <rect height="22.2949" opacity="0" width="29.6387" x="0" y="0"/>
  <path d="M9.59961 22.2754L19.6777 22.2754C26.8164 22.2754 29.2773 19.6094 29.2773 13.0371L29.2773 9.23828C29.2773 2.66602 26.8164 0 19.6777 0L9.59961 0C2.46094 0 0 2.66602 0 9.23828L0 13.0371C0 19.6094 2.46094 22.2754 9.59961 22.2754Z" fill="var(--color-tertiary)"/>
  <path d="M7.71484 16.377C7.19727 16.377 6.9043 16.0449 6.9043 15.5078L6.9043 6.60156C6.9043 6.15234 7.28516 5.77148 7.73438 5.77148C8.17383 5.77148 8.55469 6.15234 8.55469 6.60156L8.55469 14.9707L11.4844 14.9707C11.8555 14.9707 12.1777 15.293 12.1777 15.6641C12.1777 16.0547 11.8555 16.377 11.4844 16.377ZM14.2969 16.543C13.8477 16.543 13.5547 16.2305 13.5547 15.752L13.5547 6.95312C13.5547 6.2207 14.0039 5.78125 14.7363 5.78125C15.3516 5.78125 15.7422 6.10352 15.9082 6.75781L17.8516 14.1895L17.9102 14.1895L19.8242 6.75781C19.9902 6.10352 20.3613 5.78125 21.0254 5.78125C21.748 5.78125 22.1973 6.19141 22.1973 6.95312L22.1973 15.752C22.1973 16.2305 21.9336 16.543 21.4453 16.543C20.9961 16.543 20.7129 16.2402 20.7129 15.752L20.7129 8.37891L20.6543 8.37891L18.7402 15.5664C18.623 16.0449 18.3691 16.3672 17.8809 16.3672C17.4023 16.3672 17.1289 16.0352 17.0215 15.5762L15.1074 8.37891L15.0391 8.37891L15.0391 15.752C15.0391 16.2305 14.7461 16.543 14.2969 16.543Z" fill="var(--color-primary)"/>
 </g>
</svg>
