<svg version="1.1" xmlns="http://www.w3.org/2000/svg" xmlns:xlink="http://www.w3.org/1999/xlink" viewBox="0 0 34.6484 23.4277">
 <g>
  <rect height="23.4277" opacity="0" width="34.6484" x="0" y="0"/>
  <path d="M2.06055 22.9688L19.0723 22.9688C20.3516 22.9688 21.1328 22.3535 21.1328 21.3574C21.1328 18.1152 17.0801 13.6426 10.5664 13.6426C4.05273 13.6426 0 18.1152 0 21.3574C0 22.3535 0.78125 22.9688 2.06055 22.9688ZM10.5762 11.3867C13.3008 11.3867 15.5859 8.96484 15.5859 5.83984C15.5859 2.7832 13.2812 0.449219 10.5762 0.449219C7.88086 0.449219 5.57617 2.82227 5.57617 5.85938C5.57617 8.96484 7.86133 11.3867 10.5762 11.3867Z" fill="var(--color-secondary)"/>
  <path d="M27.7539 10.498C28.1152 10.498 28.4473 10.3223 28.6621 9.99023L34.0234 1.55273C34.1406 1.37695 34.2871 1.11328 34.2871 0.869141C34.2871 0.341797 33.8184 0 33.3496 0C33.0469 0 32.7539 0.175781 32.5488 0.507812L27.7148 8.20312L25.3613 5.29297C25.0977 4.96094 24.834 4.84375 24.5312 4.84375C24.0234 4.84375 23.6328 5.25391 23.6328 5.76172C23.6328 5.98633 23.7305 6.25 23.8867 6.45508L26.8164 10C27.0898 10.3418 27.3828 10.498 27.7539 10.498ZM25.2051 22.9395C25.4492 22.9395 25.6641 22.8516 25.8398 22.6562L33.3398 15.1562C33.5352 14.9609 33.6133 14.7656 33.6133 14.5215C33.6133 14.0332 33.2227 13.6523 32.7148 13.6523C32.4902 13.6523 32.2949 13.7402 32.1094 13.9258L24.5801 21.4258C24.4043 21.5918 24.3164 21.8066 24.3164 22.0508C24.3164 22.5391 24.707 22.9395 25.2051 22.9395ZM32.7246 22.9395C33.2227 22.9395 33.6133 22.5391 33.6133 22.0508C33.6133 21.8066 33.5254 21.5918 33.3496 21.4258L25.8203 13.9258C25.6348 13.7402 25.4395 13.6523 25.2148 13.6523C24.707 13.6523 24.3164 14.0332 24.3164 14.5215C24.3164 14.7656 24.3945 14.9609 24.5898 15.1562L32.0898 22.6562C32.2656 22.8516 32.4805 22.9395 32.7246 22.9395Z" fill="var(--color-primary)"/>
 </g>
</svg>
