<svg version="1.1" xmlns="http://www.w3.org/2000/svg" xmlns:xlink="http://www.w3.org/1999/xlink" viewBox="0 0 29.2871 25.9863">
 <g>
  <rect height="25.9863" opacity="0" width="29.2871" x="0" y="0"/>
  <path d="M14.4629 24.1602C22.8223 24.1602 28.9258 19.082 28.9258 12.0801C28.9258 5.05859 22.8125 0 14.4629 0C6.10352 0 0 5.05859 0 12.0801C0 14.3945 0.673828 16.543 1.875 18.3008C2.48047 19.209 2.70508 19.8535 2.70508 20.4004C2.70508 21.123 2.46094 21.6602 1.875 22.1875C0.986328 22.9297 1.43555 24.1602 2.59766 24.1602C4.16016 24.1602 5.9082 23.584 7.1875 22.6953C9.30664 23.6523 11.7871 24.1602 14.4629 24.1602ZM14.4629 22.4316C12.0117 22.4316 9.80469 21.9629 7.94922 21.123C7.26562 20.8105 6.74805 20.8984 6.08398 21.2988C5.42969 21.7285 4.60938 22.0801 3.81836 22.1973C4.17969 21.709 4.43359 21.1621 4.43359 20.4004C4.43359 19.502 4.10156 18.5059 3.32031 17.3242C2.29492 15.8398 1.72852 14.043 1.72852 12.0801C1.72852 6.09375 7.00195 1.72852 14.4629 1.72852C21.9238 1.72852 27.1973 6.09375 27.1973 12.0801C27.1973 18.0566 21.9238 22.4316 14.4629 22.4316Z" fill="var(--color-secondary)"/>
  <path d="M14.2188 14.6582C14.7559 14.6582 15.0781 14.3164 15.0781 13.877C15.0781 13.8086 15.0781 13.7305 15.0781 13.6621C15.0781 12.9297 15.4785 12.4707 16.3867 11.8652C17.6367 11.0352 18.418 10.3027 18.418 8.87695C18.418 6.91406 16.6699 5.79102 14.5801 5.79102C12.4609 5.79102 11.084 6.8457 10.7812 8.03711C10.7227 8.23242 10.6934 8.41797 10.6934 8.62305C10.6934 9.11133 11.0742 9.38477 11.4453 9.38477C11.8262 9.38477 12.0703 9.19922 12.2461 8.91602L12.4219 8.65234C12.7734 7.83203 13.5156 7.26562 14.502 7.26562C15.752 7.26562 16.5527 7.95898 16.5527 8.96484C16.5527 9.82422 16.0449 10.2734 14.9121 11.0645C13.9648 11.7188 13.3594 12.3828 13.3594 13.5645C13.3594 13.6426 13.3594 13.7207 13.3594 13.7988C13.3594 14.3652 13.6719 14.6582 14.2188 14.6582ZM14.1895 18.3105C14.8633 18.3105 15.4297 17.7832 15.4297 17.1191C15.4297 16.4453 14.873 15.918 14.1895 15.918C13.5156 15.918 12.9492 16.4551 12.9492 17.1191C12.9492 17.7734 13.5254 18.3105 14.1895 18.3105Z" fill="var(--color-primary)"/>
 </g>
</svg>
