<svg version="1.1" xmlns="http://www.w3.org/2000/svg" xmlns:xlink="http://www.w3.org/1999/xlink" viewBox="0 0 23.2715 22.9004">
 <g>
  <rect height="22.9004" opacity="0" width="23.2715" x="0" y="0"/>
  <path d="M6.81641 22.9004L16.0938 22.9004C18.3105 22.9004 20.0293 22.2754 21.1523 21.1523C22.3047 20.0098 22.9102 18.291 22.9102 16.084L22.9102 6.81641C22.9102 4.60938 22.3145 2.90039 21.1523 1.74805C20.0195 0.605469 18.3105 0 16.0938 0L6.81641 0C4.59961 0 2.88086 0.625 1.75781 1.74805C0.605469 2.89062 0 4.60938 0 6.81641L0 16.084C0 18.291 0.595703 20 1.75781 21.1523C2.89062 22.2852 4.59961 22.9004 6.81641 22.9004Z" fill="var(--color-tertiary)"/>
  <path d="M11.1914 14.0918C10.625 14.0918 10.3027 13.7891 10.3027 13.2031C10.3027 13.125 10.3027 13.0469 10.3027 12.9688C10.3027 11.748 10.9375 11.0742 11.8945 10.4004C13.0566 9.58984 13.5742 9.13086 13.5742 8.25195C13.5742 7.22656 12.7539 6.52344 11.4941 6.52344C10.4883 6.52344 9.72656 7.08984 9.35547 7.92969L9.17969 8.20312C8.99414 8.48633 8.74023 8.68164 8.34961 8.68164C7.96875 8.68164 7.56836 8.39844 7.56836 7.90039C7.56836 7.68555 7.60742 7.49023 7.66602 7.29492C7.97852 6.07422 9.39453 4.99023 11.5625 4.99023C13.7109 4.99023 15.5078 6.14258 15.5078 8.16406C15.5078 9.62891 14.6973 10.3809 13.4277 11.2305C12.4902 11.8555 12.0898 12.3145 12.0898 13.0664C12.0898 13.1348 12.0898 13.2129 12.0898 13.2812C12.0898 13.7402 11.748 14.0918 11.1914 14.0918ZM11.1621 17.8418C10.4785 17.8418 9.88281 17.2852 9.88281 16.6113C9.88281 15.9277 10.4688 15.3711 11.1621 15.3711C11.8652 15.3711 12.4414 15.918 12.4414 16.6113C12.4414 17.2949 11.8555 17.8418 11.1621 17.8418Z" fill="var(--color-primary)"/>
 </g>
</svg>
