<svg version="1.1" xmlns="http://www.w3.org/2000/svg" xmlns:xlink="http://www.w3.org/1999/xlink" viewBox="0 0 40.2882 18.623">
 <g>
  <rect height="18.623" opacity="0" width="40.2882" x="0" y="0"/>
  <path d="M5.37845 18.623L6.93119 18.623C7.58548 18.623 7.91752 18.3105 8.11283 17.8223L15.0562 0.673828C15.2027 0.3125 15.0367 0.0195312 14.6656 0.0195312L13.9331 0.0195312C13.562 0.0195312 13.3277 0.185547 13.1714 0.507812L4.6265 17.4121C4.33353 17.9785 4.54837 18.623 5.37845 18.623ZM32.9859 18.623L34.5386 18.623C35.3687 18.623 35.5835 17.9785 35.2906 17.4121L26.7554 0.507812C26.5894 0.185547 26.355 0.0195312 25.9839 0.0195312L25.2515 0.0195312C24.8804 0.0195312 24.7144 0.3125 24.8609 0.673828L31.8042 17.8223C31.9995 18.3105 32.3316 18.623 32.9859 18.623Z" fill="var(--color-secondary)"/>
  <path d="M4.87064 10.4199C5.39798 10.7422 5.91556 10.498 5.91556 9.87305L5.91556 4.24805C5.91556 3.63281 5.40775 3.35938 4.88041 3.68164L0.388218 6.43555C-0.119594 6.74805-0.139126 7.37305 0.388218 7.68555ZM35.0562 10.4199L39.5386 7.68555C40.0562 7.36328 40.0464 6.75781 39.5386 6.43555L35.0464 3.68164C34.5093 3.36914 34.0113 3.63281 34.0113 4.24805L34.0113 9.87305C34.0113 10.498 34.5191 10.7324 35.0562 10.4199Z" fill="var(--color-primary)"/>
 </g>
</svg>
