<svg version="1.1" xmlns="http://www.w3.org/2000/svg" xmlns:xlink="http://www.w3.org/1999/xlink" viewBox="0 0 28.2031 24.3262">
 <g>
  <rect height="24.3262" opacity="0" width="28.2031" x="0" y="0"/>
  <path d="M19.7559 24.3262C20.7227 24.3262 21.5039 23.5449 21.5039 22.5879C21.5039 21.6211 20.7227 20.8398 19.7559 20.8398C18.7988 20.8398 18.0176 21.6211 18.0176 22.5879C18.0176 23.5449 18.7988 24.3262 19.7559 24.3262Z" fill="var(--color-primary)"/>
  <path d="M13.9258 24.3262C14.8828 24.3262 15.6641 23.5449 15.6641 22.5879C15.6641 21.6211 14.8828 20.8398 13.9258 20.8398C12.959 20.8398 12.1777 21.6211 12.1777 22.5879C12.1777 23.5449 12.959 24.3262 13.9258 24.3262Z" fill="var(--color-primary)"/>
  <path d="M8.08594 24.3262C9.05273 24.3262 9.83398 23.5449 9.83398 22.5879C9.83398 21.6211 9.04297 20.8398 8.08594 20.8398C7.12891 20.8398 6.34766 21.6211 6.34766 22.5879C6.34766 23.5449 7.12891 24.3262 8.08594 24.3262Z" fill="var(--color-primary)"/>
  <path d="M13.9258 10.625C20.625 10.625 27.6367 8.31055 27.6367 5.53711C27.6367 2.79297 21.5039 0.576172 13.9258 0.576172C6.33789 0.576172 0.205078 2.79297 0.205078 5.53711C0.205078 8.31055 7.22656 10.625 13.9258 10.625ZM4.87305 16.5234C5.16602 16.6211 5.36133 16.4746 5.36133 16.1816L5.36133 15.0195C5.36133 14.5312 5.74219 14.2676 6.19141 14.3945C8.74023 15.127 11.6211 15.3906 13.9941 15.3906C16.3867 15.3906 19.248 15.127 21.7969 14.3945C22.2461 14.2676 22.6367 14.5312 22.6367 15.0195L22.6367 16.123C22.6367 16.4355 22.8223 16.5723 23.125 16.4746C26.0059 15.4688 27.8418 13.8965 27.8418 11.9238L27.8418 7.91992C26.084 10.1074 20.4785 11.9824 13.9258 11.9824C7.46094 11.9824 1.75781 10.1074 0 7.91992L0 11.9238C0 13.9355 1.9043 15.5176 4.87305 16.5234ZM13.9258 5.64453C11.5039 5.64453 10.0684 5.00977 10.0684 4.04297C10.0684 3.0957 11.4746 2.43164 13.9258 2.43164C16.377 2.43164 17.7832 3.0957 17.7832 4.04297C17.7832 5.00977 16.3477 5.64453 13.9258 5.64453ZM13.9258 4.72656C15.4883 4.72656 16.4355 4.42383 16.4355 4.04297C16.4355 3.67188 15.5859 3.33984 13.9258 3.33984C12.2559 3.33984 11.4062 3.67188 11.4062 4.04297C11.4062 4.42383 12.3535 4.72656 13.9258 4.72656ZM9.60938 8.35938C8.89648 8.35938 8.31055 8.07617 8.31055 7.72461C8.31055 7.37305 8.89648 7.08984 9.60938 7.08984C10.3223 7.08984 10.9082 7.37305 10.9082 7.72461C10.9082 8.07617 10.3223 8.35938 9.60938 8.35938ZM13.9258 8.85742C13.2227 8.85742 12.627 8.56445 12.627 8.21289C12.627 7.87109 13.2227 7.57812 13.9258 7.57812C14.6289 7.57812 15.2246 7.87109 15.2246 8.21289C15.2246 8.56445 14.6289 8.85742 13.9258 8.85742ZM18.2422 8.35938C17.5293 8.35938 16.9434 8.07617 16.9434 7.72461C16.9434 7.37305 17.5293 7.08984 18.2422 7.08984C18.9551 7.08984 19.541 7.37305 19.541 7.72461C19.541 8.07617 18.9551 8.35938 18.2422 8.35938Z" fill="var(--color-primary)"/>
 </g>
</svg>
