<svg version="1.1" xmlns="http://www.w3.org/2000/svg" xmlns:xlink="http://www.w3.org/1999/xlink" viewBox="0 0 36.7383 27.2754">
 <g>
  <rect height="27.2754" opacity="0" width="36.7383" x="0" y="0"/>
  <path d="M35.7324 8.67188L35.7324 18.6328C35.7324 20.2637 35.1758 20.9082 34.0723 21.5332L24.0918 27.1582C24.0039 27.207 23.916 27.2559 23.8281 27.2754L23.8281 14.4824L35.6445 7.80273C35.7031 8.04688 35.7324 8.32031 35.7324 8.67188ZM22.2656 14.4824L22.2656 27.2754C22.1777 27.2559 22.0898 27.207 22.002 27.1582L12.0215 21.5332C10.918 20.9082 10.3613 20.2637 10.3613 18.6328L10.3613 15.9042L14.7266 15.9082C15.1758 15.9082 15.5566 15.5176 15.5566 15.0586C15.5566 14.5898 15.1758 14.1992 14.7266 14.1992L10.3613 14.2032L10.3613 8.67188C10.3613 8.32031 10.3906 8.04688 10.459 7.80273ZM28.4961 10.0488L23.0469 13.1152L11.1719 6.41602C11.3379 6.25 11.543 6.10352 11.8164 5.95703L16.5234 3.29102ZM25.1074 0.751953L34.2871 5.95703C34.5605 6.10352 34.7559 6.25 34.9219 6.41602L30.0879 9.15039L18.0957 2.39258L20.9961 0.751953C21.6895 0.351562 22.373 0.146484 23.0469 0.146484C23.7207 0.146484 24.4043 0.351562 25.1074 0.751953Z" fill="var(--color-tertiary)"/>
  <path d="M0 15.0586C0 14.834 0.0683594 14.6484 0.283203 14.4336L4.3457 10.2441C4.51172 10.0879 4.6875 9.99023 4.91211 9.99023C5.35156 9.99023 5.67383 10.3223 5.67383 10.7715C5.67383 10.9766 5.58594 11.2109 5.41016 11.3672L3.18359 13.4863L1.54297 15.0488L3.18359 16.6113L5.41016 18.7402C5.58594 18.8867 5.67383 19.1113 5.67383 19.3262C5.67383 19.7656 5.35156 20.1074 4.91211 20.1074C4.6875 20.1074 4.51172 20.0195 4.3457 19.8535L0.283203 15.6738C0.0683594 15.459 0 15.2734 0 15.0586ZM15.5566 15.0586C15.5566 15.5176 15.1758 15.9082 14.7266 15.9082L3.96484 15.8984L1.66992 15.8301C1.24023 15.8203 0.888672 15.4785 0.888672 15.0586C0.888672 14.6289 1.23047 14.2871 1.66016 14.2773L3.96484 14.209L14.7266 14.1992C15.1758 14.1992 15.5566 14.5898 15.5566 15.0586Z" fill="var(--color-primary)"/>
 </g>
</svg>
