<svg version="1.1" xmlns="http://www.w3.org/2000/svg" xmlns:xlink="http://www.w3.org/1999/xlink" viewBox="0 0 42.4656 27.2871">
 <g>
  <rect height="27.2871" opacity="0" width="42.4656" x="0" y="0"/>
  <path d="M35.5004 22.9648L16.4769 11.9785C13.8793 10.4844 12.8539 9.49805 11.8382 7.90626L9.5238 4.31251C8.37145 2.4668 8.5863 1.01172 9.67028 0.611333C10.5882 0.152349 12.1507-0.0527291 13.8011 0.894536C14.973 1.57813 17.3754 3.53126 18.3812 4.10743C19.1429 4.54688 19.4847 4.70313 20.266 4.75196L20.6468 8.30665C20.6957 8.67774 21.0082 8.92188 21.3793 8.85352C21.7211 8.79493 21.9359 8.50196 21.8968 8.1211L21.5648 4.78126L23.5082 4.76172L23.8695 8.52149C23.9086 8.91211 24.2211 9.13672 24.6117 9.0586C24.9535 9.01954 25.1781 8.73633 25.139 8.33594L24.7875 4.77149L26.7308 4.76172L27.1215 8.76563C27.1605 9.11719 27.5121 9.35157 27.8539 9.31251C28.2054 9.26368 28.43 8.91211 28.391 8.58008L28.0199 4.74219L28.8207 4.75196C31.5257 4.75196 33.264 5.95313 33.6547 8.84376C33.9867 11.1973 34.8949 12.6523 36.2523 13.4434C37.4535 14.127 38.391 14.3809 39.514 14.4688C41.4672 14.6543 42.7953 16.3828 41.7211 18.2578L38.8207 23.2773C38.7523 23.3848 38.6937 23.4824 38.6254 23.5801C37.5902 23.8731 36.7601 23.6875 35.5004 22.9648ZM8.43981 4.9961L10.7543 8.56055C11.9359 10.416 13.1566 11.5488 15.8324 13.0918L34.8558 24.0781C35.8226 24.6348 36.5843 24.8984 37.6781 24.8106C35.9398 26.5586 33.9281 26.2949 32.2093 25.2988L14.7582 15.2305C11.4476 13.3164 9.78747 11.666 7.95153 8.60938C6.50622 6.19727 6.37927 4.22461 7.34606 2.54493C7.46325 2.35938 7.58044 2.1836 7.69762 2.02735C7.47302 2.91602 7.6488 3.7461 8.43981 4.9961Z" fill="var(--color-secondary)"/>
  <path d="M0.685906 13.9219L5.97887 14.8691C6.75036 14.9863 7.05309 14.4785 6.74059 13.7852L4.76794 9.60547C4.4945 9.01954 3.96716 8.95118 3.51794 9.4004L0.324578 12.6816C-0.193 13.1797-0.105109 13.7852 0.685906 13.9219ZM6.28161 21.3926L1.057 22.7109C0.256219 22.8965 0.236687 23.4922 0.764031 23.9707L4.19177 27.0176C4.66052 27.4766 5.15856 27.3301 5.42223 26.7246L7.10192 22.4277C7.38512 21.7051 7.03356 21.207 6.28161 21.3926ZM4.22106 14.3027C4.4945 13.1406 2.73669 12.7207 2.43395 14.0098C1.70153 17.3008 2.19958 20.8066 2.9613 23.4141C3.35192 24.7715 5.0902 24.2344 4.72887 22.9941C3.98669 20.4648 3.53747 17.2617 4.22106 14.3027Z" fill="var(--color-primary)"/>
 </g>
</svg>
