<svg version="1.1" xmlns="http://www.w3.org/2000/svg" xmlns:xlink="http://www.w3.org/1999/xlink" viewBox="0 0 25.8008 25.459">
 <g>
  <rect height="25.459" opacity="0" width="25.8008" x="0" y="0"/>
  <path d="M12.7148 25.4395C19.7266 25.4395 25.4395 19.7266 25.4395 12.7246C25.4395 5.71289 19.7266 0 12.7148 0C5.71289 0 0 5.71289 0 12.7246C0 19.7266 5.71289 25.4395 12.7148 25.4395Z" fill="var(--color-tertiary)"/>
  <path d="M16.7285 7.05078L16.7285 11.2988C16.7285 11.6504 16.9531 11.875 17.2754 11.875C17.4512 11.875 17.6074 11.8066 17.7344 11.6992L20.293 9.63867C20.5859 9.39453 20.5957 8.97461 20.3125 8.73047L17.7246 6.63086C17.5977 6.5332 17.4414 6.48438 17.2754 6.48438C16.9434 6.48438 16.7285 6.69922 16.7285 7.05078ZM17.207 9.91211C17.5684 9.91211 17.8711 9.60938 17.8711 9.23828C17.8711 8.85742 17.5684 8.55469 17.207 8.55469L15.5371 8.55469C14.3945 8.55469 13.6914 8.89648 12.8516 9.87305L8.80859 14.6191C8.22266 15.3125 7.79297 15.5371 7.10938 15.5371L5.53711 15.5371C5.12695 15.5371 4.81445 15.8301 4.81445 16.2109C4.81445 16.6016 5.10742 16.8848 5.53711 16.8848L7.08984 16.8848C8.23242 16.8848 8.93555 16.543 9.77539 15.5762L13.8281 10.8301C14.3945 10.1465 14.8145 9.91211 15.5762 9.91211ZM16.7383 18.457C16.7383 18.7988 16.9531 19.0137 17.2852 19.0137C17.4512 19.0137 17.6074 18.9648 17.7344 18.8672L20.3223 16.7676C20.6055 16.5234 20.5957 16.1035 20.3125 15.8594L17.7441 13.7988C17.6172 13.6914 17.4609 13.623 17.2852 13.623C16.9629 13.623 16.7383 13.8477 16.7383 14.1992ZM17.2168 15.5859L15.5859 15.5859C14.8242 15.5859 14.4043 15.3516 13.8379 14.668L9.78516 9.92188C8.94531 8.94531 8.24219 8.61328 7.09961 8.61328L5.54688 8.61328C5.11719 8.61328 4.82422 8.89648 4.82422 9.28711C4.82422 9.66797 5.13672 9.96094 5.54688 9.96094L7.12891 9.96094C7.80273 9.96094 8.23242 10.1855 8.81836 10.8789L12.8613 15.625C13.7012 16.6016 14.4043 16.9434 15.5469 16.9434L17.2168 16.9434C17.5879 16.9434 17.8906 16.6406 17.8906 16.2598C17.8906 15.8887 17.5879 15.5859 17.2168 15.5859Z" fill="var(--color-primary)"/>
 </g>
</svg>
