<svg version="1.1" xmlns="http://www.w3.org/2000/svg" xmlns:xlink="http://www.w3.org/1999/xlink" viewBox="0 0 29.9512 22.959">
 <g>
  <rect height="22.959" opacity="0" width="29.9512" x="0" y="0"/>
  <path d="M18.457 21.582L20.1465 21.582L20.1465 1.37695L18.457 1.37695ZM5.08789 22.959L24.7461 22.959C27.8027 22.959 29.5898 21.0938 29.5898 17.8809L29.5898 5.08789C29.5898 1.86523 27.8027 0 24.7461 0L5.08789 0C1.86523 0 0 1.86523 0 5.08789L0 17.8809C0 21.0938 1.86523 22.959 5.08789 22.959ZM5.09766 21.2305C2.97852 21.2305 1.72852 19.9805 1.72852 17.8613L1.72852 5.09766C1.72852 2.97852 2.97852 1.72852 5.09766 1.72852L24.4922 1.72852C26.6113 1.72852 27.8516 2.97852 27.8516 5.09766L27.8516 17.8613C27.8516 19.9805 26.6113 21.2305 24.4922 21.2305ZM25.2441 7.83203C25.5566 7.83203 25.7812 7.61719 25.7812 7.31445L25.7812 4.86328C25.7812 4.54102 25.5664 4.33594 25.2441 4.33594L22.7734 4.33594C22.4707 4.33594 22.2559 4.54102 22.2559 4.86328L22.2559 7.31445C22.2559 7.61719 22.4805 7.83203 22.7734 7.83203ZM25.2441 13.2324C25.5566 13.2324 25.7812 13.0078 25.7812 12.7148L25.7812 10.2539C25.7812 9.95117 25.5664 9.7168 25.2441 9.7168L22.7734 9.7168C22.4707 9.7168 22.2559 9.95117 22.2559 10.2539L22.2559 12.7148C22.2559 13.0078 22.4805 13.2324 22.7734 13.2324ZM25.2441 18.6133C25.5566 18.6133 25.7812 18.3984 25.7812 18.0957L25.7812 15.6445C25.7812 15.332 25.5664 15.1172 25.2441 15.1172L22.7734 15.1172C22.4707 15.1172 22.2559 15.332 22.2559 15.6445L22.2559 18.0957C22.2559 18.3984 22.4805 18.6133 22.7734 18.6133Z" fill="var(--color-primary)"/>
 </g>
</svg>
