<svg version="1.1" xmlns="http://www.w3.org/2000/svg" xmlns:xlink="http://www.w3.org/1999/xlink" viewBox="0 0 25.8105 25.4785">
 <g>
  <rect height="25.4785" opacity="0" width="25.8105" x="0" y="0"/>
  <path d="M12.7148 25.4492C19.7363 25.4492 25.4492 19.7559 25.4492 12.7344C25.4492 5.71289 19.7363 0 12.7148 0C5.69336 0 0 5.71289 0 12.7344C0 19.7559 5.69336 25.4492 12.7148 25.4492ZM12.7148 23.623C6.69922 23.623 1.67969 18.75 1.67969 12.7344C1.67969 6.71875 6.69922 1.83594 12.7148 1.83594C18.7305 1.83594 23.8184 6.97266 23.8184 12.7344C23.8184 18.457 18.7305 23.623 12.7148 23.623ZM6.02539 19.0625C9.56055 19.0625 12.3535 17.0605 14.7363 15L13.5254 13.8574C11.3184 15.7617 8.94531 17.4316 6.02539 17.4316C3.34961 17.4316 1.67969 15.5664 1.67969 12.7344C1.67969 9.83398 3.28125 8.02734 6.02539 8.02734C9.00391 8.02734 11.416 10.3516 13.8574 12.6758C16.2402 14.9707 18.5938 17.2949 21.4648 17.2949C23.7695 17.2949 25.4492 15.459 25.4492 12.7344C25.4492 10.498 23.7207 8.81836 21.4551 8.81836C19.7266 8.81836 18.1543 9.85352 16.3867 11.3574L17.5977 12.5195C19.3066 11.084 20.3418 10.4492 21.4551 10.4492C22.8418 10.4492 23.8184 11.4258 23.8184 12.8125C23.8184 14.4922 22.793 15.6641 21.3281 15.6641C19.2969 15.6641 17.4023 13.8477 15.166 11.6699C12.6367 9.22852 9.74609 6.39648 6.02539 6.39648C2.42188 6.39648 0 8.94531 0 12.7344C0 16.4062 2.53906 19.0625 6.02539 19.0625Z" fill="var(--color-primary)"/>
 </g>
</svg>
