<svg version="1.1" xmlns="http://www.w3.org/2000/svg" xmlns:xlink="http://www.w3.org/1999/xlink" viewBox="0 0 22.4512 33.252">
 <g>
  <rect height="33.252" opacity="0" width="22.4512" x="0" y="0"/>
  <path d="M22.0898 15.0977L22.0898 24.7363C22.0898 28.0762 20.2344 29.9414 16.8848 29.9414L5.20508 29.9414C1.85547 29.9414 0 28.0762 0 24.7363L0 15.0977C0 11.7578 1.85547 9.89258 5.20508 9.89258L7.98828 9.89258L7.98828 11.6309L5.19531 11.6309C2.97852 11.6309 1.72852 12.8711 1.72852 15.0879L1.72852 24.7363C1.72852 26.9629 2.97852 28.2129 5.19531 28.2129L16.8848 28.2129C19.1113 28.2129 20.3613 26.9629 20.3613 24.7363L20.3613 15.0879C20.3613 12.8711 19.1113 11.6309 16.8848 11.6309L14.1016 11.6309L14.1016 9.89258L16.8848 9.89258C20.2344 9.89258 22.0898 11.7578 22.0898 15.0977Z" fill="var(--color-secondary)"/>
  <path d="M11.8282 4.37223L11.9043 6.24023L11.9043 19.3457C11.9043 19.8047 11.5039 20.1855 11.0449 20.1855C10.5859 20.1855 10.1855 19.8047 10.1855 19.3457L10.1855 6.24023L10.2617 4.37223L11.0449 3.54492Z" fill="var(--color-primary)"/>
  <path d="M6.75781 7.68555C6.96289 7.68555 7.19727 7.59766 7.35352 7.42188L9.48242 5.19531L11.0449 3.54492L12.6074 5.19531L14.7266 7.42188C14.8828 7.59766 15.1074 7.68555 15.3125 7.68555C15.7617 7.68555 16.1035 7.36328 16.1035 6.92383C16.1035 6.69922 16.0059 6.52344 15.8496 6.35742L11.6699 2.29492C11.4551 2.08008 11.2598 2.01172 11.0449 2.01172C10.8301 2.01172 10.6348 2.08008 10.4199 2.29492L6.24023 6.35742C6.07422 6.52344 5.98633 6.69922 5.98633 6.92383C5.98633 7.36328 6.30859 7.68555 6.75781 7.68555Z" fill="var(--color-primary)"/>
 </g>
</svg>
