<svg version="1.1" xmlns="http://www.w3.org/2000/svg" xmlns:xlink="http://www.w3.org/1999/xlink" viewBox="0 0 25.8008 25.459">
 <g>
  <rect height="25.459" opacity="0" width="25.8008" x="0" y="0"/>
  <path d="M12.7148 25.4395C19.7266 25.4395 25.4395 19.7266 25.4395 12.7246C25.4395 5.71289 19.7266 0 12.7148 0C5.71289 0 0 5.71289 0 12.7246C0 19.7266 5.71289 25.4395 12.7148 25.4395Z" fill="var(--color-tertiary)"/>
  <path d="M9.76562 10.0879C8.69141 10.0879 7.93945 10.8496 7.93945 11.9141L7.93945 16.2402L5.72266 16.2402L5.72266 9.56055C5.72266 8.59375 6.37695 7.91016 7.35352 7.91016L7.75391 7.91016L7.75391 6.07422C7.75391 5.24414 8.28125 4.7168 9.16016 4.7168L11.582 4.7168C12.4121 4.7168 12.9297 5.24414 12.9297 6.07422L12.9297 7.91016L13.3301 7.91016C14.2871 7.91016 14.9512 8.59375 14.9512 9.56055L14.9512 10.0879ZM8.69141 7.91016L12.002 7.91016L12.002 6.06445C12.002 5.78125 11.8164 5.61523 11.543 5.61523L9.18945 5.61523C8.87695 5.61523 8.69141 5.78125 8.69141 6.06445ZM7.93945 18.5547C7.93945 18.9258 8.01758 19.248 8.17383 19.5215L7.35352 19.5215C6.37695 19.5215 5.72266 18.8379 5.72266 17.8613L5.72266 17.207L7.93945 17.207ZM18.7891 10.9473C19.3848 10.9473 19.7559 11.3281 19.7559 11.9141L19.7559 18.5547C19.7559 19.1504 19.3848 19.5215 18.7891 19.5215L9.82422 19.5215C9.21875 19.5215 8.85742 19.1504 8.85742 18.5547L8.85742 11.9141C8.85742 11.3281 9.21875 10.9473 9.82422 10.9473ZM9.74609 12.7051L10.4199 12.7051C10.5078 12.7051 10.5664 12.627 10.5664 12.5488L10.5664 11.9434C10.5664 11.8457 10.5078 11.7871 10.4199 11.7871L9.77539 11.7871C9.6582 11.7871 9.58984 11.8457 9.58984 11.9629L9.58984 12.5488C9.58984 12.6172 9.6582 12.7051 9.74609 12.7051ZM9.74609 14.1895L10.4199 14.1895C10.5078 14.1895 10.5664 14.1309 10.5664 14.0625L10.5664 13.457C10.5664 13.3691 10.5078 13.3008 10.4199 13.3008L9.74609 13.3008C9.64844 13.3008 9.58984 13.3691 9.58984 13.457L9.58984 14.0625C9.58984 14.1309 9.6582 14.1895 9.74609 14.1895ZM9.74609 15.6836L10.4199 15.6836C10.5078 15.6836 10.5664 15.6152 10.5664 15.5273L10.5664 14.9512C10.5664 14.8535 10.5078 14.7949 10.4199 14.7949L9.74609 14.7949C9.64844 14.7949 9.58984 14.8438 9.58984 14.9512L9.58984 15.5273C9.58984 15.6055 9.6582 15.6836 9.74609 15.6836ZM9.74609 17.168L10.4199 17.168C10.5078 17.168 10.5664 17.1094 10.5664 17.0312L10.5664 16.4355C10.5664 16.3379 10.5078 16.2891 10.4199 16.2891L9.74609 16.2891C9.64844 16.2891 9.58984 16.3379 9.58984 16.4355L9.58984 17.0312C9.58984 17.0996 9.6582 17.168 9.74609 17.168ZM9.77539 18.6816L10.4199 18.6816C10.5078 18.6816 10.5664 18.623 10.5664 18.5352L10.5664 17.9395C10.5664 17.8516 10.5078 17.793 10.4199 17.793L9.74609 17.793C9.6582 17.793 9.58984 17.8516 9.58984 17.9395L9.58984 18.5156C9.58984 18.6133 9.6582 18.6816 9.77539 18.6816ZM18.1348 12.7051L18.8086 12.7051C18.9062 12.7051 18.9551 12.627 18.9551 12.5488L18.9551 11.9629C18.9551 11.8555 18.8965 11.7871 18.7793 11.7871L18.1348 11.7871C18.0566 11.7871 17.998 11.8457 17.998 11.9434L17.998 12.5488C17.998 12.6172 18.0566 12.7051 18.1348 12.7051ZM18.1348 14.1895L18.8086 14.1895C18.9062 14.1895 18.9551 14.1309 18.9551 14.0625L18.9551 13.457C18.9551 13.3691 18.916 13.3008 18.8086 13.3008L18.1348 13.3008C18.0566 13.3008 17.998 13.3691 17.998 13.457L17.998 14.0625C17.998 14.1309 18.0566 14.1895 18.1348 14.1895ZM18.1348 15.6836L18.8086 15.6836C18.9062 15.6836 18.9551 15.6152 18.9551 15.5273L18.9551 14.9512C18.9551 14.8438 18.916 14.7949 18.8086 14.7949L18.1348 14.7949C18.0566 14.7949 17.998 14.8535 17.998 14.9512L17.998 15.5273C17.998 15.6055 18.0566 15.6836 18.1348 15.6836ZM18.1348 17.168L18.8086 17.168C18.9062 17.168 18.9551 17.1094 18.9551 17.0312L18.9551 16.4355C18.9551 16.3379 18.916 16.2891 18.8086 16.2891L18.1348 16.2891C18.0469 16.2891 17.998 16.3379 17.998 16.4355L17.998 17.0312C17.998 17.0996 18.0566 17.168 18.1348 17.168ZM18.1348 18.6816L18.7793 18.6816C18.9062 18.6816 18.9551 18.6133 18.9551 18.5156L18.9551 17.9395C18.9551 17.8516 18.9062 17.793 18.8086 17.793L18.1348 17.793C18.0566 17.793 17.998 17.8516 17.998 17.9395L17.998 18.5352C17.998 18.623 18.0469 18.6816 18.1348 18.6816ZM11.3867 16.2207C11.3867 16.3184 11.416 16.3574 11.5332 16.3574L17.0801 16.3574C17.1875 16.3574 17.2266 16.3184 17.2266 16.2207L17.2266 13.457C17.2266 13.3691 17.1875 13.3301 17.0801 13.3301L11.5332 13.3301C11.416 13.3301 11.3867 13.3691 11.3867 13.457ZM11.3867 17.002C11.3867 17.0996 11.416 17.1289 11.5332 17.1289L17.0801 17.1289C17.1875 17.1289 17.2266 17.0996 17.2266 17.002L17.2266 14.2578C17.2266 14.1699 17.1875 14.1309 17.0801 14.1309L11.5332 14.1309C11.4258 14.1309 11.3867 14.1699 11.3867 14.2578Z" fill="var(--color-primary)"/>
 </g>
</svg>
