<svg version="1.1" xmlns="http://www.w3.org/2000/svg" xmlns:xlink="http://www.w3.org/1999/xlink" viewBox="0 0 25.8008 25.459">
 <g>
  <rect height="25.459" opacity="0" width="25.8008" x="0" y="0"/>
  <path d="M12.7148 25.4395C19.7363 25.4395 25.4395 19.7461 25.4395 12.7246C25.4395 5.70312 19.7363 0 12.7148 0C5.69336 0 0 5.70312 0 12.7246C0 19.7461 5.69336 25.4395 12.7148 25.4395ZM12.7148 23.623C6.68945 23.623 1.81641 18.75 1.81641 12.7246C1.81641 6.69922 6.68945 1.82617 12.7148 1.82617C18.7402 1.82617 23.6133 6.69922 23.6133 12.7246C23.6133 18.75 18.7402 23.623 12.7148 23.623Z" fill="var(--color-secondary)"/>
  <path d="M6.77734 16.1719L8.78906 16.1719L8.78906 13.7695C8.78906 12.4609 9.60938 11.6699 10.9082 11.6699L11.5234 11.6699C11.709 10.625 12.4707 10.1367 13.4277 10.1367L15.1758 10.1367C15.2832 10.1367 15.4004 10.1367 15.498 10.1562L15.498 9.82422C15.498 8.91602 14.873 8.28125 13.9746 8.28125L13.5938 8.28125L13.5938 6.5332C13.5938 5.73242 13.0957 5.24414 12.3047 5.24414L10.0098 5.24414C9.20898 5.24414 8.70117 5.73242 8.70117 6.5332L8.70117 8.28125L8.30078 8.28125C7.38281 8.28125 6.77734 8.91602 6.77734 9.82422ZM9.57031 8.28125L9.57031 6.52344C9.57031 6.25977 9.75586 6.08398 10.0391 6.08398L12.2754 6.08398C12.5391 6.08398 12.7246 6.25977 12.7246 6.52344L12.7246 8.28125ZM8.30078 19.2676L9.14062 19.2676C8.91602 18.9258 8.78906 18.4961 8.78906 17.998L8.78906 17.0801L6.77734 17.0801L6.77734 17.7051C6.77734 18.623 7.38281 19.2676 8.30078 19.2676ZM10.9082 19.2578L11.2109 19.2578L11.2109 12.5098L10.9082 12.5098C10.0586 12.5098 9.62891 12.9297 9.62891 13.7695L9.62891 17.998C9.62891 18.8379 10.0586 19.2578 10.9082 19.2578ZM11.9824 19.2578L17.0215 19.2578L17.0215 12.5098L16.7188 12.5098L16.7188 12.0996C16.7188 11.3477 16.2891 10.9766 15.5664 10.9766L13.4277 10.9766C12.7344 10.9766 12.2852 11.3477 12.2852 12.0996L12.2852 12.5098L11.9824 12.5098ZM13.0273 12.5098L13.0273 12.0801C13.0273 11.8262 13.1738 11.6895 13.457 11.6895L15.5566 11.6895C15.8301 11.6895 15.9766 11.8262 15.9766 12.0801L15.9766 12.5098ZM17.793 19.2578L18.0957 19.2578C18.9453 19.2578 19.3652 18.8379 19.3652 17.998L19.3652 13.7695C19.3652 12.9297 18.9453 12.5098 18.0957 12.5098L17.793 12.5098Z" fill="var(--color-primary)"/>
 </g>
</svg>
