<svg version="1.1" xmlns="http://www.w3.org/2000/svg" xmlns:xlink="http://www.w3.org/1999/xlink" viewBox="0 0 29.9512 22.959">
 <g>
  <rect height="22.959" opacity="0" width="29.9512" x="0" y="0"/>
  <path d="M5.08789 22.959L24.7461 22.959C27.8027 22.959 29.5898 21.0938 29.5898 17.8809L29.5898 5.08789C29.5898 1.86523 27.8027 0 24.7461 0L5.08789 0C1.86523 0 0 1.86523 0 5.08789L0 17.8809C0 21.0938 1.86523 22.959 5.08789 22.959ZM5.09766 21.2305C2.97852 21.2305 1.72852 19.9805 1.72852 17.8613L1.72852 5.09766C1.72852 2.97852 2.97852 1.72852 5.09766 1.72852L24.4922 1.72852C26.6113 1.72852 27.8516 2.97852 27.8516 5.09766L27.8516 17.8613C27.8516 19.9805 26.6113 21.2305 24.4922 21.2305Z" fill="var(--color-primary)"/>
  <path d="M23.8379 17.7637C24.8633 17.7637 25.5469 17.0703 25.5469 16.0254C25.5469 15.0195 24.8633 14.3457 23.8379 14.3457L23.1445 14.3457L23.1445 12.8418L23.8379 12.8418C24.8633 12.8418 25.5469 12.1777 25.5469 11.1621C25.5469 10.1367 24.8633 9.44336 23.8379 9.44336C22.8125 9.44336 22.1484 10.1367 22.1484 11.1621L22.1484 11.8457L20.7031 11.8457L20.7031 11.1621C20.7031 10.1367 20.0391 9.44336 19.0137 9.44336C17.9883 9.44336 17.2949 10.1367 17.2949 11.1621C17.2949 12.1777 17.9883 12.8418 19.0137 12.8418L19.6973 12.8418L19.6973 14.3457L19.0137 14.3457C17.9883 14.3457 17.2949 15.0195 17.2949 16.0254C17.2949 17.0703 17.9883 17.7637 19.0137 17.7637C20.0391 17.7637 20.7031 17.0703 20.7031 16.0254L20.7031 15.3516L22.1484 15.3516L22.1484 16.0254C22.1484 17.0703 22.8125 17.7637 23.8379 17.7637ZM23.1445 15.332L23.8379 15.332C24.2676 15.332 24.5508 15.6152 24.5508 16.0254C24.5508 16.4648 24.2676 16.7578 23.8379 16.7578C23.418 16.7578 23.1445 16.4648 23.1445 16.0254ZM19.6973 15.332L19.6973 16.0254C19.6973 16.4453 19.4141 16.7578 19.0137 16.7578C18.5742 16.7578 18.3008 16.4648 18.3008 16.0254C18.3008 15.6152 18.5742 15.332 19.0137 15.332ZM22.1484 14.3652L20.7031 14.3652L20.7031 12.8418L22.1484 12.8418ZM23.1445 11.8652L23.1445 11.1621C23.1445 10.7227 23.418 10.4395 23.8379 10.4395C24.2676 10.4395 24.5508 10.7227 24.5508 11.1621C24.5508 11.582 24.2676 11.8652 23.8379 11.8652ZM19.6973 11.8652L19.0137 11.8652C18.5742 11.8652 18.3008 11.582 18.3008 11.1621C18.3008 10.7227 18.5742 10.4395 19.0137 10.4395C19.4238 10.4395 19.6973 10.7227 19.6973 11.1621ZM4.6875 10.4688C4.6875 10.8301 4.98047 11.123 5.33203 11.123L13.3301 11.123C13.6816 11.123 13.9746 10.8301 13.9746 10.4688C13.9746 10.0977 13.6816 9.80469 13.3301 9.80469L5.33203 9.80469C4.98047 9.80469 4.6875 10.0977 4.6875 10.4688ZM4.6875 13.6035C4.6875 13.9648 4.98047 14.2578 5.33203 14.2578L13.3301 14.2578C13.6816 14.2578 13.9746 13.9648 13.9746 13.6035C13.9746 13.2422 13.6816 12.9492 13.3301 12.9492L5.33203 12.9492C4.98047 12.9492 4.6875 13.2422 4.6875 13.6035ZM4.6875 16.7383C4.6875 17.1094 4.98047 17.4023 5.33203 17.4023L13.3301 17.4023C13.6816 17.4023 13.9746 17.1094 13.9746 16.7383C13.9746 16.377 13.6816 16.084 13.3301 16.084L5.33203 16.084C4.98047 16.084 4.6875 16.377 4.6875 16.7383ZM5.29297 6.2207C5.86914 6.2207 6.33789 5.72266 6.33789 5.17578C6.33789 4.61914 5.86914 4.12109 5.29297 4.12109C4.7168 4.12109 4.24805 4.61914 4.24805 5.17578C4.24805 5.72266 4.7168 6.2207 5.29297 6.2207ZM8.7207 6.2207C9.29688 6.2207 9.76562 5.73242 9.76562 5.17578C9.76562 4.61914 9.29688 4.12109 8.7207 4.12109C8.14453 4.12109 7.66602 4.61914 7.66602 5.17578C7.66602 5.73242 8.14453 6.2207 8.7207 6.2207ZM12.1484 6.21094C12.7246 6.21094 13.1934 5.73242 13.1934 5.17578C13.1934 4.61914 12.7246 4.12109 12.1484 4.12109C11.5723 4.12109 11.0938 4.61914 11.0938 5.17578C11.0938 5.73242 11.5723 6.21094 12.1484 6.21094Z" fill="var(--color-primary)"/>
 </g>
</svg>
