<svg version="1.1" xmlns="http://www.w3.org/2000/svg" xmlns:xlink="http://www.w3.org/1999/xlink" viewBox="0 0 25.0207 30.6738">
 <g>
  <rect height="30.6738" opacity="0" width="25.0207" x="0" y="0"/>
  <path d="M20.4742 11.1426L21.6453 11.8176L23.9996 10.459C24.2535 10.3027 24.6148 10.3613 24.7906 10.6738C24.9469 10.957 24.8492 11.2793 24.5758 11.4453L22.7962 12.481L24.693 13.5742C25.0152 13.7598 25.1129 14.082 24.9273 14.4043C24.7418 14.7363 24.4 14.8242 24.0777 14.6289L22.1904 13.5455L22.1832 15.5859C22.1832 15.8984 21.9488 16.1719 21.6168 16.1719C21.275 16.1719 21.0308 15.8984 21.0308 15.5859L21.0401 12.8851L19.859 12.207L17.0789 10.3776L17.0501 9.88019L17.5218 9.64244ZM16.2233 8.88825L16.2522 9.41222L15.8044 9.63911L13.5088 8.47887L13.5099 7.10786Z" fill="var(--color-secondary)"/>
  <path d="M16.2652 9.64844L16.2242 10.3913L13.5057 12.1723L13.5068 10.8034L16.2522 9.41222ZM22.1832 3.70117L22.1904 5.73877L24.0777 4.64844C24.3902 4.46289 24.732 4.54102 24.9176 4.85352C25.1129 5.18555 25.0152 5.52734 24.693 5.71289L22.8062 6.80474L24.5758 7.8418C24.8492 7.99805 24.9469 8.33008 24.7906 8.61328C24.6148 8.92578 24.2535 8.98438 23.9996 8.82812L21.6594 7.46841L20.4742 8.1543L17.0501 9.88019L17.0367 9.64844L17.0798 8.9021L19.8687 7.08008L21.0401 6.40333L21.0308 3.70117C21.0308 3.37891 21.275 3.10547 21.6168 3.11523C21.9488 3.10547 22.1832 3.37891 22.1832 3.70117Z" fill="var(--color-secondary)"/>
  <path d="M17.2711 0.722656L17.2711 2.90872L19.0387 1.89453C19.3316 1.72852 19.6637 1.80664 19.8199 2.08984C20.0055 2.39258 19.8883 2.71484 19.6148 2.88086L17.2711 4.22015L17.2711 5.58594L17.0367 9.64844L17.2711 13.7012L17.2711 15.067L19.6148 16.4062C19.8883 16.5723 20.0055 16.8945 19.8199 17.1973C19.6637 17.4805 19.3219 17.5586 19.0387 17.4023L17.2711 16.3882L17.2711 18.5645C17.2711 18.9453 17.0269 19.1992 16.6461 19.1992C16.275 19.1992 16.0406 18.9355 16.0406 18.5645L16.0406 16.3882L14.273 17.4023C14.1564 17.4667 14.0298 17.4913 13.9098 17.4776C13.7855 17.3368 13.6465 17.2023 13.5015 17.0703L13.502 16.5855C13.5527 16.5153 13.6219 16.4543 13.7066 16.4062L16.0406 15.0725L16.0406 13.7109L16.2652 9.64844L16.0406 5.57617L16.0406 4.21456L13.7066 2.88086C13.4137 2.71484 13.3062 2.39258 13.482 2.08984C13.648 1.80664 13.9801 1.72852 14.2633 1.89453L16.0406 2.91016L16.0406 0.722656C16.0406 0.351562 16.275 0.0976562 16.6461 0.0976562C17.0269 0.0878906 17.2711 0.351562 17.2711 0.722656Z" fill="var(--color-secondary)"/>
  <path d="M8.3453 29.2773C11.9098 29.2773 14.7906 26.3867 14.7906 22.832C14.7906 20.957 14.0191 19.2969 12.5055 17.9688C12.2027 17.7148 12.1441 17.5488 12.1441 17.1387L12.1539 5.47852C12.1539 3.03711 10.6012 1.36719 8.3453 1.36719C6.07967 1.36719 4.51717 3.03711 4.51717 5.47852L4.52694 17.1387C4.52694 17.5488 4.46835 17.7148 4.17538 17.9688C2.66171 19.2969 1.89022 20.957 1.89022 22.832C1.89022 26.3867 4.77108 29.2773 8.3453 29.2773ZM8.3453 27.7148C5.64999 27.7148 3.46249 25.5176 3.46249 22.832C3.46249 21.25 4.19491 19.8145 5.55233 18.8965C5.96249 18.6133 6.11874 18.3301 6.11874 17.8027L6.11874 5.53711C6.11874 4.00391 7.02694 2.94922 8.3453 2.94922C9.64413 2.94922 10.5621 4.00391 10.5621 5.53711L10.5621 17.8027C10.5621 18.3301 10.7183 18.6133 11.1187 18.8965C12.4762 19.8145 13.2086 21.25 13.2086 22.832C13.2086 25.5176 11.0211 27.7148 8.3453 27.7148Z" fill="var(--color-tertiary)"/>
  <path d="M8.33553 26.0156C10.0933 26.0156 11.5094 24.5996 11.5094 22.8223C11.5094 21.5918 10.8258 20.5762 9.81014 20.0293C9.39022 19.8047 9.24374 19.6387 9.24374 19.0039L9.24374 16.6016C9.24374 15.9961 8.85311 15.5957 8.33553 15.5957C7.82772 15.5957 7.42733 15.9961 7.42733 16.6016L7.42733 19.0039C7.42733 19.6387 7.29061 19.8047 6.87069 20.0293C5.8453 20.5762 5.16171 21.5918 5.16171 22.8223C5.16171 24.5996 6.57772 26.0156 8.33553 26.0156Z" fill="var(--color-primary)"/>
 </g>
</svg>
