<svg version="1.1" xmlns="http://www.w3.org/2000/svg" xmlns:xlink="http://www.w3.org/1999/xlink" viewBox="0 0 26.5456 31.0449">
 <g>
  <rect height="31.0449" opacity="0" width="26.5456" x="0" y="0"/>
  <path d="M22.3011 26.6309C23.2484 27.3047 24.0394 27.8906 25.4359 27.8906L25.5043 27.8906C25.9242 27.8906 26.266 28.2324 26.266 28.6523C26.266 29.082 25.9242 29.4238 25.5043 29.4238L25.4359 29.4238C21.6175 29.4238 21.2855 26.8652 19.1371 26.8652C17.0277 26.8652 16.4906 29.4238 13.1507 29.4238C9.81089 29.4238 9.26402 26.8652 7.16441 26.8652C5.01597 26.8652 4.68394 29.4238 0.865579 29.4238L0.797219 29.4238C0.377297 29.4238 0.0355005 29.082 0.0355005 28.6523C0.0355005 28.2324 0.377297 27.8906 0.797219 27.8906L0.865579 27.8906C2.26206 27.8906 3.05308 27.3047 4.00034 26.6309C4.82066 26.0352 5.80698 25.332 7.16441 25.332C8.57066 25.332 9.57652 26.084 10.3968 26.6895C11.266 27.3535 11.9789 27.8906 13.1507 27.8906C14.3226 27.8906 15.0355 27.3535 15.9046 26.6895C16.725 26.084 17.7308 25.332 19.1371 25.332C20.4945 25.332 21.4808 26.0352 22.3011 26.6309ZM22.3011 21.1914C23.2484 21.8555 24.0394 22.4414 25.4359 22.4414L25.5043 22.4414C25.9242 22.4414 26.266 22.793 26.266 23.2129C26.266 23.6328 25.9242 23.9746 25.5043 23.9746L25.4359 23.9746C21.6175 23.9746 21.2855 21.4258 19.1371 21.4258C18.9207 21.4258 18.7209 21.4526 18.536 21.5063C18.6901 21.0023 18.7729 20.4668 18.7743 19.9113C18.8915 19.8984 19.0127 19.8926 19.1371 19.8926C20.4945 19.8926 21.4808 20.5957 22.3011 21.1914ZM7.54679 19.9132C7.54829 20.4699 7.63097 21.0063 7.78457 21.5113C7.59378 21.4547 7.38789 21.4258 7.16441 21.4258C5.01597 21.4258 4.68394 23.9746 0.865579 23.9746L0.797219 23.9746C0.377297 23.9746 0.0355005 23.6328 0.0355005 23.2129C0.0355005 22.793 0.377297 22.4414 0.797219 22.4414L0.865579 22.4414C2.26206 22.4414 3.05308 21.8555 4.00034 21.1914C4.82066 20.5957 5.80698 19.8926 7.16441 19.8926C7.29567 19.8926 7.42344 19.899 7.54679 19.9132Z" fill="var(--color-secondary)"/>
  <path d="M6.4466 8.13071L6.41391 8.70891L4.37144 10.0488L3.47344 10.5656L3.49253 12.6562C3.473 13.0273 3.24839 13.2812 2.89683 13.2617C2.5648 13.2812 2.32066 13.0273 2.33042 12.666L2.32388 11.2272L0.943704 12.0215C0.631204 12.207 0.26011 12.1094 0.0843286 11.7969C-0.0914526 11.4941 0.0159692 11.1328 0.328469 10.957L1.70922 10.1585L0.474954 9.43359C0.142922 9.25781 0.0550317 8.92578 0.221047 8.64258C0.396829 8.33984 0.72886 8.25195 1.05113 8.44727L2.86212 9.4917L3.7562 8.97461L5.93419 7.87109ZM10.3089 6.61508L10.0453 6.76758L7.86372 7.86929L7.35412 7.61109L7.38512 7.03238L9.43003 5.69336L10.3089 5.18755Z" fill="var(--color-secondary)"/>
  <path d="M10.0453 8.97461L10.3089 9.1271L10.3089 10.5546L9.43003 10.0488L7.38512 8.70981L7.34019 7.87109L7.35412 7.61109ZM3.49253 3.0957L3.47353 5.17661L4.37144 5.69336L6.41376 7.03068L6.46128 7.87109L6.4466 8.13071L3.7562 6.76758L2.87057 6.25538L1.05113 7.30469C0.72886 7.5 0.396829 7.41211 0.221047 7.10938C0.0550317 6.82617 0.142922 6.49414 0.474954 6.31836L1.7176 5.58855L0.328469 4.78516C0.0159692 4.60938-0.0914526 4.23828 0.0843286 3.93555C0.26011 3.63281 0.631204 3.53516 0.943704 3.7207L2.32393 4.51502L2.33042 3.08594C2.32066 2.72461 2.5648 2.4707 2.89683 2.48047C3.24839 2.4707 3.473 2.72461 3.49253 3.0957Z" fill="var(--color-secondary)"/>
  <path d="M7.51597 0.634766L7.51597 2.2317L8.7562 1.51367C9.0687 1.32812 9.4105 1.41602 9.57652 1.70898C9.7523 2.01172 9.65464 2.34375 9.33238 2.5293L7.51597 3.57134L7.51597 4.58984L7.34019 7.87109L7.51597 11.1523L7.51597 12.1708L9.33238 13.2129C9.65464 13.3984 9.7523 13.7305 9.57652 14.0332C9.4105 14.3164 9.0687 14.4043 8.7562 14.2188L7.51597 13.5072L7.51597 15.0977C7.51597 15.459 7.2523 15.7324 6.90073 15.7324C6.54917 15.7324 6.27573 15.459 6.27573 15.0977L6.27573 13.511L5.0355 14.2188C4.723 14.4043 4.39097 14.3164 4.22495 14.0332C4.04917 13.7305 4.14683 13.3984 4.45933 13.2129L6.27573 12.1708L6.27573 11.1523L6.46128 7.87109L6.27573 4.58984L6.27573 3.57134L4.45933 2.5293C4.14683 2.34375 4.04917 2.01172 4.22495 1.70898C4.39097 1.41602 4.723 1.32812 5.0355 1.51367L6.27573 2.22794L6.27573 0.634766C6.27573 0.273438 6.54917 0 6.90073 0C7.2523 0 7.51597 0.273438 7.51597 0.634766Z" fill="var(--color-secondary)"/>
  <path d="M13.1507 23.9453C15.4066 23.9453 17.2132 22.1387 17.2132 19.8828C17.2132 18.3105 16.3148 17.041 15.1039 16.377C14.6546 16.1328 14.4496 15.8008 14.4496 15.127L14.4496 2.90039C14.4496 2.1875 13.8832 1.60156 13.1605 1.60156C12.4378 1.60156 11.8714 2.1875 11.8714 2.90039L11.8714 15.127C11.8714 15.7812 11.6566 16.1035 11.1878 16.3574C9.97691 17.0215 9.10777 18.3105 9.10777 19.8828C9.10777 22.1387 10.9046 23.9453 13.1507 23.9453ZM17.7699 4.12109L20.4652 4.12109C20.8558 4.12109 21.1195 3.81836 21.1195 3.47656C21.1195 3.13477 20.8558 2.83203 20.4652 2.83203L17.7699 2.83203C17.3793 2.83203 17.1156 3.13477 17.1156 3.47656C17.1156 3.81836 17.3793 4.12109 17.7699 4.12109ZM17.7699 7.65625L20.4652 7.65625C20.8558 7.65625 21.1195 7.36328 21.1195 7.01172C21.1195 6.66992 20.8558 6.37695 20.4652 6.37695L17.7699 6.37695C17.3793 6.37695 17.1156 6.66992 17.1156 7.01172C17.1156 7.36328 17.3793 7.65625 17.7699 7.65625ZM17.7699 11.1914L20.4652 11.1914C20.8558 11.1914 21.1195 10.8984 21.1195 10.5566C21.1195 10.2051 20.8558 9.91211 20.4652 9.91211L17.7699 9.91211C17.3793 9.91211 17.1156 10.2051 17.1156 10.5566C17.1156 10.8984 17.3793 11.1914 17.7699 11.1914ZM17.7699 14.7363L20.4652 14.7363C20.8558 14.7363 21.1195 14.4336 21.1195 14.0918C21.1195 13.75 20.8558 13.4473 20.4652 13.4473L17.7699 13.4473C17.3793 13.4473 17.1156 13.75 17.1156 14.0918C17.1156 14.4336 17.3793 14.7363 17.7699 14.7363Z" fill="var(--color-primary)"/>
 </g>
</svg>
