<svg version="1.1" xmlns="http://www.w3.org/2000/svg" xmlns:xlink="http://www.w3.org/1999/xlink" viewBox="0 0 44.3945 20.0488">
 <g>
  <rect height="20.0488" opacity="0" width="44.3945" x="0" y="0"/>
  <path d="M9.79492 19.6777C11.709 19.6777 13.2129 18.1738 13.2129 16.2598C13.2129 14.3555 11.6992 12.8418 9.79492 12.8418C7.89062 12.8418 6.37695 14.3555 6.37695 16.2598C6.37695 18.1641 7.89062 19.6777 9.79492 19.6777ZM34.9805 19.6777C36.8848 19.6777 38.3984 18.1641 38.3984 16.2598C38.3984 14.3555 36.8848 12.8418 34.9805 12.8418C33.0957 12.8418 31.5625 14.3652 31.5625 16.2598C31.5625 18.1641 33.0859 19.6777 34.9805 19.6777ZM42.5 3.68164L41.9336 2.86133C40.5566 0.849609 38.7793 0 35.957 0L26.2012 0C21.0645 0 19.043 0.488281 16.0059 2.39258L10.9473 5.57617L6.25 6.15234C2.07031 6.66992 0 8.57422 0 11.9141L0 14.0527C0 16.0254 1.12305 17.1777 3.03711 17.1777L5.10742 17.1777C5.04883 16.8848 5.01953 16.582 5.01953 16.2598C5.01953 13.6133 7.14844 11.4844 9.79492 11.4844C12.4414 11.4844 14.5703 13.6133 14.5703 16.2598C14.5703 16.582 14.541 16.8848 14.4824 17.1777L30.293 17.1777C30.2344 16.8848 30.2051 16.582 30.2051 16.2598C30.2051 13.623 32.3438 11.4844 34.9805 11.4844C37.6367 11.4844 39.7656 13.6133 39.7656 16.2598C39.7656 16.582 39.7266 16.8848 39.668 17.1777L41.0059 17.1777C43.0762 17.1777 44.0332 16.1035 44.0332 13.8086L44.0332 8.37891C44.0332 6.82617 43.4766 5.10742 42.5 3.68164Z" fill="var(--color-tertiary)"/>
  <path d="M23.2715 13.1836C20.8789 13.1836 18.5645 12.4902 16.7188 11.1816C16.3965 10.957 16.3281 10.5664 16.5332 10.2832C16.748 9.98047 17.1289 9.93164 17.4414 10.1562C19.0332 11.2891 21.1133 11.9238 23.2715 11.9238C25.4492 11.9238 27.5098 11.2988 29.0918 10.1562C29.4043 9.93164 29.7949 9.99023 30 10.2832C30.2148 10.5859 30.1367 10.9668 29.8145 11.1816C27.959 12.4902 25.6543 13.1836 23.2715 13.1836Z" fill="var(--color-primary)"/>
  <path d="M23.2715 9.92188C21.5039 9.92188 19.834 9.4043 18.5449 8.4668C18.2422 8.23242 18.1641 7.87109 18.3691 7.57812C18.5742 7.29492 18.9648 7.20703 19.2871 7.43164C20.3418 8.21289 21.7676 8.65234 23.2715 8.65234C24.7754 8.65234 26.1914 8.21289 27.2461 7.43164C27.5781 7.20703 27.9785 7.29492 28.1641 7.57812C28.3594 7.87109 28.3008 8.23242 27.998 8.4668C26.7383 9.4043 25.0586 9.92188 23.2715 9.92188Z" fill="var(--color-primary)"/>
  <path d="M23.2715 6.66016C22.1777 6.66016 21.0938 6.32812 20.3516 5.76172C20.0586 5.56641 19.9902 5.16602 20.1953 4.87305C20.4297 4.57031 20.8203 4.50195 21.1523 4.74609C21.6992 5.14648 22.4805 5.38086 23.2715 5.38086C24.082 5.38086 24.8633 5.14648 25.3906 4.74609C25.7227 4.49219 26.1328 4.56055 26.3477 4.87305C26.543 5.16602 26.4746 5.55664 26.1914 5.76172C25.4102 6.32812 24.3457 6.66016 23.2715 6.66016Z" fill="var(--color-primary)"/>
 </g>
</svg>
