<svg version="1.1" xmlns="http://www.w3.org/2000/svg" xmlns:xlink="http://www.w3.org/1999/xlink" viewBox="0 0 21.3281 31.6113">
 <g>
  <rect height="31.6113" opacity="0" width="21.3281" x="0" y="0"/>
  <path d="M3.75977 30.2539L17.207 30.2539C19.707 30.2539 20.9668 28.9844 20.9668 26.4551L20.9668 7.14844C20.9668 4.66797 19.7461 3.33984 17.3145 3.33984L16.7969 3.33984C16.8066 3.42773 16.8066 3.53516 16.8066 3.62305L16.8066 4.58984C16.8066 4.75586 16.7969 4.93164 16.7676 5.07812L17.2754 5.07812C18.5742 5.07812 19.2383 5.86914 19.2383 7.17773L19.2383 26.4258C19.2383 27.7832 18.5156 28.5254 17.1094 28.5254L3.85742 28.5254C2.45117 28.5254 1.72852 27.7832 1.72852 26.4258L1.72852 7.17773C1.72852 5.86914 2.39258 5.07812 3.69141 5.07812L4.19922 5.07812C4.16992 4.93164 4.16016 4.75586 4.16016 4.58984L4.16016 3.62305C4.16016 3.53516 4.16016 3.42773 4.16992 3.33984L3.65234 3.33984C1.2207 3.33984 0 4.66797 0 7.14844L0 26.4551C0 28.9844 1.25977 30.2539 3.75977 30.2539ZM6.62109 6.05469L14.3457 6.05469C15.0293 6.05469 15.4492 5.63477 15.4492 4.92188L15.4492 3.61328C15.4492 2.90039 15.0293 2.48047 14.3457 2.48047L13.0859 2.48047C13.0176 1.11328 11.875 0 10.4883 0C9.0918 0 7.94922 1.11328 7.88086 2.48047L6.62109 2.48047C5.9375 2.48047 5.51758 2.90039 5.51758 3.61328L5.51758 4.92188C5.51758 5.63477 5.9375 6.05469 6.62109 6.05469ZM10.4883 3.67188C9.86328 3.67188 9.36523 3.1543 9.36523 2.55859C9.36523 1.93359 9.86328 1.43555 10.4883 1.43555C11.1035 1.43555 11.6016 1.93359 11.6016 2.55859C11.6016 3.1543 11.1035 3.67188 10.4883 3.67188Z" fill="var(--color-secondary)"/>
  <path d="M5.78125 13.8672L7.90039 13.8672C8.24219 13.8672 8.47656 13.6719 8.55469 13.3594L9.04297 11.3672L10.1074 16.5527C10.2344 17.1973 11.084 17.207 11.2695 16.5723L12.4023 12.5586L12.6074 13.3398C12.6953 13.6719 12.9199 13.8672 13.2617 13.8672L15.1855 13.8672C15.498 13.8672 15.7812 13.5938 15.7812 13.2812C15.7812 12.9492 15.5176 12.6855 15.1855 12.6855L13.6426 12.6855L13.0176 10.2832C12.8613 9.67773 12.0605 9.69727 11.8652 10.293L10.7617 14.0625L9.64844 8.58398C9.52148 7.94922 8.66211 7.92969 8.49609 8.57422L7.50977 12.6855L5.78125 12.6855C5.44922 12.6855 5.18555 12.959 5.18555 13.2812C5.18555 13.5938 5.45898 13.8672 5.78125 13.8672ZM4.82422 20.2734L16.1426 20.2734C16.5234 20.2734 16.8262 19.9707 16.8262 19.5801C16.8262 19.209 16.5234 18.9062 16.1426 18.9062L4.82422 18.9062C4.44336 18.9062 4.14062 19.209 4.14062 19.5801C4.14062 19.9707 4.44336 20.2734 4.82422 20.2734ZM4.82422 25.0391L11.2891 25.0391C11.6699 25.0391 11.9824 24.7266 11.9824 24.3555C11.9824 23.9844 11.6797 23.6816 11.2891 23.6816L4.82422 23.6816C4.44336 23.6816 4.14062 23.9844 4.14062 24.3555C4.14062 24.7266 4.45312 25.0391 4.82422 25.0391Z" fill="var(--color-primary)"/>
 </g>
</svg>
