<svg version="1.1" xmlns="http://www.w3.org/2000/svg" xmlns:xlink="http://www.w3.org/1999/xlink" viewBox="0 0 28.6086 28.2642">
 <g>
  <rect height="28.2642" opacity="0" width="28.6086" x="0" y="0"/>
  <path d="M1.35995 16.8128L11.4478 26.9007C13.235 28.6878 15.0318 28.6975 16.7994 26.93L26.9264 16.7932C28.6939 15.0257 28.6939 13.2288 26.9068 11.4417L16.8189 1.35378C15.0318-0.443093 13.2447-0.452858 11.4674 1.33425L1.32089 11.4612C-0.456453 13.2385-0.436922 15.0257 1.35995 16.8128ZM2.60019 15.6214C1.62363 14.6546 1.61386 13.6194 2.60995 12.6331L12.6295 2.61355C13.6158 1.61745 14.6412 1.62722 15.6178 2.60378L25.6471 12.6331C26.6139 13.5999 26.6432 14.6448 25.6471 15.6311L15.6275 25.6409C14.6314 26.637 13.5865 26.6175 12.6393 25.6604Z" fill="var(--color-secondary)"/>
  <path d="M10.4029 19.0979L19.0943 10.3968C19.2701 10.2307 19.3678 10.0159 19.3678 9.78152C19.3678 9.29324 18.9771 8.92214 18.4889 8.92214C18.2447 8.92214 18.0494 9.01003 17.8736 9.18581L9.16269 17.8772C8.98691 18.053 8.88925 18.2483 8.88925 18.5022C8.88925 18.9807 9.27988 19.3714 9.76816 19.3714C10.0221 19.3714 10.2271 19.2737 10.4029 19.0979ZM17.8541 19.0979C18.0299 19.2737 18.235 19.3714 18.4889 19.3714C18.9771 19.3714 19.3678 18.9807 19.3678 18.5022C19.3678 18.2483 19.2701 18.053 19.0943 17.8772L10.3834 9.18581C10.2076 9.01003 10.0123 8.92214 9.76816 8.92214C9.27988 8.92214 8.88925 9.29324 8.88925 9.78152C8.88925 10.0159 8.98691 10.2307 9.16269 10.3968Z" fill="var(--color-primary)"/>
 </g>
</svg>
