<?xml version="1.0" encoding="UTF-8"?>
<!--Generator: Apple Native CoreSVG 341-->
<!DOCTYPE svg
PUBLIC "-//W3C//DTD SVG 1.1//EN"
       "http://www.w3.org/Graphics/SVG/1.1/DTD/svg11.dtd">
<svg version="1.1" xmlns="http://www.w3.org/2000/svg" xmlns:xlink="http://www.w3.org/1999/xlink" viewBox="0 0 18.3398 17.9785">
 <g>
  <rect height="17.9785" opacity="0" width="18.3398" x="0" y="0"/>
  <path d="M17.9785 3.02734L17.9785 14.9609C17.9785 16.9727 16.9629 17.9785 14.9121 17.9785L3.06641 17.9785C1.02539 17.9785 0 16.9727 0 14.9609L0 3.02734C0 1.01562 1.02539 0 3.06641 0L14.9121 0C16.9629 0 17.9785 1.01562 17.9785 3.02734ZM5.43945 8.98438C5.43945 11.8555 6.86523 13.7793 8.99414 13.7793C11.1328 13.7793 12.5586 11.8555 12.5586 8.98438C12.5586 6.11328 11.1328 4.18945 8.99414 4.18945C6.86523 4.18945 5.43945 6.11328 5.43945 8.98438ZM11.0059 8.98438C11.0059 11.084 10.1953 12.4805 8.99414 12.4805C7.80273 12.4805 6.98242 11.084 6.98242 8.98438C6.98242 6.88477 7.80273 5.48828 8.99414 5.48828C10.1953 5.48828 11.0059 6.88477 11.0059 8.98438Z" fill="white" fill-opacity="0.85"/>
 </g>
</svg>
