<svg version="1.1" xmlns="http://www.w3.org/2000/svg" xmlns:xlink="http://www.w3.org/1999/xlink" viewBox="0 0 18.3398 17.9785">
 <g>
  <rect height="17.9785" opacity="0" width="18.3398" x="0" y="0"/>
  <path d="M3.06641 17.9785L14.9121 17.9785C16.9629 17.9785 17.9785 16.9727 17.9785 14.9609L17.9785 3.02734C17.9785 1.01562 16.9629 0 14.9121 0L3.06641 0C1.02539 0 0 1.01562 0 3.02734L0 14.9609C0 16.9727 1.02539 17.9785 3.06641 17.9785Z" fill="var(--color-tertiary)"/>
  <path d="M5.9375 13.2617C3.92578 13.2617 3.33008 11.0156 3.33008 8.98438C3.33008 6.95312 3.92578 4.70703 5.9375 4.70703C7.94922 4.70703 8.54492 6.95312 8.54492 8.98438C8.54492 11.0156 7.94922 13.2617 5.9375 13.2617ZM5.9375 12.0605C6.75781 12.0605 7.07031 10.7324 7.07031 8.98438C7.07031 7.22656 6.75781 5.9082 5.9375 5.9082C5.12695 5.9082 4.81445 7.22656 4.81445 8.98438C4.81445 10.7324 5.12695 12.0605 5.9375 12.0605ZM10.3223 13.0566C9.85352 13.0566 9.62891 12.8125 9.62891 12.4707C9.62891 12.1484 9.82422 11.8945 10.0098 11.6602L11.7578 9.42383C12.2852 8.75 12.8516 7.92969 12.8516 7.11914C12.8516 6.40625 12.5098 5.87891 11.9141 5.87891C11.3281 5.87891 11.0938 6.29883 10.8984 6.97266C10.8008 7.30469 10.5859 7.45117 10.2539 7.45117C9.86328 7.45117 9.63867 7.19727 9.63867 6.81641C9.63867 5.77148 10.6348 4.70703 11.9141 4.70703C13.3008 4.70703 14.2285 5.69336 14.2285 7.05078C14.2285 7.93945 13.8867 8.68164 12.8906 9.93164L11.4258 11.7871L11.4258 11.8652L13.8184 11.8652C14.1602 11.8652 14.3848 12.0801 14.3848 12.4707C14.3848 12.8223 14.1699 13.0566 13.8184 13.0566Z" fill="var(--color-primary)"/>
 </g>
</svg>
