<svg version="1.1" xmlns="http://www.w3.org/2000/svg" xmlns:xlink="http://www.w3.org/1999/xlink" viewBox="0 0 18.3398 17.9785">
 <g>
  <rect height="17.9785" opacity="0" width="18.3398" x="0" y="0"/>
  <path d="M3.06641 17.9785L14.9121 17.9785C16.9629 17.9785 17.9785 16.9727 17.9785 14.9609L17.9785 3.02734C17.9785 1.01562 16.9629 0 14.9121 0L3.06641 0C1.02539 0 0 1.01562 0 3.02734L0 14.9609C0 16.9727 1.02539 17.9785 3.06641 17.9785Z" fill="var(--color-tertiary)"/>
  <path d="M5.83984 13.2617C3.83789 13.2617 3.23242 11.0156 3.23242 8.98438C3.23242 6.95312 3.83789 4.70703 5.83984 4.70703C7.85156 4.70703 8.45703 6.95312 8.45703 8.98438C8.45703 11.0156 7.85156 13.2617 5.83984 13.2617ZM5.83984 12.0605C6.66016 12.0605 6.97266 10.7324 6.97266 8.98438C6.97266 7.22656 6.66016 5.9082 5.83984 5.9082C5.01953 5.9082 4.70703 7.22656 4.70703 8.98438C4.70703 10.7324 5.01953 12.0605 5.83984 12.0605ZM12.0703 13.2617C11.1621 13.2617 10.2734 12.7344 9.91211 11.9141C9.82422 11.7188 9.76562 11.4941 9.76562 11.2598C9.76562 10.8887 10.0098 10.6543 10.3711 10.6543C10.6445 10.6543 10.8691 10.8105 10.9863 11.1328C11.1719 11.6797 11.4941 12.0801 12.0508 12.0801C12.793 12.0801 13.0859 11.2305 13.0859 10.3906C13.0859 9.64844 12.8027 8.75977 12.0703 8.75977C11.6602 8.75977 11.4062 8.99414 11.1816 9.32617C10.9668 9.59961 10.8105 9.70703 10.5469 9.70703C10.0684 9.70703 9.87305 9.36523 9.87305 8.98438C9.87305 8.84766 9.87305 8.69141 9.89258 8.53516L10.0586 5.78125C10.0879 5.26367 10.332 4.91211 10.8496 4.91211L13.623 4.91211C13.9551 4.91211 14.1895 5.17578 14.1895 5.50781C14.1895 5.86914 13.9648 6.11328 13.623 6.11328L11.2598 6.11328L11.1035 8.55469L11.1426 8.55469C11.3965 7.96875 11.9531 7.69531 12.5391 7.69531C13.8379 7.69531 14.502 8.96484 14.502 10.3516C14.502 11.9434 13.6426 13.2617 12.0703 13.2617Z" fill="var(--color-primary)"/>
 </g>
</svg>
