<?xml version="1.0" encoding="UTF-8"?>
<!--Generator: Apple Native CoreSVG 341-->
<!DOCTYPE svg
PUBLIC "-//W3C//DTD SVG 1.1//EN"
       "http://www.w3.org/Graphics/SVG/1.1/DTD/svg11.dtd">
<svg version="1.1" xmlns="http://www.w3.org/2000/svg" xmlns:xlink="http://www.w3.org/1999/xlink" viewBox="0 0 18.3398 17.9785">
 <g>
  <rect height="17.9785" opacity="0" width="18.3398" x="0" y="0"/>
  <path d="M3.06641 17.9785L14.9121 17.9785C16.9629 17.9785 17.9785 16.9727 17.9785 14.9609L17.9785 3.02734C17.9785 1.01562 16.9629 0 14.9121 0L3.06641 0C1.02539 0 0 1.01562 0 3.02734L0 14.9609C0 16.9727 1.02539 17.9785 3.06641 17.9785Z" fill="white" fill-opacity="0.2125"/>
  <path d="M5.68359 13.2617C3.68164 13.2617 3.07617 11.0156 3.07617 8.98438C3.07617 6.95312 3.68164 4.70703 5.68359 4.70703C7.68555 4.70703 8.29102 6.95312 8.29102 8.98438C8.29102 11.0156 7.68555 13.2617 5.68359 13.2617ZM5.68359 12.0605C6.50391 12.0605 6.81641 10.7324 6.81641 8.98438C6.81641 7.22656 6.50391 5.9082 5.68359 5.9082C4.86328 5.9082 4.55078 7.22656 4.55078 8.98438C4.55078 10.7324 4.86328 12.0605 5.68359 12.0605ZM12.1289 13.2617C10.0781 13.2617 9.46289 10.9863 9.46289 9.08203C9.46289 7.04102 10.0684 4.72656 12.1387 4.72656C13.1445 4.72656 14.0234 5.26367 14.2285 6.13281C14.2676 6.25977 14.2871 6.38672 14.2871 6.49414C14.2871 6.82617 14.1113 7.09961 13.6914 7.09961C13.3691 7.09961 13.1836 6.96289 13.0371 6.65039C12.8711 6.23047 12.5586 5.9082 12.1094 5.9082C10.9863 5.9082 10.8496 7.92969 10.8496 9.04297C10.8496 9.07227 10.8496 9.11133 10.8496 9.15039L10.8887 9.15039C11.123 8.29102 11.7383 7.74414 12.5488 7.74414C13.8867 7.74414 14.541 9.0332 14.541 10.3906C14.541 11.9727 13.6621 13.2617 12.1289 13.2617ZM12.1094 12.0801C12.793 12.0801 13.125 11.1914 13.125 10.459C13.1445 9.7168 12.8418 8.84766 12.0996 8.84766C11.377 8.84766 11.0449 9.67773 11.0449 10.4199C11.0449 11.1328 11.3379 12.0801 12.1094 12.0801Z" fill="white" fill-opacity="0.85"/>
 </g>
</svg>
