<svg version="1.1" xmlns="http://www.w3.org/2000/svg" xmlns:xlink="http://www.w3.org/1999/xlink" viewBox="0 0 18.3398 17.9785">
 <g>
  <rect height="17.9785" opacity="0" width="18.3398" x="0" y="0"/>
  <path d="M3.06641 17.9785L14.9121 17.9785C16.9629 17.9785 17.9785 16.9727 17.9785 14.9609L17.9785 3.02734C17.9785 1.01562 16.9629 0 14.9121 0L3.06641 0C1.02539 0 0 1.01562 0 3.02734L0 14.9609C0 16.9727 1.02539 17.9785 3.06641 17.9785Z" fill="var(--color-tertiary)"/>
  <path d="M6.19141 13.2617C4.18945 13.2617 3.58398 11.0156 3.58398 8.98438C3.58398 6.95312 4.18945 4.70703 6.19141 4.70703C8.20312 4.70703 8.80859 6.95312 8.80859 8.98438C8.80859 11.0156 8.20312 13.2617 6.19141 13.2617ZM6.19141 12.0605C7.01172 12.0605 7.32422 10.7324 7.32422 8.98438C7.32422 7.22656 7.01172 5.9082 6.19141 5.9082C5.37109 5.9082 5.05859 7.22656 5.05859 8.98438C5.05859 10.7324 5.37109 12.0605 6.19141 12.0605ZM11.1035 13.1934C10.6152 13.1934 10.4395 12.8613 10.4395 12.5684C10.4395 12.3242 10.4688 12.1973 10.5566 11.9727L12.793 6.20117L12.793 6.11328L10.2051 6.11328C9.85352 6.11328 9.61914 5.85938 9.61914 5.50781C9.61914 5.16602 9.85352 4.91211 10.2051 4.91211L13.457 4.91211C13.9062 4.91211 14.2578 5.22461 14.2578 5.69336C14.2578 5.98633 14.1895 6.23047 14.0723 6.54297L11.7773 12.6758C11.6406 13.0469 11.4746 13.1934 11.1035 13.1934Z" fill="var(--color-primary)"/>
 </g>
</svg>
