<?xml version="1.0" encoding="UTF-8"?>
<!--Generator: Apple Native CoreSVG 341-->
<!DOCTYPE svg
PUBLIC "-//W3C//DTD SVG 1.1//EN"
       "http://www.w3.org/Graphics/SVG/1.1/DTD/svg11.dtd">
<svg version="1.1" xmlns="http://www.w3.org/2000/svg" xmlns:xlink="http://www.w3.org/1999/xlink" viewBox="0 0 28.2324 19.0527">
 <g>
  <rect height="19.0527" opacity="0" width="28.2324" x="0" y="0"/>
  <path d="M0 9.52148C0 12.6172 1.00586 15.459 2.70508 17.7734C3.00781 18.1934 3.52539 18.2324 3.91602 17.9199C4.26758 17.6172 4.31641 17.1484 4.0332 16.7578C2.54883 14.7363 1.66992 12.2266 1.66992 9.52148C1.66992 6.80664 2.54883 4.30664 4.0332 2.26562C4.31641 1.89453 4.27734 1.41602 3.91602 1.11328C3.52539 0.800781 3.00781 0.849609 2.70508 1.25977C1.00586 3.57422 0 6.42578 0 9.52148ZM27.8711 9.52148C27.8711 6.42578 26.875 3.57422 25.166 1.25977C24.8633 0.849609 24.3457 0.800781 23.9551 1.11328C23.5938 1.41602 23.5645 1.89453 23.8379 2.26562C25.332 4.30664 26.2012 6.80664 26.2012 9.52148C26.2012 12.2266 25.332 14.7363 23.8379 16.7578C23.5645 17.1484 23.6035 17.6172 23.9551 17.9199C24.3457 18.2324 24.8633 18.1934 25.166 17.7734C26.875 15.459 27.8711 12.6172 27.8711 9.52148Z" fill="white" fill-opacity="0.85"/>
  <path d="M13.9355 19.043C19.1992 19.043 23.4668 14.7754 23.4668 9.52148C23.4668 4.25781 19.1992 0 13.9355 0C8.68164 0 4.41406 4.25781 4.41406 9.52148C4.41406 14.7754 8.68164 19.043 13.9355 19.043ZM13.9355 17.3828C9.59961 17.3828 6.07422 13.8574 6.07422 9.52148C6.07422 5.17578 9.59961 1.65039 13.9355 1.65039C18.2812 1.65039 21.8066 5.17578 21.8066 9.52148C21.8066 13.8574 18.2812 17.3828 13.9355 17.3828Z" fill="white" fill-opacity="0.85"/>
  <path d="M14.4434 14.1699C14.9414 14.1699 15.2344 13.8379 15.2344 13.291L15.2344 5.75195C15.2344 5.18555 14.9316 4.87305 14.4043 4.87305C14.043 4.87305 13.7891 4.9707 13.3691 5.25391L11.6113 6.44531C11.3965 6.5918 11.3086 6.74805 11.3086 6.99219C11.3086 7.29492 11.5527 7.57812 11.8652 7.57812C12.0117 7.57812 12.1191 7.54883 12.3438 7.40234L13.6035 6.57227L13.6719 6.57227L13.6719 13.291C13.6719 13.8379 13.9551 14.1699 14.4434 14.1699Z" fill="white" fill-opacity="0.85"/>
 </g>
</svg>
