<?xml version="1.0" encoding="UTF-8"?>
<!--Generator: Apple Native CoreSVG 341-->
<!DOCTYPE svg
PUBLIC "-//W3C//DTD SVG 1.1//EN"
       "http://www.w3.org/Graphics/SVG/1.1/DTD/svg11.dtd">
<svg version="1.1" xmlns="http://www.w3.org/2000/svg" xmlns:xlink="http://www.w3.org/1999/xlink" viewBox="0 0 18.3398 14.7363">
 <g>
  <rect height="14.7363" opacity="0" width="18.3398" x="0" y="0"/>
  <path d="M0 13.9453C0 14.375 0.351562 14.7363 0.78125 14.7363C1.2207 14.7363 1.57227 14.375 1.57227 13.9453L1.57227 0.800781C1.57227 0.371094 1.2207 0.0195312 0.78125 0.0195312C0.351562 0.0195312 0 0.371094 0 0.800781ZM16.4062 13.9453C16.4062 14.375 16.7676 14.7363 17.1973 14.7363C17.627 14.7363 17.9785 14.375 17.9785 13.9453L17.9785 0.800781C17.9785 0.371094 17.627 0.0195312 17.1973 0.0195312C16.7676 0.0195312 16.4062 0.371094 16.4062 0.800781Z" fill="white" fill-opacity="0.85"/>
  <path d="M9.47266 11.9336C9.95117 11.9336 10.2441 11.5918 10.2441 11.1133L10.2441 4.0918C10.2441 3.53516 9.90234 3.22266 9.35547 3.22266C8.91602 3.22266 8.59375 3.4082 8.24219 3.68164L6.98242 4.60938C6.76758 4.77539 6.63086 4.96094 6.63086 5.23438C6.63086 5.54688 6.86523 5.80078 7.1875 5.80078C7.34375 5.80078 7.45117 5.75195 7.57812 5.6543L8.68164 4.82422L8.70117 4.82422L8.70117 11.1133C8.70117 11.6016 8.99414 11.9336 9.47266 11.9336Z" fill="white" fill-opacity="0.85"/>
 </g>
</svg>
