<?xml version="1.0" encoding="UTF-8"?>
<!--Generator: Apple Native CoreSVG 341-->
<!DOCTYPE svg
PUBLIC "-//W3C//DTD SVG 1.1//EN"
       "http://www.w3.org/Graphics/SVG/1.1/DTD/svg11.dtd">
<svg version="1.1" xmlns="http://www.w3.org/2000/svg" xmlns:xlink="http://www.w3.org/1999/xlink" viewBox="0 0 20.2832 23.7233">
 <g>
  <rect height="23.7233" opacity="0" width="20.2832" x="0" y="0"/>
  <path d="M8.07617 0.694677L8.07617 5.1771C8.07617 5.87046 8.55469 6.04624 9.0918 5.67515L12.207 3.48765C12.6465 3.17515 12.6562 2.7064 12.207 2.38413L9.10156 0.19663C8.55469-0.184229 8.07617-0.00844799 8.07617 0.694677ZM9.96094 21.8177C15.459 21.8177 19.9219 17.3548 19.9219 11.8568C19.9219 8.50718 18.291 5.60679 15.7715 3.79038C15.3418 3.45835 14.7852 3.57554 14.541 3.96616C14.2969 4.37632 14.4238 4.8353 14.8242 5.13804C16.8945 6.62241 18.2617 9.07358 18.2617 11.8568C18.2617 16.4466 14.5508 20.1576 9.96094 20.1576C5.37109 20.1576 1.66016 16.4466 1.66016 11.8568C1.66016 7.26694 5.37109 3.55601 9.96094 3.55601C10.4199 3.55601 10.791 3.17515 10.791 2.71616C10.791 2.27671 10.4297 1.90561 9.9707 1.89585C4.45312 1.90561 0 6.35874 0 11.8568C0 17.3548 4.46289 21.8177 9.96094 21.8177Z" fill="white" fill-opacity="0.85"/>
  <path d="M7.35352 15.8705C7.7832 15.8705 8.03711 15.5677 8.03711 15.1478L8.03711 8.97593C8.03711 8.49741 7.73438 8.21421 7.25586 8.21421C6.86523 8.21421 6.58203 8.38999 6.2793 8.62436L5.17578 9.44468C4.98047 9.5814 4.86328 9.74741 4.86328 9.98179C4.86328 10.265 5.06836 10.4798 5.3418 10.4798C5.48828 10.4798 5.58594 10.4408 5.69336 10.3529L6.66016 9.63022L6.67969 9.63022L6.67969 15.1478C6.67969 15.5677 6.93359 15.8705 7.35352 15.8705ZM12.2852 15.9291C14.209 15.9291 14.8828 13.9564 14.8828 12.0326C14.8828 10.1087 14.209 8.14585 12.2852 8.14585C10.3516 8.14585 9.6875 10.1185 9.6875 12.0326C9.6875 13.9662 10.3711 15.9291 12.2852 15.9291ZM12.2852 14.8255C11.4746 14.8255 11.0645 13.6244 11.0645 12.0326C11.0645 10.4505 11.4746 9.25913 12.2852 9.25913C13.1055 9.25913 13.5059 10.4603 13.5059 12.0326C13.5059 13.6244 13.1055 14.8255 12.2852 14.8255Z" fill="white" fill-opacity="0.85"/>
 </g>
</svg>
