<?xml version="1.0" encoding="UTF-8"?>
<!--Generator: Apple Native CoreSVG 341-->
<!DOCTYPE svg
PUBLIC "-//W3C//DTD SVG 1.1//EN"
       "http://www.w3.org/Graphics/SVG/1.1/DTD/svg11.dtd">
<svg version="1.1" xmlns="http://www.w3.org/2000/svg" xmlns:xlink="http://www.w3.org/1999/xlink" viewBox="0 0 18.3398 14.7363">
 <g>
  <rect height="14.7363" opacity="0" width="18.3398" x="0" y="0"/>
  <path d="M0 13.9453C0 14.375 0.351562 14.7363 0.78125 14.7363C1.2207 14.7363 1.57227 14.375 1.57227 13.9453L1.57227 0.800781C1.57227 0.371094 1.2207 0.0195312 0.78125 0.0195312C0.351562 0.0195312 0 0.371094 0 0.800781ZM16.4062 13.9453C16.4062 14.375 16.7676 14.7363 17.1973 14.7363C17.627 14.7363 17.9785 14.375 17.9785 13.9453L17.9785 0.800781C17.9785 0.371094 17.627 0.0195312 17.1973 0.0195312C16.7676 0.0195312 16.4062 0.371094 16.4062 0.800781Z" fill="white" fill-opacity="0.85"/>
  <path d="M6.24023 11.6113C6.68945 11.6113 6.96289 11.2988 6.96289 10.8496L6.96289 4.30664C6.96289 3.79883 6.64062 3.49609 6.12305 3.49609C5.71289 3.49609 5.41992 3.68164 5.08789 3.92578L3.91602 4.79492C3.7207 4.95117 3.59375 5.11719 3.59375 5.37109C3.59375 5.67383 3.80859 5.89844 4.10156 5.89844C4.24805 5.89844 4.35547 5.85938 4.47266 5.77148L5.49805 5L5.51758 5L5.51758 10.8496C5.51758 11.2988 5.79102 11.6113 6.24023 11.6113ZM11.4648 11.6895C13.5059 11.6895 14.2285 9.58984 14.2285 7.53906C14.2285 5.50781 13.5059 3.42773 11.4648 3.42773C9.42383 3.42773 8.71094 5.51758 8.71094 7.54883C8.71094 9.59961 9.43359 11.6895 11.4648 11.6895ZM11.4648 10.5176C10.6055 10.5176 10.166 9.23828 10.166 7.54883C10.166 5.86914 10.6055 4.59961 11.4648 4.59961C12.334 4.59961 12.7637 5.87891 12.7637 7.54883C12.7637 9.23828 12.334 10.5176 11.4648 10.5176Z" fill="white" fill-opacity="0.85"/>
 </g>
</svg>
