<svg version="1.1" xmlns="http://www.w3.org/2000/svg" xmlns:xlink="http://www.w3.org/1999/xlink" viewBox="0 0 18.3398 17.9785">
 <g>
  <rect height="17.9785" opacity="0" width="18.3398" x="0" y="0"/>
  <path d="M3.06641 17.9785L14.9121 17.9785C16.9629 17.9785 17.9785 16.9727 17.9785 14.9609L17.9785 3.02734C17.9785 1.01562 16.9629 0 14.9121 0L3.06641 0C1.02539 0 0 1.01562 0 3.02734L0 14.9609C0 16.9727 1.02539 17.9785 3.06641 17.9785Z" fill="var(--color-tertiary)"/>
  <path d="M7.00195 13.1641C6.5918 13.1641 6.25977 12.832 6.25977 12.4219L6.25977 6.31836L5.33203 7.06055C5.23438 7.13867 5.12695 7.1875 4.98047 7.1875C4.66797 7.1875 4.46289 6.96289 4.46289 6.65039C4.46289 6.38672 4.58984 6.19141 4.77539 6.05469L5.87891 5.19531C6.11328 5.01953 6.46484 4.78516 6.88477 4.78516C7.41211 4.78516 7.73438 5.08789 7.73438 5.60547L7.73438 12.4219C7.73438 12.832 7.40234 13.1641 7.00195 13.1641ZM11.6504 13.1641C11.2402 13.1641 10.9082 12.832 10.9082 12.4219L10.9082 6.31836L9.98047 7.06055C9.88281 7.13867 9.77539 7.1875 9.62891 7.1875C9.31641 7.1875 9.10156 6.96289 9.10156 6.65039C9.10156 6.38672 9.24805 6.19141 9.42383 6.05469L10.5273 5.19531C10.7617 5.01953 11.1035 4.78516 11.5332 4.78516C12.0605 4.78516 12.3828 5.08789 12.3828 5.60547L12.3828 12.4219C12.3828 12.832 12.0508 13.1641 11.6504 13.1641Z" fill="var(--color-primary)"/>
 </g>
</svg>
