<svg version="1.1" xmlns="http://www.w3.org/2000/svg" xmlns:xlink="http://www.w3.org/1999/xlink" viewBox="0 0 19.8242 17.998">
 <g>
  <rect height="17.998" opacity="0" width="19.8242" x="0" y="0"/>
  <path d="M3.06641 17.998L16.4062 17.998C18.4473 17.998 19.4629 16.9824 19.4629 14.9707L19.4629 3.04688C19.4629 1.03516 18.4473 0.0195312 16.4062 0.0195312L3.06641 0.0195312C1.02539 0.0195312 0 1.02539 0 3.04688L0 14.9707C0 16.9922 1.02539 17.998 3.06641 17.998ZM2.91992 16.4258C2.05078 16.4258 1.57227 15.9668 1.57227 15.0586L1.57227 5.84961C1.57227 4.95117 2.05078 4.48242 2.91992 4.48242L16.5332 4.48242C17.4023 4.48242 17.8906 4.95117 17.8906 5.84961L17.8906 15.0586C17.8906 15.9668 17.4023 16.4258 16.5332 16.4258Z" fill="var(--color-secondary)"/>
  <path d="M7.19727 14.5117C7.57812 14.5117 7.90039 14.1895 7.90039 13.7891L7.90039 7.17773C7.90039 6.66992 7.58789 6.37695 7.08008 6.37695C6.66992 6.37695 6.33789 6.60156 6.11328 6.77734L5.03906 7.61719C4.86328 7.74414 4.72656 7.93945 4.72656 8.19336C4.72656 8.49609 4.93164 8.71094 5.22461 8.71094C5.38086 8.71094 5.47852 8.66211 5.57617 8.58398L6.47461 7.87109L6.47461 13.7891C6.47461 14.1895 6.79688 14.5117 7.19727 14.5117ZM10.0488 14.4043L13.4375 14.4043C13.7793 14.4043 13.9941 14.1797 13.9941 13.8281C13.9941 13.4668 13.7695 13.2617 13.4375 13.2617L11.1133 13.2617L11.1133 13.1836L12.5391 11.377C13.5254 10.166 13.8379 9.44336 13.8379 8.58398C13.8379 7.25586 12.9492 6.30859 11.6016 6.30859C10.3516 6.30859 9.4043 7.34375 9.4043 8.35938C9.4043 8.71094 9.60938 8.97461 9.98047 8.97461C10.3027 8.97461 10.5078 8.82812 10.6055 8.50586C10.791 7.85156 11.0352 7.43164 11.5918 7.43164C12.1777 7.43164 12.5098 7.95898 12.5098 8.64258C12.5098 9.43359 11.9629 10.2148 11.4453 10.8789L9.75586 13.0566C9.57031 13.291 9.38477 13.5254 9.38477 13.8379C9.38477 14.1602 9.59961 14.4043 10.0488 14.4043Z" fill="var(--color-primary)"/>
 </g>
</svg>
