<?xml version="1.0" encoding="UTF-8"?>
<!--Generator: Apple Native CoreSVG 341-->
<!DOCTYPE svg
PUBLIC "-//W3C//DTD SVG 1.1//EN"
       "http://www.w3.org/Graphics/SVG/1.1/DTD/svg11.dtd">
<svg version="1.1" xmlns="http://www.w3.org/2000/svg" xmlns:xlink="http://www.w3.org/1999/xlink" viewBox="0 0 18.3398 17.9785">
 <g>
  <rect height="17.9785" opacity="0" width="18.3398" x="0" y="0"/>
  <path d="M3.06641 17.9785L14.9121 17.9785C16.9629 17.9785 17.9785 16.9727 17.9785 14.9609L17.9785 3.02734C17.9785 1.01562 16.9629 0 14.9121 0L3.06641 0C1.02539 0 0 1.01562 0 3.02734L0 14.9609C0 16.9727 1.02539 17.9785 3.06641 17.9785Z" fill="white" fill-opacity="0.2125"/>
  <path d="M6.37695 13.1641C5.9668 13.1641 5.63477 12.832 5.63477 12.4316L5.63477 6.31836L4.7168 7.07031C4.60938 7.13867 4.51172 7.1875 4.3457 7.1875C4.04297 7.1875 3.82812 6.96289 3.82812 6.65039C3.82812 6.38672 3.97461 6.19141 4.16016 6.05469L5.26367 5.20508C5.49805 5.01953 5.83984 4.78516 6.25977 4.78516C6.78711 4.78516 7.10938 5.08789 7.10938 5.60547L7.10938 12.4316C7.10938 12.832 6.77734 13.1641 6.37695 13.1641ZM9.33594 13.0566C8.86719 13.0566 8.64258 12.8125 8.64258 12.4707C8.64258 12.1582 8.83789 11.9043 9.02344 11.6602L10.7715 9.43359C11.2988 8.75 11.8652 7.92969 11.8652 7.11914C11.8652 6.40625 11.5234 5.87891 10.9277 5.87891C10.3418 5.87891 10.0977 6.29883 9.91211 6.97266C9.80469 7.30469 9.59961 7.46094 9.25781 7.46094C8.87695 7.46094 8.65234 7.19727 8.65234 6.81641C8.65234 5.77148 9.63867 4.70703 10.9277 4.70703C12.3145 4.70703 13.2422 5.69336 13.2422 7.05078C13.2422 7.93945 12.9102 8.68164 11.9043 9.93164L10.4395 11.7871L10.4395 11.875L12.832 11.875C13.1738 11.875 13.3984 12.0801 13.3984 12.4707C13.3984 12.8223 13.1836 13.0566 12.832 13.0566Z" fill="white" fill-opacity="0.85"/>
 </g>
</svg>
