<?xml version="1.0" encoding="UTF-8"?>
<!--Generator: Apple Native CoreSVG 341-->
<!DOCTYPE svg
PUBLIC "-//W3C//DTD SVG 1.1//EN"
       "http://www.w3.org/Graphics/SVG/1.1/DTD/svg11.dtd">
<svg version="1.1" xmlns="http://www.w3.org/2000/svg" xmlns:xlink="http://www.w3.org/1999/xlink" viewBox="0 0 20.2832 19.9316">
 <g>
  <rect height="19.9316" opacity="0" width="20.2832" x="0" y="0"/>
  <path d="M9.96094 19.9219C15.459 19.9219 19.9219 15.459 19.9219 9.96094C19.9219 4.46289 15.459 0 9.96094 0C4.46289 0 0 4.46289 0 9.96094C0 15.459 4.46289 19.9219 9.96094 19.9219ZM9.96094 18.2617C5.37109 18.2617 1.66016 14.5508 1.66016 9.96094C1.66016 5.37109 5.37109 1.66016 9.96094 1.66016C14.5508 1.66016 18.2617 5.37109 18.2617 9.96094C18.2617 14.5508 14.5508 18.2617 9.96094 18.2617Z" fill="white" fill-opacity="0.425"/>
  <path d="M7.32422 14.0137C7.70508 14.0137 8.02734 13.6914 8.02734 13.3008L8.02734 6.67969C8.02734 6.18164 7.71484 5.88867 7.20703 5.88867C6.79688 5.88867 6.46484 6.11328 6.24023 6.28906L5.16602 7.11914C4.99023 7.25586 4.85352 7.44141 4.85352 7.69531C4.85352 7.99805 5.05859 8.21289 5.36133 8.21289C5.50781 8.21289 5.60547 8.16406 5.70312 8.0957L6.60156 7.37305L6.60156 13.3008C6.60156 13.6914 6.92383 14.0137 7.32422 14.0137ZM11.9727 14.082C13.3691 14.082 14.4531 13.2031 14.4531 11.7383C14.4531 10.5273 13.7207 9.93164 12.9004 9.84375L12.9004 9.81445C13.7891 9.58008 14.2188 8.78906 14.2188 7.96875C14.2188 6.62109 13.2031 5.84961 11.9336 5.84961C10.9277 5.84961 10.0488 6.41602 9.77539 7.28516C9.7168 7.4707 9.69727 7.64648 9.69727 7.8125C9.69727 8.13477 9.91211 8.38867 10.3027 8.38867C10.6348 8.38867 10.8203 8.26172 10.918 7.91992C11.0742 7.34375 11.3867 6.98242 11.9336 6.98242C12.5781 6.98242 12.8906 7.48047 12.8906 8.125C12.8906 8.83789 12.4902 9.35547 11.7578 9.35547L11.5234 9.35547C11.1914 9.35547 10.9863 9.56055 10.9863 9.88281C10.9863 10.2051 11.2012 10.3906 11.5234 10.3906L11.7676 10.3906C12.5977 10.3906 13.0566 10.8496 13.0566 11.6992C13.0566 12.373 12.7051 12.9492 11.9727 12.9492C11.2598 12.9492 10.9473 12.4707 10.8301 12.0215C10.7324 11.709 10.5273 11.543 10.2051 11.543C9.82422 11.543 9.57031 11.7773 9.57031 12.1582C9.57031 12.334 9.59961 12.5098 9.64844 12.666C9.93164 13.5742 10.918 14.082 11.9727 14.082Z" fill="white" fill-opacity="0.85"/>
 </g>
</svg>
