<?xml version="1.0" encoding="UTF-8"?>
<!--Generator: Apple Native CoreSVG 341-->
<!DOCTYPE svg
PUBLIC "-//W3C//DTD SVG 1.1//EN"
       "http://www.w3.org/Graphics/SVG/1.1/DTD/svg11.dtd">
<svg version="1.1" xmlns="http://www.w3.org/2000/svg" xmlns:xlink="http://www.w3.org/1999/xlink" viewBox="0 0 19.8242 17.998">
 <g>
  <rect height="17.998" opacity="0" width="19.8242" x="0" y="0"/>
  <path d="M3.06641 17.998L16.4062 17.998C18.4473 17.998 19.4629 16.9824 19.4629 14.9707L19.4629 3.04688C19.4629 1.03516 18.4473 0.0195312 16.4062 0.0195312L3.06641 0.0195312C1.02539 0.0195312 0 1.02539 0 3.04688L0 14.9707C0 16.9922 1.02539 17.998 3.06641 17.998ZM2.91992 16.4258C2.05078 16.4258 1.57227 15.9668 1.57227 15.0586L1.57227 5.84961C1.57227 4.95117 2.05078 4.48242 2.91992 4.48242L16.5332 4.48242C17.4023 4.48242 17.8906 4.95117 17.8906 5.84961L17.8906 15.0586C17.8906 15.9668 17.4023 16.4258 16.5332 16.4258Z" fill="white" fill-opacity="0.85"/>
  <path d="M7.10938 14.5117C7.49023 14.5117 7.8125 14.1895 7.8125 13.7891L7.8125 7.17773C7.8125 6.66992 7.5 6.37695 7.00195 6.37695C6.5918 6.37695 6.25977 6.60156 6.02539 6.77734L4.95117 7.61719C4.78516 7.74414 4.64844 7.93945 4.64844 8.19336C4.64844 8.49609 4.85352 8.71094 5.14648 8.71094C5.30273 8.71094 5.39062 8.66211 5.49805 8.58398L6.38672 7.87109L6.38672 13.7891C6.38672 14.1895 6.71875 14.5117 7.10938 14.5117ZM11.7578 14.5801C13.1641 14.5801 14.2383 13.7012 14.2383 12.2363C14.2383 11.0254 13.5156 10.4297 12.6855 10.3418L12.6855 10.3027C13.5742 10.0684 14.0039 9.28711 14.0039 8.4668C14.0039 7.11914 12.998 6.34766 11.7188 6.34766C10.7129 6.34766 9.84375 6.91406 9.56055 7.7832C9.51172 7.96875 9.48242 8.13477 9.48242 8.31055C9.48242 8.62305 9.69727 8.88672 10.0879 8.88672C10.4199 8.88672 10.6152 8.75 10.7129 8.41797C10.8594 7.8418 11.1719 7.4707 11.7188 7.4707C12.3633 7.4707 12.6758 7.97852 12.6758 8.62305C12.6758 9.33594 12.2754 9.85352 11.543 9.85352L11.3086 9.85352C10.9766 9.85352 10.7715 10.0488 10.7715 10.3711C10.7715 10.6934 10.9863 10.8887 11.3086 10.8887L11.5625 10.8887C12.3828 10.8887 12.8418 11.3379 12.8418 12.1973C12.8418 12.8711 12.4902 13.4375 11.7578 13.4375C11.0547 13.4375 10.7324 12.959 10.6152 12.5195C10.5176 12.207 10.3125 12.041 10 12.041C9.60938 12.041 9.35547 12.2656 9.35547 12.6562C9.35547 12.832 9.38477 13.0078 9.43359 13.1641C9.7168 14.0723 10.7129 14.5801 11.7578 14.5801Z" fill="white" fill-opacity="0.85"/>
 </g>
</svg>
