<svg version="1.1" xmlns="http://www.w3.org/2000/svg" xmlns:xlink="http://www.w3.org/1999/xlink" viewBox="0 0 19.8242 17.998">
 <g>
  <rect height="17.998" opacity="0" width="19.8242" x="0" y="0"/>
  <path d="M3.06641 17.998L16.4062 17.998C18.4473 17.998 19.4629 16.9824 19.4629 14.9707L19.4629 3.04688C19.4629 1.03516 18.4473 0.0195312 16.4062 0.0195312L3.06641 0.0195312C1.02539 0.0195312 0 1.02539 0 3.04688L0 14.9707C0 16.9922 1.02539 17.998 3.06641 17.998ZM2.91992 16.4258C2.05078 16.4258 1.57227 15.9668 1.57227 15.0586L1.57227 5.84961C1.57227 4.95117 2.05078 4.48242 2.91992 4.48242L16.5332 4.48242C17.4023 4.48242 17.8906 4.95117 17.8906 5.84961L17.8906 15.0586C17.8906 15.9668 17.4023 16.4258 16.5332 16.4258Z" fill="var(--color-secondary)"/>
  <path d="M6.88477 14.5117C7.26562 14.5117 7.58789 14.1895 7.58789 13.7891L7.58789 7.17773C7.58789 6.66992 7.27539 6.37695 6.76758 6.37695C6.35742 6.37695 6.02539 6.60156 5.80078 6.77734L4.72656 7.61719C4.55078 7.74414 4.41406 7.93945 4.41406 8.19336C4.41406 8.49609 4.61914 8.71094 4.92188 8.71094C5.06836 8.71094 5.16602 8.66211 5.26367 8.58398L6.16211 7.87109L6.16211 13.7891C6.16211 14.1895 6.48438 14.5117 6.88477 14.5117ZM12.7148 14.5312C13.0762 14.5312 13.3789 14.3066 13.3789 13.8281L13.3789 12.8613L13.7207 12.8613C14.1016 12.8613 14.2773 12.6172 14.2773 12.2852C14.2773 11.9727 14.1113 11.7285 13.7207 11.7285L13.3789 11.7285L13.3789 7.43164C13.3789 6.75781 12.9395 6.38672 12.2949 6.38672C11.6113 6.38672 11.2891 6.73828 11.0156 7.34375L9.26758 11.1328C9.10156 11.5039 9.04297 11.7578 9.04297 12.0605C9.04297 12.5293 9.375 12.8613 9.85352 12.8613L12.0312 12.8613L12.0312 13.8281C12.0312 14.3457 12.4023 14.5312 12.7148 14.5312ZM12.0605 11.7578L10.2539 11.7578L10.2539 11.6895L12.0312 7.61719L12.0605 7.61719Z" fill="var(--color-primary)"/>
 </g>
</svg>
