<?xml version="1.0" encoding="UTF-8"?>
<!--Generator: Apple Native CoreSVG 341-->
<!DOCTYPE svg
PUBLIC "-//W3C//DTD SVG 1.1//EN"
       "http://www.w3.org/Graphics/SVG/1.1/DTD/svg11.dtd">
<svg version="1.1" xmlns="http://www.w3.org/2000/svg" xmlns:xlink="http://www.w3.org/1999/xlink" viewBox="0 0 20.2832 19.9316">
 <g>
  <rect height="19.9316" opacity="0" width="20.2832" x="0" y="0"/>
  <path d="M9.96094 19.9219C15.459 19.9219 19.9219 15.459 19.9219 9.96094C19.9219 4.46289 15.459 0 9.96094 0C4.46289 0 0 4.46289 0 9.96094C0 15.459 4.46289 19.9219 9.96094 19.9219ZM9.96094 18.2617C5.37109 18.2617 1.66016 14.5508 1.66016 9.96094C1.66016 5.37109 5.37109 1.66016 9.96094 1.66016C14.5508 1.66016 18.2617 5.37109 18.2617 9.96094C18.2617 14.5508 14.5508 18.2617 9.96094 18.2617Z" fill="white" fill-opacity="0.85"/>
  <path d="M7.08984 14.0137C7.48047 14.0137 7.80273 13.6914 7.80273 13.3008L7.80273 6.67969C7.80273 6.18164 7.49023 5.88867 6.98242 5.88867C6.57227 5.88867 6.24023 6.11328 6.00586 6.28906L4.93164 7.11914C4.76562 7.25586 4.62891 7.44141 4.62891 7.69531C4.62891 7.99805 4.83398 8.21289 5.12695 8.21289C5.2832 8.21289 5.38086 8.16406 5.47852 8.0957L6.37695 7.37305L6.37695 13.3008C6.37695 13.6914 6.69922 14.0137 7.08984 14.0137ZM12.9199 14.0332C13.291 14.0332 13.5938 13.8086 13.5938 13.3398L13.5938 12.3633L13.9355 12.3633C14.3164 12.3633 14.4922 12.1191 14.4922 11.7871C14.4922 11.4746 14.3262 11.2305 13.9355 11.2305L13.5938 11.2305L13.5938 6.94336C13.5938 6.26953 13.1445 5.88867 12.5098 5.88867C11.8262 5.88867 11.5039 6.24023 11.2207 6.8457L9.48242 10.6348C9.31641 11.0156 9.25781 11.2695 9.25781 11.5723C9.25781 12.041 9.58984 12.3633 10.0586 12.3633L12.2461 12.3633L12.2461 13.3398C12.2461 13.8574 12.6172 14.0332 12.9199 14.0332ZM12.2754 11.2598L10.459 11.2598L10.459 11.1914L12.2363 7.11914L12.2754 7.11914Z" fill="white" fill-opacity="0.85"/>
 </g>
</svg>
