<svg version="1.1" xmlns="http://www.w3.org/2000/svg" xmlns:xlink="http://www.w3.org/1999/xlink" viewBox="0 0 18.3398 17.9785">
 <g>
  <rect height="17.9785" opacity="0" width="18.3398" x="0" y="0"/>
  <path d="M3.06641 17.9785L14.9121 17.9785C16.9629 17.9785 17.9785 16.9727 17.9785 14.9609L17.9785 3.02734C17.9785 1.01562 16.9629 0 14.9121 0L3.06641 0C1.02539 0 0 1.01562 0 3.02734L0 14.9609C0 16.9727 1.02539 17.9785 3.06641 17.9785ZM3.08594 16.4062C2.10938 16.4062 1.57227 15.8887 1.57227 14.873L1.57227 3.11523C1.57227 2.09961 2.10938 1.57227 3.08594 1.57227L14.8926 1.57227C15.8594 1.57227 16.4062 2.09961 16.4062 3.11523L16.4062 14.873C16.4062 15.8887 15.8594 16.4062 14.8926 16.4062Z" fill="var(--color-secondary)"/>
  <path d="M6.33789 13.0371C6.72852 13.0371 7.05078 12.7148 7.05078 12.3242L7.05078 5.70312C7.05078 5.20508 6.73828 4.91211 6.23047 4.91211C5.82031 4.91211 5.48828 5.13672 5.25391 5.3125L4.17969 6.14258C4.01367 6.2793 3.87695 6.46484 3.87695 6.71875C3.87695 7.02148 4.08203 7.23633 4.375 7.23633C4.53125 7.23633 4.62891 7.1875 4.72656 7.11914L5.625 6.39648L5.625 12.3242C5.625 12.7148 5.94727 13.0371 6.33789 13.0371ZM10.9863 13.1348C12.5 13.1348 13.3398 11.8555 13.3398 10.3125C13.3398 8.96484 12.6953 7.73438 11.4355 7.73438C10.8594 7.73438 10.332 7.99805 10.0781 8.56445L10.0391 8.56445L10.1953 6.19141L12.4902 6.19141C12.8223 6.19141 13.0273 5.95703 13.0273 5.61523C13.0273 5.29297 12.8125 5.03906 12.4902 5.03906L9.80469 5.03906C9.29688 5.03906 9.0625 5.37109 9.0332 5.87891L8.86719 8.55469C8.85742 8.70117 8.85742 8.85742 8.85742 8.98438C8.85742 9.35547 9.04297 9.6875 9.49219 9.6875C9.76562 9.6875 9.91211 9.58008 10.1172 9.31641C10.3418 8.99414 10.5859 8.75977 10.9766 8.75977C11.6992 8.75977 11.9727 9.62891 11.9727 10.3516C11.9727 11.1621 11.6895 11.9922 10.9668 11.9922C10.4199 11.9922 10.1074 11.6016 9.93164 11.0645C9.81445 10.752 9.59961 10.6055 9.33594 10.6055C8.97461 10.6055 8.75 10.8301 8.75 11.1914C8.75 11.416 8.80859 11.6309 8.89648 11.8262C9.23828 12.6172 10.0977 13.1348 10.9863 13.1348Z" fill="var(--color-primary)"/>
 </g>
</svg>
