<?xml version="1.0" encoding="UTF-8"?>
<!--Generator: Apple Native CoreSVG 341-->
<!DOCTYPE svg
PUBLIC "-//W3C//DTD SVG 1.1//EN"
       "http://www.w3.org/Graphics/SVG/1.1/DTD/svg11.dtd">
<svg version="1.1" xmlns="http://www.w3.org/2000/svg" xmlns:xlink="http://www.w3.org/1999/xlink" viewBox="0 0 20.2832 19.9316">
 <g>
  <rect height="19.9316" opacity="0" width="20.2832" x="0" y="0"/>
  <path d="M9.96094 19.9219C15.459 19.9219 19.9219 15.4492 19.9219 9.96094C19.9219 4.46289 15.459 0 9.96094 0C4.47266 0 0 4.46289 0 9.96094C0 15.4492 4.47266 19.9219 9.96094 19.9219Z" fill="white" fill-opacity="0.2125"/>
  <path d="M7.70508 14.1406C7.29492 14.1406 6.96289 13.8086 6.96289 13.3984L6.96289 7.29492L6.03516 8.03711C5.9375 8.11523 5.83008 8.16406 5.68359 8.16406C5.38086 8.16406 5.16602 7.93945 5.16602 7.62695C5.16602 7.36328 5.29297 7.16797 5.47852 7.03125L6.58203 6.17188C6.82617 5.99609 7.16797 5.76172 7.58789 5.76172C8.11523 5.76172 8.4375 6.06445 8.4375 6.58203L8.4375 13.3984C8.4375 13.8086 8.10547 14.1406 7.70508 14.1406ZM11.3574 14.1699C10.8789 14.1699 10.6934 13.8379 10.6934 13.5449C10.6934 13.3008 10.7227 13.1738 10.8105 12.9492L13.0469 7.17773L13.0469 7.08984L10.459 7.08984C10.1074 7.08984 9.87305 6.83594 9.87305 6.48438C9.87305 6.14258 10.1074 5.88867 10.459 5.88867L13.7109 5.88867C14.1602 5.88867 14.5215 6.20117 14.5215 6.66992C14.5215 6.96289 14.4434 7.20703 14.3359 7.51953L12.0312 13.6523C11.8945 14.0234 11.7285 14.1699 11.3574 14.1699Z" fill="white" fill-opacity="0.85"/>
 </g>
</svg>
