<?xml version="1.0" encoding="UTF-8"?>
<!--Generator: Apple Native CoreSVG 341-->
<!DOCTYPE svg
PUBLIC "-//W3C//DTD SVG 1.1//EN"
       "http://www.w3.org/Graphics/SVG/1.1/DTD/svg11.dtd">
<svg version="1.1" xmlns="http://www.w3.org/2000/svg" xmlns:xlink="http://www.w3.org/1999/xlink" viewBox="0 0 20.2832 19.9316">
 <g>
  <rect height="19.9316" opacity="0" width="20.2832" x="0" y="0"/>
  <path d="M19.9219 9.96094C19.9219 15.4492 15.459 19.9219 9.96094 19.9219C4.47266 19.9219 0 15.4492 0 9.96094C0 4.46289 4.47266 0 9.96094 0C15.459 0 19.9219 4.46289 19.9219 9.96094ZM6.97266 7.1582C6.92383 7.31445 6.91406 7.43164 6.91406 7.56836C6.91406 7.95898 7.17773 8.21289 7.57812 8.21289C7.92969 8.21289 8.11523 7.98828 8.29102 7.70508C8.55469 7.09961 9.0918 6.45508 10.0586 6.45508C11.0156 6.45508 11.6504 7.01172 11.6504 7.8418C11.6504 8.57422 11.0352 9.18945 10.4395 9.81445L7.2168 13.2617C7.05078 13.457 6.95312 13.6621 6.95312 13.8672C6.95312 14.2773 7.22656 14.5312 7.67578 14.5312L12.8516 14.5312C13.252 14.5312 13.5352 14.2773 13.5352 13.8672C13.5352 13.4473 13.252 13.2031 12.8516 13.2031L9.18945 13.2031L9.18945 13.1348L11.5723 10.5859C12.4609 9.63867 13.0859 8.83789 13.0859 7.71484C13.0859 6.19141 11.8555 5.16602 9.99023 5.16602C8.56445 5.16602 7.30469 6.03516 6.97266 7.1582Z" fill="white" fill-opacity="0.85"/>
 </g>
</svg>
