<?xml version="1.0" encoding="UTF-8"?>
<!--Generator: Apple Native CoreSVG 341-->
<!DOCTYPE svg
PUBLIC "-//W3C//DTD SVG 1.1//EN"
       "http://www.w3.org/Graphics/SVG/1.1/DTD/svg11.dtd">
<svg version="1.1" xmlns="http://www.w3.org/2000/svg" xmlns:xlink="http://www.w3.org/1999/xlink" viewBox="0 0 19.8242 17.998">
 <g>
  <rect height="17.998" opacity="0" width="19.8242" x="0" y="0"/>
  <path d="M3.06641 17.998L16.4062 17.998C18.4473 17.998 19.4629 16.9824 19.4629 14.9707L19.4629 3.04688C19.4629 1.03516 18.4473 0.0195312 16.4062 0.0195312L3.06641 0.0195312C1.02539 0.0195312 0 1.02539 0 3.04688L0 14.9707C0 16.9922 1.02539 17.998 3.06641 17.998ZM2.91992 16.4258C2.05078 16.4258 1.57227 15.9668 1.57227 15.0586L1.57227 5.84961C1.57227 4.95117 2.05078 4.48242 2.91992 4.48242L16.5332 4.48242C17.4023 4.48242 17.8906 4.95117 17.8906 5.84961L17.8906 15.0586C17.8906 15.9668 17.4023 16.4258 16.5332 16.4258Z" fill="white" fill-opacity="0.425"/>
  <path d="M5.16602 14.4043L8.55469 14.4043C8.90625 14.4043 9.11133 14.1797 9.11133 13.8281C9.11133 13.4668 8.89648 13.2617 8.55469 13.2617L6.24023 13.2617L6.24023 13.1836L7.66602 11.377C8.64258 10.166 8.96484 9.44336 8.96484 8.58398C8.96484 7.25586 8.06641 6.30859 6.71875 6.30859C5.46875 6.30859 4.52148 7.34375 4.52148 8.35938C4.52148 8.71094 4.73633 8.97461 5.10742 8.97461C5.42969 8.97461 5.625 8.82812 5.73242 8.50586C5.9082 7.85156 6.15234 7.43164 6.71875 7.43164C7.30469 7.43164 7.63672 7.95898 7.63672 8.64258C7.63672 9.43359 7.08984 10.2148 6.57227 10.8789L4.87305 13.0566C4.69727 13.291 4.51172 13.5254 4.51172 13.8379C4.51172 14.1602 4.72656 14.4043 5.16602 14.4043ZM12.666 14.5996C14.6094 14.5996 15.1953 12.4219 15.1953 10.459C15.1953 8.48633 14.6094 6.30859 12.666 6.30859C10.7227 6.30859 10.1367 8.48633 10.1367 10.459C10.1367 12.4219 10.7227 14.5996 12.666 14.5996ZM12.666 13.4473C11.8652 13.4473 11.5625 12.1484 11.5625 10.459C11.5625 8.75977 11.8652 7.46094 12.666 7.46094C13.4668 7.46094 13.7695 8.75977 13.7695 10.459C13.7695 12.1484 13.4668 13.4473 12.666 13.4473Z" fill="white" fill-opacity="0.85"/>
 </g>
</svg>
