<?xml version="1.0" encoding="UTF-8"?>
<!--Generator: Apple Native CoreSVG 341-->
<!DOCTYPE svg
PUBLIC "-//W3C//DTD SVG 1.1//EN"
       "http://www.w3.org/Graphics/SVG/1.1/DTD/svg11.dtd">
<svg version="1.1" xmlns="http://www.w3.org/2000/svg" xmlns:xlink="http://www.w3.org/1999/xlink" viewBox="0 0 19.8242 17.998">
 <g>
  <rect height="17.998" opacity="0" width="19.8242" x="0" y="0"/>
  <path d="M3.06641 17.998L16.4062 17.998C18.4473 17.998 19.4629 16.9824 19.4629 14.9707L19.4629 3.04688C19.4629 1.03516 18.4473 0.0195312 16.4062 0.0195312L3.06641 0.0195312C1.02539 0.0195312 0 1.02539 0 3.04688L0 14.9707C0 16.9922 1.02539 17.998 3.06641 17.998ZM2.91992 16.4258C2.05078 16.4258 1.57227 15.9668 1.57227 15.0586L1.57227 5.84961C1.57227 4.95117 2.05078 4.48242 2.91992 4.48242L16.5332 4.48242C17.4023 4.48242 17.8906 4.95117 17.8906 5.84961L17.8906 15.0586C17.8906 15.9668 17.4023 16.4258 16.5332 16.4258Z" fill="white" fill-opacity="0.85"/>
  <path d="M5.36133 14.4043L8.75 14.4043C9.0918 14.4043 9.30664 14.1797 9.30664 13.8281C9.30664 13.4668 9.08203 13.2617 8.75 13.2617L6.42578 13.2617L6.42578 13.1836L7.85156 11.377C8.83789 10.166 9.15039 9.44336 9.15039 8.58398C9.15039 7.25586 8.26172 6.30859 6.9043 6.30859C5.66406 6.30859 4.7168 7.34375 4.7168 8.35938C4.7168 8.71094 4.92188 8.97461 5.29297 8.97461C5.61523 8.97461 5.82031 8.82812 5.91797 8.50586C6.10352 7.85156 6.34766 7.43164 6.9043 7.43164C7.49023 7.43164 7.82227 7.95898 7.82227 8.64258C7.82227 9.43359 7.27539 10.2148 6.75781 10.8789L5.06836 13.0566C4.88281 13.291 4.69727 13.5254 4.69727 13.8379C4.69727 14.1602 4.91211 14.4043 5.36133 14.4043ZM10.957 14.4043L14.3457 14.4043C14.6875 14.4043 14.9023 14.1797 14.9023 13.8281C14.9023 13.4668 14.6777 13.2617 14.3457 13.2617L12.0312 13.2617L12.0312 13.1836L13.4473 11.377C14.4336 10.166 14.7559 9.44336 14.7559 8.58398C14.7559 7.25586 13.8574 6.30859 12.5098 6.30859C11.2598 6.30859 10.3125 7.34375 10.3125 8.35938C10.3125 8.71094 10.5176 8.97461 10.8984 8.97461C11.2207 8.97461 11.416 8.82812 11.5137 8.50586C11.6992 7.85156 11.9434 7.43164 12.5 7.43164C13.0859 7.43164 13.418 7.95898 13.418 8.64258C13.418 9.43359 12.8711 10.2148 12.3535 10.8789L10.6641 13.0566C10.4785 13.291 10.3027 13.5254 10.3027 13.8379C10.3027 14.1602 10.5078 14.4043 10.957 14.4043Z" fill="white" fill-opacity="0.85"/>
 </g>
</svg>
