<?xml version="1.0" encoding="UTF-8"?>
<!--Generator: Apple Native CoreSVG 341-->
<!DOCTYPE svg
PUBLIC "-//W3C//DTD SVG 1.1//EN"
       "http://www.w3.org/Graphics/SVG/1.1/DTD/svg11.dtd">
<svg version="1.1" xmlns="http://www.w3.org/2000/svg" xmlns:xlink="http://www.w3.org/1999/xlink" viewBox="0 0 19.8242 17.998">
 <g>
  <rect height="17.998" opacity="0" width="19.8242" x="0" y="0"/>
  <path d="M3.06641 17.998L16.4062 17.998C18.4473 17.998 19.4629 16.9824 19.4629 14.9707L19.4629 3.04688C19.4629 1.03516 18.4473 0.0195312 16.4062 0.0195312L3.06641 0.0195312C1.02539 0.0195312 0 1.02539 0 3.04688L0 14.9707C0 16.9922 1.02539 17.998 3.06641 17.998ZM2.91992 16.4258C2.05078 16.4258 1.57227 15.9668 1.57227 15.0586L1.57227 5.84961C1.57227 4.95117 2.05078 4.48242 2.91992 4.48242L16.5332 4.48242C17.4023 4.48242 17.8906 4.95117 17.8906 5.84961L17.8906 15.0586C17.8906 15.9668 17.4023 16.4258 16.5332 16.4258Z" fill="white" fill-opacity="0.425"/>
  <path d="M5.16602 14.4043L8.55469 14.4043C8.89648 14.4043 9.11133 14.1797 9.11133 13.8281C9.11133 13.4668 8.88672 13.2617 8.55469 13.2617L6.23047 13.2617L6.23047 13.1836L7.65625 11.377C8.64258 10.166 8.95508 9.44336 8.95508 8.58398C8.95508 7.25586 8.06641 6.30859 6.71875 6.30859C5.46875 6.30859 4.52148 7.34375 4.52148 8.35938C4.52148 8.71094 4.72656 8.97461 5.09766 8.97461C5.41992 8.97461 5.625 8.82812 5.72266 8.50586C5.9082 7.85156 6.15234 7.43164 6.70898 7.43164C7.29492 7.43164 7.62695 7.95898 7.62695 8.64258C7.62695 9.43359 7.08008 10.2148 6.5625 10.8789L4.87305 13.0566C4.6875 13.291 4.50195 13.5254 4.50195 13.8379C4.50195 14.1602 4.7168 14.4043 5.16602 14.4043ZM13.6133 14.5312C13.9746 14.5312 14.2773 14.3066 14.2773 13.8281L14.2773 12.8613L14.6289 12.8613C15 12.8613 15.1758 12.6172 15.1758 12.2852C15.1758 11.9727 15.0195 11.7285 14.6289 11.7285L14.2773 11.7285L14.2773 7.43164C14.2773 6.75781 13.8379 6.38672 13.1934 6.38672C12.5098 6.38672 12.1875 6.73828 11.9141 7.34375L10.166 11.1328C10 11.5039 9.95117 11.7578 9.95117 12.0605C9.95117 12.5293 10.2734 12.8613 10.752 12.8613L12.9297 12.8613L12.9297 13.8281C12.9297 14.3457 13.3008 14.5312 13.6133 14.5312ZM12.959 11.7578L11.1523 11.7578L11.1523 11.6895L12.9297 7.61719L12.959 7.61719Z" fill="white" fill-opacity="0.85"/>
 </g>
</svg>
