<svg version="1.1" xmlns="http://www.w3.org/2000/svg" xmlns:xlink="http://www.w3.org/1999/xlink" viewBox="0 0 19.8242 17.998">
 <g>
  <rect height="17.998" opacity="0" width="19.8242" x="0" y="0"/>
  <path d="M3.06641 17.998L16.4062 17.998C18.4473 17.998 19.4629 16.9824 19.4629 14.9707L19.4629 3.04688C19.4629 1.03516 18.4473 0.0195312 16.4062 0.0195312L3.06641 0.0195312C1.02539 0.0195312 0 1.02539 0 3.04688L0 14.9707C0 16.9922 1.02539 17.998 3.06641 17.998ZM2.91992 16.4258C2.05078 16.4258 1.57227 15.9668 1.57227 15.0586L1.57227 5.84961C1.57227 4.95117 2.05078 4.48242 2.91992 4.48242L16.5332 4.48242C17.4023 4.48242 17.8906 4.95117 17.8906 5.84961L17.8906 15.0586C17.8906 15.9668 17.4023 16.4258 16.5332 16.4258Z" fill="var(--color-secondary)"/>
  <path d="M5.10742 14.4043L8.49609 14.4043C8.83789 14.4043 9.05273 14.1797 9.05273 13.8281C9.05273 13.4668 8.82812 13.2617 8.49609 13.2617L6.18164 13.2617L6.18164 13.1836L7.59766 11.377C8.58398 10.166 8.90625 9.44336 8.90625 8.58398C8.90625 7.25586 8.00781 6.30859 6.66016 6.30859C5.41016 6.30859 4.46289 7.34375 4.46289 8.35938C4.46289 8.71094 4.66797 8.97461 5.04883 8.97461C5.37109 8.97461 5.56641 8.82812 5.66406 8.50586C5.84961 7.85156 6.09375 7.43164 6.65039 7.43164C7.23633 7.43164 7.56836 7.95898 7.56836 8.64258C7.56836 9.43359 7.02148 10.2148 6.50391 10.8789L4.81445 13.0566C4.62891 13.291 4.44336 13.5254 4.44336 13.8379C4.44336 14.1602 4.6582 14.4043 5.10742 14.4043ZM12.6465 14.5996C14.1406 14.5996 14.9902 13.3496 14.9902 11.8164C14.9902 10.5078 14.3555 9.24805 13.0566 9.24805C12.2656 9.24805 11.6699 9.78516 11.4453 10.6152L11.4062 10.6152C11.4062 10.5859 11.4062 10.5469 11.4062 10.5078C11.4062 9.43359 11.543 7.46094 12.6367 7.46094C13.0762 7.46094 13.3691 7.7832 13.5449 8.19336C13.6816 8.49609 13.8672 8.63281 14.1797 8.63281C14.5703 8.63281 14.7363 8.36914 14.7363 8.04688C14.7363 7.92969 14.7266 7.8125 14.6973 7.69531C14.4922 6.8457 13.6426 6.32812 12.666 6.32812C10.6641 6.32812 10.0781 8.56445 10.0781 10.5566C10.0781 12.4023 10.6641 14.5996 12.6465 14.5996ZM12.627 13.4668C11.8945 13.4668 11.6016 12.5488 11.6016 11.8457C11.6016 11.1328 11.9238 10.3223 12.627 10.3223C13.3496 10.3223 13.6523 11.1621 13.6328 11.8848C13.6328 12.5977 13.3105 13.4668 12.627 13.4668Z" fill="var(--color-primary)"/>
 </g>
</svg>
