<?xml version="1.0" encoding="UTF-8"?>
<!--Generator: Apple Native CoreSVG 341-->
<!DOCTYPE svg
PUBLIC "-//W3C//DTD SVG 1.1//EN"
       "http://www.w3.org/Graphics/SVG/1.1/DTD/svg11.dtd">
<svg version="1.1" xmlns="http://www.w3.org/2000/svg" xmlns:xlink="http://www.w3.org/1999/xlink" viewBox="0 0 18.3398 17.9785">
 <g>
  <rect height="17.9785" opacity="0" width="18.3398" x="0" y="0"/>
  <path d="M17.9785 3.02734L17.9785 14.9609C17.9785 16.9727 16.9629 17.9785 14.9121 17.9785L3.06641 17.9785C1.02539 17.9785 0 16.9727 0 14.9609L0 3.02734C0 1.01562 1.02539 0 3.06641 0L14.9121 0C16.9629 0 17.9785 1.01562 17.9785 3.02734ZM9.55078 6.92383C9.55078 7.94922 10.1855 8.55469 10.8301 8.75L10.8301 8.7793C9.9707 8.97461 9.31641 9.76562 9.31641 10.8594C9.31641 12.3535 10.4492 13.2324 11.9141 13.2324C13.5156 13.2324 14.541 12.2363 14.541 10.8594C14.541 9.75586 13.8379 8.96484 13.0371 8.7793L13.0371 8.75C13.7109 8.54492 14.3066 7.89062 14.3066 6.93359C14.3066 5.63477 13.3398 4.74609 11.9141 4.74609C10.6738 4.74609 9.55078 5.50781 9.55078 6.92383ZM3.52539 6.81641C3.52539 7.19727 3.75 7.46094 4.13086 7.46094C4.47266 7.46094 4.66797 7.30469 4.77539 6.97266C4.96094 6.29883 5.21484 5.87891 5.79102 5.87891C6.38672 5.87891 6.72852 6.40625 6.72852 7.11914C6.72852 7.92969 6.17188 8.75 5.63477 9.42383L3.89648 11.6602C3.70117 11.9043 3.51562 12.1484 3.51562 12.4707C3.51562 12.8125 3.73047 13.0566 4.19922 13.0566L7.69531 13.0566C8.04688 13.0566 8.27148 12.8223 8.27148 12.4707C8.27148 12.0801 8.03711 11.8652 7.69531 11.8652L5.3125 11.8652L5.3125 11.7871L6.77734 9.93164C7.7832 8.68164 8.11523 7.93945 8.11523 7.05078C8.11523 5.69336 7.1875 4.70703 5.80078 4.70703C4.51172 4.70703 3.52539 5.77148 3.52539 6.81641ZM13.0176 10.7422C13.0176 11.4941 12.6562 12.1387 11.9238 12.1387C11.1914 12.1387 10.8301 11.4941 10.8301 10.7422C10.8301 10.0195 11.1914 9.38477 11.9238 9.38477C12.6367 9.38477 13.0176 9.98047 13.0176 10.7422ZM12.8906 7.07031C12.8906 7.73438 12.5586 8.29102 11.9238 8.29102C11.2793 8.29102 10.957 7.66602 10.957 7.07031C10.957 6.42578 11.2988 5.83008 11.9238 5.83008C12.5684 5.83008 12.8906 6.42578 12.8906 7.07031Z" fill="white" fill-opacity="0.85"/>
 </g>
</svg>
