<?xml version="1.0" encoding="UTF-8"?>
<!--Generator: Apple Native CoreSVG 341-->
<!DOCTYPE svg
PUBLIC "-//W3C//DTD SVG 1.1//EN"
       "http://www.w3.org/Graphics/SVG/1.1/DTD/svg11.dtd">
<svg version="1.1" xmlns="http://www.w3.org/2000/svg" xmlns:xlink="http://www.w3.org/1999/xlink" viewBox="0 0 18.3398 17.9785">
 <g>
  <rect height="17.9785" opacity="0" width="18.3398" x="0" y="0"/>
  <path d="M3.06641 17.9785L14.9121 17.9785C16.9629 17.9785 17.9785 16.9727 17.9785 14.9609L17.9785 3.02734C17.9785 1.01562 16.9629 0 14.9121 0L3.06641 0C1.02539 0 0 1.01562 0 3.02734L0 14.9609C0 16.9727 1.02539 17.9785 3.06641 17.9785Z" fill="white" fill-opacity="0.2125"/>
  <path d="M4.28711 13.0566C3.81836 13.0566 3.60352 12.8125 3.60352 12.4707C3.60352 12.1484 3.78906 11.8945 3.98438 11.6602L5.72266 9.42383C6.25977 8.75 6.82617 7.92969 6.82617 7.11914C6.82617 6.40625 6.48438 5.87891 5.87891 5.87891C5.30273 5.87891 5.05859 6.29883 4.86328 6.97266C4.76562 7.30469 4.56055 7.45117 4.22852 7.45117C3.82812 7.45117 3.62305 7.19727 3.62305 6.81641C3.62305 5.77148 4.59961 4.70703 5.88867 4.70703C7.27539 4.70703 8.20312 5.69336 8.20312 7.05078C8.20312 7.93945 7.87109 8.68164 6.85547 9.93164L5.40039 11.7871L5.40039 11.8652L7.7832 11.8652C8.125 11.8652 8.35938 12.0801 8.35938 12.4707C8.35938 12.8223 8.13477 13.0566 7.7832 13.0566ZM11.377 10.2441C10.0391 10.2441 9.38477 8.95508 9.38477 7.59766C9.38477 6.01562 10.2734 4.72656 11.8066 4.72656C13.8477 4.72656 14.4531 7.00195 14.4531 8.90625C14.4531 10.9668 13.8477 13.252 11.7871 13.252C10.7812 13.252 9.90234 12.7246 9.6875 11.8457C9.6582 11.7285 9.62891 11.6016 9.62891 11.4844C9.62891 11.1523 9.81445 10.8691 10.2344 10.8691C10.5371 10.8691 10.7422 10.9961 10.8789 11.3281C11.0645 11.7578 11.3672 12.0703 11.8164 12.0703C12.9395 12.0703 13.0762 10.0586 13.0762 8.94531C13.0762 8.91602 13.0762 8.87695 13.0762 8.83789L13.0371 8.83789C12.8125 9.69727 12.1973 10.2441 11.377 10.2441ZM11.8262 9.13086C12.5488 9.13086 12.8906 8.31055 12.8906 7.5293C12.8906 6.77734 12.5781 5.9082 11.8262 5.9082C11.123 5.9082 10.7812 6.77734 10.7812 7.5293C10.7812 8.28125 11.084 9.13086 11.8262 9.13086Z" fill="white" fill-opacity="0.85"/>
 </g>
</svg>
