<?xml version="1.0" encoding="UTF-8"?>
<!--Generator: Apple Native CoreSVG 341-->
<!DOCTYPE svg
PUBLIC "-//W3C//DTD SVG 1.1//EN"
       "http://www.w3.org/Graphics/SVG/1.1/DTD/svg11.dtd">
<svg version="1.1" xmlns="http://www.w3.org/2000/svg" xmlns:xlink="http://www.w3.org/1999/xlink" viewBox="0 0 20.2832 19.9316">
 <g>
  <rect height="19.9316" opacity="0" width="20.2832" x="0" y="0"/>
  <path d="M9.96094 19.9219C15.459 19.9219 19.9219 15.4492 19.9219 9.96094C19.9219 4.46289 15.459 0 9.96094 0C4.47266 0 0 4.46289 0 9.96094C0 15.4492 4.47266 19.9219 9.96094 19.9219Z" fill="white" fill-opacity="0.2125"/>
  <path d="M4.79492 14.0332C4.33594 14.0332 4.12109 13.7891 4.12109 13.4473C4.12109 13.1348 4.29688 12.8809 4.49219 12.6367L6.24023 10.4102C6.77734 9.72656 7.33398 8.90625 7.33398 8.0957C7.33398 7.38281 7.00195 6.85547 6.38672 6.85547C5.81055 6.85547 5.56641 7.27539 5.37109 7.94922C5.27344 8.28125 5.06836 8.4375 4.73633 8.4375C4.3457 8.4375 4.13086 8.17383 4.13086 7.79297C4.13086 6.74805 5.10742 5.68359 6.39648 5.68359C7.7832 5.68359 8.7207 6.66992 8.7207 8.02734C8.7207 8.91602 8.38867 9.6582 7.37305 10.9082L5.9082 12.7637L5.9082 12.8516L8.29102 12.8516C8.64258 12.8516 8.86719 13.0566 8.86719 13.4473C8.86719 13.7988 8.65234 14.0332 8.29102 14.0332ZM10.8594 14.1602C10.459 14.1602 10.127 13.8281 10.127 13.418L10.127 6.49414C10.127 6.08398 10.459 5.75195 10.8594 5.75195C11.2598 5.75195 11.6016 6.08398 11.6016 6.49414L11.6016 9.27734L14.082 9.27734L14.082 6.49414C14.082 6.08398 14.4141 5.75195 14.8242 5.75195C15.2148 5.75195 15.5469 6.08398 15.5469 6.49414L15.5469 13.418C15.5469 13.8281 15.2148 14.1602 14.8242 14.1602C14.4141 14.1602 14.082 13.8281 14.082 13.418L14.082 10.5078L11.6016 10.5078L11.6016 13.418C11.6016 13.8281 11.2598 14.1602 10.8594 14.1602Z" fill="white" fill-opacity="0.85"/>
 </g>
</svg>
