<?xml version="1.0" encoding="UTF-8"?>
<!--Generator: Apple Native CoreSVG 341-->
<!DOCTYPE svg
PUBLIC "-//W3C//DTD SVG 1.1//EN"
       "http://www.w3.org/Graphics/SVG/1.1/DTD/svg11.dtd">
<svg version="1.1" xmlns="http://www.w3.org/2000/svg" xmlns:xlink="http://www.w3.org/1999/xlink" viewBox="0 0 18.3398 17.9785">
 <g>
  <rect height="17.9785" opacity="0" width="18.3398" x="0" y="0"/>
  <path d="M3.06641 17.9785L14.9121 17.9785C16.9629 17.9785 17.9785 16.9727 17.9785 14.9609L17.9785 3.02734C17.9785 1.01562 16.9629 0 14.9121 0L3.06641 0C1.02539 0 0 1.01562 0 3.02734L0 14.9609C0 16.9727 1.02539 17.9785 3.06641 17.9785ZM3.08594 16.4062C2.10938 16.4062 1.57227 15.8887 1.57227 14.873L1.57227 3.11523C1.57227 2.09961 2.10938 1.57227 3.08594 1.57227L14.8926 1.57227C15.8594 1.57227 16.4062 2.09961 16.4062 3.11523L16.4062 14.873C16.4062 15.8887 15.8594 16.4062 14.8926 16.4062Z" fill="white" fill-opacity="0.425"/>
  <path d="M9.0332 13.6328C11.123 13.6328 12.4219 12.5293 12.4219 10.9961C12.4219 9.84375 11.5527 8.92578 10.3711 8.81836L10.3711 8.74023C11.3477 8.59375 12.1094 7.69531 12.1094 6.66992C12.1094 5.3125 10.8594 4.33594 9.11133 4.33594C7.51953 4.33594 6.31836 5.07812 6.06445 6.23047C6.02539 6.36719 6.01562 6.47461 6.01562 6.62109C6.01562 7.00195 6.28906 7.26562 6.67969 7.26562C7.03125 7.26562 7.23633 7.09961 7.35352 6.75781C7.56836 6.02539 8.18359 5.56641 9.08203 5.56641C10.0586 5.56641 10.6641 6.05469 10.6641 6.8457C10.6641 7.64648 9.98047 8.24219 9.05273 8.24219L8.4375 8.24219C8.08594 8.24219 7.82227 8.48633 7.82227 8.84766C7.82227 9.18945 8.08594 9.44336 8.4375 9.44336L9.10156 9.44336C10.2051 9.44336 10.9668 10.0488 10.9668 10.9375C10.9668 11.8164 10.2051 12.3926 9.0625 12.3926C7.99805 12.3926 7.41211 11.875 7.16797 11.2012C7.04102 10.8594 6.83594 10.7031 6.49414 10.7031C6.10352 10.7031 5.83008 10.9766 5.83008 11.3672C5.83008 11.5137 5.83984 11.6016 5.86914 11.7383C6.16211 12.8613 7.43164 13.6328 9.0332 13.6328Z" fill="white" fill-opacity="0.85"/>
 </g>
</svg>
