<svg version="1.1" xmlns="http://www.w3.org/2000/svg" xmlns:xlink="http://www.w3.org/1999/xlink" viewBox="0 0 18.3398 17.9785">
 <g>
  <rect height="17.9785" opacity="0" width="18.3398" x="0" y="0"/>
  <path d="M3.06641 17.9785L14.9121 17.9785C16.9629 17.9785 17.9785 16.9727 17.9785 14.9609L17.9785 3.02734C17.9785 1.01562 16.9629 0 14.9121 0L3.06641 0C1.02539 0 0 1.01562 0 3.02734L0 14.9609C0 16.9727 1.02539 17.9785 3.06641 17.9785Z" fill="var(--color-tertiary)"/>
  <path d="M9.0332 13.7793C7.37305 13.7793 6.06445 12.9883 5.76172 11.8262C5.73242 11.6797 5.72266 11.5918 5.72266 11.4453C5.72266 11.0352 6.00586 10.752 6.41602 10.752C6.76758 10.752 6.98242 10.918 7.10938 11.2695C7.36328 11.9629 7.95898 12.4902 9.0625 12.4902C10.2344 12.4902 11.0254 11.9043 11.0254 10.9961C11.0254 10.0879 10.2344 9.46289 9.10156 9.46289L8.41797 9.46289C8.05664 9.46289 7.7832 9.19922 7.7832 8.84766C7.7832 8.4668 8.05664 8.21289 8.41797 8.21289L9.05273 8.21289C10.0098 8.21289 10.7129 7.60742 10.7129 6.77734C10.7129 5.9668 10.0879 5.46875 9.08203 5.46875C8.1543 5.46875 7.51953 5.9375 7.30469 6.68945C7.17773 7.04102 6.96289 7.2168 6.60156 7.2168C6.20117 7.2168 5.91797 6.94336 5.91797 6.54297C5.91797 6.39648 5.92773 6.28906 5.9668 6.14258C6.23047 4.95117 7.4707 4.18945 9.11133 4.18945C10.918 4.18945 12.207 5.19531 12.207 6.60156C12.207 7.65625 11.4258 8.58398 10.4102 8.73047L10.4102 8.80859C11.6309 8.92578 12.5293 9.87305 12.5293 11.0547C12.5293 12.6465 11.1914 13.7793 9.0332 13.7793Z" fill="var(--color-primary)"/>
 </g>
</svg>
