<?xml version="1.0" encoding="UTF-8"?>
<!--Generator: Apple Native CoreSVG 341-->
<!DOCTYPE svg
PUBLIC "-//W3C//DTD SVG 1.1//EN"
       "http://www.w3.org/Graphics/SVG/1.1/DTD/svg11.dtd">
<svg version="1.1" xmlns="http://www.w3.org/2000/svg" xmlns:xlink="http://www.w3.org/1999/xlink" viewBox="0 0 20.2832 23.7233">
 <g>
  <rect height="23.7233" opacity="0" width="20.2832" x="0" y="0"/>
  <path d="M8.07617 0.694677L8.07617 5.1771C8.07617 5.87046 8.55469 6.04624 9.0918 5.67515L12.207 3.48765C12.6465 3.17515 12.6562 2.7064 12.207 2.38413L9.10156 0.19663C8.55469-0.184229 8.07617-0.00844799 8.07617 0.694677ZM9.96094 21.8177C15.459 21.8177 19.9219 17.3548 19.9219 11.8568C19.9219 8.50718 18.291 5.60679 15.7715 3.79038C15.3418 3.45835 14.7852 3.57554 14.541 3.96616C14.2969 4.37632 14.4238 4.8353 14.8242 5.13804C16.8945 6.62241 18.2617 9.07358 18.2617 11.8568C18.2617 16.4466 14.5508 20.1576 9.96094 20.1576C5.37109 20.1576 1.66016 16.4466 1.66016 11.8568C1.66016 7.26694 5.37109 3.55601 9.96094 3.55601C10.4199 3.55601 10.791 3.17515 10.791 2.71616C10.791 2.27671 10.4297 1.90561 9.9707 1.89585C4.45312 1.90561 0 6.35874 0 11.8568C0 17.3548 4.46289 21.8177 9.96094 21.8177Z" fill="white" fill-opacity="0.85"/>
  <path d="M6.83594 15.9291C8.27148 15.9291 9.41406 15.099 9.41406 13.7123C9.41406 12.5892 8.67188 12.0033 7.77344 11.9154L7.77344 11.8958C8.64258 11.7005 9.16016 11.0072 9.16016 10.1576C9.16016 8.88804 8.11523 8.17515 6.80664 8.17515C5.71289 8.17515 4.77539 8.79038 4.56055 9.66929C4.53125 9.77671 4.51172 9.90366 4.51172 10.0208C4.51172 10.3236 4.67773 10.5775 5.07812 10.5775C5.41016 10.5775 5.58594 10.4408 5.69336 10.1283C5.87891 9.54233 6.25977 9.24936 6.81641 9.24936C7.4707 9.24936 7.87109 9.66929 7.87109 10.3236C7.87109 11.0365 7.38281 11.4564 6.66016 11.4564L6.37695 11.4564C6.04492 11.4564 5.84961 11.6517 5.84961 11.9544C5.84961 12.2767 6.05469 12.4525 6.37695 12.4525L6.67969 12.4525C7.4707 12.4525 8.04688 12.7943 8.04688 13.6537C8.04688 14.347 7.55859 14.8255 6.8457 14.8255C6.16211 14.8255 5.76172 14.474 5.58594 13.9369C5.45898 13.6732 5.24414 13.5072 4.98047 13.5072C4.60938 13.5072 4.375 13.7318 4.375 14.0931C4.375 14.2103 4.39453 14.3275 4.42383 14.4447C4.66797 15.431 5.80078 15.9291 6.83594 15.9291ZM13.0957 15.9291C15.0098 15.9291 15.6934 13.9662 15.6934 12.0326C15.6934 10.1087 15.0098 8.14585 13.0957 8.14585C11.1621 8.14585 10.4883 10.1185 10.4883 12.0326C10.4883 13.9759 11.1719 15.9291 13.0957 15.9291ZM13.0957 14.8255C12.2754 14.8255 11.8652 13.6244 11.8652 12.0326C11.8652 10.4505 12.2754 9.25913 13.0957 9.25913C13.9062 9.25913 14.3164 10.4505 14.3164 12.0326C14.3164 13.6244 13.9062 14.8255 13.0957 14.8255Z" fill="white" fill-opacity="0.85"/>
 </g>
</svg>
