<?xml version="1.0" encoding="UTF-8"?>
<!--Generator: Apple Native CoreSVG 341-->
<!DOCTYPE svg
PUBLIC "-//W3C//DTD SVG 1.1//EN"
       "http://www.w3.org/Graphics/SVG/1.1/DTD/svg11.dtd">
<svg version="1.1" xmlns="http://www.w3.org/2000/svg" xmlns:xlink="http://www.w3.org/1999/xlink" viewBox="0 0 20.2832 19.9316">
 <g>
  <rect height="19.9316" opacity="0" width="20.2832" x="0" y="0"/>
  <path d="M9.96094 19.9219C15.459 19.9219 19.9219 15.4492 19.9219 9.96094C19.9219 4.46289 15.459 0 9.96094 0C4.47266 0 0 4.46289 0 9.96094C0 15.4492 4.47266 19.9219 9.96094 19.9219Z" fill="white" fill-opacity="0.2125"/>
  <path d="M6.92383 14.209C5.83984 14.209 4.81445 13.6914 4.52148 12.7539C4.47266 12.5879 4.44336 12.4121 4.44336 12.2266C4.44336 11.8359 4.70703 11.5918 5.10742 11.5918C5.42969 11.5918 5.64453 11.7578 5.74219 12.0898C5.86914 12.5488 6.19141 13.0371 6.92383 13.0371C7.66602 13.0371 8.03711 12.4414 8.03711 11.748C8.03711 10.8789 7.56836 10.4102 6.70898 10.4102L6.46484 10.4102C6.13281 10.4102 5.9082 10.2148 5.9082 9.88281C5.9082 9.55078 6.12305 9.33594 6.46484 9.33594L6.69922 9.33594C7.46094 9.33594 7.86133 8.79883 7.86133 8.06641C7.86133 7.40234 7.54883 6.89453 6.88477 6.89453C6.31836 6.89453 6.00586 7.26562 5.83984 7.86133C5.74219 8.21289 5.54688 8.33984 5.19531 8.33984C4.79492 8.33984 4.58008 8.07617 4.58008 7.74414C4.58008 7.56836 4.59961 7.39258 4.6582 7.19727C4.94141 6.30859 5.84961 5.72266 6.88477 5.72266C8.19336 5.72266 9.24805 6.51367 9.24805 7.91016C9.24805 8.75 8.78906 9.57031 7.88086 9.81445L7.88086 9.84375C8.73047 9.93164 9.48242 10.5469 9.48242 11.7969C9.48242 13.3008 8.36914 14.209 6.92383 14.209ZM13.0273 14.209C11.9434 14.209 10.918 13.6914 10.625 12.7539C10.5762 12.5879 10.5469 12.4121 10.5469 12.2266C10.5469 11.8359 10.8203 11.5918 11.2109 11.5918C11.5332 11.5918 11.748 11.7578 11.8457 12.0898C11.9727 12.5488 12.3047 13.0371 13.0273 13.0371C13.7793 13.0371 14.1406 12.4414 14.1406 11.748C14.1406 10.8789 13.6719 10.4102 12.8223 10.4102L12.5586 10.4102C12.2266 10.4102 12.002 10.2148 12.002 9.88281C12.002 9.55078 12.2266 9.33594 12.5586 9.33594L12.8027 9.33594C13.5547 9.33594 13.9648 8.79883 13.9648 8.06641C13.9648 7.40234 13.6426 6.89453 12.9785 6.89453C12.4219 6.89453 12.0996 7.26562 11.9531 7.86133C11.8457 8.21289 11.6406 8.33984 11.2988 8.33984C10.8984 8.33984 10.6738 8.07617 10.6738 7.74414C10.6738 7.56836 10.7031 7.39258 10.752 7.19727C11.0449 6.30859 11.9434 5.72266 12.9785 5.72266C14.3066 5.72266 15.3418 6.51367 15.3418 7.91016C15.3418 8.75 14.9023 9.57031 13.9844 9.81445L13.9844 9.84375C14.834 9.93164 15.5859 10.5469 15.5859 11.7969C15.5859 13.3008 14.4727 14.209 13.0273 14.209Z" fill="white" fill-opacity="0.85"/>
 </g>
</svg>
