<?xml version="1.0" encoding="UTF-8"?>
<!--Generator: Apple Native CoreSVG 341-->
<!DOCTYPE svg
PUBLIC "-//W3C//DTD SVG 1.1//EN"
       "http://www.w3.org/Graphics/SVG/1.1/DTD/svg11.dtd">
<svg version="1.1" xmlns="http://www.w3.org/2000/svg" xmlns:xlink="http://www.w3.org/1999/xlink" viewBox="0 0 18.3398 17.9785">
 <g>
  <rect height="17.9785" opacity="0" width="18.3398" x="0" y="0"/>
  <path d="M17.9785 3.02734L17.9785 14.9609C17.9785 16.9727 16.9629 17.9785 14.9121 17.9785L3.06641 17.9785C1.02539 17.9785 0 16.9727 0 14.9609L0 3.02734C0 1.01562 1.02539 0 3.06641 0L14.9121 0C16.9629 0 17.9785 1.01562 17.9785 3.02734ZM3.45703 6.2207C3.4082 6.41602 3.37891 6.5918 3.37891 6.76758C3.37891 7.09961 3.60352 7.36328 4.00391 7.36328C4.3457 7.36328 4.55078 7.23633 4.6582 6.88477C4.80469 6.28906 5.12695 5.91797 5.69336 5.91797C6.34766 5.91797 6.66992 6.42578 6.66992 7.08984C6.66992 7.82227 6.25977 8.35938 5.50781 8.35938L5.26367 8.35938C4.93164 8.35938 4.70703 8.57422 4.70703 8.90625C4.70703 9.23828 4.93164 9.43359 5.26367 9.43359L5.52734 9.43359C6.37695 9.43359 6.8457 9.90234 6.8457 10.7715C6.8457 11.4648 6.48438 12.0605 5.74219 12.0605C5.00977 12.0605 4.67773 11.5723 4.55078 11.1133C4.45312 10.7812 4.23828 10.6152 3.91602 10.6152C3.52539 10.6152 3.25195 10.8594 3.25195 11.25C3.25195 11.4355 3.28125 11.6113 3.33008 11.7773C3.62305 12.7148 4.64844 13.2324 5.73242 13.2324C7.17773 13.2324 8.29102 12.3242 8.29102 10.8203C8.29102 9.57031 7.53906 8.95508 6.68945 8.86719L6.68945 8.83789C7.60742 8.59375 8.04688 7.77344 8.04688 6.93359C8.04688 5.53711 7.01172 4.74609 5.69336 4.74609C4.64844 4.74609 3.75 5.33203 3.45703 6.2207ZM11.3281 5.77148L9.53125 9.67773C9.36523 10.0684 9.30664 10.332 9.30664 10.6445C9.30664 11.1328 9.63867 11.4648 10.1367 11.4648L12.3926 11.4648L12.3926 12.4609C12.3926 12.998 12.7637 13.1836 13.0859 13.1836C13.457 13.1836 13.7793 12.9492 13.7793 12.4609L13.7793 11.4648L14.1309 11.4648C14.5215 11.4648 14.707 11.2109 14.707 10.8691C14.707 10.5469 14.541 10.293 14.1309 10.293L13.7793 10.293L13.7793 5.87891C13.7793 5.17578 13.3203 4.78516 12.6465 4.78516C11.9434 4.78516 11.6113 5.14648 11.3281 5.77148ZM12.4219 10.3223L10.5469 10.3223L10.5469 10.2539L12.3828 6.05469L12.4219 6.05469Z" fill="white" fill-opacity="0.85"/>
 </g>
</svg>
