<?xml version="1.0" encoding="UTF-8"?>
<!--Generator: Apple Native CoreSVG 341-->
<!DOCTYPE svg
PUBLIC "-//W3C//DTD SVG 1.1//EN"
       "http://www.w3.org/Graphics/SVG/1.1/DTD/svg11.dtd">
<svg version="1.1" xmlns="http://www.w3.org/2000/svg" xmlns:xlink="http://www.w3.org/1999/xlink" viewBox="0 0 18.3398 17.9785">
 <g>
  <rect height="17.9785" opacity="0" width="18.3398" x="0" y="0"/>
  <path d="M3.06641 17.9785L14.9121 17.9785C16.9629 17.9785 17.9785 16.9727 17.9785 14.9609L17.9785 3.02734C17.9785 1.01562 16.9629 0 14.9121 0L3.06641 0C1.02539 0 0 1.01562 0 3.02734L0 14.9609C0 16.9727 1.02539 17.9785 3.06641 17.9785Z" fill="white" fill-opacity="0.2125"/>
  <path d="M5.92773 13.2324C4.85352 13.2324 3.81836 12.7148 3.53516 11.7773C3.47656 11.6113 3.44727 11.4355 3.44727 11.25C3.44727 10.8594 3.7207 10.6152 4.12109 10.6152C4.44336 10.6152 4.6582 10.7812 4.75586 11.1035C4.87305 11.5723 5.20508 12.0605 5.9375 12.0605C6.67969 12.0605 7.04102 11.4648 7.04102 10.7715C7.04102 9.90234 6.58203 9.43359 5.73242 9.43359L5.46875 9.43359C5.13672 9.43359 4.91211 9.23828 4.91211 8.90625C4.91211 8.57422 5.13672 8.35938 5.46875 8.35938L5.71289 8.35938C6.46484 8.35938 6.875 7.82227 6.875 7.08984C6.875 6.42578 6.5625 5.91797 5.88867 5.91797C5.33203 5.91797 5.00977 6.28906 4.85352 6.88477C4.75586 7.23633 4.55078 7.36328 4.20898 7.36328C3.79883 7.36328 3.58398 7.09961 3.58398 6.76758C3.58398 6.5918 3.61328 6.41602 3.66211 6.2207C3.95508 5.33203 4.85352 4.74609 5.88867 4.74609C7.20703 4.74609 8.25195 5.53711 8.25195 6.93359C8.25195 7.77344 7.80273 8.59375 6.89453 8.82812L6.89453 8.86719C7.74414 8.95508 8.49609 9.57031 8.49609 10.8203C8.49609 12.3242 7.38281 13.2324 5.92773 13.2324ZM12.0508 13.2617C11.1426 13.2617 10.2441 12.7344 9.89258 11.9141C9.81445 11.7188 9.74609 11.4941 9.74609 11.2598C9.74609 10.8887 9.98047 10.6543 10.3613 10.6543C10.6348 10.6543 10.8496 10.8008 10.9766 11.1328C11.1523 11.6797 11.4746 12.0801 12.0312 12.0801C12.7832 12.0801 13.0762 11.2305 13.0762 10.3906C13.0762 9.64844 12.793 8.75977 12.0508 8.75977C11.6504 8.75977 11.3965 8.99414 11.1621 9.32617C10.957 9.59961 10.791 9.70703 10.5176 9.70703C10.0488 9.70703 9.86328 9.36523 9.86328 8.98438C9.86328 8.84766 9.86328 8.69141 9.87305 8.53516L10.0293 5.78125C10.0684 5.25391 10.3027 4.91211 10.8398 4.91211L13.6035 4.91211C13.9453 4.91211 14.1699 5.17578 14.1699 5.50781C14.1699 5.86914 13.9551 6.11328 13.6035 6.11328L11.25 6.11328L11.0742 8.54492L11.123 8.54492C11.3867 7.96875 11.9336 7.69531 12.5293 7.69531C13.8281 7.69531 14.4922 8.96484 14.4922 10.3516C14.4922 11.9434 13.623 13.2617 12.0508 13.2617Z" fill="white" fill-opacity="0.85"/>
 </g>
</svg>
