<?xml version="1.0" encoding="UTF-8"?>
<!--Generator: Apple Native CoreSVG 341-->
<!DOCTYPE svg
PUBLIC "-//W3C//DTD SVG 1.1//EN"
       "http://www.w3.org/Graphics/SVG/1.1/DTD/svg11.dtd">
<svg version="1.1" xmlns="http://www.w3.org/2000/svg" xmlns:xlink="http://www.w3.org/1999/xlink" viewBox="0 0 18.3398 17.9785">
 <g>
  <rect height="17.9785" opacity="0" width="18.3398" x="0" y="0"/>
  <path d="M17.9785 3.02734L17.9785 14.9609C17.9785 16.9727 16.9629 17.9785 14.9121 17.9785L3.06641 17.9785C1.02539 17.9785 0 16.9727 0 14.9609L0 3.02734C0 1.01562 1.02539 0 3.06641 0L14.9121 0C16.9629 0 17.9785 1.01562 17.9785 3.02734ZM9.47266 9.08203C9.47266 10.9863 10.0879 13.2617 12.1289 13.2617C13.6621 13.2617 14.5508 11.9727 14.5508 10.3906C14.5508 9.0332 13.8867 7.74414 12.5586 7.74414C11.7383 7.74414 11.1133 8.29102 10.8984 9.15039L10.8594 9.15039C10.8594 9.11133 10.8594 9.07227 10.8594 9.04297C10.8594 7.92969 10.9863 5.9082 12.1094 5.9082C12.5586 5.9082 12.8613 6.23047 13.0469 6.65039C13.1836 6.96289 13.3789 7.09961 13.7012 7.09961C14.1016 7.09961 14.2871 6.82617 14.2871 6.49414C14.2871 6.38672 14.2676 6.25977 14.2383 6.13281C14.0234 5.26367 13.1445 4.72656 12.1387 4.72656C10.0781 4.72656 9.47266 7.04102 9.47266 9.08203ZM3.56445 6.2207C3.51562 6.41602 3.48633 6.5918 3.48633 6.76758C3.48633 7.09961 3.71094 7.36328 4.11133 7.36328C4.45312 7.36328 4.6582 7.23633 4.75586 6.88477C4.92188 6.28906 5.22461 5.91797 5.80078 5.91797C6.46484 5.91797 6.77734 6.42578 6.77734 7.08984C6.77734 7.82227 6.37695 8.35938 5.61523 8.35938L5.38086 8.35938C5.03906 8.35938 4.81445 8.57422 4.81445 8.90625C4.81445 9.23828 5.04883 9.43359 5.38086 9.43359L5.625 9.43359C6.48438 9.43359 6.95312 9.90234 6.95312 10.7715C6.95312 11.4648 6.58203 12.0605 5.83984 12.0605C5.10742 12.0605 4.77539 11.5723 4.6582 11.1133C4.56055 10.7812 4.3457 10.6152 4.01367 10.6152C3.62305 10.6152 3.35938 10.8594 3.35938 11.25C3.35938 11.4355 3.37891 11.6113 3.4375 11.7773C3.7207 12.7148 4.75586 13.2324 5.83984 13.2324C7.28516 13.2324 8.38867 12.3242 8.38867 10.8203C8.38867 9.57031 7.64648 8.95508 6.79688 8.86719L6.79688 8.83789C7.70508 8.59375 8.1543 7.77344 8.1543 6.93359C8.1543 5.53711 7.10938 4.74609 5.80078 4.74609C4.75586 4.74609 3.85742 5.33203 3.56445 6.2207ZM13.1348 10.459C13.1348 11.1914 12.8027 12.0801 12.1094 12.0801C11.3477 12.0801 11.0449 11.1328 11.0449 10.4102C11.0449 9.67773 11.377 8.84766 12.0996 8.84766C12.8418 8.84766 13.1543 9.7168 13.1348 10.459Z" fill="white" fill-opacity="0.85"/>
 </g>
</svg>
