<svg version="1.1" xmlns="http://www.w3.org/2000/svg" xmlns:xlink="http://www.w3.org/1999/xlink" viewBox="0 0 20.2832 19.9316">
 <g>
  <rect height="19.9316" opacity="0" width="20.2832" x="0" y="0"/>
  <path d="M9.96094 19.9219C15.459 19.9219 19.9219 15.459 19.9219 9.96094C19.9219 4.46289 15.459 0 9.96094 0C4.46289 0 0 4.46289 0 9.96094C0 15.459 4.46289 19.9219 9.96094 19.9219ZM9.96094 18.2617C5.37109 18.2617 1.66016 14.5508 1.66016 9.96094C1.66016 5.37109 5.37109 1.66016 9.96094 1.66016C14.5508 1.66016 18.2617 5.37109 18.2617 9.96094C18.2617 14.5508 14.5508 18.2617 9.96094 18.2617Z" fill="var(--color-secondary)"/>
  <path d="M6.88477 14.082C8.29102 14.082 9.36523 13.2031 9.36523 11.7383C9.36523 10.5273 8.64258 9.93164 7.8125 9.84375L7.8125 9.81445C8.70117 9.58008 9.13086 8.78906 9.13086 7.96875C9.13086 6.62109 8.125 5.84961 6.8457 5.84961C5.83984 5.84961 4.9707 6.41602 4.6875 7.28516C4.63867 7.4707 4.60938 7.64648 4.60938 7.8125C4.60938 8.13477 4.82422 8.38867 5.21484 8.38867C5.54688 8.38867 5.74219 8.26172 5.83984 7.91992C5.98633 7.34375 6.29883 6.98242 6.8457 6.98242C7.5 6.98242 7.80273 7.48047 7.80273 8.125C7.80273 8.83789 7.40234 9.35547 6.66992 9.35547L6.43555 9.35547C6.11328 9.35547 5.89844 9.56055 5.89844 9.88281C5.89844 10.2051 6.11328 10.3906 6.43555 10.3906L6.68945 10.3906C7.51953 10.3906 7.96875 10.8496 7.96875 11.6992C7.96875 12.373 7.61719 12.9492 6.89453 12.9492C6.18164 12.9492 5.85938 12.4707 5.74219 12.0215C5.64453 11.709 5.43945 11.543 5.12695 11.543C4.74609 11.543 4.48242 11.7773 4.48242 12.1582C4.48242 12.334 4.51172 12.5098 4.56055 12.666C4.84375 13.5742 5.83984 14.082 6.88477 14.082ZM12.9199 14.082C14.4727 14.082 15.459 13.1152 15.459 11.7773C15.459 10.7129 14.7852 9.94141 14.0039 9.76562L14.0039 9.73633C14.6582 9.53125 15.2344 8.89648 15.2344 7.96875C15.2344 6.70898 14.2969 5.84961 12.9199 5.84961C11.709 5.84961 10.625 6.5918 10.625 7.95898C10.625 8.95508 11.2402 9.54102 11.8652 9.73633L11.8652 9.76562C11.0352 9.95117 10.4004 10.7227 10.4004 11.7773C10.4004 13.2227 11.4941 14.082 12.9199 14.082ZM12.9199 9.28711C12.3047 9.28711 11.9824 8.68164 11.9824 8.10547C11.9824 7.48047 12.3145 6.89453 12.9199 6.89453C13.5547 6.89453 13.8672 7.48047 13.8672 8.10547C13.8672 8.75 13.5449 9.28711 12.9199 9.28711ZM12.9199 13.0273C12.2168 13.0273 11.8652 12.3926 11.8652 11.6699C11.8652 10.9668 12.2168 10.3418 12.9199 10.3418C13.623 10.3418 13.9941 10.9277 13.9941 11.6699C13.9941 12.3926 13.6426 13.0273 12.9199 13.0273Z" fill="var(--color-primary)"/>
 </g>
</svg>
