<?xml version="1.0" encoding="UTF-8"?>
<!--Generator: Apple Native CoreSVG 341-->
<!DOCTYPE svg
PUBLIC "-//W3C//DTD SVG 1.1//EN"
       "http://www.w3.org/Graphics/SVG/1.1/DTD/svg11.dtd">
<svg version="1.1" xmlns="http://www.w3.org/2000/svg" xmlns:xlink="http://www.w3.org/1999/xlink" viewBox="0 0 18.3398 17.9785">
 <g>
  <rect height="17.9785" opacity="0" width="18.3398" x="0" y="0"/>
  <path d="M17.9785 3.02734L17.9785 14.9609C17.9785 16.9727 16.9629 17.9785 14.9121 17.9785L3.06641 17.9785C1.02539 17.9785 0 16.9727 0 14.9609L0 3.02734C0 1.01562 1.02539 0 3.06641 0L14.9121 0C16.9629 0 17.9785 1.01562 17.9785 3.02734ZM3.55469 6.2207C3.50586 6.41602 3.48633 6.5918 3.48633 6.76758C3.48633 7.09961 3.71094 7.36328 4.10156 7.36328C4.45312 7.36328 4.64844 7.23633 4.75586 6.88477C4.91211 6.28906 5.22461 5.91797 5.80078 5.91797C6.46484 5.91797 6.76758 6.42578 6.76758 7.08984C6.76758 7.82227 6.35742 8.35938 5.61523 8.35938L5.38086 8.35938C5.0293 8.35938 4.81445 8.57422 4.81445 8.90625C4.81445 9.23828 5.03906 9.43359 5.38086 9.43359L5.625 9.43359C6.48438 9.43359 6.95312 9.90234 6.95312 10.7715C6.95312 11.4648 6.58203 12.0605 5.83984 12.0605C5.10742 12.0605 4.77539 11.5723 4.64844 11.1133C4.56055 10.7812 4.33594 10.6152 4.01367 10.6152C3.62305 10.6152 3.35938 10.8594 3.35938 11.25C3.35938 11.4355 3.37891 11.6113 3.42773 11.7773C3.7207 12.7148 4.74609 13.2324 5.83008 13.2324C7.27539 13.2324 8.38867 12.3242 8.38867 10.8203C8.38867 9.57031 7.64648 8.95508 6.79688 8.86719L6.79688 8.83789C7.70508 8.59375 8.14453 7.77344 8.14453 6.93359C8.14453 5.53711 7.10938 4.74609 5.80078 4.74609C4.74609 4.74609 3.84766 5.33203 3.55469 6.2207ZM9.6875 6.92383C9.6875 7.94922 10.3223 8.55469 10.9668 8.75L10.9668 8.7793C10.1074 8.97461 9.45312 9.76562 9.45312 10.8594C9.45312 12.3535 10.5859 13.2324 12.0605 13.2324C13.6621 13.2324 14.6777 12.2363 14.6777 10.8594C14.6777 9.75586 13.9844 8.96484 13.1738 8.7793L13.1738 8.75C13.8477 8.54492 14.4434 7.89062 14.4434 6.93359C14.4434 5.625 13.4766 4.74609 12.0605 4.74609C10.8203 4.74609 9.6875 5.50781 9.6875 6.92383ZM13.1641 10.7422C13.1641 11.4844 12.8027 12.1387 12.0703 12.1387C11.3379 12.1387 10.9766 11.4844 10.9766 10.7422C10.9766 10.0195 11.3379 9.375 12.0703 9.375C12.7832 9.375 13.1641 9.98047 13.1641 10.7422ZM13.0273 7.07031C13.0273 7.73438 12.7051 8.29102 12.0703 8.29102C11.4258 8.29102 11.0938 7.66602 11.0938 7.07031C11.0938 6.42578 11.4453 5.83008 12.0703 5.83008C12.7148 5.83008 13.0273 6.42578 13.0273 7.07031Z" fill="white" fill-opacity="0.85"/>
 </g>
</svg>
