<?xml version="1.0" encoding="UTF-8"?>
<!--Generator: Apple Native CoreSVG 341-->
<!DOCTYPE svg
PUBLIC "-//W3C//DTD SVG 1.1//EN"
       "http://www.w3.org/Graphics/SVG/1.1/DTD/svg11.dtd">
<svg version="1.1" xmlns="http://www.w3.org/2000/svg" xmlns:xlink="http://www.w3.org/1999/xlink" viewBox="0 0 18.3398 17.9785">
 <g>
  <rect height="17.9785" opacity="0" width="18.3398" x="0" y="0"/>
  <path d="M3.06641 17.9785L14.9121 17.9785C16.9629 17.9785 17.9785 16.9727 17.9785 14.9609L17.9785 3.02734C17.9785 1.01562 16.9629 0 14.9121 0L3.06641 0C1.02539 0 0 1.01562 0 3.02734L0 14.9609C0 16.9727 1.02539 17.9785 3.06641 17.9785ZM3.08594 16.4062C2.10938 16.4062 1.57227 15.8887 1.57227 14.873L1.57227 3.11523C1.57227 2.09961 2.10938 1.57227 3.08594 1.57227L14.8926 1.57227C15.8594 1.57227 16.4062 2.09961 16.4062 3.11523L16.4062 14.873C16.4062 15.8887 15.8594 16.4062 14.8926 16.4062Z" fill="white" fill-opacity="0.425"/>
  <path d="M5.92773 13.1055C7.33398 13.1055 8.4082 12.2266 8.4082 10.7617C8.4082 9.55078 7.68555 8.95508 6.86523 8.86719L6.86523 8.83789C7.74414 8.60352 8.17383 7.8125 8.17383 6.99219C8.17383 5.64453 7.16797 4.87305 5.89844 4.87305C4.88281 4.87305 4.01367 5.43945 3.73047 6.30859C3.68164 6.49414 3.66211 6.66992 3.66211 6.83594C3.66211 7.1582 3.86719 7.41211 4.25781 7.41211C4.58984 7.41211 4.78516 7.28516 4.88281 6.94336C5.03906 6.36719 5.3418 6.00586 5.89844 6.00586C6.54297 6.00586 6.8457 6.50391 6.8457 7.14844C6.8457 7.86133 6.44531 8.37891 5.72266 8.37891L5.48828 8.37891C5.15625 8.37891 4.94141 8.58398 4.94141 8.90625C4.94141 9.22852 5.16602 9.41406 5.48828 9.41406L5.73242 9.41406C6.5625 9.41406 7.02148 9.87305 7.02148 10.7227C7.02148 11.3965 6.66016 11.9727 5.9375 11.9727C5.22461 11.9727 4.90234 11.4941 4.78516 11.0449C4.69727 10.7324 4.48242 10.5664 4.16992 10.5664C3.78906 10.5664 3.53516 10.8008 3.53516 11.1816C3.53516 11.3574 3.55469 11.5332 3.60352 11.6895C3.88672 12.5977 4.88281 13.1055 5.92773 13.1055ZM11.9629 13.1055C13.5156 13.1055 14.502 12.1387 14.502 10.8008C14.502 9.73633 13.8281 8.96484 13.0469 8.78906L13.0469 8.75977C13.7012 8.55469 14.2773 7.91992 14.2773 6.99219C14.2773 5.73242 13.3398 4.87305 11.9629 4.87305C10.7617 4.87305 9.66797 5.61523 9.66797 6.98242C9.66797 7.97852 10.2832 8.56445 10.9082 8.75977L10.9082 8.78906C10.0781 8.97461 9.44336 9.74609 9.44336 10.8008C9.44336 12.2461 10.5371 13.1055 11.9629 13.1055ZM11.9727 8.31055C11.3477 8.31055 11.0254 7.70508 11.0254 7.12891C11.0254 6.50391 11.3672 5.91797 11.9727 5.91797C12.6074 5.91797 12.9102 6.50391 12.9102 7.12891C12.9102 7.77344 12.5879 8.31055 11.9727 8.31055ZM11.9727 12.0508C11.2598 12.0508 10.9082 11.416 10.9082 10.6934C10.9082 9.99023 11.2598 9.36523 11.9727 9.36523C12.666 9.36523 13.0371 9.95117 13.0371 10.6934C13.0371 11.416 12.6855 12.0508 11.9727 12.0508Z" fill="white" fill-opacity="0.85"/>
 </g>
</svg>
