<?xml version="1.0" encoding="UTF-8"?>
<!--Generator: Apple Native CoreSVG 341-->
<!DOCTYPE svg
PUBLIC "-//W3C//DTD SVG 1.1//EN"
       "http://www.w3.org/Graphics/SVG/1.1/DTD/svg11.dtd">
<svg version="1.1" xmlns="http://www.w3.org/2000/svg" xmlns:xlink="http://www.w3.org/1999/xlink" viewBox="0 0 20.2832 19.9316">
 <g>
  <rect height="19.9316" opacity="0" width="20.2832" x="0" y="0"/>
  <path d="M9.96094 19.9219C15.459 19.9219 19.9219 15.459 19.9219 9.96094C19.9219 4.46289 15.459 0 9.96094 0C4.46289 0 0 4.46289 0 9.96094C0 15.459 4.46289 19.9219 9.96094 19.9219ZM9.96094 18.2617C5.37109 18.2617 1.66016 14.5508 1.66016 9.96094C1.66016 5.37109 5.37109 1.66016 9.96094 1.66016C14.5508 1.66016 18.2617 5.37109 18.2617 9.96094C18.2617 14.5508 14.5508 18.2617 9.96094 18.2617Z" fill="white" fill-opacity="0.425"/>
  <path d="M7.91016 14.0332C8.28125 14.0332 8.57422 13.8086 8.57422 13.3398L8.57422 12.3633L8.92578 12.3633C9.30664 12.3633 9.48242 12.1191 9.48242 11.7871C9.48242 11.4746 9.31641 11.2305 8.92578 11.2305L8.57422 11.2305L8.57422 6.94336C8.57422 6.26953 8.13477 5.88867 7.5 5.88867C6.80664 5.88867 6.48438 6.24023 6.21094 6.8457L4.47266 10.6348C4.30664 11.0156 4.24805 11.2695 4.24805 11.5723C4.24805 12.041 4.57031 12.3633 5.04883 12.3633L7.23633 12.3633L7.23633 13.3398C7.23633 13.8574 7.60742 14.0332 7.91016 14.0332ZM7.26562 11.2598L5.44922 11.2598L5.44922 11.1914L7.22656 7.11914L7.26562 7.11914ZM11.1035 13.9062L14.4922 13.9062C14.834 13.9062 15.0488 13.6816 15.0488 13.3398C15.0488 12.9688 14.8242 12.7637 14.4922 12.7637L12.1777 12.7637L12.1777 12.6855L13.5938 10.8789C14.5801 9.66797 14.9023 8.94531 14.9023 8.08594C14.9023 6.76758 14.0039 5.81055 12.6562 5.81055C11.4062 5.81055 10.459 6.8457 10.459 7.86133C10.459 8.22266 10.6641 8.47656 11.0449 8.47656C11.3672 8.47656 11.5625 8.33008 11.6602 8.00781C11.8457 7.35352 12.0898 6.94336 12.6465 6.94336C13.2324 6.94336 13.5645 7.46094 13.5645 8.1543C13.5645 8.93555 13.0176 9.72656 12.5 10.3906L10.8105 12.5586C10.625 12.793 10.4395 13.0371 10.4395 13.3398C10.4395 13.6719 10.6543 13.9062 11.1035 13.9062Z" fill="white" fill-opacity="0.85"/>
 </g>
</svg>
