<?xml version="1.0" encoding="UTF-8"?>
<!--Generator: Apple Native CoreSVG 341-->
<!DOCTYPE svg
PUBLIC "-//W3C//DTD SVG 1.1//EN"
       "http://www.w3.org/Graphics/SVG/1.1/DTD/svg11.dtd">
<svg version="1.1" xmlns="http://www.w3.org/2000/svg" xmlns:xlink="http://www.w3.org/1999/xlink" viewBox="0 0 18.3398 17.9785">
 <g>
  <rect height="17.9785" opacity="0" width="18.3398" x="0" y="0"/>
  <path d="M3.06641 17.9785L14.9121 17.9785C16.9629 17.9785 17.9785 16.9727 17.9785 14.9609L17.9785 3.02734C17.9785 1.01562 16.9629 0 14.9121 0L3.06641 0C1.02539 0 0 1.01562 0 3.02734L0 14.9609C0 16.9727 1.02539 17.9785 3.06641 17.9785Z" fill="white" fill-opacity="0.2125"/>
  <path d="M6.9043 13.1836C6.58203 13.1836 6.19141 12.998 6.19141 12.4609L6.19141 11.4648L3.94531 11.4648C3.45703 11.4648 3.11523 11.1328 3.11523 10.6445C3.11523 10.332 3.17383 10.0684 3.34961 9.67773L5.14648 5.77148C5.42969 5.14648 5.76172 4.78516 6.46484 4.78516C7.12891 4.78516 7.58789 5.17578 7.58789 5.87891L7.58789 10.293L7.93945 10.293C8.34961 10.293 8.51562 10.5469 8.51562 10.8691C8.51562 11.2109 8.33984 11.4648 7.93945 11.4648L7.58789 11.4648L7.58789 12.4609C7.58789 12.9492 7.27539 13.1836 6.9043 13.1836ZM6.2207 10.3223L6.2207 6.05469L6.18164 6.05469L4.36523 10.2539L4.36523 10.3223ZM12.0215 13.2617C11.123 13.2617 10.2246 12.7344 9.86328 11.9141C9.78516 11.7188 9.72656 11.4941 9.72656 11.2598C9.72656 10.8887 9.96094 10.6543 10.332 10.6543C10.5957 10.6543 10.8301 10.8008 10.9375 11.123C11.1328 11.6797 11.4453 12.0801 12.002 12.0801C12.7441 12.0801 13.0469 11.2305 13.0469 10.3906C13.0469 9.64844 12.7637 8.75977 12.0215 8.75977C11.6211 8.75977 11.377 8.99414 11.1426 9.32617C10.9277 9.59961 10.7715 9.70703 10.498 9.70703C10.0293 9.70703 9.82422 9.36523 9.82422 8.98438C9.82422 8.84766 9.83398 8.69141 9.84375 8.53516L10.0098 5.78125C10.0488 5.25391 10.2832 4.91211 10.8203 4.91211L13.5742 4.91211C13.916 4.91211 14.1406 5.17578 14.1406 5.50781C14.1406 5.86914 13.9258 6.10352 13.5742 6.10352L11.2207 6.10352L11.0547 8.54492L11.1035 8.54492C11.3574 7.96875 11.9043 7.69531 12.5 7.69531C13.7988 7.69531 14.4629 8.96484 14.4629 10.3516C14.4629 11.9434 13.5938 13.2617 12.0215 13.2617Z" fill="white" fill-opacity="0.85"/>
 </g>
</svg>
