<svg version="1.1" xmlns="http://www.w3.org/2000/svg" xmlns:xlink="http://www.w3.org/1999/xlink" viewBox="0 0 18.3398 17.9785">
 <g>
  <rect height="17.9785" opacity="0" width="18.3398" x="0" y="0"/>
  <path d="M3.06641 17.9785L14.9121 17.9785C16.9629 17.9785 17.9785 16.9727 17.9785 14.9609L17.9785 3.02734C17.9785 1.01562 16.9629 0 14.9121 0L3.06641 0C1.02539 0 0 1.01562 0 3.02734L0 14.9609C0 16.9727 1.02539 17.9785 3.06641 17.9785Z" fill="var(--color-tertiary)"/>
  <path d="M6.70898 13.1836C6.38672 13.1836 6.01562 12.998 6.01562 12.4609L6.01562 11.4648L3.75977 11.4648C3.27148 11.4648 2.92969 11.1328 2.92969 10.6445C2.92969 10.332 2.99805 10.0684 3.1543 9.67773L4.95117 5.77148C5.23438 5.14648 5.56641 4.78516 6.2793 4.78516C6.94336 4.78516 7.40234 5.17578 7.40234 5.87891L7.40234 10.293L7.76367 10.293C8.16406 10.293 8.33008 10.5469 8.33008 10.8691C8.33008 11.2109 8.14453 11.4648 7.76367 11.4648L7.40234 11.4648L7.40234 12.4609C7.40234 12.9492 7.08984 13.1836 6.70898 13.1836ZM6.04492 10.3223L6.04492 6.05469L6.00586 6.05469L4.17969 10.2539L4.17969 10.3223ZM11.9531 13.2324C10.4785 13.2324 9.3457 12.3535 9.3457 10.8594C9.3457 9.76562 10.0098 8.97461 10.8691 8.7793L10.8691 8.75C10.2246 8.55469 9.57031 7.94922 9.57031 6.92383C9.57031 5.50781 10.7031 4.74609 11.9531 4.74609C13.3789 4.74609 14.3457 5.625 14.3457 6.93359C14.3457 7.89062 13.7402 8.54492 13.0664 8.75L13.0664 8.7793C13.8672 8.96484 14.5703 9.75586 14.5703 10.8594C14.5703 12.2363 13.5449 13.2324 11.9531 13.2324ZM11.9531 8.29102C12.5879 8.29102 12.9199 7.73438 12.9199 7.07031C12.9199 6.42578 12.6074 5.83008 11.9531 5.83008C11.3281 5.83008 10.9961 6.42578 10.9961 7.07031C10.9961 7.66602 11.3086 8.29102 11.9531 8.29102ZM11.9531 12.1387C12.6953 12.1387 13.0566 11.4844 13.0566 10.7422C13.0566 9.98047 12.666 9.375 11.9531 9.375C11.2305 9.375 10.8594 10.0195 10.8594 10.7422C10.8594 11.4844 11.2207 12.1387 11.9531 12.1387Z" fill="var(--color-primary)"/>
 </g>
</svg>
