<?xml version="1.0" encoding="UTF-8"?>
<!--Generator: Apple Native CoreSVG 341-->
<!DOCTYPE svg
PUBLIC "-//W3C//DTD SVG 1.1//EN"
       "http://www.w3.org/Graphics/SVG/1.1/DTD/svg11.dtd">
<svg version="1.1" xmlns="http://www.w3.org/2000/svg" xmlns:xlink="http://www.w3.org/1999/xlink" viewBox="0 0 25.1562 14.4434">
 <g>
  <rect height="14.4434" opacity="0" width="25.1562" x="0" y="0"/>
  <path d="M7.76367 14.4238C8.24219 14.4238 8.59375 14.0527 8.59375 13.5449L8.59375 11.2207L9.88281 11.2207C10.3418 11.2207 10.6543 10.9473 10.6543 10.4883C10.6543 10.0586 10.332 9.75586 9.88281 9.75586L8.59375 9.75586L8.59375 1.36719C8.59375 0.576172 8.00781 0.00976562 7.1875 0.00976562C6.30859 0.00976562 5.80078 0.654297 5.3418 1.37695L0.361328 9.01367C0.126953 9.38477 0 9.77539 0 10.127C0 10.752 0.410156 11.2207 1.19141 11.2207L6.93359 11.2207L6.93359 13.5449C6.93359 14.1504 7.36328 14.4238 7.76367 14.4238ZM6.94336 9.77539L1.63086 9.77539L1.63086 9.6875L6.85547 1.74805L6.94336 1.74805ZM14.4531 14.4238C14.9316 14.4238 15.3223 14.0332 15.3223 13.5547L15.3223 7.80273L23.0566 7.80273L23.0566 13.5547C23.0566 14.0332 23.4473 14.4238 23.9258 14.4238C24.4043 14.4238 24.7949 14.0332 24.7949 13.5547L24.7949 0.869141C24.7949 0.380859 24.4043 0 23.9258 0C23.4473 0 23.0566 0.380859 23.0566 0.869141L23.0566 6.28906L15.3223 6.28906L15.3223 0.869141C15.3223 0.380859 14.9316 0 14.4531 0C13.9746 0 13.584 0.380859 13.584 0.869141L13.584 13.5547C13.584 14.0332 13.9746 14.4238 14.4531 14.4238Z" fill="white" fill-opacity="0.85"/>
 </g>
</svg>
