<?xml version="1.0" encoding="UTF-8"?>
<!--Generator: Apple Native CoreSVG 341-->
<!DOCTYPE svg
PUBLIC "-//W3C//DTD SVG 1.1//EN"
       "http://www.w3.org/Graphics/SVG/1.1/DTD/svg11.dtd">
<svg version="1.1" xmlns="http://www.w3.org/2000/svg" xmlns:xlink="http://www.w3.org/1999/xlink" viewBox="0 0 20.2832 23.7233">
 <g>
  <rect height="23.7233" opacity="0" width="20.2832" x="0" y="0"/>
  <path d="M8.07617 0.694677L8.07617 5.1771C8.07617 5.87046 8.55469 6.04624 9.0918 5.67515L12.207 3.48765C12.6465 3.17515 12.6562 2.7064 12.207 2.38413L9.10156 0.19663C8.55469-0.184229 8.07617-0.00844799 8.07617 0.694677ZM9.96094 21.8177C15.459 21.8177 19.9219 17.3548 19.9219 11.8568C19.9219 8.50718 18.291 5.60679 15.7715 3.79038C15.3418 3.45835 14.7852 3.57554 14.541 3.96616C14.2969 4.37632 14.4238 4.8353 14.8242 5.13804C16.8945 6.62241 18.2617 9.07358 18.2617 11.8568C18.2617 16.4466 14.5508 20.1576 9.96094 20.1576C5.37109 20.1576 1.66016 16.4466 1.66016 11.8568C1.66016 7.26694 5.37109 3.55601 9.96094 3.55601C10.4199 3.55601 10.791 3.17515 10.791 2.71616C10.791 2.27671 10.4297 1.90561 9.9707 1.89585C4.45312 1.90561 0 6.35874 0 11.8568C0 17.3548 4.46289 21.8177 9.96094 21.8177Z" fill="white" fill-opacity="0.85"/>
  <path d="M9.99023 15.9486C11.5137 15.9486 12.4609 14.8158 12.4609 13.2923C12.4609 11.9837 11.7188 10.8607 10.4297 10.8607C9.78516 10.8607 9.23828 11.1634 8.97461 11.6615L8.93555 11.6615L9.10156 9.43491L11.5918 9.43491C11.9141 9.43491 12.1289 9.22007 12.1289 8.88804C12.1289 8.55601 11.9238 8.34116 11.5918 8.34116L8.75977 8.34116C8.25195 8.34116 8.01758 8.6146 7.97852 9.12241L7.77344 11.974C7.74414 12.4037 7.96875 12.7259 8.39844 12.7259C8.71094 12.7259 8.84766 12.599 9.04297 12.3744C9.27734 12.0521 9.60938 11.8568 10 11.8568C10.7715 11.8568 11.1523 12.5501 11.1523 13.3314C11.1523 14.1615 10.7324 14.8548 9.98047 14.8548C9.4043 14.8548 9.00391 14.474 8.81836 13.9662C8.69141 13.6927 8.49609 13.556 8.23242 13.556C7.89062 13.556 7.67578 13.7708 7.67578 14.1126C7.67578 14.2298 7.69531 14.347 7.72461 14.4544C7.96875 15.3919 9.04297 15.9486 9.99023 15.9486Z" fill="white" fill-opacity="0.85"/>
 </g>
</svg>
