<?xml version="1.0" encoding="UTF-8"?>
<!--Generator: Apple Native CoreSVG 341-->
<!DOCTYPE svg
PUBLIC "-//W3C//DTD SVG 1.1//EN"
       "http://www.w3.org/Graphics/SVG/1.1/DTD/svg11.dtd">
<svg version="1.1" xmlns="http://www.w3.org/2000/svg" xmlns:xlink="http://www.w3.org/1999/xlink" viewBox="0 0 18.3398 17.9785">
 <g>
  <rect height="17.9785" opacity="0" width="18.3398" x="0" y="0"/>
  <path d="M3.06641 17.9785L14.9121 17.9785C16.9629 17.9785 17.9785 16.9727 17.9785 14.9609L17.9785 3.02734C17.9785 1.01562 16.9629 0 14.9121 0L3.06641 0C1.02539 0 0 1.01562 0 3.02734L0 14.9609C0 16.9727 1.02539 17.9785 3.06641 17.9785ZM3.08594 16.4062C2.10938 16.4062 1.57227 15.8887 1.57227 14.873L1.57227 3.11523C1.57227 2.09961 2.10938 1.57227 3.08594 1.57227L14.8926 1.57227C15.8594 1.57227 16.4062 2.09961 16.4062 3.11523L16.4062 14.873C16.4062 15.8887 15.8594 16.4062 14.8926 16.4062Z" fill="white" fill-opacity="0.85"/>
  <path d="M6.04492 13.1445C7.56836 13.1445 8.4082 11.875 8.4082 10.332C8.4082 8.98438 7.76367 7.74414 6.50391 7.74414C5.92773 7.74414 5.40039 8.00781 5.14648 8.58398L5.09766 8.58398L5.26367 6.20117L7.55859 6.20117C7.89062 6.20117 8.0957 5.9668 8.0957 5.625C8.0957 5.30273 7.88086 5.05859 7.55859 5.05859L4.87305 5.05859C4.35547 5.05859 4.13086 5.39062 4.0918 5.88867L3.93555 8.56445C3.92578 8.71094 3.92578 8.86719 3.92578 8.99414C3.92578 9.375 4.11133 9.69727 4.56055 9.69727C4.82422 9.69727 4.98047 9.59961 5.18555 9.32617C5.41016 9.00391 5.6543 8.76953 6.04492 8.76953C6.76758 8.76953 7.04102 9.63867 7.04102 10.3613C7.04102 11.1719 6.75781 12.002 6.02539 12.002C5.48828 12.002 5.17578 11.6113 5 11.0742C4.88281 10.7617 4.66797 10.6152 4.4043 10.6152C4.04297 10.6152 3.81836 10.8398 3.81836 11.2012C3.81836 11.4258 3.87695 11.6406 3.95508 11.8359C4.29688 12.627 5.16602 13.1445 6.04492 13.1445ZM12.0312 13.1445C13.9746 13.1445 14.5508 10.957 14.5508 8.99414C14.5508 7.03125 13.9746 4.84375 12.0312 4.84375C10.0781 4.84375 9.50195 7.03125 9.50195 8.99414C9.50195 10.957 10.0781 13.1445 12.0312 13.1445ZM12.0312 11.9922C11.2305 11.9922 10.9277 10.6934 10.9277 8.99414C10.9277 7.30469 11.2305 6.00586 12.0312 6.00586C12.8223 6.00586 13.125 7.30469 13.125 8.99414C13.125 10.6934 12.8223 11.9922 12.0312 11.9922Z" fill="white" fill-opacity="0.85"/>
 </g>
</svg>
