<?xml version="1.0" encoding="UTF-8"?>
<!--Generator: Apple Native CoreSVG 341-->
<!DOCTYPE svg
PUBLIC "-//W3C//DTD SVG 1.1//EN"
       "http://www.w3.org/Graphics/SVG/1.1/DTD/svg11.dtd">
<svg version="1.1" xmlns="http://www.w3.org/2000/svg" xmlns:xlink="http://www.w3.org/1999/xlink" viewBox="0 0 20.2832 23.7233">
 <g>
  <rect height="23.7233" opacity="0" width="20.2832" x="0" y="0"/>
  <path d="M11.8457 0.694677C11.8457-0.00844799 11.3672-0.184229 10.8203 0.19663L7.71484 2.38413C7.26562 2.7064 7.27539 3.17515 7.71484 3.48765L10.8301 5.67515C11.3672 6.04624 11.8457 5.87046 11.8457 5.1771ZM9.96094 21.8177C15.459 21.8177 19.9219 17.3548 19.9219 11.8568C19.9219 6.35874 15.4688 1.90561 9.95117 1.89585C9.49219 1.90561 9.13086 2.27671 9.13086 2.71616C9.13086 3.17515 9.50195 3.55601 9.96094 3.55601C14.5508 3.55601 18.2617 7.26694 18.2617 11.8568C18.2617 16.4466 14.5508 20.1576 9.96094 20.1576C5.37109 20.1576 1.66016 16.4466 1.66016 11.8568C1.66016 9.07358 3.02734 6.62241 5.09766 5.13804C5.49805 4.8353 5.625 4.37632 5.38086 3.96616C5.13672 3.57554 4.58008 3.45835 4.15039 3.79038C1.63086 5.60679 0 8.50718 0 11.8568C0 17.3548 4.46289 21.8177 9.96094 21.8177Z" fill="white" fill-opacity="0.425"/>
  <path d="M7.00195 15.9388C8.44727 15.9388 9.45312 14.8548 9.45312 13.3119C9.45312 11.9544 8.67188 10.8998 7.40234 10.8998C6.52344 10.8998 5.9082 11.4173 5.66406 12.1791L5.625 12.1791C5.625 11.5052 5.67383 10.9974 5.78125 10.5775C5.94727 9.8939 6.29883 9.24936 7.00195 9.24936C7.49023 9.24936 7.8125 9.50327 8.02734 9.93296C8.17383 10.1771 8.34961 10.3431 8.64258 10.3431C9.05273 10.3431 9.20898 10.0599 9.20898 9.78647C9.20898 9.60093 9.16992 9.43491 9.0918 9.27866C8.7793 8.60483 7.96875 8.15561 7.02148 8.15561C5.16602 8.15561 4.48242 9.8939 4.4043 11.6615C4.32617 12.472 4.4043 13.3509 4.62891 14.0248C5 15.138 5.79102 15.9388 7.00195 15.9388ZM6.98242 14.8451C6.24023 14.8451 5.82031 14.0833 5.82031 13.3314C5.82031 12.5599 6.26953 11.9154 6.99219 11.9154C7.74414 11.9154 8.14453 12.599 8.14453 13.3705C8.14453 14.1322 7.72461 14.8451 6.98242 14.8451ZM13.1738 15.9291C15.1074 15.9291 15.7715 13.9564 15.7715 12.0326C15.7715 10.1087 15.0977 8.14585 13.1738 8.14585C11.25 8.14585 10.5762 10.1185 10.5762 12.0326C10.5762 13.9759 11.2598 15.9291 13.1738 15.9291ZM13.1738 14.8255C12.3633 14.8255 11.9531 13.6244 11.9531 12.0326C11.9531 10.4505 12.3633 9.25913 13.1738 9.25913C13.9941 9.25913 14.4043 10.4505 14.4043 12.0326C14.4043 13.6244 13.9941 14.8255 13.1738 14.8255Z" fill="white" fill-opacity="0.85"/>
 </g>
</svg>
