<svg version="1.1" xmlns="http://www.w3.org/2000/svg" xmlns:xlink="http://www.w3.org/1999/xlink" viewBox="0 0 18.3398 17.9785">
 <g>
  <rect height="17.9785" opacity="0" width="18.3398" x="0" y="0"/>
  <path d="M3.06641 17.9785L14.9121 17.9785C16.9629 17.9785 17.9785 16.9727 17.9785 14.9609L17.9785 3.02734C17.9785 1.01562 16.9629 0 14.9121 0L3.06641 0C1.02539 0 0 1.01562 0 3.02734L0 14.9609C0 16.9727 1.02539 17.9785 3.06641 17.9785Z" fill="var(--color-tertiary)"/>
  <path d="M7.63672 13.7695C7.19727 13.7695 6.83594 13.4668 6.83594 13.0371C6.83594 12.832 6.88477 12.6953 6.98242 12.5195L10.6738 5.74219L10.6738 5.66406L6.40625 5.66406C6.05469 5.66406 5.80078 5.40039 5.80078 5.03906C5.80078 4.66797 6.04492 4.41406 6.40625 4.41406L11.3281 4.41406C11.9922 4.41406 12.4316 4.83398 12.4316 5.39062C12.4316 5.60547 12.3828 5.81055 12.1875 6.18164L8.4375 13.2129C8.23242 13.6035 7.98828 13.7695 7.63672 13.7695Z" fill="var(--color-primary)"/>
 </g>
</svg>
