<svg version="1.1" xmlns="http://www.w3.org/2000/svg" xmlns:xlink="http://www.w3.org/1999/xlink" viewBox="0 0 20.2832 19.9316">
 <g>
  <rect height="19.9316" opacity="0" width="20.2832" x="0" y="0"/>
  <path d="M9.96094 19.9219C15.459 19.9219 19.9219 15.459 19.9219 9.96094C19.9219 4.46289 15.459 0 9.96094 0C4.46289 0 0 4.46289 0 9.96094C0 15.459 4.46289 19.9219 9.96094 19.9219ZM9.96094 18.2617C5.37109 18.2617 1.66016 14.5508 1.66016 9.96094C1.66016 5.37109 5.37109 1.66016 9.96094 1.66016C14.5508 1.66016 18.2617 5.37109 18.2617 9.96094C18.2617 14.5508 14.5508 18.2617 9.96094 18.2617Z" fill="var(--color-secondary)"/>
  <path d="M6.5625 8.41797C6.5625 10.0586 7.80273 11.25 9.50195 11.25C10.1465 11.25 10.8398 11.0156 11.1719 10.6738L11.2891 10.6738C11.2109 10.8203 11.0645 11.0254 10.8496 11.2891C10.3125 11.9727 9.66797 12.7539 9.08203 13.4668C8.92578 13.6523 8.84766 13.8379 8.84766 14.0234C8.84766 14.3164 9.10156 14.5996 9.49219 14.5996C9.87305 14.5996 10.0195 14.375 10.293 14.0234C10.8105 13.3887 11.543 12.4414 12.0703 11.748C12.9688 10.5469 13.3984 9.55078 13.3984 8.49609C13.3984 6.60156 12.002 5.3125 9.98047 5.3125C7.95898 5.3125 6.5625 6.5918 6.5625 8.41797ZM7.93945 8.35938C7.93945 7.32422 8.81836 6.55273 9.98047 6.55273C11.1328 6.55273 12.0117 7.33398 12.0117 8.35938C12.0117 9.4043 11.1426 10.1562 9.99023 10.1562C8.81836 10.1562 7.93945 9.39453 7.93945 8.35938Z" fill="var(--color-primary)"/>
 </g>
</svg>
