<?xml version="1.0" encoding="UTF-8"?>
<!--Generator: Apple Native CoreSVG 341-->
<!DOCTYPE svg
PUBLIC "-//W3C//DTD SVG 1.1//EN"
       "http://www.w3.org/Graphics/SVG/1.1/DTD/svg11.dtd">
<svg version="1.1" xmlns="http://www.w3.org/2000/svg" xmlns:xlink="http://www.w3.org/1999/xlink" viewBox="0 0 18.3398 17.9785">
 <g>
  <rect height="17.9785" opacity="0" width="18.3398" x="0" y="0"/>
  <path d="M17.9785 3.02734L17.9785 14.9609C17.9785 16.9727 16.9629 17.9785 14.9121 17.9785L3.06641 17.9785C1.02539 17.9785 0 16.9727 0 14.9609L0 3.02734C0 1.01562 1.02539 0 3.06641 0L14.9121 0C16.9629 0 17.9785 1.01562 17.9785 3.02734ZM5.49805 7.39258C5.49805 9.08203 6.77734 10.3125 8.52539 10.3125C9.18945 10.3125 9.90234 10.0781 10.2441 9.72656L10.3711 9.72656C10.293 9.87305 10.1367 10.0879 9.92188 10.3516C9.35547 11.0645 8.69141 11.8652 8.10547 12.5977C7.92969 12.793 7.85156 12.9785 7.85156 13.1738C7.85156 13.4766 8.11523 13.7695 8.52539 13.7695C8.91602 13.7695 9.07227 13.5352 9.36523 13.1738C9.88281 12.5195 10.6445 11.543 11.1816 10.8301C12.1094 9.58984 12.5488 8.56445 12.5488 7.4707C12.5488 5.51758 11.1133 4.18945 9.02344 4.18945C6.93359 4.18945 5.49805 5.50781 5.49805 7.39258ZM11.1133 7.33398C11.1133 8.4082 10.2148 9.17969 9.0332 9.17969C7.83203 9.17969 6.92383 8.39844 6.92383 7.33398C6.92383 6.26953 7.83203 5.47852 9.02344 5.47852C10.2051 5.47852 11.1133 6.2793 11.1133 7.33398Z" fill="white" fill-opacity="0.85"/>
 </g>
</svg>
