<?xml version="1.0" encoding="UTF-8"?>
<!--Generator: Apple Native CoreSVG 341-->
<!DOCTYPE svg
PUBLIC "-//W3C//DTD SVG 1.1//EN"
       "http://www.w3.org/Graphics/SVG/1.1/DTD/svg11.dtd">
<svg version="1.1" xmlns="http://www.w3.org/2000/svg" xmlns:xlink="http://www.w3.org/1999/xlink" viewBox="0 0 18.3398 17.9785">
 <g>
  <rect height="17.9785" opacity="0" width="18.3398" x="0" y="0"/>
  <path d="M3.06641 17.9785L14.9121 17.9785C16.9629 17.9785 17.9785 16.9727 17.9785 14.9609L17.9785 3.02734C17.9785 1.01562 16.9629 0 14.9121 0L3.06641 0C1.02539 0 0 1.01562 0 3.02734L0 14.9609C0 16.9727 1.02539 17.9785 3.06641 17.9785ZM3.08594 16.4062C2.10938 16.4062 1.57227 15.8887 1.57227 14.873L1.57227 3.11523C1.57227 2.09961 2.10938 1.57227 3.08594 1.57227L14.8926 1.57227C15.8594 1.57227 16.4062 2.09961 16.4062 3.11523L16.4062 14.873C16.4062 15.8887 15.8594 16.4062 14.8926 16.4062Z" fill="white" fill-opacity="0.85"/>
  <path d="M8.75977 13.6328C11.1133 13.6328 12.4023 11.9434 12.4023 8.67188C12.4023 5.85938 11.123 4.33594 8.92578 4.33594C6.91406 4.33594 5.60547 5.55664 5.60547 7.45117C5.60547 9.28711 7.00195 10.332 8.52539 10.332C9.82422 10.332 10.5957 9.6875 10.9082 8.96484L10.9863 8.96484C11.0059 11.1133 10.0879 12.3926 8.74023 12.3926C8.06641 12.3926 7.61719 12.1094 7.20703 11.5625C7.04102 11.3379 6.85547 11.1719 6.54297 11.1719C6.16211 11.1719 5.89844 11.4258 5.89844 11.8066C5.89844 11.9141 5.91797 12.0215 5.95703 12.1387C6.19141 12.8125 7.10938 13.6328 8.75977 13.6328ZM8.98438 9.22852C7.88086 9.22852 7.11914 8.45703 7.11914 7.38281C7.11914 6.25 7.86133 5.49805 8.99414 5.49805C10.0586 5.49805 10.8594 6.29883 10.8594 7.40234C10.8594 8.45703 10.0781 9.22852 8.98438 9.22852Z" fill="white" fill-opacity="0.85"/>
 </g>
</svg>
