<?xml version="1.0" encoding="UTF-8"?>
<!--Generator: Apple Native CoreSVG 341-->
<!DOCTYPE svg
PUBLIC "-//W3C//DTD SVG 1.1//EN"
       "http://www.w3.org/Graphics/SVG/1.1/DTD/svg11.dtd">
<svg version="1.1" xmlns="http://www.w3.org/2000/svg" xmlns:xlink="http://www.w3.org/1999/xlink" viewBox="0 0 18.3398 17.9785">
 <g>
  <rect height="17.9785" opacity="0" width="18.3398" x="0" y="0"/>
  <path d="M3.06641 17.9785L14.9121 17.9785C16.9629 17.9785 17.9785 16.9727 17.9785 14.9609L17.9785 3.02734C17.9785 1.01562 16.9629 0 14.9121 0L3.06641 0C1.02539 0 0 1.01562 0 3.02734L0 14.9609C0 16.9727 1.02539 17.9785 3.06641 17.9785Z" fill="white" fill-opacity="0.2125"/>
  <path d="M5.68359 13.7012C5.23438 13.7012 4.93164 13.418 4.93164 13.0078C4.93164 12.8516 4.96094 12.7051 5.03906 12.4805L7.86133 4.88281C8.06641 4.35547 8.4375 4.08203 8.98438 4.08203C9.54102 4.08203 9.92188 4.35547 10.127 4.88281L12.9492 12.4805C13.0273 12.7051 13.0566 12.8516 13.0566 13.0078C13.0566 13.418 12.7539 13.7012 12.3047 13.7012C11.9434 13.7012 11.6797 13.5254 11.5234 13.0566L10.791 10.918L7.19727 10.918L6.46484 13.0566C6.30859 13.5352 6.04492 13.7012 5.68359 13.7012ZM7.59766 9.69727L10.3906 9.69727L9.04297 5.81055L8.94531 5.81055Z" fill="white" fill-opacity="0.85"/>
 </g>
</svg>
