<?xml version="1.0" encoding="UTF-8"?>
<!--Generator: Apple Native CoreSVG 341-->
<!DOCTYPE svg
PUBLIC "-//W3C//DTD SVG 1.1//EN"
       "http://www.w3.org/Graphics/SVG/1.1/DTD/svg11.dtd">
<svg version="1.1" xmlns="http://www.w3.org/2000/svg" xmlns:xlink="http://www.w3.org/1999/xlink" viewBox="0 0 36.3574 16.2402">
 <g>
  <rect height="16.2402" opacity="0" width="36.3574" x="0" y="0"/>
  <path d="M8.02734 16.2402C9.67773 16.2402 10.9668 14.9512 10.9668 13.3105C10.9668 11.6699 9.67773 10.3809 8.02734 10.3809C6.38672 10.3809 5.09766 11.6699 5.09766 13.3105C5.09766 14.9512 6.38672 16.2402 8.02734 16.2402ZM28.1055 16.2402C29.7559 16.2402 31.0449 14.9512 31.0449 13.3105C31.0449 11.6699 29.7559 10.3809 28.1055 10.3809C26.4551 10.3809 25.166 11.6699 25.166 13.3105C25.166 14.9512 26.4551 16.2402 28.1055 16.2402ZM28.3691 4.24805C26.9531 3.98438 25.8594 3.85742 24.2871 3.96484L14.209 4.60938C15.5273 3.66211 16.875 2.75391 18.6133 1.82617C19.5508 1.33789 18.7793 0 17.7539 0.546875C15.4297 1.78711 13.252 3.20312 11.416 4.73633L4.76562 5.98633C1.5918 6.58203 0 8.04688 0 10.625L0 11.9238C0 13.3887 0.654297 14.1113 2.12891 14.2773L4.08203 14.5117C4.00391 14.1992 3.95508 13.6523 3.95508 13.3105C3.95508 11.0449 5.75195 9.24805 8.02734 9.24805C10.3027 9.24805 12.0996 11.0449 12.0996 13.3105C12.0996 13.5938 12.0801 13.916 12.0312 14.1113L24.1309 14.1113C24.0625 13.8965 24.0332 13.6035 24.0332 13.3105C24.0332 11.0449 25.8301 9.24805 28.1055 9.24805C30.3809 9.24805 32.1777 11.2402 32.1777 13.5059C32.1777 13.6328 32.1777 13.6816 32.168 13.7988L33.2031 13.6914C35.0879 13.4961 35.9961 12.4512 35.9961 10.5078L35.9961 8.80859C35.9961 6.49414 35.1465 5.50781 32.9297 5.09766Z" fill="white" fill-opacity="0.2125"/>
  <path d="M13.9746 11.5332C13.7012 11.5332 13.4668 11.3672 13.4668 11.0059C13.4668 10.8789 13.4766 10.7812 13.5059 10.6445L14.3457 7.07031C14.4434 6.61133 14.7363 6.39648 15.1758 6.39648C15.6543 6.39648 15.9473 6.60156 16.0449 7.07031L16.8945 10.6445C16.9238 10.7715 16.9629 10.8789 16.9629 11.0059C16.9629 11.2988 16.748 11.5332 16.416 11.5332C16.1328 11.5332 15.9473 11.3672 15.8789 11.0352L15.7324 10.4492L14.6484 10.4492L14.5117 11.0254C14.4629 11.3574 14.3066 11.5332 13.9746 11.5332ZM14.7754 9.63867L15.5957 9.63867L15.1953 7.66602L15.166 7.66602ZM18.1543 11.5332C17.8125 11.5332 17.5977 11.3086 17.5977 10.9473L17.5977 6.98242C17.5977 6.62109 17.8125 6.39648 18.1543 6.39648C18.5059 6.39648 18.7207 6.62109 18.7207 6.98242L18.7207 10.9473C18.7207 11.3086 18.5059 11.5332 18.1543 11.5332ZM20.0879 11.5332C19.7363 11.5332 19.5312 11.3086 19.5312 10.9473L19.5312 7.06055C19.5312 6.68945 19.7266 6.47461 20.0879 6.47461L21.0449 6.47461C22.1484 6.47461 22.6367 7.12891 22.6367 8.06641C22.6367 8.57422 22.4707 9.13086 22.041 9.39453L22.5195 10.6641C22.5684 10.8008 22.5977 10.9375 22.5977 11.0352C22.5977 11.3281 22.373 11.5332 22.0605 11.5332C21.7676 11.5332 21.6211 11.3574 21.5039 11.0742L21.0059 9.62891L20.6348 9.62891L20.6348 10.9473C20.6348 11.3086 20.4297 11.5332 20.0879 11.5332ZM20.6348 8.86719L20.957 8.86719C21.3379 8.85742 21.5137 8.47656 21.5137 8.08594C21.5137 7.70508 21.3281 7.31445 20.957 7.31445L20.6348 7.31445Z" fill="white" fill-opacity="0.85"/>
 </g>
</svg>
