<svg version="1.1" xmlns="http://www.w3.org/2000/svg" xmlns:xlink="http://www.w3.org/1999/xlink" viewBox="0 0 37.3926 15.8887">
 <g>
  <rect height="15.8887" opacity="0" width="37.3926" x="0" y="0"/>
  <path d="M2.49023 13.6426L5.10742 13.6426L5.10742 12.0703L2.57812 12.0703C1.94336 12.0703 1.57227 11.6406 1.57227 10.8984L1.57227 8.92578C1.57227 7.5293 2.46094 6.78711 4.50195 6.47461L8.47656 5.86914L12.7734 3.19336C14.6973 2.00195 16.377 1.57227 19.1797 1.57227L23.0371 1.57227C24.082 1.57227 24.668 2.09961 24.7852 3.125L25.1074 6.08398L34.4629 6.08398C35.0879 6.08398 35.459 6.52344 35.459 7.25586L35.459 10.8984C35.459 11.6406 35.0879 12.0703 34.4629 12.0703L30.5664 12.0703L30.5664 13.6426L34.5508 13.6426C36.1035 13.6426 37.0312 12.6855 37.0312 11.0938L37.0312 7.06055C37.0312 5.46875 36.1035 4.51172 34.5508 4.51172L26.543 4.51172L26.3574 2.91016C26.1328 0.976562 25.0488 0 23.125 0L19.1797 0C16.0352 0 14.1016 0.488281 11.9336 1.85547L7.93945 4.35547L4.29688 4.91211C1.33789 5.36133 0 6.63086 0 8.92578L0 11.0938C0 12.6855 0.9375 13.6426 2.49023 13.6426ZM9.6875 13.6426L25.6641 13.6426L25.6641 12.0703L9.6875 12.0703ZM7.34375 15.8691C9.21875 15.8691 10.6836 14.4043 10.6836 12.5293C10.6836 10.6543 9.21875 9.18945 7.34375 9.18945C5.46875 9.18945 4.00391 10.6543 4.00391 12.5293C4.00391 14.4043 5.46875 15.8691 7.34375 15.8691ZM7.34375 14.2969C6.34766 14.2969 5.57617 13.5254 5.57617 12.5293C5.57617 11.5332 6.34766 10.7617 7.34375 10.7617C8.33984 10.7617 9.11133 11.5332 9.11133 12.5293C9.11133 13.5254 8.33984 14.2969 7.34375 14.2969ZM27.959 15.8691C29.834 15.8691 31.2988 14.4043 31.2988 12.5293C31.2988 10.6543 29.834 9.18945 27.959 9.18945C26.084 9.18945 24.6191 10.6543 24.6191 12.5293C24.6191 14.4043 26.084 15.8691 27.959 15.8691ZM27.959 14.2969C26.9629 14.2969 26.1914 13.5254 26.1914 12.5293C26.1914 11.5332 26.9629 10.7617 27.959 10.7617C28.9551 10.7617 29.7266 11.5332 29.7266 12.5293C29.7266 13.5254 28.9551 14.2969 27.959 14.2969Z" fill="var(--color-secondary)"/>
  <path d="M13.2812 9.96094C13.6523 9.96094 13.8281 9.75586 13.8867 9.38477L14.0234 8.7793L15.2051 8.7793L15.3516 9.4043C15.4297 9.77539 15.625 9.96094 15.9473 9.96094C16.3086 9.96094 16.543 9.70703 16.543 9.375C16.543 9.23828 16.5137 9.12109 16.4844 8.97461L15.5664 5.09766C15.4492 4.58008 15.127 4.3457 14.5996 4.3457C14.1113 4.3457 13.7891 4.58984 13.6719 5.09766L12.7637 8.97461C12.7344 9.12109 12.7148 9.23828 12.7148 9.375C12.7148 9.78516 12.9785 9.96094 13.2812 9.96094ZM14.1699 7.88086L14.5801 5.74219L14.6191 5.74219L15.0488 7.88086ZM17.8613 9.96094C18.2422 9.96094 18.4863 9.70703 18.4863 9.31641L18.4863 4.99023C18.4863 4.59961 18.2422 4.3457 17.8613 4.3457C17.4805 4.3457 17.2461 4.59961 17.2461 4.99023L17.2461 9.31641C17.2461 9.70703 17.4805 9.96094 17.8613 9.96094ZM19.9805 9.95117C20.3516 9.95117 20.5957 9.70703 20.5957 9.31641L20.5957 7.89062L20.9863 7.89062L21.5234 9.44336C21.6309 9.76562 21.8164 9.95117 22.1387 9.95117C22.4902 9.95117 22.7344 9.72656 22.7344 9.4043C22.7344 9.28711 22.6953 9.14062 22.6465 8.99414L22.1289 7.62695C22.5977 7.33398 22.7734 6.72852 22.7734 6.18164C22.7734 5.14648 22.2461 4.43359 21.0352 4.43359L19.9805 4.43359C19.5898 4.43359 19.3652 4.66797 19.3652 5.07812L19.3652 9.31641C19.3652 9.70703 19.5996 9.95117 19.9805 9.95117ZM20.5957 7.03125L20.5957 5.36133L20.9277 5.36133C21.3281 5.36133 21.5234 5.79102 21.5234 6.20117C21.5234 6.62109 21.3281 7.03125 20.9277 7.03125Z" fill="var(--color-primary)"/>
 </g>
</svg>
