<?xml version="1.0" encoding="UTF-8"?>
<!--Generator: Apple Native CoreSVG 341-->
<!DOCTYPE svg
PUBLIC "-//W3C//DTD SVG 1.1//EN"
       "http://www.w3.org/Graphics/SVG/1.1/DTD/svg11.dtd">
<svg version="1.1" xmlns="http://www.w3.org/2000/svg" xmlns:xlink="http://www.w3.org/1999/xlink" viewBox="0 0 23.0345 22.9785">
 <g>
  <rect height="22.9785" opacity="0" width="23.0345" x="0" y="0"/>
  <path d="M18.6693 2.08836C17.1226 2.69757 15.9567 3.83789 14.32 3.83789C13.7926 3.83789 13.3532 3.7207 12.7868 3.39844C12.4547 3.21289 12.1227 3.33984 11.9664 3.59375C11.7907 3.86719 11.8102 4.29688 12.2204 4.53125C12.8649 4.93164 13.5778 5.09766 14.32 5.09766C16.1683 5.09766 17.3885 4.03282 18.7536 3.4152L18.7536 4.77256C17.1721 5.37748 15.9944 6.5625 14.3297 6.5625C13.7926 6.5625 13.3532 6.43555 12.7965 6.12305C12.4645 5.92773 12.1227 6.06445 11.9664 6.31836C11.7907 6.5918 11.8102 7.02148 12.2301 7.25586C12.8747 7.64648 13.5875 7.82227 14.3297 7.82227C16.1691 7.82227 17.3915 6.75487 18.7536 6.13406L18.7536 7.49323C17.1652 8.09484 15.9867 9.27734 14.32 9.27734C13.7926 9.27734 13.3532 9.16016 12.7868 8.83789C12.4547 8.65234 12.1227 8.7793 11.9664 9.0332C11.7907 9.30664 11.8102 9.73633 12.2204 9.9707C12.8649 10.3711 13.5778 10.5371 14.32 10.5371C16.1683 10.5371 17.3885 9.47227 18.7536 8.85465L18.7536 18.2617C18.7536 19.8762 18.0665 20.8498 16.7125 21.143L16.7125 22.168C16.7125 22.6367 16.4 22.959 15.9215 22.959C15.4528 22.959 15.1403 22.6367 15.1403 22.168L15.1403 21.2402L7.53285 21.2402L7.53285 22.168C7.53285 22.6367 7.22035 22.959 6.7516 22.959C6.28285 22.959 5.96059 22.6367 5.96059 22.168L5.96059 21.1414C4.61027 20.8456 3.91957 19.8727 3.91957 18.2617L3.91957 2.96875C3.91957 0.996094 4.9645 0 6.93715 0L15.7457 0C17.3983 0 18.3929 0.699025 18.6693 2.08836ZM7.03481 17.3438C6.68325 17.3438 6.40004 17.627 6.40004 17.9883C6.40004 18.3398 6.68325 18.623 7.03481 18.623L9.9645 18.623C10.3258 18.623 10.609 18.3398 10.609 17.9883C10.609 17.627 10.3258 17.3438 9.9645 17.3438ZM12.7086 17.3438C12.3473 17.3438 12.0641 17.627 12.0641 17.9883C12.0641 18.3398 12.3473 18.623 12.7086 18.623L15.6383 18.623C15.9899 18.623 16.2731 18.3398 16.2731 17.9883C16.2731 17.627 15.9899 17.3438 15.6383 17.3438ZM7.03481 14.834C6.68325 14.834 6.40004 15.1074 6.40004 15.4688C6.40004 15.8301 6.68325 16.1035 7.03481 16.1035L9.9645 16.1035C10.3258 16.1035 10.609 15.8301 10.609 15.4688C10.609 15.1074 10.3258 14.834 9.9645 14.834ZM12.7086 14.834C12.3473 14.834 12.0641 15.1074 12.0641 15.4688C12.0641 15.8301 12.3473 16.1035 12.7086 16.1035L15.6383 16.1035C15.9899 16.1035 16.2731 15.8301 16.2731 15.4688C16.2731 15.1074 15.9899 14.834 15.6383 14.834ZM7.03481 12.3145C6.68325 12.3145 6.40004 12.5977 6.40004 12.9492C6.40004 13.3105 6.68325 13.584 7.03481 13.584L9.9645 13.584C10.3258 13.584 10.609 13.3105 10.609 12.9492C10.609 12.5977 10.3258 12.3145 9.9645 12.3145ZM12.7086 12.3145C12.3473 12.3145 12.0641 12.5977 12.0641 12.9492C12.0641 13.3105 12.3473 13.584 12.7086 13.584L15.6383 13.584C15.9899 13.584 16.2731 13.3105 16.2731 12.9492C16.2731 12.5977 15.9899 12.3145 15.6383 12.3145ZM6.45864 3.97461C6.45864 4.76562 7.0934 5.41016 7.87465 5.41016C8.6559 5.41016 9.30043 4.76562 9.30043 3.97461C9.30043 3.20312 8.6559 2.56836 7.87465 2.56836C7.0934 2.56836 6.45864 3.20312 6.45864 3.97461Z" fill="white" fill-opacity="0.2125"/>
  <path d="M14.32 5.09766C13.5778 5.09766 12.8649 4.93164 12.2204 4.53125C11.8102 4.29688 11.7907 3.86719 11.9664 3.59375C12.1227 3.33984 12.4547 3.21289 12.7868 3.39844C13.3532 3.7207 13.7926 3.83789 14.32 3.83789C16.5563 3.83789 17.9137 1.70898 20.5602 1.70898C21.3024 1.70898 22.0055 1.89453 22.6598 2.27539C23.0895 2.51953 23.0993 2.94922 22.9137 3.23242C22.7575 3.45703 22.445 3.59375 22.0934 3.39844C21.527 3.08594 21.0875 2.97852 20.5602 2.97852C18.2848 2.97852 16.9274 5.09766 14.32 5.09766ZM14.3297 7.82227C13.5875 7.82227 12.8747 7.64648 12.2301 7.25586C11.8102 7.02148 11.7907 6.5918 11.9664 6.31836C12.1227 6.06445 12.4645 5.92773 12.7965 6.12305C13.3532 6.43555 13.7926 6.5625 14.3297 6.5625C16.5661 6.5625 17.9235 4.42383 20.5602 4.42383C21.3024 4.42383 22.0153 4.60938 22.6793 4.99023C23.0993 5.23438 23.0993 5.67383 22.9235 5.94727C22.7672 6.18164 22.445 6.31836 22.1032 6.12305C21.5368 5.80078 21.0973 5.69336 20.5602 5.69336C18.2946 5.69336 16.9274 7.82227 14.3297 7.82227ZM14.32 10.5371C13.5778 10.5371 12.8649 10.3711 12.2204 9.9707C11.8102 9.73633 11.7907 9.30664 11.9664 9.0332C12.1227 8.7793 12.4547 8.65234 12.7868 8.83789C13.3532 9.16016 13.7926 9.27734 14.32 9.27734C16.5563 9.27734 17.9137 7.14844 20.5602 7.14844C21.3024 7.14844 22.0055 7.33398 22.6598 7.71484C23.0895 7.95898 23.0993 8.38867 22.9137 8.67188C22.7575 8.89648 22.445 9.0332 22.0934 8.83789C21.527 8.52539 21.0875 8.41797 20.5602 8.41797C18.2848 8.41797 16.9274 10.5371 14.32 10.5371Z" fill="white" fill-opacity="0.85"/>
 </g>
</svg>
