<?xml version="1.0" encoding="UTF-8"?>
<!--Generator: Apple Native CoreSVG 341-->
<!DOCTYPE svg
PUBLIC "-//W3C//DTD SVG 1.1//EN"
       "http://www.w3.org/Graphics/SVG/1.1/DTD/svg11.dtd">
<svg version="1.1" xmlns="http://www.w3.org/2000/svg" xmlns:xlink="http://www.w3.org/1999/xlink" viewBox="0 0 18.3691 17.998">
 <g>
  <rect height="17.998" opacity="0" width="18.3691" x="0" y="0"/>
  <path d="M16.6211 1.37695C17.5293 2.27539 18.0078 3.61328 18.0078 5.32227L18.0078 12.6758C18.0078 14.3848 17.5293 15.7227 16.6211 16.6211C15.7422 17.5 14.4043 17.998 12.6855 17.998L5.3125 17.998C3.60352 17.998 2.26562 17.5098 1.37695 16.6211C0.46875 15.7227 0 14.3848 0 12.6758L0 5.32227C0 3.61328 0.478516 2.27539 1.37695 1.37695C2.25586 0.498047 3.60352 0 5.3125 0L12.6855 0C14.4043 0 15.7324 0.488281 16.6211 1.37695ZM11.9727 4.39453L10.4492 5.92773C10.2637 6.11328 10.1758 6.14258 9.93164 6.13281L4.62891 5.9082C4.43359 5.89844 4.25781 5.95703 4.13086 6.08398L3.69141 6.52344C3.54492 6.66992 3.60352 6.89453 3.81836 6.98242L7.88086 8.51562L6.30859 10.4883L4.44336 9.94141C4.25781 9.89258 4.10156 9.94141 3.95508 10.0879L3.78906 10.2539C3.65234 10.3906 3.64258 10.5762 3.78906 10.7129L7.32422 14.2578C7.46094 14.3945 7.65625 14.3945 7.79297 14.2578L7.95898 14.0918C8.10547 13.9355 8.1543 13.7793 8.10547 13.6035L7.55859 11.7285L9.53125 10.1562L11.0547 14.2285C11.1426 14.4434 11.377 14.502 11.5234 14.3457L11.9629 13.9062C12.0898 13.7793 12.1484 13.6035 12.1387 13.418L11.9141 8.10547C11.9043 7.86133 11.9336 7.7832 12.1191 7.59766L13.6426 6.06445C14.4238 5.29297 14.6777 4.30664 14.209 3.83789C13.7305 3.35938 12.7441 3.62305 11.9727 4.39453Z" fill="white" fill-opacity="0.85"/>
 </g>
</svg>
