<?xml version="1.0" encoding="UTF-8"?>
<!--Generator: Apple Native CoreSVG 341-->
<!DOCTYPE svg
PUBLIC "-//W3C//DTD SVG 1.1//EN"
       "http://www.w3.org/Graphics/SVG/1.1/DTD/svg11.dtd">
<svg version="1.1" xmlns="http://www.w3.org/2000/svg" xmlns:xlink="http://www.w3.org/1999/xlink" viewBox="0 0 18.4863 20.9863">
 <g>
  <rect height="20.9863" opacity="0" width="18.4863" x="0" y="0"/>
  <path d="M6.67969 17.1875L15.7324 17.1875C17.0508 17.1875 18.125 16.123 18.125 14.8047C18.125 13.4863 17.0508 12.4219 15.7324 12.4219L8.80859 12.4219C7.97852 12.4219 7.1582 12.7148 6.66992 13.1348L3.33008 1.61133C3.07617 0.683594 2.33398 0.263672 1.66016 0.263672C0.810547 0.263672 0 0.908203 0 1.94336C0 2.1875 0.0585938 2.45117 0.136719 2.74414L3.64258 14.707C4.0918 16.2598 5.07812 17.1875 6.67969 17.1875ZM3.73047 9.49219L12.6172 9.49219C13.0762 9.49219 13.4473 9.12109 13.4473 8.66211C13.4473 8.20312 13.0762 7.82227 12.6172 7.82227L3.73047 7.82227ZM6.13281 20.9863L15.2051 20.9863C15.6641 20.9863 16.0352 20.6152 16.0352 20.1562C16.0352 19.6973 15.6641 19.3164 15.2051 19.3164L6.13281 19.3164C5.67383 19.3164 5.30273 19.6973 5.30273 20.1562C5.30273 20.6152 5.67383 20.9863 6.13281 20.9863Z" fill="white" fill-opacity="0.85"/>
 </g>
</svg>
