<?xml version="1.0" encoding="UTF-8"?>
<!--Generator: Apple Native CoreSVG 341-->
<!DOCTYPE svg
PUBLIC "-//W3C//DTD SVG 1.1//EN"
       "http://www.w3.org/Graphics/SVG/1.1/DTD/svg11.dtd">
<svg version="1.1" xmlns="http://www.w3.org/2000/svg" xmlns:xlink="http://www.w3.org/1999/xlink" viewBox="0 0 40.5469 17.041">
 <g>
  <rect height="17.041" opacity="0" width="40.5469" x="0" y="0"/>
  <path d="M3.76953 15.1953C4.08203 14.8438 3.98438 14.3848 3.63281 13.9844C2.32422 12.5293 1.5918 10.6152 1.5918 8.51562C1.5918 6.41602 2.32422 4.50195 3.63281 3.04688C3.98438 2.64648 4.08203 2.1875 3.76953 1.83594C3.45703 1.46484 2.91016 1.47461 2.53906 1.88477C0.917969 3.64258 0 5.98633 0 8.51562C0 11.0449 0.917969 13.3789 2.53906 15.1465C2.91016 15.5566 3.45703 15.5566 3.76953 15.1953ZM36.416 15.1953C36.7285 15.5566 37.2754 15.5566 37.6562 15.1465C39.2773 13.3789 40.1855 11.0449 40.1855 8.51562C40.1855 5.98633 39.2773 3.64258 37.6562 1.88477C37.2754 1.47461 36.7285 1.46484 36.416 1.83594C36.1035 2.1875 36.2012 2.64648 36.5527 3.04688C37.8613 4.50195 38.5938 6.41602 38.5938 8.51562C38.5938 10.6152 37.8613 12.5293 36.5527 13.9844C36.2012 14.3848 36.1035 14.8438 36.416 15.1953Z" fill="white" fill-opacity="0.425"/>
  <path d="M6.50391 12.4121C6.81641 12.0605 6.68945 11.6211 6.37695 11.2012C5.79102 10.4688 5.50781 9.53125 5.50781 8.51562C5.50781 7.5 5.79102 6.55273 6.37695 5.83008C6.68945 5.41016 6.81641 4.9707 6.50391 4.61914C6.18164 4.24805 5.5957 4.24805 5.25391 4.6875C4.4043 5.74219 3.91602 7.08008 3.91602 8.51562C3.91602 9.95117 4.4043 11.2891 5.25391 12.3438C5.5957 12.7832 6.18164 12.7734 6.50391 12.4121ZM33.6816 12.4121C34.0039 12.7734 34.5898 12.7832 34.9316 12.3438C35.7812 11.2891 36.2793 9.95117 36.2793 8.51562C36.2793 7.08008 35.7812 5.74219 34.9316 4.6875C34.5898 4.24805 34.0039 4.24805 33.6816 4.61914C33.3691 4.9707 33.4961 5.41016 33.8086 5.83008C34.3945 6.55273 34.6875 7.5 34.6875 8.51562C34.6875 9.53125 34.3945 10.4688 33.8086 11.2012C33.4961 11.6211 33.3691 12.0605 33.6816 12.4121Z" fill="white" fill-opacity="0.425"/>
  <path d="M14.9609 17.0312L25.2246 17.0312C29.2188 17.0312 31.1523 15.1172 31.1523 11.1426L31.1523 6.50391L25.1074 6.50391C24.9316 6.94336 24.5215 7.22656 24.0039 7.22656L16.1816 7.22656C15.6738 7.22656 15.2539 6.94336 15.0977 6.50391L9.0332 6.50391L9.0332 11.1426C9.0332 15.1172 10.9668 17.0312 14.9609 17.0312ZM20.0977 10.9473C19.5996 10.957 19.1992 10.5469 19.1992 10.0684C19.1992 9.58008 19.5996 9.16992 20.0977 9.16992C20.5859 9.16992 20.9863 9.58008 20.9863 10.0684C20.9863 10.5273 20.5859 10.9375 20.0977 10.9473ZM9.0332 5.61523L15.0781 5.61523C15.2344 5.16602 15.6543 4.89258 16.1621 4.89258L23.9941 4.89258C24.502 4.89258 24.9219 5.16602 25.0879 5.61523L31.123 5.61523L31.123 5.30273C31.123 1.73828 29.0039 0 25.1953 0L14.9609 0C11.1523 0 9.0332 1.73828 9.0332 5.30273Z" fill="white" fill-opacity="0.85"/>
 </g>
</svg>
