<svg version="1.1" xmlns="http://www.w3.org/2000/svg" xmlns:xlink="http://www.w3.org/1999/xlink" viewBox="0 0 20.2832 19.9316">
 <g>
  <rect height="19.9316" opacity="0" width="20.2832" x="0" y="0"/>
  <path d="M9.96094 19.9219C15.459 19.9219 19.9219 15.459 19.9219 9.96094C19.9219 4.46289 15.459 0 9.96094 0C4.46289 0 0 4.46289 0 9.96094C0 15.459 4.46289 19.9219 9.96094 19.9219ZM9.9707 18.1152C5.45898 18.1152 1.81641 14.4727 1.81641 9.96094C1.81641 5.44922 5.45898 1.79688 9.9707 1.79688C14.4824 1.79688 18.1348 5.44922 18.1348 9.96094C18.1348 14.4727 14.4824 18.1152 9.9707 18.1152ZM9.96094 17.1777C13.9453 17.1777 17.1777 13.9355 17.1777 9.96094C17.1777 5.97656 13.9453 2.74414 9.96094 2.74414C5.97656 2.74414 2.74414 5.97656 2.74414 9.96094C2.74414 13.9355 5.97656 17.1777 9.96094 17.1777ZM10.0488 12.6758C9.49219 12.6758 9.29688 12.9785 8.84766 12.9785C8.37891 12.9785 8.07617 12.5684 7.70508 12.0605C7.29492 11.4551 6.94336 10.5273 6.94336 9.63867C6.94336 8.23242 7.87109 7.4707 8.7793 7.4707C9.25781 7.4707 9.6582 7.79297 9.95117 7.79297C10.2441 7.79297 10.6934 7.46094 11.2402 7.46094C11.4551 7.46094 12.1973 7.4707 12.6855 8.17383C12.6465 8.22266 11.9043 8.63281 11.9043 9.57031C11.9043 10.6543 12.8516 11.0352 12.8809 11.0449C12.8809 11.0645 12.7344 11.5723 12.3828 12.0801C12.0703 12.5195 11.7285 12.9688 11.2402 12.9688C10.7422 12.9688 10.625 12.6758 10.0488 12.6758ZM10.9863 6.85547C10.7422 7.1582 10.332 7.38281 10 7.38281C9.95117 7.38281 9.92188 7.37305 9.89258 7.37305C9.89258 7.35352 9.88281 7.29492 9.88281 7.24609C9.88281 6.85547 10.0879 6.49414 10.2832 6.25C10.5566 5.9375 10.9863 5.71289 11.3574 5.70312C11.3672 5.74219 11.3672 5.79102 11.3672 5.83984C11.3672 6.2207 11.2109 6.58203 10.9863 6.85547Z" fill="var(--color-primary)"/>
 </g>
</svg>
