<svg version="1.1" xmlns="http://www.w3.org/2000/svg" xmlns:xlink="http://www.w3.org/1999/xlink" viewBox="0 0 22.998 18.8184">
 <g>
  <rect height="18.8184" opacity="0" width="22.998" x="0" y="0"/>
  <path d="M2.58789 10.1465L0.683594 10.1465C0.292969 10.1465 0 9.80469 0 9.42383C0 9.04297 0.292969 8.71094 0.683594 8.71094L2.58789 8.71094ZM22.6367 9.42383C22.6367 9.80469 22.3438 10.1465 21.9629 10.1465L20.0684 10.1465L20.0684 8.71094L21.9629 8.71094C22.3438 8.71094 22.6367 9.04297 22.6367 9.42383ZM12.2656 10.1465L10.3809 10.1465L10.3809 8.71094L12.2656 8.71094Z" fill="var(--color-primary)"/>
  <path d="M4.78516 18.8184L8.18359 18.8184C9.60938 18.8184 10.3809 18.0176 10.3809 16.5625L10.3809 2.28516C10.3809 0.830078 9.60938 0.0488281 8.18359 0.0488281L4.78516 0.0488281C3.35938 0.0488281 2.58789 0.830078 2.58789 2.28516L2.58789 16.5625C2.58789 18.0176 3.35938 18.8184 4.78516 18.8184ZM14.4727 15.3418L17.8711 15.3418C19.2871 15.3418 20.0684 14.5605 20.0684 13.1055L20.0684 5.74219C20.0684 4.28711 19.2871 3.50586 17.8711 3.50586L14.4727 3.50586C13.0469 3.50586 12.2656 4.28711 12.2656 5.74219L12.2656 13.1055C12.2656 14.5605 13.0469 15.3418 14.4727 15.3418Z" fill="var(--color-secondary)"/>
 </g>
</svg>
