<?xml version="1.0" encoding="UTF-8"?>
<!--Generator: Apple Native CoreSVG 341-->
<!DOCTYPE svg
PUBLIC "-//W3C//DTD SVG 1.1//EN"
       "http://www.w3.org/Graphics/SVG/1.1/DTD/svg11.dtd">
<svg version="1.1" xmlns="http://www.w3.org/2000/svg" xmlns:xlink="http://www.w3.org/1999/xlink" viewBox="0 0 20.2832 19.9316">
 <g>
  <rect height="19.9316" opacity="0" width="20.2832" x="0" y="0"/>
  <path d="M9.96094 19.9219C15.459 19.9219 19.9219 15.459 19.9219 9.96094C19.9219 4.46289 15.459 0 9.96094 0C4.46289 0 0 4.46289 0 9.96094C0 15.459 4.46289 19.9219 9.96094 19.9219ZM9.96094 18.2617C5.37109 18.2617 1.66016 14.5508 1.66016 9.96094C1.66016 5.37109 5.37109 1.66016 9.96094 1.66016C14.5508 1.66016 18.2617 5.37109 18.2617 9.96094C18.2617 14.5508 14.5508 18.2617 9.96094 18.2617Z" fill="white" fill-opacity="0.85"/>
  <path d="M10.498 12.0898L10.498 15.7227C10.498 16.0742 10.2734 16.3086 9.95117 16.3086C9.63867 16.3086 9.41406 16.0645 9.41406 15.7227L9.41406 11.0059ZM5.82031 5.16602L14.7656 14.1211C14.9414 14.2969 14.9414 14.5703 14.7656 14.7461C14.5996 14.9219 14.3066 14.9121 14.1406 14.7461L5.18555 5.79102C5.00977 5.625 5.00977 5.3418 5.18555 5.16602C5.36133 4.99023 5.63477 4.99023 5.82031 5.16602ZM5.6325 7.2243C5.19301 7.93639 4.96094 8.77179 4.96094 9.66797C4.96094 10.8594 5.37109 11.9531 6.13281 12.7734C6.37695 13.0762 6.40625 13.3984 6.19141 13.6328C5.9668 13.8965 5.57617 13.877 5.33203 13.6035C4.3457 12.5391 3.81836 11.1523 3.81836 9.66797C3.81836 8.47684 4.16421 7.3486 4.81069 6.40248ZM14.5703 5.73242C15.5469 6.79688 16.0938 8.18359 16.0938 9.66797C16.0938 10.9956 15.6641 12.2451 14.8648 13.2539L14.0545 12.4444C14.6395 11.671 14.9512 10.7066 14.9512 9.66797C14.9512 8.47656 14.541 7.39258 13.7793 6.5625C13.5254 6.26953 13.4961 5.9375 13.7012 5.70312C13.9355 5.43945 14.3262 5.44922 14.5703 5.73242ZM7.42816 9.01996C7.37209 9.22724 7.34375 9.44446 7.34375 9.66797C7.34375 10.2539 7.50977 10.7617 7.83203 11.1621C8.07617 11.4941 8.10547 11.7871 7.90039 12.0117C7.66602 12.2852 7.23633 12.2656 7.01172 11.9629C6.49414 11.3184 6.20117 10.5078 6.20117 9.66797C6.20117 9.13259 6.32023 8.60911 6.54167 8.13347ZM12.8906 7.37305C13.4082 8.01758 13.7012 8.82812 13.7012 9.66797C13.7012 10.3414 13.5128 10.9959 13.1686 11.5596L12.3371 10.7289C12.4843 10.4167 12.5586 10.0598 12.5586 9.66797C12.5586 9.11133 12.3828 8.59375 12.0703 8.16406C11.8359 7.8418 11.8066 7.54883 12.002 7.32422C12.2461 7.05078 12.666 7.07031 12.8906 7.37305Z" fill="white" fill-opacity="0.85"/>
 </g>
</svg>
