<svg version="1.1" xmlns="http://www.w3.org/2000/svg" xmlns:xlink="http://www.w3.org/1999/xlink" viewBox="0 0 18.3691 17.998">
 <g>
  <rect height="17.998" opacity="0" width="18.3691" x="0" y="0"/>
  <path d="M5.3125 17.998L12.6855 17.998C14.4043 17.998 15.7422 17.5 16.6211 16.6211C17.5293 15.7227 18.0078 14.3848 18.0078 12.6758L18.0078 5.32227C18.0078 3.61328 17.5293 2.27539 16.6211 1.37695C15.7324 0.488281 14.4043 0 12.6855 0L5.3125 0C3.60352 0 2.25586 0.498047 1.37695 1.37695C0.478516 2.27539 0 3.61328 0 5.32227L0 12.6758C0 14.3848 0.46875 15.7227 1.37695 16.6211C2.26562 17.5098 3.60352 17.998 5.3125 17.998Z" fill="var(--color-primary)"/>
 </g>
</svg>
