<?xml version="1.0" encoding="UTF-8"?>
<!--Generator: Apple Native CoreSVG 341-->
<!DOCTYPE svg
PUBLIC "-//W3C//DTD SVG 1.1//EN"
       "http://www.w3.org/Graphics/SVG/1.1/DTD/svg11.dtd">
<svg version="1.1" xmlns="http://www.w3.org/2000/svg" xmlns:xlink="http://www.w3.org/1999/xlink" viewBox="0 0 20.2832 19.9316">
 <g>
  <rect height="19.9316" opacity="0" width="20.2832" x="0" y="0"/>
  <path d="M9.96094 19.9316C15.459 19.9316 19.9219 15.4688 19.9219 9.9707C19.9219 4.48242 15.459 0.00976562 9.96094 0.00976562C4.47266 0.00976562 0 4.48242 0 9.9707C0 15.4688 4.47266 19.9316 9.96094 19.9316Z" fill="white" fill-opacity="0.2125"/>
  <path d="M5.60547 14.5898C4.56055 14.5898 4.0332 14.0918 4.0332 13.0469L4.0332 6.91406C4.0332 5.86914 4.56055 5.37109 5.60547 5.37109L14.2969 5.37109C15.3516 5.37109 15.8691 5.86914 15.8691 6.91406L15.8691 13.0469C15.8691 14.0918 15.3516 14.5898 14.2969 14.5898ZM6.10352 9.22852C5.67383 9.50195 6.03516 10.1465 6.51367 9.85352L7.99805 8.91602C8.30078 8.7207 8.30078 8.27148 7.99805 8.07617L6.51367 7.14844C6.03516 6.85547 5.67383 7.50977 6.10352 7.7832L7.32422 8.50586ZM8.28125 9.83398C8.28125 10.0195 8.4375 10.1953 8.62305 10.1953L10.5957 10.1953C10.8105 10.1953 10.9668 10.0195 10.9668 9.83398C10.9668 9.62891 10.8105 9.47266 10.5957 9.47266L8.62305 9.47266C8.4375 9.47266 8.28125 9.62891 8.28125 9.83398Z" fill="white" fill-opacity="0.85"/>
 </g>
</svg>
