<?xml version="1.0" encoding="UTF-8"?>
<!--Generator: Apple Native CoreSVG 341-->
<!DOCTYPE svg
PUBLIC "-//W3C//DTD SVG 1.1//EN"
       "http://www.w3.org/Graphics/SVG/1.1/DTD/svg11.dtd">
<svg version="1.1" xmlns="http://www.w3.org/2000/svg" xmlns:xlink="http://www.w3.org/1999/xlink" viewBox="0 0 22.6078 22.8223">
 <g>
  <rect height="22.8223" opacity="0" width="22.6078" x="0" y="0"/>
  <path d="M7.58807 21.8359C8.65252 21.8359 9.68768 21.2695 10.7717 20.4297L11.1135 20.1855L11.465 20.4395C12.549 21.2695 13.5842 21.8359 14.6486 21.8359C15.1174 21.8359 15.5861 21.7285 16.0646 21.4941C17.676 20.7422 18.0666 19.209 18.1056 17.2266L18.1252 16.8555L18.4279 16.7578C20.3615 16.2793 21.758 15.5566 22.1584 13.8281C22.5588 12.1094 21.6115 10.8203 20.0881 9.58008L18.5451 8.36914C17.9982 9.51172 17.0998 11.2109 16.7971 12.5781C16.5724 13.5645 16.5334 14.5898 16.5334 15.5859C15.5568 15.8105 14.5314 16.0742 13.6135 16.5234C12.7443 16.9434 11.9045 17.5488 11.1232 18.1641C10.342 17.5488 9.5119 16.9434 8.63299 16.5234C7.70526 16.0742 6.6994 15.8105 5.71307 15.5859C5.71307 14.5898 5.67401 13.5645 5.45916 12.5684C5.23455 11.6211 4.8244 10.6934 4.40448 9.79492C5.19549 9.16016 5.98651 8.47656 6.61151 7.69531C7.24627 6.91406 7.71502 6.00586 8.13494 5.12695C9.10174 5.3418 10.1174 5.52734 11.1232 5.52734C12.7541 5.52734 13.8283 5.11719 15.6545 4.74609L14.8146 2.94922C13.965 1.18164 12.9006 0 11.1232 0C9.35565 0 8.33026 1.20117 7.44159 2.94922L7.2658 3.29102L6.87518 3.21289C4.94159 2.80273 3.34979 2.86133 2.24627 4.24805C1.14276 5.63477 1.44549 7.19727 2.2658 8.96484L2.42205 9.3457L2.16815 9.58008C0.64471 10.8203-0.302555 12.1094 0.0880695 13.8281C0.48846 15.5566 1.88494 16.2793 3.79901 16.7578L4.12127 16.8555L4.1408 17.2266C4.17987 19.209 4.57049 20.7422 6.18182 21.4941C6.66034 21.7285 7.12909 21.8359 7.58807 21.8359ZM13.4377 3.67188C12.6857 3.82812 11.9142 3.95508 11.1232 3.95508C10.3322 3.95508 9.56073 3.82812 8.80877 3.67188L8.94549 3.44727C9.46307 2.46094 10.0002 1.57227 11.1232 1.57227C12.256 1.57227 12.7834 2.46094 13.301 3.44727ZM6.60174 4.74609C6.25994 5.41992 5.87909 6.09375 5.3908 6.70898C4.89276 7.33398 4.30682 7.87109 3.70135 8.35938L3.58416 8.07617C3.16424 7.07031 2.77362 6.09375 3.46698 5.23438C4.17987 4.36523 5.20526 4.48242 6.30877 4.69727ZM3.14471 10.7812C3.45721 11.4648 3.75018 12.1875 3.92596 12.9297C4.10174 13.7012 4.15057 14.4824 4.15057 15.2441L3.71112 15.127C2.71502 14.8633 1.85565 14.502 1.62127 13.4766C1.3869 12.4316 2.05096 11.7188 2.85174 11.0352ZM5.69354 17.1777C6.45526 17.3633 7.21698 17.5781 7.93963 17.9297C8.63299 18.2617 9.26776 18.7109 9.87323 19.1699L9.60955 19.3652C8.74041 20.0293 7.86151 20.5664 6.85565 20.0977C5.85955 19.6191 5.74237 18.584 5.71307 17.4805ZM12.3732 19.1699C12.9787 18.7109 13.6232 18.2617 14.3068 17.9297C15.0295 17.5781 15.801 17.3633 16.5529 17.1777L16.5334 17.4609C16.5041 18.5645 16.3967 19.6094 15.3908 20.0977C14.3849 20.5664 13.5158 20.0098 12.6467 19.3652ZM18.0959 15.2441C18.0959 14.4824 18.1545 13.6914 18.3205 12.9199C18.4865 12.1777 18.7795 11.4648 19.1017 10.7812L19.2873 10.957C20.1369 11.6699 20.8693 12.3828 20.6252 13.4766C20.3713 14.5703 19.3947 14.9219 18.3303 15.1758Z" fill="white" fill-opacity="0.425"/>
  <path d="M10.4396 13.1738L20.1174 5.41016L18.8283 3.80859L9.16034 11.5625L8.16424 13.3301C8.05682 13.5156 8.24237 13.7598 8.45721 13.7109ZM20.8986 4.78516L21.758 4.10156C22.1681 3.76953 22.2365 3.22266 21.9045 2.82227L21.6799 2.57812C21.3771 2.22656 20.8498 2.16797 20.4689 2.48047L19.6096 3.18359Z" fill="white" fill-opacity="0.85"/>
 </g>
</svg>
