<?xml version="1.0" encoding="UTF-8"?>
<!--Generator: Apple Native CoreSVG 341-->
<!DOCTYPE svg
PUBLIC "-//W3C//DTD SVG 1.1//EN"
       "http://www.w3.org/Graphics/SVG/1.1/DTD/svg11.dtd">
<svg version="1.1" xmlns="http://www.w3.org/2000/svg" xmlns:xlink="http://www.w3.org/1999/xlink" viewBox="0 0 24.6582 19.7949">
 <g>
  <rect height="19.7949" opacity="0" width="24.6582" x="0" y="0"/>
  <path d="M19.4727 3.02734L19.4727 4.52148L17.9004 4.52148L17.9004 3.11523C17.9004 2.09961 17.3438 1.57227 16.377 1.57227L3.08594 1.57227C2.10938 1.57227 1.57227 2.09961 1.57227 3.11523L1.57227 12.1582C1.57227 13.1738 2.10938 13.6914 3.08594 13.6914L4.82422 13.6914L4.82422 15.2637L3.06641 15.2637C1.01562 15.2637 0 14.2578 0 12.2363L0 3.02734C0 1.01562 1.01562 0 3.06641 0L16.4062 0C18.4375 0 19.4727 1.01562 19.4727 3.02734Z" fill="white" fill-opacity="0.425"/>
  <path d="M7.89062 19.7852L21.2305 19.7852C23.2617 19.7852 24.2969 18.7695 24.2969 16.7578L24.2969 7.54883C24.2969 5.53711 23.2617 4.52148 21.2305 4.52148L7.89062 4.52148C5.83984 4.52148 4.82422 5.53711 4.82422 7.54883L4.82422 16.7578C4.82422 18.7793 5.83984 19.7852 7.89062 19.7852ZM7.91016 18.2129C6.93359 18.2129 6.39648 17.6953 6.39648 16.6797L6.39648 7.63672C6.39648 6.62109 6.93359 6.09375 7.91016 6.09375L21.2012 6.09375C22.168 6.09375 22.7246 6.62109 22.7246 7.63672L22.7246 16.6797C22.7246 17.6953 22.168 18.2129 21.2012 18.2129Z" fill="white" fill-opacity="0.85"/>
  <path d="M8.53516 10.8984C7.83203 11.3281 8.4375 12.4121 9.20898 11.9141L11.4941 10.4883C12.002 10.166 11.9727 9.42383 11.4941 9.12109L9.20898 7.68555C8.4375 7.19727 7.82227 8.27148 8.53516 8.70117L10.3418 9.80469ZM11.8555 11.8457C11.8555 12.168 12.1094 12.4414 12.4512 12.4414L15.4883 12.4414C15.8105 12.4414 16.0645 12.168 16.0645 11.8457C16.0645 11.5137 15.8105 11.2598 15.4883 11.2598L12.4512 11.2598C12.1094 11.2598 11.8555 11.5137 11.8555 11.8457Z" fill="white" fill-opacity="0.85"/>
 </g>
</svg>
