<svg version="1.1" xmlns="http://www.w3.org/2000/svg" xmlns:xlink="http://www.w3.org/1999/xlink" viewBox="0 0 20.6836 24.4353">
 <g>
  <rect height="24.4353" opacity="0" width="20.6836" x="0" y="0"/>
  <path d="M18.9941 5.82605L18.9941 20.3475C18.9941 22.3885 17.9785 23.4042 15.9668 23.4042L9.14211 23.4042C10.8049 23.1714 12.5326 22.8263 14.4629 22.2909C16.4453 21.7245 17.3535 20.455 17.3535 18.1796L17.3535 3.88269C17.3535 3.55136 17.3283 3.23876 17.2766 2.94837C18.419 3.32939 18.9941 4.29016 18.9941 5.82605Z" fill="var(--color-secondary)"/>
  <path d="M16.0254 3.88269L16.0254 18.1796C16.0254 19.8885 15.4883 20.621 14.1016 21.0116C10.3711 22.037 7.4707 22.3397 4.18945 22.5155C2.38281 22.6229 1.32812 21.744 1.32812 20.0448L1.32812 5.50378C1.32812 3.73621 2.37305 2.83777 3.95508 2.74011C7.4707 2.53503 10.3711 2.04675 13.1055 1.43152C14.9805 0.992065 16.0254 1.93933 16.0254 3.88269ZM8.66211 13.0721C7.80273 13.1991 7.2168 13.7948 7.30469 14.5175L7.59766 16.7733C7.68555 17.3788 8.07617 17.6815 8.68164 17.5936C9.27734 17.5057 9.66797 17.0858 9.74609 16.4706L10.0391 14.1366C10.127 13.3846 9.53125 12.9452 8.66211 13.0721ZM8.66211 6.93933C5.9375 7.33972 3.73047 9.84949 3.73047 12.5936C3.73047 14.7225 5.10742 16.451 7.13867 16.8026L7.03125 15.8456C5.52734 15.4452 4.59961 14.1171 4.59961 12.4862C4.59961 10.2206 6.39648 8.13074 8.68164 7.79871C10.9668 7.46667 12.7539 9.02917 12.7539 11.285C12.7539 12.9257 11.8262 14.5175 10.3223 15.3573L10.2148 16.3632C12.2266 15.4159 13.6133 13.3065 13.6133 11.1678C13.6133 8.42371 11.3965 6.53894 8.66211 6.93933ZM8.66211 8.54089C6.82617 8.80456 5.33203 10.5233 5.33203 12.3593C5.33203 13.453 5.86914 14.4003 6.9043 14.9862L6.875 14.6542C6.8457 14.4198 6.86523 14.1659 6.95312 13.912C6.46484 13.5409 6.20117 12.9354 6.20117 12.2518C6.20117 10.8651 7.28516 9.61511 8.68164 9.41003C10.0684 9.21472 11.1426 10.1425 11.1426 11.5194C11.1426 12.203 10.8887 12.8866 10.3906 13.3944C10.4883 13.619 10.498 13.8632 10.4785 14.1073L10.4395 14.4784C11.4746 13.5995 12.0215 12.496 12.0215 11.4022C12.0215 9.55652 10.5078 8.27722 8.66211 8.54089ZM8.66211 10.2987C7.99805 10.3768 7.46094 10.9921 7.46094 11.6757C7.46094 12.3397 8.01758 12.8085 8.68164 12.7108C9.32617 12.6229 9.87305 12.0077 9.87305 11.3339C9.87305 10.66 9.33594 10.1913 8.66211 10.2987Z" fill="var(--color-primary)"/>
 </g>
</svg>
