<svg version="1.1" xmlns="http://www.w3.org/2000/svg" xmlns:xlink="http://www.w3.org/1999/xlink" viewBox="0 0 10.5078 21.6309">
 <g>
  <rect height="21.6309" opacity="0" width="10.5078" x="0" y="0"/>
  <path d="M2.54883 21.5723L7.60742 21.5723C9.16016 21.5723 10.1465 20.6152 10.1465 19.1406L10.1465 2.43164C10.1465 0.957031 9.16016 0 7.60742 0L2.54883 0C0.986328 0 0 0.957031 0 2.43164L0 19.1406C0 20.6152 0.986328 21.5723 2.54883 21.5723ZM2.71484 20.1465C1.93359 20.1465 1.44531 19.6777 1.44531 18.9355L1.44531 2.64648C1.44531 1.89453 1.93359 1.42578 2.71484 1.42578L7.43164 1.42578C8.21289 1.42578 8.70117 1.89453 8.70117 2.64648L8.70117 18.9355C8.70117 19.6777 8.21289 20.1465 7.43164 20.1465ZM3.49609 8.85742C4.13086 8.85742 4.63867 8.33984 4.63867 7.71484C4.63867 7.08984 4.13086 6.57227 3.49609 6.57227C2.87109 6.57227 2.35352 7.08984 2.35352 7.71484C2.35352 8.33984 2.87109 8.85742 3.49609 8.85742ZM6.66992 8.85742C7.29492 8.85742 7.8125 8.33984 7.8125 7.71484C7.8125 7.08984 7.29492 6.57227 6.66992 6.57227C6.03516 6.57227 5.52734 7.08984 5.52734 7.71484C5.52734 8.33984 6.03516 8.85742 6.66992 8.85742ZM3.49609 11.9531C4.13086 11.9531 4.63867 11.4355 4.63867 10.8105C4.63867 10.1758 4.13086 9.66797 3.49609 9.66797C2.87109 9.66797 2.35352 10.1758 2.35352 10.8105C2.35352 11.4355 2.87109 11.9531 3.49609 11.9531ZM3.49609 15.0391C4.13086 15.0391 4.63867 14.5312 4.63867 13.8965C4.63867 13.2715 4.13086 12.7539 3.49609 12.7539C2.87109 12.7539 2.35352 13.2715 2.35352 13.8965C2.35352 14.5312 2.87109 15.0391 3.49609 15.0391ZM6.66016 15.0391C7.26562 15.0391 7.76367 14.5605 7.76367 13.9453L7.76367 10.752C7.76367 10.1465 7.26562 9.66797 6.66016 9.66797C6.06445 9.66797 5.58594 10.1465 5.58594 10.752L5.58594 13.9453C5.58594 14.5605 6.06445 15.0391 6.66016 15.0391Z" fill="var(--color-primary)"/>
 </g>
</svg>
