<?xml version="1.0" encoding="UTF-8"?>
<!--Generator: Apple Native CoreSVG 341-->
<!DOCTYPE svg
PUBLIC "-//W3C//DTD SVG 1.1//EN"
       "http://www.w3.org/Graphics/SVG/1.1/DTD/svg11.dtd">
<svg version="1.1" xmlns="http://www.w3.org/2000/svg" xmlns:xlink="http://www.w3.org/1999/xlink" viewBox="0 0 20.2832 19.9316">
 <g>
  <rect height="19.9316" opacity="0" width="20.2832" x="0" y="0"/>
  <path d="M9.96094 19.9219C15.459 19.9219 19.9219 15.459 19.9219 9.96094C19.9219 4.46289 15.459 0 9.96094 0C4.46289 0 0 4.46289 0 9.96094C0 15.459 4.46289 19.9219 9.96094 19.9219ZM9.96094 18.2617C5.37109 18.2617 1.66016 14.5508 1.66016 9.96094C1.66016 5.37109 5.37109 1.66016 9.96094 1.66016C14.5508 1.66016 18.2617 5.37109 18.2617 9.96094C18.2617 14.5508 14.5508 18.2617 9.96094 18.2617Z" fill="white" fill-opacity="0.85"/>
  <path d="M12.0605 5.45898C12.0605 4.6875 11.6211 4.23828 10.8691 4.23828L9.0625 4.23828C8.31055 4.23828 7.87109 4.6875 7.87109 5.45898L7.87109 11.748C7.87109 12.5195 8.31055 12.9688 9.0625 12.9688L10.8691 12.9688C11.6211 12.9688 12.0605 12.5195 12.0605 11.748ZM5.71289 9.87305C5.35156 9.87305 5.09766 10.1367 5.09766 10.4883C5.09766 10.752 5.20508 10.9668 5.42969 11.2109L9.39453 15.4199C9.58008 15.6152 9.79492 15.6836 9.96094 15.6836C10.1367 15.6836 10.3418 15.6152 10.5371 15.4199L14.4531 11.2109C14.7168 10.9375 14.8242 10.7617 14.8242 10.5078C14.8242 10.1367 14.541 9.87305 14.1895 9.87305Z" fill="white" fill-opacity="0.85"/>
 </g>
</svg>
