<?xml version="1.0" encoding="UTF-8"?>
<!--Generator: Apple Native CoreSVG 341-->
<!DOCTYPE svg
PUBLIC "-//W3C//DTD SVG 1.1//EN"
       "http://www.w3.org/Graphics/SVG/1.1/DTD/svg11.dtd">
<svg version="1.1" xmlns="http://www.w3.org/2000/svg" xmlns:xlink="http://www.w3.org/1999/xlink" viewBox="0 0 20.2832 19.9316">
 <g>
  <rect height="19.9316" opacity="0" width="20.2832" x="0" y="0"/>
  <path d="M9.96094 19.9219C15.459 19.9219 19.9219 15.4492 19.9219 9.96094C19.9219 4.46289 15.459 0 9.96094 0C4.47266 0 0 4.46289 0 9.96094C0 15.4492 4.47266 19.9219 9.96094 19.9219Z" fill="white" fill-opacity="0.2125"/>
  <path d="M11.875 12.8027C12.6367 13.5156 13.5547 12.6562 12.8125 11.8652L11.0742 10.0098L7.39258 6.31836C7.23633 6.17188 7.05078 6.08398 6.80664 6.08398C6.36719 6.08398 6.06445 6.37695 6.06445 6.83594C6.06445 7.03125 6.16211 7.23633 6.30859 7.38281L10.0098 11.0645ZM12.3828 9.99023L12.666 12.6758L10.0879 12.373L8.27148 12.373C7.7832 12.373 7.4707 12.6758 7.4707 13.125C7.4707 13.5645 7.77344 13.8574 8.25195 13.8574L13.0176 13.8574C13.5352 13.8574 13.8672 13.623 13.8672 13.0176L13.8672 8.28125C13.8672 7.80273 13.5645 7.4707 13.125 7.4707C12.6758 7.4707 12.3828 7.77344 12.3828 8.26172Z" fill="white" fill-opacity="0.85"/>
 </g>
</svg>
