<?xml version="1.0" encoding="UTF-8"?>
<!--Generator: Apple Native CoreSVG 341-->
<!DOCTYPE svg
PUBLIC "-//W3C//DTD SVG 1.1//EN"
       "http://www.w3.org/Graphics/SVG/1.1/DTD/svg11.dtd">
<svg version="1.1" xmlns="http://www.w3.org/2000/svg" xmlns:xlink="http://www.w3.org/1999/xlink" viewBox="0 0 16.7871 20.9473">
 <g>
  <rect height="20.9473" opacity="0" width="16.7871" x="0" y="0"/>
  <path d="M3.02734 20.9375L13.3984 20.9375C15.4199 20.9375 16.4258 19.9121 16.4258 17.8809L16.4258 9.01367C16.4258 7.75391 16.2793 7.20703 15.498 6.40625L10.1172 0.927734C9.375 0.166016 8.75977 0 7.66602 0L3.02734 0C1.01562 0 0 1.03516 0 3.06641L0 17.8809C0 19.9219 1.00586 20.9375 3.02734 20.9375ZM3.0957 19.3652C2.08984 19.3652 1.57227 18.8281 1.57227 17.8516L1.57227 3.0957C1.57227 2.12891 2.08984 1.57227 3.10547 1.57227L7.45117 1.57227L7.45117 7.24609C7.45117 8.47656 8.06641 9.08203 9.28711 9.08203L14.8535 9.08203L14.8535 17.8516C14.8535 18.8281 14.3359 19.3652 13.3203 19.3652ZM9.46289 7.60742C9.07227 7.60742 8.92578 7.45117 8.92578 7.06055L8.92578 1.875L14.5508 7.60742Z" fill="white" fill-opacity="0.425"/>
  <path d="M5.36133 14.3066C5.54688 14.3066 5.74219 14.2285 5.87891 14.082L6.73828 13.2129L8.125 11.7773L8.36914 11.7773L9.76562 13.2129L10.6152 14.082C10.752 14.2285 10.9473 14.3066 11.1328 14.3066C11.5234 14.3066 11.8262 14.0234 11.8262 13.6328C11.8262 13.4082 11.7383 13.2422 11.582 13.1055L8.79883 10.5469C8.59375 10.3613 8.44727 10.293 8.25195 10.293C8.05664 10.293 7.91016 10.3613 7.70508 10.5469L4.92188 13.1055C4.76562 13.2422 4.66797 13.4082 4.66797 13.6328C4.66797 14.0234 4.96094 14.3066 5.36133 14.3066ZM8.25195 18.1836C8.65234 18.1836 8.99414 17.8613 8.99414 17.4609L8.99414 13.9453L8.89648 11.5918C8.85742 10.752 7.64648 10.752 7.60742 11.5918L7.5 13.9453L7.5 17.4609C7.5 17.8613 7.85156 18.1836 8.25195 18.1836Z" fill="white" fill-opacity="0.85"/>
 </g>
</svg>
