<svg version="1.1" xmlns="http://www.w3.org/2000/svg" xmlns:xlink="http://www.w3.org/1999/xlink" viewBox="0 0 18.3398 17.9785">
 <g>
  <rect height="17.9785" opacity="0" width="18.3398" x="0" y="0"/>
  <path d="M3.06641 17.9785L14.9121 17.9785C16.9629 17.9785 17.9785 16.9727 17.9785 14.9609L17.9785 3.02734C17.9785 1.01562 16.9629 0 14.9121 0L3.06641 0C1.02539 0 0 1.01562 0 3.02734L0 14.9609C0 16.9727 1.02539 17.9785 3.06641 17.9785Z" fill="var(--color-tertiary)"/>
  <path d="M6.75781 14.2285C7.00195 14.2285 7.20703 14.1211 7.38281 13.9551L10.1172 11.2695C10.2637 11.1328 10.332 10.957 10.332 10.7422C10.332 10.3516 10.0195 10.0391 9.58984 10.0391C9.39453 10.0391 9.20898 10.1074 9.07227 10.2539L7.87109 11.5137L6.77734 12.9785L5.46875 11.2988L4.46289 10.2637C4.3457 10.127 4.15039 10.0391 3.94531 10.0391C3.52539 10.0391 3.20312 10.3516 3.20312 10.752C3.20312 10.9668 3.27148 11.1426 3.42773 11.2793L6.14258 13.9551C6.31836 14.1211 6.5332 14.2285 6.75781 14.2285ZM13.1641 10.0684C13.6328 10.0684 13.8867 9.73633 13.8867 9.29688L13.8867 7.91992C13.8867 5.55664 12.373 3.79883 9.95117 3.79883C7.5293 3.79883 6.06445 5.54688 6.06445 7.91016L6.06445 10.8984L6.09375 12.8906C6.10352 13.2617 6.39648 13.5547 6.74805 13.5547C7.12891 13.5547 7.41211 13.2617 7.42188 12.8906L7.48047 10.8984L7.48047 7.91016C7.48047 6.42578 8.32031 5.29297 9.87305 5.29297C11.4648 5.29297 12.4414 6.39648 12.4414 7.91992L12.4414 9.31641C12.4414 9.73633 12.6953 10.0684 13.1641 10.0684Z" fill="var(--color-primary)"/>
 </g>
</svg>
