<?xml version="1.0" encoding="UTF-8"?>
<!--Generator: Apple Native CoreSVG 341-->
<!DOCTYPE svg
PUBLIC "-//W3C//DTD SVG 1.1//EN"
       "http://www.w3.org/Graphics/SVG/1.1/DTD/svg11.dtd">
<svg version="1.1" xmlns="http://www.w3.org/2000/svg" xmlns:xlink="http://www.w3.org/1999/xlink" viewBox="0 0 20.2832 19.9316">
 <g>
  <rect height="19.9316" opacity="0" width="20.2832" x="0" y="0"/>
  <path d="M19.9219 9.96094C19.9219 15.4492 15.459 19.9219 9.96094 19.9219C4.47266 19.9219 0 15.4492 0 9.96094C0 4.46289 4.47266 0 9.96094 0C15.459 0 19.9219 4.46289 19.9219 9.96094ZM12.5391 6.31836L8.85742 10.0098L7.38052 11.5862L7.54883 9.99023L7.54883 8.26172C7.54883 7.77344 7.25586 7.4707 6.80664 7.4707C6.36719 7.4707 6.06445 7.80273 6.06445 8.28125L6.06445 13.0176C6.06445 13.623 6.39648 13.8574 6.91406 13.8574L11.6797 13.8574C12.1582 13.8574 12.4609 13.5645 12.4609 13.125C12.4609 12.6758 12.1484 12.373 11.6602 12.373L9.84375 12.373L8.32654 12.5512L9.92188 11.0645L13.623 7.38281C13.7695 7.23633 13.8672 7.03125 13.8672 6.83594C13.8672 6.37695 13.5645 6.08398 13.125 6.08398C12.8809 6.08398 12.6855 6.17188 12.5391 6.31836Z" fill="white" fill-opacity="0.85"/>
 </g>
</svg>
