<?xml version="1.0" encoding="UTF-8"?>
<!--Generator: Apple Native CoreSVG 341-->
<!DOCTYPE svg
PUBLIC "-//W3C//DTD SVG 1.1//EN"
       "http://www.w3.org/Graphics/SVG/1.1/DTD/svg11.dtd">
<svg version="1.1" xmlns="http://www.w3.org/2000/svg" xmlns:xlink="http://www.w3.org/1999/xlink" viewBox="0 0 19.1993 23.0762">
 <g>
  <rect height="23.0762" opacity="0" width="19.1993" x="0" y="0"/>
  <path d="M17.0508 16.543L13.9258 16.3477L0.869186 16.3477C0.37114 16.3477 4.57621e-05 16.709 4.57621e-05 17.2168C4.57621e-05 17.7344 0.37114 18.0957 0.869186 18.0957L13.9258 18.0957L17.0508 17.8809C17.4903 17.8418 17.7247 17.5293 17.7247 17.207C17.7247 16.8848 17.4903 16.5723 17.0508 16.543ZM12.2559 21.6016C12.0899 21.7676 12.0118 21.9629 12.0118 22.2168C12.0118 22.7246 12.3536 23.0762 12.8711 23.0762C13.0957 23.0762 13.3497 22.9688 13.5157 22.8027L18.5547 17.8809C18.9356 17.5098 18.9454 16.9434 18.5547 16.5625L13.5157 11.6406C13.3497 11.4746 13.0957 11.3672 12.8711 11.3672C12.3536 11.3672 12.0118 11.7188 12.0118 12.2266C12.0118 12.4805 12.0899 12.6758 12.2559 12.832L14.3555 14.873L17.1192 17.2168L14.3555 19.5703Z" fill="white" fill-opacity="0.425"/>
  <path d="M1.78716 5.17578C1.3477 5.20508 1.11333 5.52734 1.11333 5.84961C1.11333 6.17188 1.3477 6.48438 1.78716 6.52344L4.92192 6.73828L17.9688 6.73828C18.4766 6.73828 18.8379 6.37695 18.8379 5.85938C18.8379 5.35156 18.4766 4.99023 17.9688 4.99023L4.92192 4.99023ZM6.58208 10.2441L4.48247 8.21289L1.72856 5.85938L4.48247 3.51562L6.58208 1.47461C6.74809 1.30859 6.83598 1.12305 6.83598 0.869141C6.83598 0.361328 6.48442 0.00976562 5.96684 0.00976562C5.752 0.00976562 5.49809 0.107422 5.32231 0.283203L0.293015 5.20508C-0.107376 5.58594-0.0878449 6.15234 0.293015 6.51367L5.32231 11.4355C5.49809 11.6113 5.752 11.7188 5.96684 11.7188C6.48442 11.7188 6.83598 11.3574 6.83598 10.8496C6.83598 10.6055 6.74809 10.4102 6.58208 10.2441Z" fill="white" fill-opacity="0.85"/>
 </g>
</svg>
