<svg version="1.1" xmlns="http://www.w3.org/2000/svg" xmlns:xlink="http://www.w3.org/1999/xlink" viewBox="0 0 20.2832 19.9316">
 <g>
  <rect height="19.9316" opacity="0" width="20.2832" x="0" y="0"/>
  <path d="M9.96094 19.9219C15.459 19.9219 19.9219 15.4492 19.9219 9.96094C19.9219 4.46289 15.459 0 9.96094 0C4.47266 0 0 4.46289 0 9.96094C0 15.4492 4.47266 19.9219 9.96094 19.9219Z" fill="var(--color-tertiary)"/>
  <path d="M7.72461 15.2051C7.96875 15.2051 8.17383 15.0977 8.34961 14.9316L11.084 12.2461C11.2305 12.1094 11.2988 11.9336 11.2988 11.7188C11.2988 11.3281 10.9863 11.0156 10.5566 11.0156C10.3613 11.0156 10.1758 11.084 10.0391 11.2305L8.82812 12.4902L7.74414 13.9551L6.43555 12.2754L5.42969 11.2402C5.30273 11.1035 5.11719 11.0156 4.91211 11.0156C4.49219 11.0156 4.16992 11.3281 4.16992 11.7285C4.16992 11.9434 4.23828 12.1191 4.39453 12.2559L7.10938 14.9316C7.28516 15.0977 7.5 15.2051 7.72461 15.2051ZM14.1211 11.0449C14.5996 11.0449 14.8535 10.7129 14.8535 10.2734L14.8535 8.89648C14.8535 6.5332 13.3398 4.77539 10.918 4.77539C8.48633 4.77539 7.03125 6.52344 7.03125 8.88672L7.03125 11.875L7.06055 13.8672C7.07031 14.2383 7.35352 14.5312 7.71484 14.5312C8.0957 14.5312 8.37891 14.2383 8.38867 13.8672L8.44727 11.875L8.44727 8.88672C8.44727 7.40234 9.28711 6.26953 10.8398 6.26953C12.4316 6.26953 13.4082 7.37305 13.4082 8.89648L13.4082 10.293C13.4082 10.7129 13.6621 11.0449 14.1211 11.0449Z" fill="var(--color-primary)"/>
 </g>
</svg>
