<svg version="1.1" xmlns="http://www.w3.org/2000/svg" xmlns:xlink="http://www.w3.org/1999/xlink" viewBox="0 0 18.3398 17.9785">
 <g>
  <rect height="17.9785" opacity="0" width="18.3398" x="0" y="0"/>
  <path d="M3.06641 17.9785L14.9121 17.9785C16.9629 17.9785 17.9785 16.9727 17.9785 14.9609L17.9785 3.02734C17.9785 1.01562 16.9629 0 14.9121 0L3.06641 0C1.02539 0 0 1.01562 0 3.02734L0 14.9609C0 16.9727 1.02539 17.9785 3.06641 17.9785Z" fill="var(--color-tertiary)"/>
  <path d="M5.83008 11.4844C5.39062 11.4844 5.09766 11.1426 5.09766 10.6738L5.09766 5.92773C5.09766 5.33203 5.41992 5.09766 5.9375 5.09766L10.7031 5.09766C11.1816 5.09766 11.4844 5.39062 11.4844 5.83984C11.4844 6.2793 11.1719 6.57227 10.6836 6.57227L8.86719 6.57227L7.37305 6.41602L8.94531 7.88086L12.6465 11.5723C12.793 11.7188 12.8906 11.9238 12.8906 12.1191C12.8906 12.5781 12.5879 12.8711 12.1484 12.8711C11.9043 12.8711 11.7188 12.7832 11.5625 12.6367L7.88086 8.94531L6.42578 7.39258L6.57227 8.96484L6.57227 10.6934C6.57227 11.1719 6.2793 11.4844 5.83008 11.4844Z" fill="var(--color-primary)"/>
 </g>
</svg>
