<svg version="1.1" xmlns="http://www.w3.org/2000/svg" xmlns:xlink="http://www.w3.org/1999/xlink" viewBox="0 0 17.5684 14.8145">
 <g>
  <rect height="14.8145" opacity="0" width="17.5684" x="0" y="0"/>
  <path d="M16.3379 14.8047C16.8457 14.8047 17.207 14.4629 17.207 13.9648L17.207 0.859375C17.207 0.351562 16.8457 0 16.3379 0C15.8301 0 15.459 0.351562 15.459 0.859375L15.459 13.9648C15.459 14.4629 15.8301 14.8047 16.3379 14.8047ZM7.1875 0.839844C7.1875 1.07422 7.27539 1.30859 7.43164 1.45508L9.60938 3.68164L13.6914 7.40234L9.60938 11.123L7.43164 13.3496C7.27539 13.4961 7.1875 13.7305 7.1875 13.9648C7.1875 14.4531 7.55859 14.8047 8.04688 14.8047C8.27148 14.8047 8.47656 14.7168 8.68164 14.5312L15.166 8.05664C15.3613 7.87109 15.4688 7.64648 15.4688 7.40234C15.4688 7.1582 15.3613 6.93359 15.166 6.74805L8.68164 0.263672C8.47656 0.078125 8.27148 0 8.04688 0C7.55859 0 7.1875 0.351562 7.1875 0.839844ZM13.8281 8.16406C14.2383 8.14453 14.5801 7.8125 14.5801 7.40234C14.5801 6.98242 14.2383 6.66016 13.8281 6.64062L10.7324 6.5332L0.859375 6.5332C0.351562 6.5332 0 6.89453 0 7.40234C0 7.91016 0.351562 8.27148 0.859375 8.27148L10.7324 8.27148Z" fill="var(--color-primary)"/>
 </g>
</svg>
