<?xml version="1.0" encoding="UTF-8"?>
<!--Generator: Apple Native CoreSVG 341-->
<!DOCTYPE svg
PUBLIC "-//W3C//DTD SVG 1.1//EN"
       "http://www.w3.org/Graphics/SVG/1.1/DTD/svg11.dtd">
<svg version="1.1" xmlns="http://www.w3.org/2000/svg" xmlns:xlink="http://www.w3.org/1999/xlink" viewBox="0 0 18.3398 17.9785">
 <g>
  <rect height="17.9785" opacity="0" width="18.3398" x="0" y="0"/>
  <path d="M3.06641 17.9785L14.9121 17.9785C16.9629 17.9785 17.9785 16.9727 17.9785 14.9609L17.9785 3.02734C17.9785 1.01562 16.9629 0 14.9121 0L3.06641 0C1.02539 0 0 1.01562 0 3.02734L0 14.9609C0 16.9727 1.02539 17.9785 3.06641 17.9785Z" fill="white" fill-opacity="0.2125"/>
  <path d="M4.50195 8.98438C4.0918 8.98438 3.76953 8.66211 3.76953 8.25195L3.76953 4.62891C3.76953 4.00391 4.08203 3.75977 4.62891 3.75977L8.24219 3.75977C8.65234 3.75977 8.97461 4.0918 8.97461 4.50195C8.97461 4.91211 8.65234 5.23438 8.24219 5.23438L7.73438 5.23438L6.15234 5.13672L8.47656 7.35352C8.7793 7.64648 8.78906 8.16406 8.48633 8.4668C8.18359 8.7793 7.67578 8.78906 7.37305 8.45703L5.14648 6.11328L5.24414 7.74414L5.24414 8.25195C5.24414 8.66211 4.91211 8.98438 4.50195 8.98438ZM9.75586 14.2285C9.3457 14.2285 9.01367 13.8965 9.01367 13.4863C9.01367 13.0762 9.3457 12.7539 9.75586 12.7539L10.2637 12.7539L11.8457 12.8516L9.51172 10.6348C9.20898 10.3418 9.19922 9.82422 9.50195 9.52148C9.81445 9.20898 10.3125 9.19922 10.625 9.53125L12.8516 11.875L12.7539 10.2441L12.7539 9.73633C12.7539 9.32617 13.0762 9.00391 13.4863 9.00391C13.8965 9.00391 14.2285 9.32617 14.2285 9.73633L14.2285 13.3594C14.2285 13.9844 13.9062 14.2285 13.3594 14.2285Z" fill="white" fill-opacity="0.85"/>
 </g>
</svg>
