<?xml version="1.0" encoding="UTF-8"?>
<!--Generator: Apple Native CoreSVG 341-->
<!DOCTYPE svg
PUBLIC "-//W3C//DTD SVG 1.1//EN"
       "http://www.w3.org/Graphics/SVG/1.1/DTD/svg11.dtd">
<svg version="1.1" xmlns="http://www.w3.org/2000/svg" xmlns:xlink="http://www.w3.org/1999/xlink" viewBox="0 0 40.0488 16.1621">
 <g>
  <rect height="16.1621" opacity="0" width="40.0488" x="0" y="0"/>
  <path d="M0 8.07617C0 8.4375 0.15625 8.78906 0.46875 9.08203L7.32422 15.5469C7.77344 15.9668 8.14453 16.1426 8.59375 16.1426C9.23828 16.1426 9.73633 15.6641 9.73633 15.0195L9.73633 11.8164L16.3379 11.8164C17.7637 11.8164 18.623 10.957 18.623 9.57031L18.623 6.58203C18.623 5.18555 17.7734 4.35547 16.3379 4.35547L9.73633 4.35547L9.73633 1.18164C9.73633 0.517578 9.22852 0 8.58398 0C8.1543 0 7.86133 0.15625 7.32422 0.654297L0.46875 7.06055C0.136719 7.37305 0 7.71484 0 8.07617ZM1.98242 8.28125C1.82617 8.125 1.83594 8.01758 1.98242 7.87109L8.01758 2.12891C8.08594 2.07031 8.1543 2.09961 8.1543 2.16797L8.1543 5.52734C8.1543 5.79102 8.30078 5.91797 8.55469 5.91797L16.2891 5.91797C16.7676 5.91797 17.0508 6.20117 17.0508 6.69922L17.0508 9.48242C17.0508 9.98047 16.7676 10.2441 16.2891 10.2441L8.55469 10.2441C8.30078 10.2441 8.1543 10.3711 8.1543 10.6543L8.1543 13.9062C8.1543 13.9844 8.08594 14.0137 8.01758 13.9453ZM39.6875 8.07617C39.6875 7.71484 39.5508 7.37305 39.2188 7.06055L32.3633 0.654297C31.8262 0.15625 31.5332 0 31.1035 0C30.459 0 29.9512 0.517578 29.9512 1.18164L29.9512 4.35547L23.3496 4.35547C21.9141 4.35547 21.0645 5.18555 21.0645 6.58203L21.0645 9.57031C21.0645 10.957 21.9238 11.8164 23.3496 11.8164L29.9512 11.8164L29.9512 15.0195C29.9512 15.6641 30.4492 16.1426 31.0938 16.1426C31.543 16.1426 31.9141 15.9668 32.3633 15.5469L39.2188 9.08203C39.5312 8.78906 39.6875 8.4375 39.6875 8.07617ZM23.3984 10.2441C22.9199 10.2441 22.6367 9.98047 22.6367 9.48242L22.6367 6.69922C22.6367 6.20117 22.9199 5.91797 23.3984 5.91797L31.1328 5.91797C31.3867 5.91797 31.5332 5.79102 31.5332 5.52734L31.5332 2.16797C31.5332 2.09961 31.6016 2.07031 31.6699 2.12891L37.7051 7.87109C37.8516 8.01758 37.8613 8.125 37.7051 8.28125L31.6699 13.9453C31.6016 14.0137 31.5332 13.9844 31.5332 13.9062L31.5332 10.6543C31.5332 10.3711 31.3867 10.2441 31.1328 10.2441Z" fill="white" fill-opacity="0.85"/>
 </g>
</svg>
