<?xml version="1.0" encoding="UTF-8"?>
<!--Generator: Apple Native CoreSVG 341-->
<!DOCTYPE svg
PUBLIC "-//W3C//DTD SVG 1.1//EN"
       "http://www.w3.org/Graphics/SVG/1.1/DTD/svg11.dtd">
<svg version="1.1" xmlns="http://www.w3.org/2000/svg" xmlns:xlink="http://www.w3.org/1999/xlink" viewBox="0 0 15.6055 18.4473">
 <g>
  <rect height="18.4473" opacity="0" width="15.6055" x="0" y="0"/>
  <path d="M7.39258 16.6504L4.6582 13.6133L1.45508 10.4102C1.30859 10.2539 1.07422 10.1758 0.839844 10.1758C0.351562 10.1758 0 10.5469 0 11.0254C0 11.2598 0.0878906 11.4648 0.273438 11.6602L6.74805 18.1543C6.93359 18.3496 7.1582 18.4473 7.40234 18.4473C7.64648 18.4473 7.87109 18.3496 8.05664 18.1543L14.541 11.6602C14.7266 11.4648 14.8047 11.2598 14.8047 11.0254C14.8047 10.5469 14.4531 10.1758 13.9648 10.1758C13.7305 10.1758 13.5059 10.2539 13.3496 10.4102L10.1465 13.6133ZM13.1738 0C8.66211 0 6.5332 1.79688 6.5332 6.33789L6.5332 13.1055L6.61133 16.6504C6.62109 17.0703 6.97266 17.4316 7.39258 17.4316C7.83203 17.4316 8.17383 17.0703 8.18359 16.6504L8.27148 13.1055L8.26172 6.42578C8.25195 2.89062 9.79492 1.70898 13.2617 1.70898C13.6914 1.71875 14.0625 1.71875 14.375 1.72852C14.873 1.72852 15.2441 1.40625 15.2441 0.898438C15.2441 0.400391 14.8926 0.15625 14.5117 0.0683594C14.209 0.00976562 13.7402 0 13.1738 0Z" fill="white" fill-opacity="0.85"/>
 </g>
</svg>
