<?xml version="1.0" encoding="UTF-8"?>
<!--Generator: Apple Native CoreSVG 341-->
<!DOCTYPE svg
PUBLIC "-//W3C//DTD SVG 1.1//EN"
       "http://www.w3.org/Graphics/SVG/1.1/DTD/svg11.dtd">
<svg version="1.1" xmlns="http://www.w3.org/2000/svg" xmlns:xlink="http://www.w3.org/1999/xlink" viewBox="0 0 18.3363 17.5297">
 <g>
  <rect height="17.5297" opacity="0" width="18.3363" x="0" y="0"/>
  <path d="M2.40547 4.68768L5.03242 1.06464C5.44258 0.507996 5.15938 0.0783086 4.50508 0.068543L0.70625 0.000183585C0.159375-0.00958204-0.123828 0.371277 0.0519531 0.898621L1.28242 4.48261C1.49727 5.11737 1.98555 5.25409 2.40547 4.68768ZM8.15742 16.6603C8.15742 17.1193 8.52852 17.5002 8.9875 17.5002C9.44648 17.5002 9.82734 17.1193 9.82734 16.6603L9.82734 11.7385C9.82734 7.45136 7.41523 3.75018 3.19648 1.43573C2.68867 1.15253 2.22969 1.42596 2.04414 1.81659C1.87813 2.18768 1.94648 2.65643 2.38594 2.90057C6.12617 4.94159 8.15742 8.09589 8.15742 11.7385ZM15.5695 4.68768C15.9797 5.25409 16.4777 5.11737 16.6926 4.48261L17.9133 0.898621C18.0988 0.371277 17.8156-0.00958204 17.2785 0.000183585L13.4699 0.068543C12.8059 0.0783086 12.5324 0.507996 12.9426 1.06464ZM9.82734 16.6603L9.82734 11.7385C9.82734 8.09589 11.8586 4.94159 15.5988 2.90057C16.0383 2.65643 16.0969 2.18768 15.9309 1.81659C15.7453 1.42596 15.2961 1.15253 14.7883 1.43573C10.5598 3.75018 8.15742 7.45136 8.15742 11.7385L8.15742 16.6603C8.15742 17.1193 8.52852 17.5002 8.9875 17.5002C9.44648 17.5002 9.82734 17.1193 9.82734 16.6603Z" fill="white" fill-opacity="0.85"/>
 </g>
</svg>
