<?xml version="1.0" encoding="UTF-8"?>
<!--Generator: Apple Native CoreSVG 341-->
<!DOCTYPE svg
PUBLIC "-//W3C//DTD SVG 1.1//EN"
       "http://www.w3.org/Graphics/SVG/1.1/DTD/svg11.dtd">
<svg version="1.1" xmlns="http://www.w3.org/2000/svg" xmlns:xlink="http://www.w3.org/1999/xlink" viewBox="0 0 16.7871 20.9473">
 <g>
  <rect height="20.9473" opacity="0" width="16.7871" x="0" y="0"/>
  <path d="M7.50977 7.16797C7.50977 8.41797 8.10547 9.01367 9.35547 9.01367L16.4258 9.01367L16.4258 17.8809C16.4258 19.9121 15.4199 20.9375 13.3984 20.9375L3.02734 20.9375C1.00586 20.9375 0 19.9219 0 17.8809L0 3.06641C0 1.03516 1.01562 0 3.02734 0L7.50977 0ZM7.67578 10.9766L4.80469 13.6133C4.64844 13.7598 4.55078 13.9258 4.55078 14.1602C4.55078 14.5703 4.84375 14.8633 5.27344 14.8633C5.45898 14.8633 5.66406 14.7754 5.81055 14.6289L6.68945 13.7305L7.54309 12.8536L7.4707 14.4922L7.4707 18.1055C7.4707 18.5156 7.82227 18.8477 8.24219 18.8477C8.66211 18.8477 9.02344 18.5156 9.02344 18.1055L9.02344 14.4922L8.94433 12.8507L9.79492 13.7305L10.6836 14.6289C10.8301 14.7754 11.0156 14.8633 11.2207 14.8633C11.6211 14.8633 11.9434 14.5703 11.9434 14.1602C11.9434 13.9258 11.8359 13.7598 11.6797 13.6133L8.80859 10.9766C8.59375 10.791 8.44727 10.7227 8.24219 10.7227C8.03711 10.7227 7.89062 10.791 7.67578 10.9766ZM10.1172 0.927734L15.498 6.40625C15.9668 6.88477 16.25 7.27539 16.3086 7.67578L9.38477 7.67578C9.02344 7.67578 8.84766 7.5 8.84766 7.14844L8.84766 0.107422C9.25781 0.175781 9.6582 0.458984 10.1172 0.927734Z" fill="white" fill-opacity="0.85"/>
 </g>
</svg>
