<?xml version="1.0" encoding="UTF-8"?>
<!--Generator: Apple Native CoreSVG 341-->
<!DOCTYPE svg
PUBLIC "-//W3C//DTD SVG 1.1//EN"
       "http://www.w3.org/Graphics/SVG/1.1/DTD/svg11.dtd">
<svg version="1.1" xmlns="http://www.w3.org/2000/svg" xmlns:xlink="http://www.w3.org/1999/xlink" viewBox="0 0 25.3049 20.9473">
 <g>
  <rect height="20.9473" opacity="0" width="25.3049" x="0" y="0"/>
  <path d="M8.51672 17.8809C8.51672 19.9219 9.53235 20.9375 11.5441 20.9375L21.9152 20.9375C23.9366 20.9375 24.9425 19.9219 24.9425 17.8809L24.9425 3.06641C24.9425 1.03516 23.9366 0 21.9152 0L11.5441 0C9.53235 0 8.51672 1.03516 8.51672 3.06641ZM10.089 17.8516L10.089 3.0957C10.089 2.11914 10.6163 1.57227 11.632 1.57227L21.837 1.57227C22.8527 1.57227 23.3702 2.11914 23.3702 3.0957L23.3702 17.8516C23.3702 18.8281 22.8527 19.3652 21.837 19.3652L11.632 19.3652C10.6163 19.3652 10.089 18.8281 10.089 17.8516Z" fill="white" fill-opacity="0.85"/>
  <path d="M12.0128 15.1172C13.087 15.1172 15.8605 13.5059 15.8605 10.0781C15.8605 6.65039 13.087 5.03906 12.0128 5.03906C11.6515 5.03906 11.3976 5.23438 11.3976 5.61523L11.3976 14.541C11.3976 14.9316 11.6515 15.1172 12.0128 15.1172ZM19.3956 12.5879C20.8605 12.5879 22.0714 11.4746 22.0714 10.0781C22.0714 8.69141 20.8605 7.56836 19.3956 7.56836C17.8234 7.56836 16.6613 8.69141 16.6515 10.0781C16.6417 11.4746 17.8234 12.5879 19.3956 12.5879Z" fill="white" fill-opacity="0.85"/>
  <path d="M3.98547 14.3848L3.98547 8.4668C3.98547 8.03711 3.65344 7.70508 3.22375 7.70508C2.79407 7.70508 2.45227 8.03711 2.45227 8.4668L2.45227 14.3848C2.45227 14.8145 2.79407 15.1465 3.22375 15.1465C3.65344 15.1465 3.98547 14.8145 3.98547 14.3848ZM0.792112 10.1074L5.61633 10.1074C6.38782 10.1074 6.65149 9.33594 6.18274 8.81836L3.76086 6.08398C3.4386 5.71289 2.97961 5.71289 2.64758 6.08398L0.235472 8.81836C-0.252809 9.36523 0.0596906 10.1074 0.792112 10.1074Z" fill="white" fill-opacity="0.85"/>
 </g>
</svg>
