<svg version="1.1" xmlns="http://www.w3.org/2000/svg" xmlns:xlink="http://www.w3.org/1999/xlink" viewBox="0 0 24.9121 18.5645">
 <g>
  <rect height="18.5645" opacity="0" width="24.9121" x="0" y="0"/>
  <path d="M19.2969 16.9727C22.2461 16.9727 24.5508 14.8145 24.5508 12.1289C24.5508 10.0781 23.3691 8.30078 21.4648 7.5C21.4844 3.14453 18.3496 0 14.3555 0C11.709 0 9.82422 1.41602 8.65234 3.125C6.25 2.42188 3.63281 4.24805 3.58398 6.98242C1.37695 7.33398 0 9.30664 0 11.6895C0 14.5605 2.50977 16.9727 5.84961 16.9727ZM19.2969 15.4004L5.84961 15.4004C3.38867 15.4004 1.57227 13.6816 1.57227 11.6895C1.57227 9.73633 2.75391 8.18359 4.82422 8.18359C4.96094 8.18359 5.00977 8.11523 5.00977 7.98828C5.00977 4.98047 7.17773 4.0918 9.17969 4.74609C9.29688 4.78516 9.36523 4.75586 9.42383 4.64844C10.3711 2.95898 11.8262 1.57227 14.3555 1.57227C17.5586 1.57227 19.7754 4.11133 19.9414 7.01172C19.9707 7.46094 19.9414 7.98828 19.9023 8.44727C19.8926 8.57422 19.9414 8.64258 20.0586 8.67188C21.8359 9.0625 22.9785 10.3613 22.9785 12.1289C22.9785 13.9453 21.377 15.4004 19.2969 15.4004Z" fill="var(--color-secondary)"/>
  <path d="M7.45117 10.2148L10.2734 10.2148C10.6348 10.2148 10.7227 9.86328 10.5176 9.58984L9.24805 7.82227C9.04297 7.53906 8.68164 7.50977 8.45703 7.82227L7.20703 9.58984C7.01172 9.86328 7.09961 10.2148 7.45117 10.2148ZM12.6465 13.8867C13.6816 13.8867 14.6289 13.5254 15.3027 12.9785C15.6836 12.6855 15.7031 12.2754 15.5078 12.0312C15.3223 11.7969 14.9707 11.709 14.5703 11.9922C14.0527 12.4023 13.3984 12.666 12.6465 12.666C10.9082 12.666 9.50195 11.25 9.50195 9.51172C9.50195 9.17969 9.21875 8.89648 8.88672 8.89648C8.54492 8.89648 8.27148 9.17969 8.27148 9.51172C8.27148 11.9336 10.2344 13.8867 12.6465 13.8867ZM17.8418 8.81836L15.0195 8.81836C14.6582 8.81836 14.5703 9.16016 14.7754 9.44336L16.0449 11.2012C16.25 11.4941 16.6113 11.5137 16.8359 11.2012L18.0859 9.44336C18.2812 9.16016 18.1934 8.81836 17.8418 8.81836ZM12.6465 5.13672C11.6113 5.13672 10.6641 5.50781 9.99023 6.04492C9.60938 6.33789 9.58984 6.74805 9.78516 7.00195C9.9707 7.22656 10.3223 7.31445 10.7227 7.04102C11.2402 6.63086 11.8945 6.36719 12.6465 6.36719C14.3848 6.36719 15.791 7.77344 15.791 9.51172C15.791 9.85352 16.0742 10.127 16.4062 10.127C16.748 10.127 17.0215 9.85352 17.0215 9.51172C17.0215 7.09961 15.0586 5.13672 12.6465 5.13672Z" fill="var(--color-primary)"/>
 </g>
</svg>
