<svg version="1.1" xmlns="http://www.w3.org/2000/svg" xmlns:xlink="http://www.w3.org/1999/xlink" viewBox="0 0 18.3398 18.252">
 <g>
  <rect height="18.252" opacity="0" width="18.3398" x="0" y="0"/>
  <path d="M3.06641 17.9785L14.9121 17.9785C16.9629 17.9785 17.9785 16.9727 17.9785 14.9609L17.9785 3.02734C17.9785 1.01562 16.9629 0 14.9121 0L3.06641 0C1.02539 0 0 1.01562 0 3.02734L0 14.9609C0 16.9727 1.02539 17.9785 3.06641 17.9785Z" fill="var(--color-tertiary)"/>
  <path d="M10.0488 3.86719C12.3828 3.86719 13.9062 5.44922 13.9062 7.80273L13.9062 9.12109C13.9062 9.58984 13.6133 9.90234 13.1836 9.90234C12.7441 9.90234 12.4512 9.59961 12.4512 9.14062L12.4512 7.80273C12.4512 6.32812 11.4941 5.32227 10.0488 5.32227C8.71094 5.32227 7.82227 6.30859 7.82227 7.79297L7.82227 10.6543L7.7832 11.6504L8.10547 11.1914L9.24805 10.0098C9.38477 9.86328 9.57031 9.77539 9.78516 9.77539C10.2051 9.77539 10.5371 10.0977 10.5371 10.498C10.5371 10.7227 10.459 10.8984 10.3223 11.0352L7.70508 13.5938C7.51953 13.7793 7.30469 13.8574 7.08984 13.8574C6.86523 13.8574 6.65039 13.7695 6.46484 13.5938L3.87695 11.0449C3.73047 10.8984 3.66211 10.7324 3.66211 10.5078C3.66211 10.0977 3.99414 9.77539 4.41406 9.77539C4.60938 9.77539 4.80469 9.86328 4.93164 10.0098L5.88867 10.9961L6.41602 11.6602L6.36719 10.6543L6.36719 7.79297C6.36719 5.43945 7.8418 3.86719 10.0488 3.86719Z" fill="var(--color-primary)"/>
 </g>
</svg>
