<?xml version="1.0" encoding="UTF-8"?>
<!--Generator: Apple Native CoreSVG 341-->
<!DOCTYPE svg
PUBLIC "-//W3C//DTD SVG 1.1//EN"
       "http://www.w3.org/Graphics/SVG/1.1/DTD/svg11.dtd">
<svg version="1.1" xmlns="http://www.w3.org/2000/svg" xmlns:xlink="http://www.w3.org/1999/xlink" viewBox="0 0 18.3398 17.9785">
 <g>
  <rect height="17.9785" opacity="0" width="18.3398" x="0" y="0"/>
  <path d="M3.06641 17.9785L14.9121 17.9785C16.9629 17.9785 17.9785 16.9727 17.9785 14.9609L17.9785 3.02734C17.9785 1.01562 16.9629 0 14.9121 0L3.06641 0C1.02539 0 0 1.01562 0 3.02734L0 14.9609C0 16.9727 1.02539 17.9785 3.06641 17.9785ZM3.08594 16.4062C2.10938 16.4062 1.57227 15.8887 1.57227 14.873L1.57227 3.11523C1.57227 2.09961 2.10938 1.57227 3.08594 1.57227L14.8926 1.57227C15.8594 1.57227 16.4062 2.09961 16.4062 3.11523L16.4062 14.873C16.4062 15.8887 15.8594 16.4062 14.8926 16.4062Z" fill="white" fill-opacity="0.425"/>
  <path d="M3.30078 8.99414C3.30078 9.38477 3.57422 9.6582 3.94531 9.6582L8.42773 9.6582L10.2246 9.54102L8.24219 11.3086L7.61719 11.8848C7.48047 12.002 7.42188 12.1582 7.42188 12.3535C7.42188 12.7246 7.69531 12.9883 8.06641 12.9883C8.22266 12.9883 8.42773 12.9004 8.56445 12.7734L11.9238 9.48242C12.0703 9.3457 12.1484 9.17969 12.1484 8.99414C12.1484 8.81836 12.0605 8.64258 11.9238 8.50586L8.55469 5.18555C8.4082 5.03906 8.24219 4.99023 8.06641 4.99023C7.71484 4.99023 7.42188 5.24414 7.42188 5.61523C7.42188 5.79102 7.48047 5.95703 7.61719 6.09375L8.23242 6.68945L10.2148 8.44727L8.42773 8.34961L3.94531 8.34961C3.57422 8.34961 3.30078 8.62305 3.30078 8.99414ZM13.5352 13.3008C13.9258 13.3008 14.1992 13.0371 14.1992 12.6562L14.1992 5.32227C14.1992 4.94141 13.9258 4.66797 13.5352 4.66797C13.1641 4.66797 12.8906 4.94141 12.8906 5.32227L12.8906 12.6562C12.8906 13.0371 13.1641 13.3008 13.5352 13.3008Z" fill="white" fill-opacity="0.85"/>
 </g>
</svg>
