<?xml version="1.0" encoding="UTF-8"?>
<!--Generator: Apple Native CoreSVG 341-->
<!DOCTYPE svg
PUBLIC "-//W3C//DTD SVG 1.1//EN"
       "http://www.w3.org/Graphics/SVG/1.1/DTD/svg11.dtd">
<svg version="1.1" xmlns="http://www.w3.org/2000/svg" xmlns:xlink="http://www.w3.org/1999/xlink" viewBox="0 0 19.2676 23.4863">
 <g>
  <rect height="23.4863" opacity="0" width="19.2676" x="0" y="0"/>
  <path d="M5.16602 4.46289L6.71875 4.46289L6.71875 2.37305C6.71875 1.81641 7.10938 1.45508 7.69531 1.45508L11.1914 1.45508C11.7773 1.45508 12.168 1.81641 12.168 2.37305L12.168 4.46289L13.7207 4.46289L13.7207 2.27539C13.7207 0.859375 12.8027 0 11.2988 0L7.58789 0C6.08398 0 5.16602 0.859375 5.16602 2.27539ZM0.732422 5.24414L18.1836 5.24414C18.584 5.24414 18.9062 4.90234 18.9062 4.50195C18.9062 4.10156 18.584 3.76953 18.1836 3.76953L0.732422 3.76953C0.341797 3.76953 0 4.10156 0 4.50195C0 4.91211 0.341797 5.24414 0.732422 5.24414ZM4.98047 21.748L13.9355 21.748C15.332 21.748 16.2695 20.8398 16.3379 19.4434L17.0215 5.03906L1.88477 5.03906L2.57812 19.4531C2.64648 20.8496 3.56445 21.748 4.98047 21.748Z" fill="white" fill-opacity="0.2125"/>
  <path d="M9.45312 17.0312C9.83398 17.0312 10.1758 16.6992 10.1758 16.3281L10.1758 11.6211L10.0977 10C10.0586 9.16016 8.83789 9.16016 8.79883 10L8.7207 11.6211L8.7207 16.3281C8.7207 16.6992 9.07227 17.0312 9.45312 17.0312ZM6.61133 12.5098C6.78711 12.5098 6.99219 12.4219 7.11914 12.2852L8.38867 10.918L9.45312 9.82422L9.45312 9.82422L10.5078 10.918L11.7773 12.2852C11.9141 12.4219 12.0996 12.5098 12.2754 12.5098C12.6465 12.5098 12.9395 12.2363 12.9395 11.8555C12.9395 11.6699 12.8613 11.5137 12.7246 11.3867L9.9707 8.7207C9.78516 8.54492 9.62891 8.48633 9.45312 8.48633C9.26758 8.48633 9.11133 8.54492 8.92578 8.7207L6.17188 11.3867C6.03516 11.5039 5.95703 11.6699 5.95703 11.8555C5.95703 12.2363 6.24023 12.5098 6.61133 12.5098Z" fill="white" fill-opacity="0.85"/>
 </g>
</svg>
