<svg version="1.1" xmlns="http://www.w3.org/2000/svg" xmlns:xlink="http://www.w3.org/1999/xlink" viewBox="0 0 23.3887 17.9785">
 <g>
  <rect height="17.9785" opacity="0" width="23.3887" x="0" y="0"/>
  <path d="M3.06641 17.9785L19.9609 17.9785C22.0117 17.9785 23.0273 16.9727 23.0273 14.9609L23.0273 3.02734C23.0273 1.01562 22.0117 0 19.9609 0L3.06641 0C1.02539 0 0 1.01562 0 3.02734L0 14.9609C0 16.9727 1.02539 17.9785 3.06641 17.9785ZM3.08594 16.4062C2.10938 16.4062 1.57227 15.8887 1.57227 14.873L1.57227 3.11523C1.57227 2.09961 2.10938 1.57227 3.08594 1.57227L19.9414 1.57227C20.9082 1.57227 21.4551 2.09961 21.4551 3.11523L21.4551 14.873C21.4551 15.8887 20.9082 16.4062 19.9414 16.4062Z" fill="var(--color-secondary)"/>
  <path d="M19.7266 4.31641C19.8633 4.17969 19.9609 3.99414 19.9609 3.79883C19.9609 3.35938 19.6777 3.06641 19.248 3.06641C19.0039 3.06641 18.8281 3.1543 18.6914 3.29102L15.7422 6.24023L14.0137 8.07617C13.3691 8.75977 14.209 9.67773 14.9316 9.00391L16.7773 7.26562ZM13.8574 9.96094L18.3594 9.96094C18.8086 9.95117 19.0918 9.67773 19.0918 9.24805C19.0918 8.81836 18.7988 8.53516 18.3301 8.52539L16.6895 8.52539L14.1895 8.82812L14.4922 6.2207L14.4922 4.6875C14.4824 4.20898 14.1992 3.91602 13.7695 3.91602C13.3398 3.91602 13.0664 4.19922 13.0566 4.6582L13.0566 9.15039C13.0566 9.69727 13.3203 9.96094 13.8574 9.96094Z" fill="var(--color-primary)"/>
 </g>
</svg>
