<?xml version="1.0" encoding="UTF-8"?>
<!--Generator: Apple Native CoreSVG 341-->
<!DOCTYPE svg
PUBLIC "-//W3C//DTD SVG 1.1//EN"
       "http://www.w3.org/Graphics/SVG/1.1/DTD/svg11.dtd">
<svg version="1.1" xmlns="http://www.w3.org/2000/svg" xmlns:xlink="http://www.w3.org/1999/xlink" viewBox="0 0 30.0977 18.5645">
 <g>
  <rect height="18.5645" opacity="0" width="30.0977" x="0" y="0"/>
  <path d="M29.7363 9.28711C29.7363 9.05273 29.6289 8.81836 29.4336 8.63281L24.9609 4.16992C24.7559 3.97461 24.541 3.88672 24.3066 3.88672C23.8281 3.88672 23.457 4.24805 23.457 4.73633C23.457 4.9707 23.5254 5.19531 23.7012 5.36133L27.8711 9.28711L23.7012 13.2129C23.5254 13.3691 23.457 13.6035 23.457 13.8379C23.457 14.3359 23.8281 14.6875 24.3066 14.6875C24.541 14.6875 24.7559 14.6094 24.9609 14.4141L29.4336 9.94141C29.6289 9.75586 29.7363 9.53125 29.7363 9.28711ZM27.5684 8.48633L24.9805 8.41797L18.3203 8.41797C17.8125 8.41797 17.4609 8.7793 17.4609 9.28711C17.4609 9.80469 17.8125 10.166 18.3203 10.166L24.9805 10.166L27.5684 10.0879C28.0176 10.0781 28.3691 9.73633 28.3691 9.28711C28.3691 8.84766 28.0176 8.49609 27.5684 8.48633Z" fill="white" fill-opacity="0.85"/>
  <path d="M14.8633 18.5645C15.3711 18.5645 15.7324 18.2031 15.7324 17.6953L15.7324 0.849609C15.7324 0.351562 15.3711 0 14.8633 0C14.3555 0 13.9844 0.351562 13.9844 0.849609L13.9844 17.6953C13.9844 18.2031 14.3555 18.5645 14.8633 18.5645Z" fill="white" fill-opacity="0.85"/>
  <path d="M0 9.27734C0 9.52148 0.107422 9.74609 0.302734 9.93164L4.77539 14.3945C4.98047 14.5898 5.18555 14.6777 5.41992 14.6777C5.9082 14.6777 6.2793 14.3262 6.2793 13.8281C6.2793 13.5938 6.21094 13.3594 6.03516 13.2031L1.85547 9.27734L6.03516 5.35156C6.21094 5.18555 6.2793 4.96094 6.2793 4.72656C6.2793 4.23828 5.9082 3.87695 5.41992 3.87695C5.18555 3.87695 4.98047 3.96484 4.77539 4.16016L0.302734 8.62305C0.107422 8.80859 0 9.0332 0 9.27734ZM2.16797 8.47656C1.71875 8.48633 1.36719 8.82812 1.36719 9.27734C1.36719 9.72656 1.71875 10.0684 2.16797 10.0781L4.75586 10.1562L11.416 10.1562C11.9238 10.1562 12.2754 9.78516 12.2754 9.27734C12.2754 8.76953 11.9238 8.4082 11.416 8.4082L4.75586 8.4082Z" fill="white" fill-opacity="0.85"/>
 </g>
</svg>
