<svg version="1.1" xmlns="http://www.w3.org/2000/svg" xmlns:xlink="http://www.w3.org/1999/xlink" viewBox="0 0 20.2832 19.9316">
 <g>
  <rect height="19.9316" opacity="0" width="20.2832" x="0" y="0"/>
  <path d="M9.96094 19.9316C15.459 19.9316 19.9219 15.4688 19.9219 9.9707C19.9219 4.48242 15.459 0.00976562 9.96094 0.00976562C4.47266 0.00976562 0 4.48242 0 9.9707C0 15.4688 4.47266 19.9316 9.96094 19.9316Z" fill="var(--color-tertiary)"/>
  <path d="M3.80859 9.9707C3.80859 9.78516 3.87695 9.58984 4.0918 9.375L8.41797 5.3418C8.71094 5.06836 8.87695 4.95117 9.14062 4.95117C9.53125 4.95117 9.80469 5.26367 9.80469 5.625L9.80469 7.8125L14.3555 7.8125C15.1562 7.8125 15.6152 8.27148 15.6152 9.04297L15.6152 10.9082C15.6152 11.6797 15.1562 12.1387 14.3555 12.1387L9.80469 12.1387L9.80469 14.3555C9.80469 14.7363 9.53125 14.9902 9.16016 14.9902C8.88672 14.9902 8.68164 14.873 8.41797 14.6387L4.0918 10.5566C3.87695 10.3613 3.80859 10.1465 3.80859 9.9707Z" fill="var(--color-primary)"/>
 </g>
</svg>
