<?xml version="1.0" encoding="UTF-8"?>
<!--Generator: Apple Native CoreSVG 341-->
<!DOCTYPE svg
PUBLIC "-//W3C//DTD SVG 1.1//EN"
       "http://www.w3.org/Graphics/SVG/1.1/DTD/svg11.dtd">
<svg version="1.1" xmlns="http://www.w3.org/2000/svg" xmlns:xlink="http://www.w3.org/1999/xlink" viewBox="0 0 18.3398 17.9785">
 <g>
  <rect height="17.9785" opacity="0" width="18.3398" x="0" y="0"/>
  <path d="M3.06641 17.9785L14.9121 17.9785C16.9629 17.9785 17.9785 16.9727 17.9785 14.9609L17.9785 3.02734C17.9785 1.01562 16.9629 0 14.9121 0L3.06641 0C1.02539 0 0 1.01562 0 3.02734L0 14.9609C0 16.9727 1.02539 17.9785 3.06641 17.9785Z" fill="white" fill-opacity="0.2125"/>
  <path d="M4.57031 13.4375C4.16016 13.4375 3.87695 13.1641 3.87695 12.7734L3.87695 5.20508C3.87695 4.81445 4.16016 4.53125 4.57031 4.53125C4.95117 4.53125 5.23438 4.81445 5.23438 5.20508L5.23438 12.7734C5.23438 13.1641 4.95117 13.4375 4.57031 13.4375ZM15.1367 8.99414C15.1367 9.4043 14.8438 9.6875 14.4531 9.6875L9.84375 9.6875L7.98828 9.56055L10.0391 11.3867L10.6738 11.9727C10.8203 12.0898 10.8789 12.2559 10.8789 12.4609C10.8789 12.8418 10.5957 13.1152 10.2051 13.1152C10.0488 13.1152 9.83398 13.0273 9.69727 12.8906L6.24023 9.50195C6.07422 9.35547 6.00586 9.18945 6.00586 8.99414C6.00586 8.80859 6.09375 8.63281 6.24023 8.48633L9.7168 5.06836C9.85352 4.91211 10.0293 4.86328 10.2051 4.86328C10.5762 4.86328 10.8789 5.12695 10.8789 5.50781C10.8789 5.69336 10.8203 5.86914 10.6738 6.00586L10.0488 6.61133L7.99805 8.42773L9.84375 8.33008L14.4531 8.33008C14.8438 8.33008 15.1367 8.61328 15.1367 8.99414Z" fill="white" fill-opacity="0.85"/>
 </g>
</svg>
