<?xml version="1.0" encoding="UTF-8"?>
<!--Generator: Apple Native CoreSVG 341-->
<!DOCTYPE svg
PUBLIC "-//W3C//DTD SVG 1.1//EN"
       "http://www.w3.org/Graphics/SVG/1.1/DTD/svg11.dtd">
<svg version="1.1" xmlns="http://www.w3.org/2000/svg" xmlns:xlink="http://www.w3.org/1999/xlink" viewBox="0 0 18.3398 17.9785">
 <g>
  <rect height="17.9785" opacity="0" width="18.3398" x="0" y="0"/>
  <path d="M17.9785 3.02734L17.9785 14.9609C17.9785 16.9727 16.9629 17.9785 14.9121 17.9785L3.06641 17.9785C1.02539 17.9785 0 16.9727 0 14.9609L0 3.02734C0 1.01562 1.02539 0 3.06641 0L14.9121 0C16.9629 0 17.9785 1.01562 17.9785 3.02734ZM4.55078 9.10156C4.15039 9.10156 3.82812 9.41406 3.82812 9.82422C3.82812 10.2148 4.15039 10.5273 4.55078 10.5273L5.03906 10.5273L6.58203 10.4297L3.86719 13.0273C3.57422 13.3203 3.55469 13.8086 3.85742 14.1016C4.15039 14.4043 4.62891 14.4043 4.92188 14.0918L7.54883 11.3672L7.45117 12.959L7.45117 13.4473C7.45117 13.8477 7.76367 14.1602 8.1543 14.1602C8.55469 14.1602 8.87695 13.8477 8.87695 13.4473L8.87695 9.93164C8.87695 9.33594 8.56445 9.10156 8.03711 9.10156ZM13.0664 3.86719L10.4395 6.5918L10.5469 5L10.5469 4.51172C10.5469 4.11133 10.2246 3.79883 9.83398 3.79883C9.43359 3.79883 9.12109 4.11133 9.12109 4.51172L9.12109 8.01758C9.12109 8.62305 9.42383 8.85742 9.95117 8.85742L13.4375 8.85742C13.8477 8.85742 14.1602 8.53516 14.1602 8.13477C14.1602 7.74414 13.8477 7.43164 13.4375 7.43164L12.9492 7.43164L11.4062 7.5293L14.1211 4.93164C14.4141 4.62891 14.4336 4.15039 14.1309 3.85742C13.8379 3.55469 13.3594 3.55469 13.0664 3.86719Z" fill="white" fill-opacity="0.85"/>
 </g>
</svg>
