<?xml version="1.0" encoding="UTF-8"?>
<!--Generator: Apple Native CoreSVG 341-->
<!DOCTYPE svg
PUBLIC "-//W3C//DTD SVG 1.1//EN"
       "http://www.w3.org/Graphics/SVG/1.1/DTD/svg11.dtd">
<svg version="1.1" xmlns="http://www.w3.org/2000/svg" xmlns:xlink="http://www.w3.org/1999/xlink" viewBox="0 0 39.8438 16.1816">
 <g>
  <rect height="16.1816" opacity="0" width="39.8438" x="0" y="0"/>
  <path d="M16.2402 4.46289L6.12305 4.46289C4.6875 4.46289 3.83789 5.30273 3.83789 6.70898L3.83789 9.47266C3.83789 10.8594 4.69727 11.7285 6.12305 11.7285L16.2402 11.7285C17.666 11.7285 18.5254 10.8594 18.5254 9.47266L18.5254 6.70898C18.5254 5.30273 17.6758 4.46289 16.2402 4.46289ZM9.72656 15.0293L9.72656 1.18164C9.72656 0.527344 9.22852 0 8.58398 0C8.1543 0 7.86133 0.15625 7.31445 0.654297L0.46875 7.07031C0.136719 7.38281 0 7.72461 0 8.08594C0 8.44727 0.15625 8.79883 0.46875 9.0918L7.31445 15.5566C7.77344 15.9863 8.13477 16.1621 8.59375 16.1621C9.24805 16.1621 9.72656 15.6738 9.72656 15.0293ZM23.2422 4.46289C21.8066 4.46289 20.957 5.30273 20.957 6.70898L20.957 9.47266C20.957 10.8594 21.8164 11.7285 23.2422 11.7285L33.3594 11.7285C34.7852 11.7285 35.6445 10.8594 35.6445 9.47266L35.6445 6.70898C35.6445 5.30273 34.7949 4.46289 33.3594 4.46289ZM29.7559 15.0293C29.7559 15.6738 30.2344 16.1621 30.8887 16.1621C31.3477 16.1621 31.709 15.9863 32.168 15.5566L39.0137 9.0918C39.3262 8.79883 39.4824 8.44727 39.4824 8.08594C39.4824 7.72461 39.3457 7.38281 39.0137 7.07031L32.168 0.654297C31.6211 0.15625 31.3281 0 30.8984 0C30.2539 0 29.7559 0.527344 29.7559 1.18164Z" fill="white" fill-opacity="0.85"/>
 </g>
</svg>
