<?xml version="1.0" encoding="UTF-8"?>
<!--Generator: Apple Native CoreSVG 341-->
<!DOCTYPE svg
PUBLIC "-//W3C//DTD SVG 1.1//EN"
       "http://www.w3.org/Graphics/SVG/1.1/DTD/svg11.dtd">
<svg version="1.1" xmlns="http://www.w3.org/2000/svg" xmlns:xlink="http://www.w3.org/1999/xlink" viewBox="0 0 23.3887 17.9785">
 <g>
  <rect height="17.9785" opacity="0" width="23.3887" x="0" y="0"/>
  <path d="M23.0273 3.02734L23.0273 14.9609C23.0273 16.9727 22.0117 17.9785 19.9609 17.9785L3.06641 17.9785C1.02539 17.9785 0 16.9727 0 14.9609L0 3.02734C0 1.01562 1.02539 0 3.06641 0L19.9609 0C22.0117 0 23.0273 1.01562 23.0273 3.02734ZM2.95898 3.7207C2.95898 3.91602 3.05664 4.11133 3.20312 4.24805L6.23047 7.27539L7.80737 8.76379L6.31836 8.58398L4.64844 8.58398C4.15039 8.59375 3.84766 8.88672 3.84766 9.32617C3.84766 9.77539 4.14062 10.0586 4.61914 10.0684L9.24805 10.0684C9.80469 10.0684 10.0879 9.79492 10.0879 9.22852L10.0879 4.59961C10.0781 4.12109 9.78516 3.82812 9.3457 3.82812C8.89648 3.82812 8.60352 4.13086 8.59375 4.62891L8.59375 6.20117L8.77721 7.78356L7.29492 6.2207L4.27734 3.19336C4.13086 3.04688 3.94531 2.95898 3.70117 2.95898C3.25195 2.95898 2.95898 3.26172 2.95898 3.7207Z" fill="white" fill-opacity="0.85"/>
 </g>
</svg>
