<svg version="1.1" xmlns="http://www.w3.org/2000/svg" xmlns:xlink="http://www.w3.org/1999/xlink" viewBox="0 0 18.3398 17.9785">
 <g>
  <rect height="17.9785" opacity="0" width="18.3398" x="0" y="0"/>
  <path d="M3.06641 17.9785L14.9121 17.9785C16.9629 17.9785 17.9785 16.9727 17.9785 14.9609L17.9785 3.02734C17.9785 1.01562 16.9629 0 14.9121 0L3.06641 0C1.02539 0 0 1.01562 0 3.02734L0 14.9609C0 16.9727 1.02539 17.9785 3.06641 17.9785ZM3.08594 16.4062C2.10938 16.4062 1.57227 15.8887 1.57227 14.873L1.57227 3.11523C1.57227 2.09961 2.10938 1.57227 3.08594 1.57227L14.8926 1.57227C15.8594 1.57227 16.4062 2.09961 16.4062 3.11523L16.4062 14.873C16.4062 15.8887 15.8594 16.4062 14.8926 16.4062Z" fill="var(--color-secondary)"/>
  <path d="M4.83398 9.74609L10.4883 9.74609L12.2656 9.67773C12.6465 9.6582 12.9688 9.36523 12.9688 8.97461C12.9688 8.58398 12.6465 8.29102 12.2656 8.27148L10.4883 8.20312L4.83398 8.19336C4.42383 8.19336 4.07227 8.55469 4.07227 8.97461C4.07227 9.39453 4.42383 9.74609 4.83398 9.74609ZM10.0488 12.9883C10.2539 12.9883 10.4102 12.9102 10.5664 12.7637L13.6621 9.54102C13.8574 9.3457 13.9258 9.16992 13.9258 8.97461C13.9258 8.76953 13.8574 8.60352 13.6621 8.4082L10.5664 5.18555C10.4102 5.03906 10.2539 4.96094 10.0488 4.96094C9.64844 4.96094 9.36523 5.26367 9.36523 5.67383C9.36523 5.85938 9.44336 6.06445 9.59961 6.20117L11.1816 7.68555L12.5488 8.97461L12.5488 8.97461L11.1816 10.2637L9.59961 11.748C9.44336 11.8848 9.36523 12.0996 9.36523 12.2852C9.36523 12.6953 9.64844 12.9883 10.0488 12.9883Z" fill="var(--color-primary)"/>
 </g>
</svg>
