<?xml version="1.0" encoding="UTF-8"?>
<!--Generator: Apple Native CoreSVG 341-->
<!DOCTYPE svg
PUBLIC "-//W3C//DTD SVG 1.1//EN"
       "http://www.w3.org/Graphics/SVG/1.1/DTD/svg11.dtd">
<svg version="1.1" xmlns="http://www.w3.org/2000/svg" xmlns:xlink="http://www.w3.org/1999/xlink" viewBox="0 0 20.2832 19.9316">
 <g>
  <rect height="19.9316" opacity="0" width="20.2832" x="0" y="0"/>
  <path d="M9.96094 19.9219C15.459 19.9219 19.9219 15.459 19.9219 9.96094C19.9219 4.46289 15.459 0 9.96094 0C4.46289 0 0 4.46289 0 9.96094C0 15.459 4.46289 19.9219 9.96094 19.9219ZM9.96094 18.2617C5.37109 18.2617 1.66016 14.5508 1.66016 9.96094C1.66016 5.37109 5.37109 1.66016 9.96094 1.66016C14.5508 1.66016 18.2617 5.37109 18.2617 9.96094C18.2617 14.5508 14.5508 18.2617 9.96094 18.2617Z" fill="white" fill-opacity="0.425"/>
  <path d="M12.0605 14.209L12.0605 7.91992C12.0605 7.14844 11.6211 6.69922 10.8691 6.69922L9.0625 6.69922C8.31055 6.69922 7.87109 7.14844 7.87109 7.91992L7.87109 14.209C7.87109 14.9902 8.31055 15.4395 9.0625 15.4395L10.8691 15.4395C11.6211 15.4395 12.0605 14.9902 12.0605 14.209ZM5.71289 9.79492L14.1895 9.79492C14.541 9.79492 14.8242 9.53125 14.8242 9.16016C14.8242 8.90625 14.7168 8.73047 14.4531 8.45703L10.5371 4.25781C10.3418 4.05273 10.1367 3.98438 9.96094 3.98438C9.79492 3.98438 9.58008 4.05273 9.39453 4.25781L5.42969 8.45703C5.20508 8.70117 5.09766 8.91602 5.09766 9.17969C5.09766 9.53125 5.35156 9.79492 5.71289 9.79492Z" fill="white" fill-opacity="0.85"/>
 </g>
</svg>
