<svg version="1.1" xmlns="http://www.w3.org/2000/svg" xmlns:xlink="http://www.w3.org/1999/xlink" viewBox="0 0 23.3887 17.9785">
 <g>
  <rect height="17.9785" opacity="0" width="23.3887" x="0" y="0"/>
  <path d="M3.06641 17.9785L19.9609 17.9785C22.0117 17.9785 23.0273 16.9727 23.0273 14.9609L23.0273 3.02734C23.0273 1.01562 22.0117 0 19.9609 0L3.06641 0C1.02539 0 0 1.01562 0 3.02734L0 14.9609C0 16.9727 1.02539 17.9785 3.06641 17.9785Z" fill="var(--color-tertiary)"/>
  <path d="M3.20312 4.24805L6.23047 7.27539L8.14453 9.08203C8.88672 9.77539 9.75586 8.82812 9.0918 8.11523L7.29492 6.2207L4.27734 3.19336C4.13086 3.04688 3.94531 2.95898 3.70117 2.95898C3.25195 2.95898 2.95898 3.26172 2.95898 3.7207C2.95898 3.91602 3.05664 4.11133 3.20312 4.24805ZM9.24805 10.0684C9.80469 10.0684 10.0879 9.79492 10.0879 9.22852L10.0879 4.59961C10.0781 4.12109 9.78516 3.82812 9.3457 3.82812C8.89648 3.82812 8.60352 4.13086 8.59375 4.62891L8.59375 6.20117L8.90625 8.89648L6.31836 8.58398L4.64844 8.58398C4.15039 8.59375 3.84766 8.88672 3.84766 9.32617C3.84766 9.77539 4.14062 10.0586 4.61914 10.0684Z" fill="var(--color-primary)"/>
 </g>
</svg>
