<svg version="1.1" xmlns="http://www.w3.org/2000/svg" xmlns:xlink="http://www.w3.org/1999/xlink" viewBox="0 0 20.2832 19.9316">
 <g>
  <rect height="19.9316" opacity="0" width="20.2832" x="0" y="0"/>
  <path d="M9.96094 19.9219C15.459 19.9219 19.9219 15.459 19.9219 9.96094C19.9219 4.46289 15.459 0 9.96094 0C4.46289 0 0 4.46289 0 9.96094C0 15.459 4.46289 19.9219 9.96094 19.9219ZM9.96094 18.2617C5.37109 18.2617 1.66016 14.5508 1.66016 9.96094C1.66016 5.37109 5.37109 1.66016 9.96094 1.66016C14.5508 1.66016 18.2617 5.37109 18.2617 9.96094C18.2617 14.5508 14.5508 18.2617 9.96094 18.2617Z" fill="var(--color-secondary)"/>
  <path d="M4.31641 10.8008C4.31641 11.1621 4.63867 11.4746 4.99023 11.4648L8.42773 11.4258C8.60352 11.416 8.76953 11.3477 8.87695 11.2305C9.14062 10.9766 9.14062 10.6152 8.88672 10.3613C8.75977 10.2344 8.60352 10.1758 8.4375 10.1758L6.99219 10.1953L6.43555 10.2148L6.78711 9.90234L11.2598 5.41992C11.5137 5.16602 11.5234 4.78516 11.2598 4.52148C11.0059 4.26758 10.625 4.26758 10.3613 4.52148L5.88867 9.00391L5.57617 9.33594L5.5957 8.80859L5.61523 7.35352C5.625 7.1875 5.55664 7.02148 5.43945 6.9043C5.17578 6.64062 4.80469 6.64062 4.55078 6.9043C4.44336 7.02148 4.36523 7.20703 4.36523 7.37305ZM15.5859 9.13086C15.5859 8.75977 15.293 8.48633 14.9316 8.48633L11.4941 8.51562C11.3379 8.51562 11.1523 8.59375 11.0449 8.70117C10.7715 8.97461 10.7715 9.33594 11.0352 9.58984C11.1621 9.70703 11.3086 9.77539 11.4746 9.77539L12.9395 9.74609L13.4863 9.72656L13.1445 10.0293L8.65234 14.5215C8.39844 14.7754 8.39844 15.1465 8.66211 15.4102C8.91602 15.6641 9.29688 15.6738 9.55078 15.4102L14.0332 10.9375L14.3652 10.5859L14.3262 11.1328L14.3066 12.5879C14.3066 12.7539 14.3652 12.9102 14.4824 13.0371C14.7363 13.291 15.1074 13.291 15.3711 13.0371C15.4785 12.9297 15.5371 12.7539 15.5469 12.5781Z" fill="var(--color-primary)"/>
 </g>
</svg>
