<svg version="1.1" xmlns="http://www.w3.org/2000/svg" xmlns:xlink="http://www.w3.org/1999/xlink" viewBox="0 0 20.332 24.5996">
 <g>
  <rect height="24.5996" opacity="0" width="20.332" x="0" y="0"/>
  <path d="M19.9707 3.06641L19.9707 16.6309C19.9707 18.6719 18.9551 19.6973 16.9434 19.6973L15.2344 19.6973L15.2344 7.93945C15.2344 5.89844 14.2285 4.87305 12.207 4.87305L4.73633 4.87305L4.73633 3.06641C4.73633 1.02539 5.74219 0 7.76367 0L16.9434 0C18.9551 0 19.9707 1.03516 19.9707 3.06641ZM9.9707 1.99219C9.54102 1.99219 9.3457 2.26562 9.3457 2.56836L9.3457 2.77344C9.3457 3.06641 9.54102 3.34961 9.9707 3.34961L14.7363 3.34961C15.1562 3.34961 15.3613 3.06641 15.3613 2.77344L15.3613 2.56836C15.3613 2.26562 15.1562 1.99219 14.7363 1.99219Z" fill="var(--color-secondary)"/>
  <path d="M0 21.5039C0 23.5449 1.00586 24.5703 3.02734 24.5703L12.207 24.5703C14.2285 24.5703 15.2344 23.5352 15.2344 21.5039L15.2344 7.93945C15.2344 5.89844 14.2285 4.87305 12.207 4.87305L3.02734 4.87305C1.00586 4.87305 0 5.88867 0 7.93945ZM1.57227 21.4746L1.57227 7.95898C1.57227 6.99219 2.08984 6.44531 3.0957 6.44531L12.1289 6.44531C13.1348 6.44531 13.6621 6.99219 13.6621 7.95898L13.6621 21.4746C13.6621 22.4512 13.1348 22.998 12.1289 22.998L3.0957 22.998C2.08984 22.998 1.57227 22.4512 1.57227 21.4746Z" fill="var(--color-primary)"/>
  <path d="M2.55859 15.3906L5.30273 15.3906C5.6543 15.3906 5.73242 15.0586 5.53711 14.7949L4.30664 13.0664C4.10156 12.7832 3.75977 12.7637 3.54492 13.0664L2.32422 14.7949C2.13867 15.0586 2.2168 15.3906 2.55859 15.3906ZM7.64648 18.9941C8.66211 18.9941 9.59961 18.623 10.2539 18.0859C10.625 17.8027 10.6348 17.4121 10.4492 17.1777C10.2832 16.9629 9.94141 16.875 9.56055 17.1484C9.04297 17.5586 8.38867 17.8223 7.64648 17.8223C5.92773 17.8223 4.53125 16.4258 4.53125 14.707C4.53125 14.3945 4.26758 14.1309 3.94531 14.1309C3.63281 14.1309 3.36914 14.3945 3.36914 14.707C3.36914 17.0801 5.2832 18.9941 7.64648 18.9941ZM12.7344 14.0332L9.98047 14.0332C9.63867 14.0332 9.56055 14.3652 9.74609 14.6289L10.9766 16.3574C11.1816 16.6406 11.5332 16.6602 11.748 16.3574L12.959 14.6289C13.1543 14.3652 13.0664 14.0332 12.7344 14.0332ZM7.64648 10.4297C6.63086 10.4297 5.69336 10.8008 5.0293 11.3379C4.66797 11.6211 4.64844 12.0117 4.83398 12.2461C5.00977 12.4609 5.35156 12.5488 5.72266 12.2754C6.24023 11.8652 6.89453 11.6016 7.64648 11.6016C9.35547 11.6016 10.752 12.998 10.752 14.707C10.752 15.0293 11.0156 15.293 11.3379 15.293C11.6602 15.293 11.9238 15.0293 11.9238 14.707C11.9238 12.3438 10.0098 10.4297 7.64648 10.4297Z" fill="var(--color-primary)"/>
 </g>
</svg>
