<?xml version="1.0" encoding="UTF-8"?>
<!--Generator: Apple Native CoreSVG 341-->
<!DOCTYPE svg
PUBLIC "-//W3C//DTD SVG 1.1//EN"
       "http://www.w3.org/Graphics/SVG/1.1/DTD/svg11.dtd">
<svg version="1.1" xmlns="http://www.w3.org/2000/svg" xmlns:xlink="http://www.w3.org/1999/xlink" viewBox="0 0 20.2832 19.9316">
 <g>
  <rect height="19.9316" opacity="0" width="20.2832" x="0" y="0"/>
  <path d="M9.96094 19.9219C15.459 19.9219 19.9219 15.459 19.9219 9.96094C19.9219 4.46289 15.459 0 9.96094 0C4.46289 0 0 4.46289 0 9.96094C0 15.459 4.46289 19.9219 9.96094 19.9219ZM9.96094 18.2617C5.37109 18.2617 1.66016 14.5508 1.66016 9.96094C1.66016 5.37109 5.37109 1.66016 9.96094 1.66016C14.5508 1.66016 18.2617 5.37109 18.2617 9.96094C18.2617 14.5508 14.5508 18.2617 9.96094 18.2617Z" fill="white" fill-opacity="0.85"/>
  <path d="M4.89258 8.05664C4.89258 8.29102 5 8.48633 5.15625 8.65234L7.76367 11.3086C7.90039 11.4453 8.05664 11.5137 8.26172 11.5137C8.65234 11.5137 8.95508 11.2109 8.95508 10.8008C8.95508 10.625 8.88672 10.4297 8.74023 10.3027L7.51953 9.13086L6.10352 8.07617L7.72461 6.80664L8.73047 5.83008C8.86719 5.71289 8.95508 5.52734 8.95508 5.32227C8.95508 4.92188 8.65234 4.61914 8.25195 4.61914C8.04688 4.61914 7.89062 4.67773 7.75391 4.82422L5.15625 7.46094C5 7.62695 4.89258 7.83203 4.89258 8.05664ZM8.91602 14.2676C8.91602 14.7168 9.23828 14.9609 9.67773 14.9609L11.0156 14.9609C13.291 14.9609 15 13.4961 15 11.1523C15 8.80859 13.3008 7.38281 11.0254 7.38281L8.10547 7.38281L6.18164 7.41211C5.82031 7.42188 5.53711 7.70508 5.53711 8.04688C5.53711 8.4082 5.82031 8.68164 6.18164 8.69141L8.10547 8.75L11.0254 8.75C12.4609 8.75 13.5645 9.57031 13.5645 11.0742C13.5645 12.6172 12.4902 13.5645 11.0156 13.5645L9.6582 13.5645C9.23828 13.5645 8.91602 13.8086 8.91602 14.2676Z" fill="white" fill-opacity="0.85"/>
 </g>
</svg>
