<?xml version="1.0" encoding="UTF-8"?>
<!--Generator: Apple Native CoreSVG 341-->
<!DOCTYPE svg
PUBLIC "-//W3C//DTD SVG 1.1//EN"
       "http://www.w3.org/Graphics/SVG/1.1/DTD/svg11.dtd">
<svg version="1.1" xmlns="http://www.w3.org/2000/svg" xmlns:xlink="http://www.w3.org/1999/xlink" viewBox="0 0 18.3398 17.9785">
 <g>
  <rect height="17.9785" opacity="0" width="18.3398" x="0" y="0"/>
  <path d="M3.06641 17.9785L14.9121 17.9785C16.9629 17.9785 17.9785 16.9727 17.9785 14.9609L17.9785 3.02734C17.9785 1.01562 16.9629 0 14.9121 0L3.06641 0C1.02539 0 0 1.01562 0 3.02734L0 14.9609C0 16.9727 1.02539 17.9785 3.06641 17.9785ZM3.08594 16.4062C2.10938 16.4062 1.57227 15.8887 1.57227 14.873L1.57227 3.11523C1.57227 2.09961 2.10938 1.57227 3.08594 1.57227L14.8926 1.57227C15.8594 1.57227 16.4062 2.09961 16.4062 3.11523L16.4062 14.873C16.4062 15.8887 15.8594 16.4062 14.8926 16.4062Z" fill="white" fill-opacity="0.425"/>
  <path d="M13.2129 8.97461C13.5938 8.97461 13.9062 8.67188 13.9062 8.29102L13.9062 4.89258C13.9062 4.30664 13.6035 4.08203 13.0957 4.08203L9.7168 4.08203C9.33594 4.08203 9.02344 4.39453 9.02344 4.77539C9.02344 5.15625 9.33594 5.45898 9.7168 5.45898L10.1953 5.45898L11.6895 5.36133L9.48242 7.46094C9.19922 7.73438 9.18945 8.21289 9.47266 8.49609C9.76562 8.78906 10.2246 8.79883 10.5176 8.48633L12.627 6.26953L12.5293 7.8125L12.5293 8.29102C12.5293 8.67188 12.832 8.97461 13.2129 8.97461ZM8.28125 13.9062C8.66211 13.9062 8.96484 13.5938 8.96484 13.2129C8.96484 12.832 8.66211 12.5293 8.28125 12.5293L7.80273 12.5293L6.30859 12.627L8.50586 10.5273C8.78906 10.2539 8.79883 9.77539 8.51562 9.49219C8.23242 9.19922 7.76367 9.18945 7.48047 9.50195L5.37109 11.7188L5.46875 10.1758L5.46875 9.69727C5.46875 9.31641 5.15625 9.01367 4.77539 9.01367C4.39453 9.01367 4.0918 9.31641 4.0918 9.69727L4.0918 13.0957C4.0918 13.6816 4.38477 13.9062 4.89258 13.9062Z" fill="white" fill-opacity="0.85"/>
 </g>
</svg>
