<svg version="1.1" xmlns="http://www.w3.org/2000/svg" xmlns:xlink="http://www.w3.org/1999/xlink" viewBox="0 0 20.2832 20.166">
 <g>
  <rect height="20.166" opacity="0" width="20.2832" x="0" y="0"/>
  <path d="M9.96094 19.9219C15.459 19.9219 19.9219 15.459 19.9219 9.96094C19.9219 4.47266 15.459 0 9.96094 0C4.47266 0 0 4.47266 0 9.96094C0 15.459 4.47266 19.9219 9.96094 19.9219Z" fill="var(--color-tertiary)"/>
  <path d="M11.0156 4.84375C13.3496 4.84375 14.873 6.43555 14.873 8.78906L14.873 10.0977C14.873 10.5664 14.5801 10.8887 14.1406 10.8887C13.7109 10.8887 13.418 10.5762 13.418 10.1172L13.418 8.78906C13.418 7.31445 12.4609 6.30859 11.0156 6.30859C9.67773 6.30859 8.78906 7.29492 8.78906 8.7793L8.78906 11.6309L8.74023 12.6367L9.07227 12.1777L10.2148 10.9863C10.3516 10.8496 10.5371 10.7617 10.752 10.7617C11.1719 10.7617 11.5039 11.0742 11.5039 11.4844C11.5039 11.6992 11.4258 11.8848 11.2891 12.0117L8.67188 14.5801C8.48633 14.7656 8.27148 14.8438 8.05664 14.8438C7.83203 14.8438 7.61719 14.7559 7.43164 14.5801L4.84375 12.0215C4.69727 11.8848 4.62891 11.709 4.62891 11.4941C4.62891 11.0742 4.96094 10.7617 5.37109 10.7617C5.57617 10.7617 5.77148 10.8496 5.89844 10.9863L6.85547 11.9824L7.38281 12.6465L7.33398 11.6309L7.33398 8.7793C7.33398 6.42578 8.79883 4.84375 11.0156 4.84375Z" fill="var(--color-primary)"/>
 </g>
</svg>
