<?xml version="1.0" encoding="UTF-8"?>
<!--Generator: Apple Native CoreSVG 341-->
<!DOCTYPE svg
PUBLIC "-//W3C//DTD SVG 1.1//EN"
       "http://www.w3.org/Graphics/SVG/1.1/DTD/svg11.dtd">
<svg version="1.1" xmlns="http://www.w3.org/2000/svg" xmlns:xlink="http://www.w3.org/1999/xlink" viewBox="0 0 21.6182 22.8809">
 <g>
  <rect height="22.8809" opacity="0" width="21.6182" x="0" y="0"/>
  <path d="M21.2583 21.3965L21.2583 13.6914C21.2583 12.5293 20.731 12.002 19.5689 12.002L7.89897 12.002C7.03959 12.002 6.58061 12.6465 6.58061 13.3301C6.58061 13.8086 6.79545 14.2578 7.25444 14.5703L18.9244 22.5684C19.2369 22.7832 19.5982 22.8711 19.94 22.8711C20.6431 22.8711 21.2583 22.4023 21.2583 21.3965ZM21.2583 1.47461C21.2583 0.46875 20.6431 0 19.94 0C19.5982 0 19.2369 0.0878906 18.9244 0.302734L7.25444 8.30078C6.79545 8.61328 6.58061 9.0625 6.58061 9.53125C6.58061 10.2246 7.03959 10.8691 7.89897 10.8691L19.5689 10.8691C20.731 10.8691 21.2583 10.3418 21.2583 9.17969Z" fill="white" fill-opacity="0.425"/>
  <path d="M0.701703 5.49805L4.61772 5.49805C5.29155 5.49805 5.53569 4.85352 5.12553 4.30664L3.17241 1.68945C2.90873 1.33789 2.40092 1.34766 2.14702 1.68945L0.193891 4.30664C-0.2065 4.85352 0.0376405 5.49805 0.701703 5.49805ZM2.66459 19.2578C2.97709 19.2578 3.231 19.0039 3.231 18.6914L3.231 4.17969C3.231 3.87695 2.97709 3.61328 2.66459 3.61328C2.36186 3.61328 2.09819 3.87695 2.09819 4.17969L2.09819 18.6914C2.09819 19.0039 2.36186 19.2578 2.66459 19.2578ZM0.701703 17.373C0.0376405 17.373-0.2065 18.0176 0.193891 18.5547L2.14702 21.1719C2.41069 21.5332 2.90873 21.5332 3.17241 21.1719L5.12553 18.5547C5.51616 18.0371 5.31108 17.373 4.61772 17.373Z" fill="white" fill-opacity="0.85"/>
 </g>
</svg>
