<?xml version="1.0" encoding="UTF-8"?>
<!--Generator: Apple Native CoreSVG 341-->
<!DOCTYPE svg
PUBLIC "-//W3C//DTD SVG 1.1//EN"
       "http://www.w3.org/Graphics/SVG/1.1/DTD/svg11.dtd">
<svg version="1.1" xmlns="http://www.w3.org/2000/svg" xmlns:xlink="http://www.w3.org/1999/xlink" viewBox="0 0 20.2832 19.9316">
 <g>
  <rect height="19.9316" opacity="0" width="20.2832" x="0" y="0"/>
  <path d="M9.96094 19.9219C15.459 19.9219 19.9219 15.459 19.9219 9.96094C19.9219 4.46289 15.459 0 9.96094 0C4.46289 0 0 4.46289 0 9.96094C0 15.459 4.46289 19.9219 9.96094 19.9219ZM9.96094 18.2617C5.37109 18.2617 1.66016 14.5508 1.66016 9.96094C1.66016 5.37109 5.37109 1.66016 9.96094 1.66016C14.5508 1.66016 18.2617 5.37109 18.2617 9.96094C18.2617 14.5508 14.5508 18.2617 9.96094 18.2617Z" fill="white" fill-opacity="0.85"/>
  <path d="M11.8164 12.7246C12.5488 13.4082 13.4375 12.5781 12.7246 11.8164L11.0449 10.0195L7.45117 6.42578C7.30469 6.28906 7.12891 6.20117 6.89453 6.20117C6.46484 6.20117 6.17188 6.48438 6.17188 6.92383C6.17188 7.11914 6.26953 7.31445 6.40625 7.45117L10.0098 11.0449ZM12.3047 10L12.5781 12.5977L10.0879 12.3047L8.31055 12.3047C7.8418 12.3047 7.53906 12.5977 7.53906 13.0273C7.53906 13.457 7.83203 13.7402 8.29102 13.7402L12.9199 13.7402C13.418 13.7402 13.7402 13.5156 13.7402 12.9297L13.7402 8.33008C13.7402 7.87109 13.4473 7.54883 13.0176 7.54883C12.5879 7.54883 12.3047 7.8418 12.3047 8.31055Z" fill="white" fill-opacity="0.85"/>
 </g>
</svg>
