<?xml version="1.0" encoding="UTF-8"?>
<!--Generator: Apple Native CoreSVG 341-->
<!DOCTYPE svg
PUBLIC "-//W3C//DTD SVG 1.1//EN"
       "http://www.w3.org/Graphics/SVG/1.1/DTD/svg11.dtd">
<svg version="1.1" xmlns="http://www.w3.org/2000/svg" xmlns:xlink="http://www.w3.org/1999/xlink" viewBox="0 0 24.9121 18.5645">
 <g>
  <rect height="18.5645" opacity="0" width="24.9121" x="0" y="0"/>
  <path d="M21.4648 7.5C23.3691 8.30078 24.5508 10.0781 24.5508 12.1289C24.5508 14.8145 22.2461 16.9727 19.2969 16.9727L5.84961 16.9727C2.50977 16.9727 0 14.5605 0 11.6895C0 9.30664 1.37695 7.33398 3.58398 6.98242C3.63281 4.24805 6.25 2.42188 8.65234 3.125C9.82422 1.41602 11.709 0 14.3555 0C18.3496 0 21.4844 3.14453 21.4648 7.5ZM8.37891 7.8418L7.08984 9.6582C6.88477 9.94141 6.97266 10.3027 7.34375 10.3027L8.24648 10.3027C8.58701 12.4593 10.4507 14.1016 12.6953 14.1016C13.7598 14.1016 14.7461 13.7305 15.4297 13.1641C15.8301 12.8613 15.8496 12.4316 15.6445 12.1777C15.4688 11.9434 15.0977 11.8555 14.6777 12.1387C14.1406 12.5586 13.4766 12.832 12.6953 12.832C11.1556 12.832 9.86237 11.7519 9.53635 10.3027L10.2637 10.3027C10.625 10.3027 10.7227 9.94141 10.5078 9.6582L9.19922 7.8418C8.98438 7.53906 8.61328 7.50977 8.37891 7.8418ZM9.9707 6.00586C9.57031 6.30859 9.55078 6.73828 9.75586 6.99219C9.93164 7.22656 10.3027 7.31445 10.7227 7.03125C11.2598 6.61133 11.9238 6.33789 12.6953 6.33789C14.2422 6.33789 15.5357 7.41621 15.8631 8.85742L15.1367 8.85742C14.7656 8.85742 14.6777 9.22852 14.8926 9.51172L16.2012 11.3281C16.416 11.6309 16.7871 11.6602 17.0215 11.3281L18.3105 9.51172C18.5156 9.22852 18.4277 8.85742 18.0566 8.85742L17.1535 8.85742C16.8118 6.70935 14.9478 5.06836 12.6953 5.06836C11.6309 5.06836 10.6543 5.43945 9.9707 6.00586Z" fill="white" fill-opacity="0.85"/>
 </g>
</svg>
