<?xml version="1.0" encoding="UTF-8"?>
<!--Generator: Apple Native CoreSVG 341-->
<!DOCTYPE svg
PUBLIC "-//W3C//DTD SVG 1.1//EN"
       "http://www.w3.org/Graphics/SVG/1.1/DTD/svg11.dtd">
<svg version="1.1" xmlns="http://www.w3.org/2000/svg" xmlns:xlink="http://www.w3.org/1999/xlink" viewBox="0 0 18.8184 18.2324">
 <g>
  <rect height="18.2324" opacity="0" width="18.8184" x="0" y="0"/>
  <path d="M0 6.57227C0 6.80664 0.0976562 7.03125 0.292969 7.2168L6.03516 12.8516C6.20117 13.0273 6.45508 13.125 6.66016 13.125C7.1875 13.125 7.5293 12.7734 7.5293 12.2656C7.5293 12.0117 7.44141 11.8262 7.29492 11.6699L4.47266 8.92578L1.71875 6.57227L4.47266 4.20898L7.29492 1.46484C7.44141 1.30859 7.5293 1.12305 7.5293 0.869141C7.5293 0.361328 7.1875 0.00976562 6.66016 0.00976562C6.45508 0.00976562 6.20117 0.107422 6.03516 0.283203L0.292969 5.91797C0.0976562 6.10352 0 6.32812 0 6.57227ZM8.48633 17.3633C8.48633 17.8418 8.83789 18.2324 9.375 18.2324L11.6309 18.2324C15.9961 18.2324 18.457 15.7422 18.457 12.002C18.457 8.27148 15.9277 5.69336 11.4746 5.69336L4.91211 5.69336L1.67969 5.83984C1.2793 5.85938 0.957031 6.16211 0.957031 6.57227C0.957031 6.97266 1.2793 7.27539 1.67969 7.29492L4.91211 7.44141L11.6211 7.44141C14.9512 7.44141 16.709 9.27734 16.709 11.9043C16.709 14.541 14.9512 16.4941 11.6211 16.4941L9.375 16.4941C8.83789 16.4941 8.48633 16.8848 8.48633 17.3633Z" fill="white" fill-opacity="0.85"/>
 </g>
</svg>
