<svg version="1.1" xmlns="http://www.w3.org/2000/svg" xmlns:xlink="http://www.w3.org/1999/xlink" viewBox="0 0 20.2832 19.9316">
 <g>
  <rect height="19.9316" opacity="0" width="20.2832" x="0" y="0"/>
  <path d="M9.96094 19.9219C15.459 19.9219 19.9219 15.4492 19.9219 9.96094C19.9219 4.46289 15.459 0 9.96094 0C4.47266 0 0 4.46289 0 9.96094C0 15.4492 4.47266 19.9219 9.96094 19.9219Z" fill="var(--color-tertiary)"/>
  <path d="M12.1387 14.3359L12.1387 7.86133C12.1387 7.06055 11.6797 6.60156 10.9082 6.60156L9.04297 6.60156C8.27148 6.60156 7.8125 7.06055 7.8125 7.86133L7.8125 14.3359C7.8125 15.1465 8.27148 15.6055 9.04297 15.6055L10.9082 15.6055C11.6797 15.6055 12.1387 15.1465 12.1387 14.3359ZM5.5957 9.79492L14.3262 9.79492C14.6875 9.79492 14.9902 9.52148 14.9902 9.13086C14.9902 8.86719 14.873 8.69141 14.5996 8.4082L10.5664 4.08203C10.3613 3.86719 10.1562 3.79883 9.9707 3.79883C9.79492 3.79883 9.58008 3.86719 9.38477 4.08203L5.30273 8.4082C5.06836 8.66211 4.95117 8.87695 4.95117 9.15039C4.95117 9.52148 5.21484 9.79492 5.5957 9.79492Z" fill="var(--color-primary)"/>
 </g>
</svg>
