<?xml version="1.0" encoding="UTF-8"?>
<!--Generator: Apple Native CoreSVG 341-->
<!DOCTYPE svg
PUBLIC "-//W3C//DTD SVG 1.1//EN"
       "http://www.w3.org/Graphics/SVG/1.1/DTD/svg11.dtd">
<svg version="1.1" xmlns="http://www.w3.org/2000/svg" xmlns:xlink="http://www.w3.org/1999/xlink" viewBox="0 0 20.2832 19.9316">
 <g>
  <rect height="19.9316" opacity="0" width="20.2832" x="0" y="0"/>
  <path d="M19.9219 9.96094C19.9219 15.4492 15.459 19.9219 9.96094 19.9219C4.47266 19.9219 0 15.4492 0 9.96094C0 4.46289 4.47266 0 9.96094 0C15.459 0 19.9219 4.46289 19.9219 9.96094ZM7.69531 4.66797L5.00977 7.38281C4.85352 7.55859 4.73633 7.77344 4.73633 7.99805C4.73633 8.24219 4.85352 8.44727 5.00977 8.62305L7.70508 11.3574C7.8418 11.5039 8.00781 11.5723 8.22266 11.5723C8.62305 11.5723 8.93555 11.2598 8.93555 10.8301C8.93555 10.6445 8.86719 10.4492 8.71094 10.3125L7.46094 9.11133L6.8915 8.68615L8.06641 8.7207L11.0645 8.7207C12.5488 8.7207 13.6719 9.56055 13.6719 11.1133C13.6719 12.7051 12.5781 13.6816 11.0547 13.6816L9.6582 13.6816C9.22852 13.6816 8.89648 13.9355 8.89648 14.4043C8.89648 14.873 9.22852 15.127 9.67773 15.127L11.0547 15.127C13.4082 15.127 15.166 13.6133 15.166 11.1914C15.166 8.76953 13.418 7.30469 11.0645 7.30469L8.06641 7.30469L6.88892 7.322L7.67578 6.70898L8.70117 5.70312C8.84766 5.58594 8.93555 5.39062 8.93555 5.18555C8.93555 4.76562 8.62305 4.45312 8.21289 4.45312C7.99805 4.45312 7.83203 4.51172 7.69531 4.66797Z" fill="white" fill-opacity="0.85"/>
 </g>
</svg>
