<svg version="1.1" xmlns="http://www.w3.org/2000/svg" xmlns:xlink="http://www.w3.org/1999/xlink" viewBox="0 0 18.6914 15.4395">
 <g>
  <rect height="15.4395" opacity="0" width="18.6914" x="0" y="0"/>
  <path d="M16.5527 7.4707L12.4512 11.2109L10.2832 13.418C10.1367 13.5742 10.0488 13.8086 10.0488 14.043C10.0488 14.5312 10.4199 14.8828 10.9082 14.8828C11.1328 14.8828 11.3477 14.7949 11.543 14.6094L18.0273 8.13477C18.2324 7.93945 18.3301 7.71484 18.3301 7.4707C18.3301 7.23633 18.2324 7.00195 18.0273 6.81641L11.5625 0.361328C11.3477 0.146484 11.1328 0.0683594 10.9082 0.0683594C10.4199 0.0683594 10.0488 0.419922 10.0488 0.908203C10.0488 1.14258 10.127 1.36719 10.2832 1.52344L12.4512 3.73047ZM16.543 8.19336C16.9434 8.17383 17.2559 7.86133 17.2559 7.4707C17.2559 7.08008 16.9336 6.76758 16.5332 6.74805L13.3887 6.60156L6.52344 6.60156C1.89453 6.60156 0 8.63281 0 13.3594C0 13.9258 0.0195312 14.4141 0.0878906 14.707C0.166016 15.1074 0.400391 15.4395 0.917969 15.4395C1.42578 15.4395 1.79688 15.0879 1.79688 14.5703C1.78711 14.2578 1.77734 13.877 1.76758 13.4473C1.76758 9.82422 3.02734 8.34961 6.61133 8.34961L13.3887 8.34961Z" fill="var(--color-primary)"/>
 </g>
</svg>
