<svg version="1.1" xmlns="http://www.w3.org/2000/svg" xmlns:xlink="http://www.w3.org/1999/xlink" viewBox="0 0 20.2832 19.9316">
 <g>
  <rect height="19.9316" opacity="0" width="20.2832" x="0" y="0"/>
  <path d="M9.96094 19.9219C15.459 19.9219 19.9219 15.459 19.9219 9.96094C19.9219 4.46289 15.459 0 9.96094 0C4.46289 0 0 4.46289 0 9.96094C0 15.459 4.46289 19.9219 9.96094 19.9219ZM9.96094 18.2617C5.37109 18.2617 1.66016 14.5508 1.66016 9.96094C1.66016 5.37109 5.37109 1.66016 9.96094 1.66016C14.5508 1.66016 18.2617 5.37109 18.2617 9.96094C18.2617 14.5508 14.5508 18.2617 9.96094 18.2617Z" fill="var(--color-secondary)"/>
  <path d="M14.7168 7.03125C14.7168 6.66992 14.4531 6.40625 14.082 6.40625L7.75391 6.40625L6.68945 6.42578C6.35742 6.43555 6.08398 6.69922 6.08398 7.03125C6.08398 7.36328 6.35742 7.62695 6.68945 7.63672L7.74414 7.67578L14.082 7.67578C14.4531 7.67578 14.7168 7.39258 14.7168 7.03125ZM8.29102 10.1074C8.65234 10.1074 8.91602 9.85352 8.91602 9.49219C8.91602 9.31641 8.84766 9.16016 8.73047 9.04297L7.69531 8.03711L6.55273 7.02148L7.69531 6.06445L8.73047 5.05859C8.84766 4.94141 8.91602 4.77539 8.91602 4.60938C8.91602 4.23828 8.65234 3.98438 8.29102 3.98438C8.13477 3.98438 7.94922 4.0625 7.83203 4.18945L5.38086 6.57227C5.11719 6.82617 5.12695 7.27539 5.38086 7.51953L7.83203 9.92188C7.94922 10.0391 8.14453 10.1074 8.29102 10.1074ZM5.16602 12.8809C5.16602 13.2422 5.43945 13.5254 5.80078 13.5254L12.1387 13.5254L13.2031 13.4863C13.5254 13.4766 13.7988 13.2129 13.7988 12.8809C13.7988 12.5488 13.5254 12.2852 13.2031 12.2754L12.1289 12.2559L5.80078 12.2559C5.42969 12.2559 5.16602 12.5195 5.16602 12.8809ZM11.5918 15.957C11.748 15.957 11.9336 15.8887 12.0508 15.7715L14.5117 13.3691C14.7559 13.125 14.7656 12.666 14.5117 12.4219L12.0508 10.0293C11.9336 9.91211 11.748 9.83398 11.5918 9.83398C11.2305 9.83398 10.9668 10.0879 10.9668 10.459C10.9668 10.625 11.0352 10.791 11.1523 10.8984L12.1875 11.9141L13.3301 12.8711L12.1875 13.8867L11.1523 14.8926C11.0352 15.0098 10.9668 15.166 10.9668 15.332C10.9668 15.7031 11.2305 15.957 11.5918 15.957Z" fill="var(--color-primary)"/>
 </g>
</svg>
