<svg version="1.1" xmlns="http://www.w3.org/2000/svg" xmlns:xlink="http://www.w3.org/1999/xlink" viewBox="0 0 22.9492 20.3418">
 <g>
  <rect height="20.3418" opacity="0" width="22.9492" x="0" y="0"/>
  <path d="M11.2891 18.7891C17.8418 18.7891 22.5879 14.834 22.5879 9.39453C22.5879 3.94531 17.832 0 11.2891 0C4.74609 0 0 3.94531 0 9.39453C0 13.3105 2.14844 14.3652 2.14844 16.1133C2.14844 16.875 1.9043 17.373 1.31836 17.9199C0.878906 18.3105 1.11328 18.7891 1.75781 18.7891C3.10547 18.7891 4.48242 18.3496 5.48828 17.6172C7.17773 18.3887 9.14062 18.7891 11.2891 18.7891Z" fill="var(--color-tertiary)"/>
  <path d="M11.3574 14.5215C11.7969 14.5215 12.1582 14.1699 12.1582 13.7402L12.1582 8.08594L12.0898 5.98633C12.0801 5.52734 11.709 5.2832 11.3574 5.2832C10.9961 5.2832 10.6348 5.52734 10.6152 5.98633L10.5469 8.08594L10.5469 13.7402C10.5469 14.1699 10.918 14.5215 11.3574 14.5215ZM11.3574 4.35547C11.1426 4.35547 10.9766 4.42383 10.7715 4.62891L7.45117 7.83203C7.29492 7.97852 7.20703 8.14453 7.20703 8.36914C7.20703 8.76953 7.51953 9.07227 7.92969 9.07227C8.13477 9.07227 8.34961 8.99414 8.48633 8.82812L10.0293 7.19727L11.3574 5.79102L11.3574 5.79102L12.6758 7.19727L14.2188 8.82812C14.3555 8.99414 14.5605 9.07227 14.7656 9.07227C15.1758 9.07227 15.498 8.76953 15.498 8.36914C15.498 8.14453 15.4102 7.97852 15.2539 7.83203L11.9336 4.62891C11.7285 4.42383 11.5625 4.35547 11.3574 4.35547Z" fill="var(--color-primary)"/>
 </g>
</svg>
