<svg version="1.1" xmlns="http://www.w3.org/2000/svg" xmlns:xlink="http://www.w3.org/1999/xlink" viewBox="0 0 18.3398 17.9785">
 <g>
  <rect height="17.9785" opacity="0" width="18.3398" x="0" y="0"/>
  <path d="M3.06641 17.9785L14.9121 17.9785C16.9629 17.9785 17.9785 16.9727 17.9785 14.9609L17.9785 3.02734C17.9785 1.01562 16.9629 0 14.9121 0L3.06641 0C1.02539 0 0 1.01562 0 3.02734L0 14.9609C0 16.9727 1.02539 17.9785 3.06641 17.9785Z" fill="var(--color-tertiary)"/>
  <path d="M8.98438 12.2266C8.79883 12.2266 8.62305 12.1484 8.47656 11.9922L5.07812 8.51562C4.95117 8.38867 4.87305 8.17383 4.87305 8.00781C4.87305 7.62695 5.13672 7.35352 5.52734 7.35352C5.73242 7.35352 5.88867 7.41211 6.01562 7.54883L6.58203 8.17383L8.41797 10.2344L8.30078 8.38867L8.30078 3.7793C8.30078 3.37891 8.57422 3.0957 8.98438 3.0957C9.375 3.0957 9.6582 3.37891 9.6582 3.7793L9.6582 8.38867L9.55078 10.2246L11.3574 8.18359L11.9824 7.54883C12.1094 7.41211 12.2949 7.35352 12.4805 7.35352C12.8516 7.35352 13.125 7.64648 13.125 8.00781C13.125 8.20312 13.0664 8.37891 12.9004 8.52539L9.49219 11.9922C9.3457 12.1289 9.17969 12.2266 8.98438 12.2266ZM5.21484 14.3457C4.82422 14.3457 4.55078 14.0625 4.55078 13.6621C4.55078 13.2812 4.82422 12.998 5.21484 12.998L12.7832 12.998C13.1738 12.998 13.4473 13.2812 13.4473 13.6621C13.4473 14.0625 13.1738 14.3457 12.7832 14.3457Z" fill="var(--color-primary)"/>
 </g>
</svg>
