<?xml version="1.0" encoding="UTF-8"?>
<!--Generator: Apple Native CoreSVG 341-->
<!DOCTYPE svg
PUBLIC "-//W3C//DTD SVG 1.1//EN"
       "http://www.w3.org/Graphics/SVG/1.1/DTD/svg11.dtd">
<svg version="1.1" xmlns="http://www.w3.org/2000/svg" xmlns:xlink="http://www.w3.org/1999/xlink" viewBox="0 0 24.3457 19.248">
 <g>
  <rect height="19.248" opacity="0" width="24.3457" x="0" y="0"/>
  <path d="M3.06641 18.623L20.918 18.623C22.9492 18.623 23.9844 17.6074 23.9844 15.5957L23.9844 5.37109C23.9844 3.35938 22.9492 2.35352 20.918 2.35352L18.125 2.35352C17.3535 2.35352 17.1191 2.19727 16.6797 1.70898L15.8984 0.830078C15.4102 0.292969 14.9121 0 13.9062 0L10.0098 0C9.00391 0 8.50586 0.292969 8.01758 0.830078L7.23633 1.70898C6.79688 2.1875 6.55273 2.35352 5.79102 2.35352L3.06641 2.35352C1.02539 2.35352 0 3.35938 0 5.37109L0 15.5957C0 17.6074 1.02539 18.623 3.06641 18.623ZM3.08594 17.0508C2.12891 17.0508 1.57227 16.5332 1.57227 15.5176L1.57227 5.45898C1.57227 4.44336 2.12891 3.92578 3.08594 3.92578L6.18164 3.92578C7.06055 3.92578 7.53906 3.75977 8.02734 3.21289L8.78906 2.35352C9.3457 1.72852 9.63867 1.57227 10.498 1.57227L13.418 1.57227C14.2773 1.57227 14.5703 1.72852 15.127 2.35352L15.8887 3.21289C16.377 3.75977 16.8555 3.92578 17.7344 3.92578L20.8887 3.92578C21.8555 3.92578 22.4121 4.44336 22.4121 5.45898L22.4121 15.5176C22.4121 16.5332 21.8555 17.0508 20.8887 17.0508Z" fill="white" fill-opacity="0.85"/>
  <path d="M5.71289 10.7617L9.14062 10.7617C9.57031 10.7617 9.6875 10.3516 9.43359 10.0098L7.90039 7.88086C7.64648 7.5293 7.20703 7.5 6.94336 7.88086L5.42969 10.0098C5.18555 10.3516 5.2832 10.7617 5.71289 10.7617ZM11.9922 15.2051C13.2129 15.2051 14.3359 14.7949 15.2246 14.0918C16.0547 13.457 15.166 12.3242 14.3262 12.9297C13.6914 13.4375 12.8809 13.7305 11.9922 13.7305C9.87305 13.7305 8.16406 12.0312 8.16406 9.90234C8.16406 9.49219 7.8418 9.16992 7.43164 9.16992C7.02148 9.16992 6.68945 9.49219 6.68945 9.90234C6.68945 12.832 9.0625 15.2051 11.9922 15.2051ZM18.2715 9.04297L14.8535 9.04297C14.4141 9.04297 14.3066 9.46289 14.5508 9.79492L16.0938 11.9336C16.3379 12.2852 16.7871 12.3145 17.0508 11.9336L18.5645 9.79492C18.8086 9.45312 18.7109 9.04297 18.2715 9.04297ZM11.9922 4.59961C10.7812 4.59961 9.64844 5.00977 8.76953 5.71289C7.93945 6.34766 8.82812 7.49023 9.6582 6.88477C10.3027 6.37695 11.1133 6.07422 11.9922 6.07422C14.1211 6.07422 15.8203 7.7832 15.8203 9.90234C15.8203 10.3125 16.1523 10.6445 16.5625 10.6445C16.9727 10.6445 17.2949 10.3125 17.2949 9.90234C17.2949 6.98242 14.9316 4.59961 11.9922 4.59961Z" fill="white" fill-opacity="0.85"/>
 </g>
</svg>
