<svg version="1.1" xmlns="http://www.w3.org/2000/svg" xmlns:xlink="http://www.w3.org/1999/xlink" viewBox="0 0 21.574 23.5645">
 <g>
  <rect height="23.5645" opacity="0" width="21.574" x="0" y="0"/>
  <path d="M2.93931 12.8701C1.57125 14.4821 1.08306 15.9507 1.66101 16.9531C2.24459 17.9616 3.76198 18.275 5.84129 17.9005C5.96669 18.3996 6.11267 18.8644 6.27658 19.2942C3.46175 19.7799 1.31429 19.2355 0.411014 17.6758C-0.486995 16.1155 0.114937 13.9843 1.94552 11.7916C2.23704 12.1501 2.56804 12.5105 2.93931 12.8701ZM10.6182 17.9353C9.60309 18.3801 8.62498 18.7278 7.70387 18.9729C7.54438 18.5468 7.40304 18.0728 7.28115 17.5572C7.76122 17.4202 8.26487 17.2497 8.78605 17.0492C9.40945 17.3855 10.022 17.682 10.6182 17.9353ZM14.2502 16.0173C13.9694 16.1951 13.6784 16.3702 13.3798 16.543C13.0674 16.7228 12.7569 16.8944 12.4502 17.0523C11.8597 16.8256 11.2464 16.5597 10.6153 16.2549C11.2595 15.9456 11.9225 15.5953 12.5985 15.2051C13.2674 14.8188 13.8961 14.4239 14.4789 14.0247C14.427 14.7259 14.35 15.3916 14.2502 16.0173ZM18.2916 12.8683C17.6165 13.5453 16.8275 14.2203 15.9307 14.8777C16.0104 14.2308 16.0606 13.5479 16.0819 12.8355C16.5175 12.4861 16.9141 12.1369 17.2739 11.7909C17.6609 12.1554 18.0017 12.516 18.2916 12.8683ZM5.13977 10.7555C4.70882 11.1014 4.31621 11.447 3.95957 11.7896C3.57247 11.4248 3.2315 11.064 2.94138 10.7114C3.61335 10.0403 4.39736 9.37128 5.28729 8.71938C5.20881 9.3644 5.15964 10.0452 5.13977 10.7555ZM20.8016 5.9082C21.6999 7.46897 21.1038 9.59781 19.2829 11.7884C18.9926 11.43 18.6627 11.0698 18.2927 10.7103C19.6542 9.103 20.1391 7.63807 19.5614 6.63086C18.9771 5.62111 17.4592 5.30545 15.3812 5.67969C15.2552 5.18044 15.1086 4.71539 14.9439 4.28544C17.7524 3.79963 19.8973 4.3467 20.8016 5.9082ZM10.6158 7.326C9.9779 7.63381 9.32186 7.98176 8.6532 8.36914C7.97227 8.76093 7.33289 9.16186 6.7404 9.5674C6.79178 8.87024 6.86764 8.20747 6.96547 7.5833C7.26033 7.39643 7.56686 7.21254 7.88172 7.03125C8.18716 6.85452 8.49079 6.68585 8.79075 6.53085C9.37812 6.7572 9.98805 7.02211 10.6158 7.326ZM13.9436 6.02265C13.466 6.15906 12.9652 6.32897 12.4471 6.52864C11.8246 6.19366 11.2129 5.89788 10.6176 5.64513C11.6284 5.19998 12.6026 4.85216 13.5203 4.60704C13.6801 5.0329 13.8217 5.50681 13.9436 6.02265Z" fill="var(--color-primary)"/>
  <path d="M20.8016 17.6758C19.8973 19.2316 17.7525 19.7763 14.9432 19.291C15.1075 18.861 15.2539 18.396 15.3797 17.8967C17.4601 18.2757 18.9773 17.9626 19.5614 16.9531C20.3957 15.5113 19.0416 13.1316 16.0823 10.7429C16.0619 10.0336 16.0123 9.35354 15.9333 8.70928C20.2102 11.8442 22.1232 15.3713 20.8016 17.6758ZM8.6532 15.2148C10.5603 16.3162 12.3646 17.0993 13.9412 17.5553C13.8192 18.0714 13.6775 18.5459 13.5177 18.9724C11.7924 18.5114 9.87557 17.7032 7.88172 16.5527C7.56745 16.3718 7.26147 16.1882 6.96914 16.0011C6.87057 15.3771 6.79422 14.7141 6.7427 14.0161C7.33529 14.4215 7.97355 14.8225 8.6532 15.2148ZM6.275 4.28466C6.11081 4.71439 5.96468 5.17918 5.83912 5.67818C3.7593 5.29973 2.24407 5.61353 1.66101 6.62109C0.835707 8.0599 2.18439 10.4382 5.14033 12.8288C5.16108 13.5374 5.21057 14.217 5.28921 14.8608C1.00862 11.7226-0.907865 8.19823 0.411014 5.89844C1.31405 4.34477 3.46057 3.79943 6.275 4.28466ZM13.3798 7.04102L14.2547 7.57104C14.3533 8.19599 14.4296 8.86005 14.4812 9.55889C13.896 9.15992 13.2673 8.76513 12.5985 8.37891C10.6788 7.2673 8.86364 6.47833 7.27904 6.01972C7.40095 5.50369 7.54251 5.02961 7.70232 4.6036C9.43879 5.06653 11.37 5.88054 13.3798 7.04102Z" fill="var(--color-primary)"/>
  <path d="M10.6063 23.5645C13.7411 23.5645 16.1044 18.7598 16.1044 11.7773C16.1044 4.81445 13.7411 0.0195312 10.6063 0.0195312C7.47156 0.0195312 5.11805 4.81445 5.11805 11.7773C5.11805 18.7598 7.47156 23.5645 10.6063 23.5645ZM10.6063 22.1289C8.38953 22.1289 6.66101 17.9102 6.66101 11.7773C6.66101 5.6543 8.38953 1.45508 10.6063 1.45508C12.8329 1.45508 14.5614 5.6543 14.5614 11.7773C14.5614 17.9102 12.8329 22.1289 10.6063 22.1289Z" fill="var(--color-primary)"/>
  <path d="M10.6063 13.8672C11.7489 13.8672 12.6766 12.9395 12.6766 11.7871C12.6766 10.6445 11.7489 9.7168 10.6063 9.7168C9.45398 9.7168 8.52625 10.6445 8.52625 11.7871C8.52625 12.9395 9.45398 13.8672 10.6063 13.8672Z" fill="var(--color-primary)"/>
 </g>
</svg>
