<?xml version="1.0" encoding="UTF-8"?>
<!--Generator: Apple Native CoreSVG 341-->
<!DOCTYPE svg
PUBLIC "-//W3C//DTD SVG 1.1//EN"
       "http://www.w3.org/Graphics/SVG/1.1/DTD/svg11.dtd">
<svg version="1.1" xmlns="http://www.w3.org/2000/svg" xmlns:xlink="http://www.w3.org/1999/xlink" viewBox="0 0 15.1855 18.2129">
 <g>
  <rect height="18.2129" opacity="0" width="15.1855" x="0" y="0"/>
  <path d="M1.70898 18.2031C2.2168 18.2031 2.5 17.9395 2.64648 17.4609L7.36328 2.48047L7.45117 2.48047L12.1875 17.4707C12.334 17.9688 12.6074 18.2031 13.125 18.2031C13.6523 18.2031 14.082 17.8809 14.082 17.3438C14.082 17.2168 14.043 17.002 13.9844 16.8066L8.66211 0.9375C8.44727 0.3125 8.04688 0 7.41211 0C6.77734 0 6.37695 0.3125 6.16211 0.9375L0.839844 16.8164C0.78125 17.002 0.751953 17.1484 0.751953 17.3438C0.751953 17.8809 1.18164 18.2031 1.70898 18.2031ZM0 9.46289C0 9.81445 0.283203 10.0977 0.634766 10.0977L14.1895 10.0977C14.5312 10.0977 14.8242 9.81445 14.8242 9.46289C14.8242 9.11133 14.5312 8.82812 14.1895 8.82812L0.634766 8.82812C0.283203 8.82812 0 9.11133 0 9.46289ZM0 12.998C0 13.3496 0.283203 13.6426 0.634766 13.6426L14.1895 13.6426C14.5312 13.6426 14.8242 13.3496 14.8242 12.998C14.8242 12.6562 14.5312 12.3633 14.1895 12.3633L0.634766 12.3633C0.283203 12.3633 0 12.6562 0 12.998Z" fill="white" fill-opacity="0.85"/>
 </g>
</svg>
