<svg version="1.1" xmlns="http://www.w3.org/2000/svg" xmlns:xlink="http://www.w3.org/1999/xlink" viewBox="0 0 20.2402 19.8825">
 <g>
  <rect height="19.8825" opacity="0" width="20.2402" x="0" y="0"/>
  <path d="M4.33883 4.33092C1.26265 7.40709-0.20219 11.5379 0.022419 14.702C0.207966 17.954 1.89742 19.6727 5.09078 19.8485C8.33297 20.0731 12.4638 18.618 15.54 15.5321C18.6162 12.4559 20.081 8.33482 19.8466 5.08287C19.6806 1.89927 17.9521 0.209821 14.7099 0.0242746C11.5459-0.2101 7.415 1.25474 4.33883 4.33092ZM5.49117 5.48326C8.28414 2.69029 11.79 1.3817 14.6806 1.64537C16.8779 1.82115 18.0693 2.97349 18.2255 5.12193C18.4892 8.09068 17.1806 11.5868 14.3974 14.3895C11.5947 17.1825 8.09859 18.4813 5.12984 18.2176C2.9814 18.0614 1.81929 16.8797 1.64351 14.6727C1.38961 11.7821 2.68843 8.27623 5.49117 5.48326ZM5.75484 12.0262L7.85445 14.1161C8.04 14.2919 8.33297 14.2919 8.51851 14.1161C8.69429 13.9208 8.69429 13.6278 8.51851 13.4422L6.42867 11.3524C6.24312 11.1766 5.95015 11.1766 5.75484 11.3524C5.57906 11.5379 5.57906 11.8309 5.75484 12.0262ZM7.17086 10.6004L9.27047 12.7001C9.45601 12.8758 9.74898 12.8856 9.915 12.7001C10.1103 12.5243 10.1005 12.2118 9.92476 12.036L7.84468 9.94615C7.65914 9.77037 7.34664 9.7606 7.17086 9.95592C6.98531 10.1219 6.99508 10.4149 7.17086 10.6004ZM8.58687 9.1942L10.6767 11.2938C10.8525 11.4794 11.1552 11.4794 11.331 11.2938C11.5263 11.1083 11.5166 10.8055 11.3408 10.6297L9.2314 8.53013C9.06539 8.36412 8.75289 8.35435 8.57711 8.5399C8.39156 8.71568 8.40133 9.01842 8.58687 9.1942ZM9.99312 7.79771L12.083 9.88756C12.2587 10.0633 12.5615 10.0536 12.747 9.88756C12.9326 9.69224 12.9326 9.40904 12.747 9.22349L10.6474 7.13365C10.4716 6.93834 10.1787 6.93834 9.98336 7.13365C9.82711 7.30943 9.81734 7.61217 9.99312 7.79771ZM11.3994 6.39146L13.4892 8.47154C13.665 8.64732 13.9775 8.65709 14.163 8.47154C14.3388 8.27623 14.3486 7.98326 14.163 7.80748L12.0634 5.70787C11.8877 5.52232 11.5947 5.53209 11.3994 5.70787C11.2236 5.90318 11.2236 6.20592 11.3994 6.39146ZM7.32711 13.2079L13.206 7.32896L12.5517 6.67467L6.66304 12.5536Z" fill="var(--color-primary)"/>
 </g>
</svg>
