<?xml version="1.0" encoding="UTF-8"?>
<!--Generator: Apple Native CoreSVG 341-->
<!DOCTYPE svg
PUBLIC "-//W3C//DTD SVG 1.1//EN"
       "http://www.w3.org/Graphics/SVG/1.1/DTD/svg11.dtd">
<svg version="1.1" xmlns="http://www.w3.org/2000/svg" xmlns:xlink="http://www.w3.org/1999/xlink" viewBox="0 0 20.2832 19.9316">
 <g>
  <rect height="19.9316" opacity="0" width="20.2832" x="0" y="0"/>
  <path d="M9.96094 19.9219C15.459 19.9219 19.9219 15.459 19.9219 9.96094C19.9219 4.46289 15.459 0 9.96094 0C4.46289 0 0 4.46289 0 9.96094C0 15.459 4.46289 19.9219 9.96094 19.9219ZM9.96094 18.2617C5.37109 18.2617 1.66016 14.5508 1.66016 9.96094C1.66016 5.37109 5.37109 1.66016 9.96094 1.66016C14.5508 1.66016 18.2617 5.37109 18.2617 9.96094C18.2617 14.5508 14.5508 18.2617 9.96094 18.2617Z" fill="white" fill-opacity="0.425"/>
  <path d="M8.62305 13.5547C8.97461 13.5547 9.27734 13.2812 9.27734 12.7832L9.27734 7.1582C9.27734 6.66016 8.97461 6.38672 8.62305 6.38672C8.4375 6.38672 8.29102 6.44531 8.0957 6.55273L3.4375 9.29688C3.125 9.48242 2.98828 9.7168 2.98828 9.9707C2.98828 10.2246 3.125 10.459 3.4375 10.6445L8.0957 13.3887C8.29102 13.4961 8.4375 13.5547 8.62305 13.5547ZM14.8926 13.5547C15.2441 13.5547 15.5371 13.2812 15.5371 12.7832L15.5371 7.1582C15.5371 6.66016 15.2441 6.38672 14.8926 6.38672C14.707 6.38672 14.541 6.44531 14.3652 6.55273L9.70703 9.29688C9.38477 9.48242 9.24805 9.7168 9.24805 9.9707C9.24805 10.2246 9.38477 10.459 9.70703 10.6445L14.3652 13.3887C14.541 13.4961 14.707 13.5547 14.8926 13.5547Z" fill="white" fill-opacity="0.85"/>
 </g>
</svg>
