<?xml version="1.0" encoding="UTF-8"?>
<!--Generator: Apple Native CoreSVG 341-->
<!DOCTYPE svg
PUBLIC "-//W3C//DTD SVG 1.1//EN"
       "http://www.w3.org/Graphics/SVG/1.1/DTD/svg11.dtd">
<svg version="1.1" xmlns="http://www.w3.org/2000/svg" xmlns:xlink="http://www.w3.org/1999/xlink" viewBox="0 0 18.3398 17.9785">
 <g>
  <rect height="17.9785" opacity="0" width="18.3398" x="0" y="0"/>
  <path d="M3.06641 17.9785L14.9121 17.9785C16.9629 17.9785 17.9785 16.9727 17.9785 14.9609L17.9785 3.02734C17.9785 1.01562 16.9629 0 14.9121 0L3.06641 0C1.02539 0 0 1.01562 0 3.02734L0 14.9609C0 16.9727 1.02539 17.9785 3.06641 17.9785Z" fill="white" fill-opacity="0.2125"/>
  <path d="M6.98242 13.4375C6.51367 13.4375 6.24023 13.125 6.24023 12.7051L6.24023 5.24414C6.24023 4.80469 6.50391 4.49219 6.98242 4.49219L8.64258 4.49219L8.64258 3.59375C8.64258 3.39844 8.7793 3.25195 8.98438 3.25195C9.18945 3.25195 9.31641 3.39844 9.31641 3.59375L9.31641 4.49219L9.46289 4.49219C10.8203 4.49219 12.0898 5.20508 12.0898 6.71875C12.0898 7.65625 11.4062 8.53516 10.4688 8.68164L10.4688 8.74023C11.6895 8.88672 12.5391 9.7168 12.5391 10.9375C12.5391 12.6562 11.1914 13.4375 9.47266 13.4375L9.31641 13.4375L9.31641 14.2383C9.31641 14.4434 9.19922 14.5801 8.98438 14.5801C8.7793 14.5801 8.64258 14.4434 8.64258 14.2383L8.64258 13.4375ZM7.42188 12.4609L8.64258 12.4609L8.64258 9.30664L7.42188 9.30664ZM7.42188 8.34961L8.64258 8.34961L8.64258 5.48828L7.42188 5.48828ZM9.31641 12.4609L9.4043 12.4609C10.498 12.4609 11.3379 11.9922 11.3379 10.8789C11.3379 9.76562 10.4688 9.31641 9.375 9.31641L9.31641 9.31641ZM9.31641 8.32031C10.2344 8.24219 10.918 7.80273 10.918 6.86523C10.918 5.94727 10.2441 5.53711 9.31641 5.48828Z" fill="white" fill-opacity="0.85"/>
 </g>
</svg>
