<svg version="1.1" xmlns="http://www.w3.org/2000/svg" xmlns:xlink="http://www.w3.org/1999/xlink" viewBox="0 0 18.291 18.3691">
 <g>
  <rect height="18.3691" opacity="0" width="18.291" x="0" y="0"/>
  <path d="M5.41992 18.3398C6.07422 18.3398 6.63086 18.1445 7.2168 17.7051L15.6445 11.2793C17.3633 9.96094 17.9297 8.75 17.9297 6.15234C17.9297 3.71094 15.9766 0 11.7676 0C4.38477 0 0 10.6836 0 13.9648C0 14.5703 0.322266 14.9902 0.908203 14.9902C1.52344 14.9902 2.91016 14.1309 3.01758 12.6758C3.13477 11.0059 3.22266 10.0098 3.75977 8.47656C4.74609 5.67383 8.01758 1.68945 11.6699 1.68945C14.1992 1.68945 15.957 3.73047 15.957 5.35156C15.957 6.05469 15.625 6.58203 14.5312 6.68945C13.4277 6.79688 12.832 6.98242 11.8848 7.70508L3.94531 13.7891C3.31055 14.2773 2.91016 14.9609 2.91016 15.8203C2.91016 17.2363 4.02344 18.3398 5.41992 18.3398ZM5.41992 17.3047C4.59961 17.3047 3.94531 16.6504 3.94531 15.8203C3.94531 15 4.59961 14.3457 5.41992 14.3457C6.25977 14.3457 6.9043 15 6.9043 15.8203C6.9043 16.6504 6.25977 17.3047 5.41992 17.3047ZM5.41992 16.6602C5.88867 16.6602 6.26953 16.2793 6.26953 15.8203C6.26953 15.3613 5.88867 14.9902 5.41992 14.9902C4.96094 14.9902 4.59961 15.3613 4.59961 15.8203C4.59961 16.2793 4.96094 16.6602 5.41992 16.6602Z" fill="var(--color-primary)"/>
  <path d="M5.41992 17.3047C4.59961 17.3047 3.94531 16.6504 3.94531 15.8203C3.94531 15 4.59961 14.3457 5.41992 14.3457C6.25977 14.3457 6.9043 15 6.9043 15.8203C6.9043 16.6504 6.25977 17.3047 5.41992 17.3047ZM5.41992 16.6602C5.88867 16.6602 6.26953 16.2793 6.26953 15.8203C6.26953 15.3613 5.88867 14.9902 5.41992 14.9902C4.96094 14.9902 4.59961 15.3613 4.59961 15.8203C4.59961 16.2793 4.96094 16.6602 5.41992 16.6602Z" fill="var(--color-tertiary)"/>
 </g>
</svg>
