<?xml version="1.0" encoding="UTF-8"?>
<!--Generator: Apple Native CoreSVG 341-->
<!DOCTYPE svg
PUBLIC "-//W3C//DTD SVG 1.1//EN"
       "http://www.w3.org/Graphics/SVG/1.1/DTD/svg11.dtd">
<svg version="1.1" xmlns="http://www.w3.org/2000/svg" xmlns:xlink="http://www.w3.org/1999/xlink" viewBox="0 0 35.6348 17.627">
 <g>
  <rect height="17.627" opacity="0" width="35.6348" x="0" y="0"/>
  <path d="M5.15625 17.627C5.78125 17.627 6.30859 17.4512 6.875 17.0312L14.8926 10.8984C16.5332 9.6582 17.0703 8.49609 17.0703 6.02539C17.0703 3.70117 15.2148 0.175781 11.2012 0.175781C4.17969 0.175781 0 10.3418 0 13.4668C0 14.043 0.302734 14.4336 0.859375 14.4336C1.44531 14.4336 2.76367 13.623 2.87109 12.2363C2.98828 10.6445 3.06641 9.69727 3.58398 8.24219C4.51172 5.56641 7.62695 1.77734 11.1035 1.77734C13.5254 1.77734 15.1855 3.7207 15.1855 5.26367C15.1855 5.9375 14.873 6.43555 13.8379 6.54297C12.7832 6.64062 12.2168 6.81641 11.3184 7.50977L3.75977 13.291C3.1543 13.7598 2.76367 14.4141 2.76367 15.2344C2.76367 16.582 3.82812 17.627 5.15625 17.627ZM5.15625 16.6406C4.375 16.6406 3.75 16.0156 3.75 15.2344C3.75 14.4531 4.375 13.8281 5.15625 13.8281C5.95703 13.8281 6.58203 14.4531 6.58203 15.2344C6.58203 16.0156 5.95703 16.6406 5.15625 16.6406ZM5.15625 16.0254C5.61523 16.0254 5.9668 15.6641 5.9668 15.2344C5.9668 14.7949 5.61523 14.4434 5.15625 14.4434C4.72656 14.4434 4.375 14.7949 4.375 15.2344C4.375 15.6641 4.72656 16.0254 5.15625 16.0254ZM30.1172 17.627C31.4453 17.627 32.5098 16.582 32.5098 15.2344C32.5098 14.4141 32.1289 13.7598 31.5234 13.291L23.9648 7.50977C23.0664 6.81641 22.4902 6.64062 21.4453 6.54297C20.4004 6.43555 20.0879 5.9375 20.0879 5.26367C20.0879 3.7207 21.7578 1.77734 24.1699 1.77734C27.6465 1.77734 30.7617 5.56641 31.6992 8.24219C32.207 9.69727 32.2949 10.6445 32.4023 12.2363C32.5098 13.623 33.8281 14.4336 34.4141 14.4336C34.9707 14.4336 35.2734 14.043 35.2734 13.4668C35.2734 10.3418 31.1035 0.175781 24.082 0.175781C20.0684 0.175781 18.2129 3.70117 18.2129 6.02539C18.2129 8.49609 18.75 9.6582 20.3809 10.8984L28.4082 17.0312C28.9648 17.4512 29.4922 17.627 30.1172 17.627ZM30.1172 16.6406C29.3262 16.6406 28.7012 16.0156 28.7012 15.2344C28.7012 14.4531 29.3262 13.8281 30.1172 13.8281C30.8984 13.8281 31.5234 14.4531 31.5234 15.2344C31.5234 16.0156 30.8984 16.6406 30.1172 16.6406ZM30.1172 16.0254C30.5566 16.0254 30.8984 15.6641 30.8984 15.2344C30.8984 14.7949 30.5566 14.4434 30.1172 14.4434C29.668 14.4434 29.3066 14.7949 29.3066 15.2344C29.3066 15.6641 29.668 16.0254 30.1172 16.0254Z" fill="white" fill-opacity="0.85"/>
  <path d="M5.15625 16.6406C4.375 16.6406 3.75 16.0156 3.75 15.2344C3.75 14.4531 4.375 13.8281 5.15625 13.8281C5.95703 13.8281 6.58203 14.4531 6.58203 15.2344C6.58203 16.0156 5.95703 16.6406 5.15625 16.6406ZM5.15625 16.0254C5.61523 16.0254 5.9668 15.6641 5.9668 15.2344C5.9668 14.7949 5.61523 14.4434 5.15625 14.4434C4.72656 14.4434 4.375 14.7949 4.375 15.2344C4.375 15.6641 4.72656 16.0254 5.15625 16.0254ZM30.1172 16.6406C29.3262 16.6406 28.7012 16.0156 28.7012 15.2344C28.7012 14.4531 29.3262 13.8281 30.1172 13.8281C30.8984 13.8281 31.5234 14.4531 31.5234 15.2344C31.5234 16.0156 30.8984 16.6406 30.1172 16.6406ZM30.1172 16.0254C30.5566 16.0254 30.8984 15.6641 30.8984 15.2344C30.8984 14.7949 30.5566 14.4434 30.1172 14.4434C29.668 14.4434 29.3066 14.7949 29.3066 15.2344C29.3066 15.6641 29.668 16.0254 30.1172 16.0254Z" fill="white" fill-opacity="0.2125"/>
 </g>
</svg>
