<?xml version="1.0" encoding="UTF-8"?>
<!--Generator: Apple Native CoreSVG 341-->
<!DOCTYPE svg
PUBLIC "-//W3C//DTD SVG 1.1//EN"
       "http://www.w3.org/Graphics/SVG/1.1/DTD/svg11.dtd">
<svg version="1.1" xmlns="http://www.w3.org/2000/svg" xmlns:xlink="http://www.w3.org/1999/xlink" viewBox="0 0 26.748 12.8809">
 <g>
  <rect height="12.8809" opacity="0" width="26.748" x="0" y="0"/>
  <path d="M12.0215 12.8613L14.3652 12.8613C17.6758 12.8613 20.1172 12.8125 22.207 12.1191C24.8926 11.2109 26.3867 9.16992 26.3867 6.43555C26.3867 3.70117 24.8926 1.66016 22.207 0.751953C20.1172 0.0488281 17.6758 0 14.3652 0L12.0215 0C8.71094 0 6.26953 0.0488281 4.17969 0.751953C1.49414 1.66016 0 3.70117 0 6.43555C0 9.16992 1.49414 11.2109 4.17969 12.1191C6.26953 12.8125 8.71094 12.8613 12.0215 12.8613ZM13.1934 8.88672C12.0312 8.88672 11.1523 7.99805 11.1523 6.875L11.1523 3.91602L12.0703 3.51562L12.0703 5.14648C12.4219 4.89258 12.793 4.78516 13.1934 4.78516C14.3164 4.78516 15.2539 5.71289 15.2539 6.875C15.2539 7.97852 14.3262 8.88672 13.1934 8.88672ZM13.1934 7.97852C13.8086 7.97852 14.3164 7.46094 14.3164 6.875C14.3164 6.25977 13.8086 5.75195 13.1934 5.75195C12.5977 5.75195 12.0703 6.25 12.0703 6.875C12.0703 7.46094 12.5781 7.97852 13.1934 7.97852Z" fill="white" fill-opacity="0.85"/>
 </g>
</svg>
