<svg version="1.1" xmlns="http://www.w3.org/2000/svg" xmlns:xlink="http://www.w3.org/1999/xlink" viewBox="0 0 26.8262 11.6699">
 <g>
  <rect height="11.6699" opacity="0" width="26.8262" x="0" y="0"/>
  <path d="M5.82031 0C2.59766 0 0 2.60742 0 5.83008C0 9.05273 2.59766 11.6504 5.82031 11.6504L20.6445 11.6504C23.8574 11.6504 26.4648 9.05273 26.4648 5.83008C26.4648 2.60742 23.8574 0 20.6445 0ZM5.82031 1.57227L20.6445 1.57227C23.0762 1.57227 24.8926 3.38867 24.8926 5.83008C24.8926 8.27148 23.0762 10.0781 20.6445 10.0781L5.82031 10.0781C3.37891 10.0781 1.57227 8.27148 1.57227 5.83008C1.57227 3.38867 3.37891 1.57227 5.82031 1.57227ZM13.2324 8.35938C14.3262 8.35938 15.2246 7.48047 15.2246 6.41602C15.2246 5.3125 14.3164 4.39453 13.2324 4.39453C12.8418 4.39453 12.4805 4.50195 12.1484 4.75586L12.1484 3.16406L11.25 3.56445L11.25 6.41602C11.25 7.5 12.1191 8.35938 13.2324 8.35938ZM13.2324 7.48047C12.6465 7.48047 12.1484 6.99219 12.1484 6.41602C12.1484 5.82031 12.6562 5.33203 13.2324 5.33203C13.8281 5.33203 14.3164 5.83008 14.3164 6.41602C14.3164 6.99219 13.8281 7.48047 13.2324 7.48047Z" fill="var(--color-primary)"/>
 </g>
</svg>
