<?xml version="1.0" encoding="UTF-8"?>
<!--Generator: Apple Native CoreSVG 341-->
<!DOCTYPE svg
PUBLIC "-//W3C//DTD SVG 1.1//EN"
       "http://www.w3.org/Graphics/SVG/1.1/DTD/svg11.dtd">
<svg version="1.1" xmlns="http://www.w3.org/2000/svg" xmlns:xlink="http://www.w3.org/1999/xlink" viewBox="0 0 20.2832 19.9316">
 <g>
  <rect height="19.9316" opacity="0" width="20.2832" x="0" y="0"/>
  <path d="M19.9219 9.9707C19.9219 15.4688 15.459 19.9316 9.96094 19.9316C4.47266 19.9316 0 15.4688 0 9.9707C0 4.48242 4.47266 0.00976562 9.96094 0.00976562C15.459 0.00976562 19.9219 4.48242 19.9219 9.9707ZM8.27148 14.4531C8.33984 15.2539 9.02344 15.9375 9.9707 15.9375C10.918 15.9375 11.6113 15.2539 11.6699 14.4531ZM8.34961 5.40039C6.875 5.94727 6.29883 7.41211 6.25977 9.57031C6.21094 10.1953 6.13281 10.9863 5.76172 11.3867C5.2832 11.8848 4.7168 12.373 4.7168 12.9395C4.7168 13.3301 5.01953 13.6035 5.54688 13.6035L14.4043 13.6035C14.9219 13.6035 15.2246 13.3301 15.2246 12.9395C15.2246 12.373 14.6777 11.875 14.1797 11.3867C13.7988 10.9863 13.7305 10.1953 13.6914 9.57031C13.6426 7.41211 13.0664 5.94727 11.5918 5.40039C11.3672 4.67773 10.791 4.10156 9.9707 4.10156C9.15039 4.10156 8.58398 4.67773 8.34961 5.40039Z" fill="white" fill-opacity="0.85"/>
 </g>
</svg>
