<?xml version="1.0" encoding="UTF-8"?>
<!--Generator: Apple Native CoreSVG 341-->
<!DOCTYPE svg
PUBLIC "-//W3C//DTD SVG 1.1//EN"
       "http://www.w3.org/Graphics/SVG/1.1/DTD/svg11.dtd">
<svg version="1.1" xmlns="http://www.w3.org/2000/svg" xmlns:xlink="http://www.w3.org/1999/xlink" viewBox="0 0 20.2832 19.9316">
 <g>
  <rect height="19.9316" opacity="0" width="20.2832" x="0" y="0"/>
  <path d="M9.96094 19.9219C15.459 19.9219 19.9219 15.459 19.9219 9.96094C19.9219 4.46289 15.459 0 9.96094 0C4.46289 0 0 4.46289 0 9.96094C0 15.459 4.46289 19.9219 9.96094 19.9219ZM9.96094 18.2617C5.37109 18.2617 1.66016 14.5508 1.66016 9.96094C1.66016 5.37109 5.37109 1.66016 9.96094 1.66016C14.5508 1.66016 18.2617 5.37109 18.2617 9.96094C18.2617 14.5508 14.5508 18.2617 9.96094 18.2617Z" fill="white" fill-opacity="0.425"/>
  <path d="M12.7246 6.75781C12.0117 6.75781 11.4648 7.1582 11.084 8.11523C9.70703 6.69922 7.5 5.42969 5.29297 5.26367C4.83398 5.23438 4.77539 5.56641 4.76562 5.83984C4.59961 8.27148 6.52344 10.3809 9.07227 10.5566C8.38867 12.1973 7.27539 13.4961 6.18164 14.5215C6.00586 14.668 6.05469 14.8926 6.16211 15.0586C6.72852 15.9082 8.4668 16.416 9.63867 16.0156C9.89258 15.918 9.94141 15.791 9.94141 15.5859L9.94141 13.7695C11.2402 13.7012 13.2617 12.8809 12.9785 10.2051L12.9297 9.83398C13.5156 9.6875 13.9844 9.41406 14.2676 9.0918L15.6738 9.29688C15.9863 9.33594 16.1523 8.84766 15.8203 8.7207L14.5703 8.19336C14.4727 7.4707 13.6914 6.75781 12.7246 6.75781ZM8.58398 5.53711C9.45312 5.9668 10.2441 6.49414 10.918 7.06055C11.25 6.61133 11.6504 6.32812 12.0996 6.20117C11.4844 5.09766 10.6934 4.27734 9.6875 3.70117C9.31641 3.48633 8.94531 3.65234 8.84766 4.04297C8.71094 4.54102 8.61328 5.03906 8.58398 5.53711ZM12.8711 8.125C12.8711 7.93945 13.0371 7.7832 13.2129 7.7832C13.4082 7.7832 13.5645 7.93945 13.5645 8.125C13.5645 8.32031 13.4082 8.4668 13.2129 8.4668C13.0371 8.4668 12.8711 8.32031 12.8711 8.125Z" fill="white" fill-opacity="0.85"/>
 </g>
</svg>
