<?xml version="1.0" encoding="UTF-8"?>
<!--Generator: Apple Native CoreSVG 341-->
<!DOCTYPE svg
PUBLIC "-//W3C//DTD SVG 1.1//EN"
       "http://www.w3.org/Graphics/SVG/1.1/DTD/svg11.dtd">
<svg version="1.1" xmlns="http://www.w3.org/2000/svg" xmlns:xlink="http://www.w3.org/1999/xlink" viewBox="0 0 24.3066 20.459">
 <g>
  <rect height="20.459" opacity="0" width="24.3066" x="0" y="0"/>
  <path d="M13.8965 20.459L23.3691 20.459C23.6914 20.459 23.9453 20.2148 23.9453 19.8828C23.9453 19.5508 23.6914 19.2969 23.3691 19.2969L13.8965 19.2969C13.584 19.2969 13.3203 19.5508 13.3203 19.8828C13.3203 20.2148 13.584 20.459 13.8965 20.459Z" fill="white" fill-opacity="0.85"/>
  <path d="M18.6328 17.4609C21.8555 17.4609 23.9453 15.4395 23.9453 12.5098L23.9453 3.91602C23.9453 3.36914 23.584 3.01758 23.0371 3.01758C22.4902 3.01758 22.1387 3.36914 22.1387 3.91602L22.1387 12.3633C22.1387 14.4043 20.6055 15.791 18.6328 15.791C16.4648 15.791 15.127 14.4043 15.127 12.3633L15.127 3.91602C15.127 3.36914 14.7656 3.01758 14.2188 3.01758C13.6621 3.01758 13.3203 3.36914 13.3203 3.91602L13.3203 12.5098C13.3203 15.4395 15.4004 17.4609 18.6328 17.4609Z" fill="white" fill-opacity="0.425"/>
  <path d="M1.65039 17.207L5.6543 17.207C8.64258 17.207 10.5273 15.6348 10.5273 13.2227C10.5273 11.3184 9.15039 9.94141 7.16797 9.83398L7.16797 9.75586C8.78906 9.53125 9.89258 8.31055 9.89258 6.75781C9.89258 4.58008 8.22266 3.24219 5.51758 3.24219L1.65039 3.24219C0.605469 3.24219 0 3.85742 0 4.93164L0 15.5273C0 16.5918 0.605469 17.207 1.65039 17.207ZM3.22266 14.9512L3.22266 11.0742L4.58984 11.0742C6.29883 11.0742 7.25586 11.7383 7.25586 12.9883C7.25586 14.2676 6.33789 14.9512 4.6582 14.9512ZM3.22266 9.04297L3.22266 5.53711L4.54102 5.53711C5.9082 5.53711 6.71875 6.16211 6.71875 7.23633C6.71875 8.36914 5.82031 9.04297 4.29688 9.04297Z" fill="white" fill-opacity="0.425"/>
 </g>
</svg>
