<svg version="1.1" xmlns="http://www.w3.org/2000/svg" xmlns:xlink="http://www.w3.org/1999/xlink" viewBox="0 0 16.3379 19.7168">
 <g>
  <rect height="19.7168" opacity="0" width="16.3379" x="0" y="0"/>
  <path d="M7.98828 19.7168C8.14453 19.7168 8.38867 19.6582 8.63281 19.5312C14.1895 16.6211 15.9766 15.166 15.9766 11.6602L15.9766 4.29688C15.9766 3.29102 15.5469 2.96875 14.7266 2.62695C13.584 2.1582 9.93164 0.830078 8.79883 0.439453C8.53516 0.351562 8.26172 0.302734 7.98828 0.302734C7.71484 0.302734 7.44141 0.361328 7.1875 0.439453C6.04492 0.810547 2.39258 2.16797 1.25 2.62695C0.439453 2.95898 0 3.29102 0 4.29688L0 11.6602C0 15.166 1.88477 16.4551 7.34375 19.5312C7.59766 19.668 7.83203 19.7168 7.98828 19.7168Z" fill="var(--color-tertiary)"/>
  <path d="M3.59375 10.332C3.59375 10.2148 3.65234 10.0684 3.75 9.94141L9.27734 3.01758C9.69727 2.49023 10.3906 2.8418 10.1465 3.49609L8.32031 8.37891L11.7383 8.37891C11.9922 8.37891 12.1973 8.56445 12.1973 8.82812C12.1973 8.94531 12.1387 9.0918 12.0312 9.21875L6.51367 16.1426C6.09375 16.6699 5.39062 16.3184 5.64453 15.6738L7.46094 10.7812L4.05273 10.7812C3.78906 10.7812 3.59375 10.5957 3.59375 10.332Z" fill="var(--color-primary)"/>
 </g>
</svg>
