<?xml version="1.0" encoding="UTF-8"?>
<!--Generator: Apple Native CoreSVG 341-->
<!DOCTYPE svg
PUBLIC "-//W3C//DTD SVG 1.1//EN"
       "http://www.w3.org/Graphics/SVG/1.1/DTD/svg11.dtd">
<svg version="1.1" xmlns="http://www.w3.org/2000/svg" xmlns:xlink="http://www.w3.org/1999/xlink" viewBox="0 0 24.9121 18.5645">
 <g>
  <rect height="18.5645" opacity="0" width="24.9121" x="0" y="0"/>
  <path d="M19.2969 16.9727C22.2461 16.9727 24.5508 14.8145 24.5508 12.1289C24.5508 10.0781 23.3691 8.30078 21.4648 7.5C21.4844 3.14453 18.3496 0 14.3555 0C11.709 0 9.82422 1.41602 8.65234 3.125C6.25 2.42188 3.63281 4.24805 3.58398 6.98242C1.37695 7.33398 0 9.30664 0 11.6895C0 14.5605 2.50977 16.9727 5.84961 16.9727Z" fill="white" fill-opacity="0.2125"/>
  <path d="M5.76172 11.1816L9.15039 6.79688C9.36523 6.5332 9.58008 6.41602 9.79492 6.41602C9.98047 6.41602 10.1562 6.49414 10.3516 6.5918L14.7363 8.94531L18.0859 7.13867C18.6816 6.81641 19.2188 7.39258 18.7988 7.94922L15.3906 12.3535C15.1855 12.6074 14.9609 12.7246 14.7363 12.7246C14.5703 12.7246 14.3945 12.6562 14.1895 12.5488L9.80469 10.2051L6.47461 12.0117C5.89844 12.3145 5.30273 11.7773 5.76172 11.1816Z" fill="white" fill-opacity="0.85"/>
 </g>
</svg>
