<?xml version="1.0" encoding="UTF-8"?>
<!--Generator: Apple Native CoreSVG 341-->
<!DOCTYPE svg
PUBLIC "-//W3C//DTD SVG 1.1//EN"
       "http://www.w3.org/Graphics/SVG/1.1/DTD/svg11.dtd">
<svg version="1.1" xmlns="http://www.w3.org/2000/svg" xmlns:xlink="http://www.w3.org/1999/xlink" viewBox="0 0 19.7559 18.5254">
 <g>
  <rect height="18.5254" opacity="0" width="19.7559" x="0" y="0"/>
  <path d="M0 6.49414C0 10.6543 3.48633 14.7461 8.99414 18.2617C9.19922 18.3887 9.49219 18.5254 9.69727 18.5254C9.90234 18.5254 10.1953 18.3887 10.4102 18.2617C15.9082 14.7461 19.3945 10.6543 19.3945 6.49414C19.3945 3.03711 17.0215 0.595703 13.8574 0.595703C12.0508 0.595703 10.5859 1.45508 9.69727 2.77344C8.82812 1.46484 7.34375 0.595703 5.53711 0.595703C2.37305 0.595703 0 3.03711 0 6.49414ZM1.57227 6.49414C1.57227 3.89648 3.25195 2.16797 5.51758 2.16797C7.35352 2.16797 8.4082 3.31055 9.0332 4.28711C9.29688 4.67773 9.46289 4.78516 9.69727 4.78516C9.93164 4.78516 10.0781 4.66797 10.3613 4.28711C11.0352 3.33008 12.0508 2.16797 13.877 2.16797C16.1426 2.16797 17.8223 3.89648 17.8223 6.49414C17.8223 10.127 13.9844 14.043 9.90234 16.7578C9.80469 16.8262 9.73633 16.875 9.69727 16.875C9.6582 16.875 9.58984 16.8262 9.50195 16.7578C5.41016 14.043 1.57227 10.127 1.57227 6.49414Z" fill="white" fill-opacity="0.425"/>
  <path d="M6.62109 10.498C6.62109 10.6738 6.76758 10.8008 6.95312 10.8008L9.36523 10.8008L8.07617 14.2578C7.90039 14.7168 8.38867 14.9707 8.69141 14.5996L12.5879 9.69727C12.666 9.60938 12.7148 9.51172 12.7148 9.42383C12.7148 9.23828 12.5684 9.11133 12.3828 9.11133L9.9707 9.11133L11.2598 5.6543C11.4355 5.19531 10.9473 4.95117 10.6445 5.3125L6.73828 10.2148C6.66016 10.3027 6.62109 10.4004 6.62109 10.498Z" fill="white" fill-opacity="0.85"/>
 </g>
</svg>
