<?xml version="1.0" encoding="UTF-8"?>
<!--Generator: Apple Native CoreSVG 341-->
<!DOCTYPE svg
PUBLIC "-//W3C//DTD SVG 1.1//EN"
       "http://www.w3.org/Graphics/SVG/1.1/DTD/svg11.dtd">
<svg version="1.1" xmlns="http://www.w3.org/2000/svg" xmlns:xlink="http://www.w3.org/1999/xlink" viewBox="0 0 20.2832 19.9316">
 <g>
  <rect height="19.9316" opacity="0" width="20.2832" x="0" y="0"/>
  <path d="M19.9219 9.9707C19.9219 15.4688 15.459 19.9316 9.96094 19.9316C4.47266 19.9316 0 15.4688 0 9.9707C0 4.48242 4.47266 0.00976562 9.96094 0.00976562C15.459 0.00976562 19.9219 4.48242 19.9219 9.9707ZM4.58008 6.97266C4.52148 7.06055 4.52148 7.11914 4.52148 7.29492L4.52148 13.9746C4.52148 14.1797 4.66797 14.3164 4.88281 14.3164C5.00977 14.3164 5.11719 14.2773 5.21484 14.1992C5.78125 13.7109 6.5625 13.4277 7.37305 13.4277C8.06641 13.4277 8.73047 13.6523 9.28711 14.1211C9.3457 14.1699 9.38477 14.1895 9.44336 14.1895C9.55078 14.1895 9.63867 14.1113 9.63867 13.9941L9.63867 6.99219C9.63867 6.86523 9.62891 6.8457 9.54102 6.71875C9.07227 6.05469 8.18359 5.6543 7.19727 5.6543C6.15234 5.6543 5.05859 6.13281 4.58008 6.97266ZM10.3906 6.71875C10.3027 6.8457 10.3027 6.86523 10.3027 6.99219L10.3027 13.9941C10.3027 14.1113 10.3809 14.1895 10.4883 14.1895C10.5469 14.1895 10.5957 14.1699 10.6445 14.1211C11.2012 13.6523 11.875 13.4277 12.5586 13.4277C13.3789 13.4277 14.1602 13.7109 14.7168 14.1992C14.8242 14.2773 14.9219 14.3164 15.0488 14.3164C15.2637 14.3164 15.4199 14.1797 15.4199 13.9746L15.4199 7.29492C15.4199 7.11914 15.4102 7.05078 15.3516 6.97266C14.873 6.13281 13.7793 5.6543 12.7344 5.6543C11.748 5.6543 10.8691 6.05469 10.3906 6.71875Z" fill="white" fill-opacity="0.85"/>
 </g>
</svg>
