<?xml version="1.0" encoding="UTF-8"?>
<!--Generator: Apple Native CoreSVG 341-->
<!DOCTYPE svg
PUBLIC "-//W3C//DTD SVG 1.1//EN"
       "http://www.w3.org/Graphics/SVG/1.1/DTD/svg11.dtd">
<svg version="1.1" xmlns="http://www.w3.org/2000/svg" xmlns:xlink="http://www.w3.org/1999/xlink" viewBox="0 0 20.2832 19.9316">
 <g>
  <rect height="19.9316" opacity="0" width="20.2832" x="0" y="0"/>
  <path d="M9.96094 19.9219C15.459 19.9219 19.9219 15.459 19.9219 9.96094C19.9219 4.46289 15.459 0 9.96094 0C4.46289 0 0 4.46289 0 9.96094C0 15.459 4.46289 19.9219 9.96094 19.9219ZM9.96094 18.2617C5.37109 18.2617 1.66016 14.5508 1.66016 9.96094C1.66016 5.37109 5.37109 1.66016 9.96094 1.66016C14.5508 1.66016 18.2617 5.37109 18.2617 9.96094C18.2617 14.5508 14.5508 18.2617 9.96094 18.2617Z" fill="white" fill-opacity="0.85"/>
  <path d="M7.39258 15.127L13.6035 15.127C13.8184 15.127 14.0039 14.9316 14.0039 14.7168C14.0039 14.541 13.8867 14.375 13.7305 14.3262C13.1348 14.082 13.0176 13.3203 13.5938 12.7441C13.7891 12.5586 14.0039 12.3047 14.0039 11.8262L14.0039 6.32812C14.0039 5.32227 13.5059 4.80469 12.5 4.80469L7.40234 4.80469C6.40625 4.80469 5.9082 5.3125 5.9082 6.32812L5.9082 13.623C5.9082 14.6191 6.40625 15.127 7.39258 15.127ZM7.44141 14.3164C6.97266 14.3164 6.71875 14.0527 6.71875 13.6133C6.71875 13.2031 7.02148 12.9297 7.48047 12.9297L12.3926 12.9297C12.4414 12.9297 12.4805 12.9199 12.5195 12.9199C12.334 13.3984 12.3633 13.8965 12.5781 14.3164ZM7.28516 12.1191C7.12891 12.1191 7.00195 12.002 7.00195 11.8262L7.00195 5.91797C7.00195 5.75195 7.12891 5.625 7.28516 5.625C7.46094 5.625 7.59766 5.75195 7.59766 5.91797L7.59766 11.8262C7.59766 12.002 7.46094 12.1191 7.28516 12.1191Z" fill="white" fill-opacity="0.85"/>
 </g>
</svg>
