<?xml version="1.0" encoding="UTF-8"?>
<!--Generator: Apple Native CoreSVG 341-->
<!DOCTYPE svg
PUBLIC "-//W3C//DTD SVG 1.1//EN"
       "http://www.w3.org/Graphics/SVG/1.1/DTD/svg11.dtd">
<svg version="1.1" xmlns="http://www.w3.org/2000/svg" xmlns:xlink="http://www.w3.org/1999/xlink" viewBox="0 0 22.8516 17.9395">
 <g>
  <rect height="17.9395" opacity="0" width="22.8516" x="0" y="0"/>
  <path d="M5.50781 0C3.35938 0 1.12305 0.996094 0.117188 2.72461C0.00976562 2.91992 0 3.04688 0 3.4082L0 17.1875C0 17.6367 0.283203 17.9102 0.771484 17.9102C1.00586 17.9102 1.23047 17.8418 1.40625 17.6758C2.63672 16.6211 4.26758 16.0742 5.89844 16.0742C7.42188 16.0742 8.83789 16.6113 9.87305 17.5C9.98047 17.5879 10.1074 17.6367 10.2148 17.6367C10.4297 17.6367 10.6055 17.4805 10.6055 17.2266L10.6055 2.7832C10.6055 2.5293 10.5859 2.4707 10.4004 2.20703C9.44336 0.830078 7.56836 0 5.50781 0ZM16.9824 0C14.9219 0 13.0469 0.830078 12.0898 2.20703C11.9043 2.4707 11.8848 2.5293 11.8848 2.7832L11.8848 17.2266C11.8848 17.4805 12.0605 17.6367 12.2754 17.6367C12.3828 17.6367 12.5195 17.5879 12.6172 17.5C13.6523 16.6113 15.0684 16.0742 16.5918 16.0742C18.2227 16.0742 19.8535 16.6211 21.084 17.6758C21.2598 17.8418 21.4844 17.9102 21.7188 17.9102C22.207 17.9102 22.4902 17.6367 22.4902 17.1875L22.4902 3.4082C22.4902 3.04688 22.4805 2.91016 22.373 2.72461C21.3672 0.996094 19.1309 0 16.9824 0Z" fill="white" fill-opacity="0.85"/>
 </g>
</svg>
