<?xml version="1.0" encoding="UTF-8"?>
<!--Generator: Apple Native CoreSVG 341-->
<!DOCTYPE svg
PUBLIC "-//W3C//DTD SVG 1.1//EN"
       "http://www.w3.org/Graphics/SVG/1.1/DTD/svg11.dtd">
<svg version="1.1" xmlns="http://www.w3.org/2000/svg" xmlns:xlink="http://www.w3.org/1999/xlink" viewBox="0 0 24.8047 22.041">
 <g>
  <rect height="22.041" opacity="0" width="24.8047" x="0" y="0"/>
  <path d="M0.976562 20.1758C1.58203 20.1758 1.95312 19.7852 1.95312 19.1797L1.95312 12.5977L5.3125 12.5977C5.41016 12.5977 5.51758 12.5977 5.5957 12.5879L8.89648 19.5605C9.11133 20.0098 9.39453 20.1758 9.87305 20.1758C10.4199 20.1758 10.8105 19.7949 10.8105 19.2871C10.8105 19.1016 10.7422 18.8672 10.625 18.6133L7.51953 12.1875C9.67773 11.4258 10.8203 9.53125 10.8203 7.23633C10.8203 3.98438 8.62305 2.00195 5.33203 2.00195L0.957031 2.00195C0.371094 2.00195 0 2.39258 0 3.00781L0 19.1797C0 19.7852 0.371094 20.1758 0.976562 20.1758ZM1.95312 10.8984L1.95312 3.73047L5.10742 3.73047C7.40234 3.73047 8.84766 5 8.84766 7.29492C8.84766 9.50195 7.57812 10.8984 5.16602 10.8984ZM19.043 19.6875C22.0605 19.6875 24.4434 18.0957 24.4434 15.0977C24.4434 12.4219 22.5977 11.3281 20.2832 10.4102L18.6035 9.73633C17.0703 9.11133 15.6641 8.30078 15.6641 6.63086C15.6641 4.88281 17.2168 3.95508 18.9844 3.95508C20.8691 3.95508 21.9824 5.00977 22.334 6.77734C22.4512 7.27539 22.7832 7.57812 23.291 7.57812C23.8281 7.57812 24.1797 7.2168 24.1797 6.68945C24.1797 6.54297 24.1602 6.26953 24.1113 6.04492C23.5547 3.55469 21.4648 2.28516 18.9844 2.28516C16.1914 2.28516 13.7988 3.85742 13.7988 6.73828C13.7988 9.20898 15.5176 10.4785 17.8125 11.377L19.502 12.0508C21.1719 12.6953 22.5684 13.457 22.5684 15.2637C22.5684 17.1484 21.0547 18.0176 19.043 18.0176C16.9434 18.0176 15.7031 17.0605 15.3418 15.0879C15.2344 14.5801 14.9121 14.2676 14.4043 14.2676C13.8574 14.2676 13.5059 14.6191 13.5059 15.166C13.5059 15.3711 13.5254 15.5469 13.5645 15.7227C14.0918 18.3887 16.3379 19.6875 19.043 19.6875ZM18.9648 22.0215C19.3359 22.0215 19.6094 21.7578 19.6094 21.3867L19.6094 0.644531C19.6094 0.273438 19.3359 0 18.9648 0C18.584 0 18.3203 0.273438 18.3203 0.644531L18.3203 21.3867C18.3203 21.7578 18.584 22.0215 18.9648 22.0215Z" fill="white" fill-opacity="0.85"/>
 </g>
</svg>
