<?xml version="1.0" encoding="UTF-8"?>
<!--Generator: Apple Native CoreSVG 341-->
<!DOCTYPE svg
PUBLIC "-//W3C//DTD SVG 1.1//EN"
       "http://www.w3.org/Graphics/SVG/1.1/DTD/svg11.dtd">
<svg version="1.1" xmlns="http://www.w3.org/2000/svg" xmlns:xlink="http://www.w3.org/1999/xlink" viewBox="0 0 18.3398 17.9785">
 <g>
  <rect height="17.9785" opacity="0" width="18.3398" x="0" y="0"/>
  <path d="M17.9785 3.02734L17.9785 14.9609C17.9785 16.9727 16.9629 17.9785 14.9121 17.9785L3.06641 17.9785C1.02539 17.9785 0 16.9727 0 14.9609L0 3.02734C0 1.01562 1.02539 0 3.06641 0L14.9121 0C16.9629 0 17.9785 1.01562 17.9785 3.02734ZM11.709 4.19922L11.709 4.96094C10.5176 5.05859 9.66797 5.79102 9.66797 6.96289C9.66797 8.03711 10.2734 8.59375 11.3672 9.11133L11.709 9.27734L11.709 11.8262C11.0742 11.748 10.752 11.3477 10.6348 10.6641C10.5859 10.3906 10.3613 10.2441 10.1172 10.2441C9.80469 10.2441 9.58984 10.4297 9.58984 10.7422C9.58984 10.8301 9.60938 10.957 9.62891 11.0449C9.88281 12.1875 10.7129 12.6855 11.709 12.7539L11.709 13.5352C11.709 13.7109 11.8066 13.8086 11.9824 13.8086C12.1387 13.8086 12.2559 13.7109 12.2559 13.5352L12.2559 12.7637C13.5449 12.6758 14.3945 11.9141 14.3945 10.6934C14.3945 9.50195 13.6426 9.01367 12.6465 8.54492L12.2559 8.35938L12.2559 5.88867C12.8613 5.99609 13.1152 6.46484 13.2031 7.01172C13.2617 7.20703 13.4277 7.42188 13.7402 7.42188C14.043 7.42188 14.248 7.23633 14.248 6.92383C14.248 6.85547 14.2285 6.70898 14.209 6.63086C13.9648 5.50781 13.1836 5.03906 12.2559 4.96094L12.2559 4.19922C12.2559 4.02344 12.1387 3.92578 11.9824 3.92578C11.8066 3.92578 11.709 4.02344 11.709 4.19922ZM4.50195 4.82422C4.15039 4.82422 3.93555 5.04883 3.93555 5.41016L3.93555 12.4023C3.93555 12.7441 4.12109 12.998 4.52148 12.998C4.88281 12.998 5.09766 12.7637 5.09766 12.4023L5.09766 9.67773L6.33789 9.67773L7.56836 12.5781C7.69531 12.8613 7.86133 12.998 8.16406 12.998C8.48633 12.998 8.71094 12.7832 8.71094 12.4609C8.71094 12.3047 8.64258 12.1777 8.58398 12.041L7.45117 9.43359C8.33984 9.05273 8.73047 8.1543 8.73047 7.22656C8.73047 5.67383 7.76367 4.82422 6.2793 4.82422ZM13.3008 10.791C13.3008 11.4355 12.9102 11.7773 12.2559 11.8457L12.2559 9.54102C12.8418 9.83398 13.3008 10.1465 13.3008 10.791ZM7.57812 7.25586C7.57812 8.14453 7.12891 8.75977 6.18164 8.75977L5.09766 8.75977L5.09766 5.78125L6.16211 5.78125C7.07031 5.78125 7.57812 6.35742 7.57812 7.25586ZM11.709 8.0957C11.1621 7.80273 10.752 7.46094 10.752 6.89453C10.752 6.29883 11.1523 5.95703 11.709 5.87891Z" fill="white" fill-opacity="0.85"/>
 </g>
</svg>
