<svg version="1.1" xmlns="http://www.w3.org/2000/svg" xmlns:xlink="http://www.w3.org/1999/xlink" viewBox="0 0 24.5215 26.5137">
 <g>
  <rect height="26.5137" opacity="0" width="24.5215" x="0" y="0"/>
  <path d="M22.7051 6.5625L22.7051 19.9512C22.7051 22.7389 21.0928 24.8766 18.4635 25.1129C19.8325 23.9325 20.625 22.0894 20.625 19.9512L20.625 6.5625C20.625 4.41387 19.8248 2.56652 18.443 1.39021C21.0846 1.61854 22.7051 3.77688 22.7051 6.5625Z" fill="var(--color-secondary)"/>
  <path d="M19.2969 6.5625L19.2969 19.9512C19.2969 22.9883 17.4414 25.1758 14.5508 25.1758C11.6504 25.1758 9.79492 22.9883 9.79492 19.9512L9.79492 17.4286L12.6953 14.8633C13.6816 13.9746 13.7012 12.5586 12.6953 11.6602L9.79492 9.0863L9.79492 6.5625C9.79492 3.52539 11.6504 1.33789 14.5508 1.33789C17.4414 1.33789 19.2969 3.52539 19.2969 6.5625Z" fill="var(--color-secondary)"/>
  <path d="M2.17773 14.082L9.02344 14.082C9.49219 14.082 9.85352 13.7207 9.85352 13.252C9.85352 12.7832 9.49219 12.4219 9.02344 12.4219L2.17773 12.4219C1.69922 12.4219 1.33789 12.7832 1.33789 13.252C1.33789 13.7207 1.69922 14.082 2.17773 14.082ZM7.45117 10.6543L7.45117 15.8691C7.45117 16.6699 8.26172 17.0117 8.85742 16.4844L11.8164 13.8672C12.2168 13.5156 12.2266 13.0176 11.8164 12.6562L8.85742 10.0391C8.29102 9.52148 7.45117 9.81445 7.45117 10.6543Z" fill="var(--color-primary)"/>
 </g>
</svg>
