<?xml version="1.0" encoding="UTF-8"?>
<!--Generator: Apple Native CoreSVG 341-->
<!DOCTYPE svg
PUBLIC "-//W3C//DTD SVG 1.1//EN"
       "http://www.w3.org/Graphics/SVG/1.1/DTD/svg11.dtd">
<svg version="1.1" xmlns="http://www.w3.org/2000/svg" xmlns:xlink="http://www.w3.org/1999/xlink" viewBox="0 0 26.8652 24.0332">
 <g>
  <rect height="24.0332" opacity="0" width="26.8652" x="0" y="0"/>
  <path d="M19.9414 22.6953L6.5625 22.6953C3.77614 22.6953 1.63924 21.0847 1.40097 18.4578C2.57992 19.8243 4.4207 20.6152 6.5625 20.6152L19.9414 20.6152C22.0897 20.6152 23.9351 19.8195 25.1132 18.445C24.8801 21.0796 22.7322 22.6953 19.9414 22.6953Z" fill="white" fill-opacity="0.425"/>
  <path d="M25.166 14.541C25.166 17.4316 22.9883 19.2871 19.9414 19.2871L6.5625 19.2871C3.51562 19.2871 1.33789 17.4316 1.33789 14.541C1.33789 11.6406 3.51562 9.78516 6.5625 9.78516L9.06693 9.78516L11.6504 12.6855C12.5293 13.6816 13.9551 13.6914 14.8438 12.6855L17.4262 9.78516L19.9414 9.78516C22.9883 9.78516 25.166 11.6406 25.166 14.541Z" fill="white" fill-opacity="0.425"/>
  <path d="M12.4219 2.16797L12.4219 9.01367C12.4219 9.48242 12.7832 9.85352 13.2617 9.85352C13.7207 9.85352 14.0918 9.48242 14.0918 9.01367L14.0918 2.16797C14.0918 1.68945 13.7207 1.32812 13.2617 1.32812C12.7832 1.32812 12.4219 1.68945 12.4219 2.16797ZM15.8594 7.44141L10.6348 7.44141C9.84375 7.44141 9.50195 8.25195 10.0195 8.84766L12.6465 11.8066C12.998 12.207 13.4961 12.2168 13.8477 11.8066L16.4648 8.84766C16.9824 8.28125 16.6895 7.44141 15.8594 7.44141Z" fill="white" fill-opacity="0.85"/>
 </g>
</svg>
