<?xml version="1.0" encoding="UTF-8"?>
<!--Generator: Apple Native CoreSVG 341-->
<!DOCTYPE svg
PUBLIC "-//W3C//DTD SVG 1.1//EN"
       "http://www.w3.org/Graphics/SVG/1.1/DTD/svg11.dtd">
<svg version="1.1" xmlns="http://www.w3.org/2000/svg" xmlns:xlink="http://www.w3.org/1999/xlink" viewBox="0 0 20.6836 23.8379">
 <g>
  <rect height="23.8379" opacity="0" width="20.6836" x="0" y="0"/>
  <path d="M1.12305 18.623L2.38281 18.623L2.38281 5.5957C2.38281 4.89258 2.72461 4.50195 3.44727 4.4043C5.05859 4.17969 7.54883 4.08203 10.1562 4.08203C12.7539 4.08203 15.2441 4.17969 16.875 4.4043C17.6074 4.49219 17.9297 4.83398 17.9297 5.5957L17.9297 18.623L19.1992 18.623L19.1992 5.21484C19.1992 4.02344 18.5059 3.32031 17.207 3.16406C15.3125 2.92969 12.666 2.80273 10.1562 2.80273C7.64648 2.80273 5 2.92969 3.0957 3.16406C1.80664 3.32031 1.12305 4.02344 1.12305 5.21484ZM0 19.248C0 19.6777 0.351562 20.0391 0.78125 20.0391L19.541 20.0391C19.9707 20.0391 20.3223 19.6777 20.3223 19.248C20.3223 18.8184 19.9707 18.4668 19.541 18.4668L0.78125 18.4668C0.351562 18.4668 0 18.8184 0 19.248ZM3.85742 1.08398C3.85742 1.52344 4.22852 1.94336 4.6875 1.88477C6.14258 1.70898 8.1543 1.63086 10.1562 1.63086C12.1582 1.63086 14.1797 1.70898 15.6348 1.88477C16.084 1.94336 16.4551 1.52344 16.4551 1.08398C16.4551 0.644531 16.1035 0.322266 15.6348 0.263672C14.1602 0.0878906 12.1289 0 10.1562 0C8.19336 0 6.16211 0.0878906 4.67773 0.263672C4.21875 0.322266 3.85742 0.644531 3.85742 1.08398ZM4.9707 0.830078L4.9707 3.50586L6.25 3.50586L6.25 0.830078ZM14.0723 0.830078L14.0723 3.50586L15.3516 3.50586L15.3516 0.830078ZM10.1562 17.3535C11.0449 17.3535 11.748 16.6895 11.748 15.8008C11.748 14.8926 11.0449 14.1895 10.1562 14.1895C9.24805 14.1895 8.58398 14.8926 8.58398 15.8008C8.58398 16.6895 9.24805 17.3535 10.1562 17.3535ZM3.42773 12.2949C3.42773 12.5879 3.62305 12.7832 3.93555 12.7832L6.5625 12.7832C6.875 12.7832 7.07031 12.5879 7.07031 12.2949L7.07031 7.51953C7.07031 6.49414 6.26953 5.70312 5.25391 5.70312C4.21875 5.70312 3.42773 6.49414 3.42773 7.51953ZM8.10547 12.2949C8.10547 12.5879 8.30078 12.7832 8.61328 12.7832L11.6895 12.7832C12.0117 12.7832 12.207 12.5879 12.207 12.2949L12.207 7.29492C12.207 6.07422 11.3867 5.25391 10.1562 5.25391C8.92578 5.25391 8.10547 6.07422 8.10547 7.29492ZM13.2324 12.2949C13.2324 12.5879 13.4375 12.7832 13.75 12.7832L16.377 12.7832C16.6895 12.7832 16.8848 12.5879 16.8848 12.2949L16.8848 7.51953C16.8848 6.49414 16.084 5.70312 15.0684 5.70312C14.0332 5.70312 13.2324 6.49414 13.2324 7.51953ZM3.25195 23.8184L3.79883 23.8184C4.0625 23.8184 4.21875 23.7305 4.36523 23.4961L7.13867 19.0137L5.27344 19.0137L2.8125 22.9688C2.55859 23.3789 2.79297 23.8184 3.25195 23.8184ZM16.1816 23.8184L16.7285 23.8184C17.1777 23.8184 17.4121 23.3789 17.1582 22.9688L14.6973 19.0137L12.832 19.0137L15.6055 23.4961C15.752 23.7305 15.9082 23.8184 16.1816 23.8184Z" fill="white" fill-opacity="0.85"/>
 </g>
</svg>
