<?xml version="1.0" encoding="UTF-8"?>
<!--Generator: Apple Native CoreSVG 341-->
<!DOCTYPE svg
PUBLIC "-//W3C//DTD SVG 1.1//EN"
       "http://www.w3.org/Graphics/SVG/1.1/DTD/svg11.dtd">
<svg version="1.1" xmlns="http://www.w3.org/2000/svg" xmlns:xlink="http://www.w3.org/1999/xlink" viewBox="0 0 20.2832 19.9316">
 <g>
  <rect height="19.9316" opacity="0" width="20.2832" x="0" y="0"/>
  <path d="M19.9219 9.96094C19.9219 15.4492 15.459 19.9219 9.96094 19.9219C4.47266 19.9219 0 15.4492 0 9.96094C0 4.46289 4.47266 0 9.96094 0C15.459 0 19.9219 4.46289 19.9219 9.96094ZM4.05273 11.0645L4.05273 12.9688C4.05273 14.0625 4.61914 14.6191 5.72266 14.6191L12.4609 14.6191C13.5645 14.6191 14.1309 14.0625 14.1309 12.9688L14.1309 11.0645L13.0859 11.0645L13.0859 13.0078C13.0859 13.4082 12.8906 13.5938 12.5293 13.5938L5.64453 13.5938C5.27344 13.5938 5.07812 13.4082 5.07812 13.0078L5.07812 11.0645ZM14.6875 13.8477C14.6875 14.2383 15 14.5703 15.4102 14.5703C15.8105 14.5703 16.1328 14.248 16.1328 13.8477C16.1328 13.457 15.8105 13.1348 15.4102 13.1348C15 13.1348 14.6875 13.4668 14.6875 13.8477ZM14.6875 11.8945C14.6875 12.2852 15 12.6172 15.4102 12.6172C15.8105 12.6172 16.1328 12.2949 16.1328 11.8945C16.1328 11.4941 15.8008 11.1816 15.4102 11.1816C15 11.1816 14.6875 11.4941 14.6875 11.8945ZM14.7852 9.48242L4.16992 9.48242C3.89648 9.48242 3.71094 9.70703 3.71094 9.96094C3.71094 10.2246 3.89648 10.4297 4.16992 10.4297L14.7852 10.4297C14.9219 10.625 15.1562 10.752 15.4102 10.752C15.8496 10.752 16.2012 10.3906 16.2012 9.95117C16.2012 9.51172 15.8496 9.15039 15.4102 9.15039C15.1562 9.15039 14.9219 9.27734 14.7852 9.48242ZM5.72266 5.30273C4.61914 5.30273 4.05273 5.85938 4.05273 6.94336L4.05273 8.86719L5.07812 8.86719L5.07812 6.92383C5.07812 6.52344 5.27344 6.33789 5.64453 6.33789L12.5293 6.33789C12.8906 6.33789 13.0859 6.52344 13.0859 6.92383L13.0859 8.86719L14.1309 8.86719L14.1309 6.94336C14.1309 5.85938 13.5645 5.30273 12.4609 5.30273ZM14.6875 7.99805C14.6875 8.39844 15 8.7207 15.4102 8.7207C15.8008 8.7207 16.1328 8.39844 16.1328 7.99805C16.1328 7.59766 15.8105 7.27539 15.4102 7.27539C15 7.27539 14.6875 7.60742 14.6875 7.99805ZM14.6875 6.04492C14.6875 6.43555 15 6.76758 15.4102 6.76758C15.8105 6.76758 16.1328 6.44531 16.1328 6.04492C16.1328 5.64453 15.8105 5.3125 15.4102 5.3125C15 5.3125 14.6875 5.6543 14.6875 6.04492Z" fill="white" fill-opacity="0.85"/>
 </g>
</svg>
