<?xml version="1.0" encoding="UTF-8"?>
<!--Generator: Apple Native CoreSVG 341-->
<!DOCTYPE svg
PUBLIC "-//W3C//DTD SVG 1.1//EN"
       "http://www.w3.org/Graphics/SVG/1.1/DTD/svg11.dtd">
<svg version="1.1" xmlns="http://www.w3.org/2000/svg" xmlns:xlink="http://www.w3.org/1999/xlink" viewBox="0 0 23.3887 17.9785">
 <g>
  <rect height="17.9785" opacity="0" width="23.3887" x="0" y="0"/>
  <path d="M3.06641 17.9785L10.8594 17.9785L10.8594 16.4062L3.08594 16.4062C2.10938 16.4062 1.57227 15.8887 1.57227 14.873L1.57227 9.6582L0 9.6582L0 14.9609C0 16.9727 1.02539 17.9785 3.06641 17.9785ZM12.1973 17.9785L19.9609 17.9785C22.0117 17.9785 23.0273 16.9727 23.0273 14.9609L23.0273 9.6582L21.4551 9.6582L21.4551 14.873C21.4551 15.8887 20.9082 16.4062 19.9414 16.4062L12.1973 16.4062ZM21.4551 8.33008L23.0273 8.33008L23.0273 3.02734C23.0273 1.01562 22.0117 0 19.9609 0L12.1973 0L12.1973 1.57227L19.9414 1.57227C20.9082 1.57227 21.4551 2.09961 21.4551 3.11523ZM0 8.33008L1.57227 8.33008L1.57227 3.11523C1.57227 2.09961 2.10938 1.57227 3.08594 1.57227L10.8594 1.57227L10.8594 0L3.06641 0C1.02539 0 0 1.01562 0 3.02734Z" fill="white" fill-opacity="0.85"/>
  <path d="M11.5332 14.4238C14.541 14.4238 16.9727 11.9824 16.9727 8.98438C16.9727 5.97656 14.541 3.53516 11.5332 3.53516C8.52539 3.53516 6.09375 5.97656 6.09375 8.98438C6.09375 11.9824 8.52539 14.4238 11.5332 14.4238ZM11.5332 13.1641C9.22852 13.1641 7.35352 11.2891 7.35352 8.98438C7.35352 6.67969 9.22852 4.80469 11.5332 4.80469C13.8379 4.80469 15.7129 6.67969 15.7129 8.98438C15.7129 11.2891 13.8379 13.1641 11.5332 13.1641Z" fill="white" fill-opacity="0.85"/>
  <path d="M11.5332 11.7578C13.0762 11.7578 14.3164 10.5176 14.3164 8.98438C14.3164 7.44141 13.0762 6.20117 11.5332 6.20117C10 6.20117 8.75 7.44141 8.75 8.98438C8.75 10.5176 10 11.7578 11.5332 11.7578Z" fill="white" fill-opacity="0.85"/>
 </g>
</svg>
