<?xml version="1.0" encoding="UTF-8"?>
<!--Generator: Apple Native CoreSVG 341-->
<!DOCTYPE svg
PUBLIC "-//W3C//DTD SVG 1.1//EN"
       "http://www.w3.org/Graphics/SVG/1.1/DTD/svg11.dtd">
<svg version="1.1" xmlns="http://www.w3.org/2000/svg" xmlns:xlink="http://www.w3.org/1999/xlink" viewBox="0 0 27.0703 22.5098">
 <g>
  <rect height="22.5098" opacity="0" width="27.0703" x="0" y="0"/>
  <path d="M20.4395 4.38477L20.4395 4.82657C19.5991 4.61117 18.6924 4.50195 17.7344 4.50195L13.2812 4.50195C7.76367 4.50195 3.95508 8.125 3.95508 13.5059C3.95508 14.6288 4.11993 15.6746 4.43965 16.6211L4.0332 16.6211C1.99219 16.6211 0.966797 15.6152 0.966797 13.5938L0.966797 4.38477C0.966797 2.37305 1.99219 1.35742 4.0332 1.35742L17.373 1.35742C19.4238 1.35742 20.4395 2.37305 20.4395 4.38477Z" fill="white" fill-opacity="0.425"/>
  <path d="M13.2812 21.1719L17.7344 21.1719C22.5293 21.1719 25.7324 18.1445 25.7324 13.5059C25.7324 8.87695 22.5293 5.83008 17.7344 5.83008L13.2812 5.83008C8.47656 5.83008 5.2832 8.87695 5.2832 13.5059C5.2832 18.1445 8.47656 21.1719 13.2812 21.1719Z" fill="white" fill-opacity="0.85"/>
 </g>
</svg>
