<?xml version="1.0" encoding="UTF-8"?>
<!--Generator: Apple Native CoreSVG 341-->
<!DOCTYPE svg
PUBLIC "-//W3C//DTD SVG 1.1//EN"
       "http://www.w3.org/Graphics/SVG/1.1/DTD/svg11.dtd">
<svg version="1.1" xmlns="http://www.w3.org/2000/svg" xmlns:xlink="http://www.w3.org/1999/xlink" viewBox="0 0 20.2832 19.9316">
 <g>
  <rect height="19.9316" opacity="0" width="20.2832" x="0" y="0"/>
  <path d="M19.9219 9.9707C19.9219 15.4688 15.459 19.9316 9.96094 19.9316C4.47266 19.9316 0 15.4688 0 9.9707C0 4.48242 4.47266 0.00976562 9.96094 0.00976562C15.459 0.00976562 19.9219 4.48242 19.9219 9.9707ZM7.42188 5.36133C6.80664 5.43945 6.32812 5.75195 6.07422 6.2793C5.9082 6.62109 5.61523 7.5 5.43945 8.34961L5.03906 8.85742C4.59961 9.41406 4.44336 9.86328 4.44336 10.6348L4.44336 13.3203C4.44336 13.6621 4.7168 13.9355 5.06836 13.9355L5.625 13.9355C5.9668 13.9355 6.24023 13.6621 6.24023 13.3203L6.24023 12.5488C7.27539 12.6074 8.76953 12.6465 9.9707 12.6465C11.1719 12.6465 12.6562 12.6074 13.6914 12.5488L13.6914 13.3203C13.6914 13.6621 13.9648 13.9355 14.3164 13.9355L14.873 13.9355C15.2148 13.9355 15.4883 13.6621 15.4883 13.3203L15.4883 10.6348C15.4883 9.86328 15.332 9.41406 14.8926 8.85742L14.502 8.34961C14.3164 7.5 14.0234 6.62109 13.8574 6.2793C13.6133 5.75195 13.1348 5.44922 12.5098 5.36133C12.1973 5.32227 11.1719 5.29297 9.9707 5.29297C8.75977 5.29297 7.74414 5.32227 7.42188 5.36133ZM7.35352 10.6445C7.35352 11.0645 7.02148 11.3965 6.60156 11.3965C6.18164 11.3965 5.84961 11.0645 5.84961 10.6445C5.84961 10.2246 6.18164 9.90234 6.60156 9.90234C7.02148 9.90234 7.35352 10.2246 7.35352 10.6445ZM14.0918 10.6445C14.0918 11.0645 13.7598 11.3965 13.3301 11.3965C12.9102 11.3965 12.5879 11.0645 12.5879 10.6445C12.5879 10.2246 12.9102 9.90234 13.3301 9.90234C13.7598 9.90234 14.0918 10.2246 14.0918 10.6445ZM11.7383 10.6738C11.7383 10.9961 11.5137 11.2207 11.2012 11.2207L8.74023 11.2207C8.41797 11.2207 8.19336 10.9961 8.19336 10.6738C8.19336 10.3613 8.41797 10.1367 8.74023 10.1367L11.2012 10.1367C11.5137 10.1367 11.7383 10.3613 11.7383 10.6738ZM12.3633 6.23047C12.6074 6.25977 12.7246 6.34766 12.8613 6.5625C12.998 6.79688 13.2031 7.42188 13.3008 7.91016C13.3496 8.05664 13.2812 8.125 13.1055 8.11523C12.3926 8.05664 11.5332 8.01758 9.9707 8.01758C8.39844 8.01758 7.54883 8.05664 6.82617 8.11523C6.65039 8.125 6.5918 8.05664 6.63086 7.91016C6.73828 7.42188 6.94336 6.80664 7.08008 6.5625C7.20703 6.34766 7.33398 6.25977 7.57812 6.23047C7.90039 6.18164 8.64258 6.16211 9.9707 6.16211C11.2891 6.16211 12.0312 6.17188 12.3633 6.23047Z" fill="white" fill-opacity="0.85"/>
 </g>
</svg>
