<?xml version="1.0" encoding="UTF-8"?>
<!--Generator: Apple Native CoreSVG 341-->
<!DOCTYPE svg
PUBLIC "-//W3C//DTD SVG 1.1//EN"
       "http://www.w3.org/Graphics/SVG/1.1/DTD/svg11.dtd">
<svg version="1.1" xmlns="http://www.w3.org/2000/svg" xmlns:xlink="http://www.w3.org/1999/xlink" viewBox="0 0 35.3711 17.8809">
 <g>
  <rect height="17.8809" opacity="0" width="35.3711" x="0" y="0"/>
  <path d="M3.06641 17.8809L17.627 17.8809C19.6973 17.8809 20.6934 16.9043 20.6934 14.8633L20.6934 2.95898C20.6934 1.00586 19.6875 0.00976562 17.7148 0.00976562L12.9785 0.00976562C11.3867 0.00976562 10.3906 0.351562 9.10156 1.31836L1.51367 7.08984C0.390625 7.93945 0 8.69141 0 10.0879L0 14.8633C0 16.9043 1.00586 17.8809 3.06641 17.8809ZM3.125 8.87695C2.60742 8.87695 2.5 8.32031 2.90039 8.02734L10.1758 2.46094C11.0059 1.79688 11.7285 1.58203 12.9785 1.58203L17.6855 1.58203C18.5938 1.58203 19.1211 2.08984 19.1211 3.03711L19.1211 7.42188C19.1211 8.35938 18.584 8.87695 17.6855 8.87695Z" fill="white" fill-opacity="0.425"/>
  <path d="M25.0781 14.3652C25.3809 14.3652 25.5664 14.2578 25.8691 13.9746L34.6582 5.11719C34.9121 4.85352 35.0098 4.66797 35.0098 4.38477C35.0098 3.97461 34.6484 3.62305 34.2285 3.62305C33.9258 3.62305 33.7402 3.73047 33.4375 4.01367L24.6484 12.8613C24.3945 13.125 24.2969 13.3105 24.2969 13.6035C24.2969 14.0137 24.6582 14.3652 25.0781 14.3652ZM34.2285 14.3652C34.6484 14.3652 35.0098 14.0137 35.0098 13.6035C35.0098 13.3105 34.9121 13.125 34.6582 12.8613L25.8691 4.01367C25.5664 3.73047 25.3809 3.62305 25.0781 3.62305C24.6582 3.62305 24.2969 3.97461 24.2969 4.38477C24.2969 4.66797 24.3945 4.85352 24.6484 5.11719L33.4375 13.9746C33.7402 14.2578 33.9258 14.3652 34.2285 14.3652Z" fill="white" fill-opacity="0.85"/>
 </g>
</svg>
