<?xml version="1.0" encoding="UTF-8"?>
<!--Generator: Apple Native CoreSVG 341-->
<!DOCTYPE svg
PUBLIC "-//W3C//DTD SVG 1.1//EN"
       "http://www.w3.org/Graphics/SVG/1.1/DTD/svg11.dtd">
<svg version="1.1" xmlns="http://www.w3.org/2000/svg" xmlns:xlink="http://www.w3.org/1999/xlink" viewBox="0 0 32.7539 27.2241">
 <g>
  <rect height="27.2241" opacity="0" width="32.7539" x="0" y="0"/>
  <path d="M11.5349 11.6332L9.15039 13.1287C8.76953 13.363 8.4082 13.49 7.85156 13.5584L4.21875 14.0076C2.46094 14.2127 1.46484 15.2283 1.46484 16.5857L1.46484 17.6892C1.46484 18.783 1.9043 19.281 2.89062 19.281L3.46654 19.281C3.56056 17.5588 4.93911 16.2439 6.68945 16.2439C8.4398 16.2439 9.81834 17.5588 9.91236 19.281L19.1862 19.281L20.6517 20.7459L9.6729 20.7459C9.19001 21.9114 8.05245 22.7087 6.68945 22.7087C5.32645 22.7087 4.1889 21.9114 3.70601 20.7459L2.89062 20.7459C0.917969 20.7459 0 19.8181 0 17.738L0 16.5857C0 14.4275 1.51367 12.8748 4.0332 12.5623L8.06641 12.0642L10.4644 10.5631ZM28.4082 11.3806L29.8535 11.8591C31.5723 12.4255 32.3926 13.4802 32.3926 15.1697L32.3926 17.6892C32.3926 19.7986 31.4941 20.7459 29.502 20.7459L28.6866 20.7459C28.4366 21.3493 28.0111 21.854 27.4682 22.1985L26.4548 21.1851C27.109 20.9004 27.5586 20.2499 27.5586 19.4763C27.5586 18.4412 26.7383 17.6209 25.7031 17.6209C24.9342 17.6209 24.2838 18.0735 24.0009 18.7311L22.981 17.7112C23.548 16.8205 24.5441 16.2439 25.7031 16.2439C27.4535 16.2439 28.832 17.5588 28.926 19.281L29.502 19.281C30.4785 19.281 30.9277 18.783 30.9277 17.6892L30.9277 15.1697C30.9277 14.2127 30.4492 13.6755 29.4043 13.3435L28.4473 13.031C27.9102 12.8552 27.6758 12.7576 27.2461 12.3962C24.9023 10.3357 23.0078 9.45679 20.625 9.45679L19.248 9.45679C17.3822 9.45679 16.1522 9.54599 15.0989 9.8291L13.9272 8.65745C15.3051 8.15151 16.8147 7.99195 19.248 7.99195L20.625 7.99195C24.043 7.99195 26.5723 9.78882 28.4082 11.3806ZM4.82422 19.4763C4.82422 20.5212 5.64453 21.3416 6.68945 21.3416C7.72461 21.3416 8.54492 20.5212 8.54492 19.4763C8.54492 18.4412 7.72461 17.6209 6.68945 17.6209C5.64453 17.6209 4.82422 18.4412 4.82422 19.4763Z" fill="white" fill-opacity="0.425"/>
  <path d="M26.1914 4.13453L26.1914 5.10132C26.1914 5.89234 25.7617 6.40015 24.9805 6.40015L14.5996 6.40015C13.8477 6.40015 13.5156 6.04859 13.5156 5.41382C13.5156 4.9939 13.7207 4.56421 14.3359 4.31031L16.5332 3.38257C18.7891 2.45484 20.1953 1.99586 21.9434 1.99586L23.8184 1.99586C25.4688 1.99586 26.1914 2.71851 26.1914 4.13453Z" fill="white" fill-opacity="0.425"/>
  <path d="M27.3926 25.863C27.6855 26.156 28.1738 26.156 28.457 25.863C28.75 25.5701 28.75 25.0916 28.457 24.7986L6.37695 2.72828C6.07422 2.42554 5.60547 2.42554 5.30273 2.72828C5.01953 3.01148 5.00977 3.49 5.30273 3.79273Z" fill="white" fill-opacity="0.85"/>
 </g>
</svg>
