<?xml version="1.0" encoding="UTF-8"?>
<!--Generator: Apple Native CoreSVG 341-->
<!DOCTYPE svg
PUBLIC "-//W3C//DTD SVG 1.1//EN"
       "http://www.w3.org/Graphics/SVG/1.1/DTD/svg11.dtd">
<svg version="1.1" xmlns="http://www.w3.org/2000/svg" xmlns:xlink="http://www.w3.org/1999/xlink" viewBox="0 0 37.168 27.8223">
 <g>
  <rect height="27.8223" opacity="0" width="37.168" x="0" y="0"/>
  <path d="M3.76953 22.666C4.08203 22.3145 3.98438 21.8555 3.63281 21.4551C2.32422 20 1.5918 18.0957 1.5918 15.9863C1.5918 13.8867 2.32422 11.9727 3.63281 10.5176C3.98438 10.1172 4.08203 9.66797 3.76953 9.30664C3.45703 8.94531 2.91016 8.94531 2.53906 9.36523C0.917969 11.123 0 13.457 0 15.9863C0 18.5156 0.917969 20.8594 2.53906 22.6172C2.91016 23.0273 3.45703 23.0371 3.76953 22.666ZM33.0371 22.666C33.3594 23.0371 33.8965 23.0273 34.2773 22.6172C35.8984 20.8594 36.8066 18.5156 36.8066 15.9863C36.8066 13.457 35.8984 11.123 34.2773 9.36523C33.8965 8.94531 33.3594 8.94531 33.0371 9.30664C32.7246 9.66797 32.8223 10.1172 33.1738 10.5176C34.4922 11.9727 35.2148 13.8867 35.2148 15.9863C35.2148 18.0957 34.4922 20 33.1738 21.4551C32.8223 21.8555 32.7246 22.3145 33.0371 22.666ZM18.4082 1.5918C20.5078 1.5918 22.4121 2.32422 23.877 3.63281C24.2773 3.98438 24.7266 4.08203 25.0879 3.76953C25.4492 3.45703 25.4492 2.91016 25.0391 2.5293C23.2715 0.908203 20.9375 0 18.4082 0C15.8789 0 13.5352 0.908203 11.7773 2.5293C11.3574 2.91016 11.3574 3.45703 11.7285 3.76953C12.0801 4.08203 12.5293 3.98438 12.9395 3.63281C14.3945 2.32422 16.2988 1.5918 18.4082 1.5918Z" fill="white" fill-opacity="0.425"/>
  <path d="M6.50391 19.8828C6.81641 19.5312 6.68945 19.1016 6.37695 18.6719C5.79102 17.9492 5.50781 17.002 5.50781 15.9863C5.50781 14.9707 5.79102 14.0332 6.37695 13.3008C6.68945 12.8809 6.81641 12.4414 6.50391 12.0898C6.18164 11.7285 5.5957 11.7188 5.25391 12.1582C4.4043 13.2129 3.91602 14.5508 3.91602 15.9863C3.91602 17.4219 4.4043 18.7598 5.25391 19.8145C5.5957 20.2637 6.18164 20.2539 6.50391 19.8828ZM30.3027 19.8828C30.625 20.2539 31.2109 20.2637 31.5625 19.8145C32.4121 18.7598 32.9004 17.4219 32.9004 15.9863C32.9004 14.5508 32.4121 13.2129 31.5625 12.1582C31.2109 11.7188 30.625 11.7285 30.3027 12.0898C29.9902 12.4414 30.127 12.8809 30.4297 13.3008C31.0156 14.0332 31.3086 14.9707 31.3086 15.9863C31.3086 17.002 31.0156 17.9492 30.4297 18.6719C30.127 19.1016 29.9902 19.5312 30.3027 19.8828ZM18.418 5.49805C19.4336 5.49805 20.3809 5.79102 21.1035 6.37695C21.5332 6.68945 21.9629 6.81641 22.3145 6.50391C22.6855 6.18164 22.6953 5.5957 22.2461 5.25391C21.1914 4.4043 19.8535 3.90625 18.418 3.90625C16.9824 3.90625 15.6445 4.4043 14.5898 5.25391C14.1504 5.5957 14.1602 6.18164 14.5215 6.50391C14.873 6.81641 15.3125 6.67969 15.7324 6.37695C16.4844 5.81055 17.4023 5.49805 18.418 5.49805Z" fill="white" fill-opacity="0.425"/>
  <path d="M18.4375 21.1621C20.4297 21.1621 22.9492 21.0938 24.7363 20.9863L24.7363 22.3633C24.7363 22.959 25.1953 23.4082 25.791 23.4082L26.8945 23.4082C27.5 23.4082 27.959 22.959 27.959 22.3633L27.959 17.7051C27.959 16.3574 27.6855 15.6055 26.9434 14.6484L26.2695 13.7793C25.9766 12.3438 25.4492 10.8301 25.1758 10.2441C24.7461 9.33594 23.916 8.78906 22.8516 8.66211C22.3242 8.59375 20.5078 8.55469 18.4375 8.55469C16.3672 8.55469 14.5508 8.59375 14.0234 8.66211C12.959 8.78906 12.1387 9.33594 11.6992 10.2441C11.4258 10.8301 10.8984 12.3438 10.6055 13.7793L9.93164 14.6484C9.18945 15.6055 8.91602 16.3574 8.91602 17.7051L8.91602 22.3633C8.91602 22.959 9.38477 23.4082 9.98047 23.4082L11.084 23.4082C11.6895 23.4082 12.1387 22.959 12.1387 22.3633L12.1387 20.9863C13.9258 21.0938 16.4453 21.1621 18.4375 21.1621ZM12.2852 13.1152C12.4707 12.2363 12.8613 11.1035 13.125 10.6348C13.3398 10.2539 13.5742 10.0977 14.0039 10.0391C14.6094 9.96094 15.9668 9.90234 18.4375 9.90234C20.9082 9.90234 22.2656 9.94141 22.8809 10.0391C23.3008 10.0977 23.5352 10.2539 23.75 10.6348C24.0234 11.0938 24.3848 12.2363 24.5898 13.1152C24.668 13.4082 24.541 13.5254 24.2383 13.5059C22.9102 13.418 21.3281 13.3301 18.4375 13.3301C15.5469 13.3301 13.9746 13.418 12.6465 13.5059C12.334 13.5254 12.2168 13.4082 12.2852 13.1152ZM12.6855 19.0137C11.9531 19.0137 11.3965 18.457 11.3965 17.7246C11.3965 16.9922 11.9531 16.4453 12.6855 16.4453C13.4082 16.4453 13.9551 16.9922 13.9551 17.7246C13.9551 18.457 13.4082 19.0137 12.6855 19.0137ZM16.3281 18.6914C15.7812 18.6914 15.4004 18.3203 15.4004 17.7734C15.4004 17.2168 15.7812 16.8457 16.3281 16.8457L20.5469 16.8457C21.0938 16.8457 21.4844 17.2168 21.4844 17.7734C21.4844 18.3203 21.0938 18.6914 20.5469 18.6914ZM24.1992 19.0137C23.4668 19.0137 22.9199 18.457 22.9199 17.7246C22.9199 16.9922 23.4668 16.4453 24.1992 16.4453C24.9316 16.4453 25.4883 16.9922 25.4883 17.7246C25.4883 18.457 24.9316 19.0137 24.1992 19.0137Z" fill="white" fill-opacity="0.85"/>
 </g>
</svg>
