<?xml version="1.0" encoding="UTF-8"?>
<!--Generator: Apple Native CoreSVG 341-->
<!DOCTYPE svg
PUBLIC "-//W3C//DTD SVG 1.1//EN"
       "http://www.w3.org/Graphics/SVG/1.1/DTD/svg11.dtd">
<svg version="1.1" xmlns="http://www.w3.org/2000/svg" xmlns:xlink="http://www.w3.org/1999/xlink" viewBox="0 0 19.4043 25.8691">
 <g>
  <rect height="25.8691" opacity="0" width="19.4043" x="0" y="0"/>
  <path d="M9.48242 1.5918C11.5918 1.5918 13.4961 2.32422 14.9512 3.63281C15.3613 3.98438 15.8105 4.08203 16.1621 3.76953C16.5332 3.45703 16.5332 2.91016 16.1133 2.5293C14.3555 0.908203 12.0117 0 9.48242 0C6.95312 0 4.61914 0.908203 2.85156 2.5293C2.44141 2.91016 2.44141 3.45703 2.80273 3.76953C3.16406 4.08203 3.61328 3.98438 4.01367 3.63281C5.47852 2.32422 7.38281 1.5918 9.48242 1.5918Z" fill="white" fill-opacity="0.425"/>
  <path d="M9.50195 5.49805C10.5176 5.49805 11.4648 5.79102 12.1875 6.37695C12.6074 6.68945 13.0469 6.81641 13.3984 6.50391C13.7695 6.18164 13.7793 5.5957 13.3301 5.25391C12.2754 4.4043 10.9375 3.90625 9.50195 3.90625C8.06641 3.90625 6.72852 4.4043 5.67383 5.25391C5.22461 5.5957 5.23438 6.18164 5.60547 6.50391C5.95703 6.81641 6.38672 6.67969 6.81641 6.37695C7.56836 5.81055 8.48633 5.49805 9.50195 5.49805Z" fill="white" fill-opacity="0.425"/>
  <path d="M9.52148 21.1621C11.5137 21.1621 14.0332 21.0938 15.8203 20.9863L15.8203 22.3633C15.8203 22.959 16.2793 23.4082 16.875 23.4082L17.9785 23.4082C18.5742 23.4082 19.043 22.959 19.043 22.3633L19.043 17.7051C19.043 16.3574 18.7695 15.6055 18.0273 14.6484L17.3535 13.7793C17.0605 12.3438 16.5332 10.8301 16.2598 10.2441C15.8203 9.33594 15 8.78906 13.9355 8.66211C13.4082 8.59375 11.5918 8.54492 9.52148 8.54492C7.45117 8.54492 5.63477 8.59375 5.10742 8.66211C4.04297 8.78906 3.21289 9.33594 2.7832 10.2441C2.50977 10.8301 1.98242 12.3438 1.68945 13.7793L1.01562 14.6484C0.273438 15.6055 0 16.3574 0 17.7051L0 22.3633C0 22.959 0.46875 23.4082 1.06445 23.4082L2.16797 23.4082C2.76367 23.4082 3.22266 22.959 3.22266 22.3633L3.22266 20.9863C5.00977 21.0938 7.5293 21.1621 9.52148 21.1621ZM3.36914 13.1152C3.55469 12.2363 3.94531 11.1035 4.20898 10.6348C4.42383 10.2539 4.6582 10.0977 5.08789 10.0293C5.69336 9.96094 7.05078 9.90234 9.52148 9.90234C11.9922 9.90234 13.3496 9.94141 13.9551 10.0293C14.3848 10.0977 14.6094 10.2539 14.834 10.6348C15.1074 11.0938 15.459 12.2363 15.6738 13.1152C15.752 13.4082 15.625 13.5254 15.3223 13.5059C13.9941 13.4082 12.4121 13.3301 9.52148 13.3301C6.63086 13.3301 5.04883 13.4082 3.7207 13.5059C3.41797 13.5254 3.30078 13.4082 3.36914 13.1152ZM3.75977 19.0137C3.03711 19.0137 2.4707 18.457 2.4707 17.7246C2.4707 16.9922 3.03711 16.4453 3.75977 16.4453C4.49219 16.4453 5.03906 16.9922 5.03906 17.7246C5.03906 18.457 4.49219 19.0137 3.75977 19.0137ZM7.41211 18.6914C6.86523 18.6914 6.48438 18.3203 6.48438 17.7734C6.48438 17.2168 6.86523 16.8457 7.41211 16.8457L11.6309 16.8457C12.1777 16.8457 12.5586 17.2168 12.5586 17.7734C12.5586 18.3203 12.1777 18.6914 11.6309 18.6914ZM15.2832 19.0137C14.5508 19.0137 14.0039 18.457 14.0039 17.7246C14.0039 16.9922 14.5508 16.4453 15.2832 16.4453C16.0059 16.4453 16.5625 16.9922 16.5625 17.7246C16.5625 18.457 16.0059 19.0137 15.2832 19.0137Z" fill="white" fill-opacity="0.85"/>
 </g>
</svg>
