<svg version="1.1" xmlns="http://www.w3.org/2000/svg" xmlns:xlink="http://www.w3.org/1999/xlink" viewBox="0 0 25.7133 19.2871">
 <g>
  <rect height="19.2871" opacity="0" width="25.7133" x="0" y="0"/>
  <path d="M2.76386 6.5332C3.52557 5.42969 4.58026 4.63867 5.72284 4.16016C6.31854 3.91602 6.35761 3.36914 6.12323 3.00781C5.94745 2.73438 5.60565 2.55859 5.21503 2.70508C3.75995 3.28125 2.50018 4.33594 1.55292 5.69336C0.615418 7.06055 0.0392463 8.58398 0.000183837 10.166C-0.00958179 10.6445 0.371278 10.9375 0.771668 10.9375C1.15253 10.9473 1.51386 10.6836 1.54315 10.1367C1.60175 8.90625 1.98261 7.64648 2.76386 6.5332ZM12.676 1.46484C14.0236 1.46484 15.2736 1.86523 16.3283 2.5293C16.8264 2.8418 17.256 2.63672 17.4611 2.29492C17.6271 1.96289 17.5978 1.5332 17.2267 1.2793C15.9182 0.410156 14.3361 0 12.676 0C11.0158 0 9.43378 0.410156 8.12518 1.2793C7.75409 1.5332 7.71503 1.96289 7.89081 2.29492C8.09589 2.63672 8.52557 2.8418 9.02362 2.5293C10.0783 1.86523 11.3283 1.46484 12.676 1.46484ZM22.5881 6.5332C23.3693 7.64648 23.7502 8.90625 23.8088 10.1367C23.8381 10.6836 24.1994 10.9473 24.5803 10.9375C24.9709 10.9375 25.3615 10.6445 25.3517 10.166C25.3127 8.58398 24.7365 7.06055 23.799 5.69336C22.8517 4.33594 21.592 3.28125 20.1369 2.70508C19.7463 2.55859 19.4045 2.73438 19.2287 3.00781C18.9943 3.36914 19.0334 3.91602 19.6291 4.16016C20.7717 4.63867 21.8264 5.42969 22.5881 6.5332Z" fill="var(--color-secondary)"/>
  <path d="M5.58612 8.50586C5.92792 8.00781 6.35761 7.62695 6.90448 7.34375C7.45136 7.05078 7.51972 6.60156 7.3244 6.26953C7.14862 5.94727 6.7287 5.76172 6.30878 5.98633C5.62518 6.33789 4.90253 6.9043 4.35565 7.66602C3.83807 8.42773 3.54511 9.30664 3.44745 10.0781C3.38886 10.459 3.61347 10.7617 3.89667 10.8789C4.30682 11.0449 4.8244 10.8691 4.93182 10.166C5.00018 9.55078 5.21503 9.01367 5.58612 8.50586ZM12.676 4.90234C13.2912 4.90234 13.8576 5.0293 14.3947 5.33203C14.9514 5.5957 15.3517 5.39062 15.5178 5.04883C15.6838 4.7168 15.5861 4.26758 15.176 4.05273C14.4924 3.69141 13.6037 3.42773 12.676 3.42773C11.7482 3.42773 10.8596 3.69141 10.176 4.05273C9.76581 4.26758 9.66815 4.7168 9.83417 5.04883C10.0002 5.39062 10.4006 5.60547 10.9572 5.33203C11.4943 5.0293 12.0607 4.90234 12.676 4.90234ZM19.7658 8.50586C20.1369 9.01367 20.3517 9.55078 20.4201 10.166C20.5275 10.8691 21.0451 11.0449 21.4553 10.8789C21.7385 10.7617 21.9631 10.459 21.9045 10.0781C21.8068 9.30664 21.5139 8.42773 20.9963 7.66602C20.4396 6.9043 19.7267 6.33789 19.0432 5.98633C18.6232 5.76172 18.2033 5.94727 18.0275 6.26953C17.8322 6.60156 17.9006 7.05078 18.4474 7.34375C18.9943 7.62695 19.424 8.00781 19.7658 8.50586Z" fill="var(--color-secondary)"/>
  <path d="M7.24628 19.2676L18.1154 19.2676L18.1154 11.4258C18.1154 9.19922 16.0549 7.88086 12.676 7.88086C9.29706 7.88086 7.24628 9.19922 7.24628 11.4258ZM12.676 15.918C11.9924 15.918 10.8596 15.9766 10.4689 15.9766C9.87323 15.9766 9.59979 15.7227 9.5412 15.0879L9.41425 13.6816C9.30682 12.5195 10.0783 12.0801 12.676 12.0801C15.2736 12.0801 16.0451 12.5195 15.9474 13.6816L15.8205 15.0879C15.7717 15.7227 15.4982 15.9766 14.883 15.9766C14.5021 15.9766 13.4084 15.918 12.676 15.918ZM8.07636 15.5762L8.07636 13.5449L6.82636 13.5449C6.34784 13.5449 5.96698 13.9062 5.96698 14.375L5.96698 14.7461C5.96698 15.2051 6.34784 15.5762 6.82636 15.5762ZM17.2756 15.5762L18.5256 15.5762C19.0139 15.5762 19.3849 15.2051 19.3849 14.7461L19.3849 14.375C19.3849 13.9062 19.0139 13.5449 18.5256 13.5449L17.2756 13.5449Z" fill="var(--color-primary)"/>
 </g>
</svg>
