<?xml version="1.0" encoding="UTF-8"?>
<!--Generator: Apple Native CoreSVG 341-->
<!DOCTYPE svg
PUBLIC "-//W3C//DTD SVG 1.1//EN"
       "http://www.w3.org/Graphics/SVG/1.1/DTD/svg11.dtd">
<svg version="1.1" xmlns="http://www.w3.org/2000/svg" xmlns:xlink="http://www.w3.org/1999/xlink" viewBox="0 0 24.9439 31.6504">
 <g>
  <rect height="31.6504" opacity="0" width="24.9439" x="0" y="0"/>
  <path d="M1.36844 22.8809C2.65509 24.835 4.32507 26.3172 6.18917 27.3139C6.0402 27.4628 5.91275 27.6399 5.8118 27.8418C5.67948 28.1088 5.60786 28.3868 5.59366 28.6613C3.46925 27.5526 1.56086 25.8847 0.12821 23.6621C-0.115931 23.2617 0.00125644 22.832 0.37235 22.6172C0.733678 22.4121 1.14383 22.5195 1.36844 22.8809ZM24.2102 22.6172C24.5813 22.832 24.6985 23.2617 24.4544 23.6621C23.022 25.8843 21.114 27.552 18.9889 28.6607C18.9746 28.3864 18.903 28.1086 18.7708 27.8418C18.6696 27.6395 18.5419 27.4621 18.3925 27.313C20.256 26.3164 21.9229 24.8345 23.2044 22.8809C23.4388 22.5195 23.8489 22.4121 24.2102 22.6172Z" fill="white" fill-opacity="0.2125"/>
  <path d="M4.23954 21.0352C5.17096 22.3929 6.36406 23.423 7.67844 24.1267C7.54802 24.2639 7.4355 24.4225 7.34501 24.5996C7.20159 24.8864 7.12779 25.1862 7.11755 25.4806C5.48475 24.6257 4.06799 23.3728 3.0286 21.8262C2.75516 21.4453 2.88212 20.9863 3.26298 20.7812C3.6243 20.5762 4.01493 20.6934 4.23954 21.0352ZM21.3196 20.7812C21.7005 20.9863 21.8274 21.4453 21.554 21.8262C20.5149 23.3724 19.0986 24.6251 17.465 25.48C17.4547 25.1857 17.3809 24.8862 17.2376 24.5996C17.147 24.4223 17.0344 24.2636 16.9038 24.1263C18.2189 23.4227 19.4118 22.3927 20.3431 21.0352C20.5677 20.6934 20.9583 20.5762 21.3196 20.7812Z" fill="white" fill-opacity="0.2125"/>
  <path d="M12.2864 30.3125C13.9954 30.3125 15.636 30.0098 17.1399 29.4727C17.6087 29.2969 17.7845 28.8477 17.5794 28.4375C17.3938 28.0762 17.0227 27.959 16.6614 28.0957C15.2942 28.5742 13.8196 28.8477 12.2864 28.8477C10.763 28.8477 9.28837 28.5742 7.92118 28.0957C7.55985 27.959 7.18876 28.0762 7.00321 28.4375C6.79813 28.8477 6.97391 29.2969 7.44266 29.4727C8.94657 30.0098 10.5872 30.3125 12.2864 30.3125Z" fill="white" fill-opacity="0.425"/>
  <path d="M12.2864 26.7676C13.4485 26.7676 14.552 26.582 15.597 26.2598C16.0755 26.123 16.261 25.6348 16.0462 25.2051C15.8802 24.8828 15.5286 24.7559 15.1673 24.8633C14.2688 25.1465 13.302 25.3027 12.2864 25.3027C11.2806 25.3027 10.3138 25.1465 9.41532 24.8633C9.05399 24.7559 8.70243 24.8828 8.53641 25.2051C8.32157 25.6348 8.50712 26.123 8.98563 26.2598C10.0306 26.582 11.1341 26.7676 12.2864 26.7676Z" fill="white" fill-opacity="0.425"/>
  <path d="M12.2864 21.8848C16.0462 21.8848 17.7259 21.0352 17.7259 18.877L17.7259 10.3516L18.1458 10.3516C18.6243 10.3516 19.0052 9.98047 19.0052 9.52148L19.0052 9.15039C19.0052 8.68164 18.6243 8.32031 18.1458 8.32031L17.7259 8.32031L17.7259 6.20117C17.7259 3.96484 15.6751 2.65625 12.2864 2.65625C8.91727 2.65625 6.85673 3.96484 6.85673 6.20117L6.85673 8.32031L6.44657 8.32031C5.95829 8.32031 5.57743 8.68164 5.57743 9.15039L5.57743 9.52148C5.57743 9.98047 5.95829 10.3516 6.44657 10.3516L6.85673 10.3516L6.85673 18.877C6.85673 21.0352 8.53641 21.8848 12.2864 21.8848ZM12.2864 10.6836C11.6126 10.6836 10.47 10.752 10.0891 10.752C9.48368 10.752 9.21024 10.498 9.16141 9.86328L9.02469 8.45703C8.92704 7.29492 9.69852 6.85547 12.2864 6.85547C14.8938 6.85547 15.6556 7.29492 15.5579 8.45703L15.4407 9.86328C15.3724 10.498 15.1087 10.752 14.5032 10.752C14.1126 10.752 13.0188 10.6836 12.2864 10.6836ZM12.2864 18.7695C9.69852 18.7695 8.87821 18.3789 9.05399 17.1875L9.17118 16.5039C9.31766 15.5371 10.0501 15.2441 12.2864 15.2441C14.5325 15.2441 15.2747 15.5371 15.4309 16.5039L15.5286 17.1875C15.7141 18.3789 14.8938 18.7695 12.2864 18.7695Z" fill="white" fill-opacity="0.85"/>
 </g>
</svg>
