<?xml version="1.0" encoding="UTF-8"?>
<!--Generator: Apple Native CoreSVG 341-->
<!DOCTYPE svg
PUBLIC "-//W3C//DTD SVG 1.1//EN"
       "http://www.w3.org/Graphics/SVG/1.1/DTD/svg11.dtd">
<svg version="1.1" xmlns="http://www.w3.org/2000/svg" xmlns:xlink="http://www.w3.org/1999/xlink" viewBox="0 0 18.0566 25.2246">
 <g>
  <rect height="25.2246" opacity="0" width="18.0566" x="0" y="0"/>
  <path d="M0.820312 20.5566C1.32812 20.5566 1.64062 20.2441 1.64062 19.7266L1.64062 11.2793C1.64062 10.7617 1.32812 10.4492 0.820312 10.4492C0.322266 10.4492 0 10.7617 0 11.2695L0 19.7363C0 20.2441 0.322266 20.5566 0.820312 20.5566ZM0.820312 13.7305L4.26758 13.7305L4.26758 12.4512L0.820312 12.4512ZM10.6641 25.2148C15.5957 25.2148 17.6953 24.1309 17.6953 21.4746L17.6953 4.52148C17.6953 1.66992 15.1074 0 10.6641 0C6.2207 0 3.63281 1.66992 3.63281 4.52148L3.63281 21.4746C3.63281 24.1309 5.73242 25.2148 10.6641 25.2148ZM10.6641 10.4004C9.70703 10.4004 8.24219 10.4688 7.73438 10.4688C6.97266 10.4688 6.65039 10.1758 6.57227 9.39453L6.40625 7.5C6.2793 6.04492 7.30469 5.45898 10.6641 5.45898C14.0234 5.45898 15.0586 6.04492 14.9219 7.5L14.7559 9.39453C14.6875 10.1758 14.3555 10.4688 13.6035 10.4688C13.0859 10.4688 11.5723 10.4004 10.6641 10.4004ZM10.6641 21.1523C7.27539 21.1523 6.24023 20.6445 6.45508 19.1602L6.58203 18.2422C6.74805 17.041 7.75391 16.6309 10.6641 16.6309C13.584 16.6309 14.5898 17.041 14.7559 18.2422L14.8828 19.1602C15.0879 20.6445 14.0625 21.1523 10.6641 21.1523Z" fill="white" fill-opacity="0.85"/>
 </g>
</svg>
