<?xml version="1.0" encoding="UTF-8"?>
<!--Generator: Apple Native CoreSVG 341-->
<!DOCTYPE svg
PUBLIC "-//W3C//DTD SVG 1.1//EN"
       "http://www.w3.org/Graphics/SVG/1.1/DTD/svg11.dtd">
<svg version="1.1" xmlns="http://www.w3.org/2000/svg" xmlns:xlink="http://www.w3.org/1999/xlink" viewBox="0 0 35.1562 15.8301">
 <g>
  <rect height="15.8301" opacity="0" width="35.1562" x="0" y="0"/>
  <path d="M10.6348 12.7832C10.6348 14.4238 9.3457 15.7129 7.69531 15.7129C6.05469 15.7129 4.76562 14.4238 4.76562 12.7832C4.76562 11.1426 6.05469 9.85352 7.69531 9.85352C9.3457 9.85352 10.6348 11.1426 10.6348 12.7832ZM30.0293 12.7832C30.0293 14.4238 28.7402 15.7129 27.0898 15.7129C25.4492 15.7129 24.1602 14.4238 24.1602 12.7832C24.1602 11.1426 25.4492 9.85352 27.0898 9.85352C28.7402 9.85352 30.0293 11.1426 30.0293 12.7832ZM30.5078 3.64258L32.0605 4.16016C33.916 4.76562 34.7949 5.89844 34.7949 7.71484L34.7949 10.4199C34.7949 12.6855 33.8281 13.7012 31.6895 13.7012L31.0645 13.7012C31.1328 13.3984 31.1719 13.0957 31.1719 12.7832C31.1719 10.5078 29.375 8.7207 27.0898 8.7207C24.8145 8.7207 23.0176 10.5078 23.0176 12.7832C23.0176 13.0957 23.0566 13.3984 23.1152 13.7012L11.6602 13.7012C11.7285 13.3984 11.7676 13.0957 11.7676 12.7832C11.7676 10.5078 9.98047 8.7207 7.69531 8.7207C5.41016 8.7207 3.62305 10.5078 3.62305 12.7832C3.62305 13.0957 3.66211 13.3984 3.7207 13.7012L3.10547 13.7012C0.986328 13.7012 0 12.7051 0 10.4785L0 9.22852C0 6.92383 1.63086 5.24414 4.33594 4.91211L8.66211 4.38477L12.6172 1.9043C15.0098 0.400391 16.6895 0 20.6738 0L22.1582 0C25.8203 0 28.5352 1.96289 30.5078 3.64258ZM15.4883 3.79883C13.623 3.79883 12.373 4.9707 12.373 6.68945C12.373 8.38867 13.623 9.54102 15.4785 9.54102L19.4922 9.54102L19.4922 10.4492C19.4922 11.0254 19.9023 11.2207 20.3906 10.9082L22.7344 9.36523C23.1152 9.13086 23.1348 8.65234 22.7344 8.38867L20.4102 6.8457C19.9023 6.51367 19.4922 6.71875 19.4922 7.29492L19.4922 8.17383L15.4785 8.17383C14.4531 8.17383 13.7793 7.60742 13.7793 6.76758C13.7793 5.82031 14.4727 5.17578 15.4883 5.17578L21.3672 5.17578C21.7871 5.17578 22.0801 4.90234 22.0801 4.50195C22.0801 4.10156 21.7871 3.79883 21.3574 3.79883Z" fill="white" fill-opacity="0.85"/>
 </g>
</svg>
