<?xml version="1.0" encoding="UTF-8"?>
<!--Generator: Apple Native CoreSVG 341-->
<!DOCTYPE svg
PUBLIC "-//W3C//DTD SVG 1.1//EN"
       "http://www.w3.org/Graphics/SVG/1.1/DTD/svg11.dtd">
<svg version="1.1" xmlns="http://www.w3.org/2000/svg" xmlns:xlink="http://www.w3.org/1999/xlink" viewBox="0 0 28.2227 25.2246">
 <g>
  <rect height="25.2246" opacity="0" width="28.2227" x="0" y="0"/>
  <path d="M13.9258 25.2148C18.8574 25.2148 20.957 24.1309 20.957 21.4746L20.957 4.52148C20.957 1.66992 18.3691 0 13.9258 0C9.49219 0 6.89453 1.66992 6.89453 4.52148L6.89453 21.4746C6.89453 24.1309 9.00391 25.2148 13.9258 25.2148ZM13.9258 23.5938C10.1562 23.5938 8.52539 22.959 8.52539 21.3965L8.52539 4.52148C8.52539 2.69531 10.5176 1.63086 13.9258 1.63086C17.3438 1.63086 19.3262 2.69531 19.3262 4.52148L19.3262 21.3965C19.3262 22.959 17.7051 23.5938 13.9258 23.5938ZM13.9258 10.4883C14.8047 10.4883 16.2793 10.5566 16.7773 10.5566C17.5098 10.5566 17.832 10.2734 17.9004 9.51172L18.0566 7.67578C18.1836 6.26953 17.1973 5.70312 13.9258 5.70312C10.6641 5.70312 9.67773 6.26953 9.80469 7.67578L9.96094 9.51172C10.0293 10.2734 10.3418 10.5566 11.084 10.5566C11.5723 10.5566 13.0078 10.4883 13.9258 10.4883ZM13.9258 20.9082C17.2168 20.9082 18.2227 20.4199 18.0176 18.9844L17.8906 18.0957C17.7344 16.9238 16.7578 16.5332 13.9258 16.5332C11.1035 16.5332 10.127 16.9238 9.9707 18.0957L9.84375 18.9844C9.63867 20.4199 10.6445 20.9082 13.9258 20.9082ZM7.56836 9.84375L7.56836 7.55859L6.10352 7.55859C5.57617 7.55859 5.17578 7.94922 5.17578 8.45703L5.17578 8.93555C5.17578 9.44336 5.57617 9.84375 6.10352 9.84375ZM20.293 9.84375L21.7578 9.84375C22.2852 9.84375 22.6855 9.44336 22.6855 8.93555L22.6855 8.45703C22.6855 7.94922 22.2852 7.55859 21.7578 7.55859L20.293 7.55859Z" fill="white" fill-opacity="0.425"/>
  <path d="M0 19.4824C0 20.0098 0.419922 20.2344 0.878906 19.9512L4.3457 17.8418C4.79492 17.5684 4.78516 17.0508 4.3457 16.7773L0.878906 14.6484C0.419922 14.3652 0 14.6094 0 15.127Z" fill="white" fill-opacity="0.85"/>
 </g>
</svg>
