<?xml version="1.0" encoding="UTF-8"?>
<!--Generator: Apple Native CoreSVG 341-->
<!DOCTYPE svg
PUBLIC "-//W3C//DTD SVG 1.1//EN"
       "http://www.w3.org/Graphics/SVG/1.1/DTD/svg11.dtd">
<svg version="1.1" xmlns="http://www.w3.org/2000/svg" xmlns:xlink="http://www.w3.org/1999/xlink" viewBox="0 0 20.8301 18.6621">
 <g>
  <rect height="18.6621" opacity="0" width="20.8301" x="0" y="0"/>
  <path d="M2.66602 18.5547L17.8027 18.5547C19.4629 18.5547 20.4688 17.4023 20.4688 15.9082C20.4688 15.4492 20.332 14.9707 20.0879 14.541L12.5098 1.33789C12.002 0.449219 11.1328 0 10.2344 0C9.33594 0 8.45703 0.449219 7.95898 1.33789L0.380859 14.541C0.117188 14.9805 0 15.4492 0 15.9082C0 17.4023 1.00586 18.5547 2.66602 18.5547Z" fill="white" fill-opacity="0.2125"/>
  <path d="M4.99023 15.3125L4.99023 12.373C4.99023 11.6211 5.07812 11.1719 5.55664 10.6738L5.99609 10.1953L6.45508 8.85742C6.70898 8.13477 7.20703 7.83203 7.82227 7.75391C8.10547 7.71484 9.07227 7.69531 10.2246 7.69531C11.3672 7.69531 12.3438 7.71484 12.627 7.75391C13.2324 7.83203 13.7305 8.13477 13.9844 8.85742L14.4531 10.1953L14.8926 10.6738C15.3613 11.1719 15.4492 11.6211 15.4492 12.373L15.4492 15.3125C15.4492 15.6348 15.2051 15.8887 14.8633 15.8887L14.3457 15.8887C14.0137 15.8887 13.7598 15.6348 13.7598 15.3125L13.7598 14.668L6.67969 14.668L6.67969 15.3125C6.67969 15.6348 6.42578 15.8887 6.09375 15.8887L5.58594 15.8887C5.24414 15.8887 4.99023 15.6348 4.99023 15.3125ZM7.20703 10.2148L13.2422 10.2148C13.457 10.2148 13.5156 10.0586 13.457 9.86328L13.1836 9.0332C13.0762 8.73047 12.9102 8.62305 12.6465 8.58398C12.334 8.55469 11.4941 8.51562 10.2246 8.51562C8.95508 8.51562 8.0957 8.55469 7.79297 8.58398C7.5293 8.62305 7.35352 8.73047 7.26562 9.0332L6.99219 9.86328C6.92383 10.0586 6.99219 10.2148 7.20703 10.2148ZM6.60156 12.9785C6.85547 12.9785 7.06055 12.7832 7.06055 12.5L7.06055 11.8164C7.06055 11.543 6.85547 11.3477 6.60156 11.3477C6.31836 11.3477 6.11328 11.5527 6.11328 11.8164L6.11328 12.5C6.11328 12.7832 6.31836 12.9785 6.60156 12.9785ZM9.20898 12.7637L11.2109 12.7637C11.4355 12.7637 11.5723 12.627 11.5723 12.3926L11.5723 11.9336C11.5723 11.709 11.4355 11.5625 11.2109 11.5625L9.20898 11.5625C8.99414 11.5625 8.85742 11.709 8.85742 11.9336L8.85742 12.3926C8.85742 12.627 8.99414 12.7637 9.20898 12.7637ZM13.8965 12.9785C14.1699 12.9785 14.375 12.7832 14.375 12.5L14.375 11.8164C14.375 11.543 14.1699 11.3477 13.8965 11.3477C13.6328 11.3477 13.4375 11.5527 13.4375 11.8164L13.4375 12.5C13.4375 12.7832 13.6328 12.9785 13.8965 12.9785Z" fill="white" fill-opacity="0.85"/>
 </g>
</svg>
