<?xml version="1.0" encoding="UTF-8"?>
<!--Generator: Apple Native CoreSVG 341-->
<!DOCTYPE svg
PUBLIC "-//W3C//DTD SVG 1.1//EN"
       "http://www.w3.org/Graphics/SVG/1.1/DTD/svg11.dtd">
<svg version="1.1" xmlns="http://www.w3.org/2000/svg" xmlns:xlink="http://www.w3.org/1999/xlink" viewBox="0 0 28.2227 25.2246">
 <g>
  <rect height="25.2246" opacity="0" width="28.2227" x="0" y="0"/>
  <path d="M13.9258 25.2148C18.8574 25.2148 20.957 24.1309 20.957 21.4746L20.957 4.52148C20.957 1.66992 18.3691 0 13.9258 0C9.49219 0 6.89453 1.66992 6.89453 4.52148L6.89453 21.4746C6.89453 24.1309 9.00391 25.2148 13.9258 25.2148ZM13.9258 10.4004C12.9785 10.4004 11.5039 10.4688 10.9961 10.4688C10.2344 10.4688 9.91211 10.1758 9.83398 9.39453L9.67773 7.5C9.54102 6.04492 10.5664 5.45898 13.9258 5.45898C17.2949 5.45898 18.3203 6.04492 18.1836 7.5L18.0273 9.39453C17.9492 10.1758 17.6172 10.4688 16.8652 10.4688C16.3477 10.4688 14.834 10.4004 13.9258 10.4004ZM13.9258 21.1523C10.5371 21.1523 9.50195 20.6445 9.7168 19.1602L9.84375 18.2422C10.0098 17.041 11.0156 16.6309 13.9258 16.6309C16.8457 16.6309 17.8516 17.041 18.0176 18.2422L18.1445 19.1602C18.3594 20.6445 17.3242 21.1523 13.9258 21.1523ZM7.56836 9.84375L7.56836 7.55859L6.10352 7.55859C5.57617 7.55859 5.17578 7.94922 5.17578 8.45703L5.17578 8.93555C5.17578 9.44336 5.57617 9.84375 6.10352 9.84375ZM20.293 9.84375L21.7578 9.84375C22.2852 9.84375 22.6855 9.44336 22.6855 8.93555L22.6855 8.45703C22.6855 7.94922 22.2852 7.55859 21.7578 7.55859L20.293 7.55859Z" fill="white" fill-opacity="0.85"/>
  <path d="M0 7.67578C0 8.20312 0.419922 8.42773 0.878906 8.14453L4.3457 6.03516C4.79492 5.76172 4.78516 5.24414 4.3457 4.98047L0.878906 2.85156C0.419922 2.56836 0 2.8125 0 3.33008Z" fill="white" fill-opacity="0.85"/>
 </g>
</svg>
