<?xml version="1.0" encoding="UTF-8"?>
<!--Generator: Apple Native CoreSVG 341-->
<!DOCTYPE svg
PUBLIC "-//W3C//DTD SVG 1.1//EN"
       "http://www.w3.org/Graphics/SVG/1.1/DTD/svg11.dtd">
<svg version="1.1" xmlns="http://www.w3.org/2000/svg" xmlns:xlink="http://www.w3.org/1999/xlink" viewBox="0 0 36.4648 15.8301">
 <g>
  <rect height="15.8301" opacity="0" width="36.4648" x="0" y="0"/>
  <path d="M29.2676 3.69141L30.4004 4.60938L33.0859 1.875C33.3105 1.64062 33.5742 1.55273 33.8965 1.55273L35.3809 1.55273C35.8301 1.55273 36.1035 1.26953 36.1035 0.849609C36.1035 0.429688 35.8301 0.146484 35.3809 0.146484L34.0625 0.146484C33.2324 0.146484 32.5098 0.380859 31.9531 0.957031ZM3.10547 13.7012L4.50195 13.7012L4.50195 12.1289L3.10547 12.1289C2.05078 12.1289 1.57227 11.5918 1.57227 10.4199L1.57227 9.22852C1.57227 7.7832 2.64648 6.68945 4.53125 6.46484L8.4375 5.98633C9.02344 5.9082 9.42383 5.77148 9.83398 5.52734L13.457 3.24219C15.6152 1.89453 16.9824 1.57227 20.6738 1.57227L22.1582 1.57227C24.7168 1.57227 26.748 2.51953 29.2676 4.72656C29.7266 5.12695 29.9707 5.23438 30.5566 5.41992L31.5918 5.75195C32.7051 6.11328 33.2227 6.68945 33.2227 7.71484L33.2227 10.4199C33.2227 11.5918 32.7441 12.1289 31.6895 12.1289L30.2734 12.1289L30.2734 13.7012L31.6895 13.7012C33.8281 13.7012 34.7949 12.6855 34.7949 10.4199L34.7949 7.71484C34.7949 5.89844 33.916 4.76562 32.0605 4.16016L30.5078 3.64258C28.5352 1.93359 25.8203 0 22.1582 0L20.6738 0C16.6895 0 15.0098 0.400391 12.6172 1.9043L8.66211 4.38477L4.33594 4.91211C1.63086 5.24414 0 6.92383 0 9.22852L0 10.4785C0 12.7051 0.986328 13.7012 3.10547 13.7012ZM9.62891 13.7012L25.2832 13.7012L25.2832 12.1289L9.62891 12.1289ZM7.1875 15.8105C9.13086 15.8105 10.6543 14.2871 10.6543 12.3438C10.6543 10.3906 9.13086 8.86719 7.1875 8.86719C5.23438 8.86719 3.71094 10.3906 3.71094 12.3438C3.71094 14.2871 5.23438 15.8105 7.1875 15.8105ZM7.1875 14.3359C6.06445 14.3359 5.18555 13.457 5.18555 12.3438C5.18555 11.2207 6.06445 10.3418 7.1875 10.3418C8.30078 10.3418 9.17969 11.2207 9.17969 12.3438C9.17969 13.457 8.30078 14.3359 7.1875 14.3359ZM27.6074 15.8105C29.5605 15.8105 31.084 14.2871 31.084 12.3438C31.084 10.3906 29.5605 8.86719 27.6074 8.86719C25.6543 8.86719 24.1309 10.3906 24.1309 12.3438C24.1309 14.2871 25.6543 15.8105 27.6074 15.8105ZM27.6074 14.3359C26.4941 14.3359 25.6055 13.457 25.6055 12.3438C25.6055 11.2207 26.4941 10.3418 27.6074 10.3418C28.7207 10.3418 29.6094 11.2207 29.6094 12.3438C29.6094 13.457 28.7207 14.3359 27.6074 14.3359Z" fill="white" fill-opacity="0.85"/>
 </g>
</svg>
