<svg version="1.1" xmlns="http://www.w3.org/2000/svg" xmlns:xlink="http://www.w3.org/1999/xlink" viewBox="0 0 18.0566 25.2246">
 <g>
  <rect height="25.2246" opacity="0" width="18.0566" x="0" y="0"/>
  <path d="M16.875 20.5566C17.373 20.5566 17.6953 20.2441 17.6953 19.7363L17.6953 11.2695C17.6953 10.7617 17.373 10.4492 16.875 10.4492C16.377 10.4492 16.0547 10.7617 16.0547 11.2793L16.0547 19.7266C16.0547 20.2441 16.377 20.5566 16.875 20.5566ZM16.875 13.7305L16.875 12.4512L13.4277 12.4512L13.4277 13.7305ZM7.03125 25.2148C11.9629 25.2148 14.0625 24.1309 14.0625 21.4746L14.0625 4.52148C14.0625 1.66992 11.4746 0 7.03125 0C2.58789 0 0 1.66992 0 4.52148L0 21.4746C0 24.1309 2.09961 25.2148 7.03125 25.2148ZM7.03125 10.4004C6.07422 10.4004 4.60938 10.4688 4.10156 10.4688C3.33984 10.4688 3.00781 10.1758 2.93945 9.39453L2.77344 7.5C2.64648 6.04492 3.67188 5.45898 7.03125 5.45898C10.3906 5.45898 11.416 6.04492 11.2891 7.5L11.123 9.39453C11.0547 10.1758 10.7227 10.4688 9.9707 10.4688C9.45312 10.4688 7.92969 10.4004 7.03125 10.4004ZM7.03125 21.1523C3.64258 21.1523 2.60742 20.6445 2.82227 19.1602L2.93945 18.2422C3.11523 17.041 4.11133 16.6309 7.03125 16.6309C9.95117 16.6309 10.957 17.041 11.123 18.2422L11.2402 19.1602C11.4551 20.6445 10.4199 21.1523 7.03125 21.1523Z" fill="var(--color-primary)"/>
 </g>
</svg>
