<?xml version="1.0" encoding="UTF-8"?>
<!--Generator: Apple Native CoreSVG 341-->
<!DOCTYPE svg
PUBLIC "-//W3C//DTD SVG 1.1//EN"
       "http://www.w3.org/Graphics/SVG/1.1/DTD/svg11.dtd">
<svg version="1.1" xmlns="http://www.w3.org/2000/svg" xmlns:xlink="http://www.w3.org/1999/xlink" viewBox="0 0 22.998 25.8301">
 <g>
  <rect height="25.8301" opacity="0" width="22.998" x="0" y="0"/>
  <path d="M13.2129 25.8301L21.6406 25.8301L21.6406 20.9668C21.6406 19.2285 20.0391 18.2129 17.4316 18.2129C14.7949 18.2129 13.2129 19.2285 13.2129 20.9668ZM17.4316 24.4531C16.8555 24.4531 16.0156 24.4922 15.7129 24.4922C15.2344 24.4922 15.0195 24.2969 14.9805 23.7988L14.8828 22.7148C14.8145 21.8066 15.4004 21.4551 17.4316 21.4551C19.4434 21.4551 20.0293 21.8066 19.9512 22.7148L19.8633 23.7988C19.8242 24.2969 19.5996 24.4922 19.1309 24.4922C18.8379 24.4922 17.9492 24.4531 17.4316 24.4531ZM13.877 24.1895L13.877 22.5879L12.9004 22.5879C12.5098 22.5879 12.2266 22.8809 12.2266 23.252L12.2266 23.5352C12.2266 23.8965 12.5098 24.1895 12.9004 24.1895ZM20.9668 24.1895L21.9531 24.1895C22.3242 24.1895 22.6367 23.8965 22.6367 23.5352L22.6367 23.252C22.6367 22.8809 22.3242 22.5879 21.9531 22.5879L20.9668 22.5879Z" fill="white" fill-opacity="0.85"/>
  <path d="M12.8906 17.7246C14.0625 16.5527 14.6777 15.0781 14.7754 13.4766C14.8047 13.0469 14.5215 12.832 14.2285 12.832C13.8379 12.832 13.6426 13.0273 13.6035 13.5059C13.5254 14.7559 13.0176 15.957 12.0801 16.9043C11.1328 17.832 9.93164 18.3496 8.69141 18.418C8.25195 18.457 7.99805 18.6719 7.99805 19.0039C7.99805 19.3652 8.26172 19.6191 8.66211 19.6191C10.2539 19.6191 11.7285 18.8867 12.8906 17.7246Z" fill="white" fill-opacity="0.425"/>
  <path d="M11.0156 15.8398C11.6797 15.1758 12.0801 14.3555 12.1777 13.4375C12.2266 13.0176 11.9531 12.7441 11.6211 12.7539C11.2402 12.7539 11.0645 12.9395 10.9961 13.3594C10.9082 14.0039 10.6543 14.5508 10.1953 15.0293C9.72656 15.4883 9.18945 15.752 8.61328 15.8203C8.13477 15.8789 7.91992 16.123 7.91992 16.4355C7.91016 16.7676 8.16406 17.0117 8.52539 17.0117C9.16992 17.0117 10.2344 16.6211 11.0156 15.8398Z" fill="white" fill-opacity="0.425"/>
  <path d="M5.19531 14.9121C8.11523 14.9121 9.41406 14.248 9.41406 12.5684L9.41406 2.76367C9.41406 1.02539 7.82227 0.00976562 5.19531 0.00976562C2.57812 0.00976562 0.986328 1.02539 0.986328 2.76367L0.986328 12.5684C0.986328 14.248 2.28516 14.9121 5.19531 14.9121ZM5.19531 6.24023C4.63867 6.24023 3.79883 6.29883 3.49609 6.29883C3.02734 6.29883 2.8125 6.09375 2.76367 5.5957L2.66602 4.51172C2.57812 3.60352 3.17383 3.25195 5.19531 3.25195C7.2168 3.25195 7.82227 3.60352 7.73438 4.51172L7.64648 5.5957C7.60742 6.09375 7.39258 6.29883 6.91406 6.29883C6.61133 6.29883 5.72266 6.24023 5.19531 6.24023ZM5.19531 12.5C3.18359 12.5 2.5293 12.207 2.68555 11.2695L2.76367 10.7324C2.89062 9.98047 3.4668 9.74609 5.19531 9.74609C6.93359 9.74609 7.5293 9.98047 7.63672 10.7324L7.71484 11.2695C7.85156 12.207 7.2168 12.5 5.19531 12.5ZM1.65039 5.98633L1.65039 4.38477L0.673828 4.38477C0.292969 4.38477 0 4.67773 0 5.04883L0 5.33203C0 5.69336 0.292969 5.98633 0.673828 5.98633ZM8.75 5.98633L9.72656 5.98633C10.1074 5.98633 10.4102 5.69336 10.4102 5.33203L10.4102 5.04883C10.4102 4.67773 10.1074 4.38477 9.72656 4.38477L8.75 4.38477Z" fill="white" fill-opacity="0.85"/>
 </g>
</svg>
