<svg version="1.1" xmlns="http://www.w3.org/2000/svg" xmlns:xlink="http://www.w3.org/1999/xlink" viewBox="0 0 22.0898 25.498">
 <g>
  <rect height="25.498" opacity="0" width="22.0898" x="0" y="0"/>
  <path d="M10.8691 5.53711C11.25 5.53711 11.4648 5.32227 11.4746 4.91211L11.5918 0.712891C11.6016 0.302734 11.2793 0 10.8594 0C10.4297 0 10.127 0.292969 10.1367 0.703125L10.2344 4.91211C10.2441 5.3125 10.4688 5.53711 10.8691 5.53711ZM10.8691 8.125C11.3281 8.125 11.7188 7.76367 11.7188 7.29492C11.7188 6.83594 11.3281 6.47461 10.8691 6.47461C10.4004 6.47461 10.0098 6.8457 10.0098 7.29492C10.0098 7.75391 10.4102 8.125 10.8691 8.125ZM21.7285 8.0957L21.7285 6.75781C21.3965 6.92383 21.0547 7.10938 20.7031 7.34375L17.793 9.16992L14.6094 9.56055C12.627 9.80469 11.4258 11.0352 11.4258 12.7344L11.4258 13.6523C11.4258 15.2832 12.1484 16.0156 13.7109 16.0156L14.7363 16.0156L14.7363 14.8633L13.7109 14.8633C12.9297 14.8633 12.5781 14.4727 12.5781 13.6035L12.5781 12.7344C12.5781 11.6699 13.3691 10.8691 14.7559 10.6934L17.627 10.3516C18.0664 10.293 18.3496 10.1953 18.6523 10.0098L21.3184 8.33008C21.4551 8.24219 21.5918 8.16406 21.7285 8.0957ZM21.7285 16.0156L21.7285 14.8633L18.5156 14.8633L18.5156 16.0156ZM16.709 17.5781C18.1445 17.5781 19.2676 16.4551 19.2676 15.0195C19.2676 13.584 18.1445 12.4707 16.709 12.4707C15.2734 12.4707 14.1602 13.584 14.1602 15.0195C14.1602 16.4551 15.2734 17.5781 16.709 17.5781ZM16.709 16.4941C15.8887 16.4941 15.2344 15.8496 15.2344 15.0195C15.2344 14.1992 15.8887 13.5547 16.709 13.5547C17.5293 13.5547 18.1836 14.1992 18.1836 15.0195C18.1836 15.8496 17.5293 16.4941 16.709 16.4941ZM4.42383 17.5781C5.85938 17.5781 6.97266 16.4551 6.97266 15.0195C6.97266 13.584 5.85938 12.4707 4.42383 12.4707C2.98828 12.4707 1.86523 13.584 1.86523 15.0195C1.86523 16.4551 2.98828 17.5781 4.42383 17.5781ZM4.42383 16.4941C3.60352 16.4941 2.94922 15.8496 2.94922 15.0195C2.94922 14.1992 3.60352 13.5547 4.42383 13.5547C5.23438 13.5547 5.88867 14.1992 5.88867 15.0195C5.88867 15.8496 5.23438 16.4941 4.42383 16.4941ZM0 14.8633L0 16.0156L2.71484 16.0156L2.71484 14.8633ZM6.38672 16.0156L7.42188 16.0156C9.00391 16.0156 9.70703 15.2734 9.70703 13.6035L9.70703 11.6211C9.70703 10.2832 9.0625 9.43359 7.69531 9.00391L6.55273 8.63281C5.06836 7.34375 3.11523 5.94727 0.546875 5.94727L0 5.94727L0 7.10938L0.546875 7.10938C2.36328 7.10938 3.82812 7.83203 5.64453 9.42383C5.97656 9.7168 6.16211 9.79492 6.58203 9.92188L7.35352 10.1758C8.17383 10.4395 8.55469 10.8691 8.55469 11.6211L8.55469 13.6035C8.55469 14.4727 8.19336 14.8633 7.42188 14.8633L6.38672 14.8633Z" fill="var(--color-secondary)"/>
  <path d="M6.51367 24.9023C8.16406 24.9023 8.97461 23.6914 8.97461 22.0898C8.97461 20.4492 8.14453 19.248 6.51367 19.248C4.92188 19.248 4.05273 20.4199 4.05273 22.0898C4.05273 23.6621 4.85352 24.9023 6.51367 24.9023ZM6.51367 23.8672C5.63477 23.8672 5.32227 22.9395 5.32227 22.0898C5.32227 21.1621 5.66406 20.293 6.51367 20.293C7.42188 20.293 7.71484 21.2305 7.71484 22.0898C7.71484 23.0176 7.36328 23.8672 6.51367 23.8672ZM10.4883 24.8438C10.9277 24.8438 11.1035 24.5508 11.1035 24.209L11.1035 22.6953L12.6562 22.6953C12.9785 22.6953 13.1934 22.5195 13.1934 22.207C13.1934 21.8945 12.9883 21.709 12.6562 21.709L11.1035 21.709L11.1035 20.4199L12.8223 20.4199C13.1836 20.4199 13.3789 20.2344 13.3789 19.9023C13.3789 19.5703 13.1836 19.3848 12.8223 19.3848L10.4785 19.3848C10.1172 19.3848 9.86328 19.6191 9.86328 20.0293L9.86328 24.209C9.86328 24.5508 10.0488 24.8438 10.4883 24.8438ZM14.7754 24.8438C15.2246 24.8438 15.4004 24.5508 15.4004 24.209L15.4004 22.6953L16.9531 22.6953C17.2754 22.6953 17.4805 22.5195 17.4805 22.207C17.4805 21.8945 17.2852 21.709 16.9531 21.709L15.4004 21.709L15.4004 20.4199L17.1191 20.4199C17.4707 20.4199 17.666 20.2344 17.666 19.9023C17.666 19.5703 17.4707 19.3848 17.1191 19.3848L14.7656 19.3848C14.4043 19.3848 14.1504 19.6191 14.1504 20.0293L14.1504 24.209C14.1504 24.5508 14.3359 24.8438 14.7754 24.8438Z" fill="var(--color-primary)"/>
 </g>
</svg>
