<svg version="1.1" xmlns="http://www.w3.org/2000/svg" xmlns:xlink="http://www.w3.org/1999/xlink" viewBox="0 0 26.7738 20.1465">
 <g>
  <rect height="20.1465" opacity="0" width="26.7738" x="0" y="0"/>
  <path d="M0.740397 13.7207L1.94157 13.7207C2.49821 13.7207 2.77165 13.4473 2.93766 13.0566L7.98649 0.576172C8.11344 0.253906 7.96696 0 7.65446 0L7.04899 0C6.73649 0 6.53141 0.15625 6.38493 0.429688L0.105631 12.6953C-0.138509 13.1641 0.0275064 13.7207 0.740397 13.7207ZM24.4709 13.7207L25.6623 13.7207C26.3849 13.7207 26.5509 13.1641 26.3068 12.6953L20.0275 0.429688C19.881 0.15625 19.6759 0 19.3634 0L18.758 0C18.4357 0 18.2892 0.253906 18.4259 0.576172L23.4748 13.0566C23.6408 13.4473 23.9045 13.7207 24.4709 13.7207ZM7.38102 10.7031C7.38102 11.0645 7.65446 11.3379 8.02555 11.3379L8.60173 11.3379C8.96305 11.3379 9.24626 11.0645 9.24626 10.7031L9.24626 9.99023L17.0392 9.99023L17.0392 10.7031C17.0392 11.0645 17.3224 11.3379 17.6838 11.3379L18.2599 11.3379C18.6213 11.3379 18.9045 11.0645 18.9045 10.7031L18.9045 7.44141C18.9045 6.63086 18.797 6.13281 18.2892 5.57617L17.8009 5.04883L17.2931 3.58398C17.0099 2.7832 16.4728 2.45117 15.7892 2.37305C15.467 2.33398 14.4025 2.30469 13.1427 2.30469C11.883 2.30469 10.8185 2.33398 10.4865 2.37305C9.81266 2.45117 9.27555 2.7832 8.99235 3.58398L8.48454 5.04883L7.99626 5.57617C7.48844 6.13281 7.38102 6.63086 7.38102 7.44141ZM9.82243 5.07812C9.58805 5.07812 9.50993 4.91211 9.57829 4.69727L9.88102 3.78906C9.99821 3.44727 10.174 3.33984 10.467 3.30078C10.799 3.26172 11.7463 3.22266 13.1427 3.22266C14.5295 3.22266 15.4767 3.26172 15.8088 3.30078C16.1017 3.33984 16.2775 3.44727 16.3947 3.78906L16.6974 4.69727C16.7756 4.91211 16.6877 5.07812 16.4533 5.07812ZM9.1486 8.125C8.8361 8.125 8.62126 7.90039 8.62126 7.60742L8.62126 6.8457C8.62126 6.54297 8.8361 6.32812 9.1486 6.32812C9.44157 6.32812 9.66618 6.54297 9.66618 6.8457L9.66618 7.60742C9.66618 7.91016 9.44157 8.125 9.1486 8.125ZM12.0295 7.89062C11.7951 7.89062 11.6388 7.72461 11.6388 7.4707L11.6388 6.97266C11.6388 6.71875 11.7951 6.5625 12.0295 6.5625L14.2267 6.5625C14.4709 6.5625 14.6369 6.71875 14.6369 6.97266L14.6369 7.4707C14.6369 7.72461 14.4709 7.89062 14.2267 7.89062ZM17.1857 8.125C16.8927 8.125 16.6681 7.90039 16.6681 7.60742L16.6681 6.8457C16.6681 6.54297 16.8927 6.32812 17.1857 6.32812C17.4884 6.32812 17.7131 6.54297 17.7131 6.8457L17.7131 7.60742C17.7131 7.91016 17.4884 8.125 17.1857 8.125Z" fill="var(--color-secondary)"/>
  <path d="M8.63102 20.1465C10.2912 20.1465 11.1017 18.9355 11.1017 17.3242C11.1017 15.6836 10.2716 14.4922 8.63102 14.4922C7.04899 14.4922 6.17985 15.6543 6.17985 17.3242C6.17985 18.9062 6.97087 20.1465 8.63102 20.1465ZM8.63102 19.1113C7.75212 19.1113 7.44938 18.1836 7.44938 17.3242C7.44938 16.4062 7.79118 15.5371 8.63102 15.5371C9.53923 15.5371 9.83219 16.4648 9.83219 17.3242C9.83219 18.2617 9.4904 19.1113 8.63102 19.1113ZM12.6056 20.0879C13.0549 20.0879 13.2306 19.7949 13.2306 19.4531L13.2306 17.9395L14.7834 17.9395C15.1056 17.9395 15.3107 17.7637 15.3107 17.4512C15.3107 17.1387 15.1154 16.9531 14.7834 16.9531L13.2306 16.9531L13.2306 15.6641L14.9494 15.6641C15.3009 15.6641 15.4963 15.4785 15.4963 15.1465C15.4963 14.8145 15.3009 14.6191 14.9494 14.6191L12.5959 14.6191C12.2345 14.6191 11.9806 14.8633 11.9806 15.2734L11.9806 19.4531C11.9806 19.7949 12.1662 20.0879 12.6056 20.0879ZM16.9025 20.0879C17.342 20.0879 17.5177 19.7949 17.5177 19.4531L17.5177 17.9395L19.0705 17.9395C19.3927 17.9395 19.6076 17.7637 19.6076 17.4512C19.6076 17.1387 19.4025 16.9531 19.0705 16.9531L17.5177 16.9531L17.5177 15.6641L19.2365 15.6641C19.5978 15.6641 19.7931 15.4785 19.7931 15.1465C19.7931 14.8145 19.5978 14.6191 19.2365 14.6191L16.8927 14.6191C16.5314 14.6191 16.2775 14.8633 16.2775 15.2734L16.2775 19.4531C16.2775 19.7949 16.4631 20.0879 16.9025 20.0879Z" fill="var(--color-primary)"/>
 </g>
</svg>
