<?xml version="1.0" encoding="UTF-8"?>
<!--Generator: Apple Native CoreSVG 341-->
<!DOCTYPE svg
PUBLIC "-//W3C//DTD SVG 1.1//EN"
       "http://www.w3.org/Graphics/SVG/1.1/DTD/svg11.dtd">
<svg version="1.1" xmlns="http://www.w3.org/2000/svg" xmlns:xlink="http://www.w3.org/1999/xlink" viewBox="0 0 22.2806 20.6934">
 <g>
  <rect height="20.6934" opacity="0" width="22.2806" x="0" y="0"/>
  <path d="M0.163739 16.5234C1.02311 19.707 1.91179 20.6738 3.9235 20.6738L15.32 20.6738C16.7653 20.6738 17.7321 19.8926 18.0934 18.4277L21.7653 3.52539C22.361 1.09375 21.1501 0 19.7438 0C17.8786 0 15.8473 1.99219 16.9899 5.21484L17.2731 4.01367C14.3337 5.55664 12.9958 9.13086 13.5329 13.4961L13.8844 13.0078C11.8727 12.5879 9.24577 12.334 6.71647 12.334C1.49186 12.334-0.637042 13.6035 0.163739 16.5234Z" fill="white" fill-opacity="0.85"/>
  <path d="M1.20866 6.5332C1.20866 7.96875 2.51725 9.41406 3.72819 9.41406C4.84147 9.41406 5.39811 8.41797 6.07194 6.65039L6.31608 6.60156L6.31608 8.50586C6.31608 9.32617 6.74577 9.74609 7.53679 9.74609C8.96257 9.74609 10.4176 8.44727 10.4176 7.22656C10.4176 6.10352 9.41179 5.54688 7.64421 4.88281L7.59538 4.62891L9.49968 4.62891C10.32 4.62891 10.7399 4.20898 10.7399 3.41797C10.7399 1.98242 9.44108 0.527344 8.22038 0.527344C7.1071 0.527344 6.54069 1.54297 5.87663 3.32031L5.62272 3.34961L5.62272 1.44531C5.62272 0.634766 5.21257 0.205078 4.42155 0.205078C2.97624 0.205078 1.53093 1.51367 1.53093 2.72461C1.53093 3.84766 2.54655 4.4043 4.3239 5.06836L4.34343 5.32227L2.4489 5.32227C1.62858 5.32227 1.20866 5.75195 1.20866 6.5332ZM5.97429 5.95703C5.43718 5.95703 4.99772 5.51758 4.99772 4.9707C4.99772 4.43359 5.43718 3.99414 5.97429 3.99414C6.5114 3.99414 6.95085 4.43359 6.95085 4.9707C6.95085 5.51758 6.5114 5.95703 5.97429 5.95703Z" fill="white" fill-opacity="0.85"/>
 </g>
</svg>
