<?xml version="1.0" encoding="UTF-8"?>
<!--Generator: Apple Native CoreSVG 341-->
<!DOCTYPE svg
PUBLIC "-//W3C//DTD SVG 1.1//EN"
       "http://www.w3.org/Graphics/SVG/1.1/DTD/svg11.dtd">
<svg version="1.1" xmlns="http://www.w3.org/2000/svg" xmlns:xlink="http://www.w3.org/1999/xlink" viewBox="0 0 20.2832 19.9316">
 <g>
  <rect height="19.9316" opacity="0" width="20.2832" x="0" y="0"/>
  <path d="M9.96094 19.9219C15.459 19.9219 19.9219 15.459 19.9219 9.96094C19.9219 4.46289 15.459 0 9.96094 0C4.46289 0 0 4.46289 0 9.96094C0 15.459 4.46289 19.9219 9.96094 19.9219ZM9.96094 18.2617C5.37109 18.2617 1.66016 14.5508 1.66016 9.96094C1.66016 5.37109 5.37109 1.66016 9.96094 1.66016C14.5508 1.66016 18.2617 5.37109 18.2617 9.96094C18.2617 14.5508 14.5508 18.2617 9.96094 18.2617Z" fill="white" fill-opacity="0.85"/>
  <path d="M8.30078 13.2715L13.623 13.2715C13.9258 13.2715 14.1211 13.0664 14.1211 12.7539C14.1211 12.4512 13.9258 12.2363 13.623 12.2363L8.32031 12.2363C8.02734 12.2363 7.83203 12.0703 7.79297 11.7676L7.75391 11.3965L13.8477 11.3965C14.5801 11.3965 14.9414 10.957 15.0488 10.2441L15.4395 7.58789C15.459 7.53906 15.4688 7.45117 15.4688 7.41211C15.4688 7.16797 15.293 7.01172 15.0098 7.01172L7.10938 7.01172L7.02148 6.34766C6.96289 5.92773 6.62109 5.6543 6.17188 5.6543L4.51172 5.6543C4.20898 5.6543 4.00391 5.85938 4.00391 6.17188C4.00391 6.47461 4.20898 6.67969 4.51172 6.67969L6.03516 6.67969L6.80664 12.0801C6.91406 12.8613 7.42188 13.2715 8.30078 13.2715ZM8.45703 15.6641C8.95508 15.6641 9.33594 15.2734 9.33594 14.7949C9.33594 14.2969 8.95508 13.9062 8.45703 13.9062C7.97852 13.9062 7.58789 14.2969 7.58789 14.7949C7.58789 15.2734 7.97852 15.6641 8.45703 15.6641ZM12.832 15.6641C13.3203 15.6641 13.7109 15.2734 13.7109 14.7949C13.7109 14.2969 13.3203 13.9062 12.832 13.9062C12.3438 13.9062 11.9434 14.2969 11.9434 14.7949C11.9434 15.2734 12.3438 15.6641 12.832 15.6641Z" fill="white" fill-opacity="0.85"/>
 </g>
</svg>
