<?xml version="1.0" encoding="UTF-8"?>
<!--Generator: Apple Native CoreSVG 341-->
<!DOCTYPE svg
PUBLIC "-//W3C//DTD SVG 1.1//EN"
       "http://www.w3.org/Graphics/SVG/1.1/DTD/svg11.dtd">
<svg version="1.1" xmlns="http://www.w3.org/2000/svg" xmlns:xlink="http://www.w3.org/1999/xlink" viewBox="0 0 22.168 20.8496">
 <g>
  <rect height="20.8496" opacity="0" width="22.168" x="0" y="0"/>
  <path d="M1.29883 19.707L20.5078 19.707L20.5078 18.5547C20.5078 18.1641 20.2832 17.9297 19.8828 17.9297L19.2578 17.9297L19.2578 6.69922L20.1172 6.69922C20.6543 6.69922 20.9668 6.30859 20.9668 5.9082C20.9668 5.61523 20.8008 5.36133 20.4395 5.15625L12.0996 0.341797C11.709 0.117188 11.2988 0 10.8984 0C10.498 0 10.0781 0.117188 9.70703 0.341797L1.36719 5.15625C0.996094 5.36133 0.839844 5.61523 0.839844 5.9082C0.839844 6.30859 1.15234 6.69922 1.68945 6.69922L2.54883 6.69922L2.54883 17.9297L1.93359 17.9297C1.5332 17.9297 1.29883 18.1641 1.29883 18.5547ZM0.78125 20.8398L21.0156 20.8398C21.4453 20.8398 21.8066 20.4785 21.8066 20.0488C21.8066 19.6191 21.4453 19.2676 21.0156 19.2676L0.78125 19.2676C0.351562 19.2676 0 19.6191 0 20.0488C0 20.4785 0.351562 20.8398 0.78125 20.8398Z" fill="white" fill-opacity="0.2125"/>
  <path d="M10.8789 15.8105C10.6836 15.8105 10.5273 15.6543 10.5273 15.4688L10.5273 14.6094C8.78906 14.4434 7.63672 13.1641 7.63672 11.0938C7.63672 9.16016 8.70117 7.74414 10.5273 7.57812L10.5273 6.71875C10.5273 6.5332 10.6836 6.37695 10.8789 6.37695C11.0645 6.37695 11.2207 6.5332 11.2207 6.71875L11.2207 7.56836C12.002 7.63672 12.6953 7.92969 13.1836 8.39844C13.4961 8.71094 13.7695 9.15039 13.7695 9.53125C13.7695 9.85352 13.5547 10.0488 13.252 10.0488C13.0078 10.0488 12.8223 9.91211 12.7246 9.67773C12.4316 9.00391 11.9141 8.63281 11.2207 8.55469L11.2207 13.6328C11.9141 13.5449 12.4023 13.1738 12.7344 12.5098C12.832 12.3242 12.9688 12.1387 13.252 12.1387C13.5352 12.1387 13.7793 12.3242 13.7793 12.6465C13.7793 12.998 13.5254 13.4668 13.2031 13.7891C12.7148 14.2578 11.9922 14.5508 11.2207 14.6191L11.2207 15.4688C11.2207 15.6543 11.0645 15.8105 10.8789 15.8105ZM8.80859 11.0938C8.80859 12.4121 9.36523 13.4277 10.5273 13.6133L10.5273 8.57422C9.39453 8.75 8.80859 9.75586 8.80859 11.0938Z" fill="white" fill-opacity="0.85"/>
 </g>
</svg>
