<?xml version="1.0" encoding="UTF-8"?>
<!--Generator: Apple Native CoreSVG 341-->
<!DOCTYPE svg
PUBLIC "-//W3C//DTD SVG 1.1//EN"
       "http://www.w3.org/Graphics/SVG/1.1/DTD/svg11.dtd">
<svg version="1.1" xmlns="http://www.w3.org/2000/svg" xmlns:xlink="http://www.w3.org/1999/xlink" viewBox="0 0 30.5566 24.9512">
 <g>
  <rect height="24.9512" opacity="0" width="30.5566" x="0" y="0"/>
  <path d="M15.0977 5.46875C17.4805 5.46875 19.8828 3.84766 19.8828 1.76758C19.8828 1.12305 19.5312 0.683594 18.7012 0.429688C17.666 0.126953 16.3867 0 15.0977 0C13.8184 0 12.5391 0.126953 11.5039 0.429688C10.6738 0.683594 10.3223 1.12305 10.3223 1.76758C10.3223 3.84766 12.7148 5.46875 15.0977 5.46875ZM15.0977 4.18945C13.291 4.18945 11.8555 3.20312 11.6113 1.83594C11.6016 1.77734 11.6504 1.71875 11.7383 1.67969C12.7734 1.40625 13.9258 1.26953 15.0977 1.26953C16.2695 1.26953 17.4219 1.40625 18.4668 1.67969C18.5547 1.71875 18.6035 1.77734 18.5938 1.83594C18.3496 3.20312 16.9141 4.18945 15.0977 4.18945ZM14.4629 4.6875L14.4629 11.2012L15.7422 11.2012L15.7422 4.6875ZM2.08984 15.6348C3.24219 15.6348 4.17969 14.6875 4.17969 13.5352C4.17969 12.3828 3.25195 11.4453 2.08984 11.4453C0.947266 11.4453 0 12.3828 0 13.5352C0 14.6875 0.947266 15.6348 2.08984 15.6348ZM2.08984 14.5508C1.54297 14.5508 1.08398 14.0918 1.08398 13.5352C1.08398 12.9883 1.54297 12.5293 2.08984 12.5293C2.65625 12.5293 3.0957 12.9785 3.0957 13.5352C3.0957 14.0918 2.63672 14.5508 2.08984 14.5508ZM7.77344 15.6348C9.18945 15.6348 10.3516 14.4727 10.3516 13.0664C10.3516 11.6504 9.18945 10.4883 7.77344 10.4883C6.36719 10.4883 5.21484 11.6504 5.21484 13.0664C5.21484 14.4727 6.36719 15.6348 7.77344 15.6348ZM7.77344 14.3555C7.07031 14.3555 6.49414 13.7695 6.49414 13.0664C6.49414 12.3535 7.07031 11.7676 7.77344 11.7676C8.48633 11.7676 9.07227 12.3535 9.07227 13.0664C9.07227 13.7695 8.48633 14.3555 7.77344 14.3555ZM15.1074 17.9297C17.1289 17.9297 18.7598 16.2988 18.7598 14.2773C18.7598 12.2461 17.1289 10.6152 15.1074 10.6152C13.0762 10.6152 11.4453 12.2461 11.4453 14.2773C11.4453 16.2988 13.0762 17.9297 15.1074 17.9297ZM15.0977 16.6504C13.7793 16.6504 12.7246 15.5957 12.7246 14.2773C12.7246 12.9492 13.7793 11.8945 15.0977 11.8945C16.416 11.8945 17.4805 12.9492 17.4805 14.2773C17.4805 15.5957 16.416 16.6504 15.0977 16.6504ZM22.4219 15.6348C23.8281 15.6348 24.9805 14.4727 24.9805 13.0664C24.9805 11.6504 23.8281 10.4883 22.4219 10.4883C21.0059 10.4883 19.8438 11.6504 19.8438 13.0664C19.8438 14.4727 21.0059 15.6348 22.4219 15.6348ZM22.4219 14.3555C21.709 14.3555 21.123 13.7695 21.123 13.0664C21.123 12.3535 21.709 11.7676 22.4219 11.7676C23.125 11.7676 23.7012 12.3535 23.7012 13.0664C23.7012 13.7695 23.125 14.3555 22.4219 14.3555ZM28.1055 15.6348C29.248 15.6348 30.1953 14.6875 30.1953 13.5352C30.1953 12.3828 29.248 11.4453 28.1055 11.4453C26.9434 11.4453 26.0156 12.3828 26.0156 13.5352C26.0156 14.6875 26.9531 15.6348 28.1055 15.6348ZM28.1055 14.5508C27.5586 14.5508 27.0996 14.0918 27.0996 13.5352C27.0996 12.9785 27.5391 12.5293 28.1055 12.5293C28.6523 12.5293 29.1113 12.9883 29.1113 13.5352C29.1113 14.0918 28.6523 14.5508 28.1055 14.5508ZM15.1074 24.9316C16.5039 24.9316 17.6562 23.7891 17.6562 22.3828C17.6562 20.9766 16.5039 19.834 15.1074 19.834C13.7012 19.834 12.5488 20.9766 12.5488 22.3828C12.5488 23.7891 13.7012 24.9316 15.1074 24.9316ZM15.1074 23.6523C14.4043 23.6523 13.8281 23.0859 13.8281 22.3828C13.8281 21.6797 14.4043 21.1133 15.1074 21.1133C15.8008 21.1133 16.377 21.6797 16.377 22.3828C16.377 23.0859 15.8008 23.6523 15.1074 23.6523ZM2.95898 15L1.67969 15C1.72852 18.2227 6.19141 19.9707 8.64258 17.4023L7.94922 16.3379C6.33789 18.3496 3.00781 17.2168 2.95898 15ZM8.4082 15L7.12891 15C7.07031 18.3984 11.2305 19.9414 14.0918 17.3047L12.8711 16.6602C10.9082 18.1445 8.35938 17.1973 8.4082 15ZM21.7871 15C21.8359 17.1973 19.2871 18.1445 17.3242 16.6602L16.1035 17.3047C18.9648 19.9414 23.125 18.3984 23.0664 15ZM27.2363 15C27.1875 17.2168 23.8574 18.3496 22.2461 16.3379L21.5527 17.4023C24.0039 19.9707 28.4668 18.2227 28.5156 15ZM14.4629 17.2754L14.4629 20.6348L15.7422 20.6348L15.7422 17.2754Z" fill="white" fill-opacity="0.85"/>
 </g>
</svg>
