<?xml version="1.0" encoding="UTF-8"?>
<!--Generator: Apple Native CoreSVG 341-->
<!DOCTYPE svg
PUBLIC "-//W3C//DTD SVG 1.1//EN"
       "http://www.w3.org/Graphics/SVG/1.1/DTD/svg11.dtd">
<svg version="1.1" xmlns="http://www.w3.org/2000/svg" xmlns:xlink="http://www.w3.org/1999/xlink" viewBox="0 0 21.3574 18.1738">
 <g>
  <rect height="18.1738" opacity="0" width="21.3574" x="0" y="0"/>
  <path d="M5.93656 8.48896L1.57227 11.0207L1.57227 9.67601L5.44754 7.43443C5.48415 7.84305 5.66403 8.21147 5.93656 8.48896ZM18.113 7.80665L13.4904 10.575C13.4257 10.1696 13.2191 9.81288 12.9225 9.55654L17.466 6.83698C17.5627 7.23096 17.7961 7.57187 18.113 7.80665ZM10.9472 9.34663C10.6131 9.52974 10.3462 9.8194 10.1933 10.1703L8.32915 8.57307C8.61614 8.32054 8.81813 7.97425 8.88702 7.58288Z" fill="white" fill-opacity="0.85"/>
  <path d="M13.5156 10.8594C13.5156 11.8164 12.7441 12.5977 11.7871 12.5977C10.8301 12.5977 10.0488 11.8164 10.0488 10.8594C10.0488 9.90234 10.8301 9.13086 11.7871 9.13086C12.7441 9.13086 13.5156 9.90234 13.5156 10.8594Z" fill="white" fill-opacity="0.85"/>
  <path d="M8.91602 7.27539C8.91602 8.23242 8.13477 9.01367 7.17773 9.01367C6.2207 9.01367 5.43945 8.23242 5.43945 7.27539C5.43945 6.31836 6.2207 5.54688 7.17773 5.54688C8.13477 5.54688 8.91602 6.31836 8.91602 7.27539Z" fill="white" fill-opacity="0.85"/>
  <path d="M20.8887 6.41602C20.8887 7.37305 20.1074 8.1543 19.1504 8.1543C18.1934 8.1543 17.4121 7.37305 17.4121 6.41602C17.4121 5.45898 18.1934 4.67773 19.1504 4.67773C20.1074 4.67773 20.8887 5.45898 20.8887 6.41602Z" fill="white" fill-opacity="0.85"/>
  <path d="M0 17.4023C0 17.8711 0.3125 18.1738 0.78125 18.1738L20.2051 18.1738C20.6348 18.1738 20.9961 17.832 20.9961 17.3926C20.9961 16.9629 20.6348 16.6113 20.2051 16.6113L1.8457 16.6113C1.64062 16.6113 1.57227 16.543 1.57227 16.3379L1.57227 0.898438C1.57227 0.478516 1.2207 0.117188 0.791016 0.117188C0.351562 0.117188 0 0.478516 0 0.898438Z" fill="white" fill-opacity="0.425"/>
 </g>
</svg>
