<?xml version="1.0" encoding="UTF-8"?>
<!--Generator: Apple Native CoreSVG 341-->
<!DOCTYPE svg
PUBLIC "-//W3C//DTD SVG 1.1//EN"
       "http://www.w3.org/Graphics/SVG/1.1/DTD/svg11.dtd">
<svg version="1.1" xmlns="http://www.w3.org/2000/svg" xmlns:xlink="http://www.w3.org/1999/xlink" viewBox="0 0 20.2832 19.9316">
 <g>
  <rect height="19.9316" opacity="0" width="20.2832" x="0" y="0"/>
  <path d="M9.96094 19.9316C15.459 19.9316 19.9219 15.4688 19.9219 9.9707C19.9219 4.48242 15.459 0.00976562 9.96094 0.00976562C4.47266 0.00976562 0 4.48242 0 9.9707C0 15.4688 4.47266 19.9316 9.96094 19.9316Z" fill="white" fill-opacity="0.2125"/>
  <path d="M5.32227 14.5703C4.84375 14.5703 4.52148 14.2578 4.52148 13.7695L4.52148 5.66406C4.52148 5.36133 4.78516 5.09766 5.08789 5.09766C5.40039 5.09766 5.64453 5.36133 5.64453 5.66406L5.64453 8.71094L12.1582 8.71094L12.1582 7.67578C12.1582 7.32422 12.5195 7.16797 12.8613 7.36328L15.4297 8.89648C15.7129 9.0625 15.7129 9.47266 15.4199 9.63867L12.8711 11.1816C12.5391 11.377 12.1582 11.2109 12.1582 10.8594L12.1582 9.83398L5.64453 9.83398L5.64453 13.3203C5.64453 13.3984 5.69336 13.4473 5.77148 13.4473L14.9219 13.4473C15.2246 13.4473 15.4785 13.7012 15.4785 14.0137C15.4785 14.3164 15.2246 14.5703 14.9219 14.5703Z" fill="white" fill-opacity="0.85"/>
 </g>
</svg>
