<?xml version="1.0" encoding="UTF-8"?>
<!--Generator: Apple Native CoreSVG 341-->
<!DOCTYPE svg
PUBLIC "-//W3C//DTD SVG 1.1//EN"
       "http://www.w3.org/Graphics/SVG/1.1/DTD/svg11.dtd">
<svg version="1.1" xmlns="http://www.w3.org/2000/svg" xmlns:xlink="http://www.w3.org/1999/xlink" viewBox="0 0 19.5703 18.9941">
 <g>
  <rect height="18.9941" opacity="0" width="19.5703" x="0" y="0"/>
  <path d="M0.78125 18.9844C1.2207 18.9844 1.5625 18.623 1.5625 18.1934L1.5625 0.78125C1.5625 0.361328 1.2207 0 0.78125 0C0.351562 0 0 0.361328 0 0.78125L0 18.1934C0 18.623 0.351562 18.9844 0.78125 18.9844Z" fill="white" fill-opacity="0.425"/>
  <path d="M4.05273 18.7988L11.6797 18.7988C12.2168 18.7988 12.5488 18.4473 12.5488 17.8906L12.5488 15.9668C12.5488 15.4004 12.2168 15.0488 11.6797 15.0488L4.05273 15.0488C3.49609 15.0488 3.17383 15.4004 3.17383 15.9668L3.17383 17.8906C3.17383 18.4473 3.49609 18.7988 4.05273 18.7988Z" fill="white" fill-opacity="0.85"/>
  <path d="M4.05273 13.8379L16.1133 13.8379C16.6602 13.8379 16.9824 13.4961 16.9824 12.9297L16.9824 11.0059C16.9824 10.4395 16.6602 10.0977 16.1133 10.0977L4.05273 10.0977C3.49609 10.0977 3.17383 10.4395 3.17383 11.0059L3.17383 12.9297C3.17383 13.4961 3.49609 13.8379 4.05273 13.8379Z" fill="white" fill-opacity="0.85"/>
  <path d="M4.05273 8.88672L18.3496 8.88672C18.8867 8.88672 19.209 8.53516 19.209 7.96875L19.209 6.04492C19.209 5.48828 18.8867 5.13672 18.3496 5.13672L4.05273 5.13672C3.49609 5.13672 3.17383 5.48828 3.17383 6.04492L3.17383 7.96875C3.17383 8.53516 3.49609 8.88672 4.05273 8.88672Z" fill="white" fill-opacity="0.85"/>
  <path d="M4.05273 3.92578L13.8672 3.92578C14.3945 3.92578 14.7266 3.57422 14.7266 3.01758L14.7266 1.08398C14.7266 0.527344 14.3945 0.185547 13.8672 0.185547L4.05273 0.185547C3.49609 0.185547 3.17383 0.527344 3.17383 1.08398L3.17383 3.01758C3.17383 3.57422 3.49609 3.92578 4.05273 3.92578Z" fill="white" fill-opacity="0.85"/>
 </g>
</svg>
