<svg version="1.1" xmlns="http://www.w3.org/2000/svg" xmlns:xlink="http://www.w3.org/1999/xlink" viewBox="0 0 22.9492 20.3418">
 <g>
  <rect height="20.3418" opacity="0" width="22.9492" x="0" y="0"/>
  <path d="M11.2891 18.7891C17.8418 18.7891 22.5879 14.834 22.5879 9.39453C22.5879 3.94531 17.832 0 11.2891 0C4.74609 0 0 3.94531 0 9.39453C0 13.3105 2.14844 14.3652 2.14844 16.1133C2.14844 16.875 1.9043 17.373 1.31836 17.9199C0.878906 18.3105 1.11328 18.7891 1.75781 18.7891C3.10547 18.7891 4.48242 18.3496 5.48828 17.6172C7.17773 18.3887 9.14062 18.7891 11.2891 18.7891Z" fill="var(--color-tertiary)"/>
  <path d="M10.2539 14.2188C9.91211 14.2188 9.64844 14.082 9.38477 13.7402L6.93359 10.7324C6.78711 10.5371 6.70898 10.3223 6.70898 10.0977C6.70898 9.6582 7.04102 9.28711 7.49023 9.28711C7.76367 9.28711 7.98828 9.38477 8.22266 9.70703L10.2051 12.2656L14.3848 5.56641C14.5605 5.27344 14.8145 5.11719 15.0781 5.11719C15.5078 5.11719 15.8984 5.41016 15.8984 5.86914C15.8984 6.08398 15.7812 6.30859 15.6543 6.50391L11.0645 13.7402C10.8691 14.0527 10.5859 14.2188 10.2539 14.2188Z" fill="var(--color-primary)"/>
 </g>
</svg>
