<?xml version="1.0" encoding="UTF-8"?>
<!--Generator: Apple Native CoreSVG 341-->
<!DOCTYPE svg
PUBLIC "-//W3C//DTD SVG 1.1//EN"
       "http://www.w3.org/Graphics/SVG/1.1/DTD/svg11.dtd">
<svg version="1.1" xmlns="http://www.w3.org/2000/svg" xmlns:xlink="http://www.w3.org/1999/xlink" viewBox="0 0 21.8848 21.5723">
 <g>
  <rect height="21.5723" opacity="0" width="21.8848" x="0" y="0"/>
  <path d="M21.5234 5.78125L21.5234 13.2617C21.5234 16.123 19.9609 17.7246 17.0508 17.7246L10.4492 17.7246L6.92383 20.9473C6.46484 21.377 6.18164 21.5723 5.80078 21.5723C5.24414 21.5723 4.93164 21.1719 4.93164 20.5664L4.93164 17.7246L4.47266 17.7246C1.5625 17.7246 0 16.1328 0 13.2617L0 5.78125C0 2.91016 1.5625 1.30859 4.47266 1.30859L17.0508 1.30859C19.9609 1.30859 21.5234 2.91992 21.5234 5.78125ZM13.8086 5.63477L9.62891 12.334L7.64648 9.77539C7.41211 9.45312 7.1875 9.36523 6.91406 9.36523C6.46484 9.36523 6.13281 9.72656 6.13281 10.166C6.13281 10.3906 6.21094 10.6055 6.35742 10.8008L8.80859 13.8086C9.07227 14.1504 9.33594 14.2871 9.67773 14.2871C10.0098 14.2871 10.293 14.1309 10.4883 13.8086L15.0781 6.58203C15.2051 6.38672 15.332 6.15234 15.332 5.9375C15.332 5.47852 14.9316 5.18555 14.502 5.18555C14.2383 5.18555 13.9844 5.3418 13.8086 5.63477Z" fill="white" fill-opacity="0.85"/>
 </g>
</svg>
