<?xml version="1.0" encoding="UTF-8"?>
<!--Generator: Apple Native CoreSVG 341-->
<!DOCTYPE svg
PUBLIC "-//W3C//DTD SVG 1.1//EN"
       "http://www.w3.org/Graphics/SVG/1.1/DTD/svg11.dtd">
<svg version="1.1" xmlns="http://www.w3.org/2000/svg" xmlns:xlink="http://www.w3.org/1999/xlink" viewBox="0 0 18.3398 17.9785">
 <g>
  <rect height="17.9785" opacity="0" width="18.3398" x="0" y="0"/>
  <path d="M3.06641 17.9785L14.9121 17.9785C16.9629 17.9785 17.9785 16.9727 17.9785 14.9609L17.9785 3.02734C17.9785 1.01562 16.9629 0 14.9121 0L3.06641 0C1.02539 0 0 1.01562 0 3.02734L0 14.9609C0 16.9727 1.02539 17.9785 3.06641 17.9785ZM3.08594 16.4062C2.10938 16.4062 1.57227 15.8887 1.57227 14.873L1.57227 3.11523C1.57227 2.09961 2.10938 1.57227 3.08594 1.57227L14.8926 1.57227C15.8594 1.57227 16.4062 2.09961 16.4062 3.11523L16.4062 14.873C16.4062 15.8887 15.8594 16.4062 14.8926 16.4062Z" fill="white" fill-opacity="0.85"/>
  <path d="M7.92969 13.623C8.25195 13.623 8.52539 13.4668 8.7207 13.1641L13.1836 6.14258C13.3008 5.94727 13.418 5.73242 13.418 5.51758C13.418 5.07812 13.0273 4.79492 12.627 4.79492C12.373 4.79492 12.1289 4.95117 11.9434 5.23438L7.89062 11.7383L5.9668 9.24805C5.73242 8.93555 5.51758 8.85742 5.25391 8.85742C4.82422 8.85742 4.49219 9.19922 4.49219 9.62891C4.49219 9.84375 4.58008 10.0488 4.7168 10.2344L7.09961 13.1641C7.34375 13.4863 7.60742 13.623 7.92969 13.623Z" fill="white" fill-opacity="0.85"/>
 </g>
</svg>
