<?xml version="1.0" encoding="UTF-8"?>
<!--Generator: Apple Native CoreSVG 341-->
<!DOCTYPE svg
PUBLIC "-//W3C//DTD SVG 1.1//EN"
       "http://www.w3.org/Graphics/SVG/1.1/DTD/svg11.dtd">
<svg version="1.1" xmlns="http://www.w3.org/2000/svg" xmlns:xlink="http://www.w3.org/1999/xlink" viewBox="0 0 22.5124 22.1608">
 <g>
  <rect height="22.1608" opacity="0" width="22.5124" x="0" y="0"/>
  <path d="M1.09505 13.2337L8.91731 21.056C10.3626 22.5013 11.7884 22.5111 13.224 21.0853L21.0853 13.2142C22.5111 11.7884 22.5013 10.3529 21.056 8.90755L13.2435 1.09505C11.7982-0.350264 10.3724-0.369795 8.93685 1.06575L1.06575 8.92708C-0.369795 10.3626-0.350264 11.7884 1.09505 13.2337Z" fill="white" fill-opacity="0.2125"/>
  <path d="M9.98177 15.8509C9.63997 15.8509 9.3763 15.7142 9.11263 15.3724L6.67122 12.3646C6.51497 12.1693 6.43685 11.9544 6.43685 11.7298C6.43685 11.2904 6.76888 10.929 7.2181 10.929C7.49153 10.929 7.71614 11.0169 7.95052 11.3392L9.9427 13.8978L14.1126 7.19856C14.2884 6.9056 14.5423 6.74935 14.806 6.74935C15.2357 6.74935 15.6361 7.04231 15.6361 7.5013C15.6361 7.71614 15.5091 7.94075 15.3919 8.14583L10.7923 15.3724C10.597 15.6947 10.3138 15.8509 9.98177 15.8509Z" fill="white" fill-opacity="0.85"/>
 </g>
</svg>
