<?xml version="1.0" encoding="UTF-8"?>
<!--Generator: Apple Native CoreSVG 341-->
<!DOCTYPE svg
PUBLIC "-//W3C//DTD SVG 1.1//EN"
       "http://www.w3.org/Graphics/SVG/1.1/DTD/svg11.dtd">
<svg version="1.1" xmlns="http://www.w3.org/2000/svg" xmlns:xlink="http://www.w3.org/1999/xlink" viewBox="0 0 23.0762 20.459">
 <g>
  <rect height="20.459" opacity="0" width="23.0762" x="0" y="0"/>
  <path d="M11.3574 19.0137C17.9199 19.0137 22.7148 15.0098 22.7148 9.50195C22.7148 3.97461 17.9102 0 11.3574 0C4.79492 0 0 3.97461 0 9.50195C0 11.3281 0.537109 13.0273 1.47461 14.4043C1.93359 15.0879 2.09961 15.5664 2.09961 15.9668C2.09961 16.4844 1.94336 16.9043 1.49414 17.2949C0.722656 17.9492 1.12305 19.0137 2.13867 19.0137C3.35938 19.0137 4.7168 18.5938 5.72266 17.9004C7.37305 18.623 9.29688 19.0137 11.3574 19.0137ZM11.3574 17.4414C9.49219 17.4414 7.82227 17.0898 6.40625 16.4551C5.78125 16.1816 5.33203 16.2598 4.73633 16.6113C4.31641 16.875 3.82812 17.0996 3.33008 17.207C3.53516 16.8652 3.67188 16.4746 3.67188 15.9668C3.67188 15.2441 3.4082 14.4531 2.7832 13.5156C2.00195 12.3828 1.57227 11.0059 1.57227 9.50195C1.57227 4.92188 5.61523 1.57227 11.3574 1.57227C17.0996 1.57227 21.1426 4.92188 21.1426 9.50195C21.1426 14.082 17.0996 17.4414 11.3574 17.4414Z" fill="white" fill-opacity="0.85"/>
  <path d="M10.293 14.1406C10.6152 14.1406 10.8887 13.9746 11.0742 13.6816L15.5371 6.65039C15.6543 6.46484 15.7812 6.25 15.7812 6.03516C15.7812 5.5957 15.3906 5.3125 14.9805 5.3125C14.7266 5.3125 14.4824 5.45898 14.3066 5.75195L10.2441 12.2559L8.32031 9.76562C8.0957 9.45312 7.87109 9.36523 7.60742 9.36523C7.17773 9.36523 6.8457 9.7168 6.8457 10.1465C6.8457 10.3613 6.93359 10.5664 7.07031 10.752L9.45312 13.6816C9.70703 14.0039 9.96094 14.1406 10.293 14.1406Z" fill="white" fill-opacity="0.85"/>
 </g>
</svg>
