<?xml version="1.0" encoding="UTF-8"?>
<!--Generator: Apple Native CoreSVG 341-->
<!DOCTYPE svg
PUBLIC "-//W3C//DTD SVG 1.1//EN"
       "http://www.w3.org/Graphics/SVG/1.1/DTD/svg11.dtd">
<svg version="1.1" xmlns="http://www.w3.org/2000/svg" xmlns:xlink="http://www.w3.org/1999/xlink" viewBox="0 0 20.2832 19.9316">
 <g>
  <rect height="19.9316" opacity="0" width="20.2832" x="0" y="0"/>
  <path d="M9.96094 19.9219C15.459 19.9219 19.9219 15.4492 19.9219 9.96094C19.9219 4.46289 15.459 0 9.96094 0C4.47266 0 0 4.46289 0 9.96094C0 15.4492 4.47266 19.9219 9.96094 19.9219Z" fill="white" fill-opacity="0.2125"/>
  <path d="M11.8945 14.7949C11.6406 15.0391 11.1328 15.0195 10.8594 14.7656L6.79688 10.9277C6.24023 10.4199 6.24023 9.52148 6.79688 9.01367L10.8594 5.17578C11.1621 4.89258 11.6113 4.88281 11.8848 5.14648C12.1875 5.42969 12.1973 5.91797 11.9043 6.19141L7.89062 9.96094L11.9043 13.75C12.1875 14.0234 12.1973 14.4922 11.8945 14.7949Z" fill="white" fill-opacity="0.85"/>
 </g>
</svg>
