<svg version="1.1" xmlns="http://www.w3.org/2000/svg" xmlns:xlink="http://www.w3.org/1999/xlink" viewBox="0 0 17.3242 18.291">
 <g>
  <rect height="18.291" opacity="0" width="17.3242" x="0" y="0"/>
  <path d="M0.263672 16.748C0.0976562 16.9238 0 17.1387 0 17.3828C0 17.8906 0.380859 18.2812 0.888672 18.2812C1.14258 18.2812 1.36719 18.1836 1.52344 18.0176L9.00391 10.3809L7.95898 10.3809L15.4395 18.0176C15.6055 18.1836 15.8301 18.2812 16.0742 18.2812C16.582 18.2812 16.9629 17.8906 16.9629 17.3828C16.9629 17.1387 16.8652 16.9238 16.6992 16.748L9.14062 9.01367C8.97461 8.82812 8.73047 8.73047 8.48633 8.73047C8.23242 8.73047 8.00781 8.82812 7.82227 9.01367Z" fill="var(--color-primary)"/>
  <path d="M0.263672 8.01758C0.0976562 8.19336 0 8.4082 0 8.66211C0 9.16992 0.380859 9.55078 0.888672 9.55078C1.14258 9.55078 1.36719 9.45312 1.52344 9.29688L9.00391 1.65039L7.95898 1.65039L15.4395 9.29688C15.6055 9.45312 15.8301 9.55078 16.0742 9.55078C16.582 9.55078 16.9629 9.16992 16.9629 8.66211C16.9629 8.4082 16.8652 8.19336 16.6992 8.02734L9.14062 0.283203C8.96484 0.117188 8.73047 0 8.48633 0C8.23242 0 8.00781 0.0976562 7.82227 0.283203Z" fill="var(--color-primary)"/>
 </g>
</svg>
