<?xml version="1.0" encoding="UTF-8"?>
<!--Generator: Apple Native CoreSVG 341-->
<!DOCTYPE svg
PUBLIC "-//W3C//DTD SVG 1.1//EN"
       "http://www.w3.org/Graphics/SVG/1.1/DTD/svg11.dtd">
<svg version="1.1" xmlns="http://www.w3.org/2000/svg" xmlns:xlink="http://www.w3.org/1999/xlink" viewBox="0 0 24.0651 19.9316">
 <g>
  <rect height="19.9316" opacity="0" width="24.0651" x="0" y="0"/>
  <path d="M0.694677 8.07617C-0.00844799 8.07617-0.184229 8.55469 0.19663 9.10156L2.38413 12.207C2.7064 12.6562 3.17515 12.6465 3.48765 12.207L5.66538 9.0918C6.04624 8.55469 5.86069 8.07617 5.1771 8.07617ZM21.8177 9.96094C21.8177 4.46289 17.3548 0 11.8568 0C6.35874 0 1.90561 4.45312 1.89585 9.9707C1.90561 10.4297 2.26694 10.791 2.71616 10.791C3.17515 10.791 3.55601 10.4199 3.55601 9.96094C3.55601 5.37109 7.26694 1.66016 11.8568 1.66016C16.4466 1.66016 20.1576 5.37109 20.1576 9.96094C20.1576 14.5508 16.4466 18.2617 11.8568 18.2617C9.07358 18.2617 6.62241 16.8945 5.13804 14.8242C4.8353 14.4238 4.37632 14.2969 3.96616 14.541C3.57554 14.7852 3.45835 15.3418 3.79038 15.7715C5.60679 18.291 8.50718 19.9219 11.8568 19.9219C17.3548 19.9219 21.8177 15.459 21.8177 9.96094Z" fill="white" fill-opacity="0.425"/>
  <path d="M11.8568 14.541C12.1888 14.541 12.4232 14.3066 12.4232 13.9551L12.4232 10.7617L15.2064 6.2793C15.2943 6.13281 15.3236 6.06445 15.3236 5.89844C15.3236 5.5957 15.0697 5.39062 14.7572 5.39062C14.5521 5.39062 14.3763 5.49805 14.2494 5.70312L11.8861 9.72656L11.847 9.72656L9.47397 5.70312C9.35679 5.49805 9.2103 5.38086 8.9564 5.38086C8.63413 5.38086 8.38999 5.58594 8.38999 5.89844C8.38999 6.01562 8.42905 6.14258 8.51694 6.2793L11.2904 10.7617L11.2904 13.9551C11.2904 14.3066 11.5248 14.541 11.8568 14.541ZM9.05405 10.5371C9.05405 10.7227 9.20054 10.8691 9.38608 10.8691L14.3568 10.8691C14.5423 10.8691 14.6888 10.7227 14.6888 10.5371C14.6888 10.3418 14.5423 10.2051 14.3568 10.2051L9.38608 10.2051C9.20054 10.2051 9.05405 10.3418 9.05405 10.5371ZM9.05405 12.2266C9.05405 12.4121 9.20054 12.5586 9.38608 12.5586L14.3568 12.5586C14.5423 12.5586 14.6888 12.4121 14.6888 12.2266C14.6888 12.041 14.5423 11.8945 14.3568 11.8945L9.38608 11.8945C9.20054 11.8945 9.05405 12.041 9.05405 12.2266Z" fill="white" fill-opacity="0.85"/>
 </g>
</svg>
