<svg version="1.1" xmlns="http://www.w3.org/2000/svg" xmlns:xlink="http://www.w3.org/1999/xlink" viewBox="0 0 23.3887 17.998">
 <g>
  <rect height="17.998" opacity="0" width="23.3887" x="0" y="0"/>
  <path d="M3.06641 17.998L19.9609 17.998C22.0117 17.998 23.0273 16.9824 23.0273 14.9707L23.0273 3.04688C23.0273 1.03516 22.0117 0.0195312 19.9609 0.0195312L3.06641 0.0195312C1.02539 0.0195312 0 1.02539 0 3.04688L0 14.9707C0 16.9922 1.02539 17.998 3.06641 17.998Z" fill="var(--color-tertiary)"/>
  <path d="M11.5137 14.0039C8.75977 14.0039 6.51367 11.7676 6.51367 8.99414C6.51367 6.24023 8.75977 4.00391 11.5137 4.00391C14.2676 4.00391 16.5234 6.24023 16.5234 8.99414C16.5234 11.7676 14.2676 14.0039 11.5137 14.0039Z" fill="var(--color-primary)"/>
 </g>
</svg>
