<?xml version="1.0" encoding="UTF-8"?>
<!--Generator: Apple Native CoreSVG 341-->
<!DOCTYPE svg
PUBLIC "-//W3C//DTD SVG 1.1//EN"
       "http://www.w3.org/Graphics/SVG/1.1/DTD/svg11.dtd">
<svg version="1.1" xmlns="http://www.w3.org/2000/svg" xmlns:xlink="http://www.w3.org/1999/xlink" viewBox="0 0 23.3887 17.998">
 <g>
  <rect height="17.998" opacity="0" width="23.3887" x="0" y="0"/>
  <path d="M3.06641 17.998L19.9609 17.998C22.0117 17.998 23.0273 16.9824 23.0273 14.9707L23.0273 3.04688C23.0273 1.03516 22.0117 0.0195312 19.9609 0.0195312L3.06641 0.0195312C1.02539 0.0195312 0 1.02539 0 3.04688L0 14.9707C0 16.9922 1.02539 17.998 3.06641 17.998ZM3.08594 16.4258C2.10938 16.4258 1.57227 15.9082 1.57227 14.8926L1.57227 3.125C1.57227 2.10938 2.10938 1.5918 3.08594 1.5918L19.9414 1.5918C20.9082 1.5918 21.4551 2.10938 21.4551 3.125L21.4551 14.8926C21.4551 15.9082 20.9082 16.4258 19.9414 16.4258Z" fill="white" fill-opacity="0.425"/>
  <path d="M11.5137 13.8477C14.1797 13.8477 16.3672 11.6797 16.3672 8.99414C16.3672 6.32812 14.1797 4.16016 11.5137 4.16016C8.84766 4.16016 6.66992 6.32812 6.66992 8.99414C6.66992 11.6797 8.84766 13.8477 11.5137 13.8477Z" fill="white" fill-opacity="0.85"/>
 </g>
</svg>
