<svg version="1.1" xmlns="http://www.w3.org/2000/svg" xmlns:xlink="http://www.w3.org/1999/xlink" viewBox="0 0 21.2305 19.3652">
 <g>
  <rect height="19.3652" opacity="0" width="21.2305" x="0" y="0"/>
  <path d="M14.0234 19.3652C15.8301 19.3652 17.2852 17.9004 17.2852 16.1035C17.2852 14.2969 15.8301 12.832 14.0234 12.832C12.2168 12.832 10.7617 14.2969 10.7617 16.1035C10.7617 17.9004 12.2168 19.3652 14.0234 19.3652Z" fill="var(--color-primary)"/>
  <path d="M6.8457 19.3652C8.65234 19.3652 10.1074 17.9004 10.1074 16.1035C10.1074 14.2969 8.65234 12.832 6.8457 12.832C5.03906 12.832 3.58398 14.2969 3.58398 16.1035C3.58398 17.9004 5.03906 19.3652 6.8457 19.3652Z" fill="var(--color-primary)"/>
  <path d="M17.6074 12.9395C19.4141 12.9395 20.8691 11.4844 20.8691 9.67773C20.8691 7.87109 19.4141 6.41602 17.6074 6.41602C15.8008 6.41602 14.3359 7.87109 14.3359 9.67773C14.3359 11.4844 15.8008 12.9395 17.6074 12.9395Z" fill="var(--color-primary)"/>
  <path d="M3.26172 12.9395C5.06836 12.9395 6.5332 11.4844 6.5332 9.67773C6.5332 7.87109 5.06836 6.41602 3.26172 6.41602C1.46484 6.41602 0 7.87109 0 9.67773C0 11.4844 1.46484 12.9395 3.26172 12.9395Z" fill="var(--color-primary)"/>
  <path d="M14.0234 6.52344C15.8301 6.52344 17.2852 5.06836 17.2852 3.26172C17.2852 1.45508 15.8301 0 14.0234 0C12.2168 0 10.7617 1.45508 10.7617 3.26172C10.7617 5.06836 12.2168 6.52344 14.0234 6.52344Z" fill="var(--color-primary)"/>
  <path d="M6.8457 6.52344C8.65234 6.52344 10.1074 5.06836 10.1074 3.26172C10.1074 1.45508 8.65234 0 6.8457 0C5.03906 0 3.58398 1.45508 3.58398 3.26172C3.58398 5.06836 5.03906 6.52344 6.8457 6.52344Z" fill="var(--color-primary)"/>
 </g>
</svg>
