<?xml version="1.0" encoding="UTF-8"?>
<!--Generator: Apple Native CoreSVG 341-->
<!DOCTYPE svg
PUBLIC "-//W3C//DTD SVG 1.1//EN"
       "http://www.w3.org/Graphics/SVG/1.1/DTD/svg11.dtd">
<svg version="1.1" xmlns="http://www.w3.org/2000/svg" xmlns:xlink="http://www.w3.org/1999/xlink" viewBox="0 0 20.2832 19.9316">
 <g>
  <rect height="19.9316" opacity="0" width="20.2832" x="0" y="0"/>
  <path d="M9.96094 19.9219C15.459 19.9219 19.9219 15.459 19.9219 9.96094C19.9219 4.46289 15.459 0 9.96094 0C4.46289 0 0 4.46289 0 9.96094C0 15.459 4.46289 19.9219 9.96094 19.9219ZM9.96094 18.2617C5.37109 18.2617 1.66016 14.5508 1.66016 9.96094C1.66016 5.37109 5.37109 1.66016 9.96094 1.66016C14.5508 1.66016 18.2617 5.37109 18.2617 9.96094C18.2617 14.5508 14.5508 18.2617 9.96094 18.2617Z" fill="white" fill-opacity="0.425"/>
  <path d="M7.29492 10.625C7.02148 10.625 6.81641 10.4297 6.81641 10.1562C6.81641 9.88281 7.02148 9.6875 7.29492 9.6875L9.48242 9.6875L9.48242 6.70898C9.48242 6.44531 9.6875 6.24023 9.95117 6.24023C10.2246 6.24023 10.4395 6.44531 10.4395 6.70898L10.4395 10.1562C10.4395 10.4199 10.2148 10.625 9.95117 10.625ZM9.96094 15.2051C12.8223 15.2051 15.2051 12.8223 15.2051 9.96094C15.2051 7.09961 12.8223 4.7168 9.95117 4.7168C7.08984 4.7168 4.7168 7.09961 4.7168 9.96094C4.7168 12.8223 7.09961 15.2051 9.96094 15.2051Z" fill="white" fill-opacity="0.85"/>
 </g>
</svg>
