<svg version="1.1" xmlns="http://www.w3.org/2000/svg" xmlns:xlink="http://www.w3.org/1999/xlink" viewBox="0 0 20.2832 19.9316">
 <g>
  <rect height="19.9316" opacity="0" width="20.2832" x="0" y="0"/>
  <path d="M9.96094 19.9219C15.459 19.9219 19.9219 15.4492 19.9219 9.96094C19.9219 4.46289 15.459 0 9.96094 0C4.47266 0 0 4.46289 0 9.96094C0 15.4492 4.47266 19.9219 9.96094 19.9219Z" fill="var(--color-tertiary)"/>
  <path d="M7.2168 10.6445L9.95117 10.6445C10.2246 10.6445 10.459 10.4395 10.459 10.166L10.459 6.61133C10.459 6.33789 10.2344 6.12305 9.95117 6.12305C9.67773 6.12305 9.46289 6.33789 9.46289 6.61133L9.46289 9.67773L7.2168 9.67773C6.93359 9.67773 6.71875 9.88281 6.71875 10.166C6.71875 10.4492 6.93359 10.6445 7.2168 10.6445ZM9.96094 15.3613C7.01172 15.3613 4.55078 12.9102 4.55078 9.96094C4.55078 7.01172 7.00195 4.55078 9.95117 4.55078C12.9102 4.55078 15.3711 7.01172 15.3711 9.96094C15.3711 12.9102 12.9102 15.3613 9.96094 15.3613Z" fill="var(--color-primary)"/>
 </g>
</svg>
