<?xml version="1.0" encoding="UTF-8"?>
<!--Generator: Apple Native CoreSVG 341-->
<!DOCTYPE svg
PUBLIC "-//W3C//DTD SVG 1.1//EN"
       "http://www.w3.org/Graphics/SVG/1.1/DTD/svg11.dtd">
<svg version="1.1" xmlns="http://www.w3.org/2000/svg" xmlns:xlink="http://www.w3.org/1999/xlink" viewBox="0 0 22.9297 24.5155">
 <g>
  <rect height="24.5155" opacity="0" width="22.9297" x="0" y="0"/>
  <path d="M14.1309 19.4892L11.9141 19.4892L11.8945 19.9286L13.0859 17.6435C13.2031 17.4286 13.1152 17.2626 12.9004 17.2626L10.7812 17.2626C10.498 17.2626 10.4004 17.3603 10.3125 17.5653L8.98438 20.5927C8.87695 20.8368 8.98438 20.9833 9.23828 20.9833L11.0449 20.9833L11.1719 20.4071L9.59961 24.2255C9.55078 24.3525 9.58008 24.4599 9.66797 24.4989C9.75586 24.538 9.86328 24.5087 9.9707 24.4013L14.2871 19.9775C14.4922 19.7626 14.4141 19.4892 14.1309 19.4892Z" fill="white" fill-opacity="0.85"/>
  <path d="M5.22461 15.8661L17.3438 15.8661C20.5469 15.8661 22.9297 13.4345 22.9297 10.4267C22.9297 7.31144 20.3906 5.03605 17.0801 5.03605C15.8594 2.62394 13.5938 1.07121 10.7715 1.07121C7.09961 1.07121 4.07227 3.95207 3.75 7.57511C1.98242 8.09269 0.634766 9.6259 0.634766 11.6864C0.634766 14.0009 2.31445 15.8661 5.22461 15.8661ZM5.20508 14.3036C3.20312 14.3036 2.19727 13.1806 2.19727 11.7353C2.19727 10.5634 2.88086 9.50871 4.54102 9.06925C5.07812 8.92277 5.27344 8.66886 5.32227 8.12199C5.54688 4.92863 7.93945 2.63371 10.7715 2.63371C12.9688 2.63371 14.6973 3.84465 15.752 6.00285C15.9766 6.48136 16.2695 6.64738 16.8457 6.64738C19.7363 6.64738 21.3672 8.38566 21.3672 10.4657C21.3672 12.5946 19.668 14.3036 17.4414 14.3036Z" fill="white" fill-opacity="0.85"/>
 </g>
</svg>
