<?xml version="1.0" encoding="UTF-8"?>
<!--Generator: Apple Native CoreSVG 341-->
<!DOCTYPE svg
PUBLIC "-//W3C//DTD SVG 1.1//EN"
       "http://www.w3.org/Graphics/SVG/1.1/DTD/svg11.dtd">
<svg version="1.1" xmlns="http://www.w3.org/2000/svg" xmlns:xlink="http://www.w3.org/1999/xlink" viewBox="0 0 20.2832 19.9316">
 <g>
  <rect height="19.9316" opacity="0" width="20.2832" x="0" y="0"/>
  <path d="M9.96094 19.9316C15.459 19.9316 19.9219 15.4688 19.9219 9.9707C19.9219 4.48242 15.459 0.00976562 9.96094 0.00976562C4.47266 0.00976562 0 4.48242 0 9.9707C0 15.4688 4.47266 19.9316 9.96094 19.9316Z" fill="white" fill-opacity="0.2125"/>
  <path d="M6.72852 11.2305C5.29297 11.2305 4.46289 10.293 4.46289 9.16016C4.46289 8.14453 5.12695 7.38281 5.99609 7.12891C6.16211 5.33203 7.66602 3.89648 9.47266 3.89648C10.8691 3.89648 11.9824 4.6875 12.5977 5.86914C14.2285 5.86914 15.4883 6.99219 15.4883 8.53516C15.4883 10.0195 14.2871 11.2305 12.7246 11.2305ZM7.30469 13.8672C7.1875 14.082 6.9043 14.1699 6.67969 14.043C6.45508 13.916 6.38672 13.6133 6.50391 13.4082L7.09961 12.3926C7.2168 12.1777 7.5 12.0996 7.72461 12.2168C7.94922 12.3535 8.01758 12.6465 7.90039 12.8516ZM10.0684 13.8672C9.95117 14.082 9.6582 14.1699 9.44336 14.043C9.21875 13.916 9.15039 13.6133 9.27734 13.4082L9.86328 12.3926C9.98047 12.1777 10.2734 12.0996 10.4883 12.2168C10.7129 12.3535 10.7812 12.6465 10.6543 12.8516ZM12.8223 13.8672C12.7051 14.082 12.4219 14.1699 12.1973 14.043C11.9727 13.916 11.9043 13.6133 12.0215 13.4082L12.6172 12.3926C12.7344 12.1777 13.0176 12.0996 13.2422 12.2168C13.4766 12.3535 13.5352 12.6465 13.418 12.8516ZM6.11328 15.8594C5.74219 15.8594 5.43945 15.5566 5.43945 15.1855C5.43945 14.8242 5.74219 14.5215 6.11328 14.5215C6.47461 14.5215 6.77734 14.8242 6.77734 15.1855C6.77734 15.5566 6.47461 15.8594 6.11328 15.8594ZM8.87695 15.8594C8.50586 15.8594 8.20312 15.5566 8.20312 15.1855C8.20312 14.8242 8.50586 14.5215 8.87695 14.5215C9.24805 14.5215 9.55078 14.8242 9.55078 15.1855C9.55078 15.5566 9.24805 15.8594 8.87695 15.8594ZM11.6309 15.8594C11.2695 15.8594 10.957 15.5566 10.957 15.1855C10.957 14.8242 11.2695 14.5215 11.6309 14.5215C11.9922 14.5215 12.3047 14.8242 12.3047 15.1855C12.3047 15.5566 11.9922 15.8594 11.6309 15.8594Z" fill="white" fill-opacity="0.85"/>
 </g>
</svg>
