<?xml version="1.0" encoding="UTF-8"?>
<!--Generator: Apple Native CoreSVG 341-->
<!DOCTYPE svg
PUBLIC "-//W3C//DTD SVG 1.1//EN"
       "http://www.w3.org/Graphics/SVG/1.1/DTD/svg11.dtd">
<svg version="1.1" xmlns="http://www.w3.org/2000/svg" xmlns:xlink="http://www.w3.org/1999/xlink" viewBox="0 0 20.2832 19.9316">
 <g>
  <rect height="19.9316" opacity="0" width="20.2832" x="0" y="0"/>
  <path d="M19.9219 9.9707C19.9219 15.4688 15.459 19.9316 9.96094 19.9316C4.47266 19.9316 0 15.4688 0 9.9707C0 4.48242 4.47266 0.00976562 9.96094 0.00976562C15.459 0.00976562 19.9219 4.48242 19.9219 9.9707ZM6.08398 14.1602L6.10352 14.5508L5.79102 14.3262C5.68359 14.2578 5.51758 14.2773 5.43945 14.3945C5.39062 14.4922 5.39062 14.6777 5.55664 14.7461L5.88867 14.9219L5.55664 15.0781C5.39062 15.1562 5.36133 15.3125 5.42969 15.4297C5.50781 15.5664 5.67383 15.5859 5.79102 15.5176L6.10352 15.293L6.09375 15.6836C6.09375 15.8301 6.18164 15.9473 6.33789 15.9473C6.47461 15.9473 6.58203 15.8398 6.57227 15.6836L6.54297 15.293L6.86523 15.5176C6.97266 15.5859 7.13867 15.5469 7.20703 15.459C7.27539 15.332 7.26562 15.1562 7.09961 15.0781L6.75781 14.9219L7.09961 14.7461C7.24609 14.668 7.27539 14.5312 7.22656 14.4043C7.1582 14.2871 6.97266 14.2578 6.86523 14.3359L6.54297 14.5508L6.57227 14.1602C6.58203 14.0039 6.47461 13.8965 6.33789 13.8965C6.18164 13.8965 6.07422 14.0137 6.08398 14.1602ZM8.84766 14.1602L8.87695 14.5508L8.54492 14.3262C8.44727 14.2578 8.28125 14.2773 8.21289 14.3945C8.1543 14.4922 8.16406 14.6777 8.31055 14.7461L8.65234 14.9219L8.31055 15.0781C8.16406 15.1562 8.13477 15.3125 8.19336 15.4297C8.26172 15.5664 8.4375 15.5859 8.54492 15.5176L8.87695 15.293L8.85742 15.6836C8.85742 15.8301 8.94531 15.9473 9.10156 15.9473C9.22852 15.9473 9.3457 15.8398 9.32617 15.6836L9.30664 15.293L9.61914 15.5176C9.73633 15.5859 9.90234 15.5469 9.96094 15.459C10.0488 15.332 10.0293 15.1562 9.86328 15.0781L9.52148 14.9219L9.86328 14.7461C10.0195 14.668 10.0391 14.5312 9.98047 14.4043C9.92188 14.2871 9.73633 14.2578 9.61914 14.3359L9.30664 14.5508L9.32617 14.1602C9.3457 14.0039 9.22852 13.8965 9.10156 13.8965C8.94531 13.8965 8.83789 14.0137 8.84766 14.1602ZM11.6016 14.1602L11.6211 14.5508L11.3086 14.3262C11.2012 14.2578 11.0352 14.2773 10.957 14.3945C10.9082 14.4922 10.9082 14.6777 11.0742 14.7461L11.4062 14.9219L11.0742 15.0781C10.9082 15.1562 10.8789 15.3125 10.9473 15.4297C11.0254 15.5664 11.1914 15.5859 11.3086 15.5176L11.6211 15.293L11.6113 15.6836C11.6113 15.8301 11.6992 15.9473 11.8555 15.9473C11.9922 15.9473 12.0996 15.8398 12.0898 15.6836L12.0703 15.293L12.3828 15.5176C12.4902 15.5859 12.6562 15.5469 12.7246 15.459C12.8027 15.332 12.7832 15.1562 12.627 15.0781L12.2754 14.9219L12.627 14.7461C12.7637 14.668 12.793 14.5312 12.7441 14.4043C12.6758 14.2871 12.4902 14.2578 12.3828 14.3359L12.0703 14.5508L12.0898 14.1602C12.0996 14.0039 11.9922 13.8965 11.8555 13.8965C11.6992 13.8965 11.5918 14.0137 11.6016 14.1602ZM7.31445 12.1094L6.74805 13.0762C6.64062 13.291 6.69922 13.584 6.92383 13.7109C7.14844 13.8379 7.43164 13.7402 7.54883 13.5352L8.11523 12.5684C8.22266 12.3633 8.16406 12.0605 7.92969 11.9434C7.71484 11.8066 7.43164 11.9043 7.31445 12.1094ZM10.0781 12.1094L9.52148 13.0762C9.39453 13.291 9.46289 13.584 9.6875 13.7109C9.90234 13.8379 10.1953 13.7402 10.3125 13.5352L10.8691 12.5684C10.9961 12.3633 10.9277 12.0605 10.7031 11.9434C10.4883 11.8066 10.1953 11.9043 10.0781 12.1094ZM12.832 12.1094L12.2656 13.0762C12.1582 13.291 12.2168 13.584 12.4414 13.7109C12.666 13.8379 12.9492 13.7402 13.0664 13.5352L13.6328 12.5684C13.7402 12.3633 13.6816 12.0605 13.457 11.9434C13.2324 11.8066 12.9492 11.9043 12.832 12.1094ZM6.21094 6.85547C5.3418 7.10938 4.67773 7.86133 4.67773 8.87695C4.67773 10.0195 5.50781 10.9473 6.94336 10.9473L12.9297 10.9473C14.502 10.9473 15.6934 9.73633 15.6934 8.25195C15.6934 6.70898 14.4336 5.58594 12.8027 5.58594C12.1973 4.39453 11.084 3.62305 9.6875 3.62305C7.87109 3.62305 6.37695 5.04883 6.21094 6.85547Z" fill="white" fill-opacity="0.85"/>
 </g>
</svg>
