<?xml version="1.0" encoding="UTF-8"?>
<!--Generator: Apple Native CoreSVG 341-->
<!DOCTYPE svg
PUBLIC "-//W3C//DTD SVG 1.1//EN"
       "http://www.w3.org/Graphics/SVG/1.1/DTD/svg11.dtd">
<svg version="1.1" xmlns="http://www.w3.org/2000/svg" xmlns:xlink="http://www.w3.org/1999/xlink" viewBox="0 0 20.2832 19.9316">
 <g>
  <rect height="19.9316" opacity="0" width="20.2832" x="0" y="0"/>
  <path d="M19.9219 9.9707C19.9219 15.4688 15.459 19.9316 9.96094 19.9316C4.47266 19.9316 0 15.4688 0 9.9707C0 4.48242 4.47266 0.00976562 9.96094 0.00976562C15.459 0.00976562 19.9219 4.48242 19.9219 9.9707ZM8.93555 12.1484L7.39258 14.8145C7.25586 15.0293 7.33398 15.3223 7.55859 15.4395C7.7832 15.5762 8.05664 15.4883 8.18359 15.2637L9.72656 12.6074C9.87305 12.3828 9.78516 12.0996 9.55078 11.9727C9.33594 11.8457 9.07227 11.9141 8.93555 12.1484ZM13.5156 12.1484L11.9727 14.8145C11.8457 15.0293 11.9141 15.3223 12.1484 15.4395C12.373 15.5762 12.6465 15.4883 12.7637 15.2637L14.3164 12.6074C14.4531 12.3828 14.375 12.0996 14.1406 11.9727C13.916 11.8457 13.6523 11.9141 13.5156 12.1484ZM11.2207 12.1484L9.67773 14.8145C9.55078 15.0293 9.61914 15.3223 9.85352 15.4395C10.0684 15.5762 10.3418 15.4883 10.4785 15.2637L12.0117 12.6074C12.1582 12.3828 12.0801 12.0996 11.8457 11.9727C11.6211 11.8457 11.3574 11.9141 11.2207 12.1484ZM6.64062 12.1484L5.08789 14.8145C4.96094 15.0293 5.03906 15.3223 5.26367 15.4395C5.48828 15.5762 5.76172 15.4883 5.88867 15.2637L7.43164 12.6074C7.56836 12.3828 7.49023 12.0996 7.25586 11.9727C7.04102 11.8457 6.76758 11.9141 6.64062 12.1484ZM6.06445 6.89453C5.19531 7.13867 4.53125 7.90039 4.53125 8.91602C4.53125 10.0586 5.36133 10.9766 6.79688 10.9766L12.793 10.9766C14.3555 10.9766 15.5566 9.77539 15.5566 8.29102C15.5566 6.74805 14.2969 5.625 12.666 5.625C12.0508 4.43359 10.9375 3.66211 9.54102 3.66211C7.73438 3.66211 6.23047 5.08789 6.06445 6.89453Z" fill="white" fill-opacity="0.85"/>
 </g>
</svg>
