<svg version="1.1" xmlns="http://www.w3.org/2000/svg" xmlns:xlink="http://www.w3.org/1999/xlink" viewBox="0 0 27.0296 24.4629">
 <g>
  <rect height="24.4629" opacity="0" width="27.0296" x="0" y="0"/>
  <path d="M7.84584 24.4434L18.8126 24.4434C20.5119 24.4434 21.6154 23.3105 21.5275 21.6016L21.2931 17.2266L21.2931 15.166L20.6095 11.084C20.5705 10.8594 20.4337 10.7324 20.2677 10.7324C20.0529 10.7324 19.9162 10.9082 19.9259 11.1621L20.1896 21.543C20.2091 22.3633 19.672 22.9395 18.8224 22.9395L7.82631 22.9395C6.98647 22.9395 6.43959 22.3633 6.46889 21.543L6.73256 11.1621C6.74233 10.9082 6.59584 10.7324 6.39076 10.7324C6.22475 10.7324 6.08803 10.8594 6.04897 11.084L5.36537 15.0684L5.35561 17.168L5.131 21.6016C5.04311 23.3105 6.13686 24.4434 7.84584 24.4434ZM3.89076 19.6875C4.89662 19.9902 5.7267 19.834 5.93178 18.8379L6.26381 17.2949L5.62904 13.7793L4.66225 17.9492C4.59389 18.2031 4.4474 18.252 4.24233 18.2031L1.87904 17.5488C1.59584 17.4707 1.52748 17.2949 1.61537 17.002L4.92592 4.85352C5.09194 4.26758 5.35561 3.88672 5.86342 3.70117L8.68569 2.64648L9.51576 0.898438L5.28725 2.4707C4.33022 2.83203 3.84194 3.42773 3.61733 4.19922L0.0919353 16.7383C-0.191268 17.7441 0.179826 18.6035 1.20522 18.9062ZM22.7384 19.6875L25.4533 18.8965C26.4787 18.6035 26.8497 17.7344 26.5665 16.7383L23.0314 4.19922C22.8165 3.42773 22.3283 2.83203 21.3712 2.4707L17.1525 0.898438L17.9728 2.64648L20.7951 3.70117C21.3029 3.88672 21.5665 4.26758 21.7228 4.85352L25.0529 16.9922C25.1408 17.2852 25.0626 17.4707 24.7892 17.5488L22.3869 18.2031C22.1818 18.252 22.0255 18.2031 21.9767 17.9492L21.0294 13.7793L20.3947 17.2949L20.6974 18.8379C20.883 19.834 21.7326 19.9902 22.7384 19.6875ZM15.1603 16.9922C15.7365 16.9922 16.1857 16.543 16.1857 15.9668C16.1857 15.4004 15.7462 14.9414 15.1603 14.9414C14.5939 14.9414 14.1447 15.3906 14.1447 15.9668C14.1349 16.543 14.5841 16.9922 15.1603 16.9922ZM15.1603 21.2695C15.7365 21.2695 16.1857 20.8105 16.1857 20.2344C16.1857 19.668 15.7462 19.209 15.1603 19.209C14.5939 19.209 14.1447 19.6582 14.1447 20.2344C14.1349 20.8105 14.5841 21.2695 15.1603 21.2695ZM11.5763 23.7695L13.0705 23.7695L13.0705 13.9355L12.9435 14.5703L18.1779 5.79102C18.8029 4.73633 18.8224 4.26758 18.422 3.24219L17.631 1.25C17.2599 0.322266 16.6056 0 15.5412 0L11.1271 0C10.0626 0 9.39858 0.322266 9.02748 1.25L8.24623 3.24219C7.85561 4.22852 7.87514 4.73633 8.49037 5.79102L11.713 11.4551L11.5763 10.9766ZM13.0705 12.0312L14.9064 2.05078C15.004 1.5332 15.2775 1.30859 15.6779 1.30859C16.0685 1.30859 16.3029 1.54297 16.4787 1.98242L17.0158 3.39844C17.2794 4.0918 17.3771 4.50195 16.9572 5.24414ZM12.2501 9.90234L9.70131 5.24414C9.29115 4.49219 9.37904 4.0918 9.64272 3.39844L10.1896 1.98242C10.3654 1.5332 10.59 1.30859 10.9806 1.30859C11.381 1.30859 11.6642 1.52344 11.7619 2.05078L12.6798 7.10938Z" fill="var(--color-primary)"/>
 </g>
</svg>
