<svg version="1.1" xmlns="http://www.w3.org/2000/svg" xmlns:xlink="http://www.w3.org/1999/xlink" viewBox="0 0 22.168 20.8496">
 <g>
  <rect height="20.8496" opacity="0" width="22.168" x="0" y="0"/>
  <path d="M1.29883 19.707L20.5078 19.707L20.5078 18.5547C20.5078 18.1641 20.2832 17.9297 19.8828 17.9297L19.2578 17.9297L19.2578 6.69922L20.1172 6.69922C20.6543 6.69922 20.9668 6.30859 20.9668 5.9082C20.9668 5.61523 20.8008 5.36133 20.4395 5.15625L12.0996 0.341797C11.709 0.117188 11.2988 0 10.8984 0C10.498 0 10.0781 0.117188 9.70703 0.341797L1.36719 5.15625C0.996094 5.36133 0.839844 5.61523 0.839844 5.9082C0.839844 6.30859 1.15234 6.69922 1.68945 6.69922L2.54883 6.69922L2.54883 17.9297L1.93359 17.9297C1.5332 17.9297 1.29883 18.1641 1.29883 18.5547ZM0.78125 20.8398L21.0156 20.8398C21.4453 20.8398 21.8066 20.4785 21.8066 20.0488C21.8066 19.6191 21.4453 19.2676 21.0156 19.2676L0.78125 19.2676C0.351562 19.2676 0 19.6191 0 20.0488C0 20.4785 0.351562 20.8398 0.78125 20.8398Z" fill="var(--color-tertiary)"/>
  <path d="M10.5664 16.9629C10.3711 16.9629 10.2246 16.8262 10.2246 16.6309C10.2246 16.582 10.2344 16.5137 10.2441 16.4551L10.4785 15.5469C10.0586 15.498 9.67773 15.4004 9.33594 15.2441L8.97461 16.6895C8.91602 16.8848 8.80859 16.9629 8.63281 16.9629C8.4375 16.9629 8.28125 16.8262 8.28125 16.6309C8.28125 16.582 8.29102 16.5137 8.31055 16.4551L8.70117 14.8828C7.61719 14.0918 7.06055 12.6953 7.06055 11.0645C7.06055 8.54492 8.41797 6.68945 10.791 6.57227L11.0352 5.625C11.084 5.43945 11.1914 5.36133 11.3867 5.36133C11.5918 5.36133 11.7285 5.49805 11.7285 5.68359C11.7285 5.71289 11.7188 5.77148 11.6895 5.85938L11.5137 6.60156C11.9043 6.64062 12.2852 6.74805 12.6465 6.9043L12.9688 5.625C13.0176 5.43945 13.125 5.36133 13.3203 5.36133C13.5254 5.36133 13.6621 5.49805 13.6621 5.68359C13.6621 5.71289 13.6523 5.77148 13.623 5.85938L13.2715 7.27539C13.7207 7.60742 14.0918 8.05664 14.3164 8.62305C14.375 8.76953 14.4238 8.96484 14.4238 9.11133C14.4238 9.44336 14.209 9.64844 13.877 9.64844C13.5254 9.64844 13.3984 9.47266 13.3105 9.17969C13.2422 8.93555 13.125 8.7207 12.959 8.53516L11.4648 14.502C12.3438 14.375 13.0762 13.8477 13.3691 12.9688C13.4766 12.6953 13.623 12.5 13.9453 12.5C14.2188 12.5 14.4922 12.666 14.4922 13.0469C14.4922 13.2129 14.4629 13.3594 14.4043 13.5254C13.9551 14.7852 12.6758 15.5762 11.2012 15.5762L11.1914 15.5762L10.9082 16.6895C10.8594 16.8848 10.7422 16.9629 10.5664 16.9629ZM8.30078 11.0645C8.30078 12.0117 8.53516 12.9199 9.0332 13.5742L10.5176 7.66602C9.0332 7.93945 8.30078 9.4043 8.30078 11.0645ZM9.60938 14.1309C9.92188 14.3359 10.3027 14.4824 10.7324 14.5117L12.373 7.99805C12.0508 7.79297 11.6602 7.66602 11.25 7.62695Z" fill="var(--color-primary)"/>
 </g>
</svg>
