<?xml version="1.0" encoding="UTF-8"?>
<!--Generator: Apple Native CoreSVG 341-->
<!DOCTYPE svg
PUBLIC "-//W3C//DTD SVG 1.1//EN"
       "http://www.w3.org/Graphics/SVG/1.1/DTD/svg11.dtd">
<svg version="1.1" xmlns="http://www.w3.org/2000/svg" xmlns:xlink="http://www.w3.org/1999/xlink" viewBox="0 0 18.3398 17.9785">
 <g>
  <rect height="17.9785" opacity="0" width="18.3398" x="0" y="0"/>
  <path d="M3.06641 17.9785L14.9121 17.9785C16.9629 17.9785 17.9785 16.9727 17.9785 14.9609L17.9785 3.02734C17.9785 1.01562 16.9629 0 14.9121 0L3.06641 0C1.02539 0 0 1.01562 0 3.02734L0 14.9609C0 16.9727 1.02539 17.9785 3.06641 17.9785Z" fill="white" fill-opacity="0.2125"/>
  <path d="M8.65234 14.7949C8.45703 14.7949 8.31055 14.6582 8.31055 14.4629C8.31055 14.4141 8.32031 14.3457 8.33008 14.2871L8.56445 13.3789C8.14453 13.3301 7.77344 13.2324 7.43164 13.0762L7.06055 14.5312C7.01172 14.7168 6.89453 14.7949 6.71875 14.7949C6.52344 14.7949 6.37695 14.6582 6.37695 14.4629C6.37695 14.4141 6.38672 14.3457 6.39648 14.2871L6.79688 12.7148C5.71289 11.9238 5.14648 10.5273 5.14648 8.90625C5.14648 6.37695 6.50391 4.52148 8.88672 4.4043L9.12109 3.4668C9.16992 3.28125 9.27734 3.19336 9.48242 3.19336C9.67773 3.19336 9.81445 3.33008 9.81445 3.51562C9.81445 3.54492 9.80469 3.60352 9.77539 3.69141L9.59961 4.43359C9.99023 4.48242 10.3809 4.58008 10.7324 4.74609L11.0547 3.4668C11.1035 3.28125 11.2109 3.19336 11.416 3.19336C11.6113 3.19336 11.748 3.33008 11.748 3.51562C11.748 3.54492 11.7383 3.60352 11.709 3.69141L11.3574 5.10742C11.8066 5.43945 12.1777 5.88867 12.4023 6.45508C12.4609 6.60156 12.5098 6.79688 12.5098 6.94336C12.5098 7.27539 12.3047 7.48047 11.9629 7.48047C11.6113 7.48047 11.4844 7.30469 11.3965 7.02148C11.3281 6.76758 11.2109 6.55273 11.0547 6.36719L9.55078 12.334C10.4297 12.207 11.1621 11.6797 11.4648 10.8105C11.5625 10.5273 11.7188 10.332 12.0312 10.332C12.3145 10.332 12.5781 10.498 12.5781 10.8789C12.5781 11.0449 12.5488 11.2012 12.4902 11.3574C12.041 12.6172 10.7617 13.418 9.28711 13.418L9.27734 13.418L9.00391 14.5312C8.94531 14.7168 8.82812 14.7949 8.65234 14.7949ZM6.38672 8.90625C6.38672 9.85352 6.63086 10.752 7.11914 11.4062L8.61328 5.49805C7.11914 5.77148 6.38672 7.23633 6.38672 8.90625ZM7.70508 11.9629C8.00781 12.168 8.38867 12.3145 8.81836 12.3535L10.459 5.83008C10.1367 5.63477 9.74609 5.49805 9.33594 5.45898Z" fill="white" fill-opacity="0.85"/>
 </g>
</svg>
