<?xml version="1.0" encoding="UTF-8"?>
<!--Generator: Apple Native CoreSVG 341-->
<!DOCTYPE svg
PUBLIC "-//W3C//DTD SVG 1.1//EN"
       "http://www.w3.org/Graphics/SVG/1.1/DTD/svg11.dtd">
<svg version="1.1" xmlns="http://www.w3.org/2000/svg" xmlns:xlink="http://www.w3.org/1999/xlink" viewBox="0 0 20.2832 19.9316">
 <g>
  <rect height="19.9316" opacity="0" width="20.2832" x="0" y="0"/>
  <path d="M9.96094 19.9219C15.459 19.9219 19.9219 15.459 19.9219 9.96094C19.9219 4.46289 15.459 0 9.96094 0C4.46289 0 0 4.46289 0 9.96094C0 15.459 4.46289 19.9219 9.96094 19.9219ZM9.96094 18.2617C5.37109 18.2617 1.66016 14.5508 1.66016 9.96094C1.66016 5.37109 5.37109 1.66016 9.96094 1.66016C14.5508 1.66016 18.2617 5.37109 18.2617 9.96094C18.2617 14.5508 14.5508 18.2617 9.96094 18.2617Z" fill="white" fill-opacity="0.425"/>
  <path d="M10.0586 14.2578C11.5527 14.2578 12.8809 13.5352 13.3301 12.2559C13.3887 12.1094 13.418 11.9531 13.418 11.7969C13.418 11.4258 13.1641 11.2695 12.8906 11.2695C12.5781 11.2695 12.4414 11.4551 12.334 11.7285C12.002 12.7148 11.1133 13.2422 10.0586 13.2422C8.24219 13.2422 7.41211 11.6309 7.41211 9.88281C7.41211 8.0957 8.28125 6.5332 10.0488 6.5332C11.0938 6.5332 12.002 7.16797 12.2754 8.05664C12.3633 8.33008 12.4902 8.50586 12.8223 8.50586C13.1543 8.50586 13.3496 8.30078 13.3496 7.98828C13.3496 7.8418 13.3105 7.65625 13.252 7.50977C12.7148 6.20117 11.4258 5.51758 10.0488 5.51758C7.62695 5.51758 6.2207 7.36328 6.2207 9.88281C6.2207 12.3438 7.54883 14.2578 10.0586 14.2578ZM7.74414 15.5957C7.91016 15.5957 8.01758 15.5176 8.06641 15.3418L10.7031 4.83398C10.7324 4.74609 10.7422 4.6875 10.7422 4.6582C10.7422 4.48242 10.6055 4.3457 10.4102 4.3457C10.2246 4.3457 10.1172 4.43359 10.0684 4.59961L7.43164 15.0977C7.41211 15.1562 7.40234 15.2246 7.40234 15.2734C7.40234 15.459 7.54883 15.5957 7.74414 15.5957ZM9.61914 15.5957C9.78516 15.5957 9.90234 15.5176 9.94141 15.3418L12.5781 4.83398C12.6074 4.74609 12.6172 4.6875 12.6172 4.6582C12.6172 4.48242 12.4805 4.3457 12.2949 4.3457C12.0996 4.3457 11.9922 4.43359 11.9434 4.59961L9.30664 15.0977C9.29688 15.1562 9.28711 15.2246 9.28711 15.2734C9.28711 15.459 9.42383 15.5957 9.61914 15.5957Z" fill="white" fill-opacity="0.85"/>
 </g>
</svg>
