<?xml version="1.0" encoding="UTF-8"?>
<!--Generator: Apple Native CoreSVG 341-->
<!DOCTYPE svg
PUBLIC "-//W3C//DTD SVG 1.1//EN"
       "http://www.w3.org/Graphics/SVG/1.1/DTD/svg11.dtd">
<svg version="1.1" xmlns="http://www.w3.org/2000/svg" xmlns:xlink="http://www.w3.org/1999/xlink" viewBox="0 0 22.168 20.8496">
 <g>
  <rect height="20.8496" opacity="0" width="22.168" x="0" y="0"/>
  <path d="M1.29883 18.5156L20.5078 18.5156L20.5078 17.8613C20.5078 17.4707 20.2832 17.2363 19.8828 17.2363L19.2578 17.2363L19.2578 6.69922L20.1172 6.69922C20.6543 6.69922 20.9668 6.30859 20.9668 5.9082C20.9668 5.61523 20.8008 5.36133 20.4395 5.15625L12.0996 0.341797C11.709 0.117188 11.2988 0 10.8984 0C10.498 0 10.0781 0.117188 9.70703 0.341797L1.36719 5.15625C0.996094 5.36133 0.839844 5.61523 0.839844 5.9082C0.839844 6.30859 1.15234 6.69922 1.68945 6.69922L2.54883 6.69922L2.54883 17.2363L1.93359 17.2363C1.5332 17.2363 1.29883 17.4707 1.29883 17.8613ZM4.02344 17.2363L4.02344 5.44922L10.5176 1.80664C10.6348 1.73828 10.7715 1.69922 10.8984 1.69922C11.0254 1.69922 11.1621 1.73828 11.2891 1.80664L17.7832 5.44922L17.7832 17.2363ZM0.78125 20.8398L21.0156 20.8398C21.4453 20.8398 21.8066 20.4785 21.8066 20.0488C21.8066 19.6191 21.4453 19.2676 21.0156 19.2676L0.78125 19.2676C0.351562 19.2676 0 19.6191 0 20.0488C0 20.4785 0.351562 20.8398 0.78125 20.8398Z" fill="white" fill-opacity="0.425"/>
  <path d="M11.0156 14.5703C12.5098 14.5703 13.8379 13.8574 14.2871 12.5781C14.3457 12.4219 14.375 12.2754 14.375 12.1191C14.375 11.748 14.1113 11.5918 13.8477 11.5918C13.5352 11.5918 13.3984 11.7773 13.291 12.041C12.959 13.0273 12.0605 13.5547 11.0156 13.5547C9.18945 13.5547 8.36914 11.9531 8.36914 10.1953C8.36914 8.4082 9.23828 6.8457 11.0059 6.8457C12.0508 6.8457 12.959 7.49023 13.2324 8.36914C13.3203 8.64258 13.4473 8.81836 13.7793 8.81836C14.1016 8.81836 14.3066 8.61328 14.3066 8.30078C14.3066 8.1543 14.2676 7.97852 14.209 7.83203C13.6719 6.51367 12.3828 5.83984 11.0059 5.83984C8.58398 5.83984 7.17773 7.68555 7.17773 10.1953C7.17773 12.666 8.50586 14.5703 11.0156 14.5703ZM8.70117 15.918C8.86719 15.918 8.97461 15.8398 9.02344 15.6543L11.6602 5.14648C11.6895 5.05859 11.6992 5.00977 11.6992 4.9707C11.6992 4.79492 11.5625 4.6582 11.3672 4.6582C11.1816 4.6582 11.0742 4.74609 11.0254 4.92188L8.38867 15.4199C8.36914 15.4785 8.35938 15.5371 8.35938 15.5957C8.35938 15.7812 8.50586 15.918 8.70117 15.918ZM10.5762 15.918C10.7422 15.918 10.8594 15.8398 10.8984 15.6543L13.5352 5.14648C13.5645 5.05859 13.5742 5.00977 13.5742 4.9707C13.5742 4.79492 13.4375 4.6582 13.2422 4.6582C13.0566 4.6582 12.9492 4.74609 12.9004 4.92188L10.2637 15.4199C10.2539 15.4785 10.2441 15.5371 10.2441 15.5957C10.2441 15.7812 10.3809 15.918 10.5762 15.918Z" fill="white" fill-opacity="0.85"/>
 </g>
</svg>
