<?xml version="1.0" encoding="UTF-8"?>
<!--Generator: Apple Native CoreSVG 341-->
<!DOCTYPE svg
PUBLIC "-//W3C//DTD SVG 1.1//EN"
       "http://www.w3.org/Graphics/SVG/1.1/DTD/svg11.dtd">
<svg version="1.1" xmlns="http://www.w3.org/2000/svg" xmlns:xlink="http://www.w3.org/1999/xlink" viewBox="0 0 18.3398 17.9785">
 <g>
  <rect height="17.9785" opacity="0" width="18.3398" x="0" y="0"/>
  <path d="M3.06641 17.9785L14.9121 17.9785C16.9629 17.9785 17.9785 16.9727 17.9785 14.9609L17.9785 3.02734C17.9785 1.01562 16.9629 0 14.9121 0L3.06641 0C1.02539 0 0 1.01562 0 3.02734L0 14.9609C0 16.9727 1.02539 17.9785 3.06641 17.9785ZM3.08594 16.4062C2.10938 16.4062 1.57227 15.8887 1.57227 14.873L1.57227 3.11523C1.57227 2.09961 2.10938 1.57227 3.08594 1.57227L14.8926 1.57227C15.8594 1.57227 16.4062 2.09961 16.4062 3.11523L16.4062 14.873C16.4062 15.8887 15.8594 16.4062 14.8926 16.4062Z" fill="white" fill-opacity="0.85"/>
  <path d="M9.10156 13.2812C10.5957 13.2812 11.9238 12.5586 12.373 11.2793C12.4316 11.1328 12.4609 10.9766 12.4609 10.8203C12.4609 10.4492 12.207 10.293 11.9336 10.293C11.6309 10.293 11.4844 10.4785 11.3867 10.752C11.0449 11.7383 10.1562 12.2656 9.10156 12.2656C7.28516 12.2656 6.45508 10.6543 6.45508 8.90625C6.45508 7.11914 7.32422 5.55664 9.0918 5.55664C10.1367 5.55664 11.0547 6.19141 11.3184 7.08008C11.4062 7.35352 11.5332 7.5293 11.8652 7.5293C12.1973 7.5293 12.3926 7.32422 12.3926 7.01172C12.3926 6.86523 12.3535 6.67969 12.2949 6.5332C11.7676 5.22461 10.4688 4.54102 9.0918 4.54102C6.66992 4.54102 5.26367 6.38672 5.26367 8.90625C5.26367 11.3672 6.5918 13.2812 9.10156 13.2812ZM6.78711 14.6191C6.95312 14.6191 7.07031 14.541 7.10938 14.3652L9.74609 3.85742C9.77539 3.76953 9.78516 3.71094 9.78516 3.68164C9.78516 3.50586 9.64844 3.36914 9.46289 3.36914C9.26758 3.36914 9.16016 3.45703 9.11133 3.62305L6.47461 14.1211C6.46484 14.1797 6.45508 14.248 6.45508 14.2969C6.45508 14.4824 6.5918 14.6191 6.78711 14.6191ZM8.66211 14.6191C8.82812 14.6191 8.94531 14.541 8.99414 14.3652L11.6211 3.85742C11.6504 3.76953 11.6602 3.71094 11.6602 3.68164C11.6602 3.50586 11.5234 3.36914 11.3379 3.36914C11.1426 3.36914 11.0352 3.45703 10.9863 3.62305L8.34961 14.1211C8.33984 14.1797 8.33008 14.248 8.33008 14.2969C8.33008 14.4824 8.4668 14.6191 8.66211 14.6191Z" fill="white" fill-opacity="0.85"/>
 </g>
</svg>
