<?xml version="1.0" encoding="UTF-8"?>
<!--Generator: Apple Native CoreSVG 341-->
<!DOCTYPE svg
PUBLIC "-//W3C//DTD SVG 1.1//EN"
       "http://www.w3.org/Graphics/SVG/1.1/DTD/svg11.dtd">
<svg version="1.1" xmlns="http://www.w3.org/2000/svg" xmlns:xlink="http://www.w3.org/1999/xlink" viewBox="0 0 23.8867 19.5996">
 <g>
  <rect height="19.5996" opacity="0" width="23.8867" x="0" y="0"/>
  <path d="M23.5254 11.7578C23.5254 8.88672 22.4902 6.24023 20.7617 4.18945C20.5664 3.95508 20.2344 3.95508 20.0195 4.17969L17.7539 6.44531C17.5684 6.63086 17.5586 6.89453 17.7246 7.09961C18.7305 8.38867 19.3359 10.0098 19.3359 11.7578C19.3359 13.5156 18.7305 15.1367 17.666 16.4941C17.5293 16.6602 17.5391 16.875 17.6855 17.0312L20.0098 19.3555C20.2344 19.5801 20.5566 19.5801 20.7617 19.3359C22.4902 17.2852 23.5254 14.6387 23.5254 11.7578Z" fill="white" fill-opacity="0.425"/>
  <path d="M11.7578 4.18945C13.5254 4.18945 15.1465 4.80469 16.4453 5.81055C16.6406 5.9668 16.8945 5.94727 17.0801 5.76172L19.3457 3.49609C19.5703 3.27148 19.5605 2.94922 19.3262 2.75391C17.2852 1.03516 14.6387 0 11.7578 0C8.88672 0 6.24023 1.03516 4.19922 2.75391C3.96484 2.94922 3.95508 3.27148 4.17969 3.49609L6.44531 5.76172C6.63086 5.94727 6.89453 5.9668 7.10938 5.80078C8.39844 4.80469 10.0098 4.18945 11.7578 4.18945Z" fill="white" fill-opacity="0.425"/>
  <path d="M0 11.7578C0 14.6387 1.03516 17.2852 2.76367 19.3359C2.95898 19.5801 3.29102 19.5801 3.50586 19.3555L5.83008 17.0312C5.97656 16.875 5.99609 16.6602 5.85938 16.4941C4.79492 15.1367 4.18945 13.5156 4.18945 11.7578C4.18945 10.0098 4.78516 8.38867 5.80078 7.09961C5.95703 6.89453 5.95703 6.63086 5.77148 6.44531L3.50586 4.17969C3.28125 3.95508 2.95898 3.95508 2.76367 4.18945C1.03516 6.24023 0 8.88672 0 11.7578Z" fill="white" fill-opacity="0.425"/>
  <path d="M11.8652 16.1816C13.3496 16.1816 14.6777 15.4688 15.127 14.1895C15.1855 14.0332 15.2148 13.8867 15.2148 13.7305C15.2148 13.3594 14.9609 13.2031 14.6973 13.2031C14.3848 13.2031 14.2383 13.3887 14.1406 13.6523C13.7988 14.6387 12.9102 15.166 11.8652 15.166C10.0391 15.166 9.21875 13.5645 9.21875 11.8066C9.21875 10.0195 10.0879 8.45703 11.8555 8.45703C12.8906 8.45703 13.8086 9.10156 14.0723 9.98047C14.1602 10.2539 14.2969 10.4297 14.6191 10.4297C14.9512 10.4297 15.1465 10.2246 15.1465 9.91211C15.1465 9.76562 15.1172 9.58984 15.0586 9.44336C14.5215 8.125 13.2227 7.45117 11.8555 7.45117C9.42383 7.45117 8.01758 9.29688 8.01758 11.8066C8.01758 14.2773 9.3457 16.1816 11.8652 16.1816ZM9.54102 17.5293C9.70703 17.5293 9.82422 17.4512 9.87305 17.2656L12.5098 6.75781C12.5293 6.66992 12.5391 6.62109 12.5391 6.58203C12.5391 6.40625 12.4023 6.26953 12.2168 6.26953C12.0312 6.26953 11.9141 6.35742 11.8652 6.5332L9.22852 17.0312C9.21875 17.0898 9.20898 17.1484 9.20898 17.207C9.20898 17.3926 9.3457 17.5293 9.54102 17.5293ZM11.416 17.5293C11.582 17.5293 11.6992 17.4512 11.748 17.2656L14.3848 6.75781C14.4043 6.66992 14.4141 6.62109 14.4141 6.58203C14.4141 6.40625 14.2871 6.26953 14.0918 6.26953C13.9062 6.26953 13.7891 6.35742 13.7402 6.5332L11.1035 17.0312C11.0938 17.0898 11.084 17.1484 11.084 17.207C11.084 17.3926 11.2305 17.5293 11.416 17.5293Z" fill="white" fill-opacity="0.85"/>
 </g>
</svg>
