<?xml version="1.0" encoding="UTF-8"?>
<!--Generator: Apple Native CoreSVG 341-->
<!DOCTYPE svg
PUBLIC "-//W3C//DTD SVG 1.1//EN"
       "http://www.w3.org/Graphics/SVG/1.1/DTD/svg11.dtd">
<svg version="1.1" xmlns="http://www.w3.org/2000/svg" xmlns:xlink="http://www.w3.org/1999/xlink" viewBox="0 0 20.2832 19.9316">
 <g>
  <rect height="19.9316" opacity="0" width="20.2832" x="0" y="0"/>
  <path d="M9.96094 19.9316C15.459 19.9316 19.9219 15.4688 19.9219 9.9707C19.9219 4.48242 15.459 0.00976562 9.96094 0.00976562C4.47266 0.00976562 0 4.48242 0 9.9707C0 15.4688 4.47266 19.9316 9.96094 19.9316Z" fill="white" fill-opacity="0.2125"/>
  <path d="M6.67969 15.3809C5.48828 15.3809 4.53125 14.4238 4.53125 13.2324C4.53125 12.0312 5.49805 11.1133 6.67969 11.1133L7.65625 11.1133L7.65625 8.83789L6.67969 8.83789C5.49805 8.83789 4.53125 7.91016 4.53125 6.70898C4.53125 5.51758 5.48828 4.56055 6.67969 4.56055C7.87109 4.56055 8.81836 5.51758 8.81836 6.70898L8.81836 7.69531L11.0938 7.69531L11.0938 6.70898C11.0938 5.51758 12.0508 4.56055 13.2324 4.56055C14.4238 4.56055 15.3809 5.51758 15.3809 6.70898C15.3809 7.91016 14.4141 8.83789 13.2324 8.83789L12.2559 8.83789L12.2559 11.1133L13.2324 11.1133C14.4141 11.1133 15.3809 12.0312 15.3809 13.2324C15.3809 14.4238 14.4238 15.3809 13.2324 15.3809C12.0508 15.3809 11.0938 14.4238 11.0938 13.2324L11.0938 12.2461L8.81836 12.2461L8.81836 13.2324C8.81836 14.4238 7.87109 15.3809 6.67969 15.3809ZM6.67969 14.2188C7.19727 14.2188 7.65625 13.7793 7.65625 13.2324L7.65625 12.2461L6.67969 12.2461C6.14258 12.2461 5.70312 12.7051 5.70312 13.2324C5.70312 13.7695 6.15234 14.2188 6.67969 14.2188ZM5.70312 6.70898C5.70312 7.23633 6.14258 7.69531 6.67969 7.69531L7.65625 7.69531L7.65625 6.70898C7.65625 6.17188 7.19727 5.73242 6.67969 5.73242C6.15234 5.73242 5.70312 6.18164 5.70312 6.70898ZM8.81836 11.1133L11.0938 11.1133L11.0938 8.83789L8.81836 8.83789ZM12.2559 13.2324C12.2559 13.7793 12.7148 14.2188 13.2324 14.2188C13.7695 14.2188 14.209 13.7695 14.209 13.2324C14.209 12.7051 13.7793 12.2461 13.2324 12.2461L12.2559 12.2461ZM12.2559 7.69531L13.2324 7.69531C13.7793 7.69531 14.209 7.23633 14.209 6.70898C14.209 6.18164 13.7695 5.73242 13.2324 5.73242C12.7148 5.73242 12.2559 6.17188 12.2559 6.70898Z" fill="white" fill-opacity="0.85"/>
 </g>
</svg>
