<?xml version="1.0" encoding="UTF-8"?>
<!--Generator: Apple Native CoreSVG 341-->
<!DOCTYPE svg
PUBLIC "-//W3C//DTD SVG 1.1//EN"
       "http://www.w3.org/Graphics/SVG/1.1/DTD/svg11.dtd">
<svg version="1.1" xmlns="http://www.w3.org/2000/svg" xmlns:xlink="http://www.w3.org/1999/xlink" viewBox="0 0 36.3574 23.5206">
 <g>
  <rect height="23.5206" opacity="0" width="36.3574" x="0" y="0"/>
  <path d="M2.12891 17.9175L4.59961 18.2007L4.75586 16.6285L2.5 16.3746C1.86523 16.3062 1.57227 16.0132 1.57227 15.4468L1.57227 14.2652C1.57227 12.5855 2.70508 11.5894 4.9707 11.1597L11.2695 9.9683C11.7969 9.87065 12.2363 9.81205 12.5586 9.53861C14.3457 8.02494 16.377 6.65776 18.6133 5.46635C19.5508 4.97807 18.7891 3.64018 17.7832 4.16752C15.4688 5.39799 13.2812 6.82377 11.416 8.37651L4.76562 9.62651C1.5918 10.2222 0 11.6871 0 14.2652L0 15.564C0 17.0288 0.654297 17.7613 2.12891 17.9175ZM7.1875 19.8804C9.13086 19.8804 10.6543 18.357 10.6543 16.4136C10.6543 14.4605 9.13086 12.9371 7.1875 12.9371C5.23438 12.9371 3.71094 14.4605 3.71094 16.4136C3.71094 18.357 5.23438 19.8804 7.1875 19.8804ZM7.1875 18.4058C6.06445 18.4058 5.18555 17.5269 5.18555 16.4136C5.18555 15.2906 6.06445 14.4117 7.1875 14.4117C8.30078 14.4117 9.17969 15.2906 9.17969 16.4136C9.17969 17.5269 8.30078 18.4058 7.1875 18.4058ZM9.61914 17.7515L26.4746 17.7515L26.4746 16.1792L9.61914 16.1792ZM28.8184 19.8804C30.7617 19.8804 32.2852 18.357 32.2852 16.4136C32.2852 14.4605 30.7617 12.9371 28.8184 12.9371C26.8652 12.9371 25.3418 14.4605 25.3418 16.4136C25.3418 18.357 26.8652 19.8804 28.8184 19.8804ZM28.8184 18.4058C27.6953 18.4058 26.8164 17.5269 26.8164 16.4136C26.8164 15.2906 27.6953 14.4117 28.8184 14.4117C29.9316 14.4117 30.8105 15.2906 30.8105 16.4136C30.8105 17.5269 29.9316 18.4058 28.8184 18.4058ZM31.4941 17.5171L33.2031 17.3316C35.0879 17.1363 35.9961 16.0913 35.9961 14.148L35.9961 12.4488C35.9961 10.1343 35.1367 9.14799 32.9297 8.73783L28.3594 7.88822C27.0312 7.63432 25.8789 7.50736 24.2871 7.59526L11.4941 8.37651L11.0352 9.97807L24.209 9.17729C25.498 9.09916 26.6211 9.19682 28.2715 9.51908L32.6465 10.3589C33.9453 10.6031 34.4238 11.1695 34.4238 12.4488L34.4238 14.148C34.4238 15.1538 33.9648 15.691 33.0078 15.7886L31.4941 15.9449Z" fill="white" fill-opacity="0.85"/>
  <path d="M15.8301 18.8355C15.293 18.8355 15.0684 19.2652 15.3516 19.7242L17.4707 23.191C17.7344 23.6402 18.2617 23.6206 18.5254 23.191L20.6543 19.7242C20.9375 19.2652 20.6934 18.8355 20.1758 18.8355Z" fill="white" fill-opacity="0.85"/>
  <path d="M15.9082 15.0562L20.0879 15.0562C20.5859 15.0562 20.8105 14.6558 20.5469 14.2163L18.4961 10.8765C18.252 10.4663 17.7441 10.4566 17.4902 10.8765L15.4492 14.2066C15.1855 14.646 15.4004 15.0562 15.9082 15.0562Z" fill="white" fill-opacity="0.85"/>
 </g>
</svg>
