<svg version="1.1" xmlns="http://www.w3.org/2000/svg" xmlns:xlink="http://www.w3.org/1999/xlink" viewBox="0 0 36.4514 22.4674">
 <g>
  <rect height="22.4674" opacity="0" width="36.4514" x="0" y="0"/>
  <path d="M18.6554 4.93974C17.0953 5.77087 15.6398 6.68753 14.2947 7.68157L24.339 7.06865C25.921 6.98076 27.0831 7.10771 28.4015 7.36162L32.9718 8.21123C35.1788 8.62138 36.0479 9.60771 36.0479 11.9222L36.0479 13.6214C36.0479 15.5647 35.13 16.6097 33.255 16.805L32.1856 16.9204C31.7555 18.3443 30.4503 19.3538 28.8604 19.3538C27.3866 19.3538 26.1574 18.4863 25.6439 17.2249L10.4461 17.2249C9.93263 18.4863 8.70345 19.3538 7.22958 19.3538C5.91773 19.3538 4.79973 18.6665 4.20955 17.6246L2.17099 17.3909C0.696381 17.2347 0.0420837 16.5022 0.0420837 15.0374L0.0420837 13.7386C0.0420837 11.1604 1.64365 9.6956 4.80771 9.0999L11.4679 7.8499C13.3233 6.29716 15.5206 4.87138 17.8253 3.64091C18.8311 3.11357 19.5929 4.45146 18.6554 4.93974ZM5.22763 15.887C5.22763 17.0003 6.1163 17.8792 7.22958 17.8792C8.34286 17.8792 9.23154 17.0003 9.23154 15.887C9.23154 14.764 8.34286 13.8851 7.22958 13.8851C6.1163 13.8851 5.22763 14.764 5.22763 15.887ZM26.8585 15.887C26.8585 17.0003 27.7472 17.8792 28.8604 17.8792C29.9737 17.8792 30.8624 17.0003 30.8624 15.887C30.8624 14.764 29.9737 13.8851 28.8604 13.8851C27.7472 13.8851 26.8585 14.764 26.8585 15.887ZM24.2511 8.65068L11.3443 9.43581C11.3336 9.4377 11.3226 9.43969 11.3116 9.4417L5.01279 10.6331C2.75693 11.0628 1.61435 12.0589 1.61435 13.7386L1.61435 14.9202C1.61435 15.4866 1.90732 15.7796 2.54208 15.8479L3.75781 15.9848C3.75346 15.953 3.75302 15.9201 3.75302 15.887C3.75302 13.9339 5.27646 12.4104 7.22958 12.4104C9.10344 12.4104 10.5818 13.8127 10.6947 15.6526L25.3953 15.6526C25.5083 13.8127 26.9866 12.4104 28.8604 12.4104C30.6265 12.4104 32.0413 13.6561 32.2919 15.3403L33.0499 15.262C34.0069 15.1644 34.4757 14.6272 34.4757 13.6214L34.4757 11.9222C34.4757 10.6429 33.9874 10.0765 32.6983 9.83232L28.3136 8.99248C26.6632 8.67021 25.5401 8.57255 24.2511 8.65068Z" fill="var(--color-secondary)"/>
  <path d="M32.2101 3.33818C33.2061 3.8167 34.0265 2.33232 32.8058 1.77568C30.2179 0.623336 27.2198 0.45732 25.0128 0.672164C24.5538 0.711226 24.2022 1.11162 24.2315 1.5706C24.2706 2.02959 24.6808 2.37138 25.1397 2.34209C27.2686 2.12724 29.9542 2.29326 32.2101 3.33818ZM33.0987 0.486617L31.5265 4.53935C31.2921 5.19365 31.6729 5.53545 32.3175 5.36943L35.9015 4.46123C36.4483 4.33427 36.6046 3.88505 36.2921 3.4456L34.212 0.379195C33.8604-0.138383 33.3526-0.148149 33.0987 0.486617Z" fill="var(--color-primary)"/>
 </g>
</svg>
