<?xml version="1.0" encoding="UTF-8"?>
<!--Generator: Apple Native CoreSVG 341-->
<!DOCTYPE svg
PUBLIC "-//W3C//DTD SVG 1.1//EN"
       "http://www.w3.org/Graphics/SVG/1.1/DTD/svg11.dtd">
<svg version="1.1" xmlns="http://www.w3.org/2000/svg" xmlns:xlink="http://www.w3.org/1999/xlink" viewBox="0 0 36.3574 22.0605">
 <g>
  <rect height="22.0605" opacity="0" width="36.3574" x="0" y="0"/>
  <path d="M8.14453 19.1504C9.79492 19.1504 11.084 17.8613 11.084 16.2207C11.084 14.5801 9.79492 13.291 8.14453 13.291C6.50391 13.291 5.21484 14.5801 5.21484 16.2207C5.21484 17.8613 6.50391 19.1504 8.14453 19.1504ZM28.1152 19.1504C29.7656 19.1504 31.0547 17.8613 31.0547 16.2207C31.0547 14.5801 29.7656 13.291 28.1152 13.291C26.4648 13.291 25.1758 14.5801 25.1758 16.2207C25.1758 17.8613 26.4648 19.1504 28.1152 19.1504ZM21.582 8.78906C21.1035 8.78906 20.7617 8.45703 20.7422 7.95898L20.5469 1.04492C20.5273 0.419922 20.9375 0 21.582 0C22.2266 0 22.6367 0.419922 22.6172 1.04492L22.4121 7.95898C22.3926 8.45703 22.0605 8.78906 21.582 8.78906ZM21.582 13.125C20.8887 13.125 20.3027 12.5586 20.3027 11.8945C20.3027 11.2207 20.8691 10.6641 21.582 10.6641C22.2852 10.6641 22.8613 11.2207 22.8613 11.8945C22.8613 12.5586 22.2754 13.125 21.582 13.125ZM28.3691 7.1582C26.9531 6.89453 25.8594 6.76758 24.2871 6.875L14.209 7.51953C15.5273 6.57227 16.875 5.66406 18.6133 4.73633C19.5508 4.24805 18.7793 2.91016 17.7539 3.45703C15.4297 4.69727 13.252 6.11328 11.416 7.64648L4.76562 8.89648C1.5918 9.49219 0 10.957 0 13.5352L0 14.834C0 16.2988 0.654297 17.0215 2.12891 17.1875L4.08203 17.4219C4.00391 17.1094 3.95508 16.5625 3.95508 16.2207C3.95508 13.9551 5.75195 12.1582 8.02734 12.1582C10.3027 12.1582 12.0996 13.9551 12.0996 16.2207C12.0996 16.5039 12.0801 16.8262 12.0312 17.0215L24.1309 17.0215C24.0625 16.8066 24.0332 16.5137 24.0332 16.2207C24.0332 13.9551 25.8301 12.1582 28.1055 12.1582C30.3809 12.1582 32.1777 14.1504 32.1777 16.416C32.1777 16.543 32.1777 16.5918 32.168 16.709L33.2031 16.6016C35.0879 16.4062 35.9961 15.3613 35.9961 13.418L35.9961 11.7188C35.9961 9.4043 35.1465 8.41797 32.9297 8.00781Z" fill="white" fill-opacity="0.85"/>
 </g>
</svg>
