<?xml version="1.0" encoding="UTF-8"?>
<!--Generator: Apple Native CoreSVG 341-->
<!DOCTYPE svg
PUBLIC "-//W3C//DTD SVG 1.1//EN"
       "http://www.w3.org/Graphics/SVG/1.1/DTD/svg11.dtd">
<svg version="1.1" xmlns="http://www.w3.org/2000/svg" xmlns:xlink="http://www.w3.org/1999/xlink" viewBox="0 0 36.3574 23.5206">
 <g>
  <rect height="23.5206" opacity="0" width="36.3574" x="0" y="0"/>
  <path d="M10.9668 16.9507C10.9668 18.5913 9.67773 19.8804 8.02734 19.8804C6.38672 19.8804 5.09766 18.5913 5.09766 16.9507C5.09766 15.3101 6.38672 14.021 8.02734 14.021C9.67773 14.021 10.9668 15.3101 10.9668 16.9507ZM31.0449 16.9507C31.0449 18.5913 29.7559 19.8804 28.1055 19.8804C26.4551 19.8804 25.166 18.5913 25.166 16.9507C25.166 15.3101 26.4551 14.021 28.1055 14.021C29.7559 14.021 31.0449 15.3101 31.0449 16.9507ZM18.6133 5.46635C16.875 6.39408 15.5273 7.30229 14.209 8.24955L24.2871 7.60502C25.8594 7.4976 26.9531 7.62455 28.3691 7.88822L32.9297 8.73783C35.1465 9.14799 35.9961 10.1343 35.9961 12.4488L35.9961 14.148C35.9961 16.0913 35.0879 17.1363 33.2031 17.3316L32.168 17.439C32.1777 17.3218 32.1777 17.273 32.1777 17.146C32.1777 14.8804 30.3809 12.8882 28.1055 12.8882C25.8301 12.8882 24.0332 14.6851 24.0332 16.9507C24.0332 17.2437 24.0625 17.5367 24.1309 17.7515L12.0312 17.7515C12.0801 17.5562 12.0996 17.2339 12.0996 16.9507C12.0996 14.6851 10.3027 12.8882 8.02734 12.8882C5.75195 12.8882 3.95508 14.6851 3.95508 16.9507C3.95508 17.2925 4.00391 17.8394 4.08203 18.1519L2.12891 17.9175C0.654297 17.7515 0 17.0288 0 15.564L0 14.2652C0 11.6871 1.5918 10.2222 4.76562 9.62651L11.416 8.37651C13.252 6.8433 15.4297 5.42729 17.7539 4.18705C18.7793 3.64018 19.5508 4.97807 18.6133 5.46635ZM17.4902 10.8765L15.459 14.2066C15.1855 14.646 15.4004 15.0562 15.9082 15.0562L20.0879 15.0562C20.5859 15.0562 20.8105 14.6558 20.5469 14.2163L18.4961 10.8765C18.252 10.4663 17.7441 10.4566 17.4902 10.8765Z" fill="white" fill-opacity="0.85"/>
  <path d="M20.6543 19.7242L18.5254 23.191C18.2617 23.6206 17.7344 23.6402 17.4707 23.191L15.3516 19.7242C15.0684 19.2652 15.293 18.8355 15.8301 18.8355L20.1758 18.8355C20.6934 18.8355 20.9375 19.2652 20.6543 19.7242Z" fill="white" fill-opacity="0.85"/>
 </g>
</svg>
