<?xml version="1.0" encoding="UTF-8"?>
<!--Generator: Apple Native CoreSVG 341-->
<!DOCTYPE svg
PUBLIC "-//W3C//DTD SVG 1.1//EN"
       "http://www.w3.org/Graphics/SVG/1.1/DTD/svg11.dtd">
<svg version="1.1" xmlns="http://www.w3.org/2000/svg" xmlns:xlink="http://www.w3.org/1999/xlink" viewBox="0 0 36.3574 16.2402">
 <g>
  <rect height="16.2402" opacity="0" width="36.3574" x="0" y="0"/>
  <path d="M18.6133 1.82617C17.0531 2.65733 15.5928 3.57405 14.2482 4.56814L24.2871 3.95508C25.8789 3.86719 27.0312 3.99414 28.3594 4.24805L32.9297 5.09766C35.1367 5.50781 35.9961 6.49414 35.9961 8.80859L35.9961 10.5078C35.9961 12.4512 35.0879 13.4961 33.2031 13.6914L32.1336 13.8075C31.7036 15.2311 30.4001 16.2402 28.8184 16.2402C27.3445 16.2402 26.1153 15.3727 25.6018 14.1113L10.3944 14.1113C9.88137 15.3727 8.654 16.2402 7.1875 16.2402C5.87565 16.2402 4.75764 15.553 4.16747 14.511L2.12891 14.2773C0.654297 14.1211 0 13.3887 0 11.9238L0 10.625C0 8.04688 1.5918 6.58203 4.76562 5.98633L8.6994 5.24694L9.7376 6.61789L4.9707 7.51953C2.70508 7.94922 1.57227 8.94531 1.57227 10.625L1.57227 11.8066C1.57227 12.373 1.86523 12.666 2.5 12.7344L3.71572 12.8712C3.71138 12.8394 3.71094 12.8065 3.71094 12.7734C3.71094 10.8203 5.23438 9.29688 7.1875 9.29688C9.05198 9.29688 10.5299 10.6992 10.6429 12.5391L25.3532 12.5391C25.4662 10.6992 26.9445 9.29688 28.8184 9.29688C30.576 9.29688 31.9901 10.543 32.2402 12.2277L33.0078 12.1484C33.9648 12.0508 34.4238 11.5137 34.4238 10.5078L34.4238 8.80859C34.4238 7.5293 33.9453 6.96289 32.6465 6.71875L28.2715 5.87891C26.6211 5.55664 25.498 5.45898 24.209 5.53711L14.2175 6.14445L12.4902 3.8868C14.0978 2.66098 15.8984 1.52939 17.7832 0.527344C18.7891 0 19.5508 1.33789 18.6133 1.82617ZM5.18555 12.7734C5.18555 13.8867 6.06445 14.7656 7.1875 14.7656C8.30078 14.7656 9.17969 13.8867 9.17969 12.7734C9.17969 11.6504 8.30078 10.7715 7.1875 10.7715C6.06445 10.7715 5.18555 11.6504 5.18555 12.7734ZM26.8164 12.7734C26.8164 13.8867 27.6953 14.7656 28.8184 14.7656C29.9316 14.7656 30.8105 13.8867 30.8105 12.7734C30.8105 11.6504 29.9316 10.7715 28.8184 10.7715C27.6953 10.7715 26.8164 11.6504 26.8164 12.7734Z" fill="white" fill-opacity="0.425"/>
  <path d="M5.05859 3.51562L7.46094 3.51562C8.53516 3.51562 8.95508 3.70117 9.50195 4.42383L12.5488 8.44727C13.3984 9.54102 14.3262 10.0293 15.7031 10.0293L17.8418 10.0293L17.8418 10.8691C17.8418 11.5527 18.4375 11.7578 18.9453 11.4258L21.4062 9.84375C21.875 9.55078 21.8848 8.95508 21.4062 8.64258L18.9551 7.07031C18.4375 6.72852 17.8418 6.93359 17.8418 7.62695L17.8418 8.45703L15.7031 8.45703C14.7852 8.45703 14.4141 8.27148 13.8086 7.4707L10.7324 3.45703C9.90234 2.37305 8.93555 1.94336 7.46094 1.94336L5.05859 1.94336C4.62891 1.94336 4.26758 2.30469 4.26758 2.73438C4.26758 3.16406 4.62891 3.51562 5.05859 3.51562Z" fill="white" fill-opacity="0.85"/>
 </g>
</svg>
