<?xml version="1.0" encoding="UTF-8"?>
<!--Generator: Apple Native CoreSVG 341-->
<!DOCTYPE svg
PUBLIC "-//W3C//DTD SVG 1.1//EN"
       "http://www.w3.org/Graphics/SVG/1.1/DTD/svg11.dtd">
<svg version="1.1" xmlns="http://www.w3.org/2000/svg" xmlns:xlink="http://www.w3.org/1999/xlink" viewBox="0 0 36.3574 29.5895">
 <g>
  <rect height="29.5895" opacity="0" width="36.3574" x="0" y="0"/>
  <path d="M10.459 27.4949L25.5469 27.4949C25.8496 27.4949 26.1133 27.2313 26.1133 26.9188C26.1133 26.616 25.8496 26.3621 25.5469 26.3621L10.459 26.3621C10.1465 26.3621 9.88281 26.616 9.88281 26.9188C9.88281 27.2313 10.1465 27.4949 10.459 27.4949ZM11.8848 28.8719L11.8848 24.9656C11.8848 24.2918 11.25 24.0477 10.6934 24.4578L8.08594 26.4012C7.72461 26.6649 7.72461 27.1629 8.08594 27.4363L10.6934 29.3895C11.2207 29.7801 11.8848 29.575 11.8848 28.8719ZM24.1211 28.8719C24.1211 29.5555 24.7656 29.7996 25.3125 29.3895L27.9199 27.4363C28.291 27.1629 28.2715 26.6551 27.9199 26.4012L25.3125 24.4578C24.7656 24.0477 24.1211 24.2918 24.1211 24.9656Z" fill="white" fill-opacity="0.85"/>
  <path d="M8.02734 22.9149C9.67773 22.9149 10.9668 21.6258 10.9668 19.9852C10.9668 18.3446 9.67773 17.0555 8.02734 17.0555C6.38672 17.0555 5.09766 18.3446 5.09766 19.9852C5.09766 21.6258 6.38672 22.9149 8.02734 22.9149ZM28.1055 22.9149C29.7559 22.9149 31.0449 21.6258 31.0449 19.9852C31.0449 18.3446 29.7559 17.0555 28.1055 17.0555C26.4551 17.0555 25.166 18.3446 25.166 19.9852C25.166 21.6258 26.4551 22.9149 28.1055 22.9149ZM28.3691 10.9227C26.9531 10.659 25.8594 10.5321 24.2871 10.6395L14.209 11.284C15.5273 10.3367 16.875 9.42854 18.6133 8.5008C19.5508 8.01252 18.7793 6.67463 17.7539 7.2215C15.4297 8.46174 13.252 9.87775 11.416 11.411L4.76562 12.661C1.5918 13.2567 0 14.7215 0 17.2996L0 18.5985C0 20.0633 0.654297 20.786 2.12891 20.952L4.08203 21.1863C4.00391 20.8738 3.95508 20.327 3.95508 19.9852C3.95508 17.7196 5.75195 15.9227 8.02734 15.9227C10.3027 15.9227 12.0996 17.7196 12.0996 19.9852C12.0996 20.2684 12.0801 20.5906 12.0312 20.786L24.1309 20.786C24.0625 20.5711 24.0332 20.2781 24.0332 19.9852C24.0332 17.7196 25.8301 15.9227 28.1055 15.9227C30.3809 15.9227 32.1777 17.9149 32.1777 20.1805C32.1777 20.3074 32.1777 20.3563 32.168 20.4735L33.2031 20.366C35.0879 20.1707 35.9961 19.1258 35.9961 17.1824L35.9961 15.4832C35.9961 13.1688 35.1465 12.1824 32.9297 11.7723Z" fill="white" fill-opacity="0.85"/>
 </g>
</svg>
