<?xml version="1.0" encoding="UTF-8"?>
<!--Generator: Apple Native CoreSVG 341-->
<!DOCTYPE svg
PUBLIC "-//W3C//DTD SVG 1.1//EN"
       "http://www.w3.org/Graphics/SVG/1.1/DTD/svg11.dtd">
<svg version="1.1" xmlns="http://www.w3.org/2000/svg" xmlns:xlink="http://www.w3.org/1999/xlink" viewBox="0 0 36.4514 22.4674">
 <g>
  <rect height="22.4674" opacity="0" width="36.4514" x="0" y="0"/>
  <path d="M8.06943 19.3538C9.71982 19.3538 11.0089 18.0647 11.0089 16.4241C11.0089 14.7835 9.71982 13.4944 8.06943 13.4944C6.4288 13.4944 5.13974 14.7835 5.13974 16.4241C5.13974 18.0647 6.4288 19.3538 8.06943 19.3538ZM28.1476 19.3538C29.7979 19.3538 31.087 18.0647 31.087 16.4241C31.087 14.7835 29.7979 13.4944 28.1476 13.4944C26.5069 13.4944 25.2179 14.7835 25.2179 16.4241C25.2179 18.0647 26.5069 19.3538 28.1476 19.3538ZM28.4112 7.36162C26.9952 7.09795 25.9015 6.97099 24.339 7.07841L14.2511 7.72295C15.5694 6.77568 16.9171 5.86748 18.6554 4.93974C19.6026 4.45146 18.8214 3.11357 17.8058 3.66045C15.4718 4.90068 13.294 6.3167 11.4679 7.8499L4.80771 9.0999C1.64365 9.6956 0.0420837 11.1604 0.0420837 13.7386L0.0420837 15.0374C0.0420837 16.5022 0.696381 17.2249 2.17099 17.3909L4.12411 17.6253C4.04599 17.3128 3.99716 16.7659 3.99716 16.4241C3.99716 14.1585 5.8038 12.3616 8.06943 12.3616C10.3448 12.3616 12.1515 14.1585 12.1515 16.4241C12.1515 16.7073 12.1222 17.0296 12.0733 17.2249L24.1729 17.2249C24.1143 17.0101 24.0753 16.7171 24.0753 16.4241C24.0753 14.1585 25.8819 12.3616 28.1476 12.3616C30.4229 12.3616 32.2198 14.3538 32.2198 16.6194C32.2198 16.7464 32.2198 16.7952 32.2101 16.9124L33.255 16.805C35.13 16.6097 36.0479 15.5647 36.0479 13.6214L36.0479 11.9222C36.0479 9.60771 35.1886 8.62138 32.9718 8.21123Z" fill="white" fill-opacity="0.85"/>
  <path d="M32.2101 3.33818C33.2061 3.8167 34.0265 2.33232 32.8058 1.77568C30.2179 0.623336 27.2198 0.45732 25.0128 0.672164C24.5538 0.711226 24.2022 1.11162 24.2315 1.5706C24.2706 2.02959 24.6808 2.37138 25.1397 2.34209C27.2686 2.12724 29.9542 2.29326 32.2101 3.33818ZM33.0987 0.486617L31.5265 4.53935C31.2921 5.19365 31.6729 5.53545 32.3175 5.36943L35.9015 4.46123C36.4483 4.33427 36.6046 3.88505 36.2921 3.4456L34.212 0.379195C33.8604-0.138383 33.3526-0.148149 33.0987 0.486617Z" fill="white" fill-opacity="0.85"/>
 </g>
</svg>
