<?xml version="1.0" encoding="UTF-8"?>
<!--Generator: Apple Native CoreSVG 341-->
<!DOCTYPE svg
PUBLIC "-//W3C//DTD SVG 1.1//EN"
       "http://www.w3.org/Graphics/SVG/1.1/DTD/svg11.dtd">
<svg version="1.1" xmlns="http://www.w3.org/2000/svg" xmlns:xlink="http://www.w3.org/1999/xlink" viewBox="0 0 34.1417 25.6484">
 <g>
  <rect height="25.6484" opacity="0" width="34.1417" x="0" y="0"/>
  <path d="M8.48684 19.1962L10.3325 18.3857L9.8052 17.2236L8.12551 17.956C7.647 18.1709 7.32473 18.083 7.10012 17.6826L6.62161 16.8525C5.93801 15.6806 6.3384 14.5185 7.74465 13.2978L11.6802 9.9189C12.0122 9.62594 12.2954 9.41109 12.4126 9.08883C13.0572 7.30172 13.9165 5.52437 15.0103 3.78609C15.4693 3.05367 14.3853 2.42867 13.897 3.20992C12.774 5.0068 11.8169 6.89156 11.1431 8.73726L6.97317 12.3115C5.00051 14.0107 4.47317 15.6806 5.51809 17.497L6.03567 18.4052C6.63137 19.4306 7.38333 19.6748 8.48684 19.1962ZM12.8325 18.5224C14.1997 17.7314 14.649 16.0517 13.8579 14.6845C13.0669 13.3173 11.3872 12.8584 10.02 13.6494C8.65286 14.4404 8.20364 16.1298 8.98489 17.497C9.7759 18.8642 11.4654 19.3134 12.8325 18.5224ZM12.2368 17.4873C11.4458 17.9365 10.479 17.6826 10.02 16.9013C9.57083 16.1103 9.8345 15.1435 10.6157 14.6845C11.397 14.2353 12.3736 14.499 12.8228 15.2802C13.2818 16.0615 13.0181 17.038 12.2368 17.4873ZM13.6724 16.042L25.4986 9.21578L24.8638 8.11226L13.0376 14.9384ZM28.0083 9.76265C29.3755 8.97164 29.8247 7.29195 29.0337 5.92476C28.2427 4.55758 26.563 4.09859 25.1958 4.88961C23.8286 5.68062 23.3697 7.37008 24.1607 8.73726C24.9517 10.1045 26.6411 10.5537 28.0083 9.76265ZM27.4029 8.7275C26.6216 9.17672 25.645 8.92281 25.1958 8.1318C24.7466 7.35055 25.0103 6.37398 25.7915 5.92476C26.5728 5.47555 27.5493 5.73922 27.9986 6.52047C28.4478 7.30172 28.1939 8.27828 27.4029 8.7275ZM28.9263 7.01851L30.0493 6.1982C31.2896 5.29976 31.5142 4.19625 30.7232 2.82906L30.0298 1.63765C29.0923 0.0165608 28.0865-0.325236 26.3775 0.280233L22.8228 1.53023C21.7876 1.89156 20.9282 2.27242 19.854 2.97555L11.1919 8.70797L11.524 10.0166L20.44 4.11812C21.3091 3.54195 22.1392 3.15133 23.4282 2.71187L26.8365 1.53023C27.8423 1.17867 28.4087 1.37398 28.9263 2.27242L29.6197 3.46383C30.02 4.16695 29.9224 4.73336 29.2876 5.19234L28.2818 5.915Z" fill="white" fill-opacity="0.85"/>
  <path d="M6.0845 25.1728C6.31887 25.5634 6.79739 25.6904 7.15872 25.4755L33.3892 10.3486C33.7505 10.1435 33.8872 9.65523 33.6822 9.2939C33.4478 8.90328 32.9595 8.77633 32.6079 8.99117L6.3677 24.1181C6.01614 24.333 5.87942 24.8212 6.0845 25.1728Z" fill="white" fill-opacity="0.85"/>
  <path d="M4.39505 20.3877L2.35403 16.833C2.01223 16.2275 1.31887 16.3837 1.12356 16.9697L0.0493421 19.9775C-0.0971423 20.3974 0.0884046 20.7295 0.527858 20.8076L3.66262 21.3837C4.27786 21.5107 4.74661 20.9834 4.39505 20.3877Z" fill="white" fill-opacity="0.85"/>
 </g>
</svg>
