<svg version="1.1" xmlns="http://www.w3.org/2000/svg" xmlns:xlink="http://www.w3.org/1999/xlink" viewBox="0 0 19.6582 16.2402">
 <g>
  <rect height="16.2402" opacity="0" width="19.6582" x="0" y="0"/>
  <path d="M1.29883 1.95312L4.4043 1.95312C4.77539 1.95312 5.05859 2.05078 5.2832 2.27539L8.75 5.74219L10.1172 5.04883L6.42578 1.35742C5.85938 0.791016 5.11719 0.546875 4.23828 0.546875L1.29883 0.546875C0.849609 0.546875 0.566406 0.830078 0.566406 1.25C0.566406 1.66992 0.849609 1.95312 1.29883 1.95312ZM8.02734 16.2402C9.67773 16.2402 10.9668 14.9512 10.9668 13.3105C10.9668 11.6699 9.67773 10.3809 8.02734 10.3809C6.38672 10.3809 5.09766 11.6699 5.09766 13.3105C5.09766 14.9512 6.38672 16.2402 8.02734 16.2402ZM14.209 4.61914C15.5273 3.67188 16.875 2.75391 18.6133 1.82617C19.5508 1.33789 18.7793 0 17.7539 0.546875C15.4297 1.78711 13.252 3.20312 11.416 4.73633L4.76562 5.98633C1.5918 6.58203 0 8.04688 0 10.625L0 11.9238C0 13.3887 0.654297 14.1113 2.12891 14.2773L4.08203 14.5117C4.00391 14.1992 3.95508 13.6523 3.95508 13.3105C3.95508 11.0449 5.75195 9.24805 8.02734 9.24805C10.3027 9.24805 12.0996 11.0449 12.0996 13.3105C12.0996 13.5938 12.0801 13.916 12.0312 14.1113L19.2969 14.1113L19.2969 4.29688Z" fill="var(--color-primary)"/>
 </g>
</svg>
