<?xml version="1.0" encoding="UTF-8"?>
<!--Generator: Apple Native CoreSVG 341-->
<!DOCTYPE svg
PUBLIC "-//W3C//DTD SVG 1.1//EN"
       "http://www.w3.org/Graphics/SVG/1.1/DTD/svg11.dtd">
<svg version="1.1" xmlns="http://www.w3.org/2000/svg" xmlns:xlink="http://www.w3.org/1999/xlink" viewBox="0 0 20.0098 19.6582">
 <g>
  <rect height="19.6582" opacity="0" width="20.0098" x="0" y="0"/>
  <path d="M0 13.0664C0 13.5352 0.3125 13.8574 0.78125 13.8574L1.78711 13.8574L1.78711 17.0996C1.78711 17.5684 2.09961 17.8711 2.56836 17.8711L5.80078 17.8711L5.80078 18.877C5.80078 19.3457 6.12305 19.6582 6.5918 19.6582C7.06055 19.6582 7.37305 19.3457 7.37305 18.877L7.37305 17.8711L9.04297 17.8711L9.04297 18.877C9.04297 19.3457 9.35547 19.6582 9.82422 19.6582C10.293 19.6582 10.6152 19.3457 10.6152 18.877L10.6152 17.8711L12.2754 17.8711L12.2754 18.877C12.2754 19.3457 12.5879 19.6582 13.0566 19.6582C13.5352 19.6582 13.8477 19.3457 13.8477 18.877L13.8477 17.8711L17.0801 17.8711C17.5488 17.8711 17.8613 17.5684 17.8613 17.0996L17.8613 13.8477L18.8672 13.8477C19.3359 13.8477 19.6484 13.5254 19.6484 13.0566C19.6484 12.5879 19.3359 12.2754 18.8672 12.2754L17.8613 12.2754L17.8613 10.6055L18.8672 10.6055C19.3359 10.6055 19.6484 10.293 19.6484 9.82422C19.6484 9.35547 19.3359 9.0332 18.8672 9.0332L17.8613 9.0332L17.8613 7.37305L18.8672 7.37305C19.3359 7.37305 19.6484 7.05078 19.6484 6.58203C19.6484 6.11328 19.3359 5.80078 18.8672 5.80078L17.8613 5.80078L17.8613 2.57812C17.8613 2.10938 17.5488 1.79688 17.0801 1.79688L13.8477 1.79688L13.8477 0.800781C13.8477 0.332031 13.5352 0.00976562 13.0566 0.00976562C12.5879 0.00976562 12.2754 0.332031 12.2754 0.800781L12.2754 1.79688L10.6152 1.79688L10.6152 0.800781C10.6152 0.332031 10.293 0.00976562 9.82422 0.00976562C9.35547 0.00976562 9.04297 0.332031 9.04297 0.800781L9.04297 1.79688L7.37305 1.79688L7.37305 0.800781C7.37305 0.332031 7.06055 0.00976562 6.5918 0.00976562C6.12305 0.00976562 5.80078 0.332031 5.80078 0.800781L5.80078 1.79688L2.56836 1.79688C2.09961 1.79688 1.78711 2.10938 1.78711 2.57812L1.78711 5.81055L0.78125 5.81055C0.3125 5.81055 0 6.12305 0 6.5918C0 7.06055 0.3125 7.38281 0.78125 7.38281L1.78711 7.38281L1.78711 9.04297L0.78125 9.04297C0.3125 9.04297 0 9.36523 0 9.83398C0 10.3027 0.3125 10.6152 0.78125 10.6152L1.78711 10.6152L1.78711 12.2852L0.78125 12.2852C0.3125 12.2852 0 12.5977 0 13.0664ZM6.09375 14.3457C5.57617 14.3457 5.32227 14.1016 5.32227 13.5645L5.32227 6.10352C5.32227 5.57617 5.57617 5.33203 6.09375 5.33203L13.5742 5.33203C14.0918 5.33203 14.3359 5.57617 14.3359 6.10352L14.3359 13.5645C14.3359 14.1016 14.0918 14.3457 13.5742 14.3457ZM6.65039 12.7734C6.65039 12.9199 6.74805 13.0176 6.89453 13.0176L12.7637 13.0176C12.9199 13.0176 13.0078 12.9199 13.0078 12.7734L13.0078 6.9043C13.0078 6.74805 12.9199 6.66016 12.7637 6.66016L6.89453 6.66016C6.74805 6.66016 6.65039 6.74805 6.65039 6.9043Z" fill="white" fill-opacity="0.85"/>
 </g>
</svg>
