<?xml version="1.0" encoding="UTF-8"?>
<!--Generator: Apple Native CoreSVG 341-->
<!DOCTYPE svg
PUBLIC "-//W3C//DTD SVG 1.1//EN"
       "http://www.w3.org/Graphics/SVG/1.1/DTD/svg11.dtd">
<svg version="1.1" xmlns="http://www.w3.org/2000/svg" xmlns:xlink="http://www.w3.org/1999/xlink" viewBox="0 0 20.6543 20.3027">
 <g>
  <rect height="20.3027" opacity="0" width="20.6543" x="0" y="0"/>
  <path d="M0 12.0898C0 13.2129 0.771484 13.9648 1.9043 13.9648L6.31836 13.9648L6.31836 18.3887C6.31836 19.5215 7.07031 20.2832 8.19336 20.2832L12.0996 20.2832C13.2227 20.2832 13.9746 19.5215 13.9746 18.3887L13.9746 13.9648L18.3984 13.9648C19.5312 13.9648 20.293 13.2129 20.293 12.0898L20.293 8.18359C20.293 7.06055 19.5312 6.30859 18.3984 6.30859L13.9746 6.30859L13.9746 1.89453C13.9746 0.761719 13.2227 0 12.0996 0L8.19336 0C7.07031 0 6.31836 0.761719 6.31836 1.89453L6.31836 6.30859L1.89453 6.30859C0.761719 6.30859 0 7.06055 0 8.18359Z" fill="white" fill-opacity="0.85"/>
 </g>
</svg>
