<?xml version="1.0" encoding="UTF-8"?>
<!--Generator: Apple Native CoreSVG 341-->
<!DOCTYPE svg
PUBLIC "-//W3C//DTD SVG 1.1//EN"
       "http://www.w3.org/Graphics/SVG/1.1/DTD/svg11.dtd">
<svg version="1.1" xmlns="http://www.w3.org/2000/svg" xmlns:xlink="http://www.w3.org/1999/xlink" viewBox="0 0 22.168 20.8496">
 <g>
  <rect height="20.8496" opacity="0" width="22.168" x="0" y="0"/>
  <path d="M12.0996 0.341797L20.4395 5.15625C20.8008 5.36133 20.9668 5.61523 20.9668 5.9082C20.9668 6.30859 20.6543 6.69922 20.1172 6.69922L19.2578 6.69922L19.2578 17.9297L19.8828 17.9297C20.2832 17.9297 20.5078 18.1641 20.5078 18.5547L20.5078 19.2676L21.0156 19.2676C21.4453 19.2676 21.8066 19.6191 21.8066 20.0488C21.8066 20.4785 21.4453 20.8398 21.0156 20.8398L0.78125 20.8398C0.351562 20.8398 0 20.4785 0 20.0488C0 19.6191 0.351562 19.2676 0.78125 19.2676L1.29883 19.2676L1.29883 18.5547C1.29883 18.1641 1.5332 17.9297 1.93359 17.9297L2.54883 17.9297L2.54883 6.69922L1.68945 6.69922C1.15234 6.69922 0.839844 6.30859 0.839844 5.9082C0.839844 5.61523 0.996094 5.36133 1.36719 5.15625L9.70703 0.341797C10.0781 0.117188 10.498 0 10.8984 0C11.2988 0 11.709 0.117188 12.0996 0.341797ZM7.00195 11.1719C7.00195 13.6816 8.34961 15.6836 10.957 15.6836C12.4902 15.6836 13.877 14.9512 14.3262 13.623C14.3945 13.4668 14.4043 13.3398 14.4043 13.1836C14.4043 12.8613 14.1895 12.6758 13.8672 12.6758C13.5547 12.6758 13.3887 12.8418 13.291 13.125C12.9688 14.1309 12.0703 14.6289 11.084 14.668L11.084 13.1641C11.084 12.207 11.7578 11.5625 12.7051 11.5625C12.8711 11.5625 13.0078 11.6016 13.0957 11.6016C13.3008 11.6016 13.4473 11.5039 13.4473 11.2695C13.4473 11.1328 13.3691 11.0059 13.2422 10.9375C13.1152 10.8496 12.8809 10.8105 12.6953 10.8105C11.9238 10.8105 11.2988 11.2988 11.0938 11.9336L11.0742 11.9336L11.0742 11.1816C11.0742 10.9668 10.9375 10.8301 10.7422 10.8301C10.5273 10.8301 10.4004 10.9668 10.4004 11.1816L10.4004 14.6094C8.91602 14.3066 8.25195 12.8027 8.25195 11.1719C8.25195 9.33594 9.12109 7.72461 10.9668 7.72461C12.0215 7.72461 12.9297 8.33008 13.2324 9.26758C13.3398 9.56055 13.4961 9.72656 13.7891 9.72656C14.0918 9.72656 14.3359 9.52148 14.3359 9.20898C14.3359 9.0918 14.3066 8.91602 14.248 8.75977C13.7695 7.46094 12.4414 6.67969 10.957 6.67969C8.4668 6.67969 7.00195 8.57422 7.00195 11.1719Z" fill="white" fill-opacity="0.85"/>
 </g>
</svg>
