<svg version="1.1" xmlns="http://www.w3.org/2000/svg" xmlns:xlink="http://www.w3.org/1999/xlink" viewBox="0 0 19.9609 21.9873">
 <g>
  <rect height="21.9873" opacity="0" width="19.9609" x="0" y="0"/>
  <path d="M9.01367 3.78174L10.5859 3.78174L10.5859 0.803223L9.01367 0.803223ZM9.01367 7.36572L10.5859 7.36572L10.5859 4.77783L9.01367 4.77783ZM1.24023 17.1313L3.69141 15.7251L2.86133 14.3481L0.585938 15.647ZM4.54102 15.2368L6.79688 13.9575L5.98633 12.5708L3.74023 13.8501ZM15.9082 15.7251L18.3594 17.1313L19.0137 15.647L16.7383 14.3481ZM12.8027 13.9575L15.0684 15.2368L15.8594 13.8501L13.6133 12.5708ZM7.66602 13.4692L9.80469 12.2485L11.9434 13.4692L12.7539 12.0923L10.5859 10.8521L10.5859 8.35205L9.01367 8.35205L9.01367 10.8521L6.8457 12.0923ZM1.11328 17.2876L8.69141 21.6724C9.39453 22.0825 10.2051 22.0825 10.918 21.6724L18.4863 17.2876C19.1895 16.8872 19.5996 16.1743 19.5996 15.3638L19.5996 6.61377C19.5996 5.80322 19.1895 5.09033 18.4863 4.68018L10.918 0.314941C10.2051-0.10498 9.39453-0.10498 8.69141 0.314941L1.11328 4.68018C0.410156 5.09033 0 5.80322 0 6.61377L0 15.3638C0 16.1743 0.410156 16.8872 1.11328 17.2876ZM9.01367 20.0317C8.94531 20.0024 8.93555 19.9927 8.85742 19.9438L2.14844 16.0669C1.78711 15.8521 1.57227 15.4907 1.57227 15.0806L1.57227 7.5708L9.01367 11.7993ZM9.80469 10.4028L2.06055 5.99854C2.10938 5.94971 2.12891 5.92041 2.2168 5.87158L9.22852 1.81885C9.58984 1.604 10.0098 1.604 10.3711 1.81885L17.3926 5.87158C17.4707 5.92041 17.4902 5.94971 17.5391 5.99854ZM10.5859 20.0317L10.5859 11.7993L18.0273 7.5708L18.0273 15.0806C18.0273 15.4907 17.8223 15.8521 17.4609 16.0669L10.8008 19.9146C10.6934 19.9731 10.6836 19.9829 10.5859 20.0317Z" fill="var(--color-primary)"/>
 </g>
</svg>
