<?xml version="1.0" encoding="UTF-8"?>
<!--Generator: Apple Native CoreSVG 341-->
<!DOCTYPE svg
PUBLIC "-//W3C//DTD SVG 1.1//EN"
       "http://www.w3.org/Graphics/SVG/1.1/DTD/svg11.dtd">
<svg version="1.1" xmlns="http://www.w3.org/2000/svg" xmlns:xlink="http://www.w3.org/1999/xlink" viewBox="0 0 20.2832 19.9316">
 <g>
  <rect height="19.9316" opacity="0" width="20.2832" x="0" y="0"/>
  <path d="M19.9219 9.96094C19.9219 15.4492 15.459 19.9219 9.96094 19.9219C4.47266 19.9219 0 15.4492 0 9.96094C0 4.46289 4.47266 0 9.96094 0C15.459 0 19.9219 4.46289 19.9219 9.96094ZM4.70703 7.7832L4.70703 12.3633C4.70703 12.8027 4.92188 13.1738 5.30273 13.3984L9.36523 15.7422C9.42383 15.7715 9.46289 15.8105 9.52148 15.8301L9.52148 10.4395L4.70703 7.69531C4.70703 7.71484 4.70703 7.75391 4.70703 7.7832ZM10.4004 10.4395L10.4004 15.8301C10.4492 15.8105 10.5078 15.7812 10.5566 15.7422L14.6191 13.3984C15 13.1738 15.2246 12.8027 15.2246 12.3633L15.2246 7.77344C15.2246 7.75391 15.2246 7.71484 15.2246 7.68555ZM9.36523 4.27734L5.30273 6.63086C5.17578 6.68945 5.08789 6.76758 5.00977 6.86523L9.96094 9.67773L14.9219 6.85547C14.8438 6.76758 14.7461 6.68945 14.6191 6.63086L10.5566 4.27734C10.1855 4.05273 9.74609 4.05273 9.36523 4.27734Z" fill="white" fill-opacity="0.85"/>
 </g>
</svg>
