<?xml version="1.0" encoding="UTF-8"?>
<!--Generator: Apple Native CoreSVG 341-->
<!DOCTYPE svg
PUBLIC "-//W3C//DTD SVG 1.1//EN"
       "http://www.w3.org/Graphics/SVG/1.1/DTD/svg11.dtd">
<svg version="1.1" xmlns="http://www.w3.org/2000/svg" xmlns:xlink="http://www.w3.org/1999/xlink" viewBox="0 0 23.8867 19.5071">
 <g>
  <rect height="19.5071" opacity="0" width="23.8867" x="0" y="0"/>
  <path d="M23.5254 11.7116C23.5254 5.55921 18.7988 0.510381 12.7832 0.00256812C12.4707-0.0267288 12.2363 0.197881 12.2363 0.510381L12.2363 3.70374C12.2363 3.96741 12.4219 4.17249 12.6855 4.19202C16.4258 4.65101 19.3359 7.84436 19.3359 11.7116C19.3359 13.4694 18.7305 15.0905 17.666 16.4479C17.5293 16.6139 17.5391 16.8287 17.6855 16.985L20.0195 19.3092C20.2344 19.5241 20.5664 19.5241 20.7617 19.2897C22.4902 17.2389 23.5254 14.5924 23.5254 11.7116Z" fill="white" fill-opacity="0.425"/>
  <path d="M0 11.7116C0 14.6022 1.03516 17.2487 2.76367 19.2994C2.95898 19.5338 3.28125 19.5241 3.50586 19.3092L5.83984 16.985C5.98633 16.8287 5.99609 16.6139 5.85938 16.4479C4.78516 15.0905 4.18945 13.4694 4.18945 11.7116C4.18945 7.84436 7.09961 4.65101 10.8398 4.19202C11.1035 4.17249 11.2891 3.96741 11.2891 3.70374L11.2891 0.510381C11.2891 0.197881 11.0547-0.0267288 10.7422 0.00256812C4.72656 0.510381 0 5.55921 0 11.7116Z" fill="white" fill-opacity="0.425"/>
  <path d="M8.06641 15.8424C8.37891 15.8424 8.59375 15.6178 8.59375 15.276L8.59375 13.6256L9.16992 13.069L10.957 15.569C11.0742 15.735 11.2305 15.8424 11.4355 15.8424C11.7188 15.8424 11.9531 15.6373 11.9531 15.3639C11.9531 15.2272 11.8848 15.11 11.7969 14.983L9.93164 12.4049L11.6699 10.5787C11.7969 10.4323 11.8652 10.3541 11.8652 10.1881C11.8652 9.93421 11.6602 9.71936 11.3867 9.71936C11.2402 9.71936 11.0645 9.81702 10.9668 9.92444L8.62305 12.4928L8.59375 12.4928L8.59375 7.99085C8.59375 7.64905 8.37891 7.41468 8.06641 7.41468C7.74414 7.41468 7.51953 7.63929 7.51953 7.98108L7.51953 15.276C7.51953 15.6178 7.74414 15.8424 8.06641 15.8424ZM13.5645 15.8424C13.8086 15.8424 14.082 15.6959 14.082 15.276L14.082 12.2194C14.082 11.5162 14.3457 10.7545 15.1855 10.7545C15.3809 10.7545 15.5762 10.7252 15.7227 10.6373C15.8496 10.569 15.9277 10.4518 15.9277 10.276C15.9277 9.91468 15.6543 9.71936 15.293 9.71936C14.668 9.71936 14.2383 10.2662 14.0918 10.8912L14.0332 10.8912L14.0332 10.2662C14.0332 9.95374 13.8184 9.71936 13.5449 9.71936C13.2617 9.71936 13.0469 9.95374 13.0469 10.2662L13.0469 15.276C13.0469 15.6178 13.2324 15.8424 13.5645 15.8424ZM16.2109 15.7252C16.6113 15.7252 16.9043 15.442 16.9043 15.0416C16.9043 14.6412 16.6113 14.3483 16.2109 14.3483C15.8008 14.3483 15.5176 14.6412 15.5176 15.0416C15.5176 15.442 15.8008 15.7252 16.2109 15.7252Z" fill="white" fill-opacity="0.85"/>
 </g>
</svg>
