<svg version="1.1" xmlns="http://www.w3.org/2000/svg" xmlns:xlink="http://www.w3.org/1999/xlink" viewBox="0 0 24.0651 19.9316">
 <g>
  <rect height="19.9316" opacity="0" width="24.0651" x="0" y="0"/>
  <path d="M0.694677 8.07617C-0.00844799 8.07617-0.184229 8.55469 0.19663 9.10156L2.38413 12.207C2.7064 12.6562 3.17515 12.6465 3.48765 12.207L5.66538 9.0918C6.04624 8.55469 5.86069 8.07617 5.1771 8.07617ZM21.8177 9.96094C21.8177 4.46289 17.3548 0 11.8568 0C6.35874 0 1.90561 4.45312 1.89585 9.9707C1.90561 10.4297 2.26694 10.791 2.71616 10.791C3.17515 10.791 3.55601 10.4199 3.55601 9.96094C3.55601 5.37109 7.26694 1.66016 11.8568 1.66016C16.4466 1.66016 20.1576 5.37109 20.1576 9.96094C20.1576 14.5508 16.4466 18.2617 11.8568 18.2617C9.07358 18.2617 6.62241 16.8945 5.13804 14.8242C4.8353 14.4238 4.37632 14.2969 3.96616 14.541C3.57554 14.7852 3.45835 15.3418 3.79038 15.7715C5.60679 18.291 8.50718 19.9219 11.8568 19.9219C17.3548 19.9219 21.8177 15.459 21.8177 9.96094Z" fill="var(--color-secondary)"/>
  <path d="M8.16538 13.9648C8.48765 13.9648 8.70249 13.7305 8.70249 13.3984L8.70249 11.748L9.2689 11.1914L11.0658 13.6914C11.183 13.8574 11.3294 13.9648 11.5443 13.9648C11.8275 13.9648 12.0521 13.7598 12.0521 13.4863C12.0521 13.3496 11.9935 13.2227 11.9056 13.1055L10.0404 10.5273L11.7787 8.69141C11.9056 8.55469 11.974 8.47656 11.974 8.30078C11.974 8.05664 11.7591 7.8418 11.4955 7.8418C11.3392 7.8418 11.1732 7.92969 11.0755 8.04688L8.73179 10.6055L8.70249 10.6055L8.70249 6.10352C8.70249 5.77148 8.48765 5.52734 8.16538 5.52734C7.85288 5.52734 7.62827 5.76172 7.62827 6.09375L7.62827 13.3984C7.62827 13.7305 7.85288 13.9648 8.16538 13.9648ZM13.6732 13.9648C13.9076 13.9648 14.181 13.8184 14.181 13.3984L14.181 10.332C14.181 9.63867 14.4544 8.86719 15.2845 8.86719C15.4896 8.86719 15.6849 8.84766 15.8314 8.75977C15.9583 8.69141 16.0267 8.56445 16.0267 8.38867C16.0267 8.03711 15.7533 7.8418 15.4017 7.8418C14.7669 7.8418 14.3373 8.37891 14.2005 9.01367L14.1419 9.01367L14.1419 8.37891C14.1419 8.07617 13.9271 7.8418 13.6537 7.8418C13.3705 7.8418 13.1556 8.07617 13.1556 8.37891L13.1556 13.3984C13.1556 13.7402 13.3412 13.9648 13.6732 13.9648ZM16.3197 13.8477C16.7201 13.8477 17.0033 13.5547 17.0033 13.1641C17.0033 12.7539 16.7201 12.4707 16.3197 12.4707C15.9095 12.4707 15.6263 12.7539 15.6263 13.1641C15.6263 13.5547 15.9095 13.8477 16.3197 13.8477Z" fill="var(--color-primary)"/>
 </g>
</svg>
