<?xml version="1.0" encoding="UTF-8"?>
<!--Generator: Apple Native CoreSVG 341-->
<!DOCTYPE svg
PUBLIC "-//W3C//DTD SVG 1.1//EN"
       "http://www.w3.org/Graphics/SVG/1.1/DTD/svg11.dtd">
<svg version="1.1" xmlns="http://www.w3.org/2000/svg" xmlns:xlink="http://www.w3.org/1999/xlink" viewBox="0 0 22.168 20.8496">
 <g>
  <rect height="20.8496" opacity="0" width="22.168" x="0" y="0"/>
  <path d="M12.0996 0.341797L20.4395 5.15625C20.8008 5.36133 20.9668 5.61523 20.9668 5.9082C20.9668 6.30859 20.6543 6.69922 20.1172 6.69922L19.2578 6.69922L19.2578 17.9297L19.8828 17.9297C20.2832 17.9297 20.5078 18.1641 20.5078 18.5547L20.5078 19.2676L21.0156 19.2676C21.4453 19.2676 21.8066 19.6191 21.8066 20.0488C21.8066 20.4785 21.4453 20.8398 21.0156 20.8398L0.78125 20.8398C0.351562 20.8398 0 20.4785 0 20.0488C0 19.6191 0.351562 19.2676 0.78125 19.2676L1.29883 19.2676L1.29883 18.5547C1.29883 18.1641 1.5332 17.9297 1.93359 17.9297L2.54883 17.9297L2.54883 6.69922L1.68945 6.69922C1.15234 6.69922 0.839844 6.30859 0.839844 5.9082C0.839844 5.61523 0.996094 5.36133 1.36719 5.15625L9.70703 0.341797C10.0781 0.117188 10.498 0 10.8984 0C11.2988 0 11.709 0.117188 12.0996 0.341797ZM6.9043 7.48047L6.9043 14.4043C6.9043 14.7363 7.10938 14.9512 7.42188 14.9512C7.71484 14.9512 7.92969 14.7363 7.92969 14.4043L7.92969 12.8516L8.4668 12.3145L10.166 14.6875C10.2734 14.8535 10.4297 14.9512 10.625 14.9512C10.8984 14.9512 11.1133 14.7559 11.1133 14.502C11.1133 14.3652 11.0547 14.248 10.9668 14.1309L9.19922 11.6797L10.8496 9.95117C10.9766 9.81445 11.0352 9.73633 11.0352 9.58008C11.0352 9.33594 10.8301 9.13086 10.5762 9.13086C10.4297 9.13086 10.2637 9.21875 10.1758 9.32617L7.95898 11.7578L7.92969 11.7578L7.92969 7.49023C7.92969 7.1582 7.71484 6.94336 7.42188 6.94336C7.10938 6.94336 6.9043 7.14844 6.9043 7.48047ZM13.1445 10.2539L13.0957 10.2539L13.0957 9.64844C13.0957 9.35547 12.9004 9.13086 12.6367 9.13086C12.3535 9.13086 12.1582 9.35547 12.1582 9.64844L12.1582 14.4043C12.1582 14.7363 12.3242 14.9512 12.6562 14.9512C12.8711 14.9512 13.1348 14.8145 13.1348 14.4043L13.1348 11.5039C13.1348 10.8496 13.3887 10.1172 14.1895 10.1172C14.3848 10.1172 14.5605 10.0977 14.707 10.0098C14.8242 9.94141 14.8926 9.82422 14.8926 9.6582C14.8926 9.31641 14.6387 9.13086 14.2871 9.13086C13.6914 9.13086 13.291 9.64844 13.1445 10.2539ZM14.4922 14.1797C14.4922 14.5703 14.7656 14.834 15.166 14.834C15.5469 14.834 15.8203 14.5703 15.8203 14.1797C15.8203 13.7988 15.5469 13.5254 15.166 13.5254C14.7656 13.5254 14.4922 13.7988 14.4922 14.1797Z" fill="white" fill-opacity="0.85"/>
 </g>
</svg>
