<?xml version="1.0" encoding="UTF-8"?>
<!--Generator: Apple Native CoreSVG 341-->
<!DOCTYPE svg
PUBLIC "-//W3C//DTD SVG 1.1//EN"
       "http://www.w3.org/Graphics/SVG/1.1/DTD/svg11.dtd">
<svg version="1.1" xmlns="http://www.w3.org/2000/svg" xmlns:xlink="http://www.w3.org/1999/xlink" viewBox="0 0 20.2832 19.9316">
 <g>
  <rect height="19.9316" opacity="0" width="20.2832" x="0" y="0"/>
  <path d="M9.96094 19.9219C15.459 19.9219 19.9219 15.4492 19.9219 9.96094C19.9219 4.46289 15.459 0 9.96094 0C4.47266 0 0 4.46289 0 9.96094C0 15.4492 4.47266 19.9219 9.96094 19.9219Z" fill="white" fill-opacity="0.2125"/>
  <path d="M6.15234 14.082C5.82031 14.082 5.5957 13.8477 5.5957 13.4961L5.5957 5.97656C5.5957 5.625 5.82031 5.39062 6.15234 5.39062C6.48438 5.39062 6.70898 5.63477 6.70898 5.98633L6.70898 10.6152L6.73828 10.6152L9.15039 7.98828C9.24805 7.86133 9.42383 7.77344 9.58008 7.77344C9.85352 7.77344 10.0781 7.99805 10.0781 8.25195C10.0781 8.42773 10.0098 8.51562 9.87305 8.65234L8.08594 10.5371L10.0098 13.1934C10.0977 13.3203 10.1562 13.4473 10.1562 13.5938C10.1562 13.877 9.93164 14.082 9.62891 14.082C9.41406 14.082 9.25781 13.9746 9.14062 13.7988L7.28516 11.2305L6.70898 11.8066L6.70898 13.4961C6.70898 13.8477 6.48438 14.082 6.15234 14.082ZM11.8359 14.082C11.4844 14.082 11.2988 13.8574 11.2988 13.4961L11.2988 8.33008C11.2988 8.01758 11.5137 7.77344 11.8164 7.77344C12.0996 7.77344 12.3145 8.01758 12.3145 8.33008L12.3145 8.98438L12.373 8.98438C12.5195 8.33008 12.959 7.77344 13.6133 7.77344C13.9844 7.77344 14.2578 7.97852 14.2578 8.33984C14.2578 8.51562 14.1895 8.65234 14.0625 8.7207C13.9062 8.81836 13.7109 8.83789 13.4961 8.83789C12.6367 8.83789 12.3535 9.62891 12.3535 10.3418L12.3535 13.4961C12.3535 13.9355 12.0703 14.082 11.8359 14.082ZM14.5605 13.9648C14.1309 13.9648 13.8379 13.6621 13.8379 13.252C13.8379 12.832 14.1309 12.5391 14.5605 12.5391C14.9707 12.5391 15.2637 12.832 15.2637 13.252C15.2637 13.6621 14.9707 13.9648 14.5605 13.9648Z" fill="white" fill-opacity="0.85"/>
 </g>
</svg>
