<?xml version="1.0" encoding="UTF-8"?>
<!--Generator: Apple Native CoreSVG 341-->
<!DOCTYPE svg
PUBLIC "-//W3C//DTD SVG 1.1//EN"
       "http://www.w3.org/Graphics/SVG/1.1/DTD/svg11.dtd">
<svg version="1.1" xmlns="http://www.w3.org/2000/svg" xmlns:xlink="http://www.w3.org/1999/xlink" viewBox="0 0 21.2988 17.998">
 <g>
  <rect height="17.998" opacity="0" width="21.2988" x="0" y="0"/>
  <path d="M3.20312 17.998L11.6797 17.9883C12.8223 17.9883 13.8086 17.6367 14.6094 16.7969L20.3711 10.8496C21.0156 10.1953 21.2988 9.59961 21.2988 8.99414C21.2988 8.37891 21.0156 7.79297 20.3711 7.13867L14.6191 1.16211C13.8184 0.3125 12.832 0.0195312 11.6895 0.0195312L3.20312 0.0195312C1.17188 0.0195312 0.136719 1.02539 0.136719 3.04688L0.136719 14.9707C0.136719 16.9922 1.17188 17.998 3.20312 17.998ZM3.23242 16.4258C2.25586 16.4258 1.70898 15.9082 1.70898 14.8926L1.70898 3.125C1.70898 2.10938 2.25586 1.5918 3.23242 1.5918L11.7188 1.5918C12.4512 1.5918 12.9395 1.71875 13.4375 2.23633L19.1504 8.16406C19.4727 8.50586 19.5898 8.74023 19.5898 8.99414C19.5898 9.23828 19.4824 9.47266 19.1504 9.81445L13.4277 15.7227C12.9199 16.25 12.4512 16.4258 11.709 16.4258Z" fill="white" fill-opacity="0.85"/>
  <path d="M6.17188 12.8906L12.8223 6.23047C12.9785 6.08398 13.0566 5.89844 13.0566 5.68359C13.0566 5.24414 12.7148 4.91211 12.2754 4.91211C12.0605 4.91211 11.8848 4.98047 11.7383 5.13672L5.05859 11.7871C4.91211 11.9336 4.82422 12.1191 4.82422 12.3438C4.82422 12.7734 5.17578 13.1348 5.60547 13.1348C5.83984 13.1348 6.02539 13.0371 6.17188 12.8906ZM11.7188 12.8906C11.8652 13.0371 12.0508 13.1348 12.2754 13.1348C12.7148 13.1348 13.0566 12.7734 13.0566 12.3438C13.0566 12.1191 12.9785 11.9336 12.8223 11.7871L6.15234 5.13672C6.00586 4.98047 5.82031 4.91211 5.60547 4.91211C5.17578 4.91211 4.82422 5.24414 4.82422 5.68359C4.82422 5.89844 4.91211 6.08398 5.05859 6.23047Z" fill="white" fill-opacity="0.85"/>
 </g>
</svg>
