<svg version="1.1" xmlns="http://www.w3.org/2000/svg" xmlns:xlink="http://www.w3.org/1999/xlink" viewBox="0 0 21.2988 17.998">
 <g>
  <rect height="17.998" opacity="0" width="21.2988" x="0" y="0"/>
  <path d="M3.20312 17.998L11.6797 17.9883C12.8223 17.9883 13.8086 17.6367 14.6094 16.7969L20.3711 10.8496C21.0156 10.1953 21.2988 9.59961 21.2988 8.99414C21.2988 8.37891 21.0156 7.79297 20.3711 7.13867L14.6191 1.16211C13.8184 0.3125 12.832 0.0195312 11.6895 0.0195312L3.20312 0.0195312C1.17188 0.0195312 0.136719 1.02539 0.136719 3.04688L0.136719 14.9707C0.136719 16.9922 1.17188 17.998 3.20312 17.998Z" fill="var(--color-tertiary)"/>
  <path d="M5.66406 13.1055C5.21484 13.1055 4.86328 12.7441 4.86328 12.2852C4.86328 12.0703 4.94141 11.875 5.09766 11.7188L7.80273 9.01367L5.09766 6.29883C4.94141 6.14258 4.86328 5.94727 4.86328 5.73242C4.86328 5.2832 5.21484 4.93164 5.66406 4.93164C5.88867 4.93164 6.06445 5.01953 6.2207 5.16602L8.94531 7.88086L11.6895 5.15625C11.8555 4.99023 12.041 4.91211 12.2461 4.91211C12.6953 4.91211 13.0566 5.27344 13.0566 5.71289C13.0566 5.9375 12.9883 6.11328 12.8223 6.28906L10.0977 9.01367L12.8125 11.709C12.9688 11.8652 13.0469 12.0605 13.0469 12.2852C13.0469 12.7441 12.6855 13.1055 12.2266 13.1055C12.0117 13.1055 11.7969 13.0176 11.6504 12.8711L8.94531 10.1465L6.25 12.8711C6.09375 13.0176 5.88867 13.1055 5.66406 13.1055Z" fill="var(--color-primary)"/>
 </g>
</svg>
