<?xml version="1.0" encoding="UTF-8"?>
<!--Generator: Apple Native CoreSVG 341-->
<!DOCTYPE svg
PUBLIC "-//W3C//DTD SVG 1.1//EN"
       "http://www.w3.org/Graphics/SVG/1.1/DTD/svg11.dtd">
<svg version="1.1" xmlns="http://www.w3.org/2000/svg" xmlns:xlink="http://www.w3.org/1999/xlink" viewBox="0 0 36.2695 23.0176">
 <g>
  <rect height="23.0176" opacity="0" width="36.2695" x="0" y="0"/>
  <path d="M22.6855 4.28711L22.6855 8.29102L18.2324 8.29102C16.2109 8.29102 14.8047 9.59961 14.8047 11.6992L14.8047 13.916L2.96875 13.916C2.67578 13.916 2.54883 13.8086 2.54883 13.4961L2.54883 4.28711C2.54883 3.84766 2.82227 3.58398 3.25195 3.58398L21.9824 3.58398C22.4121 3.58398 22.6855 3.84766 22.6855 4.28711Z" fill="white" fill-opacity="0.2125"/>
  <path d="M24.2578 4.25781L24.2578 8.29102L22.6855 8.29102L22.6855 4.28711C22.6855 3.84766 22.4121 3.58398 21.9824 3.58398L3.25195 3.58398C2.82227 3.58398 2.54883 3.84766 2.54883 4.28711L2.54883 13.4961C2.54883 13.8086 2.67578 13.916 2.96875 13.916L14.8047 13.916L14.8047 18.7695L14.6094 18.7695C13.4473 18.7695 12.4902 19.7266 12.4902 20.8887C12.4902 21.1726 12.5455 21.4431 12.6468 21.6895L9.47266 21.6895C9.04297 21.6895 8.69141 21.3379 8.69141 20.8984C8.69141 20.459 9.04297 20.1074 9.47266 20.1074L9.53125 20.1074L9.53125 18.2227L3.23242 18.2227C1.82617 18.2227 0.976562 17.373 0.976562 15.9668L0.976562 4.25781C0.976562 2.85156 1.82617 2.01172 3.23242 2.01172L22.0117 2.01172C23.4082 2.01172 24.2578 2.85156 24.2578 4.25781Z" fill="white" fill-opacity="0.85"/>
  <path d="M17.7148 20.1074L17.7148 12.1387C17.7148 11.5137 18.0273 11.2012 18.6621 11.2012L30.2246 11.2012C30.8496 11.2012 31.1719 11.5137 31.1719 12.1387L31.1719 20.0977Z" fill="white" fill-opacity="0.2125"/>
  <path d="M13.8281 20.8887C13.8281 21.3379 14.1797 21.6895 14.6094 21.6895L34.1406 21.6797C34.5801 21.6797 34.9316 21.3281 34.9316 20.8789C34.9316 20.4492 34.5801 20.0977 34.1406 20.0977L32.7441 20.0977L32.7441 11.6992C32.7441 10.332 32.0117 9.62891 30.6543 9.62891L18.2324 9.62891C16.9434 9.62891 16.1426 10.332 16.1426 11.6992L16.1426 20.1074L14.6094 20.1074C14.1797 20.1074 13.8281 20.459 13.8281 20.8887ZM17.7148 20.1074L17.7148 12.1387C17.7148 11.5137 18.0273 11.2012 18.6621 11.2012L30.2246 11.2012C30.8496 11.2012 31.1719 11.5137 31.1719 12.1387L31.1719 20.0977Z" fill="white" fill-opacity="0.85"/>
 </g>
</svg>
