<?xml version="1.0" encoding="UTF-8"?>
<!--Generator: Apple Native CoreSVG 341-->
<!DOCTYPE svg
PUBLIC "-//W3C//DTD SVG 1.1//EN"
       "http://www.w3.org/Graphics/SVG/1.1/DTD/svg11.dtd">
<svg version="1.1" xmlns="http://www.w3.org/2000/svg" xmlns:xlink="http://www.w3.org/1999/xlink" viewBox="0 0 18.3398 17.9785">
 <g>
  <rect height="17.9785" opacity="0" width="18.3398" x="0" y="0"/>
  <path d="M3.06641 17.9785L14.9121 17.9785C16.9629 17.9785 17.9785 16.9727 17.9785 14.9609L17.9785 3.02734C17.9785 1.01562 16.9629 0 14.9121 0L3.06641 0C1.02539 0 0 1.01562 0 3.02734L0 14.9609C0 16.9727 1.02539 17.9785 3.06641 17.9785Z" fill="white" fill-opacity="0.2125"/>
  <path d="M4.47266 6.10352C3.56445 6.08398 2.83203 5.37109 2.83203 4.45312C2.83203 3.55469 3.56445 2.83203 4.47266 2.83203C5.36133 2.83203 6.10352 3.55469 6.10352 4.45312C6.10352 5.37109 5.36133 6.12305 4.47266 6.10352ZM13.5254 6.10352C12.6172 6.08398 11.875 5.37109 11.875 4.45312C11.875 3.55469 12.6172 2.83203 13.5254 2.83203C14.4141 2.83203 15.1465 3.55469 15.1465 4.45312C15.1465 5.37109 14.4141 6.12305 13.5254 6.10352ZM8.99414 10.6348C8.08594 10.6348 7.36328 9.90234 7.36328 8.98438C7.36328 8.08594 8.08594 7.36328 8.99414 7.36328C9.88281 7.36328 10.625 8.08594 10.625 8.98438C10.625 9.90234 9.88281 10.6348 8.99414 10.6348ZM4.47266 15.166C3.56445 15.166 2.8418 14.4336 2.8418 13.5254C2.8418 12.6172 3.56445 11.8945 4.47266 11.8945C5.36133 11.8945 6.10352 12.6172 6.10352 13.5254C6.10352 14.4336 5.36133 15.166 4.47266 15.166ZM13.5254 15.166C12.6172 15.166 11.8945 14.4336 11.8945 13.5254C11.8945 12.6172 12.6172 11.8945 13.5254 11.8945C14.4141 11.8945 15.1465 12.6172 15.1465 13.5254C15.1465 14.4336 14.4141 15.166 13.5254 15.166Z" fill="white" fill-opacity="0.85"/>
 </g>
</svg>
