<svg version="1.1" xmlns="http://www.w3.org/2000/svg" xmlns:xlink="http://www.w3.org/1999/xlink" viewBox="0 0 20.1074 26.9238">
 <g>
  <rect height="26.9238" opacity="0" width="20.1074" x="0" y="0"/>
  <path d="M19.7461 18.2812C19.7461 22.3633 16.0156 24.082 9.87305 24.082C3.7207 24.082 0 22.3633 0 18.2812L0 17.168C0.673828 17.9492 1.65039 18.5938 2.88086 19.082L2.88086 20.498C2.88086 20.8496 3.17383 21.1328 3.52539 21.1328C3.87695 21.1328 4.16016 20.8496 4.16016 20.498L4.16016 19.5215C4.70703 19.6777 5.27344 19.8047 5.87891 19.9023L5.87891 21.1621C5.87891 21.5137 6.16211 21.7969 6.51367 21.7969C6.86523 21.7969 7.1582 21.5137 7.1582 21.1621L7.1582 20.0879C7.79297 20.1562 8.4668 20.2051 9.11133 20.2148L9.11133 21.4062C9.11133 21.7578 9.4043 22.0508 9.75586 22.0508C10.1074 22.0508 10.3906 21.7578 10.3906 21.4062L10.3906 20.2246C10.9961 20.2148 11.7188 20.166 12.3535 20.1074L12.3535 21.1621C12.3535 21.5137 12.6465 21.7969 12.998 21.7969C13.3496 21.7969 13.6328 21.5137 13.6328 21.1621L13.6328 19.9414C14.1797 19.8535 14.7852 19.7363 15.3516 19.5898L15.3516 20.498C15.3516 20.8496 15.6348 21.1328 15.9863 21.1328C16.3379 21.1328 16.6309 20.8496 16.6309 20.498L16.6309 19.1699C17.9688 18.6719 19.0234 17.998 19.7461 17.168ZM19.4922 14.3848C19.4922 17.0605 15.6445 18.8867 9.87305 18.8867C4.10156 18.8867 0.253906 17.0605 0.253906 14.3848C0.253906 12.3569 2.46382 10.817 6.04928 10.1922L8.27148 12.6953C9.14062 13.6914 10.5859 13.7012 11.4648 12.6953L13.6874 10.1908C17.2785 10.8144 19.4922 12.3552 19.4922 14.3848Z" fill="var(--color-secondary)"/>
  <path d="M10.4688 11.8066L13.0859 8.85742C13.6035 8.28125 13.3105 7.45117 12.4805 7.45117L10.7129 7.45117L10.7129 2.16797C10.7129 1.69922 10.3418 1.33789 9.88281 1.33789C9.4043 1.33789 9.04297 1.69922 9.04297 2.16797L9.04297 7.45117L7.25586 7.45117C6.45508 7.45117 6.11328 8.25195 6.64062 8.85742L9.26758 11.8066C9.61914 12.2168 10.1074 12.2168 10.4688 11.8066Z" fill="var(--color-primary)"/>
 </g>
</svg>
