<?xml version="1.0" encoding="UTF-8"?>
<!--Generator: Apple Native CoreSVG 341-->
<!DOCTYPE svg
PUBLIC "-//W3C//DTD SVG 1.1//EN"
       "http://www.w3.org/Graphics/SVG/1.1/DTD/svg11.dtd">
<svg version="1.1" xmlns="http://www.w3.org/2000/svg" xmlns:xlink="http://www.w3.org/1999/xlink" viewBox="0 0 22.0101 19.7559">
 <g>
  <rect height="19.7559" opacity="0" width="22.0101" x="0" y="0"/>
  <path d="M12.6457 9.87305C12.6457 15.6445 14.4718 19.4922 17.1476 19.4922C19.8234 19.4922 21.6496 15.6445 21.6496 9.87305C21.6496 4.10156 19.8234 0.244141 17.1476 0.244141C14.4718 0.244141 12.6457 4.10156 12.6457 9.87305ZM7.46013 9.87305C7.46013 16.0156 9.16911 19.7461 13.2609 19.7461L14.3644 19.7461C13.5441 19.0234 12.8605 17.9688 12.3625 16.6309L11.0441 16.6309C10.6926 16.6309 10.3996 16.3379 10.3996 15.9863C10.3996 15.6348 10.6926 15.3516 11.0441 15.3516L11.9523 15.3516C11.7961 14.7852 11.6789 14.1797 11.591 13.6328L10.3801 13.6328C10.0285 13.6328 9.73552 13.3496 9.73552 12.998C9.73552 12.6465 10.0285 12.3535 10.3801 12.3535L11.4347 12.3535C11.3664 11.7188 11.3273 10.9961 11.3176 10.3906L10.1261 10.3906C9.77458 10.3906 9.49138 10.1074 9.49138 9.75586C9.49138 9.4043 9.77458 9.11133 10.1261 9.11133L11.3273 9.11133C11.3371 8.4668 11.3761 7.79297 11.4543 7.1582L10.3801 7.1582C10.0285 7.1582 9.73552 6.86523 9.73552 6.51367C9.73552 6.16211 10.0285 5.87891 10.3801 5.87891L11.6301 5.87891C11.7277 5.27344 11.8547 4.70703 12.0207 4.16016L11.0441 4.16016C10.6926 4.16016 10.3996 3.87695 10.3996 3.52539C10.3996 3.17383 10.6926 2.88086 11.0441 2.88086L12.4504 2.88086C12.9386 1.65039 13.5929 0.673828 14.3644 0L13.2609 0C9.16911 0 7.46013 3.7207 7.46013 9.87305Z" fill="white" fill-opacity="0.85"/>
  <path d="M2.94841 17.6367C3.39763 17.6367 3.83708 17.2559 3.62224 16.6699C3.01677 14.8828 2.68474 12.8613 2.68474 10.7617C2.68474 8.66211 3.02654 6.65039 3.62224 4.85352C4.02263 3.70117 2.58708 3.34961 2.22576 4.375C1.56169 6.31836 1.21013 8.50586 1.21013 10.7617C1.21013 13.0176 1.58122 15.2051 2.22576 17.1484C2.34294 17.5098 2.65544 17.6367 2.94841 17.6367ZM0.467943 5.18555L4.66716 6.70898C5.30193 6.94336 5.77068 6.31836 5.5949 5.79102L4.45232 2.37305C4.30583 1.91406 3.83708 1.74805 3.41716 2.00195L0.34099 3.89648C-0.137526 4.19922-0.12776 4.96094 0.467943 5.18555Z" fill="white" fill-opacity="0.85"/>
 </g>
</svg>
