<?xml version="1.0" encoding="UTF-8"?>
<!--Generator: Apple Native CoreSVG 341-->
<!DOCTYPE svg
PUBLIC "-//W3C//DTD SVG 1.1//EN"
       "http://www.w3.org/Graphics/SVG/1.1/DTD/svg11.dtd">
<svg version="1.1" xmlns="http://www.w3.org/2000/svg" xmlns:xlink="http://www.w3.org/1999/xlink" viewBox="0 0 23.7402 23.291">
 <g>
  <rect height="23.291" opacity="0" width="23.7402" x="0" y="0"/>
  <path d="M8.00781 10.1562L15.3711 10.1562C16.8262 10.1562 17.6074 9.38477 17.6074 7.95898L17.6074 5.23438C17.6074 3.80859 16.8262 3.03711 15.3711 3.03711L8.00781 3.03711C6.55273 3.03711 5.77148 3.80859 5.77148 5.23438L5.77148 7.95898C5.77148 9.38477 6.55273 10.1562 8.00781 10.1562ZM4.55078 23.2812L18.8281 23.2812C20.2832 23.2812 21.0645 22.5098 21.0645 21.084L21.0645 18.3594C21.0645 16.9336 20.2832 16.1621 18.8281 16.1621L4.55078 16.1621C3.0957 16.1621 2.31445 16.9336 2.31445 18.3594L2.31445 21.084C2.31445 22.5098 3.0957 23.2812 4.55078 23.2812Z" fill="white" fill-opacity="0.85"/>
  <path d="M0.683594 1.43555L22.6953 1.43555C23.0762 1.43555 23.3789 1.09375 23.3789 0.712891C23.3789 0.332031 23.0762 0 22.6953 0L0.683594 0C0.292969 0 0 0.332031 0 0.712891C0 1.09375 0.292969 1.43555 0.683594 1.43555ZM0.683594 14.5508L22.6953 14.5508C23.0762 14.5508 23.3789 14.2188 23.3789 13.8379C23.3789 13.457 23.0762 13.1152 22.6953 13.1152L0.683594 13.1152C0.292969 13.1152 0 13.457 0 13.8379C0 14.2188 0.292969 14.5508 0.683594 14.5508Z" fill="white" fill-opacity="0.85"/>
 </g>
</svg>
