<svg version="1.1" xmlns="http://www.w3.org/2000/svg" xmlns:xlink="http://www.w3.org/1999/xlink" viewBox="0 0 25.3809 22.6465">
 <g>
  <rect height="22.6465" opacity="0" width="25.3809" x="0" y="0"/>
  <path d="M2.19727 20.7031L5.5957 20.7031C7.02148 20.7031 7.79297 19.9121 7.79297 18.457L7.79297 4.17969C7.79297 2.72461 7.02148 1.94336 5.5957 1.94336L2.19727 1.94336C0.771484 1.94336 0 2.72461 0 4.17969L0 18.457C0 19.9121 0.771484 20.7031 2.19727 20.7031ZM16.3867 17.2363L19.7754 17.2363C21.2012 17.2363 21.9824 16.4551 21.9824 15L21.9824 7.63672C21.9824 6.18164 21.2012 5.40039 19.7754 5.40039L16.3867 5.40039C14.9609 5.40039 14.1797 6.18164 14.1797 7.63672L14.1797 15C14.1797 16.4551 14.9609 17.2363 16.3867 17.2363Z" fill="var(--color-secondary)"/>
  <path d="M10.1172 22.6367C10.498 22.6367 10.8301 22.3438 10.8301 21.9629L10.8301 0.673828C10.8301 0.292969 10.498 0 10.1172 0C9.73633 0 9.39453 0.292969 9.39453 0.673828L9.39453 21.9629C9.39453 22.3438 9.73633 22.6367 10.1172 22.6367ZM24.2969 22.6367C24.6777 22.6367 25.0195 22.3438 25.0195 21.9629L25.0195 0.673828C25.0195 0.292969 24.6777 0 24.2969 0C23.916 0 23.584 0.292969 23.584 0.673828L23.584 21.9629C23.584 22.3438 23.916 22.6367 24.2969 22.6367Z" fill="var(--color-primary)"/>
 </g>
</svg>
