<?xml version="1.0" encoding="UTF-8"?>
<!--Generator: Apple Native CoreSVG 341-->
<!DOCTYPE svg
PUBLIC "-//W3C//DTD SVG 1.1//EN"
       "http://www.w3.org/Graphics/SVG/1.1/DTD/svg11.dtd">
<svg version="1.1" xmlns="http://www.w3.org/2000/svg" xmlns:xlink="http://www.w3.org/1999/xlink" viewBox="0 0 22.168 20.8496">
 <g>
  <rect height="20.8496" opacity="0" width="22.168" x="0" y="0"/>
  <path d="M1.29883 19.707L20.5078 19.707L20.5078 18.5547C20.5078 18.1641 20.2832 17.9297 19.8828 17.9297L19.2578 17.9297L19.2578 6.69922L20.1172 6.69922C20.6543 6.69922 20.9668 6.30859 20.9668 5.9082C20.9668 5.61523 20.8008 5.36133 20.4395 5.15625L12.0996 0.341797C11.709 0.117188 11.2988 0 10.8984 0C10.498 0 10.0781 0.117188 9.70703 0.341797L1.36719 5.15625C0.996094 5.36133 0.839844 5.61523 0.839844 5.9082C0.839844 6.30859 1.15234 6.69922 1.68945 6.69922L2.54883 6.69922L2.54883 17.9297L1.93359 17.9297C1.5332 17.9297 1.29883 18.1641 1.29883 18.5547ZM0.78125 20.8398L21.0156 20.8398C21.4453 20.8398 21.8066 20.4785 21.8066 20.0488C21.8066 19.6191 21.4453 19.2676 21.0156 19.2676L0.78125 19.2676C0.351562 19.2676 0 19.6191 0 20.0488C0 20.4785 0.351562 20.8398 0.78125 20.8398Z" fill="white" fill-opacity="0.2125"/>
  <path d="M10.9082 16.7578C10.7227 16.7578 10.5762 16.6016 10.5762 16.416L10.5762 15.5469C9.35547 15.4492 8.08594 14.873 7.72461 13.6523C7.69531 13.5449 7.67578 13.4375 7.67578 13.3398C7.67578 13.0078 7.91992 12.8125 8.21289 12.8125C8.48633 12.8125 8.65234 12.9492 8.7793 13.252C9.0918 14.1016 9.70703 14.4727 10.5762 14.541L10.5762 11.4941L10.332 11.4355C9.0918 11.1426 7.83203 10.5762 7.83203 9.07227C7.83203 7.62695 9.0918 6.73828 10.5762 6.62109L10.5762 5.76172C10.5762 5.58594 10.7227 5.42969 10.9082 5.42969C11.0938 5.42969 11.2402 5.58594 11.2402 5.76172L11.2402 6.62109C12.5879 6.73828 13.9941 7.61719 13.9941 8.81836C13.9941 9.16992 13.7012 9.33594 13.4473 9.33594C13.1738 9.33594 12.9785 9.17969 12.8809 8.87695C12.6367 8.125 12.0605 7.69531 11.2402 7.61719L11.2402 10.5371L11.543 10.6055C12.9199 10.9277 14.1406 11.5137 14.1406 13.0273C14.1406 14.6582 12.8125 15.4492 11.2402 15.5469L11.2402 16.416C11.2402 16.6016 11.0938 16.7578 10.9082 16.7578ZM8.96484 8.98438C8.96484 9.78516 9.66797 10.1562 10.5078 10.3613L10.5762 10.3809L10.5762 7.61719C9.74609 7.72461 8.96484 8.14453 8.96484 8.98438ZM11.2402 14.5508C12.1582 14.4824 13.0176 14.1113 13.0176 13.1152C13.0176 12.207 12.2168 11.8945 11.3379 11.6797L11.2402 11.6504Z" fill="white" fill-opacity="0.85"/>
 </g>
</svg>
