<?xml version="1.0" encoding="UTF-8"?>
<!--Generator: Apple Native CoreSVG 341-->
<!DOCTYPE svg
PUBLIC "-//W3C//DTD SVG 1.1//EN"
       "http://www.w3.org/Graphics/SVG/1.1/DTD/svg11.dtd">
<svg version="1.1" xmlns="http://www.w3.org/2000/svg" xmlns:xlink="http://www.w3.org/1999/xlink" viewBox="0 0 12.7441 22.0215">
 <g>
  <rect height="22.0215" opacity="0" width="12.7441" x="0" y="0"/>
  <path d="M6.24023 19.6387C9.54102 19.6387 12.3828 17.9785 12.3828 14.8145C12.3828 11.8848 10.0879 10.8398 7.36328 10.1855L5.48828 9.72656C3.71094 9.29688 2.23633 8.52539 2.23633 6.83594C2.23633 4.94141 4.25781 3.97461 6.23047 3.97461C8.25195 3.97461 9.7168 4.92188 10.2539 6.66016C10.4102 7.11914 10.7129 7.43164 11.2207 7.43164C11.7285 7.43164 12.0996 7.08008 12.0996 6.5625C12.0996 5.78125 11.582 4.72656 10.9082 4.05273C9.7168 2.86133 8.00781 2.30469 6.23047 2.30469C3.17383 2.30469 0.361328 3.92578 0.361328 6.98242C0.361328 9.6875 2.66602 10.9082 5.17578 11.4844L7.06055 11.9238C8.93555 12.3633 10.5176 13.0469 10.5176 14.9609C10.5176 17.1094 8.54492 17.9785 6.25977 17.9785C4.10156 17.9785 2.35352 17.1094 1.83594 15.166C1.68945 14.6875 1.40625 14.4141 0.908203 14.4141C0.361328 14.4141 0 14.7852 0 15.2734C0 16.1816 0.595703 17.2363 1.26953 17.8809C2.58789 19.1211 4.44336 19.6387 6.24023 19.6387ZM6.19141 22.0117C6.54297 22.0117 6.82617 21.7188 6.82617 21.3672L6.82617 0.634766C6.82617 0.292969 6.54297 0 6.19141 0C5.83984 0 5.55664 0.292969 5.55664 0.634766L5.55664 21.3672C5.55664 21.7188 5.83984 22.0117 6.19141 22.0117Z" fill="white" fill-opacity="0.85"/>
 </g>
</svg>
