<?xml version="1.0" encoding="UTF-8"?>
<!--Generator: Apple Native CoreSVG 341-->
<!DOCTYPE svg
PUBLIC "-//W3C//DTD SVG 1.1//EN"
       "http://www.w3.org/Graphics/SVG/1.1/DTD/svg11.dtd">
<svg version="1.1" xmlns="http://www.w3.org/2000/svg" xmlns:xlink="http://www.w3.org/1999/xlink" viewBox="0 0 24.0651 19.9316">
 <g>
  <rect height="19.9316" opacity="0" width="24.0651" x="0" y="0"/>
  <path d="M0.694677 8.07617C-0.00844799 8.07617-0.184229 8.55469 0.19663 9.10156L2.38413 12.207C2.7064 12.6562 3.17515 12.6465 3.48765 12.207L5.66538 9.0918C6.04624 8.55469 5.86069 8.07617 5.1771 8.07617ZM21.8177 9.96094C21.8177 4.46289 17.3548 0 11.8568 0C6.35874 0 1.90561 4.45312 1.89585 9.9707C1.90561 10.4297 2.26694 10.791 2.71616 10.791C3.17515 10.791 3.55601 10.4199 3.55601 9.96094C3.55601 5.37109 7.26694 1.66016 11.8568 1.66016C16.4466 1.66016 20.1576 5.37109 20.1576 9.96094C20.1576 14.5508 16.4466 18.2617 11.8568 18.2617C9.07358 18.2617 6.62241 16.8945 5.13804 14.8242C4.8353 14.4238 4.37632 14.2969 3.96616 14.541C3.57554 14.7852 3.45835 15.3418 3.79038 15.7715C5.60679 18.291 8.50718 19.9219 11.8568 19.9219C17.3548 19.9219 21.8177 15.459 21.8177 9.96094Z" fill="white" fill-opacity="0.85"/>
  <path d="M11.8666 14.2285C13.5267 14.2285 14.9916 13.457 14.9916 11.7773C14.9916 10.3125 13.8099 9.74609 12.4818 9.43359L11.5443 9.20898C10.6947 9.01367 9.97202 8.65234 9.97202 7.86133C9.97202 6.93359 10.9681 6.51367 11.8666 6.51367C12.8431 6.51367 13.5072 6.93359 13.7708 7.75391C13.8685 8.04688 14.0541 8.19336 14.3177 8.19336C14.5619 8.19336 14.8451 8.03711 14.8451 7.69531C14.8451 6.44531 13.2435 5.55664 11.8666 5.55664C10.3041 5.55664 8.87827 6.43555 8.87827 7.93945C8.87827 9.39453 10.099 9.95117 11.3001 10.2344L12.2376 10.459C13.1068 10.6641 13.9076 10.9766 13.9076 11.8652C13.9076 12.9395 12.8822 13.2715 11.8958 13.2715C10.8607 13.2715 10.138 12.9297 9.78647 11.9922C9.66929 11.6992 9.50327 11.5723 9.2396 11.5723C8.9564 11.5723 8.72202 11.7676 8.72202 12.0801C8.72202 12.1777 8.74155 12.2754 8.78061 12.3926C9.15171 13.6816 10.5873 14.2285 11.8666 14.2285ZM11.8568 15.3906C12.0326 15.3906 12.1791 15.2441 12.1791 15.0684L12.1791 4.73633C12.1791 4.56055 12.0326 4.41406 11.8568 4.41406C11.681 4.41406 11.5345 4.56055 11.5345 4.73633L11.5345 15.0684C11.5345 15.2441 11.681 15.3906 11.8568 15.3906Z" fill="white" fill-opacity="0.85"/>
 </g>
</svg>
