<?xml version="1.0" encoding="UTF-8"?>
<!--Generator: Apple Native CoreSVG 341-->
<!DOCTYPE svg
PUBLIC "-//W3C//DTD SVG 1.1//EN"
       "http://www.w3.org/Graphics/SVG/1.1/DTD/svg11.dtd">
<svg version="1.1" xmlns="http://www.w3.org/2000/svg" xmlns:xlink="http://www.w3.org/1999/xlink" viewBox="0 0 18.3398 17.9785">
 <g>
  <rect height="17.9785" opacity="0" width="18.3398" x="0" y="0"/>
  <path d="M3.06641 17.9785L14.9121 17.9785C16.9629 17.9785 17.9785 16.9727 17.9785 14.9609L17.9785 3.02734C17.9785 1.01562 16.9629 0 14.9121 0L3.06641 0C1.02539 0 0 1.01562 0 3.02734L0 14.9609C0 16.9727 1.02539 17.9785 3.06641 17.9785Z" fill="white" fill-opacity="0.2125"/>
  <path d="M8.99414 12.1191C7.25586 12.1191 5.85938 10.7227 5.85938 8.98438C5.85938 7.24609 7.25586 5.83984 8.99414 5.83984C10.7324 5.83984 12.1387 7.24609 12.1387 8.98438C12.1387 10.7227 10.7324 12.1191 8.99414 12.1191Z" fill="white" fill-opacity="0.85"/>
 </g>
</svg>
