<?xml version="1.0" encoding="UTF-8"?>
<!--Generator: Apple Native CoreSVG 341-->
<!DOCTYPE svg
PUBLIC "-//W3C//DTD SVG 1.1//EN"
       "http://www.w3.org/Graphics/SVG/1.1/DTD/svg11.dtd">
<svg version="1.1" xmlns="http://www.w3.org/2000/svg" xmlns:xlink="http://www.w3.org/1999/xlink" viewBox="0 0 25.8008 17.5343">
 <g>
  <rect height="17.5343" opacity="0" width="25.8008" x="0" y="0"/>
  <path d="M0 8.77202C0 12.0435 1.23047 15.0416 3.35938 17.2681C3.71094 17.6392 4.18945 17.6001 4.46289 17.2876C4.74609 16.9849 4.6875 16.5357 4.35547 16.1939C2.48047 14.2408 1.46484 11.6236 1.46484 8.77202C1.46484 5.92046 2.48047 3.30327 4.35547 1.35015C4.6875 0.998587 4.74609 0.559134 4.46289 0.246634C4.18945-0.0561001 3.71094-0.0951626 3.35938 0.275931C1.23047 2.50249 0 5.50054 0 8.77202ZM25.4395 8.77202C25.4395 5.50054 24.209 2.50249 22.0801 0.275931C21.7285-0.0951626 21.25-0.0561001 20.9766 0.246634C20.6934 0.559134 20.752 0.998587 21.084 1.35015C22.9492 3.30327 23.9746 5.92046 23.9746 8.77202C23.9746 11.6236 22.9492 14.2408 21.084 16.1939C20.752 16.5357 20.6934 16.9849 20.9766 17.2876C21.25 17.6001 21.7285 17.6392 22.0801 17.2681C24.209 15.0416 25.4395 12.0435 25.4395 8.77202Z" fill="white" fill-opacity="0.425"/>
  <path d="M3.49609 8.77202C3.49609 11.0865 4.32617 13.2447 5.82031 14.856C6.16211 15.2369 6.66016 15.2466 6.95312 14.9048C7.23633 14.5826 7.1582 14.1626 6.82617 13.8013C5.61523 12.4439 4.95117 10.6861 4.95117 8.77202C4.95117 6.85796 5.61523 5.10015 6.82617 3.74273C7.1582 3.3814 7.23633 2.96148 6.95312 2.62945C6.66016 2.29742 6.16211 2.29742 5.82031 2.67827C4.32617 4.29937 3.49609 6.44781 3.49609 8.77202ZM21.9434 8.77202C21.9434 6.44781 21.1133 4.29937 19.6191 2.67827C19.2773 2.29742 18.7793 2.29742 18.4863 2.62945C18.1934 2.96148 18.2812 3.3814 18.6035 3.74273C19.8242 5.10015 20.4883 6.85796 20.4883 8.77202C20.4883 10.6861 19.8242 12.4439 18.6035 13.8013C18.2812 14.1626 18.1934 14.5826 18.4863 14.9048C18.7793 15.2466 19.2773 15.2369 19.6191 14.856C21.1133 13.2447 21.9434 11.0865 21.9434 8.77202Z" fill="white" fill-opacity="0.425"/>
  <path d="M6.98242 8.77202C6.98242 10.0806 7.43164 11.3111 8.21289 12.2779C8.53516 12.688 9.07227 12.688 9.36523 12.356C9.6582 12.024 9.53125 11.6334 9.24805 11.233C8.7207 10.5689 8.44727 9.70952 8.44727 8.77202C8.44727 7.83452 8.7207 6.97515 9.24805 6.30132C9.53125 5.9107 9.6582 5.52007 9.36523 5.18804C9.07227 4.85601 8.53516 4.85601 8.21289 5.2564C7.43164 6.2232 6.98242 7.45367 6.98242 8.77202ZM18.457 8.77202C18.457 7.45367 18.0078 6.2232 17.2266 5.2564C16.9043 4.85601 16.3672 4.85601 16.0742 5.18804C15.7812 5.52007 15.8984 5.9107 16.1914 6.30132C16.7188 6.97515 16.9922 7.83452 16.9922 8.77202C16.9922 9.70952 16.7188 10.5689 16.1914 11.233C15.8984 11.6334 15.7812 12.024 16.0742 12.356C16.3672 12.688 16.9043 12.688 17.2266 12.2779C18.0078 11.3111 18.457 10.0806 18.457 8.77202Z" fill="white" fill-opacity="0.425"/>
  <path d="M10.9375 8.79156C10.9375 9.73882 11.7676 10.5396 12.7344 10.5396C13.7012 10.5396 14.4922 9.73882 14.4922 8.77202C14.4922 7.79546 13.7109 6.99468 12.7344 6.99468C11.748 6.99468 10.9375 7.81499 10.9375 8.79156Z" fill="white" fill-opacity="0.85"/>
 </g>
</svg>
