<?xml version="1.0" encoding="UTF-8"?>
<!--Generator: Apple Native CoreSVG 341-->
<!DOCTYPE svg
PUBLIC "-//W3C//DTD SVG 1.1//EN"
       "http://www.w3.org/Graphics/SVG/1.1/DTD/svg11.dtd">
<svg version="1.1" xmlns="http://www.w3.org/2000/svg" xmlns:xlink="http://www.w3.org/1999/xlink" viewBox="0 0 23.7436 24.8723">
 <g>
  <rect height="24.8723" opacity="0" width="23.7436" x="0" y="0"/>
  <path d="M21.657 12.4313C21.657 13.3738 21.5258 14.2859 21.272 15.1468L19.8866 13.7234C19.9626 13.3047 19.9968 12.872 19.9968 12.4313C19.9968 7.84141 16.2859 4.13047 11.696 4.13047C7.10617 4.13047 3.39523 7.84141 3.39523 12.4313C3.39523 17.0211 7.10617 20.732 11.696 20.732C12.8307 20.732 13.9117 20.5052 14.8955 20.0929L14.8894 20.6344C14.8808 21.0687 15.0219 21.4404 15.2557 21.7248C14.1535 22.1594 12.9518 22.3922 11.696 22.3922C6.19797 22.3922 1.73508 17.9293 1.73508 12.4313C1.73508 6.93321 6.19797 2.47032 11.696 2.47032C17.1941 2.47032 21.657 6.93321 21.657 12.4313Z" fill="white" fill-opacity="0.425"/>
  <path d="M14.6941 12.4313C14.6941 14.0816 13.3464 15.4293 11.696 15.4293C10.0456 15.4293 8.69797 14.0816 8.69797 12.4313C8.69797 10.7711 10.0456 9.43321 11.696 9.43321C13.3464 9.43321 14.6941 10.7711 14.6941 12.4313Z" fill="white" fill-opacity="0.425"/>
  <path d="M20.9636 23.4762C21.3933 23.3004 21.5984 22.8121 21.4226 22.3824L19.8894 18.8375L21.9987 18.7496C22.3601 18.7301 22.5456 18.3785 22.282 18.0953L16.9402 12.607C16.696 12.3629 16.3249 12.4996 16.3152 12.8609L16.2175 20.6637C16.2077 21.0348 16.657 21.1617 16.9109 20.9176L18.3952 19.4234L19.8503 23.027C20.0261 23.4469 20.5339 23.652 20.9636 23.4762Z" fill="white" fill-opacity="0.85"/>
 </g>
</svg>
