<?xml version="1.0" encoding="UTF-8"?>
<!--Generator: Apple Native CoreSVG 341-->
<!DOCTYPE svg
PUBLIC "-//W3C//DTD SVG 1.1//EN"
       "http://www.w3.org/Graphics/SVG/1.1/DTD/svg11.dtd">
<svg version="1.1" xmlns="http://www.w3.org/2000/svg" xmlns:xlink="http://www.w3.org/1999/xlink" viewBox="0 0 21.709 21.3574">
 <g>
  <rect height="21.3574" opacity="0" width="21.709" x="0" y="0"/>
  <path d="M4.50195 14.5117C5.56641 14.5117 5.9082 14.3945 6.58203 13.7207L8.47656 11.8262C9.16016 11.1426 9.16016 10.2051 8.47656 9.52148L6.58203 7.62695C5.9082 6.95312 5.56641 6.82617 4.50195 6.82617L2.05078 6.82617C0.800781 6.82617 0 7.54883 0 8.66211L0 12.6855C0 13.7891 0.800781 14.5117 2.05078 14.5117ZM6.83594 4.51172C6.83594 5.56641 6.96289 5.9082 7.63672 6.58203L9.53125 8.47656C10.2148 9.16016 11.1523 9.16016 11.8359 8.47656L13.7305 6.58203C14.4043 5.9082 14.5215 5.56641 14.5215 4.51172L14.5215 2.05078C14.5215 0.800781 13.7988 0 12.6855 0L8.67188 0C7.55859 0 6.83594 0.800781 6.83594 2.05078ZM16.8457 6.83594C15.7812 6.83594 15.4395 6.95312 14.7656 7.62695L12.8711 9.52148C12.1875 10.2051 12.1875 11.1426 12.8711 11.8262L14.7656 13.7207C15.4395 14.3945 15.7812 14.5215 16.8457 14.5215L19.2969 14.5215C20.5469 14.5215 21.3477 13.7988 21.3477 12.6855L21.3477 8.66211C21.3477 7.55859 20.5469 6.83594 19.2969 6.83594ZM14.5215 16.8359C14.5215 15.7812 14.3945 15.4395 13.7207 14.7656L11.8262 12.8613C11.1426 12.1875 10.2051 12.1875 9.52148 12.8613L7.62695 14.7656C6.95312 15.4395 6.83594 15.7812 6.83594 16.8359L6.83594 19.2969C6.83594 20.5469 7.55859 21.3379 8.67188 21.3379L12.6855 21.3379C13.7988 21.3379 14.5215 20.5469 14.5215 19.2969Z" fill="white" fill-opacity="0.85"/>
 </g>
</svg>
