<svg version="1.1" xmlns="http://www.w3.org/2000/svg" xmlns:xlink="http://www.w3.org/1999/xlink" viewBox="0 0 18.3398 17.9785">
 <g>
  <rect height="17.9785" opacity="0" width="18.3398" x="0" y="0"/>
  <path d="M3.06641 17.9785L14.9121 17.9785C16.9629 17.9785 17.9785 16.9727 17.9785 14.9609L17.9785 3.02734C17.9785 1.01562 16.9629 0 14.9121 0L3.06641 0C1.02539 0 0 1.01562 0 3.02734L0 14.9609C0 16.9727 1.02539 17.9785 3.06641 17.9785Z" fill="var(--color-tertiary)"/>
  <path d="M6.67969 13.4766C6.15234 13.4766 5.88867 13.1152 5.88867 12.5684L5.88867 5.21484C5.88867 4.66797 6.15234 4.30664 6.67969 4.30664L11.4453 4.30664C11.8359 4.30664 12.1094 4.54102 12.1094 4.96094C12.1094 5.36133 11.8359 5.625 11.4453 5.625L7.5 5.625L7.5 8.19336L11.1816 8.19336C11.5723 8.19336 11.8457 8.41797 11.8457 8.83789C11.8457 9.22852 11.5723 9.45312 11.1816 9.45312L7.5 9.45312L7.5 12.1582L11.4453 12.1582C11.8359 12.1582 12.1094 12.4023 12.1094 12.8223C12.1094 13.2227 11.8359 13.4766 11.4453 13.4766Z" fill="var(--color-primary)"/>
 </g>
</svg>
