<svg version="1.1" xmlns="http://www.w3.org/2000/svg" xmlns:xlink="http://www.w3.org/1999/xlink" viewBox="0 0 15.3809 21.2598">
 <g>
  <rect height="21.2598" opacity="0" width="15.3809" x="0" y="0"/>
  <path d="M0.380859 16.4062C0.380859 19.1113 2.06055 20.8203 4.6875 20.8203C6.65039 20.8203 8.11523 19.9609 9.04297 18.3008L9.92188 16.7285C11.9824 12.9688 15.3809 12.4707 15.3809 7.63672C15.3809 3.05664 12.4219 0 7.98828 0C3.44727 0 0.380859 3.07617 0.380859 7.66602ZM3.00781 12.1875L3.00781 7.31445C3.00781 4.57031 4.93164 2.72461 7.97852 2.72461C10.9277 2.72461 12.7637 4.57031 12.7637 7.31445C12.7637 7.71484 12.4219 8.05664 12.0215 8.05664C11.6211 8.05664 11.2891 7.71484 11.2891 7.31445C11.2891 5.42969 10.0684 4.19922 7.97852 4.19922C5.79102 4.19922 4.48242 5.43945 4.48242 7.31445L4.48242 8.55469L7.43164 8.55469C9.01367 8.55469 10.0586 9.52148 10.0586 10.957C10.0586 11.5625 9.79492 12.3047 9.39453 12.8125L8.125 14.4238C7.95898 14.6289 7.74414 14.7461 7.51953 14.7461C7.11914 14.7461 6.77734 14.4141 6.77734 14.0137C6.77734 13.8281 6.8457 13.6523 6.97266 13.4863L8.14453 12.0117C8.37891 11.7285 8.53516 11.3184 8.53516 11.0156C8.53516 10.4297 8.11523 10.0293 7.45117 10.0293L4.48242 10.0293L4.48242 12.1875C4.48242 12.5879 4.14062 12.9297 3.74023 12.9297C3.33984 12.9297 3.00781 12.5879 3.00781 12.1875Z" fill="var(--color-primary)"/>
 </g>
</svg>
