<svg version="1.1" xmlns="http://www.w3.org/2000/svg" xmlns:xlink="http://www.w3.org/1999/xlink" viewBox="0 0 14.8438 18.8965">
 <g>
  <rect height="18.8965" opacity="0" width="14.8438" x="0" y="0"/>
  <path d="M13.5449 5.72266C13.5449 7.17773 12.8418 8.38867 11.8652 9.33594C11.6895 9.51172 11.5137 9.67773 11.3379 9.85352C10.7715 10.4102 10.6055 11.0059 10.6055 11.9434L10.6055 17.041C10.6055 17.832 10.1465 18.291 9.3457 18.291L8.33008 18.291C7.5293 18.291 7.06055 17.832 7.06055 17.041L7.06055 11.9434C7.06055 11.1256 6.94166 10.5679 6.52871 10.0694C8.54148 9.71684 9.64844 7.84402 9.64844 5.06836C9.64844 3.31494 9.20669 1.9218 8.37382 1.04446C8.49421 1.03048 8.61673 1.02539 8.74023 1.02539C11.6309 1.02539 13.5449 2.89062 13.5449 5.72266Z" fill="var(--color-primary)"/>
  <path d="M0.9375 5.06836C0.9375 7.86133 3.70117 9.18945 5.80078 9.18945C7.67578 9.18945 8.71094 7.71484 8.71094 5.06836C8.71094 2.42188 7.67578 0.9375 5.80078 0.9375C3.70117 0.9375 0.9375 2.27539 0.9375 5.06836ZM3.01758 6.73828C2.5293 6.73828 2.13867 5.99609 2.13867 5.06836C2.13867 4.13086 2.5293 3.39844 3.01758 3.39844C3.51562 3.39844 3.91602 4.13086 3.91602 5.06836C3.91602 5.99609 3.51562 6.73828 3.01758 6.73828Z" fill="var(--color-secondary)"/>
 </g>
</svg>
