<?xml version="1.0" encoding="UTF-8"?>
<!--Generator: Apple Native CoreSVG 341-->
<!DOCTYPE svg
PUBLIC "-//W3C//DTD SVG 1.1//EN"
       "http://www.w3.org/Graphics/SVG/1.1/DTD/svg11.dtd">
<svg version="1.1" xmlns="http://www.w3.org/2000/svg" xmlns:xlink="http://www.w3.org/1999/xlink" viewBox="0 0 16.0938 17.2754">
 <g>
  <rect height="17.2754" opacity="0" width="16.0938" x="0" y="0"/>
  <path d="M8.62305 17.2754C9.15039 17.2754 9.58008 16.8555 9.58008 16.3184C9.58008 15.791 9.15039 15.3711 8.62305 15.3711C4.86328 15.3711 1.91406 12.4121 1.91406 8.64258C1.91406 4.87305 4.86328 1.92383 8.62305 1.92383C10.7324 1.92383 11.4844 4.01367 9.60938 5.18555L7.36328 6.58203C5.97656 7.45117 5.41016 8.54492 5.41016 9.57031C5.41016 11.1719 6.80664 12.5684 8.58398 12.5684C9.24805 12.5684 9.9707 12.373 10.6836 11.9238L13.3691 10.2441C15.0098 9.20898 15.7324 7.74414 15.7324 6.24023C15.7324 2.57812 12.8027 0.00976562 8.62305 0.00976562C3.78906 0.00976562 0 3.80859 0 8.64258C0 13.4766 3.78906 17.2754 8.62305 17.2754Z" fill="white" fill-opacity="0.85"/>
 </g>
</svg>
