<?xml version="1.0" encoding="UTF-8"?>
<!--Generator: Apple Native CoreSVG 341-->
<!DOCTYPE svg
PUBLIC "-//W3C//DTD SVG 1.1//EN"
       "http://www.w3.org/Graphics/SVG/1.1/DTD/svg11.dtd">
<svg version="1.1" xmlns="http://www.w3.org/2000/svg" xmlns:xlink="http://www.w3.org/1999/xlink" viewBox="0 0 16.2109 12.9199">
 <g>
  <rect height="12.9199" opacity="0" width="16.2109" x="0" y="0"/>
  <path d="M14.9121 5.30273C14.9121 8.18359 12.373 10.5371 9.26758 10.5371C9.2293 10.5371 9.19111 10.5368 9.15419 10.5318C9.612 9.78868 9.87305 8.9135 9.87305 7.97852C9.87305 5.26367 7.65625 3.04688 4.93164 3.04688C4.65706 3.04688 4.38758 3.06955 4.12681 3.1188C5.01923 1.31677 6.98743 0.0585938 9.26758 0.0585938C12.373 0.0585938 14.9121 2.42188 14.9121 5.30273Z" fill="white" fill-opacity="0.85"/>
  <path d="M4.93164 11.9727C7.13867 11.9727 8.92578 10.1855 8.92578 7.97852C8.92578 5.78125 7.13867 3.99414 4.93164 3.99414C2.73438 3.99414 0.9375 5.78125 0.9375 7.97852C0.9375 10.1855 2.73438 11.9727 4.93164 11.9727ZM2.95898 9.6582C2.4707 9.6582 2.08008 8.92578 2.08008 7.97852C2.08008 7.05078 2.4707 6.30859 2.95898 6.30859C3.4668 6.30859 3.85742 7.05078 3.85742 7.97852C3.85742 8.92578 3.4668 9.6582 2.95898 9.6582Z" fill="white" fill-opacity="0.425"/>
 </g>
</svg>
