<svg version="1.1" xmlns="http://www.w3.org/2000/svg" xmlns:xlink="http://www.w3.org/1999/xlink" viewBox="0 0 31.123 16.8652">
 <g>
  <rect height="16.8652" opacity="0" width="31.123" x="0" y="0"/>
  <path d="M3.06641 16.8457L27.6953 16.8457C29.7363 16.8457 30.7617 15.8301 30.7617 13.8184L30.7617 3.02734C30.7617 1.01562 29.7363 0 27.6953 0L3.06641 0C1.02539 0 0 1.00586 0 3.02734L0 13.8184C0 15.8301 1.02539 16.8457 3.06641 16.8457Z" fill="var(--color-tertiary)"/>
  <path d="M6.24023 12.8027C5.77148 12.8027 5.50781 12.4414 5.50781 11.9531L5.50781 5.03906C5.50781 4.53125 5.76172 4.17969 6.24023 4.17969L10.0781 4.17969C10.4492 4.17969 10.7324 4.42383 10.7324 4.82422C10.7324 5.21484 10.4492 5.45898 10.0781 5.45898L6.97266 5.45898L6.97266 7.79297L9.85352 7.79297C10.2148 7.79297 10.4883 8.00781 10.4883 8.4082C10.4883 8.79883 10.2148 8.99414 9.85352 8.99414L6.97266 8.99414L6.97266 11.5234L10.0781 11.5234C10.4492 11.5234 10.7324 11.7578 10.7324 12.1387C10.7324 12.5488 10.4492 12.8027 10.0781 12.8027ZM15.0977 12.8027C14.6387 12.8027 14.3457 12.4902 14.3457 12.002L14.3457 5.56641L12.6367 5.56641C12.1582 5.56641 11.875 5.30273 11.875 4.87305C11.875 4.44336 12.1582 4.17969 12.6367 4.17969L17.5879 4.17969C18.0664 4.17969 18.3594 4.44336 18.3594 4.87305C18.3594 5.30273 18.0664 5.56641 17.5879 5.56641L15.8691 5.56641L15.8691 12.002C15.8691 12.4902 15.5762 12.8027 15.0977 12.8027ZM22.7344 12.9004C20.2246 12.9004 19.1113 10.9863 19.1113 8.42773C19.1113 5.87891 20.1953 3.94531 22.6562 3.94531C23.8477 3.94531 25.0195 4.50195 25.5273 5.47852C25.6934 5.77148 25.8105 6.11328 25.8105 6.46484C25.8105 6.81641 25.5859 7.08984 25.1074 7.08984C24.7656 7.08984 24.5801 6.91406 24.4434 6.54297C24.1211 5.64453 23.5254 5.16602 22.6758 5.16602C21.1133 5.16602 20.6934 6.91406 20.6934 8.41797C20.6934 9.78516 21.0547 11.6895 22.6758 11.6895C23.5449 11.6895 24.1992 11.1719 24.4531 10.332C24.541 10.0195 24.7559 9.79492 25.1074 9.79492C25.5664 9.79492 25.8496 10.0586 25.8496 10.4688C25.8496 10.7324 25.752 10.9961 25.6348 11.25C25.1562 12.207 24.082 12.9004 22.7344 12.9004Z" fill="var(--color-primary)"/>
 </g>
</svg>
