<?xml version="1.0" encoding="UTF-8"?>
<!--Generator: Apple Native CoreSVG 341-->
<!DOCTYPE svg
PUBLIC "-//W3C//DTD SVG 1.1//EN"
       "http://www.w3.org/Graphics/SVG/1.1/DTD/svg11.dtd">
<svg version="1.1" xmlns="http://www.w3.org/2000/svg" xmlns:xlink="http://www.w3.org/1999/xlink" viewBox="0 0 24.9023 20.1855">
 <g>
  <rect height="20.1855" opacity="0" width="24.9023" x="0" y="0"/>
  <path d="M0 10.0879C0 10.6543 0.322266 11.0547 0.996094 11.1621C2.20703 11.3477 2.68555 11.9629 2.68555 13.5352L2.68555 16.2793C2.68555 18.9355 3.89648 20.1855 6.5332 20.1855C6.68945 20.1855 6.85547 20.1562 6.97266 20.1172C7.27539 19.9902 7.44141 19.7461 7.44141 19.4238C7.44141 19.043 7.27539 18.8477 6.93359 18.7598C6.83594 18.7402 6.73828 18.7207 6.62109 18.7109C4.98047 18.5938 4.38477 17.8906 4.38477 16.084L4.38477 12.8418C4.38477 11.1914 3.51562 10.2734 1.99219 10.127C1.96289 10.127 1.96289 10.0879 1.99219 10.0879C3.51562 9.94141 4.38477 9.02344 4.38477 7.37305L4.38477 4.12109C4.38477 2.30469 4.98047 1.62109 6.62109 1.50391C6.77734 1.49414 6.91406 1.47461 7.01172 1.43555C7.29492 1.33789 7.44141 1.12305 7.44141 0.78125C7.44141 0.439453 7.26562 0.205078 6.93359 0.0878906C6.78711 0.0390625 6.63086 0.0195312 6.43555 0.0195312C3.88672 0.0195312 2.68555 1.28906 2.68555 3.92578L2.68555 6.67969C2.68555 8.23242 2.20703 8.85742 0.996094 9.04297C0.322266 9.15039 0 9.53125 0 10.0879ZM24.541 10.0879C24.541 9.53125 24.209 9.15039 23.5352 9.04297C22.334 8.85742 21.8457 8.23242 21.8457 6.67969L21.8457 3.92578C21.8457 1.28906 20.6445 0.0195312 18.0957 0.0195312C17.9004 0.0195312 17.7539 0.0390625 17.6074 0.0878906C17.2754 0.205078 17.0898 0.439453 17.0898 0.78125C17.0898 1.12305 17.2461 1.33789 17.5293 1.43555C17.627 1.47461 17.7539 1.49414 17.9102 1.50391C19.5508 1.62109 20.1562 2.30469 20.1562 4.12109L20.1562 7.37305C20.1562 9.02344 21.0156 9.94141 22.5391 10.0879C22.5684 10.0879 22.5684 10.127 22.5391 10.127C21.0156 10.2734 20.1562 11.1914 20.1562 12.8418L20.1562 16.084C20.1562 17.8906 19.5508 18.5938 17.9102 18.7109C17.793 18.7207 17.7051 18.7402 17.6074 18.7598C17.2656 18.8477 17.0898 19.043 17.0898 19.4238C17.0898 19.7461 17.2656 19.9902 17.5684 20.1172C17.6855 20.1562 17.8418 20.1855 17.998 20.1855C20.6348 20.1855 21.8457 18.9355 21.8457 16.2793L21.8457 13.5352C21.8457 11.9629 22.334 11.3477 23.5352 11.1621C24.209 11.0547 24.541 10.6543 24.541 10.0879Z" fill="white" fill-opacity="0.85"/>
  <path d="M16.8164 11.4941C17.5977 11.4941 18.2324 10.8594 18.2324 10.0879C18.2324 9.30664 17.5977 8.67188 16.8164 8.67188C16.0352 8.67188 15.4004 9.30664 15.4004 10.0879C15.4004 10.8594 16.0352 11.4941 16.8164 11.4941Z" fill="white" fill-opacity="0.85"/>
  <path d="M12.2559 11.4941C13.0371 11.4941 13.6719 10.8594 13.6719 10.0879C13.6719 9.30664 13.0371 8.67188 12.2559 8.67188C11.4844 8.67188 10.8496 9.30664 10.8496 10.0879C10.8496 10.8594 11.4844 11.4941 12.2559 11.4941Z" fill="white" fill-opacity="0.85"/>
  <path d="M7.70508 11.4941C8.48633 11.4941 9.12109 10.8594 9.12109 10.0879C9.12109 9.30664 8.47656 8.67188 7.70508 8.67188C6.92383 8.67188 6.28906 9.30664 6.28906 10.0879C6.28906 10.8594 6.92383 11.4941 7.70508 11.4941Z" fill="white" fill-opacity="0.85"/>
 </g>
</svg>
