<svg version="1.1" xmlns="http://www.w3.org/2000/svg" xmlns:xlink="http://www.w3.org/1999/xlink" viewBox="0 0 22.9492 20.3418">
 <g>
  <rect height="20.3418" opacity="0" width="22.9492" x="0" y="0"/>
  <path d="M11.2891 18.7891C17.8418 18.7891 22.5879 14.834 22.5879 9.39453C22.5879 3.94531 17.832 0 11.2891 0C4.74609 0 0 3.94531 0 9.39453C0 13.3105 2.14844 14.3652 2.14844 16.1133C2.14844 16.875 1.9043 17.373 1.31836 17.9199C0.878906 18.3105 1.11328 18.7891 1.75781 18.7891C3.10547 18.7891 4.48242 18.3496 5.48828 17.6172C7.17773 18.3887 9.14062 18.7891 11.2891 18.7891Z" fill="var(--color-tertiary)"/>
  <path d="M16.0449 10.8984C15.2344 10.8984 14.5801 10.2441 14.5801 9.43359C14.5801 8.62305 15.2344 7.96875 16.0449 7.96875C16.8457 7.96875 17.5098 8.62305 17.5098 9.43359C17.5098 10.2441 16.8457 10.8984 16.0449 10.8984Z" fill="var(--color-primary)"/>
  <path d="M11.3477 10.8984C10.5371 10.8984 9.88281 10.2441 9.88281 9.43359C9.88281 8.62305 10.5371 7.96875 11.3477 7.96875C12.1484 7.96875 12.8027 8.62305 12.8027 9.43359C12.8027 10.2441 12.1484 10.8984 11.3477 10.8984Z" fill="var(--color-primary)"/>
  <path d="M6.64062 10.8984C5.83984 10.8984 5.17578 10.2441 5.17578 9.43359C5.17578 8.62305 5.83984 7.96875 6.64062 7.96875C7.44141 7.96875 8.10547 8.62305 8.10547 9.43359C8.10547 10.2441 7.45117 10.8984 6.64062 10.8984Z" fill="var(--color-primary)"/>
 </g>
</svg>
