<?xml version="1.0" encoding="UTF-8"?>
<!--Generator: Apple Native CoreSVG 341-->
<!DOCTYPE svg
PUBLIC "-//W3C//DTD SVG 1.1//EN"
       "http://www.w3.org/Graphics/SVG/1.1/DTD/svg11.dtd">
<svg version="1.1" xmlns="http://www.w3.org/2000/svg" xmlns:xlink="http://www.w3.org/1999/xlink" viewBox="0 0 23.9258 23.2716">
 <g>
  <rect height="23.2716" opacity="0" width="23.9258" x="0" y="0"/>
  <path d="M23.5645 9.4141L23.5645 20.1954C23.5645 22.2071 22.5391 23.2227 20.791 23.2227L3.06641 23.2227C1.03516 23.2227 0 22.2071 0 20.1954L0 9.4141C0 7.40238 1.02539 6.38676 2.77344 6.38676L9.67773 6.38676L9.67773 7.8809L3.00781 7.8809C2.81877 7.8809 2.64578 7.90106 2.49038 7.94162L10.8398 15.4688C11.1426 15.7422 11.4551 15.8692 11.7773 15.8692C12.0996 15.8692 12.4121 15.7422 12.7148 15.4688L21.0645 7.94146C20.9087 7.90099 20.7356 7.8809 20.5469 7.8809L13.877 7.8809L13.877 6.38676L20.498 6.38676C22.5293 6.38676 23.5645 7.40238 23.5645 9.4141ZM13.5645 16.6309C13.0078 17.1289 12.4023 17.3731 11.7773 17.3731C11.1523 17.3731 10.5469 17.1289 9.99023 16.6309L8.57197 15.3543L2.32287 21.6122C2.51846 21.6898 2.74797 21.7286 3.00781 21.7286L20.5469 21.7286C20.8092 21.7286 21.0412 21.689 21.239 21.6102L14.983 15.3541ZM16.0571 14.3872L22.0621 20.3922C22.0677 20.329 22.0703 20.2633 22.0703 20.1954L22.0703 9.4141C22.0703 9.26793 22.0586 9.13186 22.0341 9.0073ZM1.49414 9.40433L1.49414 20.1856C1.49414 20.2568 1.49688 20.3257 1.50304 20.3915L7.50271 14.3919L1.52734 9.01339C1.50494 9.13365 1.49414 9.26436 1.49414 9.40433Z" fill="white" fill-opacity="0.425"/>
  <path d="M7.86133 4.0723L8.50586 0.703163C8.61328 0.126991 8.25195-0.156212 7.70508 0.0879287L5.04883 1.26957C4.60938 1.46488 4.51172 1.89457 4.85352 2.24613L6.875 4.35551C7.29492 4.78519 7.75391 4.65824 7.86133 4.0723ZM7.88086 1.66996C7.48047 1.6309 7.07031 1.95316 7.07031 2.41215C7.07031 2.79301 7.35352 3.10551 7.73438 3.14457C9.76562 3.36918 11.0742 4.92191 11.0742 7.60746L11.0742 10.918C11.0742 11.3282 11.3965 11.6602 11.8066 11.6602C12.2168 11.6602 12.5488 11.3282 12.5488 10.918L12.5488 7.60746C12.5488 4.19926 10.7129 1.97269 7.88086 1.66996ZM15.7617 4.0723C15.8691 4.65824 16.3281 4.78519 16.748 4.35551L18.7695 2.24613C19.1113 1.89457 19.0137 1.46488 18.5742 1.26957L15.918 0.0879287C15.3711-0.156212 15.0098 0.126991 15.1172 0.703163ZM15.7422 1.66996C12.9102 1.97269 11.0742 4.19926 11.0742 7.60746L11.0742 10.918C11.0742 11.3282 11.3965 11.6602 11.8066 11.6602C12.2168 11.6602 12.5488 11.3282 12.5488 10.918L12.5488 7.60746C12.5488 4.92191 13.8477 3.36918 15.8887 3.14457C16.2695 3.10551 16.5527 2.79301 16.5527 2.41215C16.5527 1.95316 16.1426 1.6309 15.7422 1.66996Z" fill="white" fill-opacity="0.85"/>
 </g>
</svg>
