<svg version="1.1" xmlns="http://www.w3.org/2000/svg" xmlns:xlink="http://www.w3.org/1999/xlink" viewBox="0 0 23.9258 23.1738">
 <g>
  <rect height="23.1738" opacity="0" width="23.9258" x="0" y="0"/>
  <path d="M22.4316 22.7441C22.0605 22.998 21.5039 23.1738 20.791 23.1738L2.77344 23.1738C2.05078 23.1738 1.50391 22.998 1.13281 22.7441L8.56445 15.3125L9.99023 16.582C10.5566 17.0703 11.1719 17.334 11.7773 17.334C12.3926 17.334 13.0078 17.0703 13.5742 16.582L15 15.3125ZM7.48047 14.375L0.253906 21.582C0.0976562 21.2207 0 20.7715 0 20.1465L0 9.36523C0 8.68164 0.126953 8.18359 0.234375 7.98828ZM23.5645 9.36523L23.5645 20.1465C23.5645 20.7715 23.457 21.2207 23.3105 21.582L16.084 14.375L23.3301 7.98828C23.4375 8.18359 23.5645 8.68164 23.5645 9.36523ZM22.4707 6.8457L12.7148 15.4395C12.4121 15.7129 12.0996 15.8398 11.7773 15.8398C11.4648 15.8398 11.1523 15.7129 10.8398 15.4395L1.08398 6.8457C1.62109 6.49414 2.22656 6.33789 3.06641 6.33789L11.0059 6.33789L11.0059 10.8398C11.0059 11.3281 11.3184 11.6602 11.7773 11.6602C12.2363 11.6602 12.5586 11.3281 12.5586 10.8398L12.5586 6.33789L20.498 6.33789C21.3379 6.33789 21.9434 6.49414 22.4707 6.8457Z" fill="var(--color-tertiary)"/>
  <path d="M4.73633 2.39258C4.39453 2.04102 4.49219 1.61133 4.93164 1.41602L7.58789 0.234375C8.13477-0.00976562 8.50586 0.273438 8.39844 0.849609L8.19336 1.875C9.72656 2.17773 11.4062 3.16406 11.7773 4.26758C12.1582 3.16406 13.8379 2.17773 15.3613 1.875L15.166 0.849609C15.0586 0.273438 15.4297-0.00976562 15.9766 0.234375L18.623 1.41602C19.0723 1.61133 19.1602 2.04102 18.8281 2.39258L16.8066 4.50195C16.377 4.93164 15.9277 4.80469 15.8203 4.21875L15.6152 3.18359C13.5449 3.53516 12.5586 4.78516 12.5586 6.29883L12.5586 10.8398C12.5586 11.3281 12.2363 11.6602 11.7773 11.6602C11.3184 11.6602 11.0059 11.3281 11.0059 10.8398L11.0059 6.29883C11.0059 4.78516 10.0195 3.53516 7.94922 3.18359L7.74414 4.21875C7.63672 4.80469 7.1875 4.93164 6.75781 4.50195Z" fill="var(--color-primary)"/>
 </g>
</svg>
