<?xml version="1.0" encoding="UTF-8"?>
<!--Generator: Apple Native CoreSVG 341-->
<!DOCTYPE svg
PUBLIC "-//W3C//DTD SVG 1.1//EN"
       "http://www.w3.org/Graphics/SVG/1.1/DTD/svg11.dtd">
<svg version="1.1" xmlns="http://www.w3.org/2000/svg" xmlns:xlink="http://www.w3.org/1999/xlink" viewBox="0 0 36.6016 22.5684">
 <g>
  <rect height="22.5684" opacity="0" width="36.6016" x="0" y="0"/>
  <path d="M22.0996 12.6074L22.0996 16.0254C22.0996 17.4624 22.4504 18.706 23.072 19.707L9.11133 19.707C8.39844 19.707 7.8418 19.5312 7.4707 19.2773L14.9023 11.8457L16.3281 13.1152C16.8945 13.6133 17.5098 13.8672 18.125 13.8672C18.7305 13.8672 19.3457 13.6133 19.9121 13.1152L21.3379 11.8457ZM13.8184 10.9082L6.60156 18.125C6.44531 17.7539 6.33789 17.3047 6.33789 16.6797L6.33789 5.89844C6.33789 5.22461 6.46484 4.72656 6.57227 4.52148ZM28.8184 3.37891L27.7631 4.30849C27.5512 4.43328 27.3675 4.59552 27.2238 4.78352L27.2019 4.80277C26.9881 4.71605 26.7266 4.66797 26.4844 4.66797C25.3125 4.66797 24.3555 5.625 24.3555 6.79688L24.3555 7.02148C23.1543 6.92383 22.0996 7.88086 22.0996 9.11133L22.0996 9.29732L19.0625 11.9727C18.75 12.2461 18.4375 12.373 18.125 12.373C17.8027 12.373 17.4902 12.2461 17.1875 11.9727L7.43164 3.37891C7.96875 3.02734 8.57422 2.87109 9.4043 2.87109L26.8359 2.87109C27.6758 2.87109 28.2812 3.02734 28.8184 3.37891Z" fill="white" fill-opacity="0.85"/>
  <path d="M28.5059 21.2305C30.8789 21.2305 32.334 20.2441 33.3105 18.2715C33.877 17.1777 34.3262 15.8594 34.7852 14.3262C34.9805 13.6914 35.2637 12.9004 35.2637 12.5488C35.2637 12.1387 34.9707 11.875 34.5508 11.875C34.0723 11.875 33.7988 12.1777 33.4473 12.8809L32.4316 15.0488C32.3145 15.2832 32.1973 15.3711 32.0801 15.3711C31.9336 15.3711 31.8262 15.2832 31.8262 15.0195L31.8262 7.23633C31.8262 6.79688 31.4648 6.43555 31.0254 6.43555C30.5859 6.43555 30.2246 6.79688 30.2246 7.23633L30.2246 12.8027C30.0293 12.7246 29.8047 12.666 29.5801 12.627L29.5801 6.17188C29.5801 5.73242 29.209 5.37109 28.7695 5.37109C28.3398 5.37109 27.9785 5.73242 27.9785 6.17188L27.9785 12.5488C27.7441 12.5586 27.5 12.5879 27.2852 12.6367L27.2852 6.79688C27.2852 6.35742 26.9238 5.99609 26.4844 5.99609C26.0449 5.99609 25.6836 6.35742 25.6836 6.79688L25.6836 13.1348C25.4395 13.252 25.2344 13.3887 25.0195 13.5254L25.0195 9.11133C25.0195 8.67188 24.668 8.31055 24.2285 8.31055C23.7891 8.31055 23.4277 8.67188 23.4277 9.11133L23.4277 16.0254C23.4277 19.2969 25.5664 21.2305 28.5059 21.2305Z" fill="white" fill-opacity="0.85"/>
 </g>
</svg>
