<?xml version="1.0" encoding="UTF-8"?>
<!--Generator: Apple Native CoreSVG 341-->
<!DOCTYPE svg
PUBLIC "-//W3C//DTD SVG 1.1//EN"
       "http://www.w3.org/Graphics/SVG/1.1/DTD/svg11.dtd">
<svg version="1.1" xmlns="http://www.w3.org/2000/svg" xmlns:xlink="http://www.w3.org/1999/xlink" viewBox="0 0 35.8008 22.5684">
 <g>
  <rect height="22.5684" opacity="0" width="35.8008" x="0" y="0"/>
  <path d="M29.2809 4.50768C28.9237 4.19956 28.4601 4.0332 27.9688 4.0332C27.5463 4.0332 27.1532 4.16747 26.8367 4.38985C26.7292 4.37347 26.615 4.36523 26.4941 4.36523L8.95508 4.36523C8.76352 4.36523 8.58807 4.38594 8.43059 4.42774L16.7871 11.9531C17.0801 12.2266 17.3926 12.3535 17.7148 12.3535C18.0371 12.3535 18.3594 12.2266 18.6523 11.9531L21.2988 9.56728L21.2988 12.208L20.9261 11.8347L19.502 13.1152C18.9453 13.623 18.3496 13.8574 17.7148 13.8574C17.0898 13.8574 16.4844 13.623 15.9277 13.1152L14.5144 11.8431L8.26306 18.0944C8.46082 18.1734 8.69286 18.2129 8.95508 18.2129L21.6069 18.2129C21.7656 18.7595 21.989 19.2596 22.2713 19.707L9.00391 19.707C6.97266 19.707 5.9375 18.6914 5.9375 16.6797L5.9375 5.89844C5.9375 3.88672 6.96289 2.87109 8.71094 2.87109L26.4355 2.87109C27.9267 2.87109 28.8811 3.41846 29.2809 4.50768ZM7.43164 5.88867L7.43164 16.6699C7.43164 16.7413 7.43445 16.8104 7.44076 16.8764L13.4451 10.8806L7.4653 5.49814C7.44261 5.61828 7.43164 5.74886 7.43164 5.88867Z" fill="white" fill-opacity="0.85"/>
  <path d="M27.7051 21.2305C30.0781 21.2305 31.5332 20.2441 32.5098 18.2715C33.0762 17.1777 33.5254 15.8594 33.9844 14.3262C34.1797 13.6914 34.4629 12.9004 34.4629 12.5488C34.4629 12.1387 34.1699 11.875 33.75 11.875C33.2715 11.875 32.998 12.1777 32.6465 12.8809L31.6309 15.0488C31.5137 15.2832 31.3965 15.3711 31.2793 15.3711C31.1328 15.3711 31.0254 15.2832 31.0254 15.0195L31.0254 7.23633C31.0254 6.79688 30.6641 6.43555 30.2246 6.43555C29.7949 6.43555 29.4238 6.79688 29.4238 7.23633L29.4238 12.8027C29.2285 12.7246 29.0039 12.666 28.7793 12.627L28.7793 6.17188C28.7793 5.73242 28.4082 5.37109 27.9688 5.37109C27.5391 5.37109 27.1777 5.73242 27.1777 6.17188L27.1777 12.5488C26.9434 12.5586 26.6992 12.5879 26.4844 12.6367L26.4844 6.79688C26.4844 6.35742 26.123 5.99609 25.6836 5.99609C25.2441 5.99609 24.8828 6.35742 24.8828 6.79688L24.8828 13.1348C24.6387 13.252 24.4336 13.3887 24.2188 13.5254L24.2188 9.11133C24.2188 8.67188 23.8672 8.31055 23.4277 8.31055C22.9883 8.31055 22.627 8.67188 22.627 9.11133L22.627 16.0254C22.627 19.2969 24.7656 21.2305 27.7051 21.2305Z" fill="white" fill-opacity="0.85"/>
 </g>
</svg>
