<?xml version="1.0" encoding="UTF-8"?>
<!--Generator: Apple Native CoreSVG 341-->
<!DOCTYPE svg
PUBLIC "-//W3C//DTD SVG 1.1//EN"
       "http://www.w3.org/Graphics/SVG/1.1/DTD/svg11.dtd">
<svg version="1.1" xmlns="http://www.w3.org/2000/svg" xmlns:xlink="http://www.w3.org/1999/xlink" viewBox="0 0 20.2832 19.9316">
 <g>
  <rect height="19.9316" opacity="0" width="20.2832" x="0" y="0"/>
  <path d="M9.96094 19.9316C15.459 19.9316 19.9219 15.4688 19.9219 9.9707C19.9219 4.48242 15.459 0.00976562 9.96094 0.00976562C4.47266 0.00976562 0 4.48242 0 9.9707C0 15.4688 4.47266 19.9316 9.96094 19.9316Z" fill="white" fill-opacity="0.2125"/>
  <path d="M8.78906 7.50977C8.67188 7.50977 8.60352 7.44141 8.57422 7.34375C8.42773 6.2793 8.30078 6.10352 7.1875 5.95703C7.09961 5.9375 7.01172 5.86914 7.01172 5.78125C7.01172 5.66406 7.09961 5.57617 7.19727 5.55664C8.30078 5.42969 8.37891 5.25391 8.57422 4.17969C8.60352 4.07227 8.67188 4.00391 8.78906 4.00391C8.86719 4.00391 8.94531 4.07227 8.96484 4.18945C9.14062 5.24414 9.23828 5.42969 10.332 5.55664C10.459 5.57617 10.5273 5.66406 10.5273 5.78125C10.5273 5.86914 10.459 5.9375 10.332 5.95703C9.23828 6.10352 9.16992 6.2793 8.96484 7.36328C8.94531 7.45117 8.86719 7.50977 8.78906 7.50977ZM7.62695 13.6133C6.9043 13.6133 6.60156 12.9395 7.09961 12.3535L11.3086 7.32422C11.5039 7.09961 11.7285 6.95312 11.9727 6.95312C12.1973 6.95312 12.4219 7.09961 12.6172 7.32422L16.8164 12.3535C17.3047 12.9395 17.0312 13.6133 16.3086 13.6133ZM6.61133 11.9336C6.42578 12.1387 6.31836 12.3633 6.26953 12.5781L3.33008 12.5781C2.63672 12.5781 2.40234 11.875 2.83203 11.3867L5.85938 7.82227C6.05469 7.58789 6.25977 7.49023 6.49414 7.49023C6.70898 7.49023 6.9043 7.58789 7.10938 7.82227L8.59375 9.56055Z" fill="white" fill-opacity="0.85"/>
 </g>
</svg>
