<?xml version="1.0" encoding="UTF-8"?>
<!--Generator: Apple Native CoreSVG 341-->
<!DOCTYPE svg
PUBLIC "-//W3C//DTD SVG 1.1//EN"
       "http://www.w3.org/Graphics/SVG/1.1/DTD/svg11.dtd">
<svg version="1.1" xmlns="http://www.w3.org/2000/svg" xmlns:xlink="http://www.w3.org/1999/xlink" viewBox="0 0 20.2832 19.9316">
 <g>
  <rect height="19.9316" opacity="0" width="20.2832" x="0" y="0"/>
  <path d="M9.96094 19.9316C15.459 19.9316 19.9219 15.4688 19.9219 9.9707C19.9219 4.48242 15.459 0.00976562 9.96094 0.00976562C4.47266 0.00976562 0 4.48242 0 9.9707C0 15.4688 4.47266 19.9316 9.96094 19.9316Z" fill="white" fill-opacity="0.2125"/>
  <path d="M5.67383 5.0293L14.9121 14.2676C15.0879 14.4531 15.0879 14.7266 14.9121 14.9121C14.7363 15.0879 14.4336 15.0879 14.2676 14.9121L5.01953 5.67383C4.85352 5.49805 4.84375 5.20508 5.01953 5.0293C5.20508 4.84375 5.49805 4.84375 5.67383 5.0293ZM11.961 13.6133L7.62695 13.6133C6.9043 13.6133 6.60156 12.9395 7.09961 12.3535L8.73896 10.3947ZM12.6172 7.32422L16.8164 12.3535C17.3047 12.9395 17.0312 13.6133 16.3086 13.6133L15.2637 13.6133L10.2452 8.59483L11.3086 7.32422C11.5039 7.09961 11.7285 6.95312 11.9727 6.95312C12.1973 6.95312 12.4219 7.09961 12.6172 7.32422ZM8.27997 9.93615L6.61133 11.9336C6.42578 12.1387 6.31836 12.3633 6.26953 12.5781L3.33008 12.5781C2.63672 12.5781 2.40234 11.875 2.83203 11.3867L5.85938 7.82227C5.90909 7.76261 5.95944 7.71181 6.01075 7.66932ZM8.96484 4.18945C9.14062 5.24414 9.23828 5.42969 10.332 5.55664C10.459 5.57617 10.5273 5.66406 10.5273 5.78125C10.5273 5.86914 10.459 5.9375 10.332 5.95703C9.25244 6.10162 9.17186 6.27475 8.97266 7.32227L8.4883 6.83791C8.37767 6.35117 8.19935 6.1601 7.69338 6.04299L7.20598 5.55559C8.30121 5.42873 8.37944 5.25099 8.57422 4.17969C8.60352 4.07227 8.67188 4.00391 8.78906 4.00391C8.86719 4.00391 8.94531 4.07227 8.96484 4.18945Z" fill="white" fill-opacity="0.85"/>
 </g>
</svg>
