<?xml version="1.0" encoding="UTF-8"?>
<!--Generator: Apple Native CoreSVG 341-->
<!DOCTYPE svg
PUBLIC "-//W3C//DTD SVG 1.1//EN"
       "http://www.w3.org/Graphics/SVG/1.1/DTD/svg11.dtd">
<svg version="1.1" xmlns="http://www.w3.org/2000/svg" xmlns:xlink="http://www.w3.org/1999/xlink" viewBox="0 0 20.2832 19.9316">
 <g>
  <rect height="19.9316" opacity="0" width="20.2832" x="0" y="0"/>
  <path d="M9.96094 19.9219C15.459 19.9219 19.9219 15.459 19.9219 9.96094C19.9219 4.46289 15.459 0 9.96094 0C4.46289 0 0 4.46289 0 9.96094C0 15.459 4.46289 19.9219 9.96094 19.9219ZM9.96094 18.2617C5.37109 18.2617 1.66016 14.5508 1.66016 9.96094C1.66016 5.37109 5.37109 1.66016 9.96094 1.66016C14.5508 1.66016 18.2617 5.37109 18.2617 9.96094C18.2617 14.5508 14.5508 18.2617 9.96094 18.2617Z" fill="white" fill-opacity="0.85"/>
  <path d="M8.80859 7.53906C8.89648 7.53906 8.96484 7.48047 8.98438 7.38281C9.18945 6.33789 9.24805 6.17188 10.3223 6.03516C10.4395 6.00586 10.5078 5.9375 10.5078 5.84961C10.5078 5.74219 10.4297 5.6543 10.3223 5.64453C9.25781 5.50781 9.16016 5.33203 8.98438 4.31641C8.96484 4.20898 8.89648 4.14062 8.80859 4.14062C8.71094 4.14062 8.63281 4.20898 8.61328 4.30664C8.41797 5.3418 8.33984 5.50781 7.26562 5.64453C7.17773 5.6543 7.08984 5.74219 7.08984 5.84961C7.08984 5.9375 7.17773 6.00586 7.26562 6.03516C8.34961 6.17188 8.4668 6.33789 8.61328 7.37305C8.63281 7.4707 8.70117 7.53906 8.80859 7.53906ZM7.68555 13.4473L16.1133 13.4473C16.8164 13.4473 17.0801 12.8027 16.6016 12.2363L12.5293 7.35352C12.334 7.12891 12.1191 7.00195 11.8945 7.00195C11.6699 7.00195 11.4551 7.12891 11.2695 7.35352L7.17773 12.2363C6.68945 12.8027 6.98242 13.4473 7.68555 13.4473ZM6.69922 11.8359L8.63281 9.53125L7.17773 7.8418C6.99219 7.60742 6.80664 7.51953 6.5918 7.51953C6.36719 7.51953 6.17188 7.60742 5.97656 7.8418L3.04688 11.2988C2.62695 11.7773 2.85156 12.4512 3.52539 12.4512L6.37695 12.4512C6.41602 12.2461 6.5332 12.0312 6.69922 11.8359Z" fill="white" fill-opacity="0.85"/>
 </g>
</svg>
