<svg version="1.1" xmlns="http://www.w3.org/2000/svg" xmlns:xlink="http://www.w3.org/1999/xlink" viewBox="0 0 18.3398 17.9785">
 <g>
  <rect height="17.9785" opacity="0" width="18.3398" x="0" y="0"/>
  <path d="M3.06641 17.9785L14.9121 17.9785C16.9629 17.9785 17.9785 16.9727 17.9785 14.9609L17.9785 3.02734C17.9785 1.01562 16.9629 0 14.9121 0L3.06641 0C1.02539 0 0 1.01562 0 3.02734L0 14.9609C0 16.9727 1.02539 17.9785 3.06641 17.9785Z" fill="var(--color-tertiary)"/>
  <path d="M5.20508 11.6309C4.6875 11.6309 4.31641 11.377 4.31641 10.8691C4.31641 10.3516 4.66797 10.0781 5.20508 10.0781L12.7734 10.0781C13.3105 10.0781 13.6621 10.3516 13.6621 10.8691C13.6621 11.377 13.291 11.6309 12.7734 11.6309ZM5.20508 7.91016C4.6875 7.91016 4.31641 7.65625 4.31641 7.13867C4.31641 6.62109 4.66797 6.35742 5.20508 6.35742L12.7734 6.35742C13.3105 6.35742 13.6621 6.62109 13.6621 7.13867C13.6621 7.65625 13.291 7.91016 12.7734 7.91016Z" fill="var(--color-primary)"/>
 </g>
</svg>
