<?xml version="1.0" encoding="UTF-8"?>
<!--Generator: Apple Native CoreSVG 341-->
<!DOCTYPE svg
PUBLIC "-//W3C//DTD SVG 1.1//EN"
       "http://www.w3.org/Graphics/SVG/1.1/DTD/svg11.dtd">
<svg version="1.1" xmlns="http://www.w3.org/2000/svg" xmlns:xlink="http://www.w3.org/1999/xlink" viewBox="0 0 20.2832 19.9316">
 <g>
  <rect height="19.9316" opacity="0" width="20.2832" x="0" y="0"/>
  <path d="M9.96094 19.9219C15.459 19.9219 19.9219 15.459 19.9219 9.96094C19.9219 4.46289 15.459 0 9.96094 0C9.50195 0 9.13086 0.371094 9.13086 0.830078C9.13086 1.28906 9.50195 1.66992 9.96094 1.66992C14.541 1.66992 18.252 5.38086 18.252 9.96094C18.252 14.541 14.541 18.252 9.96094 18.252C5.38086 18.252 1.66992 14.541 1.66992 9.96094C1.66992 9.50195 1.29883 9.12109 0.830078 9.12109C0.371094 9.12109 0 9.50195 0 9.96094C0 15.459 4.46289 19.9219 9.96094 19.9219Z" fill="white" fill-opacity="0.85"/>
  <path d="M9.81445 10.1367C10.1562 9.84375 10.2637 9.28711 9.82422 8.84766L4.50195 3.52539L2.72461 1.96289C2.44141 1.71875 2.02148 1.69922 1.75781 1.96289C1.49414 2.23633 1.51367 2.64648 1.75781 2.91992L3.31055 4.73633L8.62305 10.0586C9.04297 10.459 9.51172 10.4004 9.81445 10.1367ZM1.19141 6.77734C1.63086 6.77734 2.01172 6.43555 1.98242 5.98633L1.85547 2.88086L2.64648 2.05078L5.78125 2.20703C6.23047 2.23633 6.57227 1.85547 6.58203 1.41602C6.58203 0.966797 6.23047 0.625 5.79102 0.615234L1.39648 0.615234C0.751953 0.615234 0.400391 0.957031 0.400391 1.61133L0.400391 5.99609C0.410156 6.43555 0.771484 6.77734 1.19141 6.77734Z" fill="white" fill-opacity="0.85"/>
 </g>
</svg>
