<?xml version="1.0" encoding="UTF-8"?>
<!--Generator: Apple Native CoreSVG 341-->
<!DOCTYPE svg
PUBLIC "-//W3C//DTD SVG 1.1//EN"
       "http://www.w3.org/Graphics/SVG/1.1/DTD/svg11.dtd">
<svg version="1.1" xmlns="http://www.w3.org/2000/svg" xmlns:xlink="http://www.w3.org/1999/xlink" viewBox="0 0 18.3398 17.9785">
 <g>
  <rect height="17.9785" opacity="0" width="18.3398" x="0" y="0"/>
  <path d="M3.06641 17.9785L14.9121 17.9785C16.9629 17.9785 17.9785 16.9727 17.9785 14.9609L17.9785 3.02734C17.9785 1.01562 16.9629 0 14.9121 0L3.06641 0C1.02539 0 0 1.01562 0 3.02734L0 14.9609C0 16.9727 1.02539 17.9785 3.06641 17.9785Z" fill="white" fill-opacity="0.2125"/>
  <path d="M4.58984 13.0273C4.20898 13.0273 4.02344 12.8125 4.02344 12.4316L4.02344 5.54688C4.02344 5.18555 4.21875 4.96094 4.58984 4.96094L7.73438 4.96094C8.05664 4.96094 8.25195 5.12695 8.25195 5.43945C8.25195 5.75195 8.05664 5.94727 7.73438 5.94727L5.16602 5.94727L5.16602 8.44727L7.62695 8.44727C7.91016 8.44727 8.10547 8.63281 8.10547 8.91602C8.10547 9.19922 7.91016 9.38477 7.62695 9.38477L5.16602 9.38477L5.16602 12.041L7.73438 12.041C8.05664 12.041 8.25195 12.2266 8.25195 12.5391C8.25195 12.8516 8.05664 13.0273 7.73438 13.0273ZM10 13.0273C9.69727 13.0273 9.42383 12.8516 9.42383 12.4707C9.42383 12.2949 9.48242 12.1289 9.57031 11.9824L12.9395 5.99609L12.9395 5.94727L9.96094 5.94727C9.6582 5.94727 9.44336 5.74219 9.44336 5.43945C9.44336 5.13672 9.6582 4.96094 9.96094 4.96094L13.6523 4.96094C14.043 4.96094 14.2383 5.21484 14.2383 5.51758C14.2383 5.71289 14.1699 5.86914 14.0723 6.02539L10.752 11.9922L10.752 12.041L13.877 12.041C14.1699 12.041 14.3457 12.2461 14.3457 12.5391C14.3457 12.832 14.1699 13.0273 13.877 13.0273Z" fill="white" fill-opacity="0.85"/>
 </g>
</svg>
