<?xml version="1.0" encoding="UTF-8"?>
<!--Generator: Apple Native CoreSVG 341-->
<!DOCTYPE svg
PUBLIC "-//W3C//DTD SVG 1.1//EN"
       "http://www.w3.org/Graphics/SVG/1.1/DTD/svg11.dtd">
<svg version="1.1" xmlns="http://www.w3.org/2000/svg" xmlns:xlink="http://www.w3.org/1999/xlink" viewBox="0 0 22.1973 21.8457">
 <g>
  <rect height="21.8457" opacity="0" width="22.1973" x="0" y="0"/>
  <path d="M10.918 21.8359C16.9141 21.8359 21.8359 16.9141 21.8359 10.918C21.8359 4.92188 16.9141 0 10.918 0C4.92188 0 0 4.92188 0 10.918C0 16.9141 4.92188 21.8359 10.918 21.8359ZM10.918 18.2031C6.89453 18.2031 3.63281 14.9414 3.63281 10.918C3.63281 6.88477 6.89453 3.63281 10.918 3.63281C14.9512 3.63281 18.2031 6.88477 18.2031 10.918C18.2031 14.9414 14.9512 18.2031 10.918 18.2031Z" fill="white" fill-opacity="0.85"/>
  <path d="M12.1094 15.2148C12.3828 15.2148 12.7246 15.1953 12.998 15.1367C13.291 15.0586 13.5156 14.9219 13.5156 14.6289C13.5156 14.3164 13.3105 14.1699 12.998 14.1699C12.6758 14.1699 12.5586 14.209 12.168 14.209C10.0684 14.209 8.7793 13.0176 8.7793 10.8789C8.7793 8.76953 9.99023 7.5293 12.1387 7.5293C12.4902 7.5293 12.793 7.56836 12.998 7.56836C13.3105 7.56836 13.5156 7.41211 13.5156 7.09961C13.5156 6.83594 13.3496 6.66992 12.998 6.58203C12.7637 6.5332 12.4512 6.50391 12.1094 6.50391C9.66797 6.50391 7.60742 7.90039 7.60742 10.8691C7.60742 13.6621 9.45312 15.2148 12.1094 15.2148ZM6.28906 9.98047C6.28906 10.1562 6.43555 10.3027 6.61133 10.3027L12.0117 10.3027C12.1875 10.3027 12.334 10.1562 12.334 9.98047C12.334 9.80469 12.1875 9.6582 12.0117 9.6582L6.61133 9.6582C6.43555 9.6582 6.28906 9.80469 6.28906 9.98047ZM6.28906 11.7383C6.28906 11.9141 6.43555 12.0605 6.61133 12.0605L12.0117 12.0605C12.1875 12.0605 12.334 11.9141 12.334 11.7383C12.334 11.5527 12.1875 11.4062 12.0117 11.4062L6.61133 11.4062C6.43555 11.4062 6.28906 11.5527 6.28906 11.7383Z" fill="white" fill-opacity="0.85"/>
 </g>
</svg>
