<svg version="1.1" xmlns="http://www.w3.org/2000/svg" xmlns:xlink="http://www.w3.org/1999/xlink" viewBox="0 0 27.8027 21.7871">
 <g>
  <rect height="21.7871" opacity="0" width="27.8027" x="0" y="0"/>
  <path d="M14.3457 21.0449L14.3457 2.48047C14.3457 0.878906 13.4668 0 11.875 0L4.00391 0C2.39258 0 1.54297 0.878906 1.54297 2.48047L1.54297 21.0449ZM4.31641 8.84766C3.61328 8.84766 3.18359 8.45703 3.18359 7.80273L3.18359 2.70508C3.18359 2.04102 3.61328 1.64062 4.31641 1.64062L11.5625 1.64062C12.2656 1.64062 12.7051 2.04102 12.7051 2.70508L12.7051 7.80273C12.7051 8.45703 12.2656 8.84766 11.5625 8.84766ZM0 20.9766C0 21.416 0.341797 21.7773 0.771484 21.7773L15.0977 21.7773C15.5273 21.7773 15.8887 21.416 15.8887 20.9766C15.8887 20.5566 15.5273 20.2051 15.0977 20.2051L0.771484 20.2051C0.351562 20.2051 0 20.5469 0 20.9766ZM19.5801 9.87305L19.5801 16.1035C19.5801 17.4023 19.0137 18.1445 18.0176 18.1445C17.1191 18.1445 16.5527 17.5488 16.5527 16.5918C16.5527 15.1562 16.7871 13.252 16.7871 11.5039C16.7871 9.79492 15.9473 8.49609 13.877 7.8125L13.3984 8.88672C14.9707 9.36523 15.6055 10.332 15.6055 11.5039C15.6055 13.0664 15.3711 14.9707 15.3711 16.5918C15.3711 18.2715 16.3867 19.3359 18.0176 19.3359C19.7656 19.3359 20.7617 18.1543 20.7617 16.1035L20.7617 9.87305C20.7617 8.99414 21.416 8.75977 21.8359 8.42773C22.4609 7.96875 22.793 7.31445 22.793 6.55273L22.793 5.23438C22.793 5.0293 22.666 4.89258 22.4902 4.89258L21.8652 4.89258L21.8652 3.125C21.8652 2.86133 21.6406 2.63672 21.3672 2.63672C21.1035 2.63672 20.8691 2.86133 20.8691 3.125L20.8789 4.89258L19.5703 4.89258L19.5703 3.125C19.5703 2.86133 19.3555 2.63672 19.0918 2.63672C18.8086 2.63672 18.5938 2.86133 18.5938 3.125L18.5938 4.89258L17.8516 4.89258C17.666 4.89258 17.5391 5.0293 17.5391 5.23438L17.5391 6.55273C17.5391 7.31445 17.8809 7.96875 18.4961 8.42773C18.9258 8.75977 19.5801 8.99414 19.5801 9.87305Z" fill="var(--color-secondary)"/>
  <path d="M26.1523 17.4414C26.8555 17.4414 27.4414 16.875 27.4414 16.2109C27.4414 15.5371 26.8652 14.9805 26.1523 14.9805C25.4492 14.9805 24.873 15.5371 24.873 16.2109C24.873 16.875 25.459 17.4414 26.1523 17.4414ZM26.1523 13.1055C26.6309 13.1055 26.9727 12.7734 26.9922 12.2754L27.1973 5.36133C27.2168 4.73633 26.7969 4.31641 26.1523 4.31641C25.5176 4.31641 25.0977 4.73633 25.1172 5.36133L25.3223 12.2754C25.3418 12.7734 25.6738 13.1055 26.1523 13.1055Z" fill="var(--color-primary)"/>
 </g>
</svg>
