<?xml version="1.0" encoding="UTF-8"?>
<!--Generator: Apple Native CoreSVG 341-->
<!DOCTYPE svg
PUBLIC "-//W3C//DTD SVG 1.1//EN"
       "http://www.w3.org/Graphics/SVG/1.1/DTD/svg11.dtd">
<svg version="1.1" xmlns="http://www.w3.org/2000/svg" xmlns:xlink="http://www.w3.org/1999/xlink" viewBox="0 0 17.0508 24.8926">
 <g>
  <rect height="24.8926" opacity="0" width="17.0508" x="0" y="0"/>
  <path d="M8.35938 14.3945C12.2852 14.3945 15.5469 11.123 15.5469 7.19727C15.5469 3.27148 12.2754 0 8.33984 0C4.41406 0 1.16211 3.27148 1.16211 7.19727C1.16211 11.123 4.43359 14.3945 8.35938 14.3945ZM8.35938 12.9688C5.13672 12.9688 2.59766 10.4199 2.59766 7.19727C2.59766 3.98438 5.13672 1.42578 8.33984 1.42578C11.5625 1.42578 14.1211 3.98438 14.1211 7.19727C14.1211 10.4199 11.5723 12.9688 8.35938 12.9688ZM4.95117 24.873L11.7285 24.873C14.5312 24.873 16.6895 22.6855 16.6895 19.9121C16.6895 17.1387 14.5312 14.9512 11.7285 14.9512L4.95117 14.9512C2.1582 14.9512 0 17.1387 0 19.9121C0 22.6855 2.1582 24.873 4.95117 24.873ZM4.95117 23.4473C2.94922 23.4473 1.40625 21.9141 1.40625 19.9121C1.40625 17.9102 2.94922 16.377 4.95117 16.377L11.7285 16.377C13.7402 16.377 15.2832 17.9102 15.2832 19.9121C15.2832 21.9141 13.7402 23.4473 11.7285 23.4473Z" fill="white" fill-opacity="0.85"/>
  <path d="M5.84961 6.67969C6.73828 6.67969 7.45117 5.9668 7.45117 5.07812C7.45117 4.17969 6.73828 3.4668 5.84961 3.4668C4.95117 3.4668 4.23828 4.17969 4.23828 5.07812C4.23828 5.9668 4.95117 6.67969 5.84961 6.67969ZM10.8398 6.67969C11.7383 6.67969 12.4512 5.9668 12.4512 5.07812C12.4512 4.17969 11.7383 3.4668 10.8398 3.4668C9.95117 3.4668 9.23828 4.17969 9.23828 5.07812C9.23828 5.9668 9.95117 6.67969 10.8398 6.67969ZM4.94141 9.96094C5.56641 9.96094 6.06445 9.46289 6.06445 8.83789C6.06445 8.21289 5.56641 7.71484 4.94141 7.71484C4.31641 7.71484 3.81836 8.21289 3.81836 8.83789C3.81836 9.46289 4.31641 9.96094 4.94141 9.96094ZM11.748 9.96094C12.373 9.96094 12.8711 9.46289 12.8711 8.83789C12.8711 8.21289 12.373 7.71484 11.748 7.71484C11.123 7.71484 10.625 8.21289 10.625 8.83789C10.625 9.46289 11.123 9.96094 11.748 9.96094ZM8.33984 12.3047C9.23828 12.3047 9.95117 11.5918 9.95117 10.6934C9.95117 9.80469 9.23828 9.0918 8.33984 9.0918C7.45117 9.0918 6.73828 9.80469 6.73828 10.6934C6.73828 11.5918 7.45117 12.3047 8.33984 12.3047ZM4.94141 22.5195C6.38672 22.5195 7.55859 21.3574 7.55859 19.9121C7.55859 18.4668 6.38672 17.2949 4.94141 17.2949C3.49609 17.2949 2.33398 18.4668 2.33398 19.9121C2.33398 21.3574 3.49609 22.5195 4.94141 22.5195ZM11.7383 22.5195C13.1934 22.5195 14.3555 21.3574 14.3555 19.9121C14.3555 18.4668 13.1934 17.2949 11.7383 17.2949C10.293 17.2949 9.13086 18.4668 9.13086 19.9121C9.13086 21.3574 10.293 22.5195 11.7383 22.5195Z" fill="white" fill-opacity="0.85"/>
 </g>
</svg>
