<?xml version="1.0" encoding="UTF-8"?>
<!--Generator: Apple Native CoreSVG 341-->
<!DOCTYPE svg
PUBLIC "-//W3C//DTD SVG 1.1//EN"
       "http://www.w3.org/Graphics/SVG/1.1/DTD/svg11.dtd">
<svg version="1.1" xmlns="http://www.w3.org/2000/svg" xmlns:xlink="http://www.w3.org/1999/xlink" viewBox="0 0 16.1328 18.7012">
 <g>
  <rect height="18.7012" opacity="0" width="16.1328" x="0" y="0"/>
  <path d="M10 13.3594C10.6738 13.3594 10.9863 12.8906 10.9863 12.2656C10.9863 12.1582 10.9863 12.041 10.9863 11.9336C11.0059 10.6445 11.4746 10.1074 13.0371 9.0332C14.707 7.90039 15.7715 6.5918 15.7715 4.70703C15.7715 1.77734 13.3887 0.0976562 10.4297 0.0976562C8.22266 0.0976562 6.2793 1.14258 5.44922 3.02734C5.24414 3.48633 5.15625 3.93555 5.15625 4.30664C5.15625 4.86328 5.47852 5.25391 6.07422 5.25391C6.57227 5.25391 6.91406 4.96094 7.05078 4.48242C7.55859 2.62695 8.7793 1.92383 10.3613 1.92383C12.2656 1.92383 13.75 2.99805 13.75 4.69727C13.75 6.09375 12.8809 6.875 11.6309 7.75391C10.0977 8.81836 8.97461 9.96094 8.97461 11.6797C8.97461 11.8848 8.97461 12.0898 8.97461 12.2949C8.97461 12.9199 9.31641 13.3594 10 13.3594ZM10 18.7012C10.7715 18.7012 11.3867 18.0762 11.3867 17.3145C11.3867 16.543 10.7715 15.9277 10 15.9277C9.23828 15.9277 8.61328 16.543 8.61328 17.3145C8.61328 18.0762 9.23828 18.7012 10 18.7012Z" fill="white" fill-opacity="0.85"/>
  <path d="M1.39648 13.3203C1.91406 13.3203 2.26562 12.9785 2.27539 12.4512L2.36328 1.07422C2.36328 1.07422 2.36328 1.07422 2.36328 1.07422C2.36328 0.517578 1.91406 0.136719 1.38672 0.136719C0.859375 0.136719 0.410156 0.517578 0.410156 1.07422C0.410156 1.07422 0.410156 1.07422 0.410156 1.07422L0.517578 12.4512C0.527344 12.9785 0.878906 13.3203 1.39648 13.3203ZM1.38672 18.7012C2.1582 18.7012 2.77344 18.0762 2.77344 17.3145C2.77344 16.543 2.1582 15.9277 1.38672 15.9277C0.625 15.9277 0 16.543 0 17.3145C0 18.0762 0.625 18.7012 1.38672 18.7012Z" fill="white" fill-opacity="0.85"/>
 </g>
</svg>
