<?xml version="1.0" encoding="UTF-8"?>
<!--Generator: Apple Native CoreSVG 341-->
<!DOCTYPE svg
PUBLIC "-//W3C//DTD SVG 1.1//EN"
       "http://www.w3.org/Graphics/SVG/1.1/DTD/svg11.dtd">
<svg version="1.1" xmlns="http://www.w3.org/2000/svg" xmlns:xlink="http://www.w3.org/1999/xlink" viewBox="0 0 18.3398 17.9785">
 <g>
  <rect height="17.9785" opacity="0" width="18.3398" x="0" y="0"/>
  <path d="M3.06641 17.9785L14.9121 17.9785C16.9629 17.9785 17.9785 16.9727 17.9785 14.9609L17.9785 3.02734C17.9785 1.01562 16.9629 0 14.9121 0L3.06641 0C1.02539 0 0 1.01562 0 3.02734L0 14.9609C0 16.9727 1.02539 17.9785 3.06641 17.9785Z" fill="white" fill-opacity="0.2125"/>
  <path d="M8.99414 13.1152C5.15625 13.1152 2.41211 9.9707 2.41211 8.99414C2.41211 8.00781 5.12695 4.86328 8.99414 4.86328C12.8613 4.86328 15.5664 8.00781 15.5664 8.99414C15.5664 9.9707 12.8711 13.1152 8.99414 13.1152ZM8.99414 11.6895C10.4883 11.6895 11.6992 10.459 11.6992 8.99414C11.6992 7.48047 10.4883 6.28906 8.99414 6.28906C7.49023 6.28906 6.2793 7.48047 6.28906 8.99414C6.28906 10.459 7.49023 11.6895 8.99414 11.6895ZM9.01367 10.1758C8.35938 10.1758 7.80273 9.61914 7.80273 8.99414C7.80273 8.35938 8.35938 7.80273 9.01367 7.80273C9.63867 7.80273 10.1855 8.35938 10.1855 8.99414C10.1855 9.61914 9.63867 10.1758 9.01367 10.1758Z" fill="white" fill-opacity="0.85"/>
 </g>
</svg>
