<?xml version="1.0" encoding="UTF-8"?>
<!--Generator: Apple Native CoreSVG 341-->
<!DOCTYPE svg
PUBLIC "-//W3C//DTD SVG 1.1//EN"
       "http://www.w3.org/Graphics/SVG/1.1/DTD/svg11.dtd">
<svg version="1.1" xmlns="http://www.w3.org/2000/svg" xmlns:xlink="http://www.w3.org/1999/xlink" viewBox="0 0 20.2832 19.9316">
 <g>
  <rect height="19.9316" opacity="0" width="20.2832" x="0" y="0"/>
  <path d="M9.96094 19.9316C15.459 19.9316 19.9219 15.4688 19.9219 9.9707C19.9219 4.48242 15.459 0.00976562 9.96094 0.00976562C4.47266 0.00976562 0 4.48242 0 9.9707C0 15.4688 4.47266 19.9316 9.96094 19.9316Z" fill="white" fill-opacity="0.2125"/>
  <path d="M9.96094 14.1016C6.12305 14.1016 3.37891 10.957 3.37891 9.98047C3.37891 8.99414 6.09375 5.85938 9.96094 5.85938C13.8281 5.85938 16.5332 8.99414 16.5332 9.98047C16.5332 10.957 13.8379 14.1016 9.96094 14.1016ZM9.96094 12.6758C11.4551 12.6758 12.666 11.4453 12.666 9.98047C12.666 8.47656 11.4551 7.28516 9.96094 7.28516C8.45703 7.28516 7.24609 8.47656 7.25586 9.98047C7.25586 11.4453 8.45703 12.6758 9.96094 12.6758ZM9.9707 11.1719C9.32617 11.1719 8.76953 10.6055 8.76953 9.98047C8.76953 9.3457 9.32617 8.78906 9.9707 8.78906C10.6055 8.78906 11.1523 9.3457 11.1523 9.98047C11.1523 10.6055 10.6055 11.1719 9.9707 11.1719Z" fill="white" fill-opacity="0.85"/>
 </g>
</svg>
