<svg version="1.1" xmlns="http://www.w3.org/2000/svg" xmlns:xlink="http://www.w3.org/1999/xlink" viewBox="0 0 20.2832 19.9316">
 <g>
  <rect height="19.9316" opacity="0" width="20.2832" x="0" y="0"/>
  <path d="M9.96094 19.9219C15.459 19.9219 19.9219 15.459 19.9219 9.96094C19.9219 4.46289 15.459 0 9.96094 0C4.46289 0 0 4.46289 0 9.96094C0 15.459 4.46289 19.9219 9.96094 19.9219ZM9.96094 18.2617C5.37109 18.2617 1.66016 14.5508 1.66016 9.96094C1.66016 5.37109 5.37109 1.66016 9.96094 1.66016C14.5508 1.66016 18.2617 5.37109 18.2617 9.96094C18.2617 14.5508 14.5508 18.2617 9.96094 18.2617Z" fill="var(--color-secondary)"/>
  <path d="M9.95117 14.0918C13.8281 14.0918 16.5234 10.9473 16.5234 9.9707C16.5234 8.98438 13.8184 5.83984 9.95117 5.83984C6.08398 5.83984 3.36914 8.98438 3.36914 9.9707C3.36914 10.9473 6.11328 14.0918 9.95117 14.0918ZM9.95117 12.666C8.44727 12.666 7.24609 11.4355 7.24609 9.9707C7.23633 8.45703 8.44727 7.26562 9.95117 7.26562C11.4453 7.26562 12.6562 8.45703 12.6562 9.9707C12.6562 11.4355 11.4453 12.666 9.95117 12.666ZM9.96094 11.1523C10.5957 11.1523 11.1426 10.5957 11.1426 9.9707C11.1426 9.33594 10.5957 8.7793 9.96094 8.7793C9.31641 8.7793 8.75977 9.33594 8.75977 9.9707C8.75977 10.5957 9.31641 11.1523 9.96094 11.1523Z" fill="var(--color-primary)"/>
 </g>
</svg>
