<?xml version="1.0" encoding="UTF-8"?>
<!--Generator: Apple Native CoreSVG 341-->
<!DOCTYPE svg
PUBLIC "-//W3C//DTD SVG 1.1//EN"
       "http://www.w3.org/Graphics/SVG/1.1/DTD/svg11.dtd">
<svg version="1.1" xmlns="http://www.w3.org/2000/svg" xmlns:xlink="http://www.w3.org/1999/xlink" viewBox="0 0 18.3398 17.9785">
 <g>
  <rect height="17.9785" opacity="0" width="18.3398" x="0" y="0"/>
  <path d="M3.06641 17.9785L14.9121 17.9785C16.9629 17.9785 17.9785 16.9727 17.9785 14.9609L17.9785 3.02734C17.9785 1.01562 16.9629 0 14.9121 0L3.06641 0C1.02539 0 0 1.01562 0 3.02734L0 14.9609C0 16.9727 1.02539 17.9785 3.06641 17.9785ZM3.08594 16.4062C2.10938 16.4062 1.57227 15.8887 1.57227 14.873L1.57227 3.11523C1.57227 2.09961 2.10938 1.57227 3.08594 1.57227L14.8926 1.57227C15.8594 1.57227 16.4062 2.09961 16.4062 3.11523L16.4062 14.873C16.4062 15.8887 15.8594 16.4062 14.8926 16.4062Z" fill="white" fill-opacity="0.425"/>
  <path d="M6.8457 13.457C7.35352 13.457 7.63672 13.1152 7.63672 12.5781L7.63672 9.55078L11.1523 9.55078C11.5332 9.55078 11.8066 9.3457 11.8066 8.95508C11.8066 8.55469 11.5332 8.33008 11.1523 8.33008L7.63672 8.33008L7.63672 5.72266L11.5332 5.72266C11.9141 5.72266 12.1875 5.46875 12.1875 5.07812C12.1875 4.67773 11.9141 4.44336 11.5332 4.44336L6.83594 4.44336C6.33789 4.44336 6.07422 4.79492 6.07422 5.32227L6.07422 12.5781C6.07422 13.0957 6.33789 13.457 6.8457 13.457Z" fill="white" fill-opacity="0.85"/>
 </g>
</svg>
