<?xml version="1.0" encoding="UTF-8"?>
<!--Generator: Apple Native CoreSVG 341-->
<!DOCTYPE svg
PUBLIC "-//W3C//DTD SVG 1.1//EN"
       "http://www.w3.org/Graphics/SVG/1.1/DTD/svg11.dtd">
<svg version="1.1" xmlns="http://www.w3.org/2000/svg" xmlns:xlink="http://www.w3.org/1999/xlink" viewBox="0 0 19.4824 19.1309">
 <g>
  <rect height="19.1309" opacity="0" width="19.4824" x="0" y="0"/>
  <path d="M0.78125 6.23047C1.29883 6.23047 1.57227 5.9375 1.57227 5.42969L1.57227 3.125C1.57227 2.10938 2.10938 1.5918 3.08594 1.5918L5.44922 1.5918C5.9668 1.5918 6.25 1.30859 6.25 0.800781C6.25 0.292969 5.9668 0.0195312 5.44922 0.0195312L3.06641 0.0195312C1.02539 0.0195312 0 1.02539 0 3.03711L0 5.42969C0 5.9375 0.283203 6.23047 0.78125 6.23047ZM18.3301 6.23047C18.8477 6.23047 19.1211 5.9375 19.1211 5.42969L19.1211 3.03711C19.1211 1.02539 18.0957 0.0195312 16.0547 0.0195312L13.6621 0.0195312C13.1543 0.0195312 12.8711 0.292969 12.8711 0.800781C12.8711 1.30859 13.1543 1.5918 13.6621 1.5918L16.0254 1.5918C16.9922 1.5918 17.5488 2.10938 17.5488 3.125L17.5488 5.42969C17.5488 5.9375 17.832 6.23047 18.3301 6.23047ZM3.06641 19.1309L5.44922 19.1309C5.9668 19.1309 6.25 18.8477 6.25 18.3496C6.25 17.8418 5.9668 17.5586 5.44922 17.5586L3.08594 17.5586C2.10938 17.5586 1.57227 17.041 1.57227 16.0254L1.57227 13.7207C1.57227 13.2031 1.28906 12.9199 0.78125 12.9199C0.273438 12.9199 0 13.2031 0 13.7207L0 16.1035C0 18.125 1.02539 19.1309 3.06641 19.1309ZM13.6621 19.1309L16.0547 19.1309C18.0957 19.1309 19.1211 18.1152 19.1211 16.1035L19.1211 13.7207C19.1211 13.2031 18.8379 12.9199 18.3301 12.9199C17.8223 12.9199 17.5488 13.2031 17.5488 13.7207L17.5488 16.0254C17.5488 17.041 16.9922 17.5586 16.0254 17.5586L13.6621 17.5586C13.1543 17.5586 12.8711 17.8418 12.8711 18.3496C12.8711 18.8477 13.1543 19.1309 13.6621 19.1309Z" fill="white" fill-opacity="0.85"/>
  <path d="M5.83984 8.90625C6.2793 8.90625 6.5918 8.58398 6.5918 8.14453L6.5918 6.74805C6.5918 6.30859 6.2793 5.98633 5.83984 5.98633C5.41016 5.98633 5.08789 6.30859 5.08789 6.74805L5.08789 8.14453C5.08789 8.58398 5.41016 8.90625 5.83984 8.90625ZM8.76953 11.2012C8.79883 11.2012 8.82812 11.2012 8.85742 11.2012C9.84375 11.2012 10.3809 10.6641 10.3809 9.6875L10.3809 6.61133C10.3809 6.24023 10.1172 5.97656 9.74609 5.97656C9.36523 5.97656 9.11133 6.24023 9.11133 6.61133L9.11133 9.77539C9.11133 9.86328 9.05273 9.92188 8.95508 9.92188L8.62305 9.92188C8.27148 9.92188 7.99805 10.1855 7.99805 10.5371C7.99805 10.957 8.28125 11.2012 8.76953 11.2012ZM13.2422 8.90625C13.6719 8.90625 13.9941 8.58398 13.9941 8.14453L13.9941 6.74805C13.9941 6.30859 13.6719 5.98633 13.2422 5.98633C12.8027 5.98633 12.4902 6.30859 12.4902 6.74805L12.4902 8.14453C12.4902 8.58398 12.8027 8.90625 13.2422 8.90625ZM9.50195 14.4922C10.6738 14.4922 11.8652 13.9844 12.7246 13.1348C12.832 13.0176 12.9004 12.8613 12.9004 12.6562C12.9004 12.2949 12.6172 12.0312 12.2559 12.0312C12.0801 12.0312 11.9434 12.0898 11.748 12.2949C11.2207 12.8418 10.3711 13.2324 9.50195 13.2324C8.67188 13.2324 7.82227 12.8613 7.25586 12.2949C7.09961 12.1387 6.96289 12.0312 6.72852 12.0312C6.37695 12.0312 6.09375 12.2949 6.09375 12.6562C6.09375 12.832 6.16211 12.9785 6.2793 13.125C7.08008 14.0234 8.32031 14.4922 9.50195 14.4922Z" fill="white" fill-opacity="0.85"/>
 </g>
</svg>
