<svg version="1.1" xmlns="http://www.w3.org/2000/svg" xmlns:xlink="http://www.w3.org/1999/xlink" viewBox="0 0 20.4688 23.9746">
 <g>
  <rect height="23.9746" opacity="0" width="20.4688" x="0" y="0"/>
  <path d="M3.7793 17.4609L4.75586 19.7559C4.90234 20.0879 5.30273 20.1562 5.56641 19.7656L6.78711 17.998C7.03125 17.6465 6.92383 17.2559 6.47461 17.168L4.33594 16.7969C3.85742 16.709 3.63281 17.1094 3.7793 17.4609ZM10.0488 23.9746C15.7715 23.9746 20.1074 22.7539 20.1074 20.6641C20.1074 19.2871 18.2227 18.2715 15.3027 17.7734C14.6582 17.6562 14.3262 17.9688 14.2578 18.3398C14.209 18.6914 14.4434 19.0918 14.9512 19.1699C17.1777 19.4922 18.6328 20.0879 18.6328 20.6641C18.6328 21.5625 15.166 22.5 10.0488 22.5C4.94141 22.5 1.47461 21.5625 1.47461 20.6641C1.47461 20.0879 2.91992 19.4922 5.14648 19.1699C5.66406 19.0918 5.88867 18.6914 5.83984 18.3398C5.78125 17.9688 5.43945 17.6562 4.80469 17.7734C1.88477 18.2715 0 19.2871 0 20.6641C0 22.7539 4.33594 23.9746 10.0488 23.9746ZM16.3281 17.4609C16.4746 17.1094 16.25 16.709 15.7715 16.7969L13.623 17.168C13.1738 17.2559 13.0762 17.6465 13.3105 17.998L14.5312 19.7656C14.8047 20.1562 15.2051 20.0879 15.3516 19.7559Z" fill="var(--color-secondary)"/>
  <path d="M9.61914 5.80078L9.61914 2.23633C9.61914 0.791016 8.87695 0.0195312 7.4707 0.0195312C5.10742 0.0195312 2.62695 2.1582 2.62695 4.21875C2.62695 6.21094 4.54102 7.26562 7.59766 8.38867L8.21289 7.00195C5.54688 5.98633 4.10156 5.39062 4.10156 4.21875C4.10156 2.96875 5.88867 1.49414 7.4707 1.49414C8.04688 1.49414 8.13477 1.57227 8.13477 2.23633L8.13477 6.24023ZM12.1484 7.44141L15.7031 7.44141C17.1387 7.44141 17.9199 6.69922 17.9199 5.3125C17.9199 2.93945 15.7715 0.458984 13.7109 0.458984C11.7285 0.458984 10.6641 2.37305 9.56055 5.42969L10.9473 6.05469C11.9434 3.37891 12.5391 1.93359 13.7109 1.93359C14.9707 1.93359 16.4355 3.71094 16.4355 5.3125C16.4355 5.88867 16.377 5.95703 15.7031 5.95703L11.6992 5.95703ZM10.5078 9.98047L10.5078 13.5449C10.5078 14.9902 11.2402 15.7422 12.6367 15.7422C15.0098 15.7422 17.4902 13.6133 17.4902 11.5527C17.4902 9.56055 15.5762 8.50586 12.5195 7.39258L11.8945 8.76953C14.5605 9.78516 16.0156 10.3809 16.0156 11.5527C16.0156 12.8027 14.2188 14.2773 12.6367 14.2578C12.0508 14.2578 11.9922 14.1992 11.9922 13.5449L11.9922 9.54102ZM7.95898 8.32031L4.4043 8.32031C2.95898 8.32031 2.19727 9.07227 2.19727 10.459C2.19727 12.8418 4.32617 15.3125 6.39648 15.3125C8.38867 15.3125 9.44336 13.4082 10.5566 10.3418L9.16992 9.7168C8.1543 12.4023 7.56836 13.8281 6.39648 13.8281C5.12695 13.8281 3.68164 12.0605 3.68164 10.459C3.68164 9.87305 3.75 9.80469 4.4043 9.80469L8.4082 9.80469ZM10.0586 10.6543C11.582 10.6543 12.832 9.4043 12.832 7.88086C12.832 6.34766 11.582 5.10742 10.0586 5.10742C8.52539 5.10742 7.27539 6.34766 7.27539 7.88086C7.27539 9.4043 8.52539 10.6543 10.0586 10.6543ZM10.0586 9.19922C9.32617 9.19922 8.73047 8.60352 8.73047 7.88086C8.73047 7.14844 9.32617 6.5625 10.0586 6.5625C10.7812 6.5625 11.377 7.14844 11.377 7.88086C11.377 8.60352 10.7812 9.19922 10.0586 9.19922Z" fill="var(--color-primary)"/>
 </g>
</svg>
