<?xml version="1.0" encoding="UTF-8"?>
<!--Generator: Apple Native CoreSVG 341-->
<!DOCTYPE svg
PUBLIC "-//W3C//DTD SVG 1.1//EN"
       "http://www.w3.org/Graphics/SVG/1.1/DTD/svg11.dtd">
<svg version="1.1" xmlns="http://www.w3.org/2000/svg" xmlns:xlink="http://www.w3.org/1999/xlink" viewBox="0 0 20.2832 19.9316">
 <g>
  <rect height="19.9316" opacity="0" width="20.2832" x="0" y="0"/>
  <path d="M19.9219 9.96094C19.9219 15.4492 15.459 19.9219 9.96094 19.9219C4.47266 19.9219 0 15.4492 0 9.96094C0 4.46289 4.47266 0 9.96094 0C15.459 0 19.9219 4.46289 19.9219 9.96094ZM4.81445 7.35352C4.81445 8.57422 5.82031 9.18945 7.65625 9.89258C7.65625 9.92188 7.65625 9.93164 7.65625 9.96094C7.65625 10.0977 7.66602 10.2441 7.68555 10.3613L5.87891 10.3613C4.94141 10.3613 4.43359 10.8496 4.43359 11.7578C4.43359 13.4277 5.94727 15.1074 7.35352 15.1074C8.57422 15.1074 9.18945 14.1016 9.90234 12.2656C9.92188 12.2656 9.93164 12.2656 9.96094 12.2656C10.0977 12.2656 10.2539 12.2559 10.3613 12.2363L10.3613 14.043C10.3613 14.9805 10.8496 15.4883 11.7578 15.4883C13.4277 15.4883 15.1074 13.9746 15.1074 12.5684C15.1074 11.3477 14.1016 10.7324 12.2656 10.0195C12.2656 10 12.2656 9.99023 12.2656 9.96094C12.2656 9.82422 12.2559 9.66797 12.2461 9.56055L14.043 9.56055C14.9902 9.56055 15.498 9.07227 15.498 8.16406C15.498 6.49414 13.9844 4.81445 12.5684 4.81445C11.3477 4.81445 10.7324 5.82031 10.0293 7.65625C10 7.64648 9.99023 7.64648 9.96094 7.64648C9.82422 7.64648 9.67773 7.66602 9.56055 7.67578L9.56055 5.87891C9.56055 4.93164 9.07227 4.42383 8.16406 4.42383C6.49414 4.42383 4.81445 5.9375 4.81445 7.35352ZM11.123 9.96094C11.123 10.6055 10.6055 11.1133 9.96094 11.1133C9.31641 11.1133 8.80859 10.6055 8.80859 9.96094C8.80859 9.31641 9.31641 8.79883 9.96094 8.79883C10.6055 8.79883 11.123 9.31641 11.123 9.96094Z" fill="white" fill-opacity="0.85"/>
 </g>
</svg>
