<?xml version="1.0" encoding="UTF-8"?>
<!--Generator: Apple Native CoreSVG 341-->
<!DOCTYPE svg
PUBLIC "-//W3C//DTD SVG 1.1//EN"
       "http://www.w3.org/Graphics/SVG/1.1/DTD/svg11.dtd">
<svg version="1.1" xmlns="http://www.w3.org/2000/svg" xmlns:xlink="http://www.w3.org/1999/xlink" viewBox="0 0 26.3495 23.7402">
 <g>
  <rect height="23.7402" opacity="0" width="26.3495" x="0" y="0"/>
  <path d="M12.9892 17.6074C14.6103 17.6074 15.7138 17.0996 15.7138 16.4648C15.7138 15.8301 14.6103 15.3223 12.9892 15.3223C11.3779 15.3223 10.2646 15.8301 10.2646 16.4648C10.2646 17.0996 11.3779 17.6074 12.9892 17.6074ZM12.9892 5.47852C15.372 5.47852 17.7744 3.85742 17.7744 1.77734C17.7744 1.10352 17.4228 0.693359 16.5927 0.439453C15.5576 0.126953 14.2783 0 12.9892 0C11.7099 0 10.4306 0.126953 9.39546 0.439453C8.56539 0.693359 8.21382 1.10352 8.21382 1.77734C8.21382 3.85742 10.6064 5.47852 12.9892 5.47852ZM12.9892 4.19922C11.1826 4.19922 9.74703 3.21289 9.50289 1.8457C9.49312 1.77734 9.52242 1.72852 9.62984 1.68945C10.665 1.41602 11.8271 1.26953 12.9892 1.26953C14.1611 1.26953 15.3134 1.41602 16.3584 1.68945C16.4658 1.72852 16.4951 1.77734 16.4853 1.8457C16.2412 3.21289 14.8056 4.19922 12.9892 4.19922ZM12.208 4.69727L12.208 11.3086L13.7802 11.3086L13.7802 4.69727ZM12.9892 11.9141C13.956 11.9141 14.8935 12.1973 15.5185 12.5879L16.7294 11.7871C15.8603 11.0254 14.4834 10.5371 12.9892 10.5371C11.5146 10.5371 10.1669 11.0156 9.29781 11.7578L10.5576 12.5391C11.1826 12.168 12.0712 11.9141 12.9892 11.9141ZM12.9892 19.5801C15.8212 19.5801 17.6865 18.3301 17.6865 16.4648C17.6865 14.5996 15.8212 13.3496 12.9892 13.3496C10.1669 13.3496 8.29195 14.5996 8.29195 16.4648C8.29195 18.3301 10.1669 19.5801 12.9892 19.5801ZM12.9892 18.2031C10.9873 18.2031 9.6689 17.5 9.6689 16.4648C9.6689 15.4297 10.9873 14.7266 12.9892 14.7266C14.9912 14.7266 16.3095 15.4297 16.3095 16.4648C16.3095 17.5 14.9912 18.2031 12.9892 18.2031ZM12.9892 13.3496L3.63375 8.55469C0.479449 6.94336-1.43461 11.0742 1.33882 12.4219L9.0439 16.1816L9.32711 14.8828L1.89546 11.2695C0.547809 10.6055 1.37789 8.85742 3.04781 9.70703L11.2705 13.916ZM8.70211 17.0801L8.70211 15.6543L3.165 18.2324C0.108355 19.6582 2.28609 23.6914 5.06929 22.2754L11.1435 19.1797L9.89351 18.3594L4.47359 21.123C3.1357 21.8066 2.25679 20.0684 3.7314 19.3945ZM12.9892 13.3496L14.7177 13.916L22.9404 9.70703C24.6103 8.85742 25.4404 10.6055 24.0927 11.2695L16.6611 14.8828L16.9345 16.1816L24.6494 12.4219C27.4228 11.0742 25.5087 6.94336 22.3544 8.55469ZM17.2763 17.0801L22.2568 19.3945C23.7314 20.0684 22.8427 21.8066 21.5048 21.123L16.0849 18.3594L14.8349 19.1797L20.9189 22.2754C23.7021 23.6914 25.8701 19.6582 22.8134 18.2324L17.2763 15.6543Z" fill="white" fill-opacity="0.85"/>
 </g>
</svg>
