<svg version="1.1" xmlns="http://www.w3.org/2000/svg" xmlns:xlink="http://www.w3.org/1999/xlink" viewBox="0 0 24.8535 18.584">
 <g>
  <rect height="18.584" opacity="0" width="24.8535" x="0" y="0"/>
  <path d="M0 0.791016C0 1.2207 0.351562 1.57227 0.78125 1.57227L23.7109 1.57227C24.1406 1.57227 24.4922 1.2207 24.4922 0.791016C24.4922 0.361328 24.1406 0 23.7109 0L0.78125 0C0.351562 0 0 0.361328 0 0.791016ZM2.93945 10.1074L16.9141 10.1074L16.9141 13.5352C16.9141 14.2285 17.7832 14.5801 18.291 14.0527L22.207 10.0684C22.7734 9.49219 22.5879 8.47656 21.5625 8.47656L7.58789 8.47656L7.58789 5.04883C7.58789 4.35547 6.71875 4.00391 6.21094 4.53125L2.30469 8.51562C1.72852 9.0918 1.91406 10.1074 2.93945 10.1074ZM0 17.7832C0 18.2129 0.351562 18.5742 0.78125 18.5742L23.7109 18.5742C24.1406 18.5742 24.4922 18.2129 24.4922 17.7832C24.4922 17.3535 24.1406 17.002 23.7109 17.002L0.78125 17.002C0.351562 17.002 0 17.3535 0 17.7832Z" fill="var(--color-primary)"/>
 </g>
</svg>
