<svg version="1.1" xmlns="http://www.w3.org/2000/svg" xmlns:xlink="http://www.w3.org/1999/xlink" viewBox="0 0 20.2832 19.9316">
 <g>
  <rect height="19.9316" opacity="0" width="20.2832" x="0" y="0"/>
  <path d="M9.96094 19.9219C15.459 19.9219 19.9219 15.4492 19.9219 9.96094C19.9219 4.46289 15.459 0 9.96094 0C4.47266 0 0 4.46289 0 9.96094C0 15.4492 4.47266 19.9219 9.96094 19.9219Z" fill="var(--color-tertiary)"/>
  <path d="M10.0488 5.45898C9.375 5.45898 8.82812 4.91211 8.82812 4.23828C8.82812 3.57422 9.375 3.02734 10.0488 3.02734C10.7129 3.02734 11.25 3.57422 11.25 4.23828C11.25 4.91211 10.7129 5.45898 10.0488 5.45898ZM5.22461 15.1855L6.88477 13.291L6.88477 10.3711C6.88477 10.0195 6.94336 9.64844 7.05078 9.29688L7.28516 8.63281L6.25 8.63281C5.74219 8.63281 5.53711 8.02734 5.9082 7.65625L7.00195 6.54297C7.37305 6.17188 7.76367 6.04492 8.22266 6.04492L14.9316 6.04492C15.3906 6.04492 15.791 6.43555 15.791 6.89453C15.791 7.38281 15.3906 7.77344 14.9316 7.77344C14.5508 7.77344 14.2285 7.5293 14.1016 7.1875L10.4688 7.1875C10.3516 7.1875 10.2539 7.23633 10.2148 7.37305L9.38477 9.83398L11.0742 12.3047C11.1523 12.4121 11.2012 12.5098 11.2012 12.666L11.2012 15.7031C11.2012 16.0156 10.9277 16.2793 10.6348 16.2793C10.3125 16.2793 10.0488 16.0156 10.0488 15.7031L10.0488 12.8613L8.45703 11.0156C8.39844 10.9473 8.31055 10.9863 8.30078 11.0547L8.03711 13.5059C8.02734 13.6523 7.96875 13.7891 7.86133 13.9062L6.09375 15.9375C5.86914 16.1816 5.50781 16.1914 5.27344 16.0059C5.0293 15.7812 5.00977 15.4297 5.22461 15.1855Z" fill="var(--color-primary)"/>
 </g>
</svg>
