<svg version="1.1" xmlns="http://www.w3.org/2000/svg" xmlns:xlink="http://www.w3.org/1999/xlink" viewBox="0 0 22.5124 22.1608">
 <g>
  <rect height="22.1608" opacity="0" width="22.5124" x="0" y="0"/>
  <path d="M1.09505 13.2337L8.91731 21.056C10.3626 22.5013 11.7884 22.5111 13.224 21.0853L21.0853 13.2142C22.5111 11.7884 22.5013 10.3529 21.056 8.90755L13.2435 1.09505C11.7982-0.350264 10.3724-0.369795 8.93685 1.06575L1.06575 8.92708C-0.369795 10.3626-0.350264 11.7884 1.09505 13.2337Z" fill="var(--color-tertiary)"/>
  <path d="M8.61458 16.9544C8.13606 17.5111 7.24739 16.8665 7.79427 16.2122L9.53255 14.1517L9.81575 12.8236L10.7435 14.015L10.6165 14.4056C10.5579 14.6204 10.5286 14.6693 10.3529 14.8743ZM12.8724 16.7982L11.6517 14.3177C11.6029 14.22 11.5833 14.1517 11.4759 14.015L10.2845 12.5306C9.84505 11.9837 9.6888 11.6615 9.73763 11.0267L9.83528 9.74739C9.85481 9.57161 9.63997 9.49349 9.49349 9.6302L9.05403 10.0013L8.92708 11.5247C8.89778 11.8958 8.70247 12.0911 8.37044 12.0618C8.05794 12.0521 7.87239 11.8079 7.89192 11.4661L7.98958 10.0794C8.01888 9.7181 8.11653 9.47395 8.4095 9.18099L9.29817 8.30208C9.87435 7.74544 10.2845 7.43294 10.8997 7.43294C11.72 7.43294 12.1888 8.03841 12.14 8.85872L12.013 10.5286C11.9837 11.1341 11.9056 11.4954 11.6908 12.1009L11.6419 12.2474L12.4134 13.3411C12.5111 13.4876 12.638 13.6927 12.7357 13.8587L13.9173 16.2806C14.3177 17.0716 13.224 17.5208 12.8724 16.7982ZM14.9036 9.72786C15.265 9.72786 15.4798 9.92317 15.4798 10.2454C15.4798 10.5677 15.265 10.763 14.9036 10.763L13.6536 10.763C13.3021 10.763 13.1458 10.7142 12.9505 10.5189L12.599 10.1771L12.7064 8.7806L13.556 9.72786ZM11.554 6.91536C10.8704 6.91536 10.3236 6.35872 10.3236 5.68489C10.3236 5.01106 10.8704 4.46419 11.554 4.46419C12.2279 4.46419 12.7747 5.01106 12.7747 5.68489C12.7747 6.35872 12.2279 6.91536 11.554 6.91536Z" fill="var(--color-primary)"/>
 </g>
</svg>
