<svg version="1.1" xmlns="http://www.w3.org/2000/svg" xmlns:xlink="http://www.w3.org/1999/xlink" viewBox="0 0 20.2832 19.9316">
 <g>
  <rect height="19.9316" opacity="0" width="20.2832" x="0" y="0"/>
  <path d="M9.96094 19.9219C15.459 19.9219 19.9219 15.459 19.9219 9.96094C19.9219 4.46289 15.459 0 9.96094 0C4.46289 0 0 4.46289 0 9.96094C0 15.459 4.46289 19.9219 9.96094 19.9219ZM9.96094 18.2617C5.37109 18.2617 1.66016 14.5508 1.66016 9.96094C1.66016 5.37109 5.37109 1.66016 9.96094 1.66016C14.5508 1.66016 18.2617 5.37109 18.2617 9.96094C18.2617 14.5508 14.5508 18.2617 9.96094 18.2617Z" fill="var(--color-secondary)"/>
  <path d="M11.4062 5.83008C12.0605 5.83008 12.5879 5.3125 12.5879 4.64844C12.5879 4.00391 12.0605 3.48633 11.4062 3.48633C10.7617 3.48633 10.2344 4.00391 10.2344 4.64844C10.2344 5.3125 10.7617 5.83008 11.4062 5.83008ZM5.56641 11.416L8.66211 11.416L11.543 11.8262C12.6172 11.9727 13.3887 11.5039 13.3887 10.4785L13.3887 8.53516C13.3887 8.4375 13.4863 8.39844 13.5645 8.47656L14.082 9.01367L14.082 10.8594C14.082 11.1719 14.3457 11.416 14.6484 11.416C14.9609 11.416 15.2051 11.1719 15.2051 10.8594L15.2051 8.76953C15.2051 8.62305 15.1562 8.48633 15.0391 8.37891L13.6719 7.02148C13.2715 6.62109 12.7539 6.39648 12.1777 6.39648L6.85547 6.39648C6.5625 6.39648 6.29883 6.66016 6.29883 6.95312C6.29883 7.26562 6.54297 7.51953 6.85547 7.51953L10.957 7.51953C11.1133 7.51953 11.2305 7.64648 11.2305 7.79297L11.2305 10.293L5.56641 10.293C5.25391 10.293 5 10.5469 5 10.8594C5 11.1719 5.25391 11.416 5.56641 11.416ZM13.2227 16.1914C13.4473 15.9766 13.4473 15.625 13.2227 15.4004L11.4453 13.5938L12.0996 12.3242C11.9043 12.334 11.6895 12.3242 11.4746 12.2949L10.7129 12.1875L10.2246 13.5156C10.1465 13.7207 10.1953 13.9453 10.3613 14.1016L12.4512 16.1914C12.666 16.416 13.0078 16.416 13.2227 16.1914ZM3.94531 9.0332C4.63867 9.73633 5.42969 9.6582 5.72266 9.36523C6.01562 9.0625 6.03516 8.33984 5.3418 7.63672C4.62891 6.93359 3.89648 6.94336 3.60352 7.25586C3.31055 7.53906 3.23242 8.32031 3.94531 9.0332Z" fill="var(--color-primary)"/>
 </g>
</svg>
