<?xml version="1.0" encoding="UTF-8"?>
<!--Generator: Apple Native CoreSVG 341-->
<!DOCTYPE svg
PUBLIC "-//W3C//DTD SVG 1.1//EN"
       "http://www.w3.org/Graphics/SVG/1.1/DTD/svg11.dtd">
<svg version="1.1" xmlns="http://www.w3.org/2000/svg" xmlns:xlink="http://www.w3.org/1999/xlink" viewBox="0 0 20.2832 19.9316">
 <g>
  <rect height="19.9316" opacity="0" width="20.2832" x="0" y="0"/>
  <path d="M9.96094 19.9219C15.459 19.9219 19.9219 15.459 19.9219 9.96094C19.9219 4.46289 15.459 0 9.96094 0C4.46289 0 0 4.46289 0 9.96094C0 15.459 4.46289 19.9219 9.96094 19.9219ZM9.96094 18.2617C5.37109 18.2617 1.66016 14.5508 1.66016 9.96094C1.66016 5.37109 5.37109 1.66016 9.96094 1.66016C14.5508 1.66016 18.2617 5.37109 18.2617 9.96094C18.2617 14.5508 14.5508 18.2617 9.96094 18.2617Z" fill="white" fill-opacity="0.85"/>
  <path d="M10.7129 5.84961C11.3672 5.84961 11.8945 5.32227 11.8945 4.66797C11.8945 4.01367 11.3672 3.49609 10.7129 3.49609C10.0586 3.49609 9.53125 4.01367 9.53125 4.66797C9.53125 5.32227 10.0586 5.84961 10.7129 5.84961ZM9.74609 11.2891L9.74609 13.4668C9.74609 13.6816 9.87305 13.7891 10.0977 13.7891L11.5723 13.7891C11.9629 13.7891 11.9727 13.252 11.6406 13.1445L10.8301 12.8809L10.8301 10.791C10.8301 10.5664 10.6836 10.3711 10.4688 10.2734L8.98438 9.58984L9.85352 7.88086C9.89258 7.79297 9.99023 7.75391 10.0781 7.8125L11.543 8.75977L11.543 10.791C11.543 11.0938 11.7773 11.3281 12.0801 11.3281C12.3828 11.3281 12.6172 11.0938 12.6172 10.791L12.6172 8.4375C12.6172 8.24219 12.5684 8.14453 12.373 8.00781L10.0586 6.25977C9.56055 5.89844 8.94531 5.80078 8.36914 6.03516L6.66016 6.73828C6.15234 6.94336 6.23047 7.5 6.65039 7.72461L7.28516 8.06641L6.93359 8.76953C6.45508 9.7168 6.81641 10.5566 7.80273 10.8008ZM9.88281 14.6387L11.9922 14.6387C12.1289 14.6387 12.2363 14.5312 12.2363 14.3945C12.2363 14.2773 12.1387 14.1602 11.9922 14.1602L9.88281 14.1602C9.75586 14.1602 9.64844 14.2773 9.64844 14.3945C9.64844 14.5312 9.75586 14.6387 9.88281 14.6387ZM6.91406 10.9375L6.65039 11.709L4.80469 11.709C4.58984 11.709 4.48242 11.8359 4.48242 12.0508L4.48242 13.5352C4.48242 13.916 5.01953 13.916 5.12695 13.5938L5.38086 12.793L7.06055 12.793C7.27539 12.793 7.44141 12.6562 7.5293 12.4902L8.08594 11.3965L7.68555 11.2891C7.38281 11.2109 7.10938 11.084 6.91406 10.9375ZM3.63281 11.8457L3.63281 13.9551C3.63281 14.0918 3.74023 14.1992 3.86719 14.1992C3.99414 14.1992 4.11133 14.0918 4.11133 13.9551L4.11133 11.8457C4.11133 11.7188 3.99414 11.6113 3.86719 11.6113C3.74023 11.6113 3.63281 11.7188 3.63281 11.8457ZM14.6973 13.5547L16.3086 13.5547C16.4648 13.5547 16.6113 13.4082 16.6113 13.252L16.6113 12.9785C16.6113 12.8223 16.4648 12.6758 16.3086 12.6758L14.5215 12.6758L8.90625 7.5293L8.36914 7.83203L14.4238 13.4375C14.5215 13.5352 14.5898 13.5547 14.6973 13.5547ZM13.1445 15.0195C13.1445 15.2539 13.5254 15.4297 14.0137 15.4297C14.4922 15.4297 14.8828 15.2539 14.8828 15.0195L14.8828 14.5605C14.8828 14.3359 14.4922 14.1602 14.0137 14.1602C13.5254 14.1602 13.1445 14.3359 13.1445 14.5605Z" fill="white" fill-opacity="0.85"/>
 </g>
</svg>
