<?xml version="1.0" encoding="UTF-8"?>
<!--Generator: Apple Native CoreSVG 341-->
<!DOCTYPE svg
PUBLIC "-//W3C//DTD SVG 1.1//EN"
       "http://www.w3.org/Graphics/SVG/1.1/DTD/svg11.dtd">
<svg version="1.1" xmlns="http://www.w3.org/2000/svg" xmlns:xlink="http://www.w3.org/1999/xlink" viewBox="0 0 20.5371 21.709">
 <g>
  <rect height="21.709" opacity="0" width="20.5371" x="0" y="0"/>
  <path d="M13.7207 4.26758C14.9023 4.26758 15.8398 3.32031 15.8398 2.12891C15.8398 0.947266 14.9023 0 13.7207 0C12.5293 0 11.5723 0.947266 11.5723 2.12891C11.5723 3.32031 12.5293 4.26758 13.7207 4.26758ZM7.07031 21.6992C7.61719 21.6992 8.08594 21.25 8.08594 20.6934L8.08594 11.5234C10.3125 11.1621 12.2461 9.6875 13.1738 7.67578C13.252 7.4707 13.4863 7.37305 13.877 7.50977L18.8184 9.16992C19.502 9.39453 19.9707 9.02344 20.1172 8.54492C20.2734 8.05664 20.0977 7.46094 19.4629 7.25586L4.6582 2.31445C3.97461 2.08008 3.49609 2.46094 3.34961 2.93945C3.19336 3.42773 3.37891 4.01367 4.01367 4.22852L9.33594 6.00586C9.58008 6.09375 9.70703 6.38672 9.55078 6.64062C8.98438 7.5293 8.14453 8.06641 7.07031 8.06641L2.02148 8.06641L2.02148 2.99805C2.02148 2.40234 1.62109 1.99219 1.00586 1.99219C0.400391 1.99219 0 2.40234 0 2.99805L0 8.99414C0 9.6582 0.332031 9.9707 0.839844 10.0586L5.3125 10.8008L6.06445 15.2148L6.06445 20.6934C6.06445 21.25 6.51367 21.6992 7.07031 21.6992Z" fill="white" fill-opacity="0.85"/>
 </g>
</svg>
