<?xml version="1.0" encoding="UTF-8"?>
<!--Generator: Apple Native CoreSVG 341-->
<!DOCTYPE svg
PUBLIC "-//W3C//DTD SVG 1.1//EN"
       "http://www.w3.org/Graphics/SVG/1.1/DTD/svg11.dtd">
<svg version="1.1" xmlns="http://www.w3.org/2000/svg" xmlns:xlink="http://www.w3.org/1999/xlink" viewBox="0 0 20.2832 19.9316">
 <g>
  <rect height="19.9316" opacity="0" width="20.2832" x="0" y="0"/>
  <path d="M9.96094 19.9219C15.459 19.9219 19.9219 15.4492 19.9219 9.96094C19.9219 4.46289 15.459 0 9.96094 0C4.47266 0 0 4.46289 0 9.96094C0 15.4492 4.47266 19.9219 9.96094 19.9219Z" fill="white" fill-opacity="0.2125"/>
  <path d="M9.85352 5.83984C9.16992 5.83984 8.63281 5.29297 8.63281 4.61914C8.63281 3.95508 9.16992 3.4082 9.85352 3.4082C10.5273 3.4082 11.0547 3.95508 11.0547 4.61914C11.0547 5.29297 10.5273 5.83984 9.85352 5.83984ZM5.40039 7.63672L5.40039 4.62891C5.40039 4.32617 5.64453 4.07227 5.95703 4.07227C6.25977 4.07227 6.52344 4.32617 6.52344 4.62891L6.52344 6.70898L7.37305 6.33789C8.00781 6.07422 8.52539 6.09375 9.30664 6.31836L9.62891 6.40625C10.332 6.60156 10.6445 6.88477 10.8594 7.37305L11.6602 9.25781L13.6621 9.25781C13.9844 9.25781 14.2383 9.50195 14.2383 9.82422C14.2383 10.1367 13.9844 10.3906 13.6621 10.3906L11.2891 10.3906C11.0645 10.3906 10.8691 10.2441 10.7715 10.0391L10.2637 8.80859C10.2441 8.75977 10.1465 8.75977 10.1367 8.81836L9.93164 10.5762L12.2461 12.7734C12.3633 12.9004 12.4219 13.0664 12.4219 13.2324L12.4219 15.9863C12.4219 16.2988 12.168 16.5625 11.8555 16.5625C11.543 16.5625 11.2891 16.2988 11.2891 15.9863L11.2891 13.4668L9.07227 11.8555C9.02344 11.8262 8.98438 11.8457 8.95508 11.8848L8.13477 13.7402L6.72852 16.2793C6.5625 16.5723 6.20117 16.6211 5.9668 16.4941C5.69336 16.3477 5.5957 15.9863 5.74219 15.7324L7.09961 13.291L7.90039 7.49023C7.91992 7.40234 7.83203 7.36328 7.77344 7.39258L6.18164 8.0957C5.82031 8.24219 5.40039 8.03711 5.40039 7.63672ZM12.6367 8.39844C12.7441 8.0957 12.9688 7.86133 13.2617 7.75391L13.2617 3.48633C13.2617 3.31055 13.4277 3.14453 13.6035 3.14453C13.7891 3.14453 13.9453 3.31055 13.9453 3.48633L13.9453 7.75391C14.2383 7.86133 14.4629 8.0957 14.5703 8.39844C14.6289 8.57422 14.5605 8.7207 14.375 8.7207L12.8418 8.7207C12.6465 8.7207 12.5781 8.57422 12.6367 8.39844Z" fill="white" fill-opacity="0.85"/>
 </g>
</svg>
