<?xml version="1.0" encoding="UTF-8"?>
<!--Generator: Apple Native CoreSVG 341-->
<!DOCTYPE svg
PUBLIC "-//W3C//DTD SVG 1.1//EN"
       "http://www.w3.org/Graphics/SVG/1.1/DTD/svg11.dtd">
<svg version="1.1" xmlns="http://www.w3.org/2000/svg" xmlns:xlink="http://www.w3.org/1999/xlink" viewBox="0 0 20.2832 19.9316">
 <g>
  <rect height="19.9316" opacity="0" width="20.2832" x="0" y="0"/>
  <path d="M9.96094 19.9219C15.459 19.9219 19.9219 15.4492 19.9219 9.96094C19.9219 4.46289 15.459 0 9.96094 0C4.47266 0 0 4.46289 0 9.96094C0 15.4492 4.47266 19.9219 9.96094 19.9219Z" fill="white" fill-opacity="0.2125"/>
  <path d="M9.95117 5.5957C9.27734 5.5957 8.73047 5.04883 8.73047 4.36523C8.73047 3.70117 9.27734 3.16406 9.95117 3.16406C10.6152 3.16406 11.1621 3.70117 11.1621 4.36523C11.1621 5.04883 10.6152 5.5957 9.95117 5.5957ZM3.27148 10.5859C3.27148 10.3809 3.42773 10.2441 3.61328 10.2441L4.08203 10.2441L4.08203 9.0918C4.08203 8.86719 4.22852 8.7207 4.44336 8.7207L4.78516 8.7207C5 8.7207 5.14648 8.86719 5.14648 9.0918L5.14648 10.2441L6.37695 10.2441L8.01758 6.91406C8.26172 6.41602 8.7207 6.13281 9.28711 6.13281L10.6152 6.13281C11.1914 6.13281 11.6406 6.41602 11.8945 6.91406L13.5352 10.2441L14.7461 10.2441L14.7461 9.0918C14.7461 8.86719 14.8926 8.7207 15.1074 8.7207L15.4492 8.7207C15.6641 8.7207 15.8105 8.86719 15.8105 9.0918L15.8105 10.2441L16.2793 10.2441C16.4648 10.2441 16.6211 10.3809 16.6211 10.5859C16.6211 10.7812 16.4648 10.9277 16.2793 10.9277L15.8105 10.9277L15.8105 12.0898C15.8105 12.3047 15.6641 12.4609 15.4492 12.4609L15.1074 12.4609C14.8926 12.4609 14.7461 12.3047 14.7461 12.0898L14.7461 10.9277L13.8672 10.9277L13.916 11.0547C14.0527 11.3379 13.9453 11.6699 13.6816 11.7969C13.4082 11.9434 13.0664 11.8164 12.9297 11.543L12.627 10.9277L7.26562 10.9277L6.96289 11.543C6.82617 11.8164 6.49414 11.9434 6.21094 11.7969C5.95703 11.6699 5.84961 11.3379 5.97656 11.0547L6.02539 10.9277L5.14648 10.9277L5.14648 12.0898C5.14648 12.3047 5 12.4609 4.78516 12.4609L4.44336 12.4609C4.22852 12.4609 4.08203 12.3047 4.08203 12.0898L4.08203 10.9277L3.61328 10.9277C3.42773 10.9277 3.27148 10.7812 3.27148 10.5859ZM7.60742 10.2441L12.2852 10.2441L11.377 8.39844C11.3086 8.27148 11.1719 8.32031 11.1719 8.4082L11.1719 9.75586L8.73047 9.75586L8.73047 8.4082C8.73047 8.31055 8.59375 8.27148 8.52539 8.39844ZM8.49609 11.416L11.4062 11.416L12.0703 13.2812C12.0801 13.3398 12.0898 13.3789 12.0996 13.4277L12.627 15.8984C12.7051 16.2793 12.5 16.5234 12.2363 16.5918C11.9531 16.6602 11.6309 16.5332 11.543 16.1328L11.0254 13.75L9.95117 11.7676L8.87695 13.75L8.34961 16.1328C8.26172 16.5234 7.95898 16.6602 7.69531 16.6016C7.42188 16.5527 7.1875 16.2891 7.27539 15.8984L7.79297 13.4277C7.80273 13.3789 7.8125 13.3496 7.83203 13.2812Z" fill="white" fill-opacity="0.85"/>
 </g>
</svg>
