<svg version="1.1" xmlns="http://www.w3.org/2000/svg" xmlns:xlink="http://www.w3.org/1999/xlink" viewBox="0 0 22.6002 20.8888">
 <g>
  <rect height="20.8888" opacity="0" width="22.6002" x="0" y="0"/>
  <path d="M17.8528 5.83991C19.3079 5.83991 20.4798 4.61921 20.4798 3.20319C20.4798 1.72859 19.3079 0.537179 17.8528 0.537179C16.3684 0.537179 15.1966 1.72859 15.1966 3.20319C15.1966 4.65827 16.3684 5.83991 17.8528 5.83991ZM2.11063 19.8145C2.61844 20.3419 3.48758 20.3028 4.11258 19.6583L8.3118 15.3223C8.44852 15.1759 8.54617 15.1368 8.77078 15.2247L12.052 16.4649C14.1516 17.2755 16.1438 16.5821 17.0618 14.9024L19.1712 11.0645C19.9915 9.57038 19.7376 8.02741 18.3118 7.26569C16.9348 6.51374 15.4993 7.08015 14.6692 8.61335L11.9348 13.6036L9.60086 12.754C8.44852 12.3341 7.48172 12.4708 6.56375 13.4278L2.19852 17.9395C1.59305 18.5645 1.65164 19.3458 2.11063 19.8145Z" fill="var(--color-secondary)"/>
  <path d="M3.99539 4.01374L4.25906 4.58015L2.36453 6.60163L0.69461 7.42194C0.0403127 7.73444-0.135469 8.36921 0.0989064 8.86726C0.333281 9.37507 0.919219 9.68757 1.67117 9.32624L3.05789 8.66218L6.08523 8.49616L6.38797 9.14069C6.53445 9.46296 6.91531 9.59968 7.23758 9.45319C7.55984 9.30671 7.69656 8.92585 7.55008 8.61335L5.1575 3.47663C5.01102 3.16413 4.63016 3.02741 4.30789 3.1739C3.98563 3.32038 3.84891 3.70124 3.99539 4.01374ZM7.33523 3.75984L10.138 2.52937C10.4993 2.37312 10.5677 1.99226 10.2063 1.73835L7.84305 0.107491C7.53055-0.126884 7.14969 0.0391319 7.10086 0.439523L6.71023 3.27155C6.65164 3.70124 6.95438 3.92585 7.33523 3.75984ZM8.55594 6.39655C8.19461 6.5528 8.13602 6.93366 8.50711 7.19734L10.8606 8.82819C11.1829 9.0528 11.5442 8.87702 11.6028 8.4864L12.0032 5.65437C12.0618 5.20515 11.7493 5.00007 11.3684 5.16609Z" fill="var(--color-primary)"/>
 </g>
</svg>
