<svg version="1.1" xmlns="http://www.w3.org/2000/svg" xmlns:xlink="http://www.w3.org/1999/xlink" viewBox="0 0 24.3457 21.7304">
 <g>
  <rect height="21.7304" opacity="0" width="24.3457" x="0" y="0"/>
  <path d="M5.18066 6.26069C3.71582 6.26069 2.54395 5.03998 2.54395 3.62397C2.54395 2.14936 3.71582 0.957951 5.18066 0.957951C6.65527 0.957951 7.83691 2.14936 7.83691 3.62397C7.83691 5.07905 6.65527 6.26069 5.18066 6.26069ZM20.9131 20.2353C20.4053 20.7626 19.5361 20.7236 18.9209 20.079L14.7119 15.7431C14.5752 15.5966 14.4775 15.5576 14.2627 15.6455L10.9814 16.8857C8.87207 17.6962 6.88965 17.0029 5.96191 15.3232L3.85254 11.4853C3.03223 9.99115 3.2959 8.44819 4.71191 7.68647C6.09863 6.93451 7.52441 7.50092 8.35449 9.03412L11.0986 14.0244L13.4229 13.1747C14.5752 12.7548 15.542 12.8915 16.46 13.8486L20.8252 18.3603C21.4307 18.9853 21.3721 19.7665 20.9131 20.2353Z" fill="var(--color-secondary)"/>
  <path d="M16.0107 3.72162C16.5967 3.72162 17.0752 3.24311 17.0752 2.66694C17.0752 2.081 16.5967 1.60248 16.0107 1.60248C15.4346 1.60248 14.9561 2.081 14.9561 2.66694C14.9561 3.24311 15.4346 3.72162 16.0107 3.72162ZM13.54 5.93842C14.126 5.93842 14.6045 5.4599 14.6045 4.87397C14.6045 4.28803 14.126 3.80951 13.54 3.80951C12.9541 3.80951 12.4756 4.28803 12.4756 4.87397C12.4756 5.4599 12.9541 5.93842 13.54 5.93842ZM13.54 9.19037C14.126 9.19037 14.6045 8.71186 14.6045 8.12592C14.6045 7.54975 14.126 7.07123 13.54 7.07123C12.9541 7.07123 12.4756 7.54975 12.4756 8.12592C12.4756 8.71186 12.9541 9.19037 13.54 9.19037ZM16.0107 11.3583C16.5967 11.3583 17.0752 10.8798 17.0752 10.2939C17.0752 9.70795 16.5967 9.22944 16.0107 9.22944C15.4346 9.22944 14.9561 9.70795 14.9561 10.2939C14.9561 10.8798 15.4346 11.3583 16.0107 11.3583ZM23.0518 1.4267C23.5596 0.918889 23.2373 0.235295 22.583 0.205998L19.1943 0.000920048C18.7256-0.0186112 18.4424 0.274358 18.4619 0.733342L18.6768 4.11225C18.7061 4.80561 19.4189 5.07905 19.8975 4.60053ZM23.1299 5.66498C23.4131 5.95795 23.8623 5.95795 24.1455 5.66498C24.4092 5.40131 24.4189 4.94233 24.1357 4.65912L20.9033 1.41694C20.6201 1.13373 20.1611 1.13373 19.8779 1.41694C19.6143 1.68061 19.6045 2.14936 19.8877 2.43256ZM23.0518 12.6962L19.8975 9.53217C19.4189 9.04389 18.7061 9.32709 18.6768 10.0205L18.4619 13.3994C18.4424 13.8583 18.7256 14.1513 19.1943 14.122L22.583 13.9267C23.2373 13.8876 23.5596 13.2138 23.0518 12.6962ZM24.1357 9.47358C24.4189 9.19037 24.4092 8.73139 24.1455 8.45795C23.8623 8.17475 23.4131 8.17475 23.1299 8.45795L19.917 11.6708C19.6338 11.954 19.6436 12.413 19.9072 12.6865C20.1904 12.9697 20.6396 12.9697 20.9326 12.6865Z" fill="var(--color-primary)"/>
 </g>
</svg>
