<?xml version="1.0" encoding="UTF-8"?>
<!--Generator: Apple Native CoreSVG 341-->
<!DOCTYPE svg
PUBLIC "-//W3C//DTD SVG 1.1//EN"
       "http://www.w3.org/Graphics/SVG/1.1/DTD/svg11.dtd">
<svg version="1.1" xmlns="http://www.w3.org/2000/svg" xmlns:xlink="http://www.w3.org/1999/xlink" viewBox="0 0 20.2832 19.9316">
 <g>
  <rect height="19.9316" opacity="0" width="20.2832" x="0" y="0"/>
  <path d="M9.96094 19.9219C15.459 19.9219 19.9219 15.4492 19.9219 9.96094C19.9219 4.46289 15.459 0 9.96094 0C4.47266 0 0 4.46289 0 9.96094C0 15.4492 4.47266 19.9219 9.96094 19.9219Z" fill="white" fill-opacity="0.2125"/>
  <path d="M11.9434 6.52344C11.2598 6.52344 10.7227 5.98633 10.7227 5.3125C10.7227 4.62891 11.2598 4.0918 11.9434 4.0918C12.6074 4.0918 13.1543 4.62891 13.1543 5.3125C13.1543 5.98633 12.6074 6.52344 11.9434 6.52344ZM7.58789 13.8086C7.30469 13.6328 7.23633 13.2617 7.39258 12.9883L8.41797 11.3477C7.14844 11.2012 6.5918 9.84375 7.27539 8.81836L8.54492 6.93359C8.60352 6.81641 8.57422 6.68945 8.45703 6.63086L7.44141 6.02539L5.27344 6.02539C4.95117 6.02539 4.6875 5.75195 4.6875 5.42969C4.6875 5.11719 4.95117 4.86328 5.27344 4.86328L7.61719 4.86328C7.71484 4.86328 7.80273 4.86328 7.91016 4.93164L15.1855 9.30664C15.459 9.47266 15.5469 9.82422 15.3906 10.1172C15.2344 10.3809 14.8535 10.4688 14.5898 10.3027L10.8984 8.08594C10.8203 8.03711 10.6836 8.05664 10.6152 8.14453L9.61914 9.66797C9.50195 9.85352 9.58984 10.0879 9.82422 10.1172L12.2461 10.3809C12.7832 10.459 12.9785 10.9277 12.7441 11.3086L11.2988 13.6133C11.123 13.8867 10.791 13.9551 10.5078 13.8086C10.2246 13.6426 10.1465 13.2617 10.3125 12.9883L11.25 11.5039L9.75586 11.4355L8.39844 13.6133C8.23242 13.877 7.85156 13.9551 7.58789 13.8086ZM6.09375 15.1465C5.47852 15.1465 4.96094 15.0293 4.55078 14.6777C4.36523 14.5117 4.38477 14.2773 4.50195 14.1504C4.62891 14.043 4.80469 14.0039 5.00977 14.1309C5.2832 14.3555 5.58594 14.4629 6.09375 14.4629L13.7891 14.4629C14.2969 14.4629 14.6094 14.3652 14.8926 14.1309C15.0977 13.9844 15.3027 14.043 15.3906 14.1797C15.5078 14.3164 15.5176 14.5117 15.3418 14.6777C14.9316 15.0293 14.4141 15.1465 13.7891 15.1465Z" fill="white" fill-opacity="0.85"/>
 </g>
</svg>
