<svg version="1.1" xmlns="http://www.w3.org/2000/svg" xmlns:xlink="http://www.w3.org/1999/xlink" viewBox="0 0 20.2832 19.9316">
 <g>
  <rect height="19.9316" opacity="0" width="20.2832" x="0" y="0"/>
  <path d="M9.96094 19.9219C15.459 19.9219 19.9219 15.4492 19.9219 9.96094C19.9219 4.46289 15.459 0 9.96094 0C4.47266 0 0 4.46289 0 9.96094C0 15.4492 4.47266 19.9219 9.96094 19.9219Z" fill="var(--color-tertiary)"/>
  <path d="M12.1582 5.77148C11.4941 5.77148 10.9473 5.22461 10.9473 4.56055C10.9473 3.89648 11.4941 3.34961 12.1582 3.34961C12.8223 3.34961 13.3594 3.89648 13.3594 4.56055C13.3594 5.22461 12.8223 5.77148 12.1582 5.77148ZM4.27734 15.3223C4.0625 15.3223 3.92578 15.1367 3.92578 14.9609C3.92578 14.7754 4.08203 14.6289 4.27734 14.6289L5.57617 14.6289C5.45898 14.4336 5.45898 14.1602 5.70312 13.9355L8.05664 11.7676L8.33984 10.6738C8.4375 10.791 8.55469 10.8594 8.71094 10.957L9.45312 11.3965L9.14062 12.1387C9.08203 12.2852 9.04297 12.3535 8.89648 12.4902L6.60156 14.6289L11.0742 14.6289C11.0547 14.5996 11.0547 14.5508 11.0547 14.502L11.0547 11.6895L8.97461 10.5078C8.34961 10.1465 8.19336 9.46289 8.53516 8.84766L9.59961 6.92383L8.18359 6.98242L8.10547 8.60352C8.0957 8.79883 8.03711 8.96484 7.93945 9.05273L4.02344 12.8711C3.88672 13.0078 3.65234 12.998 3.52539 12.8809C3.39844 12.7344 3.4082 12.5293 3.53516 12.3926L7.08984 8.91602C7.02148 8.83789 6.98242 8.74023 6.99219 8.61328L7.12891 6.48438C7.1582 6.13281 7.40234 5.94727 7.69531 5.92773L10.0879 5.81055C11.0059 5.76172 11.6113 6.17188 12.1582 6.62109L13.7793 7.93945L14.707 6.85547C15.127 6.36719 15.7715 6.74805 15.7324 7.20703L15.2246 13.75C15.2148 13.9551 15.0391 14.0918 14.8535 14.082C14.6777 14.0625 14.5312 13.8867 14.541 13.7012L14.9609 8.24219L14.248 9.0332C14.0137 9.27734 13.6816 9.30664 13.418 9.12109L11.582 7.71484L10.4395 9.70703L11.9238 10.8984C12.1191 11.0547 12.168 11.1621 12.168 11.3281L12.168 14.502C12.168 14.5508 12.1582 14.5996 12.1484 14.6289L14.5703 14.6289C15.0195 14.6289 15.2734 14.5215 15.5859 14.375C15.8008 14.248 15.9961 14.3848 16.0645 14.5508C16.123 14.707 16.0645 14.8926 15.8789 15C15.4785 15.1758 15.127 15.3223 14.5703 15.3223Z" fill="var(--color-primary)"/>
 </g>
</svg>
