<?xml version="1.0" encoding="UTF-8"?>
<!--Generator: Apple Native CoreSVG 341-->
<!DOCTYPE svg
PUBLIC "-//W3C//DTD SVG 1.1//EN"
       "http://www.w3.org/Graphics/SVG/1.1/DTD/svg11.dtd">
<svg version="1.1" xmlns="http://www.w3.org/2000/svg" xmlns:xlink="http://www.w3.org/1999/xlink" viewBox="0 0 20.2832 19.9316">
 <g>
  <rect height="19.9316" opacity="0" width="20.2832" x="0" y="0"/>
  <path d="M9.96094 19.9219C15.459 19.9219 19.9219 15.459 19.9219 9.96094C19.9219 4.46289 15.459 0 9.96094 0C4.46289 0 0 4.46289 0 9.96094C0 15.459 4.46289 19.9219 9.96094 19.9219ZM9.96094 18.2617C5.37109 18.2617 1.66016 14.5508 1.66016 9.96094C1.66016 5.37109 5.37109 1.66016 9.96094 1.66016C14.5508 1.66016 18.2617 5.37109 18.2617 9.96094C18.2617 14.5508 14.5508 18.2617 9.96094 18.2617Z" fill="white" fill-opacity="0.85"/>
  <path d="M9.60938 6.70898C10.2539 6.70898 10.7812 6.19141 10.7812 5.53711C10.7812 4.89258 10.2539 4.36523 9.60938 4.36523C8.96484 4.36523 8.42773 4.89258 8.42773 5.53711C8.42773 6.19141 8.96484 6.70898 9.60938 6.70898ZM6.67969 16.1621C6.98242 16.2207 7.25586 16.0254 7.31445 15.7129L7.7832 13.1543L9.93164 11.9824C9.99023 11.9531 10.0488 11.9727 10.0781 12.0215L11.1621 14.6387C11.2207 14.7754 11.3281 14.873 11.4355 14.9414L13.5938 16.1426C13.916 16.3086 14.2285 16.1719 14.3555 15.9277C14.5117 15.6641 14.4238 15.3223 14.1406 15.166L12.1582 14.0625L10.625 7.91016C10.5371 7.54883 10.2148 7.27539 9.81445 7.27539L6.51367 7.27539L8.05664 4.00391C8.27148 3.56445 7.95898 3.27148 7.63672 3.27148C7.45117 3.27148 7.26562 3.35938 7.17773 3.58398L5.40039 8.22266C5.3125 8.44727 5.39062 8.65234 5.51758 8.7793L6.89453 10.166C7.09961 10.3809 7.46094 10.3809 7.67578 10.166L8.28125 9.56055C8.36914 9.47266 8.49609 9.47266 8.52539 9.58984L8.84766 10.9082L6.95312 12.334C6.81641 12.4316 6.74805 12.5977 6.72852 12.7539L6.2207 15.5176C6.17188 15.8105 6.36719 16.1133 6.67969 16.1621ZM7.85156 8.39844L7.28516 8.97461L6.71875 8.39844Z" fill="white" fill-opacity="0.85"/>
 </g>
</svg>
