<svg version="1.1" xmlns="http://www.w3.org/2000/svg" xmlns:xlink="http://www.w3.org/1999/xlink" viewBox="0 0 19.082 19.8926">
 <g>
  <rect height="19.8926" opacity="0" width="19.082" x="0" y="0"/>
  <path d="M2.62695 5.3418C1.17188 5.3418 0 4.12109 0 2.70508C0 1.23047 1.17188 0.0390625 2.62695 0.0390625C4.11133 0.0390625 5.2832 1.23047 5.2832 2.70508C5.2832 4.16016 4.11133 5.3418 2.62695 5.3418ZM18.3691 19.3164C17.8613 19.8438 16.9922 19.8047 16.3672 19.1602L12.168 14.8242C12.0312 14.6777 11.9336 14.6387 11.7188 14.7266L8.4375 15.9668C6.32812 16.7773 4.33594 16.084 3.41797 14.4043L1.30859 10.5664C0.488281 9.07227 0.742188 7.5293 2.16797 6.76758C3.54492 6.01562 4.98047 6.58203 5.81055 8.11523L8.54492 13.1055L10.8789 12.2559C12.0312 11.8359 12.998 11.9727 13.916 12.9297L18.2812 17.4414C18.8867 18.0664 18.8281 18.8477 18.3691 19.3164Z" fill="var(--color-secondary)"/>
  <path d="M12.627 5.32227C11.8262 5.32227 11.4746 6.13281 12.0117 6.72852L14.6289 9.6875C14.9805 10.0879 15.4688 10.0977 15.8398 9.6875L18.457 6.72852C18.9648 6.16211 18.6816 5.32227 17.8418 5.32227ZM16.0742 0.830078C16.0742 0.361328 15.7129 0 15.2539 0C14.7754 0 14.4141 0.361328 14.4141 0.830078L14.4141 7.38281C14.4141 7.85156 14.7754 8.22266 15.2539 8.22266C15.7129 8.22266 16.0742 7.85156 16.0742 7.38281Z" fill="var(--color-primary)"/>
 </g>
</svg>
