<?xml version="1.0" encoding="UTF-8"?>
<!--Generator: Apple Native CoreSVG 341-->
<!DOCTYPE svg
PUBLIC "-//W3C//DTD SVG 1.1//EN"
       "http://www.w3.org/Graphics/SVG/1.1/DTD/svg11.dtd">
<svg version="1.1" xmlns="http://www.w3.org/2000/svg" xmlns:xlink="http://www.w3.org/1999/xlink" viewBox="0 0 20.2832 19.9316">
 <g>
  <rect height="19.9316" opacity="0" width="20.2832" x="0" y="0"/>
  <path d="M9.96094 19.9219C15.459 19.9219 19.9219 15.4492 19.9219 9.96094C19.9219 4.46289 15.459 0 9.96094 0C4.47266 0 0 4.46289 0 9.96094C0 15.4492 4.47266 19.9219 9.96094 19.9219Z" fill="white" fill-opacity="0.2125"/>
  <path d="M8.02734 9.75586C7.34375 9.75586 6.79688 9.20898 6.79688 8.52539C6.79688 7.86133 7.34375 7.31445 8.02734 7.31445C8.69141 7.31445 9.23828 7.86133 9.23828 8.52539C9.23828 9.20898 8.69141 9.75586 8.02734 9.75586ZM2.87109 12.1582C2.87109 11.9531 3.02734 11.8164 3.21289 11.8164C4.9707 11.8164 7.08008 12.5 8.32031 15.2832C9.58984 14.1699 11.1523 13.7793 13.1348 14.248C13.7109 13.1934 14.8145 12.6172 16.0059 12.6172C16.1914 12.6172 16.3477 12.7734 16.3477 12.959C16.3477 13.1445 16.1914 13.3008 16.0059 13.3008C14.9512 13.3008 14.0723 13.7988 13.6523 14.7656C13.5645 14.9414 13.418 15.0391 13.2227 14.9902C11.1719 14.4043 9.75586 14.8145 8.50586 16.0547C8.30078 16.2598 7.93945 16.2109 7.8125 15.8887C6.74805 13.125 4.89258 12.5 3.21289 12.5C3.02734 12.5 2.87109 12.3438 2.87109 12.1582ZM6.92383 12.2168L6.92383 11.0547C6.92383 10.5469 7.26562 10.2051 7.75391 10.2051L9.74609 10.2051L9.74609 8.0957C9.74609 7.91992 9.79492 7.77344 9.90234 7.65625L13.75 3.81836C13.8867 3.68164 14.1016 3.68164 14.2188 3.81836C14.3652 3.93555 14.3555 4.15039 14.2188 4.28711L12.4219 6.10352L12.4219 9.61914C12.4219 9.94141 12.1582 10.1855 11.8457 10.1855C11.5332 10.1855 11.2695 9.94141 11.2695 9.61914L11.2695 7.24609L10.8887 7.63672L10.8887 10.7715C10.8887 11.0742 10.625 11.3281 10.3223 11.3281L9.61914 11.3281C9.54102 11.3281 9.48242 11.3965 9.48242 11.4746L9.48242 13.6621C9.17969 13.7988 8.87695 13.9453 8.58398 14.1211C8.0957 13.291 7.5293 12.666 6.92383 12.2168Z" fill="white" fill-opacity="0.85"/>
 </g>
</svg>
