<?xml version="1.0" encoding="UTF-8"?>
<!--Generator: Apple Native CoreSVG 341-->
<!DOCTYPE svg
PUBLIC "-//W3C//DTD SVG 1.1//EN"
       "http://www.w3.org/Graphics/SVG/1.1/DTD/svg11.dtd">
<svg version="1.1" xmlns="http://www.w3.org/2000/svg" xmlns:xlink="http://www.w3.org/1999/xlink" viewBox="0 0 20.2832 19.9316">
 <g>
  <rect height="19.9316" opacity="0" width="20.2832" x="0" y="0"/>
  <path d="M9.96094 19.9219C15.459 19.9219 19.9219 15.4492 19.9219 9.96094C19.9219 4.46289 15.459 0 9.96094 0C4.47266 0 0 4.46289 0 9.96094C0 15.4492 4.47266 19.9219 9.96094 19.9219Z" fill="white" fill-opacity="0.2125"/>
  <path d="M7.75391 15.5859C7.36328 15.5859 7.31445 15.0391 7.68555 14.9121L8.39844 14.6777L7.94922 12.6562C7.88086 12.3828 7.92969 12.1777 8.05664 11.9629L8.88672 10.5664C7.74414 10.1172 6.64062 9.33594 6.34766 8.21289C6.31836 8.0957 6.21094 7.99805 5.99609 8.04688L3.44727 8.50586C3.04688 8.57422 2.8125 8.32031 2.76367 8.04688C2.70508 7.76367 2.85156 7.46094 3.21289 7.40234L11.9238 5.81055C12.3145 5.74219 12.5488 5.9668 12.5977 6.25C12.666 6.5332 12.5293 6.85547 12.1484 6.92383L9.00391 7.4707C8.86719 7.50977 8.76953 7.64648 8.83789 7.80273C9.05273 8.36914 10.0391 8.79883 10.6445 8.89648L12.7246 9.01367L16.0938 8.41797C16.3086 8.37891 16.4551 8.4668 16.4941 8.70117L16.7578 10.1953C16.8262 10.5762 16.2695 10.6934 16.0938 10.3809L15.7031 9.64844L10.8008 10.5371L9.13086 12.5879L9.69727 15.1172C9.77539 15.4004 9.64844 15.5859 9.39453 15.5859ZM6.96289 6.08398C6.2793 6.08398 5.75195 5.54688 5.75195 4.87305C5.75195 4.18945 6.2793 3.65234 6.96289 3.65234C7.63672 3.65234 8.18359 4.18945 8.18359 4.87305C8.18359 5.54688 7.63672 6.08398 6.96289 6.08398ZM7.46094 16.4551C7.32422 16.4551 7.22656 16.3574 7.22656 16.2207C7.22656 16.084 7.32422 15.9766 7.46094 15.9766L9.62891 15.9766C9.76562 15.9766 9.87305 16.084 9.87305 16.2207C9.87305 16.3574 9.76562 16.4551 9.62891 16.4551ZM17.6953 10.459C17.7148 10.6055 17.6367 10.7324 17.5098 10.752C17.373 10.7715 17.2363 10.6836 17.2168 10.5371L16.8359 8.41797C16.8066 8.27148 16.8945 8.1543 17.0312 8.13477C17.168 8.10547 17.2949 8.19336 17.3145 8.33008Z" fill="white" fill-opacity="0.85"/>
 </g>
</svg>
