<svg version="1.1" xmlns="http://www.w3.org/2000/svg" xmlns:xlink="http://www.w3.org/1999/xlink" viewBox="0 0 20.2832 19.9316">
 <g>
  <rect height="19.9316" opacity="0" width="20.2832" x="0" y="0"/>
  <path d="M9.96094 19.9219C15.459 19.9219 19.9219 15.4492 19.9219 9.96094C19.9219 4.46289 15.459 0 9.96094 0C4.47266 0 0 4.46289 0 9.96094C0 15.4492 4.47266 19.9219 9.96094 19.9219Z" fill="var(--color-tertiary)"/>
  <path d="M11.25 6.40625C10.5859 6.40625 10.0488 5.87891 10.0488 5.20508C10.0488 4.55078 10.5859 4.0332 11.25 4.0332C11.9043 4.0332 12.4316 4.55078 12.4316 5.20508C12.4316 5.87891 11.9043 6.40625 11.25 6.40625ZM8.51562 17.0996C8.19336 17.0996 7.95898 16.8457 7.95898 16.543L7.95898 13.7695C7.95898 13.6621 7.96875 13.584 8.01758 13.5059L9.32617 11.0059L9.32617 9.50195C9.32617 9.3457 9.25781 9.20898 9.04297 9.20898L7.73438 9.20898C7.60742 9.20898 7.53906 9.20898 7.46094 9.16992L5.48828 8.32031C5.17578 8.18359 5.12695 7.8125 5.3125 7.54883L8.81836 2.69531C8.88672 2.61719 8.98438 2.56836 9.08203 2.56836L9.98047 2.56836C10.2344 2.56836 10.4395 2.75391 10.4395 3.00781C10.4395 3.25195 10.2344 3.44727 9.98047 3.44727L9.05273 3.44727L6.19141 7.43164L7.60742 8.01758L8.90625 7.08984C9.43359 6.71875 10.0293 6.63086 10.6543 6.89453L11.0059 7.04102C11.5625 7.27539 11.8066 7.88086 11.8066 8.45703L11.8066 13.6426L12.832 16.3574C12.959 16.709 12.7637 16.9629 12.5 17.0605C12.2461 17.1484 11.9336 17.0801 11.7969 16.7383L10.7715 14.0137C10.7227 13.916 10.7129 13.8672 10.7031 13.7695L10.5078 12.0898C10.498 11.9922 10.3711 11.9727 10.332 12.041L9.05273 13.9258L9.05273 16.543C9.05273 16.8457 8.79883 17.0996 8.51562 17.0996Z" fill="var(--color-primary)"/>
 </g>
</svg>
