<?xml version="1.0" encoding="UTF-8"?>
<!--Generator: Apple Native CoreSVG 341-->
<!DOCTYPE svg
PUBLIC "-//W3C//DTD SVG 1.1//EN"
       "http://www.w3.org/Graphics/SVG/1.1/DTD/svg11.dtd">
<svg version="1.1" xmlns="http://www.w3.org/2000/svg" xmlns:xlink="http://www.w3.org/1999/xlink" viewBox="0 0 19.5307 23.4668">
 <g>
  <rect height="23.4668" opacity="0" width="19.5307" x="0" y="0"/>
  <path d="M9.08178 4.25781C10.2537 4.25781 11.2009 3.31055 11.2009 2.11914C11.2009 0.947266 10.2537 0 9.08178 0C7.89037 0 6.9431 0.947266 6.9431 2.11914C6.9431 3.31055 7.89037 4.25781 9.08178 4.25781ZM0.351308 23.1836C0.761464 23.5352 1.39623 23.5156 1.77709 23.0859L5.25365 19.1113C5.4392 18.8965 5.54662 18.6621 5.57592 18.3887L6.01537 14.1113C6.02514 13.9648 6.18139 13.9062 6.27904 14.0234L9.08178 17.2559L9.08178 22.4219C9.08178 22.9785 9.531 23.4375 10.0974 23.4375C10.6443 23.4375 11.113 22.9785 11.113 22.4219L11.113 16.9238C11.113 16.6504 11.0251 16.4648 10.8982 16.2793L7.92943 11.9434L9.37475 7.62695C9.45287 7.39258 9.60912 7.30469 9.8435 7.30469L17.656 7.30469C18.2029 7.30469 18.6716 6.85547 18.6716 6.29883C18.6716 5.74219 18.2029 5.2832 17.656 5.2832L5.88842 5.2832C5.0681 5.2832 4.40404 5.51758 3.73998 6.17188L1.81615 8.11523C1.17162 8.76953 1.52318 9.83398 2.41185 9.83398L4.22826 9.83398L3.83764 10.9961C3.63256 11.6211 3.5349 12.2656 3.5349 12.9004L3.5349 18.0176L0.253652 21.7578C-0.117442 22.1777-0.0783796 22.8125 0.351308 23.1836ZM17.656 8.33008C18.4861 8.33008 19.1697 7.64648 19.1697 6.79688C19.1697 5.9668 18.4861 5.2832 17.656 5.2832C16.8064 5.2832 16.1228 5.9668 16.1228 6.79688C16.1228 7.64648 16.8064 8.33008 17.656 8.33008Z" fill="white" fill-opacity="0.85"/>
 </g>
</svg>
