<?xml version="1.0" encoding="UTF-8"?>
<!--Generator: Apple Native CoreSVG 341-->
<!DOCTYPE svg
PUBLIC "-//W3C//DTD SVG 1.1//EN"
       "http://www.w3.org/Graphics/SVG/1.1/DTD/svg11.dtd">
<svg version="1.1" xmlns="http://www.w3.org/2000/svg" xmlns:xlink="http://www.w3.org/1999/xlink" viewBox="0 0 19.082 19.9023">
 <g>
  <rect height="19.9023" opacity="0" width="19.082" x="0" y="0"/>
  <path d="M2.62695 5.34668C1.17188 5.34668 0 4.12598 0 2.70996C0 1.23535 1.17188 0.0439453 2.62695 0.0439453C4.11133 0.0439453 5.2832 1.23535 5.2832 2.70996C5.2832 4.16504 4.11133 5.34668 2.62695 5.34668ZM18.3691 19.3213C17.8613 19.8486 16.9922 19.8096 16.3672 19.165L12.168 14.8291C12.0312 14.6826 11.9336 14.6436 11.7188 14.7314L8.4375 15.9717C6.32812 16.7822 4.33594 16.0889 3.41797 14.4092L1.30859 10.5713C0.488281 9.07715 0.742188 7.53418 2.16797 6.77246C3.54492 6.02051 4.98047 6.58691 5.81055 8.12012L8.54492 13.1104L10.8789 12.2607C12.0312 11.8408 12.998 11.9775 13.916 12.9346L18.2812 17.4463C18.8867 18.0713 18.8281 18.8525 18.3691 19.3213Z" fill="white" fill-opacity="0.85"/>
  <path d="M12.627 4.66309L17.8418 4.66309C18.6816 4.66309 18.9648 3.83301 18.457 3.2666L15.8398 0.307617C15.4688-0.102539 14.9805-0.102539 14.6289 0.307617L12.0117 3.2666C11.4746 3.8623 11.8262 4.66309 12.627 4.66309ZM16.0742 9.16504L16.0742 2.6123C16.0742 2.14355 15.7129 1.77246 15.2539 1.77246C14.7754 1.77246 14.4141 2.14355 14.4141 2.6123L14.4141 9.16504C14.4141 9.63379 14.7754 9.99512 15.2539 9.99512C15.7129 9.99512 16.0742 9.63379 16.0742 9.16504Z" fill="white" fill-opacity="0.85"/>
 </g>
</svg>
