<?xml version="1.0" encoding="UTF-8"?>
<!--Generator: Apple Native CoreSVG 341-->
<!DOCTYPE svg
PUBLIC "-//W3C//DTD SVG 1.1//EN"
       "http://www.w3.org/Graphics/SVG/1.1/DTD/svg11.dtd">
<svg version="1.1" xmlns="http://www.w3.org/2000/svg" xmlns:xlink="http://www.w3.org/1999/xlink" viewBox="0 0 20.2832 19.9316">
 <g>
  <rect height="19.9316" opacity="0" width="20.2832" x="0" y="0"/>
  <path d="M9.96094 19.9219C15.459 19.9219 19.9219 15.459 19.9219 9.96094C19.9219 4.46289 15.459 0 9.96094 0C4.46289 0 0 4.46289 0 9.96094C0 15.459 4.46289 19.9219 9.96094 19.9219ZM9.96094 18.2617C5.37109 18.2617 1.66016 14.5508 1.66016 9.96094C1.66016 5.37109 5.37109 1.66016 9.96094 1.66016C14.5508 1.66016 18.2617 5.37109 18.2617 9.96094C18.2617 14.5508 14.5508 18.2617 9.96094 18.2617Z" fill="white" fill-opacity="0.85"/>
  <path d="M7.25586 6.29883C7.91016 6.29883 8.4375 5.78125 8.4375 5.11719C8.4375 4.47266 7.91016 3.94531 7.25586 3.94531C6.61133 3.94531 6.07422 4.47266 6.07422 5.11719C6.07422 5.78125 6.61133 6.29883 7.25586 6.29883ZM9.12109 15.3906C9.375 15.4688 9.69727 15.332 9.78516 15L10.5957 12.0508C10.7031 11.6797 10.5469 11.3965 10.166 11.2988L7.79297 10.625L7.97852 8.54492C7.97852 8.47656 8.05664 8.44727 8.11523 8.48633L9.21875 9.26758C9.4043 9.41406 9.6582 9.41406 9.85352 9.26758L11.7676 7.90039C12.0117 7.72461 12.0703 7.39258 11.8945 7.13867C11.7188 6.89453 11.377 6.83594 11.1328 7.00195L9.54102 8.1543L8.22266 7.2168C7.94922 7.00195 7.60742 6.86523 7.19727 6.86523C6.50391 6.86523 5.97656 7.30469 5.9375 7.92969L5.75195 10.4883C5.70312 11.25 6.06445 11.8262 6.92383 11.9531L9.38477 12.2949L8.73047 14.7168C8.64258 15.0391 8.81836 15.3125 9.12109 15.3906ZM14.0527 8.75C14.873 8.75 15.5566 8.06641 15.5566 7.25586C15.5566 6.43555 14.873 5.75195 14.0527 5.75195C13.2324 5.75195 12.5586 6.43555 12.5586 7.25586C12.5586 8.06641 13.2324 8.75 14.0527 8.75ZM14.0527 8.08594C13.5645 8.08594 13.2227 7.73438 13.2227 7.25586C13.2227 6.77734 13.5645 6.42578 14.0527 6.42578C14.5312 6.42578 14.8926 6.77734 14.8926 7.25586C14.8926 7.73438 14.5312 8.08594 14.0527 8.08594ZM10.4883 15.4785L13.5254 15.4785C13.8672 15.4785 13.9648 15.0391 13.6914 14.8535L12.6465 14.1699C12.7441 14.0039 12.8125 13.8184 12.8613 13.623L14.1309 8.58398L13.4668 8.41797L12.207 13.457C12.002 14.2578 11.3184 14.7949 10.4883 14.7949C10.3027 14.7949 10.1562 14.9609 10.1562 15.1367C10.1562 15.3027 10.293 15.4785 10.4883 15.4785ZM6.49414 13.418L7.56836 13.1934C7.71484 13.1738 7.8125 13.0273 7.8125 12.8809C7.8125 12.7344 7.69531 12.5977 7.55859 12.5684L5.73242 12.2656C5.41016 12.207 5.29297 12.5098 5.39062 12.7246L5.49805 12.9199C5.69336 13.3203 6.01562 13.5156 6.49414 13.418ZM5.69336 15.4785L8.02734 15.4785C8.22266 15.4785 8.36914 15.3125 8.36914 15.1367C8.36914 14.9512 8.22266 14.7949 8.02734 14.7949C7.68555 14.7949 7.45117 14.6582 7.35352 14.248L7.03125 12.793L6.37695 12.9492L6.63086 14.1211L5.49805 14.8535C5.22461 15.0391 5.32227 15.4785 5.69336 15.4785Z" fill="white" fill-opacity="0.85"/>
 </g>
</svg>
