<svg version="1.1" xmlns="http://www.w3.org/2000/svg" xmlns:xlink="http://www.w3.org/1999/xlink" viewBox="0 0 20.2832 19.9316">
 <g>
  <rect height="19.9316" opacity="0" width="20.2832" x="0" y="0"/>
  <path d="M9.96094 19.9219C15.459 19.9219 19.9219 15.4492 19.9219 9.96094C19.9219 4.46289 15.459 0 9.96094 0C4.47266 0 0 4.46289 0 9.96094C0 15.4492 4.47266 19.9219 9.96094 19.9219Z" fill="var(--color-tertiary)"/>
  <path d="M9.55078 7.42188C8.87695 7.42188 8.33008 6.875 8.33008 6.21094C8.33008 5.53711 8.87695 4.99023 9.55078 4.99023C10.2148 4.99023 10.7617 5.53711 10.7617 6.21094C10.7617 6.875 10.2148 7.42188 9.55078 7.42188ZM4.16992 5.17578C4.16992 4.35547 4.80469 3.69141 5.625 3.69141C6.44531 3.69141 7.08008 4.35547 7.08008 5.17578C7.08008 5.82031 6.61133 6.52344 5.9375 6.89453L5.9375 7.88086C6.03516 7.89062 6.13281 7.91016 6.24023 7.99805L7.51953 9.02344L10.6934 7.69531C10.9668 7.56836 11.1523 7.41211 11.2793 7.1582L12.9395 3.84766C13.0762 3.57422 13.418 3.4668 13.6914 3.60352C13.9746 3.75 14.082 4.08203 13.9355 4.36523L12.2559 7.72461C12.1484 7.95898 12.1094 8.18359 12.1582 8.42773L12.5879 10.7715L14.7754 12.5684C14.9219 12.6855 15.0195 12.8516 15.0195 13.0469L15.0195 15.7617C15.0195 16.0645 14.7754 16.3281 14.4629 16.3281C14.1504 16.3281 13.8965 16.0645 13.8965 15.7617L13.8965 13.3496L12.207 12.2168C12.0215 12.0801 11.7578 12.2266 11.7773 12.4707L11.9238 14.6582C11.9336 14.9023 11.8262 15.1562 11.5723 15.2539L8.75 16.377C8.48633 16.4746 8.1543 16.3965 8.01758 16.0742C7.91016 15.7812 8.05664 15.4492 8.33984 15.332L10.7324 14.3848L9.87305 9.62891C9.84375 9.45312 9.70703 9.33594 9.47266 9.43359L7.72461 10.1465C7.49023 10.2539 7.27539 10.2734 7.08008 10.1172L5.50781 8.86719C5.37109 8.75 5.3125 8.60352 5.3125 8.4082L5.3125 6.89453C4.64844 6.5332 4.16992 5.83008 4.16992 5.17578ZM4.79492 5.18555C4.79492 5.66406 5.13672 6.17188 5.625 6.34766C6.11328 6.17188 6.45508 5.66406 6.45508 5.18555C6.45508 4.69727 6.09375 4.33594 5.625 4.33594C5.15625 4.33594 4.79492 4.69727 4.79492 5.18555Z" fill="var(--color-primary)"/>
 </g>
</svg>
