<?xml version="1.0" encoding="UTF-8"?>
<!--Generator: Apple Native CoreSVG 341-->
<!DOCTYPE svg
PUBLIC "-//W3C//DTD SVG 1.1//EN"
       "http://www.w3.org/Graphics/SVG/1.1/DTD/svg11.dtd">
<svg version="1.1" xmlns="http://www.w3.org/2000/svg" xmlns:xlink="http://www.w3.org/1999/xlink" viewBox="0 0 20.2832 19.9316">
 <g>
  <rect height="19.9316" opacity="0" width="20.2832" x="0" y="0"/>
  <path d="M19.9219 9.96094C19.9219 15.4492 15.459 19.9219 9.96094 19.9219C4.47266 19.9219 0 15.4492 0 9.96094C0 4.46289 4.47266 0 9.96094 0C15.459 0 19.9219 4.46289 19.9219 9.96094ZM9.94141 14.6387C8.88672 14.6387 8.53516 13.7305 7.08008 13.7305C5.63477 13.7305 5.27344 14.6387 4.21875 14.6387L4.18945 14.6387C4.01367 14.6387 3.84766 14.8047 3.84766 14.9902C3.84766 15.166 4.01367 15.332 4.18945 15.332L4.21875 15.332C5.75195 15.332 6.07422 14.4238 7.08008 14.4238C8.08594 14.4238 8.41797 15.332 9.94141 15.332C11.4648 15.332 11.7871 14.4238 12.793 14.4238C13.8086 14.4238 14.1211 15.332 15.6445 15.332L15.6738 15.332C15.8594 15.332 16.0254 15.166 16.0254 14.9902C16.0254 14.8047 15.8594 14.6387 15.6738 14.6387L15.6445 14.6387C14.5996 14.6387 14.2383 13.7305 12.793 13.7305C11.3477 13.7305 10.9766 14.6387 9.94141 14.6387ZM9.04297 2.92969L3.91602 12.2852C3.70117 12.6758 3.92578 13.0664 4.33594 13.0664L11.8066 13.0664L14.082 10.7324C14.1797 10.625 14.375 10.6348 14.4727 10.7324L15.4102 11.6797L14.4531 12.6367C13.9453 13.1445 14.707 13.8965 15.2051 13.4082L16.543 12.0605C16.7676 11.8262 16.7578 11.5137 16.543 11.2891L14.9805 9.72656C14.668 9.41406 14.2676 9.24805 13.8477 9.24805L9.98047 9.24805L9.98047 3.05664C9.98047 2.60742 9.32617 2.42188 9.04297 2.92969ZM9.29688 4.02344L9.29688 12.373L4.7168 12.373C4.67773 12.373 4.67773 12.3535 4.69727 12.3242L9.23828 4.02344C9.25781 3.96484 9.29688 3.98438 9.29688 4.02344ZM11.1914 10.498L9.98047 11.6992L9.98047 10.332L11.1133 10.332C11.2109 10.332 11.2598 10.4199 11.1914 10.498ZM12.2559 7.45117C12.2559 8.11523 12.8027 8.66211 13.4766 8.66211C14.1406 8.66211 14.6973 8.11523 14.6973 7.45117C14.6973 6.76758 14.1406 6.23047 13.4766 6.23047C12.8027 6.23047 12.2559 6.76758 12.2559 7.45117Z" fill="white" fill-opacity="0.85"/>
 </g>
</svg>
