<?xml version="1.0" encoding="UTF-8"?>
<!--Generator: Apple Native CoreSVG 341-->
<!DOCTYPE svg
PUBLIC "-//W3C//DTD SVG 1.1//EN"
       "http://www.w3.org/Graphics/SVG/1.1/DTD/svg11.dtd">
<svg version="1.1" xmlns="http://www.w3.org/2000/svg" xmlns:xlink="http://www.w3.org/1999/xlink" viewBox="0 0 20.2832 19.9316">
 <g>
  <rect height="19.9316" opacity="0" width="20.2832" x="0" y="0"/>
  <path d="M9.96094 19.9219C15.459 19.9219 19.9219 15.4492 19.9219 9.96094C19.9219 4.46289 15.459 0 9.96094 0C4.47266 0 0 4.46289 0 9.96094C0 15.4492 4.47266 19.9219 9.96094 19.9219Z" fill="white" fill-opacity="0.2125"/>
  <path d="M7.16797 6.19141C6.49414 6.19141 5.94727 5.6543 5.94727 4.9707C5.94727 4.30664 6.49414 3.75977 7.16797 3.75977C7.83203 3.75977 8.38867 4.30664 8.38867 4.9707C8.38867 5.6543 7.83203 6.19141 7.16797 6.19141ZM5.23438 12.8223C5.11719 12.6074 5.25391 12.2949 5.58594 12.3438L7.4707 12.6562C7.60742 12.6855 7.73438 12.832 7.73438 12.9785C7.73438 13.1348 7.62695 13.2715 7.48047 13.3008L7.04102 13.3984L7.25586 14.3848C7.35352 14.8145 7.60742 14.9512 7.94922 14.9512C8.1543 14.9512 8.30078 15.1172 8.30078 15.3027C8.30078 15.4883 8.1543 15.6641 7.94922 15.6641L5.54688 15.6641C5.15625 15.6641 5.04883 15.1953 5.3418 15.0098L6.51367 14.2578L6.35742 13.5449L6.32812 13.5449C5.85938 13.623 5.55664 13.4082 5.3418 13.0176ZM5.60547 10.5078L5.80078 7.87109C5.84961 7.22656 6.37695 6.77734 7.09961 6.77734C7.51953 6.77734 7.86133 6.92383 8.1543 7.13867L9.51172 8.10547L11.1523 6.91406C11.3965 6.73828 11.7578 6.80664 11.9434 7.06055C12.1191 7.31445 12.0703 7.65625 11.8066 7.8418L9.83398 9.24805C9.62891 9.4043 9.375 9.4043 9.17969 9.24805L8.04688 8.44727C7.98828 8.39844 7.91992 8.4375 7.91016 8.50586L7.70508 10.6543L10.1562 11.3477C10.5469 11.4551 10.7031 11.7383 10.5957 12.1191L9.76562 15.166C9.67773 15.5078 9.35547 15.6445 9.08203 15.5664C8.76953 15.4883 8.58398 15.2051 8.67188 14.873L9.36523 12.373L6.81641 12.0215C5.92773 11.8945 5.54688 11.2988 5.60547 10.5078ZM10.1465 15.3027C10.1465 15.127 10.293 14.9512 10.4883 14.9512C11.3477 14.9512 12.0605 14.3945 12.2656 13.5742L13.5156 8.57422C12.9883 8.32031 12.627 7.7832 12.627 7.17773C12.627 6.32812 13.3203 5.625 14.1699 5.625C15.0098 5.625 15.7227 6.32812 15.7227 7.17773C15.7227 7.99805 15.0391 8.69141 14.209 8.7207L12.9395 13.7402C12.8906 13.9453 12.8223 14.1406 12.7148 14.3066L13.7891 15.0098C14.0723 15.1953 13.9746 15.6641 13.623 15.6641L10.4883 15.6641C10.2832 15.6641 10.1465 15.4785 10.1465 15.3027ZM13.3105 7.17773C13.3105 7.66602 13.6621 8.03711 14.1699 8.03711C14.6582 8.03711 15.0293 7.66602 15.0293 7.17773C15.0293 6.68945 14.6582 6.31836 14.1699 6.31836C13.6621 6.31836 13.3105 6.68945 13.3105 7.17773Z" fill="white" fill-opacity="0.85"/>
 </g>
</svg>
