<?xml version="1.0" encoding="UTF-8"?>
<!--Generator: Apple Native CoreSVG 341-->
<!DOCTYPE svg
PUBLIC "-//W3C//DTD SVG 1.1//EN"
       "http://www.w3.org/Graphics/SVG/1.1/DTD/svg11.dtd">
<svg version="1.1" xmlns="http://www.w3.org/2000/svg" xmlns:xlink="http://www.w3.org/1999/xlink" viewBox="0 0 14.4531 24.6511">
 <g>
  <rect height="24.6511" opacity="0" width="14.4531" x="0" y="0"/>
  <path d="M6.03516 9.81092C7.19727 9.81092 8.14453 8.86366 8.14453 7.67225C8.14453 6.50038 7.19727 5.55311 6.03516 5.55311C4.84375 5.55311 3.89648 6.50038 3.89648 7.67225C3.89648 8.86366 4.84375 9.81092 6.03516 9.81092ZM0.996094 24.6449L6.03516 24.6449C6.64062 24.6449 6.92383 24.3519 7.02148 23.8148L7.88086 19.1078L11.8652 19.1078L11.084 23.4437C10.9668 24.1371 11.4258 24.5961 11.9336 24.6449C12.4219 24.6937 12.959 24.4594 13.0762 23.8148L14.0527 18.3754C14.1797 17.6137 13.7402 17.1547 13.1934 17.0961L9.64844 16.7055L9.95117 13.3461C9.96094 13.1801 10.0977 13.0726 10.2539 13.0726L13.0859 13.0726C13.6328 13.0726 14.0918 12.6039 14.0918 12.057L14.0918 6.51991C14.0918 6.10975 13.8379 5.73866 13.457 5.59217C13.0859 5.43592 12.6562 5.50428 12.3633 5.79725L6.8457 11.3344C6.35742 11.8226 6.04492 12.4379 5.97656 13.1898L5.10742 22.6332L0.996094 22.6332C0.439453 22.6332 0 23.0726 0 23.6293C0 24.1859 0.439453 24.6449 0.996094 24.6449ZM12.0801 8.95155L12.0801 11.0414L9.9707 11.0414ZM10.0586 5.99256L12.3242 8.01405L12.8516 7.42811L10.6152 5.39686ZM4.46289 1.891L9.61914 6.53944C9.93164 6.82264 10.3418 6.78358 10.6445 6.47108L11.1621 5.94373C11.4746 5.63123 11.416 5.19178 11.1133 4.90858L5.92773 0.24061C5.61523-0.0425932 5.17578-0.0132963 4.89258 0.299204L4.4043 0.86561C4.13086 1.17811 4.14062 1.59803 4.46289 1.891Z" fill="white" fill-opacity="0.85"/>
 </g>
</svg>
