<svg version="1.1" xmlns="http://www.w3.org/2000/svg" xmlns:xlink="http://www.w3.org/1999/xlink" viewBox="0 0 20.2203 22.9785">
 <g>
  <rect height="22.9785" opacity="0" width="20.2203" x="0" y="0"/>
  <path d="M10.5886 7.40234L12.0912 9.61264C11.6977 9.62033 11.3031 9.77906 11.0183 10.0977C10.8148 10.3159 10.6758 10.5749 10.6107 10.8475C10.2201 10.2992 9.81535 9.72793 9.51443 9.30664C9.41677 9.16992 9.24099 9.22852 9.24099 9.38477C9.24099 10.4102 9.28982 12.5781 9.45584 13.6523C9.65115 14.873 11.0672 20.791 11.1355 21.0547C11.3113 21.6699 10.9304 22.2363 10.3054 22.2363C9.84646 22.2363 9.53396 21.9824 9.36795 21.377C9.03591 20.1758 8.04959 16.084 7.71756 15.0977C7.49295 14.3945 7.3367 14.1211 6.93631 14.1211C6.53591 14.1211 6.37966 14.3945 6.15506 15.0977C5.82302 16.084 4.8367 20.1758 4.50466 21.377C4.33865 21.9824 4.02615 22.2363 3.56716 22.2363C2.94216 22.2363 2.56131 21.6699 2.73709 21.0547C2.80545 20.791 4.22146 14.873 4.42654 13.6523C4.59256 12.5781 4.63162 10.4199 4.63162 9.39453C4.63162 9.22852 4.44607 9.17969 4.35818 9.30664C3.62576 10.3418 2.28787 12.2461 2.0242 12.5586C1.73123 12.8906 1.26248 12.9492 0.881618 12.7344C0.383571 12.4707 0.266383 11.9336 0.471462 11.5625C0.549587 11.416 0.657008 11.2695 0.754665 11.123L3.28396 7.40234C4.08474 6.2207 5.08084 5.69336 6.93631 5.69336C8.79177 5.69336 9.78787 6.2207 10.5886 7.40234ZM9.04568 2.56836C9.04568 3.74023 8.10818 4.66797 6.93631 4.66797C5.76443 4.66797 4.82693 3.74023 4.82693 2.56836C4.82693 1.39648 5.76443 0.458984 6.93631 0.458984C8.10818 0.458984 9.04568 1.39648 9.04568 2.56836Z" fill="var(--color-secondary)"/>
  <path d="M15.1492 11.416C16.0086 11.416 16.7215 10.7129 16.7215 9.85352C16.7215 8.99414 16.0086 8.29102 15.1492 8.29102C14.2898 8.29102 13.5867 8.99414 13.5867 9.85352C13.5867 10.7129 14.2898 11.416 15.1492 11.416ZM12.9812 22.2363C13.3523 22.2363 13.6648 22.0215 13.782 21.5332C13.9871 20.8008 14.5828 18.2812 14.7781 17.666C14.9148 17.2656 14.9441 17.2363 15.0515 17.2363C15.159 17.2363 15.1883 17.2656 15.325 17.666C15.5105 18.2812 16.116 20.8008 16.3211 21.5332C16.4383 22.0215 16.7508 22.2363 17.1219 22.2363C17.6785 22.2363 18.0008 21.7188 17.864 21.2109C17.8152 21.0449 16.9656 17.4219 16.8289 16.6602C16.7605 16.1914 16.7215 15.3711 16.7215 15.0293C16.7215 14.873 16.8972 14.8242 16.9851 14.9512L18.2351 16.7578C18.4988 17.1387 18.9285 17.1484 19.2117 16.9434C19.4656 16.7676 19.5926 16.4062 19.3484 16.0352L17.7371 13.5352C17.1707 12.6758 16.2918 12.334 15.3933 12.334L15.0515 12.334C14.3972 12.334 14.114 12.1289 13.6746 11.6602L12.6394 10.5566C12.3758 10.2832 11.8582 10.2734 11.5652 10.6152C11.3015 10.8887 11.2136 11.2891 11.4383 11.6309C11.5457 11.7969 12.4441 12.8027 13.1472 13.6816C13.3035 13.877 13.3914 14.0625 13.3914 14.3457C13.3914 14.834 13.3719 16.0547 13.2742 16.6602C13.1375 17.4219 12.2879 21.0449 12.239 21.2109C12.1023 21.7188 12.4246 22.2363 12.9812 22.2363Z" fill="var(--color-primary)"/>
 </g>
</svg>
