<?xml version="1.0" encoding="UTF-8"?>
<!--Generator: Apple Native CoreSVG 341-->
<!DOCTYPE svg
PUBLIC "-//W3C//DTD SVG 1.1//EN"
       "http://www.w3.org/Graphics/SVG/1.1/DTD/svg11.dtd">
<svg version="1.1" xmlns="http://www.w3.org/2000/svg" xmlns:xlink="http://www.w3.org/1999/xlink" viewBox="0 0 20.2832 19.9316">
 <g>
  <rect height="19.9316" opacity="0" width="20.2832" x="0" y="0"/>
  <path d="M9.96094 19.9219C15.459 19.9219 19.9219 15.459 19.9219 9.96094C19.9219 4.46289 15.459 0 9.96094 0C4.46289 0 0 4.46289 0 9.96094C0 15.459 4.46289 19.9219 9.96094 19.9219ZM9.96094 18.2617C5.37109 18.2617 1.66016 14.5508 1.66016 9.96094C1.66016 5.37109 5.37109 1.66016 9.96094 1.66016C14.5508 1.66016 18.2617 5.37109 18.2617 9.96094C18.2617 14.5508 14.5508 18.2617 9.96094 18.2617Z" fill="white" fill-opacity="0.425"/>
  <path d="M11.4453 6.63086C12.0996 6.63086 12.627 6.09375 12.627 5.44922C12.627 4.81445 12.0996 4.27734 11.4453 4.27734C10.8008 4.27734 10.2734 4.81445 10.2734 5.44922C10.2734 6.09375 10.8008 6.63086 11.4453 6.63086ZM12.959 15.9766C13.1934 15.8789 13.3691 15.6348 13.2812 15.3125L12.4707 12.4707C12.4316 12.334 12.3535 12.2363 12.2266 12.1582L10.5273 11.1621L11.3281 8.75977C11.3867 8.57422 11.5918 8.55469 11.7285 8.69141L12.9199 9.88281C13.0273 9.99023 13.1543 10.0488 13.3008 10.0488C13.4375 10.0488 13.584 10 13.6914 9.88281L15.3125 8.26172C15.5273 8.04688 15.5371 7.71484 15.3125 7.5C15.0977 7.28516 14.7754 7.27539 14.5508 7.5L13.3008 8.75L12.2559 7.66602C11.7871 7.16797 11.2793 7.07031 10.2734 7.07031L5.2832 7.07031C4.98047 7.07031 4.73633 7.31445 4.73633 7.61719C4.73633 7.91016 4.98047 8.1543 5.2832 8.1543L8.95508 8.1543C9.12109 8.1543 9.26758 8.28125 9.18945 8.49609L8.55469 10.3809C8.32031 11.0645 8.65234 11.7676 9.29688 12.0508L11.4844 13.0176L12.2461 15.6055C12.3633 15.9766 12.6953 16.0742 12.959 15.9766ZM6.08398 15.7812C6.23047 15.9863 6.50391 16.1035 6.80664 15.9375L9.21875 14.5898C9.3457 14.5312 9.43359 14.4238 9.48242 14.2773L9.95117 12.8613L9.11133 12.4902C8.91602 12.4023 8.82812 12.3535 8.80859 12.3242L8.49609 13.7598L6.2793 14.9902C5.9375 15.1758 5.91797 15.5469 6.08398 15.7812ZM13.5645 11.2988L16.7383 11.2988L16.7383 10.625L13.5645 10.625C13.3887 10.625 13.2324 10.791 13.2324 10.957C13.2324 11.1426 13.3887 11.2988 13.5645 11.2988ZM5.43945 7.32422L6.05469 7.32422L6.05469 6.49414L5.43945 6.49414ZM5.74219 4.46289C5.18555 4.46289 4.73633 4.91211 4.73633 5.48828C4.73633 6.00586 5.18555 6.62109 5.74219 6.75781C6.31836 6.62109 6.76758 6.00586 6.76758 5.48828C6.76758 4.91211 6.31836 4.46289 5.74219 4.46289Z" fill="white" fill-opacity="0.85"/>
 </g>
</svg>
