<?xml version="1.0" encoding="UTF-8"?>
<!--Generator: Apple Native CoreSVG 341-->
<!DOCTYPE svg
PUBLIC "-//W3C//DTD SVG 1.1//EN"
       "http://www.w3.org/Graphics/SVG/1.1/DTD/svg11.dtd">
<svg version="1.1" xmlns="http://www.w3.org/2000/svg" xmlns:xlink="http://www.w3.org/1999/xlink" viewBox="0 0 23.4766 12.9785">
 <g>
  <rect height="12.9785" opacity="0" width="23.4766" x="0" y="0"/>
  <path d="M16.709 5.04883C17.8906 5.04883 18.8379 4.0918 18.8379 2.91016C18.8379 1.72852 17.8906 0.78125 16.709 0.78125C15.5273 0.78125 14.5703 1.72852 14.5703 2.91016C14.5703 4.0918 15.5273 5.04883 16.709 5.04883ZM8.34961 6.43555C9.45312 6.9043 10.0781 7.68555 11.5527 7.68555C13.2812 7.68555 13.7695 6.62109 15.3027 6.23047L9.78516 0.498047C9.35547 0.0488281 8.70117-0.00976562 8.18359 0.371094L4.3457 3.08594C3.69141 3.55469 3.75 4.24805 4.13086 4.66797C4.45312 5.01953 5.01953 5.15625 5.56641 4.77539L8.68164 2.57812L10.4395 4.38477C10.6348 4.58984 10.6934 4.89258 10.3906 5.09766ZM0.546875 10.2637L1.5332 10.2637C4.14062 10.2637 4.73633 8.66211 6.54297 8.66211C8.34961 8.66211 8.94531 10.2637 11.5527 10.2637C14.1699 10.2637 14.7559 8.66211 16.5723 8.66211C18.3789 8.66211 18.9648 10.2637 21.582 10.2637L22.5684 10.2637C22.8711 10.2637 23.1152 10.0293 23.1152 9.72656C23.1152 9.42383 22.8711 9.17969 22.5684 9.17969L21.582 9.17969C19.707 9.17969 19.0723 7.57812 16.5723 7.57812C14.0625 7.57812 13.4277 9.17969 11.5527 9.17969C9.67773 9.17969 9.05273 7.57812 6.54297 7.57812C4.04297 7.57812 3.4082 9.17969 1.5332 9.17969L0.546875 9.17969C0.234375 9.17969 0 9.42383 0 9.72656C0 10.0293 0.234375 10.2637 0.546875 10.2637ZM0.800781 12.9785C1.12305 12.9785 1.37695 12.7246 1.37695 12.4023C1.37695 12.0898 1.12305 11.8359 0.800781 11.8359C0.488281 11.8359 0.234375 12.0898 0.234375 12.4023C0.234375 12.7246 0.488281 12.9785 0.800781 12.9785ZM2.63672 12.6465C2.94922 12.6465 3.20312 12.4023 3.20312 12.0801C3.20312 11.7578 2.94922 11.5137 2.63672 11.5137C2.31445 11.5137 2.06055 11.7578 2.06055 12.0801C2.06055 12.4023 2.31445 12.6465 2.63672 12.6465ZM4.3457 11.8457C4.66797 11.8457 4.92188 11.5918 4.92188 11.2695C4.92188 10.957 4.66797 10.7031 4.3457 10.7031C4.0332 10.7031 3.7793 10.957 3.7793 11.2695C3.7793 11.5918 4.0332 11.8457 4.3457 11.8457ZM6.19141 11.4062C6.51367 11.4062 6.76758 11.1523 6.76758 10.8301C6.76758 10.5176 6.51367 10.2637 6.19141 10.2637C5.87891 10.2637 5.625 10.5176 5.625 10.8301C5.625 11.1523 5.87891 11.4062 6.19141 11.4062ZM8.03711 11.8457C8.35938 11.8457 8.60352 11.5918 8.60352 11.2695C8.60352 10.957 8.35938 10.7031 8.03711 10.7031C7.71484 10.7031 7.4707 10.957 7.4707 11.2695C7.4707 11.5918 7.71484 11.8457 8.03711 11.8457ZM9.76562 12.6465C10.0879 12.6465 10.3418 12.4023 10.3418 12.0801C10.3418 11.7578 10.0879 11.5137 9.76562 11.5137C9.45312 11.5137 9.19922 11.7578 9.19922 12.0801C9.19922 12.4023 9.45312 12.6465 9.76562 12.6465ZM11.5723 12.9785C11.8848 12.9785 12.1387 12.7246 12.1387 12.4023C12.1387 12.0898 11.8848 11.8359 11.5723 11.8359C11.25 11.8359 10.9961 12.0898 10.9961 12.4023C10.9961 12.7246 11.25 12.9785 11.5723 12.9785ZM13.3691 12.6465C13.6914 12.6465 13.9355 12.4023 13.9355 12.0801C13.9355 11.7578 13.6914 11.5137 13.3691 11.5137C13.0469 11.5137 12.8027 11.7578 12.8027 12.0801C12.8027 12.4023 13.0469 12.6465 13.3691 12.6465ZM15.0977 11.8457C15.4199 11.8457 15.6738 11.5918 15.6738 11.2695C15.6738 10.957 15.4199 10.7031 15.0977 10.7031C14.7852 10.7031 14.5312 10.957 14.5312 11.2695C14.5312 11.5918 14.7852 11.8457 15.0977 11.8457ZM16.9434 11.4062C17.2656 11.4062 17.5098 11.1523 17.5098 10.8301C17.5098 10.5176 17.2656 10.2637 16.9434 10.2637C16.6211 10.2637 16.377 10.5176 16.377 10.8301C16.377 11.1523 16.6211 11.4062 16.9434 11.4062ZM18.7891 11.8457C19.1113 11.8457 19.3555 11.5918 19.3555 11.2695C19.3555 10.957 19.1113 10.7031 18.7891 10.7031C18.4668 10.7031 18.2227 10.957 18.2227 11.2695C18.2227 11.5918 18.4668 11.8457 18.7891 11.8457ZM20.5078 12.6465C20.8301 12.6465 21.0742 12.4023 21.0742 12.0801C21.0742 11.7578 20.8301 11.5137 20.5078 11.5137C20.1855 11.5137 19.9414 11.7578 19.9414 12.0801C19.9414 12.4023 20.1855 12.6465 20.5078 12.6465ZM22.3242 12.9785C22.6465 12.9785 22.9004 12.7246 22.9004 12.4023C22.9004 12.0898 22.6465 11.8359 22.3242 11.8359C22.0117 11.8359 21.7578 12.0898 21.7578 12.4023C21.7578 12.7246 22.0117 12.9785 22.3242 12.9785Z" fill="white" fill-opacity="0.85"/>
 </g>
</svg>
