<?xml version="1.0" encoding="UTF-8"?>
<!--Generator: Apple Native CoreSVG 341-->
<!DOCTYPE svg
PUBLIC "-//W3C//DTD SVG 1.1//EN"
       "http://www.w3.org/Graphics/SVG/1.1/DTD/svg11.dtd">
<svg version="1.1" xmlns="http://www.w3.org/2000/svg" xmlns:xlink="http://www.w3.org/1999/xlink" viewBox="0 0 24.5108 19.6582">
 <g>
  <rect height="19.6582" opacity="0" width="24.5108" x="0" y="0"/>
  <path d="M14.4527 8.70117L14.4527 11.0742C14.4527 11.7578 14.9605 12.2559 15.6441 12.2559L17.5093 12.2559C18.1929 12.2559 18.7007 11.7578 18.7007 11.0742L18.7007 8.70117C18.7007 8.01758 18.1929 7.50977 17.5093 7.50977L15.6441 7.50977C14.9605 7.50977 14.4527 8.01758 14.4527 8.70117ZM19.9117 8.70117L19.9117 11.0742C19.9117 11.7578 20.4195 12.2559 21.0933 12.2559L22.9585 12.2559C23.6421 12.2559 24.15 11.7578 24.15 11.0742L24.15 8.70117C24.15 8.01758 23.6421 7.50977 22.9585 7.50977L21.0933 7.50977C20.4195 7.50977 19.9117 8.01758 19.9117 8.70117ZM17.3921 6.04492L21.2496 6.04492C21.5425 6.04492 21.5914 5.73242 21.3668 5.58594L19.6187 4.38477C19.4234 4.25781 19.2183 4.25781 19.0132 4.38477L17.2652 5.58594C17.0406 5.73242 17.0992 6.04492 17.3921 6.04492Z" fill="white" fill-opacity="0.85"/>
  <path d="M5.66363 4.35547C6.8648 4.35547 7.82183 3.34961 7.82183 2.1875C7.82183 0.986328 6.8648 0 5.66363 0C4.44292 0 3.50542 0.986328 3.50542 2.1875C3.50542 3.36914 4.44292 4.35547 5.66363 4.35547ZM1.50347 12.4316L7.69488 5.55664C7.08941 5.32227 6.41558 5.22461 5.66363 5.22461C2.86089 5.22461 1.22027 6.57227 1.22027 8.82812C1.22027 9.375 1.2398 10.0977 1.31792 10.8398ZM9.81402 12.4316L9.99956 10.8398C10.0777 10.0977 10.1168 9.375 10.1168 8.82812C10.1168 7.71484 9.71636 6.81641 8.95464 6.21094L4.03277 11.6797C4.58941 11.5918 5.12652 11.5527 5.66363 11.5527C7.04058 11.5527 8.41753 11.7383 9.81402 12.4316ZM3.27105 19.6289C3.83745 19.5508 4.21831 19.1406 4.14995 18.4277L3.75933 14.8242L7.56792 14.8242L7.1773 18.4277C7.08941 19.1406 7.47027 19.5508 8.0562 19.6289C8.64214 19.6875 9.09136 19.3164 9.15972 18.6328L9.66753 13.877C8.40777 13.1445 7.00152 12.8613 5.66363 12.8613C4.31597 12.8613 2.90972 13.1445 1.65972 13.877L2.15777 18.6328C2.22613 19.3164 2.67534 19.6875 3.27105 19.6289ZM8.95464 6.20117L10.8101 4.14062C11.1421 3.78906 11.1031 3.37891 10.7808 3.125C10.4878 2.86133 10.1168 2.85156 9.77495 3.23242L7.69488 5.55664C8.15386 5.73242 8.58355 5.95703 8.95464 6.20117ZM0.292532 13.1543C-0.0492653 13.4082-0.0590309 13.8184 0.0972191 14.082C0.273 14.3652 0.614797 14.502 1.00542 14.2773C1.23003 14.1309 1.43511 14.0039 1.65972 13.877L1.50347 12.4316C1.06402 12.627 0.673391 12.8516 0.292532 13.1543ZM11.025 13.1543C10.6539 12.8516 10.2632 12.627 9.81402 12.4316L9.65777 13.877C9.89214 14.0039 10.0875 14.1309 10.3121 14.2773C10.6929 14.502 11.0347 14.375 11.2105 14.1016C11.3863 13.8281 11.3863 13.418 11.025 13.1543Z" fill="white" fill-opacity="0.85"/>
 </g>
</svg>
