<svg version="1.1" xmlns="http://www.w3.org/2000/svg" xmlns:xlink="http://www.w3.org/1999/xlink" viewBox="0 0 20.2832 19.9316">
 <g>
  <rect height="19.9316" opacity="0" width="20.2832" x="0" y="0"/>
  <path d="M9.96094 19.9219C15.459 19.9219 19.9219 15.459 19.9219 9.96094C19.9219 4.46289 15.459 0 9.96094 0C4.46289 0 0 4.46289 0 9.96094C0 15.459 4.46289 19.9219 9.96094 19.9219ZM9.96094 18.2617C5.37109 18.2617 1.66016 14.5508 1.66016 9.96094C1.66016 5.37109 5.37109 1.66016 9.96094 1.66016C14.5508 1.66016 18.2617 5.37109 18.2617 9.96094C18.2617 14.5508 14.5508 18.2617 9.96094 18.2617Z" fill="var(--color-secondary)"/>
  <path d="M9.0918 5.51758C9.73633 5.51758 10.2734 4.98047 10.2734 4.33594C10.2734 3.69141 9.73633 3.16406 9.0918 3.16406C8.44727 3.16406 7.91992 3.69141 7.91992 4.33594C7.91992 4.98047 8.44727 5.51758 9.0918 5.51758ZM8.03711 10.625L10.0781 11.084L9.49219 13.0273C9.36523 13.418 9.62891 13.6816 9.90234 13.7305C10.1562 13.7793 10.4297 13.6621 10.5273 13.3398L11.25 10.8984C11.3477 10.5566 11.2109 10.2734 10.8984 10.166L9.00391 9.48242L9.28711 7.5293C9.30664 7.42188 9.39453 7.39258 9.49219 7.44141L10.4395 7.87109C10.5664 7.91992 10.6641 7.93945 10.8203 7.95898L13.2129 8.20312C13.5156 8.23242 13.7793 8.01758 13.7988 7.71484C13.8281 7.43164 13.6133 7.1582 13.3105 7.12891L10.8887 6.89453L9.05273 6.05469C8.27148 5.69336 7.45117 6.10352 7.34375 6.88477L7.05078 9.17969C6.96289 9.85352 7.37305 10.4688 8.03711 10.625ZM6.19141 15.4492C6.41602 15.5664 6.73828 15.5273 6.95312 15.2246L8.4082 13.0371C8.4668 12.9492 8.49609 12.8516 8.51562 12.7148L8.75977 11.2695L7.92969 11.084C7.72461 11.0352 7.59766 10.9766 7.54883 10.9375L7.45117 12.5488L6.06445 14.6191C5.82031 14.9805 5.95703 15.3027 6.19141 15.4492ZM14.834 6.5625C14.7461 6.37695 14.5508 6.31836 14.375 6.39648C14.1406 6.51367 13.8965 6.64062 13.6914 6.75781C13.916 6.86523 14.0723 7.03125 14.1895 7.26562C14.3359 7.17773 14.502 7.08008 14.668 7.00195C14.8438 6.9043 14.9023 6.71875 14.834 6.5625ZM7.49023 16.4355L9.49219 16.4355C9.66797 16.4355 9.82422 16.2793 9.82422 16.0938L9.82422 15.166L11.5039 15.166C11.6895 15.166 11.8359 15 11.8359 14.8242L11.8359 13.8867L12.9199 13.8867C13.0859 13.8867 13.2422 13.7305 13.252 13.5547L13.4473 8.64258C13.3496 8.66211 13.3105 8.67188 12.7832 8.62305L12.5879 13.2129L11.5039 13.2129C11.3184 13.2129 11.1621 13.3496 11.1621 13.5449L11.1621 14.4824L9.49219 14.4824C9.31641 14.4824 9.16016 14.6484 9.16016 14.8242L9.16016 15.7617L7.49023 15.7617C7.31445 15.7617 7.14844 15.918 7.14844 16.0938C7.14844 16.2891 7.31445 16.4355 7.49023 16.4355Z" fill="var(--color-primary)"/>
 </g>
</svg>
