<?xml version="1.0" encoding="UTF-8"?>
<!--Generator: Apple Native CoreSVG 341-->
<!DOCTYPE svg
PUBLIC "-//W3C//DTD SVG 1.1//EN"
       "http://www.w3.org/Graphics/SVG/1.1/DTD/svg11.dtd">
<svg version="1.1" xmlns="http://www.w3.org/2000/svg" xmlns:xlink="http://www.w3.org/1999/xlink" viewBox="0 0 16.7151 21.5527">
 <g>
  <rect height="21.5527" opacity="0" width="16.7151" x="0" y="0"/>
  <path d="M10.2081 4.25781C11.3898 4.25781 12.337 3.31055 12.337 2.12891C12.337 0.947266 11.3898 0 10.2081 0C9.0265 0 8.07923 0.947266 8.07923 2.12891C8.07923 3.31055 9.0265 4.25781 10.2081 4.25781ZM6.8683 12.7539L10.6085 14.8535L8.19642 16.9238C7.67884 17.3633 7.68861 17.9395 8.00111 18.291C8.32337 18.6523 8.89955 18.7402 9.43666 18.2812L12.8058 15.4102C13.2648 15.0195 13.1964 14.1797 12.6398 13.8184L8.97767 11.416L9.70033 8.88672C9.79798 8.52539 10.2179 8.47656 10.4327 8.78906L11.507 10.3613C11.7609 10.7227 12.2199 10.8691 12.6398 10.6738L15.7355 9.29688C16.2824 9.05273 16.4874 8.57422 16.2531 8.07617C16.0089 7.58789 15.5402 7.44141 14.9933 7.68555L12.5421 8.76953L10.8527 6.43555C9.97376 5.22461 8.88001 4.72656 7.08314 4.86328L3.65541 5.10742C3.10853 5.14648 2.73744 5.49805 2.65931 6.06445L2.20033 9.54102C2.11244 10.1465 2.41517 10.5664 2.95228 10.625C3.49916 10.6738 3.85072 10.3613 3.92884 9.75586L4.34876 6.91406L5.72572 6.81641C6.02845 6.78711 6.33119 7.00195 6.22376 7.38281L5.42298 10.1758C4.95423 11.8262 6.02845 12.2754 6.8683 12.7539ZM0.335093 21.1914C0.696421 21.4941 1.25306 21.5332 1.75111 21.0547L4.91517 17.9199C5.17884 17.6562 5.23744 17.5977 5.40345 17.1875L6.73158 13.75L6.40931 13.5742C5.66712 13.1738 5.14955 12.7637 4.79798 12.3242L3.63587 16.4355L0.354624 19.707C-0.162954 20.2148-0.0652976 20.8398 0.335093 21.1914Z" fill="white" fill-opacity="0.85"/>
 </g>
</svg>
