<?xml version="1.0" encoding="UTF-8"?>
<!--Generator: Apple Native CoreSVG 341-->
<!DOCTYPE svg
PUBLIC "-//W3C//DTD SVG 1.1//EN"
       "http://www.w3.org/Graphics/SVG/1.1/DTD/svg11.dtd">
<svg version="1.1" xmlns="http://www.w3.org/2000/svg" xmlns:xlink="http://www.w3.org/1999/xlink" viewBox="0 0 15.067 22.9199">
 <g>
  <rect height="22.9199" opacity="0" width="15.067" x="0" y="0"/>
  <path d="M6.12235 4.24805C7.29422 4.24805 8.25125 3.29102 8.25125 2.12891C8.25125 0.957031 7.29422 0 6.12235 0C4.95047 0 3.99344 0.957031 3.99344 2.12891C3.99344 3.29102 4.95047 4.24805 6.12235 4.24805ZM0.477815 9.25781C-0.674529 10.8594 0.341096 13.0273 2.62625 12.6855L6.21024 12.1484L4.82352 16.2695C4.35477 17.6367 6.26883 18.2031 6.69852 16.9141L8.54422 11.3184C8.76883 10.6445 8.34891 9.98047 7.55789 9.98047L4.02274 9.98047L5.87821 7.50977C6.06375 7.25586 6.18094 7.22656 6.42508 7.22656L13.7298 7.22656C14.2669 7.22656 14.7063 6.79688 14.7063 6.25C14.7063 5.71289 14.2766 5.27344 13.7298 5.27344L4.44266 5.27344C3.75906 5.27344 3.095 5.625 2.66531 6.21094ZM1.33719 22.168C1.33719 22.6172 1.64969 22.9102 2.10867 22.9102L9.43289 22.9102C9.89188 22.9102 10.1946 22.6172 10.1946 22.168L10.1946 19.2285C10.1946 18.7891 9.89188 18.4961 9.43289 18.4961L2.10867 18.4961C1.64969 18.4961 1.33719 18.7891 1.33719 19.2285Z" fill="white" fill-opacity="0.85"/>
 </g>
</svg>
