<svg version="1.1" xmlns="http://www.w3.org/2000/svg" xmlns:xlink="http://www.w3.org/1999/xlink" viewBox="0 0 24.7559 17.959">
 <g>
  <rect height="17.959" opacity="0" width="24.7559" x="0" y="0"/>
  <path d="M14.4531 4.24805C15.625 4.24805 16.582 3.29102 16.582 2.11914C16.582 0.957031 15.625 0 14.4531 0C13.2812 0 12.3242 0.957031 12.3242 2.11914C12.3242 3.29102 13.2812 4.24805 14.4531 4.24805ZM10.9766 16.3086C10.7324 17.627 12.7051 17.9395 12.9492 16.6016L13.9551 11.1133C14.0527 10.6055 13.7207 10.0488 13.1348 9.9707L9.83398 9.50195L11.875 7.46094C12.0703 7.25586 12.3633 7.25586 12.5586 7.46094L18.252 13.1543C18.6328 13.5254 19.2676 13.5645 19.6582 13.1543C20.0391 12.7441 20.0488 12.1387 19.6582 11.748L12.1094 4.19922C11.6504 3.74023 11.0254 3.4668 10.3516 3.4668L5.98633 3.4668C5.72266 3.4668 5.46875 3.57422 5.2832 3.75977L2.29492 6.75781C1.9043 7.14844 1.9043 7.77344 2.29492 8.16406C2.68555 8.55469 3.30078 8.55469 3.69141 8.16406L6.40625 5.45898L8.1543 5.45898C8.33984 5.45898 8.41797 5.625 8.29102 5.75195L5.5957 8.4375C4.30664 9.73633 4.99023 11.9434 7.05078 11.9434L11.7676 11.9434ZM5.32227 12.4219L5.05859 15.4395L0.996094 15.4395C0.449219 15.4395 0 15.8887 0 16.4355C0 16.9824 0.449219 17.4316 0.996094 17.4316L5.98633 17.4316C6.48438 17.4316 6.88477 17.0508 6.97266 16.5527L7.63672 12.8906L7.05078 12.8906C6.36719 12.8906 5.78125 12.7148 5.32227 12.4219ZM20.1953 17.4316L23.1836 17.4316C23.8574 17.4316 24.3945 16.8848 24.3945 16.2109C24.3945 15.5469 23.8574 15 23.1836 15L20.1953 15C19.5117 15 18.9648 15.5469 18.9648 16.2109C18.9648 16.8848 19.5117 17.4316 20.1953 17.4316ZM22.2363 15.6152L23.1348 15.6152L23.1348 14.6484C23.1348 13.8379 22.5195 13.2129 21.7188 13.2129L20.6934 13.2129C20.4395 13.2129 20.2344 13.418 20.2344 13.6719C20.2344 13.9258 20.4395 14.1211 20.6934 14.1211L21.7188 14.1211C22.0215 14.1211 22.2363 14.3457 22.2363 14.6484Z" fill="var(--color-primary)"/>
 </g>
</svg>
