<svg version="1.1" xmlns="http://www.w3.org/2000/svg" xmlns:xlink="http://www.w3.org/1999/xlink" viewBox="0 0 20.2832 19.9316">
 <g>
  <rect height="19.9316" opacity="0" width="20.2832" x="0" y="0"/>
  <path d="M9.96094 19.9219C15.459 19.9219 19.9219 15.459 19.9219 9.96094C19.9219 4.46289 15.459 0 9.96094 0C4.46289 0 0 4.46289 0 9.96094C0 15.459 4.46289 19.9219 9.96094 19.9219ZM9.96094 18.2617C5.37109 18.2617 1.66016 14.5508 1.66016 9.96094C1.66016 5.37109 5.37109 1.66016 9.96094 1.66016C14.5508 1.66016 18.2617 5.37109 18.2617 9.96094C18.2617 14.5508 14.5508 18.2617 9.96094 18.2617Z" fill="var(--color-secondary)"/>
  <path d="M13.0078 8.4082C13.6621 8.4082 14.1797 7.88086 14.1797 7.22656C14.1797 6.57227 13.6621 6.05469 13.0078 6.05469C12.3535 6.05469 11.8262 6.57227 11.8262 7.22656C11.8262 7.88086 12.3535 8.4082 13.0078 8.4082ZM9.30664 16.5625C9.56055 16.6797 9.89258 16.6113 10.0391 16.3184L11.377 13.6426C11.4941 13.418 11.5137 13.1543 11.2695 12.9102L9.6582 11.3184L11.748 10.2734C11.8555 10.2246 11.9629 10.2441 12.041 10.3125L14.9121 13.1836C15.127 13.3984 15.4785 13.3789 15.6738 13.1836C15.8887 12.9688 15.8887 12.627 15.6738 12.4121L11.4355 8.17383C11.25 7.98828 11.0547 7.88086 10.791 7.88086L8.68164 7.88086L7.28516 6.46484L7.70508 6.05469C8.33984 5.91797 9.24805 5.68359 9.67773 5.23438C10.4785 4.45312 10.498 3.83789 9.98047 3.33008C9.46289 2.82227 8.85742 2.83203 8.07617 3.63281C7.62695 4.07227 7.39258 4.9707 7.26562 5.625L6.46484 6.41602C6.21094 6.66992 6.26953 7.01172 6.49414 7.22656L8.08594 8.81836C8.18359 8.91602 8.31055 8.97461 8.4668 8.97461L9.54102 8.97461C9.58008 8.97461 9.59961 9.02344 9.56055 9.05273L8.4375 9.60938C7.49023 10.0781 7.26562 11.3379 8.24219 12.0508L10.2344 13.5059L9.07227 15.8301C8.93555 16.0938 9.04297 16.4355 9.30664 16.5625ZM9.55078 3.76953C9.83398 4.0332 9.74609 4.30664 9.25781 4.81445C8.94531 5.10742 8.37891 5.25391 7.93945 5.38086C8.05664 4.92188 8.21289 4.375 8.51562 4.0625C9.01367 3.57422 9.26758 3.49609 9.55078 3.76953ZM4.10156 13.877C4.10156 14.1895 4.3457 14.4336 4.63867 14.4336L7.37305 14.4336C7.60742 14.4336 7.79297 14.2676 7.89062 14.0723L8.51562 12.8223L7.95898 12.4316C7.63672 12.1973 7.50977 12.041 7.45117 11.9043L6.97266 13.3301L4.63867 13.3301C4.3457 13.3301 4.10156 13.584 4.10156 13.877Z" fill="var(--color-primary)"/>
 </g>
</svg>
