<?xml version="1.0" encoding="UTF-8"?>
<!--Generator: Apple Native CoreSVG 341-->
<!DOCTYPE svg
PUBLIC "-//W3C//DTD SVG 1.1//EN"
       "http://www.w3.org/Graphics/SVG/1.1/DTD/svg11.dtd">
<svg version="1.1" xmlns="http://www.w3.org/2000/svg" xmlns:xlink="http://www.w3.org/1999/xlink" viewBox="0 0 20.2832 19.9316">
 <g>
  <rect height="19.9316" opacity="0" width="20.2832" x="0" y="0"/>
  <path d="M9.96094 19.9219C15.459 19.9219 19.9219 15.4492 19.9219 9.96094C19.9219 4.46289 15.459 0 9.96094 0C4.47266 0 0 4.46289 0 9.96094C0 15.4492 4.47266 19.9219 9.96094 19.9219Z" fill="white" fill-opacity="0.2125"/>
  <path d="M11.6699 6.68945C10.9961 6.68945 10.4492 6.14258 10.4492 5.47852C10.4492 4.81445 10.9961 4.27734 11.6699 4.27734C12.334 4.27734 12.8711 4.81445 12.8711 5.47852C12.8711 6.14258 12.334 6.68945 11.6699 6.68945ZM3.83789 13.6328C3.83789 13.3301 4.0918 13.0762 4.41406 13.0762L6.31836 13.0762L6.46484 11.2891C6.71875 11.4551 7.05078 11.5625 7.44141 11.5625L7.80273 11.5625L7.40234 13.7012C7.34375 13.9844 7.12891 14.1992 6.8457 14.1992L4.41406 14.1992C4.0918 14.1992 3.83789 13.9453 3.83789 13.6328ZM4.73633 8.92578C4.52148 8.70117 4.51172 8.33984 4.73633 8.11523L6.43555 6.41602C6.5332 6.29883 6.68945 6.25 6.8457 6.25L9.32617 6.25C9.7168 6.25 10.0684 6.40625 10.3223 6.66016L14.2676 10.6055C14.4922 10.8301 14.4824 11.1719 14.2676 11.4062C14.043 11.6309 13.6816 11.6309 13.4668 11.4062L10.5859 8.52539C10.459 8.4082 10.3125 8.41797 10.2051 8.52539L9.02344 9.67773L10.9082 9.95117C11.2402 10 11.4355 10.3125 11.3867 10.6055L10.8105 13.7305C10.6738 14.4824 9.54102 14.3066 9.6875 13.5547L10.1367 11.084L7.44141 11.084C6.26953 11.084 5.87891 9.81445 6.62109 9.07227L8.16406 7.54883C8.23242 7.49023 8.18359 7.38281 8.07617 7.38281L7.08008 7.38281L5.54688 8.92578C5.32227 9.14062 4.96094 9.14062 4.73633 8.92578ZM13.418 13.5059C13.418 13.125 13.7207 12.8125 14.1113 12.8125L15.2832 12.8125L15.2832 12.6172C15.2832 12.4414 15.1465 12.3242 14.9902 12.3242L14.3945 12.3242C14.248 12.3242 14.1406 12.207 14.1406 12.0605C14.1406 11.9141 14.248 11.7969 14.3945 11.7969L14.9902 11.7969C15.4297 11.7969 15.791 12.1582 15.791 12.6172L15.791 12.8125L15.8105 12.8125C16.1914 12.8125 16.5039 13.125 16.5039 13.5059C16.5039 13.8867 16.1914 14.1992 15.8105 14.1992L14.1113 14.1992C13.7207 14.1992 13.418 13.8867 13.418 13.5059Z" fill="white" fill-opacity="0.85"/>
 </g>
</svg>
