<svg version="1.1" xmlns="http://www.w3.org/2000/svg" xmlns:xlink="http://www.w3.org/1999/xlink" viewBox="0 0 26.8642 19.8145">
 <g>
  <rect height="19.8145" opacity="0" width="26.8642" x="0" y="0"/>
  <path d="M19.9849 5.30273C21.4399 5.30273 22.6118 4.08203 22.6118 2.66602C22.6118 1.19141 21.4399 0 19.9849 0C18.5005 0 17.3286 1.19141 17.3286 2.66602C17.3286 4.12109 18.5005 5.30273 19.9849 5.30273ZM4.24267 19.2773C4.75048 19.8047 5.61962 19.7656 6.24462 19.1211L10.4438 14.7852C10.5806 14.6387 10.6782 14.5996 10.9028 14.6875L14.1841 15.9277C16.2837 16.7383 18.2759 16.0449 19.1938 14.3652L21.3032 10.5273C22.1235 9.0332 21.8696 7.49023 20.4438 6.72852C19.0669 5.97656 17.6313 6.54297 16.8013 8.07617L14.0669 13.0664L11.7329 12.2168C10.5806 11.7969 9.61377 11.9336 8.6958 12.8906L4.33056 17.4023C3.72509 18.0273 3.78369 18.8086 4.24267 19.2773Z" fill="var(--color-secondary)"/>
  <path d="M9.81884 3.86719L9.81884 8.33984C9.81884 9.02344 10.5122 9.33594 11.0298 8.86719L13.5591 6.62109C13.9009 6.30859 13.9009 5.89844 13.5591 5.5957L11.0298 3.33984C10.5317 2.90039 9.81884 3.1543 9.81884 3.86719ZM5.99072 6.81641L11.4888 6.81641C11.8989 6.81641 12.2212 6.50391 12.2212 6.09375C12.2212 5.70312 11.8989 5.38086 11.4888 5.38086L5.99072 5.38086C5.58056 5.38086 5.26806 5.70312 5.26806 6.09375C5.26806 6.50391 5.58056 6.81641 5.99072 6.81641ZM5.21923 11.377L0.746578 11.377C0.0629841 11.377-0.23975 12.0801 0.219234 12.5879L2.46533 15.127C2.77783 15.4688 3.18798 15.4688 3.50048 15.127L5.74658 12.5879C6.18603 12.0996 5.94189 11.377 5.21923 11.377ZM2.27002 7.75391L2.27002 13.0566C2.27002 13.4668 2.58252 13.7891 2.99267 13.7891C3.3833 13.7891 3.70556 13.4668 3.70556 13.0566L3.70556 7.75391C3.70556 7.34375 3.3833 7.03125 2.99267 7.03125C2.58252 7.03125 2.27002 7.34375 2.27002 7.75391Z" fill="var(--color-primary)"/>
 </g>
</svg>
