<?xml version="1.0" encoding="UTF-8"?>
<!--Generator: Apple Native CoreSVG 341-->
<!DOCTYPE svg
PUBLIC "-//W3C//DTD SVG 1.1//EN"
       "http://www.w3.org/Graphics/SVG/1.1/DTD/svg11.dtd">
<svg version="1.1" xmlns="http://www.w3.org/2000/svg" xmlns:xlink="http://www.w3.org/1999/xlink" viewBox="0 0 29.9686 19.6777">
 <g>
  <rect height="19.6777" opacity="0" width="29.9686" x="0" y="0"/>
  <path d="M14.4667 6.25L14.4667 8.61328C14.4667 9.29688 14.9745 9.80469 15.6484 9.80469L17.5234 9.80469C18.1972 9.80469 18.705 9.29688 18.705 8.61328L18.705 6.25C18.705 5.56641 18.1972 5.05859 17.5234 5.05859L15.6484 5.05859C14.9745 5.05859 14.4667 5.56641 14.4667 6.25ZM19.9159 6.25L19.9159 8.61328C19.9159 9.29688 20.4238 9.80469 21.1073 9.80469L22.9726 9.80469C23.6562 9.80469 24.1445 9.29688 24.1445 8.61328L24.1445 6.25C24.1445 5.56641 23.6562 5.05859 22.9726 5.05859L21.1073 5.05859C20.4238 5.05859 19.9159 5.56641 19.9159 6.25ZM25.3554 6.25L25.3554 8.61328C25.3554 9.29688 25.8632 9.80469 26.5468 9.80469L28.412 9.80469C29.0956 9.80469 29.6034 9.29688 29.6034 8.61328L29.6034 6.25C29.6034 5.56641 29.0956 5.05859 28.412 5.05859L26.5468 5.05859C25.8632 5.05859 25.3554 5.56641 25.3554 6.25ZM14.4667 13.1934L14.4667 15.5664C14.4667 16.25 14.9745 16.7578 15.6484 16.7578L17.5234 16.7578C18.1972 16.7578 18.705 16.25 18.705 15.5664L18.705 13.1934C18.705 12.5098 18.1972 12.0117 17.5234 12.0117L15.6484 12.0117C14.9745 12.0117 14.4667 12.5098 14.4667 13.1934ZM19.9159 13.1934L19.9159 15.5664C19.9159 16.25 20.4238 16.7578 21.1073 16.7578L22.9726 16.7578C23.6562 16.7578 24.1445 16.25 24.1445 15.5664L24.1445 13.1934C24.1445 12.5098 23.6562 12.0117 22.9726 12.0117L21.1073 12.0117C20.4238 12.0117 19.9159 12.5098 19.9159 13.1934ZM25.3554 13.1934L25.3554 15.5664C25.3554 16.25 25.8632 16.7578 26.5468 16.7578L28.412 16.7578C29.0956 16.7578 29.6034 16.25 29.6034 15.5664L29.6034 13.1934C29.6034 12.5098 29.0956 12.0117 28.412 12.0117L26.5468 12.0117C25.8632 12.0117 25.3554 12.5098 25.3554 13.1934ZM16.5663 8.44727C16.0097 8.44727 15.5409 7.98828 15.5409 7.42188C15.5409 6.875 16.0097 6.42578 16.5663 6.42578C17.1132 6.42578 17.5722 6.875 17.5722 7.42188C17.5722 7.98828 17.1132 8.44727 16.5663 8.44727ZM22.0058 8.44727C21.4491 8.44727 20.9804 7.98828 20.9804 7.42188C20.9804 6.875 21.4491 6.42578 22.0058 6.42578C22.5527 6.42578 23.0214 6.875 23.0214 7.42188C23.0214 7.98828 22.5527 8.44727 22.0058 8.44727ZM27.455 8.44727C26.8984 8.44727 26.4198 7.98828 26.4198 7.42188C26.4198 6.875 26.8984 6.42578 27.455 6.42578C27.9921 6.42578 28.4609 6.875 28.4609 7.42188C28.4609 7.98828 27.9921 8.44727 27.455 8.44727ZM16.5663 15.3906C16.0097 15.3906 15.5409 14.9316 15.5409 14.3652C15.5409 13.8184 16.0097 13.3594 16.5663 13.3594C17.1132 13.3594 17.5722 13.8184 17.5722 14.3652C17.5722 14.9316 17.1132 15.3906 16.5663 15.3906ZM22.0058 15.3906C21.4491 15.3906 20.9804 14.9316 20.9804 14.3652C20.9804 13.8184 21.4491 13.3594 22.0058 13.3594C22.5527 13.3594 23.0214 13.8184 23.0214 14.3652C23.0214 14.9316 22.5527 15.3906 22.0058 15.3906ZM27.455 15.3906C26.8984 15.3906 26.4198 14.9316 26.4198 14.3652C26.4198 13.8184 26.8984 13.3594 27.455 13.3594C27.9921 13.3594 28.4609 13.8184 28.4609 14.3652C28.4609 14.9316 27.9921 15.3906 27.455 15.3906ZM20.0917 3.61328L23.9491 3.61328C24.2421 3.61328 24.3007 3.30078 24.0761 3.14453L22.328 1.95312C22.123 1.82617 21.9179 1.82617 21.7226 1.95312L19.9745 3.14453C19.7499 3.30078 19.7988 3.61328 20.0917 3.61328Z" fill="white" fill-opacity="0.85"/>
  <path d="M5.67766 4.35547C6.8593 4.35547 7.8261 3.34961 7.8261 2.1875C7.8261 0.986328 6.8593 0 5.67766 0C4.45695 0 3.50969 0.986328 3.50969 2.1875C3.50969 3.36914 4.45695 4.35547 5.67766 4.35547ZM1.50774 12.4316L7.70891 5.55664C7.09367 5.32227 6.42961 5.22461 5.67766 5.22461C2.87492 5.22461 1.22453 6.57227 1.22453 8.82812C1.22453 9.375 1.24406 10.0977 1.33195 10.8398ZM9.82805 12.4316L10.0038 10.8398C10.0917 10.0977 10.121 9.375 10.121 8.82812C10.121 7.71484 9.72063 6.81641 8.96867 6.21094L4.0468 11.6797C4.59367 11.5918 5.13078 11.5527 5.67766 11.5527C7.04485 11.5527 8.4218 11.7383 9.82805 12.4316ZM3.27531 19.6289C3.84172 19.5508 4.24211 19.1406 4.15422 18.4277L3.7636 14.8242L7.56242 14.8242L7.18156 18.4277C7.1132 19.1406 7.4843 19.5508 8.0507 19.6289C8.63664 19.6875 9.08586 19.3164 9.16399 18.6328L9.6718 13.877C8.40227 13.1445 7.01555 12.8613 5.67766 12.8613C4.32024 12.8613 2.92375 13.1445 1.67375 13.877L2.1718 18.6328C2.24016 19.3164 2.68938 19.6875 3.27531 19.6289ZM8.96867 6.20117L10.8144 4.14062C11.1269 3.7793 11.1073 3.37891 10.7948 3.125C10.5019 2.86133 10.121 2.85156 9.77922 3.23242L7.70891 5.55664C8.15813 5.73242 8.58781 5.95703 8.96867 6.20117ZM0.306564 13.1543C-0.0547638 13.4082-0.0645294 13.8184 0.111252 14.082C0.267502 14.3652 0.62883 14.502 0.999924 14.2773C1.2343 14.1309 1.43938 14.0039 1.67375 13.877L1.50774 12.4316C1.06828 12.627 0.677658 12.8516 0.306564 13.1543ZM11.039 13.1543C10.6581 12.8516 10.2675 12.627 9.82805 12.4316L9.66203 13.877C9.89641 14.0039 10.1015 14.1309 10.3261 14.2773C10.6972 14.502 11.0488 14.375 11.2148 14.1016C11.3905 13.8281 11.3905 13.418 11.039 13.1543Z" fill="white" fill-opacity="0.85"/>
 </g>
</svg>
