<?xml version="1.0" encoding="UTF-8"?>
<!--Generator: Apple Native CoreSVG 341-->
<!DOCTYPE svg
PUBLIC "-//W3C//DTD SVG 1.1//EN"
       "http://www.w3.org/Graphics/SVG/1.1/DTD/svg11.dtd">
<svg version="1.1" xmlns="http://www.w3.org/2000/svg" xmlns:xlink="http://www.w3.org/1999/xlink" viewBox="0 0 20.2832 19.9316">
 <g>
  <rect height="19.9316" opacity="0" width="20.2832" x="0" y="0"/>
  <path d="M19.9219 9.96094C19.9219 15.4492 15.459 19.9219 9.96094 19.9219C4.47266 19.9219 0 15.4492 0 9.96094C0 4.46289 4.47266 0 9.96094 0C15.459 0 19.9219 4.46289 19.9219 9.96094ZM9.12109 13.3203L8.28125 16.084C8.19336 16.377 8.37891 16.6992 8.67188 16.7871C8.93555 16.8652 9.28711 16.748 9.38477 16.3965L10.2344 13.5645C10.2637 13.4863 10.2637 13.4082 10.2637 13.3203L10.2637 12.4023L9.07227 12.1484C9.00391 12.1387 9.00391 12.1387 8.98438 12.1289ZM6.5625 4.07227L5.69336 6.93359C5.58594 7.30469 5.78125 7.66602 6.25 7.66602L8.06641 7.66602C8.14453 7.66602 8.20312 7.74414 8.20312 7.83203L8.02734 10.1758C7.95898 11.0059 8.45703 11.5234 9.16992 11.6797L11.4844 12.168L11.9922 14.6582C12.0605 14.9902 12.4023 15.1562 12.666 15.1074C12.9688 15.0391 13.1836 14.7363 13.1055 14.4238L12.5488 11.5625C12.5098 11.3379 12.3145 11.1816 12.0996 11.1133L10.3125 10.5566L10.459 8.38867C10.4785 8.22266 10.6348 8.16406 10.7617 8.26172L11.6113 8.96484C11.709 9.05273 11.8359 9.11133 11.9824 9.11133L14.5508 9.11133C14.873 9.11133 15.127 8.84766 15.127 8.53516C15.127 8.21289 14.873 7.95898 14.5508 7.95898L12.1875 7.95898L10.9473 6.92383C10.6348 6.66992 10.3516 6.51367 9.89258 6.51367L7.02148 6.51367L7.65625 4.4043C7.75391 4.0918 7.57812 3.7793 7.27539 3.69141C6.97266 3.59375 6.65039 3.7793 6.5625 4.07227ZM8.7793 4.81445C8.7793 5.48828 9.33594 6.03516 10.0098 6.03516C10.6738 6.03516 11.2207 5.48828 11.2207 4.81445C11.2207 4.16016 10.6738 3.61328 10.0098 3.61328C9.33594 3.61328 8.7793 4.16016 8.7793 4.81445Z" fill="white" fill-opacity="0.85"/>
 </g>
</svg>
