<svg version="1.1" xmlns="http://www.w3.org/2000/svg" xmlns:xlink="http://www.w3.org/1999/xlink" viewBox="0 0 20.2832 19.9316">
 <g>
  <rect height="19.9316" opacity="0" width="20.2832" x="0" y="0"/>
  <path d="M9.96094 19.9219C15.459 19.9219 19.9219 15.4492 19.9219 9.96094C19.9219 4.46289 15.459 0 9.96094 0C4.47266 0 0 4.46289 0 9.96094C0 15.4492 4.47266 19.9219 9.96094 19.9219Z" fill="var(--color-tertiary)"/>
  <path d="M10.2051 6.03516C9.52148 6.03516 8.98438 5.49805 8.98438 4.81445C8.98438 4.15039 9.52148 3.61328 10.2051 3.61328C10.8691 3.61328 11.3965 4.15039 11.3965 4.81445C11.3965 5.49805 10.8691 6.03516 10.2051 6.03516ZM14.7949 7.75391L10.459 7.75391C10.2539 7.75391 10.0684 7.86133 9.9707 8.05664L8.90625 10.1855L10.8789 12.1582C10.9766 12.2559 11.0449 12.4023 11.0449 12.5488L11.0449 15.6641C11.0449 15.9766 10.7812 16.2207 10.4688 16.2207C10.166 16.2207 9.91211 15.9766 9.91211 15.6641L9.91211 12.8418L7.88086 11.2793C7.75391 11.2012 7.55859 11.2109 7.4707 11.3477L5.83008 13.7598C5.63477 14.043 5.25391 14.0723 5.01953 13.8281L3.01758 11.8262C2.79297 11.5918 2.80273 11.25 3.01758 11.0254C3.23242 10.8105 3.58398 10.8105 3.81836 11.0254L5.23438 12.4414L7.75391 7.40234C8.01758 6.9043 8.47656 6.62109 9.02344 6.62109L14.7949 6.62109C15.1074 6.62109 15.3711 6.86523 15.3711 7.1875C15.3711 7.5 15.1074 7.75391 14.7949 7.75391ZM11.3184 10.293C11.1816 10.293 11.0254 10.2344 10.9277 10.1367L9.96094 9.16016L10.4004 8.28125C10.4199 8.24219 10.4199 8.24219 10.459 8.24219L10.6348 8.24219L11.5625 9.16992L13.3789 9.16992C13.6914 9.16992 13.9355 9.41406 13.9355 9.72656C13.9355 10.0391 13.6914 10.293 13.3789 10.293ZM14.3555 9.08203C14.3555 8.55469 14.9902 8.10547 15.7812 8.10547C16.5527 8.10547 17.1875 8.55469 17.1875 9.08203C17.1875 9.63867 16.5527 10.0781 15.7812 10.0781C14.9902 10.0781 14.3555 9.63867 14.3555 9.08203Z" fill="var(--color-primary)"/>
 </g>
</svg>
