<?xml version="1.0" encoding="UTF-8"?>
<!--Generator: Apple Native CoreSVG 341-->
<!DOCTYPE svg
PUBLIC "-//W3C//DTD SVG 1.1//EN"
       "http://www.w3.org/Graphics/SVG/1.1/DTD/svg11.dtd">
<svg version="1.1" xmlns="http://www.w3.org/2000/svg" xmlns:xlink="http://www.w3.org/1999/xlink" viewBox="0 0 20.2832 19.9316">
 <g>
  <rect height="19.9316" opacity="0" width="20.2832" x="0" y="0"/>
  <path d="M9.96094 19.9219C15.459 19.9219 19.9219 15.4492 19.9219 9.96094C19.9219 4.46289 15.459 0 9.96094 0C4.47266 0 0 4.46289 0 9.96094C0 15.4492 4.47266 19.9219 9.96094 19.9219Z" fill="white" fill-opacity="0.2125"/>
  <path d="M10.7324 5.74219C10.0586 5.74219 9.51172 5.19531 9.51172 4.52148C9.51172 3.84766 10.0586 3.31055 10.7324 3.31055C11.4062 3.31055 11.9531 3.84766 11.9531 4.52148C11.9531 5.19531 11.4062 5.74219 10.7324 5.74219ZM10.0977 13.9258C9.86328 13.9258 9.73633 13.8086 9.73633 13.5938L9.73633 11.3477L7.73438 10.8398C6.71875 10.5859 6.34766 9.72656 6.83594 8.75L7.19727 8.02734L6.54297 7.67578C6.11328 7.45117 6.02539 6.86523 6.55273 6.65039L8.31055 5.92773C8.90625 5.68359 9.54102 5.79102 10.0586 6.16211L12.4414 7.95898C12.6465 8.10547 12.6953 8.20312 12.6953 8.4082L12.6953 10.8301C12.6953 10.8789 12.6855 10.9082 12.6758 10.9473L14.6582 12.7734L16.5039 12.7734C16.6602 12.7734 16.8164 12.9297 16.8164 13.0859L16.8164 13.3691C16.8164 13.5352 16.6602 13.6816 16.5039 13.6816L14.834 13.6816C14.7266 13.6816 14.6582 13.6621 14.5605 13.5645L12.1973 11.377C11.8848 11.3965 11.582 11.1914 11.5918 10.8105L9.375 8.75977L8.94531 9.58984L10.4785 10.3027C10.7031 10.4004 10.8496 10.6055 10.8496 10.8301L10.8496 12.9883L11.6895 13.252C12.0312 13.3691 12.0215 13.9258 11.6211 13.9258ZM11.5918 9.95117L11.5918 8.74023L10.0781 7.76367C9.99023 7.70508 9.88281 7.74414 9.84375 7.83203L9.6582 8.19336ZM9.87305 14.8047C9.74609 14.8047 9.62891 14.6875 9.62891 14.5508C9.62891 14.4238 9.74609 14.3066 9.87305 14.3066L12.0508 14.3066C12.1973 14.3066 12.3047 14.4238 12.3047 14.5508C12.3047 14.6875 12.1875 14.8047 12.0508 14.8047ZM4.30664 13.6621L4.30664 12.1289C4.30664 11.9141 4.41406 11.7773 4.63867 11.7773L6.54297 11.7773L6.81641 10.9863C7.01172 11.1328 7.29492 11.2695 7.60742 11.3477L8.02734 11.4551L7.45117 12.5879C7.36328 12.7539 7.1875 12.9004 6.96289 12.9004L5.23438 12.9004L4.9707 13.7207C4.86328 14.0527 4.30664 14.0527 4.30664 13.6621ZM3.42773 14.0918L3.42773 11.9238C3.42773 11.7871 3.54492 11.6797 3.67188 11.6797C3.80859 11.6797 3.92578 11.7871 3.92578 11.9238L3.92578 14.0918C3.92578 14.2383 3.80859 14.3457 3.67188 14.3457C3.54492 14.3457 3.42773 14.2383 3.42773 14.0918ZM13.2422 15.1953L13.2422 14.7168C13.2422 14.4824 13.6328 14.3066 14.1309 14.3066C14.6289 14.3066 15.0293 14.4824 15.0293 14.7168L15.0293 15.1953C15.0293 15.4297 14.6289 15.6152 14.1309 15.6152C13.6328 15.6152 13.2422 15.4297 13.2422 15.1953Z" fill="white" fill-opacity="0.85"/>
 </g>
</svg>
