<svg version="1.1" xmlns="http://www.w3.org/2000/svg" xmlns:xlink="http://www.w3.org/1999/xlink" viewBox="0 0 20.2832 19.9316">
 <g>
  <rect height="19.9316" opacity="0" width="20.2832" x="0" y="0"/>
  <path d="M9.96094 19.9219C15.459 19.9219 19.9219 15.459 19.9219 9.96094C19.9219 4.46289 15.459 0 9.96094 0C4.46289 0 0 4.46289 0 9.96094C0 15.459 4.46289 19.9219 9.96094 19.9219ZM9.96094 18.2617C5.37109 18.2617 1.66016 14.5508 1.66016 9.96094C1.66016 5.37109 5.37109 1.66016 9.96094 1.66016C14.5508 1.66016 18.2617 5.37109 18.2617 9.96094C18.2617 14.5508 14.5508 18.2617 9.96094 18.2617Z" fill="var(--color-secondary)"/>
  <path d="M8.07617 9.75586C8.7207 9.75586 9.24805 9.22852 9.24805 8.56445C9.24805 7.91992 8.7207 7.39258 8.07617 7.39258C7.41211 7.39258 6.88477 7.91992 6.88477 8.56445C6.88477 9.22852 7.41211 9.75586 8.07617 9.75586ZM9.74609 8.69141L10.3906 8.69141L10.3906 8.16406L14.082 4.45312C14.209 4.32617 14.2188 4.12109 14.082 4.00391C13.9648 3.86719 13.7598 3.86719 13.623 4.00391L9.89258 7.72461C9.78516 7.8418 9.74609 7.97852 9.74609 8.1543ZM11.7773 10.1758C12.0801 10.1758 12.334 9.94141 12.334 9.62891L12.334 5.99609L11.2207 7.09961L11.2207 9.62891C11.2207 9.94141 11.4746 10.1758 11.7773 10.1758ZM8.61328 13.9941C8.89648 13.8281 9.18945 13.6816 9.48242 13.5547L9.48242 11.4258C9.48242 11.3477 9.54102 11.2891 9.61914 11.2891L10.3027 11.2891C10.5957 11.2891 10.8496 11.0352 10.8496 10.7422L10.8496 7.38281L9.74609 8.27148L9.74609 10.1953L7.8125 10.1953C7.33398 10.1953 7.00195 10.5273 7.00195 11.0156L7.00195 12.1484C7.58789 12.5879 8.14453 13.1934 8.61328 13.9941ZM3.4082 12.4219C5.03906 12.4219 6.83594 13.0273 7.87109 15.7129C7.98828 16.0254 8.33984 16.0645 8.53516 15.8691C9.74609 14.668 11.123 14.2676 13.1152 14.834C13.3008 14.8828 13.4473 14.7949 13.5254 14.6191C13.9355 13.6816 14.7852 13.2031 15.8105 13.2031C15.9863 13.2031 16.1426 13.0469 16.1426 12.8711C16.1426 12.6855 15.9863 12.5391 15.8105 12.5391C14.6582 12.5391 13.584 13.0957 13.0273 14.1211C11.1035 13.6621 9.58984 14.043 8.35938 15.127C7.1582 12.4219 5.10742 11.7578 3.4082 11.7578C3.23242 11.7578 3.07617 11.8945 3.07617 12.0898C3.07617 12.2754 3.23242 12.4219 3.4082 12.4219Z" fill="var(--color-primary)"/>
 </g>
</svg>
