<?xml version="1.0" encoding="UTF-8"?>
<!--Generator: Apple Native CoreSVG 341-->
<!DOCTYPE svg
PUBLIC "-//W3C//DTD SVG 1.1//EN"
       "http://www.w3.org/Graphics/SVG/1.1/DTD/svg11.dtd">
<svg version="1.1" xmlns="http://www.w3.org/2000/svg" xmlns:xlink="http://www.w3.org/1999/xlink" viewBox="0 0 20.2832 19.9316">
 <g>
  <rect height="19.9316" opacity="0" width="20.2832" x="0" y="0"/>
  <path d="M9.96094 19.9219C15.459 19.9219 19.9219 15.4492 19.9219 9.96094C19.9219 4.46289 15.459 0 9.96094 0C4.47266 0 0 4.46289 0 9.96094C0 15.4492 4.47266 19.9219 9.96094 19.9219Z" fill="white" fill-opacity="0.2125"/>
  <path d="M6.41602 6.24023C5.74219 6.24023 5.19531 5.70312 5.19531 5.01953C5.19531 4.35547 5.74219 3.81836 6.41602 3.81836C7.08008 3.81836 7.62695 4.35547 7.62695 5.01953C7.62695 5.70312 7.08008 6.24023 6.41602 6.24023ZM5.21484 10.2051L5.21484 7.93945C5.21484 7.32422 5.72266 6.82617 6.33789 6.82617L9.16016 6.82617L9.16016 4.92188C9.16016 4.44336 9.54102 4.07227 10.0098 4.07227C10.4785 4.07227 10.8594 4.44336 10.8594 4.92188C10.8594 5.2832 10.625 5.5957 10.293 5.71289L10.293 7.38281C10.293 7.70508 10.0293 7.93945 9.72656 7.93945L8.37891 7.93945C8.33008 7.93945 8.31055 7.98828 8.34961 8.02734L9.82422 9.48242L15.0684 6.33789C15.3418 6.18164 15.6934 6.25977 15.8496 6.5332C16.0156 6.79688 15.9277 7.13867 15.6543 7.29492L12.8809 8.95508L10.1074 11.0449C9.84375 11.2402 9.55078 11.3281 9.23828 11.3281C8.87695 11.3281 8.50586 11.1719 8.23242 10.918L8.08594 10.7715L5.78125 10.7715C5.45898 10.7715 5.21484 10.5078 5.21484 10.2051ZM6.29883 9.67773L7.03125 9.67773L6.43555 9.07227C6.38672 9.02344 6.29883 9.0625 6.29883 9.14062ZM8.89648 16.2891L9.42383 13.584L9.07227 11.8066C9.13086 11.8066 9.17969 11.8066 9.23828 11.8066C9.67773 11.8066 10.0879 11.6699 10.459 11.377L10.5664 13.4961C10.5762 13.5742 10.5762 13.6328 10.5664 13.7012L9.99023 16.5137C9.93164 16.8359 9.60938 17.0215 9.32617 16.9629C9.02344 16.9043 8.82812 16.6016 8.89648 16.2891Z" fill="white" fill-opacity="0.85"/>
 </g>
</svg>
