<?xml version="1.0" encoding="UTF-8"?>
<!--Generator: Apple Native CoreSVG 341-->
<!DOCTYPE svg
PUBLIC "-//W3C//DTD SVG 1.1//EN"
       "http://www.w3.org/Graphics/SVG/1.1/DTD/svg11.dtd">
<svg version="1.1" xmlns="http://www.w3.org/2000/svg" xmlns:xlink="http://www.w3.org/1999/xlink" viewBox="0 0 20.2832 19.9316">
 <g>
  <rect height="19.9316" opacity="0" width="20.2832" x="0" y="0"/>
  <path d="M19.9219 9.96094C19.9219 15.4492 15.459 19.9219 9.96094 19.9219C4.47266 19.9219 0 15.4492 0 9.96094C0 4.46289 4.47266 0 9.96094 0C15.459 0 19.9219 4.46289 19.9219 9.96094ZM9.02344 6.62109C8.47656 6.62109 8.01758 6.9043 7.75391 7.40234L5.23438 12.4414L3.81836 11.0254C3.58398 10.8105 3.23242 10.8105 3.01758 11.0254C2.80273 11.25 2.79297 11.5918 3.01758 11.8262L5.01953 13.8281C5.25391 14.0723 5.63477 14.043 5.83008 13.7598L7.4707 11.3477C7.55859 11.2109 7.75391 11.2012 7.88086 11.2793L9.91211 12.8418L9.91211 15.6641C9.91211 15.9766 10.166 16.2207 10.4688 16.2207C10.7812 16.2207 11.0449 15.9766 11.0449 15.6641L11.0449 12.5488C11.0449 12.4023 10.9766 12.2559 10.8789 12.1582L8.90625 10.1855L9.9707 8.05664C10.0684 7.86133 10.2539 7.75391 10.459 7.75391L14.7949 7.75391C15.1074 7.75391 15.3711 7.5 15.3711 7.1875C15.3711 6.86523 15.1074 6.62109 14.7949 6.62109ZM10.459 8.24219C10.4199 8.24219 10.4199 8.24219 10.4004 8.28125L9.96094 9.16016L10.9277 10.1367C11.0254 10.2344 11.1816 10.293 11.3184 10.293L13.3789 10.293C13.6914 10.293 13.9355 10.0391 13.9355 9.72656C13.9355 9.41406 13.6914 9.16992 13.3789 9.16992L11.5625 9.16992L10.6348 8.24219ZM14.3555 9.08203C14.3555 9.63867 14.9902 10.0781 15.7812 10.0781C16.5527 10.0781 17.1875 9.63867 17.1875 9.08203C17.1875 8.55469 16.5527 8.10547 15.7812 8.10547C14.9902 8.10547 14.3555 8.55469 14.3555 9.08203ZM8.98438 4.81445C8.98438 5.49805 9.52148 6.03516 10.2051 6.03516C10.8691 6.03516 11.3965 5.49805 11.3965 4.81445C11.3965 4.15039 10.8691 3.61328 10.2051 3.61328C9.52148 3.61328 8.98438 4.15039 8.98438 4.81445Z" fill="white" fill-opacity="0.85"/>
 </g>
</svg>
