<?xml version="1.0" encoding="UTF-8"?>
<!--Generator: Apple Native CoreSVG 341-->
<!DOCTYPE svg
PUBLIC "-//W3C//DTD SVG 1.1//EN"
       "http://www.w3.org/Graphics/SVG/1.1/DTD/svg11.dtd">
<svg version="1.1" xmlns="http://www.w3.org/2000/svg" xmlns:xlink="http://www.w3.org/1999/xlink" viewBox="0 0 20.2832 19.9316">
 <g>
  <rect height="19.9316" opacity="0" width="20.2832" x="0" y="0"/>
  <path d="M19.9219 9.96094C19.9219 15.4492 15.459 19.9219 9.96094 19.9219C4.47266 19.9219 0 15.4492 0 9.96094C0 4.46289 4.47266 0 9.96094 0C15.459 0 19.9219 4.46289 19.9219 9.96094ZM14.8633 14.1797L4.4043 14.834C4.23828 14.8535 4.12109 14.9707 4.12109 15.1465C4.12109 15.293 4.23828 15.4297 4.4043 15.4297L14.9707 15.4297C15.3223 15.4297 15.5957 15.1562 15.5957 14.7949C15.5957 14.3848 15.2832 14.1602 14.8633 14.1797ZM7.36328 11.5137L5.61523 13.252C5.35156 13.5254 5.40039 13.8477 5.60547 14.0234C5.80078 14.1992 6.09375 14.2188 6.36719 13.9551L8.02734 12.3047C8.1543 12.168 8.18359 12.1289 8.28125 11.9141L8.96484 10.0977L8.81836 10.0195C8.57422 9.87305 8.20312 9.63867 7.99805 9.25781ZM16.7188 7.43164L14.1309 8.64258C13.9355 8.73047 13.877 8.93555 13.9551 9.11133C14.0234 9.27734 14.2383 9.35547 14.4238 9.26758L15.0488 8.97461L14.2188 13.7402L14.7656 13.7012C14.8438 13.7012 14.873 13.7012 14.9316 13.7012L15.8203 8.62305L17.0117 8.06641C17.1875 7.97852 17.2559 7.76367 17.1875 7.59766C17.1094 7.42188 16.8848 7.34375 16.7188 7.43164ZM9.16992 5.41992L7.35352 5.54688C7.07031 5.57617 6.875 5.76172 6.83594 6.05469L6.5918 7.88086C6.55273 8.21289 6.69922 8.42773 6.99219 8.4668C7.28516 8.48633 7.45117 8.31055 7.5 7.99805L7.72461 6.50391L8.45703 6.45508C8.61328 6.44531 8.7793 6.55273 8.7207 6.75781L8.29102 8.23242C8.04688 9.0918 8.61328 9.33594 9.0625 9.58984L11.0156 10.6836L9.75586 11.7773C9.48242 12.0312 9.48242 12.3242 9.64844 12.5C9.81445 12.6953 10.127 12.7246 10.4004 12.4902L12.1875 10.9863C12.4316 10.7715 12.3828 10.3418 12.0996 10.1465L10.1758 8.87695L10.5566 7.53906C10.6055 7.34375 10.8203 7.31445 10.9375 7.49023L11.5039 8.31055C11.6309 8.51562 11.875 8.57422 12.0996 8.48633L13.7305 7.76367C14.0137 7.62695 14.1211 7.37305 13.9941 7.11914C13.877 6.85547 13.623 6.77734 13.3301 6.9043L12.041 7.48047L11.1523 6.25C10.6836 5.61523 10.1074 5.35156 9.16992 5.41992ZM9.69727 3.98438C9.69727 4.60938 10.1953 5.08789 10.8203 5.08789C11.4258 5.08789 11.9336 4.60938 11.9336 3.98438C11.9336 3.35938 11.4258 2.85156 10.8203 2.85156C10.1953 2.85156 9.69727 3.35938 9.69727 3.98438Z" fill="white" fill-opacity="0.85"/>
 </g>
</svg>
