<?xml version="1.0" encoding="UTF-8"?>
<!--Generator: Apple Native CoreSVG 341-->
<!DOCTYPE svg
PUBLIC "-//W3C//DTD SVG 1.1//EN"
       "http://www.w3.org/Graphics/SVG/1.1/DTD/svg11.dtd">
<svg version="1.1" xmlns="http://www.w3.org/2000/svg" xmlns:xlink="http://www.w3.org/1999/xlink" viewBox="0 0 20.2832 19.9316">
 <g>
  <rect height="19.9316" opacity="0" width="20.2832" x="0" y="0"/>
  <path d="M9.96094 19.9219C15.459 19.9219 19.9219 15.459 19.9219 9.96094C19.9219 4.46289 15.459 0 9.96094 0C4.46289 0 0 4.46289 0 9.96094C0 15.459 4.46289 19.9219 9.96094 19.9219ZM9.96094 18.2617C5.37109 18.2617 1.66016 14.5508 1.66016 9.96094C1.66016 5.37109 5.37109 1.66016 9.96094 1.66016C14.5508 1.66016 18.2617 5.37109 18.2617 9.96094C18.2617 14.5508 14.5508 18.2617 9.96094 18.2617Z" fill="white" fill-opacity="0.85"/>
  <path d="M14.0234 6.99219C14.6582 6.99219 15.1562 6.48438 15.1562 5.85938C15.1562 5.22461 14.6582 4.72656 14.0234 4.72656C13.3984 4.72656 12.8809 5.22461 12.8809 5.85938C12.8809 6.48438 13.3984 6.99219 14.0234 6.99219ZM11.0449 15.1465C13.1152 15.1465 14.7168 13.5547 14.7168 11.4746C14.7168 10.5176 14.3262 9.94141 13.4863 9.64844L12.6953 9.36523C12.5781 9.33594 12.5488 9.27734 12.6367 9.18945L13.1348 8.4375C13.5547 7.83203 13.3984 7.33398 12.7734 6.88477L10.8789 5.56641C10.6445 5.41992 10.3906 5.41992 10.1758 5.55664L8.4082 6.73828C7.72461 7.20703 8.35938 8.08594 9.01367 7.65625L10.4688 6.66016L11.4648 7.35352C11.6211 7.46094 11.6406 7.56836 11.543 7.71484L10.7227 8.89648C10.2441 9.58008 10.625 10.332 11.3574 10.5078L13.5449 11.0645C13.75 11.1035 13.8672 11.2793 13.8672 11.5137C13.8672 13.0762 12.6367 14.3066 11.0449 14.3066C9.45312 14.3066 8.22266 13.0762 8.22266 11.4746C8.22266 10.8984 8.37891 10.3906 8.66211 9.9707C9.01367 9.43359 8.31055 8.98438 7.92969 9.54102C7.58789 10.0684 7.36328 10.7227 7.36328 11.4746C7.36328 13.5547 8.97461 15.1465 11.0449 15.1465ZM14.6973 15.1465C15.0293 15.1465 15.3027 14.8926 15.3027 14.5605C15.3027 14.2285 15.0293 13.9453 14.6973 13.9453C14.3555 13.9453 14.0918 14.2285 14.0918 14.5605C14.0918 14.8926 14.3555 15.1465 14.6973 15.1465ZM3.79883 8.76953L6.13281 8.76953C6.34766 8.76953 6.51367 8.59375 6.51367 8.37891C6.51367 8.16406 6.34766 7.98828 6.13281 7.98828L3.79883 7.98828C3.57422 7.98828 3.42773 8.17383 3.42773 8.37891C3.42773 8.58398 3.57422 8.76953 3.79883 8.76953ZM3.33984 10.6348L6.13281 10.6348C6.34766 10.6348 6.51367 10.4785 6.51367 10.2539C6.51367 10.0391 6.34766 9.86328 6.13281 9.86328L3.33984 9.86328C3.13477 9.86328 2.96875 10.0586 2.96875 10.2539C2.96875 10.4785 3.13477 10.6348 3.33984 10.6348ZM4.78516 12.5098L6.13281 12.5098C6.34766 12.5098 6.51367 12.3535 6.51367 12.1191C6.51367 11.9043 6.34766 11.7383 6.13281 11.7383L4.78516 11.7383C4.57031 11.7383 4.42383 11.9043 4.42383 12.1191C4.42383 12.3535 4.57031 12.5098 4.78516 12.5098Z" fill="white" fill-opacity="0.85"/>
 </g>
</svg>
