<?xml version="1.0" encoding="UTF-8"?>
<!--Generator: Apple Native CoreSVG 341-->
<!DOCTYPE svg
PUBLIC "-//W3C//DTD SVG 1.1//EN"
       "http://www.w3.org/Graphics/SVG/1.1/DTD/svg11.dtd">
<svg version="1.1" xmlns="http://www.w3.org/2000/svg" xmlns:xlink="http://www.w3.org/1999/xlink" viewBox="0 0 28.2068 25.9468">
 <g>
  <rect height="25.9468" opacity="0" width="28.2068" x="0" y="0"/>
  <path d="M25.4315 7.02124L25.4315 15.9084L23.8593 14.296L23.8593 7.09937C23.8593 6.08374 23.3124 5.56616 22.3456 5.56616L5.49013 5.56616C4.51357 5.56616 3.97646 6.08374 3.97646 7.09937L3.97646 18.8669C3.97646 19.8826 4.5331 20.4001 5.49013 20.4001L19.364 20.4001L19.3476 21.7087C19.3464 21.7996 19.3516 21.8876 19.3631 21.9724L5.4706 21.9724C3.41982 21.9724 2.40419 20.9666 2.40419 18.9451L2.40419 7.02124C2.40419 4.99976 3.42958 3.9939 5.4706 3.9939L22.3651 3.9939C24.4159 3.9939 25.4315 4.99976 25.4315 7.02124Z" fill="white" fill-opacity="0.425"/>
  <path d="M16.7108 16.8162C16.7108 17.1482 16.4569 17.4021 16.1151 17.4021L6.90615 17.4021C6.54482 17.4021 6.29091 17.1482 6.29091 16.8162C6.29091 16.4744 6.54482 16.2009 6.90615 16.2009L16.1151 16.2009C16.4569 16.2009 16.7108 16.4744 16.7108 16.8162Z" fill="white" fill-opacity="0.425"/>
  <path d="M14.2401 12.9685C14.2401 13.3201 13.9862 13.5837 13.6444 13.5837L6.90615 13.5837C6.54482 13.5837 6.29091 13.3201 6.29091 12.9685C6.29091 12.6365 6.54482 12.3826 6.90615 12.3826L13.6444 12.3826C13.9862 12.3826 14.2401 12.6365 14.2401 12.9685Z" fill="white" fill-opacity="0.425"/>
  <path d="M18.9179 9.15015C18.9179 9.49194 18.664 9.75562 18.3124 9.75562L6.90615 9.75562C6.54482 9.75562 6.29091 9.49194 6.29091 9.15015C6.29091 8.81812 6.54482 8.55444 6.90615 8.55444L18.3124 8.55444C18.664 8.55444 18.9179 8.81812 18.9179 9.15015Z" fill="white" fill-opacity="0.425"/>
  <path d="M25.4315 24.5505C25.8612 24.3748 26.0663 23.8865 25.8808 23.4568L24.3573 19.9119L26.4569 19.824C26.828 19.8044 27.0038 19.4529 26.7401 19.1697L21.4081 13.6912C21.1542 13.4373 20.7831 13.5837 20.7733 13.9353L20.6854 21.738C20.6757 22.1189 21.1249 22.2361 21.369 21.9919L22.8534 20.4978L24.3183 24.1013C24.4843 24.531 24.9921 24.7361 25.4315 24.5505Z" fill="white" fill-opacity="0.85"/>
 </g>
</svg>
