<?xml version="1.0" encoding="UTF-8"?>
<!--Generator: Apple Native CoreSVG 341-->
<!DOCTYPE svg
PUBLIC "-//W3C//DTD SVG 1.1//EN"
       "http://www.w3.org/Graphics/SVG/1.1/DTD/svg11.dtd">
<svg version="1.1" xmlns="http://www.w3.org/2000/svg" xmlns:xlink="http://www.w3.org/1999/xlink" viewBox="0 0 27.899 21.7811">
 <g>
  <rect height="21.7811" opacity="0" width="27.899" x="0" y="0"/>
  <path d="M11.4153 5.7392L12.8118 5.456C12.6555 4.43061 12.4016 3.59076 11.679 2.49701C11.5911 2.36029 11.6106 2.22357 11.7278 2.18451C14.8333 1.12006 18.8469 2.63373 19.7063 5.84662L21.1712 5.67084C20.136 1.18842 14.2669-0.930722 10.2044 1.31537C9.71609 1.57904 9.61843 2.09662 10.0188 2.62397C11.0052 3.92279 11.22 4.58686 11.4153 5.7392ZM16.0637 18.288C20.5755 18.288 27.5384 15.329 27.5384 11.3154C27.5384 7.31147 20.5755 4.35248 16.0637 4.35248C12.8802 4.35248 9.63796 5.456 7.00125 8.01459C5.2825 6.07123 3.28054 4.98725 0.946558 4.94818C0.458277 4.93842 0.0676522 5.25092 0.0285897 5.74897C-0.176488 7.78022 0.74148 9.97748 2.14773 11.3154C0.74148 12.663-0.176488 14.8701 0.0285897 16.8915C0.0676522 17.3896 0.458277 17.7021 0.946558 17.6923C3.28054 17.6533 5.2825 16.5693 7.00125 14.6357C9.63796 17.1845 12.8802 18.288 16.0637 18.288ZM16.0637 16.7158C12.929 16.7158 9.9407 15.6122 7.48953 12.8779C7.16726 12.5165 6.71804 12.5263 6.39578 12.9169C4.97 14.6845 3.58328 15.7294 1.88406 16.0224C1.71804 16.0517 1.58132 15.915 1.61062 15.7392C1.77664 14.2158 2.67507 12.8095 3.79812 11.9208C4.30593 11.4912 4.3157 11.1494 3.78836 10.7099C2.67507 9.82123 1.77664 8.42475 1.61062 6.90131C1.58132 6.73529 1.71804 6.58881 1.88406 6.61811C3.58328 6.91107 4.97 7.956 6.39578 9.72357C6.71804 10.124 7.16726 10.1337 7.47976 9.7724C9.9407 7.02826 12.929 5.92475 16.0637 5.92475C20.2239 5.92475 25.9954 8.62982 25.9954 11.3154C25.9954 14.0107 20.2239 16.7158 16.0637 16.7158ZM22.1282 11.9111C22.6946 11.9111 23.1634 11.4423 23.1634 10.8857C23.1634 10.329 22.6946 9.86029 22.1282 9.86029C21.5716 9.86029 21.1028 10.329 21.1028 10.8857C21.1028 11.4423 21.5716 11.9111 22.1282 11.9111ZM12.9876 17.1747L12.5774 20.5341C12.4798 21.3544 13.0071 21.9111 13.9641 21.7548C16.4544 21.3642 19.2864 19.5087 20.7219 17.3798L18.7102 17.624C17.4798 18.6884 16.1516 19.6552 14.5598 20.0947C14.3548 20.1435 14.218 20.1044 14.2473 19.831L14.4915 17.3994Z" fill="white" fill-opacity="0.85"/>
 </g>
</svg>
