<?xml version="1.0" encoding="UTF-8"?>
<!--Generator: Apple Native CoreSVG 341-->
<!DOCTYPE svg
PUBLIC "-//W3C//DTD SVG 1.1//EN"
       "http://www.w3.org/Graphics/SVG/1.1/DTD/svg11.dtd">
<svg version="1.1" xmlns="http://www.w3.org/2000/svg" xmlns:xlink="http://www.w3.org/1999/xlink" viewBox="0 0 20.2832 19.9316">
 <g>
  <rect height="19.9316" opacity="0" width="20.2832" x="0" y="0"/>
  <path d="M9.96094 19.9219C15.459 19.9219 19.9219 15.459 19.9219 9.96094C19.9219 4.46289 15.459 0 9.96094 0C4.46289 0 0 4.46289 0 9.96094C0 15.459 4.46289 19.9219 9.96094 19.9219ZM9.96094 18.2617C5.37109 18.2617 1.66016 14.5508 1.66016 9.96094C1.66016 5.37109 5.37109 1.66016 9.96094 1.66016C14.5508 1.66016 18.2617 5.37109 18.2617 9.96094C18.2617 14.5508 14.5508 18.2617 9.96094 18.2617Z" fill="white" fill-opacity="0.85"/>
  <path d="M12.1191 14.0332C12.334 13.9258 12.3926 13.6621 12.2754 13.4668L8.06641 6.18164C7.87109 5.83984 7.57812 5.76172 7.27539 5.76172C7.00195 5.76172 6.67969 5.91797 6.37695 6.08398C5.36133 6.67969 5.00977 7.53906 4.07227 8.06641C3.66211 8.31055 3.31055 8.4082 3.125 8.50586C2.88086 8.64258 2.74414 8.91602 2.90039 9.19922L4.47266 11.9141C4.64844 12.207 4.86328 12.3535 5.20508 12.3535C5.55664 12.3535 5.88867 12.1875 6.17188 12.0117C7.19727 11.4258 7.55859 10.5469 8.48633 10.0293C8.74023 9.87305 8.97461 9.79492 9.16016 9.7168L11.5625 13.877C11.6895 14.0918 11.9238 14.1504 12.1191 14.0332ZM14.6875 12.3535C15.0293 12.3535 15.2441 12.207 15.4102 11.9141L16.9922 9.19922C17.1484 8.91602 17.0117 8.65234 16.7676 8.50586C16.582 8.4082 16.2305 8.31055 15.8203 8.06641C14.8828 7.53906 14.5215 6.67969 13.5156 6.08398C13.2129 5.91797 12.8809 5.76172 12.6074 5.76172C12.3047 5.76172 12.0215 5.83984 11.8262 6.19141L10.3516 8.74023L10.9766 9.81445C12.0996 10.2441 12.7344 11.4551 13.7207 12.0117C13.9941 12.1875 14.3359 12.3535 14.6875 12.3535ZM7.76367 14.0332C7.95898 14.1602 8.20312 14.0918 8.33008 13.877L9.55078 11.7578L9.07227 10.9473L7.61719 13.4668C7.5 13.6621 7.55859 13.9258 7.76367 14.0332Z" fill="white" fill-opacity="0.85"/>
 </g>
</svg>
