<?xml version="1.0" encoding="UTF-8"?>
<!--Generator: Apple Native CoreSVG 341-->
<!DOCTYPE svg
PUBLIC "-//W3C//DTD SVG 1.1//EN"
       "http://www.w3.org/Graphics/SVG/1.1/DTD/svg11.dtd">
<svg version="1.1" xmlns="http://www.w3.org/2000/svg" xmlns:xlink="http://www.w3.org/1999/xlink" viewBox="0 0 20.2832 19.9316">
 <g>
  <rect height="19.9316" opacity="0" width="20.2832" x="0" y="0"/>
  <path d="M9.96094 19.9316C15.459 19.9316 19.9219 15.4688 19.9219 9.9707C19.9219 4.48242 15.459 0.00976562 9.96094 0.00976562C4.47266 0.00976562 0 4.48242 0 9.9707C0 15.4688 4.47266 19.9316 9.96094 19.9316Z" fill="white" fill-opacity="0.2125"/>
  <path d="M10.6991 12.3528C9.78034 12.095 8.9158 11.748 7.79297 11.748C7.16797 11.748 6.77734 11.8652 6.58203 11.9434L6.58203 14.9121C6.58203 15.1758 6.40625 15.3809 6.13281 15.3809C5.87891 15.3809 5.6543 15.166 5.6543 14.9121L5.6543 7.31325ZM5.67383 5.0293L14.9121 14.2676C15.0879 14.4531 15.0879 14.7266 14.9121 14.9121C14.7363 15.0879 14.4336 15.0879 14.2676 14.9121L5.01953 5.67383C4.85352 5.49805 4.84375 5.20508 5.01953 5.0293C5.20508 4.84375 5.49805 4.84375 5.67383 5.0293ZM12.4023 6.17188C13.2324 6.17188 13.6719 5.95703 13.9648 5.95703C14.375 5.95703 14.5312 6.17188 14.5312 6.47461L14.5312 11.4258C14.5312 11.8557 14.3599 12.1399 13.9931 12.3427L6.96949 5.3191C7.16994 5.28858 7.41582 5.27344 7.74414 5.27344C9.55078 5.27344 10.6934 6.17188 12.4023 6.17188Z" fill="white" fill-opacity="0.85"/>
 </g>
</svg>
