<?xml version="1.0" encoding="UTF-8"?>
<!--Generator: Apple Native CoreSVG 341-->
<!DOCTYPE svg
PUBLIC "-//W3C//DTD SVG 1.1//EN"
       "http://www.w3.org/Graphics/SVG/1.1/DTD/svg11.dtd">
<svg version="1.1" xmlns="http://www.w3.org/2000/svg" xmlns:xlink="http://www.w3.org/1999/xlink" viewBox="0 0 20.2832 19.9316">
 <g>
  <rect height="19.9316" opacity="0" width="20.2832" x="0" y="0"/>
  <path d="M9.96094 19.9219C15.459 19.9219 19.9219 15.459 19.9219 9.96094C19.9219 4.46289 15.459 0 9.96094 0C4.46289 0 0 4.46289 0 9.96094C0 15.459 4.46289 19.9219 9.96094 19.9219ZM9.96094 18.2617C5.37109 18.2617 1.66016 14.5508 1.66016 9.96094C1.66016 5.37109 5.37109 1.66016 9.96094 1.66016C14.5508 1.66016 18.2617 5.37109 18.2617 9.96094C18.2617 14.5508 14.5508 18.2617 9.96094 18.2617Z" fill="white" fill-opacity="0.425"/>
  <path d="M6.24023 15.2148C6.50391 15.2148 6.67969 15.0098 6.67969 14.7656L6.67969 11.8848C6.86523 11.8066 7.24609 11.6895 7.85156 11.6895C9.58984 11.6895 10.6836 12.5488 12.373 12.5488C13.1152 12.5488 13.418 12.4707 13.7891 12.2949C14.1992 12.1094 14.3848 11.8262 14.3848 11.3867L14.3848 6.57227C14.3848 6.28906 14.2383 6.08398 13.8379 6.08398C13.5547 6.08398 13.125 6.28906 12.3242 6.28906C10.6641 6.28906 9.56055 5.41992 7.80273 5.41992C7.04102 5.41992 6.73828 5.50781 6.38672 5.66406C5.98633 5.83984 5.78125 6.15234 5.78125 6.57227L5.78125 14.7656C5.78125 15 5.99609 15.2148 6.24023 15.2148Z" fill="white" fill-opacity="0.85"/>
 </g>
</svg>
