<?xml version="1.0" encoding="UTF-8"?>
<!--Generator: Apple Native CoreSVG 341-->
<!DOCTYPE svg
PUBLIC "-//W3C//DTD SVG 1.1//EN"
       "http://www.w3.org/Graphics/SVG/1.1/DTD/svg11.dtd">
<svg version="1.1" xmlns="http://www.w3.org/2000/svg" xmlns:xlink="http://www.w3.org/1999/xlink" viewBox="0 0 23.3887 19.5801">
 <g>
  <rect height="19.5801" opacity="0" width="23.3887" x="0" y="0"/>
  <path d="M3.06641 18.7695L19.9609 18.7695C22.0117 18.7695 23.0273 17.7637 23.0273 15.752L23.0273 6.30859C23.0273 4.29688 22.0117 3.29102 19.9609 3.29102L18.7793 3.29102L18.7793 4.86328L19.9414 4.86328C20.9082 4.86328 21.4551 5.38086 21.4551 6.39648L21.4551 15.6641C21.4551 16.6797 20.9082 17.1973 19.9414 17.1973L3.08594 17.1973C2.10938 17.1973 1.57227 16.6797 1.57227 15.6641L1.57227 6.39648C1.57227 5.38086 2.10938 4.86328 3.08594 4.86328L14.0625 4.86328L14.0625 3.29102L3.06641 3.29102C1.02539 3.29102 0 4.29688 0 6.30859L0 15.752C0 17.7637 1.02539 18.7695 3.06641 18.7695ZM2.51953 18.0566L20.5371 18.0566C21.709 18.0566 22.4805 17.2266 22.4805 16.0156L22.4805 12.0215C21.4844 12.002 20.6543 11.6113 20.1172 10.9961C19.9023 10.752 19.6582 10.7617 19.4434 10.9961C18.8574 11.6602 17.9785 12.0215 17.0312 12.0215C16.084 12.0215 15.2051 11.6602 14.6191 10.9961C14.4043 10.7617 14.1602 10.752 13.9453 10.9961C13.3887 11.6309 12.5 12.0215 11.5137 12.0215C10.5273 12.0215 9.63867 11.6309 9.08203 10.9961C8.86719 10.752 8.63281 10.7617 8.4082 10.9961C7.82227 11.6602 6.94336 12.0215 5.99609 12.0215C5.04883 12.0215 4.17969 11.6602 3.58398 10.9961C3.36914 10.7617 3.125 10.752 2.91016 10.9961C2.37305 11.6113 1.55273 12.002 0.546875 12.0215L0.546875 16.0156C0.546875 17.2266 1.31836 18.0566 2.51953 18.0566ZM13.2715 4.83398L14.7461 4.83398L14.7461 0.878906L13.2715 0.878906ZM17.8418 4.83398L19.3164 4.83398L19.3164 0.878906L17.8418 0.878906ZM12.2949 1.57227L20.293 1.57227C20.7422 1.57227 21.0742 1.2207 21.0742 0.791016C21.0742 0.361328 20.7422 0 20.293 0L12.2949 0C11.8652 0 11.5039 0.361328 11.5039 0.791016C11.5039 1.2207 11.8652 1.57227 12.2949 1.57227Z" fill="white" fill-opacity="0.85"/>
 </g>
</svg>
