<?xml version="1.0" encoding="UTF-8"?>
<!--Generator: Apple Native CoreSVG 341-->
<!DOCTYPE svg
PUBLIC "-//W3C//DTD SVG 1.1//EN"
       "http://www.w3.org/Graphics/SVG/1.1/DTD/svg11.dtd">
<svg version="1.1" xmlns="http://www.w3.org/2000/svg" xmlns:xlink="http://www.w3.org/1999/xlink" viewBox="0 0 23.3887 16.748">
 <g>
  <rect height="16.748" opacity="0" width="23.3887" x="0" y="0"/>
  <path d="M2.51953 16.0156L20.5371 16.0156C21.709 16.0156 22.4805 15.1953 22.4805 13.9746L22.4805 10.6055C21.4844 10.5859 20.6543 10.1953 20.1172 9.58008C19.9023 9.33594 19.6582 9.3457 19.4434 9.58008C18.8574 10.2441 17.9785 10.6055 17.0312 10.6055C16.084 10.6055 15.2051 10.2441 14.6191 9.58008C14.4043 9.3457 14.1602 9.33594 13.9453 9.58008C13.3887 10.2148 12.5 10.6055 11.5137 10.6055C10.5273 10.6055 9.63867 10.2148 9.08203 9.58008C8.86719 9.33594 8.63281 9.3457 8.4082 9.58008C7.82227 10.2441 6.94336 10.6055 5.99609 10.6055C5.04883 10.6055 4.17969 10.2441 3.58398 9.58008C3.36914 9.3457 3.125 9.33594 2.91016 9.58008C2.37305 10.1953 1.55273 10.5859 0.546875 10.6055L0.546875 13.9746C0.546875 15.1953 1.31836 16.0156 2.51953 16.0156ZM3.06641 16.748L19.9609 16.748C22.0117 16.748 23.0273 15.7324 23.0273 13.7207L23.0273 5.52734C23.0273 3.52539 22.0117 2.50977 19.9609 2.50977L18.877 2.50977L18.877 1.20117C18.877 0.458984 18.4473 0.00976562 17.6953 0.00976562L15.7422 0.00976562C15 0.00976562 14.5703 0.458984 14.5703 1.20117L14.5703 2.50977L8.4668 2.50977L8.4668 1.20117C8.4668 0.458984 8.03711 0.00976562 7.28516 0.00976562L5.33203 0.00976562C4.58008 0.00976562 4.15039 0.458984 4.15039 1.20117L4.15039 2.50977L3.06641 2.50977C1.02539 2.50977 0 3.51562 0 5.52734L0 13.7207C0 15.7422 1.02539 16.748 3.06641 16.748ZM1.57227 13.6426L1.57227 5.61523C1.57227 4.59961 2.10938 4.08203 3.08594 4.08203L19.9414 4.08203C20.9082 4.08203 21.4551 4.59961 21.4551 5.61523L21.4551 13.6426C21.4551 14.6484 20.9082 15.1758 19.9414 15.1758L3.08594 15.1758C2.10938 15.1758 1.57227 14.6484 1.57227 13.6426Z" fill="white" fill-opacity="0.85"/>
 </g>
</svg>
