<?xml version="1.0" encoding="UTF-8"?>
<!--Generator: Apple Native CoreSVG 341-->
<!DOCTYPE svg
PUBLIC "-//W3C//DTD SVG 1.1//EN"
       "http://www.w3.org/Graphics/SVG/1.1/DTD/svg11.dtd">
<svg version="1.1" xmlns="http://www.w3.org/2000/svg" xmlns:xlink="http://www.w3.org/1999/xlink" viewBox="0 0 20.2832 19.9316">
 <g>
  <rect height="19.9316" opacity="0" width="20.2832" x="0" y="0"/>
  <path d="M9.96094 19.9219C15.459 19.9219 19.9219 15.459 19.9219 9.96094C19.9219 4.46289 15.459 0 9.96094 0C4.46289 0 0 4.46289 0 9.96094C0 15.459 4.46289 19.9219 9.96094 19.9219ZM9.96094 18.2617C5.37109 18.2617 1.66016 14.5508 1.66016 9.96094C1.66016 5.37109 5.37109 1.66016 9.96094 1.66016C14.5508 1.66016 18.2617 5.37109 18.2617 9.96094C18.2617 14.5508 14.5508 18.2617 9.96094 18.2617Z" fill="white" fill-opacity="0.425"/>
  <path d="M5.98633 14.3945L14.082 14.3945C14.9316 14.3945 15.4297 13.8965 15.4297 12.9297L15.4297 7.68555C15.4297 6.71875 14.9219 6.2207 13.9355 6.2207L9.28711 6.2207C8.94531 6.2207 8.76953 6.13281 8.53516 5.9375L8.23242 5.70312C7.91016 5.44922 7.67578 5.36133 7.22656 5.36133L5.79102 5.36133C4.9707 5.36133 4.49219 5.83984 4.49219 6.77734L4.49219 12.9297C4.49219 13.8965 5 14.3945 5.98633 14.3945ZM5.37109 7.87109L5.37109 7.60742C5.37109 7.31445 5.58594 7.11914 5.94727 7.11914L13.9746 7.11914C14.3359 7.11914 14.541 7.31445 14.541 7.60742L14.541 7.87109Z" fill="white" fill-opacity="0.85"/>
 </g>
</svg>
