<?xml version="1.0" encoding="UTF-8"?>
<!--Generator: Apple Native CoreSVG 341-->
<!DOCTYPE svg
PUBLIC "-//W3C//DTD SVG 1.1//EN"
       "http://www.w3.org/Graphics/SVG/1.1/DTD/svg11.dtd">
<svg version="1.1" xmlns="http://www.w3.org/2000/svg" xmlns:xlink="http://www.w3.org/1999/xlink" viewBox="0 0 20.2832 19.9316">
 <g>
  <rect height="19.9316" opacity="0" width="20.2832" x="0" y="0"/>
  <path d="M19.9219 9.9707C19.9219 15.4688 15.459 19.9316 9.96094 19.9316C4.47266 19.9316 0 15.4688 0 9.9707C0 4.48242 4.47266 0.00976562 9.96094 0.00976562C15.459 0.00976562 19.9219 4.48242 19.9219 9.9707ZM5.67383 5.23438C4.82422 5.23438 4.33594 5.72266 4.33594 6.69922L4.33594 13.0371C4.33594 14.0332 4.85352 14.541 5.87891 14.541L14.2188 14.541C15.0977 14.541 15.6055 14.0332 15.6055 13.0371L15.6055 7.63672C15.6055 6.63086 15.0879 6.12305 14.0625 6.12305L9.27734 6.12305C8.92578 6.12305 8.74023 6.03516 8.50586 5.83008L8.19336 5.58594C7.86133 5.32227 7.61719 5.23438 7.1582 5.23438ZM14.6875 7.54883L14.6875 7.82227L5.24414 7.82227L5.24414 7.54883C5.24414 7.24609 5.45898 7.04102 5.83008 7.04102L14.1113 7.04102C14.4824 7.04102 14.6875 7.24609 14.6875 7.54883Z" fill="white" fill-opacity="0.85"/>
 </g>
</svg>
