<svg version="1.1" xmlns="http://www.w3.org/2000/svg" xmlns:xlink="http://www.w3.org/1999/xlink" viewBox="0 0 20.2832 19.9316">
 <g>
  <rect height="19.9316" opacity="0" width="20.2832" x="0" y="0"/>
  <path d="M9.96094 19.9219C15.459 19.9219 19.9219 15.4492 19.9219 9.96094C19.9219 4.46289 15.459 0 9.96094 0C4.47266 0 0 4.46289 0 9.96094C0 15.4492 4.47266 19.9219 9.96094 19.9219Z" fill="var(--color-tertiary)"/>
  <path d="M7.7832 16.5527C7.31445 16.5527 7.01172 16.2988 7.02148 15.8301L7.13867 9.44336C7.13867 9.24805 7.05078 9.0918 6.875 9.01367C6.11328 8.69141 5.79102 8.34961 5.83984 7.34375L5.99609 3.85742C6.00586 3.60352 6.15234 3.45703 6.37695 3.45703C6.61133 3.45703 6.74805 3.61328 6.74805 3.86719L6.69922 7.27539C6.69922 7.46094 6.83594 7.59766 7.01172 7.59766C7.2168 7.59766 7.34375 7.46094 7.34375 7.28516L7.40234 3.7793C7.40234 3.52539 7.55859 3.38867 7.7832 3.38867C8.00781 3.38867 8.17383 3.52539 8.17383 3.7793L8.21289 7.28516C8.21289 7.46094 8.34961 7.59766 8.54492 7.59766C8.74023 7.59766 8.87695 7.46094 8.87695 7.27539L8.82812 3.86719C8.82812 3.61328 8.96484 3.45703 9.18945 3.45703C9.42383 3.45703 9.55078 3.60352 9.57031 3.85742L9.73633 7.34375C9.78516 8.34961 9.45312 8.69141 8.70117 9.01367C8.52539 9.0918 8.44727 9.24805 8.44727 9.44336L8.54492 15.8301C8.56445 16.2988 8.26172 16.5527 7.7832 16.5527ZM11.8555 11.7188C11.8652 11.5039 11.7676 11.3477 11.5625 11.2109L11.2402 10.9766C10.957 10.7715 10.8008 10.498 10.8008 10.0977L10.8008 9.7168C10.8008 7.45117 11.4062 5.04883 12.3242 3.76953C12.5 3.50586 12.6562 3.38867 12.8613 3.38867C13.0664 3.38867 13.2715 3.51562 13.2715 3.80859L13.2715 15.8594C13.2715 16.3184 12.9785 16.5527 12.4902 16.5527C12.0312 16.5527 11.7188 16.2988 11.7285 15.8008Z" fill="var(--color-primary)"/>
 </g>
</svg>
