<svg version="1.1" xmlns="http://www.w3.org/2000/svg" xmlns:xlink="http://www.w3.org/1999/xlink" viewBox="0 0 31.6602 14.9316">
 <g>
  <rect height="14.9316" opacity="0" width="31.6602" x="0" y="0"/>
  <path d="M0 13.5645C0 14.4824 0.527344 14.9219 1.16211 14.9219C1.43555 14.9219 1.72852 14.834 2.01172 14.6777L12.2656 8.70117C13.0078 8.27148 13.291 7.94922 13.291 7.46094C13.291 6.97266 13.0078 6.65039 12.2656 6.2207L2.01172 0.244141C1.72852 0.078125 1.43555 0 1.16211 0C0.527344 0 0 0.429688 0 1.34766ZM13.2422 13.5645C13.2422 14.4824 13.7695 14.9219 14.3945 14.9219C14.6777 14.9219 14.9707 14.834 15.2539 14.6777L25.5078 8.70117C26.2402 8.27148 26.5234 7.94922 26.5234 7.46094C26.5234 6.97266 26.2402 6.65039 25.5078 6.2207L15.2539 0.244141C14.9707 0.078125 14.6777 0 14.3945 0C13.7695 0 13.2422 0.429688 13.2422 1.34766ZM27.7832 14.8633L30 14.8633C30.8594 14.8633 31.2988 14.4141 31.2988 13.5547L31.2988 1.35742C31.2988 0.458984 30.8594 0.0488281 30 0.0488281L27.7832 0.0488281C26.9238 0.0488281 26.4746 0.498047 26.4746 1.35742L26.4746 13.5547C26.4746 14.4141 26.9238 14.8633 27.7832 14.8633Z" fill="var(--color-primary)"/>
 </g>
</svg>
