<?xml version="1.0" encoding="UTF-8"?>
<!--Generator: Apple Native CoreSVG 341-->
<!DOCTYPE svg
PUBLIC "-//W3C//DTD SVG 1.1//EN"
       "http://www.w3.org/Graphics/SVG/1.1/DTD/svg11.dtd">
<svg version="1.1" xmlns="http://www.w3.org/2000/svg" xmlns:xlink="http://www.w3.org/1999/xlink" viewBox="0 0 26.416 21.7871">
 <g>
  <rect height="21.7871" opacity="0" width="26.416" x="0" y="0"/>
  <path d="M24.7754 17.4414C25.4688 17.4414 26.0547 16.875 26.0547 16.2109C26.0547 15.5371 25.4785 14.9805 24.7754 14.9805C24.0625 14.9805 23.4863 15.5371 23.4863 16.2109C23.4863 16.875 24.0723 17.4414 24.7754 17.4414ZM24.7754 13.1055C25.2539 13.1055 25.5859 12.7734 25.6055 12.2754L25.8105 5.36133C25.8301 4.73633 25.4102 4.31641 24.7754 4.31641C24.1309 4.31641 23.7109 4.73633 23.7305 5.36133L23.9355 12.2754C23.9551 12.7734 24.2969 13.1055 24.7754 13.1055Z" fill="white" fill-opacity="0.85"/>
  <path d="M14.3457 21.0449L14.3457 2.48047C14.3457 0.878906 13.4668 0 11.875 0L4.00391 0C2.39258 0 1.54297 0.878906 1.54297 2.48047L1.54297 21.0449ZM4.31641 8.84766C3.61328 8.84766 3.18359 8.45703 3.18359 7.80273L3.18359 2.70508C3.18359 2.04102 3.61328 1.64062 4.31641 1.64062L11.5625 1.64062C12.2656 1.64062 12.7051 2.04102 12.7051 2.70508L12.7051 7.80273C12.7051 8.45703 12.2656 8.84766 11.5625 8.84766ZM0 20.9766C0 21.416 0.341797 21.7773 0.771484 21.7773L15.0977 21.7773C15.5273 21.7773 15.8887 21.416 15.8887 20.9766C15.8887 20.5566 15.5273 20.2051 15.0977 20.2051L0.771484 20.2051C0.351562 20.2051 0 20.5469 0 20.9766ZM18.0273 19.3359C19.8145 19.3359 20.8203 18.1445 20.8203 16.0352C20.8203 13.584 20.3418 10.7617 19.4238 6.31836L19.209 5.29297C19.0137 4.32617 18.7109 3.54492 18.1348 2.82227L17.041 1.44531C16.543 0.820312 15.5762 1.54297 16.1133 2.2168L17.4902 3.94531C17.5879 4.0625 17.5879 4.21875 17.5098 4.35547L16.6895 5.87891C16.4746 6.28906 16.5137 6.5625 16.8652 6.94336L18.6816 8.87695C19.2969 11.6504 19.6387 14.1113 19.6387 16.0352C19.6387 17.3926 19.0625 18.1445 18.0273 18.1445C17.1387 18.1445 16.5527 17.5586 16.5527 16.5918C16.5527 15.1562 16.7871 13.252 16.7871 11.5039C16.7871 9.79492 15.9473 8.49609 13.877 7.8125L13.3984 8.88672C14.9707 9.36523 15.6055 10.332 15.6055 11.5039C15.6055 13.0664 15.3711 14.9707 15.3711 16.5918C15.3711 18.2812 16.4062 19.3359 18.0273 19.3359Z" fill="white" fill-opacity="0.425"/>
 </g>
</svg>
