<svg version="1.1" xmlns="http://www.w3.org/2000/svg" xmlns:xlink="http://www.w3.org/1999/xlink" viewBox="0 0 28.2667 21.7871">
 <g>
  <rect height="21.7871" opacity="0" width="28.2667" x="0" y="0"/>
  <path d="M21.438 21.0449L21.438 2.48047C21.438 0.878906 20.5591 0 18.9576 0L11.0962 0C9.48491 0 8.6353 0.878906 8.6353 2.48047L8.6353 21.0449ZM11.4087 8.84766C10.6958 8.84766 10.2759 8.45703 10.2759 7.80273L10.2759 2.70508C10.2759 2.04102 10.6958 1.64062 11.4087 1.64062L18.6451 1.64062C19.358 1.64062 19.7974 2.04102 19.7974 2.70508L19.7974 7.80273C19.7974 8.45703 19.358 8.84766 18.6451 8.84766ZM7.09233 20.9766C7.09233 21.416 7.43413 21.7773 7.86382 21.7773L22.19 21.7773C22.6197 21.7773 22.981 21.416 22.981 20.9766C22.981 20.5566 22.6197 20.2051 22.19 20.2051L7.86382 20.2051C7.44389 20.2051 7.09233 20.5469 7.09233 20.9766ZM25.1197 19.3359C26.9068 19.3359 27.9029 18.1445 27.9029 16.0352C27.9029 13.584 27.4244 10.7617 26.5162 6.31836L26.3013 5.29297C26.0962 4.32617 25.8033 3.54492 25.2271 2.82227L24.1236 1.44531C23.6255 0.820312 22.6685 1.54297 23.2056 2.2168L24.5826 3.94531C24.6705 4.0625 24.6802 4.21875 24.6021 4.35547L23.7818 5.87891C23.5669 6.28906 23.606 6.5625 23.9478 6.94336L25.7642 8.87695C26.3794 11.6504 26.731 14.1113 26.731 16.0352C26.731 17.3926 26.1548 18.1445 25.1197 18.1445C24.2212 18.1445 23.6353 17.5586 23.6353 16.5918C23.6353 15.1562 23.8697 13.252 23.8697 11.5039C23.8697 9.79492 23.0298 8.49609 20.9693 7.8125L20.4908 8.88672C22.063 9.36523 22.6978 10.332 22.6978 11.5039C22.6978 13.0664 22.4634 14.9707 22.4634 16.5918C22.4634 18.2812 23.4986 19.3359 25.1197 19.3359Z" fill="var(--color-secondary)"/>
  <path d="M0.285691 10.4102C-0.0854023 10.625-0.104934 11.1426 0.285691 11.3672L5.30522 14.3262C5.71538 14.5703 6.19389 14.375 6.19389 13.9551L6.19389 7.80273C6.19389 7.39258 5.68608 7.20703 5.30522 7.43164Z" fill="var(--color-primary)"/>
 </g>
</svg>
