<svg version="1.1" xmlns="http://www.w3.org/2000/svg" xmlns:xlink="http://www.w3.org/1999/xlink" viewBox="0 0 20.2832 19.9316">
 <g>
  <rect height="19.9316" opacity="0" width="20.2832" x="0" y="0"/>
  <path d="M9.96094 19.9219C15.459 19.9219 19.9219 15.4492 19.9219 9.96094C19.9219 4.46289 15.459 0 9.96094 0C4.47266 0 0 4.46289 0 9.96094C0 15.4492 4.47266 19.9219 9.96094 19.9219Z" fill="var(--color-tertiary)"/>
  <path d="M10.0098 14.7363C7.34375 14.7363 5.6543 12.8516 5.6543 9.87305C5.6543 6.9043 7.34375 5 9.9707 5C11.875 5 13.2129 5.94727 13.7012 7.22656C13.7598 7.39258 13.7988 7.51953 13.7988 7.69531C13.7988 8.125 13.5254 8.39844 13.0957 8.39844C12.7832 8.39844 12.5879 8.24219 12.4219 7.90039C12.002 6.89453 11.1523 6.34766 10 6.34766C8.37891 6.34766 7.29492 7.76367 7.29492 9.87305C7.29492 11.9922 8.38867 13.3984 10.0293 13.3984C11.5625 13.3984 12.3535 12.5977 12.3535 11.4062L12.3535 10.7422L10.4883 10.7422C10.1172 10.7422 9.89258 10.4688 9.89258 10.1562C9.89258 9.81445 10.1172 9.57031 10.4883 9.57031L13.1055 9.57031C13.6426 9.57031 13.9648 9.89258 13.9648 10.4492L13.9648 11.1914C13.9648 13.2812 12.5 14.7363 10.0098 14.7363Z" fill="var(--color-primary)"/>
 </g>
</svg>
