<svg version="1.1" xmlns="http://www.w3.org/2000/svg" xmlns:xlink="http://www.w3.org/1999/xlink" viewBox="0 0 27.3242 21.416">
 <g>
  <rect height="21.416" opacity="0" width="27.3242" x="0" y="0"/>
  <path d="M7.04102 15.4102L8.36914 15.4102C8.7793 15.4102 9.04297 15.1758 9.14062 14.8047L9.53125 13.1934C9.80469 13.0957 10.0684 12.998 10.3027 12.8613L11.7188 13.7402C12.041 13.9355 12.4219 13.9062 12.6953 13.6328L13.6328 12.6855C13.8965 12.4121 13.9453 12.0215 13.7402 11.6895L12.8711 10.3027C12.9883 10.0586 13.1055 9.80469 13.1836 9.54102L14.7949 9.15039C15.1855 9.0625 15.4102 8.78906 15.4102 8.38867L15.4102 7.07031C15.4102 6.67969 15.1855 6.39648 14.7949 6.30859L13.2031 5.9082C13.1055 5.61523 12.9883 5.36133 12.8906 5.14648L13.7402 3.73047C13.9355 3.38867 13.9355 3.02734 13.6523 2.75391L12.6953 1.81641C12.4219 1.5625 12.0605 1.49414 11.7383 1.68945L10.3027 2.57812C10.0781 2.45117 9.81445 2.34375 9.53125 2.25586L9.14062 0.615234C9.04297 0.244141 8.7793 0.00976562 8.36914 0.00976562L7.04102 0.00976562C6.63086 0.00976562 6.35742 0.244141 6.26953 0.615234L5.87891 2.23633C5.60547 2.33398 5.33203 2.43164 5.09766 2.56836L3.67188 1.68945C3.34961 1.49414 2.98828 1.55273 2.71484 1.81641L1.75781 2.75391C1.47461 3.02734 1.47461 3.38867 1.66992 3.73047L2.51953 5.14648C2.42188 5.36133 2.30469 5.61523 2.20703 5.9082L0.605469 6.30859C0.224609 6.39648 0 6.67969 0 7.07031L0 8.38867C0 8.78906 0.224609 9.0625 0.605469 9.15039L2.22656 9.54102C2.30469 9.80469 2.42188 10.0586 2.53906 10.3027L1.66992 11.6895C1.46484 12.0215 1.51367 12.4121 1.77734 12.6855L2.71484 13.6328C2.98828 13.9062 3.36914 13.9355 3.69141 13.7402L5.10742 12.8613C5.3418 12.998 5.60547 13.0957 5.87891 13.1934L6.26953 14.8047C6.35742 15.1758 6.63086 15.4102 7.04102 15.4102ZM7.70508 10.1562C6.34766 10.1562 5.24414 9.0625 5.24414 7.69531C5.24414 6.33789 6.34766 5.24414 7.70508 5.24414C9.0625 5.24414 10.166 6.33789 10.166 7.69531C10.166 9.0625 9.0625 10.1562 7.70508 10.1562ZM19.7949 21.416L20.9082 21.416C21.2695 21.416 21.5137 21.2109 21.582 20.8984L21.9043 19.502C22.1582 19.4043 22.3828 19.3262 22.5879 19.209L23.8086 19.9707C24.082 20.1465 24.4043 20.127 24.6484 19.8828L25.4297 19.0918C25.6738 18.8477 25.7129 18.5059 25.5273 18.2324L24.7754 17.0215C24.8828 16.8164 24.9707 16.5918 25.0488 16.3672L26.4551 16.0352C26.7773 15.9668 26.9629 15.7227 26.9629 15.3711L26.9629 14.2676C26.9629 13.916 26.7773 13.6719 26.4551 13.5938L25.0586 13.2617C24.9707 13.0078 24.8828 12.7832 24.7852 12.5977L25.5273 11.3672C25.7129 11.0742 25.7031 10.7715 25.4492 10.5273L24.6484 9.74609C24.4043 9.52148 24.0918 9.46289 23.8184 9.62891L22.5879 10.4004C22.3926 10.3027 22.1582 10.1953 21.9043 10.127L21.582 8.70117C21.5137 8.38867 21.2695 8.17383 20.9082 8.17383L19.7949 8.17383C19.4434 8.17383 19.1992 8.38867 19.1211 8.70117L18.7891 10.1074C18.5547 10.1953 18.3105 10.2734 18.1055 10.3906L16.875 9.62891C16.6113 9.47266 16.2988 9.51172 16.0547 9.74609L15.2637 10.5273C15.0098 10.7715 15 11.0742 15.1758 11.3672L15.9082 12.5977C15.8203 12.7832 15.7324 13.0078 15.6445 13.2617L14.2578 13.5938C13.9258 13.6719 13.7305 13.916 13.7305 14.2676L13.7305 15.3711C13.7305 15.7227 13.9258 15.9668 14.2578 16.0352L15.6641 16.3672C15.7324 16.5918 15.8203 16.8164 15.9277 17.0215L15.1758 18.2324C14.9902 18.5059 15.0391 18.8477 15.2734 19.0918L16.0547 19.8828C16.2988 20.127 16.6211 20.1465 16.8945 19.9707L18.1152 19.209C18.3203 19.3262 18.5547 19.4043 18.7891 19.502L19.1211 20.8984C19.1992 21.2109 19.4434 21.416 19.7949 21.416ZM20.3516 16.7383C19.2773 16.7383 18.3984 15.8691 18.3984 14.7852C18.3984 13.7109 19.2773 12.832 20.3516 12.832C21.4355 12.832 22.3047 13.7109 22.3047 14.7852C22.3047 15.8691 21.4355 16.7383 20.3516 16.7383Z" fill="var(--color-primary)"/>
 </g>
</svg>
