<?xml version="1.0" encoding="UTF-8"?>
<!--Generator: Apple Native CoreSVG 341-->
<!DOCTYPE svg
PUBLIC "-//W3C//DTD SVG 1.1//EN"
       "http://www.w3.org/Graphics/SVG/1.1/DTD/svg11.dtd">
<svg version="1.1" xmlns="http://www.w3.org/2000/svg" xmlns:xlink="http://www.w3.org/1999/xlink" viewBox="0 0 20.2832 19.9316">
 <g>
  <rect height="19.9316" opacity="0" width="20.2832" x="0" y="0"/>
  <path d="M9.96094 19.9219C15.459 19.9219 19.9219 15.459 19.9219 9.96094C19.9219 4.46289 15.459 0 9.96094 0C4.46289 0 0 4.46289 0 9.96094C0 15.459 4.46289 19.9219 9.96094 19.9219ZM9.96094 18.2617C5.37109 18.2617 1.66016 14.5508 1.66016 9.96094C1.66016 5.37109 5.37109 1.66016 9.96094 1.66016C14.5508 1.66016 18.2617 5.37109 18.2617 9.96094C18.2617 14.5508 14.5508 18.2617 9.96094 18.2617Z" fill="white" fill-opacity="0.85"/>
  <path d="M9.44336 15.6836L10.459 15.6836C10.7422 15.6836 10.9473 15.5078 11.0059 15.2246L11.2988 14.0234C11.5039 13.9551 11.7188 13.8672 11.8945 13.7793L12.9492 14.4238C13.1934 14.5801 13.457 14.5605 13.6523 14.3652L14.3457 13.6621C14.5508 13.4668 14.5801 13.1836 14.4141 12.9395L13.7793 11.8945C13.8672 11.709 13.9453 11.5137 14.0137 11.3086L15.2246 11.0352C15.5078 10.9668 15.6738 10.7617 15.6738 10.4688L15.6738 9.48242C15.6738 9.19922 15.5078 9.00391 15.2246 8.93555L14.0234 8.64258C13.9453 8.41797 13.8574 8.22266 13.7891 8.04688L14.4336 6.99219C14.5801 6.75781 14.5801 6.48438 14.3652 6.2793L13.6523 5.58594C13.457 5.40039 13.2031 5.35156 12.959 5.49805L11.8945 6.15234C11.7188 6.07422 11.5137 5.98633 11.2988 5.91797L11.0059 4.69727C10.9473 4.41406 10.7422 4.24805 10.459 4.24805L9.44336 4.24805C9.16016 4.24805 8.95508 4.41406 8.89648 4.69727L8.60352 5.9082C8.39844 5.97656 8.18359 6.05469 7.99805 6.15234L6.94336 5.49805C6.70898 5.35156 6.45508 5.39062 6.25 5.58594L5.53711 6.2793C5.32227 6.48438 5.32227 6.75781 5.46875 6.99219L6.11328 8.04688C6.04492 8.22266 5.95703 8.41797 5.87891 8.64258L4.67773 8.93555C4.39453 9.00391 4.23828 9.19922 4.23828 9.48242L4.23828 10.4688C4.23828 10.7617 4.39453 10.9668 4.67773 11.0352L5.88867 11.3086C5.95703 11.5137 6.03516 11.709 6.12305 11.8945L5.48828 12.9395C5.32227 13.1836 5.35156 13.4668 5.55664 13.6621L6.25 14.3652C6.45508 14.5605 6.71875 14.5801 6.95312 14.4238L8.00781 13.7793C8.18359 13.8672 8.39844 13.9551 8.60352 14.0234L8.89648 15.2246C8.95508 15.5078 9.16016 15.6836 9.44336 15.6836ZM9.95117 11.8848C8.88672 11.8848 8.01758 11.0156 8.01758 9.95117C8.01758 8.88672 8.88672 8.01758 9.95117 8.01758C11.0156 8.01758 11.8848 8.88672 11.8848 9.95117C11.8848 11.0156 11.0156 11.8848 9.95117 11.8848Z" fill="white" fill-opacity="0.85"/>
 </g>
</svg>
