<?xml version="1.0" encoding="UTF-8"?>
<!--Generator: Apple Native CoreSVG 341-->
<!DOCTYPE svg
PUBLIC "-//W3C//DTD SVG 1.1//EN"
       "http://www.w3.org/Graphics/SVG/1.1/DTD/svg11.dtd">
<svg version="1.1" xmlns="http://www.w3.org/2000/svg" xmlns:xlink="http://www.w3.org/1999/xlink" viewBox="0 0 20.2832 19.9316">
 <g>
  <rect height="19.9316" opacity="0" width="20.2832" x="0" y="0"/>
  <path d="M10.3711 17.7734C11.7773 17.7734 15.3125 13.1055 15.3125 11.3086C15.3125 10.2246 13.0664 8.28125 11.8555 8.28125C11.2988 8.28125 10.5078 8.96484 10.0195 8.96484C9.57031 8.96484 8.28125 7.93945 8.28125 7.56836C8.28125 7.42188 8.51562 7.23633 8.70117 7.23633C8.98438 7.23633 9.99023 8.14453 10.5566 8.14453C11.377 8.14453 11.9141 7.60742 11.9141 6.75781C11.9141 6.46484 11.7969 6.18164 11.543 5.82031C12.627 5.27344 14.5801 4.19922 15.1855 2.86133L14.3066 2.40234C13.7891 3.63281 11.6113 4.6582 10.4883 5.24414C10.2734 5.35156 10.1562 5.5957 10.3516 5.86914C10.752 6.42578 10.9277 6.66992 10.9277 6.88477C10.9277 7.04102 10.8105 7.1582 10.6445 7.1582C10.3223 7.1582 9.25781 6.25 8.70117 6.25C8.04688 6.25 7.29492 6.94336 7.29492 7.56836C7.29492 8.4668 9.10156 9.95117 10.0195 9.95117C10.5664 9.95117 11.543 9.25781 11.8555 9.25781C12.5 9.25781 14.3262 10.791 14.3262 11.3086C14.3262 12.4609 11.1914 16.7871 10.3418 16.7871C10.1172 16.7871 9.83398 16.5723 9.83398 16.3867C9.83398 16.2793 9.86328 16.2012 9.9707 15.8594C10.0684 15.5469 10.2148 15.1172 10.2051 14.6484C10.1953 14.0137 9.67773 13.5645 8.53516 12.7539C8.33008 12.6074 8.11523 12.4609 7.90039 12.2949C7.58789 12.0605 7.46094 11.8555 7.46094 11.6211C7.46094 11.4941 7.49023 11.3574 7.58789 11.0547C7.67578 10.7422 7.73438 10.498 7.73438 10.3223C7.73438 9.88281 7.50977 9.58984 7.04102 9.18945C6.97266 9.14062 6.92383 9.0918 6.86523 9.04297L5.30273 7.64648C3.34961 5.89844 3.35938 4.89258 4.15039 3.59375L3.19336 3.39844C2.38281 4.7168 2.27539 6.29883 4.64844 8.38867L6.20117 9.75586C6.5625 10.0781 6.74805 10.2051 6.74805 10.3516C6.74805 10.5664 6.47461 11.0254 6.47461 11.6211C6.47461 12.1777 6.74805 12.6758 7.30469 13.0859C8.44727 13.9453 9.21875 14.4141 9.21875 14.668C9.22852 15.2637 8.84766 15.752 8.84766 16.4258C8.84766 17.0996 9.6582 17.7734 10.3711 17.7734ZM9.96094 19.9219C15.459 19.9219 19.9219 15.459 19.9219 9.96094C19.9219 4.46289 15.459 0 9.96094 0C4.46289 0 0 4.46289 0 9.96094C0 15.459 4.46289 19.9219 9.96094 19.9219ZM9.96094 18.5938C5.19531 18.5938 1.32812 14.7266 1.32812 9.96094C1.32812 5.19531 5.19531 1.32812 9.96094 1.32812C14.7266 1.32812 18.5938 5.19531 18.5938 9.96094C18.5938 14.7266 14.7266 18.5938 9.96094 18.5938Z" fill="white" fill-opacity="0.85"/>
 </g>
</svg>
