<?xml version="1.0" encoding="UTF-8"?>
<!--Generator: Apple Native CoreSVG 341-->
<!DOCTYPE svg
PUBLIC "-//W3C//DTD SVG 1.1//EN"
       "http://www.w3.org/Graphics/SVG/1.1/DTD/svg11.dtd">
<svg version="1.1" xmlns="http://www.w3.org/2000/svg" xmlns:xlink="http://www.w3.org/1999/xlink" viewBox="0 0 18.3398 17.9785">
 <g>
  <rect height="17.9785" opacity="0" width="18.3398" x="0" y="0"/>
  <path d="M3.06641 17.9785L14.9121 17.9785C16.9629 17.9785 17.9785 16.9727 17.9785 14.9609L17.9785 3.02734C17.9785 1.01562 16.9629 0 14.9121 0L3.06641 0C1.02539 0 0 1.01562 0 3.02734L0 14.9609C0 16.9727 1.02539 17.9785 3.06641 17.9785Z" fill="white" fill-opacity="0.2125"/>
  <path d="M9.02344 14.6094C8.80859 14.6094 8.66211 14.4629 8.66211 14.2676L8.66211 13.4277C6.40625 13.2422 5.10742 11.416 5.10742 8.93555C5.10742 6.5332 6.34766 4.63867 8.66211 4.45312L8.66211 3.63281C8.66211 3.42773 8.80859 3.28125 9.02344 3.28125C9.20898 3.28125 9.35547 3.42773 9.35547 3.63281L9.35547 4.45312C10.6152 4.55078 11.875 5.22461 12.334 6.44531C12.4121 6.62109 12.4219 6.78711 12.4219 6.91406C12.4219 7.22656 12.2168 7.43164 11.9043 7.43164C11.5723 7.43164 11.4453 7.29492 11.3184 6.99219C11.0645 6.15234 10.2734 5.5957 9.35547 5.48828L9.35547 8.74023L12.0117 8.74023C12.3633 8.74023 12.5977 8.98438 12.5977 9.36523L12.5977 9.80469C12.5977 12.002 11.4062 13.3203 9.35547 13.4375L9.35547 14.2676C9.35547 14.4629 9.20898 14.6094 9.02344 14.6094ZM6.34766 8.92578C6.34766 10.6738 7.11914 12.1484 8.66211 12.373L8.66211 5.50781C7.06055 5.71289 6.34766 7.27539 6.34766 8.92578ZM9.35547 12.3828C10.6836 12.2852 11.4453 11.3672 11.4453 10.0586L11.4453 9.7168L9.35547 9.7168Z" fill="white" fill-opacity="0.85"/>
 </g>
</svg>
