<?xml version="1.0" encoding="UTF-8"?>
<!--Generator: Apple Native CoreSVG 341-->
<!DOCTYPE svg
PUBLIC "-//W3C//DTD SVG 1.1//EN"
       "http://www.w3.org/Graphics/SVG/1.1/DTD/svg11.dtd">
<svg version="1.1" xmlns="http://www.w3.org/2000/svg" xmlns:xlink="http://www.w3.org/1999/xlink" viewBox="0 0 24.0651 19.9316">
 <g>
  <rect height="19.9316" opacity="0" width="24.0651" x="0" y="0"/>
  <path d="M0.694677 8.07617C-0.00844799 8.07617-0.184229 8.55469 0.19663 9.10156L2.38413 12.207C2.7064 12.6562 3.17515 12.6465 3.48765 12.207L5.66538 9.0918C6.04624 8.55469 5.86069 8.07617 5.1771 8.07617ZM21.8177 9.96094C21.8177 4.46289 17.3548 0 11.8568 0C6.35874 0 1.90561 4.45312 1.89585 9.9707C1.90561 10.4297 2.26694 10.791 2.71616 10.791C3.17515 10.791 3.55601 10.4199 3.55601 9.96094C3.55601 5.37109 7.26694 1.66016 11.8568 1.66016C16.4466 1.66016 20.1576 5.37109 20.1576 9.96094C20.1576 14.5508 16.4466 18.2617 11.8568 18.2617C9.07358 18.2617 6.62241 16.8945 5.13804 14.8242C4.8353 14.4238 4.37632 14.2969 3.96616 14.541C3.57554 14.7852 3.45835 15.3418 3.79038 15.7715C5.60679 18.291 8.50718 19.9219 11.8568 19.9219C17.3548 19.9219 21.8177 15.459 21.8177 9.96094Z" fill="white" fill-opacity="0.85"/>
  <path d="M11.9154 14.2773C14.0833 14.2773 15.3431 12.9785 15.3431 10.752L15.3431 10.332C15.3431 9.96094 15.1185 9.72656 14.7767 9.72656L12.1107 9.72656L12.1107 10.6641L14.2298 10.6641L14.2298 10.9961C14.2298 12.3633 13.39 13.2715 11.9251 13.2715C10.1576 13.2715 9.28843 11.7383 9.28843 9.90234C9.28843 8.17383 10.0794 6.55273 11.9056 6.55273C12.9017 6.55273 13.8294 7.11914 14.1126 8.02734C14.2201 8.32031 14.3568 8.45703 14.6693 8.45703C14.972 8.45703 15.1771 8.25195 15.1771 7.94922C15.1771 7.83203 15.1673 7.66602 15.0892 7.5C14.6107 6.2207 13.2142 5.55664 11.9056 5.55664C9.41538 5.55664 8.08726 7.46094 8.08726 9.91211C8.08726 12.4512 9.49351 14.2773 11.9154 14.2773ZM11.8666 15.4102C12.0619 15.4102 12.1986 15.2734 12.1986 15.0781L12.1986 4.77539C12.1986 4.57031 12.0619 4.43359 11.8666 4.43359C11.6712 4.43359 11.5345 4.57031 11.5345 4.77539L11.5345 15.0781C11.5345 15.2734 11.6712 15.4102 11.8666 15.4102Z" fill="white" fill-opacity="0.85"/>
 </g>
</svg>
