<?xml version="1.0" encoding="UTF-8"?>
<!--Generator: Apple Native CoreSVG 341-->
<!DOCTYPE svg
PUBLIC "-//W3C//DTD SVG 1.1//EN"
       "http://www.w3.org/Graphics/SVG/1.1/DTD/svg11.dtd">
<svg version="1.1" xmlns="http://www.w3.org/2000/svg" xmlns:xlink="http://www.w3.org/1999/xlink" viewBox="0 0 23.8867 19.5996">
 <g>
  <rect height="19.5996" opacity="0" width="23.8867" x="0" y="0"/>
  <path d="M23.5254 11.7578C23.5254 8.88672 22.4902 6.24023 20.7617 4.18945C20.5664 3.95508 20.2344 3.95508 20.0195 4.17969L17.7539 6.44531C17.5684 6.63086 17.5586 6.89453 17.7246 7.09961C18.7305 8.38867 19.3359 10.0098 19.3359 11.7578C19.3359 13.5156 18.7305 15.1367 17.666 16.4941C17.5293 16.6602 17.5391 16.875 17.6855 17.0312L20.0098 19.3555C20.2344 19.5801 20.5566 19.5801 20.7617 19.3359C22.4902 17.2852 23.5254 14.6387 23.5254 11.7578Z" fill="white" fill-opacity="0.425"/>
  <path d="M11.7578 4.18945C13.5254 4.18945 15.1465 4.80469 16.4453 5.81055C16.6406 5.9668 16.8945 5.94727 17.0801 5.76172L19.3457 3.49609C19.5703 3.27148 19.5605 2.94922 19.3262 2.75391C17.2852 1.03516 14.6387 0 11.7578 0C8.88672 0 6.24023 1.03516 4.19922 2.75391C3.96484 2.94922 3.95508 3.27148 4.17969 3.49609L6.44531 5.76172C6.63086 5.94727 6.89453 5.9668 7.10938 5.80078C8.39844 4.80469 10.0098 4.18945 11.7578 4.18945Z" fill="white" fill-opacity="0.425"/>
  <path d="M0 11.7578C0 14.6387 1.03516 17.2852 2.76367 19.3359C2.95898 19.5801 3.29102 19.5801 3.50586 19.3555L5.83008 17.0312C5.97656 16.875 5.99609 16.6602 5.85938 16.4941C4.79492 15.1367 4.18945 13.5156 4.18945 11.7578C4.18945 10.0098 4.78516 8.38867 5.80078 7.09961C5.95703 6.89453 5.95703 6.63086 5.77148 6.44531L3.50586 4.17969C3.28125 3.95508 2.95898 3.95508 2.76367 4.18945C1.03516 6.24023 0 8.88672 0 11.7578Z" fill="white" fill-opacity="0.425"/>
  <path d="M11.8066 16.2109C13.9746 16.2109 15.2441 14.9023 15.2441 12.6758L15.2441 12.2559C15.2441 11.8848 15.0098 11.6602 14.668 11.6602L12.002 11.6602L12.002 12.5879L14.1211 12.5879L14.1211 12.9297C14.1211 14.2871 13.2812 15.2051 11.8164 15.2051C10.0488 15.2051 9.17969 13.6621 9.17969 11.8262C9.17969 10.0977 9.9707 8.48633 11.7969 8.48633C12.793 8.48633 13.7207 9.05273 14.0039 9.96094C14.1211 10.2539 14.248 10.3809 14.5605 10.3809C14.8633 10.3809 15.0684 10.1855 15.0684 9.88281C15.0684 9.75586 15.0586 9.59961 14.9805 9.42383C14.502 8.14453 13.1152 7.48047 11.7969 7.48047C9.30664 7.48047 7.98828 9.39453 7.98828 11.8359C7.98828 14.375 9.38477 16.2109 11.8066 16.2109ZM11.7676 17.334C11.9531 17.334 12.0898 17.1973 12.0898 17.0117L12.0898 6.69922C12.0898 6.49414 11.9531 6.36719 11.7676 6.36719C11.5625 6.36719 11.4355 6.49414 11.4355 6.69922L11.4355 17.0117C11.4355 17.1973 11.5625 17.334 11.7676 17.334Z" fill="white" fill-opacity="0.85"/>
 </g>
</svg>
