<svg version="1.1" xmlns="http://www.w3.org/2000/svg" xmlns:xlink="http://www.w3.org/1999/xlink" viewBox="0 0 20.2832 19.9316">
 <g>
  <rect height="19.9316" opacity="0" width="20.2832" x="0" y="0"/>
  <path d="M9.96094 19.9219C15.459 19.9219 19.9219 15.4492 19.9219 9.96094C19.9219 4.46289 15.459 0 9.96094 0C4.47266 0 0 4.46289 0 9.96094C0 15.4492 4.47266 19.9219 9.96094 19.9219Z" fill="var(--color-tertiary)"/>
  <path d="M9.98047 15.5859C9.77539 15.5859 9.62891 15.4395 9.62891 15.2441L9.62891 14.4043C7.37305 14.2188 6.07422 12.3926 6.07422 9.91211C6.07422 7.50977 7.31445 5.61523 9.62891 5.42969L9.62891 4.60938C9.62891 4.4043 9.77539 4.25781 9.98047 4.25781C10.1758 4.25781 10.3223 4.4043 10.3223 4.60938L10.3223 5.42969C11.582 5.52734 12.8418 6.20117 13.3008 7.42188C13.3789 7.59766 13.3887 7.76367 13.3887 7.89062C13.3887 8.20312 13.1836 8.4082 12.8711 8.4082C12.5391 8.4082 12.4023 8.27148 12.2852 7.96875C12.0312 7.12891 11.2402 6.57227 10.3223 6.46484L10.3223 9.7168L12.9785 9.7168C13.3301 9.7168 13.5645 9.96094 13.5645 10.3418L13.5645 10.7812C13.5645 12.9785 12.373 14.2969 10.3223 14.4141L10.3223 15.2441C10.3223 15.4395 10.1758 15.5859 9.98047 15.5859ZM7.31445 9.90234C7.31445 11.6504 8.08594 13.125 9.62891 13.3496L9.62891 6.48438C8.01758 6.68945 7.31445 8.25195 7.31445 9.90234ZM10.3223 13.3594C11.6504 13.2617 12.4121 12.3438 12.4121 11.0352L12.4121 10.6934L10.3223 10.6934Z" fill="var(--color-primary)"/>
 </g>
</svg>
