<?xml version="1.0" encoding="UTF-8"?>
<!--Generator: Apple Native CoreSVG 341-->
<!DOCTYPE svg
PUBLIC "-//W3C//DTD SVG 1.1//EN"
       "http://www.w3.org/Graphics/SVG/1.1/DTD/svg11.dtd">
<svg version="1.1" xmlns="http://www.w3.org/2000/svg" xmlns:xlink="http://www.w3.org/1999/xlink" viewBox="0 0 20.2832 19.9316">
 <g>
  <rect height="19.9316" opacity="0" width="20.2832" x="0" y="0"/>
  <path d="M9.96094 19.9219C15.459 19.9219 19.9219 15.459 19.9219 9.96094C19.9219 4.46289 15.459 0 9.96094 0C4.46289 0 0 4.46289 0 9.96094C0 15.459 4.46289 19.9219 9.96094 19.9219ZM9.96094 18.2617C5.37109 18.2617 1.66016 14.5508 1.66016 9.96094C1.66016 5.37109 5.37109 1.66016 9.96094 1.66016C14.5508 1.66016 18.2617 5.37109 18.2617 9.96094C18.2617 14.5508 14.5508 18.2617 9.96094 18.2617Z" fill="white" fill-opacity="0.85"/>
  <path d="M6.86523 14.4336C7.37305 14.4336 7.65625 14.1113 7.65625 13.5645L7.65625 10.3418L12.2266 10.3418L12.2266 13.5645C12.2266 14.1016 12.5195 14.4336 12.998 14.4336C13.5059 14.4336 13.7891 14.1113 13.7891 13.5645L13.7891 6.17188C13.7891 5.625 13.5059 5.30273 12.998 5.30273C12.5195 5.30273 12.2266 5.63477 12.2266 6.17188L12.2266 9.12109L7.65625 9.12109L7.65625 6.17188C7.65625 5.625 7.37305 5.30273 6.86523 5.30273C6.38672 5.30273 6.10352 5.63477 6.10352 6.17188L6.10352 13.5645C6.10352 14.1016 6.38672 14.4336 6.86523 14.4336Z" fill="white" fill-opacity="0.85"/>
 </g>
</svg>
