<?xml version="1.0" encoding="UTF-8"?>
<!--Generator: Apple Native CoreSVG 341-->
<!DOCTYPE svg
PUBLIC "-//W3C//DTD SVG 1.1//EN"
       "http://www.w3.org/Graphics/SVG/1.1/DTD/svg11.dtd">
<svg version="1.1" xmlns="http://www.w3.org/2000/svg" xmlns:xlink="http://www.w3.org/1999/xlink" viewBox="0 0 18.3398 17.9785">
 <g>
  <rect height="17.9785" opacity="0" width="18.3398" x="0" y="0"/>
  <path d="M3.06641 17.9785L14.9121 17.9785C16.9629 17.9785 17.9785 16.9727 17.9785 14.9609L17.9785 3.02734C17.9785 1.01562 16.9629 0 14.9121 0L3.06641 0C1.02539 0 0 1.01562 0 3.02734L0 14.9609C0 16.9727 1.02539 17.9785 3.06641 17.9785ZM3.08594 16.4062C2.10938 16.4062 1.57227 15.8887 1.57227 14.873L1.57227 3.11523C1.57227 2.09961 2.10938 1.57227 3.08594 1.57227L14.8926 1.57227C15.8594 1.57227 16.4062 2.09961 16.4062 3.11523L16.4062 14.873C16.4062 15.8887 15.8594 16.4062 14.8926 16.4062Z" fill="white" fill-opacity="0.85"/>
  <path d="M5.9082 13.457C6.41602 13.457 6.69922 13.1348 6.69922 12.5879L6.69922 9.36523L11.2695 9.36523L11.2695 12.5879C11.2695 13.125 11.5625 13.457 12.041 13.457C12.5488 13.457 12.832 13.1348 12.832 12.5879L12.832 5.19531C12.832 4.64844 12.5488 4.32617 12.041 4.32617C11.5625 4.32617 11.2695 4.6582 11.2695 5.19531L11.2695 8.14453L6.69922 8.14453L6.69922 5.19531C6.69922 4.64844 6.41602 4.32617 5.9082 4.32617C5.42969 4.32617 5.14648 4.6582 5.14648 5.19531L5.14648 12.5879C5.14648 13.125 5.42969 13.457 5.9082 13.457Z" fill="white" fill-opacity="0.85"/>
 </g>
</svg>
