<?xml version="1.0" encoding="UTF-8"?>
<!--Generator: Apple Native CoreSVG 341-->
<!DOCTYPE svg
PUBLIC "-//W3C//DTD SVG 1.1//EN"
       "http://www.w3.org/Graphics/SVG/1.1/DTD/svg11.dtd">
<svg version="1.1" xmlns="http://www.w3.org/2000/svg" xmlns:xlink="http://www.w3.org/1999/xlink" viewBox="0 0 24.132 22.5342">
 <g>
  <rect height="22.5342" opacity="0" width="24.132" x="0" y="0"/>
  <path d="M20.108 11.2329C20.44 11.565 20.8306 11.5943 21.1627 11.2622L23.5552 8.87942C23.858 8.56692 23.8384 8.15676 23.5064 7.8345L22.9205 7.25833C22.6275 6.94583 22.4224 6.90676 22.1002 6.93606L21.1627 7.03372L20.5572 6.44778L20.8306 5.32473C20.9771 4.76809 20.7623 4.19192 20.1763 3.60598L18.233 1.68215C16.2603-0.25144 11.8072-0.134253 10.0201 1.85793C9.65875 2.25833 9.71734 2.66848 9.95172 2.93215C10.1275 3.13723 10.4498 3.25442 10.7134 3.12747C12.1295 2.4634 13.6627 2.23879 14.9517 2.81497L14.1509 4.86575C13.8873 5.54934 14.024 6.02786 14.4634 6.46731L16.2408 8.24465C16.563 8.55715 16.9048 8.65481 17.4224 8.54739L18.7017 8.29348L19.2974 8.89895L19.2095 9.81692C19.1705 10.1782 19.2095 10.3736 19.522 10.6763ZM0.566952 20.94L1.58258 21.9654C2.40289 22.7857 3.41851 22.7173 4.24859 21.77L15.4107 9.0259C15.3521 8.97708 15.3033 8.92825 15.2545 8.87942L13.692 7.31692C13.6431 7.25833 13.5845 7.19973 13.5259 7.1509L0.781796 18.2935C-0.185001 19.1236-0.25336 20.1294 0.566952 20.94Z" fill="white" fill-opacity="0.85"/>
 </g>
</svg>
