<?xml version="1.0" encoding="UTF-8"?>
<!--Generator: Apple Native CoreSVG 341-->
<!DOCTYPE svg
PUBLIC "-//W3C//DTD SVG 1.1//EN"
       "http://www.w3.org/Graphics/SVG/1.1/DTD/svg11.dtd">
<svg version="1.1" xmlns="http://www.w3.org/2000/svg" xmlns:xlink="http://www.w3.org/1999/xlink" viewBox="0 0 23.9746 27.7637">
 <g>
  <rect height="27.7637" opacity="0" width="23.9746" x="0" y="0"/>
  <path d="M3.2959 20.6543C3.69629 22.5586 3.64746 22.5977 5.64941 22.998C5.78613 23.0273 5.87402 23.0957 5.87402 23.2422C5.87402 23.3887 5.78613 23.457 5.64941 23.4961C3.64746 23.877 3.65723 23.916 3.2959 25.8301C3.27637 25.9668 3.19824 26.0547 3.06152 26.0547C2.9248 26.0547 2.84668 25.9668 2.81738 25.8301C2.45605 23.916 2.48535 23.8867 0.473633 23.4961C0.336914 23.457 0.249023 23.3887 0.249023 23.2422C0.249023 23.0957 0.336914 23.0273 0.473633 22.998C2.48535 22.5977 2.41699 22.5586 2.81738 20.6543C2.84668 20.5176 2.9248 20.4297 3.06152 20.4297C3.19824 20.4297 3.27637 20.5176 3.2959 20.6543ZM15.2002 0.634766C15.4834 2.92969 15.6104 2.91992 17.9736 3.36914C18.1201 3.39844 18.2275 3.49609 18.2275 3.65234C18.2275 3.81836 18.1201 3.91602 17.9346 3.93555C15.5908 4.32617 15.4834 4.38477 15.2002 6.67969C15.1904 6.85547 15.0732 6.96289 14.9072 6.96289C14.7607 6.96289 14.6436 6.85547 14.6338 6.69922C14.3213 4.39453 14.2529 4.4043 11.8604 3.93555C11.7139 3.91602 11.6064 3.80859 11.6064 3.65234C11.6064 3.49609 11.7139 3.38867 11.8604 3.36914C14.2529 3.02734 14.3311 2.95898 14.6338 0.625C14.6436 0.458984 14.7607 0.351562 14.9072 0.351562C15.0732 0.351562 15.1904 0.458984 15.2002 0.634766ZM8.59863 0.195312C8.91113 1.63086 8.8623 1.64062 10.3369 1.93359C10.4639 1.96289 10.542 2.04102 10.542 2.16797C10.542 2.28516 10.4639 2.36328 10.3369 2.39258C8.8623 2.66602 8.8623 2.67578 8.59863 4.14062C8.56934 4.26758 8.49121 4.32617 8.37402 4.32617C8.25684 4.32617 8.16895 4.25781 8.14941 4.14062C7.87598 2.67578 7.88574 2.68555 6.41113 2.39258C6.27441 2.36328 6.20605 2.27539 6.20605 2.16797C6.20605 2.05078 6.27441 1.96289 6.41113 1.93359C7.88574 1.64062 7.83691 1.63086 8.14941 0.195312C8.16895 0.078125 8.25684 0 8.37402 0C8.50098 0 8.56934 0.0683594 8.59863 0.195312Z" fill="white" fill-opacity="0.425"/>
  <path d="M19.3506 8.7207C19.6826 9.04297 20.1611 10.0391 20.5615 10.8008C21.5576 12.6562 22.3779 14.2969 22.8662 15.8398C23.8037 18.5938 23.3545 20.8789 21.1572 23.0859C20.0224 24.2207 18.7013 24.9168 17.3249 25.1159C17.7824 24.8036 18.2216 24.4383 18.6377 24.0234C21.2061 21.4453 21.7334 18.6523 20.6787 15.4688C20.1514 13.8086 19.292 12.0605 18.2764 10.1855C18.1139 9.87074 17.9491 9.54304 17.7818 9.22918C17.833 9.05487 17.9284 8.90267 18.0713 8.75977C18.4619 8.36914 18.9795 8.34961 19.3506 8.7207ZM11.2256 6.97266L13.0547 8.80667C12.9515 9.14845 12.9281 9.53464 12.9932 9.98047L13.2471 10.5859L9.69021 7.02908C9.70574 7.00942 9.72308 6.99079 9.74121 6.97266C10.1416 6.57227 10.8154 6.57227 11.2256 6.97266Z" fill="white" fill-opacity="0.85"/>
  <path d="M8.11035 22.9688C11.167 26.0059 14.9561 25.8105 17.6904 23.0859C19.8877 20.8789 20.3271 18.5938 19.3994 15.8398C18.9111 14.2969 18.0908 12.6562 17.0947 10.8008C16.6943 10.0391 16.2158 9.04297 15.8838 8.7207C15.5029 8.34961 14.9951 8.36914 14.5947 8.75977C14.1553 9.19922 14.1748 9.72656 14.5068 10.7031L15.5713 13.6816C15.6885 13.9941 15.6689 14.1895 15.5518 14.3066C15.415 14.4434 15.2295 14.4629 14.9854 14.2188L7.74902 6.97266C7.33887 6.57227 6.6748 6.57227 6.27441 6.97266C5.86426 7.38281 5.86426 8.04688 6.27441 8.45703L11.4404 13.6328C11.1963 13.75 10.9229 13.9062 10.6689 14.082L4.65332 8.07617C4.25293 7.66602 3.5791 7.66602 3.16895 8.07617C2.76855 8.48633 2.76855 9.15039 3.16895 9.56055L9.10645 15.4883C8.90137 15.7227 8.71582 15.9766 8.54004 16.2207L3.11035 10.791C2.7002 10.3809 2.03613 10.3809 1.62598 10.791C1.22559 11.2012 1.22559 11.8652 1.62598 12.2754L7.53418 18.1738C7.40723 18.5059 7.3291 18.8379 7.26074 19.1504L3.15918 15.0488C2.75879 14.6387 2.09473 14.6387 1.6748 15.0488C1.27441 15.459 1.27441 16.1133 1.6748 16.5234Z" fill="white" fill-opacity="0.85"/>
 </g>
</svg>
