<?xml version="1.0" encoding="UTF-8"?>
<!--Generator: Apple Native CoreSVG 341-->
<!DOCTYPE svg
PUBLIC "-//W3C//DTD SVG 1.1//EN"
       "http://www.w3.org/Graphics/SVG/1.1/DTD/svg11.dtd">
<svg version="1.1" xmlns="http://www.w3.org/2000/svg" xmlns:xlink="http://www.w3.org/1999/xlink" viewBox="0 0 19.1478 19.0876">
 <g>
  <rect height="19.0876" opacity="0" width="19.1478" x="0" y="0"/>
  <path d="M16.6149 16.9315C19.0466 14.5096 19.4372 11.4823 17.777 7.96667L15.57 3.33776C15.4235 3.0155 15.238 2.75182 15.0231 2.54675C14.2907 1.81432 13.2263 1.85339 12.5134 2.55651C12.0446 3.03503 11.8981 3.74792 12.2106 4.52917L12.8649 6.0819C12.8845 6.12097 12.8747 6.16003 12.8552 6.18932C12.8161 6.22839 12.777 6.20886 12.738 6.16979L7.20087 0.64245C6.40009-0.168097 5.38447-0.177863 4.61298 0.603387C4.32978 0.876825 4.17353 1.23815 4.154 1.61901C3.36298 0.994012 2.47431 1.01354 1.78095 1.7069C1.11689 2.37097 1.09736 3.28893 1.68329 4.06042C1.32197 4.07018 0.989935 4.22643 0.736029 4.48034C0.0231381 5.18347 0.0426694 6.16979 0.814154 6.93151L1.57587 7.703C1.20478 7.69323 0.814154 7.86901 0.511419 8.16198C-0.201471 8.88464-0.172174 9.91003 0.618841 10.6815L6.54658 16.619C9.779 19.8514 13.695 19.8612 16.6149 16.9315ZM15.6286 16.0038C13.1872 18.4452 10.1208 18.3768 7.34736 15.5936L1.6247 9.87097C1.32197 9.578 1.30243 9.17761 1.5954 8.8944C1.87861 8.6112 2.28876 8.6112 2.5915 8.90417L6.11689 12.4296C6.37079 12.6835 6.74189 12.6542 6.9665 12.4296C7.20087 12.1952 7.2497 11.8143 6.99579 11.5507L1.72236 6.27722C1.41962 5.98425 1.40009 5.59362 1.69306 5.31042C1.9665 5.01745 2.37665 5.02722 2.67939 5.31042L7.60126 10.2421C7.85517 10.496 8.22626 10.4569 8.46064 10.2323C8.69501 9.99792 8.73408 9.61706 8.48017 9.36315L2.70868 3.5819C2.40595 3.28893 2.39618 2.87878 2.67939 2.59557C2.95283 2.31237 3.36298 2.32214 3.66572 2.61511L9.44697 8.40612C9.69111 8.63073 10.0622 8.63073 10.2966 8.38659C10.5407 8.16198 10.57 7.76159 10.3259 7.52722L5.39423 2.59557C5.10126 2.30261 5.0915 1.90222 5.38447 1.61901C5.66767 1.32604 6.06806 1.33581 6.35126 1.62878L13.1579 8.42565C13.4997 8.77722 13.9099 8.77722 14.1931 8.48425C14.4372 8.24011 14.5446 7.91784 14.3493 7.41003L13.1286 4.19714C12.9626 3.76745 13.1091 3.41589 13.4509 3.25964C13.822 3.08386 14.154 3.2694 14.3688 3.71862L16.6345 8.51354C18.1384 11.7167 17.5524 14.0799 15.6286 16.0038Z" fill="white" fill-opacity="0.85"/>
 </g>
</svg>
