<?xml version="1.0" encoding="UTF-8"?>
<!--Generator: Apple Native CoreSVG 341-->
<!DOCTYPE svg
PUBLIC "-//W3C//DTD SVG 1.1//EN"
       "http://www.w3.org/Graphics/SVG/1.1/DTD/svg11.dtd">
<svg version="1.1" xmlns="http://www.w3.org/2000/svg" xmlns:xlink="http://www.w3.org/1999/xlink" viewBox="0 0 20.2539 21.8066">
 <g>
  <rect height="21.8066" opacity="0" width="20.2539" x="0" y="0"/>
  <path d="M0 14.3848C0 17.5391 2.06055 20.1953 4.55078 20.1953L7.66602 20.1953C8.90625 20.8496 10.4102 21.2305 12.0898 21.2305L13.3984 21.2305C14.5703 21.2305 15.5859 21.1621 16.2598 20.9961C17.5684 20.6738 18.3887 19.7656 18.3887 18.6133C18.3887 18.3691 18.3496 18.1543 18.291 17.9395C18.9355 17.4512 19.2969 16.7383 19.2969 15.957C19.2969 15.5762 19.2188 15.1953 19.082 14.8926C19.5215 14.4434 19.7656 13.7891 19.7656 13.1055C19.7656 12.666 19.6582 12.1973 19.4727 11.8555C19.7363 11.4746 19.8926 10.9375 19.8926 10.3711C19.8926 8.96484 18.7891 7.85156 17.3828 7.85156L13.8184 7.85156C13.6035 7.85156 13.4668 7.75391 13.4668 7.56836C13.4668 6.55273 15.0684 4.16992 15.0684 2.25586C15.0684 0.9375 14.1504 0 12.8906 0C11.9629 0 11.3379 0.478516 10.7227 1.65039C9.58008 3.84766 8.21289 5.82031 5.98633 8.53516L4.19922 8.53516C1.875 8.53516 0 11.1621 0 14.3848ZM5.49805 14.3359C5.49805 12.2949 5.95703 10.9961 7.22656 9.28711C8.64258 7.39258 10.6055 5.12695 12.0215 2.31445C12.373 1.60156 12.6074 1.44531 12.9492 1.44531C13.3496 1.44531 13.623 1.72852 13.623 2.25586C13.623 3.7793 12.0215 6.08398 12.0215 7.56836C12.0215 8.64258 12.9004 9.29688 14.0234 9.29688L17.3828 9.29688C17.9883 9.29688 18.4473 9.75586 18.4473 10.3711C18.4473 10.8203 18.3008 11.1035 17.9395 11.4746C17.7637 11.6309 17.7441 11.8262 17.8906 12.0117C18.1934 12.4609 18.3203 12.7344 18.3203 13.1055C18.3203 13.5449 18.1152 13.9258 17.6855 14.248C17.4512 14.4336 17.3535 14.6777 17.4902 14.9707C17.7344 15.4102 17.8516 15.6152 17.8516 15.957C17.8516 16.4551 17.5293 16.8359 16.8457 17.1875C16.6309 17.3145 16.582 17.4902 16.6699 17.6953C16.9043 18.2812 16.9336 18.3691 16.9336 18.6133C16.9336 19.0625 16.6016 19.4238 15.918 19.5996C15.3613 19.7363 14.4727 19.7949 13.4082 19.7949L12.1973 19.7949C8.17383 19.7949 5.49805 17.5098 5.49805 14.3359ZM1.44531 14.3848C1.44531 11.9531 2.75391 9.98047 4.19922 9.98047C4.48242 9.98047 4.76562 9.98047 5.04883 9.98047C4.35547 11.2891 4.05273 12.6562 4.05273 14.3066C4.05273 16.0547 4.67773 17.5781 5.80078 18.7402C5.38086 18.7402 4.9707 18.7402 4.55078 18.7402C2.90039 18.7402 1.44531 16.748 1.44531 14.3848Z" fill="white" fill-opacity="0.85"/>
 </g>
</svg>
