<?xml version="1.0" encoding="UTF-8"?>
<!--Generator: Apple Native CoreSVG 341-->
<!DOCTYPE svg
PUBLIC "-//W3C//DTD SVG 1.1//EN"
       "http://www.w3.org/Graphics/SVG/1.1/DTD/svg11.dtd">
<svg version="1.1" xmlns="http://www.w3.org/2000/svg" xmlns:xlink="http://www.w3.org/1999/xlink" viewBox="0 0 18.3398 17.9785">
 <g>
  <rect height="17.9785" opacity="0" width="18.3398" x="0" y="0"/>
  <path d="M3.06641 17.9785L14.9121 17.9785C16.9629 17.9785 17.9785 16.9727 17.9785 14.9609L17.9785 3.02734C17.9785 1.01562 16.9629 0 14.9121 0L3.06641 0C1.02539 0 0 1.01562 0 3.02734L0 14.9609C0 16.9727 1.02539 17.9785 3.06641 17.9785Z" fill="white" fill-opacity="0.2125"/>
  <path d="M4.85352 10.8887L4.85352 5.44922C4.85352 5.09766 5.14648 4.79492 5.51758 4.79492C5.85938 4.79492 6.16211 5.09766 6.16211 5.44922L6.16211 8.86719C6.30859 8.7793 6.45508 8.68164 6.64062 8.60352L6.64062 3.61328C6.64062 3.26172 6.93359 2.97852 7.28516 2.97852C7.63672 2.97852 7.93945 3.26172 7.93945 3.61328L7.93945 8.18359C8.10547 8.1543 8.27148 8.13477 8.44727 8.11523L8.44727 3.11523C8.44727 2.77344 8.73047 2.4707 9.0918 2.4707C9.45312 2.4707 9.73633 2.77344 9.73633 3.11523L9.73633 8.17383C9.90234 8.22266 10.0684 8.28125 10.2246 8.32031L10.2246 3.96484C10.2246 3.61328 10.5078 3.32031 10.8691 3.32031C11.2109 3.32031 11.5039 3.61328 11.5039 3.96484L11.5039 10.0977C11.5039 10.2734 11.5723 10.3516 11.6992 10.3516C11.7871 10.3516 11.875 10.293 11.9434 10.1074L12.7637 8.38867C13.0371 7.83203 13.252 7.59766 13.6426 7.59766C13.9844 7.59766 14.2285 7.82227 14.2285 8.14453C14.2285 8.41797 14.0039 9.0332 13.8477 9.53125C13.4863 10.7324 13.1445 11.7676 12.6953 12.6367C11.8848 14.2969 10.6641 15.0098 8.88672 15.0098C6.51367 15.0098 4.85352 13.4375 4.85352 10.8887Z" fill="white" fill-opacity="0.85"/>
 </g>
</svg>
