<?xml version="1.0" encoding="UTF-8"?>
<!--Generator: Apple Native CoreSVG 341-->
<!DOCTYPE svg
PUBLIC "-//W3C//DTD SVG 1.1//EN"
       "http://www.w3.org/Graphics/SVG/1.1/DTD/svg11.dtd">
<svg version="1.1" xmlns="http://www.w3.org/2000/svg" xmlns:xlink="http://www.w3.org/1999/xlink" viewBox="0 0 22.8027 26.7676">
 <g>
  <rect height="26.7676" opacity="0" width="22.8027" x="0" y="0"/>
  <path d="M4.375 8.75977C4.375 8.4082 4.08203 8.125 3.73047 8.125L0.644531 8.125C0.283203 8.125 0 8.4082 0 8.75977C0 9.11133 0.283203 9.4043 0.644531 9.4043L3.73047 9.4043C4.08203 9.4043 4.375 9.11133 4.375 8.75977ZM5.63477 5.67383C5.87891 5.41992 5.88867 5.00977 5.63477 4.76562L3.45703 2.55859C3.20312 2.31445 2.80273 2.32422 2.54883 2.55859C2.30469 2.82227 2.29492 3.22266 2.54883 3.4668L4.72656 5.67383C4.99023 5.91797 5.38086 5.9082 5.63477 5.67383ZM8.76953 4.375C9.12109 4.375 9.4043 4.08203 9.4043 3.73047L9.41406 0.634766C9.41406 0.283203 9.12109 0 8.76953 0C8.41797 0 8.13477 0.283203 8.13477 0.634766L8.125 3.73047C8.125 4.08203 8.41797 4.375 8.76953 4.375ZM11.9043 5.67383C12.1582 5.9082 12.5488 5.91797 12.8027 5.67383L14.9902 3.47656C15.2441 3.23242 15.2344 2.82227 14.9902 2.56836C14.7363 2.33398 14.3359 2.32422 14.082 2.56836L11.9043 4.76562C11.6504 5.00977 11.6602 5.41992 11.9043 5.67383Z" fill="white" fill-opacity="0.425"/>
  <path d="M17.8906 24.9902C21.7676 23.584 23.418 20.0195 21.8652 15.7324L21.1328 13.7207C20.3613 11.6113 18.9062 10.7422 17.1973 11.3379C16.748 10.7422 16.0352 10.5371 15.2734 10.8105C14.9902 10.918 14.7461 11.0547 14.5117 11.2402C14.0137 10.5859 13.2422 10.3516 12.4414 10.6445C12.2266 10.7227 12.0215 10.8398 11.8262 10.9766L10.7129 7.92969C10.293 6.76758 9.24805 6.2793 8.1543 6.66992C7.06055 7.07031 6.57227 8.11523 6.99219 9.27734L9.78516 16.9336C9.79492 16.9824 9.78516 17.0215 9.73633 17.041C9.69727 17.0508 9.66797 17.041 9.63867 17.002L8.49609 15.7617C7.91992 15.1562 7.25586 14.9805 6.5918 15.2148C5.70312 15.5273 5.11719 16.3867 5.48828 17.3926C5.58594 17.6758 5.79102 18.0176 6.00586 18.291L9.27734 22.2461C11.7578 25.2441 14.6484 26.1719 17.8906 24.9902ZM17.4707 23.7109C14.9121 24.6484 12.5098 24.1699 10.2539 21.4453L6.98242 17.5098C6.88477 17.3926 6.81641 17.2852 6.75781 17.1191C6.64062 16.7969 6.77734 16.4453 7.1582 16.3086C7.46094 16.2012 7.70508 16.3184 7.94922 16.582L10.2148 18.9062C10.5957 19.2969 10.9277 19.3359 11.25 19.2285C11.6309 19.082 11.7969 18.6816 11.6504 18.2617L8.18359 8.75C8.03711 8.35938 8.20312 7.99805 8.59375 7.85156C8.96484 7.71484 9.32617 7.89062 9.46289 8.29102L11.9336 15.0781C12.0605 15.4004 12.4121 15.5371 12.7344 15.4199C13.0469 15.3125 13.2227 14.9707 13.1055 14.6484L12.207 12.207C12.3438 12.0801 12.5293 11.9434 12.7148 11.8945C13.1738 11.7188 13.5547 11.9141 13.7305 12.4023L14.502 14.5312C14.6289 14.873 14.9902 15 15.3027 14.8926C15.6152 14.7754 15.8008 14.4531 15.6738 14.1113L15.0391 12.373C15.166 12.2461 15.3613 12.1191 15.5371 12.0508C16.0059 11.8848 16.3867 12.0801 16.5625 12.5586L17.0898 14.0039C17.207 14.3359 17.5684 14.4629 17.8809 14.3457C18.1836 14.2383 18.3691 13.9062 18.252 13.5742L17.8711 12.5195C18.6816 12.2168 19.4434 12.8906 19.9805 14.3555L20.5859 16.0254C21.9336 19.7168 20.7227 22.5195 17.4707 23.7109Z" fill="white" fill-opacity="0.85"/>
 </g>
</svg>
