<svg version="1.1" xmlns="http://www.w3.org/2000/svg" xmlns:xlink="http://www.w3.org/1999/xlink" viewBox="0 0 20.2832 19.9316">
 <g>
  <rect height="19.9316" opacity="0" width="20.2832" x="0" y="0"/>
  <path d="M9.96094 19.9219C15.459 19.9219 19.9219 15.459 19.9219 9.96094C19.9219 4.46289 15.459 0 9.96094 0C4.46289 0 0 4.46289 0 9.96094C0 15.459 4.46289 19.9219 9.96094 19.9219ZM9.96094 18.2617C5.37109 18.2617 1.66016 14.5508 1.66016 9.96094C1.66016 5.37109 5.37109 1.66016 9.96094 1.66016C14.5508 1.66016 18.2617 5.37109 18.2617 9.96094C18.2617 14.5508 14.5508 18.2617 9.96094 18.2617Z" fill="var(--color-secondary)"/>
  <path d="M6.83594 7.87109L7.66602 7.87109L7.66602 7.14844C7.66602 5.91797 8.64258 5 9.92188 5C11.2012 5 12.1777 5.91797 12.1777 7.14844L12.1777 7.87109L13.0078 7.87109L13.0078 7.14844C13.0078 5.45898 11.6699 4.17969 9.92188 4.17969C8.17383 4.17969 6.83594 5.45898 6.83594 7.14844ZM9.92188 10.166C11.5527 10.166 12.998 9.52148 13.8281 7.8418C13.6133 7.72461 13.3594 7.67578 13.0566 7.67578L6.78711 7.67578C6.48438 7.67578 6.23047 7.72461 6.01562 7.8418C6.8457 9.52148 8.29102 10.166 9.92188 10.166ZM14.9707 12.6562L14.5508 9.01367C14.5215 8.78906 14.4629 8.59375 14.3652 8.42773C13.5449 9.92188 12.2852 10.6738 10.918 10.918L10.918 11.2402C10.918 11.582 10.7129 11.7871 10.3711 11.7871L9.47266 11.7871C9.13086 11.7871 8.92578 11.582 8.92578 11.2402L8.92578 10.918C7.55859 10.6738 6.29883 9.92188 5.47852 8.42773C5.38086 8.59375 5.32227 8.78906 5.29297 9.01367L4.87305 12.6562C4.72656 13.9355 5.29297 14.6191 6.48438 14.6191L13.3594 14.6191C14.5508 14.6191 15.1172 13.9355 14.9707 12.6562Z" fill="var(--color-primary)"/>
 </g>
</svg>
