<svg version="1.1" xmlns="http://www.w3.org/2000/svg" xmlns:xlink="http://www.w3.org/1999/xlink" viewBox="0 0 17.0094 21.5723">
 <g>
  <rect height="21.5723" opacity="0" width="17.0094" x="0" y="0"/>
  <path d="M7.87479 20.8789C10.9803 20.8789 12.9041 19.5801 14.1932 16.9727C14.9353 15.5273 15.5115 13.7891 16.1267 11.7773C16.3807 10.957 16.7517 9.91211 16.7517 9.44336C16.7517 8.91602 16.3611 8.56445 15.8142 8.56445C15.1892 8.56445 14.8279 8.95508 14.3689 9.88281L13.0213 12.7344C12.8748 13.0469 12.7185 13.1641 12.5623 13.1641C12.367 13.1641 12.1814 13.0469 12.2303 12.7051L13.4119 2.51953C13.4803 1.875 13.0603 1.50391 12.5818 1.40625C12.0642 1.30859 11.4783 1.5625 11.3709 2.19727L10.1307 9.78516C9.86698 9.6875 9.57401 9.60938 9.26151 9.55078L9.26151 1.01562C9.26151 0.458984 8.79276 0 8.21659 0C7.64042 0 7.17167 0.458984 7.17167 1.01562L7.17167 9.44336C6.85917 9.46289 6.54667 9.51172 6.24393 9.56055L5.23807 2.06055C5.15018 1.37695 4.59354 1.12305 4.0662 1.21094C3.56815 1.28906 3.0994 1.70898 3.17753 2.35352L4.15409 10.2246C3.83182 10.3809 3.54862 10.5469 3.27518 10.7227L2.03495 4.67773C1.89823 4.01367 1.35136 3.76953 0.853309 3.84766C0.365027 3.93555-0.0841913 4.35547 0.013465 5.0293L1.18534 14.0234C1.74198 18.3105 3.99784 20.8789 7.87479 20.8789Z" fill="var(--color-primary)"/>
 </g>
</svg>
