<?xml version="1.0" encoding="UTF-8"?>
<!--Generator: Apple Native CoreSVG 341-->
<!DOCTYPE svg
PUBLIC "-//W3C//DTD SVG 1.1//EN"
       "http://www.w3.org/Graphics/SVG/1.1/DTD/svg11.dtd">
<svg version="1.1" xmlns="http://www.w3.org/2000/svg" xmlns:xlink="http://www.w3.org/1999/xlink" viewBox="0 0 20.5351 20.7715">
 <g>
  <rect height="20.7715" opacity="0" width="20.5351" x="0" y="0"/>
  <path d="M3.99312 7.27539L5.56539 7.27539L5.56539 5.87891C5.56539 3.4375 7.52828 1.57227 10.0869 1.57227C12.6455 1.57227 14.6084 3.4375 14.6084 5.87891L14.6084 7.27539L16.1806 7.27539L16.1806 5.87891C16.1806 2.54883 13.5439 0 10.0869 0C6.6396 0 3.99312 2.54883 3.99312 5.87891ZM3.2607 20.7617L16.913 20.7617C19.2959 20.7617 20.4287 19.375 20.1259 16.8359L19.2861 9.60938C19.081 7.86133 18.0263 6.91406 16.3271 6.91406L3.84664 6.91406C2.14742 6.91406 1.1025 7.86133 0.897417 9.60938L0.0478077 16.8359C-0.254927 19.375 0.887651 20.7617 3.2607 20.7617ZM3.2607 19.1895C2.03023 19.1895 1.43453 18.4277 1.60054 17.0215L2.45015 9.79492C2.54781 8.94531 3.03609 8.48633 3.84664 8.48633L16.3271 8.48633C17.1474 8.48633 17.6357 8.94531 17.7334 9.79492L18.5732 17.0215C18.7392 18.4277 18.1435 19.1895 16.913 19.1895ZM9.18843 15.0781L10.9853 15.0781C11.6494 15.0781 12.04 14.707 12.04 14.043L12.04 13.3398C14.6572 12.9004 17.0986 11.4941 18.1728 8.79883L16.7275 8.14453C15.7119 10.8691 13.0459 11.9336 10.0869 11.9336C7.12789 11.9336 4.46187 10.8691 3.44625 8.14453L2.0107 8.79883C3.07515 11.4941 5.51656 12.9004 8.13375 13.3398L8.13375 14.043C8.13375 14.707 8.52437 15.0781 9.18843 15.0781Z" fill="white" fill-opacity="0.85"/>
 </g>
</svg>
