<?xml version="1.0" encoding="UTF-8"?>
<!--Generator: Apple Native CoreSVG 341-->
<!DOCTYPE svg
PUBLIC "-//W3C//DTD SVG 1.1//EN"
       "http://www.w3.org/Graphics/SVG/1.1/DTD/svg11.dtd">
<svg version="1.1" xmlns="http://www.w3.org/2000/svg" xmlns:xlink="http://www.w3.org/1999/xlink" viewBox="0 0 18.3691 18.2129">
 <g>
  <rect height="18.2129" opacity="0" width="18.3691" x="0" y="0"/>
  <path d="M5.3125 18.2129L12.6855 18.2129C14.4043 18.2129 15.7422 17.7148 16.6211 16.8457C17.5293 15.9473 18.0078 14.6094 18.0078 12.9004L18.0078 5.53711C18.0078 3.82812 17.5293 2.49023 16.6211 1.5918C15.7324 0.703125 14.4043 0.224609 12.6855 0.224609L5.3125 0.224609C3.60352 0.224609 2.25586 0.712891 1.37695 1.5918C0.478516 2.49023 0 3.82812 0 5.53711L0 12.9004C0 14.6094 0.46875 15.9473 1.37695 16.8457C2.26562 17.7246 3.60352 18.2129 5.3125 18.2129ZM5.3125 16.6406C4.10156 16.6406 3.1543 16.3086 2.53906 15.6836C1.9043 15.0586 1.57227 14.1211 1.57227 12.9004L1.57227 5.53711C1.57227 4.31641 1.9043 3.37891 2.53906 2.75391C3.14453 2.13867 4.10156 1.79688 5.3125 1.79688L12.6855 1.79688C13.9062 1.79688 14.8438 2.12891 15.4688 2.75391C16.1035 3.37891 16.4355 4.31641 16.4355 5.53711L16.4355 12.9004C16.4355 14.1211 16.1035 15.0586 15.4688 15.6836C14.8535 16.2988 13.9062 16.6406 12.6855 16.6406Z" fill="white" fill-opacity="0.85"/>
  <path d="M4.86328 11.0449C4.86328 13.5352 6.47461 15.0488 8.76953 15.0488C10.498 15.0488 11.6797 14.3555 12.4707 12.7344C12.9004 11.8945 13.2324 10.8887 13.584 9.72656C13.7305 9.24805 13.9355 8.65234 13.9355 8.38867C13.9355 8.07617 13.7012 7.86133 13.3789 7.86133C13.0078 7.86133 12.793 8.08594 12.5293 8.62305L11.7383 10.293C11.6602 10.4688 11.582 10.5273 11.4941 10.5273C11.377 10.5273 11.3086 10.4492 11.3086 10.2832L11.3086 4.33594C11.3086 3.99414 11.0254 3.71094 10.6836 3.71094C10.3418 3.71094 10.0684 3.99414 10.0684 4.33594L10.0684 8.55469C9.91211 8.51562 9.75586 8.45703 9.58984 8.42773L9.58984 3.50586C9.58984 3.17383 9.31641 2.88086 8.96484 2.88086C8.62305 2.88086 8.33984 3.17383 8.33984 3.50586L8.33984 8.35938C8.17383 8.37891 8.00781 8.39844 7.8418 8.42773L7.8418 3.99414C7.8418 3.65234 7.55859 3.37891 7.2168 3.37891C6.875 3.37891 6.5918 3.65234 6.5918 3.99414L6.5918 8.82812C6.41602 8.90625 6.26953 9.00391 6.11328 9.0918L6.11328 5.77148C6.11328 5.42969 5.83008 5.13672 5.49805 5.13672C5.14648 5.13672 4.86328 5.42969 4.86328 5.77148Z" fill="white" fill-opacity="0.85"/>
 </g>
</svg>
