<svg version="1.1" xmlns="http://www.w3.org/2000/svg" xmlns:xlink="http://www.w3.org/1999/xlink" viewBox="0 0 24.0698 25.8252">
 <g>
  <rect height="25.8252" opacity="0" width="24.0698" x="0" y="0"/>
  <path d="M18.0332 22.4638C17.4872 22.5598 16.691 22.6148 15.6873 22.6148L14.3689 22.6148C9.82789 22.6148 7.03492 19.8609 7.03492 16.2964C7.03492 14.6948 7.32983 13.5117 7.93728 12.3789ZM7.111 11.5535C6.385 12.6249 5.70534 14.2 5.69703 16.2769C5.68726 18.4741 6.41968 20.4077 8.16773 21.687L6.44898 21.687C4.03687 21.687 2.23023 19.2652 2.23023 16.3745C2.23023 13.3765 3.90992 11.0327 6.08765 11.0327L6.58966 11.0327ZM16.5173 4.06985C16.5173 5.7886 14.8962 8.19094 14.8962 9.48977C14.8962 10.2124 15.4724 10.6616 16.3416 10.6616L19.7791 10.6616C20.7459 10.6616 21.4783 11.4331 21.4783 12.3706C21.4783 12.9273 21.283 13.3667 20.9802 13.6206C20.8142 13.7671 20.7849 13.8648 20.9412 14.0015C21.2048 14.2359 21.3416 14.7144 21.3416 15.1734C21.3416 15.8081 21.0388 16.355 20.5994 16.6089C20.4236 16.7066 20.4041 16.8433 20.5115 16.9898C20.7361 17.2534 20.863 17.6441 20.863 18.0835C20.863 18.6153 20.6218 19.0496 20.2735 19.3512L10.1706 9.25384C11.3789 7.68636 12.6992 5.90946 13.7634 3.84524C14.1345 3.11282 14.4763 2.6343 15.1697 2.6343C15.9412 2.6343 16.5173 3.16164 16.5173 4.06985Z" fill="var(--color-secondary)"/>
  <path d="M21.6541 24.4702C21.947 24.7632 22.4353 24.7632 22.7185 24.4702C23.0017 24.1675 23.0115 23.6988 22.7185 23.4058L4.84742 5.54446C4.55445 5.25149 4.06617 5.24172 3.7732 5.54446C3.48023 5.82766 3.48023 6.31594 3.7732 6.60891Z" fill="var(--color-primary)"/>
 </g>
</svg>
