<?xml version="1.0" encoding="UTF-8"?>
<!--Generator: Apple Native CoreSVG 341-->
<!DOCTYPE svg
PUBLIC "-//W3C//DTD SVG 1.1//EN"
       "http://www.w3.org/Graphics/SVG/1.1/DTD/svg11.dtd">
<svg version="1.1" xmlns="http://www.w3.org/2000/svg" xmlns:xlink="http://www.w3.org/1999/xlink" viewBox="0 0 20.2832 19.9316">
 <g>
  <rect height="19.9316" opacity="0" width="20.2832" x="0" y="0"/>
  <path d="M9.96094 19.9219C15.459 19.9219 19.9219 15.4492 19.9219 9.96094C19.9219 4.46289 15.459 0 9.96094 0C4.47266 0 0 4.46289 0 9.96094C0 15.4492 4.47266 19.9219 9.96094 19.9219Z" fill="white" fill-opacity="0.2125"/>
  <path d="M15.625 8.27148C15.625 9.93164 14.6973 11.25 13.4766 11.25L12.6953 11.25C13.1445 10.6445 13.6816 9.6875 13.7012 8.32031C13.7207 7.08008 13.3008 6.00586 12.3047 5.2832L13.2812 5.2832C14.6387 5.2832 15.625 6.64062 15.625 8.27148ZM12.9688 8.31055C12.9492 9.59961 12.5977 10.3809 11.9141 11.2988C11.084 12.4023 10.0098 13.6914 9.18945 15.2637C8.99414 15.6738 8.79883 15.9375 8.4082 15.9375C7.98828 15.9375 7.65625 15.6348 7.65625 15.1367C7.65625 14.1895 8.56445 12.8516 8.56445 12.1094C8.56445 11.709 8.25195 11.4551 7.74414 11.4551L5.83008 11.4551C5.30273 11.4551 4.89258 11.0254 4.89258 10.4883C4.89258 10.2051 5 9.94141 5.15625 9.78516C5.25391 9.7168 5.27344 9.66797 5.17578 9.59961C5.03906 9.46289 4.96094 9.17969 4.96094 8.93555C4.96094 8.56445 5.12695 8.28125 5.39062 8.125C5.47852 8.07617 5.48828 7.99805 5.42969 7.91016C5.30273 7.76367 5.22461 7.53906 5.22461 7.29492C5.22461 6.86523 5.51758 6.54297 5.83984 6.41602C5.89844 6.39648 5.9082 6.32812 5.86914 6.25977C5.81055 6.15234 5.75195 5.97656 5.75195 5.78125C5.75195 5.26367 6.17188 5.01953 6.61133 4.90234C6.9043 4.83398 7.42188 4.77539 8.11523 4.78516L8.86719 4.79492C11.3965 4.82422 12.998 6.31836 12.9688 8.31055Z" fill="white" fill-opacity="0.85"/>
 </g>
</svg>
