<?xml version="1.0" encoding="UTF-8"?>
<!--Generator: Apple Native CoreSVG 341-->
<!DOCTYPE svg
PUBLIC "-//W3C//DTD SVG 1.1//EN"
       "http://www.w3.org/Graphics/SVG/1.1/DTD/svg11.dtd">
<svg version="1.1" xmlns="http://www.w3.org/2000/svg" xmlns:xlink="http://www.w3.org/1999/xlink" viewBox="0 0 17.7693 22.2363">
 <g>
  <rect height="22.2363" opacity="0" width="17.7693" x="0" y="0"/>
  <path d="M8.39635 21.2598C11.8241 21.2598 14.0116 19.3066 15.5448 15.7422L17.5858 10.9277C18.0545 9.84375 17.5663 8.89648 16.785 8.48633C16.0233 8.0957 14.9881 8.23242 14.3436 9.27734L13.4159 10.9375C13.3866 10.9766 13.367 11.0059 13.328 11.0059C13.2792 11.0059 13.2401 10.9668 13.2596 10.9082L14.5292 3.53516C14.744 2.32422 14.1288 1.47461 13.0643 1.2793C11.912 1.08398 11.0135 1.62109 10.7694 2.89062L10.4764 4.59961L10.5936 4.59961L10.5936 1.97266C10.5936 0.820312 9.79283 0 8.67955 0C7.51744 0 6.74596 0.849609 6.74596 2.04102L6.74596 3.29102L6.9901 3.24219L6.87291 2.46094C6.58971 1.38672 5.69127 0.927734 4.75377 1.09375C3.62096 1.28906 3.04478 2.23633 3.1815 3.35938L3.36705 4.96094L3.72838 4.88281C3.39635 3.81836 2.56627 3.47656 1.65807 3.64258C0.48619 3.84766-0.0509194 4.6875 0.124862 5.88867L1.42369 14.5996C2.03892 18.7402 4.26549 21.2598 8.39635 21.2598ZM8.34752 19.9121C4.89049 19.9121 3.26939 17.9395 2.72252 14.4434L1.31627 5.67383C1.25767 5.27344 1.48228 4.95117 1.86314 4.88281C2.21471 4.82422 2.53697 5.05859 2.62486 5.41992L4.04088 10.7227C4.13853 11.0938 4.4315 11.2402 4.73424 11.1816C5.06627 11.1328 5.29088 10.8398 5.25182 10.5078L4.41197 3.1543C4.36314 2.72461 4.55846 2.41211 4.95885 2.34375C5.35924 2.27539 5.6815 2.5293 5.7401 2.91992L6.75572 10.293C6.79478 10.6055 7.07799 10.8105 7.41978 10.7617C7.83971 10.6934 7.98619 10.4395 7.98619 10.0879L7.98619 1.97266C7.98619 1.5625 8.26939 1.26953 8.67955 1.26953C9.07017 1.26953 9.35338 1.5625 9.35338 1.97266L9.35338 10.1758C9.35338 10.5078 9.63658 10.7617 9.95885 10.7617C10.2909 10.7617 10.5253 10.5469 10.5838 10.2148L11.9706 3.10547C12.0585 2.63672 12.3905 2.44141 12.7616 2.50977C13.1424 2.56836 13.367 2.89062 13.2987 3.32031L11.912 12.4609C11.785 13.291 12.244 13.5742 12.6542 13.5742C13.0057 13.5742 13.2499 13.3984 13.5233 12.9297L15.2616 9.84375C15.4667 9.45312 15.8378 9.3457 16.1405 9.47266C16.4725 9.58984 16.6483 9.94141 16.4628 10.3809L14.3534 15.3223C12.9569 18.5547 11.0721 19.9121 8.34752 19.9121Z" fill="white" fill-opacity="0.85"/>
 </g>
</svg>
