<?xml version="1.0" encoding="UTF-8"?>
<!--Generator: Apple Native CoreSVG 341-->
<!DOCTYPE svg
PUBLIC "-//W3C//DTD SVG 1.1//EN"
       "http://www.w3.org/Graphics/SVG/1.1/DTD/svg11.dtd">
<svg version="1.1" xmlns="http://www.w3.org/2000/svg" xmlns:xlink="http://www.w3.org/1999/xlink" viewBox="0 0 21.0891 29.4161">
 <g>
  <rect height="29.4161" opacity="0" width="21.0891" x="0" y="0"/>
  <path d="M5.99375 13.795C5.99375 14.1172 6.01328 14.4493 6.07187 14.8008L4.80234 17.0469C4.65586 17.3106 4.5875 17.5743 4.5875 17.7793C4.5875 18.1797 4.84141 18.4043 5.34922 18.4043L5.74961 18.4043C5.90586 18.4043 5.99375 18.4922 5.99375 18.6387L5.99375 21.1289C5.99375 21.7637 6.25742 21.9688 6.81406 21.9102L8.9625 21.6661C9.12852 21.6465 9.22617 21.7442 9.22617 21.9102L9.22617 22.8575C9.22617 23.9805 10.5348 24.6641 12.7809 24.6641C15.0367 24.6641 16.3453 23.9805 16.3453 22.8575L16.3453 18.2871C17.0683 17.8096 17.7463 17.0752 18.1059 15.8837C18.615 15.935 19.1046 15.9587 19.5678 15.9515C19.2324 17.1564 18.6044 18.2127 17.7516 18.9707L17.7516 23.1016C17.7516 24.9668 15.8473 26.0606 12.7809 26.0606C9.80083 26.0606 7.96785 25.017 7.9045 23.2138L6.98984 23.2969C5.65195 23.4239 4.59727 22.711 4.59727 21.2168L4.59727 19.586C3.70859 19.3516 3.18125 18.668 3.18125 17.8086C3.18125 17.3594 3.31797 16.8711 3.60117 16.3731L4.63633 14.5078C4.60703 14.3028 4.59727 14.0782 4.59727 13.8243C4.59727 13.1109 4.67016 12.4407 4.81174 11.8191C4.95339 11.8349 5.10386 11.8418 5.26133 11.8418C5.63468 11.8418 5.97727 11.7974 6.28983 11.7155C6.09275 12.3631 5.99375 13.0635 5.99375 13.795ZM19.674 12.0924C19.633 12.0881 19.591 12.086 19.5484 12.086C19.1243 12.0902 18.6574 12.0574 18.1528 11.9841C17.4647 9.16244 15.1806 7.54496 12.1852 7.54496C10.9993 7.54496 9.96793 7.79429 9.1083 8.24095C9.13538 8.04633 9.14805 7.85854 9.14805 7.68168C9.14805 7.36205 9.10883 7.04947 9.02956 6.75219C9.98229 6.35992 11.0502 6.15824 12.1852 6.15824C16.3439 6.15824 19.0042 8.66774 19.674 12.0924Z" fill="white" fill-opacity="0.425"/>
  <path d="M19.5484 12.9746C19.7047 12.9746 19.8121 13.0625 19.8121 13.2286L19.8414 14.8106C19.8414 14.9473 19.773 15.0645 19.6949 15.0645C16.4247 15.1319 11.8016 13.7154 7.69746 10.9813C8.26651 10.4911 8.65035 9.8448 8.87953 9.19173C12.6455 11.6427 16.8944 13 19.5484 12.9746Z" fill="white" fill-opacity="0.85"/>
  <path d="M5.26133 10.9532C7.41953 10.9532 8.25937 9.0098 8.25937 7.68168C8.25937 6.92972 7.98594 6.26566 7.43906 5.83597C6.79453 5.3184 5.02695 4.28324 4.67539 4.14652C3.97227 3.87308 3.41562 4.0684 2.9957 4.74222L1.01328 7.86722C0.817968 8.16996 0.876562 8.48246 0.99375 8.61918C1.36484 8.18949 1.81406 8.26761 2.20469 8.86332C3.09336 10.2207 3.76719 10.9532 5.26133 10.9532Z" fill="white" fill-opacity="0.85"/>
  <path d="M11.7457 0.503942L11.7555 3.6973C11.7555 4.16605 12.2926 4.3223 12.5953 4.0684L14.5973 2.4473C14.8609 2.22269 14.8805 1.92972 14.5973 1.69535L12.5367 0.0937862C12.2437-0.130823 11.7457 0.0644893 11.7457 0.503942ZM7.44883 2.62308C7.03867 2.89652 7.03867 3.30668 7.24375 3.55082C7.40977 3.7559 7.7418 3.82425 8.09336 3.58988C9.14805 2.85746 10.5055 2.59379 12.0387 2.59379C12.3609 2.59379 12.6148 2.33988 12.6148 2.00785C12.6148 1.68558 12.3609 1.43168 12.0387 1.43168C10.3395 1.43168 8.70859 1.75394 7.44883 2.62308Z" fill="white" fill-opacity="0.85"/>
 </g>
</svg>
