<svg version="1.1" xmlns="http://www.w3.org/2000/svg" xmlns:xlink="http://www.w3.org/1999/xlink" viewBox="0 0 35.3027 17.1582">
 <g>
  <rect height="17.1582" opacity="0" width="35.3027" x="0" y="0"/>
  <path d="M3.76953 15.2539C4.08203 14.9023 3.98438 14.4434 3.63281 14.043C2.32422 12.5879 1.5918 10.6738 1.5918 8.57422C1.5918 6.47461 2.32422 4.56055 3.63281 3.10547C3.98438 2.70508 4.08203 2.24609 3.76953 1.89453C3.45703 1.52344 2.91016 1.5332 2.53906 1.94336C0.917969 3.70117 0 6.04492 0 8.57422C0 11.1035 0.917969 13.4375 2.53906 15.2051C2.91016 15.6152 3.45703 15.6152 3.76953 15.2539ZM31.1719 15.2539C31.4844 15.6152 32.0312 15.6152 32.4023 15.2051C34.0234 13.4375 34.9414 11.1035 34.9414 8.57422C34.9414 6.04492 34.0234 3.70117 32.4023 1.94336C32.0312 1.5332 31.4844 1.52344 31.1719 1.89453C30.8594 2.24609 30.957 2.70508 31.3086 3.10547C32.6172 4.56055 33.3496 6.47461 33.3496 8.57422C33.3496 10.6738 32.6172 12.5879 31.3086 14.043C30.957 14.4434 30.8594 14.9023 31.1719 15.2539Z" fill="var(--color-secondary)"/>
  <path d="M6.50391 12.4707C6.81641 12.1191 6.68945 11.6797 6.37695 11.2598C5.79102 10.5273 5.50781 9.58984 5.50781 8.57422C5.50781 7.55859 5.79102 6.61133 6.37695 5.88867C6.68945 5.46875 6.81641 5.0293 6.50391 4.67773C6.18164 4.30664 5.5957 4.30664 5.25391 4.74609C4.4043 5.80078 3.91602 7.13867 3.91602 8.57422C3.91602 10.0098 4.4043 11.3477 5.25391 12.4023C5.5957 12.8418 6.18164 12.832 6.50391 12.4707ZM28.4375 12.4707C28.7598 12.832 29.3457 12.8418 29.6875 12.4023C30.5371 11.3477 31.0254 10.0098 31.0254 8.57422C31.0254 7.13867 30.5371 5.80078 29.6875 4.74609C29.3457 4.30664 28.7598 4.30664 28.4375 4.67773C28.125 5.0293 28.252 5.46875 28.5645 5.88867C29.1504 6.61133 29.4336 7.55859 29.4336 8.57422C29.4336 9.58984 29.1504 10.5273 28.5645 11.2598C28.252 11.6797 28.125 12.1191 28.4375 12.4707Z" fill="var(--color-secondary)"/>
  <path d="M17.4707 17.1387C22.207 17.1387 26.0449 13.3105 26.0449 8.57422C26.0449 3.83789 22.207 0 17.4707 0C12.7344 0 8.89648 3.83789 8.89648 8.57422C8.89648 13.3105 12.7344 17.1387 17.4707 17.1387ZM17.4707 15.5664C13.6035 15.5664 10.4688 12.4414 10.4688 8.57422C10.4688 4.70703 13.6035 1.57227 17.4707 1.57227C21.3379 1.57227 24.4727 4.70703 24.4727 8.57422C24.4727 12.4414 21.3379 15.5664 17.4707 15.5664Z" fill="var(--color-primary)"/>
  <path d="M12.9492 8.56445C12.9492 10.1367 13.3301 11.3477 13.9746 12.4609C14.1309 12.7344 14.4531 12.8223 14.7461 12.6562C15.0195 12.5195 15.0977 12.1875 14.9414 11.8848C14.3945 10.8691 14.0723 9.92188 14.0723 8.56445C14.0723 6.31836 15.4297 4.83398 17.4805 4.83398C19.5312 4.83398 20.8984 6.32812 20.8984 8.56445C20.8984 9.92188 20.5762 10.8789 20.0098 11.8848C19.8535 12.1777 19.9414 12.5098 20.2148 12.6562C20.498 12.8223 20.8301 12.7344 20.9863 12.4609C21.6406 11.3086 22.0215 10.1074 22.0215 8.56445C22.0215 5.6543 20.1953 3.70117 17.4805 3.70117C14.7656 3.70117 12.9492 5.6543 12.9492 8.56445ZM14.4336 12.2754C14.5898 12.832 15.0781 13.1055 15.625 12.9297C16.1816 12.7734 16.4551 12.2949 16.2891 11.748L15.6836 9.66797C15.5176 9.11133 15.0391 8.84766 14.4824 9.01367C13.9355 9.16016 13.6621 9.64844 13.8281 10.1953ZM20.5176 12.2754L21.123 10.1953C21.2891 9.63867 21.0254 9.16016 20.4688 9.01367C19.9219 8.84766 19.4434 9.11133 19.2773 9.66797L18.6621 11.748C18.5059 12.3047 18.7695 12.7734 19.3262 12.9297C19.8828 13.0957 20.3613 12.832 20.5176 12.2754Z" fill="var(--color-primary)"/>
 </g>
</svg>
