<?xml version="1.0" encoding="UTF-8"?>
<!--Generator: Apple Native CoreSVG 341-->
<!DOCTYPE svg
PUBLIC "-//W3C//DTD SVG 1.1//EN"
       "http://www.w3.org/Graphics/SVG/1.1/DTD/svg11.dtd">
<svg version="1.1" xmlns="http://www.w3.org/2000/svg" xmlns:xlink="http://www.w3.org/1999/xlink" viewBox="0 0 22.1094 18.8379">
 <g>
  <rect height="18.8379" opacity="0" width="22.1094" x="0" y="0"/>
  <path d="M10.8691 0C4.86328 0 0 4.86328 0 10.8691C0 13.8281 1.18164 16.543 3.14453 18.5156C3.47656 18.8477 3.99414 18.8672 4.36523 18.5254C4.66797 18.2227 4.60938 17.6953 4.21875 17.2754C2.64648 15.6348 1.68945 13.3496 1.68945 10.8691C1.68945 5.73242 5.74219 1.66016 10.8691 1.66016C16.0059 1.66016 20.0586 5.73242 20.0586 10.8691C20.0586 13.3496 19.1016 15.6348 17.5293 17.2754C17.1387 17.6953 17.0801 18.2227 17.3828 18.5254C17.7539 18.8672 18.2715 18.8477 18.6035 18.5156C20.5664 16.543 21.748 13.8281 21.748 10.8691C21.748 4.86328 16.8848 0 10.8691 0Z" fill="white" fill-opacity="0.85"/>
  <path d="M8.54492 6.57227C6.88477 6.57227 5.69336 7.82227 5.69336 9.55078C5.69336 12.1191 8.39844 14.4824 10.4004 15.752C10.5664 15.8496 10.7812 15.9766 10.9082 15.9766C11.0254 15.9766 11.2207 15.8496 11.3672 15.752C13.3496 14.4531 16.0742 12.1191 16.0742 9.55078C16.0742 7.82227 14.8828 6.57227 13.2324 6.57227C12.1973 6.57227 11.3672 7.16797 10.8887 8.05664C10.4004 7.16797 9.58984 6.57227 8.54492 6.57227Z" fill="white" fill-opacity="0.85"/>
 </g>
</svg>
