<?xml version="1.0" encoding="UTF-8"?>
<!--Generator: Apple Native CoreSVG 341-->
<!DOCTYPE svg
PUBLIC "-//W3C//DTD SVG 1.1//EN"
       "http://www.w3.org/Graphics/SVG/1.1/DTD/svg11.dtd">
<svg version="1.1" xmlns="http://www.w3.org/2000/svg" xmlns:xlink="http://www.w3.org/1999/xlink" viewBox="0 0 22.0605 21.2793">
 <g>
  <rect height="21.2793" opacity="0" width="22.0605" x="0" y="0"/>
  <path d="M7.06055 16.4062C7.06055 19.1016 8.73047 20.8203 11.3672 20.8203C13.3203 20.8203 14.7949 19.9609 15.7129 18.3008L16.5918 16.7285C18.6523 12.959 22.0605 12.4707 22.0605 7.62695C22.0605 3.05664 19.1016 0 14.6582 0C10.1172 0 7.06055 3.07617 7.06055 7.66602ZM8.53516 16.3086L8.53516 7.66602C8.53516 3.94531 10.9863 1.47461 14.6582 1.47461C18.2129 1.47461 20.5859 3.94531 20.5859 7.62695C20.5859 11.6797 17.4023 12.3828 15.2832 16.0645L14.4238 17.5195C13.7305 18.7305 12.7734 19.3066 11.4355 19.3066C9.62891 19.3066 8.53516 18.1738 8.53516 16.3086ZM10.0586 13.5645C10.0586 14.5801 10.8301 15.2539 11.9629 15.2539C13.4375 15.2441 14.4434 13.9941 14.4434 12.4219C14.4434 9.60938 11.5332 9.14062 11.5332 7.1582C11.5332 5.625 12.7832 4.49219 14.6484 4.49219C16.543 4.49219 17.7637 5.72266 17.7637 7.60742C17.7637 8.00781 18.1055 8.34961 18.5059 8.34961C18.9062 8.34961 19.2383 8.00781 19.2383 7.60742C19.2383 4.86328 17.4023 3.01758 14.6484 3.01758C11.9043 3.01758 10.0586 4.74609 10.0586 7.1582C10.0586 9.27734 12.0605 9.9707 12.0605 10.918C12.0605 11.9727 10.0586 11.7383 10.0586 13.5645Z" fill="white" fill-opacity="0.85"/>
  <path d="M2.03125 4.63867C2.92969 4.63867 3.67188 3.90625 3.67188 3.00781C3.67188 2.09961 2.92969 1.36719 2.03125 1.36719C1.12305 1.36719 0.390625 2.09961 0.390625 3.00781C0.390625 3.90625 1.12305 4.63867 2.03125 4.63867Z" fill="white" fill-opacity="0.85"/>
  <path d="M2.03125 9.7168C2.92969 9.7168 3.67188 8.98438 3.67188 8.08594C3.67188 7.17773 2.92969 6.44531 2.03125 6.44531C1.12305 6.44531 0.390625 7.17773 0.390625 8.08594C0.390625 8.98438 1.12305 9.7168 2.03125 9.7168Z" fill="white" fill-opacity="0.85"/>
  <path d="M2.03125 14.8145C2.92969 14.8145 3.67188 14.082 3.67188 13.1836C3.67188 12.2754 2.92969 11.543 2.03125 11.543C1.12305 11.543 0.390625 12.2754 0.390625 13.1836C0.390625 14.082 1.12305 14.8145 2.03125 14.8145Z" fill="white" fill-opacity="0.85"/>
  <path d="M2.03125 19.8926C2.92969 19.8926 3.67188 19.1602 3.67188 18.2617C3.67188 17.3535 2.92969 16.6211 2.03125 16.6211C1.12305 16.6211 0.390625 17.3535 0.390625 18.2617C0.390625 19.1602 1.12305 19.8926 2.03125 19.8926Z" fill="white" fill-opacity="0.85"/>
 </g>
</svg>
