<?xml version="1.0" encoding="UTF-8"?>
<!--Generator: Apple Native CoreSVG 341-->
<!DOCTYPE svg
PUBLIC "-//W3C//DTD SVG 1.1//EN"
       "http://www.w3.org/Graphics/SVG/1.1/DTD/svg11.dtd">
<svg version="1.1" xmlns="http://www.w3.org/2000/svg" xmlns:xlink="http://www.w3.org/1999/xlink" viewBox="0 0 20.2832 19.9512">
 <g>
  <rect height="19.9512" opacity="0" width="20.2832" x="0" y="0"/>
  <path d="M19.9219 9.99023C19.9219 15.4883 15.459 19.9512 9.96094 19.9512C4.47266 19.9512 0 15.4883 0 9.99023C0 4.50195 4.47266 0.0292969 9.96094 0.0292969C15.459 0.0292969 19.9219 4.50195 19.9219 9.99023ZM6.01562 4.86328L4.95117 6.41602C4.76562 6.68945 4.91211 7.05078 5.2832 7.05078L5.85938 7.05078L5.85938 7.06055C5.85938 8.98438 6.86523 9.27734 6.86523 10.2051C6.86523 11.1328 5.61523 11.4453 5.61523 13.2812C5.61523 13.916 5.78125 14.4043 6.2207 14.9707C6.65039 15.5078 7.50977 14.9512 7.06055 14.3555C6.72852 13.9258 6.63086 13.6621 6.63086 13.2227C6.63086 11.9824 7.91016 11.5918 7.91016 10.2051C7.91016 8.79883 6.89453 8.51562 6.89453 7.06055L6.89453 7.05078L7.48047 7.05078C7.85156 7.05078 8.00781 6.68945 7.82227 6.41602L6.72852 4.86328C6.5625 4.58008 6.2207 4.57031 6.01562 4.86328ZM9.58984 4.85352L8.52539 6.38672C8.33984 6.66992 8.48633 7.04102 8.85742 7.04102L9.43359 7.04102L9.43359 7.03125C9.43359 8.95508 10.4395 9.25781 10.4395 10.1758C10.4395 11.1035 9.16992 11.416 9.16992 13.2617C9.16992 13.9062 9.35547 14.3945 9.80469 14.9512C10.2148 15.4883 11.0742 14.9414 10.625 14.3359C10.3125 13.9062 10.2148 13.6426 10.2148 13.2031C10.2148 11.9629 11.4844 11.5723 11.4844 10.1758C11.4844 8.7923 10.4735 8.49747 10.4692 7.04102L11.0547 7.04102C11.416 7.04102 11.5723 6.66992 11.377 6.38672L10.3223 4.85352C10.1367 4.56055 9.78516 4.55078 9.58984 4.85352ZM13.1641 4.82422L12.0898 6.37695C11.9141 6.65039 12.0605 7.02148 12.4316 7.02148L13.0176 7.02148C13.0176 8.94531 14.0234 9.22852 14.0234 10.1562C14.0234 11.084 12.7441 11.4062 12.7441 13.2422C12.7441 13.8867 12.9297 14.3652 13.3691 14.9414C13.8281 15.4883 14.6582 14.9121 14.209 14.3262C13.877 13.8965 13.7891 13.623 13.7891 13.1836C13.7891 11.9434 15.0586 11.5527 15.0586 10.1562C15.0586 8.76953 14.0527 8.47656 14.0527 7.02148L14.6191 7.02148C14.9902 7.02148 15.1465 6.65039 14.9609 6.37695L13.8867 4.82422C13.7012 4.54102 13.3496 4.53125 13.1641 4.82422Z" fill="white" fill-opacity="0.85"/>
 </g>
</svg>
