<svg version="1.1" xmlns="http://www.w3.org/2000/svg" xmlns:xlink="http://www.w3.org/1999/xlink" viewBox="0 0 22.9102 19.6191">
 <g>
  <rect height="19.6191" opacity="0" width="22.9102" x="0" y="0"/>
  <path d="M4.35547 14.502C7.33398 14.502 8.29102 11.9434 11.7383 11.9434C13.5547 11.9434 15.3613 12.8906 17.9688 12.8906C21.0156 12.8906 22.3145 12.2656 22.4512 11.4355C22.5488 11.1523 22.4414 10.9082 21.875 10.3223C21.416 9.85352 21.123 9.08203 20.9473 8.11523C20.1465 3.60352 16.1719 0 10.0977 0C4.00391 0 0 4.32617 0 9.0332C0 9.98047 0.136719 11.084 0.3125 11.7383C0.644531 13.0078 2.82227 14.502 4.35547 14.502ZM4.35547 13.0664C3.41797 13.0664 1.96289 12.2168 1.72852 11.2793C1.5918 10.7422 1.43555 9.85352 1.43555 9.0332C1.43555 5.14648 4.80469 1.36719 10.0977 1.36719C14.5605 1.36719 18.7207 4.11133 19.5117 8.16406C19.7852 9.59961 20.0879 10.3809 20.7227 11.0449C20.7812 11.1133 20.7812 11.1914 20.6836 11.2305C20.1953 11.4062 19.668 11.4648 17.9688 11.4648C15.498 11.4648 13.5352 10.5664 11.7285 10.5664C8.17383 10.5664 7.10938 13.0664 4.35547 13.0664ZM7.89062 4.02344C8.26172 4.02344 8.54492 3.7207 8.54492 3.31055L8.54492 1.18164L7.2168 1.21094L7.2168 3.32031C7.2168 3.73047 7.5 4.02344 7.89062 4.02344ZM10.7324 4.48242C11.1035 4.48242 11.4062 4.17969 11.4062 3.76953L11.4062 0.878906L10.0586 0.878906L10.0586 3.78906C10.0586 4.18945 10.3516 4.48242 10.7324 4.48242ZM13.584 4.0332C13.9648 4.0332 14.2578 3.73047 14.2578 3.31055L14.2578 1.29883L12.9199 1.25L12.9199 3.33008C12.9199 3.74023 13.2031 4.0332 13.584 4.0332ZM2.90039 9.94141C3.25195 10.0977 3.63281 9.96094 3.78906 9.60938C3.95508 9.27734 3.78906 8.89648 3.41797 8.73047L0.898438 7.58789L0.390625 8.81836ZM12.9297 19.5605C13.3594 19.4922 13.5547 19.1797 13.4863 18.7695C13.3105 17.8418 13.1836 17.0508 13.1641 15.752C13.1348 14.5605 13.1641 13.1348 13.2324 11.6016L11.7969 11.4941C11.748 13.0957 11.709 14.5703 11.7676 15.8105C11.8359 17.2363 11.9238 17.9297 12.1289 19.0039C12.1973 19.3945 12.5586 19.6191 12.9297 19.5605ZM12.3633 17.2266L12.4609 15.6445L7.69531 12.4219L6.66992 13.3398Z" fill="var(--color-primary)"/>
 </g>
</svg>
