<?xml version="1.0" encoding="UTF-8"?>
<!--Generator: Apple Native CoreSVG 341-->
<!DOCTYPE svg
PUBLIC "-//W3C//DTD SVG 1.1//EN"
       "http://www.w3.org/Graphics/SVG/1.1/DTD/svg11.dtd">
<svg version="1.1" xmlns="http://www.w3.org/2000/svg" xmlns:xlink="http://www.w3.org/1999/xlink" viewBox="0 0 25.8203 20.0684">
 <g>
  <rect height="20.0684" opacity="0" width="25.8203" x="0" y="0"/>
  <path d="M19.4531 2.41211C20.1465 3.29102 20.5859 4.53125 20.5859 6.36719L20.5859 13.7988C20.5859 18.1543 18.1152 20.0684 12.7344 20.0684C7.34375 20.0684 4.87305 18.1543 4.87305 13.7988L4.87305 13.3789L6.44531 13.3789L6.44531 13.6426C6.44531 16.9824 8.21289 18.4961 12.7344 18.4961C17.2461 18.4961 19.0137 16.9824 19.0137 13.6426L19.0137 6.45508C19.0137 5.5957 18.8672 4.79492 18.5059 4.10156C17.3438 5.00977 15.1465 5.42969 12.7344 5.42969C10.3125 5.42969 8.11523 5.00977 6.95312 4.10156C6.5918 4.79492 6.44531 5.5957 6.44531 6.45508L6.44531 9.10156L4.87305 9.10156L4.87305 6.36719C4.87305 4.53125 5.3125 3.29102 6.00586 2.41211C6.24023 2.11914 6.61133 2.09961 6.9043 2.33398C7.8418 3.1543 10.2832 3.85742 12.7344 3.85742C15.1758 3.85742 17.627 3.1543 18.5547 2.33398C18.8477 2.09961 19.2188 2.11914 19.4531 2.41211ZM17.2461 1.26953C17.2461 1.97266 15.3125 2.51953 12.7344 2.51953C10.1465 2.51953 8.21289 1.97266 8.21289 1.26953C8.21289 0.546875 10.1465 0.00976562 12.7344 0.00976562C15.3125 0.00976562 17.2461 0.546875 17.2461 1.26953Z" fill="white" fill-opacity="0.85"/>
  <path d="M12.373 11.2402L11.0449 12.4902L9.70703 13.7109C9.55078 13.8477 9.48242 14.0527 9.48242 14.2383C9.48242 14.6484 9.76562 14.9512 10.166 14.9512C10.3711 14.9512 10.5273 14.873 10.6738 14.7168L13.4863 11.8066C13.6719 11.6113 13.75 11.4355 13.75 11.2402C13.75 11.0449 13.6719 10.8691 13.4863 10.6738L10.6738 7.75391C10.5273 7.60742 10.3711 7.5293 10.166 7.5293C9.76562 7.5293 9.48242 7.83203 9.48242 8.24219C9.48242 8.42773 9.55078 8.63281 9.70703 8.76953L11.0449 9.99023ZM1.38672 11.2402C1.38672 11.6602 1.73828 12.0215 2.14844 12.0215L10.2246 12.0117L12.207 11.9434C12.5977 11.9336 12.9102 11.6309 12.9102 11.2402C12.9102 10.8496 12.5977 10.5469 12.207 10.5371L10.2246 10.4688L2.14844 10.4688C1.73828 10.4688 1.38672 10.8203 1.38672 11.2402Z" fill="white" fill-opacity="0.85"/>
 </g>
</svg>
