<?xml version="1.0" encoding="UTF-8"?>
<!--Generator: Apple Native CoreSVG 341-->
<!DOCTYPE svg
PUBLIC "-//W3C//DTD SVG 1.1//EN"
       "http://www.w3.org/Graphics/SVG/1.1/DTD/svg11.dtd">
<svg version="1.1" xmlns="http://www.w3.org/2000/svg" xmlns:xlink="http://www.w3.org/1999/xlink" viewBox="0 0 25.9668 17.6855">
 <g>
  <rect height="17.6855" opacity="0" width="25.9668" x="0" y="0"/>
  <path d="M0.761719 11.0156C0.351562 11.0156 0 10.6641 0 10.2441C0 9.82422 0.351562 9.47266 0.761719 9.47266L8.89648 9.47266L10.2246 9.53125L9.6582 8.99414L8.33008 7.77344C8.16406 7.63672 8.0957 7.43164 8.0957 7.24609C8.0957 6.83594 8.37891 6.5332 8.7793 6.5332C8.98438 6.5332 9.14062 6.61133 9.28711 6.75781L12.0996 9.67773C12.2852 9.87305 12.3633 10.0488 12.3633 10.2441C12.3633 10.4395 12.2852 10.6152 12.0996 10.8105L9.28711 13.7207C9.14062 13.8672 8.98438 13.9551 8.7793 13.9551C8.37891 13.9551 8.0957 13.6523 8.0957 13.2422C8.0957 13.0566 8.16406 12.8516 8.33008 12.7148L9.6582 11.4941L10.2246 10.957L8.89648 11.0156ZM12.8027 17.6855C16.3477 17.6855 17.8418 17.2363 19.2578 15.918C21.25 14.1016 22.4121 11.4746 22.4121 8.68164C22.4121 6.42578 21.6602 4.27734 20.1074 2.50977C19.7461 2.06055 19.375 2.02148 18.9844 2.30469C17.5391 3.39844 15.8691 3.94531 12.8027 3.94531C9.73633 3.94531 8.06641 3.39844 6.62109 2.30469C6.23047 2.02148 5.84961 2.06055 5.48828 2.50977C3.94531 4.27734 3.18359 6.42578 3.18359 8.68164C3.18359 11.4746 4.35547 14.1016 6.33789 15.918C7.75391 17.2363 9.25781 17.6855 12.8027 17.6855ZM12.8027 2.61719C15.5176 2.61719 17.4219 2.07031 17.4219 1.36719C17.4219 0.654297 15.5176 0.126953 12.8027 0.126953C10.0879 0.126953 8.18359 0.654297 8.18359 1.36719C8.18359 2.07031 10.0879 2.61719 12.8027 2.61719Z" fill="white" fill-opacity="0.85"/>
 </g>
</svg>
