<?xml version="1.0" encoding="UTF-8"?>
<!--Generator: Apple Native CoreSVG 341-->
<!DOCTYPE svg
PUBLIC "-//W3C//DTD SVG 1.1//EN"
       "http://www.w3.org/Graphics/SVG/1.1/DTD/svg11.dtd">
<svg version="1.1" xmlns="http://www.w3.org/2000/svg" xmlns:xlink="http://www.w3.org/1999/xlink" viewBox="0 0 20.2832 19.9316">
 <g>
  <rect height="19.9316" opacity="0" width="20.2832" x="0" y="0"/>
  <path d="M9.96094 19.9219C15.459 19.9219 19.9219 15.4492 19.9219 9.96094C19.9219 4.46289 15.459 0 9.96094 0C4.47266 0 0 4.46289 0 9.96094C0 15.4492 4.47266 19.9219 9.96094 19.9219Z" fill="white" fill-opacity="0.2125"/>
  <path d="M9.91211 5.3418C11.3672 5.3418 12.832 6.03516 12.832 7.54883C12.832 7.95898 12.666 8.33008 12.3828 8.61328L13.252 8.61328C13.457 8.61328 13.6035 8.75 13.6035 8.95508C13.6035 9.15039 13.457 9.28711 13.252 9.28711L6.65039 9.28711C6.46484 9.28711 6.31836 9.15039 6.31836 8.95508C6.31836 8.75 6.46484 8.61328 6.65039 8.61328L11.1523 8.61328C11.543 8.37891 11.6895 7.95898 11.6895 7.62695C11.6895 6.73828 10.8105 6.33789 9.93164 6.33789C9.21875 6.33789 8.56445 6.62109 8.21289 7.31445C8.0957 7.54883 7.95898 7.65625 7.69531 7.65625C7.38281 7.65625 7.1875 7.46094 7.1875 7.16797C7.1875 6.92383 7.24609 6.73828 7.39258 6.52344C8.03711 5.56641 9.07227 5.3418 9.91211 5.3418ZM9.96094 14.4336C8.49609 14.4336 6.91406 13.7109 6.91406 12.1973C6.91406 11.709 7.14844 11.2402 7.51953 10.918L6.65039 10.918C6.46484 10.918 6.31836 10.7812 6.31836 10.5859C6.31836 10.3809 6.46484 10.2441 6.65039 10.2441L13.252 10.2441C13.457 10.2441 13.6035 10.3809 13.6035 10.5859C13.6035 10.7812 13.457 10.918 13.252 10.918L8.81836 10.918C8.35938 11.1719 8.07617 11.582 8.07617 12.1387C8.07617 12.959 8.99414 13.4375 9.96094 13.4375C10.8301 13.4375 11.543 13.1152 11.8848 12.334C12.002 12.0898 12.1582 11.9629 12.4219 11.9629C12.7344 11.9629 12.9492 12.1582 12.9492 12.4609C12.9492 12.666 12.8516 12.9199 12.7344 13.1055C12.207 14.0234 11.1426 14.4336 9.96094 14.4336Z" fill="white" fill-opacity="0.85"/>
 </g>
</svg>
