<?xml version="1.0" encoding="UTF-8"?>
<!--Generator: Apple Native CoreSVG 341-->
<!DOCTYPE svg
PUBLIC "-//W3C//DTD SVG 1.1//EN"
       "http://www.w3.org/Graphics/SVG/1.1/DTD/svg11.dtd">
<svg version="1.1" xmlns="http://www.w3.org/2000/svg" xmlns:xlink="http://www.w3.org/1999/xlink" viewBox="0 0 16.1035 22.4902">
 <g>
  <rect height="22.4902" opacity="0" width="16.1035" x="0" y="0"/>
  <path d="M2.54883 2.38281C2.92969 2.38281 3.24219 2.07031 3.24219 1.68945C3.24219 1.30859 2.92969 0.996094 2.54883 0.996094C2.16797 0.996094 1.85547 1.30859 1.85547 1.68945C1.85547 2.07031 2.16797 2.38281 2.54883 2.38281ZM7.91016 1.39648C8.29102 1.39648 8.60352 1.08398 8.60352 0.703125C8.60352 0.3125 8.29102 0 7.91016 0C7.5293 0 7.2168 0.3125 7.2168 0.703125C7.2168 1.08398 7.5293 1.39648 7.91016 1.39648ZM13.2715 2.38281C13.6523 2.38281 13.9648 2.07031 13.9648 1.68945C13.9648 1.30859 13.6523 0.996094 13.2715 0.996094C12.8906 0.996094 12.5781 1.30859 12.5781 1.68945C12.5781 2.07031 12.8906 2.38281 13.2715 2.38281Z" fill="white" fill-opacity="0.85"/>
  <path d="M4.3457 4.66797C4.72656 4.66797 5.03906 4.35547 5.03906 3.97461C5.03906 3.59375 4.72656 3.28125 4.3457 3.28125C3.95508 3.28125 3.64258 3.59375 3.64258 3.97461C3.64258 4.35547 3.95508 4.66797 4.3457 4.66797ZM7.91016 4.30664C8.29102 4.30664 8.60352 3.99414 8.60352 3.61328C8.60352 3.23242 8.29102 2.91992 7.91016 2.91992C7.5293 2.91992 7.2168 3.23242 7.2168 3.61328C7.2168 3.99414 7.5293 4.30664 7.91016 4.30664ZM11.4844 4.66797C11.8652 4.66797 12.1777 4.35547 12.1777 3.97461C12.1777 3.59375 11.8652 3.28125 11.4844 3.28125C11.0938 3.28125 10.791 3.59375 10.791 3.97461C10.791 4.35547 11.0938 4.66797 11.4844 4.66797Z" fill="white" fill-opacity="0.85"/>
  <path d="M2.94922 10L12.793 10C12.1582 9.05273 11.4746 8.10547 10.752 7.13867C10.2246 6.44531 9.88281 6.05469 8.92578 6.05469L6.81641 6.05469C5.86914 6.05469 5.52734 6.44531 4.99023 7.13867C4.26758 8.10547 3.58398 9.05273 2.94922 10ZM0.0683594 16.0938L5.75195 16.0938C6.05469 15.2148 6.875 14.5996 7.88086 14.5996C8.86719 14.5996 9.6875 15.2148 10 16.0938L15.6738 16.0938C15.4492 14.7559 14.7656 13.1934 13.7891 11.543L1.96289 11.543C0.976562 13.1934 0.292969 14.7559 0.0683594 16.0938ZM7.88086 17.8027C8.41797 17.8027 8.81836 17.4023 8.81836 16.8555C8.81836 16.3184 8.41797 15.918 7.88086 15.918C7.32422 15.918 6.93359 16.3184 6.93359 16.8555C6.93359 17.4023 7.32422 17.8027 7.88086 17.8027ZM5.75195 22.4707L9.99023 22.4707C13.5742 22.4707 15.5078 20.6836 15.7422 17.6367L9.99023 17.6367C9.67773 18.5059 8.85742 19.1211 7.88086 19.1211C6.875 19.1211 6.06445 18.5059 5.76172 17.6367L0 17.6367C0.234375 20.6836 2.16797 22.4707 5.75195 22.4707Z" fill="white" fill-opacity="0.85"/>
 </g>
</svg>
