<?xml version="1.0" encoding="UTF-8"?>
<!--Generator: Apple Native CoreSVG 341-->
<!DOCTYPE svg
PUBLIC "-//W3C//DTD SVG 1.1//EN"
       "http://www.w3.org/Graphics/SVG/1.1/DTD/svg11.dtd">
<svg version="1.1" xmlns="http://www.w3.org/2000/svg" xmlns:xlink="http://www.w3.org/1999/xlink" viewBox="0 0 20.2832 19.9316">
 <g>
  <rect height="19.9316" opacity="0" width="20.2832" x="0" y="0"/>
  <path d="M19.9219 9.96094C19.9219 15.4492 15.459 19.9219 9.96094 19.9219C4.47266 19.9219 0 15.4492 0 9.96094C0 4.46289 4.47266 0 9.96094 0C15.459 0 19.9219 4.46289 19.9219 9.96094ZM9.25781 6.11328L9.25781 9.17969L5.83008 9.17969L5.83008 6.11328C5.83008 5.71289 5.50781 5.32227 5.0293 5.32227C4.63867 5.32227 4.25781 5.625 4.25781 6.11328L4.25781 13.7012C4.25781 14.1016 4.56055 14.502 5.0293 14.502C5.46875 14.502 5.83008 14.1406 5.83008 13.7012L5.83008 10.5371L9.25781 10.5371L9.25781 13.7012C9.25781 14.1406 9.62891 14.502 10.0586 14.502C10.5078 14.502 10.8594 14.1406 10.8594 13.7012L10.8594 6.11328C10.8594 5.63477 10.4688 5.32227 10.0586 5.32227C9.67773 5.32227 9.25781 5.63477 9.25781 6.11328ZM11.9727 10.3223C11.9434 10.4004 11.9336 10.498 11.9336 10.5762C11.9336 10.8789 12.1484 11.0938 12.4609 11.0938C12.7148 11.0938 12.8711 10.9766 13.0078 10.7422C13.1152 10.4297 13.3594 10.166 13.7598 10.166C14.1699 10.166 14.4238 10.3906 14.4238 10.7129C14.4238 11.0254 14.1309 11.3184 13.8281 11.6602L12.1484 13.4473C12.0312 13.584 11.9531 13.7207 11.9531 13.8867C11.9531 14.209 12.1875 14.4141 12.5098 14.4141L15.293 14.4141C15.6055 14.4141 15.8301 14.1895 15.8301 13.8867C15.8301 13.5938 15.6055 13.3496 15.293 13.3496L13.6621 13.3594L14.707 12.3047C15.1562 11.8262 15.5566 11.3184 15.5566 10.6641C15.5566 9.73633 14.8145 9.12109 13.7207 9.12109C12.9004 9.12109 12.168 9.62891 11.9727 10.3223Z" fill="white" fill-opacity="0.85"/>
 </g>
</svg>
