<?xml version="1.0" encoding="UTF-8"?>
<!--Generator: Apple Native CoreSVG 341-->
<!DOCTYPE svg
PUBLIC "-//W3C//DTD SVG 1.1//EN"
       "http://www.w3.org/Graphics/SVG/1.1/DTD/svg11.dtd">
<svg version="1.1" xmlns="http://www.w3.org/2000/svg" xmlns:xlink="http://www.w3.org/1999/xlink" viewBox="0 0 24.9121 23.4082">
 <g>
  <rect height="23.4082" opacity="0" width="24.9121" x="0" y="0"/>
  <path d="M0 13.0176C0 15.5566 1.9043 17.6074 5.10742 17.6074L19.7559 17.6074C22.7539 17.6074 24.5508 15.8008 24.5508 13.4375C24.5508 11.4648 23.3691 9.84375 21.4648 9.07227C21.4844 4.7168 18.3496 1.57227 14.3555 1.57227C11.709 1.57227 9.82422 2.98828 8.65234 4.69727C6.43555 4.10156 3.63281 5.82031 3.58398 8.56445C1.37695 8.90625 0 10.7129 0 13.0176ZM9.00391 18.8477C9.19922 18.8477 9.4043 18.916 9.54102 19.0723L11.0547 20.6836L12.3242 22.0312L13.584 20.6836L15.0879 19.0723C15.2344 18.916 15.4297 18.8477 15.625 18.8477C16.0254 18.8477 16.3379 19.1309 16.3379 19.5312C16.3379 19.7363 16.25 19.8926 16.1035 20.0391L12.8809 23.1445C12.6855 23.3398 12.5195 23.4082 12.3242 23.4082C12.1191 23.4082 11.9531 23.3398 11.7578 23.1445L8.53516 20.0391C8.38867 19.8926 8.30078 19.7363 8.30078 19.5312C8.30078 19.1309 8.59375 18.8477 9.00391 18.8477ZM12.3242 10.6641C12.7441 10.6641 13.0957 11.0059 13.0957 11.416L13.0957 19.8047L12.9785 22.4316C12.959 22.793 12.6758 23.0957 12.3242 23.0957C11.9629 23.0957 11.6797 22.793 11.6602 22.4316L11.543 19.8047L11.543 11.416C11.543 11.0059 11.9043 10.6641 12.3242 10.6641Z" fill="white" fill-opacity="0.85"/>
 </g>
</svg>
