<svg version="1.1" xmlns="http://www.w3.org/2000/svg" xmlns:xlink="http://www.w3.org/1999/xlink" viewBox="0 0 22.9396 16.9238">
 <g>
  <rect height="16.9238" opacity="0" width="22.9396" x="0" y="0"/>
  <path d="M9.56064 16.9043L16.797 16.9043C17.2364 16.9043 17.5977 16.5625 17.5977 16.123C17.5977 15.6836 17.2364 15.332 16.797 15.332L9.56064 15.332C9.11142 15.332 8.76962 15.6836 8.76962 16.123C8.76962 16.5625 9.11142 16.9043 9.56064 16.9043Z" fill="var(--color-secondary)"/>
  <path d="M9.56064 11.7969L21.7872 11.7969C22.2267 11.7969 22.5782 11.4551 22.5782 11.0156C22.5782 10.5664 22.2267 10.2246 21.7872 10.2246L9.56064 10.2246C9.11142 10.2246 8.76962 10.5664 8.76962 11.0156C8.76962 11.4551 9.11142 11.7969 9.56064 11.7969Z" fill="var(--color-secondary)"/>
  <path d="M9.56064 6.68945L21.7872 6.68945C22.2267 6.68945 22.5782 6.33789 22.5782 5.89844C22.5782 5.45898 22.2267 5.11719 21.7872 5.11719L9.56064 5.11719C9.11142 5.11719 8.76962 5.45898 8.76962 5.89844C8.76962 6.33789 9.11142 6.68945 9.56064 6.68945Z" fill="var(--color-secondary)"/>
  <path d="M9.56064 1.57227L21.7872 1.57227C22.2267 1.57227 22.5782 1.23047 22.5782 0.791016C22.5782 0.351562 22.2267 0 21.7872 0L9.56064 0C9.11142 0 8.76962 0.351562 8.76962 0.791016C8.76962 1.23047 9.11142 1.57227 9.56064 1.57227Z" fill="var(--color-secondary)"/>
  <path d="M1.53329 11.4258L4.76571 9.26758C5.34189 8.87695 5.32236 8.04688 4.76571 7.65625L1.53329 5.45898C0.78134 4.95117-0.00967611 5.23438 8.95111e-05 6.13281L8.95111e-05 10.7617C-0.00967611 11.6309 0.810636 11.8945 1.53329 11.4258Z" fill="var(--color-primary)"/>
 </g>
</svg>
