<?xml version="1.0" encoding="UTF-8"?>
<!--Generator: Apple Native CoreSVG 341-->
<!DOCTYPE svg
PUBLIC "-//W3C//DTD SVG 1.1//EN"
       "http://www.w3.org/Graphics/SVG/1.1/DTD/svg11.dtd">
<svg version="1.1" xmlns="http://www.w3.org/2000/svg" xmlns:xlink="http://www.w3.org/1999/xlink" viewBox="0 0 20.4688 18.3691">
 <g>
  <rect height="18.3691" opacity="0" width="20.4688" x="0" y="0"/>
  <path d="M0.78125 18.3105C1.23047 18.3105 1.57227 17.9492 1.57227 17.5098L1.57227 0.791016C1.57227 0.351562 1.23047 0 0.78125 0C0.341797 0 0 0.351562 0 0.791016L0 17.5098C0 17.9492 0.341797 18.3105 0.78125 18.3105Z" fill="white" fill-opacity="0.425"/>
  <path d="M5.6543 18.3105C6.10352 18.3105 6.44531 17.9492 6.44531 17.5098L6.44531 0.791016C6.44531 0.351562 6.10352 0 5.6543 0C5.21484 0 4.87305 0.351562 4.87305 0.791016L4.87305 17.5098C4.87305 17.9492 5.21484 18.3105 5.6543 18.3105Z" fill="white" fill-opacity="0.425"/>
  <path d="M10.5273 18.3105C10.9766 18.3105 11.3184 17.9492 11.3184 17.5098L11.3184 0.791016C11.3184 0.351562 10.9766 0 10.5273 0C10.0879 0 9.74609 0.351562 9.74609 0.791016L9.74609 17.5098C9.74609 17.9492 10.0879 18.3105 10.5273 18.3105Z" fill="white" fill-opacity="0.425"/>
  <path d="M16.4551 12.1484L19.6875 9.99023C20.2637 9.59961 20.2441 8.76953 19.6875 8.37891L16.4551 6.18164C15.7031 5.67383 14.9121 5.95703 14.9219 6.85547L14.9219 11.4844C14.9121 12.3535 15.7324 12.6172 16.4551 12.1484Z" fill="white" fill-opacity="0.85"/>
 </g>
</svg>
