<?xml version="1.0" encoding="UTF-8"?>
<!--Generator: Apple Native CoreSVG 341-->
<!DOCTYPE svg
PUBLIC "-//W3C//DTD SVG 1.1//EN"
       "http://www.w3.org/Graphics/SVG/1.1/DTD/svg11.dtd">
<svg version="1.1" xmlns="http://www.w3.org/2000/svg" xmlns:xlink="http://www.w3.org/1999/xlink" viewBox="0 0 20.2832 19.9316">
 <g>
  <rect height="19.9316" opacity="0" width="20.2832" x="0" y="0"/>
  <path d="M9.96094 19.9219C15.459 19.9219 19.9219 15.459 19.9219 9.96094C19.9219 4.46289 15.459 0 9.96094 0C4.46289 0 0 4.46289 0 9.96094C0 15.459 4.46289 19.9219 9.96094 19.9219ZM9.96094 18.2617C5.37109 18.2617 1.66016 14.5508 1.66016 9.96094C1.66016 5.37109 5.37109 1.66016 9.96094 1.66016C14.5508 1.66016 18.2617 5.37109 18.2617 9.96094C18.2617 14.5508 14.5508 18.2617 9.96094 18.2617Z" fill="white" fill-opacity="0.85"/>
  <path d="M8.91602 10.791C10.459 10.791 11.6309 9.99023 11.8359 8.49609L12.5977 8.49609C12.793 8.49609 12.9297 8.34961 12.9297 8.17383C12.9297 7.99805 12.793 7.85156 12.5977 7.85156L11.8652 7.85156C11.8066 7.20703 11.5332 6.61133 11.0352 6.20117L12.5977 6.20117C12.793 6.20117 12.9297 6.05469 12.9297 5.87891C12.9297 5.69336 12.793 5.55664 12.5977 5.55664L7.19727 5.55664C6.94336 5.55664 6.79688 5.72266 6.79688 5.99609L6.79688 6.06445C6.79688 6.32812 6.94336 6.49414 7.19727 6.49414L8.78906 6.49414C9.75586 6.49414 10.5273 6.89453 10.6738 7.85156L7.14844 7.85156C6.95312 7.85156 6.80664 7.99805 6.80664 8.17383C6.80664 8.34961 6.95312 8.49609 7.14844 8.49609L10.6738 8.49609C10.5371 9.48242 9.77539 9.84375 8.7793 9.84375L7.43164 9.84375C7.05078 9.84375 6.82617 10.0684 6.82617 10.3906L6.82617 10.4199C6.82617 10.7031 6.94336 10.8691 7.16797 11.0645L10.5078 14.1895C10.6738 14.3457 10.8008 14.4629 11.0547 14.4629C11.3379 14.4629 11.5527 14.2383 11.5527 13.9648C11.5527 13.7793 11.4648 13.6426 11.3184 13.5156L8.4082 10.791Z" fill="white" fill-opacity="0.85"/>
 </g>
</svg>
