<?xml version="1.0" encoding="UTF-8"?>
<!--Generator: Apple Native CoreSVG 341-->
<!DOCTYPE svg
PUBLIC "-//W3C//DTD SVG 1.1//EN"
       "http://www.w3.org/Graphics/SVG/1.1/DTD/svg11.dtd">
<svg version="1.1" xmlns="http://www.w3.org/2000/svg" xmlns:xlink="http://www.w3.org/1999/xlink" viewBox="0 0 18.3398 17.9785">
 <g>
  <rect height="17.9785" opacity="0" width="18.3398" x="0" y="0"/>
  <path d="M17.9785 3.02734L17.9785 14.9609C17.9785 16.9727 16.9629 17.9785 14.9121 17.9785L3.06641 17.9785C1.02539 17.9785 0 16.9727 0 14.9609L0 3.02734C0 1.01562 1.02539 0 3.06641 0L14.9121 0C16.9629 0 17.9785 1.01562 17.9785 3.02734ZM6.15234 4.43359C5.88867 4.43359 5.74219 4.60938 5.74219 4.89258L5.74219 4.96094C5.74219 5.23438 5.88867 5.41016 6.15234 5.41016L7.80273 5.41016C8.79883 5.41016 9.59961 5.82031 9.74609 6.80664L6.10352 6.80664C5.9082 6.80664 5.76172 6.95312 5.76172 7.13867C5.76172 7.32422 5.9082 7.4707 6.10352 7.4707L9.73633 7.4707C9.59961 8.48633 8.81836 8.85742 7.79297 8.85742L6.39648 8.85742C6.01562 8.85742 5.77148 9.0918 5.77148 9.42383L5.77148 9.45312C5.77148 9.74609 5.88867 9.92188 6.12305 10.127L9.57031 13.3496C9.73633 13.5059 9.87305 13.6328 10.1367 13.6328C10.4297 13.6328 10.6543 13.3984 10.6543 13.1152C10.6543 12.9199 10.5566 12.7832 10.4199 12.6465L7.42188 9.84375L7.93945 9.84375C9.52148 9.84375 10.7422 9.01367 10.9473 7.4707L11.7285 7.4707C11.9336 7.4707 12.0801 7.32422 12.0801 7.13867C12.0801 6.95312 11.9336 6.80664 11.7285 6.80664L10.9766 6.80664C10.9082 6.14258 10.6348 5.52734 10.1172 5.10742L11.7285 5.10742C11.9336 5.10742 12.0801 4.95117 12.0801 4.77539C12.0801 4.58008 11.9336 4.43359 11.7285 4.43359Z" fill="white" fill-opacity="0.85"/>
 </g>
</svg>
