<?xml version="1.0" encoding="UTF-8"?>
<!--Generator: Apple Native CoreSVG 341-->
<!DOCTYPE svg
PUBLIC "-//W3C//DTD SVG 1.1//EN"
       "http://www.w3.org/Graphics/SVG/1.1/DTD/svg11.dtd">
<svg version="1.1" xmlns="http://www.w3.org/2000/svg" xmlns:xlink="http://www.w3.org/1999/xlink" viewBox="0 0 20.2832 19.9316">
 <g>
  <rect height="19.9316" opacity="0" width="20.2832" x="0" y="0"/>
  <path d="M19.9219 9.96094C19.9219 15.4492 15.459 19.9219 9.96094 19.9219C4.47266 19.9219 0 15.4492 0 9.96094C0 4.46289 4.47266 0 9.96094 0C15.459 0 19.9219 4.46289 19.9219 9.96094ZM8.36914 8.1543C7.95898 8.1543 7.63672 8.47656 7.63672 8.86719C7.63672 9.28711 7.95898 9.58984 8.36914 9.58984L9.44336 9.58984L9.44336 14.1797L8.20312 14.1797C7.7832 14.1797 7.46094 14.502 7.46094 14.8926C7.46094 15.3125 7.7832 15.6152 8.20312 15.6152L12.2949 15.6152C12.7148 15.6152 13.0371 15.3125 13.0371 14.8926C13.0371 14.502 12.7148 14.1797 12.2949 14.1797L11.0547 14.1797L11.0547 9.07227C11.0547 8.52539 10.7812 8.1543 10.2637 8.1543ZM8.55469 5.16602C8.55469 5.9082 9.14062 6.49414 9.87305 6.49414C10.6055 6.49414 11.1816 5.9082 11.1816 5.16602C11.1816 4.42383 10.6055 3.83789 9.87305 3.83789C9.14062 3.83789 8.55469 4.42383 8.55469 5.16602Z" fill="white" fill-opacity="0.85"/>
 </g>
</svg>
