<svg version="1.1" xmlns="http://www.w3.org/2000/svg" xmlns:xlink="http://www.w3.org/1999/xlink" viewBox="0 0 18.3398 17.9785">
 <g>
  <rect height="17.9785" opacity="0" width="18.3398" x="0" y="0"/>
  <path d="M3.06641 17.9785L14.9121 17.9785C16.9629 17.9785 17.9785 16.9727 17.9785 14.9609L17.9785 3.02734C17.9785 1.01562 16.9629 0 14.9121 0L3.06641 0C1.02539 0 0 1.01562 0 3.02734L0 14.9609C0 16.9727 1.02539 17.9785 3.06641 17.9785ZM3.08594 16.4062C2.10938 16.4062 1.57227 15.8887 1.57227 14.873L1.57227 3.11523C1.57227 2.09961 2.10938 1.57227 3.08594 1.57227L14.8926 1.57227C15.8594 1.57227 16.4062 2.09961 16.4062 3.11523L16.4062 14.873C16.4062 15.8887 15.8594 16.4062 14.8926 16.4062Z" fill="var(--color-secondary)"/>
  <path d="M12.0703 15.0781L14.1992 15.0781C14.8242 15.0781 15.0781 14.834 15.0781 14.2285L15.0781 3.76953C15.0781 3.1543 14.8242 2.91016 14.1992 2.91016L12.0703 2.91016C11.4453 2.91016 11.1914 3.1543 11.1914 3.76953L11.1914 14.2285C11.1914 14.834 11.4453 15.0781 12.0703 15.0781Z" fill="var(--color-primary)"/>
 </g>
</svg>
