<?xml version="1.0" encoding="UTF-8"?>
<!--Generator: Apple Native CoreSVG 341-->
<!DOCTYPE svg
PUBLIC "-//W3C//DTD SVG 1.1//EN"
       "http://www.w3.org/Graphics/SVG/1.1/DTD/svg11.dtd">
<svg version="1.1" xmlns="http://www.w3.org/2000/svg" xmlns:xlink="http://www.w3.org/1999/xlink" viewBox="0 0 17.9004 22.959">
 <g>
  <rect height="22.959" opacity="0" width="17.9004" x="0" y="0"/>
  <path d="M8.76953 22.9492C14.082 22.9492 17.5391 19.6387 17.5391 14.3652L17.5391 8.58398C17.5391 3.31055 14.082 0 8.76953 0C3.45703 0 0 3.31055 0 8.58398L0 14.3652C0 19.6387 3.45703 22.9492 8.76953 22.9492ZM8.76953 21.3672C4.41406 21.3672 1.5918 18.8086 1.5918 14.6582L1.5918 8.29102C1.5918 4.14062 4.41406 1.57227 8.76953 1.57227C13.125 1.57227 15.9473 4.14062 15.9473 8.29102L15.9473 14.6582C15.9473 18.8086 13.125 21.3672 8.76953 21.3672Z" fill="white" fill-opacity="0.425"/>
  <path d="M8.76953 20.0391C4.93164 20.0391 2.92969 18.2129 2.92969 14.6582L2.92969 8.29102C2.92969 4.73633 4.93164 2.91016 8.76953 2.91016C12.6074 2.91016 14.6094 4.73633 14.6094 8.29102L14.6094 14.6582C14.6094 18.2129 12.6074 20.0391 8.76953 20.0391Z" fill="white" fill-opacity="0.85"/>
 </g>
</svg>
