<svg version="1.1" xmlns="http://www.w3.org/2000/svg" xmlns:xlink="http://www.w3.org/1999/xlink" viewBox="0 0 28.2068 25.9465">
 <g>
  <rect height="25.9465" opacity="0" width="28.2068" x="0" y="0"/>
  <path d="M25.4315 7.01133L25.4315 15.9041L23.8593 14.2888L23.8593 7.09922C23.8593 6.0836 23.3124 5.55625 22.3456 5.55625L5.49013 5.55625C4.51357 5.55625 3.97646 6.0836 3.97646 7.09922L3.97646 18.857C3.97646 19.8727 4.51357 20.3902 5.49013 20.3902L19.3641 20.3902L19.3476 21.7086C19.3464 21.796 19.3512 21.8809 19.3626 21.9625L5.4706 21.9625C3.42958 21.9625 2.40419 20.9566 2.40419 18.9449L2.40419 7.01133C2.40419 4.99961 3.42958 3.98399 5.4706 3.98399L22.3651 3.98399C24.4159 3.98399 25.4315 4.99961 25.4315 7.01133Z" fill="var(--color-primary)"/>
  <path d="M22.5311 7.77305L22.5311 12.9243L22.3554 12.7438C21.2811 11.6598 19.4647 12.3727 19.4452 13.9059L19.3807 19.0621L6.16396 19.0621C5.61708 19.0621 5.31435 18.7398 5.31435 18.1832L5.31435 7.77305C5.31435 7.21641 5.61708 6.89414 6.16396 6.89414L21.6718 6.89414C22.2186 6.89414 22.5311 7.21641 22.5311 7.77305Z" fill="var(--color-tertiary)"/>
  <path d="M25.4315 24.5504C25.8612 24.3746 26.0663 23.8863 25.8808 23.4566L24.3573 19.902L26.4569 19.8238C26.828 19.8043 27.0038 19.443 26.7401 19.1695L21.4081 13.6813C21.1542 13.4273 20.7831 13.5738 20.7733 13.9352L20.6854 21.7281C20.6757 22.109 21.1249 22.2359 21.369 21.9918L22.8534 20.4977L24.3183 24.1012C24.4843 24.5211 24.9921 24.7262 25.4315 24.5504Z" fill="var(--color-primary)"/>
 </g>
</svg>
