<?xml version="1.0" encoding="UTF-8"?>
<!--Generator: Apple Native CoreSVG 341-->
<!DOCTYPE svg
PUBLIC "-//W3C//DTD SVG 1.1//EN"
       "http://www.w3.org/Graphics/SVG/1.1/DTD/svg11.dtd">
<svg version="1.1" xmlns="http://www.w3.org/2000/svg" xmlns:xlink="http://www.w3.org/1999/xlink" viewBox="0 0 23.3887 17.9785">
 <g>
  <rect height="17.9785" opacity="0" width="23.3887" x="0" y="0"/>
  <path d="M3.06641 17.9785L19.9609 17.9785C22.0117 17.9785 23.0273 16.9727 23.0273 14.9609L23.0273 3.02734C23.0273 1.01562 22.0117 0 19.9609 0L3.06641 0C1.02539 0 0 1.01562 0 3.02734L0 14.9609C0 16.9727 1.02539 17.9785 3.06641 17.9785ZM3.08594 16.4062C2.10938 16.4062 1.57227 15.8887 1.57227 14.873L1.57227 3.11523C1.57227 2.09961 2.10938 1.57227 3.08594 1.57227L19.9414 1.57227C20.9082 1.57227 21.4551 2.09961 21.4551 3.11523L21.4551 14.873C21.4551 15.8887 20.9082 16.4062 19.9414 16.4062Z" fill="white" fill-opacity="0.85"/>
  <path d="M3.75977 15.0781L10.6738 15.0781C11.2891 15.0781 11.5332 14.8242 11.5332 14.1992L11.5332 3.78906C11.5332 3.16406 11.2891 2.91016 10.6738 2.91016L3.75977 2.91016C3.1543 2.91016 2.91016 3.16406 2.91016 3.78906L2.91016 14.1992C2.91016 14.8242 3.1543 15.0781 3.75977 15.0781Z" fill="white" fill-opacity="0.85"/>
  <path d="M13.0957 8.98438C13.0957 9.16016 13.1445 9.28711 13.3203 9.46289L15.9082 12.2363C16.0352 12.3828 16.1816 12.4609 16.377 12.4609C16.709 12.4609 16.9629 12.207 16.9629 11.8652C16.9629 11.6992 16.8945 11.5234 16.7676 11.4062L15.7129 10.3613L14.248 8.98438L15.7129 7.60742L16.7676 6.5625C16.8945 6.44531 16.9629 6.2793 16.9629 6.11328C16.9629 5.75195 16.709 5.49805 16.377 5.49805C16.1816 5.49805 16.0352 5.57617 15.9082 5.73242L13.3203 8.50586C13.1543 8.68164 13.0957 8.80859 13.0957 8.98438ZM19.7266 8.98438C19.7363 8.63281 19.4238 8.32031 19.082 8.32031L16.3477 8.32031L14.1113 8.38867C13.7793 8.39844 13.5156 8.65234 13.5156 8.98438C13.5156 9.31641 13.7793 9.57031 14.1113 9.58008L16.3477 9.63867L19.082 9.63867C19.4238 9.63867 19.7168 9.33594 19.7266 8.98438Z" fill="white" fill-opacity="0.85"/>
 </g>
</svg>
