<?xml version="1.0" encoding="UTF-8"?>
<!--Generator: Apple Native CoreSVG 341-->
<!DOCTYPE svg
PUBLIC "-//W3C//DTD SVG 1.1//EN"
       "http://www.w3.org/Graphics/SVG/1.1/DTD/svg11.dtd">
<svg version="1.1" xmlns="http://www.w3.org/2000/svg" xmlns:xlink="http://www.w3.org/1999/xlink" viewBox="0 0 21.7188 24.2676">
 <g>
  <rect height="24.2676" opacity="0" width="21.7188" x="0" y="0"/>
  <path d="M5.52734 6.48438L5.52734 19.8145L2.35352 19.8145L2.35352 4.44336L6.15939 4.44336C5.75583 4.99753 5.52734 5.6951 5.52734 6.48438Z" fill="white" fill-opacity="0.2125"/>
  <path d="M17.0262 3.05664L9.05273 3.05664C7.81249 3.05664 6.77778 3.57951 6.15939 4.44336L2.35352 4.44336L2.35352 19.8145L5.52734 19.8145L5.52734 20.8398C5.52734 21.7492 5.83067 22.5369 6.35382 23.125L3.48633 23.125C1.875 23.125 0.78125 22.0898 0.78125 20.5469L0.78125 3.71094C0.78125 2.16797 1.875 1.12305 3.48633 1.12305L14.3945 1.12305C15.7736 1.12305 16.764 1.87927 17.0262 3.05664Z" fill="white" fill-opacity="0.85"/>
  <path d="M8.24219 20.0195L8.24219 7.31445L18.9941 7.31445L18.9941 20.0195Z" fill="white" fill-opacity="0.2125"/>
  <path d="M9.05273 23.125L18.1934 23.125C19.6191 23.125 20.5762 22.207 20.5762 20.8398L20.5762 6.48438C20.5762 5.11719 19.6191 4.19922 18.1934 4.19922L9.05273 4.19922C7.62695 4.19922 6.66992 5.11719 6.66992 6.48438L6.66992 20.8398C6.66992 22.207 7.62695 23.125 9.05273 23.125ZM13.3691 6.25C13.1152 6.25 12.9004 6.03516 12.9004 5.77148C12.9004 5.51758 13.1152 5.29297 13.3691 5.29297C13.623 5.29297 13.8477 5.51758 13.8477 5.77148C13.8477 6.03516 13.623 6.25 13.3691 6.25ZM8.24219 20.0195L8.24219 7.31445L18.9941 7.31445L18.9941 20.0195ZM13.3789 22.2754C12.9688 22.2754 12.627 21.9336 12.627 21.5234C12.627 21.1133 12.9688 20.7715 13.3789 20.7715C13.7891 20.7715 14.1309 21.1133 14.1309 21.5234C14.1309 21.9336 13.7891 22.2754 13.3789 22.2754Z" fill="white" fill-opacity="0.85"/>
 </g>
</svg>
