<?xml version="1.0" encoding="UTF-8"?>
<!--Generator: Apple Native CoreSVG 341-->
<!DOCTYPE svg
PUBLIC "-//W3C//DTD SVG 1.1//EN"
       "http://www.w3.org/Graphics/SVG/1.1/DTD/svg11.dtd">
<svg version="1.1" xmlns="http://www.w3.org/2000/svg" xmlns:xlink="http://www.w3.org/1999/xlink" viewBox="0 0 20.2832 19.9316">
 <g>
  <rect height="19.9316" opacity="0" width="20.2832" x="0" y="0"/>
  <path d="M9.98047 12.7734C9.53125 12.7734 9.16016 12.4121 9.16016 11.9629C9.16016 11.5234 9.53125 11.1719 9.98047 11.1719C10.4102 11.1719 10.7715 11.5234 10.7715 11.9629C10.7715 12.4121 10.4102 12.7734 9.98047 12.7734ZM16.6016 3.54492L15.2734 2.38281L15.2734 10.5762L4.64844 10.5762L4.64844 2.49023L3.32031 3.53516L3.32031 11.2695C3.32031 12.5293 4.19922 13.3789 5.51758 13.3789L14.4043 13.3789C15.7227 13.3789 16.6016 12.5293 16.6016 11.2695ZM9.96094 19.9219C15.459 19.9219 19.9219 15.459 19.9219 9.96094C19.9219 4.46289 15.459 0 9.96094 0C4.46289 0 0 4.46289 0 9.96094C0 15.459 4.46289 19.9219 9.96094 19.9219ZM9.96094 18.2617C5.37109 18.2617 1.66016 14.5508 1.66016 9.96094C1.66016 5.37109 5.37109 1.66016 9.96094 1.66016C14.5508 1.66016 18.2617 5.37109 18.2617 9.96094C18.2617 14.5508 14.5508 18.2617 9.96094 18.2617Z" fill="white" fill-opacity="0.85"/>
 </g>
</svg>
