<svg version="1.1" xmlns="http://www.w3.org/2000/svg" xmlns:xlink="http://www.w3.org/1999/xlink" viewBox="0 0 22.6416 22.312">
 <g>
  <rect height="22.312" opacity="0" width="22.6416" x="0" y="0"/>
  <path d="M4.56299 7.26653L4.56299 18.8367L16.127 18.8367L18.641 21.3519C18.1659 21.8567 17.4576 22.1472 16.604 22.1472L5.68604 22.1472C4.07471 22.1472 2.99072 21.1121 2.99072 19.5691L2.99072 5.69343ZM10.3052 20.3308C10.3052 20.7996 10.686 21.1804 11.1548 21.1804C11.6235 21.1804 11.9946 20.7996 11.9946 20.3308C11.9946 19.8718 11.6235 19.491 11.1548 19.491C10.686 19.491 10.3052 19.8718 10.3052 20.3308ZM19.3091 2.73316L19.3091 16.6577L17.7368 15.0846L17.7368 3.46558L6.12396 3.46558L3.6308 0.9711C4.10345 0.448323 4.81827 0.14527 5.68604 0.14527L16.604 0.14527C18.2153 0.14527 19.3091 1.19019 19.3091 2.73316ZM10.6079 1.93238C10.6079 2.22535 10.8521 2.46949 11.145 2.46949C11.4282 2.46949 11.6821 2.22535 11.6821 1.93238C11.6821 1.64918 11.4282 1.39527 11.145 1.39527C10.8521 1.39527 10.6079 1.64918 10.6079 1.93238Z" fill="var(--color-secondary)"/>
  <path d="M19.8462 20.9461C20.1392 21.2488 20.6274 21.2488 20.9106 20.9461C21.2036 20.6531 21.2134 20.1843 20.9204 19.8816L2.43408 1.3855C2.14111 1.09254 1.65283 1.08277 1.35986 1.3855C1.07666 1.66871 1.07666 2.15699 1.35986 2.44996Z" fill="var(--color-primary)"/>
 </g>
</svg>
