<?xml version="1.0" encoding="UTF-8"?>
<!--Generator: Apple Native CoreSVG 341-->
<!DOCTYPE svg
PUBLIC "-//W3C//DTD SVG 1.1//EN"
       "http://www.w3.org/Graphics/SVG/1.1/DTD/svg11.dtd">
<svg version="1.1" xmlns="http://www.w3.org/2000/svg" xmlns:xlink="http://www.w3.org/1999/xlink" viewBox="0 0 24.082 20.6934">
 <g>
  <rect height="20.6934" opacity="0" width="24.082" x="0" y="0"/>
  <path d="M18.1348 2.53906L18.1348 7.72461L16.5625 7.72461L16.5625 2.79297C16.5625 2.01172 16.1035 1.57227 15.2832 1.57227L8.44727 1.57227C7.61719 1.57227 7.1582 2.01172 7.1582 2.79297L7.1582 17.8809C7.1582 18.6621 7.61719 19.1016 8.44727 19.1016L15.2832 19.1016C16.1035 19.1016 16.5625 18.6621 16.5625 17.8809L16.5625 12.9395L18.1348 12.9395L18.1348 18.1348C18.1348 19.6582 17.0703 20.6738 15.4785 20.6738L8.24219 20.6738C6.65039 20.6738 5.58594 19.6582 5.58594 18.1348L5.58594 2.53906C5.58594 1.01562 6.65039 0 8.24219 0L15.4785 0C17.0703 0 18.1348 1.01562 18.1348 2.53906Z" fill="white" fill-opacity="0.425"/>
  <path d="M19.5117 7.02148C19.5117 7.20703 19.5898 7.42188 19.7461 7.55859L21.3574 9.0625L22.7051 10.332L21.3574 11.5918L19.7461 13.1055C19.5898 13.2422 19.5117 13.4473 19.5117 13.6328C19.5117 14.0332 19.8047 14.3457 20.2051 14.3457C20.4102 14.3457 20.5664 14.2578 20.7129 14.1113L23.8184 10.8984C24.0137 10.7031 24.082 10.5273 24.082 10.332C24.082 10.127 24.0137 9.96094 23.8184 9.76562L20.7129 6.54297C20.5664 6.39648 20.4102 6.31836 20.2051 6.31836C19.8047 6.31836 19.5117 6.61133 19.5117 7.02148ZM11.8848 10.332C11.8848 10.752 12.2363 11.1035 12.6465 11.1035L20.4785 11.1035L23.1055 10.9863C23.4668 10.9668 23.7598 10.6934 23.7598 10.332C23.7598 9.9707 23.4668 9.69727 23.1055 9.67773L20.4785 9.55078L12.6465 9.55078C12.2363 9.55078 11.8848 9.91211 11.8848 10.332Z" fill="white" fill-opacity="0.85"/>
 </g>
</svg>
