<?xml version="1.0" encoding="UTF-8"?>
<!--Generator: Apple Native CoreSVG 341-->
<!DOCTYPE svg
PUBLIC "-//W3C//DTD SVG 1.1//EN"
       "http://www.w3.org/Graphics/SVG/1.1/DTD/svg11.dtd">
<svg version="1.1" xmlns="http://www.w3.org/2000/svg" xmlns:xlink="http://www.w3.org/1999/xlink" viewBox="0 0 21.0547 20.0415">
 <g>
  <rect height="20.0415" opacity="0" width="21.0547" x="0" y="0"/>
  <path d="M3.31055 5.70779L3.31055 14.7229L12.3311 14.7229L13.9043 16.2952L2.53906 16.2952C1.01562 16.2952 0 15.221 0 13.6292L0 6.39283C0 5.18976 0.580144 4.28793 1.52181 3.92013ZM20.6934 6.39283L20.6934 13.6292C20.6934 14.8601 20.0802 15.7815 19.0961 16.1334L17.373 14.4104L17.373 5.30884L8.27148 5.30884L6.69922 3.73658L18.1445 3.73658C19.668 3.73658 20.6934 4.80103 20.6934 6.39283ZM1.34766 8.52173L1.34766 11.5003C1.34766 11.7151 1.48438 11.8616 1.70898 11.8616C1.93359 11.8616 2.08008 11.7151 2.08008 11.5003L2.08008 8.52173C2.08008 8.30689 1.93359 8.16041 1.70898 8.16041C1.48438 8.16041 1.34766 8.30689 1.34766 8.52173ZM18.0273 10.0061C18.0273 10.4749 18.4082 10.8557 18.8672 10.8557C19.3457 10.8557 19.7168 10.4749 19.7168 10.0061C19.7168 9.53736 19.3457 9.16627 18.8672 9.16627C18.4082 9.16627 18.0273 9.53736 18.0273 10.0061Z" fill="white" fill-opacity="0.85"/>
  <path d="M17.9102 18.678C18.2031 18.9807 18.6816 18.971 18.9746 18.678C19.2578 18.3948 19.2676 17.9163 18.9746 17.6135L2.7832 1.44166C2.49023 1.14869 2.01172 1.13892 1.70898 1.44166C1.42578 1.72486 1.42578 2.22291 1.70898 2.50611Z" fill="white" fill-opacity="0.85"/>
 </g>
</svg>
