<?xml version="1.0" encoding="UTF-8"?>
<!--Generator: Apple Native CoreSVG 341-->
<!DOCTYPE svg
PUBLIC "-//W3C//DTD SVG 1.1//EN"
       "http://www.w3.org/Graphics/SVG/1.1/DTD/svg11.dtd">
<svg version="1.1" xmlns="http://www.w3.org/2000/svg" xmlns:xlink="http://www.w3.org/1999/xlink" viewBox="0 0 21.0547 20.0415">
 <g>
  <rect height="20.0415" opacity="0" width="21.0547" x="0" y="0"/>
  <path d="M2.90159 5.29908L2.8125 5.29908C2.02148 5.29908 1.58203 5.76783 1.58203 6.58814L1.58203 7.83814C1.58203 7.98463 1.66992 8.07252 1.81641 8.07252L2.04102 8.07252C2.44141 8.07252 2.72461 8.33619 2.72461 8.73658L2.72461 11.2659C2.72461 11.6663 2.44141 11.9299 2.04102 11.9299L1.81641 11.9299C1.66992 11.9299 1.58203 12.0178 1.58203 12.1643L1.58203 13.4241C1.58203 14.2444 2.02148 14.7131 2.8125 14.7131L12.3213 14.7131L13.8946 16.2854L2.55859 16.2854C1.03516 16.2854 0 15.2112 0 13.6194L0 6.38306C0 5.18812 0.583349 4.29035 1.51877 3.91709ZM20.6934 6.38306L20.6934 13.6194C20.6934 14.8559 20.0805 15.7801 19.091 16.1283L17.6758 14.7131L17.9004 14.7131C18.6816 14.7131 19.1211 14.2444 19.1211 13.4241L19.1211 6.58814C19.1211 5.76783 18.6816 5.29908 17.9004 5.29908L8.26172 5.29908L6.68945 3.72681L18.1543 3.72681C19.6777 3.72681 20.6934 4.79127 20.6934 6.38306ZM11.5982 13.9905L7.75391 13.9905C7.49023 13.9905 7.30469 13.8049 7.30469 13.5315C7.30469 13.2581 7.49023 13.0823 7.75391 13.0823L10.6895 13.0823Z" fill="white" fill-opacity="0.425"/>
  <path d="M17.9102 18.678C18.2031 18.9807 18.6816 18.971 18.9746 18.678C19.2578 18.3948 19.2676 17.9163 18.9746 17.6135L2.7832 1.44166C2.49023 1.14869 2.01172 1.13892 1.70898 1.44166C1.42578 1.72486 1.42578 2.22291 1.70898 2.50611Z" fill="white" fill-opacity="0.85"/>
 </g>
</svg>
