<svg version="1.1" xmlns="http://www.w3.org/2000/svg" xmlns:xlink="http://www.w3.org/1999/xlink" viewBox="0 0 14.834 25.9277">
 <g>
  <rect height="25.9277" opacity="0" width="14.834" x="0" y="0"/>
  <path d="M9.19922 1.95312L9.19922 2.03125L11.7773 2.03125C13.4863 2.03125 14.4727 3.03711 14.4727 4.77539L14.4727 18.7207C14.4727 20.4492 13.4863 21.4648 11.7773 21.4648L7.8125 21.4648L7.8125 22.7441C7.8125 23.8672 8.38867 24.3359 9.51172 24.3359L13.7695 24.3359C14.1602 24.3359 14.4727 24.6582 14.4727 25.0586C14.4727 25.4492 14.1602 25.7617 13.7695 25.7617L9.51172 25.7617C7.59766 25.7617 6.38672 24.6582 6.38672 22.7441L6.38672 21.4648L2.69531 21.4648C0.986328 21.4648 0 20.4492 0 18.7207L0 4.77539C0 3.03711 0.986328 2.03125 2.69531 2.03125L5.27344 2.03125L5.27344 1.95312C5.27344 0.800781 6.06445 0.00976562 7.23633 0C8.4082 0.00976562 9.19922 0.800781 9.19922 1.95312ZM2.77344 3.65234C2.04102 3.65234 1.63086 4.07227 1.63086 4.79492L1.63086 18.7012C1.63086 19.4238 2.04102 19.8438 2.77344 19.8438L11.6992 19.8438C12.4316 19.8438 12.8418 19.4238 12.8418 18.7012L12.8418 4.79492C12.8418 4.07227 12.4316 3.65234 11.6992 3.65234ZM6.52344 1.97266C6.52344 2.37305 6.83594 2.69531 7.23633 2.69531C7.63672 2.69531 7.94922 2.37305 7.94922 1.97266C7.94922 1.58203 7.63672 1.25977 7.23633 1.25977C6.83594 1.25977 6.52344 1.58203 6.52344 1.97266Z" fill="var(--color-primary)"/>
  <path d="M11.4844 6.98242L11.4844 17.5C11.4844 18.0859 11.0938 18.4668 10.498 18.4668L3.99414 18.4668C3.39844 18.4668 3.00781 18.0859 3.00781 17.5L3.00781 6.98242C3.00781 6.39648 3.39844 6.01562 3.99414 6.01562L10.498 6.01562C11.0938 6.01562 11.4844 6.39648 11.4844 6.98242ZM6.03516 15.5957C5.74219 15.5957 5.55664 15.8105 5.55664 16.084C5.55664 16.3477 5.74219 16.5527 6.03516 16.5527L8.45703 16.5527C8.74023 16.5527 8.93555 16.3477 8.93555 16.084C8.93555 15.8105 8.74023 15.5957 8.45703 15.5957ZM5.29297 13.5547C5 13.5547 4.80469 13.7695 4.80469 14.0332C4.80469 14.3066 5 14.5117 5.29297 14.5117L9.22852 14.5117C9.50195 14.5117 9.70703 14.3066 9.70703 14.0332C9.70703 13.7695 9.50195 13.5547 9.22852 13.5547ZM6.96289 7.86133L6.17188 9.32617C5.9375 9.74609 5.69336 10.2148 5.69336 10.6836C5.69336 11.543 6.39648 12.1973 7.23633 12.1973C8.08594 12.1973 8.7793 11.543 8.7793 10.6836C8.7793 10.2148 8.53516 9.74609 8.30078 9.32617L7.50977 7.86133C7.34375 7.53906 7.12891 7.54883 6.96289 7.86133Z" fill="var(--color-primary)"/>
 </g>
</svg>
