<?xml version="1.0" encoding="UTF-8"?>
<!--Generator: Apple Native CoreSVG 341-->
<!DOCTYPE svg
PUBLIC "-//W3C//DTD SVG 1.1//EN"
       "http://www.w3.org/Graphics/SVG/1.1/DTD/svg11.dtd">
<svg version="1.1" xmlns="http://www.w3.org/2000/svg" xmlns:xlink="http://www.w3.org/1999/xlink" viewBox="0 0 18.3398 17.9785">
 <g>
  <rect height="17.9785" opacity="0" width="18.3398" x="0" y="0"/>
  <path d="M3.06641 17.9785L14.9121 17.9785C16.9629 17.9785 17.9785 16.9727 17.9785 14.9609L17.9785 3.02734C17.9785 1.01562 16.9629 0 14.9121 0L3.06641 0C1.02539 0 0 1.01562 0 3.02734L0 14.9609C0 16.9727 1.02539 17.9785 3.06641 17.9785ZM3.08594 16.4062C2.10938 16.4062 1.57227 15.8887 1.57227 14.873L1.57227 3.11523C1.57227 2.09961 2.10938 1.57227 3.08594 1.57227L14.8926 1.57227C15.8594 1.57227 16.4062 2.09961 16.4062 3.11523L16.4062 14.873C16.4062 15.8887 15.8594 16.4062 14.8926 16.4062Z" fill="white" fill-opacity="0.85"/>
  <path d="M6.44531 13.457C6.95312 13.457 7.23633 13.125 7.23633 12.5781L7.23633 10.5469L8.42773 9.31641L11.2793 13.0762C11.4746 13.3398 11.6797 13.457 11.9531 13.457C12.3926 13.457 12.7051 13.1445 12.7051 12.7246C12.7051 12.5293 12.627 12.3145 12.4902 12.1289L9.57031 8.31055L12.2559 5.55664C12.4219 5.37109 12.4902 5.20508 12.4902 4.99023C12.4902 4.62891 12.1777 4.32617 11.7773 4.32617C11.5332 4.32617 11.3672 4.41406 11.1426 4.63867L7.29492 8.56445L7.23633 8.56445L7.23633 5.20508C7.23633 4.6582 6.95312 4.32617 6.44531 4.32617C5.9668 4.32617 5.67383 4.6582 5.67383 5.20508L5.67383 12.5781C5.67383 13.125 5.9668 13.457 6.44531 13.457Z" fill="white" fill-opacity="0.85"/>
 </g>
</svg>
