<svg version="1.1" xmlns="http://www.w3.org/2000/svg" xmlns:xlink="http://www.w3.org/1999/xlink" viewBox="0 0 37.3926 15.8887">
 <g>
  <rect height="15.8887" opacity="0" width="37.3926" x="0" y="0"/>
  <path d="M2.49023 13.8379L3.71094 13.8379C3.64258 13.5352 3.59375 13.2422 3.59375 12.9199C3.59375 10.8398 5.27344 9.16992 7.34375 9.16992C9.42383 9.16992 11.0938 10.8398 11.0938 12.9199C11.0938 13.2422 11.0547 13.5449 10.9863 13.8379L24.3262 13.8379C24.248 13.5352 24.209 13.2422 24.209 12.9199C24.209 10.8496 25.8887 9.16992 27.959 9.16992C30.0391 9.16992 31.709 10.8398 31.709 12.9199C31.709 13.2422 31.6699 13.5352 31.5918 13.8379L34.5508 13.8379C36.1035 13.8379 37.0312 12.8809 37.0312 11.2891L37.0312 7.45117C37.0312 5.85938 36.1035 4.90234 34.5508 4.90234L26.5918 4.90234L26.3574 2.91016C26.1328 0.976562 25.0488 0 23.125 0L19.1797 0C16.0352 0 14.1016 0.488281 11.9336 1.85547L7.93945 4.35547L4.29688 4.91211C1.33789 5.36133 0 6.63086 0 8.92578L0 11.2891C0 12.8809 0.9375 13.8379 2.49023 13.8379ZM7.34375 15.5273C8.80859 15.5273 9.96094 14.375 9.96094 12.9199C9.96094 11.4648 8.79883 10.3027 7.34375 10.3027C5.89844 10.3027 4.73633 11.4648 4.73633 12.9199C4.73633 14.3652 5.89844 15.5273 7.34375 15.5273ZM27.959 15.5273C29.4141 15.5273 30.5762 14.3652 30.5762 12.9199C30.5762 11.4648 29.4141 10.3027 27.959 10.3027C26.5137 10.3027 25.3418 11.4746 25.3418 12.9199C25.3418 14.3652 26.5039 15.5273 27.959 15.5273Z" fill="var(--color-tertiary)"/>
  <path d="M23.2812 7.07031C23.2812 8.73047 21.9434 10.0684 20.293 10.0684C19.0039 10.0684 17.9297 9.25781 17.3633 7.80273L16.0938 9.05273C15.9863 9.16016 15.8398 9.17969 15.7617 9.08203L14.4922 7.80273L13.584 8.73047C13.4766 8.83789 13.3398 8.83789 13.2422 8.73047L11.7578 7.24609C11.6699 7.13867 11.6797 7.00195 11.7578 6.9043L12.5391 6.12305C12.6465 6.03516 12.7344 5.99609 12.8418 5.99609L17.4805 5.99609C17.9297 4.82422 19.0332 4.07227 20.293 4.07227C21.9531 4.07227 23.2812 5.41016 23.2812 7.07031ZM21.8555 7.06055C21.8555 6.54297 21.4258 6.14258 20.9277 6.14258C20.4004 6.14258 20 6.55273 20 7.06055C20 7.57812 20.4004 7.98828 20.9277 7.98828C21.4258 7.98828 21.8555 7.57812 21.8555 7.06055Z" fill="var(--color-primary)"/>
 </g>
</svg>
