<?xml version="1.0" encoding="UTF-8"?>
<!--Generator: Apple Native CoreSVG 341-->
<!DOCTYPE svg
PUBLIC "-//W3C//DTD SVG 1.1//EN"
       "http://www.w3.org/Graphics/SVG/1.1/DTD/svg11.dtd">
<svg version="1.1" xmlns="http://www.w3.org/2000/svg" xmlns:xlink="http://www.w3.org/1999/xlink" viewBox="0 0 20.2832 19.9316">
 <g>
  <rect height="19.9316" opacity="0" width="20.2832" x="0" y="0"/>
  <path d="M9.96094 19.9316C15.459 19.9316 19.9219 15.4688 19.9219 9.9707C19.9219 4.48242 15.459 0.00976562 9.96094 0.00976562C4.47266 0.00976562 0 4.48242 0 9.9707C0 15.4688 4.47266 19.9316 9.96094 19.9316Z" fill="white" fill-opacity="0.2125"/>
  <path d="M9.96094 3.84766C11.7969 3.84766 13.2422 5.32227 13.2422 7.12891C13.2422 8.54492 12.3633 9.70703 10.7812 10.332L12.1484 11.7285C12.2559 11.8359 12.2559 12.002 12.1582 12.0898L10.7715 13.4766L11.7871 14.4727C11.875 14.5801 11.8848 14.7363 11.7871 14.8438L10.1465 16.4648C10.0391 16.582 9.86328 16.5527 9.77539 16.4551L8.91602 15.6055C8.81836 15.498 8.78906 15.4102 8.78906 15.2832L8.78906 10.2051C7.49023 9.70703 6.67969 8.50586 6.67969 7.12891C6.67969 5.3125 8.14453 3.84766 9.96094 3.84766ZM9.96094 7.04102C10.4883 7.04102 10.9082 6.62109 10.9082 6.09375C10.9082 5.56641 10.4883 5.15625 9.96094 5.15625C9.43359 5.15625 9.02344 5.56641 9.02344 6.09375C9.02344 6.62109 9.43359 7.04102 9.96094 7.04102Z" fill="white" fill-opacity="0.85"/>
 </g>
</svg>
