<?xml version="1.0" encoding="UTF-8"?>
<!--Generator: Apple Native CoreSVG 341-->
<!DOCTYPE svg
PUBLIC "-//W3C//DTD SVG 1.1//EN"
       "http://www.w3.org/Graphics/SVG/1.1/DTD/svg11.dtd">
<svg version="1.1" xmlns="http://www.w3.org/2000/svg" xmlns:xlink="http://www.w3.org/1999/xlink" viewBox="0 0 23.0176 20.9473">
 <g>
  <rect height="20.9473" opacity="0" width="23.0176" x="0" y="0"/>
  <path d="M19.5996 17.1777C19.9609 17.4219 20.4102 17.334 20.6738 16.9629C21.9238 15.2441 22.6562 12.8809 22.6562 10.4688C22.6562 8.05664 21.9336 5.67383 20.6738 3.97461C20.4102 3.60352 19.9609 3.51562 19.5996 3.75977C19.2383 4.00391 19.1797 4.46289 19.4629 4.86328C20.5273 6.36719 21.1426 8.38867 21.1426 10.4688C21.1426 12.5488 20.5078 14.5508 19.4629 16.0742C19.1895 16.4746 19.2383 16.9336 19.5996 17.1777Z" fill="white" fill-opacity="0.425"/>
  <path d="M15.9766 14.6289C16.3086 14.8535 16.7676 14.7852 17.0312 14.4043C17.7832 13.418 18.2227 11.9629 18.2227 10.4688C18.2227 8.97461 17.7832 7.5293 17.0312 6.5332C16.7676 6.15234 16.3086 6.07422 15.9766 6.30859C15.5859 6.58203 15.5176 7.07031 15.8203 7.4707C16.3965 8.25195 16.709 9.33594 16.709 10.4688C16.709 11.6016 16.3867 12.6758 15.8203 13.4668C15.5273 13.877 15.5859 14.3457 15.9766 14.6289Z" fill="white" fill-opacity="0.425"/>
  <path d="M0 17.9785C0 19.5215 0.966797 20.9375 3.32031 20.9375L9.36523 20.9375C11.7188 20.9375 12.6855 19.5215 12.6855 17.9785L12.6855 2.96875C12.6855 1.42578 11.7188 0 9.36523 0L3.32031 0C0.966797 0 0 1.42578 0 2.96875ZM1.57227 17.9492L1.57227 2.99805C1.57227 2.40234 1.96289 1.57227 3.39844 1.57227L9.28711 1.57227C10.7227 1.57227 11.1133 2.40234 11.1133 2.99805L11.1133 17.9492C11.1133 18.5449 10.7227 19.3652 9.28711 19.3652L3.39844 19.3652C1.96289 19.3652 1.57227 18.5449 1.57227 17.9492ZM2.87109 3.91602L9.81445 3.91602C9.95117 3.91602 10.0586 3.79883 10.0586 3.66211L10.0586 3.33984C10.0586 2.94922 9.73633 2.62695 9.35547 2.62695L3.33008 2.62695C2.94922 2.62695 2.62695 2.94922 2.62695 3.33984L2.62695 3.66211C2.62695 3.79883 2.73438 3.91602 2.87109 3.91602ZM6.35742 6.58203C4.76562 6.58203 3.50586 7.8418 3.50586 9.41406C3.50586 10.5859 4.19922 11.6309 5.29297 12.0605L5.29297 16.3184C5.29297 16.4453 5.33203 16.543 5.42969 16.6406L6.15234 17.373C6.24023 17.4609 6.42578 17.4805 6.54297 17.373L7.92969 15.9961C8.05664 15.8789 8.04688 15.7129 7.92969 15.5859L7.11914 14.7949L8.24219 13.6621C8.34961 13.5547 8.34961 13.3887 8.24219 13.2715L7.13867 12.1582C8.44727 11.6113 9.18945 10.6055 9.18945 9.41406C9.18945 7.85156 7.91992 6.58203 6.35742 6.58203ZM6.34766 9.29688C5.89844 9.29688 5.54688 8.93555 5.54688 8.50586C5.54688 8.06641 5.88867 7.71484 6.34766 7.71484C6.77734 7.71484 7.12891 8.06641 7.12891 8.50586C7.12891 8.93555 6.77734 9.29688 6.34766 9.29688Z" fill="white" fill-opacity="0.85"/>
 </g>
</svg>
