<svg version="1.1" xmlns="http://www.w3.org/2000/svg" xmlns:xlink="http://www.w3.org/1999/xlink" viewBox="0 0 23.3887 17.9785">
 <g>
  <rect height="17.9785" opacity="0" width="23.3887" x="0" y="0"/>
  <path d="M4.26758 8.75977L5.08789 8.75977C5.3418 8.75977 5.49805 8.60352 5.49805 8.34961L5.49805 7.51953C5.49805 7.27539 5.3418 7.11914 5.08789 7.11914L4.26758 7.11914C4.01367 7.11914 3.85742 7.27539 3.85742 7.51953L3.85742 8.34961C3.85742 8.60352 4.01367 8.75977 4.26758 8.75977ZM7.00195 8.75977L7.83203 8.75977C8.08594 8.75977 8.23242 8.60352 8.23242 8.34961L8.23242 7.51953C8.23242 7.27539 8.08594 7.11914 7.83203 7.11914L7.00195 7.11914C6.75781 7.11914 6.60156 7.27539 6.60156 7.51953L6.60156 8.34961C6.60156 8.60352 6.75781 8.75977 7.00195 8.75977ZM9.73633 8.75977L10.5566 8.75977C10.8105 8.75977 10.9668 8.60352 10.9668 8.34961L10.9668 7.51953C10.9668 7.27539 10.8105 7.11914 10.5566 7.11914L9.73633 7.11914C9.48242 7.11914 9.33594 7.27539 9.33594 7.51953L9.33594 8.34961C9.33594 8.60352 9.48242 8.75977 9.73633 8.75977ZM12.4707 8.75977L13.3008 8.75977C13.5449 8.75977 13.6914 8.60352 13.6914 8.34961L13.6914 7.51953C13.6914 7.27539 13.5449 7.11914 13.3008 7.11914L12.4707 7.11914C12.2168 7.11914 12.0605 7.27539 12.0605 7.51953L12.0605 8.34961C12.0605 8.60352 12.2168 8.75977 12.4707 8.75977ZM15.1953 8.75977L16.0254 8.75977C16.2793 8.75977 16.4355 8.60352 16.4355 8.34961L16.4355 7.51953C16.4355 7.27539 16.2793 7.11914 16.0254 7.11914L15.1953 7.11914C14.9512 7.11914 14.8047 7.27539 14.8047 7.51953L14.8047 8.34961C14.8047 8.60352 14.9512 8.75977 15.1953 8.75977ZM17.9395 8.75977L18.7598 8.75977C19.0137 8.75977 19.1699 8.60352 19.1699 8.34961L19.1699 7.51953C19.1699 7.27539 19.0137 7.11914 18.7598 7.11914L17.9395 7.11914C17.6855 7.11914 17.5293 7.27539 17.5293 7.51953L17.5293 8.34961C17.5293 8.60352 17.6855 8.75977 17.9395 8.75977ZM4.26758 11.4941L5.08789 11.4941C5.3418 11.4941 5.49805 11.3379 5.49805 11.084L5.49805 10.2637C5.49805 10.0195 5.3418 9.86328 5.08789 9.86328L4.26758 9.86328C4.01367 9.86328 3.85742 10.0195 3.85742 10.2637L3.85742 11.084C3.85742 11.3379 4.01367 11.4941 4.26758 11.4941ZM7.00195 11.4941L7.83203 11.4941C8.08594 11.4941 8.23242 11.3379 8.23242 11.084L8.23242 10.2637C8.23242 10.0195 8.08594 9.86328 7.83203 9.86328L7.00195 9.86328C6.75781 9.86328 6.60156 10.0195 6.60156 10.2637L6.60156 11.084C6.60156 11.3379 6.75781 11.4941 7.00195 11.4941ZM9.73633 11.4941L10.5566 11.4941C10.8105 11.4941 10.9668 11.3379 10.9668 11.084L10.9668 10.2637C10.9668 10.0195 10.8105 9.86328 10.5566 9.86328L9.73633 9.86328C9.48242 9.86328 9.33594 10.0195 9.33594 10.2637L9.33594 11.084C9.33594 11.3379 9.48242 11.4941 9.73633 11.4941ZM12.4707 11.4941L13.3008 11.4941C13.5449 11.4941 13.6914 11.3379 13.6914 11.084L13.6914 10.2637C13.6914 10.0195 13.5449 9.86328 13.3008 9.86328L12.4707 9.86328C12.2168 9.86328 12.0605 10.0195 12.0605 10.2637L12.0605 11.084C12.0605 11.3379 12.2168 11.4941 12.4707 11.4941ZM15.1953 11.4941L16.0254 11.4941C16.2793 11.4941 16.4355 11.3379 16.4355 11.084L16.4355 10.2637C16.4355 10.0195 16.2793 9.86328 16.0254 9.86328L15.1953 9.86328C14.9512 9.86328 14.8047 10.0195 14.8047 10.2637L14.8047 11.084C14.8047 11.3379 14.9512 11.4941 15.1953 11.4941ZM17.9395 11.4941L18.7598 11.4941C19.0137 11.4941 19.1699 11.3379 19.1699 11.084L19.1699 10.2637C19.1699 10.0195 19.0137 9.86328 18.7598 9.86328L17.9395 9.86328C17.6855 9.86328 17.5293 10.0195 17.5293 10.2637L17.5293 11.084C17.5293 11.3379 17.6855 11.4941 17.9395 11.4941ZM4.26758 14.2383L5.08789 14.2383C5.3418 14.2383 5.49805 14.082 5.49805 13.8281L5.49805 13.0078C5.49805 12.7539 5.3418 12.5977 5.08789 12.5977L4.26758 12.5977C4.01367 12.5977 3.85742 12.7539 3.85742 13.0078L3.85742 13.8281C3.85742 14.082 4.01367 14.2383 4.26758 14.2383ZM7.08984 14.2383L15.9375 14.2383C16.2598 14.2383 16.4355 14.0527 16.4355 13.7402L16.4355 13.0957C16.4355 12.7832 16.2598 12.5977 15.9375 12.5977L7.08984 12.5977C6.77734 12.5977 6.60156 12.7832 6.60156 13.0957L6.60156 13.7402C6.60156 14.0527 6.77734 14.2383 7.08984 14.2383ZM17.9395 14.2383L18.7598 14.2383C19.0137 14.2383 19.1699 14.082 19.1699 13.8281L19.1699 13.0078C19.1699 12.7539 19.0137 12.5977 18.7598 12.5977L17.9395 12.5977C17.6855 12.5977 17.5293 12.7539 17.5293 13.0078L17.5293 13.8281C17.5293 14.082 17.6855 14.2383 17.9395 14.2383ZM4.12109 17.9785L19.1504 17.9785C21.6113 17.9785 23.0273 16.4941 23.0273 13.8574L23.0273 4.13086C23.0273 1.49414 21.6113 0 19.1504 0L4.12109 0C1.49414 0 0 1.49414 0 4.13086L0 13.8574C0 16.4941 1.49414 17.9785 4.12109 17.9785ZM4.13086 16.4062C2.50977 16.4062 1.57227 15.4785 1.57227 13.8574L1.57227 4.13086C1.57227 2.50977 2.50977 1.57227 4.13086 1.57227L18.8965 1.57227C20.5176 1.57227 21.4551 2.50977 21.4551 4.13086L21.4551 13.8574C21.4551 15.4785 20.5176 16.4062 18.8965 16.4062ZM4.32617 5.14648C4.80469 5.14648 5.19531 4.73633 5.19531 4.27734C5.19531 3.80859 4.80469 3.39844 4.32617 3.39844C3.84766 3.39844 3.45703 3.80859 3.45703 4.27734C3.45703 4.73633 3.84766 5.14648 4.32617 5.14648ZM7.12891 5.14648C7.60742 5.14648 7.99805 4.73633 7.99805 4.27734C7.99805 3.80859 7.60742 3.39844 7.12891 3.39844C6.65039 3.39844 6.25977 3.80859 6.25977 4.27734C6.25977 4.73633 6.65039 5.14648 7.12891 5.14648ZM9.93164 5.14648C10.4102 5.14648 10.8008 4.73633 10.8008 4.27734C10.8008 3.80859 10.4102 3.39844 9.93164 3.39844C9.45312 3.39844 9.0625 3.80859 9.0625 4.27734C9.0625 4.73633 9.45312 5.14648 9.93164 5.14648Z" fill="var(--color-primary)"/>
 </g>
</svg>
