<?xml version="1.0" encoding="UTF-8"?>
<!--Generator: Apple Native CoreSVG 341-->
<!DOCTYPE svg
PUBLIC "-//W3C//DTD SVG 1.1//EN"
       "http://www.w3.org/Graphics/SVG/1.1/DTD/svg11.dtd">
<svg version="1.1" xmlns="http://www.w3.org/2000/svg" xmlns:xlink="http://www.w3.org/1999/xlink" viewBox="0 0 24.9414 15.4395">
 <g>
  <rect height="15.4395" opacity="0" width="24.9414" x="0" y="0"/>
  <path d="M3.06641 15.4297L21.5137 15.4297C23.5449 15.4297 24.5801 14.4141 24.5801 12.4023L24.5801 3.01758C24.5801 1.01562 23.5449 0 21.5137 0L3.06641 0C1.01562 0 0 1.00586 0 3.01758L0 12.4023C0 14.4141 1.01562 15.4297 3.06641 15.4297Z" fill="white" fill-opacity="0.2125"/>
  <path d="M3.58398 5.35156C3.39844 5.35156 3.28125 5.22461 3.28125 5.0293L3.28125 3.89648C3.28125 3.69141 3.39844 3.57422 3.58398 3.57422L4.32617 3.57422C4.50195 3.57422 4.60938 3.69141 4.60938 3.89648L4.60938 5.0293C4.60938 5.22461 4.50195 5.35156 4.32617 5.35156ZM5.80078 5.35156C5.60547 5.35156 5.49805 5.22461 5.49805 5.0293L5.49805 3.89648C5.49805 3.69141 5.60547 3.57422 5.80078 3.57422L6.5332 3.57422C6.71875 3.57422 6.82617 3.69141 6.82617 3.89648L6.82617 5.0293C6.82617 5.22461 6.71875 5.35156 6.5332 5.35156ZM8.00781 5.35156C7.82227 5.35156 7.70508 5.22461 7.70508 5.0293L7.70508 3.89648C7.70508 3.69141 7.82227 3.57422 8.00781 3.57422L8.75 3.57422C8.92578 3.57422 9.0332 3.69141 9.0332 3.89648L9.0332 5.0293C9.0332 5.22461 8.92578 5.35156 8.75 5.35156ZM10.2148 5.35156C10.0293 5.35156 9.92188 5.22461 9.92188 5.0293L9.92188 3.89648C9.92188 3.69141 10.0293 3.57422 10.2148 3.57422L10.9473 3.57422C11.1328 3.57422 11.25 3.69141 11.25 3.89648L11.25 5.0293C11.25 5.22461 11.1328 5.35156 10.9473 5.35156ZM12.4121 5.35156C12.2363 5.35156 12.1191 5.22461 12.1191 5.0293L12.1191 3.89648C12.1191 3.69141 12.2363 3.57422 12.4121 3.57422L13.1738 3.57422C13.3398 3.57422 13.457 3.69141 13.457 3.89648L13.457 5.0293C13.457 5.22461 13.3398 5.35156 13.1738 5.35156ZM14.6387 5.35156C14.4531 5.35156 14.3359 5.22461 14.3359 5.0293L14.3359 3.89648C14.3359 3.69141 14.4531 3.57422 14.6387 3.57422L15.3711 3.57422C15.5469 3.57422 15.6738 3.69141 15.6738 3.89648L15.6738 5.0293C15.6738 5.22461 15.5469 5.35156 15.3711 5.35156ZM3.58398 8.58398C3.39844 8.58398 3.28125 8.47656 3.28125 8.26172L3.28125 7.13867C3.28125 6.92383 3.39844 6.81641 3.58398 6.81641L4.32617 6.81641C4.50195 6.81641 4.60938 6.92383 4.60938 7.13867L4.60938 8.26172C4.60938 8.47656 4.50195 8.58398 4.32617 8.58398ZM5.80078 8.58398C5.60547 8.58398 5.49805 8.47656 5.49805 8.26172L5.49805 7.13867C5.49805 6.92383 5.60547 6.81641 5.80078 6.81641L6.5332 6.81641C6.71875 6.81641 6.82617 6.92383 6.82617 7.13867L6.82617 8.26172C6.82617 8.47656 6.71875 8.58398 6.5332 8.58398ZM8.00781 8.58398C7.82227 8.58398 7.70508 8.47656 7.70508 8.26172L7.70508 7.13867C7.70508 6.92383 7.82227 6.81641 8.00781 6.81641L8.75 6.81641C8.92578 6.81641 9.0332 6.92383 9.0332 7.13867L9.0332 8.26172C9.0332 8.47656 8.92578 8.58398 8.75 8.58398ZM10.2148 8.58398C10.0293 8.58398 9.92188 8.47656 9.92188 8.26172L9.92188 7.13867C9.92188 6.92383 10.0293 6.81641 10.2148 6.81641L10.9473 6.81641C11.1328 6.81641 11.25 6.92383 11.25 7.13867L11.25 8.26172C11.25 8.47656 11.1328 8.58398 10.9473 8.58398ZM12.4121 8.58398C12.2363 8.58398 12.1191 8.47656 12.1191 8.26172L12.1191 7.13867C12.1191 6.92383 12.2363 6.81641 12.4121 6.81641L13.1738 6.81641C13.3398 6.81641 13.457 6.92383 13.457 7.13867L13.457 8.26172C13.457 8.47656 13.3398 8.58398 13.1738 8.58398ZM14.6387 8.58398C14.4531 8.58398 14.3359 8.47656 14.3359 8.26172L14.3359 7.13867C14.3359 6.92383 14.4531 6.81641 14.6387 6.81641L15.3711 6.81641C15.5469 6.81641 15.6738 6.92383 15.6738 7.13867L15.6738 8.26172C15.6738 8.47656 15.5469 8.58398 15.3711 8.58398ZM3.58398 11.8262C3.39844 11.8262 3.28125 11.709 3.28125 11.5039L3.28125 10.3711C3.28125 10.1758 3.39844 10.0488 3.58398 10.0488L4.32617 10.0488C4.50195 10.0488 4.60938 10.1758 4.60938 10.3711L4.60938 11.5039C4.60938 11.709 4.50195 11.8262 4.32617 11.8262ZM5.80078 11.8262C5.60547 11.8262 5.49805 11.709 5.49805 11.5039L5.49805 10.3711C5.49805 10.1758 5.60547 10.0488 5.80078 10.0488L13.1738 10.0488C13.3398 10.0488 13.457 10.1758 13.457 10.3711L13.457 11.5039C13.457 11.709 13.3398 11.8262 13.1738 11.8262ZM14.6387 11.8262C14.4531 11.8262 14.3359 11.709 14.3359 11.5039L14.3359 10.3711C14.3359 10.1758 14.4531 10.0488 14.6387 10.0488L15.3711 10.0488C15.5469 10.0488 15.6738 10.1758 15.6738 10.3711L15.6738 11.5039C15.6738 11.709 15.5469 11.8262 15.3711 11.8262ZM17.373 7.14844L20.3223 4.3457C20.6641 4.02344 21.25 4.15039 21.25 4.6875L21.25 10.7324C21.25 11.2793 20.6641 11.4062 20.3223 11.084L17.373 8.27148C17.002 7.91992 17.002 7.5 17.373 7.14844Z" fill="white" fill-opacity="0.85"/>
 </g>
</svg>
