<?xml version="1.0" encoding="UTF-8"?>
<!--Generator: Apple Native CoreSVG 341-->
<!DOCTYPE svg
PUBLIC "-//W3C//DTD SVG 1.1//EN"
       "http://www.w3.org/Graphics/SVG/1.1/DTD/svg11.dtd">
<svg version="1.1" xmlns="http://www.w3.org/2000/svg" xmlns:xlink="http://www.w3.org/1999/xlink" viewBox="0 0 24.0651 19.9316">
 <g>
  <rect height="19.9316" opacity="0" width="24.0651" x="0" y="0"/>
  <path d="M0.694677 8.07617C-0.00844799 8.07617-0.184229 8.55469 0.19663 9.10156L2.38413 12.207C2.7064 12.6562 3.17515 12.6465 3.48765 12.207L5.66538 9.0918C6.04624 8.55469 5.86069 8.07617 5.1771 8.07617ZM21.8177 9.96094C21.8177 4.46289 17.3548 0 11.8568 0C6.35874 0 1.90561 4.45312 1.89585 9.9707C1.90561 10.4297 2.26694 10.791 2.71616 10.791C3.17515 10.791 3.55601 10.4199 3.55601 9.96094C3.55601 5.37109 7.26694 1.66016 11.8568 1.66016C16.4466 1.66016 20.1576 5.37109 20.1576 9.96094C20.1576 14.5508 16.4466 18.2617 11.8568 18.2617C9.07358 18.2617 6.62241 16.8945 5.13804 14.8242C4.8353 14.4238 4.37632 14.2969 3.96616 14.541C3.57554 14.7852 3.45835 15.3418 3.79038 15.7715C5.60679 18.291 8.50718 19.9219 11.8568 19.9219C17.3548 19.9219 21.8177 15.459 21.8177 9.96094Z" fill="white" fill-opacity="0.425"/>
  <path d="M9.65952 14.4434C10.0013 14.4434 10.2259 14.2188 10.2259 13.8574L10.2259 10.2246L10.8509 10.2246L13.8685 14.1602C13.9955 14.3359 14.1419 14.4434 14.3666 14.4434C14.7376 14.4434 14.8939 14.1602 14.8939 13.9453C14.8939 13.7988 14.8353 13.6816 14.7376 13.5547L12.0912 10.2246L14.7962 10.2246C14.9818 10.2246 15.1283 10.0781 15.1283 9.88281C15.1283 9.69727 14.9818 9.56055 14.7962 9.56055L12.1107 9.56055L14.7376 6.31836C14.8255 6.20117 14.8841 6.07422 14.8841 5.95703C14.8841 5.66406 14.6498 5.44922 14.3666 5.44922C14.1712 5.44922 13.9955 5.58594 13.888 5.73242L10.8607 9.56055L10.2259 9.56055L10.2259 6.02539C10.2259 5.67383 10.0013 5.44922 9.65952 5.44922C9.30796 5.44922 9.08335 5.67383 9.08335 6.02539L9.08335 9.56055L8.40952 9.56055C8.21421 9.56055 8.08726 9.69727 8.08726 9.89258C8.08726 10.0879 8.21421 10.2246 8.40952 10.2246L9.08335 10.2246L9.08335 13.8574C9.08335 14.2188 9.30796 14.4434 9.65952 14.4434Z" fill="white" fill-opacity="0.85"/>
 </g>
</svg>
