<svg version="1.1" xmlns="http://www.w3.org/2000/svg" xmlns:xlink="http://www.w3.org/1999/xlink" viewBox="0 0 28.8013 22.4902">
 <g>
  <rect height="22.4902" opacity="0" width="28.8013" x="0" y="0"/>
  <path d="M24.8076 7.49976C24.2471 7.36286 23.6808 7.461 23.2292 7.74389C21.8396 4.12564 18.336 1.57227 14.22 1.57227C8.87818 1.57227 4.56177 5.88867 4.56177 11.2402C4.56177 16.5918 8.86841 20.8887 14.22 20.8887C18.3307 20.8887 21.8307 18.3534 23.224 14.7479C23.6763 15.0315 24.2433 15.1292 24.8016 14.9946C23.2638 19.3498 19.102 22.4609 14.22 22.4609C8.02857 22.4609 2.98951 17.4414 2.98951 11.2402C2.98951 5.03906 8.02857 0 14.22 0C19.1081 0 23.2741 3.13102 24.8076 7.49976Z" fill="var(--color-secondary)"/>
  <path d="M24.845 8.96484C24.3079 8.56445 23.634 8.80859 23.634 9.48242L23.634 13.0078C23.634 13.7012 24.3176 13.916 24.8352 13.5254L27.1887 11.7676C27.5501 11.4941 27.5696 10.9863 27.1887 10.7129Z" fill="var(--color-primary)"/>
  <path d="M14.22 19.0332C18.5364 19.0332 22.0129 15.5469 22.0129 11.2402C22.0129 6.92383 18.5364 3.4375 14.22 3.4375C9.9231 3.4375 6.41724 6.92383 6.41724 11.2402C6.41724 15.5469 9.9231 19.0332 14.22 19.0332ZM14.22 17.4609C10.7727 17.4609 7.98951 14.6875 7.98951 11.2402C7.98951 7.7832 10.7727 5.00977 14.22 5.00977C17.677 5.00977 20.4407 7.7832 20.4407 11.2402C20.4407 14.6875 17.677 17.4609 14.22 17.4609ZM12.7844 14.9805L16.3391 14.9805C16.6907 14.9805 16.9836 14.7363 16.9836 14.3652C16.9836 13.9941 16.6907 13.7305 16.3391 13.7305L13.5461 13.7305L13.5461 8.18359C13.5461 7.69531 13.2532 7.36328 12.7844 7.36328C12.3254 7.36328 12.0715 7.70508 12.0715 8.18359L12.0715 14.1699C12.0715 14.6484 12.3254 14.9805 12.7844 14.9805Z" fill="var(--color-primary)"/>
 </g>
</svg>
