<?xml version="1.0" encoding="UTF-8"?>
<!--Generator: Apple Native CoreSVG 341-->
<!DOCTYPE svg
PUBLIC "-//W3C//DTD SVG 1.1//EN"
       "http://www.w3.org/Graphics/SVG/1.1/DTD/svg11.dtd">
<svg version="1.1" xmlns="http://www.w3.org/2000/svg" xmlns:xlink="http://www.w3.org/1999/xlink" viewBox="0 0 23.3887 17.5488">
 <g>
  <rect height="17.5488" opacity="0" width="23.3887" x="0" y="0"/>
  <path d="M7.69531 17.5293L15.332 17.5293C20.9961 17.5293 23.0273 15.4297 23.0273 10.2051L23.0273 7.33398C23.0273 2.10938 20.9961 0 15.332 0L7.69531 0C2.03125 0 0 2.10938 0 7.33398L0 10.2051C0 15.4297 2.03125 17.5293 7.69531 17.5293ZM7.69531 15.957C3.08594 15.957 1.57227 14.4629 1.57227 10.2051L1.57227 7.33398C1.57227 3.07617 3.08594 1.57227 7.69531 1.57227L15.332 1.57227C19.9414 1.57227 21.4551 3.07617 21.4551 7.33398L21.4551 10.2051C21.4551 14.4629 19.9414 15.957 15.332 15.957Z" fill="white" fill-opacity="0.85"/>
  <path d="M7.38281 12.7246L10.1953 12.7246C10.5176 12.7246 10.791 12.4609 10.791 12.1289C10.791 11.8066 10.5176 11.543 10.1953 11.543L8.10547 11.543L8.10547 5.41016C8.10547 5.0293 7.7832 4.70703 7.39258 4.70703C7.01172 4.70703 6.68945 5.0293 6.68945 5.41016L6.68945 11.9922C6.68945 12.4512 6.94336 12.7246 7.38281 12.7246ZM15.1367 12.8418C15.5078 12.8418 15.8008 12.6172 15.8008 12.1484L15.8008 11.1719L16.1523 11.1719C16.5332 11.1719 16.709 10.9277 16.709 10.5957C16.709 10.2832 16.543 10.0391 16.1523 10.0391L15.8008 10.0391L15.8008 5.75195C15.8008 5.07812 15.3613 4.69727 14.7266 4.69727C14.0332 4.69727 13.7109 5.04883 13.4375 5.6543L11.6992 9.44336C11.5332 9.82422 11.4746 10.0781 11.4746 10.3809C11.4746 10.8496 11.7969 11.1719 12.2754 11.1719L14.4629 11.1719L14.4629 12.1484C14.4629 12.666 14.8242 12.8418 15.1367 12.8418ZM14.4922 10.0684L12.6758 10.0684L12.6758 10L14.4531 5.92773L14.4922 5.92773Z" fill="white" fill-opacity="0.85"/>
 </g>
</svg>
