<svg version="1.1" xmlns="http://www.w3.org/2000/svg" xmlns:xlink="http://www.w3.org/1999/xlink" viewBox="0 0 20.2832 19.9316">
 <g>
  <rect height="19.9316" opacity="0" width="20.2832" x="0" y="0"/>
  <path d="M9.96094 19.9316C15.459 19.9316 19.9219 15.4688 19.9219 9.9707C19.9219 4.48242 15.459 0.00976562 9.96094 0.00976562C4.47266 0.00976562 0 4.48242 0 9.9707C0 15.4688 4.47266 19.9316 9.96094 19.9316Z" fill="var(--color-tertiary)"/>
  <path d="M11.2646 12.9177C11.2613 12.9473 11.2598 12.9774 11.2598 13.0078C11.2598 13.5254 11.709 13.9453 12.207 13.9453C12.2348 13.9453 12.2623 13.9441 12.2893 13.9412L13.297 14.9479C12.6615 15.5619 11.8392 15.9609 10.8789 16.084C10.5078 16.1133 10.3125 15.9863 10.3125 15.7031L10.3125 11.9665ZM5.23321 6.89261L7.7091 9.36588C7.66971 9.35868 7.62913 9.35547 7.58789 9.35547C7.12891 9.35547 6.74805 9.73633 6.74805 10.1855C6.74805 10.6348 7.12891 11.0254 7.58789 11.0254C8.03711 11.0254 8.4082 10.6348 8.4082 10.1855C8.4082 10.1402 8.40443 10.0956 8.39622 10.0523L9.59961 11.2544L9.59961 15.7031C9.59961 15.9863 9.41406 16.1133 9.04297 16.084C7.89062 15.9375 6.95312 15.4004 6.26953 14.5801L5.52734 15.2051C5.3125 15.3906 5.0293 15.4102 4.86328 15.1855C4.69727 15 4.75586 14.7266 4.9707 14.541L5.78125 13.8574C5.40039 13.1445 5.17578 12.2852 5.15625 11.3477L4.19922 11.3477C3.91602 11.3477 3.75 11.1719 3.75 10.918C3.75 10.6543 3.91602 10.4883 4.19922 10.4883L5.20508 10.4785C5.30273 9.74609 5.51758 8.99414 5.83984 8.41797L4.99023 7.69531C4.77539 7.5293 4.7168 7.24609 4.87305 7.04102C4.97116 6.9211 5.09971 6.87724 5.23321 6.89261ZM5.67383 5.0293L14.9121 14.2676C15.0879 14.4531 15.0879 14.7266 14.9121 14.9121C14.7363 15.0879 14.4336 15.0879 14.2676 14.9121L5.01953 5.67383C4.85352 5.49805 4.84375 5.20508 5.01953 5.0293C5.20508 4.84375 5.49805 4.84375 5.67383 5.0293ZM6.75781 13.0078C6.75781 13.5254 7.1875 13.9453 7.70508 13.9453C8.21289 13.9453 8.66211 13.5254 8.66211 13.0078C8.66211 12.4902 8.21289 12.0605 7.70508 12.0605C7.1875 12.0605 6.75781 12.4902 6.75781 13.0078ZM15.0391 7.04102C15.2051 7.24609 15.1367 7.5293 14.9316 7.69531L14.082 8.41797C14.3945 8.99414 14.6191 9.74609 14.707 10.4785L15.7129 10.4883C16.0059 10.4883 16.1719 10.6543 16.1719 10.918C16.1719 11.1719 16.0059 11.3477 15.7129 11.3477L14.7656 11.3477C14.7543 11.8898 14.6745 12.4058 14.5316 12.8812L12.6217 10.9713C12.942 10.8508 13.1738 10.536 13.1738 10.1855C13.1738 9.73633 12.793 9.35547 12.334 9.35547C11.9826 9.35547 11.673 9.5885 11.5558 9.9054L9.7904 8.14001C9.84703 8.14386 9.90397 8.14453 9.96094 8.14453C11.0059 8.14453 12.041 7.91992 12.8516 7.55859C13.0273 7.48047 13.2422 7.48047 13.5449 7.73438L14.375 7.03125C14.5996 6.85547 14.8633 6.82617 15.0391 7.04102ZM12.3828 3.98438L12.002 4.11133C11.7676 4.17969 11.6895 4.31641 11.7285 4.50195L11.748 4.64844C12.4609 5.04883 12.8613 5.68359 12.8613 6.38672C12.8613 6.68945 12.7539 6.9043 12.4023 7.07031C11.7969 7.34375 10.8887 7.50977 9.96094 7.50977C9.6724 7.50977 9.38665 7.49404 9.11297 7.46258L7.23839 5.588C7.42196 5.21399 7.73976 4.88893 8.17383 4.64844L8.19336 4.50195C8.22266 4.31641 8.14453 4.17969 7.91992 4.11133L7.5293 3.98438C6.99219 3.83789 7.26562 2.98828 7.82227 3.19336L8.26172 3.36914C8.73047 3.53516 9.01367 3.85742 8.99414 4.28711L8.98438 4.33594C9.28711 4.25781 9.60938 4.21875 9.96094 4.21875C10.3027 4.21875 10.625 4.25781 10.9277 4.33594L10.9277 4.28711C10.9082 3.84766 11.1914 3.53516 11.6504 3.36914L12.0996 3.19336C12.6562 2.98828 12.9297 3.83789 12.3828 3.98438Z" fill="var(--color-primary)"/>
 </g>
</svg>
