<?xml version="1.0" encoding="UTF-8"?>
<!--Generator: Apple Native CoreSVG 341-->
<!DOCTYPE svg
PUBLIC "-//W3C//DTD SVG 1.1//EN"
       "http://www.w3.org/Graphics/SVG/1.1/DTD/svg11.dtd">
<svg version="1.1" xmlns="http://www.w3.org/2000/svg" xmlns:xlink="http://www.w3.org/1999/xlink" viewBox="0 0 15.4583 23.6426">
 <g>
  <rect height="23.6426" opacity="0" width="15.4583" x="0" y="0"/>
  <path d="M7.54851 11.543C9.68718 11.543 11.8259 11.4062 13.5837 11.1426C14.9411 10.9473 15.4391 9.91211 14.8532 8.56445L11.9528 2.03125C11.3473 0.654297 10.3415 0 8.80827 0L6.27898 0C4.75554 0 3.74968 0.654297 3.14421 2.03125L0.243819 8.56445C-0.342119 9.91211 0.146163 10.9473 1.51335 11.1426C3.2614 11.4062 5.40007 11.543 7.54851 11.543ZM7.54851 10.1074C5.77116 10.1074 4.00358 10.0098 2.06023 9.78516C1.51335 9.72656 1.42546 9.4043 1.65983 8.87695L4.43327 2.61719C4.7946 1.80664 5.3903 1.42578 6.27898 1.42578L8.80827 1.42578C9.69694 1.42578 10.3024 1.80664 10.6637 2.61719L13.4372 8.87695C13.6716 9.4043 13.5739 9.72656 13.0368 9.78516C11.0934 10.0098 9.31608 10.1074 7.54851 10.1074ZM6.72819 12.998L8.35905 12.998L8.35905 11.1133L6.72819 11.1133ZM6.0446 23.6328L9.04265 23.6328C11.5622 23.6328 13.0466 22.334 13.0466 20.1367C13.0466 18.7598 12.6169 16.709 11.8649 14.6387C11.4255 13.4375 10.4782 12.7344 9.13054 12.7344L5.95671 12.7344C4.60905 12.7344 3.66179 13.4375 3.22233 14.6387C2.48015 16.709 2.04069 18.7598 2.04069 20.1367C2.04069 22.334 3.52507 23.6328 6.0446 23.6328ZM6.0446 22.207C4.41374 22.207 3.45671 21.4355 3.45671 20.1367C3.45671 18.9062 3.86687 17.041 4.55046 15.127C4.7653 14.5215 5.22429 14.1602 5.95671 14.1602L9.13054 14.1602C9.86296 14.1602 10.3219 14.5215 10.5368 15.127C11.2204 17.041 11.6305 18.9062 11.6305 20.1367C11.6305 21.4355 10.6735 22.207 9.04265 22.207Z" fill="white" fill-opacity="0.85"/>
 </g>
</svg>
