<?xml version="1.0" encoding="UTF-8"?>
<!--Generator: Apple Native CoreSVG 341-->
<!DOCTYPE svg
PUBLIC "-//W3C//DTD SVG 1.1//EN"
       "http://www.w3.org/Graphics/SVG/1.1/DTD/svg11.dtd">
<svg version="1.1" xmlns="http://www.w3.org/2000/svg" xmlns:xlink="http://www.w3.org/1999/xlink" viewBox="0 0 15.4583 23.6426">
 <g>
  <rect height="23.6426" opacity="0" width="15.4583" x="0" y="0"/>
  <path d="M7.54851 11.543C9.68718 11.543 11.8259 11.4062 13.5837 11.1426C14.9411 10.9473 15.4391 9.91211 14.8532 8.56445L11.9528 2.03125C11.3473 0.654297 10.3415 0 8.80827 0L6.27898 0C4.75554 0 3.74968 0.654297 3.14421 2.03125L0.243819 8.56445C-0.342119 9.91211 0.146163 10.9473 1.51335 11.1426C3.2614 11.4062 5.40007 11.543 7.54851 11.543ZM6.72819 12.998L8.35905 12.998L8.35905 11.1133L6.72819 11.1133ZM6.0446 23.6328L9.04265 23.6328C11.5622 23.6328 13.0466 22.334 13.0466 20.1367C13.0466 18.7598 12.6169 16.709 11.8649 14.6387C11.4255 13.4375 10.4782 12.7344 9.13054 12.7344L5.95671 12.7344C4.60905 12.7344 3.66179 13.4375 3.22233 14.6387C2.48015 16.709 2.04069 18.7598 2.04069 20.1367C2.04069 22.334 3.52507 23.6328 6.0446 23.6328Z" fill="white" fill-opacity="0.85"/>
 </g>
</svg>
