<?xml version="1.0" encoding="UTF-8"?>
<!--Generator: Apple Native CoreSVG 341-->
<!DOCTYPE svg
PUBLIC "-//W3C//DTD SVG 1.1//EN"
       "http://www.w3.org/Graphics/SVG/1.1/DTD/svg11.dtd">
<svg version="1.1" xmlns="http://www.w3.org/2000/svg" xmlns:xlink="http://www.w3.org/1999/xlink" viewBox="0 0 20.2832 19.9316">
 <g>
  <rect height="19.9316" opacity="0" width="20.2832" x="0" y="0"/>
  <path d="M19.9219 9.96094C19.9219 15.4492 15.459 19.9219 9.96094 19.9219C4.47266 19.9219 0 15.4492 0 9.96094C0 4.46289 4.47266 0 9.96094 0C15.459 0 19.9219 4.46289 19.9219 9.96094ZM5.2832 6.67969L5.2832 13.1152C5.2832 13.5645 5.52734 13.8477 5.9668 13.8477L8.7207 13.8477C9.0332 13.8477 9.30664 13.5742 9.30664 13.2617C9.30664 12.9297 9.0332 12.666 8.7207 12.666L6.67969 12.666L6.67969 6.67969C6.67969 6.29883 6.35742 5.98633 5.97656 5.98633C5.60547 5.98633 5.2832 6.29883 5.2832 6.67969ZM10.9863 6.10352C10.5273 6.10352 10.293 6.41602 10.293 6.83594L10.293 13.1152C10.293 13.5547 10.5371 13.8477 10.9863 13.8477L13.0176 13.8477C14.3652 13.8477 15.1562 12.9492 15.1562 11.6602C15.1562 10.7324 14.5898 9.87305 13.6816 9.78516L13.6816 9.72656C14.4043 9.59961 14.9121 8.78906 14.9121 8.03711C14.9121 6.80664 14.082 6.10352 12.959 6.10352ZM13.7402 11.543C13.7402 12.3242 13.3594 12.7832 12.5879 12.7832L11.6602 12.7832L11.6602 10.332L12.5586 10.332C13.252 10.332 13.7402 10.7129 13.7402 11.543ZM13.5645 8.25195C13.5645 8.95508 13.1543 9.38477 12.4414 9.38477L11.6602 9.38477L11.6602 7.17773L12.5586 7.17773C13.2812 7.17773 13.5645 7.63672 13.5645 8.25195Z" fill="white" fill-opacity="0.85"/>
 </g>
</svg>
