<?xml version="1.0" encoding="UTF-8"?>
<!--Generator: Apple Native CoreSVG 341-->
<!DOCTYPE svg
PUBLIC "-//W3C//DTD SVG 1.1//EN"
       "http://www.w3.org/Graphics/SVG/1.1/DTD/svg11.dtd">
<svg version="1.1" xmlns="http://www.w3.org/2000/svg" xmlns:xlink="http://www.w3.org/1999/xlink" viewBox="0 0 20.2832 19.9316">
 <g>
  <rect height="19.9316" opacity="0" width="20.2832" x="0" y="0"/>
  <path d="M9.96094 19.9219C15.459 19.9219 19.9219 15.4492 19.9219 9.96094C19.9219 4.46289 15.459 0 9.96094 0C4.47266 0 0 4.46289 0 9.96094C0 15.4492 4.47266 19.9219 9.96094 19.9219Z" fill="white" fill-opacity="0.2125"/>
  <path d="M5.05859 6.13281C5.11719 5.82031 5.39062 5.80078 5.58594 5.99609C6.25 6.66992 7.07031 6.75781 7.80273 6.75781C8.47656 6.75781 9.30664 6.57227 10.0488 6.57227C12.2168 6.57227 13.7695 7.63672 13.7695 9.85352C13.7695 10.0586 13.7598 10.2734 13.7402 10.4102C13.7012 10.5566 13.5254 10.6445 13.3691 10.4883C11.3965 8.71094 9.45312 9.85352 7.83203 8.4375C7.65625 8.30078 7.5 8.42773 7.55859 8.57422C8.33984 10.6152 11.3672 9.53125 13.3691 11.3672C13.8477 11.7969 14.7461 12.9004 14.7461 13.5254C14.7461 13.9258 14.4629 14.2188 14.1309 14.2188C13.9844 14.2188 13.8184 14.1406 13.7598 13.9258C13.5156 13.1445 13.3008 12.5781 12.9102 12.0605C12.4707 12.6172 11.5332 13.2715 10.0293 13.2715C6.93359 13.2715 4.91211 11.0059 4.91211 7.60742C4.91211 7.19727 4.9707 6.5918 5.05859 6.13281Z" fill="white" fill-opacity="0.85"/>
 </g>
</svg>
