<svg version="1.1" xmlns="http://www.w3.org/2000/svg" xmlns:xlink="http://www.w3.org/1999/xlink" viewBox="0 0 20.2832 19.9316">
 <g>
  <rect height="19.9316" opacity="0" width="20.2832" x="0" y="0"/>
  <path d="M9.96094 19.9219C15.459 19.9219 19.9219 15.4492 19.9219 9.96094C19.9219 4.46289 15.459 0 9.96094 0C4.47266 0 0 4.46289 0 9.96094C0 15.4492 4.47266 19.9219 9.96094 19.9219Z" fill="var(--color-tertiary)"/>
  <path d="M8.08594 14.4531C7.56836 14.4531 7.28516 14.082 7.28516 13.5449L7.28516 6.06445C7.28516 5.52734 7.56836 5.14648 8.08594 5.14648C8.62305 5.14648 8.90625 5.50781 8.90625 6.06445L8.90625 13.125L12.7246 13.125C13.1152 13.125 13.3984 13.3789 13.3984 13.7891C13.3984 14.1992 13.1152 14.4531 12.7246 14.4531Z" fill="var(--color-primary)"/>
 </g>
</svg>
