<?xml version="1.0" encoding="UTF-8"?>
<!--Generator: Apple Native CoreSVG 341-->
<!DOCTYPE svg
PUBLIC "-//W3C//DTD SVG 1.1//EN"
       "http://www.w3.org/Graphics/SVG/1.1/DTD/svg11.dtd">
<svg version="1.1" xmlns="http://www.w3.org/2000/svg" xmlns:xlink="http://www.w3.org/1999/xlink" viewBox="0 0 20.2832 19.9316">
 <g>
  <rect height="19.9316" opacity="0" width="20.2832" x="0" y="0"/>
  <path d="M9.96094 19.9219C15.459 19.9219 19.9219 15.4492 19.9219 9.96094C19.9219 4.46289 15.459 0 9.96094 0C4.47266 0 0 4.46289 0 9.96094C0 15.4492 4.47266 19.9219 9.96094 19.9219Z" fill="white" fill-opacity="0.2125"/>
  <path d="M12.5781 14.0918C12.373 14.0918 12.2461 14.043 12.0898 13.9746L6.08398 10.8496C5.66406 10.6348 5.48828 10.3809 5.48828 9.96094C5.48828 9.58008 5.68359 9.29688 6.08398 9.07227L12.0898 5.83984C12.2559 5.76172 12.373 5.71289 12.5977 5.71289C13.0762 5.71289 13.418 6.06445 13.418 6.51367C13.418 6.89453 13.2422 7.13867 12.832 7.33398L7.72461 9.90234L7.72461 9.96094L12.832 12.4707C13.252 12.666 13.418 12.8906 13.418 13.2812C13.418 13.7402 13.0664 14.0918 12.5781 14.0918Z" fill="white" fill-opacity="0.85"/>
 </g>
</svg>
