<?xml version="1.0" encoding="UTF-8"?>
<!--Generator: Apple Native CoreSVG 341-->
<!DOCTYPE svg
PUBLIC "-//W3C//DTD SVG 1.1//EN"
       "http://www.w3.org/Graphics/SVG/1.1/DTD/svg11.dtd">
<svg version="1.1" xmlns="http://www.w3.org/2000/svg" xmlns:xlink="http://www.w3.org/1999/xlink" viewBox="0 0 20.2832 19.9316">
 <g>
  <rect height="19.9316" opacity="0" width="20.2832" x="0" y="0"/>
  <path d="M19.9219 9.96094C19.9219 15.4492 15.459 19.9219 9.96094 19.9219C4.47266 19.9219 0 15.4492 0 9.96094C0 4.46289 4.47266 0 9.96094 0C15.459 0 19.9219 4.46289 19.9219 9.96094ZM6.79688 13.3789C6.37695 13.3789 6.04492 13.7109 6.04492 14.1113C6.04492 14.4824 6.37695 14.8438 6.79688 14.8438L12.6172 14.8438C13.0371 14.8438 13.3594 14.4824 13.3594 14.1113C13.3594 13.7109 13.0371 13.3789 12.6172 13.3789ZM11.8066 5.3418L6.81641 7.56836C6.33789 7.79297 6.16211 8.125 6.16211 8.51562C6.16211 8.95508 6.32812 9.26758 6.81641 9.47266L11.8066 11.6992C12.041 11.8066 12.1582 11.8359 12.2754 11.8359C12.7148 11.8359 13.0273 11.4746 13.0273 11.1035C13.0273 10.8008 12.8516 10.5273 12.5586 10.4102L8.34961 8.53516L8.34961 8.50586L12.5586 6.65039C12.8516 6.50391 13.0273 6.23047 13.0273 5.9375C13.0273 5.56641 12.7148 5.22461 12.2754 5.22461C12.1582 5.22461 12.041 5.24414 11.8066 5.3418Z" fill="white" fill-opacity="0.85"/>
 </g>
</svg>
