<svg version="1.1" xmlns="http://www.w3.org/2000/svg" xmlns:xlink="http://www.w3.org/1999/xlink" viewBox="0 0 24.6444 22.0932">
 <g>
  <rect height="22.0932" opacity="0" width="24.6444" x="0" y="0"/>
  <path d="M1.62884 12.5554C2.19524 13.5319 3.05462 13.737 4.01165 13.1901L16.7167 5.85616C17.6835 5.29951 17.9374 4.44014 17.371 3.46358L16.0429 1.17842C15.4765 0.192093 14.6269-0.0129855 13.6699 0.553421L0.945242 7.89717C-0.0215545 8.44405-0.265695 9.28389 0.300711 10.2702ZM13.1913 4.35225C12.9765 3.98116 13.1034 3.50264 13.4745 3.2878C13.8554 3.07295 14.3339 3.19991 14.5488 3.58076C14.7636 3.95186 14.6366 4.43037 14.2558 4.64522C13.8847 4.86006 13.4062 4.73311 13.1913 4.35225ZM10.6718 5.80733C10.457 5.43623 10.5839 4.95772 10.955 4.74287C11.3359 4.52803 11.8144 4.65498 12.0292 5.02608C12.2441 5.39717 12.1171 5.88545 11.7363 6.1003C11.3652 6.31514 10.8866 6.17842 10.6718 5.80733ZM8.15227 7.26241C7.93743 6.89131 8.07415 6.4128 8.44524 6.18819C8.81634 5.97334 9.29485 6.11006 9.5097 6.48116C9.72454 6.85225 9.59759 7.33076 9.22649 7.54561C8.8554 7.76045 8.37688 7.6335 8.15227 7.26241ZM5.64251 8.70772C5.42766 8.33662 5.55462 7.86787 5.93548 7.65303C6.30657 7.42842 6.79485 7.55537 7.0097 7.92647C7.22454 8.30733 7.08782 8.77608 6.71673 8.99092C6.33587 9.20576 5.85735 9.08858 5.64251 8.70772ZM3.12298 10.1628C2.90813 9.7917 3.03509 9.31319 3.41595 9.09834C3.78704 8.8835 4.26555 9.01045 4.4804 9.38155C4.70501 9.76241 4.56829 10.2312 4.1972 10.446C3.81634 10.6608 3.33782 10.5437 3.12298 10.1628ZM15.2226 1.03194L15.7695 1.96944L17.4199 1.02217C17.6933 0.865921 17.7714 0.543655 17.6152 0.279983C17.4687 0.0163114 17.1366-0.0813449 16.873 0.0749051ZM16.5507 3.31709L17.0976 4.26436L18.7382 3.31709C19.0409 3.15108 19.1093 2.86787 18.9335 2.56514C18.7773 2.2917 18.4648 2.21358 18.1913 2.36983ZM8.24016 20.8659C8.7968 21.8327 9.67571 22.0476 10.6425 21.5007L23.3476 14.1667C24.3046 13.6101 24.539 12.7409 23.9921 11.7741L22.664 9.48897C22.0976 8.50264 21.248 8.29756 20.2909 8.86397L7.56634 16.2077C6.6093 16.7546 6.3554 17.5944 6.9218 18.5808ZM19.8124 12.6628C19.5976 12.2917 19.7148 11.823 20.0956 11.6081C20.4765 11.3835 20.9452 11.5105 21.1601 11.8815C21.3749 12.2624 21.2577 12.7312 20.8769 12.946C20.496 13.1706 20.0273 13.0437 19.8124 12.6628ZM17.2929 14.1179C17.0683 13.7468 17.205 13.278 17.5859 13.0632C17.957 12.8386 18.4355 12.9655 18.6503 13.3366C18.8652 13.7175 18.7382 14.1862 18.3671 14.4011C17.9863 14.6257 17.5077 14.4987 17.2929 14.1179ZM14.7831 15.573C14.5683 15.2019 14.6952 14.7233 15.0663 14.5085C15.4374 14.2839 15.9257 14.4206 16.1406 14.7917C16.3554 15.1628 16.2187 15.6413 15.8476 15.8562C15.4765 16.0808 14.998 15.944 14.7831 15.573ZM12.2636 17.0183C12.0488 16.6472 12.1855 16.1687 12.5566 15.9538C12.9277 15.739 13.4062 15.8659 13.621 16.2468C13.8359 16.6179 13.7089 17.0866 13.3378 17.3112C12.9667 17.5261 12.4784 17.3991 12.2636 17.0183ZM9.74407 18.4733C9.52923 18.1022 9.66595 17.6237 10.037 17.3991C10.4081 17.1843 10.8866 17.321 11.1015 17.6921C11.3163 18.0632 11.1894 18.5515 10.8183 18.7663C10.4472 18.9812 9.95891 18.8444 9.74407 18.4733ZM9.07024 21.0319L8.52337 20.0749L6.86321 21.0319C6.58977 21.1882 6.52141 21.5007 6.67766 21.7741C6.85345 22.0769 7.13665 22.1647 7.41985 21.989ZM7.75188 18.737L7.20501 17.7897L5.55462 18.737C5.28118 18.8933 5.20305 19.2253 5.3593 19.489C5.51555 19.7526 5.82805 19.8405 6.09173 19.6843ZM5.05657 13.6784L10.0468 13.6784L18.9335 8.5417L13.9433 8.5417Z" fill="var(--color-primary)"/>
 </g>
</svg>
