<svg version="1.1" xmlns="http://www.w3.org/2000/svg" xmlns:xlink="http://www.w3.org/1999/xlink" viewBox="0 0 17.3633 24.4043">
 <g>
  <rect height="24.4043" opacity="0" width="17.3633" x="0" y="0"/>
  <path d="M9.58984 20.2539C9.58984 21.5527 10.3223 22.2852 11.6211 22.2852L14.9609 22.2852C16.2598 22.2852 17.002 21.5527 17.002 20.2441L17.002 4.17969C17.002 2.87109 16.2598 2.13867 14.9609 2.13867L11.6211 2.13867C10.3223 2.13867 9.58984 2.87109 9.58984 4.16992ZM11.1328 21.5625L11.1328 23.75C11.1328 24.1113 11.416 24.3848 11.7773 24.3848C12.1387 24.3848 12.4219 24.1113 12.4219 23.75L12.4219 21.5625ZM14.1699 21.5625L14.1699 23.75C14.1699 24.1113 14.4434 24.3848 14.8047 24.3848C15.166 24.3848 15.459 24.1113 15.459 23.75L15.459 21.5625ZM13.291 6.69922C12.7832 6.69922 12.3828 6.28906 12.3828 5.78125C12.3828 5.27344 12.7832 4.86328 13.291 4.86328C13.8086 4.86328 14.209 5.27344 14.209 5.78125C14.209 6.28906 13.8086 6.69922 13.291 6.69922ZM13.291 9.91211C12.7832 9.91211 12.3828 9.50195 12.3828 8.99414C12.3828 8.48633 12.7832 8.07617 13.291 8.07617C13.8086 8.07617 14.209 8.48633 14.209 8.99414C14.209 9.50195 13.8086 9.91211 13.291 9.91211ZM13.291 13.1152C12.7832 13.1152 12.3828 12.7148 12.3828 12.207C12.3828 11.6992 12.7832 11.2891 13.291 11.2891C13.8086 11.2891 14.209 11.6992 14.209 12.207C14.209 12.7148 13.8086 13.1152 13.291 13.1152ZM13.291 16.3281C12.7832 16.3281 12.3828 15.918 12.3828 15.4102C12.3828 14.9023 12.7832 14.502 13.291 14.502C13.8086 14.502 14.209 14.9023 14.209 15.4102C14.209 15.918 13.8086 16.3281 13.291 16.3281ZM13.291 19.541C12.7832 19.541 12.3828 19.1309 12.3828 18.623C12.3828 18.1152 12.7832 17.7051 13.291 17.7051C13.8086 17.7051 14.209 18.1152 14.209 18.623C14.209 19.1309 13.8086 19.541 13.291 19.541Z" fill="var(--color-primary)"/>
  <path d="M0 20.2246C0 21.5234 0.732422 22.2559 2.02148 22.2559L5.37109 22.2559C6.66016 22.2559 7.40234 21.5234 7.40234 20.2148L7.40234 4.15039C7.40234 2.8418 6.66016 2.10938 5.37109 2.10938L2.02148 2.10938C0.732422 2.10938 0 2.8418 0 4.14062ZM1.54297 2.83203L2.83203 2.83203L2.83203 0.644531C2.83203 0.283203 2.53906 0 2.17773 0C1.81641 0 1.54297 0.283203 1.54297 0.644531ZM4.57031 2.83203L5.85938 2.83203L5.85938 0.644531C5.85938 0.283203 5.57617 0 5.21484 0C4.85352 0 4.57031 0.283203 4.57031 0.644531ZM3.70117 6.68945C3.19336 6.68945 2.79297 6.2793 2.79297 5.77148C2.79297 5.26367 3.19336 4.85352 3.70117 4.85352C4.20898 4.85352 4.61914 5.26367 4.61914 5.77148C4.61914 6.2793 4.20898 6.68945 3.70117 6.68945ZM3.70117 9.89258C3.19336 9.89258 2.79297 9.49219 2.79297 8.98438C2.79297 8.4668 3.19336 8.06641 3.70117 8.06641C4.20898 8.06641 4.61914 8.4668 4.61914 8.98438C4.61914 9.49219 4.20898 9.89258 3.70117 9.89258ZM3.70117 13.0957C3.19336 13.0957 2.79297 12.6953 2.79297 12.1875C2.79297 11.6797 3.19336 11.2793 3.70117 11.2793C4.20898 11.2793 4.61914 11.6797 4.61914 12.1875C4.61914 12.6953 4.20898 13.0957 3.70117 13.0957ZM3.70117 16.3184C3.19336 16.3184 2.79297 15.9082 2.79297 15.4004C2.79297 14.8926 3.19336 14.4824 3.70117 14.4824C4.20898 14.4824 4.61914 14.8926 4.61914 15.4004C4.61914 15.9082 4.20898 16.3184 3.70117 16.3184ZM3.70117 19.5215C3.19336 19.5215 2.79297 19.1211 2.79297 18.6035C2.79297 18.0957 3.19336 17.6953 3.70117 17.6953C4.20898 17.6953 4.61914 18.0957 4.61914 18.6035C4.61914 19.1211 4.20898 19.5215 3.70117 19.5215Z" fill="var(--color-primary)"/>
 </g>
</svg>
