<?xml version="1.0" encoding="UTF-8"?>
<!--Generator: Apple Native CoreSVG 341-->
<!DOCTYPE svg
PUBLIC "-//W3C//DTD SVG 1.1//EN"
       "http://www.w3.org/Graphics/SVG/1.1/DTD/svg11.dtd">
<svg version="1.1" xmlns="http://www.w3.org/2000/svg" xmlns:xlink="http://www.w3.org/1999/xlink" viewBox="0 0 20.3516 15.8105">
 <g>
  <rect height="15.8105" opacity="0" width="20.3516" x="0" y="0"/>
  <path d="M19.1602 15.8105C19.6289 15.8105 19.9902 15.4492 19.9902 15L19.9902 6.34766C19.9902 5.89844 19.6289 5.52734 19.1602 5.52734C18.6914 5.52734 18.3398 5.89844 18.3398 6.34766L18.3398 15C18.3398 15.4492 18.6914 15.8105 19.1602 15.8105Z" fill="white" fill-opacity="0.85"/>
  <path d="M14.5898 15.8105C15.0488 15.8105 15.4004 15.4395 15.4004 14.9902L15.4004 10.498C15.4004 10.0391 15.0488 9.6582 14.5898 9.6582C14.1211 9.6582 13.75 10.0391 13.75 10.498L13.75 14.9902C13.75 15.4395 14.1211 15.8105 14.5898 15.8105Z" fill="white" fill-opacity="0.85"/>
  <path d="M9.99023 15.8105C10.459 15.8105 10.8203 15.4492 10.8203 15L10.8203 6.34766C10.8203 5.89844 10.459 5.52734 9.99023 5.52734C9.52148 5.52734 9.16992 5.89844 9.16992 6.34766L9.16992 15C9.16992 15.4492 9.52148 15.8105 9.99023 15.8105Z" fill="white" fill-opacity="0.85"/>
  <path d="M5.41992 15.8105C5.87891 15.8105 6.23047 15.4395 6.23047 14.9902L6.23047 10.498C6.23047 10.0391 5.87891 9.6582 5.41992 9.6582C4.95117 9.6582 4.58008 10.0391 4.58008 10.498L4.58008 14.9902C4.58008 15.4395 4.95117 15.8105 5.41992 15.8105Z" fill="white" fill-opacity="0.85"/>
  <path d="M0.820312 15.8105C1.28906 15.8105 1.65039 15.4492 1.65039 15L1.65039 6.34766C1.65039 5.89844 1.28906 5.52734 0.820312 5.52734C0.351562 5.52734 0 5.89844 0 6.34766L0 15C0 15.4492 0.351562 15.8105 0.820312 15.8105Z" fill="white" fill-opacity="0.85"/>
 </g>
</svg>
