<svg version="1.1" xmlns="http://www.w3.org/2000/svg" xmlns:xlink="http://www.w3.org/1999/xlink" viewBox="0 0 15.9717 15.8247">
 <g>
  <rect height="15.8247" opacity="0" width="15.9717" x="0" y="0"/>
  <path d="M8.09814 2.74145L12.854 7.51684C13.2349 7.88794 13.7329 7.67309 13.8794 7.12622L15.5884 0.798095C15.7153 0.300048 15.2856-0.110109 14.8071 0.0266102L8.48877 1.72583C7.94189 1.87231 7.71729 2.36059 8.09814 2.74145ZM1.34033 15.3684L13.3521 3.37622C13.6646 3.07349 13.6548 2.56567 13.3521 2.26294C13.0493 1.9602 12.5513 1.9602 12.2485 2.26294L0.227051 14.2551C-0.0756836 14.5579-0.0756836 15.0657 0.227051 15.3684C0.529785 15.6711 1.0376 15.6711 1.34033 15.3684Z" fill="var(--color-primary)"/>
 </g>
</svg>
