<?xml version="1.0" encoding="UTF-8"?>
<!--Generator: Apple Native CoreSVG 341-->
<!DOCTYPE svg
PUBLIC "-//W3C//DTD SVG 1.1//EN"
       "http://www.w3.org/Graphics/SVG/1.1/DTD/svg11.dtd">
<svg version="1.1" xmlns="http://www.w3.org/2000/svg" xmlns:xlink="http://www.w3.org/1999/xlink" viewBox="0 0 20.2832 19.9316">
 <g>
  <rect height="19.9316" opacity="0" width="20.2832" x="0" y="0"/>
  <path d="M9.96094 19.9219C15.459 19.9219 19.9219 15.459 19.9219 9.96094C19.9219 4.46289 15.459 0 9.96094 0C4.46289 0 0 4.46289 0 9.96094C0 15.459 4.46289 19.9219 9.96094 19.9219ZM9.96094 18.2617C5.37109 18.2617 1.66016 14.5508 1.66016 9.96094C1.66016 5.37109 5.37109 1.66016 9.96094 1.66016C14.5508 1.66016 18.2617 5.37109 18.2617 9.96094C18.2617 14.5508 14.5508 18.2617 9.96094 18.2617Z" fill="white" fill-opacity="0.85"/>
  <path d="M6.99219 14.1895L12.8125 14.1895C13.0957 14.1895 13.3008 13.9844 13.3008 13.7109C13.3008 13.4375 13.0957 13.2324 12.8125 13.2324L8.26172 13.2324L8.26172 13.1836C8.93555 12.9297 9.30664 12.2363 9.38477 11.4648C9.39453 11.3672 9.4043 11.2695 9.4043 11.1719L11.8164 11.1719C12.0312 11.1719 12.1973 11.0059 12.1973 10.8008C12.1973 10.5859 12.0312 10.4297 11.8164 10.4297L9.33594 10.4297C9.26758 10.0293 9.14062 9.67773 9.05273 9.30664L11.8164 9.30664C12.0312 9.30664 12.1973 9.15039 12.1973 8.93555C12.1973 8.73047 12.0312 8.57422 11.8164 8.57422L8.93555 8.57422C8.91602 8.47656 8.91602 8.35938 8.91602 8.24219C8.91602 7.08984 9.84375 6.49414 11.0059 6.49414C11.377 6.49414 11.8164 6.5625 12.0898 6.62109C12.2266 6.66016 12.3633 6.67969 12.4609 6.67969C12.7734 6.67969 12.8906 6.49414 12.8906 6.26953C12.8906 6.00586 12.7246 5.85938 12.4805 5.75195C11.9824 5.54688 11.3867 5.51758 10.8887 5.51758C9.0332 5.51758 7.75391 6.51367 7.75391 8.27148C7.75391 8.37891 7.75391 8.47656 7.76367 8.57422L6.85547 8.57422C6.65039 8.57422 6.48438 8.73047 6.48438 8.93555C6.48438 9.15039 6.65039 9.30664 6.85547 9.30664L7.88086 9.30664C7.96875 9.70703 8.0957 10.0586 8.19336 10.4297L6.85547 10.4297C6.65039 10.4297 6.48438 10.5859 6.48438 10.8008C6.48438 11.0059 6.65039 11.1719 6.85547 11.1719L8.27148 11.1719C8.27148 11.2793 8.26172 11.4355 8.24219 11.5625C8.11523 12.3926 7.54883 12.9297 6.94336 13.125C6.66992 13.2227 6.49414 13.3789 6.49414 13.6816C6.49414 14.0137 6.72852 14.1895 6.99219 14.1895Z" fill="white" fill-opacity="0.85"/>
 </g>
</svg>
