<?xml version="1.0" encoding="UTF-8"?>
<!--Generator: Apple Native CoreSVG 341-->
<!DOCTYPE svg
PUBLIC "-//W3C//DTD SVG 1.1//EN"
       "http://www.w3.org/Graphics/SVG/1.1/DTD/svg11.dtd">
<svg version="1.1" xmlns="http://www.w3.org/2000/svg" xmlns:xlink="http://www.w3.org/1999/xlink" viewBox="0 0 18.3691 17.998">
 <g>
  <rect height="17.998" opacity="0" width="18.3691" x="0" y="0"/>
  <path d="M16.6211 1.37695C17.5293 2.27539 18.0078 3.61328 18.0078 5.32227L18.0078 12.6758C18.0078 14.3848 17.5293 15.7227 16.6211 16.6211C15.7422 17.5 14.4043 17.998 12.6855 17.998L5.3125 17.998C3.60352 17.998 2.26562 17.5098 1.37695 16.6211C0.46875 15.7227 0 14.3848 0 12.6758L0 5.32227C0 3.61328 0.478516 2.27539 1.37695 1.37695C2.25586 0.498047 3.60352 0 5.3125 0L12.6855 0C14.4043 0 15.7324 0.488281 16.6211 1.37695ZM12.6562 4.0625L3.14453 8.57422C2.5 8.88672 2.59766 9.82422 3.48633 9.82422L7.70508 9.83398C7.89062 9.83398 8.01758 9.96094 8.01758 10.1562L8.02734 14.3262C8.02734 15.2246 8.97461 15.3125 9.27734 14.668L13.75 5.13672C14.1113 4.35547 13.4473 3.69141 12.6562 4.0625Z" fill="white" fill-opacity="0.85"/>
 </g>
</svg>
