<?xml version="1.0" encoding="UTF-8"?>
<!--Generator: Apple Native CoreSVG 341-->
<!DOCTYPE svg
PUBLIC "-//W3C//DTD SVG 1.1//EN"
       "http://www.w3.org/Graphics/SVG/1.1/DTD/svg11.dtd">
<svg version="1.1" xmlns="http://www.w3.org/2000/svg" xmlns:xlink="http://www.w3.org/1999/xlink" viewBox="0 0 23.9648 24.7363">
 <g>
  <rect height="24.7363" opacity="0" width="23.9648" x="0" y="0"/>
  <path d="M17.9647 2.79297L5.63882 2.79297C5.6789 1.99929 6.17978 1.54297 7.01172 1.54297L16.5918 1.54297C17.4237 1.54297 17.9246 1.99929 17.9647 2.79297Z" fill="white" fill-opacity="0.2125"/>
  <path d="M19.9623 5.5825C19.6482 5.53257 19.3151 5.50781 18.9648 5.50781L4.63867 5.50781C4.2885 5.50781 3.95544 5.53256 3.64145 5.58247C3.74778 4.64426 4.38263 4.12109 5.41992 4.12109L18.1934 4.12109C19.2307 4.12109 19.8575 4.64428 19.9623 5.5825Z" fill="white" fill-opacity="0.2125"/>
  <path d="M4.63867 23.1641L18.9648 23.1641C21.0059 23.1641 22.0312 22.1484 22.0312 20.1367L22.0312 10.1074C22.0312 8.0957 21.0059 7.08008 18.9648 7.08008L4.63867 7.08008C2.59766 7.08008 1.57227 8.0957 1.57227 10.1074L1.57227 20.1367C1.57227 22.1484 2.59766 23.1641 4.63867 23.1641Z" fill="white" fill-opacity="0.2125"/>
  <path d="M8.17383 19.1113L8.17383 15.1074C8.17383 14.3945 8.4668 14.043 9.05273 14.0039L9.05273 12.8223C9.05273 10.9668 10.166 9.7168 11.8066 9.7168C13.4473 9.7168 14.5605 10.9668 14.5605 12.8223L14.5605 14.0039C15.1465 14.043 15.4395 14.3945 15.4395 15.1074L15.4395 19.1113C15.4395 19.8633 15.1074 20.2148 14.4141 20.2148L9.19922 20.2148C8.50586 20.2148 8.17383 19.8633 8.17383 19.1113ZM10.1074 13.9941L13.5059 13.9941L13.5059 12.7051C13.5059 11.5234 12.8223 10.7324 11.8066 10.7324C10.791 10.7324 10.1074 11.5234 10.1074 12.7051Z" fill="white" fill-opacity="0.85"/>
 </g>
</svg>
