<?xml version="1.0" encoding="UTF-8"?>
<!--Generator: Apple Native CoreSVG 341-->
<!DOCTYPE svg
PUBLIC "-//W3C//DTD SVG 1.1//EN"
       "http://www.w3.org/Graphics/SVG/1.1/DTD/svg11.dtd">
<svg version="1.1" xmlns="http://www.w3.org/2000/svg" xmlns:xlink="http://www.w3.org/1999/xlink" viewBox="0 0 20.6348 25.8301">
 <g>
  <rect height="25.8301" opacity="0" width="20.6348" x="0" y="0"/>
  <path d="M14.635 2.8418L5.63845 2.8418C5.67486 2.04279 6.17642 1.5918 7.01172 1.5918L13.2617 1.5918C14.097 1.5918 14.5986 2.04279 14.635 2.8418Z" fill="white" fill-opacity="0.2125"/>
  <path d="M16.6322 5.63132C16.3182 5.5814 15.985 5.55664 15.6348 5.55664L4.63867 5.55664C4.28852 5.55664 3.95548 5.58124 3.6415 5.63091C3.74795 4.69295 4.38277 4.16992 5.41992 4.16992L14.8633 4.16992C15.9006 4.16992 16.5274 4.6931 16.6322 5.63132Z" fill="white" fill-opacity="0.2125"/>
  <path d="M4.63867 24.2578L15.6348 24.2578C17.6758 24.2578 18.7012 23.2422 18.7012 21.2305L18.7012 10.1562C18.7012 8.14453 17.6758 7.12891 15.6348 7.12891L4.63867 7.12891C2.59766 7.12891 1.57227 8.13477 1.57227 10.1562L1.57227 21.2305C1.57227 23.2422 2.59766 24.2578 4.63867 24.2578Z" fill="white" fill-opacity="0.2125"/>
  <path d="M6.50391 19.7266L6.50391 15.7227C6.50391 15.0098 6.79688 14.6582 7.38281 14.6191L7.38281 13.4375C7.38281 11.582 8.50586 10.3418 10.1367 10.3418C11.7773 10.3418 12.8906 11.582 12.8906 13.4375L12.8906 14.6191C13.4863 14.6582 13.7793 15.0098 13.7793 15.7227L13.7793 19.7266C13.7793 20.4785 13.4473 20.8301 12.7441 20.8301L7.5293 20.8301C6.83594 20.8301 6.50391 20.4785 6.50391 19.7266ZM8.4375 14.6094L11.8359 14.6094L11.8359 13.3203C11.8359 12.1484 11.1621 11.3574 10.1367 11.3574C9.12109 11.3574 8.4375 12.1484 8.4375 13.3203Z" fill="white" fill-opacity="0.85"/>
 </g>
</svg>
