<?xml version="1.0" encoding="UTF-8"?>
<!--Generator: Apple Native CoreSVG 341-->
<!DOCTYPE svg
PUBLIC "-//W3C//DTD SVG 1.1//EN"
       "http://www.w3.org/Graphics/SVG/1.1/DTD/svg11.dtd">
<svg version="1.1" xmlns="http://www.w3.org/2000/svg" xmlns:xlink="http://www.w3.org/1999/xlink" viewBox="0 0 16.7871 20.9473">
 <g>
  <rect height="20.9473" opacity="0" width="16.7871" x="0" y="0"/>
  <path d="M3.02734 20.9375L13.3984 20.9375C15.4199 20.9375 16.4258 19.9121 16.4258 17.8809L16.4258 9.01367L9.35547 9.01367C8.10547 9.01367 7.50977 8.41797 7.50977 7.16797L7.50977 0L3.02734 0C1.01562 0 0 1.03516 0 3.06641L0 17.8809C0 19.9219 1.00586 20.9375 3.02734 20.9375ZM9.38477 7.67578L16.3086 7.67578C16.25 7.27539 15.9668 6.88477 15.498 6.40625L10.1172 0.927734C9.6582 0.458984 9.25781 0.175781 8.84766 0.107422L8.84766 7.14844C8.84766 7.5 9.02344 7.67578 9.38477 7.67578Z" fill="white" fill-opacity="0.2125"/>
  <path d="M6.08398 18.8672C5.51758 18.8672 5.22461 18.5645 5.22461 17.9492L5.22461 14.6582C5.22461 14.082 5.46875 13.7793 5.94727 13.75L5.94727 12.7832C5.94727 11.2598 6.875 10.2344 8.22266 10.2344C9.57031 10.2344 10.498 11.2598 10.498 12.7832L10.498 13.75C10.9766 13.7793 11.2207 14.082 11.2207 14.6582L11.2207 17.9492C11.2207 18.5645 10.9473 18.8672 10.3613 18.8672ZM6.83594 13.7402L9.60938 13.7402L9.60938 12.6953C9.60938 11.7285 9.05273 11.084 8.22266 11.084C7.39258 11.084 6.83594 11.7285 6.83594 12.6953Z" fill="white" fill-opacity="0.85"/>
 </g>
</svg>
