<svg version="1.1" xmlns="http://www.w3.org/2000/svg" xmlns:xlink="http://www.w3.org/1999/xlink" viewBox="0 0 33.6914 19.4824">
 <g>
  <rect height="19.4824" opacity="0" width="33.6914" x="0" y="0"/>
  <path d="M24.1406 4.31641L24.1406 4.77539L14.6777 4.77539C13.1152 4.77539 11.8945 5.98633 11.8945 7.54883L11.8945 15.459L11.3574 15.459C11.2924 15.459 11.2281 15.4621 11.1648 15.4687L5.5957 15.4687L5.5957 4.31641C5.5957 3.69141 5.9082 3.37891 6.54297 3.37891L12.168 3.37891C12.3047 3.37891 12.3926 3.44727 12.3926 3.61328L12.3926 3.7207C12.3926 4.13086 12.6562 4.4043 13.0664 4.4043L16.6797 4.4043C17.0801 4.4043 17.334 4.13086 17.334 3.7207L17.334 3.61328C17.334 3.44727 17.4219 3.37891 17.5781 3.37891L23.1934 3.37891C23.8184 3.37891 24.1406 3.69141 24.1406 4.31641Z" fill="var(--color-tertiary)"/>
  <path d="M25.7129 3.87695L25.7129 4.77539L24.1406 4.77539L24.1406 4.31641C24.1406 3.69141 23.8184 3.37891 23.1934 3.37891L17.5781 3.37891C17.4219 3.37891 17.334 3.44727 17.334 3.61328L17.334 3.7207C17.334 4.13086 17.0801 4.4043 16.6797 4.4043L13.0664 4.4043C12.6562 4.4043 12.3926 4.13086 12.3926 3.7207L12.3926 3.61328C12.3926 3.44727 12.3047 3.37891 12.168 3.37891L6.54297 3.37891C5.9082 3.37891 5.5957 3.69141 5.5957 4.31641L5.5957 15.4688L11.1648 15.4687C10.1512 15.5656 9.35547 16.423 9.35547 17.4707C9.35547 17.5467 9.35966 17.6218 9.36865 17.6953L1.88477 17.6953C1.2793 17.6953 0.78125 17.1973 0.78125 16.582C0.78125 15.9668 1.2793 15.4688 1.88477 15.4688L4.02344 15.4688L4.02344 3.87695C4.02344 2.50977 4.82422 1.80664 6.11328 1.80664L23.623 1.80664C24.9805 1.80664 25.7129 2.50977 25.7129 3.87695Z" fill="var(--color-primary)"/>
  <path d="M19.6191 7.48047L19.6191 7.55859C19.6191 7.87109 19.8242 8.08594 20.1465 8.08594L22.9102 8.08594C23.2227 8.08594 23.4277 7.87109 23.4277 7.55859L23.4277 7.48047C23.4277 7.35352 23.4961 7.29492 23.6035 7.29492L28.0078 7.29492C28.3691 7.29492 28.623 7.54883 28.623 7.91992L28.623 16.6113L14.4043 16.6113L14.4043 7.91992C14.4043 7.54883 14.668 7.29492 15.0293 7.29492L19.248 7.29492L19.4531 7.29492C19.5605 7.29492 19.6191 7.35352 19.6191 7.48047Z" fill="var(--color-tertiary)"/>
  <path d="M10.498 17.4707C10.498 17.959 10.8887 18.3496 11.3574 18.3496L31.6699 18.3496C32.1582 18.3496 32.5488 17.959 32.5488 17.4707C32.5488 16.9824 32.1582 16.5918 31.6699 16.5918L30 16.5918L30 7.54883C30 6.61133 29.3066 5.91797 28.3691 5.91797L14.6777 5.91797C13.7402 5.91797 13.0273 6.61133 13.0273 7.54883L13.0273 16.5918L11.3574 16.5918C10.8887 16.5918 10.498 16.9824 10.498 17.4707ZM14.4043 16.6113L14.4043 7.91992C14.4043 7.54883 14.668 7.29492 15.0293 7.29492L28.0078 7.29492C28.3691 7.29492 28.623 7.54883 28.623 7.91992L28.623 16.6113ZM19.248 7.29492L19.4531 7.29492C19.5605 7.29492 19.6191 7.35352 19.6191 7.48047L19.6191 7.55859C19.6191 7.87109 19.8242 8.08594 20.1465 8.08594L22.9102 8.08594C23.2227 8.08594 23.4277 7.87109 23.4277 7.55859L23.4277 7.48047C23.4277 7.35352 23.4961 7.29492 23.6035 7.29492L23.8086 7.29492L23.8086 6.66992L19.248 6.66992Z" fill="var(--color-primary)"/>
 </g>
</svg>
