<svg version="1.1" xmlns="http://www.w3.org/2000/svg" xmlns:xlink="http://www.w3.org/1999/xlink" viewBox="0 0 20.2832 19.9316">
 <g>
  <rect height="19.9316" opacity="0" width="20.2832" x="0" y="0"/>
  <path d="M9.96094 19.9219C15.459 19.9219 19.9219 15.4492 19.9219 9.96094C19.9219 4.46289 15.459 0 9.96094 0C4.47266 0 0 4.46289 0 9.96094C0 15.4492 4.47266 19.9219 9.96094 19.9219Z" fill="var(--color-tertiary)"/>
  <path d="M4.22852 14.1016C3.85742 14.1016 3.64258 13.8672 3.64258 13.5059L3.64258 6.51367C3.64258 6.15234 3.86719 5.92773 4.20898 5.92773L5.98633 5.92773C7.5293 5.92773 8.4375 6.83594 8.4375 8.33008C8.4375 9.44336 7.90039 10.2051 7.14844 10.5371L8.29102 13.1348C8.37891 13.3398 8.4082 13.4375 8.4082 13.584C8.4082 13.8574 8.21289 14.1016 7.8418 14.1016C7.56836 14.1016 7.38281 13.9551 7.26562 13.6719L6.03516 10.7812L4.80469 10.7812L4.80469 13.5059C4.80469 13.8672 4.58008 14.1016 4.22852 14.1016ZM4.80469 9.86328L5.87891 9.86328C6.80664 9.86328 7.27539 9.25781 7.27539 8.34961C7.27539 7.46094 6.77734 6.875 5.86914 6.875L4.80469 6.875ZM10.0684 14.1113C9.75586 14.1113 9.55078 13.8965 9.55078 13.5742L9.55078 6.62109C9.55078 6.12305 9.87305 5.81055 10.3809 5.81055C10.791 5.81055 11.1035 6.07422 11.2109 6.49414L12.8906 12.4512L12.9785 12.4512L14.6289 6.50391C14.7363 6.07422 15.0488 5.81055 15.4688 5.81055C15.9766 5.81055 16.2891 6.12305 16.2891 6.62109L16.2891 13.5742C16.2891 13.8965 16.0742 14.1113 15.7715 14.1113C15.459 14.1113 15.2441 13.8965 15.2441 13.5742L15.2441 7.67578L15.1855 7.67578L13.5742 13.3887C13.4668 13.7402 13.2715 13.9648 12.9199 13.9648C12.5488 13.9648 12.3535 13.7109 12.2656 13.4082L10.6543 7.67578L10.5957 7.67578L10.5957 13.5742C10.5957 13.8965 10.3809 14.1113 10.0684 14.1113Z" fill="var(--color-primary)"/>
 </g>
</svg>
