<?xml version="1.0" encoding="UTF-8"?>
<!--Generator: Apple Native CoreSVG 341-->
<!DOCTYPE svg
PUBLIC "-//W3C//DTD SVG 1.1//EN"
       "http://www.w3.org/Graphics/SVG/1.1/DTD/svg11.dtd">
<svg version="1.1" xmlns="http://www.w3.org/2000/svg" xmlns:xlink="http://www.w3.org/1999/xlink" viewBox="0 0 20.2832 19.9316">
 <g>
  <rect height="19.9316" opacity="0" width="20.2832" x="0" y="0"/>
  <path d="M19.9219 9.96094C19.9219 15.4492 15.459 19.9219 9.96094 19.9219C4.47266 19.9219 0 15.4492 0 9.96094C0 4.46289 4.47266 0 9.96094 0C15.459 0 19.9219 4.46289 19.9219 9.96094ZM9.53125 5.24414L9.53125 6.36719C7.44141 6.58203 6.45508 8.33008 6.45508 10.6348L6.45508 13.75C6.45508 14.1113 6.66992 14.3555 7.04102 14.3555C7.41211 14.3555 7.63672 14.1113 7.63672 13.75L7.63672 10.7031C7.63672 9.0625 8.1543 7.68555 9.53125 7.45117L9.53125 13.9355C9.53125 14.1992 9.69727 14.3555 9.96094 14.3555C10.2148 14.3555 10.3711 14.1992 10.3711 13.9355L10.3711 7.44141C11.8164 7.64648 12.3242 9.05273 12.3242 10.7031L12.3242 13.75C12.3242 14.1113 12.5488 14.3555 12.9199 14.3555C13.2812 14.3555 13.5059 14.1113 13.5059 13.75L13.5059 10.6348C13.5059 8.30078 12.4902 6.55273 10.3711 6.36719L10.3711 5.24414C10.3711 4.99023 10.2148 4.83398 9.96094 4.83398C9.69727 4.83398 9.53125 4.99023 9.53125 5.24414Z" fill="white" fill-opacity="0.85"/>
 </g>
</svg>
