<?xml version="1.0" encoding="UTF-8"?>
<!--Generator: Apple Native CoreSVG 341-->
<!DOCTYPE svg
PUBLIC "-//W3C//DTD SVG 1.1//EN"
       "http://www.w3.org/Graphics/SVG/1.1/DTD/svg11.dtd">
<svg version="1.1" xmlns="http://www.w3.org/2000/svg" xmlns:xlink="http://www.w3.org/1999/xlink" viewBox="0 0 18.3398 17.9785">
 <g>
  <rect height="17.9785" opacity="0" width="18.3398" x="0" y="0"/>
  <path d="M3.06641 17.9785L14.9121 17.9785C16.9629 17.9785 17.9785 16.9727 17.9785 14.9609L17.9785 3.02734C17.9785 1.01562 16.9629 0 14.9121 0L3.06641 0C1.02539 0 0 1.01562 0 3.02734L0 14.9609C0 16.9727 1.02539 17.9785 3.06641 17.9785ZM3.08594 16.4062C2.10938 16.4062 1.57227 15.8887 1.57227 14.873L1.57227 3.11523C1.57227 2.09961 2.10938 1.57227 3.08594 1.57227L14.8926 1.57227C15.8594 1.57227 16.4062 2.09961 16.4062 3.11523L16.4062 14.873C16.4062 15.8887 15.8594 16.4062 14.8926 16.4062Z" fill="white" fill-opacity="0.425"/>
  <path d="M6.16211 13.2422C6.52344 13.2422 6.73828 13.0078 6.73828 12.6562L6.73828 9.69727C6.73828 7.94922 7.34375 6.51367 9.01367 6.51367C10.7129 6.51367 11.2891 7.95898 11.2891 9.69727L11.2891 12.6562C11.2891 13.0078 11.5039 13.2422 11.8652 13.2422C12.207 13.2422 12.4316 13.0078 12.4316 12.6562L12.4316 9.63867C12.4316 7.23633 11.3281 5.47852 9.01367 5.47852C6.67969 5.47852 5.5957 7.26562 5.5957 9.63867L5.5957 12.6562C5.5957 13.0078 5.82031 13.2422 6.16211 13.2422ZM8.99414 13.2422C9.23828 13.2422 9.39453 13.0859 9.39453 12.832L9.39453 4.41406C9.39453 4.16992 9.23828 4.01367 8.99414 4.01367C8.74023 4.01367 8.58398 4.16992 8.58398 4.41406L8.58398 12.832C8.58398 13.0859 8.74023 13.2422 8.99414 13.2422Z" fill="white" fill-opacity="0.85"/>
 </g>
</svg>
