<?xml version="1.0" encoding="UTF-8"?>
<!--Generator: Apple Native CoreSVG 341-->
<!DOCTYPE svg
PUBLIC "-//W3C//DTD SVG 1.1//EN"
       "http://www.w3.org/Graphics/SVG/1.1/DTD/svg11.dtd">
<svg version="1.1" xmlns="http://www.w3.org/2000/svg" xmlns:xlink="http://www.w3.org/1999/xlink" viewBox="0 0 20.2832 19.9316">
 <g>
  <rect height="19.9316" opacity="0" width="20.2832" x="0" y="0"/>
  <path d="M19.9219 9.9707C19.9219 15.4688 15.459 19.9316 9.96094 19.9316C4.47266 19.9316 0 15.4688 0 9.9707C0 4.48242 4.47266 0.00976562 9.96094 0.00976562C15.459 0.00976562 19.9219 4.48242 19.9219 9.9707ZM11.25 11.8359C12.2949 11.8262 13.9355 12.3828 13.9355 13.1641C13.9355 14.0332 12.2754 14.6777 9.96094 14.6777C7.63672 14.6777 5.99609 14.043 5.99609 13.1641C5.99609 12.3828 7.62695 11.8262 8.67188 11.8359L8.67188 10.9082C7.1582 10.8984 4.76562 11.7773 4.76562 13.291C4.76562 14.5312 6.68945 15.6738 9.96094 15.6738C13.2324 15.6738 15.1562 14.5312 15.1562 13.291C15.1562 11.7773 12.7637 10.8984 11.25 10.9082ZM7.86133 5.77148C7.86133 6.72852 8.50586 7.54883 9.39453 7.8125L9.39453 11.1914C9.39453 12.793 9.66797 13.7012 9.96094 13.7012C10.2637 13.7012 10.5371 12.8027 10.5371 11.1914L10.5371 7.8125C11.416 7.54883 12.0605 6.72852 12.0605 5.77148C12.0605 4.60938 11.1328 3.67188 9.96094 3.67188C8.78906 3.67188 7.86133 4.60938 7.86133 5.77148ZM10.0586 5.18555C10.0586 5.56641 9.75586 5.87891 9.375 5.87891C9.0332 5.87891 8.70117 5.56641 8.70117 5.18555C8.70117 4.81445 9.0332 4.51172 9.375 4.51172C9.75586 4.51172 10.0586 4.81445 10.0586 5.18555Z" fill="white" fill-opacity="0.85"/>
 </g>
</svg>
