<?xml version="1.0" encoding="UTF-8"?>
<!--Generator: Apple Native CoreSVG 341-->
<!DOCTYPE svg
PUBLIC "-//W3C//DTD SVG 1.1//EN"
       "http://www.w3.org/Graphics/SVG/1.1/DTD/svg11.dtd">
<svg version="1.1" xmlns="http://www.w3.org/2000/svg" xmlns:xlink="http://www.w3.org/1999/xlink" viewBox="0 0 22.6953 21.8457">
 <g>
  <rect height="21.8457" opacity="0" width="22.6953" x="0" y="0"/>
  <path d="M6.62109 5.60547C7.53906 6.33789 8.66211 6.875 9.87305 7.08984L9.87305 0.732422L11.1719 0L12.4609 0.732422L12.4609 7.08984C13.6719 6.875 14.7949 6.33789 15.7031 5.60547L18.0664 6.95312C16.2891 8.71094 13.8477 9.80469 11.1719 9.80469C8.47656 9.80469 6.04492 8.71094 4.26758 6.95312ZM9.48242 21.8262C10.1074 19.4141 9.83398 16.7578 8.48633 14.4336C7.13867 12.0996 4.99023 10.5371 2.58789 9.88281L2.58789 12.6074C3.69141 13.0273 4.69727 13.7207 5.50781 14.668L0 17.8516L0 19.3262L1.29883 20.0781L6.79688 16.9141C7.20703 18.0664 7.31445 19.2969 7.12891 20.4688ZM19.7461 9.88281C17.3535 10.5371 15.1855 12.0996 13.8477 14.4336C12.5 16.7578 12.2168 19.4141 12.8516 21.8262L15.2051 20.4688C15.0195 19.2969 15.1172 18.0664 15.5469 16.9141L21.0449 20.0781L22.334 19.3262L22.334 17.8516L16.8262 14.668C17.6367 13.7207 18.6426 13.0273 19.7461 12.6074Z" fill="white" fill-opacity="0.85"/>
 </g>
</svg>
