<?xml version="1.0" encoding="UTF-8"?>
<!--Generator: Apple Native CoreSVG 341-->
<!DOCTYPE svg
PUBLIC "-//W3C//DTD SVG 1.1//EN"
       "http://www.w3.org/Graphics/SVG/1.1/DTD/svg11.dtd">
<svg version="1.1" xmlns="http://www.w3.org/2000/svg" xmlns:xlink="http://www.w3.org/1999/xlink" viewBox="0 0 24.7852 22.8345">
 <g>
  <rect height="22.8345" opacity="0" width="24.7852" x="0" y="0"/>
  <path d="M5.94727 16.8616C7.01172 18.1018 9.17969 19.7131 12.2168 19.7131C14.0643 19.7131 15.7694 19.1119 17.1415 18.0867L18.3219 19.2664C16.6403 20.5889 14.5193 21.3733 12.2168 21.3733C8.44727 21.3733 5.85938 19.303 4.74609 17.9944C4.53125 17.7405 4.46289 17.4963 4.46289 17.2717C4.46289 16.8225 4.83398 16.51 5.23438 16.51C5.47852 16.51 5.73242 16.6077 5.94727 16.8616ZM22.1777 11.4124C22.1777 13.2318 21.6873 14.9396 20.8231 16.4044L19.6058 15.1865C20.1912 14.0575 20.5176 12.7736 20.5176 11.4124C20.5176 6.82252 16.8066 3.11158 12.2168 3.11158C10.8572 3.11158 9.57479 3.43718 8.44688 4.02132L7.22786 2.80162C8.69106 1.94022 10.3972 1.45142 12.2168 1.45142C17.7148 1.45142 22.1777 5.91431 22.1777 11.4124ZM5.53973 6.4913C4.66958 7.6549 4.10669 9.0596 3.95758 10.5871L5.48828 9.39088C5.63477 9.28345 5.80078 9.22486 5.98633 9.22486C6.39648 9.22486 6.75781 9.55689 6.75781 10.0159C6.75781 10.2698 6.64062 10.5042 6.42578 10.6604L3.87695 12.5452C3.63281 12.721 3.4375 12.7893 3.18359 12.7893C2.79297 12.7893 2.53906 12.6526 2.23633 12.262L0.175781 9.73267C0.0585938 9.58619 0 9.40064 0 9.20533C0 8.75611 0.351562 8.43384 0.800781 8.43384C1.08398 8.43384 1.31836 8.58033 1.47461 8.80494L2.35821 10.0614C2.58916 8.28193 3.29973 6.65432 4.35772 5.30995Z" fill="white" fill-opacity="0.425"/>
  <path d="M12.781 13.7286L10.625 15.0061C10.1953 15.26 9.70703 15.0549 9.70703 14.6155L9.70703 10.6563ZM15.8496 10.9241C16.1154 11.085 16.1958 11.4062 16.079 11.6577L14.6142 10.1921Z" fill="white" fill-opacity="0.425"/>
  <path d="M20.7129 20.0354C21.0059 20.3284 21.4844 20.3186 21.7773 20.0256C22.0605 19.7327 22.0703 19.2542 21.7773 18.9612L4.16992 1.36353C3.87695 1.07056 3.39844 1.07056 3.0957 1.36353C2.8125 1.64673 2.80273 2.13502 3.0957 2.42798Z" fill="white" fill-opacity="0.85"/>
 </g>
</svg>
