<svg version="1.1" xmlns="http://www.w3.org/2000/svg" xmlns:xlink="http://www.w3.org/1999/xlink" viewBox="0 0 24.0651 19.9316">
 <g>
  <rect height="19.9316" opacity="0" width="24.0651" x="0" y="0"/>
  <path d="M0.694677 8.07617C-0.00844799 8.07617-0.184229 8.55469 0.19663 9.10156L2.38413 12.207C2.7064 12.6562 3.17515 12.6465 3.48765 12.207L5.66538 9.0918C6.04624 8.55469 5.86069 8.07617 5.1771 8.07617ZM21.8177 9.96094C21.8177 4.46289 17.3548 0 11.8568 0C6.35874 0 1.90561 4.45312 1.89585 9.9707C1.90561 10.4297 2.26694 10.791 2.71616 10.791C3.17515 10.791 3.55601 10.4199 3.55601 9.96094C3.55601 5.37109 7.26694 1.66016 11.8568 1.66016C16.4466 1.66016 20.1576 5.37109 20.1576 9.96094C20.1576 14.5508 16.4466 18.2617 11.8568 18.2617C9.07358 18.2617 6.62241 16.8945 5.13804 14.8242C4.8353 14.4238 4.37632 14.2969 3.96616 14.541C3.57554 14.7852 3.45835 15.3418 3.79038 15.7715C5.60679 18.291 8.50718 19.9219 11.8568 19.9219C17.3548 19.9219 21.8177 15.459 21.8177 9.96094Z" fill="var(--color-secondary)"/>
  <path d="M8.78061 13.1445C9.12241 13.1445 9.29819 12.9102 9.29819 12.6172L9.29819 9.07227C9.29819 8.33008 9.63999 7.60742 10.4017 7.60742C11.0951 7.60742 11.3783 8.13477 11.3783 8.79883L11.3783 12.6172C11.3783 12.9199 11.5833 13.1445 11.8666 13.1445C12.1791 13.1445 12.3841 12.9199 12.3841 12.6172L12.3841 9.00391C12.3841 8.29102 12.7357 7.60742 13.4779 7.60742C14.2005 7.60742 14.4642 8.16406 14.4642 8.88672L14.4642 12.6172C14.4642 12.9199 14.6693 13.1445 14.972 13.1445C15.2845 13.1445 15.4896 12.9199 15.4896 12.6172L15.4896 8.63281C15.4896 7.55859 14.9623 6.67969 13.7806 6.67969C12.9603 6.67969 12.3451 7.16797 12.1888 7.88086L12.1498 7.88086C11.9837 7.10938 11.4857 6.67969 10.6947 6.67969C9.93296 6.67969 9.45444 7.1582 9.28843 7.85156L9.24936 7.85156L9.24936 7.20703C9.24936 6.89453 9.06382 6.68945 8.76108 6.68945C8.45835 6.68945 8.2728 6.89453 8.2728 7.20703L8.2728 12.6172C8.2728 12.9102 8.44858 13.1445 8.78061 13.1445ZM9.06382 15.6055C9.22983 15.6055 9.30796 15.5273 9.38608 15.3516L13.9955 4.80469C14.0248 4.74609 14.0345 4.67773 14.0345 4.61914C14.0345 4.43359 13.9076 4.31641 13.722 4.31641C13.556 4.31641 13.4681 4.42383 13.3998 4.57031L8.79038 15.1172C8.76108 15.1855 8.75132 15.2441 8.75132 15.3125C8.75132 15.4883 8.87827 15.6055 9.06382 15.6055Z" fill="var(--color-primary)"/>
 </g>
</svg>
