<?xml version="1.0" encoding="UTF-8"?>
<!--Generator: Apple Native CoreSVG 341-->
<!DOCTYPE svg
PUBLIC "-//W3C//DTD SVG 1.1//EN"
       "http://www.w3.org/Graphics/SVG/1.1/DTD/svg11.dtd">
<svg version="1.1" xmlns="http://www.w3.org/2000/svg" xmlns:xlink="http://www.w3.org/1999/xlink" viewBox="0 0 18.3398 17.9785">
 <g>
  <rect height="17.9785" opacity="0" width="18.3398" x="0" y="0"/>
  <path d="M3.06641 17.9785L14.9121 17.9785C16.9629 17.9785 17.9785 16.9727 17.9785 14.9609L17.9785 3.02734C17.9785 1.01562 16.9629 0 14.9121 0L3.06641 0C1.02539 0 0 1.01562 0 3.02734L0 14.9609C0 16.9727 1.02539 17.9785 3.06641 17.9785Z" fill="white" fill-opacity="0.2125"/>
  <path d="M5.82031 12.2656C5.47852 12.2656 5.29297 12.0312 5.29297 11.7285L5.29297 6.14258C5.29297 5.82031 5.48828 5.60547 5.80078 5.60547C6.11328 5.60547 6.30859 5.82031 6.30859 6.14258L6.30859 6.80664L6.34766 6.80664C6.51367 6.09375 7.02148 5.5957 7.79297 5.5957C8.52539 5.5957 9.00391 5.94727 9.22852 6.5625L10.5859 3.41797C10.6543 3.27148 10.752 3.16406 10.918 3.16406C11.1133 3.16406 11.25 3.28125 11.25 3.47656C11.25 3.53516 11.2305 3.60352 11.2012 3.66211L10.3125 5.72266C10.5078 5.64453 10.7324 5.5957 10.9766 5.5957C12.1973 5.5957 12.7441 6.50391 12.7441 7.61719L12.7441 11.7285C12.7441 12.041 12.5293 12.2656 12.207 12.2656C11.8945 12.2656 11.6797 12.041 11.6797 11.7285L11.6797 7.87109C11.6797 7.12891 11.416 6.5625 10.6641 6.5625C9.90234 6.5625 9.54102 7.26562 9.54102 7.99805L9.54102 11.7285C9.54102 12.041 9.32617 12.2656 9.01367 12.2656C8.71094 12.2656 8.49609 12.041 8.49609 11.7285L8.49609 9.83398L6.44531 14.5508C6.35742 14.7266 6.28906 14.8047 6.11328 14.8047C5.92773 14.8047 5.78125 14.6875 5.78125 14.502C5.78125 14.4336 5.79102 14.375 5.83008 14.3066L8.49609 8.19336L8.49609 7.7832C8.49609 7.08984 8.20312 6.5625 7.49023 6.5625C6.71875 6.5625 6.35742 7.30469 6.35742 8.06641L6.35742 11.7285C6.35742 12.0312 6.17188 12.2656 5.82031 12.2656Z" fill="white" fill-opacity="0.85"/>
 </g>
</svg>
