<svg version="1.1" xmlns="http://www.w3.org/2000/svg" xmlns:xlink="http://www.w3.org/1999/xlink" viewBox="0 0 23.3887 24.4629">
 <g>
  <rect height="24.4629" opacity="0" width="23.3887" x="0" y="0"/>
  <path d="M7.36328 5.3125L7.36328 6.39648L9.21071 6.39648L9.25052 7.96875L3.08594 7.96875C2.12891 7.96875 1.57227 8.49609 1.57227 9.51172L1.57227 17.5C1.57227 18.5156 2.10938 19.0332 3.08594 19.0332L19.9316 19.0332C20.8984 19.0332 21.4453 18.5156 21.4453 17.5L21.4453 9.51172C21.4453 8.49609 20.8984 7.96875 19.9316 7.96875L13.8354 7.96875L13.8752 6.39648L15.6445 6.39648L15.6445 5.3125C15.6445 4.63867 16.0254 4.25781 16.6895 4.25781L18.623 4.25781C19.2871 4.25781 19.668 4.63867 19.668 5.3125L19.668 6.39648L19.9512 6.39648C21.9922 6.39648 23.0273 7.41211 23.0273 9.42383L23.0273 17.5781C23.0273 19.5898 22.002 20.6055 19.9609 20.6055L3.06641 20.6055C1.02539 20.6055 0 19.5996 0 17.5781L0 9.42383C0 7.41211 1.02539 6.39648 3.06641 6.39648L3.33008 6.39648L3.33008 5.3125C3.33008 4.63867 3.71094 4.25781 4.375 4.25781L6.30859 4.25781C6.98242 4.25781 7.36328 4.63867 7.36328 5.3125ZM17.7344 11.9043L17.7344 13.0176L18.8477 13.0176C19.1797 13.0176 19.4531 13.291 19.4531 13.6133C19.4531 13.9453 19.1797 14.209 18.8477 14.209L17.7344 14.209L17.7344 15.3223C17.7344 15.6641 17.4707 15.918 17.1387 15.918C16.8066 15.918 16.5527 15.6641 16.5527 15.3223L16.5527 14.209L15.4297 14.209C15.0977 14.209 14.8242 13.9453 14.8242 13.6133C14.8242 13.291 15.0879 13.0176 15.4297 13.0176L16.5527 13.0176L16.5527 11.9043C16.5527 11.5625 16.8066 11.3086 17.1387 11.3086C17.4707 11.3086 17.7344 11.5625 17.7344 11.9043ZM7.58789 13.6035C7.58789 13.9355 7.31445 14.209 6.99219 14.209L3.90625 14.209C3.57422 14.209 3.32031 13.9355 3.32031 13.6035C3.32031 13.2812 3.57422 13.0176 3.90625 13.0176L6.99219 13.0176C7.31445 13.0176 7.58789 13.2812 7.58789 13.6035Z" fill="var(--color-secondary)"/>
  <path d="M11.5332 16.2793C12.2754 16.2793 12.8906 15.6738 12.8906 14.9805C12.8906 14.2578 12.2852 13.6914 11.5332 13.6914C10.791 13.6914 10.1855 14.2578 10.1855 14.9805C10.1855 15.6738 10.8008 16.2793 11.5332 16.2793ZM11.5332 12.0312C12.041 12.0312 12.4023 11.6602 12.4219 11.1426L12.6367 2.46094C12.6562 1.80664 12.2168 1.36719 11.5332 1.36719C10.8594 1.36719 10.4199 1.80664 10.4395 2.46094L10.6543 11.1426C10.6738 11.6602 11.0352 12.0312 11.5332 12.0312Z" fill="var(--color-primary)"/>
 </g>
</svg>
