<?xml version="1.0" encoding="UTF-8"?>
<!--Generator: Apple Native CoreSVG 341-->
<!DOCTYPE svg
PUBLIC "-//W3C//DTD SVG 1.1//EN"
       "http://www.w3.org/Graphics/SVG/1.1/DTD/svg11.dtd">
<svg version="1.1" xmlns="http://www.w3.org/2000/svg" xmlns:xlink="http://www.w3.org/1999/xlink" viewBox="0 0 28.4668 21.6504">
 <g>
  <rect height="21.6504" opacity="0" width="28.4668" x="0" y="0"/>
  <path d="M28.1055 10.8789L28.1055 20.0684C28.1055 20.9473 27.5488 21.4453 26.5918 21.4453L7.49023 21.4453C6.59302 21.4453 6.0675 20.9878 6.05588 20.1758L26.3086 20.1758C26.6406 20.1758 26.8262 20.0098 26.8262 19.668L26.8262 9.58496C27.6353 9.63352 28.1055 10.0951 28.1055 10.8789Z" fill="white" fill-opacity="0.85"/>
  <path d="M25.6055 7.36328L25.6055 17.5781C25.6055 18.457 25.0488 18.9551 24.0918 18.9551L4.36523 18.9551C3.44727 18.9551 2.91992 18.4863 2.91992 17.6562L2.91992 17.5684L23.6914 17.5684C24.0234 17.5684 24.209 17.4023 24.209 17.0605L24.209 6.06545C25.0898 6.07518 25.6055 6.55212 25.6055 7.36328Z" fill="white" fill-opacity="0.85"/>
  <path d="M8.05664 1.05469L8.05664 2.14844L14.6875 2.14844L14.6875 1.05469C14.6875 0.390625 15.0684 0 15.7324 0L17.7637 0C18.4277 0 18.8184 0.390625 18.8184 1.05469L18.8184 2.14844L19.668 2.14844C21.6992 2.14844 22.7441 3.16406 22.7441 5.17578L22.7441 13.0664C22.7441 15.4199 22.0508 16.0938 19.6777 16.0938L3.06641 16.0938C1.02539 16.0938 0 15.0879 0 13.0664L0 5.17578C0 3.16406 1.02539 2.14844 3.06641 2.14844L3.92578 2.14844L3.92578 1.05469C3.92578 0.390625 4.30664 0 4.9707 0L7.00195 0C7.67578 0 8.05664 0.390625 8.05664 1.05469ZM15.6836 7.06055L15.6836 8.4375L14.2969 8.4375C13.9258 8.4375 13.6328 8.73047 13.6328 9.0918C13.6328 9.46289 13.9258 9.76562 14.2969 9.76562L15.6836 9.76562L15.6836 11.1328C15.6836 11.5137 15.9668 11.8066 16.3379 11.8066C16.709 11.8066 17.0117 11.5137 17.0117 11.1328L17.0117 9.76562L18.3789 9.76562C18.75 9.76562 19.0527 9.46289 19.0527 9.0918C19.0527 8.73047 18.75 8.4375 18.3789 8.4375L17.0117 8.4375L17.0117 7.06055C17.0117 6.67969 16.709 6.39648 16.3379 6.39648C15.9668 6.39648 15.6836 6.67969 15.6836 7.06055ZM4.58984 8.4375C4.20898 8.4375 3.91602 8.73047 3.91602 9.0918C3.91602 9.46289 4.20898 9.76562 4.58984 9.76562L8.19336 9.76562C8.56445 9.76562 8.86719 9.46289 8.86719 9.0918C8.86719 8.73047 8.56445 8.4375 8.19336 8.4375Z" fill="white" fill-opacity="0.85"/>
 </g>
</svg>
