<?xml version="1.0" encoding="UTF-8"?>
<!--Generator: Apple Native CoreSVG 341-->
<!DOCTYPE svg
PUBLIC "-//W3C//DTD SVG 1.1//EN"
       "http://www.w3.org/Graphics/SVG/1.1/DTD/svg11.dtd">
<svg version="1.1" xmlns="http://www.w3.org/2000/svg" xmlns:xlink="http://www.w3.org/1999/xlink" viewBox="0 0 22.5124 22.1608">
 <g>
  <rect height="22.1608" opacity="0" width="22.5124" x="0" y="0"/>
  <path d="M13.2435 1.09505L21.056 8.90755C22.5013 10.3529 22.5111 11.7884 21.0853 13.2142L13.224 21.0853C11.7884 22.5111 10.3626 22.5013 8.91731 21.056L1.09505 13.2337C-0.350264 11.7884-0.369795 10.3626 1.06575 8.92708L8.93685 1.06575C10.3724-0.369795 11.7982-0.350264 13.2435 1.09505ZM7.1302 10.2357C6.54427 10.2357 6.16341 10.5482 6.16341 11.095C6.16341 11.6322 6.5638 11.9349 7.1302 11.9349L15.0208 11.9349C15.5872 11.9349 15.9779 11.6322 15.9779 11.095C15.9779 10.5482 15.6165 10.2357 15.0208 10.2357Z" fill="white" fill-opacity="0.85"/>
 </g>
</svg>
