<svg version="1.1" xmlns="http://www.w3.org/2000/svg" xmlns:xlink="http://www.w3.org/1999/xlink" viewBox="0 0 23.3887 17.9785">
 <g>
  <rect height="17.9785" opacity="0" width="23.3887" x="0" y="0"/>
  <path d="M3.06641 17.9785L19.9609 17.9785C22.0117 17.9785 23.0273 16.9727 23.0273 14.9609L23.0273 3.02734C23.0273 1.01562 22.0117 0 19.9609 0L3.06641 0C1.02539 0 0 1.01562 0 3.02734L0 14.9609C0 16.9727 1.02539 17.9785 3.06641 17.9785Z" fill="var(--color-tertiary)"/>
  <path d="M7.57812 9.85352C7.01172 9.85352 6.61133 9.55078 6.61133 9.01367C6.61133 8.4668 6.99219 8.1543 7.57812 8.1543L15.4688 8.1543C16.0645 8.1543 16.4258 8.4668 16.4258 9.01367C16.4258 9.55078 16.0352 9.85352 15.4688 9.85352Z" fill="var(--color-primary)"/>
 </g>
</svg>
