<svg version="1.1" xmlns="http://www.w3.org/2000/svg" xmlns:xlink="http://www.w3.org/1999/xlink" viewBox="0 0 23.3887 22.1998">
 <g>
  <rect height="22.1998" opacity="0" width="23.3887" x="0" y="0"/>
  <path d="M4.29088 6.80791L3.08594 6.80791C2.10938 6.80791 1.57227 7.32549 1.57227 8.34112L1.57227 16.3685C1.57227 17.3743 2.10938 17.9017 3.08594 17.9017L15.3964 17.9017L16.9704 19.4739L3.06641 19.4739C1.02539 19.4739 0 18.4681 0 16.4466L0 8.25323C0 6.35635 0.911656 5.35377 2.72773 5.24642ZM8.4668 3.92706L8.4668 5.23565L14.5703 5.23565L14.5703 3.92706C14.5703 3.18487 15 2.73565 15.7422 2.73565L17.6953 2.73565C18.4473 2.73565 18.877 3.18487 18.877 3.92706L18.877 5.23565L19.9609 5.23565C22.0117 5.23565 23.0273 6.25127 23.0273 8.25323L23.0273 16.4466C23.0273 17.6844 22.6428 18.5452 21.8676 19.0226C21.8524 19.0028 21.8346 18.9843 21.8164 18.9661L20.6337 17.7841C21.1654 17.5791 21.4551 17.1005 21.4551 16.3685L21.4551 8.34112C21.4551 7.32549 20.9082 6.80791 19.9414 6.80791L9.65175 6.80791L5.57732 2.73565L7.28516 2.73565C8.03711 2.73565 8.4668 3.18487 8.4668 3.92706ZM16.6992 10.1087L16.6992 11.6224L18.2129 11.6224C18.6133 11.6224 18.9355 11.9349 18.9355 12.345C18.9355 12.7454 18.6133 13.0579 18.2129 13.0579L16.6992 13.0579L16.6992 13.8516L14.4688 11.6224L15.2637 11.6224L15.2637 10.1087C15.2637 9.70831 15.5859 9.38604 15.9863 9.38604C16.3867 9.38604 16.6992 9.70831 16.6992 10.1087ZM9.11291 11.6248L9.77247 12.2837C9.77459 12.3037 9.77539 12.3243 9.77539 12.345C9.77539 12.7454 9.46289 13.0579 9.0625 13.0579L4.99023 13.0579C4.58984 13.0579 4.26758 12.7454 4.26758 12.345C4.26758 11.9349 4.58984 11.6224 4.99023 11.6224L9.0625 11.6224C9.07955 11.6224 9.09644 11.6229 9.11291 11.6248Z" fill="var(--color-secondary)"/>
  <path d="M19.9512 20.8411C20.2441 21.1341 20.7227 21.1341 21.0156 20.8411C21.2988 20.5384 21.3086 20.0696 21.0156 19.7767L2.61719 1.38799C2.32422 1.09502 1.8457 1.08526 1.54297 1.38799C1.25977 1.6712 1.25977 2.15948 1.54297 2.45245Z" fill="var(--color-primary)"/>
 </g>
</svg>
