<?xml version="1.0" encoding="UTF-8"?>
<!--Generator: Apple Native CoreSVG 341-->
<!DOCTYPE svg
PUBLIC "-//W3C//DTD SVG 1.1//EN"
       "http://www.w3.org/Graphics/SVG/1.1/DTD/svg11.dtd">
<svg version="1.1" xmlns="http://www.w3.org/2000/svg" xmlns:xlink="http://www.w3.org/1999/xlink" viewBox="0 0 27.5879 15.127">
 <g>
  <rect height="15.127" opacity="0" width="27.5879" x="0" y="0"/>
  <path d="M20.2832 0.507812C24.7168 1.05469 27.2266 3.76953 27.2266 8.125C27.2266 12.1973 24.7852 14.3945 20.6445 14.3945L5.81055 14.3945C4.30664 14.3945 3.02734 14.541 1.82617 14.8438C0.800781 15.0977 0 14.6777 0 13.6328L0 8.95508C0 8.29102 0.478516 7.80273 1.15234 7.80273L3.67188 7.80273C4.49219 7.80273 4.89258 7.45117 4.80469 6.68945L4.51172 3.82812C4.27734 1.44531 5.63477 0 8.29102 0C11.3574 0.00976562 17.0312 0.126953 20.2832 0.507812ZM6.06445 3.65234L6.8457 10.5859C7.03125 12.2266 7.73438 12.8223 9.52148 12.8223L20.6738 12.8223C23.7793 12.8223 25.6543 11.1719 25.6543 8.125C25.6543 4.67773 23.6914 2.5 20.1465 2.08984C16.9434 1.72852 11.3574 1.57227 8.29102 1.57227C6.5918 1.57227 5.91797 2.25586 6.06445 3.65234Z" fill="white" fill-opacity="0.85"/>
 </g>
</svg>
