<svg version="1.1" xmlns="http://www.w3.org/2000/svg" xmlns:xlink="http://www.w3.org/1999/xlink" viewBox="0 0 28.0566 23.5645">
 <g>
  <rect height="23.5645" opacity="0" width="28.0566" x="0" y="0"/>
  <path d="M11.0352 7.03125C10.7422 7.74414 10.5371 8.76953 10.5371 9.66797C10.5371 14.502 13.3105 17.2656 18.125 17.2656C19.043 17.2656 20.0195 17.0801 20.6152 16.875C21.1523 16.7188 21.5039 17.0801 21.2305 17.6562C20.9677 18.2208 20.6346 18.7602 20.2361 19.2578L7.03301 19.2578C5.89267 17.8272 5.21484 16.0141 5.21484 14.043C5.21484 10.5273 7.40234 7.55859 10.2832 6.31836C10.8496 6.06445 11.2695 6.41602 11.0352 7.03125Z" fill="var(--color-secondary)"/>
  <path d="M2.1875 21.9629L25.5176 21.9629C25.9766 21.9629 26.3672 21.6113 26.3672 21.1816C26.3672 20.752 25.9766 20.4004 25.5176 20.4004L2.1875 20.4004C1.71875 20.4004 1.33789 20.752 1.33789 21.1816C1.33789 21.6113 1.71875 21.9629 2.1875 21.9629Z" fill="var(--color-primary)"/>
  <path d="M18.7793 9.6875L17.4902 8.11523L16.1719 6.78711C16.0254 6.65039 15.8398 6.5625 15.6445 6.5625C15.2539 6.5625 14.9805 6.83594 14.9805 7.2168C14.9805 7.42188 15.0488 7.57812 15.2148 7.73438L18.2617 10.5762C18.4668 10.7617 18.6133 10.8301 18.7891 10.8301C18.9746 10.8301 19.1113 10.7617 19.3164 10.5762L22.3633 7.73438C22.5293 7.57812 22.5977 7.42188 22.5977 7.2168C22.5977 6.83594 22.3242 6.5625 21.9336 6.5625C21.748 6.5625 21.5527 6.65039 21.416 6.78711L20.1855 8.01758ZM19.4434 9.32617L19.5801 7.38281L19.5801 2.45117C19.5801 1.97266 19.209 1.58203 18.7793 1.58203C18.3496 1.58203 17.9883 1.97266 17.9883 2.45117L17.9883 7.38281L18.1152 9.32617C18.1445 9.6875 18.418 9.98047 18.7793 9.98047C19.1504 9.98047 19.4141 9.6875 19.4434 9.32617Z" fill="var(--color-primary)"/>
 </g>
</svg>
