<?xml version="1.0" encoding="UTF-8"?>
<!--Generator: Apple Native CoreSVG 341-->
<!DOCTYPE svg
PUBLIC "-//W3C//DTD SVG 1.1//EN"
       "http://www.w3.org/Graphics/SVG/1.1/DTD/svg11.dtd">
<svg version="1.1" xmlns="http://www.w3.org/2000/svg" xmlns:xlink="http://www.w3.org/1999/xlink" viewBox="0 0 28.0566 25.6934">
 <g>
  <rect height="25.6934" opacity="0" width="28.0566" x="0" y="0"/>
  <path d="M11.0352 8.0957C10.7422 8.80859 10.5371 9.83398 10.5371 10.7324C10.5371 15.5664 13.3105 18.3301 18.125 18.3301C19.043 18.3301 20.0195 18.1445 20.6152 17.9395C21.1523 17.7832 21.5039 18.1445 21.2305 18.7207C20.7525 19.7477 20.0417 20.6918 19.1485 21.4648L16.5932 21.4648C17.5176 21.0329 18.3178 20.4054 18.9453 19.6484C18.7012 19.6973 18.4277 19.7363 18.125 19.7363C12.5293 19.7363 9.14062 16.3379 9.14062 10.7324C9.14062 10.3711 9.17969 10.0195 9.25781 9.66797C7.73438 10.8789 6.61133 12.8125 6.61133 15.1074C6.61133 17.924 8.28452 20.3572 10.6914 21.4648L8.12657 21.4648C6.34115 19.9267 5.21484 17.6483 5.21484 15.1074C5.21484 11.5918 7.40234 8.62305 10.2832 7.38281C10.8496 7.12891 11.2695 7.48047 11.0352 8.0957Z" fill="white" fill-opacity="0.425"/>
  <path d="M2.1875 23.0273L25.5176 23.0273C25.9766 23.0273 26.3672 22.6758 26.3672 22.2461C26.3672 21.8164 25.9766 21.4648 25.5176 21.4648L2.1875 21.4648C1.71875 21.4648 1.33789 21.8164 1.33789 22.2461C1.33789 22.6758 1.71875 23.0273 2.1875 23.0273Z" fill="white" fill-opacity="0.85"/>
  <path d="M18.7793 10.752L17.4902 9.17969L16.1719 7.85156C16.0254 7.71484 15.8398 7.62695 15.6445 7.62695C15.2539 7.62695 14.9805 7.90039 14.9805 8.28125C14.9805 8.48633 15.0488 8.64258 15.2148 8.79883L18.2617 11.6406C18.4668 11.8262 18.6133 11.8945 18.7891 11.8945C18.9746 11.8945 19.1113 11.8262 19.3164 11.6406L22.3633 8.79883C22.5293 8.64258 22.5977 8.48633 22.5977 8.28125C22.5977 7.90039 22.3242 7.62695 21.9336 7.62695C21.748 7.62695 21.5527 7.71484 21.416 7.85156L20.1855 9.08203ZM19.4434 10.3906L19.5801 8.44727L19.5801 3.51562C19.5801 3.03711 19.209 2.64648 18.7793 2.64648C18.3496 2.64648 17.9883 3.03711 17.9883 3.51562L17.9883 8.44727L18.1152 10.3906C18.1445 10.752 18.418 11.0449 18.7793 11.0449C19.1504 11.0449 19.4141 10.752 19.4434 10.3906Z" fill="white" fill-opacity="0.85"/>
 </g>
</svg>
