<?xml version="1.0" encoding="UTF-8"?>
<!--Generator: Apple Native CoreSVG 341-->
<!DOCTYPE svg
PUBLIC "-//W3C//DTD SVG 1.1//EN"
       "http://www.w3.org/Graphics/SVG/1.1/DTD/svg11.dtd">
<svg version="1.1" xmlns="http://www.w3.org/2000/svg" xmlns:xlink="http://www.w3.org/1999/xlink" viewBox="0 0 20.2832 19.9316">
 <g>
  <rect height="19.9316" opacity="0" width="20.2832" x="0" y="0"/>
  <path d="M9.96094 19.9316C15.459 19.9316 19.9219 15.4688 19.9219 9.9707C19.9219 4.48242 15.459 0.00976562 9.96094 0.00976562C4.47266 0.00976562 0 4.48242 0 9.9707C0 15.4688 4.47266 19.9316 9.96094 19.9316Z" fill="white" fill-opacity="0.2125"/>
  <path d="M10.0684 15.8496C6.91406 15.8496 4.36523 13.291 4.36523 10.166C4.36523 7.7832 5.83984 5.78125 7.79297 4.93164C8.18359 4.77539 8.44727 5.00977 8.29102 5.42969C8.10547 5.9082 7.95898 6.61133 7.95898 7.2168C7.95898 10.4785 9.82422 12.3535 13.0859 12.3535C13.6914 12.3535 14.375 12.2266 14.7656 12.0801C15.1074 11.9727 15.3711 12.2266 15.1758 12.5977C14.3262 14.4336 12.4121 15.8496 10.0684 15.8496Z" fill="white" fill-opacity="0.85"/>
 </g>
</svg>
