<?xml version="1.0" encoding="UTF-8"?>
<!--Generator: Apple Native CoreSVG 341-->
<!DOCTYPE svg
PUBLIC "-//W3C//DTD SVG 1.1//EN"
       "http://www.w3.org/Graphics/SVG/1.1/DTD/svg11.dtd">
<svg version="1.1" xmlns="http://www.w3.org/2000/svg" xmlns:xlink="http://www.w3.org/1999/xlink" viewBox="0 0 19.9414 19.7349">
 <g>
  <rect height="19.7349" opacity="0" width="19.9414" x="0" y="0"/>
  <path d="M10.2344 19.7161C14.4922 19.7161 17.9395 17.1477 19.4727 13.8762C19.8047 13.1926 19.3652 12.7336 18.7109 12.9387C17.9883 13.1829 16.7969 13.4172 15.6934 13.4172C9.83398 13.4172 6.47461 10.0579 6.47461 4.18873C6.47461 3.08521 6.71875 1.84498 7.07031 0.956304C7.35352 0.233648 6.85547-0.205805 6.16211 0.0969294C2.65625 1.62037 0 5.20435 0 9.48169C0 15.136 4.58984 19.7161 10.2344 19.7161ZM10.2344 18.2024C5.42969 18.2024 1.51367 14.2961 1.51367 9.48169C1.51367 6.47388 3.0957 3.94459 5.15625 2.45044C5.0293 3.02662 4.96094 3.58326 4.96094 4.18873C4.96094 10.8977 8.99414 14.9309 15.6934 14.9309C16.2109 14.9309 16.6992 14.8626 17.1094 14.7844C15.5957 16.7961 13.125 18.2024 10.2344 18.2024Z" fill="white" fill-opacity="0.85"/>
 </g>
</svg>
