<?xml version="1.0" encoding="UTF-8"?>
<!--Generator: Apple Native CoreSVG 341-->
<!DOCTYPE svg
PUBLIC "-//W3C//DTD SVG 1.1//EN"
       "http://www.w3.org/Graphics/SVG/1.1/DTD/svg11.dtd">
<svg version="1.1" xmlns="http://www.w3.org/2000/svg" xmlns:xlink="http://www.w3.org/1999/xlink" viewBox="0 0 20.2832 19.9316">
 <g>
  <rect height="19.9316" opacity="0" width="20.2832" x="0" y="0"/>
  <path d="M9.96094 19.9219C15.459 19.9219 19.9219 15.459 19.9219 9.96094C19.9219 4.46289 15.459 0 9.96094 0C4.46289 0 0 4.46289 0 9.96094C0 15.459 4.46289 19.9219 9.96094 19.9219ZM9.96094 18.2617C5.37109 18.2617 1.66016 14.5508 1.66016 9.96094C1.66016 5.37109 5.37109 1.66016 9.96094 1.66016C14.5508 1.66016 18.2617 5.37109 18.2617 9.96094C18.2617 14.5508 14.5508 18.2617 9.96094 18.2617Z" fill="white" fill-opacity="0.85"/>
  <path d="M12.3047 8.69141C12.5879 8.69141 12.8027 8.4375 12.8027 8.14453L12.8027 5.98633L12.7832 5.625L12.9004 5.74219L13.4961 6.35742C13.5742 6.45508 13.7305 6.50391 13.8379 6.50391C14.1016 6.50391 14.2871 6.31836 14.2871 6.06445C14.2871 5.94727 14.248 5.83008 14.1309 5.72266L12.6367 4.32617C12.5293 4.21875 12.4219 4.16992 12.3047 4.16992C12.1777 4.16992 12.0801 4.21875 11.9629 4.32617L10.4688 5.72266C10.3516 5.83008 10.3125 5.94727 10.3125 6.06445C10.3125 6.31836 10.5078 6.50391 10.7617 6.50391C10.8789 6.50391 11.0059 6.44531 11.1035 6.35742L11.7676 5.70312L11.8164 5.6543L11.7969 5.98633L11.7969 8.14453C11.7969 8.4375 12.0117 8.69141 12.3047 8.69141ZM4.84375 14.4238L15.0586 14.4238C15.3418 14.4238 15.5957 14.1992 15.5957 13.916C15.5957 13.6328 15.3516 13.418 15.0586 13.418L4.84375 13.418C4.56055 13.418 4.30664 13.6328 4.30664 13.916C4.30664 14.1992 4.57031 14.4238 4.84375 14.4238ZM6.63086 12.7148L13.584 12.7148C13.7793 12.4805 13.916 12.2168 14.043 11.9336C14.1309 11.7188 14.1113 11.543 13.9941 11.4062C13.8965 11.3281 13.7402 11.2988 13.5449 11.377C13.1738 11.5234 12.7148 11.6016 12.1875 11.6016C10.0195 11.6016 8.64258 10.2637 8.64258 8.14453C8.64258 7.58789 8.73047 6.98242 8.89648 6.66992C9.00391 6.47461 8.98438 6.28906 8.89648 6.16211C8.78906 6.03516 8.58398 6.00586 8.34961 6.11328C6.83594 6.72852 5.81055 8.31055 5.81055 10.1367C5.81055 11.123 6.11328 12.002 6.63086 12.7148Z" fill="white" fill-opacity="0.85"/>
 </g>
</svg>
