<?xml version="1.0" encoding="UTF-8"?>
<!--Generator: Apple Native CoreSVG 341-->
<!DOCTYPE svg
PUBLIC "-//W3C//DTD SVG 1.1//EN"
       "http://www.w3.org/Graphics/SVG/1.1/DTD/svg11.dtd">
<svg version="1.1" xmlns="http://www.w3.org/2000/svg" xmlns:xlink="http://www.w3.org/1999/xlink" viewBox="0 0 27.8306 19.6191">
 <g>
  <rect height="19.6191" opacity="0" width="27.8306" x="0" y="0"/>
  <path d="M6.44458 19.6191C9.19848 19.6191 11.425 17.4121 11.4641 14.668L9.88208 14.6582C9.84301 16.5332 8.30981 18.0273 6.43481 18.0273C4.53051 18.0273 3.00708 16.5332 2.96801 14.6582L1.38598 14.668C1.42504 17.4219 3.66137 19.6191 6.44458 19.6191ZM1.02465 15.5762L17.8899 15.5762L17.8899 13.9941L12.3332 13.9941L12.3332 8.78906C12.3332 8.01758 11.9915 7.66602 11.259 7.66602L6.08325 7.66602C1.73754 7.66602-0.479253 11.1719 0.0871535 14.8828C0.155513 15.3125 0.419185 15.5762 1.02465 15.5762ZM1.61059 13.9941C1.39575 11.5137 2.73364 9.23828 6.08325 9.23828L10.761 9.23828L10.761 13.9941ZM5.85864 6.92383L11.6106 6.92383C12.0305 6.92383 12.3625 6.58203 12.3625 6.16211C12.3625 5.75195 12.0207 5.41016 11.6106 5.41016L5.85864 5.41016C5.44848 5.41016 5.09692 5.75195 5.09692 6.16211C5.09692 6.58203 5.43872 6.92383 5.85864 6.92383ZM16.7571 14.8145L18.3293 14.8145L18.3293 6.88477L20.6731 6.88477L20.6438 5.3125L17.8313 5.3125C17.1086 5.3125 16.7571 5.68359 16.7571 6.44531ZM23.5442 6.78711C23.8957 6.82617 24.0618 6.54297 23.9934 6.20117L23.4465 3.58398C23.3782 3.24219 23.1243 3.07617 22.802 3.25195C22.5481 3.38867 22.3137 3.60352 22.1477 3.85742C21.5618 4.7168 21.8157 5.92773 22.675 6.48438C22.9192 6.65039 23.2317 6.76758 23.5442 6.78711ZM22.4407 19.6191C25.2239 19.6191 27.47 17.3633 27.47 14.5898C27.47 11.7969 25.2239 9.53125 22.4407 9.53125C19.6379 9.53125 17.3821 11.7969 17.3821 14.5898C17.3821 17.373 19.6379 19.6191 22.4407 19.6191ZM22.4309 18.0273C20.5071 18.0273 18.9641 16.4941 18.9641 14.5801C18.9641 12.666 20.5071 11.123 22.4309 11.123C24.3352 11.123 25.8879 12.666 25.8879 14.5801C25.8879 16.4844 24.3352 18.0273 22.4309 18.0273ZM22.4114 15.8496C23.1145 15.8496 23.6809 15.2832 23.6809 14.5801C23.6809 13.8574 23.1243 13.3008 22.4114 13.3008C21.6985 13.3008 21.1809 13.8477 21.1711 14.5801C21.1614 15.2832 21.6887 15.8496 22.4114 15.8496ZM21.7571 14.5117L23.1145 14.0234L20.2727 0.654297C20.175 0.175781 19.7844 0 19.218 0L17.1965 0C16.7766 0 16.4446 0.341797 16.4446 0.761719C16.4446 1.18164 16.7766 1.51367 17.1965 1.51367L18.9348 1.51367C19.0129 1.51367 19.052 1.5332 19.0618 1.58203Z" fill="white" fill-opacity="0.85"/>
 </g>
</svg>
