<svg version="1.1" xmlns="http://www.w3.org/2000/svg" xmlns:xlink="http://www.w3.org/1999/xlink" viewBox="0 0 13.3472 13.0152">
 <g>
  <rect height="13.0152" opacity="0" width="13.3472" x="0" y="0"/>
  <path d="M1.49293 12.7625L12.7332 1.51246C13.075 1.18043 13.0847 0.604261 12.7332 0.27223C12.4011-0.0695668 11.8347-0.0598012 11.5027 0.27223L0.252699 11.5222C-0.0793324 11.8543-0.0890981 12.4207 0.252699 12.7625C0.58473 13.1043 1.1609 13.0945 1.49293 12.7625ZM0.252699 1.51246L11.5027 12.7625C11.8347 13.0945 12.4011 13.1043 12.7332 12.7625C13.0847 12.4207 13.075 11.8543 12.7332 11.5222L1.49293 0.27223C1.1609-0.0598012 0.58473-0.0695668 0.252699 0.27223C-0.0890981 0.604261-0.0793324 1.18043 0.252699 1.51246Z" fill="var(--color-primary)"/>
 </g>
</svg>
