<svg version="1.1" xmlns="http://www.w3.org/2000/svg" xmlns:xlink="http://www.w3.org/1999/xlink" viewBox="0 0 24.7754 19.541">
 <g>
  <rect height="19.541" opacity="0" width="24.7754" x="0" y="0"/>
  <path d="M2.50977 16.2109L21.9043 16.2109C23.5742 16.2109 24.4141 15.4004 24.4141 13.7012L24.4141 2.50977C24.4141 0.810547 23.5742 0 21.9043 0L2.50977 0C0.849609 0 0 0.810547 0 2.50977L0 13.7012C0 15.4004 0.849609 16.2109 2.50977 16.2109ZM7.29492 19.5215L17.1191 19.5215C17.5488 19.5215 17.9102 19.1699 17.9102 18.7305C17.9102 18.291 17.5488 17.9395 17.1191 17.9395L7.29492 17.9395C6.86523 17.9395 6.50391 18.291 6.50391 18.7305C6.50391 19.1699 6.86523 19.5215 7.29492 19.5215Z" fill="var(--color-tertiary)"/>
  <path d="M15.3027 6.21094L12.9004 6.79688C12.666 6.8457 12.5781 6.94336 12.5781 7.32422L12.5781 10.8398C12.5781 12.3242 11.582 13.3691 10.1172 13.3691C9.0918 13.3691 8.4375 12.7344 8.4375 11.8652C8.4375 10.8594 9.21875 10.3027 10.1465 10.0684L11.0938 9.81445C11.6016 9.6875 11.6406 9.58984 11.6406 9.13086L11.6406 4.52148C11.6406 3.91602 11.7578 3.81836 12.2559 3.69141L15.2637 2.93945C15.8105 2.80273 15.9375 2.97852 15.9375 3.36914L15.9375 5.39062C15.9375 5.98633 15.8008 6.09375 15.3027 6.21094Z" fill="var(--color-primary)"/>
 </g>
</svg>
