<svg version="1.1" xmlns="http://www.w3.org/2000/svg" xmlns:xlink="http://www.w3.org/1999/xlink" viewBox="0 0 20.2832 23.7233">
 <g>
  <rect height="23.7233" opacity="0" width="20.2832" x="0" y="0"/>
  <path d="M8.07617 0.694677L8.07617 5.1771C8.07617 5.87046 8.55469 6.04624 9.0918 5.67515L12.207 3.48765C12.6465 3.17515 12.6562 2.7064 12.207 2.38413L9.10156 0.19663C8.55469-0.184229 8.07617-0.00844799 8.07617 0.694677ZM9.96094 21.8177C15.459 21.8177 19.9219 17.3548 19.9219 11.8568C19.9219 8.50718 18.291 5.60679 15.7715 3.79038C15.3418 3.45835 14.7852 3.57554 14.541 3.96616C14.2969 4.37632 14.4238 4.8353 14.8242 5.13804C16.8945 6.62241 18.2617 9.07358 18.2617 11.8568C18.2617 16.4466 14.5508 20.1576 9.96094 20.1576C5.37109 20.1576 1.66016 16.4466 1.66016 11.8568C1.66016 7.26694 5.37109 3.55601 9.96094 3.55601C10.4199 3.55601 10.791 3.17515 10.791 2.71616C10.791 2.27671 10.4297 1.90561 9.9707 1.89585C4.45312 1.90561 0 6.35874 0 11.8568C0 17.3548 4.46289 21.8177 9.96094 21.8177Z" fill="var(--color-secondary)"/>
  <path d="M13.1152 9.8939C13.623 9.78647 13.7695 9.65952 13.7695 9.06382L13.7695 7.0228C13.7695 6.62241 13.6328 6.43686 13.0762 6.58335L10.0391 7.3353C9.52148 7.46226 9.42383 7.56968 9.42383 8.18491L9.42383 12.8919C9.42383 13.3509 9.375 13.4388 8.84766 13.5853L7.89062 13.8392C6.93359 14.0736 6.15234 14.64 6.15234 15.6556C6.15234 16.5443 6.81641 17.1888 7.86133 17.1888C9.35547 17.1888 10.3613 16.1146 10.3613 14.6205L10.3613 11.0169C10.3613 10.6361 10.4492 10.5384 10.6738 10.4896Z" fill="var(--color-primary)"/>
 </g>
</svg>
