<svg version="1.1" xmlns="http://www.w3.org/2000/svg" xmlns:xlink="http://www.w3.org/1999/xlink" viewBox="0 0 22.1973 21.8457">
 <g>
  <rect height="21.8457" opacity="0" width="22.1973" x="0" y="0"/>
  <path d="M10.918 21.8359C16.9141 21.8359 21.8359 16.9141 21.8359 10.918C21.8359 4.92188 16.9141 0 10.918 0C4.92188 0 0 4.92188 0 10.918C0 16.9141 4.92188 21.8359 10.918 21.8359ZM10.918 18.2031C6.89453 18.2031 3.63281 14.9414 3.63281 10.918C3.63281 6.88477 6.89453 3.63281 10.918 3.63281C14.9512 3.63281 18.2031 6.88477 18.2031 10.918C18.2031 14.9414 14.9512 18.2031 10.918 18.2031Z" fill="var(--color-secondary)"/>
  <path d="M8.4082 15.4199C8.74023 15.4199 8.96484 15.1855 8.96484 14.8438L8.96484 8.4082L9.02344 8.4082L12.2266 14.8535C12.3926 15.2051 12.6562 15.4199 13.0469 15.4199C13.584 15.4199 13.7988 15.0488 13.7988 14.6875L13.7988 6.97266C13.7988 6.63086 13.584 6.40625 13.2422 6.40625C12.9102 6.40625 12.6953 6.63086 12.6953 6.97266L12.6953 13.4375L12.6367 13.4375L9.43359 6.98242C9.26758 6.62109 8.99414 6.40625 8.60352 6.40625C8.16406 6.40625 7.85156 6.70898 7.85156 7.13867L7.85156 14.8438C7.85156 15.1855 8.08594 15.4199 8.4082 15.4199ZM7.02148 10.9277C7.02148 11.1133 7.16797 11.2598 7.35352 11.2598L14.3066 11.2598C14.502 11.2598 14.6484 11.1133 14.6484 10.9277C14.6484 10.7422 14.502 10.5957 14.3066 10.5957L7.35352 10.5957C7.16797 10.5957 7.02148 10.7422 7.02148 10.9277Z" fill="var(--color-primary)"/>
 </g>
</svg>
