<?xml version="1.0" encoding="UTF-8"?>
<!--Generator: Apple Native CoreSVG 341-->
<!DOCTYPE svg
PUBLIC "-//W3C//DTD SVG 1.1//EN"
       "http://www.w3.org/Graphics/SVG/1.1/DTD/svg11.dtd">
<svg version="1.1" xmlns="http://www.w3.org/2000/svg" xmlns:xlink="http://www.w3.org/1999/xlink" viewBox="0 0 18.8379 19.2285">
 <g>
  <rect height="19.2285" opacity="0" width="18.8379" x="0" y="0"/>
  <path d="M0.9375 19.2188C1.50391 19.2188 1.88477 18.7891 1.88477 18.2227L1.88477 13.9941L3.33008 12.6172L8.24219 18.8672C8.41797 19.0918 8.68164 19.2188 9.01367 19.2188C9.49219 19.2188 9.88281 18.8672 9.88281 18.418C9.88281 18.1934 9.80469 17.9688 9.62891 17.7539L4.64844 11.4355L9.27734 6.78711C9.50195 6.5625 9.60938 6.33789 9.60938 6.10352C9.60938 5.64453 9.21875 5.32227 8.78906 5.32227C8.51562 5.32227 8.28125 5.42969 8.07617 5.64453L1.93359 11.9336L1.88477 11.9336L1.88477 0.986328C1.88477 0.410156 1.49414 0 0.9375 0C0.380859 0 0 0.410156 0 0.986328L0 18.2227C0 18.8281 0.429688 19.2188 0.9375 19.2188ZM13.0469 19.2188C13.5742 19.2188 13.9551 18.7988 13.9551 18.2227L13.9551 10.7422C13.9551 9.08203 14.6582 7.11914 16.9629 7.11914C17.4023 7.11914 17.8906 7.10938 18.1348 6.95312C18.3496 6.83594 18.4766 6.63086 18.4766 6.32812C18.4766 5.92773 18.291 5.67383 18.0078 5.51758C17.7441 5.38086 17.4023 5.32227 17.0703 5.32227C15.7227 5.32227 14.4043 6.25 14.0039 7.94922L13.877 7.94922L13.877 6.25977C13.877 5.71289 13.5156 5.3125 13.0176 5.3125C12.5098 5.3125 12.1484 5.71289 12.1484 6.25977L12.1484 18.2227C12.1484 18.7988 12.5293 19.2188 13.0469 19.2188Z" fill="white" fill-opacity="0.85"/>
 </g>
</svg>
