<?xml version="1.0" encoding="UTF-8"?>
<!--Generator: Apple Native CoreSVG 341-->
<!DOCTYPE svg
PUBLIC "-//W3C//DTD SVG 1.1//EN"
       "http://www.w3.org/Graphics/SVG/1.1/DTD/svg11.dtd">
<svg version="1.1" xmlns="http://www.w3.org/2000/svg" xmlns:xlink="http://www.w3.org/1999/xlink" viewBox="0 0 23.8867 19.5071">
 <g>
  <rect height="19.5071" opacity="0" width="23.8867" x="0" y="0"/>
  <path d="M23.5254 11.7116C23.5254 5.55921 18.7988 0.510381 12.7832 0.00256812C12.4707-0.0267288 12.2363 0.197881 12.2363 0.510381L12.2363 3.70374C12.2363 3.96741 12.4219 4.17249 12.6855 4.19202C16.4258 4.65101 19.3359 7.84436 19.3359 11.7116C19.3359 13.4694 18.7305 15.0905 17.666 16.4479C17.5293 16.6139 17.5391 16.8287 17.6855 16.985L20.0195 19.3092C20.2344 19.5241 20.5664 19.5241 20.7617 19.2897C22.4902 17.2389 23.5254 14.5924 23.5254 11.7116Z" fill="white" fill-opacity="0.425"/>
  <path d="M0 11.7116C0 14.6022 1.03516 17.2487 2.76367 19.2994C2.95898 19.5338 3.28125 19.5241 3.50586 19.3092L5.83984 16.985C5.98633 16.8287 5.99609 16.6139 5.85938 16.4479C4.78516 15.0905 4.18945 13.4694 4.18945 11.7116C4.18945 7.84436 7.09961 4.65101 10.8398 4.19202C11.1035 4.17249 11.2891 3.96741 11.2891 3.70374L11.2891 0.510381C11.2891 0.197881 11.0547-0.0267288 10.7422 0.00256812C4.72656 0.510381 0 5.55921 0 11.7116Z" fill="white" fill-opacity="0.425"/>
  <path d="M8.51562 15.8424C8.82812 15.8424 9.04297 15.6178 9.04297 15.276L9.04297 13.6256L9.61914 13.069L11.4062 15.569C11.5234 15.735 11.6797 15.8424 11.8945 15.8424C12.1777 15.8424 12.4023 15.6373 12.4023 15.3639C12.4023 15.2272 12.3438 15.11 12.2461 14.983L10.3906 12.4049L12.1289 10.5787C12.2559 10.4323 12.3145 10.3541 12.3145 10.1881C12.3145 9.93421 12.1094 9.71936 11.8359 9.71936C11.6895 9.71936 11.5137 9.81702 11.416 9.92444L9.08203 12.4928L9.04297 12.4928L9.04297 7.99085C9.04297 7.64905 8.82812 7.41468 8.51562 7.41468C8.20312 7.41468 7.96875 7.63929 7.96875 7.98108L7.96875 15.276C7.96875 15.6178 8.20312 15.8424 8.51562 15.8424ZM14.0234 15.8424C14.2578 15.8424 14.5312 15.6959 14.5312 15.276L14.5312 12.2194C14.5312 11.5162 14.7949 10.7545 15.6348 10.7545C15.8398 10.7545 16.0254 10.7252 16.1719 10.6373C16.2988 10.569 16.377 10.4518 16.377 10.276C16.377 9.91468 16.1035 9.71936 15.7422 9.71936C15.1172 9.71936 14.6875 10.2662 14.541 10.8912L14.4824 10.8912L14.4824 10.2662C14.4824 9.95374 14.2676 9.71936 13.9941 9.71936C13.7109 9.71936 13.4961 9.95374 13.4961 10.2662L13.4961 15.276C13.4961 15.6178 13.6816 15.8424 14.0234 15.8424Z" fill="white" fill-opacity="0.85"/>
 </g>
</svg>
