<?xml version="1.0" encoding="UTF-8"?>
<!--Generator: Apple Native CoreSVG 341-->
<!DOCTYPE svg
PUBLIC "-//W3C//DTD SVG 1.1//EN"
       "http://www.w3.org/Graphics/SVG/1.1/DTD/svg11.dtd">
<svg version="1.1" xmlns="http://www.w3.org/2000/svg" xmlns:xlink="http://www.w3.org/1999/xlink" viewBox="0 0 18.3691 17.998">
 <g>
  <rect height="17.998" opacity="0" width="18.3691" x="0" y="0"/>
  <path d="M5.3125 17.998L12.6855 17.998C14.4043 17.998 15.7422 17.5 16.6211 16.6211C17.5293 15.7227 18.0078 14.3848 18.0078 12.6758L18.0078 5.32227C18.0078 3.61328 17.5293 2.27539 16.6211 1.37695C15.7324 0.488281 14.4043 0 12.6855 0L5.3125 0C3.60352 0 2.25586 0.498047 1.37695 1.37695C0.478516 2.27539 0 3.61328 0 5.32227L0 12.6758C0 14.3848 0.46875 15.7227 1.37695 16.6211C2.26562 17.5098 3.60352 17.998 5.3125 17.998Z" fill="white" fill-opacity="0.2125"/>
  <path d="M8.98438 14.3945C6.00586 14.3945 3.59375 11.9727 3.59375 8.99414C3.59375 6.01562 6.00586 3.59375 8.98438 3.59375C11.9727 3.59375 14.3848 6.01562 14.3848 8.99414C14.3848 11.9727 11.9727 14.3945 8.98438 14.3945ZM5.07812 8.99414C5.07812 11.1621 6.82617 12.9199 8.99414 12.9199C9.80469 12.9199 10.5469 12.6758 11.1621 12.2461L5.74219 6.82617C5.32227 7.44141 5.07812 8.18359 5.07812 8.99414ZM6.81641 5.74219L12.2461 11.1719C12.6758 10.5566 12.9297 9.80469 12.9297 8.99414C12.9297 6.82617 11.1719 5.06836 8.99414 5.06836C8.19336 5.06836 7.43164 5.3125 6.81641 5.74219Z" fill="white" fill-opacity="0.85"/>
 </g>
</svg>
