<?xml version="1.0" encoding="UTF-8"?>
<!--Generator: Apple Native CoreSVG 341-->
<!DOCTYPE svg
PUBLIC "-//W3C//DTD SVG 1.1//EN"
       "http://www.w3.org/Graphics/SVG/1.1/DTD/svg11.dtd">
<svg version="1.1" xmlns="http://www.w3.org/2000/svg" xmlns:xlink="http://www.w3.org/1999/xlink" viewBox="0 0 18.3398 17.9785">
 <g>
  <rect height="17.9785" opacity="0" width="18.3398" x="0" y="0"/>
  <path d="M3.06641 17.9785L14.9121 17.9785C16.9629 17.9785 17.9785 16.9727 17.9785 14.9609L17.9785 3.02734C17.9785 1.01562 16.9629 0 14.9121 0L3.06641 0C1.02539 0 0 1.01562 0 3.02734L0 14.9609C0 16.9727 1.02539 17.9785 3.06641 17.9785ZM3.08594 16.4062C2.10938 16.4062 1.57227 15.8887 1.57227 14.873L1.57227 3.11523C1.57227 2.09961 2.10938 1.57227 3.08594 1.57227L14.8926 1.57227C15.8594 1.57227 16.4062 2.09961 16.4062 3.11523L16.4062 14.873C16.4062 15.8887 15.8594 16.4062 14.8926 16.4062Z" fill="white" fill-opacity="0.85"/>
  <path d="M6.48438 13.75C6.86523 13.75 7.09961 13.5547 7.17773 13.1934L7.61719 11.0938L9.43359 11.0938L9.0332 13.0078C8.94531 13.4082 9.22852 13.75 9.62891 13.75C10.0195 13.75 10.2734 13.5547 10.3516 13.1934L10.791 11.084L11.8066 11.084C12.1875 11.084 12.4609 10.8008 12.4609 10.4297C12.4609 10.0977 12.2266 9.85352 11.9043 9.85352L11.0547 9.85352L11.4746 7.87109L12.5 7.87109C12.8809 7.87109 13.1543 7.58789 13.1543 7.2168C13.1543 6.88477 12.9199 6.64062 12.5977 6.64062L11.7285 6.64062L12.1094 4.81445C12.1875 4.41406 11.8945 4.07227 11.4941 4.07227C11.1133 4.07227 10.8691 4.26758 10.791 4.63867L10.3711 6.64062L8.55469 6.64062L8.92578 4.81445C9.01367 4.42383 8.73047 4.07227 8.33008 4.07227C7.93945 4.07227 7.69531 4.26758 7.61719 4.63867L7.20703 6.64062L6.17188 6.64062C5.80078 6.64062 5.51758 6.92383 5.51758 7.29492C5.51758 7.62695 5.75195 7.87109 6.08398 7.87109L6.93359 7.87109L6.52344 9.85352L5.47852 9.85352C5.09766 9.85352 4.82422 10.1367 4.82422 10.5078C4.82422 10.8398 5.05859 11.084 5.38086 11.084L6.26953 11.084L5.86914 13.0078C5.79102 13.4082 6.08398 13.75 6.48438 13.75ZM7.79297 9.9707L8.24219 7.77344L10.2148 7.77344L9.75586 9.9707Z" fill="white" fill-opacity="0.85"/>
 </g>
</svg>
