<?xml version="1.0" encoding="UTF-8"?>
<!--Generator: Apple Native CoreSVG 341-->
<!DOCTYPE svg
PUBLIC "-//W3C//DTD SVG 1.1//EN"
       "http://www.w3.org/Graphics/SVG/1.1/DTD/svg11.dtd">
<svg version="1.1" xmlns="http://www.w3.org/2000/svg" xmlns:xlink="http://www.w3.org/1999/xlink" viewBox="0 0 30.1758 14.4629">
 <g>
  <rect height="14.4629" opacity="0" width="30.1758" x="0" y="0"/>
  <path d="M24.6777 14.4434C27.666 14.4434 29.8145 12.7051 29.8145 10.3223C29.8145 8.38867 28.418 7.11914 26.2012 6.97266L26.2012 6.93359C28.0566 6.62109 29.209 5.37109 29.209 3.64258C29.209 1.5332 27.2949 0 24.6289 0C22.6172 0 20.9961 0.888672 20.3027 2.34375C20.1172 2.69531 20.0391 3.03711 20.0391 3.41797C20.0391 3.87695 20.3516 4.18945 20.8008 4.18945C21.2402 4.18945 21.4355 4.00391 21.582 3.55469C22.002 2.27539 23.0859 1.5332 24.5703 1.5332C26.3184 1.5332 27.4414 2.46094 27.4414 3.86719C27.4414 5.33203 26.2402 6.29883 24.4922 6.29883L23.418 6.29883C22.9492 6.29883 22.6465 6.58203 22.6465 7.02148C22.6465 7.4707 22.9492 7.75391 23.418 7.75391L24.5117 7.75391C26.6797 7.75391 27.9688 8.68164 27.9688 10.3027C27.9688 11.8164 26.6211 12.8711 24.6875 12.8711C22.998 12.8711 21.7969 12.1289 21.3574 10.8398C21.2012 10.4199 20.9668 10.2246 20.5469 10.2246C20.0488 10.2246 19.7168 10.5469 19.7168 11.0547C19.7168 11.3867 19.8047 11.709 19.9902 12.041C20.8008 13.5938 22.5 14.4434 24.6777 14.4434Z" fill="white" fill-opacity="0.85"/>
  <path d="M9.6582 14.2383L17.5488 14.2383C18.0371 14.2383 18.3594 13.9258 18.3594 13.457C18.3594 12.9883 18.0371 12.666 17.5488 12.666L11.2695 12.666L11.2695 12.6172L14.8633 8.87695C17.0996 6.55273 17.8711 5.44922 17.8711 3.95508C17.8711 1.70898 15.8887 0 13.2422 0C11.1621 0 9.38477 1.13281 8.78906 2.85156C8.67188 3.17383 8.62305 3.44727 8.62305 3.70117C8.62305 4.17969 8.91602 4.51172 9.39453 4.51172C9.85352 4.51172 10.0488 4.29688 10.1953 3.79883C10.2734 3.50586 10.3809 3.22266 10.5371 2.97852C11.0547 2.09961 12.0215 1.55273 13.2422 1.55273C14.8145 1.55273 16.084 2.66602 16.084 4.05273C16.084 5.17578 15.5664 5.87891 13.6914 7.8418L9.3457 12.4023C8.94531 12.8223 8.79883 13.0664 8.79883 13.418C8.79883 13.9258 9.14062 14.2383 9.6582 14.2383Z" fill="white" fill-opacity="0.85"/>
  <path d="M4.98047 14.4336C5.51758 14.4336 5.86914 14.082 5.86914 13.5449L5.86914 1.06445C5.86914 0.429688 5.46875 0.078125 4.86328 0.078125C4.41406 0.078125 4.16992 0.214844 3.75977 0.478516L0.507812 2.58789C0.126953 2.83203 0 3.06641 0 3.38867C0 3.78906 0.292969 4.07227 0.722656 4.07227C0.986328 4.07227 1.11328 4.00391 1.28906 3.88672L4.07227 2.13867L4.11133 2.13867L4.11133 13.5449C4.11133 14.082 4.44336 14.4336 4.98047 14.4336Z" fill="white" fill-opacity="0.85"/>
 </g>
</svg>
