<?xml version="1.0" encoding="UTF-8"?>
<!--Generator: Apple Native CoreSVG 341-->
<!DOCTYPE svg
PUBLIC "-//W3C//DTD SVG 1.1//EN"
       "http://www.w3.org/Graphics/SVG/1.1/DTD/svg11.dtd">
<svg version="1.1" xmlns="http://www.w3.org/2000/svg" xmlns:xlink="http://www.w3.org/1999/xlink" viewBox="0 0 23.3887 17.9785">
 <g>
  <rect height="17.9785" opacity="0" width="23.3887" x="0" y="0"/>
  <path d="M3.06641 17.9785L19.9609 17.9785C22.0117 17.9785 23.0273 16.9727 23.0273 14.9609L23.0273 3.02734C23.0273 1.01562 22.0117 0 19.9609 0L3.06641 0C1.02539 0 0 1.01562 0 3.02734L0 14.9609C0 16.9727 1.02539 17.9785 3.06641 17.9785Z" fill="white" fill-opacity="0.2125"/>
  <path d="M5.57617 13.1055C5.15625 13.1055 4.90234 12.8125 4.90234 12.3438L4.90234 6.2793L4.81445 6.2793L3.67188 7.03125C3.45703 7.17773 3.35938 7.19727 3.22266 7.19727C2.97852 7.19727 2.75391 6.96289 2.75391 6.68945C2.75391 6.49414 2.82227 6.34766 3.01758 6.2207L4.61914 5.12695C5 4.87305 5.20508 4.78516 5.54688 4.78516C6.00586 4.78516 6.26953 5.05859 6.26953 5.55664L6.26953 12.3438C6.26953 12.8223 6.01562 13.1055 5.57617 13.1055ZM8.44727 12.9785C8.05664 12.9785 7.80273 12.7539 7.80273 12.3926C7.80273 12.1875 7.89062 12.0215 8.03711 11.8652L10.8594 8.84766C11.3672 8.30078 11.8945 7.76367 11.8945 7.13867C11.8945 6.41602 11.3379 5.92773 10.5176 5.92773C9.67773 5.92773 9.20898 6.49414 8.99414 7.03125C8.83789 7.28516 8.67188 7.48047 8.34961 7.48047C7.98828 7.48047 7.76367 7.24609 7.76367 6.9043C7.76367 6.77734 7.7832 6.68945 7.82227 6.55273C8.10547 5.53711 9.21875 4.77539 10.459 4.77539C12.0898 4.77539 13.1641 5.67383 13.1641 7.03125C13.1641 7.99805 12.6074 8.70117 11.8262 9.54102L9.74609 11.7676L9.74609 11.8066L12.959 11.8066C13.3105 11.8066 13.5547 12.041 13.5547 12.3828C13.5547 12.7246 13.3105 12.9785 12.959 12.9785ZM17.168 13.1152C15.7422 13.1152 14.5508 12.4023 14.3359 11.377C14.3164 11.2598 14.3066 11.2012 14.3066 11.0742C14.3066 10.7227 14.5312 10.4688 14.9121 10.4688C15.2148 10.4688 15.4004 10.6152 15.5273 10.918C15.7617 11.6016 16.3477 11.9824 17.1875 11.9824C18.2031 11.9824 18.877 11.4551 18.877 10.6836C18.877 9.89258 18.2129 9.375 17.2363 9.375L16.6211 9.375C16.3086 9.375 16.0742 9.14062 16.0742 8.81836C16.0742 8.48633 16.3086 8.27148 16.6211 8.27148L17.1777 8.27148C17.998 8.27148 18.6133 7.74414 18.6133 7.03125C18.6133 6.33789 18.0664 5.9082 17.2168 5.9082C16.4453 5.9082 15.8691 6.28906 15.6738 6.96289C15.5762 7.27539 15.3809 7.42188 15.0684 7.42188C14.707 7.42188 14.4629 7.17773 14.4629 6.8457C14.4629 6.69922 14.4727 6.62109 14.4922 6.49414C14.7363 5.44922 15.8105 4.76562 17.2363 4.76562C18.7988 4.76562 19.9121 5.6543 19.9121 6.88477C19.9121 7.8125 19.2383 8.61328 18.3691 8.75L18.3691 8.76953C19.4238 8.88672 20.1953 9.69727 20.1953 10.7324C20.1953 12.168 18.9746 13.1152 17.168 13.1152Z" fill="white" fill-opacity="0.85"/>
 </g>
</svg>
