<?xml version="1.0" encoding="UTF-8"?>
<!--Generator: Apple Native CoreSVG 341-->
<!DOCTYPE svg
PUBLIC "-//W3C//DTD SVG 1.1//EN"
       "http://www.w3.org/Graphics/SVG/1.1/DTD/svg11.dtd">
<svg version="1.1" xmlns="http://www.w3.org/2000/svg" xmlns:xlink="http://www.w3.org/1999/xlink" viewBox="0 0 20.4297 19.3262">
 <g>
  <rect height="19.3262" opacity="0" width="20.4297" x="0" y="0"/>
  <path d="M7.07031 19.3164L12.998 19.3164C14.2383 19.3164 14.8242 18.916 15.4688 18.2227L19.2578 14.043C19.8926 13.3398 20.0684 12.8613 20.0684 11.8945L20.0684 7.43164C20.0684 6.45508 19.8926 5.98633 19.2578 5.2832L15.4688 1.10352C14.8242 0.410156 14.2383 0 12.998 0L7.07031 0C5.83008 0 5.23438 0.410156 4.59961 1.10352L0.810547 5.2832C0.166016 5.98633 0 6.45508 0 7.43164L0 11.8945C0 12.8613 0.166016 13.3398 0.810547 14.043L4.59961 18.2227C5.23438 18.916 5.83008 19.3164 7.07031 19.3164ZM7.59766 17.7539C6.62109 17.7539 6.33789 17.5391 5.80078 16.9531L2.27539 13.0957C1.89453 12.666 1.80664 12.4219 1.80664 11.709L1.80664 7.61719C1.80664 6.9043 1.89453 6.66016 2.27539 6.23047L5.80078 2.37305C6.33789 1.77734 6.62109 1.57227 7.59766 1.57227L12.4707 1.57227C13.4473 1.57227 13.7207 1.77734 14.2676 2.37305L17.7832 6.23047C18.1738 6.66016 18.2617 6.9043 18.2617 7.61719L18.2617 11.709C18.2617 12.4219 18.1738 12.666 17.7832 13.0957L14.2676 16.9531C13.7207 17.5391 13.4473 17.7539 12.4707 17.7539Z" fill="white" fill-opacity="0.85"/>
 </g>
</svg>
