<svg version="1.1" xmlns="http://www.w3.org/2000/svg" xmlns:xlink="http://www.w3.org/1999/xlink" viewBox="0 0 24.1699 16.7676">
 <g>
  <rect height="16.7676" opacity="0" width="24.1699" x="0" y="0"/>
  <path d="M11.9043 16.7578C18.291 16.7578 23.8086 12.2266 23.8086 8.37891C23.8086 4.53125 18.291 0 11.9043 0C5.52734 0 0 4.53125 0 8.37891C0 12.2266 5.52734 16.7578 11.9043 16.7578ZM11.9043 15.3223C5.89844 15.3223 1.44531 11.1035 1.44531 8.37891C1.44531 5.64453 5.89844 1.43555 11.9043 1.43555C17.9102 1.43555 22.3828 5.64453 22.3828 8.37891C22.3828 11.1035 17.9102 15.3223 11.9043 15.3223Z" fill="var(--color-secondary)"/>
  <path d="M11.9043 14.2188C15.7812 14.2188 17.6172 10.7227 17.627 9.41406C17.627 9.12109 17.3828 8.85742 17.0801 8.85742C16.8164 8.85742 16.5625 9.0625 16.5137 9.30664C16.084 11.4844 14.1895 13.0859 11.9043 13.0859C10.9375 13.0859 10.0391 12.832 9.27734 12.3145C9.16992 12.2559 9.08203 12.2266 8.96484 12.2266C8.64258 12.2266 8.41797 12.4805 8.41797 12.793C8.41797 12.9688 8.49609 13.1445 8.66211 13.252C9.58008 13.877 10.7031 14.2188 11.9043 14.2188ZM6.05469 8.37891C6.05469 9.57031 6.39648 10.6836 7.02148 11.6113C7.12891 11.7773 7.30469 11.8555 7.48047 11.8555C7.75391 11.8555 8.04688 11.6602 8.04688 11.2988C8.04688 11.1719 8.01758 11.0645 7.94922 10.9668C7.44141 10.2441 7.1875 9.3457 7.1875 8.37891C7.1875 7.41211 7.45117 6.52344 7.94922 5.78125C8.01758 5.68359 8.04688 5.55664 8.04688 5.44922C8.04688 5.12695 7.79297 4.89258 7.48047 4.89258C7.31445 4.89258 7.13867 4.9707 7.02148 5.13672C6.39648 6.07422 6.05469 7.17773 6.05469 8.37891ZM11.9043 2.5293C10.7031 2.5293 9.58008 2.88086 8.66211 3.50586C8.48633 3.61328 8.41797 3.78906 8.41797 3.96484C8.41797 4.28711 8.65234 4.55078 8.98438 4.55078C9.0918 4.55078 9.19922 4.51172 9.30664 4.44336C10.0488 3.94531 10.9473 3.66211 11.9043 3.66211C14.1895 3.66211 16.0742 5.27344 16.5234 7.45117C16.5723 7.69531 16.8164 7.90039 17.0801 7.90039C17.3926 7.90039 17.6367 7.64648 17.6367 7.34375C17.6074 6.00586 15.7617 2.5293 11.9043 2.5293Z" fill="var(--color-primary)"/>
  <path d="M11.9043 12.1191C12.832 12.1191 13.6621 11.7773 14.2969 11.2402C14.4531 11.1035 14.5312 10.9473 14.5312 10.7812C14.5312 10.4688 14.2676 10.2246 13.9648 10.2246C13.8281 10.2246 13.6914 10.2637 13.5938 10.3711C13.1836 10.7617 12.5977 10.9863 11.9531 10.9863C10.4199 10.9863 9.28711 9.78516 9.28711 8.36914C9.28711 7.22656 10.0098 6.2793 11.0352 5.9082C11.2598 5.83984 11.416 5.60547 11.416 5.40039C11.416 5.06836 11.1523 4.82422 10.8496 4.82422C9.96094 4.82422 8.1543 6.32812 8.1543 8.39844C8.1543 10.4492 9.79492 12.1191 11.9043 12.1191ZM15.625 8.37891C15.625 6.28906 13.8281 4.82422 12.959 4.82422C12.6465 4.82422 12.3828 5.06836 12.3828 5.40039C12.3828 5.60547 12.5391 5.83984 12.7637 5.9082C13.7793 6.2793 14.5117 7.22656 14.5117 8.37891C14.5117 8.53516 14.4531 8.82812 14.4531 8.94531C14.4434 9.33594 14.707 9.52148 15.0293 9.52148C15.3906 9.52148 15.5371 9.29688 15.5957 9.01367C15.625 8.83789 15.625 8.59375 15.625 8.37891Z" fill="var(--color-primary)"/>
  <path d="M11.8945 10C12.793 10 13.5156 9.27734 13.5156 8.37891C13.5156 7.48047 12.793 6.75781 11.8945 6.75781C10.9961 6.75781 10.2734 7.48047 10.2734 8.37891C10.2734 9.27734 10.9961 10 11.8945 10Z" fill="var(--color-primary)"/>
 </g>
</svg>
