<?xml version="1.0" encoding="UTF-8"?>
<!--Generator: Apple Native CoreSVG 341-->
<!DOCTYPE svg
PUBLIC "-//W3C//DTD SVG 1.1//EN"
       "http://www.w3.org/Graphics/SVG/1.1/DTD/svg11.dtd">
<svg version="1.1" xmlns="http://www.w3.org/2000/svg" xmlns:xlink="http://www.w3.org/1999/xlink" viewBox="0 0 19.8828 16.8652">
 <g>
  <rect height="16.8652" opacity="0" width="19.8828" x="0" y="0"/>
  <path d="M0 4.75586L19.5215 4.75586L19.5215 2.04102C19.5215 0.820312 18.7305 0 17.5586 0L1.96289 0C0.791016 0 0 0.820312 0 2.04102ZM3.62305 3.45703C3.125 3.45703 2.73438 3.06641 2.73438 2.57812C2.73438 2.08984 3.125 1.69922 3.62305 1.69922C4.10156 1.69922 4.50195 2.08984 4.50195 2.57812C4.50195 3.06641 4.10156 3.45703 3.62305 3.45703ZM6.21094 3.45703C5.72266 3.45703 5.33203 3.06641 5.33203 2.57812C5.33203 2.08984 5.72266 1.69922 6.21094 1.69922C6.69922 1.69922 7.09961 2.08984 7.09961 2.57812C7.09961 3.06641 6.69922 3.45703 6.21094 3.45703ZM8.80859 3.45703C8.31055 3.45703 7.91992 3.06641 7.91992 2.57812C7.91992 2.08984 8.31055 1.69922 8.80859 1.69922C9.28711 1.69922 9.6875 2.08984 9.6875 2.57812C9.6875 3.06641 9.28711 3.45703 8.80859 3.45703ZM13.9258 3.08594C13.623 3.08594 13.4082 2.87109 13.4082 2.56836C13.4082 2.26562 13.623 2.07031 13.9258 2.07031L16.6504 2.07031C16.9531 2.07031 17.1484 2.26562 17.1484 2.56836C17.1484 2.87109 16.9531 3.08594 16.6504 3.08594ZM1.96289 16.8555L17.5586 16.8555C18.7305 16.8555 19.5215 16.0352 19.5215 14.8145L19.5215 5.83984L0 5.83984L0 14.8145C0 16.0352 0.791016 16.8555 1.96289 16.8555ZM3.52539 14.7266C2.95898 14.7266 2.59766 14.3555 2.59766 13.7988L2.59766 8.32031C2.59766 7.74414 2.95898 7.37305 3.52539 7.37305L16.0059 7.37305C16.5723 7.37305 16.9336 7.74414 16.9336 8.32031L16.9336 13.7988C16.9336 14.3555 16.5723 14.7266 16.0059 14.7266ZM3.68164 9.61914L15.8496 9.61914L15.8496 8.73047C15.8496 8.56445 15.7422 8.45703 15.5859 8.45703L3.94531 8.45703C3.78906 8.45703 3.68164 8.56445 3.68164 8.73047ZM3.94531 13.6426L15.5859 13.6426C15.7422 13.6426 15.8496 13.5352 15.8496 13.3789L15.8496 10.7031L3.68164 10.7031L3.68164 13.3789C3.68164 13.5352 3.78906 13.6426 3.94531 13.6426Z" fill="white" fill-opacity="0.85"/>
 </g>
</svg>
