<?xml version="1.0" encoding="UTF-8"?>
<!--Generator: Apple Native CoreSVG 341-->
<!DOCTYPE svg
PUBLIC "-//W3C//DTD SVG 1.1//EN"
       "http://www.w3.org/Graphics/SVG/1.1/DTD/svg11.dtd">
<svg version="1.1" xmlns="http://www.w3.org/2000/svg" xmlns:xlink="http://www.w3.org/1999/xlink" viewBox="0 0 8.48633 16.1621">
 <g>
  <rect height="16.1621" opacity="0" width="8.48633" x="0" y="0"/>
  <path d="M0.830078 16.1523C1.29883 16.1523 1.66992 15.791 1.66992 15.332L1.66992 0.810547C1.66992 0.351562 1.29883 0 0.830078 0C0.371094 0 0 0.351562 0 0.810547L0 15.332C0 15.791 0.371094 16.1523 0.830078 16.1523ZM7.28516 16.1523C7.74414 16.1523 8.125 15.791 8.125 15.332L8.125 0.810547C8.125 0.351562 7.74414 0 7.28516 0C6.82617 0 6.45508 0.351562 6.45508 0.810547L6.45508 15.332C6.45508 15.791 6.82617 16.1523 7.28516 16.1523Z" fill="white" fill-opacity="0.85"/>
 </g>
</svg>
