<?xml version="1.0" encoding="UTF-8"?>
<!--Generator: Apple Native CoreSVG 341-->
<!DOCTYPE svg
PUBLIC "-//W3C//DTD SVG 1.1//EN"
       "http://www.w3.org/Graphics/SVG/1.1/DTD/svg11.dtd">
<svg version="1.1" xmlns="http://www.w3.org/2000/svg" xmlns:xlink="http://www.w3.org/1999/xlink" viewBox="0 0 21.5027 20.8887">
 <g>
  <rect height="20.8887" opacity="0" width="21.5027" x="0" y="0"/>
  <path d="M20.9564 9.82422C21.4056 8.4082 21.0541 7.27539 19.8724 6.41602L12.392 0.917969C11.1713 0.00976562 9.9701 0.00976562 8.73963 0.917969L1.25916 6.41602C0.0872872 7.27539-0.264275 8.41797 0.194709 9.86328L3.05604 18.7793C3.49549 20.1758 4.47205 20.8887 5.95643 20.8887L15.1849 20.8887C16.6693 20.8887 17.6361 20.1758 18.0853 18.7793ZM10.5756 1.81641L10.5756 19.3164L5.95643 19.3164C5.16541 19.3164 4.77479 19.043 4.53065 18.3008L1.67908 9.375C1.42518 8.61328 1.57166 8.1543 2.21619 7.67578L9.6869 2.16797C10.0092 1.92383 10.3021 1.81641 10.5756 1.81641Z" fill="white" fill-opacity="0.85"/>
 </g>
</svg>
