<?xml version="1.0" encoding="UTF-8"?>
<!--Generator: Apple Native CoreSVG 341-->
<!DOCTYPE svg
PUBLIC "-//W3C//DTD SVG 1.1//EN"
       "http://www.w3.org/Graphics/SVG/1.1/DTD/svg11.dtd">
<svg version="1.1" xmlns="http://www.w3.org/2000/svg" xmlns:xlink="http://www.w3.org/1999/xlink" viewBox="0 0 20.2832 19.9316">
 <g>
  <rect height="19.9316" opacity="0" width="20.2832" x="0" y="0"/>
  <path d="M9.96094 19.9219C15.459 19.9219 19.9219 15.459 19.9219 9.96094C19.9219 4.46289 15.459 0 9.96094 0C4.46289 0 0 4.46289 0 9.96094C0 15.459 4.46289 19.9219 9.96094 19.9219ZM9.96094 18.2617C5.37109 18.2617 1.66016 14.5508 1.66016 9.96094C1.66016 5.37109 5.37109 1.66016 9.96094 1.66016C14.5508 1.66016 18.2617 5.37109 18.2617 9.96094C18.2617 14.5508 14.5508 18.2617 9.96094 18.2617Z" fill="white" fill-opacity="0.425"/>
  <path d="M9.95117 7.71484C10.9668 7.72461 11.7676 6.86523 11.7676 5.72266C11.7676 4.6582 10.9668 3.76953 9.95117 3.76953C8.94531 3.76953 8.13477 4.6582 8.13477 5.72266C8.13477 6.86523 8.94531 7.71484 9.95117 7.71484ZM6.75781 11.6406L13.1445 11.6406C13.4766 11.6406 13.6621 11.4258 13.6621 11.1328C13.6621 10.2637 12.4121 8.36914 9.95117 8.36914C7.49023 8.36914 6.24023 10.2637 6.24023 11.1328C6.24023 11.4258 6.42578 11.6406 6.75781 11.6406ZM5.87891 15.3613L14.0332 15.3613C14.2773 15.3613 14.4727 15.1562 14.4727 14.9121C14.4727 14.668 14.2773 14.4727 14.0332 14.4727L13.9355 14.4727L13.9355 13.2227C13.9355 12.666 13.6816 12.3633 13.0762 12.3633L6.83594 12.3633C6.23047 12.3633 5.97656 12.666 5.97656 13.2227L5.97656 14.4727L5.87891 14.4727C5.63477 14.4727 5.43945 14.668 5.43945 14.9121C5.43945 15.1562 5.63477 15.3613 5.87891 15.3613ZM8.86719 14.1797C8.68164 14.1797 8.55469 14.043 8.55469 13.8672C8.55469 13.6914 8.68164 13.5547 8.86719 13.5547L11.0449 13.5547C11.2305 13.5547 11.377 13.6914 11.377 13.8672C11.377 14.043 11.2305 14.1797 11.0449 14.1797Z" fill="white" fill-opacity="0.85"/>
 </g>
</svg>
