<?xml version="1.0" encoding="UTF-8"?>
<!--Generator: Apple Native CoreSVG 341-->
<!DOCTYPE svg
PUBLIC "-//W3C//DTD SVG 1.1//EN"
       "http://www.w3.org/Graphics/SVG/1.1/DTD/svg11.dtd">
<svg version="1.1" xmlns="http://www.w3.org/2000/svg" xmlns:xlink="http://www.w3.org/1999/xlink" viewBox="0 0 22.1973 21.8457">
 <g>
  <rect height="21.8457" opacity="0" width="22.1973" x="0" y="0"/>
  <path d="M10.918 21.8359C16.9141 21.8359 21.8359 16.9141 21.8359 10.918C21.8359 4.92188 16.9141 0 10.918 0C4.92188 0 0 4.92188 0 10.918C0 16.9141 4.92188 21.8359 10.918 21.8359ZM10.918 18.2031C6.89453 18.2031 3.63281 14.9414 3.63281 10.918C3.63281 6.88477 6.89453 3.63281 10.918 3.63281C14.9512 3.63281 18.2031 6.88477 18.2031 10.918C18.2031 14.9414 14.9512 18.2031 10.918 18.2031Z" fill="white" fill-opacity="0.85"/>
  <path d="M8.66211 14.5801C10.293 14.5801 11.0645 13.5742 11.0645 12.3047C11.0645 10.9668 10.2539 10.4688 9.20898 10.0684L8.65234 9.85352C7.94922 9.58984 7.4707 9.27734 7.4707 8.52539C7.4707 7.86133 7.87109 7.35352 8.61328 7.35352C9.26758 7.35352 9.7168 7.73438 9.89258 8.44727C9.96094 8.7207 10.1465 8.83789 10.4102 8.83789C10.6934 8.83789 10.8789 8.63281 10.8789 8.34961C10.8789 8.27148 10.8691 8.16406 10.8398 8.07617C10.6055 7.05078 9.74609 6.41602 8.63281 6.41602C7.16797 6.41602 6.37695 7.40234 6.37695 8.59375C6.37695 9.77539 7.08008 10.4199 8.18359 10.8203L8.74023 11.0254C9.45312 11.2793 9.96094 11.6504 9.96094 12.4121C9.96094 13.0957 9.51172 13.6426 8.69141 13.6426C7.94922 13.6426 7.4707 13.2422 7.30469 12.5098C7.23633 12.2363 7.06055 12.1094 6.79688 12.1094C6.50391 12.1094 6.29883 12.3242 6.29883 12.627C6.29883 12.7539 6.32812 12.9004 6.35742 12.998C6.67969 14.0234 7.50977 14.5801 8.66211 14.5801ZM11.8066 16.4258C12.1094 16.4258 12.2559 16.2598 12.3145 15.9375L13.8086 7.19727C13.8281 7.12891 13.8477 7.02148 13.8477 6.88477C13.8477 6.61133 13.6621 6.41602 13.3789 6.41602C13.0859 6.41602 12.9297 6.5918 12.8809 6.91406L11.377 15.6445C11.3574 15.7129 11.3379 15.8203 11.3379 15.957C11.3379 16.2305 11.5234 16.4258 11.8066 16.4258ZM15.1367 14.4922C15.5371 14.4922 15.8398 14.1992 15.8398 13.8184C15.8398 13.4375 15.5371 13.1348 15.1367 13.1348C14.7559 13.1348 14.4629 13.4375 14.4629 13.8184C14.4629 14.1992 14.7559 14.4922 15.1367 14.4922Z" fill="white" fill-opacity="0.85"/>
 </g>
</svg>
