<?xml version="1.0" encoding="UTF-8"?>
<!--Generator: Apple Native CoreSVG 341-->
<!DOCTYPE svg
PUBLIC "-//W3C//DTD SVG 1.1//EN"
       "http://www.w3.org/Graphics/SVG/1.1/DTD/svg11.dtd">
<svg version="1.1" xmlns="http://www.w3.org/2000/svg" xmlns:xlink="http://www.w3.org/1999/xlink" viewBox="0 0 18.3398 17.9785">
 <g>
  <rect height="17.9785" opacity="0" width="18.3398" x="0" y="0"/>
  <path d="M3.06641 17.9785L14.9121 17.9785C16.9629 17.9785 17.9785 16.9727 17.9785 14.9609L17.9785 3.02734C17.9785 1.01562 16.9629 0 14.9121 0L3.06641 0C1.02539 0 0 1.01562 0 3.02734L0 14.9609C0 16.9727 1.02539 17.9785 3.06641 17.9785Z" fill="white" fill-opacity="0.2125"/>
  <path d="M6.97266 13.6133C6.60156 13.6133 6.37695 13.3887 6.37695 13.0078L6.37695 7.64648L5.73242 7.64648C5.53711 7.64648 5.38086 7.5 5.38086 7.30469C5.38086 7.11914 5.53711 6.96289 5.73242 6.96289L6.37695 6.96289L6.37695 5.04883C6.37695 4.66797 6.60156 4.43359 6.98242 4.43359L9.43359 4.43359C11.0254 4.43359 12.1973 5.40039 12.3633 6.96289L12.8516 6.96289C13.0566 6.96289 13.2129 7.11914 13.2129 7.30469C13.2129 7.49023 13.0566 7.64648 12.8516 7.64648L12.3828 7.64648C12.2559 9.24805 11.0742 10.3027 9.41406 10.3027L7.56836 10.3027L7.56836 13.0078C7.56836 13.3887 7.33398 13.6133 6.97266 13.6133ZM7.56836 9.32617L9.11133 9.32617C10.3027 9.32617 11.0547 8.74023 11.1621 7.64648L7.56836 7.64648ZM7.56836 6.96289L11.1426 6.96289C10.9961 5.92773 10.2246 5.41992 9.13086 5.41992L7.56836 5.41992Z" fill="white" fill-opacity="0.85"/>
 </g>
</svg>
