<?xml version="1.0" encoding="UTF-8"?>
<!--Generator: Apple Native CoreSVG 341-->
<!DOCTYPE svg
PUBLIC "-//W3C//DTD SVG 1.1//EN"
       "http://www.w3.org/Graphics/SVG/1.1/DTD/svg11.dtd">
<svg version="1.1" xmlns="http://www.w3.org/2000/svg" xmlns:xlink="http://www.w3.org/1999/xlink" viewBox="0 0 23.8867 19.5996">
 <g>
  <rect height="19.5996" opacity="0" width="23.8867" x="0" y="0"/>
  <path d="M23.5254 11.7578C23.5254 8.88672 22.4902 6.24023 20.7617 4.18945C20.5664 3.95508 20.2344 3.95508 20.0195 4.17969L17.7539 6.44531C17.5684 6.63086 17.5586 6.89453 17.7246 7.09961C18.7305 8.38867 19.3359 10.0098 19.3359 11.7578C19.3359 13.5156 18.7305 15.1367 17.666 16.4941C17.5293 16.6602 17.5391 16.875 17.6855 17.0312L20.0098 19.3555C20.2344 19.5801 20.5566 19.5801 20.7617 19.3359C22.4902 17.2852 23.5254 14.6387 23.5254 11.7578Z" fill="white" fill-opacity="0.425"/>
  <path d="M11.7578 4.18945C13.5254 4.18945 15.1465 4.80469 16.4453 5.81055C16.6406 5.9668 16.8945 5.94727 17.0801 5.76172L19.3457 3.49609C19.5703 3.27148 19.5605 2.94922 19.3262 2.75391C17.2852 1.03516 14.6387 0 11.7578 0C8.88672 0 6.24023 1.03516 4.19922 2.75391C3.96484 2.94922 3.95508 3.27148 4.17969 3.49609L6.44531 5.76172C6.63086 5.94727 6.89453 5.9668 7.10938 5.80078C8.39844 4.80469 10.0098 4.18945 11.7578 4.18945Z" fill="white" fill-opacity="0.425"/>
  <path d="M0 11.7578C0 14.6387 1.03516 17.2852 2.76367 19.3359C2.95898 19.5801 3.29102 19.5801 3.50586 19.3555L5.83008 17.0312C5.97656 16.875 5.99609 16.6602 5.85938 16.4941C4.79492 15.1367 4.18945 13.5156 4.18945 11.7578C4.18945 10.0098 4.78516 8.38867 5.80078 7.09961C5.95703 6.89453 5.95703 6.63086 5.77148 6.44531L3.50586 4.17969C3.28125 3.95508 2.95898 3.95508 2.76367 4.18945C1.03516 6.24023 0 8.88672 0 11.7578Z" fill="white" fill-opacity="0.425"/>
  <path d="M9.81445 16.3672C10.166 16.3672 10.4004 16.1426 10.4004 15.791L10.4004 13.3984L12.168 13.3984C13.9453 13.3984 15.0684 12.1094 15.0684 10.4297C15.0684 8.80859 14.0039 7.4707 12.1973 7.4707L9.81445 7.4707C9.46289 7.4707 9.24805 7.70508 9.24805 8.06641L9.24805 15.791C9.24805 16.1426 9.46289 16.3672 9.81445 16.3672ZM10.4004 12.4512L10.4004 8.42773L11.9141 8.42773C13.1445 8.42773 13.9062 9.14062 13.9062 10.4297C13.9062 11.6797 13.1641 12.4512 11.9141 12.4512ZM8.26172 9.66797C8.26172 9.85352 8.4082 9.99023 8.60352 9.99023L15.5176 9.99023C15.7129 9.99023 15.8594 9.84375 15.8594 9.66797C15.8594 9.49219 15.7129 9.3457 15.5176 9.3457L8.60352 9.3457C8.4082 9.3457 8.26172 9.49219 8.26172 9.66797ZM8.26172 11.2109C8.26172 11.4062 8.4082 11.543 8.60352 11.543L15.5176 11.543C15.7129 11.543 15.8594 11.3965 15.8594 11.2109C15.8594 11.0352 15.7129 10.8887 15.5176 10.8887L8.60352 10.8887C8.4082 10.8887 8.26172 11.0352 8.26172 11.2109Z" fill="white" fill-opacity="0.85"/>
 </g>
</svg>
