<?xml version="1.0" encoding="UTF-8"?>
<!--Generator: Apple Native CoreSVG 341-->
<!DOCTYPE svg
PUBLIC "-//W3C//DTD SVG 1.1//EN"
       "http://www.w3.org/Graphics/SVG/1.1/DTD/svg11.dtd">
<svg version="1.1" xmlns="http://www.w3.org/2000/svg" xmlns:xlink="http://www.w3.org/1999/xlink" viewBox="0 0 22.168 20.8496">
 <g>
  <rect height="20.8496" opacity="0" width="22.168" x="0" y="0"/>
  <path d="M1.29883 18.5156L20.5078 18.5156L20.5078 17.8613C20.5078 17.4707 20.2832 17.2363 19.8828 17.2363L19.2578 17.2363L19.2578 6.69922L20.1172 6.69922C20.6543 6.69922 20.9668 6.30859 20.9668 5.9082C20.9668 5.61523 20.8008 5.36133 20.4395 5.15625L12.0996 0.341797C11.709 0.117188 11.2988 0 10.8984 0C10.498 0 10.0781 0.117188 9.70703 0.341797L1.36719 5.15625C0.996094 5.36133 0.839844 5.61523 0.839844 5.9082C0.839844 6.30859 1.15234 6.69922 1.68945 6.69922L2.54883 6.69922L2.54883 17.2363L1.93359 17.2363C1.5332 17.2363 1.29883 17.4707 1.29883 17.8613ZM4.02344 17.2363L4.02344 5.44922L10.5176 1.80664C10.6348 1.73828 10.7715 1.69922 10.8984 1.69922C11.0254 1.69922 11.1621 1.73828 11.2891 1.80664L17.7832 5.44922L17.7832 17.2363ZM0.78125 20.8398L21.0156 20.8398C21.4453 20.8398 21.8066 20.4785 21.8066 20.0488C21.8066 19.6191 21.4453 19.2676 21.0156 19.2676L0.78125 19.2676C0.351562 19.2676 0 19.6191 0 20.0488C0 20.4785 0.351562 20.8398 0.78125 20.8398Z" fill="white" fill-opacity="0.425"/>
  <path d="M8.96484 14.7559C9.32617 14.7559 9.55078 14.5312 9.55078 14.1797L9.55078 11.7871L11.3281 11.7871C13.1055 11.7871 14.2285 10.498 14.2285 8.81836C14.2285 7.19727 13.1641 5.85938 11.3477 5.85938L8.97461 5.85938C8.62305 5.85938 8.39844 6.09375 8.39844 6.44531L8.39844 14.1797C8.39844 14.5312 8.62305 14.7559 8.96484 14.7559ZM9.55078 10.8398L9.55078 6.81641L11.0742 6.81641C12.3047 6.81641 13.0664 7.5293 13.0664 8.81836C13.0664 10.0684 12.3242 10.8398 11.0742 10.8398ZM7.42188 8.05664C7.42188 8.24219 7.56836 8.37891 7.75391 8.37891L14.6777 8.37891C14.8633 8.37891 15.0098 8.23242 15.0098 8.05664C15.0098 7.88086 14.8633 7.73438 14.6777 7.73438L7.75391 7.73438C7.56836 7.73438 7.42188 7.88086 7.42188 8.05664ZM7.42188 9.59961C7.42188 9.79492 7.56836 9.93164 7.75391 9.93164L14.6777 9.93164C14.8633 9.93164 15.0098 9.78516 15.0098 9.59961C15.0098 9.42383 14.8633 9.27734 14.6777 9.27734L7.75391 9.27734C7.56836 9.27734 7.42188 9.42383 7.42188 9.59961Z" fill="white" fill-opacity="0.85"/>
 </g>
</svg>
