<?xml version="1.0" encoding="UTF-8"?>
<!--Generator: Apple Native CoreSVG 341-->
<!DOCTYPE svg
PUBLIC "-//W3C//DTD SVG 1.1//EN"
       "http://www.w3.org/Graphics/SVG/1.1/DTD/svg11.dtd">
<svg version="1.1" xmlns="http://www.w3.org/2000/svg" xmlns:xlink="http://www.w3.org/1999/xlink" viewBox="0 0 22.9688 18.7988">
 <g>
  <rect height="18.7988" opacity="0" width="22.9688" x="0" y="0"/>
  <path d="M16.25 2.74414L16.25 3.33008L16.5137 3.33008C20.4199 3.33008 22.6074 5.39062 22.6074 9.16992L22.6074 15.8105C22.6074 17.8125 21.6016 18.7891 19.5898 18.7891L3.01758 18.7891C1.00586 18.7891 0 17.8125 0 15.8105L0 9.16992C0 5.39062 2.1875 3.33008 6.09375 3.33008L6.34766 3.33008L6.34766 2.74414C6.34766 0.898438 7.45117 0 9.14062 0L13.4668 0C15.2441 0 16.25 0.898438 16.25 2.74414ZM9.79492 11.3184C9.6875 11.5234 9.58008 11.748 9.45312 11.9434C9.26758 12.2168 9.02344 12.4121 8.7793 12.6074C8.33008 12.9883 7.85156 13.3887 7.85156 14.1699C7.85156 15.0977 8.47656 15.752 9.39453 15.752C9.85352 15.752 10.1758 15.6348 10.4883 15.5273C10.752 15.4297 11.0059 15.3516 11.3086 15.3516C11.6016 15.3516 11.8555 15.4297 12.1094 15.5273C12.4316 15.6348 12.7539 15.752 13.2129 15.752C14.1309 15.752 14.7559 15.0977 14.7559 14.1699C14.7559 13.3887 14.2773 12.9883 13.8281 12.6074C13.584 12.4121 13.3398 12.2168 13.1641 11.9531C13.0273 11.748 12.9199 11.5234 12.8125 11.3184C12.4902 10.6055 12.2266 9.95117 11.3086 9.95117C10.3711 9.95117 10.1172 10.6055 9.79492 11.3184ZM6.47461 10.625C6.47461 11.5332 6.95312 12.2266 7.56836 12.2266C8.18359 12.2266 8.68164 11.5332 8.68164 10.625C8.68164 9.7168 8.18359 9.01367 7.56836 9.01367C6.95312 9.01367 6.47461 9.7168 6.47461 10.625ZM13.9258 10.625C13.9258 11.5332 14.4238 12.2266 15.0391 12.2266C15.6543 12.2266 16.1328 11.5332 16.1328 10.625C16.1328 9.7168 15.6543 9.01367 15.0391 9.01367C14.4238 9.01367 13.9258 9.7168 13.9258 10.625ZM8.70117 7.96875C8.70117 8.86719 9.18945 9.58008 9.81445 9.58008C10.4297 9.58008 10.9082 8.86719 10.9082 7.96875C10.9082 7.07031 10.4297 6.37695 9.81445 6.37695C9.18945 6.37695 8.70117 7.06055 8.70117 7.96875ZM11.6992 7.96875C11.6992 8.86719 12.1777 9.58008 12.793 9.58008C13.418 9.58008 13.9062 8.86719 13.9062 7.96875C13.9062 7.06055 13.418 6.37695 12.793 6.37695C12.1777 6.37695 11.6992 7.07031 11.6992 7.96875ZM9.11133 1.42578C8.33984 1.42578 7.86133 1.875 7.86133 2.63672L7.86133 3.33008L14.7363 3.33008L14.7363 2.63672C14.7363 1.875 14.2676 1.42578 13.4863 1.42578Z" fill="white" fill-opacity="0.85"/>
 </g>
</svg>
