<svg version="1.1" xmlns="http://www.w3.org/2000/svg" xmlns:xlink="http://www.w3.org/1999/xlink" viewBox="0 0 20.2832 19.9316">
 <g>
  <rect height="19.9316" opacity="0" width="20.2832" x="0" y="0"/>
  <path d="M9.96094 19.9219C15.459 19.9219 19.9219 15.4492 19.9219 9.96094C19.9219 4.46289 15.459 0 9.96094 0C4.47266 0 0 4.46289 0 9.96094C0 15.4492 4.47266 19.9219 9.96094 19.9219Z" fill="var(--color-tertiary)"/>
  <path d="M5.625 14.3359C4.57031 14.3359 4.0332 13.8281 4.0332 12.7734L4.0332 9.30664C4.0332 7.32422 5.18555 6.24023 7.22656 6.24023L7.36328 6.24023L7.36328 5.92773C7.36328 4.96094 7.93945 4.51172 8.83789 4.51172L11.0938 4.51172C12.0215 4.51172 12.5586 4.96094 12.5586 5.92773L12.5586 6.24023L12.6953 6.24023C14.7363 6.24023 15.8984 7.32422 15.8984 9.30664L15.8984 12.7734C15.8984 13.8281 15.3516 14.3359 14.2969 14.3359ZM8.21289 6.24023L11.7188 6.24023L11.7188 5.87891C11.7188 5.51758 11.4941 5.29297 11.1426 5.29297L8.81836 5.29297C8.4375 5.29297 8.21289 5.51758 8.21289 5.87891ZM7.44141 10.0586C7.44141 10.5371 7.69531 10.9082 8.00781 10.9082C8.33008 10.9082 8.59375 10.5371 8.59375 10.0586C8.59375 9.58984 8.33008 9.20898 8.00781 9.20898C7.69531 9.20898 7.44141 9.58984 7.44141 10.0586ZM8.60352 8.67188C8.60352 9.14062 8.86719 9.51172 9.18945 9.51172C9.51172 9.51172 9.75586 9.14062 9.75586 8.67188C9.75586 8.20312 9.51172 7.8418 9.18945 7.8418C8.86719 7.8418 8.60352 8.20312 8.60352 8.67188ZM10.1758 8.67188C10.1758 9.14062 10.4199 9.51172 10.7422 9.51172C11.0645 9.51172 11.3184 9.14062 11.3184 8.67188C11.3184 8.20312 11.0645 7.8418 10.7422 7.8418C10.4199 7.8418 10.1758 8.20312 10.1758 8.67188ZM11.3281 10.0586C11.3281 10.5371 11.6016 10.9082 11.9238 10.9082C12.2461 10.9082 12.4902 10.5371 12.4902 10.0586C12.4902 9.58984 12.2461 9.20898 11.9238 9.20898C11.6016 9.20898 11.3281 9.58984 11.3281 10.0586ZM8.1543 11.9238C8.1543 12.4023 8.48633 12.7441 8.96484 12.7441C9.19922 12.7441 9.375 12.6953 9.54102 12.6367C9.67773 12.5879 9.79492 12.5488 9.9707 12.5488C10.1172 12.5488 10.2539 12.5879 10.3906 12.6367C10.5566 12.6953 10.7227 12.7441 10.957 12.7441C11.4355 12.7441 11.7773 12.4023 11.7773 11.9238C11.7773 11.5137 11.5332 11.3086 11.2891 11.0938C11.1523 11.0059 11.0352 10.9082 10.9375 10.7617C10.8594 10.6641 10.8203 10.5371 10.752 10.4199C10.5859 10.0586 10.459 9.70703 9.9707 9.70703C9.47266 9.70703 9.3457 10.0586 9.17969 10.4199C9.12109 10.5371 9.0625 10.6543 8.99414 10.752C8.90625 10.9082 8.7793 11.0059 8.64258 11.0938C8.4082 11.3086 8.1543 11.5137 8.1543 11.9238Z" fill="var(--color-primary)"/>
 </g>
</svg>
