<?xml version="1.0" encoding="UTF-8"?>
<!--Generator: Apple Native CoreSVG 341-->
<!DOCTYPE svg
PUBLIC "-//W3C//DTD SVG 1.1//EN"
       "http://www.w3.org/Graphics/SVG/1.1/DTD/svg11.dtd">
<svg version="1.1" xmlns="http://www.w3.org/2000/svg" xmlns:xlink="http://www.w3.org/1999/xlink" viewBox="0 0 18.5645 18.2324">
 <g>
  <rect height="18.2324" opacity="0" width="18.5645" x="0" y="0"/>
  <path d="M5 13.1543C7.87109 16.0352 11.3086 18.2227 14.0723 18.2227C15.3711 18.2227 16.5039 17.7051 17.2461 16.875C17.959 16.0742 18.2031 15.4785 18.2031 14.9512C18.2031 14.541 17.9492 14.1602 17.3047 13.7109L14.9219 12.002C14.3262 11.582 14.0625 11.5039 13.7109 11.5039C13.4082 11.5039 13.1543 11.5625 12.6465 11.8359L11.084 12.6953C10.8984 12.8027 10.8203 12.8223 10.6836 12.8223C10.498 12.8223 10.3711 12.7734 10.1855 12.6953C9.44336 12.3535 8.39844 11.5332 7.4707 10.6055C6.54297 9.67773 5.82031 8.73047 5.44922 7.99805C5.40039 7.90039 5.3418 7.74414 5.3418 7.58789C5.3418 7.46094 5.41016 7.35352 5.48828 7.2168L6.40625 5.64453C6.66016 5.21484 6.72852 4.98047 6.72852 4.64844C6.72852 4.26758 6.60156 3.85742 6.24023 3.33984L4.59961 1.05469C4.13086 0.400391 3.7793 0 3.25195 0C2.59766 0 1.80664 0.498047 1.24023 1.04492C0.429688 1.82617 0 2.91992 0 4.15039C0 6.93359 2.13867 10.3027 5 13.1543Z" fill="white" fill-opacity="0.85"/>
  <path d="M11.5039 7.19727L11.748 3.39844L11.7578 1.94336C11.748 1.5625 11.4551 1.26953 11.0742 1.25C10.6934 1.23047 10.3516 1.54297 10.3516 1.94336L10.3516 7.60742C10.3613 8.11523 10.6055 8.37891 11.123 8.37891L16.7969 8.37891C17.1973 8.37891 17.5195 8.04688 17.4902 7.64648C17.4707 7.26562 17.1777 6.98242 16.7969 6.99219L15.3223 6.98242ZM11.1719 6.67969C10.9473 6.92383 10.9375 7.30469 11.1719 7.53906C11.4062 7.77344 11.7969 7.76367 12.041 7.53906L14.0918 5.64453L18.291 1.42578C18.4473 1.26953 18.5352 1.09375 18.5352 0.888672C18.5254 0.507812 18.2129 0.205078 17.8027 0.214844C17.6074 0.205078 17.4414 0.273438 17.2949 0.419922L13.0762 4.62891Z" fill="white" fill-opacity="0.85"/>
 </g>
</svg>
