<?xml version="1.0" encoding="UTF-8"?>
<!--Generator: Apple Native CoreSVG 341-->
<!DOCTYPE svg
PUBLIC "-//W3C//DTD SVG 1.1//EN"
       "http://www.w3.org/Graphics/SVG/1.1/DTD/svg11.dtd">
<svg version="1.1" xmlns="http://www.w3.org/2000/svg" xmlns:xlink="http://www.w3.org/1999/xlink" viewBox="0 0 20.2832 19.9316">
 <g>
  <rect height="19.9316" opacity="0" width="20.2832" x="0" y="0"/>
  <path d="M19.9219 9.9707C19.9219 15.4688 15.459 19.9316 9.96094 19.9316C4.47266 19.9316 0 15.4688 0 9.9707C0 4.48242 4.47266 0.00976562 9.96094 0.00976562C15.459 0.00976562 19.9219 4.48242 19.9219 9.9707ZM4.77539 6.08398C4.31641 6.51367 4.07227 7.13867 4.07227 7.8418C4.07227 9.42383 5.29297 11.3379 6.92383 12.9785C8.55469 14.6094 10.5176 15.8594 12.0898 15.8594C12.832 15.8594 13.4668 15.5664 13.8867 15.0977C14.3164 14.6289 14.4434 14.2969 14.4434 13.9844C14.4434 13.7598 14.2969 13.5449 13.916 13.291L12.5684 12.3145C12.2266 12.0703 12.0801 12.0312 11.875 12.0312C11.709 12.0312 11.5723 12.0508 11.2695 12.2266L10.3809 12.7246C10.2832 12.7734 10.2344 12.7832 10.1562 12.7832C10.0488 12.7832 9.98047 12.7637 9.87305 12.7246C9.44336 12.5098 8.85742 12.041 8.32031 11.5234C7.8125 10.9961 7.39258 10.459 7.17773 10.0391C7.1582 9.98047 7.10938 9.89258 7.10938 9.80469C7.10938 9.72656 7.1582 9.66797 7.19727 9.58984L7.71484 8.70117C7.87109 8.44727 7.91016 8.32031 7.91016 8.125C7.91016 7.91016 7.8418 7.67578 7.61719 7.38281L6.68945 6.08398C6.42578 5.70312 6.23047 5.47852 5.92773 5.47852C5.55664 5.47852 5.10742 5.77148 4.77539 6.08398ZM10.6152 4.63867C10.2832 4.63867 10.1074 4.83398 10.1074 5.10742L10.1074 8.80859C10.1074 9.08203 10.2832 9.27734 10.6152 9.27734L11.1816 9.27734C11.5234 9.27734 11.6895 9.08203 11.6895 8.80859L11.6895 5.10742C11.6895 4.83398 11.5234 4.63867 11.1816 4.63867ZM13.2617 4.63867C12.9102 4.63867 12.7441 4.83398 12.7441 5.10742L12.7441 8.80859C12.7441 9.08203 12.9102 9.27734 13.2617 9.27734L13.8184 9.27734C14.1504 9.27734 14.3262 9.08203 14.3262 8.80859L14.3262 5.10742C14.3262 4.83398 14.1504 4.63867 13.8184 4.63867Z" fill="white" fill-opacity="0.85"/>
 </g>
</svg>
