<?xml version="1.0" encoding="UTF-8"?>
<!--Generator: Apple Native CoreSVG 341-->
<!DOCTYPE svg
PUBLIC "-//W3C//DTD SVG 1.1//EN"
       "http://www.w3.org/Graphics/SVG/1.1/DTD/svg11.dtd">
<svg version="1.1" xmlns="http://www.w3.org/2000/svg" xmlns:xlink="http://www.w3.org/1999/xlink" viewBox="0 0 23.9648 24.7363">
 <g>
  <rect height="24.7363" opacity="0" width="23.9648" x="0" y="0"/>
  <path d="M17.9647 2.79297L5.63882 2.79297C5.6789 1.99929 6.17978 1.54297 7.01172 1.54297L16.5918 1.54297C17.4237 1.54297 17.9246 1.99929 17.9647 2.79297Z" fill="white" fill-opacity="0.85"/>
  <path d="M19.9623 5.5825C19.6482 5.53257 19.3151 5.50781 18.9648 5.50781L4.63867 5.50781C4.2885 5.50781 3.95544 5.53256 3.64145 5.58247C3.74778 4.64426 4.38263 4.12109 5.41992 4.12109L18.1934 4.12109C19.2307 4.12109 19.8575 4.64428 19.9623 5.5825Z" fill="white" fill-opacity="0.85"/>
  <path d="M4.77539 22.8906L18.8477 22.8906C20.6836 22.8906 21.6504 21.9531 21.6504 20.1172L21.6504 19.4434L16.7773 14.834C16.377 14.4531 15.8691 14.2676 15.3613 14.2676C14.834 14.2676 14.375 14.4336 13.9453 14.8242L9.6875 18.5742L7.99805 17.0605C7.59766 16.6992 7.17773 16.5137 6.71875 16.5137C6.29883 16.5137 5.91797 16.709 5.51758 17.0508L1.97266 20.1172C1.97266 21.9531 2.93945 22.8906 4.77539 22.8906ZM4.63867 23.1641L18.9648 23.1641C21.0059 23.1641 22.0312 22.1484 22.0312 20.1367L22.0312 10.1074C22.0312 8.0957 21.0059 7.08008 18.9648 7.08008L4.63867 7.08008C2.59766 7.08008 1.57227 8.0957 1.57227 10.1074L1.57227 20.1367C1.57227 22.1484 2.59766 23.1641 4.63867 23.1641ZM4.66797 21.5918C3.69141 21.5918 3.14453 21.0645 3.14453 20.0488L3.14453 10.1953C3.14453 9.17969 3.69141 8.65234 4.66797 8.65234L18.9453 8.65234C19.9023 8.65234 20.459 9.17969 20.459 10.1953L20.459 20.0488C20.459 21.0645 19.9023 21.5918 18.9453 21.5918Z" fill="white" fill-opacity="0.85"/>
  <path d="M8.93555 15.0684C10.166 15.0684 11.1621 14.043 11.1621 12.8223C11.1621 11.6016 10.166 10.5957 8.93555 10.5957C7.69531 10.5957 6.69922 11.6016 6.69922 12.8223C6.69922 14.043 7.69531 15.0684 8.93555 15.0684Z" fill="white" fill-opacity="0.85"/>
 </g>
</svg>
