<svg version="1.1" xmlns="http://www.w3.org/2000/svg" xmlns:xlink="http://www.w3.org/1999/xlink" viewBox="0 0 20.2832 19.9316">
 <g>
  <rect height="19.9316" opacity="0" width="20.2832" x="0" y="0"/>
  <path d="M9.96094 19.9219C15.459 19.9219 19.9219 15.4492 19.9219 9.96094C19.9219 4.46289 15.459 0 9.96094 0C4.47266 0 0 4.46289 0 9.96094C0 15.4492 4.47266 19.9219 9.96094 19.9219Z" fill="var(--color-tertiary)"/>
  <path d="M7.44141 14.7461C7.00195 14.7461 6.67969 14.4727 6.67969 14.0332L6.67969 6.78711L5.43945 6.78711C5.03906 6.78711 4.75586 6.50391 4.75586 6.11328C4.75586 5.69336 5.0293 5.41992 5.43945 5.41992L14.4434 5.41992C14.834 5.41992 15.1172 5.69336 15.1172 6.11328C15.1172 6.50391 14.834 6.78711 14.4434 6.78711L13.1445 6.78711L13.1445 12.4805C13.1445 13.0664 13.3691 13.3105 13.8184 13.3105C13.916 13.3105 14.043 13.291 14.1504 13.291C14.6191 13.291 14.8633 13.5059 14.8633 13.916C14.8633 14.4238 14.3945 14.6973 13.6133 14.6973C12.2754 14.6973 11.6504 13.916 11.6504 12.5098L11.6504 6.78711L8.19336 6.78711L8.19336 14.0332C8.19336 14.4727 7.88086 14.7461 7.44141 14.7461Z" fill="var(--color-primary)"/>
 </g>
</svg>
