<svg version="1.1" xmlns="http://www.w3.org/2000/svg" xmlns:xlink="http://www.w3.org/1999/xlink" viewBox="0 0 18.3398 17.9785">
 <g>
  <rect height="17.9785" opacity="0" width="18.3398" x="0" y="0"/>
  <path d="M3.06641 17.9785L14.9121 17.9785C16.9629 17.9785 17.9785 16.9727 17.9785 14.9609L17.9785 3.02734C17.9785 1.01562 16.9629 0 14.9121 0L3.06641 0C1.02539 0 0 1.01562 0 3.02734L0 14.9609C0 16.9727 1.02539 17.9785 3.06641 17.9785ZM3.08594 16.4062C2.10938 16.4062 1.57227 15.8887 1.57227 14.873L1.57227 3.11523C1.57227 2.09961 2.10938 1.57227 3.08594 1.57227L14.8926 1.57227C15.8594 1.57227 16.4062 2.09961 16.4062 3.11523L16.4062 14.873C16.4062 15.8887 15.8594 16.4062 14.8926 16.4062Z" fill="var(--color-secondary)"/>
  <path d="M6.55273 13.623C6.97266 13.623 7.27539 13.3594 7.27539 12.9395L7.27539 5.9082L10.6348 5.9082L10.6348 11.4648C10.6348 12.8223 11.2402 13.5742 12.5293 13.5742C13.291 13.5742 13.7402 13.3105 13.7402 12.8223C13.7402 12.4316 13.5059 12.2266 13.0566 12.2266C12.9492 12.2266 12.8223 12.2363 12.7344 12.2363C12.3047 12.2363 12.0801 12.002 12.0801 11.4355L12.0801 5.9082L13.3398 5.9082C13.7109 5.9082 13.9844 5.63477 13.9844 5.25391C13.9844 4.85352 13.7207 4.58984 13.3398 4.58984L4.60938 4.58984C4.21875 4.58984 3.95508 4.85352 3.95508 5.25391C3.95508 5.63477 4.22852 5.9082 4.60938 5.9082L5.83008 5.9082L5.83008 12.9395C5.83008 13.3594 6.12305 13.623 6.55273 13.623Z" fill="var(--color-primary)"/>
 </g>
</svg>
