<?xml version="1.0" encoding="UTF-8"?>
<!--Generator: Apple Native CoreSVG 341-->
<!DOCTYPE svg
PUBLIC "-//W3C//DTD SVG 1.1//EN"
       "http://www.w3.org/Graphics/SVG/1.1/DTD/svg11.dtd">
<svg version="1.1" xmlns="http://www.w3.org/2000/svg" xmlns:xlink="http://www.w3.org/1999/xlink" viewBox="0 0 20.2832 19.9316">
 <g>
  <rect height="19.9316" opacity="0" width="20.2832" x="0" y="0"/>
  <path d="M9.96094 19.9219C15.459 19.9219 19.9219 15.459 19.9219 9.96094C19.9219 4.46289 15.459 0 9.96094 0C4.46289 0 0 4.46289 0 9.96094C0 15.459 4.46289 19.9219 9.96094 19.9219ZM9.96094 18.2617C5.37109 18.2617 1.66016 14.5508 1.66016 9.96094C1.66016 5.37109 5.37109 1.66016 9.96094 1.66016C14.5508 1.66016 18.2617 5.37109 18.2617 9.96094C18.2617 14.5508 14.5508 18.2617 9.96094 18.2617Z" fill="white" fill-opacity="0.85"/>
  <path d="M6.11328 11.8164C6.11328 12.2461 6.38672 12.5098 6.82617 12.5098L9.35547 12.5098L9.35547 14.2578C9.35547 15.3223 9.78516 16.2012 9.96094 16.2012C10.1367 16.2012 10.5664 15.3223 10.5664 14.2578L10.5664 12.5098L13.0859 12.5098C13.5254 12.5098 13.8086 12.2461 13.8086 11.8164C13.8086 10.7812 12.9688 9.66797 11.5723 9.16992L11.416 6.875C12.1289 6.47461 12.7148 6.01562 12.9688 5.68359C13.1055 5.50781 13.1738 5.33203 13.1738 5.17578C13.1738 4.87305 12.9395 4.6582 12.5879 4.6582L7.33398 4.6582C6.98242 4.6582 6.74805 4.87305 6.74805 5.17578C6.74805 5.33203 6.81641 5.51758 6.96289 5.69336C7.2168 6.02539 7.80273 6.48438 8.50586 6.875L8.33984 9.16992C6.95312 9.66797 6.11328 10.7812 6.11328 11.8164Z" fill="white" fill-opacity="0.85"/>
 </g>
</svg>
