<?xml version="1.0" encoding="UTF-8"?>
<!--Generator: Apple Native CoreSVG 341-->
<!DOCTYPE svg
PUBLIC "-//W3C//DTD SVG 1.1//EN"
       "http://www.w3.org/Graphics/SVG/1.1/DTD/svg11.dtd">
<svg version="1.1" xmlns="http://www.w3.org/2000/svg" xmlns:xlink="http://www.w3.org/1999/xlink" viewBox="0 0 28.8281 14.9316">
 <g>
  <rect height="14.9316" opacity="0" width="28.8281" x="0" y="0"/>
  <path d="M0 13.5645C0 14.4824 0.527344 14.9219 1.16211 14.9219C1.43555 14.9219 1.72852 14.834 2.01172 14.6777L12.2656 8.70117C13.0078 8.27148 13.291 7.94922 13.291 7.46094C13.291 6.97266 13.0078 6.65039 12.2656 6.2207L2.01172 0.244141C1.72852 0.078125 1.43555 0 1.16211 0C0.527344 0 0 0.429688 0 1.34766ZM17.8516 14.8633L20.0684 14.8633C20.9277 14.8633 21.3672 14.4141 21.3672 13.5547L21.3672 1.35742C21.3672 0.458984 20.9277 0.0488281 20.0684 0.0488281L17.8516 0.0488281C16.9922 0.0488281 16.543 0.498047 16.543 1.35742L16.543 13.5547C16.543 14.4141 16.9922 14.8633 17.8516 14.8633ZM24.9414 14.8633L27.1582 14.8633C28.0176 14.8633 28.4668 14.4141 28.4668 13.5547L28.4668 1.35742C28.4668 0.458984 28.0176 0.0488281 27.1582 0.0488281L24.9414 0.0488281C24.082 0.0488281 23.6426 0.498047 23.6426 1.35742L23.6426 13.5547C23.6426 14.4141 24.082 14.8633 24.9414 14.8633Z" fill="white" fill-opacity="0.85"/>
 </g>
</svg>
