<?xml version="1.0" encoding="UTF-8"?>
<!--Generator: Apple Native CoreSVG 341-->
<!DOCTYPE svg
PUBLIC "-//W3C//DTD SVG 1.1//EN"
       "http://www.w3.org/Graphics/SVG/1.1/DTD/svg11.dtd">
<svg version="1.1" xmlns="http://www.w3.org/2000/svg" xmlns:xlink="http://www.w3.org/1999/xlink" viewBox="0 0 22.5124 22.1608">
 <g>
  <rect height="22.1608" opacity="0" width="22.5124" x="0" y="0"/>
  <path d="M1.09505 13.2337L8.91731 21.056C10.3626 22.5013 11.7884 22.5111 13.224 21.0853L21.0853 13.2142C22.5111 11.7884 22.5013 10.3529 21.056 8.90755L13.2435 1.09505C11.7982-0.350264 10.3724-0.369795 8.93685 1.06575L1.06575 8.92708C-0.369795 10.3626-0.350264 11.7884 1.09505 13.2337Z" fill="white" fill-opacity="0.2125"/>
  <path d="M11.9154 14.8743L11.9154 7.25716C11.9154 6.74935 11.5736 6.38802 11.056 6.38802C10.5677 6.38802 10.2259 6.74935 10.2259 7.25716L10.2259 14.8743C10.2259 15.3724 10.5677 15.7337 11.056 15.7337C11.5736 15.7337 11.9154 15.3822 11.9154 14.8743ZM7.26692 11.9056L14.8841 11.9056C15.3822 11.9056 15.7435 11.5736 15.7435 11.0755C15.7435 10.5677 15.3919 10.2161 14.8841 10.2161L7.26692 10.2161C6.75911 10.2161 6.39778 10.5677 6.39778 11.0755C6.39778 11.5736 6.75911 11.9056 7.26692 11.9056Z" fill="white" fill-opacity="0.85"/>
 </g>
</svg>
