<?xml version="1.0" encoding="UTF-8"?>
<!--Generator: Apple Native CoreSVG 341-->
<!DOCTYPE svg
PUBLIC "-//W3C//DTD SVG 1.1//EN"
       "http://www.w3.org/Graphics/SVG/1.1/DTD/svg11.dtd">
<svg version="1.1" xmlns="http://www.w3.org/2000/svg" xmlns:xlink="http://www.w3.org/1999/xlink" viewBox="0 0 18.3691 17.998">
 <g>
  <rect height="17.998" opacity="0" width="18.3691" x="0" y="0"/>
  <path d="M5.3125 17.998L12.6855 17.998C14.4043 17.998 15.7422 17.5 16.6211 16.6211C17.5293 15.7227 18.0078 14.3848 18.0078 12.6758L18.0078 5.32227C18.0078 3.61328 17.5293 2.27539 16.6211 1.37695C15.7324 0.488281 14.4043 0 12.6855 0L5.3125 0C3.60352 0 2.25586 0.498047 1.37695 1.37695C0.478516 2.27539 0 3.61328 0 5.32227L0 12.6758C0 14.3848 0.46875 15.7227 1.37695 16.6211C2.26562 17.5098 3.60352 17.998 5.3125 17.998ZM5.3125 16.4258C4.10156 16.4258 3.1543 16.084 2.53906 15.4688C1.9043 14.8438 1.57227 13.9062 1.57227 12.6758L1.57227 5.32227C1.57227 4.0918 1.9043 3.1543 2.53906 2.5293C3.14453 1.92383 4.10156 1.57227 5.3125 1.57227L12.6855 1.57227C13.9062 1.57227 14.8438 1.91406 15.4688 2.5293C16.1035 3.1543 16.4355 4.0918 16.4355 5.32227L16.4355 12.6758C16.4355 13.9062 16.1035 14.8438 15.4688 15.4688C14.8535 16.0742 13.9062 16.4258 12.6855 16.4258Z" fill="white" fill-opacity="0.85"/>
  <path d="M9.82422 12.6758L9.82422 5.29297C9.82422 4.79492 9.48242 4.45312 8.99414 4.45312C8.51562 4.45312 8.19336 4.79492 8.19336 5.29297L8.19336 12.6758C8.19336 13.1641 8.51562 13.5059 8.99414 13.5059C9.48242 13.5059 9.82422 13.1738 9.82422 12.6758ZM5.32227 9.79492L12.7051 9.79492C13.1934 9.79492 13.5352 9.47266 13.5352 8.99414C13.5352 8.50586 13.1934 8.16406 12.7051 8.16406L5.32227 8.16406C4.81445 8.16406 4.48242 8.50586 4.48242 8.99414C4.48242 9.47266 4.82422 9.79492 5.32227 9.79492Z" fill="white" fill-opacity="0.85"/>
 </g>
</svg>
