<?xml version="1.0" encoding="UTF-8"?>
<!--Generator: Apple Native CoreSVG 341-->
<!DOCTYPE svg
PUBLIC "-//W3C//DTD SVG 1.1//EN"
       "http://www.w3.org/Graphics/SVG/1.1/DTD/svg11.dtd">
<svg version="1.1" xmlns="http://www.w3.org/2000/svg" xmlns:xlink="http://www.w3.org/1999/xlink" viewBox="0 0 22.9688 23.1348">
 <g>
  <rect height="23.1348" opacity="0" width="22.9688" x="0" y="0"/>
  <path d="M16.9043 4.375L16.9043 4.54102L8.76953 4.54102C5.99609 4.54102 4.375 6.13281 4.375 8.89648L4.375 17.2852L4.0332 17.2852C1.99219 17.2852 0.966797 16.2695 0.966797 14.2578L0.966797 4.375C0.966797 2.36328 1.99219 1.34766 4.0332 1.34766L13.8379 1.34766C15.8691 1.34766 16.9043 2.36328 16.9043 4.375Z" fill="white" fill-opacity="0.85"/>
  <path d="M21.6406 8.89648L21.6406 18.7793C21.6406 20.791 20.6055 21.8066 18.5742 21.8066L8.76953 21.8066C6.72852 21.8066 5.70312 20.791 5.70312 18.7793L5.70312 8.89648C5.70312 6.875 6.72852 5.86914 8.76953 5.86914L18.5742 5.86914C20.6055 5.86914 21.6406 6.88477 21.6406 8.89648ZM12.832 10.0195L12.832 12.9785L9.87305 12.9785C9.35547 12.9785 9.00391 13.3301 9.00391 13.8379C9.00391 14.3359 9.36523 14.668 9.87305 14.668L12.832 14.668L12.832 17.6367C12.832 18.1348 13.1641 18.4961 13.6621 18.4961C14.1699 18.4961 14.5215 18.1445 14.5215 17.6367L14.5215 14.668L17.4902 14.668C17.9883 14.668 18.3496 14.3359 18.3496 13.8379C18.3496 13.3301 17.9883 12.9785 17.4902 12.9785L14.5215 12.9785L14.5215 10.0195C14.5215 9.51172 14.1699 9.15039 13.6621 9.15039C13.1641 9.15039 12.832 9.51172 12.832 10.0195Z" fill="white" fill-opacity="0.85"/>
 </g>
</svg>
