<svg version="1.1" xmlns="http://www.w3.org/2000/svg" xmlns:xlink="http://www.w3.org/1999/xlink" viewBox="0 0 17.666 21.6309">
 <g>
  <rect height="21.6309" opacity="0" width="17.666" x="0" y="0"/>
  <path d="M11.0866 2.45559C11.0765 2.48845 11.0693 2.52247 11.0643 2.55722C11.0468 2.64366 11.0333 2.73153 11.024 2.82064C11.0228 2.8266 11.0221 2.83274 11.0219 2.83897C11.0112 2.94263 11.0059 3.04786 11.0059 3.1543C11.0059 3.25936 11.0111 3.36326 11.0217 3.46562C11.0221 3.47326 11.0228 3.48077 11.0243 3.48809C11.0335 3.5752 11.0468 3.66112 11.0639 3.74569C11.074 3.80719 11.0875 3.86753 11.1064 3.92578L5.14648 3.92578C2.94922 3.92578 1.57227 4.96094 1.57227 6.5918C1.57227 8.25195 3.04688 9.375 5.98633 9.67773L11.5527 10.2637C15.3418 10.6445 17.3047 12.3828 17.3047 15.0391C17.3047 17.6367 15.3125 19.2773 12.1582 19.2773L6.18264 19.2773C6.19201 19.2436 6.20077 19.2096 6.20881 19.1753C6.2189 19.1424 6.22601 19.1084 6.23096 19.0736C6.24838 18.9872 6.26181 18.8993 6.27105 18.8102C6.27226 18.8043 6.27288 18.7981 6.27318 18.7919C6.28379 18.6882 6.28906 18.583 6.28906 18.4766C6.28906 18.3715 6.28387 18.2676 6.27329 18.1652C6.27298 18.1576 6.27221 18.1501 6.27076 18.1428C6.26166 18.0557 6.24843 17.9698 6.23136 17.8852C6.22139 17.8237 6.20794 17.7633 6.18917 17.7051C6.18917 17.7051 6.18917 17.7051 6.18917 17.7051L12.1582 17.7051C14.3555 17.7051 15.7324 16.6699 15.7324 15.0391C15.7324 13.3789 14.248 12.2559 11.3184 11.9531L5.73242 11.3672C1.95312 10.9863 0 9.24805 0 6.5918C0 3.99414 1.99219 2.35352 5.14648 2.35352L11.113 2.35352C11.1035 2.38729 11.0947 2.42131 11.0866 2.45559Z" fill="var(--color-secondary)"/>
  <path d="M14.1602 6.29883C15.8984 6.29883 17.3047 4.88281 17.3047 3.1543C17.3047 1.41602 15.8984 0 14.1602 0C12.4219 0 11.0059 1.41602 11.0059 3.1543C11.0059 4.88281 12.4219 6.29883 14.1602 6.29883ZM14.1602 4.76562C13.2422 4.76562 12.5391 4.0625 12.5391 3.1543C12.5391 2.24609 13.252 1.5332 14.1602 1.5332C15.0586 1.5332 15.7715 2.24609 15.7715 3.1543C15.7715 4.0625 15.0586 4.76562 14.1602 4.76562ZM3.14453 21.6309C4.88281 21.6309 6.28906 20.2148 6.28906 18.4766C6.28906 16.748 4.88281 15.332 3.14453 15.332C1.40625 15.332 0 16.748 0 18.4766C0 20.2148 1.40625 21.6309 3.14453 21.6309Z" fill="var(--color-primary)"/>
 </g>
</svg>
