<?xml version="1.0" encoding="UTF-8"?>
<!--Generator: Apple Native CoreSVG 341-->
<!DOCTYPE svg
PUBLIC "-//W3C//DTD SVG 1.1//EN"
       "http://www.w3.org/Graphics/SVG/1.1/DTD/svg11.dtd">
<svg version="1.1" xmlns="http://www.w3.org/2000/svg" xmlns:xlink="http://www.w3.org/1999/xlink" viewBox="0 0 20.2832 19.9518">
 <g>
  <rect height="19.9518" opacity="0" width="20.2832" x="0" y="0"/>
  <path d="M0 9.97101C0 13.7112 2.1582 17.012 5.10742 18.6331C6.13281 19.2093 6.98242 17.8421 5.84961 17.1878C3.39844 15.8206 1.66992 13.1058 1.66992 9.97101C1.66992 5.36164 5.3418 1.67023 9.95117 1.67023C14.5605 1.67023 18.2617 5.36164 18.2617 9.97101C18.2617 10.5569 18.7109 10.8402 19.1406 10.8402C19.541 10.8402 19.9219 10.5472 19.9219 9.97101C19.9219 4.52179 15.4004 0.010074 9.95117 0.010074C4.51172 0.010074 0 4.52179 0 9.97101Z" fill="white" fill-opacity="0.85"/>
  <path d="M14.3262 19.8831C14.7559 19.7171 14.9609 19.2288 14.7754 18.7894L13.252 15.2444L15.3516 15.1566C15.7227 15.1468 15.8984 14.7855 15.6348 14.512L10.3027 9.02375C10.0488 8.76984 9.67773 8.91632 9.66797 9.27765L9.58008 17.0706C9.57031 17.4515 10.0195 17.5687 10.2637 17.3343L11.7578 15.8402L13.2129 19.4437C13.3789 19.8636 13.8867 20.0687 14.3262 19.8831Z" fill="white" fill-opacity="0.85"/>
 </g>
</svg>
