<svg version="1.1" xmlns="http://www.w3.org/2000/svg" xmlns:xlink="http://www.w3.org/1999/xlink" viewBox="0 0 18.3398 17.9785">
 <g>
  <rect height="17.9785" opacity="0" width="18.3398" x="0" y="0"/>
  <path d="M17.9785 3.02734L17.9785 14.9609C17.9785 16.9727 16.9629 17.9785 14.9121 17.9785L3.06641 17.9785C1.02539 17.9785 0 16.9727 0 14.9609L0 3.02734C0 1.01562 1.02539 0 3.06641 0L14.9121 0C16.9629 0 17.9785 1.01562 17.9785 3.02734ZM3.08594 1.57227C2.10938 1.57227 1.57227 2.09961 1.57227 3.11523L1.57227 14.873C1.57227 15.8887 2.10938 16.4062 3.08594 16.4062L14.8926 16.4062C15.8594 16.4062 16.4062 15.8887 16.4062 14.873L16.4062 3.11523C16.4062 2.09961 15.8594 1.57227 14.8926 1.57227Z" fill="var(--color-secondary)"/>
  <path d="M11.109 12.6813L11.377 13.3008C11.5625 13.7305 11.3477 14.2188 10.918 14.3945C10.4883 14.5801 9.98047 14.375 9.80469 13.9453L8.34961 10.3418L6.86523 11.8359C6.61133 12.0801 6.17188 11.9629 6.18164 11.582L6.22428 7.79655ZM6.89453 3.53516L12.2363 9.01367C12.5 9.29688 12.3242 9.64844 11.9531 9.66797L11.3219 9.69427L6.25986 4.63777L6.26953 3.7793C6.2793 3.42773 6.65039 3.28125 6.89453 3.53516Z" fill="var(--color-primary)"/>
  <path d="M13.1836 13.7695C13.3496 13.9355 13.6426 13.9453 13.8086 13.7695C13.9844 13.5938 13.9844 13.3203 13.8086 13.1445L4.86328 4.18945C4.67773 4.01367 4.4043 4.01367 4.22852 4.18945C4.05273 4.36523 4.05273 4.64844 4.22852 4.81445Z" fill="var(--color-primary)"/>
 </g>
</svg>
