<?xml version="1.0" encoding="UTF-8"?>
<!--Generator: Apple Native CoreSVG 341-->
<!DOCTYPE svg
PUBLIC "-//W3C//DTD SVG 1.1//EN"
       "http://www.w3.org/Graphics/SVG/1.1/DTD/svg11.dtd">
<svg version="1.1" xmlns="http://www.w3.org/2000/svg" xmlns:xlink="http://www.w3.org/1999/xlink" viewBox="0 0 20.2832 19.9316">
 <g>
  <rect height="19.9316" opacity="0" width="20.2832" x="0" y="0"/>
  <path d="M9.96094 19.9316C15.459 19.9316 19.9219 15.4688 19.9219 9.9707C19.9219 4.48242 15.459 0.00976562 9.96094 0.00976562C4.47266 0.00976562 0 4.48242 0 9.9707C0 15.4688 4.47266 19.9316 9.96094 19.9316Z" fill="white" fill-opacity="0.2125"/>
  <path d="M8.33008 7.95898C7.99805 7.55859 7.48047 7.32422 6.94336 7.32422C6.60156 7.32422 6.26953 7.42188 5.99609 7.56836C5.86914 7.34375 5.82031 7.12891 5.82031 6.88477C5.82031 6.12305 6.43555 5.52734 7.1875 5.54688C7.1875 5.20508 7.5 4.85352 7.88086 4.89258C7.97852 4.45312 8.42773 4.04297 9.13086 4.04297C9.6582 4.04297 10.127 4.33594 10.332 4.81445C10.4785 4.78516 10.6445 4.79492 10.7617 4.83398C11.0059 4.61914 11.3086 4.49219 11.6504 4.49219C12.1875 4.49219 12.5684 4.81445 12.7734 5.30273C13.5547 5.3125 14.1016 5.91797 14.1016 6.76758C14.1016 7.05078 14.0137 7.33398 13.8574 7.56836C13.584 7.41211 13.2617 7.32422 12.9297 7.32422C12.3926 7.32422 11.8652 7.55859 11.5332 7.95898C11.1816 7.45117 10.5566 7.16797 9.93164 7.16797C9.31641 7.16797 8.69141 7.45117 8.33008 7.95898ZM8.00781 15.7129C7.29492 15.7129 6.96289 15.3027 6.82617 14.6094L5.84961 9.48242C5.67383 8.53516 6.29883 8.04688 6.94336 8.04688C7.4707 8.04688 7.97852 8.37891 8.02734 9.02344L8.63281 15.7129ZM9.32617 15.7129L8.73047 9.13086C8.66211 8.23242 9.39453 7.88086 9.93164 7.88086C10.4688 7.88086 11.2109 8.23242 11.1426 9.13086L10.5469 15.7129ZM11.8652 15.7129L11.2402 15.7129L11.8457 9.02344C11.8945 8.37891 12.4023 8.04688 12.9297 8.04688C13.5742 8.04688 14.1992 8.53516 14.0234 9.48242L13.0469 14.6094C12.9102 15.3027 12.5781 15.7129 11.8652 15.7129Z" fill="white" fill-opacity="0.85"/>
 </g>
</svg>
