<?xml version="1.0" encoding="UTF-8"?>
<!--Generator: Apple Native CoreSVG 341-->
<!DOCTYPE svg
PUBLIC "-//W3C//DTD SVG 1.1//EN"
       "http://www.w3.org/Graphics/SVG/1.1/DTD/svg11.dtd">
<svg version="1.1" xmlns="http://www.w3.org/2000/svg" xmlns:xlink="http://www.w3.org/1999/xlink" viewBox="0 0 21.2891 16.8066">
 <g>
  <rect height="16.8066" opacity="0" width="21.2891" x="0" y="0"/>
  <path d="M17.6074 0.722656C19.6973 2.70508 20.9277 5.57617 20.9277 8.39844C20.9277 11.2207 19.6973 14.0918 17.6074 16.0742C17.1191 16.543 16.4551 16.7871 15.7422 16.7871L5.17578 16.7871C4.46289 16.7871 3.80859 16.543 3.32031 16.0742C1.23047 14.0918 0 11.2207 0 8.39844C0 5.61523 1.21094 2.77344 3.22266 0.800781C3.73047 0.283203 4.43359 0 5.17578 0L15.7422 0C16.4551 0 17.1191 0.253906 17.6074 0.722656ZM5.38086 5.3125L5.38086 11.5918C5.38086 12.0996 5.75195 12.4707 6.25977 12.4707C6.75781 12.4707 7.1582 12.0996 7.1582 11.5918L7.1582 5.3125C7.1582 4.81445 6.75781 4.4043 6.25977 4.4043C5.75195 4.4043 5.38086 4.81445 5.38086 5.3125ZM13.7695 5.32227L13.7695 11.5723C13.7695 12.0703 14.1504 12.4707 14.6582 12.4707C15.166 12.4707 15.5469 12.0801 15.5469 11.5723L15.5469 5.32227C15.5469 4.81445 15.166 4.4043 14.6582 4.4043C14.1504 4.4043 13.7695 4.81445 13.7695 5.32227Z" fill="white" fill-opacity="0.85"/>
 </g>
</svg>
