<?xml version="1.0" encoding="UTF-8"?>
<!--Generator: Apple Native CoreSVG 341-->
<!DOCTYPE svg
PUBLIC "-//W3C//DTD SVG 1.1//EN"
       "http://www.w3.org/Graphics/SVG/1.1/DTD/svg11.dtd">
<svg version="1.1" xmlns="http://www.w3.org/2000/svg" xmlns:xlink="http://www.w3.org/1999/xlink" viewBox="0 0 18.3398 17.9785">
 <g>
  <rect height="17.9785" opacity="0" width="18.3398" x="0" y="0"/>
  <path d="M3.06641 17.9785L14.9121 17.9785C16.9629 17.9785 17.9785 16.9727 17.9785 14.9609L17.9785 3.02734C17.9785 1.01562 16.9629 0 14.9121 0L3.06641 0C1.02539 0 0 1.01562 0 3.02734L0 14.9609C0 16.9727 1.02539 17.9785 3.06641 17.9785ZM3.08594 16.4062C2.10938 16.4062 1.57227 15.8887 1.57227 14.873L1.57227 3.11523C1.57227 2.09961 2.10938 1.57227 3.08594 1.57227L14.8926 1.57227C15.8594 1.57227 16.4062 2.09961 16.4062 3.11523L16.4062 14.873C16.4062 15.8887 15.8594 16.4062 14.8926 16.4062Z" fill="white" fill-opacity="0.85"/>
  <path d="M5.26367 13.5742L12.7734 13.5742C13.3008 13.5742 13.6914 13.1836 13.6914 12.6562L13.6914 5.33203C13.6914 4.80469 13.3008 4.41406 12.7734 4.41406L5.26367 4.41406C4.73633 4.41406 4.3457 4.80469 4.3457 5.33203L4.3457 12.6562C4.3457 13.1836 4.73633 13.5742 5.26367 13.5742ZM8.78906 8.28125C8.55469 8.28125 8.38867 8.13477 8.38867 7.89062L8.38867 6.28906C8.38867 6.05469 8.55469 5.88867 8.78906 5.88867L9.22852 5.88867C9.46289 5.88867 9.64844 6.05469 9.64844 6.28906L9.64844 7.89062C9.64844 8.13477 9.46289 8.28125 9.22852 8.28125ZM6.18164 12.0117C5.9375 12.0117 5.78125 11.8457 5.78125 11.6113L5.78125 11.1621C5.78125 10.9277 5.9375 10.752 6.18164 10.752L7.70508 10.752C7.93945 10.752 8.0957 10.9277 8.0957 11.1621L8.0957 11.6113C8.0957 11.8457 7.93945 12.0117 7.70508 12.0117ZM10.3418 12.0117C10.0977 12.0117 9.94141 11.8457 9.94141 11.6113L9.94141 11.1621C9.94141 10.9277 10.0977 10.752 10.3418 10.752L11.8555 10.752C12.0996 10.752 12.2559 10.9277 12.2559 11.1621L12.2559 11.6113C12.2559 11.8457 12.0996 12.0117 11.8555 12.0117Z" fill="white" fill-opacity="0.85"/>
 </g>
</svg>
