<?xml version="1.0" encoding="UTF-8"?>
<!--Generator: Apple Native CoreSVG 341-->
<!DOCTYPE svg
PUBLIC "-//W3C//DTD SVG 1.1//EN"
       "http://www.w3.org/Graphics/SVG/1.1/DTD/svg11.dtd">
<svg version="1.1" xmlns="http://www.w3.org/2000/svg" xmlns:xlink="http://www.w3.org/1999/xlink" viewBox="0 0 11.2012 21.3184">
 <g>
  <rect height="21.3184" opacity="0" width="11.2012" x="0" y="0"/>
  <path d="M3.00781 21.3086L7.83203 21.3086C9.81445 21.3086 10.8398 20.293 10.8398 18.3398L10.8398 2.97852C10.8398 1.02539 9.81445 0 7.83203 0L3.00781 0C1.03516 0 0 1.02539 0 2.97852L0 18.3398C0 20.293 1.03516 21.3086 3.00781 21.3086Z" fill="white" fill-opacity="0.2125"/>
  <path d="M5.42969 6.73828C4.58984 6.73828 3.90625 6.06445 3.90625 5.21484C3.90625 4.39453 4.58984 3.7207 5.42969 3.7207C6.25977 3.7207 6.94336 4.39453 6.94336 5.21484C6.94336 6.06445 6.25977 6.73828 5.42969 6.73828ZM5.42969 12.168C4.58984 12.168 3.90625 11.4941 3.90625 10.6543C3.90625 9.82422 4.58984 9.14062 5.42969 9.14062C6.25977 9.14062 6.94336 9.82422 6.94336 10.6543C6.94336 11.4941 6.25977 12.168 5.42969 12.168ZM5.42969 17.5977C4.58984 17.5977 3.90625 16.9141 3.90625 16.084C3.90625 15.2539 4.58984 14.5801 5.42969 14.5801C6.25977 14.5801 6.94336 15.2539 6.94336 16.084C6.94336 16.9141 6.25977 17.5977 5.42969 17.5977Z" fill="white" fill-opacity="0.85"/>
 </g>
</svg>
