<svg version="1.1" xmlns="http://www.w3.org/2000/svg" xmlns:xlink="http://www.w3.org/1999/xlink" viewBox="0 0 18.3398 17.9785">
 <g>
  <rect height="17.9785" opacity="0" width="18.3398" x="0" y="0"/>
  <path d="M3.06641 17.9785L14.9121 17.9785C16.9629 17.9785 17.9785 16.9727 17.9785 14.9609L17.9785 3.02734C17.9785 1.01562 16.9629 0 14.9121 0L3.06641 0C1.02539 0 0 1.01562 0 3.02734L0 14.9609C0 16.9727 1.02539 17.9785 3.06641 17.9785ZM3.08594 16.4062C2.10938 16.4062 1.57227 15.8887 1.57227 14.873L1.57227 3.11523C1.57227 2.09961 2.10938 1.57227 3.08594 1.57227L14.8926 1.57227C15.8594 1.57227 16.4062 2.09961 16.4062 3.11523L16.4062 14.873C16.4062 15.8887 15.8594 16.4062 14.8926 16.4062Z" fill="var(--color-secondary)"/>
  <path d="M5.79102 5.56641C5.18555 5.56641 4.92188 5.80078 4.64844 6.15234L2.96875 8.35938C2.67578 8.73047 2.67578 9.20898 2.96875 9.58984L4.64844 11.8164C4.92188 12.168 5.27344 12.3926 5.79102 12.3926L12.1875 12.3926C12.7051 12.3926 13.0566 12.168 13.3301 11.8164L15.0098 9.58984C15.3027 9.20898 15.3027 8.73047 15.0098 8.35938L13.3301 6.15234C13.0566 5.80078 12.793 5.56641 12.1875 5.56641ZM5.57617 8.04688C6.08398 8.04688 6.51367 8.47656 6.51367 8.98438C6.51367 9.49219 6.08398 9.91211 5.57617 9.91211C5.07812 9.91211 4.64844 9.49219 4.64844 8.98438C4.64844 8.47656 5.07812 8.04688 5.57617 8.04688ZM8.99414 9.19922C9.50195 9.19922 9.92188 9.62891 9.92188 10.127C9.92188 10.6348 9.50195 11.0645 8.99414 11.0645C8.47656 11.0645 8.05664 10.6348 8.05664 10.127C8.05664 9.62891 8.47656 9.19922 8.99414 9.19922ZM12.4023 8.04688C12.9004 8.04688 13.3301 8.47656 13.3301 8.98438C13.3301 9.49219 12.9004 9.91211 12.4023 9.91211C11.8945 9.91211 11.4746 9.49219 11.4746 8.98438C11.4746 8.47656 11.8945 8.04688 12.4023 8.04688Z" fill="var(--color-primary)"/>
 </g>
</svg>
