<?xml version="1.0" encoding="UTF-8"?>
<!--Generator: Apple Native CoreSVG 341-->
<!DOCTYPE svg
PUBLIC "-//W3C//DTD SVG 1.1//EN"
       "http://www.w3.org/Graphics/SVG/1.1/DTD/svg11.dtd">
<svg version="1.1" xmlns="http://www.w3.org/2000/svg" xmlns:xlink="http://www.w3.org/1999/xlink" viewBox="0 0 18.3398 17.9785">
 <g>
  <rect height="17.9785" opacity="0" width="18.3398" x="0" y="0"/>
  <path d="M3.06641 17.9785L14.9121 17.9785C16.9629 17.9785 17.9785 16.9727 17.9785 14.9609L17.9785 3.02734C17.9785 1.01562 16.9629 0 14.9121 0L3.06641 0C1.02539 0 0 1.01562 0 3.02734L0 14.9609C0 16.9727 1.02539 17.9785 3.06641 17.9785Z" fill="white" fill-opacity="0.2125"/>
  <path d="M3.23242 9.92188L3.23242 8.05664C3.23242 7.67578 3.49609 7.42188 3.87695 7.42188L4.31641 7.42188L4.31641 6.93359C4.31641 5.20508 6.5625 3.61328 8.99414 3.61328C11.416 3.61328 13.6621 5.20508 13.6621 6.93359L13.6621 7.42188L14.1016 7.42188C14.4824 7.42188 14.7461 7.67578 14.7461 8.05664L14.7461 9.92188C14.7461 10.3027 14.4824 10.5566 14.1016 10.5566L13.6621 10.5566L13.6621 11.0352C13.6621 12.7734 11.416 14.3652 8.99414 14.3652C6.5625 14.3652 4.31641 12.7734 4.31641 11.0352L4.31641 10.5566L3.87695 10.5566C3.49609 10.5566 3.23242 10.3027 3.23242 9.92188ZM6.48438 10.166C7.13867 10.166 7.66602 9.63867 7.66602 8.98438C7.66602 8.33984 7.13867 7.8125 6.48438 7.8125C5.83984 7.8125 5.30273 8.33984 5.30273 8.98438C5.30273 9.63867 5.83984 10.166 6.48438 10.166ZM11.4941 10.166C12.1387 10.166 12.6758 9.63867 12.6758 8.98438C12.6758 8.33984 12.1387 7.8125 11.4941 7.8125C10.8496 7.8125 10.3125 8.33984 10.3125 8.98438C10.3125 9.63867 10.8496 10.166 11.4941 10.166Z" fill="white" fill-opacity="0.85"/>
 </g>
</svg>
