<?xml version="1.0" encoding="UTF-8"?>
<!--Generator: Apple Native CoreSVG 341-->
<!DOCTYPE svg
PUBLIC "-//W3C//DTD SVG 1.1//EN"
       "http://www.w3.org/Graphics/SVG/1.1/DTD/svg11.dtd">
<svg version="1.1" xmlns="http://www.w3.org/2000/svg" xmlns:xlink="http://www.w3.org/1999/xlink" viewBox="0 0 11.2012 21.3184">
 <g>
  <rect height="21.3184" opacity="0" width="11.2012" x="0" y="0"/>
  <path d="M3.00781 21.3086L7.83203 21.3086C9.81445 21.3086 10.8398 20.293 10.8398 18.3398L10.8398 2.97852C10.8398 1.02539 9.81445 0 7.83203 0L3.00781 0C1.03516 0 0 1.02539 0 2.97852L0 18.3398C0 20.293 1.03516 21.3086 3.00781 21.3086ZM3.03711 19.7363C2.11914 19.7363 1.57227 19.209 1.57227 18.2617L1.57227 3.05664C1.57227 2.09961 2.11914 1.57227 3.03711 1.57227L7.80273 1.57227C8.7207 1.57227 9.26758 2.09961 9.26758 3.05664L9.26758 18.2617C9.26758 19.209 8.7207 19.7363 7.80273 19.7363Z" fill="white" fill-opacity="0.85"/>
  <path d="M5.42969 6.85547C6.23047 6.85547 6.89453 6.20117 6.89453 5.38086C6.89453 4.58008 6.23047 3.92578 5.42969 3.92578C4.61914 3.92578 3.95508 4.58008 3.95508 5.38086C3.95508 6.20117 4.61914 6.85547 5.42969 6.85547ZM5.42969 12.1191C6.23047 12.1191 6.89453 11.4648 6.89453 10.6543C6.89453 9.85352 6.23047 9.18945 5.42969 9.18945C4.61914 9.18945 3.95508 9.85352 3.95508 10.6543C3.95508 11.4648 4.61914 12.1191 5.42969 12.1191ZM5.42969 17.3926C6.23047 17.3926 6.89453 16.7285 6.89453 15.918C6.89453 15.1172 6.23047 14.4629 5.42969 14.4629C4.61914 14.4629 3.95508 15.1172 3.95508 15.918C3.95508 16.7285 4.61914 17.3926 5.42969 17.3926Z" fill="white" fill-opacity="0.85"/>
 </g>
</svg>
