<?xml version="1.0" encoding="UTF-8"?>
<!--Generator: Apple Native CoreSVG 341-->
<!DOCTYPE svg
PUBLIC "-//W3C//DTD SVG 1.1//EN"
       "http://www.w3.org/Graphics/SVG/1.1/DTD/svg11.dtd">
<svg version="1.1" xmlns="http://www.w3.org/2000/svg" xmlns:xlink="http://www.w3.org/1999/xlink" viewBox="0 0 18.3398 17.9785">
 <g>
  <rect height="17.9785" opacity="0" width="18.3398" x="0" y="0"/>
  <path d="M3.06641 17.9785L14.9121 17.9785C16.9629 17.9785 17.9785 16.9727 17.9785 14.9609L17.9785 3.02734C17.9785 1.01562 16.9629 0 14.9121 0L3.06641 0C1.02539 0 0 1.01562 0 3.02734L0 14.9609C0 16.9727 1.02539 17.9785 3.06641 17.9785Z" fill="white" fill-opacity="0.2125"/>
  <path d="M5.58594 5.35156L12.3926 5.35156C13.0371 5.35156 13.3203 5.5957 13.6133 5.97656L15.4004 8.31055C15.7129 8.71094 15.7129 9.22852 15.4004 9.63867L13.6133 11.9922C13.3203 12.373 12.9395 12.6074 12.3926 12.6074L5.58594 12.6074C5.03906 12.6074 4.6582 12.373 4.36523 11.9922L2.57812 9.63867C2.26562 9.22852 2.26562 8.71094 2.57812 8.31055L4.36523 5.97656C4.6582 5.5957 4.94141 5.35156 5.58594 5.35156ZM5.36133 7.98828C4.82422 7.98828 4.36523 8.44727 4.36523 8.98438C4.36523 9.52148 4.82422 9.9707 5.36133 9.9707C5.89844 9.9707 6.35742 9.52148 6.35742 8.98438C6.35742 8.44727 5.89844 7.98828 5.36133 7.98828ZM8.99414 9.20898C8.44727 9.20898 7.99805 9.66797 7.99805 10.2051C7.99805 10.7422 8.44727 11.2012 8.99414 11.2012C9.53125 11.2012 9.98047 10.7422 9.98047 10.2051C9.98047 9.66797 9.53125 9.20898 8.99414 9.20898ZM12.6172 7.98828C12.0801 7.98828 11.6309 8.44727 11.6309 8.98438C11.6309 9.52148 12.0801 9.9707 12.6172 9.9707C13.1543 9.9707 13.6133 9.52148 13.6133 8.98438C13.6133 8.44727 13.1543 7.98828 12.6172 7.98828Z" fill="white" fill-opacity="0.85"/>
 </g>
</svg>
