<?xml version="1.0" encoding="UTF-8"?>
<!--Generator: Apple Native CoreSVG 341-->
<!DOCTYPE svg
PUBLIC "-//W3C//DTD SVG 1.1//EN"
       "http://www.w3.org/Graphics/SVG/1.1/DTD/svg11.dtd">
<svg version="1.1" xmlns="http://www.w3.org/2000/svg" xmlns:xlink="http://www.w3.org/1999/xlink" viewBox="0 0 20.2832 19.9316">
 <g>
  <rect height="19.9316" opacity="0" width="20.2832" x="0" y="0"/>
  <path d="M19.9219 9.96094C19.9219 15.4492 15.459 19.9219 9.96094 19.9219C4.47266 19.9219 0 15.4492 0 9.96094C0 4.46289 4.47266 0 9.96094 0C15.459 0 19.9219 4.46289 19.9219 9.96094ZM8.75977 13.6328C8.44727 13.6328 8.29102 13.7891 8.29102 14.1016L8.29102 14.834C8.29102 15.7715 9.01367 16.5039 9.96094 16.5039C10.8984 16.5039 11.6309 15.7617 11.6309 14.834L11.6309 14.1016C11.6309 13.7891 11.4746 13.6328 11.1621 13.6328ZM3.96484 9.89258C3.96484 10.9375 4.80469 11.7969 5.85938 11.7969C6.91406 11.7969 7.76367 10.9375 7.76367 9.89258C7.76367 8.83789 6.91406 7.98828 5.85938 7.98828C4.80469 7.98828 3.96484 8.83789 3.96484 9.89258ZM12.1582 9.89258C12.1582 10.9375 13.0078 11.7969 14.0625 11.7969C15.1172 11.7969 15.957 10.9375 15.957 9.89258C15.957 8.83789 15.1172 7.98828 14.0625 7.98828C13.0078 7.98828 12.1582 8.83789 12.1582 9.89258Z" fill="white" fill-opacity="0.85"/>
 </g>
</svg>
