<?xml version="1.0" encoding="UTF-8"?>
<!--Generator: Apple Native CoreSVG 341-->
<!DOCTYPE svg
PUBLIC "-//W3C//DTD SVG 1.1//EN"
       "http://www.w3.org/Graphics/SVG/1.1/DTD/svg11.dtd">
<svg version="1.1" xmlns="http://www.w3.org/2000/svg" xmlns:xlink="http://www.w3.org/1999/xlink" viewBox="0 0 29.1113 18.916">
 <g>
  <rect height="18.916" opacity="0" width="29.1113" x="0" y="0"/>
  <path d="M8.91602 18.877L12.1582 18.877C12.9688 18.877 13.4863 18.3398 13.4863 17.666C13.4863 17.2949 13.3301 16.9141 12.9785 16.5332C12.5488 16.0645 12.2852 15.5176 12.2852 14.9512C12.2852 13.8184 13.0957 12.8906 14.375 12.8906C15.6543 12.8906 16.4648 13.8184 16.4648 14.9512C16.4648 15.5176 16.1914 16.0645 15.7617 16.5332C15.4199 16.9141 15.2637 17.2949 15.2637 17.666C15.2637 18.3398 15.7812 18.877 16.5918 18.877L19.8242 18.877C21.7871 18.877 22.8125 17.8711 22.8125 15.9375L22.8125 12.4902C22.8125 12.334 22.9199 12.2559 23.0957 12.3828C23.7207 12.8223 24.4336 13.1348 25.2441 13.1348C27.0898 13.1348 28.75 11.6504 28.75 9.47266C28.75 7.30469 27.0898 5.82031 25.2441 5.82031C24.4336 5.82031 23.7207 6.13281 23.0957 6.57227C22.9199 6.69922 22.8125 6.62109 22.8125 6.46484L22.8125 2.93945C22.8125 1.00586 21.7871 0 19.8242 0L16.5918 0C15.7812 0 15.2637 0.537109 15.2637 1.21094C15.2637 1.58203 15.4199 1.96289 15.7617 2.34375C16.1914 2.82227 16.4648 3.35938 16.4648 3.93555C16.4648 5.04883 15.6348 5.98633 14.375 5.98633C13.1152 5.98633 12.2852 5.04883 12.2852 3.93555C12.2852 3.35938 12.5488 2.82227 12.9785 2.34375C13.3301 1.96289 13.4863 1.58203 13.4863 1.21094C13.4863 0.537109 12.9688 0 12.1582 0L8.91602 0C6.96289 0 5.9375 1.00586 5.9375 2.93945L5.9375 6.46484C5.9375 6.62109 5.83008 6.69922 5.6543 6.57227C5.0293 6.13281 4.31641 5.82031 3.49609 5.82031C1.66016 5.82031 0 7.30469 0 9.47266C0 11.6504 1.66016 13.1348 3.49609 13.1348C4.31641 13.1348 5.0293 12.8223 5.6543 12.3828C5.83008 12.2559 5.9375 12.334 5.9375 12.4902L5.9375 15.9375C5.9375 17.8711 6.96289 18.877 8.91602 18.877ZM8.94531 17.3047C8.04688 17.3047 7.50977 16.7969 7.50977 15.8594L7.50977 11.6992C7.50977 10.8789 6.97266 10.3613 6.29883 10.3613C5.92773 10.3613 5.54688 10.5176 5.16602 10.8691C4.6875 11.2988 4.15039 11.5723 3.57422 11.5723C2.46094 11.5723 1.52344 10.7422 1.52344 9.47266C1.52344 8.21289 2.46094 7.38281 3.57422 7.38281C4.15039 7.38281 4.6875 7.65625 5.16602 8.08594C5.54688 8.4375 5.92773 8.59375 6.29883 8.59375C6.97266 8.59375 7.50977 8.07617 7.50977 7.25586L7.50977 3.01758C7.50977 2.08984 8.04688 1.57227 8.94531 1.57227L11.1914 1.57227C11.6504 1.57227 11.5039 1.80664 11.3867 1.99219C11.0059 2.58789 10.7227 3.24219 10.7227 4.01367C10.7227 5.84961 12.1973 7.50977 14.375 7.50977C16.5527 7.50977 18.0273 5.84961 18.0273 4.01367C18.0273 3.24219 17.7441 2.58789 17.3633 1.99219C17.2461 1.80664 17.0996 1.57227 17.5586 1.57227L19.8047 1.57227C20.7031 1.57227 21.2402 2.08984 21.2402 3.01758L21.2402 7.25586C21.2402 8.07617 21.7773 8.59375 22.4512 8.59375C22.8223 8.59375 23.2031 8.4375 23.584 8.08594C24.0527 7.65625 24.5996 7.38281 25.166 7.38281C26.2891 7.38281 27.2266 8.21289 27.2266 9.47266C27.2266 10.7422 26.2891 11.5723 25.166 11.5723C24.5996 11.5723 24.0527 11.2988 23.584 10.8691C23.2031 10.5176 22.8223 10.3613 22.4512 10.3613C21.7773 10.3613 21.2402 10.8789 21.2402 11.6992L21.2402 15.8594C21.2402 16.7969 20.7031 17.3047 19.8047 17.3047L17.5586 17.3047C17.0996 17.3047 17.2461 17.0703 17.3633 16.8848C17.7441 16.2891 18.0273 15.6348 18.0273 14.873C18.0273 13.0078 16.5723 11.3672 14.375 11.3672C12.1777 11.3672 10.7227 13.0078 10.7227 14.873C10.7227 15.6348 11.0059 16.2891 11.3867 16.8848C11.5039 17.0703 11.6504 17.3047 11.1914 17.3047Z" fill="white" fill-opacity="0.85"/>
 </g>
</svg>
