<?xml version="1.0" encoding="UTF-8"?>
<!--Generator: Apple Native CoreSVG 341-->
<!DOCTYPE svg
PUBLIC "-//W3C//DTD SVG 1.1//EN"
       "http://www.w3.org/Graphics/SVG/1.1/DTD/svg11.dtd">
<svg version="1.1" xmlns="http://www.w3.org/2000/svg" xmlns:xlink="http://www.w3.org/1999/xlink" viewBox="0 0 22.5124 22.1608">
 <g>
  <rect height="22.1608" opacity="0" width="22.5124" x="0" y="0"/>
  <path d="M1.09505 13.2337L8.91731 21.056C10.3626 22.5013 11.7884 22.5111 13.224 21.0853L21.0853 13.2142C22.5111 11.7884 22.5013 10.3529 21.056 8.90755L13.2435 1.09505C11.7982-0.350264 10.3724-0.369795 8.93685 1.06575L1.06575 8.92708C-0.369795 10.3626-0.350264 11.7884 1.09505 13.2337Z" fill="white" fill-opacity="0.2125"/>
  <path d="M10.8704 13.1654C10.3431 13.1654 10.0599 12.8919 10.0599 12.3646C10.0599 12.3255 10.0599 12.2767 10.0599 12.2376C10.0599 11.2415 10.6068 10.7142 11.3197 10.2064C12.2083 9.59114 12.6283 9.25911 12.6283 8.57552C12.6283 7.8138 12.0325 7.29622 11.1146 7.29622C10.4505 7.29622 9.93294 7.62825 9.57161 8.21419L9.39583 8.45833C9.21028 8.6927 8.98567 8.85872 8.64388 8.85872C8.30208 8.85872 7.94075 8.61458 7.94075 8.16536C7.94075 7.98958 7.97981 7.82356 8.03841 7.66731C8.31185 6.73958 9.44466 5.92903 11.1829 5.92903C12.9017 5.92903 14.3958 6.8177 14.3958 8.49739C14.3958 9.70833 13.6927 10.2943 12.7161 10.9388C12.013 11.3978 11.681 11.7591 11.681 12.3255C11.681 12.3548 11.681 12.4036 11.681 12.4427C11.681 12.8431 11.3783 13.1654 10.8704 13.1654ZM10.8411 16.1634C10.265 16.1634 9.75716 15.6947 9.75716 15.1185C9.75716 14.5423 10.2552 14.0638 10.8411 14.0638C11.4368 14.0638 11.9349 14.5325 11.9349 15.1185C11.9349 15.7044 11.4271 16.1634 10.8411 16.1634Z" fill="white" fill-opacity="0.85"/>
 </g>
</svg>
