<?xml version="1.0" encoding="UTF-8"?>
<!--Generator: Apple Native CoreSVG 341-->
<!DOCTYPE svg
PUBLIC "-//W3C//DTD SVG 1.1//EN"
       "http://www.w3.org/Graphics/SVG/1.1/DTD/svg11.dtd">
<svg version="1.1" xmlns="http://www.w3.org/2000/svg" xmlns:xlink="http://www.w3.org/1999/xlink" viewBox="0 0 22.7734 19.1113">
 <g>
  <rect height="19.1113" opacity="0" width="22.7734" x="0" y="0"/>
  <path d="M11.2109 16.1035C12.564 16.1035 13.8291 15.9753 14.9805 15.7264L14.9805 16.123C14.9805 17.998 13.5742 19.1113 11.2109 19.1113C8.83789 19.1113 7.43164 17.998 7.43164 16.123L7.43164 15.7253C8.58551 15.9749 9.85389 16.1035 11.2109 16.1035Z" fill="white" fill-opacity="0.85"/>
  <path d="M11.2109 14.9707C17.3047 14.9707 21.2793 12.2754 21.2793 8.37891C21.2793 4.49219 17.2949 1.79688 11.1914 1.79688C5.10742 1.79688 1.14258 4.49219 1.14258 8.37891C1.14258 12.2754 5.10742 14.9707 11.2109 14.9707ZM11.2109 13.291C6.24023 13.291 2.91016 11.2988 2.91016 8.37891C2.91016 5.45898 6.24023 3.47656 11.1914 3.47656C16.1621 3.47656 19.5117 5.45898 19.5117 8.37891C19.5117 11.2988 16.1719 13.291 11.2109 13.291Z" fill="white" fill-opacity="0.85"/>
  <path d="M9.58008 11.2988C9.95117 11.2988 10.1855 11.0449 10.1855 10.6445L10.1855 9.18945L11.1816 9.18945L12.2559 10.9375C12.4219 11.2109 12.5781 11.3086 12.8223 11.3086C13.125 11.3086 13.3789 11.0938 13.3789 10.7812C13.3789 10.625 13.3301 10.498 13.2422 10.3711L12.3633 8.99414C13.0762 8.71094 13.5059 8.05664 13.5059 7.28516C13.5059 6.11328 12.6562 5.36133 11.3672 5.36133L9.58008 5.36133C9.22852 5.36133 9.00391 5.61523 9.00391 6.02539L9.00391 10.6445C9.00391 11.0449 9.22852 11.2988 9.58008 11.2988ZM10.1855 8.26172L10.1855 6.31836L11.2402 6.31836C11.9238 6.31836 12.334 6.69922 12.334 7.30469C12.334 7.91016 11.9336 8.26172 11.2207 8.26172Z" fill="white" fill-opacity="0.85"/>
 </g>
</svg>
