<?xml version="1.0" encoding="UTF-8"?>
<!--Generator: Apple Native CoreSVG 341-->
<!DOCTYPE svg
PUBLIC "-//W3C//DTD SVG 1.1//EN"
       "http://www.w3.org/Graphics/SVG/1.1/DTD/svg11.dtd">
<svg version="1.1" xmlns="http://www.w3.org/2000/svg" xmlns:xlink="http://www.w3.org/1999/xlink" viewBox="0 0 22.8223 29.1455">
 <g>
  <rect height="29.1455" opacity="0" width="22.8223" x="0" y="0"/>
  <path d="M22.4609 14.5679C22.4609 19.4572 19.3284 23.618 14.9627 25.148C15.0999 24.5859 15.0021 24.0199 14.7187 23.5696C18.334 22.1835 20.8887 18.6849 20.8887 14.5679C20.8887 9.21631 16.5723 4.8999 11.2305 4.8999C5.87891 4.8999 1.57227 9.21631 1.57227 14.5679C1.57227 18.6795 4.11441 22.1743 7.72376 23.5644C7.43796 24.015 7.33724 24.5805 7.47055 25.1382C3.11507 23.5995 0 19.4406 0 14.5679C0 8.3667 5.0293 3.32764 11.2305 3.32764C17.4219 3.32764 22.4609 8.3667 22.4609 14.5679Z" fill="white" fill-opacity="0.85"/>
  <path d="M9.46289 23.9722C8.75977 23.9722 8.55469 24.6655 8.93555 25.1831L10.7031 27.5366C10.9766 27.8979 11.4746 27.9077 11.7578 27.5366L13.4961 25.1929C13.9062 24.6558 13.6621 23.9722 12.9785 23.9722Z" fill="white" fill-opacity="0.85"/>
  <path d="M11.2305 6.76514C6.92383 6.76514 3.4375 10.2612 3.4375 14.5679C3.4375 18.8843 6.92383 22.3608 11.2305 22.3608C15.5371 22.3608 19.0234 18.8843 19.0234 14.5679C19.0234 10.2612 15.5371 6.76514 11.2305 6.76514ZM11.2305 8.3374C14.6777 8.3374 17.4512 11.1108 17.4512 14.5679C17.4512 18.0151 14.6777 20.7886 11.2305 20.7886C7.77344 20.7886 5.00977 18.0151 5.00977 14.5679C5.00977 11.1108 7.77344 8.3374 11.2305 8.3374ZM9.21875 18.3081C9.69727 18.3081 9.99023 17.9956 9.99023 17.5073L9.99023 15.6128L11.2988 15.6128L12.6367 17.8394C12.8418 18.1714 13.0566 18.3081 13.3789 18.3081C13.7891 18.3081 14.0918 18.0347 14.0918 17.6636C14.0918 17.478 14.0234 17.312 13.916 17.1362L12.7832 15.3687C13.6816 15.0171 14.2773 14.1577 14.2773 13.1714C14.2773 11.6772 13.1934 10.6909 11.5137 10.6909L9.20898 10.6909C8.74023 10.6909 8.48633 11.0425 8.48633 11.521L8.48633 17.5073C8.48633 17.9858 8.75 18.3081 9.21875 18.3081ZM9.99023 14.4409L9.99023 11.8921L11.3574 11.8921C12.2363 11.8921 12.793 12.3608 12.793 13.2007C12.793 14.021 12.2559 14.4409 11.3281 14.4409Z" fill="white" fill-opacity="0.85"/>
 </g>
</svg>
