<svg version="1.1" xmlns="http://www.w3.org/2000/svg" xmlns:xlink="http://www.w3.org/1999/xlink" viewBox="0 0 29.3945 12.7441">
 <g>
  <rect height="12.7441" opacity="0" width="29.3945" x="0" y="0"/>
  <path d="M0 6.36719C0 9.88281 2.85156 12.7344 6.36719 12.7344L22.666 12.7344C26.1914 12.7344 29.0332 9.88281 29.0332 6.36719C29.0332 2.8418 26.1914 0 22.666 0C19.1504 0 16.2988 2.85156 16.2988 6.36719C16.2988 8.25195 17.1387 9.94141 18.4961 11.0645L10.5371 11.0645C11.8945 9.94141 12.7344 8.25195 12.7344 6.36719C12.7344 2.8418 9.88281 0 6.36719 0C2.8418 0 0 2.85156 0 6.36719ZM1.66992 6.35742C1.66992 3.76953 3.7793 1.66016 6.37695 1.66016C8.96484 1.66016 11.0645 3.76953 11.0645 6.35742C11.0645 8.95508 8.96484 11.0645 6.37695 11.0645C3.7793 11.0645 1.66992 8.95508 1.66992 6.35742ZM17.9688 6.35742C17.9688 3.76953 20.0684 1.66016 22.6562 1.66016C25.2539 1.66016 27.3633 3.76953 27.3633 6.35742C27.3633 8.95508 25.2539 11.0645 22.6562 11.0645C20.0684 11.0645 17.9688 8.95508 17.9688 6.35742Z" fill="var(--color-primary)"/>
 </g>
</svg>
