<?xml version="1.0" encoding="UTF-8"?>
<!--Generator: Apple Native CoreSVG 341-->
<!DOCTYPE svg
PUBLIC "-//W3C//DTD SVG 1.1//EN"
       "http://www.w3.org/Graphics/SVG/1.1/DTD/svg11.dtd">
<svg version="1.1" xmlns="http://www.w3.org/2000/svg" xmlns:xlink="http://www.w3.org/1999/xlink" viewBox="0 0 18.8379 24.7388">
 <g>
  <rect height="24.7388" opacity="0" width="18.8379" x="0" y="0"/>
  <path d="M3.06641 18.761L15.4102 18.761C17.4609 18.761 18.4766 17.7454 18.4766 15.7337L18.4766 9.00514C18.4766 6.99342 17.4609 5.97779 15.4102 5.97779L3.06641 5.97779C1.01562 5.97779 0 6.98365 0 9.00514L0 15.7337C0 17.7551 1.01562 18.761 3.06641 18.761ZM3.08594 17.1887C2.10938 17.1887 1.57227 16.6614 1.57227 15.6555L1.57227 9.08326C1.57227 8.06764 2.10938 7.55006 3.08594 7.55006L15.3906 7.55006C16.3574 7.55006 16.9043 8.06764 16.9043 9.08326L16.9043 15.6555C16.9043 16.6614 16.3574 17.1887 15.3906 17.1887Z" fill="white" fill-opacity="0.425"/>
  <path d="M7.06055 4.67897L11.416 4.67897C11.9336 4.67897 12.1777 4.25904 11.8945 3.80006L9.76562 0.333262C9.50195-0.106191 8.97461-0.115957 8.71094 0.333262L6.5918 3.79029C6.30859 4.24928 6.5332 4.67897 7.06055 4.67897ZM7.06055 20.0598C6.5332 20.0598 6.30859 20.4797 6.5918 20.9387L8.71094 24.4055C8.97461 24.8547 9.50195 24.845 9.76562 24.4055L11.8945 20.9387C12.1777 20.4797 11.9336 20.0598 11.416 20.0598Z" fill="white" fill-opacity="0.85"/>
 </g>
</svg>
