<?xml version="1.0" encoding="UTF-8"?>
<!--Generator: Apple Native CoreSVG 341-->
<!DOCTYPE svg
PUBLIC "-//W3C//DTD SVG 1.1//EN"
       "http://www.w3.org/Graphics/SVG/1.1/DTD/svg11.dtd">
<svg version="1.1" xmlns="http://www.w3.org/2000/svg" xmlns:xlink="http://www.w3.org/1999/xlink" viewBox="0 0 24.8242 18.9746">
 <g>
  <rect height="18.9746" opacity="0" width="24.8242" x="0" y="0"/>
  <path d="M8.91602 18.9746L15.5469 18.9746C17.5586 18.9746 18.5742 17.959 18.5742 15.9082L18.5742 3.06641C18.5742 1.01562 17.5586 0 15.5469 0L8.91602 0C6.89453 0 5.88867 1.01562 5.88867 3.06641L5.88867 15.9082C5.88867 17.959 6.9043 18.9746 8.91602 18.9746ZM8.99414 17.4023C7.97852 17.4023 7.46094 16.8457 7.46094 15.8887L7.46094 3.08594C7.46094 2.10938 7.97852 1.57227 8.99414 1.57227L15.459 1.57227C16.4746 1.57227 17.002 2.10938 17.002 3.08594L17.002 15.8887C17.002 16.8457 16.4746 17.4023 15.459 17.4023Z" fill="white" fill-opacity="0.85"/>
  <path d="M0 11.6602C0 12.1875 0.419922 12.4023 0.888672 12.1289L4.35547 10.0195C4.78516 9.73633 4.78516 9.23828 4.35547 8.96484L0.878906 6.83594C0.410156 6.5625 0 6.79688 0 7.31445ZM24.4629 11.6602L24.4629 7.31445C24.4629 6.79688 24.0332 6.55273 23.5742 6.83594L20.1074 8.96484C19.668 9.22852 19.6582 9.74609 20.1074 10.0195L23.5742 12.1289C24.0332 12.4121 24.4629 12.1875 24.4629 11.6602Z" fill="white" fill-opacity="0.85"/>
 </g>
</svg>
