<?xml version="1.0" encoding="UTF-8"?>
<!--Generator: Apple Native CoreSVG 341-->
<!DOCTYPE svg
PUBLIC "-//W3C//DTD SVG 1.1//EN"
       "http://www.w3.org/Graphics/SVG/1.1/DTD/svg11.dtd">
<svg version="1.1" xmlns="http://www.w3.org/2000/svg" xmlns:xlink="http://www.w3.org/1999/xlink" viewBox="0 0 23.0371 20.9473">
 <g>
  <rect height="20.9473" opacity="0" width="23.0371" x="0" y="0"/>
  <path d="M4.08203 20.9375L12.3438 20.9375C14.9707 20.9375 16.4258 19.4824 16.4258 16.8555L16.4258 4.0918C16.4258 1.46484 14.9707 0 12.3438 0L4.08203 0C1.46484 0 0 1.46484 0 4.0918L0 16.8555C0 19.4824 1.46484 20.9375 4.08203 20.9375ZM18.1152 7.1582C18.1152 6.74805 18.4082 6.45508 18.7988 6.45508C19.0137 6.45508 19.1699 6.5332 19.3164 6.67969L22.4219 9.90234C22.6172 10.0977 22.6758 10.2637 22.6758 10.4688C22.6758 10.6641 22.6172 10.8398 22.4219 11.0352L19.3164 14.248C19.1699 14.3945 19.0137 14.4824 18.7988 14.4824C18.4082 14.4824 18.1152 14.1699 18.1152 13.7695C18.1152 13.584 18.1934 13.3789 18.3496 13.2422L19.9609 11.7285L21.3086 10.4688L19.9609 9.19922L18.3496 7.69531C18.1934 7.55859 18.1152 7.34375 18.1152 7.1582ZM8.38867 10.4688C8.38867 10.0488 8.73047 9.6875 9.14062 9.6875L19.0723 9.6875L21.709 9.81445C22.0703 9.83398 22.3633 10.1074 22.3633 10.4688C22.3633 10.8301 22.0703 11.1035 21.709 11.123L19.0723 11.2402L9.14062 11.2402C8.73047 11.2402 8.38867 10.8887 8.38867 10.4688Z" fill="white" fill-opacity="0.85"/>
 </g>
</svg>
