<?xml version="1.0" encoding="UTF-8"?>
<!--Generator: Apple Native CoreSVG 341-->
<!DOCTYPE svg
PUBLIC "-//W3C//DTD SVG 1.1//EN"
       "http://www.w3.org/Graphics/SVG/1.1/DTD/svg11.dtd">
<svg version="1.1" xmlns="http://www.w3.org/2000/svg" xmlns:xlink="http://www.w3.org/1999/xlink" viewBox="0 0 20.2832 19.9316">
 <g>
  <rect height="19.9316" opacity="0" width="20.2832" x="0" y="0"/>
  <path d="M9.96094 19.9219C15.459 19.9219 19.9219 15.4492 19.9219 9.96094C19.9219 4.46289 15.459 0 9.96094 0C4.47266 0 0 4.46289 0 9.96094C0 15.4492 4.47266 19.9219 9.96094 19.9219Z" fill="white" fill-opacity="0.2125"/>
  <path d="M5.67383 5.00977L14.9121 14.2578C15.0879 14.4336 15.0879 14.7168 14.9121 14.9023C14.7363 15.0781 14.4336 15.0684 14.2676 14.9023L5.01953 5.6543C4.85352 5.48828 4.84375 5.19531 5.01953 5.00977C5.20508 4.83398 5.49805 4.83398 5.67383 5.00977ZM13.007 14.6484L7.68555 14.6484C6.75781 14.6484 6.29883 14.1895 6.29883 13.2715L6.29883 8.56445C6.29883 8.36014 6.32256 8.17805 6.3714 8.01983ZM15.791 8.56445L15.791 13.2715C15.791 13.5803 15.7402 13.8372 15.6361 14.0409C15.581 13.9371 15.5089 13.839 15.4199 13.75L8.86025 7.19727L14.4141 7.19727C15.3418 7.19727 15.791 7.66602 15.791 8.56445ZM4.51172 6.16211L5.87464 7.52359C5.72962 7.81335 5.6543 8.16313 5.6543 8.56445L5.6543 12.5586L5.46875 12.5586C4.54102 12.5586 4.0918 12.1094 4.0918 11.1816L4.0918 6.46484C4.0918 6.17099 4.13985 5.92415 4.23795 5.72594C4.29272 5.88767 4.38463 6.03779 4.51172 6.16211ZM13.584 6.46484L13.584 6.55273L8.21504 6.55273L6.7682 5.10742L12.207 5.10742C13.125 5.10742 13.584 5.56641 13.584 6.46484Z" fill="white" fill-opacity="0.85"/>
 </g>
</svg>
