<svg version="1.1" xmlns="http://www.w3.org/2000/svg" xmlns:xlink="http://www.w3.org/1999/xlink" viewBox="0 0 21.4648 24.3848">
 <g>
  <rect height="24.3848" opacity="0" width="21.4648" x="0" y="0"/>
  <path d="M2.76367 15.1953L18.3398 15.1953C19.9707 15.1953 21.1035 14.0918 21.1035 12.5879L21.1035 11.5918C21.1035 10.0879 19.9707 8.98438 18.3398 8.98438L2.76367 8.98438C1.13281 8.98438 0 10.0879 0 11.5918L0 12.5879C0 14.0918 1.13281 15.1953 2.76367 15.1953ZM2.96875 13.7207C2.08984 13.7207 1.55273 13.1348 1.55273 12.3438L1.55273 11.8359C1.55273 11.0449 2.08984 10.459 2.96875 10.459L18.1348 10.459C19.0137 10.459 19.5508 11.0449 19.5508 11.8359L19.5508 12.3438C19.5508 13.1348 19.0137 13.7207 18.1348 13.7207Z" fill="var(--color-secondary)"/>
  <path d="M10.5566 24.1797C10.9766 24.1797 11.3281 23.8379 11.3281 23.4277L11.3281 20.2051L11.2695 18.5645L12.1094 19.4434L13.3789 20.7129C13.5254 20.8594 13.7109 20.9473 13.9062 20.9473C14.3164 20.9473 14.6289 20.6641 14.6289 20.2539C14.6289 20.0293 14.5312 19.8633 14.3652 19.707L11.123 16.6797C10.918 16.4941 10.752 16.4258 10.5566 16.4258C10.3516 16.4258 10.1953 16.4941 9.98047 16.6797L6.73828 19.707C6.57227 19.8633 6.47461 20.0293 6.47461 20.2539C6.47461 20.6641 6.77734 20.9473 7.1875 20.9473C7.38281 20.9473 7.57812 20.8594 7.72461 20.7129L9.00391 19.4434L9.84375 18.5645L9.77539 20.2051L9.77539 23.4277C9.77539 23.8379 10.1367 24.1797 10.5566 24.1797ZM10.5566 7.76367C10.752 7.76367 10.918 7.68555 11.123 7.5L14.3652 4.47266C14.5312 4.32617 14.6289 4.15039 14.6289 3.92578C14.6289 3.52539 14.3164 3.23242 13.9062 3.23242C13.7109 3.23242 13.5254 3.32031 13.3789 3.4668L12.1094 4.73633L11.2695 5.61523L11.3281 3.97461L11.3281 0.751953C11.3281 0.341797 10.9766 0 10.5566 0C10.1367 0 9.77539 0.341797 9.77539 0.751953L9.77539 3.97461L9.84375 5.61523L9.00391 4.73633L7.72461 3.4668C7.57812 3.32031 7.38281 3.23242 7.1875 3.23242C6.77734 3.23242 6.47461 3.52539 6.47461 3.92578C6.47461 4.15039 6.57227 4.32617 6.73828 4.47266L9.98047 7.5C10.1953 7.68555 10.3516 7.76367 10.5566 7.76367Z" fill="var(--color-primary)"/>
 </g>
</svg>
