<?xml version="1.0" encoding="UTF-8"?>
<!--Generator: Apple Native CoreSVG 341-->
<!DOCTYPE svg
PUBLIC "-//W3C//DTD SVG 1.1//EN"
       "http://www.w3.org/Graphics/SVG/1.1/DTD/svg11.dtd">
<svg version="1.1" xmlns="http://www.w3.org/2000/svg" xmlns:xlink="http://www.w3.org/1999/xlink" viewBox="0 0 14.4238 22.1191">
 <g>
  <rect height="22.1191" opacity="0" width="14.4238" x="0" y="0"/>
  <path d="M2.25586 22.0996L11.7969 22.0996C13.1543 22.0996 14.0625 21.1719 14.0625 19.7656L14.0625 2.33398C14.0625 0.927734 13.1543 0 11.7969 0L2.25586 0C0.908203 0 0 0.927734 0 2.33398L0 19.7656C0 21.1719 0.908203 22.0996 2.25586 22.0996ZM2.33398 20.5273C1.875 20.5273 1.57227 20.2246 1.57227 19.7559L1.57227 2.35352C1.57227 1.88477 1.875 1.57227 2.33398 1.57227L11.7285 1.57227C12.1777 1.57227 12.4902 1.88477 12.4902 2.35352L12.4902 19.7559C12.4902 20.2246 12.1777 20.5273 11.7285 20.5273ZM3.38867 5.86914C3.68164 5.86914 3.87695 5.66406 3.87695 5.37109L3.87695 3.21289C3.87695 2.91992 3.68164 2.71484 3.38867 2.71484C3.0957 2.71484 2.89062 2.91992 2.89062 3.21289L2.89062 5.37109C2.89062 5.66406 3.0957 5.86914 3.38867 5.86914ZM1.16211 8.65234L12.9102 8.65234L12.9102 7.37305L1.16211 7.37305ZM3.38867 12.7344C3.68164 12.7344 3.87695 12.5391 3.87695 12.2461L3.87695 10.0781C3.87695 9.78516 3.68164 9.58984 3.38867 9.58984C3.0957 9.58984 2.89062 9.78516 2.89062 10.0781L2.89062 12.2461C2.89062 12.5391 3.0957 12.7344 3.38867 12.7344ZM1.16211 19.1016L12.9102 19.1016L12.9102 17.8223L1.16211 17.8223Z" fill="white" fill-opacity="0.85"/>
 </g>
</svg>
