<?xml version="1.0" encoding="UTF-8"?>
<!--Generator: Apple Native CoreSVG 341-->
<!DOCTYPE svg
PUBLIC "-//W3C//DTD SVG 1.1//EN"
       "http://www.w3.org/Graphics/SVG/1.1/DTD/svg11.dtd">
<svg version="1.1" xmlns="http://www.w3.org/2000/svg" xmlns:xlink="http://www.w3.org/1999/xlink" viewBox="0 0 20.2832 19.9316">
 <g>
  <rect height="19.9316" opacity="0" width="20.2832" x="0" y="0"/>
  <path d="M9.96094 19.9219C15.459 19.9219 19.9219 15.4492 19.9219 9.96094C19.9219 4.46289 15.459 0 9.96094 0C4.47266 0 0 4.46289 0 9.96094C0 15.4492 4.47266 19.9219 9.96094 19.9219Z" fill="white" fill-opacity="0.2125"/>
  <path d="M8.87695 5.43945L8.87695 9.13086C8.87695 9.42383 9.0625 9.59961 9.36523 9.59961C9.50195 9.59961 9.62891 9.55078 9.73633 9.47266L11.9336 7.64648C12.1973 7.43164 12.1973 7.11914 11.9336 6.91406L9.73633 5.08789C9.62891 5 9.50195 4.96094 9.36523 4.96094C9.0625 4.96094 8.87695 5.14648 8.87695 5.43945ZM8.84766 15.0684L8.84766 11.377C8.84766 11.084 8.66211 10.9082 8.35938 10.9082C8.22266 10.9082 8.0957 10.9473 7.98828 11.0352L5.78125 12.8613C5.52734 13.0566 5.53711 13.3887 5.79102 13.5938L7.98828 15.4102C8.0957 15.498 8.22266 15.5371 8.35938 15.5371C8.67188 15.5371 8.84766 15.3613 8.84766 15.0684ZM14.9023 8.88672C15.2832 8.88672 15.5273 8.63281 15.5273 8.24219L15.5273 5.77148C15.5273 5.3125 15.2246 5.01953 14.7852 5.01953C14.4824 5.01953 14.2676 5.09766 13.9746 5.33203L13.1934 5.91797C13.0469 6.03516 12.998 6.15234 12.998 6.31836C12.998 6.55273 13.1836 6.73828 13.4375 6.73828C13.5449 6.73828 13.6523 6.70898 13.75 6.63086L14.3457 6.15234L14.2578 6.15234L14.2578 8.24219C14.2578 8.63281 14.5117 8.88672 14.9023 8.88672ZM9.75586 7.87109C10.0781 7.87109 10.3516 7.60742 10.3516 7.26562C10.3516 6.93359 10.0781 6.66992 9.75586 6.66992L6.42578 6.66992C4.62891 6.66992 3.47656 7.70508 3.47656 9.3457L3.47656 9.94141C3.47656 10.2734 3.74023 10.5469 4.07227 10.5469C4.4043 10.5469 4.67773 10.2734 4.67773 9.94141L4.67773 9.43359C4.67773 8.50586 5.32227 7.87109 6.30859 7.87109ZM8.24219 12.6172C7.91016 12.6172 7.63672 12.8906 7.63672 13.2129C7.63672 13.5547 7.91016 13.8184 8.24219 13.8184L12.5488 13.8184C14.3555 13.8184 15.5078 12.7734 15.5078 11.1426L15.5078 10.5469C15.5078 10.2148 15.2344 9.95117 14.9023 9.95117C14.5703 9.95117 14.2969 10.2148 14.2969 10.5469L14.2969 11.0547C14.2969 11.9922 13.6523 12.6172 12.666 12.6172Z" fill="white" fill-opacity="0.85"/>
 </g>
</svg>
