<?xml version="1.0" encoding="UTF-8"?>
<!--Generator: Apple Native CoreSVG 341-->
<!DOCTYPE svg
PUBLIC "-//W3C//DTD SVG 1.1//EN"
       "http://www.w3.org/Graphics/SVG/1.1/DTD/svg11.dtd">
<svg version="1.1" xmlns="http://www.w3.org/2000/svg" xmlns:xlink="http://www.w3.org/1999/xlink" viewBox="0 0 28.2324 24.9854">
 <g>
  <rect height="24.9854" opacity="0" width="28.2324" x="0" y="0"/>
  <path d="M4.03284 5.2325C2.54868 7.2734 1.66992 9.77321 1.66992 12.4878C1.66992 15.1929 2.54883 17.7027 4.0332 19.7241C4.31641 20.1148 4.26758 20.5835 3.91602 20.8863C3.52539 21.1988 3.00781 21.1597 2.70508 20.7398C1.00586 18.4253 0 15.5835 0 12.4878C0 9.39211 1.00586 6.54055 2.70508 4.2261C2.75243 4.16194 2.80505 4.10662 2.86208 4.0612ZM25.166 4.2261C26.875 6.54055 27.8711 9.39211 27.8711 12.4878C27.8711 15.5835 26.875 18.4253 25.166 20.7398C25.1266 20.7945 25.0835 20.8427 25.0374 20.8842L23.8541 19.7003C25.3387 17.6835 26.2012 15.1826 26.2012 12.4878C26.2012 9.77297 25.332 7.27297 23.8379 5.23196C23.5645 4.86086 23.5938 4.38235 23.9551 4.07961C24.3457 3.76711 24.8633 3.81594 25.166 4.2261Z" fill="white" fill-opacity="0.85"/>
  <path d="M7.21738 8.41851C6.4893 9.60208 6.07422 10.9967 6.07422 12.4878C6.07422 16.8238 9.59961 20.3491 13.9355 20.3491C15.4254 20.3491 16.8189 19.9348 18.0018 19.2079L19.209 20.4156C17.7001 21.4232 15.8862 22.0093 13.9355 22.0093C8.68164 22.0093 4.41406 17.7417 4.41406 12.4878C4.41406 10.5348 5.00159 8.72022 6.01118 7.21175ZM23.4668 12.4878C23.4668 14.4255 22.8863 16.229 21.8862 17.7316L20.6791 16.5239C21.3977 15.3474 21.8066 13.9646 21.8066 12.4878C21.8066 8.14211 18.2812 4.61672 13.9355 4.61672C12.46 4.61672 11.0784 5.02498 9.90261 5.74241L8.6998 4.53904C10.2006 3.54348 12.0012 2.96633 13.9355 2.96633C19.1992 2.96633 23.4668 7.22414 23.4668 12.4878Z" fill="white" fill-opacity="0.85"/>
  <path d="M9.64262 10.8449C9.103 11.1239 8.7793 11.7116 8.7793 12.4878C8.7793 13.5913 9.43359 14.3042 10.4297 14.3042C10.9766 14.3042 11.4551 14.0503 12.0801 13.4644L12.1736 13.377L12.9932 14.197L12.8809 14.3042C12.0703 15.0757 11.3184 15.4566 10.4297 15.4566C8.75 15.4566 7.62695 14.2652 7.62695 12.4878C7.62695 11.382 8.06172 10.5029 8.79521 9.99706ZM20.2832 12.4878C20.2832 13.5859 19.8508 14.4604 19.1232 14.9672L18.2718 14.1155C18.8071 13.8344 19.1309 13.2516 19.1309 12.4878C19.1309 11.3843 18.4668 10.6616 17.4707 10.6616C16.9434 10.6616 16.4648 10.9058 15.8301 11.5113L15.7463 11.5888L14.9226 10.7648L15.0195 10.6714C15.8496 9.87063 16.5918 9.51907 17.4707 9.51907C19.1504 9.51907 20.2832 10.7105 20.2832 12.4878Z" fill="white" fill-opacity="0.85"/>
  <path d="M24.0332 23.6206C24.3262 23.9136 24.8145 23.9136 25.0977 23.6206C25.3906 23.3277 25.3906 22.8491 25.0977 22.5562L3.95508 1.4136C3.66211 1.12063 3.18359 1.11086 2.88086 1.4136C2.59766 1.6968 2.59766 2.18508 2.88086 2.47805Z" fill="white" fill-opacity="0.85"/>
 </g>
</svg>
