<svg version="1.1" xmlns="http://www.w3.org/2000/svg" xmlns:xlink="http://www.w3.org/1999/xlink" viewBox="0 0 22.3535 13.0957">
 <g>
  <rect height="13.0957" opacity="0" width="22.3535" x="0" y="0"/>
  <path d="M10.9961 7.92969C16.1328 7.92969 21.8457 6.08398 21.8457 3.90625C21.8457 1.74805 16.9922 0 10.9961 0C5 0 0.146484 1.74805 0.146484 3.90625C0.146484 6.08398 5.86914 7.92969 10.9961 7.92969ZM3.97461 12.793C4.21875 12.8809 4.375 12.7539 4.375 12.5098L4.375 11.582C4.375 11.1816 4.70703 10.957 5.08789 11.0645C7.08984 11.6309 9.41406 11.8066 11.0645 11.8066C12.7344 11.8066 15.0488 11.6309 17.0508 11.0645C17.4316 10.957 17.7637 11.1816 17.7637 11.582L17.7637 12.4609C17.7637 12.7148 17.9199 12.832 18.1641 12.7441C20.498 11.9336 21.9922 10.6738 21.9922 9.0918L21.9922 5.88867C20.4883 7.61719 15.9766 9.0625 10.9961 9.0625C6.11328 9.0625 1.50391 7.61719 0 5.88867L0 9.0918C0 10.7129 1.55273 11.9824 3.97461 12.793ZM10.9961 4.05273C9.02344 4.05273 7.91992 3.53516 7.91992 2.76367C7.91992 2.01172 8.99414 1.46484 10.9961 1.46484C13.0078 1.46484 14.082 2.01172 14.082 2.76367C14.082 3.53516 12.9785 4.05273 10.9961 4.05273ZM10.9961 3.27148C12.2461 3.27148 12.8906 3.04688 12.8906 2.76367C12.8906 2.48047 12.2852 2.22656 10.9961 2.22656C9.70703 2.22656 9.0918 2.48047 9.0918 2.76367C9.0918 3.04688 9.74609 3.27148 10.9961 3.27148ZM7.55859 6.13281C6.99219 6.13281 6.52344 5.9082 6.52344 5.63477C6.52344 5.35156 6.99219 5.12695 7.55859 5.12695C8.125 5.12695 8.59375 5.35156 8.59375 5.63477C8.59375 5.9082 8.125 6.13281 7.55859 6.13281ZM10.9961 6.5332C10.4395 6.5332 9.9707 6.30859 9.9707 6.02539C9.9707 5.75195 10.4395 5.50781 10.9961 5.50781C11.5625 5.50781 12.0312 5.75195 12.0312 6.02539C12.0312 6.30859 11.5625 6.5332 10.9961 6.5332ZM14.4434 6.13281C13.877 6.13281 13.4082 5.9082 13.4082 5.63477C13.4082 5.35156 13.877 5.12695 14.4434 5.12695C15.0098 5.12695 15.4785 5.35156 15.4785 5.63477C15.4785 5.9082 15.0098 6.13281 14.4434 6.13281Z" fill="var(--color-primary)"/>
 </g>
</svg>
