<svg version="1.1" xmlns="http://www.w3.org/2000/svg" xmlns:xlink="http://www.w3.org/1999/xlink" viewBox="0 0 21.0645 19.9512">
 <g>
  <rect height="19.9512" opacity="0" width="21.0645" x="0" y="0"/>
  <path d="M3.34961 5.70312L19.2383 5.70312C19.6484 5.70312 19.9414 5.41016 19.9414 5L19.9414 3.32031C19.9414 2.91992 19.6484 2.61719 19.2383 2.61719L3.34961 2.61719C2.93945 2.61719 2.63672 2.91992 2.63672 3.32031L2.63672 5C2.63672 5.41016 2.93945 5.70312 3.34961 5.70312ZM4.28711 9.92188L18.291 9.92188C18.7012 9.92188 19.0039 9.61914 19.0039 9.21875L19.0039 7.03125L3.58398 7.03125L3.58398 9.21875C3.58398 9.61914 3.87695 9.92188 4.28711 9.92188Z" fill="var(--color-primary)"/>
  <path d="M0 0.78125C0 1.21094 0.361328 1.57227 0.791016 1.57227L19.9414 1.57227C20.3711 1.57227 20.7324 1.21094 20.7324 0.78125C20.7324 0.351562 20.3711 0 19.9414 0L0.791016 0C0.361328 0 0 0.351562 0 0.78125ZM0.791016 3.83789C1.15234 3.83789 1.45508 3.53516 1.45508 3.17383C1.45508 2.80273 1.15234 2.50977 0.791016 2.50977C0.419922 2.50977 0.117188 2.80273 0.117188 3.17383C0.117188 3.53516 0.419922 3.83789 0.791016 3.83789ZM0.791016 6.10352C1.15234 6.10352 1.45508 5.79102 1.45508 5.42969C1.45508 5.06836 1.15234 4.76562 0.791016 4.76562C0.419922 4.76562 0.117188 5.06836 0.117188 5.42969C0.117188 5.79102 0.419922 6.10352 0.791016 6.10352ZM0.791016 8.35938C1.15234 8.35938 1.45508 8.05664 1.45508 7.69531C1.45508 7.32422 1.15234 7.03125 0.791016 7.03125C0.419922 7.03125 0.117188 7.32422 0.117188 7.69531C0.117188 8.05664 0.419922 8.35938 0.791016 8.35938ZM0.791016 10.625C1.15234 10.625 1.45508 10.3125 1.45508 9.95117C1.45508 9.58984 1.15234 9.28711 0.791016 9.28711C0.419922 9.28711 0.117188 9.58984 0.117188 9.95117C0.117188 10.3125 0.419922 10.625 0.791016 10.625ZM0.791016 12.8809C1.15234 12.8809 1.45508 12.5781 1.45508 12.2168C1.45508 11.8457 1.15234 11.5527 0.791016 11.5527C0.419922 11.5527 0.117188 11.8457 0.117188 12.2168C0.117188 12.5781 0.419922 12.8809 0.791016 12.8809ZM0.791016 15.1465C1.15234 15.1465 1.45508 14.834 1.45508 14.4727C1.45508 14.1113 1.15234 13.8086 0.791016 13.8086C0.419922 13.8086 0.117188 14.1113 0.117188 14.4727C0.117188 14.834 0.419922 15.1465 0.791016 15.1465ZM0.791016 19.9414C1.21094 19.9414 1.57227 19.5898 1.57227 19.1602L1.57227 16.8555C1.57227 16.4258 1.2207 16.0742 0.791016 16.0742C0.361328 16.0742 0 16.4258 0 16.8555L0 19.1602C0 19.5898 0.361328 19.9414 0.791016 19.9414Z" fill="var(--color-secondary)"/>
 </g>
</svg>
