<?xml version="1.0" encoding="UTF-8"?>
<!--Generator: Apple Native CoreSVG 341-->
<!DOCTYPE svg
PUBLIC "-//W3C//DTD SVG 1.1//EN"
       "http://www.w3.org/Graphics/SVG/1.1/DTD/svg11.dtd">
<svg version="1.1" xmlns="http://www.w3.org/2000/svg" xmlns:xlink="http://www.w3.org/1999/xlink" viewBox="0 0 15.8887 21.8262">
 <g>
  <rect height="21.8262" opacity="0" width="15.8887" x="0" y="0"/>
  <path d="M0 7.80273C0 10.0977 1.01562 12.1777 2.61719 13.6035L2.62695 20.9863C2.62695 21.5625 2.92969 21.8066 3.33008 21.8066C3.67188 21.8066 3.92578 21.6113 4.18945 21.3477L7.36328 18.1934C7.53906 18.0273 7.65625 17.9688 7.77344 17.9688C7.89062 17.9688 8.01758 18.0273 8.18359 18.1934L11.3574 21.3477C11.6309 21.6211 11.8945 21.8066 12.2168 21.8066C12.6367 21.8066 12.9297 21.5625 12.9297 20.9863L12.9297 13.5742C14.5117 12.1582 15.5176 10.0879 15.5273 7.80273C15.5371 3.50586 12.0215 0 7.76367 0C3.49609 0 0 3.50586 0 7.80273ZM1.5918 7.80273C1.5918 4.32617 4.29688 1.55273 7.77344 1.55273C11.2402 1.55273 13.9453 4.32617 13.9551 7.80273C13.9648 11.2598 11.2402 14.043 7.77344 14.0332C4.29688 14.0234 1.5918 11.2598 1.5918 7.80273Z" fill="white" fill-opacity="0.85"/>
 </g>
</svg>
