<?xml version="1.0" encoding="UTF-8"?>
<!--Generator: Apple Native CoreSVG 341-->
<!DOCTYPE svg
PUBLIC "-//W3C//DTD SVG 1.1//EN"
       "http://www.w3.org/Graphics/SVG/1.1/DTD/svg11.dtd">
<svg version="1.1" xmlns="http://www.w3.org/2000/svg" xmlns:xlink="http://www.w3.org/1999/xlink" viewBox="0 0 22.168 20.8496">
 <g>
  <rect height="20.8496" opacity="0" width="22.168" x="0" y="0"/>
  <path d="M1.29883 19.707L20.5078 19.707L20.5078 18.5547C20.5078 18.1641 20.2832 17.9297 19.8828 17.9297L19.2578 17.9297L19.2578 6.69922L20.1172 6.69922C20.6543 6.69922 20.9668 6.30859 20.9668 5.9082C20.9668 5.61523 20.8008 5.36133 20.4395 5.15625L12.0996 0.341797C11.709 0.117188 11.2988 0 10.8984 0C10.498 0 10.0781 0.117188 9.70703 0.341797L1.36719 5.15625C0.996094 5.36133 0.839844 5.61523 0.839844 5.9082C0.839844 6.30859 1.15234 6.69922 1.68945 6.69922L2.54883 6.69922L2.54883 17.9297L1.93359 17.9297C1.5332 17.9297 1.29883 18.1641 1.29883 18.5547ZM0.78125 20.8398L21.0156 20.8398C21.4453 20.8398 21.8066 20.4785 21.8066 20.0488C21.8066 19.6191 21.4453 19.2676 21.0156 19.2676L0.78125 19.2676C0.351562 19.2676 0 19.6191 0 20.0488C0 20.4785 0.351562 20.8398 0.78125 20.8398Z" fill="white" fill-opacity="0.2125"/>
  <path d="M9.18945 15.7812C8.81836 15.7812 8.60352 15.5566 8.60352 15.1758L8.60352 14.1992L7.55859 14.1992C7.35352 14.1992 7.2168 14.0625 7.2168 13.8477C7.2168 13.6523 7.35352 13.5156 7.55859 13.5156L8.60352 13.5156L8.60352 12.2168L7.55859 12.2168C7.35352 12.2168 7.2168 12.0898 7.2168 11.8848C7.2168 11.6699 7.35352 11.543 7.55859 11.543L8.60352 11.543L8.60352 7.25586C8.60352 6.89453 8.84766 6.63086 9.19922 6.63086L11.6016 6.63086C13.4375 6.63086 14.5215 7.87109 14.5215 9.43359C14.5215 10.957 13.4668 12.2168 11.582 12.2168L9.78516 12.2168L9.78516 13.5156L12.1973 13.5156C12.3926 13.5156 12.5195 13.6523 12.5195 13.8477C12.5195 14.0625 12.3926 14.1992 12.1973 14.1992L9.78516 14.1992L9.78516 15.1758C9.78516 15.5566 9.56055 15.7812 9.18945 15.7812ZM9.78516 11.2402L11.2988 11.2402C12.5293 11.2402 13.3008 10.6055 13.3008 9.43359C13.3008 8.44727 12.7344 7.65625 11.2988 7.65625L9.78516 7.65625Z" fill="white" fill-opacity="0.85"/>
 </g>
</svg>
