<?xml version="1.0" encoding="UTF-8"?>
<!--Generator: Apple Native CoreSVG 341-->
<!DOCTYPE svg
PUBLIC "-//W3C//DTD SVG 1.1//EN"
       "http://www.w3.org/Graphics/SVG/1.1/DTD/svg11.dtd">
<svg version="1.1" xmlns="http://www.w3.org/2000/svg" xmlns:xlink="http://www.w3.org/1999/xlink" viewBox="0 0 18.3398 17.9785">
 <g>
  <rect height="17.9785" opacity="0" width="18.3398" x="0" y="0"/>
  <path d="M3.06641 17.9785L14.9121 17.9785C16.9629 17.9785 17.9785 16.9727 17.9785 14.9609L17.9785 3.02734C17.9785 1.01562 16.9629 0 14.9121 0L3.06641 0C1.02539 0 0 1.01562 0 3.02734L0 14.9609C0 16.9727 1.02539 17.9785 3.06641 17.9785ZM3.08594 16.4062C2.10938 16.4062 1.57227 15.8887 1.57227 14.873L1.57227 3.11523C1.57227 2.09961 2.10938 1.57227 3.08594 1.57227L14.8926 1.57227C15.8594 1.57227 16.4062 2.09961 16.4062 3.11523L16.4062 14.873C16.4062 15.8887 15.8594 16.4062 14.8926 16.4062Z" fill="white" fill-opacity="0.425"/>
  <path d="M5.20508 12.9688C5.55664 12.9688 5.76172 12.7441 5.76172 12.3926L5.76172 9.74609L6.96289 9.74609L8.1543 12.5684C8.27148 12.832 8.42773 12.9688 8.71094 12.9688C9.02344 12.9688 9.26758 12.7637 9.26758 12.4512C9.26758 12.3145 9.20898 12.1973 9.14062 12.041L8.03711 9.51172C8.88672 9.14062 9.28711 8.29102 9.28711 7.37305C9.28711 6.06445 8.53516 5.03906 6.91406 5.03906L5.19531 5.03906C4.86328 5.03906 4.64844 5.26367 4.64844 5.60547L4.64844 12.3926C4.64844 12.7441 4.85352 12.9688 5.20508 12.9688ZM5.76172 8.85742L5.76172 5.9668L6.80664 5.9668C7.68555 5.9668 8.17383 6.52344 8.17383 7.39258C8.17383 8.28125 7.71484 8.85742 6.81641 8.85742ZM12.1582 12.9785C13.291 12.9785 14.248 12.3438 14.248 11.1816C14.248 10.2344 13.6914 9.83398 12.7539 9.58008L11.9727 9.36523C11.5234 9.24805 11.1719 9.01367 11.1719 8.55469C11.1719 8.01758 11.5918 7.68555 12.1289 7.68555C12.6953 7.68555 13.0469 7.99805 13.252 8.45703C13.3203 8.59375 13.4668 8.69141 13.6328 8.69141C13.9355 8.69141 14.0527 8.50586 14.0527 8.30078C14.0527 8.23242 14.0332 8.125 14.0039 8.03711C13.7988 7.34375 13.0469 6.875 12.1582 6.875C10.9277 6.875 10.1172 7.55859 10.1172 8.60352C10.1172 9.51172 10.7227 10 11.5918 10.2246L12.3828 10.4297C12.8711 10.5566 13.1836 10.8008 13.1836 11.2891C13.1836 11.8164 12.793 12.168 12.207 12.168C11.5625 12.168 11.2305 11.9531 10.918 11.3867C10.8008 11.1719 10.625 11.084 10.459 11.084C10.2051 11.084 10.0195 11.2598 10.0195 11.5137C10.0195 11.582 10.0488 11.6699 10.0684 11.7676C10.332 12.5977 11.2695 12.9785 12.1582 12.9785Z" fill="white" fill-opacity="0.85"/>
 </g>
</svg>
