<?xml version="1.0" encoding="UTF-8"?>
<!--Generator: Apple Native CoreSVG 341-->
<!DOCTYPE svg
PUBLIC "-//W3C//DTD SVG 1.1//EN"
       "http://www.w3.org/Graphics/SVG/1.1/DTD/svg11.dtd">
<svg version="1.1" xmlns="http://www.w3.org/2000/svg" xmlns:xlink="http://www.w3.org/1999/xlink" viewBox="0 0 18.3398 17.9785">
 <g>
  <rect height="17.9785" opacity="0" width="18.3398" x="0" y="0"/>
  <path d="M3.06641 17.9785L14.9121 17.9785C16.9629 17.9785 17.9785 16.9727 17.9785 14.9609L17.9785 3.02734C17.9785 1.01562 16.9629 0 14.9121 0L3.06641 0C1.02539 0 0 1.01562 0 3.02734L0 14.9609C0 16.9727 1.02539 17.9785 3.06641 17.9785Z" fill="white" fill-opacity="0.2125"/>
  <path d="M8.89648 13.7109C7.06055 13.7109 5.83984 12.8223 5.47852 11.8652C5.40039 11.6797 5.36133 11.5137 5.36133 11.3574C5.36133 10.918 5.6543 10.6348 6.09375 10.6348C6.45508 10.6348 6.66992 10.8105 6.85547 11.1816C7.20703 11.9824 7.93945 12.3926 8.99414 12.3926C10.0977 12.3926 10.9473 11.9043 10.9473 11.0156C10.9473 10.3125 10.5371 10.0098 9.3457 9.67773L7.88086 9.25781C6.31836 8.82812 5.49805 8.10547 5.49805 6.83594C5.49805 5.22461 6.93359 4.08203 9.00391 4.08203C10.7031 4.08203 11.9141 4.86328 12.2949 5.9375C12.3633 6.11328 12.3926 6.28906 12.3926 6.41602C12.3926 6.88477 12.0898 7.11914 11.6797 7.11914C11.2891 7.11914 11.0742 6.93359 10.9375 6.60156C10.5859 5.76172 9.95117 5.36133 8.93555 5.36133C7.87109 5.36133 7.17773 5.89844 7.17773 6.73828C7.17773 7.35352 7.57812 7.72461 8.54492 7.97852L9.89258 8.33984C11.6602 8.80859 12.6367 9.55078 12.6367 10.8789C12.6367 12.6172 11.1523 13.7109 8.89648 13.7109Z" fill="white" fill-opacity="0.85"/>
 </g>
</svg>
