<?xml version="1.0" encoding="UTF-8"?>
<!--Generator: Apple Native CoreSVG 341-->
<!DOCTYPE svg
PUBLIC "-//W3C//DTD SVG 1.1//EN"
       "http://www.w3.org/Graphics/SVG/1.1/DTD/svg11.dtd">
<svg version="1.1" xmlns="http://www.w3.org/2000/svg" xmlns:xlink="http://www.w3.org/1999/xlink" viewBox="0 0 25.4004 19.6191">
 <g>
  <rect height="19.6191" opacity="0" width="25.4004" x="0" y="0"/>
  <path d="M3.62305 19.6191C5.61523 19.6191 7.23633 17.998 7.23633 16.0059C7.23633 14.0039 5.61523 12.3828 3.62305 12.3828C1.62109 12.3828 0 14.0039 0 16.0059C0 17.998 1.62109 19.6191 3.62305 19.6191ZM3.62305 18.3008C2.34375 18.3008 1.31836 17.2754 1.31836 16.0059C1.31836 14.7266 2.34375 13.7012 3.62305 13.7012C4.89258 13.7012 5.91797 14.7266 5.91797 16.0059C5.9082 17.2852 4.89258 18.291 3.62305 18.3008ZM3.62305 17.0312C4.18945 17.0312 4.64844 16.5723 4.64844 16.0059C4.64844 15.4395 4.19922 14.9707 3.62305 14.9707C3.03711 14.9707 2.59766 15.4297 2.58789 16.0059C2.57812 16.5723 3.02734 17.0312 3.62305 17.0312ZM21.416 19.6191C23.418 19.6191 25.0391 17.998 25.0391 16.0059C25.0391 14.0039 23.418 12.3828 21.416 12.3828C19.4238 12.3828 17.793 14.0039 17.793 16.0059C17.793 17.998 19.4238 19.6191 21.416 19.6191ZM21.416 18.3008C20.1465 18.3008 19.1113 17.2754 19.1113 16.0059C19.1113 14.7266 20.1465 13.7012 21.416 13.7012C22.6953 13.7012 23.7207 14.7266 23.7207 16.0059C23.7207 17.2754 22.6953 18.3008 21.416 18.3008ZM21.416 17.0312C21.9824 17.0312 22.4512 16.5723 22.4512 16.0059C22.4512 15.4395 21.9922 14.9707 21.416 14.9707C20.8398 14.9707 20.3906 15.4297 20.3809 16.0059C20.3711 16.5723 20.8301 17.0312 21.416 17.0312ZM3.91602 16.7383L14.1602 16.7383C14.5703 16.7383 14.8242 16.6211 15.1855 16.2305L20.0098 10.9375L19.5312 9.12109L14.1699 15.1465C14.082 15.2441 14.0332 15.2637 13.9258 15.2637L3.91602 15.2637ZM13.6621 0.761719C13.6621 1.17188 13.9941 1.49414 14.4043 1.49414L16.9336 1.49414C17.0215 1.49414 17.0605 1.52344 17.0801 1.5918L20.6348 16.2695L22.041 15.9082L18.2422 0.654297C18.1348 0.234375 17.8125 0.0195312 17.207 0.0195312L14.4043 0.0195312C13.9941 0.0195312 13.6621 0.351562 13.6621 0.761719Z" fill="white" fill-opacity="0.85"/>
 </g>
</svg>
