<?xml version="1.0" encoding="UTF-8"?>
<!--Generator: Apple Native CoreSVG 341-->
<!DOCTYPE svg
PUBLIC "-//W3C//DTD SVG 1.1//EN"
       "http://www.w3.org/Graphics/SVG/1.1/DTD/svg11.dtd">
<svg version="1.1" xmlns="http://www.w3.org/2000/svg" xmlns:xlink="http://www.w3.org/1999/xlink" viewBox="0 0 26.8262 22.3926">
 <g>
  <rect height="22.3926" opacity="0" width="26.8262" x="0" y="0"/>
  <path d="M19.6484 3.93555C21.0449 3.93555 21.7676 1.57227 21.7676 0.908203C21.7676 0.3125 21.4551 0 20.8398 0L18.4668 0C17.8516 0 17.5293 0.3125 17.5293 0.908203C17.5293 1.57227 18.252 3.93555 19.6484 3.93555ZM1.73828 22.168L3.73047 22.168C4.85352 22.168 5.49805 21.4551 5.49805 20.6152C5.49805 19.7363 5.03906 19.3652 4.10156 19.2676C3.66211 19.2188 3.67188 18.6914 4.04297 18.6426C6.42578 18.2617 7.87109 17.0215 8.1543 14.8926C9.60938 15.9277 12.0605 16.084 14.5215 15.7715C14.5117 17.1973 14.2969 19.1602 14.2969 20.1758C14.2969 21.3672 15.0586 22.168 16.2207 22.168L17.8613 22.168C18.9746 22.168 19.6191 21.4551 19.6191 20.6445C19.6191 19.7949 19.2188 19.4238 18.1543 19.2676C17.9297 19.2285 17.8125 19.082 17.8613 18.8574C18.0469 17.8516 18.6133 15.7617 18.9355 14.8047C19.6094 12.8027 20.5566 11.5137 20.5566 9.44336C20.5566 8.47656 20.8203 7.90039 21.0449 7.64648C21.8164 8.11523 22.3828 8.34961 23.1348 8.34961C24.8047 8.34961 26.4648 6.65039 26.4648 4.87305C26.4648 3.93555 25.6836 3.89648 24.6973 3.27148C23.8379 2.70508 23.3496 1.97266 22.5879 1.5625C22.3242 2.83203 21.3574 4.82422 19.6484 4.82422C18.6035 4.82422 17.8418 4.07227 17.3535 3.21289C16.8262 3.95508 16.5527 4.62891 15.6543 5.16602L15.459 5.20508L15.459 9.87305C15.459 11.2305 14.6094 11.8457 13.2422 11.8457L9.28711 11.8457C7.91992 11.8457 7.07031 11.2305 7.07031 9.87305L7.07031 6.42578L5.83984 6.52344C5.625 6.5332 5.43945 6.60156 5.3125 6.65039L4.58008 5.77148C3.38867 4.35547 1.5332 6.02539 2.71484 7.38281L3.52539 8.32031C3.125 9.26758 2.91016 10.4102 2.91016 11.8359C2.91016 13.9941 2.74414 14.5898 2.09961 15.1172C0.566406 16.3281 0 17.1289 0 18.4863L0 20.3418C0 21.416 0.722656 22.168 1.73828 22.168ZM23.0859 4.98047C22.7246 4.98047 22.4609 4.70703 22.4609 4.36523C22.4609 4.01367 22.7246 3.75977 23.0859 3.75977C23.4277 3.75977 23.6914 4.01367 23.6914 4.36523C23.6914 4.70703 23.4277 4.98047 23.0859 4.98047ZM9.28711 10.5957L13.2422 10.5957C13.8379 10.5957 14.1895 10.3223 14.1895 9.72656L14.1895 5.81055C14.0723 5.86914 13.9551 5.89844 13.8281 5.9082L8.33008 6.32812L8.33008 9.72656C8.33008 10.3223 8.69141 10.5957 9.28711 10.5957Z" fill="white" fill-opacity="0.85"/>
 </g>
</svg>
