<?xml version="1.0" encoding="UTF-8"?>
<!--Generator: Apple Native CoreSVG 341-->
<!DOCTYPE svg
PUBLIC "-//W3C//DTD SVG 1.1//EN"
       "http://www.w3.org/Graphics/SVG/1.1/DTD/svg11.dtd">
<svg version="1.1" xmlns="http://www.w3.org/2000/svg" xmlns:xlink="http://www.w3.org/1999/xlink" viewBox="0 0 22.168 20.8496">
 <g>
  <rect height="20.8496" opacity="0" width="22.168" x="0" y="0"/>
  <path d="M12.0996 0.341797L20.4395 5.15625C20.8008 5.36133 20.9668 5.61523 20.9668 5.9082C20.9668 6.30859 20.6543 6.69922 20.1172 6.69922L19.2578 6.69922L19.2578 17.9297L19.8828 17.9297C20.2832 17.9297 20.5078 18.1641 20.5078 18.5547L20.5078 19.2676L21.0156 19.2676C21.4453 19.2676 21.8066 19.6191 21.8066 20.0488C21.8066 20.4785 21.4453 20.8398 21.0156 20.8398L0.78125 20.8398C0.351562 20.8398 0 20.4785 0 20.0488C0 19.6191 0.351562 19.2676 0.78125 19.2676L1.29883 19.2676L1.29883 18.5547C1.29883 18.1641 1.5332 17.9297 1.93359 17.9297L2.54883 17.9297L2.54883 6.69922L1.68945 6.69922C1.15234 6.69922 0.839844 6.30859 0.839844 5.9082C0.839844 5.61523 0.996094 5.36133 1.36719 5.15625L9.70703 0.341797C10.0781 0.117188 10.498 0 10.8984 0C11.2988 0 11.709 0.117188 12.0996 0.341797ZM7.44141 6.72852C6.96289 6.72852 6.66992 7.01172 6.66992 7.5L6.66992 15.1367C6.66992 15.4688 6.875 15.6641 7.1875 15.6641C7.49023 15.6641 7.68555 15.4688 7.68555 15.1367L7.68555 7.83203L9.92188 7.83203C11.0645 7.83203 11.6504 8.13477 11.6504 9.44336L11.6504 12.4707C11.6504 12.793 11.8359 13.0078 12.1484 13.0078C12.4609 13.0078 12.6562 12.793 12.6562 12.4707L12.6562 9.22852C12.6562 7.57812 11.9238 6.72852 10.2539 6.72852ZM14.1211 7.1875L14.1211 12.8516C14.1211 14.1504 13.8379 14.4727 12.5391 14.4727L10.1758 14.4727L10.1758 9.83398C10.1758 9.50195 9.98047 9.29688 9.67773 9.29688C9.36523 9.29688 9.16016 9.50195 9.16016 9.83398L9.16016 14.8438C9.16016 15.3223 9.46289 15.5762 9.90234 15.5762L12.8223 15.5762C14.5703 15.5762 15.1465 14.6387 15.1465 12.9004L15.1465 7.1875C15.1465 6.83594 14.9512 6.63086 14.6387 6.63086C14.3262 6.63086 14.1211 6.83594 14.1211 7.1875Z" fill="white" fill-opacity="0.85"/>
 </g>
</svg>
