<?xml version="1.0" encoding="UTF-8"?>
<!--Generator: Apple Native CoreSVG 341-->
<!DOCTYPE svg
PUBLIC "-//W3C//DTD SVG 1.1//EN"
       "http://www.w3.org/Graphics/SVG/1.1/DTD/svg11.dtd">
<svg version="1.1" xmlns="http://www.w3.org/2000/svg" xmlns:xlink="http://www.w3.org/1999/xlink" viewBox="0 0 29.9902 13.877">
 <g>
  <rect height="13.877" opacity="0" width="29.9902" x="0" y="0"/>
  <path d="M2.5293 10.8496L19.5312 10.8496C21.9727 10.8496 23.0859 10.5566 24.4824 9.81445L27.334 8.31055C28.9355 7.45117 29.3652 6.33789 28.6328 5.55664C28.0762 4.90234 27.1094 4.32617 25.791 4.32617C24.7266 4.32617 22.334 4.70703 21.4355 4.70703C20.8105 4.70703 20.5273 4.6875 20.0586 4.47266L18.4082 6.71875C18.2129 6.97266 17.8613 7.02148 17.6074 6.79688C17.373 6.61133 17.3438 6.28906 17.5391 6.01562L19.0527 3.92578L17.832 3.21289L16.1328 5.5957C15.9277 5.87891 15.5859 5.89844 15.3223 5.66406C15.0781 5.48828 15.0391 5.16602 15.2441 4.88281L16.8652 2.64648L15.6445 1.93359L13.8184 4.47266C13.6328 4.7168 13.2617 4.73633 13.0273 4.55078C12.7832 4.36523 12.7637 3.99414 12.9395 3.75977L14.668 1.35742L14.1797 1.07422C12.3047 0 10.5859 0.136719 9.16016 1.99219C8.03711 3.42773 6.88477 4.04297 5.69336 4.04297C4.63867 4.04297 3.91602 3.87695 3.13477 3.51562C1.63086 2.86133 0 3.53516 0 5.32227L0 9.69727C0 9.77539 0 9.85352 0.00976562 9.92188C0.625 10.625 1.28906 10.8496 2.5293 10.8496ZM27.8516 9.31641L25.0195 10.8008C23.4082 11.6602 22.0801 11.9824 19.5312 11.9824L2.5293 11.9824C1.63086 11.9824 0.9375 11.8457 0.185547 11.2891C0.732422 13.2812 2.32422 13.877 3.85742 13.877L19.3945 13.877C22.5293 13.877 24.3457 13.3984 26.7969 12.041C28.7305 10.957 29.6289 9.61914 29.6289 8.07617C29.6289 7.87109 29.6094 7.67578 29.5898 7.49023C29.4043 8.23242 28.9648 8.7207 27.8516 9.31641Z" fill="white" fill-opacity="0.85"/>
 </g>
</svg>
