<svg version="1.1" xmlns="http://www.w3.org/2000/svg" xmlns:xlink="http://www.w3.org/1999/xlink" viewBox="0 0 23.8086 13.4082">
 <g>
  <rect height="13.4082" opacity="0" width="23.8086" x="0" y="0"/>
  <path d="M21.6992 1.38672C22.0801 1.38672 22.3926 1.07422 22.3926 0.693359C22.3926 0.3125 22.0801 0 21.6992 0C21.3184 0 21.0059 0.3125 21.0059 0.693359C21.0059 1.07422 21.3184 1.38672 21.6992 1.38672ZM22.7539 7.38281C23.1348 7.38281 23.4473 7.07031 23.4473 6.68945C23.4473 6.30859 23.1348 5.99609 22.7539 5.99609C22.373 5.99609 22.0605 6.30859 22.0605 6.68945C22.0605 7.07031 22.373 7.38281 22.7539 7.38281ZM21.709 13.3789C22.0898 13.3789 22.4023 13.0664 22.4023 12.6758C22.4023 12.2949 22.0898 11.9824 21.709 11.9824C21.3281 11.9824 21.0156 12.2949 21.0156 12.6758C21.0156 13.0664 21.3281 13.3789 21.709 13.3789Z" fill="var(--color-secondary)"/>
  <path d="M19.3359 2.62695C19.7168 2.62695 20.0293 2.31445 20.0293 1.93359C20.0293 1.54297 19.7168 1.24023 19.3359 1.24023C18.9551 1.24023 18.6426 1.54297 18.6426 1.93359C18.6426 2.31445 18.9551 2.62695 19.3359 2.62695ZM19.8438 7.38281C20.2246 7.38281 20.5371 7.07031 20.5371 6.68945C20.5371 6.30859 20.2246 5.99609 19.8438 5.99609C19.4629 5.99609 19.1504 6.30859 19.1504 6.68945C19.1504 7.07031 19.4629 7.38281 19.8438 7.38281ZM19.3457 12.1387C19.7266 12.1387 20.0391 11.8262 20.0391 11.4453C20.0391 11.0645 19.7266 10.752 19.3457 10.752C18.9648 10.752 18.6523 11.0645 18.6523 11.4453C18.6523 11.8262 18.9648 12.1387 19.3457 12.1387Z" fill="var(--color-secondary)"/>
  <path d="M16.9629 3.86719C17.3535 3.86719 17.6562 3.55469 17.6562 3.17383C17.6562 2.79297 17.3535 2.48047 16.9629 2.48047C16.582 2.48047 16.2695 2.79297 16.2695 3.17383C16.2695 3.55469 16.582 3.86719 16.9629 3.86719ZM16.9238 7.38281C17.3145 7.38281 17.6172 7.07031 17.6172 6.68945C17.6172 6.30859 17.3145 5.99609 16.9238 5.99609C16.543 5.99609 16.2305 6.30859 16.2305 6.68945C16.2305 7.07031 16.543 7.38281 16.9238 7.38281ZM16.9727 10.8984C17.3633 10.8984 17.666 10.5859 17.666 10.2051C17.666 9.82422 17.3633 9.51172 16.9727 9.51172C16.5918 9.51172 16.2793 9.82422 16.2793 10.2051C16.2793 10.5859 16.5918 10.8984 16.9727 10.8984Z" fill="var(--color-secondary)"/>
  <path d="M1.80664 10.8203C3.31055 10.8203 4.15039 9.86328 4.15039 8.16406L4.15039 5.23438C4.15039 3.53516 3.31055 2.57812 1.80664 2.57812L0.908203 2.57812C0.332031 2.57812 0 2.91016 0 3.48633L0 9.91211C0 10.4883 0.332031 10.8203 0.908203 10.8203ZM1.80664 9.59961L1.38672 9.59961C1.28906 9.59961 1.2207 9.53125 1.2207 9.42383L1.2207 3.97461C1.2207 3.86719 1.28906 3.79883 1.38672 3.79883L1.80664 3.79883C2.5293 3.79883 2.92969 4.31641 2.92969 5.23438L2.92969 8.16406C2.92969 9.08203 2.5293 9.59961 1.80664 9.59961ZM11.6504 12.6953C12.5195 12.6953 13.0762 12.1387 13.0762 11.2695L13.0762 2.12891C13.0762 1.25977 12.5195 0.703125 11.6504 0.703125L9.49219 0.703125C6.96289 0.703125 5.38086 2.29492 5.38086 4.82422L5.38086 8.58398C5.38086 11.1133 6.96289 12.6953 9.49219 12.6953ZM11.3867 11.3184L9.49219 11.3184C7.8125 11.3184 6.75781 10.2539 6.75781 8.58398L6.75781 4.82422C6.75781 3.14453 7.8125 2.08984 9.49219 2.08984L11.3867 2.08984C11.5723 2.08984 11.6992 2.20703 11.6992 2.39258L11.6992 11.0156C11.6992 11.1914 11.5723 11.3184 11.3867 11.3184ZM15.0195 8.88672L15.0195 4.52148C15.0195 3.19336 14.2871 2.38281 13.125 2.38281L12.627 2.38281L12.627 11.0156L13.125 11.0156C14.2871 11.0156 15.0195 10.1953 15.0195 8.88672ZM6.24023 8.91602L6.24023 7.53906L3.61328 7.53906L3.61328 8.91602ZM6.24023 5.76172L6.24023 4.38477L3.61328 4.38477L3.61328 5.76172Z" fill="var(--color-primary)"/>
 </g>
</svg>
