<?xml version="1.0" encoding="UTF-8"?>
<!--Generator: Apple Native CoreSVG 341-->
<!DOCTYPE svg
PUBLIC "-//W3C//DTD SVG 1.1//EN"
       "http://www.w3.org/Graphics/SVG/1.1/DTD/svg11.dtd">
<svg version="1.1" xmlns="http://www.w3.org/2000/svg" xmlns:xlink="http://www.w3.org/1999/xlink" viewBox="0 0 23.3887 17.9785">
 <g>
  <rect height="17.9785" opacity="0" width="23.3887" x="0" y="0"/>
  <path d="M7.44141 16.7188L8.97461 16.7188L8.97461 1.28906L7.44141 1.28906ZM4.12109 17.9785L19.1504 17.9785C21.6113 17.9785 23.0273 16.4941 23.0273 13.8574L23.0273 4.13086C23.0273 1.49414 21.6113 0 19.1504 0L4.12109 0C1.49414 0 0 1.49414 0 4.13086L0 13.8574C0 16.4941 1.49414 17.9785 4.12109 17.9785ZM4.13086 16.4062C2.50977 16.4062 1.57227 15.4785 1.57227 13.8574L1.57227 4.13086C1.57227 2.50977 2.50977 1.57227 4.13086 1.57227L18.8965 1.57227C20.5176 1.57227 21.4551 2.50977 21.4551 4.13086L21.4551 13.8574C21.4551 15.4785 20.5176 16.4062 18.8965 16.4062ZM3.59375 6.25L5.43945 6.25C5.68359 6.25 5.87891 6.07422 5.87891 5.81055L5.87891 3.98438C5.87891 3.71094 5.69336 3.53516 5.43945 3.53516L3.59375 3.53516C3.32031 3.53516 3.13477 3.71094 3.13477 3.98438L3.13477 5.81055C3.13477 6.07422 3.33008 6.25 3.59375 6.25ZM3.59375 10.3516L5.43945 10.3516C5.68359 10.3516 5.87891 10.1562 5.87891 9.91211L5.87891 8.06641C5.87891 7.8125 5.69336 7.61719 5.43945 7.61719L3.59375 7.61719C3.32031 7.61719 3.13477 7.8125 3.13477 8.06641L3.13477 9.91211C3.13477 10.1562 3.33008 10.3516 3.59375 10.3516ZM3.59375 14.4336L5.43945 14.4336C5.68359 14.4336 5.87891 14.2578 5.87891 13.9941L5.87891 12.168C5.87891 11.9043 5.69336 11.7188 5.43945 11.7188L3.59375 11.7188C3.32031 11.7188 3.13477 11.9043 3.13477 12.168L3.13477 13.9941C3.13477 14.2578 3.33008 14.4336 3.59375 14.4336Z" fill="white" fill-opacity="0.85"/>
 </g>
</svg>
