<svg version="1.1" xmlns="http://www.w3.org/2000/svg" xmlns:xlink="http://www.w3.org/1999/xlink" viewBox="0 0 23.3887 17.9785">
 <g>
  <rect height="17.9785" opacity="0" width="23.3887" x="0" y="0"/>
  <path d="M14.082 16.7188L15.6152 16.7188L15.6152 1.28906L14.082 1.28906ZM4.12109 17.9785L19.1504 17.9785C21.6113 17.9785 23.0273 16.4941 23.0273 13.8574L23.0273 4.13086C23.0273 1.49414 21.6113 0 19.1504 0L4.12109 0C1.49414 0 0 1.49414 0 4.13086L0 13.8574C0 16.4941 1.49414 17.9785 4.12109 17.9785ZM4.13086 16.4062C2.50977 16.4062 1.57227 15.4785 1.57227 13.8574L1.57227 4.13086C1.57227 2.50977 2.50977 1.57227 4.13086 1.57227L18.8965 1.57227C20.5176 1.57227 21.4551 2.50977 21.4551 4.13086L21.4551 13.8574C21.4551 15.4785 20.5176 16.4062 18.8965 16.4062ZM19.4629 6.25C19.7266 6.25 19.9121 6.07422 19.9121 5.81055L19.9121 3.98438C19.9121 3.71094 19.7363 3.53516 19.4629 3.53516L17.6172 3.53516C17.3633 3.53516 17.1777 3.71094 17.1777 3.98438L17.1777 5.81055C17.1777 6.07422 17.373 6.25 17.6172 6.25ZM19.4629 10.3516C19.7266 10.3516 19.9121 10.1562 19.9121 9.91211L19.9121 8.06641C19.9121 7.8125 19.7363 7.61719 19.4629 7.61719L17.6172 7.61719C17.3633 7.61719 17.1777 7.8125 17.1777 8.06641L17.1777 9.91211C17.1777 10.1562 17.373 10.3516 17.6172 10.3516ZM19.4629 14.4336C19.7266 14.4336 19.9121 14.2578 19.9121 13.9941L19.9121 12.168C19.9121 11.9043 19.7363 11.7188 19.4629 11.7188L17.6172 11.7188C17.3633 11.7188 17.1777 11.9043 17.1777 12.168L17.1777 13.9941C17.1777 14.2578 17.373 14.4336 17.6172 14.4336Z" fill="var(--color-primary)"/>
 </g>
</svg>
