<svg version="1.1" xmlns="http://www.w3.org/2000/svg" xmlns:xlink="http://www.w3.org/1999/xlink" viewBox="0 0 20.2832 19.9316">
 <g>
  <rect height="19.9316" opacity="0" width="20.2832" x="0" y="0"/>
  <path d="M9.96094 19.9316C15.459 19.9316 19.9219 15.4688 19.9219 9.9707C19.9219 4.48242 15.459 0.00976562 9.96094 0.00976562C4.47266 0.00976562 0 4.48242 0 9.9707C0 15.4688 4.47266 19.9316 9.96094 19.9316Z" fill="var(--color-tertiary)"/>
  <path d="M6.34766 11.0645C5.66406 11.0645 5.2832 10.6934 5.2832 10.0293L5.2832 7.2168C5.2832 6.55273 5.66406 6.19141 6.34766 6.19141L9.375 6.19141L9.375 5.06836C9.375 4.74609 9.61914 4.49219 9.94141 4.49219C10.2441 4.49219 10.498 4.74609 10.498 5.06836L10.498 6.19141L12.9297 6.19141C13.3789 6.19141 13.5938 6.31836 13.8379 6.57227L15.1758 7.8418C15.7422 8.36914 15.7227 8.88672 15.1855 9.4043L13.8379 10.6836C13.5938 10.9277 13.3789 11.0645 12.9297 11.0645L10.498 11.0645L10.498 14.3164L11.875 14.3164C12.1875 14.3164 12.4414 14.5703 12.4414 14.8828C12.4414 15.1855 12.1875 15.4395 11.875 15.4395L7.99805 15.4395C7.68555 15.4395 7.43164 15.1855 7.43164 14.8828C7.43164 14.5703 7.68555 14.3164 7.99805 14.3164L9.375 14.3164L9.375 11.0645Z" fill="var(--color-primary)"/>
 </g>
</svg>
