<svg version="1.1" xmlns="http://www.w3.org/2000/svg" xmlns:xlink="http://www.w3.org/1999/xlink" viewBox="0 0 24.0651 19.9316">
 <g>
  <rect height="19.9316" opacity="0" width="24.0651" x="0" y="0"/>
  <path d="M0.694677 8.07617C-0.00844799 8.07617-0.184229 8.55469 0.19663 9.10156L2.38413 12.207C2.7064 12.6562 3.17515 12.6465 3.48765 12.207L5.66538 9.0918C6.04624 8.55469 5.86069 8.07617 5.1771 8.07617ZM21.8177 9.96094C21.8177 4.46289 17.3548 0 11.8568 0C6.35874 0 1.90561 4.45312 1.89585 9.9707C1.90561 10.4297 2.26694 10.791 2.71616 10.791C3.17515 10.791 3.55601 10.4199 3.55601 9.96094C3.55601 5.37109 7.26694 1.66016 11.8568 1.66016C16.4466 1.66016 20.1576 5.37109 20.1576 9.96094C20.1576 14.5508 16.4466 18.2617 11.8568 18.2617C9.07358 18.2617 6.62241 16.8945 5.13804 14.8242C4.8353 14.4238 4.37632 14.2969 3.96616 14.541C3.57554 14.7852 3.45835 15.3418 3.79038 15.7715C5.60679 18.291 8.50718 19.9219 11.8568 19.9219C17.3548 19.9219 21.8177 15.459 21.8177 9.96094Z" fill="var(--color-secondary)"/>
  <path d="M9.17124 13.9258C10.8021 13.9258 11.5638 12.9297 11.5638 11.6504C11.5638 10.3125 10.763 9.81445 9.71811 9.41406L9.15171 9.19922C8.45835 8.93555 7.97983 8.62305 7.97983 7.87109C7.97983 7.20703 8.38022 6.69922 9.12241 6.69922C9.77671 6.69922 10.2162 7.08008 10.3919 7.79297C10.4701 8.06641 10.6556 8.18359 10.9193 8.18359C11.2025 8.18359 11.388 7.97852 11.388 7.69531C11.388 7.61719 11.3685 7.50977 11.349 7.42188C11.1048 6.39648 10.2552 5.76172 9.13218 5.76172C7.6771 5.76172 6.88608 6.74805 6.88608 7.93945C6.88608 9.12109 7.57944 9.76562 8.69272 10.166L9.24936 10.3711C9.96226 10.625 10.4701 10.9961 10.4701 11.7578C10.4701 12.4414 10.0208 12.9883 9.19077 12.9883C8.45835 12.9883 7.97983 12.5879 7.81382 11.8555C7.73569 11.582 7.56968 11.4551 7.29624 11.4551C7.01304 11.4551 6.80796 11.6699 6.80796 11.9727C6.80796 12.0996 6.82749 12.2461 6.86655 12.3438C7.18882 13.3691 8.0189 13.9258 9.17124 13.9258ZM14.6498 13.6426C16.0072 13.6426 16.974 12.9004 16.974 11.6309C16.974 10.4688 16.2513 10 15.2845 9.55078L14.5716 9.20898C13.9466 8.91602 13.4486 8.55469 13.4486 7.94922C13.4486 7.26562 13.9564 6.93359 14.6302 6.93359C15.3919 6.93359 15.7044 7.42188 15.8314 8.05664C15.8802 8.29102 16.0365 8.44727 16.349 8.44727C16.6419 8.44727 16.8373 8.28125 16.8373 7.97852C16.8373 7.85156 16.8275 7.77344 16.808 7.68555C16.5443 6.51367 15.6654 6.05469 14.6302 6.05469C13.4095 6.05469 12.3939 6.72852 12.3939 8.00781C12.3939 9.10156 13.0384 9.61914 14.0443 10.0977L14.7474 10.4297C15.3724 10.7324 15.9095 11.0352 15.9095 11.7285C15.9095 12.3828 15.4505 12.7539 14.6595 12.7539C13.8197 12.7539 13.4486 12.3438 13.3314 11.5918C13.2826 11.3867 13.1166 11.1914 12.8236 11.1914C12.5306 11.1914 12.3158 11.3867 12.3158 11.6895C12.3158 11.7578 12.3255 11.8652 12.3548 11.9629C12.6087 13.1738 13.5755 13.6426 14.6498 13.6426ZM14.6302 14.6582C14.7865 14.6582 14.9037 14.5312 14.9037 14.3848L14.9037 5.32227C14.9037 5.17578 14.7865 5.04883 14.6302 5.04883C14.4837 5.04883 14.3568 5.17578 14.3568 5.32227L14.3568 14.3848C14.3568 14.5312 14.4837 14.6582 14.6302 14.6582Z" fill="var(--color-primary)"/>
 </g>
</svg>
