<?xml version="1.0" encoding="UTF-8"?>
<!--Generator: Apple Native CoreSVG 341-->
<!DOCTYPE svg
PUBLIC "-//W3C//DTD SVG 1.1//EN"
       "http://www.w3.org/Graphics/SVG/1.1/DTD/svg11.dtd">
<svg version="1.1" xmlns="http://www.w3.org/2000/svg" xmlns:xlink="http://www.w3.org/1999/xlink" viewBox="0 0 18.3398 17.9785">
 <g>
  <rect height="17.9785" opacity="0" width="18.3398" x="0" y="0"/>
  <path d="M17.9785 3.02734L17.9785 14.9609C17.9785 16.9727 16.9629 17.9785 14.9121 17.9785L3.06641 17.9785C1.02539 17.9785 0 16.9727 0 14.9609L0 3.02734C0 1.01562 1.02539 0 3.06641 0L14.9121 0C16.9629 0 17.9785 1.01562 17.9785 3.02734ZM11.5723 4.20898L11.5723 4.9707C10.4492 5.06836 9.55078 5.75195 9.55078 6.97266C9.55078 8.10547 10.2246 8.63281 11.25 9.13086L11.5723 9.28711L11.5723 11.8457C10.9277 11.7578 10.625 11.3477 10.5176 10.6738C10.4688 10.459 10.293 10.2539 9.99023 10.2539C9.6875 10.2539 9.46289 10.459 9.46289 10.7715C9.46289 10.8398 9.47266 10.957 9.50195 11.0547C9.74609 12.1777 10.5859 12.6855 11.5723 12.7734L11.5723 13.5449C11.5723 13.7012 11.6992 13.8281 11.8555 13.8281C12.0117 13.8281 12.1484 13.7012 12.1484 13.5449L12.1484 12.7734C13.3984 12.6758 14.2773 11.9336 14.2773 10.7031C14.2773 9.51172 13.5254 9.02344 12.5293 8.56445L12.1484 8.37891L12.1484 5.89844C12.7246 6.00586 12.9785 6.45508 13.0859 7.02148C13.1445 7.26562 13.3008 7.43164 13.623 7.43164C13.9258 7.43164 14.1309 7.25586 14.1309 6.94336C14.1309 6.81641 14.1211 6.72852 14.1016 6.64062C13.8477 5.53711 13.0859 5.05859 12.1484 4.98047L12.1484 4.20898C12.1484 4.05273 12.0117 3.92578 11.8555 3.92578C11.6992 3.92578 11.5723 4.05273 11.5723 4.20898ZM3.86719 6.9043C3.86719 8.125 4.58008 8.78906 5.72266 9.19922L6.29883 9.41406C7.03125 9.67773 7.55859 10.0586 7.55859 10.8398C7.55859 11.543 7.09961 12.1094 6.24023 12.1094C5.48828 12.1094 5 11.6895 4.82422 10.9375C4.74609 10.6543 4.57031 10.5273 4.28711 10.5273C3.99414 10.5273 3.7793 10.752 3.7793 11.0645C3.7793 11.1914 3.80859 11.3477 3.84766 11.4453C4.17969 12.5 5.0293 13.0762 6.2207 13.0762C7.91016 13.0762 8.69141 12.0508 8.69141 10.7324C8.69141 9.3457 7.86133 8.83789 6.78711 8.41797L6.21094 8.20312C5.48828 7.92969 5 7.60742 5 6.83594C5 6.15234 5.41016 5.625 6.17188 5.625C6.8457 5.625 7.30469 6.01562 7.49023 6.75781C7.55859 7.04102 7.75391 7.1582 8.02734 7.1582C8.32031 7.1582 8.50586 6.94336 8.50586 6.65039C8.50586 6.57227 8.49609 6.46484 8.4668 6.36719C8.22266 5.3125 7.34375 4.6582 6.18164 4.6582C4.67773 4.6582 3.86719 5.67383 3.86719 6.9043ZM13.1738 10.8105C13.1738 11.4062 12.8027 11.7773 12.1484 11.8457L12.1484 9.56055C12.7148 9.84375 13.1738 10.1562 13.1738 10.8105ZM11.5723 8.10547C11.0352 7.8125 10.6348 7.4707 10.6348 6.91406C10.6348 6.31836 11.0254 5.97656 11.5723 5.88867Z" fill="white" fill-opacity="0.85"/>
 </g>
</svg>
