<?xml version="1.0" encoding="UTF-8"?>
<!--Generator: Apple Native CoreSVG 341-->
<!DOCTYPE svg
PUBLIC "-//W3C//DTD SVG 1.1//EN"
       "http://www.w3.org/Graphics/SVG/1.1/DTD/svg11.dtd">
<svg version="1.1" xmlns="http://www.w3.org/2000/svg" xmlns:xlink="http://www.w3.org/1999/xlink" viewBox="0 0 18.3398 17.9785">
 <g>
  <rect height="17.9785" opacity="0" width="18.3398" x="0" y="0"/>
  <path d="M3.06641 17.9785L14.9121 17.9785C16.9629 17.9785 17.9785 16.9727 17.9785 14.9609L17.9785 3.02734C17.9785 1.01562 16.9629 0 14.9121 0L3.06641 0C1.02539 0 0 1.01562 0 3.02734L0 14.9609C0 16.9727 1.02539 17.9785 3.06641 17.9785ZM3.08594 16.4062C2.10938 16.4062 1.57227 15.8887 1.57227 14.873L1.57227 3.11523C1.57227 2.09961 2.10938 1.57227 3.08594 1.57227L14.8926 1.57227C15.8594 1.57227 16.4062 2.09961 16.4062 3.11523L16.4062 14.873C16.4062 15.8887 15.8594 16.4062 14.8926 16.4062Z" fill="white" fill-opacity="0.425"/>
  <path d="M4.33594 6.9043L9.22852 6.9043L9.22852 5.61523L4.33594 5.61523C3.96484 5.61523 3.68164 5.9082 3.68164 6.25977C3.68164 6.62109 3.96484 6.9043 4.33594 6.9043ZM10.5859 8.23242C11.6699 8.23242 12.5586 7.34375 12.5586 6.25C12.5586 5.16602 11.6699 4.27734 10.5859 4.27734C9.50195 4.27734 8.61328 5.16602 8.61328 6.25C8.61328 7.34375 9.50195 8.23242 10.5859 8.23242ZM10.5859 7.22656C10.0391 7.22656 9.61914 6.79688 9.61914 6.25C9.61914 5.69336 10.0391 5.2832 10.5859 5.2832C11.123 5.2832 11.5527 5.69336 11.5527 6.25C11.5527 6.79688 11.123 7.22656 10.5859 7.22656ZM11.875 6.9043L13.6816 6.9043C14.0137 6.9043 14.3066 6.62109 14.3066 6.25977C14.3066 5.9082 14.0137 5.61523 13.6816 5.61523L11.875 5.61523ZM13.6426 10.8789L8.75977 10.8789L8.75977 12.168L13.6426 12.168C14.0137 12.168 14.3066 11.875 14.3066 11.5234C14.3066 11.1621 14.0137 10.8789 13.6426 10.8789ZM7.39258 9.54102C6.30859 9.54102 5.41992 10.4297 5.41992 11.5332C5.41992 12.6172 6.30859 13.5059 7.39258 13.5059C8.47656 13.5059 9.36523 12.6172 9.36523 11.5332C9.36523 10.4297 8.47656 9.54102 7.39258 9.54102ZM7.39258 10.5566C7.93945 10.5566 8.35938 10.9863 8.35938 11.5332C8.35938 12.0801 7.93945 12.5 7.39258 12.5C6.85547 12.5 6.42578 12.0801 6.42578 11.5332C6.42578 10.9863 6.85547 10.5566 7.39258 10.5566ZM6.11328 10.8789L4.29688 10.8789C3.96484 10.8789 3.68164 11.1621 3.68164 11.5234C3.68164 11.875 3.96484 12.168 4.29688 12.168L6.11328 12.168Z" fill="white" fill-opacity="0.85"/>
 </g>
</svg>
