<?xml version="1.0" encoding="UTF-8"?>
<!--Generator: Apple Native CoreSVG 341-->
<!DOCTYPE svg
PUBLIC "-//W3C//DTD SVG 1.1//EN"
       "http://www.w3.org/Graphics/SVG/1.1/DTD/svg11.dtd">
<svg version="1.1" xmlns="http://www.w3.org/2000/svg" xmlns:xlink="http://www.w3.org/1999/xlink" viewBox="0 0 20.2832 19.9316">
 <g>
  <rect height="19.9316" opacity="0" width="20.2832" x="0" y="0"/>
  <path d="M19.9219 9.96094C19.9219 15.4492 15.459 19.9219 9.96094 19.9219C4.47266 19.9219 0 15.4492 0 9.96094C0 4.46289 4.47266 0 9.96094 0C15.459 0 19.9219 4.46289 19.9219 9.96094ZM9.4043 4.22852L9.4043 5.33398L8.55469 4.85352C8.27148 4.67773 7.96875 4.76562 7.8125 5.0293C7.65625 5.30273 7.74414 5.5957 8.02734 5.76172L9.4043 6.54167L9.4043 7.23633L9.53095 9.1994L7.89062 8.11523L7.29506 7.77043L7.30469 6.18164C7.29492 5.84961 7.08008 5.625 6.76758 5.63477C6.47461 5.625 6.25 5.84961 6.25977 6.17188L6.25384 7.16762L5.29297 6.61133C5.00977 6.44531 4.67773 6.5332 4.52148 6.80664C4.35547 7.08008 4.45312 7.42188 4.73633 7.57812L5.70419 8.13847L4.84375 8.65234C4.55078 8.79883 4.47266 9.10156 4.61914 9.35547C4.77539 9.62891 5.06836 9.70703 5.36133 9.54102L6.73744 8.73667L7.33398 9.08203L9.08905 9.95956L7.33398 10.8301L6.72066 11.1852L5.36133 10.3906C5.06836 10.2246 4.77539 10.3027 4.61914 10.5762C4.47266 10.8203 4.55078 11.123 4.84375 11.2793L5.6926 11.7804L4.73633 12.334C4.45312 12.5 4.35547 12.832 4.52148 13.1055C4.67773 13.3887 5.00977 13.4766 5.29297 13.3105L6.25382 12.7543L6.25977 13.7598C6.25 14.082 6.47461 14.3066 6.76758 14.2969C7.08008 14.3066 7.29492 14.082 7.30469 13.7402L7.295 12.1515L7.89062 11.8066L9.53111 10.72L9.4043 12.6855L9.4043 13.3802L8.02734 14.1602C7.74414 14.3262 7.65625 14.6191 7.8125 14.8926C7.96875 15.1562 8.27148 15.2344 8.55469 15.0684L9.4043 14.582L9.4043 15.6836C9.4043 16.0156 9.6582 16.2598 9.9707 16.2598C10.2832 16.2598 10.5273 16.0156 10.5273 15.6836L10.5273 14.5764L11.3867 15.0684C11.6699 15.2344 11.9727 15.1562 12.1289 14.8926C12.2754 14.6191 12.1875 14.3262 11.9043 14.1602L10.5273 13.3747L10.5273 12.6855L10.4077 10.7225L12.041 11.8066L12.6463 12.1571L12.6367 13.7305C12.6465 14.0723 12.8516 14.2969 13.1641 14.2871C13.4668 14.2969 13.6914 14.0723 13.6816 13.75L13.6875 12.7599L14.6387 13.3105C14.9219 13.4766 15.2637 13.3887 15.4297 13.1055C15.5859 12.832 15.4883 12.5 15.2051 12.334L14.2405 11.7755L15.0977 11.2695C15.3906 11.1133 15.4688 10.8105 15.3223 10.5664C15.166 10.293 14.8633 10.2148 14.5703 10.3809L13.2123 11.1803L12.6074 10.8301L10.8488 9.95781L12.6074 9.08203L13.2039 8.73669L14.5703 9.54102C14.8633 9.70703 15.166 9.62891 15.3223 9.35547C15.4688 9.10156 15.3906 8.79883 15.0977 8.65234L14.2372 8.13847L15.2051 7.57812C15.4883 7.42188 15.5859 7.08008 15.4199 6.80664C15.2637 6.5332 14.9219 6.44531 14.6387 6.61133L13.6875 7.16199L13.6816 6.17188C13.6914 5.84961 13.4668 5.625 13.1641 5.63477C12.8516 5.625 12.6465 5.84961 12.6367 6.18164L12.6463 7.7648L12.041 8.11523L10.4077 9.1994L10.5273 7.23633L10.5273 6.54716L11.9043 5.76172C12.1875 5.5957 12.2754 5.30273 12.1289 5.0293C11.9727 4.76562 11.6699 4.67773 11.3867 4.85352L10.5273 5.33951L10.5273 4.22852C10.5273 3.90625 10.2832 3.66211 9.9707 3.66211C9.6582 3.66211 9.4043 3.90625 9.4043 4.22852Z" fill="white" fill-opacity="0.85"/>
 </g>
</svg>
