<svg version="1.1" xmlns="http://www.w3.org/2000/svg" xmlns:xlink="http://www.w3.org/1999/xlink" viewBox="0 0 30.5664 17.1582">
 <g>
  <rect height="17.1582" opacity="0" width="30.5664" x="0" y="0"/>
  <path d="M2.97852 5.74219L4.62891 5.74219L4.62891 2.44141C4.62891 1.95312 4.95117 1.64062 5.41016 1.64062L13.4961 1.64062C13.9648 1.64062 14.2773 1.95312 14.2773 2.44141L14.2773 10.1953L15.9277 10.1953L15.9277 2.43164C15.9277 0.966797 14.9805 0 13.5742 0L5.3418 0C3.92578 0 2.97852 0.966797 2.97852 2.43164ZM27.4414 5.74219L27.4414 2.43164C27.4414 0.966797 26.4941 0 25.0781 0L16.6309 0C15.2246 0 14.2773 0.966797 14.2773 2.43164L14.2773 10.1953L15.9277 10.1953L15.9277 2.44141C15.9277 1.95312 16.2402 1.64062 16.709 1.64062L25.0098 1.64062C25.4688 1.64062 25.791 1.95312 25.791 2.44141L25.791 5.74219ZM0 12.8125C0 14.2188 0.927734 15.1465 2.31445 15.1465L27.8906 15.1465C29.2773 15.1465 30.2051 14.2188 30.2051 12.8125L30.2051 6.875C30.2051 5.47852 29.2773 4.54102 27.8906 4.54102L26.543 4.54102C25.166 4.54102 24.2383 5.47852 24.2383 6.875L24.2383 9.21875L5.97656 9.21875L5.97656 6.875C5.97656 5.47852 5.03906 4.54102 3.66211 4.54102L2.31445 4.54102C0.927734 4.54102 0 5.47852 0 6.875ZM1.66016 12.793L1.66016 6.89453C1.66016 6.46484 1.95312 6.18164 2.39258 6.18164L3.57422 6.18164C4.02344 6.18164 4.31641 6.46484 4.31641 6.89453L4.31641 10.8594L25.8887 10.8594L25.8887 6.89453C25.8887 6.46484 26.1914 6.18164 26.6309 6.18164L27.8125 6.18164C28.252 6.18164 28.5547 6.46484 28.5547 6.89453L28.5547 12.793C28.5547 13.2227 28.252 13.5059 27.8125 13.5059L2.39258 13.5059C1.95312 13.5059 1.66016 13.2227 1.66016 12.793ZM3.55469 17.1387L4.16016 17.1387C4.6875 17.1387 5.0293 16.8066 5.0293 16.2793L5.0293 14.209L2.68555 14.209L2.68555 16.2793C2.68555 16.8066 3.02734 17.1387 3.55469 17.1387ZM26.0449 17.1387L26.6504 17.1387C27.1777 17.1387 27.5195 16.8066 27.5195 16.2793L27.5195 14.209L25.1758 14.209L25.1758 16.2793C25.1758 16.8066 25.5273 17.1387 26.0449 17.1387Z" fill="var(--color-primary)"/>
 </g>
</svg>
