<?xml version="1.0" encoding="UTF-8"?>
<!--Generator: Apple Native CoreSVG 341-->
<!DOCTYPE svg
PUBLIC "-//W3C//DTD SVG 1.1//EN"
       "http://www.w3.org/Graphics/SVG/1.1/DTD/svg11.dtd">
<svg version="1.1" xmlns="http://www.w3.org/2000/svg" xmlns:xlink="http://www.w3.org/1999/xlink" viewBox="0 0 24.7754 19.541">
 <g>
  <rect height="19.541" opacity="0" width="24.7754" x="0" y="0"/>
  <path d="M2.50977 16.2207L21.9043 16.2207C23.4668 16.2207 24.4141 15.2637 24.4141 13.7109L24.4141 2.50977C24.4141 0.957031 23.4668 0 21.9043 0L2.50977 0C0.957031 0 0 0.957031 0 2.50977L0 13.7109C0 15.2637 0.957031 16.2207 2.50977 16.2207ZM2.53906 14.6484C1.93359 14.6484 1.57227 14.2871 1.57227 13.6914L1.57227 2.5293C1.57227 1.93359 1.93359 1.57227 2.53906 1.57227L21.875 1.57227C22.4805 1.57227 22.8418 1.93359 22.8418 2.5293L22.8418 13.6914C22.8418 14.2871 22.4805 14.6484 21.875 14.6484ZM7.29492 19.5312L17.1191 19.5312C17.5488 19.5312 17.9102 19.1797 17.9102 18.7402C17.9102 18.3008 17.5488 17.9492 17.1191 17.9492L7.29492 17.9492C6.86523 17.9492 6.50391 18.3008 6.50391 18.7402C6.50391 19.1797 6.86523 19.5312 7.29492 19.5312Z" fill="white" fill-opacity="0.425"/>
  <path d="M12.6855 12.0605C12.8711 12.0605 12.998 11.9238 13.0371 11.748C13.5742 8.86719 13.8379 8.33984 16.8262 7.92969C17.0215 7.91016 17.1484 7.77344 17.1484 7.58789C17.1484 7.40234 17.0215 7.25586 16.8262 7.22656C13.8477 6.81641 13.4668 6.25977 13.0371 3.4375C13.0078 3.24219 12.8711 3.11523 12.6855 3.11523C12.5 3.11523 12.3633 3.23242 12.3242 3.42773C11.7773 6.30859 11.5234 6.81641 8.53516 7.22656C8.33984 7.25586 8.21289 7.40234 8.21289 7.58789C8.21289 7.77344 8.33984 7.90039 8.53516 7.92969C11.5332 8.23242 11.9043 8.86719 12.3242 11.7383C12.3535 11.9238 12.4805 12.0605 12.6855 12.0605ZM8.83789 13.6523C8.97461 13.6523 9.08203 13.5645 9.11133 13.4277C9.38477 12.0117 9.28711 11.9434 10.8398 11.709C10.9766 11.6895 11.0645 11.5723 11.0645 11.4355C11.0645 11.3086 10.9766 11.1914 10.8398 11.1719C9.28711 10.918 9.38477 10.8496 9.11133 9.47266C9.08203 9.31641 8.98438 9.21875 8.83789 9.21875C8.70117 9.21875 8.61328 9.30664 8.57422 9.47266C8.29102 10.8496 8.4082 10.918 6.85547 11.1719C6.70898 11.1914 6.63086 11.3086 6.63086 11.4355C6.63086 11.5918 6.70898 11.6895 6.875 11.709C8.4082 11.9434 8.29102 12.0117 8.57422 13.3984C8.61328 13.5547 8.69141 13.6523 8.83789 13.6523Z" fill="white" fill-opacity="0.85"/>
 </g>
</svg>
