<?xml version="1.0" encoding="UTF-8"?>
<!--Generator: Apple Native CoreSVG 341-->
<!DOCTYPE svg
PUBLIC "-//W3C//DTD SVG 1.1//EN"
       "http://www.w3.org/Graphics/SVG/1.1/DTD/svg11.dtd">
<svg version="1.1" xmlns="http://www.w3.org/2000/svg" xmlns:xlink="http://www.w3.org/1999/xlink" viewBox="0 0 23.5742 22.1484">
 <g>
  <rect height="22.1484" opacity="0" width="23.5742" x="0" y="0"/>
  <path d="M9.86328 0.43457L13.4784 2.52182C13.435 2.54358 13.392 2.56733 13.3496 2.59277L11.9983 3.37299L9.35547 1.84082C9.02344 1.65527 8.67188 1.65527 8.34961 1.84082L1.97266 5.53223C1.65039 5.71777 1.47461 6.03027 1.47461 6.3916L1.47461 13.7549C1.47461 14.1064 1.65039 14.4385 1.97266 14.624L5.58914 16.7096C5.72697 17.2184 6.05934 17.6478 6.5332 17.9248L9.73692 19.7791C9.12199 20.0815 8.42575 20.059 7.83203 19.7119L1.01562 15.7666C0.371094 15.4053 0 14.7607 0 14.0088L0 6.1377C0 5.38574 0.371094 4.74121 1.01562 4.37012L7.83203 0.43457C8.4668 0.0537109 9.21875 0.0537109 9.86328 0.43457Z" fill="white" fill-opacity="0.425"/>
  <path d="M6.5332 17.9248L13.3496 21.8701C13.9844 22.2412 14.7363 22.2412 15.3809 21.8701L22.1973 17.9248C22.8223 17.5537 23.2129 16.9092 23.2129 16.167L23.2129 8.28613C23.2129 7.54395 22.832 6.89941 22.1973 6.52832L15.3809 2.59277C14.7363 2.21191 13.9844 2.21191 13.3496 2.59277L6.5332 6.52832C5.88867 6.89941 5.51758 7.54395 5.51758 8.28613L5.51758 16.167C5.51758 16.9092 5.89844 17.5537 6.5332 17.9248ZM6.99219 15.9131L6.99219 8.5498C6.99219 8.18848 7.16797 7.87598 7.49023 7.69043L13.8672 3.99902C14.1895 3.81348 14.541 3.81348 14.873 3.99902L21.2402 7.69043C21.5527 7.87598 21.7383 8.18848 21.7383 8.5498L21.7383 15.9131C21.7383 16.2549 21.5625 16.5869 21.2402 16.7725L14.873 20.4541C14.541 20.6396 14.1895 20.6396 13.8574 20.4541L7.49023 16.7725C7.1582 16.5869 6.99219 16.2549 6.99219 15.9131ZM6.26953 16.6162L14.3652 21.1377L22.4707 16.4209L22.4707 14.7998L19.5996 12.1045C19.209 11.7334 18.7207 11.5576 18.252 11.5576C17.7734 11.5576 17.3242 11.7236 16.9141 12.0947L12.959 15.6299L11.3574 14.1748C10.9863 13.833 10.5762 13.6475 10.1465 13.6475C9.73633 13.6475 9.36523 13.833 8.99414 14.165ZM11.5234 12.251C12.6758 12.251 13.6328 11.3037 13.6328 10.1514C13.6328 8.99902 12.6758 8.04199 11.5234 8.04199C10.3613 8.04199 9.42383 8.99902 9.42383 10.1514C9.42383 11.3037 10.3613 12.251 11.5234 12.251Z" fill="white" fill-opacity="0.85"/>
 </g>
</svg>
