<svg version="1.1" xmlns="http://www.w3.org/2000/svg" xmlns:xlink="http://www.w3.org/1999/xlink" viewBox="0 0 19.9609 21.9873">
 <g>
  <rect height="21.9873" opacity="0" width="19.9609" x="0" y="0"/>
  <path d="M0.859375 15.8618L9.80469 20.8521L18.7598 15.6274L18.7598 13.8599L15.5957 10.8813C15.166 10.481 14.6484 10.2759 14.1211 10.2759C13.584 10.2759 13.1055 10.4614 12.6562 10.8618L8.24219 14.8071L6.43555 13.1763C6.02539 12.8052 5.57617 12.6196 5.10742 12.6196C4.67773 12.6196 4.25781 12.7954 3.85742 13.1567ZM6.55273 11.0767C7.8125 11.0767 8.84766 10.0415 8.84766 8.77197C8.84766 7.51221 7.8125 6.46729 6.55273 6.46729C5.2832 6.46729 4.24805 7.51221 4.24805 8.77197C4.24805 10.0415 5.2832 11.0767 6.55273 11.0767ZM1.11328 17.2876L8.69141 21.6724C9.39453 22.0825 10.2051 22.0825 10.918 21.6724L18.4863 17.2876C19.1895 16.8872 19.5996 16.1743 19.5996 15.3638L19.5996 6.61377C19.5996 5.80322 19.1895 5.09033 18.4863 4.68018L10.918 0.314941C10.2051-0.10498 9.39453-0.10498 8.69141 0.314941L1.11328 4.68018C0.410156 5.09033 0 5.80322 0 6.61377L0 15.3638C0 16.1743 0.410156 16.8872 1.11328 17.2876ZM1.57227 15.0806L1.57227 6.89697C1.57227 6.48682 1.78711 6.12549 2.14844 5.91064L9.22852 1.81885C9.58984 1.604 10.0098 1.604 10.3711 1.81885L17.4609 5.91064C17.8223 6.12549 18.0273 6.48682 18.0273 6.89697L18.0273 15.0806C18.0273 15.4907 17.8223 15.8521 17.4609 16.0669L10.3809 20.1587C10.0098 20.3735 9.58984 20.3735 9.22852 20.1587L2.14844 16.0669C1.78711 15.8521 1.57227 15.4907 1.57227 15.0806Z" fill="var(--color-primary)"/>
 </g>
</svg>
