<?xml version="1.0" encoding="UTF-8"?>
<!--Generator: Apple Native CoreSVG 341-->
<!DOCTYPE svg
PUBLIC "-//W3C//DTD SVG 1.1//EN"
       "http://www.w3.org/Graphics/SVG/1.1/DTD/svg11.dtd">
<svg version="1.1" xmlns="http://www.w3.org/2000/svg" xmlns:xlink="http://www.w3.org/1999/xlink" viewBox="0 0 18.3398 17.9785">
 <g>
  <rect height="17.9785" opacity="0" width="18.3398" x="0" y="0"/>
  <path d="M3.06641 17.9785L14.9121 17.9785C16.9629 17.9785 17.9785 16.9727 17.9785 14.9609L17.9785 3.02734C17.9785 1.01562 16.9629 0 14.9121 0L3.06641 0C1.02539 0 0 1.01562 0 3.02734L0 14.9609C0 16.9727 1.02539 17.9785 3.06641 17.9785Z" fill="white" fill-opacity="0.2125"/>
  <path d="M3.0957 3.66211C3.0957 3.04688 3.47656 2.66602 4.10156 2.66602L6.54297 2.66602C7.16797 2.66602 7.54883 3.04688 7.54883 3.66211L7.54883 6.12305C7.54883 6.73828 7.16797 7.11914 6.54297 7.11914L4.10156 7.11914C3.47656 7.11914 3.0957 6.73828 3.0957 6.12305Z" fill="white" fill-opacity="0.85"/>
  <path d="M3.61328 11.6602C3.25195 11.6602 2.99805 11.3965 2.99805 11.0547C2.99805 10.7227 3.25195 10.459 3.61328 10.459L13.4277 10.459C13.7695 10.459 14.0234 10.7227 14.0234 11.0547C14.0234 11.3965 13.7695 11.6602 13.4277 11.6602Z" fill="white" fill-opacity="0.85"/>
  <path d="M3.61328 15C3.25195 15 2.99805 14.7363 2.99805 14.4043C2.99805 14.0625 3.25195 13.7988 3.61328 13.7988L10.8496 13.7988C11.2012 13.7988 11.4551 14.0625 11.4551 14.4043C11.4551 14.7363 11.2012 15 10.8496 15Z" fill="white" fill-opacity="0.85"/>
 </g>
</svg>
