<svg version="1.1" xmlns="http://www.w3.org/2000/svg" xmlns:xlink="http://www.w3.org/1999/xlink" viewBox="0 0 21.0742 20.7324">
 <g>
  <rect height="20.7324" opacity="0" width="21.0742" x="0" y="0"/>
  <path d="M16.1914 18.4668C16.1914 18.7454 16.2414 19.0123 16.3354 19.2578L4.37762 19.2578C4.47152 19.0123 4.52148 18.7454 4.52148 18.4668C4.52148 18.1919 4.47283 17.9283 4.38117 17.6855L16.3318 17.6855C16.2401 17.9283 16.1914 18.1919 16.1914 18.4668ZM2.26562 4.54102C2.54101 4.54102 2.80454 4.49172 3.04688 4.39902L3.04688 16.3432C2.80454 16.2505 2.54101 16.2012 2.26562 16.2012C1.98634 16.2012 1.71953 16.2511 1.47461 16.3449L1.47461 4.39732C1.71953 4.4911 1.98634 4.54102 2.26562 4.54102ZM18.457 4.54102C18.7324 4.54102 18.9959 4.49172 19.2383 4.39902L19.2383 16.3432C18.9959 16.2505 18.7324 16.2012 18.457 16.2012C18.1777 16.2012 17.9109 16.2511 17.666 16.3449L17.666 4.39732C17.9109 4.4911 18.1777 4.54102 18.457 4.54102ZM16.1914 2.27539C16.1914 2.55398 16.2414 2.82092 16.3354 3.06641L4.37762 3.06641C4.47152 2.82092 4.52148 2.55398 4.52148 2.27539C4.52148 2.00047 4.47283 1.73689 4.38117 1.49414L16.3318 1.49414C16.2401 1.73689 16.1914 2.00047 16.1914 2.27539Z" fill="var(--color-secondary)"/>
  <path d="M20.7129 18.4668C20.7129 19.7168 19.707 20.7324 18.457 20.7324C17.1973 20.7324 16.1914 19.7168 16.1914 18.4668C16.1914 17.2168 17.1973 16.2012 18.457 16.2012C19.707 16.2012 20.7129 17.2168 20.7129 18.4668ZM4.52148 18.4668C4.52148 19.7168 3.51562 20.7324 2.26562 20.7324C1.00586 20.7324 0 19.7168 0 18.4668C0 17.2168 1.00586 16.2012 2.26562 16.2012C3.51562 16.2012 4.52148 17.2168 4.52148 18.4668ZM4.52148 2.27539C4.52148 3.52539 3.51562 4.54102 2.26562 4.54102C1.00586 4.54102 0 3.52539 0 2.27539C0 1.02539 1.00586 0.00976562 2.26562 0.00976562C3.51562 0.00976562 4.52148 1.02539 4.52148 2.27539ZM20.7129 2.27539C20.7129 3.52539 19.707 4.54102 18.457 4.54102C17.1973 4.54102 16.1914 3.52539 16.1914 2.27539C16.1914 1.02539 17.1973 0.00976562 18.457 0.00976562C19.707 0.00976562 20.7129 1.02539 20.7129 2.27539Z" fill="var(--color-primary)"/>
  <path d="M13.4277 6.25977L13.4277 7.40234L12.1484 7.40234L12.1484 6.65039C12.1484 6.44531 12.0215 6.31836 11.7871 6.31836L6.61133 6.31836C6.39648 6.31836 6.2793 6.44531 6.2793 6.65039L6.2793 11.7383C6.2793 11.9531 6.39648 12.0703 6.61133 12.0703L7.34375 12.0703L7.34375 13.3496L6.2207 13.3496C5.44922 13.3496 5 12.9004 5 12.1289L5 6.25977C5 5.48828 5.44922 5.03906 6.2207 5.03906L12.1777 5.03906C12.9688 5.03906 13.4277 5.48828 13.4277 6.25977Z" fill="var(--color-primary)"/>
  <path d="M8.56445 15.7031L14.5508 15.7031C15.3223 15.7031 15.7715 15.2637 15.7715 14.4824L15.7715 8.61328C15.7715 7.8418 15.3125 7.40234 14.5215 7.40234L8.56445 7.40234C7.79297 7.40234 7.34375 7.8418 7.34375 8.61328L7.34375 14.4824C7.34375 15.2637 7.79297 15.7031 8.56445 15.7031ZM8.95508 14.4238C8.74023 14.4238 8.62305 14.3066 8.62305 14.1016L8.62305 9.00391C8.62305 8.79883 8.74023 8.68164 8.95508 8.68164L14.1309 8.68164C14.3652 8.68164 14.4922 8.79883 14.4922 9.00391L14.4922 14.1016C14.4922 14.3066 14.375 14.4238 14.1602 14.4238Z" fill="var(--color-primary)"/>
 </g>
</svg>
