<?xml version="1.0" encoding="UTF-8"?>
<!--Generator: Apple Native CoreSVG 341-->
<!DOCTYPE svg
PUBLIC "-//W3C//DTD SVG 1.1//EN"
       "http://www.w3.org/Graphics/SVG/1.1/DTD/svg11.dtd">
<svg version="1.1" xmlns="http://www.w3.org/2000/svg" xmlns:xlink="http://www.w3.org/1999/xlink" viewBox="0 0 22.4561 22.0923">
 <g>
  <rect height="22.0923" opacity="0" width="22.4561" x="0" y="0"/>
  <path d="M17.3525 20.0229C17.2309 20.0313 17.1051 20.0354 16.9751 20.0354L5.11963 20.0354C3.08838 20.0354 2.06299 19.0295 2.06299 17.0178L2.06299 5.08423C2.06299 4.97013 2.06629 4.85923 2.07389 4.75253ZM20.0415 5.08423L20.0415 17.0178C20.0415 17.1317 20.0382 17.2423 20.0306 17.3487L4.75066 2.06878C4.86972 2.06086 4.99271 2.05689 5.11963 2.05689L16.9751 2.05689C19.0161 2.05689 20.0415 3.07252 20.0415 5.08423Z" fill="white" fill-opacity="0.425"/>
  <path d="M19.6704 20.719C19.9634 21.012 20.4517 21.012 20.7349 20.719C21.0278 20.426 21.0278 19.9475 20.7349 19.6545L2.43408 1.36353C2.14111 1.07056 1.65283 1.0608 1.35986 1.36353C1.06689 1.64673 1.06689 2.13502 1.35986 2.42798Z" fill="white" fill-opacity="0.85"/>
 </g>
</svg>
