<?xml version="1.0" encoding="UTF-8"?>
<!--Generator: Apple Native CoreSVG 341-->
<!DOCTYPE svg
PUBLIC "-//W3C//DTD SVG 1.1//EN"
       "http://www.w3.org/Graphics/SVG/1.1/DTD/svg11.dtd">
<svg version="1.1" xmlns="http://www.w3.org/2000/svg" xmlns:xlink="http://www.w3.org/1999/xlink" viewBox="0 0 18.418 18.0566">
 <g>
  <rect height="18.0566" opacity="0" width="18.418" x="0" y="0"/>
  <path d="M0.839844 7.13867C1.29883 7.13867 1.67969 6.75781 1.67969 6.29883C1.67969 5.83984 1.29883 5.45898 0.839844 5.45898C0.380859 5.45898 0 5.83984 0 6.29883C0 6.75781 0.380859 7.13867 0.839844 7.13867ZM0.839844 4.4043C1.29883 4.4043 1.67969 4.02344 1.67969 3.56445C1.67969 3.10547 1.29883 2.72461 0.839844 2.72461C0.380859 2.72461 0 3.10547 0 3.56445C0 4.02344 0.380859 4.4043 0.839844 4.4043ZM0.839844 1.67969C1.29883 1.67969 1.67969 1.29883 1.67969 0.839844C1.67969 0.380859 1.29883 0 0.839844 0C0.380859 0 0 0.380859 0 0.839844C0 1.29883 0.380859 1.67969 0.839844 1.67969ZM3.57422 1.67969C4.0332 1.67969 4.41406 1.29883 4.41406 0.839844C4.41406 0.380859 4.0332 0 3.57422 0C3.11523 0 2.73438 0.380859 2.73438 0.839844C2.73438 1.29883 3.11523 1.67969 3.57422 1.67969ZM6.29883 1.67969C6.75781 1.67969 7.13867 1.29883 7.13867 0.839844C7.13867 0.380859 6.75781 0 6.29883 0C5.83984 0 5.45898 0.380859 5.45898 0.839844C5.45898 1.29883 5.83984 1.67969 6.29883 1.67969ZM9.0332 1.67969C9.49219 1.67969 9.87305 1.29883 9.87305 0.839844C9.87305 0.380859 9.49219 0 9.0332 0C8.57422 0 8.19336 0.380859 8.19336 0.839844C8.19336 1.29883 8.57422 1.67969 9.0332 1.67969ZM11.7578 1.67969C12.2168 1.67969 12.5977 1.29883 12.5977 0.839844C12.5977 0.380859 12.2168 0 11.7578 0C11.2988 0 10.918 0.380859 10.918 0.839844C10.918 1.29883 11.2988 1.67969 11.7578 1.67969ZM14.4922 1.67969C14.9512 1.67969 15.332 1.29883 15.332 0.839844C15.332 0.380859 14.9512 0 14.4922 0C14.0332 0 13.6523 0.380859 13.6523 0.839844C13.6523 1.29883 14.0332 1.67969 14.4922 1.67969ZM17.2168 1.67969C17.6758 1.67969 18.0566 1.29883 18.0566 0.839844C18.0566 0.380859 17.6758 0 17.2168 0C16.7578 0 16.377 0.380859 16.377 0.839844C16.377 1.29883 16.7578 1.67969 17.2168 1.67969ZM17.2168 4.4043C17.6758 4.4043 18.0566 4.02344 18.0566 3.56445C18.0566 3.10547 17.6758 2.72461 17.2168 2.72461C16.7578 2.72461 16.377 3.10547 16.377 3.56445C16.377 4.02344 16.7578 4.4043 17.2168 4.4043ZM17.2168 7.13867C17.6758 7.13867 18.0566 6.75781 18.0566 6.29883C18.0566 5.83984 17.6758 5.45898 17.2168 5.45898C16.7578 5.45898 16.377 5.83984 16.377 6.29883C16.377 6.75781 16.7578 7.13867 17.2168 7.13867ZM17.2168 9.86328C17.6758 9.86328 18.0566 9.48242 18.0566 9.02344C18.0566 8.56445 17.6758 8.18359 17.2168 8.18359C16.7578 8.18359 16.377 8.56445 16.377 9.02344C16.377 9.48242 16.7578 9.86328 17.2168 9.86328ZM17.2168 12.5977C17.6758 12.5977 18.0566 12.2168 18.0566 11.7578C18.0566 11.2988 17.6758 10.918 17.2168 10.918C16.7578 10.918 16.377 11.2988 16.377 11.7578C16.377 12.2168 16.7578 12.5977 17.2168 12.5977ZM17.2168 15.3223C17.6758 15.3223 18.0566 14.9414 18.0566 14.4824C18.0566 14.0234 17.6758 13.6426 17.2168 13.6426C16.7578 13.6426 16.377 14.0234 16.377 14.4824C16.377 14.9414 16.7578 15.3223 17.2168 15.3223ZM17.2168 18.0566C17.6758 18.0566 18.0566 17.6758 18.0566 17.2168C18.0566 16.7578 17.6758 16.377 17.2168 16.377C16.7578 16.377 16.377 16.7578 16.377 17.2168C16.377 17.6758 16.7578 18.0566 17.2168 18.0566ZM14.4922 18.0566C14.9512 18.0566 15.332 17.6758 15.332 17.2168C15.332 16.7578 14.9512 16.377 14.4922 16.377C14.0332 16.377 13.6523 16.7578 13.6523 17.2168C13.6523 17.6758 14.0332 18.0566 14.4922 18.0566ZM11.7578 18.0566C12.2168 18.0566 12.5977 17.6758 12.5977 17.2168C12.5977 16.7578 12.2168 16.377 11.7578 16.377C11.2988 16.377 10.918 16.7578 10.918 17.2168C10.918 17.6758 11.2988 18.0566 11.7578 18.0566Z" fill="white" fill-opacity="0.425"/>
  <path d="M10.2539 5.14648L12.8418 7.73438C13.1445 8.03711 13.6035 7.87109 13.7012 7.43164L14.3848 4.28711C14.4629 3.87695 14.1113 3.53516 13.7109 3.64258L10.5566 4.29688C10.1074 4.38477 9.95117 4.82422 10.2539 5.14648Z" fill="white" fill-opacity="0.85"/>
  <path d="M0.78125 18.0176L9.0918 18.0176C9.56055 18.0176 9.86328 17.7148 9.86328 17.2461L9.86328 10.5273L9.23828 11.1426C9.01367 11.3672 8.75 11.5137 8.4668 11.5918L8.4668 16.3379C8.4668 16.5527 8.39844 16.6211 8.18359 16.6211L1.67969 16.6211C1.47461 16.6211 1.39648 16.5527 1.39648 16.3379L1.39648 9.84375C1.39648 9.62891 1.47461 9.56055 1.67969 9.56055L6.34766 9.56055C6.40625 9.24805 6.5625 8.94531 6.80664 8.70117L7.35352 8.16406L0.78125 8.16406C0.3125 8.16406 0 8.4668 0 8.93555L0 17.2461C0 17.7148 0.3125 18.0176 0.78125 18.0176ZM8.45703 10.3418L13.1445 5.64453C13.3691 5.42969 13.3887 5.04883 13.1445 4.81445C12.9102 4.58008 12.5391 4.58008 12.3145 4.82422L7.61719 9.51172C7.39258 9.74609 7.38281 10.1074 7.60742 10.3516C7.85156 10.5762 8.22266 10.5664 8.45703 10.3418Z" fill="white" fill-opacity="0.85"/>
 </g>
</svg>
