<svg version="1.1" xmlns="http://www.w3.org/2000/svg" xmlns:xlink="http://www.w3.org/1999/xlink" viewBox="0 0 20.2832 19.9316">
 <g>
  <rect height="19.9316" opacity="0" width="20.2832" x="0" y="0"/>
  <path d="M9.96094 19.9316C15.459 19.9316 19.9219 15.4688 19.9219 9.9707C19.9219 4.48242 15.459 0.00976562 9.96094 0.00976562C4.47266 0.00976562 0 4.48242 0 9.9707C0 15.4688 4.47266 19.9316 9.96094 19.9316Z" fill="var(--color-tertiary)"/>
  <path d="M7.02148 14.9902C5.74219 14.9902 4.95117 14.1992 4.95117 12.9395L4.95117 7.80273C4.95117 6.5332 5.74219 5.74219 7.02148 5.74219L11.9238 5.74219L10.8789 6.80664L7.03125 6.80664C6.39648 6.80664 6.00586 7.19727 6.00586 7.85156L6.00586 12.8906C6.00586 13.5352 6.39648 13.9355 7.03125 13.9355L12.2559 13.9355C12.8027 13.9355 13.1348 13.5352 13.1348 12.8906L13.1348 9.12109L14.1797 8.06641L14.1797 12.9395C14.1797 14.1992 13.4473 14.9902 12.2754 14.9902ZM8.55469 11.6797C8.36914 11.748 8.1543 11.5625 8.25195 11.3574L8.70117 10.4004L13.3203 5.78125L14.1992 6.64062L9.57031 11.2598ZM14.6387 6.20117L13.7695 5.32227L14.1992 4.90234C14.4141 4.6875 14.7461 4.66797 14.9414 4.88281L15.0684 4.99023C15.2734 5.19531 15.2734 5.49805 15.0586 5.73242Z" fill="var(--color-primary)"/>
 </g>
</svg>
