<?xml version="1.0" encoding="UTF-8"?>
<!--Generator: Apple Native CoreSVG 341-->
<!DOCTYPE svg
PUBLIC "-//W3C//DTD SVG 1.1//EN"
       "http://www.w3.org/Graphics/SVG/1.1/DTD/svg11.dtd">
<svg version="1.1" xmlns="http://www.w3.org/2000/svg" xmlns:xlink="http://www.w3.org/1999/xlink" viewBox="0 0 20.0391 16.9238">
 <g>
  <rect height="16.9238" opacity="0" width="20.0391" x="0" y="0"/>
  <path d="M9.47266 16.9043L18.877 16.9043C19.3164 16.9043 19.6777 16.5625 19.6777 16.123C19.6777 15.6836 19.3164 15.332 18.877 15.332L9.47266 15.332C9.02344 15.332 8.68164 15.6836 8.68164 16.123C8.68164 16.5625 9.02344 16.9043 9.47266 16.9043Z" fill="white" fill-opacity="0.85"/>
  <path d="M9.47266 11.7969L18.877 11.7969C19.3164 11.7969 19.6777 11.4551 19.6777 11.0156C19.6777 10.5664 19.3164 10.2246 18.877 10.2246L9.47266 10.2246C9.02344 10.2246 8.68164 10.5664 8.68164 11.0156C8.68164 11.4551 9.02344 11.7969 9.47266 11.7969Z" fill="white" fill-opacity="0.85"/>
  <path d="M1.69922 16.9043L4.89258 16.9043C5.9668 16.9043 6.5918 16.2891 6.5918 15.2539L6.5918 11.9727C6.5918 10.9375 5.9668 10.3125 4.89258 10.3125L1.69922 10.3125C0.625 10.3125 0 10.9375 0 11.9727L0 15.2539C0 16.2891 0.625 16.9043 1.69922 16.9043Z" fill="white" fill-opacity="0.85"/>
  <path d="M9.47266 6.68945L18.877 6.68945C19.3164 6.68945 19.6777 6.33789 19.6777 5.89844C19.6777 5.45898 19.3164 5.11719 18.877 5.11719L9.47266 5.11719C9.02344 5.11719 8.68164 5.45898 8.68164 5.89844C8.68164 6.33789 9.02344 6.68945 9.47266 6.68945Z" fill="white" fill-opacity="0.85"/>
  <path d="M9.47266 1.57227L18.877 1.57227C19.3164 1.57227 19.6777 1.23047 19.6777 0.791016C19.6777 0.351562 19.3164 0 18.877 0L9.47266 0C9.02344 0 8.68164 0.351562 8.68164 0.791016C8.68164 1.23047 9.02344 1.57227 9.47266 1.57227Z" fill="white" fill-opacity="0.85"/>
  <path d="M1.69922 6.5918L4.89258 6.5918C5.9668 6.5918 6.5918 5.97656 6.5918 4.94141L6.5918 1.66016C6.5918 0.625 5.9668 0 4.89258 0L1.69922 0C0.625 0 0 0.625 0 1.66016L0 4.94141C0 5.97656 0.625 6.5918 1.69922 6.5918Z" fill="white" fill-opacity="0.85"/>
 </g>
</svg>
