<svg version="1.1" xmlns="http://www.w3.org/2000/svg" xmlns:xlink="http://www.w3.org/1999/xlink" viewBox="0 0 18.418 18.0566">
 <g>
  <rect height="18.0566" opacity="0" width="18.418" x="0" y="0"/>
  <path d="M0.839844 18.0469C1.29883 18.0469 1.67969 17.666 1.67969 17.207C1.67969 16.748 1.29883 16.3672 0.839844 16.3672C0.380859 16.3672 0 16.748 0 17.207C0 17.666 0.380859 18.0469 0.839844 18.0469ZM3.56445 18.0469C4.0332 18.0469 4.4043 17.666 4.4043 17.207C4.4043 16.748 4.0332 16.3672 3.56445 16.3672C3.10547 16.3672 2.72461 16.748 2.72461 17.207C2.72461 17.666 3.10547 18.0469 3.56445 18.0469ZM0.839844 15.3223C1.29883 15.3223 1.67969 14.9414 1.67969 14.4824C1.67969 14.0234 1.29883 13.6426 0.839844 13.6426C0.380859 13.6426 0 14.0234 0 14.4824C0 14.9414 0.380859 15.3223 0.839844 15.3223ZM6.29883 18.0469C6.75781 18.0469 7.13867 17.666 7.13867 17.207C7.13867 16.748 6.75781 16.3672 6.29883 16.3672C5.83984 16.3672 5.45898 16.748 5.45898 17.207C5.45898 17.666 5.83984 18.0469 6.29883 18.0469ZM0.839844 12.5879C1.29883 12.5879 1.67969 12.207 1.67969 11.748C1.67969 11.2891 1.29883 10.9082 0.839844 10.9082C0.380859 10.9082 0 11.2891 0 11.748C0 12.207 0.380859 12.5879 0.839844 12.5879ZM11.7578 18.0469C12.2168 18.0469 12.5977 17.666 12.5977 17.207C12.5977 16.748 12.2168 16.3672 11.7578 16.3672C11.2988 16.3672 10.918 16.748 10.918 17.207C10.918 17.666 11.2988 18.0469 11.7578 18.0469ZM0.839844 7.12891C1.29883 7.12891 1.67969 6.75781 1.67969 6.28906C1.67969 5.83008 1.29883 5.44922 0.839844 5.44922C0.380859 5.44922 0 5.83008 0 6.28906C0 6.75781 0.380859 7.12891 0.839844 7.12891ZM14.4824 18.0469C14.9414 18.0469 15.3223 17.666 15.3223 17.207C15.3223 16.748 14.9414 16.3672 14.4824 16.3672C14.0234 16.3672 13.6426 16.748 13.6426 17.207C13.6426 17.666 14.0234 18.0469 14.4824 18.0469ZM0.839844 4.4043C1.29883 4.4043 1.67969 4.02344 1.67969 3.56445C1.67969 3.10547 1.29883 2.72461 0.839844 2.72461C0.380859 2.72461 0 3.10547 0 3.56445C0 4.02344 0.380859 4.4043 0.839844 4.4043ZM0.839844 1.67969C1.29883 1.67969 1.67969 1.29883 1.67969 0.839844C1.67969 0.380859 1.29883 0 0.839844 0C0.380859 0 0 0.380859 0 0.839844C0 1.29883 0.380859 1.67969 0.839844 1.67969ZM17.2168 18.0469C17.6758 18.0469 18.0566 17.666 18.0566 17.207C18.0566 16.748 17.6758 16.3672 17.2168 16.3672C16.7578 16.3672 16.377 16.748 16.377 17.207C16.377 17.666 16.7578 18.0469 17.2168 18.0469ZM3.56445 1.67969C4.0332 1.67969 4.4043 1.29883 4.4043 0.839844C4.4043 0.380859 4.0332 0 3.56445 0C3.10547 0 2.72461 0.380859 2.72461 0.839844C2.72461 1.29883 3.10547 1.67969 3.56445 1.67969ZM17.2168 15.3223C17.6758 15.3223 18.0566 14.9414 18.0566 14.4824C18.0566 14.0234 17.6758 13.6426 17.2168 13.6426C16.7578 13.6426 16.377 14.0234 16.377 14.4824C16.377 14.9414 16.7578 15.3223 17.2168 15.3223ZM6.29883 1.67969C6.75781 1.67969 7.13867 1.29883 7.13867 0.839844C7.13867 0.380859 6.75781 0 6.29883 0C5.83984 0 5.45898 0.380859 5.45898 0.839844C5.45898 1.29883 5.83984 1.67969 6.29883 1.67969ZM17.2168 12.5879C17.6758 12.5879 18.0566 12.207 18.0566 11.748C18.0566 11.2891 17.6758 10.9082 17.2168 10.9082C16.7578 10.9082 16.377 11.2891 16.377 11.748C16.377 12.207 16.7578 12.5879 17.2168 12.5879ZM11.7578 1.67969C12.2168 1.67969 12.5977 1.29883 12.5977 0.839844C12.5977 0.380859 12.2168 0 11.7578 0C11.2988 0 10.918 0.380859 10.918 0.839844C10.918 1.29883 11.2988 1.67969 11.7578 1.67969ZM17.2168 7.12891C17.6758 7.12891 18.0566 6.75781 18.0566 6.28906C18.0566 5.83008 17.6758 5.44922 17.2168 5.44922C16.7578 5.44922 16.377 5.83008 16.377 6.28906C16.377 6.75781 16.7578 7.12891 17.2168 7.12891ZM14.4824 1.67969C14.9414 1.67969 15.3223 1.29883 15.3223 0.839844C15.3223 0.380859 14.9414 0 14.4824 0C14.0234 0 13.6426 0.380859 13.6426 0.839844C13.6426 1.29883 14.0234 1.67969 14.4824 1.67969ZM17.2168 4.4043C17.6758 4.4043 18.0566 4.02344 18.0566 3.56445C18.0566 3.10547 17.6758 2.72461 17.2168 2.72461C16.7578 2.72461 16.377 3.10547 16.377 3.56445C16.377 4.02344 16.7578 4.4043 17.2168 4.4043ZM17.2168 1.67969C17.6758 1.67969 18.0566 1.29883 18.0566 0.839844C18.0566 0.380859 17.6758 0 17.2168 0C16.7578 0 16.377 0.380859 16.377 0.839844C16.377 1.29883 16.7578 1.67969 17.2168 1.67969Z" fill="var(--color-secondary)"/>
  <path d="M9.02344 18.0469C9.44336 18.0469 9.78516 17.6953 9.78516 17.2852L9.78516 0.751953C9.78516 0.351562 9.44336 0 9.02344 0C8.60352 0 8.27148 0.351562 8.27148 0.751953L8.27148 17.2852C8.27148 17.6953 8.60352 18.0469 9.02344 18.0469ZM0.761719 9.77539L17.2949 9.77539C17.7051 9.77539 18.0566 9.44336 18.0566 9.02344C18.0566 8.60352 17.7051 8.26172 17.2949 8.26172L0.761719 8.26172C0.351562 8.26172 0 8.60352 0 9.02344C0 9.44336 0.351562 9.77539 0.761719 9.77539Z" fill="var(--color-primary)"/>
 </g>
</svg>
