<svg version="1.1" xmlns="http://www.w3.org/2000/svg" xmlns:xlink="http://www.w3.org/1999/xlink" viewBox="0 0 23.7012 27.3939">
 <g>
  <rect height="27.3939" opacity="0" width="23.7012" x="0" y="0"/>
  <path d="M13.24 3.73562L3.94531 9.10222C3.73047 9.21941 3.64258 9.37566 3.64258 9.58074L3.64258 20.3155C2.87856 20.4892 2.06055 20.2152 2.06055 18.8678L2.06055 9.5905C2.06055 8.48699 2.17773 8.28191 3.125 7.7448L11.084 3.14519C11.8034 2.73049 12.9481 2.60918 13.24 3.73562Z" fill="var(--color-secondary)"/>
  <path d="M17.1287 5.9806L7.83203 11.3483C7.62695 11.4655 7.53906 11.6218 7.53906 11.8268L7.53906 22.5607C6.77206 22.7363 5.95703 22.4636 5.95703 21.1139L5.95703 11.8268C5.95703 10.7331 6.07422 10.528 7.01172 9.98113L14.9805 5.39128C15.701 4.97593 16.8409 4.85488 17.1287 5.9806Z" fill="var(--color-secondary)"/>
  <path d="M10.0293 23.2721C10.0293 24.8249 11.1621 25.2839 12.3926 24.571L20.0586 20.1764C20.957 19.6589 21.2793 19.1218 21.2793 18.028L21.2793 8.94597C21.2793 7.44207 20.166 7.10027 18.9355 7.80339L11.2695 12.2272C10.3418 12.7643 10.0293 13.3112 10.0293 14.3757Z" fill="var(--color-primary)"/>
 </g>
</svg>
