<?xml version="1.0" encoding="UTF-8"?>
<!--Generator: Apple Native CoreSVG 341-->
<!DOCTYPE svg
PUBLIC "-//W3C//DTD SVG 1.1//EN"
       "http://www.w3.org/Graphics/SVG/1.1/DTD/svg11.dtd">
<svg version="1.1" xmlns="http://www.w3.org/2000/svg" xmlns:xlink="http://www.w3.org/1999/xlink" viewBox="0 0 18.3398 17.9785">
 <g>
  <rect height="17.9785" opacity="0" width="18.3398" x="0" y="0"/>
  <path d="M3.06641 17.9785L14.9121 17.9785C16.9629 17.9785 17.9785 16.9727 17.9785 14.9609L17.9785 3.02734C17.9785 1.01562 16.9629 0 14.9121 0L3.06641 0C1.02539 0 0 1.01562 0 3.02734L0 14.9609C0 16.9727 1.02539 17.9785 3.06641 17.9785Z" fill="white" fill-opacity="0.2125"/>
  <path d="M6.10352 14.1895C5.51758 14.6387 4.89258 14.1797 5.12695 13.4863L6.25977 10.0781L3.33984 7.99805C2.79297 7.59766 2.97852 6.81641 3.7207 6.82617L7.30469 6.85547L8.39844 3.42773C8.61328 2.75391 9.375 2.75391 9.58984 3.42773L10.6836 6.85547L14.2676 6.82617C15.0195 6.81641 15.1855 7.60742 14.6484 7.98828L11.7285 10.0781L12.8711 13.4863C13.0957 14.1797 12.4805 14.6387 11.8848 14.1895L8.99414 12.0801Z" fill="white" fill-opacity="0.85"/>
 </g>
</svg>
