<?xml version="1.0" encoding="UTF-8"?>
<!--Generator: Apple Native CoreSVG 341-->
<!DOCTYPE svg
PUBLIC "-//W3C//DTD SVG 1.1//EN"
       "http://www.w3.org/Graphics/SVG/1.1/DTD/svg11.dtd">
<svg version="1.1" xmlns="http://www.w3.org/2000/svg" xmlns:xlink="http://www.w3.org/1999/xlink" viewBox="0 0 24.7461 24.5264">
 <g>
  <rect height="24.5264" opacity="0" width="24.7461" x="0" y="0"/>
  <path d="M21.9199 10.1128C21.4231 9.91409 20.8804 9.80716 20.3125 9.80716C17.832 9.80716 15.8594 11.7993 15.8594 14.2408C15.8594 14.6648 15.9155 15.0743 16.0239 15.4612C15.1246 16.4774 14.5942 17.8225 14.6387 19.27C14.6484 19.7681 15.0293 20.1001 15.5469 19.8462C16.4053 19.4623 17.1778 18.9493 17.8418 18.3328L17.8418 20.4599C16.2391 21.5706 14.2934 22.2193 12.1973 22.2193C6.69922 22.2193 2.23633 17.7564 2.23633 12.2583C2.23633 6.76028 6.69922 2.29739 12.1973 2.29739C16.958 2.29739 20.9426 5.64356 21.9199 10.1128ZM4.18945 14.4361C4.82422 16.8384 6.52344 18.8111 8.82812 19.8462C9.35547 20.1001 9.72656 19.7681 9.73633 19.27C9.82422 16.399 7.65625 13.9478 4.86328 13.6255C4.35547 13.5572 4.01367 13.8306 4.18945 14.4361ZM10.0195 12.7368C10.0195 13.9478 10.9766 14.9146 12.1875 14.9146C13.3887 14.9146 14.3555 13.9478 14.3555 12.7368C14.3555 11.5454 13.3887 10.5786 12.1875 10.5786C10.9766 10.5786 10.0195 11.5454 10.0195 12.7368ZM5.33203 7.65872C4.93164 8.2056 5.13672 8.8306 5.78125 8.8306L18.584 8.8306C19.2383 8.8306 19.4336 8.2056 19.0332 7.64895C17.5879 5.43216 15.0586 3.95755 12.1777 3.95755C9.29688 3.95755 6.76758 5.43216 5.33203 7.65872Z" fill="white" fill-opacity="0.425"/>
  <path d="M20.3125 11.1353C18.5645 11.1353 17.1875 12.5318 17.1875 14.2408C17.1875 15.5689 17.9688 16.6919 19.1699 17.1704L19.1699 21.9947C19.1699 22.1118 19.2285 22.1997 19.3164 22.2974L20.127 23.1177C20.2246 23.2154 20.3613 23.2251 20.4785 23.1177L22.0312 21.5747C22.1289 21.4771 22.1289 21.3306 22.0312 21.2329L21.0645 20.2661L22.3926 18.9673C22.4902 18.8697 22.4902 18.7329 22.373 18.606L21.0645 17.3072C22.5684 16.6919 23.418 15.5982 23.418 14.2408C23.418 12.5318 22.0312 11.1353 20.3125 11.1353ZM20.3027 12.4048C20.8203 12.4048 21.2402 12.8345 21.2402 13.3521C21.2402 13.8892 20.8203 14.3189 20.3027 14.3189C19.7754 14.3189 19.3457 13.8892 19.3457 13.3521C19.3457 12.8345 19.7656 12.4048 20.3027 12.4048Z" fill="white" fill-opacity="0.85"/>
 </g>
</svg>
