<?xml version="1.0" encoding="UTF-8"?>
<!--Generator: Apple Native CoreSVG 341-->
<!DOCTYPE svg
PUBLIC "-//W3C//DTD SVG 1.1//EN"
       "http://www.w3.org/Graphics/SVG/1.1/DTD/svg11.dtd">
<svg version="1.1" xmlns="http://www.w3.org/2000/svg" xmlns:xlink="http://www.w3.org/1999/xlink" viewBox="0 0 23.8867 19.5996">
 <g>
  <rect height="19.5996" opacity="0" width="23.8867" x="0" y="0"/>
  <path d="M23.5254 11.7578C23.5254 8.88672 22.4902 6.24023 20.7617 4.18945C20.5664 3.95508 20.2344 3.95508 20.0195 4.17969L17.7539 6.44531C17.5684 6.63086 17.5586 6.89453 17.7246 7.09961C18.7305 8.38867 19.3359 10.0098 19.3359 11.7578C19.3359 13.5156 18.7305 15.1367 17.666 16.4941C17.5293 16.6602 17.5391 16.875 17.6855 17.0312L20.0098 19.3555C20.2344 19.5801 20.5566 19.5801 20.7617 19.3359C22.4902 17.2852 23.5254 14.6387 23.5254 11.7578Z" fill="white" fill-opacity="0.85"/>
  <path d="M11.7578 4.18945C13.5254 4.18945 15.1465 4.80469 16.4453 5.81055C16.6406 5.9668 16.8945 5.94727 17.0801 5.76172L19.3457 3.49609C19.5703 3.27148 19.5605 2.94922 19.3262 2.75391C17.2852 1.03516 14.6387 0 11.7578 0C8.88672 0 6.24023 1.03516 4.19922 2.75391C3.96484 2.94922 3.95508 3.27148 4.17969 3.49609L6.44531 5.76172C6.63086 5.94727 6.89453 5.9668 7.10938 5.80078C8.39844 4.80469 10.0098 4.18945 11.7578 4.18945Z" fill="white" fill-opacity="0.85"/>
  <path d="M0 11.7578C0 14.6387 1.03516 17.2852 2.76367 19.3359C2.95898 19.5801 3.29102 19.5801 3.50586 19.3555L5.83008 17.0312C5.97656 16.875 5.99609 16.6602 5.85938 16.4941C4.79492 15.1367 4.18945 13.5156 4.18945 11.7578C4.18945 10.0098 4.78516 8.38867 5.80078 7.09961C5.95703 6.89453 5.95703 6.63086 5.77148 6.44531L3.50586 4.17969C3.28125 3.95508 2.95898 3.95508 2.76367 4.18945C1.03516 6.24023 0 8.88672 0 11.7578Z" fill="white" fill-opacity="0.85"/>
  <path d="M8.62305 16.2109L14.4336 16.2109C14.7266 16.2109 14.9512 16.0059 14.9512 15.7227C14.9512 15.4492 14.7266 15.2344 14.4336 15.2344L9.91211 15.2344L9.91211 15.2051C10.6836 14.9023 11.0449 14.0137 11.0449 13.1641C11.0449 12.832 11.0254 12.5391 10.957 12.2852L13.457 12.2852C13.7012 12.2852 13.8867 12.1094 13.8867 11.8848C13.8867 11.6602 13.6914 11.4844 13.457 11.4844L10.7422 11.4844C10.6055 10.918 10.5664 10.6152 10.5664 10.2637C10.5664 9.14062 11.416 8.50586 12.6465 8.50586C13.0859 8.50586 13.3887 8.56445 13.6426 8.62305C13.8184 8.67188 13.9844 8.70117 14.1113 8.70117C14.3848 8.70117 14.541 8.55469 14.541 8.28125C14.541 8.02734 14.3555 7.87109 14.1211 7.77344C13.584 7.57812 13.2031 7.5293 12.5293 7.5293C10.6543 7.5293 9.39453 8.56445 9.39453 10.293C9.39453 10.6641 9.44336 11.0352 9.58008 11.4844L8.54492 11.4844C8.30078 11.4844 8.11523 11.6602 8.11523 11.8848C8.11523 12.1094 8.30078 12.2852 8.54492 12.2852L9.79492 12.2852C9.88281 12.6074 9.93164 12.9199 9.93164 13.2031C9.93164 14.1406 9.45312 14.8242 8.57422 15.1465C8.30078 15.2441 8.125 15.4199 8.125 15.7031C8.125 15.9961 8.33008 16.2109 8.62305 16.2109Z" fill="white" fill-opacity="0.85"/>
 </g>
</svg>
