<?xml version="1.0" encoding="UTF-8"?>
<!--Generator: Apple Native CoreSVG 341-->
<!DOCTYPE svg
PUBLIC "-//W3C//DTD SVG 1.1//EN"
       "http://www.w3.org/Graphics/SVG/1.1/DTD/svg11.dtd">
<svg version="1.1" xmlns="http://www.w3.org/2000/svg" xmlns:xlink="http://www.w3.org/1999/xlink" viewBox="0 0 20.2832 19.9316">
 <g>
  <rect height="19.9316" opacity="0" width="20.2832" x="0" y="0"/>
  <path d="M9.96094 19.9219C15.459 19.9219 19.9219 15.459 19.9219 9.96094C19.9219 4.46289 15.459 0 9.96094 0C4.46289 0 0 4.46289 0 9.96094C0 15.459 4.46289 19.9219 9.96094 19.9219ZM9.96094 18.2617C5.37109 18.2617 1.66016 14.5508 1.66016 9.96094C1.66016 5.37109 5.37109 1.66016 9.96094 1.66016C14.5508 1.66016 18.2617 5.37109 18.2617 9.96094C18.2617 14.5508 14.5508 18.2617 9.96094 18.2617Z" fill="white" fill-opacity="0.85"/>
  <path d="M3.64258 7.04102C3.64258 9.21875 5.53711 11.9043 7.11914 11.9043L7.32422 11.9043C8.90625 11.9043 10.8008 9.21875 10.8008 7.04102C10.8008 5.9375 10.2344 5.3418 9.16016 5.3418L8.51562 5.3418L8.51562 6.40625L9.19922 6.40625C9.56055 6.40625 9.72656 6.61133 9.72656 7.04102C9.72656 8.65234 8.29102 10.8301 7.22656 10.8301C6.15234 10.8301 4.7168 8.65234 4.7168 7.04102C4.7168 6.60156 4.88281 6.40625 5.24414 6.40625L5.92773 6.40625L5.92773 5.3418L5.2832 5.3418C4.21875 5.3418 3.64258 5.9375 3.64258 7.04102ZM9.17969 15.332C10.6348 15.332 11.4551 14.2383 11.8652 11.8262C12.1289 10.3125 12.4707 9.75586 13.0762 9.75586C13.7402 9.75586 14.0723 10.4785 14.1211 12.1484L15.1953 12.1484C15.0879 9.80469 14.4141 8.69141 13.0762 8.69141C11.8457 8.69141 11.1914 9.54102 10.8105 11.6016C10.4785 13.4766 10.0781 14.2578 9.14062 14.2578C8.22266 14.2578 7.70508 13.1836 7.74414 11.2695L6.67969 11.2695C6.63086 13.8379 7.53906 15.332 9.17969 15.332ZM5.99609 6.72852C6.46484 6.72852 6.8457 6.33789 6.8457 5.86914C6.8457 5.39062 6.46484 5.00977 5.99609 5.00977C5.52734 5.00977 5.12695 5.40039 5.12695 5.86914C5.12695 6.33789 5.51758 6.72852 5.99609 6.72852ZM8.44727 6.72852C8.90625 6.72852 9.29688 6.33789 9.29688 5.86914C9.29688 5.40039 8.90625 5.00977 8.44727 5.00977C7.96875 5.00977 7.58789 5.39062 7.58789 5.86914C7.58789 6.33789 7.96875 6.72852 8.44727 6.72852ZM14.6777 14.7168C15.5859 14.7168 16.3184 13.9844 16.3184 13.0859C16.3184 12.1875 15.5762 11.4648 14.6777 11.4648C13.7793 11.4551 13.0566 12.1875 13.0566 13.0859C13.0566 13.9941 13.7695 14.7168 14.6777 14.7168ZM14.6777 13.75C14.3164 13.75 14.0332 13.4473 14.0332 13.0859C14.0332 12.7148 14.3164 12.4316 14.6777 12.4316C15.0488 12.4316 15.3418 12.7148 15.3418 13.0859C15.3418 13.4473 15.0391 13.75 14.6777 13.75Z" fill="white" fill-opacity="0.85"/>
 </g>
</svg>
