<?xml version="1.0" encoding="UTF-8"?>
<!--Generator: Apple Native CoreSVG 341-->
<!DOCTYPE svg
PUBLIC "-//W3C//DTD SVG 1.1//EN"
       "http://www.w3.org/Graphics/SVG/1.1/DTD/svg11.dtd">
<svg version="1.1" xmlns="http://www.w3.org/2000/svg" xmlns:xlink="http://www.w3.org/1999/xlink" viewBox="0 0 20.2832 19.9316">
 <g>
  <rect height="19.9316" opacity="0" width="20.2832" x="0" y="0"/>
  <path d="M19.9219 9.96094C19.9219 15.4492 15.459 19.9219 9.96094 19.9219C4.47266 19.9219 0 15.4492 0 9.96094C0 4.46289 4.47266 0 9.96094 0C15.459 0 19.9219 4.46289 19.9219 9.96094ZM11.2793 10.5273C10.7812 10.5273 10.3125 10.3516 9.95117 10.0684C9.58984 10.3516 9.12109 10.5273 8.62305 10.5273C8.10547 10.5273 7.64648 10.3516 7.29492 10.0684C6.92383 10.3516 6.46484 10.5273 5.95703 10.5273C5.56641 10.5273 5.19531 10.4297 4.87305 10.2832L4.87305 14.502C4.87305 15.2246 5.3125 15.6445 6.04492 15.6445L13.8574 15.6445C14.5898 15.6445 15.0195 15.2246 15.0195 14.502L15.0195 10.2539C14.7168 10.4102 14.3359 10.5273 13.9453 10.5273C13.4375 10.5273 12.9785 10.3516 12.6172 10.0684C12.2461 10.3516 11.7871 10.5273 11.2793 10.5273ZM11.9043 11.9141L11.9043 14.6191L7.99805 14.6191L7.99805 11.9141C7.99805 11.6797 8.1543 11.5234 8.39844 11.5234L11.5234 11.5234C11.7578 11.5234 11.9043 11.6797 11.9043 11.9141ZM4.23828 8.30078L4.23828 8.50586C4.23828 9.16992 4.99023 9.80469 5.92773 9.80469C6.48438 9.80469 6.96289 9.55078 7.26562 9.14062C7.54883 9.55078 8.02734 9.80469 8.59375 9.80469C9.15039 9.80469 9.61914 9.55078 9.92188 9.14062C10.2246 9.55078 10.6836 9.80469 11.25 9.80469C11.8164 9.80469 12.2852 9.55078 12.5781 9.14062C12.8809 9.55078 13.3594 9.80469 13.916 9.80469C14.8535 9.80469 15.6055 9.07227 15.6055 8.4082L15.6055 8.30078ZM6.88477 4.26758C6.40625 4.26758 5.99609 4.51172 5.77148 4.92188L4.31641 7.60742L15.5176 7.60742L14.0625 4.92188C13.8379 4.51172 13.4277 4.26758 12.959 4.26758Z" fill="white" fill-opacity="0.85"/>
 </g>
</svg>
