<?xml version="1.0" encoding="UTF-8"?>
<!--Generator: Apple Native CoreSVG 341-->
<!DOCTYPE svg
PUBLIC "-//W3C//DTD SVG 1.1//EN"
       "http://www.w3.org/Graphics/SVG/1.1/DTD/svg11.dtd">
<svg version="1.1" xmlns="http://www.w3.org/2000/svg" xmlns:xlink="http://www.w3.org/1999/xlink" viewBox="0 0 19.5312 19.1895">
 <g>
  <rect height="19.1895" opacity="0" width="19.5312" x="0" y="0"/>
  <path d="M2.29492 17.4121L16.8652 17.4121C18.252 17.4121 19.1699 16.4941 19.1699 15.1172L19.1699 2.29492C19.1699 0.917969 18.252 0 16.8652 0L2.29492 0C0.917969 0 0 0.917969 0 2.29492L0 15.1172C0 16.4941 0.917969 17.4121 2.29492 17.4121ZM2.31445 15.8398C1.86523 15.8398 1.57227 15.5273 1.57227 15.0488L1.57227 2.36328C1.57227 1.89453 1.86523 1.57227 2.31445 1.57227L16.8555 1.57227C17.2949 1.57227 17.5977 1.89453 17.5977 2.36328L17.5977 15.0488C17.5977 15.5273 17.2949 15.8398 16.8555 15.8398ZM4.51172 4.30664C5.03906 4.30664 5.47852 3.87695 5.47852 3.34961C5.47852 2.8125 5.03906 2.38281 4.51172 2.38281C3.97461 2.38281 3.53516 2.8125 3.53516 3.34961C3.53516 3.87695 3.97461 4.30664 4.51172 4.30664ZM7.89062 4.30664C8.41797 4.30664 8.85742 3.87695 8.85742 3.34961C8.85742 2.8125 8.41797 2.38281 7.89062 2.38281C7.35352 2.38281 6.91406 2.8125 6.91406 3.34961C6.91406 3.87695 7.35352 4.30664 7.89062 4.30664ZM11.2695 4.30664C11.7969 4.30664 12.2363 3.87695 12.2363 3.34961C12.2363 2.8125 11.7969 2.38281 11.2695 2.38281C10.7324 2.38281 10.293 2.8125 10.293 3.34961C10.293 3.87695 10.7324 4.30664 11.2695 4.30664ZM14.6484 4.30664C15.1855 4.30664 15.625 3.87695 15.625 3.34961C15.625 2.8125 15.1855 2.38281 14.6484 2.38281C14.1211 2.38281 13.6816 2.8125 13.6816 3.34961C13.6816 3.87695 14.1211 4.30664 14.6484 4.30664ZM0.947266 6.41602L18.2324 6.41602L18.2324 5.13672L0.947266 5.13672ZM3.81836 14.6875L15.3516 14.6875C15.9082 14.6875 16.2695 14.3262 16.2695 13.7793L16.2695 8.48633C16.2695 7.92969 15.9082 7.56836 15.3516 7.56836L3.81836 7.56836C3.26172 7.56836 2.91016 7.92969 2.91016 8.48633L2.91016 13.7793C2.91016 14.3262 3.26172 14.6875 3.81836 14.6875ZM4.24805 13.6035C4.10156 13.6035 3.99414 13.4961 3.99414 13.3496L3.99414 8.91602C3.99414 8.76953 4.10156 8.65234 4.24805 8.65234L14.9316 8.65234C15.0684 8.65234 15.1855 8.76953 15.1855 8.91602L15.1855 13.3496C15.1855 13.4961 15.0684 13.6035 14.9316 13.6035ZM2.79297 19.1699C3.26172 19.1699 3.57422 18.8574 3.57422 18.3887L3.57422 16.4355L2.00195 16.4355L2.00195 18.3887C2.00195 18.8574 2.32422 19.1699 2.79297 19.1699ZM16.377 19.1699C16.8457 19.1699 17.1582 18.8574 17.1582 18.3887L17.1582 16.4355L15.5859 16.4355L15.5859 18.3887C15.5859 18.8574 15.9082 19.1699 16.377 19.1699Z" fill="white" fill-opacity="0.85"/>
 </g>
</svg>
