<svg version="1.1" xmlns="http://www.w3.org/2000/svg" xmlns:xlink="http://www.w3.org/1999/xlink" viewBox="0 0 20.2832 19.9316">
 <g>
  <rect height="19.9316" opacity="0" width="20.2832" x="0" y="0"/>
  <path d="M9.96094 19.9219C15.459 19.9219 19.9219 15.459 19.9219 9.96094C19.9219 4.46289 15.459 0 9.96094 0C4.46289 0 0 4.46289 0 9.96094C0 15.459 4.46289 19.9219 9.96094 19.9219ZM9.96094 18.2617C5.37109 18.2617 1.66016 14.5508 1.66016 9.96094C1.66016 5.37109 5.37109 1.66016 9.96094 1.66016C14.5508 1.66016 18.2617 5.37109 18.2617 9.96094C18.2617 14.5508 14.5508 18.2617 9.96094 18.2617Z" fill="var(--color-secondary)"/>
  <path d="M5.32227 12.4902L6.73828 12.4902L6.73828 10.8105C6.73828 9.76562 7.40234 9.12109 8.44727 9.12109L8.82812 9.12109C9.00391 8.36914 9.60938 7.97852 10.3613 7.97852L11.7676 7.97852C11.8555 7.97852 11.9629 7.97852 12.041 7.99805L12.041 7.8125C12.041 7.07031 11.5234 6.55273 10.791 6.55273L10.5762 6.55273L10.5762 5.22461C10.5762 4.60938 10.2051 4.23828 9.58984 4.23828L7.8125 4.23828C7.1875 4.23828 6.78711 4.60938 6.78711 5.22461L6.78711 6.55273L6.57227 6.55273C5.82031 6.55273 5.32227 7.07031 5.32227 7.8125ZM7.50977 6.55273L7.50977 5.21484C7.50977 5.03906 7.63672 4.93164 7.8418 4.93164L9.56055 4.93164C9.74609 4.93164 9.86328 5.03906 9.86328 5.21484L9.86328 6.55273ZM6.57227 14.9512L7.02148 14.9512C6.8457 14.6777 6.73828 14.3359 6.73828 13.9453L6.73828 13.252L5.32227 13.252L5.32227 13.6816C5.32227 14.4336 5.82031 14.9512 6.57227 14.9512ZM8.44727 14.9414L8.63281 14.9414L8.63281 9.81445L8.44727 9.81445C7.77344 9.81445 7.43164 10.1562 7.43164 10.8105L7.43164 13.9453C7.43164 14.6094 7.77344 14.9414 8.44727 14.9414ZM9.25781 14.9414L13.0371 14.9414L13.0371 9.81445L12.8516 9.81445L12.8516 9.58008C12.8516 8.96484 12.5195 8.67188 11.9336 8.67188L10.3613 8.67188C9.81445 8.67188 9.44336 8.96484 9.44336 9.58008L9.44336 9.81445L9.25781 9.81445ZM10.0391 9.81445L10.0391 9.56055C10.0391 9.3457 10.1562 9.24805 10.3711 9.24805L11.9336 9.24805C12.1484 9.24805 12.2559 9.3457 12.2559 9.56055L12.2559 9.81445ZM13.6621 14.9414L13.8574 14.9414C14.5215 14.9414 14.8633 14.6094 14.8633 13.9453L14.8633 10.8105C14.8633 10.1562 14.5215 9.81445 13.8574 9.81445L13.6621 9.81445Z" fill="var(--color-primary)"/>
 </g>
</svg>
