<?xml version="1.0" encoding="UTF-8"?>
<!--Generator: Apple Native CoreSVG 341-->
<!DOCTYPE svg
PUBLIC "-//W3C//DTD SVG 1.1//EN"
       "http://www.w3.org/Graphics/SVG/1.1/DTD/svg11.dtd">
<svg version="1.1" xmlns="http://www.w3.org/2000/svg" xmlns:xlink="http://www.w3.org/1999/xlink" viewBox="0 0 20.2832 19.9316">
 <g>
  <rect height="19.9316" opacity="0" width="20.2832" x="0" y="0"/>
  <path d="M19.9219 9.96094C19.9219 15.4492 15.459 19.9219 9.96094 19.9219C4.47266 19.9219 0 15.4492 0 9.96094C0 4.46289 4.47266 0 9.96094 0C15.459 0 19.9219 4.46289 19.9219 9.96094ZM6.06445 13.6133L6.06445 14.1602C6.06445 14.8633 6.45508 15.4199 7.09961 15.5469L7.27539 15.5762L7.27539 15.8887C7.27539 16.1523 7.45117 16.3281 7.71484 16.3281L8.01758 16.3281C8.28125 16.3281 8.44727 16.1523 8.44727 15.8887L8.44727 15.6152L11.4746 15.6152L11.4746 15.8887C11.4746 16.1523 11.6406 16.3281 11.9043 16.3281L12.2168 16.3281C12.4707 16.3281 12.6562 16.1523 12.6562 15.8887L12.6562 15.5762L12.8223 15.5469C13.4668 15.4199 13.8574 14.8633 13.8574 14.1602L13.8574 13.6133ZM9.0332 3.1543C8.22266 3.1543 7.75391 3.60352 7.75391 4.38477L7.75391 5.87891L7.51953 5.87891C6.66016 5.87891 6.06445 6.47461 6.06445 7.32422L6.06445 12.7832L13.8574 12.7832L13.8574 7.32422C13.8574 6.47461 13.2617 5.87891 12.4219 5.87891L12.1777 5.87891L12.1777 4.38477C12.1777 3.60352 11.7188 3.1543 10.9082 3.1543ZM11.2109 4.50195L11.2109 5.87891L8.7207 5.87891L8.7207 4.50195C8.7207 4.26758 8.87695 4.13086 9.14062 4.13086L10.791 4.13086C11.0547 4.13086 11.2109 4.26758 11.2109 4.50195Z" fill="white" fill-opacity="0.85"/>
 </g>
</svg>
