<?xml version="1.0" encoding="UTF-8"?>
<!--Generator: Apple Native CoreSVG 341-->
<!DOCTYPE svg
PUBLIC "-//W3C//DTD SVG 1.1//EN"
       "http://www.w3.org/Graphics/SVG/1.1/DTD/svg11.dtd">
<svg version="1.1" xmlns="http://www.w3.org/2000/svg" xmlns:xlink="http://www.w3.org/1999/xlink" viewBox="0 0 20.2832 19.9316">
 <g>
  <rect height="19.9316" opacity="0" width="20.2832" x="0" y="0"/>
  <path d="M9.96094 19.9219C15.459 19.9219 19.9219 15.459 19.9219 9.96094C19.9219 4.46289 15.459 0 9.96094 0C4.46289 0 0 4.46289 0 9.96094C0 15.459 4.46289 19.9219 9.96094 19.9219ZM9.96094 18.2617C5.37109 18.2617 1.66016 14.5508 1.66016 9.96094C1.66016 5.37109 5.37109 1.66016 9.96094 1.66016C14.5508 1.66016 18.2617 5.37109 18.2617 9.96094C18.2617 14.5508 14.5508 18.2617 9.96094 18.2617Z" fill="white" fill-opacity="0.85"/>
  <path d="M6.18164 12.6953L13.7402 12.6953L13.7402 7.39258C13.7402 6.57227 13.1641 5.99609 12.3438 5.99609L12.1094 5.99609L12.1094 4.55078C12.1094 3.78906 11.6602 3.35938 10.8789 3.35938L9.0625 3.35938C8.28125 3.35938 7.82227 3.78906 7.82227 4.55078L7.82227 5.99609L7.58789 5.99609C6.75781 5.99609 6.18164 6.57227 6.18164 7.39258ZM8.75977 5.99609L8.75977 4.6582C8.75977 4.43359 8.90625 4.29688 9.16016 4.29688L10.7715 4.29688C11.0254 4.29688 11.1719 4.43359 11.1719 4.6582L11.1719 5.99609ZM6.18164 13.4961L6.18164 14.0234C6.18164 14.707 6.5625 15.2441 7.1875 15.3711L7.36328 15.4004L7.36328 15.7031C7.36328 15.957 7.5293 16.123 7.7832 16.123L8.07617 16.123C8.33008 16.123 8.49609 15.957 8.49609 15.7031L8.49609 15.4297L11.4258 15.4297L11.4258 15.7031C11.4258 15.957 11.5918 16.123 11.8457 16.123L12.1484 16.123C12.3926 16.123 12.5684 15.957 12.5684 15.7031L12.5684 15.4004L12.7344 15.3711C13.3594 15.2441 13.7402 14.707 13.7402 14.0234L13.7402 13.4961Z" fill="white" fill-opacity="0.85"/>
 </g>
</svg>
