<?xml version="1.0" encoding="UTF-8"?>
<!--Generator: Apple Native CoreSVG 341-->
<!DOCTYPE svg
PUBLIC "-//W3C//DTD SVG 1.1//EN"
       "http://www.w3.org/Graphics/SVG/1.1/DTD/svg11.dtd">
<svg version="1.1" xmlns="http://www.w3.org/2000/svg" xmlns:xlink="http://www.w3.org/1999/xlink" viewBox="0 0 23.3496 26.3965">
 <g>
  <rect height="26.3965" opacity="0" width="23.3496" x="0" y="0"/>
  <path d="M4.41406 23.6133C4.41406 24.1216 4.52834 24.5848 4.736 24.9811C4.64991 25.0065 4.55506 25.0195 4.45312 25.0195L3.92578 25.0195C3.41797 25.0195 3.08594 24.6973 3.08594 24.1895L3.08594 23.6621L2.91992 23.6426C1.73828 23.3594 0.917969 22.4316 0.917969 21.084L0.917969 20.1855L4.41406 20.1855ZM11.8945 3.4668L11.8945 6.25L12.3145 6.25C13.8672 6.25 14.9512 7.32422 14.9512 8.87695L14.9512 10.9863L7.2168 10.9863C5.57617 10.9863 4.41406 12.168 4.41406 13.7695L4.41406 18.6035L0.917969 18.6035L0.917969 8.87695C0.917969 7.32422 2.01172 6.25 3.56445 6.25L3.98438 6.25L3.98438 3.4668C3.98438 2.2168 4.80469 1.41602 6.09375 1.41602L9.87305 1.41602C11.1133 1.41602 11.8945 2.2168 11.8945 3.4668ZM6.16211 2.8125C5.72266 2.8125 5.44922 3.06641 5.44922 3.4668L5.44922 6.25L10.4297 6.25L10.4297 3.4668C10.4297 3.06641 10.1855 2.8125 9.80469 2.8125Z" fill="white" fill-opacity="0.85"/>
  <path d="M7.2168 25.0684L20.5371 25.0684C21.4453 25.0684 22.0117 24.502 22.0117 23.6133L22.0117 13.7695C22.0117 12.9004 21.4453 12.3145 20.5371 12.3145L7.2168 12.3145C6.30859 12.3145 5.74219 12.9004 5.74219 13.7695L5.74219 23.6133C5.74219 24.502 6.30859 25.0684 7.2168 25.0684ZM7.19727 14.8828C7.03125 14.8828 6.92383 14.7656 6.92383 14.6289L6.92383 13.8672C6.92383 13.6914 7.03125 13.5742 7.2168 13.5742L8.06641 13.5742C8.22266 13.5742 8.32031 13.6816 8.32031 13.8477L8.32031 14.6289C8.32031 14.7754 8.22266 14.8828 8.06641 14.8828ZM7.19727 17.1289C7.03125 17.1289 6.92383 17.0117 6.92383 16.8945L6.92383 16.1133C6.92383 15.957 7.03125 15.8398 7.19727 15.8398L8.06641 15.8398C8.22266 15.8398 8.32031 15.957 8.32031 16.1133L8.32031 16.8945C8.32031 17.0215 8.22266 17.1289 8.06641 17.1289ZM7.19727 19.3457C7.03125 19.3457 6.92383 19.2188 6.92383 19.0723L6.92383 18.3301C6.92383 18.1543 7.03125 18.0371 7.19727 18.0371L8.06641 18.0371C8.22266 18.0371 8.32031 18.1445 8.32031 18.3301L8.32031 19.0723C8.32031 19.2285 8.22266 19.3457 8.06641 19.3457ZM7.19727 21.543C7.03125 21.543 6.92383 21.4258 6.92383 21.2988L6.92383 20.5273C6.92383 20.3711 7.03125 20.2637 7.19727 20.2637L8.06641 20.2637C8.22266 20.2637 8.32031 20.3711 8.32031 20.5273L8.32031 21.2988C8.32031 21.4355 8.22266 21.543 8.06641 21.543ZM7.2168 23.8086C7.03125 23.8086 6.92383 23.6816 6.92383 23.5254L6.92383 22.7734C6.92383 22.6074 7.03125 22.5098 7.19727 22.5098L8.06641 22.5098C8.22266 22.5098 8.32031 22.6074 8.32031 22.7734L8.32031 23.5547C8.32031 23.7012 8.22266 23.8086 8.06641 23.8086ZM9.6875 18.0566C9.53125 18.0566 9.44336 17.9883 9.44336 17.8125L9.44336 13.8184C9.44336 13.6621 9.54102 13.5742 9.6875 13.5742L18.0566 13.5742C18.2129 13.5742 18.3008 13.6621 18.3008 13.8184L18.3008 17.8125C18.3008 17.9883 18.2227 18.0566 18.0566 18.0566ZM9.6875 23.8086C9.54102 23.8086 9.44336 23.7207 9.44336 23.5645L9.44336 19.5898C9.44336 19.4238 9.53125 19.3457 9.6875 19.3457L18.0566 19.3457C18.2129 19.3457 18.3008 19.4238 18.3008 19.5898L18.3008 23.5645C18.3008 23.7207 18.2129 23.8086 18.0566 23.8086ZM19.6875 14.8828C19.541 14.8828 19.4336 14.7656 19.4336 14.6289L19.4336 13.8477C19.4336 13.6816 19.541 13.5742 19.6875 13.5742L20.5371 13.5742C20.7129 13.5742 20.8203 13.6914 20.8203 13.8672L20.8203 14.6289C20.8203 14.7754 20.7227 14.8828 20.5566 14.8828ZM19.6875 17.1289C19.541 17.1289 19.4336 17.0117 19.4336 16.8945L19.4336 16.1133C19.4336 15.957 19.541 15.8398 19.6875 15.8398L20.5566 15.8398C20.7227 15.8398 20.8203 15.957 20.8203 16.1133L20.8203 16.8945C20.8203 17.0215 20.7227 17.1289 20.5566 17.1289ZM19.6875 19.3457C19.541 19.3457 19.4336 19.2188 19.4336 19.0723L19.4336 18.3301C19.4336 18.1543 19.541 18.0371 19.6875 18.0371L20.5566 18.0371C20.7227 18.0371 20.8203 18.1445 20.8203 18.3301L20.8203 19.0723C20.8203 19.2285 20.7227 19.3457 20.5566 19.3457ZM19.6875 21.543C19.541 21.543 19.4336 21.4258 19.4336 21.2988L19.4336 20.5273C19.4336 20.3711 19.541 20.2637 19.6875 20.2637L20.5566 20.2637C20.7227 20.2637 20.8203 20.3711 20.8203 20.5273L20.8203 21.2988C20.8203 21.4355 20.7227 21.543 20.5566 21.543ZM19.6875 23.8086C19.541 23.8086 19.4336 23.6914 19.4336 23.5547L19.4336 22.7734C19.4336 22.6074 19.541 22.5098 19.6875 22.5098L20.5566 22.5098C20.7227 22.5098 20.8203 22.6074 20.8203 22.7734L20.8203 23.5254C20.8203 23.6914 20.7129 23.8086 20.5371 23.8086Z" fill="white" fill-opacity="0.85"/>
 </g>
</svg>
