<svg version="1.1" xmlns="http://www.w3.org/2000/svg" xmlns:xlink="http://www.w3.org/1999/xlink" viewBox="0 0 26.5332 24.7754">
 <g>
  <rect height="24.7754" opacity="0" width="26.5332" x="0" y="0"/>
  <path d="M18.4277 11.9043C18.4277 13.052 18.0536 14.1242 17.4181 15L15.2245 15C16.2081 14.3187 16.8555 13.1822 16.8555 11.9043C16.8555 9.83398 15.1562 8.13477 13.0859 8.13477C11.0156 8.13477 9.31641 9.83398 9.31641 11.9043C9.31641 13.1822 9.9638 14.3187 10.9474 15L8.75377 15C8.1183 14.1242 7.74414 13.052 7.74414 11.9043C7.74414 8.97461 10.166 6.55273 13.0859 6.55273C16.0059 6.55273 18.4277 8.97461 18.4277 11.9043ZM5.9668 11.6504C5.97656 12.0898 5.5957 12.4414 5.08789 12.4414L2.68555 12.4414C2.1875 12.4414 1.81641 12.0898 1.81641 11.6504C1.81641 11.2109 2.1875 10.8594 2.68555 10.8594L5.08789 10.8594C5.5957 10.8594 5.95703 11.2207 5.9668 11.6504ZM24.3555 11.6504C24.3555 12.0898 23.9941 12.4414 23.4863 12.4414L21.084 12.4414C20.5762 12.4414 20.2148 12.0898 20.2051 11.6504C20.1953 11.2109 20.5762 10.8594 21.084 10.8594L23.4863 10.8594C23.9941 10.8594 24.3555 11.2207 24.3555 11.6504ZM6.28906 3.98438L7.99805 5.68359C8.34961 6.04492 8.34961 6.55273 8.04688 6.86523C7.74414 7.17773 7.22656 7.16797 6.86523 6.80664L5.16602 5.10742C4.80469 4.74609 4.80469 4.23828 5.11719 3.93555C5.42969 3.63281 5.92773 3.62305 6.28906 3.98438ZM21.0547 3.93555C21.3574 4.24805 21.3672 4.74609 21.0059 5.10742L19.3066 6.80664C18.9453 7.16797 18.4277 7.16797 18.125 6.86523C17.8125 6.5625 17.8223 6.04492 18.1738 5.68359L19.873 3.98438C20.2441 3.62305 20.752 3.62305 21.0547 3.93555ZM13.877 1.50391L13.877 3.90625C13.877 4.4043 13.5254 4.78516 13.0859 4.78516C12.6465 4.78516 12.2949 4.4043 12.2949 3.90625L12.2949 1.50391C12.2949 0.996094 12.6465 0.634766 13.0859 0.634766C13.5254 0.634766 13.877 0.996094 13.877 1.50391Z" fill="var(--color-secondary)"/>
  <path d="M7.67578 21.1133C7.86133 21.1133 7.97852 20.9473 7.96875 20.7617L7.91016 19.834L8.68164 20.3613C8.82812 20.459 9.04297 20.4199 9.14062 20.2734C9.22852 20.127 9.17969 19.8926 8.99414 19.8145L8.1543 19.4043L9.00391 18.9844C9.17969 18.8965 9.21875 18.6816 9.15039 18.5352C9.0625 18.3789 8.82812 18.3496 8.68164 18.4473L7.91016 18.9844L7.97852 18.0469C7.99805 17.8516 7.86133 17.6953 7.67578 17.6953C7.4707 17.6953 7.35352 17.8516 7.36328 18.0469L7.42188 18.9844L6.64062 18.4473C6.49414 18.3496 6.28906 18.3691 6.19141 18.5352C6.10352 18.6816 6.14258 18.8867 6.32812 18.9844L7.17773 19.4043L6.32812 19.8145C6.14258 19.9023 6.09375 20.1172 6.18164 20.2734C6.26953 20.4297 6.49414 20.459 6.64062 20.3613L7.42188 19.834L7.37305 20.7617C7.36328 20.9473 7.4707 21.1133 7.67578 21.1133ZM13.0859 21.1133C13.2617 21.1133 13.3887 20.9473 13.3789 20.7617L13.3203 19.834L14.0918 20.3613C14.2383 20.459 14.4531 20.4199 14.5508 20.2734C14.6387 20.127 14.5898 19.8926 14.3945 19.8145L13.5645 19.4043L14.4043 18.9844C14.5898 18.8965 14.6289 18.6816 14.5605 18.5352C14.4727 18.3789 14.2383 18.3496 14.0918 18.4473L13.3203 18.9844L13.3887 18.0469C13.4082 17.8516 13.2617 17.6953 13.0859 17.6953C12.8809 17.6953 12.7637 17.8516 12.7734 18.0469L12.832 18.9844L12.0508 18.4473C11.9043 18.3496 11.6992 18.3691 11.6016 18.5352C11.5137 18.6816 11.5527 18.8867 11.7383 18.9844L12.5879 19.4043L11.7383 19.8145C11.5527 19.9023 11.5039 20.1172 11.5918 20.2734C11.6797 20.4297 11.9043 20.459 12.0508 20.3613L12.832 19.834L12.7832 20.7617C12.7734 20.9473 12.8809 21.1133 13.0859 21.1133ZM18.4961 21.1133C18.6719 21.1133 18.7988 20.9473 18.7891 20.7617L18.7305 19.834L19.502 20.3613C19.6484 20.459 19.8633 20.4199 19.9609 20.2734C20.0488 20.127 20 19.8926 19.8047 19.8145L18.9746 19.4043L19.8145 18.9844C20 18.8965 20.0391 18.6816 19.9707 18.5352C19.8828 18.3789 19.6484 18.3496 19.502 18.4473L18.7305 18.9844L18.7988 18.0469C18.8184 17.8516 18.6719 17.6953 18.4961 17.6953C18.291 17.6953 18.1738 17.8516 18.1836 18.0469L18.2422 18.9844L17.4609 18.4473C17.3145 18.3496 17.1094 18.3691 17.0117 18.5352C16.9238 18.6816 16.9629 18.8867 17.1484 18.9844L17.9883 19.4043L17.1484 19.8145C16.9629 19.9023 16.9141 20.1172 17.002 20.2734C17.0898 20.4297 17.3145 20.459 17.4609 20.3613L18.2422 19.834L18.1934 20.7617C18.1836 20.9473 18.291 21.1133 18.4961 21.1133ZM5.55664 24.7754C5.74219 24.7754 5.85938 24.6094 5.84961 24.4238L5.79102 23.4961L6.5625 24.0234C6.70898 24.1211 6.92383 24.082 7.02148 23.9355C7.11914 23.7891 7.06055 23.5645 6.875 23.4766L6.03516 23.0664L6.88477 22.6465C7.06055 22.5586 7.10938 22.3438 7.03125 22.1973C6.94336 22.041 6.70898 22.0117 6.5625 22.1094L5.79102 22.6465L5.85938 21.709C5.87891 21.5137 5.74219 21.3574 5.55664 21.3574C5.35156 21.3574 5.23438 21.5137 5.24414 21.709L5.30273 22.6465L4.52148 22.1094C4.375 22.0117 4.16992 22.0312 4.07227 22.1973C3.98438 22.3438 4.02344 22.5488 4.20898 22.6465L5.05859 23.0664L4.20898 23.4766C4.02344 23.5645 3.97461 23.7793 4.0625 23.9355C4.15039 24.0918 4.375 24.1211 4.52148 24.0234L5.30273 23.4961L5.25391 24.4238C5.24414 24.6094 5.35156 24.7754 5.55664 24.7754ZM10.9668 24.7754C11.1523 24.7754 11.2695 24.6094 11.2598 24.4238L11.2012 23.4961L11.9727 24.0234C12.1191 24.1211 12.334 24.082 12.4316 23.9355C12.5195 23.7891 12.4707 23.5645 12.2754 23.4766L11.4453 23.0664L12.2852 22.6465C12.4707 22.5586 12.5098 22.3438 12.4414 22.1973C12.3535 22.041 12.1191 22.0117 11.9727 22.1094L11.2012 22.6465L11.2695 21.709C11.2891 21.5137 11.1523 21.3574 10.9668 21.3574C10.7617 21.3574 10.6445 21.5137 10.6543 21.709L10.7129 22.6465L9.93164 22.1094C9.78516 22.0117 9.58008 22.0312 9.48242 22.1973C9.39453 22.3438 9.43359 22.5488 9.61914 22.6465L10.4688 23.0664L9.61914 23.4766C9.43359 23.5645 9.38477 23.7793 9.47266 23.9355C9.56055 24.0918 9.78516 24.1211 9.93164 24.0234L10.7129 23.4961L10.6641 24.4238C10.6543 24.6094 10.7617 24.7754 10.9668 24.7754ZM16.377 24.7754C16.5527 24.7754 16.6797 24.6094 16.6699 24.4238L16.6113 23.4961L17.3828 24.0234C17.5293 24.1211 17.7441 24.082 17.8418 23.9355C17.9297 23.7891 17.8809 23.5645 17.6855 23.4766L16.8555 23.0664L17.6953 22.6465C17.8809 22.5586 17.9199 22.3438 17.8516 22.1973C17.7637 22.041 17.5293 22.0117 17.3828 22.1094L16.6113 22.6465L16.6797 21.709C16.6992 21.5137 16.5527 21.3574 16.377 21.3574C16.1719 21.3574 16.0547 21.5137 16.0645 21.709L16.123 22.6465L15.3418 22.1094C15.1953 22.0117 14.9902 22.0312 14.8926 22.1973C14.8047 22.3438 14.8438 22.5488 15.0293 22.6465L15.8691 23.0664L15.0293 23.4766C14.8438 23.5645 14.7949 23.7793 14.8828 23.9355C14.9707 24.0918 15.1953 24.1211 15.3418 24.0234L16.123 23.4961L16.0742 24.4238C16.0645 24.6094 16.1719 24.7754 16.377 24.7754ZM3.14453 16.2305L22.9785 16.2305C23.3301 16.2305 23.5938 15.9668 23.5938 15.6152C23.5938 15.2637 23.3301 15 22.9785 15L3.14453 15C2.80273 15 2.5293 15.2637 2.5293 15.6152C2.5293 15.9668 2.80273 16.2305 3.14453 16.2305Z" fill="var(--color-primary)"/>
 </g>
</svg>
