<?xml version="1.0" encoding="UTF-8"?>
<!--Generator: Apple Native CoreSVG 341-->
<!DOCTYPE svg
PUBLIC "-//W3C//DTD SVG 1.1//EN"
       "http://www.w3.org/Graphics/SVG/1.1/DTD/svg11.dtd">
<svg version="1.1" xmlns="http://www.w3.org/2000/svg" xmlns:xlink="http://www.w3.org/1999/xlink" viewBox="0 0 19.6875 19.3457">
 <g>
  <rect height="19.3457" opacity="0" width="19.6875" x="0" y="0"/>
  <path d="M9.66797 2.03125C10.2246 2.03125 10.6836 1.58203 10.6836 1.01562C10.6836 0.449219 10.2246 0 9.66797 0C9.10156 0 8.65234 0.449219 8.65234 1.01562C8.65234 1.58203 9.10156 2.03125 9.66797 2.03125ZM15.791 4.56055C16.3477 4.56055 16.7969 4.11133 16.7969 3.54492C16.7969 2.97852 16.3477 2.5293 15.791 2.5293C15.2246 2.5293 14.7754 2.97852 14.7754 3.54492C14.7754 4.11133 15.2246 4.56055 15.791 4.56055ZM18.3203 10.6836C18.877 10.6836 19.3262 10.2344 19.3262 9.66797C19.3262 9.10156 18.877 8.65234 18.3203 8.65234C17.7539 8.65234 17.3047 9.10156 17.3047 9.66797C17.3047 10.2344 17.7539 10.6836 18.3203 10.6836ZM15.791 16.8066C16.3477 16.8066 16.7969 16.3574 16.7969 15.791C16.7969 15.2246 16.3477 14.7754 15.791 14.7754C15.2246 14.7754 14.7754 15.2246 14.7754 15.791C14.7754 16.3574 15.2246 16.8066 15.791 16.8066ZM9.66797 19.3359C10.2246 19.3359 10.6836 18.8867 10.6836 18.3203C10.6836 17.7539 10.2246 17.3047 9.66797 17.3047C9.10156 17.3047 8.65234 17.7539 8.65234 18.3203C8.65234 18.8867 9.10156 19.3359 9.66797 19.3359ZM3.54492 16.8066C4.11133 16.8066 4.56055 16.3574 4.56055 15.791C4.56055 15.2246 4.11133 14.7754 3.54492 14.7754C2.97852 14.7754 2.5293 15.2246 2.5293 15.791C2.5293 16.3574 2.97852 16.8066 3.54492 16.8066ZM1.01562 10.6836C1.58203 10.6836 2.03125 10.2344 2.03125 9.66797C2.03125 9.10156 1.58203 8.65234 1.01562 8.65234C0.449219 8.65234 0 9.10156 0 9.66797C0 10.2344 0.449219 10.6836 1.01562 10.6836ZM3.54492 4.56055C4.11133 4.56055 4.56055 4.11133 4.56055 3.54492C4.56055 2.97852 4.11133 2.5293 3.54492 2.5293C2.97852 2.5293 2.5293 2.97852 2.5293 3.54492C2.5293 4.11133 2.97852 4.56055 3.54492 4.56055Z" fill="white" fill-opacity="0.85"/>
  <path d="M9.66797 14.6387C12.4121 14.6387 14.6387 12.4121 14.6387 9.66797C14.6387 6.92383 12.4121 4.6875 9.66797 4.6875C6.92383 4.6875 4.6875 6.92383 4.6875 9.66797C4.6875 12.4121 6.92383 14.6387 9.66797 14.6387Z" fill="white" fill-opacity="0.85"/>
 </g>
</svg>
