<?xml version="1.0" encoding="UTF-8"?>
<!--Generator: Apple Native CoreSVG 341-->
<!DOCTYPE svg
PUBLIC "-//W3C//DTD SVG 1.1//EN"
       "http://www.w3.org/Graphics/SVG/1.1/DTD/svg11.dtd">
<svg version="1.1" xmlns="http://www.w3.org/2000/svg" xmlns:xlink="http://www.w3.org/1999/xlink" viewBox="0 0 32.5781 26.8335">
 <g>
  <rect height="26.8335" opacity="0" width="32.5781" x="0" y="0"/>
  <path d="M10.789 10.7702L8.56445 12.1619L4.83398 12.6209C2.59766 12.8943 1.58203 13.7634 1.58203 15.3357L1.58203 16.7127C1.58203 17.3669 1.86523 17.6892 2.39258 17.6892L4.16978 17.6892C4.41679 16.2124 5.66504 15.1306 7.2168 15.1306C8.77727 15.1306 10.0342 16.2124 10.283 17.6892L17.711 17.6892L19.2938 19.2712L10.1586 19.2712C9.74345 20.4926 8.59922 21.3416 7.2168 21.3416C5.84209 21.3416 4.70559 20.4926 4.29335 19.2712L2.31445 19.2712C0.869141 19.2712 0 18.3826 0 16.8982L0 15.3357C0 12.8552 1.5332 11.4294 4.63867 11.0486L8.02734 10.6384L9.64208 9.62382ZM30.6641 8.70484L31.084 9.31031C31.7969 10.3357 32.2168 11.6443 32.2168 12.7673L32.2168 16.6541C32.2168 18.4607 31.4941 19.2712 29.9023 19.2712L28.5071 19.2712C28.1974 20.1806 27.4812 20.8829 26.5674 21.1805L25.0681 19.6811C25.2224 19.7326 25.39 19.7595 25.5664 19.7595C26.4453 19.7595 27.0996 19.1052 27.0996 18.2361C27.0996 17.3572 26.4453 16.7029 25.5664 16.7029C24.6973 16.7029 24.043 17.3572 24.043 18.2361C24.043 18.4125 24.0699 18.5801 24.1214 18.7344L22.6285 17.2415C23.0298 15.9987 24.1763 15.1306 25.5664 15.1306C27.1182 15.1306 28.382 16.2124 28.6323 17.6892L29.8242 17.6892C30.4199 17.6892 30.6348 17.4255 30.6348 16.7419L30.6348 12.7673C30.6348 11.9373 30.3223 10.9802 29.7852 10.199L29.3652 9.60328C28.6523 8.57789 27.7832 8.15796 26.2402 8.15796L19.1406 8.15796C16.7178 8.15796 15.4238 8.30025 14.1911 8.80411L12.9918 7.60488C14.6232 6.80736 16.1708 6.5857 19.1406 6.5857L26.2402 6.5857C28.3496 6.5857 29.6191 7.20093 30.6641 8.70484ZM5.69336 18.2361C5.69336 19.1052 6.34766 19.7595 7.2168 19.7595C8.0957 19.7595 8.75 19.1052 8.75 18.2361C8.75 17.3572 8.0957 16.7029 7.2168 16.7029C6.34766 16.7029 5.69336 17.3572 5.69336 18.2361Z" fill="white" fill-opacity="0.85"/>
  <path d="M29.3359 2.85523L29.3359 3.82203C29.3359 4.61304 28.9062 5.12086 28.125 5.12086L16.1035 5.12086C15.3516 5.12086 15.0293 4.76929 15.0293 4.12476C15.0293 3.70484 15.2246 3.28492 15.8496 3.02125L18.0371 2.10328C20.293 1.17554 21.6992 0.716559 23.4473 0.716559L26.9727 0.716559C28.6133 0.716559 29.3359 1.43921 29.3359 2.85523Z" fill="white" fill-opacity="0.85"/>
  <path d="M27.1289 25.4724C27.4219 25.7654 27.9102 25.7654 28.1934 25.4724C28.4863 25.1794 28.4863 24.7009 28.1934 24.408L6.11328 2.33765C5.81055 2.03492 5.3418 2.03492 5.03906 2.33765C4.75586 2.62086 4.74609 3.09937 5.03906 3.40211Z" fill="white" fill-opacity="0.85"/>
 </g>
</svg>
