<?xml version="1.0" encoding="UTF-8"?>
<!--Generator: Apple Native CoreSVG 341-->
<!DOCTYPE svg
PUBLIC "-//W3C//DTD SVG 1.1//EN"
       "http://www.w3.org/Graphics/SVG/1.1/DTD/svg11.dtd">
<svg version="1.1" xmlns="http://www.w3.org/2000/svg" xmlns:xlink="http://www.w3.org/1999/xlink" viewBox="0 0 35 18.0566">
 <g>
  <rect height="18.0566" opacity="0" width="35" x="0" y="0"/>
  <path d="M32.9785 3.36914L33.418 4.01367C34.1895 5.12695 34.6387 6.52344 34.6387 7.74414L34.6387 11.9141C34.6387 13.8477 33.8672 14.7266 32.1582 14.7266L30.6435 14.7266C30.1981 16.0379 28.9723 16.9531 27.4902 16.9531C26.0081 16.9531 24.7823 16.0379 24.337 14.7266L10.9169 14.7266C10.4716 16.0379 9.24576 16.9531 7.76367 16.9531C6.28158 16.9531 5.05576 16.0379 4.61041 14.7266L2.49023 14.7266C0.9375 14.7266 0 13.7695 0 12.1777L0 10.498C0 7.82227 1.65039 6.29883 4.98047 5.88867L7.3947 5.59094L8.49615 7.03633L5.18555 7.45117C2.74414 7.76367 1.57227 8.75 1.57227 10.498L1.57227 11.9824C1.57227 12.7246 1.94336 13.1543 2.57812 13.1543L4.45741 13.1543C4.67121 11.504 6.04517 10.2734 7.76367 10.2734C9.48218 10.2734 10.8561 11.504 11.0699 13.1543L24.184 13.1543C24.3978 11.504 25.7717 10.2734 27.4902 10.2734C29.2087 10.2734 30.5827 11.504 30.7965 13.1543L32.0703 13.1543C32.7637 13.1543 33.0664 12.793 33.0664 12.0117L33.0664 7.74414C33.0664 6.81641 32.7148 5.76172 32.1191 4.90234L31.6797 4.26758C30.8789 3.125 29.9023 2.65625 28.2129 2.65625L20.5859 2.65625C16.8359 2.65625 15.5566 2.96875 13.3984 4.31641L11.9484 5.21852L10.985 3.95664L12.5586 2.96875C14.9512 1.47461 16.5625 1.08398 20.5859 1.08398L28.2129 1.08398C30.4785 1.08398 31.8555 1.73828 32.9785 3.36914ZM5.99609 13.6133C5.99609 14.6094 6.76758 15.3809 7.76367 15.3809C8.75977 15.3809 9.53125 14.6094 9.53125 13.6133C9.53125 12.6172 8.75977 11.8457 7.76367 11.8457C6.76758 11.8457 5.99609 12.6172 5.99609 13.6133ZM25.7227 13.6133C25.7227 14.6094 26.4941 15.3809 27.4902 15.3809C28.4863 15.3809 29.2578 14.6094 29.2578 13.6133C29.2578 12.6172 28.4863 11.8457 27.4902 11.8457C26.4941 11.8457 25.7227 12.6172 25.7227 13.6133Z" fill="white" fill-opacity="0.425"/>
  <path d="M2.88086 2.71484L5.2832 2.71484C6.36719 2.71484 6.77734 2.90039 7.32422 3.61328L9.95117 7.08008C10.791 8.18359 11.7285 8.66211 13.0957 8.66211L15.2344 8.66211L15.2344 9.50195C15.2344 10.1855 15.8398 10.3906 16.3477 10.0586L18.8086 8.47656C19.2773 8.17383 19.2871 7.58789 18.7988 7.27539L16.3574 5.70312C15.8398 5.36133 15.2344 5.56641 15.2344 6.25977L15.2344 7.08984L13.0957 7.08984C12.1777 7.08984 11.8066 6.88477 11.2012 6.10352L8.55469 2.65625C7.73438 1.57227 6.76758 1.14258 5.2832 1.14258L2.88086 1.14258C2.45117 1.14258 2.09961 1.49414 2.09961 1.92383C2.09961 2.35352 2.45117 2.71484 2.88086 2.71484Z" fill="white" fill-opacity="0.85"/>
 </g>
</svg>
