<svg version="1.1" xmlns="http://www.w3.org/2000/svg" xmlns:xlink="http://www.w3.org/1999/xlink" viewBox="0 0 33.2432 27.1701">
 <g>
  <rect height="27.1701" opacity="0" width="33.2432" x="0" y="0"/>
  <path d="M13.0474 19.9473C14.0728 19.3614 14.4146 18.0821 13.8189 17.0567C13.2329 16.0411 11.9536 15.6993 10.9282 16.2852C9.91262 16.8712 9.57083 18.1602 10.1568 19.1759C10.7427 20.1915 12.0318 20.5333 13.0474 19.9473ZM26.856 11.9786C27.8716 11.3927 28.2134 10.1036 27.6275 9.08797C27.0415 8.07234 25.7525 7.72078 24.7368 8.31648C23.7212 8.89266 23.3794 10.1915 23.9654 11.2071C24.5513 12.2227 25.8306 12.5645 26.856 11.9786ZM25.938 0.718827L25.3716 0.44539C23.9263-0.238204 22.6958-0.140548 21.104 0.777421L15.7525 3.86336C12.9302 5.49422 11.9634 6.41219 10.8892 8.43367L9.13137 11.7637L6.74856 13.5509C4.58059 15.1915 4.04348 16.9298 5.12747 18.8048L5.8013 19.9864C6.44583 21.0997 7.49075 21.3927 8.5845 20.7677L9.70755 20.1134C9.58059 19.9766 9.4634 19.8106 9.35598 19.6348C8.51614 18.1798 9.01419 16.3243 10.4693 15.4845C11.9243 14.6446 13.7798 15.1427 14.6197 16.5977C14.7271 16.7735 14.8052 16.9493 14.8638 17.1348L23.5064 12.1446C23.3794 12.0079 23.2622 11.8419 23.1646 11.6661C22.3247 10.2208 22.8228 8.35555 24.2779 7.5157C25.7329 6.67586 27.5884 7.17391 28.4282 8.62898C28.5259 8.80476 28.6138 8.98055 28.6724 9.16609L29.395 8.74617C30.5962 8.05281 30.7818 7.12508 29.9907 5.76766L28.3111 2.83797C27.813 1.98836 26.9341 1.18758 25.938 0.718827Z" fill="var(--color-secondary)"/>
  <path d="M6.0845 26.7149C6.31887 27.1055 6.79739 27.213 7.15872 27.0177L32.5005 12.3887C32.8618 12.1934 32.9888 11.7052 32.7837 11.3341C32.5591 10.9434 32.0708 10.8262 31.7095 11.0313L6.3677 25.6602C6.01614 25.8555 5.87942 26.3438 6.0845 26.7149Z" fill="var(--color-primary)"/>
  <path d="M4.39505 21.9298L2.35403 18.3751C2.01223 17.7696 1.31887 17.9259 1.12356 18.502L0.0493421 21.5196C-0.0971423 21.9298 0.0884046 22.2618 0.527858 22.3399L3.66262 22.9259C4.27786 23.043 4.74661 22.5157 4.39505 21.9298Z" fill="var(--color-primary)"/>
 </g>
</svg>
