<?xml version="1.0" encoding="UTF-8"?>
<!--Generator: Apple Native CoreSVG 341-->
<!DOCTYPE svg
PUBLIC "-//W3C//DTD SVG 1.1//EN"
       "http://www.w3.org/Graphics/SVG/1.1/DTD/svg11.dtd">
<svg version="1.1" xmlns="http://www.w3.org/2000/svg" xmlns:xlink="http://www.w3.org/1999/xlink" viewBox="0 0 35 28.7402">
 <g>
  <rect height="28.7402" opacity="0" width="35" x="0" y="0"/>
  <path d="M10.3809 19.3457C10.3809 20.8008 9.22852 21.9531 7.76367 21.9531C6.31836 21.9531 5.15625 20.791 5.15625 19.3457C5.15625 17.8906 6.31836 16.7285 7.76367 16.7285C9.21875 16.7285 10.3809 17.8906 10.3809 19.3457ZM30.0586 19.3457C30.0586 20.791 28.8965 21.9531 27.4414 21.9531C25.9961 21.9531 24.834 20.791 24.834 19.3457C24.834 17.9004 26.0059 16.7285 27.4414 16.7285C28.8965 16.7285 30.0586 17.8906 30.0586 19.3457ZM32.9785 8.71094L33.418 9.35547C34.1895 10.4688 34.6387 11.8652 34.6387 13.0859L34.6387 17.2559C34.6387 19.1895 33.8672 20.0684 32.1582 20.0684L31.123 20.0684C31.1719 19.834 31.1914 19.5996 31.1914 19.3457C31.1914 17.2656 29.5215 15.5957 27.4414 15.5957C25.3809 15.5957 23.6914 17.2754 23.6914 19.3457C23.6914 19.5996 23.7207 19.834 23.7598 20.0684L11.4453 20.0684C11.4941 19.834 11.5137 19.5996 11.5137 19.3457C11.5137 17.2656 9.84375 15.5957 7.76367 15.5957C5.69336 15.5957 4.01367 17.2656 4.01367 19.3457C4.01367 19.5996 4.04297 19.834 4.08203 20.0684L2.49023 20.0684C0.9375 20.0684 0 19.1113 0 17.5195L0 15.8398C0 13.1641 1.65039 11.6406 4.98047 11.2305L8.62305 10.7812L12.5586 8.31055C13.1184 7.96097 13.6354 7.6718 14.1504 7.43601L14.1504 8.54492C14.1504 10.166 15.166 11.2109 16.7383 11.2109L21.1621 11.2109C22.7344 11.2109 23.75 10.166 23.75 8.54492L23.75 6.42578L28.2129 6.42578C30.4785 6.42578 31.8555 7.08008 32.9785 8.71094Z" fill="white" fill-opacity="0.425"/>
  <path d="M16.7383 9.90234L21.1621 9.90234C21.9922 9.90234 22.4219 9.46289 22.4219 8.57422L22.4219 5.17578C22.4219 4.29688 21.9922 3.85742 21.1621 3.85742L16.7383 3.85742C15.9082 3.85742 15.4785 4.29688 15.4785 5.17578L15.4785 8.57422C15.4785 9.46289 15.9082 9.90234 16.7383 9.90234ZM20.2734 4.64844L21.3379 4.64844L21.3379 2.69531C21.3379 1.68945 21.9434 1.05469 22.8906 1.05469C23.8477 1.05469 24.4434 1.68945 24.4434 2.69531L24.4434 3.78906C24.4434 4.08203 24.6875 4.31641 24.9805 4.31641C25.2734 4.31641 25.5078 4.08203 25.5078 3.78906L25.5078 2.86133C25.5078 1.10352 24.4922 0 22.8906 0C21.3086 0 20.2734 1.10352 20.2734 2.86133Z" fill="white" fill-opacity="0.85"/>
 </g>
</svg>
