<?xml version="1.0" encoding="UTF-8"?>
<!--Generator: Apple Native CoreSVG 341-->
<!DOCTYPE svg
PUBLIC "-//W3C//DTD SVG 1.1//EN"
       "http://www.w3.org/Graphics/SVG/1.1/DTD/svg11.dtd">
<svg version="1.1" xmlns="http://www.w3.org/2000/svg" xmlns:xlink="http://www.w3.org/1999/xlink" viewBox="0 0 22.168 20.8496">
 <g>
  <rect height="20.8496" opacity="0" width="22.168" x="0" y="0"/>
  <path d="M12.0996 0.341797L20.4395 5.15625C20.8008 5.36133 20.9668 5.61523 20.9668 5.9082C20.9668 6.30859 20.6543 6.69922 20.1172 6.69922L19.2578 6.69922L19.2578 17.9297L19.8828 17.9297C20.2832 17.9297 20.5078 18.1641 20.5078 18.5547L20.5078 19.2676L21.0156 19.2676C21.4453 19.2676 21.8066 19.6191 21.8066 20.0488C21.8066 20.4785 21.4453 20.8398 21.0156 20.8398L0.78125 20.8398C0.351562 20.8398 0 20.4785 0 20.0488C0 19.6191 0.351562 19.2676 0.78125 19.2676L1.29883 19.2676L1.29883 18.5547C1.29883 18.1641 1.5332 17.9297 1.93359 17.9297L2.54883 17.9297L2.54883 6.69922L1.68945 6.69922C1.15234 6.69922 0.839844 6.30859 0.839844 5.9082C0.839844 5.61523 0.996094 5.36133 1.36719 5.15625L9.70703 0.341797C10.0781 0.117188 10.498 0 10.8984 0C11.2988 0 11.709 0.117188 12.0996 0.341797ZM6.99219 7.17773L6.99219 14.6973C6.99219 15.0488 7.22656 15.2832 7.55859 15.2832C7.88086 15.2832 8.10547 15.0488 8.10547 14.6973L8.10547 12.998L8.70117 12.4219L10.5371 14.9902C10.6641 15.1758 10.8203 15.2832 11.0352 15.2832C11.3281 15.2832 11.5625 15.0781 11.5625 14.7949C11.5625 14.6484 11.5039 14.5215 11.4062 14.3945L9.49219 11.7285L11.2793 9.85352C11.4062 9.7168 11.4844 9.62891 11.4844 9.45312C11.4844 9.19922 11.2695 8.96484 10.9863 8.96484C10.8203 8.96484 10.6543 9.0625 10.5469 9.17969L8.13477 11.8164L8.10547 11.8164L8.10547 7.1875C8.10547 6.82617 7.88086 6.5918 7.55859 6.5918C7.22656 6.5918 6.99219 6.81641 6.99219 7.17773ZM13.7793 10.1855L13.7207 10.1855L13.7207 9.53125C13.7207 9.21875 13.4961 8.96484 13.2129 8.96484C12.9199 8.96484 12.6953 9.21875 12.6953 9.53125L12.6953 14.6973C12.6953 15.0488 12.8906 15.2832 13.2324 15.2832C13.4863 15.2832 13.7695 15.127 13.7695 14.6973L13.7695 11.543C13.7695 10.8301 14.043 10.0391 14.9023 10.0391C15.1074 10.0391 15.3125 10.0195 15.459 9.92188C15.5957 9.85352 15.6738 9.7168 15.6738 9.54102C15.6738 9.16992 15.3906 8.96484 15.0195 8.96484C14.375 8.96484 13.9258 9.53125 13.7793 10.1855Z" fill="white" fill-opacity="0.85"/>
 </g>
</svg>
