<?xml version="1.0" encoding="UTF-8"?>
<!--Generator: Apple Native CoreSVG 341-->
<!DOCTYPE svg
PUBLIC "-//W3C//DTD SVG 1.1//EN"
       "http://www.w3.org/Graphics/SVG/1.1/DTD/svg11.dtd">
<svg version="1.1" xmlns="http://www.w3.org/2000/svg" xmlns:xlink="http://www.w3.org/1999/xlink" viewBox="0 0 20.2832 19.9316">
 <g>
  <rect height="19.9316" opacity="0" width="20.2832" x="0" y="0"/>
  <path d="M19.9219 9.96094C19.9219 15.4492 15.459 19.9219 9.96094 19.9219C4.47266 19.9219 0 15.4492 0 9.96094C0 4.46289 4.47266 0 9.96094 0C15.459 0 19.9219 4.46289 19.9219 9.96094ZM6.66016 5.3125C6.26953 5.3125 5.98633 5.55664 5.98633 5.97656C5.98633 6.37695 6.26953 6.64062 6.66016 6.64062L9.14062 6.64062L9.14062 13.7012C9.14062 14.2383 9.41406 14.6191 9.93164 14.6191C10.4688 14.6191 10.752 14.2578 10.752 13.7012L10.752 6.64062L13.252 6.64062C13.6426 6.64062 13.9355 6.37695 13.9355 5.97656C13.9355 5.55664 13.6426 5.3125 13.252 5.3125Z" fill="white" fill-opacity="0.85"/>
 </g>
</svg>
