<?xml version="1.0" encoding="UTF-8"?>
<!--Generator: Apple Native CoreSVG 341-->
<!DOCTYPE svg
PUBLIC "-//W3C//DTD SVG 1.1//EN"
       "http://www.w3.org/Graphics/SVG/1.1/DTD/svg11.dtd">
<svg version="1.1" xmlns="http://www.w3.org/2000/svg" xmlns:xlink="http://www.w3.org/1999/xlink" viewBox="0 0 22.0996 18.877">
 <g>
  <rect height="18.877" opacity="0" width="22.0996" x="0" y="0"/>
  <path d="M20.8301 13.3398C21.3672 13.3398 21.8066 12.8906 21.8066 12.3633C21.8066 11.8164 21.3672 11.3867 20.8301 11.3867C20.3027 11.3867 19.8535 11.8164 19.8535 12.3633C19.8535 12.8906 20.3027 13.3398 20.8301 13.3398ZM19.873 16.3867C20.4004 16.3867 20.8496 15.9375 20.8496 15.4102C20.8496 14.8633 20.4004 14.4238 19.873 14.4238C19.3359 14.4238 18.8965 14.8633 18.8965 15.4102C18.8965 15.9375 19.3359 16.3867 19.873 16.3867ZM17.959 18.877C18.5059 18.877 18.9355 18.4277 18.9355 17.9004C18.9355 17.3535 18.5059 16.9238 17.959 16.9238C17.4316 16.9238 16.9824 17.3535 16.9824 17.9004C16.9824 18.4277 17.4316 18.877 17.959 18.877Z" fill="white" fill-opacity="0.425"/>
  <path d="M10.8691 0.0195312C4.86328 0.0195312 0 4.88281 0 10.8887C0 13.8477 1.18164 16.5625 3.14453 18.5352C3.4668 18.8672 3.99414 18.8867 4.36523 18.5449C4.6582 18.252 4.59961 17.7148 4.20898 17.2949C2.63672 15.6543 1.68945 13.3691 1.68945 10.8887C1.68945 5.75195 5.74219 1.67969 10.8691 1.67969C15.4785 1.67969 19.2188 4.98047 19.9023 9.375C20.0293 10.0195 20.6055 10.2344 21.0449 10.0684C21.3965 9.93164 21.6602 9.57031 21.543 9.01367C20.6836 3.90625 16.2305 0.0195312 10.8691 0.0195312Z" fill="white" fill-opacity="0.425"/>
  <path d="M9.7168 12.2754C10.4199 12.9785 11.4355 12.9785 12.1387 12.2754C12.8418 11.5723 12.8418 10.5566 12.1387 9.85352C12.0117 9.7168 11.7285 9.51172 11.5527 9.39453L6.34766 5.78125C6.08398 5.5957 5.83008 5.6543 5.67383 5.80078C5.51758 5.9668 5.45898 6.21094 5.64453 6.48438L9.25781 11.6895C9.375 11.8652 9.58008 12.1387 9.7168 12.2754Z" fill="white" fill-opacity="0.85"/>
 </g>
</svg>
