<?xml version="1.0" encoding="UTF-8"?>
<!--Generator: Apple Native CoreSVG 341-->
<!DOCTYPE svg
PUBLIC "-//W3C//DTD SVG 1.1//EN"
       "http://www.w3.org/Graphics/SVG/1.1/DTD/svg11.dtd">
<svg version="1.1" xmlns="http://www.w3.org/2000/svg" xmlns:xlink="http://www.w3.org/1999/xlink" viewBox="0 0 22.1826 22.8003">
 <g>
  <rect height="22.8003" opacity="0" width="22.1826" x="0" y="0"/>
  <path d="M14.8038 18.4524L11.5161 21.7468C10.1196 23.1433 8.68409 23.1628 7.24855 21.7371L1.06691 15.5652C-0.36864 14.1394-0.339343 12.6941 1.05714 11.2976L4.35641 8.00509ZM18.5864 1.97144L20.8325 4.21753C21.5747 4.95972 21.8189 5.28199 21.8189 6.31714L21.8189 10.0281C21.8189 11.0535 21.77 11.4734 21.0376 12.2058L17.4817 15.769L7.03982 5.32717L10.6079 1.76636C11.3403 1.03394 11.7505 0.985111 12.7759 0.985111L16.4966 0.985111C17.5318 0.985111 17.854 1.23902 18.5864 1.97144ZM13.5181 7.45972C13.5181 8.20191 14.0845 8.79761 14.856 8.79761C15.6177 8.79761 16.1939 8.20191 16.1939 7.45972C16.1939 6.70777 15.6177 6.12183 14.856 6.12183C14.0845 6.12183 13.5181 6.70777 13.5181 7.45972Z" fill="white" fill-opacity="0.85"/>
  <path d="M18.8696 20.8972C19.1626 21.1902 19.6411 21.1902 19.9243 20.8972C20.2173 20.6043 20.2271 20.1257 19.9243 19.8328L2.9712 2.87964C2.67824 2.58667 2.19972 2.57691 1.89699 2.87964C1.61378 3.16284 1.61378 3.65113 1.89699 3.94409Z" fill="white" fill-opacity="0.85"/>
 </g>
</svg>
