<?xml version="1.0" encoding="UTF-8"?>
<!--Generator: Apple Native CoreSVG 341-->
<!DOCTYPE svg
PUBLIC "-//W3C//DTD SVG 1.1//EN"
       "http://www.w3.org/Graphics/SVG/1.1/DTD/svg11.dtd">
<svg version="1.1" xmlns="http://www.w3.org/2000/svg" xmlns:xlink="http://www.w3.org/1999/xlink" viewBox="0 0 21.1263 24.0723">
 <g>
  <rect height="24.0723" opacity="0" width="21.1263" x="0" y="0"/>
  <path d="M10.3727 13.6328C14.0153 13.6328 16.9743 10.6738 16.9743 7.03125C16.9743 6.89453 16.9743 6.76758 16.9645 6.63086C18.5954 6.46484 19.8649 5.08789 19.8649 3.4082C19.8649 1.63086 18.4196 0.185547 16.6325 0.185547C15.5583 0.185547 14.6012 0.712891 14.0153 1.5332C12.9704 0.830078 11.7204 0.429688 10.3727 0.429688C9.02506 0.429688 7.77506 0.830078 6.73014 1.5332C6.1442 0.712891 5.18717 0.185547 4.11295 0.185547C2.32584 0.185547 0.880528 1.63086 0.880528 3.4082C0.880528 5.08789 2.15006 6.46484 3.78092 6.63086C3.77115 6.76758 3.77115 6.89453 3.77115 7.03125C3.77115 10.6738 6.73014 13.6328 10.3727 13.6328ZM7.82389 6.5918C7.37467 6.5918 6.98404 6.21094 6.98404 5.74219C6.98404 5.27344 7.37467 4.89258 7.82389 4.89258C8.29264 4.89258 8.6735 5.27344 8.6735 5.74219C8.6735 6.21094 8.29264 6.5918 7.82389 6.5918ZM12.9313 6.5918C12.4626 6.5918 12.0817 6.21094 12.0817 5.74219C12.0817 5.27344 12.4626 4.89258 12.9313 4.89258C13.3805 4.89258 13.7712 5.27344 13.7712 5.74219C13.7712 6.21094 13.3805 6.5918 12.9313 6.5918ZM4.11295 1.58203C4.75748 1.58203 5.32389 1.91406 5.64615 2.43164C4.8942 3.19336 4.31803 4.16016 4.02506 5.22461C3.9567 5.22461 3.89811 5.21484 3.84928 5.20508C2.96061 5.07812 2.28678 4.32617 2.28678 3.4082C2.28678 2.40234 3.10709 1.58203 4.11295 1.58203ZM16.6325 1.58203C17.6383 1.58203 18.4587 2.40234 18.4587 3.4082C18.4587 4.31641 17.7848 5.08789 16.8962 5.20508C16.8376 5.21484 16.7594 5.22461 16.7204 5.22461C16.4274 4.16016 15.8512 3.19336 15.0993 2.43164C15.4215 1.91406 15.9879 1.58203 16.6325 1.58203ZM10.3922 12.8125C8.71256 12.8125 7.37467 11.4648 7.37467 9.79492C7.37467 8.13477 8.72232 6.77734 10.3922 6.77734C12.0524 6.77734 13.4098 8.125 13.4098 9.79492C13.4098 11.4551 12.0426 12.8125 10.3922 12.8125ZM10.3727 10.1758C10.9587 10.1758 11.8962 9.29688 11.8962 9.05273C11.8962 8.65234 11.2516 8.0957 10.3727 8.0957C9.49381 8.0957 8.81998 8.65234 8.81998 9.05273C8.81998 9.29688 9.79654 10.1758 10.3727 10.1758ZM18.8004 12.2559L15.2165 10.6348L11.3102 13.2422L9.45475 13.2422L5.5485 10.6348L1.96451 12.2559C0.255528 13.0273-0.467128 15.0684 0.314122 16.7578C0.714512 17.5977 1.40787 18.2031 2.24772 18.4863C2.76529 16.6016 4.19107 15.2637 5.91959 15.2637C8.10709 15.2637 9.81607 17.4121 9.81607 20.0977C9.81607 21.2891 9.47428 22.373 8.91764 23.2227C9.83561 23.3496 10.9196 23.3398 11.8473 23.2227C11.2907 22.373 10.9489 21.2891 10.9489 20.0977C10.9489 17.4121 12.6579 15.2637 14.8454 15.2637C16.5739 15.2637 17.9997 16.6016 18.5172 18.4863C19.3571 18.2031 20.0504 17.5977 20.4508 16.7578C21.2321 15.0684 20.5094 13.0273 18.8004 12.2559ZM5.91959 24.0723C7.60904 24.0723 8.9274 22.2949 8.9274 20.0977C8.9274 17.9297 7.60904 16.1523 5.91959 16.1523C4.23014 16.1523 2.91178 17.9297 2.91178 20.0977C2.91178 22.2949 4.23014 24.0723 5.91959 24.0723ZM14.8454 24.0723C16.5348 24.0723 17.8532 22.2949 17.8532 20.0977C17.8532 17.9297 16.5348 16.1523 14.8454 16.1523C13.1559 16.1523 11.8376 17.9297 11.8376 20.0977C11.8376 22.2949 13.1559 24.0723 14.8454 24.0723Z" fill="white" fill-opacity="0.85"/>
 </g>
</svg>
