<?xml version="1.0" encoding="UTF-8"?>
<!--Generator: Apple Native CoreSVG 341-->
<!DOCTYPE svg
PUBLIC "-//W3C//DTD SVG 1.1//EN"
       "http://www.w3.org/Graphics/SVG/1.1/DTD/svg11.dtd">
<svg version="1.1" xmlns="http://www.w3.org/2000/svg" xmlns:xlink="http://www.w3.org/1999/xlink" viewBox="0 0 20.0391 16.9238">
 <g>
  <rect height="16.9238" opacity="0" width="20.0391" x="0" y="0"/>
  <path d="M19.6777 16.123C19.6777 16.5625 19.3164 16.9043 18.877 16.9043L0.78125 16.9043C0.341797 16.9043 0 16.5625 0 16.123C0 15.6836 0.341797 15.332 0.78125 15.332L18.877 15.332C19.3164 15.332 19.6777 15.6836 19.6777 16.123Z" fill="white" fill-opacity="0.425"/>
  <path d="M19.6777 11.0156C19.6777 11.4551 19.3164 11.7969 18.877 11.7969L0.78125 11.7969C0.341797 11.7969 0 11.4551 0 11.0156C0 10.5664 0.341797 10.2246 0.78125 10.2246L18.877 10.2246C19.3164 10.2246 19.6777 10.5664 19.6777 11.0156Z" fill="white" fill-opacity="0.425"/>
  <path d="M19.6777 5.89844C19.6777 6.33789 19.3164 6.68945 18.877 6.68945L12.2949 6.68945C11.8555 6.68945 11.5137 6.33789 11.5137 5.89844C11.5137 5.45898 11.8555 5.11719 12.2949 5.11719L18.877 5.11719C19.3164 5.11719 19.6777 5.45898 19.6777 5.89844Z" fill="white" fill-opacity="0.425"/>
  <path d="M19.6777 0.791016C19.6777 1.23047 19.3164 1.57227 18.877 1.57227L12.2949 1.57227C11.8555 1.57227 11.5137 1.23047 11.5137 0.791016C11.5137 0.351562 11.8555 0 12.2949 0L18.877 0C19.3164 0 19.6777 0.351562 19.6777 0.791016Z" fill="white" fill-opacity="0.425"/>
  <path d="M5.23438 4.33594L2.50977 4.33594C2.22656 4.33594 2.08008 4.48242 2.08008 4.76562L2.08008 6.45508C2.08008 6.99219 1.65039 7.42188 1.12305 7.42188C0.585938 7.42188 0.15625 6.99219 0.15625 6.45508L0.15625 4.50195C0.15625 3.16406 0.957031 2.41211 2.37305 2.41211L5.23438 2.41211Z" fill="white" fill-opacity="0.85"/>
  <path d="M5.23438 1.17188L5.23438 5.68359C5.23438 6.34766 5.82031 6.65039 6.36719 6.23047L9.28711 4.00391C9.66797 3.70117 9.66797 3.1543 9.28711 2.85156L6.36719 0.625C5.82031 0.205078 5.23438 0.507812 5.23438 1.17188Z" fill="white" fill-opacity="0.85"/>
 </g>
</svg>
