<?xml version="1.0" encoding="UTF-8"?>
<!--Generator: Apple Native CoreSVG 341-->
<!DOCTYPE svg
PUBLIC "-//W3C//DTD SVG 1.1//EN"
       "http://www.w3.org/Graphics/SVG/1.1/DTD/svg11.dtd">
<svg version="1.1" xmlns="http://www.w3.org/2000/svg" xmlns:xlink="http://www.w3.org/1999/xlink" viewBox="0 0 20.0391 16.9238">
 <g>
  <rect height="16.9238" opacity="0" width="20.0391" x="0" y="0"/>
  <path d="M19.6777 16.123C19.6777 16.5625 19.3164 16.9043 18.877 16.9043L12.2949 16.9043C11.8555 16.9043 11.5137 16.5625 11.5137 16.123C11.5137 15.6836 11.8555 15.332 12.2949 15.332L18.877 15.332C19.3164 15.332 19.6777 15.6836 19.6777 16.123Z" fill="white" fill-opacity="0.85"/>
  <path d="M19.6777 11.0156C19.6777 11.4551 19.3164 11.7969 18.877 11.7969L12.2949 11.7969C11.8555 11.7969 11.5137 11.4551 11.5137 11.0156C11.5137 10.5664 11.8555 10.2246 12.2949 10.2246L18.877 10.2246C19.3164 10.2246 19.6777 10.5664 19.6777 11.0156Z" fill="white" fill-opacity="0.85"/>
  <path d="M19.6777 5.89844C19.6777 6.33789 19.3164 6.68945 18.877 6.68945L0.78125 6.68945C0.341797 6.68945 0 6.33789 0 5.89844C0 5.45898 0.341797 5.11719 0.78125 5.11719L18.877 5.11719C19.3164 5.11719 19.6777 5.45898 19.6777 5.89844Z" fill="white" fill-opacity="0.85"/>
  <path d="M19.6777 0.791016C19.6777 1.23047 19.3164 1.57227 18.877 1.57227L0.78125 1.57227C0.341797 1.57227 0 1.23047 0 0.791016C0 0.351562 0.341797 0 0.78125 0L18.877 0C19.3164 0 19.6777 0.351562 19.6777 0.791016Z" fill="white" fill-opacity="0.85"/>
  <path d="M2.08008 10.4492L2.08008 12.1484C2.08008 12.4219 2.22656 12.5781 2.50977 12.5781L5.23438 12.5781L5.23438 14.4922L2.37305 14.4922C0.957031 14.4922 0.15625 13.75 0.15625 12.4121L0.15625 10.4492C0.15625 9.92188 0.585938 9.49219 1.12305 9.49219C1.65039 9.49219 2.08008 9.92188 2.08008 10.4492Z" fill="white" fill-opacity="0.85"/>
  <path d="M5.23438 15.7422C5.23438 16.3965 5.82031 16.709 6.36719 16.2891L9.28711 14.0527C9.66797 13.7598 9.66797 13.2031 9.28711 12.9102L6.36719 10.6738C5.82031 10.2637 5.23438 10.5664 5.23438 11.2207Z" fill="white" fill-opacity="0.85"/>
 </g>
</svg>
