<?xml version="1.0" encoding="UTF-8"?>
<!--Generator: Apple Native CoreSVG 341-->
<!DOCTYPE svg
PUBLIC "-//W3C//DTD SVG 1.1//EN"
       "http://www.w3.org/Graphics/SVG/1.1/DTD/svg11.dtd">
<svg version="1.1" xmlns="http://www.w3.org/2000/svg" xmlns:xlink="http://www.w3.org/1999/xlink" viewBox="0 0 20.0391 16.9238">
 <g>
  <rect height="16.9238" opacity="0" width="20.0391" x="0" y="0"/>
  <path d="M8.53516 16.9043L18.877 16.9043C19.3164 16.9043 19.6777 16.5625 19.6777 16.123C19.6777 15.6836 19.3164 15.332 18.877 15.332L8.53516 15.332C8.0957 15.332 7.75391 15.6836 7.75391 16.123C7.75391 16.5625 8.0957 16.9043 8.53516 16.9043Z" fill="white" fill-opacity="0.85"/>
  <path d="M0.78125 11.7969L18.877 11.7969C19.3164 11.7969 19.6777 11.4551 19.6777 11.0156C19.6777 10.5664 19.3164 10.2246 18.877 10.2246L0.78125 10.2246C0.341797 10.2246 0 10.5664 0 11.0156C0 11.4551 0.341797 11.7969 0.78125 11.7969Z" fill="white" fill-opacity="0.85"/>
  <path d="M0.78125 6.68945L18.877 6.68945C19.3164 6.68945 19.6777 6.33789 19.6777 5.89844C19.6777 5.45898 19.3164 5.11719 18.877 5.11719L0.78125 5.11719C0.341797 5.11719 0 5.45898 0 5.89844C0 6.33789 0.341797 6.68945 0.78125 6.68945Z" fill="white" fill-opacity="0.85"/>
  <path d="M0.78125 1.57227L18.877 1.57227C19.3164 1.57227 19.6777 1.23047 19.6777 0.791016C19.6777 0.351562 19.3164 0 18.877 0L0.78125 0C0.341797 0 0 0.351562 0 0.791016C0 1.23047 0.341797 1.57227 0.78125 1.57227Z" fill="white" fill-opacity="0.85"/>
 </g>
</svg>
