<?xml version="1.0" encoding="UTF-8"?>
<!--Generator: Apple Native CoreSVG 341-->
<!DOCTYPE svg
PUBLIC "-//W3C//DTD SVG 1.1//EN"
       "http://www.w3.org/Graphics/SVG/1.1/DTD/svg11.dtd">
<svg version="1.1" xmlns="http://www.w3.org/2000/svg" xmlns:xlink="http://www.w3.org/1999/xlink" viewBox="0 0 20.0391 16.9238">
 <g>
  <rect height="16.9238" opacity="0" width="20.0391" x="0" y="0"/>
  <path d="M0.78125 16.9043L11.1328 16.9043C11.5723 16.9043 11.9238 16.5625 11.9238 16.123C11.9238 15.6836 11.5723 15.332 11.1328 15.332L0.78125 15.332C0.341797 15.332 0 15.6836 0 16.123C0 16.5625 0.341797 16.9043 0.78125 16.9043Z" fill="white" fill-opacity="0.85"/>
  <path d="M8.01758 11.7676L18.8867 11.7676C19.3262 11.7676 19.6777 11.4258 19.6777 10.9863C19.6777 10.5371 19.3262 10.1953 18.8867 10.1953L8.01758 10.1953C7.56836 10.1953 7.2168 10.5371 7.2168 10.9863C7.2168 11.4258 7.56836 11.7676 8.01758 11.7676Z" fill="white" fill-opacity="0.85"/>
  <path d="M0.791016 11.7676L4.99023 11.7676C5.42969 11.7676 5.78125 11.4258 5.78125 10.9863C5.78125 10.5371 5.42969 10.1953 4.99023 10.1953L0.791016 10.1953C0.351562 10.1953 0 10.5371 0 10.9863C0 11.4258 0.351562 11.7676 0.791016 11.7676Z" fill="white" fill-opacity="0.85"/>
  <path d="M13.9355 6.68945L18.877 6.68945C19.3164 6.68945 19.6777 6.33789 19.6777 5.89844C19.6777 5.45898 19.3164 5.11719 18.877 5.11719L13.9355 5.11719C13.4961 5.11719 13.1445 5.45898 13.1445 5.89844C13.1445 6.33789 13.4961 6.68945 13.9355 6.68945Z" fill="white" fill-opacity="0.85"/>
  <path d="M5.9668 6.68945L10.9082 6.68945C11.3574 6.68945 11.709 6.33789 11.709 5.89844C11.709 5.45898 11.3574 5.11719 10.9082 5.11719L5.9668 5.11719C5.52734 5.11719 5.18555 5.45898 5.18555 5.89844C5.18555 6.33789 5.52734 6.68945 5.9668 6.68945Z" fill="white" fill-opacity="0.85"/>
  <path d="M0.78125 6.68945L2.93945 6.68945C3.38867 6.68945 3.74023 6.33789 3.74023 5.89844C3.74023 5.45898 3.38867 5.11719 2.93945 5.11719L0.78125 5.11719C0.341797 5.11719 0 5.45898 0 5.89844C0 6.33789 0.341797 6.68945 0.78125 6.68945Z" fill="white" fill-opacity="0.85"/>
  <path d="M14.6777 1.57227L18.877 1.57227C19.3164 1.57227 19.6777 1.23047 19.6777 0.791016C19.6777 0.351562 19.3164 0 18.877 0L14.6777 0C14.2383 0 13.8965 0.351562 13.8965 0.791016C13.8965 1.23047 14.2383 1.57227 14.6777 1.57227Z" fill="white" fill-opacity="0.85"/>
  <path d="M0.78125 1.57227L11.6602 1.57227C12.0996 1.57227 12.4512 1.23047 12.4512 0.791016C12.4512 0.351562 12.0996 0 11.6602 0L0.78125 0C0.341797 0 0 0.351562 0 0.791016C0 1.23047 0.341797 1.57227 0.78125 1.57227Z" fill="white" fill-opacity="0.85"/>
 </g>
</svg>
