<?xml version="1.0" encoding="UTF-8"?>
<!--Generator: Apple Native CoreSVG 341-->
<!DOCTYPE svg
PUBLIC "-//W3C//DTD SVG 1.1//EN"
       "http://www.w3.org/Graphics/SVG/1.1/DTD/svg11.dtd">
<svg version="1.1" xmlns="http://www.w3.org/2000/svg" xmlns:xlink="http://www.w3.org/1999/xlink" viewBox="0 0 19.4922 23.9551">
 <g>
  <rect height="23.9551" opacity="0" width="19.4922" x="0" y="0"/>
  <path d="M0.78125 23.9551L18.3398 23.9551C18.7695 23.9551 19.1309 23.5938 19.1309 23.1641C19.1309 22.7344 18.7695 22.3828 18.3398 22.3828L0.78125 22.3828C0.351562 22.3828 0 22.7344 0 23.1641C0 23.5938 0.351562 23.9551 0.78125 23.9551Z" fill="white" fill-opacity="0.85"/>
  <path d="M0.78125 19.0234L18.3398 19.0234C18.7695 19.0234 19.1309 18.6621 19.1309 18.2324C19.1309 17.8027 18.7695 17.4512 18.3398 17.4512L0.78125 17.4512C0.351562 17.4512 0 17.8027 0 18.2324C0 18.6621 0.351562 19.0234 0.78125 19.0234Z" fill="white" fill-opacity="0.85"/>
  <path d="M2.64648 14.0918L16.7383 14.0918C18.252 14.0918 19.1309 13.2129 19.1309 11.4844L19.1309 4.15039C19.1309 2.41211 18.2422 1.54297 16.4844 1.54297L8.38867 1.54297C7.8125 1.54297 7.48047 1.40625 7.06055 1.05469L6.54297 0.615234C5.98633 0.15625 5.55664 0 4.72656 0L2.31445 0C0.839844 0 0 0.839844 0 2.5293L0 11.4844C0 13.2129 0.878906 14.0918 2.64648 14.0918ZM2.65625 12.6953C1.8457 12.6953 1.38672 12.2656 1.38672 11.4062L1.38672 2.59766C1.38672 1.78711 1.81641 1.37695 2.58789 1.37695L4.375 1.37695C4.93164 1.37695 5.25391 1.50391 5.67383 1.875L6.19141 2.29492C6.73828 2.75391 7.20703 2.92969 8.04688 2.92969L16.4746 2.92969C17.2754 2.92969 17.7441 3.36914 17.7441 4.21875L17.7441 11.416C17.7441 12.2656 17.2754 12.6953 16.4746 12.6953ZM2.37305 5.23438L16.748 5.23438L16.748 4.72656C16.748 4.18945 16.4648 3.92578 15.9082 3.92578L3.22266 3.92578C2.65625 3.92578 2.37305 4.18945 2.37305 4.72656Z" fill="white" fill-opacity="0.85"/>
 </g>
</svg>
