<?xml version="1.0" encoding="UTF-8"?>
<!--Generator: Apple Native CoreSVG 341-->
<!DOCTYPE svg
PUBLIC "-//W3C//DTD SVG 1.1//EN"
       "http://www.w3.org/Graphics/SVG/1.1/DTD/svg11.dtd">
<svg version="1.1" xmlns="http://www.w3.org/2000/svg" xmlns:xlink="http://www.w3.org/1999/xlink" viewBox="0 0 25.5525 26.3908">
 <g>
  <rect height="26.3908" opacity="0" width="25.5525" x="0" y="0"/>
  <path d="M14.8661 2.90732L16.2878 8.21346C15.3015 9.35231 14.2972 10.5739 13.3763 11.7515C13.4713 11.4497 13.5267 11.1275 13.538 10.7882C13.5673 10.3585 13.1962 10.2218 12.8349 10.4757C12.1122 11.0128 11.2235 11.4132 9.87587 11.7843C8.52821 12.1358 7.55165 12.2433 6.66298 12.1261C6.22352 12.0968 5.96962 12.3995 6.21376 12.7511C7.14149 14.2354 8.86024 14.7433 10.5497 14.3038C11.1659 14.1364 11.7223 13.8573 12.1823 13.4838C11.8329 14.1756 11.6234 14.933 11.5751 15.7687C10.872 15.9542 10.2079 16.3253 9.67079 16.8722C9.18841 17.3577 8.88857 17.8948 8.7025 18.4063C5.8778 18.0682 3.64574 15.9875 2.76649 12.7218L1.12587 6.5792C0.666883 4.88974 1.33095 3.7667 3.03016 3.30771L11.5653 1.02256C13.2645 0.573339 14.4071 1.2081 14.8661 2.90732ZM5.71571 7.22373C4.87587 7.44834 4.40712 8.25889 4.63173 9.0499C4.71962 9.40146 4.91493 9.57724 5.10048 9.53818C5.37391 9.45029 5.48134 9.01084 6.1454 8.83506C6.80946 8.65928 7.12196 8.99131 7.40516 8.91318C7.59071 8.87412 7.66884 8.61045 7.58095 8.26865C7.3661 7.46787 6.55555 6.99912 5.71571 7.22373ZM11.1942 5.74912C10.3641 5.97373 9.8954 6.79404 10.1102 7.58506C10.2079 7.92685 10.3934 8.1124 10.5888 8.06357C10.8622 7.98545 10.9696 7.54599 11.6337 7.36045C12.2977 7.18467 12.6102 7.5167 12.8837 7.44834C13.079 7.39951 13.1474 7.1456 13.0595 6.80381C12.8446 6.00303 12.0341 5.53428 11.1942 5.74912Z" fill="white" fill-opacity="0.425"/>
  <path d="M21.2528 4.96787C20.7157 5.43662 17.3563 8.66904 14.7587 12.1358C17.0536 12.4386 19.0458 13.8253 20.12 15.9054C22.4638 12.1163 23.8016 7.79014 24.0653 7.08701C24.7977 5.0167 22.7763 3.67881 21.2528 4.96787ZM15.5985 16.6476C16.4286 17.2237 17.1122 18.0636 17.3759 18.8058C18.1376 18.5323 18.7138 18.044 19.2118 17.3312C19.2997 17.2042 19.3974 17.0675 19.4755 16.9308C18.6454 14.6847 16.37 13.1222 14.0165 13.1026C13.9091 13.2296 13.8016 13.3761 13.704 13.5226C13.2157 14.2354 12.9618 14.9679 12.9716 15.7296C13.7431 15.7198 14.7782 16.0714 15.5985 16.6476ZM7.62977 23.4444C9.64149 25.4659 13.3329 25.6319 15.3349 23.6495C17.0438 21.9503 17.1024 19.7628 15.4813 18.1319C14.0263 16.6671 11.829 16.5694 10.6181 17.7999C9.23134 19.2159 10.1591 20.6612 9.28993 21.5304C8.56727 22.2628 7.93251 21.9991 7.53212 22.38C7.24891 22.6437 7.22938 23.044 7.62977 23.4444Z" fill="white" fill-opacity="0.85"/>
 </g>
</svg>
