<?xml version="1.0" encoding="UTF-8"?>
<!--Generator: Apple Native CoreSVG 341-->
<!DOCTYPE svg
PUBLIC "-//W3C//DTD SVG 1.1//EN"
       "http://www.w3.org/Graphics/SVG/1.1/DTD/svg11.dtd">
<svg version="1.1" xmlns="http://www.w3.org/2000/svg" xmlns:xlink="http://www.w3.org/1999/xlink" viewBox="0 0 20.2832 19.9316">
 <g>
  <rect height="19.9316" opacity="0" width="20.2832" x="0" y="0"/>
  <path d="M19.9219 9.96094C19.9219 15.4492 15.459 19.9219 9.96094 19.9219C4.47266 19.9219 0 15.4492 0 9.96094C0 4.46289 4.47266 0 9.96094 0C15.459 0 19.9219 4.46289 19.9219 9.96094ZM6.37695 6.62109L6.37695 11.4355C6.37695 11.582 6.35742 11.6406 6.24023 11.7383C5.60547 12.3047 5.27344 13.0371 5.27344 13.8477C5.27344 15.3906 6.52344 16.6406 8.08594 16.6406C9.62891 16.6406 10.8789 15.3906 10.8789 13.8477C10.8789 13.0371 10.5371 12.3047 9.89258 11.7383C9.79492 11.6406 9.77539 11.582 9.77539 11.4355L9.78516 6.62109C9.78516 5.52734 9.0918 4.76562 8.08594 4.76562C7.06055 4.76562 6.37695 5.52734 6.37695 6.62109ZM8.93555 6.65039L8.93555 11.7676C8.93555 12.002 8.99414 12.1094 9.17969 12.2168C9.72656 12.5879 10.0391 13.1836 10.0391 13.8477C10.0391 14.9512 9.16016 15.8203 8.08594 15.8203C6.97266 15.8203 6.11328 14.9512 6.11328 13.8477C6.11328 13.1836 6.41602 12.5879 6.96289 12.2168C7.14844 12.1094 7.20703 12.002 7.20703 11.7676L7.20703 6.65039C7.20703 6.01562 7.54883 5.61523 8.08594 5.61523C8.59375 5.61523 8.93555 6.01562 8.93555 6.65039ZM7.68555 11.2695L7.68555 12.2949C7.68555 12.5293 7.63672 12.6074 7.46094 12.6855C7.06055 12.9199 6.76758 13.3398 6.76758 13.8379C6.76758 14.5703 7.34375 15.1562 8.06641 15.1562C8.80859 15.1562 9.38477 14.5605 9.38477 13.8379C9.38477 13.3398 9.0918 12.9199 8.67188 12.6855C8.51562 12.6074 8.4668 12.5293 8.4668 12.2949L8.4668 11.2695C8.4668 10.9961 8.29102 10.8203 8.06641 10.8203C7.85156 10.8203 7.68555 10.9961 7.68555 11.2695ZM11.5527 3.80859L11.5598 4.53899L11.0059 4.20898C10.8105 4.11133 10.5957 4.15039 10.498 4.33594C10.3906 4.52148 10.459 4.72656 10.6543 4.83398L11.5677 5.36065L11.585 7.14762L10.4395 6.47461C10.4688 6.74805 10.4883 7.02148 10.498 7.31445L11.2372 7.73682L10.498 8.1543C10.498 8.42773 10.4883 8.70117 10.4883 8.97461L11.5869 8.33059L11.5686 10.1165L10.6445 10.6445L10.918 11.3086L11.5603 10.9344L11.5527 11.6699C11.5527 11.9043 11.709 12.0898 11.9336 12.0898C12.168 12.0898 12.3145 11.9043 12.3145 11.6699L12.3052 10.9475L12.8516 11.2695C13.0566 11.377 13.2715 11.3379 13.3691 11.1523C13.4766 10.957 13.3984 10.752 13.2031 10.6445L12.2946 10.1207L12.2719 8.34006L13.8086 9.24832L13.8086 10.3027C13.8086 10.5273 13.9453 10.6836 14.1602 10.6934C14.375 10.7031 14.5117 10.5371 14.5117 10.3125L14.5117 9.66389L15.1465 10.0391C15.332 10.1465 15.5762 10.127 15.6836 9.91211C15.8008 9.7168 15.7129 9.50195 15.5273 9.375L14.8928 9.01815L15.4492 8.71094C15.6348 8.59375 15.7129 8.37891 15.6055 8.20312C15.4883 8.02734 15.2832 7.97852 15.0879 8.08594L14.173 8.61343L12.6211 7.74073L14.1742 6.86578L15.0879 7.39258C15.2832 7.50977 15.4883 7.48047 15.6055 7.28516C15.7129 7.09961 15.6348 6.89453 15.4492 6.78711L14.8863 6.46462L15.5273 6.10352C15.7227 5.98633 15.8008 5.77148 15.6934 5.57617C15.5859 5.38086 15.3418 5.3418 15.1465 5.43945L14.5157 5.81143L14.5215 5.16602C14.5117 4.95117 14.375 4.78516 14.1602 4.79492C13.9453 4.78516 13.8086 4.96094 13.8086 5.17578L13.8086 6.22837L12.2743 7.1331L12.2958 5.35716L13.2031 4.83398C13.3984 4.72656 13.4766 4.52148 13.3691 4.33594C13.2715 4.15039 13.0566 4.11133 12.8516 4.20898L12.3057 4.53074L12.3145 3.80859C12.3145 3.57422 12.168 3.39844 11.9336 3.39844C11.709 3.39844 11.5527 3.57422 11.5527 3.80859Z" fill="white" fill-opacity="0.85"/>
 </g>
</svg>
