<?xml version="1.0" encoding="UTF-8"?>
<!--Generator: Apple Native CoreSVG 341-->
<!DOCTYPE svg
PUBLIC "-//W3C//DTD SVG 1.1//EN"
       "http://www.w3.org/Graphics/SVG/1.1/DTD/svg11.dtd">
<svg version="1.1" xmlns="http://www.w3.org/2000/svg" xmlns:xlink="http://www.w3.org/1999/xlink" viewBox="0 0 20.2832 19.9316">
 <g>
  <rect height="19.9316" opacity="0" width="20.2832" x="0" y="0"/>
  <path d="M9.96094 19.9219C15.459 19.9219 19.9219 15.459 19.9219 9.96094C19.9219 4.46289 15.459 0 9.96094 0C4.46289 0 0 4.46289 0 9.96094C0 15.459 4.46289 19.9219 9.96094 19.9219ZM9.96094 18.2617C5.37109 18.2617 1.66016 14.5508 1.66016 9.96094C1.66016 5.37109 5.37109 1.66016 9.96094 1.66016C14.5508 1.66016 18.2617 5.37109 18.2617 9.96094C18.2617 14.5508 14.5508 18.2617 9.96094 18.2617Z" fill="white" fill-opacity="0.425"/>
  <path d="M6.77734 4.93164L13.125 4.93164C13.3594 4.93164 13.5449 4.73633 13.5449 4.51172C13.5449 4.28711 13.3594 4.0918 13.125 4.0918L6.77734 4.0918C6.54297 4.0918 6.35742 4.28711 6.35742 4.51172C6.35742 4.73633 6.55273 4.93164 6.77734 4.93164ZM9.96094 7.8418C11.1523 7.8418 12.1777 7.99805 12.9004 8.30078L13.1055 5.52734L6.79688 5.52734L7.00195 8.30078C7.73438 8.00781 8.76953 7.8418 9.96094 7.8418ZM9.95117 10.9961C12.041 10.9961 13.5254 10.459 13.5254 9.70703C13.5254 8.96484 12.0215 8.4375 9.95117 8.4375C7.89062 8.4375 6.37695 8.96484 6.37695 9.70703C6.37695 10.459 7.89062 10.9961 9.95117 10.9961ZM9.95117 10.2148C8.47656 10.2148 7.51953 10 7.51953 9.70703C7.51953 9.42383 8.47656 9.20898 9.95117 9.20898C11.4355 9.20898 12.3828 9.42383 12.3828 9.70703C12.3828 10 11.4355 10.2148 9.95117 10.2148ZM9.77539 13.418L10.127 13.418C11.8262 13.418 13.125 12.4414 13.4473 10.8008C12.7344 11.2891 11.4941 11.5723 9.95117 11.5723C8.41797 11.5723 7.16797 11.2891 6.45508 10.791C6.76758 12.4414 8.07617 13.418 9.77539 13.418ZM9.95117 16.4941C10.791 16.4941 11.8945 16.2695 12.3828 15.8008C12.5098 15.6641 12.5098 15.4883 12.4609 15.293L11.9531 13.623C11.4062 13.877 10.7617 14.0137 10.127 14.0137L9.75586 14.0137C9.14062 14.0137 8.49609 13.877 7.94922 13.6328L7.44141 15.293C7.39258 15.4883 7.40234 15.6641 7.5293 15.8008C8.00781 16.2695 9.11133 16.4941 9.95117 16.4941Z" fill="white" fill-opacity="0.85"/>
 </g>
</svg>
