<?xml version="1.0" encoding="UTF-8"?>
<!--Generator: Apple Native CoreSVG 341-->
<!DOCTYPE svg
PUBLIC "-//W3C//DTD SVG 1.1//EN"
       "http://www.w3.org/Graphics/SVG/1.1/DTD/svg11.dtd">
<svg version="1.1" xmlns="http://www.w3.org/2000/svg" xmlns:xlink="http://www.w3.org/1999/xlink" viewBox="0 0 31.0938 22.3535">
 <g>
  <rect height="22.3535" opacity="0" width="31.0938" x="0" y="0"/>
  <path d="M17.6367 4.04297L17.6367 4.93164L17.1777 4.93164C16.7796 4.93164 16.4069 4.9673 16.0645 5.04126L16.0645 4.0918C16.0645 2.37305 15.0977 1.47461 13.4668 1.47461L4.16992 1.47461C2.53906 1.47461 1.57227 2.37305 1.57227 4.0918L1.57227 9.76562C1.57227 11.4941 2.54883 12.3828 4.16992 12.3828L5.19531 12.3828C5.61523 12.3828 5.94727 12.627 5.94727 13.1738L5.94727 15.6445L9.0918 12.832C9.47266 12.4902 9.7168 12.3828 10.2441 12.3828L13.0957 12.3828L13.0957 13.8477L10.1855 13.8477L6.92383 16.6406C6.33789 17.1484 6.01562 17.4121 5.53711 17.4121C4.86328 17.4121 4.48242 16.9336 4.48242 16.1914L4.48242 13.8477L4.08203 13.8477C1.63086 13.8477 0 12.373 0 9.81445L0 4.04297C0 1.48438 1.63086 0 4.08203 0L13.5547 0C16.0059 0 17.6367 1.48438 17.6367 4.04297Z" fill="white" fill-opacity="0.425"/>
  <path d="M9.85352 3.36914L12.2656 9.84375C12.4609 10.3809 12.1777 10.8789 11.6016 10.8789C11.2305 10.8789 11.0059 10.6738 10.8594 10.2637L10.2637 8.54492L7.39258 8.54492L6.79688 10.2637C6.66016 10.6738 6.42578 10.8789 6.05469 10.8789C5.48828 10.8789 5.19531 10.3809 5.39062 9.84375L7.79297 3.36914C7.96875 2.89062 8.33008 2.62695 8.81836 2.62695C9.32617 2.62695 9.67773 2.89062 9.85352 3.36914ZM7.79297 7.34375L9.85352 7.34375L8.82324 4.33879Z" fill="white" fill-opacity="0.425"/>
  <path d="M30.7324 8.97461L30.7324 14.7461C30.7324 17.2949 29.1016 18.7793 26.6504 18.7793L26.2402 18.7793L26.2402 21.123C26.2402 21.8652 25.8691 22.3438 25.1953 22.3438C24.7168 22.3438 24.3945 22.0801 23.8086 21.5723L20.5371 18.7793L17.1777 18.7793C14.6094 18.7793 13.0957 17.3047 13.0957 14.7461L13.0957 8.97461C13.0957 6.41602 14.6094 4.93164 17.1777 4.93164L26.6504 4.93164C29.1016 4.93164 30.7324 6.41602 30.7324 8.97461ZM18.7891 9.60938C18.3887 9.60938 18.0957 9.88281 18.0957 10.2539C18.0957 10.6348 18.3887 10.918 18.7891 10.918L19.5312 10.918C19.7949 11.875 20.293 12.7832 20.9766 13.5449C20.3125 13.9844 19.541 14.3066 18.6523 14.5215C18.2715 14.6094 18.0469 14.9707 18.125 15.3613C18.2324 15.752 18.623 15.9277 19.043 15.8105C20.1074 15.5762 21.1035 15.127 21.9922 14.4727C22.8418 15.1172 23.8379 15.5664 24.8242 15.8008C25.3027 15.918 25.7031 15.7715 25.8105 15.3613C25.918 14.9414 25.7227 14.6094 25.3027 14.5215C24.4141 14.3164 23.6523 13.9941 22.9688 13.5449C23.6621 12.8027 24.1504 11.9043 24.4141 10.918L25.166 10.918C25.5664 10.918 25.8594 10.6348 25.8594 10.2539C25.8594 9.88281 25.5664 9.60938 25.166 9.60938ZM21.9922 12.7148C21.5137 12.1875 21.1328 11.5723 20.9082 10.918L23.0469 10.918C22.8223 11.5625 22.4609 12.1777 21.9922 12.7148ZM21.0156 7.02148C20.6836 7.17773 20.5371 7.57812 20.7129 7.93945L21.1816 8.92578C21.3379 9.27734 21.7383 9.41406 22.0801 9.26758C22.4414 9.08203 22.5879 8.69141 22.4121 8.33984L21.9336 7.36328C21.7578 6.99219 21.3672 6.82617 21.0156 7.02148Z" fill="white" fill-opacity="0.85"/>
 </g>
</svg>
