<?xml version="1.0" encoding="UTF-8"?>
<!--Generator: Apple Native CoreSVG 341-->
<!DOCTYPE svg
PUBLIC "-//W3C//DTD SVG 1.1//EN"
       "http://www.w3.org/Graphics/SVG/1.1/DTD/svg11.dtd">
<svg version="1.1" xmlns="http://www.w3.org/2000/svg" xmlns:xlink="http://www.w3.org/1999/xlink" viewBox="0 0 23.9844 17.3408">
 <g>
  <rect height="17.3408" opacity="0" width="23.9844" x="0" y="0"/>
  <path d="M3.50586 9.33935L0.78125 9.33935C0.292969 9.33935 0 9.05614 0 8.60692C0 8.13817 0.292969 7.86474 0.78125 7.86474L3.50586 7.86474ZM18.6426 9.33935L4.98047 9.33935L4.98047 7.86474L18.6426 7.86474ZM23.623 8.60692C23.623 9.05614 23.3301 9.33935 22.8418 9.33935L20.1172 9.33935L20.1172 7.86474L22.8418 7.86474C23.3301 7.86474 23.623 8.13817 23.623 8.60692Z" fill="white" fill-opacity="0.85"/>
  <path d="M6.48438 15.2768L17.1387 17.1421C19.0039 17.4741 20.1172 16.3022 20.1172 14.2124L20.1172 3.00146C20.1172 0.80419 19.082-0.279795 17.1387 0.0620022L6.48438 1.937C4.54102 2.2788 3.50586 3.22606 3.50586 4.86669L3.50586 12.3374C3.50586 13.9683 4.54102 14.935 6.48438 15.2768ZM6.40625 13.8022C5.47852 13.646 4.98047 13.1772 4.98047 12.3569L4.98047 4.84716C4.98047 4.02685 5.47852 3.5581 6.40625 3.40185L17.2168 1.53661C18.1445 1.38036 18.6426 1.89794 18.6426 2.98192L18.6426 14.2319C18.6426 15.2671 18.1152 15.8237 17.2168 15.6772Z" fill="white" fill-opacity="0.85"/>
 </g>
</svg>
