<?xml version="1.0" encoding="UTF-8"?>
<!--Generator: Apple Native CoreSVG 341-->
<!DOCTYPE svg
PUBLIC "-//W3C//DTD SVG 1.1//EN"
       "http://www.w3.org/Graphics/SVG/1.1/DTD/svg11.dtd">
<svg version="1.1" xmlns="http://www.w3.org/2000/svg" xmlns:xlink="http://www.w3.org/1999/xlink" viewBox="0 0 20.2832 19.9316">
 <g>
  <rect height="19.9316" opacity="0" width="20.2832" x="0" y="0"/>
  <path d="M9.96094 19.9219C15.459 19.9219 19.9219 15.459 19.9219 9.96094C19.9219 4.46289 15.459 0 9.96094 0C4.46289 0 0 4.46289 0 9.96094C0 15.459 4.46289 19.9219 9.96094 19.9219ZM9.96094 18.2617C5.37109 18.2617 1.66016 14.5508 1.66016 9.96094C1.66016 5.37109 5.37109 1.66016 9.96094 1.66016C14.5508 1.66016 18.2617 5.37109 18.2617 9.96094C18.2617 14.5508 14.5508 18.2617 9.96094 18.2617Z" fill="white" fill-opacity="0.425"/>
  <path d="M7.43164 15.7129L12.4805 15.7129C13.1348 15.7129 13.5352 15.3418 13.5645 14.6875L13.8965 6.96289L14.668 6.96289C14.9023 6.96289 15.0781 6.77734 15.0879 6.55273C15.0977 6.31836 14.9023 6.13281 14.668 6.13281L12.3242 6.13281L12.3242 5.3418C12.3242 4.53125 11.7871 4.02344 10.9277 4.02344L8.95508 4.02344C8.10547 4.02344 7.57812 4.53125 7.57812 5.3418L7.57812 6.13281L5.22461 6.13281C5 6.13281 4.80469 6.31836 4.80469 6.55273C4.80469 6.77734 5 6.96289 5.22461 6.96289L6.02539 6.96289L6.36719 14.6875C6.38672 15.3418 6.76758 15.7129 7.43164 15.7129ZM8.27148 14.1992C8.07617 14.1992 7.91992 14.0625 7.91992 13.8672L7.71484 8.16406C7.71484 7.95898 7.8418 7.82227 8.07617 7.82227C8.27148 7.82227 8.42773 7.94922 8.42773 8.16406L8.61328 13.8672C8.61328 14.0625 8.48633 14.1992 8.27148 14.1992ZM9.94141 14.1992C9.72656 14.1992 9.58008 14.0625 9.58008 13.8672L9.58008 8.16406C9.58008 7.95898 9.7168 7.82227 9.94141 7.82227C10.1562 7.82227 10.3027 7.95898 10.3027 8.16406L10.3027 13.8672C10.3027 14.0625 10.1562 14.1992 9.94141 14.1992ZM11.6016 14.1992C11.3867 14.1992 11.2598 14.0625 11.2598 13.8672L11.4453 8.16406C11.4551 7.94922 11.6016 7.82227 11.8066 7.82227C12.0312 7.82227 12.1582 7.95898 12.1582 8.16406L11.9531 13.8672C11.9531 14.0625 11.7969 14.1992 11.6016 14.1992ZM8.56445 6.13281L8.56445 5.39062C8.56445 5.13672 8.75 4.9707 9.01367 4.9707L10.8691 4.9707C11.1328 4.9707 11.3184 5.13672 11.3184 5.39062L11.3184 6.13281Z" fill="white" fill-opacity="0.85"/>
 </g>
</svg>
