<?xml version="1.0" encoding="UTF-8"?>
<!--Generator: Apple Native CoreSVG 341-->
<!DOCTYPE svg
PUBLIC "-//W3C//DTD SVG 1.1//EN"
       "http://www.w3.org/Graphics/SVG/1.1/DTD/svg11.dtd">
<svg version="1.1" xmlns="http://www.w3.org/2000/svg" xmlns:xlink="http://www.w3.org/1999/xlink" viewBox="0 0 18.3398 17.9785">
 <g>
  <rect height="17.9785" opacity="0" width="18.3398" x="0" y="0"/>
  <path d="M17.9785 3.02734L17.9785 14.9609C17.9785 16.9727 16.9629 17.9785 14.9121 17.9785L3.06641 17.9785C1.02539 17.9785 0 16.9727 0 14.9609L0 3.02734C0 1.01562 1.02539 0 3.06641 0L14.9121 0C16.9629 0 17.9785 1.01562 17.9785 3.02734ZM7.97852 2.86133C7.08984 2.86133 6.54297 3.38867 6.54297 4.22852L6.54297 5.03906L4.12109 5.03906C3.88672 5.03906 3.69141 5.23438 3.69141 5.47852C3.69141 5.71289 3.88672 5.89844 4.12109 5.89844L4.94141 5.89844L5.29297 13.8574C5.3125 14.541 5.71289 14.9219 6.39648 14.9219L11.6016 14.9219C12.2754 14.9219 12.6953 14.541 12.7246 13.8574L13.0664 5.89844L13.8574 5.89844C14.1016 5.89844 14.2773 5.71289 14.2871 5.47852C14.2969 5.23438 14.1016 5.03906 13.8574 5.03906L11.4551 5.03906L11.4551 4.22852C11.4551 3.38867 10.8887 2.86133 10.0098 2.86133ZM7.42188 7.13867L7.61719 13.0176C7.61719 13.2129 7.49023 13.3594 7.26562 13.3594C7.06055 13.3594 6.89453 13.2129 6.89453 13.0176L6.68945 7.13867C6.68945 6.92383 6.82617 6.78711 7.06055 6.78711C7.26562 6.78711 7.42188 6.91406 7.42188 7.13867ZM9.35547 7.13867L9.35547 13.0176C9.35547 13.2129 9.20898 13.3594 8.98438 13.3594C8.75977 13.3594 8.61328 13.2129 8.61328 13.0176L8.61328 7.13867C8.61328 6.92383 8.75 6.78711 8.98438 6.78711C9.20898 6.78711 9.35547 6.92383 9.35547 7.13867ZM11.2695 7.13867L11.0645 13.0176C11.0645 13.2129 10.8984 13.3594 10.6934 13.3594C10.4785 13.3594 10.3418 13.2129 10.3418 13.0176L10.5371 7.13867C10.5469 6.91406 10.6934 6.78711 10.9082 6.78711C11.1426 6.78711 11.2695 6.92383 11.2695 7.13867ZM10.4004 4.27734L10.4004 5.03906L7.56836 5.03906L7.56836 4.27734C7.56836 4.01367 7.75391 3.84766 8.02734 3.84766L9.94141 3.84766C10.2148 3.84766 10.4004 4.01367 10.4004 4.27734Z" fill="white" fill-opacity="0.85"/>
 </g>
</svg>
