<?xml version="1.0" encoding="UTF-8"?>
<!--Generator: Apple Native CoreSVG 341-->
<!DOCTYPE svg
PUBLIC "-//W3C//DTD SVG 1.1//EN"
       "http://www.w3.org/Graphics/SVG/1.1/DTD/svg11.dtd">
<svg version="1.1" xmlns="http://www.w3.org/2000/svg" xmlns:xlink="http://www.w3.org/1999/xlink" viewBox="0 0 34.8047 25.7715">
 <g>
  <rect height="25.7715" opacity="0" width="34.8047" x="0" y="0"/>
  <path d="M2.31445 18.8965L3.36914 18.8965C3.30078 18.5742 3.27148 18.3398 3.27148 18.0078C3.27148 15.9766 4.88281 14.4727 6.82617 14.4727C8.88672 14.4727 10.4004 16.0547 10.4004 18.0371C10.4004 18.3398 10.3711 18.5742 10.293 18.8965L22.5293 18.8965C22.4805 18.6133 22.4414 18.3398 22.4414 18.0078C22.4414 15.9766 24.0527 14.4727 26.0059 14.4727C28.0664 14.4727 29.5801 16.0547 29.5801 18.0371C29.5801 18.3691 29.5508 18.6035 29.4629 18.8965L32.1289 18.8965C33.5742 18.8965 34.4434 18.0078 34.4434 16.5234L34.4434 12.959C34.4434 11.4844 33.5742 10.5859 32.1289 10.5859L24.7266 10.5859L24.5117 8.73047C24.2969 6.93359 23.3008 6.02539 21.5039 6.02539L17.832 6.02539C14.9121 6.02539 13.125 6.47461 11.0938 7.74414L7.38281 10.0781L4.00391 10.5957C1.25 11.0254 0 12.1973 0 14.3262L0 16.5234C0 18.0078 0.869141 18.8965 2.31445 18.8965ZM6.82617 20.4688C8.18359 20.4688 9.26758 19.3945 9.26758 18.0371C9.26758 16.6895 8.18359 15.6152 6.82617 15.6152C5.47852 15.6152 4.4043 16.6895 4.4043 18.0371C4.4043 19.3848 5.47852 20.4688 6.82617 20.4688ZM26.0059 20.4688C27.3633 20.4688 28.4375 19.3848 28.4375 18.0371C28.4375 16.6895 27.3633 15.6152 26.0059 15.6152C24.668 15.6152 23.5742 16.6992 23.5742 18.0371C23.5742 19.3848 24.6582 20.4688 26.0059 20.4688Z" fill="white" fill-opacity="0.85"/>
  <path d="M14.2383 4.58984L22.5977 4.58984C23.3789 4.58984 23.8086 4.08203 23.8086 3.29102L23.8086 2.1875C23.8086 0.722656 23.0859 0 21.4453 0L20.5566 0C18.9648 0 18.0078 0.214844 16.1426 1.24023L13.9746 2.5293C13.3789 2.86133 13.1543 3.17383 13.1543 3.59375C13.1543 4.23828 13.4766 4.58984 14.2383 4.58984Z" fill="white" fill-opacity="0.85"/>
 </g>
</svg>
