<svg version="1.1" xmlns="http://www.w3.org/2000/svg" xmlns:xlink="http://www.w3.org/1999/xlink" viewBox="0 0 32.9683 25.4021">
 <g>
  <rect height="25.4021" opacity="0" width="32.9683" x="0" y="0"/>
  <path d="M2.98804 24.8934C3.22242 25.2743 3.70093 25.4012 4.07203 25.1962L31.3962 9.43444C31.7673 9.21959 31.9041 8.75084 31.699 8.37975C31.4646 7.98913 30.9763 7.86217 30.615 8.06725L3.28101 23.8387C2.91968 24.0438 2.78297 24.5223 2.98804 24.8934ZM4.13062 19.7079L5.96656 18.6532L5.33179 17.5497L3.55445 18.5751C3.115 18.829 2.67554 18.6727 2.37281 18.1551L1.58179 16.7782C1.01539 15.7919 1.32789 14.913 2.63648 13.868L5.18531 11.8368L7.10914 8.21374C7.97828 6.60241 8.98414 5.61608 10.9568 4.48327L13.6521 2.92077C14.3943 2.50084 15.0095 2.6278 15.5076 3.30163L16.9334 5.24499L23.4959 1.46569C23.9353 1.21178 24.3748 1.35827 24.6775 1.87584L26.1521 4.43444C26.4451 4.95202 26.3572 5.40124 25.9177 5.66491L23.1834 7.23717L23.8181 8.34069L26.6209 6.72936C27.7048 6.10436 27.9685 5.04967 27.3337 3.93639L25.6931 1.10436C25.0584-0.008921 24.0037-0.30189 22.9197 0.32311L17.3044 3.5653L16.5232 2.51061C15.5857 1.25084 14.4334 1.0067 13.0759 1.78795L10.3123 3.37975C8.10523 4.65905 6.95289 5.78209 5.97632 7.61803L4.19898 10.9872L1.865 12.8524C-0.0295349 14.3758-0.459222 15.8016 0.478278 17.413L1.34742 18.9266C1.99195 20.0497 3.03687 20.3426 4.13062 19.7079ZM9.17945 16.7977L20.3904 10.3231L19.7459 9.21959L8.54468 15.6942ZM8.43726 19.3075C9.75562 18.5458 10.1853 16.9247 9.43336 15.6161C8.67164 14.2977 7.05054 13.8583 5.73218 14.62C4.41382 15.3817 3.98414 17.0028 4.74586 18.3212C5.49781 19.6298 7.12867 20.0692 8.43726 19.3075ZM7.8025 18.204C7.10914 18.6044 6.24976 18.3798 5.84937 17.6766C5.43922 16.9833 5.67359 16.1239 6.36695 15.7235C7.07007 15.3231 7.91968 15.5477 8.32984 16.2508C8.73023 16.9442 8.49586 17.8036 7.8025 18.204ZM22.9002 10.9579C24.2087 10.2059 24.6482 8.57506 23.8865 7.26647C23.1345 5.94811 21.5037 5.51842 20.1951 6.27038C18.8767 7.03209 18.447 8.65319 19.199 9.97155C19.9607 11.2801 21.5818 11.7196 22.9002 10.9579ZM22.2654 9.85436C21.5623 10.2645 20.7029 10.0301 20.3025 9.33678C19.9021 8.63366 20.1267 7.78405 20.8298 7.37389C21.5232 6.9735 22.3826 7.19811 22.783 7.90124C23.1931 8.59459 22.9587 9.45397 22.2654 9.85436Z" fill="var(--color-secondary)"/>
  <path d="M30.8884 24.493C31.5037 24.493 31.9627 24.1903 32.2556 23.7313C32.4412 23.4481 32.6072 22.9891 32.6072 22.6571C32.6072 22.3544 32.3923 22.1493 32.0798 22.1493C31.8357 22.1493 31.6404 22.3348 31.5818 22.5985C31.4744 23.1747 31.2986 23.5067 30.8591 23.5067C30.322 23.5067 30.0095 22.745 30.0095 21.3387C30.0095 19.9227 30.3709 19.161 30.8591 19.161C31.2595 19.161 31.4939 19.5614 31.5623 20.0594C31.6111 20.3622 31.8162 20.5477 32.1091 20.5477C32.4021 20.5477 32.5779 20.3329 32.5779 20.0301C32.5779 19.6493 32.4021 19.1122 32.0701 18.7508C31.7673 18.3895 31.3279 18.1844 30.8494 18.1844C29.9998 18.1844 29.4822 18.7411 29.2087 19.3758C28.9353 19.9813 28.8669 20.6551 28.8669 21.3387C28.8669 22.1298 28.9451 22.8817 29.2966 23.5262C29.6482 24.161 30.1755 24.493 30.8884 24.493ZM20.5271 24.4442C20.8689 24.4442 21.0935 24.2196 21.0935 23.868L21.0935 21.7587L22.5974 21.7587L22.5974 23.868C22.5974 24.2196 22.8123 24.4442 23.1638 24.4442C23.5056 24.4442 23.7205 24.2196 23.7205 23.868L23.7205 18.8094C23.7205 18.4676 23.5056 18.243 23.1638 18.243C22.8123 18.243 22.5974 18.4676 22.5974 18.8094L22.5974 20.8212L21.0935 20.8212L21.0935 18.8094C21.0935 18.4676 20.8689 18.243 20.5271 18.243C20.1951 18.243 19.9705 18.4676 19.9705 18.8094L19.9705 23.868C19.9705 24.2196 20.1951 24.4442 20.5271 24.4442ZM25.1072 24.4442L26.1912 24.4442C27.783 24.4442 28.3103 22.911 28.3103 21.3192C28.3103 19.6005 27.7048 18.243 26.1912 18.243L25.1072 18.243C24.7752 18.243 24.5408 18.4383 24.5408 18.829L24.5408 23.8583C24.5408 24.2489 24.7752 24.4442 25.1072 24.4442ZM25.6443 23.4969L25.6443 19.1903L26.0544 19.1903C27.0017 19.1903 27.1775 20.3817 27.1775 21.329C27.1775 22.286 27.031 23.4969 26.0544 23.4969Z" fill="var(--color-primary)"/>
 </g>
</svg>
