<?xml version="1.0" encoding="UTF-8"?>
<!--Generator: Apple Native CoreSVG 341-->
<!DOCTYPE svg
PUBLIC "-//W3C//DTD SVG 1.1//EN"
       "http://www.w3.org/Graphics/SVG/1.1/DTD/svg11.dtd">
<svg version="1.1" xmlns="http://www.w3.org/2000/svg" xmlns:xlink="http://www.w3.org/1999/xlink" viewBox="0 0 37.3926 15.8887">
 <g>
  <rect height="15.8887" opacity="0" width="37.3926" x="0" y="0"/>
  <path d="M9.96094 12.9199C9.96094 14.375 8.80859 15.5273 7.34375 15.5273C5.89844 15.5273 4.73633 14.3652 4.73633 12.9199C4.73633 11.4648 5.89844 10.3027 7.34375 10.3027C8.79883 10.3027 9.96094 11.4648 9.96094 12.9199ZM30.5762 12.9199C30.5762 14.3652 29.4141 15.5273 27.959 15.5273C26.5039 15.5273 25.3418 14.3652 25.3418 12.9199C25.3418 11.4746 26.5137 10.3027 27.959 10.3027C29.4141 10.3027 30.5762 11.4648 30.5762 12.9199ZM26.3574 2.91016L26.5918 4.90234L34.5508 4.90234C36.1035 4.90234 37.0312 5.85938 37.0312 7.45117L37.0312 11.2891C37.0312 12.8809 36.1035 13.8379 34.5508 13.8379L31.5918 13.8379C31.6699 13.5352 31.709 13.2422 31.709 12.9199C31.709 10.8398 30.0391 9.16992 27.959 9.16992C25.8887 9.16992 24.209 10.8496 24.209 12.9199C24.209 13.2422 24.248 13.5352 24.3262 13.8379L10.9863 13.8379C11.0547 13.5449 11.0938 13.2422 11.0938 12.9199C11.0938 10.8398 9.42383 9.16992 7.34375 9.16992C5.27344 9.16992 3.59375 10.8398 3.59375 12.9199C3.59375 13.2422 3.64258 13.5352 3.71094 13.8379L2.49023 13.8379C0.9375 13.8379 0 12.8809 0 11.2891L0 8.92578C0 6.63086 1.33789 5.36133 4.29688 4.91211L7.93945 4.35547L8.17934 4.20532L9.53125 5.99609C10.3711 7.09961 11.3086 7.57812 12.6758 7.57812L14.9512 7.57812L14.9512 8.41797C14.9512 9.10156 15.5566 9.30664 16.0645 8.97461L18.5254 7.39258C18.9941 7.08984 19.0039 6.50391 18.5156 6.19141L16.0742 4.61914C15.5566 4.27734 14.9512 4.48242 14.9512 5.17578L14.9512 6.00586L12.6758 6.00586C11.7578 6.00586 11.3867 5.80078 10.7812 5.01953L9.51457 3.36958L11.9336 1.85547C14.1016 0.488281 16.0352 0 19.1797 0L23.125 0C25.0488 0 26.1328 0.976562 26.3574 2.91016Z" fill="white" fill-opacity="0.2125"/>
  <path d="M12.6758 7.57812C11.3086 7.57812 10.3711 7.09961 9.53125 5.99609L6.91406 2.5293C6.35742 1.81641 5.94727 1.63086 4.86328 1.63086L2.46094 1.63086C2.03125 1.63086 1.67969 1.26953 1.67969 0.839844C1.67969 0.410156 2.03125 0.0585938 2.46094 0.0585938L4.86328 0.0585938C6.34766 0.0585938 7.31445 0.488281 8.13477 1.57227L10.7812 5.01953C11.3867 5.80078 11.7578 6.00586 12.6758 6.00586L14.9512 6.00586L14.9512 5.17578C14.9512 4.48242 15.5566 4.27734 16.0742 4.61914L18.5156 6.19141C19.0039 6.50391 18.9941 7.08984 18.5254 7.39258L16.0645 8.97461C15.5566 9.30664 14.9512 9.10156 14.9512 8.41797L14.9512 7.57812Z" fill="white" fill-opacity="0.85"/>
 </g>
</svg>
