<?xml version="1.0" encoding="UTF-8"?>
<!--Generator: Apple Native CoreSVG 341-->
<!DOCTYPE svg
PUBLIC "-//W3C//DTD SVG 1.1//EN"
       "http://www.w3.org/Graphics/SVG/1.1/DTD/svg11.dtd">
<svg version="1.1" xmlns="http://www.w3.org/2000/svg" xmlns:xlink="http://www.w3.org/1999/xlink" viewBox="0 0 35.2452 25.9597">
 <g>
  <rect height="25.9597" opacity="0" width="35.2452" x="0" y="0"/>
  <path d="M8.66262 19.7425L9.522 19.2445C9.34622 19.0687 9.18997 18.8734 9.06301 18.6488C8.22317 17.1937 8.72122 15.3382 10.1763 14.4984C11.6314 13.6488 13.4868 14.1468 14.3267 15.6117C14.4536 15.8363 14.5513 16.0706 14.6197 16.2953L23.9849 10.8949C23.8091 10.7191 23.6529 10.5238 23.5259 10.2992C22.6861 8.84408 23.1841 6.97885 24.6392 6.14877C26.0943 5.30893 27.9497 5.80697 28.7896 7.26205C28.9165 7.48666 29.0044 7.71127 29.0728 7.95541L31.1529 6.75424C32.2368 6.12924 32.5005 5.07455 31.8657 3.96127L30.3032 1.26596C29.6685 0.152678 28.6236-0.140291 27.5298 0.484709L21.9439 3.70737L20.9771 2.40854C20.0396 1.13901 18.8872 0.894865 17.5298 1.67612L14.7661 3.26791C12.5591 4.54721 11.4068 5.67026 10.4302 7.50619L8.64309 10.8851L6.31887 12.7503C4.42434 14.264 3.99465 15.6898 4.92239 17.3011L5.87942 18.9613C6.52395 20.0746 7.56887 20.3675 8.66262 19.7425ZM12.7544 18.9613C13.7798 18.3656 14.1216 17.096 13.5259 16.0706C12.94 15.055 11.6509 14.7035 10.6353 15.2894C9.61965 15.8851 9.27786 17.1644 9.8638 18.1898C10.4497 19.2054 11.7388 19.5472 12.7544 18.9613ZM27.2173 10.6117C28.2329 10.0257 28.5747 8.73666 27.9888 7.72104C27.4029 6.70541 26.1138 6.35385 25.0982 6.94955C24.0825 7.52572 23.7407 8.82455 24.3169 9.84018C24.9126 10.8558 26.1919 11.1976 27.2173 10.6117Z" fill="white" fill-opacity="0.85"/>
  <path d="M6.0845 25.5531C6.31887 25.9437 6.79739 26.0706 7.16848 25.8558L34.4927 10.0941C34.8638 9.88901 35.0005 9.41049 34.7857 9.0394C34.5611 8.64877 34.0728 8.52182 33.7017 8.73666L6.37747 24.4984C6.01614 24.7035 5.87942 25.1917 6.0845 25.5531Z" fill="white" fill-opacity="0.85"/>
  <path d="M4.39505 20.7679L2.34426 17.2132C2.00247 16.6078 1.31887 16.764 1.12356 17.3499L0.0493421 20.3578C-0.0971423 20.7777 0.0884046 21.0999 0.527858 21.1878L3.66262 21.764C4.27786 21.8812 4.73684 21.3636 4.39505 20.7679Z" fill="white" fill-opacity="0.85"/>
 </g>
</svg>
