<?xml version="1.0" encoding="UTF-8"?>
<!--Generator: Apple Native CoreSVG 341-->
<!DOCTYPE svg
PUBLIC "-//W3C//DTD SVG 1.1//EN"
       "http://www.w3.org/Graphics/SVG/1.1/DTD/svg11.dtd">
<svg version="1.1" xmlns="http://www.w3.org/2000/svg" xmlns:xlink="http://www.w3.org/1999/xlink" viewBox="0 0 20.2832 19.9316">
 <g>
  <rect height="19.9316" opacity="0" width="20.2832" x="0" y="0"/>
  <path d="M19.9219 9.96094C19.9219 15.4492 15.459 19.9219 9.96094 19.9219C4.47266 19.9219 0 15.4492 0 9.96094C0 4.46289 4.47266 0 9.96094 0C15.459 0 19.9219 4.46289 19.9219 9.96094ZM8.03711 8.4375C8.03711 9.45312 8.61328 9.93164 9.29688 10.2832L9.64844 10.459C10.1465 10.7227 10.459 10.957 10.459 11.5234C10.459 11.9922 10.2246 12.3438 9.77539 12.3438C9.35547 12.3438 9.15039 12.0215 9.04297 11.5918C8.97461 11.3184 8.79883 11.1816 8.51562 11.1816C8.20312 11.1816 8.01758 11.3965 8.01758 11.6992C8.01758 11.8066 8.04688 11.9141 8.06641 12.0215C8.28125 12.8027 8.87695 13.2812 9.77539 13.2812C10.9473 13.2812 11.5918 12.5293 11.5918 11.4062C11.5918 10.3809 11.0547 9.92188 10.3125 9.56055L9.95117 9.38477C9.47266 9.14062 9.16016 8.88672 9.16016 8.33984C9.16016 7.91992 9.3457 7.56836 9.75586 7.56836C10.1758 7.56836 10.3516 7.91016 10.4492 8.32031C10.498 8.55469 10.7129 8.69141 10.9863 8.69141C11.2793 8.69141 11.4648 8.49609 11.4648 8.22266C11.4648 8.08594 11.4258 7.94922 11.3867 7.80273C11.1523 7.09961 10.5762 6.61133 9.75586 6.61133C8.80859 6.61133 8.03711 7.25586 8.03711 8.4375ZM4.10156 6.76758C3.7207 6.76758 3.48633 6.95312 3.48633 7.31445C3.48633 7.69531 3.7207 7.88086 4.10156 7.88086L4.90234 7.88086L4.90234 12.6172C4.90234 13.0078 5.08789 13.252 5.48828 13.252C5.85938 13.252 6.06445 13.0078 6.06445 12.6172L6.06445 7.88086L6.86523 7.88086C7.24609 7.88086 7.4707 7.69531 7.4707 7.31445C7.4707 6.96289 7.24609 6.76758 6.86523 6.76758ZM13.4473 7.40234L12.3047 12.3242C12.2754 12.4512 12.2559 12.5781 12.2559 12.6953C12.2559 13.0762 12.5 13.2422 12.793 13.2422C13.125 13.2422 13.3105 13.0371 13.3691 12.7148L13.5742 11.709L15.0684 11.709L15.293 12.7246C15.3711 13.1055 15.5664 13.2422 15.8691 13.2422C16.1719 13.2422 16.416 12.998 16.416 12.6953C16.416 12.6367 16.3672 12.4121 16.3477 12.3242L15.2148 7.40234C15.1074 6.91406 14.8047 6.66992 14.3066 6.66992C13.8477 6.66992 13.5547 6.9043 13.4473 7.40234ZM14.8926 10.8301L13.7305 10.8301L14.2871 8.03711L14.3262 8.03711Z" fill="white" fill-opacity="0.85"/>
 </g>
</svg>
