<?xml version="1.0" encoding="UTF-8"?>
<!--Generator: Apple Native CoreSVG 341-->
<!DOCTYPE svg
PUBLIC "-//W3C//DTD SVG 1.1//EN"
       "http://www.w3.org/Graphics/SVG/1.1/DTD/svg11.dtd">
<svg version="1.1" xmlns="http://www.w3.org/2000/svg" xmlns:xlink="http://www.w3.org/1999/xlink" viewBox="0 0 27.3047 23.0054">
 <g>
  <rect height="23.0054" opacity="0" width="27.3047" x="0" y="0"/>
  <path d="M10.9375 15.199C11.123 16.449 11.7969 17.4353 13.0176 17.4353C14.1936 17.4353 14.8332 16.5787 14.9417 15.4371L16.353 16.8475C15.8357 18.1606 14.7111 19.0173 12.9883 19.0173C10.4199 19.0173 9.3457 16.7615 9.3457 15.3943C9.3457 14.8962 9.62891 14.4959 10.1074 14.4959C10.4688 14.4959 10.8398 14.6912 10.9375 15.199ZM23.9648 5.28687L26.9043 17.865C26.9336 17.9431 26.9434 18.0505 26.9434 18.1287C26.9434 18.6072 26.5625 18.949 26.0938 18.949C25.6055 18.949 25.3027 18.6951 25.1953 18.2068L24.4824 14.9841L20.7324 14.9841L20.5728 15.7034L19.158 14.2886L21.2695 5.29664C21.4453 4.55445 21.8262 4.09546 22.5977 4.09546C23.3496 4.09546 23.7793 4.58375 23.9648 5.28687ZM5.3627 5.86304L5.10742 5.86304L5.10742 17.9236C5.10742 18.4705 4.83398 18.9197 4.21875 18.9197C3.63281 18.9197 3.31055 18.5095 3.31055 17.9236L3.31055 5.86304L0.869141 5.86304C0.351562 5.86304 0 5.57984 0 5.06226C0 4.56421 0.351562 4.28101 0.869141 4.28101L3.77984 4.28101ZM21.0449 13.4802L24.1602 13.4802L22.5879 6.37086ZM16.4355 7.58179C16.4355 8.04078 16.1328 8.40211 15.6738 8.40211C15.2734 8.40211 14.9219 8.19703 14.8438 7.70875C14.6484 6.50757 14.0332 5.59937 12.9102 5.59937C12.1932 5.59937 11.703 5.98498 11.4353 6.56592L10.2213 5.35194C10.818 4.52729 11.7439 4.01734 12.9102 4.01734C15.3809 4.01734 16.4355 6.32203 16.4355 7.58179Z" fill="white" fill-opacity="0.425"/>
  <path d="M22.2168 21.0877C22.5098 21.3806 22.998 21.3806 23.2812 21.0877C23.5645 20.7947 23.584 20.3357 23.2812 20.0232L4.61914 1.36109C4.31641 1.05836 3.83789 1.06812 3.54492 1.36109C3.26172 1.64429 3.26172 2.14234 3.54492 2.42554Z" fill="white" fill-opacity="0.85"/>
 </g>
</svg>
