<?xml version="1.0" encoding="UTF-8"?>
<!--Generator: Apple Native CoreSVG 341-->
<!DOCTYPE svg
PUBLIC "-//W3C//DTD SVG 1.1//EN"
       "http://www.w3.org/Graphics/SVG/1.1/DTD/svg11.dtd">
<svg version="1.1" xmlns="http://www.w3.org/2000/svg" xmlns:xlink="http://www.w3.org/1999/xlink" viewBox="0 0 26.184 21.416">
 <g>
  <rect height="21.416" opacity="0" width="26.184" x="0" y="0"/>
  <path d="M7.9504 21.416L17.8723 21.416C19.552 21.416 20.6066 20.3711 20.6359 18.7012L20.7629 9.16992L23.0969 9.70703C24.0344 9.92188 24.6398 9.53125 24.884 8.56445L25.7434 5.09766C25.9875 4.14062 25.6164 3.47656 24.718 3.0957L17.9211 0.195312C17.4133-0.0292969 17.0715-0.00976562 16.6516 0.185547C15.382 0.791016 14.3469 1.10352 12.9113 1.10352C11.466 1.10352 10.4406 0.791016 9.16133 0.185547C8.75118-0.00976562 8.39961-0.0292969 7.8918 0.195312L1.10469 3.0957C0.196489 3.47656-0.164839 4.14062 0.0695361 5.09766L0.938677 8.56445C1.17305 9.53125 1.77852 9.92188 2.72579 9.70703L5.05977 9.16992L5.18672 18.7012C5.20625 20.3711 6.26094 21.416 7.9504 21.416ZM7.96993 19.9121C7.17891 19.9121 6.7004 19.4238 6.69063 18.623L6.55391 7.73438C6.55391 7.5 6.36836 7.33398 6.10469 7.39258L2.68672 8.1543C2.50118 8.19336 2.37422 8.11523 2.33516 7.95898L1.56368 4.88281C1.50508 4.63867 1.57344 4.55078 1.76875 4.47266L8.79024 1.47461C10.0988 2.16797 11.3684 2.51953 12.9113 2.51953C14.4543 2.51953 15.7141 2.16797 17.0324 1.47461L24.0539 4.47266C24.2395 4.55078 24.3176 4.63867 24.259 4.88281L23.4777 7.95898C23.4387 8.11523 23.3215 8.19336 23.1359 8.1543L19.718 7.39258C19.4445 7.33398 19.2688 7.5 19.2688 7.73438L19.132 18.623C19.1223 19.4238 18.6438 19.9121 17.8527 19.9121ZM12.9113 5.44922C15.216 5.44922 17.257 3.80859 17.6867 1.54297L16.2609 0.917969C16.0559 2.64648 14.591 3.94531 12.9113 3.94531C11.2219 3.94531 9.7668 2.64648 9.56172 0.917969L8.13594 1.54297C8.55586 3.80859 10.5969 5.44922 12.9113 5.44922Z" fill="white" fill-opacity="0.85"/>
 </g>
</svg>
