<svg version="1.1" xmlns="http://www.w3.org/2000/svg" xmlns:xlink="http://www.w3.org/1999/xlink" viewBox="0 0 18.3398 17.9785">
 <g>
  <rect height="17.9785" opacity="0" width="18.3398" x="0" y="0"/>
  <path d="M3.06641 17.9785L14.9121 17.9785C16.9629 17.9785 17.9785 16.9727 17.9785 14.9609L17.9785 3.02734C17.9785 1.01562 16.9629 0 14.9121 0L3.06641 0C1.02539 0 0 1.01562 0 3.02734L0 14.9609C0 16.9727 1.02539 17.9785 3.06641 17.9785Z" fill="var(--color-tertiary)"/>
  <path d="M7.8125 13.3887C7.35352 13.3887 7.03125 13.0957 7.03125 12.6465L7.03125 9.51172L6.03516 9.92188C5.97656 9.94141 5.88867 9.96094 5.83984 9.96094C5.6543 9.96094 5.51758 9.81445 5.51758 9.62891C5.51758 9.47266 5.58594 9.375 5.75195 9.30664L7.03125 8.79883L7.03125 7.54883L6.03516 7.94922C5.9668 7.97852 5.88867 7.98828 5.83984 7.98828C5.6543 7.98828 5.51758 7.85156 5.51758 7.65625C5.51758 7.5 5.58594 7.39258 5.75195 7.33398L7.03125 6.81641L7.03125 4.96094C7.03125 4.60938 7.27539 4.35547 7.62695 4.35547C7.97852 4.35547 8.21289 4.60938 8.21289 4.96094L8.21289 6.34766L10.0195 5.61523C10.0977 5.58594 10.1562 5.55664 10.2148 5.55664C10.4688 5.55664 10.5371 5.75195 10.5371 5.88867C10.5371 6.04492 10.4492 6.17188 10.2832 6.23047L8.21289 7.07031L8.21289 8.31055L10.0195 7.57812C10.0879 7.55859 10.1465 7.53906 10.2051 7.53906C10.4004 7.53906 10.5371 7.66602 10.5371 7.88086C10.5371 8.01758 10.4492 8.13477 10.2832 8.20312L8.21289 9.0332L8.21289 12.2559C9.07227 12.2559 9.92188 11.9336 10.498 11.2988C10.8887 10.8887 11.1621 10.3418 11.25 9.70703C11.2891 9.36523 11.4746 9.16016 11.8066 9.16016C12.1777 9.16016 12.3535 9.4043 12.3535 9.72656C12.3535 10.5859 11.8555 11.4941 11.2012 12.1582C10.4102 12.9395 9.13086 13.3887 7.92969 13.3887Z" fill="var(--color-primary)"/>
 </g>
</svg>
