<?xml version="1.0" encoding="UTF-8"?>
<!--Generator: Apple Native CoreSVG 341-->
<!DOCTYPE svg
PUBLIC "-//W3C//DTD SVG 1.1//EN"
       "http://www.w3.org/Graphics/SVG/1.1/DTD/svg11.dtd">
<svg version="1.1" xmlns="http://www.w3.org/2000/svg" xmlns:xlink="http://www.w3.org/1999/xlink" viewBox="0 0 22.1094 18.8379">
 <g>
  <rect height="18.8379" opacity="0" width="22.1094" x="0" y="0"/>
  <path d="M10.8691 0C4.86328 0 0 4.86328 0 10.8691C0 13.8281 1.18164 16.543 3.14453 18.5156C3.47656 18.8477 3.99414 18.8672 4.36523 18.5254C4.66797 18.2227 4.60938 17.6953 4.21875 17.2754C2.64648 15.6348 1.68945 13.3496 1.68945 10.8691C1.68945 5.73242 5.74219 1.66016 10.8691 1.66016C16.0059 1.66016 20.0586 5.73242 20.0586 10.8691C20.0586 13.3496 19.1016 15.6348 17.5293 17.2754C17.1387 17.6953 17.0801 18.2227 17.3828 18.5254C17.7539 18.8672 18.2715 18.8477 18.6035 18.5156C20.5664 16.543 21.748 13.8281 21.748 10.8691C21.748 4.86328 16.8848 0 10.8691 0Z" fill="white" fill-opacity="0.425"/>
  <path d="M10.3418 6.17188L11.4258 6.17188L11.4258 4.92188C11.4258 4.62891 11.1914 4.39453 10.8887 4.39453C10.5762 4.39453 10.3418 4.62891 10.3418 4.92188ZM6.02539 11.2207C6.18164 11.2207 6.32812 11.123 6.44531 10.9473C6.79688 10.4102 7.17773 10.1758 7.67578 10.1758C8.17383 10.1758 8.51562 10.4004 8.81836 10.9375C8.92578 11.1328 9.04297 11.2207 9.18945 11.2207C9.33594 11.2207 9.46289 11.1328 9.57031 10.9375C9.85352 10.4492 10.3809 10.1465 10.8887 10.1465C11.3965 10.1465 11.9238 10.4492 12.1973 10.9375C12.3047 11.1328 12.4316 11.2207 12.5781 11.2207C12.7246 11.2207 12.8418 11.1328 12.959 10.9375C13.2617 10.4004 13.5938 10.1758 14.0918 10.1758C14.5996 10.1758 14.9707 10.4102 15.3223 10.9473C15.4395 11.123 15.5859 11.2207 15.7422 11.2207C16.0059 11.2207 16.1719 11.0059 16.1719 10.7227C16.1719 8.61328 14.5117 5.6543 10.8887 5.6543C7.25586 5.6543 5.5957 8.61328 5.5957 10.7227C5.5957 11.0059 5.76172 11.2207 6.02539 11.2207ZM9.63867 16.8555C10.6445 16.8555 11.4258 16.0938 11.4258 15.0684L11.4258 9.79492L10.3418 9.79492L10.3418 15.0684C10.3418 15.4785 10.0488 15.7715 9.63867 15.7715C9.23828 15.7715 8.93555 15.4785 8.93555 15.0684C8.93555 14.7168 8.71094 14.4531 8.38867 14.4531C8.06641 14.4531 7.85156 14.7168 7.85156 15.0684C7.85156 16.0938 8.62305 16.8555 9.63867 16.8555Z" fill="white" fill-opacity="0.85"/>
 </g>
</svg>
