<svg version="1.1" xmlns="http://www.w3.org/2000/svg" xmlns:xlink="http://www.w3.org/1999/xlink" viewBox="0 0 20.2832 19.9316">
 <g>
  <rect height="19.9316" opacity="0" width="20.2832" x="0" y="0"/>
  <path d="M9.96094 19.9316C15.459 19.9316 19.9219 15.4688 19.9219 9.9707C19.9219 4.48242 15.459 0.00976562 9.96094 0.00976562C4.47266 0.00976562 0 4.48242 0 9.9707C0 15.4688 4.47266 19.9316 9.96094 19.9316Z" fill="var(--color-tertiary)"/>
  <path d="M4.95117 10.3418C4.6875 10.3418 4.50195 10.1074 4.50195 9.81445C4.50195 7.75391 6.04492 4.91211 9.4043 4.62891L9.4043 3.84766C9.4043 3.53516 9.64844 3.29102 9.96094 3.29102C10.2734 3.29102 10.5273 3.53516 10.5273 3.84766L10.5273 4.62891C13.877 4.91211 15.4199 7.75391 15.4199 9.81445C15.4199 10.1074 15.2344 10.3418 14.9707 10.3418C14.8145 10.3418 14.6582 10.2344 14.541 10.0586C14.1797 9.49219 13.7891 9.26758 13.2617 9.26758C12.7539 9.26758 12.4121 9.49219 12.0996 10.0391C11.9727 10.2539 11.8652 10.3418 11.6992 10.3418C11.5527 10.3418 11.4258 10.2539 11.3184 10.0488C11.1328 9.72656 10.8301 9.49219 10.5273 9.36523L10.5273 14.3066C10.5273 15.3613 9.70703 16.1523 8.67188 16.1523C7.62695 16.1523 6.83594 15.3613 6.83594 14.3066C6.83594 13.9453 7.06055 13.6719 7.38281 13.6719C7.72461 13.6719 7.95898 13.9453 7.95898 14.3066C7.95898 14.7266 8.26172 15.0293 8.67188 15.0293C9.0918 15.0293 9.4043 14.7266 9.4043 14.3066L9.4043 9.36523C9.0918 9.49219 8.78906 9.72656 8.60352 10.0488C8.49609 10.2539 8.36914 10.3418 8.22266 10.3418C8.05664 10.3418 7.94922 10.2539 7.82227 10.0391C7.50977 9.49219 7.16797 9.26758 6.66016 9.26758C6.13281 9.26758 5.74219 9.49219 5.39062 10.0586C5.27344 10.2344 5.10742 10.3418 4.95117 10.3418Z" fill="var(--color-primary)"/>
 </g>
</svg>
