<?xml version="1.0" encoding="UTF-8"?>
<!--Generator: Apple Native CoreSVG 341-->
<!DOCTYPE svg
PUBLIC "-//W3C//DTD SVG 1.1//EN"
       "http://www.w3.org/Graphics/SVG/1.1/DTD/svg11.dtd">
<svg version="1.1" xmlns="http://www.w3.org/2000/svg" xmlns:xlink="http://www.w3.org/1999/xlink" viewBox="0 0 20.2832 19.9316">
 <g>
  <rect height="19.9316" opacity="0" width="20.2832" x="0" y="0"/>
  <path d="M19.9219 9.9707C19.9219 15.4688 15.459 19.9316 9.96094 19.9316C4.47266 19.9316 0 15.4688 0 9.9707C0 4.48242 4.47266 0.00976562 9.96094 0.00976562C15.459 0.00976562 19.9219 4.48242 19.9219 9.9707ZM9.4043 3.84766L9.4043 4.62891C6.04492 4.91211 4.50195 7.75391 4.50195 9.81445C4.50195 10.1074 4.6875 10.3418 4.95117 10.3418C5.10742 10.3418 5.27344 10.2344 5.39062 10.0586C5.74219 9.49219 6.13281 9.26758 6.66016 9.26758C7.16797 9.26758 7.50977 9.49219 7.82227 10.0391C7.94922 10.2539 8.05664 10.3418 8.22266 10.3418C8.36914 10.3418 8.49609 10.2539 8.60352 10.0488C8.78906 9.72656 9.0918 9.49219 9.4043 9.36523L9.4043 14.3066C9.4043 14.7266 9.0918 15.0293 8.67188 15.0293C8.26172 15.0293 7.95898 14.7266 7.95898 14.3066C7.95898 13.9453 7.72461 13.6719 7.38281 13.6719C7.06055 13.6719 6.83594 13.9453 6.83594 14.3066C6.83594 15.3613 7.62695 16.1523 8.67188 16.1523C9.70703 16.1523 10.5273 15.3613 10.5273 14.3066L10.5273 9.36523C10.8301 9.49219 11.1328 9.72656 11.3184 10.0488C11.4258 10.2539 11.5527 10.3418 11.6992 10.3418C11.8652 10.3418 11.9727 10.2539 12.0996 10.0391C12.4121 9.49219 12.7539 9.26758 13.2617 9.26758C13.7891 9.26758 14.1797 9.49219 14.541 10.0586C14.6582 10.2344 14.8145 10.3418 14.9707 10.3418C15.2344 10.3418 15.4199 10.1074 15.4199 9.81445C15.4199 7.75391 13.877 4.91211 10.5273 4.62891L10.5273 3.84766C10.5273 3.53516 10.2734 3.29102 9.96094 3.29102C9.64844 3.29102 9.4043 3.53516 9.4043 3.84766Z" fill="white" fill-opacity="0.85"/>
 </g>
</svg>
