<?xml version="1.0" encoding="UTF-8"?>
<!--Generator: Apple Native CoreSVG 341-->
<!DOCTYPE svg
PUBLIC "-//W3C//DTD SVG 1.1//EN"
       "http://www.w3.org/Graphics/SVG/1.1/DTD/svg11.dtd">
<svg version="1.1" xmlns="http://www.w3.org/2000/svg" xmlns:xlink="http://www.w3.org/1999/xlink" viewBox="0 0 18.3398 17.9785">
 <g>
  <rect height="17.9785" opacity="0" width="18.3398" x="0" y="0"/>
  <path d="M3.06641 17.9785L14.9121 17.9785C16.9629 17.9785 17.9785 16.9727 17.9785 14.9609L17.9785 3.02734C17.9785 1.01562 16.9629 0 14.9121 0L3.06641 0C1.02539 0 0 1.01562 0 3.02734L0 14.9609C0 16.9727 1.02539 17.9785 3.06641 17.9785ZM3.08594 16.4062C2.10938 16.4062 1.57227 15.8887 1.57227 14.873L1.57227 3.11523C1.57227 2.09961 2.10938 1.57227 3.08594 1.57227L14.8926 1.57227C15.8594 1.57227 16.4062 2.09961 16.4062 3.11523L16.4062 14.873C16.4062 15.8887 15.8594 16.4062 14.8926 16.4062Z" fill="white" fill-opacity="0.425"/>
  <path d="M9.00391 13.5547C9.56055 13.5547 9.91211 13.2617 10.1562 12.627L12.8906 5.48828C12.9395 5.33203 12.959 5.22461 12.959 5.07812C12.959 4.63867 12.627 4.33594 12.1777 4.33594C11.748 4.33594 11.5039 4.54102 11.3477 5L9.02344 11.6895L8.95508 11.6895L6.64062 5C6.48438 4.54102 6.24023 4.33594 5.81055 4.33594C5.36133 4.33594 5.01953 4.64844 5.01953 5.07812C5.01953 5.22461 5.04883 5.33203 5.09766 5.48828L7.8418 12.6367C8.0957 13.3008 8.4082 13.5547 9.00391 13.5547Z" fill="white" fill-opacity="0.85"/>
 </g>
</svg>
