<svg version="1.1" xmlns="http://www.w3.org/2000/svg" xmlns:xlink="http://www.w3.org/1999/xlink" viewBox="0 0 23.0957 24.6802">
 <g>
  <rect height="24.6802" opacity="0" width="23.0957" x="0" y="0"/>
  <path d="M22.7344 17.3059L22.7344 20.763C22.7344 22.2669 21.9824 22.9993 20.4883 22.9993L2.24609 22.9993C0.751953 22.9993 0 22.2669 0 20.763L0 17.3059C0 15.8118 0.751953 15.0891 2.24609 15.0891L3.09506 15.0891C3.06891 15.3019 3.05664 15.5274 3.05664 15.763C3.05664 16.0207 3.07738 16.2901 3.12096 16.5638L2.36328 16.5638C1.78711 16.5638 1.47461 16.8567 1.47461 17.4622L1.47461 20.6165C1.47461 21.222 1.78711 21.5247 2.36328 21.5247L20.3613 21.5247C20.9473 21.5247 21.2598 21.222 21.2598 20.6165L21.2598 17.4622C21.2598 16.8567 20.9473 16.5638 20.3613 16.5638L18.9487 16.5638C18.7978 16.3029 18.6816 16.0019 18.6816 15.5872C18.6816 15.4163 18.7125 15.2514 18.768 15.0891L20.4883 15.0891C21.9824 15.0891 22.7344 15.8118 22.7344 17.3059Z" fill="var(--color-secondary)"/>
  <path d="M3.28125 4.33719C3.00781 4.73758 3.23242 5.26493 3.76953 5.26493L4.83398 5.26493L4.83398 5.35282C4.83398 8.56571 6.51367 9.01493 6.51367 10.6263C6.51367 12.2376 4.39453 12.677 4.39453 15.763C4.39453 16.8079 4.67773 17.6087 5.41992 18.5462C6.05469 19.347 7.37305 18.5266 6.66992 17.5989C6.13281 16.8763 5.95703 16.4075 5.95703 15.6556C5.95703 13.5657 8.07617 12.9016 8.07617 10.6263C8.07617 8.32157 6.38672 7.80399 6.38672 5.35282L6.38672 5.26493L7.45117 5.26493C7.97852 5.26493 8.21289 4.74735 7.93945 4.33719L6.15234 1.73953C5.85938 1.30008 5.36133 1.28055 5.06836 1.73953ZM8.95508 4.30789C8.69141 4.71805 8.91602 5.23563 9.45312 5.23563L10.5176 5.23563L10.5176 5.32352C10.5176 8.54618 12.1973 8.98563 12.1973 10.597C12.1973 12.2083 10.0781 12.6575 10.0781 15.7434C10.0781 16.7786 10.3613 17.5794 11.1035 18.5169C11.7383 19.3274 13.0566 18.5071 12.3535 17.5696C11.8164 16.8567 11.6406 16.3782 11.6406 15.636C11.6406 13.5364 13.7598 12.8821 13.7598 10.597C13.7598 8.29227 12.0703 7.77469 12.0703 5.32352L12.0703 5.23563L13.1348 5.23563C13.6523 5.23563 13.8965 4.72782 13.623 4.30789L11.8262 1.71024C11.543 1.28055 11.0449 1.26102 10.752 1.71024ZM14.6582 4.26883C14.3945 4.67899 14.6094 5.19657 15.1465 5.19657L16.2207 5.19657L16.2207 5.27469C16.2207 8.49735 17.9004 8.94657 17.9004 10.5579C17.9004 12.1692 15.7812 12.6184 15.7812 15.6946C15.7812 16.7298 16.0547 17.5403 16.7969 18.4778C17.4414 19.2884 18.7598 18.4583 18.0566 17.5306C17.5098 16.8079 17.3438 16.3391 17.3438 15.5872C17.3438 13.4973 19.4629 12.8333 19.4629 10.5579C19.4629 8.25321 17.7734 7.73563 17.7734 5.27469L17.7734 5.19657L18.8281 5.19657C19.3555 5.19657 19.5996 4.68875 19.3164 4.26883L17.5293 1.67118C17.2461 1.23172 16.748 1.21219 16.4551 1.67118Z" fill="var(--color-primary)"/>
 </g>
</svg>
