<?xml version="1.0" encoding="UTF-8"?>
<!--Generator: Apple Native CoreSVG 341-->
<!DOCTYPE svg
PUBLIC "-//W3C//DTD SVG 1.1//EN"
       "http://www.w3.org/Graphics/SVG/1.1/DTD/svg11.dtd">
<svg version="1.1" xmlns="http://www.w3.org/2000/svg" xmlns:xlink="http://www.w3.org/1999/xlink" viewBox="0 0 23.3887 17.9785">
 <g>
  <rect height="17.9785" opacity="0" width="23.3887" x="0" y="0"/>
  <path d="M0.78125 6.21094C1.29883 6.21094 1.57227 5.92773 1.57227 5.41992L1.57227 3.11523C1.57227 2.09961 2.10938 1.57227 3.08594 1.57227L5.44922 1.57227C5.9668 1.57227 6.25 1.28906 6.25 0.791016C6.25 0.283203 5.9668 0 5.44922 0L3.06641 0C1.02539 0 0 1.01562 0 3.02734L0 5.41992C0 5.92773 0.283203 6.21094 0.78125 6.21094ZM22.2461 6.21094C22.7539 6.21094 23.0273 5.92773 23.0273 5.41992L23.0273 3.02734C23.0273 1.01562 22.0117 0 19.9609 0L17.5781 0C17.0605 0 16.7773 0.283203 16.7773 0.791016C16.7773 1.28906 17.0605 1.57227 17.5781 1.57227L19.9414 1.57227C20.918 1.57227 21.4551 2.09961 21.4551 3.11523L21.4551 5.41992C21.4551 5.92773 21.7383 6.21094 22.2461 6.21094ZM0.78125 11.7676C0.273438 11.7676 0 12.0605 0 12.5684L0 14.9609C0 16.9727 1.02539 17.9785 3.06641 17.9785L5.44922 17.9785C5.9668 17.9785 6.25 17.7051 6.25 17.1973C6.25 16.6895 5.9668 16.4062 5.44922 16.4062L3.08594 16.4062C2.10938 16.4062 1.57227 15.8887 1.57227 14.873L1.57227 12.5684C1.57227 12.0605 1.28906 11.7676 0.78125 11.7676ZM22.2461 11.7676C21.7285 11.7676 21.4551 12.0605 21.4551 12.5684L21.4551 14.873C21.4551 15.8887 20.918 16.4062 19.9414 16.4062L17.5781 16.4062C17.0605 16.4062 16.7773 16.6895 16.7773 17.1973C16.7773 17.7051 17.0605 17.9785 17.5781 17.9785L19.9609 17.9785C22.0117 17.9785 23.0273 16.9727 23.0273 14.9609L23.0273 12.5684C23.0273 12.0605 22.7441 11.7676 22.2461 11.7676Z" fill="white" fill-opacity="0.85"/>
 </g>
</svg>
