<?xml version="1.0" encoding="UTF-8"?>
<!--Generator: Apple Native CoreSVG 341-->
<!DOCTYPE svg
PUBLIC "-//W3C//DTD SVG 1.1//EN"
       "http://www.w3.org/Graphics/SVG/1.1/DTD/svg11.dtd">
<svg version="1.1" xmlns="http://www.w3.org/2000/svg" xmlns:xlink="http://www.w3.org/1999/xlink" viewBox="0 0 20.2832 19.9316">
 <g>
  <rect height="19.9316" opacity="0" width="20.2832" x="0" y="0"/>
  <path d="M19.9219 9.96094C19.9219 15.4492 15.459 19.9219 9.96094 19.9219C4.47266 19.9219 0 15.4492 0 9.96094C0 4.46289 4.47266 0 9.96094 0C15.459 0 19.9219 4.46289 19.9219 9.96094ZM14.0918 5.9668L12.5879 12.3633L12.5195 12.3633L10.8301 5.84961C10.7129 5.40039 10.4297 5.18555 9.95117 5.18555C9.47266 5.18555 9.16992 5.40039 9.0625 5.84961L7.38281 12.3633L7.31445 12.3633L5.81055 5.9668C5.68359 5.39062 5.46875 5.16602 4.99023 5.16602C4.52148 5.16602 4.21875 5.47852 4.21875 5.9375C4.21875 6.02539 4.22852 6.13281 4.25781 6.24023L6.25 13.877C6.37695 14.3945 6.72852 14.6777 7.24609 14.6777C7.79297 14.6777 8.16406 14.4043 8.28125 13.8965L9.91211 7.55859L9.98047 7.55859L11.6211 13.8965C11.7383 14.4043 12.1094 14.6777 12.6367 14.6777C13.1738 14.6777 13.5254 14.3945 13.6523 13.877L15.6445 6.24023C15.6836 6.13281 15.6934 6.02539 15.6934 5.9375C15.6934 5.47852 15.3809 5.16602 14.9219 5.16602C14.4434 5.16602 14.2188 5.39062 14.0918 5.9668Z" fill="white" fill-opacity="0.85"/>
 </g>
</svg>
