<?xml version="1.0" encoding="UTF-8"?>
<!--Generator: Apple Native CoreSVG 341-->
<!DOCTYPE svg
PUBLIC "-//W3C//DTD SVG 1.1//EN"
       "http://www.w3.org/Graphics/SVG/1.1/DTD/svg11.dtd">
<svg version="1.1" xmlns="http://www.w3.org/2000/svg" xmlns:xlink="http://www.w3.org/1999/xlink" viewBox="0 0 35.3027 17.1582">
 <g>
  <rect height="17.1582" opacity="0" width="35.3027" x="0" y="0"/>
  <path d="M3.76953 1.89453C4.08203 2.24609 3.98438 2.70508 3.63281 3.10547C2.32422 4.56055 1.5918 6.47461 1.5918 8.57422C1.5918 10.6738 2.32422 12.5879 3.63281 14.043C3.98438 14.4434 4.08203 14.9023 3.76953 15.2539C3.45703 15.6152 2.91016 15.6152 2.53906 15.2051C0.917969 13.4375 0 11.1035 0 8.57422C0 6.04492 0.917969 3.70117 2.53906 1.94336C2.91016 1.5332 3.45703 1.52344 3.76953 1.89453ZM32.4023 1.94336C34.0234 3.70117 34.9414 6.04492 34.9414 8.57422C34.9414 11.1035 34.0234 13.4375 32.4023 15.2051C32.0312 15.6152 31.4844 15.6152 31.1719 15.2539C30.8594 14.9023 30.957 14.4434 31.3086 14.043C32.6172 12.5879 33.3496 10.6738 33.3496 8.57422C33.3496 6.47461 32.6172 4.56055 31.3086 3.10547C30.957 2.70508 30.8594 2.24609 31.1719 1.89453C31.4844 1.52344 32.0312 1.5332 32.4023 1.94336Z" fill="white" fill-opacity="0.85"/>
  <path d="M6.50391 4.67773C6.81641 5.0293 6.68945 5.46875 6.37695 5.88867C5.79102 6.61133 5.50781 7.55859 5.50781 8.57422C5.50781 9.58984 5.79102 10.5273 6.37695 11.2598C6.68945 11.6797 6.81641 12.1191 6.50391 12.4707C6.18164 12.832 5.5957 12.8418 5.25391 12.4023C4.4043 11.3477 3.91602 10.0098 3.91602 8.57422C3.91602 7.13867 4.4043 5.80078 5.25391 4.74609C5.5957 4.30664 6.18164 4.30664 6.50391 4.67773ZM29.6875 4.74609C30.5371 5.80078 31.0254 7.13867 31.0254 8.57422C31.0254 10.0098 30.5371 11.3477 29.6875 12.4023C29.3457 12.8418 28.7598 12.832 28.4375 12.4707C28.125 12.1191 28.252 11.6797 28.5645 11.2598C29.1504 10.5273 29.4336 9.58984 29.4336 8.57422C29.4336 7.55859 29.1504 6.61133 28.5645 5.88867C28.252 5.46875 28.125 5.0293 28.4375 4.67773C28.7598 4.30664 29.3457 4.30664 29.6875 4.74609Z" fill="white" fill-opacity="0.85"/>
  <path d="M26.0449 8.57422C26.0449 13.3105 22.207 17.1387 17.4707 17.1387C12.7344 17.1387 8.89648 13.3105 8.89648 8.57422C8.89648 3.83789 12.7344 0 17.4707 0C22.207 0 26.0449 3.83789 26.0449 8.57422ZM14.0625 4.57031C12.8516 4.57031 12.334 5.08789 12.334 6.26953L12.334 10.8887C12.334 12.0801 12.8516 12.6074 14.0625 12.6074L20.8887 12.6074C22.0996 12.6074 22.6172 12.0801 22.6172 10.8887L22.6172 6.26953C22.6172 5.08789 22.0996 4.57031 20.8887 4.57031ZM21.8359 8.31055L21.8359 8.67188L19.1797 8.67188C18.9062 8.67188 18.7207 8.73047 18.5449 8.98438C18.1836 9.51172 17.9297 9.73633 17.4707 9.73633C17.0117 9.73633 16.7578 9.51172 16.4062 8.98438C16.2207 8.73047 16.0352 8.67188 15.7617 8.67188L13.1055 8.67188L13.1055 8.31055C13.1055 8.01758 13.3105 7.85156 13.623 7.85156L21.3184 7.85156C21.6406 7.85156 21.8359 8.01758 21.8359 8.31055ZM21.8359 7.06055L21.8359 7.42188L13.1055 7.42188L13.1055 7.06055C13.1055 6.76758 13.3105 6.60156 13.623 6.60156L21.3184 6.60156C21.6406 6.60156 21.8359 6.76758 21.8359 7.06055ZM21.8359 5.98633L21.8359 6.17188L13.1055 6.17188L13.1055 5.98633C13.1055 5.5957 13.3789 5.35156 13.7988 5.35156L21.1523 5.35156C21.5625 5.35156 21.8359 5.5957 21.8359 5.98633Z" fill="white" fill-opacity="0.85"/>
 </g>
</svg>
