<?xml version="1.0" encoding="UTF-8"?>
<!--Generator: Apple Native CoreSVG 341-->
<!DOCTYPE svg
PUBLIC "-//W3C//DTD SVG 1.1//EN"
       "http://www.w3.org/Graphics/SVG/1.1/DTD/svg11.dtd">
<svg version="1.1" xmlns="http://www.w3.org/2000/svg" xmlns:xlink="http://www.w3.org/1999/xlink" viewBox="0 0 20.2832 19.9316">
 <g>
  <rect height="19.9316" opacity="0" width="20.2832" x="0" y="0"/>
  <path d="M9.96094 19.9316C15.459 19.9316 19.9219 15.4688 19.9219 9.9707C19.9219 4.48242 15.459 0.00976562 9.96094 0.00976562C4.47266 0.00976562 0 4.48242 0 9.9707C0 15.4688 4.47266 19.9316 9.96094 19.9316Z" fill="white" fill-opacity="0.2125"/>
  <path d="M13.2617 4.44336C13.9941 4.44336 14.4727 4.94141 14.4727 5.69336L14.4727 7.08008L5.37109 7.08008L5.37109 5.69336C5.37109 4.94141 5.84961 4.44336 6.58203 4.44336ZM7.26562 6.48438C7.5293 6.48438 7.73438 6.26953 7.73438 6.01562C7.73438 5.74219 7.5293 5.51758 7.26562 5.51758C7.00195 5.51758 6.78711 5.74219 6.78711 6.01562C6.78711 6.26953 7.00195 6.48438 7.26562 6.48438ZM8.65234 6.48438C8.91602 6.48438 9.13086 6.26953 9.13086 6.01562C9.13086 5.74219 8.91602 5.51758 8.65234 5.51758C8.37891 5.51758 8.18359 5.74219 8.18359 6.01562C8.18359 6.26953 8.37891 6.48438 8.65234 6.48438ZM11.582 6.29883L12.8809 6.29883C13.0566 6.29883 13.1738 6.18164 13.1738 6.01562C13.1738 5.83008 13.0566 5.71289 12.8809 5.71289L11.582 5.71289C11.416 5.71289 11.2891 5.83008 11.2891 6.01562C11.2891 6.18164 11.416 6.29883 11.582 6.29883ZM6.58203 15.4688C5.84961 15.4688 5.37109 14.9609 5.37109 14.209L5.37109 7.83203L14.4727 7.83203L14.4727 14.209C14.4727 14.9609 13.9941 15.4688 13.2617 15.4688ZM9.92188 14.2773C11.4941 14.2773 12.7637 12.998 12.7637 11.4453C12.7637 9.87305 11.4941 8.60352 9.92188 8.60352C8.34961 8.60352 7.08008 9.87305 7.08008 11.4453C7.08008 12.998 8.34961 14.2773 9.92188 14.2773ZM9.92188 13.5547C8.73047 13.5547 7.80273 12.627 7.80273 11.4453C7.80273 10.2539 8.73047 9.31641 9.92188 9.31641C11.1133 9.31641 12.041 10.2539 12.041 11.4453C12.041 12.627 11.1133 13.5547 9.92188 13.5547Z" fill="white" fill-opacity="0.85"/>
 </g>
</svg>
