<svg version="1.1" xmlns="http://www.w3.org/2000/svg" xmlns:xlink="http://www.w3.org/1999/xlink" viewBox="0 0 17.998 22.2071">
 <g>
  <rect height="22.2071" opacity="0" width="17.998" x="0" y="0"/>
  <path d="M0.78125 21.5674L11.8652 21.5674C12.2949 21.5674 12.6562 21.2158 12.6562 20.7862C12.6562 20.3565 12.2949 19.9951 11.8652 19.9951L0.78125 19.9951C0.351562 19.9951 0 20.3565 0 20.7862C0 21.2158 0.351562 21.5674 0.78125 21.5674Z" fill="var(--color-primary)"/>
  <path d="M0.78125 16.5283L16.8555 16.5283C17.2852 16.5283 17.6367 16.1768 17.6367 15.7471C17.6367 15.3174 17.2852 14.9561 16.8555 14.9561L0.78125 14.9561C0.351562 14.9561 0 15.3174 0 15.7471C0 16.1768 0.351562 16.5283 0.78125 16.5283Z" fill="var(--color-primary)"/>
  <path d="M2.09961 8.06155L5.00977 8.06155C5.42969 8.06155 5.76172 7.82717 5.85938 7.42678L6.66016 4.18459L8.25195 11.8506C8.42773 12.6612 9.56055 12.6905 9.79492 11.8604L11.5527 5.69826L12.002 7.36819C12.1289 7.82717 12.3926 8.06155 12.832 8.06155L15.5469 8.06155C15.9863 8.06155 16.3574 7.70022 16.3574 7.30959C16.3574 6.85061 16.0059 6.50881 15.5469 6.50881L13.2617 6.50881L12.3633 2.94436C12.1582 2.19241 11.1133 2.18264 10.8496 2.98342L9.10156 8.73537L7.40234 0.610374C7.23633-0.200173 6.12305-0.200173 5.91797 0.590843L4.53125 6.50881L2.09961 6.50881C1.64062 6.50881 1.28906 6.86037 1.28906 7.30959C1.28906 7.70022 1.65039 8.06155 2.09961 8.06155Z" fill="var(--color-primary)"/>
 </g>
</svg>
