<?xml version="1.0" encoding="UTF-8"?>
<!--Generator: Apple Native CoreSVG 341-->
<!DOCTYPE svg
PUBLIC "-//W3C//DTD SVG 1.1//EN"
       "http://www.w3.org/Graphics/SVG/1.1/DTD/svg11.dtd">
<svg version="1.1" xmlns="http://www.w3.org/2000/svg" xmlns:xlink="http://www.w3.org/1999/xlink" viewBox="0 0 36.3574 16.2402">
 <g>
  <rect height="16.2402" opacity="0" width="36.3574" x="0" y="0"/>
  <path d="M10.9668 13.3105C10.9668 14.9512 9.67773 16.2402 8.02734 16.2402C6.38672 16.2402 5.09766 14.9512 5.09766 13.3105C5.09766 11.6699 6.38672 10.3809 8.02734 10.3809C9.67773 10.3809 10.9668 11.6699 10.9668 13.3105ZM31.0449 13.3105C31.0449 14.9512 29.7559 16.2402 28.1055 16.2402C26.4551 16.2402 25.166 14.9512 25.166 13.3105C25.166 11.6699 26.4551 10.3809 28.1055 10.3809C29.7559 10.3809 31.0449 11.6699 31.0449 13.3105ZM18.6133 1.82617C16.875 2.75391 15.5273 3.66211 14.209 4.60938L24.2871 3.96484C25.8594 3.85742 26.9531 3.98438 28.3691 4.24805L32.9297 5.09766C35.1465 5.50781 35.9961 6.49414 35.9961 8.80859L35.9961 10.5078C35.9961 12.4512 35.0879 13.4961 33.2031 13.6914L32.168 13.7988C32.1777 13.6816 32.1777 13.6328 32.1777 13.5059C32.1777 11.2402 30.3809 9.24805 28.1055 9.24805C25.8301 9.24805 24.0332 11.0449 24.0332 13.3105C24.0332 13.6035 24.0625 13.8965 24.1309 14.1113L12.0312 14.1113C12.0801 13.916 12.0996 13.5938 12.0996 13.3105C12.0996 11.0449 10.3027 9.24805 8.02734 9.24805C5.75195 9.24805 3.95508 11.0449 3.95508 13.3105C3.95508 13.6523 4.00391 14.1992 4.08203 14.5117L2.12891 14.2773C0.654297 14.1113 0 13.3887 0 11.9238L0 10.625C0 8.04688 1.5918 6.58203 4.76562 5.98633L11.416 4.73633C13.252 3.20312 15.4297 1.78711 17.7539 0.546875C18.7793 0 19.5508 1.33789 18.6133 1.82617ZM22.1484 9.08203C20.9863 9.89258 19.4922 10.3418 17.9395 10.3418C16.3965 10.3418 14.8828 9.88281 13.7305 9.08203C13.457 8.88672 13.125 8.92578 12.9297 9.18945C12.7539 9.43359 12.832 9.76562 13.0859 9.98047C14.4336 10.9082 16.1621 11.4258 17.9395 11.4258C19.707 11.4258 21.416 10.9082 22.7832 9.98047C23.0469 9.77539 23.125 9.44336 22.9492 9.18945C22.7539 8.92578 22.4219 8.88672 22.1484 9.08203ZM20.791 7.08008C20.0293 7.61719 18.9941 7.92969 17.9395 7.92969C16.875 7.92969 15.8398 7.61719 15.0879 7.08008C14.8047 6.875 14.4629 6.94336 14.2969 7.1875C14.1211 7.44141 14.1797 7.76367 14.4238 7.93945C15.3906 8.64258 16.6504 9.0332 17.9395 9.0332C19.248 9.0332 20.5078 8.64258 21.4453 7.93945C21.6992 7.76367 21.7676 7.44141 21.582 7.1875C21.416 6.94336 21.0645 6.875 20.791 7.08008Z" fill="white" fill-opacity="0.85"/>
 </g>
</svg>
