<?xml version="1.0" encoding="UTF-8"?>
<!--Generator: Apple Native CoreSVG 341-->
<!DOCTYPE svg
PUBLIC "-//W3C//DTD SVG 1.1//EN"
       "http://www.w3.org/Graphics/SVG/1.1/DTD/svg11.dtd">
<svg version="1.1" xmlns="http://www.w3.org/2000/svg" xmlns:xlink="http://www.w3.org/1999/xlink" viewBox="0 0 31.6699 25.0879">
 <g>
  <rect height="25.0879" opacity="0" width="31.6699" x="0" y="0"/>
  <path d="M20.0781 5.29297L20.0781 18.3777C19.458 18.7585 18.9293 19.2142 18.5059 19.7121L18.5059 5.29297C18.5059 4.86328 18.8379 4.50195 19.2871 4.50195C19.7266 4.50195 20.0781 4.86328 20.0781 5.29297Z" fill="white" fill-opacity="0.85"/>
  <path d="M16.7871 8.25195L16.7871 16.8359C16.7871 17.2754 16.4453 17.6172 16.0059 17.6172C15.5469 17.6172 15.2148 17.2754 15.2148 16.8359L15.2148 8.25195C15.2148 7.8125 15.5469 7.46094 16.0059 7.46094C16.4453 7.46094 16.7871 7.8125 16.7871 8.25195Z" fill="white" fill-opacity="0.85"/>
  <path d="M13.5059 3.13477L13.5059 21.9531C13.5059 22.3926 13.1641 22.7441 12.7051 22.7441C12.2656 22.7441 11.9336 22.3926 11.9336 21.9531L11.9336 3.13477C11.9336 2.69531 12.2656 2.34375 12.7051 2.34375C13.1641 2.34375 13.5059 2.69531 13.5059 3.13477Z" fill="white" fill-opacity="0.85"/>
  <path d="M10.2246 7.07031L10.2246 18.0176C10.2246 18.457 9.87305 18.8086 9.42383 18.8086C8.98438 18.8086 8.65234 18.457 8.65234 18.0176L8.65234 7.07031C8.65234 6.63086 8.98438 6.26953 9.42383 6.26953C9.87305 6.26953 10.2246 6.63086 10.2246 7.07031Z" fill="white" fill-opacity="0.85"/>
  <path d="M6.93359 11.0645L6.93359 14.0234C6.93359 14.4629 6.5918 14.8145 6.14258 14.8145C5.69336 14.8145 5.36133 14.4629 5.36133 14.0234L5.36133 11.0645C5.36133 10.625 5.69336 10.2637 6.14258 10.2637C6.5918 10.2637 6.93359 10.625 6.93359 11.0645Z" fill="white" fill-opacity="0.85"/>
  <path d="M19.6484 23.7012L29.0723 23.7012C29.8145 23.7012 30.2637 23.3496 30.2637 22.7734C30.2637 20.957 28.0078 18.457 24.3652 18.457C20.7129 18.457 18.457 20.957 18.457 22.7734C18.457 23.3496 18.9062 23.7012 19.6484 23.7012ZM24.3652 17.1973C25.8691 17.1973 27.168 15.8594 27.168 14.1016C27.168 12.373 25.8594 11.0938 24.3652 11.0938C22.8711 11.0938 21.5527 12.3926 21.5527 14.1211C21.5527 15.8594 22.8613 17.1973 24.3652 17.1973Z" fill="white" fill-opacity="0.85"/>
 </g>
</svg>
