<?xml version="1.0" encoding="UTF-8"?>
<!--Generator: Apple Native CoreSVG 341-->
<!DOCTYPE svg
PUBLIC "-//W3C//DTD SVG 1.1//EN"
       "http://www.w3.org/Graphics/SVG/1.1/DTD/svg11.dtd">
<svg version="1.1" xmlns="http://www.w3.org/2000/svg" xmlns:xlink="http://www.w3.org/1999/xlink" viewBox="0 0 35 15.8887">
 <g>
  <rect height="15.8887" opacity="0" width="35" x="0" y="0"/>
  <path d="M10.3809 12.9199C10.3809 14.375 9.22852 15.5273 7.76367 15.5273C6.31836 15.5273 5.15625 14.3652 5.15625 12.9199C5.15625 11.4648 6.31836 10.3027 7.76367 10.3027C9.21875 10.3027 10.3809 11.4648 10.3809 12.9199ZM30.0586 12.9199C30.0586 14.3652 28.8965 15.5273 27.4414 15.5273C25.9961 15.5273 24.834 14.3652 24.834 12.9199C24.834 11.4746 26.0059 10.3027 27.4414 10.3027C28.8965 10.3027 30.0586 11.4648 30.0586 12.9199ZM32.9785 2.28516L33.418 2.92969C34.1895 4.04297 34.6387 5.43945 34.6387 6.66016L34.6387 10.8301C34.6387 12.7637 33.8672 13.6426 32.1582 13.6426L31.123 13.6426C31.1719 13.4082 31.1914 13.1738 31.1914 12.9199C31.1914 10.8398 29.5215 9.16992 27.4414 9.16992C25.3809 9.16992 23.6914 10.8496 23.6914 12.9199C23.6914 13.1738 23.7207 13.4082 23.7598 13.6426L11.4453 13.6426C11.4941 13.4082 11.5137 13.1738 11.5137 12.9199C11.5137 10.8398 9.84375 9.16992 7.76367 9.16992C5.69336 9.16992 4.01367 10.8398 4.01367 12.9199C4.01367 13.1738 4.04297 13.4082 4.08203 13.6426L2.49023 13.6426C0.9375 13.6426 0 12.6855 0 11.0938L0 9.41406C0 6.73828 1.65039 5.21484 4.98047 4.80469L8.62305 4.35547L12.5586 1.88477C14.9512 0.390625 16.5625 0 20.5859 0L28.2129 0C30.4785 0 31.8555 0.654297 32.9785 2.28516ZM13.0078 8.08594C12.8223 8.33008 12.8906 8.68164 13.1641 8.88672C14.5703 9.87305 16.3672 10.4102 18.2227 10.4102C20.0586 10.4102 21.8457 9.87305 23.2715 8.88672C23.5645 8.69141 23.623 8.34961 23.4375 8.08594C23.252 7.83203 22.9102 7.7832 22.6367 7.97852C21.4258 8.83789 19.8535 9.30664 18.2227 9.30664C16.6113 9.30664 15.0195 8.82812 13.8086 7.97852C13.5254 7.7832 13.1934 7.82227 13.0078 8.08594ZM21.2109 5.87891C20.4199 6.44531 19.3359 6.77734 18.2227 6.77734C17.0996 6.77734 16.0156 6.44531 15.2344 5.87891C14.9414 5.67383 14.5898 5.75195 14.4141 5.99609C14.2383 6.25977 14.2969 6.58203 14.5703 6.77734C15.5664 7.5 16.875 7.90039 18.2227 7.90039C19.5898 7.90039 20.8984 7.5 21.875 6.77734C22.1387 6.58203 22.207 6.25977 22.0215 5.99609C21.8555 5.75195 21.4941 5.67383 21.2109 5.87891ZM19.7852 3.78906C19.4043 4.08203 18.8281 4.25781 18.2227 4.25781C17.6367 4.25781 17.0508 4.08203 16.6602 3.78906C16.3672 3.58398 16.0156 3.64258 15.8203 3.90625C15.6445 4.16992 15.7031 4.52148 15.9668 4.69727C16.5332 5.12695 17.373 5.38086 18.2227 5.38086C19.043 5.38086 19.8828 5.12695 20.4785 4.69727C20.7324 4.51172 20.791 4.16992 20.625 3.90625C20.4395 3.63281 20.0781 3.57422 19.7852 3.78906Z" fill="white" fill-opacity="0.85"/>
 </g>
</svg>
