<svg version="1.1" xmlns="http://www.w3.org/2000/svg" xmlns:xlink="http://www.w3.org/1999/xlink" viewBox="0 0 16.7871 24.7949">
 <g>
  <rect height="24.7949" opacity="0" width="16.7871" x="0" y="0"/>
  <path d="M3.02734 23.6621L13.3984 23.6621C15.4199 23.6621 16.4258 22.6465 16.4258 20.5957L16.4258 5.78125C16.4258 3.73047 15.4199 2.71484 13.4961 2.71484L13.2715 2.71484C13.2715 2.75391 13.2715 2.80273 13.2715 2.8418L13.2715 3.99414C13.2715 5.22461 12.4414 6.09375 11.2305 6.09375L5.19531 6.09375C3.98438 6.09375 3.1543 5.22461 3.1543 3.99414L3.1543 2.8418C3.1543 2.80273 3.1543 2.75391 3.1543 2.71484L2.92969 2.71484C1.00586 2.71484 0 3.73047 0 5.78125L0 20.5957C0 22.6465 1.00586 23.6621 3.02734 23.6621ZM5.19531 4.96094L11.2305 4.96094C11.7969 4.96094 12.1387 4.59961 12.1387 3.99414L12.1387 2.96875C12.1387 2.36328 11.7969 2.00195 11.2305 2.00195L10.332 2.00195C10.2637 0.898438 9.3457 0 8.21289 0C7.08008 0 6.16211 0.898438 6.09375 2.00195L5.19531 2.00195C4.62891 2.00195 4.28711 2.36328 4.28711 2.96875L4.28711 3.99414C4.28711 4.59961 4.62891 4.96094 5.19531 4.96094ZM8.21289 2.92969C7.74414 2.92969 7.36328 2.53906 7.36328 2.08008C7.36328 1.60156 7.74414 1.2207 8.21289 1.2207C8.68164 1.2207 9.0625 1.60156 9.0625 2.08008C9.0625 2.53906 8.68164 2.92969 8.21289 2.92969Z" fill="var(--color-tertiary)"/>
  <path d="M4.69727 11.6211C4.41406 11.6211 4.17969 11.3867 4.17969 11.1035C4.17969 10.8301 4.41406 10.5859 4.69727 10.5859L5.87891 10.5859L6.61133 7.57812C6.74805 7.03125 7.49023 7.05078 7.60742 7.58789L8.37891 11.4062L9.16016 8.81836C9.33594 8.30078 10.0391 8.28125 10.1758 8.80859L10.6348 10.5859L11.7285 10.5859C12.0215 10.5859 12.2461 10.8203 12.2461 11.1035C12.2461 11.3867 12.0117 11.6211 11.7285 11.6211L10.3125 11.6211C10.0098 11.6211 9.81445 11.4551 9.74609 11.1719L9.62891 10.7422L8.82812 13.5352C8.66211 14.082 7.91992 14.0723 7.8125 13.5156L7.08008 10L6.78711 11.1914C6.71875 11.4551 6.52344 11.6211 6.23047 11.6211ZM3.76953 16.4746C3.41797 16.4746 3.13477 16.2012 3.13477 15.8496C3.13477 15.5078 3.41797 15.2246 3.76953 15.2246L12.6562 15.2246C13.0078 15.2246 13.291 15.5078 13.291 15.8496C13.291 16.2012 13.0078 16.4746 12.6562 16.4746ZM3.76953 20.2539C3.42773 20.2539 3.13477 19.9609 3.13477 19.6191C3.13477 19.2676 3.41797 18.9941 3.76953 18.9941L8.84766 18.9941C9.19922 18.9941 9.47266 19.2676 9.47266 19.6191C9.47266 19.9609 9.18945 20.2539 8.84766 20.2539Z" fill="var(--color-primary)"/>
 </g>
</svg>
