<?xml version="1.0" encoding="UTF-8"?>
<!--Generator: Apple Native CoreSVG 341-->
<!DOCTYPE svg
PUBLIC "-//W3C//DTD SVG 1.1//EN"
       "http://www.w3.org/Graphics/SVG/1.1/DTD/svg11.dtd">
<svg version="1.1" xmlns="http://www.w3.org/2000/svg" xmlns:xlink="http://www.w3.org/1999/xlink" viewBox="0 0 28.2422 18.6426">
 <g>
  <rect height="18.6426" opacity="0" width="28.2422" x="0" y="0"/>
  <path d="M13.9355 0C11.6992 0 9.52148 0.664062 7.8125 1.85547C7.49023 2.09961 7.41211 2.5 7.61719 2.80273C7.85156 3.11523 8.25195 3.16406 8.57422 2.92969C10.0488 1.9043 11.9727 1.30859 13.9355 1.30859C15.9277 1.30859 17.832 1.89453 19.3066 2.92969C19.6289 3.16406 20.0293 3.11523 20.2539 2.80273C20.4785 2.49023 20.4004 2.08984 20.0684 1.85547C18.3398 0.664062 16.1719 0 13.9355 0Z" fill="white" fill-opacity="0.85"/>
  <path d="M13.9355 3.05664C12.3145 3.05664 10.7324 3.53516 9.51172 4.4043C9.19922 4.63867 9.12109 5.0293 9.3457 5.3418C9.55078 5.63477 9.96094 5.70312 10.3027 5.46875C11.2598 4.78516 12.5781 4.38477 13.9355 4.38477C15.3027 4.38477 16.6211 4.78516 17.5781 5.46875C17.9199 5.70312 18.3301 5.63477 18.5352 5.3418C18.7598 5.0293 18.6816 4.63867 18.3594 4.4043C17.1777 3.53516 15.5957 3.05664 13.9355 3.05664Z" fill="white" fill-opacity="0.85"/>
  <path d="M13.9355 6.11328C12.9199 6.11328 11.9043 6.41602 11.2207 6.93359C10.918 7.14844 10.8301 7.55859 11.0352 7.86133C11.2793 8.19336 11.6895 8.25195 12.041 8.00781C12.5195 7.64648 13.2227 7.44141 13.9355 7.44141C14.6777 7.44141 15.3809 7.64648 15.8398 8.00781C16.1914 8.26172 16.6113 8.20312 16.8555 7.86133C17.0508 7.55859 16.9629 7.1582 16.6699 6.93359C15.9473 6.41602 14.9316 6.11328 13.9355 6.11328Z" fill="white" fill-opacity="0.85"/>
  <path d="M2.71484 18.6133L25.166 18.6133C26.8359 18.6133 27.8809 17.5879 27.8809 15.9375L27.8809 12.8223C27.8809 11.1719 26.8359 10.1465 25.166 10.1465L2.71484 10.1465C1.04492 10.1465 0 11.1719 0 12.8223L0 15.9375C0 17.5879 1.04492 18.6133 2.71484 18.6133ZM3.70117 14.668C3.28125 14.668 2.98828 14.375 2.98828 13.9648C2.98828 13.5449 3.28125 13.2422 3.70117 13.2422L7.11914 13.2422C7.5293 13.2422 7.83203 13.5449 7.83203 13.9648C7.83203 14.375 7.5293 14.668 7.11914 14.668ZM12.2168 15.6836C11.4941 15.6836 10.8984 15.0879 10.8984 14.3652C10.8984 13.6621 11.4941 13.0664 12.2168 13.0664C12.9297 13.0664 13.5254 13.6621 13.5254 14.3652C13.5254 15.0879 12.9297 15.6836 12.2168 15.6836ZM16.0254 15.6836C15.3027 15.6836 14.707 15.0879 14.707 14.3652C14.707 13.6621 15.3027 13.0664 16.0254 13.0664C16.7383 13.0664 17.334 13.6621 17.334 14.3652C17.334 15.0879 16.7383 15.6836 16.0254 15.6836ZM19.834 15.6836C19.1113 15.6836 18.5156 15.0879 18.5156 14.3652C18.5156 13.6621 19.1113 13.0664 19.834 13.0664C20.5469 13.0664 21.1426 13.6621 21.1426 14.3652C21.1426 15.0879 20.5469 15.6836 19.834 15.6836ZM23.6426 15.6836C22.9199 15.6836 22.3242 15.0879 22.3242 14.375C22.3242 13.6621 22.9199 13.0664 23.6426 13.0664C24.3652 13.0664 24.9609 13.6621 24.9609 14.375C24.9609 15.0879 24.3652 15.6836 23.6426 15.6836Z" fill="white" fill-opacity="0.85"/>
 </g>
</svg>
