<svg version="1.1" xmlns="http://www.w3.org/2000/svg" xmlns:xlink="http://www.w3.org/1999/xlink" viewBox="0 0 20.2832 19.9316">
 <g>
  <rect height="19.9316" opacity="0" width="20.2832" x="0" y="0"/>
  <path d="M9.96094 19.9219C15.459 19.9219 19.9219 15.459 19.9219 9.96094C19.9219 4.46289 15.459 0 9.96094 0C4.46289 0 0 4.46289 0 9.96094C0 15.459 4.46289 19.9219 9.96094 19.9219ZM9.96094 18.2617C5.37109 18.2617 1.66016 14.5508 1.66016 9.96094C1.66016 5.37109 5.37109 1.66016 9.96094 1.66016C14.5508 1.66016 18.2617 5.37109 18.2617 9.96094C18.2617 14.5508 14.5508 18.2617 9.96094 18.2617Z" fill="var(--color-secondary)"/>
  <path d="M4.55078 8.37891C5.39062 8.10547 6.25 7.96875 7.08984 7.96875C8.17383 7.96875 8.97461 8.13477 10.0098 8.13477C11.123 8.13477 11.8457 7.37305 11.8457 6.37695C11.8457 5.36133 11.0547 4.61914 10.0879 4.61914C9.36523 4.61914 8.73047 5.07812 8.47656 5.67383C8.36914 5.9082 8.4082 6.21094 8.69141 6.33789C8.92578 6.45508 9.20898 6.37695 9.35547 6.08398C9.48242 5.80078 9.74609 5.5957 10.0879 5.5957C10.5273 5.5957 10.8594 5.87891 10.8594 6.37695C10.8594 6.86523 10.5371 7.16797 10.0098 7.16797C9.0332 7.16797 8.22266 6.98242 7.08984 6.98242C6.12305 6.98242 5.12695 7.16797 4.25781 7.44141C3.94531 7.53906 3.81836 7.8125 3.90625 8.05664C3.97461 8.32031 4.23828 8.47656 4.55078 8.37891ZM13.7598 11.1426C15.1953 11.1426 16.2207 10.2246 16.2207 8.93555C16.2207 7.67578 15.2441 6.74805 14.0332 6.74805C12.9199 6.74805 12.0703 7.53906 11.9336 8.56445C11.875 8.87695 12.0703 9.13086 12.3242 9.16016C12.5977 9.19922 12.8516 9.0332 12.9102 8.69141C12.998 8.125 13.457 7.73438 14.0332 7.73438C14.7168 7.73438 15.2344 8.21289 15.2344 8.93555C15.2344 9.6875 14.6777 10.1562 13.7598 10.1562C11.9824 10.1562 10.0488 9.13086 7.65625 9.13086C6.43555 9.13086 5.30273 9.33594 4.24805 9.70703C3.95508 9.81445 3.81836 10.0781 3.90625 10.332C3.97461 10.5957 4.23828 10.752 4.56055 10.6348C5.50781 10.2734 6.49414 10.1172 7.65625 10.1172C9.99023 10.1172 11.748 11.1426 13.7598 11.1426ZM10.0195 15.293C10.9766 15.293 11.7383 14.5801 11.7383 13.5645C11.7383 12.0801 10.2539 11.2793 7.57812 11.2793C6.48438 11.2793 5.26367 11.4941 4.23828 11.8457C3.95508 11.9629 3.80859 12.2266 3.90625 12.4609C3.97461 12.7246 4.23828 12.8906 4.56055 12.7832C5.48828 12.4512 6.52344 12.2559 7.57812 12.2559C9.70703 12.2559 10.752 12.7637 10.752 13.5645C10.752 14.0527 10.4395 14.3164 10.0195 14.3164C9.58984 14.3164 9.36523 14.0723 9.28711 13.6035C9.24805 13.3496 9.05273 13.1055 8.74023 13.1348C8.38867 13.1543 8.25195 13.457 8.29102 13.7402C8.4082 14.5996 9.05273 15.293 10.0195 15.293Z" fill="var(--color-primary)"/>
 </g>
</svg>
