<?xml version="1.0" encoding="UTF-8"?>
<!--Generator: Apple Native CoreSVG 341-->
<!DOCTYPE svg
PUBLIC "-//W3C//DTD SVG 1.1//EN"
       "http://www.w3.org/Graphics/SVG/1.1/DTD/svg11.dtd">
<svg version="1.1" xmlns="http://www.w3.org/2000/svg" xmlns:xlink="http://www.w3.org/1999/xlink" viewBox="0 0 17.0703 20.7324">
 <g>
  <rect height="20.7324" opacity="0" width="17.0703" x="0" y="0"/>
  <path d="M0 18.7305C0 19.9219 0.820312 20.7227 2.04102 20.7227L14.668 20.7227C15.8984 20.7227 16.709 19.9219 16.709 18.7305L16.709 1.99219C16.709 0.800781 15.8984 0 14.668 0L2.04102 0C0.820312 0 0 0.800781 0 1.99219ZM1.57227 18.6328L1.57227 2.08984C1.57227 1.77734 1.77734 1.57227 2.07031 1.57227L14.6387 1.57227C14.9414 1.57227 15.1367 1.77734 15.1367 2.08984L15.1367 18.6328C15.1367 18.9453 14.9414 19.1504 14.6387 19.1504L2.07031 19.1504C1.77734 19.1504 1.57227 18.9453 1.57227 18.6328Z" fill="white" fill-opacity="0.85"/>
  <path d="M3.04688 6.04492L13.6719 6.04492C13.8574 6.04492 14.0039 5.89844 14.0039 5.72266L14.0039 3.03711C14.0039 2.85156 13.8574 2.70508 13.6719 2.70508L3.04688 2.70508C2.86133 2.70508 2.71484 2.85156 2.71484 3.03711L2.71484 5.72266C2.71484 5.89844 2.86133 6.04492 3.04688 6.04492ZM6.875 4.84375C6.5918 4.84375 6.39648 4.6582 6.39648 4.375C6.39648 4.0918 6.5918 3.90625 6.875 3.90625L9.84375 3.90625C10.127 3.90625 10.3125 4.0918 10.3125 4.375C10.3125 4.6582 10.127 4.84375 9.84375 4.84375Z" fill="white" fill-opacity="0.85"/>
 </g>
</svg>
