<?xml version="1.0" encoding="UTF-8"?>
<!--Generator: Apple Native CoreSVG 341-->
<!DOCTYPE svg
PUBLIC "-//W3C//DTD SVG 1.1//EN"
       "http://www.w3.org/Graphics/SVG/1.1/DTD/svg11.dtd">
<svg version="1.1" xmlns="http://www.w3.org/2000/svg" xmlns:xlink="http://www.w3.org/1999/xlink" viewBox="0 0 20.2832 19.9316">
 <g>
  <rect height="19.9316" opacity="0" width="20.2832" x="0" y="0"/>
  <path d="M9.96094 19.9219C15.459 19.9219 19.9219 15.459 19.9219 9.96094C19.9219 4.46289 15.459 0 9.96094 0C4.46289 0 0 4.46289 0 9.96094C0 15.459 4.46289 19.9219 9.96094 19.9219ZM9.96094 18.2617C5.37109 18.2617 1.66016 14.5508 1.66016 9.96094C1.66016 5.37109 5.37109 1.66016 9.96094 1.66016C14.5508 1.66016 18.2617 5.37109 18.2617 9.96094C18.2617 14.5508 14.5508 18.2617 9.96094 18.2617Z" fill="white" fill-opacity="0.85"/>
  <path d="M4.17969 8.83789C5.01953 8.55469 5.87891 8.42773 6.70898 8.42773C7.80273 8.42773 8.60352 8.59375 9.63867 8.59375C10.752 8.59375 11.4746 7.83203 11.4746 6.83594C11.4746 5.81055 10.6738 5.07812 9.7168 5.07812C8.98438 5.07812 8.34961 5.53711 8.10547 6.13281C7.98828 6.36719 8.03711 6.66992 8.32031 6.79688C8.55469 6.91406 8.83789 6.83594 8.98438 6.54297C9.11133 6.25977 9.375 6.05469 9.7168 6.05469C10.1562 6.05469 10.4883 6.33789 10.4883 6.83594C10.4883 7.32422 10.166 7.62695 9.63867 7.62695C8.66211 7.62695 7.85156 7.44141 6.70898 7.44141C5.75195 7.44141 4.75586 7.62695 3.87695 7.90039C3.56445 7.98828 3.44727 8.26172 3.53516 8.51562C3.60352 8.7793 3.86719 8.93555 4.17969 8.83789ZM13.3887 11.6016C14.8242 11.6016 15.8496 10.6836 15.8496 9.39453C15.8496 8.13477 14.873 7.20703 13.6621 7.20703C12.5488 7.20703 11.6992 7.99805 11.5625 9.02344C11.5039 9.33594 11.6992 9.58984 11.9531 9.61914C12.2266 9.6582 12.4707 9.48242 12.5391 9.15039C12.627 8.57422 13.0762 8.19336 13.6621 8.19336C14.3457 8.19336 14.8633 8.67188 14.8633 9.39453C14.8633 10.1465 14.3066 10.6152 13.3887 10.6152C11.6113 10.6152 9.66797 9.58008 7.27539 9.58008C6.06445 9.58008 4.93164 9.79492 3.86719 10.1562C3.57422 10.2637 3.44727 10.5371 3.53516 10.791C3.60352 11.0547 3.86719 11.2012 4.18945 11.0938C5.13672 10.7324 6.12305 10.5664 7.27539 10.5664C9.61914 10.5664 11.377 11.6016 13.3887 11.6016ZM9.64844 15.752C10.6055 15.752 11.3672 15.0391 11.3672 14.0137C11.3672 12.5391 9.87305 11.7383 7.20703 11.7383C6.11328 11.7383 4.89258 11.9531 3.86719 12.3047C3.58398 12.4121 3.4375 12.6758 3.53516 12.9199C3.60352 13.1836 3.86719 13.3496 4.18945 13.2422C5.11719 12.9102 6.15234 12.7148 7.20703 12.7148C9.33594 12.7148 10.3809 13.2227 10.3809 14.0137C10.3809 14.5117 10.0586 14.7754 9.64844 14.7754C9.21875 14.7754 8.99414 14.5312 8.91602 14.0527C8.87695 13.7988 8.67188 13.5645 8.35938 13.5938C8.01758 13.6133 7.88086 13.916 7.91992 14.1992C8.02734 15.0586 8.68164 15.752 9.64844 15.752Z" fill="white" fill-opacity="0.85"/>
  <path d="M13.6719 6.48438C13.8281 6.48438 13.9355 6.33789 13.9258 6.18164L13.8965 5.5957L14.375 5.92773C14.4922 6.01562 14.6875 5.97656 14.7656 5.84961C14.8633 5.73242 14.8145 5.52734 14.6387 5.44922L14.1211 5.19531L14.6387 4.92188C14.8047 4.83398 14.8438 4.67773 14.7754 4.54102C14.707 4.4043 14.502 4.375 14.375 4.45312L13.8965 4.79492L13.9258 4.21875C13.9355 4.04297 13.8281 3.90625 13.6719 3.90625C13.4961 3.90625 13.3789 4.04297 13.3887 4.20898L13.4277 4.79492L12.9297 4.45312C12.8027 4.375 12.627 4.39453 12.5586 4.54102C12.4805 4.6582 12.5098 4.83398 12.6758 4.93164L13.1934 5.19531L12.6758 5.44922C12.5 5.52734 12.4805 5.71289 12.5391 5.83984C12.6074 5.98633 12.8027 6.01562 12.9297 5.92773L13.4277 5.5957L13.3984 6.18164C13.3887 6.33789 13.4961 6.48438 13.6719 6.48438ZM13.4766 14.4141C13.5742 14.4141 13.6523 14.3164 13.6426 14.2188L13.623 13.9551L13.8379 14.1211C13.9062 14.1797 14.0527 14.1406 14.0918 14.0723C14.1602 13.9941 14.1406 13.8379 14.0234 13.7891L13.7695 13.6816L14.0234 13.5547C14.1309 13.4961 14.1406 13.3887 14.1016 13.3105C14.0625 13.2129 13.916 13.1836 13.8379 13.2324L13.623 13.418L13.6426 13.1445C13.6523 13.0273 13.5742 12.9492 13.4766 12.9492C13.3594 12.9492 13.2715 13.0273 13.2812 13.1348L13.3105 13.418L13.0762 13.2324C13.0078 13.1836 12.8809 13.2031 12.832 13.3105C12.793 13.3691 12.7832 13.4961 12.9102 13.5645L13.1543 13.6816L12.9102 13.7891C12.7832 13.8477 12.793 13.9746 12.8223 14.0527C12.8516 14.1504 13.0078 14.1797 13.0762 14.1211L13.3105 13.9551L13.291 14.2188C13.2812 14.3164 13.3594 14.4141 13.4766 14.4141Z" fill="white" fill-opacity="0.85"/>
 </g>
</svg>
