<?xml version="1.0" encoding="UTF-8"?>
<!--Generator: Apple Native CoreSVG 341-->
<!DOCTYPE svg
PUBLIC "-//W3C//DTD SVG 1.1//EN"
       "http://www.w3.org/Graphics/SVG/1.1/DTD/svg11.dtd">
<svg version="1.1" xmlns="http://www.w3.org/2000/svg" xmlns:xlink="http://www.w3.org/1999/xlink" viewBox="0 0 14.6387 23.2715">
 <g>
  <rect height="23.2715" opacity="0" width="14.6387" x="0" y="0"/>
  <path d="M7.12891 23.2617C10.6641 23.2617 12.793 22.3828 12.793 20.8789C12.793 19.502 10.957 18.6426 7.87109 18.5156L7.87109 14.3262C11.748 14.0527 14.2773 11.5723 14.2773 7.93945C14.2773 5.92773 13.4277 3.28125 12.1973 1.39648C11.6211 0.498047 9.75586 0 7.13867 0C4.50195 0 2.64648 0.498047 2.06055 1.39648C0.830078 3.28125 0 5.92773 0 7.93945C0 11.582 2.5293 14.0527 6.40625 14.3262L6.40625 18.5156C3.31055 18.6328 1.47461 19.502 1.47461 20.8789C1.47461 22.3828 3.59375 23.2617 7.12891 23.2617ZM7.13867 2.41211C4.91211 2.41211 3.41797 2.1582 3.41797 1.86523C3.41797 1.58203 4.92188 1.33789 7.13867 1.33789C9.35547 1.33789 10.8594 1.58203 10.8594 1.86523C10.8594 2.1582 9.35547 2.41211 7.13867 2.41211Z" fill="white" fill-opacity="0.85"/>
 </g>
</svg>
