<?xml version="1.0" encoding="UTF-8"?>
<!--Generator: Apple Native CoreSVG 341-->
<!DOCTYPE svg
PUBLIC "-//W3C//DTD SVG 1.1//EN"
       "http://www.w3.org/Graphics/SVG/1.1/DTD/svg11.dtd">
<svg version="1.1" xmlns="http://www.w3.org/2000/svg" xmlns:xlink="http://www.w3.org/1999/xlink" viewBox="0 0 20.2832 19.9316">
 <g>
  <rect height="19.9316" opacity="0" width="20.2832" x="0" y="0"/>
  <path d="M19.9219 9.96094C19.9219 15.4492 15.459 19.9219 9.96094 19.9219C4.47266 19.9219 0 15.4492 0 9.96094C0 4.46289 4.47266 0 9.96094 0C15.459 0 19.9219 4.46289 19.9219 9.96094ZM12.8516 5.97656L9.97151 8.83622L7.09961 5.97656C6.94336 5.82031 6.74805 5.74219 6.5332 5.74219C6.08398 5.74219 5.72266 6.09375 5.72266 6.5332C5.72266 6.75781 5.81055 6.95312 5.95703 7.10938L8.82363 9.97597L5.95703 12.8223C5.81055 12.9883 5.72266 13.1738 5.72266 13.3984C5.72266 13.8477 6.08398 14.2188 6.5332 14.2188C6.76758 14.2188 6.96289 14.1211 7.11914 13.9746L9.96867 11.121L12.8223 13.9746C12.9785 14.1211 13.1738 14.2188 13.4082 14.2188C13.8477 14.2188 14.209 13.8477 14.209 13.3984C14.209 13.1738 14.1309 12.9883 13.9746 12.8223L11.1141 9.97395L13.9746 7.10938C14.1309 6.95312 14.209 6.75781 14.209 6.5332C14.209 6.09375 13.8477 5.74219 13.4082 5.74219C13.1836 5.74219 12.998 5.82031 12.8516 5.97656Z" fill="white" fill-opacity="0.85"/>
 </g>
</svg>
