<?xml version="1.0" encoding="UTF-8"?>
<!--Generator: Apple Native CoreSVG 341-->
<!DOCTYPE svg
PUBLIC "-//W3C//DTD SVG 1.1//EN"
       "http://www.w3.org/Graphics/SVG/1.1/DTD/svg11.dtd">
<svg version="1.1" xmlns="http://www.w3.org/2000/svg" xmlns:xlink="http://www.w3.org/1999/xlink" viewBox="0 0 23.7891 17.998">
 <g>
  <rect height="17.998" opacity="0" width="23.7891" x="0" y="0"/>
  <path d="M6.58203 17.998L16.8359 17.998C18.7598 17.998 19.6094 17.0996 19.9023 15.1855L21.4746 4.56055L19.9023 4.6582L18.3398 15.166C18.1934 16.1328 17.6758 16.5234 16.8164 16.5234L6.61133 16.5234C5.73242 16.5234 5.22461 16.1328 5.08789 15.166L3.52539 4.6582L1.95312 4.56055L3.52539 15.1855C3.80859 17.1094 4.66797 17.998 6.58203 17.998ZM1.85547 5.39062L21.5723 5.39062C22.7734 5.39062 23.4277 4.63867 23.4277 3.44727L23.4277 1.96289C23.4277 0.771484 22.7734 0.0195312 21.5723 0.0195312L1.85547 0.0195312C0.712891 0.0195312 0 0.771484 0 1.96289L0 3.44727C0 4.63867 0.654297 5.39062 1.85547 5.39062ZM2.25586 3.91602C1.76758 3.91602 1.57227 3.71094 1.57227 3.22266L1.57227 2.1875C1.57227 1.69922 1.76758 1.49414 2.25586 1.49414L21.1816 1.49414C21.6699 1.49414 21.8555 1.69922 21.8555 2.1875L21.8555 3.22266C21.8555 3.71094 21.6699 3.91602 21.1816 3.91602Z" fill="white" fill-opacity="0.425"/>
  <path d="M8.87695 14.4043C9.0918 14.4043 9.25781 14.3066 9.4043 14.1699L15.0684 8.49609C15.2051 8.35938 15.3027 8.18359 15.3027 7.97852C15.3027 7.56836 14.9609 7.24609 14.541 7.24609C14.3457 7.24609 14.1797 7.32422 14.0332 7.46094L8.35938 13.125C8.22266 13.2715 8.125 13.4277 8.125 13.6523C8.125 14.0527 8.4668 14.4043 8.87695 14.4043ZM14.5508 14.4043C14.9609 14.4043 15.3027 14.0527 15.3027 13.6523C15.3027 13.4277 15.2051 13.2715 15.0684 13.125L9.39453 7.46094C9.23828 7.32422 9.08203 7.24609 8.88672 7.24609C8.4668 7.24609 8.125 7.56836 8.125 7.97852C8.125 8.18359 8.22266 8.35938 8.35938 8.49609L14.0234 14.1699C14.1602 14.3066 14.3359 14.4043 14.5508 14.4043Z" fill="white" fill-opacity="0.85"/>
 </g>
</svg>
