<?xml version="1.0" encoding="UTF-8"?>
<!--Generator: Apple Native CoreSVG 341-->
<!DOCTYPE svg
PUBLIC "-//W3C//DTD SVG 1.1//EN"
       "http://www.w3.org/Graphics/SVG/1.1/DTD/svg11.dtd">
<svg version="1.1" xmlns="http://www.w3.org/2000/svg" xmlns:xlink="http://www.w3.org/1999/xlink" viewBox="0 0 22.5464 22.1948">
 <g>
  <rect height="22.1948" opacity="0" width="22.5464" x="0" y="0"/>
  <path d="M12.8894 0.926517L14.3933 2.42066C14.5496 2.56714 14.6863 2.61597 14.8914 2.61597L17.0007 2.61597C18.7585 2.61597 19.5593 3.43628 19.5593 5.17456L19.5593 7.2937C19.5593 7.48902 19.6179 7.6355 19.7644 7.78199L21.2585 9.28589C22.489 10.5164 22.4988 11.6589 21.2585 12.8894L19.7644 14.3933C19.6179 14.5496 19.5593 14.6863 19.5593 14.8914L19.5593 17.0007C19.5593 18.7585 18.7488 19.5593 17.0007 19.5593L14.8914 19.5593C14.6863 19.5593 14.5496 19.6179 14.3933 19.7644L12.8894 21.2585C11.6589 22.489 10.5164 22.4988 9.28589 21.2585L7.78199 19.7644C7.6355 19.6179 7.48902 19.5593 7.2937 19.5593L5.17456 19.5593C3.42652 19.5593 2.61597 18.7488 2.61597 17.0007L2.61597 14.8914C2.61597 14.6863 2.56714 14.5496 2.42066 14.3933L0.926517 12.8894C-0.303951 11.6589-0.313717 10.5164 0.926517 9.28589L2.42066 7.78199C2.56714 7.6355 2.61597 7.48902 2.61597 7.2937L2.61597 5.17456C2.61597 3.41675 3.42652 2.61597 5.17456 2.61597L7.2937 2.61597C7.48902 2.61597 7.6355 2.56714 7.78199 2.42066L9.28589 0.926517C10.5164-0.303951 11.6589-0.313717 12.8894 0.926517ZM13.9832 7.10816L11.1031 9.96782L8.2312 7.10816C8.07495 6.95191 7.87964 6.87378 7.6648 6.87378C7.21558 6.87378 6.85425 7.22535 6.85425 7.6648C6.85425 7.88941 6.94214 8.08472 7.08863 8.24097L9.95522 11.1076L7.08863 13.9539C6.94214 14.1199 6.85425 14.3054 6.85425 14.53C6.85425 14.9793 7.21558 15.3503 7.6648 15.3503C7.89917 15.3503 8.09449 15.2527 8.25074 15.1062L11.1003 12.2526L13.9539 15.1062C14.1101 15.2527 14.3054 15.3503 14.5398 15.3503C14.9793 15.3503 15.3406 14.9793 15.3406 14.53C15.3406 14.3054 15.2625 14.1199 15.1062 13.9539L12.2457 11.1055L15.1062 8.24097C15.2625 8.08472 15.3406 7.88941 15.3406 7.6648C15.3406 7.22535 14.9793 6.87378 14.5398 6.87378C14.3152 6.87378 14.1296 6.95191 13.9832 7.10816Z" fill="white" fill-opacity="0.85"/>
 </g>
</svg>
