<?xml version="1.0" encoding="UTF-8"?>
<!--Generator: Apple Native CoreSVG 341-->
<!DOCTYPE svg
PUBLIC "-//W3C//DTD SVG 1.1//EN"
       "http://www.w3.org/Graphics/SVG/1.1/DTD/svg11.dtd">
<svg version="1.1" xmlns="http://www.w3.org/2000/svg" xmlns:xlink="http://www.w3.org/1999/xlink" viewBox="0 0 18.3691 17.998">
 <g>
  <rect height="17.998" opacity="0" width="18.3691" x="0" y="0"/>
  <path d="M5.3125 17.998L12.6855 17.998C14.4043 17.998 15.7422 17.5 16.6211 16.6211C17.5293 15.7227 18.0078 14.3848 18.0078 12.6758L18.0078 5.32227C18.0078 3.61328 17.5293 2.27539 16.6211 1.37695C15.7324 0.488281 14.4043 0 12.6855 0L5.3125 0C3.60352 0 2.25586 0.498047 1.37695 1.37695C0.478516 2.27539 0 3.61328 0 5.32227L0 12.6758C0 14.3848 0.46875 15.7227 1.37695 16.6211C2.26562 17.5098 3.60352 17.998 5.3125 17.998Z" fill="white" fill-opacity="0.2125"/>
  <path d="M6.14258 13.0078L12.998 6.14258C13.1543 5.98633 13.2422 5.79102 13.2422 5.56641C13.2422 5.12695 12.8809 4.77539 12.4316 4.77539C12.207 4.77539 12.0215 4.85352 11.875 5.00977L4.99023 11.8555C4.83398 12.0215 4.74609 12.207 4.74609 12.4316C4.74609 12.8809 5.10742 13.252 5.56641 13.252C5.79102 13.252 5.98633 13.1543 6.14258 13.0078ZM11.8457 13.0078C12.002 13.1543 12.1973 13.252 12.4316 13.252C12.8809 13.252 13.2422 12.8809 13.2422 12.4316C13.2422 12.207 13.1543 12.0215 12.998 11.8555L6.12305 5.00977C5.9668 4.85352 5.78125 4.77539 5.56641 4.77539C5.10742 4.77539 4.74609 5.12695 4.74609 5.56641C4.74609 5.79102 4.83398 5.98633 4.99023 6.14258Z" fill="white" fill-opacity="0.85"/>
 </g>
</svg>
