<?xml version="1.0" encoding="UTF-8"?>
<!--Generator: Apple Native CoreSVG 341-->
<!DOCTYPE svg
PUBLIC "-//W3C//DTD SVG 1.1//EN"
       "http://www.w3.org/Graphics/SVG/1.1/DTD/svg11.dtd">
<svg version="1.1" xmlns="http://www.w3.org/2000/svg" xmlns:xlink="http://www.w3.org/1999/xlink" viewBox="0 0 20.2832 19.9316">
 <g>
  <rect height="19.9316" opacity="0" width="20.2832" x="0" y="0"/>
  <path d="M9.96094 19.9219C15.459 19.9219 19.9219 15.459 19.9219 9.96094C19.9219 4.46289 15.459 0 9.96094 0C4.46289 0 0 4.46289 0 9.96094C0 15.459 4.46289 19.9219 9.96094 19.9219ZM9.96094 18.2617C5.37109 18.2617 1.66016 14.5508 1.66016 9.96094C1.66016 5.37109 5.37109 1.66016 9.96094 1.66016C14.5508 1.66016 18.2617 5.37109 18.2617 9.96094C18.2617 14.5508 14.5508 18.2617 9.96094 18.2617Z" fill="white" fill-opacity="0.85"/>
  <path d="M9.95117 14.4336C10.459 14.4336 10.7422 14.1016 10.7422 13.5547L10.7422 11.0059L13.4863 6.43555C13.5742 6.29883 13.6133 6.14258 13.6133 6.00586C13.6133 5.60547 13.3203 5.30273 12.9102 5.30273C12.5684 5.30273 12.3926 5.42969 12.1875 5.79102L9.99023 9.54102L9.93164 9.54102L7.74414 5.79102C7.53906 5.41992 7.35352 5.30273 7.00195 5.30273C6.60156 5.30273 6.28906 5.61523 6.28906 5.98633C6.28906 6.13281 6.32812 6.2793 6.41602 6.43555L9.17969 11.0254L9.17969 13.5547C9.17969 14.082 9.45312 14.4336 9.95117 14.4336Z" fill="white" fill-opacity="0.85"/>
 </g>
</svg>
