<?xml version="1.0" encoding="UTF-8"?>
<!--Generator: Apple Native CoreSVG 341-->
<!DOCTYPE svg
PUBLIC "-//W3C//DTD SVG 1.1//EN"
       "http://www.w3.org/Graphics/SVG/1.1/DTD/svg11.dtd">
<svg version="1.1" xmlns="http://www.w3.org/2000/svg" xmlns:xlink="http://www.w3.org/1999/xlink" viewBox="0 0 20.2832 19.9316">
 <g>
  <rect height="19.9316" opacity="0" width="20.2832" x="0" y="0"/>
  <path d="M9.96094 19.9219C15.459 19.9219 19.9219 15.4492 19.9219 9.96094C19.9219 4.46289 15.459 0 9.96094 0C4.47266 0 0 4.46289 0 9.96094C0 15.4492 4.47266 19.9219 9.96094 19.9219Z" fill="white" fill-opacity="0.2125"/>
  <path d="M9.96094 14.5801C9.44336 14.5801 9.16016 14.209 9.16016 13.6621L9.16016 11.0645L6.31836 6.33789C6.2207 6.17188 6.18164 6.01562 6.18164 5.86914C6.18164 5.47852 6.50391 5.15625 6.92383 5.15625C7.28516 5.15625 7.48047 5.2832 7.69531 5.66406L9.94141 9.53125L10 9.53125L12.2656 5.66406C12.4707 5.29297 12.6562 5.15625 13.0078 5.15625C13.4375 5.15625 13.7402 5.46875 13.7402 5.88867C13.7402 6.02539 13.7012 6.19141 13.6035 6.33789L10.7812 11.0449L10.7812 13.6621C10.7812 14.2383 10.4883 14.5801 9.96094 14.5801Z" fill="white" fill-opacity="0.85"/>
 </g>
</svg>
