<?xml version="1.0" encoding="UTF-8"?>
<!--Generator: Apple Native CoreSVG 341-->
<!DOCTYPE svg
PUBLIC "-//W3C//DTD SVG 1.1//EN"
       "http://www.w3.org/Graphics/SVG/1.1/DTD/svg11.dtd">
<svg version="1.1" xmlns="http://www.w3.org/2000/svg" xmlns:xlink="http://www.w3.org/1999/xlink" viewBox="0 0 18.3398 17.9785">
 <g>
  <rect height="17.9785" opacity="0" width="18.3398" x="0" y="0"/>
  <path d="M17.9785 3.02734L17.9785 14.9609C17.9785 16.9727 16.9629 17.9785 14.9121 17.9785L3.06641 17.9785C1.02539 17.9785 0 16.9727 0 14.9609L0 3.02734C0 1.01562 1.02539 0 3.06641 0L14.9121 0C16.9629 0 17.9785 1.01562 17.9785 3.02734ZM11.2988 4.6875L9.04297 8.55469L8.97461 8.55469L6.72852 4.6875C6.51367 4.30664 6.31836 4.17969 5.95703 4.17969C5.53711 4.17969 5.21484 4.50195 5.21484 4.89258C5.21484 5.03906 5.25391 5.19531 5.35156 5.36133L8.19336 10.0879L8.19336 12.6855C8.19336 13.2324 8.47656 13.6035 8.99414 13.6035C9.52148 13.6035 9.81445 13.2617 9.81445 12.6855L9.81445 10.0684L12.6367 5.36133C12.7344 5.21484 12.7734 5.04883 12.7734 4.91211C12.7734 4.49219 12.4707 4.17969 12.041 4.17969C11.6992 4.17969 11.5039 4.31641 11.2988 4.6875Z" fill="white" fill-opacity="0.85"/>
 </g>
</svg>
