<?xml version="1.0" encoding="UTF-8"?>
<!--Generator: Apple Native CoreSVG 341-->
<!DOCTYPE svg
PUBLIC "-//W3C//DTD SVG 1.1//EN"
       "http://www.w3.org/Graphics/SVG/1.1/DTD/svg11.dtd">
<svg version="1.1" xmlns="http://www.w3.org/2000/svg" xmlns:xlink="http://www.w3.org/1999/xlink" viewBox="0 0 20.8301 18.6621">
 <g>
  <rect height="18.6621" opacity="0" width="20.8301" x="0" y="0"/>
  <path d="M20.4688 2.65625C20.4688 3.10547 20.332 3.58398 20.0879 4.02344L12.5098 17.2266C12.002 18.1055 11.1328 18.5547 10.2344 18.5547C9.33594 18.5547 8.45703 18.1055 7.95898 17.2266L0.380859 4.02344C0.117188 3.57422 0 3.10547 0 2.65625C0 1.16211 1.00586 0 2.66602 0L17.8027 0C19.4629 0 20.4688 1.16211 20.4688 2.65625ZM3.88672 2.80273C3.47656 2.80273 3.24219 3.18359 3.45703 3.56445L9.79492 14.6289C10 15.0098 10.459 15.0098 10.6641 14.6289L17.002 3.56445C17.207 3.19336 16.9824 2.80273 16.5723 2.80273Z" fill="white" fill-opacity="0.85"/>
 </g>
</svg>
