<svg version="1.1" xmlns="http://www.w3.org/2000/svg" xmlns:xlink="http://www.w3.org/1999/xlink" viewBox="0 0 20.2832 19.9316">
 <g>
  <rect height="19.9316" opacity="0" width="20.2832" x="0" y="0"/>
  <path d="M9.96094 19.9219C15.459 19.9219 19.9219 15.459 19.9219 9.96094C19.9219 4.46289 15.459 0 9.96094 0C4.46289 0 0 4.46289 0 9.96094C0 15.459 4.46289 19.9219 9.96094 19.9219ZM9.96094 18.2617C5.37109 18.2617 1.66016 14.5508 1.66016 9.96094C1.66016 5.37109 5.37109 1.66016 9.96094 1.66016C14.5508 1.66016 18.2617 5.37109 18.2617 9.96094C18.2617 14.5508 14.5508 18.2617 9.96094 18.2617Z" fill="var(--color-secondary)"/>
  <path d="M7.13867 14.3164L12.8613 14.3164C13.2324 14.3164 13.5156 14.0723 13.5156 13.6816C13.5156 13.2812 13.2324 13.0371 12.8613 13.0371L8.47656 13.0371L8.47656 12.959L12.959 6.73828C13.1543 6.47461 13.1934 6.33789 13.1934 6.11328C13.1934 5.70312 12.9004 5.41992 12.4707 5.41992L7.05078 5.41992C6.67969 5.41992 6.40625 5.66406 6.40625 6.05469C6.40625 6.45508 6.67969 6.69922 7.05078 6.69922L11.1914 6.69922L11.1914 6.77734L6.69922 12.998C6.48438 13.3008 6.43555 13.4375 6.43555 13.6523C6.43555 14.043 6.71875 14.3164 7.13867 14.3164Z" fill="var(--color-primary)"/>
 </g>
</svg>
